<svg height="50" viewBox="0 0 320 50" width="320" xmlns="http://www.w3.org/2000/svg" xmlns:xlink="http://www.w3.org/1999/xlink"><mask id="a" fill="#fff"><path d="m.40527813.30802703h24.32502347v15.01643517h-24.32502347z" fill="#fff" fill-rule="evenodd"/></mask><g fill="none" fill-rule="evenodd" transform="translate(39 10)"><g fill="#fefefe" transform="translate(.757812 .475992)"><path d="m27.1071047 28.2162162-10.4479609-15.206973c-.5122813.0760271-1.0723047.1144325-1.6808282.1144325h-3.2881484l10.4358359 15.0925405z"/><path d="m20.7631531 8.55021892c0 1.64986488-.5660859 2.85297298-1.6959844 3.61010808l2.1415782 3.1641352c.7115859-.4522433 1.337539-1.0291081 1.8786172-1.7313784 1.095039-1.4217838 1.6429375-3.1202433 1.6429375-5.09694596 0-2.53083784-.8737579-4.56710811-2.6212735-6.1095946-1.5845859-1.38572973-4.1596328-2.07859459-7.7243828-2.07859459h-13.97936717l2.73721875 3.95810811h11.99314062c3.7511719 0 5.6275156 1.42805405 5.6275156 4.28416216" mask="url(#a)"/></g><path d="m10.4364422 22.0345919h4.9811016l-10.36839067-15.09097298-5.04930469-.00156757z" fill="#00a547"/><g fill="#fefefe"><g transform="translate(31.828125 4.394911)"><path d="m.40148906.68581081h3.06535157c1.85209375.00548649 2.77889843.93662162 2.77889843 2.79418919v2.15305405c0 1.15843244-.61685937 1.94613514-1.85057812 2.36232433l2.5159375 6.57281082h-1.97334375l-2.05139844-6.31651352-.6971875.08778378v6.22872974h-1.78767969zm1.78767969 1.60127027v4.53967568h.75857031c.34632032 0 .594125-.0242973.74341407-.07210811.51076562-.19281081.76614843-.56589189.76614843-1.1215946v-2.15305405c0-.79554054-.40770312-1.19291892-1.22235156-1.19291892z"/><path d="m13.8277289 12.0383703c0 1.8575675-1.006375 2.7887027-3.019125 2.7941892-2.01199218 0-3.01836718-.9311352-3.01836718-2.7941892v-8.75878381c0-1.85756757 1.006375-2.78556757 3.01836718-2.78556757 2.01275 0 3.019125.928 3.019125 2.78556757zm-1.7876797-8.75878381c0-.79005406-.4077031-1.18508108-1.2231094-1.18508108h-.015914c-.81540627 0-1.22310939.39502702-1.22310939 1.18508108v8.75878381c0 .7955405.41073437 1.1929189 1.23068749 1.1929189.8207109 0 1.2314453-.3973784 1.2314453-1.1929189z"/><path d="m21.7267875 12.0383703c0 1.8575675-1.006375 2.7887027-3.019125 2.7941892-2.0119922 0-3.0183672-.9311352-3.0183672-2.7941892v-8.75878381c0-1.85756757 1.006375-2.78556757 3.0183672-2.78556757 2.01275 0 3.019125.928 3.019125 2.78556757v1.71335135h-1.7876797v-1.71335135c0-.79005406-.4077031-1.18508108-1.2231094-1.18508108h-.015914c-.8154063 0-1.2231094.39502702-1.2231094 1.18508108v8.75878381c0 .7955405.4107344 1.1929189 1.2306875 1.1929189.8207109 0 1.2314453-.3973784 1.2314453-1.1929189v-1.7055135h1.7876797z"/></g><path d="m59.0006289 12.0219108 3.0107891 6.9411892h-1.903625l-2.8258828-6.5007027v6.5007027h-1.7876797v-13.88237838h1.7876797v6.53283788l2.8258828-6.53283788h1.903625z"/><g transform="translate(62.898438 4.394911)"><path d="m.43301406 3.27974324c0-1.85756756 1.006375-2.78635135 3.019125-2.78635135s3.01836719.92878379 3.01836719 2.78635135v1.71335135h-1.78767969v-1.71335135c0-.79005405-.40770312-1.18508108-1.22310937-1.18508108h-.01515625c-.81540625 0-1.22310938.39502703-1.22310938 1.18508108v1.29716217c0 .71481081.74341406 1.55581081 2.22872656 2.52143243 1.34739063.87548648 2.02032813 1.9187027 2.02032813 3.13043246v1.8097567c0 1.8622703-1.00334375 2.7934054-3.01078906 2.7934054-2.01805469-.0047027-3.02670313-.9366216-3.02670313-2.7934054v-1.7055135h1.7884375v1.7055135c0 .7947568.41300781 1.1929189 1.23826563 1.1929189.81540625 0 1.22310937-.3981621 1.22310937-1.1929189v-1.6334054c0-.76340538-.74341406-1.63027025-2.22948437-2.60216214-1.34663282-.87548649-2.02032813-1.93437838-2.02032813-3.17824324z"/><path d="m14.369868 12.0383703c0 1.8575675-1.006375 2.7887027-3.019125 2.7941892-2.01199222 0-3.01836722-.9311352-3.01836722-2.7941892v-8.75878381c0-1.85756757 1.006375-2.78556757 3.01836722-2.78556757 2.01275 0 3.019125.928 3.019125 2.78556757zm-1.7876797-8.75878381c0-.79005406-.4077031-1.18508108-1.2231094-1.18508108h-.0159141c-.8154062 0-1.2231093.39502702-1.2231093 1.18508108v8.75878381c0 .7955405.4107343 1.1929189 1.2306875 1.1929189.8207109 0 1.2314453-.3973784 1.2314453-1.1929189z"/></g><path d="m79.2850719 18.9631784v-13.8823784h1.7876797v12.2889459h3.6155234v1.5934325z"/><path d="m86.2011719 18.9631h1.7884375v-13.88237838h-1.7884375z"/><g transform="translate(31.828125 4.394911)"><path d="m58.3711141.68581081h3.2585937c1.8528516.00548649 2.7788984.93662162 2.7788984 2.79418919v8.3018378c0 1.8520811-.9775781 2.7808649-2.9334921 2.7863514h-3.104zm1.7876796 1.60127027v10.68767572h1.2390235c.8154062 0 1.2231094-.3973784 1.2231094-1.192919v-8.3018378c0-.79554054-.4077032-1.19291892-1.2231094-1.19291892z"/><path d="m3.20872969 19.656827c0 .5564865-.14928907.9820811-.448625 1.2767838-.29857813.2947027-.72901563.4420541-1.2913125.4420541h-.91164844v-3.3726217h1.00789063c.51910156 0 .92225781.1442163 1.21098437.4334325.28796875.2892162.43271094.696.43271094 1.2203513m-.56229688.0188108c0-.8072973-.36450781-1.2117297-1.09503906-1.2117297h-.46150781v2.4477568h.37890625c.78509375 0 1.17764062-.4122703 1.17764062-1.2360271"/></g><path d="m37.9379125 25.7703405h-1.8445156v-3.3726216h1.8445156v.4663514h-1.3110156v.9178108h1.228414v.4616486h-1.228414v1.0588919h1.3110156z"/><path d="m40.8789828 24.8545676c0 .3001892-.1045781.5353243-.3144922.7054054-.209914.1708648-.4993984.2562973-.8676953.2562973-.3690547 0-.6706641-.0587838-.9055859-.1771352v-.5212162c.1485312.0721081.306914.1285406.4736328.1700811.1674766.0415405.3235859.0627027.4675703.0627027.2114297 0 .3667812-.0415405.4675703-.1246216.1000313-.0830811.1500469-.1943784.1500469-.3346757 0-.1261892-.0454688-.2327838-.1379219-.3205676-.0924531-.0877837-.2826641-.1912432-.5706328-.3111621-.2978203-.1246216-.5077344-.2672703-.6289844-.4271622-.1227656-.1598919-.1833906-.3519189-.1833906-.5760811 0-.2813783.097-.5031892.2902422-.6646486.1932422-.1614595.452414-.2421892.7782734-.2421892.3122188 0 .6229219.0705405.9321094.2124054l-.16975.4498919c-.2894844-.1261892-.5486562-.1896757-.776-.1896757-.1720234 0-.303125.0391892-.3925469.1167838-.0894218.0775946-.133375.1802703-.133375.308027 0 .0877838.0174297.1622433.0530469.224946.036375.0619189.0947266.1207027.1765703.1763513.0818438.0556487.2288594.1285406.4418047.2186757.2387109.1034595.4145234.1998649.5259219.2884324.1113984.0893514.1932422.1904595.2455312.3025406.0515313.1120811.0780547.2445405.0780547.3965946"/><path d="m41.8668672 25.7702622h.5335v-3.3726217h-.5335z"/><g transform="translate(43.195312 21.638154)"><path d="m1.75479063 2.30307027h1.19961718v1.69297297c-.19551562.06662162-.38421093.11286487-.56532812.14108108-.18035938.02743244-.37511719.04154054-.58503125.04154054-.49409375 0-.87451563-.15127027-1.14202344-.45381081-.26750781-.30175675-.40164062-.72813513-.40164062-1.27913513 0-.54237838.15080468-.96718919.45317187-1.27443243.30160938-.30645946.71689063-.46008108 1.24660156-.46008108.34025782 0 .66308594.06818919.96772657.203l-.18717969.45929729c-.26447656-.12618919-.52971094-.18889189-.7941875-.18889189-.34783594 0-.62292188.11286487-.82525781.3385946-.20233594.22651351-.303125.53532432-.303125.92721621 0 .41227027.0909375.72578379.2728125.94054054.18263281.21397298.44483593.32135135.78660937.32135135.17278125 0 .35692969-.02194594.55320313-.06662162v-.87h-.67596875z"/><path d="m6.81030938 4.13218649h-.65323438l-1.60353125-2.6875946h-.0181875l.01136719.15048649c.02046094.28608108.03107031.54708108.03107031.78378378v1.75332433h-.48424219v-3.37262162h.64717188l1.59898437 2.67348648h.01364063c-.00303125-.03527027-.00909375-.16381081-.0181875-.3864054-.00909375-.22181081-.01288282-.39502703-.01288282-.51964865v-1.76743243h.48803126z"/></g></g><path d="m51.8472578 26.8801h.4016406v-4.6893784h-.4016406z" fill="#00a547"/><g fill="#fefefe" transform="translate(53.804687 21.638154)"><path d="m1.62376484 2.30307027h1.19961719v1.69297297c-.19551562.06662162-.38421094.11286487-.56532812.14108108-.18035938.02743244-.37511719.04154054-.58503125.04154054-.49409375 0-.87451563-.15127027-1.14202344-.45381081-.26750781-.30175675-.40164063-.72813513-.40164063-1.27913513 0-.54237838.15080469-.96718919.45317188-1.27443243.30160937-.30645946.71689062-.46008108 1.24660156-.46008108.34025781 0 .66308594.06818919.96772656.203l-.18717968.45929729c-.26447657-.12618919-.52971094-.18889189-.7941875-.18889189-.34783594 0-.62292188.11286487-.82525782.3385946-.20233593.22651351-.303125.53532432-.303125.92721621 0 .41227027.0909375.72578379.2728125.94054054.18263282.21397298.44407813.32135135.78660938.32135135.17278125 0 .35692969-.02194594.55320312-.06662162v-.87h-.67596875z"/><path d="m4.49595 2.78517568v1.34732432h-.5335v-3.37262162h.9215c.42058594 0 .73204687.08151351.93438281.24454054s.303125.40913513.303125.73832432c0 .41932433-.21067187.71872973-.63277343.89743244l.92074218 1.49232432h-.60625l-.78130468-1.34732432zm0-.45694595h.3698125c.2485625 0 .42816406-.04781081.54032031-.14264865.11139844-.09562162.16671875-.2367027.16671875-.42481081 0-.19045946-.05986718-.32762162-.18035937-.4107027s-.30160938-.12462162-.54410938-.12462162h-.35238281z"/><path d="m9.26160547 4.13218649-.32585938-.93662163h-1.24660156l-.31903906.93662163h-.56153906l1.22007812-3.38594595h.57972656l1.22007813 3.38594595zm-.46605469-1.4115946-.30539844-.91781081c-.02273437-.06191892-.05380468-.15910811-.09321093-.29078378-.03864844-.13245946-.06592969-.22964865-.08108594-.29078379-.04016406.1888919-.09927344.39581081-.1758125.62075676l-.29478906.87862162z"/><path d="m12.7736875 1.77934595c0 .35191891-.1113984.62232432-.3349531.80964864-.2227969.18732433-.5403203.28137838-.9518125.28137838h-.3387422v1.26189189h-.5335v-3.37262162h.9389297c.4077031 0 .7123437.08621622.9154375.25864865.2030937.17243243.3046406.42637838.3046406.76105406zm-1.6255078.62781081h.2826641c.2735703 0 .4743906-.04937838.6024609-.14813514.1273125-.09797297.1917266-.25237838.1917266-.46086486 0-.19437838-.0575938-.3385946-.1720235-.43421622-.1144297-.09483784-.2925156-.14264865-.5350156-.14264865h-.3698125z"/></g><path d="m70.1572961 25.7703405h-.5350156v-1.5197567h-1.5035v1.5197567h-.5327422v-3.3726216h.5327422v1.3794595h1.5035v-1.3794595h.5350156z" fill="#fefefe"/><path d="m71.3715391 25.7702622h.5335v-3.3726217h-.5335z" fill="#fefefe"/><g fill="#fefefe" transform="translate(72.75 21.638154)"><path d="m1.75986797 1.18437568c-.30615625 0-.54714063.11208108-.72295313.33702702-.17505468.22416216-.26296093.53375676-.26296093.92956757 0 .41305405.08411718.72656757.25310937.93818919.16899219.2124054.41300781.319.73280469.319.13792187 0 .27205469-.01489189.40164062-.04310811.12882813-.02821621.26371875-.06505405.40315625-.10972973v.47340541c-.25538281.09954054-.545625.1497027-.86996875.1497027-.47666406 0-.84344531-.1497027-1.09882812-.44910811-.25614063-.29862162-.38421094-.72656757-.38421094-1.28305405 0-.35113514.06214063-.6575946.18642188-.92016216.12428125-.26335136.30388281-.46478379.53880468-.60508109.23492188-.13951351.51076563-.21005405.82753125-.21005405.33267969 0 .64035157.07289189.92301563.21710811l-.19172656.4592973c-.10988282-.05408109-.22658594-.10110811-.34935157-.14186487-.12276562-.04075676-.25159375-.06113513-.38648437-.06113513"/><path d="m5.50399219 3.21641351c0 .30018919-.10457813.53532433-.31449219.70540541-.20991406.17086486-.49939844.2562973-.86769531.2562973-.36905469 0-.67066406-.05878379-.90558594-.17713514v-.52121622c.14853125.07210811.30691406.12854055.47363281.17008109.16747656.04154054.32358594.0627027.46757031.0627027.21142969 0 .36678125-.04154054.46757032-.12462162.10003125-.08308108.15004687-.19437838.15004687-.33467568 0-.12618919-.04546875-.23278378-.13792187-.32056757-.09245313-.08778378-.28266407-.19124324-.57063282-.31116216-.29782031-.12462162-.50773437-.26727027-.62898437-.42716216-.12200781-.15989189-.18339063-.35191892-.18339063-.57608108 0-.28137838.097-.50318919.29024219-.66464865s.45241406-.24218919.77827344-.24218919c.31221875 0 .62292187.07054054.93210937.21240541l-.16975.44989189c-.28948437-.12618919-.54865625-.18967568-.776-.18967568-.17202343 0-.303125.03918919-.39254687.11678379-.08942188.07759459-.133375.18027027-.133375.30802702 0 .08778379.01742969.16224325.05304687.22494595.036375.06191892.09472657.1207027.17657032.17635135s.22885937.12854054.44180468.21867568c.23871094.10345946.41452344.19986486.52592188.28843243.11139844.08935135.19324219.19045946.24553125.30254054.05153125.11208108.07805469.24454054.07805469.39659459"/></g><path d="m79.8658594 26.8801h.4008828v-4.6893784h-.4008828z" fill="#00a547"/><g fill="#fefefe" transform="translate(81.84375 21.638154)"><path d="m2.42856172 1.77934595c0 .35191891-.11139844.62232432-.33419531.80964864-.22355469.18732433-.54107813.28137838-.95257032.28137838h-.33874218v1.26189189h-.5335v-3.37262162h.93892968c.40770313 0 .71234375.08621622.9154375.25864865s.30464063.42637838.30464063.76105406zm-1.62550781.62781081h.28266406c.27357031 0 .47439062-.04937838.60246094-.14813514.12807031-.09797297.19172656-.25237838.19172656-.46086486 0-.19437838-.05759375-.3385946-.17202344-.43421622-.11442969-.09483784-.29251562-.14264865-.53501562-.14264865h-.3698125z"/><path d="m3.96927031 2.78517568v1.34732432h-.53274218v-3.37262162h.92074218c.42058594 0 .73204688.08151351.93438282.24454054.20233593.16302703.303125.40913513.303125.73832432 0 .41932433-.21067188.71872973-.63277344.89743244l.92074219 1.49232432h-.60625l-.78054688-1.34732432zm0-.45694595h.3698125c.2485625 0 .42892188-.04781081.54032031-.14264865.11139844-.09562162.16671876-.2367027.16671876-.42481081 0-.19045946-.05986719-.32762162-.18035938-.4107027s-.30160937-.12462162-.54410937-.12462162h-.35238282z"/></g><path d="m88.5556953 25.7702622h.5335v-3.3726217h-.5335z" fill="#fefefe"/><path d="m93.0223938 25.7703405h-.6532344l-1.6035313-2.6875946h-.0181875l.0113672.1504865c.020461.2860811.0310703.5470811.0310703.7837838v1.7533243h-.4842422v-3.3726216h.6471719l1.5989844 2.6734865h.0136406c-.0030312-.0352703-.0090937-.1638108-.0181875-.3864054-.0090937-.2218108-.0128828-.395027-.0128828-.5196486v-1.7674325h.4880313z" fill="#fefefe"/><path d="m93.8734172 22.3978757v.4734054h.9586328v2.8992162h.5335v-2.8992162h.9593906v-.4734054z" fill="#fefefe"/></g></svg>