<svg height="600" viewBox="0 0 160 600" width="160" xmlns="http://www.w3.org/2000/svg"><path d="m50.6882324 300h-3.6552734l-5.9003906-10.260742h-.0834961l.0979277 1.639c.0522281.977213.0783418 1.723519.0783418 2.23893v6.382812h-2.5698242v-13.563477h3.6274414l5.8911133 10.158692h.0649414l-.0890627-1.867347c-.0333984-.809725-.0500975-1.43353-.0500975-1.871423v-6.419922h2.5883789zm5.4458008-5.20459c0 1.026698.1685367 1.802895.5056152 2.328613.3370785.525719.8859826.788575 1.6467286.788575.754561 0 1.2972802-.26131 1.6281738-.783936s.4963379-1.300369.4963379-2.333252c0-1.026698-.1669905-1.79671-.5009766-2.310058-.333986-.513349-.8813438-.77002-1.6420898-.77002-.7545611 0-1.2988265.255124-1.6328125.765381-.3339861.510256-.5009766 1.281814-.5009766 2.314697zm7.1713867 0c0 1.688485-.445308 3.008947-1.3359375 3.961426-.8906294.952479-2.1306886 1.428711-3.7202148 1.428711-.9957732 0-1.8740197-.218016-2.6347656-.654053-.760746-.436037-1.3452128-1.062252-1.753418-1.878662s-.6123047-1.768875-.6123047-2.857422c0-1.69467.4422156-3.012039 1.3266602-3.952148.8844445-.940109 2.1275961-1.410157 3.7294921-1.410157.9957732 0 1.8740197.21647 2.6347657.649415.760746.432944 1.3452128 1.05452 1.7534179 1.864746.4082052.810225.6123047 1.759597.6123047 2.848144zm8.1269531-5.362305c.3834655 0 .7019845.027832.9555665.083497l-.213379 2.65332c-.2288422-.061849-.5071598-.092774-.8349609-.092774-.9029993 0-1.6065242.231932-2.1105957.695801-.5040715.46387-.7561035 1.113277-.7561035 1.948242v5.278809h-2.8295899v-10.37207h2.1430665l.4174804 1.74414h.1391602c.3216162-.581383.7561008-1.049884 1.3034668-1.405517.547366-.355634 1.1426563-.533448 1.7858886-.533448zm8.5722657 2.319336h-2.4492188v8.247559h-2.8295898v-8.247559h-1.5585938v-1.363769l1.5585938-.760742v-.760742c0-1.181322.2906872-2.044106.8720703-2.588379.5813831-.544274 1.5122006-.816407 2.7924805-.816407.9772184 0 1.8461876.145344 2.6069336.436036l-.7236329 2.078124c-.5690132-.179362-1.0947241-.269042-1.5771484-.269042-.4020202 0-.6927074.119058-.8720703.357177-.1793629.23812-.269043.542723-.269043.913819v.649414h2.4492188zm3.8779297 3.042969c0 1.026698.1685367 1.802895.5056152 2.328613.3370785.525719.8859825.788575 1.6467285.788575.7545611 0 1.2972803-.26131 1.6281738-.783936.3308936-.522626.4963379-1.300369.4963379-2.333252 0-1.026698-.1669905-1.79671-.5009765-2.310058-.3339861-.513349-.8813439-.77002-1.6420899-.77002-.754561 0-1.2988264.255124-1.6328125.765381-.333986.510256-.5009765 1.281814-.5009765 2.314697zm7.1713867 0c0 1.688485-.4453081 3.008947-1.3359375 3.961426-.8906295.952479-2.1306887 1.428711-3.7202149 1.428711-.9957732 0-1.8740196-.218016-2.6347656-.654053s-1.3452128-1.062252-1.753418-1.878662c-.4082051-.81641-.6123046-1.768875-.6123046-2.857422 0-1.69467.4422156-3.012039 1.3266601-3.952148s2.1275962-1.410157 3.7294922-1.410157c.9957732 0 1.8740196.21647 2.6347656.649415.760746.432944 1.3452128 1.05452 1.753418 1.864746.4082052.810225.6123047 1.759597.6123047 2.848144zm5.1674804 5.20459h-2.8295898v-14.435547h2.8295898zm5.6870115-5.640625 1.233887-1.577148 2.903809-3.154297h3.191406l-4.119141 4.499511 4.369629 5.872559h-3.265625l-2.987305-4.202637-1.215332.974121v3.228516h-2.8295895v-14.435547h2.8295895v6.438477l-.148437 2.356445zm11.346192-7.922852.129882.204102c-.309246 1.218431-.853511 2.699698-1.632812 4.443848h-2.031738c.42676-1.830739.736001-3.38004.927734-4.64795zm9.073242 10.483399c0 1.063807-.369544 1.874021-1.108643 2.430664-.739098.556643-1.844638.834961-3.31665.834961-.754561 0-1.397784-.051025-1.929688-.153076-.531903-.102052-1.029782-.252034-1.493652-.449951v-2.337891c.525719.247397 1.117917.454589 1.776611.621582.658695.166993 1.238523.250488 1.739502.250488 1.026698 0 1.540039-.296872 1.540039-.890625 0-.222657-.068033-.403564-.204101-.542724-.136069-.139161-.371092-.296875-.705078-.473145-.238562-.125907-.53392-.266802-.88608-.422687l-.449858-.194256c-.797855-.333986-1.383868-.643228-1.758056-.927735-.374189-.284506-.646321-.610756-.816407-.978759-.170085-.368004-.255127-.821043-.255127-1.359131 0-.921554.357175-1.634356 1.071534-2.138428s1.727125-.756104 3.03833-.756104c1.249355 0 2.464675.272133 3.645996.816407l-.853516 2.041015c-.519534-.222657-1.005043-.40511-1.456543-.547363s-.91227-.213379-1.382324-.213379c-.834965 0-1.252441.225747-1.252441.677246 0 .253582.13452.473144.403564.658692.224204.154623.670672.371522 1.339415.650702l.427919.174981c.810225.327801 1.403969.633951 1.78125.918457.37728.284507.655598.612303.834961.983399.179363.371095.269043.813311.269043 1.32666zm-67.2097169 12.516601h2.9038086l-4.6108399 13.563477h-3.1357422l-4.6015625-13.563477h2.9038086l2.5512695 8.071289c.1138027.380992.2305727.812447.3503123 1.294375l.1829062.764911c.0980804.426261.1615514.735599.1904144.928019.0680342-.569013.2999654-1.564771.6958007-2.987305zm8.6835937 5.009766c-.5999379 0-1.0699853.190184-1.4101562.570557-.340171.380373-.5349933.919999-.5844727 1.618896h3.9707031c-.0123698-.698897-.1948224-1.238523-.5473632-1.618896-.3525409-.380373-.8287731-.570557-1.428711-.570557zm.3989258 8.739258c-1.6699302 0-2.9749302-.46077-3.9150391-1.382324-.9401088-.921554-1.4101562-2.226554-1.4101562-3.915039 0-1.737965.4344846-3.08162 1.3034668-4.031006.8689822-.949387 2.0703862-1.424073 3.604248-1.424073 1.4658277 0 2.6069295.417477 3.4233399 1.252442.8164103.834965 1.2246093 1.988437 1.2246093 3.460449v1.373047h-6.6889648c.0309246.80404.2690407 1.431801.7143555 1.883301.4453147.451499 1.0699829.677246 1.8740234.677246.6246776 0 1.2153293-.064941 1.7719727-.194824.5566434-.129884 1.1380178-.337076 1.7441406-.621582v2.189453c-.4947942.247397-1.0235975.431396-1.5864258.552002s-1.2493449.180908-2.0595703.180908zm16.1054687-.185547h-2.8295898v-6.058105c0-1.496753-.5566351-2.245118-1.6699219-2.245118-.7916706 0-1.3637677.269041-1.7163086.807129-.3525408.538089-.5288086 1.41015-.5288086 2.616211v4.879883h-2.8295898v-14.435547h2.8295898l-.0021468 3.09641c-.0064404.279239-.0273718.765492-.0627946 1.458766l-.0649414.834961h.1484375c.6308626-1.014328 1.6328057-1.521485 3.0058594-1.521485 1.2184306 0 2.1430633.327797 2.7739258.983399s.946289 1.595697.946289 2.820312zm2.7924805-13.053223c0-.921554.5133412-1.382324 1.5400391-1.382324 1.0266978 0 1.540039.46077 1.540039 1.382324 0 .43913-.1283353.780842-.3850097 1.025147-.2566745.244304-.6416804.366455-1.1550293.366455-1.0266979 0-1.5400391-.463863-1.5400391-1.391602zm2.9501953 13.053223h-2.8295898v-10.37207h2.8295898zm7.1806641.185547c-3.2285318 0-4.8427734-1.771955-4.8427734-5.315918 0-1.762704.4391232-3.109452 1.3173828-4.040283.8782596-.930832 2.1368733-1.396241 3.7758789-1.396241 1.1998758 0 2.2760369.235024 3.2285156.705079l-.8349609 2.189453c-.4453148-.179363-.8596986-.326253-1.2431641-.440674s-.7669252-.171631-1.1503906-.171631c-1.4720126 0-2.2080078 1.045237-2.2080078 3.135742 0 2.028656.7359952 3.042969 2.2080078 3.042969.5442735 0 1.0483375-.072672 1.512207-.218018.4638695-.145345.9277321-.372638 1.3916016-.681884v2.421386c-.4576846.290692-.920001.491699-1.3869629.603028-.466962.111328-1.0560674.166992-1.767334.166992zm8.3867188-.185547h-2.8295899v-14.435547h2.8295899zm7.26416-8.553711c-.599938 0-1.069985.190184-1.410156.570557s-.534993.919999-.584473 1.618896h3.970703c-.01237-.698897-.194822-1.238523-.547363-1.618896s-.828773-.570557-1.428711-.570557zm.398926 8.739258c-1.66993 0-2.97493-.46077-3.915039-1.382324s-1.410156-2.226554-1.410156-3.915039c0-1.737965.434484-3.08162 1.303466-4.031006.868983-.949387 2.070387-1.424073 3.604248-1.424073 1.465828 0 2.60693.417477 3.42334 1.252442.816411.834965 1.22461 1.988437 1.22461 3.460449v1.373047h-6.688965c.030924.80404.269041 1.431801.714355 1.883301.445315.451499 1.069983.677246 1.874024.677246.624677 0 1.215329-.064941 1.771972-.194824.556644-.129884 1.138018-.337076 1.744141-.621582v2.189453c-.494794.247397-1.023597.431396-1.586426.552002-.562828.120606-1.249345.180908-2.05957.180908zm-64.1157228 15.197754h5.3808594v7.032226c-.8720747.284507-1.6931114.483968-2.4631348.598389s-1.5570435.171631-2.361084.171631c-2.0472107 0-3.6104275-.601475-4.6896972-1.804443-1.0792697-1.202969-1.6188965-2.930084-1.6188965-5.181397 0-2.189464.6262144-3.896478 1.8786621-5.121094 1.2524477-1.224615 2.9888398-1.836914 5.2092285-1.836914 1.3916085 0 2.7337175.278318 4.0263672.834961l-.9555664 2.300781c-.9895883-.494794-2.0193631-.742187-3.0893555-.742187-1.2431702 0-2.2389285.417476-2.9873047 1.252441-.7483761.834965-1.1225585 1.957513-1.1225585 3.367676 0 1.472013.3015106 2.596106.904541 3.372315.6030303.776208 1.4797305 1.164306 2.6301269 1.164306.5999379 0 1.2091441-.061848 1.8276367-.185547v-2.82959h-2.5698242zm14.1757813-2.950196c.3834654 0 .7019844.027832.9555664.083497l-.2133789 2.65332c-.2288423-.061849-.5071599-.092774-.834961-.092774-.9029993 0-1.6065241.231932-2.1105957.695801-.5040715.46387-.7561035 1.113277-.7561035 1.948242v5.278809h-2.8295898v-10.37207h2.1430664l.4174804 1.74414h.1391602c.3216162-.581383.7561008-1.049884 1.3034668-1.405517.547366-.355634 1.1426563-.533448 1.7858887-.533448zm9.4257812 10.566895-.5473633-1.410156h-.0742187c-.4762394.599938-.9663875 1.015868-1.470459 1.247802-.5040715.231935-1.1612101.347901-1.9714355.347901-.9957733 0-1.779701-.284502-2.3518067-.853516-.5721057-.569013-.8581543-1.379226-.8581543-2.430664 0-1.100917.3850059-1.912676 1.1550293-2.435303.7700234-.522626 1.931226-.811767 3.4836426-.867431l1.7998047-.055664v-.45459c0-1.051438-.5380806-1.577149-1.6142578-1.577149-.8287802 0-1.8028916.250486-2.9223633.751465l-.9370117-1.911133c1.1936908-.624677 2.5172453-.937011 3.9707031-.937011 1.3916085 0 2.4584924.303057 3.2006836.909179.7421912.606123 1.1132812 1.527664 1.1132812 2.764649v6.911621zm-.8349609-4.805664-1.0947266.037109c-.8225952.02474-1.4348938.173176-1.836914.445313-.4020203.272137-.6030274.68652-.6030274 1.243164 0 .797855.4576777 1.196777 1.3730469 1.196777.6556022 0 1.1797669-.188637 1.5725098-.565918.3927428-.37728.5891113-.878252.5891113-1.502929zm11.4204101 4.991211c-1.2184305 0-2.1739874-.442216-2.8666992-1.32666h-.1484375l.1226673 1.142789c.0137441.146719.0219906.252893.0247394.318521l.0010308 4.244256h-2.8295898v-14.936523h2.3007812l.3989258 1.345215h.1298828c.6617872-1.026698 1.6420834-1.54004 2.940918-1.54004 1.2246155 0 2.1832648.47314 2.8759765 1.419434.6927118.946294 1.0390626 2.260571 1.0390626 3.942871 0 1.107102-.1623519 2.068844-.4870606 2.885254s-.787025 1.437986-1.3869629 1.864746-1.305009.640137-2.1152344.640137zm-.8349609-8.48877c-.6988967 0-1.2091455.214923-1.5307617.644776-.3216162.429852-.4886067 1.139562-.5009766 2.12915v.306152c0 1.113287.1654443 1.911131.4963379 2.393555s.8550583.723633 1.5725098.723633c1.26791 0 1.9018554-1.045237 1.9018554-3.135742 0-1.020513-.156167-1.785886-.4685058-2.296143-.3123388-.510256-.8024869-.765381-1.470459-.765381zm16.7363281 8.303223h-2.8295898v-6.058105c0-1.496753-.5566351-2.245118-1.6699219-2.245118-.7916706 0-1.3637678.269041-1.7163086.807129-.3525408.538089-.5288086 1.41015-.5288086 2.616211v4.879883h-2.8295898v-14.435547h2.8295898l-.0021468 3.09641c-.0064404.279239-.0273718.765492-.0627946 1.458766l-.0649414.834961h.1484375c.6308625-1.014328 1.6328056-1.521485 3.0058594-1.521485 1.2184306 0 2.1430632.327797 2.7739258.983399.6308625.655602.946289 1.595697.946289 2.820312zm2.7924805-13.053223c0-.921554.5133412-1.382324 1.5400391-1.382324 1.0266973 0 1.5400393.46077 1.5400393 1.382324 0 .43913-.128336.780842-.38501 1.025147-.256675.244304-.64168.366455-1.1550293.366455-1.0266979 0-1.5400391-.463863-1.5400391-1.391602zm2.9501954 13.053223h-2.8295899v-10.37207h2.8295899zm7.180664.185547c-3.228532 0-4.842773-1.771955-4.842773-5.315918 0-1.762704.439123-3.109452 1.317382-4.040283.87826-.930832 2.136874-1.396241 3.775879-1.396241 1.199876 0 2.276037.235024 3.228516.705079l-.834961 2.189453c-.445315-.179363-.859699-.326253-1.243164-.440674-.383466-.114421-.766925-.171631-1.150391-.171631-1.472012 0-2.208008 1.045237-2.208008 3.135742 0 2.028656.735996 3.042969 2.208008 3.042969.544274 0 1.048338-.072672 1.512207-.218018.46387-.145345.927732-.372638 1.391602-.681884v2.421386c-.457685.290692-.920001.491699-1.386963.603028-.466962.111328-1.056067.166992-1.767334.166992zm12.793457-3.265625c0 1.063807-.369544 1.874021-1.108643 2.430664-.739098.556643-1.844637.834961-3.31665.834961-.754561 0-1.397784-.051025-1.929687-.153076-.531904-.102052-1.029783-.252034-1.493653-.449951v-2.337891c.525719.247397 1.117917.454589 1.776612.621582.658694.166993 1.238522.250488 1.739501.250488 1.026698 0 1.54004-.296872 1.54004-.890625 0-.222657-.068034-.403564-.204102-.542724-.136068-.139161-.371092-.296875-.705078-.473145-.238562-.125907-.53392-.266802-.88608-.422687l-.449858-.194256c-.797855-.333986-1.383868-.643228-1.758056-.927735-.374188-.284506-.646321-.610756-.816407-.978759-.170085-.368004-.255127-.821043-.255127-1.359131 0-.921554.357175-1.634356 1.071534-2.138428s1.727125-.756104 3.03833-.756104c1.249355 0 2.464675.272133 3.645996.816407l-.853516 2.041015c-.519534-.222657-1.005043-.40511-1.456543-.547363-.451499-.142253-.91227-.213379-1.382324-.213379-.834965 0-1.252441.225747-1.252441.677246 0 .253582.13452.473144.403564.658692.224204.154623.670672.371522 1.339415.650702l.427919.174981c.810225.327801 1.40397.633951 1.78125.918457.377281.284507.655598.612303.834961.983399.179363.371095.269043.813311.269043 1.32666zm-67.0473633 26.080078h-7.8115234v-13.563477h7.8115234v2.356446h-4.9355469v2.978027h4.5922852v2.356445h-4.5922852v3.497559h4.9355469zm4.7314453-5.297363-3.3398437-5.074707h3.2099609l2.0131836 3.302734 2.0317383-3.302734h3.2099609l-3.3769531 5.074707 3.534668 5.297363h-3.2192383l-2.1801758-3.553223-2.1894531 3.553223h-3.2099609zm14.5561524 5.48291c-1.2184306 0-2.1739874-.442216-2.8666992-1.32666h-.1484375l.1113283 1.025148c.0247395.250487.0371092.409747.0371092.477781v4.202637h-2.8295899v-14.936523h2.3007813l.3989257 1.345215h.1298829c.6617871-1.026698 1.6420833-1.54004 2.9409179-1.54004 1.2246155 0 2.1832648.47314 2.8759766 1.419434s1.0390625 2.260571 1.0390625 3.942871c0 1.107102-.1623519 2.068844-.4870606 2.885254-.3247086.81641-.787025 1.437986-1.3869628 1.864746-.5999379.42676-1.305009.640137-2.1152344.640137zm-.834961-8.48877c-.6988967 0-1.2091455.214923-1.5307617.644776-.3216162.429852-.4886067 1.139562-.5009765 2.12915v.306152c0 1.113287.1654443 1.911131.4963378 2.393555.3308936.482424.8550583.723633 1.5725098.723633 1.26791 0 1.9018555-1.045237 1.9018555-3.135742 0-1.020513-.1561671-1.785886-.4685059-2.296143-.3123388-.510256-.8024869-.765381-1.470459-.765381zm11.4575196-.250488c-.5999379 0-1.0699853.190184-1.4101563.570557s-.5349932.919999-.5844726 1.618896h3.9707031c-.0123699-.698897-.1948225-1.238523-.5473633-1.618896s-.828773-.570557-1.4287109-.570557zm.3989258 8.739258c-1.6699303 0-2.9749302-.46077-3.9150391-1.382324s-1.4101563-2.226554-1.4101563-3.915039c0-1.737965.4344846-3.08162 1.3034668-4.031006.8689822-.949387 2.0703862-1.424073 3.6042481-1.424073 1.4658276 0 2.6069295.417477 3.4233398 1.252442.8164104.834965 1.2246094 1.988437 1.2246094 3.460449v1.373047h-6.6889648c.0309246.80404.2690407 1.431801.7143554 1.883301.4453148.451499 1.069983.677246 1.8740235.677246.6246776 0 1.2153292-.064941 1.7719726-.194824.5566434-.129884 1.1380178-.337076 1.7441406-.621582v2.189453c-.4947941.247397-1.0235974.431396-1.5864257.552002-.5628284.120606-1.2493449.180908-2.0595703.180908zm12.3203124-10.752442c.3834655 0 .7019845.027832.9555665.083497l-.2133789 2.65332c-.2288423-.061849-.5071599-.092774-.834961-.092774-.9029993 0-1.6065242.231932-2.1105957.695801-.5040715.46387-.7561035 1.113277-.7561035 1.948242v5.278809h-2.8295898v-10.37207h2.1430664l.4174804 1.74414h.1391602c.3216162-.581383.7561008-1.049884 1.3034668-1.405517.547366-.355634 1.1426563-.533448 1.7858886-.533448zm7.2084958 8.498047c.494794 0 1.088539-.108234 1.78125-.324707v2.105957c-.705081.315432-1.570958.473145-2.597656.473145-1.131842 0-1.955971-.286049-2.472412-.858154-.5164414-.572106-.7746582-1.430252-.7746582-2.574463v-5.000489h-1.3544922v-1.196777l1.5585937-.946289.8164067-2.189453h1.809082v2.208008h2.903808v2.124511h-2.903808v5.000489c0 .40202.112873.698892.338623.890625.225749.191732.524168.287597.895263.287597zm11.114258-1.01123c0 1.063807-.369544 1.874021-1.108642 2.430664-.739099.556643-1.844638.834961-3.316651.834961-.754561 0-1.397784-.051025-1.929687-.153076-.531904-.102052-1.029783-.252034-1.493653-.449951v-2.337891c.525719.247397 1.117917.454589 1.776612.621582.658694.166993 1.238523.250488 1.739502.250488 1.026697 0 1.540039-.296872 1.540039-.890625 0-.222657-.068033-.403564-.204102-.542724-.136068-.139161-.371092-.296875-.705078-.473145-.286274-.151089-.654335-.32376-1.104192-.518016l-.231745-.098927c-.797856-.333986-1.383869-.643228-1.758057-.927735-.374188-.284506-.646321-.610756-.816406-.978759-.170086-.368004-.255127-.821043-.255127-1.359131 0-.921554.357174-1.634356 1.071533-2.138428s1.727125-.756104 3.03833-.756104c1.249355 0 2.464675.272133 3.645996.816407l-.853516 2.041015c-.519533-.222657-1.005043-.40511-1.456543-.547363-.451499-.142253-.912269-.213379-1.382324-.213379-.834965 0-1.252441.225747-1.252441.677246 0 .253582.13452.473144.403564.658692.246624.170085.762188.415524 1.546706.736324l.220628.089359c.810226.327801 1.40397.633951 1.78125.918457.377281.284507.655598.612303.834961.983399.179363.371095.269043.813311.269043 1.32666z" fill="#fff"/></svg>