<?xml version="1.0" encoding="utf-8"?>
<!-- Generator: Adobe Illustrator 23.0.4, SVG Export Plug-In . SVG Version: 6.00 Build 0)  -->
<svg version="1.1" id="Layer_1" xmlns="http://www.w3.org/2000/svg" xmlns:xlink="http://www.w3.org/1999/xlink" x="0px" y="0px"
	 viewBox="0 0 160 600" style="enable-background:new 0 0 160 600;" xml:space="preserve">
<style type="text/css">
	.st0{fill-rule:evenodd;clip-rule:evenodd;fill:#47AB34;}
	.st1{fill:#FFFFFF;}
</style>
<g transform="translate(21 290)">
	<path class="st0" d="M0,0h118v63H0V0z"/>
	<g>
		<g transform="translate(8 7)">
			<path class="st1" d="M7.4,6.8C6.3,6.8,5.5,7.2,4.9,8S4,9.9,4,11.4c0,3,1.1,4.5,3.4,4.5c0.9,0,2.1-0.2,3.4-0.7v2.4
				c-1.1,0.5-2.3,0.7-3.7,0.7c-1.9,0-3.4-0.6-4.5-1.8s-1.5-2.9-1.5-5.1c0-1.4,0.3-2.6,0.8-3.6S3.1,5.9,4,5.3s2.1-0.8,3.3-0.8
				c1.3,0,2.6,0.3,3.9,0.9l-0.9,2.3c-0.5-0.2-1-0.4-1.5-0.6S7.8,6.8,7.4,6.8z M15.7,12.9c0,1,0.2,1.8,0.5,2.3s0.9,0.8,1.6,0.8
				c0.7,0,1.3-0.3,1.6-0.8c0.3-0.5,0.5-1.3,0.5-2.3c0-1-0.2-1.8-0.5-2.3s-0.9-0.8-1.6-0.8c-0.7,0-1.3,0.3-1.6,0.8
				S15.7,11.9,15.7,12.9z M22.8,12.9c0,1.7-0.4,3-1.3,3.9s-2.1,1.4-3.7,1.4c-1,0-1.8-0.2-2.6-0.6s-1.3-1-1.7-1.8s-0.6-1.7-0.6-2.8
				c0-1.7,0.4-3,1.3-3.9s2.1-1.4,3.7-1.4c1,0,1.8,0.2,2.6,0.6c0.7,0.4,1.3,1,1.7,1.8S22.8,11.8,22.8,12.9z M34.6,18h-2.8v-6
				c0-0.7-0.1-1.3-0.4-1.7s-0.7-0.6-1.3-0.6c-0.8,0-1.3,0.3-1.7,0.8s-0.5,1.4-0.5,2.6V18h-2.8V7.8h2.1l0.4,1.3h0.2
				c0.3-0.5,0.7-0.9,1.3-1.1s1.2-0.4,1.9-0.4c1.2,0,2.1,0.3,2.7,1s0.9,1.6,0.9,2.8L34.6,18z M41.9,16c0.5,0,1.1-0.1,1.8-0.3v2.1
				c-0.7,0.3-1.5,0.5-2.6,0.5c-1.1,0-1.9-0.3-2.4-0.8s-0.8-1.4-0.8-2.5V9.9h-1.3V8.7l1.5-0.9l0.8-2.2h1.8v2.2h2.9v2.1h-2.9v4.9
				c0,0.4,0.1,0.7,0.3,0.9S41.5,16,41.9,16z M52.3,18l-0.5-1.4h-0.1c-0.5,0.6-1,1-1.4,1.2c-0.5,0.2-1.1,0.3-1.9,0.3
				c-1,0-1.8-0.3-2.3-0.8S45.1,16,45.1,15c0-1.1,0.4-1.9,1.1-2.4s1.9-0.8,3.4-0.9l1.8-0.1v-0.4c0-1-0.5-1.6-1.6-1.6
				c-0.8,0-1.8,0.2-2.9,0.7l-0.9-1.9c1.2-0.6,2.5-0.9,3.9-0.9c1.4,0,2.4,0.3,3.2,0.9s1.1,1.5,1.1,2.7V18H52.3z M51.4,13.3l-1.1,0
				c-0.8,0-1.4,0.2-1.8,0.4S48,14.4,48,15c0,0.8,0.5,1.2,1.4,1.2c0.6,0,1.2-0.2,1.5-0.6c0.4-0.4,0.6-0.9,0.6-1.5V13.3z M61.3,18.2
				c-3.2,0-4.8-1.7-4.8-5.2c0-1.7,0.4-3.1,1.3-4s2.1-1.4,3.7-1.4c1.2,0,2.2,0.2,3.2,0.7l-0.8,2.2c-0.4-0.2-0.8-0.3-1.2-0.4
				s-0.8-0.2-1.1-0.2c-1.4,0-2.2,1-2.2,3.1c0,2,0.7,3,2.2,3c0.5,0,1-0.1,1.5-0.2c0.5-0.1,0.9-0.4,1.4-0.7v2.4
				c-0.5,0.3-0.9,0.5-1.4,0.6S62,18.2,61.3,18.2z M71.2,16c0.5,0,1.1-0.1,1.8-0.3v2.1c-0.7,0.3-1.5,0.5-2.6,0.5
				c-1.1,0-1.9-0.3-2.4-0.8s-0.8-1.4-0.8-2.5V9.9h-1.3V8.7l1.5-0.9l0.8-2.2H70v2.2h2.9v2.1H70v4.9c0,0.4,0.1,0.7,0.3,0.9
				S70.8,16,71.2,16z M87.3,18l-0.4-1.3h-0.1c-0.3,0.5-0.7,0.8-1.3,1.1s-1.2,0.4-1.9,0.4c-1.2,0-2.1-0.3-2.7-1S80,15.7,80,14.4V7.8
				h2.8v6c0,0.7,0.1,1.3,0.4,1.7c0.3,0.4,0.7,0.6,1.3,0.6c0.8,0,1.3-0.3,1.7-0.8s0.5-1.4,0.5-2.6V7.8h2.8V18H87.3z M99.6,15
				c0,1-0.4,1.8-1.1,2.4c-0.7,0.5-1.8,0.8-3.3,0.8c-0.7,0-1.4-0.1-1.9-0.2c-0.5-0.1-1-0.2-1.5-0.4v-2.3c0.5,0.2,1.1,0.4,1.7,0.6
				s1.2,0.2,1.7,0.2c1,0,1.5-0.3,1.5-0.9c0-0.2-0.1-0.4-0.2-0.5c-0.1-0.1-0.4-0.3-0.7-0.5c-0.2-0.1-0.5-0.2-0.8-0.4l-0.5-0.2
				c-0.8-0.3-1.4-0.6-1.7-0.9c-0.4-0.3-0.6-0.6-0.8-1s-0.3-0.8-0.3-1.3c0-0.9,0.4-1.6,1.1-2.1s1.7-0.7,3-0.7c1.2,0,2.4,0.3,3.6,0.8
				l-0.8,2c-0.5-0.2-1-0.4-1.4-0.5c-0.4-0.1-0.9-0.2-1.4-0.2c-0.8,0-1.2,0.2-1.2,0.7c0,0.2,0.1,0.5,0.4,0.6l0.2,0.1
				c0.3,0.2,0.7,0.4,1.4,0.6l0.2,0.1c0.8,0.3,1.4,0.6,1.8,0.9s0.6,0.6,0.8,1C99.5,14,99.6,14.5,99.6,15L99.6,15z M5.8,38
				c0.5,0,1.1-0.1,1.8-0.3v2.1C6.8,40,6,40.2,5,40.2c-1.1,0-1.9-0.3-2.4-0.8s-0.8-1.4-0.8-2.5v-4.9H0.4v-1.2L2,29.8l0.8-2.2h1.8v2.2
				h2.9v2.1H4.5v4.9c0,0.4,0.1,0.7,0.3,0.9S5.4,38,5.8,38z M11.9,34.9c0,1,0.2,1.8,0.5,2.3s0.9,0.8,1.6,0.8c0.7,0,1.3-0.3,1.6-0.8
				c0.3-0.5,0.5-1.3,0.5-2.3c0-1-0.2-1.8-0.5-2.3c-0.3-0.5-0.9-0.8-1.6-0.8c-0.7,0-1.3,0.3-1.6,0.8S11.9,33.9,11.9,34.9z M19,34.9
				c0,1.7-0.4,3-1.3,3.9c-0.9,0.9-2.1,1.4-3.7,1.4c-1,0-1.8-0.2-2.6-0.6s-1.3-1-1.7-1.8s-0.6-1.7-0.6-2.8c0-1.7,0.4-3,1.3-3.9
				s2.1-1.4,3.7-1.4c1,0,1.8,0.2,2.6,0.6c0.7,0.4,1.3,1,1.7,1.8S19,33.8,19,34.9z M24.6,40.2c-1.2,0-2.1-0.5-2.8-1.4
				c-0.7-0.9-1-2.2-1-3.9c0-1.7,0.3-3,1-3.9c0.7-0.9,1.7-1.4,2.9-1.4c1.3,0,2.3,0.5,2.9,1.5h0.1c-0.1-0.8-0.2-1.4-0.2-2v-3.3h2.8V40
				h-2.1l-0.5-1.3h-0.1C26.9,39.7,25.9,40.2,24.6,40.2z M25.6,38c0.7,0,1.2-0.2,1.6-0.6c0.3-0.4,0.5-1.1,0.5-2.1v-0.3
				c0-1.1-0.2-1.9-0.5-2.4c-0.3-0.5-0.9-0.7-1.6-0.7c-0.6,0-1.1,0.3-1.4,0.8c-0.3,0.5-0.5,1.3-0.5,2.3s0.2,1.8,0.5,2.3
				C24.4,37.7,24.9,38,25.6,38z M39.8,40l-0.5-1.4h-0.1c-0.5,0.6-1,1-1.4,1.2s-1.1,0.3-1.9,0.3c-1,0-1.8-0.3-2.3-0.8
				c-0.6-0.6-0.8-1.4-0.8-2.4c0-1.1,0.4-1.9,1.1-2.4s1.9-0.8,3.4-0.9l1.8-0.1v-0.4c0-1-0.5-1.6-1.6-1.6c-0.8,0-1.8,0.2-2.9,0.7
				l-0.9-1.9c1.2-0.6,2.5-0.9,3.9-0.9c1.4,0,2.4,0.3,3.2,0.9c0.7,0.6,1.1,1.5,1.1,2.7V40L39.8,40z M39,35.3l-1.1,0
				c-0.8,0-1.4,0.2-1.8,0.4s-0.6,0.7-0.6,1.2c0,0.8,0.5,1.2,1.4,1.2c0.6,0,1.2-0.2,1.5-0.6c0.4-0.4,0.6-0.9,0.6-1.5V35.3z
				 M43.2,29.8h3l1.9,5.7c0.2,0.5,0.3,1.1,0.3,1.8h0.1c0.1-0.5,0.1-1,0.3-1.4l2-6.1h3l-4.3,11.5c-0.4,1.1-1,1.9-1.7,2.4
				s-1.6,0.8-2.6,0.8c-0.5,0-1-0.1-1.4-0.2v-2.2c0.3,0.1,0.7,0.1,1.1,0.1c0.5,0,0.9-0.2,1.3-0.5s0.7-0.8,0.9-1.4l0.2-0.5L43.2,29.8z
				"/>
		</g>
		<path class="st1" d="M108,42l-5.8-7h-4c-0.3,0-0.3,0.2-0.2,0.4l5.2,6.3c0.2,0.2,0.2,0.5,0,0.7l-5.2,6.3C97.9,48.8,98,49,98.3,49h4
			L108,42z"/>
	</g>
</g>
</svg>
