<svg height="600" viewBox="0 0 160 600" width="160" xmlns="http://www.w3.org/2000/svg" xmlns:xlink="http://www.w3.org/1999/xlink"><mask id="a" fill="#fff"><path d="m.55986875.42486487h33.60364065v20.71232433h-33.60364065z" fill="#fff" fill-rule="evenodd"/></mask><g fill="none" fill-rule="evenodd" transform="translate(13 481)"><g fill="#fefefe" transform="translate(1.046875 .656541)"><path d="m37.4469281 38.9189189-14.4332656-20.9751351c-.7076875.1048648-1.4813281.1578378-2.3219687.1578378h-4.5423907l14.4165156 20.8172973z"/><path d="m28.6831187 11.7934054c0 2.2756757-.7820156 3.9351351-2.3429062 4.9794595l2.9584687 4.3643243c.9830157-.6237838 1.8477344-1.4194595 2.5952032-2.3881081 1.5127343-1.9610811 2.269625-4.3037838 2.269625-7.0302703 0-3.4908108-1.2070469-6.29945945-3.6211407-8.42702702-2.1890156-1.91135135-5.7462968-2.86702702-10.6707968-2.86702702h-19.31170315l3.7813125 5.45945946h16.56784375c5.1820312 0 7.7740937 1.96972973 7.7740937 5.90918918" mask="url(#a)"/></g><path d="m14.4173531 30.3925405h6.8811094l-14.32334375-20.81513509-6.97532813-.00216217z" fill="#00a547"/><g fill="#fefefe"><g transform="translate(43.96875 6.061946)"><path d="m.55463438.94594595h4.23460937c2.5585625.00756756 3.83889062 1.29189189 3.83889062 3.85405405v2.96972973c0 1.59783784-.85215624 2.68432437-2.55646874 3.25837837l3.47562499 9.065946h-2.7260625l-2.83389062-8.7124325-.963125.1210811v8.5913514h-2.46957812zm2.46957812 2.20864864v6.26162163h1.04792188c.47842187 0 .82074999-.03351352 1.02698437-.09945946.70559375-.26594595 1.05839062-.78054054 1.05839062-1.54702703v-2.96972973c0-1.0972973-.56321874-1.64540541-1.68860937-1.64540541z"/><path d="m19.1022234 16.6046486c0 2.5621622-1.39025 3.8464865-4.17075 3.8540541-2.7794531 0-4.1697031-1.2843243-4.1697031-3.8540541v-12.08108103c0-2.56216216 1.39025-3.84216216 4.1697031-3.84216216 2.7805 0 4.17075 1.28 4.17075 3.84216216zm-2.4695781-12.08108103c0-1.08972973-.5632187-1.6345946-1.6896562-1.6345946h-.0219844c-1.1264375 0-1.6896563.54486487-1.6896563 1.6345946v12.08108103c0 1.0972973.5674063 1.6454055 1.700125 1.6454055 1.1337657 0 1.7011719-.5481082 1.7011719-1.6454055z"/><path d="m30.014325 16.6046486c0 2.5621622-1.39025 3.8464865-4.17075 3.8540541-2.7794531 0-4.1697031-1.2843243-4.1697031-3.8540541v-12.08108103c0-2.56216216 1.39025-3.84216216 4.1697031-3.84216216 2.7805 0 4.17075 1.28 4.17075 3.84216216v2.36324324h-2.4695781v-2.36324324c0-1.08972973-.5632188-1.6345946-1.6896563-1.6345946h-.0219844c-1.1264375 0-1.6896562.54486487-1.6896562 1.6345946v12.08108103c0 1.0972973.5674062 1.6454055 1.700125 1.6454055 1.1337656 0 1.7011719-.5481082 1.7011719-1.6454055v-2.3524324h2.4695781z"/></g><path d="m81.5060234 16.5819459 4.1592344 9.5740541h-2.62975l-3.9037969-8.9664865v8.9664865h-2.4695781v-19.14810811h2.4695781v9.01081081l3.9037969-9.01081081h2.62975z"/><g transform="translate(86.890625 6.061946)"><path d="m.59818438 4.52378378c0-2.56216216 1.39025-3.84324324 4.17074999-3.84324324 2.7805 0 4.16970313 1.28108108 4.16970313 3.84324324v2.36324325h-2.46957812v-2.36324325c0-1.08972973-.56321875-1.63459459-1.68965626-1.63459459h-.02093749c-1.12643751 0-1.68965626.54486486-1.68965626 1.63459459v1.78918919c0 .98594595 1.02698438 2.14594595 3.07885938 3.47783784 1.86134375 1.20756759 2.79096875 2.64648649 2.79096875 4.31783779v2.4962163c0 2.5686486-1.3860625 3.8529729-4.15923438 3.8529729-2.78782812-.0064864-4.18121874-1.2918919-4.18121874-3.8529729v-2.3524325h2.47062499v2.3524325c0 1.0962162.57054688 1.6454054 1.71059375 1.6454054 1.12643751 0 1.68965626-.5491892 1.68965626-1.6454054v-2.252973c0-1.052973-1.02698438-2.2486487-3.07990626-3.5891892-1.86029687-1.20756756-2.79096874-2.66810811-2.79096874-4.38378378z"/><path d="m19.8511578 16.6046486c0 2.5621622-1.39025 3.8464865-4.17075 3.8540541-2.7794531 0-4.1697031-1.2843243-4.1697031-3.8540541v-12.08108103c0-2.56216216 1.39025-3.84216216 4.1697031-3.84216216 2.7805 0 4.17075 1.28 4.17075 3.84216216zm-2.4695781-12.08108103c0-1.08972973-.5632188-1.6345946-1.6896563-1.6345946h-.0219843c-1.1264375 0-1.6896563.54486487-1.6896563 1.6345946v12.08108103c0 1.0972973.5674063 1.6454055 1.700125 1.6454055 1.1337656 0 1.7011719-.5481082 1.7011719-1.6454055z"/></g><path d="m109.527831 26.1561081v-19.1481081h2.469578v16.9502703h4.994641v2.1978378z"/><path d="m119.082031 26.156h2.470625v-19.14810811h-2.470625z"/><g transform="translate(43.96875 6.061946)"><path d="m80.6363844.94594595h4.5015625c2.5596094.00756756 3.8388906 1.29189189 3.8388906 3.85405405v11.4508108c0 2.5545946-1.3504687 3.8356757-4.0524531 3.8432433h-4.288zm2.4695781 2.20864864v14.74162161h1.7116406c1.1264375 0 1.6896563-.5481081 1.6896563-1.6454054v-11.4508108c0-1.0972973-.5632188-1.64540541-1.6896563-1.64540541z"/><path d="m4.43267813 27.1128649c0 .7675675-.20623438 1.3545946-.61975 1.761081-.41246875.4064865-1.00709376.6097298-1.783875.6097298h-1.25939063v-4.6518919h1.39234375c.71710937 0 1.27404688.1989189 1.67290625.5978378.3978125.3989189.59776563.96.59776563 1.6832433m-.77678125.0259459c0-1.1135135-.50354688-1.6713513-1.51273438-1.6713513h-.63754687v3.3762162h.5234375c1.0845625 0 1.62684375-.5686487 1.62684375-1.7048649"/></g><path d="m52.409075 35.5452973h-2.5480937v-4.6518919h2.5480937v.6432432h-1.8110937v1.265946h1.6969843v.6367568h-1.6969843v1.4605405h1.8110937z"/><path d="m56.4719969 34.2821622c0 .414054-.1444688.7383783-.4344531.9729729-.2899844.2356757-.6898907.3535135-1.1986719.3535135-.5098281 0-.9264844-.081081-1.2510156-.2443243v-.7189189c.2051875.0994595.4239843.1772973.6542968.2345946.2313594.0572973.4470157.0864865.6459219.0864865.2920781 0 .5066875-.0572973.6459219-.1718919.1381875-.1145946.2072812-.2681081.2072812-.4616216 0-.1740541-.0628125-.3210811-.1905312-.4421622-.1277188-.1210811-.3904844-.2637838-.7882969-.4291892-.4114219-.1718919-.7014062-.3686486-.8689062-.5891892-.1695938-.2205405-.2533438-.4854054-.2533438-.7945946 0-.3881081.134-.694054.4009531-.9167567.2669532-.2227027.6249844-.3340541 1.0751407-.3340541.4313125 0 .8605312.0972973 1.2876562.292973l-.2345.6205405c-.3999062-.174054-.7579375-.2616216-1.072-.2616216-.2376406 0-.41875.0540541-.5422813.1610811-.1235312.107027-.1842499.2486486-.1842499.4248649 0 .121081.0240781.2237837.0732812.3102702.05025.0854054.1308594.1664865.2439219.2432433.1130625.0767567.3161562.1772973.6103281.3016216.3297656.1427027.5726406.2756757.7265313.3978378.1538906.1232433.2669531.2627027.3391875.4172973.0711875.1545946.1078281.3372973.1078281.5470271"/><path d="m57.8367031 35.5451892h.737v-4.6518919h-.737z"/><g transform="translate(59.671875 29.84573)"><path d="m2.42414375 3.17664865h1.65720313v2.33513513c-.27009375.0918919-.53076563.15567568-.78096875.1945946-.24915625.03783784-.51820313.0572973-.8081875.0572973-.6825625 0-1.20809375-.20864865-1.57764063-.62594595-.36954687-.41621622-.55484375-1.00432432-.55484375-1.76432432 0-.74810811.20832813-1.33405406.62603125-1.75783784.41665625-.42270271.99034375-.6345946 1.72210938-.6345946.47004687 0 .91601562.09405406 1.33685937.28l-.25857812.63351352c-.36535938-.17405406-.73176563-.26054054-1.097125-.26054054-.48051563 0-.86053125.15567567-1.14004688.46702702-.27951562.31243244-.41875.73837838-.41875 1.27891892 0 .56864865.125625 1.00108108.376875 1.2972973.25229688.29513513.61451563.44324324 1.08665625.44324324.2386875 0 .49307813-.03027027.76421875-.09189189v-1.2h-.9338125z"/><path d="m9.40805625 5.69956757h-.90240625l-2.2151875-3.70702703h-.025125l.01570313.20756757c.02826562.39459459.04292187.75459459.04292187 1.08108108v2.41837838h-.66895312v-4.65189189h.89403125l2.20890625 3.68756756h.01884375c-.0041875-.04864865-.0125625-.22594594-.025125-.53297297-.0125625-.30594595-.01779688-.54486486-.01779688-.71675676v-2.43783783h.6741875z"/></g></g><path d="m71.6240469 37.076h.5548437v-6.4681081h-.5548437z" fill="#00a547"/><g fill="#fefefe" transform="translate(74.328125 29.84573)"><path d="m2.24313906 3.17664865h1.65720313v2.33513513c-.27009375.0918919-.53076563.15567568-.78096875.1945946-.24915625.03783784-.51820313.0572973-.8081875.0572973-.6825625 0-1.20809375-.20864865-1.57764063-.62594595-.36954687-.41621622-.55484375-1.00432432-.55484375-1.76432432 0-.74810811.20832813-1.33405406.62603125-1.75783784.41665625-.42270271.99034375-.6345946 1.72210938-.6345946.47004687 0 .91601562.09405406 1.33685937.28l-.25857812.63351352c-.36535938-.17405406-.73176563-.26054054-1.097125-.26054054-.48051563 0-.86053125.15567567-1.14004688.46702702-.27951562.31243244-.41875.73837838-.41875 1.27891892 0 .56864865.125625 1.00108108.376875 1.2972973.25229688.29513513.61346875.44324324 1.08665625.44324324.2386875 0 .49307813-.03027027.76421875-.09189189v-1.2h-.9338125z"/><path d="m6.2109 3.84162162v1.85837838h-.737v-4.65189189h1.273c.58101562 0 1.01128125.11243243 1.29079688.3372973.27951562.22486486.41874999.56432432.41874999 1.01837837 0 .57837838-.29103124.99135136-.87414062 1.23783784l1.27195313 2.05837838h-.83750001l-1.07932812-1.85837838zm0-.63027027h.510875c.343375 0 .59148437-.06594594.74642187-.19675676.15389063-.13189189.23031251-.32648648.23031251-.58594594 0-.2627027-.08270313-.45189189-.24915625-.56648649-.16645313-.11459459-.41665626-.17189189-.75165625-.17189189h-.48679688z"/><path d="m12.7943828 5.69956757-.4501562-1.29189189h-1.7221094l-.4407344 1.29189189h-.77573436l1.68546876-4.67027027h.8008594l1.6854687 4.67027027zm-.6438281-1.94702703-.4218906-1.26594595c-.0314063-.0854054-.0743282-.21945945-.1287657-.40108108-.0533906-.1827027-.0910781-.31675675-.1120156-.40108108-.0554844.26054054-.1371406.54594595-.242875.85621622l-.4072344 1.21189189z"/><path d="m17.646125 2.45427027c0 .48540541-.1538906.85837838-.4627187 1.11675676-.3077813.25837838-.7464219.38810811-1.314875.38810811h-.4679532v1.74054054h-.737v-4.6518919h1.2970782c.5632187 0 .9840625.11891892 1.264625.35675676s.4208437.58810811.4208437 1.04972973zm-2.2455469.86594595h.3904844c.3779219 0 .6553438-.06810811.8322656-.20432433.175875-.13513513.2648594-.34810811.2648594-.63567567 0-.26810811-.0795625-.46702703-.2376406-.59891892-.1580781-.13081081-.4040938-.19675676-.7390938-.19675676h-.510875z"/></g><path d="m96.9183266 35.5452973h-.7390938v-2.0962162h-2.077v2.0962162h-.7359531v-4.6518919h.7359531v1.9027027h2.077v-1.9027027h.7390938z" fill="#fefefe"/><path d="m98.5957344 35.5451892h.737v-4.6518919h-.737z" fill="#fefefe"/><g fill="#fefefe" transform="translate(100.5 29.84573)"><path d="m2.43115781 1.63362162c-.4229375 0-.75584375.1545946-.99871875.46486487-.24182812.30918919-.36326562.73621621-.36326562 1.28216216 0 .56972973.11620312 1.00216216.34965625 1.29405405.23345312.29297298.57054687.44 1.01232812.44.19053125 0 .37582813-.02054054.55484375-.05945946.17796875-.03891892.3643125-.08972973.5569375-.15135135v.65297297c-.35279687.1372973-.75375.20648649-1.2018125.20648649-.65848437 0-1.16517187-.20648649-1.51796875-.61945946-.35384375-.41189189-.53076562-1.00216216-.53076562-1.76972973 0-.48432432.08584375-.90702702.25753125-1.26918919.1716875-.36324324.41979687-.64108108.74432812-.83459459.32453125-.19243243.70559375-.28972973 1.1431875-.28972973.45957813 0 .88460938.10054054 1.27509375.29945946l-.26485937.63351351c-.15179688-.07459459-.31301563-.13945946-.48260938-.19567567-.16959375-.05621622-.3475625-.08432433-.53390625-.08432433"/><path d="m7.60345313 4.43643243c0 .41405406-.14446875.73837838-.43445313.97297298-.28998437.23567567-.68989062.35351351-1.19867187.35351351-.50982813 0-.92648438-.08108108-1.25101563-.24432433v-.71891891c.2051875.09945946.42398438.17729729.65429688.23459459.23135937.0572973.44701562.08648649.64592187.08648649.29207813 0 .5066875-.0572973.64592188-.1718919.1381875-.11459459.20728125-.2681081.20728125-.46162162 0-.17405405-.0628125-.32108108-.19053125-.44216216s-.39048438-.26378378-.78829688-.42918919c-.41142187-.17189189-.70140625-.36864865-.86890625-.58918919-.16854687-.22054054-.25334375-.4854054-.25334375-.79459459 0-.38810811.134-.69405406.40095313-.91675676.26695312-.2227027.62498437-.33405405 1.07514062-.33405405.4313125 0 .86053125.09729729 1.28765625.29297297l-.2345.62054054c-.39990625-.17405405-.7579375-.26162162-1.072-.26162162-.23764063 0-.41875.05405405-.54228125.16108108s-.18425.24864865-.18425.42486487c0 .12108108.02407813.22378378.07328125.31027027.05025.0854054.13085938.16648648.24392188.24324324s.31615625.1772973.61032812.30162162c.32976563.1427027.57264063.27567568.72653125.39783784.15389063.12324324.26695313.2627027.3391875.4172973.0711875.15459459.10782813.33729729.10782813.54702702"/></g><path d="m110.330156 37.076h.553797v-6.4681081h-.553797z" fill="#00a547"/><g fill="#fefefe" transform="translate(113.0625 29.84573)"><path d="m3.35492031 2.45427027c0 .48540541-.15389062.85837838-.46167187 1.11675676-.30882813.25837838-.74746875.38810811-1.31592188.38810811h-.46795312v1.74054054h-.737v-4.6518919h1.29707812c.56321875 0 .9840625.11891892 1.264625.35675676s.42084375.58810811.42084375 1.04972973zm-2.24554687.86594595h.39048437c.37792188 0 .65534375-.06810811.83226563-.20432433.17692187-.13513513.26485937-.34810811.26485937-.63567567 0-.26810811-.0795625-.46702703-.23764062-.59891892-.15807813-.13081081-.40409375-.19675676-.73909375-.19675676h-.510875z"/><path d="m5.48332188 3.84162162v1.85837838h-.73595313v-4.65189189h1.27195313c.58101562 0 1.01128125.11243243 1.29079687.3372973.27951563.22486486.41875.56432432.41875 1.01837837 0 .57837838-.29103125.99135136-.87414062 1.23783784l1.27195312 2.05837838h-.8375l-1.07828125-1.85837838zm0-.63027027h.510875c.343375 0 .59253125-.06594594.74642187-.19675676.15389063-.13189189.2303125-.32648648.2303125-.58594594 0-.2627027-.08270312-.45189189-.24915625-.56648649-.16645312-.11459459-.41665625-.17189189-.75165625-.17189189h-.48679687z"/></g><path d="m122.334672 35.5451892h.737v-4.6518919h-.737z" fill="#fefefe"/><path d="m128.505163 35.5452973h-.902407l-2.215187-3.707027h-.025125l.015703.2075675c.028266.3945946.042922.7545946.042922 1.0810811v2.4183784h-.668953v-4.6518919h.894031l2.208906 3.6875676h.018844c-.004188-.0486487-.012563-.225946-.025125-.532973-.012563-.3059459-.017797-.5448649-.017797-.7167568v-2.4378378h.674188z" fill="#fefefe"/><path d="m129.680803 30.8936216v.652973h1.324297v3.9989189h.737v-3.9989189h1.325344v-.652973z" fill="#fefefe"/></g></svg>