<svg xmlns="http://www.w3.org/2000/svg" xmlns:xlink="http://www.w3.org/1999/xlink" viewBox="0 0 150 23.99"><defs><style>.cls-1{fill:none;}.cls-2{clip-path:url(#clip-path);}.cls-3{fill:url(#linear-gradient);}.cls-4{fill:#fff;}</style><clipPath id="clip-path" transform="translate(0 0)"><rect class="cls-1" width="150" height="23.99"/></clipPath><linearGradient id="linear-gradient" x1="-983.35" y1="7704.19" x2="-982.06" y2="7704.19" gradientTransform="matrix(116, 0, 0, -116, 114069.11, 893698.19)" gradientUnits="userSpaceOnUse"><stop offset="0" stop-color="#926a42"/><stop offset="0" stop-color="#926a42"/><stop offset="0.12" stop-color="#9a734c"/><stop offset="0.31" stop-color="#b08b68"/><stop offset="0.44" stop-color="#c19e7e"/><stop offset="0.71" stop-color="#ba9472"/><stop offset="1" stop-color="#9f7248"/></linearGradient></defs><title>cta-ch-300x250</title><g id="Layer_2" data-name="Layer 2"><g id="Layer_2-2" data-name="Layer 2"><g class="cls-2"><rect class="cls-3" width="150" height="23.99"/></g><path class="cls-4" d="M36.52,7.31H42v1H36.52Zm5,3H36.88V9.33h4.66ZM36.9,11.49h4.66v.95H36.9Zm4.61,6.82H38v.74H37V13.68h4.55ZM38,14.66v2.67h2.45V14.66Zm1.2-7.52A19.49,19.49,0,0,0,38.41,5l1-.31a12.14,12.14,0,0,1,.83,2.1ZM50.14,18c0,.57-.11.86-.55,1a6.23,6.23,0,0,1-2.06.17,3.42,3.42,0,0,0-.34-1c.72,0,1.38,0,1.57,0S49,18.18,49,18V16.65h-5a5.94,5.94,0,0,1-1.16,2.8,3.65,3.65,0,0,0-.83-.79,6.49,6.49,0,0,0,1.06-4.08V11.64h7Zm.93-8.23v.91H42.18V9.78H46V8.69h-3.2V7.83H46v-1h-3.6V5.94H46V4.64h1.17v1.3h3.78v.91H47.13v1H50.6v.86H47.13V9.78Zm-2,6V14.61h-4.8c0,.37,0,.77,0,1.19Zm-4.8-3.22v1.18H49V12.58Z" transform="translate(0 0)"/><path class="cls-4" d="M62.63,13.8a33.53,33.53,0,0,1,2.23,4.08l-1.08.59c-.17-.43-.43-1-.73-1.6-4,1.42-4.57,1.65-4.9,1.9a4.69,4.69,0,0,0-.5-1.21,1.06,1.06,0,0,0,.67-1V5.47h6.1V13H59.51v3.94l3.06-1c-.32-.58-.66-1.16-1-1.65ZM59.51,6.55V8.63h3.75V6.55Zm3.75,5.36V9.7H59.51v2.21Zm7.87,2.82c0,.67-.14,1-.58,1.2a6.11,6.11,0,0,1-2.32.2A3.59,3.59,0,0,0,67.88,15c.83,0,1.57,0,1.78,0s.3-.06.3-.28v-8h-2.9V19.25H65.9V5.57h5.23Z" transform="translate(0 0)"/><path class="cls-4" d="M92.27,7.27A23.2,23.2,0,0,1,89.83,9.2a10.91,10.91,0,0,0,3,1.86A4.6,4.6,0,0,0,92,12a12.33,12.33,0,0,1-3.8-2.76v.82H82.5V9.35a13.77,13.77,0,0,1-3.94,2.83,5.14,5.14,0,0,0-.73-.9,11.14,11.14,0,0,0,3.23-2.11,10.54,10.54,0,0,0-2-1.62l.64-.67a10.55,10.55,0,0,1,2.1,1.6,11,11,0,0,0,1.6-2.24H79v-1h4.92l.22,0,.79.39a11,11,0,0,1-2.18,3.49H88A14.8,14.8,0,0,1,85.38,5l1-.32a12.23,12.23,0,0,0,1.11,2,20.46,20.46,0,0,0,2.06-1.89l.92.64a23.38,23.38,0,0,1-2.44,2,13.43,13.43,0,0,0,1.07,1.21,19.5,19.5,0,0,0,2.23-1.93Zm-3.38,8.51c-.34.69-.74,1.44-1.07,2h4.54v1h-14v-1h4.38a8.1,8.1,0,0,0-.89-2l1.07-.34a8.39,8.39,0,0,1,1,2l-1,.34h3.7a14.7,14.7,0,0,0,1.17-2.35Zm.9-.4H80.72v-4h9.07Zm-1.25-3H81.89v2h6.65Z" transform="translate(0 0)"/><path class="cls-4" d="M98.88,7.12h6.38v1H98.88Zm.47,4.45h5.39v1H99.35Zm5.14,6.82h-3.88v.74h-1V13.75h4.93Zm0-9v.92H99.65V9.35Zm-3.83,5.38V17.4h2.81V14.73ZM102.05,7a9.3,9.3,0,0,0-1.31-2l.91-.5A8.41,8.41,0,0,1,103,6.47Zm9.24,10.77c.83,0,1-.42,1.07-2.64a3.48,3.48,0,0,0,1.12.48c-.17,2.59-.54,3.28-2.11,3.28h-3.14c-1.63,0-2.11-.37-2.11-1.87V10.71h5.19V6.64h-5.4V5.51h6.56v7.18h-1.16v-.85h-4v5.21c0,.62.17.75,1,.75Z" transform="translate(0 0)"/></g></g></svg>