<svg xmlns="http://www.w3.org/2000/svg" viewBox="0 0 244 93.21"><defs><style>.cls-1{fill:#64656b;}.cls-2{fill:#9a8479;}.cls-3{fill:#a5714e;}</style></defs><title>logo-300x250</title><g id="Layer_2" data-name="Layer 2"><g id="Layer_1-2" data-name="Layer 1"><path class="cls-1" d="M95.73,87.2H92.49l-1,2.46H91l3.52-8.58L98,89.66H96.74Zm-3-.47h2.85l-1.42-3.49Z"/><path class="cls-1" d="M107.73,81.77h-2.57v7.89h-1.22V81.77h-2.57V81.3h6.36Z"/><path class="cls-1" d="M125.32,81.77h-2.57v7.89h-1.22V81.77H119V81.3h6.35Z"/><path class="cls-1" d="M137.28,89.66h-1.23v-4h-4.5v4h-1.24V81.3h1.24v3.86h4.5V81.3h1.23Z"/><path class="cls-1" d="M143.78,81.77v3.39h3.07v.47h-3.07V89.2h3.67v.46h-4.9V81.3h4.9v.47Z"/><path class="cls-1" d="M160.3,86v3.69h-1.23V81.3h2.25c1.67,0,3.06.67,3.06,2.34S163,86,161.32,86Zm0-.46H161c1.46,0,2.06-.63,2.06-1.87s-.6-1.87-2.06-1.87h-.72Z"/><path class="cls-1" d="M172.44,87.2H169.2l-1,2.46h-.48l3.52-8.58,3.52,8.58h-1.3Zm-3.05-.47h2.86l-1.43-3.49Z"/><path class="cls-1" d="M181.23,86l4.43,3.69H185l-4.07-3.39v3.39h-1.24V81.3H182c1.67,0,3.06.67,3.06,2.34S183.66,86,182,86Zm.45-.46c1.46,0,2.07-.63,2.07-1.87s-.61-1.87-2.07-1.87h-.8v3.74Z"/><path class="cls-1" d="M191.53,86.13l3.74-4.83h.61l-2.4,3.1,3.38,5.26H195.4l-2.7-4.25-1.17,1.51v2.74H190.3V81.3h1.23Z"/><path class="cls-2" d="M161.39,55.9l0,0Z"/><path class="cls-2" d="M160.11,54.8l-.08,0,.11,0Z"/><path class="cls-3" d="M243.77,44.12C240.64,21.63,214.12,5.74,181.5,7.71,160.56,9,142.9,21.05,127.68,31.13l-2.07,1.37q-2.11,1.39-4.18,2.71L119,36.74c-.74.46-1.49.91-2.22,1.34.64-1.7,1.33-3.38,2.07-5.06,1.61-3.64,2.74-5.47,3.38-5.47,0,0,.11.06.21.16a3,3,0,0,1,.35,2.16,21,21,0,0,1-.81,3.64l-.24.8c1.45-.86,2.75-1.69,4-2.6.34-2.62.16-5.86-2.6-6.67a2.83,2.83,0,0,0-1.68,0,5.31,5.31,0,0,0-.84.36,6.33,6.33,0,0,0-1.32,1.32,14.85,14.85,0,0,0-1.83,2.87,53.49,53.49,0,0,0-2.21,5.32q-.84,2.25-1.68,5c-1.79,1-3.54,1.83-5.26,2.56-5.35,2.27-14.25,3.3-19.59,1C73.79,37.2,66.45,12.1,49,3.24,41-.85,33.13-.62,25.7,1.46a26.19,26.19,0,0,0-15,10.93C7,18.19,2,29.78,9.55,42.2a33.9,33.9,0,0,0,6.16,8.26L17,51.8a31.12,31.12,0,0,0-6.74,3.56A23.94,23.94,0,0,0,.57,70.23C-2.7,85.26,9,91,11.94,92.09A18.18,18.18,0,0,0,35.22,81.17c3.26-9.1.43-15.22-6.49-22.83h0c-.09-.1-.18-.19-.26-.29h0c-1.73-1.84-4.16-4.34-6.37-6.6,7.28-1.8,16.05.68,21.48,5.21a9.51,9.51,0,0,0-1.76,3.27,9.92,9.92,0,0,0-.13,5.94,6.13,6.13,0,0,0,.76,1.78,2.2,2.2,0,0,0,.17.25,4.3,4.3,0,0,0,.52.61l.15.17,0,0a4.21,4.21,0,0,0,1.31.9c3,1.46,6.88,0,9-3.36a9.27,9.27,0,0,0,.56-1.08l0,0c1.84,1.19,7.11,4.7,17.47-8.5-.49,3.18-1,6.31-1.55,9.37q-2.39,4.93-4.45,10.4a72.09,72.09,0,0,0-3,9.9q-1,4.43.2,5.64a2,2,0,0,0,1.42.56,1.28,1.28,0,0,0,.66-.1c2.94-1.8,5.1-8.79,7.84-25.64a.49.49,0,0,1,0-.25c1.46-3.15,2.93-6.74,5.34-9.28,2.83-3.05,8.7-3.7,8.2,1.21a7.22,7.22,0,0,1-7.89,6l-.87.11a1.33,1.33,0,0,0-.92.45,1.22,1.22,0,0,0-.3.92,1.4,1.4,0,0,0,.43.92c.24.22,16.48,10.7,32.07-6.61-.7,3.63-1.24,6.63-1.32,7.57a1.22,1.22,0,0,0,.87,1.38,1.18,1.18,0,0,0,1.52-.46c1.23-1.8,6-8,10-8.64,1.58-.25,2.42,1,3.15,2,1.28,1.69,4.17,6.46,8.14,7.29,6.58,1.36,13.12-5,16.29-8.66a8.9,8.9,0,0,0,.78,6.73,3.16,3.16,0,0,0,.18.27,5.88,5.88,0,0,0,1.63,1.55c3.19,2,7.72.52,10.12-3.31a9.8,9.8,0,0,0,.61-1.15v0c1.91,1.23,8.37,3.25,17.92-6.7a5.26,5.26,0,0,0,3.3,1.19,6.69,6.69,0,0,0,4.17-1.11,1,1,0,0,1,.45-.16c.22,0,.28.12.2.29-.19.38-5.95,8.93.59,11.32,4,1.46,8.5-.37,13.35-5.17a7.62,7.62,0,0,0,.62,2.43,5.37,5.37,0,0,0,2.74,2.79c3.22,1.38,7.3-.93,9.12-5.16a10.76,10.76,0,0,0,.63-2l0-.14a10.55,10.55,0,0,0,2.24,3.18h0c4.83,5,13.17,6.46,18.91,2.56C241.27,63.94,245,52.83,243.77,44.12Zm-179,46c.61-3,3-13.59,5.07-17.32C69.68,77.84,67.46,86.12,64.78,90.09ZM22.11,57.25h0c3.59,4.12,6.74,8.42,8.35,12.38a13.86,13.86,0,0,1,1.35,7A14.11,14.11,0,0,1,18.4,89.65,14,14,0,0,1,10,87.22C.57,80.75.87,70.17,5.47,62.53A22.57,22.57,0,0,1,18,52.81C19.4,54.3,21,56,22.11,57.25ZM53,59.61a5.75,5.75,0,0,1-1,2.3,2.34,2.34,0,0,1-1.13-4.2,1.29,1.29,0,0,1,1.26-.07A1.68,1.68,0,0,1,53,59.61Zm56.37-1.73c-7.83,10.46-18.71,12.37-26.59,9.06,0,0,6.9-1.28,7.87-6.74,1.19-6.67-6.8-12.61-16.09-1.62a.3.3,0,0,1-.33.16c-.12,0-.16-.14-.13-.31.24-1.52.46-3,.66-4.37a1.31,1.31,0,0,0-.51-1.27,1.22,1.22,0,0,0-1.34-.21,1.19,1.19,0,0,0-.78,1.07c-3.62,5-10.48,12.43-16.23,9.82a6,6,0,0,1-.65-.37,8.14,8.14,0,0,0-.07-6.37l0,0a2.31,2.31,0,0,0-1.26-1.09l-.1,0-.37-.11c-2.3-.69-5.51,1.56-4.52,5.29a4.16,4.16,0,0,0,1.78,2.6c.4.3.64.48-.38,1.53-2.7,2.78-8.9,1.57-6.55-5.16,1.89-5.42,6.46-3.79,6.72-4.48s-.31-1.26-1.37-1.35a4.08,4.08,0,0,0-1.7.2,7.68,7.68,0,0,0-3,1.72c-7-5.26-14.23-7.16-23.16-5.24l-1-1L18.9,48.21c-12.29-12.51-7-27.82-4.33-31.85C19,9.64,26,4.12,34.31,3.56c18.48-1.25,28,16.13,38.12,28.38,5.26,6.39,11.88,13.15,20.48,14.36,5.68.8,11.09-.11,20.13-4.61-.14.52-.29,1-.44,1.58C111.94,45.55,110.52,52.08,109.36,57.88Zm50.19,1a6,6,0,0,1-1,2.46,2.47,2.47,0,0,1-1.71-1,2.08,2.08,0,0,1-.56-1.09,2.39,2.39,0,0,1,.89-2.32,1.56,1.56,0,0,1,1.52-.11A1.77,1.77,0,0,1,159.55,58.9Zm20.09-3a6.1,6.1,0,0,1,.39-3.59c.36-.54.72-.7,1.09-.51s.63.63.41,1.38A6.67,6.67,0,0,1,179.64,55.85Zm61.17-2.73c-.49,4-2.67,13.85-11.09,15.95-4.58,1.14-9.23-1.13-12.42-4.81A9.71,9.71,0,0,1,215,58.88c0-.23-.08-.4-.1-.54a1,1,0,0,0-.88-.87c-.53-.08-.83.26-1,.77a31.23,31.23,0,0,1-2.14,6.42c-1.78,3.51-4.95,2.23-6.29.35-2.26-3.15.59-12.73,8.88-10.73,1.35.32,1.74.28,1.83-.09.19-.78-.18-1.35-1.64-1.6-3.27-.56-9,.37-12,7.23-.16.37-.34.7-.44,1a11.41,11.41,0,0,0-.35,1.45.15.15,0,0,1,0,.07c-4.39,6.47-10.71,7.38-12.94,3.63-1.11-1.89.59-5.29,1.66-7.11.27-.55.47-1,.6-1.3a2.61,2.61,0,0,0,.14-1.12,1.42,1.42,0,0,0-.57-1.07,2,2,0,0,0-1.15-.43,2.79,2.79,0,0,0-1,.12,7.6,7.6,0,0,0-1,.52c-3.9,3.31-6.06,2.61-6.32,1,0,0,4.56-4.89,2.13-7.06-.67-.61-1.55-.6-2.7.08a5.57,5.57,0,0,0-2,2.71c-.25.71-.82,3.32.46,5.14-4.15,4-10.17,8-15.54,5.56a6.47,6.47,0,0,1-.68-.4,8.69,8.69,0,0,0-.09-6.79s0,0,0,0a2.57,2.57,0,0,0-1.34-1.16l-.11,0-.4-.12c-2.45-.74-5.87,1.66-4.82,5.64a4.41,4.41,0,0,0,1.9,2.77c.43.33.68.52-.41,1.64-2.88,3-9.51,1.86-6.79-5.24,2.12-5.55,6.69-4.32,7-5.05s-.33-1.44-1.47-1.44c-2.87,0-5.73,2.6-7.19,5.92-3.9,3.77-10.31,9.34-15.93,8.52-1.94-.28-3.55-2.06-5.17-4-3.15-3.68-3.2-6.21-6.25-6.9-5.2-1.18-10.23,6.29-10.23,6.29s.79-2.88,1.27-5.39l.3-.46.1-.15c.75-1,1.51-2.13,2.29-3.25.68-1,7.72-12.95,9.86-17.11-1.52.91-2.91,1.72-4.27,2.48-3.32,8.56-7.41,13.8-7.56,13.71-.4-.23.88-4.58,2-8.34.41-1.33.86-2.65,1.33-4q.95-.49,1.92-1.05c.87-.48,1.77-1,2.71-1.53q2.1-1.22,4.42-2.62l2.4-1.47c4.12-2.55,8.78-5.54,14.1-9,9.26-6.08,31-20.4,60.59-12.9C243.94,22.14,241.1,50.76,240.81,53.12Z"/></g></g></svg>