<svg xmlns="http://www.w3.org/2000/svg" xmlns:xlink="http://www.w3.org/1999/xlink" viewBox="0 0 46 35.52"><defs><style>.cls-1{fill:none;}.cls-2{fill:#a5714e;}.cls-3{clip-path:url(#clip-path);}</style><clipPath id="clip-path" transform="translate(0 0)"><rect class="cls-1" width="46" height="37.11"/></clipPath></defs><title>logo-polyhon-300x250</title><g id="Layer_2" data-name="Layer 2"><g id="Layer_1-2" data-name="Layer 1"><polygon class="cls-2" points="20.56 0.14 23.08 2.63 25.6 0.14 20.56 0.14"/><polygon class="cls-2" points="26.97 0 23.08 3.82 19.21 0.02 16.41 2.78 19.65 2.78 21.5 4.62 24.72 4.62 26.59 2.78 29.8 2.78 26.97 0"/><polygon class="cls-2" points="16.53 3.73 19.16 3.73 20.03 4.62 17.3 7.38 21.72 7.38 21.72 10.17 17.22 7.48 15.37 9.36 15.37 13.23 13.4 15.15 13.4 13.69 14.39 12.73 14.39 8.89 15.85 7.43 15.85 4.41 16.53 3.73"/><polygon class="cls-2" points="13.4 5.73 14.91 4.22 14.91 7.07 13.4 8.58 13.4 5.73"/><polygon class="cls-2" points="16.25 9.71 17.26 8.69 17.26 14.27 13.4 18.12 13.4 16.6 16.25 13.77 16.25 9.71"/><polygon class="cls-2" points="18.16 11.82 19.16 12.82 19.16 15.31 16.38 18.13 14.85 18.13 18.16 14.81 18.16 11.82"/><polygon class="cls-2" points="17.81 18.13 19.77 16.15 21.71 18.13 17.81 18.13"/><polygon class="cls-2" points="20.03 13.58 20.03 15.11 21.11 16.21 23.05 14.27 24.97 16.21 26.91 14.27 26.91 15.34 29.68 18.13 31.25 18.13 27.95 14.81 27.95 13.31 28.81 12.49 28.81 14.27 32.72 18.13 32.72 16.53 29.87 13.75 29.87 8.48 30.7 9.32 30.7 13.23 32.72 15.15 32.72 13.62 31.75 12.73 31.75 8.92 30.22 7.38 30.22 4.41 29.55 3.73 27.01 3.73 26.12 4.62 28.87 7.38 24.31 7.38 24.31 11.97 20.6 11.97 22.16 13.48 21.05 14.59 20.03 13.58"/><polygon class="cls-2" points="24.31 18.13 26.31 16.12 28.3 18.13 24.31 18.13"/><polygon class="cls-2" points="32.72 5.73 31.16 4.22 31.16 7.07 32.72 8.58 32.72 5.73"/><g class="cls-3"><path class="cls-2" d="M0,22.16H2.49a3.63,3.63,0,0,1,1.73.32,2.4,2.4,0,0,1,.72.56,2.2,2.2,0,0,1,.51,1.46,2.12,2.12,0,0,1-1.4,2.1,4.37,4.37,0,0,1-1.56.19h-1v2.58H0Zm2.36,3.43c1,0,1.56-.38,1.56-1.12s-.49-1-1.56-1H1.51v2.17Z" transform="translate(0 0)"/><path class="cls-2" d="M6.29,25.71A3.43,3.43,0,0,1,9.73,22c2.09,0,3.43,1.5,3.43,3.75s-1.32,3.85-3.39,3.85S6.29,28,6.29,25.71m5.35,0c0-1.56-.73-2.51-1.92-2.51s-1.91.94-1.91,2.47.74,2.56,1.92,2.56,1.91-1,1.91-2.52" transform="translate(0 0)"/></g><polygon class="cls-2" points="14.25 22.12 15.76 22.12 15.76 28.04 19.16 28.04 19.16 29.32 14.25 29.32 14.25 22.12"/><polygon class="cls-2" points="22.05 26.47 22.05 29.32 20.54 29.32 20.54 26.52 18.18 22.12 19.91 22.12 21.32 25.21 22.82 22.12 24.46 22.12 22.05 26.47"/><g class="cls-3"><path class="cls-2" d="M30.8,29.32H29.55v-.81a2.54,2.54,0,0,1-.69.64,2.4,2.4,0,0,1-1.33.38c-1.93,0-3.2-1.54-3.2-3.83s1.39-3.77,3.39-3.77a2.88,2.88,0,0,1,3.08,2.38H29.3a1.46,1.46,0,0,0-1.54-1.11c-1.17,0-1.89,1-1.89,2.56s.74,2.54,1.88,2.54a1.63,1.63,0,0,0,1.64-1.8H27.84V25.27h3Z" transform="translate(0 0)"/><path class="cls-2" d="M32,25.67a3.48,3.48,0,0,1,3.51-3.74c2.08,0,3.43,1.5,3.43,3.75s-1.32,3.85-3.38,3.85S32,28,32,25.67m5.43,0c0-1.55-.74-2.5-1.92-2.5s-1.92.94-1.92,2.47.74,2.55,1.92,2.55,1.92-1,1.92-2.52" transform="translate(0 0)"/></g><polygon class="cls-2" points="44.54 22.12 44.54 27.66 42.12 22.12 39.87 22.12 39.87 29.32 41.32 29.32 41.32 23.75 43.79 29.32 46 29.32 46 22.12 44.54 22.12"/><g class="cls-3"><path class="cls-2" d="M.46,34.65v.83H.18V33.59H.69c.37,0,.69.16.69.53s-.32.53-.69.53Zm0-.11H.62c.33,0,.46-.14.46-.42S1,33.7.62,33.7H.46Z" transform="translate(0 0)"/><path class="cls-2" d="M2.77,35.52a1,1,0,1,1,0-2,1,1,0,1,1,0,2Zm.72-1c0-.52-.29-.88-.72-.88s-.71.36-.71.88.28.87.71.87S3.49,35.05,3.49,34.54Z" transform="translate(0 0)"/><path class="cls-2" d="M4.27,33.59h.28v1.78h.73v.11h-1Z" transform="translate(0 0)"/><path class="cls-2" d="M6,34.63l-.61-1H5.7l.53.92.54-.92h.12l-.62,1.07v.82H6Z" transform="translate(0 0)"/><path class="cls-2" d="M8.73,33.88a1,1,0,0,0-.63-.22.89.89,0,0,0,0,1.75.84.84,0,0,0,.46-.12v-.77h.28v.79a1.3,1.3,0,0,1-.74.21,1,1,0,1,1,0-2,1.3,1.3,0,0,1,.63.15Z" transform="translate(0 0)"/><path class="cls-2" d="M10.33,35.52a1,1,0,1,1,1-1A1,1,0,0,1,10.33,35.52Zm.71-1c0-.52-.28-.88-.71-.88s-.71.36-.71.88.28.87.71.87S11,35.05,11,34.54Z" transform="translate(0 0)"/><path class="cls-2" d="M13.32,33.59v1.92l-1.39-1.45v1.42h-.11V33.56L13.22,35V33.59Z" transform="translate(0 0)"/><path class="cls-2" d="M15.61,33.8a.71.71,0,0,0-.39-.13c-.18,0-.34.08-.34.25s.14.25.37.4.55.39.55.69-.36.49-.64.49a.89.89,0,0,1-.55-.17v-.16a.83.83,0,0,0,.55.23c.23,0,.39-.12.39-.31s-.12-.3-.38-.48-.52-.37-.52-.62.29-.42.57-.42a1,1,0,0,1,.39.08Z" transform="translate(0 0)"/><path class="cls-2" d="M17.2,35.52a1,1,0,1,1,1-1A1,1,0,0,1,17.2,35.52Zm.71-1c0-.52-.28-.88-.71-.88s-.71.36-.71.88.28.87.71.87S17.91,35.05,17.91,34.54Z" transform="translate(0 0)"/><path class="cls-2" d="M19,34.65v.83h-.28V33.59h.51c.38,0,.69.16.69.53s-.31.53-.69.53Zm0-.11h.16c.33,0,.47-.14.47-.42s-.14-.42-.47-.42H19Z" transform="translate(0 0)"/><path class="cls-2" d="M21.92,35.48h-.28v-.91h-1v.91h-.28V33.59h.28v.88h1v-.88h.28Z" transform="translate(0 0)"/><path class="cls-2" d="M23.41,35.52a1,1,0,1,1,0-2,1,1,0,1,1,0,2Zm.72-1c0-.52-.29-.88-.72-.88s-.71.36-.71.88.29.87.71.87S24.13,35.05,24.13,34.54Z" transform="translate(0 0)"/><path class="cls-2" d="M25.26,34.65l1,.83H26.1l-.91-.76v.76h-.28V33.59h.53c.37,0,.69.16.69.53s-.32.53-.69.53Zm.11-.11c.33,0,.46-.14.46-.42s-.13-.42-.46-.42h-.18v.84Z" transform="translate(0 0)"/><path class="cls-2" d="M27.61,34.92h-.73l-.23.56h-.1l.79-1.93.79,1.93h-.29Zm-.69-.1h.65L27.25,34Z" transform="translate(0 0)"/><path class="cls-2" d="M30.76,33.7h-.58v1.78H29.9V33.7h-.57v-.11h1.43Z" transform="translate(0 0)"/><path class="cls-2" d="M32,35.52a1,1,0,1,1,1-1A1,1,0,0,1,32,35.52Zm.71-1c0-.52-.29-.88-.71-.88s-.72.36-.72.88.29.87.72.87S32.68,35.05,32.68,34.54Z" transform="translate(0 0)"/><path class="cls-2" d="M33.49,33.59,34,35l.56-1.44L35.22,35l.51-1.42h.11l-.7,1.92-.63-1.46-.57,1.46-.74-1.92Z" transform="translate(0 0)"/><path class="cls-2" d="M36.58,33.7v.77h.69v.1h-.69v.8h.83v.11H36.3V33.59h1.11v.11Z" transform="translate(0 0)"/><path class="cls-2" d="M38.28,34.65l1,.83h-.15l-.92-.76v.76h-.28V33.59h.53c.37,0,.69.16.69.53s-.32.53-.69.53Zm.1-.11c.33,0,.46-.14.46-.42s-.13-.42-.46-.42H38.2v.84Z" transform="translate(0 0)"/><path class="cls-2" d="M40.47,33.59h.28v1.78h.73v.11h-1Z" transform="translate(0 0)"/><path class="cls-2" d="M43,33.7h-.57v1.78h-.28V33.7h-.58v-.11H43Z" transform="translate(0 0)"/><path class="cls-2" d="M43.5,35.48V33.59H44a.95.95,0,1,1,0,1.89Zm.28-.11H44a.84.84,0,0,0,0-1.67h-.23Z" transform="translate(0 0)"/><path class="cls-2" d="M45.52,35.22a.14.14,0,0,1,.14.14.14.14,0,1,1-.28,0A.14.14,0,0,1,45.52,35.22Z" transform="translate(0 0)"/></g></g></g></svg>