<svg xmlns="http://www.w3.org/2000/svg" viewBox="0 0 159.97 83.12"><defs><style>.cls-1{fill:#a5714e;}</style></defs><title>t2-ch-300x250</title><g id="Layer_2" data-name="Layer 2"><g id="Layer_2-2" data-name="Layer 2"><path class="cls-1" d="M62.37.8a35.66,35.66,0,0,1-2.52,5.3V23H58V9a26.25,26.25,0,0,1-2.47,3,9.1,9.1,0,0,0-1.05-1.82A27.86,27.86,0,0,0,60.62.27Zm14.8,19.4V22H61.62V20.2h8.73A107.32,107.32,0,0,0,72.72,7.82l1.93.35C74,12,73,16.87,72.07,20.2Zm-1-13.7H62.67V4.7H76.15ZM66,19A90.94,90.94,0,0,0,64.3,8.4L66,8a96.7,96.7,0,0,1,1.85,10.5ZM68.82,4.42a28.18,28.18,0,0,0-1.17-4L69.4,0a39.68,39.68,0,0,1,1.25,3.87Z"/><path class="cls-1" d="M91.45,9.47s0,.6,0,.85c-.3,7.83-.57,10.5-1.27,11.4a1.7,1.7,0,0,1-1.43.77,12.9,12.9,0,0,1-2.3,0,4.52,4.52,0,0,0-.45-1.7c.85.07,1.55.07,1.9.07a.72.72,0,0,0,.75-.32c.45-.55.75-2.92,1-9.4H86.4c-.27,5-1,9-3.23,11.75a4.71,4.71,0,0,0-1.39-1.35c2.67-3.22,2.89-8.77,3-15.55H82.28V4.3H92.35V6H86.57c0,1.18,0,2.35-.1,3.45Zm-4.18-5.2a15.27,15.27,0,0,0-2-3.55L86.85.1A14.93,14.93,0,0,1,89,3.57ZM99.47.58A11,11,0,0,1,99,2a17.32,17.32,0,0,0,6.12,6.8,7.4,7.4,0,0,0-1.37,1.52,19.22,19.22,0,0,1-5.55-6.5,16.09,16.09,0,0,1-5.4,6.65A7,7,0,0,0,91.52,9,15.3,15.3,0,0,0,97.77.05ZM95.25,16.65a37.38,37.38,0,0,1,6.82,4.17l-1.25,1.62a35.52,35.52,0,0,0-6.75-4.39Zm4.65-2.2A35.67,35.67,0,0,0,95.6,11l1.2-1.2a31.83,31.83,0,0,1,4.37,3.27Z"/><path class="cls-1" d="M21.77,32.8v1.6H0V32.8H10.22c-.22-.73-.52-1.58-.77-2.28l1.8-.42c.35.85.72,1.9,1,2.7ZM21,51c0,.9-.22,1.28-.9,1.53a11.28,11.28,0,0,1-3.3.22,5.38,5.38,0,0,0-.6-1.37c1.08,0,2.23,0,2.53,0s.42-.1.42-.4V43.72H2.7V53H.9V42.15H21ZM18.27,35.8v5H3.77v-5ZM16,50.32H7.22v1.22H5.5V45.2H16Zm.35-13.15H5.6v2.25H16.37ZM7.22,46.6v2.32h7.13V46.6Z"/><path class="cls-1" d="M36.4,50.29a34.4,34.4,0,0,1-7.7,2.78,11.63,11.63,0,0,0-1.35-1.38,32.24,32.24,0,0,0,7.37-2.15ZM49.5,38.72H27.38V37.27H37.5V36H30.72V31.62H37.5V30.17h1.82v1.45h7.13V36H39.32v1.32H49.5Zm-19,10.57V40H46.67v9.34Zm1.8-6.59h12.5V41.15H32.32Zm0,2.67h12.5V43.85H32.32Zm0,2.73h12.5V46.55H32.32ZM37.5,34.67v-1.8h-5v1.8Zm1.82-1.8v1.8h5.33v-1.8ZM42,49.59a73.71,73.71,0,0,1,7.52,2.48L47.4,53a62.79,62.79,0,0,0-7-2.47Z"/><path class="cls-1" d="M64,44c-.55-.9-1.83-2.62-2.85-3.92V53H59.32V40.77a25.92,25.92,0,0,1-4.07,7.65,9.1,9.1,0,0,0-1-1.72A25.89,25.89,0,0,0,59,37.3H54.88V35.52h4.44V30.17h1.83v5.35H64.7V37.3H61.15v.57c.82.78,3.47,3.83,4.07,4.55Zm8.57-6.72c1.13,4,3,8,5,10.12a6.74,6.74,0,0,0-1.42,1.45,28.81,28.81,0,0,1-4.07-8.25V53H70.27V40.7a26.08,26.08,0,0,1-5.15,8.62A10,10,0,0,0,64,47.7a25.39,25.39,0,0,0,5.85-10.4h-4.1V35.52h4.5V30.17H72.1v5.35h4.72V37.3Z"/><path class="cls-1" d="M94.27,35.65V39h8.1v8.75c0,1.08-.25,1.63-1.05,1.95A15.67,15.67,0,0,1,97,50a7.21,7.21,0,0,0-.65-1.84c1.7,0,3.2,0,3.62,0s.58-.15.58-.5v-6.9H94.27V53H92.4V40.85H86.55v9.27H84.7V39h7.7V35.65H82.28V33.82H92.92a30.39,30.39,0,0,0-1.65-3.27L93.05,30a21.21,21.21,0,0,1,2,3.7l-.33.12h9.92v1.83Z"/><path class="cls-1" d="M130.9,34.62v11.7H129V44.9h-7.18V53H119.9V44.9h-7.15v1.55h-1.83V34.62h9V30.17h1.92v4.45Zm-11,8.45V36.45h-7.15v6.62Zm9.1,0V36.45h-7.18v6.62Z"/><path class="cls-1" d="M141.17,39.32a49.86,49.86,0,0,1-2.2,9.8l-1.84-.77A39.46,39.46,0,0,0,139.38,39Zm4.05-2.22V49.42c0,1.15.3,1.37,1.73,1.37h4.77c1.55,0,1.78-.87,2-5.17a5.86,5.86,0,0,0,1.75.83c-.28,4.72-.85,6.09-3.63,6.09h-5c-2.7,0-3.45-.67-3.45-3.14V37.1Zm.53-6.05a45.92,45.92,0,0,1,6.72,5.52L151.15,38a47.59,47.59,0,0,0-6.63-5.68Zm10.87,7.27A44.63,44.63,0,0,1,160,47.7l-1.82.72A45,45,0,0,0,154.9,39Z"/><path class="cls-1" d="M36,80a33.21,33.21,0,0,1-7.64,3.1,10,10,0,0,0-1.3-1.3,29.17,29.17,0,0,0,7.29-2.85ZM49.59,69.55H27.3V68H49.59Zm-16.42-6H28.53V62.07h4.64v-1.9H35v1.9h7v-1.9h1.85v1.9H48.5v1.48H43.82v3.12H33.17Zm-3,15.3v-8.1H47v8.1ZM32,74.12h5.48v-2H32Zm0,3.35h5.48v-2H32Zm3-13.92v1.77h7V63.55ZM45.1,72.12H39.27v2H45.1Zm0,3.3H39.27v2H45.1Zm-2.9,3.5a69.59,69.59,0,0,1,7.64,2.85L48.22,83A56.83,56.83,0,0,0,41,80.09Z"/><path class="cls-1" d="M66.82,69.35v3.4h8.72v1.7H66.82v6.09h9.85v1.73H55.2V80.54h9.7V74.45H56.33v-1.7H64.9v-3.4H59.5V68a30.24,30.24,0,0,1-4,1.83,6.84,6.84,0,0,0-1.25-1.7c4.64-1.53,9.24-4.45,11.62-8.15l1.7.8c-.18.27-.4.6-.63.9A27.35,27.35,0,0,0,77.64,68.1a7,7,0,0,0-1.3,1.62,30.39,30.39,0,0,1-4-1.92v1.55ZM60,75a21,21,0,0,1,2.4,4.47l-1.63.67a20.53,20.53,0,0,0-2.3-4.52ZM72,67.62A28.74,28.74,0,0,1,66,62.92a25.7,25.7,0,0,1-5.85,4.7Zm-2.92,12A28.72,28.72,0,0,0,71.7,75l1.75.67a44.57,44.57,0,0,1-3,4.53Z"/><path class="cls-1" d="M87.05,74.92c.9-.4,1.82-.77,2.75-1.17l.37,1.65c-2.62,1.22-5.42,2.47-7.59,3.45L81.85,77c1-.33,2.15-.83,3.45-1.38v-7.7h-3V66.15h3V60.47h1.75v5.68h2.7v1.77h-2.7Zm14.35,5.85c1.45,0,1.7-.68,1.87-3.55a4.13,4.13,0,0,0,1.68.7c-.31,3.42-.88,4.52-3.48,4.52H95.32c-2.82,0-3.67-.67-3.67-3.37V71.22l-2,.83L89,70.42l2.7-1.12V62.5h1.77v6l3.35-1.4v-7h1.78v6.2l3.8-1.6,1.42.48-.1.3a88.28,88.28,0,0,1-1.3,11l-1.52-.45a90.56,90.56,0,0,0,1-9.13L98.55,68.3v9.17H96.77V69.05l-3.35,1.42v8.62c0,1.36.33,1.68,2,1.68Z"/><path class="cls-1" d="M119.32,77.32c-2.07.33-4.15.7-6.07,1v4.32h-1.8v-4l-1.8.3-.27-1.75,2.07-.28V62.4l0,0v0a35.91,35.91,0,0,0,6.55-2.35l1.5,1.4a44.33,44.33,0,0,1-6.3,2.07v2.73h5.6V67.9h-5.6v3.42h5.57V73h-5.57V76.6l6-.88Zm11.2-5.5a14.7,14.7,0,0,1-3.67,7,14.66,14.66,0,0,0,5.49,2.58A6.26,6.26,0,0,0,131.2,83a15.73,15.73,0,0,1-5.65-3,17.86,17.86,0,0,1-6.3,3.15,5.47,5.47,0,0,0-1-1.6,15.49,15.49,0,0,0,6-2.75,15.8,15.8,0,0,1-3.3-5.45l.92-.25h-1.75v-1.6h8.93l.32-.07Zm-6.92-7.67a7.72,7.72,0,0,1-3.28,6.8,7.93,7.93,0,0,0-1.27-1.18,6.32,6.32,0,0,0,2.82-5.67v-3h6.93v6.32c0,.65.07.85.42.85h1.68a5.2,5.2,0,0,0,1.14-.1c.05.43.08,1,.16,1.45a4.73,4.73,0,0,1-1.28.1h-1.87c-1.65,0-2-.65-2-2.35V62.72H123.6Zm-1.1,8.92a13.25,13.25,0,0,0,3,4.58,12,12,0,0,0,2.8-4.58Z"/></g></g></svg>