<svg xmlns="http://www.w3.org/2000/svg" viewBox="0 0 37.19 6.31"><defs><style>.cls-1{fill:#231f20;}</style></defs><title>600tc</title><g id="Layer_2" data-name="Layer 2"><g id="Layer_1-2" data-name="Layer 1"><path class="cls-1" d="M1.57,4.24V.67h-1V1.88H0V.08H3.85v1.8H3.26V.67h-1V4.24h.62v.59H1V4.24Z"/><path class="cls-1" d="M7.54,2.31h1V2.9H8a2.88,2.88,0,0,1-.47,1l.25.33h.72v.59H7.43l-.32-.42a2,2,0,0,1-1.26.5,1.73,1.73,0,0,1-1.22-.46,1.53,1.53,0,0,1,.6-2.57,1.36,1.36,0,0,1-.33-.83A1,1,0,0,1,5.25.29,1.24,1.24,0,0,1,6.06,0a1.2,1.2,0,0,1,.81.29A1,1,0,0,1,7.2,1,.88.88,0,0,1,7,1.64a2.22,2.22,0,0,1-.77.46l1,1.31A3.55,3.55,0,0,0,7.54,2.31Zm-1.95,0a1,1,0,0,0-.74,1,1.06,1.06,0,0,0,1.07,1,1.13,1.13,0,0,0,.83-.38Zm.27-.66a1.79,1.79,0,0,0,.56-.32A.46.46,0,0,0,6.57,1,.45.45,0,0,0,6.44.7.5.5,0,0,0,6.07.56a.52.52,0,0,0-.36.13A.46.46,0,0,0,5.57,1a1.18,1.18,0,0,0,.25.56Z"/><path class="cls-1" d="M13,2.9l.62.34a2.09,2.09,0,0,1-.84,1.23,2.52,2.52,0,0,1-1.46.44,2.27,2.27,0,0,1-1.73-.7A2.44,2.44,0,0,1,9,2.47,2.46,2.46,0,0,1,9.62.67,2.28,2.28,0,0,1,11.33,0,2.41,2.41,0,0,1,12.9.51V.08h.62V1.6H12.9a1.47,1.47,0,0,0-.63-.72,1.7,1.7,0,0,0-.9-.25,1.52,1.52,0,0,0-1.17.51,1.9,1.9,0,0,0-.45,1.3,1.8,1.8,0,0,0,.49,1.31,1.54,1.54,0,0,0,1.16.51,1.62,1.62,0,0,0,1-.35A1.91,1.91,0,0,0,13,2.9Z"/><path class="cls-1" d="M14.27,4.83V3.7h.59v.1a.53.53,0,0,0,.25.39.89.89,0,0,0,.52.15,1,1,0,0,0,.5-.11.34.34,0,0,0,.19-.31.29.29,0,0,0-.16-.27,2,2,0,0,0-.61-.17,2,2,0,0,1-1-.37.87.87,0,0,1-.29-.67.86.86,0,0,1,.32-.69,1.19,1.19,0,0,1,.83-.28,1.59,1.59,0,0,1,.81.19V1.52h.58v1.1h-.58v-.2A.87.87,0,0,0,15.47,2a.77.77,0,0,0-.42.11.34.34,0,0,0-.16.3.25.25,0,0,0,.15.25,2.7,2.7,0,0,0,.65.15,3.2,3.2,0,0,1,.73.18.92.92,0,0,1,.57.88.88.88,0,0,1-.35.73,1.48,1.48,0,0,1-.92.27,1.43,1.43,0,0,1-.86-.24v.19Z"/><path class="cls-1" d="M22.57,4.25v.58H21.44v-.4a1.51,1.51,0,0,1-1.06.45,1.11,1.11,0,0,1-.78-.29,1,1,0,0,1-.33-.75,1,1,0,0,1,.35-.77,1.26,1.26,0,0,1,.85-.3,1.61,1.61,0,0,1,.9.28V2.72a1.27,1.27,0,0,0-.05-.39.45.45,0,0,0-.22-.24A.81.81,0,0,0,20.64,2a.75.75,0,0,0-.71.39l-.62-.17a1.49,1.49,0,0,1,1.43-.77,1.76,1.76,0,0,1,.64.1,1,1,0,0,1,.41.26.86.86,0,0,1,.18.34,2.88,2.88,0,0,1,0,.59V4.25Zm-1.2-.65a1.36,1.36,0,0,0-.85-.33.64.64,0,0,0-.45.16.51.51,0,0,0-.18.41.49.49,0,0,0,.16.38.56.56,0,0,0,.43.16A1.3,1.3,0,0,0,21.37,4Z"/><path class="cls-1" d="M23.31,5.74V2.1h-.56V1.52H24V2A1.56,1.56,0,0,1,26.29,2a1.74,1.74,0,0,1,.46,1.24,1.66,1.66,0,0,1-.5,1.27,1.58,1.58,0,0,1-2.29,0V5.74h.64v.57H22.71V5.74ZM24,3.22a1.36,1.36,0,0,0,.11.53,1.19,1.19,0,0,0,.36.42,1,1,0,0,0,.58.16A1,1,0,0,0,25.77,4a1.16,1.16,0,0,0,.3-.85,1.1,1.1,0,0,0-.32-.83A1,1,0,0,0,25,2a1,1,0,0,0-.75.33A1.13,1.13,0,0,0,24,3.22Z"/><path class="cls-1" d="M27.69,5.74V2.1h-.56V1.52h1.21V2a1.48,1.48,0,0,1,1.17-.57A1.54,1.54,0,0,1,30.67,2a1.73,1.73,0,0,1,.45,1.24,1.65,1.65,0,0,1-.49,1.27,1.62,1.62,0,0,1-1.13.47,1.57,1.57,0,0,1-1.16-.51V5.74H29v.57h-1.9V5.74Zm.64-2.52a1.2,1.2,0,0,0,.11.53,1,1,0,0,0,.36.42A1.1,1.1,0,0,0,30.14,4a1.16,1.16,0,0,0,.31-.85,1.1,1.1,0,0,0-.32-.83,1,1,0,0,0-.72-.3,1,1,0,0,0-.76.33A1.16,1.16,0,0,0,28.33,3.22Z"/><path class="cls-1" d="M32.14,4.25V.65h-.59V.08h1.24V4.25h.5v.58H31.55V4.25Z"/><path class="cls-1" d="M35,4.77,33.92,2.1h-.55V1.52H35V2.1h-.4l.72,1.83L36,2.1h-.44V1.52h1.6V2.1H36.7L35.06,6.31H34V5.75h.64Z"/></g></g></svg>