<svg xmlns="http://www.w3.org/2000/svg" viewBox="0 0 120 112.29"><defs><style>.cls-1{fill:#fdd800;}.cls-2{fill:#010101;}</style></defs><title>logo600</title><g id="Layer_2" data-name="Layer 2"><g id="Layer_1-2" data-name="Layer 1"><g id="NS_LOGO" data-name="NS LOGO"><rect class="cls-1" x="3.48" y="3.48" width="113.04" height="105.38"/><path class="cls-2" d="M120,112.29H0L.05,0,120,.05ZM3.46,108.84l113,0,0-105.38-113,0Z"/><path class="cls-2" d="M60.13,90.43A2.23,2.23,0,0,0,58.74,90H57.23v3.13h1.19c1.47,0,2.21-.53,2.21-1.58A1.37,1.37,0,0,0,60.13,90.43Zm11.09,4.22h2.32l-1.12-4ZM43.48,90a3.44,3.44,0,0,0-2.61,1.15,4.83,4.83,0,0,0-1.07,3.38,4.54,4.54,0,0,0,1.06,3.16,3.35,3.35,0,0,0,2.62,1.18,3.44,3.44,0,0,0,2.62-1.15,4.8,4.8,0,0,0,1.08-3.35,4.7,4.7,0,0,0-1-3.16A3.31,3.31,0,0,0,43.48,90ZM7.32,84.22v20.4l105.34,0V84.27Zm13.36,16.09a4,4,0,0,1-2.73,1,3.14,3.14,0,0,1-2.71-1.3v1.14H13V96.58h2.27a2.56,2.56,0,0,0,.65,1.85,2,2,0,0,0,1.4.59,1.41,1.41,0,0,0,1.05-.43,1.45,1.45,0,0,0,0-2,5.88,5.88,0,0,0-1.51-1,11.91,11.91,0,0,1-3.15-2,3.19,3.19,0,0,1-.83-2.31A3.43,3.43,0,0,1,14,88.59a3.72,3.72,0,0,1,2.5-1,2.82,2.82,0,0,1,2.46,1.24v-1.1h2.27v4.06H18.91a2.3,2.3,0,0,0-.64-1.46A1.8,1.8,0,0,0,17,89.86a1.47,1.47,0,0,0-.94.3.93.93,0,0,0-.39.78,1.21,1.21,0,0,0,.32.78,6.15,6.15,0,0,0,1.86,1A15,15,0,0,1,20.12,94a3.77,3.77,0,0,1,1.25,1.38,4.07,4.07,0,0,1,.47,2A3.74,3.74,0,0,1,20.68,100.31ZM35,93.15H32.7V90H30.64v8.86h2v2.26h-7.5V98.88h2V90h-2v3.11h-2.3V87.77H35Zm14,6.17a7.33,7.33,0,0,1-5.44,2A7.18,7.18,0,0,1,38,99.26a6.84,6.84,0,0,1-1.92-4.82,6.65,6.65,0,0,1,2-4.87,7.26,7.26,0,0,1,5.46-2,7.33,7.33,0,0,1,5.45,2,7,7,0,0,1,0,9.75Zm30.67,1.85H73V98.91h1.71l-.63-2.3H70.61L69.9,98.9h1.79v2.26H61.78l-3-5.86H57.23v3.6H58.9v2.26h-7V98.9h1.83V90H51.91V87.78H60a4.17,4.17,0,0,1,3.28,1.14,3.83,3.83,0,0,1,1,2.61A3.46,3.46,0,0,1,62,94.86l2.17,4h3.3L70,90.05H68.25V87.79H77v2.26H75.19L78,98.91h1.6Zm14-2.89A6.05,6.05,0,0,1,91,100.52a8.45,8.45,0,0,1-3.77.82,7.54,7.54,0,0,1-5.56-2,6.69,6.69,0,0,1-1.94-4.93,7,7,0,0,1,1-3.67,6.18,6.18,0,0,1,2.59-2.4,7.78,7.78,0,0,1,3.52-.81A6.25,6.25,0,0,1,91,88.89V87.8h2.27v4.75H91a3.34,3.34,0,0,0-1.42-1.9A4.05,4.05,0,0,0,87.34,90a3.68,3.68,0,0,0-2.73,1.13,4.22,4.22,0,0,0-1.12,3.13,4.85,4.85,0,0,0,1.14,3.48,3.7,3.7,0,0,0,2.79,1.2,3.3,3.3,0,0,0,2-.58,3,3,0,0,0,1.1-1.64H88.18V94.42h6.27A7.26,7.26,0,0,1,93.57,98.28ZM107.12,92h-2.56v-2h-4.14v3.09h3.35v2.26h-3.35v3.51h4.15v-2h2.55v4.26H95.32V98.92h1.61V90.06h-1.6V87.8h11.79Z"/><path class="cls-2" d="M7.77,80.45v-2.2H9.52V69.6H7.78V67.39h5.49l4.8,8.15V69.6h-1.7V67.39h5.86V69.6H20.41v11H17.49l-5.63-9.68v7.38H13.5v2.2Z"/><path class="cls-2" d="M35.49,78.26v2.2H29.06v-2.2h1.68L30.12,76H26.73L26,78.26h1.75v2.2H22V78.25h1.62l2.55-8.66H24.42V67.39H33v2.21H31.19l2.74,8.65ZM29.58,74.1l-1.09-3.94-1.17,3.93Z"/><path class="cls-2" d="M37.73,80.47V78.26h2V69.61h-2v3H35.49V67.4H47.34v5.25H45.12v-3h-2v8.65h2v2.21Z"/><path class="cls-2" d="M48.53,80.47v-2.2h2V69.61h-2v-2.2h7.38v2.21h-2v8.65h2v2.2Z"/><path class="cls-2" d="M64,67.2a7.2,7.2,0,0,1,5.33,2,6.83,6.83,0,0,1,0,9.53,7.19,7.19,0,0,1-5.33,2,7,7,0,0,1-5.38-2,6.66,6.66,0,0,1-1.87-4.71,6.52,6.52,0,0,1,1.93-4.76A7.18,7.18,0,0,1,64,67.2Zm0,2.39a3.36,3.36,0,0,0-2.55,1.13A4.67,4.67,0,0,0,60.37,74a4.5,4.5,0,0,0,1,3.09,3.44,3.44,0,0,0,5.12,0,5.39,5.39,0,0,0,0-6.35A3.26,3.26,0,0,0,64,69.59Z"/><path class="cls-2" d="M71.64,80.48v-2.2h1.74V69.62H71.65v-2.2h5.49l4.8,8.15V69.63H80.24V67.42h5.86v2.21H84.27v11H81.36l-5.64-9.69v7.39h1.65v2.2Z"/><path class="cls-2" d="M99.32,78.29v2.2H92.89v-2.2h1.67L93.94,76H90.55l-.7,2.25H91.6v2.2H85.81V78.28h1.62L90,69.63H88.24V67.42h8.53v2.21H95l2.73,8.66Zm-5.91-4.17-1.09-3.93-1.18,3.93Z"/><path class="cls-2" d="M100.53,80.49v-2.2h1.87V69.64h-1.87V67.43h7.17v2.21H105.8v8.65h3.86v-4h2.55V80.5Z"/></g></g></g></svg>