<svg xmlns="http://www.w3.org/2000/svg" xmlns:xlink="http://www.w3.org/1999/xlink" viewBox="0 0 77.95 29.92"><defs><style>.cls-1,.cls-2{fill:none;}.cls-1{clip-rule:evenodd;}.cls-3{clip-path:url(#clip-path);}.cls-4{clip-path:url(#clip-path-2);}.cls-5{fill:#fefefe;}.cls-6{clip-path:url(#clip-path-3);}.cls-7{clip-path:url(#clip-path-5);}.cls-8{isolation:isolate;}.cls-9{clip-path:url(#clip-path-7);}.cls-10{clip-path:url(#clip-path-8);}.cls-11{clip-path:url(#clip-path-10);}.cls-12{clip-path:url(#clip-path-12);}.cls-13{clip-path:url(#clip-path-13);}.cls-14{clip-path:url(#clip-path-15);}.cls-15{clip-path:url(#clip-path-17);}.cls-16{clip-path:url(#clip-path-19);}.cls-17{clip-path:url(#clip-path-21);}.cls-18{clip-path:url(#clip-path-23);}.cls-19{clip-path:url(#clip-path-24);}</style><clipPath id="clip-path" transform="translate(-644 -30.08)"><path class="cls-1" d="M657.4,44.85a2.2,2.2,0,0,0-1.9-.85,4.45,4.45,0,0,0-2.32.71v-.06a.49.49,0,0,0-.49-.52h-1.51a.63.63,0,0,0-.59.54l-1.6,9.7v.11a.48.48,0,0,0,.47.52h1.6a.66.66,0,0,0,.6-.56s1.07-6.5,1.22-7.39a4.09,4.09,0,0,1,1.53-.55c.68,0,.8.18.8.69a5.31,5.31,0,0,1-.08.87s-1,6.31-1,6.31v.11a.48.48,0,0,0,.47.52h1.6a.66.66,0,0,0,.6-.56l1-6.3.08-1.1V46.9a4.34,4.34,0,0,1,1.57-.4c.73,0,.85.22.85.75l-.09.82-1,6.3v.11a.48.48,0,0,0,.47.52h1.6a.66.66,0,0,0,.6-.56l1-6.31a7.77,7.77,0,0,0,.11-1.22c0-1.88-.92-2.91-2.59-2.91a5.36,5.36,0,0,0-3,.85"/></clipPath><clipPath id="clip-path-2" transform="translate(-644 -30.08)"><rect class="cls-2" width="728" height="90"/></clipPath><clipPath id="clip-path-3" transform="translate(-644 -30.08)"><path class="cls-1" d="M691.8,45a.64.64,0,0,0-.56.43l-2.31,6.79c-.1-1.32-.26-6.31-.26-6.31-.06-.77-.36-.9-1-.9h-1.24a1.14,1.14,0,0,0-1.31.85s-1.92,5.07-2.49,6.35c0-1.62.15-6.71.15-6.71a.46.46,0,0,0-.46-.5h-1.65a.63.63,0,0,0-.62.58l.18,7.81c0,1,.26,1.61,1.51,1.61h.48a2.14,2.14,0,0,0,2.11-1.43l2.14-4.72c.07.88.39,4.66.39,4.66A1.44,1.44,0,0,0,688.45,55h.48c1.21,0,1.63-.52,2-1.55l3-7.82,0,0,0-.18a.47.47,0,0,0-.5-.48Z"/></clipPath><clipPath id="clip-path-5" transform="translate(-644 -30.08)"><rect class="cls-2" x="699.1" y="44.04" width="7.84" height="10.96"/></clipPath><clipPath id="clip-path-7" transform="translate(-644 -30.08)"><rect class="cls-2" x="699" y="44" width="8" height="11"/></clipPath><clipPath id="clip-path-8" transform="translate(-644 -30.08)"><path class="cls-1" d="M699.47,48.64l-.29,1.69-.08,1a3.42,3.42,0,0,0,3.44,3.7,9.78,9.78,0,0,0,2.29-.24.65.65,0,0,0,.56-.64l.21-1.2v-.07a.42.42,0,0,0-.44-.42h0a16,16,0,0,1-2.24.13c-.6,0-1.15-.16-1.15-1.28a4.07,4.07,0,0,1,.09-.87l.29-1.7c.25-1.46.89-2.23,1.85-2.23a14.13,14.13,0,0,1,2.16.13h.07a.52.52,0,0,0,.53-.43l.2-1.2v0l0-.23a.5.5,0,0,0-.45-.51,8.15,8.15,0,0,0-2.19-.24c-2.71,0-4.28,1.5-4.82,4.6"/></clipPath><clipPath id="clip-path-10" transform="translate(-644 -30.08)"><rect class="cls-2" x="707.02" y="41.08" width="9.93" height="13.89"/></clipPath><clipPath id="clip-path-12" transform="translate(-644 -30.08)"><rect class="cls-2" x="707" y="41" width="10" height="14"/></clipPath><clipPath id="clip-path-13" transform="translate(-644 -30.08)"><path class="cls-1" d="M709.94,41.08a.64.64,0,0,0-.62.52L707,54.37v.11a.48.48,0,0,0,.49.49h1.66a.66.66,0,0,0,.63-.53l1.36-7.51a8.31,8.31,0,0,1,1.58-.14c1.19,0,1.42.33,1.42.93l-.07.62-1.09,6v.11a.48.48,0,0,0,.49.49h1.66a.68.68,0,0,0,.64-.53l1.08-6v0l.08-.77c0-2-1.47-3.2-3.84-3.2a10.12,10.12,0,0,0-1.53.14c.08-.45.31-1.63.31-1.63.32-1.8-1.95-1.88-1.95-1.88"/></clipPath><clipPath id="clip-path-15" transform="translate(-644 -30.08)"><path class="cls-1" d="M665.31,46.77,664,54.42v.1a.45.45,0,0,0,.44.48h1.49a.62.62,0,0,0,.57-.51l1.5-8.94v-.07a.46.46,0,0,0-.46-.48,2.16,2.16,0,0,0-2.23,1.77"/></clipPath><clipPath id="clip-path-17" transform="translate(-644 -30.08)"><path class="cls-1" d="M695.31,46.77,694,54.42v.1a.45.45,0,0,0,.44.48h1.49a.62.62,0,0,0,.57-.51l1.5-8.94v-.07a.46.46,0,0,0-.46-.48,2.16,2.16,0,0,0-2.23,1.77"/></clipPath><clipPath id="clip-path-19" transform="translate(-644 -30.08)"><path class="cls-1" d="M678.52,41a2.17,2.17,0,0,0-2.42,1.92l-.26,1.55a11.07,11.07,0,0,0-1.46-.11c-3,0-4.56,1.42-5.07,4.6l-.22,1.36-.09,1A3.35,3.35,0,0,0,672.63,55a15,15,0,0,0,3.56-.47c.46-.11.62-.26.69-.62L679,41.58v-.07a.47.47,0,0,0-.48-.5m-4.06,11.58a10.68,10.68,0,0,1-1.51.1c-1,0-1.32-.34-1.32-1.24a6.43,6.43,0,0,1,.1-1.06L672,49c.29-1.77.82-2.37,2.1-2.37a12.92,12.92,0,0,1,1.4.1c-.07.36-1,5.57-1,5.83"/></clipPath><clipPath id="clip-path-21" transform="translate(-644 -30.08)"><rect class="cls-2" x="666.01" y="35.08" width="30.95" height="8.9"/></clipPath><clipPath id="clip-path-23" transform="translate(-644 -30.08)"><rect class="cls-2" x="666" y="35" width="31" height="9"/></clipPath><clipPath id="clip-path-24" transform="translate(-644 -30.08)"><path class="cls-1" d="M683.44,35.2c-8.09-.86-15.31,2.94-17.43,8.77a3.19,3.19,0,0,1,1.32-1.13,2.31,2.31,0,0,1,2.48,0c3.23-3.83,9.05-6.05,15.41-5.38A19,19,0,0,1,697,42.94c-2.52-4-7.51-7.1-13.52-7.74"/></clipPath></defs><title>logoM</title><g id="Layer_2" data-name="Layer 2"><g id="Layer_1-2" data-name="Layer 1"><g class="cls-3"><g class="cls-4"><rect class="cls-5" y="8.92" width="24" height="21"/></g></g><g class="cls-6"><g class="cls-4"><rect class="cls-5" x="31" y="9.92" width="24" height="20"/></g></g><g class="cls-7"><g class="cls-4"><g class="cls-8"><g class="cls-9"><g class="cls-10"><g class="cls-9"><rect class="cls-5" x="50.1" y="8.96" width="17.84" height="20.96"/></g></g></g></g></g></g><g class="cls-11"><g class="cls-4"><g class="cls-8"><g class="cls-12"><g class="cls-13"><g class="cls-12"><rect class="cls-5" x="58.02" y="6.01" width="19.93" height="23.89"/></g></g></g></g></g></g><g class="cls-14"><g class="cls-4"><rect class="cls-5" x="15" y="9.92" width="14" height="20"/></g></g><g class="cls-15"><g class="cls-4"><rect class="cls-5" x="45" y="9.92" width="14" height="20"/></g></g><g class="cls-16"><g class="cls-4"><rect class="cls-5" x="20" y="5.92" width="20" height="24"/></g></g><g class="cls-17"><g class="cls-4"><g class="cls-8"><g class="cls-18"><g class="cls-19"><g class="cls-18"><rect class="cls-5" x="17.01" width="40.95" height="18.9"/></g></g></g></g></g></g></g></g></svg>