<svg xmlns="http://www.w3.org/2000/svg" xmlns:xlink="http://www.w3.org/1999/xlink" viewBox="0 0 111 51.46"><defs><style>.cls-1{fill:none;}.cls-2{clip-path:url(#clip-path);}.cls-3{fill:#fff;}</style><clipPath id="clip-path" transform="translate(0 -2.54)"><rect class="cls-1" x="0.89" width="22" height="20"/></clipPath></defs><title>text4</title><g id="Layer_2" data-name="Layer 2"><g id="Layer_1-2" data-name="Layer 1"><g class="cls-2"><path class="cls-3" d="M5.09,2.54a3.69,3.69,0,0,1,3.84,3.8,3.68,3.68,0,0,1-3.84,3.79A3.68,3.68,0,0,1,1.26,6.34,3.69,3.69,0,0,1,5.09,2.54Zm0,1.39A2.22,2.22,0,0,0,2.87,6.34a2.24,2.24,0,1,0,4.46,0A2.23,2.23,0,0,0,5.09,3.93Z" transform="translate(0 -2.54)"/><path class="cls-3" d="M12.74,7.37H11.59V10H10V2.66h3.43A2.29,2.29,0,0,1,15.93,5a2.11,2.11,0,0,1-1.61,2.18L16,10H14.18ZM13.23,4H11.59V6h1.64a1,1,0,1,0,0-2Z" transform="translate(0 -2.54)"/></g><path class="cls-3" d="M4.8,48.33,3.28,54H2.1L0,46.66H1.23l1.52,5.89,1.61-5.89h.89l1.59,5.89,1.52-5.89H9.59L7.5,54H6.33Z" transform="translate(0 -2.54)"/><path class="cls-3" d="M14.67,52.48H11.08L10.48,54H9.27l2.92-7.34h1.37L16.48,54H15.27Zm-3.27-1h3l-1.49-3.88Z" transform="translate(0 -2.54)"/><path class="cls-3" d="M19.83,51.17H18.46V54h-1.1V46.66h3.09a2.18,2.18,0,0,1,2.35,2.26A2,2,0,0,1,21,51.06L22.86,54H21.58Zm.48-3.54H18.46V50.2h1.85a1.29,1.29,0,1,0,0-2.57Z" transform="translate(0 -2.54)"/><path class="cls-3" d="M26.63,51.17H25.26V54h-1.1V46.66h3.09a2.19,2.19,0,0,1,2.35,2.26,2,2,0,0,1-1.82,2.14L29.66,54H28.38Zm.47-3.54H25.26V50.2H27.1a1.29,1.29,0,1,0,0-2.57Z" transform="translate(0 -2.54)"/><path class="cls-3" d="M35.6,52.48H32L31.4,54H30.2l2.91-7.34h1.38L37.4,54H36.19Zm-3.28-1h3l-1.49-3.88Z" transform="translate(0 -2.54)"/><path class="cls-3" d="M39.38,48.37V54h-1.1V46.66h1.13l4,5.5v-5.5h1.1V54H43.44Z" transform="translate(0 -2.54)"/><path class="cls-3" d="M47.93,47.63H45.65v-1h5.64v1H49V54h-1.1Z" transform="translate(0 -2.54)"/><path class="cls-3" d="M54.55,50.93l-2.87-4.27h1.26l2.16,3.28,2.13-3.28h1.28l-2.86,4.27V54h-1.1Z" transform="translate(0 -2.54)"/><path class="cls-3" d="M2.68,33.49A8.24,8.24,0,0,0,9,36.38c3.13,0,5-1.49,5-3.87s-2-3.57-5.34-3.57c-.92,0-2.11,0-2.45,0V25.88c.38,0,1.57,0,2.45,0,2.76,0,5-1,5-3.36S11.48,19,8.8,19a7.93,7.93,0,0,0-5.92,2.62l-1.8-2.11A10.22,10.22,0,0,1,9.1,16c4.63,0,8,2.28,8,6.09,0,3.16-2.69,4.83-4.93,5.23a5.74,5.74,0,0,1,5.27,5.55c0,3.8-3.16,6.56-8.3,6.56-3.94,0-6.86-1.67-8.33-3.71Z" transform="translate(0 -2.54)"/><path class="cls-3" d="M36.92,29.51,28,16.32H32l6.67,10.14,6.59-10.14h3.94L40.31,29.51V39H36.92Z" transform="translate(0 -2.54)"/><path class="cls-3" d="M51.88,16.32H67.11v3H55.28V26H66.87v3H55.28V36H67.11v3H51.88Z" transform="translate(0 -2.54)"/><path class="cls-3" d="M85.7,34.31H74.59L72.75,39H69l9-22.68h4.25l9,22.68H87.54Zm-10.13-3h9.15l-4.59-12Z" transform="translate(0 -2.54)"/><path class="cls-3" d="M101.65,30.26H97.4V39H94V16.32h9.55c4.32,0,7.28,2.79,7.28,7a6.32,6.32,0,0,1-5.64,6.63L111,39h-3.94Zm1.46-10.94H97.4v8h5.71a4,4,0,1,0,0-7.95Z" transform="translate(0 -2.54)"/></g></g></svg>