<svg xmlns="http://www.w3.org/2000/svg" xmlns:xlink="http://www.w3.org/1999/xlink" viewBox="0 0 76.94 50.59"><defs><style>.cls-1{fill:none;}.cls-2{clip-path:url(#clip-path);}.cls-3{fill:#fff;}</style><clipPath id="clip-path" transform="translate(-0.51 -2.54)"><rect class="cls-1" width="44" height="20"/></clipPath></defs><title>text3</title><g id="Layer_2" data-name="Layer 2"><g id="Layer_1-2" data-name="Layer 1"><g class="cls-2"><path class="cls-3" d="M.73,2.66H2.31V7A1.57,1.57,0,0,0,4,8.75,1.56,1.56,0,0,0,5.7,7V2.66H7.28v4.4c0,1.83-1,3.07-3.26,3.07S.73,8.88.73,7.07Z" transform="translate(-0.51 -2.54)"/><path class="cls-3" d="M8.73,2.66h3.44A2.29,2.29,0,0,1,14.63,5a2.28,2.28,0,0,1-2.46,2.34H10.3V10H8.73ZM12,4H10.3V6H12a1,1,0,1,0,0-2Z" transform="translate(-0.51 -2.54)"/><path class="cls-3" d="M20.11,4H18V2.66h5.86V4H21.68v6H20.11Z" transform="translate(-0.51 -2.54)"/><path class="cls-3" d="M28,2.54a3.69,3.69,0,0,1,3.84,3.8A3.69,3.69,0,0,1,28,10.13a3.68,3.68,0,0,1-3.83-3.79A3.69,3.69,0,0,1,28,2.54Zm0,1.39a2.22,2.22,0,0,0-2.22,2.41,2.23,2.23,0,1,0,4.45,0A2.22,2.22,0,0,0,28,3.93Z" transform="translate(-0.51 -2.54)"/></g><path class="cls-3" d="M.51,49.34a3.67,3.67,0,0,1,3.76-3.8,3.3,3.3,0,0,1,2.91,1.55l-.93.5a2.32,2.32,0,0,0-2-1.07,2.82,2.82,0,0,0,0,5.63,2.34,2.34,0,0,0,2-1.06l.93.49a3.32,3.32,0,0,1-2.91,1.55A3.67,3.67,0,0,1,.51,49.34Z" transform="translate(-0.51 -2.54)"/><path class="cls-3" d="M12.89,51.48H9.29L8.7,53H7.49l2.92-7.34h1.37L14.7,53H13.49Zm-3.28-1h3l-1.48-3.88Z" transform="translate(-0.51 -2.54)"/><path class="cls-3" d="M15.63,51.12a3.1,3.1,0,0,0,2.31,1c1.19,0,1.61-.6,1.61-1.13,0-.77-.84-1-1.77-1.23-1.18-.31-2.55-.65-2.55-2.15,0-1.21,1.07-2.09,2.6-2.09a3.58,3.58,0,0,1,2.67,1l-.63.81a2.84,2.84,0,0,0-2.13-.86c-.81,0-1.37.42-1.37,1s.79.86,1.7,1.1c1.2.31,2.6.69,2.6,2.25,0,1.14-.79,2.21-2.77,2.21A3.78,3.78,0,0,1,15,52Z" transform="translate(-0.51 -2.54)"/><path class="cls-3" d="M27.1,49.72H23V53h-1.1V45.66H23v3.08H27.1V45.66h1.1V53H27.1Z" transform="translate(-0.51 -2.54)"/><path class="cls-3" d="M29.83,45.66h3.44a1.86,1.86,0,0,1,2.07,1.87,1.66,1.66,0,0,1-1.27,1.69A1.81,1.81,0,0,1,35.49,51a1.92,1.92,0,0,1-2.13,2H29.83Zm3.24,3.12a1.08,1.08,0,1,0,0-2.15H30.93v2.15Zm0,3.25a1.1,1.1,0,0,0,1.23-1.15,1.12,1.12,0,0,0-1.23-1.14H30.93V52Z" transform="translate(-0.51 -2.54)"/><path class="cls-3" d="M41.49,51.48h-3.6L37.3,53H36.09L39,45.66h1.37L43.3,53H42.09Zm-3.28-1h3l-1.48-3.88Z" transform="translate(-0.51 -2.54)"/><path class="cls-3" d="M43.48,49.34a3.67,3.67,0,0,1,3.76-3.8,3.31,3.31,0,0,1,2.92,1.55l-.94.5a2.31,2.31,0,0,0-2-1.07,2.82,2.82,0,0,0,0,5.63,2.33,2.33,0,0,0,2-1.06l.94.49a3.32,3.32,0,0,1-2.92,1.55A3.67,3.67,0,0,1,43.48,49.34Z" transform="translate(-0.51 -2.54)"/><path class="cls-3" d="M53.05,49.81l-.69.78V53h-1.1V45.66h1.1V49.3l3.07-3.64h1.36l-3,3.48L57,53H55.67Z" transform="translate(-0.51 -2.54)"/><path class="cls-3" d="M17.54,36.81a6.31,6.31,0,0,1-4.69,1.63,7.28,7.28,0,0,1-3.43-.85,6.11,6.11,0,0,0-2.69-.68,9.34,9.34,0,0,0-4,1.33L1.56,35.79c2.69-1.19,4.29-3,4.29-4.93a4.07,4.07,0,0,0-.48-2H.68V26.78H3.91l0,0C2.75,25.39,1.6,24,1.6,21.78c0-3.91,3.7-6.8,7.82-6.8,3.26,0,5.84,1.36,7.14,3.88l-2.72,1.63a4.46,4.46,0,0,0-4.08-2.68c-2.42,0-4.49,1.53-4.49,4A6.28,6.28,0,0,0,7.07,26l.61.82h5.07v2.11h-4a6.52,6.52,0,0,1,.13,1.22A5.16,5.16,0,0,1,6.39,34.4a6,6,0,0,1,1.77-.28,5.73,5.73,0,0,1,2.58.68,5.18,5.18,0,0,0,2.25.62,4.2,4.2,0,0,0,3.16-1.33Z" transform="translate(-0.51 -2.54)"/><path class="cls-3" d="M29.71,32.56H18.94V29.77l9.52-14.45h4.65V29.57h3.13v3H33.11V38h-3.4Zm-7.41-3h7.41V18.42Z" transform="translate(-0.51 -2.54)"/><path class="cls-3" d="M47.7,15c6.29,0,8.87,6.09,8.87,11.7S54,38.41,47.7,38.41s-8.87-6.12-8.87-11.73S41.41,15,47.7,15Zm0,3c-4,0-5.41,4.25-5.41,8.67s1.4,8.7,5.41,8.7,5.41-4.28,5.41-8.7S51.71,18,47.7,18Z" transform="translate(-0.51 -2.54)"/><path class="cls-3" d="M68.58,15c6.29,0,8.87,6.09,8.87,11.7s-2.58,11.73-8.87,11.73S59.7,32.29,59.7,26.68,62.29,15,68.58,15Zm0,3c-4,0-5.41,4.25-5.41,8.67s1.39,8.7,5.41,8.7S74,31.1,74,26.68,72.59,18,68.58,18Z" transform="translate(-0.51 -2.54)"/></g></g></svg>