<svg xmlns="http://www.w3.org/2000/svg" xmlns:xlink="http://www.w3.org/1999/xlink" viewBox="0 0 229.22 57.02"><defs><style>.cls-1{fill:none;}.cls-2{clip-path:url(#clip-path);}.cls-3{fill:#fff;}</style><clipPath id="clip-path" transform="translate(-0.73 -2.55)"><rect class="cls-1" width="124" height="20"/></clipPath></defs><title>text5</title><g id="Layer_2" data-name="Layer 2"><g id="Layer_1-2" data-name="Layer 1"><g class="cls-2"><path class="cls-3" d="M.73,2.66H4.16A2.29,2.29,0,0,1,6.62,5,2.28,2.28,0,0,1,4.16,7.37H2.29V10H.73ZM4,4H2.29V6H4A1,1,0,1,0,4,4Z" transform="translate(-0.73 -2.55)"/><path class="cls-3" d="M7.59,2.66H9.15v6h3.1V10H7.59Z" transform="translate(-0.73 -2.55)"/><path class="cls-3" d="M13.09,2.66h1.58V7a1.58,1.58,0,0,0,1.71,1.73A1.56,1.56,0,0,0,18.06,7V2.66h1.59v4.4c0,1.83-1,3.07-3.27,3.07s-3.29-1.25-3.29-3.06Z" transform="translate(-0.73 -2.55)"/><path class="cls-3" d="M21.45,7.78a3.22,3.22,0,0,0,2.33,1c.86,0,1.28-.41,1.28-.83s-.64-.73-1.49-.93c-1.2-.28-2.74-.61-2.74-2.25,0-1.22,1.06-2.21,2.79-2.21a4.06,4.06,0,0,1,2.86,1l-.87,1.14a3.14,3.14,0,0,0-2.1-.8c-.71,0-1.08.3-1.08.74s.62.65,1.46.85c1.21.28,2.75.64,2.75,2.27,0,1.34-.95,2.35-2.93,2.35A4.26,4.26,0,0,1,20.59,9Z" transform="translate(-0.73 -2.55)"/><path class="cls-3" d="M35.19,8.73H31.91L31.45,10H29.73l2.84-7.34h2L37.36,10H35.65ZM32.33,7.38h2.43L33.55,4Z" transform="translate(-0.73 -2.55)"/><path class="cls-3" d="M40.85,2.66h5.2V4H42.42V5.6H46V6.94H42.42V10H40.85Z" transform="translate(-0.73 -2.55)"/><path class="cls-3" d="M49.84,7.37H48.7V10H47.14V2.66h3.43A2.28,2.28,0,0,1,53,5a2.11,2.11,0,0,1-1.6,2.18L53.08,10h-1.8ZM50.34,4H48.7V6h1.64a1,1,0,1,0,0-2Z" transform="translate(-0.73 -2.55)"/><path class="cls-3" d="M54.21,2.66H59.4V4H55.77V5.6h3.55V6.94H55.77V8.65H59.4V10H54.21Z" transform="translate(-0.73 -2.55)"/><path class="cls-3" d="M60.62,2.66h5.19V4H62.18V5.6h3.56V6.94H62.18V8.65h3.63V10H60.62Z" transform="translate(-0.73 -2.55)"/></g><path class="cls-3" d="M4.49,50.54a3.8,3.8,0,0,1,0,7.59,3.8,3.8,0,0,1,0-7.59Zm0,1a2.83,2.83,0,1,0,2.57,2.82A2.57,2.57,0,0,0,4.49,51.52Z" transform="translate(-0.73 -2.55)"/><path class="cls-3" d="M10.62,52.37V58H9.52V50.66h1.13l4,5.5v-5.5h1.1V58H14.68Z" transform="translate(-0.73 -2.55)"/><path class="cls-3" d="M20.39,56.12a3.09,3.09,0,0,0,2.31,1c1.19,0,1.6-.6,1.6-1.13,0-.77-.83-1-1.77-1.23-1.17-.31-2.54-.65-2.54-2.15,0-1.21,1.07-2.09,2.6-2.09a3.6,3.6,0,0,1,2.67,1l-.64.81a2.84,2.84,0,0,0-2.12-.86c-.81,0-1.37.42-1.37,1s.79.86,1.7,1.1c1.2.31,2.6.69,2.6,2.25,0,1.14-.8,2.21-2.77,2.21A3.78,3.78,0,0,1,19.76,57Z" transform="translate(-0.73 -2.55)"/><path class="cls-3" d="M26.7,50.66h4.93v1H27.8v2.15h3.75v1H27.8V57h3.83v1H26.7Z" transform="translate(-0.73 -2.55)"/><path class="cls-3" d="M33,50.66h1.1V57h3.33v1H33Z" transform="translate(-0.73 -2.55)"/><path class="cls-3" d="M38.65,50.66h4.93v1H39.75v2.15H43.5v1H39.75V57h3.83v1H38.65Z" transform="translate(-0.73 -2.55)"/><path class="cls-3" d="M44.64,54.34a3.68,3.68,0,0,1,3.77-3.8,3.3,3.3,0,0,1,2.91,1.55l-.93.5a2.34,2.34,0,0,0-2-1.07,2.82,2.82,0,0,0,0,5.63,2.35,2.35,0,0,0,2-1.06l.93.49a3.32,3.32,0,0,1-2.91,1.55A3.68,3.68,0,0,1,44.64,54.34Z" transform="translate(-0.73 -2.55)"/><path class="cls-3" d="M54.21,51.63H51.94v-1h5.64v1H55.31V58h-1.1Z" transform="translate(-0.73 -2.55)"/><path class="cls-3" d="M58.72,50.66h4.93v1H59.82v2.15h3.75v1H59.82V57h3.83v1H58.72Z" transform="translate(-0.73 -2.55)"/><path class="cls-3" d="M65,50.66h2.61a3.67,3.67,0,1,1,0,7.34H65ZM67.64,57a2.7,2.7,0,0,0,0-5.4H66.13V57Z" transform="translate(-0.73 -2.55)"/><path class="cls-3" d="M81.93,52.17,79.56,58h-.47l-2.37-5.83V58h-1.1V50.66h1.57l2.14,5.27,2.13-5.27H83V58h-1.1Z" transform="translate(-0.73 -2.55)"/><path class="cls-3" d="M88.05,50.54a3.8,3.8,0,1,1-3.7,3.8A3.61,3.61,0,0,1,88.05,50.54Zm0,1a2.83,2.83,0,1,0,2.56,2.82A2.56,2.56,0,0,0,88.05,51.52Z" transform="translate(-0.73 -2.55)"/><path class="cls-3" d="M93.08,50.66h2.61a3.67,3.67,0,1,1,0,7.34H93.08ZM95.69,57a2.7,2.7,0,0,0,0-5.4H94.17V57Z" transform="translate(-0.73 -2.55)"/><path class="cls-3" d="M100.83,50.66h4.93v1h-3.83v2.15h3.75v1h-3.75V57h3.83v1h-4.93Z" transform="translate(-0.73 -2.55)"/><path class="cls-3" d="M107.13,50.66h1.1V57h3.34v1h-4.44Z" transform="translate(-0.73 -2.55)"/><path class="cls-3" d="M113,56.12a3.1,3.1,0,0,0,2.31,1c1.19,0,1.61-.6,1.61-1.13,0-.77-.84-1-1.77-1.23-1.18-.31-2.55-.65-2.55-2.15,0-1.21,1.07-2.09,2.6-2.09a3.62,3.62,0,0,1,2.68,1l-.64.81a2.84,2.84,0,0,0-2.13-.86c-.81,0-1.37.42-1.37,1s.79.86,1.7,1.1c1.2.31,2.6.69,2.6,2.25,0,1.14-.79,2.21-2.77,2.21a3.78,3.78,0,0,1-2.9-1.16Z" transform="translate(-0.73 -2.55)"/><path class="cls-3" d="M120.11,52.54l-1,.69-.28-.49,1.11-.56-1.11-.57.28-.49,1,.67,0-1.24h.56l-.07,1.24,1-.67.27.49-1.1.57,1.1.56-.27.49-1-.69.07,1.25h-.56Z" transform="translate(-0.73 -2.55)"/><path class="cls-3" d="M133,54l-.75.5-.2-.35.8-.41-.8-.42.2-.35.75.49,0-.9h.41l0,.9.75-.49.2.35-.79.42.79.41-.2.35-.75-.5,0,.91H133Z" transform="translate(-0.73 -2.55)"/><path class="cls-3" d="M135.26,57.14V54.77h-.64v-.63h.64V53.08H136v1.06h.78v.63H136V57c0,.28.13.48.38.48a.56.56,0,0,0,.39-.16l.18.55a1,1,0,0,1-.75.25A.84.84,0,0,1,135.26,57.14Z" transform="translate(-0.73 -2.55)"/><path class="cls-3" d="M139.26,54a1.9,1.9,0,0,1,1.88,2.09v.17h-3a1.26,1.26,0,0,0,1.31,1.2,1.67,1.67,0,0,0,1.14-.45l.34.47a2.17,2.17,0,0,1-1.55.58,2,2,0,0,1-.07-4.06Zm-1.18,1.75h2.36a1.15,1.15,0,0,0-1.18-1.16A1.19,1.19,0,0,0,138.08,55.79Z" transform="translate(-0.73 -2.55)"/><path class="cls-3" d="M142.05,54.14h.71v.59a1.67,1.67,0,0,1,1.27-.68v.73a.9.9,0,0,0-.25,0,1.4,1.4,0,0,0-1,.56V58h-.71Z" transform="translate(-0.73 -2.55)"/><path class="cls-3" d="M149.44,55.43c0-.45-.2-.75-.67-.75a1.26,1.26,0,0,0-1,.55V58h-.72V55.43c0-.45-.19-.75-.68-.75a1.26,1.26,0,0,0-.94.56V58h-.72V54.14h.72v.54a1.67,1.67,0,0,1,1.25-.64,1,1,0,0,1,1,.72,1.64,1.64,0,0,1,1.31-.72c.71,0,1.09.39,1.09,1.17V58h-.72Z" transform="translate(-0.73 -2.55)"/><path class="cls-3" d="M151.32,57a1.84,1.84,0,0,0,1.29.55c.55,0,.83-.22.83-.55s-.44-.51-.93-.63c-.66-.15-1.43-.32-1.43-1.15,0-.62.53-1.15,1.48-1.15a2.08,2.08,0,0,1,1.47.55l-.32.51a1.53,1.53,0,0,0-1.15-.47c-.48,0-.79.19-.79.5s.42.45.9.56c.67.15,1.47.34,1.47,1.22,0,.67-.54,1.19-1.56,1.19a2.21,2.21,0,0,1-1.61-.6Z" transform="translate(-0.73 -2.55)"/><path class="cls-3" d="M159.5,57.58a1.66,1.66,0,0,1-1.26.52,1.29,1.29,0,0,1-1.35-1.28,1.26,1.26,0,0,1,1.35-1.27,1.59,1.59,0,0,1,1.26.52v-.64c0-.48-.39-.77-.94-.77a1.59,1.59,0,0,0-1.16.51l-.31-.5a2.16,2.16,0,0,1,1.58-.63c.84,0,1.55.37,1.55,1.35V58h-.72Zm0-1.08a1.22,1.22,0,0,0-1-.44.77.77,0,1,0,0,1.53,1.22,1.22,0,0,0,1-.44Z" transform="translate(-0.73 -2.55)"/><path class="cls-3" d="M164,55.53c0-.64-.33-.85-.82-.85a1.39,1.39,0,0,0-1.07.56V58h-.72V54.14h.72v.54a1.86,1.86,0,0,1,1.37-.64,1.11,1.11,0,0,1,1.24,1.25V58H164Z" transform="translate(-0.73 -2.55)"/><path class="cls-3" d="M168.6,57.45a1.63,1.63,0,0,1-1.27.65c-1,0-1.72-.76-1.72-2a1.79,1.79,0,0,1,1.72-2,1.58,1.58,0,0,1,1.27.66v-2h.72V58h-.72Zm0-2.2a1.36,1.36,0,0,0-1.08-.57c-.72,0-1.16.59-1.16,1.39s.44,1.39,1.16,1.39a1.35,1.35,0,0,0,1.08-.56Z" transform="translate(-0.73 -2.55)"/><path class="cls-3" d="M174.26,54a1.7,1.7,0,0,1,1.45.68l-.48.44a1.08,1.08,0,0,0-.94-.48,1.4,1.4,0,0,0,0,2.78,1.11,1.11,0,0,0,.94-.48l.48.44a1.7,1.7,0,0,1-1.45.68,2,2,0,0,1,0-4.06Z" transform="translate(-0.73 -2.55)"/><path class="cls-3" d="M176.26,56.07a2,2,0,1,1,2,2A1.92,1.92,0,0,1,176.26,56.07Zm3.15,0a1.21,1.21,0,1,0-1.2,1.39A1.25,1.25,0,0,0,179.41,56.07Z" transform="translate(-0.73 -2.55)"/><path class="cls-3" d="M183.68,55.53c0-.64-.32-.85-.82-.85a1.35,1.35,0,0,0-1.06.56V58h-.72V54.14h.72v.54a1.82,1.82,0,0,1,1.36-.64,1.11,1.11,0,0,1,1.24,1.25V58h-.72Z" transform="translate(-0.73 -2.55)"/><path class="cls-3" d="M188.3,57.45a1.61,1.61,0,0,1-1.26.65c-1,0-1.73-.76-1.73-2A1.8,1.8,0,0,1,187,54a1.57,1.57,0,0,1,1.26.66v-2H189V58h-.72Zm0-2.2a1.34,1.34,0,0,0-1.07-.57,1.41,1.41,0,0,0,0,2.78,1.33,1.33,0,0,0,1.07-.56Z" transform="translate(-0.73 -2.55)"/><path class="cls-3" d="M190.06,53a.48.48,0,0,1,.47-.47A.47.47,0,0,1,191,53a.46.46,0,0,1-.46.45A.47.47,0,0,1,190.06,53Zm.11,1.1h.72V58h-.72Z" transform="translate(-0.73 -2.55)"/><path class="cls-3" d="M192.18,57.14V54.77h-.64v-.63h.64V53.08h.72v1.06h.78v.63h-.78V57c0,.28.13.48.38.48a.56.56,0,0,0,.39-.16l.18.55a1,1,0,0,1-.75.25A.84.84,0,0,1,192.18,57.14Z" transform="translate(-0.73 -2.55)"/><path class="cls-3" d="M194.37,53a.48.48,0,0,1,.47-.47.47.47,0,0,1,.46.47.46.46,0,0,1-.46.45A.47.47,0,0,1,194.37,53Zm.12,1.1h.72V58h-.72Z" transform="translate(-0.73 -2.55)"/><path class="cls-3" d="M196.11,56.07a2,2,0,1,1,1.95,2A1.92,1.92,0,0,1,196.11,56.07Zm3.15,0a1.21,1.21,0,1,0-1.2,1.39A1.25,1.25,0,0,0,199.26,56.07Z" transform="translate(-0.73 -2.55)"/><path class="cls-3" d="M203.53,55.53c0-.64-.32-.85-.82-.85a1.35,1.35,0,0,0-1.06.56V58h-.72V54.14h.72v.54A1.82,1.82,0,0,1,203,54a1.11,1.11,0,0,1,1.24,1.25V58h-.72Z" transform="translate(-0.73 -2.55)"/><path class="cls-3" d="M205.41,57a1.84,1.84,0,0,0,1.29.55c.55,0,.83-.22.83-.55s-.44-.51-.93-.63c-.66-.15-1.43-.32-1.43-1.15,0-.62.53-1.15,1.48-1.15a2.08,2.08,0,0,1,1.47.55l-.32.51a1.53,1.53,0,0,0-1.15-.47c-.48,0-.79.19-.79.5s.42.45.9.56c.67.15,1.47.34,1.47,1.22,0,.67-.55,1.19-1.56,1.19a2.2,2.2,0,0,1-1.61-.6Z" transform="translate(-0.73 -2.55)"/><path class="cls-3" d="M213.59,57.58a1.69,1.69,0,0,1-1.26.52A1.29,1.29,0,0,1,211,56.82a1.26,1.26,0,0,1,1.35-1.27,1.61,1.61,0,0,1,1.26.52v-.64c0-.48-.39-.77-1-.77a1.58,1.58,0,0,0-1.15.51l-.32-.5a2.2,2.2,0,0,1,1.59-.63c.84,0,1.55.37,1.55,1.35V58h-.72Zm0-1.08a1.22,1.22,0,0,0-1-.44.77.77,0,1,0,0,1.53,1.22,1.22,0,0,0,1-.44Z" transform="translate(-0.73 -2.55)"/><path class="cls-3" d="M215.46,59.47V54.14h.72v.55a1.58,1.58,0,0,1,1.26-.65c1,0,1.72.76,1.72,2s-.71,2-1.72,2a1.55,1.55,0,0,1-1.26-.66v2Zm1.79-4.79a1.32,1.32,0,0,0-1.07.57v1.64a1.35,1.35,0,0,0,1.07.57c.72,0,1.16-.59,1.16-1.39S218,54.68,217.25,54.68Z" transform="translate(-0.73 -2.55)"/><path class="cls-3" d="M220.08,59.47V54.14h.72v.55a1.58,1.58,0,0,1,1.26-.65c1,0,1.72.76,1.72,2s-.71,2-1.72,2a1.55,1.55,0,0,1-1.26-.66v2Zm1.79-4.79a1.32,1.32,0,0,0-1.07.57v1.64a1.35,1.35,0,0,0,1.07.57c.72,0,1.16-.59,1.16-1.39S222.59,54.68,221.87,54.68Z" transform="translate(-0.73 -2.55)"/><path class="cls-3" d="M224.69,52.67h.72V58h-.72Z" transform="translate(-0.73 -2.55)"/><path class="cls-3" d="M226.8,58.93a.54.54,0,0,0,.56-.38l.22-.51L226,54.14h.77l1.21,3,1.2-3H230L228,58.74a1.22,1.22,0,0,1-1.23.83,2.12,2.12,0,0,1-.44-.06l.11-.65A.88.88,0,0,0,226.8,58.93Z" transform="translate(-0.73 -2.55)"/><path class="cls-3" d="M16.74,29.87H4.2V40H.8V17.32H4.2v9.52H16.74V17.32h3.4V40h-3.4Z" transform="translate(-0.73 -2.55)"/><path class="cls-3" d="M26.13,43.94a2.27,2.27,0,0,0,2.38-1.59l.95-2.18L22.69,23.58H26l5.13,12.88,5.13-12.88h3.3L31.43,43.13a5.17,5.17,0,0,1-5.23,3.53,9.32,9.32,0,0,1-1.91-.23l.48-2.76A3.7,3.7,0,0,0,26.13,43.94Z" transform="translate(-0.73 -2.55)"/><path class="cls-3" d="M42.07,17.32h9.56c4.65,0,7.24,3.2,7.24,7s-2.62,7-7.24,7H45.47V40h-3.4Zm9.11,3H45.47v8h5.71a4,4,0,1,0,0-7.95Z" transform="translate(-0.73 -2.55)"/><path class="cls-3" d="M74.17,35.31H63.05L61.21,40H57.48l9-22.68h4.25l9,22.68H76ZM64,32.28h9.14l-4.59-12Z" transform="translate(-0.73 -2.55)"/><path class="cls-3" d="M82.63,34.19a9.58,9.58,0,0,0,7.14,3.19c3.68,0,5-1.87,5-3.5,0-2.38-2.59-3.06-5.48-3.81-3.63-.95-7.85-2-7.85-6.63,0-3.74,3.3-6.46,8-6.46a11.13,11.13,0,0,1,8.27,3.17l-2,2.51A8.85,8.85,0,0,0,89.16,20c-2.51,0-4.25,1.29-4.25,3.2s2.45,2.68,5.27,3.4c3.71,1,8,2.14,8,7,0,3.54-2.45,6.84-8.57,6.84A11.56,11.56,0,0,1,80.7,36.8Z" transform="translate(-0.73 -2.55)"/><path class="cls-3" d="M125.27,35.31H114.15L112.32,40h-3.74l9-22.68h4.25l9,22.68H127.1Zm-10.13-3h9.14l-4.59-12Z" transform="translate(-0.73 -2.55)"/><path class="cls-3" d="M133.57,17.32h9.55c4.66,0,7.24,3.2,7.24,7s-2.62,7-7.24,7H137V40h-3.39Zm9.11,3H137v8h5.72a4,4,0,1,0,0-7.95Z" transform="translate(-0.73 -2.55)"/><path class="cls-3" d="M153.86,17.32h9.56c4.65,0,7.24,3.2,7.24,7s-2.62,7-7.24,7h-6.16V40h-3.4Zm9.11,3h-5.71v8H163a4,4,0,1,0,0-7.95Z" transform="translate(-0.73 -2.55)"/></g></g></svg>