<svg id="Layer_1" data-name="Layer 1" xmlns="http://www.w3.org/2000/svg" xmlns:xlink="http://www.w3.org/1999/xlink" viewBox="0 0 316 50"><defs><style>.cls-1,.cls-4{fill:none;}.cls-2{clip-path:url(#clip-path);}.cls-3{fill:#fff;}.cls-4{stroke:#fff;stroke-width:0.31px;}</style><clipPath id="clip-path"><rect class="cls-1" width="316" height="50"/></clipPath></defs><g class="cls-2"><g class="cls-2"><path class="cls-3" d="M132.39,32.2a2.42,2.42,0,0,0-.75-.35v.91c.92.25,1.31.61,1.31,1.29h0c0,.67-.52,1.1-1.28,1.18v.6h-.62v-.61a3.07,3.07,0,0,1-1.42-.57l.47-.69a2.27,2.27,0,0,0,1,.49v-1c-.87-.23-1.29-.55-1.29-1.27h0c0-.66.5-1.1,1.26-1.18v-.35h.62v.37a2.4,2.4,0,0,1,1.12.44Zm-1.31.41v-.82c-.3,0-.42.18-.42.37v0C130.66,32.37,130.75,32.49,131.08,32.61Zm.56,1v.84c.29,0,.43-.17.43-.38v0C132.07,33.9,132,33.77,131.64,33.65Z"/><path class="cls-3" d="M133.64,36.75l1.1-1a2.19,2.19,0,0,0,1.74.87.9.9,0,0,0,1-.88v0c0-.59-.52-.92-1.41-.92h-.66l-.25-1L136.9,32h-2.83V30.66H139v1.2l-1.83,1.74a2,2,0,0,1,1.94,2v0a2.35,2.35,0,0,1-2.6,2.36A3.49,3.49,0,0,1,133.64,36.75Z"/><path class="cls-3" d="M141.08,37.23a3.56,3.56,0,0,1-.86-2.73v0c0-2.22,1-3.93,3.17-3.93a3.3,3.3,0,0,1,2.25.79l-.83,1.23a2.25,2.25,0,0,0-1.48-.58c-1.08,0-1.4,1-1.45,1.67a2.52,2.52,0,0,1,1.5-.46,2.26,2.26,0,0,1,2.53,2.3v0A2.54,2.54,0,0,1,143.16,38,2.74,2.74,0,0,1,141.08,37.23Zm3.25-1.65v0c0-.61-.47-1.05-1.25-1.05s-1.24.43-1.24,1v0a1.11,1.11,0,0,0,1.26,1.07C143.88,36.64,144.33,36.2,144.33,35.58Z"/><path class="cls-3" d="M151,34.92a2.18,2.18,0,0,1-1.46.49A2.28,2.28,0,0,1,147,33.08v0a2.54,2.54,0,0,1,2.75-2.52,2.62,2.62,0,0,1,2.09.78,3.6,3.6,0,0,1,.85,2.72v0c0,2.34-1.1,3.94-3.15,3.94a3.52,3.52,0,0,1-2.38-.85l.84-1.21a2.36,2.36,0,0,0,1.58.62C150.65,36.56,151,35.54,151,34.92Zm0-1.9v0a1.12,1.12,0,0,0-1.26-1.1A1.08,1.08,0,0,0,148.56,33v0c0,.64.47,1.08,1.26,1.08A1.08,1.08,0,0,0,151.05,33Z"/><path class="cls-3" d="M153.94,30.35h1.56v4l1.84-2h1.88l-2.11,2.18,2.18,3.35h-1.82l-1.41-2.27-.56.59v1.68h-1.56Z"/><path class="cls-3" d="M130,15.49l-1.42.35-.37-1.46,2.33-.7h1.22v8.19H130Z"/><path class="cls-3" d="M135.59,13.74h3.77a2.89,2.89,0,0,1,2.12.72,1.82,1.82,0,0,1,.56,1.38v0A1.91,1.91,0,0,1,141,17.62a2,2,0,0,1,1.52,2v0c0,1.48-1.2,2.23-3,2.23h-3.86Zm4.68,2.4c0-.53-.42-.83-1.18-.83h-1.76V17H139c.79,0,1.29-.26,1.29-.86Zm-.88,2.37h-2.06V20.3h2.12c.79,0,1.27-.28,1.27-.88v0C140.72,18.85,140.31,18.51,139.39,18.51Z"/><path class="cls-3" d="M144.26,13.74h6.13v1.59H146V17h3.84v1.59H146v1.71h4.42v1.59h-6.19Z"/><path class="cls-3" d="M152.33,13.74h3.17a4,4,0,0,1,4.31,4v0a4.07,4.07,0,0,1-4.31,4.07h-3.17Zm1.78,1.61v4.9h1.39A2.31,2.31,0,0,0,158,17.83v0a2.34,2.34,0,0,0-2.45-2.45Z"/><line class="cls-4" x1="152.19" y1="26.35" x2="163.8" y2="26.35"/><line class="cls-4" x1="124.9" y1="26.35" x2="135.27" y2="26.35"/><path class="cls-3" d="M138.55,25h1.88v.5h-1.34V26h1.18v.49h-1.18v1h-.54Z"/><path class="cls-3" d="M140.87,25H142a1,1,0,0,1,.72.26.75.75,0,0,1,.22.56h0a.78.78,0,0,1-.53.77l.6.88h-.64l-.53-.79h-.43v.79h-.54Zm1.1,1.21c.26,0,.41-.14.41-.35h0c0-.23-.16-.35-.42-.35h-.55v.71Z"/><path class="cls-3" d="M143.32,26.21h0a1.32,1.32,0,0,1,2.63,0h0a1.32,1.32,0,0,1-2.63,0Zm2.06,0h0a.75.75,0,0,0-.75-.77.73.73,0,0,0-.74.77h0a.75.75,0,0,0,.75.78A.73.73,0,0,0,145.38,26.21Z"/><path class="cls-3" d="M146.44,25H147l.65,1.05.66-1.05h.58v2.48h-.54V25.83l-.7,1.05h0l-.69-1v1.6h-.53Z"/><path class="cls-3" d="M181.06,32.2a2.42,2.42,0,0,0-.75-.35v.91c.92.25,1.31.61,1.31,1.29h0c0,.67-.52,1.1-1.28,1.18v.6h-.62v-.61a3,3,0,0,1-1.42-.57l.47-.69a2.27,2.27,0,0,0,1,.49v-1c-.87-.23-1.3-.55-1.3-1.27h0c0-.66.51-1.1,1.27-1.18v-.35h.62v.37a2.4,2.4,0,0,1,1.12.44Zm-1.31.41v-.82c-.3,0-.42.18-.42.37v0C179.33,32.37,179.42,32.49,179.75,32.61Zm.56,1v.84c.28,0,.43-.17.43-.38v0C180.74,33.9,180.64,33.77,180.31,33.65Z"/><path class="cls-3" d="M186,36.32H182.5l-.26-1.12,4-4.59h1.34V35h1v1.29h-1v1.56H186ZM186,35V32.78L184.11,35Z"/><path class="cls-3" d="M189.5,35.9v0a1.77,1.77,0,0,1,1.16-1.75,1.72,1.72,0,0,1-.92-1.57v0c0-1.11,1-2,2.54-2s2.54.86,2.54,2v0a1.71,1.71,0,0,1-.92,1.57,1.81,1.81,0,0,1,1.17,1.71v0c0,1.34-1.19,2.12-2.79,2.12S189.5,37.16,189.5,35.9Zm4-.13v0c0-.55-.53-.88-1.25-.88s-1.25.33-1.25.88v0c0,.5.47.9,1.25.9S193.53,36.28,193.53,35.77Zm-.22-3v0a.92.92,0,0,0-1-.84c-.65,0-1,.39-1,.83v0a1,1,0,0,0,2.06,0Z"/><path class="cls-3" d="M196,36.92l1-1.15a2.5,2.5,0,0,0,1.72.79c.74,0,1.21-.36,1.21-1v0c0-.62-.53-1-1.28-1a3,3,0,0,0-1.21.27l-.92-.61.21-3.56h4.43v1.39H198L198,33.3a3.61,3.61,0,0,1,1-.12,2.22,2.22,0,0,1,2.52,2.31v0A2.46,2.46,0,0,1,198.68,38,3.71,3.71,0,0,1,196,36.92Z"/><path class="cls-3" d="M202.74,30.35h1.57v4l1.83-2H208l-2.1,2.18,2.17,3.35h-1.81l-1.42-2.27-.55.59v1.68h-1.57Z"/><path class="cls-3" d="M176.18,20.45l2.7-2.22c1-.83,1.41-1.27,1.41-1.95a1,1,0,0,0-1.09-1.05c-.63,0-1.06.34-1.66,1.09l-1.26-1a3.38,3.38,0,0,1,3-1.69,2.51,2.51,0,0,1,2.8,2.51v0c0,1.36-.7,2-2.14,3.15l-1.32,1h3.54v1.55h-6Z"/><path class="cls-3" d="M185.73,13.74h3.77a2.91,2.91,0,0,1,2.13.72,1.86,1.86,0,0,1,.56,1.38v0a1.91,1.91,0,0,1-1.07,1.76,2,2,0,0,1,1.52,2v0c0,1.48-1.21,2.23-3,2.23h-3.87Zm4.68,2.4c0-.53-.42-.83-1.17-.83h-1.77V17h1.65c.79,0,1.29-.26,1.29-.86Zm-.87,2.37h-2.07V20.3h2.13c.79,0,1.26-.28,1.26-.88v0C190.86,18.85,190.46,18.51,189.54,18.51Z"/><path class="cls-3" d="M194.4,13.74h6.13v1.59h-4.35V17H200v1.59h-3.83v1.71h4.41v1.59H194.4Z"/><path class="cls-3" d="M202.47,13.74h3.17a4,4,0,0,1,4.32,4v0a4.07,4.07,0,0,1-4.32,4.07h-3.17Zm1.79,1.61v4.9h1.38a2.31,2.31,0,0,0,2.45-2.42v0a2.34,2.34,0,0,0-2.45-2.45Z"/><line class="cls-4" x1="201.09" y1="26.35" x2="212.71" y2="26.35"/><line class="cls-4" x1="173.8" y1="26.35" x2="184.18" y2="26.35"/><path class="cls-3" d="M187.45,25h1.89v.5H188V26h1.18v.49H188v1h-.55Z"/><path class="cls-3" d="M189.77,25h1.13a1,1,0,0,1,.73.26.79.79,0,0,1,.21.56h0a.78.78,0,0,1-.53.77l.6.88h-.63l-.53-.79h-.43v.79h-.55Zm1.1,1.21c.26,0,.42-.14.42-.35h0c0-.23-.17-.35-.43-.35h-.54v.71Z"/><path class="cls-3" d="M192.22,26.21h0a1.32,1.32,0,0,1,2.64,0h0a1.29,1.29,0,0,1-1.32,1.29A1.27,1.27,0,0,1,192.22,26.21Zm2.07,0h0a.75.75,0,0,0-.75-.77.74.74,0,0,0-.75.77h0a.75.75,0,0,0,.75.78A.74.74,0,0,0,194.29,26.21Z"/><path class="cls-3" d="M195.34,25h.59l.65,1.05.65-1.05h.59v2.48h-.54V25.83l-.7,1.05h0l-.69-1v1.6h-.53Z"/></g></g></svg>