<svg id="Layer_1" data-name="Layer 1" xmlns="http://www.w3.org/2000/svg" xmlns:xlink="http://www.w3.org/1999/xlink" viewBox="0 0 316 50"><defs><style>.cls-1{fill:none;}.cls-2{clip-path:url(#clip-path);}.cls-3{fill:#fff;}.cls-4{clip-path:url(#clip-path-5);}.cls-5{fill:url(#linear-gradient);}</style><clipPath id="clip-path"><rect class="cls-1" width="316" height="50"/></clipPath><clipPath id="clip-path-5"><rect class="cls-1" x="223.57" y="34.46" width="82.82" height="0.87"/></clipPath><linearGradient id="linear-gradient" y1="50" x2="1" y2="50" gradientTransform="matrix(78.45, 0, 0, -78.45, 225.66, 3957.85)" gradientUnits="userSpaceOnUse"><stop offset="0" stop-color="#95c93d"/><stop offset="0.13" stop-color="#95c93d"/><stop offset="0.37" stop-color="#76bf41"/><stop offset="0.71" stop-color="#41ad49"/><stop offset="1" stop-color="#41ad49"/></linearGradient></defs><g class="cls-2"><g class="cls-2"><polygon class="cls-3" points="307.77 18.96 303.67 18.96 301.13 18.96 297.04 18.96 297.04 21.54 301.13 21.54 301.13 31.33 303.67 31.33 303.67 21.54 307.77 21.54 307.77 18.96"/><polygon class="cls-3" points="244.46 21.54 244.46 18.96 238.47 18.96 236.18 18.96 235.93 18.96 235.93 31.33 236.18 31.33 238.47 31.33 244.46 31.33 244.46 28.75 238.47 28.75 238.47 26.44 243.2 26.44 243.2 23.86 238.47 23.86 238.47 21.54 244.46 21.54"/><g class="cls-2"><path class="cls-3" d="M264.52,28.75h-1.88V21.54h1.88a3.61,3.61,0,0,1,0,7.21m0-9.79H260.1V31.33h4.42a6.19,6.19,0,0,0,0-12.37"/><path class="cls-3" d="M252.68,25.14h-2.51V21.54h2.61a1.8,1.8,0,0,1-.1,3.6m2.61,1.67A4.38,4.38,0,0,0,252.71,19V19l0,0h-5.06V31.33h2.54v-3.6h2.52v0h.16L255,31.33h3Z"/></g><polygon class="cls-3" points="292.43 18.96 292.43 26.53 287 19.65 286.45 18.96 284.46 18.96 284.46 20.56 284.46 31.33 287 31.33 287 23.78 292.43 30.66 292.96 31.33 294.97 31.33 294.97 29.75 294.97 18.96 292.43 18.96"/><polygon class="cls-3" points="230.88 18.96 227.89 27.52 224.9 18.96 222.2 18.96 226.53 31.33 226.56 31.33 229.22 31.33 229.25 31.33 233.58 18.96 230.88 18.96"/><polygon class="cls-3" points="273.85 31.33 276.84 22.77 279.83 31.33 282.52 31.33 278.2 18.96 278.17 18.96 275.51 18.96 275.47 18.96 271.15 31.33 273.85 31.33"/><g class="cls-2"><path class="cls-3" d="M291.44,43.06a1.06,1.06,0,0,0,1.19-1h0c0-.54-.36-.83-1.14-1s-.95-.35-.95-.68h0c0-.32.29-.58.75-.58a1.49,1.49,0,0,1,1,.39l.23-.31a1.77,1.77,0,0,0-1.22-.44,1,1,0,0,0-1.15,1h0c0,.58.37.84,1.17,1s.91.35.91.67h0c0,.35-.31.61-.78.61a1.65,1.65,0,0,1-1.19-.5l-.25.29a2,2,0,0,0,1.43.57M285.76,43h.4V39.83h1.17v-.36h-2.74v.36h1.17Zm-7.1,0h.39V40.1L281.3,43h.31V39.47h-.38V42.3L279,39.47h-.37Zm-5.58,0h2.55v-.36h-2.16V41.4h1.91V41h-1.91V39.83h2.13v-.36h-2.52Zm-6.57,0h.38V40.14L268.16,42h0l1.28-1.89V43h.39V39.47h-.4l-1.27,1.93-1.27-1.93h-.4ZM262,43h.4V39.83h1.17v-.36h-2.74v.36H262Zm-6.34-1.73V39.83h1.08c.56,0,.89.27.89.7h0c0,.46-.38.73-.9.73Zm-.4,1.73h.4V41.63h1l1,1.37h.48L257,41.56a1,1,0,0,0,.95-1h0a1,1,0,0,0-.27-.7,1.38,1.38,0,0,0-1-.35h-1.51Zm-5.5-1.29.79-1.8.8,1.8Zm-1,1.29h.4l.41-.93h1.9l.41.93h.42l-1.59-3.56h-.36Zm-4.54-1.61V39.83h.89c.56,0,.93.27.93.77h0c0,.47-.38.78-.95.78ZM243.82,43h.39V41.76h.85a1.21,1.21,0,0,0,1.37-1.16h0c0-.7-.52-1.12-1.3-1.12h-1.31Zm-5.51-1.29.8-1.8.79,1.8Zm-1,1.29h.4l.42-.93h1.9l.41.93h.42l-1.59-3.56h-.37Z"/></g><g class="cls-4"><rect class="cls-5" x="226" y="20.12" width="77.98" height="29.55" transform="translate(4.35 94.1) rotate(-20.3)"/></g><path class="cls-3" d="M226.57,6.55a7.72,7.72,0,0,0-2.74,5.54h-1a8,8,0,0,1,2.67-5.58h-3.65v-.9h4.73Z"/><path class="cls-3" d="M227.08,10.38a1.69,1.69,0,0,1,1.22-1.6,1.62,1.62,0,0,1-1.05-1.52,2.21,2.21,0,0,1,4.35,0,1.64,1.64,0,0,1-1.06,1.52,1.69,1.69,0,0,1,1.23,1.6c0,1-.86,1.86-2.35,1.86S227.08,11.42,227.08,10.38Zm3.7-.08c0-.62-.5-1.11-1.36-1.11s-1.36.49-1.36,1.11.49,1.09,1.36,1.09S230.78,10.91,230.78,10.3Zm-.16-3a1.21,1.21,0,0,0-2.4,0,1.21,1.21,0,0,0,2.4,0Z"/><path class="cls-3" d="M239.26,6.92a1.44,1.44,0,0,0-1.5-1.21,1.25,1.25,0,0,0-1.37,1.18,1,1,0,0,0,.91,1l1.06.23a2,2,0,0,1,1.84,2,2.24,2.24,0,0,1-2.45,2.1,2.46,2.46,0,0,1-2.65-2.11l.94-.3a1.61,1.61,0,0,0,1.7,1.52c1,0,1.46-.51,1.46-1.13a1.15,1.15,0,0,0-1.06-1.1l-1-.22A2,2,0,0,1,235.4,7a2.26,2.26,0,0,1,2.34-2.11,2.23,2.23,0,0,1,2.4,1.76Z"/><path class="cls-3" d="M242.62,7.28h1v.85h-1v2.5c0,.44.18.66.67.66a1.9,1.9,0,0,0,.37,0v.8a2.06,2.06,0,0,1-.64.09,1.25,1.25,0,0,1-1.34-1.37V8.13h-.92V7.28H241a.67.67,0,0,0,.74-.74V5.76h.86Z"/><path class="cls-3" d="M245.37,4.78a.68.68,0,1,1-.67.68A.67.67,0,0,1,245.37,4.78Zm-.46,7.31V7.28h.93v4.81Z"/><path class="cls-3" d="M250.11,8.23l-.41,0c-.79,0-1.32.42-1.32,1.48v2.41h-.94V7.28h.92v.84a1.51,1.51,0,0,1,1.44-.92,1.77,1.77,0,0,1,.31,0Z"/><path class="cls-3" d="M251.11,12.09V4.85h.94v7.24Z"/><path class="cls-3" d="M254.11,4.78a.68.68,0,1,1-.67.68A.67.67,0,0,1,254.11,4.78Zm-.46,7.31V7.28h.93v4.81Z"/><path class="cls-3" d="M257.12,12.09h-.94V7.28h.92V8a1.65,1.65,0,0,1,1.48-.83A1.69,1.69,0,0,1,260.3,9v3.05h-.94V9.2c0-.67-.28-1.21-1.12-1.21s-1.12.59-1.12,1.32Z"/><path class="cls-3" d="M262.36,12.14a1.28,1.28,0,0,0,1.31,1.18c1,0,1.47-.52,1.47-1.56v-.69a1.6,1.6,0,0,1-1.47.79,2.19,2.19,0,0,1-2.21-2.33,2.21,2.21,0,0,1,2.21-2.34,1.52,1.52,0,0,1,1.48.76V7.28h.93v4.45a2.2,2.2,0,0,1-2.41,2.41,2.11,2.11,0,0,1-2.22-1.79Zm2.82-2.61a1.39,1.39,0,1,0-2.76,0,1.39,1.39,0,1,0,2.76,0Z"/><path class="cls-3" d="M273.82,6.92a1.44,1.44,0,0,0-1.5-1.21A1.25,1.25,0,0,0,271,6.89a1,1,0,0,0,.91,1l1.06.23a2,2,0,0,1,1.84,2,2.24,2.24,0,0,1-2.45,2.1,2.46,2.46,0,0,1-2.65-2.11l.94-.3a1.61,1.61,0,0,0,1.7,1.52c1,0,1.46-.51,1.46-1.13a1.15,1.15,0,0,0-1.06-1.1l-1-.22A2,2,0,0,1,270,7a2.26,2.26,0,0,1,2.34-2.11,2.23,2.23,0,0,1,2.4,1.76Z"/><path class="cls-3" d="M277.17,7.28h1v.85h-1v2.5c0,.44.18.66.67.66a1.9,1.9,0,0,0,.37,0v.8a2.06,2.06,0,0,1-.64.09,1.25,1.25,0,0,1-1.34-1.37V8.13h-.92V7.28h.26a.67.67,0,0,0,.74-.74V5.76h.86Z"/><path class="cls-3" d="M280.09,10.78a.84.84,0,0,1,.81,1,1.8,1.8,0,0,1-1.48,1.95v-.52a1.13,1.13,0,0,0,.83-1.08.44.44,0,0,1-.22.05.64.64,0,0,1-.67-.68A.7.7,0,0,1,280.09,10.78Z"/><path class="cls-3" d="M286,9.19v2.9h-1V5h2.58a2.07,2.07,0,0,1,2.19,2.1,2.05,2.05,0,0,1-2.19,2.09Zm1.42-.88a1.22,1.22,0,1,0,0-2.43H286V8.31Z"/><path class="cls-3" d="M294.67,10.72a2.18,2.18,0,0,1-2.16,1.52,2.4,2.4,0,0,1-2.42-2.57,2.4,2.4,0,0,1,2.3-2.54,2.24,2.24,0,0,1,2.31,2.52,2.11,2.11,0,0,1,0,.3h-3.62a1.43,1.43,0,0,0,1.45,1.46,1.31,1.31,0,0,0,1.35-1Zm-.95-1.53A1.21,1.21,0,0,0,292.4,8a1.29,1.29,0,0,0-1.31,1.23Z"/><path class="cls-3" d="M298.57,8.23l-.41,0c-.79,0-1.32.42-1.32,1.48v2.41h-.94V7.28h.92v.84a1.51,1.51,0,0,1,1.44-.92,1.77,1.77,0,0,1,.31,0Z"/><path class="cls-3" d="M301.08,7.28h1v.85h-1v2.5c0,.44.18.66.67.66a1.9,1.9,0,0,0,.37,0v.8a2.06,2.06,0,0,1-.64.09,1.25,1.25,0,0,1-1.34-1.37V8.13h-.92V7.28h.26a.67.67,0,0,0,.74-.74V5.76h.86Z"/><path class="cls-3" d="M304.31,12.09h-.94V4.85h.94v3A1.77,1.77,0,0,1,307.49,9v3.05h-.94V9.2c0-.67-.28-1.21-1.12-1.21s-1.1.56-1.12,1.27Z"/></g></g></svg>