<svg id="Layer_2" data-name="Layer 2" xmlns="http://www.w3.org/2000/svg" viewBox="0 0 320 150"><defs><style>.cls-1{fill:#fff;}.cls-2{fill:#ff3008;}</style></defs><path class="cls-1" d="M134.75,108.65h2.06a1.65,1.65,0,1,1,0,3.29h-1v1.61h-1.05Zm2,2.31a.67.67,0,1,0,0-1.33h-1V111Z"/><path class="cls-1" d="M142.2,108.54a2.56,2.56,0,1,1-2.66,2.56A2.6,2.6,0,0,1,142.2,108.54Zm0,4.14a1.58,1.58,0,1,0-1.57-1.58A1.57,1.57,0,0,0,142.2,112.68Z"/><path class="cls-1" d="M145.49,108.65h1.09l1,3.29h0l1-3.29h1l1,3.29h0l1-3.29h1.09l-1.61,4.9h-1l-1-3.18h0l-1,3.18h-1Z"/><path class="cls-1" d="M153.86,108.65h3.64v1h-2.59v1h2v.94h-2v1h2.66v1h-3.71Z"/><path class="cls-1" d="M158.86,108.65H161a1.58,1.58,0,0,1,1.71,1.65,1.55,1.55,0,0,1-.42,1.14,1.37,1.37,0,0,1-.42.29l1,1.82h-1.16l-.87-1.61h-1v1.61h-1.06ZM161,111a.67.67,0,1,0,0-1.33h-1.08V111Z"/><path class="cls-1" d="M164.15,108.65h3.64v1H165.2v1h2v.94h-2v1h2.66v1h-3.71Z"/><path class="cls-1" d="M169.15,108.65h1.79a2.45,2.45,0,1,1,0,4.9h-1.79Zm1.79,3.92a1.47,1.47,0,1,0,0-2.94h-.74v2.94Z"/><path class="cls-1" d="M176.64,108.65h2.07a1.4,1.4,0,0,1,1.58,1.29,1,1,0,0,1-.34.8,1.19,1.19,0,0,1-.33.22,1.35,1.35,0,0,1,.46.24,1.2,1.2,0,0,1,.45,1,1.5,1.5,0,0,1-1.68,1.4h-2.21Zm2,1.89a.49.49,0,1,0,0-1h-.95v1Zm.14,2.1a.6.6,0,1,0,0-1.19h-1.09v1.19Z"/><path class="cls-1" d="M182.88,111.8,181,108.65h1.22l1.15,2.1h0l1.15-2.1h1.22l-1.86,3.15v1.75h-1Z"/><path class="cls-2" d="M140.61,123.3a3.88,3.88,0,1,1,0,7.75h-2.68a.2.2,0,0,1-.2-.2V123.5a.2.2,0,0,1,.2-.2Zm-1.22,1.5v4.75h1.22a2.35,2.35,0,0,0,2.32-2.37,2.32,2.32,0,0,0-2.32-2.38Z"/><path class="cls-2" d="M150.44,123.14a4,4,0,1,1-4.2,4,4.09,4.09,0,0,1,4.2-4m0,6.58a2.55,2.55,0,1,0-2.54-2.54,2.55,2.55,0,0,0,2.54,2.54"/><path class="cls-2" d="M160.43,123.14a4,4,0,1,1-4.2,4,4.1,4.1,0,0,1,4.2-4m0,6.58a2.55,2.55,0,1,0-2.54-2.54,2.55,2.55,0,0,0,2.54,2.54"/><path class="cls-2" d="M166.83,123.5a.2.2,0,0,1,.21-.2h3.22a2.55,2.55,0,0,1,2.66,2.55,2.51,2.51,0,0,1-1.38,2.27l1.49,2.63a.21.21,0,0,1-.18.3h-1.31a.18.18,0,0,1-.17-.11l-1.44-2.6h-1.44v2.51a.2.2,0,0,1-.2.2H167a.2.2,0,0,1-.21-.2Zm3.38,1.3h-1.72v2h1.72a1,1,0,0,0,1-1,1,1,0,0,0-1-1"/><path class="cls-2" d="M178.45,123.34a3.87,3.87,0,1,1,0,7.74h-2.67a.2.2,0,0,1-.2-.2v-7.34a.2.2,0,0,1,.2-.2Zm-1.21,1.49v4.76h1.21a2.35,2.35,0,0,0,2.33-2.38,2.32,2.32,0,0,0-2.33-2.38Z"/><path class="cls-2" d="M186,129.21l-.62,1.7a.18.18,0,0,1-.18.13h-1.34a.21.21,0,0,1-.19-.28l2.89-7.34a.21.21,0,0,1,.19-.13h1.49a.22.22,0,0,1,.19.13l2.88,7.34a.2.2,0,0,1-.18.28h-1.34a.21.21,0,0,1-.19-.13l-.61-1.7Zm1.49-4-.94,2.54h1.88Z"/><path class="cls-2" d="M192.87,125.4a2.44,2.44,0,0,1,2.71-2.27A3.44,3.44,0,0,1,198,124a.19.19,0,0,1,0,.28l-.74.74a.2.2,0,0,1-.28,0,2,2,0,0,0-1.28-.5c-.67,0-1.16.38-1.16.83,0,1.43,3.92.61,3.92,3.37,0,1.38-1,2.43-2.93,2.43a4,4,0,0,1-2.8-1.12.2.2,0,0,1,0-.28l.71-.72a.19.19,0,0,1,.28,0,2.5,2.5,0,0,0,1.69.69c.83,0,1.38-.45,1.38-1,0-1.44-3.92-.61-3.92-3.37"/><path class="cls-2" d="M205.57,123.5v2.89h-3.32V123.5a.2.2,0,0,0-.2-.21h-1.26a.2.2,0,0,0-.2.21v7.34a.2.2,0,0,0,.2.2h1.26a.2.2,0,0,0,.2-.2v-3h3.32v3a.2.2,0,0,0,.2.2H207a.2.2,0,0,0,.2-.2V123.5a.2.2,0,0,0-.2-.21h-1.26a.2.2,0,0,0-.2.21"/><path class="cls-2" d="M131.18,124.31a4.86,4.86,0,0,0-4.31-2.58H113.24a.48.48,0,0,0-.33.81l3,3a1.38,1.38,0,0,0,1,.42h9.61a1.24,1.24,0,1,1,0,2.47h-6.63a.48.48,0,0,0-.33.81l3,3a1.39,1.39,0,0,0,1,.42h3a5.5,5.5,0,0,0,4.67-8.31"/></svg>