<svg id="Layer_2" data-name="Layer 2" xmlns="http://www.w3.org/2000/svg" viewBox="0 0 320 150"><defs><style>.cls-1{fill:#fff;}</style></defs><g id="Layer_2-2" data-name="Layer 2"><g id="Layer_1-2" data-name="Layer 1-2"><path class="cls-1" d="M44.84,120.81v1.94h.5a1,1,0,0,0,.94-1,.94.94,0,0,0-.92-1h-.52Zm.5-.62a1.59,1.59,0,1,1,0,3.17h-1.1a.07.07,0,0,1-.08-.08v-3a.07.07,0,0,1,.08-.08Z"/><path class="cls-1" d="M49.35,122.82a1,1,0,1,0-1-1,1.06,1.06,0,0,0,1,1m0-2.69a1.65,1.65,0,1,1-1.72,1.65,1.67,1.67,0,0,1,1.72-1.65"/><path class="cls-1" d="M53.44,122.82a1,1,0,0,0,0-2.08,1,1,0,0,0-1,1h0a1.05,1.05,0,0,0,1,1m0-2.69a1.65,1.65,0,1,1-1.72,1.65,1.67,1.67,0,0,1,1.72-1.65"/><path class="cls-1" d="M57.44,120.81h-.7v.83h.7a.41.41,0,0,0,.43-.39v0a.42.42,0,0,0-.41-.42s0,0,0,0m-1.38-.53a.07.07,0,0,1,.08-.08h1.31a1,1,0,0,1,1.09,1,1,1,0,0,1-.56.92l.6,1.08a.07.07,0,0,1,0,.11H58a.08.08,0,0,1-.08,0l-.58-1.06h-.58v1a.07.07,0,0,1-.08.08h-.51a.07.07,0,0,1-.08-.08Z"/><path class="cls-1" d="M60.31,120.82v1.94h.5a1,1,0,0,0,.95-1,1,1,0,0,0-.93-1h-.52Zm.5-.61a1.59,1.59,0,1,1,0,3.17h-1.1a.07.07,0,0,1-.08-.08v-3a.07.07,0,0,1,.08-.08Z"/><path class="cls-1" d="M64.5,121l-.39,1h.77Zm-.61,1.63-.25.69a.09.09,0,0,1-.08.06H63a.11.11,0,0,1-.09-.08s0,0,0,0l1.17-3s0-.06.08-.06h.62a.09.09,0,0,1,.08.06l1.17,3a.08.08,0,0,1,0,.1h-.58a.09.09,0,0,1-.08-.06l-.25-.69Z"/><path class="cls-1" d="M66.69,121.05a1,1,0,0,1,1.11-.93,1.45,1.45,0,0,1,1,.37.09.09,0,0,1,0,.12l-.31.31a.08.08,0,0,1-.11,0h0a.73.73,0,0,0-.52-.21c-.27,0-.48.16-.48.34,0,.59,1.6.25,1.6,1.38,0,.57-.43,1-1.19,1a1.64,1.64,0,0,1-1.15-.46.09.09,0,0,1,0-.12l.29-.29a.08.08,0,0,1,.11,0h0a1,1,0,0,0,.7.28c.34,0,.56-.18.56-.41,0-.59-1.6-.25-1.6-1.38"/><path class="cls-1" d="M71.89,120.27v1.18H70.54v-1.18a.07.07,0,0,0-.08-.08h-.52a.07.07,0,0,0-.08.08v3a.07.07,0,0,0,.08.08h.51a.07.07,0,0,0,.08-.08v-1.21h1.36v1.21a.07.07,0,0,0,.08.08h.52a.07.07,0,0,0,.07-.08v-3a.07.07,0,0,0-.07-.08H72a.08.08,0,0,0-.08.08Z"/><path class="cls-1" d="M63.56,111.36a3.27,3.27,0,0,0-2.88-1.73H51.55a.31.31,0,0,0-.3.33.3.3,0,0,0,.08.21l2,2a1,1,0,0,0,.66.27h6.43a.83.83,0,1,1,.12,1.65H56a.32.32,0,0,0-.32.32.33.33,0,0,0,.09.22l2,2a1,1,0,0,0,.67.28h2a3.69,3.69,0,0,0,3.14-5.56"/></g></g><rect class="cls-1" x="37.02" y="105.94" width="1.42" height="21.18"/><g id="RGB_NRL_TP_M_SYM_BLK_POS"><polygon class="cls-1" points="26.94 111.5 26.94 113.87 23.58 115.81 20.21 113.87 20.21 111.5 23.58 113.45 26.94 111.5"/><polygon class="cls-1" points="23.58 117.76 20.21 115.81 20.21 118.18 23.58 120.12 26.94 118.18 26.94 115.81 23.58 117.76"/><path class="cls-1" d="M26.94,106v2h2.7v12a2,2,0,0,1-1,1.88l-5.05,2.92-5-2.92a2,2,0,0,1-1-1.88V108h2.69v-2H15.5v14a4,4,0,0,0,2,3.63l6.06,3.5,6.06-3.5a4,4,0,0,0,2-3.63V106Z"/><path class="cls-1" d="M26,104.23l-.13.75a.33.33,0,0,1-.32.27h-.88l-.44,2.6a.3.3,0,0,1-.32.28H23l.52-2.89H22.26l.14-.74a.31.31,0,0,1,.31-.27Z"/><path class="cls-1" d="M24.79,106.94l-.17,1a.68.68,0,0,1-.69.59H22.5l.5-2.78a2.19,2.19,0,0,0-.34-.1,1.74,1.74,0,0,0-.45-.06,1.27,1.27,0,0,0-.39.06.7.7,0,0,0-.35.23.8.8,0,0,0-.18.54,3.4,3.4,0,0,0,1.36,2.25,3.88,3.88,0,0,0,2.23,1,1,1,0,0,0,.72-.28.85.85,0,0,0,.18-.55,3,3,0,0,0-1-1.88"/></g><path class="cls-1" d="M25,134.07a1.16,1.16,0,0,1-1.15-1.31v-.14a1.16,1.16,0,1,1,2.3,0v.14A1.16,1.16,0,0,1,25,134.07Zm0-2.29c-.37,0-.57.3-.57.84v.14c0,.53.2.84.57.84s.57-.31.57-.84v-.14C25.57,132.08,25.36,131.78,25,131.78Z"/><path class="cls-1" d="M27.18,131.81v.56l.11.06h1v.47h-1l-.11.06V134h-.57v-2.68h1.77v.46Z"/><path class="cls-1" d="M29.34,131.81v.56l.1.06h1v.47h-1l-.1.06V134h-.58v-2.68h1.77v.46Z"/><path class="cls-1" d="M31,134v-2.68h.58V134Z"/><path class="cls-1" d="M33.14,134.07c-.7,0-1.11-.5-1.11-1.3v-.16c0-.8.44-1.3,1.11-1.3a1,1,0,0,1,1.1,1h-.58c0-.32-.16-.49-.52-.49s-.53.25-.53.82v.17c0,.58.16.83.53.83a.45.45,0,0,0,.52-.47h.57A1,1,0,0,1,33.14,134.07Z"/><path class="cls-1" d="M34.7,134v-2.68h.58V134Z"/><path class="cls-1" d="M38.12,133.93v.1h-.58l-.17-.52h-.95l-.18.52h-.57v-.1l.95-2.58h.54Zm-.9-.89-.33-1-.32,1Z"/><path class="cls-1" d="M40.21,133.57V134H38.47v-2.68H39v2.16l.11.06Z"/><path class="cls-1" d="M43.61,132.25c0,.51-.38.85-1,.85h-.47V134h-.57v-2.68h1A.91.91,0,0,1,43.61,132.25Zm-.58,0a.41.41,0,0,0-.44-.44h-.47v.77l.11.06h.36C42.9,132.64,43,132.47,43,132.25Z"/><path class="cls-1" d="M46,133.93v.1h-.58l-.17-.52h-1l-.18.52h-.57v-.1l1-2.58h.54Zm-.9-.89-.33-1-.32,1Z"/><path class="cls-1" d="M48.46,133.93v.1h-.58l-.5-1H47v1h-.57v-2.68h1c.61,0,1,.28,1,.8a.76.76,0,0,1-.48.77Zm-1.4-1.33h.35a.36.36,0,0,0,.41-.39.37.37,0,0,0-.42-.4H47v.73Z"/><path class="cls-1" d="M50.91,131.81h-.72l-.11.06V134h-.57v-2.16l-.11-.06h-.71v-.46h2.22Z"/><path class="cls-1" d="M51.29,131.35h.57l1.1,1.82,0-.61v-1.21h.57V134h-.58l-1.1-1.82,0,.63V134h-.57Z"/><path class="cls-1" d="M54.6,131.81v.56l.1.06h1v.46h-1l-.1.07v.61h1.24V134H54v-2.68h1.82v.46Z"/><path class="cls-1" d="M58.3,133.93v.1h-.58l-.5-1h-.43v1h-.57v-2.68h1c.61,0,1,.28,1,.8a.76.76,0,0,1-.48.77Zm-1.4-1.33h.35a.37.37,0,0,0,.42-.39.38.38,0,0,0-.43-.4h-.45v.73Z"/><path class="cls-1" d="M60.83,134.07a1.16,1.16,0,0,1-1.15-1.31v-.14a1.16,1.16,0,1,1,2.3,0v.14A1.16,1.16,0,0,1,60.83,134.07Zm0-2.29c-.37,0-.57.3-.57.84v.14c0,.53.2.84.57.84s.57-.31.57-.84v-.14C61.4,132.08,61.19,131.78,60.83,131.78Z"/><path class="cls-1" d="M63,131.81v.56l.11.06h1v.47h-1L63,133V134h-.57v-2.68h1.77v.46Z"/><path class="cls-1" d="M16.45,135.49h-.72l-.11.06v2.16h-.57v-2.16l-.11-.06h-.71V135h2.22Z"/><path class="cls-1" d="M19,135v2.69h-.57v-1.08l-.11-.06h-.84l-.11.06v1.08H16.8V135h.57v1l.11.06h.84l.11-.06v-1Z"/><path class="cls-1" d="M20.08,135.49V136l.11.06h.95v.47h-.95l-.11.06v.61h1.24v.47H19.5V135h1.82v.47Z"/><path class="cls-1" d="M22.72,135h.57l1.11,1.83,0-.62V135h.57v2.69h-.58l-1.1-1.83.05.63v1.2h-.57Z"/><path class="cls-1" d="M27.53,137.61v.1H27l-.5-1H26v1h-.58V135h1c.61,0,1,.28,1,.81a.76.76,0,0,1-.49.76Zm-1.4-1.34h.35a.37.37,0,0,0,.42-.39.37.37,0,0,0-.42-.39H26v.72Z"/><path class="cls-1" d="M29.72,137.24v.47H28V135h.58v2.16l.1.06Z"/><path class="cls-1" d="M33.06,135.49h-.72l-.11.06v2.16h-.57v-2.16l-.11-.06h-.71V135h2.22Z"/><path class="cls-1" d="M34,135.49V136l.11.06h1v.47h-1l-.11.06v.61h1.25v.47H33.44V135h1.82v.47Z"/><path class="cls-1" d="M37.37,137.24v.47H35.64V135h.57v2.16l.11.06Z"/><path class="cls-1" d="M37.73,135.73c0-.46.43-.75,1-.75s1,.33,1,.83h-.57c0-.22-.15-.37-.43-.37s-.43.13-.43.29.19.28.54.39c.57.17.89.42.89.87s-.39.75-1,.75-1.1-.26-1.1-.9h.58c0,.34.21.45.52.45s.41-.13.41-.29-.09-.28-.52-.42S37.73,136.21,37.73,135.73Z"/><path class="cls-1" d="M42.23,135.49h-.72l-.11.06v2.16h-.57v-2.16l-.11-.06H40V135h2.21Z"/><path class="cls-1" d="M44.69,137.61v.1h-.58l-.5-1h-.43v1h-.57V135h1c.61,0,1,.28,1,.81a.75.75,0,0,1-.48.76Zm-1.4-1.34h.35a.37.37,0,0,0,.42-.39c0-.24-.15-.39-.43-.39h-.45v.72Z"/><path class="cls-1" d="M47.42,137.61v.1h-.58l-.17-.53h-1l-.18.53H45v-.1l1-2.59h.54Zm-.9-.9-.33-1-.32,1Z"/><path class="cls-1" d="M50.84,135.92c0,.52-.38.86-1,.86h-.47v.93h-.58V135h1A.9.9,0,0,1,50.84,135.92Zm-.58,0a.4.4,0,0,0-.43-.43h-.47v.76l.1.06h.37A.37.37,0,0,0,50.26,135.92Z"/><path class="cls-1" d="M53.38,137.61v.1H52.8l-.5-1h-.43v1H51.3V135h1c.61,0,1,.28,1,.81a.75.75,0,0,1-.48.76ZM52,136.27h.35a.39.39,0,1,0,0-.78h-.45v.72Z"/><path class="cls-1" d="M54.4,135.49V136l.1.06h1v.47h-1l-.1.06v.61h1.24v.47H53.82V135h1.82v.47Z"/><path class="cls-1" d="M58.87,137.71h-.58V137l.06-1.38-.71,1.53h-.39l-.71-1.53L56.6,137v.69H56V135h.76l.66,1.4.67-1.4h.76Z"/><path class="cls-1" d="M59.45,137.71V135H60v2.69Z"/><path class="cls-1" d="M61.17,135.49V136l.11.06h.95v.47h-.95l-.11.06v.61h1.25v.47H60.6V135h1.82v.47Z"/><path class="cls-1" d="M64.88,137.61v.1H64.3l-.5-1h-.43v1H62.8V135h1c.61,0,1,.28,1,.81a.75.75,0,0,1-.48.76Zm-1.4-1.34h.35a.39.39,0,1,0,0-.78h-.45v.72Z"/><path class="cls-1" d="M65.3,135.73c0-.46.43-.75,1-.75s1,.33,1,.83h-.57c0-.22-.15-.37-.43-.37s-.42.13-.42.29.18.28.53.39c.57.17.9.42.9.87s-.4.75-1,.75-1.1-.26-1.1-.9h.58c0,.34.21.45.52.45s.41-.13.41-.29-.09-.28-.52-.42S65.3,136.21,65.3,135.73Z"/><path class="cls-1" d="M69.92,135v2.69h-.58v-1.08l-.1-.06h-.85l-.1.06v1.08h-.58V135h.58v1l.1.06h.85l.1-.06v-1Z"/><path class="cls-1" d="M70.46,137.71V135H71v2.69Z"/><path class="cls-1" d="M73.68,135.92c0,.52-.38.86-1,.86h-.47v.93h-.57V135h1A.91.91,0,0,1,73.68,135.92Zm-.58,0a.4.4,0,0,0-.44-.43h-.47v.76l.11.06h.36C73,136.31,73.1,136.14,73.1,135.92Z"/></svg>