<svg id="Layer_2" data-name="Layer 2" xmlns="http://www.w3.org/2000/svg" viewBox="0 0 320 150"><defs><style>.cls-1{fill:#ff3008;}</style></defs><path class="cls-1" d="M72.89,86.12h3v-3h2v3h3V88.3h-3v3h-2v-3h-3Z"/><path class="cls-1" d="M89,88.91a3.74,3.74,0,0,0,.75.67,3.8,3.8,0,0,0,2.14.64c1.39,0,2-.61,2-1.39,0-2.08-6.11-1.16-6.11-5.42,0-1.92,1.66-3.58,4.46-3.58a5.85,5.85,0,0,1,3.07.84,5.31,5.31,0,0,1,1,.82l-1.75,1.74a4.4,4.4,0,0,0-.61-.52,3,3,0,0,0-1.66-.52c-1.33,0-1.83.52-1.83,1.22,0,2.08,6.11,1.15,6.11,5.42,0,2-1.74,3.75-4.63,3.75a6.56,6.56,0,0,1-3.54-1,4.33,4.33,0,0,1-1.17-1Z"/><path class="cls-1" d="M105.38,79.83a6.38,6.38,0,1,1-6.64,6.37A6.46,6.46,0,0,1,105.38,79.83Zm0,10.31a3.94,3.94,0,1,0-3.93-3.94A3.91,3.91,0,0,0,105.38,90.14Z"/><path class="cls-1" d="M119.79,80.09h2.36l4.19,5.24,4.19-5.24h2.36V92.32h-2.62v-8l-3.93,4.89-3.93-4.89v8h-2.62Z"/><path class="cls-1" d="M136.82,80.09h2.62v7.16a2.71,2.71,0,1,0,5.41,0V80.09h2.62v7.16a5.33,5.33,0,1,1-10.65,0Z"/><path class="cls-1" d="M162.49,90.14a6.67,6.67,0,0,1-1.31,1.22,6.81,6.81,0,0,1-3.93,1.22,6.38,6.38,0,1,1,0-12.75,6.59,6.59,0,0,1,3.86,1.22,6.9,6.9,0,0,1,1.3,1.22L160.66,84a5.23,5.23,0,0,0-.89-.87,4.12,4.12,0,0,0-2.52-.88,3.94,3.94,0,0,0,0,7.87,4.41,4.41,0,0,0,2.61-.88,4.33,4.33,0,0,0,.89-.87Z"/><path class="cls-1" d="M165.29,80.09h2.62v4.8h5.24v-4.8h2.62V92.32h-2.62v-5h-5.24v5h-2.62Z"/><path class="cls-1" d="M184.32,80.09h2.36l4.19,5.24,4.2-5.24h2.36V92.32h-2.62v-8l-3.94,4.89-3.93-4.89v8h-2.62Z"/><path class="cls-1" d="M207.29,79.83a6.38,6.38,0,1,1-6.64,6.37A6.46,6.46,0,0,1,207.29,79.83Zm0,10.31a3.94,3.94,0,1,0-3.93-3.94A3.92,3.92,0,0,0,207.29,90.14Z"/><path class="cls-1" d="M217.16,80.09h5.41a4,4,0,0,1,4.28,4.11,3.84,3.84,0,0,1-1,2.84,3.09,3.09,0,0,1-1,.74l2.53,4.54h-2.88l-2.19-4h-2.44v4h-2.62Zm5.32,5.76a1.66,1.66,0,1,0,0-3.31h-2.7v3.31Z"/><path class="cls-1" d="M230.34,80.09h9.09v2.45H233v2.35H238v2.36H233v2.62h6.64v2.45h-9.26Z"/><path class="cls-1" d="M242.65,80.09h2.8L245,88.56h-1.92Zm1.4,9.61a1.4,1.4,0,1,1-1.4,1.4A1.38,1.38,0,0,1,244.05,89.7Z"/></svg>