<svg id="Layer_2" data-name="Layer 2" xmlns="http://www.w3.org/2000/svg" viewBox="0 0 320 150"><defs><style>.cls-1{fill:#fff;}</style></defs><path class="cls-1" d="M102.92,76.62H108V77.7h-4v1.86h3.14v1.08h-3.14v2.11h4.07v1.08h-5.21Z"/><path class="cls-1" d="M109.31,78.89h1v.72a1.84,1.84,0,0,1,.38-.41,1.81,1.81,0,0,1,1.16-.41,1.94,1.94,0,0,1,2,2.16v2.88h-1V81a1.09,1.09,0,0,0-1.13-1.19,1.32,1.32,0,0,0-1.34,1.39v2.68h-1Z"/><path class="cls-1" d="M115.69,79.87h-.92v-1h.56c.32,0,.47-.16.47-.57V77.24h.92v1.65h1.14v1h-1.14v2.31c0,.52.24.78.73.78a1.24,1.24,0,0,0,.4-.07l.16-.09v1l-.22.08a1.83,1.83,0,0,1-.55.08,1.44,1.44,0,0,1-1.55-1.65Z"/><path class="cls-1" d="M119.25,78.89h1v.67a2,2,0,0,1,.38-.38,1.73,1.73,0,0,1,1.11-.39H122v1.08l-.14,0a1.85,1.85,0,0,0-.27,0,1.4,1.4,0,0,0-1.34,1.49v2.52h-1Z"/><path class="cls-1" d="M123.52,76.73a.61.61,0,0,1,.62.61.62.62,0,0,1-1.24,0A.61.61,0,0,1,123.52,76.73ZM123,78.89h1v4.94h-1Z"/><path class="cls-1" d="M129.91,83a2.12,2.12,0,0,1-.52.46,2.79,2.79,0,0,1-1.6.47,2.58,2.58,0,0,1-.05-5.15,2.34,2.34,0,0,1,2.42,2.42,3.25,3.25,0,0,1,0,.37l0,.14H126.3A1.52,1.52,0,0,0,127.84,83a2,2,0,0,0,1.06-.33,2.5,2.5,0,0,0,.39-.34Zm-.83-2.16a1.33,1.33,0,0,0-1.34-1.14,1.44,1.44,0,0,0-1.44,1.14Z"/><path class="cls-1" d="M131.5,82.34a1.61,1.61,0,0,0,.35.34,1.65,1.65,0,0,0,.94.33c.57,0,.87-.3.87-.62,0-.82-2.62-.4-2.62-2.16,0-.77.68-1.44,1.8-1.44a2.58,2.58,0,0,1,1.32.34,1.45,1.45,0,0,1,.43.33l-.67.66a1.34,1.34,0,0,0-.29-.2,1.58,1.58,0,0,0-.79-.21c-.53,0-.77.26-.77.52,0,.82,2.62.41,2.62,2.16a1.69,1.69,0,0,1-1.9,1.55,2.39,2.39,0,0,1-1.46-.47,2,2,0,0,1-.5-.46Z"/><path class="cls-1" d="M142.31,82.91a2.85,2.85,0,0,1-.53.51,2.65,2.65,0,0,1-1.58.52,2.58,2.58,0,0,1,0-5.15,2.6,2.6,0,0,1,1.56.49,2.54,2.54,0,0,1,.5.48l-.72.67a1.53,1.53,0,0,0-.34-.33,1.75,1.75,0,0,0-1-.34,1.6,1.6,0,0,0,0,3.2,1.62,1.62,0,0,0,1-.36,2.53,2.53,0,0,0,.37-.36Z"/><path class="cls-1" d="M143.34,76.62h1v7.21h-1Z"/><path class="cls-1" d="M148.13,78.79a2.58,2.58,0,1,1-2.57,2.57A2.55,2.55,0,0,1,148.13,78.79Zm1.55,2.57a1.55,1.55,0,1,0-1.55,1.6A1.53,1.53,0,0,0,149.68,81.36Z"/><path class="cls-1" d="M152,82.34a1.87,1.87,0,0,0,.35.34,1.65,1.65,0,0,0,.94.33c.58,0,.88-.3.88-.62,0-.82-2.63-.4-2.63-2.16,0-.77.68-1.44,1.8-1.44a2.58,2.58,0,0,1,1.32.34,1.33,1.33,0,0,1,.43.33l-.67.66a1.34,1.34,0,0,0-.29-.2,1.58,1.58,0,0,0-.79-.21c-.52,0-.77.26-.77.52,0,.82,2.63.41,2.63,2.16a1.69,1.69,0,0,1-1.91,1.55,2.41,2.41,0,0,1-1.46-.47,2.21,2.21,0,0,1-.5-.46Z"/><path class="cls-1" d="M160.69,83a2.07,2.07,0,0,1-.51.46,2.79,2.79,0,0,1-1.6.47,2.58,2.58,0,0,1-.05-5.15A2.34,2.34,0,0,1,161,81.21a3.25,3.25,0,0,1,0,.37l0,.14h-3.81A1.52,1.52,0,0,0,158.63,83a1.89,1.89,0,0,0,1.05-.33,2.18,2.18,0,0,0,.4-.34Zm-.82-2.16a1.33,1.33,0,0,0-1.34-1.14,1.44,1.44,0,0,0-1.44,1.14Z"/><path class="cls-1" d="M165.17,78.32h-1.29V77.6a1.68,1.68,0,0,0,1.55-1h.88v7.21h-1.14Z"/><path class="cls-1" d="M167.9,80.23c0-2.36,1.34-3.71,3-3.71s3,1.35,3,3.71-1.34,3.71-3,3.71S167.9,82.59,167.9,80.23Zm3-2.68c-1,0-1.86.88-1.86,2.68s.88,2.68,1.86,2.68,1.85-.88,1.85-2.68S171.87,77.55,170.89,77.55Z"/><path class="cls-1" d="M177.53,76.52h.93L175.37,86h-.93Z"/><path class="cls-1" d="M179,80.23c0-2.36,1.34-3.71,3-3.71s3,1.35,3,3.71-1.34,3.71-3,3.71S179,82.59,179,80.23Zm3-2.68c-1,0-1.85.88-1.85,2.68s.87,2.68,1.85,2.68,1.85-.88,1.85-2.68S183,77.55,182,77.55Z"/><path class="cls-1" d="M188.65,76.62h1.24l-1.65,2.53.11,0a2.27,2.27,0,0,1,.35,0A2.43,2.43,0,1,1,186,81.52a2.84,2.84,0,0,1,.25-1.11c.08-.17.17-.34.26-.49Zm-.05,6.29a1.4,1.4,0,1,0-1.44-1.39A1.4,1.4,0,0,0,188.6,82.91Z"/><path class="cls-1" d="M194.73,76.52h.93L192.57,86h-.93Z"/><path class="cls-1" d="M200.86,82.75v1.08H196c0-3.24,3.7-3.33,3.7-5.1a1.12,1.12,0,0,0-1.28-1.13,1.41,1.41,0,0,0-1.11.5,1.64,1.64,0,0,0-.28.48l-.93-.41a2.45,2.45,0,0,1,.44-.83,2.32,2.32,0,0,1,1.88-.82,2.25,2.25,0,0,1,2.42,2.21c0,2.12-2.68,2.42-3.51,4Z"/><path class="cls-1" d="M202,80.23c0-2.36,1.34-3.71,3-3.71s3,1.35,3,3.71-1.34,3.71-3,3.71S202,82.59,202,80.23Zm3-2.68c-1,0-1.86.88-1.86,2.68s.88,2.68,1.86,2.68,1.85-.88,1.85-2.68S206,77.55,205,77.55Z"/><path class="cls-1" d="M213.73,82.75v1.08h-4.84c0-3.24,3.71-3.33,3.71-5.1a1.13,1.13,0,0,0-1.29-1.13,1.37,1.37,0,0,0-1.1.5,1.47,1.47,0,0,0-.29.48l-.93-.41a2.45,2.45,0,0,1,.44-.83,2.32,2.32,0,0,1,1.88-.82,2.25,2.25,0,0,1,2.42,2.21c0,2.12-2.68,2.42-3.5,4Z"/><path class="cls-1" d="M215.94,78.32h-1.29V77.6a1.68,1.68,0,0,0,1.55-1h.88v7.21h-1.14Z"/></svg>