<svg id="Layer_2" data-name="Layer 2" xmlns="http://www.w3.org/2000/svg" viewBox="0 0 320 150"><defs><style>.cls-1{fill:#fff;}</style></defs><path class="cls-1" d="M112.18,104.08h-1.76v-.56h4.11v.56h-1.75v5h-.6Z"/><path class="cls-1" d="M118.09,108.4a1.9,1.9,0,0,1-.4.4,2,2,0,0,1-1.2.4,2,2,0,0,1,0-4,1.82,1.82,0,0,1,1.84,1.92,1.15,1.15,0,0,1,0,.21l0,.08h-3.11a1.37,1.37,0,0,0,1.35,1.28,1.48,1.48,0,0,0,.92-.32,1.39,1.39,0,0,0,.32-.32Zm-.36-1.48a1.3,1.3,0,0,0-1.28-1.2,1.36,1.36,0,0,0-1.31,1.2Z"/><path class="cls-1" d="M119.29,105.28h.56v.52a1.78,1.78,0,0,1,.32-.29,1.6,1.6,0,0,1,1-.31h.16v.56h-.24a1.19,1.19,0,0,0-1.2,1.24v2.12h-.56Z"/><path class="cls-1" d="M122.05,105.28h.56v.48a2.27,2.27,0,0,1,.26-.28,1.35,1.35,0,0,1,.82-.28,1.43,1.43,0,0,1,1,.35,1.09,1.09,0,0,1,.27.33,1,1,0,0,1,.3-.33,1.58,1.58,0,0,1,1-.35,1.46,1.46,0,0,1,1.48,1.64v2.28h-.56v-2.28c0-.73-.39-1.12-1-1.12a1.14,1.14,0,0,0-1,1.28v2.12h-.56v-2.28c0-.73-.39-1.12-1-1.12a1.14,1.14,0,0,0-1,1.28v2.12h-.56Z"/><path class="cls-1" d="M129.06,108.12a1.35,1.35,0,0,0,.25.28,1.13,1.13,0,0,0,.74.28c.57,0,.84-.28.84-.64,0-.88-2.07-.44-2.07-1.76a1.18,1.18,0,0,1,1.27-1.08,1.7,1.7,0,0,1,.92.27,1.37,1.37,0,0,1,.32.25l-.4.4a1,1,0,0,0-.2-.2,1.18,1.18,0,0,0-.64-.2.64.64,0,0,0-.71.56c0,.84,2.07.4,2.07,1.76,0,.64-.52,1.16-1.4,1.16a1.78,1.78,0,0,1-1.06-.34,1.07,1.07,0,0,1-.33-.34Z"/><path class="cls-1" d="M136.45,108.6a1.22,1.22,0,0,1-.3.3,1.55,1.55,0,0,1-.94.3,1.27,1.27,0,0,1-1.36-1.12c0-.64.4-1,1.12-1.16l1.48-.24a.91.91,0,0,0-1-1,1.38,1.38,0,0,0-.79.28,2.47,2.47,0,0,0-.28.28l-.37-.36a2.6,2.6,0,0,1,.38-.36,1.76,1.76,0,0,1,1.06-.36,1.46,1.46,0,0,1,1.52,1.48v2.44h-.56Zm0-1.44-1.32.24c-.48.09-.71.32-.71.68s.27.6.79.6a1.2,1.2,0,0,0,1.24-1.28Z"/><path class="cls-1" d="M138.29,105.28h.56v.56a1.56,1.56,0,0,1,.31-.32,1.49,1.49,0,0,1,.93-.32,1.51,1.51,0,0,1,1.56,1.64v2.28h-.56v-2.28a1,1,0,0,0-1-1.12,1.19,1.19,0,0,0-1.2,1.28v2.12h-.56Z"/><path class="cls-1" d="M145.85,108.56a1.62,1.62,0,0,1-.32.32,1.69,1.69,0,0,1-1,.32,2,2,0,0,1,0-4,1.69,1.69,0,0,1,1,.32,1.62,1.62,0,0,1,.32.32v-2.32h.56v5.6h-.56Zm0-1.36a1.43,1.43,0,0,0-1.32-1.48,1.49,1.49,0,0,0,0,3A1.43,1.43,0,0,0,145.85,107.2Z"/><path class="cls-1" d="M152.65,108.4a2.28,2.28,0,0,1-.42.4,2,2,0,0,1-1.18.4,2,2,0,0,1,0-4,1.92,1.92,0,0,1,1.15.39,2.45,2.45,0,0,1,.41.37l-.4.4a1.75,1.75,0,0,0-.29-.32,1.38,1.38,0,0,0-.87-.32,1.49,1.49,0,0,0,0,3,1.49,1.49,0,0,0,.89-.32,1.34,1.34,0,0,0,.31-.32Z"/><path class="cls-1" d="M153.17,107.2a2,2,0,1,1,2,2A2,2,0,0,1,153.17,107.2Zm3.36,0a1.4,1.4,0,1,0-1.4,1.48A1.44,1.44,0,0,0,156.53,107.2Z"/><path class="cls-1" d="M158.09,105.28h.56v.56a1.56,1.56,0,0,1,.31-.32,1.49,1.49,0,0,1,.93-.32,1.51,1.51,0,0,1,1.56,1.64v2.28h-.56v-2.28a1,1,0,0,0-1-1.12,1.19,1.19,0,0,0-1.2,1.28v2.12h-.56Z"/><path class="cls-1" d="M165.65,108.56a1.94,1.94,0,0,1-.32.32,1.69,1.69,0,0,1-1,.32,2,2,0,0,1,0-4,1.69,1.69,0,0,1,1,.32,1.94,1.94,0,0,1,.32.32v-2.32h.56v5.6h-.56Zm0-1.36a1.43,1.43,0,0,0-1.32-1.48,1.49,1.49,0,0,0,0,3A1.43,1.43,0,0,0,165.65,107.2Z"/><path class="cls-1" d="M167.81,103.64a.36.36,0,1,1-.36.36A.36.36,0,0,1,167.81,103.64Zm-.28,1.64h.56v3.84h-.56Z"/><path class="cls-1" d="M169.69,105.8H169v-.52h.44c.22,0,.32-.13.32-.4V104h.52v1.28h.84v.52h-.84v2.28c0,.41.2.6.52.6a1,1,0,0,0,.37-.06l.15-.06v.52a1.26,1.26,0,0,1-.16.07,1.3,1.3,0,0,1-.38,0,1,1,0,0,1-1.06-1.12Z"/><path class="cls-1" d="M172.53,103.64a.36.36,0,1,1-.36.36A.36.36,0,0,1,172.53,103.64Zm-.28,1.64h.56v3.84h-.56Z"/><path class="cls-1" d="M173.81,107.2a2,2,0,1,1,2,2A2,2,0,0,1,173.81,107.2Zm3.36,0a1.4,1.4,0,1,0-1.4,1.48A1.44,1.44,0,0,0,177.17,107.2Z"/><path class="cls-1" d="M178.73,105.28h.56v.56a1.56,1.56,0,0,1,.31-.32,1.49,1.49,0,0,1,.93-.32,1.51,1.51,0,0,1,1.56,1.64v2.28h-.56v-2.28a1,1,0,0,0-1-1.12,1.19,1.19,0,0,0-1.2,1.28v2.12h-.56Z"/><path class="cls-1" d="M183.41,108.12a1.39,1.39,0,0,0,.26.28,1.11,1.11,0,0,0,.74.28c.57,0,.84-.28.84-.64,0-.88-2.08-.44-2.08-1.76a1.18,1.18,0,0,1,1.28-1.08,1.7,1.7,0,0,1,.92.27,1.61,1.61,0,0,1,.32.25l-.4.4a1,1,0,0,0-.21-.2,1.17,1.17,0,0,0-.63-.2.65.65,0,0,0-.72.56c0,.84,2.08.4,2.08,1.76a1.24,1.24,0,0,1-1.4,1.16,1.75,1.75,0,0,1-1.06-.34,1.1,1.1,0,0,1-.34-.34Z"/><path class="cls-1" d="M190.81,108.6a1.22,1.22,0,0,1-.3.3,1.55,1.55,0,0,1-.94.3,1.27,1.27,0,0,1-1.36-1.12c0-.64.4-1,1.12-1.16l1.48-.24a.91.91,0,0,0-1-1,1.38,1.38,0,0,0-.79.28,3.83,3.83,0,0,0-.29.28l-.36-.36a2.6,2.6,0,0,1,.38-.36,1.76,1.76,0,0,1,1.06-.36,1.46,1.46,0,0,1,1.52,1.48v2.44h-.56Zm0-1.44-1.32.24c-.48.09-.72.32-.72.68s.28.6.8.6a1.2,1.2,0,0,0,1.24-1.28Z"/><path class="cls-1" d="M192.65,105.28h.56v.56a1.66,1.66,0,0,1,1.32-.64,2,2,0,0,1,0,4,1.66,1.66,0,0,1-1.32-.64v2.24h-.56Zm3.2,1.92a1.37,1.37,0,0,0-1.32-1.48,1.49,1.49,0,0,0,0,3A1.37,1.37,0,0,0,195.85,107.2Z"/><path class="cls-1" d="M197.41,105.28H198v.56a1.68,1.68,0,0,1,.33-.32,1.64,1.64,0,0,1,1-.32,2,2,0,0,1,0,4,1.64,1.64,0,0,1-1-.32,1.68,1.68,0,0,1-.33-.32v2.24h-.56Zm3.2,1.92a1.37,1.37,0,0,0-1.32-1.48,1.49,1.49,0,0,0,0,3A1.37,1.37,0,0,0,200.61,107.2Z"/><path class="cls-1" d="M202.21,103.52h.56v5.6h-.56Z"/><path class="cls-1" d="M203.81,110.2l.13,0a1.1,1.1,0,0,0,.27,0c.36,0,.57-.19.72-.6l.2-.56-1.56-3.84h.6l1.24,3.12,1.24-3.12h.6l-1.76,4.4c-.32.8-.65,1.12-1.2,1.12a1.59,1.59,0,0,1-.34,0l-.14,0Z"/><path class="cls-1" d="M207.89,108.4a.4.4,0,1,1-.4.4A.37.37,0,0,1,207.89,108.4Z"/><path class="cls-1" d="M108.21,112.62h.58l2.42,5.59h-.67l-.67-1.56h-2.75l-.66,1.56h-.67Zm1.41,3.47-1.12-2.63-1.13,2.63Z"/><path class="cls-1" d="M117.12,117.13a2.85,2.85,0,0,1-.61.59,3.05,3.05,0,0,1-1.8.57,2.88,2.88,0,1,1,0-5.75,3,3,0,0,1,1.78.58,3.24,3.24,0,0,1,.59.58l-.42.36a1.83,1.83,0,0,0-.48-.48,2.36,2.36,0,0,0-1.47-.48,2.32,2.32,0,1,0,0,4.63,2.5,2.5,0,0,0,1.5-.48,2.27,2.27,0,0,0,.5-.48Z"/><path class="cls-1" d="M119.46,113.18h-1.83v-.56h4.29v.56h-1.84v5h-.62Z"/><path class="cls-1" d="M124.46,112.62h2.21a1.76,1.76,0,1,1,0,3.51h-1.59v2.08h-.62Zm2.21,2.95a1.2,1.2,0,1,0,0-2.39h-1.59v2.39Z"/><path class="cls-1" d="M132.79,117.49a2,2,0,0,1-.42.4,2.18,2.18,0,0,1-1.25.4,2,2,0,0,1,0-4,1.86,1.86,0,0,1,1.92,1.91,1,1,0,0,1,0,.21v.08h-3.25a1.42,1.42,0,0,0,1.41,1.28,1.59,1.59,0,0,0,1-.32,1.72,1.72,0,0,0,.34-.32Zm-.37-1.48a1.35,1.35,0,0,0-1.34-1.2,1.41,1.41,0,0,0-1.37,1.2Z"/><path class="cls-1" d="M134,114.38h.59v.52a1.54,1.54,0,0,1,.32-.3,1.73,1.73,0,0,1,1-.3h.16v.56h-.25a1.2,1.2,0,0,0-1.24,1.23v2.12H134Z"/><path class="cls-1" d="M136.92,114.38h.58v.48a1,1,0,0,1,.27-.28,1.36,1.36,0,0,1,.85-.28,1.53,1.53,0,0,1,1,.34,1.19,1.19,0,0,1,.29.34,1.08,1.08,0,0,1,.3-.34,1.74,1.74,0,0,1,1.07-.34,1.48,1.48,0,0,1,1.54,1.64v2.27h-.58v-2.27c0-.74-.41-1.13-1-1.13a1.15,1.15,0,0,0-1.08,1.28v2.12h-.59v-2.27a1,1,0,0,0-1-1.13,1.16,1.16,0,0,0-1.08,1.28v2.12h-.58Z"/><path class="cls-1" d="M144.46,112.74a.36.36,0,1,1,0,.72.36.36,0,1,1,0-.72Zm-.29,1.64h.58v3.83h-.58Z"/><path class="cls-1" d="M146.42,114.9h-.75v-.52h.46c.22,0,.33-.14.33-.4v-.88H147v1.28h.88v.52H147v2.27c0,.41.21.6.54.6a1.48,1.48,0,0,0,.39,0s.11,0,.15-.07v.52l-.16.07a1.45,1.45,0,0,1-.4.05,1,1,0,0,1-1.1-1.12Z"/><path class="cls-1" d="M151,112.62h.54l3.59,4.51v-4.51h.62v5.59h-.54l-3.58-4.51v4.51H151Z"/><path class="cls-1" d="M157,116.29a2,2,0,1,1,2.05,2A2,2,0,0,1,157,116.29Zm3.5,0a1.46,1.46,0,1,0-1.45,1.48A1.46,1.46,0,0,0,160.54,116.29Z"/><path class="cls-1" d="M162.38,117.49a.38.38,0,0,1,.41.4.37.37,0,0,1-.41.4.38.38,0,0,1-.42-.4A.38.38,0,0,1,162.38,117.49Z"/><path class="cls-1" d="M166.75,113.18h-1.83v-.56h4.29v.56h-1.83v5h-.63Z"/><path class="cls-1" d="M170.25,112.62h2.21a1.76,1.76,0,1,1,0,3.51h-1.58v2.08h-.63Zm2.21,2.95a1.2,1.2,0,1,0,0-2.39h-1.58v2.39Z"/><path class="cls-1" d="M180.38,117.65v.56h-3.75c0-2.35,3.12-2.43,3.12-4,0-.64-.45-1.08-1.25-1.08a1.17,1.17,0,0,0-1,.48,1.21,1.21,0,0,0-.24.48l-.54-.24a1.94,1.94,0,0,1,.33-.64,1.79,1.79,0,0,1,1.46-.64,1.7,1.7,0,0,1,1.88,1.64c0,1.72-2.54,2-3,3.47Z"/><path class="cls-1" d="M182.29,113.74h-1.08v-.36a1.48,1.48,0,0,0,1-.4,1.11,1.11,0,0,0,.25-.36h.46v5.59h-.63Z"/><path class="cls-1" d="M186.29,112.54h.55l-2.5,7.35h-.54Z"/><path class="cls-1" d="M187.34,115.41c0-1.79,1.13-2.87,2.33-2.87s2.33,1.08,2.33,2.87-1.12,2.88-2.32,2.88S187.34,117.21,187.34,115.41Zm4,0c0-1.51-.84-2.31-1.71-2.31s-1.71.8-1.71,2.31.84,2.32,1.72,2.32S191.38,116.93,191.38,115.41Z"/><path class="cls-1" d="M193,115.41c0-1.79,1.14-2.87,2.34-2.87s2.33,1.08,2.33,2.87-1.12,2.88-2.32,2.88S193,117.21,193,115.41Zm4.05,0c0-1.51-.85-2.31-1.71-2.31s-1.71.8-1.71,2.31.83,2.32,1.72,2.32S197.05,116.93,197.05,115.41Z"/><path class="cls-1" d="M201.17,113.18h-3v-.56h3.67v.56l-2.59,5h-.66Z"/><path class="cls-1" d="M204.34,112.62H205l-1.37,2.08.16,0a1.91,1.91,0,0,1,.46,0,1.85,1.85,0,0,1,2,1.83,2,2,0,1,1-3.79-.85,1.63,1.63,0,0,1,.21-.34Zm-.17,5.11a1.28,1.28,0,1,0-1.37-1.28A1.26,1.26,0,0,0,204.17,117.73Z"/><path class="cls-1" d="M207.63,115.49a1.69,1.69,0,0,1,.5-.31,1.47,1.47,0,0,1-.37-.27,1.16,1.16,0,0,1-.38-.89,1.73,1.73,0,0,1,3.42,0,1.2,1.2,0,0,1-.38.89,1.68,1.68,0,0,1-.37.27,1.69,1.69,0,0,1,.5.31,1.39,1.39,0,0,1,.5,1.08,2,2,0,0,1-3.92,0A1.36,1.36,0,0,1,207.63,115.49Zm1.46,2.24a1.22,1.22,0,0,0,1.33-1.16,1.34,1.34,0,0,0-2.66,0A1.22,1.22,0,0,0,209.09,117.73Zm0-2.79A.93.93,0,1,0,208,114,1,1,0,0,0,209.09,114.94Z"/><path class="cls-1" d="M212.42,117.49a.38.38,0,0,1,.42.4.38.38,0,0,1-.42.4.37.37,0,0,1-.41-.4A.38.38,0,0,1,212.42,117.49Z"/><path class="cls-1" d="M118.12,126.14a1.59,1.59,0,0,0,.39.34,2,2,0,0,0,1.2.35c.87,0,1.33-.43,1.33-1,0-1.43-3.17-.65-3.17-2.64a1.67,1.67,0,0,1,1.88-1.52A2.34,2.34,0,0,1,121,122a1.92,1.92,0,0,1,.44.36l-.42.4a1.87,1.87,0,0,0-.33-.28,1.74,1.74,0,0,0-1-.28c-.8,0-1.25.46-1.25,1,0,1.44,3.17.65,3.17,2.64,0,.92-.71,1.6-2,1.6a2.64,2.64,0,0,1-1.49-.42,1.74,1.74,0,0,1-.47-.42Z"/><path class="cls-1" d="M124.67,121.71h.58l2.42,5.6H127l-.67-1.56h-2.75l-.66,1.56h-.67Zm1.41,3.48L125,122.55l-1.13,2.64Z"/><path class="cls-1" d="M130.21,121.71h.62v5h3v.56h-3.62Z"/><path class="cls-1" d="M135,121.83a.36.36,0,1,1,0,.72.36.36,0,1,1,0-.72Zm-.29,1.64h.58v3.84h-.58Z"/><path class="cls-1" d="M140,126.59a2.79,2.79,0,0,1-.44.4,2.14,2.14,0,0,1-1.23.4,2,2,0,0,1,0-4,2.06,2.06,0,0,1,1.2.38,2.6,2.6,0,0,1,.43.38l-.42.4a1.57,1.57,0,0,0-.31-.32,1.46,1.46,0,1,0-.9,2.64,1.62,1.62,0,0,0,.93-.32,1.94,1.94,0,0,0,.32-.32Z"/><path class="cls-1" d="M144.17,126.59a2.06,2.06,0,0,1-.43.4,2.15,2.15,0,0,1-1.24.4,2,2,0,0,1,0-4,1.87,1.87,0,0,1,1.92,1.92,1.05,1.05,0,0,1,0,.21l0,.08h-3.24a1.41,1.41,0,0,0,1.41,1.28,1.61,1.61,0,0,0,1-.32,2,2,0,0,0,.33-.32Zm-.38-1.48a1.33,1.33,0,0,0-1.33-1.2,1.4,1.4,0,0,0-1.37,1.2Z"/><path class="cls-1" d="M145.42,123.47H146V124a1.39,1.39,0,0,1,.32-.32,1.6,1.6,0,0,1,1-.32,1.55,1.55,0,0,1,1.63,1.64v2.28h-.59V125a1,1,0,0,0-1.08-1.12,1.22,1.22,0,0,0-1.25,1.28v2.12h-.58Z"/><path class="cls-1" d="M153.63,126.59a2.47,2.47,0,0,1-.45.4,2.11,2.11,0,0,1-1.22.4,2,2,0,0,1,0-4,2.08,2.08,0,0,1,1.2.38,2.6,2.6,0,0,1,.43.38l-.42.4a1.57,1.57,0,0,0-.31-.32,1.46,1.46,0,1,0-.9,2.64,1.56,1.56,0,0,0,.92-.32,1.68,1.68,0,0,0,.33-.32Z"/><path class="cls-1" d="M157.84,126.59a2.06,2.06,0,0,1-.43.4,2.15,2.15,0,0,1-1.24.4,2,2,0,0,1,0-4,1.86,1.86,0,0,1,1.91,1.92,1.15,1.15,0,0,1,0,.21l0,.08h-3.25a1.42,1.42,0,0,0,1.42,1.28,1.64,1.64,0,0,0,1-.32,2,2,0,0,0,.33-.32Zm-.38-1.48a1.33,1.33,0,0,0-1.33-1.2,1.41,1.41,0,0,0-1.38,1.2Z"/><path class="cls-1" d="M161,121.71h.55l3.58,4.52v-4.52h.62v5.6h-.54l-3.58-4.52v4.52H161Z"/><path class="cls-1" d="M167,125.39a2,2,0,1,1,2.05,2A2,2,0,0,1,167,125.39Zm3.5,0a1.46,1.46,0,1,0-1.45,1.48A1.46,1.46,0,0,0,170.54,125.39Z"/><path class="cls-1" d="M172.38,126.59a.37.37,0,0,1,.41.4.38.38,0,0,1-.41.4.38.38,0,0,1-.42-.4A.38.38,0,0,1,172.38,126.59Z"/><path class="cls-1" d="M176.75,122.27h-1.83v-.56h4.29v.56h-1.83v5h-.63Z"/><path class="cls-1" d="M183.46,126.75v.56h-3.75c0-2.36,3.13-2.43,3.13-4,0-.64-.45-1.08-1.25-1.08a1.18,1.18,0,0,0-1,.48,1.19,1.19,0,0,0-.23.48l-.54-.24a1.75,1.75,0,0,1,1.79-1.28,1.7,1.7,0,0,1,1.87,1.64c0,1.72-2.54,2-3,3.48Z"/><path class="cls-1" d="M185.38,122.83H184.3v-.36a1.55,1.55,0,0,0,1-.39,1.34,1.34,0,0,0,.25-.37H186v5.6h-.62Z"/><path class="cls-1" d="M189.38,121.63h.54l-2.5,7.35h-.54Z"/><path class="cls-1" d="M193.17,122.27h-3v-.56h3.67v.56l-2.59,5h-.66Z"/><path class="cls-1" d="M195.46,122.83h-1.08v-.36a1.53,1.53,0,0,0,1-.39,1.15,1.15,0,0,0,.25-.37h.46v5.6h-.63Z"/><path class="cls-1" d="M201.05,126.75v.56H197.3c0-2.36,3.12-2.43,3.12-4,0-.64-.45-1.08-1.25-1.08a1.17,1.17,0,0,0-1,.48,1.21,1.21,0,0,0-.24.48l-.54-.24a1.94,1.94,0,0,1,.33-.64,1.79,1.79,0,0,1,1.46-.64,1.71,1.71,0,0,1,1.88,1.64c0,1.72-2.55,2-3.05,3.48Z"/><path class="cls-1" d="M202.42,126.59a.38.38,0,0,1,.42.4.38.38,0,0,1-.42.4.38.38,0,0,1-.41-.4A.37.37,0,0,1,202.42,126.59Z"/></svg>