<?xml version="1.0" encoding="utf-8"?>
<!-- Generator: Adobe Illustrator 23.0.0, SVG Export Plug-In . SVG Version: 6.00 Build 0)  -->
<svg version="1.1" id="Layer_1" xmlns="http://www.w3.org/2000/svg" xmlns:xlink="http://www.w3.org/1999/xlink" x="0px" y="0px"
	 viewBox="0 0 320 100" style="enable-background:new 0 0 320 100;" xml:space="preserve">
<style type="text/css">
	.st0{fill:#768961;}
</style>
<g>
	<path class="st0" d="M175.19,32.88l-4.64,8.36v4.01h-1.97v-4.01L164,32.88h2.43l3.2,6.1l3.13-6.1H175.19z"/>
	<path class="st0" d="M174.97,39.63c0.35-0.59,0.82-1.05,1.44-1.39c0.61-0.33,1.31-0.5,2.09-0.5s1.48,0.17,2.08,0.5
		c0.61,0.33,1.07,0.79,1.4,1.38c0.33,0.58,0.49,1.24,0.49,1.96s-0.16,1.38-0.49,1.96c-0.33,0.58-0.8,1.05-1.4,1.39
		s-1.31,0.51-2.1,0.51c-0.77,0-1.46-0.16-2.07-0.47s-1.09-0.76-1.44-1.34s-0.52-1.27-0.52-2.05
		C174.46,40.87,174.63,40.22,174.97,39.63z M176.97,43.23c0.4,0.44,0.89,0.65,1.48,0.65c0.61,0,1.11-0.21,1.5-0.65
		c0.39-0.43,0.59-0.97,0.59-1.63s-0.2-1.2-0.59-1.64s-0.89-0.65-1.5-0.65c-0.59,0-1.08,0.22-1.48,0.67c-0.4,0.45-0.6,0.99-0.6,1.62
		C176.38,42.25,176.57,42.79,176.97,43.23z"/>
	<path class="st0" d="M191.4,38.07v7.19h-1.72l-0.12-1.29c-0.25,0.49-0.62,0.88-1.1,1.16c-0.49,0.29-1.04,0.43-1.67,0.43
		c-0.66,0-1.2-0.2-1.64-0.6c-0.44-0.4-0.66-0.92-0.67-1.55v-5.34h1.9v4.66c0.03,0.79,0.43,1.2,1.17,1.21c0.55,0,1.02-0.25,1.39-0.76
		s0.55-1.15,0.55-1.92v-3.18h1.91V38.07z"/>
	<path class="st0" d="M207.01,38.07v7.19h-1.9v-1.04c-0.26,0.31-0.61,0.59-1.05,0.84s-0.96,0.38-1.55,0.38
		c-0.69,0-1.31-0.14-1.85-0.43s-0.98-0.72-1.29-1.28c-0.32-0.57-0.48-1.25-0.48-2.06c0-0.78,0.16-1.47,0.49-2.07
		s0.77-1.05,1.32-1.38c0.55-0.32,1.15-0.48,1.81-0.48c1.17,0,2.04,0.43,2.62,1.29l0.14-0.97h1.74V38.07z M204.35,43.48
		c0.36-0.27,0.61-0.64,0.76-1.13v-1.56c-0.14-0.44-0.4-0.8-0.79-1.07s-0.84-0.41-1.35-0.41c-0.6,0-1.11,0.21-1.53,0.64
		c-0.42,0.42-0.63,0.97-0.63,1.62c0,0.43,0.1,0.82,0.31,1.17c0.2,0.35,0.48,0.63,0.82,0.83s0.71,0.31,1.11,0.31
		C203.55,43.88,203.99,43.75,204.35,43.48z"/>
	<path class="st0" d="M212.31,38.7c0.35-0.31,0.71-0.54,1.08-0.71c0.37-0.16,0.68-0.25,0.93-0.25l-0.08,1.9
		c-0.52-0.05-0.99,0.05-1.39,0.28c-0.41,0.23-0.73,0.55-0.95,0.95s-0.34,0.83-0.34,1.28v3.09h-1.9v-7.19h1.72l0.14,1.67
		C211.69,39.35,211.96,39,212.31,38.7z"/>
	<path class="st0" d="M221.03,43.25l0.87,1.41c-0.38,0.24-0.8,0.43-1.24,0.57s-0.87,0.21-1.27,0.21c-0.83,0-1.54-0.16-2.15-0.49
		s-1.07-0.78-1.39-1.36c-0.32-0.58-0.48-1.24-0.48-1.99c0-0.7,0.18-1.35,0.54-1.94s0.86-1.06,1.48-1.4c0.62-0.35,1.3-0.52,2.04-0.52
		c0.97,0,1.78,0.29,2.43,0.86s1.08,1.38,1.29,2.42l-5.54,1.87c0.19,0.29,0.45,0.52,0.76,0.68c0.32,0.16,0.67,0.24,1.05,0.24
		C219.95,43.81,220.49,43.63,221.03,43.25z M217.8,39.87c-0.38,0.42-0.57,0.96-0.57,1.63c0,0.12,0.01,0.22,0.02,0.29l3.77-1.34
		c-0.15-0.35-0.36-0.64-0.65-0.87c-0.28-0.23-0.65-0.34-1.1-0.34C218.67,39.24,218.18,39.45,217.8,39.87z"/>
	<path class="st0" d="M235.24,45.22c-0.46,0.15-0.92,0.23-1.39,0.23c-0.79,0-1.49-0.15-2.1-0.46c-0.61-0.31-1.07-0.74-1.4-1.32
		c-0.33-0.57-0.49-1.24-0.49-2.01c0-0.76,0.18-1.43,0.53-2s0.82-1.01,1.4-1.32s1.21-0.46,1.88-0.46c1.13,0,2.07,0.31,2.8,0.92
		l-0.95,1.24c-0.22-0.17-0.47-0.31-0.76-0.43s-0.6-0.18-0.93-0.18c-0.58,0-1.07,0.21-1.47,0.64c-0.4,0.42-0.6,0.95-0.6,1.59
		s0.21,1.16,0.64,1.59c0.42,0.42,0.97,0.64,1.62,0.64c0.57,0,1.04-0.16,1.43-0.48l0.95,1.19C236.08,44.86,235.7,45.06,235.24,45.22z
		"/>
	<path class="st0" d="M238.28,39.63c0.35-0.59,0.82-1.05,1.44-1.39c0.61-0.33,1.31-0.5,2.09-0.5s1.48,0.17,2.08,0.5
		c0.61,0.33,1.07,0.79,1.4,1.38c0.33,0.58,0.49,1.24,0.49,1.96s-0.17,1.38-0.49,1.96c-0.33,0.58-0.8,1.05-1.4,1.39
		c-0.61,0.34-1.31,0.51-2.1,0.51c-0.77,0-1.46-0.16-2.07-0.47s-1.09-0.76-1.44-1.34s-0.52-1.27-0.52-2.05
		C237.76,40.87,237.94,40.22,238.28,39.63z M240.28,43.23c0.4,0.44,0.89,0.65,1.48,0.65c0.61,0,1.11-0.21,1.5-0.65
		c0.39-0.43,0.59-0.97,0.59-1.63s-0.2-1.2-0.59-1.64s-0.89-0.65-1.5-0.65c-0.59,0-1.08,0.22-1.48,0.67c-0.4,0.45-0.6,0.99-0.6,1.62
		C239.68,42.25,239.88,42.79,240.28,43.23z"/>
	<path class="st0" d="M250.46,38.7c0.35-0.31,0.71-0.54,1.08-0.71c0.37-0.16,0.68-0.25,0.93-0.25l-0.08,1.9
		c-0.52-0.05-0.99,0.05-1.39,0.28c-0.41,0.23-0.73,0.55-0.95,0.95s-0.34,0.83-0.34,1.28v3.09h-1.9v-7.19h1.72l0.14,1.67
		C249.84,39.35,250.11,39,250.46,38.7z"/>
	<path class="st0" d="M261.77,32v13.26h-1.9v-0.97c-0.79,0.77-1.73,1.16-2.82,1.16c-0.67,0-1.27-0.16-1.81-0.48
		s-0.96-0.77-1.27-1.36s-0.46-1.27-0.46-2.06c0-0.78,0.16-1.46,0.48-2.04c0.32-0.58,0.77-1.02,1.34-1.32s1.22-0.45,1.95-0.45
		c0.52,0,1.01,0.1,1.48,0.3s0.84,0.47,1.12,0.81V32H261.77z M259.05,43.42c0.39-0.27,0.66-0.65,0.82-1.14v-1.53
		c-0.14-0.44-0.41-0.8-0.81-1.09s-0.87-0.43-1.4-0.43c-0.4,0-0.77,0.1-1.11,0.3s-0.61,0.47-0.82,0.82c-0.2,0.35-0.31,0.73-0.31,1.16
		s0.1,0.82,0.31,1.17c0.2,0.35,0.48,0.63,0.82,0.83s0.71,0.31,1.11,0.31C258.2,43.83,258.66,43.7,259.05,43.42z"/>
	<path class="st0" d="M264.64,34.78c0.23-0.2,0.48-0.3,0.76-0.3c0.27,0,0.52,0.1,0.74,0.3s0.33,0.44,0.33,0.72s-0.11,0.52-0.33,0.71
		s-0.47,0.29-0.74,0.29c-0.28,0-0.54-0.1-0.76-0.29c-0.23-0.19-0.34-0.43-0.34-0.71S264.41,34.98,264.64,34.78z M266.29,38.07v7.19
		h-1.9v-7.19H266.29z"/>
	<path class="st0" d="M276.44,38.07v7.19h-1.9v-1.04c-0.26,0.31-0.61,0.59-1.05,0.84s-0.96,0.38-1.55,0.38
		c-0.69,0-1.31-0.14-1.85-0.43s-0.98-0.72-1.29-1.28c-0.32-0.57-0.48-1.25-0.48-2.06c0-0.78,0.16-1.47,0.49-2.07
		s0.77-1.05,1.32-1.38c0.55-0.32,1.15-0.48,1.81-0.48c1.17,0,2.04,0.43,2.62,1.29l0.14-0.97h1.74V38.07z M273.78,43.48
		c0.36-0.27,0.61-0.64,0.76-1.13v-1.56c-0.14-0.44-0.4-0.8-0.79-1.07s-0.84-0.41-1.35-0.41c-0.6,0-1.11,0.21-1.53,0.64
		c-0.42,0.42-0.63,0.97-0.63,1.62c0,0.43,0.1,0.82,0.31,1.17c0.2,0.35,0.48,0.63,0.82,0.83s0.71,0.31,1.11,0.31
		C272.98,43.88,273.42,43.75,273.78,43.48z"/>
	<path class="st0" d="M280.98,32v13.26h-1.9V32H280.98z"/>
	<path class="st0" d="M285.5,32v13.26h-1.9V32H285.5z"/>
	<path class="st0" d="M295.22,38.07l-4.64,10.64h-1.87l1.68-3.76l-3.33-6.89h2.14l2.14,4.76l2.14-4.76h1.74V38.07z"/>
	<path class="st0" d="M174.6,53.78c0.23-0.2,0.48-0.3,0.77-0.3c0.27,0,0.52,0.1,0.74,0.3s0.33,0.44,0.33,0.72s-0.11,0.52-0.33,0.71
		s-0.47,0.29-0.74,0.29c-0.28,0-0.54-0.1-0.77-0.29c-0.23-0.19-0.34-0.43-0.34-0.71S174.37,53.98,174.6,53.78z M176.25,57.07v7.19
		h-1.9v-7.19C174.35,57.07,176.25,57.07,176.25,57.07z"/>
	<path class="st0" d="M185.23,57.37c0.45,0.4,0.68,0.92,0.69,1.56v5.34h-1.9V59.6c-0.02-0.37-0.13-0.67-0.33-0.88
		c-0.2-0.21-0.5-0.33-0.89-0.34c-0.59,0-1.07,0.25-1.45,0.76c-0.38,0.5-0.57,1.15-0.57,1.93v3.2h-1.9v-7.19h1.72l0.14,1.28
		c0.26-0.5,0.64-0.89,1.13-1.16c0.49-0.28,1.06-0.42,1.71-0.42C184.23,56.76,184.79,56.96,185.23,57.37z"/>
	<path class="st0" d="M195.36,57.07l-3.94,7.38h-0.08l-4.13-7.38h2.26l1.97,4.11l1.8-4.11C193.24,57.07,195.36,57.07,195.36,57.07z"
		/>
	<path class="st0" d="M197.18,53.78c0.23-0.2,0.48-0.3,0.77-0.3c0.27,0,0.52,0.1,0.74,0.3s0.33,0.44,0.33,0.72s-0.11,0.52-0.33,0.71
		s-0.47,0.29-0.74,0.29c-0.28,0-0.54-0.1-0.77-0.29c-0.23-0.19-0.34-0.43-0.34-0.71S196.95,53.98,197.18,53.78z M198.82,57.07v7.19
		h-1.9v-7.19C196.92,57.07,198.82,57.07,198.82,57.07z"/>
	<path class="st0" d="M204.04,53.91v3.16h1.87v1.5h-1.87v5.7h-1.9v-5.7h-1.24v-1.5h1.24v-3.16
		C202.14,53.91,204.04,53.91,204.04,53.91z"/>
	<path class="st0" d="M212.87,62.25l0.87,1.41c-0.38,0.24-0.8,0.43-1.24,0.57c-0.44,0.14-0.87,0.21-1.27,0.21
		c-0.83,0-1.54-0.16-2.15-0.49c-0.61-0.33-1.07-0.78-1.39-1.36c-0.32-0.58-0.48-1.24-0.48-1.99c0-0.7,0.18-1.35,0.54-1.94
		s0.86-1.06,1.48-1.4c0.62-0.35,1.3-0.52,2.04-0.52c0.97,0,1.78,0.29,2.43,0.86s1.08,1.38,1.29,2.42l-5.54,1.87
		c0.19,0.29,0.45,0.52,0.76,0.68c0.32,0.16,0.67,0.24,1.05,0.24C211.78,62.81,212.32,62.63,212.87,62.25z M209.63,58.87
		c-0.38,0.42-0.57,0.96-0.57,1.63c0,0.13,0.01,0.22,0.02,0.29l3.77-1.34c-0.15-0.35-0.36-0.64-0.65-0.87s-0.65-0.34-1.1-0.34
		C210.5,58.24,210.01,58.45,209.63,58.87z"/>
	<path class="st0" d="M224.51,51v13.26h-1.9v-0.97c-0.79,0.77-1.73,1.16-2.82,1.16c-0.67,0-1.27-0.16-1.81-0.48
		s-0.96-0.77-1.27-1.36s-0.46-1.27-0.46-2.06s0.16-1.46,0.48-2.04c0.32-0.58,0.77-1.02,1.34-1.32c0.57-0.3,1.22-0.45,1.95-0.45
		c0.52,0,1.01,0.1,1.48,0.3s0.84,0.47,1.12,0.81V51H224.51z M221.79,62.42c0.39-0.27,0.66-0.65,0.82-1.14v-1.53
		c-0.14-0.44-0.41-0.8-0.81-1.09s-0.87-0.42-1.4-0.42c-0.4,0-0.77,0.1-1.11,0.3s-0.61,0.47-0.82,0.82c-0.2,0.35-0.31,0.73-0.31,1.16
		s0.1,0.82,0.31,1.17c0.2,0.35,0.48,0.63,0.82,0.83s0.71,0.31,1.11,0.31C220.94,62.83,221.4,62.7,221.79,62.42z"/>
	<path class="st0" d="M235.17,53.91v3.16h1.87v1.5h-1.87v5.7h-1.9v-5.7h-1.24v-1.5h1.24v-3.16
		C233.27,53.91,235.17,53.91,235.17,53.91z"/>
	<path class="st0" d="M238.83,58.63c0.35-0.59,0.82-1.05,1.44-1.39c0.61-0.33,1.31-0.5,2.09-0.5s1.48,0.17,2.08,0.5
		c0.61,0.33,1.07,0.79,1.4,1.38c0.33,0.58,0.49,1.24,0.49,1.96s-0.17,1.38-0.49,1.96c-0.33,0.58-0.8,1.05-1.4,1.39
		c-0.61,0.34-1.31,0.51-2.1,0.51c-0.77,0-1.46-0.16-2.07-0.47s-1.09-0.76-1.44-1.34s-0.52-1.27-0.52-2.05
		C238.31,59.87,238.49,59.22,238.83,58.63z M240.83,62.23c0.4,0.44,0.89,0.65,1.48,0.65c0.61,0,1.11-0.21,1.5-0.65
		c0.39-0.43,0.59-0.97,0.59-1.63s-0.2-1.2-0.59-1.64s-0.89-0.65-1.5-0.65c-0.59,0-1.08,0.22-1.48,0.67c-0.4,0.45-0.6,0.99-0.6,1.62
		C240.23,61.25,240.43,61.79,240.83,62.23z"/>
	<path class="st0" d="M253.71,58.63c0.35-0.59,0.82-1.05,1.44-1.39c0.61-0.33,1.31-0.5,2.09-0.5s1.48,0.17,2.08,0.5
		c0.61,0.33,1.07,0.79,1.4,1.38c0.33,0.58,0.49,1.24,0.49,1.96s-0.17,1.38-0.49,1.96c-0.33,0.58-0.8,1.05-1.4,1.39
		c-0.61,0.34-1.31,0.51-2.1,0.51c-0.77,0-1.46-0.16-2.07-0.47s-1.09-0.76-1.44-1.34s-0.52-1.27-0.52-2.05
		C253.19,59.87,253.36,59.22,253.71,58.63z M255.71,62.23c0.4,0.44,0.89,0.65,1.48,0.65c0.61,0,1.11-0.21,1.5-0.65
		c0.39-0.43,0.59-0.97,0.59-1.63s-0.2-1.2-0.59-1.64c-0.39-0.44-0.89-0.65-1.5-0.65c-0.59,0-1.08,0.22-1.48,0.67
		c-0.4,0.45-0.6,0.99-0.6,1.62C255.11,61.25,255.31,61.79,255.71,62.23z"/>
	<path class="st0" d="M270.14,57.07v7.19h-1.72l-0.12-1.29c-0.25,0.49-0.62,0.88-1.1,1.16c-0.49,0.29-1.04,0.43-1.67,0.43
		c-0.66,0-1.2-0.2-1.64-0.6s-0.66-0.92-0.67-1.55v-5.34h1.9v4.66c0.03,0.79,0.42,1.2,1.17,1.21c0.56,0,1.02-0.25,1.39-0.76
		s0.55-1.15,0.55-1.92v-3.18h1.91V57.07z"/>
	<path class="st0" d="M275.44,57.7c0.35-0.31,0.71-0.54,1.08-0.71s0.68-0.25,0.93-0.25l-0.08,1.9c-0.52-0.04-0.99,0.05-1.39,0.28
		s-0.73,0.55-0.95,0.95c-0.23,0.4-0.34,0.83-0.34,1.28v3.09h-1.9v-7.19h1.72l0.14,1.67C274.82,58.35,275.09,58,275.44,57.7z"/>
	<path class="st0" d="M278.14,62.49c0.21-0.2,0.45-0.31,0.72-0.31c0.25,0,0.48,0.1,0.69,0.31c0.21,0.2,0.31,0.45,0.31,0.73
		c0,0.29-0.11,0.54-0.31,0.74c-0.21,0.2-0.44,0.3-0.69,0.3c-0.27,0-0.51-0.1-0.72-0.29c-0.21-0.19-0.31-0.44-0.31-0.75
		C277.82,62.94,277.93,62.7,278.14,62.49z"/>
	<path class="st0" d="M281.03,62.49c0.21-0.2,0.45-0.31,0.72-0.31c0.25,0,0.48,0.1,0.69,0.31c0.21,0.2,0.31,0.45,0.31,0.73
		c0,0.29-0.11,0.54-0.31,0.74c-0.21,0.2-0.44,0.3-0.69,0.3c-0.27,0-0.51-0.1-0.72-0.29c-0.21-0.19-0.31-0.44-0.31-0.75
		C280.71,62.94,280.82,62.7,281.03,62.49z"/>
	<path class="st0" d="M283.92,62.49c0.21-0.2,0.45-0.31,0.72-0.31c0.25,0,0.48,0.1,0.69,0.31c0.21,0.2,0.31,0.45,0.31,0.73
		c0,0.29-0.11,0.54-0.31,0.74c-0.21,0.2-0.44,0.3-0.69,0.3c-0.27,0-0.51-0.1-0.72-0.29c-0.21-0.19-0.31-0.44-0.31-0.75
		C283.6,62.94,283.71,62.7,283.92,62.49z"/>
</g>
</svg>
