<?xml version="1.0" encoding="utf-8"?>
<!-- Generator: Adobe Illustrator 23.0.0, SVG Export Plug-In . SVG Version: 6.00 Build 0)  -->
<svg version="1.1" id="Layer_1" xmlns="http://www.w3.org/2000/svg" xmlns:xlink="http://www.w3.org/1999/xlink" x="0px" y="0px"
	 viewBox="0 0 320 100" style="enable-background:new 0 0 320 100;" xml:space="preserve">
<style type="text/css">
	.st0{fill:#768961;}
</style>
<g>
	<path class="st0" d="M163.7,33v9.86h5.74v1.79h-7.62V33H163.7z"/>
	<path class="st0" d="M171.32,34.78c0.21-0.19,0.45-0.28,0.72-0.28c0.26,0,0.49,0.09,0.7,0.28s0.31,0.41,0.31,0.68
		s-0.1,0.49-0.31,0.67s-0.44,0.27-0.7,0.27c-0.27,0-0.51-0.09-0.72-0.27S171,35.72,171,35.46S171.1,34.97,171.32,34.78z
		 M172.87,37.88v6.77h-1.79v-6.77H172.87z"/>
	<path class="st0" d="M181.56,37.88l-3.71,6.94h-0.08l-3.89-6.94h2.13l1.86,3.87l1.7-3.87H181.56z"/>
	<path class="st0" d="M187.16,42.76l0.82,1.33c-0.36,0.22-0.75,0.4-1.17,0.54c-0.42,0.13-0.82,0.2-1.2,0.2
		c-0.78,0-1.45-0.15-2.02-0.46s-1.01-0.74-1.31-1.28c-0.3-0.54-0.46-1.17-0.46-1.87c0-0.66,0.17-1.27,0.51-1.82s0.81-1,1.39-1.32
		c0.59-0.33,1.23-0.49,1.92-0.49c0.92,0,1.68,0.27,2.29,0.81s1.01,1.3,1.22,2.28l-5.22,1.76c0.18,0.28,0.42,0.49,0.72,0.64
		s0.63,0.22,0.99,0.22C186.14,43.29,186.65,43.11,187.16,42.76z M184.11,39.58c-0.36,0.39-0.54,0.91-0.54,1.54
		c0,0.12,0,0.21,0.02,0.27l3.55-1.26c-0.14-0.33-0.34-0.6-0.61-0.82c-0.27-0.21-0.61-0.32-1.04-0.32
		C184.93,38.98,184.47,39.18,184.11,39.58z"/>
	<path class="st0" d="M205.45,38.14c0.39,0.37,0.6,0.86,0.62,1.47v5.04h-1.78V40.3c-0.02-0.36-0.1-0.64-0.24-0.84
		s-0.37-0.31-0.69-0.33c-0.55,0-1,0.25-1.34,0.74c-0.34,0.5-0.52,1.08-0.53,1.74v3.04h-1.81V40.3c-0.02-0.35-0.1-0.63-0.25-0.83
		c-0.14-0.2-0.38-0.31-0.71-0.34c-0.36,0-0.68,0.12-0.96,0.35s-0.49,0.54-0.65,0.93s-0.23,0.78-0.23,1.2v3.04h-1.79v-6.77h1.62
		l0.14,1.18c0.26-0.48,0.6-0.85,1.04-1.1c0.44-0.26,0.94-0.38,1.5-0.38c0.54,0,1,0.12,1.37,0.36s0.61,0.58,0.73,1.03
		c0.28-0.44,0.63-0.78,1.06-1.02s0.87-0.37,1.33-0.37C204.54,37.58,205.06,37.76,205.45,38.14z"/>
	<path class="st0" d="M214.58,37.88v6.77h-1.62l-0.11-1.22c-0.23,0.46-0.58,0.82-1.04,1.1c-0.46,0.27-0.98,0.41-1.57,0.41
		c-0.62,0-1.13-0.19-1.54-0.57c-0.41-0.38-0.62-0.87-0.63-1.46v-5.02h1.79v4.38c0.03,0.75,0.4,1.13,1.1,1.14
		c0.52,0,0.96-0.24,1.3-0.72c0.35-0.48,0.52-1.08,0.52-1.81v-2.99L214.58,37.88L214.58,37.88z"/>
	<path class="st0" d="M217.15,44.51c-0.46-0.19-0.85-0.45-1.14-0.79l0.75-1.01c0.57,0.55,1.14,0.83,1.73,0.83
		c0.32,0,0.58-0.06,0.79-0.18c0.21-0.12,0.31-0.31,0.31-0.55c0-0.26-0.11-0.45-0.32-0.58s-0.45-0.23-0.71-0.31
		c-0.26-0.08-0.43-0.13-0.5-0.15c-0.59-0.18-1.02-0.45-1.31-0.79s-0.43-0.75-0.43-1.22c0-0.37,0.09-0.72,0.28-1.05
		c0.19-0.33,0.47-0.59,0.85-0.79s0.84-0.3,1.38-0.3c0.51,0,0.96,0.06,1.34,0.18c0.38,0.12,0.73,0.3,1.06,0.56l-0.69,1.07
		c-0.19-0.18-0.42-0.33-0.7-0.43c-0.27-0.11-0.52-0.16-0.74-0.16c-0.28,0-0.51,0.06-0.69,0.19s-0.27,0.29-0.27,0.5
		c-0.01,0.25,0.08,0.43,0.27,0.55s0.5,0.25,0.93,0.39c0.18,0.05,0.3,0.09,0.35,0.11c0.53,0.17,0.95,0.41,1.25,0.71
		s0.45,0.7,0.45,1.19c0,0.66-0.24,1.21-0.71,1.66c-0.47,0.44-1.15,0.66-2.04,0.66C218.11,44.79,217.61,44.7,217.15,44.51z"/>
	<path class="st0" d="M223.14,34.78c0.21-0.19,0.45-0.28,0.72-0.28c0.26,0,0.49,0.09,0.7,0.28s0.31,0.41,0.31,0.68
		s-0.1,0.49-0.31,0.67s-0.44,0.27-0.7,0.27c-0.27,0-0.51-0.09-0.72-0.27s-0.32-0.41-0.32-0.67S222.93,34.97,223.14,34.78z
		 M224.69,37.88v6.77h-1.79v-6.77H224.69z"/>
	<path class="st0" d="M231.2,44.61c-0.43,0.14-0.87,0.22-1.3,0.22c-0.75,0-1.41-0.14-1.98-0.43c-0.57-0.29-1.01-0.7-1.32-1.24
		c-0.31-0.54-0.46-1.17-0.46-1.9c0-0.71,0.17-1.34,0.5-1.88s0.77-0.95,1.32-1.24s1.14-0.43,1.77-0.43c1.07,0,1.95,0.29,2.64,0.86
		l-0.9,1.17c-0.2-0.16-0.44-0.3-0.71-0.41s-0.56-0.17-0.87-0.17c-0.54,0-1.01,0.2-1.38,0.6c-0.38,0.4-0.57,0.9-0.57,1.5
		s0.2,1.1,0.6,1.5c0.4,0.4,0.91,0.6,1.53,0.6c0.53,0,0.98-0.15,1.34-0.45l0.9,1.12C232,44.27,231.63,44.46,231.2,44.61z"/>
</g>
</svg>
