<?xml version="1.0" encoding="utf-8"?>
<!-- Generator: Adobe Illustrator 23.0.0, SVG Export Plug-In . SVG Version: 6.00 Build 0)  -->
<svg version="1.1" id="Layer_1" xmlns="http://www.w3.org/2000/svg" xmlns:xlink="http://www.w3.org/1999/xlink" x="0px" y="0px"
	 viewBox="0 0 320 100" style="enable-background:new 0 0 320 100;" xml:space="preserve">
<style type="text/css">
	.st0{fill:#768961;}
</style>
<g>
	<path class="st0" d="M105.26,64.27c-0.6,0.22-1.26,0.34-1.98,0.34c-1.21,0-2.26-0.26-3.16-0.79s-1.59-1.24-2.08-2.13
		s-0.73-1.87-0.73-2.94c0-1.16,0.24-2.2,0.73-3.12c0.49-0.92,1.16-1.63,2.03-2.15c0.87-0.52,1.86-0.78,2.97-0.78
		c0.68,0,1.31,0.09,1.9,0.27s1.1,0.41,1.54,0.69l-0.74,1.74c-0.86-0.61-1.74-0.91-2.64-0.91c-0.68,0-1.32,0.18-1.91,0.55
		c-0.59,0.37-1.06,0.87-1.42,1.5c-0.35,0.63-0.53,1.33-0.53,2.09c0,0.8,0.16,1.52,0.49,2.15c0.33,0.63,0.79,1.13,1.39,1.49
		s1.3,0.54,2.09,0.54c0.56,0,1.07-0.08,1.53-0.26c0.45-0.17,0.83-0.39,1.14-0.66l0.78,1.66C106.33,63.81,105.86,64.05,105.26,64.27z
		"/>
	<path class="st0" d="M108.25,59.18c0.33-0.55,0.78-0.99,1.35-1.3c0.58-0.31,1.23-0.47,1.97-0.47s1.39,0.16,1.96,0.47
		s1.01,0.75,1.32,1.3s0.46,1.17,0.46,1.85s-0.15,1.3-0.46,1.85s-0.75,0.98-1.32,1.3c-0.57,0.32-1.23,0.48-1.98,0.48
		c-0.73,0-1.38-0.15-1.95-0.44c-0.58-0.29-1.03-0.71-1.35-1.26c-0.33-0.55-0.49-1.19-0.49-1.93
		C107.76,60.35,107.92,59.74,108.25,59.18z M110.13,62.57c0.37,0.41,0.84,0.62,1.39,0.62c0.58,0,1.05-0.2,1.42-0.61
		c0.37-0.41,0.55-0.92,0.55-1.54c0-0.62-0.18-1.13-0.55-1.54s-0.84-0.62-1.42-0.62c-0.55,0-1.02,0.21-1.39,0.63
		c-0.37,0.42-0.56,0.93-0.56,1.53C109.57,61.65,109.75,62.16,110.13,62.57z"/>
	<path class="st0" d="M127.1,57.97c0.39,0.37,0.59,0.86,0.62,1.47v5.04h-1.78v-4.35c-0.02-0.36-0.1-0.64-0.24-0.84
		s-0.37-0.31-0.69-0.33c-0.55,0-1,0.25-1.34,0.74c-0.34,0.5-0.52,1.08-0.53,1.74v3.04h-1.81v-4.35c-0.02-0.35-0.1-0.63-0.25-0.83
		c-0.14-0.2-0.38-0.31-0.71-0.34c-0.36,0-0.68,0.12-0.96,0.35s-0.49,0.54-0.65,0.93s-0.23,0.78-0.23,1.2v3.04h-1.79v-6.77h1.62
		l0.14,1.18c0.26-0.48,0.6-0.85,1.04-1.1c0.44-0.26,0.94-0.38,1.5-0.38c0.54,0,1,0.12,1.37,0.36s0.61,0.58,0.73,1.03
		c0.28-0.44,0.63-0.78,1.06-1.02c0.43-0.25,0.87-0.37,1.33-0.37C126.18,57.41,126.71,57.6,127.1,57.97z"/>
	<path class="st0" d="M135.87,57.86c0.51,0.3,0.91,0.73,1.2,1.28s0.43,1.2,0.43,1.94c0,0.73-0.16,1.36-0.47,1.9
		s-0.75,0.96-1.31,1.25c-0.56,0.29-1.19,0.43-1.9,0.43c-0.45,0-0.88-0.09-1.3-0.27s-0.76-0.43-1.02-0.74v4.08h-1.79V57.58h1.55
		l0.16,1.01c0.35-0.36,0.76-0.65,1.22-0.86s0.97-0.32,1.51-0.32C134.79,57.41,135.36,57.56,135.87,57.86z M134.57,62.95
		c0.34-0.19,0.61-0.44,0.81-0.76s0.3-0.68,0.3-1.09c0-0.63-0.2-1.15-0.6-1.56c-0.4-0.41-0.89-0.62-1.48-0.62
		c-0.52,0-0.96,0.13-1.32,0.38s-0.62,0.61-0.78,1.07v1.36c0.11,0.44,0.34,0.79,0.7,1.07s0.78,0.42,1.27,0.42
		C133.87,63.23,134.23,63.14,134.57,62.95z"/>
	<path class="st0" d="M140.72,52v12.48h-1.79V52H140.72z"/>
	<path class="st0" d="M142.96,54.62c0.21-0.19,0.45-0.28,0.72-0.28c0.26,0,0.49,0.09,0.7,0.28s0.31,0.41,0.31,0.68
		s-0.1,0.49-0.31,0.67s-0.44,0.27-0.7,0.27c-0.27,0-0.51-0.09-0.72-0.27s-0.32-0.41-0.32-0.67S142.75,54.8,142.96,54.62z
		 M144.51,57.71v6.77h-1.79v-6.77C142.72,57.71,144.51,57.71,144.51,57.71z"/>
	<path class="st0" d="M156.87,57.97c0.39,0.37,0.59,0.86,0.62,1.47v5.04h-1.78v-4.35c-0.02-0.36-0.1-0.64-0.24-0.84
		s-0.37-0.31-0.69-0.33c-0.55,0-1,0.25-1.34,0.74c-0.34,0.5-0.52,1.08-0.53,1.74v3.04h-1.81v-4.35c-0.02-0.35-0.1-0.63-0.25-0.83
		c-0.14-0.2-0.38-0.31-0.71-0.34c-0.36,0-0.68,0.12-0.96,0.35s-0.49,0.54-0.65,0.93s-0.23,0.78-0.23,1.2v3.04h-1.79v-6.77h1.62
		l0.14,1.18c0.26-0.48,0.6-0.85,1.04-1.1c0.44-0.26,0.94-0.38,1.5-0.38c0.54,0,1,0.12,1.37,0.36s0.61,0.58,0.73,1.03
		c0.28-0.44,0.63-0.78,1.06-1.02c0.43-0.25,0.87-0.37,1.33-0.37C155.96,57.41,156.48,57.6,156.87,57.97z"/>
	<path class="st0" d="M164.27,62.59l0.82,1.33c-0.36,0.22-0.75,0.4-1.17,0.54c-0.42,0.13-0.82,0.2-1.2,0.2
		c-0.78,0-1.45-0.15-2.02-0.46s-1.01-0.74-1.31-1.28c-0.3-0.54-0.46-1.17-0.46-1.87c0-0.66,0.17-1.27,0.51-1.82s0.81-1,1.39-1.32
		c0.59-0.33,1.23-0.49,1.92-0.49c0.92,0,1.68,0.27,2.29,0.81s1.01,1.3,1.22,2.28l-5.22,1.76c0.18,0.28,0.42,0.49,0.72,0.64
		s0.63,0.22,0.99,0.22C163.25,63.12,163.76,62.94,164.27,62.59z M161.22,59.41c-0.36,0.39-0.54,0.91-0.54,1.54
		c0,0.12,0,0.21,0.02,0.27l3.55-1.26c-0.14-0.33-0.34-0.6-0.61-0.82c-0.27-0.21-0.61-0.32-1.04-0.32
		C162.04,58.82,161.58,59.01,161.22,59.41z"/>
	<path class="st0" d="M173.54,57.99c0.42,0.38,0.64,0.87,0.65,1.46v5.02h-1.79V60.1c-0.02-0.35-0.13-0.63-0.31-0.83
		c-0.19-0.2-0.47-0.31-0.84-0.32c-0.56,0-1.01,0.24-1.37,0.71s-0.54,1.08-0.54,1.82v3.01h-1.79v-6.77h1.62l0.13,1.2
		c0.25-0.47,0.6-0.83,1.06-1.1c0.46-0.26,1-0.39,1.61-0.39C172.6,57.42,173.12,57.61,173.54,57.99z"/>
	<path class="st0" d="M178.64,54.74v2.98h1.76v1.41h-1.76v5.36h-1.79v-5.36h-1.17v-1.41h1.17v-2.98
		C176.85,54.74,178.64,54.74,178.64,54.74z"/>
	<path class="st0" d="M188.78,57.71v6.77h-1.79V63.5c-0.25,0.29-0.58,0.55-0.99,0.79c-0.42,0.24-0.9,0.36-1.46,0.36
		c-0.65,0-1.23-0.14-1.74-0.41c-0.51-0.27-0.92-0.67-1.22-1.21c-0.3-0.53-0.45-1.18-0.45-1.94c0-0.74,0.15-1.38,0.46-1.94
		c0.31-0.56,0.72-0.99,1.24-1.3c0.52-0.3,1.09-0.46,1.7-0.46c1.1,0,1.92,0.41,2.46,1.22l0.13-0.91L188.78,57.71L188.78,57.71z
		 M186.28,62.81c0.34-0.25,0.57-0.61,0.71-1.06v-1.47c-0.13-0.42-0.38-0.75-0.74-1.01c-0.37-0.26-0.79-0.38-1.27-0.38
		c-0.57,0-1.05,0.2-1.44,0.6s-0.59,0.91-0.59,1.53c0,0.41,0.1,0.77,0.29,1.1c0.19,0.33,0.45,0.59,0.77,0.78s0.67,0.29,1.04,0.29
		C185.53,63.18,185.94,63.06,186.28,62.81z"/>
	<path class="st0" d="M193.31,58.3c0.33-0.29,0.67-0.51,1.02-0.66s0.64-0.23,0.87-0.23l-0.08,1.79c-0.49-0.04-0.93,0.05-1.31,0.26
		c-0.38,0.22-0.68,0.52-0.9,0.9c-0.21,0.38-0.32,0.78-0.32,1.21v2.91h-1.79v-6.77h1.62l0.13,1.57
		C192.72,58.92,192.98,58.59,193.31,58.3z"/>
	<path class="st0" d="M203.26,57.71l-4.37,10.02h-1.76l1.58-3.54l-3.14-6.48h2.02l2.02,4.48l2.02-4.48
		C201.63,57.71,203.26,57.71,203.26,57.71z"/>
	<path class="st0" d="M211.44,58.3c0.33-0.29,0.67-0.51,1.02-0.66s0.64-0.23,0.87-0.23l-0.08,1.79c-0.49-0.04-0.93,0.05-1.31,0.26
		c-0.38,0.22-0.68,0.52-0.9,0.9c-0.21,0.38-0.32,0.78-0.32,1.21v2.91h-1.79v-6.77h1.62l0.13,1.57
		C210.85,58.92,211.11,58.59,211.44,58.3z"/>
	<path class="st0" d="M219.18,62.59l0.82,1.33c-0.36,0.22-0.75,0.4-1.17,0.54c-0.42,0.13-0.82,0.2-1.2,0.2
		c-0.78,0-1.45-0.15-2.02-0.46c-0.57-0.31-1.01-0.74-1.31-1.28s-0.46-1.17-0.46-1.87c0-0.66,0.17-1.27,0.51-1.82s0.81-1,1.39-1.32
		c0.59-0.33,1.23-0.49,1.92-0.49c0.92,0,1.68,0.27,2.29,0.81s1.01,1.3,1.22,2.28l-5.22,1.76c0.18,0.28,0.42,0.49,0.72,0.64
		s0.63,0.22,0.99,0.22C218.16,63.12,218.67,62.94,219.18,62.59z M216.13,59.41c-0.36,0.39-0.54,0.91-0.54,1.54
		c0,0.12,0.01,0.21,0.02,0.27l3.55-1.26c-0.14-0.33-0.34-0.6-0.61-0.82c-0.27-0.21-0.61-0.32-1.04-0.32
		C216.95,58.82,216.49,59.01,216.13,59.41z"/>
	<path class="st0" d="M223.05,59.28h-1.15V57.7h1.15v-2.66c0-0.95,0.24-1.69,0.72-2.22c0.48-0.53,1.17-0.8,2.06-0.8
		c0.27,0,0.55,0.04,0.86,0.12s0.58,0.19,0.8,0.34l-0.75,1.3c-0.18-0.19-0.42-0.29-0.72-0.29c-0.79,0-1.18,0.53-1.18,1.6v2.61h2.11
		v1.58h-2.11v5.2h-1.79L223.05,59.28L223.05,59.28z"/>
	<path class="st0" d="M230.94,58.3c0.33-0.29,0.67-0.51,1.02-0.66s0.64-0.23,0.87-0.23l-0.08,1.79c-0.49-0.04-0.93,0.05-1.31,0.26
		s-0.68,0.52-0.9,0.9c-0.21,0.38-0.32,0.78-0.32,1.21v2.91h-1.79v-6.77h1.62l0.13,1.57C230.36,58.92,230.61,58.59,230.94,58.3z"/>
	<path class="st0" d="M238.69,62.59l0.82,1.33c-0.36,0.22-0.75,0.4-1.17,0.54c-0.42,0.13-0.82,0.2-1.2,0.2
		c-0.78,0-1.45-0.15-2.02-0.46c-0.57-0.31-1.01-0.74-1.31-1.28s-0.46-1.17-0.46-1.87c0-0.66,0.17-1.27,0.51-1.82s0.81-1,1.39-1.32
		c0.59-0.33,1.23-0.49,1.92-0.49c0.92,0,1.68,0.27,2.29,0.81s1.01,1.3,1.22,2.28l-5.22,1.76c0.18,0.28,0.42,0.49,0.72,0.64
		s0.63,0.22,0.99,0.22C237.67,63.12,238.17,62.94,238.69,62.59z M235.64,59.41c-0.36,0.39-0.54,0.91-0.54,1.54
		c0,0.12,0.01,0.21,0.02,0.27l3.55-1.26c-0.14-0.33-0.34-0.6-0.61-0.82c-0.27-0.21-0.61-0.32-1.04-0.32
		C236.46,58.82,236,59.01,235.64,59.41z"/>
	<path class="st0" d="M242.52,64.34c-0.46-0.19-0.85-0.45-1.14-0.79l0.75-1.01c0.57,0.55,1.14,0.83,1.73,0.83
		c0.32,0,0.58-0.06,0.79-0.18c0.21-0.12,0.31-0.31,0.31-0.55c0-0.26-0.11-0.45-0.32-0.58s-0.45-0.23-0.71-0.31
		c-0.26-0.08-0.43-0.13-0.5-0.15c-0.59-0.18-1.02-0.45-1.31-0.79s-0.43-0.75-0.43-1.22c0-0.37,0.09-0.72,0.28-1.05
		c0.19-0.33,0.47-0.59,0.85-0.79s0.84-0.3,1.38-0.3c0.51,0,0.96,0.06,1.34,0.18c0.38,0.12,0.73,0.3,1.06,0.56l-0.69,1.07
		c-0.19-0.18-0.42-0.33-0.7-0.43c-0.27-0.11-0.52-0.16-0.74-0.16c-0.28,0-0.51,0.06-0.69,0.19s-0.27,0.29-0.27,0.5
		c-0.01,0.25,0.08,0.43,0.27,0.55s0.5,0.25,0.93,0.39c0.18,0.05,0.3,0.09,0.35,0.11c0.53,0.17,0.95,0.41,1.25,0.71
		s0.45,0.7,0.45,1.19c0,0.66-0.24,1.21-0.71,1.66c-0.47,0.44-1.15,0.66-2.04,0.66C243.48,64.62,242.98,64.53,242.52,64.34z"/>
	<path class="st0" d="M254.26,57.99c0.42,0.38,0.64,0.87,0.65,1.46v5.02h-1.79V60.1c-0.02-0.35-0.13-0.63-0.31-0.83
		c-0.19-0.2-0.47-0.31-0.84-0.32c-0.55,0-1.01,0.24-1.37,0.72s-0.54,1.08-0.54,1.81v3.01h-1.79V52h1.76v6.86
		c0.26-0.44,0.61-0.79,1.06-1.05s0.98-0.39,1.59-0.39C253.32,57.42,253.84,57.61,254.26,57.99z"/>
	<path class="st0" d="M267.27,57.97c0.39,0.37,0.59,0.86,0.62,1.47v5.04h-1.78v-4.35c-0.02-0.36-0.1-0.64-0.24-0.84
		c-0.14-0.2-0.37-0.31-0.69-0.33c-0.55,0-1,0.25-1.34,0.74c-0.34,0.5-0.52,1.08-0.53,1.74v3.04h-1.81v-4.35
		c-0.02-0.35-0.1-0.63-0.25-0.83c-0.14-0.2-0.38-0.31-0.71-0.34c-0.36,0-0.68,0.12-0.96,0.35s-0.49,0.54-0.65,0.93
		s-0.23,0.78-0.23,1.2v3.04h-1.79v-6.77h1.62l0.14,1.18c0.26-0.48,0.6-0.85,1.04-1.1c0.44-0.26,0.94-0.38,1.5-0.38
		c0.54,0,1,0.12,1.37,0.36s0.61,0.58,0.73,1.03c0.28-0.44,0.63-0.78,1.06-1.02c0.43-0.25,0.87-0.37,1.33-0.37
		C266.36,57.41,266.88,57.6,267.27,57.97z"/>
	<path class="st0" d="M274.67,62.59l0.82,1.33c-0.36,0.22-0.75,0.4-1.17,0.54c-0.42,0.13-0.82,0.2-1.2,0.2
		c-0.78,0-1.45-0.15-2.02-0.46c-0.57-0.31-1.01-0.74-1.31-1.28s-0.46-1.17-0.46-1.87c0-0.66,0.17-1.27,0.51-1.82s0.81-1,1.39-1.32
		c0.59-0.33,1.23-0.49,1.92-0.49c0.92,0,1.68,0.27,2.29,0.81c0.61,0.54,1.01,1.3,1.22,2.28l-5.22,1.76
		c0.18,0.28,0.42,0.49,0.72,0.64s0.63,0.22,0.99,0.22C273.65,63.12,274.16,62.94,274.67,62.59z M271.62,59.41
		c-0.36,0.39-0.54,0.91-0.54,1.54c0,0.12,0.01,0.21,0.02,0.27l3.55-1.26c-0.14-0.33-0.34-0.6-0.61-0.82
		c-0.27-0.21-0.61-0.32-1.04-0.32C272.44,58.82,271.98,59.01,271.62,59.41z"/>
	<path class="st0" d="M283.94,57.99c0.42,0.38,0.64,0.87,0.65,1.46v5.02h-1.79V60.1c-0.02-0.35-0.13-0.63-0.31-0.83
		c-0.19-0.2-0.47-0.31-0.84-0.32c-0.55,0-1.01,0.24-1.37,0.71s-0.54,1.08-0.54,1.82v3.01h-1.79v-6.77h1.62l0.13,1.2
		c0.25-0.47,0.6-0.83,1.06-1.1c0.46-0.26,1-0.39,1.61-0.39C283,57.42,283.52,57.61,283.94,57.99z"/>
	<path class="st0" d="M289.04,54.74v2.98h1.76v1.41h-1.76v5.36h-1.79v-5.36h-1.17v-1.41h1.17v-2.98
		C287.25,54.74,289.04,54.74,289.04,54.74z"/>
	<path class="st0" d="M292.65,64.34c-0.46-0.19-0.85-0.45-1.14-0.79l0.75-1.01c0.57,0.55,1.14,0.83,1.73,0.83
		c0.32,0,0.58-0.06,0.79-0.18c0.21-0.12,0.31-0.31,0.31-0.55c0-0.26-0.11-0.45-0.32-0.58c-0.21-0.13-0.45-0.23-0.71-0.31
		c-0.26-0.08-0.43-0.13-0.5-0.15c-0.59-0.18-1.02-0.45-1.31-0.79s-0.43-0.75-0.43-1.22c0-0.37,0.09-0.72,0.28-1.05
		c0.19-0.33,0.47-0.59,0.85-0.79s0.84-0.3,1.38-0.3c0.51,0,0.96,0.06,1.34,0.18s0.73,0.3,1.06,0.56l-0.69,1.07
		c-0.19-0.18-0.42-0.33-0.7-0.43c-0.27-0.11-0.52-0.16-0.74-0.16c-0.28,0-0.51,0.06-0.69,0.19s-0.27,0.29-0.27,0.5
		c-0.01,0.25,0.08,0.43,0.27,0.55s0.5,0.25,0.93,0.39c0.18,0.05,0.3,0.09,0.35,0.11c0.53,0.17,0.95,0.41,1.25,0.71
		s0.45,0.7,0.45,1.19c0,0.66-0.24,1.21-0.71,1.66c-0.47,0.44-1.15,0.66-2.04,0.66C293.6,64.62,293.11,64.53,292.65,64.34z"/>
</g>
</svg>
