<?xml version="1.0" encoding="utf-8"?>
<!-- Generator: Adobe Illustrator 23.0.0, SVG Export Plug-In . SVG Version: 6.00 Build 0)  -->
<svg version="1.1" id="Layer_1" xmlns="http://www.w3.org/2000/svg" xmlns:xlink="http://www.w3.org/1999/xlink" x="0px" y="0px"
	 viewBox="0 0 320 100" style="enable-background:new 0 0 320 100;" xml:space="preserve">
<style type="text/css">
	.st0{fill:#768961;}
</style>
<g>
	<path class="st0" d="M91.21,82.54c0.23,0.38,0.55,0.69,0.96,0.92c0.41,0.23,0.85,0.34,1.33,0.34c0.5,0,0.96-0.11,1.37-0.34
		c0.41-0.22,0.73-0.53,0.97-0.91c0.23-0.38,0.35-0.81,0.35-1.26v-7.46h1.84v7.5c0,0.83-0.2,1.57-0.6,2.22s-0.95,1.15-1.64,1.51
		s-1.46,0.54-2.29,0.54s-1.59-0.18-2.28-0.54s-1.23-0.87-1.62-1.51c-0.4-0.64-0.6-1.38-0.6-2.21v-7.5h1.86v7.46
		C90.86,81.74,90.97,82.15,91.21,82.54z"/>
	<path class="st0" d="M106.36,78.86c0.51,0.3,0.91,0.73,1.2,1.28c0.29,0.55,0.43,1.2,0.43,1.94c0,0.73-0.16,1.36-0.47,1.9
		s-0.75,0.96-1.31,1.25s-1.19,0.43-1.9,0.43c-0.45,0-0.88-0.09-1.3-0.27c-0.42-0.18-0.76-0.43-1.02-0.74v4.08h-1.79V78.58h1.55
		l0.16,1.01c0.35-0.36,0.76-0.65,1.22-0.86s0.97-0.32,1.51-0.32C105.28,78.41,105.85,78.56,106.36,78.86z M105.06,83.95
		c0.34-0.19,0.61-0.44,0.81-0.76s0.3-0.68,0.3-1.09c0-0.63-0.2-1.15-0.6-1.56c-0.4-0.41-0.89-0.62-1.48-0.62
		c-0.52,0-0.96,0.13-1.32,0.38s-0.62,0.61-0.78,1.07v1.36c0.11,0.44,0.34,0.79,0.7,1.07s0.78,0.42,1.27,0.42
		C104.35,84.23,104.72,84.14,105.06,83.95z"/>
	<path class="st0" d="M116.52,75.74v2.98h1.76v1.41h-1.76v5.36h-1.79v-5.36h-1.17v-1.41h1.17v-2.98H116.52z"/>
	<path class="st0" d="M119.5,80.18c0.33-0.55,0.78-0.99,1.35-1.3c0.58-0.31,1.23-0.47,1.97-0.47s1.39,0.16,1.96,0.47
		s1.01,0.75,1.32,1.3s0.46,1.17,0.46,1.85s-0.15,1.3-0.46,1.85c-0.31,0.55-0.75,0.98-1.32,1.3s-1.23,0.48-1.98,0.48
		c-0.73,0-1.38-0.15-1.95-0.44c-0.58-0.29-1.03-0.71-1.35-1.26c-0.33-0.55-0.49-1.19-0.49-1.93
		C119.02,81.35,119.18,80.74,119.5,80.18z M121.38,83.57c0.37,0.41,0.84,0.62,1.39,0.62c0.58,0,1.05-0.2,1.42-0.61
		c0.37-0.41,0.55-0.92,0.55-1.54s-0.18-1.13-0.55-1.54s-0.84-0.62-1.42-0.62c-0.55,0-1.02,0.21-1.39,0.63s-0.56,0.93-0.56,1.53
		C120.82,82.65,121.01,83.16,121.38,83.57z"/>
	<path class="st0" d="M139.94,83.24v2.24h-7.66l0.86-0.86c1-1.02,1.78-1.84,2.33-2.46s1.01-1.25,1.38-1.88
		c0.37-0.63,0.55-1.24,0.55-1.82c0-0.45-0.15-0.8-0.45-1.07s-0.69-0.4-1.18-0.4c-0.47,0-0.84,0.12-1.12,0.37s-0.42,0.52-0.42,0.83
		c0,0.63,0.21,1.16,0.62,1.6l-1.42,1.3c-0.29-0.14-0.54-0.38-0.77-0.72c-0.22-0.34-0.4-0.71-0.51-1.1s-0.18-0.73-0.18-1.01
		c0-0.6,0.17-1.17,0.5-1.7c0.33-0.54,0.81-0.97,1.45-1.3c0.63-0.33,1.38-0.5,2.25-0.5c0.7,0,1.33,0.16,1.89,0.49
		c0.55,0.33,0.99,0.76,1.3,1.3s0.46,1.12,0.46,1.73c0,0.57-0.11,1.12-0.33,1.66s-0.5,1.06-0.83,1.54c-0.34,0.49-0.78,1.07-1.34,1.77
		h2.62V83.24z"/>
	<path class="st0" d="M143.05,84.91c-0.67-0.4-1.21-1-1.6-1.81s-0.59-1.8-0.59-2.98c0-3.6,1.49-5.4,4.46-5.38
		c0.84-0.01,1.6,0.18,2.27,0.58s1.21,1,1.6,1.81s0.59,1.8,0.59,2.98c0,1.22-0.2,2.23-0.59,3.03c-0.39,0.81-0.93,1.4-1.6,1.78
		s-1.43,0.57-2.27,0.56C144.48,85.51,143.72,85.31,143.05,84.91z M146.9,82.41c0.31-0.58,0.47-1.36,0.47-2.35
		c0-2.05-0.69-3.07-2.06-3.07c-0.74,0-1.26,0.28-1.57,0.83c-0.31,0.55-0.46,1.32-0.46,2.29c0,0.98,0.15,1.75,0.46,2.32
		c0.31,0.57,0.83,0.85,1.57,0.85C146.05,83.27,146.58,82.98,146.9,82.41z"/>
	<path class="st0" d="M151.1,79.94c-0.43-0.56-0.65-1.29-0.65-2.2c0-0.91,0.22-1.64,0.65-2.19s1.07-0.83,1.93-0.83
		c0.84,0,1.48,0.28,1.92,0.84s0.66,1.29,0.66,2.18c0,0.91-0.22,1.64-0.66,2.2s-1.08,0.84-1.92,0.84
		C152.18,80.78,151.54,80.5,151.1,79.94z M153.77,85.51l-2.19-0.03l7.74-10.77h2.22L153.77,85.51z M152.54,78.83
		c0.09,0.25,0.25,0.38,0.49,0.38c0.23,0,0.39-0.13,0.48-0.38c0.08-0.25,0.13-0.62,0.13-1.1c0-0.52-0.04-0.89-0.13-1.11
		c-0.09-0.22-0.25-0.33-0.48-0.33c-0.25,0-0.41,0.11-0.5,0.33s-0.13,0.59-0.13,1.11C152.41,78.22,152.45,78.58,152.54,78.83z
		 M157.79,85.09c-0.43-0.56-0.65-1.29-0.65-2.2s0.22-1.64,0.65-2.19s1.07-0.83,1.93-0.83c0.84,0,1.48,0.28,1.92,0.84
		s0.66,1.29,0.66,2.18c0,0.91-0.22,1.64-0.66,2.2s-1.08,0.84-1.92,0.84C158.87,85.93,158.22,85.65,157.79,85.09z M159.23,83.98
		c0.09,0.25,0.25,0.38,0.49,0.38c0.23,0,0.39-0.13,0.48-0.38c0.08-0.25,0.13-0.62,0.13-1.1c0-0.52-0.04-0.89-0.13-1.11
		c-0.09-0.22-0.25-0.33-0.48-0.33c-0.25,0-0.41,0.11-0.5,0.33s-0.13,0.59-0.13,1.11C159.1,83.37,159.14,83.73,159.23,83.98z"/>
	<path class="st0" d="M168.77,76.62c0.54-0.93,1.27-1.67,2.19-2.22s1.92-0.82,3-0.82s2.08,0.28,3,0.82
		c0.92,0.55,1.66,1.29,2.21,2.22s0.82,1.93,0.82,2.99c0,1.09-0.27,2.09-0.82,3.01c-0.55,0.92-1.29,1.65-2.21,2.18
		c-0.92,0.54-1.92,0.81-3,0.81c-1.09,0-2.09-0.27-3.01-0.81s-1.65-1.27-2.18-2.18c-0.54-0.92-0.81-1.92-0.81-3.01
		C167.96,78.54,168.23,77.54,168.77,76.62z M170.85,81.5c0.33,0.58,0.77,1.03,1.33,1.37s1.18,0.5,1.86,0.5
		c0.66,0,1.26-0.17,1.81-0.5s0.97-0.79,1.28-1.36s0.46-1.2,0.46-1.9c0-0.7-0.16-1.34-0.48-1.92c-0.32-0.58-0.75-1.03-1.3-1.37
		s-1.16-0.5-1.83-0.5s-1.28,0.17-1.83,0.5s-0.98,0.79-1.3,1.37s-0.48,1.22-0.48,1.92C170.36,80.29,170.52,80.92,170.85,81.5z"/>
	<path class="st0" d="M189.22,73.7v2.24h-5.04v2.67h4.37v2.24h-4.37v4.62h-2.32V73.7H189.22z"/>
	<path class="st0" d="M198.37,73.7v2.24h-5.04v2.67h4.37v2.24h-4.37v4.62h-2.32V73.7H198.37z"/>
	<path class="st0" d="M211.99,73.83v1.79h-5.2v3.28h4.53v1.78h-4.53v4.8h-1.87V73.83H211.99z"/>
	<path class="st0" d="M212.75,80.18c0.33-0.55,0.78-0.99,1.35-1.3c0.58-0.31,1.23-0.47,1.97-0.47s1.39,0.16,1.96,0.47
		s1.01,0.75,1.32,1.3c0.31,0.55,0.46,1.17,0.46,1.85s-0.15,1.3-0.46,1.85c-0.31,0.55-0.75,0.98-1.32,1.3s-1.23,0.48-1.98,0.48
		c-0.73,0-1.38-0.15-1.95-0.44c-0.58-0.29-1.03-0.71-1.35-1.26c-0.33-0.55-0.49-1.19-0.49-1.93
		C212.26,81.35,212.42,80.74,212.75,80.18z M214.63,83.57c0.37,0.41,0.84,0.62,1.39,0.62c0.58,0,1.05-0.2,1.42-0.61
		s0.55-0.92,0.55-1.54s-0.18-1.13-0.55-1.54c-0.37-0.41-0.84-0.62-1.42-0.62c-0.55,0-1.02,0.21-1.39,0.63s-0.56,0.93-0.56,1.53
		C214.07,82.65,214.26,83.16,214.63,83.57z"/>
	<path class="st0" d="M223.77,79.3c0.33-0.29,0.67-0.51,1.02-0.66s0.64-0.23,0.87-0.23l-0.08,1.79c-0.49-0.04-0.93,0.05-1.31,0.26
		s-0.68,0.52-0.9,0.9c-0.21,0.38-0.32,0.78-0.32,1.21v2.91h-1.79v-6.77h1.62l0.13,1.57C223.18,79.92,223.44,79.59,223.77,79.3z"/>
	<path class="st0" d="M233.94,78.71v6.77h-1.79V84.5c-0.25,0.29-0.58,0.55-0.99,0.79c-0.42,0.24-0.9,0.36-1.46,0.36
		c-0.65,0-1.23-0.14-1.74-0.41c-0.51-0.27-0.92-0.67-1.22-1.21c-0.3-0.53-0.45-1.18-0.45-1.94c0-0.74,0.15-1.38,0.46-1.94
		c0.31-0.56,0.72-0.99,1.24-1.3c0.52-0.3,1.08-0.46,1.7-0.46c1.1,0,1.92,0.41,2.46,1.22l0.13-0.91h1.66V78.71z M231.44,83.81
		c0.34-0.25,0.57-0.61,0.71-1.06v-1.47c-0.13-0.42-0.38-0.75-0.74-1.01s-0.79-0.38-1.27-0.38c-0.57,0-1.04,0.2-1.44,0.6
		s-0.59,0.91-0.59,1.53c0,0.41,0.1,0.77,0.29,1.1c0.19,0.33,0.45,0.59,0.77,0.78s0.67,0.29,1.04,0.29
		C230.69,84.18,231.1,84.06,231.44,83.81z"/>
	<path class="st0" d="M236.53,85.34c-0.46-0.19-0.85-0.45-1.14-0.79l0.75-1.01c0.57,0.55,1.14,0.83,1.73,0.83
		c0.32,0,0.58-0.06,0.79-0.18c0.21-0.12,0.31-0.31,0.31-0.55c0-0.26-0.11-0.45-0.32-0.58c-0.21-0.13-0.45-0.23-0.71-0.31
		c-0.26-0.08-0.43-0.13-0.5-0.15c-0.59-0.18-1.02-0.45-1.31-0.79s-0.43-0.75-0.43-1.22c0-0.37,0.09-0.72,0.28-1.05
		s0.47-0.59,0.85-0.79c0.38-0.2,0.84-0.3,1.38-0.3c0.51,0,0.96,0.06,1.34,0.18c0.38,0.12,0.73,0.3,1.06,0.56l-0.69,1.07
		c-0.19-0.18-0.42-0.33-0.7-0.43c-0.27-0.11-0.52-0.16-0.74-0.16c-0.28,0-0.51,0.06-0.69,0.19s-0.27,0.29-0.27,0.5
		c-0.01,0.25,0.08,0.43,0.27,0.55s0.5,0.25,0.93,0.39c0.18,0.05,0.3,0.09,0.35,0.11c0.53,0.17,0.95,0.41,1.25,0.71
		c0.3,0.3,0.45,0.7,0.45,1.19c0,0.66-0.24,1.21-0.71,1.66c-0.47,0.44-1.15,0.66-2.04,0.66C237.48,85.62,236.99,85.53,236.53,85.34z"
		/>
	<path class="st0" d="M253.13,78.86c0.51,0.3,0.91,0.73,1.2,1.28s0.43,1.2,0.43,1.94c0,0.73-0.16,1.36-0.47,1.9
		s-0.75,0.96-1.31,1.25s-1.19,0.43-1.9,0.43c-0.45,0-0.88-0.09-1.3-0.27s-0.76-0.43-1.02-0.74v4.08h-1.79V78.58h1.55l0.16,1.01
		c0.35-0.36,0.76-0.65,1.22-0.86s0.97-0.32,1.51-0.32C252.04,78.41,252.61,78.56,253.13,78.86z M251.82,83.95
		c0.34-0.19,0.61-0.44,0.81-0.76s0.3-0.68,0.3-1.09c0-0.63-0.2-1.15-0.6-1.56c-0.4-0.41-0.89-0.62-1.48-0.62
		c-0.52,0-0.96,0.13-1.32,0.38s-0.62,0.61-0.78,1.07v1.36c0.11,0.44,0.34,0.79,0.7,1.07s0.78,0.42,1.27,0.42
		C251.12,84.23,251.49,84.14,251.82,83.95z"/>
	<path class="st0" d="M258.71,79.3c0.33-0.29,0.67-0.51,1.02-0.66s0.64-0.23,0.87-0.23l-0.08,1.79c-0.49-0.04-0.93,0.05-1.31,0.26
		s-0.68,0.52-0.9,0.9c-0.21,0.38-0.32,0.78-0.32,1.21v2.91h-1.79v-6.77h1.62l0.13,1.57C258.12,79.92,258.38,79.59,258.71,79.3z"/>
	<path class="st0" d="M261.61,80.18c0.33-0.55,0.78-0.99,1.35-1.3s1.23-0.47,1.97-0.47s1.39,0.16,1.96,0.47
		c0.57,0.31,1.01,0.75,1.32,1.3s0.46,1.17,0.46,1.85s-0.15,1.3-0.46,1.85c-0.31,0.55-0.75,0.98-1.32,1.3s-1.23,0.48-1.98,0.48
		c-0.73,0-1.38-0.15-1.95-0.44c-0.58-0.29-1.03-0.71-1.35-1.26c-0.33-0.55-0.49-1.19-0.49-1.93
		C261.13,81.35,261.29,80.74,261.61,80.18z M263.49,83.57c0.37,0.41,0.84,0.62,1.39,0.62c0.58,0,1.05-0.2,1.42-0.61
		c0.37-0.41,0.55-0.92,0.55-1.54s-0.18-1.13-0.55-1.54s-0.84-0.62-1.42-0.62c-0.55,0-1.02,0.21-1.39,0.63
		c-0.37,0.42-0.56,0.93-0.56,1.53C262.93,82.65,263.12,83.16,263.49,83.57z"/>
	<path class="st0" d="M277.33,73v12.48h-1.79v-0.91c-0.75,0.73-1.63,1.09-2.66,1.09c-0.63,0-1.2-0.15-1.7-0.45
		c-0.51-0.3-0.9-0.72-1.19-1.28c-0.29-0.55-0.43-1.2-0.43-1.94c0-0.74,0.15-1.38,0.46-1.92s0.73-0.96,1.26-1.24
		c0.54-0.28,1.15-0.42,1.83-0.42c0.49,0,0.96,0.09,1.39,0.28s0.79,0.44,1.06,0.76V73H277.33z M274.77,83.75
		c0.36-0.26,0.62-0.61,0.77-1.07v-1.44c-0.13-0.42-0.38-0.76-0.76-1.02c-0.38-0.27-0.82-0.4-1.32-0.4c-0.37,0-0.72,0.09-1.04,0.28
		s-0.58,0.44-0.77,0.77c-0.19,0.33-0.29,0.69-0.29,1.1s0.1,0.77,0.29,1.1s0.45,0.59,0.77,0.78c0.32,0.19,0.67,0.29,1.04,0.29
		C273.97,84.14,274.41,84.01,274.77,83.75z"/>
	<path class="st0" d="M285.86,78.71v6.77h-1.62l-0.11-1.22c-0.23,0.46-0.58,0.82-1.04,1.1c-0.46,0.27-0.98,0.41-1.57,0.41
		c-0.62,0-1.13-0.19-1.54-0.57s-0.62-0.87-0.63-1.46v-5.02h1.79v4.38c0.03,0.75,0.4,1.13,1.1,1.14c0.52,0,0.96-0.24,1.3-0.72
		c0.35-0.48,0.52-1.08,0.52-1.81v-2.99h1.8V78.71z"/>
	<path class="st0" d="M292.4,85.44c-0.43,0.14-0.87,0.22-1.3,0.22c-0.75,0-1.41-0.14-1.98-0.43s-1.01-0.7-1.32-1.24
		s-0.46-1.17-0.46-1.9c0-0.71,0.17-1.34,0.5-1.88s0.77-0.95,1.32-1.24c0.55-0.29,1.14-0.43,1.77-0.43c1.07,0,1.95,0.29,2.64,0.86
		l-0.9,1.17c-0.2-0.16-0.44-0.3-0.71-0.41s-0.56-0.17-0.87-0.17c-0.54,0-1.01,0.2-1.38,0.6c-0.38,0.4-0.57,0.9-0.57,1.5
		s0.2,1.1,0.6,1.5s0.91,0.6,1.53,0.6c0.53,0,0.98-0.15,1.34-0.45l0.9,1.12C293.2,85.1,292.83,85.3,292.4,85.44z"/>
	<path class="st0" d="M297.33,75.74v2.98h1.76v1.41h-1.76v5.36h-1.79v-5.36h-1.17v-1.41h1.17v-2.98H297.33z"/>
	<path class="st0" d="M300.96,85.34c-0.46-0.19-0.85-0.45-1.14-0.79l0.75-1.01c0.57,0.55,1.14,0.83,1.73,0.83
		c0.32,0,0.58-0.06,0.79-0.18c0.21-0.12,0.31-0.31,0.31-0.55c0-0.26-0.11-0.45-0.32-0.58c-0.21-0.13-0.45-0.23-0.71-0.31
		c-0.26-0.08-0.43-0.13-0.5-0.15c-0.59-0.18-1.02-0.45-1.31-0.79s-0.43-0.75-0.43-1.22c0-0.37,0.09-0.72,0.28-1.05
		s0.47-0.59,0.85-0.79c0.38-0.2,0.84-0.3,1.38-0.3c0.51,0,0.96,0.06,1.34,0.18s0.73,0.3,1.06,0.56l-0.69,1.07
		c-0.19-0.18-0.42-0.33-0.7-0.43c-0.27-0.11-0.52-0.16-0.74-0.16c-0.28,0-0.51,0.06-0.69,0.19s-0.27,0.29-0.27,0.5
		c-0.01,0.25,0.08,0.43,0.27,0.55s0.5,0.25,0.93,0.39c0.18,0.05,0.3,0.09,0.35,0.11c0.53,0.17,0.95,0.41,1.25,0.71
		c0.3,0.3,0.45,0.7,0.45,1.19c0,0.66-0.24,1.21-0.71,1.66c-0.47,0.44-1.15,0.66-2.04,0.66C301.92,85.62,301.42,85.53,300.96,85.34z"
		/>
</g>
</svg>
