<?xml version="1.0" encoding="utf-8"?>
<!-- Generator: Adobe Illustrator 23.0.0, SVG Export Plug-In . SVG Version: 6.00 Build 0)  -->
<svg version="1.1" id="Layer_1" xmlns="http://www.w3.org/2000/svg" xmlns:xlink="http://www.w3.org/1999/xlink" x="0px" y="0px"
	 viewBox="0 0 320 100" style="enable-background:new 0 0 320 100;" xml:space="preserve">
<style type="text/css">
	.st0{fill:#BB8C54;}
</style>
<g>
	<path class="st0" d="M125.58,59.35c0.33-0.55,0.78-0.99,1.35-1.3s1.23-0.47,1.97-0.47c0.74,0,1.39,0.16,1.96,0.47
		s1.01,0.75,1.32,1.3c0.31,0.55,0.46,1.17,0.46,1.85s-0.15,1.3-0.46,1.85c-0.31,0.55-0.75,0.98-1.32,1.3s-1.23,0.48-1.98,0.48
		c-0.73,0-1.38-0.15-1.95-0.44c-0.58-0.29-1.03-0.71-1.35-1.26c-0.33-0.55-0.49-1.19-0.49-1.93
		C125.09,60.52,125.25,59.91,125.58,59.35z M127.46,62.74c0.37,0.41,0.84,0.62,1.39,0.62c0.58,0,1.05-0.2,1.42-0.61
		s0.55-0.92,0.55-1.54c0-0.62-0.18-1.13-0.55-1.54c-0.37-0.41-0.84-0.62-1.42-0.62c-0.55,0-1.02,0.21-1.39,0.63
		c-0.37,0.42-0.56,0.93-0.56,1.53C126.9,61.82,127.08,62.33,127.46,62.74z"/>
	<path class="st0" d="M141.04,57.88v6.77h-1.62l-0.11-1.22c-0.23,0.46-0.58,0.82-1.04,1.1c-0.46,0.27-0.98,0.41-1.57,0.41
		c-0.62,0-1.13-0.19-1.54-0.57c-0.41-0.38-0.62-0.87-0.63-1.46v-5.02h1.79v4.38c0.03,0.75,0.4,1.13,1.1,1.14
		c0.52,0,0.96-0.24,1.3-0.72c0.35-0.48,0.52-1.08,0.52-1.81v-2.99L141.04,57.88L141.04,57.88z"/>
	<path class="st0" d="M146.03,58.47c0.33-0.29,0.67-0.51,1.02-0.66s0.64-0.23,0.87-0.23l-0.08,1.79c-0.49-0.04-0.93,0.05-1.31,0.26
		s-0.68,0.52-0.9,0.9c-0.21,0.38-0.32,0.78-0.32,1.21v2.91h-1.79v-6.77h1.62l0.13,1.57C145.45,59.09,145.7,58.76,146.03,58.47z"/>
	<path class="st0" d="M162.32,53v1.79h-5.2v3.28h4.53v1.78h-4.53v4.8h-1.87V53H162.32z"/>
	<path class="st0" d="M170.56,57.88v6.77h-1.62l-0.11-1.22c-0.23,0.46-0.58,0.82-1.04,1.1c-0.46,0.27-0.98,0.41-1.57,0.41
		c-0.62,0-1.13-0.19-1.54-0.57c-0.41-0.38-0.62-0.87-0.63-1.46v-5.02h1.79v4.38c0.03,0.75,0.4,1.13,1.1,1.14
		c0.52,0,0.96-0.24,1.3-0.72c0.35-0.48,0.52-1.08,0.52-1.81v-2.99L170.56,57.88L170.56,57.88z"/>
	<path class="st0" d="M173.59,64.51c-0.46-0.19-0.85-0.45-1.14-0.79l0.75-1.01c0.57,0.55,1.14,0.83,1.73,0.83
		c0.32,0,0.58-0.06,0.79-0.18c0.21-0.12,0.31-0.31,0.31-0.55c0-0.26-0.11-0.45-0.32-0.58S175.26,62,175,61.92
		c-0.26-0.08-0.43-0.13-0.5-0.15c-0.59-0.18-1.02-0.45-1.31-0.79s-0.43-0.75-0.43-1.22c0-0.37,0.09-0.72,0.28-1.05
		c0.19-0.33,0.47-0.59,0.85-0.79s0.84-0.3,1.38-0.3c0.51,0,0.96,0.06,1.34,0.18c0.38,0.12,0.73,0.3,1.06,0.56l-0.69,1.07
		c-0.19-0.18-0.42-0.33-0.7-0.43c-0.27-0.11-0.52-0.16-0.74-0.16c-0.28,0-0.51,0.06-0.69,0.19s-0.27,0.29-0.27,0.5
		c-0.01,0.25,0.08,0.43,0.27,0.55s0.5,0.25,0.93,0.39c0.18,0.05,0.3,0.09,0.35,0.11c0.53,0.17,0.95,0.41,1.25,0.71
		s0.45,0.7,0.45,1.19c0,0.66-0.24,1.21-0.71,1.66c-0.47,0.44-1.15,0.66-2.04,0.66C174.55,64.79,174.06,64.7,173.59,64.51z"/>
	<path class="st0" d="M180.05,54.78c0.21-0.19,0.45-0.28,0.72-0.28c0.26,0,0.49,0.09,0.7,0.28s0.31,0.41,0.31,0.68
		s-0.1,0.49-0.31,0.67s-0.44,0.27-0.7,0.27c-0.27,0-0.51-0.09-0.72-0.27s-0.32-0.41-0.32-0.67S179.83,54.97,180.05,54.78z
		 M181.6,57.88v6.77h-1.79v-6.77H181.6z"/>
	<path class="st0" d="M183.99,59.35c0.33-0.55,0.78-0.99,1.35-1.3s1.23-0.47,1.97-0.47s1.39,0.16,1.96,0.47s1.01,0.75,1.32,1.3
		c0.31,0.55,0.46,1.17,0.46,1.85s-0.15,1.3-0.46,1.85c-0.31,0.55-0.75,0.98-1.32,1.3s-1.23,0.48-1.98,0.48
		c-0.73,0-1.38-0.15-1.95-0.44c-0.58-0.29-1.03-0.71-1.35-1.26c-0.33-0.55-0.49-1.19-0.49-1.93
		C183.5,60.52,183.67,59.91,183.99,59.35z M185.87,62.74c0.37,0.41,0.84,0.62,1.39,0.62c0.58,0,1.05-0.2,1.42-0.61
		s0.55-0.92,0.55-1.54c0-0.62-0.18-1.13-0.55-1.54c-0.37-0.41-0.84-0.62-1.42-0.62c-0.55,0-1.02,0.21-1.39,0.63
		c-0.37,0.42-0.56,0.93-0.56,1.53C185.31,61.82,185.5,62.33,185.87,62.74z"/>
	<path class="st0" d="M198.93,58.16c0.42,0.38,0.64,0.87,0.65,1.46v5.02h-1.79v-4.38c-0.02-0.35-0.13-0.63-0.31-0.83
		c-0.19-0.2-0.47-0.31-0.84-0.32c-0.55,0-1.01,0.24-1.37,0.71s-0.54,1.08-0.54,1.82v3.01h-1.79v-6.77h1.62l0.13,1.2
		c0.25-0.47,0.6-0.83,1.06-1.1c0.46-0.26,1-0.39,1.61-0.39C197.99,57.59,198.51,57.78,198.93,58.16z"/>
	<path class="st0" d="M120.5,86.16l-2.75-6.94l-3.09,6.98L110,74.06h2.18l2.72,7.78l1.94-4.96l-1.12-2.82h1.84l2.99,7.55l2.5-7.55h2
		L120.5,86.16z"/>
	<path class="st0" d="M132.48,78.88v6.77h-1.79v-0.98c-0.25,0.29-0.58,0.55-0.99,0.79c-0.42,0.24-0.9,0.36-1.46,0.36
		c-0.65,0-1.23-0.14-1.74-0.41c-0.51-0.27-0.92-0.67-1.22-1.21c-0.3-0.53-0.45-1.18-0.45-1.94c0-0.74,0.15-1.38,0.46-1.94
		c0.31-0.56,0.72-0.99,1.24-1.3c0.52-0.3,1.08-0.46,1.7-0.46c1.1,0,1.92,0.41,2.46,1.22l0.13-0.91h1.66V78.88z M129.98,83.98
		c0.34-0.25,0.57-0.61,0.71-1.06v-1.47c-0.13-0.42-0.38-0.75-0.74-1.01s-0.79-0.38-1.27-0.38c-0.57,0-1.04,0.2-1.44,0.6
		s-0.59,0.91-0.59,1.53c0,0.41,0.1,0.77,0.29,1.1s0.45,0.59,0.77,0.78c0.32,0.19,0.67,0.29,1.04,0.29
		C129.23,84.35,129.64,84.23,129.98,83.98z"/>
	<path class="st0" d="M137.41,75.9v2.98h1.76v1.41h-1.76v5.36h-1.79v-5.36h-1.17v-1.41h1.17V75.9H137.41z"/>
	<path class="st0" d="M145.71,83.76l0.82,1.33c-0.36,0.22-0.75,0.4-1.17,0.54c-0.42,0.13-0.82,0.2-1.2,0.2
		c-0.78,0-1.45-0.15-2.02-0.46s-1.01-0.74-1.31-1.28s-0.46-1.17-0.46-1.87c0-0.66,0.17-1.27,0.51-1.82s0.81-1,1.39-1.32
		c0.59-0.33,1.23-0.49,1.92-0.49c0.92,0,1.68,0.27,2.29,0.81s1.01,1.3,1.22,2.28l-5.22,1.76c0.18,0.28,0.42,0.49,0.72,0.64
		s0.63,0.22,0.99,0.22C144.69,84.29,145.2,84.11,145.71,83.76z M142.66,80.58c-0.36,0.39-0.54,0.91-0.54,1.54
		c0,0.12,0.01,0.21,0.02,0.27l3.55-1.26c-0.14-0.33-0.34-0.6-0.61-0.82c-0.27-0.21-0.61-0.32-1.04-0.32
		C143.48,79.98,143.02,80.18,142.66,80.58z"/>
	<path class="st0" d="M151.97,79.47c0.33-0.29,0.67-0.51,1.02-0.66s0.64-0.23,0.87-0.23l-0.08,1.79c-0.49-0.04-0.93,0.05-1.31,0.26
		s-0.68,0.52-0.9,0.9c-0.21,0.38-0.32,0.78-0.32,1.21v2.91h-1.79v-6.77h1.62l0.13,1.57C151.38,80.09,151.64,79.76,151.97,79.47z"/>
	<path class="st0" d="M168.25,74v1.79h-5.2v3.28h4.53v1.78h-4.53v4.8h-1.87V74H168.25z"/>
	<path class="st0" d="M174.32,83.76l0.82,1.33c-0.36,0.22-0.75,0.4-1.17,0.54c-0.42,0.13-0.82,0.2-1.2,0.2
		c-0.78,0-1.45-0.15-2.02-0.46s-1.01-0.74-1.31-1.28s-0.46-1.17-0.46-1.87c0-0.66,0.17-1.27,0.51-1.82s0.81-1,1.39-1.32
		c0.59-0.33,1.23-0.49,1.92-0.49c0.92,0,1.68,0.27,2.29,0.81s1.01,1.3,1.22,2.28l-5.22,1.76c0.18,0.28,0.42,0.49,0.72,0.64
		s0.63,0.22,0.99,0.22C173.3,84.29,173.81,84.11,174.32,83.76z M171.27,80.58c-0.36,0.39-0.54,0.91-0.54,1.54
		c0,0.12,0.01,0.21,0.02,0.27l3.55-1.26c-0.14-0.33-0.34-0.6-0.61-0.82c-0.27-0.21-0.61-0.32-1.04-0.32
		C172.09,79.98,171.63,80.18,171.27,80.58z"/>
	<path class="st0" d="M185.15,78.88v6.77h-1.79v-0.98c-0.25,0.29-0.58,0.55-0.99,0.79c-0.42,0.24-0.9,0.36-1.46,0.36
		c-0.65,0-1.23-0.14-1.74-0.41c-0.51-0.27-0.92-0.67-1.22-1.21c-0.3-0.53-0.45-1.18-0.45-1.94c0-0.74,0.15-1.38,0.46-1.94
		c0.31-0.56,0.72-0.99,1.24-1.3c0.52-0.3,1.08-0.46,1.7-0.46c1.1,0,1.92,0.41,2.46,1.22l0.13-0.91h1.66V78.88z M182.65,83.98
		c0.34-0.25,0.57-0.61,0.71-1.06v-1.47c-0.13-0.42-0.38-0.75-0.74-1.01s-0.79-0.38-1.27-0.38c-0.57,0-1.04,0.2-1.44,0.6
		s-0.59,0.91-0.59,1.53c0,0.41,0.1,0.77,0.29,1.1c0.19,0.33,0.45,0.59,0.77,0.78s0.67,0.29,1.04,0.29
		C181.9,84.35,182.31,84.23,182.65,83.98z"/>
	<path class="st0" d="M190.08,75.9v2.98h1.76v1.41h-1.76v5.36h-1.79v-5.36h-1.17v-1.41h1.17V75.9H190.08z"/>
	<path class="st0" d="M200.11,78.88v6.77h-1.62l-0.11-1.22c-0.23,0.46-0.58,0.82-1.04,1.1c-0.46,0.27-0.98,0.41-1.57,0.41
		c-0.62,0-1.13-0.19-1.54-0.57c-0.41-0.38-0.62-0.87-0.63-1.46v-5.02h1.79v4.38c0.03,0.75,0.4,1.13,1.1,1.14
		c0.52,0,0.96-0.24,1.3-0.72c0.35-0.48,0.52-1.08,0.52-1.81v-2.99h1.8V78.88z"/>
	<path class="st0" d="M205.1,79.47c0.33-0.29,0.67-0.51,1.02-0.66s0.64-0.23,0.87-0.23l-0.08,1.79c-0.49-0.04-0.93,0.05-1.31,0.26
		s-0.68,0.52-0.9,0.9c-0.21,0.38-0.32,0.78-0.32,1.21v2.91h-1.79v-6.77h1.62l0.13,1.57C204.52,80.09,204.77,79.76,205.1,79.47z"/>
	<path class="st0" d="M213.31,83.76l0.82,1.33c-0.36,0.22-0.75,0.4-1.17,0.54c-0.42,0.13-0.82,0.2-1.2,0.2
		c-0.78,0-1.45-0.15-2.02-0.46s-1.01-0.74-1.31-1.28s-0.46-1.17-0.46-1.87c0-0.66,0.17-1.27,0.51-1.82s0.81-1,1.39-1.32
		c0.59-0.33,1.23-0.49,1.92-0.49c0.92,0,1.68,0.27,2.29,0.81s1.01,1.3,1.22,2.28l-5.22,1.76c0.18,0.28,0.42,0.49,0.72,0.64
		s0.63,0.22,0.99,0.22C212.29,84.29,212.8,84.11,213.31,83.76z M210.26,80.58c-0.36,0.39-0.54,0.91-0.54,1.54
		c0,0.12,0.01,0.21,0.02,0.27l3.55-1.26c-0.14-0.33-0.34-0.6-0.61-0.82c-0.27-0.21-0.61-0.32-1.04-0.32
		C211.08,79.98,210.62,80.18,210.26,80.58z"/>
</g>
</svg>
