<?xml version="1.0" encoding="utf-8"?>
<!-- Generator: Adobe Illustrator 26.0.3, SVG Export Plug-In . SVG Version: 6.00 Build 0)  -->
<svg version="1.1" id="Layer_1" xmlns="http://www.w3.org/2000/svg" xmlns:xlink="http://www.w3.org/1999/xlink" x="0px" y="0px"
	 viewBox="0 0 970 250" style="enable-background:new 0 0 970 250;" xml:space="preserve">
<style type="text/css">
	.st0{fill:#CDFFFF;}
</style>
<g>
	<g>
		<path class="st0" d="M39.7,95.9h7.4v14.4c2.1-2.7,5.3-4.3,8.7-4.3c7.2,0,12.5,5.6,12.5,14.9c0,9.4-5.4,14.8-12.5,14.8
			c-3.4,0-6.6-1.6-8.7-4.3v3.6h-7.4V95.9z M53.5,129c4.3,0,7.2-3.3,7.2-8.2s-2.9-8.2-7.2-8.2c-2.5,0.1-4.9,1.3-6.4,3.3v10
			C48.7,127.8,51,129,53.5,129z"/>
		<path class="st0" d="M73.2,98.1c0-2.5,2-4.5,4.4-4.5s4.5,2,4.5,4.4c0,2.5-2,4.5-4.4,4.5c0,0,0,0,0,0
			C75.2,102.5,73.2,100.5,73.2,98.1z M74,106.7h7.4v28.3H74L74,106.7z"/>
		<path class="st0" d="M99.6,124l-3.4,3.6v7.3h-7.4v-39h7.4v23.3l10.7-12.6h9.1l-11.2,12.8l11.5,15.4h-9.3L99.6,124z"/>
		<path class="st0" d="M132.5,106c8.4,0,14.2,6.3,14.2,15.6v1.6h-21c0.5,3.6,3.3,6.6,8.1,6.6c2.8,0,5.4-1,7.5-2.8l3.3,4.8
			c-2.8,2.6-7.2,3.9-11.6,3.9c-8.6,0-15.1-5.8-15.1-14.9C117.9,112.6,123.9,106,132.5,106z M125.5,118.2h13.9
			c-0.1-3.6-3.2-6.4-6.8-6.3c-0.1,0-0.1,0-0.2,0C128.9,111.9,125.9,114.6,125.5,118.2L125.5,118.2z"/>
		<path class="st0" d="M166.5,95.9h7.4v39h-7.4V95.9z"/>
		<path class="st0" d="M198.3,132c-1.9,2.3-5.3,3.6-9,3.6c-4.5,0-9.8-3-9.8-9.4c0-6.6,5.3-9,9.8-9c3.7,0,7.1,1.2,9,3.4v-3.9
			c0-2.9-2.5-4.7-6.2-4.7c-3.1,0-6,1.2-8.2,3.3l-2.8-5c3.4-2.9,7.8-4.5,12.3-4.4c6.4,0,12.4,2.6,12.4,10.7V135h-7.4L198.3,132z
			 M198.3,124.6c-1.2-1.6-3.6-2.4-6-2.4c-2.9,0-5.3,1.5-5.3,4.3s2.4,4.1,5.3,4.1c2.4,0,4.7-0.8,6-2.5V124.6z"/>
		<path class="st0" d="M223.9,124l-3.4,3.6v7.3h-7.4v-39h7.4v23.3l10.7-12.6h9.1l-11.2,12.8l11.5,15.4h-9.3L223.9,124z"/>
		<path class="st0" d="M256.8,106c8.4,0,14.2,6.3,14.2,15.6v1.6h-21c0.5,3.6,3.3,6.6,8.1,6.6c2.8,0,5.4-1,7.5-2.8l3.3,4.8
			c-2.8,2.6-7.2,3.9-11.6,3.9c-8.6,0-15.1-5.8-15.1-14.9C242.1,112.6,248.2,106,256.8,106z M249.8,118.2h13.9
			c-0.1-3.6-3.2-6.4-6.8-6.3c-0.1,0-0.1,0-0.2,0C253.1,111.9,250.1,114.6,249.8,118.2L249.8,118.2z"/>
		<path class="st0" d="M277.1,126c2.7,2.3,6.2,3.7,9.8,3.9c3.2,0,4.7-1.1,4.7-2.9c0-2-2.5-2.7-5.7-3.3c-4.9-0.9-11.1-2.1-11.1-8.8
			c0-4.7,4.1-8.9,11.6-8.9c4.1-0.1,8.2,1.3,11.4,3.9l-3,5.1c-2.3-2.1-5.3-3.3-8.4-3.3c-2.7,0-4.5,1-4.5,2.6s2.2,2.4,5.4,3
			c4.9,0.9,11.4,2.2,11.4,9.2c0,5.2-4.4,9.1-12.2,9.1c-4.9,0-9.7-1.6-12.6-4.4L277.1,126z"/>
		<path class="st0" d="M303.4,98.1c0-2.5,2-4.5,4.5-4.5c2.5,0,4.4,2,4.4,4.4s-2,4.4-4.4,4.5C305.4,102.5,303.5,100.5,303.4,98.1z
			 M304.2,106.7h7.4v28.3h-7.4V106.7z"/>
		<path class="st0" d="M338.4,131.3c-2.1,2.7-5.3,4.3-8.7,4.3c-7.1,0-12.5-5.4-12.5-14.8c0-9.2,5.3-14.9,12.5-14.9
			c3.4,0,6.7,1.6,8.7,4.3V95.9h7.5v39h-7.5V131.3z M338.4,115.8c-1.5-2-3.9-3.2-6.4-3.2c-4.2,0-7.1,3.3-7.1,8.2s2.9,8.2,7.1,8.2
			c2.5,0,4.9-1.2,6.4-3.2L338.4,115.8z"/>
		<path class="st0" d="M366.1,106c8.4,0,14.2,6.3,14.2,15.6v1.6h-21c0.5,3.6,3.3,6.6,8.1,6.6c2.8,0,5.4-1,7.5-2.8l3.3,4.8
			c-2.8,2.6-7.2,3.9-11.6,3.9c-8.6,0-15.1-5.8-15.1-14.9C351.5,112.6,357.5,106,366.1,106z M359.1,118.2H373
			c-0.1-3.6-3.2-6.4-6.8-6.3c-0.1,0-0.1,0-0.2,0C362.4,111.9,359.4,114.6,359.1,118.2L359.1,118.2z"/>
		<path class="st0" d="M389.2,126.1c2.6,0,4.7,2.1,4.7,4.7c0,2.6-2.1,4.7-4.7,4.7c-2.6,0-4.7-2.1-4.7-4.7l0,0
			C384.5,128.2,386.6,126.1,389.2,126.1z"/>
	</g>
</g>
</svg>
