<?xml version="1.0" encoding="utf-8"?>
<!-- Generator: Adobe Illustrator 26.0.3, SVG Export Plug-In . SVG Version: 6.00 Build 0)  -->
<svg version="1.1" id="Layer_1" xmlns="http://www.w3.org/2000/svg" xmlns:xlink="http://www.w3.org/1999/xlink" x="0px" y="0px"
	 viewBox="0 0 970 250" style="enable-background:new 0 0 970 250;" xml:space="preserve">
<style type="text/css">
	.st0{fill:#CDFFFF;}
</style>
<g>
	<g>
		<path class="st0" d="M140.8,50.5h-11.4v-7.3h31.1v7.3h-11.3v31.7h-8.4L140.8,50.5z"/>
		<path class="st0" d="M172.8,53.2c8.4,0,14.2,6.3,14.2,15.6v1.6h-21c0.5,3.6,3.3,6.6,8.1,6.6c2.8,0,5.4-1,7.6-2.8l3.3,4.8
			c-2.8,2.6-7.2,3.9-11.6,3.9c-8.6,0-15.1-5.8-15.1-14.9C158.1,59.9,164.2,53.2,172.8,53.2z M165.8,65.4h13.9
			c-0.1-3.6-3.2-6.4-6.8-6.3c-0.1,0-0.1,0-0.2,0C169.1,59.1,166.1,61.8,165.8,65.4L165.8,65.4z"/>
		<path class="st0" d="M232.3,75.5h-17.4l-2.5,6.7h-9.1l15.1-39h10.4l15,39h-9.1L232.3,75.5z M217.1,68.3H230l-6.4-17.9L217.1,68.3z
			"/>
		<path class="st0" d="M266.4,65.1c0-3.9-2-5.3-5.2-5.3c-2.6,0-5,1.3-6.4,3.3v19h-7.4V54h7.4v3.7c2.5-2.8,6.1-4.4,9.9-4.4
			c6.2,0,9.2,3.5,9.2,9v19.9h-7.4L266.4,65.1z"/>
		<path class="st0" d="M298.1,79.3c-1.9,2.3-5.3,3.6-9,3.6c-4.5,0-9.8-3-9.8-9.4c0-6.6,5.3-9,9.8-9c3.7,0,7.1,1.2,9,3.5v-3.9
			c0-2.9-2.5-4.7-6.2-4.7c-3.1,0-6,1.2-8.2,3.3l-2.8-5c3.4-2.9,7.8-4.5,12.3-4.5c6.4,0,12.4,2.6,12.4,10.7v18.3h-7.4V79.3z
			 M298.1,71.9c-1.2-1.6-3.6-2.4-6-2.4c-2.9,0-5.3,1.5-5.3,4.3s2.4,4.2,5.3,4.2c2.4,0,4.7-0.8,6-2.5V71.9z"/>
		<path class="st0" d="M332,78.6c-2.6,2.8-6.2,4.3-10,4.3c-6.2,0-9.1-3.4-9.1-8.9V54h7.4v17.1c0,3.9,2,5.2,5.2,5.2
			c2.5,0,4.9-1.2,6.5-3.2V54h7.4v28.2H332V78.6z"/>
		<path class="st0" d="M370.9,50.5h-11.4v-7.3h31.1v7.3h-11.4v31.7h-8.4V50.5z"/>
		<path class="st0" d="M395,45.3c0-2.4,2-4.4,4.5-4.4c2.5,0.1,4.4,2.2,4.2,4.7c-0.1,2.3-1.9,4.1-4.2,4.2C397,49.8,395,47.8,395,45.3
			z M395.8,53.9h7.4v28.3h-7.4L395.8,53.9z"/>
		<path class="st0" d="M445.6,64.4c0-2.6-1.2-4.5-4.2-4.5c-2.4,0.1-4.5,1.3-5.9,3.3v19.1h-7.5V64.4c0-2.6-1.2-4.5-4.2-4.5
			c-2.4,0.1-4.6,1.4-5.9,3.3v19h-7.4V54h7.4v3.7c2.3-2.7,5.7-4.3,9.2-4.4c4.2,0,6.8,1.9,7.8,5.2c2.2-3.2,5.8-5.1,9.7-5.2
			c5.2,0,8.3,2.8,8.3,8.5v20.4h-7.5L445.6,64.4z"/>
		<path class="st0" d="M473.2,53.2c8.4,0,14.2,6.3,14.2,15.6v1.6h-21c0.5,3.6,3.3,6.6,8.1,6.6c2.8,0,5.4-1,7.5-2.8l3.3,4.8
			c-2.8,2.6-7.2,3.9-11.6,3.9c-8.6,0-15.1-5.8-15.1-14.9C458.6,59.9,464.6,53.2,473.2,53.2z M466.2,65.4h13.9
			c-0.1-3.6-3.2-6.4-6.8-6.3c-0.1,0-0.1,0-0.2,0C469.6,59.1,466.6,61.8,466.2,65.4L466.2,65.4z"/>
		<path class="st0" d="M496.4,73.4c2.6,0,4.7,2.1,4.7,4.7c0,2.6-2.1,4.7-4.7,4.7c-2.6,0-4.7-2.1-4.8-4.7c0,0,0,0,0,0
			C491.7,75.5,493.8,73.4,496.4,73.4z"/>
	</g>
</g>
</svg>
