<?xml version="1.0" encoding="utf-8"?>
<!-- Generator: Adobe Illustrator 26.0.3, SVG Export Plug-In . SVG Version: 6.00 Build 0)  -->
<svg version="1.1" id="Layer_1" xmlns="http://www.w3.org/2000/svg" xmlns:xlink="http://www.w3.org/1999/xlink" x="0px" y="0px"
	 viewBox="0 0 970 250" style="enable-background:new 0 0 970 250;" xml:space="preserve">
<style type="text/css">
	.st0{clip-path:url(#SVGID_00000160190078895818447250000001481545065082916251_);}
	.st1{fill:#FFFFFF;}
	.st2{fill:#80919E;}
</style>
<g>
	<g>
		<g>
			<defs>
				<rect id="SVGID_1_" width="970" height="250"/>
			</defs>
			<clipPath id="SVGID_00000012459499638571615190000003815317615609065917_">
				<use xlink:href="#SVGID_1_"  style="overflow:visible;"/>
			</clipPath>
			<g style="clip-path:url(#SVGID_00000012459499638571615190000003815317615609065917_);">
				<path class="st1" d="M59.5,106c-13-0.4-23.8,9.8-24.2,22.8c-0.4,13,9.8,23.8,22.8,24.2c0.5,0,0.9,0,1.4,0h98
					c13,0.4,23.8-9.8,24.2-22.8c0.4-13-9.8-23.8-22.8-24.2c-0.5,0-0.9,0-1.4,0H59.5z"/>
			</g>
		</g>
		<path class="st2" d="M59.1,121.8h7.1c2.7-0.2,5,1.9,5.2,4.6c0.2,2.7-1.9,5-4.6,5.2c-0.2,0-0.4,0-0.6,0h-3.9v5.5h-3.2V121.8z
			 M65.8,124.6h-3.5v4.2h3.5c1.2,0.1,2.2-0.8,2.3-2c0.1-1.2-0.8-2.2-2-2.3C66,124.6,65.9,124.6,65.8,124.6z"/>
		<path class="st2" d="M73.2,121.8h2.9v15.2h-2.9V121.8z"/>
		<path class="st2" d="M85.7,135.9c-0.9,1-2.2,1.5-3.5,1.4c-2,0.1-3.7-1.5-3.8-3.5c0,0,0-0.1,0-0.1c0-2.6,2.1-3.5,3.8-3.5
			c1.3-0.1,2.6,0.4,3.5,1.4V130c0-1.1-1-1.9-2.4-1.9c-1.2,0-2.4,0.5-3.2,1.3l-1.1-2c1.3-1.1,3.1-1.8,4.8-1.7c2.5,0,4.8,1,4.8,4.2
			v7.1h-2.9L85.7,135.9z M85.7,133c-0.6-0.7-1.4-1-2.3-1c-1.1,0-2.1,0.6-2.1,1.7s0.9,1.6,2.1,1.6c0.9,0,1.8-0.3,2.3-1V133z"/>
		<path class="st2" d="M98.9,130.4c0.2-1-0.5-1.9-1.5-2.1c-0.2,0-0.3,0-0.5,0c-1,0-1.9,0.5-2.5,1.3v7.4h-2.9V126h2.9v1.4
			c1-1.1,2.4-1.7,3.9-1.7c2.4,0,3.6,1.4,3.6,3.5v7.8h-2.9V130.4z"/>
		<path class="st2" d="M113.8,126.8v10.2h-3.2v-15.2h3.3l7.1,9.9v-9.9h3.2v15.2h-3.1L113.8,126.8z"/>
		<path class="st2" d="M126.5,131.5c0-3.2,2.6-5.9,5.8-5.9s5.9,2.6,5.9,5.8c0,3.2-2.6,5.9-5.8,5.9c0,0,0,0,0,0
			c-3.1,0.1-5.7-2.3-5.8-5.3C126.5,131.9,126.5,131.7,126.5,131.5z M135.1,131.5c0.2-1.6-1-3-2.6-3.2c-0.1,0-0.1,0-0.2,0
			c-1.8,0-2.8,1.5-2.8,3.2s1,3.2,2.8,3.2S135.1,133.3,135.1,131.5z"/>
		<path class="st2" d="M147.7,129.6l-2.3,7.5h-3.1l-3.4-11h3l2,7.4l2.4-7.4h2.7l2.4,7.4l2.1-7.4h3l-3.4,11H150L147.7,129.6z"/>
		<path class="st2" d="M158.6,133.6c1,0,1.8,0.8,1.8,1.9s-0.8,1.8-1.9,1.8c-1,0-1.8-0.8-1.8-1.8
			C156.7,134.5,157.5,133.6,158.6,133.6z"/>
	</g>
</g>
</svg>
