<?xml version="1.0" encoding="utf-8"?>
<!-- Generator: Adobe Illustrator 26.0.3, SVG Export Plug-In . SVG Version: 6.00 Build 0)  -->
<svg version="1.1" id="Layer_1" xmlns="http://www.w3.org/2000/svg" xmlns:xlink="http://www.w3.org/1999/xlink" x="0px" y="0px"
	 viewBox="0 0 970 250" style="enable-background:new 0 0 970 250;" xml:space="preserve">
<style type="text/css">
	.st0{fill:#FFFFFF;}
	.st1{clip-path:url(#SVGID_00000147198785147336011900000009694562747052004521_);}
</style>
<g>
	<g>
		<path class="st0" d="M83.1,194.2v-11.5h-4.1v-1.7h10.2v1.7H85v11.5H83.1z"/>
		<path class="st0" d="M89.6,194.2v-9.6h1.8v1.5c0.7-1,1.9-1.6,3.1-1.7v1.8c-0.2,0-0.4-0.1-0.6-0.1c-1,0.1-1.9,0.6-2.5,1.4v6.7H89.6
			z"/>
		<path class="st0" d="M96,181.9c0-0.6,0.5-1.1,1.2-1.1c0.6,0,1.1,0.5,1.1,1.2c0,0.6-0.5,1.1-1.2,1.1C96.5,183,96,182.5,96,181.9z
			 M96.3,194.2v-9.6h1.8v9.6H96.3z"/>
		<path class="st0" d="M102.7,197.8h-1.8v-13.2h1.8v1.4c0.7-1,1.9-1.6,3.1-1.6c2.5,0,4.3,1.9,4.3,5s-1.8,5-4.3,5
			c-1.2,0-2.4-0.6-3.1-1.6V197.8z M105.4,185.9c-1.1,0-2.1,0.5-2.7,1.4v4.1c0.6,0.9,1.6,1.4,2.7,1.4c1.8,0,2.9-1.4,2.9-3.5
			S107.1,185.9,105.4,185.9z"/>
		<path class="st0" d="M112.4,191.6c0.9,0.9,2,1.3,3.2,1.4c1.3,0,2.1-0.6,2.1-1.4c0-1-1.1-1.3-2.3-1.6c-1.6-0.4-3.5-0.8-3.5-2.9
			c0-1.5,1.3-2.8,3.7-2.8c1.3,0,2.7,0.5,3.7,1.4l-0.8,1.2c-0.7-0.8-1.8-1.2-2.8-1.2c-1.2,0-2,0.5-2,1.2s1,1.1,2.2,1.4
			c1.7,0.4,3.7,0.8,3.7,3c0,1.6-1.3,2.9-3.9,2.9c-1.5,0.1-2.9-0.5-4-1.5L112.4,191.6z"/>
		<path class="st0" d="M137.6,194.2h-2.4c-0.4-0.3-0.8-0.8-1.3-1.3c-1,1-2.4,1.5-3.8,1.5c-2.3,0-4.2-1.3-4.2-3.7
			c0-2.1,1.4-3.1,2.9-3.9c-0.6-0.9-0.9-1.9-1-2.9c0.1-1.8,1.6-3.2,3.3-3.1c0,0,0.1,0,0.1,0c1.8,0,3.1,1,3.1,2.7c0,2-1.7,2.9-3.3,3.7
			c0.5,0.7,1,1.3,1.4,1.8l1.5,1.6c0.6-0.9,1-1.9,1.4-2.9l1.5,0.7c-0.5,1.2-1.1,2.3-1.8,3.3C135.9,192.4,136.7,193.3,137.6,194.2z
			 M132.9,191.8c-0.7-0.7-1.4-1.5-1.7-1.9c-0.5-0.6-1-1.3-1.6-2c-1,0.5-1.7,1.5-1.7,2.6c0,1.3,1,2.4,2.3,2.4c0.1,0,0.1,0,0.2,0
			C131.3,193,132.2,192.5,132.9,191.8L132.9,191.8z M130.5,186c1.3-0.7,2.4-1.3,2.4-2.5c0-0.7-0.5-1.4-1.2-1.4c-0.1,0-0.1,0-0.2,0
			c-0.9,0-1.7,0.7-1.7,1.7c0,0,0,0.1,0,0.1C129.8,184.6,130,185.4,130.5,186z"/>
		<path class="st0" d="M83.1,212.2v-11.5h-4.1V199h10.2v1.7H85v11.5L83.1,212.2z"/>
		<path class="st0" d="M89.6,212.2v-9.6h1.8v1.5c0.7-1,1.9-1.6,3.1-1.7v1.8c-0.2,0-0.4-0.1-0.6-0.1c-1,0.1-1.9,0.6-2.5,1.4v6.7H89.6
			z"/>
		<path class="st0" d="M102.2,212.2v-1.1c-0.8,0.9-2,1.3-3.1,1.3c-1.8,0.1-3.2-1.3-3.3-3c0,0,0-0.1,0-0.1c0-1.7,1.3-3.1,3-3.1
			c0.1,0,0.2,0,0.3,0c1.2-0.1,2.3,0.4,3.1,1.3v-1.6c0-1.2-1-1.9-2.3-1.9c-1.1,0-2.1,0.5-2.9,1.3l-0.8-1.2c1-1,2.5-1.6,3.9-1.6
			c2.1,0,3.9,0.9,3.9,3.4v6.5H102.2z M102.2,208.4c-0.6-0.7-1.5-1.1-2.5-1.1c-1.1-0.2-2,0.5-2.2,1.6c-0.2,1.1,0.5,2,1.6,2.2
			c0.2,0,0.4,0,0.6,0c0.9,0,1.9-0.4,2.5-1.1V208.4z"/>
		<path class="st0" d="M118.5,212.2v-6.4c0-1.1-0.5-1.8-1.7-1.8c-1,0.1-1.9,0.6-2.4,1.4v6.9h-1.8v-6.4c0-1.1-0.5-1.8-1.7-1.8
			c-1,0.1-1.8,0.6-2.3,1.4v6.9h-1.8v-9.6h1.8v1.4c0.7-1,1.9-1.5,3.1-1.6c1.2-0.1,2.3,0.6,2.6,1.8c0.7-1.1,1.9-1.8,3.2-1.8
			c1.8,0,2.7,1,2.7,2.9v6.9L118.5,212.2z"/>
		<path class="st0" d="M124.9,215.8h-1.8v-13.2h1.8v1.4c0.7-1,1.9-1.6,3.1-1.6c2.5,0,4.3,1.9,4.3,5s-1.8,5-4.3,5
			c-1.2,0-2.4-0.6-3.1-1.6L124.9,215.8z M127.6,204c-1.1,0-2.1,0.5-2.7,1.4v4.1c0.6,0.9,1.6,1.4,2.7,1.4c1.8,0,2.9-1.4,2.9-3.5
			S129.4,204,127.6,204z"/>
		<path class="st0" d="M134.6,209.6c0.9,0.9,2,1.3,3.2,1.4c1.4,0,2.1-0.6,2.1-1.4c0-1-1.1-1.3-2.3-1.6c-1.6-0.4-3.5-0.8-3.5-2.9
			c0-1.5,1.3-2.8,3.7-2.8c1.3,0,2.7,0.5,3.6,1.4l-0.8,1.2c-0.7-0.8-1.8-1.2-2.8-1.2c-1.2,0-2,0.5-2,1.2s1,1.1,2.2,1.4
			c1.7,0.4,3.7,0.8,3.7,3c0,1.6-1.4,2.9-3.9,2.9c-1.5,0.1-2.9-0.5-4-1.5L134.6,209.6z"/>
		<g>
			<defs>
				<rect id="SVGID_1_" width="970" height="250"/>
			</defs>
			<clipPath id="SVGID_00000115515990094441019290000008821204410764699024_">
				<use xlink:href="#SVGID_1_"  style="overflow:visible;"/>
			</clipPath>
			<g style="clip-path:url(#SVGID_00000115515990094441019290000008821204410764699024_);">
				<path class="st0" d="M62,197.3c-3.6,4.9-7.1,9.8-10.6,14.8c0,0.1-0.1,0.1-0.1,0.2c-0.2,0.3-0.5,0.3-0.7,0
					c-0.8-1-1.5-2.1-2.3-3.2c-2.7-3.8-5.4-7.5-8.1-11.2c-1.2-1.6-2.1-3.5-2.7-5.4c-0.3-1-0.4-2.1-0.4-3.2c0-6.9,5-12.7,11.8-13.8
					c7.5-1.1,14.4,3.9,15.7,11.4C65.2,190.5,64.3,194.3,62,197.3 M65.5,186.1c-1.4-6.7-7.1-11.7-14-11.9
					c-8.3-0.3-15.2,6.2-15.5,14.5c0,0.7,0,1.3,0.1,2c0.3,2.7,1.3,5.2,2.9,7.4c3.8,5.2,7.5,10.3,11.3,15.5c0.4,0.5,0.8,0.5,1.1,0
					c1.1-1.5,2.2-3,3.3-4.5c2.8-3.9,5.7-7.7,8.4-11.6c1.7-2.5,2.7-5.4,2.7-8.4C65.7,188,65.6,187.1,65.5,186.1"/>
				<path class="st0" d="M50.8,198.2c-5.1,0-9.2-4.1-9.1-9.2c0-5.1,4.1-9.2,9.2-9.1s9.2,4.1,9.1,9.2c0,0,0,0,0,0
					C60,194.1,55.9,198.2,50.8,198.2 M64.5,186.7c-1.3-7.4-8.2-12.5-15.7-11.4c-6.8,1.1-11.8,7-11.8,13.8c0,1.1,0.2,2.1,0.4,3.2
					c0.5,2,1.4,3.8,2.7,5.4c2.7,3.7,5.4,7.5,8.1,11.2c0.8,1.1,1.5,2.1,2.3,3.2c0.2,0.3,0.5,0.3,0.7,0l0.1-0.2
					c3.5-4.9,7.1-9.9,10.6-14.8C64.2,194.2,65.1,190.4,64.5,186.7"/>
				<path class="st0" d="M50.9,197.2c-4.5,0-8.2-3.6-8.2-8.1s3.6-8.2,8.1-8.2s8.2,3.6,8.2,8.1c0,0,0,0,0,0
					C59,193.6,55.3,197.2,50.9,197.2 M50.8,179.9c-5.1,0-9.2,4.1-9.2,9.2c0,5.1,4.1,9.2,9.2,9.2c5,0,9.1-4.1,9.2-9.1
					C60,184,55.9,179.9,50.8,179.9C50.8,179.9,50.8,179.9,50.8,179.9"/>
			</g>
		</g>
	</g>
</g>
</svg>
