<?xml version="1.0" encoding="utf-8"?>
<!-- Generator: Adobe Illustrator 26.0.3, SVG Export Plug-In . SVG Version: 6.00 Build 0)  -->
<svg version="1.1" id="Layer_1" xmlns="http://www.w3.org/2000/svg" xmlns:xlink="http://www.w3.org/1999/xlink" x="0px" y="0px"
	 viewBox="0 0 970 250" style="enable-background:new 0 0 970 250;" xml:space="preserve">
<style type="text/css">
	.st0{fill:#FFFFFF;}
	.st1{clip-path:url(#SVGID_00000167396521334042391050000008715419668541723024_);}
</style>
<g>
	<g>
		<path class="st0" d="M79.8,194.2v-13.2h8.9v1.7h-6.9v3.9h6.8v1.8h-6.8v5.9L79.8,194.2z"/>
		<path class="st0" d="M90.5,181.9c0-0.6,0.5-1.1,1.2-1.1s1.2,0.5,1.2,1.1s-0.5,1.1-1.2,1.1S90.5,182.5,90.5,181.9z M90.8,194.2
			v-9.6h1.8v9.6H90.8z"/>
		<path class="st0" d="M94.8,189.4c0.1-2.7,2.3-4.8,5-4.7s4.8,2.3,4.7,5c-0.1,2.6-2.2,4.7-4.8,4.7c-2.6,0.1-4.8-2-4.9-4.7
			C94.8,189.6,94.8,189.5,94.8,189.4z M102.7,189.4c0-1.8-1.1-3.4-3-3.4s-3,1.6-3,3.4s1.1,3.5,3,3.5S102.7,191.2,102.7,189.4z"/>
		<path class="st0" d="M106.8,194.2v-9.6h1.8v1.5c0.7-1,1.9-1.7,3.1-1.7v1.8c-0.2,0-0.4-0.1-0.6-0.1c-1,0.1-1.9,0.6-2.5,1.4v6.7
			H106.8z"/>
		<path class="st0" d="M120.3,194.2v-1.4c-0.7,1-1.9,1.6-3.1,1.6c-2.5,0-4.3-1.9-4.3-5s1.8-5,4.3-5c1.2,0,2.4,0.6,3.1,1.6v-5h1.8
			v13.2L120.3,194.2z M120.3,187.3c-0.6-0.9-1.6-1.4-2.7-1.4c-1.8,0-2.9,1.4-2.9,3.4s1.1,3.4,2.9,3.4c1.1,0,2-0.5,2.7-1.4V187.3z"/>
		<path class="st0" d="M125,194.2v-13.2h1.8v13.2L125,194.2z"/>
		<path class="st0" d="M135.5,194.2v-1.1c-0.8,0.9-1.9,1.3-3.1,1.3c-1.8,0.1-3.3-1.3-3.3-3.1c0,0,0-0.1,0-0.1c0-1.7,1.3-3.1,3.1-3.1
			c0.1,0,0.2,0,0.3,0c1.2-0.1,2.3,0.4,3.1,1.3v-1.6c0-1.2-1-1.9-2.3-1.9c-1.1,0-2.1,0.5-2.9,1.3l-0.8-1.2c1-1,2.5-1.6,3.9-1.6
			c2.1,0,3.9,0.9,3.9,3.4v6.5L135.5,194.2z M135.5,190.4c-0.6-0.7-1.5-1.1-2.5-1.1c-1.1-0.1-2,0.6-2.1,1.7c-0.1,1.1,0.6,2,1.7,2.1
			c0.2,0,0.3,0,0.5,0c0.9,0,1.9-0.4,2.5-1.1V190.4z"/>
		<path class="st0" d="M146.6,194.2V188c0-1.6-0.8-2.1-2.1-2.1c-1,0-2,0.5-2.6,1.4v6.9h-1.8v-9.6h1.8v1.4c0.9-1,2.1-1.6,3.4-1.6
			c1.5-0.2,2.9,0.9,3.1,2.4c0,0.2,0,0.5,0,0.7v6.7L146.6,194.2z"/>
		<path class="st0" d="M158.1,194.2v-1.4c-0.7,1-1.9,1.6-3.1,1.6c-2.5,0-4.3-1.9-4.3-5s1.8-5,4.3-5c1.2,0,2.4,0.6,3.1,1.6v-5h1.8
			v13.2L158.1,194.2z M158.1,187.3c-0.6-0.9-1.6-1.4-2.7-1.4c-1.8,0-2.9,1.4-2.9,3.4s1.1,3.4,2.9,3.4c1.1,0,2-0.5,2.7-1.4V187.3z"/>
		<path class="st0" d="M89.1,212.2v-5.9h-7.3v5.9h-2V199h2v5.6h7.3V199h2v13.2L89.1,212.2z"/>
		<path class="st0" d="M98.2,202.4c2.9,0,4.7,2.2,4.7,5.2v0.5h-7.6c0.1,1.7,1.5,3.1,3.3,3c1.1,0,2.1-0.4,2.8-1.1l0.8,1.2
			c-1,1-2.4,1.5-3.8,1.4c-2.8,0-5.1-2.2-5.1-4.9S95.4,202.4,98.2,202.4L98.2,202.4z M95.3,206.7h5.9c0-1.6-1.3-2.8-2.8-2.9
			c0,0-0.1,0-0.1,0C96.6,203.8,95.3,205.1,95.3,206.7z"/>
		<path class="st0" d="M105.1,212.2V199h1.8v13.2L105.1,212.2z"/>
		<path class="st0" d="M109.5,199.9c0-0.6,0.5-1.1,1.2-1.1c0.6,0,1.1,0.5,1.1,1.1c0,0.6-0.5,1.1-1.2,1.1
			C110,201,109.5,200.5,109.5,199.9z M109.7,212.2v-9.6h1.8v9.6H109.7z"/>
		<path class="st0" d="M118.7,202.4c1.4-0.1,2.8,0.6,3.6,1.7l-1.2,1.1c-0.5-0.8-1.4-1.2-2.3-1.2c-1.7,0-3.1,1.4-3.1,3.1
			c0,0.1,0,0.2,0,0.3c0,2,1.2,3.5,3.1,3.5c0.9,0,1.8-0.4,2.3-1.2l1.2,1.1c-0.8,1.1-2.2,1.8-3.6,1.7c-2.8,0-5-2.3-5-5
			S115.9,202.4,118.7,202.4L118.7,202.4z"/>
		<path class="st0" d="M123.6,207.4c0.1-2.7,2.3-4.8,5-4.7c2.7,0.1,4.8,2.3,4.7,5c-0.1,2.6-2.2,4.7-4.8,4.7c-2.6,0.1-4.8-2-4.9-4.7
			C123.6,207.6,123.6,207.5,123.6,207.4z M131.4,207.4c0-1.8-1.1-3.4-3-3.4s-3,1.6-3,3.4s1.1,3.5,3,3.5
			C130.4,210.8,131.4,209.2,131.4,207.4L131.4,207.4z"/>
		<path class="st0" d="M137.4,215.8h-1.8v-13.2h1.8v1.4c0.7-1,1.9-1.6,3.1-1.6c2.5,0,4.3,1.9,4.3,5s-1.8,5-4.3,5
			c-1.2,0-2.4-0.6-3.1-1.6V215.8z M140,204c-1.1,0-2.1,0.5-2.7,1.4v4.1c0.6,0.9,1.6,1.4,2.7,1.4c1.8,0,2.9-1.4,2.9-3.5
			S141.8,204,140,204z"/>
		<path class="st0" d="M147.4,210.1v-5.9h-1.6v-1.6h1.6V200h1.8v2.6h1.9v1.6h-1.9v5.5c0,0.7,0.3,1.2,0.9,1.2c0.4,0,0.7-0.1,1-0.4
			l0.5,1.4c-0.5,0.4-1.2,0.7-1.9,0.6c-1.1,0.1-2.2-0.7-2.3-1.8C147.3,210.4,147.3,210.2,147.4,210.1z"/>
		<path class="st0" d="M157.3,202.4c2.9,0,4.7,2.2,4.7,5.2v0.5h-7.6c0.1,1.7,1.5,3.1,3.2,3c1.1,0,2.1-0.4,2.8-1.1l0.8,1.2
			c-1,1-2.4,1.5-3.9,1.4c-2.8,0-5.1-2.2-5.1-4.9S154.5,202.4,157.3,202.4L157.3,202.4z M154.4,206.7h5.9c0-1.6-1.3-2.8-2.8-2.9
			c0,0-0.1,0-0.1,0C155.7,203.8,154.4,205.1,154.4,206.7z"/>
		<path class="st0" d="M164.2,212.2v-9.6h1.8v1.5c0.7-1,1.9-1.6,3.1-1.7v1.8c-0.2,0-0.4-0.1-0.6-0.1c-1,0.1-1.9,0.6-2.5,1.4v6.7
			H164.2z"/>
		<path class="st0" d="M170.9,209.6c0.9,0.9,2,1.3,3.2,1.4c1.4,0,2.1-0.6,2.1-1.4c0-1-1.1-1.3-2.3-1.6c-1.6-0.4-3.5-0.8-3.5-2.9
			c0-1.5,1.3-2.8,3.6-2.8c1.4,0,2.7,0.5,3.7,1.4l-0.8,1.2c-0.7-0.8-1.8-1.2-2.8-1.2c-1.2,0-2,0.5-2,1.2s1,1.1,2.2,1.4
			c1.7,0.4,3.7,0.8,3.7,3c0,1.6-1.4,2.9-3.9,2.9c-1.5,0.1-2.9-0.5-4-1.5L170.9,209.6z"/>
		<g>
			<defs>
				<rect id="SVGID_1_" width="970" height="250"/>
			</defs>
			<clipPath id="SVGID_00000182504004060331295910000009077608234727491517_">
				<use xlink:href="#SVGID_1_"  style="overflow:visible;"/>
			</clipPath>
			<g style="clip-path:url(#SVGID_00000182504004060331295910000009077608234727491517_);">
				<path class="st0" d="M62,197.3c-3.6,4.9-7.1,9.8-10.6,14.8c0,0.1-0.1,0.1-0.1,0.2c-0.2,0.3-0.5,0.3-0.7,0
					c-0.8-1-1.5-2.1-2.3-3.2c-2.7-3.8-5.4-7.5-8.1-11.2c-1.2-1.6-2.1-3.5-2.7-5.4c-0.3-1-0.4-2.1-0.4-3.2c0-6.9,5-12.7,11.8-13.8
					c7.5-1.1,14.4,3.9,15.7,11.4C65.2,190.5,64.3,194.3,62,197.3 M65.5,186.1c-1.4-6.7-7.1-11.7-14-11.9
					c-8.3-0.3-15.2,6.2-15.5,14.5c0,0.7,0,1.3,0.1,2c0.3,2.7,1.3,5.2,2.9,7.4c3.8,5.2,7.5,10.3,11.3,15.5c0.4,0.5,0.8,0.5,1.1,0
					c1.1-1.5,2.2-3,3.3-4.5c2.8-3.9,5.7-7.7,8.4-11.6c1.7-2.5,2.7-5.4,2.7-8.4C65.7,188,65.6,187.1,65.5,186.1"/>
				<path class="st0" d="M50.8,198.2c-5.1,0-9.2-4.1-9.1-9.2c0-5.1,4.1-9.2,9.2-9.1s9.2,4.1,9.1,9.2c0,0,0,0,0,0
					C60,194.1,55.9,198.2,50.8,198.2 M64.5,186.7c-1.3-7.4-8.2-12.5-15.7-11.4c-6.8,1.1-11.8,7-11.8,13.8c0,1.1,0.2,2.1,0.4,3.2
					c0.5,2,1.4,3.8,2.7,5.4c2.7,3.7,5.4,7.5,8.1,11.2c0.8,1.1,1.5,2.1,2.3,3.2c0.2,0.3,0.5,0.3,0.7,0l0.1-0.2
					c3.5-4.9,7.1-9.9,10.6-14.8C64.2,194.2,65.1,190.4,64.5,186.7"/>
				<path class="st0" d="M50.9,197.2c-4.5,0-8.2-3.6-8.2-8.1s3.6-8.2,8.1-8.2s8.2,3.6,8.2,8.1c0,0,0,0,0,0
					C59,193.6,55.3,197.2,50.9,197.2 M50.8,179.9c-5.1,0-9.2,4.1-9.2,9.2c0,5.1,4.1,9.2,9.2,9.2c5,0,9.1-4.1,9.2-9.1
					C60,184,55.9,179.9,50.8,179.9C50.8,179.9,50.8,179.9,50.8,179.9"/>
			</g>
		</g>
	</g>
</g>
</svg>
