<?xml version="1.0" encoding="UTF-8"?><svg id="Layer_2" xmlns="http://www.w3.org/2000/svg" viewBox="0 0 104 90"><defs><style>.cls-1{fill:#fff;}.cls-2{fill:#f36f21;}</style></defs><g id="Layer_1-2"><g id="concept2-160x600"><g><rect class="cls-2" width="104" height="90" rx="8" ry="8"/><g><path class="cls-1" d="M26.71,19.85v-.05c0-4.9,3.84-8.74,9.05-8.74,2.95,0,5.04,.91,6.82,2.45l-2.74,3.29c-1.2-1.01-2.4-1.58-4.06-1.58-2.42,0-4.3,2.04-4.3,4.61v.05c0,2.71,1.9,4.66,4.56,4.66,1.13,0,1.99-.24,2.69-.7v-2.04h-3.31v-3.41h7.73v7.56c-1.78,1.46-4.25,2.59-7.3,2.59-5.23,0-9.14-3.6-9.14-8.69Z"/><path class="cls-1" d="M46.76,11.4h13.51v3.96h-8.9v2.54h8.06v3.67h-8.06v2.66h9.02v3.96h-13.63V11.4Z"/><path class="cls-1" d="M67.52,15.48h-5.04v-4.08h14.74v4.08h-5.04v12.72h-4.66V15.48Z"/><path class="cls-1" d="M19.51,53.6l3.55-4.16c1.82,1.54,3.55,2.43,5.44,2.43,2.05,0,3.3-1.02,3.3-2.62v-.06c0-1.6-1.34-2.59-3.3-2.59-1.38,0-2.53,.48-3.58,1.12l-3.68-2.05,.64-11.36h14.98v5.12h-10.08l-.19,3.39c1.02-.48,2.08-.8,3.58-.8,4.03,0,7.68,2.24,7.68,7.1v.06c0,4.99-3.81,7.97-9.25,7.97-3.97,0-6.75-1.38-9.09-3.55Z"/><path class="cls-1" d="M41.03,45.57v-.06c0-6.34,4.03-11.65,10.4-11.65s10.34,5.25,10.34,11.58v.06c0,6.34-4,11.65-10.4,11.65s-10.33-5.25-10.33-11.58Zm14.49,0v-.06c0-3.55-1.7-6.14-4.16-6.14s-4.1,2.5-4.1,6.08v.06c0,3.58,1.66,6.14,4.16,6.14s4.1-2.53,4.1-6.08Z"/><path class="cls-1" d="M72.99,56.64c-3.14-.32-6.24-1.44-8.64-3.17l2.88-4.26c2.05,1.44,3.97,2.3,5.95,2.62v-3.84c-5.15-1.18-7.78-2.94-7.78-6.91v-.06c0-3.78,2.75-6.4,7.65-6.75v-1.82h3.33v1.92c2.62,.29,4.83,1.18,6.75,2.5l-2.62,4.29c-1.31-.93-2.85-1.57-4.29-1.92v3.71c5.09,1.18,7.65,3.01,7.65,6.98v.06c0,3.9-3.01,6.3-7.55,6.72v3.14h-3.33v-3.2Zm.22-17.69c-1.57,.13-2.18,.77-2.18,1.6v.06c0,.83,.45,1.31,2.18,1.79v-3.46Zm5.12,11.46v-.06c0-.86-.48-1.34-2.14-1.82v3.52c1.47-.16,2.14-.7,2.14-1.63Z"/><path class="cls-1" d="M26.39,72.35v-.05c0-4.82,3.89-8.74,9.07-8.74s9.02,3.86,9.02,8.69v.05c0,4.82-3.89,8.74-9.07,8.74s-9.02-3.86-9.02-8.69Zm13.35,0v-.05c0-2.42-1.75-4.54-4.32-4.54s-4.25,2.06-4.25,4.49v.05c0,2.42,1.75,4.54,4.3,4.54s4.27-2.06,4.27-4.49Z"/><path class="cls-1" d="M47.62,63.9h13.44v4.08h-8.78v2.86h7.94v3.86h-7.94v6h-4.66v-16.8Z"/><path class="cls-1" d="M64.02,63.9h13.44v4.08h-8.78v2.86h7.94v3.86h-7.94v6h-4.66v-16.8Z"/></g></g></g></g></svg>