<svg width="320" height="50" viewBox="0 0 320 50" fill="none" xmlns="http://www.w3.org/2000/svg">
<path d="M5.86667 36.2449C5.86667 35.4905 5.96597 34.7964 6.16458 34.1625C6.36319 33.5285 6.65309 32.9437 7.03426 32.4081H7.8588C7.71034 32.6067 7.57191 32.8504 7.44352 33.1393C7.31512 33.4282 7.20278 33.7452 7.10648 34.0902C7.01019 34.4333 6.93495 34.7894 6.88079 35.1585C6.82662 35.5257 6.79954 35.8878 6.79954 36.2449C6.79954 36.7223 6.84668 37.2058 6.94097 37.6953C7.03526 38.1848 7.16265 38.6392 7.32315 39.0585C7.48364 39.4778 7.66219 39.8199 7.8588 40.0847H7.03426C6.65309 39.549 6.36319 38.9642 6.16458 38.3303C5.96597 37.6963 5.86667 37.0012 5.86667 36.2449ZM10.3221 38.905C10.0292 38.905 9.76437 38.8509 9.52764 38.7425C9.29091 38.6322 9.10334 38.4727 8.96491 38.2641C8.82849 38.0554 8.76028 37.7996 8.76028 37.4967C8.76028 37.2359 8.81043 37.0213 8.91074 36.8527C9.01105 36.6842 9.14647 36.5508 9.31699 36.4525C9.48752 36.3542 9.6781 36.28 9.88875 36.2298C10.0994 36.1797 10.3141 36.1415 10.5327 36.1155C10.8096 36.0834 11.0343 36.0573 11.2068 36.0372C11.3793 36.0152 11.5047 35.98 11.583 35.9319C11.6612 35.8838 11.7003 35.8055 11.7003 35.6972V35.6761C11.7003 35.4133 11.6261 35.2097 11.4776 35.0652C11.3312 34.9208 11.1125 34.8486 10.8216 34.8486C10.5187 34.8486 10.28 34.9158 10.1054 35.0502C9.93289 35.1826 9.81352 35.33 9.74732 35.4925L8.90172 35.3C9.00202 35.0191 9.14847 34.7924 9.34107 34.6199C9.53567 34.4453 9.75935 34.3189 10.0121 34.2407C10.2649 34.1605 10.5307 34.1203 10.8096 34.1203C10.9942 34.1203 11.1898 34.1424 11.3964 34.1865C11.605 34.2287 11.7996 34.3069 11.9802 34.4213C12.1627 34.5356 12.3122 34.6991 12.4286 34.9118C12.5449 35.1224 12.6031 35.3963 12.6031 35.7333V38.8027H11.7244V38.1708H11.6883C11.6301 38.2871 11.5428 38.4015 11.4265 38.5138C11.3101 38.6262 11.1607 38.7195 10.9781 38.7937C10.7955 38.8679 10.5769 38.905 10.3221 38.905ZM10.5177 38.1828C10.7665 38.1828 10.9791 38.1337 11.1557 38.0354C11.3342 37.9371 11.4696 37.8087 11.5619 37.6502C11.6562 37.4897 11.7033 37.3182 11.7033 37.1356V36.5398C11.6712 36.5719 11.609 36.602 11.5168 36.63C11.4265 36.6561 11.3232 36.6792 11.2068 36.6993C11.0905 36.7173 10.9771 36.7344 10.8668 36.7504C10.7564 36.7645 10.6641 36.7765 10.5899 36.7865C10.4154 36.8086 10.2559 36.8457 10.1114 36.8979C9.969 36.95 9.85465 37.0253 9.76838 37.1236C9.68412 37.2199 9.64199 37.3483 9.64199 37.5088C9.64199 37.7314 9.72425 37.9 9.88875 38.0143C10.0533 38.1267 10.2629 38.1828 10.5177 38.1828ZM14.8708 36.0583V38.8027H13.971V34.1805H14.8347V34.9328H14.8919C14.9982 34.6881 15.1647 34.4915 15.3914 34.343C15.6201 34.1946 15.908 34.1203 16.2551 34.1203C16.57 34.1203 16.8459 34.1865 17.0826 34.3189C17.3193 34.4493 17.5029 34.6439 17.6333 34.9027C17.7637 35.1615 17.8289 35.4815 17.8289 35.8627V38.8027H16.9291V35.971C16.9291 35.636 16.8419 35.3742 16.6673 35.1856C16.4928 34.995 16.253 34.8997 15.9481 34.8997C15.7395 34.8997 15.5539 34.9449 15.3914 35.0351C15.2309 35.1254 15.1035 35.2578 15.0092 35.4324C14.9169 35.6049 14.8708 35.8135 14.8708 36.0583ZM20.9354 38.893C20.5623 38.893 20.2292 38.7977 19.9363 38.6071C19.6454 38.4145 19.4167 38.1407 19.2502 37.7856C19.0857 37.4285 19.0035 37.0002 19.0035 36.5007C19.0035 36.0011 19.0867 35.5738 19.2532 35.2187C19.4218 34.8636 19.6525 34.5918 19.9454 34.4032C20.2383 34.2146 20.5703 34.1203 20.9414 34.1203C21.2283 34.1203 21.459 34.1685 21.6336 34.2648C21.8101 34.3591 21.9465 34.4694 22.0428 34.5958C22.1411 34.7222 22.2174 34.8335 22.2715 34.9298H22.3257V32.6398H23.2255V38.8027H22.3468V38.0835H22.2715C22.2174 38.1818 22.1391 38.2942 22.0368 38.4206C21.9365 38.5469 21.7981 38.6573 21.6215 38.7516C21.445 38.8459 21.2163 38.893 20.9354 38.893ZM21.134 38.1257C21.3928 38.1257 21.6115 38.0574 21.79 37.921C21.9706 37.7826 22.107 37.591 22.1993 37.3463C22.2936 37.1015 22.3407 36.8166 22.3407 36.4916C22.3407 36.1706 22.2946 35.8898 22.2023 35.649C22.11 35.4083 21.9746 35.2207 21.7961 35.0863C21.6175 34.9519 21.3968 34.8847 21.134 34.8847C20.8632 34.8847 20.6375 34.9549 20.4569 35.0953C20.2764 35.2358 20.14 35.4273 20.0477 35.6701C19.9574 35.9128 19.9123 36.1867 19.9123 36.4916C19.9123 36.8006 19.9584 37.0784 20.0507 37.3252C20.143 37.5719 20.2794 37.7675 20.4599 37.912C20.6425 38.0544 20.8672 38.1257 21.134 38.1257ZM27.0913 40.5361V34.1805H27.97V34.9298H28.0452C28.0974 34.8335 28.1726 34.7222 28.2709 34.5958C28.3692 34.4694 28.5056 34.3591 28.6802 34.2648C28.8547 34.1685 29.0854 34.1203 29.3723 34.1203C29.7454 34.1203 30.0785 34.2146 30.3714 34.4032C30.6643 34.5918 30.894 34.8636 31.0605 35.2187C31.229 35.5738 31.3133 36.0011 31.3133 36.5007C31.3133 37.0002 31.23 37.4285 31.0635 37.7856C30.897 38.1407 30.6683 38.4145 30.3774 38.6071C30.0865 38.7977 29.7545 38.893 29.3813 38.893C29.1005 38.893 28.8707 38.8459 28.6922 38.7516C28.5157 38.6573 28.3772 38.5469 28.2769 38.4206C28.1766 38.2942 28.0994 38.1818 28.0452 38.0835H27.991V40.5361H27.0913ZM27.973 36.4916C27.973 36.8166 28.0201 37.1015 28.1144 37.3463C28.2087 37.591 28.3451 37.7826 28.5237 37.921C28.7022 38.0574 28.9209 38.1257 29.1797 38.1257C29.4485 38.1257 29.6732 38.0544 29.8538 37.912C30.0343 37.7675 30.1707 37.5719 30.263 37.3252C30.3573 37.0784 30.4045 36.8006 30.4045 36.4916C30.4045 36.1867 30.3583 35.9128 30.266 35.6701C30.1758 35.4273 30.0393 35.2358 29.8568 35.0953C29.6762 34.9549 29.4505 34.8847 29.1797 34.8847C28.9189 34.8847 28.6982 34.9519 28.5177 35.0863C28.3391 35.2207 28.2037 35.4083 28.1114 35.649C28.0191 35.8898 27.973 36.1706 27.973 36.4916ZM35.4189 36.8858V34.1805H36.3216V38.8027H35.4369V38.0023H35.3888C35.2824 38.249 35.1119 38.4547 34.8772 38.6192C34.6445 38.7817 34.3546 38.8629 34.0075 38.8629C33.7106 38.8629 33.4478 38.7977 33.2191 38.6673C32.9924 38.5349 32.8138 38.3393 32.6834 38.0805C32.555 37.8217 32.4908 37.5017 32.4908 37.1206V34.1805H33.3906V37.0122C33.3906 37.3272 33.4779 37.578 33.6524 37.7645C33.827 37.9511 34.0537 38.0444 34.3325 38.0444C34.501 38.0444 34.6685 38.0023 34.8351 37.918C35.0036 37.8338 35.143 37.7064 35.2533 37.5358C35.3657 37.3653 35.4209 37.1486 35.4189 36.8858ZM39.8577 34.1805V34.9027H37.333V34.1805H39.8577ZM38.01 33.0731H38.9098V37.4456C38.9098 37.6201 38.9359 37.7515 38.9881 37.8398C39.0402 37.926 39.1074 37.9852 39.1897 38.0173C39.2739 38.0474 39.3652 38.0625 39.4635 38.0625C39.5357 38.0625 39.5989 38.0574 39.6531 38.0474C39.7073 38.0374 39.7494 38.0294 39.7795 38.0233L39.942 38.7666C39.8898 38.7867 39.8156 38.8067 39.7193 38.8268C39.623 38.8489 39.5026 38.8609 39.3582 38.8629C39.1215 38.8669 38.9008 38.8248 38.6962 38.7365C38.4915 38.6483 38.326 38.5118 38.1996 38.3273C38.0732 38.1427 38.01 37.911 38.01 37.6321V33.0731ZM43.4347 38.8027V34.1805H44.2983V34.9328H44.3555C44.4518 34.678 44.6093 34.4794 44.8279 34.337C45.0466 34.1925 45.3084 34.1203 45.6134 34.1203C45.9223 34.1203 46.1811 34.1925 46.3897 34.337C46.6004 34.4814 46.7559 34.68 46.8562 34.9328H46.9043C47.0147 34.6861 47.1902 34.4895 47.4309 34.343C47.6717 34.1946 47.9586 34.1203 48.2916 34.1203C48.7109 34.1203 49.0529 34.2517 49.3178 34.5145C49.5846 34.7773 49.718 35.1736 49.718 35.7032V38.8027H48.8182V35.7875C48.8182 35.4745 48.733 35.2478 48.5624 35.1074C48.3919 34.9669 48.1883 34.8967 47.9516 34.8967C47.6587 34.8967 47.4309 34.987 47.2684 35.1675C47.1059 35.3461 47.0247 35.5758 47.0247 35.8567V38.8027H46.1279V35.7303C46.1279 35.4795 46.0497 35.2779 45.8932 35.1254C45.7367 34.973 45.5331 34.8967 45.2823 34.8967C45.1118 34.8967 44.9543 34.9419 44.8099 35.0321C44.6674 35.1204 44.5521 35.2438 44.4638 35.4023C44.3776 35.5608 44.3344 35.7443 44.3344 35.953V38.8027H43.4347ZM53.0404 38.896C52.6071 38.896 52.2289 38.7967 51.9059 38.5981C51.5829 38.3995 51.3322 38.1216 51.1536 37.7645C50.9751 37.4074 50.8858 36.9902 50.8858 36.5127C50.8858 36.0332 50.9751 35.6139 51.1536 35.2548C51.3322 34.8957 51.5829 34.6169 51.9059 34.4182C52.2289 34.2196 52.6071 34.1203 53.0404 34.1203C53.4738 34.1203 53.8519 34.2196 54.1749 34.4182C54.4979 34.6169 54.7487 34.8957 54.9272 35.2548C55.1058 35.6139 55.195 36.0332 55.195 36.5127C55.195 36.9902 55.1058 37.4074 54.9272 37.7645C54.7487 38.1216 54.4979 38.3995 54.1749 38.5981C53.8519 38.7967 53.4738 38.896 53.0404 38.896ZM53.0434 38.1407C53.3243 38.1407 53.557 38.0665 53.7416 37.918C53.9261 37.7696 54.0626 37.5719 54.1508 37.3252C54.2411 37.0784 54.2863 36.8066 54.2863 36.5097C54.2863 36.2148 54.2411 35.9439 54.1508 35.6972C54.0626 35.4484 53.9261 35.2488 53.7416 35.0983C53.557 34.9479 53.3243 34.8726 53.0434 34.8726C52.7606 34.8726 52.5258 34.9479 52.3393 35.0983C52.1547 35.2488 52.0173 35.4484 51.927 35.6972C51.8387 35.9439 51.7946 36.2148 51.7946 36.5097C51.7946 36.8066 51.8387 37.0784 51.927 37.3252C52.0173 37.5719 52.1547 37.7696 52.3393 37.918C52.5258 38.0665 52.7606 38.1407 53.0434 38.1407ZM56.3689 38.8027V34.1805H57.2385V34.9148H57.2867C57.371 34.666 57.5194 34.4704 57.7321 34.328C57.9467 34.1835 58.1895 34.1113 58.4603 34.1113C58.5165 34.1113 58.5827 34.1133 58.6589 34.1173C58.7372 34.1213 58.7983 34.1263 58.8425 34.1324V34.993C58.8064 34.983 58.7422 34.9719 58.6499 34.9599C58.5576 34.9459 58.4653 34.9388 58.373 34.9388C58.1604 34.9388 57.9708 34.984 57.8043 35.0743C57.6398 35.1625 57.5094 35.2859 57.4131 35.4444C57.3168 35.6009 57.2686 35.7794 57.2686 35.98V38.8027H56.3689ZM61.6172 38.896C61.1618 38.896 60.7696 38.7987 60.4406 38.6041C60.1136 38.4075 59.8608 38.1317 59.6823 37.7766C59.5057 37.4195 59.4175 37.0012 59.4175 36.5217C59.4175 36.0483 59.5057 35.631 59.6823 35.2699C59.8608 34.9088 60.1096 34.6269 60.4286 34.4243C60.7496 34.2216 61.1247 34.1203 61.554 34.1203C61.8148 34.1203 62.0676 34.1635 62.3124 34.2497C62.5571 34.336 62.7768 34.4714 62.9714 34.656C63.166 34.8405 63.3195 35.0803 63.4318 35.3752C63.5442 35.6681 63.6003 36.0242 63.6003 36.4435V36.7625H59.926V36.0884H62.7186C62.7186 35.8517 62.6705 35.642 62.5742 35.4594C62.4779 35.2749 62.3425 35.1294 62.1679 35.0231C61.9954 34.9168 61.7928 34.8636 61.5601 34.8636C61.3073 34.8636 61.0866 34.9258 60.898 35.0502C60.7114 35.1726 60.567 35.3331 60.4647 35.5317C60.3644 35.7283 60.3142 35.9419 60.3142 36.1726V36.6993C60.3142 37.0082 60.3684 37.271 60.4767 37.4877C60.5871 37.7044 60.7405 37.8699 60.9371 37.9842C61.1337 38.0966 61.3634 38.1527 61.6263 38.1527C61.7968 38.1527 61.9523 38.1287 62.0927 38.0805C62.2331 38.0304 62.3545 37.9561 62.4568 37.8578C62.5591 37.7595 62.6374 37.6382 62.6915 37.4937L63.5432 37.6472C63.4749 37.898 63.3526 38.1176 63.176 38.3062C63.0015 38.4928 62.7818 38.6382 62.517 38.7425C62.2542 38.8449 61.9543 38.896 61.6172 38.896ZM67.1803 38.8027V34.1805H68.08V38.8027H67.1803ZM67.6347 33.4673C67.4782 33.4673 67.3438 33.4152 67.2314 33.3108C67.1211 33.2045 67.0659 33.0781 67.0659 32.9317C67.0659 32.7832 67.1211 32.6568 67.2314 32.5525C67.3438 32.4462 67.4782 32.393 67.6347 32.393C67.7911 32.393 67.9246 32.4462 68.0349 32.5525C68.1472 32.6568 68.2034 32.7832 68.2034 32.9317C68.2034 33.0781 68.1472 33.2045 68.0349 33.3108C67.9246 33.4152 67.7911 33.4673 67.6347 33.4673ZM70.3598 36.0583V38.8027H69.46V34.1805H70.3236V34.9328H70.3808C70.4872 34.6881 70.6537 34.4915 70.8804 34.343C71.1091 34.1946 71.397 34.1203 71.744 34.1203C72.059 34.1203 72.3348 34.1865 72.5716 34.3189C72.8083 34.4493 72.9919 34.6439 73.1223 34.9027C73.2527 35.1615 73.3179 35.4815 73.3179 35.8627V38.8027H72.4181V35.971C72.4181 35.636 72.3308 35.3742 72.1563 35.1856C71.9817 34.995 71.742 34.8997 71.4371 34.8997C71.2284 34.8997 71.0429 34.9449 70.8804 35.0351C70.7199 35.1254 70.5925 35.2578 70.4982 35.4324C70.4059 35.6049 70.3598 35.8135 70.3598 36.0583ZM77.6749 40.5361C77.5405 40.5361 77.4181 40.525 77.3078 40.503C77.1975 40.4829 77.1152 40.4608 77.061 40.4368L77.2777 39.6995C77.4422 39.7436 77.5887 39.7627 77.7171 39.7567C77.8455 39.7507 77.9588 39.7025 78.0571 39.6122C78.1574 39.5219 78.2457 39.3745 78.3219 39.1699L78.4333 38.8629L76.7421 34.1805H77.705L78.8756 37.7675H78.9238L80.0944 34.1805H81.0604L79.1555 39.4196C79.0672 39.6604 78.9549 39.864 78.8185 40.0305C78.682 40.199 78.5195 40.3254 78.331 40.4097C78.1424 40.4939 77.9237 40.5361 77.6749 40.5361ZM83.8652 38.896C83.4319 38.896 83.0537 38.7967 82.7307 38.5981C82.4077 38.3995 82.1569 38.1216 81.9784 37.7645C81.7998 37.4074 81.7106 36.9902 81.7106 36.5127C81.7106 36.0332 81.7998 35.6139 81.9784 35.2548C82.1569 34.8957 82.4077 34.6169 82.7307 34.4182C83.0537 34.2196 83.4319 34.1203 83.8652 34.1203C84.2985 34.1203 84.6767 34.2196 84.9997 34.4182C85.3227 34.6169 85.5734 34.8957 85.752 35.2548C85.9305 35.6139 86.0198 36.0332 86.0198 36.5127C86.0198 36.9902 85.9305 37.4074 85.752 37.7645C85.5734 38.1216 85.3227 38.3995 84.9997 38.5981C84.6767 38.7967 84.2985 38.896 83.8652 38.896ZM83.8682 38.1407C84.1491 38.1407 84.3818 38.0665 84.5663 37.918C84.7509 37.7696 84.8873 37.5719 84.9756 37.3252C85.0659 37.0784 85.111 36.8066 85.111 36.5097C85.111 36.2148 85.0659 35.9439 84.9756 35.6972C84.8873 35.4484 84.7509 35.2488 84.5663 35.0983C84.3818 34.9479 84.1491 34.8726 83.8682 34.8726C83.5853 34.8726 83.3506 34.9479 83.164 35.0983C82.9795 35.2488 82.842 35.4484 82.7518 35.6972C82.6635 35.9439 82.6194 36.2148 82.6194 36.5097C82.6194 36.8066 82.6635 37.0784 82.7518 37.3252C82.842 37.5719 82.9795 37.7696 83.164 37.918C83.3506 38.0665 83.5853 38.1407 83.8682 38.1407ZM90.1217 36.8858V34.1805H91.0244V38.8027H90.1397V38.0023H90.0916C89.9852 38.249 89.8147 38.4547 89.58 38.6192C89.3473 38.7817 89.0574 38.8629 88.7103 38.8629C88.4134 38.8629 88.1506 38.7977 87.9219 38.6673C87.6952 38.5349 87.5166 38.3393 87.3862 38.0805C87.2578 37.8217 87.1936 37.5017 87.1936 37.1206V34.1805H88.0934V37.0122C88.0934 37.3272 88.1807 37.578 88.3552 37.7645C88.5298 37.9511 88.7565 38.0444 89.0353 38.0444C89.2038 38.0444 89.3713 38.0023 89.5379 37.918C89.7064 37.8338 89.8458 37.7064 89.9561 37.5358C90.0685 37.3653 90.1237 37.1486 90.1217 36.8858ZM92.4029 38.8027V34.1805H93.2726V34.9148H93.3207C93.405 34.666 93.5534 34.4704 93.7661 34.328C93.9807 34.1835 94.2235 34.1113 94.4943 34.1113C94.5505 34.1113 94.6167 34.1133 94.6929 34.1173C94.7712 34.1213 94.8324 34.1263 94.8765 34.1324V34.993C94.8404 34.983 94.7762 34.9719 94.6839 34.9599C94.5916 34.9459 94.4993 34.9388 94.4071 34.9388C94.1944 34.9388 94.0048 34.984 93.8383 35.0743C93.6738 35.1625 93.5434 35.2859 93.4471 35.4444C93.3508 35.6009 93.3027 35.7794 93.3027 35.98V38.8027H92.4029ZM98.2368 40.5361V34.1805H99.1155V34.9298H99.1907C99.2429 34.8335 99.3181 34.7222 99.4164 34.5958C99.5147 34.4694 99.6511 34.3591 99.8256 34.2648C100 34.1685 100.231 34.1203 100.518 34.1203C100.891 34.1203 101.224 34.2146 101.517 34.4032C101.81 34.5918 102.039 34.8636 102.206 35.2187C102.374 35.5738 102.459 36.0011 102.459 36.5007C102.459 37.0002 102.375 37.4285 102.209 37.7856C102.042 38.1407 101.814 38.4145 101.523 38.6071C101.232 38.7977 100.9 38.893 100.527 38.893C100.246 38.893 100.016 38.8459 99.8377 38.7516C99.6611 38.6573 99.5227 38.5469 99.4224 38.4206C99.3221 38.2942 99.2449 38.1818 99.1907 38.0835H99.1365V40.5361H98.2368ZM99.1185 36.4916C99.1185 36.8166 99.1656 37.1015 99.2599 37.3463C99.3542 37.591 99.4906 37.7826 99.6692 37.921C99.8477 38.0574 100.066 38.1257 100.325 38.1257C100.594 38.1257 100.819 38.0544 100.999 37.912C101.18 37.7675 101.316 37.5719 101.409 37.3252C101.503 37.0784 101.55 36.8006 101.55 36.4916C101.55 36.1867 101.504 35.9128 101.412 35.6701C101.321 35.4273 101.185 35.2358 101.002 35.0953C100.822 34.9549 100.596 34.8847 100.325 34.8847C100.064 34.8847 99.8437 34.9519 99.6631 35.0863C99.4846 35.2207 99.3492 35.4083 99.2569 35.649C99.1646 35.8898 99.1185 36.1706 99.1185 36.4916ZM105.583 38.896C105.15 38.896 104.772 38.7967 104.449 38.5981C104.126 38.3995 103.875 38.1216 103.697 37.7645C103.518 37.4074 103.429 36.9902 103.429 36.5127C103.429 36.0332 103.518 35.6139 103.697 35.2548C103.875 34.8957 104.126 34.6169 104.449 34.4182C104.772 34.2196 105.15 34.1203 105.583 34.1203C106.017 34.1203 106.395 34.2196 106.718 34.4182C107.041 34.6169 107.292 34.8957 107.47 35.2548C107.649 35.6139 107.738 36.0332 107.738 36.5127C107.738 36.9902 107.649 37.4074 107.47 37.7645C107.292 38.1216 107.041 38.3995 106.718 38.5981C106.395 38.7967 106.017 38.896 105.583 38.896ZM105.586 38.1407C105.867 38.1407 106.1 38.0665 106.284 37.918C106.469 37.7696 106.605 37.5719 106.694 37.3252C106.784 37.0784 106.829 36.8066 106.829 36.5097C106.829 36.2148 106.784 35.9439 106.694 35.6972C106.605 35.4484 106.469 35.2488 106.284 35.0983C106.1 34.9479 105.867 34.8726 105.586 34.8726C105.303 34.8726 105.069 34.9479 104.882 35.0983C104.698 35.2488 104.56 35.4484 104.47 35.6972C104.382 35.9439 104.337 36.2148 104.337 36.5097C104.337 36.8066 104.382 37.0784 104.47 37.3252C104.56 37.5719 104.698 37.7696 104.882 37.918C105.069 38.0665 105.303 38.1407 105.586 38.1407ZM110.859 38.896C110.411 38.896 110.026 38.7947 109.703 38.5921C109.382 38.3875 109.135 38.1056 108.963 37.7465C108.79 37.3874 108.704 36.9761 108.704 36.5127C108.704 36.0432 108.792 35.629 108.969 35.2699C109.145 34.9088 109.394 34.6269 109.715 34.4243C110.036 34.2216 110.414 34.1203 110.85 34.1203C111.201 34.1203 111.514 34.1855 111.789 34.3159C112.063 34.4443 112.285 34.6249 112.454 34.8576C112.624 35.0903 112.726 35.3621 112.758 35.6731H111.882C111.834 35.4564 111.723 35.2699 111.551 35.1134C111.38 34.9569 111.152 34.8787 110.865 34.8787C110.614 34.8787 110.394 34.9449 110.206 35.0773C110.019 35.2077 109.874 35.3942 109.769 35.637C109.665 35.8777 109.613 36.1626 109.613 36.4916C109.613 36.8287 109.664 37.1196 109.766 37.3643C109.869 37.6091 110.013 37.7986 110.2 37.9331C110.388 38.0675 110.61 38.1347 110.865 38.1347C111.035 38.1347 111.19 38.1036 111.328 38.0414C111.469 37.9772 111.586 37.8859 111.68 37.7675C111.777 37.6492 111.844 37.5067 111.882 37.3402H112.758C112.726 37.6392 112.628 37.906 112.466 38.1407C112.303 38.3754 112.086 38.56 111.813 38.6944C111.542 38.8288 111.224 38.896 110.859 38.896ZM114.717 37.2349L114.711 36.1365H114.867L116.709 34.1805H117.786L115.686 36.4074H115.544L114.717 37.2349ZM113.889 38.8027V32.6398H114.789V38.8027H113.889ZM116.808 38.8027L115.153 36.606L115.773 35.977L117.913 38.8027H116.808ZM120.578 38.896C120.122 38.896 119.73 38.7987 119.401 38.6041C119.074 38.4075 118.821 38.1317 118.643 37.7766C118.466 37.4195 118.378 37.0012 118.378 36.5217C118.378 36.0483 118.466 35.631 118.643 35.2699C118.821 34.9088 119.07 34.6269 119.389 34.4243C119.71 34.2216 120.085 34.1203 120.514 34.1203C120.775 34.1203 121.028 34.1635 121.273 34.2497C121.517 34.336 121.737 34.4714 121.932 34.656C122.126 34.8405 122.28 35.0803 122.392 35.3752C122.505 35.6681 122.561 36.0242 122.561 36.4435V36.7625H118.886V36.0884H121.679C121.679 35.8517 121.631 35.642 121.535 35.4594C121.438 35.2749 121.303 35.1294 121.128 35.0231C120.956 34.9168 120.753 34.8636 120.52 34.8636C120.268 34.8636 120.047 34.9258 119.858 35.0502C119.672 35.1726 119.527 35.3331 119.425 35.5317C119.325 35.7283 119.275 35.9419 119.275 36.1726V36.6993C119.275 37.0082 119.329 37.271 119.437 37.4877C119.547 37.7044 119.701 37.8699 119.897 37.9842C120.094 38.0966 120.324 38.1527 120.587 38.1527C120.757 38.1527 120.913 38.1287 121.053 38.0805C121.193 38.0304 121.315 37.9561 121.417 37.8578C121.519 37.7595 121.598 37.6382 121.652 37.4937L122.504 37.6472C122.435 37.898 122.313 38.1176 122.136 38.3062C121.962 38.4928 121.742 38.6382 121.477 38.7425C121.215 38.8449 120.915 38.896 120.578 38.896ZM125.886 34.1805V34.9027H123.361V34.1805H125.886ZM124.038 33.0731H124.938V37.4456C124.938 37.6201 124.964 37.7515 125.016 37.8398C125.069 37.926 125.136 37.9852 125.218 38.0173C125.302 38.0474 125.394 38.0625 125.492 38.0625C125.564 38.0625 125.627 38.0574 125.682 38.0474C125.736 38.0374 125.778 38.0294 125.808 38.0233L125.97 38.7666C125.918 38.7867 125.844 38.8067 125.748 38.8268C125.651 38.8489 125.531 38.8609 125.387 38.8629C125.15 38.8669 124.929 38.8248 124.725 38.7365C124.52 38.6483 124.354 38.5118 124.228 38.3273C124.102 38.1427 124.038 37.911 124.038 37.6321V33.0731ZM128.781 36.2449C128.781 37.0012 128.682 37.6963 128.483 38.3303C128.285 38.9642 127.995 39.549 127.614 40.0847H126.789C126.938 39.8861 127.076 39.6423 127.204 39.3534C127.333 39.0645 127.445 38.7486 127.541 38.4055C127.638 38.0605 127.713 37.7034 127.767 37.3342C127.821 36.9651 127.848 36.602 127.848 36.2449C127.848 35.7694 127.801 35.2869 127.707 34.7974C127.613 34.3079 127.485 33.8535 127.325 33.4342C127.164 33.0149 126.986 32.6729 126.789 32.4081H127.614C127.995 32.9437 128.285 33.5285 128.483 34.1625C128.682 34.7964 128.781 35.4905 128.781 36.2449Z" fill="#171D21"/>
</svg>
