<?xml version="1.0" encoding="UTF-8"?>
<svg id="Layer_1" data-name="Layer 1" xmlns="http://www.w3.org/2000/svg" viewBox="0 0 320 50">
  <defs>
    <style>
      .cls-1 {
        fill: #171d21;
      }

      .cls-1, .cls-2 {
        stroke-width: 0px;
      }

      .cls-2 {
        fill: #fff;
      }
    </style>
  </defs>
  <rect class="cls-1" x="7" y="9" width="57" height="18"/>
  <path class="cls-2" d="M15.87,21.6h-.07c-.08.2-.19.4-.33.6-.12.18-.28.35-.48.52-.2.14-.43.26-.7.35-.29.09-.6.13-.93.13-.9,0-1.62-.29-2.17-.87-.54-.56-.82-1.36-.82-2.42v-5.52h1.33v5.29c0,.79.17,1.37.52,1.75.36.39.86.58,1.52.58.28,0,.54-.03.78-.1.26-.07.48-.17.68-.3.21-.14.37-.32.48-.52.12-.21.18-.46.18-.73v-5.97h1.33v8.6h-1.33v-1.4ZM19.8,23v-8.6h1.33v1.4h.07c.07-.19.18-.39.33-.62.13-.19.3-.36.5-.5.18-.14.41-.26.68-.35.29-.09.6-.13.93-.13.89,0,1.61.28,2.17.85.54.58.82,1.39.82,2.43v5.52h-1.33v-5.29c0-.8-.17-1.39-.52-1.77-.34-.38-.85-.57-1.52-.57-.27,0-.53.03-.78.1-.26.07-.48.17-.68.3-.21.14-.37.32-.48.52-.12.22-.18.47-.18.73v5.97h-1.33ZM34.15,23h-1.78c-.61,0-1.07-.17-1.37-.52-.29-.36-.43-.8-.43-1.33v-8.72h-1.73v-1.07h3v10.57h2.32v1.07ZM39.82,23.2c-.61,0-1.15-.11-1.62-.32-.5-.22-.91-.53-1.23-.92-.32-.36-.58-.83-.78-1.42-.18-.53-.27-1.15-.27-1.85s.09-1.32.27-1.85c.19-.58.45-1.06.78-1.43.33-.38.74-.68,1.23-.9.47-.21,1.01-.32,1.62-.32s1.17.11,1.63.32c.47.21.88.51,1.23.9.32.39.58.87.77,1.43.18.53.27,1.15.27,1.85s-.09,1.32-.27,1.85c-.19.58-.44,1.05-.77,1.42-.34.4-.76.71-1.23.92-.47.21-1.01.32-1.63.32ZM39.82,22.05c.76,0,1.36-.22,1.8-.67.46-.46.68-1.14.68-2.07v-1.23c0-.92-.23-1.61-.68-2.07-.44-.44-1.04-.67-1.8-.67s-1.36.22-1.8.67c-.46.46-.68,1.14-.68,2.07v1.23c0,.92.23,1.61.68,2.07.44.44,1.04.67,1.8.67ZM52.4,23c-.52,0-.89-.13-1.12-.4-.23-.28-.37-.61-.42-1h-.08c-.18.49-.48.88-.9,1.17-.4.29-.96.43-1.68.43-.9,0-1.62-.23-2.15-.7-.53-.47-.8-1.11-.8-1.92s.29-1.42.88-1.85,1.53-.65,2.82-.65h1.83v-.85c0-.63-.18-1.11-.53-1.43-.34-.31-.85-.47-1.52-.47-.57,0-1.04.11-1.42.33-.37.23-.66.54-.88.93l-.9-.67c.11-.22.26-.44.45-.65.18-.21.41-.4.7-.57.31-.17.63-.29.95-.38.38-.09.77-.13,1.18-.13,1.02,0,1.83.26,2.42.77.59.52.88,1.23.88,2.13v4.73h1.2v1.17h-.92ZM48.44,22.08c.33,0,.65-.04.95-.13.29-.09.53-.2.73-.33.21-.13.38-.3.5-.5.11-.18.17-.38.17-.62v-1.42h-1.83c-.79,0-1.37.11-1.75.33-.37.21-.55.53-.55.97v.35c0,.44.16.78.48,1,.32.23.76.35,1.3.35ZM55.11,23v-8.6h1.33v1.4h.07c.07-.19.18-.39.33-.62.13-.19.3-.36.5-.5.18-.14.41-.26.68-.35.29-.09.6-.13.93-.13.89,0,1.61.28,2.17.85.54.58.82,1.39.82,2.43v5.52h-1.33v-5.29c0-.8-.17-1.39-.52-1.77-.34-.38-.85-.57-1.52-.57-.27,0-.53.03-.78.1-.26.07-.48.17-.68.3-.21.14-.37.32-.48.52-.12.22-.18.47-.18.73v5.97h-1.33Z"/>
</svg>