<svg width="320" height="50" viewBox="0 0 320 50" fill="none" xmlns="http://www.w3.org/2000/svg">
<rect width="320" height="50" fill="#171D21"/>
<g clip-path="url(#clip0_0_1008)">
<path d="M269.043 39.4447H270.358C271.209 39.4447 271.727 39.0004 271.727 38.2787C271.727 37.7352 271.348 37.3341 270.806 37.2809V37.2579C271.215 37.1889 271.532 36.805 271.532 36.3651C271.532 35.7426 271.065 35.3414 270.341 35.3414H269.043C268.821 35.3414 268.686 35.4838 268.686 35.7224V39.0651C268.686 39.3038 268.821 39.4461 269.043 39.4461V39.4447ZM269.399 37.0696V35.9122H270.162C270.588 35.9122 270.828 36.1135 270.828 36.4729C270.828 36.8539 270.55 37.0696 270.052 37.0696H269.399ZM269.399 38.8725V37.59H270.165C270.712 37.59 270.999 37.8085 270.999 38.2269C270.999 38.6453 270.721 38.8725 270.194 38.8725H269.398H269.399Z" fill="white"/>
<path d="M274.894 39.5122C275.906 39.5122 276.533 38.8926 276.533 37.9969V35.6735C276.533 35.432 276.4 35.2925 276.179 35.2925C275.958 35.2925 275.822 35.432 275.822 35.6735V37.9322C275.822 38.4929 275.485 38.8739 274.893 38.8739C274.301 38.8739 273.966 38.4929 273.966 37.9322V35.6735C273.966 35.432 273.833 35.2925 273.609 35.2925C273.385 35.2925 273.252 35.432 273.252 35.6735V37.9969C273.252 38.8926 273.882 39.5122 274.891 39.5122H274.894Z" fill="white"/>
<path d="M278.615 39.4921C278.839 39.4921 278.972 39.3527 278.972 39.1111V35.6721C278.972 35.4306 278.839 35.2911 278.615 35.2911C278.391 35.2911 278.258 35.4306 278.258 35.6721V39.1111C278.258 39.3527 278.394 39.4921 278.615 39.4921Z" fill="white"/>
<path d="M281.05 39.4447H282.936C283.132 39.4447 283.262 39.3254 283.262 39.1342C283.262 38.9429 283.129 38.8236 282.936 38.8236H281.407V35.6721C281.407 35.4306 281.274 35.2911 281.05 35.2911C280.827 35.2911 280.694 35.4306 280.694 35.6721V39.0623C280.694 39.3009 280.829 39.4433 281.05 39.4433V39.4447Z" fill="white"/>
<path d="M285.529 39.4921C285.753 39.4921 285.886 39.3527 285.886 39.1111V35.9597H286.798C286.991 35.9597 287.124 35.8403 287.124 35.6491C287.124 35.4579 286.994 35.3386 286.798 35.3386H284.264C284.068 35.3386 283.938 35.4579 283.938 35.6491C283.938 35.8403 284.071 35.9597 284.264 35.9597H285.176V39.1111C285.176 39.3527 285.309 39.4921 285.53 39.4921H285.529Z" fill="white"/>
<path d="M291.095 39.4447H292.41C293.261 39.4447 293.779 39.0004 293.779 38.2787C293.779 37.7352 293.4 37.3341 292.858 37.2809V37.2579C293.267 37.1889 293.585 36.805 293.585 36.3651C293.585 35.7426 293.117 35.3414 292.394 35.3414H291.095C290.874 35.3414 290.738 35.4838 290.738 35.7224V39.0651C290.738 39.3038 290.874 39.4461 291.095 39.4461V39.4447ZM291.452 37.0696V35.9122H292.214C292.64 35.9122 292.881 36.1135 292.881 36.4729C292.881 36.8539 292.602 37.0696 292.104 37.0696H291.452ZM291.452 38.8725V37.59H292.217C292.764 37.59 293.051 37.8085 293.051 38.2269C293.051 38.6453 292.771 38.8725 292.247 38.8725H291.45H291.452Z" fill="white"/>
<path d="M296.727 39.4921C296.95 39.4921 297.083 39.3527 297.083 39.1111V37.8258L298.328 35.872C298.381 35.7872 298.402 35.7095 298.402 35.6247C298.402 35.4335 298.249 35.2911 298.05 35.2911C297.909 35.2911 297.821 35.3501 297.733 35.5039L296.74 37.1257H296.724L295.734 35.5039C295.643 35.3443 295.558 35.2911 295.408 35.2911C295.207 35.2911 295.054 35.4335 295.054 35.6261C295.054 35.7081 295.076 35.7886 295.125 35.8705L296.372 37.8244V39.1097C296.372 39.3512 296.505 39.4907 296.727 39.4907V39.4921Z" fill="white"/>
<mask id="mask0_0_1008" style="mask-type:luminance" maskUnits="userSpaceOnUse" x="300" y="29" width="15" height="16">
<path d="M314.999 29.8033H300.456V45H314.999V29.8033Z" fill="white"/>
</mask>
<g mask="url(#mask0_0_1008)">
<path d="M307.72 44.9842L300.456 37.393L307.72 29.8033L314.985 37.393L307.72 44.9842Z" fill="url(#paint0_linear_0_1008)"/>
<path d="M307.72 44.9842L300.456 37.393L307.72 29.8033L314.985 37.393L307.72 44.9842Z" fill="url(#paint1_linear_0_1008)"/>
<path d="M310.478 38.1622L307.718 44.9842L314.983 37.393L313.095 35.4219L310.477 38.1622H310.478Z" fill="url(#paint2_linear_0_1008)"/>
<path d="M310.478 38.1622L307.718 44.9842L314.983 37.393L313.095 35.4219L310.477 38.1622H310.478Z" fill="url(#paint3_linear_0_1008)"/>
<path opacity="0.4" d="M310.478 38.1622L307.718 44.9842L314.983 37.393L313.095 35.4219L310.477 38.1622H310.478Z" fill="url(#paint4_linear_0_1008)"/>
</g>
<path d="M258.895 26.1444H254.759V14.2243C254.937 14.174 255.193 14.1236 255.526 14.0748C255.858 14.0244 256.219 14 256.608 14C257.418 14 258.002 14.138 258.359 14.4126C258.715 14.6872 258.893 15.2163 258.893 15.9999V26.1458L258.895 26.1444ZM254.759 23.9202H258.895V30.492C258.715 30.5423 258.461 30.5927 258.128 30.6415C257.795 30.6919 257.435 30.7163 257.046 30.7163C256.251 30.7163 255.672 30.574 255.306 30.2907C254.941 30.0075 254.759 29.4827 254.759 28.7164V23.9188V23.9202Z" fill="white"/>
<path d="M272.96 24.445C272.96 25.7778 272.697 26.9279 272.169 27.8941C271.641 28.8602 270.904 29.6064 269.955 30.1312C269.006 30.6559 267.884 30.919 266.586 30.919C265.289 30.919 264.186 30.6602 263.229 30.1441C262.272 29.628 261.53 28.8861 261.004 27.92C260.476 26.9538 260.213 25.7965 260.213 24.4464C260.213 23.0964 260.48 21.9894 261.016 21.0232C261.551 20.0571 262.297 19.3109 263.254 18.7862C264.211 18.2614 265.321 17.9983 266.586 17.9983C267.852 17.9983 268.982 18.2643 269.931 18.7977C270.88 19.3311 271.622 20.0801 272.157 21.0462C272.691 22.0124 272.96 23.1453 272.96 24.445ZM266.586 21.3208C265.922 21.3208 265.398 21.5911 265.018 22.1332C264.637 22.6752 264.447 23.4458 264.447 24.445C264.447 25.4442 264.633 26.2608 265.006 26.7942C265.379 27.3276 265.906 27.5936 266.588 27.5936C267.269 27.5936 267.796 27.3233 268.169 26.7813C268.542 26.2407 268.729 25.4615 268.729 24.445C268.729 23.4285 268.539 22.6953 268.158 22.1461C267.777 21.5969 267.254 21.3208 266.589 21.3208H266.586Z" fill="white"/>
<path d="M279.172 17.9983C280.94 17.9983 282.355 18.3692 283.417 19.1096C284.479 19.8515 285.01 21.0046 285.01 22.5702V28.1672C285.01 28.6 284.892 28.9551 284.657 29.2297C284.422 29.5043 284.142 29.7415 283.817 29.9414C283.298 30.2577 282.665 30.4992 281.919 30.666C281.174 30.8328 280.321 30.9162 279.365 30.9162C277.662 30.9162 276.296 30.5783 275.266 29.904C274.236 29.2297 273.721 28.2089 273.721 26.8431C273.721 25.6929 274.057 24.8102 274.73 24.1948C275.403 23.5781 276.429 23.1956 277.808 23.0447L280.994 22.6953V22.5199C280.994 22.0368 280.787 21.6918 280.374 21.4833C279.96 21.2748 279.365 21.1713 278.586 21.1713C277.985 21.1713 277.389 21.2375 276.797 21.3712C276.205 21.5049 275.673 21.6717 275.205 21.8715C274.993 21.722 274.815 21.4934 274.67 21.1843C274.524 20.8766 274.452 20.556 274.452 20.2224C274.452 19.4231 274.866 18.8566 275.692 18.5231C276.162 18.3405 276.717 18.2068 277.358 18.1234C277.999 18.04 278.603 17.9983 279.171 17.9983H279.172ZM279.367 27.8193C279.642 27.8193 279.946 27.7906 280.279 27.7316C280.611 27.6727 280.859 27.5936 281.021 27.4944V25.4945L279.27 25.6441C278.815 25.6771 278.443 25.7778 278.151 25.9445C277.858 26.1113 277.712 26.3615 277.712 26.6936C277.712 27.0257 277.838 27.2974 278.089 27.5059C278.339 27.7144 278.766 27.8179 279.365 27.8179L279.367 27.8193Z" fill="white"/>
<path d="M298.351 22.6967V24.9956H294.216V22.8218C294.216 22.3057 294.066 21.9261 293.765 21.6846C293.464 21.4431 293.072 21.3223 292.585 21.3223C292.261 21.3223 291.957 21.364 291.673 21.4474C291.389 21.5308 291.117 21.6386 290.858 21.7723V24.9956H286.723V21.1972C286.723 20.7472 286.816 20.3806 287.003 20.0974C287.189 19.8141 287.445 19.5568 287.769 19.3224C288.321 18.9227 289.018 18.6021 289.862 18.3606C290.704 18.1191 291.629 17.9983 292.636 17.9983C294.468 17.9983 295.878 18.4109 296.868 19.2347C297.857 20.06 298.351 21.213 298.351 22.6953V22.6967ZM286.724 23.9217H290.86V30.4935C290.68 30.5438 290.426 30.5941 290.093 30.643C289.76 30.6933 289.4 30.7178 289.011 30.7178C288.216 30.7178 287.637 30.5754 287.271 30.2922C286.906 30.009 286.724 29.4842 286.724 28.7179V23.9202V23.9217ZM294.217 23.9217H298.353V30.4935C298.174 30.5438 297.919 30.5941 297.586 30.643C297.253 30.6933 296.893 30.7178 296.504 30.7178C295.709 30.7178 295.13 30.5754 294.764 30.2922C294.399 30.009 294.217 29.4842 294.217 28.7179V23.9202V23.9217Z" fill="white"/>
<path d="M247.175 21.3726C247.204 21.3726 247.234 21.3726 247.263 21.3726C247.293 21.3726 247.322 21.3726 247.351 21.3726C247.837 21.3726 248.218 21.4977 248.493 21.7478C248.785 21.9807 248.93 22.356 248.93 22.8736V28.7768C248.93 29.1938 248.979 29.5359 249.076 29.8019C249.189 30.0521 249.343 30.2519 249.537 30.4029C249.732 30.5538 249.967 30.653 250.241 30.7034C250.533 30.7537 250.857 30.7781 251.213 30.7781C251.568 30.7781 251.942 30.7537 252.282 30.7034C252.639 30.653 252.898 30.6027 253.06 30.5538V22.724C253.06 21.2561 252.566 20.1146 251.578 19.2965C250.59 18.4627 249.181 18.0457 247.35 18.0457C247.321 18.0457 247.291 18.0457 247.262 18.0457C247.232 18.0457 247.203 18.0457 247.174 18.0457C245.343 18.0457 243.934 18.4627 242.946 19.2965C241.958 20.1131 241.464 21.2561 241.464 22.724V26.4535C241.626 26.5038 241.885 26.5541 242.242 26.603C242.582 26.6533 242.939 26.6778 243.311 26.6778C243.683 26.6778 243.991 26.6533 244.282 26.603C244.558 26.5527 244.793 26.4535 244.988 26.3025C245.182 26.153 245.336 25.9517 245.449 25.7015C245.546 25.4341 245.595 25.0934 245.595 24.6765V22.8736C245.595 22.356 245.741 21.9807 246.033 21.7478C246.309 21.4977 246.689 21.3726 247.175 21.3726Z" fill="white"/>
<path d="M239.888 27.4512C239.858 27.4512 239.829 27.4512 239.8 27.4512C239.77 27.4512 239.741 27.4512 239.711 27.4512C239.226 27.4512 238.845 27.3262 238.569 27.076C238.278 26.8431 238.131 26.4678 238.131 25.9503V20.047C238.131 19.6301 238.082 19.2879 237.986 19.0219C237.872 18.7718 237.718 18.5719 237.524 18.421C237.329 18.2714 237.094 18.1708 236.82 18.1205C236.529 18.0702 236.204 18.0457 235.849 18.0457C235.493 18.0457 235.12 18.0702 234.779 18.1205C234.423 18.1708 234.164 18.2211 234.001 18.27V26.0998C234.001 27.5677 234.495 28.7092 235.483 29.5273C236.471 30.3612 237.881 30.7781 239.711 30.7781C239.741 30.7781 239.77 30.7781 239.8 30.7781C239.829 30.7781 239.858 30.7781 239.888 30.7781C241.718 30.7781 243.128 30.3612 244.116 29.5273C245.104 28.7107 245.598 27.5677 245.598 26.0998V22.3704C245.435 22.32 245.177 22.2697 244.82 22.2208C244.48 22.1705 244.123 22.1461 243.75 22.1461C243.378 22.1461 243.07 22.1705 242.779 22.2208C242.503 22.2712 242.268 22.3704 242.075 22.5213C241.881 22.6708 241.727 22.8721 241.613 23.1223C241.517 23.3897 241.468 23.7304 241.468 24.1474V25.9503C241.468 26.4678 241.322 26.8431 241.03 27.076C240.754 27.3262 240.373 27.4512 239.888 27.4512Z" fill="white"/>
</g>
<defs>
<linearGradient id="paint0_linear_0_1008" x1="300.456" y1="37.3945" x2="314.985" y2="37.3945" gradientUnits="userSpaceOnUse">
<stop offset="0.32" stop-color="#FEEA00"/>
<stop offset="0.46" stop-color="#FFE800"/>
<stop offset="0.6" stop-color="#FFE200"/>
<stop offset="0.74" stop-color="#FFD600"/>
<stop offset="0.8" stop-color="#FFD000"/>
</linearGradient>
<linearGradient id="paint1_linear_0_1008" x1="304.026" y1="33.6636" x2="314.75" y2="43.9263" gradientUnits="userSpaceOnUse">
<stop stop-color="#FEEA00"/>
<stop offset="0.17" stop-color="#FFE500" stop-opacity="0.7"/>
<stop offset="0.42" stop-color="#FFD700" stop-opacity="0.21"/>
<stop offset="0.53" stop-color="#FFD000" stop-opacity="0"/>
</linearGradient>
<linearGradient id="paint2_linear_0_1008" x1="306.249" y1="40.2038" x2="321.653" y2="40.2038" gradientUnits="userSpaceOnUse">
<stop stop-color="#F18700"/>
<stop offset="0.06" stop-color="#F28B00"/>
<stop offset="0.13" stop-color="#F49600"/>
<stop offset="0.2" stop-color="#F8AA00"/>
<stop offset="0.27" stop-color="#F9AD00" stop-opacity="0.94"/>
<stop offset="0.33" stop-color="#FAB500" stop-opacity="0.88"/>
<stop offset="0.38" stop-color="#FDC100" stop-opacity="0.83"/>
<stop offset="0.42" stop-color="#FFD200" stop-opacity="0.79"/>
<stop offset="0.46" stop-color="#FFE400" stop-opacity="0.75"/>
<stop offset="0.7" stop-color="#FEEA00" stop-opacity="0.3"/>
</linearGradient>
<linearGradient id="paint3_linear_0_1008" x1="309.398" y1="39.5367" x2="311.808" y2="41.0462" gradientUnits="userSpaceOnUse">
<stop stop-color="#F18700"/>
<stop offset="0.49" stop-color="#FEC900" stop-opacity="0"/>
</linearGradient>
<linearGradient id="paint4_linear_0_1008" x1="309.286" y1="39.3943" x2="312.742" y2="41.7595" gradientUnits="userSpaceOnUse">
<stop offset="0.02"/>
<stop offset="0.48" stop-color="#FEC900" stop-opacity="0"/>
</linearGradient>
<clipPath id="clip0_0_1008">
<rect width="81" height="31" fill="white" transform="translate(234 14)"/>
</clipPath>
</defs>
</svg>
