<svg width="320" height="50" viewBox="0 0 320 50" fill="none" xmlns="http://www.w3.org/2000/svg">
<g clip-path="url(#clip0_0_1037)">
<path d="M283.496 40.4159H284.341C284.887 40.4159 285.22 40.1292 285.22 39.6636C285.22 39.313 284.976 39.0542 284.628 39.0199V39.0051C284.891 38.9605 285.095 38.7129 285.095 38.429C285.095 38.0274 284.795 37.7686 284.33 37.7686H283.496C283.354 37.7686 283.267 37.8604 283.267 38.0144V40.171C283.267 40.325 283.354 40.4168 283.496 40.4168V40.4159ZM283.726 38.8835V38.1369H284.215C284.488 38.1369 284.643 38.2667 284.643 38.4986C284.643 38.7444 284.464 38.8835 284.144 38.8835H283.726ZM283.726 40.0467V39.2193H284.217C284.568 39.2193 284.752 39.3603 284.752 39.6302C284.752 39.9001 284.574 40.0467 284.236 40.0467H283.725H283.726Z" fill="#171D21"/>
<path d="M287.253 40.4596C287.902 40.4596 288.305 40.0598 288.305 39.4819V37.983C288.305 37.8272 288.22 37.7372 288.078 37.7372C287.936 37.7372 287.849 37.8272 287.849 37.983V39.4402C287.849 39.8019 287.632 40.0477 287.252 40.0477C286.872 40.0477 286.657 39.8019 286.657 39.4402V37.983C286.657 37.8272 286.572 37.7372 286.428 37.7372C286.284 37.7372 286.199 37.8272 286.199 37.983V39.4819C286.199 40.0598 286.603 40.4596 287.251 40.4596H287.253Z" fill="#171D21"/>
<path d="M289.642 40.4465C289.786 40.4465 289.871 40.3565 289.871 40.2007V37.9819C289.871 37.8261 289.786 37.7361 289.642 37.7361C289.498 37.7361 289.413 37.8261 289.413 37.9819V40.2007C289.413 40.3565 289.5 40.4465 289.642 40.4465Z" fill="#171D21"/>
<path d="M291.205 40.4159H292.415C292.541 40.4159 292.625 40.3389 292.625 40.2155C292.625 40.0921 292.539 40.0152 292.415 40.0152H291.434V37.9819C291.434 37.8261 291.349 37.7361 291.205 37.7361C291.061 37.7361 290.976 37.8261 290.976 37.9819V40.1691C290.976 40.3231 291.063 40.4149 291.205 40.4149V40.4159Z" fill="#171D21"/>
<path d="M294.08 40.4466C294.224 40.4466 294.309 40.3566 294.309 40.2008V38.1676H294.895C295.019 38.1676 295.105 38.0906 295.105 37.9672C295.105 37.8438 295.021 37.7668 294.895 37.7668H293.268C293.142 37.7668 293.059 37.8438 293.059 37.9672C293.059 38.0906 293.144 38.1676 293.268 38.1676H293.854V40.2008C293.854 40.3566 293.939 40.4466 294.081 40.4466H294.08Z" fill="#171D21"/>
<path d="M297.653 40.4159H298.498C299.044 40.4159 299.377 40.1292 299.377 39.6636C299.377 39.313 299.133 39.0542 298.785 39.0199V39.0051C299.048 38.9605 299.252 38.7129 299.252 38.429C299.252 38.0274 298.952 37.7686 298.487 37.7686H297.653C297.511 37.7686 297.424 37.8604 297.424 38.0144V40.171C297.424 40.325 297.511 40.4168 297.653 40.4168V40.4159ZM297.883 38.8835V38.1369H298.372C298.645 38.1369 298.8 38.2667 298.8 38.4986C298.8 38.7444 298.621 38.8835 298.301 38.8835H297.883ZM297.883 40.0467V39.2193H298.374C298.725 39.2193 298.909 39.3603 298.909 39.6302C298.909 39.9001 298.73 40.0467 298.393 40.0467H297.882H297.883Z" fill="#171D21"/>
<path d="M301.269 40.4465C301.413 40.4465 301.498 40.3565 301.498 40.2007V39.3714L302.297 38.1109C302.331 38.0562 302.344 38.0061 302.344 37.9513C302.344 37.828 302.246 37.7361 302.119 37.7361C302.028 37.7361 301.971 37.7742 301.915 37.8734L301.278 38.9197H301.267L300.632 37.8734C300.573 37.7705 300.519 37.7361 300.422 37.7361C300.293 37.7361 300.195 37.828 300.195 37.9523C300.195 38.0051 300.21 38.0571 300.241 38.11L301.042 39.3705V40.1997C301.042 40.3556 301.127 40.4455 301.269 40.4455V40.4465Z" fill="#171D21"/>
<mask id="mask0_0_1037" style="mask-type:luminance" maskUnits="userSpaceOnUse" x="303" y="34" width="10" height="10">
<path d="M312.999 34.1957H303.663V44H312.999V34.1957Z" fill="white"/>
</mask>
<g mask="url(#mask0_0_1037)">
<path d="M308.326 43.9898L303.663 39.0923L308.326 34.1957L312.99 39.0923L308.326 43.9898Z" fill="url(#paint0_linear_0_1037)"/>
<path d="M308.326 43.9898L303.663 39.0923L308.326 34.1957L312.99 39.0923L308.326 43.9898Z" fill="url(#paint1_linear_0_1037)"/>
<path d="M310.097 39.5885L308.325 43.9897L312.989 39.0922L311.777 37.8206L310.096 39.5885H310.097Z" fill="url(#paint2_linear_0_1037)"/>
<path d="M310.097 39.5885L308.325 43.9897L312.989 39.0922L311.777 37.8206L310.096 39.5885H310.097Z" fill="url(#paint3_linear_0_1037)"/>
<path opacity="0.4" d="M310.097 39.5885L308.325 43.9897L312.989 39.0922L311.777 37.8206L310.096 39.5885H310.097Z" fill="url(#paint4_linear_0_1037)"/>
</g>
<path d="M276.982 31.8351H274.327V24.1447C274.441 24.1122 274.605 24.0798 274.819 24.0482C275.032 24.0158 275.264 24 275.514 24C276.034 24 276.409 24.089 276.638 24.2662C276.867 24.4434 276.981 24.7847 276.981 25.2902V31.836L276.982 31.8351ZM274.327 30.4001H276.982V34.64C276.867 34.6725 276.703 34.7049 276.489 34.7365C276.276 34.7689 276.045 34.7847 275.795 34.7847C275.285 34.7847 274.913 34.6929 274.678 34.5102C274.444 34.3274 274.327 33.9889 274.327 33.4945V30.3992V30.4001Z" fill="#171D21"/>
<path d="M286.011 30.7388C286.011 31.5986 285.842 32.3407 285.504 32.964C285.165 33.5873 284.691 34.0687 284.082 34.4072C283.473 34.7458 282.753 34.9156 281.92 34.9156C281.087 34.9156 280.379 34.7486 279.764 34.4156C279.15 34.0826 278.674 33.604 278.336 32.9807C277.997 32.3573 277.828 31.6107 277.828 30.7397C277.828 29.8687 278 29.1545 278.344 28.5312C278.687 27.9079 279.166 27.4265 279.78 27.0879C280.395 26.7493 281.107 26.5796 281.92 26.5796C282.732 26.5796 283.458 26.7512 284.067 27.0953C284.676 27.4394 285.152 27.9227 285.496 28.546C285.839 29.1693 286.011 29.9002 286.011 30.7388ZM281.92 28.7232C281.493 28.7232 281.157 28.8976 280.913 29.2472C280.668 29.5969 280.546 30.0941 280.546 30.7388C280.546 31.3834 280.665 31.9103 280.905 32.2544C281.144 32.5985 281.483 32.7701 281.921 32.7701C282.358 32.7701 282.696 32.5957 282.936 32.246C283.175 31.8973 283.295 31.3945 283.295 30.7388C283.295 30.083 283.173 29.6099 282.929 29.2556C282.684 28.9013 282.348 28.7232 281.921 28.7232H281.92Z" fill="#171D21"/>
<path d="M289.999 26.5796C291.134 26.5796 292.043 26.8189 292.725 27.2966C293.406 27.7752 293.747 28.5191 293.747 29.5292V33.1402C293.747 33.4194 293.671 33.6485 293.521 33.8257C293.37 34.0028 293.19 34.1559 292.981 34.2848C292.648 34.4889 292.242 34.6447 291.763 34.7523C291.284 34.8599 290.737 34.9137 290.123 34.9137C289.03 34.9137 288.153 34.6957 287.492 34.2607C286.831 33.8257 286.5 33.1671 286.5 32.2859C286.5 31.5439 286.716 30.9744 287.148 30.5774C287.58 30.1794 288.239 29.9327 289.123 29.8353L291.169 29.6099V29.4968C291.169 29.1851 291.036 28.9625 290.771 28.828C290.505 28.6935 290.123 28.6267 289.623 28.6267C289.238 28.6267 288.855 28.6694 288.475 28.7556C288.095 28.8419 287.753 28.9495 287.452 29.0784C287.317 28.982 287.203 28.8345 287.109 28.6351C287.016 28.4366 286.969 28.2297 286.969 28.0145C286.969 27.4988 287.235 27.1333 287.765 26.9181C288.067 26.8003 288.424 26.7141 288.835 26.6603C289.247 26.6065 289.634 26.5796 289.999 26.5796H289.999ZM290.124 32.9157C290.301 32.9157 290.496 32.8972 290.71 32.8592C290.923 32.8211 291.082 32.7701 291.186 32.7061V31.4159L290.062 31.5123C289.77 31.5337 289.531 31.5986 289.344 31.7062C289.156 31.8138 289.062 31.9752 289.062 32.1895C289.062 32.4037 289.143 32.579 289.304 32.7135C289.465 32.848 289.739 32.9148 290.123 32.9148L290.124 32.9157Z" fill="#171D21"/>
<path d="M302.312 29.6108V31.094H299.657V29.6915C299.657 29.3586 299.561 29.1137 299.368 28.9578C299.175 28.802 298.923 28.7241 298.61 28.7241C298.402 28.7241 298.207 28.751 298.025 28.8048C297.842 28.8586 297.668 28.9282 297.502 29.0144V31.094H294.847V28.6434C294.847 28.3531 294.907 28.1166 295.026 27.9338C295.146 27.7511 295.31 27.5851 295.519 27.4339C295.873 27.176 296.32 26.9692 296.862 26.8133C297.403 26.6575 297.997 26.5796 298.643 26.5796C299.819 26.5796 300.724 26.8458 301.36 27.3773C301.995 27.9097 302.312 28.6536 302.312 29.6099V29.6108ZM294.848 30.4011H297.503V34.641C297.388 34.6735 297.224 34.7059 297.01 34.7375C296.796 34.7699 296.565 34.7857 296.316 34.7857C295.805 34.7857 295.433 34.6939 295.199 34.5111C294.964 34.3284 294.848 33.9898 294.848 33.4955V30.4002V30.4011ZM299.658 30.4011H302.313V34.641C302.198 34.6735 302.034 34.7059 301.821 34.7375C301.607 34.7699 301.376 34.7857 301.126 34.7857C300.616 34.7857 300.244 34.6939 300.009 34.5111C299.775 34.3284 299.658 33.9898 299.658 33.4955V30.4002V30.4011Z" fill="#171D21"/>
<path d="M269.458 28.7565C269.477 28.7565 269.496 28.7565 269.515 28.7565C269.534 28.7565 269.552 28.7565 269.571 28.7565C269.883 28.7565 270.127 28.8372 270.304 28.9986C270.491 29.1488 270.585 29.3909 270.585 29.7248V33.5334C270.585 33.8024 270.616 34.0231 270.678 34.1947C270.751 34.3561 270.85 34.4851 270.975 34.5825C271.1 34.6799 271.251 34.7439 271.427 34.7763C271.614 34.8088 271.822 34.8246 272.05 34.8246C272.278 34.8246 272.518 34.8088 272.737 34.7763C272.966 34.7439 273.132 34.7114 273.236 34.6799V29.6284C273.236 28.6813 272.919 27.9449 272.285 27.4171C271.65 26.8791 270.746 26.6101 269.57 26.6101C269.552 26.6101 269.533 26.6101 269.514 26.6101C269.495 26.6101 269.476 26.6101 269.457 26.6101C268.282 26.6101 267.377 26.8791 266.743 27.4171C266.109 27.9439 265.792 28.6813 265.792 29.6284V32.0345C265.896 32.0669 266.062 32.0994 266.291 32.1309C266.509 32.1634 266.738 32.1792 266.977 32.1792C267.216 32.1792 267.414 32.1634 267.601 32.1309C267.778 32.0985 267.929 32.0345 268.054 31.9371C268.179 31.8406 268.278 31.7107 268.35 31.5494C268.412 31.3768 268.444 31.157 268.444 30.888V29.7248C268.444 29.3909 268.537 29.1488 268.725 28.9986C268.902 28.8372 269.146 28.7565 269.458 28.7565Z" fill="#171D21"/>
<path d="M264.78 32.6782C264.761 32.6782 264.742 32.6782 264.723 32.6782C264.704 32.6782 264.685 32.6782 264.667 32.6782C264.355 32.6782 264.11 32.5975 263.933 32.4361C263.747 32.2858 263.652 32.0437 263.652 31.7098V27.9013C263.652 27.6323 263.621 27.4115 263.559 27.2399C263.486 27.0785 263.387 26.9496 263.262 26.8522C263.137 26.7557 262.986 26.6908 262.81 26.6583C262.623 26.6259 262.415 26.6101 262.187 26.6101C261.959 26.6101 261.719 26.6259 261.5 26.6583C261.271 26.6908 261.105 26.7233 261.001 26.7548V31.8063C261.001 32.7533 261.318 33.4898 261.952 34.0176C262.587 34.5556 263.491 34.8246 264.667 34.8246C264.685 34.8246 264.704 34.8246 264.723 34.8246C264.742 34.8246 264.761 34.8246 264.78 34.8246C265.955 34.8246 266.86 34.5556 267.494 34.0176C268.128 33.4907 268.445 32.7533 268.445 31.8063V29.4002C268.341 29.3677 268.175 29.3353 267.946 29.3037C267.728 29.2713 267.498 29.2555 267.26 29.2555C267.021 29.2555 266.823 29.2713 266.636 29.3037C266.459 29.3362 266.308 29.4002 266.184 29.4976C266.059 29.5941 265.96 29.7239 265.888 29.8853C265.826 30.0578 265.794 30.2777 265.794 30.5467V31.7098C265.794 32.0437 265.701 32.2858 265.513 32.4361C265.336 32.5975 265.092 32.6782 264.78 32.6782Z" fill="#171D21"/>
</g>
<defs>
<linearGradient id="paint0_linear_0_1037" x1="303.663" y1="39.0932" x2="312.99" y2="39.0932" gradientUnits="userSpaceOnUse">
<stop offset="0.32" stop-color="#FEEA00"/>
<stop offset="0.46" stop-color="#FFE800"/>
<stop offset="0.6" stop-color="#FFE200"/>
<stop offset="0.74" stop-color="#FFD600"/>
<stop offset="0.8" stop-color="#FFD000"/>
</linearGradient>
<linearGradient id="paint1_linear_0_1037" x1="305.955" y1="36.6862" x2="312.872" y2="43.273" gradientUnits="userSpaceOnUse">
<stop stop-color="#FEEA00"/>
<stop offset="0.17" stop-color="#FFE500" stop-opacity="0.7"/>
<stop offset="0.42" stop-color="#FFD700" stop-opacity="0.21"/>
<stop offset="0.53" stop-color="#FFD000" stop-opacity="0"/>
</linearGradient>
<linearGradient id="paint2_linear_0_1037" x1="307.382" y1="40.9056" x2="317.271" y2="40.9056" gradientUnits="userSpaceOnUse">
<stop stop-color="#F18700"/>
<stop offset="0.06" stop-color="#F28B00"/>
<stop offset="0.13" stop-color="#F49600"/>
<stop offset="0.2" stop-color="#F8AA00"/>
<stop offset="0.27" stop-color="#F9AD00" stop-opacity="0.94"/>
<stop offset="0.33" stop-color="#FAB500" stop-opacity="0.88"/>
<stop offset="0.38" stop-color="#FDC100" stop-opacity="0.83"/>
<stop offset="0.42" stop-color="#FFD200" stop-opacity="0.79"/>
<stop offset="0.46" stop-color="#FFE400" stop-opacity="0.75"/>
<stop offset="0.7" stop-color="#FEEA00" stop-opacity="0.3"/>
</linearGradient>
<linearGradient id="paint3_linear_0_1037" x1="309.403" y1="40.4752" x2="310.955" y2="41.4422" gradientUnits="userSpaceOnUse">
<stop stop-color="#F18700"/>
<stop offset="0.49" stop-color="#FEC900" stop-opacity="0"/>
</linearGradient>
<linearGradient id="paint4_linear_0_1037" x1="309.332" y1="40.3834" x2="311.558" y2="41.899" gradientUnits="userSpaceOnUse">
<stop offset="0.02"/>
<stop offset="0.48" stop-color="#FEC900" stop-opacity="0"/>
</linearGradient>
<clipPath id="clip0_0_1037">
<rect width="52" height="20" fill="white" transform="translate(261 24)"/>
</clipPath>
</defs>
</svg>
