<svg xmlns="http://www.w3.org/2000/svg" viewBox="0 0 970 250"><defs><style>.cls-1{fill:#fff;}</style></defs><g id="Layer_2" data-name="Layer 2"><path class="cls-1" d="M42.21,82.38H53.68c5.55,0,9.07,3.52,9.07,8.7a8.22,8.22,0,0,1-2.22,6,6.64,6.64,0,0,1-2.22,1.55l5.36,9.63h-6.1l-4.63-8.52H47.76v8.52H42.21ZM53.5,94.59a3.52,3.52,0,0,0,0-7H47.76v7Z"/><path class="cls-1" d="M83.28,105.69a9,9,0,0,1-2,1.48,11.66,11.66,0,0,1-5.78,1.49,9.44,9.44,0,1,1-.18-18.88,9.08,9.08,0,0,1,9.06,9.07,13.89,13.89,0,0,1-.11,1.59l-.07.63H71.07a4.67,4.67,0,0,0,4.81,3.14,6.39,6.39,0,0,0,3.59-1,4.76,4.76,0,0,0,1.22-1Zm-4.07-8.32a4.2,4.2,0,0,0-8.14,0Z"/><path class="cls-1" d="M89.2,102.18a6,6,0,0,0,1.3,1,6.41,6.41,0,0,0,3.51,1c1.67,0,2.22-.55,2.22-1.29,0-2-9.25-1.67-9.25-7.59,0-3,2.59-5.55,7.22-5.55a10.13,10.13,0,0,1,5.25,1.41,8.61,8.61,0,0,1,1.78,1.37l-3,3.14A7.69,7.69,0,0,0,97.2,95a6.06,6.06,0,0,0-3-.74c-1.3,0-1.85.56-1.85,1.11,0,2,9.25,1.67,9.25,7.59,0,3.11-2.59,5.74-7.59,5.74A10.6,10.6,0,0,1,88.24,107a8.88,8.88,0,0,1-2-1.67Z"/><path class="cls-1" d="M106.41,95.15h-3.15V90.52h1.67c1.37,0,2-.74,2-2.22V85h4.44v5.55h4.07v4.63H111.4v6.1a2.29,2.29,0,0,0,2.41,2.59,5.55,5.55,0,0,0,1.44-.18,2.55,2.55,0,0,0,.59-.19v4.63c-.29.11-.63.19-1,.3a10.67,10.67,0,0,1-2.37.26c-3.7,0-6.1-2.37-6.1-6.67Z"/><path class="cls-1" d="M129.53,106.06h-.18a7.34,7.34,0,0,1-1.37,1.3,6.46,6.46,0,0,1-4,1.3c-3.33,0-5.55-2.23-5.55-5.19s2-5.21,5.37-5.8l5.73-1a2.89,2.89,0,0,0-3.14-2.41,4.79,4.79,0,0,0-3,1,5.4,5.4,0,0,0-1.07,1l-3-3a9.73,9.73,0,0,1,7.4-3.52c4.62,0,7.77,3.19,7.77,7.22v11.29h-5Zm0-5.92-4.07.74c-1.29.26-2,.93-2,1.85,0,1.15.74,1.85,2.22,1.85a3.83,3.83,0,0,0,3.88-4.07Z"/><path class="cls-1" d="M139.34,90.15h5v10.18c0,2.22,1.26,3.51,3.33,3.51a3.84,3.84,0,0,0,3.89-4.07V90.15h5v18.14h-5v-2.6h-.19a8,8,0,0,1-1.37,1.48,6.16,6.16,0,0,1-4,1.49c-3.7,0-6.66-3-6.66-7.59Z"/><path class="cls-1" d="M161.35,90.15h5v2.59h.18a9.15,9.15,0,0,1,1.37-1.48,6.18,6.18,0,0,1,4-1.48h.37v5.37l-.41-.07A8.11,8.11,0,0,0,170.6,95c-2.4,0-4.25,1.85-4.25,4.81v8.52h-5Z"/><path class="cls-1" d="M185.59,106.06h-.19a7,7,0,0,1-1.37,1.3,6.4,6.4,0,0,1-4,1.3c-3.33,0-5.55-2.23-5.55-5.19s2-5.21,5.36-5.8l5.74-1a2.91,2.91,0,0,0-3.15-2.41,4.83,4.83,0,0,0-3,1,6,6,0,0,0-1.07,1l-3-3a9.79,9.79,0,0,1,7.4-3.52c4.63,0,7.77,3.19,7.77,7.22v11.29h-5Zm0-5.92-4.07.74c-1.3.26-2,.93-2,1.85,0,1.15.74,1.85,2.22,1.85a3.84,3.84,0,0,0,3.89-4.07Z"/><path class="cls-1" d="M195.39,90.15h5v2.59h.18a9.15,9.15,0,0,1,1.37-1.48,6.18,6.18,0,0,1,4-1.48c3.7,0,6.66,3,6.66,7.59v10.92h-5V98.11c0-2.22-1.26-3.52-3.33-3.52a3.84,3.84,0,0,0-3.88,4.07v9.63h-5Z"/><path class="cls-1" d="M218.52,95.15h-3.15V90.52H217c1.37,0,2-.74,2-2.22V85h4.44v5.55h4.07v4.63h-4.07v6.1a2.29,2.29,0,0,0,2.41,2.59,5.55,5.55,0,0,0,1.44-.18,2.55,2.55,0,0,0,.59-.19v4.63c-.29.11-.63.19-1,.3a10.67,10.67,0,0,1-2.37.26c-3.7,0-6.1-2.37-6.1-6.67Z"/><path class="cls-1" d="M233,102.18a6,6,0,0,0,1.29,1,6.44,6.44,0,0,0,3.52,1c1.66,0,2.22-.55,2.22-1.29,0-2-9.25-1.67-9.25-7.59,0-3,2.59-5.55,7.21-5.55a10.2,10.2,0,0,1,5.26,1.41A8.81,8.81,0,0,1,245,92.56l-3,3.14a6.66,6.66,0,0,0-1.07-.74,6,6,0,0,0-3-.74c-1.29,0-1.85.56-1.85,1.11,0,2,9.25,1.67,9.25,7.59,0,3.11-2.59,5.74-7.58,5.74A10.63,10.63,0,0,1,232,107a8.82,8.82,0,0,1-2-1.67Z"/><path class="cls-1" d="M266.62,106.06h-.19a7.34,7.34,0,0,1-1.37,1.3,6.45,6.45,0,0,1-4,1.3c-3.33,0-5.55-2.23-5.55-5.19s2-5.21,5.36-5.8l5.74-1a2.91,2.91,0,0,0-3.15-2.41,4.83,4.83,0,0,0-3,1,6,6,0,0,0-1.07,1l-3-3a9.79,9.79,0,0,1,7.4-3.52c4.63,0,7.77,3.19,7.77,7.22v11.29h-5Zm0-5.92-4.07.74c-1.3.26-2,.93-2,1.85,0,1.15.74,1.85,2.22,1.85a3.84,3.84,0,0,0,3.89-4.07Z"/><path class="cls-1" d="M276.42,90.15h5v2.59h.18A9.15,9.15,0,0,1,283,91.26a6.18,6.18,0,0,1,4-1.48c3.7,0,6.66,3,6.66,7.59v10.92h-5V98.11c0-2.22-1.26-3.52-3.33-3.52a3.84,3.84,0,0,0-3.88,4.07v9.63h-5Z"/><path class="cls-1" d="M311.39,105.69h-.19a6.36,6.36,0,0,1-1.41,1.48,7,7,0,0,1-4.32,1.49c-4.3,0-8.15-3.89-8.15-9.44s3.85-9.44,8.15-9.44a7.06,7.06,0,0,1,4.32,1.48,6.78,6.78,0,0,1,1.41,1.48h.19V82.38h5v25.91h-5Zm.18-6.47A4.63,4.63,0,1,0,307,104,4.62,4.62,0,0,0,311.57,99.22Z"/><path class="cls-1" d="M329.14,90.15h5v2.59h.18a7,7,0,0,1,1.19-1.48,5.56,5.56,0,0,1,3.81-1.48,6,6,0,0,1,4.14,1.6,6.23,6.23,0,0,1,1.23,1.55h.18a6.77,6.77,0,0,1,1.52-1.55,7,7,0,0,1,4.4-1.6c3.55,0,6.29,2.78,6.29,7.22v11.29h-5V97.74c0-2.07-1.08-3.15-3-3.15a3.43,3.43,0,0,0-3.52,3.7v10h-5V97.74c0-2.07-1.08-3.15-3-3.15a3.43,3.43,0,0,0-3.51,3.7v10h-5Z"/><path class="cls-1" d="M370.4,89.78a9.44,9.44,0,1,1-9.62,9.44A9.52,9.52,0,0,1,370.4,89.78ZM375,99.22A4.63,4.63,0,1,0,370.4,104,4.62,4.62,0,0,0,375,99.22Z"/><path class="cls-1" d="M383.72,90.15h5v2.59h.19a9.15,9.15,0,0,1,1.37-1.48,6.17,6.17,0,0,1,4-1.48h.37v5.37l-.4-.07A8.24,8.24,0,0,0,393,95c-2.41,0-4.26,1.85-4.26,4.81v8.52h-5Z"/><path class="cls-1" d="M413.69,105.69a8.88,8.88,0,0,1-2,1.48,11.59,11.59,0,0,1-5.77,1.49,9.44,9.44,0,1,1-.19-18.88,9.08,9.08,0,0,1,9.07,9.07,13.89,13.89,0,0,1-.11,1.59l-.07.63H401.48a4.65,4.65,0,0,0,4.81,3.14,6.42,6.42,0,0,0,3.59-1,4.76,4.76,0,0,0,1.22-1Zm-4.07-8.32a4.2,4.2,0,0,0-8.14,0Z"/><path class="cls-1" d="M419.42,102.73l4.26,2.41-5.18,8-3-1.67Z"/><path class="cls-1" d="M54.24,149.69h-.19a6.53,6.53,0,0,1-1.4,1.48,7.05,7.05,0,0,1-4.33,1.49c-4.29,0-8.14-3.89-8.14-9.44s3.85-9.44,8.14-9.44a7.11,7.11,0,0,1,4.33,1.48,7,7,0,0,1,1.4,1.48h.19V126.38h5v25.91h-5Zm.18-6.47A4.63,4.63,0,1,0,49.8,148,4.62,4.62,0,0,0,54.42,143.22Z"/><path class="cls-1" d="M80.51,149.69a9.11,9.11,0,0,1-2,1.48,11.59,11.59,0,0,1-5.77,1.49,9.44,9.44,0,1,1-.19-18.88,9.08,9.08,0,0,1,9.07,9.07,13.89,13.89,0,0,1-.11,1.59l-.08.63H68.3a4.65,4.65,0,0,0,4.81,3.14,6.42,6.42,0,0,0,3.59-1,4.76,4.76,0,0,0,1.22-1Zm-4.07-8.32a4.2,4.2,0,0,0-8.14,0Z"/><path class="cls-1" d="M85.5,126.38h5v25.91h-5Z"/><path class="cls-1" d="M98,126.2a2.83,2.83,0,0,1,2.85,2.77A2.88,2.88,0,0,1,98,131.75a2.78,2.78,0,1,1,0-5.55Zm-2.52,8h5v18.14h-5Z"/><path class="cls-1" d="M102.71,134.15h5.36l4.18,12.21h.15l4.18-12.21H122l-6.85,18.14h-5.55Z"/><path class="cls-1" d="M140.45,149.69a9.11,9.11,0,0,1-2,1.48,11.62,11.62,0,0,1-5.77,1.49,9.44,9.44,0,1,1-.19-18.88,9.08,9.08,0,0,1,9.07,9.07c0,.7-.08,1.18-.11,1.59l-.08.63H128.24a4.65,4.65,0,0,0,4.81,3.14,6.42,6.42,0,0,0,3.59-1,4.76,4.76,0,0,0,1.22-1Zm-4.07-8.32a4.2,4.2,0,0,0-8.14,0Z"/><path class="cls-1" d="M145.26,134.15h5v2.59h.19a9.15,9.15,0,0,1,1.37-1.48,6.17,6.17,0,0,1,4-1.48h.37v5.37l-.4-.07a8.24,8.24,0,0,0-1.26-.12c-2.41,0-4.26,1.85-4.26,4.81v8.52h-5Z"/><path class="cls-1" d="M175.23,149.69a9.11,9.11,0,0,1-2,1.48,11.62,11.62,0,0,1-5.77,1.49,9.44,9.44,0,1,1-.19-18.88,9.08,9.08,0,0,1,9.07,9.07c0,.7-.08,1.18-.11,1.59l-.08.63H163a4.65,4.65,0,0,0,4.81,3.14,6.42,6.42,0,0,0,3.59-1,4.76,4.76,0,0,0,1.22-1Zm-4.07-8.32a4.2,4.2,0,0,0-8.14,0Z"/><path class="cls-1" d="M193,149.69h-.19a6.53,6.53,0,0,1-1.4,1.48,7.05,7.05,0,0,1-4.33,1.49c-4.29,0-8.14-3.89-8.14-9.44s3.85-9.44,8.14-9.44a7.11,7.11,0,0,1,4.33,1.48,7,7,0,0,1,1.4,1.48H193V126.38h5v25.91h-5Zm.18-6.47a4.63,4.63,0,1,0-4.62,4.81A4.62,4.62,0,0,0,193.17,143.22Z"/><path class="cls-1" d="M212.23,139.15h-3.15v-4.63h1.67c1.37,0,2-.74,2-2.22V129h4.44v5.55h4.07v4.63h-4.07v6.1a2.29,2.29,0,0,0,2.41,2.59,5.55,5.55,0,0,0,1.44-.18,2.55,2.55,0,0,0,.59-.19v4.63c-.29.11-.63.19-1,.3a10.67,10.67,0,0,1-2.37.26c-3.7,0-6.1-2.37-6.1-6.67Z"/><path class="cls-1" d="M233.69,133.78a9.44,9.44,0,1,1-9.62,9.44A9.52,9.52,0,0,1,233.69,133.78Zm4.62,9.44a4.63,4.63,0,1,0-4.62,4.81A4.62,4.62,0,0,0,238.31,143.22Z"/><path class="cls-1" d="M252.93,154.88a3.15,3.15,0,0,0,.59.18,5.52,5.52,0,0,0,1.44.19,3.24,3.24,0,0,0,3.15-2.22l.37-.93-7-17.95h5.36l4.26,12h.18l4.07-12h5.37l-7.4,19.61c-1.52,4.11-3.67,6.3-7,6.3a10.67,10.67,0,0,1-2.37-.26c-.33-.11-.67-.19-1-.3Z"/><path class="cls-1" d="M281.42,133.78a9.44,9.44,0,1,1-9.62,9.44A9.52,9.52,0,0,1,281.42,133.78Zm4.62,9.44a4.63,4.63,0,1,0-4.62,4.81A4.62,4.62,0,0,0,286,143.22Z"/><path class="cls-1" d="M294.74,134.15h5v10.18c0,2.22,1.26,3.51,3.33,3.51a3.84,3.84,0,0,0,3.89-4.07v-9.62h5v18.14h-5v-2.6h-.19a8,8,0,0,1-1.37,1.48,6.16,6.16,0,0,1-4,1.49c-3.7,0-6.66-3-6.66-7.59Z"/><path class="cls-1" d="M316.75,134.15h5v2.59h.18a9.15,9.15,0,0,1,1.37-1.48,6.18,6.18,0,0,1,4-1.48h.37v5.37l-.41-.07A8.11,8.11,0,0,0,326,139c-2.4,0-4.25,1.85-4.25,4.81v8.52h-5Z"/><path class="cls-1" d="M350.79,149.69h-.18a6.36,6.36,0,0,1-1.41,1.48,7,7,0,0,1-4.33,1.49c-4.29,0-8.14-3.89-8.14-9.44s3.85-9.44,8.14-9.44a7.09,7.09,0,0,1,4.33,1.48,6.78,6.78,0,0,1,1.41,1.48h.18V126.38h5v25.91h-5Zm.19-6.47a4.63,4.63,0,1,0-4.63,4.81A4.63,4.63,0,0,0,351,143.22Z"/><path class="cls-1" d="M369.29,133.78a9.44,9.44,0,1,1-9.62,9.44A9.52,9.52,0,0,1,369.29,133.78Zm4.63,9.44a4.63,4.63,0,1,0-4.63,4.81A4.63,4.63,0,0,0,373.92,143.22Z"/><path class="cls-1" d="M391.12,133.78a9.44,9.44,0,1,1-9.62,9.44A9.52,9.52,0,0,1,391.12,133.78Zm4.63,9.44a4.63,4.63,0,1,0-4.63,4.81A4.63,4.63,0,0,0,395.75,143.22Z"/><path class="cls-1" d="M404.44,134.15h5v2.59h.18a9.15,9.15,0,0,1,1.37-1.48,6.18,6.18,0,0,1,4-1.48h.37v5.37l-.41-.07a8.11,8.11,0,0,0-1.26-.12c-2.4,0-4.25,1.85-4.25,4.81v8.52h-5Z"/></g></svg>