<svg xmlns="http://www.w3.org/2000/svg" viewBox="0 0 970 250"><defs><style>.cls-1{fill:#fff;}.cls-2{fill:#231f20;}</style></defs><g id="Layer_2" data-name="Layer 2"><path class="cls-1" d="M46.05,102.14a8.71,8.71,0,0,0,1.51,1.4,7,7,0,0,0,4,1.37c3,0,4.62-1.66,4.62-3.88s-1.63-3.89-4.44-3.89a5,5,0,0,0-3.18,1,5.12,5.12,0,0,0-1.07,1l-3.89-.56.93-15.17H60.29v5.18H49.38l-.19,4.63a3,3,0,0,1,1-.45,7.17,7.17,0,0,1,2.7-.48C58.26,92.33,62,96,62,101s-3.89,8.88-9.81,8.88a13.5,13.5,0,0,1-7.33-2,11.26,11.26,0,0,1-2.47-2Z"/><path class="cls-1" d="M65.29,96.4c0-8.32,5.18-13.5,11.1-13.5s11.1,5.18,11.1,13.5-5.18,13.51-11.1,13.51S65.29,104.73,65.29,96.4Zm16.65,0c0-5.55-2.78-8.32-5.55-8.32s-5.55,2.77-5.55,8.32,2.77,8.33,5.55,8.33S81.94,102,81.94,96.4Z"/><path class="cls-1" d="M96.74,82.9a6.11,6.11,0,1,1-6.3,6.1A6.15,6.15,0,0,1,96.74,82.9Zm13.5.55h4.63l-16.28,25.9H94Zm-13.5,8.14A2.59,2.59,0,1,0,94.15,89,2.53,2.53,0,0,0,96.74,91.59Zm15.35,6.11a6.11,6.11,0,1,1-6.29,6.1A6.15,6.15,0,0,1,112.09,97.7Zm2.59,6.1a2.59,2.59,0,1,0-2.59,2.59A2.53,2.53,0,0,0,114.68,103.8Z"/><path class="cls-1" d="M138.17,90.85a9.44,9.44,0,1,1-9.62,9.44A9.53,9.53,0,0,1,138.17,90.85Zm4.63,9.44a4.63,4.63,0,1,0-4.63,4.81A4.63,4.63,0,0,0,142.8,100.29Z"/><path class="cls-1" d="M152.6,96.22h-2.77V91.59h2.77V90.48c0-4.29,2.41-6.66,6.11-6.66a8,8,0,0,1,2.11.3c.29.11.59.18.85.26V89a5,5,0,0,1-.48-.18,3.41,3.41,0,0,0-1.19-.19,2.29,2.29,0,0,0-2.4,2.59v.37h6.66V89.74c0-4.29,2.41-6.66,6.11-6.66a9.85,9.85,0,0,1,2.36.3c.34.11.67.18,1,.26v4.62c-.19,0-.37-.11-.6-.18a5,5,0,0,0-1.44-.19,2.29,2.29,0,0,0-2.4,2.59v1.11h4.07v4.63h-4.07v13.13h-5V96.22H157.6v13.13h-5Z"/><path class="cls-2" d="M183.5,96.22h6.29V89.93H194v6.29h6.29v4.62H194v6.29h-4.25v-6.29H183.5Z"/><path class="cls-1" d="M213.84,102.14a7,7,0,0,0,1.59,1.4,7.89,7.89,0,0,0,4.51,1.37c3,0,4.26-1.29,4.26-3,0-4.4-12.95-2.44-12.95-11.47,0-3.7,2.55-6.25,6.84-7.4V79.75h4.81v3.33A11.62,11.62,0,0,1,227.6,85a11.19,11.19,0,0,1,1.78,1.44l-3.7,3.7a9.18,9.18,0,0,0-1.3-1.11,6.41,6.41,0,0,0-3.51-1.11c-2.81,0-3.89,1.11-3.89,2.59,0,4.4,13,2.44,13,11.47,0,3.85-3,6.88-7,7.77v3.33h-4.81v-3.33a14.47,14.47,0,0,1-6-2.22,10,10,0,0,1-2-1.66Z"/><path class="cls-1" d="M232.89,96.4c0-8.32,5.18-13.5,11.1-13.5s11.1,5.18,11.1,13.5-5.18,13.51-11.1,13.51S232.89,104.73,232.89,96.4Zm16.65,0c0-5.55-2.77-8.32-5.55-8.32s-5.55,2.77-5.55,8.32,2.78,8.33,5.55,8.33S249.54,102,249.54,96.4Z"/><path class="cls-1" d="M280.07,106.76h-.19a6.53,6.53,0,0,1-1.4,1.48,7.11,7.11,0,0,1-4.33,1.48c-4.3,0-8.14-3.88-8.14-9.43s3.84-9.44,8.14-9.44a7.11,7.11,0,0,1,4.33,1.48,7,7,0,0,1,1.4,1.48h.19V83.45h5v25.9h-5Zm.18-6.47a4.63,4.63,0,1,0-4.62,4.81A4.62,4.62,0,0,0,280.25,100.29Z"/><path class="cls-1" d="M306.34,106.76a9.11,9.11,0,0,1-2,1.48,11.74,11.74,0,0,1-5.77,1.48,9.44,9.44,0,1,1-.19-18.87,9.08,9.08,0,0,1,9.07,9.07c0,.7-.08,1.18-.11,1.59l-.08.63H294.13a4.65,4.65,0,0,0,4.81,3.14,6.33,6.33,0,0,0,3.59-1,4.9,4.9,0,0,0,1.22-1Zm-4.07-8.32a4.2,4.2,0,0,0-8.14,0Z"/><path class="cls-1" d="M311.33,83.45h5v25.9h-5Z"/><path class="cls-1" d="M323.84,83.27A2.83,2.83,0,0,1,326.69,86a2.88,2.88,0,0,1-2.89,2.78,2.78,2.78,0,1,1,0-5.55Zm-2.52,8h5v18.13h-5Z"/><path class="cls-1" d="M328.54,91.22h5.36l4.18,12.21h.15l4.18-12.21h5.37l-6.85,18.13h-5.55Z"/><path class="cls-1" d="M366.28,106.76a9.11,9.11,0,0,1-2,1.48,11.74,11.74,0,0,1-5.77,1.48,9.44,9.44,0,1,1-.19-18.87,9.08,9.08,0,0,1,9.07,9.07c0,.7-.08,1.18-.11,1.59l-.08.63H354.07a4.65,4.65,0,0,0,4.81,3.14,6.36,6.36,0,0,0,3.59-1,4.9,4.9,0,0,0,1.22-1Zm-4.07-8.32a4.2,4.2,0,0,0-8.14,0Z"/><path class="cls-1" d="M371.09,91.22h5v2.59h.19a8.72,8.72,0,0,1,1.37-1.48,6.15,6.15,0,0,1,4-1.48H382v5.37l-.41-.08a9.74,9.74,0,0,0-1.25-.11c-2.41,0-4.26,1.85-4.26,4.81v8.51h-5Z"/><path class="cls-1" d="M384.77,111.94a2.81,2.81,0,0,0,.6.19,5.49,5.49,0,0,0,1.44.18,3.23,3.23,0,0,0,3.15-2.22l.37-.92-7-18h5.37l4.26,12h.18l4.07-12h5.37l-7.4,19.61c-1.52,4.11-3.67,6.29-7,6.29a10.11,10.11,0,0,1-2.37-.26c-.34-.11-.67-.18-1-.29Z"/><path class="cls-1" d="M50.62,136.38a8.25,8.25,0,1,1-8.25,8.25A8.17,8.17,0,0,1,50.62,136.38Zm5,8.25a5,5,0,1,0-5,5.12A4.88,4.88,0,0,0,55.57,144.63Z"/><path class="cls-1" d="M62.5,136.71h3.3V139A6.06,6.06,0,0,1,67,137.7a5.87,5.87,0,0,1,3.73-1.32c3.63,0,6.27,2.61,6.27,6.93v9.24h-3.3v-9.24a3.49,3.49,0,0,0-3.63-3.79A4.2,4.2,0,0,0,65.8,144v8.58H62.5Z"/><path class="cls-1" d="M86.92,155.85a4.22,4.22,0,0,0,.56.27,4,4,0,0,0,1.42.23,3,3,0,0,0,2.81-2.15l.66-1.65-6.44-15.84h3.63L94,148.43l4.45-11.72h3.63l-6.93,17.66c-1.32,3.33-3.13,5.11-5.77,5.11a6.28,6.28,0,0,1-1.79-.23l-.69-.26Z"/><path class="cls-1" d="M112,136.38a8.25,8.25,0,1,1-8.25,8.25A8.17,8.17,0,0,1,112,136.38Zm5,8.25a5,5,0,1,0-5,5.12A4.88,4.88,0,0,0,117,144.63Z"/><path class="cls-1" d="M123.88,136.71h3.3V146a3.5,3.5,0,0,0,3.63,3.8,4.21,4.21,0,0,0,4.29-4.46v-8.58h3.3v15.84h-3.3v-2.31a6.51,6.51,0,0,1-1.25,1.32,5.78,5.78,0,0,1-3.7,1.32c-3.63,0-6.27-2.6-6.27-6.93Z"/><path class="cls-1" d="M143,136.71h3.3v2.15a8.85,8.85,0,0,1,1.22-1.23,5.7,5.7,0,0,1,3.56-1.25h.83v3.47l-.43-.07a6.49,6.49,0,0,0-.89-.1,4.52,4.52,0,0,0-4.29,4.79v8.08H143Z"/><path class="cls-1" d="M162.32,139.85h-2.47v-3.14h2.47V134.4c0-3.47,1.79-5.28,5-5.28a6.13,6.13,0,0,1,1.79.26,4.65,4.65,0,0,0,.69.23v3.14l-.53-.23a3.73,3.73,0,0,0-1.29-.27c-1.55,0-2.31.83-2.31,2.48v2h9.91v15.84h-3.31v-12.7h-6.6v12.7h-3.3Zm11.56-10.07a2,2,0,1,1-2,2A2,2,0,0,1,173.88,129.78Z"/><path class="cls-1" d="M180.31,136.71h3.3v2.15a8.85,8.85,0,0,1,1.22-1.23,5.7,5.7,0,0,1,3.56-1.25h.83v3.47l-.43-.07a6.49,6.49,0,0,0-.89-.1,4.52,4.52,0,0,0-4.29,4.79v8.08h-3.3Z"/><path class="cls-1" d="M192.85,147.77a5,5,0,0,0,1.12,1.09,5.18,5.18,0,0,0,3,1c1.85,0,2.81-1,2.81-2,0-2.64-8.42-1.28-8.42-6.93,0-2.47,2.18-4.62,5.78-4.62a8.4,8.4,0,0,1,4.22,1.09,5.1,5.1,0,0,1,1.39,1.06l-2.15,2.14a5.18,5.18,0,0,0-.92-.66,5.1,5.1,0,0,0-2.54-.66c-1.69,0-2.48.83-2.48,1.65,0,2.64,8.42,1.32,8.42,6.93,0,2.64-2.28,4.95-6.11,4.95a7.78,7.78,0,0,1-4.68-1.48,6.87,6.87,0,0,1-1.59-1.49Z"/><path class="cls-1" d="M208.19,139.85h-3v-3.14H207c1,0,1.48-.49,1.48-1.81v-3.47h3v5.28h3.63v3.14h-3.63v7.42c0,1.65.76,2.48,2.31,2.48a3.76,3.76,0,0,0,1.29-.23l.53-.27v3.14l-.69.26a6.28,6.28,0,0,1-1.79.23c-3.17,0-4.95-1.81-4.95-5.28Z"/><path class="cls-1" d="M230.8,132.91h-6.93v-3.46h17.49v3.46h-6.93v19.64H230.8Z"/><path class="cls-1" d="M242.68,129.45h3.79l5.61,17.33,5.45-17.33h3.63l5.44,17.33,5.62-17.33H276l-7.59,23.1h-3.63l-5.45-17.32-5.44,17.32h-3.63Z"/><path class="cls-1" d="M290,129.12A11.88,11.88,0,1,1,277.82,141,11.91,11.91,0,0,1,290,129.12Zm0,20.46a8.58,8.58,0,1,0-8.58-8.58A8.52,8.52,0,0,0,290,149.58Z"/><path class="cls-1" d="M320.56,136.38a8.25,8.25,0,1,1-8.25,8.25A8.17,8.17,0,0,1,320.56,136.38Zm4.95,8.25a5,5,0,1,0-4.95,5.12A4.88,4.88,0,0,0,325.51,144.63Z"/><path class="cls-1" d="M332.44,136.71h3.3v2.15a8.85,8.85,0,0,1,1.22-1.23,5.7,5.7,0,0,1,3.56-1.25h.83v3.47l-.43-.07a6.68,6.68,0,0,0-.89-.1,4.52,4.52,0,0,0-4.29,4.79v8.08h-3.3Z"/><path class="cls-1" d="M355.87,150.24a5.2,5.2,0,0,1-1.29,1.32,6.91,6.91,0,0,1-4.16,1.32c-4,0-7.43-3.46-7.43-8.25s3.47-8.25,7.43-8.25a6.91,6.91,0,0,1,4.16,1.32,5.55,5.55,0,0,1,1.29,1.32v-9.57h3.3v23.1h-3.3Zm0-5.61a4.8,4.8,0,1,0-4.79,5.12A4.85,4.85,0,0,0,355.87,144.63Z"/><path class="cls-1" d="M378,149.91a6.62,6.62,0,0,1-1.65,1.49,9,9,0,0,1-5.12,1.48,8.25,8.25,0,0,1-.16-16.5,7.51,7.51,0,0,1,7.75,7.76,8.42,8.42,0,0,1-.1,1.19l-.06.46H366.42a4.89,4.89,0,0,0,5,4,6.06,6.06,0,0,0,3.36-1.06A5.91,5.91,0,0,0,376,147.6ZM375.34,143a4.26,4.26,0,0,0-4.29-3.63,4.61,4.61,0,0,0-4.63,3.63Z"/><path class="cls-1" d="M382.43,136.71h3.3v2.15a8.85,8.85,0,0,1,1.22-1.23,5.71,5.71,0,0,1,3.57-1.25h.82v3.47l-.43-.07a6.49,6.49,0,0,0-.89-.1,4.52,4.52,0,0,0-4.29,4.79v8.08h-3.3Z"/><path class="cls-1" d="M395,147.77a5,5,0,0,0,1.12,1.09,5.18,5.18,0,0,0,3,1c1.85,0,2.81-1,2.81-2,0-2.64-8.42-1.28-8.42-6.93,0-2.47,2.18-4.62,5.78-4.62a8.4,8.4,0,0,1,4.22,1.09,5,5,0,0,1,1.39,1.06l-2.14,2.14a5.67,5.67,0,0,0-.93-.66,5.07,5.07,0,0,0-2.54-.66c-1.68,0-2.48.83-2.48,1.65,0,2.64,8.42,1.32,8.42,6.93,0,2.64-2.28,4.95-6.11,4.95a7.78,7.78,0,0,1-4.68-1.48,6.87,6.87,0,0,1-1.59-1.49Z"/></g></svg>