<svg xmlns="http://www.w3.org/2000/svg" viewBox="0 0 970 250"><defs><style>.cls-1{fill:#fff;}</style></defs><g id="Layer_2" data-name="Layer 2"><path class="cls-1" d="M105.16,36.63a8.73,8.73,0,1,1,0,17.46h-6a.45.45,0,0,1-.45-.45V37.09a.46.46,0,0,1,.45-.46ZM102.42,40V50.72h2.74a5.3,5.3,0,0,0,5.24-5.36A5.22,5.22,0,0,0,105.16,40Z"/><path class="cls-1" d="M127.33,36.26a9.11,9.11,0,1,1-9.48,9.1,9.23,9.23,0,0,1,9.48-9.1m0,14.84a5.74,5.74,0,1,0-5.73-5.74,5.75,5.75,0,0,0,5.73,5.74"/><path class="cls-1" d="M149.86,36.26a9.11,9.11,0,1,1-9.48,9.1,9.23,9.23,0,0,1,9.48-9.1m0,14.84a5.74,5.74,0,1,0-5.74-5.74,5.75,5.75,0,0,0,5.74,5.74"/><path class="cls-1" d="M164.28,37.09a.47.47,0,0,1,.46-.46H172a5.74,5.74,0,0,1,6,5.74,5.64,5.64,0,0,1-3.12,5.11l3.36,5.93a.46.46,0,0,1-.4.68H174.9a.45.45,0,0,1-.4-.24L171.26,48H168v5.66a.45.45,0,0,1-.45.45h-2.83a.46.46,0,0,1-.46-.45ZM171.89,40H168v4.61h3.87a2.27,2.27,0,0,0,2.37-2.24A2.3,2.3,0,0,0,171.89,40"/><path class="cls-1" d="M190.47,36.71a8.73,8.73,0,1,1,0,17.46h-6a.45.45,0,0,1-.45-.45V37.17a.46.46,0,0,1,.45-.46Zm-2.74,3.37V50.8h2.74a5.3,5.3,0,0,0,5.24-5.36,5.22,5.22,0,0,0-5.24-5.36Z"/><path class="cls-1" d="M207.48,50l-1.38,3.82a.46.46,0,0,1-.43.3h-3a.45.45,0,0,1-.42-.62l6.5-16.55a.47.47,0,0,1,.42-.29h3.38a.47.47,0,0,1,.42.29l6.5,16.55a.45.45,0,0,1-.42.62h-3a.46.46,0,0,1-.43-.3L214.22,50Zm3.37-9-2.12,5.73H213Z"/><path class="cls-1" d="M223,41.35c0-2.74,2.37-5.11,6.11-5.11a7.72,7.72,0,0,1,5.43,2,.46.46,0,0,1,0,.64l-1.68,1.68a.45.45,0,0,1-.62,0,4.39,4.39,0,0,0-2.89-1.14c-1.49,0-2.61.87-2.61,1.87,0,3.24,8.85,1.37,8.85,7.61,0,3.11-2.37,5.48-6.61,5.48a8.89,8.89,0,0,1-6.31-2.53.47.47,0,0,1,0-.64l1.62-1.61a.44.44,0,0,1,.63,0,5.59,5.59,0,0,0,3.81,1.55c1.87,0,3.1-1,3.1-2.24,0-3.24-8.84-1.38-8.84-7.61"/><path class="cls-1" d="M251.59,37.07V43.6h-7.48V37.07a.46.46,0,0,0-.45-.46h-2.84a.46.46,0,0,0-.45.46V53.62a.45.45,0,0,0,.45.45h2.84a.45.45,0,0,0,.45-.45V47h7.48v6.66a.46.46,0,0,0,.46.45h2.83a.45.45,0,0,0,.45-.45V37.07a.46.46,0,0,0-.45-.46h-2.83a.47.47,0,0,0-.46.46"/><path class="cls-1" d="M83.91,38.9a10.93,10.93,0,0,0-9.7-5.8H43.47a1.06,1.06,0,0,0-.74,1.8l6.69,6.74a3.2,3.2,0,0,0,2.24.93H73.33a2.79,2.79,0,1,1,.06,5.58H58.45A1.06,1.06,0,0,0,57.7,50l6.7,6.73a3.12,3.12,0,0,0,2.23.93h6.76c8.78,0,15.43-9.39,10.52-18.72"/></g></svg>