<svg id="Layer_1" data-name="Layer 1" xmlns="http://www.w3.org/2000/svg" xmlns:xlink="http://www.w3.org/1999/xlink" viewBox="0 0 970 250"><defs><style>.cls-1,.cls-4{fill:none;}.cls-2{clip-path:url(#clip-path);}.cls-3{fill:#009970;}.cls-4{stroke:#b2b2b2;stroke-width:0.75px;}</style><clipPath id="clip-path"><rect class="cls-1" width="970" height="250"/></clipPath></defs><g class="cls-2"><path class="cls-3" d="M40.44,84.53H37.87V33.68h2.57Z"/><path class="cls-3" d="M50.38,76.66c5,4.64,9.77,6,15.65,6,7.86,0,12.67-4.31,12.67-10.6a8.13,8.13,0,0,0-2.4-6.3,28.57,28.57,0,0,0-7.46-4.55l-7.53-3.32a42.13,42.13,0,0,1-7-4.22c-2.4-1.74-3.56-4.47-3.56-8.2,0-4.22,1.49-7.28,4.47-9.35A17.54,17.54,0,0,1,65.45,33a23.67,23.67,0,0,1,13.91,4.31v3.14a20,20,0,0,0-13.91-5c-6.63,0-12.18,3.4-12.18,10,0,5.39,4,7.87,9.61,10.27l7.79,3.4C78,62.5,81.26,65.81,81.26,72.11A11.87,11.87,0,0,1,77,81.55,16.59,16.59,0,0,1,66,85.19C59.15,85.19,53.69,83,50.38,80Z"/><path class="cls-3" d="M141.71,33.68h2.82L126,62.33v22.2h-2.57V62.33L104.86,33.68h2.9l17,26.25Z"/><path class="cls-3" d="M186.18,78.07a20.95,20.95,0,0,1-31.47,0c-4.22-4.81-6.37-11.1-6.37-19s2.15-14.16,6.37-18.88a20.79,20.79,0,0,1,31.47,0c4.22,4.72,6.38,11,6.38,18.88S190.4,73.26,186.18,78.07Zm-1.74-35.94a18.09,18.09,0,0,0-28,0c-3.64,4.39-5.46,10-5.46,17s1.82,12.67,5.46,17.06a18.23,18.23,0,0,0,28,0c3.64-4.39,5.47-10.1,5.47-17.06S188.08,46.52,184.44,42.13Z"/><path class="cls-3" d="M207.38,80.14c-3.73-3.4-5.63-8.61-5.63-15.57V33.68h2.56V64.16c0,6.29,1.58,11,4.81,14.07a16.29,16.29,0,0,0,11.67,4.56,16.49,16.49,0,0,0,11.76-4.56c3.23-3.06,4.89-7.78,4.89-14.07V33.68H240V64.57c0,7-1.91,12.17-5.72,15.57a19.56,19.56,0,0,1-13.5,5A19.22,19.22,0,0,1,207.38,80.14Z"/><path class="cls-3" d="M252.76,84.53V33.68h16.81c9.6,0,16.06,4.89,16.06,13.83,0,8-5.13,12.75-13.08,13.66L288.2,84.53h-3L269.57,61.34H255.32V84.53Zm2.56-25.59H269.4c8.53,0,13.67-4.14,13.67-11.43s-5.14-11.34-13.67-11.34H255.32Z"/><path class="cls-3" d="M74.72,152.28h-1.4l-33-46.79v46.79H37.87V101.43h2.49l31.88,45v-45h2.48Z"/><path class="cls-3" d="M119.36,101.43v2.49H91v20.87h25.67v2.48H91v22.52h28.32v2.49H88.47V101.43Z"/><path class="cls-3" d="M127.39,144.41A21,21,0,0,0,143,150.46c7.87,0,12.67-4.31,12.67-10.6a8.13,8.13,0,0,0-2.4-6.3,28.57,28.57,0,0,0-7.46-4.55l-7.53-3.31a42.91,42.91,0,0,1-7-4.23c-2.4-1.74-3.56-4.47-3.56-8.19,0-4.23,1.49-7.29,4.47-9.36a17.54,17.54,0,0,1,10.27-3.15,23.67,23.67,0,0,1,13.91,4.31v3.14a20,20,0,0,0-13.91-5c-6.63,0-12.17,3.39-12.17,10,0,5.38,4,7.86,9.6,10.26l7.79,3.4c7.28,3.31,10.6,6.62,10.6,12.92A11.86,11.86,0,0,1,154,149.3,16.59,16.59,0,0,1,143,152.94c-6.87,0-12.34-2.15-15.65-5.22Z"/><path class="cls-3" d="M163.49,101.43h41.07v2.49H185.27v48.36H182.7V103.92H163.49Z"/><path class="cls-3" d="M263.19,101.43v2.49H234.87v20.87h25.67v2.48H234.87v22.52h28.32v2.49H232.3V101.43Z"/><path class="cls-3" d="M309,145.49V129.26H294.91V127h16.48v19c-4.72,5.55-11.27,6.87-17.23,6.87A21.59,21.59,0,0,1,278.1,146c-4.39-4.72-6.63-11.1-6.63-19.13s2.24-14.5,6.63-19.13a21.59,21.59,0,0,1,16.31-7,23.75,23.75,0,0,1,15.07,5V109a21.36,21.36,0,0,0-15.07-5.71,18.78,18.78,0,0,0-14.58,6.29c-3.8,4.14-5.71,9.94-5.71,17.31S276,140,279.83,144.25a18.71,18.71,0,0,0,14.33,6.21C300.37,150.46,304.6,149.21,309,145.49Z"/><path class="cls-3" d="M357.18,145.49V129.26H343.1V127h16.48v19c-4.72,5.55-11.26,6.87-17.23,6.87A21.59,21.59,0,0,1,326.29,146c-4.39-4.72-6.63-11.1-6.63-19.13s2.24-14.5,6.63-19.13a21.59,21.59,0,0,1,16.31-7,23.75,23.75,0,0,1,15.07,5V109a21.36,21.36,0,0,0-15.07-5.71A18.76,18.76,0,0,0,328,109.55c-3.81,4.14-5.72,9.94-5.72,17.31S324.22,140,328,144.25a18.69,18.69,0,0,0,14.32,6.21C348.56,150.46,352.79,149.21,357.18,145.49Z"/><path class="cls-3" d="M392.29,152.28h-2.57V101.43h2.57Z"/><path class="cls-3" d="M442.88,152.28h-1.41l-33-46.79v46.79H406V101.43h2.48l31.89,45v-45h2.48Z"/><path class="cls-3" d="M470.62,101.43h41.07v2.49H492.4v48.36h-2.57V103.92H470.62Z"/><path class="cls-3" d="M561.05,101.43v50.85h-2.57v-25H523.7v25h-2.57V101.43h2.57v23.36h34.78V101.43Z"/><path class="cls-3" d="M605.68,101.43v2.49H577.36v20.87H603v2.48H577.36v22.52h28.32v2.49H574.79V101.43Z"/><path class="cls-3" d="M63.21,169.19l12.84,46.12L88.8,169.19h2.57L77.21,220H75l-12.83-46L49.38,220H47.15L33,169.19h2.56l12.76,46.12,12.75-46.12Z"/><path class="cls-3" d="M100.23,220V169.19H117c9.6,0,16.06,4.88,16.06,13.82,0,8-5.13,12.76-13.08,13.67L135.67,220h-3L117,196.84H102.79V220Zm2.56-25.59h14.08c8.53,0,13.67-4.14,13.67-11.43s-5.14-11.34-13.67-11.34H102.79Z"/><path class="cls-3" d="M179.39,213.57a20.95,20.95,0,0,1-31.47,0c-4.22-4.8-6.37-11.1-6.37-19s2.15-14.16,6.37-18.88a20.77,20.77,0,0,1,31.47,0c4.23,4.72,6.38,11,6.38,18.88S183.62,208.77,179.39,213.57Zm-1.74-35.94a18.1,18.1,0,0,0-28,0c-3.64,4.39-5.46,10-5.46,17s1.82,12.67,5.46,17.06a18.24,18.24,0,0,0,28,0c3.65-4.39,5.47-10.11,5.47-17.06S181.3,182,177.65,177.63Z"/><path class="cls-3" d="M232.8,220h-1.41l-32.95-46.79V220H196V169.19h2.49l31.88,45v-45h2.48Z"/><path class="cls-3" d="M280.5,213.24V197H266.42v-2.24H282.9v19c-4.72,5.55-11.26,6.87-17.22,6.87a21.61,21.61,0,0,1-16.07-6.95c-4.39-4.72-6.62-11.1-6.62-19.13s2.23-14.49,6.62-19.13a21.61,21.61,0,0,1,16.32-7,23.77,23.77,0,0,1,15.07,5v3.15A21.37,21.37,0,0,0,265.93,171a18.78,18.78,0,0,0-14.58,6.29c-3.81,4.14-5.71,9.94-5.71,17.31s1.9,13.16,5.71,17.39a18.69,18.69,0,0,0,14.33,6.21C271.89,218.21,276.11,217,280.5,213.24Z"/><path class="cls-3" d="M345.67,206.28c0,8.62-6.05,13.75-16.32,13.75H313.12V169.19h14.74c10.27,0,15.9,4.72,15.9,12.91,0,3.56-.91,6.21-2.81,8a14.86,14.86,0,0,1-6.21,3.56A12.42,12.42,0,0,1,345.67,206.28Zm-17.81-13.66c8.53,0,13.34-3.48,13.34-10.43s-4.81-10.52-13.34-10.52H315.69v21Zm-12.17,24.93h14.16c8.61,0,13.25-4.56,13.25-11.27s-4.64-11.34-13.25-11.34H315.69Z"/><path class="cls-3" d="M384,202.31H360.32l-7,17.72h-2.56l20.37-50.84h2.23L393.7,220h-2.57Zm-22.69-2.49H383l-10.84-27.07Z"/><path class="cls-3" d="M398.74,212.16a21,21,0,0,0,15.66,6.05c7.86,0,12.67-4.31,12.67-10.6a8.08,8.08,0,0,0-2.41-6.29,28,28,0,0,0-7.45-4.56l-7.53-3.31a43.53,43.53,0,0,1-7-4.22c-2.4-1.74-3.56-4.48-3.56-8.2,0-4.23,1.49-7.29,4.47-9.36a17.52,17.52,0,0,1,10.27-3.15,23.74,23.74,0,0,1,13.91,4.31V176a20,20,0,0,0-13.91-5c-6.63,0-12.18,3.39-12.18,10,0,5.38,4,7.86,9.61,10.27l7.78,3.39c7.29,3.31,10.6,6.63,10.6,12.92a11.88,11.88,0,0,1-4.3,9.44,16.61,16.61,0,0,1-10.93,3.64c-6.88,0-12.34-2.15-15.66-5.21Z"/><path class="cls-3" d="M442.71,192.79l27.75-23.6H474L445.2,193.61,474.68,220h-3.56l-28.41-25.17V220h-2.56V169.19h2.56Z"/><path class="cls-3" d="M514.09,169.19v2.48H485.77v20.87h25.68V195H485.77v22.53h28.32V220H483.21V169.19Z"/><path class="cls-3" d="M521.63,169.19H562.7v2.48H543.41V220h-2.57V171.67H521.63Z"/><path class="cls-3" d="M590.61,189.47a11.29,11.29,0,0,0,2.81-7.62c0-6.54-4.14-10.93-11.75-10.93-5.72,0-10.85,3.73-14.41,7.79v-3.07c3.06-3.64,8.44-7.12,14.41-7.12,9.19,0,14.24,5.39,14.24,13.33a12.7,12.7,0,0,1-2.82,8.12c-1.9,2.4-3.81,4.64-5.79,6.87-2.57,2.9-3.56,4.64-3.65,7.21h-2.32c.25-3.4,1.58-5.63,4.14-8.61Zm-8.2,26.25a2.24,2.24,0,1,1-2.15,2.24A2.27,2.27,0,0,1,582.41,215.72Z"/><g class="cls-2"><rect class="cls-4" x="0.38" y="0.38" width="969.25" height="249.25"/></g></g></svg>