<svg id="Layer_1" data-name="Layer 1" xmlns="http://www.w3.org/2000/svg" xmlns:xlink="http://www.w3.org/1999/xlink" viewBox="0 0 970 250"><defs><style>.cls-1{fill:none;}.cls-2{clip-path:url(#clip-path);}.cls-3{fill:#009970;}</style><clipPath id="clip-path"><rect class="cls-1" width="970" height="250"/></clipPath></defs><g class="cls-2"><path class="cls-3" d="M79.57,72.81l9.21-37.64h11.48l-14.58,56H75l-9.84-36.9-9.85,36.9H44.67L30.09,35.17H41.85L51,72.81,60.8,35.17h9.12Z"/><path class="cls-3" d="M153.84,91.12H142l-5-13.48H116l-4.92,13.48H99.44l21.42-55.95h11.57Zm-20.5-23.33L126.51,49.2l-6.84,18.59Z"/><path class="cls-3" d="M192.67,35.17h14L183.46,62l24.06,29.16H193.21l-21-25.33V91.12H160.59V35.17h11.66V59.23Z"/><path class="cls-3" d="M251.9,45.38H225.38V57.59h24.06v9.93H225.38v13.3H251.9v10.3h-38V35.17h38Z"/><path class="cls-3" d="M279.51,68.61V35.17h11.67V67.43c0,9.57,4.19,14.12,11.57,14.12S314.32,77,314.32,67.43V35.17H326V68.61C326,84,316.87,92,302.75,92,288.9,92,279.51,84,279.51,68.61Z"/><path class="cls-3" d="M347.49,91.12H335.92V35.17H358.7c11.85,0,19.68,6.38,19.68,18.32s-7.83,18.22-19.68,18.22H347.49ZM358,45.1H347.49V61.78H358c6.11,0,8.93-3.46,8.93-8.29C366.9,48.38,364.08,45.1,358,45.1Z"/><path class="cls-3" d="M82,110.31,61.71,145v21.23H50.14V145L30,110.31H42.67L56.25,134l13.48-23.7Z"/><path class="cls-3" d="M108.19,167.18c-15.58,0-26.43-12.22-26.43-28.89s10.85-28.89,26.43-28.89,26.52,12.12,26.52,28.89S123.77,167.18,108.19,167.18Zm0-47.39c-8.75,0-14.58,7.56-14.58,18.5s5.83,18.5,14.58,18.5c9,0,14.76-7.57,14.76-18.5S117.21,119.79,108.19,119.79Z"/><path class="cls-3" d="M142,143.76V110.31h11.66v32.26c0,9.57,4.2,14.13,11.58,14.13s11.57-4.56,11.57-14.13V110.31h11.66v33.45c0,15.4-9.11,23.42-23.23,23.42C151.39,167.18,142,159.16,142,143.76Z"/><path class="cls-3" d="M210,166.26H198.41V110.31h23.05c11.76,0,19.59,6.2,19.59,17.77,0,9-4.83,14.58-12.75,16.5l14.76,21.68H229.94L216.08,145.4H210Zm10.75-30.43c5.83,0,8.84-3.1,8.84-7.75s-3-7.83-8.84-7.83H210v15.58Z"/><path class="cls-3" d="M280.51,130.18v36.08H269.12V110.31H280l16.95,26.43,16.85-26.43h10.66v55.95H313V130.18L297,154.24h-.37Z"/><path class="cls-3" d="M358.79,167.18c-15.58,0-26.42-12.22-26.42-28.89s10.84-28.89,26.42-28.89,26.52,12.12,26.52,28.89S374.37,167.18,358.79,167.18Zm0-47.39c-8.75,0-14.58,7.56-14.58,18.5s5.83,18.5,14.58,18.5c9,0,14.76-7.57,14.76-18.5S367.81,119.79,358.79,119.79Z"/><path class="cls-3" d="M431.06,166.26,404.63,129v37.27H393.42V110.31h10.94l24.69,35.36V110.31h11.21v55.95Z"/><path class="cls-3" d="M489,120.52H462.5v12.21h24.05v9.93H462.5V156H489v10.29H451V110.31h38Z"/><path class="cls-3" d="M545.7,110.31,525.38,145v21.23H513.8V145l-20.14-34.72h12.67L519.91,134l13.48-23.7Z"/></g></svg>