<svg id="Layer_1" data-name="Layer 1" xmlns="http://www.w3.org/2000/svg" xmlns:xlink="http://www.w3.org/1999/xlink" viewBox="0 0 970 250"><defs><style>.cls-1{fill:none;}.cls-2{clip-path:url(#clip-path);}.cls-3{fill:#009970;}</style><clipPath id="clip-path"><rect class="cls-1" width="970" height="250"/></clipPath></defs><g class="cls-2"><g class="cls-2"><path class="cls-3" d="M50.14,54.61l9,33.1,8.9-33.1h3.14L60.74,93.11H57.85L48.76,60.32l-9,32.79H36.91L26.38,54.61h3.2l8.9,33.1,9-33.1Z"/><path class="cls-3" d="M98.36,80.44H81.3l-5,12.67h-3.2l15.24-38.5h3l15.23,38.5h-3.2ZM82.43,77.56h14.8l-7.4-18.81Z"/><path class="cls-3" d="M141.68,93.11h-2.13L116,59.69V93.11H113V54.61H116l22.57,32.1V54.61h3.07Z"/><path class="cls-3" d="M148.58,54.61h31.35v3H165.82V93.11h-3.2V57.56h-14Z"/><path class="cls-3" d="M197.67,54.61H229v3h-14.1V93.11h-3.2V57.56H197.67Z"/><path class="cls-3" d="M260.87,88.15a15.36,15.36,0,0,1-12.16,5.52,15.55,15.55,0,0,1-12.16-5.52c-3.2-3.7-4.83-8.46-4.83-14.29s1.63-10.6,4.83-14.3a15.54,15.54,0,0,1,12.16-5.51,15.35,15.35,0,0,1,12.16,5.51q4.89,5.55,4.89,14.3T260.87,88.15Zm-2.19-26.39a12.86,12.86,0,0,0-19.88,0c-2.57,3.13-3.82,7.15-3.82,12.1s1.25,9,3.82,12.1a12.86,12.86,0,0,0,19.88,0c2.57-3.14,3.82-7.15,3.82-12.1S261.25,64.89,258.68,61.76Z"/><path class="cls-3" d="M284.45,86.15a16.72,16.72,0,0,0,11.91,4.57c5.52,0,9-2.75,9-7.21,0-3.82-2.19-5.45-6.9-7.46l-5.64-2.38a22.59,22.59,0,0,1-5.7-3.39c-1.76-1.44-2.64-3.57-2.64-6.45A8.4,8.4,0,0,1,288,56.49a13.91,13.91,0,0,1,8.15-2.44A18.6,18.6,0,0,1,307,57.31v3.57A16.08,16.08,0,0,0,296.24,57c-4.77,0-8.59,2.26-8.59,6.77,0,3.77,2.63,5.46,6.71,7l5.95,2.5c5.58,2.45,8.22,5.21,8.22,10.16a9,9,0,0,1-3.45,7.4,13.37,13.37,0,0,1-8.72,2.82c-5.08,0-9.4-1.63-11.91-3.82Z"/><path class="cls-3" d="M347,54.61v38.5h-3.2V74.74H319.37V93.11h-3.2V54.61h3.2V71.79h24.39V54.61Z"/><path class="cls-3" d="M360.06,93.11h-3.19V54.61h3.19Z"/><path class="cls-3" d="M370,93.11V54.61h22.32v3H373.17V72.23h18.12v2.88H373.17v18Z"/><path class="cls-3" d="M396.62,54.61H428v3H413.86V93.11h-3.2V57.56h-14Z"/><path class="cls-3" d="M472.73,54.61h3.45l-14,22.07V93.11h-3.2V76.68L445,54.61h3.51l12.16,19.12Z"/><path class="cls-3" d="M507.59,88.15a15.36,15.36,0,0,1-12.16,5.52,15.55,15.55,0,0,1-12.16-5.52c-3.2-3.7-4.83-8.46-4.83-14.29s1.63-10.6,4.83-14.3a15.54,15.54,0,0,1,12.16-5.51,15.35,15.35,0,0,1,12.16,5.51q4.89,5.55,4.89,14.3T507.59,88.15ZM505.4,61.76a12.86,12.86,0,0,0-19.88,0c-2.57,3.13-3.82,7.15-3.82,12.1s1.25,9,3.82,12.1a12.86,12.86,0,0,0,19.88,0c2.57-3.14,3.82-7.15,3.82-12.1S508,64.89,505.4,61.76Z"/><path class="cls-3" d="M523.33,89.78c-2.82-2.63-4.26-6.58-4.26-11.85V54.61h3.2V77.5c0,9,5,13.22,11.53,13.22a11.18,11.18,0,0,0,8.28-3.26c2.19-2.19,3.32-5.51,3.32-10V54.61h3.2V77.93q0,7.91-4.33,11.85a16,16,0,0,1-20.94,0Z"/><path class="cls-3" d="M557.75,54.61h13.3c7.52,0,12.41,3.76,12.41,10.78,0,6.21-3.82,9.79-9.84,10.54l11.66,17.18h-3.7l-11.47-17H561v17h-3.2ZM561,73.29h10c5.83,0,9.41-2.94,9.41-7.9s-3.58-7.9-9.41-7.9H561Z"/><path class="cls-3" d="M33.15,147.26H30v-38.5h3.2Z"/><path class="cls-3" d="M71.77,147.26H69.64L46.13,113.84v33.42H43.06v-38.5h3.07l22.57,32.1v-32.1h3.07Z"/><path class="cls-3" d="M93.34,147.26l-15.17-38.5h3.32l13.3,34.11,13.41-34.11h3.26l-15.23,38.5Z"/><path class="cls-3" d="M141.75,108.76v2.95H121v14.23H139.8v2.95H121v15.42h20.76v2.95H117.86v-38.5Z"/><path class="cls-3" d="M147.64,140.3a16.72,16.72,0,0,0,11.91,4.57c5.52,0,9-2.75,9-7.21,0-3.82-2.19-5.45-6.9-7.46L156,127.82a22.94,22.94,0,0,1-5.7-3.39c-1.76-1.44-2.64-3.57-2.64-6.45a8.4,8.4,0,0,1,3.51-7.34,13.92,13.92,0,0,1,8.16-2.44,18.59,18.59,0,0,1,10.78,3.26V115a16.08,16.08,0,0,0-10.72-3.89c-4.77,0-8.59,2.26-8.59,6.77,0,3.77,2.63,5.46,6.71,7l5.95,2.5c5.58,2.45,8.22,5.21,8.22,10.16a9,9,0,0,1-3.45,7.4,13.37,13.37,0,0,1-8.72,2.82c-5.08,0-9.4-1.63-11.91-3.82Z"/><path class="cls-3" d="M176.23,108.76h31.35v2.95H193.47v35.55h-3.19V111.71H176.23Z"/><path class="cls-3" d="M232.16,138.42l-14.55-23.58v32.42h-3.13v-38.5h2.82l15,24.45,15.05-24.45H250v38.5h-3.13V114.84l-14.48,23.58Z"/><path class="cls-3" d="M283.76,108.76v2.95H263v14.23h18.81v2.95H263v15.42h20.75v2.95H259.87v-38.5Z"/><path class="cls-3" d="M320.88,147.26h-2.13l-23.51-33.42v33.42h-3.08v-38.5h3.08l22.57,32.1v-32.1h3.07Z"/><path class="cls-3" d="M327.78,108.76h31.35v2.95H345v35.55h-3.2V111.71h-14Z"/><path class="cls-3" d="M363.52,140.3a16.71,16.71,0,0,0,11.91,4.57c5.52,0,9-2.75,9-7.21,0-3.82-2.2-5.45-6.9-7.46l-5.64-2.38a22.82,22.82,0,0,1-5.71-3.39c-1.75-1.44-2.63-3.57-2.63-6.45a8.4,8.4,0,0,1,3.51-7.34,13.91,13.91,0,0,1,8.15-2.44A18.59,18.59,0,0,1,386,111.46V115a16.06,16.06,0,0,0-10.72-3.89c-4.76,0-8.59,2.26-8.59,6.77,0,3.77,2.64,5.46,6.71,7l6,2.5c5.58,2.45,8.21,5.21,8.21,10.16a9,9,0,0,1-3.45,7.4,13.34,13.34,0,0,1-8.71,2.82c-5.08,0-9.41-1.63-11.91-3.82Z"/><path class="cls-3" d="M412.36,147.26h-3.2v-38.5h3.2Z"/><path class="cls-3" d="M451,147.26h-2.13l-23.51-33.42v33.42h-3.08v-38.5h3.08l22.57,32.1v-32.1H451Z"/><path class="cls-3" d="M457.88,108.76h31.35v2.95H475.12v35.55h-3.2V111.71h-14Z"/><path class="cls-3" d="M521,142.3a15.36,15.36,0,0,1-12.16,5.52,15.55,15.55,0,0,1-12.16-5.52c-3.2-3.7-4.83-8.46-4.83-14.29s1.63-10.6,4.83-14.3a15.54,15.54,0,0,1,12.16-5.51A15.35,15.35,0,0,1,521,113.71q4.9,5.55,4.9,14.3T521,142.3Zm-2.19-26.39a12.85,12.85,0,0,0-19.87,0c-2.57,3.13-3.83,7.15-3.83,12.1s1.26,9,3.83,12.1a12.85,12.85,0,0,0,19.87,0c2.57-3.14,3.83-7.15,3.83-12.1S521.39,119,518.82,115.91Z"/><path class="cls-3" d="M26.94,162.91H58.29v3H44.19v35.55H41V165.86h-14Z"/><path class="cls-3" d="M96,162.91v38.5h-3.2V183H68.39v18.37h-3.2v-38.5h3.2v17.18H92.78V162.91Z"/><path class="cls-3" d="M129.77,162.91v3H109v14.23h18.81V183H109v15.42h20.75v2.95H105.88v-38.5Z"/><path class="cls-3" d="M152.09,201.41v-38.5h22.32v3H155.29v14.67h18.12v2.88H155.29v18Z"/><path class="cls-3" d="M202,188.74H185l-5,12.67h-3.2L192,162.91H195l15.23,38.5H207Zm-15.93-2.88h14.8l-7.4-18.81Z"/><path class="cls-3" d="M214.1,194.45A16.72,16.72,0,0,0,226,199c5.52,0,9-2.75,9-7.21,0-3.82-2.19-5.45-6.9-7.46L222.5,182a22.94,22.94,0,0,1-5.7-3.39c-1.76-1.44-2.64-3.57-2.64-6.45a8.4,8.4,0,0,1,3.51-7.34,13.92,13.92,0,0,1,8.16-2.44,18.59,18.59,0,0,1,10.78,3.26v3.57a16.08,16.08,0,0,0-10.72-3.89c-4.77,0-8.59,2.26-8.59,6.77,0,3.77,2.63,5.46,6.71,7l6,2.5c5.58,2.45,8.22,5.21,8.22,10.16a9,9,0,0,1-3.45,7.4A13.37,13.37,0,0,1,226,202c-5.08,0-9.4-1.63-11.91-3.82Z"/><path class="cls-3" d="M242.69,162.91H274v3H259.93v35.55h-3.19V165.86H242.69Z"/><path class="cls-3" d="M294.79,162.91H298v35.55h20.88v2.95H294.79Z"/><path class="cls-3" d="M348,188.74H331l-5,12.67h-3.2l15.24-38.5H341l15.24,38.5H353Zm-15.93-2.88h14.8l-7.4-18.81Z"/><path class="cls-3" d="M391.35,201.41h-2.13L365.71,168v33.42h-3.08v-38.5h3.08L388.28,195v-32.1h3.07Z"/><path class="cls-3" d="M425.15,162.91v3H404.39v14.23H423.2V183H404.39v15.42h20.76v2.95H401.26v-38.5Z"/><path class="cls-3" d="M447.09,178.15a8.11,8.11,0,0,0,2-5.4c0-4.51-2.82-7.39-8.09-7.39-4.45,0-8.28,2.69-11,5.7v-3.51a15.2,15.2,0,0,1,11.09-5.2c7,0,11.1,4.13,11.1,10.4a9.5,9.5,0,0,1-2.13,6.09c-1.44,1.81-2.88,3.51-4.39,5.14-2,2.19-2.63,3.57-2.69,5.33h-3c.18-2.83,1.25-4.52,3.32-7Zm-5.71,18.62a2.44,2.44,0,0,1,2.39,2.44,2.35,2.35,0,1,1-4.7,0A2.42,2.42,0,0,1,441.38,196.77Z"/></g></g></svg>