<svg xmlns="http://www.w3.org/2000/svg" viewBox="0 0 254 97.03"><defs><style>.cls-1{fill:#64656b;}.cls-2{fill:#9a8479;}.cls-3{fill:#a5714e;}</style></defs><title>logo-600</title><g id="Layer_2" data-name="Layer 2"><g id="Layer_1-2" data-name="Layer 1"><path class="cls-1" d="M99.65,90.77H96.28l-1.06,2.57h-.5l3.67-8.93,3.66,8.93H100.7Zm-3.18-.48h3L98,86.65Z"/><path class="cls-1" d="M112.14,85.12h-2.67v8.22H108.2V85.12h-2.67v-.49h6.61Z"/><path class="cls-1" d="M130.45,85.12h-2.66v8.22h-1.28V85.12h-2.67v-.49h6.61Z"/><path class="cls-1" d="M142.91,93.34h-1.28v-4.2h-4.69v4.2h-1.29V84.63h1.29v4h4.69v-4h1.28Z"/><path class="cls-1" d="M149.67,85.12v3.53h3.2v.49h-3.2v3.71h3.82v.49h-5.1V84.63h5.1v.49Z"/><path class="cls-1" d="M166.87,89.5v3.84h-1.28V84.63h2.34c1.74,0,3.19.7,3.19,2.44s-1.45,2.43-3.19,2.43Zm0-.49h.74c1.52,0,2.15-.65,2.15-1.94s-.63-1.95-2.15-1.95h-.74Z"/><path class="cls-1" d="M179.51,90.77h-3.37l-1.06,2.57h-.5l3.67-8.93,3.66,8.93h-1.35Zm-3.18-.48h3l-1.49-3.64Z"/><path class="cls-1" d="M188.65,89.5l4.62,3.84h-.74l-4.24-3.53v3.53H187V84.63h2.44c1.74,0,3.18.7,3.18,2.44s-1.44,2.43-3.18,2.43Zm.48-.49c1.52,0,2.15-.65,2.15-1.94s-.63-1.95-2.15-1.95h-.84V89Z"/><path class="cls-1" d="M199.38,89.66l3.9-5h.63l-2.5,3.23,3.52,5.48h-1.52l-2.81-4.43-1.22,1.57v2.86h-1.29V84.63h1.29Z"/><path class="cls-2" d="M168,58.19a.08.08,0,0,1,0,0A.08.08,0,0,0,168,58.19Z"/><path class="cls-2" d="M166.67,57l-.08,0,.11,0Z"/><path class="cls-3" d="M253.76,45.92C250.5,22.52,222.9,6,188.93,8c-21.79,1.31-40.17,13.88-56,24.38l-2.15,1.42q-2.2,1.45-4.35,2.82l-2.55,1.6c-.78.48-1.55.94-2.32,1.39.68-1.76,1.39-3.52,2.16-5.26q2.52-5.7,3.52-5.7s.11.06.21.16a3.18,3.18,0,0,1,.38,2.25,23.34,23.34,0,0,1-.85,3.79c-.08.28-.17.56-.25.84,1.51-.9,2.86-1.76,4.17-2.71.35-2.73.17-6.1-2.7-6.95a3,3,0,0,0-1.75,0,5.41,5.41,0,0,0-.88.37,6.84,6.84,0,0,0-1.37,1.37,15.58,15.58,0,0,0-1.91,3,56.36,56.36,0,0,0-2.3,5.53q-.87,2.34-1.74,5.21c-1.87,1-3.69,1.91-5.49,2.67-5.56,2.36-14.83,3.44-20.39,1.09C76.82,38.73,69.18,12.6,51,3.37c-8.37-4.25-16.54-4-24.28-1.86A27.34,27.34,0,0,0,11.17,12.89C7.32,18.94,2.05,31,9.94,43.93a35,35,0,0,0,6.42,8.59l1.36,1.4a31.9,31.9,0,0,0-7,3.71A24.88,24.88,0,0,0,.6,73.11C-2.81,88.76,9.32,94.72,12.43,95.87A18.92,18.92,0,0,0,36.66,84.49c3.4-9.46.45-15.83-6.75-23.76h0l-.28-.3h0c-1.8-1.91-4.33-4.51-6.63-6.86,7.58-1.88,16.71.71,22.35,5.42a10,10,0,0,0-1.83,3.41,10.31,10.31,0,0,0-.13,6.18,6.34,6.34,0,0,0,.79,1.85,1.67,1.67,0,0,0,.17.26,6.76,6.76,0,0,0,.54.64c.06.06.11.12.17.17l0,0a4.48,4.48,0,0,0,1.36.95c3.07,1.51,7.16,0,9.38-3.51a9.17,9.17,0,0,0,.58-1.12l0,0c1.92,1.24,7.4,4.89,18.19-8.85q-.77,5-1.61,9.76-2.49,5.13-4.64,10.83a74.61,74.61,0,0,0-3.15,10.29q-1,4.62.21,5.88a2.14,2.14,0,0,0,1.49.59,1.31,1.31,0,0,0,.69-.11c3.05-1.87,5.3-9.16,8.15-26.69a.63.63,0,0,1,0-.26c1.52-3.29,3-7,5.56-9.67,3-3.16,9.06-3.84,8.53,1.27a7.51,7.51,0,0,1-8.21,6.28l-.9.1a1.39,1.39,0,0,0-1,.48,1.18,1.18,0,0,0-.32,1,1.45,1.45,0,0,0,.45,1c.25.23,17.16,11.14,33.39-6.88-.74,3.77-1.3,6.9-1.38,7.88a1.26,1.26,0,0,0,.9,1.43,1.23,1.23,0,0,0,1.59-.47c1.27-1.87,6.29-8.35,10.39-9,1.64-.27,2.52,1.06,3.27,2.06,1.34,1.76,4.35,6.72,8.48,7.58,6.85,1.42,13.66-5.23,17-9a9.29,9.29,0,0,0,.82,7,2.75,2.75,0,0,0,.19.28,6,6,0,0,0,1.69,1.61c3.32,2.08,8,.54,10.54-3.45a10.48,10.48,0,0,0,.63-1.19v0c2,1.28,8.72,3.38,18.66-7a5.48,5.48,0,0,0,3.43,1.23,7,7,0,0,0,4.34-1.15,1,1,0,0,1,.47-.17c.23,0,.3.12.21.3-.2.39-6.2,9.3.61,11.78,4.16,1.52,8.85-.38,13.9-5.38a7.66,7.66,0,0,0,.65,2.53,5.55,5.55,0,0,0,2.84,2.9c3.36,1.44,7.61-1,9.5-5.36a11,11,0,0,0,.66-2.09l0-.15a11.13,11.13,0,0,0,2.33,3.32h0c5,5.16,13.7,6.72,19.68,2.66C251.16,66.56,255,55,253.76,45.92ZM67.43,93.78c.64-3.14,3.1-14.14,5.28-18C72.53,81,70.23,89.65,67.43,93.78ZM23,59.6h0c3.74,4.29,7,8.76,8.7,12.88a14.44,14.44,0,0,1,1.4,7.25,14.68,14.68,0,0,1-14,13.6,14.53,14.53,0,0,1-8.78-2.53C.59,84.06.9,73.05,5.7,65.1A23.45,23.45,0,0,1,18.72,55C20.2,56.53,21.84,58.3,23,59.6Zm32.14,2.46a5.89,5.89,0,0,1-1,2.39A2.45,2.45,0,0,1,53,60.07,1.36,1.36,0,0,1,54.31,60,1.74,1.74,0,0,1,55.16,62.06Zm58.68-1.81c-8.15,10.89-19.47,12.88-27.68,9.43,0,0,7.19-1.33,8.2-7,1.23-7-7.08-13.13-16.76-1.68a.3.3,0,0,1-.34.15c-.12,0-.17-.14-.13-.31l.69-4.56A1.39,1.39,0,0,0,77.29,55a1.28,1.28,0,0,0-1.41-.21,1.25,1.25,0,0,0-.81,1.11C71.31,61,64.17,68.79,58.18,66.07a4.41,4.41,0,0,1-.67-.39,8.52,8.52,0,0,0-.08-6.63l0,0a2.47,2.47,0,0,0-1.31-1.14l-.11,0-.38-.11c-2.4-.73-5.74,1.62-4.71,5.5a4.27,4.27,0,0,0,1.85,2.7c.43.32.67.51-.39,1.6-2.81,2.9-9.27,1.63-6.82-5.37,2-5.65,6.72-3.95,7-4.67s-.33-1.31-1.43-1.4a4.25,4.25,0,0,0-1.77.21,8,8,0,0,0-3.13,1.78c-7.32-5.47-14.82-7.45-24.11-5.45l-1-1-1.39-1.42c-12.8-13-7.29-29-4.52-33.15C19.79,10,27.1,4.28,35.72,3.7,55,2.4,64.91,20.5,75.4,33.25c5.48,6.65,12.36,13.69,21.32,15,5.91.83,11.54-.12,21-4.8-.16.54-.31,1.08-.47,1.65C116.53,47.42,115.05,54.21,113.84,60.25Zm52.25,1.07A6.32,6.32,0,0,1,165,63.87a2.56,2.56,0,0,1-1.78-1.06,2.12,2.12,0,0,1-.58-1.14,2.49,2.49,0,0,1,.92-2.42,1.65,1.65,0,0,1,1.58-.12A1.87,1.87,0,0,1,166.09,61.32ZM187,58.14a6.51,6.51,0,0,1,.4-3.74c.38-.56.76-.73,1.14-.53s.66.66.43,1.44A7,7,0,0,1,187,58.14Zm63.68-2.84c-.51,4.15-2.79,14.42-11.54,16.6-4.77,1.19-9.61-1.17-12.94-5a10.18,10.18,0,0,1-2.42-5.61,3.51,3.51,0,0,0-.11-.55,1,1,0,0,0-.91-.91c-.55-.09-.87.27-1,.79a32.65,32.65,0,0,1-2.23,6.69c-1.85,3.66-5.15,2.32-6.55.37-2.34-3.29.62-13.26,9.25-11.18,1.41.34,1.81.3,1.91-.09.2-.81-.19-1.4-1.71-1.66-3.41-.59-9.39.38-12.52,7.52a10.76,10.76,0,0,0-.45,1.06,10.57,10.57,0,0,0-.37,1.52.2.2,0,0,1,0,.07c-4.56,6.73-11.15,7.68-13.47,3.77-1.16-2,.61-5.5,1.73-7.4.29-.57.49-1,.62-1.34a2.71,2.71,0,0,0,.15-1.18,1.48,1.48,0,0,0-.6-1.11,2.12,2.12,0,0,0-1.19-.45,2.75,2.75,0,0,0-1,.13,7.89,7.89,0,0,0-1,.53c-4.06,3.46-6.31,2.72-6.58,1,0,0,4.74-5.08,2.22-7.34-.7-.64-1.62-.63-2.82.08A5.9,5.9,0,0,0,185,54.46c-.26.74-.85,3.46.48,5.35-4.32,4.2-10.59,8.32-16.17,5.8a8.2,8.2,0,0,1-.72-.42,9,9,0,0,0-.08-7.07l0,0a2.63,2.63,0,0,0-1.4-1.21l-.11,0-.41-.12c-2.56-.77-6.12,1.73-5,5.88a4.64,4.64,0,0,0,2,2.88c.45.34.72.53-.41,1.7-3,3.09-9.91,1.94-7.08-5.45,2.21-5.77,7-4.49,7.27-5.26s-.35-1.49-1.53-1.5c-3,0-6,2.71-7.49,6.17-4.06,3.93-10.73,9.72-16.58,8.86-2-.29-3.69-2.14-5.38-4.12C129,62,129,59.39,125.81,58.67c-5.42-1.23-10.65,6.55-10.65,6.55s.82-3,1.31-5.61l.32-.48.11-.16c.77-1.09,1.57-2.22,2.38-3.39.7-1,8-13.47,10.26-17.8-1.58.94-3,1.79-4.45,2.58-3.45,8.91-7.71,14.36-7.86,14.27-.42-.24.91-4.76,2.13-8.68.43-1.39.9-2.76,1.39-4.13l2-1.09,2.81-1.6c1.46-.84,3-1.75,4.61-2.73l2.49-1.53c4.29-2.65,9.14-5.76,14.69-9.4C157,19.13,179.58,4.22,210.42,12,253.93,23.05,251,52.84,250.68,55.3Z"/></g></g></svg>