<svg xmlns="http://www.w3.org/2000/svg" xmlns:xlink="http://www.w3.org/1999/xlink" viewBox="0 0 78 60.22"><defs><style>.cls-1{fill:none;}.cls-2{fill:#a5714e;}.cls-3{clip-path:url(#clip-path);}</style><clipPath id="clip-path" transform="translate(0 0)"><rect class="cls-1" width="78" height="62.92"/></clipPath></defs><title>logo-p-600</title><g id="Layer_2" data-name="Layer 2"><g id="Layer_1-2" data-name="Layer 1"><polygon class="cls-2" points="34.86 0.24 39.14 4.46 43.41 0.24 34.86 0.24"/><polygon class="cls-2" points="45.73 0 39.14 6.48 32.57 0.04 27.82 4.71 33.32 4.71 36.45 7.83 41.92 7.83 45.1 4.71 50.53 4.71 45.73 0"/><polygon class="cls-2" points="28.03 6.33 32.49 6.33 33.97 7.83 29.33 12.52 36.82 12.52 36.82 17.24 29.2 12.68 26.05 15.87 26.05 22.43 22.72 25.69 22.72 23.21 24.4 21.59 24.4 15.08 26.87 12.61 26.87 7.48 28.03 6.33"/><polygon class="cls-2" points="22.72 9.72 25.28 7.15 25.28 11.98 22.72 14.54 22.72 9.72"/><polygon class="cls-2" points="27.55 16.46 29.27 14.73 29.27 24.2 22.72 30.73 22.72 28.15 27.55 23.34 27.55 16.46"/><polygon class="cls-2" points="30.79 20.04 32.5 21.74 32.49 25.97 27.78 30.73 25.18 30.73 30.79 25.12 30.79 20.04"/><polygon class="cls-2" points="30.21 30.73 33.52 27.39 36.82 30.73 30.21 30.73"/><polygon class="cls-2" points="33.96 23.03 33.96 25.63 35.8 27.48 39.09 24.2 42.34 27.48 45.63 24.2 45.63 26.01 50.33 30.73 53 30.73 47.39 25.12 47.39 22.58 48.86 21.18 48.86 24.2 55.48 30.73 55.48 28.03 50.65 23.32 50.65 14.38 52.05 15.8 52.05 22.43 55.48 25.69 55.48 23.09 53.84 21.59 53.84 15.13 51.25 12.52 51.25 7.48 50.11 6.33 45.8 6.33 44.29 7.83 48.95 12.52 41.22 12.52 41.22 20.3 34.93 20.3 37.58 22.86 35.7 24.74 33.96 23.03"/><polygon class="cls-2" points="41.22 30.73 44.62 27.34 47.98 30.73 41.22 30.73"/><polygon class="cls-2" points="55.48 9.72 52.84 7.15 52.84 11.98 55.48 14.54 55.48 9.72"/><g class="cls-3"><path class="cls-2" d="M0,37.57H4.23a6.08,6.08,0,0,1,2.92.55,4.22,4.22,0,0,1,1.23.94,3.81,3.81,0,0,1,.86,2.49,3.6,3.6,0,0,1-2.38,3.56,7.21,7.21,0,0,1-2.64.31H2.57V49.8H0ZM4,43.4c1.76,0,2.64-.66,2.64-1.91S5.82,39.71,4,39.71H2.57V43.4Z" transform="translate(0 0)"/><path class="cls-2" d="M10.67,43.6c0-3.75,2.35-6.34,5.84-6.34s5.8,2.54,5.8,6.35-2.24,6.53-5.74,6.53-5.9-2.6-5.9-6.54m9.07.06c0-2.65-1.24-4.25-3.26-4.25S13.24,41,13.24,43.6s1.25,4.33,3.27,4.33,3.23-1.74,3.23-4.27" transform="translate(0 0)"/></g><polygon class="cls-2" points="24.16 37.51 26.72 37.51 26.72 47.54 32.49 47.54 32.49 49.71 24.16 49.71 24.16 37.51"/><polygon class="cls-2" points="37.38 44.88 37.38 49.71 34.82 49.71 34.82 44.98 30.83 37.51 33.76 37.51 36.16 42.75 38.7 37.51 41.47 37.51 37.38 44.88"/><g class="cls-3"><path class="cls-2" d="M52.23,49.71H50.11V48.34a4.36,4.36,0,0,1-1.18,1.09,4,4,0,0,1-2.25.64c-3.28,0-5.43-2.6-5.43-6.49,0-3.74,2.36-6.4,5.76-6.4,2.79,0,5,1.71,5.22,4H49.69a2.48,2.48,0,0,0-2.62-1.87c-2,0-3.2,1.64-3.2,4.32S45.13,48,47.05,48c1.67,0,2.75-1.18,2.78-3.05H47.21V42.85h5Z" transform="translate(0 0)"/><path class="cls-2" d="M54.18,43.53c0-3.75,2.48-6.35,6-6.35S66,39.74,66,43.55s-2.25,6.51-5.73,6.51-6-2.59-6-6.53m9.2,0c0-2.63-1.25-4.23-3.25-4.23s-3.25,1.59-3.25,4.18,1.25,4.32,3.26,4.32,3.24-1.75,3.24-4.27" transform="translate(0 0)"/></g><polygon class="cls-2" points="75.53 37.51 75.53 46.9 71.41 37.51 67.61 37.51 67.61 49.71 70.06 49.71 70.06 40.26 74.25 49.71 78 49.71 78 37.51 75.53 37.51"/><g class="cls-3"><path class="cls-2" d="M.77,58.75v1.41H.3V57h.87c.63,0,1.16.26,1.16.9s-.53.89-1.16.89Zm0-.18h.28c.56,0,.79-.24.79-.71s-.23-.72-.79-.72H.77Z" transform="translate(0 0)"/><path class="cls-2" d="M4.7,60.22A1.64,1.64,0,0,1,3,58.56,1.66,1.66,0,0,1,4.7,56.9a1.66,1.66,0,0,1,1.72,1.66A1.64,1.64,0,0,1,4.7,60.22Zm1.21-1.66c0-.87-.48-1.48-1.21-1.48s-1.21.61-1.21,1.48S4,60,4.7,60,5.91,59.44,5.91,58.56Z" transform="translate(0 0)"/><path class="cls-2" d="M7.24,57h.47v3H9v.18H7.24Z" transform="translate(0 0)"/><path class="cls-2" d="M10.16,58.73,9.12,57h.54l.91,1.56L11.48,57h.21l-1.06,1.81v1.39h-.47Z" transform="translate(0 0)"/><path class="cls-2" d="M14.81,57.45a1.66,1.66,0,0,0-1.08-.37,1.51,1.51,0,0,0,0,3,1.35,1.35,0,0,0,.79-.21v-1.3H15v1.34a2.1,2.1,0,0,1-1.26.35,1.66,1.66,0,1,1,0-3.32,2.13,2.13,0,0,1,1.08.27Z" transform="translate(0 0)"/><path class="cls-2" d="M17.52,60.22a1.64,1.64,0,0,1-1.72-1.66,1.72,1.72,0,0,1,3.43,0A1.64,1.64,0,0,1,17.52,60.22Zm1.21-1.66c0-.87-.49-1.48-1.21-1.48s-1.21.61-1.21,1.48S16.79,60,17.52,60,18.73,59.44,18.73,58.56Z" transform="translate(0 0)"/><path class="cls-2" d="M22.59,57v3.26l-2.36-2.46v2.4h-.18V56.91l2.36,2.46V57Z" transform="translate(0 0)"/><path class="cls-2" d="M26.47,57.31a1.22,1.22,0,0,0-.67-.21c-.3,0-.57.14-.57.41s.24.43.63.69c.55.38.93.66.93,1.16s-.61.84-1.09.84a1.51,1.51,0,0,1-.93-.29v-.27a1.4,1.4,0,0,0,.93.38c.4,0,.66-.19.66-.53s-.2-.49-.64-.81-.88-.63-.88-1,.49-.72,1-.72a1.72,1.72,0,0,1,.66.13Z" transform="translate(0 0)"/><path class="cls-2" d="M29.16,60.22a1.64,1.64,0,0,1-1.71-1.66,1.72,1.72,0,1,1,1.71,1.66Zm1.21-1.66c0-.87-.48-1.48-1.21-1.48S28,57.69,28,58.56,28.44,60,29.16,60,30.37,59.44,30.37,58.56Z" transform="translate(0 0)"/><path class="cls-2" d="M32.17,58.75v1.41H31.7V57h.86c.64,0,1.17.26,1.17.9s-.53.89-1.17.89Zm0-.18h.27c.56,0,.79-.24.79-.71s-.23-.72-.79-.72h-.27Z" transform="translate(0 0)"/><path class="cls-2" d="M37.17,60.16h-.48V58.62H35v1.54H34.5V57H35v1.48h1.72V57h.48Z" transform="translate(0 0)"/><path class="cls-2" d="M39.7,60.22A1.65,1.65,0,0,1,38,58.56a1.72,1.72,0,0,1,3.44,0A1.64,1.64,0,0,1,39.7,60.22Zm1.21-1.66c0-.87-.48-1.48-1.21-1.48s-1.21.61-1.21,1.48S39,60,39.7,60,40.91,59.44,40.91,58.56Z" transform="translate(0 0)"/><path class="cls-2" d="M42.84,58.75l1.69,1.41h-.27l-1.55-1.29v1.29h-.47V57h.89c.64,0,1.17.26,1.17.9s-.53.89-1.17.89Zm.17-.18c.56,0,.79-.24.79-.71s-.23-.72-.79-.72h-.3v1.43Z" transform="translate(0 0)"/><path class="cls-2" d="M46.82,59.22H45.58l-.38.94H45l1.35-3.28,1.34,3.28h-.49ZM45.66,59h1.09l-.55-1.33Z" transform="translate(0 0)"/><path class="cls-2" d="M52.15,57.14h-1v3h-.46v-3h-1V57h2.42Z" transform="translate(0 0)"/><path class="cls-2" d="M54.2,60.22a1.65,1.65,0,0,1-1.72-1.66,1.72,1.72,0,0,1,3.44,0A1.64,1.64,0,0,1,54.2,60.22Zm1.21-1.66c0-.87-.48-1.48-1.21-1.48S53,57.69,53,58.56,53.48,60,54.2,60,55.41,59.44,55.41,58.56Z" transform="translate(0 0)"/><path class="cls-2" d="M56.79,57l.91,2.39,1-2.44,1.05,2.46L60.59,57h.18l-1.18,3.26-1.08-2.48-1,2.48L56.29,57Z" transform="translate(0 0)"/><path class="cls-2" d="M62,57.14v1.3H63.2v.18H62V60h1.4v.18H61.56V57h1.87v.18Z" transform="translate(0 0)"/><path class="cls-2" d="M64.9,58.75l1.69,1.41h-.26l-1.56-1.29v1.29H64.3V57h.89c.64,0,1.17.26,1.17.9s-.53.89-1.17.89Zm.18-.18c.55,0,.79-.24.79-.71s-.24-.72-.79-.72h-.31v1.43Z" transform="translate(0 0)"/><path class="cls-2" d="M68.63,57h.47v3h1.23v.18h-1.7Z" transform="translate(0 0)"/><path class="cls-2" d="M72.94,57.14H72v3h-.47v-3h-1V57h2.43Z" transform="translate(0 0)"/><path class="cls-2" d="M73.76,60.16V57h.88a1.61,1.61,0,1,1,0,3.2Zm.47-.18h.4a1.43,1.43,0,0,0,0-2.84h-.4Z" transform="translate(0 0)"/><path class="cls-2" d="M77.19,59.73A.24.24,0,1,1,77,60,.23.23,0,0,1,77.19,59.73Z" transform="translate(0 0)"/></g></g></g></svg>