<svg xmlns="http://www.w3.org/2000/svg" viewBox="0 0 150.76 33.01"><defs><style>.cls-1{fill:#a5714e;}</style></defs><title>t4-ch-300x600</title><g id="Layer_2" data-name="Layer 2"><g id="Layer_2-2" data-name="Layer 2"><path class="cls-1" d="M11.2,20.63a78.59,78.59,0,0,1,5,9.17l-2.41,1.34c-.4-1-1-2.27-1.66-3.6-9.07,3.2-10.26,3.7-11,4.28A11.37,11.37,0,0,0,0,29.08a2.39,2.39,0,0,0,1.51-2.26V1.91H15.23V18.79h-11v8.85l6.87-2.23c-.72-1.29-1.47-2.59-2.12-3.7Zm-7-16.31V9H12.6V4.32ZM12.6,16.38v-5H4.18v5Zm17.71,6.33c0,1.51-.33,2.27-1.3,2.7s-2.59.51-5.22.47A8.6,8.6,0,0,0,23,23.33c1.87.07,3.53.07,4,0s.68-.14.68-.65V4.64H21.17V32.9H18.54V2.12H30.31Z"/><path class="cls-1" d="M46.94.07h2.49V32.9H46.94V20.34H43v.86c0,3.1-.4,8.17-2.59,11.77a6.35,6.35,0,0,0-2-1.29c2-3.32,2.26-7.78,2.26-10.55v-.79H38.7V18h8.24V12.67H40.21V1.44h2.38v8.89h4.35ZM70.27,3.78C67.14,11.55,59.61,16,52.05,18.11a7.65,7.65,0,0,0-1.33-2,29.53,29.53,0,0,0,10.84-5A26.86,26.86,0,0,0,57,6.3a33.15,33.15,0,0,1-5.29,3c-.4-.44-1.19-1.23-1.66-1.66C54.32,5.9,58.32,2.92,60.37,0L63,.76a17.92,17.92,0,0,1-2.05,2.3h7.27L68.65,3Zm1.19,17H66.81v8.6c0,1.51-.32,2.27-1.4,2.7s-2.84.47-5.69.47A9.2,9.2,0,0,0,58.86,30c2.16.08,4.1,0,4.64,0s.76-.14.76-.64V20.77H50.65V18.39H64.26V13.32h2.55v5.07h4.65ZM58.53,11.66c-2.62.4-5.11.72-7.3,1.05l-.47-2c2.05-.18,4.71-.54,7.63-.9Zm-3.24,10A27.25,27.25,0,0,1,60,27.39l-2.19,1.37a27.55,27.55,0,0,0-4.61-5.9ZM58.71,5l0,0a28.85,28.85,0,0,1,4.57,4.64A17.3,17.3,0,0,0,67,5Z"/><path class="cls-1" d="M110.26,5.94a50.88,50.88,0,0,1-5.47,4.35,24.42,24.42,0,0,0,6.77,4.18,11.07,11.07,0,0,0-1.84,2.2,27.79,27.79,0,0,1-8.53-6.2v1.84H88.31V10.62A31.34,31.34,0,0,1,79.45,17a11.23,11.23,0,0,0-1.65-2,25.45,25.45,0,0,0,7.27-4.75A23.56,23.56,0,0,0,80.5,6.59l1.44-1.51a23.36,23.36,0,0,1,4.71,3.59,24.64,24.64,0,0,0,3.6-5H80.46V1.37H91.51l.5-.11,1.77.9A25.06,25.06,0,0,1,88.88,10h11.88a33.06,33.06,0,0,1-6-9.18L97.13.11a27,27,0,0,0,2.48,4.46A44.66,44.66,0,0,0,104.25.32l2,1.44a49.8,49.8,0,0,1-5.47,4.43,28.09,28.09,0,0,0,2.42,2.74,45.13,45.13,0,0,0,5-4.36Zm-7.59,19.15c-.76,1.55-1.66,3.24-2.41,4.61h10.22V32H79V29.7h9.87a18.49,18.49,0,0,0-2-4.47l2.41-.75a18.77,18.77,0,0,1,2.2,4.46l-2.23.76h8.31a33.06,33.06,0,0,0,2.63-5.3Zm2-.9H84.31v-9h20.38Zm-2.81-6.73H86.94V22h14.94Z"/><path class="cls-1" d="M129.27,21.13c-3.63,1.83-7.55,3.74-10.58,5.18l-1-2.63c1.37-.57,3.06-1.29,4.89-2.12V10.29h-4.21V7.77h4.21V.29H125V7.77h3.89v2.52H125V20.41l3.67-1.66ZM136,17a22.4,22.4,0,0,1-1.55,2.52H149.9s0,.72-.11,1.08c-.54,7.41-1.11,10.22-2.12,11.27a2.94,2.94,0,0,1-2,.9c-.79,0-2.12,0-3.56,0a4.53,4.53,0,0,0-.61-2.16c1.33.11,2.52.14,3.06.14s.83,0,1.08-.39c.61-.65,1.15-2.92,1.62-8.57h-2.81C143,26,140.18,30.67,137.09,33a8.41,8.41,0,0,0-1.91-1.55c2.91-1.94,5.54-5.83,7-9.72h-3.49A27.23,27.23,0,0,1,130,31.46a7.37,7.37,0,0,0-1.76-1.66,23.79,23.79,0,0,0,8.09-8.06h-3.63a24.67,24.67,0,0,1-4.68,4.1,11.84,11.84,0,0,0-1.84-1.65,20.33,20.33,0,0,0,7.13-7.2h-5V14.72h22.53V17Zm12.24-4.28H131.76V1.08h16.45ZM145.72,3.1H134.21V5.94h11.51Zm0,4.71H134.21v2.88h11.51Z"/></g></g></svg>