<svg xmlns="http://www.w3.org/2000/svg" viewBox="0 0 106 27"><defs><style>.cls-1{fill:#76aba8;}.cls-2{fill:#fff;}</style></defs><g id="Layer_2" data-name="Layer 2"><g id="Layer_3" data-name="Layer 3"><rect class="cls-1" width="106" height="27"/><path class="cls-2" d="M19.29,10.11h1.56v5.64h2.89v1.44H19.29Z"/><path class="cls-2" d="M24.76,10.11h4.81v1.44H26.32v1.32h3.07v1.44H26.32v1.44h3.43v1.44h-5Z"/><path class="cls-2" d="M33.43,10.11h1.29l3.08,7.08H36l-.61-1.5H32.68l-.59,1.5H30.37Zm.6,2.06-.86,2.2H34.9Z"/><path class="cls-2" d="M38.61,10.11h2.73c1.45,0,2.67.5,2.67,2.15a1.82,1.82,0,0,1-1.53,1.94l1.8,3H42.41l-1.48-2.83h-.77v2.83H38.61ZM40.16,13h.92c.57,0,1.31,0,1.31-.79s-.64-.82-1.21-.82h-1Z"/><path class="cls-2" d="M45.18,10.11H47.3l3,4.92h0V10.11h1.56v7.08h-2l-3.09-5h0v5H45.18Z"/><path class="cls-2" d="M56.49,10.11h2.36l1.63,4.62h0l1.64-4.62h2.34v7.08H62.93V11.76h0l-1.85,5.43H59.86l-1.79-5.43h0v5.43H56.49Z"/><path class="cls-2" d="M69.46,9.93a3.59,3.59,0,0,1,3.82,3.72,3.82,3.82,0,0,1-7.63,0A3.58,3.58,0,0,1,69.46,9.93Zm0,6a2.14,2.14,0,0,0,2.2-2.28,2.2,2.2,0,1,0-4.4,0A2.14,2.14,0,0,0,69.46,15.93Z"/><path class="cls-2" d="M74.44,10.11h2.74c1.45,0,2.67.5,2.67,2.15a1.82,1.82,0,0,1-1.53,1.94l1.8,3H78.25l-1.48-2.83H76v2.83H74.44ZM76,13h.92c.57,0,1.31,0,1.31-.79s-.64-.82-1.21-.82H76Z"/><path class="cls-2" d="M81.08,10.11h4.81v1.44H82.64v1.32h3.07v1.44H82.64v1.44h3.43v1.44h-5Z"/></g></g></svg>