<svg width="320" height="50" viewBox="0 0 320 50" fill="none" xmlns="http://www.w3.org/2000/svg">
<path d="M9.86667 36.2447C9.86667 35.4904 9.96597 34.7963 10.1646 34.1623C10.3632 33.5284 10.6531 32.9436 11.0343 32.4079H11.8588C11.7103 32.6065 11.5719 32.8503 11.4435 33.1392C11.3151 33.4281 11.2028 33.7451 11.1065 34.0901C11.0102 34.4332 10.935 34.7893 10.8808 35.1584C10.8266 35.5255 10.7995 35.8876 10.7995 36.2447C10.7995 36.7222 10.8467 37.2057 10.941 37.6952C11.0353 38.1847 11.1627 38.6391 11.3231 39.0584C11.4836 39.4777 11.6622 39.8197 11.8588 40.0846H11.0343C10.6531 39.5489 10.3632 38.9641 10.1646 38.3302C9.96597 37.6962 9.86667 37.0011 9.86667 36.2447ZM14.3221 38.9049C14.0292 38.9049 13.7644 38.8508 13.5276 38.7424C13.2909 38.6321 13.1033 38.4726 12.9649 38.264C12.8285 38.0553 12.7603 37.7995 12.7603 37.4966C12.7603 37.2358 12.8104 37.0211 12.9107 36.8526C13.0111 36.6841 13.1465 36.5507 13.317 36.4524C13.4875 36.3541 13.6781 36.2798 13.8888 36.2297C14.0994 36.1795 14.3141 36.1414 14.5327 36.1153C14.8096 36.0832 15.0343 36.0572 15.2068 36.0371C15.3793 36.015 15.5047 35.9799 15.583 35.9318C15.6612 35.8836 15.7003 35.8054 15.7003 35.6971V35.676C15.7003 35.4132 15.6261 35.2096 15.4776 35.0651C15.3312 34.9207 15.1125 34.8484 14.8216 34.8484C14.5187 34.8484 14.28 34.9157 14.1054 35.0501C13.9329 35.1825 13.8135 35.3299 13.7473 35.4924L12.9017 35.2998C13.002 35.019 13.1485 34.7923 13.3411 34.6197C13.5357 34.4452 13.7594 34.3188 14.0121 34.2406C14.2649 34.1603 14.5307 34.1202 14.8096 34.1202C14.9942 34.1202 15.1898 34.1423 15.3964 34.1864C15.605 34.2285 15.7996 34.3068 15.9802 34.4211C16.1627 34.5355 16.3122 34.699 16.4286 34.9116C16.5449 35.1223 16.6031 35.3961 16.6031 35.7332V38.8026H15.7244V38.1707H15.6883C15.6301 38.287 15.5428 38.4014 15.4265 38.5137C15.3101 38.6261 15.1607 38.7194 14.9781 38.7936C14.7955 38.8678 14.5769 38.9049 14.3221 38.9049ZM14.5177 38.1827C14.7665 38.1827 14.9791 38.1336 15.1557 38.0353C15.3342 37.9369 15.4696 37.8086 15.5619 37.6501C15.6562 37.4896 15.7033 37.318 15.7033 37.1355V36.5396C15.6712 36.5717 15.609 36.6018 15.5168 36.6299C15.4265 36.656 15.3232 36.6791 15.2068 36.6991C15.0905 36.7172 14.9771 36.7342 14.8668 36.7503C14.7564 36.7643 14.6641 36.7764 14.5899 36.7864C14.4154 36.8085 14.2559 36.8456 14.1114 36.8978C13.969 36.9499 13.8546 37.0251 13.7684 37.1234C13.6841 37.2197 13.642 37.3481 13.642 37.5086C13.642 37.7313 13.7242 37.8998 13.8888 38.0142C14.0533 38.1265 14.2629 38.1827 14.5177 38.1827ZM18.8708 36.0582V38.8026H17.971V34.1804H18.8347V34.9327H18.8919C18.9982 34.688 19.1647 34.4913 19.3914 34.3429C19.6201 34.1944 19.908 34.1202 20.2551 34.1202C20.57 34.1202 20.8459 34.1864 21.0826 34.3188C21.3193 34.4492 21.5029 34.6438 21.6333 34.9026C21.7637 35.1614 21.8289 35.4814 21.8289 35.8626V38.8026H20.9291V35.9709C20.9291 35.6359 20.8419 35.3741 20.6673 35.1855C20.4928 34.9949 20.253 34.8996 19.9481 34.8996C19.7395 34.8996 19.5539 34.9447 19.3914 35.035C19.2309 35.1253 19.1035 35.2577 19.0092 35.4322C18.9169 35.6048 18.8708 35.8134 18.8708 36.0582ZM24.9354 38.8929C24.5623 38.8929 24.2292 38.7976 23.9363 38.607C23.6454 38.4144 23.4167 38.1406 23.2502 37.7855C23.0857 37.4284 23.0035 37.0001 23.0035 36.5005C23.0035 36.001 23.0867 35.5737 23.2532 35.2186C23.4218 34.8635 23.6525 34.5917 23.9454 34.4031C24.2383 34.2145 24.5703 34.1202 24.9414 34.1202C25.2283 34.1202 25.459 34.1684 25.6336 34.2646C25.8101 34.3589 25.9465 34.4693 26.0428 34.5957C26.1411 34.7221 26.2174 34.8334 26.2715 34.9297H26.3257V32.6396H27.2255V38.8026H26.3468V38.0834H26.2715C26.2174 38.1817 26.1391 38.294 26.0368 38.4204C25.9365 38.5468 25.7981 38.6572 25.6215 38.7515C25.445 38.8457 25.2163 38.8929 24.9354 38.8929ZM25.134 38.1255C25.3928 38.1255 25.6115 38.0573 25.79 37.9209C25.9706 37.7825 26.107 37.5909 26.1993 37.3461C26.2936 37.1014 26.3407 36.8165 26.3407 36.4915C26.3407 36.1705 26.2946 35.8896 26.2023 35.6489C26.11 35.4082 25.9746 35.2206 25.7961 35.0862C25.6175 34.9518 25.3968 34.8846 25.134 34.8846C24.8632 34.8846 24.6375 34.9548 24.4569 35.0952C24.2764 35.2356 24.14 35.4272 24.0477 35.67C23.9574 35.9127 23.9123 36.1866 23.9123 36.4915C23.9123 36.8005 23.9584 37.0783 24.0507 37.3251C24.143 37.5718 24.2794 37.7674 24.4599 37.9119C24.6425 38.0543 24.8672 38.1255 25.134 38.1255ZM31.0913 40.5359V34.1804H31.97V34.9297H32.0452C32.0974 34.8334 32.1726 34.7221 32.2709 34.5957C32.3692 34.4693 32.5056 34.3589 32.6802 34.2646C32.8547 34.1684 33.0854 34.1202 33.3723 34.1202C33.7454 34.1202 34.0785 34.2145 34.3714 34.4031C34.6643 34.5917 34.894 34.8635 35.0605 35.2186C35.229 35.5737 35.3133 36.001 35.3133 36.5005C35.3133 37.0001 35.23 37.4284 35.0635 37.7855C34.897 38.1406 34.6683 38.4144 34.3774 38.607C34.0865 38.7976 33.7545 38.8929 33.3813 38.8929C33.1005 38.8929 32.8707 38.8457 32.6922 38.7515C32.5157 38.6572 32.3772 38.5468 32.2769 38.4204C32.1766 38.294 32.0994 38.1817 32.0452 38.0834H31.991V40.5359H31.0913ZM31.973 36.4915C31.973 36.8165 32.0201 37.1014 32.1144 37.3461C32.2087 37.5909 32.3451 37.7825 32.5237 37.9209C32.7022 38.0573 32.9209 38.1255 33.1797 38.1255C33.4485 38.1255 33.6732 38.0543 33.8538 37.9119C34.0343 37.7674 34.1707 37.5718 34.263 37.3251C34.3573 37.0783 34.4045 36.8005 34.4045 36.4915C34.4045 36.1866 34.3583 35.9127 34.266 35.67C34.1758 35.4272 34.0393 35.2356 33.8568 35.0952C33.6762 34.9548 33.4505 34.8846 33.1797 34.8846C32.9189 34.8846 32.6982 34.9518 32.5177 35.0862C32.3391 35.2206 32.2037 35.4082 32.1114 35.6489C32.0191 35.8896 31.973 36.1705 31.973 36.4915ZM39.4189 36.8857V34.1804H40.3216V38.8026H39.4369V38.0021H39.3888C39.2824 38.2489 39.1119 38.4545 38.8772 38.619C38.6445 38.7815 38.3546 38.8628 38.0075 38.8628C37.7106 38.8628 37.4478 38.7976 37.2191 38.6672C36.9924 38.5348 36.8138 38.3392 36.6834 38.0804C36.555 37.8216 36.4908 37.5016 36.4908 37.1204V34.1804H37.3906V37.0121C37.3906 37.3271 37.4779 37.5778 37.6524 37.7644C37.827 37.951 38.0537 38.0443 38.3325 38.0443C38.501 38.0443 38.6685 38.0021 38.8351 37.9179C39.0036 37.8336 39.143 37.7062 39.2533 37.5357C39.3657 37.3652 39.4209 37.1485 39.4189 36.8857ZM43.8577 34.1804V34.9026H41.333V34.1804H43.8577ZM42.01 33.073H42.9098V37.4454C42.9098 37.62 42.9359 37.7514 42.9881 37.8396C43.0402 37.9259 43.1074 37.9851 43.1897 38.0172C43.2739 38.0473 43.3652 38.0623 43.4635 38.0623C43.5357 38.0623 43.5989 38.0573 43.6531 38.0473C43.7073 38.0373 43.7494 38.0292 43.7795 38.0232L43.942 38.7665C43.8898 38.7866 43.8156 38.8066 43.7193 38.8267C43.623 38.8488 43.5026 38.8608 43.3582 38.8628C43.1215 38.8668 42.9008 38.8247 42.6962 38.7364C42.4915 38.6481 42.326 38.5117 42.1996 38.3271C42.0732 38.1426 42.01 37.9109 42.01 37.632V33.073ZM47.4347 38.8026V34.1804H48.2983V34.9327H48.3555C48.4518 34.6779 48.6093 34.4793 48.8279 34.3369C49.0466 34.1924 49.3084 34.1202 49.6134 34.1202C49.9223 34.1202 50.1811 34.1924 50.3897 34.3369C50.6004 34.4813 50.7559 34.6799 50.8562 34.9327H50.9043C51.0147 34.6859 51.1902 34.4893 51.4309 34.3429C51.6717 34.1944 51.9586 34.1202 52.2916 34.1202C52.7109 34.1202 53.0529 34.2516 53.3178 34.5144C53.5846 34.7772 53.718 35.1734 53.718 35.7031V38.8026H52.8182V35.7873C52.8182 35.4744 52.733 35.2477 52.5624 35.1072C52.3919 34.9668 52.1883 34.8966 51.9516 34.8966C51.6587 34.8966 51.4309 34.9869 51.2684 35.1674C51.1059 35.346 51.0247 35.5757 51.0247 35.8565V38.8026H50.1279V35.7302C50.1279 35.4794 50.0497 35.2778 49.8932 35.1253C49.7367 34.9728 49.5331 34.8966 49.2823 34.8966C49.1118 34.8966 48.9543 34.9417 48.8099 35.032C48.6674 35.1203 48.5521 35.2437 48.4638 35.4021C48.3776 35.5606 48.3344 35.7442 48.3344 35.9528V38.8026H47.4347ZM57.0404 38.8959C56.6071 38.8959 56.2289 38.7966 55.9059 38.598C55.5829 38.3994 55.3322 38.1215 55.1536 37.7644C54.9751 37.4073 54.8858 36.99 54.8858 36.5126C54.8858 36.0331 54.9751 35.6138 55.1536 35.2547C55.3322 34.8956 55.5829 34.6167 55.9059 34.4181C56.2289 34.2195 56.6071 34.1202 57.0404 34.1202C57.4738 34.1202 57.8519 34.2195 58.1749 34.4181C58.4979 34.6167 58.7487 34.8956 58.9272 35.2547C59.1058 35.6138 59.195 36.0331 59.195 36.5126C59.195 36.99 59.1058 37.4073 58.9272 37.7644C58.7487 38.1215 58.4979 38.3994 58.1749 38.598C57.8519 38.7966 57.4738 38.8959 57.0404 38.8959ZM57.0434 38.1406C57.3243 38.1406 57.557 38.0663 57.7416 37.9179C57.9261 37.7694 58.0626 37.5718 58.1508 37.3251C58.2411 37.0783 58.2863 36.8065 58.2863 36.5096C58.2863 36.2146 58.2411 35.9438 58.1508 35.6971C58.0626 35.4483 57.9261 35.2487 57.7416 35.0982C57.557 34.9478 57.3243 34.8725 57.0434 34.8725C56.7606 34.8725 56.5258 34.9478 56.3393 35.0982C56.1547 35.2487 56.0173 35.4483 55.927 35.6971C55.8387 35.9438 55.7946 36.2146 55.7946 36.5096C55.7946 36.8065 55.8387 37.0783 55.927 37.3251C56.0173 37.5718 56.1547 37.7694 56.3393 37.9179C56.5258 38.0663 56.7606 38.1406 57.0434 38.1406ZM60.3689 38.8026V34.1804H61.2385V34.9146H61.2867C61.371 34.6659 61.5194 34.4703 61.7321 34.3278C61.9467 34.1834 62.1895 34.1112 62.4603 34.1112C62.5165 34.1112 62.5827 34.1132 62.6589 34.1172C62.7372 34.1212 62.7983 34.1262 62.8425 34.1322V34.9929C62.8064 34.9829 62.7422 34.9718 62.6499 34.9598C62.5576 34.9457 62.4653 34.9387 62.373 34.9387C62.1604 34.9387 61.9708 34.9839 61.8043 35.0741C61.6398 35.1624 61.5094 35.2858 61.4131 35.4443C61.3168 35.6008 61.2686 35.7793 61.2686 35.9799V38.8026H60.3689ZM65.6172 38.8959C65.1618 38.8959 64.7696 38.7986 64.4406 38.604C64.1136 38.4074 63.8608 38.1315 63.6823 37.7765C63.5057 37.4194 63.4175 37.0011 63.4175 36.5216C63.4175 36.0481 63.5057 35.6309 63.6823 35.2697C63.8608 34.9086 64.1096 34.6268 64.4286 34.4241C64.7496 34.2215 65.1247 34.1202 65.554 34.1202C65.8148 34.1202 66.0676 34.1633 66.3124 34.2496C66.5571 34.3359 66.7768 34.4713 66.9714 34.6559C67.166 34.8404 67.3195 35.0802 67.4318 35.3751C67.5442 35.668 67.6003 36.0241 67.6003 36.4434V36.7623H63.926V36.0883H66.7186C66.7186 35.8515 66.6705 35.6419 66.5742 35.4593C66.4779 35.2748 66.3425 35.1293 66.1679 35.023C65.9954 34.9167 65.7928 34.8635 65.5601 34.8635C65.3073 34.8635 65.0866 34.9257 64.898 35.0501C64.7114 35.1724 64.567 35.3329 64.4647 35.5315C64.3644 35.7282 64.3142 35.9418 64.3142 36.1725V36.6991C64.3142 37.0081 64.3684 37.2709 64.4767 37.4876C64.5871 37.7042 64.7405 37.8697 64.9371 37.9841C65.1337 38.0964 65.3634 38.1526 65.6263 38.1526C65.7968 38.1526 65.9523 38.1285 66.0927 38.0804C66.2331 38.0302 66.3545 37.956 66.4568 37.8577C66.5591 37.7594 66.6374 37.638 66.6915 37.4936L67.5432 37.6471C67.4749 37.8978 67.3526 38.1175 67.176 38.3061C67.0015 38.4927 66.7818 38.6381 66.517 38.7424C66.2542 38.8447 65.9543 38.8959 65.6172 38.8959ZM71.1803 38.8026V34.1804H72.08V38.8026H71.1803ZM71.6347 33.4672C71.4782 33.4672 71.3438 33.415 71.2314 33.3107C71.1211 33.2044 71.0659 33.078 71.0659 32.9315C71.0659 32.7831 71.1211 32.6567 71.2314 32.5524C71.3438 32.4461 71.4782 32.3929 71.6347 32.3929C71.7911 32.3929 71.9246 32.4461 72.0349 32.5524C72.1472 32.6567 72.2034 32.7831 72.2034 32.9315C72.2034 33.078 72.1472 33.2044 72.0349 33.3107C71.9246 33.415 71.7911 33.4672 71.6347 33.4672ZM74.3598 36.0582V38.8026H73.46V34.1804H74.3236V34.9327H74.3808C74.4872 34.688 74.6537 34.4913 74.8804 34.3429C75.1091 34.1944 75.397 34.1202 75.744 34.1202C76.059 34.1202 76.3348 34.1864 76.5716 34.3188C76.8083 34.4492 76.9919 34.6438 77.1223 34.9026C77.2527 35.1614 77.3179 35.4814 77.3179 35.8626V38.8026H76.4181V35.9709C76.4181 35.6359 76.3308 35.3741 76.1563 35.1855C75.9817 34.9949 75.742 34.8996 75.4371 34.8996C75.2284 34.8996 75.0429 34.9447 74.8804 35.035C74.7199 35.1253 74.5925 35.2577 74.4982 35.4322C74.4059 35.6048 74.3598 35.8134 74.3598 36.0582ZM81.6749 40.5359C81.5405 40.5359 81.4181 40.5249 81.3078 40.5028C81.1975 40.4828 81.1152 40.4607 81.061 40.4366L81.2777 39.6994C81.4422 39.7435 81.5887 39.7626 81.7171 39.7565C81.8455 39.7505 81.9588 39.7024 82.0571 39.6121C82.1574 39.5218 82.2457 39.3744 82.3219 39.1697L82.4333 38.8628L80.7421 34.1804H81.705L82.8756 37.7674H82.9238L84.0944 34.1804H85.0604L83.1555 39.4195C83.0672 39.6603 82.9549 39.8639 82.8185 40.0304C82.682 40.1989 82.5195 40.3253 82.331 40.4096C82.1424 40.4938 81.9237 40.5359 81.6749 40.5359ZM87.8652 38.8959C87.4319 38.8959 87.0537 38.7966 86.7307 38.598C86.4077 38.3994 86.1569 38.1215 85.9784 37.7644C85.7998 37.4073 85.7106 36.99 85.7106 36.5126C85.7106 36.0331 85.7998 35.6138 85.9784 35.2547C86.1569 34.8956 86.4077 34.6167 86.7307 34.4181C87.0537 34.2195 87.4319 34.1202 87.8652 34.1202C88.2985 34.1202 88.6767 34.2195 88.9997 34.4181C89.3227 34.6167 89.5734 34.8956 89.752 35.2547C89.9305 35.6138 90.0198 36.0331 90.0198 36.5126C90.0198 36.99 89.9305 37.4073 89.752 37.7644C89.5734 38.1215 89.3227 38.3994 88.9997 38.598C88.6767 38.7966 88.2985 38.8959 87.8652 38.8959ZM87.8682 38.1406C88.1491 38.1406 88.3818 38.0663 88.5663 37.9179C88.7509 37.7694 88.8873 37.5718 88.9756 37.3251C89.0659 37.0783 89.111 36.8065 89.111 36.5096C89.111 36.2146 89.0659 35.9438 88.9756 35.6971C88.8873 35.4483 88.7509 35.2487 88.5663 35.0982C88.3818 34.9478 88.1491 34.8725 87.8682 34.8725C87.5853 34.8725 87.3506 34.9478 87.164 35.0982C86.9795 35.2487 86.842 35.4483 86.7518 35.6971C86.6635 35.9438 86.6194 36.2146 86.6194 36.5096C86.6194 36.8065 86.6635 37.0783 86.7518 37.3251C86.842 37.5718 86.9795 37.7694 87.164 37.9179C87.3506 38.0663 87.5853 38.1406 87.8682 38.1406ZM94.1217 36.8857V34.1804H95.0244V38.8026H94.1397V38.0021H94.0916C93.9852 38.2489 93.8147 38.4545 93.58 38.619C93.3473 38.7815 93.0574 38.8628 92.7103 38.8628C92.4134 38.8628 92.1506 38.7976 91.9219 38.6672C91.6952 38.5348 91.5166 38.3392 91.3862 38.0804C91.2578 37.8216 91.1936 37.5016 91.1936 37.1204V34.1804H92.0934V37.0121C92.0934 37.3271 92.1807 37.5778 92.3552 37.7644C92.5298 37.951 92.7565 38.0443 93.0353 38.0443C93.2038 38.0443 93.3713 38.0021 93.5379 37.9179C93.7064 37.8336 93.8458 37.7062 93.9561 37.5357C94.0685 37.3652 94.1237 37.1485 94.1217 36.8857ZM96.4029 38.8026V34.1804H97.2726V34.9146H97.3207C97.405 34.6659 97.5534 34.4703 97.7661 34.3278C97.9807 34.1834 98.2235 34.1112 98.4943 34.1112C98.5505 34.1112 98.6167 34.1132 98.6929 34.1172C98.7712 34.1212 98.8324 34.1262 98.8765 34.1322V34.9929C98.8404 34.9829 98.7762 34.9718 98.6839 34.9598C98.5916 34.9457 98.4993 34.9387 98.4071 34.9387C98.1944 34.9387 98.0048 34.9839 97.8383 35.0741C97.6738 35.1624 97.5434 35.2858 97.4471 35.4443C97.3508 35.6008 97.3027 35.7793 97.3027 35.9799V38.8026H96.4029ZM102.237 40.5359V34.1804H103.115V34.9297H103.191C103.243 34.8334 103.318 34.7221 103.416 34.5957C103.515 34.4693 103.651 34.3589 103.826 34.2646C104 34.1684 104.231 34.1202 104.518 34.1202C104.891 34.1202 105.224 34.2145 105.517 34.4031C105.81 34.5917 106.039 34.8635 106.206 35.2186C106.374 35.5737 106.459 36.001 106.459 36.5005C106.459 37.0001 106.375 37.4284 106.209 37.7855C106.042 38.1406 105.814 38.4144 105.523 38.607C105.232 38.7976 104.9 38.8929 104.527 38.8929C104.246 38.8929 104.016 38.8457 103.838 38.7515C103.661 38.6572 103.523 38.5468 103.422 38.4204C103.322 38.294 103.245 38.1817 103.191 38.0834H103.137V40.5359H102.237ZM103.118 36.4915C103.118 36.8165 103.166 37.1014 103.26 37.3461C103.354 37.5909 103.491 37.7825 103.669 37.9209C103.848 38.0573 104.066 38.1255 104.325 38.1255C104.594 38.1255 104.819 38.0543 104.999 37.9119C105.18 37.7674 105.316 37.5718 105.409 37.3251C105.503 37.0783 105.55 36.8005 105.55 36.4915C105.55 36.1866 105.504 35.9127 105.412 35.67C105.321 35.4272 105.185 35.2356 105.002 35.0952C104.822 34.9548 104.596 34.8846 104.325 34.8846C104.064 34.8846 103.844 34.9518 103.663 35.0862C103.485 35.2206 103.349 35.4082 103.257 35.6489C103.165 35.8896 103.118 36.1705 103.118 36.4915ZM109.583 38.8959C109.15 38.8959 108.772 38.7966 108.449 38.598C108.126 38.3994 107.875 38.1215 107.697 37.7644C107.518 37.4073 107.429 36.99 107.429 36.5126C107.429 36.0331 107.518 35.6138 107.697 35.2547C107.875 34.8956 108.126 34.6167 108.449 34.4181C108.772 34.2195 109.15 34.1202 109.583 34.1202C110.017 34.1202 110.395 34.2195 110.718 34.4181C111.041 34.6167 111.292 34.8956 111.47 35.2547C111.649 35.6138 111.738 36.0331 111.738 36.5126C111.738 36.99 111.649 37.4073 111.47 37.7644C111.292 38.1215 111.041 38.3994 110.718 38.598C110.395 38.7966 110.017 38.8959 109.583 38.8959ZM109.586 38.1406C109.867 38.1406 110.1 38.0663 110.284 37.9179C110.469 37.7694 110.605 37.5718 110.694 37.3251C110.784 37.0783 110.829 36.8065 110.829 36.5096C110.829 36.2146 110.784 35.9438 110.694 35.6971C110.605 35.4483 110.469 35.2487 110.284 35.0982C110.1 34.9478 109.867 34.8725 109.586 34.8725C109.303 34.8725 109.069 34.9478 108.882 35.0982C108.698 35.2487 108.56 35.4483 108.47 35.6971C108.382 35.9438 108.337 36.2146 108.337 36.5096C108.337 36.8065 108.382 37.0783 108.47 37.3251C108.56 37.5718 108.698 37.7694 108.882 37.9179C109.069 38.0663 109.303 38.1406 109.586 38.1406ZM114.859 38.8959C114.411 38.8959 114.026 38.7946 113.703 38.592C113.382 38.3873 113.135 38.1055 112.963 37.7464C112.79 37.3873 112.704 36.976 112.704 36.5126C112.704 36.0431 112.792 35.6288 112.969 35.2697C113.145 34.9086 113.394 34.6268 113.715 34.4241C114.036 34.2215 114.414 34.1202 114.85 34.1202C115.201 34.1202 115.514 34.1854 115.789 34.3158C116.063 34.4442 116.285 34.6248 116.454 34.8575C116.624 35.0902 116.726 35.362 116.758 35.673H115.882C115.834 35.4563 115.723 35.2697 115.551 35.1133C115.38 34.9568 115.152 34.8785 114.865 34.8785C114.614 34.8785 114.394 34.9447 114.206 35.0771C114.019 35.2076 113.874 35.3941 113.769 35.6369C113.665 35.8776 113.613 36.1625 113.613 36.4915C113.613 36.8285 113.664 37.1194 113.766 37.3642C113.869 37.6089 114.013 37.7985 114.2 37.9329C114.388 38.0673 114.61 38.1346 114.865 38.1346C115.035 38.1346 115.19 38.1035 115.328 38.0413C115.469 37.9771 115.586 37.8858 115.68 37.7674C115.777 37.6491 115.844 37.5066 115.882 37.3401H116.758C116.726 37.639 116.628 37.9059 116.466 38.1406C116.303 38.3753 116.086 38.5599 115.813 38.6943C115.542 38.8287 115.224 38.8959 114.859 38.8959ZM118.717 37.2348L118.711 36.1364H118.867L120.709 34.1804H121.786L119.686 36.4072H119.544L118.717 37.2348ZM117.889 38.8026V32.6396H118.789V38.8026H117.889ZM120.808 38.8026L119.153 36.6059L119.773 35.9769L121.913 38.8026H120.808ZM124.578 38.8959C124.122 38.8959 123.73 38.7986 123.401 38.604C123.074 38.4074 122.821 38.1315 122.643 37.7765C122.466 37.4194 122.378 37.0011 122.378 36.5216C122.378 36.0481 122.466 35.6309 122.643 35.2697C122.821 34.9086 123.07 34.6268 123.389 34.4241C123.71 34.2215 124.085 34.1202 124.514 34.1202C124.775 34.1202 125.028 34.1633 125.273 34.2496C125.517 34.3359 125.737 34.4713 125.932 34.6559C126.126 34.8404 126.28 35.0802 126.392 35.3751C126.505 35.668 126.561 36.0241 126.561 36.4434V36.7623H122.886V36.0883H125.679C125.679 35.8515 125.631 35.6419 125.535 35.4593C125.438 35.2748 125.303 35.1293 125.128 35.023C124.956 34.9167 124.753 34.8635 124.52 34.8635C124.268 34.8635 124.047 34.9257 123.858 35.0501C123.672 35.1724 123.527 35.3329 123.425 35.5315C123.325 35.7282 123.275 35.9418 123.275 36.1725V36.6991C123.275 37.0081 123.329 37.2709 123.437 37.4876C123.547 37.7042 123.701 37.8697 123.897 37.9841C124.094 38.0964 124.324 38.1526 124.587 38.1526C124.757 38.1526 124.913 38.1285 125.053 38.0804C125.193 38.0302 125.315 37.956 125.417 37.8577C125.519 37.7594 125.598 37.638 125.652 37.4936L126.504 37.6471C126.435 37.8978 126.313 38.1175 126.136 38.3061C125.962 38.4927 125.742 38.6381 125.477 38.7424C125.215 38.8447 124.915 38.8959 124.578 38.8959ZM129.886 34.1804V34.9026H127.361V34.1804H129.886ZM128.038 33.073H128.938V37.4454C128.938 37.62 128.964 37.7514 129.016 37.8396C129.069 37.9259 129.136 37.9851 129.218 38.0172C129.302 38.0473 129.394 38.0623 129.492 38.0623C129.564 38.0623 129.627 38.0573 129.682 38.0473C129.736 38.0373 129.778 38.0292 129.808 38.0232L129.97 38.7665C129.918 38.7866 129.844 38.8066 129.748 38.8267C129.651 38.8488 129.531 38.8608 129.387 38.8628C129.15 38.8668 128.929 38.8247 128.725 38.7364C128.52 38.6481 128.354 38.5117 128.228 38.3271C128.102 38.1426 128.038 37.9109 128.038 37.632V33.073ZM132.781 36.2447C132.781 37.0011 132.682 37.6962 132.483 38.3302C132.285 38.9641 131.995 39.5489 131.614 40.0846H130.789C130.938 39.8859 131.076 39.6422 131.204 39.3533C131.333 39.0644 131.445 38.7484 131.541 38.4054C131.638 38.0603 131.713 37.7032 131.767 37.3341C131.821 36.965 131.848 36.6018 131.848 36.2447C131.848 35.7693 131.801 35.2868 131.707 34.7973C131.613 34.3078 131.485 33.8534 131.325 33.4341C131.164 33.0148 130.986 32.6728 130.789 32.4079H131.614C131.995 32.9436 132.285 33.5284 132.483 34.1623C132.682 34.7963 132.781 35.4904 132.781 36.2447Z" fill="#171D21"/>
</svg>
