<svg id="Layer_1" data-name="Layer 1" xmlns="http://www.w3.org/2000/svg" xmlns:xlink="http://www.w3.org/1999/xlink" viewBox="0 0 970 250"><defs><style>.cls-1{fill:none;}.cls-2{clip-path:url(#clip-path);}.cls-3{clip-path:url(#clip-path-3);}.cls-4{clip-path:url(#clip-path-4);}.cls-5{clip-path:url(#clip-path-5);}.cls-6{clip-path:url(#clip-path-7);}.cls-7{clip-path:url(#clip-path-8);}.cls-8{clip-path:url(#clip-path-9);}.cls-9{fill:#221e1f;}.cls-10{clip-path:url(#clip-path-10);}.cls-11{clip-path:url(#clip-path-12);}.cls-12{clip-path:url(#clip-path-13);}</style><clipPath id="clip-path"><rect class="cls-1" x="-2970" width="970" height="250"/></clipPath><clipPath id="clip-path-3"><rect class="cls-1" x="-2408.06" y="129.11" width="121.62" height="120.89"/></clipPath><clipPath id="clip-path-4"><rect class="cls-1" x="-35738" y="-32517" width="65535" height="65535"/></clipPath><clipPath id="clip-path-5"><rect class="cls-1" x="-1980" width="970" height="250"/></clipPath><clipPath id="clip-path-7"><rect class="cls-1" x="-1418.06" y="129.11" width="121.62" height="120.89"/></clipPath><clipPath id="clip-path-8"><rect class="cls-1" x="-34748" y="-32517" width="65535" height="65535"/></clipPath><clipPath id="clip-path-9"><rect class="cls-1" width="970" height="250"/></clipPath><clipPath id="clip-path-10"><rect class="cls-1" x="990" width="970" height="250"/></clipPath><clipPath id="clip-path-12"><rect class="cls-1" x="1551.94" y="129.11" width="121.62" height="120.89"/></clipPath><clipPath id="clip-path-13"><rect class="cls-1" x="-31778" y="-32517" width="65535" height="65535"/></clipPath></defs><g class="cls-8"><path class="cls-9" d="M55.06,148.94V110.19H38V99.12H85.74v11.07H68.42v38.75Z"/><path class="cls-9" d="M104,148.94H91.19V99.12H104V119c1.9-3.88,6.09-6.25,11.39-6.25,9.64,0,12.73,6.72,12.73,14.08v22.14H115.31V130.2c0-4.83-1.35-7.36-5.22-7.36-4.35,0-6.09,3.48-6.09,8.78Z"/><path class="cls-9" d="M169.79,137.31c-1.82,8.07-8.3,12.58-17.63,12.58-11.31,0-19.38-6.81-19.38-18S141,112.72,152,112.72c11.78,0,18,8.07,18,17.63v3.56H145.28c.31,4.35,3.48,6.41,7.35,6.41,3.48,0,5.69-1.19,6.88-4Zm-11.94-9.56c-.16-3.17-2.22-5.86-6-5.86-4.11,0-5.93,2.53-6.41,5.86Z"/><path class="cls-9" d="M199.36,148.94h-9.88V99.12h12.81v20.64c1.74-4.19,5.69-7,11.62-7,10.36,0,15.66,8.23,15.66,18.58s-5.3,18.59-15.9,18.59c-5.69,0-10.12-2.77-12.09-7Zm2.93-17.4c0,5.14,2.76,8.46,7.11,8.46,5,0,7.28-3.56,7.28-8.7s-2.3-8.62-7.28-8.62c-4.35,0-7.11,3.33-7.11,8.39Z"/><path class="cls-9" d="M234.55,99.12h13v11.23h-13Zm12.89,14.55v35.27H234.63V113.67Z"/><path class="cls-9" d="M267.21,99.12v49.82H254.4V99.12Z"/><path class="cls-9" d="M287,99.12v49.82h-12.8V99.12Z"/><path class="cls-9" d="M292.83,135.34h13.6v13.6h-13.6Z"/></g></svg>