<svg id="Layer_1" data-name="Layer 1" xmlns="http://www.w3.org/2000/svg" viewBox="0 0 320 100"><path d="M163.39,52c0,.24-.23.34-.47.34h-1.28a1.18,1.18,0,0,1-1.15-.69,33.68,33.68,0,0,1-1.33-3.15c-.61-1.44-1.26-2.32-2.44-2.56a5,5,0,0,0-1-.08,6.1,6.1,0,0,0-.76,0,.21.21,0,0,0-.21.24V49a4.54,4.54,0,0,0,.26,2c.31.6.94.51.94,1,0,.26-.25.36-.54.36h-3.24c-.29,0-.52-.1-.52-.36s.61-.42.93-1a4,4,0,0,0,.27-2V41.52c0-1.26,0-1.62-.53-1.92-.25-.15-.57-.21-.57-.52s.19-.34.51-.34h1.69l2.93,0a5.88,5.88,0,0,1,3.76.92,2.89,2.89,0,0,1,1,2.29,3.28,3.28,0,0,1-.3,1.43,3.52,3.52,0,0,1-2.79,1.84c-.12,0-.15.06-.15.12s0,.09.15.11c1.35.19,1.9,1,2.75,3.06.95,2.26,1.24,2.75,1.67,3C163.14,51.64,163.39,51.72,163.39,52Zm-3.85-9.79c0-2-1.33-2.45-3.27-2.45h-1.16c-.27,0-.38.1-.38.32v4.54c0,.16.09.27.3.27h1.16C157.83,44.86,159.54,44.25,159.54,42.18Z"/><path d="M172.63,50.26c0,.53-1.45,2.26-4,2.26A4.59,4.59,0,0,1,164,47.63c0-2.77,2-5.45,4.92-5.45a3.73,3.73,0,0,1,3.88,3.55c0,1.16-.57,1.33-1.5,1.35h-5.15c-.14,0-.21.06-.21.19v.1c0,2,1.14,3.78,3.15,3.78s2.62-1.29,3.08-1.29A.38.38,0,0,1,172.63,50.26ZM166.05,46c0,.09,0,.11.16.11h3.09c1.11,0,1.6-.22,1.6-1.1a2,2,0,0,0-2.11-1.92,2.92,2.92,0,0,0-2.72,2.7A1.53,1.53,0,0,0,166.05,46Z"/><path d="M180.93,50.64a1.75,1.75,0,0,1-.68,1.06,3.25,3.25,0,0,1-2.17.82,2.43,2.43,0,0,1-2.07-1,3.82,3.82,0,0,1-.53-2.26c0-1.67.13-3.38.13-5.26,0-.14-.05-.19-.19-.19h-1.19c-.14,0-.21-.08-.21-.23V43a.22.22,0,0,1,.19-.23,2.27,2.27,0,0,0,1.48-.87,5.33,5.33,0,0,0,.44-1.52c0-.15.09-.23.24-.23h.78a.2.2,0,0,1,.23.21v2c0,.34.08.43.42.43a9.27,9.27,0,0,0,1,0c.4,0,.93-.09,1.33-.09s.6.09.6.34a2.8,2.8,0,0,1,0,.36c-.08.46-.33.59-.82.59s-.76-.06-1.21-.07-.69,0-1,0c-.15,0-.23.07-.23.22s-.06,2.34-.06,2.91a21.84,21.84,0,0,0,.08,2.2c.13,1.51.76,1.92,1.5,1.92,1,0,1.35-.74,1.71-.74A.33.33,0,0,1,180.93,50.64Z"/><path d="M192.69,51.45c0,.23-.13.36-.51.44a11.69,11.69,0,0,0-1.75.53,1,1,0,0,1-.4.1c-.26,0-.41-.16-.41-.52V50.83a.05.05,0,0,0-.06-.06s-.06,0-.1.09a3.63,3.63,0,0,1-3.07,1.66A3,3,0,0,1,184,51.45a4.09,4.09,0,0,1-.7-2.68V45.58a3.05,3.05,0,0,0-.19-1.54c-.3-.47-1.08-.34-1.08-.83,0-.19.13-.33.51-.4a10.51,10.51,0,0,0,1.71-.51,1,1,0,0,1,.44-.12c.24,0,.41.15.41.5v6.06c0,1.31.61,2.33,2,2.33a2.28,2.28,0,0,0,1.6-.64c.7-.71.93-1.77.93-4.68a3.63,3.63,0,0,0-.19-1.71c-.33-.47-1.09-.34-1.09-.79,0-.21.1-.35.52-.44a9.2,9.2,0,0,0,1.78-.55.94.94,0,0,1,.36-.1c.25,0,.42.17.42.52v6.44a3.12,3.12,0,0,0,.19,1.55C191.88,51.09,192.69,51,192.69,51.45Z"/><path d="M201.19,43.45c0,.46-.15.88-.65.88s-.7-.42-1.27-.42a1.27,1.27,0,0,0-1.08.67c-.46.68-.78,1.57-.78,4.4a4.87,4.87,0,0,0,.23,1.94c.34.68,1,.61,1,1,0,.26-.23.36-.54.36h-3.13c-.31,0-.53-.1-.53-.36s.68-.38,1-1.07a5.29,5.29,0,0,0,.21-1.9v-3.4a2.94,2.94,0,0,0-.24-1.52c-.35-.49-1.09-.42-1.09-.83,0-.21.12-.35.52-.42a7,7,0,0,0,1.55-.51,1.16,1.16,0,0,1,.46-.12c.29,0,.44.19.44.53v1.5s0,.08,0,.08.05-.06.07-.09a3.43,3.43,0,0,1,2.64-2A1.16,1.16,0,0,1,201.19,43.45Z"/><path d="M211.45,49a4.65,4.65,0,0,0,.28,2.07c.33.5.94.57.94.92s-.25.36-.54.36h-3.19c-.28,0-.53-.1-.53-.36s.65-.4,1-1a5,5,0,0,0,.25-2V46c0-1.65-.88-2.37-2-2.37a2.27,2.27,0,0,0-1.63.66c-.72.72-.89,1.75-.89,4.67a4.78,4.78,0,0,0,.26,2c.32.55.93.6.93,1s-.23.36-.51.36h-3.15c-.29,0-.52-.1-.52-.36s.69-.42,1-1a5.4,5.4,0,0,0,.23-2v-3.7a2.15,2.15,0,0,0-.19-1.2c-.3-.45-1.1-.36-1.1-.78,0-.21.09-.34.53-.43a9.71,9.71,0,0,0,1.77-.57.85.85,0,0,1,.36-.1c.24,0,.42.17.42.53v1.12c0,.06,0,.1,0,.1s.06,0,.1-.1a3.7,3.7,0,0,1,3.08-1.65,3,3,0,0,1,2.48,1.18,4,4,0,0,1,.65,2.58Z"/></svg>