<svg id="Layer_1" data-name="Layer 1" xmlns="http://www.w3.org/2000/svg" viewBox="0 0 320 100"><path d="M126.76,40.6c0,.37,0,.75,0,1.13s-.11.57-.53.57c-.78,0-.45-1.54-1.82-2.25a4.22,4.22,0,0,0-2-.28c-.21,0-.24.09-.24.25v9a4.86,4.86,0,0,0,.21,1.88c.34.71,1,.67,1,1.07s-.24.36-.53.36h-3.25c-.28,0-.51-.1-.51-.36,0-.46.68-.35,1-1.11a6,6,0,0,0,.17-1.84V40c0-.14,0-.25-.25-.25a3.71,3.71,0,0,0-2.15.38c-1.14.66-.87,2.15-1.65,2.15-.32,0-.51-.18-.51-.57s0-.78,0-1.13,0-.91,0-1.44c0-.38.23-.55.8-.55s1.58.13,3.25.13h2.81c1.69,0,2.7-.13,3.27-.13s.74.1.78.55S126.74,40.13,126.76,40.6Z"/><path d="M134.53,51.15a.3.3,0,0,1,.32.3A1.46,1.46,0,0,1,132,51s0-.1,0-.1,0,0-.07.08a3.62,3.62,0,0,1-3,1.52c-1.84,0-3-1.14-3-2.45A2.5,2.5,0,0,1,127,48a23,23,0,0,1,3.21-1.36,2.23,2.23,0,0,0,1.6-1.92,1.52,1.52,0,0,0-1.65-1.56A2.66,2.66,0,0,0,128,44.56c-.38.53-.43.87-.85.87s-.53-.44-.53-.93a2.56,2.56,0,0,1,.32-1.39c.51-.66,2-.93,3.13-.93,2.44,0,3.69,1.37,3.69,3.25,0,1.48-.06,3.23-.06,4.75,0,.66.23,1,.61,1ZM131.85,47s0-.08-.06-.08,0,0-.13.08c-.67.51-1.92.84-2.83,1.44a1.9,1.9,0,0,0-1,1.58,1.4,1.4,0,0,0,1.52,1.44,2.31,2.31,0,0,0,2-1.34,6.28,6.28,0,0,0,.4-2.8Z"/><path d="M146.18,52c0,.22-.17.34-.52.34h-3.11c-.38,0-.53-.12-.53-.31,0-.38.55-.32.55-.76a1.74,1.74,0,0,0-.44-.87l-1.58-2.11c-.05-.08-.07-.11-.13-.11s-.09.05-.13.11l-.78,1.16a4.1,4.1,0,0,0-.78,1.58c0,.62.82.49.82,1,0,.22-.21.36-.55.36h-2.68c-.35,0-.57-.12-.57-.34s.3-.38.62-.59A7.29,7.29,0,0,0,138,49.69c.36-.46,1.1-1.45,1.69-2.25a.27.27,0,0,0,.07-.15c0-.06,0-.09-.07-.17l-1.54-2a7.51,7.51,0,0,0-1.62-1.73c-.41-.29-.79-.31-.79-.63s.17-.36.51-.36h3.06c.38,0,.53.11.53.34s-.51.34-.51.71a2,2,0,0,0,.47.93l1.52,2.05c.06.07.1.13.13.13s.08,0,.14-.11c.43-.65.95-1.41,1.27-2a1.51,1.51,0,0,0,.28-.76c0-.57-.79-.53-.79-1,0-.26.17-.36.53-.36h2.68c.34,0,.57.1.57.34s-.33.38-.63.59A6.58,6.58,0,0,0,143.88,45l-1.69,2.26a.27.27,0,0,0-.06.14.28.28,0,0,0,.06.13l1.55,2.05a7.37,7.37,0,0,0,1.58,1.71C145.76,51.62,146.18,51.64,146.18,52Z"/></svg>