<svg id="Layer_1" data-name="Layer 1" xmlns="http://www.w3.org/2000/svg" viewBox="0 0 320 100"><path d="M151.15,20.84a5,5,0,0,0-1.06,1.92l-2.43,6.72a.2.2,0,0,1-.23.16h-1.12a.2.2,0,0,1-.21-.14L143.54,22c0-.05,0-.07-.06-.07s-.06,0-.08.07l-2.79,7.51c-.06.13-.11.17-.25.17h-1.1c-.17,0-.25,0-.28-.17l-2.11-7.07a4.35,4.35,0,0,0-.82-1.73c-.34-.34-.87-.34-.87-.72s.24-.36.6-.36h3.12c.32,0,.51.11.51.34,0,.47-.87.3-.87,1.22a4.93,4.93,0,0,0,.25,1.25l1.44,4.88c0,.06,0,.1.08.1s.05,0,.07-.1l2.85-7.69a.2.2,0,0,1,.21-.14h1a.18.18,0,0,1,.21.14l2.62,7.69c0,.06,0,.12.07.12s.06-.06.08-.12c.19-.51.76-2.16,1.18-3.42a9.38,9.38,0,0,0,.62-2.51c0-1.08-1-.89-1-1.42,0-.25.25-.34.59-.34h2.68c.4,0,.57.11.57.34S151.67,20.31,151.15,20.84Z"/><path d="M161,28.35a.3.3,0,0,1,.32.3,1.44,1.44,0,0,1-1.42,1.06,1.46,1.46,0,0,1-1.45-1.5s0-.09,0-.09,0,0-.07.07a3.59,3.59,0,0,1-3,1.52c-1.84,0-3-1.14-3-2.45a2.48,2.48,0,0,1,1.18-2.07,24.38,24.38,0,0,1,3.21-1.37,2.22,2.22,0,0,0,1.6-1.91,1.51,1.51,0,0,0-1.65-1.56,2.67,2.67,0,0,0-2.21,1.4c-.38.54-.43.88-.85.88s-.53-.44-.53-.93a2.51,2.51,0,0,1,.32-1.39c.51-.67,2.05-.93,3.13-.93,2.44,0,3.69,1.37,3.69,3.25,0,1.48-.06,3.23-.06,4.75,0,.66.23,1,.61,1Zm-2.68-4.2s0-.08-.06-.08-.05,0-.13.08c-.67.51-1.92.83-2.83,1.44a1.9,1.9,0,0,0-.95,1.58,1.4,1.4,0,0,0,1.52,1.44,2.32,2.32,0,0,0,2.05-1.35,6.24,6.24,0,0,0,.4-2.79Z"/><path d="M172.38,19.93c0,.42-.55.4-1,1a7,7,0,0,0-1,1.8c-.48,1.1-2,4.77-2.62,6.35a7.41,7.41,0,0,1-2.64,3.7,2.87,2.87,0,0,1-1.43.42,1.36,1.36,0,0,1-1.5-1.44c0-.48.19-.93.65-.93s.68.79,1.59.79,1.45-1,1.83-1.74a.59.59,0,0,0,.05-.19.58.58,0,0,0,0-.18l-2.79-7.12a4.38,4.38,0,0,0-1-1.8c-.32-.25-.74-.25-.74-.61s.17-.36.59-.36h3.1c.3,0,.49.13.49.34,0,.46-.89.36-.89,1.12a3.2,3.2,0,0,0,.3,1.18l2,4.84c0,.1,0,.12.08.12s0,0,.09-.12l1.35-3.42a8,8,0,0,0,.7-2.35c0-1-.93-.84-.93-1.35,0-.25.23-.36.57-.36h2.64C172.17,19.59,172.38,19.68,172.38,19.93Z"/></svg>