<svg id="Layer_1" data-name="Layer 1" xmlns="http://www.w3.org/2000/svg" viewBox="0 0 320 100"><path d="M20.44,50.92c.34.67,1,.63,1,1s-.25.36-.53.36H17.7c-.28,0-.51-.1-.51-.36s.67-.42,1-1A4.87,4.87,0,0,0,18.39,49V41.54A3.14,3.14,0,0,0,18.2,40a1.08,1.08,0,0,0-.63-.4c-.26-.1-.45-.19-.45-.38s.07-.34.53-.44a8.85,8.85,0,0,0,1.8-.55.9.9,0,0,1,.36-.09c.23,0,.4.15.4.49V49A4.81,4.81,0,0,0,20.44,50.92Z"/><path d="M32.56,47.29a5,5,0,0,1-4.82,5.23c-2.89,0-4.85-2-4.85-5.1a5,5,0,0,1,4.9-5.24C30.81,42.18,32.56,44.42,32.56,47.29Zm-5-4.16c-1.67,0-2.7,1.48-2.7,3.59,0,2.62,1.23,4.81,3.1,4.81s2.69-1.83,2.69-3.69C30.62,45.66,29.66,43.13,27.53,43.13Z"/><path d="M43.3,49.5a2.87,2.87,0,0,0,.13,1.1c.29.51,1.14.42,1.14.83,0,.19-.09.35-.53.44a10.69,10.69,0,0,0-1.71.53.93.93,0,0,1-.44.12c-.24,0-.4-.14-.4-.5V51c0-.1-.05-.16-.11-.16a.17.17,0,0,0-.13.08,4.11,4.11,0,0,1-3.12,1.6c-1.82,0-3.89-1.39-3.89-4.68,0-2.81,1.71-5.66,4.54-5.66a4.65,4.65,0,0,1,2.5.76.27.27,0,0,0,.14.06s.07,0,.07-.1V41.1A1.94,1.94,0,0,0,41.28,40c-.36-.46-1.06-.36-1.06-.78,0-.19.08-.32.53-.42a9.29,9.29,0,0,0,1.73-.53,1.09,1.09,0,0,1,.42-.11c.23,0,.4.15.4.49Zm-1.81-2.25c0-2.62-1.12-4.1-2.71-4.1-2,0-2.68,2.13-2.68,4,0,2.24,1.1,4,2.75,4S41.49,49.61,41.49,47.25Z"/><path d="M53.64,43.93l-.29,0a3.43,3.43,0,0,1,.46,1.75,3.63,3.63,0,0,1-3.63,3.65c-.8,0-1.64,0-1.64.62,0,.38.38.55,1.33.65s1.83.07,2.78.21c1.35.21,2.13,1,2.13,2.05,0,2.07-2.11,3.13-4.89,3.13A5.77,5.77,0,0,1,46.25,55a1.83,1.83,0,0,1-.73-1.42A1.65,1.65,0,0,1,47,52c.28,0,.45.14.45.33s-.32.47-.32,1.06c0,1.24,1.58,1.67,3,1.67,1.77,0,3.1-.66,3.1-1.65,0-.68-.55-1-1.66-1.06-.87-.08-2.07-.08-2.94-.25C47.5,51.87,47,51.22,47,50.52A1.77,1.77,0,0,1,48.15,49c.05,0,.05,0,.05-.06l-.05,0a3.36,3.36,0,0,1-2-3.1A3.65,3.65,0,0,1,50,42.18c1.71,0,2.47.91,2.91.91s.39-.93,1.23-.93a.73.73,0,0,1,.78.8C54.89,43.61,54.43,43.93,53.64,43.93Zm-5.55,1.44c0,1.2.55,3,2,3,1.18,0,1.79-1.07,1.79-2.32s-.61-2.93-2.06-2.93C48.72,43.11,48.09,44.14,48.09,45.37Z"/><path d="M64.83,50.26c0,.53-1.45,2.26-4,2.26a4.59,4.59,0,0,1-4.62-4.89c0-2.77,2-5.45,4.92-5.45A3.73,3.73,0,0,1,65,45.73c0,1.16-.57,1.33-1.5,1.35H58.39c-.14,0-.21.06-.21.19v.1c0,2,1.14,3.78,3.15,3.78s2.62-1.29,3.08-1.29A.38.38,0,0,1,64.83,50.26ZM58.25,46c0,.09,0,.11.16.11H61.5c1.11,0,1.6-.22,1.6-1.1A2,2,0,0,0,61,43.11a2.92,2.92,0,0,0-2.72,2.7A1.53,1.53,0,0,0,58.25,46Z"/></svg>