<svg id="Layer_1" data-name="Layer 1" xmlns="http://www.w3.org/2000/svg" viewBox="0 0 320 100"><path d="M80.71,42.73c0,.42-.55.4-1,1a7.1,7.1,0,0,0-1,1.81c-.47,1.1-2,4.76-2.62,6.34a7.48,7.48,0,0,1-2.64,3.71A3,3,0,0,1,72,56a1.36,1.36,0,0,1-1.5-1.44c0-.48.19-.93.65-.93s.68.8,1.59.8,1.45-1,1.83-1.75a.41.41,0,0,0,.06-.19.53.53,0,0,0,0-.17l-2.8-7.13a4.39,4.39,0,0,0-1-1.8c-.33-.25-.75-.25-.75-.61s.18-.36.59-.36h3.1c.3,0,.49.13.49.34,0,.46-.89.36-.89,1.12A3.27,3.27,0,0,0,73.67,45l2,4.85c0,.09,0,.11.08.11s0,0,.09-.11l1.35-3.42a7.82,7.82,0,0,0,.7-2.36c0-1-.93-.84-.93-1.35,0-.25.23-.36.57-.36h2.64C80.5,42.39,80.71,42.49,80.71,42.73Z"/><path d="M90.82,47.29A5,5,0,0,1,86,52.52c-2.89,0-4.85-2-4.85-5.1a5,5,0,0,1,4.9-5.24C89.07,42.18,90.82,44.42,90.82,47.29Zm-5-4.16c-1.67,0-2.7,1.48-2.7,3.59,0,2.62,1.24,4.81,3.1,4.81s2.7-1.83,2.7-3.69C88.89,45.66,87.92,43.13,85.79,43.13Z"/><path d="M102.85,51.45c0,.23-.13.36-.51.44a11.34,11.34,0,0,0-1.75.53,1,1,0,0,1-.4.1c-.26,0-.42-.16-.42-.52V50.83s0-.06,0-.06-.06,0-.1.09a3.66,3.66,0,0,1-3.08,1.66,3,3,0,0,1-2.37-1.07,4.09,4.09,0,0,1-.7-2.68V45.58A3.05,3.05,0,0,0,93.28,44c-.31-.47-1.09-.34-1.09-.83,0-.19.14-.33.52-.4a10.83,10.83,0,0,0,1.71-.51,1,1,0,0,1,.43-.12c.25,0,.42.15.42.5v6.06c0,1.31.61,2.33,2,2.33a2.24,2.24,0,0,0,1.59-.64c.71-.71.93-1.77.93-4.68A3.63,3.63,0,0,0,99.58,44c-.32-.47-1.08-.34-1.08-.79,0-.21.1-.35.51-.44a9.32,9.32,0,0,0,1.79-.55.89.89,0,0,1,.36-.1c.25,0,.42.17.42.52v6.44a3.12,3.12,0,0,0,.19,1.55C102,51.09,102.85,51,102.85,51.45Z"/><path d="M111.35,43.45c0,.46-.16.88-.65.88s-.7-.42-1.27-.42a1.3,1.3,0,0,0-1.09.67c-.45.68-.77,1.57-.77,4.4a4.91,4.91,0,0,0,.22,1.94c.35.68,1,.61,1,1,0,.26-.23.36-.53.36H105.1c-.31,0-.54-.1-.54-.36s.69-.38,1-1.07a5.53,5.53,0,0,0,.21-1.9v-3.4a2.91,2.91,0,0,0-.25-1.52c-.34-.49-1.08-.42-1.08-.83,0-.21.11-.35.51-.42a7,7,0,0,0,1.56-.51,1.09,1.09,0,0,1,.46-.12c.28,0,.43.19.43.53v1.5s0,.08,0,.08.06-.06.08-.09a3.42,3.42,0,0,1,2.64-2A1.16,1.16,0,0,1,111.35,43.45Z"/></svg>