<svg xmlns="http://www.w3.org/2000/svg" viewBox="0 0 61.45 16.78"><defs><style>.cls-1{fill:#e24621;}.cls-2{fill:#fff;}</style></defs><g id="Layer_2" data-name="Layer 2"><g id="Layer_1-2" data-name="Layer 1"><rect class="cls-1" width="61.45" height="16.78" rx="6.61"/><path class="cls-2" d="M10,5.77h1.13v5.14h3.19v1H10Z"/><path class="cls-2" d="M19.78,10.92v.95H15.21V5.77h4.45v1H16.34V8.3h2.95v.93H16.34v1.69Z"/><path class="cls-2" d="M22.29,6.72h-2v-1h5.18v1h-2v5.15H22.29Z"/><path class="cls-2" d="M27.47,6.05a1.81,1.81,0,0,1-.19.75L26.83,8h-.71l.35-1.34a.65.65,0,0,1-.41-.65.68.68,0,0,1,.7-.71A.69.69,0,0,1,27.47,6.05Z"/><path class="cls-2" d="M28.21,11.22l.39-.88a3.42,3.42,0,0,0,2,.67c.95,0,1.35-.34,1.35-.79,0-1.32-3.63-.45-3.63-2.72,0-1,.79-1.82,2.46-1.82a3.84,3.84,0,0,1,2,.54l-.36.88a3.42,3.42,0,0,0-1.68-.48c-.94,0-1.32.37-1.32.83,0,1.3,3.61.45,3.61,2.69,0,1-.79,1.81-2.46,1.81A3.93,3.93,0,0,1,28.21,11.22Z"/><path class="cls-2" d="M40.78,8.75h1.07v2.43a3.9,3.9,0,0,1-2.39.77,3.14,3.14,0,1,1,0-6.27,3.17,3.17,0,0,1,2.45,1l-.72.7a2.27,2.27,0,0,0-1.68-.7,2.08,2.08,0,0,0-2.21,2.15A2.1,2.1,0,0,0,39.52,11a2.56,2.56,0,0,0,1.26-.31Z"/><path class="cls-2" d="M42.9,8.82A3.29,3.29,0,1,1,46.19,12,3.13,3.13,0,0,1,42.9,8.82Zm5.43,0a2.15,2.15,0,1,0-4.29,0,2.15,2.15,0,0,0,4.29,0Z"/><path class="cls-2" d="M50.37,11.25a.67.67,0,0,1,.71-.67.66.66,0,0,1,.69.67.68.68,0,0,1-.69.68A.69.69,0,0,1,50.37,11.25Zm.06-5.48h1.29L51.5,9.84h-.86Z"/></g></g></svg>