<svg id="Layer_1" data-name="Layer 1" xmlns="http://www.w3.org/2000/svg" xmlns:xlink="http://www.w3.org/1999/xlink" viewBox="0 0 970 250"><defs><style>.cls-1{fill:none;}.cls-2{clip-path:url(#clip-path);}.cls-3{fill:#fff;}</style><clipPath id="clip-path"><rect class="cls-1" width="970" height="250"/></clipPath></defs><title>headline</title><g class="cls-2"><g id="headline"><path class="cls-3" d="M37.64,181a3.6,3.6,0,0,1-3.84,3.75A3.56,3.56,0,0,1,30,181V153.32a3.56,3.56,0,0,1,3.8-3.74,3.57,3.57,0,0,1,3.84,3.74Z"/><path class="cls-3" d="M69.21,181a3.48,3.48,0,0,1-3.69,3.75,3.91,3.91,0,0,1-3.63-2.16l-10-17.87v16.65a3.48,3.48,0,0,1-7,0v-28a3.6,3.6,0,0,1,3.85-3.74,4.22,4.22,0,0,1,3.9,2.42l9.6,17.08V153a3.25,3.25,0,0,1,3.42-3.37A3.33,3.33,0,0,1,69.21,153Z"/><path class="cls-3" d="M76.91,149.84H94.19a3.3,3.3,0,0,1,3.38,3.48,3.16,3.16,0,0,1-3.38,3.38H89.4V181a3.6,3.6,0,0,1-3.85,3.75A3.55,3.55,0,0,1,81.76,181V156.7H76.91a3.26,3.26,0,0,1-2.43-.95C72.43,153.8,73.9,149.53,76.91,149.84Z"/><path class="cls-3" d="M109.53,170.29v7.33h11.39a3.43,3.43,0,0,1,0,6.85H105.63a3.51,3.51,0,0,1-3.74-3.74V153.59a3.51,3.51,0,0,1,3.74-3.75h14.76a3.21,3.21,0,0,1,3.37,3.38,3.3,3.3,0,0,1-3.37,3.48H109.53v6.85h9.33a3.21,3.21,0,0,1,3.32,3.42,3.12,3.12,0,0,1-3.32,3.32Z"/><path class="cls-3" d="M153.54,179.68a2.88,2.88,0,0,1,.21,1.21,4,4,0,0,1-3.95,3.85,3.77,3.77,0,0,1-3.59-2.48l-4.32-10.07h-4.48V181a3.6,3.6,0,0,1-3.85,3.75,3.56,3.56,0,0,1-3.79-3.75v-27.4a3.51,3.51,0,0,1,3.74-3.75h9.07a12.44,12.44,0,0,1,8.59,3,10.22,10.22,0,0,1,3.37,8c0,4.37-1.69,7.53-5.11,9.59Zm-16.13-23.14v9h4.32c3.11,0,5-1.74,5-4.54s-1.9-4.42-5-4.42Z"/><path class="cls-3" d="M168,170.29v7.33h11.39a3.43,3.43,0,0,1,0,6.85H164.13a3.51,3.51,0,0,1-3.74-3.74V153.59a3.52,3.52,0,0,1,3.74-3.75h14.76a3.21,3.21,0,0,1,3.37,3.38,3.3,3.3,0,0,1-3.37,3.48H168v6.85h9.33a3.21,3.21,0,0,1,3.32,3.42,3.12,3.12,0,0,1-3.32,3.32Z"/><path class="cls-3" d="M202.87,158.65a4.46,4.46,0,0,0-4.27-3c-2.48,0-4,1.32-4,3.27,0,1.58,1,2.69,3,3.37l4.53,1.58a16.64,16.64,0,0,1,6.06,3.27c1.85,1.53,2.8,4,2.8,7.07a10,10,0,0,1-3.32,7.8,12.9,12.9,0,0,1-8.86,3c-6.11,0-10.49-2.69-12.12-7.27a3.9,3.9,0,0,1,.47-3.38,3.41,3.41,0,0,1,3.06-1.58c1.74,0,2.95.95,3.58,2.9s2.27,3,4.8,3c3.16,0,4.9-1.47,4.9-3.63,0-1.85-.95-3.06-2.9-3.74l-5.43-2c-5.42-1.95-8-5-8-9.91a9.59,9.59,0,0,1,3.11-7.17,11.66,11.66,0,0,1,8.33-3c5.64,0,9.8,2.58,11.28,6.85a3.57,3.57,0,0,1-3.48,4.9A3.65,3.65,0,0,1,202.87,158.65Z"/><path class="cls-3" d="M216.94,149.84h17.29a3.3,3.3,0,0,1,3.37,3.48,3.15,3.15,0,0,1-3.37,3.38h-4.8V181a3.6,3.6,0,0,1-3.84,3.75,3.56,3.56,0,0,1-3.8-3.75V156.7h-4.85a3.25,3.25,0,0,1-2.42-.95C212.46,153.8,213.94,149.53,216.94,149.84Z"/><path class="cls-3" d="M258.42,171.24V181a3.6,3.6,0,0,1-3.85,3.75,3.55,3.55,0,0,1-3.79-3.75v-27.4a3.51,3.51,0,0,1,3.74-3.75h14.76a3.3,3.3,0,0,1,3.37,3.48,3.21,3.21,0,0,1-3.37,3.38H258.42v7.69h9.27a3.29,3.29,0,0,1,3.38,3.48,3.2,3.2,0,0,1-3.38,3.37Z"/><path class="cls-3" d="M301.53,179.68a2.88,2.88,0,0,1,.21,1.21,4,4,0,0,1-3.95,3.85,3.78,3.78,0,0,1-3.59-2.48l-4.32-10.07H285.4V181a3.6,3.6,0,0,1-3.85,3.75,3.56,3.56,0,0,1-3.79-3.75v-27.4a3.52,3.52,0,0,1,3.74-3.75h9.07a12.44,12.44,0,0,1,8.59,3,10.18,10.18,0,0,1,3.37,8c0,4.37-1.68,7.53-5.11,9.59ZM285.4,156.54v9h4.32c3.11,0,5-1.74,5-4.54s-1.9-4.42-5-4.42Z"/><path class="cls-3" d="M316,170.29v7.33h11.39a3.43,3.43,0,0,1,0,6.85H312.12a3.51,3.51,0,0,1-3.74-3.74V153.59a3.52,3.52,0,0,1,3.74-3.75h14.76a3.21,3.21,0,0,1,3.37,3.38,3.3,3.3,0,0,1-3.37,3.48H316v6.85h9.33a3.21,3.21,0,0,1,3.32,3.42,3.12,3.12,0,0,1-3.32,3.32Z"/><path class="cls-3" d="M343.9,170.29v7.33h11.39a3.43,3.43,0,0,1,0,6.85H340a3.51,3.51,0,0,1-3.74-3.74V153.59a3.52,3.52,0,0,1,3.74-3.75h14.76a3.21,3.21,0,0,1,3.37,3.38,3.3,3.3,0,0,1-3.37,3.48H343.9v6.85h9.33a3.21,3.21,0,0,1,3.32,3.42,3.12,3.12,0,0,1-3.32,3.32Z"/><path class="cls-3" d="M34.78,88.15H45a4.5,4.5,0,0,1,4.78,4.78v35.42h4.55c6-.38,6,10.09,0,9.63H34.55A4.48,4.48,0,0,1,30,133.2c0-2.8,1.82-4.85,4.55-4.85H38.8V97.93h-4a4.39,4.39,0,0,1-3.41-1.36C28.48,93.84,30.46,87.69,34.78,88.15Z"/><path class="cls-3" d="M98.34,122.58c0,4.93-1.52,8.88-4.63,11.76s-7.2,4.4-12.29,4.4-9.1-1.44-12.21-4.4-4.7-6.83-4.7-11.76v-19c0-10.09,6-16.16,16.91-16.16q7.64,0,12.29,4.32c3.11,3,4.63,6.91,4.63,11.84Zm-22.83-.22c0,4,2.2,6.52,5.91,6.52s5.92-2.5,5.92-6.52V103.77c0-4-2.2-6.52-5.92-6.52s-5.91,2.5-5.91,6.52Z"/><path class="cls-3" d="M140.2,122.58c0,4.93-1.51,8.88-4.62,11.76s-7.21,4.4-12.29,4.4-9.1-1.44-12.21-4.4-4.7-6.83-4.7-11.76v-19c0-10.09,6-16.16,16.91-16.16q7.62,0,12.29,4.32c3.11,3,4.62,6.91,4.62,11.84Zm-22.83-.22c0,4,2.2,6.52,5.92,6.52s5.92-2.5,5.92-6.52V103.77c0-4-2.2-6.52-5.92-6.52s-5.92,2.5-5.92,6.52Z"/><path class="cls-3" d="M182.07,122.58c0,4.93-1.52,8.88-4.63,11.76s-7.2,4.4-12.28,4.4-9.11-1.44-12.22-4.4-4.7-6.83-4.7-11.76v-19c0-10.09,6-16.16,16.92-16.16q7.62,0,12.28,4.32c3.11,3,4.63,6.91,4.63,11.84Zm-22.83-.22c0,4,2.2,6.52,5.92,6.52s5.91-2.5,5.91-6.52V103.77c0-4-2.2-6.52-5.91-6.52s-5.92,2.5-5.92,6.52Z"/><path class="cls-3" d="M223.55,88.15c11.61,0,18.44,6.6,18.44,17.29v15.25c0,10.69-6.83,17.29-18.44,17.29H211.11a5,5,0,0,1-5.38-5.38V93.53a5,5,0,0,1,5.38-5.38ZM216.73,98v30.11h6.82c4.78,0,7.44-2.81,7.44-7.66V105.67c0-4.85-2.66-7.66-7.44-7.66Z"/><path class="cls-3" d="M285.06,130.85a6.47,6.47,0,0,1,.31,1.9c0,3.26-2.05,5.61-5.08,5.61-2.81,0-4.63-1.44-5.46-4.25l-1.52-5.31H258.14l-1.44,5.39a5.41,5.41,0,0,1-5.39,4.17c-3,0-4.7-2.2-4.7-5.23a4.77,4.77,0,0,1,.3-1.67l11.83-38c1.14-3.42,3.8-5.69,7.36-5.69s6.22,2.27,7.36,5.69ZM265.72,101.5l-5,18.13h10.09Z"/><path class="cls-3" d="M308.88,117.81V133a5.18,5.18,0,0,1-5.54,5.38,5.11,5.11,0,0,1-5.46-5.38V118L286.2,95.28a4.47,4.47,0,0,1-.53-2.2,5.21,5.21,0,0,1,5.23-5.31,4.76,4.76,0,0,1,4.63,2.88l8.12,16.69,8.11-16.92a4.53,4.53,0,0,1,4.48-2.65,5,5,0,0,1,5,5,3.84,3.84,0,0,1-.53,2.12Z"/><path class="cls-3" d="M348.32,100.82q-1.94-4.33-6.14-4.33c-3.57,0-5.77,1.9-5.77,4.7,0,2.28,1.44,3.87,4.32,4.86l6.53,2.27A24.09,24.09,0,0,1,356,113c2.65,2.2,4,5.69,4,10.16a14.4,14.4,0,0,1-4.78,11.23q-4.89,4.32-12.74,4.32c-8.8,0-15.1-3.87-17.45-10.47a5.56,5.56,0,0,1,.69-4.85,4.85,4.85,0,0,1,4.39-2.28c2.51,0,4.25,1.37,5.16,4.17s3.26,4.33,6.91,4.33c4.55,0,7.05-2.13,7.05-5.24,0-2.65-1.37-4.39-4.17-5.38l-7.82-2.81c-7.81-2.8-11.52-7.2-11.52-14.26a13.75,13.75,0,0,1,4.47-10.31c3-2.81,7-4.25,12-4.25,8.11,0,14.1,3.72,16.23,9.86a5.13,5.13,0,0,1-5,7A5.23,5.23,0,0,1,348.32,100.82Z"/><path class="cls-3" d="M40,69.5c-.12,2.65-2.07,4.31-4.95,4.31a5,5,0,0,1-3.63-1.33A4.74,4.74,0,0,1,30,68.9v-6A4.64,4.64,0,0,1,35,58c2.84,0,4.78,1.64,4.95,4.24a.82.82,0,0,1-.87.91c-.52,0-.8-.23-.84-.7A2.93,2.93,0,0,0,35,59.58a3.05,3.05,0,0,0-3.25,3.25v6.11A3.06,3.06,0,0,0,35,72.2a2.94,2.94,0,0,0,3.24-2.91.73.73,0,0,1,.84-.77A.87.87,0,0,1,40,69.5Z"/><path class="cls-3" d="M50.37,69.36A4.15,4.15,0,0,1,46,73.81a4.13,4.13,0,0,1-4.36-4.45v-3A4.14,4.14,0,0,1,46,61.89a4.15,4.15,0,0,1,4.38,4.45Zm-7,.14a2.66,2.66,0,1,0,5.3,0V66.23a2.66,2.66,0,1,0-5.3,0Z"/><path class="cls-3" d="M54,63.46a3.48,3.48,0,0,1,3.07-1.57A3.4,3.4,0,0,1,60.5,64a3.43,3.43,0,0,1,3.35-2.06c2.44,0,3.89,1.6,3.89,4.2v6.76a.87.87,0,0,1-1.73,0V66.06a2.4,2.4,0,0,0-2.46-2.64,2.57,2.57,0,0,0-2.63,2.69v6.74c.12,1.1-1.8,1.1-1.71,0V66.06a2.39,2.39,0,0,0-2.45-2.64,2.58,2.58,0,0,0-2.63,2.74v6.69c.12,1.1-1.8,1.1-1.71,0V62.78c0-.51.24-.77.73-.77a.65.65,0,0,1,.7.61Z"/><path class="cls-3" d="M78.18,70.58c-.21,2-1.83,3.23-4.17,3.23a4,4,0,0,1-4.36-4.26V66.34A4.14,4.14,0,0,1,74,61.89a4.09,4.09,0,0,1,4.24,4.45v.89a.79.79,0,0,1-.85.85H71.34v1.64A2.55,2.55,0,0,0,74,72.41a2.45,2.45,0,0,0,2.67-2.13.68.68,0,0,1,.73-.64A.76.76,0,0,1,78.18,70.58Zm-6.84-3.84h5.29v-.56a2.65,2.65,0,1,0-5.29,0Z"/><path class="cls-3" d="M84.28,72.85V58.45c-.09-1.1,1.83-1.1,1.71,0v4.83a3.6,3.6,0,0,1,3-1.39c2.46,0,3.93,1.6,3.93,4.2v6.76c.1,1.1-1.82,1.1-1.71,0V66.06a2.43,2.43,0,0,0-2.53-2.64A2.63,2.63,0,0,0,86,66.25v6.6a.86.86,0,0,1-1.71,0Z"/><path class="cls-3" d="M103.62,69.36a4.37,4.37,0,1,1-8.73,0v-3a4.37,4.37,0,1,1,8.73,0Zm-7,.14a2.65,2.65,0,1,0,5.29,0V66.23a2.65,2.65,0,1,0-5.29,0Z"/><path class="cls-3" d="M107.25,63.46a3.46,3.46,0,0,1,3.06-1.57A3.42,3.42,0,0,1,113.76,64a3.42,3.42,0,0,1,3.34-2.06c2.44,0,3.89,1.6,3.89,4.2v6.76a.87.87,0,0,1-1.73,0V66.06a2.4,2.4,0,0,0-2.46-2.64,2.56,2.56,0,0,0-2.62,2.69v6.74c.11,1.1-1.81,1.1-1.71,0V66.06A2.4,2.4,0,0,0,110,63.42a2.57,2.57,0,0,0-2.62,2.74v6.69c.11,1.1-1.81,1.1-1.71,0V62.78c0-.51.23-.77.72-.77a.66.66,0,0,1,.71.61Z"/><path class="cls-3" d="M131.43,70.58c-.21,2-1.83,3.23-4.17,3.23a4,4,0,0,1-4.35-4.26V66.34a4.3,4.3,0,1,1,8.59,0v.89a.79.79,0,0,1-.84.85h-6.07v1.64a2.55,2.55,0,0,0,2.69,2.69A2.44,2.44,0,0,0,130,70.28a.68.68,0,0,1,.73-.64A.76.76,0,0,1,131.43,70.58Zm-6.84-3.84h5.29v-.56a2.65,2.65,0,1,0-5.29,0Z"/><path class="cls-3" d="M136.55,62.2h1.71V59.81a.87.87,0,0,1,1.73,0V62.2h1.71c.92-.12.92,1.52,0,1.45H140v9.2a.87.87,0,0,1-1.73,0v-9.2h-1.71a.66.66,0,0,1-.49-.19A.74.74,0,0,1,136.55,62.2Z"/><path class="cls-3" d="M151.82,69.36a4.37,4.37,0,1,1-8.74,0v-3a4.37,4.37,0,1,1,8.74,0Zm-7,.14a2.66,2.66,0,1,0,5.3,0V66.23a2.66,2.66,0,1,0-5.3,0Z"/><path class="cls-3" d="M166.14,70.42c-.26,2.08-1.89,3.39-4.24,3.39a4.13,4.13,0,0,1-4.37-4.45v-3a4.14,4.14,0,0,1,4.37-4.45c2.32,0,4,1.31,4.2,3.28a.78.78,0,0,1-.78,1,.7.7,0,0,1-.79-.65,2.41,2.41,0,0,0-2.63-2.09,2.57,2.57,0,0,0-2.67,2.84V69.5a2.57,2.57,0,0,0,2.67,2.84,2.4,2.4,0,0,0,2.65-2.18.75.75,0,0,1,.8-.68A.81.81,0,0,1,166.14,70.42Z"/><path class="cls-3" d="M176.42,69.36a4.37,4.37,0,1,1-8.73,0v-3a4.37,4.37,0,1,1,8.73,0Zm-7,.14a2.66,2.66,0,1,0,5.3,0V66.23a2.66,2.66,0,1,0-5.3,0Z"/><path class="cls-3" d="M180,63.46a3.48,3.48,0,0,1,3.07-1.57A3.4,3.4,0,0,1,186.55,64a3.43,3.43,0,0,1,3.35-2.06c2.44,0,3.89,1.6,3.89,4.2v6.76a.87.87,0,0,1-1.73,0V66.06a2.4,2.4,0,0,0-2.46-2.64A2.56,2.56,0,0,0,187,66.11v6.74c.11,1.1-1.81,1.1-1.71,0V66.06a2.4,2.4,0,0,0-2.46-2.64,2.57,2.57,0,0,0-2.62,2.74v6.69c.11,1.1-1.81,1.1-1.71,0V62.78c0-.51.23-.77.72-.77a.67.67,0,0,1,.71.61Z"/><path class="cls-3" d="M195.61,62.2h1.26v-.56c0-2.53,1.36-3.91,3.82-3.91h.42a.69.69,0,0,1,.73.75c0,.49-.23.72-.73.72h-.44c-1.38,0-2.06.77-2.06,2.32v.68H201a.73.73,0,0,1,0,1.45h-2.36v9.2a.87.87,0,0,1-1.74,0v-9.2h-1.26a.61.61,0,0,1-.49-.21A.73.73,0,0,1,195.61,62.2Z"/><path class="cls-3" d="M211,69.36a4.37,4.37,0,1,1-8.73,0v-3a4.37,4.37,0,1,1,8.73,0Zm-7,.14a2.66,2.66,0,1,0,5.3,0V66.23a2.66,2.66,0,1,0-5.3,0Z"/><path class="cls-3" d="M214.69,63.58a3.22,3.22,0,0,1,2.92-1.64c1-.09,1,1.69.07,1.57a2.71,2.71,0,0,0-2.87,2.86v6.48c.11,1.1-1.81,1.1-1.71,0V62.78c0-.51.23-.77.72-.77a.65.65,0,0,1,.7.61Z"/><path class="cls-3" d="M219,62.2h1.71V59.81a.87.87,0,0,1,1.73,0V62.2h1.71c.92-.12.92,1.52,0,1.45h-1.71v9.2a.87.87,0,0,1-1.73,0v-9.2H219a.66.66,0,0,1-.49-.19A.74.74,0,0,1,219,62.2Z"/></g></g></svg>