<svg id="Layer_1" data-name="Layer 1" xmlns="http://www.w3.org/2000/svg" xmlns:xlink="http://www.w3.org/1999/xlink" viewBox="0 0 970 250"><defs><style>.cls-1{fill:none;}.cls-2{clip-path:url(#clip-path);}.cls-3{fill:#fff;}</style><clipPath id="clip-path"><rect class="cls-1" width="970" height="250"/></clipPath></defs><title>subheadline</title><g class="cls-2"><g id="subheadline"><path class="cls-3" d="M429.06,150.62a6.31,6.31,0,0,1-1.91,4.79,7.77,7.77,0,0,1-10,0,6.3,6.3,0,0,1-1.9-4.79V143c0-4.08,2.57-6.6,6.87-6.6a6.94,6.94,0,0,1,5,1.78,6.38,6.38,0,0,1,1.91,4.82Zm-10.62,0a3.71,3.71,0,1,0,7.42,0V143a3.71,3.71,0,1,0-7.42,0Z"/><path class="cls-3" d="M435.66,143.5a4.61,4.61,0,0,1,3.92-1.9c3.29,0,5.07,2.18,5.07,5.52v8.44c.21,2-3.23,2-3,0v-8.31a2.68,2.68,0,0,0-2.79-3,2.87,2.87,0,0,0-2.92,3.1v8.19c.19,2-3.25,2-3.07,0V143.19c0-.95.46-1.44,1.38-1.44s1.23.34,1.32,1Z"/><path class="cls-3" d="M468.68,155.53c.18,2-3.38,2-3.19,0v-7.46h-7.12v7.46a1.53,1.53,0,0,1-1.63,1.54,1.46,1.46,0,0,1-1.54-1.54v-17.4c-.21-2,3.35-2,3.17,0v7.09h7.12v-7.09a1.47,1.47,0,0,1,1.56-1.53,1.53,1.53,0,0,1,1.63,1.53Z"/><path class="cls-3" d="M486.11,154.92a1.41,1.41,0,0,1,.12.55,1.65,1.65,0,0,1-1.62,1.6,1.49,1.49,0,0,1-1.48-1l-3-6.81a2,2,0,0,1-.49,0h-3.28v6.26c.18,2-3.38,2-3.16,0V138.28a1.41,1.41,0,0,1,1.53-1.53h5.13a7.22,7.22,0,0,1,5,1.69,5.7,5.7,0,0,1,1.9,4.48,5.85,5.85,0,0,1-3.46,5.58Zm-9.79-15.38v7h3.22c2.43,0,3.93-1.38,3.93-3.56s-1.5-3.41-3.93-3.41Z"/><path class="cls-3" d="M498.39,155.47a2.16,2.16,0,0,1-4.15,0l-4.91-16.66a2.57,2.57,0,0,1-.09-.59,1.61,1.61,0,0,1,3.16-.43l4,14.43,4-14.46a1.58,1.58,0,0,1,1.44-1.16,1.55,1.55,0,0,1,1.57,1.53,1.9,1.9,0,0,1-.09.49Z"/><path class="cls-3" d="M514.44,142.86l3.25,10.34L521,142.89a1.41,1.41,0,0,1,1.42-1.14,1.45,1.45,0,0,1,1.38,1.93l-4.14,12a2.12,2.12,0,0,1-4.06,0l-4.08-11.78a1.53,1.53,0,0,1,1.41-2.12A1.46,1.46,0,0,1,514.44,142.86Z"/><path class="cls-3" d="M537.58,153.41c-.4,2.31-2.61,3.81-5.46,3.81-3.6,0-6-2.24-6-5.8v-3.87a5.55,5.55,0,0,1,5.89-6c3.44,0,5.77,2.36,5.77,6v.86a1.4,1.4,0,0,1-1.53,1.51h-7.12v1.81a2.82,2.82,0,0,0,3,3,2.86,2.86,0,0,0,2.94-2.11,1.28,1.28,0,0,1,1.26-1C537.24,151.63,537.79,152.34,537.58,153.41Zm-8.41-5.67h5.74v-.56a2.88,2.88,0,1,0-5.74,0Z"/><path class="cls-3" d="M543.93,143.5a4.63,4.63,0,0,1,3.93-1.9c3.28,0,5.06,2.18,5.06,5.52v8.44c.22,2-3.22,2-3,0v-8.31a2.68,2.68,0,0,0-2.79-3,2.87,2.87,0,0,0-2.91,3.1v8.19c.18,2-3.26,2-3.07,0V143.19c0-.95.46-1.44,1.38-1.44s1.23.34,1.32,1Z"/><path class="cls-3" d="M556.54,142h1.75v-2.77c-.21-2,3.23-2,3,0V142h1.75c1.66-.22,1.66,2.73,0,2.54h-1.75v11c.19,2-3.25,2-3,0v-11h-1.75a1.27,1.27,0,0,1-.89-.33C555,143.53,555.41,141.9,556.54,142Z"/><path class="cls-3" d="M567.29,136.44a1.82,1.82,0,1,1,2.57,2.58,1.82,1.82,0,0,1-2.57-2.58Zm2.82,6.82v12.3c.18,2-3.25,2-3.07,0v-12.3a1.49,1.49,0,0,1,.43-1.11C568.36,141.29,570.23,141.87,570.11,143.26Z"/><path class="cls-3" d="M577,137.49v18.07c.19,2-3.25,2-3,0V137.49a1.49,1.49,0,0,1,.43-1.11A1.55,1.55,0,0,1,577,137.49Z"/><path class="cls-3" d="M589.54,155.35a4.38,4.38,0,0,1-3.84,1.87c-3.28,0-5.16-2.24-5.16-5.71v-4.2c0-3.47,1.88-5.71,5.16-5.71a4.46,4.46,0,0,1,3.84,1.84l.12-.71a1.31,1.31,0,0,1,1.32-1c.92,0,1.38.49,1.38,1.44v12.43a1.33,1.33,0,0,1-1.38,1.45c-.77,0-1.23-.34-1.32-1Zm-3.16-.8a2.81,2.81,0,0,0,2.14-.89,3.23,3.23,0,0,0,.8-2.24v-4a2.9,2.9,0,0,0-2.94-3.1,2.69,2.69,0,0,0-2.77,3v4.32a3.1,3.1,0,0,0,.74,2.15A2.49,2.49,0,0,0,586.38,154.55Z"/><path class="cls-3" d="M596.32,142h1.75v-2.77c-.22-2,3.22-2,3,0V142h1.75c1.65-.22,1.65,2.73,0,2.54h-1.75v11c.18,2-3.26,2-3,0v-11h-1.75a1.23,1.23,0,0,1-.89-.33C594.72,143.53,595.18,141.9,596.32,142Z"/><path class="cls-3" d="M607.06,136.44a1.82,1.82,0,0,1,2.58,2.58,1.82,1.82,0,1,1-2.58-2.58Zm2.82,6.82v12.3c.19,2-3.25,2-3.07,0v-12.3a1.53,1.53,0,0,1,.43-1.11C608.13,141.29,610,141.87,609.88,143.26Z"/><path class="cls-3" d="M625.11,151.27a6,6,0,0,1-11.91,0v-3.72a6,6,0,0,1,11.91,0Zm-8.84.24a2.89,2.89,0,1,0,5.77,0v-4.2a2.89,2.89,0,1,0-5.77,0Z"/><path class="cls-3" d="M631.28,143.5a4.61,4.61,0,0,1,3.92-1.9c3.29,0,5.07,2.18,5.07,5.52v8.44c.21,2-3.23,2-3,0v-8.31a2.68,2.68,0,0,0-2.79-3,2.87,2.87,0,0,0-2.92,3.1v8.19c.19,2-3.25,2-3.07,0V143.19c0-.95.46-1.44,1.38-1.44.77,0,1.23.34,1.32,1Z"/><path class="cls-3" d="M424,182.39a4.37,4.37,0,0,1-3.83,1.87c-3.29,0-5.16-2.24-5.16-5.71v-4.2c0-3.47,1.87-5.71,5.16-5.71a4.45,4.45,0,0,1,3.83,1.84l.12-.71a1.32,1.32,0,0,1,1.32-1,1.25,1.25,0,0,1,1.39,1.44v12.43a1.33,1.33,0,0,1-1.39,1.45,1.16,1.16,0,0,1-1.32-1Zm-3.16-.8a2.83,2.83,0,0,0,2.15-.89,3.28,3.28,0,0,0,.8-2.24v-4.05a2.9,2.9,0,0,0-2.95-3.1,2.69,2.69,0,0,0-2.76,3v4.32a3.06,3.06,0,0,0,.74,2.15A2.48,2.48,0,0,0,420.83,181.59Z"/><path class="cls-3" d="M433.54,170.54a4.63,4.63,0,0,1,3.93-1.9c3.28,0,5.06,2.18,5.06,5.52v8.44c.21,2-3.22,2-3,0v-8.31a2.68,2.68,0,0,0-2.79-3,2.87,2.87,0,0,0-2.92,3.1v8.19c.19,2-3.25,2-3.07,0V170.23c0-.95.46-1.44,1.38-1.44s1.23.34,1.32,1Z"/><path class="cls-3" d="M457.66,182.66a1.33,1.33,0,0,1-1.38,1.45,1.3,1.3,0,0,1-1.32-1l-.12-.73a4.38,4.38,0,0,1-3.84,1.87c-3.28,0-5.16-2.24-5.16-5.71v-4.2c0-3.47,1.88-5.71,5.16-5.71a4.48,4.48,0,0,1,3.62,1.59v-5.71c-.18-2,3.26-2,3,0Zm-6-1.07a2.81,2.81,0,0,0,2.14-.89,3.23,3.23,0,0,0,.8-2.24v-4.05a2.9,2.9,0,0,0-2.94-3.1,2.69,2.69,0,0,0-2.77,3v4.32a3.1,3.1,0,0,0,.74,2.15A2.49,2.49,0,0,0,451.68,181.59Z"/><path class="cls-3" d="M476.5,182.39a4.36,4.36,0,0,1-3.83,1.87c-3.29,0-5.16-2.24-5.16-5.71v-4.2c0-3.47,1.87-5.71,5.16-5.71a4.44,4.44,0,0,1,3.83,1.84l.13-.71a1.31,1.31,0,0,1,1.32-1c.92,0,1.38.49,1.38,1.44v12.43a1.33,1.33,0,0,1-1.38,1.45c-.77,0-1.23-.34-1.32-1Zm-3.16-.8a2.83,2.83,0,0,0,2.15-.89,3.28,3.28,0,0,0,.8-2.24v-4.05a2.9,2.9,0,0,0-3-3.1,2.69,2.69,0,0,0-2.76,3v4.32a3.1,3.1,0,0,0,.74,2.15A2.48,2.48,0,0,0,473.34,181.59Z"/><path class="cls-3" d="M483.41,163.48a1.83,1.83,0,0,1,2.58,0,1.85,1.85,0,0,1,0,2.58,1.82,1.82,0,0,1-2.58-2.58Zm2.82,6.81V182.6c.19,2-3.25,2-3.07,0V170.29a1.52,1.52,0,0,1,.43-1.1C484.48,168.33,486.36,168.91,486.23,170.29Z"/><path class="cls-3" d="M492.92,170.72a3.84,3.84,0,0,1,3.35-2,1.38,1.38,0,0,1,0,2.76,3.08,3.08,0,0,0-3.16,3.16v7.95c.18,2-3.26,2-3.07,0V170.23c0-.95.46-1.44,1.38-1.44s1.23.34,1.32,1Z"/><path class="cls-3" d="M517.48,180.05c-.49,2.61-2.67,4.21-5.65,4.21-3.65,0-6-2.3-6-5.95v-3.72a5.55,5.55,0,0,1,6-6c2.91,0,5.12,1.56,5.61,3.9a1.44,1.44,0,0,1-1.35,1.9,1.37,1.37,0,0,1-1.41-1,2.92,2.92,0,0,0-5.74.95v4.2a2.82,2.82,0,0,0,2.95,3.1,2.75,2.75,0,0,0,2.88-2.3,1.28,1.28,0,0,1,1.39-1.08A1.38,1.38,0,0,1,517.48,180.05Z"/><path class="cls-3" d="M532.33,178.31a6,6,0,0,1-11.91,0v-3.72a6,6,0,0,1,11.91,0Zm-8.84.24a2.89,2.89,0,1,0,5.77,0v-4.2a2.89,2.89,0,1,0-5.77,0Z"/><path class="cls-3" d="M538.5,170.54a4.63,4.63,0,0,1,3.93-1.9c3.28,0,5.06,2.18,5.06,5.52v8.44c.22,2-3.22,2-3,0v-8.31a2.68,2.68,0,0,0-2.79-3,2.87,2.87,0,0,0-2.92,3.1v8.19c.19,2-3.25,2-3.07,0V170.23a1.26,1.26,0,0,1,1.39-1.44,1.16,1.16,0,0,1,1.32,1Z"/><path class="cls-3" d="M562.62,182.66a1.38,1.38,0,0,1-2.7.46l-.12-.73a4.38,4.38,0,0,1-3.84,1.87c-3.28,0-5.15-2.24-5.15-5.71v-4.2c0-3.47,1.87-5.71,5.15-5.71a4.47,4.47,0,0,1,3.62,1.59v-5.71c-.18-2,3.26-2,3,0Zm-6-1.07a2.85,2.85,0,0,0,2.15-.89,3.28,3.28,0,0,0,.79-2.24v-4.05a2.89,2.89,0,0,0-2.94-3.1,2.69,2.69,0,0,0-2.77,3v4.32a3.1,3.1,0,0,0,.74,2.15A2.5,2.5,0,0,0,556.64,181.59Z"/><path class="cls-3" d="M566.73,163.48a1.82,1.82,0,1,1,0,2.58A1.85,1.85,0,0,1,566.73,163.48Zm2.83,6.81V182.6c.18,2-3.26,2-3.07,0V170.29a1.48,1.48,0,0,1,.43-1.1C567.81,168.33,569.68,168.91,569.56,170.29Z"/><path class="cls-3" d="M573.49,169.07h1.75V166.3c-.22-2,3.22-2,3,0v2.77H580c1.66-.22,1.66,2.73,0,2.54h-1.75v11c.19,2-3.25,2-3,0v-11h-1.75a1.23,1.23,0,0,1-.89-.33C571.89,170.57,572.35,168.94,573.49,169.07Z"/><path class="cls-3" d="M584.23,163.48a1.83,1.83,0,0,1,2.58,0,1.85,1.85,0,0,1,0,2.58,1.82,1.82,0,0,1-2.58-2.58Zm2.82,6.81V182.6c.18,2-3.25,2-3.07,0V170.29a1.48,1.48,0,0,1,.43-1.1C585.3,168.33,587.17,168.91,587.05,170.29Z"/><path class="cls-3" d="M602.27,178.31a5.95,5.95,0,1,1-11.9,0v-3.72a5.95,5.95,0,1,1,11.9,0Zm-8.84.24a2.9,2.9,0,1,0,5.78,0v-4.2a2.9,2.9,0,1,0-5.78,0Z"/><path class="cls-3" d="M608.44,170.54a4.63,4.63,0,0,1,3.93-1.9c3.29,0,5.07,2.18,5.07,5.52v8.44c.21,2-3.23,2-3,0v-8.31a2.69,2.69,0,0,0-2.8-3,2.87,2.87,0,0,0-2.91,3.1v8.19c.18,2-3.26,2-3.07,0V170.23c0-.95.46-1.44,1.38-1.44s1.23.34,1.32,1Z"/><path class="cls-3" d="M621.39,163.48a1.82,1.82,0,1,1,0,2.58A1.85,1.85,0,0,1,621.39,163.48Zm2.83,6.81V182.6c.18,2-3.26,2-3.07,0V170.29a1.48,1.48,0,0,1,.43-1.1C622.47,168.33,624.34,168.91,624.22,170.29Z"/><path class="cls-3" d="M630.88,170.54a4.63,4.63,0,0,1,3.92-1.9c3.29,0,5.07,2.18,5.07,5.52v8.44c.21,2-3.22,2-3,0v-8.31a2.68,2.68,0,0,0-2.79-3,2.87,2.87,0,0,0-2.92,3.1v8.19c.19,2-3.25,2-3.07,0V170.23c0-.95.46-1.44,1.38-1.44s1.23.34,1.32,1Z"/><path class="cls-3" d="M652.3,169.8a1.17,1.17,0,0,1,1.32-1c.92,0,1.38.49,1.38,1.44V184.6c0,3.34-2.3,5.4-5.83,5.4-2.73,0-4.54-1-5.4-2.92A1.4,1.4,0,0,1,645,185a1.44,1.44,0,0,1,1.29.85,2.85,2.85,0,0,0,1.38,1.36,3,3,0,0,0,1.42.3,2.61,2.61,0,0,0,2.91-2.79v-2.61a4.52,4.52,0,0,1-3.62,1.57c-3.28,0-5.16-2.24-5.16-5.71v-3.62c0-3.47,1.88-5.71,5.16-5.71a4.46,4.46,0,0,1,3.84,1.84ZM649,181a2.83,2.83,0,0,0,2.15-.89,3.22,3.22,0,0,0,.8-2.21v-3.5a2.9,2.9,0,0,0-3-3.1,2.69,2.69,0,0,0-2.76,3V178a3.1,3.1,0,0,0,.74,2.15A2.48,2.48,0,0,0,649,181Z"/><g id="icons"><path class="cls-3" d="M520.57,97.21l-19.3-18.92a1.1,1.1,0,0,0-1.54,0l-19.3,18.92-2.74-2.54L500.5,72.53l11.18,10.85,6.24,6.05h0l5.39,5.24Zm-4.36,21.45H484.79V96l2.73-2.68H505a1.1,1.1,0,0,0,0-2.19h-15.2L500.5,80.6,516.21,96Zm-2.68-40.85h4.06v8.25l-4.06-3.93ZM525.67,93.9l-5.89-5.72V76.71a1.09,1.09,0,0,0-1.1-1.09h-6.24a1.09,1.09,0,0,0-1.1,1.09V80l-10.08-9.78a1.09,1.09,0,0,0-1.52,0L475.33,93.9a1.1,1.1,0,0,0-.33.79,1.08,1.08,0,0,0,.35.79l4.35,4a1.1,1.1,0,0,0,1.52,0l1.38-1.35v21.6a1.1,1.1,0,0,0,1.09,1.1h33.62a1.1,1.1,0,0,0,1.09-1.1V98.16l1.38,1.35a1.11,1.11,0,0,0,1.52,0l4.35-4a1.08,1.08,0,0,0,.35-.79,1.1,1.1,0,0,0-.33-.79"/><path class="cls-3" d="M509.64,92a1.18,1.18,0,0,0-.07-.2.69.69,0,0,0-.1-.19,1.09,1.09,0,0,0-.13-.17l-.17-.14-.19-.1-.2-.06a1,1,0,0,0-.43,0l-.21.06-.19.1a1.07,1.07,0,0,0-.16.14,1.07,1.07,0,0,0-.24.36.66.66,0,0,0-.06.2.75.75,0,0,0,0,.21.78.78,0,0,0,0,.22.66.66,0,0,0,.06.2,1.07,1.07,0,0,0,.24.36,1.1,1.1,0,0,0,.77.32l.22,0a1.17,1.17,0,0,0,.2-.06l.19-.1.17-.14a1.09,1.09,0,0,0,.13-.17.69.69,0,0,0,.1-.19,1.18,1.18,0,0,0,.07-.2,1.17,1.17,0,0,0,0-.43"/><path class="cls-3" d="M500.5,115.37a9.5,9.5,0,1,1,9.5-9.5,9.51,9.51,0,0,1-9.5,9.5m0-21.19a11.69,11.69,0,1,0,11.69,11.69A11.7,11.7,0,0,0,500.5,94.18"/><path class="cls-3" d="M505.12,110.21a1.85,1.85,0,0,0-.14.14l-.14.14a3.81,3.81,0,0,1-.51.46,2.61,2.61,0,0,1-.88-.67,6.56,6.56,0,0,1-1.52-3,6.6,6.6,0,0,1,3,1.53,2.36,2.36,0,0,1,.67.88,3.81,3.81,0,0,1-.46.51m-1.67-8.76a2.48,2.48,0,0,1,.88-.66,3.22,3.22,0,0,1,.51.46l.14.14.14.14a3.28,3.28,0,0,1,.46.51,2.47,2.47,0,0,1-.67.87,6.5,6.5,0,0,1-3,1.53,6.56,6.56,0,0,1,1.52-3m-7.36,1.46a2.47,2.47,0,0,1-.67-.87,3.28,3.28,0,0,1,.46-.51l.14-.14.14-.14a3.22,3.22,0,0,1,.51-.46,2.48,2.48,0,0,1,.88.66,6.56,6.56,0,0,1,1.52,3,6.55,6.55,0,0,1-3-1.53m1.46,7.37a2.61,2.61,0,0,1-.88.67,3.81,3.81,0,0,1-.51-.46l-.14-.14a1.85,1.85,0,0,0-.14-.14,3.81,3.81,0,0,1-.46-.51,2.36,2.36,0,0,1,.67-.88,6.58,6.58,0,0,1,3-1.52,6.58,6.58,0,0,1-1.52,3m6.87-4.41a7.32,7.32,0,0,0,2-1.41,3.54,3.54,0,0,0,1.31-2.44,2.86,2.86,0,0,0-1.11-2l-.13-.13-.13-.13a2.91,2.91,0,0,0-2-1.12h0a3.6,3.6,0,0,0-2.44,1.31,7.47,7.47,0,0,0-1.4,2,7.47,7.47,0,0,0-1.4-2,3.6,3.6,0,0,0-2.44-1.31h0a2.91,2.91,0,0,0-2,1.12,1.59,1.59,0,0,0-.13.13l-.13.13a2.86,2.86,0,0,0-1.11,2,3.54,3.54,0,0,0,1.31,2.44,7.11,7.11,0,0,0,2,1.41,7.28,7.28,0,0,0-2,1.4,3.56,3.56,0,0,0-1.31,2.45,2.9,2.9,0,0,0,1.11,2l.13.13.13.12a2.88,2.88,0,0,0,2,1.12h0a3.6,3.6,0,0,0,2.44-1.31,7.47,7.47,0,0,0,1.4-2,7.47,7.47,0,0,0,1.4,2,3.6,3.6,0,0,0,2.44,1.31h0a2.88,2.88,0,0,0,2-1.12l.13-.12a1.59,1.59,0,0,1,.13-.13,2.9,2.9,0,0,0,1.11-2,3.56,3.56,0,0,0-1.31-2.45,7.08,7.08,0,0,0-2-1.4"/><path class="cls-3" d="M565.57,82.71a.88.88,0,0,0,.62,1.65,6.87,6.87,0,0,1,4.85,0,.88.88,0,0,0,.62-1.65,8.63,8.63,0,0,0-6.09,0"/><path class="cls-3" d="M573.87,80.81a.89.89,0,0,0,.86-.67.87.87,0,0,0-.45-1,12.32,12.32,0,0,0-11.33,0,.88.88,0,0,0,.81,1.56,10.54,10.54,0,0,1,9.71,0,1,1,0,0,0,.4.1"/><path class="cls-3" d="M576.35,77.28a.88.88,0,0,0,.45-1.63,15.7,15.7,0,0,0-16.37,0,.88.88,0,1,0,.91,1.5,14,14,0,0,1,14.55,0,.84.84,0,0,0,.46.13"/><path class="cls-3" d="M593.24,100.63a2.64,2.64,0,0,1-2.64,2.64v-1.76A2.64,2.64,0,0,0,588,98.87h-38.7a2.64,2.64,0,0,0-2.64,2.64v1.76a2.64,2.64,0,0,1-2.64-2.64V91a2.64,2.64,0,0,1,2.64-2.64h44A2.64,2.64,0,0,1,593.24,91Zm-13.19,2.64v-2.64H588a.87.87,0,0,1,.87.88v1.76Zm-22.87,0h-8.79v-1.76a.87.87,0,0,1,.88-.88h7.91Zm21.11,0H569.5v-2.64h8.79Zm-10.55,0h-8.8v-2.64h8.8ZM590.6,86.56h-44a4.4,4.4,0,0,0-4.4,4.39v9.68a4.39,4.39,0,0,0,4.4,4.39h44a4.39,4.39,0,0,0,4.4-4.39V91a4.4,4.4,0,0,0-4.4-4.39"/><path class="cls-3" d="M568.62,107.66a.88.88,0,0,0-.88.88v9.31l-2-2a.88.88,0,0,0-1.24,1.24L568,120.6a.89.89,0,0,0,1.25,0l3.52-3.52a.88.88,0,0,0,0-1.23.87.87,0,0,0-1.23,0l-2,2v-9.31a.88.88,0,0,0-.87-.88"/><path class="cls-3" d="M579.12,108.26a.87.87,0,0,0-1.11-.55.88.88,0,0,0-.56,1.11c.07.21,1.64,4.74,5.5,6.33l-2.41,1.07a.89.89,0,0,0-.45,1.16.88.88,0,0,0,1.17.45l4.54-2a.9.9,0,0,0,.45-1.17l-2-4.54a.85.85,0,0,0-.71-.54.87.87,0,0,0-.89,1.26l1.25,2.81c-3.3-1.19-4.73-5.32-4.75-5.37"/><path class="cls-3" d="M554.17,109.65a.89.89,0,0,0-1.16.45l-2,4.54a.88.88,0,0,0,.45,1.17l4.54,2a.87.87,0,0,0,1.16-.45.88.88,0,0,0-.44-1.16l-2.41-1.07c3.87-1.59,5.43-6.12,5.5-6.33a.88.88,0,0,0-.56-1.11.87.87,0,0,0-1.11.55s-1.44,4.18-4.75,5.37l1.25-2.82a.88.88,0,0,0-.44-1.16"/><path class="cls-3" d="M571.25,95.35H566a.88.88,0,1,0,0,1.76h5.27a.88.88,0,0,0,0-1.76"/></g></g></g></svg>