<?xml version="1.0" encoding="utf-8"?>
<!-- Generator: Adobe Illustrator 24.0.3, SVG Export Plug-In . SVG Version: 6.00 Build 0)  -->
<svg version="1.1" id="Layer_1" xmlns="http://www.w3.org/2000/svg" xmlns:xlink="http://www.w3.org/1999/xlink" x="0px" y="0px"
	 viewBox="0 0 970 250" style="enable-background:new 0 0 970 250;" xml:space="preserve">
<title>tc</title>
<g>
	<path d="M763.7,135.4h2.1c0.5,0,0.5,0.9,0,0.8h-2.5c-0.3,0-0.5-0.2-0.5-0.5v-5.1c-0.1-0.6,1-0.6,0.9,0V135.4z"/>
	<path d="M767,130.3c0.2-0.2,0.5-0.2,0.8,0s0.2,0.5,0,0.8s-0.5,0.2-0.8,0S766.8,130.5,767,130.3z M767.8,132.3v3.6
		c0.1,0.6-1,0.6-0.9,0v-3.6c0-0.1,0-0.2,0.1-0.3C767.3,131.7,767.8,131.8,767.8,132.3z"/>
	<path d="M769.8,132.3c0.3-0.4,0.6-0.6,1.1-0.6c0.6,0,1,0.3,1.3,0.7c0.2-0.5,0.7-0.7,1.2-0.7c0.9,0,1.5,0.6,1.5,1.6v2.5
		c0.1,0.6-1,0.6-0.9,0v-2.4c0-0.5-0.3-0.9-0.8-0.9s-0.8,0.4-0.8,0.9v2.4c0.1,0.6-1,0.6-0.9,0v-2.4c0-0.5-0.3-0.9-0.8-0.9
		s-0.8,0.4-0.8,0.9v2.4c0.1,0.6-1,0.6-0.9,0v-3.6c0-0.3,0.1-0.4,0.4-0.4c0.2,0,0.4,0.1,0.4,0.3V132.3z"/>
	<path d="M776.1,130.3c0.2-0.2,0.5-0.2,0.8,0s0.2,0.5,0,0.8s-0.5,0.2-0.8,0S775.9,130.5,776.1,130.3z M777,132.3v3.6
		c0.1,0.6-1,0.6-0.9,0v-3.6c0-0.1,0-0.2,0.1-0.3C776.5,131.7,777,131.8,777,132.3z"/>
	<path d="M778.1,131.9h0.5v-0.8c-0.1-0.6,0.9-0.6,0.9,0v0.8h0.5c0.5-0.1,0.5,0.8,0,0.7h-0.5v3.2c0.1,0.6-1,0.6-0.9,0v-3.2h-0.5
		c-0.1,0-0.2,0-0.3-0.1C777.6,132.3,777.7,131.9,778.1,131.9z"/>
	<path d="M784.2,135.2c-0.1,0.7-0.8,1.1-1.6,1.1c-1.1,0-1.7-0.7-1.7-1.7v-1.1c0-1.1,0.7-1.7,1.7-1.7s1.7,0.7,1.7,1.7v0.3
		c0,0.3-0.2,0.4-0.5,0.4h-2.1v0.5c0,0.5,0.3,0.9,0.9,0.9c0.4,0,0.7-0.2,0.9-0.6c0.1-0.2,0.2-0.3,0.4-0.3
		C784.1,134.7,784.3,134.9,784.2,135.2z M781.8,133.6h1.7v-0.2c0-0.5-0.3-0.9-0.8-0.9s-0.8,0.4-0.8,0.9v0.2H781.8z"/>
	<path d="M788.7,135.9c0,0.3-0.2,0.4-0.4,0.4s-0.3-0.1-0.4-0.3v-0.2c-0.3,0.4-0.6,0.5-1.1,0.5c-1,0-1.5-0.7-1.5-1.7v-1.2
		c0-1,0.5-1.7,1.5-1.7c0.4,0,0.8,0.2,1.1,0.5v-1.7c-0.1-0.6,1-0.6,0.9,0L788.7,135.9L788.7,135.9z M786.9,135.6
		c0.3,0,0.5-0.1,0.6-0.3c0.2-0.2,0.2-0.4,0.2-0.7v-1.2c0-0.5-0.4-0.9-0.9-0.9s-0.8,0.4-0.8,0.9v1.3c0,0.3,0.1,0.5,0.2,0.6
		C786.4,135.5,786.6,135.6,786.9,135.6z"/>
	<path d="M791.4,131.9h0.5v-0.8c-0.1-0.6,0.9-0.6,0.9,0v0.8h0.5c0.5-0.1,0.5,0.8,0,0.7h-0.5v3.2c0.1,0.6-1,0.6-0.9,0v-3.2h-0.5
		c-0.1,0-0.2,0-0.3-0.1C791,132.3,791.1,131.9,791.4,131.9z"/>
	<path d="M794.5,130.3c0.2-0.2,0.5-0.2,0.8,0s0.2,0.5,0,0.8s-0.5,0.2-0.8,0S794.3,130.5,794.5,130.3z M795.3,132.3v3.6
		c0.1,0.6-1,0.6-0.9,0v-3.6c0-0.1,0-0.2,0.1-0.3C794.8,131.7,795.4,131.8,795.3,132.3z"/>
	<path d="M797.4,132.3c0.3-0.4,0.6-0.6,1.1-0.6c0.6,0,1,0.3,1.3,0.7c0.2-0.5,0.7-0.7,1.2-0.7c0.9,0,1.5,0.6,1.5,1.6v2.5
		c0.1,0.6-1,0.6-0.9,0v-2.4c0-0.5-0.3-0.9-0.8-0.9s-0.8,0.4-0.8,0.9v2.4c0.1,0.6-1,0.6-0.9,0v-2.4c0-0.5-0.3-0.9-0.8-0.9
		s-0.8,0.4-0.8,0.9v2.4c0.1,0.6-1,0.6-0.9,0v-3.6c0-0.3,0.1-0.4,0.4-0.4c0.2,0,0.4,0.1,0.4,0.3V132.3z"/>
	<path d="M806.8,135.2c-0.1,0.7-0.8,1.1-1.6,1.1c-1.1,0-1.7-0.7-1.7-1.7v-1.1c0-1.1,0.7-1.7,1.7-1.7s1.7,0.7,1.7,1.7v0.3
		c0,0.3-0.2,0.4-0.5,0.4h-2.1v0.5c0,0.5,0.3,0.9,0.9,0.9c0.4,0,0.7-0.2,0.9-0.6c0.1-0.2,0.2-0.3,0.4-0.3
		C806.7,134.7,806.9,134.9,806.8,135.2z M804.4,133.6h1.7v-0.2c0-0.5-0.3-0.9-0.8-0.9s-0.8,0.4-0.8,0.9v0.2H804.4z"/>
	<path d="M813.1,134.6c0,1.1-0.7,1.7-1.7,1.7s-1.7-0.7-1.7-1.7v-1.1c0-1.1,0.7-1.7,1.7-1.7s1.7,0.7,1.7,1.7V134.6z M810.5,134.7
		c0,0.5,0.3,0.9,0.8,0.9s0.8-0.4,0.8-0.9v-1.2c0-0.5-0.3-0.9-0.8-0.9s-0.8,0.4-0.8,0.9V134.7z"/>
	<path d="M814.1,131.9h0.4v-0.2c0-1,0.5-1.5,1.5-1.5h0.1c0.5,0,0.5,0.8,0,0.8H816c-0.4,0-0.6,0.2-0.6,0.7v0.2h0.7
		c0.2,0,0.4,0.2,0.4,0.4s-0.1,0.4-0.4,0.4h-0.8v3.2c0.1,0.6-1,0.6-0.9,0v-3.2H814c-0.2,0-0.4-0.2-0.4-0.4
		C813.7,132,813.8,131.9,814.1,131.9z"/>
	<path d="M817.1,131.9h0.4v-0.2c0-1,0.5-1.5,1.5-1.5h0.1c0.5,0,0.5,0.8,0,0.8H819c-0.4,0-0.6,0.2-0.6,0.7v0.2h0.7
		c0.2,0,0.4,0.2,0.4,0.4s-0.1,0.4-0.4,0.4h-0.8v3.2c0.1,0.6-1,0.6-0.9,0v-3.2H817c-0.2,0-0.4-0.2-0.4-0.4
		C816.7,132,816.9,131.9,817.1,131.9z"/>
	<path d="M823.3,135.2c-0.1,0.7-0.8,1.1-1.6,1.1c-1.1,0-1.7-0.7-1.7-1.7v-1.1c0-1.1,0.7-1.7,1.7-1.7s1.7,0.7,1.7,1.7v0.3
		c0,0.3-0.2,0.4-0.5,0.4h-2.1v0.5c0,0.5,0.3,0.9,0.9,0.9c0.4,0,0.7-0.2,0.9-0.6c0.1-0.2,0.2-0.3,0.4-0.3
		C823.2,134.7,823.4,134.9,823.3,135.2z M820.8,133.6h1.7v-0.2c0-0.5-0.3-0.9-0.8-0.9s-0.8,0.4-0.8,0.9v0.2H820.8z"/>
	<path d="M825.2,132.4c0.2-0.4,0.6-0.6,1-0.6c0.2,0,0.4,0.2,0.4,0.4s-0.2,0.4-0.4,0.4c-0.5,0-0.9,0.4-0.9,0.9v2.3
		c0.1,0.6-1,0.6-0.9,0v-3.6c0-0.3,0.1-0.4,0.4-0.4c0.2,0,0.4,0.1,0.4,0.3V132.4z"/>
	<path d="M827.5,135.2c0.3,0,0.6,0.2,0.6,0.6c0,0.3-0.2,0.5-0.6,0.5s-0.6-0.3-0.6-0.5C826.9,135.5,827.1,135.2,827.5,135.2z"/>
	<path d="M834.8,134.8c-0.1,1-0.9,1.6-1.9,1.6c-0.6,0-1.1-0.2-1.4-0.5s-0.6-0.8-0.6-1.4v-2.2c0-1.2,0.8-1.9,2-1.9
		c1.1,0,1.8,0.6,1.9,1.6c0,0.3-0.1,0.5-0.4,0.5c-0.2,0-0.4-0.1-0.4-0.3c-0.1-0.6-0.5-0.9-1.1-0.9c-0.7,0-1.1,0.4-1.1,1.1v2.2
		c0,0.7,0.4,1.1,1.1,1.1c0.6,0,1-0.3,1.1-0.9c0-0.2,0.2-0.4,0.4-0.4C834.6,134.2,834.8,134.5,834.8,134.8z"/>
	<path d="M836.8,130.6v5.3c0.1,0.6-1,0.6-0.9,0v-5.3c0-0.1,0-0.2,0.1-0.3C836.3,130,836.8,130.2,836.8,130.6z"/>
	<path d="M838.1,130.3c0.2-0.2,0.5-0.2,0.8,0s0.2,0.5,0,0.8s-0.5,0.2-0.8,0S837.9,130.5,838.1,130.3z M838.9,132.3v3.6
		c0.1,0.6-1,0.6-0.9,0v-3.6c0-0.1,0-0.2,0.1-0.3C838.4,131.7,838.9,131.8,838.9,132.3z"/>
	<path d="M843.3,135.1c-0.1,0.8-0.8,1.2-1.7,1.2c-1.1,0-1.8-0.7-1.8-1.7v-1.1c0-1.1,0.7-1.7,1.7-1.7c0.9,0,1.5,0.5,1.6,1.1
		c0.1,0.3-0.1,0.6-0.4,0.6c-0.2,0-0.4-0.1-0.4-0.3c-0.2-0.4-0.4-0.6-0.8-0.6c-0.5,0-0.9,0.4-0.9,0.9v1.2c0,0.5,0.3,0.9,0.9,0.9
		c0.4,0,0.7-0.2,0.8-0.7c0-0.2,0.2-0.3,0.4-0.3C843.2,134.6,843.4,134.8,843.3,135.1z"/>
	<path d="M847,136.1l-1.1-1.8l-0.6,0.6v1c0.1,0.6-1,0.6-0.9,0v-5.3c-0.1-0.6,1-0.6,0.9,0v3.2l1.8-1.8c0.1-0.1,0.2-0.1,0.3-0.1
		c0.2,0,0.4,0.2,0.4,0.4c0,0.1,0,0.2-0.1,0.3l-1.1,1.1l1.3,2c0,0.1,0.1,0.2,0.1,0.2c0,0.2-0.2,0.4-0.4,0.4
		C847.2,136.3,847.1,136.2,847,136.1z"/>
	<path d="M850.4,131.9h0.4v-0.2c0-1,0.5-1.5,1.5-1.5h0.1c0.5,0,0.5,0.8,0,0.8h-0.1c-0.4,0-0.6,0.2-0.6,0.7v0.2h0.7
		c0.2,0,0.4,0.2,0.4,0.4s-0.1,0.4-0.4,0.4h-0.7v3.2c0.1,0.6-1,0.6-0.9,0v-3.2h-0.4c-0.2,0-0.4-0.2-0.4-0.4
		C850,132,850.2,131.9,850.4,131.9z"/>
	<path d="M856.7,134.6c0,1.1-0.7,1.7-1.7,1.7s-1.7-0.7-1.7-1.7v-1.1c0-1.1,0.7-1.7,1.7-1.7s1.7,0.7,1.7,1.7V134.6z M854.1,134.7
		c0,0.5,0.3,0.9,0.8,0.9s0.8-0.4,0.8-0.9v-1.2c0-0.5-0.3-0.9-0.8-0.9s-0.8,0.4-0.8,0.9V134.7z"/>
	<path d="M858.6,132.4c0.2-0.4,0.6-0.6,1-0.6c0.2,0,0.4,0.2,0.4,0.4s-0.2,0.4-0.4,0.4c-0.5,0-0.9,0.4-0.9,0.9v2.3
		c0.1,0.6-1,0.6-0.9,0v-3.6c0-0.3,0.1-0.4,0.4-0.4c0.2,0,0.4,0.1,0.4,0.3V132.4z"/>
	<path d="M865.7,135.9c0,0.3-0.2,0.4-0.4,0.4s-0.3-0.1-0.4-0.3v-0.2c-0.3,0.4-0.6,0.5-1.1,0.5c-1,0-1.5-0.7-1.5-1.7v-1.2
		c0-1,0.5-1.7,1.5-1.7c0.4,0,0.8,0.2,1.1,0.5v-1.7c-0.1-0.6,1-0.6,0.9,0L865.7,135.9L865.7,135.9z M864,135.6c0.3,0,0.5-0.1,0.6-0.3
		c0.2-0.2,0.2-0.4,0.2-0.7v-1.2c0-0.5-0.4-0.9-0.9-0.9s-0.8,0.4-0.8,0.9v1.3c0,0.3,0.1,0.5,0.2,0.6
		C863.5,135.5,863.7,135.6,864,135.6z"/>
	<path d="M870.1,135.2c-0.1,0.7-0.8,1.1-1.6,1.1c-1.1,0-1.7-0.7-1.7-1.7v-1.1c0-1.1,0.7-1.7,1.7-1.7s1.7,0.7,1.7,1.7v0.3
		c0,0.3-0.2,0.4-0.5,0.4h-2.1v0.5c0,0.5,0.3,0.9,0.9,0.9c0.4,0,0.7-0.2,0.9-0.6c0.1-0.2,0.2-0.3,0.4-0.3
		C870,134.7,870.2,134.9,870.1,135.2z M867.6,133.6h1.7v-0.2c0-0.5-0.3-0.9-0.8-0.9s-0.8,0.4-0.8,0.9v0.2H867.6z"/>
	<path d="M871.1,131.9h0.5v-0.8c-0.1-0.6,0.9-0.6,0.9,0v0.8h0.5c0.5-0.1,0.5,0.8,0,0.7h-0.5v3.2c0.1,0.6-1,0.6-0.9,0v-3.2h-0.5
		c-0.1,0-0.2,0-0.3-0.1C870.6,132.3,870.7,131.9,871.1,131.9z"/>
	<path d="M876.6,135.8c-0.3,0.4-0.6,0.5-1.1,0.5c-1,0-1.5-0.7-1.5-1.7v-1.2c0-1,0.5-1.7,1.5-1.7c0.5,0,0.9,0.2,1.1,0.5V132
		c0.1-0.2,0.2-0.3,0.4-0.3c0.3,0,0.4,0.1,0.4,0.4v3.6c0,0.3-0.2,0.4-0.4,0.4S876.6,136,876.6,135.8L876.6,135.8z M875.6,135.6
		c0.3,0,0.5-0.1,0.6-0.3c0.2-0.2,0.2-0.4,0.2-0.7v-1.2c0-0.5-0.4-0.9-0.9-0.9s-0.8,0.4-0.8,0.9v1.3c0,0.3,0.1,0.5,0.2,0.6
		C875.2,135.5,875.4,135.6,875.6,135.6z"/>
	<path d="M878.6,130.3c0.2-0.2,0.5-0.2,0.8,0s0.2,0.5,0,0.8s-0.5,0.2-0.8,0S878.4,130.5,878.6,130.3z M879.5,132.3v3.6
		c0.1,0.6-1,0.6-0.9,0v-3.6c0-0.1,0-0.2,0.1-0.3C879,131.7,879.5,131.8,879.5,132.3z"/>
	<path d="M881.6,130.6v5.3c0.1,0.6-1,0.6-0.9,0v-5.3c0-0.1,0-0.2,0.1-0.3C881.1,130,881.6,130.2,881.6,130.6z"/>
	<path d="M883.7,134.3c-0.7-0.2-1-0.6-1-1.2c0-0.4,0.1-0.7,0.4-0.9c0.3-0.2,0.7-0.4,1.1-0.4c0.8,0,1.3,0.3,1.5,0.9
		c0.1,0.3,0,0.6-0.3,0.6c-0.2,0-0.3-0.1-0.4-0.3c-0.2-0.3-0.4-0.5-0.8-0.5c-0.4,0-0.7,0.2-0.7,0.5c0,0.2,0.2,0.4,0.5,0.5l0.7,0.2
		c0.8,0.2,1.2,0.6,1.2,1.3c0,0.8-0.6,1.4-1.6,1.4c-0.9,0-1.5-0.4-1.7-1c-0.1-0.3,0.1-0.5,0.4-0.5c0.2,0,0.3,0.1,0.4,0.3
		c0.2,0.4,0.5,0.6,0.9,0.6c0.5,0,0.8-0.2,0.8-0.6c0-0.3-0.2-0.5-0.5-0.5L883.7,134.3z"/>
	<path d="M887.2,137c-0.1,0.1-0.2,0.2-0.3,0.2c-0.2,0-0.3-0.2-0.3-0.4l0.3-1.1c0.1-0.3,0.2-0.4,0.5-0.4c0.4,0,0.6,0.3,0.4,0.7
		L887.2,137z"/>
	<path d="M737.9,141.4v5.3c0.1,0.6-1,0.6-0.9,0v-5.3c0-0.1,0-0.2,0.1-0.3C737.3,140.8,737.9,141,737.9,141.4z"/>
	<path d="M742.3,146c-0.1,0.7-0.8,1.1-1.6,1.1c-1.1,0-1.7-0.7-1.7-1.7v-1.1c0-1.1,0.7-1.7,1.7-1.7s1.7,0.7,1.7,1.7v0.3
		c0,0.3-0.2,0.4-0.5,0.4h-2.1v0.5c0,0.5,0.3,0.9,0.9,0.9c0.4,0,0.7-0.2,0.9-0.6c0.1-0.2,0.2-0.3,0.4-0.3
		C742.2,145.5,742.3,145.7,742.3,146z M739.8,144.4h1.7v-0.2c0-0.5-0.3-0.9-0.8-0.9s-0.8,0.4-0.8,0.9v0.2H739.8z"/>
	<path d="M744.2,143.1c0.3-0.4,0.7-0.6,1.2-0.6c1,0,1.5,0.6,1.5,1.6v2.5c0.1,0.6-0.9,0.6-0.9,0v-2.4c0-0.5-0.3-0.9-0.8-0.9
		s-0.9,0.4-0.9,0.9v2.4c0.1,0.6-1,0.6-0.9,0V143c0-0.3,0.1-0.4,0.4-0.4c0.2,0,0.4,0.1,0.4,0.3V143.1z"/>
	<path d="M751.3,146.7c0,0.3-0.2,0.4-0.4,0.4s-0.3-0.1-0.4-0.3v-0.2c-0.3,0.4-0.6,0.5-1.1,0.5c-1,0-1.5-0.7-1.5-1.7v-1.2
		c0-1,0.5-1.7,1.5-1.7c0.4,0,0.8,0.2,1.1,0.5v-1.7c-0.1-0.6,1-0.6,0.9,0L751.3,146.7L751.3,146.7z M749.5,146.4
		c0.3,0,0.5-0.1,0.6-0.3c0.2-0.2,0.2-0.4,0.2-0.7v-1.2c0-0.5-0.4-0.9-0.9-0.9s-0.8,0.4-0.8,0.9v1.3c0,0.3,0.1,0.5,0.2,0.6
		C749.1,146.3,749.3,146.4,749.5,146.4z"/>
	<path d="M752.6,141.1c0.2-0.2,0.5-0.2,0.8,0s0.2,0.5,0,0.8s-0.5,0.2-0.8,0S752.4,141.3,752.6,141.1z M753.4,143.1v3.6
		c0.1,0.6-1,0.6-0.9,0v-3.6c0-0.1,0-0.2,0.1-0.3C752.9,142.5,753.4,142.6,753.4,143.1z"/>
	<path d="M755.4,143.1c0.3-0.4,0.7-0.6,1.2-0.6c1,0,1.5,0.6,1.5,1.6v2.5c0.1,0.6-0.9,0.6-0.9,0v-2.4c0-0.5-0.3-0.9-0.8-0.9
		s-0.9,0.4-0.9,0.9v2.4c0.1,0.6-1,0.6-0.9,0V143c0-0.3,0.1-0.4,0.4-0.4c0.2,0,0.4,0.1,0.4,0.3V143.1z"/>
	<path d="M761.7,142.9c0-0.2,0.2-0.3,0.4-0.3c0.3,0,0.4,0.1,0.4,0.4v4.2c0,1-0.7,1.6-1.7,1.6c-0.8,0-1.3-0.3-1.6-0.9
		c-0.1-0.3,0-0.6,0.4-0.6c0.2,0,0.3,0.1,0.4,0.3c0.1,0.2,0.2,0.3,0.4,0.4c0.1,0.1,0.3,0.1,0.4,0.1c0.5,0,0.9-0.3,0.9-0.8v-0.8
		c-0.3,0.3-0.6,0.5-1.1,0.5c-1,0-1.5-0.7-1.5-1.7v-1.1c0-1,0.5-1.7,1.5-1.7C761.1,142.5,761.5,142.7,761.7,142.9L761.7,142.9z
		 M760.8,146.2c0.3,0,0.5-0.1,0.6-0.3c0.2-0.2,0.2-0.4,0.2-0.6v-1c0-0.5-0.4-0.9-0.9-0.9s-0.8,0.4-0.8,0.9v1.1
		c0,0.3,0.1,0.5,0.2,0.6C760.3,146.1,760.5,146.2,760.8,146.2z"/>
	<path d="M768.8,145.9c-0.1,0.8-0.8,1.2-1.7,1.2c-1.1,0-1.8-0.7-1.8-1.7v-1.1c0-1.1,0.7-1.7,1.7-1.7c0.9,0,1.5,0.5,1.6,1.1
		c0.1,0.3-0.1,0.6-0.4,0.6c-0.2,0-0.4-0.1-0.4-0.3c-0.2-0.4-0.4-0.6-0.8-0.6c-0.5,0-0.9,0.4-0.9,0.9v1.2c0,0.5,0.3,0.9,0.9,0.9
		c0.4,0,0.7-0.2,0.8-0.7c0-0.2,0.2-0.3,0.4-0.3C768.7,145.4,768.9,145.6,768.8,145.9z"/>
	<path d="M770.7,143.2c0.2-0.4,0.6-0.6,1-0.6c0.2,0,0.4,0.2,0.4,0.4s-0.2,0.4-0.4,0.4c-0.5,0-0.9,0.4-0.9,0.9v2.3
		c0.1,0.6-1,0.6-0.9,0V143c0-0.3,0.1-0.4,0.4-0.4c0.2,0,0.4,0.1,0.4,0.3V143.2z"/>
	<path d="M772.8,141.1c0.2-0.2,0.5-0.2,0.8,0s0.2,0.5,0,0.8s-0.5,0.2-0.8,0S772.6,141.3,772.8,141.1z M773.7,143.1v3.6
		c0.1,0.6-1,0.6-0.9,0v-3.6c0-0.1,0-0.2,0.1-0.3C773.1,142.5,773.7,142.6,773.7,143.1z"/>
	<path d="M774.7,142.7h0.5v-0.8c-0.1-0.6,0.9-0.6,0.9,0v0.8h0.5c0.5-0.1,0.5,0.8,0,0.7h-0.5v3.2c0.1,0.6-1,0.6-0.9,0v-3.2h-0.5
		c-0.1,0-0.2,0-0.3-0.1C774.3,143.1,774.4,142.7,774.7,142.7z"/>
	<path d="M780.9,146c-0.1,0.7-0.8,1.1-1.6,1.1c-1.1,0-1.7-0.7-1.7-1.7v-1.1c0-1.1,0.7-1.7,1.7-1.7s1.7,0.7,1.7,1.7v0.3
		c0,0.3-0.2,0.4-0.5,0.4h-2.1v0.5c0,0.5,0.3,0.9,0.9,0.9c0.4,0,0.7-0.2,0.9-0.6c0.1-0.2,0.2-0.3,0.4-0.3
		C780.8,145.5,781,145.7,780.9,146z M778.5,144.4h1.7v-0.2c0-0.5-0.3-0.9-0.8-0.9s-0.8,0.4-0.8,0.9v0.2H778.5z"/>
	<path d="M782.8,143.2c0.2-0.4,0.6-0.6,1-0.6c0.2,0,0.4,0.2,0.4,0.4s-0.2,0.4-0.4,0.4c-0.5,0-0.9,0.4-0.9,0.9v2.3
		c0.1,0.6-1,0.6-0.9,0V143c0-0.3,0.1-0.4,0.4-0.4c0.2,0,0.4,0.1,0.4,0.3V143.2z"/>
	<path d="M785,141.1c0.2-0.2,0.5-0.2,0.8,0s0.2,0.5,0,0.8s-0.5,0.2-0.8,0S784.8,141.3,785,141.1z M785.9,143.1v3.6
		c0.1,0.6-1,0.6-0.9,0v-3.6c0-0.1,0-0.2,0.1-0.3C785.3,142.5,785.9,142.6,785.9,143.1z"/>
	<path d="M789.5,146.6c-0.3,0.4-0.6,0.5-1.1,0.5c-1,0-1.5-0.7-1.5-1.7v-1.2c0-1,0.5-1.7,1.5-1.7c0.5,0,0.9,0.2,1.1,0.5v-0.2
		c0.1-0.2,0.2-0.3,0.4-0.3c0.3,0,0.4,0.1,0.4,0.4v3.6c0,0.3-0.2,0.4-0.4,0.4S789.5,146.8,789.5,146.6L789.5,146.6z M788.6,146.4
		c0.3,0,0.5-0.1,0.6-0.3c0.2-0.2,0.2-0.4,0.2-0.7v-1.2c0-0.5-0.4-0.9-0.9-0.9s-0.8,0.4-0.8,0.9v1.3c0,0.3,0.1,0.5,0.2,0.6
		C788.2,146.3,788.4,146.4,788.6,146.4z"/>
	<path d="M791.9,147.8c-0.1,0.1-0.2,0.2-0.3,0.2c-0.2,0-0.3-0.2-0.3-0.4l0.3-1.1c0.1-0.3,0.2-0.4,0.5-0.4c0.4,0,0.6,0.3,0.4,0.7
		L791.9,147.8z"/>
	<path d="M795.4,142.7h0.4v-0.2c0-1,0.5-1.5,1.5-1.5h0.1c0.5,0,0.5,0.8,0,0.8h-0.1c-0.4,0-0.6,0.2-0.6,0.7v0.2h0.7
		c0.2,0,0.4,0.2,0.4,0.4s-0.1,0.4-0.4,0.4h-0.7v3.2c0.1,0.6-1,0.6-0.9,0v-3.2h-0.4c-0.2,0-0.4-0.2-0.4-0.4
		C795,142.8,795.2,142.7,795.4,142.7z"/>
	<path d="M801.6,146c-0.1,0.7-0.8,1.1-1.6,1.1c-1.1,0-1.7-0.7-1.7-1.7v-1.1c0-1.1,0.7-1.7,1.7-1.7s1.7,0.7,1.7,1.7v0.3
		c0,0.3-0.2,0.4-0.5,0.4h-2.1v0.5c0,0.5,0.3,0.9,0.9,0.9c0.4,0,0.7-0.2,0.9-0.6c0.1-0.2,0.2-0.3,0.4-0.3
		C801.5,145.5,801.7,145.7,801.6,146z M799.1,144.4h1.7v-0.2c0-0.5-0.3-0.9-0.8-0.9s-0.8,0.4-0.8,0.9v0.2H799.1z"/>
	<path d="M805.9,146c-0.1,0.7-0.8,1.1-1.6,1.1c-1.1,0-1.7-0.7-1.7-1.7v-1.1c0-1.1,0.7-1.7,1.7-1.7s1.7,0.7,1.7,1.7v0.3
		c0,0.3-0.2,0.4-0.5,0.4h-2.1v0.5c0,0.5,0.3,0.9,0.9,0.9c0.4,0,0.7-0.2,0.9-0.6c0.1-0.2,0.2-0.3,0.4-0.3
		C805.8,145.5,805.9,145.7,805.9,146z M803.4,144.4h1.7v-0.2c0-0.5-0.3-0.9-0.8-0.9s-0.8,0.4-0.8,0.9v0.2H803.4z"/>
	<path d="M807.9,145.1c-0.7-0.2-1-0.6-1-1.2c0-0.4,0.1-0.7,0.4-0.9c0.3-0.2,0.7-0.4,1.1-0.4c0.8,0,1.3,0.3,1.5,0.9
		c0.1,0.3,0,0.6-0.3,0.6c-0.2,0-0.3-0.1-0.4-0.3c-0.2-0.3-0.4-0.5-0.8-0.5c-0.4,0-0.7,0.2-0.7,0.5c0,0.2,0.2,0.4,0.5,0.5l0.7,0.2
		c0.8,0.2,1.2,0.6,1.2,1.3c0,0.8-0.6,1.4-1.6,1.4c-0.9,0-1.5-0.4-1.7-1c-0.1-0.3,0.1-0.5,0.4-0.5c0.2,0,0.3,0.1,0.4,0.3
		c0.2,0.4,0.5,0.6,0.9,0.6c0.5,0,0.8-0.2,0.8-0.6c0-0.3-0.2-0.5-0.5-0.5L807.9,145.1z"/>
	<path d="M811.3,147.8c-0.1,0.1-0.2,0.2-0.3,0.2c-0.2,0-0.3-0.2-0.3-0.4l0.3-1.1c0.1-0.3,0.2-0.4,0.5-0.4c0.4,0,0.6,0.3,0.4,0.7
		L811.3,147.8z"/>
	<path d="M814.7,142.7h0.5v-0.8c-0.1-0.6,0.9-0.6,0.9,0v0.8h0.5c0.5-0.1,0.5,0.8,0,0.7h-0.5v3.2c0.1,0.6-1,0.6-0.9,0v-3.2h-0.5
		c-0.1,0-0.2,0-0.3-0.1C814.2,143.1,814.4,142.7,814.7,142.7z"/>
	<path d="M820.9,146c-0.1,0.7-0.8,1.1-1.6,1.1c-1.1,0-1.7-0.7-1.7-1.7v-1.1c0-1.1,0.7-1.7,1.7-1.7s1.7,0.7,1.7,1.7v0.3
		c0,0.3-0.2,0.4-0.5,0.4h-2.1v0.5c0,0.5,0.3,0.9,0.9,0.9c0.4,0,0.7-0.2,0.9-0.6c0.1-0.2,0.2-0.3,0.4-0.3
		C820.8,145.5,820.9,145.7,820.9,146z M818.4,144.4h1.7v-0.2c0-0.5-0.3-0.9-0.8-0.9s-0.8,0.4-0.8,0.9v0.2H818.4z"/>
	<path d="M822.8,143.2c0.2-0.4,0.6-0.6,1-0.6c0.2,0,0.4,0.2,0.4,0.4s-0.2,0.4-0.4,0.4c-0.5,0-0.9,0.4-0.9,0.9v2.3
		c0.1,0.6-1,0.6-0.9,0V143c0-0.3,0.1-0.4,0.4-0.4c0.2,0,0.4,0.1,0.4,0.3V143.2z"/>
	<path d="M825.7,143.1c0.3-0.4,0.6-0.6,1.1-0.6c0.6,0,1,0.3,1.3,0.7c0.2-0.5,0.7-0.7,1.2-0.7c0.9,0,1.5,0.6,1.5,1.6v2.5
		c0.1,0.6-1,0.6-0.9,0v-2.4c0-0.5-0.3-0.9-0.8-0.9s-0.8,0.4-0.8,0.9v2.4c0.1,0.6-1,0.6-0.9,0v-2.4c0-0.5-0.3-0.9-0.8-0.9
		s-0.8,0.4-0.8,0.9v2.4c0.1,0.6-1,0.6-0.9,0V143c0-0.3,0.1-0.4,0.4-0.4c0.2,0,0.4,0.1,0.4,0.3V143.1z"/>
	<path d="M832.9,145.1c-0.7-0.2-1-0.6-1-1.2c0-0.4,0.1-0.7,0.4-0.9c0.3-0.2,0.7-0.4,1.1-0.4c0.8,0,1.3,0.3,1.5,0.9
		c0.1,0.3,0,0.6-0.3,0.6c-0.2,0-0.3-0.1-0.4-0.3c-0.2-0.3-0.4-0.5-0.8-0.5c-0.4,0-0.7,0.2-0.7,0.5c0,0.2,0.2,0.4,0.5,0.5l0.7,0.2
		c0.8,0.2,1.2,0.6,1.2,1.3c0,0.8-0.6,1.4-1.6,1.4c-0.9,0-1.5-0.4-1.7-1c-0.1-0.3,0.1-0.5,0.4-0.5c0.2,0,0.3,0.1,0.4,0.3
		c0.2,0.4,0.5,0.6,0.9,0.6c0.5,0,0.8-0.2,0.8-0.6c0-0.3-0.2-0.5-0.5-0.5L832.9,145.1z"/>
	<path d="M840.4,146.6c-0.3,0.4-0.6,0.5-1.1,0.5c-1,0-1.5-0.7-1.5-1.7v-1.2c0-1,0.5-1.7,1.5-1.7c0.5,0,0.9,0.2,1.1,0.5v-0.2
		c0.1-0.2,0.2-0.3,0.4-0.3c0.3,0,0.4,0.1,0.4,0.4v3.6c0,0.3-0.2,0.4-0.4,0.4S840.4,146.8,840.4,146.6L840.4,146.6z M839.5,146.4
		c0.3,0,0.5-0.1,0.6-0.3c0.2-0.2,0.2-0.4,0.2-0.7v-1.2c0-0.5-0.4-0.9-0.9-0.9s-0.8,0.4-0.8,0.9v1.3c0,0.3,0.1,0.5,0.2,0.6
		C839,146.3,839.2,146.4,839.5,146.4z"/>
	<path d="M843.2,143.1c0.3-0.4,0.7-0.6,1.2-0.6c1,0,1.5,0.6,1.5,1.6v2.5c0.1,0.6-0.9,0.6-0.9,0v-2.4c0-0.5-0.3-0.9-0.8-0.9
		s-0.9,0.4-0.9,0.9v2.4c0.1,0.6-1,0.6-0.9,0V143c0-0.3,0.1-0.4,0.4-0.4c0.2,0,0.4,0.1,0.4,0.3V143.1z"/>
	<path d="M850.3,146.7c0,0.3-0.2,0.4-0.4,0.4s-0.3-0.1-0.4-0.3v-0.2c-0.3,0.4-0.6,0.5-1.1,0.5c-1,0-1.5-0.7-1.5-1.7v-1.2
		c0-1,0.5-1.7,1.5-1.7c0.4,0,0.8,0.2,1.1,0.5v-1.7c-0.1-0.6,1-0.6,0.9,0L850.3,146.7L850.3,146.7z M848.6,146.4
		c0.3,0,0.5-0.1,0.6-0.3c0.2-0.2,0.2-0.4,0.2-0.7v-1.2c0-0.5-0.4-0.9-0.9-0.9s-0.8,0.4-0.8,0.9v1.3c0,0.3,0.1,0.5,0.2,0.6
		C848.1,146.3,848.3,146.4,848.6,146.4z"/>
	<path d="M856.6,145.9c-0.1,0.8-0.8,1.2-1.7,1.2c-1.1,0-1.8-0.7-1.8-1.7v-1.1c0-1.1,0.7-1.7,1.7-1.7c0.9,0,1.5,0.5,1.6,1.1
		c0.1,0.3-0.1,0.6-0.4,0.6c-0.2,0-0.4-0.1-0.4-0.3c-0.2-0.4-0.4-0.6-0.8-0.6c-0.5,0-0.9,0.4-0.9,0.9v1.2c0,0.5,0.3,0.9,0.9,0.9
		c0.4,0,0.7-0.2,0.8-0.7c0-0.2,0.2-0.3,0.4-0.3C856.5,145.4,856.7,145.6,856.6,145.9z"/>
	<path d="M861,145.4c0,1.1-0.7,1.7-1.7,1.7s-1.7-0.7-1.7-1.7v-1.1c0-1.1,0.7-1.7,1.7-1.7s1.7,0.7,1.7,1.7V145.4z M858.4,145.5
		c0,0.5,0.3,0.9,0.8,0.9s0.8-0.4,0.8-0.9v-1.2c0-0.5-0.3-0.9-0.8-0.9s-0.8,0.4-0.8,0.9V145.5z"/>
	<path d="M862.8,143.1c0.3-0.4,0.7-0.6,1.2-0.6c1,0,1.5,0.6,1.5,1.6v2.5c0.1,0.6-0.9,0.6-0.9,0v-2.4c0-0.5-0.3-0.9-0.8-0.9
		s-0.9,0.4-0.9,0.9v2.4c0.1,0.6-1,0.6-0.9,0V143c0-0.3,0.1-0.4,0.4-0.4c0.2,0,0.4,0.1,0.4,0.3V143.1z"/>
	<path d="M870,146.7c0,0.3-0.2,0.4-0.4,0.4s-0.3-0.1-0.4-0.3v-0.2c-0.3,0.4-0.6,0.5-1.1,0.5c-1,0-1.5-0.7-1.5-1.7v-1.2
		c0-1,0.5-1.7,1.5-1.7c0.4,0,0.8,0.2,1.1,0.5v-1.7c-0.1-0.6,1-0.6,0.9,0L870,146.7L870,146.7z M868.2,146.4c0.3,0,0.5-0.1,0.6-0.3
		c0.2-0.2,0.2-0.4,0.2-0.7v-1.2c0-0.5-0.4-0.9-0.9-0.9s-0.8,0.4-0.8,0.9v1.3c0,0.3,0.1,0.5,0.2,0.6
		C867.7,146.3,867.9,146.4,868.2,146.4z"/>
	<path d="M871.2,141.1c0.2-0.2,0.5-0.2,0.8,0s0.2,0.5,0,0.8s-0.5,0.2-0.8,0S871,141.3,871.2,141.1z M872,143.1v3.6
		c0.1,0.6-1,0.6-0.9,0v-3.6c0-0.1,0-0.2,0.1-0.3C871.5,142.5,872.1,142.6,872,143.1z"/>
	<path d="M873.1,142.7h0.5v-0.8c-0.1-0.6,0.9-0.6,0.9,0v0.8h0.5c0.5-0.1,0.5,0.8,0,0.7h-0.5v3.2c0.1,0.6-1,0.6-0.9,0v-3.2h-0.5
		c-0.1,0-0.2,0-0.3-0.1C872.7,143.1,872.8,142.7,873.1,142.7z"/>
	<path d="M876.2,141.1c0.2-0.2,0.5-0.2,0.8,0s0.2,0.5,0,0.8s-0.5,0.2-0.8,0S876,141.3,876.2,141.1z M877.1,143.1v3.6
		c0.1,0.6-1,0.6-0.9,0v-3.6c0-0.1,0-0.2,0.1-0.3C876.5,142.5,877.1,142.6,877.1,143.1z"/>
	<path d="M881.6,145.4c0,1.1-0.7,1.7-1.7,1.7s-1.7-0.7-1.7-1.7v-1.1c0-1.1,0.7-1.7,1.7-1.7s1.7,0.7,1.7,1.7V145.4z M879,145.5
		c0,0.5,0.3,0.9,0.8,0.9s0.8-0.4,0.8-0.9v-1.2c0-0.5-0.3-0.9-0.8-0.9s-0.8,0.4-0.8,0.9V145.5z"/>
	<path d="M883.4,143.1c0.3-0.4,0.7-0.6,1.2-0.6c1,0,1.5,0.6,1.5,1.6v2.5c0.1,0.6-0.9,0.6-0.9,0v-2.4c0-0.5-0.3-0.9-0.8-0.9
		s-0.9,0.4-0.9,0.9v2.4c0.1,0.6-1,0.6-0.9,0V143c0-0.3,0.1-0.4,0.4-0.4c0.2,0,0.4,0.1,0.4,0.3V143.1z"/>
	<path d="M888.1,145.1c-0.7-0.2-1-0.6-1-1.2c0-0.4,0.1-0.7,0.4-0.9c0.3-0.2,0.7-0.4,1.1-0.4c0.8,0,1.3,0.3,1.5,0.9
		c0.1,0.3,0,0.6-0.3,0.6c-0.2,0-0.3-0.1-0.4-0.3c-0.2-0.3-0.4-0.5-0.8-0.5c-0.4,0-0.7,0.2-0.7,0.5c0,0.2,0.2,0.4,0.5,0.5l0.7,0.2
		c0.8,0.2,1.2,0.6,1.2,1.3c0,0.8-0.6,1.4-1.6,1.4c-0.9,0-1.5-0.4-1.7-1c-0.1-0.3,0.1-0.5,0.4-0.5c0.2,0,0.3,0.1,0.4,0.3
		c0.2,0.4,0.5,0.6,0.9,0.6c0.5,0,0.8-0.2,0.8-0.6c0-0.3-0.2-0.5-0.5-0.5L888.1,145.1z"/>
	<path d="M895.6,146.6c-0.3,0.4-0.6,0.5-1.1,0.5c-1,0-1.5-0.7-1.5-1.7v-1.2c0-1,0.5-1.7,1.5-1.7c0.5,0,0.9,0.2,1.1,0.5v-0.2
		c0.1-0.2,0.2-0.3,0.4-0.3c0.3,0,0.4,0.1,0.4,0.4v3.6c0,0.3-0.2,0.4-0.4,0.4S895.6,146.8,895.6,146.6L895.6,146.6z M894.7,146.4
		c0.3,0,0.5-0.1,0.6-0.3c0.2-0.2,0.2-0.4,0.2-0.7v-1.2c0-0.5-0.4-0.9-0.9-0.9s-0.8,0.4-0.8,0.9v1.3c0,0.3,0.1,0.5,0.2,0.6
		C894.2,146.3,894.4,146.4,894.7,146.4z"/>
	<path d="M898.5,143.1c0.3-0.4,0.6-0.5,1.1-0.5c1,0,1.5,0.7,1.5,1.7v1.2c0,1-0.5,1.7-1.5,1.7c-0.5,0-0.8-0.2-1.1-0.5v1.7
		c0.1,0.6-1,0.6-0.9,0v-5.3c0-0.3,0.1-0.4,0.4-0.4c0.2,0,0.4,0.1,0.4,0.3L898.5,143.1z M898.5,144.3v1.2c0,0.5,0.3,0.9,0.9,0.9
		c0.5,0,0.8-0.4,0.8-0.9v-1.3c0-0.5-0.3-0.9-0.8-0.9C898.9,143.4,898.5,143.7,898.5,144.3z"/>
	<path d="M903,143.1c0.3-0.4,0.6-0.5,1.1-0.5c1,0,1.5,0.7,1.5,1.7v1.2c0,1-0.5,1.7-1.5,1.7c-0.5,0-0.8-0.2-1.1-0.5v1.7
		c0.1,0.6-1,0.6-0.9,0v-5.3c0-0.3,0.1-0.4,0.4-0.4c0.2,0,0.4,0.1,0.4,0.3L903,143.1z M903.1,144.3v1.2c0,0.5,0.3,0.9,0.9,0.9
		c0.5,0,0.8-0.4,0.8-0.9v-1.3c0-0.5-0.3-0.9-0.8-0.9C903.4,143.4,903.1,143.7,903.1,144.3z"/>
	<path d="M907.6,141.4v5.3c0.1,0.6-1,0.6-0.9,0v-5.3c0-0.1,0-0.2,0.1-0.3C907.1,140.8,907.6,141,907.6,141.4z"/>
	<path d="M910.3,148.5c-0.1,0.2-0.2,0.3-0.4,0.3c-0.3,0-0.5-0.3-0.4-0.5l0.4-1.2l-1.4-3.9c-0.1-0.3,0.1-0.6,0.4-0.6
		c0.2,0,0.4,0.1,0.4,0.3l1,3l1-3c0.1-0.2,0.2-0.3,0.4-0.3c0.3,0,0.5,0.3,0.4,0.6L910.3,148.5z"/>
	<path d="M913.1,146c0.3,0,0.6,0.2,0.6,0.6c0,0.3-0.2,0.5-0.6,0.5s-0.6-0.3-0.6-0.5C912.5,146.3,912.8,146,913.1,146z"/>
</g>
<g>
	<path d="M766.3,114.6c0,1.6-0.5,2.9-1.5,3.8c-1,1-2.3,1.4-4,1.4s-3-0.5-4-1.4s-1.5-2.2-1.5-3.8v-6.2c0-3.3,2-5.3,5.5-5.3
		c1.7,0,3,0.5,4,1.4c1,1,1.5,2.3,1.5,3.9V114.6z M758.9,114.5c0,1.3,0.7,2.1,1.9,2.1s1.9-0.8,1.9-2.1v-6.1c0-1.3-0.7-2.1-1.9-2.1
		s-1.9,0.8-1.9,2.1V114.5z"/>
	<path d="M777.6,111.2c1.4,0.6,2.1,1.9,2.1,3.8c0,2.9-2.2,4.8-5.5,4.8s-5.5-1.9-5.5-4.8c0-1.9,0.7-3.2,2.1-3.8
		c-1.2-0.7-1.8-1.9-1.8-3.5c0-2.7,2-4.6,5.2-4.6s5.2,1.9,5.2,4.6C779.4,109.4,778.8,110.5,777.6,111.2z M774.2,116.9
		c1.2,0,1.9-0.7,1.9-2.1s-0.6-2.2-1.9-2.2c-1.2,0-1.8,0.7-1.8,2.2C772.4,116.2,773,116.9,774.2,116.9z M774.2,110
		c1.1,0,1.6-0.7,1.6-2c0-1.2-0.5-1.8-1.7-1.8c-1.1,0-1.7,0.6-1.7,1.8C772.5,109.3,773.1,110,774.2,110z"/>
	<path d="M793.1,114.6c0,1.6-0.5,2.9-1.5,3.8c-1,1-2.3,1.4-4,1.4s-3-0.5-4-1.4s-1.5-2.2-1.5-3.8v-6.2c0-3.3,2-5.3,5.5-5.3
		c1.7,0,3,0.5,4,1.4c1,1,1.5,2.3,1.5,3.9V114.6z M785.7,114.5c0,1.3,0.7,2.1,1.9,2.1s1.9-0.8,1.9-2.1v-6.1c0-1.3-0.7-2.1-1.9-2.1
		s-1.9,0.8-1.9,2.1V114.5z"/>
	<path d="M806.8,114.6c0,1.6-0.5,2.9-1.5,3.8c-1,1-2.3,1.4-4,1.4s-3-0.5-4-1.4s-1.5-2.2-1.5-3.8v-6.2c0-3.3,2-5.3,5.5-5.3
		c1.7,0,3,0.5,4,1.4c1,1,1.5,2.3,1.5,3.9V114.6z M799.3,114.5c0,1.3,0.7,2.1,1.9,2.1s1.9-0.8,1.9-2.1v-6.1c0-1.3-0.7-2.1-1.9-2.1
		s-1.9,0.8-1.9,2.1V114.5z"/>
	<path d="M826,118c0,1.1-0.7,1.8-1.8,1.8s-1.8-0.7-1.8-1.8v-5H818v5c0,1.1-0.7,1.8-1.8,1.8s-1.8-0.7-1.8-1.8v-13
		c0-1.1,0.7-1.8,1.8-1.8s1.8,0.7,1.8,1.8v4.8h4.4V105c0-1.1,0.7-1.8,1.8-1.8s1.8,0.7,1.8,1.8V118z"/>
	<path d="M840.6,117.3c0.1,0.2,0.1,0.3,0.1,0.6c0,1-0.9,1.8-1.9,1.8c-0.8,0-1.3-0.4-1.7-1.2l-2-4.7H833v4.1c0,1.1-0.7,1.8-1.8,1.8
		s-1.8-0.7-1.8-1.8v-12.8c0-1.1,0.7-1.8,1.8-1.8h4.3c1.6,0,3,0.5,4,1.4c1.1,1,1.6,2.2,1.6,3.7c0,2.1-0.8,3.5-2.4,4.5L840.6,117.3z
		 M833,106.5v4.2h2c1.5,0,2.3-0.8,2.3-2.1c0-1.3-0.9-2.1-2.3-2.1H833z"/>
	<path d="M850.8,117.9c-0.3,1.1-1.2,1.9-2.4,1.9s-2.1-0.7-2.4-1.9l-3.5-12.2c-0.1-0.2-0.1-0.4-0.1-0.6c0-1,0.8-1.8,1.8-1.8
		c0.9,0,1.6,0.6,1.8,1.4l2.5,9.9l2.6-10c0.2-0.8,0.9-1.4,1.7-1.4c1,0,1.8,0.8,1.8,1.8c0,0.1,0,0.3-0.1,0.5L850.8,117.9z"/>
	<path d="M861.7,103.3h3.3c1,0,1.6,0.6,1.6,1.6v11.6h1.5c2-0.1,2,3.3,0,3.1h-6.5c-0.9,0-1.5-0.7-1.5-1.6s0.6-1.6,1.5-1.6h1.4v-9.9
		h-1.3c-0.5,0-0.8-0.1-1.1-0.4C859.7,105.2,860.3,103.2,861.7,103.3z"/>
	<path d="M880.9,116.3c1,0,1.6,0.7,1.6,1.7s-0.6,1.6-1.6,1.6h-8.4c-0.8,0-1.4-0.5-1.4-1.4v-0.1c0-1.2,0.1-2.3,0.5-3.1
		c0.3-0.8,1-1.6,2-2.3l3-2c1.2-0.8,1.8-1.7,1.8-2.8c0-1-0.6-1.6-1.8-1.6c-1,0-1.7,0.5-2,1.4c-0.3,0.7-0.8,1.1-1.7,1.1
		c-1,0-1.7-0.8-1.6-1.7c0.1-1.2,0.7-2.1,1.8-2.9c1.1-0.7,2.3-1.1,3.7-1.1c3.3,0,5.4,1.8,5.4,4.7c0,2.4-1.1,4-3.2,5.3l-2.8,1.9
		c-0.6,0.4-0.9,0.8-1,1.4h5.7V116.3z"/>
	<path d="M889.3,109.9h0.2c1.4,0,1.9-0.5,1.9-1.8c0-1.2-0.7-1.8-1.8-1.8c-0.9,0-1.3,0.3-1.7,1.1c-0.4,0.8-1,1.2-1.7,1.2
		c-1,0-1.7-0.8-1.7-1.7c0-0.2,0-0.4,0.1-0.6c0.7-2,2.6-3.3,5.1-3.3c3.2,0,5.2,1.9,5.2,4.6c0,1.6-0.6,2.7-1.7,3.5c1.3,0.7,2,2,2,3.9
		c0,2.9-2.2,4.8-5.6,4.8c-2.9,0-4.8-1.5-5.3-3.9c-0.3-1.3,0.6-2.2,1.7-2.2c1,0,1.6,0.4,1.7,1.3c0.2,1.1,0.8,1.6,1.9,1.6
		c1.3,0,2-0.7,2-2.1s-0.7-2-2.1-2h-0.2c-0.7,0-1.3-0.6-1.3-1.4C888,110.5,888.6,109.9,889.3,109.9z"/>
</g>
</svg>
