<svg id="Layer_1" data-name="Layer 1" xmlns="http://www.w3.org/2000/svg" xmlns:xlink="http://www.w3.org/1999/xlink" viewBox="0 0 300 250"><defs><style>.cls-1{fill:none;}.cls-2{clip-path:url(#clip-path);}.cls-3{clip-path:url(#clip-path-2);}.cls-4{fill:#f57d20;}.cls-5{fill:#fff;}</style><clipPath id="clip-path"><rect class="cls-1" x="-320" width="300" height="250"/></clipPath><clipPath id="clip-path-2"><rect class="cls-1" width="300" height="250"/></clipPath></defs><title>CTA</title><g class="cls-3"><g class="cls-3"><g class="cls-3"><rect class="cls-4" x="44.17" y="192.53" width="211.65" height="32.25" rx="13.59"/></g><path class="cls-5" d="M58.74,198.43h5.6c3.43,0,5.43,1.94,5.43,6,0,3-1,4.7-2.53,5.43L70,219.11H66.2l-2.26-8.41H62.4v8.41H58.74ZM64.05,208c1.31,0,2-1,2-3.25,0-2-.61-3.22-2.06-3.22H62.4V208Z"/><path class="cls-5" d="M72.79,198.43h9.48v3.1H76.41v5.34h4.67V210H76.41v6H82.3v3.13H72.79Z"/><path class="cls-5" d="M91.87,219.29a5.16,5.16,0,0,1-1.13.11c-3.42,0-5.77-1.74-5.77-5.45V203.56c0-3.56,2.49-5.45,5.77-5.45s5.77,1.68,5.77,5.34v10.41a4.86,4.86,0,0,1-1.27,3.57l2,1.33L95,221.61Zm1-5.28V203.36a2,2,0,0,0-2.12-2.06,1.92,1.92,0,0,0-2,2.12V214a2.08,2.08,0,1,0,4.15,0Z"/><path class="cls-5" d="M99.45,214.12V198.43h3.71V214a2,2,0,0,0,2,2.26c1.31,0,2-.9,2-2.23V198.43h3.48V214c0,3.48-2.4,5.42-5.68,5.42S99.45,217.75,99.45,214.12Z"/><path class="cls-5" d="M113.87,198.43h9.48v3.1h-5.86v5.34h4.67V210h-4.67v6h5.89v3.13h-9.51Z"/><path class="cls-5" d="M125.35,213.66l3.43-.12c.14,1.42.55,2.9,2,2.9,1.3,0,1.71-1.13,1.71-2.17s-.73-2.15-1.92-3.31l-2.06-2.15c-1.76-1.71-2.87-3.39-2.87-5.56a4.88,4.88,0,0,1,5.22-5.17c2.53,0,4.79,1.34,5,5.6l-3.22.12c-.17-1.63-.6-2.76-1.91-2.76-1.07,0-1.65.81-1.65,1.94s1.1,2.21,2.11,3.22l1.92,2c1.91,1.88,3,3.65,3,5.94a5,5,0,0,1-5.31,5.31C127.5,219.4,125.56,217.23,125.35,213.66Z"/><path class="cls-5" d="M141.48,201.53h-3.91v-3.1h11.48v3.1h-3.88v17.58h-3.69Z"/><path class="cls-5" d="M159.82,198.4h5l4,20.71h-3.68l-1-5h-4.27l-.92,5h-3.4Zm3.8,12.74-1.48-8.59h-.09l-1.54,8.59Z"/><path class="cls-5" d="M182.88,219.29a5.22,5.22,0,0,1-1.13.11c-3.42,0-5.77-1.74-5.77-5.45V203.56c0-3.56,2.49-5.45,5.77-5.45s5.77,1.68,5.77,5.34v10.41a4.86,4.86,0,0,1-1.27,3.57l2,1.33L186,221.61Zm1-5.28V203.36a2,2,0,0,0-2.12-2.06,1.92,1.92,0,0,0-2,2.12V214a2.08,2.08,0,1,0,4.15,0Z"/><path class="cls-5" d="M190.46,214.12V198.43h3.71V214a2,2,0,0,0,2,2.26c1.3,0,2-.9,2-2.23V198.43h3.48V214c0,3.48-2.41,5.42-5.68,5.42S190.46,217.75,190.46,214.12Z"/><path class="cls-5" d="M204.64,214V203.56c0-3.56,2.5-5.45,5.77-5.45s5.75,1.68,5.75,5.34v10.41c0,3.74-2.55,5.54-5.77,5.54C207,219.4,204.64,217.66,204.64,214Zm7.81.06V203.36a2.05,2.05,0,1,0-4.1.06V214a2.05,2.05,0,1,0,4.1,0Z"/><path class="cls-5" d="M222,201.53H218v-3.1h11.49v3.1h-3.88v17.58H222Z"/><path class="cls-5" d="M232,198.43h9.48v3.1h-5.86v5.34h4.67V210h-4.67v6h5.89v3.13H232Z"/></g></g></svg>