<svg viewBox="0 0 300 250" xmlns="http://www.w3.org/2000/svg" xmlns:xlink="http://www.w3.org/1999/xlink"><clipPath id="a"><path d="m0 0h300v250h-300z"/></clipPath><g clip-path="url(#a)"><g clip-path="url(#a)"><g clip-path="url(#a)"><path d="m23.71 121.5a6.67 6.67 0 1 0 -6.71-6.67 6.64 6.64 0 0 0 6.71 6.67" fill="#f57d20"/></g><g fill="#f57d20"><path d="m42.92 76.42h6.42v29.15h10.44v5.21h-16.86z"/><path d="m63.43 76.42h6.48v34.36h-6.48z"/><path d="m74.33 102.54v-18c0-5.44 4.38-8.62 10.13-8.62 5.4 0 9.78 2.84 9.78 7.85v3.63h-6v-3.18c0-2-1.54-3.18-3.7-3.18a3.36 3.36 0 0 0 -3.65 3.67v17.68a3.32 3.32 0 0 0 3.68 3.61c2.52 0 3.44-1.34 3.44-3.22v-5.55h-4.01v-4.62h10.29v10.46c0 5.15-3.76 8.19-9.72 8.19s-10.24-2.94-10.24-8.72z"/><path d="m98.66 76.42h6.48v14.16h7.09v-14.16h6.43v34.36h-6.43v-14.65h-7.09v14.65h-6.48z"/><path d="m129 81.57h-6.94v-5.15h20.36v5.15h-6.89v29.21h-6.53z"/><path d="m144.42 76.42h6.43l3 21.68h.1l3.5-21.68h6.22l3.38 21.58h.1l3-21.59h5.75l-5.71 34.59h-6.07l-3.7-23h-.21l-3.8 23h-6.17z"/><path d="m179.08 76.42h16.82v5.15h-10.39v8.87h8.28v5.2h-8.28v9.93h10.49v5.21h-16.92z"/><path d="m200.07 76.42h6.47v34.36h-6.47z"/><path d="m211 102.54v-18c0-5.44 4.37-8.62 10.13-8.62 5.4 0 9.77 2.84 9.77 7.85v3.63h-6v-3.18c0-2-1.54-3.18-3.7-3.18a3.36 3.36 0 0 0 -3.65 3.67v17.68a3.32 3.32 0 0 0 3.65 3.61c2.52 0 3.45-1.34 3.45-3.22v-5.55h-4v-4.62h10.29v10.46c0 5.15-3.75 8.19-9.72 8.19s-10.22-2.94-10.22-8.72z"/><path d="m235.29 76.42h6.48v14.16h7.1v-14.16h6.42v34.36h-6.42v-14.65h-7.1v14.65h-6.48z"/><path d="m265.63 81.57h-6.94v-5.15h20.36v5.15h-6.89v29.21h-6.53z"/></g><path d="m42.14 141.7a10.74 10.74 0 0 1 5.86-9.93c-1.49-2.46-3-5.2-3-8 0-4.19 2.58-8 8.28-8 5 0 7.87 3 7.87 7.52a10.73 10.73 0 0 1 -5.76 9.44c.26.53 3.76 5.84 4 6.37a33.46 33.46 0 0 0 1-4.73l4.83.53a34 34 0 0 1 -3 9.26c.31.67 3.81 5.83 4.06 6.55h-6.7l-1.75-2.71a9.64 9.64 0 0 1 -7.3 3.42c-5.61-.04-8.39-3.99-8.39-9.72zm13.32 2.41c-.36-.77-4.73-7.47-5-8.24-1.64 1.15-2.21 3.13-2.21 5.35 0 2.5 1 5.11 3.6 5.11a4.69 4.69 0 0 0 3.61-2.22zm.41-20.72c0-1.88-.92-3.28-2.46-3.28-1.8 0-2.52 1.59-2.52 3.13s.82 3.38 2.21 5.74a6.45 6.45 0 0 0 2.77-5.59z" fill="#fff"/><path d="m76.6 142.61v-18.11c0-5.5 4.42-8.63 10.18-8.63 5.4 0 9.41 3 9.41 8v3.81h-5.86v-3.23c0-2-1.34-3.33-3.55-3.33-2.52 0-3.6 1.45-3.6 3.52v17.64c0 2.36 1.34 3.61 3.65 3.61 2.16 0 3.5-1.3 3.5-3.23v-3.23h5.86v3.57c0 5.16-4 8.24-9.46 8.24-5.92 0-10.13-2.84-10.13-8.63z" fill="#fff"/><path d="m100 142.18v-17.25c0-5.93 4.42-9.06 10.23-9.06 5.65 0 10.18 2.8 10.18 8.87v17.26c0 6.21-4.53 9.2-10.23 9.2-6.12.04-10.18-2.85-10.18-9.02zm13.83.1v-17.69c0-2.12-1.39-3.42-3.65-3.42a3.26 3.26 0 0 0 -3.6 3.52v17.59a3.63 3.63 0 0 0 7.25 0z" fill="#fff"/><path d="m124.78 116.4h8.22l4.42 14h.1l4.53-14h7.82v34.36h-5.76v-24.91h-.11l-4.42 14.55h-4.42l-4.53-14.51h-.1v24.87h-5.71z" fill="#fff"/><path d="m154.66 116.4h10.34c6 0 8.84 3.81 8.84 10.36 0 6.89-2.78 11.13-9.1 11.13h-3.6v12.87h-6.48zm9.15 16.48c2.47 0 3.71-2 3.71-6 0-3.52-1-5.45-3.6-5.45h-2.78v11.42z" fill="#fff"/><path d="m181.86 116.35h8.85l7.15 34.41h-6.54l-1.69-8.34h-7.56l-1.65 8.34h-6zm6.74 21.16-2.6-14.27h-.16l-2.72 14.27z" fill="#fff"/><path d="m200.53 142.61v-18.11c0-5.5 4.42-8.63 10.18-8.63 5.4 0 9.41 3 9.41 8v3.81h-5.86v-3.23c0-2-1.34-3.33-3.55-3.33-2.52 0-3.6 1.45-3.6 3.52v17.64c0 2.36 1.34 3.61 3.65 3.61 2.16 0 3.5-1.3 3.5-3.23v-3.23h5.86v3.57c0 5.16-4 8.24-9.46 8.24-5.91 0-10.13-2.84-10.13-8.63z" fill="#fff"/><path d="m229.12 121.56h-6.94v-5.16h20.36v5.16h-6.89v29.2h-6.53z" fill="#fff"/></g></g></svg>