<svg id="Layer_1" data-name="Layer 1" xmlns="http://www.w3.org/2000/svg" xmlns:xlink="http://www.w3.org/1999/xlink" viewBox="0 0 300 250"><defs><style>.cls-1,.cls-4{fill:none;}.cls-2{clip-path:url(#clip-path);}.cls-3{fill:#fff;}.cls-4{stroke:#f57d20;stroke-width:6.97px;}.cls-5{clip-path:url(#clip-path-4);}.cls-6{opacity:0.48;}.cls-7{clip-path:url(#clip-path-7);}</style><clipPath id="clip-path"><rect class="cls-1" width="300" height="250"/></clipPath><clipPath id="clip-path-4"><rect class="cls-1" x="320" width="300" height="250"/></clipPath><clipPath id="clip-path-7"><rect class="cls-1" x="132.29" y="-125.78" width="464.62" height="617.8"/></clipPath></defs><title>slide1a</title><g class="cls-2"><g class="cls-2"><path class="cls-3" d="M149,18.42a.63.63,0,0,1,.64-.64h3.31a.63.63,0,0,1,.64.64V49.29a.63.63,0,0,1-.64.64h-3.31a.63.63,0,0,1-.64-.64Zm9.64,11.71V23.06a1.2,1.2,0,0,0-1.15-1.15h-1.37a.63.63,0,0,1-.65-.64V18.42a.63.63,0,0,1,.65-.64h2.57a4.73,4.73,0,0,1,3.21,1.33,4.44,4.44,0,0,1,1.33,3.26v7.76a4.6,4.6,0,0,1-1.28,3.22,4.65,4.65,0,0,1-1.7,1l4,14.74a.64.64,0,0,1-.6.83h-3.4a.72.72,0,0,1-.64-.51L155.46,34V32a.63.63,0,0,1,.65-.64h1.33A1.27,1.27,0,0,0,158.63,30.13Z"/><path class="cls-3" d="M168.05,49.93a.63.63,0,0,1-.65-.64V18.42a.63.63,0,0,1,.65-.64h10.19a.63.63,0,0,1,.65.64v2.85a.63.63,0,0,1-.65.64H172v9.42h5a.63.63,0,0,1,.64.64v2.85a.63.63,0,0,1-.64.64h-5V45.8h6.24a.63.63,0,0,1,.65.64v2.85a.63.63,0,0,1-.65.64Z"/><path class="cls-3" d="M180.31,49.93a.61.61,0,0,1-.64-.74l4.68-26.63a.66.66,0,0,1,1.29,0c.27,2.38.41,3.62,1.19,9.6l-1.24,8.58h1.66a.69.69,0,0,1,.64.6l.36,2.8a.62.62,0,0,1-.64.74H185l-.64,4.5a.64.64,0,0,1-.64.55ZM189,34.77l-1.88-16.26a.63.63,0,0,1,.64-.73h2c.28,0,.65.28.65.55l2.71,15.43,2.75,15.43a.61.61,0,0,1-.64.74h-3.4a.69.69,0,0,1-.64-.55Z"/><path class="cls-3" d="M205.57,49.93a.63.63,0,0,1-.64-.64V46.44a.71.71,0,0,1,.55-.64,1.23,1.23,0,0,0,1-1.15V39.32a2.8,2.8,0,0,0-1.15-2.25l-4-2.62c-2.3-1.51-4.55-3.21-4.55-6.29V22.37a4.63,4.63,0,0,1,4.6-4.59h1a.63.63,0,0,1,.64.64v2.85a.67.67,0,0,1-.55.64,1.31,1.31,0,0,0-1.05,1.15v4.36a2.64,2.64,0,0,0,1.1,2.25l3.86,2.49c2.48,1.6,4.68,3.35,4.68,6.52v6.66a4.37,4.37,0,0,1-1.33,3.21,4.62,4.62,0,0,1-3.26,1.38Zm-3.12-4.13a.67.67,0,0,1,.59.64v2.85a.63.63,0,0,1-.64.64h-1a4.63,4.63,0,0,1-4.6-4.59v-4a.64.64,0,0,1,.65-.65h3.3a.64.64,0,0,1,.65.65v3.26A1.15,1.15,0,0,0,202.45,45.8Zm3-23.84a.73.73,0,0,1-.55-.64v-2.9a.63.63,0,0,1,.64-.64h.92a4.62,4.62,0,0,1,3.26,1.38,4.37,4.37,0,0,1,1.33,3.21v3.95a.63.63,0,0,1-.64.65h-3.31a.63.63,0,0,1-.64-.65V23.06A1.22,1.22,0,0,0,205.48,22Z"/><path class="cls-3" d="M218.61,17.78h.92a.63.63,0,0,1,.64.64v2.9a.73.73,0,0,1-.55.64,1.22,1.22,0,0,0-1,1.1V44.65a1.23,1.23,0,0,0,1,1.15.71.71,0,0,1,.55.64v2.85a.63.63,0,0,1-.64.64h-.92a4.62,4.62,0,0,1-3.26-1.38A4.37,4.37,0,0,1,214,45.34v-23a4.37,4.37,0,0,1,1.33-3.21A4.62,4.62,0,0,1,218.61,17.78Zm5,5.28a1.31,1.31,0,0,0-1-1.15.71.71,0,0,1-.55-.64V18.42a.63.63,0,0,1,.64-.64h1a4.63,4.63,0,0,1,4.6,4.59v23a4.63,4.63,0,0,1-4.6,4.59h-1a.63.63,0,0,1-.64-.64V46.44a.67.67,0,0,1,.59-.64,1.15,1.15,0,0,0,1-1.15Z"/><path class="cls-3" d="M232.85,49.93a.63.63,0,0,1-.64-.64v-22a.65.65,0,0,1,1.24-.23l3,9.42.32,5.1v7.67a.63.63,0,0,1-.64.64Zm14.7-.87a.63.63,0,0,1-.6.87h-3.21a.7.7,0,0,1-.6-.41L232.53,18.65a.63.63,0,0,1,.6-.87h3.21a.7.7,0,0,1,.6.41Zm.32-8.55a.64.64,0,0,1-1.24.23l-3-9.37-.32-3.76V18.42a.63.63,0,0,1,.64-.64h3.31a.63.63,0,0,1,.64.64Z"/><path class="cls-3" d="M260,49.93a.63.63,0,0,1-.64-.64V46.44a.71.71,0,0,1,.55-.64,1.23,1.23,0,0,0,1-1.15V39.32a2.8,2.8,0,0,0-1.15-2.25l-3.95-2.62c-2.3-1.51-4.55-3.21-4.55-6.29V22.37a4.63,4.63,0,0,1,4.6-4.59h1a.63.63,0,0,1,.64.64v2.85a.67.67,0,0,1-.55.64,1.31,1.31,0,0,0-1,1.15v4.36a2.64,2.64,0,0,0,1.1,2.25l3.86,2.49c2.48,1.6,4.68,3.35,4.68,6.52v6.66a4.37,4.37,0,0,1-1.33,3.21A4.62,4.62,0,0,1,261,49.93Zm-3.12-4.13a.67.67,0,0,1,.59.64v2.85a.63.63,0,0,1-.64.64h-1a4.63,4.63,0,0,1-4.6-4.59v-4a.64.64,0,0,1,.65-.65h3.3a.64.64,0,0,1,.65.65v3.26A1.15,1.15,0,0,0,256.92,45.8ZM260,22a.73.73,0,0,1-.55-.64v-2.9a.63.63,0,0,1,.64-.64H261a4.62,4.62,0,0,1,3.26,1.38,4.37,4.37,0,0,1,1.33,3.21v3.95a.63.63,0,0,1-.64.65H261.6a.63.63,0,0,1-.64-.65V23.06A1.22,1.22,0,0,0,260,22Z"/><path class="cls-3" d="M151.56,88.88a.63.63,0,0,1-.64-.65V60.86H147a.63.63,0,0,1-.65-.64V57.37a.63.63,0,0,1,.65-.64h12.49a.62.62,0,0,1,.64.64v2.85a.63.63,0,0,1-.64.64h-4V88.23a.63.63,0,0,1-.64.65Z"/><path class="cls-3" d="M166,56.73h.92a.62.62,0,0,1,.64.64v2.89a.73.73,0,0,1-.55.65,1.21,1.21,0,0,0-1,1.1V83.6a1.21,1.21,0,0,0,1,1.14.73.73,0,0,1,.55.65v2.84a.63.63,0,0,1-.64.65H166a4.6,4.6,0,0,1-3.26-1.38,4.38,4.38,0,0,1-1.33-3.22v-23a4.39,4.39,0,0,1,1.33-3.22A4.63,4.63,0,0,1,166,56.73ZM171,62A1.3,1.3,0,0,0,170,60.86a.74.74,0,0,1-.56-.64V57.37a.63.63,0,0,1,.65-.64h1a4.33,4.33,0,0,1,3.22,1.33,4.25,4.25,0,0,1,1.37,3.26v23a4.63,4.63,0,0,1-4.59,4.6h-1a.64.64,0,0,1-.65-.65V85.39a.69.69,0,0,1,.6-.65,1.13,1.13,0,0,0,1-1.14Z"/><path class="cls-3" d="M189.72,84.74a.75.75,0,0,1,.56.65v2.84a.64.64,0,0,1-.65.65h-.92a4.68,4.68,0,0,1-3.12-1.24,4.56,4.56,0,0,1-1.47-3.36v-23a4.61,4.61,0,0,1,1.29-3.17,4.44,4.44,0,0,1,3.3-1.42h.92a.63.63,0,0,1,.65.64v2.89a.75.75,0,0,1-.56.65,1.21,1.21,0,0,0-1,1.1V83.6A1.21,1.21,0,0,0,189.72,84.74Zm3-23.88a.73.73,0,0,1-.55-.64V57.37a.62.62,0,0,1,.64-.64h1a4.44,4.44,0,0,1,3.3,1.42,4.61,4.61,0,0,1,1.29,3.17v3.95a.63.63,0,0,1-.64.64h-3.31a.62.62,0,0,1-.64-.64V62A1.31,1.31,0,0,0,192.71,60.86Zm.09,28a.63.63,0,0,1-.64-.65V85.39a.65.65,0,0,1,.55-.65,1.26,1.26,0,0,0,1.06-1.14V80.33a.63.63,0,0,1,.64-.64h3.31a.63.63,0,0,1,.64.64v4a4.52,4.52,0,0,1-1.42,3.31,4.64,4.64,0,0,1-3.17,1.29Z"/><path class="cls-3" d="M204.93,56.73a.63.63,0,0,1,.64.64V88.23a.63.63,0,0,1-.64.65h-3.31a.63.63,0,0,1-.64-.65V57.37a.62.62,0,0,1,.64-.64Zm6.33,32.15a.63.63,0,0,1-.64-.65V74.41H208.1a.63.63,0,0,1-.65-.64V70.92a.63.63,0,0,1,.65-.64h2.52V57.37a.63.63,0,0,1,.64-.64h3.31a.62.62,0,0,1,.64.64V88.23a.63.63,0,0,1-.64.65Z"/><path class="cls-3" d="M223.76,56.73h.92a.63.63,0,0,1,.64.64v2.89a.75.75,0,0,1-.55.65,1.21,1.21,0,0,0-1,1.1V83.6a1.21,1.21,0,0,0,1,1.14.75.75,0,0,1,.55.65v2.84a.63.63,0,0,1-.64.65h-.92a4.58,4.58,0,0,1-3.26-1.38,4.34,4.34,0,0,1-1.33-3.22v-23a4.35,4.35,0,0,1,1.33-3.22A4.62,4.62,0,0,1,223.76,56.73ZM228.81,62a1.31,1.31,0,0,0-1.06-1.15.75.75,0,0,1-.55-.64V57.37a.63.63,0,0,1,.65-.64h1a4.61,4.61,0,0,1,4.59,4.59v23a4.63,4.63,0,0,1-4.59,4.6h-1a.64.64,0,0,1-.65-.65V85.39a.69.69,0,0,1,.6-.65,1.13,1.13,0,0,0,1-1.14Z"/><path class="cls-3" d="M241.44,56.73h.92a.62.62,0,0,1,.64.64v2.89a.73.73,0,0,1-.55.65,1.21,1.21,0,0,0-1,1.1V83.6a1.21,1.21,0,0,0,1,1.14.73.73,0,0,1,.55.65v2.84a.63.63,0,0,1-.64.65h-.92a4.58,4.58,0,0,1-3.26-1.38,4.38,4.38,0,0,1-1.33-3.22v-23a4.39,4.39,0,0,1,1.33-3.22A4.62,4.62,0,0,1,241.44,56.73ZM246.49,62a1.3,1.3,0,0,0-1.05-1.15.74.74,0,0,1-.56-.64V57.37a.63.63,0,0,1,.65-.64h1a4.61,4.61,0,0,1,4.59,4.59v23a4.3,4.3,0,0,1-1.33,3.22,4.25,4.25,0,0,1-3.26,1.38h-1a.64.64,0,0,1-.65-.65V85.39a.69.69,0,0,1,.6-.65,1.13,1.13,0,0,0,1-1.14Z"/><path class="cls-3" d="M262.75,88.88a.63.63,0,0,1-.64-.65V85.39a.73.73,0,0,1,.55-.65,1.21,1.21,0,0,0,1-1.14V78.27A2.8,2.8,0,0,0,262.52,76l-3.95-2.62c-2.3-1.52-4.55-3.22-4.55-6.29V61.32a4.26,4.26,0,0,1,1.38-3.26,4.31,4.31,0,0,1,3.22-1.33h1a.62.62,0,0,1,.64.64v2.85a.68.68,0,0,1-.55.64A1.3,1.3,0,0,0,258.62,62v4.36a2.64,2.64,0,0,0,1.1,2.25l3.86,2.48c2.48,1.61,4.68,3.36,4.68,6.52v6.66a4.38,4.38,0,0,1-1.33,3.22,4.6,4.6,0,0,1-3.26,1.38Zm-3.12-4.14a.68.68,0,0,1,.59.65v2.84a.63.63,0,0,1-.64.65h-1a4.64,4.64,0,0,1-4.6-4.6v-4a.63.63,0,0,1,.65-.64H258a.63.63,0,0,1,.65.64V83.6A1.13,1.13,0,0,0,259.63,84.74Zm3-23.83a.73.73,0,0,1-.55-.65V57.37a.62.62,0,0,1,.64-.64h.92a4.63,4.63,0,0,1,3.26,1.37,4.39,4.39,0,0,1,1.33,3.22v3.95a.62.62,0,0,1-.64.64h-3.31a.62.62,0,0,1-.64-.64V62A1.21,1.21,0,0,0,262.66,60.91Z"/><path class="cls-3" d="M272.3,88.88a.63.63,0,0,1-.64-.65V57.37a.63.63,0,0,1,.64-.64h10.2a.62.62,0,0,1,.64.64v2.85a.63.63,0,0,1-.64.64h-6.25v9.42h5a.63.63,0,0,1,.65.64v2.85a.63.63,0,0,1-.65.64h-5V84.74h6.25a.63.63,0,0,1,.64.65v2.84a.63.63,0,0,1-.64.65Z"/><path class="cls-3" d="M149.63,127.82a.62.62,0,0,1-.64-.64v-20.9a.64.64,0,0,1,1.24-.18l2.94,9.46v11.62a.63.63,0,0,1-.65.64Zm8.41-4.59a.76.76,0,0,1-.6-.46L149.22,96.5a.6.6,0,0,1,.59-.83h3a.76.76,0,0,1,.6.46l6,19.48h.46l2.71-8.73a.64.64,0,0,1,1.24.18v8.13l-2.39,7.58a.76.76,0,0,1-.6.46Zm8.35,4.59a.63.63,0,0,1-.64-.64V96.32a.63.63,0,0,1,.64-.65h2.9a.63.63,0,0,1,.64.65v30.86a.62.62,0,0,1-.64.64Z"/><path class="cls-3" d="M175,127.82a.63.63,0,0,1-.65-.64V96.32a.64.64,0,0,1,.65-.65h10.19a.64.64,0,0,1,.65.65v2.84a.64.64,0,0,1-.65.65H179v9.41h5a.63.63,0,0,1,.64.65v2.84a.63.63,0,0,1-.64.65h-5v10.33h6.24a.63.63,0,0,1,.65.64v2.85a.63.63,0,0,1-.65.64Z"/><path class="cls-3" d="M188.67,96.32a.63.63,0,0,1,.64-.65h3.31a.63.63,0,0,1,.64.65v30.86a.62.62,0,0,1-.64.64h-3.31a.62.62,0,0,1-.64-.64ZM198.31,108V101a1.2,1.2,0,0,0-1.14-1.15h-1.38a.64.64,0,0,1-.65-.65V96.32a.64.64,0,0,1,.65-.65h2.57A4.74,4.74,0,0,1,201.57,97a4.44,4.44,0,0,1,1.34,3.26V108a4.58,4.58,0,0,1-1.29,3.21,4.65,4.65,0,0,1-1.7,1l4,14.75a.63.63,0,0,1-.6.82h-3.4a.74.74,0,0,1-.64-.5l-4.14-15.43v-2a.64.64,0,0,1,.65-.65h1.33A1.27,1.27,0,0,0,198.31,108Z"/><path class="cls-3" d="M212.18,123.69a.73.73,0,0,1,.55.64v2.85a.62.62,0,0,1-.64.64h-.92a4.63,4.63,0,0,1-3.12-1.24,4.52,4.52,0,0,1-1.47-3.35v-23a4.61,4.61,0,0,1,1.29-3.17,4.45,4.45,0,0,1,3.3-1.43h.92a.63.63,0,0,1,.64.65v2.89a.71.71,0,0,1-.55.64,1.23,1.23,0,0,0-1,1.11v21.58A1.22,1.22,0,0,0,212.18,123.69Zm3-23.88a.73.73,0,0,1-.55-.65V96.32a.63.63,0,0,1,.64-.65h1a4.48,4.48,0,0,1,3.31,1.43,4.61,4.61,0,0,1,1.29,3.17v4a.63.63,0,0,1-.65.64h-3.3a.63.63,0,0,1-.65-.64V101A1.3,1.3,0,0,0,215.17,99.81Zm.09,28a.62.62,0,0,1-.64-.64v-2.85a.65.65,0,0,1,.55-.64,1.26,1.26,0,0,0,1.05-1.15v-3.26a.63.63,0,0,1,.65-.64h3.3a.63.63,0,0,1,.65.64v4a4.49,4.49,0,0,1-1.43,3.31,4.64,4.64,0,0,1-3.17,1.28Z"/><path class="cls-3" d="M229.08,123.69a.68.68,0,0,1,.6.64v2.85a.62.62,0,0,1-.64.64h-1a4.65,4.65,0,0,1-3.26-1.37,4.39,4.39,0,0,1-1.33-3.22V96.32a.63.63,0,0,1,.64-.65h3.31a.63.63,0,0,1,.64.65v26.22A1.19,1.19,0,0,0,229.08,123.69Zm3.13,4.13a.63.63,0,0,1-.65-.64v-2.85a.74.74,0,0,1,.56-.64,1.22,1.22,0,0,0,1-1.1V96.32a.63.63,0,0,1,.64-.65h3.31a.63.63,0,0,1,.64.65v26.91a4.61,4.61,0,0,1-4.59,4.59Z"/><path class="cls-3" d="M242,96.32a.63.63,0,0,1,.64-.65h3.31a.63.63,0,0,1,.64.65v30.86a.62.62,0,0,1-.64.64h-3.31a.63.63,0,0,1-.64-.64ZM251.64,108V101a1.21,1.21,0,0,0-1.15-1.15h-1.38a.63.63,0,0,1-.64-.65V96.32a.63.63,0,0,1,.64-.65h2.57A4.78,4.78,0,0,1,254.9,97a4.47,4.47,0,0,1,1.33,3.26V108a4.26,4.26,0,0,1-3,4.22l4,14.75a.63.63,0,0,1-.6.82h-3.4a.74.74,0,0,1-.64-.5l-4.13-15.43v-2a.63.63,0,0,1,.64-.65h1.33A1.29,1.29,0,0,0,251.64,108Z"/><path class="cls-3" d="M263.16,127.82a.62.62,0,0,1-.64-.64V113.31c-1.79-5.6-3.58-11.21-5.42-16.81a.6.6,0,0,1,.6-.83h3.21a.76.76,0,0,1,.6.46l5.6,17.41v13.64a.62.62,0,0,1-.64.64Zm5.51-19.38a.62.62,0,0,1-1.19,0l-1.38-4.22,2.21-8.09a.64.64,0,0,1,.64-.46h3a.6.6,0,0,1,.6.83Z"/><g class="cls-2"><path class="cls-3" d="M59,88.57h8.55a2.2,2.2,0,0,1,2.25,2.26v10a2.2,2.2,0,0,1-2.25,2.26H46a2.2,2.2,0,0,1-2.25-2.26V90.51L75.81,26.34a3,3,0,0,1,2.09-1.29h9A2.2,2.2,0,0,1,89,28.28ZM76.45,68.9,88.22,45.37a2.29,2.29,0,0,1,4.35,1V88.57h8.55a2.2,2.2,0,0,1,2.25,2.26v10a2.2,2.2,0,0,1-2.25,2.26H92.57v16.44a2.2,2.2,0,0,1-2.25,2.26H78.71a2.21,2.21,0,0,1-2.26-2.26Z"/></g><polyline class="cls-4" points="34.16 20.55 18.36 20.55 18.36 125.35 34.16 125.35"/><polyline class="cls-4" points="116.16 20.55 131.97 20.55 131.97 125.35 116.16 125.35"/></g></g><g class="cls-5"><g class="cls-5"><g class="cls-5"><g class="cls-6"><g class="cls-7"><polygon points="378.63 260.87 299.93 441.44 301.32 442.04 380.02 261.47 458.72 80.9 511.19 -39.48 509.8 -40.09 457.33 80.29 378.63 260.87"/><polygon points="373.98 258.84 295.28 439.41 296.72 440.04 375.42 259.47 454.13 78.89 506.6 -41.49 505.15 -42.12 452.69 78.27 373.98 258.84"/><polygon points="369.33 256.81 290.63 437.38 292.13 438.04 370.84 257.47 449.54 76.89 502.01 -43.49 500.5 -44.15 448.03 76.24 369.33 256.81"/><polygon points="364.67 254.78 285.97 435.35 287.55 436.04 366.25 255.47 444.95 74.89 497.42 -45.49 495.84 -46.17 443.38 74.21 364.67 254.78"/><polygon points="360.02 252.75 281.32 433.33 282.95 434.04 361.65 253.47 440.36 72.89 492.83 -47.49 491.19 -48.2 438.73 72.18 360.02 252.75"/><polygon points="355.37 250.73 276.67 431.3 278.36 432.04 357.07 251.47 435.77 70.89 488.24 -49.49 486.54 -50.23 434.07 70.15 355.37 250.73"/><polygon points="350.71 248.7 272.01 429.27 273.78 430.04 352.48 249.47 431.18 68.89 483.65 -51.49 481.88 -52.26 429.42 68.12 350.71 248.7"/><polygon points="346.06 246.67 267.35 427.24 269.19 428.04 347.89 247.47 426.59 66.89 479.06 -53.49 477.23 -54.29 424.76 66.09 346.06 246.67"/><polygon points="341.4 244.64 262.7 425.21 264.6 426.04 343.3 245.47 422.01 64.89 474.48 -55.49 472.57 -56.32 420.1 64.07 341.4 244.64"/><polygon points="336.75 242.61 258.04 423.18 260.01 424.04 338.72 243.47 417.42 62.9 469.89 -57.49 467.92 -58.35 415.45 62.04 336.75 242.61"/><polygon points="332.09 240.58 253.39 421.15 255.43 422.04 334.13 241.47 412.83 60.9 465.3 -59.49 463.26 -60.38 410.79 60.01 332.09 240.58"/><polygon points="406.14 57.98 327.44 238.55 248.74 419.13 250.83 420.04 329.53 239.47 408.24 58.89 460.71 -61.49 458.61 -62.4 406.14 57.98"/><polygon points="322.79 236.53 244.08 417.1 246.24 418.04 324.95 237.47 403.65 56.89 456.12 -63.49 453.96 -64.43 401.49 55.95 322.79 236.53"/><polygon points="318.13 234.5 239.43 415.07 241.66 416.04 320.36 235.47 399.06 54.89 451.53 -65.49 449.3 -66.46 396.83 53.92 318.13 234.5"/><polygon points="313.48 232.47 234.78 413.04 237.06 414.04 315.76 233.47 394.47 52.89 446.94 -67.49 444.65 -68.48 392.18 51.9 313.48 232.47"/><polygon points="308.83 230.44 230.12 411.01 232.47 412.04 311.18 231.47 389.88 50.89 442.35 -69.49 440 -70.51 387.53 49.87 308.83 230.44"/><polygon points="304.17 228.41 225.47 408.98 227.89 410.04 306.59 229.47 385.29 48.89 437.76 -71.49 435.34 -72.54 382.87 47.84 304.17 228.41"/><polygon points="299.51 226.38 220.81 406.95 223.3 408.04 302 227.47 380.7 46.89 433.17 -73.49 430.69 -74.57 378.22 45.81 299.51 226.38"/><polygon points="294.86 224.35 216.16 404.93 218.71 406.04 297.42 225.47 376.12 44.89 428.59 -75.49 426.03 -76.6 373.56 43.78 294.86 224.35"/><polygon points="290.2 222.32 211.5 402.9 214.13 404.04 292.83 223.47 371.53 42.89 424 -77.49 421.38 -78.63 368.91 41.75 290.2 222.32"/><polygon points="285.55 220.29 206.85 400.87 209.54 402.04 288.24 221.47 366.94 40.9 419.41 -79.49 416.72 -80.66 364.25 39.72 285.55 220.29"/><polygon points="280.9 218.27 202.2 398.84 204.94 400.04 283.64 219.47 362.35 38.89 414.82 -81.49 412.07 -82.69 359.6 37.7 280.9 218.27"/><polygon points="276.24 216.24 197.54 396.81 200.35 398.04 279.06 217.47 357.76 36.89 410.23 -83.49 407.42 -84.72 354.95 35.67 276.24 216.24"/><polygon points="271.59 214.21 192.89 394.78 195.77 396.04 274.47 215.47 353.17 34.89 405.64 -85.49 402.76 -86.74 350.29 33.64 271.59 214.21"/><polygon points="266.94 212.19 188.24 392.76 191.17 394.04 269.88 213.47 348.58 32.89 401.05 -87.49 398.11 -88.77 345.64 31.61 266.94 212.19"/><polygon points="262.28 210.16 183.58 390.73 186.59 392.04 265.29 211.46 343.99 30.89 396.46 -89.49 393.45 -90.8 340.99 29.58 262.28 210.16"/><polygon points="257.63 208.13 178.93 388.7 182 390.04 260.7 209.47 339.4 28.89 391.87 -91.49 388.8 -92.83 336.33 27.55 257.63 208.13"/><polygon points="252.97 206.1 174.27 386.67 177.41 388.04 256.11 207.47 334.82 26.89 387.28 -93.49 384.14 -94.86 331.68 25.52 252.97 206.1"/><polygon points="248.32 204.07 169.62 384.64 172.82 386.04 251.53 205.47 330.23 24.89 382.7 -95.49 379.49 -96.89 327.02 23.5 248.32 204.07"/><polygon points="243.66 202.04 164.96 382.61 168.24 384.04 246.94 203.47 325.64 22.89 378.11 -97.49 374.83 -98.92 322.37 21.47 243.66 202.04"/><polygon points="239.01 200.01 160.3 380.58 163.65 382.04 242.35 201.47 321.05 20.89 373.52 -99.49 370.18 -100.94 317.71 19.44 239.01 200.01"/><polygon points="234.36 197.98 155.66 378.56 159.05 380.04 237.76 199.47 316.46 18.89 368.93 -101.49 365.53 -102.97 313.06 17.41 234.36 197.98"/><polygon points="308.4 15.38 229.7 195.95 151 376.53 154.47 378.04 233.17 197.47 311.87 16.89 364.34 -103.49 360.87 -105 308.4 15.38"/></g></g></g></g></g></svg>