<svg id="Layer_1" data-name="Layer 1" xmlns="http://www.w3.org/2000/svg" xmlns:xlink="http://www.w3.org/1999/xlink" viewBox="0 0 640 960"><defs><style>.cls-1{fill:none;}.cls-2{clip-path:url(#clip-path);}.cls-3{fill:#fff;}</style><clipPath id="clip-path"><rect class="cls-1" width="640" height="960"/></clipPath></defs><g class="cls-2"><path class="cls-3" d="M114.12,415.92l20.72,33.44h.32V415.28c0-3,2.16-4.32,4.88-4.32,2.88,0,4.8,1.36,4.8,4.32v40.64c0,6.08-3.84,8.48-7.12,8.48-4.64,0-6.56-2.48-8.24-5.12L108.6,425.76h-.16v34.16c0,3-2.24,4.32-5,4.32-3,0-4.8-1.36-4.8-4.32V419.28c0-6.08,3.68-8.4,7-8.4C110.36,410.88,112.44,413.2,114.12,415.92Z"/><path class="cls-3" d="M191.72,458.8c0,2.4-.72,3.68-3.36,4.4a58.51,58.51,0,0,1-13,1.2c-14.32,0-19-3.52-19-15.12v-10.4c0-12.24,5.2-15.28,18.64-15.28,13.12,0,17.36,3.36,17.36,15v4.56c0,3.44-1.28,4.64-4.24,4.64H166.28v2c0,4.16,2.88,5.76,8.64,5.76,4.32,0,9.68-.72,12.64-.72S191.72,455.76,191.72,458.8Zm-25.44-18.88H182.6v-1.76c0-4.72-1.76-5.92-8.16-5.92-6,0-8.16,1-8.16,5.92Z"/><path class="cls-3" d="M228.76,447V427.92c0-3,2.16-4.16,4.88-4.16s5,1.2,5,4.16v19.6c0,14.88-3.68,16.88-18.08,16.88s-18-2-18-16.88v-19.6c0-3,2.16-4.16,5-4.16s5,1.2,5,4.16V447c0,7.28.72,8.48,8.08,8.48S228.76,454.32,228.76,447Z"/><path class="cls-3" d="M284.6,458.8c0,2.4-.72,3.68-3.36,4.4a58.51,58.51,0,0,1-13,1.2c-14.32,0-19-3.52-19-15.12v-10.4c0-12.24,5.2-15.28,18.64-15.28,13.12,0,17.36,3.36,17.36,15v4.56c0,3.44-1.28,4.64-4.24,4.64H259.16v2c0,4.16,2.88,5.76,8.64,5.76,4.32,0,9.68-.72,12.64-.72S284.6,455.76,284.6,458.8Zm-25.44-18.88h16.32v-1.76c0-4.72-1.76-5.92-8.16-5.92-6,0-8.16,1-8.16,5.92Z"/><path class="cls-3" d="M345.08,443l12.24,12.16c5.6,5.52-2,12.72-7.44,6.88L334,445.12c-4.56-4.88-2.24-10.16,2.48-10.16H340c5,0,6.72-2.16,6.72-7.36S345,421,340,421H325.32v39c0,3-2.4,4.24-5.2,4.24s-5.2-1.2-5.2-4.24V415.92c0-2.88,1.92-4.32,4.8-4.32H340c12.4,0,17.12,3.52,17.12,15.92,0,8.8-2.24,13.28-12.08,15.2Z"/><path class="cls-3" d="M401.4,458.8c0,2.4-.72,3.68-3.36,4.4a58.51,58.51,0,0,1-13,1.2c-14.32,0-19-3.52-19-15.12v-10.4c0-12.24,5.2-15.28,18.64-15.28,13.12,0,17.36,3.36,17.36,15v4.56c0,3.44-1.28,4.64-4.24,4.64H376v2c0,4.16,2.88,5.76,8.64,5.76,4.32,0,9.68-.72,12.64-.72S401.4,455.76,401.4,458.8ZM376,439.92h16.32v-1.76c0-4.72-1.76-5.92-8.16-5.92-6,0-8.16,1-8.16,5.92Z"/><path class="cls-3" d="M417.24,409.2a5.7,5.7,0,0,1,5.68,5.68,5.63,5.63,0,0,1-5.68,5.6,5.5,5.5,0,0,1-5.52-5.6A5.57,5.57,0,0,1,417.24,409.2Zm5,50.88c0,3-2.24,4.16-5,4.16s-5-1.2-5-4.16V428c0-3,2.24-4.24,5-4.24s5,1.28,5,4.24Z"/><path class="cls-3" d="M448.2,418.8c-3,0-3.6.88-3.6,4.16v1.44h7.12c3,0,4,1.92,4,4.56s-1,4.56-4,4.56H444.6v26.56c0,3-2.16,4.16-5,4.16s-4.88-1.2-4.88-4.16V433.52h-3.84c-2.88,0-3.92-1.92-3.92-4.56s1-4.56,3.92-4.56h3.84v-1.2c0-10.4,3-13.2,13.44-13.2,9.28,0,10.64,1.12,10.64,4.88,0,2.72-2,4.16-4.64,4.16C452.76,419,450,418.8,448.2,418.8Z"/><path class="cls-3" d="M494.92,458.8c0,2.4-.72,3.68-3.36,4.4a58.51,58.51,0,0,1-13,1.2c-14.32,0-19-3.52-19-15.12v-10.4c0-12.24,5.2-15.28,18.64-15.28,13.12,0,17.36,3.36,17.36,15v4.56c0,3.44-1.28,4.64-4.24,4.64H469.48v2c0,4.16,2.88,5.76,8.64,5.76,4.32,0,9.68-.72,12.64-.72S494.92,455.76,494.92,458.8Zm-25.44-18.88H485.8v-1.76c0-4.72-1.76-5.92-8.16-5.92-6,0-8.16,1-8.16,5.92Z"/><path class="cls-3" d="M515.72,441v19.12c0,3-2.24,4.16-5,4.16s-5-1.2-5-4.16v-19.6c0-14.88,3.6-16.88,18.08-16.88s18.32,2,18.32,16.88v19.6c0,3-2.24,4.16-5,4.16s-4.88-1.2-4.88-4.16V441c0-7.28-1.12-8.48-8.48-8.48S515.72,433.68,515.72,441Z"/><path class="cls-3" d="M202.52,535.84l-6,4.64v9.6c0,3-2.24,4.16-5,4.16s-5-1.2-5-4.16V504.24c0-3,2.32-4.24,5-4.24s5,1.28,5,4.24v25.92h.16l16-14.56a7.39,7.39,0,0,1,4.48-1.76c3.76,0,6.72,4.48,1.92,8.64l-8.8,7.52,10.56,15c4.8,6.8-3.2,12.56-7.6,6.64Z"/><path class="cls-3" d="M229.72,519.12c0-3.6,3-5.52,15-5.52,14.8,0,18.48,2.32,18.48,13.2v15.12c0,10.56-4.72,12.48-18.48,12.48s-17.28-1.92-17.28-12.72c0-8.88,2.16-12.48,16.8-12.48h9.12v-1.6c0-3.92-1.52-4.88-7.52-4.88s-9.6,1-11.92,1C230.84,523.68,229.72,521.92,229.72,519.12Zm23.68,18.16h-9.68c-5.52,0-6.56,1-6.56,4.08,0,3.36,1.2,4.32,7.92,4.32s8.32-.8,8.32-3Z"/><path class="cls-3" d="M300.44,537V517.92c0-3,2.16-4.16,4.88-4.16s5,1.2,5,4.16v19.6c0,14.88-3.68,16.88-18.08,16.88s-18-2-18-16.88v-19.6c0-3,2.16-4.16,5-4.16s5,1.2,5,4.16V537c0,7.28.72,8.48,8.08,8.48S300.44,544.32,300.44,537Z"/><path class="cls-3" d="M337.08,508.8c-3,0-3.6.88-3.6,4.16v1.44h7.12c3,0,4,1.92,4,4.56s-1,4.56-4,4.56h-7.12v26.56c0,3-2.16,4.16-5,4.16s-4.88-1.2-4.88-4.16V523.52H319.8c-2.88,0-3.92-1.92-3.92-4.56s1-4.56,3.92-4.56h3.84v-1.2c0-10.4,3-13.2,13.44-13.2,9.28,0,10.64,1.12,10.64,4.88,0,2.72-2,4.16-4.64,4.16C341.64,509,338.84,508.8,337.08,508.8Z"/><path class="cls-3" d="M383.72,548.8c0,2.4-.72,3.68-3.36,4.4a58.51,58.51,0,0,1-13,1.2c-14.32,0-19-3.52-19-15.12v-10.4c0-12.24,5.2-15.28,18.64-15.28,13.12,0,17.36,3.36,17.36,15v4.56c0,3.44-1.28,4.64-4.24,4.64H358.28v2c0,4.16,2.88,5.76,8.64,5.76,4.32,0,9.68-.72,12.64-.72S383.72,545.76,383.72,548.8Zm-25.44-18.88H374.6v-1.76c0-4.72-1.76-5.92-8.16-5.92-6,0-8.16,1-8.16,5.92Z"/><path class="cls-3" d="M404.52,531v19.12c0,3-2.24,4.16-5,4.16s-5-1.2-5-4.16v-19.6c0-14.88,3.6-16.88,18.08-16.88s18.32,2,18.32,16.88v19.6c0,3-2.24,4.16-5,4.16s-4.88-1.2-4.88-4.16V531c0-7.28-1.12-8.48-8.48-8.48S404.52,523.68,404.52,531Z"/><path class="cls-3" d="M447.88,541.84a6.18,6.18,0,0,1,6.16,6.24,6,6,0,0,1-6.16,6.16,5.9,5.9,0,0,1-6.08-6.16A6.06,6.06,0,0,1,447.88,541.84Zm4.08-7a3.8,3.8,0,0,1-4.08,3.36,3.6,3.6,0,0,1-3.92-3.36l-2-29c-.24-3.36,3-5,6.16-5,3,0,6.08,1.6,5.84,5Z"/></g></svg>