<svg id="Layer_1" data-name="Layer 1" xmlns="http://www.w3.org/2000/svg" xmlns:xlink="http://www.w3.org/1999/xlink" viewBox="0 0 300 600"><defs><style>.cls-1{fill:none;}.cls-2{clip-path:url(#clip-path);}.cls-3{fill:#009870;}.cls-4{fill:#fff;}.cls-5{clip-path:url(#clip-path-3);}</style><clipPath id="clip-path"><rect class="cls-1" width="300" height="600"/></clipPath><clipPath id="clip-path-3"><rect class="cls-1" x="153.89" y="453.89" width="136.11" height="136.11"/></clipPath></defs><g class="cls-2"><g class="cls-2"><rect class="cls-3" x="153.89" y="453.89" width="136.11" height="136.11"/><polygon class="cls-4" points="175.29 522.69 170.6 522.69 170.6 545.09 175.29 545.09 175.29 534.95 183.72 545.09 189.47 545.09 179.8 533.41 189.14 522.69 183.5 522.69 175.29 532.32 175.29 522.69"/><rect class="cls-4" x="191.93" y="528.79" width="4.54" height="16.31"/><g class="cls-5"><path class="cls-4" d="M196.88,524.08a2.7,2.7,0,1,0-2.8,2.58h.13a2.62,2.62,0,0,0,2.67-2.57v0"/></g><polygon class="cls-4" points="212.65 528.78 209.17 528.78 206.49 539.18 203.56 528.78 199.02 528.78 204 545.09 208.18 545.09 210.85 535.1 213.53 545.09 217.7 545.09 222.68 528.78 218.29 528.78 215.35 539.18 212.65 528.78"/><rect class="cls-4" x="225.22" y="528.79" width="4.54" height="16.31"/><g class="cls-5"><path class="cls-4" d="M230.17,524.08a2.7,2.7,0,1,0-2.8,2.58h.12a2.63,2.63,0,0,0,2.68-2.57v0"/></g><polygon class="cls-4" points="185.28 549.02 189.16 564.13 192.85 549.02 197.47 549.02 191.62 571.49 187.33 571.49 183.38 556.66 179.42 571.49 175.15 571.49 169.29 549.02 174.01 549.02 177.67 564.13 181.62 549.02 185.28 549.02"/><g class="cls-5"><path class="cls-4" d="M201.31,561.39h6.17c-.11-1.76-1.1-3-2.89-3-1.49,0-2.77,1-3.28,3m-.15,3c.37,2.67,2.31,3.78,4.72,3.78a7.94,7.94,0,0,0,4.69-1.43v3.73a9,9,0,0,1-5.38,1.43c-5,0-8.38-3.22-8.38-8.42s3.22-8.67,7.68-8.67c4.76,0,7.21,3.29,7.21,8.12v1.47Z"/><path class="cls-4" d="M223.51,565.85a3.14,3.14,0,0,0-2.89-1.43c-1.42,0-2.89.62-2.89,2s1.47,2,2.89,2a3.14,3.14,0,0,0,2.89-1.43Zm0-4.57c0-1.58-1.35-2.56-3.66-2.56A8.07,8.07,0,0,0,215.4,560v-3.91a11.15,11.15,0,0,1,5.45-1.36c4.5,0,7,2.31,7,6.3v10.43h-4.37v-.88a6.38,6.38,0,0,1-3.95,1.17c-3.29,0-6-1.9-6-5.3,0-3.12,2.75-5.24,6.33-5.24a7.26,7.26,0,0,1,3.66,1Z"/></g><rect class="cls-4" x="230.82" y="547.7" width="4.54" height="23.79"/><polygon class="cls-4" points="245.33 571.49 240.8 571.49 240.8 558.8 237.69 558.8 237.69 555.13 240.8 555.13 240.8 550.7 245.33 550.7 245.33 555.13 248.81 555.13 248.81 558.79 245.33 558.79 245.33 571.49"/><g class="cls-5"><path class="cls-4" d="M251,547.7h4.54v8.92a5.84,5.84,0,0,1,4.39-1.87c3.7,0,5.78,2.4,5.78,6v10.69h-4.55v-9.73c0-1.71-.88-2.89-2.67-2.89a3,3,0,0,0-3,2.27v10.36H251Z"/><path class="cls-4" d="M270.78,565.93a2.81,2.81,0,0,1,2.85,2.78v.11a2.86,2.86,0,0,1-5.71,0,2.82,2.82,0,0,1,2.75-2.89h.11"/></g></g></g></svg>