<svg xmlns="http://www.w3.org/2000/svg" viewBox="0 0 153.22 24.82"><defs><style>.cls-1{fill:#fff;}</style></defs><title>atC_1</title><g id="Layer_2" data-name="Layer 2"><g id="Layer_1-2" data-name="Layer 1"><path class="cls-1" d="M15,21.68a6.13,6.13,0,0,0,.6,2.67H9.53a5.58,5.58,0,0,1-.3-1.9l-.06,0c-.77,1.78-2.41,2.41-4.25,2.41C1.47,24.82,0,23,0,19.47c0-4,1.87-5.12,4.32-5.69l3-.7c1.33-.3,1.8-.7,1.8-1.87A1.24,1.24,0,0,0,7.89,9.8c-1.37,0-1.57,1-1.57,2.08H.64c0-4.09,2.14-6.09,7.29-6.09C13.85,5.79,15,8.2,15,11ZM9.13,15.59a8.36,8.36,0,0,1-1.6.7c-1.07.4-1.24,1.24-1.24,2.31s.4,1.81,1.3,1.81c1.27,0,1.54-1.17,1.54-2.21Z"/><path class="cls-1" d="M18.17.94h6.49V6.26h2.27v4.21H24.66v8.06c0,1.17.16,1.68,1.23,1.68a4.06,4.06,0,0,0,1-.1v4.31c-.53.07-2.24.2-3.21.2-3.71,0-5.55-.13-5.55-4.21V10.47h-2V6.26h2Z"/><path class="cls-1" d="M46.3,7.36c0-1,0-2.94-1.37-2.94-1.74,0-1.81,1.2-1.81,8,0,7,.17,8,1.81,8,1.07,0,1.5-1.07,1.5-4.05V14.52h6.49V16c0,5.59-2.24,8.8-8.09,8.8-8.6,0-8.6-4.78-8.6-12.41C36.23,5,36.23,0,44.83,0c7.12,0,8,3.85,8,7.56V9.3H46.3Z"/><path class="cls-1" d="M54.8.47h10c4.62,0,6.59,2.27,6.59,6.25,0,3.82-1.64,5.42-4,5.76v.07a3.89,3.89,0,0,1,3.18,1.9,8.93,8.93,0,0,1,.64,4.08v2a9.08,9.08,0,0,0,.3,2.81,1.4,1.4,0,0,0,.7.7v.33H65.17c-.44-.53-.5-2.27-.5-3.44s-.1-2.38-.1-3.55c0-2-.67-2.41-1.84-2.41H61.49v9.4H54.8Zm6.69,10.07h1c1.1,0,2.27-.5,2.27-2.81,0-2-1-2.44-2.47-2.44h-.77Z"/><path class="cls-1" d="M84.5,20.71H80l-.67,3.64H72.46L78.11.47h8.4l5.62,23.88H85.24Zm-2.17-15h-.07l-1.54,9.8h3Z"/><path class="cls-1" d="M92.87.47h6.69V24.35H92.87Z"/><path class="cls-1" d="M110,11.34h8.2v13h-4.65l-.17-1.94h-.07c-1.14,2.11-3,2.41-4.92,2.41-6.79,0-7-5.95-7-12.38C101.43,5.62,101.8,0,110,0,116.59,0,118,3.31,118,8.1h-6.28v-1c0-1.78-.41-2.71-1.71-2.71-1.61,0-1.71,1.5-1.71,2.94V17.2c0,1.47.14,3.21,1.74,3.21s1.88-1.24,1.88-3V15.76H110Z"/><path class="cls-1" d="M120.1.47h6.69V24.35H120.1Z"/><path class="cls-1" d="M129.06.47h14.39V5.89h-7.69V9.57H143v5.22h-7.19v4.14h8v5.42H129.06Z"/><path class="cls-1" d="M146.93.47h6.29v8l-.64,8.7h-5l-.63-8.7Zm.1,18.26h6.09v5.62H147Z"/></g></g></svg>