<svg xmlns="http://www.w3.org/2000/svg" viewBox="0 0 59.63 24.48"><defs><style>.cls-1{fill:#fff;}</style></defs><title>find_1</title><g id="Layer_2" data-name="Layer 2"><g id="Layer_1-2" data-name="Layer 1"><polygon class="cls-1" points="0 0 12.22 0 12.22 6.11 6.98 6.11 6.98 8.76 11.99 8.76 11.99 15.04 6.88 15.04 6.88 24.48 0 24.48 0 0"/><rect class="cls-1" x="13.26" width="6.88" height="24.48"/><polygon class="cls-1" points="21.52 0 29.41 0 33 10.27 33 0 39.88 0 39.88 24.48 32 24.48 28.4 13.33 28.4 24.48 21.52 24.48 21.52 0"/><path class="cls-1" d="M52.14,11.82C52.14,9.6,51.7,8,50.86,7c-.5-.61-1.17-.81-2.65-.78V17.83c2.95,0,3.93-1.48,3.93-6M41.23,0h8.36c3.52,0,6.11,1.14,7.79,3.46,1.34,1.84,2.25,5.34,2.25,8.63a15.82,15.82,0,0,1-2.05,7.79c-1.78,3.15-4.47,4.6-8.43,4.6H41.23Z"/></g></g></svg>