<svg id="Layer_1" data-name="Layer 1" xmlns="http://www.w3.org/2000/svg" xmlns:xlink="http://www.w3.org/1999/xlink" viewBox="0 0 300 250"><defs><style>.cls-1,.cls-12{fill:none;}.cls-2{clip-path:url(#clip-path);}.cls-3{opacity:0.5;}.cls-4{clip-path:url(#clip-path-4);}.cls-5{fill:#0074b5;}.cls-6{fill:#fff;}.cls-7{fill:#c00;}.cls-8{clip-path:url(#clip-path-5);}.cls-9{clip-path:url(#clip-path-6);}.cls-10{fill:#db1a21;}.cls-11{fill:#c33;}.cls-12{stroke:#0074b5;}.cls-13{clip-path:url(#clip-path-7);}.cls-14{clip-path:url(#clip-path-9);}.cls-15{fill:#8e5c41;}.cls-16{fill:#ada386;}.cls-17{fill:#b48231;}.cls-18{clip-path:url(#clip-path-11);}</style><clipPath id="clip-path"><rect class="cls-1" width="300" height="250"/></clipPath><clipPath id="clip-path-4"><rect class="cls-1" x="-168.03" y="-14.1" width="571.71" height="361.97"/></clipPath><clipPath id="clip-path-5"><rect class="cls-1" x="14.63" y="194" width="81.5" height="44"/></clipPath><clipPath id="clip-path-6"><rect class="cls-1" x="19.57" y="196.66" width="71.63" height="38.65"/></clipPath><clipPath id="clip-path-7"><rect class="cls-1" x="320" width="300" height="250"/></clipPath><clipPath id="clip-path-9"><rect class="cls-1" x="320" y="27.33" width="147.31" height="191.45"/></clipPath><clipPath id="clip-path-11"><rect class="cls-1" x="151.97" y="-14.1" width="571.71" height="361.97"/></clipPath></defs><g class="cls-2"><g class="cls-2"><g class="cls-2"><g class="cls-3"><g class="cls-4"><path class="cls-5" d="M393.55,88,345.87,345.25-159,251.68S-58.23,143.42,139.13,180,393.55,88,393.55,88"/></g></g><path class="cls-6" d="M-132.81,259.44S-32,151.18,165.32,187.76c115.94,21.49,183.45-14,219.43-47L346.3,348.24l-426.11-4.33Z"/><path class="cls-7" d="M107.52,213h3.35c.87-.06.87,1.43,0,1.35h-4.13a.7.7,0,0,1-.73-.73v-8.2c-.1-1,1.59-.95,1.51,0Z"/><path class="cls-7" d="M118,211.66a2.83,2.83,0,0,1-5.66,0v-1.77a2.83,2.83,0,0,1,5.66,0Zm-4.2.11a1.37,1.37,0,1,0,2.74,0v-2a1.37,1.37,0,1,0-2.74,0Z"/><path class="cls-7" d="M120.47,207.66l1.55,4.92,1.58-4.91a.67.67,0,0,1,.67-.54.69.69,0,0,1,.66.92l-2,5.7a.94.94,0,0,1-1,.71.93.93,0,0,1-1-.71l-1.94-5.61a.72.72,0,0,1,.67-1A.69.69,0,0,1,120.47,207.66Z"/><path class="cls-7" d="M131.4,212.68a2.42,2.42,0,0,1-2.6,1.81,2.62,2.62,0,0,1-2.83-2.76v-1.84a2.78,2.78,0,1,1,5.55,0v.41a.66.66,0,0,1-.73.71H127.4v.87a1.34,1.34,0,0,0,1.41,1.43,1.38,1.38,0,0,0,1.41-1,.6.6,0,0,1,.6-.47C131.24,211.83,131.5,212.17,131.4,212.68Zm-4-2.7h2.73v-.27a1.37,1.37,0,1,0-2.73,0Z"/><path class="cls-7" d="M135.76,207.26h.83V206c-.1-.94,1.53-.94,1.44,0v1.31h.84c.78-.1.78,1.3,0,1.21H138v5.23c.09.94-1.54.94-1.44,0v-5.23h-.83a.56.56,0,0,1-.43-.16C135,208,135.22,207.2,135.76,207.26Z"/><path class="cls-7" d="M140.65,213.7v-8.6c-.09-.93,1.55-.93,1.46,0v2.73a2.16,2.16,0,0,1,1.75-.77,2.32,2.32,0,0,1,2.41,2.63v4c.1.94-1.53.94-1.44,0v-4a1.27,1.27,0,0,0-1.33-1.41,1.37,1.37,0,0,0-1.39,1.47v3.9a.68.68,0,0,1-.2.51A.74.74,0,0,1,140.65,213.7Z"/><path class="cls-7" d="M153.33,212.68a2.42,2.42,0,0,1-2.6,1.81,2.62,2.62,0,0,1-2.83-2.76v-1.84a2.78,2.78,0,1,1,5.55,0v.41a.67.67,0,0,1-.74.71h-3.38v.87a1.34,1.34,0,0,0,1.41,1.43,1.39,1.39,0,0,0,1.41-1,.59.59,0,0,1,.59-.47C153.17,211.83,153.43,212.17,153.33,212.68Zm-4-2.7h2.73v-.27a1.37,1.37,0,1,0-2.73,0Z"/><path class="cls-7" d="M157.9,207.26h.57V207a2.25,2.25,0,0,1,2.5-2.51h.19c.8-.08.8,1.33,0,1.24H161c-.7,0-1.05.39-1.05,1.18v.38h1.15a.61.61,0,0,1,0,1.21h-1.15v5.23c.09.94-1.55.94-1.45,0v-5.23h-.57a.61.61,0,0,1,0-1.21Z"/><path class="cls-7" d="M168,212.68a2.43,2.43,0,0,1-2.6,1.81,2.63,2.63,0,0,1-2.84-2.76v-1.84a2.78,2.78,0,1,1,5.55,0v.41a.66.66,0,0,1-.73.71H164v.87a1.34,1.34,0,0,0,1.41,1.43,1.37,1.37,0,0,0,1.4-1,.61.61,0,0,1,.6-.47C167.84,211.83,168.1,212.17,168,212.68Zm-4-2.7h2.73v-.27a1.37,1.37,0,1,0-2.73,0Z"/><path class="cls-7" d="M174.94,212.68a2.43,2.43,0,0,1-2.6,1.81,2.63,2.63,0,0,1-2.84-2.76v-1.84a2.78,2.78,0,1,1,5.55,0v.41a.66.66,0,0,1-.73.71h-3.39v.87a1.35,1.35,0,0,0,1.42,1.43,1.37,1.37,0,0,0,1.4-1,.61.61,0,0,1,.6-.47C174.78,211.83,175,212.17,174.94,212.68Zm-4-2.7h2.74v-.27a1.37,1.37,0,1,0-2.74,0Z"/><path class="cls-7" d="M178.18,205.1v8.6c.09.94-1.55.94-1.45,0v-8.6a.75.75,0,0,1,.21-.53C177.33,204.17,178.24,204.44,178.18,205.1Z"/><path class="cls-7" d="M180.27,204.6a.87.87,0,0,1,1.23,1.23.87.87,0,1,1-1.23-1.23Zm1.34,3.25v5.85c.09.94-1.54.94-1.46,0v-5.85a.73.73,0,0,1,.21-.53A.74.74,0,0,1,181.61,207.85Z"/><path class="cls-7" d="M184.89,208a2.19,2.19,0,0,1,1.87-.9,2.32,2.32,0,0,1,2.41,2.63v4c.1.94-1.54.94-1.45,0v-4a1.27,1.27,0,0,0-1.33-1.41A1.37,1.37,0,0,0,185,209.8v3.9c.09.94-1.54.94-1.46,0v-5.88q0-.69.66-.69c.37,0,.58.16.63.47Z"/><path class="cls-7" d="M195.16,207.61a.55.55,0,0,1,.62-.48q.66,0,.66.69v6.83a2.89,2.89,0,0,1-5.34,1.18.66.66,0,0,1,.57-1,.7.7,0,0,1,.61.41,1.33,1.33,0,0,0,.66.64,1.36,1.36,0,0,0,.67.15,1.24,1.24,0,0,0,1.38-1.33v-1.24a2.15,2.15,0,0,1-1.72.74c-1.56,0-2.45-1.06-2.45-2.71v-1.73c0-1.65.89-2.71,2.45-2.71a2.14,2.14,0,0,1,1.83.87Zm-1.57,5.33a1.31,1.31,0,0,0,1-.42,1.52,1.52,0,0,0,.38-1.05V209.8a1.37,1.37,0,0,0-1.4-1.47,1.27,1.27,0,0,0-1.31,1.41v1.79a1.49,1.49,0,0,0,.35,1A1.19,1.19,0,0,0,193.59,212.94Z"/><path class="cls-7" d="M110.25,224.32a2.84,2.84,0,1,1-5.67,0v-1.76a2.84,2.84,0,1,1,5.67,0Zm-4.21.12a1.37,1.37,0,1,0,2.74,0v-2a1.37,1.37,0,1,0-2.74,0Z"/><path class="cls-7" d="M111.85,219.93h.57v-.29a2.25,2.25,0,0,1,2.5-2.52h.19c.8-.07.8,1.33,0,1.25h-.19c-.7,0-1,.39-1,1.18v.38H115a.61.61,0,0,1,0,1.21h-1.15v5.23c.09.93-1.55.93-1.45,0v-5.23h-.57a.61.61,0,0,1,0-1.21Z"/><path class="cls-7" d="M124.83,225.16a2.53,2.53,0,0,1-2.69,2,2.65,2.65,0,0,1-2.85-2.84v-1.76a2.64,2.64,0,0,1,2.83-2.84,2.55,2.55,0,0,1,2.68,1.86.69.69,0,0,1-.65.9.65.65,0,0,1-.67-.49,1.39,1.39,0,0,0-2.73.45v2a1.34,1.34,0,0,0,1.4,1.48,1.32,1.32,0,0,0,1.38-1.1.59.59,0,0,1,.65-.51A.66.66,0,0,1,124.83,225.16Z"/><path class="cls-7" d="M131.88,224.32a2.83,2.83,0,1,1-5.66,0v-1.76a2.83,2.83,0,1,1,5.66,0Zm-4.2.12a1.37,1.37,0,1,0,2.74,0v-2a1.37,1.37,0,1,0-2.74,0Z"/><path class="cls-7" d="M134.91,220.63a2.34,2.34,0,0,1,3.91.31,2.08,2.08,0,0,1,2-1.22c1.51,0,2.36,1,2.36,2.63v4c.09.93-1.55.93-1.44,0v-4a1.27,1.27,0,0,0-1.29-1.42,1.34,1.34,0,0,0-1.36,1.41v4c.09.93-1.54.93-1.46,0v-4a1.26,1.26,0,0,0-1.27-1.42,1.35,1.35,0,0,0-1.36,1.45v3.93c.09.93-1.54.93-1.46,0v-5.89a.59.59,0,0,1,.66-.68c.37,0,.59.16.63.46Z"/><path class="cls-7" d="M145.19,217.27a.87.87,0,1,1,1.23,1.23.87.87,0,0,1-1.23-1.23Zm1.35,3.24v5.86c.08.93-1.55.93-1.46,0v-5.86a.7.7,0,0,1,.2-.52A.75.75,0,0,1,146.54,220.51Z"/><path class="cls-7" d="M149.81,220.63a2.21,2.21,0,0,1,1.87-.91,2.32,2.32,0,0,1,2.41,2.63v4c.1.93-1.54.93-1.45,0v-4a1.28,1.28,0,0,0-1.33-1.42,1.37,1.37,0,0,0-1.38,1.48v3.9c.08.93-1.55.93-1.46,0v-5.89c0-.45.21-.68.65-.68s.59.16.63.46Z"/><path class="cls-7" d="M160.08,220.28a.55.55,0,0,1,.63-.48c.43,0,.65.23.65.68v6.84a2.49,2.49,0,0,1-2.77,2.57A2.52,2.52,0,0,1,156,228.5a.67.67,0,0,1,.57-1,.69.69,0,0,1,.61.41,1.37,1.37,0,0,0,.66.64,1.41,1.41,0,0,0,.67.14,1.24,1.24,0,0,0,1.39-1.32v-1.25a2.14,2.14,0,0,1-1.72.75c-1.57,0-2.46-1.07-2.46-2.72v-1.72c0-1.65.89-2.72,2.46-2.72a2.11,2.11,0,0,1,1.82.88Zm-1.56,5.33a1.33,1.33,0,0,0,1-.43,1.49,1.49,0,0,0,.38-1.05v-1.66a1.38,1.38,0,0,0-1.4-1.48,1.28,1.28,0,0,0-1.32,1.42v1.78a1.47,1.47,0,0,0,.35,1A1.17,1.17,0,0,0,158.52,225.61Z"/><path class="cls-7" d="M166.27,226.37v-8.6c-.08-.94,1.55-.94,1.46,0v2.73a2.18,2.18,0,0,1,1.76-.78,2.32,2.32,0,0,1,2.41,2.63v4c.1.93-1.54.93-1.45,0v-4a1.28,1.28,0,0,0-1.33-1.42,1.37,1.37,0,0,0-1.39,1.48v3.9a.68.68,0,0,1-.2.51A.75.75,0,0,1,166.27,226.37Z"/><path class="cls-7" d="M179.19,224.32a2.84,2.84,0,1,1-5.67,0v-1.76a2.84,2.84,0,1,1,5.67,0Zm-4.21.12a1.38,1.38,0,1,0,2.75,0v-2a1.38,1.38,0,1,0-2.75,0Z"/><path class="cls-7" d="M182.21,220.63a2.35,2.35,0,0,1,3.92.31,2.06,2.06,0,0,1,2-1.22c1.52,0,2.37,1,2.37,2.63v4c.08.93-1.55.93-1.45,0v-4a1.27,1.27,0,0,0-1.28-1.42,1.33,1.33,0,0,0-1.36,1.41v4c.09.93-1.55.93-1.46,0v-4a1.27,1.27,0,0,0-1.27-1.42,1.35,1.35,0,0,0-1.36,1.45v3.93c.09.93-1.55.93-1.46,0v-5.89a.59.59,0,0,1,.66-.68c.36,0,.58.16.62.46Z"/><path class="cls-7" d="M197.57,225.34a2.43,2.43,0,0,1-2.6,1.82,2.63,2.63,0,0,1-2.84-2.76v-1.84a2.78,2.78,0,1,1,5.55,0v.4a.66.66,0,0,1-.73.72h-3.39v.86a1.45,1.45,0,0,0,2.82.43.61.61,0,0,1,.6-.47C197.41,224.5,197.67,224.83,197.57,225.34Zm-4-2.7h2.73v-.26a1.37,1.37,0,1,0-2.73,0Z"/><g class="cls-8"><path d="M60.07,216.31c2.71-.66,4.06-2.08,4.06-4.14s-1.62-3.46-4.5-3.46H49.75a.27.27,0,0,0-.26.2l-3.72,14.83a.16.16,0,0,0,.16.2h6.21a.29.29,0,0,0,.26-.2l1.37-5.5A.29.29,0,0,1,54,218h1.37c.72,0,1,.84,1,.84l1,4.84a.26.26,0,0,0,.25.2h6.11c.26,0,.33-.09.31-.24s-.45-.51-.52-.92c-.11-.56-.41-2.73-.5-3.48,0-.06-.06-.4-.07-.45a2.81,2.81,0,0,0-2.06-2.13c-.38-.17-1.11-.3-.83-.39m-4.4-.62H54.62a.15.15,0,0,1-.16-.2l.66-2.66a.3.3,0,0,1,.27-.21h1c.87,0,1.16.4,1.16,1a2,2,0,0,1-1.91,2.09"/><path d="M47.83,208.71H41.62a.27.27,0,0,0-.26.2l-1.31,5.28a.29.29,0,0,1-.26.2H36.7a.16.16,0,0,1-.16-.2l1.31-5.28a.15.15,0,0,0-.16-.2H31.48a.29.29,0,0,0-.27.2l-3.69,14.84a.15.15,0,0,0,.16.2H33.9a.29.29,0,0,0,.26-.2l1.31-5.26a.27.27,0,0,1,.26-.2h3.08a.15.15,0,0,1,.16.2l-1.31,5.26a.16.16,0,0,0,.16.2H44a.29.29,0,0,0,.26-.2L48,208.91a.15.15,0,0,0-.16-.2"/></g><g class="cls-9"><path d="M84,208.65H77.42a.41.41,0,0,0-.32.18l-4.9,8.09c-.06.1-.12.09-.13,0l-.81-8a.24.24,0,0,0-.24-.21H64.69a.17.17,0,0,0-.18.2l2.16,14.82a.24.24,0,0,0,.24.21h6.94a.44.44,0,0,0,.32-.17l9.93-14.89c.06-.1,0-.17-.1-.17"/><path class="cls-5" d="M89,211.31a1.32,1.32,0,0,0-.16-.25,17.19,17.19,0,0,0-1.39-1.78h0a.26.26,0,0,0-.19-.07.28.28,0,0,0-.23.12h0l-1.35,1.88a2,2,0,0,0-.41,1.12,1.88,1.88,0,0,0,.23.95l0,0A9.29,9.29,0,0,1,87,218.22c-.46,12.29-16.43,15.81-34.54,14.7-9.86-.61-18.64-3.3-24.65-7.08a.34.34,0,0,0-.2-.06.38.38,0,0,0-.35.34.33.33,0,0,0,.08.22h0l0,0c6.41,4.65,16.19,8,27.25,8.72,19.27,1.29,36-3.28,36.52-16.73A12,12,0,0,0,89,211.31"/><path class="cls-10" d="M84,206.05s0,0,0,0c-6.39-4.87-16.44-8.4-27.84-9.16-19.27-1.28-36,3.29-36.52,16.74A12.25,12.25,0,0,0,22,221.08a.22.22,0,0,0,.05.08,19.15,19.15,0,0,0,2,2.39h0a.27.27,0,0,0,.19.08.3.3,0,0,0,.28-.22h0l.85-2.91v0a1.62,1.62,0,0,0,.07-.44,1.64,1.64,0,0,0-.29-1,9.67,9.67,0,0,1-1.65-5.19C24,201.55,40,198,58.08,199.13c10.24.63,19.31,3.51,25.33,7.53h0a.33.33,0,0,0,.24.07.42.42,0,0,0,.42-.39.37.37,0,0,0-.12-.29"/></g><path class="cls-11" d="M251.06,246.5a44.82,44.82,0,0,1-4.23-2.53,12,12,0,0,0-6.9-2.43,14.76,14.76,0,0,1-10.55-4.33c-3.6-3.7-3.62-8.83.15-12.37a27.73,27.73,0,0,1,5.1-3.23,89.28,89.28,0,0,0,7.73-4.47c3.5-2.54,7.11-3.4,11.15-1.82s6.06,4.72,6.92,8.94A36.45,36.45,0,0,0,263,231c.61,1.45,1.59,2.76,2.05,4.25,2.22,7.14-2.7,12.95-10.13,12-1.17-.15-2.32-.47-3.82-.79"/><path class="cls-11" d="M254.83,204.12c-1,2.77-2,4.46-3.77,5.54a4.27,4.27,0,0,1-6.58-2.32,7.11,7.11,0,0,1,.88-6.76,10.51,10.51,0,0,1,6.33-4.22c2.59-.61,4.09.56,3.91,3.22a35.31,35.31,0,0,1-.77,4.54"/><path class="cls-11" d="M257.42,206.46a55.4,55.4,0,0,1,3-5c1.35-1.84,3-1.78,4.56-.12,3.18,3.41,3.39,9.07.43,12.24a5.2,5.2,0,0,1-4.49,1.89,4.5,4.5,0,0,1-3.74-3.61,10.75,10.75,0,0,1,.28-5.39"/><path class="cls-11" d="M232.64,208.77c1-2.54,1.93-4.12,3.57-5.18s3-.79,3.83.82c1.56,2.89,2.22,6,1.05,9.19a4.05,4.05,0,0,1-7.57.67,6.4,6.4,0,0,1-.88-5.5"/><path class="cls-11" d="M271.78,222.44a6.72,6.72,0,0,1-5.13,4.71c-3.23.71-5.56-1.66-4.93-4.9.56-2.8,4.47-6.69,7.27-7.21a2.36,2.36,0,0,1,2.91,1.68,8.45,8.45,0,0,1-.12,5.72"/><path class="cls-6" d="M237.16,225.54a17.08,17.08,0,0,0-1.69,4.62,11.62,11.62,0,0,0-.27,2.63,3.29,3.29,0,0,0,.15,1c.07.22.18.26.38.12a3.11,3.11,0,0,0,.48-.48,12.39,12.39,0,0,0,.76-1.13.74.74,0,0,1,1-.32.8.8,0,0,1,.22,1.09,6.53,6.53,0,0,1-1.64,2.11,1.55,1.55,0,0,1-2.63-.81,6.05,6.05,0,0,1-.22-2.28,17,17,0,0,1,2.51-7.83,6.24,6.24,0,0,1,1-1.25,3.52,3.52,0,0,1,.64-.45,1.44,1.44,0,0,1,2,.63,3.29,3.29,0,0,1,.41,1.41,8.68,8.68,0,0,1,0,2.16,1.37,1.37,0,0,1-.08.35.77.77,0,0,1-.81.53.73.73,0,0,1-.59-.71,5.74,5.74,0,0,1,0-.71,5.58,5.58,0,0,0-.07-1.87c-.1-.44-.21-.49-.55-.19a4.8,4.8,0,0,0-1,1.31Z"/><path class="cls-6" d="M241.57,237.11c-.28,0-.56-.07-.7-.08a2,2,0,0,1-1.63-1.31A3.55,3.55,0,0,1,239,234a24.68,24.68,0,0,1,.73-3.89c.44-1.73.86-3.47,1.46-5.16.12-.35.24-.69.36-1a1.14,1.14,0,0,1,.17-.31.66.66,0,0,1,.84-.26.65.65,0,0,1,.35.82c-.61,1.65-.93,3.39-1.4,5.08a32.08,32.08,0,0,0-.94,4.35,3.51,3.51,0,0,0,0,1.25.74.74,0,0,0,.71.66,4.77,4.77,0,0,0,1.36,0l.19,0c.47-.06.8.1.91.45a.81.81,0,0,1-.53,1,3.66,3.66,0,0,1-1.54.14Z"/><path class="cls-6" d="M247.88,226c-.39,1.81-.83,3.6-1.07,5-.44,2.27-.81,4.12-1.17,6a1.52,1.52,0,0,1-.09.28.77.77,0,0,1-.84.45.72.72,0,0,1-.56-.71,2.87,2.87,0,0,1,.07-.5c.4-2,.81-3.93,1.16-5.91.32-1.74.83-3.42,1.24-5.11a1.23,1.23,0,0,1,.17-.44.62.62,0,0,1,.68-.3.65.65,0,0,1,.51.57,2.16,2.16,0,0,1-.08.71Z"/><path class="cls-6" d="M250.05,228.51a16.75,16.75,0,0,0-1.68,4.62,11.1,11.1,0,0,0-.28,2.64,3.19,3.19,0,0,0,.15,1c.07.22.19.27.38.13a3.24,3.24,0,0,0,.49-.49,12.84,12.84,0,0,0,.75-1.12.74.74,0,0,1,1-.32.8.8,0,0,1,.23,1.08,6.63,6.63,0,0,1-1.65,2.12,1.55,1.55,0,0,1-2.63-.82,6,6,0,0,1-.22-2.27,17,17,0,0,1,2.51-7.83,6,6,0,0,1,1-1.25,3,3,0,0,1,.64-.45,1.43,1.43,0,0,1,2,.62,3.29,3.29,0,0,1,.41,1.42,8.15,8.15,0,0,1,0,2.15,1.05,1.05,0,0,1-.08.35.76.76,0,0,1-.8.54.73.73,0,0,1-.6-.72,6,6,0,0,1,0-.71,5.59,5.59,0,0,0-.07-1.87c-.1-.43-.21-.48-.55-.19a5.05,5.05,0,0,0-1,1.32Z"/><path class="cls-6" d="M254.13,233.31a1.86,1.86,0,0,1,0,.28.89.89,0,0,0,.41-.34,41,41,0,0,0,4-5.42,1.14,1.14,0,0,1,.34-.38.6.6,0,0,1,.71,0,.64.64,0,0,1,.29.71,1.89,1.89,0,0,1-.18.41,31.62,31.62,0,0,1-4.8,6.58.61.61,0,0,0-.14.79c.34.69.67,1.41,1.07,2.08a3.49,3.49,0,0,0,.76,1,.69.69,0,0,1,.13,1,.81.81,0,0,1-1.06.13,2.78,2.78,0,0,1-.83-.94,17.65,17.65,0,0,1-1-2c-.06-.16-.15-.32-.22-.48-.17,0-.14.19-.17.29-.1.51-.19,1-.29,1.54,0,.11,0,.24-.08.35a.78.78,0,0,1-.83.53.74.74,0,0,1-.62-.76,1.69,1.69,0,0,1,.06-.55c.58-3,1.28-5.92,2.07-8.85.2-.82.49-1.62.76-2.42a1.15,1.15,0,0,1,.18-.31.65.65,0,0,1,.71-.25.67.67,0,0,1,.44.62,1.37,1.37,0,0,1-.13.52c-.59,2-1,4-1.52,6Z"/><rect class="cls-12" width="300" height="250"/></g></g></g><g class="cls-13"><g class="cls-13"><g class="cls-14"><path class="cls-15" d="M338.9,98.29s-12.59-20.57-13.66-23.45c-.69-1.86-2.92-7.26-9.14-8.54-5.85-1.2-8.19.44-12.51-4-1.49-1.55-5.15-3.65-6.72.6s-2,14.88,0,20,4.65,11.78,7.49,14.3,11.53,7.48,16.4,8.06,20.37,7,22.1,6-4-13-4-13"/><path class="cls-16" d="M342.33,111.9c-1.56,0-4.84-1-10.79-3-4.27-1.41-8.69-2.87-10.84-3.13-5-.6-13.85-5.68-16.71-8.2s-5.55-9.2-7.64-14.51-1.54-16.22,0-20.38a3.91,3.91,0,0,1,2.75-2.8c1.94-.41,4,1.06,4.89,2,2.87,3,4.77,3.1,7.65,3.31a32.71,32.71,0,0,1,4.57.57c4.44.91,7.74,4,9.56,8.89,1,2.8,13.48,23.14,13.61,23.35l0,0s1.45,3.07,2.65,6.18c2.27,5.91,1.86,7.11,1.07,7.52a1.71,1.71,0,0,1-.79.15m-42.54-51a2.31,2.31,0,0,0-.46,0c-.84.17-1.49.88-1.94,2.1-1.6,4.33-1.89,14.8,0,19.58s4.61,11.66,7.35,14.09,11.35,7.36,16.1,7.92c2.27.27,6.74,1.75,11.06,3.18,4.12,1.37,9.75,3.23,10.68,2.93.09-.16.37-1.2-1.69-6.47-1.1-2.8-2.33-5.45-2.47-5.75-.71-1.16-12.62-20.64-13.69-23.52-1.67-4.52-4.7-7.35-8.74-8.18a31.32,31.32,0,0,0-4.42-.55c-3-.21-5.21-.37-8.37-3.64a5.36,5.36,0,0,0-3.4-1.74"/><path class="cls-17" d="M342.55,113.42s-11.34-1.11-18-2.82-17.83-6.95-22.93-11.7c-5.59-5.21-14.51-15.89-12-30.84,1.43-8.67,8.15-15.38,10.73-17.44,6.21-4.94,13.46,1.94,8.46,9.67-3.75,5.79-9.68,9.9-8.47,25.94.47,6.18,3.85,10.64,7.71,12.45s13.44,2,17.19,1.56,6.47-1.09,9.15.54c7.46,4.54,9.44,13.31,8.23,12.64"/><path class="cls-17" d="M342.67,113.79a.52.52,0,0,1-.21,0c-.88-.09-11.63-1.19-18-2.83-6.81-1.74-18-7-23.08-11.78-6.83-6.36-14.48-16.93-12.14-31.13,1.36-8.18,7.47-14.94,10.86-17.65,2.84-2.26,6.2-2.34,8.56-.21,2.21,2,3.2,6,.39,10.32-.67,1-1.39,2-2.15,3-3.4,4.52-7.25,9.64-6.26,22.72.5,6.61,4.21,10.62,7.51,12.18a26.79,26.79,0,0,0,8.51,1.59,52.26,52.26,0,0,0,8.5-.06l1.33-.17c3.12-.41,5.59-.74,8,.75,6.73,4.1,9.28,11.88,8.61,13.05a.51.51,0,0,1-.43.25m-38-64.51a6.82,6.82,0,0,0-4.18,1.6c-3.32,2.65-9.3,9.26-10.61,17.24-2.3,13.9,5.21,24.28,11.92,30.53,5.05,4.7,16.06,9.9,22.8,11.62,6.4,1.64,17.22,2.74,17.95,2.82.14-1.18-1.95-8.1-8.41-12-2.24-1.36-4.49-1.07-7.59-.66l-1.34.17c-3.93.47-13.5.23-17.37-1.59-3.48-1.63-7.38-5.83-7.9-12.73-1-13.33,2.92-18.56,6.39-23.17.76-1,1.47-2,2.13-3,2.59-4,1.72-7.64-.28-9.46a5.13,5.13,0,0,0-3.51-1.37"/></g><g class="cls-13"><g class="cls-3"><g class="cls-18"><path class="cls-5" d="M713.55,88,665.87,345.25,161,251.68S261.77,143.42,459.13,180,713.55,88,713.55,88"/></g></g><path class="cls-6" d="M187.19,259.44S288,151.18,485.32,187.76c115.94,21.49,183.45-14,219.43-47L666.3,348.24l-426.11-4.33Z"/></g></g></g></svg>