<svg xmlns="http://www.w3.org/2000/svg" viewBox="0 0 100.02 10.35"><defs><style>.cls-1{fill:#ffede5;}</style></defs><title>cta-light</title><g id="Layer_2" data-name="Layer 2"><g id="Layer_1-2" data-name="Layer 1"><path class="cls-1" d="M1.88,8.68H5.94v1.55H0V.11H1.88Z"/><path class="cls-1" d="M15,.11v1.5H10.54V4.42h3.53V5.87H10.54V8.73H15v1.5H8.64V.11Z"/><path class="cls-1" d="M27,10.23H25.49a.65.65,0,0,1-.4-.12.76.76,0,0,1-.23-.3l-.75-2.07H19.92l-.76,2.07a.72.72,0,0,1-.22.29.6.6,0,0,1-.4.13H17.07l4-10.12H23ZM20.4,6.41h3.23L22.39,3l-.18-.52c-.07-.21-.14-.43-.2-.66-.07.23-.13.45-.19.66s-.13.39-.19.54Z"/><path class="cls-1" d="M31.34,6.28v4H29.46V.11h3.08a6.18,6.18,0,0,1,1.78.22,3.5,3.5,0,0,1,1.21.59,2.46,2.46,0,0,1,.69.92A3.06,3.06,0,0,1,36.44,3a3,3,0,0,1-.15,1,2.85,2.85,0,0,1-.43.83,3.12,3.12,0,0,1-.7.65,4.39,4.39,0,0,1-.95.45,1.79,1.79,0,0,1,.62.58l2.53,3.73H35.67a.87.87,0,0,1-.42-.09A.86.86,0,0,1,35,9.86L32.83,6.62a.71.71,0,0,0-.26-.26.84.84,0,0,0-.43-.08Zm0-1.35h1.17a2.84,2.84,0,0,0,.93-.14,1.69,1.69,0,0,0,.65-.36,1.43,1.43,0,0,0,.38-.56,1.8,1.8,0,0,0,.13-.71A1.44,1.44,0,0,0,34.09,2a2.45,2.45,0,0,0-1.55-.41h-1.2Z"/><path class="cls-1" d="M41.16.12a.33.33,0,0,1,.15.05.51.51,0,0,1,.13.09,1.06,1.06,0,0,1,.14.15l5.31,6.77c0-.16,0-.32,0-.48s0-.3,0-.43V.11H48.5V10.23h-1a.82.82,0,0,1-.37-.07.74.74,0,0,1-.29-.25L41.58,3.17l0,.45c0,.14,0,.28,0,.4v6.21H40V.11h1.2Z"/><path class="cls-1" d="M61.35,6.5c.07.16.14.32.2.49.07-.17.13-.34.2-.5S61.9,6.17,62,6L65,.41a.74.74,0,0,1,.12-.16.31.31,0,0,1,.13-.1.86.86,0,0,1,.17,0H67V10.23H65.37V3.7c0-.12,0-.26,0-.4a3.25,3.25,0,0,1,0-.44L62.35,8.6a.79.79,0,0,1-.27.3.77.77,0,0,1-.4.11h-.26A.74.74,0,0,1,61,8.9a.79.79,0,0,1-.27-.3l-3.1-5.76c0,.15,0,.3,0,.45s0,.28,0,.41v6.53H56.05V.11h1.64a.76.76,0,0,1,.16,0,.33.33,0,0,1,.14.1.74.74,0,0,1,.12.16l3,5.62C61.21,6.18,61.28,6.34,61.35,6.5Z"/><path class="cls-1" d="M80.18,5.17a5.72,5.72,0,0,1-.37,2.06,5,5,0,0,1-1,1.65A4.66,4.66,0,0,1,77.15,10,5.82,5.82,0,0,1,73,10a4.65,4.65,0,0,1-2.67-2.73,5.51,5.51,0,0,1-.37-2.06,5.55,5.55,0,0,1,.37-2.06A4.67,4.67,0,0,1,73,.39a5.82,5.82,0,0,1,4.19,0,4.66,4.66,0,0,1,1.61,1.08,4.91,4.91,0,0,1,1,1.64A5.76,5.76,0,0,1,80.18,5.17Zm-1.93,0A4.61,4.61,0,0,0,78,3.68a3,3,0,0,0-.63-1.13,2.74,2.74,0,0,0-1-.7,3.55,3.55,0,0,0-1.34-.25,3.5,3.5,0,0,0-1.33.25,2.7,2.7,0,0,0-1,.7,3.22,3.22,0,0,0-.65,1.13,4.91,4.91,0,0,0-.22,1.49,4.93,4.93,0,0,0,.22,1.5,3.18,3.18,0,0,0,.65,1.12,2.7,2.7,0,0,0,1,.7,3.5,3.5,0,0,0,1.33.25,3.55,3.55,0,0,0,1.34-.25,2.74,2.74,0,0,0,1-.7A3,3,0,0,0,78,6.67,4.63,4.63,0,0,0,78.25,5.17Z"/><path class="cls-1" d="M85,6.28v4H83.12V.11h3.09A6.23,6.23,0,0,1,88,.33,3.5,3.5,0,0,1,89.2.92a2.46,2.46,0,0,1,.69.92A3.06,3.06,0,0,1,90.11,3,3,3,0,0,1,90,4a3.11,3.11,0,0,1-.43.83,3.36,3.36,0,0,1-.7.65,4.39,4.39,0,0,1-1,.45,1.68,1.68,0,0,1,.61.58L91,10.23h-1.7a.76.76,0,0,1-.7-.37L86.5,6.62a.71.71,0,0,0-.26-.26.84.84,0,0,0-.43-.08Zm0-1.35h1.17a2.84,2.84,0,0,0,.93-.14,1.77,1.77,0,0,0,.65-.36,1.43,1.43,0,0,0,.38-.56,1.8,1.8,0,0,0,.13-.71A1.44,1.44,0,0,0,87.76,2a2.45,2.45,0,0,0-1.55-.41H85Z"/><path class="cls-1" d="M100,.11v1.5H95.53V4.42h3.53V5.87H95.53V8.73H100v1.5H93.63V.11Z"/></g></g></svg>