<svg xmlns="http://www.w3.org/2000/svg" viewBox="0 0 130.68 10.51"><defs><style>.cls-1{fill:#ffede5;}</style></defs><title>t3</title><g id="Layer_2" data-name="Layer 2"><g id="Layer_1-2" data-name="Layer 1"><path class="cls-1" d="M4.11,2.19V5.06H6.83V6.34H4.11V9.23H2.71V6.34H0V5.06H2.71V2.19Z"/><path class="cls-1" d="M13.43,6.84V10.4H11.55V.28h3.3A5.69,5.69,0,0,1,16.6.52a3.43,3.43,0,0,1,1.23.66,2.62,2.62,0,0,1,.71,1,3.42,3.42,0,0,1,.23,1.3,3.59,3.59,0,0,1-.24,1.34,2.79,2.79,0,0,1-.74,1.06,3.34,3.34,0,0,1-1.22.68,5.28,5.28,0,0,1-1.72.25Zm0-1.47h1.42a2.75,2.75,0,0,0,.9-.13,1.74,1.74,0,0,0,.64-.37,1.56,1.56,0,0,0,.37-.59,2.11,2.11,0,0,0,.13-.77,2,2,0,0,0-.13-.74,1.52,1.52,0,0,0-.37-.56,1.71,1.71,0,0,0-.64-.35,3.06,3.06,0,0,0-.9-.12H13.43Z"/><path class="cls-1" d="M23,3.11a3.39,3.39,0,0,1,1.25.22,2.67,2.67,0,0,1,1,.63,3,3,0,0,1,.64,1,3.73,3.73,0,0,1,.23,1.38,3.22,3.22,0,0,1,0,.33.47.47,0,0,1-.07.2.25.25,0,0,1-.12.11.5.5,0,0,1-.19,0H21.31a2.46,2.46,0,0,0,.59,1.62,1.85,1.85,0,0,0,1.37.52,2.26,2.26,0,0,0,.73-.1,3.9,3.9,0,0,0,.53-.21l.4-.22a.63.63,0,0,1,.33-.1.34.34,0,0,1,.18,0,.41.41,0,0,1,.14.12l.5.63a2.61,2.61,0,0,1-.64.56,3.27,3.27,0,0,1-.75.37,4.33,4.33,0,0,1-.79.19,5.32,5.32,0,0,1-.78.06,3.94,3.94,0,0,1-1.39-.25,3,3,0,0,1-1.12-.74,3.31,3.31,0,0,1-.75-1.2,4.7,4.7,0,0,1-.27-1.66,4.27,4.27,0,0,1,.23-1.39,3.29,3.29,0,0,1,.69-1.12,3.14,3.14,0,0,1,1.08-.76A3.54,3.54,0,0,1,23,3.11Zm0,1.24a1.61,1.61,0,0,0-1.18.42A2.1,2.1,0,0,0,21.34,6h3.25a2.2,2.2,0,0,0-.09-.64,1.38,1.38,0,0,0-.28-.52,1.3,1.3,0,0,0-.48-.35A1.54,1.54,0,0,0,23.07,4.35Z"/><path class="cls-1" d="M27.69,10.4V3.22h1a.53.53,0,0,1,.37.1.6.6,0,0,1,.14.33l.1.87a3.49,3.49,0,0,1,.91-1,1.92,1.92,0,0,1,1.16-.38,1.52,1.52,0,0,1,.88.24l-.22,1.3a.32.32,0,0,1-.1.18.32.32,0,0,1-.18.05,1.35,1.35,0,0,1-.29-.05,2,2,0,0,0-.48,0,1.48,1.48,0,0,0-.93.3,2.31,2.31,0,0,0-.65.87V10.4Z"/><path class="cls-1" d="M33.55,10.4V3.22h1.06a.43.43,0,0,1,.44.32l.11.53a4.89,4.89,0,0,1,.4-.39,2.83,2.83,0,0,1,.44-.3,2.48,2.48,0,0,1,.5-.2,2.22,2.22,0,0,1,.59-.07,1.65,1.65,0,0,1,1.12.37,2.16,2.16,0,0,1,.65,1,2.53,2.53,0,0,1,.42-.61,2.49,2.49,0,0,1,.56-.42,2.71,2.71,0,0,1,.64-.23,2.58,2.58,0,0,1,.68-.08,2.91,2.91,0,0,1,1.06.18,2,2,0,0,1,.77.53,2.4,2.4,0,0,1,.48.86,3.66,3.66,0,0,1,.17,1.15V10.4H41.91V5.83a1.53,1.53,0,0,0-.3-1,1.12,1.12,0,0,0-.88-.35,1.35,1.35,0,0,0-.5.09,1.18,1.18,0,0,0-.4.27,1.22,1.22,0,0,0-.27.43,1.78,1.78,0,0,0-.09.59V10.4H37.73V5.83a1.59,1.59,0,0,0-.29-1,1.08,1.08,0,0,0-.86-.33,1.28,1.28,0,0,0-.69.19,2.21,2.21,0,0,0-.61.51V10.4Z"/><path class="cls-1" d="M51.11,10.4h-.78a.88.88,0,0,1-.39-.07.51.51,0,0,1-.21-.3l-.15-.51A5.08,5.08,0,0,1,49,10a2.9,2.9,0,0,1-.54.31,2.27,2.27,0,0,1-.59.19,3.8,3.8,0,0,1-.7.06,2.75,2.75,0,0,1-.84-.12,1.64,1.64,0,0,1-.66-.37,1.5,1.5,0,0,1-.43-.61,2,2,0,0,1-.16-.85,1.68,1.68,0,0,1,.21-.8A2,2,0,0,1,46.05,7a4.58,4.58,0,0,1,1.32-.53,8.45,8.45,0,0,1,2.05-.21V5.88a1.62,1.62,0,0,0-.3-1.08,1.14,1.14,0,0,0-.89-.35,2.31,2.31,0,0,0-.7.1,3.24,3.24,0,0,0-.49.22L46.66,5a.72.72,0,0,1-.38.1A.49.49,0,0,1,46,5a.66.66,0,0,1-.21-.23l-.31-.55a4.28,4.28,0,0,1,3-1.13,3,3,0,0,1,1.12.2,2.38,2.38,0,0,1,.84.58,2.42,2.42,0,0,1,.52.88,3.33,3.33,0,0,1,.18,1.12ZM47.75,9.32a2.56,2.56,0,0,0,.49,0,1.9,1.9,0,0,0,.42-.15A1.73,1.73,0,0,0,49,8.89a2.8,2.8,0,0,0,.38-.33V7.36a7.33,7.33,0,0,0-1.26.09,3.65,3.65,0,0,0-.82.25A1.05,1.05,0,0,0,46.9,8a.83.83,0,0,0-.13.43.76.76,0,0,0,.27.66A1.19,1.19,0,0,0,47.75,9.32Z"/><path class="cls-1" d="M53,10.4V3.22h1a.43.43,0,0,1,.45.32l.11.56A4.25,4.25,0,0,1,55,3.7a3.36,3.36,0,0,1,.51-.32,2.34,2.34,0,0,1,.58-.2,2.87,2.87,0,0,1,.67-.07,2.49,2.49,0,0,1,1,.2,2.12,2.12,0,0,1,.76.56,2.62,2.62,0,0,1,.46.86,3.79,3.79,0,0,1,.16,1.1V10.4H57.48V5.83a1.5,1.5,0,0,0-.31-1,1.13,1.13,0,0,0-.91-.36,1.74,1.74,0,0,0-.84.21,2.69,2.69,0,0,0-.74.55V10.4Z"/><path class="cls-1" d="M64,3.11a3.35,3.35,0,0,1,1.25.22,2.7,2.7,0,0,1,1,.63,3,3,0,0,1,.64,1,3.73,3.73,0,0,1,.23,1.38,3.22,3.22,0,0,1,0,.33.66.66,0,0,1-.07.2.25.25,0,0,1-.12.11.56.56,0,0,1-.2,0H62.29a2.46,2.46,0,0,0,.59,1.62,1.84,1.84,0,0,0,1.37.52,2.3,2.3,0,0,0,.73-.1,3.9,3.9,0,0,0,.53-.21l.4-.22a.6.6,0,0,1,.33-.1.34.34,0,0,1,.18,0,.53.53,0,0,1,.14.12l.5.63a2.8,2.8,0,0,1-.64.56,3.27,3.27,0,0,1-.75.37,4.33,4.33,0,0,1-.79.19,5.32,5.32,0,0,1-.78.06,3.94,3.94,0,0,1-1.39-.25,3,3,0,0,1-1.12-.74,3.31,3.31,0,0,1-.75-1.2,4.69,4.69,0,0,1-.28-1.66,4,4,0,0,1,.24-1.39,3.43,3.43,0,0,1,.68-1.12,3.28,3.28,0,0,1,1.09-.76A3.52,3.52,0,0,1,64,3.11Zm0,1.24a1.61,1.61,0,0,0-1.18.42A2.1,2.1,0,0,0,62.32,6h3.25a2.2,2.2,0,0,0-.09-.64,1.53,1.53,0,0,0-.28-.52,1.3,1.3,0,0,0-.48-.35A1.54,1.54,0,0,0,64.05,4.35Z"/><path class="cls-1" d="M68.67,10.4V3.22h1.06a.43.43,0,0,1,.44.32l.12.56a3.39,3.39,0,0,1,.45-.4,4,4,0,0,1,.52-.32,2.27,2.27,0,0,1,.57-.2,2.87,2.87,0,0,1,.67-.07,2.46,2.46,0,0,1,1,.2,2.12,2.12,0,0,1,.76.56,2.45,2.45,0,0,1,.46.86,3.48,3.48,0,0,1,.16,1.1V10.4H73.2V5.83a1.5,1.5,0,0,0-.31-1A1.11,1.11,0,0,0,72,4.45a1.74,1.74,0,0,0-.84.21,2.69,2.69,0,0,0-.74.55V10.4Z"/><path class="cls-1" d="M79.13,10.51A1.91,1.91,0,0,1,77.69,10a2.07,2.07,0,0,1-.5-1.46v-4h-.73a.33.33,0,0,1-.24-.1.33.33,0,0,1-.1-.27V3.47l1.15-.19.37-2a.33.33,0,0,1,.13-.22A.39.39,0,0,1,78,1h.9V3.28h1.89V4.52H78.92V8.41a.71.71,0,0,0,.17.52.55.55,0,0,0,.44.19.7.7,0,0,0,.27,0A.68.68,0,0,0,80,9l.15-.08a.28.28,0,0,1,.12,0,.25.25,0,0,1,.13,0,.63.63,0,0,1,.1.12l.52.84a2.44,2.44,0,0,1-.87.47A3.1,3.1,0,0,1,79.13,10.51Z"/><path class="cls-1" d="M87.21,6.45v4H85.33V.28h3.09a6.51,6.51,0,0,1,1.77.21,3.6,3.6,0,0,1,1.21.6,2.26,2.26,0,0,1,.69.92,3,3,0,0,1,.23,1.18,3.39,3.39,0,0,1-.15,1A2.95,2.95,0,0,1,91,5.64a3.78,3.78,0,0,1-1,.44,1.9,1.9,0,0,1,.62.58l2.53,3.74H91.54a.82.82,0,0,1-.42-.1.77.77,0,0,1-.29-.28L88.7,6.78a.8.8,0,0,0-.26-.26A1,1,0,0,0,88,6.45Zm0-1.35h1.18A2.93,2.93,0,0,0,89.32,5,1.77,1.77,0,0,0,90,4.6,1.64,1.64,0,0,0,90.35,4a2,2,0,0,0,.12-.71A1.45,1.45,0,0,0,90,2.15a2.41,2.41,0,0,0-1.55-.41H87.21Z"/><path class="cls-1" d="M97.45,3.11a3.42,3.42,0,0,1,1.25.22,2.67,2.67,0,0,1,1,.63,3,3,0,0,1,.64,1,3.73,3.73,0,0,1,.23,1.38,3.22,3.22,0,0,1,0,.33.66.66,0,0,1-.07.2.25.25,0,0,1-.12.11.56.56,0,0,1-.2,0H95.72a2.46,2.46,0,0,0,.59,1.62,1.84,1.84,0,0,0,1.37.52,2.26,2.26,0,0,0,.73-.1,3.9,3.9,0,0,0,.53-.21l.4-.22a.6.6,0,0,1,.33-.1.34.34,0,0,1,.18,0,.41.41,0,0,1,.14.12l.5.63a2.8,2.8,0,0,1-.64.56,3.27,3.27,0,0,1-.75.37,4.33,4.33,0,0,1-.79.19,5.32,5.32,0,0,1-.78.06,3.94,3.94,0,0,1-1.39-.25A3,3,0,0,1,95,9.52a3.31,3.31,0,0,1-.75-1.2A4.7,4.7,0,0,1,94,6.66a4,4,0,0,1,.23-1.39,3.29,3.29,0,0,1,.69-1.12A3.14,3.14,0,0,1,96,3.39,3.54,3.54,0,0,1,97.45,3.11Zm0,1.24a1.61,1.61,0,0,0-1.18.42A2.1,2.1,0,0,0,95.75,6H99a2.2,2.2,0,0,0-.09-.64,1.53,1.53,0,0,0-.28-.52,1.3,1.3,0,0,0-.48-.35A1.54,1.54,0,0,0,97.48,4.35Z"/><path class="cls-1" d="M106.36,4.62a.38.38,0,0,1-.14.16.4.4,0,0,1-.2,0,.6.6,0,0,1-.27-.07l-.33-.15a3.54,3.54,0,0,0-.43-.16,1.93,1.93,0,0,0-.57-.07,1.39,1.39,0,0,0-.81.21.7.7,0,0,0-.29.57.53.53,0,0,0,.15.39,1.24,1.24,0,0,0,.4.28,3.28,3.28,0,0,0,.56.21l.65.21c.21.07.43.16.64.25a2.18,2.18,0,0,1,.56.37,1.52,1.52,0,0,1,.4.53,1.65,1.65,0,0,1,.15.74,2.3,2.3,0,0,1-.19.95,2,2,0,0,1-.55.76,2.6,2.6,0,0,1-.9.5,3.89,3.89,0,0,1-1.23.17,4.28,4.28,0,0,1-.72-.06,4.85,4.85,0,0,1-.68-.19A3.32,3.32,0,0,1,102,10a2.27,2.27,0,0,1-.49-.35l.4-.66a.62.62,0,0,1,.18-.18.54.54,0,0,1,.27-.06.55.55,0,0,1,.3.09L103,9a2.63,2.63,0,0,0,.44.19,2,2,0,0,0,.65.09,1.7,1.7,0,0,0,.53-.07,1.23,1.23,0,0,0,.36-.19.71.71,0,0,0,.21-.28.88.88,0,0,0,.07-.32.6.6,0,0,0-.15-.42,1.77,1.77,0,0,0-.4-.28,3.77,3.77,0,0,0-.57-.21l-.65-.21a5.18,5.18,0,0,1-.65-.26,2.27,2.27,0,0,1-.57-.38,1.78,1.78,0,0,1-.4-.57,2,2,0,0,1-.15-.81,2,2,0,0,1,.18-.84,1.83,1.83,0,0,1,.51-.7,2.57,2.57,0,0,1,.85-.47,3.51,3.51,0,0,1,1.17-.18,3.68,3.68,0,0,1,1.35.24,3.08,3.08,0,0,1,1,.65Z"/><path class="cls-1" d="M109.94,3.22V7.78a1.5,1.5,0,0,0,.31,1,1.11,1.11,0,0,0,.91.36A1.74,1.74,0,0,0,112,9a2.69,2.69,0,0,0,.74-.55V3.22h1.73V10.4h-1.06a.42.42,0,0,1-.44-.31l-.12-.58a4.36,4.36,0,0,1-.46.41,2.72,2.72,0,0,1-.51.32,3.3,3.3,0,0,1-.58.2,2.87,2.87,0,0,1-.67.07,2.48,2.48,0,0,1-1-.2,2.12,2.12,0,0,1-.76-.56,2.45,2.45,0,0,1-.46-.86,3.54,3.54,0,0,1-.16-1.11V3.22Z"/><path class="cls-1" d="M118.3,0V10.4h-1.73V0Z"/><path class="cls-1" d="M122.75,10.51a1.87,1.87,0,0,1-1.43-.52,2,2,0,0,1-.51-1.46v-4h-.73a.33.33,0,0,1-.24-.1.33.33,0,0,1-.1-.27V3.47l1.16-.19.36-2a.33.33,0,0,1,.13-.22.41.41,0,0,1,.25-.08h.9V3.28h1.89V4.52h-1.89V8.41a.76.76,0,0,0,.17.52.55.55,0,0,0,.45.19.77.77,0,0,0,.27,0l.19-.08.14-.08a.28.28,0,0,1,.12,0,.22.22,0,0,1,.13,0l.11.12.51.84a2.49,2.49,0,0,1-.86.47A3.2,3.2,0,0,1,122.75,10.51Z"/><path class="cls-1" d="M130.21,4.62a.38.38,0,0,1-.14.16.42.42,0,0,1-.2,0,.6.6,0,0,1-.27-.07l-.33-.15a3.54,3.54,0,0,0-.43-.16,1.93,1.93,0,0,0-.57-.07,1.39,1.39,0,0,0-.81.21.7.7,0,0,0-.29.57.53.53,0,0,0,.15.39,1.24,1.24,0,0,0,.4.28,3.28,3.28,0,0,0,.56.21c.21.06.43.13.64.21s.44.16.65.25a2.18,2.18,0,0,1,.56.37,1.52,1.52,0,0,1,.4.53,1.65,1.65,0,0,1,.15.74,2.3,2.3,0,0,1-.19.95,2,2,0,0,1-.55.76,2.6,2.6,0,0,1-.9.5,3.89,3.89,0,0,1-1.23.17,4.2,4.2,0,0,1-.72-.06,4.85,4.85,0,0,1-.68-.19,3.32,3.32,0,0,1-.6-.28,2.27,2.27,0,0,1-.49-.35l.4-.66a.62.62,0,0,1,.18-.18.54.54,0,0,1,.27-.06.55.55,0,0,1,.3.09l.33.2a3.21,3.21,0,0,0,.45.19,2,2,0,0,0,.65.09,1.6,1.6,0,0,0,.52-.07,1.17,1.17,0,0,0,.37-.19.83.83,0,0,0,.21-.28.87.87,0,0,0,.06-.32.6.6,0,0,0-.15-.42,1.41,1.41,0,0,0-.4-.28,3.28,3.28,0,0,0-.56-.21l-.65-.21a5.18,5.18,0,0,1-.65-.26,2.1,2.1,0,0,1-.57-.38,1.78,1.78,0,0,1-.4-.57,2,2,0,0,1-.15-.81,2.17,2.17,0,0,1,.17-.84,2,2,0,0,1,.52-.7,2.57,2.57,0,0,1,.85-.47,3.43,3.43,0,0,1,1.17-.18,3.68,3.68,0,0,1,1.35.24,3,3,0,0,1,1,.65Z"/></g></g></svg>