<svg xmlns="http://www.w3.org/2000/svg" viewBox="0 0 320 150"><defs><style>.cls-1{fill:#fff;}.cls-2{fill:#231f20;}</style></defs><g id="Layer_2" data-name="Layer 2"><path class="cls-1" d="M19.89,55.11a4.33,4.33,0,0,0,.74.68,3.36,3.36,0,0,0,2,.67c1.45,0,2.25-.81,2.25-1.89a1.92,1.92,0,0,0-2.16-1.89,2.41,2.41,0,0,0-1.54.5,3.11,3.11,0,0,0-.53.49l-1.89-.27L19.17,46h7.66v2.52H21.51l-.09,2.25a1.72,1.72,0,0,1,.49-.22,3.67,3.67,0,0,1,1.31-.23,4.16,4.16,0,0,1,4.42,4.23c0,2.43-1.89,4.32-4.78,4.32a6.59,6.59,0,0,1-3.56-1,5.62,5.62,0,0,1-1.21-1Z"/><path class="cls-1" d="M29.25,52.32c0-4,2.52-6.57,5.4-6.57s5.41,2.52,5.41,6.57-2.52,6.57-5.41,6.57S29.25,56.37,29.25,52.32Zm8.11,0c0-2.7-1.36-4-2.71-4s-2.7,1.35-2.7,4,1.35,4,2.7,4S37.36,55,37.36,52.32Z"/><path class="cls-1" d="M44.55,45.75a3,3,0,1,1-3.06,3A3,3,0,0,1,44.55,45.75Zm6.57.27h2.26l-7.93,12.6H43.2Zm-6.57,4a1.26,1.26,0,1,0-1.26-1.26A1.23,1.23,0,0,0,44.55,50ZM52,53a3,3,0,1,1-3.07,3A3,3,0,0,1,52,53Zm1.26,3A1.27,1.27,0,1,0,52,57.18,1.23,1.23,0,0,0,53.29,55.92Z"/><path class="cls-1" d="M64.71,49.62A4.59,4.59,0,1,1,60,54.21,4.64,4.64,0,0,1,64.71,49.62ZM67,54.21a2.25,2.25,0,1,0-2.25,2.34A2.25,2.25,0,0,0,67,54.21Z"/><path class="cls-1" d="M71.73,52.23H70.38V50h1.35v-.54c0-2.09,1.17-3.24,3-3.24a4,4,0,0,1,1,.14l.41.13v2.25l-.23-.09a1.61,1.61,0,0,0-.58-.09,1.11,1.11,0,0,0-1.17,1.26V50H77.4v-.9c0-2.09,1.18-3.24,3-3.24a5,5,0,0,1,1.15.14l.47.13v2.25l-.29-.09a2.43,2.43,0,0,0-.7-.09,1.12,1.12,0,0,0-1.18,1.26V50h2v2.25h-2v6.39H77.4V52.23H74.16v6.39H71.73Z"/><path class="cls-2" d="M86.76,52.23h3.06V49.17h2.07v3.06H95v2.25H91.89v3.06H89.82V54.48H86.76Z"/><path class="cls-1" d="M101.52,55.11a3.44,3.44,0,0,0,.78.68,3.8,3.8,0,0,0,2.2.67c1.44,0,2.07-.63,2.07-1.44,0-2.14-6.31-1.19-6.31-5.58,0-1.8,1.25-3,3.33-3.6V44.22h2.35v1.62a5.76,5.76,0,0,1,2.28.91,5.6,5.6,0,0,1,.87.71l-1.8,1.8a4.61,4.61,0,0,0-.63-.54,3.13,3.13,0,0,0-1.71-.54c-1.37,0-1.9.54-1.9,1.26,0,2.14,6.31,1.19,6.31,5.58a4,4,0,0,1-3.42,3.78v1.62h-2.35V58.8a7.18,7.18,0,0,1-2.91-1.08,4.88,4.88,0,0,1-1-.81Z"/><path class="cls-1" d="M110.79,52.32c0-4,2.52-6.57,5.41-6.57s5.4,2.52,5.4,6.57-2.52,6.57-5.4,6.57S110.79,56.37,110.79,52.32Zm8.11,0c0-2.7-1.35-4-2.7-4s-2.71,1.35-2.71,4,1.35,4,2.71,4S118.9,55,118.9,52.32Z"/><path class="cls-1" d="M133.75,57.36h-.09a3.35,3.35,0,0,1-.69.72,3.43,3.43,0,0,1-2.1.72c-2.09,0-4-1.89-4-4.59s1.88-4.59,4-4.59a3.43,3.43,0,0,1,2.1.72,3.13,3.13,0,0,1,.69.72h.09V46h2.43v12.6h-2.43Zm.09-3.15a2.26,2.26,0,1,0-2.26,2.34A2.25,2.25,0,0,0,133.84,54.21Z"/><path class="cls-1" d="M146.53,57.36a4.69,4.69,0,0,1-1,.72,5.66,5.66,0,0,1-2.8.72,4.59,4.59,0,1,1-.09-9.18A4.42,4.42,0,0,1,147.07,54a6.17,6.17,0,0,1-.06.77l0,.31h-6.4a2.28,2.28,0,0,0,2.34,1.53,3.09,3.09,0,0,0,1.75-.49,2.25,2.25,0,0,0,.6-.5Zm-2-4a2.05,2.05,0,0,0-4,0Z"/><path class="cls-1" d="M149,46h2.43v12.6H149Z"/><path class="cls-1" d="M155,45.93a1.38,1.38,0,0,1,1.38,1.35A1.4,1.4,0,1,1,155,45.93Zm-1.23,3.87h2.43v8.82h-2.43Z"/><path class="cls-1" d="M157.32,49.8h2.61l2,5.94H162l2-5.94h2.61l-3.34,8.82h-2.7Z"/><path class="cls-1" d="M175.69,57.36a4.69,4.69,0,0,1-1,.72,5.67,5.67,0,0,1-2.81.72,4.59,4.59,0,1,1-.09-9.18A4.42,4.42,0,0,1,176.23,54a6.17,6.17,0,0,1-.06.77l0,.31h-6.4a2.27,2.27,0,0,0,2.34,1.53,3.09,3.09,0,0,0,1.75-.49,2.06,2.06,0,0,0,.59-.5Zm-2-4a2.05,2.05,0,0,0-4,0Z"/><path class="cls-1" d="M178,49.8h2.43v1.26h.09a4.18,4.18,0,0,1,.67-.72,3,3,0,0,1,1.94-.72h.18v2.61l-.19,0a4.28,4.28,0,0,0-.62,0,2.11,2.11,0,0,0-2.07,2.34v4.14H178Z"/><path class="cls-1" d="M184.68,59.88A1.23,1.23,0,0,0,185,60a2.84,2.84,0,0,0,.7.09A1.57,1.57,0,0,0,187.2,59l.18-.45L184,49.8h2.61l2.07,5.85h.09l2-5.85h2.61l-3.6,9.54c-.73,2-1.78,3.06-3.42,3.06a4.56,4.56,0,0,1-1.15-.13c-.16-.05-.32-.08-.47-.14Z"/><path class="cls-1" d="M21.53,69.76A3.5,3.5,0,1,1,18,73.26,3.47,3.47,0,0,1,21.53,69.76Zm2.1,3.5a2.11,2.11,0,1,0-2.1,2.17A2.07,2.07,0,0,0,23.63,73.26Z"/><path class="cls-1" d="M26.56,69.9H28v1a2.3,2.3,0,0,1,.52-.56,2.49,2.49,0,0,1,1.59-.56,2.64,2.64,0,0,1,2.66,2.94v3.92h-1.4V72.7a1.48,1.48,0,0,0-1.54-1.61A1.79,1.79,0,0,0,28,73v3.64h-1.4Z"/><path class="cls-1" d="M36.92,78l.24.11a1.59,1.59,0,0,0,.6.1A1.27,1.27,0,0,0,39,77.32l.28-.7L36.5,69.9H38l1.89,5,1.9-5h1.54l-2.95,7.49c-.56,1.42-1.33,2.17-2.45,2.17a2.42,2.42,0,0,1-.75-.1l-.3-.11Z"/><path class="cls-1" d="M47.56,69.76a3.5,3.5,0,1,1-3.5,3.5A3.47,3.47,0,0,1,47.56,69.76Zm2.11,3.5a2.11,2.11,0,1,0-2.11,2.17A2.08,2.08,0,0,0,49.67,73.26Z"/><path class="cls-1" d="M52.6,69.9H54v3.92a1.48,1.48,0,0,0,1.54,1.61,1.79,1.79,0,0,0,1.83-1.89V69.9h1.4v6.72h-1.4v-1a3.18,3.18,0,0,1-.54.56,2.43,2.43,0,0,1-1.57.56,2.65,2.65,0,0,1-2.66-2.94Z"/><path class="cls-1" d="M60.72,69.9h1.4v.91a3.65,3.65,0,0,1,.52-.52,2.39,2.39,0,0,1,1.51-.53h.35v1.47l-.18,0a3.18,3.18,0,0,0-.38,0,1.92,1.92,0,0,0-1.82,2v3.43h-1.4Z"/><path class="cls-1" d="M68.91,71.23h-1V69.9h1v-1c0-1.48.76-2.25,2.1-2.25a2.36,2.36,0,0,1,.76.12l.29.09v1.34l-.22-.1a1.49,1.49,0,0,0-.55-.11c-.65,0-1,.35-1,1v.84h4.21v6.72h-1.4V71.23H70.31v5.39h-1.4ZM73.82,67a.85.85,0,0,1,.84.85.84.84,0,1,1-.84-.85Z"/><path class="cls-1" d="M76.54,69.9h1.4v.91a3.65,3.65,0,0,1,.52-.52A2.39,2.39,0,0,1,80,69.76h.36v1.47l-.19,0a3.18,3.18,0,0,0-.38,0,1.92,1.92,0,0,0-1.82,2v3.43h-1.4Z"/><path class="cls-1" d="M81.86,74.59a2.09,2.09,0,0,0,.48.46,2.2,2.2,0,0,0,1.27.45c.79,0,1.19-.41,1.19-.84,0-1.12-3.57-.55-3.57-2.94,0-1,.93-2,2.45-2a3.57,3.57,0,0,1,1.8.46,2.25,2.25,0,0,1,.59.45l-.91.91a2,2,0,0,0-.4-.28A2.07,2.07,0,0,0,83.68,71c-.71,0-1.05.35-1.05.7,0,1.12,3.58.56,3.58,2.94,0,1.12-1,2.1-2.6,2.1a3.36,3.36,0,0,1-2-.63A2.88,2.88,0,0,1,81,75.5Z"/><path class="cls-1" d="M88.37,71.23H87.11V69.9h.77c.44,0,.63-.21.63-.77V67.65h1.26V69.9h1.54v1.33H89.77v3.15c0,.7.33,1.05,1,1.05a1.5,1.5,0,0,0,.55-.1l.23-.11v1.33l-.3.11a2.45,2.45,0,0,1-.76.1,2,2,0,0,1-2.1-2.24Z"/><path class="cls-1" d="M20.68,86.29H17.74V84.82h7.43v1.47H22.23v8.33H20.68Z"/><path class="cls-1" d="M25.72,84.82h1.61l2.38,7.35L32,84.82h1.54l2.31,7.35,2.38-7.35h1.61l-3.22,9.8H35.11L32.8,87.27l-2.31,7.35H28.94Z"/><path class="cls-1" d="M45.82,84.67a5,5,0,1,1-5.19,5A5.06,5.06,0,0,1,45.82,84.67Zm0,8.69a3.64,3.64,0,1,0-3.65-3.64A3.62,3.62,0,0,0,45.82,93.36Z"/><path class="cls-1" d="M58.76,87.76a3.5,3.5,0,1,1-3.5,3.5A3.47,3.47,0,0,1,58.76,87.76Zm2.1,3.5a2.1,2.1,0,1,0-2.1,2.17A2.07,2.07,0,0,0,60.86,91.26Z"/><path class="cls-1" d="M63.8,87.9h1.4v.91a3.2,3.2,0,0,1,.52-.52,2.39,2.39,0,0,1,1.51-.53h.35v1.47l-.18,0a3.18,3.18,0,0,0-.38,0,1.92,1.92,0,0,0-1.82,2v3.43H63.8Z"/><path class="cls-1" d="M73.75,93.64a2.65,2.65,0,0,1-.55.56,3,3,0,0,1-1.77.56,3.52,3.52,0,0,1,0-7,3,3,0,0,1,1.77.56,2.43,2.43,0,0,1,.55.56V84.82h1.4v9.8h-1.4Zm0-2.38a2,2,0,1,0-2,2.17A2.06,2.06,0,0,0,73.75,91.26Z"/><path class="cls-1" d="M83.12,93.5a2.52,2.52,0,0,1-.7.63,3.81,3.81,0,0,1-2.17.63,3.5,3.5,0,0,1-.07-7,3.19,3.19,0,0,1,3.3,3.29,2.87,2.87,0,0,1,0,.5l0,.2H78.22a2.07,2.07,0,0,0,2.1,1.68A2.5,2.5,0,0,0,81.75,93a2.36,2.36,0,0,0,.54-.46ZM82,90.56A1.8,1.8,0,0,0,80.18,89a2,2,0,0,0-2,1.54Z"/><path class="cls-1" d="M85,87.9h1.4v.91a3.2,3.2,0,0,1,.52-.52,2.39,2.39,0,0,1,1.51-.53h.35v1.47l-.18,0a3.18,3.18,0,0,0-.38,0,1.92,1.92,0,0,0-1.82,2v3.43H85Z"/><path class="cls-1" d="M90.33,92.59a2.09,2.09,0,0,0,.48.46,2.2,2.2,0,0,0,1.27.45c.79,0,1.19-.41,1.19-.84,0-1.12-3.57-.55-3.57-2.94,0-1,.93-2,2.45-2a3.57,3.57,0,0,1,1.8.46,2,2,0,0,1,.58.45l-.91.91a1.7,1.7,0,0,0-.39-.28A2.07,2.07,0,0,0,92.15,89c-.71,0-1.05.35-1.05.7,0,1.12,3.57.56,3.57,2.94,0,1.12-1,2.1-2.59,2.1a3.36,3.36,0,0,1-2-.63,2.88,2.88,0,0,1-.67-.63Z"/></g></svg>