<svg xmlns="http://www.w3.org/2000/svg" viewBox="0 0 320 150"><defs><style>.cls-1{fill:#fff;}</style></defs><g id="Layer_2" data-name="Layer 2"><path class="cls-1" d="M19.08,46h5.59A4.31,4.31,0,0,1,28,53.18a3.26,3.26,0,0,1-1.08.76l2.61,4.68h-3L24.3,54.48H21.79v4.14H19.08ZM24.58,52a1.71,1.71,0,0,0,0-3.42H21.79V52Z"/><path class="cls-1" d="M39.07,57.36a5,5,0,0,1-1,.72,5.66,5.66,0,0,1-2.8.72,4.59,4.59,0,1,1-.09-9.18A4.42,4.42,0,0,1,39.61,54a6.34,6.34,0,0,1-.06.77l0,.31h-6.4a2.28,2.28,0,0,0,2.34,1.53,3.09,3.09,0,0,0,1.75-.49,2.06,2.06,0,0,0,.59-.5Zm-2-4a2.05,2.05,0,0,0-4,0Z"/><path class="cls-1" d="M41.94,55.65a2.78,2.78,0,0,0,.63.5,3.12,3.12,0,0,0,1.71.49c.81,0,1.09-.27,1.09-.63,0-1-4.51-.81-4.51-3.69,0-1.44,1.26-2.7,3.52-2.7a4.92,4.92,0,0,1,2.55.68,4,4,0,0,1,.86.67L46.36,52.5a3.07,3.07,0,0,0-.53-.36,2.86,2.86,0,0,0-1.45-.36c-.64,0-.91.27-.91.54,0,1,4.5.81,4.5,3.69,0,1.51-1.26,2.79-3.69,2.79A5.21,5.21,0,0,1,41.47,58a4.54,4.54,0,0,1-1-.81Z"/><path class="cls-1" d="M50.31,52.23H48.78V50h.81c.67,0,1-.36,1-1.08V47.28h2.16V50h2v2.25h-2v3a1.11,1.11,0,0,0,1.17,1.26,2.92,2.92,0,0,0,.71-.09,2.29,2.29,0,0,0,.28-.09v2.25l-.46.14a4.64,4.64,0,0,1-1.16.13c-1.8,0-3-1.15-3-3.24Z"/><path class="cls-1" d="M61.56,57.54h-.09a3.59,3.59,0,0,1-.66.63,3.14,3.14,0,0,1-2,.63,2.51,2.51,0,0,1-2.7-2.52,2.86,2.86,0,0,1,2.61-2.83l2.79-.5A1.4,1.4,0,0,0,60,51.78a2.3,2.3,0,0,0-1.46.5,3.11,3.11,0,0,0-.53.49l-1.44-1.44a4.73,4.73,0,0,1,3.6-1.71A3.55,3.55,0,0,1,64,53.13v5.49H61.56Zm0-2.88-2,.36c-.63.12-1,.45-1,.9s.36.9,1.08.9a1.87,1.87,0,0,0,1.89-2Z"/><path class="cls-1" d="M66.33,49.8h2.43v5a1.53,1.53,0,0,0,1.62,1.71,1.88,1.88,0,0,0,1.9-2V49.8h2.43v8.82H72.28V57.36h-.09a4.58,4.58,0,0,1-.67.72,3,3,0,0,1-2,.72c-1.8,0-3.24-1.44-3.24-3.69Z"/><path class="cls-1" d="M77,49.8h2.43v1.26h.09a4.18,4.18,0,0,1,.67-.72,3,3,0,0,1,1.94-.72h.18v2.61l-.19,0a4.28,4.28,0,0,0-.62,0,2.11,2.11,0,0,0-2.07,2.34v4.14H77Z"/><path class="cls-1" d="M88.83,57.54h-.09a3.59,3.59,0,0,1-.66.63,3.14,3.14,0,0,1-2,.63,2.51,2.51,0,0,1-2.7-2.52A2.86,2.86,0,0,1,86,53.45l2.79-.5a1.41,1.41,0,0,0-1.53-1.17,2.29,2.29,0,0,0-1.45.5,3.11,3.11,0,0,0-.53.49l-1.44-1.44a4.42,4.42,0,0,1,.92-.85,4.66,4.66,0,0,1,2.68-.86,3.55,3.55,0,0,1,3.79,3.51v5.49H88.83Zm0-2.88-2,.36c-.63.12-1,.45-1,.9s.36.9,1.08.9a1.87,1.87,0,0,0,1.89-2Z"/><path class="cls-1" d="M93.6,49.8H96v1.26h.09a4.18,4.18,0,0,1,.67-.72,3,3,0,0,1,1.94-.72c1.81,0,3.24,1.44,3.24,3.69v5.31H99.54V53.67A1.53,1.53,0,0,0,97.92,52a1.87,1.87,0,0,0-1.89,2v4.68H93.6Z"/><path class="cls-1" d="M104.85,52.23h-1.53V50h.81c.67,0,1-.36,1-1.08V47.28h2.16V50h2v2.25h-2v3a1.11,1.11,0,0,0,1.17,1.26,2.77,2.77,0,0,0,.7-.09,2,2,0,0,0,.29-.09v2.25l-.47.14a4.5,4.5,0,0,1-1.15.13c-1.8,0-3-1.15-3-3.24Z"/><path class="cls-1" d="M111.87,55.65a2.78,2.78,0,0,0,.63.5,3.12,3.12,0,0,0,1.71.49c.81,0,1.08-.27,1.08-.63,0-1-4.5-.81-4.5-3.69,0-1.44,1.26-2.7,3.51-2.7a5,5,0,0,1,2.56.68,4,4,0,0,1,.86.67l-1.44,1.53a2.64,2.64,0,0,0-.52-.36,2.87,2.87,0,0,0-1.46-.36c-.63,0-.9.27-.9.54,0,1,4.5.81,4.5,3.69,0,1.51-1.26,2.79-3.69,2.79A5.21,5.21,0,0,1,111.4,58a4.54,4.54,0,0,1-1-.81Z"/><path class="cls-1" d="M128.25,57.54h-.09a3.94,3.94,0,0,1-.66.63,3.17,3.17,0,0,1-2,.63,2.51,2.51,0,0,1-2.7-2.52,2.86,2.86,0,0,1,2.61-2.83l2.79-.5a1.41,1.41,0,0,0-1.53-1.17,2.34,2.34,0,0,0-1.46.5,3.46,3.46,0,0,0-.52.49l-1.44-1.44a4.42,4.42,0,0,1,.92-.85,4.66,4.66,0,0,1,2.68-.86,3.54,3.54,0,0,1,3.78,3.51v5.49h-2.43Zm0-2.88-2,.36c-.63.12-1,.45-1,.9s.36.9,1.08.9a1.87,1.87,0,0,0,1.89-2Z"/><path class="cls-1" d="M133,49.8h2.43v1.26h.09a4.18,4.18,0,0,1,.67-.72,3,3,0,0,1,1.94-.72c1.8,0,3.24,1.44,3.24,3.69v5.31H139V53.67A1.53,1.53,0,0,0,137.34,52a1.87,1.87,0,0,0-1.89,2v4.68H133Z"/><path class="cls-1" d="M150,57.36h-.09a3.29,3.29,0,0,1-.68.72,3.46,3.46,0,0,1-2.11.72c-2.09,0-4-1.89-4-4.59s1.87-4.59,4-4.59a3.46,3.46,0,0,1,2.11.72,3.09,3.09,0,0,1,.68.72H150V46h2.43v12.6H150Zm.09-3.15a2.25,2.25,0,1,0-2.25,2.34A2.25,2.25,0,0,0,150.12,54.21Z"/><path class="cls-1" d="M18.63,68.8h2.43v1.26h.09a3.39,3.39,0,0,1,.58-.72,2.71,2.71,0,0,1,1.86-.72,2.92,2.92,0,0,1,2,.77,3.2,3.2,0,0,1,.6.76h.09a3.29,3.29,0,0,1,.73-.76,3.43,3.43,0,0,1,2.15-.77c1.72,0,3.06,1.35,3.06,3.51v5.49H29.8V72.49A1.33,1.33,0,0,0,28.36,71a1.67,1.67,0,0,0-1.71,1.8v4.86H24.21V72.49A1.33,1.33,0,0,0,22.78,71a1.68,1.68,0,0,0-1.72,1.8v4.86H18.63Z"/><path class="cls-1" d="M38.71,68.62A4.59,4.59,0,1,1,34,73.21,4.64,4.64,0,0,1,38.71,68.62ZM41,73.21a2.26,2.26,0,1,0-2.25,2.34A2.26,2.26,0,0,0,41,73.21Z"/><path class="cls-1" d="M45.18,68.8h2.43v1.26h.1a3.77,3.77,0,0,1,.66-.72,3,3,0,0,1,1.94-.72h.18v2.61l-.19,0a4.12,4.12,0,0,0-.61,0,2.12,2.12,0,0,0-2.08,2.34v4.14H45.18Z"/><path class="cls-1" d="M59.77,76.36a4.69,4.69,0,0,1-1,.72A5.67,5.67,0,0,1,56,77.8a4.59,4.59,0,1,1-.09-9.18A4.42,4.42,0,0,1,60.31,73a6.34,6.34,0,0,1-.06.77l0,.31h-6.4a2.27,2.27,0,0,0,2.34,1.53,3.09,3.09,0,0,0,1.75-.49,2.25,2.25,0,0,0,.6-.5Zm-2-4a2.05,2.05,0,0,0-4,0Z"/><path class="cls-1" d="M62.55,74.92l2.07,1.17L62.1,80l-1.44-.81Z"/><path class="cls-1" d="M76.51,76.36h-.1a3.29,3.29,0,0,1-.68.72,3.46,3.46,0,0,1-2.11.72c-2.08,0-4-1.89-4-4.59s1.88-4.59,4-4.59a3.46,3.46,0,0,1,2.11.72,3.09,3.09,0,0,1,.68.72h.1V65h2.43v12.6H76.51Zm.09-3.15a2.26,2.26,0,1,0-2.26,2.34A2.25,2.25,0,0,0,76.6,73.21Z"/><path class="cls-1" d="M89.29,76.36a4.69,4.69,0,0,1-1,.72,5.67,5.67,0,0,1-2.81.72,4.59,4.59,0,1,1-.09-9.18A4.42,4.42,0,0,1,89.83,73a6.34,6.34,0,0,1-.06.77l0,.31h-6.4a2.27,2.27,0,0,0,2.34,1.53,3.09,3.09,0,0,0,1.75-.49,2.25,2.25,0,0,0,.6-.5Zm-2-4a2,2,0,0,0-4,0Z"/><path class="cls-1" d="M91.71,65h2.43v12.6H91.71Z"/><path class="cls-1" d="M97.8,64.93a1.38,1.38,0,0,1,1.38,1.35,1.4,1.4,0,1,1-1.38-1.35ZM96.57,68.8H99v8.82H96.57Z"/><path class="cls-1" d="M100.08,68.8h2.61l2,5.94h.07l2-5.94h2.62l-3.34,8.82h-2.7Z"/><path class="cls-1" d="M118.45,76.36a5,5,0,0,1-1,.72,5.7,5.7,0,0,1-2.81.72,4.59,4.59,0,1,1-.09-9.18A4.42,4.42,0,0,1,119,73a6.72,6.72,0,0,1,0,.77l0,.31H112.5a2.27,2.27,0,0,0,2.34,1.53,3.09,3.09,0,0,0,1.75-.49,2.21,2.21,0,0,0,.59-.5Zm-2-4a2,2,0,0,0-4,0Z"/><path class="cls-1" d="M120.78,68.8h2.43v1.26h.09a4.18,4.18,0,0,1,.67-.72,3,3,0,0,1,1.94-.72h.18v2.61l-.19,0a4.28,4.28,0,0,0-.62,0,2.11,2.11,0,0,0-2.07,2.34v4.14h-2.43Z"/><path class="cls-1" d="M135.37,76.36a5,5,0,0,1-1,.72,5.7,5.7,0,0,1-2.81.72,4.59,4.59,0,1,1-.09-9.18A4.42,4.42,0,0,1,135.9,73a6.72,6.72,0,0,1-.05.77l0,.31h-6.39a2.27,2.27,0,0,0,2.34,1.53,3.09,3.09,0,0,0,1.75-.49,2.21,2.21,0,0,0,.59-.5Zm-2-4a2,2,0,0,0-4,0Z"/><path class="cls-1" d="M144,76.36h-.09a3.29,3.29,0,0,1-.68.72,3.46,3.46,0,0,1-2.11.72c-2.08,0-4-1.89-4-4.59s1.88-4.59,4-4.59a3.46,3.46,0,0,1,2.11.72,3.09,3.09,0,0,1,.68.72H144V65h2.44v12.6H144Zm.09-3.15a2.25,2.25,0,1,0-2.25,2.34A2.25,2.25,0,0,0,144.09,73.21Z"/><path class="cls-1" d="M19.35,90.23H17.82V88h.81c.67,0,1-.36,1-1.08V85.28h2.17V88h2v2.25h-2v3A1.11,1.11,0,0,0,23,94.46a2.9,2.9,0,0,0,.7-.09,2,2,0,0,0,.29-.09v2.25l-.47.14a4.58,4.58,0,0,1-1.16.13c-1.8,0-3-1.15-3-3.24Z"/><path class="cls-1" d="M29.79,87.62a4.59,4.59,0,1,1-4.68,4.59A4.63,4.63,0,0,1,29.79,87.62Zm2.26,4.59a2.26,2.26,0,1,0-2.26,2.34A2.25,2.25,0,0,0,32.05,92.21Z"/><path class="cls-1" d="M39.15,97.88a1.23,1.23,0,0,0,.29.09,2.9,2.9,0,0,0,.7.09A1.58,1.58,0,0,0,41.68,97l.18-.45L38.43,87.8H41l2.08,5.85h.09l2-5.85H47.8l-3.6,9.54c-.74,2-1.79,3.06-3.42,3.06a4.58,4.58,0,0,1-1.16-.13l-.47-.14Z"/><path class="cls-1" d="M53,87.62a4.59,4.59,0,1,1-4.69,4.59A4.64,4.64,0,0,1,53,87.62Zm2.25,4.59A2.26,2.26,0,1,0,53,94.55,2.25,2.25,0,0,0,55.27,92.21Z"/><path class="cls-1" d="M59.49,87.8h2.43v5a1.53,1.53,0,0,0,1.62,1.71,1.88,1.88,0,0,0,1.9-2V87.8h2.43v8.82H65.44V95.36h-.09a4.58,4.58,0,0,1-.67.72,3,3,0,0,1-2,.72c-1.8,0-3.24-1.44-3.24-3.69Z"/><path class="cls-1" d="M70.2,87.8h2.43v1.26h.09a4.18,4.18,0,0,1,.67-.72,3,3,0,0,1,2-.72h.18v2.61l-.2,0a4.25,4.25,0,0,0-.61,0,2.12,2.12,0,0,0-2.08,2.34v4.14H70.2Z"/><path class="cls-1" d="M86.77,95.36h-.09a3.35,3.35,0,0,1-.69.72,3.43,3.43,0,0,1-2.1.72c-2.09,0-4-1.89-4-4.59s1.88-4.59,4-4.59a3.43,3.43,0,0,1,2.1.72,3.13,3.13,0,0,1,.69.72h.09V84H89.2v12.6H86.77Zm.09-3.15a2.25,2.25,0,1,0-2.25,2.34A2.25,2.25,0,0,0,86.86,92.21Z"/><path class="cls-1" d="M95.77,87.62a4.59,4.59,0,1,1-4.69,4.59A4.63,4.63,0,0,1,95.77,87.62ZM98,92.21a2.25,2.25,0,1,0-2.25,2.34A2.25,2.25,0,0,0,98,92.21Z"/><path class="cls-1" d="M106.39,87.62a4.59,4.59,0,1,1-4.68,4.59A4.63,4.63,0,0,1,106.39,87.62Zm2.25,4.59a2.26,2.26,0,1,0-2.25,2.34A2.25,2.25,0,0,0,108.64,92.21Z"/><path class="cls-1" d="M112.87,87.8h2.42v1.26h.1a3.77,3.77,0,0,1,.66-.72,3,3,0,0,1,2-.72h.18v2.61l-.2,0a4.12,4.12,0,0,0-.61,0,2.12,2.12,0,0,0-2.08,2.34v4.14h-2.42Z"/></g></svg>