<svg xmlns="http://www.w3.org/2000/svg" viewBox="0 0 99.51 21.24"><defs><style>.cls-1{fill:#fff;}.cls-2{fill:#ff3008;}</style></defs><g id="Layer_2" data-name="Layer 2"><g id="Layer_2-2" data-name="Layer 2"><rect class="cls-1" width="99.51" height="21.24" rx="10.14"/><path class="cls-2" d="M20.49,7.33A3.4,3.4,0,1,1,17,10.72,3.43,3.43,0,0,1,20.49,7.33Zm0,5.48a2.09,2.09,0,1,0-2.09-2.09A2.08,2.08,0,0,0,20.49,12.81Z"/><path class="cls-2" d="M25.74,7.47h2.88A2.1,2.1,0,0,1,30.9,9.65a2.07,2.07,0,0,1-.56,1.52,1.57,1.57,0,0,1-.56.39L31.13,14H29.6l-1.16-2.14h-1.3V14h-1.4Zm2.84,3.07a.89.89,0,0,0,0-1.77H27.14v1.77Z"/><path class="cls-2" d="M32.76,7.47h2.37a3.26,3.26,0,1,1,0,6.51H32.76Zm2.37,5.2a2,2,0,1,0,0-3.9h-1v3.9Z"/><path class="cls-2" d="M40.29,7.47h4.83v1.3H41.68V10h2.7v1.25h-2.7v1.39h3.53V14H40.29Z"/><path class="cls-2" d="M46.93,7.47h2.88a2.1,2.1,0,0,1,2.28,2.18,2.07,2.07,0,0,1-.56,1.52,1.53,1.53,0,0,1-.55.39L52.32,14H50.79l-1.16-2.14h-1.3V14h-1.4Zm2.84,3.07a.89.89,0,0,0,0-1.77H48.33v1.77Z"/><path class="cls-2" d="M56.37,7.47h1.25l3.16,4v-4h1.4V14H60.92L57.76,9.93V14H56.37Z"/><path class="cls-2" d="M67.43,7.33a3.4,3.4,0,1,1-3.53,3.39A3.43,3.43,0,0,1,67.43,7.33Zm0,5.48a2.09,2.09,0,1,0-2.09-2.09A2.08,2.08,0,0,0,67.43,12.81Z"/><path class="cls-2" d="M71.8,7.47h1.44l1.34,4.37h0L76,7.47h1.3l1.35,4.37h0L80,7.47h1.44L79.32,14H78L76.66,9.75H76.6L75.28,14H73.93Z"/></g></g></svg>