<svg xmlns="http://www.w3.org/2000/svg" viewBox="0 0 320 150"><defs><style>.cls-1{fill:#fff;}</style></defs><g id="Layer_2" data-name="Layer 2"><path class="cls-1" d="M52.86,18.57a4.91,4.91,0,1,1,0,9.82H49.47a.25.25,0,0,1-.25-.25V18.83a.26.26,0,0,1,.25-.26Zm-1.54,1.9v6h1.54a3,3,0,0,0,3-3,2.93,2.93,0,0,0-3-3Z"/><path class="cls-1" d="M65.33,18.36A5.12,5.12,0,1,1,60,23.48a5.2,5.2,0,0,1,5.33-5.12m0,8.35a3.23,3.23,0,1,0-3.22-3.23,3.23,3.23,0,0,0,3.22,3.23"/><path class="cls-1" d="M78,18.36a5.12,5.12,0,1,1-5.33,5.12A5.2,5.2,0,0,1,78,18.36m0,8.35a3.23,3.23,0,1,0-3.22-3.23A3.22,3.22,0,0,0,78,26.71"/><path class="cls-1" d="M86.12,18.83a.26.26,0,0,1,.25-.26h4.1a3.22,3.22,0,0,1,3.36,3.23,3.17,3.17,0,0,1-1.75,2.87L94,28a.26.26,0,0,1-.22.38H92.09a.25.25,0,0,1-.22-.13L90,25H88.22v3.18a.25.25,0,0,1-.25.25h-1.6a.25.25,0,0,1-.25-.25Zm4.28,1.64H88.22v2.59H90.4a1.27,1.27,0,0,0,1.33-1.26,1.29,1.29,0,0,0-1.33-1.33"/><path class="cls-1" d="M100.85,18.62a4.91,4.91,0,1,1,0,9.82H97.46a.26.26,0,0,1-.26-.26V18.87a.26.26,0,0,1,.26-.25Zm-1.54,1.89v6h1.54a3,3,0,0,0,2.94-3,2.94,2.94,0,0,0-2.94-3Z"/><path class="cls-1" d="M110.42,26.07l-.78,2.14a.27.27,0,0,1-.24.17h-1.7a.25.25,0,0,1-.23-.35l3.65-9.31a.28.28,0,0,1,.24-.16h1.9a.28.28,0,0,1,.24.16L117.15,28a.25.25,0,0,1-.23.35h-1.7a.27.27,0,0,1-.24-.17l-.78-2.14ZM112.31,21l-1.19,3.22h2.38Z"/><path class="cls-1" d="M119.12,21.23c0-1.54,1.34-2.88,3.44-2.88a4.36,4.36,0,0,1,3,1.15.25.25,0,0,1,0,.36l-1,.94a.24.24,0,0,1-.34,0,2.48,2.48,0,0,0-1.63-.64c-.84,0-1.47.49-1.47,1.05,0,1.82,5,.77,5,4.28,0,1.75-1.34,3.08-3.72,3.08a5,5,0,0,1-3.55-1.43.25.25,0,0,1,0-.35l.91-.91a.25.25,0,0,1,.35,0,3.16,3.16,0,0,0,2.15.88c1.05,0,1.74-.56,1.74-1.26,0-1.83-5-.78-5-4.28"/><path class="cls-1" d="M135.23,18.82v3.67H131V18.82a.26.26,0,0,0-.26-.26h-1.59a.26.26,0,0,0-.26.26v9.31a.26.26,0,0,0,.26.25h1.59a.26.26,0,0,0,.26-.25V24.38h4.21v3.75a.25.25,0,0,0,.25.25h1.6a.25.25,0,0,0,.25-.25V18.82a.26.26,0,0,0-.25-.26h-1.6a.26.26,0,0,0-.25.26"/><path class="cls-1" d="M40.91,19.85a6.15,6.15,0,0,0-5.45-3.26H18.17a.59.59,0,0,0-.42,1l3.77,3.79a1.77,1.77,0,0,0,1.25.52H35a1.6,1.6,0,0,1,1.56,1.22A1.57,1.57,0,0,1,35,25.05h-8.4a.6.6,0,0,0-.42,1l3.77,3.79a1.77,1.77,0,0,0,1.25.52H35a7,7,0,0,0,5.92-10.53"/></g></svg>