<?xml version="1.0" encoding="UTF-8"?>
<svg id="Layer_1" data-name="Layer 1" xmlns="http://www.w3.org/2000/svg" viewBox="0 0 300 250">
  <defs>
    <style>
      .cls-1 {
        fill: #171d21;
        stroke-width: 0px;
      }
    </style>
  </defs>
  <path class="cls-1" d="M28.1,101.89h-.18c-.16.45-.4.9-.71,1.34-.31.42-.67.8-1.1,1.13-.47.35-.97.61-1.48.78-.61.19-1.27.28-1.98.28-1.84,0-3.32-.6-4.45-1.8-1.13-1.2-1.7-2.91-1.7-5.12v-11.74h3.85v11.17c0,2.9,1.26,4.35,3.78,4.35.52,0,1-.07,1.45-.21.4-.09.82-.28,1.27-.57.33-.21.64-.54.92-.99.21-.4.32-.86.32-1.38v-12.37h3.85v18.24h-3.85v-3.11ZM36.46,105v-18.24h3.85v3.11h.18c.16-.45.41-.91.74-1.38.31-.45.66-.82,1.06-1.13.42-.33.92-.58,1.48-.74.61-.19,1.27-.28,1.98-.28,1.84,0,3.32.6,4.45,1.8,1.13,1.2,1.7,2.91,1.7,5.13v11.74h-3.85v-11.17c0-2.9-1.26-4.35-3.78-4.35-.45,0-.93.06-1.45.18-.42.14-.85.34-1.27.6-.35.21-.65.54-.88.99-.24.38-.35.84-.35,1.38v12.37h-3.85ZM67.34,105h-3.89c-1.53,0-2.65-.4-3.36-1.2-.73-.82-1.1-1.87-1.1-3.15v-17.39h-3.11v-2.93h6.72v21.74h4.74v2.93ZM79.13,105.42c-1.37,0-2.57-.22-3.61-.67-1.06-.45-1.97-1.08-2.72-1.91-.78-.85-1.36-1.85-1.73-3-.4-1.2-.6-2.52-.6-3.96s.2-2.76.6-3.96c.38-1.15.95-2.16,1.73-3,.75-.82,1.66-1.46,2.72-1.91,1.04-.45,2.24-.67,3.61-.67s2.58.22,3.64.67c1.08.47,1.99,1.11,2.72,1.91s1.3,1.8,1.7,3c.4,1.2.6,2.52.6,3.96s-.2,2.76-.6,3.96c-.4,1.2-.97,2.2-1.7,3-.73.8-1.64,1.44-2.72,1.91-1.06.45-2.27.67-3.64.67ZM79.13,102.38c1.41,0,2.54-.44,3.39-1.31.82-.87,1.24-2.14,1.24-3.82v-2.76c0-1.67-.41-2.96-1.24-3.85-.85-.85-1.98-1.27-3.39-1.27s-2.53.42-3.36,1.27c-.85.87-1.27,2.16-1.27,3.85v2.76c0,1.7.42,2.97,1.27,3.82.8.87,1.92,1.31,3.36,1.31ZM105.7,105c-1.11,0-1.93-.28-2.47-.85-.59-.59-.93-1.33-1.03-2.23h-.18c-.35,1.13-.99,1.99-1.91,2.58-.97.61-2.16.92-3.57.92-1.86,0-3.35-.5-4.45-1.48-1.11-.97-1.66-2.31-1.66-4.03s.66-3.1,1.98-4.06c1.32-.92,3.32-1.38,6.01-1.38h3.5v-1.41c0-2.47-1.31-3.71-3.92-3.71-1.18,0-2.13.22-2.86.67-.71.42-1.32,1.04-1.84,1.84l-2.3-1.87c.54-.99,1.41-1.85,2.62-2.58,1.25-.71,2.83-1.06,4.74-1.06,2.31,0,4.12.55,5.44,1.66,1.32,1.11,1.98,2.71,1.98,4.81v9.15h2.3v3.04h-2.37ZM97.64,102.6c1.25,0,2.27-.28,3.08-.85.8-.57,1.2-1.3,1.2-2.19v-2.65h-3.43c-2.78,0-4.17.84-4.17,2.51v.71c0,.85.29,1.46.88,1.84.61.42,1.43.64,2.44.64ZM111.05,105v-18.24h3.85v3.11h.18c.17-.45.41-.91.74-1.38.31-.45.66-.82,1.06-1.13.42-.33.92-.58,1.48-.74.61-.19,1.27-.28,1.98-.28,1.84,0,3.32.6,4.45,1.8,1.13,1.2,1.7,2.91,1.7,5.13v11.74h-3.85v-11.17c0-2.9-1.26-4.35-3.78-4.35-.45,0-.93.06-1.45.18-.42.14-.85.34-1.27.6-.35.21-.65.54-.88.99-.24.38-.35.84-.35,1.38v12.37h-3.85ZM152.64,86.76h3.89l-8.84,21.77c-.45,1.13-1.06,2.01-1.84,2.65-.75.59-1.86.88-3.32.88h-3.08v-3.11h4.31l1.66-4.21-7.35-17.99h4.03l2.9,7.63,2.26,6.26h.21l2.26-6.26,2.9-7.63ZM166.39,105.42c-1.37,0-2.57-.22-3.6-.67-1.06-.45-1.97-1.08-2.72-1.91-.78-.85-1.35-1.85-1.73-3-.4-1.2-.6-2.52-.6-3.96s.2-2.76.6-3.96c.38-1.15.95-2.16,1.73-3,.75-.82,1.66-1.46,2.72-1.91,1.04-.45,2.24-.67,3.6-.67s2.58.22,3.64.67c1.08.47,1.99,1.11,2.72,1.91.73.8,1.3,1.8,1.7,3,.4,1.2.6,2.52.6,3.96s-.2,2.76-.6,3.96c-.4,1.2-.97,2.2-1.7,3-.73.8-1.64,1.44-2.72,1.91-1.06.45-2.27.67-3.64.67ZM166.39,102.38c1.41,0,2.54-.44,3.39-1.31.82-.87,1.24-2.14,1.24-3.82v-2.76c0-1.67-.41-2.96-1.24-3.85-.85-.85-1.98-1.27-3.39-1.27s-2.53.42-3.36,1.27c-.85.87-1.27,2.16-1.27,3.85v2.76c0,1.7.42,2.97,1.27,3.82.8.87,1.92,1.31,3.36,1.31ZM189.96,101.89h-.18c-.17.45-.4.9-.71,1.34-.31.42-.67.8-1.1,1.13-.47.35-.97.61-1.49.78-.61.19-1.27.28-1.98.28-1.84,0-3.32-.6-4.45-1.8-1.13-1.2-1.7-2.91-1.7-5.12v-11.74h3.85v11.17c0,2.9,1.26,4.35,3.78,4.35.52,0,1-.07,1.45-.21.4-.09.82-.28,1.27-.57.33-.21.64-.54.92-.99.21-.4.32-.86.32-1.38v-12.37h3.85v18.24h-3.85v-3.11ZM198.04,101.89h4.84v-12.02h-4.84v-3.11h8.69v4.84h.21c.19-.71.42-1.32.71-1.84.28-.54.67-1.06,1.17-1.56.45-.4,1.03-.75,1.73-1.06.71-.26,1.51-.39,2.4-.39h2.19v3.68h-3.61c-1.41,0-2.57.41-3.46,1.24-.9.85-1.34,1.98-1.34,3.39v6.82h6.61v3.11h-15.3v-3.11Z"/>
</svg>