<?xml version="1.0" encoding="UTF-8"?>
<svg id="Layer_1" data-name="Layer 1" xmlns="http://www.w3.org/2000/svg" viewBox="0 0 300 250">
  <defs>
    <style>
      .cls-1 {
        fill: #171d21;
        stroke-width: 0px;
      }
    </style>
  </defs>
  <path class="cls-1" d="M15.33,171.08c0-1.16.15-2.22.46-3.2.3-.97.75-1.87,1.33-2.69h1.26c-.23.3-.44.68-.64,1.12-.2.44-.37.93-.52,1.46-.15.53-.26,1.07-.35,1.64-.08.56-.12,1.12-.12,1.67,0,.73.07,1.47.22,2.22.14.75.34,1.45.59,2.09.25.64.52,1.17.82,1.57h-1.26c-.58-.82-1.03-1.72-1.33-2.69-.3-.97-.46-2.04-.46-3.2ZM22.16,175.16c-.45,0-.86-.08-1.22-.25-.36-.17-.65-.41-.86-.73-.21-.32-.31-.71-.31-1.18,0-.4.08-.73.23-.99.15-.26.36-.46.62-.61.26-.15.55-.26.88-.34.32-.08.65-.14.99-.18.42-.05.77-.09,1.03-.12.26-.03.46-.09.58-.16.12-.07.18-.19.18-.36v-.03c0-.4-.11-.71-.34-.94-.22-.22-.56-.33-1.01-.33s-.83.1-1.1.31c-.26.2-.45.43-.55.68l-1.3-.3c.15-.43.38-.78.67-1.04.3-.27.64-.46,1.03-.58.39-.12.8-.18,1.22-.18.28,0,.58.03.9.1.32.07.62.18.9.36.28.18.51.43.69.75.18.32.27.74.27,1.26v4.71h-1.35v-.97h-.06c-.09.18-.22.35-.4.53-.18.17-.41.31-.69.43-.28.11-.62.17-1.01.17ZM22.46,174.05c.38,0,.71-.07.98-.23.27-.15.48-.35.62-.59.14-.25.22-.51.22-.79v-.91c-.05.05-.14.1-.29.14-.14.04-.3.07-.48.11-.18.03-.35.05-.52.08-.17.02-.31.04-.42.05-.27.03-.51.09-.73.17-.22.08-.39.19-.53.35-.13.15-.19.35-.19.59,0,.34.13.6.38.77.25.17.57.26.96.26ZM29.14,170.79v4.21h-1.38v-7.09h1.32v1.15h.09c.16-.38.42-.68.77-.9.35-.23.79-.34,1.33-.34.48,0,.91.1,1.27.3.36.2.64.5.84.9.2.4.3.89.3,1.47v4.51h-1.38v-4.34c0-.51-.13-.92-.4-1.21-.27-.29-.64-.44-1.1-.44-.32,0-.6.07-.85.21-.25.14-.44.34-.59.61-.14.26-.21.58-.21.96ZM38.45,175.14c-.57,0-1.08-.15-1.53-.44-.45-.3-.8-.72-1.05-1.26-.25-.55-.38-1.21-.38-1.97s.13-1.42.38-1.97c.26-.54.61-.96,1.06-1.25.45-.29.96-.43,1.53-.43.44,0,.79.07,1.06.22.27.15.48.31.63.51.15.19.27.36.35.51h.08v-3.51h1.38v9.46h-1.35v-1.1h-.12c-.08.15-.2.32-.36.52-.15.19-.37.36-.64.51-.27.14-.62.22-1.05.22ZM38.75,173.96c.4,0,.73-.1,1.01-.31.28-.21.49-.51.63-.88.14-.38.22-.81.22-1.31s-.07-.92-.21-1.29-.35-.66-.62-.86c-.27-.21-.61-.31-1.02-.31s-.76.11-1.04.32c-.28.22-.49.51-.63.88-.14.37-.21.79-.21,1.26s.07.9.21,1.28c.14.38.35.68.63.9.28.22.62.33,1.03.33ZM47.89,177.66v-9.75h1.35v1.15h.12c.08-.15.2-.32.35-.51s.36-.36.63-.51c.27-.15.62-.22,1.06-.22.57,0,1.08.14,1.53.43.45.29.8.71,1.06,1.25.26.54.39,1.2.39,1.97s-.13,1.42-.38,1.97c-.26.54-.61.96-1.05,1.26-.45.29-.96.44-1.53.44-.43,0-.78-.07-1.06-.22-.27-.15-.48-.31-.64-.51s-.27-.37-.36-.52h-.08v3.76h-1.38ZM49.24,171.46c0,.5.07.93.22,1.31.14.38.35.67.63.88.27.21.61.31,1.01.31s.76-.11,1.03-.33c.28-.22.49-.52.63-.9.14-.38.22-.8.22-1.28s-.07-.89-.21-1.26c-.14-.37-.35-.67-.63-.88-.28-.21-.62-.32-1.04-.32s-.74.1-1.02.31c-.27.21-.48.49-.62.86-.14.37-.21.8-.21,1.29ZM60.67,172.06v-4.15h1.38v7.09h-1.36v-1.23h-.07c-.16.38-.42.69-.78.95-.36.25-.8.37-1.33.37-.46,0-.86-.1-1.21-.3-.35-.2-.62-.5-.82-.9-.2-.4-.3-.89-.3-1.47v-4.51h1.38v4.34c0,.48.13.87.4,1.15.27.29.62.43,1.04.43.26,0,.52-.07.77-.19.26-.13.47-.33.64-.59.17-.26.26-.59.25-1ZM67.47,167.91v1.11h-3.87v-1.11h3.87ZM64.64,166.21h1.38v6.71c0,.27.04.47.12.6.08.13.18.22.31.27.13.05.27.07.42.07.11,0,.21,0,.29-.02.08-.01.15-.03.19-.04l.25,1.14c-.08.03-.19.06-.34.09-.15.03-.33.05-.55.05-.36,0-.7-.06-1.02-.19-.31-.13-.57-.34-.76-.63-.19-.28-.29-.64-.29-1.07v-6.99ZM72.96,175v-7.09h1.33v1.15h.09c.15-.39.39-.7.72-.91.34-.22.74-.33,1.2-.33s.87.11,1.19.33c.32.22.56.53.72.91h.07c.17-.38.44-.68.81-.9.37-.23.81-.34,1.32-.34.64,0,1.17.2,1.57.6.41.4.61,1.01.61,1.82v4.76h-1.38v-4.63c0-.48-.13-.83-.39-1.04-.26-.21-.57-.32-.94-.32-.45,0-.8.14-1.05.42-.25.27-.37.63-.37,1.06v4.52h-1.38v-4.71c0-.39-.12-.69-.36-.93-.24-.23-.55-.35-.94-.35-.26,0-.5.07-.72.21-.22.13-.4.32-.53.57-.13.24-.2.52-.2.85v4.37h-1.38ZM87.7,175.14c-.66,0-1.24-.15-1.74-.46-.5-.31-.88-.73-1.15-1.28-.27-.55-.41-1.19-.41-1.92s.14-1.38.41-1.93c.27-.55.66-.98,1.15-1.28.5-.31,1.08-.46,1.74-.46s1.24.15,1.74.46c.5.3.88.73,1.15,1.28.27.55.41,1.19.41,1.93s-.14,1.37-.41,1.92c-.27.55-.66.97-1.15,1.28-.5.3-1.08.46-1.74.46ZM87.7,173.98c.43,0,.79-.11,1.07-.34.28-.23.49-.53.63-.91.14-.38.21-.79.21-1.25s-.07-.87-.21-1.25c-.14-.38-.34-.69-.63-.92-.28-.23-.64-.35-1.07-.35s-.79.12-1.08.35c-.28.23-.49.54-.63.92-.14.38-.2.79-.2,1.25s.07.87.2,1.25c.14.38.35.68.63.91.29.23.65.34,1.08.34ZM92.8,175v-7.09h1.33v1.13h.07c.13-.38.36-.68.68-.9.33-.22.7-.33,1.12-.33.09,0,.19,0,.3,0,.12,0,.21.01.28.02v1.32c-.06-.02-.15-.03-.3-.05-.14-.02-.28-.03-.42-.03-.33,0-.62.07-.87.21-.25.14-.45.32-.6.57-.15.24-.22.51-.22.82v4.33h-1.38ZM100.86,175.14c-.7,0-1.3-.15-1.81-.45-.5-.3-.89-.72-1.16-1.27-.27-.55-.41-1.19-.41-1.92s.14-1.37.41-1.92c.27-.55.66-.99,1.14-1.3.49-.31,1.07-.47,1.73-.47.4,0,.79.07,1.16.2.38.13.71.34,1.01.62.3.28.53.65.71,1.1.17.45.26.99.26,1.64v.49h-5.64v-1.03h4.28c0-.36-.07-.68-.22-.96-.15-.28-.35-.51-.62-.67-.26-.16-.58-.24-.93-.24-.39,0-.73.1-1.02.29-.29.19-.51.43-.66.74-.15.3-.23.63-.23.98v.81c0,.47.08.88.25,1.21.17.33.4.59.71.76.3.17.65.26,1.06.26.26,0,.5-.04.71-.11.22-.08.4-.19.56-.34.16-.15.28-.34.36-.56l1.31.24c-.1.38-.29.72-.56,1.01-.27.29-.6.51-1.01.67-.4.16-.86.24-1.38.24ZM109.39,175v-7.09h1.38v7.09h-1.38ZM110.09,166.82c-.24,0-.45-.08-.62-.24-.17-.16-.25-.36-.25-.58s.08-.42.25-.58c.17-.16.38-.24.62-.24s.44.08.61.24c.17.16.26.35.26.58s-.09.42-.26.58c-.17.16-.37.24-.61.24ZM114.27,170.79v4.21h-1.38v-7.09h1.32v1.15h.09c.16-.38.42-.68.77-.9.35-.23.79-.34,1.32-.34.48,0,.91.1,1.27.3.36.2.64.5.84.9.2.4.3.89.3,1.47v4.51h-1.38v-4.34c0-.51-.13-.92-.4-1.21-.27-.29-.64-.44-1.1-.44-.32,0-.6.07-.85.21-.25.14-.44.34-.59.61-.14.26-.21.58-.21.96ZM125.49,177.66c-.21,0-.39-.02-.56-.05-.17-.03-.3-.06-.38-.1l.33-1.13c.25.07.48.1.67.09.2,0,.37-.08.52-.22.15-.14.29-.37.41-.68l.17-.47-2.59-7.18h1.48l1.8,5.5h.07l1.8-5.5h1.48l-2.92,8.04c-.14.37-.31.68-.52.94-.21.26-.46.45-.75.58-.29.13-.62.19-1.01.19ZM134.99,175.14c-.66,0-1.24-.15-1.74-.46-.5-.31-.88-.73-1.15-1.28s-.41-1.19-.41-1.92.14-1.38.41-1.93c.27-.55.66-.98,1.15-1.28.49-.31,1.08-.46,1.74-.46s1.25.15,1.74.46c.49.3.88.73,1.15,1.28.27.55.41,1.19.41,1.93s-.14,1.37-.41,1.92-.66.97-1.15,1.28c-.5.3-1.08.46-1.74.46ZM134.99,173.98c.43,0,.79-.11,1.07-.34.28-.23.49-.53.63-.91.14-.38.21-.79.21-1.25s-.07-.87-.21-1.25c-.14-.38-.35-.69-.63-.92-.28-.23-.64-.35-1.07-.35s-.79.12-1.08.35c-.28.23-.49.54-.63.92-.13.38-.2.79-.2,1.25s.07.87.2,1.25c.14.38.35.68.63.91.29.23.65.34,1.08.34ZM144.58,172.06v-4.15h1.38v7.09h-1.36v-1.23h-.07c-.16.38-.42.69-.78.95-.36.25-.8.37-1.33.37-.46,0-.86-.1-1.21-.3-.35-.2-.62-.5-.82-.9-.2-.4-.29-.89-.29-1.47v-4.51h1.38v4.34c0,.48.13.87.4,1.15.27.29.62.43,1.04.43.26,0,.51-.07.77-.19.26-.13.47-.33.64-.59.17-.26.26-.59.25-1ZM148.08,175v-7.09h1.33v1.13h.07c.13-.38.36-.68.68-.9.33-.22.7-.33,1.12-.33.09,0,.19,0,.3,0,.12,0,.21.01.28.02v1.32c-.06-.02-.15-.03-.3-.05-.14-.02-.28-.03-.42-.03-.33,0-.62.07-.87.21-.25.14-.45.32-.6.57-.15.24-.22.51-.22.82v4.33h-1.38ZM157.03,177.66v-9.75h1.35v1.15h.11c.08-.15.2-.32.35-.51.15-.19.36-.36.63-.51.27-.15.62-.22,1.06-.22.57,0,1.08.14,1.53.43.45.29.8.71,1.06,1.25.26.54.39,1.2.39,1.97s-.13,1.42-.38,1.97c-.26.54-.61.96-1.05,1.26-.45.29-.96.44-1.53.44-.43,0-.78-.07-1.06-.22-.27-.15-.48-.31-.64-.51-.15-.19-.27-.37-.36-.52h-.08v3.76h-1.38ZM158.39,171.46c0,.5.07.93.22,1.31.15.38.35.67.63.88.27.21.61.31,1.01.31s.76-.11,1.04-.33c.28-.22.49-.52.63-.9.15-.38.22-.8.22-1.28s-.07-.89-.21-1.26c-.14-.37-.35-.67-.63-.88-.28-.21-.62-.32-1.04-.32s-.74.1-1.01.31c-.27.21-.48.49-.62.86-.14.37-.21.8-.21,1.29ZM168.3,175.14c-.66,0-1.24-.15-1.74-.46-.5-.31-.88-.73-1.15-1.28-.27-.55-.41-1.19-.41-1.92s.14-1.38.41-1.93c.27-.55.66-.98,1.15-1.28.5-.31,1.08-.46,1.74-.46s1.24.15,1.74.46c.5.3.88.73,1.15,1.28.27.55.41,1.19.41,1.93s-.14,1.37-.41,1.92c-.27.55-.66.97-1.15,1.28-.5.3-1.08.46-1.74.46ZM168.31,173.98c.43,0,.79-.11,1.07-.34.28-.23.49-.53.63-.91.14-.38.21-.79.21-1.25s-.07-.87-.21-1.25c-.14-.38-.34-.69-.63-.92-.28-.23-.64-.35-1.07-.35s-.79.12-1.08.35c-.28.23-.49.54-.63.92-.14.38-.2.79-.2,1.25s.07.87.2,1.25c.14.38.35.68.63.91.29.23.65.34,1.08.34ZM176.4,175.14c-.69,0-1.28-.15-1.77-.47-.49-.31-.87-.75-1.13-1.3-.26-.55-.4-1.18-.4-1.89s.14-1.36.41-1.91c.27-.55.65-.99,1.15-1.3.49-.31,1.07-.47,1.74-.47.54,0,1.02.1,1.44.3.42.2.76.47,1.02.83.26.36.42.77.47,1.25h-1.34c-.07-.33-.24-.62-.51-.86-.26-.24-.61-.36-1.05-.36-.39,0-.72.1-1.01.31-.29.2-.51.49-.67.86-.16.37-.24.81-.24,1.31s.08.96.24,1.34c.16.38.38.67.67.87.29.21.63.31,1.02.31.26,0,.5-.05.71-.14.22-.1.4-.24.54-.42.15-.18.25-.4.31-.66h1.34c-.05.46-.2.87-.45,1.23s-.58.64-1,.85c-.41.21-.9.31-1.46.31ZM182.32,172.6v-1.68s.23,0,.23,0l2.83-3h1.65l-3.22,3.42h-.22l-1.27,1.27ZM181.05,175v-9.46h1.38v9.46h-1.38ZM185.52,175l-2.54-3.37.95-.97,3.28,4.34h-1.69ZM191.31,175.14c-.7,0-1.3-.15-1.81-.45-.5-.3-.89-.72-1.16-1.27-.27-.55-.41-1.19-.41-1.92s.13-1.37.41-1.92c.27-.55.66-.99,1.15-1.3.49-.31,1.07-.47,1.73-.47.4,0,.79.07,1.16.2.38.13.71.34,1.01.62.3.28.53.65.71,1.1.17.45.26.99.26,1.64v.49h-5.64v-1.03h4.28c0-.36-.07-.68-.22-.96-.15-.28-.36-.51-.62-.67-.26-.16-.57-.24-.93-.24-.39,0-.73.1-1.02.29-.29.19-.51.43-.67.74-.15.3-.23.63-.23.98v.81c0,.47.08.88.25,1.21.17.33.4.59.71.76.3.17.65.26,1.06.26.26,0,.5-.04.72-.11.22-.08.4-.19.56-.34.16-.15.28-.34.36-.56l1.31.24c-.1.38-.29.72-.56,1.01-.27.29-.6.51-1.01.67-.4.16-.86.24-1.38.24ZM199.45,167.91v1.11h-3.87v-1.11h3.87ZM196.62,166.21h1.38v6.71c0,.27.04.47.12.6.08.13.18.22.31.27.13.05.27.07.42.07.11,0,.21,0,.29-.02.08-.01.15-.03.19-.04l.25,1.14c-.08.03-.19.06-.34.09-.15.03-.33.05-.55.05-.36,0-.7-.06-1.02-.19-.31-.13-.57-.34-.76-.63-.19-.28-.29-.64-.29-1.07v-6.99ZM203.89,171.08c0,1.16-.15,2.23-.46,3.2-.3.97-.75,1.87-1.33,2.69h-1.26c.23-.3.44-.68.64-1.12.2-.44.37-.93.52-1.45.15-.53.26-1.08.35-1.64.08-.57.12-1.12.12-1.67,0-.73-.07-1.47-.22-2.22-.15-.75-.34-1.45-.59-2.09-.25-.64-.52-1.17-.82-1.57h1.26c.58.82,1.03,1.72,1.33,2.69.3.97.46,2.04.46,3.2Z"/>
</svg>