<?xml version="1.0" encoding="UTF-8"?>
<svg id="Layer_1" data-name="Layer 1" xmlns="http://www.w3.org/2000/svg" xmlns:xlink="http://www.w3.org/1999/xlink" viewBox="0 0 300 250">
  <defs>
    <style>
      .cls-1 {
        fill: #171d21;
      }

      .cls-1, .cls-2 {
        stroke-width: 0px;
      }

      .cls-2 {
        fill: none;
      }

      .cls-3 {
        clip-path: url(#clippath);
      }
    </style>
    <clipPath id="clippath">
      <rect class="cls-2" width="300" height="250"/>
    </clipPath>
  </defs>
  <g class="cls-3">
    <g>
      <path class="cls-1" d="M19.49,166.03l-1.83,5.13h-1.34l-1.83-5.13h1.29l1.18,3.81h.05l1.18-3.81h1.28ZM21.65,171.26c-.32,0-.62-.06-.88-.17-.26-.12-.46-.29-.61-.52-.15-.23-.22-.51-.22-.85,0-.29.05-.53.16-.72.11-.19.25-.34.44-.45.18-.11.39-.2.62-.26.23-.06.48-.1.72-.13.3-.03.54-.06.73-.08.19-.03.32-.07.41-.12.09-.05.13-.14.13-.26v-.02c0-.25-.07-.45-.22-.58s-.36-.21-.64-.21c-.3,0-.53.07-.7.19-.17.13-.29.28-.35.46l-1.13-.16c.09-.31.24-.57.44-.78.2-.21.46-.37.75-.47.3-.11.62-.16.98-.16.25,0,.49.03.74.09.24.06.47.15.67.29.2.13.36.31.49.54.12.23.19.51.19.85v3.43h-1.16v-.7h-.04c-.07.14-.18.28-.31.4-.13.12-.3.22-.5.3-.2.07-.43.11-.7.11ZM21.97,170.37c.24,0,.45-.05.63-.14.18-.1.31-.23.41-.39.1-.16.15-.33.15-.52v-.6s-.1.06-.19.09c-.09.03-.19.05-.3.07-.11.02-.22.04-.33.05-.11.02-.2.03-.28.04-.18.02-.34.07-.48.12-.14.06-.25.13-.34.23-.08.1-.12.23-.12.38,0,.22.08.39.24.5.16.11.37.17.62.17ZM25.58,171.16v-5.13h1.17v.85h.05c.09-.3.25-.52.48-.68.23-.16.49-.24.78-.24.07,0,.14,0,.22,0,.08,0,.15.01.21.02v1.11c-.05-.02-.13-.03-.24-.05-.11-.02-.21-.02-.32-.02-.22,0-.42.05-.59.14-.17.09-.31.22-.41.39-.1.17-.15.36-.15.58v3.01h-1.21ZM29.3,171.16v-5.13h1.21v5.13h-1.21ZM29.91,165.3c-.19,0-.36-.06-.49-.19-.14-.13-.21-.28-.21-.46s.07-.34.21-.46c.14-.13.3-.19.49-.19s.36.07.49.19c.14.13.21.28.21.46s-.07.33-.21.46c-.14.13-.3.19-.49.19ZM33.23,171.26c-.32,0-.62-.06-.88-.17-.26-.12-.46-.29-.61-.52-.15-.23-.22-.51-.22-.85,0-.29.05-.53.16-.72.11-.19.25-.34.44-.45.18-.11.39-.2.62-.26.23-.06.48-.1.72-.13.3-.03.54-.06.73-.08.19-.03.32-.07.41-.12.09-.05.13-.14.13-.26v-.02c0-.25-.07-.45-.22-.58-.15-.14-.36-.21-.64-.21-.3,0-.53.07-.7.19-.17.13-.29.28-.35.46l-1.13-.16c.09-.31.24-.57.44-.78.2-.21.45-.37.75-.47.3-.11.62-.16.98-.16.25,0,.49.03.74.09.24.06.47.15.67.29.2.13.36.31.49.54.12.23.19.51.19.85v3.43h-1.16v-.7h-.04c-.07.14-.18.28-.31.4-.13.12-.3.22-.5.3-.2.07-.43.11-.7.11ZM33.54,170.37c.24,0,.45-.05.63-.14.18-.1.31-.23.41-.39.1-.16.15-.33.15-.52v-.6s-.1.06-.19.09c-.09.03-.19.05-.3.07-.11.02-.22.04-.33.05-.11.02-.2.03-.28.04-.18.02-.34.07-.48.12-.14.06-.25.13-.34.23-.08.1-.12.23-.12.38,0,.22.08.39.24.5.16.11.37.17.62.17ZM37.2,171.16v-6.84h1.21v2.56h.05c.06-.12.15-.26.26-.4.11-.14.27-.26.46-.36.19-.1.44-.15.74-.15.4,0,.75.1,1.07.3.32.2.57.5.76.89.19.39.28.87.28,1.44s-.09,1.04-.28,1.44-.44.69-.75.9-.68.31-1.08.31c-.29,0-.54-.05-.73-.15-.19-.1-.35-.22-.47-.35-.12-.14-.21-.27-.27-.4h-.07v.81h-1.19ZM38.39,168.59c0,.33.05.62.14.87.1.25.23.44.41.58.18.14.4.21.65.21s.49-.07.67-.21c.18-.14.32-.34.41-.59.09-.25.14-.54.14-.86s-.05-.6-.14-.85c-.09-.25-.23-.44-.41-.58-.18-.14-.4-.21-.67-.21s-.48.07-.66.2c-.18.14-.32.33-.41.57-.09.24-.14.53-.14.86ZM44.28,164.32v6.84h-1.21v-6.84h1.21ZM47.79,171.26c-.51,0-.96-.11-1.33-.32-.37-.22-.66-.52-.86-.91-.2-.4-.3-.86-.3-1.4s.1-.99.3-1.39c.2-.4.49-.71.85-.93.36-.22.79-.34,1.28-.34.32,0,.61.05.89.15.28.1.53.26.75.47.22.21.39.48.51.81.12.32.19.71.19,1.16v.37h-4.2v-.81h3.04c0-.23-.05-.44-.15-.62-.1-.18-.23-.33-.41-.43-.17-.1-.38-.16-.61-.16-.25,0-.46.06-.65.18-.19.12-.33.27-.44.47-.1.19-.15.4-.16.63v.71c0,.3.05.55.16.77.11.21.26.37.46.49.2.11.42.17.69.17.18,0,.33-.02.48-.07.14-.05.27-.13.37-.22.1-.1.18-.22.24-.36l1.13.13c-.07.3-.21.56-.41.78-.2.22-.45.39-.76.51-.31.12-.66.18-1.06.18ZM53.42,171.16v-5.13h1.17v.85h.05c.09-.3.25-.52.48-.68.23-.16.49-.24.78-.24.07,0,.14,0,.22,0,.08,0,.15.01.21.02v1.11c-.05-.02-.13-.03-.24-.05-.11-.02-.21-.02-.32-.02-.22,0-.42.05-.59.14-.17.09-.31.22-.41.39-.1.17-.15.36-.15.58v3.01h-1.21ZM58.53,171.26c-.32,0-.62-.06-.88-.17-.26-.12-.46-.29-.61-.52-.15-.23-.22-.51-.22-.85,0-.29.05-.53.16-.72.11-.19.25-.34.44-.45.18-.11.39-.2.62-.26.23-.06.48-.1.72-.13.3-.03.54-.06.73-.08.19-.03.32-.07.41-.12.09-.05.13-.14.13-.26v-.02c0-.25-.07-.45-.22-.58s-.36-.21-.64-.21c-.3,0-.53.07-.7.19-.17.13-.29.28-.35.46l-1.13-.16c.09-.31.24-.57.44-.78.2-.21.46-.37.75-.47.3-.11.62-.16.98-.16.25,0,.49.03.74.09.24.06.47.15.67.29.2.13.36.31.49.54.12.23.19.51.19.85v3.43h-1.16v-.7h-.04c-.07.14-.18.28-.31.4-.13.12-.3.22-.5.3-.2.07-.43.11-.7.11ZM58.85,170.37c.24,0,.45-.05.63-.14.18-.1.31-.23.41-.39.1-.16.15-.33.15-.52v-.6s-.1.06-.19.09c-.09.03-.19.05-.3.07-.11.02-.22.04-.33.05-.11.02-.2.03-.28.04-.18.02-.34.07-.48.12-.14.06-.25.13-.34.23-.08.1-.12.23-.12.38,0,.22.08.39.24.5.16.11.37.17.62.17ZM65.02,166.03v.93h-2.95v-.93h2.95ZM62.8,164.8h1.21v4.81c0,.16.02.29.07.37.05.09.12.14.2.17.08.03.17.05.27.05.08,0,.14,0,.21-.02.06-.01.11-.02.15-.03l.2.94c-.06.02-.16.05-.28.07-.12.03-.26.04-.43.05-.3,0-.58-.04-.82-.14-.24-.1-.43-.26-.58-.47-.14-.21-.21-.48-.21-.8v-5.01ZM68.24,171.26c-.51,0-.96-.11-1.33-.32-.37-.22-.66-.52-.86-.91-.2-.4-.3-.86-.3-1.4s.1-.99.3-1.39c.2-.4.49-.71.85-.93.36-.22.79-.34,1.28-.34.32,0,.61.05.89.15.28.1.53.26.75.47.22.21.39.48.51.81.12.32.19.71.19,1.16v.37h-4.2v-.81h3.04c0-.23-.05-.44-.15-.62-.1-.18-.23-.33-.41-.43-.17-.1-.38-.16-.61-.16-.25,0-.46.06-.65.18-.19.12-.33.27-.44.47-.1.19-.15.4-.16.63v.71c0,.3.05.55.16.77.11.21.26.37.46.49.2.11.43.17.69.17.18,0,.33-.02.48-.07.14-.05.27-.13.37-.22.1-.1.18-.22.24-.36l1.13.13c-.07.3-.21.56-.41.78-.2.22-.45.39-.76.51-.31.12-.66.18-1.06.18ZM74.63,173.08c-.16,0-.32-.01-.46-.04-.14-.02-.25-.05-.33-.09l.28-.94c.18.05.33.08.47.07.14,0,.26-.05.36-.13.11-.08.2-.22.27-.41l.1-.28-1.86-5.23h1.28l1.18,3.87h.05l1.18-3.87h1.29l-2.05,5.75c-.1.27-.22.5-.38.7-.16.2-.35.35-.58.45-.23.1-.5.16-.81.16ZM81.39,171.26c-.51,0-.96-.11-1.33-.32-.37-.22-.66-.52-.86-.91-.2-.4-.3-.86-.3-1.4s.1-.99.3-1.39c.2-.4.49-.71.85-.93.36-.22.79-.34,1.28-.34.32,0,.61.05.89.15.28.1.53.26.75.47.22.21.39.48.51.81.12.32.19.71.19,1.16v.37h-4.2v-.81h3.04c0-.23-.05-.44-.15-.62-.1-.18-.23-.33-.41-.43-.17-.1-.38-.16-.61-.16-.25,0-.46.06-.65.18-.19.12-.33.27-.44.47-.1.19-.15.4-.16.63v.71c0,.3.05.55.16.77.11.21.26.37.46.49.2.11.43.17.69.17.18,0,.33-.02.48-.07.14-.05.27-.13.37-.22.1-.1.18-.22.24-.36l1.13.13c-.07.3-.21.56-.41.78-.2.22-.45.39-.76.51-.31.12-.66.18-1.06.18ZM86.16,171.26c-.32,0-.62-.06-.88-.17-.26-.12-.46-.29-.61-.52-.15-.23-.22-.51-.22-.85,0-.29.05-.53.16-.72.11-.19.25-.34.44-.45.18-.11.39-.2.62-.26.23-.06.47-.1.72-.13.3-.03.54-.06.73-.08.19-.03.32-.07.41-.12.09-.05.13-.14.13-.26v-.02c0-.25-.07-.45-.22-.58s-.36-.21-.64-.21c-.3,0-.53.07-.7.19-.17.13-.29.28-.35.46l-1.13-.16c.09-.31.24-.57.44-.78.2-.21.46-.37.75-.47.3-.11.62-.16.98-.16.25,0,.49.03.74.09.24.06.47.15.67.29.2.13.36.31.49.54.12.23.19.51.19.85v3.43h-1.16v-.7h-.04c-.07.14-.18.28-.31.4-.13.12-.3.22-.5.3-.2.07-.43.11-.7.11ZM86.48,170.37c.24,0,.45-.05.63-.14.18-.1.31-.23.41-.39.1-.16.15-.33.15-.52v-.6s-.1.06-.19.09c-.09.03-.19.05-.3.07-.11.02-.22.04-.33.05-.11.02-.2.03-.28.04-.18.02-.34.07-.48.12-.14.06-.25.13-.34.23-.08.1-.12.23-.12.38,0,.22.08.39.24.5.16.11.37.17.62.17ZM90.08,171.16v-5.13h1.17v.85h.05c.09-.3.25-.52.48-.68.23-.16.49-.24.78-.24.07,0,.14,0,.22,0,.08,0,.15.01.21.02v1.11c-.05-.02-.13-.03-.24-.05-.11-.02-.21-.02-.32-.02-.22,0-.42.05-.59.14-.17.09-.31.22-.41.39-.1.17-.15.36-.15.58v3.01h-1.21ZM15.01,183.16v-5.13h.79v5.13h-.79ZM15.41,177.18c-.15,0-.29-.05-.4-.16-.11-.1-.16-.23-.16-.38s.05-.27.16-.38c.11-.1.24-.16.4-.16s.28.05.39.16c.11.1.17.23.17.38s-.06.27-.17.38c-.11.1-.24.16-.39.16ZM18.03,180.07v3.08h-.79v-5.13h.76v.8h.07c.12-.26.3-.47.55-.63.24-.16.56-.24.95-.24.35,0,.65.07.91.21.26.14.46.35.61.64.14.29.22.65.22,1.08v3.26h-.79v-3.2c0-.4-.1-.72-.31-.94-.21-.23-.5-.34-.86-.34-.25,0-.48.05-.67.16-.2.11-.35.27-.46.48-.11.21-.17.46-.17.76ZM24.82,183.26c-.48,0-.89-.11-1.24-.34-.35-.23-.61-.54-.8-.94-.19-.4-.28-.85-.28-1.36s.1-.98.29-1.38c.19-.4.46-.71.81-.94.35-.23.75-.34,1.22-.34.36,0,.69.07.97.2.29.13.53.32.71.56.18.24.3.52.34.84h-.79c-.06-.23-.19-.44-.4-.62-.2-.18-.48-.27-.83-.27-.31,0-.58.08-.81.24-.23.16-.41.38-.54.67-.13.29-.19.62-.19,1.01s.06.74.19,1.04c.13.29.3.52.53.68.23.16.5.24.81.24.2,0,.39-.04.56-.11.17-.07.31-.17.42-.31.12-.13.2-.29.25-.48h.79c-.04.3-.15.57-.33.82-.17.24-.4.43-.69.57-.28.14-.62.21-.99.21ZM28.78,176.32v6.84h-.79v-6.84h.79ZM33.45,181.06v-3.03h.79v5.13h-.79v-.87h-.05c-.12.26-.31.48-.56.66-.25.18-.57.27-.96.27-.32,0-.61-.07-.85-.21-.25-.14-.45-.36-.59-.64-.14-.29-.21-.65-.21-1.09v-3.26h.79v3.21c0,.37.1.67.31.89.21.22.48.33.81.33.2,0,.4-.05.6-.15.2-.1.38-.25.51-.46.14-.21.21-.47.21-.79ZM37.62,183.26c-.43,0-.8-.11-1.13-.32-.33-.22-.58-.53-.77-.92-.18-.4-.28-.87-.28-1.41s.09-1.01.28-1.4.44-.7.77-.92c.33-.21.71-.32,1.14-.32.33,0,.6.05.79.17.2.11.34.23.45.37.1.14.19.25.24.34h.07v-2.52h.79v6.84h-.76v-.79h-.09c-.06.09-.14.21-.25.35-.11.14-.26.27-.46.38-.2.11-.46.16-.79.16ZM37.72,182.56c.32,0,.58-.08.8-.25.22-.17.38-.4.5-.69.11-.3.17-.64.17-1.03s-.06-.72-.17-1c-.11-.29-.28-.51-.49-.67-.22-.16-.49-.24-.81-.24s-.61.09-.83.26c-.22.17-.39.4-.5.69-.11.29-.16.61-.16.97s.06.7.17.99c.11.3.28.53.5.71.22.17.5.26.83.26ZM41.52,183.16v-5.13h.79v5.13h-.79ZM41.92,177.18c-.15,0-.29-.05-.4-.16-.11-.1-.16-.23-.16-.38s.05-.27.16-.38c.11-.1.24-.16.4-.16s.28.05.39.16c.11.1.17.23.17.38s-.06.27-.17.38c-.11.1-.24.16-.39.16ZM44.54,180.07v3.08h-.79v-5.13h.76v.8h.07c.12-.26.3-.47.55-.63.24-.16.56-.24.95-.24.35,0,.65.07.91.21.26.14.46.35.61.64.14.29.22.65.22,1.08v3.26h-.79v-3.2c0-.4-.1-.72-.31-.94-.21-.23-.5-.34-.86-.34-.25,0-.48.05-.67.16-.2.11-.35.27-.46.48-.11.21-.17.46-.17.76ZM51.32,185.19c-.38,0-.71-.05-.98-.15-.27-.1-.5-.22-.68-.38-.18-.16-.32-.32-.43-.5l.63-.44c.07.09.16.2.27.32.11.12.26.23.45.32.19.09.44.14.75.14.41,0,.76-.1,1.02-.3.27-.2.4-.51.4-.94v-1.04h-.07c-.06.09-.14.21-.25.35-.1.14-.26.26-.45.36-.2.1-.46.16-.79.16-.41,0-.79-.1-1.11-.29-.33-.2-.59-.48-.78-.85-.19-.37-.28-.83-.28-1.36s.09-.98.28-1.37c.18-.39.44-.69.77-.91.33-.21.71-.32,1.14-.32.33,0,.6.05.79.17.2.11.35.23.45.37.11.14.19.25.25.34h.08v-.82h.76v5.27c0,.44-.1.8-.3,1.07-.2.28-.47.48-.8.61-.33.13-.71.2-1.11.2ZM51.29,182.37c.32,0,.58-.07.8-.22.22-.15.38-.35.5-.62.11-.27.17-.6.17-.97s-.06-.7-.17-.98c-.11-.28-.28-.5-.49-.66-.22-.16-.49-.24-.81-.24s-.61.08-.83.25c-.22.17-.39.4-.5.68-.11.29-.16.6-.16.95s.06.67.17.94c.11.27.28.49.5.64.22.15.5.23.83.23ZM58.19,183.21c-.16,0-.31-.06-.42-.18-.12-.12-.18-.26-.18-.42s.06-.31.18-.42c.12-.12.26-.18.42-.18s.31.06.42.18c.12.12.18.26.18.42,0,.11-.03.21-.08.3-.05.09-.13.16-.22.22-.09.05-.19.08-.3.08ZM73.68,181.88v-.36c0-.25.05-.48.15-.68.1-.21.26-.38.45-.5.2-.13.44-.19.73-.19s.53.06.73.19c.2.12.34.29.44.5.1.21.15.44.15.68v.36c0,.25-.05.48-.15.69-.1.21-.25.37-.45.5-.2.12-.44.19-.72.19s-.53-.06-.73-.19c-.2-.13-.35-.29-.45-.5-.1-.21-.15-.44-.15-.69ZM74.36,181.51v.36c0,.21.05.39.15.56.1.16.27.24.51.24s.4-.08.49-.24c.1-.16.15-.35.15-.56v-.36c0-.21-.05-.39-.14-.55-.09-.16-.26-.25-.5-.25s-.4.08-.5.25c-.1.16-.15.35-.15.55ZM70.28,177.96v-.36c0-.25.05-.48.15-.68.1-.21.26-.38.45-.5.2-.13.44-.19.73-.19s.53.06.73.19c.2.12.34.29.44.5.1.21.15.43.15.68v.36c0,.25-.05.48-.15.69-.1.21-.25.37-.45.5-.2.12-.44.19-.72.19s-.53-.06-.73-.19c-.2-.13-.35-.29-.45-.5-.1-.21-.15-.44-.15-.69ZM70.96,177.6v.36c0,.21.05.39.15.56.1.16.27.24.51.24s.4-.08.49-.24c.1-.16.15-.35.15-.56v-.36c0-.21-.05-.39-.14-.55-.09-.16-.26-.25-.5-.25s-.4.08-.5.25c-.1.16-.15.35-.15.55ZM70.53,183.16l4.7-6.84h.76l-4.7,6.84h-.76ZM80.49,185.08v-7.05h.76v.82h.09c.06-.09.14-.2.24-.34.1-.14.25-.26.45-.37.2-.11.46-.17.79-.17.43,0,.81.11,1.14.32.33.22.59.52.77.92.18.4.28.86.28,1.4s-.09,1.01-.28,1.41c-.18.4-.44.7-.77.92-.33.22-.7.32-1.13.32-.33,0-.59-.05-.79-.16-.2-.11-.35-.24-.46-.38-.11-.14-.19-.26-.25-.35h-.07v2.71h-.79ZM81.27,180.59c0,.39.06.73.17,1.03.11.29.28.52.5.69.22.16.49.25.8.25s.6-.09.82-.26c.22-.18.39-.41.5-.71.11-.3.17-.63.17-.99s-.06-.69-.17-.97c-.11-.29-.27-.52-.5-.69-.22-.17-.5-.26-.83-.26s-.59.08-.81.24c-.22.16-.38.39-.49.67-.11.29-.17.62-.17,1ZM86.79,183.21c-.16,0-.31-.06-.42-.18-.12-.12-.18-.26-.18-.42s.06-.31.18-.42c.12-.12.26-.18.42-.18s.31.06.42.18c.12.12.18.26.18.42,0,.11-.03.21-.08.3-.05.09-.13.16-.22.22-.09.05-.19.08-.3.08ZM90.32,183.28c-.32,0-.62-.06-.88-.18-.26-.12-.48-.3-.63-.54-.16-.24-.23-.52-.23-.85,0-.29.06-.53.17-.71.12-.19.27-.33.46-.43.19-.1.41-.18.64-.23.24-.05.47-.1.71-.13.31-.04.56-.07.76-.09.2-.02.34-.06.43-.11.09-.05.14-.14.14-.27v-.03c0-.33-.09-.59-.27-.77-.18-.18-.45-.27-.81-.27s-.67.08-.88.25c-.21.17-.36.34-.45.53l-.75-.27c.13-.31.31-.55.53-.73.22-.18.47-.3.73-.37.27-.07.53-.11.79-.11.16,0,.35.02.57.06.22.04.42.12.62.24.2.12.37.3.5.54.13.24.2.57.2.97v3.38h-.79v-.69h-.04c-.05.11-.14.23-.27.36-.12.13-.29.23-.5.32-.21.09-.46.13-.76.13ZM90.44,182.57c.31,0,.57-.06.79-.18.22-.12.38-.28.49-.47.11-.19.17-.4.17-.61v-.72s-.11.08-.22.11c-.11.03-.24.06-.39.08-.14.02-.29.04-.42.06-.14.02-.25.03-.33.04-.2.03-.4.07-.57.13-.18.06-.32.15-.43.26-.11.12-.16.27-.16.47,0,.27.1.48.3.62.2.14.46.21.78.21ZM94.68,183.21c-.16,0-.31-.06-.42-.18-.12-.12-.18-.26-.18-.42s.06-.31.18-.42c.12-.12.26-.18.42-.18s.31.06.42.18c.12.12.18.26.18.42,0,.11-.03.21-.08.3-.05.09-.13.16-.22.22-.09.05-.19.08-.3.08ZM101.27,183.26c-.43,0-.8-.11-1.13-.32-.33-.22-.58-.53-.77-.92-.18-.4-.28-.87-.28-1.41s.09-1.01.28-1.4.44-.7.77-.92c.33-.21.71-.32,1.14-.32.33,0,.6.05.79.17.19.11.34.23.45.37.1.14.19.25.24.34h.07v-2.52h.79v6.84h-.76v-.79h-.09c-.06.09-.14.21-.25.35-.11.14-.26.27-.46.38-.2.11-.46.16-.79.16ZM101.38,182.56c.32,0,.58-.08.8-.25.22-.17.38-.4.5-.69.11-.3.17-.64.17-1.03s-.06-.72-.17-1c-.11-.29-.28-.51-.49-.67-.22-.16-.49-.24-.81-.24s-.61.09-.83.26c-.22.17-.39.4-.5.69-.11.29-.16.61-.16.97s.06.7.17.99c.11.3.28.53.5.71.22.17.5.26.83.26ZM105.17,183.16v-5.13h.79v5.13h-.79ZM105.57,177.18c-.15,0-.29-.05-.4-.16-.11-.1-.16-.23-.16-.38s.05-.27.16-.38c.11-.1.24-.16.4-.16s.28.05.39.16c.11.1.17.23.17.38s-.06.27-.17.38c-.11.1-.24.16-.39.16ZM111.04,179.18l-.71.2c-.04-.12-.11-.23-.2-.34-.08-.11-.2-.21-.35-.28-.15-.07-.33-.11-.56-.11-.31,0-.58.07-.78.22-.21.14-.31.32-.31.55,0,.19.07.35.21.46.14.11.37.21.67.28l.76.19c.46.11.8.28,1.02.51.22.23.34.52.34.88,0,.29-.08.56-.25.79-.17.23-.4.41-.7.55-.3.13-.65.2-1.05.2-.52,0-.96-.11-1.3-.34-.34-.23-.56-.56-.65-.99l.75-.19c.07.28.21.48.4.62.2.14.46.21.78.21.37,0,.66-.08.88-.23.22-.16.33-.35.33-.57,0-.18-.06-.33-.19-.45-.12-.12-.32-.21-.57-.27l-.85-.2c-.47-.11-.81-.28-1.03-.52-.22-.24-.33-.53-.33-.88,0-.29.08-.55.24-.77.17-.22.39-.4.67-.52.29-.13.61-.19.97-.19.51,0,.91.11,1.19.33.29.22.5.52.62.88ZM114.4,183.26c-.48,0-.9-.11-1.24-.34-.35-.23-.61-.54-.8-.94-.19-.4-.28-.85-.28-1.36s.1-.98.29-1.38c.19-.4.46-.71.81-.94.35-.23.75-.34,1.22-.34.36,0,.68.07.97.2.29.13.53.32.71.56.18.24.3.52.34.84h-.79c-.06-.23-.19-.44-.4-.62-.2-.18-.48-.27-.83-.27-.31,0-.58.08-.81.24-.23.16-.41.38-.54.67-.13.29-.19.62-.19,1.01s.06.74.19,1.04c.13.29.3.52.53.68.23.16.5.24.81.24.2,0,.39-.04.56-.11.17-.07.31-.17.42-.31.12-.13.2-.29.25-.48h.79c-.04.3-.15.57-.33.82-.17.24-.4.43-.69.57-.28.14-.62.21-.99.21ZM119.65,183.26c-.46,0-.87-.11-1.22-.33-.35-.22-.62-.53-.81-.93-.19-.4-.29-.86-.29-1.39s.1-1,.29-1.4c.19-.4.47-.71.81-.93.35-.22.76-.33,1.22-.33s.87.11,1.21.33c.35.22.62.53.82.93.2.4.29.86.29,1.4s-.1.99-.29,1.39c-.19.4-.47.7-.82.93-.35.22-.75.33-1.21.33ZM119.65,182.56c.35,0,.64-.09.87-.27.23-.18.4-.42.5-.71.11-.29.16-.61.16-.95s-.06-.66-.16-.96c-.11-.3-.28-.54-.5-.72-.23-.18-.52-.27-.87-.27s-.64.09-.87.27c-.23.18-.39.42-.5.72-.11.3-.16.62-.16.96s.05.66.16.95c.11.29.28.53.5.71.23.18.52.27.87.27ZM126.4,181.06v-3.03h.79v5.13h-.79v-.87h-.05c-.12.26-.31.48-.56.66-.25.18-.57.27-.96.27-.32,0-.61-.07-.85-.21-.25-.14-.44-.36-.59-.64-.14-.29-.21-.65-.21-1.09v-3.26h.79v3.21c0,.37.1.67.31.89.21.22.48.33.81.33.2,0,.39-.05.6-.15.2-.1.38-.25.51-.46.14-.21.21-.47.21-.79ZM129.42,180.07v3.08h-.79v-5.13h.76v.8h.07c.12-.26.3-.47.55-.63.24-.16.56-.24.95-.24.35,0,.65.07.91.21.26.14.46.35.61.64.14.29.22.65.22,1.08v3.26h-.79v-3.2c0-.4-.1-.72-.31-.94-.21-.23-.5-.34-.86-.34-.25,0-.48.05-.67.16-.2.11-.35.27-.46.48-.11.21-.17.46-.17.76ZM136.36,178.03v.67h-2.66v-.67h2.66ZM134.48,176.8h.79v4.89c0,.22.03.39.1.5.07.11.15.18.25.22.1.04.21.05.33.05.09,0,.16,0,.21-.01.06-.01.1-.02.13-.03l.16.71c-.05.02-.13.04-.22.06-.1.02-.22.03-.36.03-.22,0-.44-.05-.65-.14-.21-.1-.39-.24-.53-.44-.14-.2-.21-.44-.21-.74v-5.1Z"/>
      <path class="cls-1" d="M39.15,118.21v6.84h-16.87l-.84,11.54h.47c.38-.84.82-1.6,1.31-2.3.49-.73,1.06-1.34,1.72-1.83.66-.52,1.43-.92,2.3-1.2.87-.28,1.86-.42,2.98-.42,1.5,0,2.91.26,4.23.78,1.36.52,2.54,1.29,3.55,2.3,1.04.97,1.86,2.19,2.45,3.65.59,1.43.89,3.05.89,4.86s-.31,3.55-.94,5.12c-.63,1.57-1.55,2.92-2.77,4.07-1.18,1.15-2.66,2.05-4.44,2.71-1.78.63-3.79.94-6.06.94-1.78,0-3.36-.19-4.75-.57-1.39-.38-2.63-.89-3.71-1.51-1.04-.66-1.97-1.41-2.77-2.24-.77-.87-1.43-1.76-1.98-2.66l5.69-4.49c.42.7.85,1.36,1.31,1.98.49.63,1.03,1.18,1.62,1.67.63.45,1.31.82,2.04,1.1.77.24,1.64.37,2.61.37,1.95,0,3.41-.52,4.39-1.57,1.01-1.08,1.51-2.51,1.51-4.28v-.42c0-1.71-.5-3.05-1.51-4.02-1.01-.97-2.4-1.46-4.18-1.46-1.46,0-2.68.3-3.66.89-.94.56-1.65,1.11-2.14,1.67l-6.42-.89,1.36-20.63h22.61ZM51.05,147.87c.87.84,1.31,1.86,1.31,3.08s-.44,2.21-1.31,3.08c-.84.87-1.86,1.31-3.08,1.31s-2.21-.44-3.08-1.31c-.87-.87-1.31-1.9-1.31-3.08s.44-2.25,1.31-3.08c.87-.87,1.9-1.31,3.08-1.31s2.25.44,3.08,1.31Z"/>
      <path class="cls-1" d="M125.15,138.32v-1.01c0-.74.16-1.43.47-2.05.32-.62.78-1.13,1.39-1.51.6-.38,1.34-.57,2.2-.57s1.63.19,2.23.57c.6.38,1.05.87,1.36,1.5.31.62.47,1.31.47,2.06v1.01c0,.74-.16,1.43-.47,2.05-.31.62-.77,1.13-1.38,1.51-.6.38-1.34.57-2.21.57s-1.61-.19-2.22-.57c-.61-.38-1.06-.88-1.38-1.51-.31-.62-.46-1.31-.46-2.05ZM127.6,137.31v1.01c0,.49.12.95.36,1.36.24.41.66.62,1.25.62s1.02-.2,1.25-.61c.23-.41.35-.87.35-1.37v-1.01c0-.5-.11-.96-.33-1.37-.22-.42-.64-.63-1.26-.63-.59,0-1,.21-1.25.63-.24.41-.36.87-.36,1.37ZM115.41,127.34v-1.01c0-.75.16-1.44.48-2.06.32-.62.78-1.12,1.39-1.5.61-.38,1.34-.57,2.2-.57s1.62.19,2.22.57c.6.38,1.06.87,1.37,1.5.31.62.46,1.31.46,2.06v1.01c0,.75-.16,1.44-.47,2.06-.31.62-.76,1.11-1.37,1.49-.61.38-1.34.56-2.21.56s-1.62-.19-2.23-.56c-.6-.37-1.06-.87-1.37-1.5-.31-.62-.47-1.31-.47-2.05ZM117.87,126.33v1.01c0,.5.11.95.35,1.37.24.41.66.61,1.26.61s1.01-.2,1.24-.61c.23-.41.35-.87.35-1.37v-1.01c0-.5-.11-.96-.33-1.37-.22-.42-.64-.63-1.25-.63s-1.01.21-1.25.63c-.24.42-.36.87-.36,1.37ZM116.47,141.91l13.18-19.18h2.34l-13.18,19.18h-2.34Z"/>
      <path class="cls-1" d="M115.42,153.46v-8.22h1.64v1.01h.07c.07-.16.18-.33.31-.49.14-.17.32-.31.54-.42.23-.11.51-.17.84-.17.44,0,.84.11,1.21.34.37.23.66.57.88,1.02.22.45.33,1.02.33,1.71s-.11,1.23-.32,1.69c-.21.46-.5.8-.87,1.04-.37.23-.78.35-1.23.35-.32,0-.6-.05-.82-.16-.22-.11-.41-.24-.55-.4-.14-.16-.25-.33-.33-.5h-.05v3.2h-1.66ZM117.05,148.22c0,.35.05.67.15.93.1.26.24.47.43.62.19.15.41.22.68.22s.5-.07.68-.22c.19-.15.33-.36.43-.62.1-.27.15-.57.15-.92s-.05-.65-.14-.91c-.1-.26-.24-.47-.42-.61-.19-.15-.42-.22-.69-.22s-.5.07-.69.21c-.18.14-.33.35-.42.61-.1.26-.15.57-.15.93ZM123.11,151.32c-.26,0-.48-.09-.66-.27-.18-.18-.27-.4-.27-.66s.09-.47.27-.65c.18-.18.41-.27.66-.27s.47.09.65.27c.19.18.28.4.28.65,0,.17-.04.33-.13.47-.09.14-.2.25-.34.34-.14.08-.29.12-.46.12ZM126.9,151.33c-.38,0-.72-.07-1.02-.2-.3-.13-.53-.33-.71-.6-.17-.26-.26-.6-.26-.99,0-.33.06-.61.18-.84.12-.23.29-.41.5-.55.21-.14.45-.24.72-.31.27-.07.55-.12.85-.15.35-.04.63-.07.84-.1.21-.03.37-.08.46-.15.1-.07.14-.16.14-.29v-.02c0-.25-.08-.44-.23-.57-.15-.13-.37-.2-.65-.2-.3,0-.54.07-.71.2-.18.13-.29.29-.35.49l-1.53-.12c.08-.36.23-.68.46-.94.23-.27.52-.47.88-.62.36-.15.78-.22,1.26-.22.33,0,.65.04.95.12.31.08.58.2.81.36.24.16.43.37.57.63.14.25.21.56.21.91v4.03h-1.57v-.83h-.05c-.1.19-.22.35-.38.49-.16.14-.36.25-.58.33-.22.08-.49.12-.78.12ZM127.37,150.18c.24,0,.46-.05.65-.14.19-.1.33-.23.44-.4.11-.17.16-.35.16-.57v-.63c-.05.03-.12.07-.21.09-.09.03-.19.05-.3.07-.11.02-.22.04-.33.06-.11.01-.21.03-.3.04-.19.03-.36.07-.51.14-.15.06-.26.15-.34.25-.08.1-.12.23-.12.39,0,.23.08.4.24.52.17.12.38.18.63.18ZM132.3,151.32c-.26,0-.48-.09-.66-.27-.18-.18-.27-.4-.27-.66s.09-.47.27-.65c.18-.18.4-.27.66-.27s.47.09.65.27c.19.18.28.4.28.65,0,.17-.04.33-.13.47-.09.14-.2.25-.34.34-.14.08-.29.12-.46.12Z"/>
      <path class="cls-1" d="M167.25,170.41c-.51,0-.95-.11-1.32-.34-.36-.23-.65-.54-.85-.93-.2-.4-.29-.86-.29-1.38s.1-.98.3-1.38c.2-.4.48-.71.85-.93.37-.22.8-.34,1.3-.34.42,0,.78.08,1.1.23.32.15.58.37.77.64.19.28.3.6.33.97h-1.15c-.05-.25-.16-.45-.33-.62-.17-.17-.41-.25-.7-.25-.25,0-.46.07-.65.2-.19.13-.33.32-.44.57-.1.25-.15.54-.15.89s.05.65.15.9c.1.25.25.44.43.58.19.13.41.2.66.2.18,0,.34-.03.48-.1.14-.07.26-.17.36-.3.1-.13.16-.29.2-.47h1.15c-.03.36-.13.68-.32.96-.18.28-.44.5-.75.65-.32.15-.69.23-1.12.23ZM172.67,170.41c-.5,0-.94-.11-1.3-.33-.37-.22-.65-.53-.85-.93-.2-.4-.3-.86-.3-1.39s.1-.99.3-1.39c.2-.4.49-.71.85-.93.37-.22.8-.33,1.3-.33s.93.11,1.3.33c.37.22.65.53.85.93.2.4.3.86.3,1.39s-.1.99-.3,1.39c-.2.4-.48.71-.85.93-.37.22-.8.33-1.3.33ZM172.68,169.44c.27,0,.5-.07.68-.22.18-.15.32-.35.41-.61.09-.25.14-.54.14-.85s-.05-.6-.14-.85c-.09-.26-.23-.46-.41-.61-.18-.15-.41-.23-.68-.23s-.51.08-.69.23c-.18.15-.32.36-.41.61-.09.25-.13.54-.13.85s.04.59.13.85c.09.25.23.46.41.61.18.15.42.22.69.22ZM176.15,170.31v-5.13h1.15v.87h.06c.11-.29.28-.52.53-.69.25-.17.54-.25.88-.25s.64.09.88.25c.24.17.41.4.51.68h.05c.11-.28.3-.51.57-.68.27-.17.59-.26.96-.26.47,0,.86.15,1.15.45.3.3.45.73.45,1.31v3.44h-1.21v-3.25c0-.32-.08-.55-.25-.7-.17-.15-.38-.22-.62-.22-.29,0-.52.09-.68.27-.16.18-.24.41-.24.7v3.2h-1.18v-3.3c0-.26-.08-.48-.24-.63-.16-.16-.36-.24-.62-.24-.17,0-.33.04-.47.13-.14.09-.26.21-.34.37-.08.16-.13.34-.13.55v3.12h-1.21ZM184.59,172.23v-7.05h1.19v.85h.07c.06-.12.15-.26.26-.4.11-.14.27-.26.46-.36.19-.1.44-.15.74-.15.4,0,.75.1,1.07.3.32.2.57.5.76.89.19.39.28.87.28,1.44s-.09,1.04-.28,1.44c-.18.39-.44.69-.75.9-.32.21-.68.31-1.08.31-.29,0-.54-.05-.73-.15-.19-.1-.35-.22-.47-.35-.12-.14-.21-.27-.27-.4h-.05v2.73h-1.21ZM185.77,167.74c0,.33.05.62.14.87.1.25.23.44.41.58.18.14.4.21.65.21s.49-.07.67-.21c.18-.14.32-.34.41-.59.09-.25.14-.54.14-.86s-.05-.6-.14-.85c-.09-.25-.23-.44-.41-.58-.18-.14-.4-.21-.68-.21s-.48.07-.66.2c-.18.14-.32.33-.41.57-.09.24-.14.53-.14.86ZM191.94,170.41c-.32,0-.62-.06-.88-.17-.26-.12-.46-.29-.62-.52-.15-.23-.22-.51-.22-.85,0-.29.05-.53.16-.72.11-.19.25-.34.44-.45.18-.11.39-.2.62-.26.23-.06.48-.1.73-.13.3-.03.54-.06.73-.08.19-.03.32-.07.41-.12.09-.05.13-.14.13-.26v-.02c0-.25-.07-.45-.22-.58s-.36-.21-.64-.21c-.3,0-.53.07-.7.19-.17.13-.29.28-.35.46l-1.13-.16c.09-.31.24-.57.44-.78.21-.21.46-.37.75-.47.3-.11.62-.16.98-.16.25,0,.49.03.74.09.24.06.47.15.67.29.2.13.37.31.49.54.12.23.19.51.19.85v3.43h-1.16v-.7h-.04c-.07.14-.18.28-.31.4-.13.12-.3.22-.5.3-.2.07-.43.11-.7.11ZM192.25,169.52c.24,0,.45-.05.63-.14.18-.1.32-.23.41-.39.1-.16.15-.33.15-.52v-.6s-.1.06-.19.09c-.09.03-.19.05-.3.07-.11.02-.22.04-.33.05-.11.02-.2.03-.28.04-.18.02-.34.06-.48.12-.14.06-.26.13-.34.23-.08.1-.12.23-.12.38,0,.22.08.39.24.5.16.11.37.17.62.17ZM195.86,170.31v-5.13h1.17v.85h.05c.09-.3.25-.52.48-.68.23-.16.49-.24.78-.24.07,0,.14,0,.22,0,.08,0,.15.01.21.02v1.11c-.05-.02-.13-.03-.24-.05-.11-.02-.21-.02-.32-.02-.22,0-.42.05-.59.14-.17.09-.31.22-.41.39-.1.17-.15.36-.15.58v3.01h-1.21ZM199.59,170.31v-5.13h1.21v5.13h-1.21ZM200.19,164.45c-.19,0-.36-.06-.49-.19-.14-.13-.21-.28-.21-.46s.07-.34.21-.46c.14-.13.3-.19.49-.19s.36.06.49.19c.14.13.21.28.21.46s-.07.34-.21.46c-.14.13-.3.19-.49.19ZM206.09,166.54l-1.1.12c-.03-.11-.09-.22-.16-.31-.08-.1-.18-.18-.31-.24s-.29-.09-.47-.09c-.25,0-.46.05-.63.16-.17.11-.25.25-.25.42,0,.15.05.27.16.36.11.09.3.17.56.23l.87.19c.49.1.85.27,1.08.5.24.23.36.52.36.89,0,.32-.1.61-.28.85-.18.24-.44.44-.77.57-.33.14-.71.21-1.14.21-.63,0-1.13-.13-1.51-.39-.38-.26-.61-.63-.68-1.1l1.18-.11c.05.23.17.41.34.52.17.12.4.18.68.18s.52-.06.69-.18c.18-.12.26-.26.26-.44,0-.15-.06-.27-.17-.36-.11-.1-.28-.17-.52-.22l-.88-.18c-.49-.1-.85-.28-1.09-.52-.24-.25-.35-.55-.35-.93,0-.32.08-.59.26-.82.18-.23.42-.41.73-.54.31-.13.68-.19,1.08-.19.6,0,1.07.13,1.42.38.35.26.56.6.64,1.04ZM209.43,170.41c-.5,0-.93-.11-1.3-.33-.37-.22-.65-.53-.85-.93-.2-.4-.3-.86-.3-1.39s.1-.99.3-1.39c.2-.4.49-.71.85-.93.37-.22.8-.33,1.3-.33s.93.11,1.3.33c.37.22.65.53.85.93.2.4.3.86.3,1.39s-.1.99-.3,1.39c-.2.4-.48.71-.85.93-.37.22-.8.33-1.3.33ZM209.44,169.44c.27,0,.5-.07.68-.22.18-.15.32-.35.41-.61.09-.25.14-.54.14-.85s-.04-.6-.14-.85c-.09-.26-.22-.46-.41-.61-.18-.15-.41-.23-.68-.23s-.51.08-.69.23c-.18.15-.32.36-.41.61-.09.25-.13.54-.13.85s.04.59.13.85c.09.25.23.46.41.61.18.15.42.22.69.22ZM214.12,167.3v3h-1.21v-5.13h1.16v.87h.06c.12-.29.31-.51.56-.68.26-.17.58-.25.96-.25.35,0,.66.08.92.23.27.15.47.37.61.66.15.29.22.64.22,1.05v3.26h-1.21v-3.08c0-.34-.09-.61-.27-.81-.18-.19-.42-.29-.73-.29-.21,0-.4.05-.56.14-.16.09-.29.22-.38.4-.09.17-.14.38-.14.63ZM220.97,170.31v-5.13h1.17v.85h.05c.09-.3.25-.52.48-.68.23-.16.49-.24.79-.24.07,0,.14,0,.22,0,.09,0,.15.01.21.02v1.11c-.05-.02-.13-.03-.24-.05-.11-.02-.22-.02-.32-.02-.22,0-.42.05-.59.14-.17.09-.31.22-.41.39-.1.17-.15.36-.15.58v3.01h-1.21ZM226.08,170.41c-.32,0-.62-.06-.88-.17-.26-.12-.46-.29-.61-.52-.15-.23-.22-.51-.22-.85,0-.29.05-.53.16-.72.11-.19.25-.34.44-.45.18-.11.39-.2.62-.26.23-.06.48-.1.72-.13.3-.03.54-.06.73-.08.19-.03.32-.07.41-.12.09-.05.13-.14.13-.26v-.02c0-.25-.07-.45-.22-.58-.15-.14-.36-.21-.64-.21-.3,0-.53.07-.7.19-.17.13-.29.28-.35.46l-1.13-.16c.09-.31.24-.57.44-.78.21-.21.46-.37.75-.47.3-.11.62-.16.98-.16.25,0,.49.03.74.09s.47.15.67.29c.2.13.36.31.49.54.12.23.19.51.19.85v3.43h-1.16v-.7h-.04c-.07.14-.18.28-.31.4-.13.12-.3.22-.5.3-.2.07-.43.11-.7.11ZM226.4,169.52c.24,0,.45-.05.63-.14.18-.1.31-.23.41-.39.1-.16.15-.33.15-.52v-.6s-.1.06-.19.09c-.09.03-.19.05-.3.07-.11.02-.22.04-.33.05-.11.02-.2.03-.28.04-.18.02-.34.06-.48.12-.14.06-.26.13-.34.23-.08.1-.12.23-.12.38,0,.22.08.39.24.5.16.11.37.17.62.17ZM232.57,165.18v.93h-2.95v-.93h2.95ZM230.35,163.95h1.21v4.81c0,.16.02.29.07.37.05.08.12.14.2.17.08.03.17.05.27.05.08,0,.14,0,.21-.02.06-.01.11-.02.15-.03l.2.94c-.06.02-.16.05-.28.07-.12.03-.26.04-.43.05-.3,0-.58-.04-.82-.14-.24-.1-.43-.26-.58-.47-.14-.21-.21-.48-.21-.8v-5.01ZM235.79,170.41c-.51,0-.96-.11-1.33-.32-.37-.22-.66-.52-.86-.91-.2-.4-.3-.86-.3-1.4s.1-.99.3-1.39c.2-.4.49-.71.85-.93.36-.22.79-.34,1.28-.34.32,0,.61.05.89.15.28.1.53.26.75.47.22.21.39.48.51.81.12.32.19.71.19,1.16v.37h-4.2v-.81h3.04c0-.23-.05-.44-.15-.62-.1-.18-.23-.33-.41-.43-.17-.1-.38-.16-.61-.16-.25,0-.46.06-.65.18-.19.12-.33.27-.44.47-.1.19-.15.4-.16.63v.71c0,.3.06.55.16.77.11.21.26.37.46.49.2.11.43.17.69.17.18,0,.34-.02.48-.07.14-.05.27-.13.37-.22.1-.1.18-.22.24-.36l1.13.13c-.07.3-.21.56-.41.78-.2.22-.45.39-.76.51-.31.12-.66.18-1.06.18ZM240.62,167.32l.08-1.35-1.14.74-.41-.71,1.21-.61-1.21-.61.41-.71,1.14.74-.08-1.35h.81l-.07,1.35,1.13-.74.41.71-1.21.61,1.21.61-.41.71-1.13-.74.07,1.35h-.81Z"/>
      <path class="cls-1" d="M190.06,118.21v6.84h-16.87l-.84,11.54h.47c.38-.84.82-1.6,1.31-2.3.49-.73,1.06-1.34,1.72-1.83.66-.52,1.43-.92,2.3-1.2.87-.28,1.86-.42,2.98-.42,1.5,0,2.91.26,4.23.78,1.36.52,2.54,1.29,3.55,2.3,1.04.97,1.86,2.19,2.45,3.65.59,1.43.89,3.05.89,4.86s-.31,3.55-.94,5.12c-.63,1.57-1.55,2.92-2.77,4.07-1.18,1.15-2.66,2.05-4.44,2.71-1.78.63-3.79.94-6.06.94-1.77,0-3.36-.19-4.75-.57-1.39-.38-2.63-.89-3.71-1.51-1.04-.66-1.97-1.41-2.77-2.24-.76-.87-1.43-1.76-1.98-2.66l5.69-4.49c.42.7.85,1.36,1.31,1.98.49.63,1.03,1.18,1.62,1.67.63.45,1.31.82,2.04,1.1.76.24,1.64.37,2.61.37,1.95,0,3.41-.52,4.39-1.57,1.01-1.08,1.51-2.51,1.51-4.28v-.42c0-1.71-.5-3.05-1.51-4.02-1.01-.97-2.4-1.46-4.18-1.46-1.46,0-2.68.3-3.65.89-.94.56-1.65,1.11-2.14,1.67l-6.42-.89,1.36-20.63h22.61ZM201.96,147.87c.87.84,1.31,1.86,1.31,3.08s-.44,2.21-1.31,3.08c-.84.87-1.86,1.31-3.08,1.31s-2.21-.44-3.08-1.31c-.87-.87-1.3-1.9-1.3-3.08s.43-2.25,1.3-3.08c.87-.87,1.9-1.31,3.08-1.31s2.24.44,3.08,1.31ZM232.63,132.05c0,2.58-.4,4.99-1.2,7.26-.8,2.26-1.85,4.37-3.13,6.32-1.25,1.92-2.68,3.64-4.28,5.17-1.57,1.53-3.13,2.82-4.7,3.86h-10.81c2.26-1.57,4.28-3.06,6.06-4.49,1.81-1.46,3.38-2.91,4.7-4.33,1.36-1.46,2.45-2.96,3.29-4.49.87-1.53,1.5-3.19,1.88-4.96l-.47-.16c-.31.7-.71,1.38-1.2,2.04-.45.66-1.01,1.25-1.67,1.78-.63.49-1.39.89-2.3,1.2-.87.31-1.9.47-3.08.47-1.53,0-2.96-.26-4.28-.78-1.32-.56-2.47-1.32-3.45-2.3-.94-1.01-1.69-2.21-2.25-3.6-.56-1.39-.84-2.96-.84-4.7,0-1.85.33-3.55.99-5.12.66-1.57,1.58-2.91,2.77-4.02,1.22-1.15,2.68-2.04,4.39-2.66,1.71-.63,3.6-.94,5.69-.94,2.19,0,4.14.35,5.85,1.04,1.74.66,3.2,1.64,4.39,2.92,1.18,1.25,2.09,2.77,2.72,4.54.63,1.78.94,3.76.94,5.95ZM218.79,135.7c1.78,0,3.17-.47,4.18-1.41,1.01-.98,1.51-2.37,1.51-4.18v-.73c0-1.81-.49-3.2-1.46-4.18-.94-1.01-2.35-1.51-4.23-1.51s-3.31.5-4.28,1.51c-.97.97-1.46,2.37-1.46,4.18v.73c0,1.81.49,3.2,1.46,4.18,1.01.94,2.44,1.41,4.28,1.41ZM249.75,155.29c-4.87,0-8.48-1.65-10.81-4.96-2.3-3.31-3.45-7.94-3.45-13.89s1.15-10.58,3.45-13.89c2.33-3.31,5.93-4.96,10.81-4.96s8.46,1.65,10.76,4.96c2.33,3.31,3.5,7.94,3.5,13.89s-1.17,10.58-3.5,13.89c-2.3,3.31-5.88,4.96-10.76,4.96ZM249.75,149.12c2.33,0,3.95-.82,4.86-2.45.94-1.64,1.41-3.92,1.41-6.84v-6.79c0-2.92-.47-5.2-1.41-6.84-.9-1.64-2.52-2.45-4.86-2.45s-3.97.82-4.91,2.45c-.9,1.64-1.36,3.92-1.36,6.84v6.79c0,2.93.45,5.21,1.36,6.84.94,1.64,2.58,2.45,4.91,2.45Z"/>
      <path class="cls-1" d="M276.06,138.32v-1.01c0-.74.16-1.43.47-2.05.32-.62.78-1.13,1.39-1.51.6-.38,1.34-.57,2.2-.57s1.63.19,2.23.57c.6.38,1.05.87,1.36,1.5.31.62.47,1.31.47,2.06v1.01c0,.74-.16,1.43-.47,2.05-.31.62-.77,1.13-1.38,1.51-.6.38-1.34.57-2.21.57s-1.61-.19-2.22-.57c-.61-.38-1.07-.88-1.38-1.51-.31-.62-.46-1.31-.46-2.05ZM278.51,137.31v1.01c0,.49.12.95.36,1.36.24.41.66.62,1.25.62s1.02-.2,1.25-.61c.23-.41.35-.87.35-1.37v-1.01c0-.5-.11-.96-.33-1.37-.22-.42-.64-.63-1.26-.63-.59,0-1,.21-1.24.63-.24.41-.37.87-.37,1.37ZM266.32,127.34v-1.01c0-.75.16-1.44.48-2.06.32-.62.78-1.12,1.39-1.5.61-.38,1.34-.57,2.2-.57s1.62.19,2.22.57c.6.38,1.06.87,1.37,1.5.31.62.46,1.31.46,2.06v1.01c0,.75-.16,1.44-.47,2.06-.31.62-.76,1.11-1.37,1.49-.61.38-1.34.56-2.21.56s-1.62-.19-2.23-.56c-.6-.37-1.05-.87-1.37-1.5-.31-.62-.47-1.31-.47-2.05ZM268.78,126.33v1.01c0,.5.12.95.35,1.37.24.41.66.61,1.26.61s1.01-.2,1.24-.61c.23-.41.35-.87.35-1.37v-1.01c0-.5-.11-.96-.33-1.37-.22-.42-.64-.63-1.26-.63s-1.01.21-1.24.63c-.24.42-.36.87-.36,1.37ZM267.38,141.91l13.18-19.18h2.34l-13.18,19.18h-2.34Z"/>
      <path class="cls-1" d="M266.33,153.46v-8.22h1.63v1.01h.07c.07-.16.18-.33.32-.49.14-.17.32-.31.55-.42.23-.11.51-.17.84-.17.44,0,.84.11,1.21.34.37.23.66.57.88,1.02.22.45.33,1.02.33,1.71s-.11,1.23-.32,1.69c-.21.46-.5.8-.87,1.04-.37.23-.78.35-1.23.35-.32,0-.6-.05-.82-.16-.22-.11-.41-.24-.55-.4-.14-.16-.25-.33-.33-.5h-.05v3.2h-1.66ZM267.96,148.22c0,.35.05.67.15.93.1.26.24.47.43.62.19.15.41.22.68.22s.5-.07.68-.22c.19-.15.33-.36.42-.62.1-.27.15-.57.15-.92s-.05-.65-.14-.91c-.1-.26-.24-.47-.42-.61-.19-.15-.42-.22-.69-.22s-.5.07-.69.21c-.18.14-.33.35-.42.61-.1.26-.15.57-.15.93ZM274.02,151.32c-.26,0-.48-.09-.66-.27-.18-.18-.27-.4-.27-.66s.09-.47.27-.65c.19-.18.41-.27.66-.27s.47.09.65.27c.19.18.28.4.28.65,0,.17-.04.33-.13.47-.09.14-.2.25-.34.34-.14.08-.29.12-.46.12ZM277.8,151.33c-.38,0-.72-.07-1.02-.2-.3-.13-.54-.33-.71-.6-.17-.26-.26-.6-.26-.99,0-.33.06-.61.18-.84.12-.23.29-.41.5-.55.21-.14.45-.24.72-.31.27-.07.55-.12.85-.15.35-.04.63-.07.84-.1.21-.03.37-.08.46-.15s.14-.16.14-.29v-.02c0-.25-.08-.44-.23-.57-.15-.13-.37-.2-.65-.2-.3,0-.54.07-.71.2-.18.13-.29.29-.35.49l-1.53-.12c.08-.36.23-.68.46-.94.23-.27.52-.47.88-.62.36-.15.78-.22,1.26-.22.33,0,.65.04.95.12.31.08.58.2.81.36.24.16.43.37.56.63.14.25.21.56.21.91v4.03h-1.57v-.83h-.05c-.1.19-.22.35-.39.49-.16.14-.35.25-.58.33-.23.08-.49.12-.78.12ZM278.28,150.18c.24,0,.46-.05.65-.14.19-.1.33-.23.44-.4.11-.17.16-.35.16-.57v-.63c-.05.03-.12.07-.21.09-.09.03-.19.05-.3.07-.11.02-.22.04-.33.06-.11.01-.21.03-.3.04-.2.03-.36.07-.51.14-.15.06-.26.15-.34.25-.08.1-.12.23-.12.39,0,.23.08.4.25.52.17.12.38.18.63.18ZM283.21,151.32c-.26,0-.48-.09-.66-.27-.18-.18-.27-.4-.27-.66s.09-.47.27-.65c.18-.18.4-.27.66-.27s.47.09.65.27c.19.18.28.4.28.65,0,.17-.04.33-.13.47-.08.14-.2.25-.34.34-.14.08-.29.12-.46.12Z"/>
    </g>
  </g>
</svg>