<?xml version="1.0" encoding="UTF-8"?>
<svg id="Layer_1" data-name="Layer 1" xmlns="http://www.w3.org/2000/svg" viewBox="0 0 4 50">
  <defs>
    <style>
      .cls-1 {
        fill: #171d21;
        stroke-width: 0px;
      }
    </style>
  </defs>
  <path class="cls-1" d="M2.71.48v3.96h-.84V1.27h-.02l-.91.57v-.74l.98-.62h.79Z"/>
  <path class="cls-1" d="M.6,9.47v-.6l1.41-1.31c.12-.12.22-.22.3-.31s.14-.18.19-.27c.04-.09.06-.19.06-.29,0-.12-.03-.22-.08-.3s-.12-.15-.22-.2-.2-.07-.31-.07-.23.02-.32.07c-.09.05-.16.12-.21.21s-.07.2-.07.33h-.8c0-.26.06-.48.18-.68.12-.19.28-.34.49-.44s.46-.16.73-.16.53.05.74.15.38.24.49.42c.12.18.18.38.18.61,0,.15-.03.3-.09.44-.06.15-.16.31-.31.48-.15.18-.36.39-.63.64l-.58.57v.03h1.66v.69H.58h.02Z"/>
  <path class="cls-1" d="M1.98,14.5c-.29,0-.55-.05-.77-.15-.22-.1-.4-.24-.53-.41-.13-.18-.2-.38-.2-.61h.84c0,.1.04.18.1.25.06.07.14.13.23.17.1.04.21.06.33.06s.24-.02.34-.07c.1-.04.17-.11.23-.19s.08-.17.08-.28-.03-.2-.09-.28-.14-.15-.25-.19c-.11-.05-.24-.07-.39-.07h-.37v-.62h.37c.13,0,.24-.02.34-.07.1-.04.17-.1.23-.18.05-.08.08-.17.08-.27s-.02-.19-.07-.26c-.05-.08-.11-.13-.2-.18-.08-.04-.18-.06-.29-.06s-.22.02-.31.06-.17.1-.23.17-.09.16-.09.26h-.8c0-.23.07-.43.2-.6.13-.17.3-.31.51-.41s.46-.15.73-.15.51.05.72.15c.21.1.37.23.48.4s.17.36.17.57-.07.41-.21.56-.32.24-.54.28v.03c.29.04.51.14.67.3.15.16.23.37.23.62,0,.23-.06.43-.19.6-.13.18-.31.31-.54.41s-.49.15-.79.15h-.02Z"/>
  <path class="cls-1" d="M.42,18.75v-.66l1.65-2.61h.57v.91h-.34l-1.04,1.65v.03h2.35v.67H.41h0ZM2.31,19.45v-.9l.02-.29v-2.77h.79v3.96h-.81Z"/>
  <path class="cls-1" d="M2.01,24.48c-.27,0-.52-.05-.73-.15-.21-.1-.38-.24-.51-.42s-.19-.38-.2-.61h.81c0,.15.07.28.19.37.12.1.26.14.43.14.13,0,.25-.03.35-.09s.18-.14.24-.25c.06-.11.09-.23.09-.36s-.03-.26-.09-.37-.14-.19-.24-.25-.22-.09-.35-.09c-.12,0-.23.02-.34.07s-.19.11-.25.2l-.75-.13.19-2.09h2.42v.69h-1.73l-.1.99h.02c.07-.1.17-.18.32-.24.14-.06.3-.1.47-.1.24,0,.45.06.64.17s.33.27.44.46c.11.2.16.42.16.67,0,.27-.06.5-.18.71s-.3.37-.52.49c-.22.12-.48.18-.78.18h0Z"/>
  <path class="cls-1" d="M2.04,29.49c-.2,0-.4-.04-.59-.1-.19-.07-.36-.18-.51-.33s-.27-.35-.36-.6-.13-.55-.13-.92c0-.33.04-.63.11-.89.08-.26.18-.49.33-.67.14-.18.31-.32.51-.42s.42-.14.66-.14c.26,0,.5.05.7.15s.37.24.49.42c.12.18.2.37.22.59h-.83c-.03-.14-.1-.25-.2-.33s-.23-.12-.38-.12c-.26,0-.45.11-.59.34-.13.22-.2.53-.2.92h.03c.06-.12.14-.22.24-.3s.22-.15.35-.19.27-.07.41-.07c.24,0,.44.06.63.17.18.11.33.26.43.45.11.19.16.41.16.66,0,.27-.06.51-.19.72-.12.21-.3.37-.52.49s-.48.18-.77.18h0ZM2.03,28.84c.13,0,.24-.03.35-.09.1-.06.18-.15.24-.25.06-.11.09-.22.09-.36s-.03-.25-.09-.35-.14-.19-.24-.25-.21-.09-.34-.09c-.1,0-.19.02-.27.05s-.15.09-.21.15-.11.14-.14.22c-.04.08-.05.17-.05.27,0,.13.03.24.09.35s.14.19.24.25.22.09.35.09h-.02Z"/>
  <path class="cls-1" d="M.85,34.45l1.64-3.25v-.03H.58v-.69h2.78v.69l-1.65,3.27h-.86Z"/>
  <path class="cls-1" d="M1.99,39.51c-.3,0-.56-.05-.79-.15-.23-.1-.41-.23-.54-.4-.13-.17-.2-.36-.2-.57,0-.17.04-.32.11-.46.08-.14.18-.25.31-.35.13-.09.28-.15.44-.18v-.03c-.21-.04-.38-.15-.51-.31-.13-.16-.2-.35-.2-.57s.06-.39.18-.55.29-.29.5-.38.45-.14.71-.14.51.05.71.14c.21.09.38.22.5.38s.18.34.18.55-.07.41-.2.57-.3.27-.51.31v.03c.16.03.3.08.43.18.13.09.23.21.31.35s.12.29.12.46c0,.21-.07.41-.2.57-.13.17-.31.3-.54.4-.23.1-.5.15-.79.15h-.02ZM1.99,38.9c.13,0,.25-.02.35-.07s.18-.12.23-.2c.06-.09.08-.19.08-.3s-.03-.22-.09-.3c-.06-.09-.14-.16-.24-.21s-.21-.08-.34-.08-.24.03-.34.08-.18.12-.24.21c-.06.09-.09.19-.09.3s.03.21.08.3.13.15.23.2.22.07.35.07h.02ZM1.99,37.13c.11,0,.21-.02.3-.07.09-.04.15-.11.2-.19.05-.08.07-.17.07-.28s-.02-.19-.07-.27-.12-.14-.2-.18-.18-.07-.3-.07-.21.02-.3.07c-.09.04-.15.11-.2.18-.05.08-.07.17-.07.27s.03.2.07.28c.05.08.12.14.2.19.09.05.18.07.3.07Z"/>
  <path class="cls-1" d="M1.95,40.43c.2,0,.4.03.59.1s.36.18.51.33.27.35.35.6.13.55.13.91c0,.34-.04.64-.11.9-.08.26-.18.49-.32.67s-.31.32-.51.42-.42.14-.67.14-.5-.05-.7-.15c-.2-.1-.37-.24-.49-.42-.12-.18-.2-.38-.22-.6h.83c.03.14.1.26.2.34.1.08.23.12.38.12.26,0,.45-.11.59-.34.13-.23.2-.53.2-.93h-.03c-.06.12-.14.22-.24.3-.1.08-.22.15-.35.19-.13.05-.27.07-.41.07-.23,0-.44-.06-.62-.16-.18-.11-.33-.26-.43-.45-.11-.19-.16-.41-.16-.66,0-.27.06-.5.18-.71s.3-.37.52-.49.48-.18.78-.18h0ZM1.96,41.09c-.13,0-.25.03-.35.09s-.18.15-.24.25-.09.22-.09.35.03.25.09.35.14.19.24.25.21.09.34.09c.1,0,.19-.02.27-.05s.15-.09.22-.15.11-.14.14-.22.05-.17.05-.27c0-.12-.03-.24-.09-.34s-.14-.19-.24-.25-.22-.09-.34-.09h0Z"/>
  <path class="cls-1" d="M1.99,49.52c-.33,0-.62-.08-.86-.25-.24-.16-.42-.4-.55-.71-.13-.31-.19-.68-.19-1.11s.06-.8.19-1.1.31-.54.55-.7.53-.24.86-.24.62.08.86.24.42.39.55.7.19.67.19,1.1-.06.81-.19,1.11c-.13.31-.31.54-.55.71-.24.16-.52.24-.86.24h0ZM1.99,48.82c.23,0,.41-.11.54-.34.14-.23.2-.57.2-1.03,0-.3-.03-.55-.09-.75s-.15-.35-.26-.45c-.11-.1-.24-.15-.39-.15-.23,0-.41.11-.54.34-.13.23-.2.56-.21,1.01,0,.3.03.56.09.76.06.2.15.36.26.46s.24.15.39.15h.01Z"/>
</svg>