<svg id="Layer_1" data-name="Layer 1" xmlns="http://www.w3.org/2000/svg" xmlns:xlink="http://www.w3.org/1999/xlink" viewBox="0 0 970 250"><defs><style>.cls-1{fill:none;}.cls-2{clip-path:url(#clip-path);}.cls-3{fill:#eab8b9;}.cls-4{clip-path:url(#clip-path-3);}.cls-5{clip-path:url(#clip-path-5);}.cls-6{clip-path:url(#clip-path-6);}.cls-7{clip-path:url(#clip-path-7);}.cls-8{clip-path:url(#clip-path-9);}.cls-9{clip-path:url(#clip-path-10);}.cls-10{clip-path:url(#clip-path-11);}.cls-11{clip-path:url(#clip-path-13);}.cls-12{clip-path:url(#clip-path-14);}.cls-13{clip-path:url(#clip-path-15);}.cls-14{clip-path:url(#clip-path-17);}.cls-15{clip-path:url(#clip-path-18);}</style><clipPath id="clip-path"><rect class="cls-1" width="970" height="250"/></clipPath><clipPath id="clip-path-3"><rect class="cls-1" x="990" width="970" height="250"/></clipPath><clipPath id="clip-path-5"><rect class="cls-1" x="1551.94" y="129.11" width="121.62" height="120.89"/></clipPath><clipPath id="clip-path-6"><rect class="cls-1" x="-31778" y="-32517" width="65535" height="65535"/></clipPath><clipPath id="clip-path-7"><rect class="cls-1" x="1980" width="970" height="250"/></clipPath><clipPath id="clip-path-9"><rect class="cls-1" x="2541.94" y="129.11" width="121.62" height="120.89"/></clipPath><clipPath id="clip-path-10"><rect class="cls-1" x="-30788" y="-32517" width="65535" height="65535"/></clipPath><clipPath id="clip-path-11"><rect class="cls-1" x="3960" width="970" height="250"/></clipPath><clipPath id="clip-path-13"><rect class="cls-1" x="4521.94" y="129.11" width="121.62" height="120.89"/></clipPath><clipPath id="clip-path-14"><rect class="cls-1" x="-28808" y="-32517" width="65535" height="65535"/></clipPath><clipPath id="clip-path-15"><rect class="cls-1" x="4950" width="970" height="250"/></clipPath><clipPath id="clip-path-17"><rect class="cls-1" x="5511.94" y="129.11" width="121.62" height="120.89"/></clipPath><clipPath id="clip-path-18"><rect class="cls-1" x="-27818" y="-32517" width="65535" height="65535"/></clipPath></defs><g class="cls-2"><g class="cls-2"><path class="cls-3" d="M823.19,171.87a3,3,0,0,1-.21-1.13.9.9,0,0,0-1-1H820.5v2.09h-.71v-5.2h2.12c1.32,0,2,.61,2,1.54a1.24,1.24,0,0,1-1.18,1.29,1.12,1.12,0,0,1,1,1.13c.07.75.09,1.05.27,1.24Zm-1.32-2.66c.88,0,1.28-.33,1.28-1s-.4-1-1.28-1H820.5v2Z"/><path class="cls-3" d="M828,170.66a1.59,1.59,0,0,1-1.68,1.31,1.77,1.77,0,0,1-1.86-1.85,1.84,1.84,0,0,1,1.83-2A1.66,1.66,0,0,1,828,170v.28h-2.87a1.18,1.18,0,0,0,1.18,1.19,1,1,0,0,0,1.1-.84Zm-.68-.87a1,1,0,0,0-1-1.1,1.15,1.15,0,0,0-1.12,1.1Z"/><path class="cls-3" d="M831.46,171.12a1.33,1.33,0,0,1-1.29.85,1.92,1.92,0,0,1,0-3.8,1.34,1.34,0,0,1,1.29.85v-2.35h.69v5.2h-.69Zm0-1.16a1.13,1.13,0,0,0-1.15-1.24c-.71,0-1.1.53-1.1,1.35s.39,1.36,1.1,1.36a1.15,1.15,0,0,0,1.15-1.26Z"/><path class="cls-3" d="M836.81,171.87h-2.22v-5.2h2.13c1.28,0,1.81.56,1.81,1.39a1.12,1.12,0,0,1-1,1.11,1.24,1.24,0,0,1,1.13,1.27C838.68,171.34,838,171.87,836.81,171.87Zm-1.52-3h1.45c.75,0,1.07-.33,1.07-.83s-.32-.83-1.07-.83h-1.45Zm0,.55v1.82h1.5c.78,0,1.18-.34,1.18-.9s-.4-.92-1.18-.92Z"/><path class="cls-3" d="M839.42,166.67h.71v.78h-.71Zm.7,1.59v3.61h-.68v-3.61Z"/><path class="cls-3" d="M843.21,169a1,1,0,0,0-.56-.15c-.52,0-.91.47-.91,1.16v1.91h-.69v-3.61h.69V169a1.13,1.13,0,0,1,1-.83.75.75,0,0,1,.52.16Z"/><path class="cls-3" d="M846.4,171.12a1.33,1.33,0,0,1-1.29.85,1.92,1.92,0,0,1,0-3.8,1.34,1.34,0,0,1,1.29.85v-2.35h.69v5.2h-.69Zm0-1.16a1.13,1.13,0,0,0-1.15-1.24c-.71,0-1.1.53-1.1,1.35s.39,1.36,1.1,1.36a1.15,1.15,0,0,0,1.15-1.26Z"/><path class="cls-3" d="M851.22,171.87l-2.09-5.2h.74l1.75,4.38h0l1.71-4.38h.72l-2.09,5.2Z"/><path class="cls-3" d="M857.54,170.66a1.6,1.6,0,0,1-1.68,1.31,1.76,1.76,0,0,1-1.86-1.85,1.83,1.83,0,0,1,1.82-2,1.66,1.66,0,0,1,1.74,1.79v.28h-2.88a1.19,1.19,0,0,0,1.18,1.19,1,1,0,0,0,1.11-.84Zm-.69-.87a1,1,0,0,0-1-1.1,1.16,1.16,0,0,0-1.12,1.1Z"/><path class="cls-3" d="M859,171.87h-.69v-3.61H859v.65a1.27,1.27,0,0,1,1.2-.74c.94,0,1.32.62,1.32,1.46v2.24h-.69v-2.18c0-.6-.29-1-.86-1a1,1,0,0,0-1,1.09Z"/><path class="cls-3" d="M862.48,168.76h-.55v-.37l.24,0c.33-.07.41-.23.49-.58l.11-.5h.39v1h1v.5h-1V171c0,.32.13.47.44.47a1.44,1.44,0,0,0,.68-.22v.47a1.48,1.48,0,0,1-.93.3c-.51,0-.87-.24-.87-.94Z"/><path class="cls-3" d="M867.31,168.26H868v3.61h-.68v-.63a1.26,1.26,0,0,1-1.18.73c-.94,0-1.29-.62-1.29-1.46v-2.25h.68v2.18c0,.61.27,1,.84,1a1,1,0,0,0,.95-1.09Z"/><path class="cls-3" d="M871.09,169a1,1,0,0,0-.57-.15c-.52,0-.9.47-.9,1.16v1.91h-.69v-3.61h.69V169a1.13,1.13,0,0,1,1-.83.73.73,0,0,1,.51.16Z"/><path class="cls-3" d="M874.87,170.66a1.59,1.59,0,0,1-1.68,1.31,1.77,1.77,0,0,1-1.86-1.85,1.84,1.84,0,0,1,1.83-2,1.66,1.66,0,0,1,1.73,1.79v.28H872a1.18,1.18,0,0,0,1.18,1.19,1,1,0,0,0,1.1-.84Zm-.68-.87a1,1,0,0,0-1-1.1,1.16,1.16,0,0,0-1.13,1.1Z"/><path class="cls-3" d="M875.94,170.62a.94.94,0,0,0,1.07.85c.48,0,.83-.18.83-.54s-.24-.45-.68-.54l-.61-.1c-.68-.11-1.09-.4-1.09-1s.56-1.1,1.39-1.1,1.52.44,1.59,1.28l-.56,0c-.08-.56-.42-.81-1-.81-.45,0-.75.21-.75.54s.18.43.55.5l.68.11c.73.12,1.16.39,1.16,1.05s-.64,1.1-1.48,1.1-1.59-.42-1.65-1.31Z"/><path class="cls-3" d="M881.43,166.67v4.61h2.9v.59h-3.62v-5.2Z"/><path class="cls-3" d="M885,166.67h.71v.78H885Zm.7,1.59v3.61H885v-3.61Z"/><path class="cls-3" d="M890.85,168.17c.94,0,1.27.65,1.27,1.46v2.24h-.69v-2.18c0-.6-.25-1-.8-1a1,1,0,0,0-.92,1.09v2.07H889v-2.18c0-.6-.25-1-.8-1a1,1,0,0,0-.92,1.09v2.07h-.68v-3.61h.68v.65a1.2,1.2,0,0,1,1.15-.74,1.12,1.12,0,0,1,1.18.78A1.29,1.29,0,0,1,890.85,168.17Z"/><path class="cls-3" d="M893,166.67h.71v.78H893Zm.7,1.59v3.61H893v-3.61Z"/><path class="cls-3" d="M894.75,168.76h-.54v-.37l.23,0c.34-.07.41-.23.5-.58l.1-.5h.39v1h1v.5h-1V171c0,.32.13.47.45.47a1.37,1.37,0,0,0,.67-.22v.47a1.45,1.45,0,0,1-.92.3c-.51,0-.88-.24-.88-.94Z"/><path class="cls-3" d="M900.43,170.66a1.59,1.59,0,0,1-1.68,1.31,1.76,1.76,0,0,1-1.86-1.85,1.83,1.83,0,0,1,1.82-2,1.66,1.66,0,0,1,1.74,1.79v.28h-2.87a1.18,1.18,0,0,0,1.18,1.19,1,1,0,0,0,1.1-.84Zm-.68-.87a1,1,0,0,0-1-1.1,1.16,1.16,0,0,0-1.12,1.1Z"/><path class="cls-3" d="M903.89,171.12a1.34,1.34,0,0,1-1.3.85,1.92,1.92,0,0,1,0-3.8,1.36,1.36,0,0,1,1.3.85v-2.35h.68v5.2h-.68Zm0-1.16a1.13,1.13,0,0,0-1.15-1.24c-.71,0-1.11.53-1.11,1.35s.4,1.36,1.11,1.36a1.15,1.15,0,0,0,1.15-1.26Z"/><path class="cls-3" d="M905.35,171.05h.82v.82h-.82Z"/></g></g></svg>