<?xml version="1.0" encoding="utf-8"?>
<!-- Generator: Adobe Illustrator 25.4.1, SVG Export Plug-In . SVG Version: 6.00 Build 0)  -->
<svg version="1.1" id="Layer_1" xmlns="http://www.w3.org/2000/svg" xmlns:xlink="http://www.w3.org/1999/xlink" x="0px" y="0px"
	 viewBox="0 0 171.2 17.3" style="enable-background:new 0 0 171.2 17.3;" xml:space="preserve">
<style type="text/css">
	.st0{fill:#221E1F;}
</style>
<g id="Layer_2_00000155848361483677176320000008410510964467686558_">
	<g id="Layer_1-2">
		<path class="st0" d="M12.9,3.8c2.7,0,3.5,1.9,3.5,3.9v6.1h-3.5V8.6c0-1.3-0.2-2-1.3-2S10,7.5,10,9v4.8H6.4V8.6c0-1.3-0.3-2-1.3-2
			S3.5,7.5,3.5,9v4.8H0V4h3.5v1.5c0.6-1.1,1.7-1.8,3-1.7c1.3-0.1,2.6,0.7,3,1.9C10.2,4.4,11.5,3.7,12.9,3.8z"/>
		<path class="st0" d="M23,14c-2.8,0.2-5.1-1.9-5.3-4.7c0-0.1,0-0.3,0-0.4c-0.1-2.8,2.1-5.1,4.9-5.1c0.1,0,0.3,0,0.4,0
			c2.8-0.2,5.1,1.9,5.3,4.7c0,0.2,0,0.3,0,0.5c0.1,2.8-2.1,5.1-4.9,5.1C23.3,14,23.2,14,23,14z M23,11.3c1.2,0,1.8-1,1.8-2.5
			S24.3,6.4,23,6.4s-1.8,1-1.8,2.5S21.8,11.4,23,11.3L23,11.3z"/>
		<path class="st0" d="M33.3,13.8h-3.5V4h3.5v1.5c0.6-1.1,1.9-1.8,3.2-1.7c2.7,0,3.5,1.9,3.5,3.9v6.1h-3.6V8.6c0-1.3-0.4-2-1.4-2
			s-1.7,1-1.7,2.4V13.8z"/>
		<path class="st0" d="M51.5,10.5C51,12.8,49.2,14,46.6,14c-3.1,0-5.3-1.9-5.3-5c-0.1-2.8,2.1-5.2,5-5.3c0.1,0,0.2,0,0.3,0
			c2.6-0.2,4.8,1.7,5,4.3c0,0.2,0,0.4,0,0.6v1h-6.9c0,1,0.9,1.8,1.9,1.8c0,0,0.1,0,0.1,0c0.8,0.1,1.6-0.3,1.9-1.1L51.5,10.5z
			 M48.2,7.9c0-0.9-0.7-1.6-1.6-1.6c0,0-0.1,0-0.1,0c-0.9-0.1-1.7,0.6-1.8,1.6c0,0,0,0,0,0.1H48.2z"/>
		<path class="st0" d="M54.6,17.3l1.4-3.4L52,4h3.7l2.2,5.7H58L60.2,4h3.5L58,17.3H54.6z"/>
		<path class="st0" d="M78.5,9.5L78.5,9.5L80.3,4h3.2l-3.1,9.8H77l-1.4-5.5h-0.1l-1.4,5.5h-3.5L67.5,4H71l1.8,5.5h0.1L74.3,4h2.8
			L78.5,9.5z"/>
		<path class="st0" d="M84.4,0H88v3.1h-3.6V0z M88,4v9.8h-3.6V4H88z"/>
		<path class="st0" d="M90.3,6.5H89V4.3l0.7-0.1C90.7,4,91,3.5,91.2,2.6l0.3-1.3h2.2V4h2.5v2.5h-2.5V10c0,0.8,0.4,1.2,1.1,1.2
			c0.5,0,1-0.1,1.5-0.3v2.3c-0.8,0.6-1.9,0.9-2.9,0.9c-1.6,0-3.2-0.7-3.2-3L90.3,6.5z"/>
		<path class="st0" d="M101.3,13.8h-3.5V0h3.5v5.5c0.6-1.1,1.9-1.8,3.2-1.7c2.7,0,3.5,1.9,3.5,3.9v6.1h-3.5V8.6c0-1.3-0.4-2-1.4-2
			s-1.7,1-1.7,2.4L101.3,13.8z"/>
		<path class="st0" d="M126.6,3.8c2.7,0,3.5,1.9,3.5,3.9v6.1h-3.5V8.6c0-1.3-0.2-2-1.3-2s-1.6,1-1.6,2.4v4.8h-3.5V8.6
			c0-1.3-0.3-2-1.3-2s-1.6,1-1.6,2.4v4.8h-3.5V4h3.5v1.5c0.6-1.1,1.7-1.8,3-1.7c1.3-0.1,2.6,0.7,3,1.9
			C123.9,4.4,125.2,3.7,126.6,3.8z"/>
		<path class="st0" d="M141,10.9c0,0.5,0.2,0.7,0.6,0.7c0.3,0,0.5,0,0.8-0.1v1.9c-0.6,0.4-1.4,0.7-2.2,0.6c-1.1,0.1-2.1-0.6-2.5-1.7
			c-0.6,1.2-1.9,1.8-3.2,1.7c-1.9,0-3.1-1-3.1-2.6c0-1.9,1.4-2.7,3.5-3.1l2.7-0.5V7.7c0-0.8-0.4-1.3-1.2-1.3c-0.7,0-1.3,0.5-1.3,1.2
			l-3.3-0.2c0.3-2.2,1.9-3.6,4.8-3.6c2.6,0,4.5,1.1,4.5,3.8L141,10.9z M137.5,9.5l-1.4,0.3c-0.9,0.2-1.4,0.4-1.4,1.1s0.4,0.8,1,0.8
			c1,0,1.8-0.8,1.8-1.8c0-0.1,0-0.1,0-0.2L137.5,9.5z"/>
		<path class="st0" d="M143.8,6.5h-1.3V4.3l0.7-0.1c1-0.2,1.3-0.7,1.5-1.6l0.3-1.3h2.2V4h2.5v2.5h-2.5V10c0,0.8,0.4,1.2,1.1,1.2
			c0.5,0,1-0.1,1.5-0.3v2.3c-0.8,0.6-1.9,0.9-2.9,0.9c-1.6,0-3.2-0.7-3.2-3L143.8,6.5z"/>
		<path class="st0" d="M161,10.5c-0.5,2.2-2.3,3.5-4.9,3.5c-3.1,0-5.4-1.9-5.4-5c-0.1-2.8,2.1-5.2,5-5.3c0.1,0,0.2,0,0.3,0
			c2.6-0.2,4.8,1.7,5,4.3c0,0.2,0,0.4,0,0.6v1h-6.9c0,1,0.9,1.8,1.9,1.8c0,0,0.1,0,0.1,0c0.8,0.1,1.6-0.3,1.9-1.1L161,10.5z
			 M157.7,7.9c0-0.9-0.7-1.6-1.6-1.6c0,0-0.1,0-0.1,0c-0.9-0.1-1.7,0.6-1.8,1.5c0,0,0,0,0,0.1H157.7z"/>
		<path class="st0" d="M164.9,10.5c0.1,0.8,0.8,1.3,1.9,1.3c0.8,0,1.2-0.3,1.2-0.7s-0.2-0.6-0.9-0.7l-1.4-0.2
			C163.2,9.8,162,9,162,7.1s1.7-3.3,4.4-3.3s4.5,1.2,4.7,3.2l-2.9,0.1C168,6.4,167.4,6,166.3,6c-0.7,0-1.1,0.3-1.1,0.7
			s0.3,0.5,0.6,0.5l1.9,0.3c2.2,0.3,3.4,1.3,3.4,3.2c0,2.1-1.8,3.2-4.5,3.2s-4.7-1-4.9-3.4L164.9,10.5z"/>
	</g>
</g>
</svg>
