<svg id="Layer_1" data-name="Layer 1" xmlns="http://www.w3.org/2000/svg" viewBox="0 0 320 50"><defs><style>.cls-1{fill:#fff;}</style></defs><path class="cls-1" d="M17.61,29.94l-1.2-1.33a3.36,3.36,0,0,1-1.33.27,3.11,3.11,0,0,1-1.73-.49A3,3,0,0,1,12.21,27a4.93,4.93,0,0,1-.4-2.07,4.87,4.87,0,0,1,.42-2.11A3,3,0,0,1,15.08,21,3,3,0,0,1,18,22.87a5.11,5.11,0,0,1,.4,2.08,5.39,5.39,0,0,1-.28,1.77A3.29,3.29,0,0,1,17.29,28l1.12,1.21Zm-4.06-2.83a2,2,0,0,0,3.09,0A3.68,3.68,0,0,0,17.19,25a3.52,3.52,0,0,0-.58-2.16,1.84,1.84,0,0,0-1.53-.74,1.82,1.82,0,0,0-1.56.77A3.61,3.61,0,0,0,13,25,3.43,3.43,0,0,0,13.55,27.11Z"/><path class="cls-1" d="M19.75,21.13h1.1V26a1.65,1.65,0,0,0,1.85,1.9A1.66,1.66,0,0,0,24.55,26V21.13h1.1V26a3.19,3.19,0,0,1-.35,1.52,2.4,2.4,0,0,1-1,1,3.26,3.26,0,0,1-1.58.36,3.3,3.3,0,0,1-1.59-.36,2.38,2.38,0,0,1-1-1A3.08,3.08,0,0,1,19.75,26Z"/><path class="cls-1" d="M31,26.74h-2.8l-.67,2H26.39L29,21.13h1.19l2.67,7.64H31.67Zm-.3-.92-1.1-3.38-1.11,3.38Z"/><path class="cls-1" d="M33.88,21.13H35v6.62H38.2v1H33.88Z"/><path class="cls-1" d="M39.35,28.77V21.13h1.1v7.64Z"/><path class="cls-1" d="M47.07,22.1h-2.2v6.67H43.78V22.1h-2.2v-1h5.49Z"/><path class="cls-1" d="M48.48,21.13l1.83,3.59,1.78-3.59h1.29l-2.53,4.71v2.93H49.74V25.84l-2.53-4.71Z"/><path class="cls-1" d="M63.34,21.13v7.64H62.27V26.39c0-1.52,0-2.58.1-3.2l-1.95,5.52h-1l-1.94-5.52c.06.71.09,1.78.09,3.2v2.38H56.48V21.13h1.2l2.23,6.3,2.24-6.3Z"/><path class="cls-1" d="M69,26.74H66.23l-.67,2H64.4L67,21.13h1.2l2.66,7.64h-1.2Zm-.29-.92-1.1-3.38-1.11,3.38Z"/><path class="cls-1" d="M75.83,22.1H73.62v6.67H72.54V22.1h-2.2v-1h5.49Z"/><path class="cls-1" d="M81.84,22.1H79.63v6.67H78.54V22.1H76.35v-1h5.49Z"/><path class="cls-1" d="M83,21.13h5v1H84.06v2.34h2.83v1H84.06v2.34h3.87v1H83Z"/><path class="cls-1" d="M95.07,28.77h-1.2L92.5,25.86h-2v2.91h-1.1V21.13h3a3.08,3.08,0,0,1,1.5.33,2.14,2.14,0,0,1,.89.87,2.53,2.53,0,0,1,.28,1.2,2.39,2.39,0,0,1-.37,1.34,2.06,2.06,0,0,1-1.09.84Zm-1.54-4.21a1.35,1.35,0,0,0,.39-1,1.31,1.31,0,0,0-.41-1.05,1.71,1.71,0,0,0-1.16-.36H90.51v2.8h1.84A1.7,1.7,0,0,0,93.53,24.56Z"/><path class="cls-1" d="M97.07,26.42a1.38,1.38,0,0,0,.45,1.12,2,2,0,0,0,1.29.38,1.79,1.79,0,0,0,1.11-.32,1.15,1.15,0,0,0,.15-1.63,1.9,1.9,0,0,0-.83-.42l-1.09-.3c-1.32-.36-2-1.05-2-2.07a2,2,0,0,1,.31-1.12,2,2,0,0,1,.89-.76A3.25,3.25,0,0,1,98.75,21a2.93,2.93,0,0,1,1.9.59,2.06,2.06,0,0,1,.73,1.64H100.3a1.22,1.22,0,0,0-.44-.94A1.7,1.7,0,0,0,98.74,22a1.59,1.59,0,0,0-1,.3,1,1,0,0,0-.37.82.88.88,0,0,0,.29.69,2.52,2.52,0,0,0,.93.43l1.08.29a2.76,2.76,0,0,1,1.44.82,2.09,2.09,0,0,1,.44,1.35,1.94,1.94,0,0,1-.36,1.15,2.21,2.21,0,0,1-1,.77,3.79,3.79,0,0,1-2.93,0,2.15,2.15,0,0,1-1-.86A2.5,2.5,0,0,1,96,26.42Z"/></svg>