<svg id="Layer_1" data-name="Layer 1" xmlns="http://www.w3.org/2000/svg" viewBox="0 0 320 50"><defs><style>.cls-1{fill:#007cc3;}.cls-2{fill:#bcbec0;}.cls-3{fill:#00285e;}</style></defs><path class="cls-1" d="M272.37,25.23h2.9l3.7,8.82h-3.18l-.47-1.18h-3.06l-.45,1.18h-3.13Zm2.23,5.57-.8-2.13L273,30.8Z"/><path class="cls-1" d="M288.39,25.29h2.93v8.76h-2.93Z"/><path class="cls-1" d="M295.62,25.23h2.91l3.69,8.82H299l-.46-1.18h-3.07l-.45,1.18h-3.13Zm2.23,5.57-.8-2.13-.8,2.13Z"/><polygon class="cls-1" points="309.88 31.55 305.71 31.55 305.71 25.29 302.79 25.29 302.79 34.05 308.89 34.05 309.88 31.55"/><path class="cls-1" d="M279.15,32.74l1.56-1.87a5,5,0,0,0,3.07,1c.52,0,.75-.14.75-.38v0c0-.25-.28-.39-1.21-.58-2-.4-3.7-1-3.7-2.81v0c0-1.66,1.31-2.95,3.72-2.95a6.09,6.09,0,0,1,4,1.2l-1.43,2a4.56,4.56,0,0,0-2.63-.87c-.44,0-.64.15-.64.36v0c0,.24.24.39,1.17.56,2.24.42,3.74,1.07,3.74,2.83v0c0,1.84-1.52,3-3.87,3A6.78,6.78,0,0,1,279.15,32.74Z"/><path class="cls-2" d="M297.8,14.7c1.07,1.37,1.49,2.76,1,3.87-1,2.45-6,2.69-11,.54s-8.29-5.89-7.25-8.34a3.74,3.74,0,0,1,3.12-1.9c-2.48.06-4.35.85-5,2.35-1.22,2.86,2.54,7.21,8.41,9.71s11.6,2.21,12.82-.65C300.57,18.69,299.71,16.63,297.8,14.7Z"/><polygon class="cls-3" points="292.84 7.56 292.2 9.49 290.9 9.2 290.9 7.56 289.15 7.56 283.21 11.39 285.31 15.97 289.29 14.82 292.75 17.21 295.01 16.84 296.61 13.42 292.84 7.56"/><polygon class="cls-3" points="293.62 18.8 294.27 18.91 294.76 17.55 293.43 17.77 293.62 18.8"/><path class="cls-3" d="M271.12,39.09h-.53l-.12.4h-.37l.56-1.68H271l.58,1.68h-.38Zm-.08-.27-.18-.6-.19.6Z"/><path class="cls-3" d="M271.71,37.81h.34v1a.36.36,0,0,0,.09.26.33.33,0,0,0,.25.09.36.36,0,0,0,.26-.09.4.4,0,0,0,.08-.26v-1h.35v1a.69.69,0,0,1-.09.36.51.51,0,0,1-.24.22.8.8,0,0,1-.36.08.86.86,0,0,1-.36-.08.56.56,0,0,1-.24-.22.8.8,0,0,1-.08-.36Z"/><path class="cls-3" d="M273.63,39a.24.24,0,0,0,.08.19.33.33,0,0,0,.23.07.36.36,0,0,0,.19,0,.21.21,0,0,0,.07-.15.17.17,0,0,0-.05-.12.26.26,0,0,0-.14-.07l-.25-.07c-.29-.08-.43-.24-.43-.48a.46.46,0,0,1,.07-.26.51.51,0,0,1,.21-.17.7.7,0,0,1,.33-.07.64.64,0,0,1,.31.07.44.44,0,0,1,.21.17.47.47,0,0,1,.08.26h-.34a.21.21,0,0,0-.07-.15.32.32,0,0,0-.36,0,.16.16,0,0,0,0,.25.3.3,0,0,0,.15.07l.25.07a.56.56,0,0,1,.32.19.45.45,0,0,1,.1.31.5.5,0,0,1-.08.27.58.58,0,0,1-.23.17.83.83,0,0,1-.32.06.73.73,0,0,1-.35-.07.48.48,0,0,1-.23-.19.57.57,0,0,1-.08-.29Z"/><path class="cls-3" d="M275.93,38.11h-.45v1.38h-.35V38.11h-.46v-.3h1.26Z"/><path class="cls-3" d="M277.35,38.66a.48.48,0,0,1-.23.19l.3.64h-.37l-.26-.59h-.33v.59h-.34V37.81h.7a.67.67,0,0,1,.33.07.48.48,0,0,1,.21.19.54.54,0,0,1,.07.29A.48.48,0,0,1,277.35,38.66Zm-.36-.1a.26.26,0,0,0,.08-.19.23.23,0,0,0-.08-.19.36.36,0,0,0-.22-.06h-.31v.5h.31A.36.36,0,0,0,277,38.56Z"/><path class="cls-3" d="M278.57,39.09H278l-.13.4h-.36l.55-1.68h.39l.58,1.68h-.38Zm-.08-.27-.19-.6-.18.6Z"/><path class="cls-3" d="M279.23,37.81h.34v1.37h.7v.31h-1Z"/><path class="cls-3" d="M280.46,39.49V37.81h.34v1.68Z"/><path class="cls-3" d="M282,39.09h-.53l-.13.4H281l.56-1.68h.38l.58,1.68h-.38Zm-.08-.27-.19-.6-.18.6Z"/><path class="cls-3" d="M284,37.81v1.68h-.35l-.68-1.1v1.1h-.34V37.81H283l.68,1.1v-1.1Z"/><path class="cls-3" d="M285.41,39a.24.24,0,0,0,.08.19.33.33,0,0,0,.23.07.36.36,0,0,0,.19,0A.21.21,0,0,0,286,39a.17.17,0,0,0-.05-.12.26.26,0,0,0-.14-.07l-.25-.07c-.29-.08-.43-.24-.43-.48a.46.46,0,0,1,.07-.26.51.51,0,0,1,.21-.17.7.7,0,0,1,.33-.07.64.64,0,0,1,.31.07.44.44,0,0,1,.21.17.47.47,0,0,1,.08.26H286a.21.21,0,0,0-.07-.15.32.32,0,0,0-.36,0,.16.16,0,0,0-.07.14.21.21,0,0,0,0,.11.34.34,0,0,0,.16.07l.25.07a.56.56,0,0,1,.32.19.45.45,0,0,1,.1.31.5.5,0,0,1-.08.27.58.58,0,0,1-.23.17.88.88,0,0,1-.33.06.71.71,0,0,1-.34-.07.48.48,0,0,1-.23-.19.57.57,0,0,1-.08-.29Z"/><path class="cls-3" d="M286.6,37.81h1.12v.3H287v.4h.55v.28H287v.39h.77v.31H286.6Z"/><path class="cls-3" d="M287.94,38.18a.69.69,0,0,1,.27-.29.78.78,0,0,1,.41-.11.82.82,0,0,1,.35.08.59.59,0,0,1,.24.2.64.64,0,0,1,.11.31H289a.36.36,0,0,0-.11-.21.35.35,0,0,0-.23-.07.34.34,0,0,0-.3.15.75.75,0,0,0-.1.41.8.8,0,0,0,.1.41.36.36,0,0,0,.3.14.35.35,0,0,0,.23-.07.36.36,0,0,0,.11-.21h.37a.62.62,0,0,1-.36.52.94.94,0,0,1-.34.07.89.89,0,0,1-.41-.1.79.79,0,0,1-.27-.3,1.08,1.08,0,0,1-.09-.46A1.13,1.13,0,0,1,287.94,38.18Z"/><path class="cls-3" d="M289.52,37.81h.35v1a.36.36,0,0,0,.09.26.39.39,0,0,0,.5,0,.36.36,0,0,0,.09-.26v-1h.34v1a.68.68,0,0,1-.08.36.56.56,0,0,1-.24.22.85.85,0,0,1-.72,0,.56.56,0,0,1-.24-.22.69.69,0,0,1-.09-.36Z"/><path class="cls-3" d="M292.44,38.66a.48.48,0,0,1-.23.19l.3.64h-.37l-.26-.59h-.33v.59h-.34V37.81h.7a.67.67,0,0,1,.33.07.48.48,0,0,1,.21.19.54.54,0,0,1,.07.29A.48.48,0,0,1,292.44,38.66Zm-.36-.1a.26.26,0,0,0,.08-.19.23.23,0,0,0-.08-.19.36.36,0,0,0-.22-.06h-.31v.5h.31A.36.36,0,0,0,292.08,38.56Z"/><path class="cls-3" d="M292.77,39.49V37.81h.35v1.68Z"/><path class="cls-3" d="M294.56,38.11h-.45v1.38h-.35V38.11h-.46v-.3h1.26Z"/><path class="cls-3" d="M295.06,37.81l.35.68.34-.68h.41l-.57,1v.63h-.35v-.63l-.58-1Z"/><path class="cls-3" d="M297.12,39.49V37.81h.35v1.68Z"/><path class="cls-3" d="M299.17,37.81v1.68h-.35l-.68-1.1v1.1h-.34V37.81h.34l.68,1.1v-1.1Z"/><path class="cls-3" d="M299.5,37.81h.62a.93.93,0,0,1,.45.1.72.72,0,0,1,.3.3.87.87,0,0,1,.1.44.92.92,0,0,1-.1.44.76.76,0,0,1-.3.29.94.94,0,0,1-.45.11h-.62Zm.59,1.37a.52.52,0,0,0,.39-.14.57.57,0,0,0,.14-.4.5.5,0,0,0-.15-.39.52.52,0,0,0-.38-.14h-.24v1.07Z"/><path class="cls-3" d="M301.19,37.81h.35v1a.36.36,0,0,0,.09.26.39.39,0,0,0,.5,0,.36.36,0,0,0,.09-.26v-1h.34v1a.68.68,0,0,1-.08.36.56.56,0,0,1-.24.22.85.85,0,0,1-.72,0,.56.56,0,0,1-.24-.22.69.69,0,0,1-.09-.36Z"/><path class="cls-3" d="M303.12,39a.24.24,0,0,0,.08.19.31.31,0,0,0,.22.07.33.33,0,0,0,.19,0,.18.18,0,0,0,.07-.15.16.16,0,0,0,0-.12.31.31,0,0,0-.14-.07l-.26-.07c-.28-.08-.43-.24-.43-.48a.47.47,0,0,1,.08-.26.51.51,0,0,1,.21-.17.77.77,0,0,1,.64,0A.44.44,0,0,1,304,38a.46.46,0,0,1,.07.26h-.34a.18.18,0,0,0-.07-.15.27.27,0,0,0-.19-.06.31.31,0,0,0-.17,0,.18.18,0,0,0-.06.14.15.15,0,0,0,0,.11.35.35,0,0,0,.15.07l.25.07a.59.59,0,0,1,.33.19.5.5,0,0,1,.1.31.44.44,0,0,1-.09.27.54.54,0,0,1-.22.17.88.88,0,0,1-.33.06.78.78,0,0,1-.35-.07.46.46,0,0,1-.22-.19.57.57,0,0,1-.08-.29Z"/><path class="cls-3" d="M305.42,38.11H305v1.38h-.35V38.11h-.45v-.3h1.26Z"/><path class="cls-3" d="M306.84,38.66a.54.54,0,0,1-.23.19l.3.64h-.37l-.26-.59H306v.59h-.35V37.81h.7a.69.69,0,0,1,.34.07.48.48,0,0,1,.21.19.65.65,0,0,1,.07.29A.56.56,0,0,1,306.84,38.66Zm-.37-.1a.22.22,0,0,0,.08-.19.2.2,0,0,0-.08-.19.33.33,0,0,0-.21-.06H306v.5h.31A.33.33,0,0,0,306.47,38.56Z"/><path class="cls-3" d="M307.35,37.81l.35.68.33-.68h.42l-.57,1v.63h-.35v-.63l-.59-1Z"/><path class="cls-3" d="M278,42h-.53l-.12.4H277l.56-1.68H278l.58,1.68h-.38Zm-.08-.27-.18-.59-.19.59Z"/><path class="cls-3" d="M278.93,41.89a.26.26,0,0,0,.08.2.39.39,0,0,0,.23.06.29.29,0,0,0,.19,0,.16.16,0,0,0,.07-.14.17.17,0,0,0-.05-.13.37.37,0,0,0-.14-.07l-.25-.07c-.29-.08-.43-.24-.43-.47a.6.6,0,0,1,.07-.27.48.48,0,0,1,.22-.17.79.79,0,0,1,.32-.06.75.75,0,0,1,.31.06.51.51,0,0,1,.21.17.5.5,0,0,1,.08.27h-.34a.19.19,0,0,0-.07-.16.32.32,0,0,0-.36,0,.16.16,0,0,0-.07.14.14.14,0,0,0,.05.11.35.35,0,0,0,.15.07l.25.07a.58.58,0,0,1,.32.19.46.46,0,0,1,.1.31.5.5,0,0,1-.08.27.58.58,0,0,1-.23.17.79.79,0,0,1-.32.06.75.75,0,0,1-.35-.07.47.47,0,0,1-.3-.48Z"/><path class="cls-3" d="M280.37,41.89a.24.24,0,0,0,.09.2.34.34,0,0,0,.22.06.29.29,0,0,0,.19,0,.16.16,0,0,0,.07-.14.17.17,0,0,0-.05-.13.37.37,0,0,0-.14-.07l-.25-.07c-.29-.08-.43-.24-.43-.47a.5.5,0,0,1,.08-.27.45.45,0,0,1,.21-.17.79.79,0,0,1,.32-.06.75.75,0,0,1,.31.06.51.51,0,0,1,.21.17.5.5,0,0,1,.08.27h-.34a.19.19,0,0,0-.07-.16.32.32,0,0,0-.36,0,.19.19,0,0,0-.07.14.14.14,0,0,0,.05.11.35.35,0,0,0,.15.07l.25.07a.58.58,0,0,1,.32.19.46.46,0,0,1,.1.31.5.5,0,0,1-.08.27.51.51,0,0,1-.23.17.79.79,0,0,1-.32.06.75.75,0,0,1-.35-.07.46.46,0,0,1-.22-.19.47.47,0,0,1-.08-.29Z"/><path class="cls-3" d="M281.56,41.11a.76.76,0,0,1,.27-.29.73.73,0,0,1,.39-.1.77.77,0,0,1,.4.1.7.7,0,0,1,.26.3,1.11,1.11,0,0,1,0,.92.7.7,0,0,1-.26.3.77.77,0,0,1-.4.1.71.71,0,0,1-.39-.1.79.79,0,0,1-.27-.3,1.08,1.08,0,0,1-.09-.46A1.13,1.13,0,0,1,281.56,41.11Zm.38.88a.32.32,0,0,0,.28.15.33.33,0,0,0,.29-.15.71.71,0,0,0,.1-.41.67.67,0,0,0-.1-.41.34.34,0,0,0-.29-.15.32.32,0,0,0-.28.15.82.82,0,0,0,0,.82Z"/><path class="cls-3" d="M283.25,41.11a.63.63,0,0,1,.27-.29.77.77,0,0,1,.4-.1.78.78,0,0,1,.35.07.64.64,0,0,1,.25.21.72.72,0,0,1,.11.3h-.38a.27.27,0,0,0-.11-.2.33.33,0,0,0-.22-.08.32.32,0,0,0-.3.15.69.69,0,0,0-.1.41.71.71,0,0,0,.1.41.32.32,0,0,0,.3.15.36.36,0,0,0,.23-.08.3.3,0,0,0,.1-.21h.38a.65.65,0,0,1-.12.31.61.61,0,0,1-.24.21.78.78,0,0,1-.35.07.77.77,0,0,1-.4-.1.66.66,0,0,1-.27-.3,1,1,0,0,1-.1-.46A1,1,0,0,1,283.25,41.11Z"/><path class="cls-3" d="M284.86,42.42V40.74h.35v1.68Z"/><path class="cls-3" d="M286.4,42h-.53l-.12.4h-.36l.55-1.68h.39l.57,1.68h-.38Zm-.08-.27-.18-.59-.18.59Z"/><path class="cls-3" d="M288,41h-.46v1.38h-.35V41h-.45v-.3H288Z"/><path class="cls-3" d="M288.21,42.42V40.74h.35v1.68Z"/><path class="cls-3" d="M288.91,41.11a.76.76,0,0,1,.27-.29.71.71,0,0,1,.39-.1.77.77,0,0,1,.4.1.7.7,0,0,1,.26.3,1.11,1.11,0,0,1,0,.92.7.7,0,0,1-.26.3.77.77,0,0,1-.4.1.71.71,0,0,1-.39-.1.72.72,0,0,1-.27-.3,1.08,1.08,0,0,1-.09-.46A1.13,1.13,0,0,1,288.91,41.11Zm.38.88a.32.32,0,0,0,.28.15.34.34,0,0,0,.29-.15.71.71,0,0,0,.1-.41.67.67,0,0,0-.1-.41.34.34,0,0,0-.29-.15.32.32,0,0,0-.28.15.82.82,0,0,0,0,.82Z"/><path class="cls-3" d="M292,40.74v1.68h-.34l-.68-1.1v1.1h-.34V40.74h.34l.68,1.1v-1.1Z"/><path class="cls-3" d="M292.76,40.74h.34v1.37h.7v.31h-1Z"/><path class="cls-3" d="M294,42.42V40.74h.35v1.68Z"/><path class="cls-3" d="M296.3,40.74v1.68H296V42c0-.33,0-.57,0-.7l-.33,1.09h-.33L295,41.31a6.57,6.57,0,0,1,0,.7v.41h-.34V40.74h.43l.39,1.26.38-1.26Z"/><path class="cls-3" d="M296.63,42.42V40.74H297v1.68Z"/><path class="cls-3" d="M298.43,41H298v1.38h-.35V41h-.46v-.3h1.27Z"/><path class="cls-3" d="M298.61,40.74h1.12V41H299v.4h.55v.28H299v.4h.77v.3h-1.12Z"/><path class="cls-3" d="M300,40.74h.61a.93.93,0,0,1,.45.1.72.72,0,0,1,.3.3.93.93,0,0,1,0,.88.7.7,0,0,1-.3.29.94.94,0,0,1-.45.11H300Zm.58,1.38A.5.5,0,0,0,301,42a.52.52,0,0,0,.14-.39.57.57,0,0,0-.14-.4.56.56,0,0,0-.39-.14h-.24v1.08Z"/></svg>