<?xml version="1.0" encoding="UTF-8"?><svg id="Layer_2" xmlns="http://www.w3.org/2000/svg" viewBox="0 0 125.82 26.66"><defs><style>.cls-1{fill:#fff;}.cls-2{fill:#27346b;}</style></defs><g id="Layer_3"><g><rect class="cls-2" width="125.82" height="26.66"/><g><path class="cls-1" d="M14.06,20.07c-.57-.06-1.53-.08-2.88-.04-1.35,.04-2.34,.04-2.96,.02,0-.21,0-.57,.03-1.07s.02-.89,0-1.17c0-.07,0-.2-.03-.37-.02-.17-.02-.31,0-.41,0-.06,0-.18,.02-.36,.01-.18,.01-.31,0-.4,0-.1,0-.24-.03-.41-.02-.17-.03-.31-.03-.41,0-.08,.01-.31,.04-.71,0-.1,0-.24-.02-.41-.01-.17-.02-.31-.02-.41,0-.24,0-.58,0-1.03,0-.45,0-.78,0-.99,0-.11,0-.27,0-.48,0-.21,0-.36,0-.46,.03-.42,.04-.73,.04-.93-.03-1.38-.03-2.33,0-2.84,.17-.05,.37-.08,.58-.08s.46,0,.76,0c.29,.01,.49,.02,.59,.02v2.84c.01,.66,.02,1.65,.02,2.97,0,.4,0,.7,.02,.9,.01,.11,.02,.27,.02,.48v.46c.06,.4,.09,.78,.09,1.14,0,.15-.01,.41-.04,.78-.01,.17,0,.45,.02,.82,.04,.4,.06,.61,.07,.63,.08,.01,.55,.02,1.42,.02,1.28,0,2.04,.01,2.28,.04,.16,.73,.17,1.36,.02,1.87Z"/><path class="cls-1" d="M22.66,17.18c-.06,.22-.1,.41-.11,.56,0,.04,0,.08,0,.13,0,.05,0,.08,0,.09,0,.03-.01,.07-.04,.12-.02,.06-.04,.1-.06,.14-.12,.39-.35,.72-.69,.99-.04,.04-.08,.07-.12,.1-.04,.03-.09,.06-.15,.09-.06,.03-.1,.06-.12,.08-.17,.12-.31,.21-.41,.26-.2,.09-.5,.2-.91,.34l-.26,.06c-.29,.07-.56,.09-.82,.04l-.28-.06s-.09-.02-.15-.02h-.13c-.2-.05-.41-.15-.63-.3-.67-.4-1.15-.86-1.44-1.38-.21-.35-.32-.7-.34-1.05-.01-.05-.01-.11,0-.17,.01-.06,.01-.12,0-.17,0-.06,0-.12,0-.19,0-.06-.02-.13-.03-.21s-.02-.15-.02-.2c-.02-.06-.02-.22,0-.49,.03-.26,.04-.42,.04-.49,0-.07,0-.18,0-.32,0-.14,0-.24,0-.3,0-.04,0-.09,0-.17,0-.07,0-.13,0-.17-.02-.46-.03-.81-.02-1.05,.03-.5,.04-.87,.04-1.1-.03-.26-.02-.98,.02-2.17,0-.02,0-.06,0-.11s0-.08,0-.09c0-.41,.01-.66,.04-.75l.11-.35c.02-.1,.06-.2,.12-.29,.06-.09,.1-.16,.13-.21,.03-.04,.09-.11,.18-.2,.09-.09,.14-.15,.17-.19,.06-.07,.12-.14,.17-.19s.12-.1,.21-.15c.09-.05,.15-.08,.19-.1s.12-.06,.25-.11c.13-.06,.21-.09,.23-.1,.04-.01,.11-.04,.21-.09s.19-.09,.25-.11c.1-.04,.49-.1,1.16-.19,.34-.03,.61,0,.82,.09,.06,.01,.33,.13,.8,.35,.11,.06,.25,.16,.43,.28,.17,.1,.28,.17,.32,.22,.04,.04,.11,.15,.21,.34,.09,.14,.25,.5,.5,1.08,.06,.35,.1,.86,.1,1.54,0,.68,.02,1.09,.03,1.22,.02,.4,.03,.7,.02,.9-.01,.15-.01,.36,0,.63,.01,.27,.02,.45,.02,.52v.6c.06,.86,.06,1.66-.02,2.41Zm-2.02-5.42c0-.09,0-.23,0-.42,0-.19,0-.35,0-.46,0-.61,0-.94-.02-.99-.06-.21-.19-.4-.39-.58-.01,0-.03,0-.06,0-.03,0-.05-.01-.07-.02-.03,0-.04-.02-.06-.03l-.21-.13c-.15-.06-.28-.09-.39-.09-.26,0-.61,.08-1.04,.24l-.21,.22-.13,.15s-.03,.09-.05,.17c-.02,.07-.04,.14-.07,.19,.01,.25,0,1.08-.02,2.5-.03,1.37-.02,2.4,.02,3.08,.01,.19,.02,.44,.02,.77,0,.37,.01,.6,.04,.69,.09,.21,.14,.34,.15,.37,0,.05,0,.08,.02,.09,0,.01,0,.03,.03,.06,.02,.03,.03,.05,.03,.08,.04,.04,.09,.09,.15,.17,.06,.08,.12,.14,.17,.19s.11,.09,.17,.11c.11,.05,.34,.07,.67,.07,.4-.01,.72-.16,.97-.43,.03-.03,.04-.05,.06-.08,.01-.02,.02-.04,.04-.06l.15-.24c.09-.35,.11-.62,.07-.8,.04-.07,.06-.14,.06-.19,.06-.52,.07-1.06,.02-1.61l-.08-1.59c-.01-.3-.02-.78-.02-1.44Z"/><path class="cls-1" d="M30.23,19.9c-.27-.6-.63-1.44-1.06-2.52-.05-.1-.12-.26-.2-.49-.08-.23-.14-.38-.18-.46l-.21-.62c-.11-.26-.31-.7-.61-1.33-.29-.62-.51-1.13-.66-1.51,0-.05-.04-.16-.1-.32s-.12-.24-.16-.24c-.08-.01-.11,.06-.11,.22,0,.22,0,.34,.02,.35,0,.04,0,.15,0,.34,0,.19,0,.32,0,.39,.03,1.17,.04,2.1,.04,2.8,.04,.95,.06,1.44,.06,1.47,.01,.1,0,.25-.02,.45-.03,.2-.04,.34-.04,.41-.01,.04-.02,.11-.02,.22v.22c-.01,.06-.02,.09-.04,.09,.04,.05,.05,.12,.04,.22s-.01,.19,0,.28c-.57,.19-1.23,.19-1.98,.02-.03-.11-.03-.34,0-.68,.02-.34,.03-.58,.03-.7l-.06-.71v-2.02c0-.54,0-.94,.02-1.21,.01-.27,.02-.69,.02-1.24s0-.97,.02-1.24c.02-.52,.02-1.33,0-2.41-.03-1.08-.03-1.9,0-2.45,.82-.1,1.44-.12,1.87-.07,.05,.09,.11,.22,.18,.4s.12,.31,.16,.38l.35,.75s.09,.22,.21,.5c.11,.29,.21,.5,.28,.65,.1,.21,.16,.33,.17,.35,.01,.04,.08,.23,.21,.58,.14,.29,.33,.74,.58,1.37,.25,.63,.45,1.1,.6,1.41,.01,.03,.05,.1,.11,.22,.06,.12,.11,.22,.13,.3l.28,.5s.05,0,.08-.02c.03-.01,.06-.01,.08,0,.02-.1,.04-.26,.06-.48s.02-.38,.04-.48c.04-.29,.04-.7,.02-1.25-.01-.12-.02-.68-.02-1.66v-2.71c0-.5,.01-.77,.04-.82,.77-.1,1.4-.09,1.89,.02,0,.2,0,.61,.02,1.24,.01,.63,0,1.04-.02,1.24-.04,1-.06,2.44-.06,4.33-.01,.21,0,.51,0,.89s.03,.65,.03,.81c-.02,.2-.04,.34-.04,.43,.03,.31,.05,1.08,.08,2.31,0,.86,0,1.34,.02,1.46-.96,.07-1.66,.06-2.11-.04Z"/><path class="cls-1" d="M41.71,14.75s0,.04-.02,.08c-.01,.04-.02,.08-.02,.1-.01,.14,0,.34,.02,.62,.04,.29,.02,.76-.06,1.42-.01,.02,0,.04,.02,.05,.03,0,.04,.02,.04,.05-.01,.39-.11,.77-.3,1.16-.01,.06-.05,.12-.11,.19-.2,.41-.37,.68-.52,.8-.01,.03-.04,.04-.08,.06l-.02,.02s-.08,.07-.13,.13c-.05,.06-.09,.11-.13,.13-.15,.11-.3,.19-.47,.24-.16,.06-.51,.11-1.04,.13-1.93,.1-3.21,.13-3.83,.09-.1-.83-.11-2-.04-3.49,.01-.17,.01-.42,0-.75-.01-.32-.02-.57-.02-.73,0-.56,.01-.92,.04-1.08,0-.01-.01-.02-.04-.04-.03-.01-.03-.03-.02-.06-.03-.36-.03-.76,0-1.2,0-.12,0-.33-.02-.61-.01-.28-.02-.5-.02-.64,.02-.57,.04-.91,.04-1.01-.03-.44-.04-1.51-.04-3.21,.82-.05,2-.04,3.53,.04,.09,0,.21,.01,.35,.04,.15,.02,.25,.04,.3,.04,.04,.01,.2,.04,.49,.07h.11l.22,.11,.21,.11c.31,.16,.56,.33,.75,.5,.22,.24,.4,.6,.54,1.1,.03,.06,.09,.28,.19,.65,.04,.21,.04,.53,.02,.95,0,1,.02,1.65,.06,1.96-.01,.01-.02,.06-.02,.13-.01,.11-.01,.27,0,.49,.01,.21,.02,.35,.02,.41v.93Zm-2-.62c-.03-1.57-.03-2.63,0-3.17,.02-.46,.02-.76,0-.9-.09-.44-.28-.73-.58-.88-.25-.15-.55-.21-.9-.19l-.54,.04c-.34,0-.52,.02-.56,.07-.03,.03-.04,.08-.04,.15s0,.15,0,.21c0,.07,0,.13,0,.2-.01,.2-.02,.47,0,.8,0,.34,0,.6,0,.78-.02,.21-.04,.48-.04,.79v.57c0,.58,0,1.02,.02,1.31v.92c.01,.21,.02,.54,.02,.99v.93c.03,.37,.03,.67,.02,.88v.35s.02,0,.02,.03,0,.04,.02,.07c.09,.04,.23,.06,.43,.06,.46,.03,.81,.01,1.05-.04,.46-.09,.77-.24,.93-.47l.06-.28c.08-.22,.11-.46,.11-.71,.03-.15,.03-.29,0-.43-.01-.54-.02-1.23-.02-2.09Z"/><path class="cls-1" d="M50.28,17.18c-.06,.22-.1,.41-.11,.56,0,.04,0,.08,0,.13,0,.05,0,.08,0,.09,0,.03-.01,.07-.04,.12-.02,.06-.04,.1-.06,.14-.12,.39-.35,.72-.69,.99-.04,.04-.08,.07-.12,.1-.04,.03-.09,.06-.15,.09-.06,.03-.1,.06-.12,.08-.17,.12-.31,.21-.41,.26-.2,.09-.5,.2-.91,.34l-.26,.06c-.29,.07-.56,.09-.82,.04l-.28-.06s-.09-.02-.15-.02h-.13c-.2-.05-.41-.15-.63-.3-.67-.4-1.15-.86-1.44-1.38-.21-.35-.32-.7-.34-1.05-.01-.05-.01-.11,0-.17,.01-.06,.01-.12,0-.17,0-.06,0-.12,0-.19,0-.06-.02-.13-.03-.21s-.02-.15-.02-.2c-.02-.06-.02-.22,0-.49,.03-.26,.04-.42,.04-.49,0-.07,0-.18,0-.32,0-.14,0-.24,0-.3,0-.04,0-.09,0-.17,0-.07,0-.13,0-.17-.02-.46-.03-.81-.02-1.05,.03-.5,.04-.87,.04-1.1-.03-.26-.02-.98,.02-2.17,0-.02,0-.06,0-.11s0-.08,0-.09c0-.41,.01-.66,.04-.75l.11-.35c.02-.1,.06-.2,.12-.29,.06-.09,.1-.16,.13-.21,.03-.04,.09-.11,.18-.2,.09-.09,.14-.15,.17-.19,.06-.07,.12-.14,.17-.19s.12-.1,.21-.15c.09-.05,.15-.08,.19-.1s.12-.06,.25-.11c.13-.06,.21-.09,.23-.1,.04-.01,.11-.04,.21-.09s.19-.09,.25-.11c.1-.04,.49-.1,1.16-.19,.34-.03,.61,0,.82,.09,.06,.01,.33,.13,.8,.35,.11,.06,.25,.16,.43,.28,.17,.1,.28,.17,.32,.22,.04,.04,.11,.15,.21,.34,.09,.14,.25,.5,.5,1.08,.06,.35,.1,.86,.1,1.54,0,.68,.02,1.09,.03,1.22,.02,.4,.03,.7,.02,.9-.01,.15-.01,.36,0,.63,.01,.27,.02,.45,.02,.52v.6c.06,.86,.06,1.66-.02,2.41Zm-2.02-5.42c0-.09,0-.23,0-.42,0-.19,0-.35,0-.46,0-.61,0-.94-.02-.99-.06-.21-.19-.4-.39-.58-.01,0-.03,0-.06,0-.03,0-.05-.01-.07-.02-.03,0-.04-.02-.06-.03l-.21-.13c-.15-.06-.28-.09-.39-.09-.26,0-.61,.08-1.04,.24l-.21,.22-.13,.15s-.03,.09-.05,.17c-.02,.07-.04,.14-.07,.19,.01,.25,0,1.08-.02,2.5-.03,1.37-.02,2.4,.02,3.08,.01,.19,.02,.44,.02,.77,0,.37,.01,.6,.04,.69,.09,.21,.14,.34,.15,.37,0,.05,0,.08,.02,.09,0,.01,0,.03,.03,.06,.02,.03,.03,.05,.03,.08,.04,.04,.09,.09,.15,.17,.06,.08,.12,.14,.17,.19s.11,.09,.17,.11c.11,.05,.34,.07,.67,.07,.4-.01,.72-.16,.97-.43,.03-.03,.04-.05,.06-.08,.01-.02,.02-.04,.04-.06l.15-.24c.09-.35,.11-.62,.07-.8,.04-.07,.06-.14,.06-.19,.06-.52,.07-1.06,.02-1.61l-.08-1.59c-.01-.3-.02-.78-.02-1.44Z"/><path class="cls-1" d="M57.84,19.9c-.27-.6-.63-1.44-1.06-2.52-.05-.1-.12-.26-.2-.49-.08-.23-.14-.38-.18-.46l-.21-.62c-.11-.26-.31-.7-.61-1.33-.29-.62-.51-1.13-.66-1.51,0-.05-.04-.16-.1-.32s-.12-.24-.16-.24c-.08-.01-.11,.06-.11,.22,0,.22,0,.34,.02,.35,0,.04,0,.15,0,.34,0,.19,0,.32,0,.39,.03,1.17,.04,2.1,.04,2.8,.04,.95,.06,1.44,.06,1.47,.01,.1,0,.25-.02,.45-.03,.2-.04,.34-.04,.41-.01,.04-.02,.11-.02,.22v.22c-.01,.06-.02,.09-.04,.09,.04,.05,.05,.12,.04,.22s-.01,.19,0,.28c-.57,.19-1.23,.19-1.98,.02-.03-.11-.03-.34,0-.68,.02-.34,.03-.58,.03-.7l-.06-.71v-2.02c0-.54,0-.94,.02-1.21,.01-.27,.02-.69,.02-1.24s0-.97,.02-1.24c.02-.52,.02-1.33,0-2.41-.03-1.08-.03-1.9,0-2.45,.82-.1,1.44-.12,1.87-.07,.05,.09,.11,.22,.18,.4s.12,.31,.16,.38l.35,.75s.09,.22,.21,.5c.11,.29,.21,.5,.28,.65,.1,.21,.16,.33,.17,.35,.01,.04,.08,.23,.21,.58,.14,.29,.33,.74,.58,1.37,.25,.63,.45,1.1,.6,1.41,.01,.03,.05,.1,.11,.22,.06,.12,.11,.22,.13,.3l.28,.5s.05,0,.08-.02c.03-.01,.06-.01,.08,0,.02-.1,.04-.26,.06-.48s.02-.38,.04-.48c.04-.29,.04-.7,.02-1.25-.01-.12-.02-.68-.02-1.66v-2.71c0-.5,.01-.77,.04-.82,.77-.1,1.4-.09,1.89,.02,0,.2,0,.61,.02,1.24,.01,.63,0,1.04-.02,1.24-.04,1-.06,2.44-.06,4.33-.01,.21,0,.51,0,.89s.03,.65,.03,.81c-.02,.2-.04,.34-.04,.43,.03,.31,.05,1.08,.08,2.31,0,.86,0,1.34,.02,1.46-.96,.07-1.66,.06-2.11-.04Z"/><path class="cls-1" d="M68.95,17.59c-.04,.26-.15,.55-.34,.88-.11,.25-.21,.42-.3,.5-.09,.12-.28,.27-.58,.45-.06,.05-.16,.12-.3,.21-.14,.09-.24,.17-.3,.21-.04,.01-.18,.05-.42,.11-.24,.06-.43,.11-.57,.13-.06,.01-.39,0-.97-.04-.01,0-.07,0-.16,0-.09,0-.15,0-.16,0-.65-.06-1.13-.24-1.46-.52-.03,0-.04-.01-.04-.04l.02-.04s-.13-.08-.28-.21c-.04-.11-.06-.17-.08-.17h-.07s-.12-.14-.21-.28c-.29-.4-.46-.86-.5-1.38-.06-.92-.06-1.84,0-2.76,.01-.11,0-.28-.03-.5-.03-.22-.05-.36-.05-.39-.01-.35,0-.86,.02-1.53l.06-1.36c0-.66,.03-1.11,.08-1.34l.15-.6c.06-.24,.17-.47,.32-.71,.06-.06,.1-.09,.11-.09-.01-.04-.01-.08,0-.11,.04-.05,.19-.16,.45-.32,.05-.02,.13-.06,.24-.11,.11-.05,.19-.09,.24-.13,.02-.01,.12-.07,.3-.16,.17-.09,.3-.15,.39-.18,.16-.05,.47-.06,.93-.04h.34c.24,.01,.42,.03,.54,.06,.05,.01,.16,.03,.33,.05s.3,.05,.38,.08l.3,.09,.21,.19,.54,.5c.04,.05,.1,.14,.19,.26,.09,.12,.16,.23,.21,.32,.16,.27,.27,.62,.34,1.05,.02,.2,.04,.5,.04,.89v.72c-.85,.11-1.49,.11-1.94,0,.01-.31,.02-.59,.03-.85,0-.25-.03-.49-.12-.72-.09-.22-.22-.39-.41-.5-.2-.15-.47-.21-.82-.19-.52,.01-.93,.21-1.23,.6-.16,.32-.2,.96-.11,1.91,.01,.11,.01,.26,0,.46-.01,.19-.02,.33-.02,.4-.01,.12-.01,.3,0,.51s.02,.36,.02,.42c0,.11,0,.27-.02,.47s-.02,.34-.02,.43c0,.07,0,.16,0,.24,0,.09,0,.17,0,.24v.07s0,.04,0,.07c0,.03,0,.05,0,.07v.36c0,.19,.01,.35,.04,.46-.03,.09-.04,.24-.04,.46s0,.4-.02,.53c-.03,.21,0,.35,.08,.43,.01,.34,.17,.6,.49,.78,.05,.01,.19,.06,.43,.15,.31,.06,.66,.02,1.05-.11l.34-.19,.15-.09s.03-.07,.04-.12c.01-.06,.02-.1,.04-.12,.09-.15,.14-.26,.15-.34,.01-.02,.01-.05,0-.08-.01-.03-.02-.05-.02-.06l.07-.39c0-.09-.01-.33-.04-.73,.36-.15,1.03-.17,2-.06v.9c0,.51-.01,.82-.04,.92Z"/><path class="cls-1" d="M76.55,19.98c-.05-.24-.13-.58-.23-1.03-.11-.45-.18-.78-.21-.99-.1-.35-.15-.53-.15-.54-.32-.03-.8-.02-1.43,0s-1.05,.05-1.28,.05c-.04,.04-.1,.24-.19,.62l-.15,.65c-.04,.14-.08,.35-.14,.63s-.11,.5-.16,.63c-.73,.06-1.4,.07-2,.02,.06-.34,.16-.86,.28-1.58,.12-.72,.22-1.25,.3-1.62l.15-.6c.08-.29,.16-.72,.25-1.31,.09-.58,.18-1.03,.25-1.33l.17-.62,.11-.62c.04-.17,.17-.81,.39-1.92,.02-.1,.06-.24,.1-.41,.04-.17,.08-.33,.11-.48,.03-.14,.05-.27,.07-.38,.21-1.2,.35-1.88,.41-2.05,.62-.1,1.49-.1,2.6,0,.05,.31,.14,.76,.26,1.36l.07,.26s.02,.14,.06,.37c.04,.24,.09,.46,.17,.65,.05,.17,.15,.6,.3,1.27,.04,.14,.09,.39,.15,.77s.12,.67,.19,.87c.07,.24,.16,.61,.25,1.11,.09,.5,.17,.87,.23,1.11,.04,.15,.07,.37,.11,.66,.04,.29,.08,.51,.13,.66,.01,.06,.04,.17,.09,.31,.05,.14,.09,.25,.11,.33,.11,.49,.2,.93,.26,1.34l.08,.28s.02,.06,.02,.09v.09s0,.05,.03,.07c.02,.03,.03,.04,.03,.06v.19s.03,.11,.05,.18c.02,.07,.03,.12,.05,.17,.01,.04,.02,.09,.04,.14,.02,.2,.04,.35,.04,.45-.83,.06-1.49,.07-1.96,.04Zm-1.51-7.1s-.01-.09-.04-.17c-.03-.07-.04-.14-.06-.19l-.11-.39c-.08-.32-.14-.56-.19-.71v-.11s-.07-.02-.09-.06c-.03-.04-.06-.05-.11-.04-.02,.05-.05,.14-.07,.26-.02,.12-.03,.22-.05,.28l-.17,.77c-.02,.1-.05,.24-.08,.43s-.06,.36-.09,.51c-.03,.16-.07,.31-.1,.46l-.13,.52-.04,.26s-.04,.13-.1,.33-.09,.34-.07,.46c.08,.01,.72,0,1.94-.04,.02-.04,.02-.14,0-.3-.01-.05-.07-.37-.17-.95s-.19-1.03-.28-1.33Z"/><path class="cls-1" d="M86.5,20.07c-.57-.06-1.53-.08-2.88-.04-1.35,.04-2.34,.04-2.96,.02,0-.21,0-.57,.03-1.07s.02-.89,0-1.17c0-.07,0-.2-.03-.37-.02-.17-.02-.31,0-.41,0-.06,0-.18,.02-.36,.01-.18,.01-.31,0-.4,0-.1,0-.24-.03-.41-.02-.17-.03-.31-.03-.41,0-.08,.01-.31,.04-.71,0-.1,0-.24-.02-.41-.01-.17-.02-.31-.02-.41,0-.24,0-.58,0-1.03,0-.45,0-.78,0-.99,0-.11,0-.27,0-.48,0-.21,0-.36,0-.46,.03-.42,.04-.73,.04-.93-.03-1.38-.03-2.33,0-2.84,.17-.05,.37-.08,.58-.08s.46,0,.76,0c.29,.01,.49,.02,.59,.02v2.84c.01,.66,.02,1.65,.02,2.97,0,.4,0,.7,.02,.9,.01,.11,.02,.27,.02,.48v.46c.06,.4,.09,.78,.09,1.14,0,.15-.01,.41-.04,.78-.01,.17,0,.45,.02,.82,.04,.4,.06,.61,.07,.63,.08,.01,.55,.02,1.42,.02,1.28,0,2.04,.01,2.28,.04,.16,.73,.17,1.36,.02,1.87Z"/><path class="cls-1" d="M94.62,20.07c-.57-.06-1.53-.08-2.88-.04-1.35,.04-2.34,.04-2.96,.02,0-.21,0-.57,.03-1.07s.02-.89,0-1.17c0-.07,0-.2-.03-.37-.02-.17-.02-.31,0-.41,0-.06,0-.18,.02-.36,.01-.18,.01-.31,0-.4,0-.1,0-.24-.03-.41-.02-.17-.03-.31-.03-.41,0-.08,.01-.31,.04-.71,0-.1,0-.24-.02-.41-.01-.17-.02-.31-.02-.41,0-.24,0-.58,0-1.03,0-.45,0-.78,0-.99,0-.11,0-.27,0-.48,0-.21,0-.36,0-.46,.03-.42,.04-.73,.04-.93-.03-1.38-.03-2.33,0-2.84,.17-.05,.37-.08,.58-.08s.46,0,.76,0c.29,.01,.49,.02,.59,.02v2.84c.01,.66,.02,1.65,.02,2.97,0,.4,0,.7,.02,.9,.01,.11,.02,.27,.02,.48v.46c.06,.4,.09,.78,.09,1.14,0,.15-.01,.41-.04,.78-.01,.17,0,.45,.02,.82,.04,.4,.06,.61,.07,.63,.08,.01,.55,.02,1.42,.02,1.28,0,2.04,.01,2.28,.04,.16,.73,.17,1.36,.02,1.87Z"/><path class="cls-1" d="M96.98,7.23c.32-.04,.9-.06,1.72-.06,.01,0,.05,0,.11,0,.06,0,.1,0,.11,.03,.01,.32,.01,.83,0,1.51s0,1.23,0,1.62v2.37c0,.06,0,.15,.02,.27,.01,.12,.02,.22,.03,.31,0,.09,0,.17,0,.24,0,.01-.01,.03-.04,.06-.01,.01-.02,.03-.02,.06,0,.04,0,.1,0,.19,0,.09,0,.16,0,.21v1.08c-.01,.56,0,1.4,.05,2.51,.04,1.11,.05,1.95,.03,2.51-.05-.05-.13-.06-.24-.04-.1,0-.24,0-.42,.03-.18,.02-.3,.03-.35,.03-.1,0-.2,0-.31,0-.11,0-.23-.01-.36-.03-.14-.01-.25-.02-.34-.02,.01-.2,0-.5,0-.9s-.03-.68-.03-.86c0-.06,0-.16,.02-.3,.01-.14,.02-.24,.02-.32,0-.15,0-.46,.02-.93,.01-.47,0-.8-.02-.97-.02-.16-.04-.39-.04-.69v-.56c-.04-.88-.04-2.21-.02-4,.01-.17,.01-.42,0-.74s-.02-.53-.02-.62v-1.36c0-.06,0-.17,.02-.32s.02-.25,.02-.3Z"/><path class="cls-1" d="M106.93,19.9c-.27-.6-.63-1.44-1.06-2.52-.05-.1-.12-.26-.2-.49-.08-.23-.14-.38-.18-.46l-.21-.62c-.11-.26-.31-.7-.61-1.33-.29-.62-.51-1.13-.66-1.51,0-.05-.04-.16-.1-.32s-.12-.24-.16-.24c-.08-.01-.11,.06-.11,.22,0,.22,0,.34,.02,.35,0,.04,0,.15,0,.34,0,.19,0,.32,0,.39,.03,1.17,.04,2.1,.04,2.8,.04,.95,.06,1.44,.06,1.47,.01,.1,0,.25-.02,.45-.03,.2-.04,.34-.04,.41-.01,.04-.02,.11-.02,.22v.22c-.01,.06-.02,.09-.04,.09,.04,.05,.05,.12,.04,.22s-.01,.19,0,.28c-.57,.19-1.23,.19-1.98,.02-.03-.11-.03-.34,0-.68,.02-.34,.03-.58,.03-.7l-.06-.71v-2.02c0-.54,0-.94,.02-1.21,.01-.27,.02-.69,.02-1.24s0-.97,.02-1.24c.02-.52,.02-1.33,0-2.41-.03-1.08-.03-1.9,0-2.45,.82-.1,1.44-.12,1.87-.07,.05,.09,.11,.22,.18,.4s.12,.31,.16,.38l.35,.75s.09,.22,.21,.5c.11,.29,.21,.5,.28,.65,.1,.21,.16,.33,.17,.35,.01,.04,.08,.23,.21,.58,.14,.29,.33,.74,.58,1.37,.25,.63,.45,1.1,.6,1.41,.01,.03,.05,.1,.11,.22,.06,.12,.11,.22,.13,.3l.28,.5s.05,0,.08-.02c.03-.01,.06-.01,.08,0,.02-.1,.04-.26,.06-.48s.02-.38,.04-.48c.04-.29,.04-.7,.02-1.25-.01-.12-.02-.68-.02-1.66v-2.71c0-.5,.01-.77,.04-.82,.77-.1,1.4-.09,1.89,.02,0,.2,0,.61,.02,1.24,.01,.63,0,1.04-.02,1.24-.04,1-.06,2.44-.06,4.33-.01,.21,0,.51,0,.89s.03,.65,.03,.81c-.02,.2-.04,.34-.04,.43,.03,.31,.05,1.08,.08,2.31,0,.86,0,1.34,.02,1.46-.96,.07-1.66,.06-2.11-.04Z"/><path class="cls-1" d="M118.02,10.64c-.04,.37-.05,.58-.04,.62-.54,.04-1.2,.02-2-.06,.09-.66,.04-1.18-.15-1.57-.11-.25-.23-.41-.35-.49-.27-.21-.58-.28-.92-.21-.05,.01-.13,.04-.23,.08-.11,.04-.18,.07-.21,.08-.02,.01-.07,.03-.13,.06-.06,.02-.11,.04-.15,.06l-.21,.17c-.21,.15-.34,.36-.37,.63-.01,.16,0,.44,0,.82,.02,.39,.02,.67,0,.86-.03,.21-.03,.63,0,1.27,0,.05,0,.12-.02,.22-.01,.1-.02,.17-.02,.22,.02,.17,.04,.31,.04,.41,0,.05,0,.12,0,.21,0,.09,0,.17,0,.21-.03,1.11-.02,1.87,.02,2.3,.09,.56,.15,.88,.19,.97l.06,.15s.08,.11,.18,.18,.15,.12,.16,.14c.46,.12,.8,.16,1.03,.11,.27-.1,.51-.21,.71-.34l.13-.13c.27-.31,.38-.82,.32-1.51-.01-.07-.02-.26-.02-.55s-.03-.5-.09-.62c-.09,.02-.27,.03-.55,.03-.28,0-.46,0-.53,0-.06-.76-.03-1.35,.11-1.77h.99c.12-.01,.29,0,.5,0,.21,.02,.36,.03,.46,.03h.39c.42,0,.67,0,.73-.02,.03,.3,.02,.7-.02,1.21-.04,.51-.06,.87-.06,1.08,0,.25,.01,.61,.04,1.08,0,.51,0,.89,.02,1.14v.29c0,.11,0,.19,.02,.25,0,.05,.01,.09,.04,.11v.69s0,.11-.02,.21c-.01,.1-.02,.17-.02,.22,0,.22-.01,.37-.04,.43l.07,.06c-.16,.05-.37,.07-.62,.06-.07-.01-.17-.03-.29-.07-.12-.03-.2-.05-.23-.05l-.09-.39s-.03-.08-.04-.14c-.01-.06-.02-.1-.04-.14-.01-.04-.03-.06-.06-.06-.05-.01-.08,0-.1,.02-.02,.03-.04,.07-.05,.13-.06,.04-.1,.08-.11,.13l-.62,.28c-.26,.15-.49,.25-.69,.3-.15,.04-.4,.06-.75,.06-.3,.02-.55,.01-.75-.04-.06-.03-.13-.06-.21-.11-.04-.01-.09-.03-.17-.05-.08-.02-.14-.04-.2-.06s-.1-.04-.14-.07c-.12-.08-.32-.24-.58-.5-.04-.04-.16-.19-.35-.45-.35-.45-.54-.85-.58-1.21-.03-.05-.03-.16-.03-.32s0-.27,0-.32c0-.03,0-.06-.02-.09-.01-.04-.02-.06-.02-.07v-.48c0-.22,0-.38-.02-.49,0-.22,0-.39,.02-.5,0-.05,0-.12,0-.22,0-.1,0-.17,0-.21,0-1.79,0-2.81-.02-3.04-.05-.45-.07-.9-.06-1.36,.02-.72,.06-1.17,.11-1.34,.02-.08,.06-.12,.11-.13,0-.15,.09-.36,.26-.63,.2-.34,.43-.57,.69-.71,.05-.05,.14-.1,.26-.15,.12-.05,.22-.1,.28-.15,.09-.07,.27-.16,.56-.26,.57-.09,1.17-.12,1.79-.11,.09,.04,.21,.07,.35,.11,.15,.04,.25,.06,.3,.07,.15,.04,.3,.09,.47,.17,.22,.1,.45,.27,.67,.52l.21,.28c.15,.16,.3,.45,.45,.86,.22,.55,.31,1.08,.26,1.59Z"/></g></g></g></svg>