<?xml version="1.0" encoding="UTF-8"?><svg id="Layer_2" xmlns="http://www.w3.org/2000/svg" viewBox="0 0 52.71 7.45"><defs><style>.cls-1{fill:#27346b;}</style></defs><g id="Layer_3"><g><path class="cls-1" d="M0,.2H1.91V4.33c0,.81,.55,1.36,1.31,1.36s1.31-.55,1.31-1.36V.2h1.91V4.33c0,1.81-1.32,3.12-3.22,3.12S0,6.14,0,4.33V.2Z"/><path class="cls-1" d="M8.6,5.04c.12,.14,.26,.27,.41,.38,.27,.19,.64,.37,1.1,.37,.6,0,.91-.29,.91-.6,0-.96-3.32-.55-3.32-3.02,0-1.11,1.01-2.17,2.67-2.17,.86,0,1.47,.25,1.87,.5,.23,.15,.43,.31,.59,.5l-1.11,1.21c-.09-.1-.19-.19-.31-.27-.2-.15-.49-.28-.85-.28-.56,0-.81,.25-.81,.5,0,.96,3.32,.55,3.32,3.02,0,1.21-1.05,2.27-2.77,2.27-.97,0-1.65-.29-2.12-.6-.27-.17-.5-.37-.69-.6l1.11-1.21Z"/><path class="cls-1" d="M14.31,.2h5.39V1.91h-3.47v1.01h2.67v1.61h-2.67v1.01h3.58v1.71h-5.49V.2Z"/><path class="cls-1" d="M29.82,6.09c-.22,.25-.48,.48-.79,.68-.51,.35-1.28,.67-2.29,.67-2.26,0-3.93-1.66-3.93-3.73s1.67-3.73,3.93-3.73c1.01,0,1.75,.33,2.27,.68,.29,.2,.54,.42,.75,.67l-1.16,1.31c-.15-.17-.32-.32-.51-.45-.33-.23-.79-.45-1.35-.45-1.11,0-1.96,.87-1.96,1.96s.86,1.96,1.96,1.96c.56,0,1.02-.22,1.37-.45,.2-.13,.38-.28,.54-.45l1.16,1.31Z"/><path class="cls-1" d="M34.27,0c2.26,0,3.93,1.66,3.93,3.73s-1.67,3.73-3.93,3.73-3.93-1.66-3.93-3.73,1.67-3.73,3.93-3.73Zm0,5.69c1.1,0,1.96-.86,1.96-1.96s-.87-1.96-1.96-1.96-1.96,.87-1.96,1.96,.86,1.96,1.96,1.96Z"/><path class="cls-1" d="M39.49,.2h2.62c2.27,0,3.83,1.56,3.83,3.53s-1.56,3.52-3.83,3.52h-2.62V.2Zm2.62,5.34c1.1,0,1.86-.77,1.86-1.81s-.77-1.81-1.86-1.81h-.71v3.63h.71Z"/><path class="cls-1" d="M47.22,.2h5.39V1.91h-3.47v1.01h2.67v1.61h-2.67v1.01h3.58v1.71h-5.49V.2Z"/></g></g></svg>