<svg id="Layer_1" data-name="Layer 1" xmlns="http://www.w3.org/2000/svg" xmlns:xlink="http://www.w3.org/1999/xlink" viewBox="0 0 300 250"><defs><style>.cls-1{fill:none;}.cls-2{clip-path:url(#clip-path);}.cls-3{fill:#fff;}</style><clipPath id="clip-path"><rect class="cls-1" width="300" height="250"/></clipPath></defs><g class="cls-2"><g class="cls-2"><path class="cls-3" d="M64.29,28.73c-.46,0-.87-.08-1.37-.08-1.45,0-2.06.38-2.06,1.72v.38h3.39v5.86H60.86V50.86H53.63V36.61H51.19V30.75h2.44V30c0-4.38,2.25-6.81,8.15-6.81a17.24,17.24,0,0,1,2.51.19Z"/><path class="cls-3" d="M75.34,51.31C69.2,51.31,65,47.05,65,40.8S69.2,30.29,75.34,30.29,85.66,34.55,85.66,40.8,81.47,51.31,75.34,51.31Zm0-5.82c1.94,0,3.19-1.57,3.19-4.69s-1.25-4.68-3.19-4.68-3.24,1.6-3.24,4.68S73.35,45.49,75.34,45.49Z"/><path class="cls-3" d="M101.38,37.53a9.9,9.9,0,0,0-1.82-.16c-2.48,0-4.46,1.41-4.46,4.12v9.37H87.86V30.75H95.1v2.36a5.87,5.87,0,0,1,5-2.48,11.86,11.86,0,0,1,1.33.08Z"/><path class="cls-3" d="M130.52,50.86h-7.24V49a7.18,7.18,0,0,1-5.37,2.32c-4,0-6.85-2.85-6.85-7.27V30.75h7.23V42.29c0,1.63.73,2.78,2.36,2.78a2.6,2.6,0,0,0,2.63-2.9V30.75h7.24Z"/><path class="cls-3" d="M134.86,43.62a12.61,12.61,0,0,0,7,2.47c1.37,0,2.36-.34,2.36-1.14,0-1-1-1.06-4.3-1.64s-6.89-1.52-6.89-5.94,4-7.08,9.14-7.08A13.93,13.93,0,0,1,151,33.11l-3,4.42a9.37,9.37,0,0,0-5.68-2.1c-1.18,0-2,.34-2,1.07s1,1,3.39,1.41c3.81.68,7.66,1.67,7.66,6.2,0,4.69-4.35,7.16-9.87,7.16-3.31,0-7.39-1-9.37-2.74Z"/><path class="cls-3" d="M53.59,74.61H51.15V68.75h2.44V63.41h7.12v5.34h3.73v5.86H60.71v6.44c0,1.6.76,1.94,2.21,1.94a12.91,12.91,0,0,0,1.64-.11v5.86a23.73,23.73,0,0,1-4,.31c-4.72,0-7-1.68-7-5.83Z"/><path class="cls-3" d="M76.06,89.31c-6.13,0-10.36-4.26-10.36-10.51s4.23-10.51,10.36-10.51S86.38,72.55,86.38,78.8,82.19,89.31,76.06,89.31Zm0-5.82c1.94,0,3.2-1.57,3.2-4.69s-1.26-4.68-3.2-4.68-3.24,1.6-3.24,4.68S74.08,83.49,76.06,83.49Z"/><path class="cls-3" d="M97.92,89.31c-6.13,0-10.36-4.26-10.36-10.51s4.23-10.51,10.36-10.51,10.32,4.26,10.32,10.51S104.05,89.31,97.92,89.31Zm0-5.82c1.94,0,3.2-1.57,3.2-4.69s-1.26-4.68-3.2-4.68-3.24,1.6-3.24,4.68S95.94,83.49,97.92,83.49Z"/></g></g></svg>