<svg id="design" xmlns="http://www.w3.org/2000/svg" xmlns:xlink="http://www.w3.org/1999/xlink" viewBox="0 0 2400 2000"><defs><style>.cls-1{fill:url(#linear-gradient);}</style><linearGradient id="linear-gradient" x1="239.26" y1="1216.05" x2="541.23" y2="730.21" gradientTransform="translate(-22.13 -1.18) rotate(-1.19)" gradientUnits="userSpaceOnUse"><stop offset="0" stop-color="#0664a6"/><stop offset="1" stop-color="#72e1e2"/></linearGradient></defs><title>s3_elem6</title><g id="slide3"><path class="cls-1" d="M262.64,1062.68c10.35,28.33,29.95,50.41,61.49,57.92,28.19,6.72,58.18-2.59,82.43-18.32,11.35-7.37,22-16.42,28.47-28.31,5.78-10.67,7.79-22.91,11.45-34.47a123.59,123.59,0,0,1,40.15-58.63c14.91-12,32.44-20.33,47.81-31.73S563.56,922,565.75,903c1.57-13.66-3.1-27.51-10.51-39.14-17.87-28.06-50.91-44-84-47.45s-66.33,4.34-97.67,15.3c-30.25,10.57-60.4,24.9-81.11,49.3C259.07,920.34,241.45,1004.65,262.64,1062.68Z"/></g></svg>