<svg id="Layer_1" data-name="Layer 1" xmlns="http://www.w3.org/2000/svg" xmlns:xlink="http://www.w3.org/1999/xlink" viewBox="0 0 728 90"><defs><style>.cls-1{fill:none;}.cls-2{clip-path:url(#clip-path);}</style><clipPath id="clip-path"><rect class="cls-1" width="728" height="90"/></clipPath></defs><g class="cls-2"><path d="M68,55.58V28.87H88.22V34.8h-13v5.13H85v5.86H75.24v9.79Z"/><path d="M104.16,43.37a6.12,6.12,0,0,0-3.26-.81c-2.55,0-4.12,1.19-4.12,4.37v8.65H89.91V36.67h6.87V40A5.5,5.5,0,0,1,102,36.16a4.56,4.56,0,0,1,2.63.72Z"/><path d="M106.66,28.87h7v6h-7Zm6.91,7.8V55.58H106.7V36.67Z"/><path d="M136.13,49.35c-1,4.32-4.45,6.74-9.46,6.74-6.06,0-10.38-3.65-10.38-9.67a10,10,0,0,1,10.3-10.26c6.32,0,9.67,4.33,9.67,9.46v1.9H123c.17,2.34,1.86,3.44,3.94,3.44,1.86,0,3-.64,3.69-2.12Zm-6.4-5.13a3.1,3.1,0,0,0-3.23-3.14,3.23,3.23,0,0,0-3.43,3.14Z"/><path d="M145.92,55.58h-6.87V36.67h6.87v2.84A6.48,6.48,0,0,1,152,36.16c5.17,0,6.83,3.6,6.83,7.55V55.58H152v-10c0-2.59-.72-3.94-2.8-3.94-2.33,0-3.27,1.86-3.27,4.7Z"/><path d="M175.94,52.36c-.89,2.2-3.05,3.73-6.19,3.73-5.6,0-8.39-4.37-8.39-10s2.79-10,8.39-10c3.14,0,5.3,1.53,6.19,3.77V28.87h6.87V55.58h-6.87Zm0-6.36c0-2.72-1.48-4.5-3.77-4.5-2.71,0-3.9,1.91-3.9,4.62s1.19,4.67,3.9,4.67c2.29,0,3.77-1.78,3.77-4.54Z"/></g></svg>