<svg id="Layer_1" data-name="Layer 1" xmlns="http://www.w3.org/2000/svg" xmlns:xlink="http://www.w3.org/1999/xlink" viewBox="0 0 728 90"><defs><style>.cls-1{fill:none;}.cls-2{clip-path:url(#clip-path);}.cls-3{fill:#eab8b9;}</style><clipPath id="clip-path"><rect class="cls-1" width="728" height="90"/></clipPath></defs><g class="cls-2"><g class="cls-2"><path class="cls-3" d="M591.09,73.87a2.81,2.81,0,0,1-.21-1.13.91.91,0,0,0-1-1h-1.47v2.1h-.7v-5.2h2.11c1.32,0,2,.61,2,1.53a1.24,1.24,0,0,1-1.18,1.3,1.12,1.12,0,0,1,1,1.12c.07.76.09,1.06.26,1.25Zm-1.33-2.67c.89,0,1.28-.33,1.28-1s-.39-1-1.28-1h-1.37v2Z"/><path class="cls-3" d="M595.9,72.66A1.6,1.6,0,0,1,594.22,74a1.77,1.77,0,0,1-1.86-1.85,1.84,1.84,0,0,1,1.82-2,1.67,1.67,0,0,1,1.74,1.8v.27h-2.87a1.18,1.18,0,0,0,1.18,1.2,1,1,0,0,0,1.1-.84Zm-.68-.87a1,1,0,0,0-1-1.11,1.16,1.16,0,0,0-1.12,1.11Z"/><path class="cls-3" d="M599.36,73.12a1.36,1.36,0,0,1-1.3.85,1.92,1.92,0,0,1,0-3.81,1.36,1.36,0,0,1,1.3.86V68.67H600v5.2h-.68Zm0-1.16a1.13,1.13,0,0,0-1.15-1.24c-.71,0-1.11.52-1.11,1.35s.4,1.35,1.11,1.35a1.14,1.14,0,0,0,1.15-1.25Z"/><path class="cls-3" d="M604.7,73.87h-2.21v-5.2h2.12c1.29,0,1.82.56,1.82,1.39a1.12,1.12,0,0,1-1,1.11,1.25,1.25,0,0,1,1.13,1.27C606.58,73.34,605.92,73.87,604.7,73.87Zm-1.51-3h1.45c.75,0,1.07-.32,1.07-.82s-.32-.84-1.07-.84h-1.45Zm0,.56v1.81h1.5c.77,0,1.18-.34,1.18-.9s-.41-.91-1.18-.91Z"/><path class="cls-3" d="M607.32,68.67H608v.77h-.71Zm.7,1.59v3.61h-.69V70.26Z"/><path class="cls-3" d="M611.11,71a1,1,0,0,0-.57-.15c-.51,0-.9.47-.9,1.16v1.91H609V70.26h.69V71a1.12,1.12,0,0,1,1-.84.73.73,0,0,1,.51.17Z"/><path class="cls-3" d="M614.3,73.12A1.36,1.36,0,0,1,613,74a1.92,1.92,0,0,1,0-3.81,1.36,1.36,0,0,1,1.3.86V68.67H615v5.2h-.68Zm0-1.16a1.13,1.13,0,0,0-1.15-1.24c-.71,0-1.11.52-1.11,1.35s.4,1.35,1.11,1.35a1.14,1.14,0,0,0,1.15-1.25Z"/><path class="cls-3" d="M619.12,73.87,617,68.67h.73L619.52,73h0l1.71-4.37H622l-2.1,5.2Z"/><path class="cls-3" d="M625.44,72.66A1.61,1.61,0,0,1,623.75,74a1.76,1.76,0,0,1-1.85-1.85,1.84,1.84,0,0,1,1.82-2,1.66,1.66,0,0,1,1.73,1.8v.27h-2.87a1.19,1.19,0,0,0,1.18,1.2,1,1,0,0,0,1.11-.84Zm-.69-.87a1,1,0,0,0-1-1.11,1.16,1.16,0,0,0-1.12,1.11Z"/><path class="cls-3" d="M626.85,73.87h-.69V70.26h.69v.65a1.27,1.27,0,0,1,1.19-.75c.94,0,1.32.63,1.32,1.47v2.24h-.68V71.69c0-.6-.29-1-.86-1a1,1,0,0,0-1,1.09Z"/><path class="cls-3" d="M630.38,70.76h-.55v-.37l.23,0c.34-.06.42-.23.5-.57l.11-.51h.38v1h1v.5h-1v2.18c0,.33.14.48.45.48a1.44,1.44,0,0,0,.68-.22v.46a1.43,1.43,0,0,1-.93.31c-.51,0-.87-.24-.87-.94Z"/><path class="cls-3" d="M635.21,70.26h.68v3.61h-.68v-.64A1.27,1.27,0,0,1,634,74c-.94,0-1.28-.62-1.28-1.46V70.26h.68v2.18c0,.6.27,1,.84,1a1,1,0,0,0,1-1.1Z"/><path class="cls-3" d="M639,71a1,1,0,0,0-.56-.15c-.52,0-.91.47-.91,1.16v1.91h-.68V70.26h.68V71a1.15,1.15,0,0,1,1-.84.73.73,0,0,1,.51.17Z"/><path class="cls-3" d="M642.77,72.66A1.6,1.6,0,0,1,641.09,74a1.77,1.77,0,0,1-1.86-1.85,1.84,1.84,0,0,1,1.82-2,1.67,1.67,0,0,1,1.74,1.8v.27h-2.87a1.18,1.18,0,0,0,1.18,1.2,1,1,0,0,0,1.1-.84Zm-.68-.87a1,1,0,0,0-1-1.11,1.16,1.16,0,0,0-1.12,1.11Z"/><path class="cls-3" d="M643.83,72.61a1,1,0,0,0,1.08.85c.47,0,.83-.17.83-.53s-.24-.46-.69-.54l-.61-.11c-.67-.1-1.08-.39-1.08-1s.56-1.11,1.39-1.11,1.52.45,1.58,1.28l-.55,0c-.08-.56-.42-.81-1-.81s-.75.2-.75.53.18.44.55.51l.68.1c.73.13,1.15.4,1.15,1S645.75,74,644.91,74s-1.59-.42-1.66-1.31Z"/><path class="cls-3" d="M649.33,68.67v4.6h2.9v.6h-3.62v-5.2Z"/><path class="cls-3" d="M652.88,68.67h.71v.77h-.71Zm.7,1.59v3.61h-.68V70.26Z"/><path class="cls-3" d="M658.74,70.16c.94,0,1.27.65,1.27,1.47v2.24h-.68V71.69c0-.6-.25-1-.8-1a1,1,0,0,0-.93,1.09v2.07h-.68V71.69c0-.6-.25-1-.8-1a1,1,0,0,0-.92,1.09v2.07h-.68V70.26h.68v.65a1.21,1.21,0,0,1,1.15-.75,1.14,1.14,0,0,1,1.18.79A1.3,1.3,0,0,1,658.74,70.16Z"/><path class="cls-3" d="M660.89,68.67h.71v.77h-.71Zm.71,1.59v3.61h-.69V70.26Z"/><path class="cls-3" d="M662.65,70.76h-.54v-.37l.23,0c.34-.06.41-.23.49-.57l.11-.51h.39v1h1v.5h-1v2.18c0,.33.13.48.44.48a1.44,1.44,0,0,0,.68-.22v.46a1.4,1.4,0,0,1-.92.31c-.52,0-.88-.24-.88-.94Z"/><path class="cls-3" d="M668.33,72.66A1.61,1.61,0,0,1,666.65,74a1.77,1.77,0,0,1-1.86-1.85,1.84,1.84,0,0,1,1.82-2,1.67,1.67,0,0,1,1.74,1.8v.27h-2.88a1.19,1.19,0,0,0,1.18,1.2,1,1,0,0,0,1.11-.84Zm-.69-.87a1,1,0,0,0-1-1.11,1.16,1.16,0,0,0-1.12,1.11Z"/><path class="cls-3" d="M671.79,73.12a1.36,1.36,0,0,1-1.3.85,1.92,1.92,0,0,1,0-3.81,1.36,1.36,0,0,1,1.3.86V68.67h.68v5.2h-.68Zm0-1.16a1.13,1.13,0,0,0-1.14-1.24c-.71,0-1.11.52-1.11,1.35s.4,1.35,1.11,1.35a1.13,1.13,0,0,0,1.14-1.25Z"/><path class="cls-3" d="M673.24,73h.83v.83h-.83Z"/></g></g></svg>