<svg id="Layer_1" data-name="Layer 1" xmlns="http://www.w3.org/2000/svg" xmlns:xlink="http://www.w3.org/1999/xlink" viewBox="0 0 728 90"><defs><style>.cls-1{fill:none;}.cls-2{clip-path:url(#clip-path);}</style><clipPath id="clip-path"><rect class="cls-1" width="728" height="90"/></clipPath></defs><g class="cls-2"><path d="M272,41.42V36.67h2.71v-.81c0-4.92,3.05-7.5,7.59-7.5,3.56,0,6,1.78,6.78,4.92l-4.19,1.31A1.94,1.94,0,0,0,283,33.28c-1.14,0-1.57.93-1.57,2.12v1.27h4.8v4.75h-4.8V55.58h-6.78V41.42Z"/><path d="M302,43.37a6.13,6.13,0,0,0-3.27-.81c-2.54,0-4.11,1.19-4.11,4.37v8.65h-6.87V36.67h6.87V40a5.5,5.5,0,0,1,5.17-3.86,4.52,4.52,0,0,1,2.63.72Z"/><path d="M304.54,28.87h6.95v6h-6.95Zm6.91,7.8V55.58h-6.87V36.67Z"/><path d="M334,49.35c-1,4.32-4.45,6.74-9.46,6.74-6.06,0-10.39-3.65-10.39-9.67a10,10,0,0,1,10.31-10.26c6.32,0,9.67,4.33,9.67,9.46v1.9H320.86c.17,2.34,1.87,3.44,3.95,3.44,1.86,0,3.05-.64,3.69-2.12Zm-6.4-5.13a3.1,3.1,0,0,0-3.23-3.14A3.23,3.23,0,0,0,321,44.22Z"/><path d="M343.8,55.58h-6.87V36.67h6.87v2.84a6.48,6.48,0,0,1,6.11-3.35c5.17,0,6.82,3.6,6.82,7.55V55.58h-6.87v-10c0-2.59-.72-3.94-2.79-3.94-2.34,0-3.27,1.86-3.27,4.7Z"/><path d="M373.82,52.36c-.89,2.2-3.05,3.73-6.19,3.73-5.6,0-8.4-4.37-8.4-10s2.8-10,8.4-10c3.14,0,5.3,1.53,6.19,3.77V28.87h6.87V55.58h-6.87Zm0-6.36c0-2.72-1.48-4.5-3.77-4.5-2.72,0-3.91,1.91-3.91,4.62s1.19,4.67,3.91,4.67c2.29,0,3.77-1.78,3.77-4.54Z"/></g></svg>