<svg id="Layer_1" data-name="Layer 1" xmlns="http://www.w3.org/2000/svg" xmlns:xlink="http://www.w3.org/1999/xlink" viewBox="0 0 728 90"><defs><style>.cls-1{fill:none;}.cls-2{clip-path:url(#clip-path);}.cls-3{clip-path:url(#clip-path-2);}.cls-4,.cls-6{fill:#221e1f;}.cls-5{fill:#eab8b9;}.cls-6{fill-rule:evenodd;}</style><clipPath id="clip-path"><rect class="cls-1" width="728" height="90"/></clipPath><clipPath id="clip-path-2"><rect class="cls-1" x="400" y="10.07" width="79.42" height="79.93"/></clipPath></defs><g class="cls-2"><g class="cls-3"><path class="cls-4" d="M411.68,162.86h56.06a11.68,11.68,0,0,0,11.68-11.69V21.76a11.68,11.68,0,0,0-11.68-11.69H411.68A11.68,11.68,0,0,0,400,21.76V151.17a11.68,11.68,0,0,0,11.68,11.69"/><path class="cls-5" d="M467.81,14.67h-6.94a1.08,1.08,0,0,0-1.08,1.07v.62a4,4,0,0,1-4,4H424a4,4,0,0,1-4-4v-.62a1.07,1.07,0,0,0-1.07-1.07h-7.16a7.55,7.55,0,0,0-7.55,7.55V151.31a7.56,7.56,0,0,0,7.55,7.55h56a7.56,7.56,0,0,0,7.55-7.55V22.22a7.55,7.55,0,0,0-7.55-7.55"/><path class="cls-6" d="M472.4,19.33a.32.32,0,0,1-.31.35V19a.32.32,0,0,1,.31.35m-.41-.65V20h0a.3.3,0,0,1-.3.3h-3.3a.3.3,0,0,1-.3-.3h0v-1.3a.3.3,0,0,1,.3-.31h3.3a.3.3,0,0,1,.3.31m-3.6-.21a.21.21,0,0,0-.2.21V20a.2.2,0,0,0,.2.21h3.3a.2.2,0,0,0,.2-.21v-1.3a.21.21,0,0,0-.2-.21Z"/><path class="cls-4" d="M465.8,18.48A1.83,1.83,0,0,1,467,19l-.16.17a1.63,1.63,0,0,0-2.09,0l-.16-.18a1.86,1.86,0,0,1,1.2-.46m0,.62a1.31,1.31,0,0,1,.81.3l-.18.19a1,1,0,0,0-.63-.22.94.94,0,0,0-.62.22L465,19.4a1.3,1.3,0,0,1,.8-.3m0,.62a.62.62,0,0,1,.39.14l-.39.43-.38-.43a.62.62,0,0,1,.38-.14"/><rect class="cls-4" x="460.83" y="19.67" width="0.36" height="0.62"/><rect class="cls-4" x="461.65" y="19.28" width="0.36" height="1.01"/><rect class="cls-4" x="462.48" y="18.96" width="0.36" height="1.33"/><rect class="cls-4" x="463.3" y="18.6" width="0.36" height="1.69"/><polygon class="cls-4" points="408.87 18.65 408.86 18.65 408.35 19 408.35 18.71 408.87 18.35 409.17 18.35 409.17 20.31 408.87 20.31 408.87 18.65"/><path class="cls-4" d="M409.65,20.1l.69-.7c.09-.08.15-.16.2-.21a.89.89,0,0,0,.09-.16.32.32,0,0,0,0-.14h0a.3.3,0,0,0-.05-.16.25.25,0,0,0-.12-.11.34.34,0,0,0-.17-.05.46.46,0,0,0-.21.05.44.44,0,0,0-.14.13.35.35,0,0,0-.05.18h-.29a.59.59,0,0,1,.34-.53.76.76,0,0,1,.68,0,.6.6,0,0,1,.23.19.57.57,0,0,1,.08.29h0a.65.65,0,0,1,0,.21,1.13,1.13,0,0,1-.14.22,3.46,3.46,0,0,1-.28.3l-.55.54.11-.2v.2l-.11-.09h1v.26h-1.34Z"/><path class="cls-4" d="M411.29,18.94a.17.17,0,0,1-.05-.13.18.18,0,0,1,.05-.12.19.19,0,0,1,.26,0,.18.18,0,0,1,.05.12.17.17,0,0,1-.05.13.19.19,0,0,1-.26,0m0,1a.17.17,0,0,1-.05-.12.19.19,0,0,1,.05-.13.19.19,0,0,1,.26,0,.19.19,0,0,1,.05.13.17.17,0,0,1-.05.12.17.17,0,0,1-.26,0"/><path class="cls-4" d="M412.82,19.92h-1v-.27l.16-.26.17-.26a2.33,2.33,0,0,1,.17-.26l.16-.26c.06-.09.11-.18.17-.26h.44v1.31h.27v.26h-.27v.39h-.29Zm0-.25V18.59h0l-.14.21-.14.22-.13.21-.14.21-.14.22h.7Z"/><path class="cls-4" d="M413.92,20.22a.83.83,0,0,1-.25-.35,1.49,1.49,0,0,1-.09-.54h0a1.44,1.44,0,0,1,.09-.53.77.77,0,0,1,.25-.35.64.64,0,0,1,.4-.13.65.65,0,0,1,.41.13.77.77,0,0,1,.25.35,1.25,1.25,0,0,1,.1.53h0a1.3,1.3,0,0,1-.1.54.83.83,0,0,1-.25.35.71.71,0,0,1-.41.12.7.7,0,0,1-.4-.12m.64-.23a.47.47,0,0,0,.15-.26,1.2,1.2,0,0,0,.06-.4h0a1.2,1.2,0,0,0-.06-.4.51.51,0,0,0-.15-.26.32.32,0,0,0-.24-.09.32.32,0,0,0-.23.09.51.51,0,0,0-.15.26,1.2,1.2,0,0,0-.06.4h0a1.2,1.2,0,0,0,.06.4.47.47,0,0,0,.15.26.32.32,0,0,0,.23.09.32.32,0,0,0,.24-.09"/><path class="cls-4" d="M417.36,18.78l-.37.84,0-.19,0-.17h-.44Zm.41-.45-2,1.07,1,.05.12.91Z"/><path class="cls-6" d="M468.35,18.73v1.2a.09.09,0,0,0,.09.1h2.92a.1.1,0,0,0,.1-.1v-1.2a.1.1,0,0,0-.1-.1h-2.92a.09.09,0,0,0-.09.1"/></g></g></svg>