<?xml version="1.0" encoding="utf-8"?>
<!-- Generator: Adobe Illustrator 25.0.0, SVG Export Plug-In . SVG Version: 6.00 Build 0)  -->
<svg version="1.1" id="_Layer_" xmlns="http://www.w3.org/2000/svg" xmlns:xlink="http://www.w3.org/1999/xlink" x="0px" y="0px"
	 viewBox="0 0 300 600" style="enable-background:new 0 0 300 600;" xml:space="preserve">
<style type="text/css">
	.st0{fill:#FFFFFF;}
</style>
<path class="st0" d="M27.2,159.4l3.1-2.1c0.8,1.6,2.4,2.6,4.1,2.7c1.7,0,2.8-0.8,2.8-2.1c0-1.1-0.7-1.6-2.5-2.8l-0.9-0.6
	c-2.5-1.6-3.7-3.2-3.7-5.8c0-3,2-5.4,6.2-5.4c2.1-0.1,4.1,0.8,5.4,2.5l-2.8,2.4c-0.6-0.9-1.6-1.5-2.7-1.5c-1-0.1-1.9,0.6-2,1.6
	c0,0.1,0,0.2,0,0.3c0,1,0.5,1.6,2,2.5l1,0.6c2.6,1.7,4.3,3.1,4.3,6c0,3.9-3,5.9-6.9,5.9C31.5,163.6,28.7,162,27.2,159.4z"/>
<path class="st0" d="M46.2,142.2h3.8l-1.9,10.7c0.8-1.5,2.3-2.4,3.9-2.4c2.7,0,4.3,2.3,3.7,5.8l-0.6,3.2c-0.1,0.5,0.1,0.7,0.5,0.7
	h0.9l-0.5,2.9h-1.2c-2.6,0-4-0.9-3.5-3.7l0.5-3c0.3-1.6-0.4-2.5-1.7-2.5c-1.5,0-2.3,0.8-2.6,2.5l-1.2,6.7h-3.8L46.2,142.2z"/>
<path class="st0" d="M58,157.5c0-4.5,2.7-7,5.9-7c1.7-0.1,3.2,0.8,4,2.2l0.3-2H72l-1.5,8.8c-0.1,0.5,0.1,0.7,0.5,0.7h0.9l-0.5,2.9
	h-1.5c-2.8,0-3.2-0.7-3.4-1.7v-0.1c-0.7,1.3-2.1,2.2-3.6,2.1C60.1,163.4,58,161.1,58,157.5z M67.1,156.8c0-1.7-0.8-2.9-2.4-2.9
	s-2.7,1.4-2.7,3.4c0,1.7,0.9,2.8,2.4,2.8C65.9,160.1,67.1,158.8,67.1,156.8L67.1,156.8z"/>
<path class="st0" d="M76.4,163.2h-3.8l3.7-20.9h3.8l-1.9,10.7c-0.2,1-0.4,1.9-0.7,2.8l4.7-4.9h4.3l-5,5.1l1.8,3.6
	c0.3,0.6,0.5,0.7,1,0.7h0.9l-0.5,2.9h-1.4c-2.2,0-2.7-0.8-3.6-2.5l-1.2-2.5l-1.5,1.3L76.4,163.2z"/>
<path class="st0" d="M93.7,160.3c1.1,0,2.1-0.3,2.9-1l2.3,2.4c-1.5,1.2-3.4,1.8-5.3,1.7c-4.5,0-7-2.7-7-6.4
	c-0.1-3.5,2.7-6.4,6.2-6.5c0.2,0,0.3,0,0.5,0c4.4,0,6.3,2.8,6.5,6.9l-9.2,1C91,159.7,92,160.3,93.7,160.3z M95.6,155.8
	c0-1.2-0.9-2.1-2-2.2c-0.1,0-0.2,0-0.3,0c-1.6,0-2.6,0.9-2.8,2.7L95.6,155.8z"/>
<path class="st0" d="M107.1,159.6l1.5-8.8h3.8l-1.5,8.8c-0.1,0.5,0.1,0.7,0.5,0.7h0.9l-0.5,2.9h-1.4
	C107.6,163.2,106.6,162.6,107.1,159.6z M109,146.3c0-1.3,1-2.3,2.2-2.4c0,0,0.1,0,0.1,0c1.3,0,2.4,1,2.4,2.3c0,1.3-1,2.4-2.3,2.4
	S109,147.6,109,146.3C109,146.3,109,146.3,109,146.3z"/>
<path class="st0" d="M114.5,154l0.6-3.2h1.8l1.1-6.4h3.8l-1.1,6.4h3l-0.6,3.2h-3l-0.8,4.7c-0.2,1.2,0.1,1.5,0.7,1.5
	c0.5,0,0.9-0.2,1.3-0.4l1.2,2.7c-0.9,0.7-2.1,1.1-3.2,1c-2.4,0-4.5-1.1-3.9-4.9l0.8-4.6L114.5,154z"/>
<path class="st0" d="M130.3,157.7l1.2-6.8h3.9l-1.2,6.7c-0.3,1.6,0.4,2.5,1.7,2.5c1.5,0,2.3-0.8,2.6-2.5l1.2-6.7h3.8l-1.6,8.8
	c-0.1,0.5,0.1,0.7,0.5,0.7h0.9l-0.5,2.9h-1.4c-2.8,0-3.2-0.8-3.4-1.8v-0.2c-0.8,1.4-2.4,2.3-4.1,2.2
	C131.3,163.4,129.7,161.1,130.3,157.7z"/>
<path class="st0" d="M146.6,150.8h3.8l-0.4,1.8c0.8-1.3,2.1-2,3.6-2.1c2.8,0,5,2.3,5,5.9c0,4.3-2.8,7-5.9,7
	c-1.7,0.1-3.4-0.8-4.1-2.4l-1.4,8.3h-3.8L146.6,150.8z M154.6,156.7c0-1.7-1-2.8-2.5-2.8c-1.7,0-2.9,1.4-2.9,3.4
	c0,1.7,0.9,2.9,2.5,2.9C153.5,160.1,154.6,158.8,154.6,156.7L154.6,156.7z"/>
<path class="st0" d="M165.8,157.5c0-4.5,2.7-7,5.9-7c1.7-0.1,3.2,0.8,4,2.2l0.3-2h3.8l-1.5,8.8c-0.1,0.5,0.1,0.7,0.5,0.7h0.9
	l-0.5,2.9h-1.4c-2.8,0-3.2-0.7-3.4-1.7v-0.1c-0.7,1.3-2.1,2.2-3.6,2.1C167.9,163.4,165.8,161.1,165.8,157.5z M174.9,156.8
	c0-1.7-0.8-2.9-2.4-2.9s-2.7,1.4-2.7,3.4c0,1.7,0.9,2.8,2.4,2.8S174.9,158.8,174.9,156.8z"/>
<path class="st0" d="M186.8,159.6l3-17.4h3.8l-3.1,17.4c-0.1,0.5,0.1,0.7,0.5,0.7h1.1l-0.5,2.9H190
	C187.3,163.2,186.3,162.6,186.8,159.6z"/>
<path class="st0" d="M194,159.6l1.5-8.8h3.8l-1.5,8.8c-0.1,0.5,0.1,0.7,0.5,0.7h0.9l-0.5,2.9h-1.4
	C194.5,163.2,193.5,162.6,194,159.6z M195.9,146.3c0-1.3,1-2.3,2.3-2.4c0,0,0.1,0,0.1,0c1.3,0,2.4,1,2.4,2.4c0,1.3-1,2.4-2.4,2.4
	C197,148.7,195.9,147.6,195.9,146.3C195.9,146.3,195.9,146.3,195.9,146.3z"/>
<path class="st0" d="M201.4,154l0.6-3.2h1.8l1.1-6.4h3.8l-1.1,6.4h3L210,154h-3l-0.8,4.7c-0.2,1.2,0.1,1.5,0.7,1.5
	c0.5,0,0.9-0.2,1.3-0.4l1.2,2.7c-0.9,0.7-2.1,1.1-3.2,1c-2.4,0-4.5-1.1-3.9-4.9l0.8-4.6L201.4,154z"/>
<path class="st0" d="M211.6,154l0.6-3.2h1.8l1.1-6.4h3.8l-1.1,6.4h3l-0.6,3.2h-3l-0.8,4.7c-0.2,1.2,0.1,1.5,0.7,1.5
	c0.5,0,0.9-0.2,1.3-0.4l1.2,2.7c-0.9,0.7-2.1,1.1-3.2,1c-2.4,0-4.5-1.1-3.9-4.9l0.8-4.6L211.6,154z"/>
<path class="st0" d="M221.8,159.6l3.1-17.4h3.8l-3,17.4c-0.1,0.5,0.1,0.7,0.5,0.7h1.1l-0.5,2.9H225
	C222.2,163.2,221.2,162.6,221.8,159.6z"/>
<path class="st0" d="M236.1,160.3c1.1,0,2.1-0.3,2.9-1l2.3,2.4c-1.5,1.2-3.4,1.8-5.3,1.7c-4.5,0-7-2.7-7-6.4
	c-0.1-3.5,2.7-6.4,6.2-6.5c0.2,0,0.3,0,0.5,0c4.4,0,6.3,2.8,6.5,6.9l-9.2,1C233.4,159.7,234.4,160.3,236.1,160.3z M238,155.8
	c0-1.2-0.9-2.1-2.1-2.2c-0.1,0-0.2,0-0.2,0c-1.6,0-2.6,0.9-2.8,2.7L238,155.8z"/>
<path class="st0" d="M243.1,161c0-1.3,1-2.4,2.3-2.4c1.3,0,2.4,1,2.4,2.3c0,0,0,0,0,0c0,1.3-1,2.4-2.3,2.4
	C244.2,163.4,243.1,162.3,243.1,161C243.1,161,243.1,161,243.1,161z"/>
<path class="st0" d="M28.9,218.3h2.4l0.8,4.5c0.2,0.9,0.3,2.3,0.3,2.3c0.3-0.7,0.7-1.5,1.1-2.2l3-4.8h0.2l1.3,4.6
	c0.2,0.9,0.5,2.3,0.5,2.3c0.3-0.7,0.6-1.5,0.9-2.2l2.5-4.7h2.4L38,230h-0.2l-1.5-5.5c-0.2-0.7-0.3-1.3-0.4-2c-0.3,0.6-0.6,1.3-1,1.9
	l-3.6,5.6h-0.2L28.9,218.3z"/>
<path class="st0" d="M45.4,217.6h2.2l-1.1,6.3c0.4-0.9,1.3-1.4,2.3-1.4c1.6,0,2.5,1.4,2.2,3.4l-0.3,1.9c0,0.3,0,0.4,0.3,0.4h0.5
	l-0.3,1.7h-0.7c-1.6,0-2.3-0.5-2-2.2l0.3-1.8c0.2-1-0.2-1.5-1-1.5s-1.4,0.4-1.5,1.5l-0.7,3.9h-2.3L45.4,217.6z"/>
<path class="st0" d="M56.5,228.2c0.6,0,1.2-0.2,1.7-0.6l1.4,1.4c-0.9,0.7-2,1.1-3.1,1c-2.7,0-4.1-1.6-4.1-3.7
	c-0.1-2.1,1.6-3.8,3.6-3.8c0.1,0,0.2,0,0.3,0c2.6,0,3.7,1.7,3.8,4.1l-5.4,0.6C54.9,227.9,55.7,228.3,56.5,228.2z M57.6,225.6
	c0-0.7-0.5-1.3-1.2-1.3c0,0-0.1,0-0.1,0c-0.9-0.1-1.6,0.6-1.7,1.4c0,0.1,0,0.1,0,0.2L57.6,225.6z"/>
<path class="st0" d="M61.9,222.6h2.3l-0.3,1.4c0.7-1.2,1.4-1.6,2.2-1.6c0.4,0,0.8,0.1,1.1,0.3l-0.8,2.1c-0.3-0.2-0.6-0.3-0.9-0.2
	c-1,0-1.7,0.4-2,2.1l-0.6,3.2h-2.2L61.9,222.6z"/>
<path class="st0" d="M71.4,228.2c0.6,0,1.2-0.2,1.7-0.6l1.4,1.4c-0.9,0.7-2,1.1-3.1,1c-2.6,0-4.1-1.6-4.1-3.7
	c-0.1-2.1,1.6-3.8,3.6-3.8c0.1,0,0.2,0,0.3,0c2.6,0,3.7,1.7,3.8,4.1l-5.4,0.6C69.9,227.9,70.6,228.3,71.4,228.2z M72.6,225.6
	c0-0.7-0.5-1.3-1.2-1.3c0,0-0.1,0-0.1,0c-0.9-0.1-1.6,0.6-1.7,1.5c0,0,0,0.1,0,0.1L72.6,225.6z"/>
<path class="st0" d="M83.5,220.4h-3.3l0.3-2.1h8.9l-0.4,2.1h-3.2l-1.7,9.6h-2.3L83.5,220.4z"/>
<path class="st0" d="M87,226.4c0-2.1,1.7-3.9,3.8-3.9c0.1,0,0.2,0,0.2,0c2-0.1,3.7,1.5,3.8,3.5c0,0.1,0,0.1,0,0.2
	c0,2.1-1.6,3.8-3.8,3.9c-0.1,0-0.2,0-0.2,0c-2,0.1-3.8-1.5-3.8-3.5C87,226.5,87,226.4,87,226.4z M92.6,226.2
	c0.1-0.9-0.5-1.6-1.4-1.7c-0.1,0-0.1,0-0.2,0c-1,0-1.7,0.8-1.7,2c-0.1,0.9,0.5,1.6,1.4,1.7c0.1,0,0.1,0,0.2,0
	C91.9,228.2,92.6,227.4,92.6,226.2L92.6,226.2z"/>
<path class="st0" d="M96.8,222.6h2.3l-0.3,1.2c0.4-0.8,1.3-1.4,2.2-1.3c0.9,0,1.6,0.5,1.9,1.4c0.5-0.9,1.5-1.4,2.5-1.4
	c1.6,0,2.5,1.4,2.1,3.4l-0.3,1.9c-0.1,0.3,0,0.4,0.3,0.4h0.5l-0.3,1.7h-0.9c-1.6,0-2.2-0.4-1.9-2.1l0.3-1.9c0.2-1-0.1-1.5-0.8-1.5
	s-1.2,0.4-1.4,1.5l-0.7,3.9h-2.3l0.7-4c0.2-1-0.1-1.5-0.8-1.5s-1.3,0.4-1.4,1.5l-0.7,3.9h-2.3L96.8,222.6z"/>
<path class="st0" d="M108.9,226.4c0-2.1,1.7-3.9,3.8-3.9c0.1,0,0.1,0,0.2,0c2-0.1,3.7,1.5,3.8,3.5c0,0.1,0,0.1,0,0.2
	c0,2.1-1.6,3.8-3.8,3.9c-0.1,0-0.2,0-0.2,0c-2,0.1-3.8-1.5-3.8-3.5C108.9,226.5,108.9,226.4,108.9,226.4z M114.5,226.2
	c0.1-0.9-0.5-1.6-1.4-1.7c-0.1,0-0.2,0-0.2,0c-1,0-1.7,0.8-1.7,2c-0.1,0.9,0.5,1.6,1.4,1.7c0.1,0,0.1,0,0.2,0
	C113.8,228.2,114.5,227.4,114.5,226.2z"/>
<path class="st0" d="M118.8,222.6h2.2l-0.3,1.4c0.7-1.2,1.4-1.6,2.2-1.6c0.4,0,0.8,0.1,1.1,0.3l-0.8,2.1c-0.3-0.2-0.6-0.3-0.9-0.2
	c-1,0-1.7,0.4-2,2.1l-0.6,3.2h-2.2L118.8,222.6z"/>
<path class="st0" d="M125.1,222.6h2.2L127,224c0.7-1.2,1.5-1.6,2.2-1.6c0.4,0,0.8,0.1,1.1,0.3l-0.9,2.1c-0.3-0.2-0.6-0.3-0.9-0.2
	c-1,0-1.7,0.4-2,2.1l-0.6,3.2h-2.2L125.1,222.6z"/>
<path class="st0" d="M130.4,226.4c0-2.1,1.7-3.9,3.8-3.9c0.1,0,0.2,0,0.3,0c2-0.1,3.7,1.5,3.8,3.5c0,0.1,0,0.1,0,0.2
	c0,2.1-1.6,3.8-3.8,3.9c-0.1,0-0.2,0-0.2,0c-2,0.1-3.8-1.4-3.9-3.5C130.4,226.5,130.4,226.5,130.4,226.4z M136,226.2
	c0.1-0.9-0.5-1.6-1.4-1.7c-0.1,0-0.1,0-0.2,0c-1,0-1.6,0.8-1.6,2c-0.1,0.9,0.5,1.6,1.4,1.7c0.1,0,0.1,0,0.2,0
	C135.3,228.2,136,227.4,136,226.2L136,226.2z"/>
<path class="st0" d="M138.8,222.6h2.4l0.6,2.1c0.2,0.6,0.3,1.6,0.3,1.6c0.2-0.5,0.5-1.1,0.8-1.6l1.4-2.3h0.2l0.9,2.3
	c0.2,0.5,0.3,1,0.4,1.6c0,0,0.4-1,0.7-1.6l1.1-2.1h2.3l-4.2,7.5h-0.2l-1.2-2.9c-0.2-0.5-0.3-1-0.4-1.4c-0.2,0.5-0.4,0.9-0.6,1.3
	l-2,3h-0.2L138.8,222.6z"/>
<path class="st0" d="M149.4,228.6l1.6-1.1c0.3,0.6,1,0.9,1.6,0.8c0.7,0,0.9-0.2,0.9-0.4s-0.3-0.4-1.4-0.8c-1-0.3-1.6-1.2-1.7-2.2
	c0-1.5,1.2-2.3,2.7-2.3c1,0,1.9,0.4,2.6,1.1l-1.5,1.2c-0.2-0.4-0.6-0.6-1.1-0.6c-0.4,0-0.7,0.2-0.7,0.4s0.3,0.4,1,0.7
	c1.2,0.5,2.1,1,2.1,2.4s-1,2.3-3.1,2.3C151.3,230.1,150.1,229.6,149.4,228.6z"/>
<path class="st0" d="M160.1,226.6c0-2.6,1.6-4.1,3.4-4.1c1-0.1,1.9,0.4,2.3,1.3l0.2-1.2h2.2l-0.9,5.2c-0.1,0.3,0,0.4,0.3,0.4h0.5
	l-0.3,1.7h-0.9c-1.6,0-1.9-0.4-2-1v-0.1c-0.4,0.8-1.2,1.3-2.1,1.2C161.4,230.1,160.1,228.7,160.1,226.6z M165.5,226.2
	c0-1-0.5-1.7-1.4-1.7s-1.6,0.8-1.6,2c0,1,0.5,1.6,1.4,1.6S165.5,227.3,165.5,226.2L165.5,226.2z"/>
<path class="st0" d="M170,222.6h2.2L172,224c0.7-1.2,1.4-1.6,2.2-1.6c0.4,0,0.8,0.1,1.1,0.3l-0.9,2.1c-0.3-0.2-0.6-0.3-0.9-0.2
	c-1,0-1.7,0.4-2,2.1l-0.6,3.2h-2.2L170,222.6z"/>
<path class="st0" d="M179.5,228.2c0.6,0,1.2-0.2,1.7-0.6l1.4,1.4c-0.9,0.7-2,1.1-3.1,1c-2.6,0-4.1-1.6-4.1-3.7
	c-0.1-2.1,1.6-3.8,3.6-3.8c0.1,0,0.2,0,0.3,0c2.6,0,3.7,1.7,3.8,4.1l-5.4,0.6C178,227.9,178.7,228.3,179.5,228.2z M180.7,225.6
	c0-0.7-0.5-1.3-1.2-1.3c0,0-0.1,0-0.1,0c-0.9-0.1-1.6,0.6-1.7,1.5c0,0,0,0.1,0,0.1L180.7,225.6z"/>
<path class="st0" d="M189.4,218.2h0.2l4.4,6.3l6.8-6.3h0.2l-2.1,11.7h-2.2l0.8-4.4c0.1-0.8,0.5-2.1,0.5-2.1
	c-0.4,0.6-0.9,1.2-1.5,1.7l-2.7,2.6h-0.2l-1.8-2.6c-0.4-0.6-0.7-1.1-1.1-1.7c0,0-0.1,1.3-0.2,2.1l-0.8,4.4h-2.2L189.4,218.2z"/>
<path class="st0" d="M200.8,226.6c0-2.6,1.6-4.1,3.4-4.1c1-0.1,1.9,0.4,2.3,1.3l0.1-1.2h2.3l-0.9,5.2c0,0.3,0.1,0.4,0.3,0.4h0.5
	l-0.3,1.7h-0.9c-1.6,0-1.9-0.4-2-1v-0.1c-0.4,0.8-1.2,1.3-2.1,1.2C202.1,230.1,200.8,228.7,200.8,226.6z M206.2,226.2
	c0-1-0.5-1.7-1.4-1.7s-1.6,0.8-1.6,2c0,1,0.5,1.6,1.4,1.6S206.2,227.3,206.2,226.2L206.2,226.2z"/>
<path class="st0" d="M209.7,226.6c0-2.6,1.6-4.1,3.5-4.1c1-0.1,1.9,0.4,2.4,1.2l1.1-6.1h2.3l-1.8,10.2c-0.1,0.3,0,0.4,0.3,0.4h0.5
	l-0.3,1.7h-0.9c-1.6,0-1.9-0.4-2-1v-0.1c-0.4,0.8-1.3,1.4-2.2,1.3C211,230.1,209.7,228.7,209.7,226.6z M215.2,226.2
	c0-1-0.5-1.7-1.5-1.7s-1.7,0.8-1.7,2c-0.1,0.8,0.4,1.5,1.2,1.6c0.1,0,0.2,0,0.3,0c1,0,1.7-0.9,1.7-1.8
	C215.3,226.2,215.3,226.2,215.2,226.2L215.2,226.2z"/>
<path class="st0" d="M223.2,228.2c0.6,0,1.2-0.2,1.7-0.6l1.4,1.4c-0.9,0.7-2,1.1-3.1,1c-2.6,0-4.1-1.6-4.1-3.7
	c-0.1-2.1,1.6-3.8,3.6-3.8c0.1,0,0.2,0,0.3,0c2.6,0,3.7,1.7,3.8,4.1l-5.4,0.6C221.6,227.9,222.4,228.3,223.2,228.2z M224.3,225.6
	c0-0.7-0.5-1.3-1.2-1.3c0,0-0.1,0-0.1,0c-0.9-0.1-1.6,0.6-1.7,1.4c0,0.1,0,0.1,0,0.2L224.3,225.6z"/>
<path class="st0" d="M227.3,228.6c-0.1-0.8,0.5-1.4,1.3-1.5c0.8-0.1,1.4,0.5,1.5,1.3c0,0.1,0,0.2,0,0.2c0.1,0.8-0.5,1.4-1.3,1.5
	c-0.8,0.1-1.4-0.5-1.5-1.3C227.3,228.8,227.3,228.7,227.3,228.6z"/>
<path class="st0" d="M27.5,203.5l1.5-0.8c0.5,1,1.5,1.7,2.7,1.6c1.2,0,2-0.6,2-1.6s-0.7-1.4-1.9-2l-0.8-0.3
	c-1.7-0.8-2.7-1.6-2.7-3.4c0-1.7,1.3-3,3-3c0.1,0,0.2,0,0.3,0c1.4-0.1,2.6,0.6,3.3,1.8l-1.4,0.9c-0.3-0.7-1.1-1.2-1.9-1.1
	c-0.7-0.1-1.4,0.5-1.5,1.2c0,0.1,0,0.1,0,0.2c0,0.9,0.5,1.3,1.7,1.8l0.8,0.3c2,0.9,3,1.8,3,3.6c0,2-1.6,3.2-3.8,3.2
	C29.9,206.1,28.3,205.1,27.5,203.5z"/>
<path class="st0" d="M37.7,203.4v-3.3h-1.1v-1.4h1.1v-3.7h1.7v3.7h1.9v1.4h-1.9v3.3c0,0.8,0.3,1.1,0.7,1.1c0.3,0,0.6-0.1,0.8-0.3
	l0.8,1.2c-0.5,0.5-1.2,0.7-1.8,0.7C38.6,206,37.7,205.3,37.7,203.4z"/>
<path class="st0" d="M46,199.9c-0.7,0-1.4,0.3-1.9,0.9l-1-1c0.7-0.9,1.9-1.4,3-1.3c1.5-0.1,2.9,1,3,2.6c0,0.2,0,0.3,0,0.5v4.2h-1.7
	v-1c-0.5,0.8-1.3,1.2-2.2,1.2c-1.4,0-2.6-0.7-2.6-2.3s1.2-2.1,2.8-2.1h2C47.5,200.4,47,199.9,46,199.9z M45.6,202.7
	c-0.8,0-1.2,0.3-1.2,0.9s0.5,0.9,1.4,0.9s1.7-0.5,1.7-1.3v-0.6H45.6z"/>
<path class="st0" d="M53.1,205.1l-2.9-6.5h1.9l1.5,3.6c0.2,0.5,0.3,1,0.4,1.5c0.1-0.5,0.2-1,0.4-1.5l1.5-3.6h1.8L53,209.4h-1.8
	L53.1,205.1z"/>
<path class="st0" d="M62,204.5l1.2-0.8c0.4,0.6,1.2,1,1.9,0.9c0.9,0,1.3-0.3,1.3-0.8s-0.5-0.7-1.7-1s-2.1-0.8-2.1-2.2
	s1.2-2.1,2.6-2.1c1,0,1.9,0.4,2.5,1.1l-1,1c-0.4-0.4-0.9-0.7-1.5-0.7c-0.7,0-1,0.2-1,0.7s0.4,0.7,1.6,0.9s2.3,0.7,2.3,2.3
	c0,1.2-0.8,2.2-2.8,2.2C64,206,62.7,205.5,62,204.5z"/>
<path class="st0" d="M72.5,199.9c-0.7,0-1.4,0.3-1.9,0.9l-1-1c0.7-0.9,1.9-1.4,3-1.3c1.5-0.1,2.9,1,3,2.6c0,0.2,0,0.3,0,0.5v4.2
	h-1.7v-1c-0.5,0.8-1.3,1.2-2.2,1.2c-1.4,0-2.6-0.7-2.6-2.3s1.2-2.1,2.8-2.1h2C73.9,200.4,73.4,199.9,72.5,199.9z M72.1,202.7
	c-0.8,0-1.2,0.3-1.2,0.9s0.5,0.9,1.4,0.9s1.7-0.5,1.7-1.3v-0.6H72.1z"/>
<path class="st0" d="M78.1,200.1H77v-1.4h1.2v-2.8c0-1.7,0.8-2.5,2.3-2.5c0.8,0,1.5,0.3,2,0.9l-1,1.1c-0.2-0.3-0.5-0.4-0.8-0.4
	c-0.4,0-0.8,0.3-0.8,1v2.9h1.9v1.4h-1.9v5.7h-1.7V200.1z"/>
<path class="st0" d="M86.8,204.5c0.7,0,1.5-0.3,2-0.8l1,1.1c-0.8,0.8-1.9,1.2-3,1.2c-2.1,0.2-3.9-1.3-4.1-3.4
	c-0.2-2.1,1.3-3.9,3.4-4.1c0.2,0,0.3,0,0.5,0c2.4,0,3.8,1.8,3.7,4.3h-5.8C84.7,203.9,85.7,204.6,86.8,204.5z M88.5,201.6
	c-0.1-1-0.9-1.8-2-1.7c0,0,0,0,0,0c-1-0.1-1.9,0.7-2.1,1.7H88.5z"/>
<path class="st0" d="M91.4,204.7c0-0.6,0.5-1.2,1.2-1.2c0.6,0,1.2,0.5,1.2,1.2c0,0.6-0.5,1.2-1.2,1.2
	C91.9,205.9,91.4,205.4,91.4,204.7C91.4,204.7,91.4,204.7,91.4,204.7z"/>
<path class="st0" d="M102,195.8h-3.4v-1.6h8.7v1.6h-3.4v10H102V195.8z"/>
<path class="st0" d="M106.6,202.9v-4.3h1.7v4.1c0,1,0.5,1.6,1.5,1.6c0.9,0.1,1.8-0.6,1.8-1.6c0-0.1,0-0.2,0-0.3v-3.9h1.7v7.2h-1.7
	v-1.3c-0.4,0.9-1.4,1.5-2.4,1.5C107.7,205.9,106.6,204.8,106.6,202.9z"/>
<path class="st0" d="M115.4,198.6h1.7v1.3c0.5-1,1.5-1.5,2.6-1.5c1.9,0.1,3.4,1.7,3.3,3.6c0,0,0,0.1,0,0.1c0.1,1.9-1.3,3.6-3.3,3.7
	c0,0-0.1,0-0.1,0c-1,0.1-2-0.5-2.5-1.4v4.9h-1.8V198.6z M121.2,202.2c0.1-1.1-0.7-2.1-1.8-2.2c-0.1,0-0.1,0-0.2,0
	c-1.2,0-2.2,1-2.2,2.2c0,1.2,1,2.2,2.2,2.2c1.1,0,2-0.9,2-2C121.2,202.4,121.2,202.3,121.2,202.2z"/>
<path class="st0" d="M128.3,204.5c0.7,0,1.5-0.3,2-0.8l1,1.1c-0.8,0.8-1.9,1.2-3,1.2c-2.1,0.2-3.9-1.3-4.1-3.4
	c-0.2-2.1,1.3-3.9,3.4-4.1c0.2,0,0.3,0,0.5,0c2.4,0,3.8,1.8,3.7,4.3H126C126.2,203.9,127.2,204.6,128.3,204.5z M130.1,201.6
	c-0.1-1-0.9-1.8-1.9-1.7c-1-0.1-1.9,0.7-2.1,1.7H130.1z"/>
<path class="st0" d="M133.5,193.5h1.7v12.3h-1.7V193.5z"/>
<path class="st0" d="M137,202.2c-0.1-2.1,1.6-3.9,3.7-4c2.1-0.1,3.9,1.6,4,3.7c0.1,2.1-1.6,3.9-3.7,4c0,0-0.1,0-0.1,0
	c-2.1,0.1-3.8-1.5-3.9-3.6C137,202.3,137,202.2,137,202.2z M143,202.2c0-1.2-0.9-2.1-2.1-2.1c-1.2,0-2.1,0.9-2.1,2.1c0,0,0,0,0,0
	c-0.1,1.2,0.7,2.2,1.9,2.3c1.2,0.1,2.2-0.7,2.3-1.9C143,202.5,143,202.3,143,202.2z"/>
<path class="st0" d="M146.5,205.8c-0.4-0.2-0.7-0.6-0.7-1.1c0-0.6,0.5-1.2,1.2-1.2c0.6,0,1.2,0.5,1.2,1.2c0,0.4-0.1,0.7-0.4,1.1
	l-1,2h-0.9L146.5,205.8z"/>
<path class="st0" d="M153.8,194.1h0.2l5.6,6.5l5.5-6.5h0.2v11.7h-1.7v-6c0-0.6,0.1-1.7,0.1-1.7c-0.3,0.5-0.6,1-1,1.4l-2.9,3.5h-0.2
	l-2.9-3.5c-0.4-0.5-1-1.4-1-1.4s0.1,1,0.1,1.7v6h-1.7L153.8,194.1z"/>
<path class="st0" d="M166.8,203.5l1.5-0.8c0.5,1,1.5,1.6,2.7,1.6c1.2,0,2-0.6,2-1.6s-0.7-1.4-1.9-2l-0.8-0.3
	c-1.7-0.8-2.7-1.6-2.7-3.4c0-1.7,1.3-3,3-3c0.1,0,0.2,0,0.3,0c1.4-0.1,2.7,0.6,3.3,1.8l-1.4,0.9c-0.3-0.7-1.1-1.2-1.9-1.1
	c-0.7-0.1-1.4,0.5-1.5,1.2c0,0,0,0.1,0,0.1c0,0.9,0.5,1.3,1.7,1.8l0.8,0.3c2,0.9,3,1.8,3,3.6c0,2-1.6,3.2-3.8,3.2
	C169.2,206,167.6,205.1,166.8,203.5z"/>
<path class="st0" d="M176.2,204.7c0-0.6,0.5-1.2,1.2-1.2c0.6,0,1.2,0.5,1.2,1.2c0,0.6-0.5,1.2-1.2,1.2
	C176.8,205.9,176.3,205.4,176.2,204.7C176.2,204.7,176.2,204.7,176.2,204.7z"/>
<path class="st0" d="M28.4,266l0.3-1.6h1.2l0.4-1.6H32l-0.4,1.6h1.2l0.4-1.6h1.7l-0.4,1.6h1l-0.4,1.6H34l-0.3,1.3h1.2l-0.3,1.6h-1.3
	l-0.4,1.7h-1.7l0.4-1.7h-1.2l-0.4,1.6h-1.7l0.4-1.7h-0.9l0.3-1.6h1l0.3-1.3L28.4,266z M31.1,266l-0.3,1.3H32l0.3-1.3H31.1z"/>
<path class="st0" d="M36.7,261.7h2.3l1.1,4.2c0.2,0.9,0.4,1.9,0.5,2.8c0.4-0.9,0.8-1.8,1.3-2.7l2.5-4.3h2.3L40.1,273h-0.2
	L36.7,261.7z"/>
<path class="st0" d="M45.9,270.9l0.9-5H49l-0.9,4.9c0,0.3,0,0.4,0.3,0.4h0.5l-0.3,1.6h-0.8C46.2,272.9,45.6,272.5,45.9,270.9z
	 M47,263.3c0-0.7,0.5-1.3,1.3-1.3c0,0,0,0,0.1,0c0.7,0,1.3,0.6,1.3,1.3c0,0.7-0.6,1.3-1.3,1.3S47,264.1,47,263.3
	C47,263.3,47,263.3,47,263.3z"/>
<path class="st0" d="M49.6,271.6l1.5-1c0.3,0.5,0.9,0.8,1.5,0.8c0.7,0,0.8-0.2,0.8-0.4s-0.3-0.3-1.3-0.8c-0.9-0.3-1.6-1.1-1.6-2.1
	c0-1.5,1.1-2.2,2.6-2.2c0.9,0,1.8,0.3,2.4,1l-1.4,1.2c-0.2-0.3-0.6-0.6-1-0.5c-0.4,0-0.6,0.2-0.6,0.4s0.3,0.4,1,0.7
	c1.2,0.5,2,1,2,2.3s-1,2.2-2.9,2.2C51.4,273.1,50.2,272.6,49.6,271.6z"/>
<path class="st0" d="M57,270.9l0.9-5H60l-0.9,4.9c0,0.3,0,0.4,0.3,0.4h0.5l-0.3,1.6h-0.8C57.2,272.9,56.7,272.5,57,270.9z M58,263.3
	c0-0.7,0.5-1.3,1.3-1.3c0,0,0.1,0,0.1,0c0.7,0,1.3,0.6,1.3,1.3c0,0.7-0.6,1.3-1.3,1.3C58.6,264.7,58,264.1,58,263.3z"/>
<path class="st0" d="M61.3,267.7l0.3-1.8h1l0.6-3.6h2.2l-0.6,3.6h1.7l-0.3,1.8h-1.7l-0.5,2.6c-0.1,0.7,0.1,0.9,0.4,0.9
	c0.3,0,0.5-0.1,0.8-0.2l0.7,1.5c-0.5,0.4-1.2,0.6-1.8,0.6c-1.4,0-2.5-0.6-2.2-2.8l0.5-2.6H61.3z"/>
<path class="st0" d="M68.9,261.6h0.2l4.2,6l6.5-6H80l-2,11.2h-2.2l0.7-4.2c0.1-0.8,0.4-2,0.4-2c-0.4,0.6-0.9,1.1-1.4,1.6l-2.6,2.4
	h-0.2l-1.7-2.5c-0.4-0.6-1-1.6-1-1.6s-0.1,1.3-0.2,2l-0.7,4.2H67L68.9,261.6z"/>
<path class="st0" d="M79.7,270.8l1.8-1.2c0.5,0.9,1.3,1.4,2.3,1.5c0.9,0,1.6-0.5,1.6-1.2S85,269,84,268.3l-0.5-0.4
	c-1.4-0.9-2.1-1.8-2.1-3.3c0-1.7,1.1-3.1,3.5-3.1c1.2,0,2.3,0.5,3,1.4l-1.6,1.4c-0.3-0.5-0.9-0.8-1.5-0.8c-0.5-0.1-1.1,0.3-1.1,0.9
	c0,0,0,0.1,0,0.1c0,0.6,0.3,0.9,1.1,1.4l0.5,0.4c1.5,1,2.4,1.8,2.4,3.4c0,2.2-1.7,3.3-3.9,3.3C82.1,273,80.6,272.2,79.7,270.8z"/>
<path class="st0" d="M97.1,272.9h-2.4l-1.5-2.8c-0.2,0-0.3,0-0.5,0h-1.1l-0.5,2.8h-2.2l2-11.1h2.5c2.9,0,4.6,1.5,4.6,4
	c0.1,1.7-0.9,3.3-2.5,3.8L97.1,272.9z M92.8,268.2c1.8,0,2.8-0.8,2.8-2.5c0-1.5-0.9-2-2.5-2h-0.4l-0.8,4.5L92.8,268.2z"/>
<path class="st0" d="M102.5,271.2c0.6,0,1.2-0.2,1.7-0.6l1.3,1.4c-0.8,0.7-1.9,1.1-3,1c-2.5,0-3.9-1.5-3.9-3.6
	c-0.1-2,1.5-3.6,3.5-3.7c0.1,0,0.2,0,0.3,0c2.5,0,3.6,1.6,3.7,3.9l-5.2,0.6C101,270.9,101.7,271.4,102.5,271.2z M103.6,268.7
	c0-0.7-0.5-1.2-1.1-1.2c0,0-0.1,0-0.1,0c-0.8-0.1-1.5,0.6-1.6,1.4c0,0.1,0,0.1,0,0.2L103.6,268.7z"/>
<path class="st0" d="M106.4,271.6l1.5-1c0.3,0.5,0.9,0.8,1.5,0.8c0.7,0,0.8-0.2,0.8-0.4s-0.3-0.3-1.3-0.8c-0.9-0.3-1.6-1.1-1.6-2.1
	c0-1.5,1.1-2.2,2.6-2.2c0.9,0,1.8,0.3,2.4,1L111,268c-0.2-0.3-0.6-0.5-1-0.5c-0.4,0-0.6,0.2-0.6,0.4s0.3,0.4,1,0.7
	c1.2,0.5,2,1,2,2.3s-1,2.2-2.9,2.2C108.2,273.1,107.1,272.6,106.4,271.6z"/>
<path class="st0" d="M114.6,265.9h2.2l-0.2,1c0.4-0.7,1.2-1.1,2-1.2c1.6,0,2.8,1.3,2.8,3.3c0,2.4-1.6,3.9-3.3,3.9
	c-1,0.1-1.9-0.5-2.3-1.4l-0.8,4.7h-2.2L114.6,265.9z M119.2,269.2c0.1-0.8-0.4-1.5-1.2-1.6c-0.1,0-0.2,0-0.2,0
	c-0.9,0-1.7,0.8-1.6,1.8c0,0,0,0.1,0,0.1c0,1,0.5,1.6,1.4,1.6S119.2,270.4,119.2,269.2z"/>
<path class="st0" d="M122.5,269.5c0-2,1.6-3.7,3.6-3.7c0.1,0,0.2,0,0.3,0c1.9-0.1,3.6,1.4,3.6,3.4c0,0.1,0,0.1,0,0.2
	c0,2-1.6,3.7-3.6,3.7c-0.1,0-0.2,0-0.3,0c-2,0.1-3.6-1.5-3.6-3.4C122.5,269.6,122.5,269.5,122.5,269.5z M127.8,269.3
	c0.1-0.8-0.5-1.6-1.3-1.7c-0.1,0-0.1,0-0.2,0c-1,0-1.6,0.8-1.6,1.9c-0.1,0.8,0.5,1.6,1.3,1.7c0.1,0,0.1,0,0.2,0
	C127.2,271.2,127.8,270.4,127.8,269.3z"/>
<path class="st0" d="M132.1,265.9h2.2l-0.3,1.3c0.4-0.9,1.3-1.4,2.3-1.4c1.5,0,2.4,1.3,2.1,3.3l-0.3,1.8c-0.1,0.3,0,0.4,0.3,0.4h0.5
	l-0.3,1.6h-0.8c-1.6,0-2.1-0.4-1.9-2l0.3-1.8c0.2-0.9-0.2-1.4-1-1.4s-1.3,0.4-1.5,1.4l-0.7,3.8h-2.2L132.1,265.9z"/>
<path class="st0" d="M139.4,271.6l1.5-1c0.3,0.5,0.9,0.8,1.5,0.8c0.6,0,0.8-0.2,0.8-0.4s-0.3-0.3-1.3-0.8c-0.9-0.3-1.6-1.1-1.6-2.1
	c0-1.5,1.1-2.2,2.6-2.2c0.9,0,1.8,0.3,2.4,1L144,268c-0.2-0.3-0.6-0.5-1-0.5c-0.4,0-0.6,0.2-0.6,0.4s0.3,0.4,1,0.7
	c1.2,0.5,2,1,2,2.3s-1,2.2-2.9,2.2C141.2,273.1,140.1,272.6,139.4,271.6z"/>
<path class="st0" d="M146.8,270.9l0.9-5h2.2l-0.9,4.9c-0.1,0.3,0,0.4,0.3,0.4h0.5l-0.3,1.6h-0.8
	C147.1,272.9,146.5,272.5,146.8,270.9z M147.9,263.3c0-0.7,0.5-1.3,1.3-1.3c0,0,0,0,0.1,0c0.7,0,1.3,0.6,1.4,1.3
	c0,0.7-0.6,1.3-1.3,1.4C148.5,264.7,147.9,264.1,147.9,263.3C147.9,263.4,147.9,263.4,147.9,263.3z"/>
<path class="st0" d="M153.1,271.6l-0.2,1.3h-2.2l2.1-11.8h2.1l-1,5.8c0.4-0.7,1.2-1.1,2-1.1c1.6,0,2.8,1.3,2.8,3.3
	c0,2.4-1.6,3.9-3.3,3.9C154.5,273.1,153.5,272.5,153.1,271.6z M156.5,269.2c0.1-0.8-0.4-1.5-1.2-1.6c-0.1,0-0.2,0-0.2,0
	c-0.9,0-1.7,0.8-1.6,1.7c0,0.1,0,0.1,0,0.2c0,1,0.5,1.6,1.4,1.6S156.5,270.4,156.5,269.2z"/>
<path class="st0" d="M160,270.9l1.7-9.8h2.2l-1.7,9.8c0,0.3,0.1,0.4,0.3,0.4h0.6l-0.3,1.6h-1C160.3,272.9,159.7,272.5,160,270.9z"/>
<path class="st0" d="M163.5,275.2l1.4-1.4c0.4,0.6,1.1,0.9,1.8,0.9c1,0,1.6-0.5,1.8-1.7l0.2-1.1c-0.5,0.7-1.3,1.1-2.2,1.1
	c-1.5,0-2.4-1.3-2.1-3.3l0.7-3.9h2.2l-0.7,3.8c-0.2,0.9,0.2,1.4,1,1.4s1.3-0.4,1.5-1.4l0.7-3.8h2.2l-1.3,7.4c-0.2,2-2,3.4-4,3.2
	C165.5,276.6,164.3,276.1,163.5,275.2z"/>
</svg>
