<?xml version="1.0" encoding="utf-8"?>
<!-- Generator: Adobe Illustrator 25.0.0, SVG Export Plug-In . SVG Version: 6.00 Build 0)  -->
<svg version="1.1" id="Layer_1" xmlns="http://www.w3.org/2000/svg" xmlns:xlink="http://www.w3.org/1999/xlink" x="0px" y="0px"
	 viewBox="0 0 300 600" style="enable-background:new 0 0 300 600;" xml:space="preserve">
<style type="text/css">
	.st0{fill:#93C848;}
	.st1{fill:#F96302;}
</style>
<path class="st0" d="M47.4,32.1c0,7.7-6.2,13.9-13.9,13.9c-7.7,0-13.9-6.2-13.9-13.9s6.2-13.9,13.9-13.9c0,0,0,0,0,0
	C41.2,18.1,47.4,24.4,47.4,32.1C47.4,32.1,47.4,32.1,47.4,32.1"/>
<polygon class="st1" points="37.3,33 36.2,27.6 33.6,31.5 30.9,27.6 29.9,33 29.8,32.9 25.2,30 28.8,38.4 38.3,38.4 41.9,30 "/>
<path class="st1" d="M39.1,29.4c0.6,0.1,1.2-0.4,1.3-1c0.1-0.6-0.4-1.2-1-1.3c-0.1,0-0.1,0-0.2,0c-0.6,0.1-1.1,0.6-1,1.3
	C38.1,28.9,38.5,29.3,39.1,29.4"/>
<path class="st1" d="M28.1,29.4c0.6,0,1.2-0.5,1.2-1.1c0-0.6-0.5-1.2-1.1-1.2s-1.2,0.5-1.2,1.1c0,0,0,0,0,0
	C26.9,28.9,27.4,29.4,28.1,29.4C28.1,29.4,28.1,29.4,28.1,29.4"/>
<path class="st1" d="M33.6,27.4c0.6,0,1.2-0.5,1.2-1.2s-0.5-1.2-1.2-1.2s-1.2,0.5-1.2,1.2l0,0C32.4,26.9,32.9,27.4,33.6,27.4"/>
</svg>
