<svg id="Layer_1" data-name="Layer 1" xmlns="http://www.w3.org/2000/svg" viewBox="0 0 970 600"><defs><style>.cls-1{fill:#fff;}</style></defs><path class="cls-1" d="M119.72,122.55h16v15.11a22.35,22.35,0,0,1-4.45,3.87,22.59,22.59,0,0,1-12.94,3.83c-12.31,0-21.66-9.41-21.66-20.81s9.35-20.81,21.66-20.81a21.62,21.62,0,0,1,12.6,4,22,22,0,0,1,4.22,4l-5.7,5.7a17.83,17.83,0,0,0-2.91-2.85,13.47,13.47,0,0,0-8.21-2.85,12.83,12.83,0,0,0,0,25.65,13.29,13.29,0,0,0,6.56-1.53,9.78,9.78,0,0,0,2.28-1.6v-4.85h-7.41Z"/><path class="cls-1" d="M167,140.51a14.49,14.49,0,0,1-3.08,2.28,18.08,18.08,0,0,1-8.89,2.28,14.54,14.54,0,1,1-.29-29.07,14,14,0,0,1,14,14,23.92,23.92,0,0,1-.17,2.45l-.12,1H148.22c.85,2.57,3.13,4.85,7.41,4.85a9.86,9.86,0,0,0,5.53-1.54,7.52,7.52,0,0,0,1.88-1.6Zm-6.27-12.83a6.48,6.48,0,0,0-12.54,0Z"/><path class="cls-1" d="M175.58,124.26h-4.85v-7.12h2.57c2.1,0,3.13-1.14,3.13-3.42v-5.13h6.84v8.55h6.27v7.12h-6.27v9.41c0,2.56,1.43,4,3.71,4a8.48,8.48,0,0,0,2.22-.29,4,4,0,0,0,.91-.28v7.12c-.45.18-1,.29-1.48.46a15.65,15.65,0,0,1-3.65.4c-5.7,0-9.4-3.65-9.4-10.26Z"/><path class="cls-1" d="M209.78,133.38a14.11,14.11,0,0,0,2.33,2.17,10.82,10.82,0,0,0,6.22,2.11c4.56,0,7.12-2.57,7.12-6s-2.51-6-6.84-6a7.74,7.74,0,0,0-4.9,1.59,8.39,8.39,0,0,0-1.65,1.54l-6-.85,1.43-23.37h24.22v8H214.91l-.29,7.12a4.89,4.89,0,0,1,1.54-.68,11.07,11.07,0,0,1,4.16-.74c8.27,0,14,5.64,14,13.39s-6,13.69-15.11,13.69a20.77,20.77,0,0,1-11.29-3.14,17.36,17.36,0,0,1-3.82-3.14Z"/><path class="cls-1" d="M238.27,124.55c0-12.83,8-20.81,17.11-20.81s17.1,8,17.1,20.81-8,20.81-17.1,20.81S238.27,137.37,238.27,124.55Zm25.66,0c0-8.55-4.28-12.83-8.55-12.83s-8.55,4.28-8.55,12.83,4.27,12.82,8.55,12.82S263.93,133.1,263.93,124.55Z"/><path class="cls-1" d="M285.58,103.74a9.41,9.41,0,1,1-9.69,9.41A9.49,9.49,0,0,1,285.58,103.74Zm20.81.86h7.13l-25.08,39.9h-7.13Zm-20.81,12.54a4,4,0,1,0-4-4A3.9,3.9,0,0,0,285.58,117.14Zm23.66,9.4a9.41,9.41,0,1,1-9.69,9.41A9.48,9.48,0,0,1,309.24,126.54Zm4,9.41a4,4,0,1,0-4,4A3.9,3.9,0,0,0,313.23,136Z"/><path class="cls-1" d="M347.14,116a14.54,14.54,0,1,1-14.82,14.53A14.66,14.66,0,0,1,347.14,116Zm7.13,14.53a7.13,7.13,0,1,0-7.13,7.41A7.13,7.13,0,0,0,354.27,130.53Z"/><path class="cls-1" d="M368.23,124.26H364v-7.12h4.27v-1.71c0-6.62,3.71-10.26,9.41-10.26a12.34,12.34,0,0,1,3.25.45c.45.17.91.29,1.31.4v7.13a5.58,5.58,0,0,1-.74-.29,5.63,5.63,0,0,0-1.83-.28c-2.28,0-3.7,1.42-3.7,4v.57h10.26v-2.85c0-6.62,3.71-10.26,9.41-10.26a15.49,15.49,0,0,1,3.65.45c.51.17,1,.29,1.48.4V112a7.9,7.9,0,0,1-.92-.29,8.39,8.39,0,0,0-2.22-.28c-2.28,0-3.7,1.42-3.7,4v1.71h6.27v7.12h-6.27V144.5h-7.7V124.26H375.93V144.5h-7.7Z"/><path class="cls-1" d="M71.27,205.08H71a11.44,11.44,0,0,1-2.11,2,9.88,9.88,0,0,1-6.15,2c-5.13,0-8.55-3.42-8.55-8s3.08-8,8.26-9l8.84-1.6c-.29-2-1.94-3.7-4.85-3.7a7.36,7.36,0,0,0-4.61,1.59A8.74,8.74,0,0,0,60.15,190l-4.56-4.56A15,15,0,0,1,67,180c7.13,0,12,4.9,12,11.11V208.5H71.27Zm0-9.12L65,197.1c-2,.4-3.14,1.42-3.14,2.85,0,1.77,1.14,2.85,3.42,2.85a5.92,5.92,0,0,0,6-6.27Z"/><path class="cls-1" d="M85.23,180.57h7.7v4h.28a13.07,13.07,0,0,1,2.11-2.28,9.51,9.51,0,0,1,6.16-2.28c5.7,0,10.26,4.56,10.26,11.68V208.5H104V192.82c0-3.42-1.93-5.41-5.13-5.41a5.91,5.91,0,0,0-6,6.27V208.5h-7.7Z"/><path class="cls-1" d="M138,204.51h-.29a10.33,10.33,0,0,1-2.16,2.28,11,11,0,0,1-6.67,2.28c-6.62,0-12.54-6-12.54-14.54S122.22,180,128.84,180a11,11,0,0,1,6.67,2.28,10.11,10.11,0,0,1,2.16,2.28H138v-16h7.69v39.9H138Zm.28-10a7.13,7.13,0,1,0-7.12,7.41A7.12,7.12,0,0,0,138.24,194.53Z"/><path class="cls-1" d="M166.17,197.38a11.23,11.23,0,0,0,2.45,2.17,12.33,12.33,0,0,0,7,2.11c4.56,0,6.55-2,6.55-4.56,0-6.79-19.95-3.76-19.95-17.67,0-5.7,3.93-9.64,10.55-11.4v-5.14h7.41V168a18.73,18.73,0,0,1,10,5.13l-5.7,5.7a13.59,13.59,0,0,0-2-1.71,9.82,9.82,0,0,0-5.42-1.71c-4.33,0-6,1.71-6,4,0,6.78,19.95,3.76,19.95,17.67,0,5.93-4.56,10.6-10.83,12v5.13h-7.41v-5.13a22.51,22.51,0,0,1-9.24-3.42,15,15,0,0,1-3-2.57Z"/><path class="cls-1" d="M194.38,188.55c0-12.83,8-20.81,17.11-20.81s17.1,8,17.1,20.81-8,20.81-17.1,20.81S194.38,201.37,194.38,188.55Zm25.66,0c0-8.55-4.28-12.83-8.55-12.83s-8.55,4.28-8.55,12.83,4.27,12.82,8.55,12.82S220,197.1,220,188.55Z"/><path class="cls-1" d="M264.78,204.51h-.28a10.38,10.38,0,0,1-2.17,2.28,11,11,0,0,1-6.67,2.28c-6.61,0-12.54-6-12.54-14.54S249.05,180,255.66,180a11,11,0,0,1,6.67,2.28,10.16,10.16,0,0,1,2.17,2.28h.28v-16h7.7v39.9h-7.7Zm.29-10a7.14,7.14,0,1,0-7.13,7.41A7.13,7.13,0,0,0,265.07,194.53Z"/><path class="cls-1" d="M304.11,204.51a14.24,14.24,0,0,1-3.08,2.28,18,18,0,0,1-8.89,2.28,14.54,14.54,0,1,1-.28-29.07,14,14,0,0,1,14,14,21.34,21.34,0,0,1-.17,2.45l-.11,1H285.3c.85,2.57,3.13,4.85,7.41,4.85a9.86,9.86,0,0,0,5.53-1.54,7.34,7.34,0,0,0,1.88-1.6Zm-6.27-12.83a6.48,6.48,0,0,0-12.54,0Z"/><path class="cls-1" d="M310.66,168.6h7.7v39.9h-7.7Z"/><path class="cls-1" d="M328.79,168.31a4.37,4.37,0,0,1,4.39,4.28,4.42,4.42,0,0,1-4.45,4.27,4.37,4.37,0,0,1-4.39-4.27A4.43,4.43,0,0,1,328.79,168.31Zm-3.88,12.26h7.7V208.5h-7.7Z"/><path class="cls-1" d="M334.89,180.57h8.26l6.44,18.81h.23l6.44-18.81h8.27L354,208.5h-8.55Z"/><path class="cls-1" d="M391.89,204.51a14.24,14.24,0,0,1-3.08,2.28,18.08,18.08,0,0,1-8.89,2.28,14.54,14.54,0,1,1-.29-29.07,14,14,0,0,1,14,14,21.34,21.34,0,0,1-.17,2.45l-.11,1H373.08c.85,2.57,3.13,4.85,7.41,4.85a9.86,9.86,0,0,0,5.53-1.54,7.34,7.34,0,0,0,1.88-1.6Zm-6.27-12.83a6.48,6.48,0,0,0-12.54,0Z"/><path class="cls-1" d="M398.16,180.57h7.69v4h.29a12.69,12.69,0,0,1,2.11-2.28A9.48,9.48,0,0,1,414.4,180H415v8.26l-.62-.11a13.2,13.2,0,0,0-1.94-.17c-3.71,0-6.56,2.85-6.56,7.41V208.5h-7.69Z"/><path class="cls-1" d="M418.1,212.49a4.13,4.13,0,0,0,.92.29,8.39,8.39,0,0,0,2.22.28,5,5,0,0,0,4.85-3.42l.57-1.43-10.84-27.64h8.27l6.56,18.52h.28l6.27-18.52h8.27l-11.4,30.21c-2.34,6.33-5.65,9.69-10.83,9.69a15.65,15.65,0,0,1-3.65-.4c-.52-.17-1-.28-1.49-.45Z"/><path class="cls-1" d="M114.59,244a14.54,14.54,0,1,1-14.82,14.53A14.66,14.66,0,0,1,114.59,244Zm7.12,14.53a7.13,7.13,0,1,0-7.12,7.41A7.12,7.12,0,0,0,121.71,258.53Z"/><path class="cls-1" d="M134,244.57h7.69v4H142a12.69,12.69,0,0,1,2.11-2.28,9.48,9.48,0,0,1,6.15-2.28c5.7,0,10.26,4.56,10.26,11.68V272.5h-7.69V256.82c0-3.42-1.94-5.41-5.13-5.41a5.92,5.92,0,0,0-6,6.27V272.5H134Z"/><path class="cls-1" d="M174.72,276.49a4.21,4.21,0,0,0,.91.29,8.53,8.53,0,0,0,2.23.28,5,5,0,0,0,4.84-3.42l.57-1.43-10.83-27.64h8.27l6.55,18.52h.29l6.27-18.52h8.26l-11.4,30.21c-2.33,6.33-5.64,9.69-10.83,9.69a15.78,15.78,0,0,1-3.65-.4c-.51-.17-1-.28-1.48-.45Z"/><path class="cls-1" d="M217.47,244a14.54,14.54,0,1,1-14.82,14.53A14.65,14.65,0,0,1,217.47,244Zm7.13,14.53a7.13,7.13,0,1,0-7.13,7.41A7.13,7.13,0,0,0,224.6,258.53Z"/><path class="cls-1" d="M236.85,244.57h7.7v15.67c0,3.42,1.93,5.42,5.13,5.42a5.92,5.92,0,0,0,6-6.27V244.57h7.7V272.5h-7.7v-4h-.28a13.44,13.44,0,0,1-2.11,2.28,9.64,9.64,0,0,1-6.16,2.28c-5.7,0-10.26-4.56-10.26-11.69Z"/><path class="cls-1" d="M269.62,244.57h7.7v4h.29a13,13,0,0,1,2.1-2.28,9.51,9.51,0,0,1,6.16-2.28h.57v8.26l-.63-.11a12.9,12.9,0,0,0-1.93-.17c-3.71,0-6.56,2.85-6.56,7.41V272.5h-7.7Z"/><path class="cls-1" d="M301.54,252.26h-4.27v-7.12h4.27v-2.85c0-6.62,3.71-10.26,9.41-10.26a12.34,12.34,0,0,1,3.25.45c.46.17.91.29,1.31.4V240a6.17,6.17,0,0,1-.74-.29,5.61,5.61,0,0,0-1.82-.28c-2.28,0-3.71,1.42-3.71,4v1.71h18V272.5h-7.7V252.26H309.24V272.5h-7.7Zm21.84-19.95a4.37,4.37,0,0,1,4.39,4.28,4.42,4.42,0,0,1-4.45,4.27,4.37,4.37,0,0,1-4.39-4.27A4.43,4.43,0,0,1,323.38,232.31Z"/><path class="cls-1" d="M333.75,244.57h7.7v4h.28a13.07,13.07,0,0,1,2.11-2.28A9.51,9.51,0,0,1,350,244h.57v8.26l-.63-.11A13.06,13.06,0,0,0,348,252c-3.7,0-6.55,2.85-6.55,7.41V272.5h-7.7Z"/><path class="cls-1" d="M356,263.09a9.14,9.14,0,0,0,2,1.6,9.9,9.9,0,0,0,5.42,1.54c2.56,0,3.42-.86,3.42-2,0-3.13-14.25-2.56-14.25-11.68,0-4.56,4-8.55,11.11-8.55a15.66,15.66,0,0,1,8.1,2.16,13.48,13.48,0,0,1,2.73,2.11l-4.56,4.85a8.85,8.85,0,0,0-1.65-1.14,9.11,9.11,0,0,0-4.62-1.14c-2,0-2.85.85-2.85,1.71,0,3.13,14.26,2.56,14.26,11.68,0,4.79-4,8.84-11.69,8.84a16.29,16.29,0,0,1-8.89-2.56,13.71,13.71,0,0,1-3.08-2.57Z"/><path class="cls-1" d="M381.34,252.26H376.5v-7.12h2.56c2.11,0,3.14-1.14,3.14-3.42v-5.13H389v8.55h6.27v7.12H389v9.41c0,2.56,1.42,4,3.7,4a8.5,8.5,0,0,0,2.23-.29,4.2,4.2,0,0,0,.91-.28v7.12c-.46.18-1,.29-1.48.46a15.72,15.72,0,0,1-3.65.4c-5.7,0-9.41-3.65-9.41-10.26Z"/><path class="cls-1" d="M162.09,328.52v8H133.87c0-18.81,19.39-18.81,19.39-27.65,0-2.91-2.28-5.13-5.7-5.13a7,7,0,0,0-5.25,2.45,8.75,8.75,0,0,0-1.6,2.4l-6.84-3.42a16,16,0,0,1,3-4.68,14.74,14.74,0,0,1,11.29-4.73c8.55,0,14,5.47,14,12.54,0,11.35-12.54,13.17-17.1,20.24Z"/><path class="cls-1" d="M191.45,308a14.54,14.54,0,1,1-14.83,14.53A14.66,14.66,0,0,1,191.45,308Zm7.12,14.53a7.13,7.13,0,1,0-7.12,7.41A7.12,7.12,0,0,0,198.57,322.53Z"/><path class="cls-1" d="M210.82,308.57h7.7v4h.28a13.47,13.47,0,0,1,2.11-2.28,9.51,9.51,0,0,1,6.16-2.28h.57v8.26l-.63-.11a12.9,12.9,0,0,0-1.93-.17c-3.71,0-6.56,2.85-6.56,7.41V336.5h-7.7Z"/><path class="cls-1" d="M250.73,332.51h-.29a10.33,10.33,0,0,1-2.16,2.28,11,11,0,0,1-6.67,2.28c-6.62,0-12.55-6-12.55-14.54S235,308,241.61,308a11,11,0,0,1,6.67,2.28,10.11,10.11,0,0,1,2.16,2.28h.29v-16h7.69v39.9h-7.69Zm.28-10a7.13,7.13,0,1,0-7.12,7.41A7.12,7.12,0,0,0,251,322.53Z"/><path class="cls-1" d="M290.06,332.51a14.49,14.49,0,0,1-3.08,2.28,18.08,18.08,0,0,1-8.89,2.28A14.54,14.54,0,1,1,277.8,308a14,14,0,0,1,14,14,23.92,23.92,0,0,1-.17,2.45l-.12,1H271.25c.85,2.57,3.13,4.85,7.41,4.85a9.88,9.88,0,0,0,5.53-1.54,7.52,7.52,0,0,0,1.88-1.6Zm-6.27-12.83a6.48,6.48,0,0,0-12.54,0Z"/><path class="cls-1" d="M296.32,308.57H304v4h.28a13.47,13.47,0,0,1,2.11-2.28,9.51,9.51,0,0,1,6.16-2.28h.57v8.26l-.63-.11a12.9,12.9,0,0,0-1.93-.17c-3.71,0-6.56,2.85-6.56,7.41V336.5h-7.7Z"/><path class="cls-1" d="M318.55,327.09a9.2,9.2,0,0,0,2,1.6,9.86,9.86,0,0,0,5.41,1.54c2.57,0,3.42-.86,3.42-2,0-3.13-14.25-2.56-14.25-11.68,0-4.56,4-8.55,11.12-8.55a15.61,15.61,0,0,1,8.09,2.16,13.29,13.29,0,0,1,2.74,2.11l-4.56,4.85a9.57,9.57,0,0,0-1.65-1.14,9.16,9.16,0,0,0-4.62-1.14c-2,0-2.85.85-2.85,1.71,0,3.13,14.25,2.56,14.25,11.68,0,4.79-4,8.84-11.69,8.84a16.32,16.32,0,0,1-8.89-2.56,13.93,13.93,0,0,1-3.08-2.57Z"/><path class="cls-1" d="M344.77,328a4.56,4.56,0,1,1-4.56,4.56A4.5,4.5,0,0,1,344.77,328Z"/><path class="cls-1" d="M355.12,300.57l-3.82-.66,1-3.16,3.65,1.49-.49-4h3.32l-.5,4,3.66-1.49,1,3.16-3.82.66,2.83,3-2.66,2-2.16-3.49L355,305.56l-2.66-2Z"/><path class="cls-1" d="M155.35,377.93l-2.16-.54.45-1.35,2.07.81-.18-2.25H157l-.18,2.25,2.07-.81.45,1.35-2.16.54,1.44,1.8-1.08.9-1.26-2-1.26,2-1.08-.9Z"/><path class="cls-1" d="M161.63,374.6h1.8l6.94,9.27V374.6h2v12.6h-1.81l-6.93-9.27v9.27h-2Z"/><path class="cls-1" d="M183,385.76a3.52,3.52,0,0,1-.9.81,4.87,4.87,0,0,1-2.79.81,4.5,4.5,0,0,1-.1-9,4.1,4.1,0,0,1,4.24,4.23,4.66,4.66,0,0,1-.06.65l0,.25h-6.67a2.67,2.67,0,0,0,2.71,2.16,3.28,3.28,0,0,0,1.83-.57,3,3,0,0,0,.69-.6ZM181.6,382a2.33,2.33,0,0,0-2.35-2,2.51,2.51,0,0,0-2.52,2Z"/><path class="cls-1" d="M184.37,378.56h2l2,5.85,1.89-5.85h1.62l1.89,5.85,2-5.85h2l-3.06,8.64h-1.71L191,381.44l-1.89,5.76h-1.71Z"/><path class="cls-1" d="M210.16,385.58a4.68,4.68,0,0,1-3.69,1.8,4.49,4.49,0,1,1,3.6-7.29l-1.26,1.17a2.67,2.67,0,0,0-.59-.57,3,3,0,0,0-1.75-.6,2.79,2.79,0,1,0,1.78,5,3.86,3.86,0,0,0,.65-.63Z"/><path class="cls-1" d="M211.85,378.56h1.8v5a1.9,1.9,0,0,0,2,2.07,2.29,2.29,0,0,0,2.34-2.43v-4.68h1.8v8.64H218v-1.26a3.31,3.31,0,0,1-.68.72,3.09,3.09,0,0,1-2,.72c-2,0-3.42-1.42-3.42-3.78Z"/><path class="cls-1" d="M222.63,384.59a2.52,2.52,0,0,0,.62.6,2.74,2.74,0,0,0,1.63.57c1,0,1.53-.52,1.53-1.08,0-1.44-4.59-.7-4.59-3.78,0-1.35,1.19-2.52,3.15-2.52a4.58,4.58,0,0,1,2.31.6,3,3,0,0,1,.76.57l-1.17,1.17a3.51,3.51,0,0,0-.51-.36A2.73,2.73,0,0,0,225,380c-.91,0-1.35.45-1.35.9,0,1.44,4.6.72,4.6,3.78,0,1.44-1.25,2.7-3.34,2.7a4.2,4.2,0,0,1-2.55-.81,3.74,3.74,0,0,1-.87-.81Z"/><path class="cls-1" d="M231,380.27h-1.62v-1.71h1c.55,0,.81-.27.81-1v-1.89h1.62v2.88h2v1.71h-2v4.05c0,.9.41,1.35,1.26,1.35a2.09,2.09,0,0,0,.7-.12l.29-.15v1.71l-.38.15a3.49,3.49,0,0,1-1,.12c-1.73,0-2.7-1-2.7-2.88Z"/><path class="cls-1" d="M241,378.38a4.5,4.5,0,1,1-4.5,4.5A4.46,4.46,0,0,1,241,378.38Zm2.7,4.5a2.7,2.7,0,1,0-2.7,2.79A2.66,2.66,0,0,0,243.66,382.88Z"/><path class="cls-1" d="M247.42,378.56h1.8v1.26a2.63,2.63,0,0,1,.58-.72,2.83,2.83,0,0,1,1.94-.72,3.14,3.14,0,0,1,2,.72,3.39,3.39,0,0,1,.65.72,2.83,2.83,0,0,1,.67-.72,3.73,3.73,0,0,1,2.3-.72c1.71,0,3.15,1.44,3.15,3.69v5.13h-1.8v-5.13a1.78,1.78,0,0,0-1.8-2,2.11,2.11,0,0,0-2.07,2.34v4.77h-1.8v-5.13a1.78,1.78,0,0,0-1.8-2,2.11,2.11,0,0,0-2.07,2.34v4.77h-1.8Z"/><path class="cls-1" d="M270.71,385.76a3.36,3.36,0,0,1-.9.81,4.84,4.84,0,0,1-2.79.81,4.5,4.5,0,0,1-.09-9,4.09,4.09,0,0,1,4.23,4.23,4.92,4.92,0,0,1-.05.65l0,.25h-6.66a2.66,2.66,0,0,0,2.7,2.16,3.29,3.29,0,0,0,1.84-.57,2.77,2.77,0,0,0,.68-.6ZM269.27,382a2.32,2.32,0,0,0-2.34-2,2.51,2.51,0,0,0-2.52,2Z"/><path class="cls-1" d="M273.12,378.56h1.8v1.17a4.65,4.65,0,0,1,.67-.66,3,3,0,0,1,2-.69H278v1.89l-.24,0a3,3,0,0,0-.48-.06,2.47,2.47,0,0,0-2.35,2.61v4.41h-1.8Z"/><path class="cls-1" d="M280,384.59a2.48,2.48,0,0,0,.61.6,2.75,2.75,0,0,0,1.64.57c1,0,1.53-.52,1.53-1.08,0-1.44-4.6-.7-4.6-3.78,0-1.35,1.19-2.52,3.16-2.52a4.57,4.57,0,0,1,2.3.6,2.85,2.85,0,0,1,.76.57l-1.17,1.17a3.51,3.51,0,0,0-.51-.36,2.72,2.72,0,0,0-1.38-.36c-.92,0-1.35.45-1.35.9,0,1.44,4.59.72,4.59,3.78,0,1.44-1.24,2.7-3.33,2.7a4.23,4.23,0,0,1-2.56-.81,3.51,3.51,0,0,1-.86-.81Z"/><path class="cls-1" d="M295.12,378.38a4.5,4.5,0,1,1-4.5,4.5A4.46,4.46,0,0,1,295.12,378.38Zm2.7,4.5a2.7,2.7,0,1,0-2.7,2.79A2.66,2.66,0,0,0,297.82,382.88Z"/><path class="cls-1" d="M301.58,378.56h1.8v1.26a3.24,3.24,0,0,1,.67-.72,3.17,3.17,0,0,1,2-.72c2,0,3.42,1.42,3.42,3.78v5h-1.8v-5a1.9,1.9,0,0,0-2-2.07,2.29,2.29,0,0,0-2.34,2.43v4.68h-1.8Z"/><path class="cls-1" d="M312.09,374.6h1.8v12.6h-1.8Z"/><path class="cls-1" d="M315.94,389l.31.14a2.19,2.19,0,0,0,.77.13,1.64,1.64,0,0,0,1.53-1.17l.36-.91-3.51-8.64h2l2.44,6.39,2.43-6.39h2l-3.78,9.63c-.73,1.82-1.72,2.8-3.16,2.8a3.44,3.44,0,0,1-1-.13l-.38-.14Z"/></svg>