<svg id="Layer_1" data-name="Layer 1" xmlns="http://www.w3.org/2000/svg" xmlns:xlink="http://www.w3.org/1999/xlink" viewBox="0 0 300 250"><defs><style>.cls-1{fill:none;}.cls-2{clip-path:url(#clip-path);}.cls-3{fill:#130c0e;}.cls-4{clip-path:url(#clip-path-3);}.cls-5{fill:#fff;}.cls-6{clip-path:url(#clip-path-4);}.cls-7{clip-path:url(#clip-path-6);}.cls-8{clip-path:url(#clip-path-7);}.cls-9{isolation:isolate;}</style><clipPath id="clip-path"><rect class="cls-1" x="-320" width="300" height="250"/></clipPath><clipPath id="clip-path-3"><rect class="cls-1" width="300" height="250"/></clipPath><clipPath id="clip-path-4"><rect class="cls-1" x="320" width="300" height="250"/></clipPath><clipPath id="clip-path-6"><rect class="cls-1" x="640" width="300" height="250"/></clipPath><clipPath id="clip-path-7"><rect class="cls-1" x="663" y="39" width="127.06" height="21.32"/></clipPath></defs><g class="cls-2"><g class="cls-2"><path class="cls-3" d="M-241.22,9.85C-91.4,9.85,30.05,131.31,30.05,281.13S-91.4,552.41-241.22,552.41-512.5,431-512.5,281.13-391,9.85-241.22,9.85"/></g></g><g class="cls-4"><path class="cls-5" d="M25.84,71.8h6a5.58,5.58,0,0,1,4.11,1.35A3.91,3.91,0,0,1,37,76.08v0A4,4,0,0,1,34.43,80l3,4.39h-4l-2.53-3.82H29.34V84.4h-3.5Zm5.82,6c1.17,0,1.87-.58,1.87-1.5v0c0-1-.74-1.52-1.89-1.52h-2.3v3Z"/><path class="cls-5" d="M37.81,81.61v0c0-2,1.53-3.06,3.82-3.06a6.89,6.89,0,0,1,2.34.38v-.16c0-1-.63-1.6-1.94-1.6a7.22,7.22,0,0,0-2.7.54l-.71-2.4a9.82,9.82,0,0,1,4-.75,5,5,0,0,1,3.71,1.18,4.07,4.07,0,0,1,1,3.1v5.6H44v-1a3.74,3.74,0,0,1-2.88,1.25A3,3,0,0,1,37.81,81.61Zm6.2-.74v-.45a3.87,3.87,0,0,0-1.35-.25c-1,0-1.57.47-1.57,1.21v0a1.07,1.07,0,0,0,1.21,1.06A1.57,1.57,0,0,0,44,80.87Z"/><path class="cls-5" d="M48.87,71.26h3.54v2.52H48.87Zm.07,3.4h3.4V84.4h-3.4Z"/><path class="cls-5" d="M53.31,83.16l1.28-2a6.34,6.34,0,0,0,3.33,1.11c.6,0,.88-.18.88-.52v0c0-.39-.55-.55-1.58-.84-1.93-.51-3.46-1.15-3.46-3.1v0c0-2.07,1.66-3.22,3.91-3.22a7.6,7.6,0,0,1,4,1.14l-1.17,2.16a6.31,6.31,0,0,0-2.88-.92c-.52,0-.79.2-.79.48v0c0,.38.58.56,1.59.86,1.92.54,3.45,1.21,3.45,3.1v0c0,2.14-1.6,3.26-4,3.26A7.81,7.81,0,0,1,53.31,83.16Z"/><path class="cls-5" d="M62.53,79.58v0a4.88,4.88,0,0,1,4.91-5.1c3.35,0,4.9,2.47,4.9,5.33,0,.22,0,.47,0,.71H65.81a2,2,0,0,0,2.1,1.6,2.92,2.92,0,0,0,2.16-1L72,82.65a5.07,5.07,0,0,1-4.21,2A4.91,4.91,0,0,1,62.53,79.58Zm6.62-.85A1.75,1.75,0,0,0,67.44,77c-.9,0-1.51.69-1.69,1.77Z"/><path class="cls-5" d="M84.74,74.66h3.51l-3.56,9.51c-.85,2.28-1.77,3.16-3.71,3.16a6.07,6.07,0,0,1-3.12-.84l1-2.4a3.32,3.32,0,0,0,1.49.53.88.88,0,0,0,.81-.4L77.4,74.66H81l2,5.87Z"/><path class="cls-5" d="M88.14,79.58v0a5.19,5.19,0,0,1,5.39-5.1,5.14,5.14,0,0,1,5.36,5.06v0a5.19,5.19,0,0,1-5.4,5.09A5.13,5.13,0,0,1,88.14,79.58Zm7.44,0v0a2.13,2.13,0,0,0-2.09-2.22,2,2,0,0,0-2,2.18v0a2.11,2.11,0,0,0,2.07,2.2A2.05,2.05,0,0,0,95.58,79.58Z"/><path class="cls-5" d="M100,81V74.66h3.42v5.28c0,1.06.56,1.63,1.39,1.63a1.43,1.43,0,0,0,1.44-1.63V74.66h3.4V84.4h-3.4V83.05a3.6,3.6,0,0,1-2.92,1.57C101.26,84.62,100,83.23,100,81Z"/><path class="cls-5" d="M111.33,74.66h3.42v2a3,3,0,0,1,3.08-2.12v3.6h-.29c-1.79,0-2.79,1-2.79,3.26v3h-3.42Z"/><path class="cls-5" d="M123.22,86.2l1.1-2.27a6.7,6.7,0,0,0,3.4.92c1.7,0,2.54-.85,2.54-2.39v-.38a3.76,3.76,0,0,1-3,1.46A4.25,4.25,0,0,1,122.94,79v0a4.26,4.26,0,0,1,4.21-4.54,3.88,3.88,0,0,1,3.06,1.37V74.66h3.42v7.4A5.19,5.19,0,0,1,132.37,86c-.88.9-2.25,1.37-4.29,1.37A10.43,10.43,0,0,1,123.22,86.2ZM130.28,79v0a2,2,0,0,0-4,0v0a2,2,0,0,0,4,0Z"/><path class="cls-5" d="M134.78,81.61v0c0-2,1.53-3.06,3.82-3.06a6.89,6.89,0,0,1,2.34.38v-.16c0-1-.63-1.6-1.95-1.6a7.26,7.26,0,0,0-2.7.54l-.7-2.4a9.8,9.8,0,0,1,3.94-.75,5,5,0,0,1,3.71,1.18,4.07,4.07,0,0,1,1,3.1v5.6h-3.37v-1A3.76,3.76,0,0,1,138,84.62,3,3,0,0,1,134.78,81.61Zm6.19-.74v-.45a3.82,3.82,0,0,0-1.35-.25c-1,0-1.56.47-1.56,1.21v0a1.07,1.07,0,0,0,1.2,1.06A1.57,1.57,0,0,0,141,80.87Z"/><path class="cls-5" d="M145.88,74.66h3.43V76a3.58,3.58,0,0,1,2.9-1.55A3,3,0,0,1,155,76a4.12,4.12,0,0,1,3.26-1.59c2.07,0,3.33,1.3,3.33,3.57V84.4h-3.42V79.11c0-1.07-.52-1.64-1.33-1.64s-1.4.57-1.4,1.64V84.4H152V79.11c0-1.07-.54-1.64-1.35-1.64s-1.38.57-1.38,1.64V84.4h-3.43Z"/><path class="cls-5" d="M162.77,79.58v0a4.88,4.88,0,0,1,4.91-5.1c3.35,0,4.9,2.47,4.9,5.33,0,.22,0,.47,0,.71h-6.51a2,2,0,0,0,2.1,1.6,2.92,2.92,0,0,0,2.16-1l1.89,1.56a5.07,5.07,0,0,1-4.21,2A4.91,4.91,0,0,1,162.77,79.58Zm6.62-.85A1.75,1.75,0,0,0,167.68,77c-.9,0-1.51.69-1.69,1.77Z"/><path class="cls-5" d="M177.87,81.61v0c0-2,1.53-3.06,3.82-3.06a6.89,6.89,0,0,1,2.34.38v-.16c0-1-.63-1.6-1.95-1.6a7.3,7.3,0,0,0-2.7.54l-.7-2.4a9.8,9.8,0,0,1,3.94-.75,5,5,0,0,1,3.71,1.18,4.07,4.07,0,0,1,1,3.1v5.6H184v-1a3.74,3.74,0,0,1-2.88,1.25A3,3,0,0,1,177.87,81.61Zm6.19-.74v-.45a3.78,3.78,0,0,0-1.35-.25c-1,0-1.56.47-1.56,1.21v0a1.07,1.07,0,0,0,1.2,1.06A1.57,1.57,0,0,0,184.06,80.87Z"/><path class="cls-5" d="M189,74.66h3.42V76a3.61,3.61,0,0,1,2.91-1.59c2.08,0,3.32,1.37,3.32,3.59V84.4h-3.41V79.12c0-1.08-.55-1.65-1.38-1.65s-1.44.57-1.44,1.65V84.4H189Z"/><path class="cls-5" d="M199.83,79.58v0c0-3.17,2-5.1,4.3-5.1a3.65,3.65,0,0,1,3,1.41V71.26h3.43V84.4H207.1V83.1a3.56,3.56,0,0,1-2.95,1.52C201.83,84.62,199.83,82.69,199.83,79.58Zm7.35,0v0a2,2,0,1,0-4,0v0a2,2,0,1,0,4,0Z"/><path class="cls-5" d="M25.74,90.16h3.4V103.3h-3.4Z"/><path class="cls-5" d="M30.4,98.47v0a4.88,4.88,0,0,1,4.91-5.1c3.35,0,4.9,2.47,4.9,5.33,0,.22,0,.47,0,.71H33.68a2,2,0,0,0,2.1,1.6,2.92,2.92,0,0,0,2.16-1l1.89,1.56a5.07,5.07,0,0,1-4.21,2A4.91,4.91,0,0,1,30.4,98.47ZM37,97.63a1.75,1.75,0,0,0-1.71-1.77c-.9,0-1.51.69-1.69,1.77Z"/><path class="cls-5" d="M40.82,100.51v0c0-2,1.53-3.06,3.82-3.06a6.89,6.89,0,0,1,2.34.38v-.16c0-1-.63-1.6-1.95-1.6a7.26,7.26,0,0,0-2.7.54l-.7-2.4a9.8,9.8,0,0,1,3.94-.75,5,5,0,0,1,3.71,1.18,4.07,4.07,0,0,1,1,3.1v5.6H47v-1a3.74,3.74,0,0,1-2.88,1.25A3,3,0,0,1,40.82,100.51ZM47,99.77v-.45a3.82,3.82,0,0,0-1.35-.25c-1,0-1.56.47-1.56,1.21v0a1.07,1.07,0,0,0,1.2,1.06A1.57,1.57,0,0,0,47,99.77Z"/><path class="cls-5" d="M51.93,93.56h3.42v2a3,3,0,0,1,3.08-2.12V97h-.29c-1.78,0-2.79,1-2.79,3.26v3H51.93Z"/><path class="cls-5" d="M59.32,93.56h3.43v1.37a3.61,3.61,0,0,1,2.91-1.59c2.07,0,3.32,1.37,3.32,3.59v6.37H65.57V98c0-1.08-.56-1.65-1.38-1.65s-1.44.57-1.44,1.65v5.28H59.32Z"/><path class="cls-5" d="M75.63,100.28v-4H74.48V93.56h1.15V91.09H79v2.47H81.3V96.3H79v3.31c0,.68.3,1,.93,1a3,3,0,0,0,1.3-.32v2.66a4.89,4.89,0,0,1-2.38.58C76.84,103.5,75.63,102.6,75.63,100.28Z"/><path class="cls-5" d="M82.69,90.16h3.42v4.73A3.59,3.59,0,0,1,89,93.34c2.07,0,3.31,1.37,3.31,3.59v6.37h-3.4V98c0-1.08-.56-1.65-1.39-1.65s-1.44.57-1.44,1.65v5.28H82.69Z"/><path class="cls-5" d="M93.51,98.47v0a4.88,4.88,0,0,1,4.91-5.1c3.35,0,4.9,2.47,4.9,5.33,0,.22,0,.47,0,.71H96.78a2,2,0,0,0,2.11,1.6,2.92,2.92,0,0,0,2.16-1l1.89,1.56a5.09,5.09,0,0,1-4.21,2A4.91,4.91,0,0,1,93.51,98.47Zm6.62-.84a1.75,1.75,0,0,0-1.71-1.77c-.9,0-1.51.69-1.69,1.77Z"/><path class="cls-5" d="M109.08,90.16h3.42v6.66l2.64-3.26H119l-3.38,3.89,3.47,5.85h-3.78L113.38,100l-.88,1v2.3h-3.42Z"/><path class="cls-5" d="M118.92,98.47v0a4.89,4.89,0,0,1,4.92-5.1c3.35,0,4.89,2.47,4.89,5.33,0,.22,0,.47,0,.71H122.2a2,2,0,0,0,2.1,1.6,2.92,2.92,0,0,0,2.16-1l1.9,1.56a5.1,5.1,0,0,1-4.22,2A4.91,4.91,0,0,1,118.92,98.47Zm6.63-.84a1.77,1.77,0,0,0-1.71-1.77c-.9,0-1.52.69-1.7,1.77Z"/><path class="cls-5" d="M136.06,93.56h3.51L136,103.07c-.84,2.28-1.76,3.16-3.7,3.16a6.07,6.07,0,0,1-3.12-.84l1-2.4a3.28,3.28,0,0,0,1.49.53.89.89,0,0,0,.81-.4l-3.82-9.56h3.57l1.94,5.87Z"/><path class="cls-5" d="M144.25,102.06l1.28-2.06a6.24,6.24,0,0,0,3.33,1.12c.59,0,.88-.18.88-.52v0c0-.39-.56-.56-1.59-.84-1.92-.51-3.45-1.16-3.45-3.1v0c0-2.07,1.65-3.22,3.9-3.22a7.63,7.63,0,0,1,4,1.14l-1.17,2.16a6.38,6.38,0,0,0-2.88-.92c-.52,0-.79.2-.79.48v0c0,.38.57.56,1.58.86,1.93.54,3.46,1.21,3.46,3.1v0c0,2.14-1.61,3.26-4,3.26A7.78,7.78,0,0,1,144.25,102.06Z"/><path class="cls-5" d="M154.43,100.28v-4h-1.15V93.56h1.15V91.09h3.41v2.47h2.27V96.3h-2.27v3.31c0,.68.3,1,.93,1a3,3,0,0,0,1.3-.32v2.66a4.89,4.89,0,0,1-2.38.58C155.64,103.5,154.43,102.6,154.43,100.28Z"/><path class="cls-5" d="M160.88,98.47v0a4.88,4.88,0,0,1,4.91-5.1c3.35,0,4.9,2.47,4.9,5.33,0,.22,0,.47,0,.71h-6.51a2,2,0,0,0,2.1,1.6,2.92,2.92,0,0,0,2.16-1l1.89,1.56a5.07,5.07,0,0,1-4.21,2A4.91,4.91,0,0,1,160.88,98.47Zm6.62-.84a1.75,1.75,0,0,0-1.71-1.77c-.9,0-1.51.69-1.69,1.77Z"/><path class="cls-5" d="M171.93,93.56h3.42v1.3a3.57,3.57,0,0,1,3-1.52c2.33,0,4.32,1.93,4.32,5v0c0,3.17-2,5.1-4.3,5.1a3.66,3.66,0,0,1-3-1.41v4.07h-3.42Zm7.35,4.88v0a2,2,0,1,0-4,0v0a2,2,0,1,0,4,0Z"/><path class="cls-5" d="M183.05,102.06l1.28-2.06a6.3,6.3,0,0,0,3.33,1.12c.6,0,.89-.18.89-.52v0c0-.39-.56-.56-1.59-.84-1.92-.51-3.46-1.16-3.46-3.1v0c0-2.07,1.66-3.22,3.91-3.22a7.66,7.66,0,0,1,4,1.14l-1.17,2.16a6.38,6.38,0,0,0-2.88-.92c-.53,0-.8.2-.8.48v0c0,.38.58.56,1.59.86,1.92.54,3.45,1.21,3.45,3.1v0c0,2.14-1.6,3.26-4,3.26A7.84,7.84,0,0,1,183.05,102.06Z"/><path class="cls-5" d="M197.92,100.28v-4h-1.15V93.56h1.15V91.09h3.41v2.47h2.26V96.3h-2.26v3.31c0,.68.3,1,.93,1a3,3,0,0,0,1.3-.32v2.66a4.89,4.89,0,0,1-2.38.58C199.13,103.5,197.92,102.6,197.92,100.28Z"/><path class="cls-5" d="M204.31,98.47v0a5.19,5.19,0,0,1,5.39-5.1,5.14,5.14,0,0,1,5.36,5.06v0a5.19,5.19,0,0,1-5.4,5.09A5.13,5.13,0,0,1,204.31,98.47Zm7.44,0v0a2.13,2.13,0,0,0-2.09-2.22,2.05,2.05,0,0,0-2,2.18v0a2.11,2.11,0,0,0,2.08,2.19A2.05,2.05,0,0,0,211.75,98.47Z"/><path class="cls-5" d="M24.93,121l1.28-2A6.31,6.31,0,0,0,29.54,120c.59,0,.88-.18.88-.52v0c0-.39-.56-.55-1.59-.84-1.92-.51-3.45-1.16-3.45-3.1v0c0-2.07,1.65-3.22,3.9-3.22a7.63,7.63,0,0,1,4,1.14l-1.17,2.16a6.38,6.38,0,0,0-2.88-.92c-.52,0-.79.2-.79.48v0c0,.38.57.56,1.58.86,1.93.54,3.46,1.21,3.46,3.1v0c0,2.14-1.61,3.26-4,3.26A7.78,7.78,0,0,1,24.93,121Z"/><path class="cls-5" d="M34.63,118.82v-6.36h3.42v5.27c0,1.07.56,1.64,1.39,1.64a1.44,1.44,0,0,0,1.44-1.64v-5.27h3.4v9.74h-3.4v-1.35A3.6,3.6,0,0,1,38,122.42C35.89,122.42,34.63,121,34.63,118.82Z"/><path class="cls-5" d="M45.48,117.38v0a5,5,0,0,1,5.21-5.08,4.64,4.64,0,0,1,4.16,2.16l-2.31,1.73a2.2,2.2,0,0,0-1.82-1,2,2,0,0,0-1.92,2.18v0a2,2,0,0,0,1.94,2.21,2.25,2.25,0,0,0,1.87-1l2.29,1.66a4.83,4.83,0,0,1-4.32,2.23A5,5,0,0,1,45.48,117.38Z"/><path class="cls-5" d="M55.18,117.38v0a5,5,0,0,1,5.21-5.08,4.63,4.63,0,0,1,4.16,2.16l-2.31,1.73a2.18,2.18,0,0,0-1.82-1,2,2,0,0,0-1.92,2.18v0a2,2,0,0,0,1.94,2.21,2.25,2.25,0,0,0,1.87-1l2.29,1.66a4.83,4.83,0,0,1-4.32,2.23A5,5,0,0,1,55.18,117.38Z"/><path class="cls-5" d="M64.89,117.38v0a4.88,4.88,0,0,1,4.91-5.1c3.35,0,4.9,2.47,4.9,5.33,0,.22,0,.47,0,.71H68.16a2,2,0,0,0,2.11,1.6,2.92,2.92,0,0,0,2.16-1l1.89,1.56a5.09,5.09,0,0,1-4.21,2A4.91,4.91,0,0,1,64.89,117.38Zm6.62-.85a1.75,1.75,0,0,0-1.71-1.77c-.9,0-1.51.69-1.69,1.77Z"/><path class="cls-5" d="M75.13,121l1.28-2A6.31,6.31,0,0,0,79.74,120c.59,0,.88-.18.88-.52v0c0-.39-.56-.55-1.58-.84-1.93-.51-3.46-1.16-3.46-3.1v0c0-2.07,1.65-3.22,3.91-3.22a7.62,7.62,0,0,1,4,1.14l-1.17,2.16a6.38,6.38,0,0,0-2.88-.92c-.52,0-.79.2-.79.48v0c0,.38.57.56,1.58.86,1.93.54,3.46,1.21,3.46,3.1v0c0,2.14-1.6,3.26-4,3.26A7.78,7.78,0,0,1,75.13,121Z"/><path class="cls-5" d="M84.07,121l1.28-2A6.34,6.34,0,0,0,88.68,120c.6,0,.88-.18.88-.52v0c0-.39-.55-.55-1.58-.84-1.93-.51-3.46-1.16-3.46-3.1v0c0-2.07,1.66-3.22,3.91-3.22a7.66,7.66,0,0,1,4,1.14l-1.17,2.16a6.38,6.38,0,0,0-2.89-.92c-.52,0-.79.2-.79.48v0c0,.38.58.56,1.59.86,1.92.54,3.45,1.21,3.45,3.1v0c0,2.14-1.6,3.26-4,3.26A7.83,7.83,0,0,1,84.07,121Z"/><path class="cls-5" d="M94.32,115.2H93.18v-2.7h1.14v-.2a3.39,3.39,0,0,1,.82-2.52,3.35,3.35,0,0,1,2.56-.85,7.45,7.45,0,0,1,2.22.27v2.41a4.2,4.2,0,0,0-1.28-.19c-.63,0-1,.28-1,.91v.24h2.25v2.63H97.74v7H94.32Z"/><path class="cls-5" d="M100.63,118.82v-6.36h3.42v5.27c0,1.07.56,1.64,1.39,1.64a1.44,1.44,0,0,0,1.44-1.64v-5.27h3.4v9.74h-3.4v-1.35a3.6,3.6,0,0,1-2.92,1.57C101.89,122.42,100.63,121,100.63,118.82Z"/><path class="cls-5" d="M112,109.06h3.4V122.2H112Z"/><path class="cls-5" d="M117.12,109.06h3.4V122.2h-3.4Z"/><path class="cls-5" d="M128.61,112.46h3.51L128.55,122c-.84,2.28-1.76,3.16-3.71,3.16a6.06,6.06,0,0,1-3.11-.84l1-2.4a3.35,3.35,0,0,0,1.5.53.9.9,0,0,0,.81-.4l-3.82-9.56h3.57l1.94,5.87Z"/><path class="cls-5" d="M137.51,112.46h3.43v2A3,3,0,0,1,144,112.3v3.6h-.28c-1.79,0-2.79,1-2.79,3.26v3h-3.43Z"/><path class="cls-5" d="M144.1,119.41v0c0-2,1.53-3.06,3.82-3.06a6.89,6.89,0,0,1,2.34.38v-.16c0-1-.63-1.6-1.94-1.6a7.22,7.22,0,0,0-2.7.54l-.71-2.4a9.82,9.82,0,0,1,4-.75,5,5,0,0,1,3.71,1.18,4.11,4.11,0,0,1,1,3.1v5.6h-3.37v-1a3.74,3.74,0,0,1-2.88,1.25A3,3,0,0,1,144.1,119.41Zm6.2-.74v-.45A3.87,3.87,0,0,0,149,118c-1,0-1.57.47-1.57,1.21v0a1.07,1.07,0,0,0,1.21,1.06A1.57,1.57,0,0,0,150.3,118.67Z"/><path class="cls-5" d="M155.15,109.06h3.55v2.52h-3.55Zm.08,3.4h3.4v9.74h-3.4Z"/><path class="cls-5" d="M159.6,121l1.28-2a6.34,6.34,0,0,0,3.33,1.11c.59,0,.88-.18.88-.52v0c0-.39-.56-.55-1.58-.84-1.93-.51-3.46-1.16-3.46-3.1v0c0-2.07,1.66-3.22,3.91-3.22a7.6,7.6,0,0,1,4,1.14l-1.17,2.16a6.35,6.35,0,0,0-2.88-.92c-.52,0-.79.2-.79.48v0c0,.38.58.56,1.58.86,1.93.54,3.46,1.21,3.46,3.1v0c0,2.14-1.6,3.26-4,3.26A7.78,7.78,0,0,1,159.6,121Z"/><path class="cls-5" d="M168.82,117.38v0a4.88,4.88,0,0,1,4.91-5.1c3.35,0,4.9,2.47,4.9,5.33,0,.22,0,.47,0,.71h-6.52a2,2,0,0,0,2.11,1.6,2.92,2.92,0,0,0,2.16-1l1.89,1.56a5.08,5.08,0,0,1-4.21,2A4.91,4.91,0,0,1,168.82,117.38Zm6.62-.85a1.75,1.75,0,0,0-1.71-1.77c-.9,0-1.51.69-1.69,1.77Z"/><path class="cls-5" d="M184,117.38v0a5,5,0,0,1,5.2-5.08,4.63,4.63,0,0,1,4.16,2.16l-2.3,1.73a2.2,2.2,0,0,0-1.82-1,2,2,0,0,0-1.93,2.18v0a2,2,0,0,0,2,2.21,2.27,2.27,0,0,0,1.87-1l2.28,1.66a4.82,4.82,0,0,1-4.32,2.23A5,5,0,0,1,184,117.38Z"/><path class="cls-5" d="M193.93,119.41v0c0-2,1.53-3.06,3.81-3.06a6.84,6.84,0,0,1,2.34.38v-.16c0-1-.63-1.6-1.94-1.6a7.22,7.22,0,0,0-2.7.54l-.7-2.4a9.73,9.73,0,0,1,3.94-.75,5,5,0,0,1,3.71,1.18,4.07,4.07,0,0,1,1,3.1v5.6h-3.36v-1a3.78,3.78,0,0,1-2.89,1.25A3,3,0,0,1,193.93,119.41Zm6.19-.74v-.45a3.87,3.87,0,0,0-1.35-.25c-1,0-1.57.47-1.57,1.21v0a1.07,1.07,0,0,0,1.21,1.06A1.57,1.57,0,0,0,200.12,118.67Z"/><path class="cls-5" d="M205,112.46h3.42v1.3a3.6,3.6,0,0,1,3-1.52c2.32,0,4.32,1.93,4.32,5.05v0c0,3.17-2,5.1-4.31,5.1a3.66,3.66,0,0,1-3-1.41v4.07H205Zm7.35,4.88v0a2,2,0,1,0-4,0v0a2,2,0,1,0,4,0Z"/><path class="cls-5" d="M217,109.06h3.54v2.52H217Zm.07,3.4h3.4v9.74H217Z"/><path class="cls-5" d="M222.64,119.18v-4h-1.16v-2.74h1.16V110H226v2.47h2.27v2.74H226v3.31c0,.68.3,1,.94,1a2.93,2.93,0,0,0,1.29-.32v2.66a4.89,4.89,0,0,1-2.38.58C223.84,122.4,222.64,121.5,222.64,119.18Z"/><path class="cls-5" d="M229.08,119.41v0c0-2,1.53-3.06,3.82-3.06a6.89,6.89,0,0,1,2.34.38v-.16c0-1-.63-1.6-2-1.6a7.26,7.26,0,0,0-2.7.54l-.7-2.4a9.8,9.8,0,0,1,3.94-.75,5,5,0,0,1,3.71,1.18,4.07,4.07,0,0,1,1.05,3.1v5.6h-3.37v-1a3.74,3.74,0,0,1-2.88,1.25A3,3,0,0,1,229.08,119.41Zm6.19-.74v-.45a3.82,3.82,0,0,0-1.35-.25c-1,0-1.56.47-1.56,1.21v0a1.07,1.07,0,0,0,1.2,1.06A1.57,1.57,0,0,0,235.27,118.67Z"/><path class="cls-5" d="M240.24,109.06h3.4V122.2h-3.4Z"/><path class="cls-5" d="M244.92,123.86c1.2-.13,1.85-.72,1.8-1.7h-1.37v-3.51h3.55v2.87c0,2.66-1.46,3.58-3.69,3.65Z"/><path class="cls-5" d="M25,131.36h3.33l1.28,4.9,1.51-4.94h2.81l1.52,5,1.31-4.93H40l-3,9.81H34.06l-1.59-5.08-1.62,5.08H27.93Z"/><path class="cls-5" d="M40.71,128h3.55v2.52H40.71Zm.08,3.4h3.4v9.74h-3.4Z"/><path class="cls-5" d="M46.4,138.07v-4H45.25v-2.74H46.4v-2.47h3.4v2.47h2.27v2.74H49.8v3.31c0,.68.31,1,.94,1a3.15,3.15,0,0,0,1.3-.32v2.66a5,5,0,0,1-2.38.58C47.61,141.3,46.4,140.4,46.4,138.07Z"/><path class="cls-5" d="M53.46,128h3.42v4.73a3.58,3.58,0,0,1,2.91-1.55c2.08,0,3.32,1.37,3.32,3.59v6.37H59.7v-5.28c0-1.08-.55-1.65-1.38-1.65s-1.44.57-1.44,1.65v5.28H53.46Z"/><path class="cls-5" d="M68.77,136.27v0a5.38,5.38,0,0,1,10.75,0v0a5.38,5.38,0,0,1-10.75,0Zm7.44,0v0A2.13,2.13,0,0,0,74.12,134a2,2,0,0,0-2,2.18v0a2.1,2.1,0,0,0,2.07,2.19A2.05,2.05,0,0,0,76.21,136.27Z"/><path class="cls-5" d="M80.64,137.71v-6.35h3.42v5.27c0,1.07.56,1.64,1.38,1.64a1.44,1.44,0,0,0,1.44-1.64v-5.27h3.41v9.74H86.88v-1.35A3.6,3.6,0,0,1,84,141.32C81.9,141.32,80.64,139.93,80.64,137.71Z"/><path class="cls-5" d="M92,131.36h3.42v2a3,3,0,0,1,3.08-2.12v3.6h-.29c-1.78,0-2.79,1-2.79,3.26v3H92Z"/><path class="cls-5" d="M104.54,134.1h-1.13v-2.71h1.13v-.19a3.35,3.35,0,0,1,.83-2.52,3.31,3.31,0,0,1,2.55-.85,7.41,7.41,0,0,1,2.22.27v2.41a4.14,4.14,0,0,0-1.28-.2c-.63,0-1,.29-1,.92v.24h2.25v2.63H108v7h-3.42Z"/><path class="cls-5" d="M111,131.36h3.42v2a3,3,0,0,1,3.08-2.12v3.6h-.28c-1.79,0-2.8,1-2.8,3.26v3H111Z"/><path class="cls-5" d="M118,136.27v0a4.89,4.89,0,0,1,4.92-5.1c3.34,0,4.89,2.47,4.89,5.33,0,.22,0,.47,0,.7h-6.51a2,2,0,0,0,2.1,1.61,2.92,2.92,0,0,0,2.16-1l1.89,1.56a5.07,5.07,0,0,1-4.21,2A4.91,4.91,0,0,1,118,136.27Zm6.63-.84a1.77,1.77,0,0,0-1.71-1.77c-.91,0-1.52.69-1.7,1.77Z"/><path class="cls-5" d="M128.55,136.27v0a4.89,4.89,0,0,1,4.92-5.1c3.35,0,4.89,2.47,4.89,5.33,0,.22,0,.47,0,.7h-6.52a2,2,0,0,0,2.1,1.61,2.92,2.92,0,0,0,2.16-1l1.9,1.56a5.1,5.1,0,0,1-4.22,2A4.91,4.91,0,0,1,128.55,136.27Zm6.63-.84a1.77,1.77,0,0,0-1.71-1.77c-.9,0-1.52.69-1.7,1.77Z"/><path class="cls-5" d="M143.74,136.27v0a5.38,5.38,0,0,1,10.75,0v0a5.19,5.19,0,0,1-5.4,5.09A5.13,5.13,0,0,1,143.74,136.27Zm7.44,0v0a2.13,2.13,0,0,0-2.09-2.22,2,2,0,0,0-2,2.18v0a2.1,2.1,0,0,0,2.07,2.19A2.05,2.05,0,0,0,151.18,136.27Z"/><path class="cls-5" d="M155.68,131.36h3.42v1.37a3.61,3.61,0,0,1,2.91-1.59c2.07,0,3.32,1.37,3.32,3.59v6.37h-3.41v-5.28c0-1.08-.55-1.65-1.38-1.65s-1.44.57-1.44,1.65v5.28h-3.42Z"/><path class="cls-5" d="M167,128h3.4V141.1H167Z"/><path class="cls-5" d="M172.07,128h3.55v2.52h-3.55Zm.08,3.4h3.4v9.74h-3.4Z"/><path class="cls-5" d="M177.24,131.36h3.42v1.37a3.62,3.62,0,0,1,2.92-1.59c2.07,0,3.31,1.37,3.31,3.59v6.37h-3.4v-5.28c0-1.08-.56-1.65-1.39-1.65s-1.44.57-1.44,1.65v5.28h-3.42Z"/><path class="cls-5" d="M188.06,136.27v0a4.88,4.88,0,0,1,4.91-5.1c3.35,0,4.9,2.47,4.9,5.33,0,.22,0,.47,0,.7h-6.52a2,2,0,0,0,2.11,1.61,2.92,2.92,0,0,0,2.16-1l1.89,1.56a5.07,5.07,0,0,1-4.21,2A4.91,4.91,0,0,1,188.06,136.27Zm6.62-.84a1.75,1.75,0,0,0-1.71-1.77c-.9,0-1.51.69-1.69,1.77Z"/><path class="cls-5" d="M203.25,136.27v0a5,5,0,0,1,5.2-5.08,4.65,4.65,0,0,1,4.16,2.16l-2.3,1.73a2.2,2.2,0,0,0-1.82-1,2,2,0,0,0-1.93,2.18v0a2,2,0,0,0,1.95,2.21,2.29,2.29,0,0,0,1.87-1l2.29,1.66a4.84,4.84,0,0,1-4.33,2.23A5,5,0,0,1,203.25,136.27Z"/><path class="cls-5" d="M212.9,136.27v0a5.38,5.38,0,0,1,10.75,0v0a5.19,5.19,0,0,1-5.4,5.09A5.13,5.13,0,0,1,212.9,136.27Zm7.43,0v0a2.13,2.13,0,0,0-2.08-2.22,2,2,0,0,0-2,2.18v0a2.11,2.11,0,0,0,2.07,2.19A2.05,2.05,0,0,0,220.33,136.27Z"/><path class="cls-5" d="M224.76,137.71v-6.35h3.42v5.27c0,1.07.56,1.64,1.39,1.64a1.44,1.44,0,0,0,1.44-1.64v-5.27h3.4v9.74H231v-1.35a3.6,3.6,0,0,1-2.92,1.57C226,141.32,224.76,139.93,224.76,137.71Z"/><path class="cls-5" d="M236.08,131.36h3.42v2a3,3,0,0,1,3.08-2.12v3.6h-.29c-1.78,0-2.79,1-2.79,3.26v3h-3.42Z"/><path class="cls-5" d="M242.72,139.86,244,137.8a6.27,6.27,0,0,0,3.33,1.12c.6,0,.88-.18.88-.52v0c0-.39-.55-.56-1.58-.84-1.93-.51-3.46-1.16-3.46-3.1v0c0-2.07,1.66-3.22,3.91-3.22a7.68,7.68,0,0,1,4,1.13l-1.17,2.17a6.31,6.31,0,0,0-2.88-.92c-.52,0-.79.2-.79.48v0c0,.38.58.56,1.59.86,1.92.54,3.45,1.21,3.45,3.1v0c0,2.14-1.6,3.26-4,3.26A7.81,7.81,0,0,1,242.72,139.86Z"/><path class="cls-5" d="M251.94,136.27v0a4.88,4.88,0,0,1,4.91-5.1c3.35,0,4.9,2.47,4.9,5.33,0,.22,0,.47,0,.7h-6.51a2,2,0,0,0,2.1,1.61,2.92,2.92,0,0,0,2.16-1l1.89,1.56a5.07,5.07,0,0,1-4.21,2A4.91,4.91,0,0,1,251.94,136.27Zm6.62-.84a1.75,1.75,0,0,0-1.71-1.77c-.9,0-1.51.69-1.69,1.77Z"/><path class="cls-5" d="M262.18,139.86l1.28-2.06a6.27,6.27,0,0,0,3.33,1.12c.59,0,.88-.18.88-.52v0c0-.39-.56-.56-1.58-.84-1.93-.51-3.46-1.16-3.46-3.1v0c0-2.07,1.66-3.22,3.91-3.22a7.68,7.68,0,0,1,4,1.13l-1.17,2.17a6.35,6.35,0,0,0-2.88-.92c-.52,0-.79.2-.79.48v0c0,.38.58.56,1.58.86,1.93.54,3.46,1.21,3.46,3.1v0c0,2.14-1.6,3.26-4,3.26A7.78,7.78,0,0,1,262.18,139.86Z"/><path class="cls-5" d="M272.19,138.48a2.15,2.15,0,0,1,4.3,0,2.17,2.17,0,0,1-2.15,2.15,2.17,2.17,0,0,1-2.15-2.15Z"/></g><g class="cls-6"><g class="cls-6"><path class="cls-3" d="M398.78,9.85c149.82,0,271.27,121.46,271.27,271.28S548.6,552.41,398.78,552.41,127.5,431,127.5,281.13,249,9.85,398.78,9.85"/></g></g></svg>