<svg id="Layer_1" data-name="Layer 1" xmlns="http://www.w3.org/2000/svg" xmlns:xlink="http://www.w3.org/1999/xlink" viewBox="0 0 300 250"><defs><style>.cls-1{fill:none;}.cls-2{clip-path:url(#clip-path);}.cls-3{fill:#130c0e;}.cls-4{clip-path:url(#clip-path-3);}.cls-5{fill:#4fc6e0;}.cls-6{clip-path:url(#clip-path-5);}.cls-7{clip-path:url(#clip-path-7);}.cls-8{clip-path:url(#clip-path-8);}.cls-9{isolation:isolate;}</style><clipPath id="clip-path"><rect class="cls-1" x="-320" width="300" height="250"/></clipPath><clipPath id="clip-path-3"><rect class="cls-1" width="300" height="250"/></clipPath><clipPath id="clip-path-5"><rect class="cls-1" x="320" width="300" height="250"/></clipPath><clipPath id="clip-path-7"><rect class="cls-1" x="640" width="300" height="250"/></clipPath><clipPath id="clip-path-8"><rect class="cls-1" x="663" y="39" width="127.06" height="21.32"/></clipPath></defs><g class="cls-2"><g class="cls-2"><path class="cls-3" d="M-241.22,9.85C-91.4,9.85,30.05,131.31,30.05,281.13S-91.4,552.41-241.22,552.41-512.5,431-512.5,281.13-391,9.85-241.22,9.85"/></g></g><g class="cls-4"><g class="cls-4"><rect class="cls-5" x="170" y="200.23" width="104.74" height="24.71" rx="4.12"/></g><path d="M180.57,209.5h5.76v1.74h-3.77v1.23H186v1.65h-3.41v2.58h-2Z"/><path d="M187.1,209.5h2v7.2h-2Z"/><path d="M190.22,209.5h1.86l3,3.8v-3.8h2v7.2h-1.74l-3.09-3.95v3.95h-2Z"/><path d="M198.1,209.5h2.79c2.56,0,4.05,1.48,4.05,3.55v0c0,2.07-1.51,3.62-4.09,3.62H198.1Zm2,1.75v3.68h.81a1.77,1.77,0,0,0,2-1.82v0a1.79,1.79,0,0,0-2-1.84Z"/><path d="M208.2,213.12v0a3.78,3.78,0,0,1,3.89-3.75,3.74,3.74,0,0,1,3.86,3.73v0a3.88,3.88,0,0,1-7.75,0Zm5.71,0v0a1.86,1.86,0,0,0-1.84-1.95,1.84,1.84,0,0,0-1.83,1.93v0a1.87,1.87,0,0,0,1.85,1.94A1.83,1.83,0,0,0,213.91,213.12Z"/><path d="M216.71,213.54v-4h2v4c0,1,.52,1.53,1.32,1.53s1.34-.47,1.34-1.48V209.5h2v4c0,2.31-1.33,3.34-3.38,3.34A3,3,0,0,1,216.71,213.54Z"/><path d="M226.15,211.24H224V209.5h6.3v1.74h-2.16v5.46h-2Z"/><path d="M233.63,209.5h2.11l1.72,2.78,1.71-2.78h2.11v7.2h-2v-4.14l-1.84,2.82h-.05l-1.83-2.81v4.13h-2Z"/><path d="M242.13,213.12v0a3.78,3.78,0,0,1,3.89-3.75,3.74,3.74,0,0,1,3.86,3.73v0a3.88,3.88,0,0,1-7.75,0Zm5.71,0v0a1.86,1.86,0,0,0-1.84-1.95,1.84,1.84,0,0,0-1.83,1.93v0A1.87,1.87,0,0,0,246,215,1.83,1.83,0,0,0,247.84,213.12Z"/><path d="M250.71,209.5h3.41a3.14,3.14,0,0,1,2.34.77,2.24,2.24,0,0,1,.64,1.67v0a2.29,2.29,0,0,1-1.48,2.23l1.72,2.51H255l-1.45-2.19h-.88v2.19h-2ZM254,213c.66,0,1.06-.33,1.06-.85v0c0-.58-.42-.87-1.08-.87h-1.31V213Z"/><path d="M257.92,209.5h5.79v1.68h-3.82v1.1h3.46v1.58h-3.46V215h3.87v1.7h-5.84Z"/></g><g class="cls-6"><g class="cls-6"><path class="cls-3" d="M398.78,9.85c149.82,0,271.27,121.46,271.27,271.28S548.6,552.41,398.78,552.41,127.5,431,127.5,281.13,249,9.85,398.78,9.85"/></g></g></svg>