<svg id="Layer_1" data-name="Layer 1" xmlns="http://www.w3.org/2000/svg" xmlns:xlink="http://www.w3.org/1999/xlink" viewBox="0 0 300 250"><defs><style>.cls-1{fill:none;}.cls-2{clip-path:url(#clip-path);}.cls-3{clip-path:url(#clip-path-2);}.cls-4{fill:#fff;}.cls-5{clip-path:url(#clip-path-3);}.cls-6{fill:#130c0e;}.cls-7{clip-path:url(#clip-path-5);}.cls-8{isolation:isolate;}.cls-9{clip-path:url(#clip-path-6);}.cls-10{clip-path:url(#clip-path-7);}</style><clipPath id="clip-path"><rect class="cls-1" width="300" height="250"/></clipPath><clipPath id="clip-path-2"><rect class="cls-1" x="24.73" y="187.6" width="115.07" height="38.21"/></clipPath><clipPath id="clip-path-3"><rect class="cls-1" x="320" width="300" height="250"/></clipPath><clipPath id="clip-path-5"><rect class="cls-1" x="343" y="39" width="127.06" height="21.32"/></clipPath><clipPath id="clip-path-6"><rect class="cls-1" x="960" width="300" height="250"/></clipPath><clipPath id="clip-path-7"><rect class="cls-1" x="983" y="39" width="127.06" height="21.32"/></clipPath></defs><g class="cls-2"><g class="cls-3"><path class="cls-4" d="M30.3,210.94c.06-.08,1.4,5.34,8.87,4.41-1.46-3.53-6-5.84-7.08-5.9.2-.15,1.51-1.14,1.73-1.26-.29,1,4,4.94,7.31,3.84-.88-2.7-4.52-5-5.46-5,.39-.2.79-.51,1.2-.71-.22.52,2.93,3.6,6.3,3.35,0-1.6-3.62-4.65-4.32-4.41l1-.56c.48,1.11,3.58,3.46,5.72,3.08-1.75-3.71-4-3.93-4-3.93.6-.29.94-.47,1.05-.51,0,1,3.07,3.24,5.21,2.71a4.84,4.84,0,0,0-3.77-3.41l1.13-.54c-.18.32,2.41,2.47,4.86,2.34-1.18-2.87-2.8-2.94-3.39-3,.33-.15.69-.35,1-.53.14.36,1.47,2.26,4.7,1.78a4.23,4.23,0,0,0-3.41-2.4c.46-.27.8-.38,1.13-.57.23.27,1,2,4.31,1.35a3.66,3.66,0,0,0-2.78-2.17l.82-.47a3.86,3.86,0,0,0,3.69,1.07,3,3,0,0,0-2.76-1.64c.5-.32,1-.66,1-.66.17.39,1.15,1.33,3.42.7a2.73,2.73,0,0,0-2.62-1.24c.45-.34.58-.46.93-.73a2.21,2.21,0,0,0,2.94.47,2.07,2.07,0,0,0-2.22-1.08c.25-.24.46-.42.67-.65-.09.21,1.37,1,2.64,0a2.42,2.42,0,0,0-2-.7c.14-.21.19-.19.38-.45a1.7,1.7,0,0,0,2.22-.21,2.07,2.07,0,0,0-1.9-.24l.42-.64a1.33,1.33,0,0,0,1.84-.35,2.08,2.08,0,0,0-1.57-.14s.13-.27.2-.4c2.28.28,1.5-2.37,1-3.87-8.59,13.08-20,3.82-34,12.05A11.69,11.69,0,0,0,26,205c0,.18,0,.32.09.73a9.2,9.2,0,0,0,.53,2.26c.27.81.58,1.35.93,2.17l.59-.46c-.63-.89-2.73-6.28-.12-9.42,2.48,0,2.76,7.05,2.34,7.8,0,0,1.16-.76,1.6-1-.53-.21-2.41-6.37.72-8.93,0,0,2.79,1.07,1.63,7.57.47-.31,1.14-.59,1.79-.93-.35-.62-2.26-5.27.79-7.7,1.65.68,1.56,5.76.92,6.87.52-.25,1.09-.54,1.62-.78-1-.45-.89-5.23.73-6.53,1.81,1.7,1.37,4.56.92,5.81l1.36-.57c-1.08-2-.58-4.49.57-5.46.88.57,1.13,2.21.72,4.92.39-.16.61-.27,1-.41-.23-.45-.85-3.22.74-4.71,1.42.68.92,3.76.81,4.07,0,0,.83-.32.82-.35-.28-.6-.47-2.88.83-4,.52.38,1.08,1.42.58,3.38.3-.15.63-.28.94-.42-.44-.5-.12-2.5.55-3.3a2.56,2.56,0,0,1,.86,2.66l.79-.41c-.26-.41-.35-2.27.44-2.78.77.53.69,1.89.66,2.2.22-.14.87-.47.85-.48a1.72,1.72,0,0,1,.28-2.39c.8.18.81,1.66.74,1.76.31-.2.8-.56,1-.74-.72-.16-.64-1.33-.24-1.85.48.1.82.39,1,1.25.18-.17.62-.53.76-.69a1,1,0,0,1-.31-1.62,1.29,1.29,0,0,1,.89,1,6.2,6.2,0,0,0,.48-.56,1.19,1.19,0,0,1-.33-1.43c.41,0,.79.52.85.77l.4-.6c-.23-.19-.72-.74-.29-1.22.47,0,.64.37.74.71-4.72,9.28-23.83,10.88-33.8,22.05,0,0-1,1.08-1,1.61v3.77h.21a18.25,18.25,0,0,1,5.36-7.65"/><path class="cls-4" d="M66.62,187.81a1.92,1.92,0,1,0,2,1.87,1.93,1.93,0,0,0-2-1.87m1.74,1.88A1.69,1.69,0,1,1,66.63,188a1.69,1.69,0,0,1,1.73,1.65"/><polygon class="cls-4" points="66.42 189.34 66.42 189.11 65.42 189.11 65.42 189.34 65.79 189.34 65.79 190.52 66.04 190.52 66.04 189.34 66.42 189.34"/><polygon class="cls-4" points="67.82 190.52 67.82 189.11 67.57 189.11 67.15 189.91 66.74 189.11 66.49 189.11 66.49 190.52 66.74 190.52 66.74 189.6 67.04 190.19 67.27 190.19 67.57 189.6 67.57 190.52 67.82 190.52"/><polygon class="cls-4" points="63.16 220.06 61.79 220.06 61.79 224.4 60.77 224.4 60.77 220.06 59.39 220.06 59.39 219.15 63.16 219.15 63.16 220.06"/><path class="cls-4" d="M66.35,222.78H63.94a.88.88,0,0,0,.23.62.78.78,0,0,0,.61.23,1.19,1.19,0,0,0,.87-.36l.59.57a2.29,2.29,0,0,1-.62.45,2.18,2.18,0,0,1-.85.16c-1.18,0-1.77-.66-1.77-2a2.15,2.15,0,0,1,.46-1.46,1.53,1.53,0,0,1,1.21-.51,1.56,1.56,0,0,1,1.24.53,1.92,1.92,0,0,1,.44,1.31Zm-.95-.66a.88.88,0,0,0-.09-.41.63.63,0,0,0-.64-.4.64.64,0,0,0-.64.4.88.88,0,0,0-.09.41Z"/><polygon class="cls-4" points="72.16 220.06 70.79 220.06 70.79 224.4 69.77 224.4 69.77 220.06 68.39 220.06 68.39 219.15 72.16 219.15 72.16 220.06"/><path class="cls-4" d="M75.4,224.4h-.94v-.33a1.27,1.27,0,0,1-.95.37,1.31,1.31,0,0,1-1-.33,1.18,1.18,0,0,1-.33-.87,1.08,1.08,0,0,1,.34-.81,1.41,1.41,0,0,1,1-.31h.91v-.19c0-.4-.24-.61-.71-.61a.93.93,0,0,0-.74.32l-.61-.6a1.5,1.5,0,0,1,.6-.42,2.37,2.37,0,0,1,.79-.11c1.09,0,1.64.45,1.64,1.36Zm-1-1.42v-.2h-.76c-.35,0-.53.14-.53.43s.18.45.55.45a.71.71,0,0,0,.65-.25.79.79,0,0,0,.09-.43"/><path class="cls-4" d="M79.46,224.4h-.93v-.35a1.28,1.28,0,0,1-1,.4,1.26,1.26,0,0,1-.91-.34,1.49,1.49,0,0,1-.39-1.1v-2.45h1v2.32a.7.7,0,0,0,.2.55.6.6,0,0,0,.42.15.61.61,0,0,0,.43-.15.71.71,0,0,0,.21-.55v-2.32h1Z"/><path class="cls-4" d="M83.23,220.87l-.72.73a.73.73,0,0,0-.51-.22.54.54,0,0,0-.42.17.69.69,0,0,0-.2.53v2.32h-1v-3.84h.93v.37a1.21,1.21,0,0,1,1-.42,1.23,1.23,0,0,1,.91.36"/><path class="cls-4" d="M86.57,224.4h-.93v-.33a1.49,1.49,0,0,1-1.92,0,1.18,1.18,0,0,1-.33-.87,1,1,0,0,1,.34-.81,1.39,1.39,0,0,1,1-.31h.91v-.19c0-.4-.24-.61-.72-.61a.91.91,0,0,0-.73.32l-.61-.6a1.54,1.54,0,0,1,.59-.42,2.42,2.42,0,0,1,.79-.11c1.1,0,1.64.45,1.64,1.36Zm-1-1.42v-.2h-.76c-.36,0-.53.14-.53.43s.18.45.54.45a.73.73,0,0,0,.66-.25.79.79,0,0,0,.09-.43"/><path class="cls-4" d="M90.7,222.48a6.2,6.2,0,0,1,0,.88,1.38,1.38,0,0,1-.34.74,1.28,1.28,0,0,1-.94.35,1.18,1.18,0,0,1-.93-.39v1.75h-1v-5.25h.93v.36a1.25,1.25,0,0,1,1-.41,1.28,1.28,0,0,1,.94.35,1.38,1.38,0,0,1,.34.74,6.1,6.1,0,0,1,0,.88m-1,0a2.24,2.24,0,0,0-.08-.74.55.55,0,0,0-.56-.36.56.56,0,0,0-.57.36,2.56,2.56,0,0,0-.08.74,2.53,2.53,0,0,0,.08.73.56.56,0,0,0,.57.37.55.55,0,0,0,.56-.37,2.21,2.21,0,0,0,.08-.73"/><path class="cls-4" d="M94.41,224.4h-.93v-.33a1.27,1.27,0,0,1-1,.37,1.29,1.29,0,0,1-1-.33,1.18,1.18,0,0,1-.33-.87,1,1,0,0,1,.34-.81,1.39,1.39,0,0,1,1-.31h.91v-.19c0-.4-.24-.61-.72-.61a.91.91,0,0,0-.73.32l-.61-.6a1.5,1.5,0,0,1,.6-.42,2.35,2.35,0,0,1,.78-.11c1.1,0,1.64.45,1.64,1.36Zm-1-1.42v-.2h-.76c-.36,0-.54.14-.54.43s.19.45.56.45a.72.72,0,0,0,.65-.25.79.79,0,0,0,.09-.43"/><polygon class="cls-4" points="100.37 220.06 99 220.06 99 224.4 97.97 224.4 97.97 220.06 96.6 220.06 96.6 219.15 100.37 219.15 100.37 220.06"/><path class="cls-4" d="M103.63,224.4h-.94v-.35a1.28,1.28,0,0,1-1,.4,1.26,1.26,0,0,1-.91-.34,1.49,1.49,0,0,1-.39-1.1v-2.45h1v2.32a.74.74,0,0,0,.2.55.6.6,0,0,0,.42.15.65.65,0,0,0,.44-.15.74.74,0,0,0,.2-.55v-2.32h1Z"/><path class="cls-4" d="M107.74,224.4h-1v-2.35a.69.69,0,0,0-.2-.53.66.66,0,0,0-.84,0,.7.7,0,0,0-.19.53v2.35h-1v-5.25h1v1.76a1.21,1.21,0,0,1,.91-.4,1.19,1.19,0,0,1,1,.4,1.47,1.47,0,0,1,.32,1Z"/><path class="cls-4" d="M111.75,222.48a4,4,0,0,1-.08.87,1.36,1.36,0,0,1-.35.62,1.73,1.73,0,0,1-2.39,0,1.34,1.34,0,0,1-.34-.62,3.36,3.36,0,0,1-.09-.87,2.15,2.15,0,0,1,.44-1.5,1.73,1.73,0,0,1,2.37,0,2.1,2.1,0,0,1,.44,1.5m-1,0a1.39,1.39,0,0,0-.22-.93.57.57,0,0,0-.45-.17.58.58,0,0,0-.44.17,1.4,1.4,0,0,0-.21.93,1.42,1.42,0,0,0,.21.93.58.58,0,0,0,.44.17.57.57,0,0,0,.45-.17,1.4,1.4,0,0,0,.22-.93"/><path class="cls-4" d="M115.75,224.4h-1v-2.32a.69.69,0,0,0-.21-.55.6.6,0,0,0-.42-.15.61.61,0,0,0-.43.15.69.69,0,0,0-.21.55v2.32h-1v-3.84h.94v.35a1.25,1.25,0,0,1,1-.4,1.26,1.26,0,0,1,.91.34,1.48,1.48,0,0,1,.39,1.09Z"/><path class="cls-4" d="M119.76,222.48a3.36,3.36,0,0,1-.09.87,1.36,1.36,0,0,1-.35.62,1.57,1.57,0,0,1-1.2.48,1.54,1.54,0,0,1-1.18-.48,1.28,1.28,0,0,1-.35-.62,3.36,3.36,0,0,1-.09-.87,2.15,2.15,0,0,1,.44-1.5,1.73,1.73,0,0,1,2.37,0,2.1,2.1,0,0,1,.45,1.5m-1,0a1.33,1.33,0,0,0-.22-.93.57.57,0,0,0-.45-.17.54.54,0,0,0-.43.17,1.33,1.33,0,0,0-.22.93,1.35,1.35,0,0,0,.22.93.54.54,0,0,0,.43.17.57.57,0,0,0,.45-.17,1.35,1.35,0,0,0,.22-.93"/><rect class="cls-4" x="101.04" y="219.37" width="2.13" height="0.49"/><path class="cls-4" d="M121.87,207.58h-2.53v-7h2.53a2.53,2.53,0,0,1,1.85.67,3.19,3.19,0,0,1,.72,2.54v.52a3.32,3.32,0,0,1-.72,2.6,2.57,2.57,0,0,1-1.85.67m-1.12-1.27h1a1.19,1.19,0,0,0,1-.42c.25-.3.29-.79.29-1.84s0-1.49-.29-1.79a1.19,1.19,0,0,0-1-.41h-1Z"/><path class="cls-4" d="M92.88,207.58H88.25v-4.69a4.3,4.3,0,0,1,.22-1.75,1.18,1.18,0,0,1,1.15-.56h3.26v1.27H90.36a.68.68,0,0,0-.5.17.91.91,0,0,0-.19.61v.78h2.74v1.27H89.67v1.63h3.21Z"/><path class="cls-4" d="M70.83,200.58H66.19v4.68a4.53,4.53,0,0,0,.22,1.76,1.2,1.2,0,0,0,1.15.56h3.27v-1.27H68.31a.7.7,0,0,1-.51-.18.94.94,0,0,1-.19-.61v-.78h2.74v-1.27H67.61v-1.62h3.22Z"/><path class="cls-4" d="M102,206.31h3.15v1.27h-4.57v-6.1h0a.81.81,0,0,0-.45-.84h0v0a0,0,0,0,1,0,0h.83c.56,0,1,.17,1,1.51Z"/><polygon class="cls-4" points="64.75 207.58 63.5 207.58 60.8 203.39 60.8 207.58 59.38 207.58 59.38 200.58 60.64 200.58 63.34 204.75 63.34 200.58 64.75 200.58 64.75 207.58"/><path class="cls-4" d="M116.47,203.71v-2.36a.71.71,0,0,0-.41-.71h0a0,0,0,0,1,0,0,0,0,0,0,1,0,0h.81c.66,0,1,.46,1,1.46v5.54h-1.26l-2.7-4.19v4.19h-1.42v-7h1.26l2.7,4.17Z"/><path class="cls-4" d="M109.49,201.26a.86.86,0,0,0-.84-.68h-.52l-2.54,7h1.47l.42-1.23h2.42l.41,1.23h1.48Zm-1.61,3.89.84-2.4.8,2.4Z"/><path class="cls-4" d="M97.53,201.26a.86.86,0,0,0-.84-.68h-.52l-2.55,7H95.1l.42-1.23h2.42l.41,1.23h1.48Zm-1.61,3.89.84-2.4.8,2.4Z"/><path class="cls-4" d="M74.31,204.86l1.24-4.28h1.06l1.24,4.28,1.06-4.28h1.48l-1.88,7H77.34l-1.26-4.14-1.25,4.14H73.65l-1.6-6c-.16-.58-.33-.77-.72-.93h0s0,0,0,0a0,0,0,0,1,0,0h.93a1.12,1.12,0,0,1,1.22,1Z"/><path class="cls-4" d="M86.72,202.41a3.45,3.45,0,0,0,.46-1.45v-.38H82.69v1.27H85.5l-2.94,4.6v1.13h4.62v-1.27H84.24Z"/><path class="cls-4" d="M72.28,211.28a.67.67,0,0,0-.67-.54H71.2l-2,5.61h1.18l.34-1h1.94l.32,1h1.19ZM71,214.39l.67-1.92.64,1.92Z"/><path class="cls-4" d="M76.88,216.34h-2v-5.61h2a2,2,0,0,1,1.48.54,2.55,2.55,0,0,1,.57,2v.41a2.62,2.62,0,0,1-.57,2.08,2,2,0,0,1-1.48.54m-.9-1h.8a.94.94,0,0,0,.79-.33c.2-.24.23-.63.23-1.48s0-1.18-.23-1.42a1,1,0,0,0-.79-.34H76Z"/><path class="cls-4" d="M120.66,216.34h-1.13v-5.6h2.18a1.76,1.76,0,1,1,0,3.51h-1Zm0-3.12h1a.71.71,0,0,0,.78-.73.71.71,0,0,0-.78-.74h-1Z"/><polygon class="cls-4" points="107.1 216.34 105.97 216.34 105.97 211.75 104.52 211.75 104.52 210.74 108.55 210.74 108.55 211.75 107.1 211.75 107.1 216.34"/><polygon class="cls-4" points="61.91 216.34 60.78 216.34 60.78 211.75 59.33 211.75 59.33 210.74 63.37 210.74 63.37 211.75 61.91 211.75 61.91 216.34"/><path class="cls-4" d="M102.57,213.25v-1.9a.58.58,0,0,0-.33-.56h0s0,0,0,0l0,0h.66c.52,0,.79.37.8,1.17v4.43h-1L100.53,213v3.35H99.4v-5.6h1l2.17,3.34Z"/><path class="cls-4" d="M129.45,212.2v-.74a.64.64,0,0,0-.37-.67h0s0,0,0,0,0,0,0,0h.66c.45,0,.81.14.83,1.22v4.38h-1.13Z"/><path class="cls-4" d="M139.8,216.34h-3.71v-3.75a3.58,3.58,0,0,1,.18-1.41.94.94,0,0,1,.92-.44h2.61v1h-2a.55.55,0,0,0-.4.14.73.73,0,0,0-.15.49V213h2.19v1h-2.19v1.3h2.57Z"/><path class="cls-4" d="M113.07,216.34h-3.71v-3.75a3.4,3.4,0,0,1,.18-1.41,1,1,0,0,1,.92-.44h2.61v1h-2a.59.59,0,0,0-.41.14.79.79,0,0,0-.15.49V213h2.2v1h-2.2v1.3h2.58Z"/><path class="cls-4" d="M98.35,216.34H94.64v-3.75a3.4,3.4,0,0,1,.18-1.41,1,1,0,0,1,.92-.45h2.61v1h-2a.59.59,0,0,0-.41.14.79.79,0,0,0-.15.49V213H98v1h-2.2v1.3h2.58Z"/><path class="cls-4" d="M83.55,216.34H79.84v-3.75a3.58,3.58,0,0,1,.18-1.41,1,1,0,0,1,.92-.45h2.61v1h-2a.55.55,0,0,0-.4.14.73.73,0,0,0-.15.49V213h2.19v1H81v1.3h2.57Z"/><path class="cls-4" d="M87.92,216.37c-1.2,0-1.86-.61-1.86-1.71a1.85,1.85,0,0,1,1-1.48A1.75,1.75,0,0,1,86.5,212,1.34,1.34,0,0,1,88,210.7,1.32,1.32,0,0,1,89.46,212a1.19,1.19,0,0,1-.58,1l-.35.25.85,1a1.74,1.74,0,0,0,.23-.89v0h1v0a2.84,2.84,0,0,1-.57,1.7l1,1.21H89.72l-.39-.46a2.06,2.06,0,0,1-1.41.5m-.29-2.5a.92.92,0,0,0-.5.78.74.74,0,0,0,.78.72,1.08,1.08,0,0,0,.75-.28Zm.38-2.22a.37.37,0,0,0-.4.4,1,1,0,0,0,.32.55l.19-.13c.21-.14.3-.27.3-.42a.38.38,0,0,0-.41-.4"/><path class="cls-4" d="M128.59,216.34h-1.31l-1.08-2.22h-.75v2.22h-1.13v-5.6h2.2a1.7,1.7,0,0,1,1.83,1.72,1.52,1.52,0,0,1-1,1.47Zm-3.14-3.17h1a.71.71,0,1,0,0-1.42h-1Z"/><path class="cls-4" d="M118.58,216.34h-1.31l-1.08-2.22h-.74v2.22h-1.14v-5.6h2.2a1.7,1.7,0,0,1,1.83,1.72,1.51,1.51,0,0,1-1,1.47Zm-3.14-3.17h1a.71.71,0,1,0,0-1.42h-1Z"/><path class="cls-4" d="M68.68,216.34H67.36l-1.08-2.22h-.74v2.22H64.41v-5.6h2.2a1.69,1.69,0,0,1,1.82,1.72,1.51,1.51,0,0,1-1,1.47Zm-3.14-3.17h1a.71.71,0,1,0,0-1.42h-1Z"/><path class="cls-4" d="M134.94,213.48a1.89,1.89,0,0,0-1.08-.44l-.65-.09a.89.89,0,0,1-.5-.21.51.51,0,0,1-.16-.38c0-.41.33-.68.83-.68a1.76,1.76,0,0,1,.85.18h0a.46.46,0,0,0,.57-.07l.43-.43v0a2.43,2.43,0,0,0-1.81-.65,1.73,1.73,0,0,0-2,1.71,1.5,1.5,0,0,0,.4,1.11A2,2,0,0,0,133,214l.67.09a.79.79,0,0,1,.48.19.58.58,0,0,1,.16.45c0,.43-.33.66-.95.66a1.78,1.78,0,0,1-1.33-.46l0,0-.73.74v0a2.68,2.68,0,0,0,2,.74c1.25,0,2.08-.69,2.08-1.71a1.59,1.59,0,0,0-.43-1.2"/></g></g><g class="cls-5"><g class="cls-5"><path class="cls-6" d="M398.78,9.85c149.82,0,271.27,121.46,271.27,271.28S548.6,552.41,398.78,552.41,127.5,431,127.5,281.13,249,9.85,398.78,9.85"/></g></g></svg>