<?xml version="1.0" encoding="utf-8"?>
<!-- Generator: Adobe Illustrator 25.3.1, SVG Export Plug-In . SVG Version: 6.00 Build 0)  -->
<svg version="1.1" id="Layer_1" xmlns="http://www.w3.org/2000/svg" xmlns:xlink="http://www.w3.org/1999/xlink" x="0px" y="0px"
	 viewBox="0 0 320 150" style="enable-background:new 0 0 320 150;" xml:space="preserve">
<style type="text/css">
	.st0{fill:#FFFFFF;}
</style>
<path class="st0" d="M33.9,25.4h5v4.8c-0.4,0.5-0.9,0.9-1.4,1.2c-1.2,0.8-2.6,1.2-4.1,1.2c-3.6,0.1-6.7-2.7-6.8-6.3
	c-0.1-3.6,2.7-6.7,6.3-6.8c0.2,0,0.3,0,0.5,0c1.4,0,2.8,0.4,4,1.3c0.5,0.4,1,0.8,1.4,1.3l-1.8,1.8c-0.3-0.3-0.6-0.6-0.9-0.9
	c-0.7-0.6-1.7-0.9-2.6-0.9c-2.2,0-4,1.8-4,4.1c0,2.2,1.8,4,4,4c0.7,0,1.4-0.1,2.1-0.5c0.3-0.1,0.5-0.3,0.7-0.5v-1.6h-2.3V25.4z"/>
<path class="st0" d="M48.8,31.1c-0.3,0.3-0.6,0.5-1,0.7C47,32.3,46,32.5,45,32.5c-2.5,0-4.6-2.1-4.6-4.6s2.1-4.6,4.6-4.6
	c0,0,0,0,0,0c2.4,0,4.4,2,4.4,4.4c0,0.3,0,0.5,0,0.8v0.3h-6.5c0.3,1,1.3,1.6,2.3,1.5c0.6,0,1.3-0.1,1.8-0.5c0.2-0.1,0.4-0.3,0.6-0.5
	L48.8,31.1z M46.8,27.1c0-1.1-0.9-2-2-2s-2,0.9-2,2H46.8z"/>
<path class="st0" d="M51.5,25.9H50v-2.2h0.8c0.7,0,1-0.4,1-1.1V21H54v2.7h2V26h-2v3c-0.1,0.6,0.3,1.2,0.9,1.3c0.1,0,0.1,0,0.2,0
	c0.2,0,0.5,0,0.7-0.1c0.1,0,0.2-0.1,0.3-0.1v2.2l-0.5,0.1c-0.4,0.1-0.8,0.1-1.2,0.1c-1.8,0-3-1.1-3-3.2L51.5,25.9z"/>
<path class="st0" d="M62.3,28.8c0.2,0.3,0.5,0.5,0.7,0.7c0.6,0.4,1.3,0.7,2,0.7c1.4,0,2.2-0.8,2.2-1.9c0-1.1-0.9-1.9-1.9-1.9
	c-0.1,0-0.2,0-0.2,0c-0.6,0-1.1,0.2-1.5,0.5c-0.2,0.1-0.4,0.3-0.5,0.5l-1.9-0.3l0.5-7.4h7.6v2.5h-5.3l-0.1,2.2
	c0.1-0.1,0.3-0.2,0.5-0.2c0.4-0.2,0.9-0.3,1.3-0.3c2.3-0.1,4.3,1.6,4.4,3.9c0,0.1,0,0.2,0,0.3c0,2.4-1.9,4.3-4.8,4.3
	c-1.3,0-2.5-0.3-3.6-1c-0.4-0.3-0.9-0.6-1.2-1L62.3,28.8z"/>
<path class="st0" d="M71.3,26c0-4,2.5-6.6,5.4-6.6s5.4,2.6,5.4,6.6s-2.5,6.6-5.4,6.6S71.3,30.1,71.3,26z M79.4,26c0-2.7-1.3-4-2.7-4
	S74,23.3,74,26s1.3,4,2.7,4S79.4,28.7,79.4,26z"/>
<path class="st0" d="M86.3,19.4c1.7,0,3,1.4,2.9,3.1c0,1.7-1.4,3-3.1,2.9c-1.6,0-2.9-1.4-2.9-3C83.2,20.8,84.5,19.4,86.3,19.4
	C86.2,19.4,86.2,19.4,86.3,19.4z M92.8,19.7h2.2l-7.9,12.6h-2.2L92.8,19.7z M86.3,23.7c0.7,0,1.3-0.6,1.3-1.3s-0.6-1.3-1.3-1.3
	c-0.7,0-1.2,0.5-1.3,1.2C85,23.1,85.5,23.7,86.3,23.7C86.2,23.7,86.2,23.7,86.3,23.7L86.3,23.7z M93.7,26.7c1.7,0,3,1.4,2.9,3.1
	c0,1.7-1.4,3-3.1,2.9c-1.6,0-2.9-1.4-2.9-3c0-1.7,1.3-3,2.9-3.1C93.6,26.6,93.7,26.6,93.7,26.7L93.7,26.7z M95,29.7
	c0-0.7-0.6-1.3-1.3-1.3s-1.3,0.6-1.3,1.3S93,31,93.7,31C94.4,31,95,30.5,95,29.7c0,0,0,0,0-0.1L95,29.7z"/>
<path class="st0" d="M31.1,43.3c2.5,0,4.5,2.1,4.5,4.7s-2.1,4.5-4.7,4.5c-2.5,0-4.5-2.1-4.5-4.6C26.4,45.4,28.5,43.3,31.1,43.3
	C31.1,43.3,31.1,43.3,31.1,43.3z M33.3,47.9c0-1.2-1.1-2.2-2.3-2.2s-2.2,1.1-2.2,2.3c0,1.2,1,2.2,2.2,2.2
	C32.3,50.3,33.3,49.2,33.3,47.9C33.3,48,33.3,47.9,33.3,47.9z"/>
<path class="st0" d="M37.8,45.9h-1.3v-2.2h1.3v-0.5c0-2.1,1.2-3.2,3-3.2c0.3,0,0.7,0.1,1,0.1l0.4,0.1v2.2l-0.2-0.1
	c-0.2-0.1-0.4-0.1-0.6-0.1c-0.6,0-1.1,0.4-1.2,1c0,0.1,0,0.1,0,0.2v0.2h3.2v-0.9c0-2.1,1.2-3.2,3-3.2c0.4,0,0.8,0.1,1.2,0.2l0.5,0.1
	v2.2c-0.1,0-0.2-0.1-0.3-0.1c-0.2-0.1-0.5-0.1-0.7-0.1c-0.6,0-1.1,0.4-1.2,1c0,0.1,0,0.1,0,0.2v0.5h2v2.2h-2v6.4h-2.5v-6.4h-3.2v6.4
	h-2.4V45.9z"/>
<path class="st0" d="M57.5,51.2L57.5,51.2c-0.3,0.2-0.5,0.4-0.8,0.6c-0.6,0.4-1.2,0.6-2,0.6c-1.4,0.1-2.6-0.9-2.7-2.3
	c0-0.1,0-0.1,0-0.2c0-1.5,1.1-2.7,2.6-2.8l2.8-0.5c-0.1-0.7-0.8-1.3-1.6-1.2c-0.5,0-1,0.2-1.5,0.5c-0.2,0.1-0.4,0.3-0.5,0.5L52.6,45
	c0.3-0.3,0.6-0.6,0.9-0.8c0.8-0.6,1.7-0.9,2.7-0.9c1.9-0.1,3.6,1.3,3.8,3.3c0,0.1,0,0.2,0,0.3v5.5h-2.5V51.2z M57.5,48.4l-2,0.4
	c-0.6,0.1-1,0.5-1,0.9s0.4,0.9,1.1,0.9c1,0,1.9-0.8,1.9-1.8c0-0.1,0-0.1,0-0.2L57.5,48.4z"/>
<path class="st0" d="M62,43.5h2.4v1.3h0.1c0.2-0.3,0.4-0.5,0.7-0.7c0.5-0.5,1.2-0.7,1.9-0.7c1.8,0,3.2,1.4,3.2,3.7v5.3h-2.5v-5
	c0.1-0.8-0.5-1.6-1.3-1.7c-0.1,0-0.2,0-0.3,0c-1,0-1.9,0.8-1.9,1.8c0,0.1,0,0.1,0,0.2v4.7H62V43.5z"/>
<path class="st0" d="M78.6,51.1L78.6,51.1c-0.3,0.3-0.5,0.5-0.8,0.7c-0.6,0.5-1.3,0.7-2.1,0.7c-2.1,0-4-1.9-4-4.6s1.9-4.6,4-4.6
	c0.8,0,1.5,0.3,2.1,0.7c0.3,0.2,0.5,0.4,0.7,0.7h0.1v-5H81v12.6h-2.4V51.1z M78.7,47.9c0-1.2-1.1-2.2-2.3-2.2s-2.2,1.1-2.2,2.3
	c0,1.2,1,2.2,2.2,2.2C77.7,50.3,78.7,49.2,78.7,47.9C78.7,48,78.7,47.9,78.7,47.9z"/>
<path class="st0" d="M27.9,68.8c0.2,0.3,0.5,0.5,0.8,0.7c0.6,0.4,1.4,0.7,2.2,0.7c1.4,0,2.1-0.6,2.1-1.4c0-2.2-6.3-1.2-6.3-5.6
	c0-1.8,1.2-3,3.3-3.6v-1.6h2.3v1.6c0.8,0.1,1.6,0.5,2.3,0.9c0.3,0.2,0.6,0.4,0.9,0.7L33.7,63c-0.2-0.2-0.4-0.4-0.6-0.5
	c-0.5-0.3-1.1-0.5-1.7-0.5c-1.4,0-1.9,0.5-1.9,1.3c0,2.1,6.3,1.2,6.3,5.6c-0.1,1.9-1.5,3.5-3.4,3.8v1.6H30v-1.7
	c-1-0.1-2-0.5-2.9-1.1c-0.4-0.2-0.7-0.5-1-0.8L27.9,68.8z"/>
<path class="st0" d="M36.8,66c0-4,2.5-6.6,5.4-6.6s5.4,2.6,5.4,6.6s-2.5,6.6-5.4,6.6S36.8,70.1,36.8,66z M45,66c0-2.7-1.3-4-2.7-4
	s-2.7,1.3-2.7,4s1.3,4,2.7,4S45,68.7,45,66z"/>
<path class="st0" d="M59.1,71.1L59.1,71.1c-0.3,0.3-0.5,0.5-0.8,0.7c-0.6,0.5-1.3,0.7-2.1,0.7c-2.1,0-4-1.9-4-4.6s1.9-4.6,4-4.6
	c0.8,0,1.5,0.3,2.1,0.7c0.3,0.2,0.5,0.4,0.7,0.7h0.1v-5h2.4v12.6h-2.4V71.1z M59.2,67.9c0-1.2-1.1-2.2-2.3-2.2s-2.2,1.1-2.2,2.3
	c0,1.2,1,2.2,2.2,2.2C58.2,70.3,59.2,69.2,59.2,67.9C59.2,68,59.2,67.9,59.2,67.9z"/>
<path class="st0" d="M71.5,71.1c-0.3,0.3-0.6,0.5-1,0.7c-0.9,0.5-1.8,0.7-2.8,0.7c-2.5,0-4.6-2-4.6-4.5c0-2.5,2-4.6,4.5-4.6l0,0
	c2.4,0,4.4,2,4.4,4.4c0,0.3,0,0.5-0.1,0.8v0.3h-6.4c0.3,1,1.3,1.6,2.3,1.5c0.6,0,1.2-0.2,1.8-0.5c0.2-0.1,0.4-0.3,0.6-0.5L71.5,71.1
	z M69.5,67.1c0-1.1-0.9-2-2-2s-2,0.9-2,2H69.5z"/>
<path class="st0" d="M73.6,59.7H76v12.6h-2.4V59.7z"/>
<path class="st0" d="M79.3,59.6c0.8,0,1.4,0.6,1.4,1.4c0,0,0,0,0,0c0,0.8-0.6,1.4-1.4,1.3c-0.8,0-1.4-0.6-1.4-1.3
	C77.9,60.2,78.5,59.6,79.3,59.6z M78.1,63.5h2.4v8.8h-2.4V63.5z"/>
<path class="st0" d="M81.2,63.5h2.6l2,5.9h0.1l2-5.9h2.6l-3.3,8.8h-2.7L81.2,63.5z"/>
<path class="st0" d="M99.2,71.1c-0.3,0.3-0.6,0.5-1,0.7c-0.9,0.5-1.8,0.7-2.8,0.7c-2.5,0-4.6-2-4.6-4.5c0-2.5,2-4.6,4.5-4.6l0,0
	c2.4,0,4.4,2,4.4,4.4c0,0.3,0,0.5-0.1,0.8v0.3h-6.4c0.3,1,1.3,1.6,2.3,1.5c0.6,0,1.2-0.2,1.8-0.5c0.2-0.1,0.4-0.3,0.6-0.5L99.2,71.1
	z M97.2,67.1c0-1.1-0.9-2-2-2s-2,0.9-2,2H97.2z"/>
<path class="st0" d="M101.2,63.5h2.4v1.3h0.1c0.2-0.3,0.4-0.5,0.7-0.7c0.5-0.5,1.2-0.7,1.9-0.7h0.2v2.6h-0.2c-0.2,0-0.4,0-0.6,0
	c-1.2,0-2.1,1-2.1,2.1c0,0.1,0,0.1,0,0.2v4.1h-2.4V63.5z"/>
<path class="st0" d="M107.5,73.6c0.1,0,0.2,0.1,0.3,0.1c0.2,0.1,0.5,0.1,0.7,0.1c0.7,0,1.3-0.4,1.5-1.1l0.2-0.4l-3.4-8.7h2.6
	l2.1,5.9h0.1l2-5.8h2.6l-3.6,9.5c-0.7,2-1.8,3.1-3.4,3.1c-0.4,0-0.8,0-1.1-0.1l-0.5-0.1L107.5,73.6z"/>
<path class="st0" d="M31.1,83.3c2.5,0,4.5,2.1,4.5,4.7s-2.1,4.5-4.7,4.5c-2.5,0-4.5-2.1-4.5-4.6C26.4,85.4,28.5,83.3,31.1,83.3
	C31.1,83.3,31.1,83.3,31.1,83.3z M33.3,87.9c0-1.2-1.1-2.2-2.3-2.2c-1.2,0-2.2,1.1-2.2,2.3c0,1.2,1,2.2,2.2,2.2
	C32.3,90.3,33.3,89.2,33.3,87.9C33.3,88,33.3,87.9,33.3,87.9z"/>
<path class="st0" d="M37.2,83.5h2.4v1.3h0.1c0.2-0.3,0.4-0.5,0.7-0.8c0.5-0.5,1.2-0.7,1.9-0.7c1.8,0,3.2,1.4,3.2,3.7v5.3h-2.4v-4.9
	c0.1-0.8-0.5-1.6-1.3-1.7c-0.1,0-0.2,0-0.3,0c-1,0-1.9,0.8-1.9,1.8c0,0.1,0,0.1,0,0.2v4.7h-2.4V83.5z"/>
<path class="st0" d="M50.1,93.6c0.1,0,0.2,0.1,0.3,0.1c0.2,0.1,0.5,0.1,0.7,0.1c0.7,0,1.3-0.4,1.5-1.1l0.2-0.4l-3.4-8.7H52l2,5.8
	h0.1l2-5.8h2.6L55.1,93c-0.7,2-1.8,3.1-3.4,3.1c-0.4,0-0.8,0-1.1-0.1l-0.5-0.1L50.1,93.6z"/>
<path class="st0" d="M63.6,83.3c2.5,0,4.5,2.1,4.5,4.7s-2.1,4.5-4.7,4.5c-2.5,0-4.5-2.1-4.5-4.6C58.9,85.4,61,83.3,63.6,83.3
	C63.6,83.3,63.6,83.3,63.6,83.3z M65.8,87.9c0-1.2-1.1-2.2-2.3-2.2s-2.2,1.1-2.2,2.3c0,1.2,1,2.2,2.2,2.2
	C64.8,90.3,65.8,89.2,65.8,87.9C65.8,88,65.8,87.9,65.8,87.9z"/>
<path class="st0" d="M69.7,83.5h2.4v5c-0.1,0.8,0.5,1.6,1.3,1.7c0.1,0,0.2,0,0.3,0c1,0,1.9-0.8,1.9-1.8c0-0.1,0-0.1,0-0.2v-4.7h2.4
	v8.8h-2.4v-1.3h-0.1c-0.2,0.3-0.4,0.5-0.7,0.7c-0.6,0.5-1.3,0.7-2,0.7c-1.8,0-3.2-1.4-3.2-3.7L69.7,83.5z"/>
<path class="st0" d="M80.1,83.5h2.4v1.3h0.1c0.2-0.3,0.4-0.5,0.7-0.7c0.5-0.5,1.2-0.7,1.9-0.7h0.2v2.6h-0.2c-0.2,0-0.4,0-0.6,0
	c-1.2,0-2.1,1-2.1,2.1c0,0.1,0,0.1,0,0.2v4.1h-2.4V83.5z"/>
<path class="st0" d="M90.1,85.9h-1.3v-2.2h1.3v-0.9c0-2.1,1.2-3.2,3-3.2c0.3,0,0.7,0.1,1,0.2l0.4,0.1v2.2L94.3,82
	c-0.2-0.1-0.4-0.1-0.6-0.1c-0.6,0-1.1,0.4-1.2,1c0,0.1,0,0.1,0,0.2v0.5h5.7v8.6h-2.4v-6.4h-3.2v6.4h-2.4V85.9z M97,79.6
	c0.8,0,1.4,0.6,1.4,1.4c0,0.8-0.7,1.3-1.4,1.3c-0.7,0-1.4-0.6-1.4-1.3C95.6,80.2,96.2,79.6,97,79.6L97,79.6z"/>
<path class="st0" d="M100.3,83.5h2.4v1.3h0.1c0.2-0.3,0.4-0.5,0.7-0.7c0.5-0.5,1.2-0.7,1.9-0.7h0.2v2.6h-0.2c-0.2,0-0.4,0-0.6,0
	c-1.2,0-2.1,1-2.1,2.1c0,0.1,0,0.1,0,0.2v4.1h-2.4V83.5z"/>
<path class="st0" d="M107.3,89.3c0.2,0.2,0.4,0.4,0.6,0.5c0.5,0.3,1.1,0.5,1.7,0.5c0.8,0,1.1-0.3,1.1-0.6c0-1-4.5-0.8-4.5-3.7
	c0-1.4,1.3-2.7,3.5-2.7c0.9,0,1.8,0.2,2.6,0.7c0.3,0.2,0.6,0.4,0.9,0.7l-1.4,1.5c-0.2-0.1-0.3-0.3-0.5-0.4c-0.4-0.2-0.9-0.4-1.5-0.4
	c-0.6,0-0.9,0.3-0.9,0.5c0,1,4.5,0.8,4.5,3.7c0,1.5-1.3,2.8-3.7,2.8c-1,0-2-0.3-2.8-0.8c-0.4-0.2-0.7-0.5-1-0.8L107.3,89.3z"/>
<path class="st0" d="M115.3,85.9h-1.5v-2.2h0.8c0.7,0,1-0.4,1-1.1V81h2.2v2.7h2v2.2h-2v3c-0.1,0.6,0.3,1.2,0.9,1.3
	c0.1,0,0.1,0,0.2,0c0.2,0,0.5,0,0.7-0.1c0.1,0,0.2-0.1,0.3-0.1v2.2l-0.5,0.1c-0.4,0.1-0.8,0.1-1.2,0.1c-1.8,0-3-1.2-3-3.2
	L115.3,85.9z"/>
<path class="st0" d="M35.2,109.8v2.5h-8.9c0-5.9,6.1-5.9,6.1-8.7c0-0.9-0.8-1.6-1.7-1.6c0,0-0.1,0-0.1,0c-0.6,0-1.2,0.3-1.6,0.8
	c-0.2,0.2-0.4,0.5-0.5,0.8l-2.2-1.1c0.2-0.5,0.5-1,0.9-1.5c0.9-1,2.2-1.5,3.6-1.5c2.7,0,4.4,1.7,4.4,4c0,3.6-4,4.2-5.4,6.4
	L35.2,109.8z"/>
<path class="st0" d="M44.5,103.3c2.5,0,4.5,2.1,4.5,4.7s-2.1,4.5-4.7,4.5c-2.5,0-4.5-2.1-4.5-4.6C39.8,105.4,41.9,103.3,44.5,103.3
	C44.5,103.3,44.5,103.3,44.5,103.3z M46.8,107.9c0-1.2-1.1-2.2-2.3-2.2s-2.2,1.1-2.2,2.3c0,1.2,1,2.2,2.2,2.2
	C45.7,110.3,46.8,109.2,46.8,107.9C46.8,108,46.8,107.9,46.8,107.9z"/>
<path class="st0" d="M50.6,103.5H53v1.3h0.1c0.2-0.3,0.4-0.5,0.7-0.7c0.5-0.5,1.2-0.7,1.9-0.7h0.2v2.6h-0.2c-0.2,0-0.4,0-0.6,0
	c-1.2,0-2.1,1-2.1,2.1c0,0.1,0,0.1,0,0.2v4.1h-2.4V103.5z"/>
<path class="st0" d="M63.2,111.1L63.2,111.1c-0.3,0.3-0.5,0.5-0.8,0.7c-0.6,0.5-1.3,0.7-2.1,0.7c-2.1,0-4-1.9-4-4.6s1.9-4.6,4-4.6
	c0.8,0,1.5,0.3,2.1,0.7c0.3,0.2,0.5,0.4,0.7,0.7h0.1v-5h2.4v12.6h-2.4V111.1z M63.3,107.9c0-1.2-1.1-2.2-2.3-2.2s-2.2,1.1-2.2,2.3
	c0,1.2,1,2.2,2.2,2.2C62.3,110.3,63.3,109.2,63.3,107.9C63.3,108,63.3,107.9,63.3,107.9z"/>
<path class="st0" d="M75.6,111.1c-0.3,0.3-0.6,0.5-1,0.7c-0.9,0.5-1.8,0.7-2.8,0.7c-2.5,0-4.6-2-4.6-4.5c0-2.5,2-4.6,4.5-4.6
	c2.4,0,4.4,2,4.4,4.4c0,0.3,0,0.5-0.1,0.8v0.3h-6.4c0.3,1,1.3,1.6,2.3,1.5c0.6,0,1.2-0.2,1.8-0.5c0.2-0.1,0.4-0.3,0.6-0.5
	L75.6,111.1z M73.6,107.1c0-1.1-0.9-2-2-2s-2,0.9-2,2H73.6z"/>
<path class="st0" d="M77.6,103.5h2.4v1.3h0.1c0.2-0.3,0.4-0.5,0.7-0.7c0.5-0.5,1.2-0.7,1.9-0.7h0.2v2.6h-0.2c-0.2,0-0.4,0-0.6,0
	c-1.2,0-2.1,1-2.1,2.1c0,0.1,0,0.1,0,0.2v4.1h-2.4V103.5z"/>
<path class="st0" d="M84.6,109.3c0.2,0.2,0.4,0.4,0.6,0.5c0.5,0.3,1.1,0.5,1.7,0.5c0.8,0,1.1-0.3,1.1-0.6c0-1-4.5-0.8-4.5-3.7
	c0-1.4,1.3-2.7,3.5-2.7c0.9,0,1.8,0.2,2.6,0.7c0.3,0.2,0.6,0.4,0.9,0.7l-1.4,1.5c-0.2-0.1-0.3-0.3-0.5-0.4c-0.4-0.2-0.9-0.4-1.5-0.4
	c-0.6,0-0.9,0.3-0.9,0.5c0,1,4.5,0.8,4.5,3.7c0,1.5-1.3,2.8-3.7,2.8c-1,0-2-0.3-2.8-0.8c-0.4-0.2-0.7-0.5-1-0.8L84.6,109.3z"/>
<path class="st0" d="M92.9,109.6c0.8,0,1.4,0.6,1.4,1.4c0,0.8-0.6,1.4-1.4,1.4c-0.8,0-1.4-0.6-1.4-1.4
	C91.5,110.3,92.1,109.6,92.9,109.6C92.9,109.6,92.9,109.6,92.9,109.6z"/>
<path class="st0" d="M96.2,101l-1.2-0.2l0.3-1l1.2,0.5L96.3,99h1l-0.2,1.3l1.2-0.5l0.3,1l-1.2,0.2l0.9,1l-0.8,0.6l-0.7-1.1l-0.7,1.1
	l-0.8-0.6L96.2,101z"/>
<path class="st0" d="M27,126.1l-1-0.2l0.2-0.6l0.9,0.4l-0.1-1h0.6l-0.1,1l0.9-0.4l0.2,0.6l-1,0.2l0.6,0.8l-0.5,0.4l-0.6-0.9
	l-0.6,0.9l-0.5-0.4L27,126.1z"/>
<path class="st0" d="M29.8,124.6h0.8l3.1,4.1v-4.1h0.9v5.6h-0.8l-3.1-4.1v4.1h-0.9L29.8,124.6z"/>
<path class="st0" d="M39.3,129.6c-0.1,0.1-0.2,0.3-0.4,0.4c-0.4,0.2-0.8,0.4-1.2,0.4c-1.1,0-2-0.9-2-2s0.9-2,2-2
	c1,0,1.8,0.8,1.9,1.8c0,0,0,0.1,0,0.1c0,0.1,0,0.2,0,0.3v0.1h-3c0.1,0.6,0.6,1,1.2,1c0.3,0,0.6-0.1,0.8-0.2c0.1-0.1,0.2-0.2,0.3-0.3
	L39.3,129.6z M38.6,127.9c-0.1-0.5-0.5-0.9-1-0.9c-0.5,0-1,0.4-1.1,0.9H38.6z"/>
<path class="st0" d="M39.9,126.4h0.9l0.9,2.6l0.8-2.6h0.7L44,129l0.9-2.6h0.9l-1.4,3.8h-0.8l-0.8-2.6l-0.8,2.5h-0.8L39.9,126.4z"/>
<path class="st0" d="M51.3,129.5c-0.1,0.2-0.3,0.3-0.4,0.4c-0.4,0.3-0.8,0.4-1.2,0.4c-1.1,0-2-0.9-2-2s0.9-2,2-2
	c0.4,0,0.9,0.1,1.2,0.4c0.1,0.1,0.3,0.2,0.4,0.4l-0.6,0.5c-0.1-0.1-0.2-0.2-0.3-0.2c-0.2-0.2-0.5-0.3-0.8-0.3
	c-0.7,0-1.2,0.6-1.2,1.2c0,0.7,0.6,1.2,1.2,1.2c0.3,0,0.6-0.1,0.8-0.3c0.1-0.1,0.2-0.2,0.3-0.3L51.3,129.5z"/>
<path class="st0" d="M52.1,126.4h0.8v2.2c0,0.5,0.3,0.9,0.8,0.9c0,0,0.1,0,0.1,0c0.6,0,1-0.4,1-1c0,0,0-0.1,0-0.1v-2.1h0.8v3.8h-0.8
	v-0.6c-0.1,0.1-0.2,0.2-0.3,0.3c-0.3,0.2-0.6,0.3-0.9,0.3c-0.8,0-1.5-0.7-1.5-1.5c0-0.1,0-0.1,0-0.2L52.1,126.4z"/>
<path class="st0" d="M56.9,129.1c0.1,0.1,0.2,0.2,0.3,0.3c0.2,0.2,0.5,0.2,0.7,0.2c0.5,0,0.7-0.2,0.7-0.5c0-0.6-2-0.3-2-1.7
	c0-0.6,0.5-1.1,1.4-1.1c0.4,0,0.7,0.1,1,0.3c0.1,0.1,0.2,0.2,0.3,0.2l-0.5,0.5c-0.1-0.1-0.1-0.1-0.2-0.2c-0.2-0.1-0.4-0.2-0.6-0.2
	c-0.4,0-0.6,0.2-0.6,0.4c0,0.6,2,0.3,2,1.7c0,0.6-0.5,1.2-1.5,1.2c-0.4,0-0.8-0.1-1.1-0.4c-0.1-0.1-0.3-0.2-0.4-0.4L56.9,129.1z"/>
<path class="st0" d="M60.6,127.2h-0.7v-0.8h0.4c0.2,0,0.4-0.1,0.4-0.4v-0.8h0.7v1.3h0.9v0.8h-0.9v1.8c0,0.4,0.2,0.6,0.6,0.6
	c0.1,0,0.2,0,0.3-0.1l0.1-0.1v0.8l-0.2,0.1c-0.1,0-0.3,0.1-0.4,0.1c-0.6,0.1-1.2-0.4-1.2-1c0-0.1,0-0.2,0-0.4V127.2z"/>
<path class="st0" d="M65,126.3c1.1,0,2,0.9,2,2s-0.9,2-2,2s-2-0.9-2-2S63.9,126.3,65,126.3z M66.2,128.3c0-0.7-0.6-1.2-1.2-1.2
	c-0.7,0-1.2,0.6-1.2,1.2c0,0.6,0.6,1.2,1.2,1.2C65.7,129.6,66.2,129.1,66.2,128.3C66.2,128.4,66.2,128.3,66.2,128.3L66.2,128.3z"/>
<path class="st0" d="M67.9,126.4h0.8v0.6c0.1-0.1,0.2-0.2,0.3-0.3c0.2-0.2,0.5-0.3,0.9-0.3c0.3,0,0.7,0.1,0.9,0.3
	c0.1,0.1,0.2,0.2,0.3,0.3c0.1-0.1,0.2-0.2,0.3-0.3c0.3-0.2,0.6-0.3,1-0.3c0.8,0,1.5,0.7,1.4,1.6c0,0,0,0,0,0.1v2.3h-0.8V128
	c0-0.4-0.3-0.8-0.7-0.9c0,0-0.1,0-0.1,0c-0.5,0-0.9,0.4-0.9,1c0,0,0,0,0,0v2.1h-0.8V128c0-0.4-0.3-0.8-0.7-0.9c0,0-0.1,0-0.1,0
	c-0.5,0-0.9,0.4-0.9,1c0,0,0,0,0,0v2.1h-0.8L67.9,126.4z"/>
<path class="st0" d="M78.2,129.6c-0.1,0.1-0.2,0.3-0.4,0.4c-0.4,0.2-0.8,0.4-1.2,0.4c-1.1,0-2-0.9-2-2s0.9-2,2-2
	c1,0,1.8,0.8,1.9,1.8c0,0,0,0.1,0,0.1c0,0.1,0,0.2,0,0.3v0.1h-3c0.1,0.6,0.6,1,1.2,1c0.3,0,0.6-0.1,0.8-0.2c0.1-0.1,0.2-0.2,0.3-0.3
	L78.2,129.6z M77.6,127.9c-0.1-0.5-0.5-0.9-1-0.9c-0.5,0-1,0.4-1.1,0.9H77.6z"/>
<path class="st0" d="M79.3,126.4h0.8v0.5c0.1-0.1,0.2-0.2,0.3-0.3c0.2-0.2,0.5-0.3,0.9-0.3h0.2v0.8h-0.1c-0.1,0-0.1,0-0.2,0
	c-0.6,0.1-1,0.6-1,1.2v2h-0.8L79.3,126.4z"/>
<path class="st0" d="M82.4,129.1c0.1,0.1,0.2,0.2,0.3,0.3c0.2,0.2,0.5,0.2,0.7,0.2c0.4,0,0.7-0.2,0.7-0.5c0-0.6-2-0.3-2-1.7
	c0-0.6,0.5-1.1,1.4-1.1c0.4,0,0.7,0.1,1,0.3c0.1,0.1,0.2,0.1,0.3,0.2l-0.5,0.5c-0.1-0.1-0.1-0.1-0.2-0.2c-0.2-0.1-0.4-0.2-0.6-0.2
	c-0.4,0-0.6,0.2-0.6,0.4c0,0.6,2,0.3,2,1.7c0,0.7-0.7,1.3-1.4,1.2c0,0-0.1,0-0.1,0c-0.4,0-0.8-0.1-1.1-0.4c-0.1-0.1-0.3-0.2-0.4-0.4
	L82.4,129.1z"/>
<path class="st0" d="M89.1,126.3c1.1,0,2,0.9,2,2s-0.9,2-2,2s-2-0.9-2-2S88,126.3,89.1,126.3z M90.3,128.3c0-0.7-0.6-1.2-1.2-1.2
	c-0.7,0-1.2,0.6-1.2,1.2c0,0.6,0.6,1.2,1.2,1.2C89.8,129.6,90.3,129,90.3,128.3C90.3,128.4,90.3,128.3,90.3,128.3z"/>
<path class="st0" d="M92,126.4h0.8v0.6c0.1-0.1,0.2-0.2,0.3-0.3c0.3-0.2,0.6-0.3,0.9-0.3c0.8,0,1.5,0.7,1.5,1.5c0,0,0,0.1,0,0.1v2.2
	h-0.8V128c0-0.5-0.3-0.9-0.8-0.9c0,0-0.1,0-0.1,0c-0.6,0-1,0.4-1,1c0,0,0,0.1,0,0.1v2.1H92V126.4z"/>
<path class="st0" d="M96.6,124.6h0.8v5.6h-0.8V124.6z"/>
<path class="st0" d="M98.4,131l0.1,0.1c0.1,0,0.2,0.1,0.3,0.1c0.3,0,0.6-0.2,0.7-0.5l0.2-0.4l-1.6-3.8H99l1.1,2.8l1.1-2.8h0.8
	l-1.7,4.3c-0.3,0.8-0.8,1.2-1.4,1.2c-0.1,0-0.3,0-0.4,0l-0.2-0.1L98.4,131z"/>
</svg>
