<?xml version="1.0" encoding="utf-8"?>
<!-- Generator: Adobe Illustrator 25.3.1, SVG Export Plug-In . SVG Version: 6.00 Build 0)  -->
<svg version="1.1" id="Layer_1" xmlns="http://www.w3.org/2000/svg" xmlns:xlink="http://www.w3.org/1999/xlink" x="0px" y="0px"
	 viewBox="0 0 320 150" style="enable-background:new 0 0 320 150;" xml:space="preserve">
<style type="text/css">
	.st0{fill:#FFFFFF;}
</style>
<path class="st0" d="M36,28.1c4.8-0.2,8.9,3.5,9.2,8.3s-3.5,8.9-8.3,9.2c-0.3,0-0.6,0-0.8,0c-4.8,0.2-8.9-3.5-9.2-8.3
	s3.5-8.9,8.3-9.2C35.4,28.1,35.7,28.1,36,28.1z M36,42.3c3,0,5.4-2.4,5.4-5.4c0-3-2.4-5.4-5.4-5.4c-3,0-5.4,2.4-5.4,5.4
	C30.6,39.8,33,42.3,36,42.3C36,42.3,36,42.3,36,42.3z"/>
<path class="st0" d="M47,33.5h3.2v1.7h0.1c0.3-0.4,0.6-0.7,0.9-1c0.7-0.6,1.6-1,2.6-1h0.2v3.5h-0.3c-0.3,0-0.5-0.1-0.8-0.1
	c-1.6,0-2.8,1.3-2.8,2.9c0,0.1,0,0.2,0,0.3v5.5H47V33.5z"/>
<path class="st0" d="M57.2,33.5h3.5l2.2,7h0.1l2.3-7h2.6l2.3,7h0.1l2.2-7h3.5l-4.1,11.8h-3l-2.2-6.8h-0.1l-2.2,6.8h-3L57.2,33.5z"/>
<path class="st0" d="M78.3,28.4c1,0,1.8,0.8,1.8,1.8c0,1-0.8,1.9-1.9,1.9c0,0,0,0,0,0c-1,0-1.8-0.8-1.8-1.8
	C76.4,29.2,77.2,28.3,78.3,28.4C78.3,28.4,78.3,28.4,78.3,28.4z M76.6,33.5h3.2v11.8h-3.2V33.5z"/>
<path class="st0" d="M82.4,28.5h3.2v16.8h-3.2V28.5z"/>
<path class="st0" d="M88.3,28.5h3.2v16.8h-3.2V28.5z"/>
<path class="st0" d="M116.4,49.2l-0.3,0.1c-0.2,0-0.5,0-0.9,0c-2,0-3.9-0.6-5.4-1.9c-0.6-0.5-1.2-1.2-1.6-1.9l-0.3,0.1
	c-0.2,0-0.5,0-0.9,0c-4.8-0.2-8.6-4.3-8.4-9.1c0.2-4.8,4.3-8.6,9.1-8.4c4.7,0.2,8.4,4.1,8.4,8.8c0,2.2-0.8,4.3-2.3,5.8
	c-0.7,0.7-1.5,1.3-2.3,1.7c0.9,1.1,2.4,1.8,3.8,1.8c0.3,0,0.5,0,0.8,0l0.3-0.1L116.4,49.2z M107.1,42.2c3,0,5.4-2.4,5.4-5.4
	s-2.4-5.4-5.4-5.4c-3,0-5.4,2.4-5.4,5.4C101.7,39.8,104,42.2,107.1,42.2C107,42.3,107.1,42.3,107.1,42.2L107.1,42.2z"/>
<path class="st0" d="M118.8,28.5h3.6v13.4h7.8v3.4h-11.4V28.5z"/>
<path class="st0" d="M132.1,28.5h6.1c5.2,0,8.9,3.7,8.9,8.4s-3.7,8.4-8.9,8.4h-6.1V28.5z M138.2,41.9c2.8,0,5-2.3,5-5s-2.3-5-5-5
	h-2.5v10.1H138.2z"/>
<path class="st0" d="M29.1,71.9c0.3,0.3,0.5,0.5,0.8,0.7c0.7,0.5,1.5,0.7,2.3,0.7c1.7,0,3.1-1.3,3.1-3c0-0.1,0-0.2,0-0.2v-1h-0.1
	c-0.2,0.4-0.5,0.7-0.9,1c-0.8,0.6-1.7,1-2.7,1c-2.6,0-5-2.4-5-5.9s2.4-5.9,5-5.9c1,0,2,0.4,2.7,1c0.3,0.3,0.6,0.6,0.9,1h0.1v-1.8
	h3.2v10.6c0.1,3.4-2.6,6.2-5.9,6.2c-0.1,0-0.3,0-0.4,0c-1.4,0-2.7-0.4-3.9-1.2c-0.5-0.3-0.9-0.7-1.3-1.2L29.1,71.9z M35.4,65.2
	c0-1.5-1.3-2.7-2.8-2.7c-1.5,0-2.7,1.3-2.7,2.8c0,1.5,1.3,2.7,2.8,2.7c1.5,0,2.7-1.2,2.8-2.7C35.4,65.3,35.4,65.2,35.4,65.2z"/>
<path class="st0" d="M51.6,69.6c-0.4,0.4-0.8,0.7-1.3,1c-1.1,0.7-2.4,1-3.7,1c-3.4,0-6.1-2.7-6.2-6.1c0-3.4,2.7-6.1,6.1-6.2
	c3.2,0,5.9,2.6,5.9,5.9c0,0.3,0,0.7-0.1,1v0.4h-8.6c0.5,1.3,1.7,2.1,3.1,2c0.8,0,1.6-0.2,2.3-0.6c0.3-0.2,0.6-0.4,0.8-0.7L51.6,69.6
	z M49,64.2c-0.4-1.5-1.9-2.3-3.3-1.9c-1,0.3-1.7,1-1.9,1.9H49z"/>
<path class="st0" d="M55,62.8h-2v-3h1c0.9,0,1.3-0.5,1.3-1.4v-2.2h2.9v3.6h2.6v3h-2.6v4c-0.1,0.8,0.5,1.6,1.3,1.7c0.1,0,0.2,0,0.3,0
	c0.3,0,0.6,0,0.9-0.1c0.1,0,0.3-0.1,0.4-0.1v3c-0.2,0.1-0.4,0.1-0.6,0.2c-0.5,0.1-1,0.2-1.5,0.2c-2.4,0-4-1.5-4-4.3L55,62.8z"/>
<path class="st0" d="M73.9,69.8h-0.1c-0.3,0.3-0.6,0.6-0.9,0.8c-0.7,0.6-1.7,0.9-2.6,0.8c-1.8,0.1-3.5-1.2-3.6-3.1
	c0-0.1,0-0.2,0-0.3c0-2,1.5-3.6,3.5-3.8l3.7-0.7c-0.2-1-1-1.6-2-1.6c-0.7,0-1.4,0.2-2,0.7c-0.3,0.2-0.5,0.4-0.7,0.7l-1.9-1.9
	c0.3-0.4,0.8-0.8,1.2-1.1c1-0.7,2.3-1.1,3.6-1.2c2.6-0.2,4.8,1.8,5,4.4c0,0.1,0,0.2,0,0.2v7.3h-3.2V69.8z M73.9,66l-2.6,0.5
	c-0.8,0.2-1.3,0.6-1.3,1.2s0.5,1.2,1.4,1.2c1.4,0,2.5-1.1,2.5-2.5c0-0.1,0-0.1,0-0.2V66z"/>
<path class="st0" d="M84.6,67.3c0.2,0.3,0.5,0.5,0.8,0.7c0.7,0.4,1.5,0.7,2.3,0.7c1.1,0,1.4-0.4,1.4-0.8c0-1.3-6-1.1-6-4.9
	c0-1.9,1.7-3.6,4.7-3.6c1.2,0,2.4,0.3,3.4,0.9c0.4,0.2,0.8,0.5,1.2,0.9l-1.9,2c-0.2-0.2-0.4-0.3-0.7-0.5c-0.6-0.3-1.3-0.5-2-0.5
	c-0.8,0-1.2,0.4-1.2,0.7c0,1.3,6,1.1,6,4.9c0,2-1.7,3.7-4.9,3.7c-1.3,0-2.6-0.4-3.7-1c-0.5-0.3-0.9-0.7-1.3-1.1L84.6,67.3z"/>
<path class="st0" d="M94.2,54.5h3.2v16.8h-3.2V54.5z"/>
<path class="st0" d="M101.6,54.3c1,0,1.8,0.8,1.8,1.8c0,1-0.8,1.9-1.8,1.9c-1,0-1.9-0.8-1.9-1.8S100.5,54.4,101.6,54.3
	C101.6,54.4,101.6,54.3,101.6,54.3z M100,59.5h3.2v11.8H100V59.5z"/>
<path class="st0" d="M116.1,69.1c-0.3,0.5-0.7,0.9-1.2,1.2c-2.7,2-6.5,1.4-8.6-1.3c-2-2.7-1.4-6.5,1.3-8.6c2.2-1.6,5.1-1.6,7.3,0
	c0.5,0.3,0.9,0.7,1.2,1.2l-2,2c-0.2-0.3-0.5-0.5-0.8-0.7c-0.6-0.5-1.3-0.7-2.1-0.7c-1.7,0-3.1,1.4-3.1,3.1c0,1.7,1.4,3.1,3.1,3.1
	c0.8,0,1.5-0.3,2.1-0.7c0.3-0.2,0.5-0.5,0.8-0.7L116.1,69.1z"/>
<path class="st0" d="M127.8,69.6c-0.4,0.4-0.8,0.7-1.3,1c-1.1,0.7-2.4,1-3.7,1c-3.4,0-6.1-2.7-6.2-6.1s2.7-6.1,6.1-6.2
	c3.2,0,5.9,2.6,5.9,5.9c0,0.4-0.1,0.8-0.1,1l-0.1,0.4h-8.5c0.5,1.3,1.7,2.1,3.1,2c0.8,0,1.6-0.2,2.3-0.7c0.3-0.2,0.6-0.4,0.8-0.7
	L127.8,69.6z M125.1,64.2c-0.4-1.5-1.9-2.3-3.3-1.9c-1,0.3-1.7,1-1.9,1.9H125.1z"/>
<path class="st0" d="M32.9,85.3c3.4,0.1,6.1,2.9,6,6.2c-0.1,3.4-2.9,6.1-6.2,6c-3.3-0.1-6-2.8-6-6.1C26.6,88,29.4,85.2,32.9,85.3
	C32.8,85.3,32.9,85.3,32.9,85.3z M35.9,91.4c-0.1-1.7-1.5-2.9-3.1-2.9c-1.7,0.1-2.9,1.5-2.9,3.1c0.1,1.6,1.4,2.9,3,2.9
	c1.7,0,3-1.3,3-3C35.9,91.5,35.9,91.4,35.9,91.4z"/>
<path class="st0" d="M41.5,88.8h-1.8v-3h1.8v-1.2c0-2.8,1.5-4.3,4-4.3c0.5,0,1,0.1,1.5,0.2c0.2,0.1,0.4,0.1,0.6,0.2v3l-0.4-0.1
	c-0.3-0.1-0.6-0.1-0.9-0.1c-0.8,0-1.5,0.6-1.6,1.4c0,0.1,0,0.2,0,0.3v0.7h2.6v3h-2.6v8.5h-3.2V88.8z"/>
<path class="st0" d="M54.3,88.8h-2v-3h1.1c0.9,0,1.3-0.5,1.3-1.4v-2.2h2.9v3.6h2.6v3h-2.7v4c-0.1,0.8,0.5,1.6,1.3,1.7
	c0.1,0,0.2,0,0.3,0c0.3,0,0.6,0,0.9-0.1c0.1,0,0.3-0.1,0.4-0.1v3c-0.2,0.1-0.4,0.1-0.6,0.2c-0.5,0.1-1,0.2-1.5,0.2
	c-2.4,0-4-1.5-4-4.3L54.3,88.8z"/>
<path class="st0" d="M62.4,80.5h3.2v6.7h0.1c0.3-0.4,0.5-0.7,0.9-1c0.7-0.6,1.6-1,2.6-1c2.4,0,4.3,1.9,4.3,4.9v7.1h-3.2v-6.6
	c0.2-1.1-0.6-2.1-1.7-2.3c-0.2,0-0.3,0-0.5,0c-1.4,0-2.5,1.1-2.5,2.5c0,0.1,0,0.2,0,0.2v6.2h-3.2V80.5z"/>
<path class="st0" d="M86.5,95.6c-0.4,0.4-0.8,0.7-1.3,1c-1.1,0.7-2.4,1-3.7,1c-3.4,0-6.1-2.7-6.2-6.1s2.7-6.1,6.1-6.2
	c3.2,0,5.9,2.6,5.9,5.9c0,0.4,0,0.8-0.1,1l-0.1,0.4h-8.5c0.5,1.3,1.7,2.1,3.1,2c0.8,0,1.6-0.2,2.3-0.6c0.3-0.2,0.6-0.4,0.8-0.7
	L86.5,95.6z M83.9,90.2c-0.4-1.5-1.9-2.3-3.3-1.9c-1,0.3-1.7,1-1.9,1.9H83.9z"/>
<path class="st0" d="M28.1,119.3c0.2,0.3,0.5,0.5,0.8,0.7c0.7,0.4,1.5,0.7,2.3,0.7c1.1,0,1.4-0.4,1.4-0.8c0-1.3-6-1.1-6-4.9
	c0-1.9,1.7-3.6,4.7-3.6c1.2,0,2.4,0.3,3.4,0.9c0.4,0.2,0.8,0.5,1.2,0.9l-1.9,2c-0.2-0.2-0.4-0.3-0.7-0.5c-0.6-0.3-1.3-0.5-2-0.5
	c-0.8,0-1.2,0.4-1.2,0.7c0,1.3,6,1.1,6,4.9c0,2-1.7,3.7-4.9,3.7c-1.3,0-2.6-0.4-3.7-1.1c-0.5-0.3-0.9-0.7-1.3-1.1L28.1,119.3z"/>
<path class="st0" d="M48.1,121.6c-0.4,0.4-0.8,0.7-1.3,1c-1.1,0.7-2.4,1-3.8,1c-3.4,0-6.2-2.7-6.2-6.1c0-3.4,2.7-6.2,6.1-6.2
	c3.2,0,5.9,2.6,5.9,5.9c0,0.3,0,0.7-0.1,1v0.4h-8.6c0.5,1.3,1.7,2.1,3.1,2c0.8,0,1.6-0.2,2.3-0.7c0.3-0.2,0.6-0.4,0.8-0.7
	L48.1,121.6z M45.5,116.2c-0.4-1.5-1.9-2.3-3.3-1.9c-1,0.3-1.7,1-1.9,1.9H45.5z"/>
<path class="st0" d="M50.5,111.5h3.2v1.7h0.1c0.3-0.4,0.6-0.7,0.9-1c0.7-0.6,1.6-1,2.6-1h0.2v3.5h-0.3c-0.3,0-0.5-0.1-0.8-0.1
	c-1.6,0-2.8,1.3-2.8,2.9c0,0.1,0,0.2,0,0.3v5.5h-3.2V111.5z"/>
<path class="st0" d="M60.6,106.3c1,0,1.8,0.8,1.8,1.8c0,1-0.8,1.9-1.8,1.9c-1,0-1.9-0.8-1.9-1.8S59.5,106.4,60.6,106.3
	C60.6,106.4,60.6,106.3,60.6,106.3z M59,111.5h3.2v11.8H59V111.5z"/>
<path class="st0" d="M75.2,121.6c-0.4,0.4-0.8,0.7-1.3,1c-1.1,0.7-2.4,1-3.7,1c-3.4,0-6.2-2.7-6.2-6.1s2.7-6.2,6.1-6.2
	c3.2,0,5.9,2.6,5.9,5.9c0,0.3,0,0.7-0.1,1v0.4h-8.5c0.5,1.3,1.7,2.1,3.1,2c0.8,0,1.6-0.2,2.3-0.7c0.3-0.2,0.6-0.4,0.8-0.7
	L75.2,121.6z M72.6,116.2c-0.4-1.5-1.9-2.3-3.3-1.9c-1,0.3-1.7,1-1.9,1.9H72.6z"/>
<path class="st0" d="M78.3,119.3c0.2,0.3,0.5,0.5,0.8,0.7c0.7,0.4,1.5,0.7,2.3,0.7c1.1,0,1.4-0.4,1.4-0.8c0-1.3-6-1.1-6-4.9
	c0-1.9,1.7-3.6,4.7-3.6c1.2,0,2.4,0.3,3.4,0.9c0.4,0.2,0.8,0.5,1.2,0.9l-1.9,2c-0.2-0.2-0.4-0.3-0.7-0.5c-0.6-0.3-1.3-0.5-1.9-0.5
	c-0.8,0-1.2,0.4-1.2,0.7c0,1.3,6,1.1,6,4.9c0,2-1.7,3.7-4.9,3.7c-1.3,0-2.6-0.4-3.7-1.1c-0.5-0.3-0.9-0.7-1.3-1.1L78.3,119.3z"/>
<path class="st0" d="M90.8,118.1c0-0.1-0.1-0.2-0.1-0.3c-0.1-0.2-0.1-0.5-0.1-0.8c0-3.3,4.2-3.7,4.2-5.6c-0.2-1-1.1-1.8-2.2-1.7
	c-0.9,0-1.7,0.4-2.3,1c-0.3,0.3-0.5,0.6-0.7,1l-3.1-1.4c0.3-0.7,0.7-1.4,1.2-2c1.3-1.3,3-2.1,4.9-2c3.7,0,6,2.3,6,4.9
	c0,4.1-4.7,4.1-4.7,7L90.8,118.1z M92.3,119.7c1.1,0,1.9,0.9,1.9,1.9c0,1.1-0.9,1.9-1.9,1.9c-1.1,0-1.9-0.9-1.9-1.9l0,0
	C90.3,120.5,91.2,119.7,92.3,119.7C92.3,119.7,92.3,119.7,92.3,119.7z"/>
</svg>
