<svg xmlns="http://www.w3.org/2000/svg" viewBox="0 0 85.07 67.27"><defs><style>.cls-1{fill:#fff;}</style></defs><g id="Layer_2" data-name="Layer 2"><g id="Layer_2-2" data-name="Layer 2"><ellipse cx="15.14" cy="43.9" rx="13.56" ry="21.92" transform="matrix(1, -0.09, 0.09, 1, -3.74, 1.47)"/><path d="M16.27,67.27c-8,0-15-9.45-16.13-22.07A31.31,31.31,0,0,1,2.91,28.61c2.44-4.83,6.06-7.69,10.21-8s8.2,1.83,11.43,6.16A31.38,31.38,0,0,1,30.14,42.6h0a31.45,31.45,0,0,1-2.77,16.59c-2.44,4.82-6.06,7.68-10.21,8C16.86,67.25,16.57,67.27,16.27,67.27ZM14,23.53l-.6,0c-3.07.27-5.84,2.55-7.79,6.41a28.35,28.35,0,0,0-2.46,15c1,11.21,7.14,19.87,13.77,19.3C20,64,22.74,61.7,24.69,57.83a28.35,28.35,0,0,0,2.46-15h0a28.4,28.4,0,0,0-5-14.33C19.73,25.28,16.85,23.53,14,23.53Z"/><ellipse class="cls-1" cx="19.35" cy="34.16" rx="5.42" ry="8.52" transform="translate(-2.88 1.8) rotate(-4.96)"/><path class="cls-1" d="M19.77,44.17a6.26,6.26,0,0,1-4.91-2.76,12.87,12.87,0,0,1-2.41-6.65c-.48-5.6,2.17-10.25,6-10.59a6.16,6.16,0,0,1,5.36,2.74,12.86,12.86,0,0,1,2.4,6.65h0c.49,5.6-2.16,10.25-6,10.59Zm-.85-17h-.18c-1.85.16-3.66,3.22-3.3,7.34a10.06,10.06,0,0,0,1.8,5.09A3.41,3.41,0,0,0,20,41.16C21.8,41,23.61,38,23.26,33.82h0a10,10,0,0,0-1.8-5.08A3.55,3.55,0,0,0,18.92,27.16Z"/><ellipse cx="70.57" cy="22.35" rx="12.92" ry="20.89" transform="translate(-1.67 6.18) rotate(-4.96)"/><path d="M71.65,44.69c-7.71,0-14.4-9-15.45-21.1A30.06,30.06,0,0,1,58.85,7.74C61.18,3.12,64.66.38,68.63,0s7.87,1.75,11,5.9A30.07,30.07,0,0,1,84.94,21.1h0C86,33.61,80.56,44,72.5,44.65A8.06,8.06,0,0,1,71.65,44.69ZM69.47,3a5.63,5.63,0,0,0-.58,0c-2.9.25-5.51,2.4-7.36,6.06a26.91,26.91,0,0,0-2.34,14.24c.91,10.47,6.89,18.89,13,18.34S82.85,31.83,82,21.36A26.94,26.94,0,0,0,77.19,7.73C74.9,4.66,72.18,3,69.47,3Z"/><ellipse class="cls-1" cx="74.58" cy="13.07" rx="5.17" ry="8.12" transform="translate(-0.85 6.49) rotate(-4.96)"/><path class="cls-1" d="M75,22.67c-3.55,0-6.6-3.86-7-9C67.47,8.26,70,3.8,73.75,3.48s7,3.63,7.47,9h0a12.29,12.29,0,0,1-1.17,6.68,5.89,5.89,0,0,1-4.64,3.48A3,3,0,0,1,75,22.67ZM74.15,6.46H74c-1.73.14-3.42,3-3.08,6.91s2.48,6.44,4.22,6.29a3.2,3.2,0,0,0,2.24-1.89,9.45,9.45,0,0,0,.85-5C77.91,9,75.86,6.46,74.15,6.46Z"/></g></g></svg>