<?xml version="1.0" encoding="utf-8"?>
<!-- Generator: Adobe Illustrator 16.0.0, SVG Export Plug-In . SVG Version: 6.00 Build 0)  -->
<!DOCTYPE svg PUBLIC "-//W3C//DTD SVG 1.1//EN" "http://www.w3.org/Graphics/SVG/1.1/DTD/svg11.dtd">
<svg version="1.1" id="Layer_1" xmlns="http://www.w3.org/2000/svg" xmlns:xlink="http://www.w3.org/1999/xlink" x="0px" y="0px"
	 width="232.064px" height="64.297px" viewBox="0 0 232.064 64.297" enable-background="new 0 0 232.064 64.297"
	 xml:space="preserve">
<g>
	<path fill="#FFFFFF" d="M1.617,4.344C1.49,3.805,1.142,3.646,0.603,3.646H0v-3.52h2.694c1.585,0,2.441,0.381,2.79,1.839
		l3.076,13.412c0.286,1.269,0.38,2.378,0.38,2.378h0.063c0,0,0.127-1.078,0.476-2.378l4.09-15.188h3.521l3.869,15.188
		c0.349,1.3,0.443,2.378,0.443,2.378h0.063c0,0,0.095-1.11,0.38-2.378l3.107-13.412c0.316-1.458,1.173-1.839,2.758-1.839h2.727v3.52
		h-0.603c-0.571,0-0.889,0.159-1.016,0.698l-4.692,18.295h-4.788L15.917,9.893c-0.381-1.427-0.571-2.79-0.571-2.79h-0.063
		c0,0-0.19,1.332-0.604,2.79L11.097,22.64H6.278L1.617,4.344z"/>
	<path fill="#FFFFFF" d="M40.105,6.088c4.629,0,7.166,3.393,7.166,7.673c0,0.476-0.095,1.491-0.095,1.491H36.015
		c0.317,2.854,2.41,4.344,4.852,4.344c2.6,0,4.533-1.807,4.533-1.807l1.682,2.79c0,0-2.474,2.441-6.5,2.441
		c-5.359,0-8.688-3.868-8.688-8.466C31.893,9.576,35.254,6.088,40.105,6.088z M43.149,12.461c-0.063-1.934-1.395-3.266-3.044-3.266
		c-2.061,0-3.52,1.236-3.963,3.266H43.149z"/>
	<path fill="#FFFFFF" d="M52.69,4.249c0-0.476-0.253-0.697-0.697-0.697h-1.269V0.126h3.836c1.49,0,2.156,0.666,2.156,2.156v16.266
		c0,0.444,0.254,0.698,0.698,0.698h1.235v3.393h-3.805c-1.521,0-2.156-0.634-2.156-2.156L52.69,4.249L52.69,4.249z"/>
	<path fill="#FFFFFF" d="M80.875,6.088c4.945,0,8.878,3.52,8.878,8.466c0,4.978-3.933,8.466-8.878,8.466
		c-4.915,0-8.848-3.488-8.848-8.466C72.029,9.607,75.96,6.088,80.875,6.088z M80.875,19.595c2.631,0,4.818-2.029,4.818-5.042
		c0-2.979-2.188-5.042-4.818-5.042c-2.601,0-4.788,2.062-4.788,5.042C76.087,17.566,78.275,19.595,80.875,19.595z"/>
	<path fill="#FFFFFF" d="M95.013,9.671h-1.998V6.468h1.998V5.993c0-5.295,4.344-5.993,6.595-5.993c0.824,0,1.363,0.095,1.363,0.095
		V3.52c0,0-0.349-0.063-0.824-0.063c-1.142,0-3.106,0.285-3.106,2.632v0.38h3.456v3.203H99.04V22.64h-4.027V9.671z"/>
	<path fill="#FFFFFF" d="M117.585,10.59c0-0.476-0.254-0.698-0.698-0.698h-1.268V6.468h3.709c1.427,0,2.125,0.666,2.125,1.807v0.476
		c0,0.349-0.063,0.698-0.063,0.698h0.063c0.697-1.363,2.44-3.361,5.707-3.361c3.584,0,5.645,1.871,5.645,6.151v6.31
		c0,0.444,0.254,0.698,0.697,0.698h1.269v3.393h-3.837c-1.521,0-2.156-0.634-2.156-2.156v-7.419c0-1.966-0.507-3.298-2.535-3.298
		c-2.156,0-3.773,1.364-4.345,3.298c-0.222,0.666-0.316,1.395-0.316,2.156v7.419h-3.995L117.585,10.59L117.585,10.59z"/>
	<path fill="#FFFFFF" d="M139.713,10.59c0-0.476-0.254-0.698-0.697-0.698h-1.269V6.468h3.837c1.49,0,2.125,0.666,2.125,2.156v9.924
		c0,0.444,0.253,0.698,0.697,0.698h1.268v3.393h-3.836c-1.49,0-2.125-0.634-2.125-2.156V10.59L139.713,10.59z M139.904,0.126h3.487
		v3.71h-3.487V0.126z"/>
	<path fill="#FFFFFF" d="M157.278,6.088c4.631,0,7.166,3.393,7.166,7.673c0,0.476-0.095,1.491-0.095,1.491h-11.161
		c0.316,2.854,2.41,4.344,4.853,4.344c2.6,0,4.533-1.807,4.533-1.807l1.682,2.79c0,0-2.474,2.441-6.5,2.441
		c-5.359,0-8.688-3.868-8.688-8.466C149.066,9.576,152.426,6.088,157.278,6.088z M160.323,12.461
		c-0.064-1.934-1.396-3.266-3.046-3.266c-2.061,0-3.52,1.236-3.963,3.266H160.323z"/>
	<path fill="#FFFFFF" d="M170.022,9.671h-2.094V6.468h2.188V2.061h3.932v4.407h3.678v3.203h-3.678v6.532
		c0,2.663,2.093,3.044,3.202,3.044c0.443,0,0.729-0.063,0.729-0.063v3.52c0,0-0.507,0.095-1.236,0.095
		c-2.25,0-6.722-0.666-6.722-6.088L170.022,9.671L170.022,9.671z"/>
	<path fill="#FFFFFF" d="M9.354,41.088c4.946,0,8.878,3.52,8.878,8.466c0,4.978-3.932,8.466-8.878,8.466
		c-4.915,0-8.847-3.488-8.847-8.466C0.507,44.607,4.439,41.088,9.354,41.088z M9.354,54.596c2.631,0,4.819-2.029,4.819-5.042
		c0-2.979-2.188-5.042-4.819-5.042c-2.6,0-4.788,2.063-4.788,5.042C4.566,52.566,6.754,54.596,9.354,54.596z"/>
	<path fill="#FFFFFF" d="M23.492,45.59c0-0.475-0.255-0.697-0.698-0.697h-1.269v-3.424h3.583c1.49,0,2.029,0.666,2.029,1.553
		c0,0.381,0,0.635,0,0.635h0.063c0,0,1.363-2.568,5.137-2.568c4.376,0,7.198,3.457,7.198,8.467c0,5.137-3.171,8.466-7.419,8.466
		c-3.203,0-4.63-2.125-4.63-2.125h-0.063c0,0,0.063,0.571,0.063,1.396v6.689h-3.994L23.492,45.59L23.492,45.59z M31.387,54.627
		c2.22,0,4.09-1.809,4.09-5.01c0-3.076-1.648-5.074-4.026-5.074c-2.094,0-4.06,1.522-4.06,5.104
		C27.392,52.154,28.724,54.627,31.387,54.627z"/>
	<path fill="#FFFFFF" d="M60.553,41.088c3.521,0,4.661,1.966,4.661,1.966h0.063c0,0-0.031-0.412-0.031-0.951v-2.854
		c0-0.475-0.253-0.697-0.697-0.697H63.28v-3.424h3.838c1.489,0,2.155,0.666,2.155,2.156v16.266c0,0.443,0.254,0.697,0.698,0.697
		h1.236v3.394h-3.709c-1.458,0-1.998-0.697-1.998-1.647c0-0.35,0-0.604,0-0.604h-0.063c0,0-1.332,2.632-5.042,2.632
		c-4.376,0-7.198-3.456-7.198-8.466C53.197,44.417,56.272,41.088,60.553,41.088z M65.341,49.521c0-2.504-1.3-4.978-3.995-4.978
		c-2.22,0-4.059,1.808-4.059,5.01c0,3.074,1.616,5.072,3.995,5.072C63.375,54.627,65.341,53.105,65.341,49.521z"/>
	<path fill="#FFFFFF" d="M82.745,41.088c4.629,0,7.166,3.393,7.166,7.672c0,0.477-0.096,1.492-0.096,1.492H78.655
		c0.317,2.854,2.41,4.344,4.852,4.344c2.6,0,4.534-1.809,4.534-1.809l1.681,2.791c0,0-2.473,2.44-6.5,2.44
		c-5.359,0-8.688-3.868-8.688-8.466C74.533,44.577,77.894,41.088,82.745,41.088z M85.789,47.461
		c-0.063-1.935-1.396-3.267-3.044-3.267c-2.062,0-3.521,1.236-3.963,3.267H85.789z"/>
	<path fill="#FFFFFF" d="M105.951,38.646h-2.062v-3.521h10.305c4.218,0,7.166,2.949,7.166,7.324s-2.948,7.42-7.166,7.42h-4.09v7.769
		h-4.153V38.646z M113.434,46.319c2.346,0,3.678-1.521,3.678-3.867c0-2.314-1.332-3.806-3.614-3.806h-3.394v7.673H113.434z"/>
	<path fill="#FFFFFF" d="M133.629,47.493h0.507v-0.127c0-2.314-0.919-3.171-2.979-3.171c-0.729,0-2.156,0.188-2.156,1.078v0.854
		h-3.741v-1.711c0-3.014,4.248-3.33,5.93-3.33c5.391,0,6.976,2.822,6.976,6.438v6.023c0,0.443,0.254,0.697,0.697,0.697h1.27v3.394
		h-3.615c-1.49,0-2.061-0.824-2.061-1.775c0-0.411,0.03-0.696,0.03-0.696h-0.063c0,0-1.236,2.854-4.883,2.854
		c-2.887,0-5.518-1.807-5.518-5.041C124.022,47.904,130.997,47.493,133.629,47.493z M130.522,54.881c2.156,0,3.679-2.283,3.679-4.25
		v-0.379h-0.697c-2.094,0-5.422,0.285-5.422,2.535C128.081,53.866,128.873,54.881,130.522,54.881z"/>
	<path fill="#FFFFFF" d="M145.928,60.905c1.11,0,2.094-0.666,2.664-2.063l0.539-1.235l-5.391-12.146
		c-0.189-0.475-0.412-0.569-0.855-0.569h-0.477v-3.425h2.663c1.143,0,1.714,0.412,2.125,1.521l3.171,8.086
		c0.316,0.824,0.569,2.156,0.569,2.156h0.064c0,0,0.254-1.332,0.539-2.156l2.758-8.086c0.381-1.109,1.047-1.521,2.156-1.521h2.727
		v3.425h-0.475c-0.478,0-0.729,0.096-0.92,0.569l-5.804,14.617c-1.141,2.918-3.424,4.219-5.834,4.219
		c-2.537,0-4.09-1.649-4.09-1.649l1.553-2.854C143.614,59.795,144.597,60.905,145.928,60.905z"/>
	<path fill="#FFFFFF" d="M163.809,45.59c0-0.475-0.254-0.697-0.697-0.697h-1.269v-3.424h3.678c1.428,0,2.156,0.602,2.156,1.965
		v0.951c0,0.604-0.063,1.016-0.063,1.016h0.063c0.729-2.314,2.663-4.154,5.137-4.154c0.35,0,0.729,0.063,0.729,0.063v3.964
		c0,0-0.412-0.063-0.982-0.063c-1.713,0-3.679,0.982-4.408,3.393c-0.222,0.792-0.349,1.682-0.349,2.632v6.404h-3.995V45.59z"/>
	<path fill="#FFFFFF" d="M185.114,41.088c4.947,0,8.88,3.52,8.88,8.466c0,4.978-3.933,8.466-8.88,8.466
		c-4.913,0-8.846-3.488-8.846-8.466C176.268,44.607,180.2,41.088,185.114,41.088z M185.114,54.596c2.633,0,4.82-2.029,4.82-5.042
		c0-2.979-2.188-5.042-4.82-5.042c-2.6,0-4.786,2.063-4.786,5.042C180.327,52.566,182.514,54.596,185.114,54.596z"/>
	<path fill="#FFFFFF" d="M198.904,39.249c0-0.476-0.254-0.697-0.697-0.697h-1.269v-3.424h3.836c1.49,0,2.156,0.666,2.156,2.156
		v16.266c0,0.443,0.254,0.697,0.698,0.697h1.235v3.393h-3.805c-1.521,0-2.156-0.635-2.156-2.156L198.904,39.249L198.904,39.249z"/>
	<path fill="#FFFFFF" d="M209.746,39.249c0-0.476-0.254-0.697-0.698-0.697h-1.269v-3.424h3.837c1.489,0,2.155,0.666,2.155,2.156
		v16.266c0,0.443,0.254,0.697,0.698,0.697h1.236v3.393h-3.806c-1.521,0-2.155-0.635-2.155-2.156L209.746,39.249L209.746,39.249z"/>
	<path fill="#FFFFFF" d="M222.649,49.618c0-4.599,5.231-5.328,5.231-8.594c0-1.49-1.332-2.632-3.075-2.632
		c-1.809,0-3.394,1.332-3.394,1.332l-2.221-2.759c0,0,2.188-2.283,5.961-2.283c3.584,0,6.912,2.22,6.912,5.961
		c0,5.23-5.517,5.835-5.517,9.259v1.236h-3.899L222.649,49.618L222.649,49.618z M222.649,53.897h3.899v3.741h-3.899V53.897z"/>
</g>
</svg>
