<?xml version="1.0" encoding="utf-8"?>
<!-- Generator: Adobe Illustrator 19.0.0, SVG Export Plug-In . SVG Version: 6.00 Build 0)  -->
<svg version="1.1" id="Layer_1" xmlns="http://www.w3.org/2000/svg" xmlns:xlink="http://www.w3.org/1999/xlink" x="0px" y="0px"
	 viewBox="0 0 161 92" style="enable-background:new 0 0 161 92;" xml:space="preserve">
<style type="text/css">
	.st0{fill-rule:evenodd;clip-rule:evenodd;fill:#FCD800;}
	.st1{fill:#010101;}
</style>
<g id="XMLID_1_">
	<g id="XMLID_5_">
		<rect id="XMLID_2_" class="st0" width="161" height="92"/>
	</g>
	<g id="XMLID_4_">
		<path id="XMLID_23_" class="st1" d="M12.0333,38.7858V35.827h2.1029v-11.595h-2.1029v-2.9588h15.4352v5.5521h-3.3489v-2.5933
			h-5.4263v4.0412h4.3812v2.9588h-4.3812v4.5949h5.4263v-2.6183h3.3489v5.5771H12.0333z"/>
		<path id="XMLID_25_" class="st1" d="M34.2042,38.9622l-4.1169-9.5559h-1.7624v-2.8075h7.3901v2.8075h-1.5153l1.9093,5.5471
			l2.239-5.5471h-1.6008v-2.8075h6.4586v2.8075h-1.7374l-3.9533,9.5559H34.2042z"/>
		<path id="XMLID_27_" class="st1" d="M53.2242,35.1097l3.0217,0.9694c-1.2676,1.9889-3.2482,2.9839-5.9427,2.9839
			c-2.1486,0-3.825-0.5665-5.0293-1.6995c-1.2047-1.1335-1.8066-2.6232-1.8066-4.4697c0-1.8798,0.621-3.4496,1.8631-4.7084
			c1.2421-1.2593,2.8242-1.8887,4.7463-1.8887c1.3934,0,2.5977,0.3528,3.6133,1.0578c1.0156,0.7051,1.7206,1.5821,2.1152,2.6311
			c0.3945,1.0495,0.5916,2.2203,0.5916,3.5125h-9.0769c0.0585,1.108,0.4088,1.8926,1.051,2.3545
			c0.6422,0.4614,1.3197,0.6923,2.0331,0.6923C51.3355,36.5449,52.2755,36.0663,53.2242,35.1097z M52.4813,31.3328
			c-0.0904-0.68-0.3562-1.2593-0.7979-1.7374c-0.4417-0.4786-1.0446-0.7178-1.8081-0.7178c-1.4268,0-2.2577,0.8186-2.4925,2.4552
			H52.4813z"/>
		<path id="XMLID_30_" class="st1" d="M66.248,35.9784v2.8075h-8.5738v-2.8075h2.2537v-6.5721h-2.1152v-2.8075h5.6778v3.0974
			c0.2182-0.8898,0.7159-1.6597,1.4922-2.3102c0.7763-0.6505,1.6931-0.9758,2.751-0.9758c0.1759,0,0.3857,0.0044,0.6294,0.0128
			v3.6762c-0.9822,0-1.7835,0.1091-2.4046,0.3272c-0.6215,0.2182-1.133,0.6967-1.5359,1.4352s-0.6043,1.6116-0.6043,2.6188v1.4981
			H66.248z"/>
		<path id="XMLID_32_" class="st1" d="M71.7244,44.2878v-2.808h2.3417l0.8112-2.1673L70.44,29.4063h-1.7624v-2.8075h7.3022v2.8075
			h-1.4352l2.0287,5.4877l2.1638-5.4877h-1.587v-2.8075h6.4089v2.8075h-1.7374l-5.8419,14.8815H71.7244z"/>
		<path id="XMLID_34_" class="st1" d="M84.3521,29.4063v-2.8075h1.5487v-1.9137l3.8894-2.7947v4.7084h2.2415v2.8075h-2.2415v5.2853
			c0,0.4795,0.0609,0.8014,0.1828,0.9655c0.1218,0.1641,0.4009,0.2457,0.8372,0.2457c0.3606,0,0.7684-0.0835,1.2215-0.2516v2.694
			c-0.9994,0.4112-1.9771,0.6171-2.9333,0.6171c-2.1324,0-3.1976-1.0588-3.1976-3.177v-6.379H84.3521z"/>
		<path id="XMLID_36_" class="st1" d="M93.4418,38.7858v-2.8075h1.9643V24.0812h-1.9643v-2.808h5.8419v6.3077
			c1.2254-0.8564,2.38-1.2843,3.4619-1.2843c2.493,0,3.74,1.4981,3.74,4.4947v5.187h1.7875v2.8075h-5.6778v-7.8181
			c0-0.5709-0.1032-0.9635-0.3086-1.1772c-0.2064-0.2142-0.5139-0.3213-0.9257-0.3213c-0.5788,0-1.2716,0.2565-2.0774,0.7684v5.7407
			h1.7374v2.8075H93.4418z"/>
		<path id="XMLID_38_" class="st1" d="M109.9349,29.4063v-2.8075h5.7407v9.3795h1.813v2.8075h-7.5538v-2.8075h1.8504v-6.5721
			H109.9349z M111.6467,23.1054c0-0.5862,0.2083-1.0878,0.623-1.5064c0.4157-0.4186,0.9168-0.6279,1.5045-0.6279
			c0.5965,0,1.0996,0.2093,1.5113,0.6279c0.4108,0.4186,0.6171,0.9203,0.6171,1.5064c0,0.5857-0.2083,1.0858-0.624,1.5
			c-0.4147,0.4142-0.9168,0.621-1.5045,0.621c-0.5788,0-1.078-0.2088-1.4976-0.6274
			C111.857,24.1805,111.6467,23.6827,111.6467,23.1054z"/>
		<path id="XMLID_41_" class="st1" d="M118.8978,29.4063v-2.8075h5.7535v1.133c1.1753-0.881,2.3672-1.3217,3.5759-1.3217
			c2.4586,0,3.6889,1.5693,3.6889,4.7084v4.8598h1.8376v2.8075h-5.728v-7.3774c0-0.6633-0.0904-1.1163-0.2712-1.36
			c-0.1798-0.2432-0.4756-0.3651-0.8873-0.3651c-0.7223,0-1.4602,0.2643-2.2159,0.793v5.5019h1.8759v2.8075h-7.6294v-2.8075h1.8631
			v-6.5721H118.8978z"/>
		<path id="XMLID_43_" class="st1" d="M149.3948,26.5988v2.8075h-2.0145v9.0096c0,4.0235-2.1235,6.0355-6.3706,6.0355
			c-2.4341,0-4.2471-0.4407-5.4391-1.3222l1.8887-2.581c0.9817,0.6043,1.9683,0.9065,2.9588,0.9065
			c0.8638,0,1.5919-0.2226,2.1845-0.6672c0.5916-0.4447,0.8873-1.3094,0.8873-2.5933v-0.9316
			c-1.2676,1.133-2.5019,1.6995-3.7017,1.6995c-1.4101,0-2.6119-0.5896-3.6064-1.7688c-0.9955-1.1792-1.4927-2.6837-1.4927-4.5139
			c0-1.8381,0.512-3.3425,1.5359-4.5134s2.2749-1.756,3.7518-1.756c1.419,0,2.5893,0.5616,3.513,1.6838v-1.4951H149.3948z
			 M143.5027,32.7302c0-0.9822-0.2191-1.7585-0.6554-2.3289c-0.4363-0.5709-1.0318-0.8564-1.7875-0.8564
			c-0.7724,0-1.362,0.2938-1.7688,0.8815c-0.4068,0.5876-0.6102,1.3428-0.6102,2.266s0.2113,1.6764,0.6358,2.2601
			c0.4235,0.5832,1.0043,0.8746,1.7432,0.8746c0.68,0,1.2568-0.2702,1.7315-0.8117
			C143.2649,34.4739,143.5027,33.7123,143.5027,32.7302z"/>
	</g>
	<g id="XMLID_3_">
		<path id="XMLID_6_" class="st1" d="M30.2672,74.8005V71.628c0.4953,0.1425,0.9316,0.2142,1.3094,0.2142
			c0.6967,0,1.1959-0.1931,1.4981-0.5793c0.3022-0.3862,0.4535-1.0662,0.4535-2.0395V55.1733h-2.606v-2.9588h9.5427v2.9588h-2.379
			V69.387c0,1.9472-0.4722,3.3887-1.4165,4.3247c-0.9443,0.9355-2.2012,1.4037-3.7705,1.4037
			C32.1097,75.1155,31.2322,75.0103,30.2672,74.8005z"/>
		<path id="XMLID_8_" class="st1" d="M55.9786,66.9196v2.8075h-5.8542v-1.0387c-1.1664,0.8102-2.35,1.2151-3.5504,1.2151
			c-1.1753,0-2.096-0.3297-2.7633-0.9895c-0.6672-0.6599-1.0008-1.5904-1.0008-2.7922v-5.7741h-1.8258V57.54h5.7034v7.5916
			c0,0.6043,0.0924,1.018,0.2771,1.2401c0.1842,0.2226,0.5203,0.3336,1.0067,0.3336c0.6549,0,1.3723-0.2894,2.153-0.8687v-5.4892
			h-1.8759V57.54h5.7663v9.3795H55.9786z"/>
		<path id="XMLID_10_" class="st1" d="M58.1061,69.727v-4.1925h2.8453c0.0251,0.5709,0.2899,1.0264,0.793,1.3659
			c0.5036,0.34,1.1247,0.51,1.8636,0.51c0.6377,0,1.135-0.111,1.4917-0.3336c0.3567-0.2221,0.5351-0.5056,0.5351-0.8495
			c0-0.3189-0.1636-0.5665-0.4908-0.7429c-0.3272-0.1764-0.9694-0.3444-1.926-0.5051c-1.9722-0.3204-3.3951-0.8053-4.2682-1.4558
			c-0.8726-0.65-1.3094-1.5118-1.3094-2.5859c0-1.0067,0.4112-1.8558,1.2337-2.5481c0.8225-0.6918,1.9137-1.0382,3.2733-1.0382
			c1.0996,0,2.128,0.2034,3.0846,0.6107V57.54h2.7824v3.5381h-2.7824c-0.2516-0.848-1.1414-1.2716-2.6689-1.2716
			c-1.1247,0-1.6872,0.3105-1.6872,0.9316c0,0.2349,0.1155,0.4132,0.3464,0.5351c0.2309,0.1219,0.8205,0.2663,1.7688,0.4338
			c1.5025,0.2604,2.6272,0.5203,3.374,0.7807c0.7473,0.2599,1.3453,0.6903,1.7943,1.2902c0.4486,0.6004,0.6736,1.3202,0.6736,2.1594
			c0,1.192-0.4265,2.1678-1.278,2.9274c-0.852,0.7596-2.0587,1.1394-3.6196,1.1394c-1.4524,0-2.4468-0.2958-2.9839-0.8878v0.6107
			H58.1061z"/>
		<path id="XMLID_12_" class="st1" d="M69.959,60.3475V57.54h1.5487v-1.9137l3.8904-2.7947V57.54h2.2405v2.8075h-2.2405v5.2853
			c0,0.4795,0.0609,0.8014,0.1828,0.9655c0.1218,0.1641,0.4009,0.2457,0.8372,0.2457c0.3597,0,0.7684-0.0835,1.2205-0.2516v2.694
			c-0.9984,0.4112-1.9771,0.6171-2.9323,0.6171c-2.1329,0-3.1986-1.0588-3.1986-3.177v-6.379H69.959z"/>
		<path id="XMLID_14_" class="st1" d="M85.5195,69.727v-2.9588h2.5058v-11.595h-2.5058v-2.9588h15.6745v5.4012h-3.3489v-2.4424
			H92.583v4.054h3.7892v2.9583H92.583v4.5827h2.6935v2.9588H85.5195z"/>
		<path id="XMLID_16_" class="st1" d="M101.9104,60.3475V57.54h5.7407v9.3795h1.813v2.8075h-7.5538v-2.8075h1.8504v-6.5721H101.9104
			z M103.6222,54.0466c0-0.5862,0.2083-1.0878,0.623-1.5064c0.4157-0.4186,0.9168-0.6279,1.5045-0.6279
			c0.5965,0,1.0996,0.2093,1.5113,0.6279c0.4108,0.4186,0.6171,0.9203,0.6171,1.5064c0,0.5857-0.2083,1.0858-0.624,1.5
			c-0.4147,0.4142-0.9168,0.621-1.5045,0.621c-0.5788,0-1.078-0.2088-1.4976-0.6274
			C103.8325,55.1217,103.6222,54.624,103.6222,54.0466z"/>
		<path id="XMLID_19_" class="st1" d="M109.1831,60.3475V57.54h1.5487v-1.9137l3.8894-2.7947V57.54h2.2415v2.8075h-2.2415v5.2853
			c0,0.4795,0.0609,0.8014,0.1828,0.9655c0.1218,0.1641,0.4009,0.2457,0.8372,0.2457c0.3606,0,0.7684-0.0835,1.2215-0.2516v2.694
			c-0.9994,0.4112-1.9771,0.6171-2.9333,0.6171c-2.1324,0-3.1976-1.0588-3.1976-3.177v-6.379H109.1831z"/>
		<path id="XMLID_21_" class="st1" d="M119.0658,69.727v-4.1925h2.8448c0.0256,0.5709,0.2899,1.0264,0.793,1.3659
			c0.5041,0.34,1.1252,0.51,1.8631,0.51c0.6377,0,1.135-0.111,1.4927-0.3336c0.3567-0.2221,0.5346-0.5056,0.5346-0.8495
			c0-0.3189-0.1631-0.5665-0.4913-0.7429c-0.3272-0.1764-0.9689-0.3444-1.926-0.5051c-1.9722-0.3204-3.3941-0.8053-4.2677-1.4558
			c-0.8726-0.65-1.3089-1.5118-1.3089-2.5859c0-1.0067,0.4108-1.8558,1.2332-2.5481c0.8225-0.6918,1.9142-1.0382,3.2733-1.0382
			c1.0996,0,2.1275,0.2034,3.0846,0.6107V57.54h2.7829v3.5381h-2.7829c-0.2516-0.848-1.1419-1.2716-2.6689-1.2716
			c-1.1252,0-1.6872,0.3105-1.6872,0.9316c0,0.2349,0.116,0.4132,0.3469,0.5351c0.2299,0.1219,0.8195,0.2663,1.7688,0.4338
			c1.5015,0.2604,2.6267,0.5203,3.3735,0.7807c0.7468,0.2599,1.3453,0.6903,1.7943,1.2902
			c0.4491,0.6004,0.6731,1.3202,0.6731,2.1594c0,1.192-0.4255,2.1678-1.2775,2.9274c-0.852,0.7596-2.0587,1.1394-3.6201,1.1394
			c-1.4514,0-2.4459-0.2958-2.9834-0.8878v0.6107H119.0658z"/>
	</g>
</g>
</svg>
