<?xml version="1.0" encoding="utf-8"?>
<!-- Generator: Adobe Illustrator 19.0.0, SVG Export Plug-In . SVG Version: 6.00 Build 0)  -->
<svg version="1.1" id="Layer_1" xmlns="http://www.w3.org/2000/svg" xmlns:xlink="http://www.w3.org/1999/xlink" x="0px" y="0px"
	 viewBox="-249 348.7217 113 97.2783" style="enable-background:new -249 348.7217 113 97.2783;" xml:space="preserve">
<style type="text/css">
	.st0{fill:#231F20;}
	.st1{fill:#FCD800;}
	.st2{fill:#010101;}
</style>
<g id="XMLID_6_">
	<rect id="XMLID_36_" x="-249" y="348.7217" class="st0" width="113" height="97.2783"/>
	<rect id="XMLID_35_" x="-236.6359" y="355.6928" class="st1" width="89.2533" height="83.2094"/>
	<path id="XMLID_32_" class="st2" d="M-144.654,441.6319h-94.7104v-88.6665h94.7103v88.6665H-144.654z M-236.6359,438.9022h89.2533
		v-83.2094h-89.2533V438.9022z"/>
	<path id="XMLID_21_" class="st2" d="M-191.8951,424.3447c-0.2668-0.2028-0.6314-0.3054-1.0974-0.3054h-1.1928v2.469h0.9441
		c1.1602,0,1.7458-0.4153,1.7458-1.246C-191.4954,424.853-191.6307,424.5464-191.8951,424.3447 M-183.1348,427.6697h1.8303
		l-0.8838-3.1813L-183.1348,427.6697z M-205.0379,424.0188c-0.8113,0-1.4958,0.3006-2.0609,0.9103
		c-0.565,0.6073-0.8463,1.4983-0.8463,2.673c0,1.0371,0.2789,1.8689,0.8355,2.4895c0.5578,0.6218,1.2471,0.9357,2.0717,0.9357
		c0.8125,0,1.4983-0.3078,2.0669-0.9151c0.565-0.6109,0.8487-1.4898,0.8487-2.6404c0-1.0274-0.2692-1.8593-0.8113-2.4968
		C-203.4732,424.3363-204.1759,424.0188-205.0379,424.0188 M-233.5946,435.5728h83.1721V419.466h-83.1721V435.5728z
		 M-223.0402,432.1597c-0.6085,0.5276-1.3268,0.7884-2.1563,0.7884c-0.9272,0-1.6395-0.3453-2.1418-1.0274v0.8982h-1.7929v-3.599
		h1.7929c0.0205,0.658,0.1907,1.1397,0.5167,1.4548c0.3224,0.3115,0.693,0.4672,1.1083,0.4672c0.3248,0,0.5964-0.1123,0.8222-0.338
		c0.2197-0.2246,0.3332-0.489,0.3332-0.7968c0-0.3223-0.1098-0.5928-0.3272-0.8125c-0.2185-0.2197-0.6157-0.4709-1.1928-0.7558
		c-1.2218-0.5856-2.0525-1.1059-2.4883-1.5574c-0.4383-0.454-0.6568-1.0588-0.6568-1.8242c0-0.9248,0.2897-1.6395,0.8668-2.1478
		c0.5795-0.5058,1.2339-0.7606,1.9691-0.7606c0.8367,0,1.4898,0.3284,1.9474,0.984v-0.8741h1.7856v3.2091h-1.7856
		c-0.0519-0.4962-0.2234-0.8789-0.5095-1.1506c-0.2861-0.2704-0.6194-0.4057-0.9997-0.4057c-0.2946,0-0.5421,0.0773-0.7461,0.2354
		c-0.2016,0.1557-0.3018,0.3597-0.3018,0.6145c0,0.2173,0.0833,0.425,0.2499,0.6194c0.1678,0.1944,0.6556,0.4709,1.4681,0.8294
		c0.7799,0.3477,1.3812,0.6616,1.7965,0.9441c0.4189,0.2801,0.7461,0.6447,0.9888,1.0926c0.2427,0.4467,0.3658,0.9683,0.3658,1.555
		C-222.1275,430.8462-222.4317,431.6321-223.0402,432.1597 M-211.7578,426.5022h-1.7929v-2.4629h-1.6311v6.9952h1.5864v1.7844
		h-5.9243v-1.7844h1.5876v-6.9952h-1.5876v2.4629h-1.8158v-4.2437h9.5777C-211.7578,422.2585-211.7578,426.5022-211.7578,426.5022z
		 M-200.7387,431.3713c-1.0479,1.0504-2.4798,1.5768-4.2993,1.5768c-1.887,0-3.337-0.5409-4.35-1.6214
		c-1.0154-1.0794-1.5188-2.3506-1.5188-3.8079c0-1.5104,0.5191-2.7925,1.5598-3.8477s2.4762-1.5816,4.3089-1.5816
		c1.8243,0,3.2562,0.5264,4.3041,1.5804c1.0444,1.0516,1.5683,2.3338,1.5683,3.8489
		C-199.1655,429.0376-199.6895,430.3222-200.7387,431.3713 M-176.5271,432.8189h-5.1939v-1.7844h1.3498l-0.501-1.8146h-2.7418
		l-0.5602,1.8146h1.4101v1.7844h-7.8246l-2.3869-4.624h-1.2098v2.8396h1.322v1.7844h-5.5198v-1.7844h1.4488v-6.9952h-1.4488v-1.7808
		h6.371c1.1989,0,2.0621,0.3006,2.5921,0.9055c0.5312,0.6037,0.7944,1.2894,0.7944,2.0537c0,1.2001-0.6085,2.0742-1.8291,2.6259
		l1.7156,3.1909h2.6042l2.0561-6.9952h-1.4029v-1.7808h6.895v1.7808h-1.4198l2.2203,6.9952h1.2592L-176.5271,432.8189
		L-176.5271,432.8189z M-165.4898,430.5335c-0.4624,0.7485-1.1361,1.3377-2.0198,1.7687c-0.8814,0.431-1.8738,0.6459-2.9712,0.6459
		c-1.91,0-3.3756-0.5107-4.3934-1.5333c-1.0202-1.0226-1.5321-2.3217-1.5321-3.896c0-1.0951,0.2547-2.0609,0.7606-2.8976
		c0.5047-0.8379,1.1868-1.4693,2.044-1.8943c0.8548-0.4274,1.7832-0.6374,2.7841-0.6374c1.4186,0,2.5233,0.3441,3.3141,1.0334
		v-0.8644h1.7916v3.7475h-1.7916c-0.1871-0.6314-0.5602-1.1312-1.1204-1.4971c-0.553-0.3622-1.1506-0.5457-1.7892-0.5457
		c-0.8403,0-1.5574,0.2982-2.149,0.8946c-0.5928,0.5952-0.8874,1.4174-0.8874,2.4702c0,1.2049,0.2982,2.1261,0.9019,2.7527
		c0.6013,0.6302,1.3365,0.9465,2.2034,0.9465c0.6362,0,1.1674-0.1533,1.5888-0.4648c0.4177-0.3079,0.7099-0.7389,0.8693-1.2882
		h-1.8592v-1.7868h4.9524C-164.7932,428.7696-165.0262,429.7837-165.4898,430.5335 M-154.7942,425.604h-2.0187v-1.5647h-3.273v2.44
		h2.6404v1.7832h-2.6404v2.772h3.273v-1.5792h2.0187v3.3636h-9.3097v-1.7844h1.2677v-6.9952h-1.2677v-1.7808h9.3097
		C-154.7942,422.2585-154.7942,425.604-154.7942,425.604z"/>
	<polygon id="XMLID_20_" class="st2" points="-233.2373,416.4865 -233.2373,414.7456 -231.8561,414.7456 -231.8561,407.9134 
		-233.2373,407.9134 -233.2373,406.17 -228.9018,406.17 -225.106,412.6038 -225.106,407.9134 -226.4486,407.9134 -226.4486,406.17 
		-221.8185,406.17 -221.8185,407.9134 -223.2649,407.9134 -223.2649,416.5626 -225.566,416.5626 -230.0162,408.9155 
		-230.0162,414.7456 -228.7171,414.7456 -228.7171,416.4865 	"/>
	<path id="XMLID_17_" class="st2" d="M-211.3555,414.7456v1.7409h-5.0731v-1.7409h1.3208l-0.4877-1.7735h-2.6779l-0.5517,1.7735
		h1.3812v1.7409h-4.5709v-1.7409h1.2774l2.0114-6.8322h-1.3739V406.17h6.7368v1.7434h-1.3884l2.1671,6.8322H-211.3555z
		 M-216.0218,411.4593l-0.8584-3.1076l-0.9284,3.1076C-217.8086,411.4593-216.0218,411.4593-216.0218,411.4593z"/>
	<polygon id="XMLID_16_" class="st2" points="-209.5815,416.4865 -209.5815,414.7456 -208.0325,414.7456 -208.0325,407.9134 
		-209.5815,407.9134 -209.5815,410.3159 -211.3563,410.3159 -211.3563,406.17 -202.0008,406.17 -202.0008,410.3159 
		-203.7514,410.3159 -203.7514,407.9134 -205.3475,407.9134 -205.3475,414.7456 -203.7985,414.7456 -203.7985,416.4865 	"/>
	<polygon id="XMLID_15_" class="st2" points="-201.0607,416.4865 -201.0607,414.7456 -199.4985,414.7456 -199.4985,407.9134 
		-201.0607,407.9134 -201.0607,406.17 -195.2318,406.17 -195.2318,407.9134 -196.811,407.9134 -196.811,414.7456 
		-195.2318,414.7456 -195.2318,416.4865 	"/>
	<path id="XMLID_12_" class="st2" d="M-188.8696,406.0051c1.7808,0,3.1825,0.5155,4.205,1.5466
		c1.0178,1.0262,1.5297,2.2782,1.5297,3.7584c0,1.485-0.5119,2.7382-1.5345,3.7656c-1.025,1.025-2.4231,1.5393-4.2002,1.5393
		c-1.8436,0-3.2622-0.5288-4.251-1.5852c-0.9864-1.0528-1.4814-2.2939-1.4814-3.7197c0-1.4717,0.5071-2.7261,1.5248-3.7572
		C-192.0606,406.5243-190.6577,406.0051-188.8696,406.0051 M-188.8696,407.8921c-0.7908,0-1.4609,0.2946-2.0138,0.8886
		c-0.5505,0.594-0.827,1.4657-0.827,2.6114c0,1.0129,0.2741,1.8255,0.815,2.4339c0.5469,0.6061,1.2206,0.9103,2.0259,0.9103
		c0.7932,0,1.4632-0.2958,2.0174-0.8934c0.553-0.594,0.833-1.4536,0.833-2.5764c0-1.0045-0.2656-1.8182-0.7944-2.4412
		C-187.3424,408.2037-188.0293,407.8921-188.8696,407.8921"/>
	<polygon id="XMLID_11_" class="st2" points="-182.8065,416.4865 -182.8065,414.7456 -181.4265,414.7456 -181.4265,407.9134 
		-182.8065,407.9134 -182.8065,406.17 -178.4734,406.17 -174.6764,412.6038 -174.6764,407.9134 -176.019,407.9134 -176.019,406.17 
		-171.3913,406.17 -171.3913,407.9134 -172.8389,407.9134 -172.8389,416.5626 -175.1352,416.5626 -179.5878,408.9155 
		-179.5878,414.7456 -178.2887,414.7456 -178.2887,416.4865 	"/>
	<path id="XMLID_8_" class="st2" d="M-160.9572,414.7456v1.7409h-5.0768v-1.7409h1.322l-0.4902-1.7735h-2.679l-0.5481,1.7735h1.38
		v1.7409h-4.5697v-1.7409h1.2774l2.0102-6.8322h-1.3727V406.17h6.7356v1.7434h-1.3872l2.1647,6.8322H-160.9572z M-165.6259,411.4593
		l-0.8596-3.1076l-0.926,3.1076C-167.4115,411.4593-165.6259,411.4593-165.6259,411.4593z"/>
	<polygon id="XMLID_7_" class="st2" points="-159.9989,416.4865 -159.9989,414.7456 -158.5248,414.7456 -158.5248,407.9134 
		-159.9989,407.9134 -159.9989,406.17 -154.3342,406.17 -154.3342,407.9134 -155.841,407.9134 -155.841,414.7456 
		-152.7913,414.7456 -152.7913,411.5559 -150.7799,411.5559 -150.7799,416.4865 	"/>
</g>
</svg>
