<?xml version="1.0" encoding="utf-8"?>
<!-- Generator: Adobe Illustrator 25.0.0, SVG Export Plug-In . SVG Version: 6.00 Build 0)  -->
<svg version="1.1" id="Layer_1" xmlns="http://www.w3.org/2000/svg" xmlns:xlink="http://www.w3.org/1999/xlink" x="0px" y="0px"
	 viewBox="0 0 300 359.1" style="enable-background:new 0 0 300 359.1;" xml:space="preserve">
<style type="text/css">
	.st0{opacity:0.95;}
	.st1{opacity:0.9;fill:#00B7C6;enable-background:new    ;}
	.st2{fill:#FFFFFF;}
	.st3{fill:#3C4C55;}
	.st4{fill:none;}
	.st5{fill:#F1663B;}
	.st6{fill:#93C848;}
	.st7{fill:#EAE96D;}
	.st8{fill:#0AB4C2;}
	.st9{fill:#4EC3CE;}
	.st10{fill:#FAB416;}
	.st11{fill:#FDCE09;}
	.st12{fill:#C0DC92;}
	.st13{fill:#FBED23;}
</style>
<g id="Layer_2_1_">
	<g id="Layer_1-2">
		<g class="st0">
			<polygon class="st1" points="300,159 300,0 0,159 0,359 133.4,359 300,237.6 			"/>
			<polygon class="st2" points="300,237.6 133.4,359 300,359 			"/>
		</g>
		<path class="st3" d="M220.3,325.1v-3h3.9v-6.3h3.6v6.3h4.8v3h-4.8v9.2c0,1.3,0.4,1.6,1.1,1.6c0.4,0,0.8-0.2,1.1-0.4l1.4,2.6
			c-0.9,0.7-2,1.1-3.1,1c-2.4,0-4.1-1.2-4.1-4.6v-9.3L220.3,325.1z"/>
		<path class="st3" d="M231.8,334.3v-7.6h3.7v7.3c-0.1,1.1,0.6,2.1,1.7,2.2c0.2,0,0.3,0,0.5,0c1.4,0.2,2.6-0.8,2.7-2.2
			c0-0.2,0-0.4,0-0.6v-6.7h3.6v12.5h-3.6v-1.6c-0.8,1.3-2.3,2.1-3.9,1.9C233.7,339.5,231.7,337.6,231.8,334.3"/>
		<path class="st3" d="M266.4,336.5c1.2,0,2.4-0.4,3.2-1.2l2.2,2.2c-1.4,1.4-3.4,2.2-5.4,2.1c-4.3,0-7.1-2.8-7.1-6.6
			c0-3.6,2.9-6.6,6.5-6.6c0.1,0,0.2,0,0.3,0c4.4,0,6.9,3.5,6.6,7.8h-9.5C263.5,335.7,264.9,336.6,266.4,336.5 M268.8,331.6
			c-0.2-1.3-1.4-2.3-2.7-2.2c-1.4-0.1-2.6,0.8-2.9,2.2H268.8z"/>
		<rect x="273.5" y="320.8" class="st3" width="3.6" height="18.4"/>
		<path class="st3" d="M252.7,326.4c-1.5-0.1-3,0.5-3.9,1.8v-1.4h-3.6v16.1l0,0c0,1.2-0.4,1.4-1.1,1.4c-0.4,0-0.8-0.2-1.1-0.4
			l-1.4,2.6c0.9,0.7,2,1.1,3.1,1c2.4,0,4.1-1.2,4.1-4.6l0,0v-5c0.9,1.2,2.4,1.9,3.9,1.8c3.2,0,5.9-2.8,5.9-6.6
			S255.9,326.3,252.7,326.4 M251.7,336.2c-1.9,0-3-1.3-3-3.4s1.1-3.4,3-3.4s3.1,1.3,3.1,3.4S253.6,336.2,251.7,336.2"/>
		<path class="st3" d="M293.7,326.2h-2.9c0.1,0.4,0,0.8-0.1,1.2c-0.3,0.6-0.8,0.8-1.9,0.2l0,0c-1.2-0.8-2.6-1.2-4-1.2
			c-3.6,0.1-6.4,3.2-6.3,6.8c0.1,3.6,3.2,6.4,6.8,6.3c3.6-0.1,6.4-3.2,6.3-6.8c0-0.4-0.1-0.9-0.2-1.3c0.7-0.4,1.4-1.1,1.7-1.8
			C293.7,328.6,293.9,327.4,293.7,326.2 M284.7,336.5c-1.9,0-3.1-1.5-3.1-3.5s1.2-3.5,3.1-3.5s3.1,1.5,3.1,3.5
			S286.6,336.5,284.7,336.5"/>
		<line class="st4" x1="257.2" y1="324.3" x2="263.5" y2="309.6"/>
		<polygon class="st5" points="263.5,309.6 257.2,324.3 255.4,314.8 		"/>
		<polygon class="st6" points="234.3,309.6 240.6,324.3 242.4,314.8 242.3,314.8 		"/>
		<path class="st5" d="M258.5,304.5c-1.1,0-2,0.9-2,2s0.9,2,2,2s2-0.9,2-2S259.6,304.5,258.5,304.5"/>
		<path class="st6" d="M239.2,304.5c-1.1,0-2,0.9-2,2s0.9,2,2,2s2-0.9,2-2S240.3,304.5,239.2,304.5"/>
		<path class="st7" d="M248.9,301c-1.1,0-2,0.9-2,2s0.9,2,2,2s2-0.9,2-2S250,301,248.9,301"/>
		<polygon class="st8" points="244.2,305.4 242.4,314.8 245.6,316.9 248.9,312.2 		"/>
		<polygon class="st9" points="242.4,314.8 240.6,324.3 245.6,316.9 		"/>
		<polygon class="st7" points="253.6,305.4 248.9,312.2 252.1,316.9 255.4,314.8 		"/>
		<polygon class="st10" points="255.4,314.8 252.1,316.9 257.2,324.3 		"/>
		<polygon class="st6" points="248.9,312.2 245.6,316.9 245.7,317 248.9,319 252,317 252.1,316.9 		"/>
		<polygon class="st11" points="252.1,316.9 252,317 248.9,319 257.2,324.3 		"/>
		<polygon class="st12" points="245.6,316.9 240.6,324.3 248.9,319 245.7,317 		"/>
		<polygon class="st13" points="248.9,319 240.6,324.3 257.2,324.3 		"/>
	</g>
</g>
</svg>
