<svg id="_Layer_" data-name="&lt;Layer&gt;" xmlns="http://www.w3.org/2000/svg" viewBox="0 0 300 200"><defs><style>.cls-1{fill:#93c848;}.cls-2{fill:#f96302;}</style></defs><path class="cls-1" d="M36.15,26.37a9.73,9.73,0,1,1-9.73-9.73,9.73,9.73,0,0,1,9.73,9.73"/><polygon class="cls-2" points="29.08 26.98 28.36 23.21 26.49 25.94 24.62 23.21 23.9 26.98 23.88 26.97 20.66 24.91 23.17 30.76 29.8 30.76 32.32 24.91 29.08 26.98"/><path class="cls-2" d="M30.34,24.48a.81.81,0,1,0-.81-.8.81.81,0,0,0,.81.8"/><path class="cls-2" d="M22.64,24.48a.81.81,0,1,0-.81-.8.8.8,0,0,0,.81.8"/><path class="cls-2" d="M26.49,23.1a.81.81,0,1,0-.81-.81.81.81,0,0,0,.81.81"/></svg>