<svg id="Layer_1" data-name="Layer 1" xmlns="http://www.w3.org/2000/svg" xmlns:xlink="http://www.w3.org/1999/xlink" viewBox="0 0 728 90"><defs><style>.cls-1{fill:none;}.cls-2{clip-path:url(#clip-path);}.cls-3{fill:#fff;}.cls-4{clip-path:url(#clip-path-2);}.cls-5{clip-path:url(#clip-path-3);}.cls-6{isolation:isolate;}</style><clipPath id="clip-path"><rect class="cls-1" width="728" height="90"/></clipPath><clipPath id="clip-path-2"><rect class="cls-1" x="1496" width="728" height="90"/></clipPath><clipPath id="clip-path-3"><rect class="cls-1" x="1603" y="15.93" width="115" height="19.3"/></clipPath></defs><g class="cls-2"><path class="cls-3" d="M110.93,46.17h5a4.63,4.63,0,0,1,3.42,1.13,3.26,3.26,0,0,1,.94,2.45v0A3.32,3.32,0,0,1,118.1,53l2.51,3.67h-3.35l-2.12-3.19h-1.29v3.19h-2.92Zm4.86,5c1,0,1.56-.48,1.56-1.25v0c0-.84-.62-1.26-1.58-1.26h-1.92v2.54Z"/><path class="cls-3" d="M120.75,54.36v0c0-1.7,1.28-2.55,3.18-2.55a5.87,5.87,0,0,1,2,.31V52c0-.86-.53-1.34-1.63-1.34a6.18,6.18,0,0,0-2.25.45l-.59-2a8.14,8.14,0,0,1,3.3-.63,4.19,4.19,0,0,1,3.09,1,3.38,3.38,0,0,1,.87,2.59v4.67h-2.81v-.86a3.1,3.1,0,0,1-2.4,1A2.46,2.46,0,0,1,120.75,54.36Zm5.17-.62v-.37a3.16,3.16,0,0,0-1.13-.21c-.83,0-1.31.39-1.31,1v0a.89.89,0,0,0,1,.88A1.31,1.31,0,0,0,125.92,53.74Z"/><path class="cls-3" d="M129.72,45.72h3v2.1h-3Zm.06,2.84h2.84v8.13h-2.84Z"/><path class="cls-3" d="M133.18,55.65l1.07-1.71a5.2,5.2,0,0,0,2.78.93c.49,0,.73-.15.73-.43v0c0-.33-.46-.47-1.32-.71-1.61-.42-2.88-1-2.88-2.59v0c0-1.72,1.38-2.69,3.26-2.69a6.38,6.38,0,0,1,3.35,1l-1,1.8a5.34,5.34,0,0,0-2.4-.76c-.44,0-.66.16-.66.4v0c0,.32.48.47,1.32.73,1.61.45,2.88,1,2.88,2.58v0c0,1.79-1.33,2.72-3.32,2.72A6.49,6.49,0,0,1,133.18,55.65Z"/><path class="cls-3" d="M140.76,52.66v0a4.07,4.07,0,0,1,4.1-4.25c2.79,0,4.09,2.06,4.09,4.45a5.72,5.72,0,0,1,0,.58h-5.44a1.68,1.68,0,0,0,1.76,1.34,2.39,2.39,0,0,0,1.8-.83l1.58,1.31a4.26,4.26,0,0,1-3.52,1.66A4.1,4.1,0,0,1,140.76,52.66Zm5.53-.7a1.47,1.47,0,0,0-1.43-1.48c-.75,0-1.26.57-1.41,1.48Z"/><path class="cls-3" d="M159,48.56h2.93l-3,7.94c-.71,1.9-1.47,2.64-3.1,2.64a5,5,0,0,1-2.6-.71l.87-2a2.76,2.76,0,0,0,1.25.44.75.75,0,0,0,.68-.33l-3.19-8h3l1.62,4.9Z"/><path class="cls-3" d="M161.65,52.66v0a4.49,4.49,0,0,1,9,0v0a4.33,4.33,0,0,1-4.51,4.26A4.29,4.29,0,0,1,161.65,52.66Zm6.21,0v0a1.78,1.78,0,0,0-1.75-1.85,1.71,1.71,0,0,0-1.69,1.82v0a1.77,1.77,0,0,0,1.72,1.84A1.72,1.72,0,0,0,167.86,52.66Z"/><path class="cls-3" d="M171.33,53.87V48.56h2.86V53c0,.89.46,1.37,1.15,1.37A1.2,1.2,0,0,0,176.55,53v-4.4h2.84v8.13h-2.84V55.56a3,3,0,0,1-2.44,1.31A2.68,2.68,0,0,1,171.33,53.87Z"/><path class="cls-3" d="M180.49,48.56h2.85V50.2a2.49,2.49,0,0,1,2.57-1.78v3h-.24c-1.49,0-2.33.86-2.33,2.72v2.54h-2.85Z"/><path class="cls-3" d="M190.14,58.19l.91-1.89a5.64,5.64,0,0,0,2.84.77c1.42,0,2.12-.71,2.12-2v-.32A3.14,3.14,0,0,1,193.52,56a3.55,3.55,0,0,1-3.62-3.77v0a3.55,3.55,0,0,1,3.51-3.79A3.24,3.24,0,0,1,196,49.52v-1h2.85v6.18a4.3,4.3,0,0,1-1,3.24,4.77,4.77,0,0,1-3.58,1.14A8.67,8.67,0,0,1,190.14,58.19Zm5.89-6v0a1.67,1.67,0,0,0-3.34,0v0a1.67,1.67,0,0,0,3.34,0Z"/><path class="cls-3" d="M199.52,54.36v0c0-1.7,1.27-2.55,3.18-2.55a5.91,5.91,0,0,1,2,.31V52c0-.86-.53-1.34-1.63-1.34a6.18,6.18,0,0,0-2.25.45l-.59-2a8.13,8.13,0,0,1,3.29-.63,4.22,4.22,0,0,1,3.1,1,3.38,3.38,0,0,1,.87,2.59v4.67h-2.81v-.86a3.12,3.12,0,0,1-2.4,1A2.46,2.46,0,0,1,199.52,54.36Zm5.17-.62v-.37a3.16,3.16,0,0,0-1.13-.21c-.83,0-1.31.39-1.31,1v0a.89.89,0,0,0,1,.88A1.31,1.31,0,0,0,204.69,53.74Z"/><path class="cls-3" d="M208.48,48.56h2.85v1.11a3,3,0,0,1,2.42-1.29,2.51,2.51,0,0,1,2.35,1.32,3.41,3.41,0,0,1,2.72-1.32,2.64,2.64,0,0,1,2.78,3v5.34h-2.86V52.27c0-.89-.44-1.37-1.11-1.37s-1.17.48-1.17,1.37v4.42h-2.84V52.27c0-.89-.45-1.37-1.13-1.37s-1.16.48-1.16,1.37v4.42h-2.85Z"/><path class="cls-3" d="M222.32,52.66v0a4.08,4.08,0,0,1,4.1-4.25c2.8,0,4.09,2.06,4.09,4.45,0,.18,0,.39,0,.58h-5.44a1.67,1.67,0,0,0,1.75,1.34,2.42,2.42,0,0,0,1.81-.83l1.58,1.31a4.27,4.27,0,0,1-3.52,1.66A4.1,4.1,0,0,1,222.32,52.66Zm5.53-.7a1.46,1.46,0,0,0-1.43-1.48c-.75,0-1.26.57-1.41,1.48Z"/><path class="cls-3" d="M234.65,54.36v0c0-1.7,1.27-2.55,3.18-2.55a5.91,5.91,0,0,1,2,.31V52c0-.86-.53-1.34-1.63-1.34a6.18,6.18,0,0,0-2.25.45l-.59-2a8.13,8.13,0,0,1,3.29-.63,4.22,4.22,0,0,1,3.1,1,3.38,3.38,0,0,1,.87,2.59v4.67h-2.81v-.86a3.12,3.12,0,0,1-2.4,1A2.46,2.46,0,0,1,234.65,54.36Zm5.17-.62v-.37a3.16,3.16,0,0,0-1.13-.21c-.83,0-1.31.39-1.31,1v0a.89.89,0,0,0,1,.88A1.31,1.31,0,0,0,239.82,53.74Z"/><path class="cls-3" d="M243.59,48.56h2.86V49.7a3,3,0,0,1,2.43-1.32,2.66,2.66,0,0,1,2.77,3v5.32H248.8v-4.4c0-.91-.46-1.39-1.15-1.39s-1.2.48-1.2,1.39v4.4h-2.86Z"/><path class="cls-3" d="M252.38,52.66v0c0-2.64,1.67-4.25,3.6-4.25a3.05,3.05,0,0,1,2.48,1.17V45.72h2.85v11h-2.85V55.61A3,3,0,0,1,256,56.87C254.05,56.87,252.38,55.26,252.38,52.66Zm6.14,0v0a1.68,1.68,0,1,0-3.34,0v0a1.68,1.68,0,1,0,3.34,0Z"/><path class="cls-3" d="M266.21,45.72h2.84v11h-2.84Z"/><path class="cls-3" d="M269.9,52.66v0a4.07,4.07,0,0,1,4.1-4.25c2.79,0,4.09,2.06,4.09,4.45a5.72,5.72,0,0,1,0,.58h-5.44a1.68,1.68,0,0,0,1.76,1.34,2.39,2.39,0,0,0,1.8-.83l1.58,1.31a4.26,4.26,0,0,1-3.52,1.66A4.1,4.1,0,0,1,269.9,52.66Zm5.53-.7A1.47,1.47,0,0,0,274,50.48c-.75,0-1.26.57-1.41,1.48Z"/><path class="cls-3" d="M278.5,54.36v0c0-1.7,1.27-2.55,3.18-2.55a5.81,5.81,0,0,1,1.95.31V52c0-.86-.52-1.34-1.62-1.34a6.14,6.14,0,0,0-2.25.45l-.59-2a8.13,8.13,0,0,1,3.29-.63,4.22,4.22,0,0,1,3.1,1,3.42,3.42,0,0,1,.87,2.59v4.67h-2.81v-.86a3.13,3.13,0,0,1-2.41,1A2.46,2.46,0,0,1,278.5,54.36Zm5.17-.62v-.37a3.2,3.2,0,0,0-1.13-.21c-.83,0-1.31.39-1.31,1v0a.89.89,0,0,0,1,.88A1.31,1.31,0,0,0,283.67,53.74Z"/><path class="cls-3" d="M287.45,48.56h2.86V50.2a2.49,2.49,0,0,1,2.57-1.78v3h-.24c-1.49,0-2.33.86-2.33,2.72v2.54h-2.86Z"/><path class="cls-3" d="M293.44,48.56h2.85V49.7a3,3,0,0,1,2.44-1.32c1.73,0,2.76,1.14,2.76,3v5.32h-2.84v-4.4c0-.91-.46-1.39-1.16-1.39s-1.2.48-1.2,1.39v4.4h-2.85Z"/><path class="cls-3" d="M306.75,54.17V50.84h-1V48.56h1V46.5h2.85v2.06h1.89v2.28H309.6v2.77c0,.57.25.81.78.81a2.46,2.46,0,0,0,1.08-.27v2.23a4.13,4.13,0,0,1-2,.48C307.76,56.86,306.75,56.1,306.75,54.17Z"/><path class="cls-3" d="M312.29,45.72h2.85v4a3,3,0,0,1,2.44-1.29c1.73,0,2.76,1.14,2.76,3v5.32H317.5v-4.4c0-.91-.46-1.39-1.16-1.39s-1.2.48-1.2,1.39v4.4h-2.85Z"/><path class="cls-3" d="M321.07,52.66v0a4.07,4.07,0,0,1,4.1-4.25c2.79,0,4.09,2.06,4.09,4.45a5.72,5.72,0,0,1,0,.58H323.8a1.68,1.68,0,0,0,1.76,1.34,2.39,2.39,0,0,0,1.8-.83l1.58,1.31a4.26,4.26,0,0,1-3.52,1.66A4.1,4.1,0,0,1,321.07,52.66Zm5.53-.7a1.47,1.47,0,0,0-1.43-1.48c-.75,0-1.26.57-1.41,1.48Z"/><path class="cls-3" d="M333.78,45.72h2.86v5.56l2.21-2.72h3.23l-2.83,3.25,2.9,4.88H339l-1.63-2.78-.73.86v1.92h-2.86Z"/><path class="cls-3" d="M341.63,52.66v0a4.08,4.08,0,0,1,4.1-4.25c2.8,0,4.09,2.06,4.09,4.45,0,.18,0,.39,0,.58h-5.44a1.67,1.67,0,0,0,1.75,1.34,2.42,2.42,0,0,0,1.81-.83l1.57,1.31A4.24,4.24,0,0,1,346,56.89,4.1,4.1,0,0,1,341.63,52.66Zm5.53-.7a1.47,1.47,0,0,0-1.43-1.48c-.75,0-1.26.57-1.41,1.48Z"/><path class="cls-3" d="M355.79,48.56h2.93l-3,7.94c-.7,1.9-1.47,2.64-3.09,2.64a5,5,0,0,1-2.6-.71l.87-2a2.69,2.69,0,0,0,1.25.44.73.73,0,0,0,.67-.33l-3.18-8h3l1.62,4.9Z"/><path class="cls-3" d="M362.33,55.65l1.07-1.71a5.17,5.17,0,0,0,2.78.93c.49,0,.73-.15.73-.43v0c0-.33-.46-.47-1.32-.71-1.61-.42-2.89-1-2.89-2.59v0c0-1.72,1.39-2.69,3.27-2.69a6.38,6.38,0,0,1,3.35,1l-1,1.8a5.34,5.34,0,0,0-2.4-.76c-.44,0-.67.16-.67.4v0c0,.32.48.47,1.33.73,1.61.45,2.88,1,2.88,2.58v0c0,1.79-1.34,2.72-3.32,2.72A6.49,6.49,0,0,1,362.33,55.65Z"/><path class="cls-3" d="M370.58,54.17V50.84h-1V48.56h1V46.5h2.84v2.06h1.89v2.28h-1.89v2.77c0,.57.26.81.78.81a2.4,2.4,0,0,0,1.08-.27v2.23a4.1,4.1,0,0,1-2,.48C371.59,56.86,370.58,56.1,370.58,54.17Z"/><path class="cls-3" d="M375.56,52.66v0a4.07,4.07,0,0,1,4.1-4.25c2.8,0,4.09,2.06,4.09,4.45a5.72,5.72,0,0,1,0,.58h-5.44a1.68,1.68,0,0,0,1.76,1.34,2.39,2.39,0,0,0,1.8-.83l1.58,1.31a4.25,4.25,0,0,1-3.51,1.66A4.1,4.1,0,0,1,375.56,52.66Zm5.53-.7a1.47,1.47,0,0,0-1.43-1.48c-.75,0-1.26.57-1.41,1.48Z"/><path class="cls-3" d="M384.55,48.56h2.85v1.08a3,3,0,0,1,2.47-1.26c1.94,0,3.6,1.61,3.6,4.21v0c0,2.64-1.66,4.25-3.59,4.25a3.08,3.08,0,0,1-2.48-1.17v3.4h-2.85Zm6.13,4.07v0a1.68,1.68,0,1,0-3.34,0v0a1.68,1.68,0,1,0,3.34,0Z"/><path class="cls-3" d="M393.66,55.65l1.06-1.71a5.2,5.2,0,0,0,2.78.93c.5,0,.74-.15.74-.43v0c0-.33-.47-.47-1.32-.71-1.61-.42-2.89-1-2.89-2.59v0c0-1.72,1.38-2.69,3.26-2.69a6.35,6.35,0,0,1,3.35,1l-1,1.8a5.34,5.34,0,0,0-2.41-.76c-.43,0-.66.16-.66.4v0c0,.32.48.47,1.32.73,1.61.45,2.89,1,2.89,2.58v0c0,1.79-1.34,2.72-3.32,2.72A6.49,6.49,0,0,1,393.66,55.65Z"/><path class="cls-3" d="M405.77,54.17V50.84h-1V48.56h1V46.5h2.84v2.06h1.89v2.28h-1.89v2.77c0,.57.26.81.78.81a2.4,2.4,0,0,0,1.08-.27v2.23a4.1,4.1,0,0,1-2,.48C406.78,56.86,405.77,56.1,405.77,54.17Z"/><path class="cls-3" d="M410.76,52.66v0a4.33,4.33,0,0,1,4.5-4.25,4.28,4.28,0,0,1,4.47,4.22v0a4.49,4.49,0,0,1-9,0Zm6.21,0v0a1.78,1.78,0,0,0-1.74-1.85,1.71,1.71,0,0,0-1.7,1.82v0a1.77,1.77,0,0,0,1.73,1.84A1.72,1.72,0,0,0,417,52.66Z"/><path class="cls-3" d="M110.17,71.85l1.06-1.71a5.2,5.2,0,0,0,2.78.93c.5,0,.74-.15.74-.43v0c0-.33-.47-.47-1.32-.71-1.61-.42-2.89-1-2.89-2.59v0c0-1.72,1.38-2.69,3.26-2.69a6.35,6.35,0,0,1,3.35,1l-1,1.8a5.34,5.34,0,0,0-2.41-.76c-.43,0-.66.16-.66.4v0c0,.32.48.47,1.32.73,1.61.45,2.89,1,2.89,2.58v0c0,1.79-1.34,2.72-3.32,2.72A6.42,6.42,0,0,1,110.17,71.85Z"/><path class="cls-3" d="M118,70.07V64.76h2.85v4.4c0,.89.47,1.37,1.16,1.37a1.2,1.2,0,0,0,1.2-1.37v-4.4h2.84v8.13h-2.84V71.76a3,3,0,0,1-2.43,1.31A2.68,2.68,0,0,1,118,70.07Z"/><path class="cls-3" d="M126.84,68.86v0a4.21,4.21,0,0,1,4.34-4.24,3.87,3.87,0,0,1,3.47,1.81l-1.92,1.44a1.82,1.82,0,0,0-1.52-.86,1.71,1.71,0,0,0-1.61,1.82v0a1.69,1.69,0,0,0,1.62,1.85,1.9,1.9,0,0,0,1.57-.84l1.91,1.38a4.05,4.05,0,0,1-3.61,1.87A4.19,4.19,0,0,1,126.84,68.86Z"/><path class="cls-3" d="M134.73,68.86v0a4.21,4.21,0,0,1,4.34-4.24,3.87,3.87,0,0,1,3.47,1.81l-1.92,1.44A1.82,1.82,0,0,0,139.1,67a1.71,1.71,0,0,0-1.61,1.82v0a1.69,1.69,0,0,0,1.63,1.85,1.9,1.9,0,0,0,1.56-.84l1.91,1.38A4,4,0,0,1,139,73.09,4.19,4.19,0,0,1,134.73,68.86Z"/><path class="cls-3" d="M142.6,68.86v0a4.08,4.08,0,0,1,4.11-4.25c2.79,0,4.09,2.06,4.09,4.45a5.72,5.72,0,0,1,0,.58h-5.44A1.68,1.68,0,0,0,147.1,71a2.39,2.39,0,0,0,1.8-.83l1.58,1.31A4.26,4.26,0,0,1,147,73.09,4.11,4.11,0,0,1,142.6,68.86Zm5.53-.7a1.46,1.46,0,0,0-1.42-1.48c-.75,0-1.26.57-1.42,1.48Z"/><path class="cls-3" d="M151,71.85l1.07-1.71a5.2,5.2,0,0,0,2.78.93c.5,0,.74-.15.74-.43v0c0-.33-.47-.47-1.33-.71-1.6-.42-2.88-1-2.88-2.59v0c0-1.72,1.38-2.69,3.26-2.69a6.35,6.35,0,0,1,3.35,1l-1,1.8a5.3,5.3,0,0,0-2.4-.76c-.44,0-.66.16-.66.4v0c0,.32.48.47,1.32.73,1.61.45,2.89,1,2.89,2.58v0c0,1.79-1.34,2.72-3.32,2.72A6.45,6.45,0,0,1,151,71.85Z"/><path class="cls-3" d="M158.13,71.85l1.07-1.71a5.2,5.2,0,0,0,2.78.93c.5,0,.74-.15.74-.43v0c0-.33-.47-.47-1.33-.71-1.6-.42-2.88-1-2.88-2.59v0c0-1.72,1.38-2.69,3.26-2.69a6.35,6.35,0,0,1,3.35,1l-1,1.8a5.3,5.3,0,0,0-2.4-.76c-.44,0-.66.16-.66.4v0c0,.32.48.47,1.32.73,1.61.45,2.89,1,2.89,2.58v0c0,1.79-1.34,2.72-3.33,2.72A6.44,6.44,0,0,1,158.13,71.85Z"/><path class="cls-3" d="M166.54,67h-.95V64.79h.95v-.17a2.82,2.82,0,0,1,.69-2.1,2.76,2.76,0,0,1,2.13-.71,6,6,0,0,1,1.85.23v2a3.49,3.49,0,0,0-1.07-.16c-.52,0-.81.24-.81.76v.2h1.88V67h-1.82v5.85h-2.85Z"/><path class="cls-3" d="M171.6,70.07V64.76h2.86v4.4c0,.89.46,1.37,1.15,1.37a1.2,1.2,0,0,0,1.21-1.37v-4.4h2.84v8.13h-2.84V71.76a3,3,0,0,1-2.44,1.31A2.68,2.68,0,0,1,171.6,70.07Z"/><path class="cls-3" d="M180.83,61.92h2.84v11h-2.84Z"/><path class="cls-3" d="M184.9,61.92h2.85v11H184.9Z"/><path class="cls-3" d="M194.46,64.76h2.93l-3,7.94c-.71,1.9-1.47,2.64-3.1,2.64a5,5,0,0,1-2.6-.71l.87-2a2.76,2.76,0,0,0,1.25.44.75.75,0,0,0,.68-.33l-3.19-8h3l1.62,4.9Z"/><path class="cls-3" d="M201.6,64.76h2.86V66.4A2.5,2.5,0,0,1,207,64.62v3h-.24c-1.49,0-2.33.86-2.33,2.72v2.54H201.6Z"/><path class="cls-3" d="M206.84,70.56v0c0-1.7,1.27-2.55,3.18-2.55a5.91,5.91,0,0,1,2,.31v-.13c0-.86-.53-1.34-1.63-1.34a6.14,6.14,0,0,0-2.25.45l-.59-2a8.13,8.13,0,0,1,3.29-.63,4.22,4.22,0,0,1,3.1,1,3.38,3.38,0,0,1,.87,2.59v4.67H212V72a3.12,3.12,0,0,1-2.4,1A2.46,2.46,0,0,1,206.84,70.56Zm5.17-.62v-.37a3.16,3.16,0,0,0-1.13-.21c-.83,0-1.31.39-1.31,1v0a.89.89,0,0,0,1,.88A1.31,1.31,0,0,0,212,69.94Z"/><path class="cls-3" d="M215.79,61.92h3V64h-3Zm.07,2.84h2.84v8.13h-2.84Z"/><path class="cls-3" d="M219.27,71.85l1.06-1.71a5.23,5.23,0,0,0,2.79.93c.49,0,.73-.15.73-.43v0c0-.33-.46-.47-1.32-.71-1.61-.42-2.89-1-2.89-2.59v0c0-1.72,1.39-2.69,3.27-2.69a6.38,6.38,0,0,1,3.35,1l-1,1.8a5.34,5.34,0,0,0-2.4-.76c-.44,0-.67.16-.67.4v0c0,.32.48.47,1.33.73,1.6.45,2.88,1,2.88,2.58v0c0,1.79-1.34,2.72-3.32,2.72A6.42,6.42,0,0,1,219.27,71.85Z"/><path class="cls-3" d="M226.84,68.86v0A4.08,4.08,0,0,1,231,64.58c2.79,0,4.09,2.06,4.09,4.45a5.72,5.72,0,0,1,0,.58h-5.44A1.67,1.67,0,0,0,231.34,71a2.4,2.4,0,0,0,1.8-.83l1.58,1.31a4.26,4.26,0,0,1-3.52,1.66A4.11,4.11,0,0,1,226.84,68.86Zm5.53-.7A1.46,1.46,0,0,0,231,66.68c-.75,0-1.27.57-1.42,1.48Z"/><path class="cls-3" d="M239.25,68.86v0a4.21,4.21,0,0,1,4.34-4.24,3.87,3.87,0,0,1,3.47,1.81l-1.92,1.44a1.84,1.84,0,0,0-1.52-.86A1.71,1.71,0,0,0,242,68.8v0a1.69,1.69,0,0,0,1.62,1.85,1.9,1.9,0,0,0,1.57-.84l1.91,1.38a4.05,4.05,0,0,1-3.61,1.87A4.19,4.19,0,0,1,239.25,68.86Z"/><path class="cls-3" d="M247.29,70.56v0c0-1.7,1.27-2.55,3.18-2.55a5.91,5.91,0,0,1,2,.31v-.13c0-.86-.53-1.34-1.63-1.34a6.18,6.18,0,0,0-2.25.45l-.59-2a8.13,8.13,0,0,1,3.29-.63,4.2,4.2,0,0,1,3.1,1,3.38,3.38,0,0,1,.87,2.59v4.67h-2.81V72a3.12,3.12,0,0,1-2.4,1A2.46,2.46,0,0,1,247.29,70.56Zm5.17-.62v-.37a3.16,3.16,0,0,0-1.13-.21c-.83,0-1.31.39-1.31,1v0a.89.89,0,0,0,1,.88A1.31,1.31,0,0,0,252.46,69.94Z"/><path class="cls-3" d="M256.23,64.76h2.86v1.08a3,3,0,0,1,2.46-1.26c1.94,0,3.61,1.61,3.61,4.21v0c0,2.64-1.67,4.25-3.59,4.25a3,3,0,0,1-2.48-1.17v3.39h-2.86Zm6.13,4.07v0a1.67,1.67,0,1,0-3.33,0v0a1.67,1.67,0,1,0,3.33,0Z"/><path class="cls-3" d="M266,61.92h3V64h-3Zm.06,2.84h2.84v8.13H266Z"/><path class="cls-3" d="M270.54,70.37V67h-1V64.76h1V62.7h2.84v2.06h1.9V67h-1.9v2.77c0,.57.26.81.78.81a2.47,2.47,0,0,0,1.09-.27v2.23a4.14,4.14,0,0,1-2,.48C271.55,73.06,270.54,72.3,270.54,70.37Z"/><path class="cls-3" d="M275.68,70.56v0c0-1.7,1.28-2.55,3.19-2.55a5.81,5.81,0,0,1,1.95.31v-.13c0-.86-.52-1.34-1.62-1.34a6.1,6.1,0,0,0-2.25.45l-.59-2a8.09,8.09,0,0,1,3.29-.63,4.22,4.22,0,0,1,3.1,1,3.42,3.42,0,0,1,.87,2.59v4.67h-2.81V72a3.13,3.13,0,0,1-2.41,1A2.47,2.47,0,0,1,275.68,70.56Zm5.17-.62v-.37a3.1,3.1,0,0,0-1.12-.21c-.83,0-1.31.39-1.31,1v0a.89.89,0,0,0,1,.88A1.3,1.3,0,0,0,280.85,69.94Z"/><path class="cls-3" d="M284.7,61.92h2.84v11H284.7Z"/><path class="cls-3" d="M288.25,74.27c1-.1,1.55-.6,1.5-1.41h-1.14V69.93h3v2.39c0,2.22-1.22,3-3.08,3.05Z"/><path class="cls-3" d="M295.69,64.76h2.78l1.07,4.09,1.26-4.12h2.35l1.26,4.15,1.09-4.12h2.76L305.75,73h-2.47L302,68.71,300.61,73h-2.44Z"/><path class="cls-3" d="M308.77,61.92h3V64h-3Zm.06,2.84h2.84v8.13h-2.84Z"/><path class="cls-3" d="M313.35,70.37V67h-1V64.76h1V62.7h2.84v2.06h1.9V67h-1.9v2.77c0,.57.26.81.79.81a2.46,2.46,0,0,0,1.08-.27v2.23a4.14,4.14,0,0,1-2,.48C314.36,73.06,313.35,72.3,313.35,70.37Z"/><path class="cls-3" d="M318.89,61.92h2.85v4a3,3,0,0,1,2.44-1.29,2.66,2.66,0,0,1,2.76,3v5.32H324.1v-4.4c0-.91-.47-1.39-1.16-1.39s-1.2.48-1.2,1.39v4.4h-2.85Z"/><path class="cls-3" d="M331.39,68.86v0a4.5,4.5,0,0,1,9,0v0a4.34,4.34,0,0,1-4.51,4.26A4.29,4.29,0,0,1,331.39,68.86Zm6.21,0v0A1.79,1.79,0,0,0,335.86,67a1.71,1.71,0,0,0-1.7,1.82v0a1.77,1.77,0,0,0,1.73,1.84A1.72,1.72,0,0,0,337.6,68.86Z"/><path class="cls-3" d="M341.07,70.07V64.76h2.86v4.4c0,.89.46,1.37,1.16,1.37a1.2,1.2,0,0,0,1.2-1.37v-4.4h2.84v8.13h-2.84V71.76a3,3,0,0,1-2.44,1.31A2.68,2.68,0,0,1,341.07,70.07Z"/><path class="cls-3" d="M350.23,64.76h2.85V66.4a2.5,2.5,0,0,1,2.57-1.78v3h-.24c-1.49,0-2.33.86-2.33,2.72v2.54h-2.85Z"/><path class="cls-3" d="M360.43,67h-.94V64.79h.94v-.17a2.48,2.48,0,0,1,2.83-2.81,6,6,0,0,1,1.85.23v2a3.49,3.49,0,0,0-1.07-.16c-.53,0-.81.24-.81.76v.2h1.88V67h-1.82v5.85h-2.86Z"/><path class="cls-3" d="M365.56,64.76h2.86V66.4A2.49,2.49,0,0,1,371,64.62v3h-.24c-1.49,0-2.33.86-2.33,2.72v2.54h-2.86Z"/><path class="cls-3" d="M371.08,68.86v0a4.08,4.08,0,0,1,4.1-4.25c2.8,0,4.09,2.06,4.09,4.45a5.72,5.72,0,0,1,0,.58h-5.44A1.68,1.68,0,0,0,375.57,71a2.39,2.39,0,0,0,1.8-.83L379,71.43a4.25,4.25,0,0,1-3.51,1.66A4.1,4.1,0,0,1,371.08,68.86Zm5.53-.7a1.47,1.47,0,0,0-1.43-1.48c-.75,0-1.26.57-1.41,1.48Z"/><path class="cls-3" d="M379.75,68.86v0a4.08,4.08,0,0,1,4.1-4.25c2.8,0,4.09,2.06,4.09,4.45,0,.18,0,.39,0,.58h-5.44A1.67,1.67,0,0,0,384.24,71a2.42,2.42,0,0,0,1.81-.83l1.57,1.31a4.24,4.24,0,0,1-3.51,1.66A4.1,4.1,0,0,1,379.75,68.86Zm5.53-.7a1.47,1.47,0,0,0-1.43-1.48c-.75,0-1.26.57-1.41,1.48Z"/><path class="cls-3" d="M392.14,68.86v0a4.49,4.49,0,0,1,9,0v0a4.33,4.33,0,0,1-4.51,4.26A4.29,4.29,0,0,1,392.14,68.86Zm6.2,0v0A1.78,1.78,0,0,0,396.6,67a1.71,1.71,0,0,0-1.7,1.82v0a1.77,1.77,0,0,0,1.73,1.84A1.71,1.71,0,0,0,398.34,68.86Z"/><path class="cls-3" d="M401.88,64.76h2.85V65.9a3,3,0,0,1,2.44-1.32c1.73,0,2.76,1.14,2.76,3v5.32h-2.84v-4.4c0-.91-.46-1.39-1.16-1.39s-1.2.48-1.2,1.39v4.4h-2.85Z"/><path class="cls-3" d="M411.05,61.92h2.84v11h-2.84Z"/><path class="cls-3" d="M415.06,61.92h3V64h-3Zm.06,2.84H418v8.13h-2.84Z"/><path class="cls-3" d="M419.12,64.76H422V65.9a3,3,0,0,1,2.44-1.32c1.73,0,2.76,1.14,2.76,3v5.32h-2.84v-4.4c0-.91-.46-1.39-1.15-1.39s-1.21.48-1.21,1.39v4.4h-2.85Z"/><path class="cls-3" d="M427.9,68.86v0a4.08,4.08,0,0,1,4.1-4.25c2.8,0,4.09,2.06,4.09,4.45a5.72,5.72,0,0,1,0,.58h-5.44A1.68,1.68,0,0,0,432.39,71a2.39,2.39,0,0,0,1.8-.83l1.58,1.31a4.25,4.25,0,0,1-3.51,1.66A4.1,4.1,0,0,1,427.9,68.86Zm5.53-.7A1.47,1.47,0,0,0,432,66.68c-.75,0-1.26.57-1.41,1.48Z"/><path class="cls-3" d="M440.28,68.86v0a4.22,4.22,0,0,1,4.35-4.24,3.87,3.87,0,0,1,3.47,1.81l-1.92,1.44a1.84,1.84,0,0,0-1.52-.86,1.71,1.71,0,0,0-1.61,1.82v0a1.69,1.69,0,0,0,1.62,1.85,1.92,1.92,0,0,0,1.57-.84l1.9,1.38a4,4,0,0,1-3.6,1.87A4.19,4.19,0,0,1,440.28,68.86Z"/><path class="cls-3" d="M448.18,68.86v0a4.49,4.49,0,0,1,9,0v0a4.34,4.34,0,0,1-4.51,4.26A4.28,4.28,0,0,1,448.18,68.86Zm6.2,0v0A1.78,1.78,0,0,0,452.64,67a1.71,1.71,0,0,0-1.7,1.82v0a1.77,1.77,0,0,0,1.73,1.84A1.71,1.71,0,0,0,454.38,68.86Z"/><path class="cls-3" d="M457.86,70.07V64.76h2.85v4.4c0,.89.47,1.37,1.16,1.37a1.2,1.2,0,0,0,1.2-1.37v-4.4h2.84v8.13h-2.84V71.76a3,3,0,0,1-2.43,1.31A2.68,2.68,0,0,1,457.86,70.07Z"/><path class="cls-3" d="M467,64.76h2.86V66.4a2.49,2.49,0,0,1,2.57-1.78v3h-.24c-1.49,0-2.33.86-2.33,2.72v2.54H467Z"/><path class="cls-3" d="M472.39,71.85l1.07-1.71a5.2,5.2,0,0,0,2.78.93c.5,0,.74-.15.74-.43v0c0-.33-.47-.47-1.33-.71-1.61-.42-2.88-1-2.88-2.59v0c0-1.72,1.38-2.69,3.26-2.69a6.35,6.35,0,0,1,3.35,1l-1,1.8a5.3,5.3,0,0,0-2.4-.76c-.44,0-.66.16-.66.4v0c0,.32.48.47,1.32.73,1.61.45,2.89,1,2.89,2.58v0c0,1.79-1.34,2.72-3.33,2.72A6.44,6.44,0,0,1,472.39,71.85Z"/><path class="cls-3" d="M480,68.86v0a4.08,4.08,0,0,1,4.1-4.25c2.8,0,4.09,2.06,4.09,4.45a5.72,5.72,0,0,1,0,.58H482.7A1.69,1.69,0,0,0,484.46,71a2.42,2.42,0,0,0,1.81-.83l1.57,1.31a4.24,4.24,0,0,1-3.51,1.66A4.1,4.1,0,0,1,480,68.86Zm5.53-.7a1.47,1.47,0,0,0-1.43-1.48c-.75,0-1.26.57-1.41,1.48Z"/><path class="cls-3" d="M488.36,71.85l1.06-1.71a5.2,5.2,0,0,0,2.78.93c.5,0,.74-.15.74-.43v0c0-.33-.47-.47-1.32-.71-1.61-.42-2.89-1-2.89-2.59v0c0-1.72,1.38-2.69,3.26-2.69a6.35,6.35,0,0,1,3.35,1l-1,1.8a5.34,5.34,0,0,0-2.41-.76c-.43,0-.66.16-.66.4v0c0,.32.48.47,1.32.73,1.61.45,2.89,1,2.89,2.58v0c0,1.79-1.34,2.72-3.32,2.72A6.42,6.42,0,0,1,488.36,71.85Z"/><path class="cls-3" d="M496.14,70h3v2.93h-3Z"/></g></svg>