<svg xmlns="http://www.w3.org/2000/svg" xmlns:xlink="http://www.w3.org/1999/xlink" viewBox="0 0 90 16"><defs><style>.cls-1{fill:none;}.cls-2{clip-path:url(#clip-path);}.cls-3{fill:url(#linear-gradient);}.cls-4{fill:#fff;}</style><clipPath id="clip-path" transform="translate(0 0)"><rect class="cls-1" width="90" height="16"/></clipPath><linearGradient id="linear-gradient" x1="-3304.89" y1="5757.42" x2="-3304.11" y2="5757.42" gradientTransform="matrix(116, 0, 0, -116, 383367.32, 667869.13)" gradientUnits="userSpaceOnUse"><stop offset="0" stop-color="#926a42"/><stop offset="0" stop-color="#926a42"/><stop offset="0.12" stop-color="#9a734c"/><stop offset="0.31" stop-color="#b08b68"/><stop offset="0.44" stop-color="#c19e7e"/><stop offset="0.71" stop-color="#ba9472"/><stop offset="1" stop-color="#9f7248"/></linearGradient></defs><title>cta-ch-x50</title><g id="Layer_2" data-name="Layer 2"><g id="Layer_2-2" data-name="Layer 2"><g class="cls-2"><rect class="cls-3" width="90" height="16"/></g><path class="cls-4" d="M21.7,5.08h3.43v.61H21.7Zm3.14,1.85H21.93V6.34h2.91Zm-2.9.75h2.91v.59H21.94Zm2.88,4.26H22.63v.46H22V9.05h2.84ZM22.63,9.66v1.67h1.53V9.66ZM23.38,5a10.86,10.86,0,0,0-.5-1.35l.62-.19A7.4,7.4,0,0,1,24,4.74Zm6.83,6.78c0,.36-.07.54-.34.65a3.79,3.79,0,0,1-1.29.11,2.07,2.07,0,0,0-.21-.62c.45,0,.86,0,1,0s.16,0,.16-.15V10.9h-3.1a3.67,3.67,0,0,1-.72,1.75,2.41,2.41,0,0,0-.52-.49,4.08,4.08,0,0,0,.66-2.55V7.77h4.38Zm.58-5.13v.57H25.24V6.62H27.6V5.94h-2V5.4h2V4.79H25.35V4.22H27.6V3.41h.73v.81h2.36v.57H28.33V5.4H30.5v.54H28.33v.68Zm-1.28,3.75V9.63h-3c0,.23,0,.48,0,.74Zm-3-2V9.1h3V8.36Z" transform="translate(0 0)"/><path class="cls-4" d="M37.52,9.12a21.54,21.54,0,0,1,1.39,2.55l-.67.37c-.11-.27-.27-.63-.46-1a16,16,0,0,0-3.06,1.19,3.12,3.12,0,0,0-.31-.76.67.67,0,0,0,.42-.63V3.93h3.81V8.61H35.57v2.46l1.91-.62c-.2-.36-.41-.72-.59-1Zm-2-4.52V5.9h2.34V4.6Zm2.34,3.34V6.57H35.57V7.94ZM42.83,9.7c0,.42-.09.63-.36.75a3.74,3.74,0,0,1-1.45.13,2.52,2.52,0,0,0-.22-.71c.52,0,1,0,1.11,0s.19,0,.19-.18v-5H40.29v7.84h-.73V4h3.27Z" transform="translate(0 0)"/><path class="cls-4" d="M55.54,5.05A14.39,14.39,0,0,1,54,6.26,6.83,6.83,0,0,0,55.9,7.42a2.74,2.74,0,0,0-.51.6A7.66,7.66,0,0,1,53,6.31v.51H49.44V6.35A8.61,8.61,0,0,1,47,8.11a3.42,3.42,0,0,0-.46-.56,6.84,6.84,0,0,0,2-1.31,6.56,6.56,0,0,0-1.27-1l.4-.42a6.46,6.46,0,0,1,1.31,1,6.93,6.93,0,0,0,1-1.4H47.26V3.78h3.07l.14,0L51,4A6.91,6.91,0,0,1,49.6,6.18h3.3a9.19,9.19,0,0,1-1.66-2.55l.65-.2a7.61,7.61,0,0,0,.69,1.24,12.67,12.67,0,0,0,1.29-1.18l.57.4a14.36,14.36,0,0,1-1.52,1.23,7.92,7.92,0,0,0,.67.76A12.44,12.44,0,0,0,55,4.67Zm-2.11,5.31c-.21.43-.46.9-.67,1.28H55.6v.65H46.85v-.65h2.74A5.14,5.14,0,0,0,49,10.4l.67-.21a5.26,5.26,0,0,1,.61,1.24l-.62.21H52a9.14,9.14,0,0,0,.73-1.47Zm.56-.25H48.33V7.63H54Zm-.78-1.86H49.06V9.49h4.15Z" transform="translate(0 0)"/><path class="cls-4" d="M59.18,5h4v.61h-4Zm.29,2.78h3.37v.59H59.47ZM62.68,12H60.26v.46H59.6V9.09h3.08Zm0-5.64v.58h-3V6.35ZM60.26,9.7v1.67H62V9.7Zm.9-4.8a5.88,5.88,0,0,0-.82-1.24l.57-.31a5.31,5.31,0,0,1,.86,1.2Zm5.77,6.72c.52,0,.61-.26.67-1.65a2,2,0,0,0,.7.3c-.11,1.62-.34,2.05-1.32,2.05H65c-1,0-1.32-.23-1.32-1.17V7.2h3.24V4.66H63.57V4h4.1V8.43h-.73V7.91H64.43v3.24c0,.39.11.47.65.47Z" transform="translate(0 0)"/></g></g></svg>