<svg xmlns="http://www.w3.org/2000/svg" viewBox="0 0 152.17 12.17"><defs><style>.cls-1{fill:#a5714e;}</style></defs><title>t3-ch-x50</title><g id="Layer_2" data-name="Layer 2"><g id="Layer_2-2" data-name="Layer 2"><path class="cls-1" d="M2,6.34a11.72,11.72,0,0,1-1.51,4.1A5.24,5.24,0,0,0,0,9.49,10.21,10.21,0,0,0,1.34,6.14Zm1-1V12H2.12V5.38H.22V4.47h1.9V.16H3V4.49h1.6v.89ZM1,3.91a25.74,25.74,0,0,0-.7-2.74L1,1a22,22,0,0,1,.73,2.73ZM3.68,6.15C3.91,6.49,4.8,8.1,5,8.49l-.66.72C4.1,8.57,3.41,7,3.15,6.51ZM4.93,1.29c-.34.89-.76,2-1.09,2.7l-.63-.22A21.36,21.36,0,0,0,4.1,1ZM11.3,11c0,.47-.09.7-.44.84A4.73,4.73,0,0,1,9.18,12a3.51,3.51,0,0,0-.27-.81,10.82,10.82,0,0,0,1.27,0c.17,0,.21,0,.21-.19V9.89h-4a4.91,4.91,0,0,1-.94,2.28,3.38,3.38,0,0,0-.67-.64A5.34,5.34,0,0,0,5.6,8.22V5.82h5.7Zm.75-6.68v.74H4.84V4.32H7.9V3.43H5.3v-.7H7.9V1.94H5V1.2H7.9V.14h.95V1.2h3.07v.74H8.85v.79h2.84v.7H8.85v.89ZM10.39,9.21v-1H6.49c0,.3,0,.63,0,1ZM6.49,6.59v1h3.9v-1Z"/><path class="cls-1" d="M26,5.8v.86H20.53a9.51,9.51,0,0,1-.16,1h5.37V8.5h-5.6c-.61,1.78-2,2.89-5.41,3.47a3.53,3.53,0,0,0-.51-.87c3-.43,4.28-1.26,4.86-2.6H14.72V7.66h4.64a7.44,7.44,0,0,0,.17-1h-5.1V5.8h5.21V4.71h-4V3.86h4v-1H14.89V1.94h2.74a7,7,0,0,0-1-1.51l.83-.34A6.1,6.1,0,0,1,18.6,1.73l-.46.21h3.41A14.47,14.47,0,0,0,22.67.09l1,.3a18.18,18.18,0,0,1-1,1.55h2.77v.87H20.61v1h4.16v.85H20.61V5.8ZM20.63,8.65a32.53,32.53,0,0,1,5.31,2.57l-.46.83a31.61,31.61,0,0,0-5.26-2.69Z"/><path class="cls-1" d="M32.21,10.31c3-2.61,4.37-4.51,4.37-6.15a1.67,1.67,0,0,0-1.75-1.88,2.68,2.68,0,0,0-2,1.1l-.69-.68A3.66,3.66,0,0,1,35,1.3a2.62,2.62,0,0,1,2.77,2.82c0,1.9-1.49,3.84-3.73,6,.49,0,1.08-.1,1.56-.1h2.64v1h-6Z"/><path class="cls-1" d="M52.14,11.18A7.22,7.22,0,0,1,50,10.09a4,4,0,0,1-2.75,1.09,2.65,2.65,0,0,1-2.9-2.64,3.43,3.43,0,0,1,1.87-2.75,5.09,5.09,0,0,1-.62-2.23A2.15,2.15,0,0,1,47.76,1.3a1.75,1.75,0,0,1,1.87,1.89c0,1.24-1.09,2.05-2.14,2.82A11.67,11.67,0,0,0,49.91,8.7a8.12,8.12,0,0,0,1.35-2.82h1.09a10.26,10.26,0,0,1-1.66,3.4,5.67,5.67,0,0,0,1.78.91Zm-4.78-.95a2.84,2.84,0,0,0,1.82-.77,14.4,14.4,0,0,1-2.51-2.84,2.55,2.55,0,0,0-1.2,1.86A1.76,1.76,0,0,0,47.36,10.23Zm-.31-5c.87-.59,1.62-1.17,1.62-2,0-.56-.26-1-.91-1a1.23,1.23,0,0,0-1.17,1.38A4,4,0,0,0,47.05,5.23Z"/><path class="cls-1" d="M58.06,9.88l.6-.78A3.1,3.1,0,0,0,61,10.19,1.75,1.75,0,0,0,63,8.42c0-1.14-.77-1.91-3-1.91V5.6c2,0,2.63-.79,2.63-1.82A1.49,1.49,0,0,0,61,2.25a3,3,0,0,0-2,1l-.64-.76A3.81,3.81,0,0,1,61.07,1.3c1.6,0,2.77.86,2.77,2.39A2.37,2.37,0,0,1,62.14,6v.06a2.44,2.44,0,0,1,2,2.41,2.78,2.78,0,0,1-3.06,2.72A3.92,3.92,0,0,1,58.06,9.88Z"/><path class="cls-1" d="M79.42,2c0,.55,0,1.18,0,1.85.49,3.12,1.5,6,3.12,7.35a4.08,4.08,0,0,0-.66.71,11.73,11.73,0,0,1-2.75-5.55A13,13,0,0,1,76.69,12a2.7,2.7,0,0,0-.76-.55c.09-.12.19-.24.28-.37h-5V.88h5.34v.85H74.7V4h1.73V7.74H74.7v2.47h1.86v.35c2-3,2-6.48,2-8.61V.38h.89Zm-7.28-.22V4h1.7V1.73Zm3.4,3.17h-3.4V6.83h3.4Zm-3.4,5.31h1.69V7.74H72.14Z"/><path class="cls-1" d="M96.17,10.76v.88H84.72v-.88h5.21V9.05h-4V8.19h4V6.83h1V8.19H95v.86H90.91v1.71ZM85.81,3.56h-.93V1.27H90.1c-.14-.32-.34-.7-.5-1L90.52,0a11.06,11.06,0,0,1,.66,1.27H96V3.56H95V2.17H85.81Zm8.53,3.66a7.17,7.17,0,0,0-.74-.84c-6.16.48-6.77.52-7.18.69,0-.19-.18-.63-.28-.88A2.24,2.24,0,0,0,87,5.72a14.16,14.16,0,0,0,1.8-1.56H86.19V3.32h8.57v.84h-4.7a18.41,18.41,0,0,1-2.19,1.89l5-.36c-.35-.32-.71-.63-1-.91l.72-.45a18.44,18.44,0,0,1,2.54,2.35Z"/><path class="cls-1" d="M103.16.85a17.45,17.45,0,0,1-3.81,5.52,8.26,8.26,0,0,0-.86-.78A13.56,13.56,0,0,0,102.1.52ZM106.81,7a39.77,39.77,0,0,1,2.91,4.37l-1,.53c-.18-.36-.43-.78-.7-1.25-6.74.47-7.45.51-8,.69a5.24,5.24,0,0,0-.38-1c.35-.08.73-.51,1.23-1.12a29.33,29.33,0,0,0,3.27-5.12l1.08.45a34.12,34.12,0,0,1-3.81,5.58l6-.34c-.51-.81-1.09-1.65-1.62-2.34Zm.27-6.55a9.43,9.43,0,0,0,3.45,5,5.1,5.1,0,0,0-.76.9,10.78,10.78,0,0,1-3.42-4.93h-2.42v-1Z"/><path class="cls-1" d="M124,1.24V3.61h-.92V2.08H114V3.61h-.88V1.24h5.07c-.14-.33-.33-.68-.49-1l1-.23a8,8,0,0,1,.61,1.2ZM123.44,11c0,.47-.1.69-.46.83a5.67,5.67,0,0,1-1.74.15,2.73,2.73,0,0,0-.28-.8c.64,0,1.17,0,1.33,0s.22-.07.22-.2V8.35h-3.59V9.49l1.6-.06a7.79,7.79,0,0,0-.48-.65l.68-.26A9.34,9.34,0,0,1,122,10.45l-.71.33a3,3,0,0,0-.27-.59c-2,.11-4.17.21-5.67.26l-.06-.83L118,9.53V8.35h-3.45V12h-.91V8.35h-.52V7.51h.52V7.07h.91v.44H118V6.68h-3.13V2.87h7.29V6.68h-3.25v.83h4.52Zm-7.69-6.56H118V3.58h-2.26ZM118,6V5.11h-2.26V6Zm3.25-2.41h-2.34v.87h2.34Zm0,1.53h-2.34V6h2.34Z"/><path class="cls-1" d="M130.7.47a20.14,20.14,0,0,1-1.32,2.78V12h-1V4.76a13.36,13.36,0,0,1-1.28,1.55,5.05,5.05,0,0,0-.56-1A14.49,14.49,0,0,0,129.78.18Zm7.8,10.18v.92h-8.36v-.92h3.76V7.36h-3V6.45h3V3.59h-3.42V2.67h7.84v.92h-3.46V6.45h3.07v.91h-3.07v3.29Zm-4.26-8.1A10.45,10.45,0,0,0,133.17.4L134,.08a10.7,10.7,0,0,1,1.13,2.1Z"/><path class="cls-1" d="M142.14,4.19h-1V1.5h5a12.31,12.31,0,0,0-.57-1.15l.94-.28a15.31,15.31,0,0,1,.76,1.43H152V4.19h-1V2.41h-8.89Zm8.14,6.68c.72,0,.85-.3.94-1.85a2.34,2.34,0,0,0,.95.39c-.16,1.89-.47,2.41-1.82,2.41h-2.92c-1.52,0-1.93-.35-1.93-1.6V7.84h-4.06V6.9h4.06V5c-1.07.18-2.16.34-3.19.46a3.43,3.43,0,0,0-.3-.83,34.89,34.89,0,0,0,7.32-1.51l.77.76a22.32,22.32,0,0,1-3.59,1V6.9h4.93v.94h-4.93v2.38c0,.53.17.65,1,.65Z"/></g></g></svg>