<?xml version="1.0" encoding="UTF-8"?><svg id="Layer_2" xmlns="http://www.w3.org/2000/svg" viewBox="0 0 210.56 35.84"><defs><style>.cls-1{fill:#fff;}.cls-2{fill:#f36f21;}</style></defs><g id="Layer_1-2"><g id="concept2-336x280"><g><rect class="cls-2" width="210.56" height="35.84" rx="8" ry="8"/><g><path class="cls-1" d="M11.35,17.44v-.05c0-5.48,4.3-9.79,10.13-9.79,3.31,0,5.65,1.02,7.63,2.74l-3.06,3.68c-1.34-1.13-2.69-1.77-4.54-1.77-2.72,0-4.81,2.29-4.81,5.16v.05c0,3.04,2.12,5.22,5.11,5.22,1.26,0,2.23-.27,3.01-.78v-2.29h-3.71v-3.82h8.66v8.47c-1.99,1.64-4.76,2.9-8.17,2.9-5.86,0-10.24-4.03-10.24-9.73Z"/><path class="cls-1" d="M33.34,7.97h15.13v4.44h-9.97v2.85h9.03v4.11h-9.03v2.98h10.11v4.44h-15.27V7.97Z"/><path class="cls-1" d="M56.53,12.54h-5.64V7.97h16.51v4.57h-5.65v14.25h-5.22V12.54Z"/><path class="cls-1" d="M77.31,24.18l2.98-3.49c1.53,1.29,2.98,2.04,4.57,2.04,1.72,0,2.77-.86,2.77-2.2v-.05c0-1.34-1.13-2.18-2.77-2.18-1.16,0-2.12,.4-3.01,.94l-3.09-1.72,.54-9.54h12.58v4.3h-8.47l-.16,2.85c.86-.4,1.75-.67,3.01-.67,3.39,0,6.45,1.88,6.45,5.97v.05c0,4.19-3.2,6.69-7.77,6.69-3.33,0-5.67-1.16-7.63-2.98Z"/><path class="cls-1" d="M95.51,17.44v-.05c0-5.32,3.39-9.79,8.74-9.79s8.68,4.41,8.68,9.73v.05c0,5.32-3.36,9.79-8.74,9.79s-8.68-4.41-8.68-9.73Zm12.18,0v-.05c0-2.98-1.42-5.16-3.49-5.16s-3.44,2.1-3.44,5.11v.05c0,3.01,1.4,5.16,3.49,5.16s3.44-2.12,3.44-5.11Z"/><path class="cls-1" d="M122.63,26.74c-2.63-.27-5.24-1.21-7.26-2.66l2.42-3.58c1.72,1.21,3.33,1.94,5,2.2v-3.23c-4.33-.99-6.53-2.47-6.53-5.81v-.05c0-3.17,2.31-5.38,6.42-5.67v-1.53h2.8v1.61c2.2,.24,4.06,.99,5.67,2.1l-2.2,3.6c-1.1-.78-2.39-1.32-3.6-1.61v3.12c4.27,.99,6.42,2.53,6.42,5.86v.05c0,3.28-2.53,5.3-6.34,5.65v2.63h-2.8v-2.69Zm.19-14.87c-1.32,.11-1.83,.65-1.83,1.34v.05c0,.7,.38,1.1,1.83,1.51v-2.9Zm4.3,9.62v-.05c0-.73-.4-1.13-1.8-1.53v2.96c1.24-.13,1.8-.59,1.8-1.37Z"/><path class="cls-1" d="M142.41,17.44v-.05c0-5.4,4.35-9.79,10.16-9.79s10.11,4.33,10.11,9.73v.05c0,5.4-4.36,9.79-10.16,9.79s-10.11-4.33-10.11-9.73Zm14.95,0v-.05c0-2.71-1.96-5.08-4.84-5.08s-4.76,2.31-4.76,5.03v.05c0,2.72,1.96,5.08,4.81,5.08s4.79-2.31,4.79-5.03Z"/><path class="cls-1" d="M166.07,7.97h15.05v4.57h-9.84v3.2h8.9v4.33h-8.9v6.72h-5.21V7.97Z"/><path class="cls-1" d="M184.16,7.97h15.05v4.57h-9.84v3.2h8.9v4.33h-8.9v6.72h-5.22V7.97Z"/></g></g></g></g></svg>