<svg id="Layer_1" data-name="Layer 1" xmlns="http://www.w3.org/2000/svg" xmlns:xlink="http://www.w3.org/1999/xlink" viewBox="0 0 300 600"><defs><style>.cls-1{fill:none;}.cls-2{clip-path:url(#clip-path);}.cls-3{clip-path:url(#clip-path-3);}.cls-4{clip-path:url(#clip-path-4);}.cls-5{clip-path:url(#clip-path-5);}.cls-6{clip-path:url(#clip-path-7);}.cls-7{clip-path:url(#clip-path-8);}.cls-8{clip-path:url(#clip-path-9);}.cls-9{clip-path:url(#clip-path-11);}.cls-10{clip-path:url(#clip-path-12);}.cls-11{clip-path:url(#clip-path-13);}.cls-12{clip-path:url(#clip-path-15);}.cls-13{clip-path:url(#clip-path-16);}.cls-14{clip-path:url(#clip-path-17);}.cls-15{fill:#221e1f;}.cls-16{clip-path:url(#clip-path-18);}.cls-17{clip-path:url(#clip-path-20);}.cls-18{clip-path:url(#clip-path-21);}.cls-19{clip-path:url(#clip-path-22);}.cls-20{clip-path:url(#clip-path-24);}.cls-21{clip-path:url(#clip-path-25);}.cls-22{clip-path:url(#clip-path-26);}.cls-23{clip-path:url(#clip-path-28);}.cls-24{clip-path:url(#clip-path-29);}.cls-25{clip-path:url(#clip-path-30);}.cls-26{clip-path:url(#clip-path-32);}.cls-27{clip-path:url(#clip-path-33);}.cls-28{clip-path:url(#clip-path-34);}.cls-29{clip-path:url(#clip-path-35);}.cls-30{clip-path:url(#clip-path-36);}.cls-31{clip-path:url(#clip-path-37);}.cls-32{clip-path:url(#clip-path-38);}.cls-33{clip-path:url(#clip-path-39);}.cls-34{clip-path:url(#clip-path-40);}.cls-35{clip-path:url(#clip-path-41);}.cls-36{clip-path:url(#clip-path-42);}</style><clipPath id="clip-path"><rect class="cls-1" x="-1280" width="300" height="600"/></clipPath><clipPath id="clip-path-3"><rect class="cls-1" x="-1199.15" y="364.8" width="138.3" height="137.47"/></clipPath><clipPath id="clip-path-4"><rect class="cls-1" x="-34048" y="-32167" width="65535" height="65535"/></clipPath><clipPath id="clip-path-5"><rect class="cls-1" x="-960" width="300" height="600"/></clipPath><clipPath id="clip-path-7"><rect class="cls-1" x="-879.15" y="364.8" width="138.3" height="137.47"/></clipPath><clipPath id="clip-path-8"><rect class="cls-1" x="-33728" y="-32167" width="65535" height="65535"/></clipPath><clipPath id="clip-path-9"><rect class="cls-1" x="-640" width="300" height="600"/></clipPath><clipPath id="clip-path-11"><rect class="cls-1" x="-559.15" y="364.8" width="138.3" height="137.47"/></clipPath><clipPath id="clip-path-12"><rect class="cls-1" x="-33408" y="-32167" width="65535" height="65535"/></clipPath><clipPath id="clip-path-13"><rect class="cls-1" x="-320" width="300" height="600"/></clipPath><clipPath id="clip-path-15"><rect class="cls-1" x="-239.15" y="364.8" width="138.3" height="137.47"/></clipPath><clipPath id="clip-path-16"><rect class="cls-1" x="-33088" y="-32167" width="65535" height="65535"/></clipPath><clipPath id="clip-path-17"><rect class="cls-1" width="300" height="600"/></clipPath><clipPath id="clip-path-18"><rect class="cls-1" x="320" width="300" height="600"/></clipPath><clipPath id="clip-path-20"><rect class="cls-1" x="400.85" y="364.8" width="138.3" height="137.47"/></clipPath><clipPath id="clip-path-21"><rect class="cls-1" x="-32448" y="-32167" width="65535" height="65535"/></clipPath><clipPath id="clip-path-22"><rect class="cls-1" x="640" width="300" height="600"/></clipPath><clipPath id="clip-path-24"><rect class="cls-1" x="720.85" y="364.8" width="138.3" height="137.47"/></clipPath><clipPath id="clip-path-25"><rect class="cls-1" x="-32128" y="-32167" width="65535" height="65535"/></clipPath><clipPath id="clip-path-26"><rect class="cls-1" x="960" width="300" height="600"/></clipPath><clipPath id="clip-path-28"><rect class="cls-1" x="1040.85" y="364.8" width="138.3" height="137.47"/></clipPath><clipPath id="clip-path-29"><rect class="cls-1" x="-31808" y="-32167" width="65535" height="65535"/></clipPath><clipPath id="clip-path-30"><rect class="cls-1" x="1280" width="300" height="600"/></clipPath><clipPath id="clip-path-32"><rect class="cls-1" x="1360.85" y="364.8" width="138.3" height="137.47"/></clipPath><clipPath id="clip-path-33"><rect class="cls-1" x="-31488" y="-32167" width="65535" height="65535"/></clipPath><clipPath id="clip-path-34"><rect class="cls-1" x="1600" width="300" height="600"/></clipPath><clipPath id="clip-path-35"><rect class="cls-1" x="1680.85" y="364.8" width="138.3" height="137.47"/></clipPath><clipPath id="clip-path-36"><rect class="cls-1" x="-31168" y="-32167" width="65535" height="65535"/></clipPath><clipPath id="clip-path-37"><rect class="cls-1" x="1920" width="300" height="600"/></clipPath><clipPath id="clip-path-38"><rect class="cls-1" x="2000.85" y="364.8" width="138.3" height="137.47"/></clipPath><clipPath id="clip-path-39"><rect class="cls-1" x="-30848" y="-32167" width="65535" height="65535"/></clipPath><clipPath id="clip-path-40"><rect class="cls-1" x="2240" width="300" height="600"/></clipPath><clipPath id="clip-path-41"><rect class="cls-1" x="2320.85" y="364.8" width="138.3" height="137.47"/></clipPath><clipPath id="clip-path-42"><rect class="cls-1" x="-30528" y="-32167" width="65535" height="65535"/></clipPath></defs><g class="cls-14"><path class="cls-15" d="M53.81,105.31V83.71H44.29V77.54H70.91v6.17H61.26v21.6Z"/><path class="cls-15" d="M79.29,105.84c-6.44,0-10.76-4.23-10.76-10.36s4.32-10.36,10.76-10.36S90,89.4,90,95.48,85.68,105.84,79.29,105.84Zm0-5.38c2.46,0,3.57-2,3.57-5s-1.11-5-3.57-5-3.58,2-3.58,5S76.77,100.46,79.29,100.46Z"/><path class="cls-15" d="M93.57,90.59H90.92V86.18L92.38,86c2-.31,2.6-1.37,3.08-3.17l.66-2.56h4.5v5.42h5.11v4.94h-5.11v7.19c0,1.67.79,2.33,2.25,2.33a7.81,7.81,0,0,0,3-.66v4.63a9.27,9.27,0,0,1-5.91,1.76c-3.3,0-6.43-1.36-6.43-6Z"/><path class="cls-15" d="M127,99.54c0,1,.44,1.45,1.19,1.45a3.87,3.87,0,0,0,1.58-.31v3.8a7.55,7.55,0,0,1-4.45,1.27,4.85,4.85,0,0,1-5-3.48c-1.15,2.29-3.4,3.48-6.53,3.48-3.83,0-6.34-2-6.34-5.33,0-3.79,2.73-5.42,7-6.17l5.51-.93V93c0-1.63-.75-2.6-2.47-2.6s-2.38,1-2.69,2.47l-6.61-.44c.61-4.32,3.83-7.32,9.74-7.32,5.2,0,9,2.25,9,7.72Zm-7-2.73-2.91.52c-1.72.36-2.74.89-2.74,2.16,0,1,.8,1.68,2,1.68,2,0,3.66-1.5,3.66-4.06Z"/><path class="cls-15" d="M139,77.54v27.77h-7.14V77.54Z"/><path class="cls-15" d="M150,77.54v27.77h-7.15V77.54Z"/><path class="cls-15" d="M157.09,112.37l2.82-6.79-8-19.93h7.49l4.37,11.51h.17l4.45-11.51h7L164.1,112.37Z"/><path class="cls-15" d="M192.31,105.31h-7.14V85.65h7.14v3c1.06-2.16,3.39-3.49,6.35-3.49,5.38,0,7.09,3.75,7.09,7.85v12.34h-7.14V94.87c0-2.69-.75-4.1-2.91-4.1-2.42,0-3.39,1.94-3.39,4.89Z"/><path class="cls-15" d="M219.11,105.84c-6.44,0-10.76-4.23-10.76-10.36s4.32-10.36,10.76-10.36,10.76,4.28,10.76,10.36S225.5,105.84,219.11,105.84Zm0-5.38c2.47,0,3.57-2,3.57-5s-1.1-5-3.57-5-3.57,2-3.57,5S216.6,100.46,219.11,100.46Z"/><path class="cls-15" d="M233.39,90.59h-2.64V86.18L232.2,86c2-.31,2.6-1.37,3.09-3.17l.66-2.56h4.5v5.42h5.11v4.94h-5.11v7.19c0,1.67.79,2.33,2.24,2.33a7.82,7.82,0,0,0,3.05-.66v4.63a9.27,9.27,0,0,1-5.91,1.76c-3.31,0-6.44-1.36-6.44-6Z"/><path class="cls-15" d="M63.5,145.74c0,1,.45,1.45,1.2,1.45a4,4,0,0,0,1.58-.31v3.79A7.48,7.48,0,0,1,61.83,152a4.85,4.85,0,0,1-5-3.48c-1.15,2.29-3.4,3.48-6.53,3.48-3.83,0-6.34-2-6.34-5.33,0-3.79,2.73-5.42,7-6.17l5.51-.93v-.31c0-1.63-.75-2.6-2.47-2.6s-2.38,1-2.69,2.47l-6.61-.44c.61-4.32,3.83-7.32,9.74-7.32,5.2,0,9,2.25,9,7.72Zm-7-2.74-2.91.53c-1.72.36-2.74.88-2.74,2.16,0,1,.8,1.68,2,1.68,2,0,3.66-1.5,3.66-4.06Z"/><path class="cls-15" d="M87.93,143h.17l3.53-11.15h6.43l-6.21,19.66h-7L82,140.4H81.8l-2.87,11.11h-7l-6.21-19.66H72.8L76.33,143h.18l2.86-11.15h5.69Z"/><path class="cls-15" d="M107.06,151.51H99.92V123.74h7.14v14.9l6.74-6.79h8.38l-8.11,7.72,8.37,11.94h-8l-5.64-8-1.72,1.77Z"/><path class="cls-15" d="M144.22,143h.17l3.53-11.15h6.44l-6.22,19.66h-7l-2.86-11.11h-.18l-2.87,11.11h-7L122,131.85h7.1L132.62,143h.18l2.87-11.15h5.68Z"/><path class="cls-15" d="M174.15,145.74c0,1,.44,1.45,1.19,1.45a4.12,4.12,0,0,0,1.59-.31v3.79a7.54,7.54,0,0,1-4.46,1.28,4.85,4.85,0,0,1-5-3.48c-1.14,2.29-3.39,3.48-6.52,3.48-3.84,0-6.35-2-6.35-5.33,0-3.79,2.73-5.42,7-6.17l5.51-.93v-.31c0-1.63-.75-2.6-2.47-2.6s-2.38,1-2.69,2.47l-6.61-.44c.62-4.32,3.84-7.32,9.74-7.32,5.2,0,9,2.25,9,7.72Zm-7-2.74-2.91.53c-1.72.36-2.73.88-2.73,2.16,0,1,.79,1.68,2,1.68,2,0,3.66-1.5,3.66-4.06Z"/><path class="cls-15" d="M193.81,138.82a6.3,6.3,0,0,0-3.39-.84c-2.65,0-4.28,1.23-4.28,4.54v9H179V131.85h7.14v3.48a5.72,5.72,0,0,1,5.38-4,4.68,4.68,0,0,1,2.73.75Z"/><path class="cls-15" d="M210.25,148.16c-.92,2.29-3.17,3.88-6.43,3.88-5.82,0-8.73-4.54-8.73-10.36s2.91-10.36,8.73-10.36c3.26,0,5.51,1.59,6.43,3.93V123.74h7.14v27.77h-7.14Zm0-6.61c0-2.82-1.54-4.67-3.92-4.67-2.82,0-4.06,2-4.06,4.8s1.24,4.85,4.06,4.85c2.38,0,3.92-1.85,3.92-4.72Z"/><path class="cls-15" d="M65.31,189.2h.18L69,178.05h6.44l-6.21,19.66h-7L59.36,186.6h-.18l-2.86,11.11h-7l-6.22-19.66h7.1l3.53,11.15h.17l2.87-11.15h5.69Z"/><path class="cls-15" d="M77.26,169.94h7.23v6.26H77.26Zm7.18,8.11v19.66H77.3V178.05Z"/><path class="cls-15" d="M89,183H86.38v-4.41l1.46-.22c2-.31,2.6-1.37,3.08-3.18l.66-2.55h4.5v5.42h5.11V183H96.08v7.18c0,1.68.79,2.34,2.25,2.34a8,8,0,0,0,3-.66v4.63a9.27,9.27,0,0,1-5.91,1.76c-3.3,0-6.43-1.37-6.43-6Z"/><path class="cls-15" d="M111.24,197.71H104.1V169.94h7.14V181c1.06-2.16,3.4-3.48,6.35-3.48,5.38,0,7.1,3.75,7.1,7.85v12.34h-7.14V187.26c0-2.69-.75-4.1-2.91-4.1-2.43,0-3.4,1.94-3.4,4.9Z"/><path class="cls-15" d="M150.92,197.71H136.46V169.94H150c7.14,0,10.36,3,10.36,7.67a5.53,5.53,0,0,1-4.94,5.68c3.27.67,5.78,2.83,5.78,6.79C161.19,194.89,157.4,197.71,150.92,197.71ZM143.73,181H149c2.56,0,3.57-1.15,3.57-2.47s-1-2.6-3.57-2.6h-5.29Zm0,5.6v5.15h6c2.6,0,3.74-1.05,3.74-2.55s-1.14-2.6-3.79-2.6Z"/><path class="cls-15" d="M164,186.69V169.94h7.46v15.52c0,4.23,1.32,6.48,5.15,6.48s5.16-2.25,5.16-6.48V169.94h7.49v16.75c0,8.11-5.51,11.55-12.65,11.55S164,194.8,164,186.69Z"/><path class="cls-15" d="M206.24,169.41c8.51,0,13,5.42,13.58,12.34l-7.19.27c-.44-3.09-2.12-6-6.44-6-4.1,0-6.48,3-6.48,7.75s2.38,7.76,6.48,7.76c4.32,0,6-2.86,6.44-6l7.19.31c-.53,6.92-5.07,12.3-13.58,12.3-8.11,0-14.24-5.86-14.24-14.42S198.13,169.41,206.24,169.41Z"/><path class="cls-15" d="M240.36,197.71l-7.72-11.06-2.42,2.64v8.42h-7.5V169.94h7.5v11.24l10-11.24h8.6l-10.71,11.81,11.24,16Z"/><path class="cls-15" d="M250.85,190.13h7.58v7.58h-7.58Z"/></g></svg>