<svg id="Layer_1" data-name="Layer 1" xmlns="http://www.w3.org/2000/svg" xmlns:xlink="http://www.w3.org/1999/xlink" viewBox="0 0 300 600"><defs><style>.cls-1{fill:none;}.cls-2{clip-path:url(#clip-path);}.cls-3{clip-path:url(#clip-path-3);}.cls-4{clip-path:url(#clip-path-4);}.cls-5{clip-path:url(#clip-path-5);}.cls-6{clip-path:url(#clip-path-7);}.cls-7{clip-path:url(#clip-path-8);}.cls-8{clip-path:url(#clip-path-9);}.cls-9{clip-path:url(#clip-path-11);}.cls-10{clip-path:url(#clip-path-12);}.cls-11{clip-path:url(#clip-path-13);}.cls-12{fill:#221e1f;}.cls-13{clip-path:url(#clip-path-14);}.cls-14{clip-path:url(#clip-path-16);}.cls-15{clip-path:url(#clip-path-17);}.cls-16{clip-path:url(#clip-path-18);}.cls-17{clip-path:url(#clip-path-20);}.cls-18{clip-path:url(#clip-path-21);}.cls-19{clip-path:url(#clip-path-22);}.cls-20{clip-path:url(#clip-path-24);}.cls-21{clip-path:url(#clip-path-25);}.cls-22{clip-path:url(#clip-path-26);}.cls-23{clip-path:url(#clip-path-28);}.cls-24{clip-path:url(#clip-path-29);}.cls-25{clip-path:url(#clip-path-30);}.cls-26{clip-path:url(#clip-path-32);}.cls-27{clip-path:url(#clip-path-33);}.cls-28{clip-path:url(#clip-path-34);}.cls-29{clip-path:url(#clip-path-35);}.cls-30{clip-path:url(#clip-path-36);}.cls-31{clip-path:url(#clip-path-37);}.cls-32{clip-path:url(#clip-path-38);}.cls-33{clip-path:url(#clip-path-39);}.cls-34{clip-path:url(#clip-path-40);}.cls-35{clip-path:url(#clip-path-41);}.cls-36{clip-path:url(#clip-path-42);}</style><clipPath id="clip-path"><rect class="cls-1" x="-960" width="300" height="600"/></clipPath><clipPath id="clip-path-3"><rect class="cls-1" x="-879.15" y="364.8" width="138.3" height="137.47"/></clipPath><clipPath id="clip-path-4"><rect class="cls-1" x="-33728" y="-32167" width="65535" height="65535"/></clipPath><clipPath id="clip-path-5"><rect class="cls-1" x="-640" width="300" height="600"/></clipPath><clipPath id="clip-path-7"><rect class="cls-1" x="-559.15" y="364.8" width="138.3" height="137.47"/></clipPath><clipPath id="clip-path-8"><rect class="cls-1" x="-33408" y="-32167" width="65535" height="65535"/></clipPath><clipPath id="clip-path-9"><rect class="cls-1" x="-320" width="300" height="600"/></clipPath><clipPath id="clip-path-11"><rect class="cls-1" x="-239.15" y="364.8" width="138.3" height="137.47"/></clipPath><clipPath id="clip-path-12"><rect class="cls-1" x="-33088" y="-32167" width="65535" height="65535"/></clipPath><clipPath id="clip-path-13"><rect class="cls-1" width="300" height="600"/></clipPath><clipPath id="clip-path-14"><rect class="cls-1" x="320" width="300" height="600"/></clipPath><clipPath id="clip-path-16"><rect class="cls-1" x="400.85" y="364.8" width="138.3" height="137.47"/></clipPath><clipPath id="clip-path-17"><rect class="cls-1" x="-32448" y="-32167" width="65535" height="65535"/></clipPath><clipPath id="clip-path-18"><rect class="cls-1" x="640" width="300" height="600"/></clipPath><clipPath id="clip-path-20"><rect class="cls-1" x="720.85" y="364.8" width="138.3" height="137.47"/></clipPath><clipPath id="clip-path-21"><rect class="cls-1" x="-32128" y="-32167" width="65535" height="65535"/></clipPath><clipPath id="clip-path-22"><rect class="cls-1" x="960" width="300" height="600"/></clipPath><clipPath id="clip-path-24"><rect class="cls-1" x="1040.85" y="364.8" width="138.3" height="137.47"/></clipPath><clipPath id="clip-path-25"><rect class="cls-1" x="-31808" y="-32167" width="65535" height="65535"/></clipPath><clipPath id="clip-path-26"><rect class="cls-1" x="1280" width="300" height="600"/></clipPath><clipPath id="clip-path-28"><rect class="cls-1" x="1360.85" y="364.8" width="138.3" height="137.47"/></clipPath><clipPath id="clip-path-29"><rect class="cls-1" x="-31488" y="-32167" width="65535" height="65535"/></clipPath><clipPath id="clip-path-30"><rect class="cls-1" x="1600" width="300" height="600"/></clipPath><clipPath id="clip-path-32"><rect class="cls-1" x="1680.85" y="364.8" width="138.3" height="137.47"/></clipPath><clipPath id="clip-path-33"><rect class="cls-1" x="-31168" y="-32167" width="65535" height="65535"/></clipPath><clipPath id="clip-path-34"><rect class="cls-1" x="1920" width="300" height="600"/></clipPath><clipPath id="clip-path-35"><rect class="cls-1" x="2000.85" y="364.8" width="138.3" height="137.47"/></clipPath><clipPath id="clip-path-36"><rect class="cls-1" x="-30848" y="-32167" width="65535" height="65535"/></clipPath><clipPath id="clip-path-37"><rect class="cls-1" x="2240" width="300" height="600"/></clipPath><clipPath id="clip-path-38"><rect class="cls-1" x="2320.85" y="364.8" width="138.3" height="137.47"/></clipPath><clipPath id="clip-path-39"><rect class="cls-1" x="-30528" y="-32167" width="65535" height="65535"/></clipPath><clipPath id="clip-path-40"><rect class="cls-1" x="2560" width="300" height="600"/></clipPath><clipPath id="clip-path-41"><rect class="cls-1" x="2640.85" y="364.8" width="138.3" height="137.47"/></clipPath><clipPath id="clip-path-42"><rect class="cls-1" x="-30208" y="-32167" width="65535" height="65535"/></clipPath></defs><g class="cls-11"><path class="cls-12" d="M49.1,157.89H46.54v-4.27l1.41-.21c1.92-.3,2.52-1.32,3-3.07l.65-2.48h4.35v5.25h5v4.78h-5v7c0,1.62.77,2.26,2.18,2.26a7.63,7.63,0,0,0,2.94-.64V171a8.94,8.94,0,0,1-5.72,1.71c-3.2,0-6.23-1.33-6.23-5.81Z"/><path class="cls-12" d="M70.61,172.14H63.7V145.26h6.91V156a6.53,6.53,0,0,1,6.15-3.37c5.2,0,6.87,3.63,6.87,7.59v11.95H76.71V162c0-2.6-.72-4-2.81-4-2.35,0-3.29,1.88-3.29,4.74Z"/><path class="cls-12" d="M105,166.55c0,1,.43,1.41,1.15,1.41a3.81,3.81,0,0,0,1.54-.3v3.67a7.25,7.25,0,0,1-4.31,1.24,4.69,4.69,0,0,1-4.82-3.37c-1.11,2.22-3.29,3.37-6.32,3.37-3.71,0-6.14-1.92-6.14-5.16,0-3.67,2.64-5.25,6.78-6l5.34-.89v-.3c0-1.58-.73-2.52-2.39-2.52a2.58,2.58,0,0,0-2.61,2.39l-6.4-.43c.6-4.18,3.71-7.08,9.43-7.08,5,0,8.75,2.17,8.75,7.47Zm-6.78-2.64-2.82.51c-1.66.34-2.65.85-2.65,2.09,0,1,.77,1.62,1.92,1.62,2,0,3.55-1.45,3.55-3.92Z"/><path class="cls-12" d="M110.14,157.89h-2.56v-4.27l1.41-.21c1.92-.3,2.52-1.32,3-3.07l.65-2.48H117v5.25h5v4.78h-5v7c0,1.62.77,2.26,2.18,2.26a7.63,7.63,0,0,0,2.94-.64V171a8.94,8.94,0,0,1-5.72,1.71c-3.2,0-6.23-1.33-6.23-5.81Z"/><path class="cls-12" d="M133.1,157.89h-2.56v-4.27l1.41-.21c1.92-.3,2.52-1.32,3-3.07l.64-2.48h4.35v5.25h4.95v4.78h-4.95v7c0,1.62.77,2.26,2.18,2.26a7.63,7.63,0,0,0,2.94-.64V171a8.92,8.92,0,0,1-5.72,1.71c-3.2,0-6.23-1.33-6.23-5.81Z"/><path class="cls-12" d="M147.66,145.26h7v6.06h-7Zm7,7.85v19H147.7v-19Z"/><path class="cls-12" d="M165.29,172.14h-6.92v-19h6.92V156c1-2.09,3.28-3.37,6.14-3.37,5.21,0,6.87,3.63,6.87,7.59v11.95h-6.91V162c0-2.6-.73-4-2.82-4-2.34,0-3.28,1.88-3.28,4.74Z"/><path class="cls-12" d="M184.54,179l2.73-6.57-7.77-19.29h7.26L191,164.25h.17l4.31-11.14h6.79L191.32,179Z"/></g></svg>