<svg id="Layer_1" data-name="Layer 1" xmlns="http://www.w3.org/2000/svg" xmlns:xlink="http://www.w3.org/1999/xlink" viewBox="0 0 300 600"><defs><style>.cls-1{fill:none;}.cls-2{clip-path:url(#clip-path);}.cls-3{clip-path:url(#clip-path-3);}.cls-4{clip-path:url(#clip-path-4);}.cls-5{clip-path:url(#clip-path-5);}.cls-6{clip-path:url(#clip-path-7);}.cls-7{clip-path:url(#clip-path-8);}.cls-8{clip-path:url(#clip-path-9);}.cls-9{clip-path:url(#clip-path-11);}.cls-10{clip-path:url(#clip-path-12);}.cls-11{clip-path:url(#clip-path-13);}.cls-12{fill:#221e1f;}.cls-13{clip-path:url(#clip-path-14);}.cls-14{clip-path:url(#clip-path-16);}.cls-15{clip-path:url(#clip-path-17);}.cls-16{clip-path:url(#clip-path-18);}.cls-17{clip-path:url(#clip-path-20);}.cls-18{clip-path:url(#clip-path-21);}.cls-19{clip-path:url(#clip-path-22);}.cls-20{clip-path:url(#clip-path-24);}.cls-21{clip-path:url(#clip-path-25);}.cls-22{clip-path:url(#clip-path-26);}.cls-23{clip-path:url(#clip-path-28);}.cls-24{clip-path:url(#clip-path-29);}.cls-25{clip-path:url(#clip-path-30);}.cls-26{clip-path:url(#clip-path-32);}.cls-27{clip-path:url(#clip-path-33);}.cls-28{clip-path:url(#clip-path-34);}.cls-29{clip-path:url(#clip-path-35);}.cls-30{clip-path:url(#clip-path-36);}.cls-31{clip-path:url(#clip-path-37);}.cls-32{clip-path:url(#clip-path-38);}.cls-33{clip-path:url(#clip-path-39);}.cls-34{clip-path:url(#clip-path-40);}.cls-35{clip-path:url(#clip-path-41);}.cls-36{clip-path:url(#clip-path-42);}</style><clipPath id="clip-path"><rect class="cls-1" x="-960" width="300" height="600"/></clipPath><clipPath id="clip-path-3"><rect class="cls-1" x="-879.15" y="364.8" width="138.3" height="137.47"/></clipPath><clipPath id="clip-path-4"><rect class="cls-1" x="-33728" y="-32167" width="65535" height="65535"/></clipPath><clipPath id="clip-path-5"><rect class="cls-1" x="-640" width="300" height="600"/></clipPath><clipPath id="clip-path-7"><rect class="cls-1" x="-559.15" y="364.8" width="138.3" height="137.47"/></clipPath><clipPath id="clip-path-8"><rect class="cls-1" x="-33408" y="-32167" width="65535" height="65535"/></clipPath><clipPath id="clip-path-9"><rect class="cls-1" x="-320" width="300" height="600"/></clipPath><clipPath id="clip-path-11"><rect class="cls-1" x="-239.15" y="364.8" width="138.3" height="137.47"/></clipPath><clipPath id="clip-path-12"><rect class="cls-1" x="-33088" y="-32167" width="65535" height="65535"/></clipPath><clipPath id="clip-path-13"><rect class="cls-1" width="300" height="600"/></clipPath><clipPath id="clip-path-14"><rect class="cls-1" x="320" width="300" height="600"/></clipPath><clipPath id="clip-path-16"><rect class="cls-1" x="400.85" y="364.8" width="138.3" height="137.47"/></clipPath><clipPath id="clip-path-17"><rect class="cls-1" x="-32448" y="-32167" width="65535" height="65535"/></clipPath><clipPath id="clip-path-18"><rect class="cls-1" x="640" width="300" height="600"/></clipPath><clipPath id="clip-path-20"><rect class="cls-1" x="720.85" y="364.8" width="138.3" height="137.47"/></clipPath><clipPath id="clip-path-21"><rect class="cls-1" x="-32128" y="-32167" width="65535" height="65535"/></clipPath><clipPath id="clip-path-22"><rect class="cls-1" x="960" width="300" height="600"/></clipPath><clipPath id="clip-path-24"><rect class="cls-1" x="1040.85" y="364.8" width="138.3" height="137.47"/></clipPath><clipPath id="clip-path-25"><rect class="cls-1" x="-31808" y="-32167" width="65535" height="65535"/></clipPath><clipPath id="clip-path-26"><rect class="cls-1" x="1280" width="300" height="600"/></clipPath><clipPath id="clip-path-28"><rect class="cls-1" x="1360.85" y="364.8" width="138.3" height="137.47"/></clipPath><clipPath id="clip-path-29"><rect class="cls-1" x="-31488" y="-32167" width="65535" height="65535"/></clipPath><clipPath id="clip-path-30"><rect class="cls-1" x="1600" width="300" height="600"/></clipPath><clipPath id="clip-path-32"><rect class="cls-1" x="1680.85" y="364.8" width="138.3" height="137.47"/></clipPath><clipPath id="clip-path-33"><rect class="cls-1" x="-31168" y="-32167" width="65535" height="65535"/></clipPath><clipPath id="clip-path-34"><rect class="cls-1" x="1920" width="300" height="600"/></clipPath><clipPath id="clip-path-35"><rect class="cls-1" x="2000.85" y="364.8" width="138.3" height="137.47"/></clipPath><clipPath id="clip-path-36"><rect class="cls-1" x="-30848" y="-32167" width="65535" height="65535"/></clipPath><clipPath id="clip-path-37"><rect class="cls-1" x="2240" width="300" height="600"/></clipPath><clipPath id="clip-path-38"><rect class="cls-1" x="2320.85" y="364.8" width="138.3" height="137.47"/></clipPath><clipPath id="clip-path-39"><rect class="cls-1" x="-30528" y="-32167" width="65535" height="65535"/></clipPath><clipPath id="clip-path-40"><rect class="cls-1" x="2560" width="300" height="600"/></clipPath><clipPath id="clip-path-41"><rect class="cls-1" x="2640.85" y="364.8" width="138.3" height="137.47"/></clipPath><clipPath id="clip-path-42"><rect class="cls-1" x="-30208" y="-32167" width="65535" height="65535"/></clipPath></defs><g class="cls-11"><path class="cls-12" d="M65.36,50.52,76.07,77.41H68.35l-2-5.21H55.84l-2,5.21h-7.3L57.25,50.52ZM57.93,66.78h6.32l-3.07-7.94H61Z"/><path class="cls-12" d="M82.61,71.14c.25,1.58,1.53,2.47,3.62,2.47,1.54,0,2.35-.55,2.35-1.32s-.42-1.24-1.75-1.45L84,70.41c-4.61-.72-7-2.22-7-6.1s3.29-6.45,8.62-6.45c5.51,0,8.75,2.44,9.14,6.4l-5.68.18c-.25-1.37-1.45-2.22-3.58-2.22-1.33,0-2.09.51-2.09,1.36,0,.64.51,1,1.15,1.07l3.71.64C92.51,66,95,67.89,95,71.61c0,4-3.41,6.31-8.83,6.31-5.25,0-9.18-2.09-9.56-6.7Z"/><path class="cls-12" d="M104.55,77.41H97.63V50.52h6.92V65l6.53-6.57h8.11l-7.86,7.46,8.11,11.57h-7.77l-5.46-7.72-1.66,1.7Z"/><path class="cls-12" d="M120.94,50.52h7v6.06h-7Zm7,7.86v19H121v-19Z"/><path class="cls-12" d="M138.57,77.41h-6.92v-19h6.92v2.86c1-2.1,3.28-3.38,6.14-3.38,5.21,0,6.87,3.63,6.87,7.6v12h-6.91V67.29c0-2.6-.72-4-2.82-4-2.34,0-3.28,1.87-3.28,4.73Z"/><path class="cls-12" d="M163.84,70.88a14,14,0,0,1-4.14-.55,1.08,1.08,0,0,0-.39.89c0,.64.47,1.15,1.63,1.15h7.89c4.31,0,6.49,2.27,6.49,5.47,0,4.73-5.76,6.91-11.95,6.91-5.42,0-10.12-1.07-10.12-4.65,0-1.67,1.5-3,3.63-3.16a3.89,3.89,0,0,1-2.73-3.71c0-1.84,1.19-3.25,3.24-4a5.6,5.6,0,0,1-2.73-4.83c0-4,3.84-6.53,9.18-6.53a12,12,0,0,1,6.1,1.54,7.07,7.07,0,0,1,5.34-2.94v5.2a13.32,13.32,0,0,0-2.78.3,5.2,5.2,0,0,1,.6,2.43C173.1,68.41,169.21,70.88,163.84,70.88Zm-.43,10.29c3.2,0,5.55-.64,5.55-1.8,0-.81-.6-1.11-1.75-1.11h-7a1.14,1.14,0,0,0-1.28,1.16C158.93,80.78,160.85,81.17,163.41,81.17Zm.51-19.51c-1.15,0-2,1.07-2,2.73s.85,2.78,2,2.78,2-1.07,2-2.78S165.08,61.66,163.92,61.66Z"/></g></svg>