<?xml version="1.0" encoding="utf-8"?>
<!-- Generator: Adobe Illustrator 25.4.1, SVG Export Plug-In . SVG Version: 6.00 Build 0)  -->
<svg version="1.1" id="Layer_1" xmlns="http://www.w3.org/2000/svg" xmlns:xlink="http://www.w3.org/1999/xlink" x="0px" y="0px"
	 viewBox="0 0 300 600" style="enable-background:new 0 0 300 600;" xml:space="preserve">
<style type="text/css">
	.st0{fill:#221E1F;}
	.st1{fill:#EAB8B9;}
	.st2{fill-rule:evenodd;clip-rule:evenodd;fill:#221E1F;}
</style>
<g>
	<path class="st0" d="M82.1,606.6h130.4c15,0,27.2-12.2,27.2-27.2V278.3c0-15-12.2-27.2-27.2-27.2H82.1c-15,0-27.1,12.2-27.1,27.2
		v301.1C55,594.5,67.2,606.6,82.1,606.6C82.2,606.6,82.2,606.6,82.1,606.6"/>
	<path class="st1" d="M212.7,261.8h-16.1c-1.4,0-2.5,1.1-2.5,2.5l0,0v1.4c0,5.1-4.2,9.3-9.3,9.3c0,0,0,0,0,0h-74
		c-5.1,0-9.3-4.2-9.3-9.3c0,0,0,0,0,0v-1.4c0-1.4-1.1-2.5-2.5-2.5H82.3c-9.7,0-17.6,7.9-17.6,17.6l0,0v300.4
		c0,9.7,7.9,17.6,17.6,17.6h0h130.4c9.7,0,17.6-7.9,17.6-17.6V279.4C230.3,269.7,222.4,261.8,212.7,261.8L212.7,261.8"/>
	<path class="st2" d="M223.4,272.7c0,0.4-0.2,0.8-0.6,0.8c0,0,0,0-0.1,0v-1.6C223.1,271.9,223.4,272.2,223.4,272.7
		C223.4,272.6,223.4,272.7,223.4,272.7 M222.5,271.2v3l0,0c0,0.4-0.3,0.7-0.7,0.7c0,0,0,0,0,0h-7.7c-0.4,0-0.7-0.3-0.7-0.7l0,0l0,0
		v-3c0-0.4,0.3-0.7,0.7-0.7h7.7C222.2,270.5,222.5,270.8,222.5,271.2 M214.1,270.7c-0.3,0-0.5,0.2-0.5,0.5v3c0,0.3,0.2,0.5,0.5,0.5
		h7.7c0.3,0,0.5-0.2,0.5-0.5l0,0v-3c0-0.3-0.2-0.5-0.5-0.5l0,0H214.1z"/>
	<path class="st0" d="M208.1,270.7c1,0,2,0.4,2.8,1.1l-0.4,0.4c-0.7-0.6-1.5-0.9-2.4-0.9c-0.9,0-1.8,0.3-2.4,0.9l-0.4-0.4
		C206,271.1,207,270.7,208.1,270.7 M208.1,272.2c0.7,0,1.3,0.3,1.9,0.7l-0.4,0.5c-0.4-0.3-0.9-0.5-1.5-0.5c-0.5,0-1.1,0.2-1.5,0.5
		l-0.4-0.5C206.7,272.4,207.4,272.2,208.1,272.2 M208.1,273.6c0.3,0,0.6,0.1,0.9,0.3l-0.9,1l-0.9-1
		C207.4,273.7,207.7,273.6,208.1,273.6"/>
	<rect x="196.5" y="273.5" class="st0" width="0.8" height="1.4"/>
	<rect x="198.4" y="272.6" class="st0" width="0.8" height="2.3"/>
	<rect x="200.3" y="271.8" class="st0" width="0.8" height="3.1"/>
	<rect x="202.2" y="271" class="st0" width="0.8" height="3.9"/>
	<polygon class="st0" points="75.6,271.1 75.6,271.1 74.4,271.9 74.4,271.2 75.6,270.4 76.3,270.4 76.3,275 75.6,275 	"/>
	<path class="st0" d="M77.4,274.5l1.6-1.6c0.2-0.2,0.4-0.4,0.5-0.5c0.1-0.1,0.2-0.2,0.2-0.4c0-0.1,0.1-0.2,0.1-0.3l0,0
		c0-0.1,0-0.3-0.1-0.4c-0.1-0.1-0.2-0.2-0.3-0.3c-0.3-0.1-0.6-0.1-0.9,0c-0.1,0.1-0.2,0.2-0.3,0.3c-0.1,0.1-0.1,0.3-0.1,0.4l0,0
		h-0.7l0,0c0-0.3,0.1-0.5,0.2-0.7c0.1-0.2,0.3-0.4,0.6-0.5c0.5-0.2,1.1-0.2,1.6,0c0.2,0.1,0.4,0.3,0.5,0.5c0.1,0.2,0.2,0.4,0.2,0.7
		l0,0c0,0.2,0,0.3-0.1,0.5c-0.1,0.2-0.2,0.4-0.3,0.5c-0.2,0.2-0.4,0.4-0.6,0.7l-1.3,1.2l0.2-0.5v0.5l-0.2-0.2h2.4v0.6h-3.1V274.5z"
		/>
	<path class="st0" d="M81.2,271.8c-0.1-0.1-0.1-0.2-0.1-0.3c0-0.2,0.2-0.4,0.4-0.4c0,0,0,0,0,0c0.1,0,0.2,0,0.3,0.1
		c0.1,0.1,0.1,0.2,0.1,0.3c0,0.1,0,0.2-0.1,0.3c-0.1,0.1-0.2,0.1-0.3,0.1C81.4,271.9,81.3,271.9,81.2,271.8 M81.2,274.2
		c-0.1-0.1-0.1-0.2-0.1-0.3c0-0.1,0-0.2,0.1-0.3c0.1-0.1,0.2-0.1,0.3-0.1c0.2,0,0.4,0.2,0.4,0.4l0,0c0,0.1,0,0.2-0.1,0.3
		c-0.1,0.1-0.2,0.1-0.3,0.1C81.4,274.3,81.3,274.2,81.2,274.2"/>
	<path class="st0" d="M84.8,274h-2.3v-0.6l0.4-0.6l0.4-0.6l0.4-0.6L84,271l0.4-0.6h1v3.1H86v0.6h-0.6v1h-0.7L84.8,274z M84.8,273.5
		V271l0,0l-0.3,0.5c-0.1,0.2-0.2,0.3-0.3,0.5l-0.3,0.5l-0.3,0.5c-0.1,0.2-0.2,0.3-0.3,0.5l0,0L84.8,273.5z"/>
	<path class="st0" d="M87.3,274.8c-0.3-0.2-0.5-0.5-0.6-0.8c-0.1-0.4-0.2-0.8-0.2-1.2l0,0c0-0.4,0.1-0.9,0.2-1.2
		c0.1-0.3,0.3-0.6,0.6-0.8c0.6-0.4,1.3-0.4,1.9,0c0.3,0.2,0.5,0.5,0.6,0.8c0.1,0.4,0.2,0.8,0.2,1.2l0,0c0,0.4-0.1,0.9-0.2,1.2
		c-0.1,0.3-0.3,0.6-0.6,0.8C88.7,275.1,87.9,275.1,87.3,274.8 M88.8,274.2c0.2-0.2,0.3-0.4,0.3-0.6c0.1-0.3,0.1-0.6,0.1-0.9l0,0
		c0-0.3,0-0.6-0.1-0.9c-0.1-0.2-0.2-0.4-0.3-0.6c-0.3-0.3-0.8-0.3-1.1,0c-0.2,0.2-0.3,0.4-0.3,0.6c-0.1,0.3-0.1,0.6-0.1,0.9l0,0
		c0,0.3,0,0.6,0.1,0.9c0.1,0.2,0.2,0.4,0.3,0.6C88,274.5,88.5,274.5,88.8,274.2"/>
	<path class="st0" d="M95.3,271.4l-0.8,2l-0.1-0.5l-0.1-0.4H94h-0.6L95.3,271.4z M96.3,270.4l-4.6,2.5L94,273l0.3,2.1L96.3,270.4z"
		/>
	<path class="st2" d="M214,271.3v2.8c0,0.1,0.1,0.2,0.2,0.2l0,0h6.8c0.1,0,0.2-0.1,0.2-0.2l0,0v-2.8c0-0.1-0.1-0.2-0.2-0.2l0,0h-6.8
		C214.1,271,214,271.2,214,271.3L214,271.3"/>
</g>
</svg>
