<svg xmlns="http://www.w3.org/2000/svg" viewBox="0 0 300 250"><defs><style>.cls-1{fill:#fff;}.cls-2{fill:#004c52;}</style></defs><g id="Layer_1" data-name="Layer 1"><path class="cls-1" d="M71.32,134.77h2.89v-2.89h2v2.89h2.89v2.13H76.16v2.89h-2V136.9H71.32Z"/><path class="cls-2" d="M81.33,137.49a3.29,3.29,0,0,0,.73.65,3.68,3.68,0,0,0,2.07.63c1.36,0,2-.6,2-1.36,0-2-6-1.13-6-5.27,0-1.7,1.17-2.88,3.14-3.4v-1.53h2.21v1.53a5.37,5.37,0,0,1,2.16.86,5.54,5.54,0,0,1,.82.67l-1.7,1.7a4.15,4.15,0,0,0-.6-.51,2.88,2.88,0,0,0-1.61-.51c-1.29,0-1.79.51-1.79,1.19,0,2,6,1.12,6,5.27A3.78,3.78,0,0,1,85.49,141v1.53H83.28V141a6.72,6.72,0,0,1-2.75-1,4.65,4.65,0,0,1-.9-.77Z"/><path class="cls-2" d="M91.43,132.14h-2v-1.62a3.23,3.23,0,0,0,1.94-.9,2.87,2.87,0,0,0,.52-.71H94V140.8H91.43Z"/><path class="cls-2" d="M96,134.86c0-3.83,2.38-6.21,5.1-6.21s5.1,2.38,5.1,6.21-2.38,6.2-5.1,6.2S96,138.68,96,134.86Zm7.65,0c0-2.55-1.27-3.83-2.55-3.83s-2.55,1.28-2.55,3.83,1.28,3.82,2.55,3.82S103.65,137.41,103.65,134.86Z"/><path class="cls-2" d="M108.22,138.25l2,1.11L107.8,143l-1.36-.76Z"/><path class="cls-2" d="M111.27,134.86c0-3.83,2.38-6.21,5.1-6.21s5.1,2.38,5.1,6.21-2.38,6.2-5.1,6.2S111.27,138.68,111.27,134.86Zm7.65,0c0-2.55-1.28-3.83-2.55-3.83s-2.55,1.28-2.55,3.83,1.27,3.82,2.55,3.82S118.92,137.41,118.92,134.86Z"/><path class="cls-2" d="M122.81,134.86c0-3.83,2.38-6.21,5.1-6.21s5.1,2.38,5.1,6.21-2.38,6.2-5.1,6.2S122.81,138.68,122.81,134.86Zm7.65,0c0-2.55-1.27-3.83-2.55-3.83s-2.55,1.28-2.55,3.83,1.28,3.82,2.55,3.82S130.46,137.41,130.46,134.86Z"/><path class="cls-2" d="M134.35,134.86c0-3.83,2.38-6.21,5.1-6.21s5.1,2.38,5.1,6.21-2.38,6.2-5.1,6.2S134.35,138.68,134.35,134.86Zm7.65,0c0-2.55-1.27-3.83-2.55-3.83s-2.55,1.28-2.55,3.83,1.28,3.82,2.55,3.82S142,137.41,142,134.86Z"/><path class="cls-2" d="M149.79,128.91h2.55V140.8h-2.55Z"/><path class="cls-2" d="M155,128.91h2.3l5.78,7.39v-7.39h2.55V140.8h-2.3l-5.78-7.39v7.39H155Z"/><path class="cls-2" d="M171.58,128.91h5a4,4,0,1,1,0,8h-2.47v3.9h-2.55Zm4.93,5.61a1.62,1.62,0,1,0,0-3.23h-2.38v3.23Z"/><path class="cls-2" d="M182.79,128.91h5.27a3.83,3.83,0,0,1,4.16,4,3.77,3.77,0,0,1-1,2.77,3.05,3.05,0,0,1-1,.72l2.47,4.41h-2.81l-2.12-3.9h-2.38v3.9h-2.55Zm5.18,5.61a1.62,1.62,0,1,0,0-3.23h-2.63v3.23Z"/><path class="cls-2" d="M194.41,128.91H197V140.8h-2.55Z"/><path class="cls-2" d="M198.9,138.42l6-7.13h-5.77v-2.38h9v2.38l-6,7.13h6.2v2.38H198.9Z"/><path class="cls-2" d="M210.27,128.91h8.84v2.38h-6.29v2.29h4.93v2.3h-4.93v2.54h6.46v2.38h-9Z"/><path class="cls-2" d="M221.73,137.49a3.53,3.53,0,0,0,.73.65,3.69,3.69,0,0,0,2.08.63c1.36,0,2-.6,2-1.36,0-2-6-1.13-6-5.27,0-1.87,1.62-3.49,4.34-3.49a5.7,5.7,0,0,1,3,.82,5.4,5.4,0,0,1,1,.8l-1.7,1.7a4.07,4.07,0,0,0-.59-.51A2.94,2.94,0,0,0,225,131c-1.29,0-1.78.51-1.78,1.19,0,2,5.94,1.12,5.94,5.27,0,2-1.69,3.65-4.5,3.65a6.4,6.4,0,0,1-3.45-.94,4.41,4.41,0,0,1-1.14-.93Z"/></g></svg>