<svg xmlns="http://www.w3.org/2000/svg" viewBox="0 0 300 250"><defs><style>.cls-1{fill:#fff;}</style></defs><g id="Layer_1" data-name="Layer 1"><path class="cls-1" d="M48.71,72.35H53l6.78,17.57h-4l-1.5-4H47.46l-1.51,4h-4ZM53,82.52,50.9,76.75h-.1l-2.09,5.77Z"/><path class="cls-1" d="M70.18,83.65l-6.65-11.3h4.39L72,79.88h.1l4.1-7.53H80.6L74,83.65v6.27H70.18Z"/><path class="cls-1" d="M82.73,72.35H95.79v3.52H86.5v3.39h7.28v3.38H86.5v3.77H96v3.51H82.73Z"/><path class="cls-1" d="M104.07,72.35h4.27l6.78,17.57h-4l-1.5-4h-6.78l-1.51,4h-4Zm4.27,10.17-2.08-5.77h-.1l-2.09,5.77Z"/><path class="cls-1" d="M117.51,72.35h7.78c3.76,0,6.15,2.39,6.15,5.9a5.56,5.56,0,0,1-1.51,4.09,4.44,4.44,0,0,1-1.51,1.06l3.64,6.52h-4.14l-3.13-5.77h-3.52v5.77h-3.76Zm7.65,8.29a2.39,2.39,0,1,0,0-4.77h-3.89v4.77Z"/><path class="cls-1" d="M136.08,71.85,139,73.48l-3.51,5.4-2-1.13Z"/><path class="cls-1" d="M142.49,85a4.75,4.75,0,0,0,1.08,1,5.37,5.37,0,0,0,3.06.93c2,0,2.88-.88,2.88-2,0-3-8.78-1.65-8.78-7.78,0-2.76,2.38-5.14,6.4-5.14a8,8,0,0,1,5.9,2.38l-2.51,2.51a6.34,6.34,0,0,0-.88-.75,4.32,4.32,0,0,0-2.39-.75c-1.9,0-2.63.75-2.63,1.75,0,3,8.78,1.66,8.78,7.78,0,2.89-2.51,5.4-6.65,5.4a9.52,9.52,0,0,1-5.09-1.38A6.43,6.43,0,0,1,140,87.54Z"/><path class="cls-1" d="M159.06,72.35H163l3.63,11.8h.13l3.64-11.8h3.51l3.64,11.8h.13l3.64-11.8h3.89l-5.77,17.57h-3.64L172.18,78.5H172l-3.56,11.42h-3.64Z"/><path class="cls-1" d="M195.71,72a9.17,9.17,0,1,1-9.54,9.16A9.29,9.29,0,0,1,195.71,72Zm0,14.81a5.65,5.65,0,1,0-5.65-5.65A5.63,5.63,0,0,0,195.71,86.79Z"/><path class="cls-1" d="M208.64,72.35h7.78c3.77,0,6.15,2.39,6.15,5.9a5.56,5.56,0,0,1-1.51,4.09,4.41,4.41,0,0,1-1.5,1.06l3.64,6.52h-4.14l-3.14-5.77H212.4v5.77h-3.76Zm7.65,8.29a2.39,2.39,0,1,0,0-4.77H212.4v4.77Z"/><path class="cls-1" d="M229.1,75.87h-5V72.35h13.81v3.52h-5v14H229.1Z"/><path class="cls-1" d="M240.65,72.35h3.77v6.91H252V72.35h3.76V89.92H252V82.77h-7.53v7.15h-3.77Z"/><path class="cls-1" d="M64.56,97.23A9.17,9.17,0,1,1,55,106.39,9.29,9.29,0,0,1,64.56,97.23Zm0,14.81a5.65,5.65,0,1,0-5.65-5.65A5.63,5.63,0,0,0,64.56,112Z"/><path class="cls-1" d="M77.49,97.6H90.42v3.52H81.26v4.14h7.15v3.51H81.26v6.4H77.49Z"/><path class="cls-1" d="M98.08,97.6h6.4c5.4,0,9.29,3.89,9.29,8.79s-3.89,8.78-9.29,8.78h-6.4Zm6.4,14.06a5.27,5.27,0,1,0,0-10.54h-2.64v10.54Z"/><path class="cls-1" d="M125.57,97.23a9.17,9.17,0,1,1-9.54,9.16A9.29,9.29,0,0,1,125.57,97.23Zm0,14.81a5.65,5.65,0,1,0-5.65-5.65A5.63,5.63,0,0,0,125.57,112Z"/><path class="cls-1" d="M146.91,97.23a9.17,9.17,0,1,1-9.54,9.16A9.29,9.29,0,0,1,146.91,97.23Zm0,14.81a5.65,5.65,0,1,0-5.65-5.65A5.63,5.63,0,0,0,146.91,112Z"/><path class="cls-1" d="M159.84,97.6h7.78c3.77,0,6.15,2.39,6.15,5.9a5.56,5.56,0,0,1-1.51,4.09,4.41,4.41,0,0,1-1.5,1.06l3.64,6.52h-4.14l-3.14-5.77H163.6v5.77h-3.76Zm7.66,8.29a2.39,2.39,0,0,0,0-4.77h-3.9v4.77Z"/><path class="cls-1" d="M177.54,97.6h6.4c5.4,0,9.29,3.89,9.29,8.79s-3.89,8.78-9.29,8.78h-6.4Zm6.4,14.06a5.27,5.27,0,1,0,0-10.54H181.3v10.54Z"/><path class="cls-1" d="M200.76,97.6H205l6.78,17.57h-4l-1.51-4h-6.77l-1.51,4h-4ZM205,107.77,203,102h-.11l-2.08,5.77Z"/><path class="cls-1" d="M215,110.28a4.75,4.75,0,0,0,1.08,1,5.37,5.37,0,0,0,3.06.93c2,0,2.88-.88,2.88-2,0-3-8.78-1.65-8.78-7.78,0-2.76,2.38-5.14,6.4-5.14a8.47,8.47,0,0,1,4.42,1.2,8,8,0,0,1,1.48,1.18L223,102.12a6.34,6.34,0,0,0-.88-.75,4.31,4.31,0,0,0-2.38-.75c-1.91,0-2.64.75-2.64,1.75,0,3,8.79,1.66,8.79,7.78,0,2.89-2.51,5.4-6.66,5.4a9.52,9.52,0,0,1-5.09-1.38,6.43,6.43,0,0,1-1.68-1.38Z"/><path class="cls-1" d="M228.88,97.6h3.77v6.91h7.53V97.6h3.76v17.57h-3.76V108h-7.53v7.15h-3.77Z"/></g></svg>