<svg xmlns="http://www.w3.org/2000/svg" viewBox="0 0 300 250"><defs><style>.cls-1{fill:#fff;}.cls-2{fill:#ff3008;}</style></defs><g id="Layer_1" data-name="Layer 1"><rect class="cls-1" x="190.02" y="54.76" width="83.15" height="33.96"/><path class="cls-1" d="M27.34,64.35h3.1v8.48a3.21,3.21,0,1,0,6.41,0V64.35H40v8.48a6,6,0,0,1-6.31,6.31,6,6,0,0,1-6.3-6.31Z"/><path class="cls-1" d="M43.67,75.42a3.41,3.41,0,0,0,.73.57,3.53,3.53,0,0,0,2,.56c.93,0,1.24-.31,1.24-.72,0-1.14-5.17-.93-5.17-4.24,0-1.65,1.45-3.1,4-3.1a5.68,5.68,0,0,1,2.94.78,5,5,0,0,1,1,.77L48.74,71.8a3.52,3.52,0,0,0-.6-.42A3.39,3.39,0,0,0,46.46,71c-.72,0-1,.31-1,.62,0,1.14,5.17.93,5.17,4.24,0,1.74-1.45,3.2-4.24,3.2a5.9,5.9,0,0,1-3.23-.93A5.07,5.07,0,0,1,42,77.17Z"/><path class="cls-1" d="M61.56,77.38a5.17,5.17,0,0,1-1.12.83,6.58,6.58,0,0,1-3.22.82,5.27,5.27,0,1,1-.11-10.54,5.07,5.07,0,0,1,5.07,5.06,8.09,8.09,0,0,1-.06.89l0,.35H54.73a2.61,2.61,0,0,0,2.69,1.76,3.59,3.59,0,0,0,2-.56,2.71,2.71,0,0,0,.68-.57Zm-2.28-4.65a2.35,2.35,0,0,0-4.55,0Z"/><path class="cls-1" d="M68.59,68.7h2.79v1.44h.1a3.61,3.61,0,0,1,.79-.82,3.88,3.88,0,0,1,2.42-.83c2.4,0,4.55,2.19,4.55,5.27S77.09,79,74.69,79a3.93,3.93,0,0,1-2.42-.82,3.87,3.87,0,0,1-.79-.83h-.1v5.79H68.59Zm7.85,5.06a2.58,2.58,0,1,0-2.58,2.69A2.58,2.58,0,0,0,76.44,73.76Z"/><path class="cls-1" d="M81.3,68.7h2.8v1.44h.1a4.57,4.57,0,0,1,.76-.82,3.45,3.45,0,0,1,2.24-.83h.2v3l-.22,0a3.82,3.82,0,0,0-.71-.07,2.43,2.43,0,0,0-2.37,2.69v4.76H81.3Z"/><path class="cls-1" d="M93.71,68.49a5.27,5.27,0,1,1-5.38,5.27A5.32,5.32,0,0,1,93.71,68.49Zm2.58,5.27a2.58,2.58,0,1,0-2.58,2.69A2.58,2.58,0,0,0,96.29,73.76Z"/><path class="cls-1" d="M101.15,68.7H104v1.44h.1a3.5,3.5,0,0,1,.66-.82,3.1,3.1,0,0,1,2.13-.83,3.36,3.36,0,0,1,2.32.89,3.91,3.91,0,0,1,.68.87h.1a4.31,4.31,0,0,1,3.31-1.76c2,0,3.51,1.55,3.51,4v6.31H114v-5.9a1.53,1.53,0,0,0-1.65-1.75,1.91,1.91,0,0,0-2,2.06v5.59h-2.8v-5.9a1.53,1.53,0,0,0-1.65-1.75,1.91,1.91,0,0,0-2,2.06v5.59h-2.8Z"/><path class="cls-1" d="M124.21,68.49a5.27,5.27,0,1,1-5.38,5.27A5.31,5.31,0,0,1,124.21,68.49Zm2.58,5.27a2.59,2.59,0,1,0-2.58,2.69A2.58,2.58,0,0,0,126.79,73.76Z"/><path class="cls-1" d="M145,77a4.57,4.57,0,0,1-1,1,5.32,5.32,0,1,1-3.21-9.51,5.38,5.38,0,0,1,3.21,1,4.42,4.42,0,0,1,1,1l-1.76,1.75a3.93,3.93,0,0,0-.66-.62,3.11,3.11,0,0,0-1.82-.62,2.69,2.69,0,0,0,0,5.38,3.11,3.11,0,0,0,1.82-.62,3.56,3.56,0,0,0,.66-.62Z"/><path class="cls-1" d="M151.3,68.49a5.27,5.27,0,1,1-5.38,5.27A5.32,5.32,0,0,1,151.3,68.49Zm2.58,5.27a2.59,2.59,0,1,0-2.58,2.69A2.59,2.59,0,0,0,153.88,73.76Z"/><path class="cls-1" d="M166,77.38h-.11a3.59,3.59,0,0,1-.78.83,4,4,0,0,1-2.42.82c-2.4,0-4.55-2.17-4.55-5.27s2.15-5.27,4.55-5.27a3.94,3.94,0,0,1,2.42.83,3.36,3.36,0,0,1,.78.82H166V64.35h2.79V78.83H166Zm.1-3.62a2.59,2.59,0,1,0-2.58,2.69A2.59,2.59,0,0,0,166.08,73.76Z"/><path class="cls-1" d="M180.66,77.38a5.17,5.17,0,0,1-1.12.83,6.58,6.58,0,0,1-3.22.82,5.27,5.27,0,1,1-.11-10.54,5.07,5.07,0,0,1,5.07,5.06,8.09,8.09,0,0,1-.06.89l-.05.35h-7.34a2.62,2.62,0,0,0,2.69,1.76,3.59,3.59,0,0,0,2-.56,2.71,2.71,0,0,0,.68-.57Zm-2.28-4.65a2.35,2.35,0,0,0-4.55,0Z"/><path class="cls-2" d="M199,64.35h5.27a7.25,7.25,0,1,1,0,14.48H199Zm5.27,11.58a4.34,4.34,0,1,0,0-8.68h-2.17v8.68Z"/><path class="cls-2" d="M214.55,64.35h5.27a7.25,7.25,0,1,1,0,14.48h-5.27Zm5.27,11.58a4.34,4.34,0,1,0,0-8.68h-2.17v8.68Z"/><path class="cls-2" d="M230.53,74.79a5.31,5.31,0,0,0,.85.79,3.93,3.93,0,0,0,2.25.77c1.66,0,2.48-.83,2.48-1.76s-.8-1.76-2.27-1.76h-1.65V70.14h1.44c1.24,0,2-.72,2-1.65a1.74,1.74,0,0,0-2-1.66,3.14,3.14,0,0,0-1.88.73,4.32,4.32,0,0,0-.7.72L229,66.21a6.46,6.46,0,0,1,1.24-1.07,6.57,6.57,0,0,1,3.72-1.1c2.9,0,4.86,2,4.86,4a3,3,0,0,1-1.14,2.43,5,5,0,0,1-1.13.67,4.64,4.64,0,0,1,1.38.76,3.53,3.53,0,0,1,1.41,2.85c0,2.26-2.07,4.35-5.38,4.35A7.52,7.52,0,0,1,229.85,78a6.23,6.23,0,0,1-1.39-1.14Z"/><path class="cls-2" d="M246.25,64.35h3.2l-3.1,4.76.21,0a3,3,0,0,1,.51-.06,5,5,0,0,1,4.86,5.06,5.5,5.5,0,0,1-11,0,5.86,5.86,0,0,1,.62-2.5,8.23,8.23,0,0,1,.62-1Zm2.48,9.72a2.28,2.28,0,1,0-2.28,2.28A2.17,2.17,0,0,0,248.73,74.07Z"/><path class="cls-2" d="M255.55,74.79a5.31,5.31,0,0,0,.85.79,3.93,3.93,0,0,0,2.25.77c1.66,0,2.59-.93,2.59-2.18A2.2,2.2,0,0,0,258.76,72a2.79,2.79,0,0,0-1.78.58,2.93,2.93,0,0,0-.6.56l-2.17-.31.51-8.48h8.79v2.9h-6.1l-.1,2.58a2,2,0,0,1,.56-.25,4.15,4.15,0,0,1,1.51-.26,4.76,4.76,0,0,1,5.06,4.85c0,2.8-2.17,5-5.48,5A7.52,7.52,0,0,1,254.87,78a6.23,6.23,0,0,1-1.39-1.14Z"/></g></svg>