<svg xmlns="http://www.w3.org/2000/svg" viewBox="0 0 300 250"><defs><style>.cls-1{fill:#fff;}</style></defs><g id="Layer_1" data-name="Layer 1"><path class="cls-1" d="M106.5,227h-1.76v-.56h4.12V227H107.1v5h-.6Z"/><path class="cls-1" d="M112.42,231.28a2.22,2.22,0,0,1-.41.4,2,2,0,0,1-1.19.4,2,2,0,0,1,0-4,1.83,1.83,0,0,1,1.84,1.92,1.05,1.05,0,0,1,0,.21l0,.08h-3.11a1.38,1.38,0,0,0,1.36,1.28,1.53,1.53,0,0,0,.92-.32,1.56,1.56,0,0,0,.31-.32Zm-.37-1.48a1.29,1.29,0,0,0-1.27-1.2,1.37,1.37,0,0,0-1.32,1.2Z"/><path class="cls-1" d="M113.62,228.16h.56v.52a1.44,1.44,0,0,1,.31-.29,1.55,1.55,0,0,1,1-.31h.16v.56h-.24a1.19,1.19,0,0,0-1.2,1.24V232h-.56Z"/><path class="cls-1" d="M116.38,228.16h.56v.48a1.62,1.62,0,0,1,.25-.28,1.38,1.38,0,0,1,.83-.28,1.42,1.42,0,0,1,1,.35,1.09,1.09,0,0,1,.27.33,1.18,1.18,0,0,1,.3-.33,1.6,1.6,0,0,1,1-.35,1.46,1.46,0,0,1,1.48,1.64V232h-.56v-2.28c0-.73-.39-1.12-1-1.12a1.14,1.14,0,0,0-1,1.28V232h-.55v-2.28c0-.73-.4-1.12-1-1.12s-1,.48-1,1.28V232h-.56Z"/><path class="cls-1" d="M123.38,231a1.67,1.67,0,0,0,.25.28,1.14,1.14,0,0,0,.75.28c.56,0,.83-.28.83-.64,0-.88-2.07-.44-2.07-1.76a1.18,1.18,0,0,1,1.28-1.08,1.76,1.76,0,0,1,.92.27,1.61,1.61,0,0,1,.32.25l-.4.4a1.34,1.34,0,0,0-.21-.2,1.17,1.17,0,0,0-.63-.2.65.65,0,0,0-.72.56c0,.84,2.08.4,2.08,1.76a1.24,1.24,0,0,1-1.4,1.16,1.79,1.79,0,0,1-1.07-.34,1.07,1.07,0,0,1-.33-.34Z"/><path class="cls-1" d="M130.78,231.48a1.27,1.27,0,0,1-.31.3,1.51,1.51,0,0,1-.93.3,1.27,1.27,0,0,1-1.36-1.12c0-.64.39-1,1.12-1.16l1.48-.24a.92.92,0,0,0-1-1,1.39,1.39,0,0,0-.8.28,2.47,2.47,0,0,0-.28.28l-.36-.36a2.11,2.11,0,0,1,.37-.36,1.77,1.77,0,0,1,1.07-.36,1.45,1.45,0,0,1,1.51,1.48V232h-.55Zm0-1.44-1.32.24c-.48.09-.72.32-.72.68s.28.6.8.6a1.2,1.2,0,0,0,1.24-1.28Z"/><path class="cls-1" d="M132.62,228.16h.56v.56a1.5,1.5,0,0,1,.3-.32,1.55,1.55,0,0,1,2.49,1.32V232h-.55v-2.28a1,1,0,0,0-1-1.12,1.19,1.19,0,0,0-1.2,1.28V232h-.56Z"/><path class="cls-1" d="M140.17,231.44a1.62,1.62,0,0,1-.32.32,1.69,1.69,0,0,1-1,.32,2,2,0,0,1,0-4,1.69,1.69,0,0,1,1,.32,1.62,1.62,0,0,1,.32.32V226.4h.56V232h-.56Zm0-1.36a1.42,1.42,0,0,0-1.31-1.48,1.49,1.49,0,0,0,0,3A1.42,1.42,0,0,0,140.17,230.08Z"/><path class="cls-1" d="M147,231.28a2.28,2.28,0,0,1-.42.4,2,2,0,0,1-1.17.4,2,2,0,0,1,0-4,1.9,1.9,0,0,1,1.15.39,2.83,2.83,0,0,1,.4.37l-.4.4a1.75,1.75,0,0,0-.29-.32,1.35,1.35,0,0,0-.86-.32,1.49,1.49,0,0,0,0,3,1.46,1.46,0,0,0,.88-.32,1.56,1.56,0,0,0,.31-.32Z"/><path class="cls-1" d="M147.5,230.08a2,2,0,1,1,2,2A2,2,0,0,1,147.5,230.08Zm3.35,0a1.4,1.4,0,1,0-1.39,1.48A1.43,1.43,0,0,0,150.85,230.08Z"/><path class="cls-1" d="M152.42,228.16H153v.56a1.56,1.56,0,0,1,.31-.32,1.55,1.55,0,0,1,2.49,1.32V232h-.56v-2.28a1,1,0,0,0-1-1.12,1.2,1.2,0,0,0-1.2,1.28V232h-.55Z"/><path class="cls-1" d="M160,231.44a1.62,1.62,0,0,1-.32.32,1.69,1.69,0,0,1-1,.32,2,2,0,0,1,0-4,1.69,1.69,0,0,1,1,.32,1.62,1.62,0,0,1,.32.32V226.4h.56V232H160Zm0-1.36a1.43,1.43,0,0,0-1.32-1.48,1.49,1.49,0,0,0,0,3A1.43,1.43,0,0,0,160,230.08Z"/><path class="cls-1" d="M162.13,226.52a.36.36,0,1,1-.35.36A.36.36,0,0,1,162.13,226.52Zm-.27,1.64h.55V232h-.55Z"/><path class="cls-1" d="M164,228.68h-.72v-.52h.44c.22,0,.32-.13.32-.4v-.88h.52v1.28h.84v.52h-.84V231c0,.41.2.6.52.6a1,1,0,0,0,.37-.06l.15-.06V232l-.16.06a1,1,0,0,1-.38.06A1,1,0,0,1,164,231Z"/><path class="cls-1" d="M166.85,226.52a.36.36,0,1,1-.36.36A.36.36,0,0,1,166.85,226.52Zm-.28,1.64h.56V232h-.56Z"/><path class="cls-1" d="M168.13,230.08a2,2,0,1,1,2,2A2,2,0,0,1,168.13,230.08Zm3.36,0a1.4,1.4,0,1,0-1.4,1.48A1.44,1.44,0,0,0,171.49,230.08Z"/><path class="cls-1" d="M173.05,228.16h.56v.56a1.56,1.56,0,0,1,.31-.32,1.49,1.49,0,0,1,.93-.32,1.51,1.51,0,0,1,1.56,1.64V232h-.56v-2.28a1,1,0,0,0-1-1.12,1.19,1.19,0,0,0-1.2,1.28V232h-.56Z"/><path class="cls-1" d="M177.73,231a1.73,1.73,0,0,0,.26.28,1.11,1.11,0,0,0,.74.28c.57,0,.84-.28.84-.64,0-.88-2.08-.44-2.08-1.76a1.19,1.19,0,0,1,1.28-1.08,1.7,1.7,0,0,1,.92.27,1.61,1.61,0,0,1,.32.25l-.4.4a1,1,0,0,0-.2-.2,1.24,1.24,0,0,0-.64-.2.65.65,0,0,0-.72.56c0,.84,2.08.4,2.08,1.76,0,.64-.52,1.16-1.4,1.16a1.75,1.75,0,0,1-1.06-.34,1.1,1.1,0,0,1-.34-.34Z"/><path class="cls-1" d="M185.13,231.48a1.22,1.22,0,0,1-.3.3,1.55,1.55,0,0,1-.94.3,1.27,1.27,0,0,1-1.36-1.12c0-.64.4-1,1.12-1.16l1.48-.24a.91.91,0,0,0-1-1,1.38,1.38,0,0,0-.79.28,3.83,3.83,0,0,0-.29.28l-.36-.36a2.6,2.6,0,0,1,.38-.36,1.76,1.76,0,0,1,1.06-.36,1.46,1.46,0,0,1,1.52,1.48V232h-.56Zm0-1.44-1.32.24c-.48.09-.72.32-.72.68s.28.6.8.6a1.2,1.2,0,0,0,1.24-1.28Z"/><path class="cls-1" d="M187,228.16h.56v.56a1.66,1.66,0,0,1,1.32-.64,2,2,0,0,1,0,4,1.66,1.66,0,0,1-1.32-.64v2.24H187Zm3.2,1.92a1.37,1.37,0,0,0-1.32-1.48,1.49,1.49,0,0,0,0,3A1.37,1.37,0,0,0,190.17,230.08Z"/><path class="cls-1" d="M191.73,228.16h.56v.56a1.66,1.66,0,0,1,1.32-.64,2,2,0,0,1,0,4,1.66,1.66,0,0,1-1.32-.64v2.24h-.56Zm3.2,1.92a1.37,1.37,0,0,0-1.32-1.48,1.49,1.49,0,0,0,0,3A1.37,1.37,0,0,0,194.93,230.08Z"/><path class="cls-1" d="M196.53,226.4h.56V232h-.56Z"/><path class="cls-1" d="M198.13,233.08l.13,0a1.1,1.1,0,0,0,.27,0c.36,0,.57-.19.72-.6l.2-.56-1.56-3.84h.6l1.24,3.12,1.24-3.12h.6l-1.76,4.4c-.32.8-.64,1.12-1.2,1.12a1.67,1.67,0,0,1-.34,0l-.14,0Z"/><path class="cls-1" d="M202.21,231.28a.4.4,0,1,1-.4.4A.37.37,0,0,1,202.21,231.28Z"/><path class="cls-1" d="M62.54,237.4h.56l2.31,5.6h-.63l-.65-1.56H61.5L60.86,243h-.64Zm1.36,3.48-1.08-2.64-1.08,2.64Z"/><path class="cls-1" d="M71.09,241.92a2.5,2.5,0,0,1-.59.58,2.84,2.84,0,0,1-1.72.58,2.88,2.88,0,1,1,0-5.76,2.81,2.81,0,0,1,1.71.59,3,3,0,0,1,.56.57l-.39.36a2.14,2.14,0,0,0-.47-.48,2.19,2.19,0,0,0-1.41-.48A2.32,2.32,0,1,0,70.21,242a2.23,2.23,0,0,0,.49-.48Z"/><path class="cls-1" d="M73.34,238H71.58v-.56H75.7V238H73.94v5h-.6Z"/><path class="cls-1" d="M78.14,237.4h2.12a1.76,1.76,0,1,1,0,3.52H78.74V243h-.6Zm2.12,3a1.2,1.2,0,1,0,0-2.4H78.74v2.4Z"/><path class="cls-1" d="M86.14,242.28a2.22,2.22,0,0,1-.41.4,2,2,0,0,1-1.19.4,2,2,0,0,1,0-4A1.83,1.83,0,0,1,86.34,241a1.05,1.05,0,0,1,0,.21l0,.08H83.18a1.38,1.38,0,0,0,1.36,1.28,1.53,1.53,0,0,0,.92-.32,1.94,1.94,0,0,0,.32-.32Zm-.36-1.48a1.31,1.31,0,0,0-1.28-1.2,1.37,1.37,0,0,0-1.32,1.2Z"/><path class="cls-1" d="M87.34,239.16h.56v.52a1.44,1.44,0,0,1,.31-.29,1.55,1.55,0,0,1,1-.31h.16v.56H89.1a1.19,1.19,0,0,0-1.2,1.24V243h-.56Z"/><path class="cls-1" d="M90.1,239.16h.56v.48a1.62,1.62,0,0,1,.25-.28,1.38,1.38,0,0,1,.83-.28,1.42,1.42,0,0,1,1,.35,1,1,0,0,1,.27.33,1.18,1.18,0,0,1,.3-.33,1.6,1.6,0,0,1,1-.35,1.46,1.46,0,0,1,1.48,1.64V243h-.56v-2.28c0-.73-.39-1.12-1-1.12a1.14,1.14,0,0,0-1,1.28V243h-.55v-2.28c0-.73-.4-1.12-1-1.12s-1,.48-1,1.28V243H90.1Z"/><path class="cls-1" d="M97.34,237.52a.36.36,0,1,1-.36.36A.36.36,0,0,1,97.34,237.52Zm-.28,1.64h.56V243h-.56Z"/><path class="cls-1" d="M99.22,239.68H98.5v-.52h.44c.21,0,.32-.13.32-.4v-.88h.52v1.28h.84v.52h-.84V242c0,.41.2.6.52.6a1,1,0,0,0,.36-.06l.16-.06V243l-.16.06a1.1,1.1,0,0,1-.39.06,1,1,0,0,1-1-1.12Z"/><path class="cls-1" d="M103.66,237.4h.52l3.44,4.52V237.4h.59V243h-.51l-3.44-4.52V243h-.6Z"/><path class="cls-1" d="M109.42,241.08a2,2,0,1,1,2,2A2,2,0,0,1,109.42,241.08Zm3.36,0a1.4,1.4,0,1,0-1.4,1.48A1.44,1.44,0,0,0,112.78,241.08Z"/><path class="cls-1" d="M114.54,242.28a.4.4,0,1,1-.4.4A.37.37,0,0,1,114.54,242.28Z"/><path class="cls-1" d="M118.74,238H117v-.56h4.11V238h-1.76v5h-.59Z"/><path class="cls-1" d="M122.1,237.4h2.11a1.76,1.76,0,1,1,0,3.52H122.7V243h-.6Zm2.11,3a1.2,1.2,0,1,0,0-2.4H122.7v2.4Z"/><path class="cls-1" d="M131.81,242.44V243h-3.6c0-2.36,3-2.43,3-4a1.06,1.06,0,0,0-1.2-1.08,1.11,1.11,0,0,0-1,.48,1.53,1.53,0,0,0-.23.48l-.52-.24a2,2,0,0,1,.33-.64,1.82,1.82,0,0,1,3.19,1c0,1.72-2.43,2-2.92,3.48Z"/><path class="cls-1" d="M133.66,238.52h-1v-.36a1.36,1.36,0,0,0,1-.39,1,1,0,0,0,.23-.37h.44V243h-.59Z"/><path class="cls-1" d="M137.49,237.32H138l-2.39,7.36h-.52Z"/><path class="cls-1" d="M138.5,240.2c0-1.8,1.08-2.88,2.23-2.88S143,238.4,143,240.2s-1.08,2.88-2.23,2.88S138.5,242,138.5,240.2Zm3.87,0c0-1.52-.8-2.32-1.64-2.32s-1.63.8-1.63,2.32.79,2.32,1.64,2.32S142.37,241.72,142.37,240.2Z"/><path class="cls-1" d="M143.93,240.2c0-1.8,1.09-2.88,2.24-2.88s2.24,1.08,2.24,2.88-1.08,2.88-2.23,2.88S143.93,242,143.93,240.2Zm3.88,0c0-1.52-.81-2.32-1.64-2.32s-1.63.8-1.63,2.32.79,2.32,1.64,2.32S147.81,241.72,147.81,240.2Z"/><path class="cls-1" d="M151.77,238h-2.88v-.56h3.52V238l-2.48,5h-.64Z"/><path class="cls-1" d="M154.81,237.4h.6l-1.32,2.08.16,0a2.45,2.45,0,0,1,.44,0,1.84,1.84,0,1,1-1.95,1.84,1.87,1.87,0,0,1,.2-.85,2,2,0,0,1,.19-.35Zm-.16,5.12a1.28,1.28,0,1,0-1.32-1.28A1.22,1.22,0,0,0,154.65,242.52Z"/><path class="cls-1" d="M158,240.27a1.86,1.86,0,0,1,.49-.31,1.38,1.38,0,0,1-.36-.26,1.21,1.21,0,0,1-.36-.9,1.64,1.64,0,0,1,3.27,0,1.21,1.21,0,0,1-.36.9,1.38,1.38,0,0,1-.36.26,1.66,1.66,0,0,1,.48.31,1.42,1.42,0,0,1,.48,1.09,1.88,1.88,0,0,1-3.75,0A1.45,1.45,0,0,1,158,240.27Zm1.41,2.25a1.19,1.19,0,0,0,1.27-1.16,1.28,1.28,0,0,0-2.55,0A1.19,1.19,0,0,0,159.38,242.52Zm0-2.8a.93.93,0,1,0-1-.92A.94.94,0,0,0,159.38,239.72Z"/><path class="cls-1" d="M162.57,242.28a.4.4,0,1,1-.39.4A.37.37,0,0,1,162.57,242.28Z"/><path class="cls-1" d="M165.81,241.83a1.75,1.75,0,0,0,.37.35,1.94,1.94,0,0,0,1.15.34c.84,0,1.28-.43,1.28-1,0-1.43-3-.65-3-2.64a1.63,1.63,0,0,1,1.8-1.52,2.22,2.22,0,0,1,1.23.36,2.4,2.4,0,0,1,.41.36l-.4.4a1.7,1.7,0,0,0-.31-.28,1.74,1.74,0,0,0-.93-.28c-.76,0-1.2.46-1.2,1,0,1.44,3,.65,3,2.64,0,.92-.68,1.6-1.88,1.6a2.42,2.42,0,0,1-1.42-.42,1.65,1.65,0,0,1-.45-.42Z"/><path class="cls-1" d="M172.09,237.4h.56L175,243h-.64l-.64-1.56h-2.64l-.64,1.56h-.64Zm1.36,3.48-1.08-2.64-1.08,2.64Z"/><path class="cls-1" d="M177.41,237.4h.6v5h2.88V243h-3.48Z"/><path class="cls-1" d="M182,237.52a.36.36,0,1,1-.36.36A.36.36,0,0,1,182,237.52Zm-.28,1.64h.56V243h-.56Z"/><path class="cls-1" d="M186.77,242.28a2.28,2.28,0,0,1-.42.4,2,2,0,0,1-1.18.4,2,2,0,0,1,0-4,1.85,1.85,0,0,1,1.15.39,2.45,2.45,0,0,1,.41.37l-.4.4a2.21,2.21,0,0,0-.29-.32,1.38,1.38,0,0,0-.87-.32,1.49,1.49,0,0,0,0,3,1.49,1.49,0,0,0,.89-.32,1.87,1.87,0,0,0,.31-.32Z"/><path class="cls-1" d="M190.81,242.28a2,2,0,0,1-.41.4,2,2,0,0,1-1.19.4,2,2,0,0,1,0-4A1.82,1.82,0,0,1,191,241a1.15,1.15,0,0,1,0,.21l0,.08h-3.12a1.38,1.38,0,0,0,1.36,1.28,1.48,1.48,0,0,0,.92-.32,1.94,1.94,0,0,0,.32-.32Zm-.36-1.48a1.31,1.31,0,0,0-1.28-1.2,1.37,1.37,0,0,0-1.32,1.2Z"/><path class="cls-1" d="M192,239.16h.56v.56a1.56,1.56,0,0,1,.31-.32,1.49,1.49,0,0,1,.93-.32,1.51,1.51,0,0,1,1.56,1.64V243h-.56v-2.28a1,1,0,0,0-1-1.12,1.19,1.19,0,0,0-1.2,1.28V243H192Z"/><path class="cls-1" d="M199.89,242.28a2.28,2.28,0,0,1-.42.4,2,2,0,0,1-1.18.4,2,2,0,0,1,0-4,1.85,1.85,0,0,1,1.15.39,2.45,2.45,0,0,1,.41.37l-.4.4a2.21,2.21,0,0,0-.29-.32,1.38,1.38,0,0,0-.87-.32,1.49,1.49,0,0,0,0,3,1.49,1.49,0,0,0,.89-.32,1.87,1.87,0,0,0,.31-.32Z"/><path class="cls-1" d="M203.93,242.28a2,2,0,0,1-.41.4,2,2,0,0,1-1.19.4,2,2,0,0,1,0-4,1.82,1.82,0,0,1,1.84,1.92,1.15,1.15,0,0,1,0,.21l0,.08H201a1.38,1.38,0,0,0,1.36,1.28,1.48,1.48,0,0,0,.92-.32,1.94,1.94,0,0,0,.32-.32Zm-.36-1.48a1.31,1.31,0,0,0-1.28-1.2,1.37,1.37,0,0,0-1.32,1.2Z"/><path class="cls-1" d="M207,237.4h.52l3.44,4.52V237.4h.6V243h-.52l-3.44-4.52V243H207Z"/><path class="cls-1" d="M212.77,241.08a2,2,0,1,1,2,2A2,2,0,0,1,212.77,241.08Zm3.36,0a1.4,1.4,0,1,0-1.4,1.48A1.44,1.44,0,0,0,216.13,241.08Z"/><path class="cls-1" d="M217.89,242.28a.4.4,0,1,1-.4.4A.37.37,0,0,1,217.89,242.28Z"/><path class="cls-1" d="M222.09,238h-1.76v-.56h4.12V238h-1.76v5h-.6Z"/><path class="cls-1" d="M228.53,242.44V243h-3.6c0-2.36,3-2.43,3-4a1.06,1.06,0,0,0-1.2-1.08,1.11,1.11,0,0,0-1,.48,1.34,1.34,0,0,0-.23.48l-.52-.24a2,2,0,0,1,.32-.64,1.69,1.69,0,0,1,1.4-.64,1.66,1.66,0,0,1,1.8,1.64c0,1.72-2.44,2-2.92,3.48Z"/><path class="cls-1" d="M230.37,238.52h-1v-.36a1.34,1.34,0,0,0,1-.39.91.91,0,0,0,.24-.37H231V243h-.6Z"/><path class="cls-1" d="M234.21,237.32h.52l-2.4,7.36h-.52Z"/><path class="cls-1" d="M237.85,238H235v-.56h3.52V238L236,243h-.64Z"/><path class="cls-1" d="M240.05,238.52h-1v-.36a1.34,1.34,0,0,0,1-.39.91.91,0,0,0,.24-.37h.44V243h-.6Z"/><path class="cls-1" d="M245.41,242.44V243h-3.6c0-2.36,3-2.43,3-4a1.06,1.06,0,0,0-1.2-1.08,1.11,1.11,0,0,0-1,.48,1.34,1.34,0,0,0-.23.48l-.52-.24a2,2,0,0,1,.32-.64,1.69,1.69,0,0,1,1.4-.64,1.66,1.66,0,0,1,1.8,1.64c0,1.72-2.44,2-2.92,3.48Z"/><path class="cls-1" d="M246.73,242.28a.4.4,0,1,1-.4.4A.37.37,0,0,1,246.73,242.28Z"/></g></svg>