<svg xmlns="http://www.w3.org/2000/svg" viewBox="0 0 15.68 20.71"><defs><style>.cls-1{fill:#ffda00;}</style></defs><title>Asset6</title><g id="Layer_2" data-name="Layer 2"><g id="Layer_1-2" data-name="Layer 1"><path class="cls-1" d="M11.68,1.79H4.16V1.45h7.52ZM15.09,4.3a2.63,2.63,0,0,0-2-2.45v-.4h1.08a.73.73,0,1,0,0-1.45H1.63a.73.73,0,1,0,0,1.45H2.71V1.8A2.66,2.66,0,0,0,.58,4.31L0,20a.73.73,0,0,0,.7.75h0A.73.73,0,0,0,1.45,20L2,4.36A1.2,1.2,0,0,1,3.23,3.2a.71.71,0,0,0,.2,0h.94L3.61,20a.71.71,0,0,0,.69.75h0A.72.72,0,0,0,5.06,20L5.82,3.24h4L10.62,20a.72.72,0,0,0,.72.69h0a.71.71,0,0,0,.69-.75L11.31,3.24h1.1a.7.7,0,0,0,.14,0,1.21,1.21,0,0,1,1.1,1.15L14.23,20a.71.71,0,0,0,.72.69h0a.73.73,0,0,0,.7-.75Z"/></g></g></svg>