<?xml version="1.0" encoding="utf-8"?>
<!-- Generator: Adobe Illustrator 22.1.0, SVG Export Plug-In . SVG Version: 6.00 Build 0)  -->
<svg version="1.1" id="Layer_1" xmlns="http://www.w3.org/2000/svg" xmlns:xlink="http://www.w3.org/1999/xlink" x="0px" y="0px"
	 viewBox="0 0 210 36.6" style="enable-background:new 0 0 210 36.6;" xml:space="preserve">
<style type="text/css">
	.st0{fill:#231F20;}
</style>
<title>text1</title>
<g id="Layer_2_1_">
	<g id="Layer_1-2">
		<path class="st0" d="M0,14.1v-2.4h2V2.6H0V0.2h12.4v4.3H9.8V2.6H5.6v3.2h3v2.4h-3v3.6h2.1v2.4L0,14.1z"/>
		<path class="st0" d="M27.6,11.8v2.4h-4.3L20.2,8h-1.6v3.7h1.7v2.4h-7.2v-2.4H15V2.6h-1.9V0.2h8.4c1.6,0,2.7,0.4,3.4,1.2
			c0.7,0.7,1,1.7,1,2.7c0,1.5-0.9,2.9-2.4,3.5l2.3,4.2L27.6,11.8z M18.6,5.8h1.2c1.5,0,2.3-0.5,2.3-1.6c0-0.5-0.2-0.9-0.5-1.2
			c-0.4-0.3-0.9-0.4-1.4-0.4h-1.6L18.6,5.8z"/>
		<path class="st0" d="M28.2,14.1v-2.4h1.7V2.6h-1.7V0.2h12.2v4.4h-2.6V2.6h-4.3v3.2H37v2.4h-3.5v3.6h4.3V9.7h2.7v4.4L28.2,14.1z"/>
		<path class="st0" d="M41.8,14.1v-2.4h1.7V2.6h-1.7V0.2h12.2v4.4h-2.6V2.6h-4.3v3.2h3.5v2.4h-3.5v3.6h4.3V9.7h2.7v4.4L41.8,14.1z"
			/>
		<path class="st0" d="M63.6,14.2L59.5,2.6h-1.7V0.2h7.1v2.4h-1.8l2.4,7l2.4-7H66V0.2h6.2v2.4h-1.7l-4,11.6H63.6z"/>
		<path class="st0" d="M72.8,14.1v-2.4h1.7V2.6h-1.7V0.2H85v4.4h-2.7V2.6h-4.3v3.2h3.5v2.4h-3.5v3.6h4.3V9.7H85v4.4L72.8,14.1z"/>
		<path class="st0" d="M86.4,14.1v-2.4h1.7V2.6h-1.7V0.2h6.7v2.4h-1.5v3h3.8v-3H94V0.2h6.7v2.4h-1.7v9.2h1.7v2.4H94v-2.4h1.4V8h-3.8
			v3.8h1.5v2.4L86.4,14.1z"/>
		<path class="st0" d="M101.7,14.1v-2.4h2.1V2.6h-2.1V0.2h7.9v2.4h-2.1v9.2h2.1v2.4L101.7,14.1z"/>
		<path class="st0" d="M122.5,0.2h2.4v4.9h-2.4c-0.7-1.8-1.8-2.6-3.4-2.6c-1.2-0.1-2.3,0.4-3.1,1.4c-0.7,1-1.1,2.1-1,3.3
			c-0.1,1.2,0.3,2.4,1.1,3.3c0.7,0.8,1.7,1.3,2.8,1.3c0.9,0,1.8-0.3,2.4-0.9c0.7-0.7,1.2-1.6,1.4-2.6l2.7,1.3
			c-1.1,3.2-3.3,4.8-6.9,4.8c-2.5,0-4.4-0.7-5.6-2c-1.3-1.4-2-3.2-1.9-5.1c0-1.4,0.3-2.7,0.9-3.9c0.6-1.1,1.5-1.9,2.7-2.5
			c1.2-0.6,2.4-0.9,3.7-0.8c1.5-0.1,3,0.4,4.2,1.3V0.2z"/>
		<path class="st0" d="M126.5,14.1v-2.4h2V2.6h-2V0.2h7.6v2.4h-2v9.2h4.1V7.5h2.7v6.6L126.5,14.1z"/>
		<path class="st0" d="M139.9,14.1v-2.4h1.7V2.6h-1.7V0.2h12.2v4.4h-2.7V2.6h-4.3v3.2h3.5v2.4h-3.5v3.6h4.3V9.7h2.7v4.4L139.9,14.1z
			"/>
		<path class="st0" d="M158.6,14.1v-2.4h1.7V2.6h-1.7V0.2h6.7v2.4h-1.5v3h3.8v-3h-1.4V0.2h6.7v2.4h-1.7v9.2h1.7v2.4h-6.7v-2.4h1.4V8
			h-3.8v3.8h1.5v2.4L158.6,14.1z"/>
		<path class="st0" d="M173.9,14.1v-2.4h2.1V2.6h-2.1V0.2h7.8v2.4h-2.1v9.2h2.1v2.4L173.9,14.1z"/>
		<path class="st0" d="M197.1,11.8v2.4h-4.3L189.7,8h-1.6v3.7h1.7v2.4h-7.3v-2.4h1.9V2.6h-1.9V0.2h8.4c1.6,0,2.7,0.4,3.4,1.2
			c0.7,0.7,1,1.7,1,2.7c0,1.5-0.9,2.9-2.4,3.5l2.3,4.2L197.1,11.8z M188.2,5.8h1.2c1.5,0,2.3-0.5,2.3-1.6c0-0.5-0.2-0.9-0.5-1.2
			c-0.4-0.3-0.9-0.4-1.4-0.4h-1.6L188.2,5.8z"/>
		<path class="st0" d="M197.8,14.1v-2.4h1.7V2.6h-1.7V0.2H210v4.4h-2.7V2.6H203v3.2h3.5v2.4H203v3.6h4.3V9.7h2.7v4.4L197.8,14.1z"/>
		<path class="st0" d="M21.2,36.5l-3-10.6h-1.5v-1.5h4.6v1.5h-1.4l2.3,7.8l2.2-7.8h-1.4v-1.5h5.5v1.5h-1.5l2.2,7.8l2.2-7.8h-1.4
			v-1.5h4.4v1.5h-1.4l-3,10.6h-1.7l-2.7-9.5l-2.7,9.5L21.2,36.5z"/>
		<path class="st0" d="M36.1,34.9v-9h-1.4v-1.5h4.6v1.5H38v3.4h5.2v-3.5h-1.4v-1.5h4.6v1.5h-1.4v9h1.4v1.5h-4.5v-1.5h1.4v-4.1H38
			v4.1h1.4v1.5h-4.6v-1.5L36.1,34.9z"/>
		<path class="st0" d="M48.8,34.9v-9h-1.5v-1.5h9.9v3.6h-1.5v-2.1h-5.1v3.6h4.5V31h-4.5v3.9h5.1v-2.2h1.5v3.7h-9.9v-1.5L48.8,34.9z"
			/>
		<path class="st0" d="M59.6,34.9v-9h-1.7v-1.5H62l5.3,9.3v-7.9h-1.7v-1.5h4.9v1.5h-1.8v10.6h-1.9l-5.8-10.3v8.6h1.7v1.5h-4.9v-1.5
			H59.6z"/>
		<path class="st0" d="M78.1,34.9V31l-3.6-5H73v-1.5H78v1.5h-1.5l2.6,3.7l2.4-3.7H80v-1.5h4.8v1.5h-1.6l-3.3,5v3.9h1.6v1.5h-5.1
			v-1.5L78.1,34.9z"/>
		<path class="st0" d="M84.2,30.4c0-1.6,0.6-3.2,1.7-4.4c1.2-1.2,2.8-1.8,4.4-1.8c1.7-0.1,3.3,0.6,4.5,1.8c1.2,1.2,1.8,2.8,1.7,4.4
			c0.1,1.7-0.6,3.3-1.8,4.5c-1.2,1.2-2.8,1.8-4.5,1.8c-1.1,0-2.2-0.3-3.2-0.8c-1-0.5-1.7-1.3-2.2-2.3C84.4,32.5,84.2,31.4,84.2,30.4
			z M86.1,30.4c0,1.2,0.4,2.4,1.2,3.3c0.8,0.9,1.9,1.4,3,1.3c1.2,0,2.3-0.5,3.1-1.4c0.8-0.9,1.2-2.1,1.2-3.3c0-1.2-0.4-2.4-1.2-3.2
			c-0.8-0.9-1.9-1.4-3.1-1.3c-1.1,0-2.2,0.4-3,1.3C86.5,28,86.1,29.2,86.1,30.4L86.1,30.4z"/>
		<path class="st0" d="M100.9,25.9v6c0,0.6,0,1.3,0.1,1.9c0.1,0.4,0.4,0.7,0.7,0.9c0.4,0.3,1,0.4,1.5,0.4c0.6,0,1.1-0.1,1.6-0.3
			c0.4-0.2,0.6-0.5,0.8-0.9c0.2-0.6,0.2-1.3,0.2-1.9v-6.1h-1.4v-1.5h4.7v1.5h-1.5v6.2c0,0.6,0,1.2-0.1,1.8c-0.1,0.4-0.3,0.8-0.6,1.2
			c-0.3,0.4-0.8,0.8-1.3,1c-0.7,0.3-1.4,0.4-2.1,0.4c-0.8,0-1.5-0.1-2.3-0.3c-0.5-0.2-1-0.5-1.4-0.9c-0.3-0.4-0.5-0.8-0.6-1.2
			c-0.1-0.7-0.2-1.4-0.1-2.1v-6.1h-1.5v-1.5h4.7v1.5L100.9,25.9z"/>
		<path class="st0" d="M115.7,34.9v-9h-1.4v-1.5h4.1l3.2,8.2l3.2-8.2h4.1v1.5h-1.5v9h1.5v1.5h-4.5v-1.5h1.4v-9l-4.1,10.6h-0.4
			l-4.1-10.6v9h1.3v1.5h-4.2v-1.5L115.7,34.9z"/>
		<path class="st0" d="M130.1,30.4c0-1.6,0.6-3.2,1.7-4.4c1.2-1.2,2.8-1.8,4.4-1.8c1.7-0.1,3.3,0.6,4.5,1.8c1.2,1.2,1.8,2.8,1.7,4.4
			c0.1,1.7-0.6,3.3-1.8,4.5c-1.2,1.2-2.8,1.8-4.5,1.8c-1.1,0-2.2-0.3-3.2-0.8c-1-0.5-1.7-1.3-2.2-2.3
			C130.4,32.5,130.1,31.4,130.1,30.4z M132.1,30.4c0,1.2,0.4,2.4,1.2,3.3c0.8,0.9,1.9,1.4,3,1.3c1.2,0,2.3-0.5,3.1-1.4
			c0.8-0.9,1.2-2.1,1.2-3.3c0-1.2-0.4-2.4-1.2-3.2c-0.8-0.9-1.9-1.4-3.1-1.3c-1.1,0-2.2,0.4-3,1.3C132.5,28,132.1,29.2,132.1,30.4
			L132.1,30.4z"/>
		<path class="st0" d="M147.7,36.5l-4-10.6h-1.5v-1.5h4.7v1.5h-1.4l3.1,8.1l3-8.1h-1.4v-1.5h4.6v1.5h-1.5l-3.9,10.6L147.7,36.5z"/>
		<path class="st0" d="M156.7,34.9v-9h-1.6v-1.5h10v3.6h-1.5v-2.1h-5.1v3.6h4.5V31h-4.5v3.9h5.1v-2.2h1.5v3.7h-9.9v-1.5L156.7,34.9z
			"/>
		<path class="st0" d="M172,34.9v-9h-1.3v-1.5h4.4v1.5h-1.3v9h1.3v1.5h-4.4v-1.5L172,34.9z"/>
		<path class="st0" d="M177.4,34.9v-9h-1.7v-1.5h4.1l5.3,9.3v-7.9h-1.7v-1.5h4.9v1.5h-1.8v10.6h-1.9l-5.8-10.3v8.6h1.7v1.5h-4.9
			v-1.5H177.4z"/>
		<path class="st0" d="M189.9,36.4v-2.1h2.1v2.1H189.9z M191.4,33.1h-0.9l-0.4-5.1v-3.6h1.7v3.6L191.4,33.1z"/>
	</g>
</g>
</svg>
