<?xml version="1.0" encoding="utf-8"?>
<!-- Generator: Adobe Illustrator 25.0.0, SVG Export Plug-In . SVG Version: 6.00 Build 0)  -->
<svg version="1.1" id="_Layer_" xmlns="http://www.w3.org/2000/svg" xmlns:xlink="http://www.w3.org/1999/xlink" x="0px" y="0px"
	 viewBox="0 0 160 600" style="enable-background:new 0 0 160 600;" xml:space="preserve">
<style type="text/css">
	.st0{fill:#FFFFFF;}
</style>
<path class="st0" d="M12,118.4l2.7-1.8c0.7,1.3,2,2.2,3.6,2.3c1.4,0,2.4-0.7,2.4-1.8s-0.6-1.4-2.1-2.4l-0.8-0.5
	c-2.1-1.4-3.2-2.8-3.2-5c0-2.6,1.7-4.7,5.3-4.7c1.8-0.1,3.5,0.7,4.6,2.1l-2.5,2.1c-0.5-0.8-1.4-1.3-2.4-1.3
	c-0.9-0.1-1.6,0.6-1.7,1.5c0,0.1,0,0.1,0,0.2c0,0.8,0.5,1.4,1.8,2.2l0.8,0.5c2.3,1.4,3.7,2.7,3.7,5.1c0,3.4-2.6,5-5.9,5
	C15.7,121.9,13.3,120.6,12,118.4z"/>
<path class="st0" d="M28.5,103.6h3.3l-1.6,9.2c0.7-1.3,2-2.1,3.4-2.1c2.3,0,3.7,2,3.2,5l-0.5,2.8c-0.1,0.4,0.1,0.6,0.5,0.6h0.8
	l-0.4,2.5h-1.1c-2.3,0-3.4-0.8-3-3.2l0.5-2.6c0.2-1.4-0.3-2.2-1.5-2.2c-1.3,0-2,0.7-2.3,2.2l-1,5.8h-3.3L28.5,103.6z"/>
<path class="st0" d="M38.6,116.7c0-3.8,2.3-6,5-6c1.4-0.1,2.8,0.7,3.4,1.9l0.2-1.7h3.3l-1.3,7.6c-0.1,0.4,0.1,0.6,0.5,0.6h0.8
	l-0.4,2.5h-1.2c-2.4,0-2.7-0.6-2.9-1.5V120c-0.6,1.2-1.8,1.9-3.1,1.8C40.5,121.8,38.6,119.9,38.6,116.7z M46.4,116.1
	c0-1.5-0.7-2.5-2-2.5s-2.3,1.2-2.3,3c0,1.5,0.8,2.4,2,2.4S46.5,117.8,46.4,116.1z"/>
<path class="st0" d="M54.5,121.6h-3.3l3.2-18h3.3l-1.6,9.2c-0.1,0.8-0.3,1.6-0.6,2.4l4-4.2h3.8l-4.3,4.4l1.5,3.1
	c0.3,0.6,0.5,0.6,0.8,0.6h0.8l-0.4,2.5h-1.2c-1.9,0-2.3-0.7-3.1-2.1l-1-2.1l-1.3,1.1L54.5,121.6z"/>
<path class="st0" d="M69.4,119.1c0.9,0,1.8-0.3,2.5-0.9l2,2.1c-1.3,1-2.9,1.6-4.6,1.5c-3.9,0-6-2.3-6-5.5c-0.1-3,2.3-5.5,5.3-5.6
	c0.1,0,0.3,0,0.4,0c3.8,0,5.4,2.4,5.6,6l-7.9,0.8C67.2,118.6,68.3,119.3,69.4,119.1z M71.1,115.2c0-1-0.8-1.9-1.8-1.9
	c-0.1,0-0.1,0-0.2,0c-1.3-0.1-2.4,0.9-2.4,2.1c0,0.1,0,0.2,0,0.2L71.1,115.2z"/>
<path class="st0" d="M81.1,118.5l1.3-7.5h3.3l-1.3,7.6c-0.1,0.4,0.1,0.6,0.4,0.6h0.8l-0.4,2.5h-1.2
	C81.5,121.6,80.6,121.1,81.1,118.5z M82.7,107.1c0-1.1,0.9-2,2-2s2,0.9,2,2s-0.9,2-2,2S82.7,108.2,82.7,107.1z"/>
<path class="st0" d="M87.5,113.7L88,111h1.6l1-5.6h3.3l-1,5.6h2.6l-0.5,2.7h-2.6l-0.7,4c-0.2,1.1,0.1,1.3,0.6,1.3
	c0.4,0,0.8-0.1,1.2-0.4l1,2.3c-0.8,0.6-1.8,0.9-2.8,0.8c-2.1,0-3.9-1-3.3-4.2l0.7-3.9L87.5,113.7z"/>
<path class="st0" d="M13.2,146.9l1-5.9h3.3l-1,5.8c-0.2,1.4,0.3,2.1,1.5,2.1c1.3,0,2-0.6,2.3-2.2l1-5.8h3.3l-1.3,7.6
	c-0.1,0.4,0.1,0.6,0.5,0.6h0.8l-0.4,2.5h-1.2c-2.4,0-2.8-0.6-2.9-1.5v-0.2c-0.7,1.2-2.1,2-3.5,1.9C14.1,151.8,12.7,149.9,13.2,146.9
	z"/>
<path class="st0" d="M27.2,141h3.3l-0.4,1.6c0.7-1.1,1.9-1.8,3.1-1.8c2.4,0,4.3,2,4.3,5.1c0,3.7-2.4,6-5,6c-1.5,0.1-2.9-0.8-3.5-2.1
	l-1.2,7.1h-3.3L27.2,141z M34.2,146c0.2-1.2-0.7-2.2-1.8-2.4c-0.1,0-0.2,0-0.4,0c-1.5,0-2.5,1.2-2.5,2.9c0,1.5,0.8,2.5,2.2,2.5
	C33.2,149,34.2,147.8,34.2,146z"/>
<path class="st0" d="M43.8,146.7c0-3.9,2.3-6,5-6c1.4-0.1,2.8,0.7,3.4,1.9l0.2-1.7h3.3l-1.3,7.6c-0.1,0.4,0.1,0.6,0.5,0.6h0.8
	l-0.4,2.5H54c-2.4,0-2.7-0.6-2.9-1.5V150c-0.6,1.1-1.8,1.9-3.1,1.8C45.7,151.8,43.8,149.9,43.8,146.7z M51.7,146.1
	c0-1.5-0.7-2.5-2-2.5s-2.3,1.2-2.3,3c0,1.5,0.8,2.4,2,2.4S51.7,147.8,51.7,146.1L51.7,146.1z"/>
<path class="st0" d="M62,148.5l2.6-15H68l-2.6,15c-0.1,0.4,0.1,0.6,0.4,0.6h1l-0.4,2.5h-1.6C62.5,151.6,61.6,151.1,62,148.5z"/>
<path class="st0" d="M68.3,148.5l1.3-7.5h3.3l-1.3,7.6c-0.1,0.4,0.1,0.6,0.4,0.6h0.8l-0.4,2.5h-1.2
	C68.7,151.6,67.8,151.1,68.3,148.5z M69.9,137.1c0-1.1,0.9-2,2-2s2,0.9,2,2s-0.9,2-2,2S69.9,138.2,69.9,137.1z"/>
<path class="st0" d="M74.7,143.7l0.5-2.7h1.6l1-5.6H81l-1,5.6h2.6l-0.5,2.7h-2.6l-0.7,4c-0.2,1.1,0.1,1.3,0.6,1.3
	c0.4,0,0.8-0.1,1.2-0.4l1.1,2.3c-0.8,0.6-1.8,0.9-2.8,0.9c-2.1,0-3.9-1-3.3-4.2l0.7-3.9L74.7,143.7z"/>
<path class="st0" d="M83.5,143.7L84,141h1.6l1-5.6h3.3l-1,5.6h2.6l-0.5,2.7h-2.6l-0.7,4c-0.2,1.1,0.1,1.3,0.6,1.3
	c0.4,0,0.8-0.1,1.2-0.4l1,2.3c-0.8,0.6-1.8,0.9-2.8,0.9c-2.1,0-3.9-1-3.3-4.2l0.7-3.9L83.5,143.7z"/>
<path class="st0" d="M92.2,148.5l2.6-15h3.3l-2.6,15c-0.1,0.4,0.1,0.6,0.4,0.6h1l-0.4,2.5h-1.5C92.7,151.6,91.8,151.1,92.2,148.5z"
	/>
<path class="st0" d="M104.6,149.1c0.9,0,1.8-0.3,2.5-0.9l2,2.1c-1.3,1-2.9,1.6-4.6,1.5c-3.9,0-6-2.4-6-5.5c-0.1-3,2.3-5.5,5.3-5.6
	c0.1,0,0.3,0,0.4,0c3.8,0,5.4,2.4,5.6,6l-7.9,0.9C102.4,148.6,103.5,149.3,104.6,149.1z M106.3,145.2c0-1-0.8-1.9-1.8-1.9
	c-0.1,0-0.1,0-0.2,0c-1.3-0.1-2.4,0.9-2.4,2.1c0,0.1,0,0.2,0,0.2L106.3,145.2z"/>
<path class="st0" d="M110.7,149.7c0-1.1,1-2,2.1-1.9c1.1,0,2,1,1.9,2.1c0,1.1-0.9,1.9-2,1.9C111.6,151.8,110.7,150.9,110.7,149.7
	C110.7,149.7,110.7,149.7,110.7,149.7z"/>
<path class="st0" d="M13.2,195.6h1.6l0.5,3c0.1,0.6,0.2,1.6,0.2,1.6c0.2-0.5,0.5-1,0.7-1.5l2-3.2h0.2l0.9,3.1
	c0.2,0.6,0.3,1.6,0.3,1.6c0.2-0.5,0.4-1,0.6-1.5l1.6-3.1h1.6l-4.2,7.9h-0.1l-1-3.7c-0.1-0.4-0.2-0.9-0.2-1.4
	c-0.2,0.4-0.4,0.9-0.7,1.3l-2.4,3.8h-0.1L13.2,195.6z"/>
<path class="st0" d="M24.3,195.1h1.5l-0.8,4.2c0.3-0.6,0.9-1,1.6-0.9c1.1,0,1.7,0.9,1.5,2.3l-0.2,1.3c0,0.2,0,0.3,0.2,0.3h0.4
	l-0.2,1.1h-0.5c-1,0-1.6-0.4-1.4-1.5l0.2-1.2c0.1-0.7-0.1-1-0.7-1s-0.9,0.3-1,1l-0.5,2.7h-1.5L24.3,195.1z"/>
<path class="st0" d="M31.8,202.3c0.4,0,0.8-0.1,1.2-0.4l0.9,1c-0.6,0.5-1.3,0.7-2.1,0.7c-1.4,0.1-2.6-0.9-2.7-2.2c0-0.1,0-0.2,0-0.3
	c0-1.4,1.1-2.6,2.4-2.6c0.1,0,0.1,0,0.2,0c1.7,0,2.5,1.1,2.6,2.8l-3.6,0.4C30.8,202,31.2,202.3,31.8,202.3z M32.5,200.5
	c0-0.5-0.4-0.9-0.8-0.9c0,0-0.1,0-0.1,0c-0.6,0-1.1,0.4-1.1,1c0,0,0,0.1,0,0.1L32.5,200.5z"/>
<path class="st0" d="M35.4,198.5h1.5l-0.2,0.9c0.5-0.8,1-1,1.5-1c0.3,0,0.5,0.1,0.7,0.2l-0.6,1.4c-0.2-0.1-0.4-0.2-0.6-0.2
	c-0.7,0-1.1,0.3-1.3,1.4l-0.4,2.2h-1.5L35.4,198.5z"/>
<path class="st0" d="M41.8,202.3c0.4,0,0.8-0.1,1.2-0.4l0.9,1c-0.6,0.5-1.3,0.7-2.1,0.7c-1.4,0.2-2.6-0.8-2.8-2.2c0-0.1,0-0.3,0-0.4
	c0-1.4,1.1-2.6,2.5-2.6c0.1,0,0.1,0,0.2,0c1.7,0,2.5,1.1,2.6,2.8l-3.6,0.4C40.8,202,41.3,202.4,41.8,202.3z M42.6,200.5
	c0-0.5-0.4-0.9-0.8-0.9c0,0-0.1,0-0.1,0c-0.6,0-1.1,0.4-1.1,1c0,0,0,0.1,0,0.1L42.6,200.5z"/>
<path class="st0" d="M49.9,197h-2.2l0.2-1.4h6l-0.3,1.4h-2.2l-1.1,6.4h-1.6L49.9,197z"/>
<path class="st0" d="M52.3,201c0-1.4,1.1-2.6,2.6-2.6c0,0,0.1,0,0.1,0c1.4-0.1,2.5,1,2.6,2.4c0,0,0,0.1,0,0.1c0,1.4-1.1,2.6-2.5,2.6
	c-0.1,0-0.1,0-0.2,0c-1.4,0-2.5-1-2.6-2.4C52.3,201.1,52.3,201,52.3,201z M56,200.9c0-0.6-0.4-1.1-1-1.1c0,0-0.1,0-0.1,0
	c-0.7,0-1.1,0.5-1.1,1.3c-0.1,0.5,0.3,1.1,0.8,1.2c0.1,0,0.2,0,0.3,0C55.6,202.2,56,201.7,56,200.9L56,200.9z"/>
<path class="st0" d="M58.9,198.5h1.5l-0.2,0.8c0.3-0.6,0.9-0.9,1.5-0.9c0.6,0,1.1,0.4,1.3,0.9c0.4-0.6,1-0.9,1.7-0.9
	c1.1,0,1.7,0.9,1.4,2.3L66,202c0,0.2,0,0.3,0.2,0.3h0.3l-0.2,1.1h-0.6c-1.1,0-1.5-0.2-1.3-1.4l0.2-1.2c0.1-0.7-0.1-1-0.6-1
	s-0.8,0.3-1,1l-0.5,2.7h-1.5l0.5-2.7c0.1-0.7-0.1-1-0.6-1s-0.9,0.3-1,1l-0.5,2.7h-1.5L58.9,198.5z"/>
<path class="st0" d="M67.1,201c0-1.4,1.1-2.6,2.5-2.6c0.1,0,0.1,0,0.2,0c1.4-0.1,2.5,1,2.6,2.4c0,0,0,0.1,0,0.1
	c0,1.4-1.1,2.6-2.5,2.6c-0.1,0-0.1,0-0.2,0c-1.4,0.1-2.5-1-2.6-2.4C67.1,201.1,67.1,201,67.1,201z M70.8,200.9
	c0.1-0.5-0.3-1.1-0.8-1.2c-0.1,0-0.2,0-0.3,0c-0.7,0-1.1,0.5-1.1,1.3c-0.1,0.5,0.3,1.1,0.8,1.2c0.1,0,0.2,0,0.3,0
	C70.4,202.2,70.8,201.7,70.8,200.9L70.8,200.9z"/>
<path class="st0" d="M73.7,198.5h1.5l-0.2,0.9c0.3-0.6,0.9-1,1.5-1c0.3,0,0.5,0.1,0.7,0.2l-0.6,1.4c-0.2-0.1-0.4-0.2-0.6-0.2
	c-0.7,0-1.1,0.3-1.3,1.4l-0.4,2.2h-1.5L73.7,198.5z"/>
<path class="st0" d="M77.9,198.5h1.5l-0.2,0.9c0.5-0.8,1-1,1.5-1c0.3,0,0.5,0.1,0.7,0.2l-0.6,1.4c-0.2-0.1-0.4-0.2-0.6-0.2
	c-0.7,0-1.1,0.3-1.3,1.4l-0.4,2.2h-1.5L77.9,198.5z"/>
<path class="st0" d="M81.5,201c0-1.4,1.1-2.6,2.5-2.6c0.1,0,0.1,0,0.2,0c1.4-0.1,2.5,1,2.6,2.4c0,0,0,0.1,0,0.1
	c0,1.4-1.1,2.6-2.5,2.6c-0.1,0-0.1,0-0.2,0c-1.4,0.1-2.5-1-2.6-2.4C81.5,201.1,81.5,201,81.5,201z M85.3,200.9
	c0.1-0.5-0.3-1.1-0.8-1.2c-0.1,0-0.2,0-0.3,0c-0.7,0-1.1,0.5-1.1,1.3c-0.1,0.6,0.3,1.1,0.9,1.2c0,0,0.1,0,0.1,0
	C84.8,202.2,85.3,201.7,85.3,200.9L85.3,200.9z"/>
<path class="st0" d="M87.2,198.5h1.6l0.4,1.4c0.1,0.4,0.2,1.1,0.2,1.1c0.2-0.4,0.3-0.7,0.5-1.1l1-1.5h0l0.6,1.5
	c0.2,0.4,0.3,0.7,0.4,1.1c0,0,0.3-0.7,0.5-1.1l0.7-1.4h1.6l-2.9,5h-0.1l-0.8-2c-0.1-0.3-0.2-0.7-0.3-1c-0.1,0.3-0.3,0.6-0.4,0.9
	l-1.4,2h-0.1L87.2,198.5z"/>
<path class="st0" d="M94.3,202.5l1-0.7c0.2,0.4,0.6,0.6,1.1,0.6c0.5,0,0.6-0.1,0.6-0.3s-0.2-0.2-0.9-0.6c-0.6-0.2-1.1-0.8-1.1-1.5
	c0-1,0.8-1.6,1.8-1.6c0.7,0,1.3,0.2,1.7,0.7l-1,0.8c-0.2-0.2-0.4-0.4-0.7-0.4c-0.3,0-0.4,0.1-0.4,0.3s0.2,0.3,0.7,0.5
	c0.8,0.4,1.4,0.7,1.4,1.6s-0.7,1.5-2.1,1.5C95.6,203.6,94.8,203.2,94.3,202.5z"/>
<path class="st0" d="M101.6,201.2c0-1.8,1.1-2.8,2.3-2.8c0.7,0,1.3,0.3,1.6,0.9l0.1-0.8h1.5l-0.6,3.5c0,0.2,0,0.3,0.2,0.3h0.3
	l-0.2,1.1h-0.6c-1.1,0-1.3-0.3-1.3-0.7v-0.1c-0.3,0.5-0.8,0.9-1.4,0.8c-1.1-0.1-2-1.1-1.9-2.2C101.6,201.2,101.6,201.2,101.6,201.2z
	 M105.2,200.9c0-0.7-0.3-1.1-0.9-1.1s-1.1,0.5-1.1,1.4s0.3,1.1,0.9,1.1S105.2,201.6,105.2,200.9z"/>
<path class="st0" d="M108.2,198.5h1.5l-0.2,0.9c0.5-0.8,1-1,1.5-1c0.3,0,0.5,0.1,0.7,0.2l-0.6,1.4c-0.2-0.1-0.4-0.2-0.6-0.2
	c-0.7,0-1.1,0.3-1.3,1.4l-0.4,2.2h-1.5L108.2,198.5z"/>
<path class="st0" d="M114.6,202.3c0.4,0,0.8-0.1,1.2-0.4l0.9,1c-0.6,0.5-1.3,0.7-2.1,0.7c-1.4,0.2-2.6-0.8-2.8-2.2
	c0-0.1,0-0.2,0-0.3c0-1.4,1.1-2.6,2.4-2.6c0.1,0,0.1,0,0.2,0c1.7,0,2.5,1.1,2.6,2.8l-3.6,0.4C113.6,202.1,114.1,202.3,114.6,202.3z
	 M115.4,200.5c0-0.5-0.4-0.9-0.8-0.9c0,0-0.1,0-0.1,0c-0.6,0-1.1,0.4-1.1,1c0,0,0,0.1,0,0.1L115.4,200.5z"/>
<path class="st0" d="M121.2,195.5h0.1l2.9,4.3l4.6-4.3h0.1l-1.4,7.9h-1.5l0.5-2.9c0.1-0.5,0.3-1.4,0.3-1.4c-0.3,0.4-0.6,0.8-1,1.2
	l-1.8,1.8H124l-1.2-1.7c-0.3-0.4-0.7-1.2-0.7-1.2s-0.1,0.9-0.2,1.4l-0.5,2.9h-1.5L121.2,195.5z"/>
<path class="st0" d="M129,201.2c0-1.8,1.1-2.8,2.3-2.8c0.7,0,1.3,0.3,1.6,0.9l0.1-0.8h1.5l-0.6,3.5c0,0.2,0,0.3,0.2,0.3h0.4
	l-0.2,1.1h-0.6c-1.1,0-1.3-0.3-1.3-0.7v-0.1c-0.3,0.5-0.8,0.9-1.4,0.8c-1.2-0.1-2-1.1-2-2.2C129,201.2,129,201.2,129,201.2z
	 M132.6,200.9c0-0.7-0.3-1.1-0.9-1.1s-1.1,0.5-1.1,1.4s0.4,1.1,1,1.1S132.6,201.6,132.6,200.9L132.6,200.9z"/>
<path class="st0" d="M135,201.2c-0.2-1.4,0.8-2.6,2.2-2.8c0.1,0,0.2,0,0.2,0c0.6,0,1.3,0.3,1.6,0.8l0.7-4.1h1.5L140,202
	c0,0.2,0,0.3,0.2,0.3h0.4l-0.2,1.1h-0.6c-1.1,0-1.3-0.3-1.3-0.7v-0.1c-0.3,0.6-0.9,0.9-1.5,0.9c-1.2-0.1-2-1.1-2-2.2
	C135,201.3,135,201.2,135,201.2z M138.7,200.9c0.1-0.5-0.3-1.1-0.9-1.1c0,0-0.1,0-0.1,0c-0.7,0-1.1,0.5-1.1,1.4
	c-0.1,0.5,0.3,1,0.9,1.1c0,0,0.1,0,0.1,0C138.2,202.2,138.7,201.6,138.7,200.9C138.7,200.9,138.7,200.9,138.7,200.9L138.7,200.9z"/>
<path class="st0" d="M144,202.3c0.4,0,0.8-0.1,1.2-0.4l0.9,1c-0.6,0.5-1.3,0.7-2.1,0.7c-1.4,0.2-2.6-0.8-2.8-2.2c0-0.1,0-0.2,0-0.3
	c0-1.4,1.1-2.6,2.5-2.6c0.1,0,0.1,0,0.2,0c1.7,0,2.5,1.1,2.6,2.8l-3.6,0.4C143,202.1,143.5,202.3,144,202.3z M144.8,200.5
	c0-0.5-0.4-0.9-0.8-0.9c0,0-0.1,0-0.1,0c-0.6,0-1.1,0.4-1.1,1c0,0,0,0.1,0,0.1L144.8,200.5z"/>
<path class="st0" d="M146.8,202.5c0-0.5,0.5-0.9,1-0.9c0.5,0,0.9,0.5,0.9,1c0,0.5-0.4,0.9-0.9,0.9
	C147.2,203.5,146.8,203.1,146.8,202.5C146.8,202.6,146.8,202.5,146.8,202.5z"/>
<path class="st0" d="M12.2,185.6l1-0.6c0.3,0.7,1,1.1,1.8,1.1c0.8,0,1.4-0.4,1.4-1.1s-0.5-1-1.3-1.4l-0.5-0.2
	c-1.1-0.5-1.8-1.1-1.8-2.3c0-1.1,0.9-2,2-2c0.1,0,0.1,0,0.2,0c0.9-0.1,1.8,0.4,2.2,1.2l-1,0.6c-0.2-0.5-0.7-0.8-1.3-0.8
	c-0.5-0.1-0.9,0.3-1,0.8c0,0,0,0.1,0,0.1c0,0.6,0.3,0.9,1.1,1.2l0.5,0.2c1.3,0.6,2,1.2,2,2.5s-1.1,2.2-2.5,2.2
	C13.9,187.3,12.8,186.7,12.2,185.6z"/>
<path class="st0" d="M19.1,185.5v-2.2h-0.7v-1h0.7v-2.5h1.2v2.5h1.3v1h-1.3v2.2c0,0.6,0.2,0.7,0.5,0.7c0.2,0,0.4-0.1,0.6-0.2
	l0.5,0.8c-0.3,0.3-0.8,0.5-1.2,0.5C19.7,187.3,19.1,186.8,19.1,185.5z"/>
<path class="st0" d="M24.7,183.2c-0.5,0-1,0.2-1.3,0.6l-0.7-0.7c0.5-0.6,1.2-0.9,2-0.9c1-0.1,1.9,0.7,2,1.8c0,0.1,0,0.2,0,0.3v2.9
	h-1.1v-0.7c-0.3,0.5-0.9,0.8-1.5,0.8c-1,0-1.7-0.4-1.7-1.5s0.8-1.4,1.9-1.4h1.3C25.7,183.5,25.3,183.2,24.7,183.2z M24.4,185.1
	c-0.5,0-0.8,0.2-0.8,0.6s0.3,0.6,0.9,0.6s1.2-0.3,1.2-0.9v-0.4H24.4z"/>
<path class="st0" d="M29.5,186.7l-2-4.4h1.3l1,2.4c0.1,0.3,0.2,0.7,0.3,1c0.1-0.3,0.1-0.7,0.3-1l1-2.4h1.2l-3.2,7.3h-1.2L29.5,186.7
	z"/>
<path class="st0" d="M35.5,186.2l0.8-0.6c0.3,0.4,0.8,0.7,1.3,0.6c0.6,0,0.9-0.2,0.9-0.5s-0.4-0.4-1.2-0.7s-1.4-0.5-1.4-1.5
	s0.8-1.4,1.7-1.4c0.6,0,1.3,0.2,1.7,0.7l-0.7,0.7c-0.2-0.3-0.6-0.5-1-0.5c-0.4,0-0.7,0.2-0.7,0.4s0.3,0.4,1.1,0.6s1.6,0.5,1.6,1.5
	c0,0.8-0.5,1.5-1.9,1.5C36.8,187.3,36,186.9,35.5,186.2z"/>
<path class="st0" d="M42.5,183.2c-0.5,0-1,0.2-1.3,0.6l-0.7-0.7c0.5-0.6,1.2-0.9,2-0.9c1-0.1,1.9,0.7,2,1.7c0,0.1,0,0.2,0,0.3v2.9
	h-1.1v-0.7c-0.3,0.5-0.9,0.8-1.5,0.8c-1,0-1.7-0.4-1.7-1.5s0.8-1.4,1.9-1.4h1.3C43.5,183.5,43.1,183.2,42.5,183.2z M42.2,185.1
	c-0.5,0-0.8,0.2-0.8,0.6s0.3,0.6,0.9,0.6s1.2-0.3,1.2-0.9v-0.4H42.2z"/>
<path class="st0" d="M46.3,183.3h-0.8v-1h0.8v-1.9c0-1.2,0.6-1.7,1.5-1.7c0.5,0,1,0.2,1.4,0.6l-0.7,0.7c-0.1-0.2-0.3-0.3-0.6-0.3
	c-0.3,0-0.5,0.2-0.5,0.7v1.9h1.3v1h-1.3v3.9h-1.2V183.3z"/>
<path class="st0" d="M52.2,186.3c0.5,0,1-0.2,1.4-0.5l0.7,0.7c-0.5,0.5-1.3,0.8-2,0.8c-1.4,0.1-2.6-1-2.7-2.4
	c-0.1-1.4,1-2.6,2.4-2.7c1.4-0.1,2.6,1,2.7,2.4c0,0.2,0,0.4,0,0.5h-3.9C50.7,185.9,51.4,186.4,52.2,186.3z M53.3,184.3
	c-0.1-0.7-0.7-1.2-1.3-1.1c-0.7,0-1.3,0.5-1.4,1.1L53.3,184.3z"/>
<path class="st0" d="M55.3,186.4c0-0.4,0.4-0.8,0.8-0.8c0.4,0,0.8,0.4,0.8,0.8c0,0.4-0.3,0.8-0.8,0.8
	C55.6,187.2,55.3,186.9,55.3,186.4C55.3,186.4,55.3,186.4,55.3,186.4z"/>
<path class="st0" d="M62.4,180.4h-2.3v-1.1H66v1.1h-2.4v6.8h-1.2V180.4z"/>
<path class="st0" d="M65.5,185.2v-2.9h1.2v2.8c0,0.7,0.3,1.1,1,1.1c0.6,0,1.2-0.4,1.2-1.1c0-0.1,0-0.1,0-0.2v-2.6h1.2v4.8h-1.2v-0.9
	c-0.3,0.6-0.9,1-1.6,1c-1,0-1.8-0.8-1.8-1.8C65.5,185.4,65.5,185.3,65.5,185.2z"/>
<path class="st0" d="M71.4,182.3h1.2v0.9c0.3-0.6,1-1,1.7-1c1.3,0,2.3,1.1,2.3,2.4c0,0,0,0.1,0,0.1c0.1,1.3-0.9,2.4-2.2,2.5
	c0,0-0.1,0-0.1,0c-0.7,0-1.3-0.3-1.7-0.9v3.3h-1.2V182.3z M75.3,184.7c0.1-0.7-0.5-1.4-1.2-1.5c0,0-0.1,0-0.1,0
	c-0.8-0.1-1.6,0.5-1.6,1.4s0.5,1.6,1.4,1.6s1.6-0.5,1.6-1.4C75.4,184.8,75.4,184.8,75.3,184.7L75.3,184.7z"/>
<path class="st0" d="M80.1,186.3c0.5,0,1-0.2,1.4-0.5l0.7,0.7c-0.5,0.5-1.3,0.8-2,0.8c-1.4,0.2-2.7-0.7-2.9-2.1
	c-0.2-1.4,0.7-2.7,2.1-2.9c0.2,0,0.4,0,0.6,0c1.4,0,2.5,1.1,2.5,2.4c0,0.2,0,0.3,0,0.5h-3.9C78.7,185.9,79.4,186.4,80.1,186.3z
	 M81.3,184.3c-0.1-0.7-0.6-1.1-1.3-1.1c-0.7,0-1.3,0.5-1.4,1.1L81.3,184.3z"/>
<path class="st0" d="M83.6,178.9h1.2v8.3h-1.2V178.9z"/>
<path class="st0" d="M86,184.7c0-1.4,1.1-2.6,2.5-2.7s2.6,1.1,2.7,2.5c0,1.4-1.1,2.6-2.5,2.7c0,0-0.1,0-0.1,0
	C87.2,187.3,86.1,186.2,86,184.7C86,184.8,86,184.8,86,184.7z M90,184.7c0.1-0.8-0.5-1.4-1.2-1.5c-0.1,0-0.1,0-0.2,0
	c-0.8-0.1-1.6,0.6-1.6,1.4s0.6,1.6,1.4,1.6s1.6-0.6,1.6-1.4C90,184.8,90,184.8,90,184.7z"/>
<path class="st0" d="M92.4,187.1c-0.3-0.1-0.5-0.4-0.5-0.7c0-0.4,0.4-0.8,0.8-0.8s0.8,0.4,0.8,0.8l0,0c0,0.3-0.1,0.5-0.2,0.7
	l-0.7,1.3h-0.6L92.4,187.1z"/>
<path class="st0" d="M97.3,179.2h0.1l3.7,4.4l3.7-4.4h0.1v7.9h-1.2v-4.1c0-0.4,0.1-1.1,0.1-1.1c-0.2,0.3-0.4,0.6-0.7,0.9l-2,2.4
	h-0.1l-2-2.4c-0.3-0.4-0.7-0.9-0.7-0.9s0,0.7,0,1.1v4.1h-1V179.2z"/>
<path class="st0" d="M106.1,185.6l1-0.6c0.3,0.7,1,1.1,1.8,1.1c0.8,0,1.3-0.4,1.3-1.1s-0.5-1-1.3-1.4l-0.5-0.2
	c-1.1-0.5-1.8-1.1-1.8-2.3c0-1.1,0.9-2,2-2c0.1,0,0.1,0,0.2,0c0.9-0.1,1.8,0.4,2.2,1.2l-1,0.6c-0.2-0.5-0.7-0.8-1.3-0.8
	c-0.5-0.1-0.9,0.3-1,0.8c0,0,0,0.1,0,0.1c0,0.6,0.3,0.9,1.1,1.2l0.5,0.2c1.3,0.6,2,1.2,2,2.5s-1.1,2.2-2.5,2.2
	C107.7,187.3,106.6,186.6,106.1,185.6z"/>
<path class="st0" d="M112.4,186.4c0-0.4,0.4-0.8,0.8-0.8c0.4,0,0.8,0.4,0.8,0.8c0,0.4-0.3,0.8-0.8,0.8
	C112.8,187.2,112.4,186.9,112.4,186.4C112.4,186.4,112.4,186.4,112.4,186.4z"/>
<path class="st0" d="M14,227.6l0.2-1.1h0.9l0.3-1.1h1.2l-0.3,1.1H17l0.3-1.1h1.2l-0.3,1.1h0.7l-0.2,1.1h-0.7l-0.2,0.9h0.8l-0.2,1.1
	h-0.9l-0.3,1.1H16l0.3-1.1h-0.8l-0.3,1.1H14l0.3-1.1h-0.6l0.2-1.1h0.7l0.2-0.9H14z M15.9,227.6l-0.2,0.9h0.8l0.2-0.9H15.9z"/>
<path class="st0" d="M19.8,224.6h1.6l0.8,2.9c0.1,0.6,0.3,1.3,0.3,1.9c0.3-0.6,0.6-1.3,0.9-1.9l1.7-3h1.6l-4.6,7.8H22L19.8,224.6z"
	/>
<path class="st0" d="M26.2,231l0.6-3.4h1.5l-0.6,3.4c0,0.2,0,0.3,0.2,0.3h0.3l-0.2,1.1h-0.6C26.4,232.4,26,232.1,26.2,231z
	 M27,225.8c0-0.5,0.4-0.9,0.9-0.9c0,0,0,0,0,0c0.5,0,0.9,0.4,0.9,0.9s-0.4,0.9-0.9,0.9S27,226.3,27,225.8
	C27,225.8,27,225.8,27,225.8z"/>
<path class="st0" d="M28.7,231.5l1-0.7c0.2,0.4,0.6,0.6,1.1,0.6c0.5,0,0.6-0.1,0.6-0.3s-0.2-0.2-0.9-0.6c-0.6-0.2-1.1-0.8-1.1-1.5
	c0-1,0.8-1.6,1.8-1.6c0.6,0,1.3,0.2,1.7,0.7l-1,0.8c-0.2-0.2-0.4-0.4-0.7-0.4c-0.3,0-0.4,0.1-0.4,0.3s0.2,0.3,0.7,0.5
	c0.8,0.4,1.4,0.7,1.4,1.6s-0.7,1.5-2,1.5C30,232.6,29.2,232.2,28.7,231.5z"/>
<path class="st0" d="M33.9,231l0.6-3.4H36l-0.6,3.4c0,0.2,0,0.3,0.2,0.3h0.3l-0.2,1.1h-0.6C34.1,232.4,33.7,232.1,33.9,231z
	 M34.6,225.8c0-0.5,0.4-0.9,0.9-0.9s0.9,0.4,0.9,0.9s-0.4,0.9-0.9,0.9c0,0,0,0,0,0C35,226.7,34.6,226.3,34.6,225.8
	C34.6,225.8,34.6,225.8,34.6,225.8L34.6,225.8z"/>
<path class="st0" d="M36.9,228.8l0.2-1.2h0.7l0.5-2.5h1.5l-0.4,2.5h1.2l-0.2,1.2h-1.2l-0.3,1.8c-0.1,0.5,0,0.6,0.3,0.6
	c0.2,0,0.4-0.1,0.5-0.2l0.5,1.1c-0.4,0.3-0.8,0.4-1.3,0.4c-1,0-1.8-0.4-1.5-1.9l0.3-1.8L36.9,228.8z"/>
<path class="st0" d="M42.2,224.6h0.1l2.9,4.2l4.5-4.2h0.1l-1.4,7.8H47l0.5-2.9c0.1-0.5,0.3-1.4,0.3-1.4c-0.3,0.4-0.6,0.8-1,1.1
	L45,231h-0.1l-1.2-1.7c-0.3-0.4-0.5-0.8-0.7-1.1c0,0-0.1,0.9-0.2,1.4l-0.5,2.9h-1.5L42.2,224.6z"/>
<path class="st0" d="M49.7,230.9l1.2-0.8c0.3,0.6,0.9,1,1.6,1c0.7,0,1.1-0.3,1.1-0.8s-0.3-0.6-1-1.1l-0.4-0.2
	c-0.9-0.4-1.4-1.3-1.5-2.3c0-1.2,0.9-2.1,2.1-2.2c0.1,0,0.2,0,0.3,0c0.8,0,1.6,0.3,2.1,1l-1.1,1c-0.2-0.4-0.6-0.6-1.1-0.6
	c-0.4,0-0.7,0.2-0.8,0.6c0,0,0,0.1,0,0.1c0,0.4,0.2,0.6,0.8,1l0.4,0.2c1,0.7,1.7,1.2,1.7,2.3c0,1.5-1.2,2.3-2.7,2.3
	C51.3,232.5,50.3,231.9,49.7,230.9z"/>
<path class="st0" d="M61.8,232.4h-1.6l-1-1.9h-1.2l-0.3,1.9H56l1.4-7.7h1.7c2,0,3.2,1,3.2,2.8c0.1,1.2-0.7,2.3-1.8,2.7L61.8,232.4z
	 M58.8,229.1c1.2,0,1.9-0.5,1.9-1.7c0-1-0.6-1.4-1.7-1.4h-0.2l-0.5,3.1H58.8z"/>
<path class="st0" d="M65.5,231.3c0.4,0,0.8-0.1,1.2-0.4l0.9,0.9c-0.6,0.5-1.3,0.7-2.1,0.7c-1.3,0.2-2.6-0.8-2.7-2.2
	c0-0.1,0-0.2,0-0.3c0-1.4,1-2.5,2.4-2.6c0.1,0,0.1,0,0.2,0c1.7,0,2.5,1.1,2.6,2.7l-3.6,0.4C64.5,231,65,231.3,65.5,231.3z
	 M66.3,229.5c0-0.5-0.4-0.8-0.8-0.9c0,0,0,0-0.1,0c-0.5-0.1-1,0.3-1.1,0.9c0,0.1,0,0.1,0,0.2L66.3,229.5z"/>
<path class="st0" d="M68.2,231.5l1-0.7c0.2,0.4,0.6,0.6,1.1,0.6c0.5,0,0.6-0.1,0.6-0.3s-0.2-0.2-0.9-0.6c-0.6-0.2-1.1-0.8-1.1-1.5
	c0-1,0.8-1.6,1.8-1.6c0.6,0,1.3,0.2,1.7,0.7l-1,0.8c-0.2-0.2-0.4-0.4-0.7-0.4c-0.3,0-0.4,0.1-0.4,0.3s0.2,0.3,0.7,0.5
	c0.8,0.4,1.4,0.7,1.4,1.6s-0.7,1.5-2,1.5C69.5,232.5,68.7,232.2,68.2,231.5z"/>
<path class="st0" d="M73.9,227.5h1.5l-0.2,0.7c0.3-0.5,0.8-0.8,1.4-0.8c1.1,0,2,1,2,2.1c0,0.1,0,0.1,0,0.2c0.2,1.4-0.8,2.6-2.2,2.7
	c0,0-0.1,0-0.1,0c-0.7,0-1.3-0.3-1.6-0.9l-0.6,3.3h-1.5L73.9,227.5z M77.1,229.8c0-0.6-0.4-1-0.9-1.1c0,0-0.1,0-0.1,0
	c-0.7,0-1.1,0.6-1.1,1.2c0,0,0,0,0,0.1c-0.1,0.5,0.3,1,0.9,1.1c0,0,0.1,0,0.1,0C76.7,231.2,77.1,230.7,77.1,229.8z"/>
<path class="st0" d="M79.4,230c0-1.4,1.1-2.6,2.5-2.6c0.1,0,0.1,0,0.2,0c1.4-0.1,2.5,1,2.6,2.3c0,0,0,0.1,0,0.1
	c0,1.4-1.1,2.6-2.5,2.6c-0.1,0-0.1,0-0.2,0c-1.4,0.1-2.5-1-2.6-2.3C79.4,230.1,79.4,230.1,79.4,230z M83.1,229.9
	c0.1-0.5-0.3-1.1-0.8-1.1c-0.1,0-0.2,0-0.2,0c-0.7,0-1.1,0.5-1.1,1.3c-0.1,0.5,0.2,1.1,0.8,1.2c0.1,0,0.2,0,0.3,0
	C82.7,231.2,83.1,230.7,83.1,229.9L83.1,229.9z"/>
<path class="st0" d="M86.1,227.5h1.5l-0.2,0.9c0.3-0.6,0.9-1,1.6-1c1.1,0,1.7,0.9,1.4,2.3l-0.2,1.3c0,0.2,0,0.3,0.2,0.3h0.3
	l-0.2,1.1H90c-1.1,0-1.5-0.2-1.3-1.4l0.2-1.2c0.1-0.6-0.2-1-0.7-1s-0.9,0.3-1,1l-0.5,2.6h-1.6L86.1,227.5z"/>
<path class="st0" d="M91.2,231.5l1-0.7c0.2,0.4,0.6,0.6,1.1,0.6c0.5,0,0.6-0.1,0.6-0.3s-0.2-0.2-0.9-0.6c-0.6-0.2-1.1-0.8-1.1-1.5
	c0-1,0.8-1.6,1.8-1.6c0.6,0,1.3,0.2,1.7,0.7l-1,0.8c-0.2-0.2-0.4-0.4-0.7-0.4c-0.3,0-0.4,0.1-0.4,0.3s0.2,0.3,0.7,0.5
	c0.8,0.4,1.4,0.7,1.4,1.6s-0.7,1.5-2,1.5C92.4,232.5,91.6,232.2,91.2,231.5z"/>
<path class="st0" d="M96.3,231l0.6-3.4h1.5l-0.6,3.4c0,0.2,0,0.3,0.2,0.3h0.3l-0.2,1.1h-0.6C96.5,232.4,96.1,232.1,96.3,231z
	 M97.1,225.8c0-0.5,0.4-0.9,0.9-0.9c0,0,0,0,0,0c0.5,0,0.9,0.4,0.9,0.9s-0.4,0.9-0.9,0.9S97.1,226.3,97.1,225.8
	C97.1,225.8,97.1,225.8,97.1,225.8z"/>
<path class="st0" d="M100.7,231.5l-0.1,0.9h-1.5l1.4-8.2h1.5l-0.7,4c0.3-0.5,0.8-0.7,1.4-0.8c1.1,0,2,1,2,2.1c0,0.1,0,0.1,0,0.2
	c0.2,1.4-0.8,2.6-2.2,2.7c0,0-0.1,0-0.1,0C101.7,232.5,101,232.1,100.7,231.5z M103.1,229.8c0-0.6-0.4-1-0.9-1.1c0,0-0.1,0-0.1,0
	c-0.7,0-1.2,0.6-1.1,1.2c0,0,0,0.1,0,0.1c-0.1,0.5,0.3,1,0.9,1.1c0,0,0.1,0,0.1,0C102.7,231.2,103.1,230.7,103.1,229.8L103.1,229.8z
	"/>
<path class="st0" d="M105.5,231l1.2-6.8h1.5L107,231c0,0.2,0,0.3,0.2,0.3h0.4l-0.2,1.1h-0.7C105.7,232.4,105.3,232.1,105.5,231z"/>
<path class="st0" d="M108,234l1-1c0.3,0.4,0.8,0.6,1.2,0.6c0.7,0,1.2-0.5,1.2-1.1c0,0,0,0,0,0l0.1-0.8c-0.3,0.5-0.9,0.8-1.5,0.8
	c-1.1,0-1.7-0.9-1.5-2.3l0.5-2.7h1.5l-0.5,2.6c-0.1,0.6,0.1,1,0.7,1s0.9-0.3,1-1l0.5-2.6h1.5l-0.9,5.1c-0.1,1.4-1.4,2.4-2.8,2.2
	C109.4,235,108.5,234.6,108,234z"/>
</svg>
