<?xml version="1.0" encoding="utf-8"?>
<!-- Generator: Adobe Illustrator 25.0.0, SVG Export Plug-In . SVG Version: 6.00 Build 0)  -->
<svg version="1.1" id="_Layer_" xmlns="http://www.w3.org/2000/svg" xmlns:xlink="http://www.w3.org/1999/xlink" x="0px" y="0px"
	 viewBox="0 0 160 600" style="enable-background:new 0 0 160 600;" xml:space="preserve">
<style type="text/css">
	.st0{fill:#93C848;}
	.st1{fill:#F96302;}
</style>
<path class="st0" d="M35.7,30.1c0,5.3-4.3,9.7-9.7,9.7c-5.3,0-9.7-4.3-9.7-9.7c0-5.3,4.3-9.7,9.7-9.7c0,0,0,0,0,0
	C31.3,20.4,35.7,24.8,35.7,30.1C35.7,30.1,35.7,30.1,35.7,30.1"/>
<polygon class="st1" points="28.6,30.7 27.9,27 26.1,29.7 24.2,27 23.5,30.7 23.5,30.7 20.3,28.7 22.8,34.5 29.4,34.5 31.9,28.7 "/>
<path class="st1" d="M29.9,28.2c0.4,0,0.8-0.4,0.8-0.8s-0.4-0.8-0.8-0.8s-0.8,0.4-0.8,0.8v0C29.1,27.9,29.4,28.2,29.9,28.2"/>
<path class="st1" d="M22.2,28.2c0.4,0,0.8-0.4,0.8-0.8s-0.4-0.8-0.8-0.8s-0.8,0.4-0.8,0.8v0C21.4,27.9,21.8,28.2,22.2,28.2"/>
<path class="st1" d="M26.1,26.9c0.4,0,0.8-0.5,0.7-0.9c0-0.4-0.3-0.7-0.7-0.7c-0.4,0-0.8,0.5-0.7,0.9C25.4,26.5,25.7,26.8,26.1,26.9
	"/>
</svg>
