<?xml version="1.0" encoding="utf-8"?>
<!-- Generator: Adobe Illustrator 22.1.0, SVG Export Plug-In . SVG Version: 6.00 Build 0)  -->
<svg version="1.1" id="Layer_1" xmlns="http://www.w3.org/2000/svg" xmlns:xlink="http://www.w3.org/1999/xlink" x="0px" y="0px"
	 viewBox="0 0 300 50" style="enable-background:new 0 0 300 50;" xml:space="preserve">
<style type="text/css">
	.st0{fill:#594F77;}
	.st1{fill:#FFFFFF;}
</style>
<g>
	<polygon class="st0" points="63.2,5 63.2,45 146.9,45 146.9,5 63.2,5 	"/>
	<g>
		<path class="st1" d="M84.6,17.3H74c-0.5,0-1,0.4-1,1v0v3.6v10.2c0,0.5,0.4,1,1,1h10.6c0.5,0,1-0.4,1-1V21.9v-3.6v0
			C85.5,17.7,85.1,17.3,84.6,17.3L84.6,17.3z M73.7,18.3c0-0.2,0.1-0.3,0.3-0.3h10.6c0.2,0,0.3,0.1,0.3,0.3v3.6
			c0,0.2-0.1,0.3-0.3,0.3H74c-0.2,0-0.3-0.1-0.3-0.3V18.3L73.7,18.3z M84.6,32.5H74c-0.2,0-0.3-0.1-0.3-0.3v-9.3
			c0.1,0,0.2,0.1,0.3,0.1h10.6c0.1,0,0.2,0,0.3-0.1v9.3C84.9,32.3,84.7,32.5,84.6,32.5L84.6,32.5z"/>
		<path class="st1" d="M75.3,21.6h7.9c0.4,0,0.7-0.3,0.7-0.7v-1.7c0-0.4-0.3-0.7-0.7-0.7h-7.9c-0.4,0-0.7,0.3-0.7,0.7v1.7
			C74.6,21.3,74.9,21.6,75.3,21.6L75.3,21.6z M75.3,19.3h7.9l0,1.7h-7.9V19.3L75.3,19.3z"/>
		<path class="st1" d="M76.6,23.5h-1.3c-0.4,0-0.7,0.3-0.7,0.7v1c0,0.4,0.3,0.7,0.7,0.7h1.3c0.4,0,0.7-0.3,0.7-0.7v-1
			C77.3,23.8,77,23.5,76.6,23.5L76.6,23.5z M75.3,25.2v-1h1.3l0,1H75.3L75.3,25.2z"/>
		<path class="st1" d="M79.9,23.5h-1.3c-0.4,0-0.7,0.3-0.7,0.7v1c0,0.4,0.3,0.7,0.7,0.7h1.3c0.4,0,0.7-0.3,0.7-0.7v-1
			C80.6,23.8,80.3,23.5,79.9,23.5L79.9,23.5z M78.6,25.2v-1h1.3l0,1H78.6L78.6,25.2z"/>
		<path class="st1" d="M83.2,23.5h-1.3c-0.4,0-0.7,0.3-0.7,0.7v1c0,0.4,0.3,0.7,0.7,0.7h1.3c0.4,0,0.7-0.3,0.7-0.7v-1
			C83.9,23.8,83.6,23.5,83.2,23.5L83.2,23.5z M81.9,25.2v-1h1.3l0,1H81.9L81.9,25.2z"/>
		<path class="st1" d="M76.6,26.5h-1.3c-0.4,0-0.7,0.3-0.7,0.7v1c0,0.4,0.3,0.7,0.7,0.7h1.3c0.4,0,0.7-0.3,0.7-0.7v-1
			C77.3,26.8,77,26.5,76.6,26.5L76.6,26.5z M75.3,28.2v-1h1.3l0,1H75.3L75.3,28.2z"/>
		<path class="st1" d="M79.9,26.5h-1.3c-0.4,0-0.7,0.3-0.7,0.7v1c0,0.4,0.3,0.7,0.7,0.7h1.3c0.4,0,0.7-0.3,0.7-0.7v-1
			C80.6,26.8,80.3,26.5,79.9,26.5L79.9,26.5z M78.6,28.2v-1h1.3l0,1H78.6L78.6,28.2z"/>
		<path class="st1" d="M83.2,26.5h-1.3c-0.4,0-0.7,0.3-0.7,0.7v1c0,0.4,0.3,0.7,0.7,0.7h1.3c0.4,0,0.7-0.3,0.7-0.7v-1
			C83.9,26.8,83.6,26.5,83.2,26.5L83.2,26.5z M81.9,28.2v-1h1.3l0,1H81.9L81.9,28.2z"/>
		<path class="st1" d="M79.9,29.5h-1.3c-0.4,0-0.7,0.3-0.7,0.7v1c0,0.4,0.3,0.7,0.7,0.7h1.3c0.4,0,0.7-0.3,0.7-0.7v-1
			C80.6,29.8,80.3,29.5,79.9,29.5L79.9,29.5z M78.6,31.1v-1h1.3l0,1H78.6L78.6,31.1z"/>
		<path class="st1" d="M76.6,29.5h-1.3c-0.4,0-0.7,0.3-0.7,0.7v1c0,0.4,0.3,0.7,0.7,0.7h1.3c0.4,0,0.7-0.3,0.7-0.7v-1
			C77.3,29.8,77,29.5,76.6,29.5L76.6,29.5z M75.3,31.1v-1h1.3l0,1H75.3L75.3,31.1z"/>
		<path class="st1" d="M83.2,29.5h-1.3c-0.4,0-0.7,0.3-0.7,0.7v1c0,0.4,0.3,0.7,0.7,0.7h1.3c0.4,0,0.7-0.3,0.7-0.7v-1
			C83.9,29.8,83.6,29.5,83.2,29.5L83.2,29.5z M81.9,31.1v-1h1.3l0,1H81.9L81.9,31.1z"/>
	</g>
	<g>
		<path class="st1" d="M93.7,21.5h1.8c0.8,0,1.5,0.1,2,0.6c0.3,0.4,0.4,0.8,0.4,1.1c0,0.7-0.3,1.2-0.7,1.5c-0.4,0.3-1,0.3-1.3,0.3
			h-0.8v2.3h-1.3V21.5z M94.9,24.1h0.5c0.4,0,1.1,0,1.1-0.9c0-0.8-0.7-0.8-1-0.8h-0.6V24.1z"/>
		<path class="st1" d="M100.7,27.2c0-0.2,0-0.4,0-0.6c-0.4,0.6-1,0.6-1.2,0.6c-0.6,0-0.8-0.2-1-0.3c-0.2-0.2-0.4-0.6-0.4-0.9
			s0.1-0.9,0.9-1.3c0.5-0.2,1.2-0.2,1.6-0.2c0-0.3,0-0.4-0.1-0.5c-0.1-0.3-0.4-0.3-0.5-0.3c-0.2,0-0.3,0.1-0.4,0.2
			c-0.1,0.1-0.1,0.3-0.1,0.4h-1.2c0-0.2,0-0.6,0.5-1c0.4-0.3,0.8-0.3,1.2-0.3c0.3,0,1,0.1,1.4,0.5c0.3,0.3,0.3,0.8,0.3,1l0,1.6
			c0,0.3,0,0.7,0.1,1H100.7z M99.2,26c0,0.3,0.2,0.6,0.6,0.6c0.2,0,0.4-0.1,0.5-0.2c0.2-0.3,0.2-0.6,0.2-1
			C99.8,25.3,99.2,25.5,99.2,26z"/>
		<path class="st1" d="M103.4,23.2l0.9,2.8l0.9-2.8h1.2l-1.5,4l-0.5,1.6h-1.2l0.5-1.5l-1.6-4.1H103.4z"/>
		<path class="st1" d="M109.2,21.4h1.2v5.8h-1.2V21.4z"/>
		<path class="st1" d="M112.4,25.5c0,0.3,0,1.1,0.8,1.1c0.3,0,0.6-0.1,0.7-0.6h1.1c0,0.2-0.1,0.5-0.4,0.9c-0.3,0.3-0.8,0.5-1.4,0.5
			c-0.3,0-1-0.1-1.4-0.5c-0.4-0.4-0.5-0.9-0.5-1.6c0-0.7,0.2-1.4,0.8-1.9c0.3-0.2,0.7-0.3,1.1-0.3c0.6,0,1.3,0.2,1.6,1
			c0.3,0.6,0.3,1.1,0.2,1.5H112.4z M113.9,24.8c0-0.2,0-0.9-0.7-0.9c-0.5,0-0.7,0.4-0.8,0.9H113.9z"/>
		<path class="st1" d="M116.8,26.1c0,0.3,0.2,0.6,0.7,0.6c0.4,0,0.6-0.2,0.6-0.5c0-0.2-0.1-0.3-0.6-0.5l-0.7-0.2
			c-0.3-0.1-1-0.3-1-1.1c0-0.8,0.7-1.3,1.8-1.3c0.8,0,1.5,0.4,1.5,1.2H118c0-0.4-0.4-0.5-0.6-0.5c-0.3,0-0.6,0.2-0.6,0.4
			c0,0.3,0.2,0.3,0.6,0.4l0.7,0.2c0.7,0.2,1.1,0.6,1.1,1.1c0,0.7-0.6,1.4-1.9,1.4c-0.5,0-1-0.1-1.4-0.5c-0.3-0.3-0.3-0.6-0.3-0.8
			H116.8z"/>
		<path class="st1" d="M120.8,26.1c0,0.3,0.2,0.6,0.7,0.6c0.4,0,0.6-0.2,0.6-0.5c0-0.2-0.1-0.3-0.6-0.5l-0.7-0.2
			c-0.3-0.1-1-0.3-1-1.1c0-0.8,0.7-1.3,1.8-1.3c0.8,0,1.5,0.4,1.5,1.2H122c0-0.4-0.4-0.5-0.6-0.5c-0.3,0-0.6,0.2-0.6,0.4
			c0,0.3,0.2,0.3,0.6,0.4l0.7,0.2c0.7,0.2,1.1,0.6,1.1,1.1c0,0.7-0.6,1.4-1.9,1.4c-0.5,0-1-0.1-1.4-0.5c-0.3-0.3-0.3-0.6-0.3-0.8
			H120.8z"/>
		<path class="st1" d="M128.6,27.2c-0.4,0.1-0.7,0.1-0.9,0.1c-1.2,0-1.2-0.8-1.2-1.1V24h-0.8v-0.8h0.8v-0.8l1.2-0.4v1.2h1V24h-1v1.8
			c0,0.4,0,0.6,0.5,0.6c0.2,0,0.3,0,0.4,0V27.2z"/>
		<path class="st1" d="M131.7,27.2c0-0.2,0-0.4,0-0.6c-0.4,0.6-1,0.6-1.2,0.6c-0.6,0-0.8-0.2-1-0.3c-0.2-0.2-0.4-0.6-0.4-0.9
			s0.1-0.9,0.9-1.3c0.5-0.2,1.2-0.2,1.6-0.2c0-0.3,0-0.4-0.1-0.5c-0.1-0.3-0.4-0.3-0.5-0.3c-0.2,0-0.3,0.1-0.4,0.2
			c-0.1,0.1-0.1,0.3-0.1,0.4h-1.2c0-0.2,0-0.6,0.5-1c0.4-0.3,0.8-0.3,1.2-0.3c0.3,0,1,0.1,1.4,0.5c0.3,0.3,0.3,0.8,0.3,1l0,1.6
			c0,0.3,0,0.7,0.1,1H131.7z M130.3,26c0,0.3,0.2,0.6,0.6,0.6c0.2,0,0.4-0.1,0.5-0.2c0.2-0.3,0.2-0.6,0.2-1
			C130.8,25.3,130.3,25.5,130.3,26z"/>
		<path class="st1" d="M134.8,23.2l0.8,1.3l0.8-1.3h1.2l-1.3,2l1.4,2.1h-1.4l-0.8-1.5l-0.8,1.5h-1.2l1.4-2.2l-1.3-1.9H134.8z"/>
	</g>
</g>
</svg>
