<?xml version="1.0" encoding="utf-8"?>
<!-- Generator: Adobe Illustrator 22.1.0, SVG Export Plug-In . SVG Version: 6.00 Build 0)  -->
<svg version="1.1" id="Layer_1" xmlns="http://www.w3.org/2000/svg" xmlns:xlink="http://www.w3.org/1999/xlink" x="0px" y="0px"
	 viewBox="0 0 66 14" style="enable-background:new 0 0 66 14;" xml:space="preserve">
<style type="text/css">
	.st0{fill:#D1AE56;}
	.st1{fill:#382E5F;}
</style>
<g>
	<rect x="0.3" y="0.6" class="st0" width="65.4" height="12.7"/>
	<g>
		<g>
			<path class="st1" d="M8.6,7.7c0,0.2,0,0.7,0.7,0.7c0.4,0,0.7-0.2,0.7-0.5c0-0.3-0.2-0.4-0.7-0.5C8.4,7.1,7.9,6.9,7.9,6.2
				C7.9,5.6,8.4,5,9.4,5c0.4,0,0.9,0.1,1.1,0.4c0.2,0.3,0.2,0.6,0.2,0.7H10c0-0.1-0.1-0.6-0.6-0.6C9,5.6,8.8,5.8,8.8,6.1
				c0,0.3,0.3,0.4,0.8,0.5c0.7,0.2,1.3,0.3,1.3,1.1c0,0.7-0.6,1.2-1.6,1.2C7.8,9,7.8,8,7.8,7.7H8.6z"/>
			<path class="st1" d="M11.5,5.1H14v0.6h-1.7v0.9h1.6v0.6h-1.6v1h1.8v0.6h-2.6V5.1z"/>
			<path class="st1" d="M16.8,6.3c0-0.1-0.1-0.7-0.6-0.7c-0.6,0-0.8,0.6-0.8,1.4c0,0.2,0,1.3,0.8,1.3c0.3,0,0.7-0.2,0.7-0.7h0.8
				c0,0.2,0,0.6-0.3,0.9C16.9,8.9,16.5,9,16.2,9c-1.3,0-1.7-1-1.7-1.9c0-1.2,0.7-2,1.7-2c0.8,0,1.4,0.5,1.4,1.2H16.8z"/>
			<path class="st1" d="M18.9,5.1v2.3c0,0.4,0,0.9,0.8,0.9c0.1,0,0.5,0,0.7-0.3c0.1-0.1,0.1-0.3,0.1-0.6V5.1h0.8v2.3
				c0,1.1-0.9,1.5-1.6,1.5c-0.4,0-1.1-0.1-1.4-0.7c-0.2-0.3-0.2-0.6-0.2-0.9V5.1H18.9z"/>
			<path class="st1" d="M22.1,5.1h1.4c0.4,0,0.8,0,1.1,0.3C24.9,5.6,25,5.8,25,6.1C25,6.8,24.4,7,24.2,7c0.6,0.1,0.6,0.4,0.7,0.9
				C25,8.3,25,8.5,25,8.6c0,0.2,0.1,0.2,0.1,0.3h-0.9c0-0.2-0.2-1.2-0.2-1.3c-0.1-0.2-0.3-0.2-0.4-0.2h-0.7v1.5h-0.8V5.1z M22.9,6.8
				h0.7c0.1,0,0.3,0,0.4-0.1c0.1,0,0.2-0.2,0.2-0.4c0-0.3-0.1-0.4-0.2-0.4c-0.1-0.1-0.3-0.1-0.5-0.1h-0.5V6.8z"/>
			<path class="st1" d="M25.7,5.1h2.5v0.6h-1.7v0.9h1.6v0.6h-1.6v1h1.8v0.6h-2.6V5.1z"/>
		</g>
		<g>
			<path class="st1" d="M30.1,5.1l0.8,1.7l0.8-1.7h0.8l-1.3,2.4v1.4h-0.8V7.5l-1.3-2.4H30.1z"/>
		</g>
		<g>
			<path class="st1" d="M34.2,5c0.4,0,1,0.1,1.3,0.5C36,6,36,6.6,36,7c0,0.5-0.2,1.1-0.5,1.5c-0.4,0.5-1,0.5-1.3,0.5
				c-0.5,0-1-0.2-1.3-0.5C32.5,8,32.4,7.4,32.4,7C32.4,6,32.9,5,34.2,5z M33.6,8.1c0.1,0.2,0.3,0.3,0.7,0.3c0.3,0,0.6-0.1,0.7-0.3
				c0.1-0.2,0.3-0.5,0.3-1.1c0-0.2,0-0.4-0.1-0.7c-0.2-0.5-0.5-0.7-0.9-0.7c-0.3,0-0.5,0.1-0.7,0.3c-0.2,0.3-0.3,0.7-0.3,1.1
				C33.3,7.4,33.3,7.8,33.6,8.1z"/>
			<path class="st1" d="M37.4,5.1v2.3c0,0.4,0,0.9,0.8,0.9c0.1,0,0.5,0,0.7-0.3c0.1-0.1,0.1-0.3,0.1-0.6V5.1h0.8v2.3
				c0,1.1-0.9,1.5-1.7,1.5c-0.4,0-1.1-0.1-1.4-0.7c-0.2-0.3-0.2-0.6-0.2-0.9V5.1H37.4z"/>
			<path class="st1" d="M40.6,5.1h1.4c0.4,0,0.8,0,1.1,0.3c0.2,0.2,0.3,0.5,0.3,0.7c0,0.7-0.6,0.9-0.8,0.9c0.6,0.1,0.6,0.4,0.7,0.9
				c0.1,0.4,0.1,0.6,0.1,0.7c0,0.2,0.1,0.2,0.1,0.3h-0.9c0-0.2-0.2-1.2-0.2-1.3c-0.1-0.2-0.3-0.2-0.4-0.2h-0.7v1.5h-0.8V5.1z
				 M41.4,6.8h0.7c0.1,0,0.3,0,0.4-0.1c0.1,0,0.2-0.2,0.2-0.4c0-0.3-0.1-0.4-0.2-0.4c-0.1-0.1-0.3-0.1-0.5-0.1h-0.5V6.8z"/>
			<path class="st1" d="M46.2,7.7c0,0.2,0,0.7,0.7,0.7c0.4,0,0.7-0.2,0.7-0.5c0-0.3-0.2-0.4-0.7-0.5c-0.9-0.2-1.4-0.5-1.4-1.1
				C45.5,5.6,46,5,47,5c0.4,0,0.9,0.1,1.1,0.4c0.2,0.3,0.2,0.6,0.2,0.7h-0.8c0-0.1-0.1-0.6-0.6-0.6c-0.4,0-0.6,0.2-0.6,0.5
				c0,0.3,0.3,0.4,0.8,0.5c0.7,0.2,1.3,0.3,1.3,1.1c0,0.7-0.6,1.2-1.6,1.2c-1.4,0-1.5-0.9-1.5-1.3H46.2z"/>
			<path class="st1" d="M49.1,5.1h2.5v0.6h-1.7v0.9h1.6v0.6h-1.6v1h1.8v0.6h-2.6V5.1z"/>
			<path class="st1" d="M54.2,5.1l1.3,3.8h-0.8l-0.3-0.8H53l-0.3,0.8h-0.8l1.4-3.8H54.2z M54.2,7.5l-0.5-1.6l-0.6,1.6H54.2z"/>
		</g>
		<g>
			<path class="st1" d="M56.3,5.7h-1.1V5.1h3v0.6h-1.1v3.1h-0.8V5.7z"/>
		</g>
	</g>
</g>
</svg>
