<?xml version="1.0" encoding="utf-8"?>
<!-- Generator: Adobe Illustrator 22.1.0, SVG Export Plug-In . SVG Version: 6.00 Build 0)  -->
<svg version="1.1" id="Layer_1" xmlns="http://www.w3.org/2000/svg" xmlns:xlink="http://www.w3.org/1999/xlink" x="0px" y="0px"
	 viewBox="0 0 728 90" style="enable-background:new 0 0 728 90;" xml:space="preserve">
<style type="text/css">
	.st0{fill:#D1AE56;}
</style>
<g>
	<path class="st0" d="M265.5,52.3c-0.5,0-1-0.4-1-1l0,0c0-0.5,0.5-1,1-1l0,0c0.6,0,1,0.5,1,1l0,0C266.5,51.8,266,52.3,265.5,52.3z
		 M271.3,52.3c-0.5,0-1-0.4-1-1l0,0c0-0.5,0.5-1,1-1l0,0c0.6,0,1,0.5,1,1l0,0C272.3,51.8,271.8,52.3,271.3,52.3z M259.6,52.3
		c-0.6,0-1-0.4-1-1l0,0c0-0.5,0.4-1,1-1l0,0c0.5,0,1,0.5,1,1l0,0C260.6,51.8,260.2,52.3,259.6,52.3z M253.8,52.3c-0.6,0-1-0.4-1-1
		l0,0c0-0.5,0.5-1,1-1l0,0c0.6,0,1,0.5,1,1l0,0C254.8,51.8,254.4,52.3,253.8,52.3z M248,52.3c-0.6,0-1-0.4-1-1l0,0c0-0.5,0.4-1,1-1
		l0,0c0.6,0,1,0.5,1,1l0,0C249,51.8,248.6,52.3,248,52.3z M242.2,52.3c-0.5,0-1-0.4-1-1l0,0c0-0.5,0.5-1,1-1l0,0c0.6,0,1,0.5,1,1
		l0,0C243.2,51.8,242.7,52.3,242.2,52.3z M236.4,52.3c-0.6,0-1-0.4-1-1l0,0c0-0.5,0.4-1,1-1l0,0c0.5,0,1,0.5,1,1l0,0
		C237.4,51.8,236.9,52.3,236.4,52.3z M230.5,52.3c-0.6,0-1-0.4-1-1l0,0c0-0.5,0.4-1,1-1l0,0c0.6,0,1,0.5,1,1l0,0
		C231.5,51.8,231.1,52.3,230.5,52.3z M224.7,52.3c-0.6,0-1-0.4-1-1l0,0c0-0.5,0.4-1,1-1l0,0c0.6,0,1,0.5,1,1l0,0
		C225.7,51.8,225.3,52.3,224.7,52.3z M218.9,52.3c-0.5,0-1-0.4-1-1l0,0c0-0.5,0.5-1,1-1l0,0c0.6,0,1,0.5,1,1l0,0
		C219.9,51.8,219.4,52.3,218.9,52.3z M213.1,52.3c-0.5,0-1-0.4-1-1l0,0c0-0.5,0.5-1,1-1l0,0c0.5,0,1,0.5,1,1l0,0
		C214.1,51.8,213.6,52.3,213.1,52.3z M207.2,52.3c-0.6,0-1-0.4-1-1l0,0c0-0.5,0.4-1,1-1l0,0c0.5,0,1,0.5,1,1l0,0
		C208.2,51.8,207.8,52.3,207.2,52.3z M201.4,52.3c-0.6,0-1-0.4-1-1l0,0c0-0.5,0.4-1,1-1l0,0c0.6,0,1,0.5,1,1l0,0
		C202.4,51.8,202,52.3,201.4,52.3z M195.6,52.3c-0.5,0-1-0.4-1-1l0,0c0-0.5,0.5-1,1-1l0,0c0.6,0,1,0.5,1,1l0,0
		C196.6,51.8,196.2,52.3,195.6,52.3z M189.8,52.3c-0.5,0-1-0.4-1-1l0,0c0-0.5,0.5-1,1-1l0,0c0.5,0,1,0.5,1,1l0,0
		C190.8,51.8,190.3,52.3,189.8,52.3z M184,52.3c-0.5,0-1-0.4-1-1l0,0c0-0.5,0.5-1,1-1l0,0c0.5,0,1,0.5,1,1l0,0
		C185,51.8,184.6,52.3,184,52.3z"/>
</g>
</svg>
