<?xml version="1.0" encoding="utf-8"?>
<!-- Generator: Adobe Illustrator 22.1.0, SVG Export Plug-In . SVG Version: 6.00 Build 0)  -->
<svg version="1.1" id="Layer_1" xmlns="http://www.w3.org/2000/svg" xmlns:xlink="http://www.w3.org/1999/xlink" x="0px" y="0px"
	 viewBox="0 0 728 90" style="enable-background:new 0 0 728 90;" xml:space="preserve">
<style type="text/css">
	.st0{fill:#D1AE56;}
</style>
<path class="st0" d="M172.7,52.6c0.1-0.1,0.2-0.1,0.3,0c2.2,1,3.4,3.3,3.4,5.7c0,0.2-0.1,0.4-0.3,0.4h-10.8c-0.2,0-0.3-0.1-0.3-0.3
	c0-2.4,1.2-4.7,3.4-5.7c0.1,0,0.3,0,0.3,0C170,53.5,171.6,53.5,172.7,52.6L172.7,52.6z M170.8,44.9c1.9,0,3.3,1.7,3.3,3.6
	c0,1.9-1.4,3.6-3.3,3.6c-2,0-3.4-1.7-3.4-3.6C167.4,46.7,168.8,44.9,170.8,44.9L170.8,44.9z"/>
</svg>
