<?xml version="1.0" encoding="utf-8"?>
<!-- Generator: Adobe Illustrator 22.1.0, SVG Export Plug-In . SVG Version: 6.00 Build 0)  -->
<svg version="1.1" id="Layer_1" xmlns="http://www.w3.org/2000/svg" xmlns:xlink="http://www.w3.org/1999/xlink" x="0px" y="0px"
	 viewBox="0 0 300 50" style="enable-background:new 0 0 300 50;" xml:space="preserve">
<style type="text/css">
	.st0{fill:#FFFFFF;}
	.st1{fill:#B78CAE;}
</style>
<g>
	<path class="st0" d="M57.7,14h3.4c1.6,0,2.9,0.1,3.8,1.2c0.6,0.7,0.7,1.5,0.7,2.1c0,1.3-0.5,2.4-1.4,2.9c-0.8,0.5-1.9,0.5-2.5,0.5
		h-1.6V25h-2.4V14z M60,18.9H61c0.8,0,2.2,0,2.2-1.7c0-1.5-1.3-1.5-1.9-1.5H60V18.9z"/>
	<path class="st0" d="M67,13.9h2.3V25H67V13.9z"/>
	<path class="st0" d="M73.5,17.3v4.6c0,0.7,0,1.7,1.2,1.7c1.5,0,1.5-1.1,1.5-2.4v-3.9h2.3v5.1c0,1.7,0,1.9,0,2.1
		c0,0.2,0,0.4,0.1,0.6h-2.2l-0.1-1c-0.2,0.3-0.8,1.2-2.3,1.2c-1,0-1.9-0.5-2.3-1c-0.5-0.6-0.5-1.7-0.5-2.1v-4.8H73.5z"/>
	<path class="st0" d="M82.2,22.8c0,0.5,0.3,1.1,1.3,1.1c0.8,0,1.2-0.5,1.2-0.9c0-0.4-0.2-0.6-1.1-0.9l-1.4-0.4c-0.6-0.2-2-0.6-2-2.1
		c0-1.5,1.4-2.4,3.4-2.4c1.6,0,2.9,0.7,2.9,2.3h-2.1c-0.1-0.9-0.7-0.9-1.1-0.9c-0.6,0-1.1,0.3-1.1,0.8c0,0.5,0.4,0.6,1.1,0.8
		l1.4,0.4c1.4,0.4,2.1,1.1,2.1,2.2c0,1.3-1.1,2.7-3.5,2.7c-1,0-1.9-0.2-2.6-0.9c-0.5-0.5-0.6-1.1-0.6-1.5H82.2z"/>
	<path class="st0" d="M94.1,22.8c0,0.5,0.3,1.1,1.3,1.1c0.8,0,1.2-0.5,1.2-0.9c0-0.4-0.2-0.6-1.1-0.9l-1.4-0.4c-0.6-0.2-2-0.6-2-2.1
		c0-1.5,1.4-2.4,3.4-2.4c1.6,0,2.9,0.7,2.9,2.3h-2.1c-0.1-0.9-0.7-0.9-1.1-0.9c-0.6,0-1.1,0.3-1.1,0.8c0,0.5,0.4,0.6,1.1,0.8
		l1.4,0.4c1.4,0.4,2.1,1.1,2.1,2.2c0,1.3-1.1,2.7-3.5,2.7c-1,0-1.9-0.2-2.6-0.9C92,23.7,92,23.1,92,22.8H94.1z"/>
	<path class="st0" d="M103.8,17.1c2.8,0,4,1.9,4,4.1c0,2.2-1.3,4.1-4.1,4.1c-2.2,0-3.9-1.4-3.9-4.1C99.8,19.3,100.8,17.1,103.8,17.1
		z M103.8,23.7c1,0,1.7-0.6,1.7-2.6c0-1-0.2-2.4-1.7-2.4c-1.7,0-1.7,1.9-1.7,2.6C102.1,23,102.7,23.7,103.8,23.7z"/>
	<path class="st1" d="M113.8,18.7c0-0.5,0-1-0.1-1.5h2.2l0.1,1c0.2-0.3,0.8-1.2,2.4-1.2c1.8,0,2.3,1.1,2.4,1.5
		c0.6-1.2,1.7-1.4,2.5-1.4c1.6,0,2.2,0.9,2.4,1.2c0.4,0.7,0.4,1.6,0.4,2.3V25h-2.3v-4.5c0-0.8-0.1-1.7-1.3-1.7
		c-1.4,0-1.4,1.3-1.4,2.4V25h-2.3v-4.6c0-0.6,0-1.7-1.3-1.7c-1.4,0-1.4,1.2-1.4,1.7V25h-2.3V18.7z"/>
	<path class="st1" d="M130.4,17.3v4.6c0,0.7,0,1.7,1.2,1.7c1.5,0,1.5-1.1,1.5-2.4v-3.9h2.3v5.1c0,1.7,0,1.9,0,2.1
		c0,0.2,0,0.4,0.1,0.6h-2.2l-0.1-1c-0.2,0.3-0.8,1.2-2.3,1.2c-1,0-1.9-0.5-2.3-1c-0.5-0.6-0.5-1.7-0.5-2.1v-4.8H130.4z"/>
	<path class="st1" d="M141.6,20c0-0.3-0.1-1.4-1-1.4c-1.1,0-1.2,1.6-1.2,2.5c0,0.4,0,1.8,0.6,2.4c0.2,0.2,0.4,0.3,0.6,0.3
		c0.2,0,0.9-0.1,1-1.5h2.2c0,0.6-0.1,1.5-1,2.3c-0.6,0.5-1.2,0.7-2.2,0.7c-1,0-1.9-0.2-2.6-1c-0.7-0.8-1-1.8-1-3c0-3.5,2.6-4,3.6-4
		c1.4,0,3.1,0.8,3.1,2.9H141.6z"/>
	<path class="st1" d="M144.9,14h2.2v4.4c0.3-0.4,0.8-1.2,2.2-1.2c1.1,0,1.9,0.6,2.2,1c0.3,0.4,0.5,1.1,0.5,2.1V25h-2.2v-4.6
		c0-0.4,0-1.7-1.3-1.7c-0.6,0-1.5,0.4-1.5,1.6l0,4.7h-2.3V14z"/>
	<path class="st1" d="M158.5,18.7c0-0.5,0-1-0.1-1.5h2.2l0.1,1c0.2-0.3,0.8-1.2,2.4-1.2c1.8,0,2.3,1.1,2.4,1.5
		c0.6-1.2,1.7-1.4,2.5-1.4c1.6,0,2.2,0.9,2.4,1.2c0.4,0.7,0.4,1.6,0.4,2.3V25h-2.3v-4.5c0-0.8-0.1-1.7-1.3-1.7
		c-1.4,0-1.4,1.3-1.4,2.4V25h-2.3v-4.6c0-0.6,0-1.7-1.3-1.7c-1.4,0-1.4,1.2-1.4,1.7V25h-2.3V18.7z"/>
	<path class="st1" d="M176.5,17.1c2.8,0,4,1.9,4,4.1c0,2.2-1.3,4.1-4.1,4.1c-2.2,0-3.9-1.4-3.9-4.1
		C172.5,19.3,173.5,17.1,176.5,17.1z M176.6,23.7c1,0,1.7-0.6,1.7-2.6c0-1-0.2-2.4-1.7-2.4c-1.7,0-1.7,1.9-1.7,2.6
		C174.9,23,175.4,23.7,176.6,23.7z"/>
	<path class="st1" d="M182.2,19.2c0-0.4-0.1-1.5-0.1-1.9h2.1l0,1.5c0.3-0.7,0.8-1.6,2.6-1.5v2c-2.3-0.2-2.4,1-2.4,1.9V25h-2.3V19.2z
		"/>
	<path class="st1" d="M189.5,21.7c0,0.5,0,2.1,1.6,2.1c0.6,0,1.1-0.2,1.3-1.1h2.1c0,0.4-0.1,1-0.7,1.7c-0.6,0.6-1.6,0.9-2.7,0.9
		c-0.7,0-1.9-0.1-2.7-1c-0.7-0.7-1-1.8-1-3c0-1.3,0.3-2.8,1.6-3.7c0.6-0.4,1.3-0.6,2.2-0.6c1.1,0,2.4,0.4,3.1,1.9
		c0.5,1.1,0.5,2.2,0.5,2.8H189.5z M192.4,20.3c0-0.4,0-1.7-1.3-1.7c-1,0-1.4,0.8-1.5,1.7H192.4z"/>
</g>
</svg>
