<?xml version="1.0" encoding="utf-8"?>
<!-- Generator: Adobe Illustrator 22.1.0, SVG Export Plug-In . SVG Version: 6.00 Build 0)  -->
<svg version="1.1" id="Layer_1" xmlns="http://www.w3.org/2000/svg" xmlns:xlink="http://www.w3.org/1999/xlink" x="0px" y="0px"
	 viewBox="0 0 300 50" style="enable-background:new 0 0 300 50;" xml:space="preserve">
<style type="text/css">
	.st0{fill:#FFFFFF;}
</style>
<g>
	<polygon class="st0" points="257.3,16.2 259.6,18.7 255.2,22.9 254,21.6 250.7,24.7 251.9,26 251.3,26.6 249,24.1 257.3,16.2 	"/>
	<polygon class="st0" points="262,30.8 259.6,28.3 264.1,24 265.3,25.3 268.6,22.1 267.4,20.8 268,20.2 270.4,22.8 262,30.8 	"/>
	<polygon class="st0" points="252.3,26.2 254.8,23.9 258.9,28.2 257.7,29.3 260.9,32.6 262.1,31.5 262.6,31.9 260,34.3 252.3,26.2 	
		"/>
	<polygon class="st0" points="266.9,21.2 264.3,23.6 260.2,19.2 261.4,18.1 258.3,14.8 257,16 256.6,15.5 259.2,13 266.9,21.1 
		266.9,21.2 	"/>
	<path class="st0" d="M295.8,29.4l0.1,0.1V33c0,0.4,0,0.7,0.1,0.8c0.1,0.1,0.3,0.2,0.5,0.2h0v0.4H294V34h0c0.2,0,0.4-0.1,0.5-0.2
		c0.1-0.1,0.1-0.4,0.1-0.8v-2.4l-0.6-0.3v-0.2L295.8,29.4L295.8,29.4z"/>
	<path class="st0" d="M294.5,27.5c0-0.2,0.1-0.3,0.2-0.5c0.1-0.1,0.3-0.2,0.5-0.2c0.2,0,0.4,0.1,0.5,0.2c0.1,0.1,0.2,0.3,0.2,0.5
		c0,0.2-0.1,0.4-0.2,0.5c-0.1,0.1-0.3,0.2-0.5,0.2c-0.2,0-0.3-0.1-0.5-0.2C294.6,27.9,294.5,27.7,294.5,27.5L294.5,27.5z"/>
	<path class="st0" d="M292.7,33.9c-0.2,0.1-0.3,0.3-0.6,0.3c-0.2,0.1-0.4,0.1-0.7,0.1c-0.5,0-0.8-0.1-1-0.3
		c-0.2-0.2-0.3-0.6-0.3-1.2v-2.7h-0.7v-0.3l1.6-1.4h0.3v1.1h1.1v0.5h-1.1v2.6c0,0.5,0,0.8,0.1,0.9c0.1,0.1,0.2,0.2,0.4,0.2
		c0.1,0,0.2,0,0.3,0c0.1,0,0.2-0.1,0.3-0.1L292.7,33.9L292.7,33.9z"/>
	<path class="st0" d="M287.5,29.4l0.1,0.1V33c0,0.4,0,0.7,0.1,0.8c0.1,0.1,0.3,0.2,0.5,0.2h0v0.4h-2.6V34h0c0.2,0,0.4-0.1,0.5-0.2
		c0.1-0.1,0.1-0.4,0.1-0.8v-2.4l-0.6-0.3v-0.2L287.5,29.4L287.5,29.4z"/>
	<path class="st0" d="M286.3,27.5c0-0.2,0.1-0.3,0.2-0.5c0.1-0.1,0.3-0.2,0.5-0.2c0.2,0,0.4,0.1,0.5,0.2c0.1,0.1,0.2,0.3,0.2,0.5
		c0,0.2-0.1,0.4-0.2,0.5c-0.1,0.1-0.3,0.2-0.5,0.2c-0.2,0-0.4-0.1-0.5-0.2C286.3,27.9,286.3,27.7,286.3,27.5L286.3,27.5z"/>
	<path class="st0" d="M282.4,31c0-0.4-0.1-0.6-0.2-0.7c-0.1-0.1-0.3-0.2-0.6-0.2v-0.4l2-0.1v3.6c0,0.5,0,1,0.7,0.8l0,0.5l-1.9,0
		v-0.6c-0.4,0.2-0.7,0.4-1,0.4c-0.3,0.1-0.5,0.1-0.8,0.1c-0.5,0-0.9-0.1-1.1-0.4c-0.2-0.3-0.3-0.8-0.3-1.5V31c0-0.3-0.1-0.6-0.2-0.7
		c-0.1-0.1-0.3-0.2-0.6-0.2v-0.4l1.9-0.1v3.1c0,0.5,0.1,0.8,0.2,1c0.1,0.2,0.3,0.2,0.6,0.2c0.2,0,0.3,0,0.5-0.1
		c0.2-0.1,0.4-0.2,0.7-0.3V31L282.4,31z"/>
	<path class="st0" d="M276.8,35.6c0,0.4,0,0.7,0.1,0.8c0.1,0.1,0.3,0.2,0.5,0.2h0.1V37h-2.7v-0.4h0.1c0.3,0,0.4-0.1,0.5-0.2
		c0.1-0.1,0.1-0.4,0.1-0.8v-1.7c-0.2,0.1-0.4,0.3-0.7,0.3c-0.2,0.1-0.4,0.1-0.6,0.1v-0.6c0.1,0,0.1,0,0.2,0c0.1,0,0.3,0,0.5-0.1
		c0.2-0.1,0.3-0.1,0.5-0.2l0,0v-2.4c0-0.4-0.1-0.7-0.3-0.9c-0.2-0.2-0.5-0.3-0.8-0.3c0,0-0.1,0-0.1,0v-0.5c0,0,0.1,0,0.1,0
		c0.3,0,0.6,0,0.8,0.1c0.3,0.1,0.5,0.2,0.7,0.3l0.5-0.3h0.3V35.6L276.8,35.6z M274.4,34.4c-0.1,0-0.1,0-0.2,0
		c-0.7,0-1.3-0.2-1.7-0.6c-0.4-0.4-0.7-1-0.7-1.7c0-0.7,0.3-1.4,0.8-1.9c0.5-0.5,1.1-0.7,1.8-0.8v0.5c-0.4,0-0.6,0.2-0.9,0.5
		c-0.2,0.3-0.4,0.7-0.4,1.3c0,0.6,0.1,1.2,0.4,1.5c0.2,0.3,0.5,0.5,0.8,0.6V34.4L274.4,34.4z"/>
	<path class="st0" d="M270.4,33.5c-0.3,0.3-0.7,0.5-1,0.7c-0.3,0.1-0.6,0.2-1,0.2l0,0v-0.8c0.2,0.1,0.4,0.1,0.6,0.1
		c0.2,0,0.4,0,0.6-0.1c0.2-0.1,0.4-0.2,0.6-0.3L270.4,33.5L270.4,33.5L270.4,33.5z M268.4,29.5c0.1,0,0.1,0,0.2,0
		c0.5,0,0.9,0.2,1.3,0.5c0.3,0.3,0.5,0.8,0.5,1.3h-2v-0.5h0.8l0,0c0-0.3-0.1-0.6-0.2-0.7c-0.1-0.2-0.3-0.3-0.5-0.3c0,0,0,0,0,0V29.5
		L268.4,29.5z M268.4,34.4c-0.6,0-1.1-0.2-1.5-0.7c-0.4-0.4-0.6-1-0.6-1.6c0-0.4,0.1-0.8,0.3-1.2c0.2-0.4,0.4-0.7,0.8-1
		c0.2-0.1,0.4-0.3,0.6-0.3c0.2-0.1,0.3-0.1,0.5-0.1v0.4c-0.2,0-0.4,0.1-0.5,0.3c-0.1,0.2-0.2,0.4-0.3,0.7h0.8v0.5h-0.9
		c0,0.1,0,0.1,0,0.2c0,0.1,0,0.2,0,0.3c0,0.6,0.1,1,0.4,1.4c0.1,0.2,0.3,0.3,0.5,0.4V34.4L268.4,34.4z"/>
</g>
</svg>
