<?xml version="1.0" encoding="utf-8"?>
<!-- Generator: Adobe Illustrator 25.2.1, SVG Export Plug-In . SVG Version: 6.00 Build 0)  -->
<svg version="1.1" id="Layer_1" xmlns="http://www.w3.org/2000/svg" xmlns:xlink="http://www.w3.org/1999/xlink" x="0px" y="0px"
	 viewBox="0 0 300 250" style="enable-background:new 0 0 300 250;" xml:space="preserve">
<style type="text/css">
	.st0{clip-path:url(#SVGID_2_);}
	.st1{clip-path:url(#SVGID_4_);}
	.st2{fill:#009870;}
	.st3{fill:#FFFFFF;}
	.st4{clip-path:url(#SVGID_6_);}
	.st5{clip-path:url(#SVGID_8_);}
	.st6{clip-path:url(#SVGID_10_);}
	.st7{clip-path:url(#SVGID_12_);}
</style>
<g id="Layer_2_1_">
	<g id="Layer_1-2">
		<g>
			<g>
				<defs>
					<rect id="SVGID_1_" width="300" height="250"/>
				</defs>
				<clipPath id="SVGID_2_">
					<use xlink:href="#SVGID_1_"  style="overflow:visible;"/>
				</clipPath>
				<g class="st0">
					<g>
						<g>
							<defs>
								<rect id="SVGID_3_" width="300" height="250"/>
							</defs>
							<clipPath id="SVGID_4_">
								<use xlink:href="#SVGID_3_"  style="overflow:visible;"/>
							</clipPath>
							<g class="st1">
								<rect x="210.2" y="160.2" class="st2" width="81.8" height="81.8"/>
								<polygon class="st3" points="223.1,201.6 220.3,201.6 220.3,215 223.1,215 223.1,208.9 228.2,215 231.6,215 225.8,208 
									231.4,201.6 228,201.6 223.1,207.4 								"/>
								<rect x="233.1" y="205.2" class="st3" width="2.7" height="9.8"/>
								<g>
									<g>
										<defs>
											<rect id="SVGID_5_" x="210.2" y="160.2" width="81.8" height="81.8"/>
										</defs>
										<clipPath id="SVGID_6_">
											<use xlink:href="#SVGID_5_"  style="overflow:visible;"/>
										</clipPath>
										<g class="st4">
											<path class="st3" d="M236.1,202.4c0-0.9-0.7-1.6-1.5-1.7c-0.9,0-1.6,0.7-1.7,1.5s0.7,1.6,1.5,1.7l0,0h0.1
												C235.3,204,236,203.3,236.1,202.4L236.1,202.4L236.1,202.4"/>
										</g>
									</g>
								</g>
								<polygon class="st3" points="245.5,205.2 243.4,205.2 241.8,211.5 240.1,205.2 237.4,205.2 240.3,215 242.9,215 244.5,209 
									246.1,215 248.6,215 251.6,205.2 248.9,205.2 247.2,211.5 								"/>
								<rect x="253.1" y="205.2" class="st3" width="2.7" height="9.8"/>
								<g>
									<g>
										<defs>
											<rect id="SVGID_7_" x="210.2" y="160.2" width="81.8" height="81.8"/>
										</defs>
										<clipPath id="SVGID_8_">
											<use xlink:href="#SVGID_7_"  style="overflow:visible;"/>
										</clipPath>
										<g class="st5">
											<path class="st3" d="M256.1,202.4c0-0.9-0.7-1.6-1.5-1.7c-0.9,0-1.6,0.7-1.7,1.5s0.7,1.6,1.5,1.7l0,0h0.1
												C255.3,204,256,203.3,256.1,202.4L256.1,202.4"/>
										</g>
									</g>
								</g>
								<polygon class="st3" points="229.1,217.4 231.4,226.5 233.6,217.4 236.4,217.4 232.9,230.9 230.3,230.9 228,222 
									225.6,230.9 223,230.9 219.5,217.4 222.3,217.4 224.5,226.5 226.9,217.4 								"/>
								<g>
									<g>
										<defs>
											<rect id="SVGID_9_" x="210.2" y="160.2" width="81.8" height="81.8"/>
										</defs>
										<clipPath id="SVGID_10_">
											<use xlink:href="#SVGID_9_"  style="overflow:visible;"/>
										</clipPath>
										<g class="st6">
											<path class="st3" d="M238.7,224.8h3.7c0.1-0.9-0.7-1.7-1.6-1.8h-0.1C239.7,223,238.8,223.8,238.7,224.8 M238.6,226.6
												c0.1,1.4,1.4,2.4,2.8,2.3l0,0c1,0,2-0.3,2.8-0.9v2.2c-1,0.6-2.1,0.9-3.2,0.9c-2.6,0.1-4.9-1.9-5-4.5c0-0.2,0-0.4,0-0.5
												c0-3.1,1.9-5.2,4.6-5.2c2.9,0,4.3,2,4.3,4.9v0.9L238.6,226.6z"/>
											<path class="st3" d="M252.1,227.5c-0.4-0.6-1-0.9-1.7-0.9c-0.9,0-1.7,0.4-1.7,1.2s0.9,1.2,1.7,1.2
												c0.7,0.1,1.4-0.3,1.7-0.9V227.5z M252.1,224.8c0-0.9-0.8-1.5-2.2-1.5c-0.9,0-1.9,0.3-2.7,0.8v-2.4c1-0.5,2.1-0.8,3.3-0.8
												c2.7,0,4.2,1.4,4.2,3.8v6.3h-2.6v-0.5c-0.7,0.5-1.5,0.7-2.4,0.7c-2,0-3.6-1.1-3.6-3.2c0-1.9,1.6-3.1,3.8-3.1
												c0.8,0,1.5,0.2,2.2,0.6V224.8z"/>
										</g>
									</g>
								</g>
								<rect x="256.5" y="216.6" class="st3" width="2.7" height="14.3"/>
								<polygon class="st3" points="265.2,230.9 262.4,230.9 262.4,223.3 260.6,223.3 260.6,221.1 262.4,221.1 262.4,218.4 
									265.2,218.4 265.2,221.1 267.3,221.1 267.3,223.2 265.2,223.2 								"/>
								<g>
									<g>
										<defs>
											<rect id="SVGID_11_" x="210.2" y="160.2" width="81.8" height="81.8"/>
										</defs>
										<clipPath id="SVGID_12_">
											<use xlink:href="#SVGID_11_"  style="overflow:visible;"/>
										</clipPath>
										<g class="st7">
											<path class="st3" d="M268.5,216.6h2.7v5.4c0.7-0.7,1.6-1.1,2.6-1.1c1.8-0.1,3.4,1.3,3.5,3.1c0,0.2,0,0.4,0,0.6v6.4h-2.7
												v-6c0.1-0.8-0.5-1.6-1.3-1.7c-0.1,0-0.2,0-0.3,0c-0.8,0-1.6,0.5-1.8,1.4v6.2h-2.7L268.5,216.6z"/>
											<path class="st3" d="M280.5,227.5c0.9,0,1.7,0.7,1.7,1.7v0.1c-0.1,0.9-0.9,1.7-1.8,1.6c-0.8-0.1-1.5-0.7-1.6-1.6
												S279.4,227.6,280.5,227.5C280.4,227.5,280.4,227.5,280.5,227.5L280.5,227.5"/>
										</g>
									</g>
								</g>
							</g>
						</g>
					</g>
				</g>
			</g>
		</g>
	</g>
</g>
</svg>
