<?xml version="1.0" encoding="utf-8"?>
<!-- Generator: Adobe Illustrator 26.0.1, SVG Export Plug-In . SVG Version: 6.00 Build 0)  -->
<svg version="1.1" id="Layer_1" xmlns="http://www.w3.org/2000/svg" xmlns:xlink="http://www.w3.org/1999/xlink" x="0px" y="0px"
	 viewBox="0 0 160 600" style="enable-background:new 0 0 160 600;" xml:space="preserve">
<style type="text/css">
	.st0{fill:#FFFFFF;}
</style>
<g>
	<g>
		<path class="st0" d="M12,515.7h3.3l2.2,6.1c0.4,1,0.8,2.8,0.8,2.8c0.2-0.9,0.6-1.9,0.9-2.8l2.9-6.3h0.3l3,6.3
			c0.4,0.9,0.7,1.8,1,2.8c0,0,0.4-1.7,0.8-2.8l2.2-6.1h3.1L27,531.1h-0.3l-3.4-7.4c-0.4-0.9-0.9-2.3-0.9-2.3s-0.5,1.4-0.9,2.3
			l-3.6,7.4h-0.3L12,515.7z"/>
		<path class="st0" d="M34.4,515.7h3.1v7.8h6.5v-7.8h3.1V531h-3.1v-4.7h-6.5v4.7h-3.1V515.7z"/>
		<path class="st0" d="M49.8,523.3c0-4.4,3.5-7.9,7.8-8s7.9,3.5,8,7.8c0,4.4-3.5,7.9-7.8,8c0,0-0.1,0-0.1,0
			c-4.3,0.1-7.8-3.3-7.9-7.6C49.8,523.5,49.8,523.4,49.8,523.3z M62.4,523.3c0-2.8-1.9-5-4.7-5s-4.7,2.2-4.7,5s1.9,5,4.7,5
			S62.4,526.2,62.4,523.3z"/>
		<path class="st0" d="M68.5,519c-0.9-0.4-1.3-1.5-0.8-2.4c0.4-0.9,1.5-1.3,2.4-0.8c0.6,0.3,1,0.9,1,1.6c0,0.7-0.3,1.4-0.7,1.9
			l-1.3,2.3h-1.5L68.5,519z"/>
		<path class="st0" d="M73.8,515.7h4.7c4.7,0,8,3.1,8,7.6s-3.3,7.6-8,7.6h-4.7V515.7z M78.3,528.2c3.4,0,4.9-2,4.9-4.9
			s-1.5-4.9-4.9-4.9h-1.4v9.7H78.3z"/>
		<path class="st0" d="M93.7,515.7h3.2v7.8h6.5v-7.8h3.2V531h-3.2v-4.7h-6.5v4.7h-3.2V515.7z"/>
		<path class="st0" d="M115.1,515.6h0.3l7,15.4H119l-0.7-1.7h-6.2l-0.7,1.7h-3L115.1,515.6z M117.2,526.6l-1.1-2.6
			c-0.4-1.1-0.9-2.7-0.9-2.7s-0.4,1.7-0.9,2.7l-1.1,2.7L117.2,526.6z"/>
		<path class="st0" d="M121.1,515.7h3.4l2.6,5.9c0.5,1.1,0.9,2.3,1.2,3.5c0.3-1.2,0.7-2.3,1.2-3.5l2.6-5.9h3.1l-6.7,15.4h-0.3
			L121.1,515.7z"/>
		<path class="st0" d="M136.9,515.7H147v2.8h-7v4.8h6.1v2.7H140v2.2h7.3v2.8h-10.4V515.7z"/>
	</g>
</g>
</svg>
