<?xml version="1.0" encoding="utf-8"?>
<!-- Generator: Adobe Illustrator 26.0.1, SVG Export Plug-In . SVG Version: 6.00 Build 0)  -->
<svg version="1.1" id="Layer_1" xmlns="http://www.w3.org/2000/svg" xmlns:xlink="http://www.w3.org/1999/xlink" x="0px" y="0px"
	 viewBox="0 0 160 600" style="enable-background:new 0 0 160 600;" xml:space="preserve">
<style type="text/css">
	.st0{fill:#FFFFFF;}
</style>
<g>
	<g>
		<path class="st0" d="M43.3,509.5h2.7l1.8,5c0.3,0.9,0.7,2.3,0.7,2.3c0.2-0.8,0.5-1.5,0.8-2.3l2.4-5.2H52l2.5,5.2
			c0.3,0.7,0.6,1.5,0.8,2.3c0,0,0.3-1.4,0.7-2.3l1.8-5h2.5l-4.6,12.7h-0.3l-2.8-6.1c-0.3-0.6-0.5-1.2-0.7-1.9c0,0-0.4,1.2-0.7,1.9
			l-2.9,6.1H48L43.3,509.5z"/>
		<path class="st0" d="M64,509.4h0.2l5.8,12.7h-2.8l-0.6-1.4h-5.1l-0.6,1.4h-2.5L64,509.4z M65.7,518.5l-0.9-2.2
			c-0.4-0.9-0.8-2.3-0.8-2.3c-0.2,0.8-0.5,1.5-0.7,2.3l-0.9,2.2H65.7z"/>
		<path class="st0" d="M75.2,516.2c-0.5-0.5-1-1.1-1.5-1.7c0.1,0.8,0.2,1.5,0.2,2.3v5.3h-2.4v-12.7h0.3l6.3,6c0.5,0.5,1,1.1,1.5,1.7
			c0,0-0.2-1.4-0.2-2.3v-5.3h2.4v12.7h-0.3L75.2,516.2z"/>
		<path class="st0" d="M87,511.8h-3.6v-2.3h9.8v2.3h-3.6v10.3H87V511.8z"/>
		<path class="st0" d="M94.8,509.5h8.3v2.3h-5.7v4h5v2.2h-5v1.8h6v2.3h-8.6V509.5z"/>
		<path class="st0" d="M105.8,509.5h3.9c3.9,0,6.6,2.6,6.6,6.3s-2.7,6.3-6.6,6.3h-3.9V509.5z M109.5,519.8c2.8,0,4.1-1.7,4.1-4
			s-1.3-4-4.1-4h-1.1v8H109.5z"/>
	</g>
</g>
</svg>
