<?xml version="1.0" encoding="utf-8"?>
<!-- Generator: Adobe Illustrator 26.0.1, SVG Export Plug-In . SVG Version: 6.00 Build 0)  -->
<svg version="1.1" id="Layer_1" xmlns="http://www.w3.org/2000/svg" xmlns:xlink="http://www.w3.org/1999/xlink" x="0px" y="0px"
	 viewBox="0 0 160 600" style="enable-background:new 0 0 160 600;" xml:space="preserve">
<style type="text/css">
	.st0{fill:#FFFFFF;}
</style>
<g>
	<g>
		<path class="st0" d="M6.8,541.1c0-1,0.8-1.7,1.7-1.7c1,0,1.7,0.8,1.7,1.7c0,0,0,0,0,0c0,1-0.8,1.7-1.7,1.7
			C7.6,542.9,6.8,542.1,6.8,541.1C6.8,541.1,6.8,541.1,6.8,541.1z"/>
		<path class="st0" d="M15.4,539.9c-0.1-3.2,2.3-5.9,5.5-6c0.2,0,0.3,0,0.5,0c1.5-0.1,3,0.5,4.1,1.6l-1.2,1.2
			c-0.8-0.8-1.8-1.2-2.9-1.2c-2.3,0-4.1,1.8-4.1,4c0,0.1,0,0.2,0,0.3c-0.1,2.3,1.7,4.2,4,4.3c0.1,0,0.2,0,0.4,0c1,0,2-0.2,2.9-0.8
			v-2.1h-3.2v-1.6h4.8v4.5c-1.3,1-2.9,1.5-4.5,1.5c-3.2,0.2-6-2.3-6.2-5.5C15.4,540.2,15.4,540.1,15.4,539.9z"/>
		<path class="st0" d="M28.6,534.1H36v1.6h-5.6v4.5h4.9v1.6h-4.9v2.4h5.8v1.6h-7.6V534.1z"/>
		<path class="st0" d="M41,539c-0.5-0.5-1.1-1.3-1.1-1.3c0.1,0.6,0.1,1.1,0.1,1.7v6.4h-1.7V534h0.2l6.4,6.9c0.4,0.5,1.1,1.3,1.1,1.3
			s-0.1-1-0.1-1.7v-6.4h1.6v11.8h-0.2L41,539z"/>
		<path class="st0" d="M50.3,541.7v-7.5h1.8v7.5c0,1.9,0.9,2.7,2.6,2.7s2.6-0.8,2.6-2.7v-7.5h1.8v7.5c0,2.8-1.9,4.2-4.4,4.2
			S50.3,544.5,50.3,541.7z"/>
		<path class="st0" d="M62,534.1h1.8v11.6H62V534.1z"/>
		<path class="st0" d="M69.2,539c-0.5-0.5-1.1-1.3-1.1-1.3c0.1,0.6,0.1,1.1,0.1,1.7v6.4h-1.7V534h0.2l6.4,6.9
			c0.4,0.5,1.1,1.3,1.1,1.3s-0.1-1-0.1-1.7v-6.4h1.7v11.8h-0.2L69.2,539z"/>
		<path class="st0" d="M78.7,534.1h7.4v1.6h-5.6v4.5h4.9v1.6h-4.9v2.4h5.8v1.6h-7.6V534.1z"/>
		<path class="st0" d="M91.8,539.9c-0.1-3.2,2.5-5.9,5.7-6c0.1,0,0.2,0,0.3,0c1.9-0.1,3.6,0.8,4.7,2.3l-1.4,1
			c-0.7-1.1-2-1.7-3.3-1.7c-2.4,0.2-4.2,2.2-4,4.6c0.1,2.2,1.9,3.9,4,4c1.4,0,2.7-0.7,3.4-1.8l1.4,1c-1.1,1.6-2.9,2.6-4.8,2.5
			c-3.2,0.1-5.9-2.5-6-5.7C91.8,540.1,91.8,540,91.8,539.9z"/>
		<path class="st0" d="M108.4,534h0.2l5.1,11.8h-1.9l-0.7-1.6h-5.3l-0.7,1.6h-1.7L108.4,534z M110.5,542.6l-1.4-3.6
			c-0.2-0.6-0.4-1.1-0.6-1.7c-0.2,0.6-0.3,1.2-0.6,1.7l-1.4,3.6L110.5,542.6z"/>
		<path class="st0" d="M123.4,545.8h-2.1l-2.1-3.1c-0.3,0-0.7,0.1-1,0.1h-1.1v3h-1.8v-11.7h2.9c3.2,0,5,1.7,5,4.3
			c0.1,1.6-0.8,3.1-2.3,3.7L123.4,545.8z M118.2,541.2c2.3,0,3.2-1,3.2-2.7s-1-2.8-3.2-2.8h-1v5.5H118.2z"/>
		<path class="st0" d="M125.6,534.1h7.4v1.6h-5.6v4.5h4.9v1.6h-4.9v2.4h5.8v1.6h-7.6L125.6,534.1z"/>
		<path class="st0" d="M135.4,534.1h7.4v1.6h-5.6v4.5h5v1.6h-5v2.4h5.8v1.6h-7.6L135.4,534.1z"/>
		<path class="st0" d="M153.2,545.8h-2.1l-2.1-3.1c-0.3,0-0.6,0.1-1,0.1h-1.1v3h-1.8v-11.7h2.9c3.2,0,5,1.7,5,4.3
			c0.1,1.6-0.8,3.1-2.3,3.7L153.2,545.8z M147.9,541.2c2.3,0,3.2-1,3.2-2.7s-1-2.8-3.2-2.8h-1v5.5H147.9z"/>
		<path class="st0" d="M56.7,549.1h2.9c3.2,0,5,1.7,5,4.4s-1.8,4.4-5,4.4h-1.1v2.8h-1.8V549.1z M59.6,556.4c2.3,0,3.2-1.1,3.2-2.8
			s-0.9-2.8-3.2-2.8h-1.1v5.7H59.6z"/>
		<path class="st0" d="M69.9,549h0.2l5.1,11.8h-1.9l-0.7-1.6h-5.3l-0.7,1.6h-1.7L69.9,549z M72,557.6l-1.5-3.6
			c-0.2-0.6-0.4-1.1-0.6-1.7c-0.2,0.6-0.3,1.2-0.6,1.7l-1.4,3.6L72,557.6z"/>
		<path class="st0" d="M78.1,550.7h-3.5v-1.6h8.7v1.6h-3.4v10h-1.8V550.7z"/>
		<path class="st0" d="M85,549.1h1.8v6.3h5.6v-6.3h1.8v11.6h-1.8V557h-5.6v3.8H85V549.1z"/>
		<path class="st0" d="M95.9,558.5l1.5-0.8c0.5,1,1.5,1.7,2.7,1.6c1.2,0,2-0.6,2-1.6s-0.7-1.5-2-2l-0.8-0.3
			c-1.7-0.8-2.7-1.6-2.7-3.4c0-1.7,1.3-3,3-3c0.1,0,0.2,0,0.3,0c1.4-0.1,2.7,0.6,3.3,1.8l-1.4,0.9c-0.3-0.7-1.1-1.2-1.9-1.1
			c-0.7-0.1-1.4,0.5-1.5,1.2c0,0,0,0.1,0,0.1c0,0.9,0.5,1.3,1.7,1.8l0.8,0.3c2,0.9,3,1.8,3,3.7c0,2-1.6,3.2-3.8,3.2
			C98.3,561,96.7,560,95.9,558.5z"/>
	</g>
</g>
</svg>
