<?xml version="1.0" encoding="utf-8"?>
<!-- Generator: Adobe Illustrator 26.0.1, SVG Export Plug-In . SVG Version: 6.00 Build 0)  -->
<svg version="1.1" id="Layer_1" xmlns="http://www.w3.org/2000/svg" xmlns:xlink="http://www.w3.org/1999/xlink" x="0px" y="0px"
	 viewBox="0 0 160 600" style="enable-background:new 0 0 160 600;" xml:space="preserve">
<style type="text/css">
	.st0{fill:#FFFFFF;}
</style>
<g>
	<g>
		<path class="st0" d="M12.1,500.6c0-1,0.8-1.7,1.7-1.7s1.7,0.8,1.7,1.7c0,1-0.8,1.7-1.7,1.7C12.9,502.4,12.1,501.6,12.1,500.6
			C12.1,500.7,12.1,500.7,12.1,500.6z"/>
		<path class="st0" d="M20.7,499.5c-0.1-3.2,2.3-5.9,5.5-6c0.2,0,0.3,0,0.5,0c1.5-0.1,3,0.5,4.1,1.6l-1.2,1.2
			c-0.8-0.8-1.8-1.2-2.9-1.1c-2.3,0-4.1,1.8-4.1,4c0,0.1,0,0.2,0,0.3c-0.1,2.3,1.7,4.2,4,4.4c0.1,0,0.3,0,0.4,0c1,0,2-0.2,2.9-0.8
			v-2h-3.2v-1.6h4.8v4.5c-1.3,1-2.9,1.5-4.5,1.5c-3.2,0.2-6-2.3-6.2-5.5C20.7,499.8,20.7,499.6,20.7,499.5z"/>
		<path class="st0" d="M42,505.3h-2.1l-2.1-3.1c-0.3,0-0.7,0.1-1,0.1h-1.1v3h-1.8v-11.6h2.9c3.2,0,5,1.7,5,4.4
			c0.1,1.6-0.8,3.1-2.3,3.7L42,505.3z M36.8,500.7c2.3,0,3.2-1,3.2-2.7s-1-2.8-3.2-2.8h-1v5.5H36.8z"/>
		<path class="st0" d="M44.1,493.6h7.4v1.6H46v4.5h5v1.6h-5v2.4h5.8v1.6h-7.7V493.6z"/>
		<path class="st0" d="M58.2,493.5h0.2l5.1,11.8h-1.9l-0.7-1.6h-5.3l-0.6,1.6h-1.8L58.2,493.5z M60.3,502.1l-1.5-3.6
			c-0.2-0.6-0.4-1.1-0.6-1.7c-0.2,0.6-0.3,1.2-0.6,1.7l-1.5,3.6H60.3z"/>
		<path class="st0" d="M66.4,495.2h-3.5v-1.6h8.7v1.6h-3.5v10h-1.8V495.2z"/>
		<path class="st0" d="M76.2,503l1.5-0.8c0.5,1,1.5,1.7,2.7,1.6c1.2,0,2-0.6,2-1.6s-0.7-1.5-2-2l-0.8-0.4c-1.7-0.8-2.7-1.6-2.7-3.4
			c0-1.7,1.3-3,3-3c0.1,0,0.2,0,0.3,0c1.4-0.1,2.7,0.6,3.3,1.8l-1.4,0.9c-0.3-0.7-1.1-1.2-1.9-1.1c-0.7-0.1-1.4,0.5-1.5,1.2
			c0,0.1,0,0.1,0,0.2c0,0.9,0.5,1.3,1.7,1.8l0.8,0.3c2,0.9,3,1.8,3,3.7c0,2-1.6,3.2-3.8,3.2C78.6,505.5,77,504.5,76.2,503z"/>
		<path class="st0" d="M88.6,495.2h-3.4v-1.6h8.7v1.6h-3.5v10h-1.8V495.2z"/>
		<path class="st0" d="M98.3,493.5h0.2l5.1,11.8h-1.9l-0.7-1.6h-5.3l-0.7,1.6h-1.7L98.3,493.5z M100.4,502.1l-1.4-3.6
			c-0.2-0.6-0.4-1.1-0.6-1.7c-0.2,0.6-0.3,1.2-0.6,1.7l-1.4,3.6H100.4z"/>
		<path class="st0" d="M105.2,493.6h7.2v1.6H107v4.7h5v1.6h-5v3.8h-1.8L105.2,493.6z"/>
		<path class="st0" d="M114.3,493.6h7.2v1.6h-5.4v4.7h4.9v1.6h-4.9v3.8h-1.8V493.6z"/>
		<path class="st0" d="M130,495.2h-3.5v-1.6h8.7v1.6h-3.5v10H130V495.2z"/>
		<path class="st0" d="M135.9,499.5c0-3.3,2.7-6,6-6s6,2.7,6,6s-2.7,6-6,6c-3.2,0.1-5.9-2.5-6-5.7
			C135.9,499.6,135.9,499.5,135.9,499.5z M146,499.5c-0.1-2.3-2.1-4.1-4.3-4c-2.3,0.1-4.1,2.1-4,4.3c0.1,2.2,1.9,4,4.2,4
			c2.3,0,4.1-1.8,4.1-4.1C146,499.6,146,499.5,146,499.5L146,499.5z"/>
		<path class="st0" d="M21,520.2h-2.1l-2.1-3.1c-0.3,0-0.6,0.1-1,0.1h-1.1v3h-1.8v-11.7h2.9c3.2,0,5,1.7,5,4.3
			c0.1,1.6-0.8,3.1-2.3,3.7L21,520.2z M15.8,515.7c2.3,0,3.2-1,3.2-2.7s-1-2.8-3.2-2.8h-1v5.5H15.8z"/>
		<path class="st0" d="M23.2,508.6h7.4v1.6H25v4.5h5v1.6h-5v2.4h5.8v1.6h-7.6V508.6z"/>
		<path class="st0" d="M32.1,518l1.5-0.8c0.5,1,1.5,1.7,2.7,1.6c1.2,0,2-0.6,2-1.6s-0.7-1.5-2-2l-0.8-0.3c-1.7-0.8-2.7-1.6-2.7-3.4
			c0-1.7,1.3-3,3-3c0.1,0,0.2,0,0.3,0c1.4-0.1,2.6,0.6,3.3,1.8l-1.4,0.9c-0.3-0.7-1.1-1.2-1.9-1.1c-0.7-0.1-1.4,0.5-1.5,1.2
			c0,0,0,0.1,0,0.1c0,0.9,0.5,1.3,1.7,1.8l0.8,0.3c2,0.9,3,1.8,3,3.7c0,2-1.6,3.2-3.8,3.2C34.4,520.5,32.8,519.5,32.1,518z"/>
		<path class="st0" d="M42.2,508.6H44v11.6h-1.8L42.2,508.6z"/>
		<path class="st0" d="M46.8,508.6H50c3.7,0,6.2,2.3,6.2,5.8c0,3.5-2.5,5.8-6.2,5.8h-3.2L46.8,508.6z M49.9,518.6
			c3,0,4.5-1.8,4.5-4.2s-1.4-4.2-4.5-4.2h-1.3v8.5H49.9z"/>
		<path class="st0" d="M58.4,508.6h7.4v1.6h-5.6v4.5h4.9v1.6h-4.9v2.4H66v1.6h-7.6V508.6z"/>
		<path class="st0" d="M70.8,513.5c-0.5-0.5-1.1-1.3-1.1-1.3c0.1,0.6,0.1,1.1,0.1,1.7v6.4h-1.7v-11.8h0.2l6.4,6.9
			c0.4,0.5,1.1,1.3,1.1,1.3s-0.1-1-0.1-1.7v-6.4h1.7v11.8h-0.2L70.8,513.5z"/>
		<path class="st0" d="M82.5,510.2h-3.5v-1.6h8.7v1.6h-3.5v10h-1.8V510.2z"/>
		<path class="st0" d="M101.4,520.2h-2.1l-2.1-3.1c-0.3,0-0.7,0.1-1,0.1h-1.1v3h-1.8v-11.7h2.9c3.2,0,5,1.7,5,4.3
			c0.1,1.6-0.8,3.1-2.3,3.7L101.4,520.2z M96.2,515.7c2.3,0,3.2-1,3.2-2.7s-1-2.8-3.2-2.8h-1v5.5H96.2z"/>
		<path class="st0" d="M107.7,508.5h0.2l5.1,11.8h-1.9l-0.7-1.6h-5.3l-0.7,1.6h-1.8L107.7,508.5z M109.8,517.1l-1.5-3.6
			c-0.2-0.6-0.4-1.1-0.6-1.7c-0.2,0.6-0.3,1.2-0.6,1.7l-1.5,3.6H109.8z"/>
		<path class="st0" d="M115.9,510.2h-3.5v-1.6h8.7v1.6h-3.5v10h-1.8V510.2z"/>
		<path class="st0" d="M122.9,508.6h1.8v11.6h-1.8V508.6z"/>
		<path class="st0" d="M126.9,514.4c0-3.3,2.7-6,6-6c3.3,0,6,2.7,6,6s-2.7,6-6,6c-3.2,0.1-5.9-2.5-6-5.7
			C126.9,514.6,126.9,514.5,126.9,514.4z M137,514.4c-0.1-2.3-2.1-4.1-4.3-3.9s-4.1,2.1-3.9,4.3c0.1,2.2,1.9,4,4.2,4
			c2.3,0,4.1-1.8,4.1-4.1C137,514.6,137,514.5,137,514.4L137,514.4z"/>
		<path class="st0" d="M139.9,518l1.5-0.8c0.5,1,1.5,1.6,2.6,1.6c1.2,0,2-0.6,2-1.6s-0.7-1.5-1.9-2l-0.8-0.3
			c-1.7-0.8-2.7-1.6-2.7-3.4c0-1.7,1.3-3,3-3c0.1,0,0.2,0,0.3,0c1.4-0.1,2.7,0.6,3.3,1.8l-1.4,0.9c-0.3-0.7-1.1-1.2-1.9-1.1
			c-0.7-0.1-1.4,0.5-1.5,1.2c0,0.1,0,0.1,0,0.2c0,0.9,0.5,1.3,1.7,1.8l0.8,0.3c2,0.9,3,1.8,3,3.7c0,2-1.6,3.2-3.8,3.2
			C142.2,520.5,140.6,519.5,139.9,518z"/>
	</g>
</g>
</svg>
