<?xml version="1.0" encoding="utf-8"?>
<!-- Generator: Adobe Illustrator 26.0.1, SVG Export Plug-In . SVG Version: 6.00 Build 0)  -->
<svg version="1.1" id="Layer_1" xmlns="http://www.w3.org/2000/svg" xmlns:xlink="http://www.w3.org/1999/xlink" x="0px" y="0px"
	 viewBox="0 0 160 600" style="enable-background:new 0 0 160 600;" xml:space="preserve">
<style type="text/css">
	.st0{clip-path:url(#SVGID_00000054224971181083088550000007907485713038961573_);}
	.st1{fill:#FF6C7C;}
	.st2{fill:#FFFFFF;}
</style>
<g>
	<g>
		<g>
			<defs>
				<rect id="SVGID_1_" y="0" width="160" height="600"/>
			</defs>
			<clipPath id="SVGID_00000171700643379322887600000010833988972039965609_">
				<use xlink:href="#SVGID_1_"  style="overflow:visible;"/>
			</clipPath>
			<g style="clip-path:url(#SVGID_00000171700643379322887600000010833988972039965609_);">
				<path class="st1" d="M21.2,533.6h117.6c3.5,0,6.4,2.9,6.4,6.4v17.6c0,3.5-2.9,6.4-6.4,6.4H21.2c-3.5,0-6.4-2.9-6.4-6.4V540
					C14.8,536.5,17.7,533.6,21.2,533.6z"/>
			</g>
		</g>
		<path class="st2" d="M26.9,543h2.5v9.9h5.5v2.1h-7.9V543z"/>
		<path class="st2" d="M36.5,543h8v2.2H39v3.8h4.8v2.1H39v1.7h5.7v2.1h-8.2V543z"/>
		<path class="st2" d="M51.4,542.8h0.2l5.5,12.2h-2.6l-0.6-1.4H49l-0.5,1.4h-2.4L51.4,542.8z M53,551.6l-0.9-2.1
			c-0.3-0.7-0.5-1.4-0.7-2.2c0,0-0.4,1.3-0.7,2.2l-0.9,2.1H53z"/>
		<path class="st2" d="M67.4,555h-2.9l-2-3c-0.2,0-0.5,0-0.7,0H61v3h-2.5v-12h3.3c3.4,0,5.4,1.6,5.4,4.5c0.1,1.6-0.8,3.1-2.3,3.7
			L67.4,555z M61.8,549.8c2,0,2.9-0.6,2.9-2.3s-0.9-2.4-2.9-2.4H61v4.7H61.8z"/>
		<path class="st2" d="M73,549.4c-0.5-0.5-1-1.1-1.4-1.7c0.1,0.7,0.2,1.5,0.2,2.2v5h-2.3v-12.1h0.2l6.1,5.7c0.5,0.5,1,1.1,1.4,1.7
			c0,0-0.2-1.4-0.2-2.2v-5h2.3v12.1h-0.2L73,549.4z"/>
		<path class="st2" d="M85.4,542.8h0.2l5.9,6.5l5.8-6.5h0.2V555h-2.4v-4.5c0-0.8,0.1-2.1,0.1-2.1c-0.4,0.6-0.8,1.2-1.3,1.7l-2.4,2.7
			h-0.2l-2.4-2.7c-0.6-0.6-1.3-1.7-1.3-1.7s0.1,1.3,0.1,2.1v4.5h-2.4V542.8z"/>
		<path class="st2" d="M99.7,549c0-3.4,2.7-6.3,6.2-6.3s6.3,2.7,6.3,6.2s-2.7,6.3-6.2,6.3c0,0,0,0-0.1,0c-3.4,0.1-6.2-2.6-6.2-6
			C99.7,549.1,99.7,549.1,99.7,549z M109.6,549c-0.2-2-2-3.6-4-3.4c-2,0.2-3.6,2-3.4,4c0.2,1.9,1.8,3.4,3.7,3.4c2,0,3.7-1.7,3.7-3.7
			C109.6,549.2,109.6,549.1,109.6,549z"/>
		<path class="st2" d="M123.1,555h-2.9l-2-3c-0.2,0-0.5,0-0.7,0h-0.8v3h-2.5v-12h3.3c3.4,0,5.4,1.6,5.4,4.5c0.1,1.6-0.8,3.1-2.3,3.7
			L123.1,555z M117.5,549.8c2,0,2.9-0.6,2.9-2.3s-0.9-2.4-2.9-2.4h-0.8v4.7H117.5z"/>
		<path class="st2" d="M125.1,543h8v2.2h-5.5v3.8h4.8v2.1h-4.8v1.7h5.7v2.1h-8.2L125.1,543z"/>
	</g>
</g>
</svg>
