<?xml version="1.0" encoding="utf-8"?>
<!-- Generator: Adobe Illustrator 26.0.3, SVG Export Plug-In . SVG Version: 6.00 Build 0)  -->
<svg version="1.1" id="Layer_1" xmlns="http://www.w3.org/2000/svg" xmlns:xlink="http://www.w3.org/1999/xlink" x="0px" y="0px"
	 viewBox="0 0 970 250" style="enable-background:new 0 0 970 250;" xml:space="preserve">
<style type="text/css">
	.st0{fill:#FFFFFF;}
</style>
<g>
	<g>
		<path class="st0" d="M49.9,59c0,3.6-0.4,6.3-1.3,7.9c-0.9,1.6-2.6,2.5-4.4,2.4h-6.1c-0.9,0-1.5-0.3-1.6-0.9
			c-0.1-0.4-0.1-0.8-0.1-1.3v-1.7c0-1.1,0.2-1.8,0.7-1.9c0.3-0.1,0.7-0.1,1-0.1H42c1.2,0,1.8-1.5,1.8-4.5c0-3-0.6-4.6-1.8-4.6h-3.5
			c-1.2,0-1.7-0.5-1.7-1.5V38.3c0-1.5,0.5-2.3,1.6-2.3h9.3c1.1,0,1.7,0.7,1.7,2.2v1.7c0,1.4-0.5,2-1.6,2h-4.4c-0.2,0-0.4,0-0.6,0.1
			c-0.2,0.3-0.2,0.6-0.2,0.9v4.6c0,0.6,0.2,0.9,0.7,0.9h1c1.5-0.1,3,0.6,3.9,1.8C49.3,51.7,49.9,54.7,49.9,59z"/>
		<path class="st0" d="M66.8,52.7c0,7.1-0.5,11.7-1.4,13.8c-0.9,2.2-3.1,3.3-6.5,3.3c-3.3,0-5.5-1.1-6.5-3.3s-1.3-6.7-1.3-13.8
			s0.4-11.7,1.3-13.8s3.1-3.3,6.5-3.3s5.5,1.1,6.5,3.3S66.8,45.6,66.8,52.7z M60.9,52.7c0.1-3.1,0-6.1-0.3-9.2
			c-0.2-1.1-0.8-1.6-1.7-1.6c-0.9,0-1.5,0.5-1.7,1.6c-0.3,3.1-0.4,6.1-0.3,9.2c-0.1,3.1,0,6.1,0.3,9.1c0.2,1.1,0.8,1.6,1.7,1.6
			s1.5-0.5,1.7-1.6C60.9,58.8,61,55.8,60.9,52.7z"/>
		<path class="st0" d="M89.6,67.2c0,1.1-0.2,1.8-0.5,2c-0.3,0.2-0.7,0.2-1.1,0.2h-2.7c-0.5,0-1-0.2-1.3-0.6c-0.2-0.5-0.3-1-0.2-1.5
			V53.7c0-0.8-0.1-1.2-0.2-1.2s-0.3,0.4-0.4,1.1l-2,9.9C81,64.5,80,65.2,79,65c-0.8-0.1-1.4-0.7-1.5-1.5l-2-9.9
			c-0.2-0.7-0.3-1.1-0.5-1.1s-0.2,0.4-0.2,1.2v13.5c0,0.5,0,1.1-0.2,1.5c-0.3,0.4-0.8,0.6-1.4,0.6h-2.7c-0.9,0-1.4-0.3-1.6-0.8
			c-0.1-0.4-0.1-0.9-0.1-1.3V38c-0.1-0.6,0.1-1.1,0.3-1.6c0.2-0.3,0.6-0.4,1.3-0.4h2.7c0.5,0,1.1,0,1.6,0.3c0.4,0.3,0.6,0.8,0.7,1.3
			l3.3,12c0.1,0.3,0.2,0.4,0.4,0.4s0.3-0.2,0.4-0.4l3.3-12c0.1-0.5,0.3-0.9,0.7-1.3c0.5-0.2,1-0.3,1.6-0.3H88c0.5-0.1,1,0.1,1.3,0.4
			c0.2,0.5,0.3,1.1,0.3,1.6L89.6,67.2z"/>
		<path class="st0" d="M112.9,67.2c0,1.1-0.2,1.8-0.5,2c-0.3,0.2-0.7,0.2-1.1,0.2h-2.7c-0.5,0.1-1-0.1-1.4-0.6
			c-0.2-0.5-0.3-1-0.2-1.5V53.7c0-0.8-0.1-1.2-0.2-1.2s-0.3,0.4-0.4,1.1l-2,9.9c-0.2,1-1.1,1.7-2.1,1.5c-0.8-0.1-1.4-0.7-1.5-1.5
			l-2-9.9c-0.2-0.7-0.3-1.1-0.5-1.1s-0.2,0.4-0.2,1.2v13.5c0,0.5,0,1.1-0.2,1.5c-0.3,0.4-0.8,0.6-1.4,0.6h-2.6
			c-0.9,0-1.4-0.3-1.6-0.8c-0.1-0.4-0.1-0.9-0.1-1.3V38c-0.1-0.6,0.1-1.1,0.3-1.6c0.2-0.3,0.6-0.4,1.3-0.4h2.7c0.5,0,1.1,0,1.6,0.3
			c0.4,0.3,0.6,0.8,0.7,1.3l3.3,12c0.1,0.3,0.2,0.4,0.4,0.4s0.3-0.2,0.4-0.4l3.3-12c0.1-0.5,0.3-0.9,0.7-1.3c0.5-0.2,1-0.3,1.6-0.3
			h2.8c0.7,0,1.1,0.2,1.3,0.4c0.2,0.5,0.3,1.1,0.3,1.6L112.9,67.2z"/>
		<path class="st0" d="M138.1,60.3c0,6-1.8,9-5.4,9h-9c-0.7,0-1.2-0.2-1.4-0.7c-0.2-0.5-0.3-1-0.2-1.5v-29c0-1.4,0.5-2.2,1.6-2.2h9
			c1.7-0.1,3.4,0.8,4.1,2.4c0.7,1.9,1,4,0.9,6c0,3.9-0.9,6.5-2.7,7.5C137,52.8,138,55.6,138.1,60.3z M131.8,45.5
			c0-0.8,0-1.7-0.3-2.5c-0.3-0.8-1-1.3-1.8-1.2h-1c-0.4,0-0.6,0.1-0.7,0.2c-0.1,0.2-0.2,0.5-0.1,0.8v5.2c0,0.7,0.3,1,0.8,1h1
			c0.8,0.1,1.6-0.4,1.9-1.2C131.7,47.2,131.8,46.4,131.8,45.5L131.8,45.5z M132.1,59.3c0.1-1.2-0.1-2.4-0.6-3.5
			c-0.4-0.6-1.1-0.9-1.8-0.8h-1c-0.4,0-0.6,0.1-0.8,0.3c-0.1,0.2-0.1,0.5-0.1,0.7v6.4c0,0.7,0.3,1,0.8,1h1c0.9,0.1,1.9-0.4,2.2-1.3
			C132.1,61.2,132.2,60.2,132.1,59.3z"/>
		<path class="st0" d="M155.8,59.8c0,3.2-0.5,5.5-1.4,7c-1.3,1.9-3.5,2.9-6.7,2.9s-5.3-0.8-6.5-2.5c-1-1.4-1.5-3.8-1.5-7.2V38.2
			c0-0.6,0.1-1.1,0.3-1.6c0.4-0.4,0.9-0.6,1.5-0.6h2.6c0.5-0.1,1,0.2,1.3,0.6c0.2,0.5,0.3,1,0.2,1.5v22.8c0,1.7,0.7,2.6,2.2,2.6
			s2.1-0.9,2.1-2.6V38c-0.1-0.6,0.1-1.1,0.3-1.6c0.2-0.3,0.6-0.4,1.3-0.4h2.8c0.8,0,1.3,0.2,1.4,0.7c0.1,0.4,0.1,0.9,0.1,1.3V59.8z"
			/>
		<path class="st0" d="M171.2,40c0.1,0.5,0,1.1-0.4,1.6c-0.4,0.3-0.8,0.4-1.3,0.3h-3.8c-0.9-0.1-1.7,0.6-1.7,1.5
			c-0.3,3.1-0.4,6.3-0.3,9.4c0,4.7,0,6.8-0.1,6.2c0.2,3,0.9,4.5,2,4.5h3.9c1.1,0,1.6,0.6,1.6,1.7v2.4c0,1.2-0.5,1.8-1.5,1.8h-5.9
			c-2.5,0-4.2-1-4.9-3s-1.1-6.3-1.1-13c0-10.4,0-12.7-0.1-6.9c-0.1-2.4,0.3-4.8,1.1-7.1c0.7-2,2.6-3.3,4.7-3.3h6.2
			c1,0,1.6,0.6,1.6,1.8V40z"/>
		<path class="st0" d="M189.9,36.6c0,0.2,0,0.4-0.1,0.6l-5,9.6c-0.2,0.3-0.3,0.7-0.3,1c0,0.3,0,0.7,0.1,1l5.1,19.1
			c0.1,0.3,0.1,0.5,0.1,0.8c0,0.4-0.3,0.7-0.9,0.7h-4.1c-0.7,0-1.2-0.5-1.4-1.4l-2.3-11.1c-0.2-1-0.4-1.6-0.6-1.6s-0.8,0.7-1.5,2
			c-0.3,0.9-0.5,1.9-0.4,2.8v7.1c0,0.6,0,1.1-0.3,1.6c-0.2,0.3-0.7,0.5-1.4,0.5h-2.5c-0.5,0-0.9-0.1-1.3-0.3
			c-0.4-0.5-0.5-1.2-0.4-1.9V38.2c0-1.5,0.6-2.2,1.7-2.2h2.7c1,0,1.6,0.8,1.6,2.2v7.4c0,0.3,0.1,0.5,0.2,0.6s0.4-0.2,0.6-0.6
			l3.7-7.8c0.2-0.5,0.5-1,0.8-1.5c0.3-0.3,0.7-0.4,1.1-0.4h4.4c0.3,0,0.6,0.2,0.6,0.5C189.9,36.5,189.9,36.6,189.9,36.6z"/>
		<path class="st0" d="M205,67.2c0,1.4-0.6,2.2-1.7,2.2h-10.2c-0.8,0-1.3-0.2-1.5-0.7c-0.2-0.5-0.2-1-0.2-1.5V38.2
			c0-1.5,0.6-2.2,1.7-2.2h9.9c0.4,0,0.8,0.1,1.2,0.3c0.3,0.2,0.4,0.8,0.4,1.7v1.9c0,1.1-0.2,1.8-0.7,2c-0.3,0.1-0.6,0.2-0.9,0.2
			h-4.9c-0.5,0-0.7,0.1-0.8,0.3c-0.1,0.2-0.1,0.5-0.1,0.8v4.6c0,0.3,0,0.6,0.1,0.9c0.2,0.1,0.5,0.2,0.8,0.2h2.5c1,0,1.4,0.6,1.4,1.7
			v2.5c0,1.1-0.5,1.7-1.4,1.7h-2.5c-0.3,0-0.5,0-0.8,0.2c-0.1,0.2-0.2,0.4-0.1,0.6v7c0,0.7,0.4,1.1,1.1,1.1h4.9
			c1.2,0,1.8,0.7,1.8,2.2V67.2z"/>
		<path class="st0" d="M220.7,39.9c0,1.2-0.3,1.8-0.9,2c-0.2,0.1-0.4,0.1-0.7,0.1h-2.6c-0.4,0-0.7,0.3-0.7,1v24.2
			c0,0.6-0.1,1.2-0.3,1.7c-0.2,0.3-0.6,0.5-1.3,0.5h-2.6c-0.9,0-1.4-0.3-1.6-1c-0.1-0.3-0.1-0.7-0.1-1V42.9c0-0.7-0.2-1-0.7-1h-2.6
			c-0.4,0-0.8-0.1-1.1-0.3c-0.3-0.5-0.5-1.1-0.4-1.7v-1.7c0-1.1,0.2-1.8,0.6-2c0.3-0.1,0.7-0.2,1-0.2h12.2c1.1,0,1.6,0.7,1.6,2
			L220.7,39.9z"/>
		<path class="st0" d="M241.7,40c0.1,0.5-0.1,1.1-0.4,1.6c-0.4,0.3-0.8,0.4-1.3,0.3h-3.8c-0.9-0.1-1.7,0.6-1.8,1.5
			c-0.3,3.1-0.4,6.3-0.3,9.4c0,4.7,0,6.8-0.1,6.2c0.2,3,0.9,4.5,2,4.5h3.9c1.1,0,1.6,0.6,1.6,1.7v2.4c0,1.2-0.5,1.8-1.5,1.8h-5.9
			c-2.5,0-4.2-1-4.9-3c-0.7-2-1.1-6.3-1.1-13c0-10.4,0-12.7-0.1-6.9c-0.1-2.4,0.3-4.8,1.1-7.1c0.7-2,2.6-3.4,4.8-3.3h6.2
			c1,0,1.6,0.6,1.6,1.8L241.7,40z"/>
		<path class="st0" d="M259,59.8c0,3.2-0.5,5.5-1.4,7c-1.3,1.9-3.5,2.9-6.7,2.9s-5.3-0.8-6.5-2.5c-1-1.4-1.5-3.8-1.5-7.2V38.2
			c0-0.6,0.1-1.1,0.3-1.6c0.4-0.4,0.9-0.6,1.5-0.6h2.6c0.5-0.1,1,0.2,1.3,0.6c0.2,0.5,0.3,1,0.2,1.5v22.8c0,1.7,0.7,2.6,2.2,2.6
			s2.1-0.9,2.1-2.6V38c-0.1-0.6,0.1-1.1,0.3-1.6c0.2-0.3,0.6-0.4,1.3-0.4h2.8c0.8,0,1.3,0.2,1.4,0.7c0.1,0.4,0.1,0.9,0.1,1.3V59.8z"
			/>
		<path class="st0" d="M275.6,39.9c0,1.2-0.3,1.8-0.9,2c-0.2,0.1-0.4,0.1-0.7,0.1h-2.6c-0.4,0-0.7,0.3-0.7,1v24.2
			c0,0.6-0.1,1.2-0.3,1.7c-0.2,0.3-0.6,0.5-1.3,0.5h-2.6c-0.9,0-1.4-0.3-1.6-1c-0.1-0.4-0.1-0.7-0.1-1.1V42.9c0-0.7-0.2-1-0.7-1
			h-2.6c-0.4,0-0.8-0.1-1.1-0.3c-0.3-0.5-0.5-1.1-0.4-1.7v-1.7c0-1.1,0.2-1.8,0.6-2c0.3-0.1,0.7-0.2,1-0.2H274c1.1,0,1.6,0.7,1.6,2
			L275.6,39.9z"/>
		<path class="st0" d="M291.3,39.9c0,1.2-0.3,1.8-0.9,2c-0.2,0.1-0.4,0.1-0.7,0.1h-2.6c-0.4,0-0.7,0.3-0.7,1v24.2
			c0.1,0.6-0.1,1.2-0.3,1.7c-0.2,0.3-0.6,0.5-1.3,0.5h-2.6c-0.9,0-1.4-0.3-1.6-1c-0.1-0.4-0.1-0.7-0.1-1.1V42.9c0-0.7-0.2-1-0.7-1
			h-2.6c-0.4,0-0.8-0.1-1.1-0.3c-0.3-0.5-0.5-1.1-0.4-1.7v-1.7c0-1.1,0.2-1.8,0.6-2c0.3-0.1,0.7-0.2,1-0.2h12.2c1.1,0,1.6,0.7,1.6,2
			L291.3,39.9z"/>
		<path class="st0" d="M298.6,67.2c0,0.5,0,1.1-0.3,1.6c-0.2,0.3-0.7,0.5-1.4,0.5h-2.5c-0.5,0.1-0.9-0.1-1.3-0.3
			c-0.3-0.3-0.4-0.9-0.4-1.9V38.2c0-1.5,0.5-2.2,1.7-2.2h2.7c1,0,1.6,0.8,1.6,2.2V67.2z"/>
		<path class="st0" d="M318.2,67.1c0.1,0.7-0.1,1.3-0.5,1.9c-0.4,0.3-0.8,0.4-1.3,0.3h-2.3c-0.4,0-0.9-0.1-1.3-0.3
			c-0.3-0.4-0.6-0.8-0.7-1.3L308,55.4c-0.2-0.5-0.4-0.7-0.6-0.7s-0.2,0.3-0.2,1v11.5c0,1.5-0.5,2.2-1.6,2.2h-2.6
			c-1.2,0-1.8-0.8-1.8-2.2V38.2c-0.1-0.7,0.1-1.3,0.5-1.9c0.4-0.3,0.8-0.4,1.3-0.3h2.3c0.4,0,0.9,0,1.3,0.3c0.3,0.4,0.6,0.8,0.7,1.3
			l4.2,12.4c0.2,0.5,0.4,0.7,0.6,0.7s0.2-0.3,0.2-1V38.2c0-1.5,0.5-2.2,1.5-2.2h2.6c1.2,0,1.8,0.8,1.8,2.2V67.1z"/>
		<path class="st0" d="M336.6,59.6c0,3.5-0.4,6-1.3,7.3c-1.1,1.7-3.2,2.6-6.4,2.6c-3.9,0-6.4-1.3-7.5-4c-0.7-1.9-1-6.1-1-12.6
			s0.3-10.7,0.8-12.5c0.7-2.9,2.3-4.3,4.9-4.3h6.8c0.7,0,1.2,0.2,1.4,0.5c0.3,0.5,0.4,1.1,0.3,1.7v1.6c0,1.5-0.5,2.2-1.6,2.2h-3.6
			c-0.7-0.1-1.5,0.1-2.1,0.4c-0.6,0.9-0.9,1.9-0.8,2.9c-0.1,1.2-0.1,3.8-0.1,7.7v7.3c0,2.1,0.9,3.2,2.6,3.2s2.4-0.9,2.4-2.6v-4.9
			c0-0.9-0.2-1.3-0.6-1.3h-1.4c-0.6,0-0.9-0.5-0.9-1.6v-2.3c-0.1-0.5,0-1.1,0.3-1.5c0.2-0.3,0.8-0.5,1.6-0.5h4.7
			c1,0,1.6,0.7,1.6,2.2L336.6,59.6z"/>
		<path class="st0" d="M358.7,67.2c0,1.4-0.6,2.2-1.7,2.2h-10.2c-0.8,0-1.3-0.2-1.5-0.7c-0.2-0.5-0.2-1-0.2-1.5V38.2
			c0-1.5,0.6-2.2,1.7-2.2h9.9c0.4,0,0.8,0.1,1.2,0.3c0.3,0.2,0.4,0.8,0.4,1.7v1.9c0,1.1-0.2,1.8-0.7,2c-0.3,0.1-0.6,0.2-0.9,0.2
			h-4.9c-0.5,0-0.7,0.1-0.8,0.3c-0.1,0.2-0.1,0.5-0.1,0.8v4.6c0,0.3,0,0.6,0.1,0.9c0.1,0.1,0.3,0.2,0.8,0.2h2.5c1,0,1.4,0.6,1.4,1.7
			v2.5c0,1.1-0.5,1.7-1.4,1.7h-2.5c-0.3,0-0.5,0-0.8,0.2c-0.1,0.2-0.2,0.4-0.1,0.6v7c0,0.7,0.3,1.1,1,1.1h5c1.2,0,1.8,0.7,1.8,2.2
			V67.2z"/>
		<path class="st0" d="M376.3,52.7c0.1,3.6-0.1,7.2-0.5,10.8c-0.3,2.4-1,4-1.9,4.8c-1.1,0.8-2.5,1.2-4,1.1h-8.1
			c-0.9,0-1.4-0.2-1.6-0.6c-0.2-0.5-0.2-1-0.2-1.5V38.2c0-1.5,0.5-2.2,1.6-2.2h8.5c2.4-0.2,4.5,1.4,5.1,3.8
			C376,41.8,376.3,46.1,376.3,52.7z M370.3,53.1c0-4,0-6.7-0.1-7.8c-0.1-1.6-0.3-2.5-0.7-3s-0.9-0.4-2-0.4c-0.5,0-0.9,0-1.4,0.2
			c-0.2,0.2-0.3,0.6-0.3,1.2v18.7c0,0.6,0.1,1,0.3,1.1c0.5,0.2,1,0.3,1.5,0.2c0.6,0.1,1.3-0.1,1.8-0.4c0.5-0.8,0.8-1.8,0.7-2.7
			C370.3,59.1,370.3,56.7,370.3,53.1L370.3,53.1z"/>
		<path class="st0" d="M394.2,59.6c0,3.5-0.4,6-1.3,7.3c-1.1,1.7-3.2,2.6-6.4,2.6c-3.9,0-6.4-1.3-7.5-4c-0.7-1.9-1-6.1-1-12.6
			s0.3-10.7,0.8-12.5c0.7-2.8,2.4-4.3,5-4.3h6.8c0.5-0.1,1,0.1,1.4,0.5c0.3,0.5,0.4,1.1,0.3,1.7v1.6c0,1.5-0.5,2.2-1.6,2.2h-3.6
			c-0.7-0.1-1.5,0.1-2.1,0.4c-0.6,0.9-0.9,1.9-0.8,2.9c-0.1,1.2-0.1,3.7-0.1,7.7v7.3c0,2.1,0.9,3.2,2.6,3.2c1.6,0,2.4-0.9,2.4-2.6
			v-4.9c0-0.9-0.2-1.3-0.6-1.3H387c-0.6,0-0.9-0.5-0.9-1.6v-2.3c-0.1-0.5,0.1-1.1,0.3-1.5c0.4-0.4,1-0.6,1.6-0.5h4.7
			c1,0,1.6,0.7,1.6,2.2L394.2,59.6z"/>
		<path class="st0" d="M409.8,67.2c0,1.4-0.6,2.2-1.7,2.2H398c-0.8,0-1.3-0.2-1.5-0.7c-0.2-0.5-0.2-1-0.2-1.5V38.2
			c0-1.5,0.6-2.2,1.7-2.2h9.9c0.4,0,0.8,0.1,1.2,0.3c0.3,0.2,0.4,0.8,0.4,1.7v1.9c0,1.1-0.2,1.8-0.7,2c-0.3,0.1-0.6,0.2-0.9,0.2H403
			c-0.5,0-0.7,0.1-0.8,0.3c-0.1,0.2-0.1,0.5-0.1,0.8v4.6c0,0.3,0,0.6,0.1,0.9c0.1,0.1,0.3,0.2,0.8,0.2h2.5c1,0,1.4,0.6,1.4,1.7v2.5
			c0,1.1-0.5,1.7-1.4,1.7H403c-0.3,0-0.5,0-0.8,0.2c-0.1,0.2-0.2,0.4-0.2,0.6v7c0,0.7,0.4,1.1,1,1.1h5c1.2,0,1.8,0.7,1.8,2.2
			L409.8,67.2z"/>
		<path class="st0" d="M424.8,64c0,3.6-1.8,5.3-5.4,5.3H412c-0.5,0.1-1-0.1-1.3-0.4c-0.3-0.5-0.4-1.1-0.3-1.6v-1.8
			c0-1,0.2-1.7,0.5-1.9c0.3-0.2,0.7-0.3,1.1-0.2h5.1c0.6,0.1,1.2-0.3,1.3-1c0-0.1,0-0.2,0-0.3c0-0.4-0.1-0.8-0.3-1.1l-5.7-10.6
			c-1.4-2.5-2.2-5.4-2.3-8.3c0-2.2,0.5-3.8,1.5-4.7c1-0.9,2.5-1.3,4.7-1.3h5.7c0.9,0,1.4,0.6,1.4,1.8V40c0,1.3-0.5,1.9-1.5,1.9h-4.5
			c-1,0-1.5,0.5-1.5,1.4c0,0.5,0.2,1.1,0.4,1.5l5.4,9.9C423.8,58.5,424.8,61.6,424.8,64z"/>
	</g>
</g>
</svg>
