<?xml version="1.0" encoding="utf-8"?>
<!-- Generator: Adobe Illustrator 26.0.3, SVG Export Plug-In . SVG Version: 6.00 Build 0)  -->
<svg version="1.1" id="Layer_1" xmlns="http://www.w3.org/2000/svg" xmlns:xlink="http://www.w3.org/1999/xlink" x="0px" y="0px"
	 viewBox="0 0 970 250" style="enable-background:new 0 0 970 250;" xml:space="preserve">
<style type="text/css">
	.st0{fill:#FFFFFF;}
</style>
<g>
	<g>
		<path class="st0" d="M50.2,81.9c0,1.3-0.5,2-1.6,2h-4.6c-0.4,0-0.7,0.1-0.8,0.3c-0.1,0.3-0.1,0.7-0.1,1v4.5c0,0.6,0.2,0.9,0.6,0.9
			h2.8c0.5-0.1,1,0.1,1.3,0.5c0.2,0.5,0.3,1,0.2,1.5v1.8c0,1.4-0.5,2.1-1.6,2.1h-2.5c-0.4,0-0.7,0.1-0.8,0.3c-0.1,0.3-0.1,0.7-0.1,1
			v11.3c0,1.4-0.5,2.1-1.5,2.1h-2.8c-0.8,0-1.3-0.3-1.5-0.8c-0.1-0.4-0.2-0.8-0.2-1.2v-29c0-1.2,0.2-1.8,0.6-2.1
			c0.3-0.1,0.7-0.2,1-0.2h9.5c1.2,0,1.8,0.7,1.8,2.2L50.2,81.9z"/>
		<path class="st0" d="M67.3,94.6c0,6.2-0.3,10.3-1,12.3c-1.1,3.2-3.4,4.8-7,4.8s-5.9-1.6-7.1-4.8c-0.7-2-1-6.1-1-12.3
			s0.3-10.3,1-12.2c1.1-3.2,3.4-4.7,7.1-4.7s6,1.6,7,4.7C67,84.4,67.3,88.5,67.3,94.6z M61.5,94.6c0.1-2.9,0-5.7-0.3-8.6
			c-0.2-1.3-0.9-2-1.9-2s-1.7,0.7-1.9,2c-0.3,2.9-0.4,5.7-0.3,8.6c-0.1,2.9,0,5.8,0.3,8.7c0.2,1.4,0.9,2.1,1.9,2.1s1.7-0.7,1.9-2.1
			C61.4,100.4,61.5,97.5,61.5,94.6z"/>
		<path class="st0" d="M85.5,110.6c0,0.5-0.3,0.7-0.9,0.7h-3.9c-0.7,0-1.2-0.5-1.3-1.4l-2-12c-0.1-0.3-0.2-0.4-0.6-0.4H76
			c-0.4,0-0.5,0.1-0.5,0.4v11.3c0,1.4-0.6,2.1-1.7,2.1h-2.7c-0.8,0-1.3-0.2-1.4-0.7c-0.1-0.5-0.2-0.9-0.2-1.4v-29
			c0-1.5,0.6-2.2,1.7-2.2h7.2c4.6,0,6.8,3.4,6.8,10.3c0,3.5-0.9,6-2.7,7.5l2.9,14.2C85.4,110.2,85.4,110.4,85.5,110.6z M79.4,87.6
			c0-2.4-0.6-3.6-1.7-3.6h-1.6c-0.3,0-0.6,0.2-0.7,0.5c0,0.1,0,0.1,0,0.2v6.1c0,0.6,0.2,0.9,0.5,0.9h1.7
			C78.8,91.6,79.4,90.2,79.4,87.6z"/>
		<path class="st0" d="M109.8,94.7c0.1,3.6-0.1,7.2-0.5,10.8c-0.3,2.4-1,4-1.9,4.8c-1.2,0.8-2.6,1.2-4,1.1h-8.1
			c-0.8,0-1.4-0.2-1.6-0.6c-0.2-0.5-0.2-1-0.2-1.5V80.2c0-1.5,0.5-2.2,1.6-2.2h8.6c2.4-0.2,4.5,1.4,5.1,3.8
			C109.5,83.8,109.8,88.1,109.8,94.7z M103.8,95.1c0-4,0-6.7-0.1-7.8c0.1-1.1-0.2-2.1-0.7-3c-0.6-0.4-1.3-0.5-2-0.4
			c-0.5,0-0.9,0-1.4,0.2c-0.2,0.2-0.3,0.6-0.3,1.2v18.7c0,0.6,0.1,1,0.3,1.1c0.5,0.2,1,0.3,1.6,0.2c0.7,0.1,1.3,0,1.9-0.4
			c0.5-0.8,0.8-1.8,0.7-2.7C103.8,101.1,103.8,98.7,103.8,95.1L103.8,95.1z"/>
		<path class="st0" d="M127.6,94.6c0,6.2-0.3,10.3-1,12.3c-1.1,3.2-3.4,4.8-7,4.8s-5.9-1.6-7.1-4.8c-0.7-2-1-6.1-1-12.3
			s0.3-10.3,1-12.2c1-3.2,3.4-4.7,7.1-4.7s6,1.6,7,4.7C127.3,84.4,127.6,88.5,127.6,94.6z M121.8,94.6c0.1-2.9,0-5.8-0.3-8.6
			c-0.2-1.3-0.9-2-1.9-2s-1.7,0.7-1.9,2c-0.3,2.9-0.4,5.7-0.3,8.6c-0.1,2.9,0,5.8,0.3,8.7c0.2,1.4,0.9,2.1,1.9,2.1s1.7-0.7,1.9-2.1
			C121.8,100.4,121.9,97.5,121.8,94.6z"/>
		<path class="st0" d="M145.6,101.8c0,3.2-0.5,5.5-1.4,7c-1.2,1.9-3.5,2.9-6.7,2.9s-5.3-0.8-6.5-2.5c-1-1.4-1.5-3.8-1.5-7.2V80.2
			c0-0.6,0.1-1.1,0.3-1.6c0.4-0.4,0.9-0.6,1.5-0.6h2.6c0.7,0,1.1,0.2,1.3,0.6c0.2,0.5,0.3,1,0.2,1.5v22.8c0,1.7,0.7,2.6,2.2,2.6
			s2.1-0.9,2.1-2.6V80.1c0-0.6,0.1-1.1,0.3-1.6c0.2-0.3,0.6-0.4,1.3-0.4h2.7c0.8,0,1.3,0.2,1.4,0.7c0.1,0.4,0.1,0.9,0.1,1.3
			L145.6,101.8z"/>
		<path class="st0" d="M163.9,102.3c0,6-1.8,9-5.4,9h-9c-0.7,0-1.2-0.2-1.4-0.7c-0.2-0.5-0.3-1-0.2-1.5v-29c0-1.4,0.5-2.2,1.6-2.2h9
			c1.7-0.1,3.4,0.8,4.1,2.4c0.7,1.9,1,4,0.9,6c0,3.9-0.9,6.5-2.7,7.5C162.9,94.8,163.9,97.6,163.9,102.3z M157.6,87.5
			c0-0.8,0-1.7-0.3-2.4c-0.3-0.8-1-1.3-1.8-1.2h-0.9c-0.4,0-0.6,0.1-0.7,0.2c-0.1,0.2-0.2,0.5-0.1,0.8v5.2c0,0.7,0.3,1,0.9,1h0.9
			c0.8,0.1,1.6-0.4,1.9-1.2C157.6,89.2,157.7,88.4,157.6,87.5z M158,101.3c0.1-1.2-0.1-2.4-0.6-3.5c-0.4-0.6-1.1-0.9-1.8-0.8h-0.9
			c-0.4,0-0.6,0.1-0.8,0.3c-0.1,0.2-0.1,0.5-0.1,0.7v6.4c0,0.7,0.3,1,0.9,1h0.9c0.9,0.1,1.9-0.4,2.2-1.3
			C157.9,103.2,158,102.2,158,101.3L158,101.3z"/>
		<path class="st0" d="M178.3,109.2c0,1.4-0.6,2.2-1.9,2.2h-8.9c-0.7,0-1.2-0.2-1.4-0.5c-0.2-0.5-0.3-1.1-0.3-1.7v-29
			c0-1.4,0.6-2.2,1.7-2.2h2.6c0.5-0.1,1.1,0.1,1.4,0.6c0.2,0.5,0.3,1,0.2,1.6v24.2c0,0.7,0.3,1,0.8,1h4.1c1.1,0,1.7,0.7,1.7,2.1
			L178.3,109.2z"/>
		<path class="st0" d="M193.4,109.2c0,1.4-0.6,2.2-1.7,2.2h-10.2c-0.8,0-1.3-0.2-1.5-0.7c-0.2-0.5-0.2-1-0.2-1.5V80.2
			c0-1.5,0.6-2.2,1.7-2.2h9.9c0.4,0,0.8,0.1,1.2,0.3c0.3,0.2,0.4,0.8,0.4,1.7v1.9c0,1.1-0.2,1.8-0.7,2c-0.3,0.1-0.6,0.2-0.9,0.2
			h-4.9c-0.5,0-0.7,0.1-0.8,0.3c-0.1,0.2-0.1,0.5-0.1,0.8v4.6c0,0.3,0,0.6,0.1,0.9c0.1,0.1,0.3,0.2,0.8,0.2h2.5c1,0,1.4,0.6,1.4,1.7
			V95c0,1.1-0.5,1.7-1.4,1.7h-2.5c-0.3,0-0.5,0-0.8,0.2c-0.1,0.2-0.2,0.4-0.2,0.6v7c0,0.7,0.4,1.1,1,1.1h5c1.2,0,1.8,0.7,1.8,2.2
			L193.4,109.2z"/>
		<path class="st0" d="M215.8,81.9c0,1.2-0.3,1.8-0.9,2c-0.2,0.1-0.4,0.1-0.7,0.1h-2.6c-0.4,0-0.7,0.3-0.7,1v24.2
			c0.1,0.6-0.1,1.2-0.3,1.7c-0.2,0.3-0.6,0.5-1.3,0.5h-2.6c-0.9,0-1.4-0.3-1.6-1c-0.1-0.4-0.1-0.7-0.1-1.1V84.9c0-0.7-0.2-1-0.7-1
			h-2.6c-0.4,0-0.8-0.1-1.1-0.3c-0.3-0.5-0.5-1.1-0.4-1.7v-1.7c0-1.1,0.2-1.8,0.6-2c0.3-0.1,0.7-0.2,1-0.2h12.2c1.1,0,1.6,0.7,1.6,2
			L215.8,81.9z"/>
		<path class="st0" d="M233.5,109.2c0,1.5-0.6,2.2-1.7,2.2h-2.6c-1,0-1.6-0.7-1.6-2.2V97.7c0-0.7-0.3-1.1-0.8-1.1h-3
			c-0.5,0-0.8,0.3-0.8,1.1v11.5c0,1.4-0.5,2.2-1.6,2.2h-2.6c-1.1,0-1.7-0.7-1.7-2.2v-29c0-1.4,0.6-2.2,1.7-2.2h2.7
			c1,0,1.5,0.7,1.5,2.1v9.6c0,0.7,0.3,1,0.8,1h3.1c0.5,0,0.7-0.3,0.7-1v-9.6c0-1.4,0.5-2.1,1.5-2.1h2.7c1.1,0,1.7,0.7,1.7,2.2V109.2
			z"/>
		<path class="st0" d="M249.7,109.2c0,1.4-0.6,2.2-1.7,2.2h-10.2c-0.8,0-1.3-0.2-1.5-0.7c-0.2-0.5-0.2-1-0.2-1.5V80.2
			c0-1.5,0.6-2.2,1.7-2.2h9.9c0.4,0,0.8,0.1,1.2,0.3c0.3,0.2,0.4,0.8,0.4,1.7v1.9c0,1.1-0.2,1.8-0.7,2c-0.3,0.1-0.6,0.2-0.9,0.2
			h-4.9c-0.5,0-0.7,0.1-0.8,0.3c-0.1,0.2-0.1,0.5-0.1,0.8v4.6c0,0.3,0,0.6,0.1,0.9c0.1,0.1,0.3,0.2,0.8,0.2h2.5c1,0,1.4,0.6,1.4,1.7
			V95c0,1.1-0.5,1.7-1.4,1.7h-2.5c-0.3,0-0.5,0-0.8,0.2c-0.1,0.2-0.2,0.4-0.2,0.6v7c0,0.7,0.4,1.1,1.1,1.1h5c1.2,0,1.8,0.7,1.8,2.2
			L249.7,109.2z"/>
		<path class="st0" d="M270.2,109.2c0,1.4-0.6,2.2-1.9,2.2h-8.9c-0.7,0-1.2-0.2-1.4-0.5c-0.2-0.5-0.3-1.1-0.3-1.7v-29
			c0-1.4,0.5-2.2,1.7-2.2h2.6c0.5-0.1,1.1,0.1,1.4,0.6c0.2,0.5,0.3,1,0.2,1.6v24.2c0,0.7,0.3,1,0.8,1h4.1c1.1,0,1.7,0.7,1.7,2.1
			L270.2,109.2z"/>
		<path class="st0" d="M277.6,109.2c0,0.6,0,1.1-0.3,1.6c-0.2,0.3-0.7,0.5-1.4,0.5h-2.5c-0.5,0.1-0.9-0.1-1.3-0.3
			c-0.4-0.5-0.5-1.2-0.4-1.9V80.2c0-1.5,0.5-2.2,1.7-2.2h2.6c1,0,1.6,0.8,1.6,2.2L277.6,109.2z"/>
		<path class="st0" d="M293.1,81.9c0,1.3-0.5,2-1.6,2H287c-0.4,0-0.7,0.1-0.8,0.3c-0.1,0.3-0.1,0.7-0.1,1v4.5c0,0.6,0.2,0.9,0.6,0.9
			h2.8c0.7,0,1.1,0.2,1.3,0.5c0.2,0.5,0.2,1,0.2,1.5v1.8c0,1.4-0.5,2.1-1.6,2.1H287c-0.4,0-0.7,0.1-0.8,0.3c-0.1,0.3-0.1,0.7-0.1,1
			v11.3c0,1.4-0.5,2.1-1.5,2.1h-2.8c-0.8,0-1.3-0.3-1.5-0.8c-0.1-0.4-0.2-0.8-0.1-1.2v-29c0-1.2,0.2-1.8,0.6-2.1
			c0.3-0.1,0.7-0.2,1-0.2h9.5c1.2,0,1.8,0.7,1.8,2.2L293.1,81.9z"/>
		<path class="st0" d="M308.1,109.2c0,1.4-0.6,2.2-1.7,2.2h-10.2c-0.8,0-1.3-0.2-1.5-0.7c-0.2-0.5-0.2-1-0.2-1.5V80.2
			c0-1.5,0.6-2.2,1.7-2.2h9.9c0.4,0,0.8,0.1,1.2,0.3c0.3,0.2,0.4,0.8,0.4,1.7v1.9c0,1.1-0.2,1.8-0.7,2c-0.3,0.1-0.6,0.2-0.9,0.2
			h-4.9c-0.5,0-0.7,0.1-0.8,0.3c-0.1,0.2-0.1,0.5-0.1,0.8v4.6c0,0.3,0,0.6,0.1,0.9c0.1,0.1,0.3,0.2,0.8,0.2h2.5c1,0,1.4,0.6,1.4,1.7
			V95c0,1.1-0.5,1.7-1.4,1.7h-2.5c-0.3,0-0.5,0-0.8,0.2c-0.1,0.2-0.2,0.4-0.2,0.6v7c0,0.7,0.4,1.1,1,1.1h5c1.2,0,1.8,0.7,1.8,2.2
			L308.1,109.2z"/>
	</g>
</g>
</svg>
