<?xml version="1.0" encoding="utf-8"?>
<!-- Generator: Adobe Illustrator 26.0.3, SVG Export Plug-In . SVG Version: 6.00 Build 0)  -->
<svg version="1.1" id="Layer_1" xmlns="http://www.w3.org/2000/svg" xmlns:xlink="http://www.w3.org/1999/xlink" x="0px" y="0px"
	 viewBox="0 0 970 250" style="enable-background:new 0 0 970 250;" xml:space="preserve">
<style type="text/css">
	.st0{fill:#FFFFFF;}
</style>
<g>
	<g>
		<path class="st0" d="M42.7,67.2c0,0.6,0,1.1-0.3,1.6c-0.2,0.3-0.7,0.5-1.4,0.5h-2.5c-0.5,0-0.9-0.1-1.3-0.3
			c-0.4-0.5-0.5-1.2-0.4-1.9V38.2c0-1.5,0.6-2.2,1.7-2.2h2.7c1,0,1.6,0.8,1.6,2.2L42.7,67.2z"/>
		<path class="st0" d="M62.3,67.1c0.1,0.7-0.1,1.3-0.5,1.9c-0.4,0.3-0.8,0.4-1.3,0.3h-2.3c-0.4,0-0.8-0.1-1.2-0.2
			c-0.3-0.4-0.6-0.8-0.7-1.3l-4.2-12.5c-0.2-0.5-0.3-0.7-0.6-0.7s-0.2,0.3-0.2,1v11.5c0,1.5-0.5,2.2-1.6,2.2h-2.6
			c-1.2,0-1.8-0.8-1.8-2.2V38.2c-0.1-0.7,0.1-1.3,0.5-1.9c0.4-0.3,0.8-0.4,1.3-0.3h2.3c0.4,0,0.9,0.1,1.3,0.3
			c0.3,0.4,0.6,0.8,0.7,1.3l4.2,12.4c0.2,0.5,0.3,0.7,0.6,0.7s0.2-0.3,0.2-1V38.2c0-1.5,0.5-2.2,1.5-2.2h2.6c1.2,0,1.8,0.8,1.8,2.2
			V67.1z"/>
		<path class="st0" d="M79.2,39.9c0,1.2-0.3,1.8-0.9,2c-0.2,0.1-0.4,0.1-0.7,0.1H75c-0.4,0-0.7,0.3-0.7,1v24.2
			c0,0.6-0.1,1.2-0.3,1.7c-0.2,0.3-0.6,0.5-1.3,0.5h-2.6c-0.9,0-1.4-0.3-1.6-1c-0.1-0.4-0.1-0.7-0.1-1.1V42.9c0-0.7-0.2-1-0.7-1
			h-2.6c-0.4,0-0.8-0.1-1.1-0.3c-0.3-0.5-0.5-1.1-0.4-1.7v-1.7c0-1.1,0.2-1.8,0.6-2c0.3-0.1,0.7-0.2,1-0.2h12.2c1.1,0,1.6,0.7,1.6,2
			V39.9z"/>
		<path class="st0" d="M96.6,68.6c0,0.5-0.3,0.7-0.9,0.7h-3.9c-0.7,0-1.2-0.5-1.3-1.4l-2-12c0-0.3-0.3-0.4-0.6-0.4h-0.7
			c-0.4,0-0.5,0.1-0.5,0.4v11.3c0,1.4-0.6,2.1-1.7,2.1h-2.7c-0.8,0-1.3-0.2-1.4-0.7c-0.1-0.5-0.2-0.9-0.2-1.4V38.2
			c0-1.5,0.6-2.2,1.7-2.2h7.2c4.6,0,6.8,3.4,6.8,10.3c0,3.5-0.9,6-2.7,7.5L96.5,68C96.6,68.2,96.6,68.4,96.6,68.6z M90.5,45.5
			c0-2.4-0.6-3.6-1.7-3.6h-1.6c-0.3,0-0.6,0.2-0.7,0.5c0,0.1,0,0.1,0,0.2v6.1c0,0.6,0.2,0.9,0.5,0.9h1.7
			C89.9,49.5,90.5,48.2,90.5,45.5z"/>
		<path class="st0" d="M113.8,52.6c0,6.2-0.3,10.3-1,12.3c-1.1,3.2-3.4,4.8-7,4.8c-3.6,0-6-1.6-7.1-4.8c-0.7-2-1-6.1-1-12.3
			c0-6.2,0.3-10.3,1-12.2c1.1-3.1,3.4-4.7,7.1-4.7c3.6,0,6,1.6,7,4.7C113.4,42.4,113.8,46.5,113.8,52.6z M107.9,52.6
			c0.1-2.9,0-5.7-0.3-8.6c-0.2-1.3-0.9-2-1.9-2s-1.7,0.7-1.9,2c-0.3,2.9-0.4,5.7-0.3,8.6c-0.1,2.9,0,5.8,0.3,8.7
			c0.2,1.4,0.9,2.1,1.9,2.1s1.7-0.7,1.9-2.1C107.9,58.4,108,55.5,107.9,52.6z"/>
		<path class="st0" d="M132.1,52.7c0.1,3.6-0.1,7.2-0.5,10.8c-0.3,2.4-1,4-1.9,4.8c-1.2,0.8-2.6,1.2-4,1.1h-8.1
			c-0.8,0-1.4-0.2-1.6-0.6c-0.2-0.5-0.2-1-0.2-1.5V38.2c0-1.5,0.5-2.2,1.6-2.2h8.5c2.4-0.2,4.5,1.4,5.1,3.8
			C131.7,41.8,132.1,46.1,132.1,52.7z M126.1,53.1c0-4,0-6.7-0.1-7.8c-0.1-1.6-0.3-2.5-0.7-3s-0.9-0.4-2-0.4c-0.5,0-0.9,0-1.4,0.2
			c-0.2,0.2-0.3,0.6-0.3,1.2v18.7c0,0.6,0.1,1,0.3,1.1c0.5,0.2,1,0.3,1.6,0.2c0.6,0.1,1.3-0.1,1.8-0.4c0.5-0.8,0.8-1.8,0.7-2.7
			C126.1,59.1,126.1,56.7,126.1,53.1L126.1,53.1z"/>
		<path class="st0" d="M150,59.8c0,3.2-0.5,5.5-1.4,7c-1.2,1.9-3.5,2.9-6.7,2.9s-5.3-0.8-6.5-2.5c-1-1.4-1.5-3.8-1.5-7.2V38.2
			c0-0.6,0.1-1.1,0.3-1.6c0.4-0.4,0.9-0.6,1.5-0.6h2.6c0.5-0.1,1,0.2,1.3,0.6c0.2,0.5,0.3,1,0.2,1.5v22.8c0,1.7,0.7,2.6,2.2,2.6
			s2.1-0.9,2.1-2.6V38c-0.1-0.6,0-1.1,0.3-1.6c0.2-0.3,0.6-0.4,1.3-0.4h2.8c0.8,0,1.3,0.2,1.4,0.7c0.1,0.4,0.1,0.9,0.1,1.3L150,59.8
			z"/>
		<path class="st0" d="M165.4,40c0.1,0.5-0.1,1.1-0.4,1.6c-0.4,0.3-0.8,0.4-1.3,0.3h-3.8c-0.9-0.1-1.7,0.6-1.8,1.5
			c-0.3,3.1-0.4,6.3-0.3,9.4c0,4.7,0,6.8-0.1,6.2c0.2,3,0.9,4.5,2,4.5h3.9c1.1,0,1.6,0.6,1.6,1.7v2.4c0,1.2-0.5,1.8-1.5,1.8h-5.9
			c-2.5,0-4.2-1-4.9-3c-0.7-2-1.1-6.3-1.1-13c0-10.4-0.1-12.7-0.1-6.9c-0.1-2.4,0.3-4.8,1.1-7.1c0.7-2,2.6-3.4,4.7-3.3h6.2
			c1,0,1.6,0.6,1.6,1.8L165.4,40z"/>
		<path class="st0" d="M172.7,67.2c0,0.6,0,1.1-0.3,1.6c-0.2,0.3-0.7,0.5-1.4,0.5h-2.5c-0.5,0.1-0.9-0.1-1.3-0.3
			c-0.3-0.3-0.4-0.9-0.4-1.9V38.2c0-1.5,0.6-2.2,1.7-2.2h2.7c1,0,1.6,0.8,1.6,2.2L172.7,67.2z"/>
		<path class="st0" d="M192.3,67.1c0.1,0.7-0.1,1.4-0.5,1.9c-0.4,0.3-0.8,0.4-1.3,0.3h-2.3c-0.4,0-0.9-0.1-1.3-0.3
			c-0.3-0.4-0.6-0.8-0.7-1.3l-4.2-12.5c-0.2-0.5-0.4-0.7-0.6-0.7s-0.2,0.3-0.2,1v11.5c0,1.5-0.5,2.2-1.6,2.2h-2.6
			c-1.2,0-1.8-0.8-1.8-2.2V38.2c-0.1-0.7,0.1-1.3,0.5-1.9c0.4-0.3,0.8-0.4,1.3-0.3h2.3c0.4,0,0.9,0.1,1.3,0.3
			c0.3,0.4,0.6,0.8,0.7,1.3l4.2,12.4c0.2,0.5,0.4,0.7,0.6,0.7s0.2-0.3,0.2-1V38.2c0-1.5,0.5-2.2,1.5-2.2h2.6c1.2,0,1.8,0.8,1.8,2.2
			L192.3,67.1z"/>
		<path class="st0" d="M210.6,59.6c0,3.5-0.4,6-1.3,7.3c-1.1,1.7-3.2,2.6-6.4,2.6c-3.9,0-6.4-1.3-7.5-4c-0.7-1.9-1.1-6.1-1-12.6
			s0.3-10.7,0.8-12.5c0.7-2.9,2.3-4.3,4.9-4.3h6.8c0.7,0,1.2,0.2,1.4,0.5c0.3,0.5,0.4,1.1,0.3,1.7v1.6c0,1.5-0.5,2.2-1.6,2.2h-3.6
			c-0.7-0.1-1.5,0.1-2.1,0.4c-0.6,0.9-0.9,1.9-0.8,2.9c-0.1,1.2-0.1,3.8-0.1,7.7v7.3c0,2.1,0.9,3.2,2.6,3.2s2.4-0.9,2.4-2.6v-4.9
			c0-0.9-0.2-1.3-0.6-1.3h-1.4c-0.6,0-0.9-0.5-0.9-1.6v-2.3c-0.1-0.5,0-1.1,0.3-1.5c0.2-0.3,0.8-0.5,1.6-0.5h4.7
			c1,0,1.6,0.7,1.6,2.2L210.6,59.6z"/>
		<path class="st0" d="M233.6,39.9c0,1.2-0.3,1.8-0.9,2c-0.2,0.1-0.4,0.1-0.7,0.1h-2.6c-0.4,0-0.7,0.3-0.7,1v24.2
			c0.1,0.6,0,1.2-0.3,1.7c-0.2,0.3-0.6,0.5-1.3,0.5h-2.6c-0.9,0-1.4-0.3-1.6-1c-0.1-0.4-0.1-0.7-0.1-1.1V42.9c0-0.7-0.2-1-0.7-1
			h-2.6c-0.4,0-0.8-0.1-1.1-0.3c-0.3-0.5-0.5-1.1-0.4-1.7v-1.7c0-1.1,0.2-1.8,0.6-2c0.3-0.1,0.7-0.2,1-0.2H232c1.1,0,1.6,0.7,1.6,2
			V39.9z"/>
		<path class="st0" d="M250.6,67.5c0.3,1.2,0,1.9-0.8,1.9h-3.9c-0.7,0-1.3-0.5-1.3-1.2c0,0,0,0,0,0l-1.8-10.3
			c-0.1-0.4-0.2-0.6-0.5-0.6s-0.4,0.2-0.4,0.6l-1.8,10.3c0,0.7-0.6,1.3-1.3,1.3c0,0,0,0,0,0h-3.9c-0.8,0-1-0.6-0.8-1.9l3.3-15.5
			L234,37.8c-0.1-0.3-0.1-0.5-0.1-0.8c0-0.7,0.4-1,1.1-1h3.8c0.7,0,1.1,0.5,1.3,1.3l1.8,9.4c0.1,0.4,0.2,0.7,0.4,0.7
			c0.2,0,0.3-0.2,0.4-0.7l1.8-9.4c0.2-0.9,0.6-1.3,1.3-1.3h3.8c0.8,0,1.1,0.3,1.1,1c0,0.3-0.1,0.5-0.1,0.8L247.3,52L250.6,67.5z"/>
		<path class="st0" d="M274.8,68.6c0,0.5-0.3,0.7-0.9,0.7H270c-0.7,0-1.2-0.5-1.3-1.4l-2-12c0-0.3-0.3-0.4-0.6-0.4h-0.7
			c-0.4,0-0.5,0.1-0.5,0.4v11.3c0,1.4-0.5,2.1-1.7,2.1h-2.7c-0.8,0-1.3-0.2-1.4-0.7c-0.1-0.5-0.2-0.9-0.2-1.4V38.2
			c0-1.5,0.6-2.2,1.7-2.2h7.2c4.5,0,6.8,3.4,6.8,10.3c0,3.5-0.9,6-2.7,7.5l2.9,14.2C274.8,68.2,274.8,68.4,274.8,68.6z M268.7,45.5
			c0-2.4-0.6-3.6-1.7-3.6h-1.6c-0.3,0-0.6,0.2-0.7,0.5c0,0.1,0,0.1,0,0.2v6.1c0,0.6,0.2,0.9,0.5,0.9h1.7
			C268.1,49.5,268.7,48.2,268.7,45.5L268.7,45.5z"/>
		<path class="st0" d="M293.5,68.6c0.1,0.5-0.2,0.8-0.8,0.8H288c-0.5,0-0.7-0.3-0.8-0.9l-1-7.1c0-0.4-0.4-0.8-0.8-0.8c0,0,0,0,0,0
			h-2.1c-0.4,0-0.8,0.3-0.9,0.7c0,0,0,0,0,0.1l-0.8,7.1c0,0.4-0.3,0.8-0.8,0.8c0,0-0.1,0-0.1,0h-4.6c-0.6,0-0.9-0.2-0.9-0.8l4-30.7
			c0-1.1,0.9-1.9,2-1.9c0,0,0.1,0,0.1,0h5.8c1.1,0,1.8,0.7,1.9,2L293.5,68.6z M285.6,54.1l-1-11.5c0-0.5-0.2-0.7-0.4-0.7
			s-0.4,0.3-0.4,0.8L283,54.1c-0.1,0.4,0.1,0.6,0.6,0.6h1.2C285.4,54.7,285.6,54.5,285.6,54.1z"/>
		<path class="st0" d="M311.9,67.1c0.1,0.7-0.1,1.4-0.5,1.9c-0.4,0.3-0.8,0.4-1.3,0.3h-2.3c-0.4,0-0.9-0.1-1.3-0.3
			c-0.3-0.4-0.6-0.8-0.7-1.3l-4.2-12.5c-0.2-0.5-0.4-0.7-0.6-0.7s-0.2,0.3-0.2,1v11.5c0,1.5-0.5,2.2-1.6,2.2h-2.6
			c-1.2,0-1.8-0.8-1.8-2.2V38.2c-0.1-0.7,0.1-1.3,0.5-1.9c0.4-0.3,0.8-0.4,1.3-0.3h2.3c0.4,0,0.9,0.1,1.3,0.3
			c0.3,0.4,0.6,0.8,0.7,1.3l4.2,12.4c0.2,0.5,0.4,0.7,0.6,0.7s0.2-0.3,0.2-1V38.2c0-1.5,0.5-2.2,1.5-2.2h2.6c1.2,0,1.8,0.8,1.8,2.2
			L311.9,67.1z"/>
		<path class="st0" d="M330.2,59.6c0,3.5-0.4,6-1.3,7.3c-1.1,1.7-3.2,2.6-6.4,2.6c-3.9,0-6.4-1.3-7.5-4c-0.7-1.9-1.1-6.1-1.1-12.6
			s0.3-10.7,0.8-12.5c0.7-2.8,2.4-4.3,5-4.3h6.8c0.7,0,1.2,0.2,1.4,0.5c0.3,0.5,0.4,1.1,0.3,1.7v1.6c0,1.5-0.5,2.2-1.6,2.2h-3.6
			c-0.7-0.1-1.5,0.1-2.1,0.4c-0.6,0.9-0.9,1.9-0.8,2.9c-0.1,1.2-0.1,3.7-0.1,7.7v7.3c0,2.1,0.9,3.2,2.6,3.2s2.4-0.9,2.4-2.6v-4.9
			c0-0.9-0.2-1.3-0.6-1.3H323c-0.6,0-0.9-0.5-0.9-1.6v-2.3c-0.1-0.5,0-1.1,0.3-1.5c0.2-0.3,0.8-0.5,1.6-0.5h4.7c1,0,1.6,0.7,1.6,2.2
			V59.6z"/>
		<path class="st0" d="M345.9,67.2c0,1.4-0.6,2.2-1.7,2.2H334c-0.8,0-1.3-0.2-1.5-0.7c-0.2-0.5-0.3-1-0.2-1.5V38.2
			c0-1.5,0.6-2.2,1.7-2.2h9.9c0.4,0,0.8,0.1,1.2,0.3c0.3,0.2,0.4,0.8,0.4,1.7v1.9c0,1.1-0.2,1.8-0.7,2c-0.3,0.1-0.6,0.2-0.9,0.2H339
			c-0.5,0-0.7,0.1-0.8,0.3c-0.1,0.2-0.1,0.5-0.1,0.8v4.6c0,0.3,0,0.6,0.1,0.9c0.2,0.1,0.5,0.2,0.8,0.2h2.5c1,0,1.4,0.6,1.4,1.7v2.5
			c0,1.1-0.5,1.7-1.4,1.7H339c-0.3,0-0.5,0-0.7,0.2c-0.1,0.2-0.2,0.4-0.2,0.6v7c0,0.7,0.4,1.1,1,1.1h5c1.2,0,1.8,0.7,1.8,2.2
			L345.9,67.2z"/>
	</g>
</g>
</svg>
