<?xml version="1.0" encoding="utf-8"?>
<!-- Generator: Adobe Illustrator 26.0.3, SVG Export Plug-In . SVG Version: 6.00 Build 0)  -->
<svg version="1.1" id="Layer_1" xmlns="http://www.w3.org/2000/svg" xmlns:xlink="http://www.w3.org/1999/xlink" x="0px" y="0px"
	 viewBox="0 0 970 250" style="enable-background:new 0 0 970 250;" xml:space="preserve">
<style type="text/css">
	.st0{fill:#FFFFFF;}
</style>
<g>
	<g>
		<path class="st0" d="M52.5,94.6c0,6.2-0.3,10.3-1,12.3c-1.1,3.2-3.4,4.8-7,4.8s-6-1.6-7.1-4.8c-0.7-2-1-6.1-1-12.3
			s0.3-10.3,1-12.2c1.1-3.2,3.4-4.7,7.1-4.7s6,1.6,7,4.7C52.1,84.4,52.5,88.5,52.5,94.6z M46.6,94.6c0.1-2.9,0-5.7-0.3-8.6
			c-0.2-1.3-0.9-2-1.9-2s-1.7,0.7-1.9,2c-0.3,2.9-0.4,5.7-0.3,8.6c-0.1,2.9,0,5.8,0.3,8.7c0.2,1.4,0.9,2.1,1.9,2.1s1.7-0.7,1.9-2.1
			C46.6,100.4,46.7,97.5,46.6,94.6z"/>
		<path class="st0" d="M67.5,81.9c0,1.3-0.5,2-1.6,2h-4.6c-0.4,0-0.7,0.1-0.8,0.3c-0.1,0.3-0.1,0.7-0.1,1v4.5c0,0.6,0.2,0.9,0.6,0.9
			h2.8c0.7,0,1.1,0.2,1.3,0.5c0.2,0.5,0.3,1,0.2,1.5v1.8c0,1.4-0.5,2.1-1.6,2.1h-2.5c-0.4,0-0.7,0.1-0.8,0.3c-0.1,0.3-0.1,0.7-0.1,1
			v11.3c0,1.4-0.5,2.1-1.5,2.1h-2.8c-0.8,0-1.3-0.3-1.5-0.8c-0.1-0.4-0.2-0.8-0.2-1.2v-29c0-1.2,0.2-1.8,0.6-2.1
			c0.3-0.1,0.7-0.2,1-0.2h9.5c1.2,0,1.8,0.7,1.8,2.2L67.5,81.9z"/>
		<path class="st0" d="M88.2,101.1c0,3.6-0.4,6.3-1.3,7.9c-0.9,1.6-2.6,2.5-4.4,2.4h-6.1c-0.9,0-1.5-0.3-1.6-0.9
			c-0.1-0.4-0.1-0.8-0.1-1.3v-1.7c0-1.1,0.2-1.8,0.7-1.9c0.3-0.1,0.7-0.1,1-0.1h3.9c1.2,0,1.8-1.5,1.8-4.5c0-3-0.6-4.6-1.8-4.6h-3.5
			c-1.2,0-1.7-0.5-1.7-1.5V80.3c0-1.5,0.5-2.3,1.6-2.3h9.4c1.1,0,1.7,0.7,1.7,2.2v1.7c0,1.4-0.5,2-1.6,2h-4.4c-0.2,0-0.4,0-0.6,0.1
			c-0.2,0.3-0.3,0.7-0.2,1v4.5c0,0.6,0.2,0.9,0.7,0.9h1c1.5-0.1,3,0.6,3.9,1.8C87.6,93.7,88.2,96.7,88.2,101.1z"/>
		<path class="st0" d="M105.1,94.7c0,7.1-0.5,11.7-1.4,13.8c-1,2.2-3.1,3.3-6.5,3.3c-3.3,0-5.5-1.1-6.5-3.3s-1.3-6.7-1.3-13.8
			s0.4-11.7,1.3-13.8s3.1-3.3,6.5-3.3s5.5,1.1,6.5,3.3S105.1,87.6,105.1,94.7z M99.2,94.7c0.1-3.1,0-6.1-0.3-9.2
			c-0.2-1.1-0.8-1.6-1.7-1.6s-1.5,0.5-1.7,1.6c-0.3,3.1-0.4,6.1-0.3,9.2c-0.1,3.1,0,6.1,0.3,9.2c0.2,1.1,0.8,1.6,1.7,1.6
			s1.5-0.5,1.7-1.6C99.2,100.8,99.3,97.8,99.2,94.7z"/>
		<path class="st0" d="M127.9,109.2c0,1.1-0.2,1.8-0.5,2c-0.3,0.2-0.7,0.2-1.1,0.2h-2.7c-0.5,0.1-1-0.1-1.4-0.6
			c-0.2-0.5-0.3-1-0.2-1.5V95.7c0-0.8-0.1-1.2-0.2-1.2s-0.3,0.4-0.4,1.1l-2,9.9c-0.2,1-1.1,1.7-2.1,1.5c-0.8-0.1-1.4-0.7-1.5-1.5
			l-2-9.9c-0.2-0.7-0.3-1.1-0.5-1.1s-0.2,0.4-0.2,1.2v13.6c0,0.5,0,1.1-0.2,1.5c-0.3,0.4-0.8,0.6-1.4,0.6h-2.6
			c-0.9,0-1.4-0.3-1.6-0.8c-0.1-0.4-0.1-0.9-0.1-1.3V80.1c-0.1-0.6,0.1-1.1,0.3-1.6c0.2-0.3,0.6-0.4,1.3-0.4h2.7
			c0.5,0,1.1,0,1.6,0.3c0.4,0.3,0.6,0.8,0.7,1.3l3.3,12c0.1,0.3,0.2,0.4,0.4,0.4s0.3-0.2,0.4-0.4l3.3-12c0.1-0.5,0.3-0.9,0.7-1.3
			c0.5-0.2,1-0.3,1.6-0.3h2.8c0.7,0,1.1,0.2,1.3,0.4c0.2,0.5,0.3,1.1,0.3,1.6L127.9,109.2z"/>
		<path class="st0" d="M151.2,109.2c0,1.1-0.2,1.8-0.5,2c-0.3,0.2-0.7,0.2-1.1,0.2h-2.7c-0.5,0.1-1-0.1-1.4-0.6
			c-0.2-0.5-0.3-1-0.2-1.5V95.7c0-0.8-0.1-1.2-0.2-1.2s-0.3,0.4-0.4,1.1l-2,9.9c-0.2,1-1.1,1.7-2.1,1.5c-0.8-0.1-1.4-0.7-1.5-1.5
			l-2-9.9c-0.2-0.7-0.3-1.1-0.5-1.1s-0.2,0.4-0.2,1.2v13.6c0,0.5,0,1.1-0.2,1.5c-0.3,0.4-0.8,0.6-1.4,0.6h-2.6
			c-0.9,0-1.4-0.3-1.6-0.8c-0.1-0.4-0.1-0.9-0.1-1.3V80.1c-0.1-0.6,0.1-1.1,0.3-1.6c0.2-0.3,0.6-0.4,1.3-0.4h2.7
			c0.5,0,1.1,0,1.6,0.3c0.4,0.3,0.6,0.8,0.7,1.3l3.3,12c0.1,0.3,0.2,0.4,0.4,0.4s0.3-0.2,0.4-0.4l3.3-12c0.1-0.5,0.3-0.9,0.7-1.3
			c0.5-0.2,1-0.3,1.6-0.3h2.8c0.7,0,1.1,0.2,1.3,0.4c0.2,0.5,0.3,1.1,0.3,1.6L151.2,109.2z"/>
		<path class="st0" d="M173.5,82c0.1,0.5-0.1,1.1-0.4,1.6c-0.4,0.3-0.8,0.4-1.3,0.3H168c-0.9-0.1-1.7,0.6-1.8,1.5
			c-0.3,3.1-0.4,6.3-0.3,9.4c0,4.7,0,6.8-0.1,6.2c0.2,3,0.9,4.5,2,4.5h3.9c1.1,0,1.6,0.6,1.6,1.7v2.4c0,1.2-0.5,1.8-1.5,1.8H166
			c-2.5,0-4.2-1-4.9-3s-1.1-6.3-1.1-13c0-10.4,0-12.7-0.1-6.9c-0.1-2.4,0.3-4.9,1.1-7.2c0.7-2,2.6-3.3,4.7-3.3h6.2
			c1,0,1.6,0.6,1.6,1.8L173.5,82z"/>
		<path class="st0" d="M190.7,101.8c0,3.2-0.5,5.5-1.4,7c-1.3,1.9-3.5,2.9-6.7,2.9s-5.3-0.8-6.5-2.5c-1-1.4-1.5-3.8-1.5-7.2V80.2
			c0-0.6,0.1-1.1,0.3-1.6c0.4-0.4,0.9-0.6,1.5-0.6h2.6c0.5-0.1,1,0.2,1.3,0.6c0.2,0.5,0.3,1,0.2,1.5v22.8c0,1.7,0.7,2.6,2.2,2.6
			s2.1-0.9,2.1-2.6V80.1c-0.1-0.6,0-1.1,0.3-1.6c0.2-0.3,0.6-0.4,1.3-0.4h2.8c0.8,0,1.3,0.2,1.4,0.7c0.1,0.4,0.1,0.9,0.1,1.3
			L190.7,101.8z"/>
		<path class="st0" d="M207.3,81.9c0,1.2-0.3,1.8-0.9,2c-0.2,0.1-0.4,0.1-0.7,0.1h-2.6c-0.4,0-0.7,0.3-0.7,1v24.2
			c0,0.6-0.1,1.2-0.3,1.7c-0.2,0.3-0.6,0.5-1.3,0.5h-2.6c-0.9,0-1.4-0.3-1.6-1c-0.1-0.4-0.1-0.7-0.1-1.1V84.9c0-0.7-0.2-1-0.7-1
			h-2.6c-0.4,0-0.8-0.1-1.1-0.3c-0.3-0.5-0.5-1.1-0.4-1.7v-1.7c0-1.1,0.2-1.8,0.6-2c0.3-0.1,0.7-0.2,1-0.2h12.2c1.1,0,1.6,0.7,1.6,2
			L207.3,81.9z"/>
		<path class="st0" d="M223.1,81.9c0,1.2-0.3,1.8-0.9,2c-0.2,0.1-0.4,0.1-0.6,0.1h-2.6c-0.4,0-0.7,0.3-0.7,1v24.2
			c0,0.6-0.1,1.2-0.3,1.7c-0.2,0.3-0.6,0.5-1.3,0.5H214c-0.9,0-1.4-0.3-1.6-1c-0.1-0.4-0.1-0.7-0.1-1.1V84.9c0-0.7-0.2-1-0.6-1h-2.6
			c-0.4,0-0.8-0.1-1.1-0.3c-0.3-0.5-0.5-1.1-0.4-1.7v-1.7c0-1.1,0.2-1.8,0.6-2c0.3-0.1,0.7-0.2,1-0.2h12.2c1.1,0,1.6,0.7,1.6,2
			L223.1,81.9z"/>
		<path class="st0" d="M230.4,109.2c0,0.6,0,1.1-0.3,1.6c-0.2,0.3-0.7,0.5-1.4,0.5h-2.5c-0.5,0.1-0.9-0.1-1.3-0.3
			c-0.3-0.3-0.4-0.9-0.4-1.9V80.2c0-1.5,0.6-2.2,1.7-2.2h2.7c1,0,1.6,0.8,1.6,2.2L230.4,109.2z"/>
		<path class="st0" d="M250,109.1c0.1,0.7-0.1,1.4-0.5,1.9c-0.4,0.3-0.8,0.4-1.3,0.3h-2.3c-0.4,0-0.9-0.1-1.3-0.3
			c-0.3-0.4-0.6-0.8-0.7-1.3l-4.2-12.4c-0.2-0.5-0.4-0.7-0.6-0.7s-0.2,0.3-0.2,0.9v11.6c0,1.5-0.5,2.2-1.6,2.2h-2.6
			c-1.2,0-1.8-0.8-1.8-2.2V80.2c-0.1-0.7,0.1-1.3,0.5-1.9c0.4-0.3,0.8-0.4,1.3-0.3h2.3c0.4,0,0.9,0.1,1.3,0.3
			c0.3,0.4,0.6,0.8,0.7,1.3l4.2,12.4c0.2,0.5,0.4,0.7,0.6,0.7s0.2-0.3,0.2-1V80.2c0-1.5,0.5-2.2,1.5-2.2h2.6c1.2,0,1.8,0.8,1.8,2.2
			L250,109.1z"/>
		<path class="st0" d="M268.3,101.6c0,3.5-0.4,6-1.3,7.3c-1.1,1.7-3.2,2.6-6.4,2.6c-3.9,0-6.4-1.3-7.5-4c-0.7-1.9-1.1-6.1-1-12.6
			c0.1-6.5,0.3-10.7,0.8-12.5c0.7-2.8,2.4-4.3,4.9-4.3h6.8c0.7,0,1.2,0.2,1.4,0.4c0.3,0.5,0.4,1.1,0.3,1.7v1.6
			c0,1.5-0.5,2.2-1.6,2.2h-3.6c-0.7-0.1-1.5,0.1-2.1,0.4c-0.6,0.9-0.9,1.9-0.8,2.9c-0.1,1.2-0.1,3.8-0.1,7.7v7.3
			c0,2.1,0.9,3.2,2.6,3.2s2.4-0.9,2.4-2.6v-5c0-0.9-0.2-1.3-0.6-1.3h-1.4c-0.6,0-0.9-0.5-0.9-1.6v-2.3c-0.1-0.5,0-1.1,0.3-1.5
			c0.2-0.3,0.8-0.5,1.6-0.5h4.7c1,0,1.6,0.7,1.6,2.2L268.3,101.6z"/>
		<path class="st0" d="M290.5,109.2c0,1.4-0.6,2.2-1.7,2.2h-10.2c-0.8,0-1.3-0.2-1.5-0.7c-0.2-0.5-0.3-1-0.2-1.5V80.2
			c0-1.5,0.6-2.2,1.7-2.2h9.9c0.4,0,0.8,0.1,1.2,0.3c0.3,0.2,0.4,0.8,0.4,1.7v1.9c0,1.1-0.2,1.8-0.7,2c-0.3,0.1-0.6,0.2-0.9,0.2
			h-4.9c-0.5,0-0.7,0.1-0.8,0.3c-0.1,0.2-0.1,0.5-0.1,0.8v4.6c0,0.3,0,0.6,0.1,0.9c0.2,0.1,0.5,0.2,0.8,0.2h2.5c1,0,1.4,0.6,1.4,1.7
			V95c0,1.1-0.5,1.7-1.4,1.7h-2.5c-0.3,0-0.5,0-0.7,0.2c-0.1,0.2-0.2,0.4-0.2,0.6v7c0,0.7,0.4,1.1,1,1.1h5c1.2,0,1.8,0.7,1.8,2.2
			L290.5,109.2z"/>
		<path class="st0" d="M308.1,94.7c0.1,3.6-0.1,7.2-0.5,10.8c-0.3,2.4-1,4-1.9,4.8c-1.2,0.9-2.6,1.2-4,1.1h-8.1
			c-0.8,0-1.4-0.2-1.6-0.6c-0.2-0.5-0.2-1-0.2-1.5V80.2c0-1.5,0.5-2.2,1.6-2.2h8.5c2.4-0.2,4.5,1.4,5.1,3.8
			C307.8,83.8,308.1,88.1,308.1,94.7z M302.1,95.1c0-4,0-6.7-0.1-7.8c0.1-1.1-0.2-2.1-0.7-3c-0.6-0.4-1.3-0.5-2-0.4
			c-0.5,0-0.9,0-1.4,0.2c-0.2,0.2-0.3,0.6-0.3,1.2v18.7c0,0.6,0.1,1,0.3,1.1c0.5,0.2,1,0.3,1.5,0.2c0.6,0.1,1.3-0.1,1.8-0.4
			c0.5-0.8,0.8-1.8,0.7-2.7C302.1,101.1,302.2,98.7,302.1,95.1L302.1,95.1z"/>
		<path class="st0" d="M326.1,101.6c0,3.5-0.4,6-1.3,7.3c-1.1,1.7-3.2,2.6-6.4,2.6c-3.9,0-6.4-1.3-7.5-4c-0.7-1.9-1.1-6.1-1-12.6
			s0.3-10.7,0.8-12.5c0.7-2.8,2.4-4.3,5-4.3h6.8c0.7,0,1.2,0.2,1.4,0.4c0.3,0.5,0.4,1.1,0.3,1.7v1.6c0,1.5-0.5,2.2-1.6,2.2h-3.7
			c-0.7-0.1-1.5,0.1-2.1,0.4c-0.6,0.9-0.9,1.9-0.8,2.9c-0.1,1.2-0.1,3.8-0.1,7.7v7.3c0,2.1,0.9,3.2,2.6,3.2s2.4-0.9,2.4-2.6v-5
			c0-0.9-0.2-1.3-0.6-1.3h-1.4c-0.6,0-0.9-0.5-0.9-1.6v-2.3c-0.1-0.5,0.1-1.1,0.3-1.5c0.2-0.3,0.8-0.5,1.6-0.5h4.7
			c1,0,1.6,0.7,1.6,2.2V101.6z"/>
		<path class="st0" d="M341.7,109.2c0,1.4-0.6,2.2-1.7,2.2h-10.2c-0.8,0-1.3-0.2-1.5-0.7c-0.2-0.5-0.2-1-0.2-1.5V80.2
			c0-1.5,0.6-2.2,1.7-2.2h9.9c0.4,0,0.8,0.1,1.2,0.3c0.3,0.2,0.4,0.8,0.4,1.7v1.9c0,1.1-0.2,1.8-0.7,2c-0.3,0.1-0.6,0.2-0.9,0.2
			h-4.9c-0.5,0-0.7,0.1-0.8,0.3c-0.1,0.2-0.1,0.5-0.1,0.8v4.6c0,0.3,0,0.6,0.1,0.9c0.1,0.1,0.3,0.2,0.8,0.2h2.5c1,0,1.4,0.6,1.4,1.7
			V95c0,1.1-0.5,1.7-1.4,1.7h-2.5c-0.3,0-0.5,0-0.8,0.2c-0.1,0.2-0.2,0.4-0.2,0.6v7c0,0.7,0.4,1.1,1,1.1h5c1.2,0,1.8,0.7,1.8,2.2
			L341.7,109.2z"/>
		<path class="st0" d="M356.7,106c0,3.6-1.8,5.3-5.3,5.3h-7.5c-0.5,0.1-1-0.1-1.3-0.4c-0.3-0.5-0.4-1.1-0.3-1.6v-1.8
			c0-1,0.2-1.7,0.5-1.9c0.3-0.2,0.7-0.3,1.1-0.2h5.2c0.6,0.1,1.2-0.3,1.3-1c0-0.1,0-0.2,0-0.3c0-0.4-0.1-0.8-0.4-1.1l-5.7-10.6
			c-1.4-2.5-2.2-5.4-2.3-8.3c0-2.2,0.5-3.8,1.5-4.7s2.5-1.3,4.7-1.3h5.7c0.9,0,1.4,0.6,1.4,1.8V82c0,1.3-0.5,1.9-1.5,1.9h-4.5
			c-1,0-1.5,0.5-1.5,1.4c0,0.5,0.2,1.1,0.4,1.5l5.4,9.9C355.7,100.5,356.7,103.6,356.7,106z"/>
	</g>
</g>
</svg>
