<?xml version="1.0" encoding="utf-8"?>
<!-- Generator: Adobe Illustrator 26.0.3, SVG Export Plug-In . SVG Version: 6.00 Build 0)  -->
<svg version="1.1" id="Layer_1" xmlns="http://www.w3.org/2000/svg" xmlns:xlink="http://www.w3.org/1999/xlink" x="0px" y="0px"
	 viewBox="0 0 970 250" style="enable-background:new 0 0 970 250;" xml:space="preserve">
<style type="text/css">
	.st0{fill:#FFFFFF;}
</style>
<g>
	<g>
		<path class="st0" d="M53,46.6c0,6.9-1.9,10.3-5.6,10.4h-4.2v10.2c0.1,0.6,0,1.3-0.3,1.8c-0.3,0.3-0.8,0.4-1.3,0.4h-2.7
			c-0.8,0-1.3-0.3-1.5-0.8c-0.1-0.4-0.2-0.9-0.1-1.3v-29c0-1.5,0.5-2.3,1.6-2.3h7.7C50.9,36,53,39.5,53,46.6z M47.1,46.6
			c0.1-1.3-0.1-2.6-0.4-3.9c-0.2-0.5-0.7-0.9-1.3-0.8H44c-0.5,0-0.8,0.3-0.8,0.9v7.4c0,0.5,0.2,0.8,0.8,0.8h1.6
			c0.8,0,1.2-0.6,1.5-1.8C47.1,48.9,47.1,48,47.1,46.6L47.1,46.6z"/>
		<path class="st0" d="M70.4,68.6c0,0.5-0.3,0.7-0.9,0.7h-3.9c-0.7,0-1.2-0.5-1.3-1.4l-2-12c0-0.3-0.3-0.4-0.6-0.4H61
			c-0.4,0-0.5,0.1-0.5,0.4v11.3c0,1.4-0.5,2.1-1.7,2.1H56c-0.8,0-1.3-0.2-1.4-0.7c-0.1-0.5-0.2-0.9-0.2-1.4V38.2
			c0-1.5,0.6-2.2,1.7-2.2h7.2c4.6,0,6.8,3.4,6.8,10.3c0,3.5-0.9,6-2.7,7.5L70.3,68C70.4,68.2,70.4,68.4,70.4,68.6z M64.3,45.5
			c0-2.4-0.6-3.6-1.7-3.6H61c-0.3,0-0.6,0.2-0.7,0.5c0,0.1,0,0.1,0,0.2v6.1c0,0.6,0.2,0.9,0.5,0.9h1.7
			C63.7,49.5,64.3,48.2,64.3,45.5z"/>
		<path class="st0" d="M87.5,52.6c0,6.2-0.3,10.3-1,12.3c-1.1,3.2-3.4,4.8-7,4.8s-6-1.6-7.1-4.8c-0.7-2-1-6.1-1-12.3
			c0-6.2,0.3-10.3,1-12.2c1-3.1,3.4-4.7,7-4.7c3.7,0,6,1.6,7,4.7C87.2,42.4,87.5,46.5,87.5,52.6z M81.7,52.6c0.1-2.9,0-5.7-0.3-8.6
			c-0.2-1.3-0.9-2-1.9-2s-1.7,0.7-1.9,2c-0.3,2.9-0.4,5.7-0.3,8.6c-0.1,2.9,0,5.8,0.3,8.7c0.2,1.4,0.9,2.1,1.9,2.1s1.7-0.7,1.9-2.1
			C81.7,58.4,81.8,55.5,81.7,52.6z"/>
		<path class="st0" d="M103.3,39.9c0,1.2-0.3,1.8-0.9,2c-0.2,0.1-0.4,0.1-0.7,0.1h-2.6c-0.4,0-0.7,0.3-0.7,1v24.2
			c0,0.6-0.1,1.2-0.3,1.7c-0.2,0.3-0.6,0.5-1.3,0.5h-2.6c-0.9,0-1.4-0.3-1.6-1c-0.1-0.4-0.1-0.7-0.1-1.1V42.9c0-0.7-0.2-1-0.7-1
			h-2.6c-0.4,0-0.8-0.1-1.1-0.3c-0.3-0.5-0.5-1.1-0.4-1.7v-1.7c0-1.1,0.2-1.8,0.6-2c0.3-0.1,0.7-0.2,1-0.2h12.2c1.1,0,1.6,0.7,1.6,2
			L103.3,39.9z"/>
		<path class="st0" d="M118.4,67.2c0,1.4-0.6,2.2-1.7,2.2h-10.2c-0.8,0-1.3-0.2-1.5-0.7c-0.2-0.5-0.3-1-0.2-1.5V38.2
			c0-1.5,0.6-2.2,1.7-2.2h9.9c0.4,0,0.8,0.1,1.2,0.3c0.3,0.2,0.4,0.8,0.4,1.7v1.9c0,1.1-0.2,1.8-0.7,2c-0.3,0.1-0.6,0.2-0.9,0.2
			h-4.9c-0.5,0-0.7,0.1-0.8,0.3c-0.1,0.2-0.1,0.5-0.1,0.8v4.6c0,0.3,0,0.6,0.1,0.9c0.1,0.1,0.3,0.2,0.8,0.2h2.5c1,0,1.4,0.6,1.4,1.7
			v2.5c0,1.1-0.5,1.7-1.4,1.7h-2.5c-0.3,0-0.5,0-0.8,0.2c-0.1,0.2-0.2,0.4-0.2,0.6v7c0,0.7,0.3,1.1,1,1.1h5c1.2,0,1.8,0.7,1.8,2.2
			L118.4,67.2z"/>
		<path class="st0" d="M132.5,40c0.1,0.5-0.1,1.1-0.4,1.6c-0.4,0.3-0.8,0.4-1.3,0.3h-3.8c-0.9-0.1-1.7,0.6-1.8,1.5
			c-0.3,3.1-0.4,6.3-0.3,9.4c0,4.7,0,6.8-0.1,6.2c0.2,3,0.9,4.5,2,4.5h3.9c1.1,0,1.6,0.6,1.6,1.7v2.4c0,1.2-0.5,1.8-1.5,1.8h-6
			c-2.5,0-4.2-1-4.9-3c-0.7-2-1.1-6.3-1.1-13c0-10.4,0-12.7-0.2-6.9c-0.1-2.4,0.3-4.9,1.2-7.2c0.7-2,2.6-3.3,4.8-3.3h6.2
			c1,0,1.6,0.6,1.6,1.8L132.5,40z"/>
		<path class="st0" d="M148.3,39.9c0,1.2-0.3,1.8-0.9,2c-0.2,0.1-0.4,0.1-0.7,0.1h-2.6c-0.4,0-0.7,0.3-0.7,1v24.2
			c0,0.6-0.1,1.2-0.3,1.7c-0.2,0.3-0.6,0.5-1.3,0.5h-2.6c-0.9,0-1.4-0.3-1.6-1c-0.1-0.4-0.1-0.7-0.1-1.1V42.9c0-0.7-0.2-1-0.7-1
			h-2.6c-0.4,0-0.8-0.1-1.1-0.3c-0.3-0.5-0.5-1.1-0.4-1.7v-1.7c0-1.1,0.2-1.8,0.6-2c0.3-0.1,0.7-0.2,1-0.2h12.2c1.1,0,1.6,0.7,1.6,2
			L148.3,39.9z"/>
		<path class="st0" d="M170.7,39.9c0,1.2-0.3,1.8-0.9,2c-0.2,0.1-0.4,0.1-0.7,0.1h-2.6c-0.4,0-0.7,0.3-0.7,1v24.2
			c0.1,0.6,0,1.2-0.3,1.7c-0.2,0.3-0.6,0.5-1.3,0.5h-2.6c-0.9,0-1.4-0.3-1.6-1c-0.1-0.4-0.1-0.7-0.1-1.1V42.9c0-0.7-0.2-1-0.7-1
			h-2.6c-0.4,0-0.8-0.1-1.1-0.3c-0.3-0.5-0.5-1.1-0.4-1.7v-1.7c0-1.1,0.2-1.8,0.6-2c0.3-0.1,0.7-0.2,1-0.2H169c1.1,0,1.6,0.7,1.6,2
			L170.7,39.9z"/>
		<path class="st0" d="M188.4,67.2c0,1.5-0.6,2.2-1.7,2.2h-2.6c-1,0-1.6-0.7-1.6-2.2V55.7c0-0.7-0.3-1-0.8-1h-3
			c-0.5,0-0.8,0.3-0.8,1v11.5c0,1.4-0.5,2.2-1.6,2.2h-2.6c-1.1,0-1.7-0.7-1.7-2.2v-29c0-1.4,0.6-2.2,1.7-2.2h2.7
			c1,0,1.5,0.7,1.5,2.1v9.6c0,0.6,0.3,1,0.8,1h3.1c0.5,0,0.7-0.3,0.7-1v-9.6c0-1.4,0.5-2.1,1.5-2.1h2.7c1.1,0,1.7,0.7,1.7,2.2
			L188.4,67.2z"/>
		<path class="st0" d="M204.6,67.2c0,1.4-0.6,2.2-1.7,2.2h-10.2c-0.8,0-1.3-0.2-1.5-0.7c-0.2-0.5-0.3-1-0.2-1.5V38.2
			c0-1.5,0.6-2.2,1.7-2.2h9.9c0.4,0,0.8,0.1,1.2,0.3c0.3,0.2,0.4,0.8,0.4,1.7v1.9c0,1.1-0.2,1.8-0.7,2c-0.3,0.1-0.6,0.2-0.9,0.2
			h-4.9c-0.4,0-0.7,0.1-0.8,0.3c-0.1,0.2-0.1,0.5-0.1,0.8v4.6c0,0.3,0,0.6,0.1,0.9c0.1,0.1,0.3,0.2,0.8,0.2h2.5c1,0,1.4,0.6,1.4,1.7
			v2.5c0,1.1-0.5,1.7-1.4,1.7h-2.5c-0.3,0-0.5,0-0.7,0.2c-0.1,0.2-0.2,0.4-0.2,0.6v7c0,0.7,0.4,1.1,1.1,1.1h5c1.2,0,1.8,0.7,1.8,2.2
			L204.6,67.2z"/>
		<path class="st0" d="M225.1,67.2c0,1.4-0.6,2.2-1.9,2.2h-8.9c-0.7,0-1.2-0.2-1.4-0.5c-0.2-0.5-0.3-1.1-0.3-1.7v-29
			c0-1.4,0.6-2.2,1.7-2.2h2.6c0.5-0.1,1.1,0.2,1.4,0.6c0.2,0.5,0.3,1,0.2,1.6v24.2c0,0.7,0.3,1,0.8,1h4.1c1.1,0,1.7,0.7,1.7,2.1
			L225.1,67.2z"/>
		<path class="st0" d="M232.5,67.2c0,0.6,0,1.1-0.3,1.6c-0.2,0.3-0.7,0.5-1.4,0.5h-2.5c-0.5,0.1-1-0.1-1.3-0.3
			c-0.4-0.5-0.5-1.2-0.4-1.9V38.2c0-1.5,0.6-2.2,1.7-2.2h2.7c1,0,1.6,0.8,1.6,2.2L232.5,67.2z"/>
		<path class="st0" d="M248,39.9c0,1.3-0.5,2-1.6,2h-4.6c-0.4,0-0.7,0.1-0.8,0.3c-0.1,0.3-0.1,0.7-0.1,1v4.5c0,0.6,0.2,0.9,0.6,0.9
			h2.8c0.7,0,1.1,0.2,1.3,0.5c0.2,0.5,0.3,1,0.2,1.5v1.8c0,1.4-0.5,2.1-1.6,2.1h-2.5c-0.4,0-0.7,0.1-0.8,0.3c-0.1,0.3-0.1,0.7-0.1,1
			v11.3c0,1.4-0.5,2.1-1.5,2.1h-2.8c-0.8,0-1.3-0.3-1.5-0.8c-0.1-0.4-0.2-0.8-0.1-1.2v-29c0-1.2,0.2-1.8,0.6-2.1
			c0.3-0.1,0.7-0.2,1-0.2h9.5c1.2,0,1.8,0.7,1.8,2.2L248,39.9z"/>
		<path class="st0" d="M263,67.2c0,1.4-0.6,2.2-1.7,2.2h-10.2c-0.8,0-1.3-0.2-1.5-0.7c-0.2-0.5-0.3-1-0.2-1.5V38.2
			c0-1.5,0.6-2.2,1.7-2.2h9.9c0.4,0,0.8,0.1,1.2,0.3c0.3,0.2,0.4,0.8,0.4,1.7v1.9c0,1.1-0.2,1.8-0.7,2c-0.3,0.1-0.6,0.2-0.9,0.2
			h-4.9c-0.5,0-0.7,0.1-0.8,0.3c-0.1,0.2-0.1,0.5-0.1,0.8v4.6c0,0.3,0,0.6,0.1,0.9c0.1,0.1,0.3,0.2,0.8,0.2h2.5c1,0,1.4,0.6,1.4,1.7
			v2.5c0,1.1-0.5,1.7-1.4,1.7h-2.5c-0.3,0-0.5,0-0.8,0.2c-0.1,0.2-0.2,0.4-0.2,0.6v7c0,0.7,0.4,1.1,1,1.1h5c1.2,0,1.8,0.7,1.8,2.2
			L263,67.2z"/>
		<path class="st0" d="M286.8,52.6c0,6.2-0.3,10.3-1,12.3c-1.1,3.2-3.4,4.8-7,4.8s-5.9-1.6-7.1-4.8c-0.7-2-1-6.1-1-12.3
			c0-6.2,0.3-10.3,1-12.2c1-3.1,3.4-4.7,7.1-4.7c3.7,0,6,1.6,7,4.7C286.4,42.4,286.8,46.5,286.8,52.6z M280.9,52.6
			c0.1-2.9,0-5.8-0.3-8.6c-0.2-1.3-0.9-2-1.9-2s-1.7,0.7-1.9,2c-0.3,2.9-0.4,5.7-0.3,8.6c-0.1,2.9,0,5.8,0.3,8.7
			c0.2,1.4,0.9,2.1,1.9,2.1s1.7-0.7,1.9-2.1C280.9,58.4,281,55.5,280.9,52.6z"/>
		<path class="st0" d="M301.8,39.9c0,1.3-0.5,2-1.6,2h-4.6c-0.4,0-0.7,0.1-0.8,0.3c-0.1,0.3-0.1,0.7-0.1,1v4.5
			c0,0.6,0.2,0.9,0.6,0.9h2.8c0.7,0,1.1,0.2,1.3,0.5c0.2,0.5,0.3,1,0.2,1.5v1.8c0,1.4-0.5,2.1-1.6,2.1h-2.5c-0.4,0-0.7,0.1-0.8,0.3
			c-0.1,0.3-0.1,0.7-0.1,1v11.3c0,1.4-0.5,2.1-1.5,2.1h-2.8c-0.8,0-1.3-0.3-1.5-0.8c-0.1-0.4-0.2-0.8-0.1-1.2v-29
			c0-1.2,0.2-1.8,0.6-2.1c0.3-0.1,0.7-0.2,1-0.2h9.5c1.2,0,1.8,0.7,1.8,2.2L301.8,39.9z"/>
		<path class="st0" d="M325.7,37.8l-5.5,18.9v10.6c0.1,0.6,0,1.2-0.3,1.8c-0.4,0.3-0.8,0.4-1.3,0.4h-2.6c-0.7,0-1.2-0.2-1.4-0.5
			c-0.2-0.5-0.3-1.1-0.3-1.6V56.6l-5.5-18.8c-0.3-1.2,0-1.8,0.9-1.8h3.3c0.7,0,1.1,0.4,1.3,1.2l2.6,10.9c0.1,0.4,0.2,0.5,0.3,0.5
			s0.2-0.2,0.4-0.5l2.5-10.9c0.2-0.8,0.6-1.2,1.3-1.2h3.4C325.7,36,326,36.6,325.7,37.8z"/>
		<path class="st0" d="M342.8,52.6c0,6.2-0.3,10.3-1,12.3c-1.1,3.2-3.4,4.8-7,4.8s-6-1.6-7.1-4.8c-0.7-2-1-6.1-1-12.3
			c0-6.2,0.3-10.3,1-12.2c1.1-3.1,3.4-4.7,7.1-4.7c3.7,0,6,1.6,7,4.7C342.5,42.4,342.8,46.5,342.8,52.6z M337,52.6
			c0.1-2.9,0-5.8-0.3-8.6c-0.2-1.3-0.9-2-1.9-2s-1.7,0.7-1.9,2c-0.3,2.9-0.4,5.7-0.3,8.6c-0.1,2.9,0,5.8,0.3,8.7
			c0.2,1.4,0.9,2.1,1.9,2.1s1.7-0.7,1.9-2.1C337,58.4,337.1,55.5,337,52.6L337,52.6z"/>
		<path class="st0" d="M360.7,59.8c0,3.2-0.5,5.5-1.4,7c-1.2,1.9-3.5,2.9-6.7,2.9s-5.3-0.8-6.5-2.5c-1-1.4-1.5-3.8-1.5-7.2V38.2
			c0-0.6,0.1-1.1,0.3-1.6c0.4-0.4,0.9-0.6,1.5-0.6h2.6c0.5-0.1,1,0.2,1.3,0.6c0.2,0.5,0.3,1,0.2,1.5v22.8c0,1.7,0.7,2.6,2.2,2.6
			s2.1-0.9,2.1-2.6V38c-0.1-0.6,0.1-1.1,0.3-1.6c0.2-0.3,0.6-0.4,1.3-0.4h2.8c0.8,0,1.3,0.2,1.4,0.7c0.1,0.4,0.1,0.9,0.1,1.3
			L360.7,59.8z"/>
		<path class="st0" d="M379,68.6c0,0.5-0.3,0.7-0.9,0.7h-3.9c-0.7,0-1.2-0.5-1.4-1.4l-2-12c0-0.3-0.2-0.4-0.6-0.4h-0.7
			c-0.4,0-0.5,0.1-0.5,0.4v11.3c0,1.4-0.6,2.1-1.7,2.1h-2.7c-0.8,0-1.3-0.2-1.4-0.7c-0.1-0.5-0.2-0.9-0.2-1.4V38.2
			c0-1.5,0.6-2.2,1.7-2.2h7.1c4.6,0,6.8,3.4,6.8,10.3c0,3.5-0.9,6-2.7,7.5l3,14.2C379,68.2,379,68.4,379,68.6z M372.9,45.5
			c0-2.4-0.6-3.6-1.7-3.6h-1.6c-0.3,0-0.6,0.2-0.7,0.5c0,0.1,0,0.1,0,0.2v6.1c0,0.6,0.2,0.9,0.5,0.9h1.7
			C372.3,49.5,372.9,48.2,372.9,45.5z"/>
	</g>
</g>
</svg>
