<?xml version="1.0" encoding="utf-8"?>
<!-- Generator: Adobe Illustrator 26.0.3, SVG Export Plug-In . SVG Version: 6.00 Build 0)  -->
<svg version="1.1" id="Layer_1" xmlns="http://www.w3.org/2000/svg" xmlns:xlink="http://www.w3.org/1999/xlink" x="0px" y="0px"
	 viewBox="0 0 970 250" style="enable-background:new 0 0 970 250;" xml:space="preserve">
<style type="text/css">
	.st0{fill:#FFFFFF;}
</style>
<g>
	<g>
		<path class="st0" d="M50.9,67.2c0,1.4-0.6,2.2-1.7,2.2H39c-0.8,0-1.3-0.2-1.5-0.7c-0.2-0.5-0.2-1-0.2-1.5V38.2
			c0-1.5,0.6-2.2,1.7-2.2h9.9c0.4,0,0.8,0.1,1.2,0.3c0.3,0.2,0.4,0.8,0.4,1.7v1.9c0,1.1-0.2,1.8-0.7,2c-0.3,0.1-0.6,0.2-0.9,0.2H44
			c-0.5,0-0.7,0.1-0.8,0.3c-0.1,0.2-0.1,0.5-0.1,0.8v4.6c0,0.3,0,0.6,0.1,0.9c0.1,0.1,0.3,0.2,0.8,0.2h2.5c1,0,1.4,0.6,1.4,1.7v2.5
			c0,1.1-0.5,1.7-1.4,1.7H44c-0.3,0-0.5,0-0.8,0.2c-0.1,0.2-0.2,0.4-0.2,0.6v7c0,0.7,0.3,1.1,1,1.1h5c1.2,0,1.8,0.7,1.8,2.2
			L50.9,67.2z"/>
		<path class="st0" d="M69.4,68.6c0.1,0.5-0.2,0.8-0.8,0.8h-4.8c-0.5,0-0.8-0.3-0.8-0.9l-1-7.1c0-0.4-0.4-0.8-0.8-0.8c0,0,0,0,0,0
			h-2.1c-0.4,0-0.8,0.3-0.8,0.7c0,0,0,0,0,0.1l-0.8,7.1c0,0.4-0.3,0.8-0.8,0.8c0,0-0.1,0-0.1,0H52c-0.6,0-0.9-0.2-0.8-0.8l4.1-30.7
			c0-1.1,0.9-1.9,1.9-1.9c0.1,0,0.1,0,0.2,0h5.8c1.1,0,1.8,0.7,1.9,2L69.4,68.6z M61.5,54.1l-1-11.5c0-0.5-0.2-0.7-0.4-0.7
			s-0.4,0.3-0.4,0.8L59,54.1c-0.1,0.4,0.2,0.6,0.6,0.6h1.2C61.3,54.7,61.6,54.5,61.5,54.1z"/>
		<path class="st0" d="M83.6,40c0.1,0.5-0.1,1.1-0.3,1.6c-0.4,0.3-0.8,0.4-1.3,0.3h-3.8c-0.9-0.1-1.7,0.6-1.8,1.5
			c-0.3,3.1-0.4,6.3-0.3,9.4c0,4.7,0,6.8-0.1,6.2c0.2,3,0.9,4.5,2,4.5h3.9c1.1,0,1.6,0.6,1.6,1.7v2.4c0,1.2-0.5,1.8-1.5,1.8h-5.9
			c-2.5,0-4.1-1-4.9-3c-0.7-2-1.1-6.3-1.1-13c0-10.4-0.1-12.7-0.2-6.9c-0.1-2.4,0.3-4.8,1.2-7.1c0.7-2,2.6-3.4,4.7-3.3H82
			c1,0,1.6,0.6,1.6,1.8L83.6,40z"/>
		<path class="st0" d="M101.3,67.2c0,1.5-0.6,2.2-1.7,2.2h-2.6c-1,0-1.6-0.7-1.6-2.2V55.7c0-0.7-0.3-1-0.8-1h-3
			c-0.5,0-0.8,0.3-0.8,1v11.5c0,1.4-0.5,2.2-1.6,2.2h-2.6c-1.1,0-1.7-0.7-1.7-2.2v-29c0-1.4,0.6-2.2,1.7-2.2h2.7
			c1,0,1.5,0.7,1.5,2.1v9.6c0,0.6,0.2,1,0.8,1h3.1c0.5,0,0.7-0.3,0.7-1v-9.6c0-1.4,0.5-2.1,1.5-2.1h2.7c1.1,0,1.7,0.7,1.7,2.2
			L101.3,67.2z"/>
		<path class="st0" d="M123.6,40c0.1,0.5-0.1,1.1-0.4,1.6c-0.4,0.3-0.8,0.4-1.3,0.3h-3.8c-0.9-0.1-1.7,0.6-1.8,1.5
			c-0.3,3.1-0.4,6.3-0.3,9.4c0,4.7,0,6.8-0.1,6.2c0.2,3,0.9,4.5,2,4.5h3.9c1.1,0,1.6,0.6,1.6,1.7v2.4c0,1.2-0.5,1.8-1.5,1.8h-5.9
			c-2.5,0-4.2-1-4.9-3s-1.1-6.3-1.1-13c0-10.4,0-12.7-0.1-6.9c-0.1-2.4,0.3-4.8,1.2-7.1c0.7-2,2.6-3.4,4.7-3.3h6.2
			c1,0,1.6,0.6,1.6,1.8L123.6,40z"/>
		<path class="st0" d="M140.8,59.8c0,3.2-0.5,5.5-1.4,7c-1.2,1.9-3.5,2.9-6.7,2.9s-5.3-0.8-6.5-2.5c-1-1.4-1.5-3.8-1.5-7.2V38.2
			c0-0.6,0.1-1.1,0.3-1.6c0.4-0.4,0.9-0.6,1.5-0.6h2.6c0.5-0.1,1,0.2,1.3,0.6c0.2,0.5,0.3,1,0.2,1.5v22.8c0,1.7,0.7,2.6,2.2,2.6
			s2.1-0.9,2.1-2.6V38c0-0.6,0.1-1.1,0.3-1.6c0.2-0.3,0.6-0.4,1.3-0.4h2.8c0.8,0,1.3,0.2,1.4,0.7c0.1,0.4,0.1,0.9,0.1,1.3
			L140.8,59.8z"/>
		<path class="st0" d="M157.4,39.9c0,1.2-0.3,1.8-0.9,2c-0.2,0.1-0.4,0.1-0.7,0.1h-2.6c-0.4,0-0.7,0.3-0.7,1v24.2
			c0.1,0.6,0,1.2-0.3,1.7c-0.2,0.3-0.6,0.5-1.3,0.5h-2.6c-0.9,0-1.4-0.3-1.6-1c-0.1-0.4-0.1-0.7-0.1-1.1V42.9c0-0.7-0.2-1-0.7-1
			h-2.6c-0.4,0-0.8-0.1-1.1-0.3c-0.3-0.5-0.5-1.1-0.4-1.7v-1.7c0-1.1,0.2-1.8,0.6-2c0.3-0.1,0.7-0.2,1-0.2h12.2c1.1,0,1.6,0.7,1.6,2
			L157.4,39.9z"/>
		<path class="st0" d="M173.1,39.9c0,1.2-0.3,1.8-0.9,2c-0.2,0.1-0.4,0.1-0.7,0.1H169c-0.4,0-0.7,0.3-0.7,1v24.2
			c0,0.6-0.1,1.2-0.3,1.7c-0.2,0.3-0.6,0.5-1.3,0.5h-2.6c-0.9,0-1.4-0.3-1.6-1c-0.1-0.4-0.1-0.7-0.1-1.1V42.9c0-0.7-0.2-1-0.7-1
			h-2.6c-0.4,0-0.8-0.1-1.1-0.3c-0.3-0.5-0.5-1.1-0.4-1.7v-1.7c0-1.1,0.2-1.8,0.6-2c0.3-0.1,0.7-0.2,1-0.2h12.2c1.1,0,1.6,0.7,1.6,2
			L173.1,39.9z"/>
		<path class="st0" d="M180.5,67.2c0,0.6,0,1.1-0.3,1.6c-0.2,0.3-0.7,0.5-1.4,0.5h-2.5c-0.5,0.1-0.9-0.1-1.3-0.3
			c-0.4-0.5-0.5-1.2-0.4-1.9V38.2c0-1.5,0.6-2.2,1.7-2.2h2.7c1,0,1.6,0.8,1.6,2.2L180.5,67.2z"/>
		<path class="st0" d="M200,67.1c0.1,0.7-0.1,1.4-0.5,1.9c-0.4,0.3-0.8,0.4-1.3,0.3H196c-0.4,0-0.9-0.1-1.3-0.3
			c-0.3-0.4-0.6-0.8-0.7-1.3l-4.2-12.5c-0.2-0.5-0.4-0.7-0.6-0.7s-0.2,0.3-0.2,1v11.5c0,1.5-0.5,2.2-1.6,2.2h-2.6
			c-1.2,0-1.8-0.8-1.8-2.2V38.2c-0.1-0.7,0.1-1.3,0.5-1.9c0.4-0.3,0.8-0.4,1.3-0.3h2.3c0.4,0,0.9,0.1,1.3,0.3
			c0.3,0.4,0.6,0.8,0.7,1.3l4.2,12.4c0.2,0.5,0.4,0.7,0.6,0.7s0.2-0.3,0.2-1V38.2c0-1.5,0.5-2.2,1.5-2.2h2.6c1.2,0,1.8,0.8,1.8,2.2
			L200,67.1z"/>
		<path class="st0" d="M218.4,59.6c0,3.5-0.4,6-1.3,7.3c-1.1,1.7-3.2,2.6-6.4,2.6c-3.9,0-6.4-1.3-7.5-4c-0.7-1.9-1.1-6.1-1-12.6
			c0.1-6.5,0.3-10.7,0.8-12.5c0.7-2.9,2.3-4.3,4.9-4.3h6.8c0.5-0.1,1,0.1,1.4,0.5c0.3,0.5,0.4,1.1,0.3,1.7v1.6
			c0,1.5-0.5,2.2-1.6,2.2h-3.6c-0.7-0.1-1.5,0.1-2.1,0.4c-0.6,0.9-0.9,1.9-0.8,2.9c-0.1,1.2-0.1,3.8-0.1,7.7v7.3
			c0,2.1,0.9,3.2,2.6,3.2c1.6,0,2.4-0.9,2.4-2.6v-4.9c0-0.9-0.2-1.3-0.6-1.3h-1.4c-0.6,0-0.9-0.5-0.9-1.6v-2.3
			c-0.1-0.5,0.1-1.1,0.3-1.5c0.4-0.4,1-0.6,1.6-0.5h4.7c1,0,1.6,0.7,1.6,2.2V59.6z"/>
		<path class="st0" d="M240.5,67.2c0,1.4-0.6,2.2-1.7,2.2h-10.2c-0.8,0-1.3-0.2-1.5-0.7c-0.2-0.5-0.3-1-0.2-1.5V38.2
			c0-1.5,0.6-2.2,1.7-2.2h9.9c0.4,0,0.8,0.1,1.2,0.3c0.3,0.2,0.4,0.8,0.4,1.7v1.9c0,1.1-0.2,1.8-0.7,2c-0.3,0.1-0.6,0.2-0.9,0.2
			h-4.9c-0.4,0-0.7,0.1-0.8,0.3c-0.1,0.2-0.1,0.5-0.1,0.8v4.6c0,0.3,0,0.6,0.1,0.9c0.2,0.1,0.5,0.2,0.8,0.2h2.5c1,0,1.4,0.6,1.4,1.7
			v2.5c0,1.1-0.5,1.7-1.4,1.7h-2.5c-0.3,0-0.5,0-0.7,0.2c-0.1,0.2-0.2,0.4-0.2,0.6v7c0,0.7,0.4,1.1,1.1,1.1h5c1.2,0,1.8,0.7,1.8,2.2
			L240.5,67.2z"/>
		<path class="st0" d="M258.1,52.7c0.1,3.6-0.1,7.2-0.5,10.8c-0.4,2.4-1,4-1.9,4.8c-1.2,0.8-2.6,1.2-4,1.1h-8.1
			c-0.9,0-1.4-0.2-1.6-0.6c-0.1-0.5-0.2-1-0.1-1.5V38.2c0-1.5,0.5-2.2,1.6-2.2h8.5c2.4-0.2,4.5,1.4,5.1,3.8
			C257.8,41.8,258.1,46.1,258.1,52.7z M252.1,53.1c0-4,0-6.7-0.1-7.8c0.1-1-0.2-2.1-0.7-3c-0.6-0.4-1.3-0.5-1.9-0.4
			c-0.5,0-0.9,0-1.4,0.2c-0.2,0.2-0.3,0.6-0.3,1.2v18.7c0,0.6,0.1,1,0.3,1.1c0.5,0.2,1,0.3,1.6,0.2c0.6,0.1,1.3-0.1,1.8-0.4
			c0.5-0.8,0.8-1.8,0.7-2.7C252.1,59.1,252.2,56.7,252.1,53.1L252.1,53.1z"/>
		<path class="st0" d="M276,59.6c0,3.5-0.4,6-1.3,7.3c-1.1,1.7-3.2,2.6-6.4,2.6c-3.9,0-6.4-1.3-7.5-4c-0.7-1.9-1-6.1-1-12.6
			c0-6.5,0.3-10.7,0.8-12.5c0.7-2.8,2.4-4.3,5-4.3h6.8c0.7,0,1.2,0.2,1.4,0.5c0.2,0.5,0.3,1.1,0.2,1.6v1.6c0,1.5-0.5,2.2-1.6,2.2
			h-3.6c-0.7-0.1-1.5,0.1-2.1,0.4c-0.6,0.9-0.9,1.9-0.8,2.9c-0.1,1.2-0.1,3.8-0.1,7.7v7.3c0,2.1,0.9,3.2,2.6,3.2s2.4-0.9,2.4-2.6
			v-4.9c0-0.9-0.2-1.3-0.6-1.3h-1.4c-0.6,0-0.9-0.5-0.9-1.6v-2.3c-0.1-0.5,0-1.1,0.3-1.5c0.2-0.3,0.8-0.5,1.6-0.5h4.7
			c1,0,1.6,0.7,1.6,2.2L276,59.6z"/>
		<path class="st0" d="M291.7,67.2c0,1.4-0.6,2.2-1.7,2.2h-10.2c-0.8,0-1.3-0.2-1.5-0.7c-0.2-0.5-0.3-1-0.2-1.5V38.2
			c0-1.5,0.6-2.2,1.7-2.2h9.9c0.4,0,0.8,0.1,1.2,0.3c0.3,0.2,0.4,0.8,0.4,1.7v1.9c0,1.1-0.2,1.8-0.7,2c-0.3,0.1-0.6,0.2-0.9,0.2
			h-4.9c-0.5,0-0.7,0.1-0.8,0.3c-0.1,0.2-0.1,0.5-0.1,0.8v4.6c0,0.3,0,0.6,0.1,0.9c0.2,0.1,0.5,0.2,0.8,0.2h2.5c1,0,1.4,0.6,1.4,1.7
			v2.5c0,1.1-0.5,1.7-1.4,1.7h-2.5c-0.3,0-0.5,0-0.7,0.2c-0.1,0.2-0.2,0.4-0.2,0.6v7c0,0.7,0.4,1.1,1,1.1h5c1.2,0,1.8,0.7,1.8,2.2
			V67.2z"/>
		<path class="st0" d="M305.5,67.2c0,0.6,0,1.1-0.3,1.6c-0.2,0.3-0.7,0.5-1.4,0.5h-2.5c-0.5,0.1-1-0.1-1.4-0.3
			c-0.4-0.5-0.5-1.2-0.4-1.9V38.2c0-1.5,0.6-2.2,1.7-2.2h2.8c1,0,1.6,0.8,1.6,2.2L305.5,67.2z"/>
		<path class="st0" d="M321.6,64c0,3.6-1.8,5.3-5.4,5.3h-7.4c-0.5,0.1-1-0.1-1.4-0.4c-0.3-0.5-0.4-1.1-0.3-1.6v-1.8
			c0-1,0.2-1.7,0.5-1.9c0.3-0.2,0.7-0.3,1.1-0.2h5.2c0.6,0.1,1.2-0.4,1.3-1c0-0.1,0-0.2,0-0.3c0-0.4-0.1-0.8-0.3-1.1l-5.7-10.6
			c-1.4-2.5-2.2-5.4-2.3-8.3c0-2.2,0.5-3.8,1.5-4.7c1-0.9,2.5-1.3,4.7-1.3h5.8c0.9,0,1.4,0.6,1.4,1.8V40c0,1.3-0.5,1.9-1.5,1.9h-4.5
			c-1,0-1.5,0.5-1.5,1.4c0,0.5,0.2,1.1,0.4,1.5l5.4,9.9C320.6,58.5,321.6,61.6,321.6,64z"/>
		<path class="st0" d="M345.7,68.6c0,0.5-0.3,0.7-0.9,0.7h-3.9c-0.7,0-1.2-0.5-1.3-1.4l-2-12c0-0.3-0.2-0.4-0.6-0.4h-0.7
			c-0.4,0-0.5,0.1-0.5,0.4v11.3c0,1.4-0.5,2.1-1.7,2.1h-2.7c-0.8,0-1.3-0.2-1.4-0.7c-0.1-0.5-0.2-0.9-0.2-1.4V38.2
			c0-1.5,0.6-2.2,1.7-2.2h7.1c4.6,0,6.8,3.4,6.8,10.3c0,3.5-0.9,6-2.7,7.5l2.9,14.2C345.7,68.2,345.7,68.4,345.7,68.6z M339.6,45.5
			c0-2.4-0.6-3.6-1.7-3.6h-1.6c-0.3,0-0.6,0.2-0.7,0.5c0,0.1,0,0.1,0,0.2v6.1c0,0.6,0.2,0.9,0.5,0.9h1.7
			C339,49.5,339.6,48.2,339.6,45.5z"/>
		<path class="st0" d="M360.8,67.2c0,1.4-0.6,2.2-1.7,2.2H349c-0.8,0-1.3-0.2-1.5-0.7c-0.2-0.5-0.3-1-0.2-1.5V38.2
			c0-1.5,0.6-2.2,1.7-2.2h9.9c0.4,0,0.8,0.1,1.2,0.3c0.3,0.2,0.4,0.8,0.4,1.7v1.9c0,1.1-0.2,1.8-0.7,2c-0.3,0.1-0.6,0.2-0.9,0.2H354
			c-0.5,0-0.7,0.1-0.8,0.3c-0.1,0.2-0.1,0.5-0.1,0.8v4.6c0,0.3,0,0.6,0.1,0.9c0.2,0.1,0.5,0.2,0.8,0.2h2.5c1,0,1.4,0.6,1.4,1.7v2.5
			c0,1.1-0.5,1.7-1.4,1.7H354c-0.3,0-0.5,0-0.7,0.2c-0.1,0.2-0.2,0.4-0.2,0.6v7c0,0.7,0.4,1.1,1,1.1h5c1.2,0,1.8,0.7,1.8,2.2
			L360.8,67.2z"/>
		<path class="st0" d="M379,37.3L374.1,68c-0.1,0.9-0.6,1.3-1.4,1.3h-5.3c-0.8,0-1.2-0.4-1.3-1.3l-5-30.7c-0.1-0.9,0.2-1.3,0.9-1.3
			h3.9c0.8,0,1.2,0.5,1.4,1.6l2.4,19c0.1,0.5,0.2,0.7,0.5,0.7s0.4-0.2,0.4-0.7l2.4-19c0.1-1.1,0.6-1.6,1.4-1.6h3.8
			C378.9,36,379.2,36.5,379,37.3z"/>
		<path class="st0" d="M394.1,67.2c0,1.4-0.6,2.2-1.7,2.2h-10.2c-0.8,0-1.3-0.2-1.5-0.7c-0.2-0.5-0.3-1-0.2-1.5V38.2
			c0-1.5,0.6-2.2,1.7-2.2h9.9c0.4,0,0.8,0.1,1.2,0.3c0.3,0.2,0.4,0.8,0.4,1.7v1.9c0,1.1-0.2,1.8-0.7,2c-0.3,0.1-0.6,0.2-0.9,0.2
			h-4.9c-0.5,0-0.7,0.1-0.8,0.3c-0.1,0.2-0.1,0.5-0.1,0.8v4.6c0,0.3,0,0.6,0.1,0.9c0.2,0.1,0.5,0.2,0.8,0.2h2.5c1,0,1.4,0.6,1.4,1.7
			v2.5c0,1.1-0.5,1.7-1.4,1.7h-2.5c-0.3,0-0.5,0-0.7,0.2c-0.1,0.2-0.2,0.4-0.2,0.6v7c0,0.7,0.4,1.1,1,1.1h5c1.2,0,1.8,0.7,1.8,2.2
			V67.2z"/>
		<path class="st0" d="M411.5,68.6c0,0.5-0.3,0.7-0.9,0.7h-3.9c-0.7,0-1.2-0.5-1.3-1.4l-2-12c0-0.3-0.2-0.4-0.6-0.4H402
			c-0.4,0-0.5,0.1-0.5,0.4v11.3c0,1.4-0.5,2.1-1.7,2.1h-2.7c-0.8,0-1.3-0.2-1.4-0.7c-0.1-0.5-0.2-0.9-0.2-1.4V38.2
			c0-1.5,0.6-2.2,1.7-2.2h7.1c4.6,0,6.8,3.4,6.8,10.3c0,3.5-0.9,6-2.7,7.5l2.9,14.2C411.5,68.2,411.5,68.4,411.5,68.6z M405.4,45.5
			c0-2.4-0.6-3.6-1.7-3.6h-1.6c-0.3,0-0.6,0.2-0.7,0.5c0,0.1,0,0.1,0,0.2v6.1c0,0.6,0.2,0.9,0.5,0.9h1.7
			C404.8,49.5,405.4,48.2,405.4,45.5L405.4,45.5z"/>
		<path class="st0" d="M426.6,64c0,3.6-1.8,5.3-5.4,5.3h-7.4c-0.5,0.1-1-0.1-1.4-0.4c-0.3-0.5-0.4-1.1-0.3-1.6v-1.8
			c0-1,0.2-1.7,0.5-1.9c0.3-0.2,0.7-0.2,1.1-0.2h5.1c0.6,0.1,1.2-0.4,1.3-1c0-0.1,0-0.2,0-0.3c0-0.4-0.1-0.8-0.3-1.1l-5.7-10.6
			c-1.4-2.5-2.2-5.4-2.3-8.3c0-2.2,0.5-3.8,1.5-4.7c1-0.9,2.5-1.3,4.7-1.3h5.7c0.9,0,1.4,0.6,1.4,1.8V40c0,1.3-0.5,1.9-1.5,1.9h-4.5
			c-1,0-1.5,0.5-1.5,1.4c0,0.5,0.2,1.1,0.4,1.5l5.4,9.9C425.6,58.5,426.6,61.6,426.6,64z"/>
		<path class="st0" d="M434.1,67.2c0,0.6,0,1.1-0.3,1.6c-0.2,0.3-0.7,0.5-1.4,0.5h-2.5c-0.5,0.1-0.9-0.1-1.3-0.3
			c-0.3-0.3-0.4-0.9-0.4-1.9V38.2c0-1.5,0.5-2.2,1.7-2.2h2.7c1,0,1.6,0.8,1.6,2.2V67.2z"/>
		<path class="st0" d="M452.7,60.3c0,6-1.8,9-5.4,9h-9c-0.7,0-1.2-0.2-1.4-0.7c-0.2-0.5-0.2-1-0.2-1.5v-29c0-1.4,0.5-2.2,1.6-2.2h9
			c1.7-0.1,3.4,0.8,4.1,2.4c0.7,1.9,1,4,0.9,6c0,3.9-0.9,6.5-2.7,7.5C451.7,52.8,452.7,55.6,452.7,60.3z M446.4,45.5
			c0-0.8,0-1.7-0.3-2.5c-0.3-0.8-1-1.3-1.8-1.2h-1c-0.4,0-0.6,0.1-0.7,0.2c-0.1,0.2-0.2,0.5-0.1,0.8v5.2c0,0.7,0.3,1,0.9,1h1
			c0.8,0.1,1.6-0.4,1.9-1.2C446.4,47.2,446.5,46.4,446.4,45.5z M446.8,59.3c0.1-1.2-0.1-2.4-0.6-3.5c-0.4-0.6-1.1-0.9-1.8-0.8h-1
			c-0.4,0-0.6,0.1-0.8,0.3c-0.1,0.2-0.1,0.5-0.1,0.7v6.4c0,0.7,0.3,1,0.9,1h1c0.9,0.1,1.9-0.4,2.2-1.3
			C446.7,61.2,446.8,60.2,446.8,59.3z"/>
		<path class="st0" d="M467.1,67.2c0,1.4-0.6,2.2-1.9,2.2h-8.9c-0.7,0-1.2-0.2-1.4-0.5c-0.2-0.5-0.3-1.1-0.3-1.7v-29
			c0-1.4,0.5-2.2,1.7-2.2h2.6c0.5-0.1,1.1,0.2,1.4,0.6c0.2,0.5,0.3,1,0.2,1.6v24.2c0,0.7,0.3,1,0.8,1h4c1.1,0,1.7,0.7,1.7,2.1
			L467.1,67.2z"/>
		<path class="st0" d="M482.2,67.2c0,1.4-0.6,2.2-1.7,2.2h-10.2c-0.8,0-1.3-0.2-1.5-0.7c-0.2-0.5-0.3-1-0.2-1.5V38.2
			c0-1.5,0.6-2.2,1.7-2.2h9.9c0.4,0,0.8,0.1,1.2,0.3c0.3,0.2,0.4,0.8,0.4,1.7v1.9c0,1.1-0.2,1.8-0.7,2c-0.3,0.1-0.6,0.2-0.9,0.2
			h-4.9c-0.5,0-0.7,0.1-0.8,0.3c-0.1,0.2-0.1,0.5-0.1,0.8v4.6c0,0.3,0,0.6,0.1,0.9c0.2,0.1,0.5,0.2,0.8,0.2h2.5c1,0,1.4,0.6,1.4,1.7
			v2.5c0,1.1-0.5,1.7-1.4,1.7h-2.5c-0.3,0-0.5,0-0.7,0.2c-0.1,0.2-0.2,0.4-0.2,0.6v7c0,0.7,0.4,1.1,1,1.1h5c1.2,0,1.8,0.7,1.8,2.2
			V67.2z"/>
	</g>
</g>
</svg>
