<?xml version="1.0" encoding="utf-8"?>
<!-- Generator: Adobe Illustrator 26.0.3, SVG Export Plug-In . SVG Version: 6.00 Build 0)  -->
<svg version="1.1" id="Layer_1" xmlns="http://www.w3.org/2000/svg" xmlns:xlink="http://www.w3.org/1999/xlink" x="0px" y="0px"
	 viewBox="0 0 970 250" style="enable-background:new 0 0 970 250;" xml:space="preserve">
<style type="text/css">
	.st0{fill:#FFFFFF;}
</style>
<g>
	<g>
		<rect x="35.5" y="161.6" class="st0" width="202.1" height="52.4"/>
		<path d="M58.8,175.7c0,1.2-0.5,1.8-1.4,1.8h-4.2c-0.4,0-0.7,0.1-0.7,0.3c-0.1,0.3-0.1,0.6-0.1,0.9v4.1c0,0.6,0.2,0.8,0.6,0.8h2.6
			c0.6,0,1,0.2,1.2,0.5c0.2,0.4,0.2,0.9,0.2,1.3v1.6c0,1.3-0.5,2-1.4,2h-2.3c-0.4,0-0.7,0.1-0.7,0.3c-0.1,0.3-0.1,0.6-0.1,0.9v10.4
			c0,1.3-0.4,1.9-1.3,1.9h-2.5c-0.7,0-1.2-0.3-1.3-0.8c-0.1-0.4-0.1-0.8-0.1-1.1v-26.5c0-1.1,0.2-1.7,0.6-1.9
			c0.3-0.1,0.6-0.2,0.9-0.2h8.6c1.1,0,1.6,0.6,1.6,2L58.8,175.7z"/>
		<path d="M65.5,200.7c0,0.5,0,1-0.2,1.5c-0.2,0.3-0.6,0.4-1.3,0.4h-2.3c-0.4,0-0.9-0.1-1.2-0.3c-0.3-0.2-0.4-0.8-0.4-1.7v-26.4
			c0-1.4,0.5-2.1,1.5-2.1h2.4c1,0,1.4,0.7,1.4,2.1L65.5,200.7z"/>
		<path d="M83.3,200.6c0.1,0.6-0.1,1.2-0.4,1.7c-0.3,0.2-0.8,0.4-1.2,0.3h-2.1c-0.4,0-0.8,0-1.2-0.2c-0.3-0.3-0.5-0.7-0.6-1.2
			L74,189.8c-0.2-0.4-0.3-0.6-0.5-0.6s-0.2,0.3-0.2,0.9v10.6c0,1.3-0.5,2-1.4,2h-2.3c-1.1,0-1.6-0.7-1.6-2v-26.5
			c-0.1-0.6,0.1-1.2,0.4-1.7c0.3-0.2,0.8-0.3,1.2-0.3h2.1c0.4,0,0.8,0,1.2,0.2c0.3,0.3,0.5,0.7,0.6,1.2l3.8,11.4
			c0.2,0.4,0.3,0.6,0.5,0.6s0.2-0.3,0.2-0.9v-10.5c0-1.3,0.5-2,1.4-2h2.4c1.1,0,1.6,0.7,1.6,2.1L83.3,200.6z"/>
		<path d="M100.4,187.4c0.1,3.3-0.1,6.6-0.4,9.9c-0.3,2.2-0.9,3.6-1.7,4.4c-1,0.8-2.3,1.1-3.6,1h-7.4c-0.8,0-1.2-0.2-1.4-0.6
			c-0.1-0.4-0.2-0.9-0.2-1.4v-26.5c0-1.4,0.5-2.1,1.5-2.1h7.8c2.2-0.2,4.1,1.3,4.6,3.4C100.1,177.4,100.4,181.3,100.4,187.4z
			 M95,187.8c0-3.7,0-6.1-0.1-7.2c0-0.9-0.2-1.9-0.7-2.7c-0.5-0.3-1.2-0.5-1.8-0.4c-0.4,0-0.9,0-1.2,0.2c-0.2,0.1-0.3,0.5-0.3,1.1
			V196c0,0.6,0.1,0.9,0.2,1c0.5,0.2,0.9,0.2,1.4,0.2c0.6,0.1,1.1-0.1,1.6-0.4c0.5-0.7,0.7-1.6,0.7-2.5C94.9,193.2,95,191.1,95,187.8
			L95,187.8z"/>
		<path d="M122.6,187.3c0,5.7-0.3,9.4-0.9,11.3c-1,2.9-3.1,4.4-6.4,4.4c-3.3,0-5.5-1.5-6.4-4.4c-0.6-1.8-0.9-5.6-0.9-11.3
			s0.3-9.4,0.9-11.2c1-2.9,3.1-4.3,6.4-4.3c3.3,0,5.5,1.4,6.4,4.3C122.3,178,122.6,181.7,122.6,187.3z M117.3,187.3
			c0.1-2.6,0-5.3-0.3-7.9c-0.2-1.2-0.8-1.9-1.7-1.9s-1.5,0.6-1.8,1.9c-0.3,2.6-0.3,5.3-0.3,7.9c-0.1,2.7,0,5.3,0.3,8
			c0.2,1.3,0.8,1.9,1.7,1.9s1.5-0.6,1.7-1.9C117.3,192.7,117.4,190,117.3,187.3z"/>
		<path d="M138.9,194c0,2.9-0.4,5.1-1.3,6.4c-1.1,1.7-3.1,2.6-6.1,2.6c-2.9,0-4.8-0.8-5.9-2.3c-0.9-1.3-1.4-3.5-1.4-6.5v-20
			c0-0.5,0.1-1,0.3-1.5c0.3-0.4,0.8-0.6,1.3-0.5h2.4c0.5-0.1,0.9,0.1,1.2,0.5c0.2,0.4,0.2,0.9,0.2,1.3v20.9c0,1.6,0.7,2.4,2,2.4
			s1.9-0.8,1.9-2.4V174c0-0.5,0-1,0.3-1.5c0.2-0.3,0.6-0.4,1.2-0.4h2.5c0.7,0,1.1,0.2,1.3,0.7c0.1,0.4,0.1,0.8,0.1,1.2L138.9,194z"
			/>
		<path d="M154,175.7c0,1.1-0.3,1.7-0.8,1.8c-0.2,0.1-0.4,0.1-0.6,0.1h-2.4c-0.4,0-0.6,0.3-0.6,0.9v22.2c0,0.5,0,1.1-0.3,1.6
			c-0.2,0.3-0.6,0.4-1.2,0.4h-2.4c-0.8,0-1.3-0.3-1.4-0.9c-0.1-0.3-0.1-0.7-0.1-1v-22.3c0-0.6-0.2-0.9-0.6-0.9h-2.4
			c-0.4,0-0.7-0.1-1-0.3c-0.3-0.5-0.4-1-0.4-1.6v-1.6c0-1,0.2-1.6,0.6-1.8c0.3-0.1,0.6-0.2,0.9-0.2h11.1c1,0,1.5,0.6,1.5,1.8
			L154,175.7z"/>
		<path d="M180.2,200.7c0,1-0.2,1.6-0.5,1.8c-0.3,0.1-0.7,0.2-1,0.2h-2.4c-0.5,0.1-0.9-0.1-1.2-0.5c-0.2-0.4-0.3-0.9-0.2-1.4v-12.4
			c0-0.7-0.1-1.1-0.2-1.1s-0.3,0.3-0.4,1l-1.8,9.1c-0.2,0.9-1,1.5-1.9,1.4c-0.7-0.1-1.2-0.7-1.4-1.4l-1.8-9.1c-0.1-0.7-0.3-1-0.4-1
			s-0.2,0.4-0.2,1.1v12.4c0,0.5,0,1-0.2,1.4c-0.3,0.4-0.8,0.6-1.2,0.5h-2.4c-0.8,0-1.3-0.3-1.4-0.8c-0.1-0.4-0.1-0.8-0.1-1.2V174
			c0-0.5,0-1,0.3-1.5c0.2-0.3,0.6-0.4,1.2-0.4h2.5c0.5,0,1,0,1.5,0.2c0.3,0.3,0.5,0.7,0.6,1.2l3,11c0.1,0.3,0.2,0.4,0.4,0.4
			s0.3-0.1,0.4-0.4l3-11c0.1-0.4,0.3-0.8,0.6-1.2c0.5-0.2,1-0.3,1.4-0.2h2.5c0.6,0,1,0.1,1.2,0.4c0.2,0.5,0.3,1,0.3,1.5L180.2,200.7
			z"/>
		<path d="M196.8,187.3c0,5.7-0.3,9.4-0.9,11.3c-1,2.9-3.1,4.4-6.4,4.4c-3.3,0-5.5-1.5-6.4-4.4c-0.6-1.8-0.9-5.6-0.9-11.3
			s0.3-9.4,0.9-11.2c1-2.9,3.1-4.3,6.4-4.3c3.3,0,5.5,1.4,6.4,4.3C196.5,178,196.8,181.7,196.8,187.3z M191.5,187.3
			c0.1-2.6,0-5.3-0.3-7.9c-0.2-1.2-0.8-1.9-1.7-1.9s-1.5,0.6-1.8,1.9c-0.3,2.6-0.3,5.3-0.3,7.9c-0.1,2.7,0,5.3,0.3,8
			c0.2,1.3,0.8,1.9,1.7,1.9s1.5-0.6,1.7-1.9C191.5,192.7,191.6,190,191.5,187.3z"/>
		<path d="M213.3,202c0,0.4-0.3,0.6-0.8,0.6h-3.6c-0.7,0-1.1-0.4-1.2-1.3l-1.9-11c-0.1-0.3-0.2-0.4-0.6-0.4h-0.6
			c-0.3,0-0.5,0.1-0.5,0.4v10.4c0,1.3-0.5,1.9-1.5,1.9h-2.4c-0.7,0-1.1-0.2-1.3-0.7c-0.1-0.4-0.2-0.9-0.2-1.3v-26.5
			c0-1.4,0.5-2.1,1.6-2.1h6.5c4.1,0,6.2,3.1,6.2,9.4c0,3.2-0.8,5.5-2.4,6.9l2.6,13C213.3,201.6,213.3,201.8,213.3,202z M207.8,180.9
			c0-2.2-0.5-3.3-1.6-3.3h-1.4c-0.4,0-0.6,0.2-0.6,0.6v5.5c0,0.6,0.1,0.8,0.4,0.8h1.5C207.2,184.5,207.8,183.3,207.8,180.9
			L207.8,180.9z"/>
		<path d="M227.1,200.7c0,1.3-0.5,2-1.5,2h-9.3c-0.7,0-1.2-0.2-1.4-0.6c-0.2-0.4-0.2-0.9-0.2-1.4v-26.5c0-1.3,0.5-2,1.6-2h9
			c0.4,0,0.7,0,1.1,0.2c0.3,0.4,0.5,1,0.4,1.5v1.7c0,1-0.2,1.6-0.7,1.8c-0.3,0.1-0.5,0.1-0.8,0.1h-4.4c-0.4,0-0.7,0.1-0.8,0.3
			c-0.1,0.2-0.1,0.5-0.1,0.7v4.2c0,0.3,0,0.6,0.1,0.8c0.1,0.1,0.3,0.1,0.7,0.1h2.3c0.9,0,1.3,0.5,1.3,1.6v2.3c0,1-0.4,1.5-1.3,1.5
			h-2.3c-0.2,0-0.5,0-0.7,0.2c-0.1,0.2-0.2,0.3-0.1,0.5v6.4c0,0.7,0.3,1,0.9,1h4.5c1.1,0,1.6,0.7,1.6,2L227.1,200.7z"/>
	</g>
</g>
</svg>
