<?xml version="1.0" encoding="utf-8"?>
<!-- Generator: Adobe Illustrator 26.0.3, SVG Export Plug-In . SVG Version: 6.00 Build 0)  -->
<svg version="1.1" id="Layer_1" xmlns="http://www.w3.org/2000/svg" xmlns:xlink="http://www.w3.org/1999/xlink" x="0px" y="0px"
	 viewBox="0 0 970 250" style="enable-background:new 0 0 970 250;" xml:space="preserve">
<style type="text/css">
	.st0{fill:#FFFFFF;}
	.st1{clip-path:url(#SVGID_00000005979155315468718720000017730832216364607653_);}
	.st2{clip-path:url(#SVGID_00000096033177513866566120000011945242078535932844_);}
	.st3{clip-path:url(#SVGID_00000042711573978142960510000015853280773245187747_);}
	.st4{clip-path:url(#SVGID_00000075857753894649681150000000490419082983761053_);}
	.st5{clip-path:url(#SVGID_00000036967066577067321770000018446222393142272407_);}
	.st6{clip-path:url(#SVGID_00000047043624474476225590000001662193158405425300_);}
	.st7{clip-path:url(#SVGID_00000106141045854801338660000009261999845268021162_);}
</style>
<g>
	<g>
		<polygon class="st0" points="593.5,158.7 592.5,163.4 596.3,163.4 593.2,178.6 598.8,178.6 601.9,163.4 605.7,163.3 606.6,158.7 
					"/>
		<g>
			<defs>
				<rect id="SVGID_1_" x="545" y="157.2" width="207.7" height="21.4"/>
			</defs>
			<clipPath id="SVGID_00000051358923180295706020000004138186627784992901_">
				<use xlink:href="#SVGID_1_"  style="overflow:visible;"/>
			</clipPath>
			<g style="clip-path:url(#SVGID_00000051358923180295706020000004138186627784992901_);">
				<path class="st0" d="M607.6,158.6h8.3c3.8,0,5.1,1.9,4.4,5.2s-2.3,4.5-4.3,4.8l0,0c1,0,1.9,0.6,2.3,1.6c0.2,1.1,0.2,2.3-0.2,3.4
					l-0.3,1.6c-0.2,0.8-0.3,1.5-0.2,2.3c0.1,0.3,0.2,0.5,0.5,0.6l-0.1,0.3h-5.9c-0.3-0.4,0-1.9,0.2-2.9s0.3-2,0.5-3
					c0.3-1.7-0.1-2-1.1-2h-1l-1.6,7.8h-5.6L607.6,158.6z M611.4,167h0.8c0.9,0,2-0.4,2.4-2.3c0.3-1.6-0.4-2-1.6-2h-0.6L611.4,167z"
					/>
				<path class="st0" d="M629.5,162.9L629.5,162.9l-0.4,8.1h-2.5L629.5,162.9z M627,158.6l-8.8,19.9h5.7l1.2-3h3.7v3h5.7l-0.5-19.9
					L627,158.6z"/>
			</g>
		</g>
		<g>
			<defs>
				<rect id="SVGID_00000152972628613303198480000000701379949038184616_" x="545" y="157.2" width="207.7" height="21.4"/>
			</defs>
			<clipPath id="SVGID_00000124847689932444772830000016560540368369858234_">
				<use xlink:href="#SVGID_00000152972628613303198480000000701379949038184616_"  style="overflow:visible;"/>
			</clipPath>
			<g style="clip-path:url(#SVGID_00000124847689932444772830000016560540368369858234_);">
				<polygon class="st0" points="648.5,158.4 646,170.6 646,170.6 645.6,158.4 639.6,158.5 635.5,178.4 640.5,178.3 643.1,166.1 
					643.1,166.1 643.7,178.3 649.6,178.3 653.8,158.4 				"/>
				<path class="st0" d="M662.6,163.2c0.2-0.8,0-1.6-1-1.6c-0.8,0.1-1.5,0.7-1.6,1.5c-0.8,4,7.9,1.9,6.4,9c-1,4.6-3.5,6.5-8.6,6.5
					c-4.2,0-6.3-1.4-5.4-5.8l0.1-0.5h5.4l-0.2,0.9c-0.2,1,0.1,1.8,1,1.8s1.5-0.9,1.7-1.8c0.3-1.3-0.2-1.6-0.8-2s-1.6-0.8-2.5-1.3
					c-2.7-1.5-3.5-2.6-2.9-5.5c0.6-2.8,1.7-4.3,3.2-5.2c1.4-0.9,3.1-1.3,4.8-1.2c5.6,0,6,2.8,5.3,6.1h-5.2L662.6,163.2z"/>
			</g>
		</g>
		<g>
			<defs>
				<rect id="SVGID_00000163756224378028619000000004085077550615999628_" x="545" y="157.2" width="207.7" height="21.4"/>
			</defs>
			<clipPath id="SVGID_00000053535311162244053230000008433936111982039998_">
				<use xlink:href="#SVGID_00000163756224378028619000000004085077550615999628_"  style="overflow:visible;"/>
			</clipPath>
			<g style="clip-path:url(#SVGID_00000053535311162244053230000008433936111982039998_);">
				<path class="st0" d="M670.9,158.3h8c2.5,0,3.9,0.9,4.4,2.6s0.5,2.6-0.5,7.3c-0.9,4.3-2.2,9.9-8,10h-8.1L670.9,158.3z
					 M673.2,174.2h1.1c1.4,0,1.9-1.5,2.2-3.1l1.2-5.8c0.4-2,0.4-3-1.3-3h-0.8L673.2,174.2z"/>
				<polygon class="st0" points="686.6,158.2 682.5,178.1 688,178.1 692.2,158.2 				"/>
				<polygon class="st0" points="694.1,158.2 690,178.1 702.2,178 703.1,173.5 696.4,173.5 697.2,170.1 703.1,170.1 704,165.7 
					698,165.7 698.7,162.7 705.1,162.6 706,158.1 				"/>
				<path class="st0" d="M714.6,163c0.2-0.8,0-1.6-1-1.6c-0.8,0.1-1.5,0.7-1.6,1.5c-0.8,4,7.9,1.9,6.4,9c-1,4.6-3.5,6.5-8.6,6.5
					c-4.3,0-6.3-1.4-5.4-5.8l0.1-0.5h5.4l-0.2,0.9c-0.2,1,0.1,1.8,1,1.8s1.5-0.9,1.7-1.8c0.3-1.3-0.1-1.6-0.8-2s-1.6-0.8-2.5-1.3
					c-2.7-1.5-3.5-2.6-2.9-5.5c0.6-2.8,1.7-4.3,3.2-5.2c1.4-0.9,3.1-1.3,4.8-1.2c5.6,0,6,2.8,5.3,6.1h-5.2L714.6,163z"/>
				<polygon class="st0" points="722.9,158.1 734.8,158 733.9,162.5 727.5,162.5 726.9,165.6 732.8,165.6 732,169.9 726,169.9 
					725.3,173.4 731.9,173.4 731,177.9 718.8,177.9 				"/>
			</g>
		</g>
		<g>
			<defs>
				<rect id="SVGID_00000044148874455700454010000000499888033484504235_" x="545" y="157.2" width="207.7" height="21.4"/>
			</defs>
			<clipPath id="SVGID_00000119118021979633334520000003906064803885314485_">
				<use xlink:href="#SVGID_00000044148874455700454010000000499888033484504235_"  style="overflow:visible;"/>
			</clipPath>
			<g style="clip-path:url(#SVGID_00000119118021979633334520000003906064803885314485_);">
				<polygon class="st0" points="736.8,158 742.3,157.9 739.2,173.3 745.2,173.3 744.3,177.8 732.7,177.8 				"/>
				<path class="st0" d="M750.5,172.9c1.1-0.1,2.1,0.8,2.2,2c0,0.2,0,0.4-0.1,0.7c-0.4,1.5-1.7,2.6-3.2,2.7c-1.1,0.1-2.1-0.8-2.2-2
					c0-0.2,0-0.5,0.1-0.7C747.7,174.1,749,173,750.5,172.9 M750.4,173.7c-1.1,0-2,0.8-2.2,1.9c-0.3,0.7,0.1,1.5,0.8,1.8
					c0.2,0.1,0.4,0.1,0.6,0.1c1.1,0,2-0.8,2.2-1.9C752,174.4,751.4,173.7,750.4,173.7 M749.7,175.9L749.7,175.9l-0.3,1.1h-0.7
					l0.6-2.8h1.1c0.7,0,1.1,0.2,1,0.9c-0.1,0.4-0.4,0.8-0.9,0.8l0.4,1.1h-0.8L749.7,175.9z M750.2,175.3c0.3,0,0.4-0.1,0.4-0.3
					s0-0.3-0.3-0.3h-0.4l-0.1,0.6H750.2z"/>
			</g>
		</g>
		<g>
			<defs>
				<rect id="SVGID_00000132070354628979590800000000407296409081704072_" x="545" y="157.2" width="207.7" height="21.4"/>
			</defs>
			<clipPath id="SVGID_00000047742730468989912650000002869113766404079004_">
				<use xlink:href="#SVGID_00000132070354628979590800000000407296409081704072_"  style="overflow:visible;"/>
			</clipPath>
			<g style="clip-path:url(#SVGID_00000047742730468989912650000002869113766404079004_);">
				<polygon class="st0" points="744,168.5 745,168.5 744.4,170 745.9,169.9 745.7,170.4 743.3,170.4 				"/>
				<polygon class="st0" points="747,169 746.1,169 746.3,168.5 749.1,168.5 748.9,169 748,169 747.5,170.4 746.5,170.4 				"/>
			</g>
		</g>
		<g>
			<defs>
				<rect id="SVGID_00000002372809328999298910000014230754351547917448_" x="545" y="157.2" width="207.7" height="21.4"/>
			</defs>
			<clipPath id="SVGID_00000001647460637067491220000008264712550328719502_">
				<use xlink:href="#SVGID_00000002372809328999298910000014230754351547917448_"  style="overflow:visible;"/>
			</clipPath>
			<g style="clip-path:url(#SVGID_00000001647460637067491220000008264712550328719502_);">
				<path class="st0" d="M749.6,168.5h1.5c0.6,0,1.3,0.2,1.3,0.8s-0.8,1.1-1.9,1.1h-1.6L749.6,168.5z M750.1,169.9h0.5
					c0.7,0,0.8-0.4,0.8-0.6s-0.2-0.4-0.6-0.4h-0.4L750.1,169.9z"/>
				<path class="st0" d="M577.4,157.2c-5.7,0-10.2,4.6-10.2,10.3c0,2,0.6,3.9,1.7,5.6l7.3-7.2h-4.7v-3.6l11.2-0.1l0.1,10.9H579v-4.3
					l-7.2,7.2c1.7,1.1,3.7,1.7,5.7,1.7c5.7-0.2,10.1-5,9.9-10.6C587.2,161.6,582.8,157.3,577.4,157.2"/>
				<path class="st0" d="M555.2,157.3c-5.7,0-10.2,4.7-10.2,10.3c0,2,0.6,3.9,1.7,5.5l7.3-7.2h-4.7v-3.6l11.2-0.1l0.1,10.9h-3.8
					v-4.3l-7.2,7.2c4.7,3.1,11.1,1.8,14.2-3c3.1-4.7,1.8-11.1-3-14.2C559.2,157.9,557.2,157.3,555.2,157.3"/>
			</g>
		</g>
		<polygon class="st0" points="591.6,183.4 587.7,202.8 739,202.8 743,183.4 		"/>
		<g>
			<defs>
				<rect id="SVGID_00000144338918712216594440000004342695712168072345_" width="970" height="250"/>
			</defs>
			<clipPath id="SVGID_00000003826456043897621690000000937050556024895648_">
				<use xlink:href="#SVGID_00000144338918712216594440000004342695712168072345_"  style="overflow:visible;"/>
			</clipPath>
			<g style="clip-path:url(#SVGID_00000003826456043897621690000000937050556024895648_);">
				<path d="M719.9,197.3l0.4-2.1h-2l-0.4,2.1H719.9z M713.2,197.3l0.5-2.2l0.7-0.9l0.5,3.1h2.2l-1-5l2.8-4h-2.2l-2.3,3.6l0,0
					l0.8-3.6H713l-1.9,9H713.2z M711.5,191.5l0.2-0.8c0.4-1.8-0.5-2.6-2.3-2.6c-1.7-0.2-3.3,1.1-3.4,2.9l-0.8,3.7
					c-0.4,1.8,0.2,2.9,2.1,2.9c2.2,0,3.3-1.1,3.6-2.6l0.2-1.1h-2.1l-0.2,0.8c-0.1,0.6-0.3,1.3-1.1,1.3c-0.5,0-0.7-0.3-0.6-0.8l1-4.5
					c0.1-0.6,0.4-0.9,1-0.9c0.4,0,0.6,0.4,0.4,1.2l-0.1,0.6L711.5,191.5z M702.4,194h-1.2l1.5-4l0,0L702.4,194z M700,197.3l0.6-1.8
					h1.7l-0.1,1.8h2.1v-9h-2.5l-3.9,9H700z M695,197.3c1.6,0.2,3.1-1,3.3-2.6c0.2-1.1,0.1-1.6-0.7-2.1l0,0c0.7-0.4,1.3-1.1,1.4-1.9
					c0.4-1.8-0.8-2.3-2.4-2.3h-2.8l-1.9,9L695,197.3z M695.7,189.9c0.7,0,1.4,0,1.2,0.9c-0.2,1.1-0.7,1-1.6,1.1L695.7,189.9z
					 M695,193.5c0.9,0,1.5,0,1.3,1.1c-0.3,1.2-0.7,1.1-1.8,1.2L695,193.5z M685.7,193.8h0.7c0.5,0,0.6,0.4,0.5,0.9s-0.3,1.3-0.4,2.1
					c0,0.2,0,0.3,0,0.5h2.3v-0.1c-0.1-0.1-0.1-0.2-0.1-0.3c0-0.6,0.3-2.1,0.4-2.9c0.1-0.5-0.2-1.1-0.8-1.2l0,0
					c0.9-0.3,1.4-1.1,1.5-2.1c0.4-1.8-0.3-2.5-2.1-2.5h-3.1l-1.9,9h2.1L685.7,193.8z M686.5,189.9c1,0,1.5,0,1.2,1.1
					c-0.1,0.6-0.4,1.1-1,1.1H686L686.5,189.9z M676.8,194.8c-0.4,1.9,0.5,2.7,2.3,2.7c1.7,0.2,3.2-1,3.4-2.7l1.4-6.5h-2.1l-1.4,6.7
					c-0.1,0.5-0.4,0.8-0.9,0.9c-0.6,0-0.7-0.4-0.6-0.8l1.4-6.8h-2.1L676.8,194.8z M676.8,190.8c0.4-1.7-0.4-2.7-2.3-2.7
					c-1.7-0.1-3.2,1-3.5,2.7l-0.8,3.7c-0.4,2,0.1,3.1,2.2,3.1s3.1-1.1,3.5-3.1L676.8,190.8z M673.9,194.6c-0.1,0.5-0.3,1.3-1,1.3
					s-0.6-0.8-0.5-1.3l0.8-3.7c0.1-0.6,0.3-1.2,1-1.2s0.6,0.7,0.5,1.2L673.9,194.6z M667.4,188.3h-2.1l1,5.2l-0.8,3.8h2.1l0.8-3.8
					l3.3-5.2h-2.1l-1.7,2.9l0,0L667.4,188.3z M656.6,190.1h1.7l-1.5,7.2h2.1l1.5-7.2h1.7l0.4-1.8H657L656.6,190.1z M656.4,190.8
					c0.4-1.7-0.4-2.7-2.3-2.7c-1.7-0.1-3.2,1-3.5,2.7l-0.8,3.7c-0.4,2,0.1,3.1,2.2,3.1s3.1-1.1,3.5-3.1L656.4,190.8z M653.5,194.6
					c-0.1,0.5-0.3,1.3-1,1.3s-0.6-0.8-0.5-1.3l0.8-3.7c0.1-0.6,0.3-1.2,1-1.2s0.6,0.7,0.5,1.2L653.5,194.6z M648.5,197.3l1-4.9h-2.9
					l-0.3,1.6h0.7l-0.2,0.7c-0.1,0.6-0.3,1.1-1,1.1c-0.6,0-0.7-0.3-0.6-0.8l1-4.5c0.1-0.6,0.4-0.9,1-0.9s0.6,0.4,0.4,1.2l-0.1,0.5
					h2.1l0.1-0.7c0.4-1.8-0.5-2.6-2.3-2.6c-1.7-0.2-3.3,1.1-3.5,2.9c0,0,0,0,0,0l-0.8,3.7c-0.3,1.6,0,2.9,1.8,2.9c0.8,0,1.6-0.3,2-1
					l0,0l-0.1,0.8L648.5,197.3z M639.4,197.3l0.4-1.8h-2.9l0.4-1.9h2.7l0.4-1.8h-2.6l0.4-1.7h2.7l0.4-1.8h-4.8l-1.9,9L639.4,197.3z
					 M632.2,197.3l3.9-9h-2.1l-2.4,6.3l0,0l0.2-6.3h-2.1v9H632.2z M626.4,192.1c1.1,0.1,2.1-0.7,2.3-1.8l0.4-1.9h-1.9l-0.4,1.9h1
					c-0.1,0.6-0.6,1.1-1.2,1.1L626.4,192.1z M624.7,197.3l0.4-1.8h-2.9l0.4-1.9h2.7l0.4-1.8H623l0.4-1.7h2.6l0.4-1.8h-4.8l-1.9,9
					L624.7,197.3z M617.7,188.3h-2l-2.2,6.3l0,0l0.7-6.3h-2l-0.4,9h2.2l2-6.3l0,0l-0.7,6.3h2.4l3.4-9h-2l-2,6.3l0,0L617.7,188.3z"/>
			</g>
		</g>
	</g>
</g>
</svg>
