<svg id="Layer_1" data-name="Layer 1" xmlns="http://www.w3.org/2000/svg" viewBox="0 0 300 250"><path d="M165.85,166.9c0,.48.05,1,.05,1.49s-.15.76-.7.76c-1,0-.61-2.05-2.43-3a5.53,5.53,0,0,0-2.66-.38c-.28,0-.33.13-.33.33v12a6.64,6.64,0,0,0,.28,2.5c.46.94,1.32.88,1.32,1.42,0,.35-.33.48-.71.48h-4.32c-.38,0-.69-.13-.69-.48,0-.61.91-.46,1.34-1.47a7.71,7.71,0,0,0,.23-2.45v-12c0-.18,0-.33-.33-.33a5,5,0,0,0-2.86.5c-1.51.89-1.16,2.86-2.2,2.86-.42,0-.68-.23-.68-.76s0-1,.05-1.49,0-1.21,0-1.92c0-.51.31-.73,1.07-.73s2.09.17,4.32.17h3.74c2.25,0,3.59-.17,4.35-.17.61,0,1,.12,1,.73S165.83,166.27,165.85,166.9Z"/><path d="M176.19,180.93a.41.41,0,0,1,.43.41,1.95,1.95,0,0,1-3.82-.58s0-.13-.05-.13-.05,0-.1.1a4.78,4.78,0,0,1-4.05,2c-2.45,0-3.94-1.51-3.94-3.26a3.28,3.28,0,0,1,1.57-2.75c1.31-.89,2.88-1.17,4.27-1.82a3,3,0,0,0,2.12-2.56,2,2,0,0,0-2.19-2.07,3.51,3.51,0,0,0-2.94,1.87c-.5.71-.58,1.16-1.14,1.16s-.7-.58-.7-1.24a3.33,3.33,0,0,1,.43-1.84c.68-.89,2.73-1.24,4.17-1.24,3.23,0,4.9,1.82,4.9,4.32,0,2-.07,4.3-.07,6.32,0,.89.3,1.29.81,1.29Zm-3.57-5.58s0-.11-.07-.11-.08,0-.18.11c-.88.68-2.55,1.11-3.77,1.92a2.52,2.52,0,0,0-1.26,2.1,1.87,1.87,0,0,0,2,1.92,3.07,3.07,0,0,0,2.73-1.8,8.23,8.23,0,0,0,.53-3.71Z"/><path d="M191.68,182c0,.3-.22.46-.68.46h-4.14c-.51,0-.71-.16-.71-.41,0-.5.73-.43.73-1a2.2,2.2,0,0,0-.58-1.16l-2.1-2.81c-.08-.1-.1-.15-.18-.15s-.12.08-.17.15l-1,1.54a5.48,5.48,0,0,0-1,2.1c0,.84,1.09.66,1.09,1.27,0,.3-.28.48-.73.48h-3.57c-.45,0-.76-.16-.76-.46s.41-.5.84-.78a9.65,9.65,0,0,0,2.2-2.25c.48-.61,1.46-1.93,2.25-3,.07-.1.1-.15.1-.2a.4.4,0,0,0-.1-.23L181,172.89a10.49,10.49,0,0,0-2.15-2.3c-.56-.38-1.06-.4-1.06-.83s.23-.48.68-.48h4.07c.51,0,.71.15.71.45s-.68.46-.68.94a2.62,2.62,0,0,0,.63,1.24l2,2.73c.08.1.13.17.18.17s.1-.05.18-.15c.58-.86,1.26-1.87,1.69-2.63a2.09,2.09,0,0,0,.38-1c0-.76-1.06-.71-1.06-1.26,0-.36.23-.48.71-.48h3.56c.46,0,.76.12.76.45s-.43.51-.84.79a8.58,8.58,0,0,0-2.19,2.25l-2.26,3a.29.29,0,0,0-.07.17.34.34,0,0,0,.07.18l2.08,2.73a9.49,9.49,0,0,0,2.1,2.28C191.13,181.57,191.68,181.59,191.68,182Z"/></svg>