<svg id="Layer_1" data-name="Layer 1" xmlns="http://www.w3.org/2000/svg" viewBox="0 0 300 250"><path d="M214.58,182c0,.33-.3.46-.63.46h-1.69a1.59,1.59,0,0,1-1.54-.91c-.46-.74-1.09-2.58-1.77-4.2-.81-1.92-1.67-3.09-3.24-3.41a6.84,6.84,0,0,0-1.37-.11c-.43,0-.83,0-1,.05s-.27.13-.27.33v3.82a5.82,5.82,0,0,0,.35,2.68c.4.81,1.24.68,1.24,1.27,0,.35-.33.48-.71.48h-4.32c-.38,0-.69-.13-.69-.48s.81-.56,1.24-1.27c.21-.35.36-.91.36-2.68v-9.94c0-1.66,0-2.14-.71-2.55-.33-.2-.76-.28-.76-.68,0-.25.25-.46.68-.46H202l3.9,0c1.77,0,3.76.15,5,1.21a3.85,3.85,0,0,1,1.34,3.06,4.44,4.44,0,0,1-.4,1.9,4.73,4.73,0,0,1-3.72,2.45c-.15,0-.2.08-.2.15s.05.13.2.15c1.8.26,2.53,1.34,3.67,4.07,1.26,3,1.64,3.67,2.22,4C214.26,181.59,214.58,181.69,214.58,182Zm-5.13-13c0-2.73-1.77-3.26-4.35-3.26h-1.54c-.35,0-.5.12-.5.43v6c0,.2.12.35.4.35H205C207.18,172.56,209.45,171.76,209.45,169Z"/><path d="M226.87,179.75c0,.7-1.92,3-5.29,3-3.86,0-6.14-3-6.14-6.49,0-3.7,2.63-7.26,6.55-7.26a5,5,0,0,1,5.16,4.73c0,1.54-.76,1.77-2,1.79H218.3c-.18,0-.28.08-.28.26v.12c0,2.66,1.52,5,4.2,5,2.47,0,3.48-1.72,4.09-1.72A.51.51,0,0,1,226.87,179.75Zm-8.75-5.64c0,.12,0,.15.2.15h4.12c1.47,0,2.13-.3,2.13-1.47a2.69,2.69,0,0,0-2.81-2.55c-2,0-3.31,1.72-3.61,3.59A1.78,1.78,0,0,0,218.12,174.11Z"/><path d="M237.91,180.25a2.37,2.37,0,0,1-.91,1.42,4.38,4.38,0,0,1-2.88,1.08,3.2,3.2,0,0,1-2.75-1.34,5.05,5.05,0,0,1-.71-3c0-2.23.17-4.51.17-7,0-.17-.07-.25-.25-.25H229c-.18,0-.28-.1-.28-.3V170a.3.3,0,0,1,.25-.31,3,3,0,0,0,2-1.16,7.2,7.2,0,0,0,.58-2c0-.2.12-.31.33-.31h1a.27.27,0,0,1,.31.28v2.63c0,.46.1.58.55.58s.71,0,1.29,0,1.24-.12,1.77-.12.81.12.81.45a3.67,3.67,0,0,1-.08.48c-.1.61-.43.78-1.08.78-.46,0-1-.07-1.62-.1s-.91,0-1.37,0a.27.27,0,0,0-.3.3c0,.33-.08,3.11-.08,3.87a28.11,28.11,0,0,0,.11,2.93c.17,2,1,2.56,2,2.56,1.32,0,1.8-1,2.28-1A.43.43,0,0,1,237.91,180.25Z"/><path d="M253.56,181.34c0,.3-.18.48-.68.58a14.67,14.67,0,0,0-2.33.71,1.35,1.35,0,0,1-.53.12c-.35,0-.56-.2-.56-.68V180.5c0-.05,0-.07-.07-.07s-.08,0-.13.12a4.84,4.84,0,0,1-4.09,2.2,3.91,3.91,0,0,1-3.16-1.41,5.43,5.43,0,0,1-.94-3.57v-4.24a4.07,4.07,0,0,0-.25-2.05c-.41-.63-1.44-.46-1.44-1.12,0-.25.17-.42.68-.53a12.22,12.22,0,0,0,2.27-.68,1.46,1.46,0,0,1,.59-.15c.32,0,.55.2.55.66v8.06c0,1.75.81,3.11,2.63,3.11a3,3,0,0,0,2.13-.86c.93-.93,1.23-2.35,1.23-6.22a4.84,4.84,0,0,0-.25-2.27c-.43-.63-1.44-.46-1.44-1.06,0-.28.13-.46.68-.59a12.29,12.29,0,0,0,2.38-.73,1.19,1.19,0,0,1,.48-.13c.33,0,.56.23.56.69v8.57a4.21,4.21,0,0,0,.25,2.07C252.47,180.86,253.56,180.76,253.56,181.34Z"/><path d="M264.86,170.69c0,.61-.2,1.17-.86,1.17s-.94-.56-1.7-.56a1.71,1.71,0,0,0-1.44.89c-.6.91-1,2.09-1,5.86a6.55,6.55,0,0,0,.3,2.58c.45.91,1.29.81,1.29,1.37,0,.35-.3.48-.71.48h-4.17c-.41,0-.71-.13-.71-.48,0-.54.91-.51,1.32-1.42a7.42,7.42,0,0,0,.27-2.53v-4.52a4,4,0,0,0-.32-2c-.46-.65-1.45-.55-1.45-1.11,0-.28.16-.45.69-.56a8.67,8.67,0,0,0,2.07-.68A1.55,1.55,0,0,1,259,169c.38,0,.58.25.58.71v2s0,.1,0,.1.08-.08.1-.13c.53-1.09,1.9-2.68,3.51-2.68A1.54,1.54,0,0,1,264.86,170.69Z"/><path d="M278.51,178a5.92,5.92,0,0,0,.38,2.75c.43.66,1.24.76,1.24,1.22s-.33.48-.71.48h-4.25c-.38,0-.71-.13-.71-.48,0-.51.86-.54,1.27-1.32a6.67,6.67,0,0,0,.33-2.65v-3.95c0-2.2-1.17-3.16-2.66-3.16a3,3,0,0,0-2.17.89c-1,1-1.19,2.32-1.19,6.22a6.26,6.26,0,0,0,.35,2.7c.43.73,1.24.81,1.24,1.27s-.3.48-.68.48h-4.2c-.38,0-.68-.13-.68-.48,0-.54.91-.56,1.29-1.37a7.31,7.31,0,0,0,.3-2.6V173.1a2.84,2.84,0,0,0-.25-1.6c-.41-.6-1.47-.48-1.47-1,0-.28.13-.46.71-.59a11.42,11.42,0,0,0,2.35-.75,1.19,1.19,0,0,1,.48-.13c.33,0,.56.23.56.71v1.49c0,.07,0,.13.07.13s.08-.06.13-.13a4.92,4.92,0,0,1,4.1-2.2,4,4,0,0,1,3.31,1.57,5.37,5.37,0,0,1,.86,3.44Z"/></svg>