<svg id="Layer_1" data-name="Layer 1" xmlns="http://www.w3.org/2000/svg" viewBox="0 0 300 250"><path d="M242.11,149.92a2.33,2.33,0,0,1-.91,1.41,4.33,4.33,0,0,1-2.88,1.09,3.23,3.23,0,0,1-2.76-1.34,5.14,5.14,0,0,1-.71-3c0-2.22.18-4.5.18-7,0-.18-.08-.25-.25-.25h-1.6c-.17,0-.27-.1-.27-.31v-.81a.29.29,0,0,1,.25-.3,3,3,0,0,0,2-1.16,6.88,6.88,0,0,0,.58-2c0-.21.13-.31.33-.31h1c.2,0,.3.1.3.28v2.63c0,.45.1.58.56.58s.71,0,1.29-.05,1.24-.13,1.77-.13.81.13.81.46a3.67,3.67,0,0,1-.08.48c-.1.61-.43.78-1.09.78-.45,0-1-.07-1.61-.1s-.91,0-1.37,0a.27.27,0,0,0-.3.3c0,.33-.08,3.11-.08,3.87,0,.93,0,1.77.1,2.93.18,2,1,2.56,2,2.56,1.31,0,1.79-1,2.27-1A.43.43,0,0,1,242.11,149.92Z"/><path d="M256.54,145.47c0,3.79-2.65,6.95-6.42,6.95s-6.45-2.65-6.45-6.77c0-3.82,2.68-7,6.53-7C254.22,138.67,256.54,141.65,256.54,145.47Zm-6.7-5.54c-2.22,0-3.59,2-3.59,4.78,0,3.49,1.65,6.4,4.12,6.4s3.59-2.43,3.59-4.91C254,143.29,252.68,139.93,249.84,139.93Z"/></svg>