<svg id="Layer_1" data-name="Layer 1" xmlns="http://www.w3.org/2000/svg" viewBox="0 0 300 250"><path d="M104.61,169.73c0,.56-.74.53-1.39,1.29a9.76,9.76,0,0,0-1.32,2.4c-.63,1.47-2.6,6.35-3.49,8.45s-1.82,3.94-3.51,4.93a3.87,3.87,0,0,1-1.9.56,1.81,1.81,0,0,1-2-1.93c0-.63.25-1.23.86-1.23s.91,1.06,2.12,1.06,1.92-1.34,2.43-2.33a.56.56,0,0,0,.07-.25.64.64,0,0,0,0-.23L92.72,173a5.92,5.92,0,0,0-1.28-2.4c-.43-.33-1-.33-1-.81,0-.31.23-.48.78-.48h4.12c.41,0,.66.17.66.45,0,.61-1.19.48-1.19,1.5a4.26,4.26,0,0,0,.41,1.56l2.6,6.45c0,.13,0,.15.1.15s.08,0,.13-.15l1.79-4.55a10.51,10.51,0,0,0,.94-3.14c0-1.36-1.24-1.11-1.24-1.79,0-.33.3-.48.76-.48h3.51C104.33,169.28,104.61,169.4,104.61,169.73Z"/><path d="M118.05,175.8c0,3.79-2.65,6.95-6.42,6.95s-6.44-2.65-6.44-6.77c0-3.82,2.68-7,6.52-7C115.73,169,118.05,172,118.05,175.8Zm-6.7-5.54c-2.22,0-3.59,2-3.59,4.78,0,3.49,1.65,6.4,4.13,6.4s3.59-2.43,3.59-4.91C115.48,173.63,114.19,170.26,111.35,170.26Z"/><path d="M134.05,181.34c0,.3-.17.48-.68.58a14.84,14.84,0,0,0-2.32.71,1.42,1.42,0,0,1-.54.12c-.35,0-.55-.2-.55-.68V180.5c0-.05,0-.07-.08-.07s-.07,0-.12.12a4.87,4.87,0,0,1-4.1,2.2,3.92,3.92,0,0,1-3.16-1.41,5.43,5.43,0,0,1-.94-3.57v-4.24a4.07,4.07,0,0,0-.25-2.05c-.4-.63-1.44-.46-1.44-1.12,0-.25.18-.42.68-.53a12.35,12.35,0,0,0,2.28-.68,1.42,1.42,0,0,1,.58-.15c.33,0,.56.2.56.66v8.06c0,1.75.81,3.11,2.63,3.11a3,3,0,0,0,2.12-.86c.94-.93,1.24-2.35,1.24-6.22a4.84,4.84,0,0,0-.25-2.27c-.43-.63-1.45-.46-1.45-1.06,0-.28.13-.46.69-.59a12.39,12.39,0,0,0,2.37-.73,1.19,1.19,0,0,1,.48-.13c.33,0,.56.23.56.69v8.57a4.21,4.21,0,0,0,.25,2.07C133,180.86,134.05,180.76,134.05,181.34Z"/><path d="M145.35,170.69c0,.61-.2,1.17-.86,1.17s-.93-.56-1.69-.56a1.71,1.71,0,0,0-1.44.89c-.61.91-1,2.09-1,5.86a6.55,6.55,0,0,0,.3,2.58c.46.91,1.29.81,1.29,1.37,0,.35-.3.48-.7.48H137c-.4,0-.7-.13-.7-.48,0-.54.91-.51,1.31-1.42a7.35,7.35,0,0,0,.28-2.53v-4.52a3.84,3.84,0,0,0-.33-2c-.46-.65-1.44-.55-1.44-1.11,0-.28.15-.45.68-.56a8.52,8.52,0,0,0,2.07-.68,1.55,1.55,0,0,1,.61-.15c.38,0,.58.25.58.71v2s0,.1,0,.1.08-.08.1-.13c.54-1.09,1.9-2.68,3.52-2.68A1.54,1.54,0,0,1,145.35,170.69Z"/></svg>