<svg id="Layer_1" data-name="Layer 1" xmlns="http://www.w3.org/2000/svg" viewBox="0 0 300 250"><path d="M67.78,150.3c.48.91,1.29.83,1.29,1.36,0,.36-.33.48-.7.48H64.19c-.38,0-.7-.12-.7-.48,0-.55.86-.45,1.31-1.41a6.76,6.76,0,0,0,.28-2.53v-4c0-1.69-.76-3.11-2.63-3.11a3,3,0,0,0-2.12.84c-.94,1-1.24,2.4-1.24,6.27a7.5,7.5,0,0,0,.25,2.48c.38,1,1.34.91,1.34,1.46,0,.36-.3.48-.71.48H55.8c-.38,0-.68-.12-.68-.48,0-.63,1-.48,1.39-1.61a8.66,8.66,0,0,0,.2-2.33V137.13c0-1.45-.25-1.67-1.92-1.67H51.63c-.28,0-.36.12-.36.33v12a6.28,6.28,0,0,0,.31,2.56c.45.91,1.29.83,1.29,1.36,0,.36-.31.48-.69.48H47.86c-.38,0-.71-.12-.71-.48,0-.53.84-.48,1.27-1.31a6.44,6.44,0,0,0,.33-2.61v-12c0-.21-.08-.33-.33-.33a5.51,5.51,0,0,0-2.68.4c-1.77.94-1.37,3-2.38,3-.51,0-.71-.28-.71-.76,0-.25,0-.88.05-1.57s0-1.26.08-1.84.28-.74,1-.74,2.12.18,4.34.18h3.75a26.92,26.92,0,0,0,4.4-.18c1.18-.2,1.74-.65,2.22-.65.33,0,.56.2.56.68v6.95c0,.05,0,.1.07.1s.08-.05.13-.12a4.84,4.84,0,0,1,4.07-2.2,4,4,0,0,1,3.31,1.57,5.54,5.54,0,0,1,.81,3.43v4.05A6.47,6.47,0,0,0,67.78,150.3Z"/><path d="M82.29,149.41c0,.71-1.92,3-5.28,3-3.87,0-6.15-3-6.15-6.5,0-3.69,2.63-7.25,6.55-7.25a5,5,0,0,1,5.16,4.73c0,1.54-.76,1.77-2,1.79H73.72c-.18,0-.28.08-.28.25v.13c0,2.66,1.52,5,4.2,5,2.48,0,3.49-1.72,4.09-1.72A.51.51,0,0,1,82.29,149.41Zm-8.75-5.64c0,.13,0,.16.2.16h4.12c1.47,0,2.13-.31,2.13-1.47a2.69,2.69,0,0,0-2.81-2.55c-2,0-3.31,1.72-3.61,3.59A1.85,1.85,0,0,0,73.54,143.77Z"/></svg>