<svg xmlns="http://www.w3.org/2000/svg" viewBox="0 0 196.39 42.18"><defs><style>.cls-1{fill:#a5714e;}</style></defs><title>t1-en-300x250</title><g id="Layer_2" data-name="Layer 2"><g id="Layer_1-2" data-name="Layer 1"><path class="cls-1" d="M10.78.35v13.8L.76,3.73V13.92H0V.12L10,10.54V.35Z"/><path class="cls-1" d="M21.89,9.92H16.63l-1.64,4h-.78L19.92,0l5.7,13.92h-2.1Zm-4.95-.76h4.64L19.26,3.5Z"/><path class="cls-1" d="M36.85,1.11H32.7V13.92h-2V1.11H26.55V.35h10.3Z"/><path class="cls-1" d="M50.28,8.42c0,1.89-.22,3.42-1.45,4.62a4.64,4.64,0,0,1-3.35,1.11,5.56,5.56,0,0,1-3.63-1.09c-1.38-1.19-1.69-2.8-1.69-5.52V.35h2V7.92c0,2.4.09,3.55.76,4.42a3,3,0,0,0,2.56,1.05,4,4,0,0,0,2.78-.88c1.1-1,1.25-2.58,1.25-4.13v-8h.77Z"/><path class="cls-1" d="M56.68,7.94l7.18,6H62.72l-6.61-5.5v5.5h-2V.35h3.81c2.71,0,4.95,1.09,4.95,3.8s-2.24,3.79-4.95,3.79Zm.74-.76c2.37,0,3.35-1,3.35-3s-1-3-3.35-3H56.11V7.18Z"/><path class="cls-1" d="M73.67,9.92H68.41l-1.64,4H66L71.7,0l5.7,13.92H75.3Zm-5-.76h4.64L71,3.5Z"/><path class="cls-1" d="M80.85.35h2V13.16h5.23v.76H80.85Z"/><path class="cls-1" d="M91.63.35h2V13.16h5.23v.76H91.63Z"/><path class="cls-1" d="M104.05,7.83,99.63.35h2.28l3.87,6.59L109.64.35h.88L106.05,8v5.92h-2Z"/><path class="cls-1" d="M126.52,1.81a5.25,5.25,0,0,0-2.84-.89c-1.29,0-2.42.58-2.42,1.75s1,1.83,2.68,2.94c2.32,1.58,4,2.77,4,4.9,0,2.74-2.6,3.57-4.65,3.57a6.52,6.52,0,0,1-4-1.22V11.71a6.08,6.08,0,0,0,4,1.61c1.67,0,2.81-.82,2.81-2.24,0-1.27-.88-2.11-2.74-3.43C121,6,119.61,5,119.61,3.21c0-2.17,2.07-3,4.09-3a7.25,7.25,0,0,1,2.82.56Z"/><path class="cls-1" d="M133.46,1.11V6.62h5v.76h-5v5.78h5.94v.76h-7.94V.35h7.94v.76Z"/><path class="cls-1" d="M145.74,7.94l7.18,6h-1.14l-6.61-5.5v5.5h-2V.35H147c2.7,0,5,1.09,5,3.8s-2.25,3.79-5,3.79Zm.74-.76c2.36,0,3.34-1,3.34-3s-1-3-3.34-3h-1.31V7.18Z"/><path class="cls-1" d="M157.93,1.11V6.62h5v.76h-5v5.78h5.94v.76h-7.94V.35h7.94v.76Z"/><path class="cls-1" d="M178.42.35v13.8l-10-10.42V13.92h-.76V.12l10,10.42V.35Z"/><path class="cls-1" d="M184.45,1.11V6.62h5v.76h-5v5.78h5.94v.76h-7.94V.35h7.94v.76Z"/><path class="cls-1" d="M194.84,16.21a2.55,2.55,0,0,0,.78-1.77,2,2,0,0,0-.07-.55,1,1,0,0,1-1.59-.76,1.08,1.08,0,0,1,1.14-1.07c.84,0,1.29.77,1.29,1.81a3.48,3.48,0,0,1-1.55,2.89Z"/><path class="cls-1" d="M9.69,28.38,14,38.7l4.28-10.32H19L13.3,42.18,7.6,28.38Z"/><path class="cls-1" d="M22.49,28.38h2V42h-2Z"/><path class="cls-1" d="M28.62,42V28.38h2.89c2.54,0,4.54.77,4.54,2.95a2.86,2.86,0,0,1-2.13,2.76c2.27.44,3.82,1.85,3.82,3.92,0,2.62-2.48,3.94-5.34,3.94Zm2-12.81v4.73h1.05a2.21,2.21,0,0,0,2.51-2.45c0-1.37-.63-2.28-2.51-2.28Zm0,5.49v6.56h1.6c2.36,0,3.41-1.31,3.41-3.21a3.09,3.09,0,0,0-3.41-3.35Z"/><path class="cls-1" d="M43.72,36l7.19,6H49.77l-6.62-5.51V42h-2V28.38H45c2.71,0,5,1.09,5,3.8S47.67,36,45,36Zm.74-.75c2.37,0,3.35-1,3.35-3s-1-3-3.35-3H43.15v6.07Z"/><path class="cls-1" d="M60.71,38H55.45l-1.64,4H53L58.74,28,64.45,42h-2.1Zm-5-.76H60.4l-2.32-5.66Z"/><path class="cls-1" d="M78.68,28.38v13.8l-10-10.42V42h-.76V28.15l10,10.42V28.38Z"/><path class="cls-1" d="M92.57,29.14H88.41V42h-2V29.14H82.26v-.76H92.57Z"/><path class="cls-1" d="M96.15,28.38h2V41.19h5.24V42H96.15Z"/><path class="cls-1" d="M108.59,35.86l-4.42-7.48h2.28L110.32,35l3.87-6.58h.88L110.59,36V42h-2Z"/><path class="cls-1" d="M134.13,36.44c0,1.9-.22,3.43-1.45,4.63a4.66,4.66,0,0,1-3.36,1.11,5.56,5.56,0,0,1-3.63-1.09c-1.38-1.19-1.69-2.8-1.69-5.53V28.38h2V36c0,2.4.09,3.55.76,4.42a3,3,0,0,0,2.56,1.05,4,4,0,0,0,2.79-.88c1.1-1,1.25-2.58,1.25-4.13v-8h.77Z"/><path class="cls-1" d="M140.52,36l7.19,6h-1.14L140,36.44V42h-2V28.38h3.81c2.71,0,5,1.09,5,3.8s-2.25,3.78-5,3.78Zm.74-.75c2.37,0,3.35-1,3.35-3s-1-3-3.35-3H140v6.07Z"/><path class="cls-1" d="M150.73,42V28.38h2.89c2.54,0,4.54.77,4.54,2.95A2.86,2.86,0,0,1,156,34.09c2.27.44,3.82,1.85,3.82,3.92,0,2.62-2.48,3.94-5.34,3.94Zm2-12.81v4.73h1.05a2.21,2.21,0,0,0,2.51-2.45c0-1.37-.63-2.28-2.51-2.28Zm0,5.49v6.56h1.6c2.36,0,3.41-1.31,3.41-3.21a3.09,3.09,0,0,0-3.41-3.35Z"/><path class="cls-1" d="M169.74,38h-5.26l-1.64,4h-.78L167.77,28,173.48,42h-2.1Zm-5-.76h4.64l-2.32-5.66Z"/><path class="cls-1" d="M187.71,28.38v13.8l-10-10.42V42h-.76V28.15l10,10.42V28.38Z"/></g></g></svg>