<svg xmlns="http://www.w3.org/2000/svg" viewBox="0 0 126.59 82.89"><defs><style>.cls-1{fill:#a5714e;}</style></defs><title>t3-ch-300x250</title><g id="Layer_2" data-name="Layer 2"><g id="Layer_2-2" data-name="Layer 2"><path class="cls-1" d="M41.82,12c-.52,2.73-1.6,6.15-2.9,7.88a10,10,0,0,0-.9-1.83,19.52,19.52,0,0,0,2.58-6.45Zm2-1.85V22.92H42.1V10.17H38.45V8.42H42.1V.13h1.67V8.45h3.08v1.72ZM39.92,7.35a46.56,46.56,0,0,0-1.35-5.27L40,1.75A43.12,43.12,0,0,1,41.35,7Zm5.18,4.3c.45.65,2.15,3.75,2.5,4.5l-1.28,1.37c-.42-1.22-1.75-4.2-2.25-5.17ZM47.5,2.3C46.85,4,46.05,6.2,45.4,7.5l-1.2-.43a39.83,39.83,0,0,0,1.7-5.32ZM59.74,21c0,.9-.17,1.35-.85,1.62a9.27,9.27,0,0,1-3.22.28,6.29,6.29,0,0,0-.52-1.55c1.12.05,2.14.05,2.44,0s.4-.09.4-.37V18.85H50.25a9.26,9.26,0,0,1-1.8,4.37A6,6,0,0,0,47.15,22c1.47-1.88,1.65-4.4,1.65-6.38V11H59.74ZM61.19,8.12V9.55H47.32V8.12h5.9V6.42h-5V5.07h5V3.55H47.6V2.13h5.62V.1H55v2h5.9V3.55H55V5.07h5.45V6.42H55v1.7ZM58,17.52V15.67H50.5c0,.58,0,1.2-.08,1.85Zm-7.49-5v1.85H58V12.5Z"/><path class="cls-1" d="M88.42,11v1.65H78c-.08.68-.18,1.33-.3,1.93H88v1.62H77.25c-1.18,3.43-3.85,5.55-10.4,6.67a6.35,6.35,0,0,0-1-1.67c5.78-.82,8.23-2.42,9.35-5h-8.4V14.55h8.93a13.87,13.87,0,0,0,.32-1.93h-9.8V11h10V8.87H68.52V7.25H76.3v-2H67.15V3.55h5.27A13.59,13.59,0,0,0,70.5.65L72.1,0a12.39,12.39,0,0,1,2.2,3.15l-.9.4H80A27.75,27.75,0,0,0,82.12,0L84,.58a35.72,35.72,0,0,1-2,3h5.32V5.22H78.15v2h8V8.87h-8V11ZM78.2,16.45A62.57,62.57,0,0,1,88.39,21.4L87.52,23A59.62,59.62,0,0,0,77.4,17.82Z"/><path class="cls-1" d="M.1,49.65c5.75-5,8.4-8.68,8.4-11.83,0-2.1-1.1-3.62-3.38-3.62a5.13,5.13,0,0,0-3.8,2.12L0,35a7,7,0,0,1,5.4-2.7c3.27,0,5.32,2.15,5.32,5.43,0,3.65-2.87,7.37-7.17,11.45,1-.08,2.07-.18,3-.18h5.07v2H.1Z"/><path class="cls-1" d="M39.42,51.32a13.59,13.59,0,0,1-4.17-2.1,7.62,7.62,0,0,1-5.3,2.1c-3.33,0-5.58-2.12-5.58-5.07,0-2.45,1.73-4,3.6-5.3a9.76,9.76,0,0,1-1.2-4.28A4.14,4.14,0,0,1,31,32.32,3.38,3.38,0,0,1,34.6,36c0,2.4-2.1,3.95-4.13,5.42a22.47,22.47,0,0,0,4.65,5.18,15.57,15.57,0,0,0,2.6-5.43h2.1a19.71,19.71,0,0,1-3.2,6.55,10.92,10.92,0,0,0,3.43,1.75Zm-9.2-1.82A5.47,5.47,0,0,0,33.72,48a27.82,27.82,0,0,1-4.82-5.47c-1.3,1.05-2.3,2.15-2.3,3.57A3.38,3.38,0,0,0,30.22,49.5Zm-.6-9.63c1.68-1.12,3.13-2.25,3.13-3.87,0-1.08-.5-2-1.75-2s-2.25,1.13-2.25,2.65A7.61,7.61,0,0,0,29.62,39.87Z"/><path class="cls-1" d="M51.8,48.82,53,47.32a6,6,0,0,0,4.55,2.1c2.17,0,3.72-1.3,3.72-3.4s-1.47-3.67-5.7-3.67V40.6c3.78,0,5.08-1.53,5.08-3.5a2.86,2.86,0,0,0-3.1-3A5.71,5.71,0,0,0,53.7,36l-1.23-1.45a7.37,7.37,0,0,1,5.13-2.2c3.07,0,5.32,1.65,5.32,4.6a4.57,4.57,0,0,1-3.27,4.43v.1a4.72,4.72,0,0,1,3.9,4.65c0,3.27-2.63,5.22-5.88,5.22A7.58,7.58,0,0,1,51.8,48.82Z"/><path class="cls-1" d="M93.87,33.57c0,1,0,2.28-.1,3.55,1,6,2.9,11.45,6,14.15a7.7,7.7,0,0,0-1.25,1.35C96,50.27,94.37,46.45,93.22,42a25.07,25.07,0,0,1-4.6,10.89,5.57,5.57,0,0,0-1.45-1.07c.18-.23.35-.45.53-.7H78.05V31.52H88.32v1.63H84.8V37.5h3.32v7.2H84.8v4.75h3.57v.67c3.75-5.77,3.8-12.45,3.8-16.55v-3h1.7Zm-14-.42V37.5h3.28V33.15Zm6.55,6.1H79.87V43h6.55Zm-6.55,10.2h3.25V44.7H79.87Z"/><path class="cls-1" d="M126.59,50.52v1.67h-22V50.52h10v-3.3h-7.75V45.57h7.75V43h1.87v2.62h7.92v1.65h-7.92v3.3ZM106.67,36.67h-1.8v-4.4h10c-.27-.62-.65-1.35-1-1.92l1.77-.52A21.29,21.29,0,0,1,117,32.27h9.24v4.4h-1.87V34h-17.7Zm16.4,7a14.12,14.12,0,0,0-1.42-1.6c-11.85.92-13,1-13.8,1.32a17.32,17.32,0,0,0-.55-1.7,4.14,4.14,0,0,0,1.7-.9,27.44,27.44,0,0,0,3.45-3h-5V36.2h16.47v1.62h-9a35.68,35.68,0,0,1-4.23,3.63l9.65-.68c-.67-.62-1.37-1.22-2-1.75l1.37-.87a34.75,34.75,0,0,1,4.9,4.52Z"/><path class="cls-1" d="M19.75,61.45a33.16,33.16,0,0,1-7.33,10.62,14.33,14.33,0,0,0-1.65-1.5,26,26,0,0,0,7-9.74Zm7,11.87a79.31,79.31,0,0,1,5.6,8.4l-1.85,1c-.35-.71-.83-1.5-1.35-2.4-13,.9-14.32,1-15.3,1.32a11.27,11.27,0,0,0-.72-2c.67-.15,1.4-1,2.35-2.15a56.34,56.34,0,0,0,6.3-9.85l2.07.87A66,66,0,0,1,16.55,79.3l11.54-.65c-1-1.55-2.09-3.18-3.09-4.5Zm.52-12.6c1.21,4,3.7,7.7,6.63,9.63a9.77,9.77,0,0,0-1.45,1.72A20.81,20.81,0,0,1,25.9,62.6H21.25V60.72Z"/><path class="cls-1" d="M60.29,62.2v4.57H58.52V63.82H41.07v2.95h-1.7V62.2h9.75a16.9,16.9,0,0,0-.95-1.85l1.95-.45a16.71,16.71,0,0,1,1.18,2.3Zm-1,18.8c0,.89-.17,1.32-.87,1.59a11,11,0,0,1-3.35.28,5.13,5.13,0,0,0-.52-1.53,25.18,25.18,0,0,0,2.54,0c.33,0,.43-.12.43-.37V75.87h-6.9v2.2L53.65,78c-.3-.43-.6-.85-.93-1.25l1.3-.5a17.93,17.93,0,0,1,2.4,3.72l-1.35.62a6.45,6.45,0,0,0-.53-1.12c-3.94.2-8,.4-10.89.5l-.13-1.6,5.3-.17V75.87H42.17v7H40.42v-7h-1v-1.6h1v-.85h1.75v.85h6.65v-1.6h-6V65.35h14v7.32H50.57v1.6h8.67ZM44.47,68.37h4.35V66.7H44.47Zm4.35,3v-1.7H44.47v1.7Zm6.25-4.65h-4.5v1.67h4.5Zm0,3h-4.5v1.7h4.5Z"/><path class="cls-1" d="M73.72,60.72a35.85,35.85,0,0,1-2.55,5.35v16.8H69.32V69a24.75,24.75,0,0,1-2.47,3,10.09,10.09,0,0,0-1.08-1.85A27.79,27.79,0,0,0,72,60.17Zm15,19.57v1.78H72.65V80.29h7.22V74H74.12V72.22h5.75v-5.5H73.3V65H88.37v1.77H81.72v5.5h5.9V74h-5.9v6.32Zm-8.2-15.57a19.42,19.42,0,0,0-2-4.12L80.15,60a21.33,21.33,0,0,1,2.17,4Z"/><path class="cls-1" d="M96.22,67.87H94.37V62.7h9.68a20.51,20.51,0,0,0-1.1-2.2l1.8-.55a27.44,27.44,0,0,1,1.47,2.75h9v5.17h-1.92V64.45H96.22Zm15.65,12.85c1.37,0,1.62-.57,1.8-3.55a4.85,4.85,0,0,0,1.82.75c-.3,3.62-.9,4.62-3.5,4.62H106.4c-2.93,0-3.73-.67-3.73-3.07V74.9h-7.8V73.1h7.8V69.42c-2,.35-4.15.65-6.12.88A6.79,6.79,0,0,0,96,68.7c5.08-.6,10.88-1.63,14.07-2.9l1.48,1.47a42.73,42.73,0,0,1-6.9,1.83v4h9.47v1.8h-9.47v4.57c0,1,.33,1.25,1.88,1.25Z"/></g></g></svg>