<svg xmlns="http://www.w3.org/2000/svg" viewBox="0 0 231.96 66.1"><defs><style>.cls-1{fill:#a5714e;}</style></defs><title>t3-en-300x250</title><g id="Layer_2" data-name="Layer 2"><g id="Layer_1-2" data-name="Layer 1"><path class="cls-1" d="M91.81,13.83S98,9,98,3.68C98,1.76,97.25.76,95.79.76a3.61,3.61,0,0,0-3.15,2.35V1.73A4,4,0,0,1,96.22,0,3.49,3.49,0,0,1,100,3.72c0,3.77-4.18,7.38-5.16,8.21h6.35l-.71,1.9Z"/><path class="cls-1" d="M112.81,5.51a4.43,4.43,0,0,1-1.14-2.82A2.47,2.47,0,0,1,114.39,0c1.6,0,2.52.9,2.52,2.19s-.87,2.1-2,2.94l4.43,5.67a7.91,7.91,0,0,0,1-3.45h.76a9.09,9.09,0,0,1-1.23,4.1l1.86,2.38h-2.38l-.76-1a6.76,6.76,0,0,1-4.22,1.23c-3.2,0-4.93-1.46-4.93-3.72,0-1.87,1-3.09,3.47-4.78Zm.57.73a4.93,4.93,0,0,0-1.94,3.92,2.88,2.88,0,0,0,3.21,3.17,5.4,5.4,0,0,0,3.42-1.08Zm1-1.73a3.07,3.07,0,0,0,1.13-2.34c0-.74-.28-1.41-1.16-1.41s-1.12.7-1.12,1.3S113.32,3.11,114.41,4.51Z"/><path class="cls-1" d="M132.51,6.14a4.62,4.62,0,0,1,2-.49A2.94,2.94,0,0,0,136,3c0-1.31-.58-2.2-2-2.2a3.72,3.72,0,0,0-3.2,2.35V1.72A3.85,3.85,0,0,1,134.31,0c2.25,0,3.56,1.27,3.56,3a3.43,3.43,0,0,1-1.53,2.87,4.09,4.09,0,0,1,3,4.08c0,2.46-1.73,4.14-5.14,4.14-2.94,0-4-1.22-4-1.22V11.72a4.48,4.48,0,0,0,3.62,1.61c2.09,0,3.48-1.2,3.48-3.26,0-1.4-.66-3.2-2.37-3.54a8.29,8.29,0,0,1-2.59.37Z"/><path class="cls-1" d="M0,39.84V26.26H2.89c2.54,0,4.54.77,4.54,2.95A2.86,2.86,0,0,1,5.3,32c2.27.44,3.81,1.86,3.81,3.93,0,2.62-2.47,3.94-5.33,3.94ZM2,27v4.73h1A2.21,2.21,0,0,0,5.56,29.3c0-1.37-.63-2.28-2.51-2.28Zm0,5.49v6.57H3.6C6,39.08,7,37.77,7,35.87A3.1,3.1,0,0,0,3.6,32.51Z"/><path class="cls-1" d="M14.53,27v5.51h5v.76h-5v5.79h6v.76h-8V26.26h8V27Z"/><path class="cls-1" d="M24.24,39.84V26.26H28c4.15,0,7.43,2.72,7.43,6.79S32.13,39.84,28,39.84Zm2-.76h1.7c3,0,5.37-2.26,5.37-6s-2.39-6-5.37-6h-1.7Z"/><path class="cls-1" d="M41.49,33.85l7.18,6H47.53l-6.61-5.51v5.51h-2V26.26h3.81c2.71,0,5,1.09,5,3.8s-2.24,3.79-5,3.79Zm.74-.76c2.37,0,3.35-1,3.35-3s-1-3-3.35-3H40.92v6.07Z"/><path class="cls-1" d="M58.16,40.1a7.05,7.05,0,1,1,7.28-7.05A7,7,0,0,1,58.16,40.1Zm5.13-7.05c0-3.69-2.06-6.29-5.13-6.29S53,29.36,53,33.05s2.06,6.29,5.14,6.29S63.29,36.76,63.29,33.05Z"/><path class="cls-1" d="M75.89,40.1a7.05,7.05,0,1,1,7.28-7.05A7,7,0,0,1,75.89,40.1ZM81,33.05c0-3.69-2.06-6.29-5.13-6.29s-5.14,2.6-5.14,6.29,2.06,6.29,5.14,6.29S81,36.76,81,33.05Z"/><path class="cls-1" d="M102.64,39.84h-2.06L99,30.27l-5.28,9.8-5.53-9.82-1.57,9.59h-.78L88.12,26l6.25,11.21,6-11.21Z"/><path class="cls-1" d="M119.29,35.84H114l-1.64,4h-.78l5.71-13.92L123,39.84h-2.1Zm-4.94-.76H119l-2.32-5.67Z"/><path class="cls-1" d="M128.48,33.85v6h-2V26.26h3.66c2.7,0,5,1.09,5,3.8s-2.25,3.79-5,3.79Zm0-.76h1.16c2.37,0,3.35-1,3.35-3s-1-3-3.35-3h-1.16Z"/><path class="cls-1" d="M143.67,35.84h-5.25l-1.64,4H136l5.71-13.92,5.7,13.92h-2.1Zm-4.94-.76h4.64l-2.32-5.67Z"/><path class="cls-1" d="M153.43,33.85l7.18,6h-1.14l-6.61-5.51v5.51h-2V26.26h3.81c2.71,0,5,1.09,5,3.8s-2.24,3.79-5,3.79Zm.74-.76c2.37,0,3.34-1,3.34-3s-1-3-3.34-3h-1.31v6.07Z"/><path class="cls-1" d="M172.76,27H168.6V39.84h-2V27h-4.16v-.76h10.3Z"/><path class="cls-1" d="M191.75,39.84h-2.06l-1.58-9.57-5.29,9.8-5.52-9.82-1.57,9.59H175L177.23,26l6.24,11.21,6-11.21Z"/><path class="cls-1" d="M197.58,27v5.51h5v.76h-5v5.79h5.94v.76h-7.94V26.26h7.94V27Z"/><path class="cls-1" d="M218.07,26.26V40.07l-10-10.43v10.2h-.76V26l10,10.43V26.26Z"/><path class="cls-1" d="M232,27H227.8V39.84h-2V27h-4.16v-.76H232Z"/><path class="cls-1" d="M59.37,59.86l7.18,6H65.42L58.8,60.33v5.51h-2V52.27h3.81c2.71,0,5,1.09,5,3.8s-2.24,3.79-5,3.79Zm.74-.76c2.37,0,3.35-1,3.35-3s-1-3-3.35-3H58.8V59.1Z"/><path class="cls-1" d="M71.58,53v5.51h5v.75h-5v5.79h5.94v.76H69.58V52.27h7.94V53Z"/><path class="cls-1" d="M88,53.73a5.26,5.26,0,0,0-2.85-.89c-1.29,0-2.42.58-2.42,1.75s1,1.83,2.68,2.94c2.33,1.58,4,2.76,4,4.9,0,2.74-2.59,3.57-4.65,3.57a6.52,6.52,0,0,1-4-1.22V63.63a6.08,6.08,0,0,0,4,1.61c1.68,0,2.82-.82,2.82-2.24s-.88-2.11-2.75-3.43c-2.3-1.65-3.71-2.67-3.71-4.44,0-2.17,2.07-3.05,4.09-3.05a7.27,7.27,0,0,1,2.83.56Z"/><path class="cls-1" d="M93.05,52.27h2V65.84h-2Z"/><path class="cls-1" d="M99.18,65.84V52.27h3.74c4.14,0,7.43,2.72,7.43,6.79s-3.29,6.78-7.43,6.78Zm2-.76h1.7c3,0,5.37-2.26,5.37-6s-2.39-6-5.37-6h-1.7Z"/><path class="cls-1" d="M115.86,53v5.51h5v.75h-5v5.79h5.94v.76h-7.94V52.27h7.94V53Z"/><path class="cls-1" d="M136.35,52.27v13.8l-10-10.42V65.84h-.76V52l10,10.42V52.27Z"/><path class="cls-1" d="M151.38,54.16a6.93,6.93,0,0,0-4.15-1.39c-3.07,0-5.12,2.53-5.12,6.29s2,6.28,5.11,6.28a6.7,6.7,0,0,0,4.53-1.82v1.25a7.66,7.66,0,0,1-4.54,1.33,7,7,0,1,1,0-14.09,9.18,9.18,0,0,1,4.17,1Z"/><path class="cls-1" d="M157.7,53v5.51h5v.75h-5v5.79h5.94v.76H155.7V52.27h7.94V53Z"/><path class="cls-1" d="M174.13,53.73a5.25,5.25,0,0,0-2.84-.89c-1.29,0-2.42.58-2.42,1.75s1,1.83,2.68,2.94c2.32,1.58,3.95,2.76,3.95,4.9,0,2.74-2.59,3.57-4.65,3.57a6.52,6.52,0,0,1-4-1.22V63.63a6.08,6.08,0,0,0,4,1.61c1.68,0,2.81-.82,2.81-2.24s-.88-2.11-2.74-3.43c-2.3-1.65-3.71-2.67-3.71-4.44,0-2.17,2.07-3.05,4.09-3.05a7.19,7.19,0,0,1,2.82.56Z"/></g></g></svg>