<svg xmlns="http://www.w3.org/2000/svg" viewBox="0 0 86.51 16.82"><defs><style>.cls-1{fill:#ff3008;}.cls-2{fill:#fff;}</style></defs><g id="Layer_2" data-name="Layer 2"><g id="Layer_2-2" data-name="Layer 2"><rect class="cls-1" width="86.51" height="16.82" rx="8.41"/><path class="cls-2" d="M20,6.11h3.69v1H21.06v1h2.06V9H21.06v1.06h2.7v1H20Z"/><path class="cls-2" d="M25.07,6.11H26l2.41,3.08V6.11h1.06v5h-.95L26.13,8v3.09H25.07Z"/><path class="cls-2" d="M32,7.1H30.63v-1h3.89v1H33.11v4H32Z"/><path class="cls-2" d="M35.66,6.11h3.68v1H36.72v1h2.05V9H36.72v1.06h2.69v1H35.66Z"/><path class="cls-2" d="M40.72,6.11h2.2a1.59,1.59,0,0,1,1.73,1.66,1.58,1.58,0,0,1-.42,1.16,1.3,1.3,0,0,1-.43.29l1,1.85H43.66l-.88-1.63h-1v1.63H40.72Zm2.16,2.33a.67.67,0,0,0,0-1.34h-1.1V8.44Z"/><path class="cls-2" d="M47.91,6.11h1l2.41,3.08V6.11h1.06v5h-1L49,8v3.09H47.91Z"/><path class="cls-2" d="M56.34,6a2.59,2.59,0,1,1-2.69,2.59A2.62,2.62,0,0,1,56.34,6Zm0,4.18a1.6,1.6,0,1,0-1.59-1.59A1.59,1.59,0,0,0,56.34,10.18Z"/><path class="cls-2" d="M59.67,6.11h1.1l1,3.33h0l1-3.33h1l1,3.33h0l1-3.33H67l-1.63,5h-1l-1-3.23h-.05l-1,3.23h-1Z"/></g></g></svg>