<svg id="Layer_2" data-name="Layer 2" xmlns="http://www.w3.org/2000/svg" viewBox="0 0 728 90"><defs><style>.cls-1{fill:#fff;}</style></defs><path class="cls-1" d="M707.93,37.2l-3.45,2.33,1.65,3.06a.47.47,0,0,1-.09.56L702,47l0-2.31,2.33-2L702.83,40a.39.39,0,0,1,.18-.54L708,37.18l0,0m1.31,5.5a.58.58,0,0,1-.13.71L699.57,52c-.08.07-.08.11-.08.11l8.5-4.83v1.21a4.26,4.26,0,0,1-.63,2.36,3.75,3.75,0,0,1-1.3,1.23l-8.85,5.11-8.85-5.11a3.69,3.69,0,0,1-1.31-1.23,4.26,4.26,0,0,1-.63-2.36V47.27l8.51,4.83s0,0-.09-.11l-9.54-8.58a.59.59,0,0,1-.13-.71l1.53-3-3.32-2.26v11a6.89,6.89,0,0,0,3.45,6.22l10.38,6,10.37-6A6.89,6.89,0,0,0,711,48.48v-11l-3.33,2.26ZM711,30.37V24.48H683.38v5.89c2.21.43,5.75,1.71,6.57,2.63a9.08,9.08,0,0,0-6.57,0,29.22,29.22,0,0,1,4.8,1.45l-1.76,1.45s1.31-.14,2.9-.15c2.44,0,5.54.25,5.55,1.76l1.41-1.6a1.14,1.14,0,0,0,.3-1c-.24-.9-1.56-2.27-5.35-3.58a29,29,0,0,0-4.81-1.06V27.53H708v2.71a28.86,28.86,0,0,0-4.8,1.06c-3.79,1.31-5.11,2.68-5.35,3.58a1.11,1.11,0,0,0,.3,1l1.4,1.6c0-1.51,3.11-1.79,5.55-1.76,1.59,0,2.9.15,2.9.15l-1.76-1.45A29.56,29.56,0,0,1,711,33a9.08,9.08,0,0,0-6.57,0c.82-.92,4.36-2.2,6.57-2.63m-10.53,8.47L700,42a.17.17,0,0,0,.21.19l2-.49-1.09-.19.37-2.76,2.16-1a.07.07,0,0,0,0,0l-2.89.9a.36.36,0,0,0-.23.26m-14-1.64,3.45,2.33-1.65,3.06a.47.47,0,0,0,.09.56L692.46,47V44.66l-2.32-2,1.44-2.7a.39.39,0,0,0-.18-.54l-4.94-2.23,0,0m7.77,5a.17.17,0,0,0,.21-.19l-.57-3.14a.34.34,0,0,0-.22-.26l-2.89-.9a.07.07,0,0,0,0,0l2.16,1,.36,2.76-1.08.19Zm4.26-22.74h-.75v1h.68c.42,0,.65-.19.65-.49S698.9,19.43,698.52,19.43ZM688.25,20.8V19.51l-.8,1.29Zm14.86-1.33a.87.87,0,0,0-1,.87,1,1,0,0,0,2,0A.87.87,0,0,0,703.11,19.47Zm-19.73-1.65v5.07H711V17.82Zm6.15,4.36h-1.28v-.59H687l-.37.59h-1.5l2.47-3.65h2Zm5,0-.21-2.51-.74,2.51h-1.31l-.7-2.5-.18,2.5h-1.29l.35-3.65h2l.56,2,.58-2h1.94l.36,3.65Zm4.24-.95h-1v.95h-1.31V18.52H699a1.28,1.28,0,0,1,1.45,1.35C700.44,20.66,699.88,21.23,698.79,21.23Zm4.32,1.07a2.12,2.12,0,0,1-2.38-2c0-1.11.92-1.92,2.39-1.92s2.37.81,2.37,1.92A2.11,2.11,0,0,1,703.11,22.3Zm6.2-.12H706V18.53h1.31v2.59h2Zm-27,42.51h-1l-.17.54h-.74l1.08-2.94h.66l1.09,2.94h-.75Zm-.18-.56-.32-1-.32,1Zm4.49,1.1h-.7v-.66l.07-1.52-.72,1.59h-.47L684,63.05l.07,1.52v.66h-.7V62.29h.91l.68,1.45.66-1.45h.92Zm2.77-1.94c0,.57-.43.95-1.13.95h-.48v1H687V62.29h1.18A1,1,0,0,1,689.35,63.29Zm-.7,0a.41.41,0,0,0-.43-.45h-.48v.83h.48C688.52,63.68,688.65,63.52,688.65,63.3Zm2.29,2a1.3,1.3,0,0,1-1.29-1.45v-.11a1.3,1.3,0,1,1,2.57,0v.11A1.29,1.29,0,0,1,690.94,65.27Zm0-2.45c-.38,0-.58.3-.58.88v.12c0,.57.2.88.58.88s.57-.31.57-.88V63.7C691.51,63.12,691.3,62.82,690.94,62.82Zm3.6,1.85v.56H692.6V62.29h.7v2.38Zm1.27-1.59c0-.51.47-.83,1.12-.83s1.1.36,1.1.91h-.7c0-.21-.13-.36-.42-.36s-.41.13-.41.29.21.27.54.38c.64.2,1,.48,1,1s-.43.83-1.09.83-1.22-.3-1.22-1h.69c0,.34.2.45.53.45s.39-.12.39-.27-.08-.28-.53-.42S695.81,63.61,695.81,63.08Zm4.88-.23h-.88v2.38h-.7V62.85h-.87v-.56h2.45Zm1.72,1.84h-1l-.17.54h-.74l1.08-2.94h.65l1.09,2.94h-.74Zm-.18-.56-.32-1-.32,1Zm3.35-1.28h-.88v2.38H704V62.85h-.87v-.56h2.45Zm1,0v.6h1.12V64h-1.12v.68h1.32v.56h-2V62.29h2v.56Zm3.86,2.42a1.29,1.29,0,0,1-1.28-1.45v-.11a1.29,1.29,0,1,1,2.56,0v.11A1.29,1.29,0,0,1,710.44,65.27Zm0-2.45c-.38,0-.58.3-.58.88v.12c0,.57.2.88.58.88s.57-.31.57-.88V63.7C711,63.12,710.8,62.82,710.44,62.82Zm2.36,0v.66h1.14v.56H712.8v1.16h-.7V62.29h2v.56Zm-29.22,3.87c-1.9,0-3.22,1.39-3.22,3.67v.27c0,2.27,1.33,3.66,3.23,3.66s3.21-1.39,3.21-3.66v-.27C686.8,68.11,685.46,66.72,683.58,66.72ZM685,70.66c0,1.43-.51,2.23-1.43,2.23s-1.45-.8-1.45-2.23v-.28c0-1.46.49-2.23,1.44-2.23s1.44.77,1.44,2.23Zm8.42-1.6c0-1.46-1.07-2.24-2.79-2.24h-2.88v7.39h1.75V71.63h1l1.3,2.58h1.88v-.07l-1.55-3A2.09,2.09,0,0,0,693.44,69.06Zm-2.8,1.15h-1.12v-2h1.13a.92.92,0,0,1,1,1C691.69,69.85,691.34,70.21,690.64,70.21Zm4,4h1.74V66.82h-1.74Zm6-2.71h1.25v1.12a1.55,1.55,0,0,1-1,.29c-1.08,0-1.59-.73-1.59-2.19v-.4c0-1.48.54-2.2,1.43-2.2A1.13,1.13,0,0,1,702,69.25h1.68c-.15-1.49-1-2.53-3-2.53-1.85,0-3.15,1.3-3.15,3.61v.39c0,2.31,1.3,3.6,3.25,3.6a3.9,3.9,0,0,0,2.92-1v-3h-3Zm4.21,2.71h1.74V66.82h-1.74Zm7.44-7.39V69.9l.15,1.71-2.81-4.79H707.9v7.39h1.75v-3l-.16-1.74,2.81,4.78h1.76V66.82Z"/></svg>