<svg id="Layer_2" data-name="Layer 2" xmlns="http://www.w3.org/2000/svg" viewBox="0 0 728 90"><defs><style>.cls-1{fill:#ff3008;}.cls-2{fill:#fff;}</style></defs><path class="cls-1" d="M360.13,38.32h2v-2h1.38v2h2v1.5h-2v2h-1.38v-2h-2Z"/><path class="cls-1" d="M371.17,40.24a2.32,2.32,0,0,0,.52.46,2.63,2.63,0,0,0,1.46.44c1,0,1.38-.42,1.38-1,0-1.43-4.2-.79-4.2-3.72,0-1.32,1.14-2.46,3.06-2.46a4,4,0,0,1,2.11.58,3.74,3.74,0,0,1,.71.56l-1.2,1.2a2.94,2.94,0,0,0-.42-.36,2.08,2.08,0,0,0-1.14-.36c-.91,0-1.26.36-1.26.84,0,1.43,4.2.79,4.2,3.72,0,1.38-1.2,2.58-3.18,2.58a4.49,4.49,0,0,1-2.43-.66,3.16,3.16,0,0,1-.81-.66Z"/><path class="cls-1" d="M382.45,34a4.38,4.38,0,1,1-4.56,4.38A4.44,4.44,0,0,1,382.45,34Zm0,7.08a2.7,2.7,0,1,0-2.7-2.7A2.69,2.69,0,0,0,382.45,41.08Z"/><path class="cls-1" d="M392.35,34.18H394l2.88,3.6,2.88-3.6h1.62v8.4h-1.8V37.06l-2.7,3.36-2.7-3.36v5.52h-1.8Z"/><path class="cls-1" d="M404.05,34.18h1.8V39.1a1.86,1.86,0,1,0,3.72,0V34.18h1.8V39.1a3.66,3.66,0,0,1-7.32,0Z"/><path class="cls-1" d="M421.69,41.08a4.53,4.53,0,0,1-.9.84,4.67,4.67,0,0,1-2.7.84,4.38,4.38,0,1,1,0-8.76,4.55,4.55,0,0,1,2.65.84,4.77,4.77,0,0,1,.89.84l-1.2,1.2a3.84,3.84,0,0,0-.61-.6,2.83,2.83,0,0,0-1.73-.6,2.7,2.7,0,1,0,0,5.4,3,3,0,0,0,1.79-.6,2.9,2.9,0,0,0,.61-.6Z"/><path class="cls-1" d="M423.61,34.18h1.8v3.3H429v-3.3h1.8v8.4H429V39.16h-3.6v3.42h-1.8Z"/><path class="cls-1" d="M436.69,34.18h1.62l2.88,3.6,2.88-3.6h1.62v8.4h-1.8V37.06l-2.7,3.36-2.7-3.36v5.52h-1.8Z"/><path class="cls-1" d="M452.47,34a4.38,4.38,0,1,1-4.56,4.38A4.44,4.44,0,0,1,452.47,34Zm0,7.08a2.7,2.7,0,1,0-2.7-2.7A2.69,2.69,0,0,0,452.47,41.08Z"/><path class="cls-1" d="M459.25,34.18H463A2.88,2.88,0,0,1,465.19,39a2.39,2.39,0,0,1-.72.5l1.74,3.12h-2l-1.5-2.76h-1.68v2.76h-1.8Zm3.66,4a1.14,1.14,0,0,0,0-2.28h-1.86v2.28Z"/><path class="cls-1" d="M468.31,34.18h6.24v1.68h-4.44v1.62h3.48V39.1h-3.48v1.8h4.56v1.68h-6.36Z"/><path class="cls-1" d="M476.77,34.18h1.92l-.3,5.82h-1.32Zm1,6.6a1,1,0,1,1-1,1A.95.95,0,0,1,477.73,40.78Z"/><path class="cls-2" d="M243.85,37.19h-1V36h1v-.91a1.81,1.81,0,0,1,2-2.08,2.43,2.43,0,0,1,.7.1,1.43,1.43,0,0,0,.27.09V34.4l-.2-.09a1.59,1.59,0,0,0-.51-.11c-.61,0-.91.33-.91,1V36h1.49v1.23h-1.49v5h-1.3Z"/><path class="cls-2" d="M250.48,35.83a3.25,3.25,0,1,1-3.25,3.25A3.22,3.22,0,0,1,250.48,35.83Zm2,3.25a2,2,0,1,0-2,2A1.92,1.92,0,0,0,252.43,39.08Z"/><path class="cls-2" d="M254.83,36h1.3v.84a5.43,5.43,0,0,1,.48-.48,2.3,2.3,0,0,1,1.41-.49h.32v1.36l-.17,0a2.62,2.62,0,0,0-.35,0A1.78,1.78,0,0,0,256.13,39V42.2h-1.3Z"/><path class="cls-2" d="M260.68,43.5a1.12,1.12,0,0,0,.22.1,1.46,1.46,0,0,0,.56.09,1.19,1.19,0,0,0,1.11-.84l.26-.65L260.29,36h1.43l1.76,4.61L265.23,36h1.43l-2.73,6.95c-.52,1.32-1.23,2-2.27,2a2.48,2.48,0,0,1-.7-.09l-.28-.11Z"/><path class="cls-2" d="M270.24,35.83A3.25,3.25,0,1,1,267,39.08,3.22,3.22,0,0,1,270.24,35.83Zm1.95,3.25a2,2,0,1,0-1.95,2A1.92,1.92,0,0,0,272.19,39.08Z"/><path class="cls-2" d="M274.59,36h1.3V39.6a1.38,1.38,0,0,0,1.43,1.49A1.65,1.65,0,0,0,279,39.34V36h1.3V42.2H279v-.91a3,3,0,0,1-.49.52,2.27,2.27,0,0,1-1.46.52,2.46,2.46,0,0,1-2.47-2.73Z"/><path class="cls-2" d="M287.85,41.29a2.66,2.66,0,0,1-.49.52,2.5,2.5,0,0,1-1.52.52,1.92,1.92,0,0,1-2.08-1.82,2,2,0,0,1,1.82-1.95l2.27-.39a1.19,1.19,0,0,0-1.3-1.17,2,2,0,0,0-1.18.43,2.46,2.46,0,0,0-.44.41l-.85-.84a2.74,2.74,0,0,1,.63-.59,3.11,3.11,0,0,1,1.84-.58,2.41,2.41,0,0,1,2.6,2.4v4h-1.3Zm0-2.08-1.82.32c-.66.12-1,.45-1,.85s.37.85,1,.85a1.77,1.77,0,0,0,1.75-1.83Z"/><path class="cls-2" d="M290.65,36H292v.91a2.14,2.14,0,0,1,.48-.52,2.28,2.28,0,0,1,1.47-.52,2.46,2.46,0,0,1,2.47,2.73V42.2h-1.3V38.56a1.38,1.38,0,0,0-1.43-1.49A1.65,1.65,0,0,0,292,38.82V42.2h-1.3Z"/><path class="cls-2" d="M302.54,41.29a2.45,2.45,0,0,1-.5.52,2.75,2.75,0,0,1-1.64.52,3.27,3.27,0,0,1,0-6.5,2.75,2.75,0,0,1,1.64.52,2.23,2.23,0,0,1,.5.52V33.1h1.3v9.1h-1.3Zm0-2.21a1.89,1.89,0,1,0-1.88,2A1.9,1.9,0,0,0,302.54,39.08Z"/><path class="cls-2" d="M308.13,40a2.29,2.29,0,0,0,.55.52,2.74,2.74,0,0,0,1.66.52c1.18,0,1.82-.65,1.82-1.5s-.64-1.42-1.82-1.42h-1V36.74h1c1,0,1.5-.51,1.5-1.24s-.51-1.23-1.5-1.23a2.64,2.64,0,0,0-1.44.45,2.86,2.86,0,0,0-.51.46l-1-1a4.63,4.63,0,0,1,.75-.61,4.08,4.08,0,0,1,2.17-.62c1.82,0,2.93,1.1,2.93,2.4a2,2,0,0,1-.69,1.58,2.83,2.83,0,0,1-.68.44,3.19,3.19,0,0,1,.85.47,2.21,2.21,0,0,1,.84,1.74c0,1.51-1.23,2.73-3.25,2.73a4.22,4.22,0,0,1-2.39-.68,3.09,3.09,0,0,1-.79-.69Z"/><path class="cls-2" d="M317.23,36h1.3v.91a2.09,2.09,0,0,1,.42-.52,2.05,2.05,0,0,1,1.4-.52,2.27,2.27,0,0,1,1.48.52,2.31,2.31,0,0,1,.47.52,2.14,2.14,0,0,1,.48-.52,2.73,2.73,0,0,1,1.67-.52,2.41,2.41,0,0,1,2.27,2.66V42.2h-1.3V38.49a1.28,1.28,0,0,0-1.3-1.42,1.52,1.52,0,0,0-1.49,1.68V42.2h-1.3V38.49a1.28,1.28,0,0,0-1.3-1.42,1.52,1.52,0,0,0-1.5,1.68V42.2h-1.3Z"/><path class="cls-2" d="M331.86,41.29a2.45,2.45,0,0,1-.5.52,2.48,2.48,0,0,1-1.52.52,1.92,1.92,0,0,1-2.08-1.82,2,2,0,0,1,1.82-1.95l2.28-.39a1.19,1.19,0,0,0-1.3-1.17,2,2,0,0,0-1.19.43,2.46,2.46,0,0,0-.44.41l-.84-.84a2.5,2.5,0,0,1,.62-.59,3.15,3.15,0,0,1,1.85-.58,2.41,2.41,0,0,1,2.6,2.4v4h-1.3Zm0-2.08-1.82.32c-.67.12-1,.45-1,.85s.38.85,1,.85a1.77,1.77,0,0,0,1.76-1.83Z"/><path class="cls-2" d="M335.17,37.19H334V36h.72c.4,0,.58-.2.58-.72V33.88h1.17V36h1.43v1.23h-1.43v2.93c0,.65.3,1,.91,1a1.33,1.33,0,0,0,.51-.09l.21-.1v1.23l-.28.11a2.48,2.48,0,0,1-.7.09,1.82,1.82,0,0,1-1.95-2.08Z"/><path class="cls-2" d="M344.73,41.16a2.43,2.43,0,0,1-.65.58,3.56,3.56,0,0,1-2,.59,3.25,3.25,0,0,1-.06-6.5,3,3,0,0,1,3.05,3.05,4.13,4.13,0,0,1,0,.47l0,.18h-4.82a1.93,1.93,0,0,0,2,1.56,2.38,2.38,0,0,0,1.32-.41,2.53,2.53,0,0,0,.5-.43Zm-1-2.73A1.68,1.68,0,0,0,342,37a1.82,1.82,0,0,0-1.83,1.43Z"/><path class="cls-2" d="M346.42,40.32a2,2,0,0,0,.44.42,2,2,0,0,0,1.18.42c.73,0,1.11-.38,1.11-.78,0-1-3.32-.51-3.32-2.73,0-1,.86-1.82,2.28-1.82a3.28,3.28,0,0,1,1.66.43,2.39,2.39,0,0,1,.55.41l-.85.85a2.09,2.09,0,0,0-.36-.26,2,2,0,0,0-1-.26c-.67,0-1,.32-1,.65,0,1,3.32.52,3.32,2.73,0,1-.9,1.95-2.41,1.95a3,3,0,0,1-1.84-.59,2.5,2.5,0,0,1-.63-.58Z"/></svg>