<?xml version="1.0" encoding="utf-8"?>
<!-- Generator: Adobe Illustrator 26.0.3, SVG Export Plug-In . SVG Version: 6.00 Build 0)  -->
<svg version="1.1" id="Layer_1" xmlns="http://www.w3.org/2000/svg" xmlns:xlink="http://www.w3.org/1999/xlink" x="0px" y="0px"
	 viewBox="0 0 970 250" style="enable-background:new 0 0 970 250;" xml:space="preserve">
<style type="text/css">
	.st0{fill:#FFFFFF;}
</style>
<g>
	<g>
		<path class="st0" d="M61.6,170.4c-6.2,0-10.4-2.6-10.4-10.6c0-1.7,0.2-3.4,0.6-5.1l8.5-0.3c-0.2,1.7-0.4,3.3-0.4,5
			c0,3.3,0.3,4.1,1.6,4.1c1.1,0,1.4-0.8,1.4-3.5c0-5.4-1-6.7-4.3-8.4l-2.6-1.3c-4.2-2.1-5.1-6.9-5.1-11.7c0-7,3.9-10.6,10.3-10.6
			s10.1,3.1,10.1,9.1c0,1.3-0.2,2.6-0.5,3.8l-8.3,0.6c0.2-1.3,0.3-2.7,0.3-4c0-2.3-0.2-3-1.4-3c-1.1,0-1.3,0.7-1.3,2.7
			c0,3.8,1,5.2,3.3,6.4l2.8,1.4c4.9,2.5,6.4,6.4,6.4,13.7C72.6,166.3,68.9,170.4,61.6,170.4z"/>
		<path class="st0" d="M88.3,169.5v-18h-3.2v18h-9.5v-40.7H85v14.5h3.2v-14.5h9.5v40.7L88.3,169.5z"/>
		<path class="st0" d="M101.4,169.5v-40.7h17.5v7.3h-8v8.8h7v7.9h-7v9.1h9.2v7.7L101.4,169.5z"/>
		<path class="st0" d="M122,169.5v-40.7h9.5v33h8.2v7.7L122,169.5z"/>
		<path class="st0" d="M142.1,169.5v-40.7h9.5v33h8.2v7.7L142.1,169.5z"/>
		<path class="st0" d="M185.5,169.5v-18h-3.2v18h-9.5v-40.7h9.5v14.5h3.2v-14.5h9.5v40.7L185.5,169.5z"/>
		<path class="st0" d="M198.6,169.5v-40.7h17.5v7.3h-8v8.8h7v7.9h-7v9.1h9.2v7.7L198.6,169.5z"/>
		<path class="st0" d="M219.2,169.5v-40.7h9.5v33h8.2v7.7L219.2,169.5z"/>
		<path class="st0" d="M239.3,169.5v-40.7h9.5v40.7L239.3,169.5z"/>
		<path class="st0" d="M264.8,169.5l-3-10.4l-3,10.4h-8.3l6.9-20.7l-6.3-20h9.2l2.5,8.9l2.7-8.9h8l-6.3,18.9l7.1,21.9L264.8,169.5z"
			/>
		<path class="st0" d="M297.2,170.4c-7.6,0-11.1-3.5-11.1-9.3v-32.2h9.5v30.6c0,2.3,0.2,3.3,1.7,3.3s1.5-0.9,1.5-3.3v-30.6h9.5v32.3
			C308.2,166.4,305,170.4,297.2,170.4z"/>
		<path class="st0" d="M311.9,169.5v-40.7h9.5v33h8.2v7.7L311.9,169.5z"/>
		<path class="st0" d="M342.7,136.1v33.5h-9.5v-33.5h-5.8v-7.3h21.3v7.3H342.7z"/>
		<path class="st0" d="M364.2,169.5c-0.6-2.4-0.9-4.9-0.9-7.4v-4.9c0-3.5-0.4-4.5-2.2-4.5h-0.6v16.9h-9.5v-40.7H364
			c5.6,0,9.4,3,9.4,10.3c0,6.4-1.4,8.9-6.5,9.5c4.9,0.3,5.7,4.3,5.8,10.7c0.1,3.7,0.7,8.6,1.8,10.2L364.2,169.5z M361.4,134.7h-0.7
			v10.9h1.3c1.3,0,1.7-1.2,1.7-5.5S363.4,134.7,361.4,134.7L361.4,134.7z"/>
		<path class="st0" d="M390,169.5l-1-6.1h-4.6l-1,6.1h-8.3l7.2-40.8h8.9l8.4,40.8H390z M387.5,150.5c-0.2-1.9-0.6-5.9-0.9-9.9
			c-0.2,4-0.5,8.1-0.7,10c-0.3,3.1-0.6,6.8-0.6,6.8h3C388.2,157.4,387.8,153.6,387.5,150.5L387.5,150.5z"/>
	</g>
</g>
</svg>
