<?xml version="1.0" encoding="utf-8"?>
<!-- Generator: Adobe Illustrator 26.0.3, SVG Export Plug-In . SVG Version: 6.00 Build 0)  -->
<svg version="1.1" id="Layer_1" xmlns="http://www.w3.org/2000/svg" xmlns:xlink="http://www.w3.org/1999/xlink" x="0px" y="0px"
	 viewBox="0 0 970 250" style="enable-background:new 0 0 970 250;" xml:space="preserve">
<style type="text/css">
	.st0{fill:#FFFFFF;}
</style>
<g>
	<g>
		<path class="st0" d="M64.8,169.5l-1-6.1h-4.5l-1,6.1h-8.3l7.2-40.8h8.9l8.4,40.8H64.8z M62.3,150.5c-0.2-1.9-0.6-5.9-0.8-9.9
			c-0.2,4-0.5,8.1-0.7,10c-0.3,3.1-0.6,6.8-0.6,6.8h3C63.1,157.4,62.6,153.6,62.3,150.5L62.3,150.5z"/>
		<path class="st0" d="M91.3,169.5c0,0-3.9-12-4.8-15.1c-0.7-2.1-1.2-4.3-1.6-6.5c0.3,5.5,0.4,6.4,0.4,11.2v10.4h-8.6v-40.7h8.4
			c0,0,3.5,11.9,4.2,14.5c0.6,1.8,1,3.6,1.3,5.5c-0.2-4-0.3-7.9-0.3-12v-8H99v40.7L91.3,169.5z"/>
		<path class="st0" d="M113,169.5h-10.4v-40.7h9.7c8.4,0,13.2,3.2,13.2,21.6C125.4,165.8,120.4,169.5,113,169.5z M112.8,136.1H112
			v25.8h0.8c1.8,0,2.8-1.2,2.8-11.9C115.6,136.7,114.8,136.1,112.8,136.1z"/>
		<path class="st0" d="M151.6,155.2h-3.2v14.3h-9.5v-40.7h12c6.7,0,10,3.7,10,12.3C160.8,150.9,157.9,155.2,151.6,155.2z
			 M149.2,136.1h-0.9v11.9h1.1c1.8,0,2-1.5,2-6.7C151.4,136.5,150.8,136.1,149.2,136.1z"/>
		<path class="st0" d="M163.3,169.5v-40.7h17.5v7.3h-8v8.8h7v7.9h-7v9.1h9.2v7.7L163.3,169.5z"/>
		<path class="st0" d="M196.9,169.5c-0.6-2.4-0.9-4.9-0.8-7.4v-4.9c0-3.5-0.4-4.5-2.2-4.5h-0.6v16.9h-9.5v-40.7h12.9
			c5.6,0,9.4,3,9.4,10.3c0,6.4-1.4,8.9-6.5,9.5c4.9,0.3,5.7,4.3,5.8,10.7c0.1,3.7,0.7,8.6,1.8,10.2L196.9,169.5z M194.1,134.7h-0.7
			v10.9h1.4c1.3,0,1.7-1.2,1.7-5.5S196.1,134.7,194.1,134.7L194.1,134.7z"/>
		<path class="st0" d="M218.6,136.1v9.2h6.5v8h-6.5v16.3h-9.5v-40.8h17.1v7.3H218.6z"/>
		<path class="st0" d="M238.7,170.4c-7.5,0-11.4-4.2-11.4-21.3c0-16.3,3.5-20.9,11.4-20.9s11.6,4.2,11.6,20.9
			C250.3,166.5,245.8,170.4,238.7,170.4z M238.8,135.2c-1.4,0-1.6,0.7-1.6,13.9c0,12.5,0.1,13.6,1.6,13.6s1.7-1.1,1.7-13.6
			C240.5,135.9,240.1,135.2,238.8,135.2z"/>
		<path class="st0" d="M266.2,169.5c-0.6-2.4-0.9-4.9-0.8-7.4v-4.9c0-3.5-0.4-4.5-2.2-4.5h-0.6v16.9h-9.5v-40.7H266
			c5.6,0,9.4,3,9.4,10.3c0,6.4-1.4,8.9-6.5,9.5c4.9,0.3,5.7,4.3,5.8,10.7c0,3.7,0.7,8.6,1.8,10.2L266.2,169.5z M263.4,134.7h-0.7
			v10.9h1.3c1.3,0,1.7-1.2,1.7-5.5S265.4,134.7,263.4,134.7L263.4,134.7z"/>
		<path class="st0" d="M298.8,169.5v-14.2c0-5,0.2-14.6,0.2-14.6s-1.1,10.4-1.9,17.8c-0.5,4.2-1.2,11-1.2,11h-6.8
			c0,0-0.8-6.7-1.3-11c-0.9-7.4-2.1-17.8-2.1-17.8s0.3,8.9,0.3,14.5v14.3h-7.7v-40.7h11c0.5,2.9,1.5,9,2.4,15c0.4,3,0.9,7.9,0.9,7.9
			s0.5-5,0.9-7.9c0.8-6.1,1.6-12.3,2.1-15.1h11.3v40.7L298.8,169.5z"/>
		<path class="st0" d="M323.8,169.5l-1-6.1h-4.6l-1,6.1H309l7.2-40.8h8.9l8.4,40.8H323.8z M321.2,150.5c-0.2-1.9-0.6-5.9-0.9-9.9
			c-0.2,4-0.5,8.1-0.7,10c-0.3,3.1-0.6,6.8-0.6,6.8h3C322,157.4,321.6,153.6,321.2,150.5L321.2,150.5z"/>
		<path class="st0" d="M350.2,169.5c0,0-3.9-12-4.8-15.1c-0.7-2.1-1.2-4.3-1.6-6.5c0.3,5.5,0.4,6.4,0.4,11.2v10.4h-8.6v-40.7h8.4
			c0,0,3.5,11.9,4.2,14.5c0.6,1.8,1,3.6,1.3,5.5c-0.2-4-0.3-7.9-0.3-12v-8h8.6v40.7L350.2,169.5z"/>
		<path class="st0" d="M372.1,170.4c-7.4,0-11.3-3.5-11.3-19.7c0-17.3,3.2-22.5,11.4-22.5c6.7,0,10.1,3.8,10.1,10.3
			c0,2.1-0.1,4.3-0.4,6.4l-8.7,0.2c0.2-1.7,0.4-3.5,0.4-5.2c0-3.6,0-4.7-1.4-4.7s-1.6,1-1.6,14.4c0,12.4,0.2,13,1.8,13
			s1.5-2.1,1.5-5.8c0-1.8-0.1-3.6-0.4-5.4l8.9,0.1c0.3,2.2,0.4,4.4,0.4,6.6C382.8,166,378.7,170.4,372.1,170.4z"/>
		<path class="st0" d="M385.5,169.5v-40.7H403v7.3h-8v8.8h7v7.9h-7v9.1h9.2v7.7L385.5,169.5z"/>
	</g>
</g>
</svg>
