<?xml version="1.0" encoding="utf-8"?>
<!-- Generator: Adobe Illustrator 26.0.3, SVG Export Plug-In . SVG Version: 6.00 Build 0)  -->
<svg version="1.1" id="Layer_1" xmlns="http://www.w3.org/2000/svg" xmlns:xlink="http://www.w3.org/1999/xlink" x="0px" y="0px"
	 viewBox="0 0 970 250" style="enable-background:new 0 0 970 250;" xml:space="preserve">
<style type="text/css">
	.st0{fill:#FFFFFF;}
</style>
<g>
	<g>
		<path class="st0" d="M61,87.4v9.2h6.5v8H61v16.3h-9.5V80.2h17.1v7.3H61z"/>
		<path class="st0" d="M84.2,120.9c-0.6-2.4-0.9-4.9-0.8-7.4v-4.9c0-3.5-0.4-4.5-2.2-4.5h-0.6v16.9h-9.5V80.2h12.9
			c5.6,0,9.4,3,9.4,10.3c0,6.4-1.4,8.9-6.5,9.5c4.9,0.3,5.7,4.3,5.8,10.7c0,3.7,0.7,8.6,1.8,10.2H84.2z M81.3,86.1h-0.8V97h1.4
			c1.3,0,1.7-1.2,1.7-5.5S83.3,86.1,81.3,86.1z"/>
		<path class="st0" d="M106.9,121.8c-7.5,0-11.3-4.2-11.3-21.3c0-16.3,3.5-20.9,11.3-20.9s11.6,4.2,11.6,20.9
			C118.5,117.9,114.1,121.8,106.9,121.8z M107,86.6c-1.4,0-1.7,0.7-1.7,13.9c0,12.5,0.1,13.6,1.7,13.6s1.7-1.1,1.7-13.6
			C108.7,87.3,108.3,86.6,107,86.6L107,86.6z"/>
		<path class="st0" d="M141.7,120.9v-14.2c0-5,0.2-14.6,0.2-14.6s-1.1,10.4-1.9,17.8c-0.5,4.2-1.2,11-1.2,11h-6.8
			c0,0-0.7-6.7-1.3-11c-0.9-7.4-2.1-17.8-2.1-17.8s0.3,8.9,0.3,14.5v14.3h-7.7V80.2h11c0.5,2.9,1.5,9,2.4,15c0.4,3,0.9,7.9,0.9,7.9
			s0.5-5,0.9-7.8c0.8-6.1,1.6-12.3,2.1-15.1h11.3v40.7L141.7,120.9z"/>
		<path class="st0" d="M173.9,79.9c7.8,0,10.8,5.2,10.8,21c0,17.3-4.4,20.5-11.2,20.5c-5.8,0-9-2.9-9-7.7c0-1.3,0.1-2.6,0.4-3.9
			l7.9-0.2c-0.3,1.1-0.4,2.2-0.4,3.3c0,1.7,0.4,2.6,1.5,2.6c1.9,0,2-1.3,2-8.4c0-1,0-2-0.1-3c-0.7,1.7-2.4,2.7-4.2,2.5
			c-5,0-8.5-4-8.5-12.7C163.1,83.3,167.4,79.9,173.9,79.9z M173.9,86.2c-1.3,0-1.7,0.6-1.7,7.3s0.4,7.3,1.7,7.3s1.8-0.8,1.8-7.3
			S175.3,86.2,173.9,86.2z"/>
		<path class="st0" d="M197.4,79.9c7.9,0,10.8,5.2,10.8,21c0,17.3-4.4,20.5-11.2,20.5c-5.8,0-9-2.9-9-7.7c0-1.3,0.1-2.6,0.4-3.9
			l7.9-0.2c-0.3,1.1-0.4,2.2-0.4,3.3c0,1.7,0.4,2.6,1.5,2.6c1.9,0,2-1.3,2-8.4c0-1,0-2,0-3c-0.7,1.7-2.4,2.7-4.2,2.5
			c-5,0-8.5-4-8.5-12.7C186.6,83.3,191,79.9,197.4,79.9z M197.4,86.2c-1.3,0-1.7,0.6-1.7,7.3s0.4,7.3,1.7,7.3s1.8-0.8,1.8-7.3
			S198.9,86.2,197.4,86.2z"/>
		<path class="st0" d="M211,120.9v-9.3h8.7v9.3H211z"/>
		<path class="st0" d="M232.6,121.4c-6.2,0-10-3.1-10-9.3c0-1.7,0.2-3.3,0.6-4.9l8.4-0.5c-0.3,1.3-0.4,2.6-0.4,3.9
			c0,3.3,0.2,4.1,1.4,4.1c1.4,0,1.5-0.8,1.5-8.7c0-6.3-0.2-7.1-1.7-7.1c-1.3,0-1.7,1-1.6,3.9l-7.7-0.2l0.2-22.5h17.8
			c0,1,0,2.1-0.1,3c0,1.6-0.2,3.1-0.4,4.7h-10.3l-0.5,6.3c1-1.4,2.7-2.2,4.4-2.1c5.1,0,9.1,3.7,9.1,13.9
			C243.5,118,239.1,121.4,232.6,121.4z"/>
		<path class="st0" d="M253.4,102.8c-4.8,0-8.2-2.4-8.2-11.3c0-9.8,3.9-11.6,8.2-11.6c5,0,8.2,1.8,8.2,11.6
			C261.6,99.6,258.4,102.8,253.4,102.8z M252.1,120.9h-5.1l27.2-40.3h5.1L252.1,120.9z M253.3,84.8c-0.9,0-1.1,1-1.1,6.5
			s0.2,6.5,1.1,6.5c1.1,0,1.2-0.9,1.2-6.4S254.4,84.8,253.3,84.8z M273.4,121.4c-4.8,0-8.2-2.4-8.2-11.3c0-9.8,3.9-11.6,8.2-11.6
			c5,0,8.2,1.8,8.2,11.6C281.5,118.2,278.3,121.4,273.4,121.4z M273.2,103.5c-1,0-1.1,1-1.1,6.5s0.2,6.5,1.1,6.5
			c1.1,0,1.2-0.9,1.2-6.4S274.4,103.5,273.2,103.5z"/>
	</g>
</g>
</svg>
