<?xml version="1.0" encoding="utf-8"?>
<!-- Generator: Adobe Illustrator 26.0.3, SVG Export Plug-In . SVG Version: 6.00 Build 0)  -->
<svg version="1.1" id="Layer_1" xmlns="http://www.w3.org/2000/svg" xmlns:xlink="http://www.w3.org/1999/xlink" x="0px" y="0px"
	 viewBox="0 0 970 250" style="enable-background:new 0 0 970 250;" xml:space="preserve">
<style type="text/css">
	.st0{fill:#FFFFFF;}
</style>
<g>
	<g>
		<path class="st0" d="M62.8,120.9H51.5V80.2h11.7c7.2,0,9.8,3.6,9.8,10.6c0,5-2,8.3-5.6,8.5c3.9,0,6.8,3.6,6.8,10.2
			C74.3,117.8,69.8,120.9,62.8,120.9z M61.8,87.2h-1V96h1c1.4,0,2.1-0.8,2.1-4.6C64,88,63.2,87.2,61.8,87.2L61.8,87.2z M61.8,102.4
			h-1v11.3h1.1c2,0,2.5-1.1,2.5-5.2C64.5,103.6,63.6,102.4,61.8,102.4L61.8,102.4z"/>
		<path class="st0" d="M87.5,121.8c-7.5,0-11.3-4.2-11.3-21.3c0-16.3,3.5-20.9,11.3-20.9s11.6,4.2,11.6,20.9
			C99.1,117.9,94.7,121.8,87.5,121.8z M87.6,86.6c-1.4,0-1.7,0.7-1.7,13.9c0,12.5,0.1,13.6,1.7,13.6s1.7-1.1,1.7-13.6
			C89.3,87.3,88.9,86.6,87.6,86.6z"/>
		<path class="st0" d="M115.1,120.9c-0.6-2.4-0.9-4.9-0.8-7.4v-4.9c0-3.5-0.4-4.5-2.2-4.5h-0.6v16.9H102V80.2h12.9
			c5.6,0,9.4,3,9.4,10.3c0,6.4-1.4,8.9-6.5,9.5c4.9,0.3,5.7,4.3,5.8,10.7c0,3.7,0.7,8.6,1.8,10.2H115.1z M112.2,86.1h-0.7V97h1.4
			c1.3,0,1.7-1.2,1.7-5.5S114.2,86.1,112.2,86.1z"/>
		<path class="st0" d="M141.9,120.9c0,0-3.9-12-4.8-15.1c-0.7-2.1-1.2-4.3-1.6-6.5c0.3,5.5,0.4,6.4,0.4,11.2v10.4h-8.6V80.2h8.4
			c0,0,3.5,11.9,4.2,14.5c0.6,1.8,1,3.6,1.3,5.5c-0.2-4-0.3-7.9-0.3-12v-8h8.6v40.7L141.9,120.9z"/>
		<path class="st0" d="M173.2,87.4v9.2h6.5v8h-6.5v16.3h-9.5V80.2h17.1v7.3H173.2z"/>
		<path class="st0" d="M193.3,121.8c-7.5,0-11.4-4.2-11.4-21.3c0-16.3,3.5-20.9,11.4-20.9s11.7,4.2,11.7,20.9
			C205,117.9,200.5,121.8,193.3,121.8z M193.4,86.6c-1.4,0-1.6,0.7-1.6,13.9c0,12.5,0.1,13.6,1.6,13.6s1.7-1.1,1.7-13.6
			C195.1,87.3,194.8,86.6,193.4,86.6z"/>
		<path class="st0" d="M220.9,120.9c-0.6-2.4-0.9-4.9-0.9-7.4v-4.9c0-3.5-0.4-4.5-2.2-4.5h-0.6v16.9h-9.5V80.2h12.9
			c5.6,0,9.4,3,9.4,10.3c0,6.4-1.4,8.9-6.5,9.5c4.9,0.3,5.7,4.3,5.8,10.7c0.1,3.7,0.7,8.6,1.8,10.2H220.9z M218.1,86.1h-0.7V97h1.4
			c1.3,0,1.7-1.2,1.7-5.5S220.1,86.1,218.1,86.1z"/>
		<path class="st0" d="M256.3,106.6h-3.2v14.3h-9.5V80.2h12c6.7,0,10,3.7,10,12.3C265.6,102.2,262.6,106.6,256.3,106.6z M254,87.4
			h-0.8v11.9h1.1c1.8,0,2-1.5,2-6.7C256.2,87.9,255.6,87.4,254,87.4z"/>
		<path class="st0" d="M281.1,120.9c-0.6-2.4-0.9-4.9-0.8-7.4v-4.9c0-3.5-0.4-4.5-2.2-4.5h-0.6v16.9h-9.5V80.2h12.9
			c5.6,0,9.4,3,9.4,10.3c0,6.4-1.4,8.9-6.5,9.5c4.9,0.3,5.7,4.3,5.8,10.7c0,3.7,0.7,8.6,1.8,10.2H281.1z M278.3,86.1h-0.7V97h1.4
			c1.3,0,1.7-1.2,1.7-5.5S280.3,86.1,278.3,86.1z"/>
		<path class="st0" d="M303.9,121.8c-7.5,0-11.3-4.2-11.3-21.3c0-16.3,3.5-20.9,11.3-20.9s11.6,4.2,11.6,20.9
			C315.5,117.9,311.1,121.8,303.9,121.8z M304,86.6c-1.4,0-1.6,0.7-1.6,13.9c0,12.5,0.1,13.6,1.6,13.6s1.7-1.1,1.7-13.6
			C305.7,87.3,305.3,86.6,304,86.6L304,86.6z"/>
		<path class="st0" d="M331.6,87.4v33.5h-9.5V87.4h-5.8v-7.3h21.3v7.3H331.6z"/>
		<path class="st0" d="M340.1,120.9V80.2h17.5v7.3h-8v8.8h7v8h-7v9.1h9.2v7.7L340.1,120.9z"/>
		<path class="st0" d="M370.9,121.8c-7.4,0-11.3-3.5-11.3-19.7c0-17.3,3.2-22.5,11.4-22.5c6.7,0,10.1,3.8,10.1,10.3
			c0,2.1-0.1,4.3-0.4,6.4l-8.7,0.2c0.2-1.7,0.4-3.5,0.4-5.2c0-3.6,0-4.7-1.4-4.7s-1.6,1-1.6,14.4c0,12.3,0.2,13,1.8,13
			s1.5-2.1,1.5-5.8c0-1.8-0.1-3.6-0.4-5.3l8.9,0.1c0.3,2.2,0.4,4.4,0.4,6.6C381.5,117.4,377.5,121.8,370.9,121.8z"/>
		<path class="st0" d="M398,87.4v33.5h-9.5V87.4h-5.8v-7.3h21.3v7.3H398z"/>
		<path class="st0" d="M406.5,120.9V80.2h9.5v40.7H406.5z"/>
		<path class="st0" d="M430.1,121.8c-7.5,0-11.4-4.2-11.4-21.3c0-16.3,3.5-20.9,11.4-20.9s11.6,4.2,11.6,20.9
			C441.7,117.9,437.3,121.8,430.1,121.8z M430.2,86.6c-1.4,0-1.6,0.7-1.6,13.9c0,12.5,0.1,13.6,1.6,13.6s1.7-1.1,1.7-13.6
			C431.9,87.3,431.5,86.6,430.2,86.6z"/>
		<path class="st0" d="M459.3,120.9c0,0-3.9-12-4.8-15.1c-0.7-2.1-1.2-4.3-1.6-6.5c0.3,5.5,0.4,6.4,0.4,11.2v10.4h-8.6V80.2h8.4
			c0,0,3.5,11.9,4.2,14.5c0.6,1.8,1,3.6,1.3,5.5c-0.2-4-0.3-7.9-0.3-12v-8h8.7v40.7L459.3,120.9z"/>
	</g>
</g>
</svg>
