<?xml version="1.0" encoding="utf-8"?>
<!-- Generator: Adobe Illustrator 26.0.3, SVG Export Plug-In . SVG Version: 6.00 Build 0)  -->
<svg version="1.1" id="Layer_1" xmlns="http://www.w3.org/2000/svg" xmlns:xlink="http://www.w3.org/1999/xlink" x="0px" y="0px"
	 viewBox="0 0 970 250" style="enable-background:new 0 0 970 250;" xml:space="preserve">
<style type="text/css">
	.st0{fill:#FFFFFF;}
	.st1{clip-path:url(#SVGID_00000020367074384989074160000005713503252666913682_);}
	.st2{fill:#FFD200;}
	.st3{fill:#EE3124;}
	.st4{fill:#005596;}
</style>
<g>
	<g>
		<rect x="344.5" y="158" class="st0" width="148" height="44.4"/>
		<g>
			<defs>
				<rect id="SVGID_1_" x="344.5" y="158" width="148" height="44.4"/>
			</defs>
			<clipPath id="SVGID_00000008134204801336137330000010938435747376955809_">
				<use xlink:href="#SVGID_1_"  style="overflow:visible;"/>
			</clipPath>
			<g style="clip-path:url(#SVGID_00000008134204801336137330000010938435747376955809_);">
				<path class="st0" d="M363.2,187.9l0.7,5.7h7.7l0.4,0.3c0.4,0.3,0.9,0.4,1.5,0.4c0.5,0,1-0.1,1.4-0.4l0.5-0.4h7.7l0.7-5.7
					l4.5-3.3c0.2-1,0.4-2,0.3-3c0.2-8.4-6.4-15.4-14.8-15.6c-8.4-0.2-15.4,6.4-15.6,14.8c0,0.3,0,0.5,0,0.8c0,1,0.1,2,0.4,3
					L363.2,187.9z"/>
				<path class="st2" d="M359.2,184.3c-0.2-0.9-0.3-1.9-0.3-2.8c0-8.1,6.6-14.7,14.7-14.7c8.1,0,14.7,6.6,14.7,14.7c0,0,0,0,0,0
					c0,1-0.1,1.9-0.3,2.8l-4.5,3.3l-0.7,5.5h-7.5l-0.5,0.4c-0.4,0.3-0.8,0.4-1.2,0.4c-0.5,0-0.9-0.2-1.3-0.5l-0.4-0.3h-7.5l-0.7-5.5
					L359.2,184.3z"/>
				<path class="st3" d="M359.2,184.3c-0.2-0.9-0.3-1.9-0.3-2.8c0-8.1,6.6-14.7,14.7-14.7c8.1,0,14.7,6.6,14.7,14.7c0,0,0,0,0,0
					c0,1-0.1,1.9-0.3,2.8l-4.5,3.3l-0.7,5.5h-7.5l-0.5,0.4c-0.4,0.3-0.8,0.4-1.2,0.4c-0.5,0-0.9-0.2-1.3-0.5l-0.4-0.3h-7.5l-0.7-5.5
					L359.2,184.3z M372.1,190.5l0.6,0.5c0.5,0.4,1.2,0.4,1.7,0l0.6-0.5h5.5l0.6-4.5l4.4-3.2c0.1-0.5,0.2-1,0.2-1.5
					c0-0.8-0.2-1.7-0.5-2.4l0,0l-7.9,7.9l7.6-9.4c-0.3-1.2-0.9-2.4-1.8-3.2l0,0l-6.9,11.8l6-12.9V173c-0.8-1-1.8-1.8-3.1-2.2
					l-4.2,14.7l3-15.3c-0.9-0.5-2-0.8-3.1-0.8c-0.2,0-0.5,0-0.7,0l-0.6,15.9l-0.7-15.9c-0.3,0-0.4,0-0.6,0c-1.1,0-2.1,0.3-3,0.8
					h-0.1l3.2,15.3l-4.2-14.7c-1.3,0.4-2.3,1.2-3.1,2.2l6.1,12.9l-6.8-11.9c-1,0.9-1.7,2-2,3.3l7.6,9.4l-7.9-8l0,0
					c-0.4,0.8-0.5,1.6-0.5,2.5c0,0.5,0.1,1,0.2,1.5l4.4,3.2l0.5,4.4L372.1,190.5z"/>
				<path class="st4" d="M407.1,175.3c-0.4-0.3-0.8-0.5-1.3-0.5c-0.4,0-0.8,0.2-0.8,0.6s0.5,0.6,0.9,0.7l0.5,0.1
					c1,0.3,1.8,0.8,1.8,2c0.1,0.7-0.2,1.5-0.8,2c-0.6,0.5-1.3,0.7-2.1,0.7c-0.9,0-1.8-0.3-2.6-0.8l0.8-1.6c0.5,0.5,1.1,0.7,1.7,0.8
					c0.5,0,0.9-0.2,0.9-0.8s-0.8-0.7-1.2-0.8c-1.2-0.4-2-0.7-2-2.1c0-1.3,1-2.4,2.3-2.5c0.1,0,0.2,0,0.2,0c0.8,0,1.6,0.2,2.3,0.6
					L407.1,175.3z"/>
				<path class="st4" d="M410.6,172.6v3.8l0,0c0.4-0.5,1-0.8,1.6-0.8c1.3,0,1.9,0.8,1.9,2.1v3.1h-1.8v-2.6c0-0.6-0.1-1.2-0.8-1.2
					s-0.9,0.6-0.9,1.2v2.6h-1.8v-8.2L410.6,172.6z"/>
				<path class="st4" d="M420.2,178.6h-3.8c-0.1,0.5,0.3,1,0.9,1.1c0.1,0,0.2,0,0.3,0c0.4,0,0.7-0.1,0.9-0.5h1.7
					c-0.3,1.1-1.4,1.8-2.6,1.7c-1.4,0.2-2.7-0.9-2.9-2.3c0-0.1,0-0.3,0-0.4c0.1-1.5,1.5-2.7,3-2.6c1.4,0.1,2.5,1.3,2.6,2.7
					L420.2,178.6z M418.5,177.6c-0.1-0.6-0.7-0.9-1.3-0.8c-0.4,0.1-0.7,0.4-0.8,0.8H418.5z"/>
				<rect x="420.8" y="172.6" class="st4" width="1.8" height="8.2"/>
				<rect x="423.5" y="172.6" class="st4" width="1.8" height="8.2"/>
				<polygon class="st4" points="431.3,179.2 433.6,179.2 433.6,180.8 429.4,180.8 429.4,173.4 431.3,173.4 				"/>
				<path class="st4" d="M435.8,175.8v2.7c0,0.6,0.1,1.1,0.9,1.1s0.9-0.4,0.9-1.1v-2.7h1.8v3c0,1.7-1.2,2.2-2.7,2.2
					s-2.7-0.5-2.7-2.2v-3H435.8z"/>
				<path class="st4" d="M440.2,172.6h1.8v3.6c0.4-0.4,1-0.7,1.6-0.7c1.5,0.1,2.6,1.4,2.5,2.9c-0.1,1.3-1.2,2.3-2.5,2.5
					c-0.6,0-1.2-0.2-1.5-0.7l0,0v0.6h-1.8L440.2,172.6z M441.9,178.3c0,0.6,0.5,1.1,1.2,1.1c0.6,0,1.1-0.5,1.1-1.1
					c0-0.6-0.5-1.1-1.2-1.1C442.4,177.1,441.9,177.6,441.9,178.3"/>
				<path class="st4" d="M448.5,176.6L448.5,176.6c0.3-0.6,1-0.9,1.6-0.9h0.3v1.7c-0.2-0.1-0.5-0.2-0.8-0.2c-1,0-1.2,0.7-1.2,1.5v2
					h-1.8v-5.1h1.8L448.5,176.6z"/>
				<path class="st4" d="M452.8,173.8c0,0.6-0.4,1-1,1s-1-0.4-1-1s0.4-1,1-1S452.8,173.3,452.8,173.8 M452.7,180.8h-1.8v-5.1h1.8
					V180.8z"/>
				<path class="st4" d="M457.3,177.4c-0.3-0.2-0.6-0.3-0.9-0.4c-0.7,0-1.2,0.5-1.2,1.2c0,0,0,0,0,0.1c0,0.7,0.5,1.2,1.1,1.2
					c0,0,0.1,0,0.1,0c0.3,0,0.6-0.1,0.9-0.3v1.5c-0.4,0.2-0.8,0.3-1.3,0.3c-1.5,0-2.7-1.1-2.7-2.6c0,0,0,0,0,0
					c0-1.5,1.2-2.7,2.7-2.7c0.1,0,0.1,0,0.2,0c0.4,0,0.8,0.1,1.2,0.3L457.3,177.4z"/>
				<path class="st4" d="M463.6,180.8h-1.8v-0.6l0,0c-0.4,0.5-0.9,0.8-1.5,0.7c-1.5,0-2.7-1.2-2.7-2.7s1.2-2.7,2.7-2.7
					c0.6,0,1.2,0.2,1.6,0.7v-0.5h1.8L463.6,180.8z M459.6,178.3c0,0.6,0.5,1.1,1.2,1.1c0.6,0,1.1-0.5,1.1-1.1c0-0.6-0.5-1.1-1.2-1.1
					C460.1,177.1,459.6,177.6,459.6,178.3"/>
				<path class="st4" d="M466.3,176.4L466.3,176.4c0.3-0.6,1-0.9,1.6-0.8c1.4,0,1.9,0.9,1.9,2.1v3.1H468v-2.5c0-0.5,0.1-1.3-0.8-1.3
					c-0.7,0-0.9,0.5-0.9,1.2v2.6h-1.8v-5.1h1.8L466.3,176.4z"/>
				<polygon class="st4" points="472.7,180.8 470.9,180.8 470.9,177.2 470.3,177.2 470.3,175.8 470.9,175.8 470.9,174.2 
					472.7,174.2 472.7,175.8 473.7,175.8 473.7,177.2 472.7,177.2 				"/>
				<path class="st4" d="M477.4,177.1c-0.3-0.2-0.7-0.2-1-0.2c-0.2,0-0.6,0.1-0.6,0.4s0.6,0.4,0.8,0.4c0.8,0.2,1.5,0.6,1.5,1.5
					c0,1.3-1.2,1.9-2.4,1.9c-0.7,0-1.4-0.2-2-0.6l0.6-1.2c0.4,0.3,0.9,0.5,1.4,0.5c0.2,0,0.6-0.1,0.6-0.4s-0.6-0.4-1.1-0.6
					c-0.7-0.1-1.2-0.7-1.1-1.3c0-1.2,1.1-1.8,2.2-1.8c0.6,0,1.1,0.1,1.7,0.3L477.4,177.1z"/>
				<path class="st4" d="M402.9,183.1h2.7c2,0,3.7,1.7,3.7,3.7c0,2-1.7,3.7-3.7,3.7c0,0,0,0,0,0h-2.7V183.1z M404.8,188.8h0.4
					c1.1,0.1,2.1-0.8,2.2-1.9c0.1-1.1-0.8-2.1-1.9-2.2c-0.1,0-0.2,0-0.3,0h-0.5L404.8,188.8z"/>
				<path class="st4" d="M411.9,183.5c0,0.6-0.4,1-1,1s-1-0.4-1-1s0.4-1,1-1S411.9,182.9,411.9,183.5 M411.8,190.5H410v-5h1.8
					L411.8,190.5z"/>
				<path class="st4" d="M416,186.7c-0.3-0.2-0.7-0.2-1-0.2c-0.2,0-0.6,0.1-0.6,0.4s0.6,0.4,0.8,0.4c0.8,0.2,1.5,0.6,1.5,1.5
					c0,1.3-1.2,1.9-2.4,1.9c-0.7,0-1.4-0.2-2-0.6l0.6-1.2c0.4,0.3,0.9,0.5,1.4,0.5c0.2,0,0.6-0.1,0.6-0.4s-0.6-0.4-1.1-0.6
					c-0.7-0.1-1.2-0.7-1.1-1.3c0-1.2,1.1-1.8,2.2-1.8c0.6,0,1.1,0.1,1.7,0.3L416,186.7z"/>
				<polygon class="st4" points="419.4,190.5 417.6,190.5 417.6,186.9 417.1,186.9 417.1,185.4 417.6,185.4 417.6,183.9 
					419.4,183.9 419.4,185.4 420.5,185.4 420.5,186.9 419.4,186.9 				"/>
				<path class="st4" d="M422.6,186.3L422.6,186.3c0.3-0.6,1-0.9,1.6-0.9h0.3v1.7c-0.2-0.1-0.5-0.2-0.8-0.2c-1,0-1.2,0.7-1.2,1.5v2
					h-1.8v-5h1.8L422.6,186.3z"/>
				<path class="st4" d="M426.9,183.5c0,0.6-0.4,1-1,1s-1-0.4-1-1s0.4-1,1-1S426.9,182.9,426.9,183.5 M426.8,190.5H425v-5h1.8
					L426.8,190.5z"/>
				<path class="st4" d="M427.7,182.3h1.8v3.6c0.4-0.4,1-0.7,1.6-0.7c1.5,0,2.7,1.2,2.7,2.7s-1.2,2.7-2.7,2.7
					c-0.6,0-1.2-0.2-1.5-0.7l0,0v0.6h-1.8V182.3z M429.4,188c0,0.6,0.5,1.1,1.2,1.1c0.6,0,1.1-0.5,1.1-1.1c0-0.6-0.5-1.1-1.2-1.1
					C429.9,186.8,429.4,187.3,429.4,188"/>
				<path class="st4" d="M436,185.4v2.7c0,0.6,0.2,1.1,0.9,1.1s0.9-0.4,0.9-1.1v-2.7h1.8v3c0,1.7-1.2,2.2-2.7,2.2s-2.7-0.5-2.7-2.2
					v-3H436z"/>
				<polygon class="st4" points="442.4,190.5 440.6,190.5 440.6,186.9 440,186.9 440,185.4 440.6,185.4 440.6,183.9 442.4,183.9 
					442.4,185.4 443.4,185.4 443.4,186.9 442.4,186.9 				"/>
				<path class="st4" d="M449.5,188c0.2,1.7-1,3.2-2.7,3.4c-1.7,0.2-3.2-1-3.4-2.7c-0.2-1.7,1-3.2,2.7-3.4c0.1,0,0.3,0,0.4,0
					c1.5-0.1,2.9,1,3,2.5C449.5,187.9,449.5,187.9,449.5,188 M445.3,188c0,0.6,0.5,1.1,1.2,1.1c0.6,0,1.1-0.5,1.1-1.1
					c0-0.6-0.5-1.1-1.2-1.1C445.8,186.9,445.3,187.4,445.3,188"/>
				<path class="st4" d="M451.9,186.3L451.9,186.3c0.3-0.6,1-0.9,1.6-0.9h0.3v1.7c-0.2-0.1-0.5-0.2-0.8-0.2c-1,0-1.2,0.7-1.2,1.5v2
					H450v-5h1.8L451.9,186.3z"/>
			</g>
		</g>
	</g>
</g>
</svg>
