<?xml version="1.0" encoding="UTF-8"?>
<svg id="Layer_2" data-name="Layer 2" xmlns="http://www.w3.org/2000/svg" xmlns:xlink="http://www.w3.org/1999/xlink" viewBox="0 0 970 250">
  <defs>
    <style>
      .cls-1 {
        fill: #000;
      }

      .cls-1, .cls-2 {
        stroke-width: 0px;
      }

      .cls-2 {
        fill: none;
      }

      .cls-3 {
        clip-path: url(#clippath);
      }
    </style>
    <clipPath id="clippath">
      <rect class="cls-2" width="970" height="250"/>
    </clipPath>
  </defs>
  <g id="Layer_1-2" data-name="Layer 1">
    <g class="cls-3">
      <g>
        <path class="cls-1" d="M556.72,42.16l9.07,20.77c.62,1.44-1.65,1.94-2.2.61l-3.34-7.88h-11.82l-3.34,7.88c-.55,1.33-2.83.83-2.2-.61l9.14-20.77c.4-.94,1.21-1.8,2.35-1.8s1.95.86,2.35,1.8ZM549.2,53.86h10.28l-4.85-11.37h-.59l-4.85,11.37Z"/>
        <path class="cls-1" d="M579.53,59.73c0-5.22-11.71-1.98-11.71-8.75,0-3.24,2.68-4.64,7.53-4.64,1.95,0,3.63.22,4.52.47.59.18.84.29.84.79,0,.72-.48.94-.88.94-.59,0-2.42-.5-4.81-.5-3.34,0-5.14,1.04-5.14,2.88,0,4.68,11.71,1.91,11.71,8.85,0,3.02-2.2,4.72-7.71,4.72-3.16,0-5.18-.54-5.76-.76-.51-.18-.7-.43-.7-.86,0-.72.48-.86.84-.86.88,0,2.64.79,5.91.79,3.78,0,5.36-1.12,5.36-3.06Z"/>
        <path class="cls-1" d="M595.21,59.73c0-5.22-11.71-1.98-11.71-8.75,0-3.24,2.68-4.64,7.53-4.64,1.95,0,3.63.22,4.52.47.59.18.84.29.84.79,0,.72-.48.94-.88.94-.59,0-2.42-.5-4.81-.5-3.34,0-5.14,1.04-5.14,2.88,0,4.68,11.71,1.91,11.71,8.85,0,3.02-2.2,4.72-7.71,4.72-3.16,0-5.18-.54-5.76-.76-.51-.18-.7-.43-.7-.86,0-.72.48-.86.84-.86.88,0,2.64.79,5.91.79,3.78,0,5.36-1.12,5.36-3.06Z"/>
        <path class="cls-1" d="M602,40.36c.81,0,1.47.65,1.47,1.44s-.66,1.44-1.47,1.44-1.5-.65-1.5-1.44.66-1.44,1.5-1.44ZM603.03,63.51c0,.54-.48.83-1.03.83-.59,0-1.03-.29-1.03-.9v-16.05c0-.61.44-.9,1.03-.9.55,0,1.03.29,1.03.83v16.2Z"/>
        <path class="cls-1" d="M608.54,52.42c0-4.07,1.87-6.08,8.15-6.08,2.72,0,4.44.25,5.07.43.62.18.84.47.84.9,0,.61-.44.86-.92.86-.59,0-2.61-.43-5.07-.43-4.66,0-6.02,1.55-6.02,4.21v6.12c0,2.95,1.62,4.28,6.06,4.28,2.64,0,4.55-.54,5.29-.54.4,0,.88.14.88.86,0,.43-.18.68-.7.86-.73.25-3.05.58-5.84.58-5.87,0-7.75-2.02-7.75-6.16v-5.9Z"/>
        <path class="cls-1" d="M639.16,57.42v-10.11c0-.54.48-.83,1.03-.83s1.03.29,1.03.9v9.97c0,6.41-1.73,7.13-7.56,7.13-6.21,0-7.56-.72-7.56-7.13v-9.97c0-.61.44-.9,1.03-.9.55,0,1.03.29,1.03.83v10.11c0,4.82.73,5.36,5.51,5.36,4.04,0,5.51-.54,5.51-5.36Z"/>
        <path class="cls-1" d="M649.08,63.51c0,.54-.48.83-1.03.83-.59,0-1.03-.29-1.03-.9v-11.05c0-4.54,1.69-6.05,6.64-6.05,1.32,0,2.75.07,3.34.22.59.14.77.47.77.9,0,.65-.44.83-.95.83-.7,0-1.54-.18-3.23-.18-3.67,0-4.52,1.04-4.52,4.57v10.83Z"/>
        <path class="cls-1" d="M659.8,47.71c0-.5.26-.83.7-.94.66-.14,3.23-.43,6.46-.43,5.91,0,7.56,1.22,7.56,5.15v7.96c0,4.39-1.84,5.04-8.04,5.04s-7.53-1.04-7.53-5,1.25-5.29,7.16-5.29h6.35v-2.95c0-2.48-1.47-3.2-5.69-3.2-3.63,0-5.21.5-6.24.5-.37,0-.73-.29-.73-.83ZM672.46,55.88h-6.39c-4.18,0-5.07.9-5.07,3.42,0,2.66,1.1,3.49,5.54,3.49,4.85,0,5.91-.5,5.91-3.28v-3.64Z"/>
        <path class="cls-1" d="M690.31,48.39h-11.34c-.4,0-.77-.36-.77-.86s.37-.83.77-.83h12.85c.92,0,1.29.65,1.29,1.22,0,.29-.07.54-.22.72l-12.41,13.64v.14h12.3c.4,0,.77.36.77.86s-.37.83-.77.83h-13.99c-.84,0-1.14-.5-1.14-1.01,0-.36.15-.72.33-.94l12.34-13.64v-.14Z"/>
        <path class="cls-1" d="M698.57,40.36c.81,0,1.47.65,1.47,1.44s-.66,1.44-1.47,1.44-1.5-.65-1.5-1.44.66-1.44,1.5-1.44ZM699.6,63.51c0,.54-.48.83-1.03.83-.59,0-1.03-.29-1.03-.9v-16.05c0-.61.44-.9,1.03-.9.55,0,1.03.29,1.03.83v16.2Z"/>
        <path class="cls-1" d="M713.11,46.34c6.28,0,8.41,1.8,8.41,9.25s-2.24,8.89-8.41,8.89-8.37-1.44-8.37-8.89,2.09-9.25,8.37-9.25ZM713.11,62.79c4.74,0,6.35-.97,6.35-7.27s-1.65-7.49-6.35-7.49-6.32,1.01-6.32,7.49,1.54,7.27,6.32,7.27Z"/>
        <path class="cls-1" d="M728.65,53.39v10.11c0,.54-.48.83-1.03.83-.59,0-1.03-.29-1.03-.9v-9.97c0-6.41,1.5-7.13,7.71-7.13,5.84,0,7.71.72,7.71,7.13v9.97c0,.61-.48.9-1.03.9s-1.03-.29-1.03-.83v-10.11c0-4.82-1.62-5.36-5.65-5.36-4.77,0-5.65.54-5.65,5.36Z"/>
        <path class="cls-1" d="M762.72,63.11c0,.32-.07.65-.7.83-.92.29-3.52.54-6.17.54-6.24,0-8.26-2.12-8.26-6.23v-6.3c0-4.14,2.5-5.62,8-5.62s7.56,1.58,7.56,5.47v2.63c0,1.12-.55,1.69-1.54,1.69h-11.97v2.05c0,2.95,1.62,4.54,6.24,4.54,2.94,0,5.54-.5,6.13-.5.4,0,.7.25.7.9ZM749.65,54.44h11.45v-2.84c0-2.2-1.1-3.56-5.58-3.56s-5.87,1.33-5.87,3.78v2.63Z"/>
        <path class="cls-1" d="M769.37,61.2c.92,0,1.65.72,1.65,1.55,0,.94-.73,1.62-1.65,1.62s-1.62-.68-1.62-1.62c0-.83.73-1.55,1.62-1.55Z"/>
      </g>
    </g>
  </g>
</svg>