<?xml version="1.0" encoding="UTF-8"?>
<svg id="Layer_2" data-name="Layer 2" xmlns="http://www.w3.org/2000/svg" xmlns:xlink="http://www.w3.org/1999/xlink" viewBox="0 0 970 250">
  <defs>
    <style>
      .cls-1 {
        fill: #000;
      }

      .cls-1, .cls-2 {
        stroke-width: 0px;
      }

      .cls-2 {
        fill: none;
      }

      .cls-3 {
        clip-path: url(#clippath);
      }
    </style>
    <clipPath id="clippath">
      <rect class="cls-2" width="970" height="250"/>
    </clipPath>
  </defs>
  <g id="Layer_1-2" data-name="Layer 1">
    <g class="cls-3">
      <g>
        <path class="cls-1" d="M410.1,54.19l6.98-12.24c.51-.9,1.14-1.51,2.06-1.51,1.1,0,1.76.76,1.76,1.73v21.31c0,.61-.55.86-1.1.86s-1.1-.25-1.1-.86v-19.94h-.07l-7.05,12.17c-.33.58-.84,1.01-1.58,1.01-.77,0-1.25-.43-1.58-1.01l-7.05-12.17h-.07v19.94c0,.61-.55.86-1.1.86s-1.1-.25-1.1-.86v-21.31c0-.97.66-1.73,1.76-1.73.92,0,1.62.61,2.13,1.51l6.98,12.24h.15Z"/>
        <path class="cls-1" d="M434.56,46.34c6.28,0,8.41,1.8,8.41,9.25s-2.24,8.89-8.41,8.89-8.37-1.44-8.37-8.89,2.09-9.25,8.37-9.25ZM434.56,62.79c4.74,0,6.35-.97,6.35-7.27s-1.65-7.49-6.35-7.49-6.31,1.01-6.31,7.49,1.54,7.27,6.31,7.27Z"/>
        <path class="cls-1" d="M448.04,40.87c0-.61.48-.86,1.06-.86.51,0,1.06.22,1.06.86v7.09h.07c1.07-1.01,2.64-1.62,6.28-1.62,6.39,0,8.33,1.8,8.33,9.25s-2.13,8.89-8.41,8.89-8.41-1.44-8.41-8.89v-14.72ZM456.44,62.79c4.77,0,6.35-1.08,6.35-7.27s-1.69-7.49-6.39-7.49-6.28.97-6.28,7.49,1.54,7.27,6.31,7.27Z"/>
        <path class="cls-1" d="M471.02,40.36c.81,0,1.47.65,1.47,1.44s-.66,1.44-1.47,1.44-1.51-.65-1.51-1.44.66-1.44,1.51-1.44ZM472.05,63.51c0,.54-.48.83-1.03.83-.59,0-1.03-.29-1.03-.9v-16.05c0-.61.44-.9,1.03-.9.55,0,1.03.29,1.03.83v16.2Z"/>
        <path class="cls-1" d="M480.42,63.47c0,.61-.55.86-1.07.86-.59,0-1.06-.25-1.06-.86v-22.61c0-.61.48-.86,1.06-.86.51,0,1.07.22,1.07.86v22.61Z"/>
        <path class="cls-1" d="M487.58,40.36c.81,0,1.47.65,1.47,1.44s-.66,1.44-1.47,1.44-1.51-.65-1.51-1.44.66-1.44,1.51-1.44ZM488.61,63.51c0,.54-.48.83-1.03.83-.59,0-1.03-.29-1.03-.9v-16.05c0-.61.44-.9,1.03-.9.55,0,1.03.29,1.03.83v16.2Z"/>
        <path class="cls-1" d="M498.3,46.7h5.58c.62,0,.81.36.81.86s-.18.83-.88.83h-5.51v11.88c0,1.76.92,2.45,2.86,2.45.92,0,2.42-.22,2.86-.22s.81.22.81.83c0,.43-.18.72-.7.86-.51.14-2.17.29-3.34.29-2.9,0-4.55-.94-4.55-4.14v-11.95h-3.52c-.59,0-.77-.32-.77-.83s.18-.86.77-.86h3.52v-3.96c0-.61.44-.9,1.03-.9.55,0,1.03.29,1.03.83v4.03Z"/>
        <path class="cls-1" d="M508.37,47.71c0-.5.26-.83.7-.94.66-.14,3.23-.43,6.46-.43,5.91,0,7.56,1.22,7.56,5.15v7.96c0,4.39-1.84,5.04-8.04,5.04s-7.53-1.04-7.53-5,1.25-5.29,7.16-5.29h6.35v-2.95c0-2.48-1.47-3.2-5.69-3.2-3.63,0-5.21.5-6.24.5-.37,0-.73-.29-.73-.83ZM521.03,55.88h-6.39c-4.18,0-5.07.9-5.07,3.42,0,2.66,1.1,3.49,5.54,3.49,4.85,0,5.91-.5,5.91-3.28v-3.64ZM511.27,41.66c-1.07-.72.26-2.38,1.5-1.33l3.16,2.63c.73.61-.15,1.8-1.17,1.08l-3.49-2.38Z"/>
        <path class="cls-1" d="M530.1,61.2c.92,0,1.65.72,1.65,1.55,0,.94-.73,1.62-1.65,1.62s-1.62-.68-1.62-1.62c0-.83.73-1.55,1.62-1.55Z"/>
      </g>
    </g>
  </g>
</svg>