<?xml version="1.0" encoding="utf-8"?>
<!-- Generator: Adobe Illustrator 25.0.0, SVG Export Plug-In . SVG Version: 6.00 Build 0)  -->
<svg version="1.1" id="_Layer_" xmlns="http://www.w3.org/2000/svg" xmlns:xlink="http://www.w3.org/1999/xlink" x="0px" y="0px"
	 viewBox="0 0 300 250" style="enable-background:new 0 0 300 250;" xml:space="preserve">
<style type="text/css">
	.st0{fill:#FFFFFF;}
</style>
<path class="st0" d="M10.2,213.2c0-3.1,1.9-4.8,4.1-4.8c1.2-0.1,2.2,0.6,2.8,1.6l0.2-1.4h2.7l-1.1,6.1c-0.1,0.4,0.1,0.5,0.4,0.5h0.6
	l-0.3,2h-1c-1.9,0-2.2-0.5-2.3-1.2v-0.1c-0.5,0.9-1.5,1.5-2.5,1.5C11.8,217.4,10.2,215.8,10.2,213.2z M16.6,212.7c0-1.2-0.6-2-1.6-2
	s-1.9,0.9-1.9,2.4c0,1.2,0.6,1.9,1.6,1.9S16.6,214.1,16.6,212.7z"/>
<path class="st0" d="M22.1,208.6h2.6l-0.3,1.6c0.5-1.1,1.6-1.7,2.8-1.7c1.9,0,3,1.6,2.6,4l-0.4,2.2c-0.1,0.4,0.1,0.5,0.4,0.5h0.6
	l-0.3,2h-1c-1.9,0-2.6-0.4-2.3-2.5l0.4-2.2c0.2-1.1-0.3-1.7-1.2-1.7s-1.6,0.5-1.8,1.8l-0.8,4.6h-2.6L22.1,208.6z"/>
<path class="st0" d="M31.5,213.2c0-3.1,1.9-4.8,4.2-4.8c1.1-0.1,2.2,0.5,2.8,1.4l1.3-7.2h2.7l-2.1,12c-0.1,0.4,0.1,0.5,0.4,0.5h0.6
	l-0.3,2h-1c-1.9,0-2.2-0.5-2.3-1.2v-0.1c-0.5,1-1.5,1.6-2.6,1.6C33.1,217.4,31.5,215.8,31.5,213.2z M38,212.7c0-1.2-0.7-2-1.8-2
	s-2,0.9-2,2.4c-0.1,0.9,0.5,1.8,1.5,1.9c0.1,0,0.2,0,0.3,0c1.1,0,2-1,2-2.1C38.1,212.8,38.1,212.8,38,212.7z"/>
<path class="st0" d="M46,215.6l1.8-1.3c0.4,0.7,1.1,1,1.9,1c0.8,0,1-0.2,1-0.5s-0.3-0.4-1.6-1c-1.2-0.3-2-1.4-2-2.6
	c0-1.8,1.4-2.8,3.2-2.8c1.1,0,2.2,0.4,3,1.3l-1.7,1.4c-0.3-0.4-0.7-0.7-1.3-0.7c-0.5,0-0.8,0.2-0.8,0.5s0.3,0.5,1.2,0.9
	c1.5,0.6,2.4,1.2,2.4,2.8s-1.2,2.7-3.6,2.7C48.2,217.4,46.8,216.7,46,215.6z"/>
<path class="st0" d="M54.7,210.8l0.4-2.2h1.2l0.8-4.5h2.6l-0.8,4.5h2.1l-0.4,2.2h-2.1l-0.6,3.2c-0.2,0.9,0.1,1.1,0.5,1.1
	c0.3,0,0.6-0.1,0.9-0.3l0.8,1.9c-0.6,0.5-1.4,0.7-2.2,0.7c-1.7,0-3.1-0.8-2.7-3.4l0.6-3.2L54.7,210.8z"/>
<path class="st0" d="M61.9,214.7l1.1-6.1h2.6l-1.1,6.1c-0.1,0.4,0.1,0.5,0.4,0.5h0.6l-0.3,2h-1C62.2,217.2,61.5,216.7,61.9,214.7z
	 M63.2,205.4c0-0.9,0.7-1.6,1.6-1.6c0,0,0,0,0.1,0c0.9,0,1.6,0.7,1.7,1.6c0,0,0,0,0,0c0,0.9-0.7,1.7-1.6,1.7S63.2,206.4,63.2,205.4
	C63.2,205.5,63.2,205.5,63.2,205.4z"/>
<path class="st0" d="M67.1,214.7l2.1-12.1h2.7l-2.1,12c-0.1,0.4,0.1,0.5,0.4,0.5h0.8l-0.3,2h-1.2C67.5,217.2,66.8,216.7,67.1,214.7z
	"/>
<path class="st0" d="M72.3,214.7l2.1-12.1h2.7l-2.1,12c-0.1,0.4,0.1,0.5,0.4,0.5h0.8l-0.3,2h-1.2C72.7,217.2,72,216.7,72.3,214.7z"
	/>
<path class="st0" d="M80.9,215.6l1.8-1.3c0.4,0.7,1.1,1,1.9,1c0.8,0,1-0.2,1-0.5s-0.3-0.4-1.6-1c-1.2-0.3-2-1.4-2-2.6
	c0-1.8,1.4-2.8,3.2-2.8c1.1,0,2.2,0.4,3,1.3l-1.7,1.4c-0.3-0.4-0.8-0.7-1.3-0.7c-0.5,0-0.8,0.2-0.8,0.5s0.3,0.5,1.2,0.9
	c1.4,0.6,2.4,1.2,2.4,2.8s-1.2,2.7-3.6,2.7C83.1,217.4,81.8,216.7,80.9,215.6z"/>
<path class="st0" d="M92.1,202.6h2.7l-1.3,7.4c0.5-1,1.6-1.6,2.7-1.6c1.9,0,3,1.6,2.6,4l-0.4,2.2c-0.1,0.4,0.1,0.5,0.4,0.5h0.6
	l-0.3,2h-0.9c-1.8,0-2.7-0.6-2.4-2.6l0.3-2.1c0.2-1.1-0.3-1.7-1.2-1.7s-1.6,0.5-1.8,1.8l-0.8,4.6h-2.6L92.1,202.6z"/>
<path class="st0" d="M100.4,213.2c0-3.1,1.9-4.8,4.1-4.8c1.1-0.1,2.2,0.5,2.8,1.6l0.2-1.4h2.7l-1.1,6.1c-0.1,0.4,0.1,0.5,0.4,0.5
	h0.6l-0.3,2h-1c-1.9,0-2.2-0.5-2.3-1.2v-0.1c-0.5,0.9-1.4,1.5-2.5,1.5C101.9,217.4,100.4,215.8,100.4,213.2z M106.7,212.7
	c0-1.2-0.6-2-1.7-2s-1.9,0.9-1.9,2.4c0,1.2,0.6,1.9,1.7,1.9S106.7,214.1,106.7,212.7z"/>
<path class="st0" d="M113.4,217.2h-2.7l2.6-14.5h2.7l-1.3,7.4c-0.1,0.7-0.3,1.3-0.5,2l3.2-3.4h3l-3.4,3.5l1.2,2.5
	c0.2,0.4,0.4,0.5,0.7,0.5h0.6l-0.3,2h-1c-1.5,0-1.9-0.5-2.5-1.7l-0.8-1.7l-1,0.9L113.4,217.2z"/>
<path class="st0" d="M125.6,215.2c0.7,0,1.4-0.3,2-0.7l1.6,1.7c-1,0.8-2.3,1.3-3.7,1.2c-3.1,0-4.8-1.9-4.8-4.4
	c-0.1-2.4,1.8-4.5,4.3-4.5c0.1,0,0.2,0,0.3,0c3,0,4.4,2,4.5,4.8l-6.4,0.7C123.8,214.8,124.7,215.3,125.6,215.2z M127,212
	c0-0.8-0.6-1.5-1.4-1.5c0,0-0.1,0-0.1,0c-1-0.1-1.9,0.7-2,1.7c0,0.1,0,0.1,0,0.2L127,212z"/>
<path class="st0" d="M135.4,214.7l1.1-6.1h2.6l-1.1,6.1c-0.1,0.4,0.1,0.5,0.4,0.5h0.6l-0.3,2h-1
	C135.8,217.2,135.1,216.7,135.4,214.7z M136.7,205.4c0-0.9,0.7-1.6,1.6-1.6c0,0,0,0,0.1,0c0.9,0,1.6,0.7,1.7,1.6c0,0,0,0,0,0.1
	c0,0.9-0.7,1.7-1.6,1.7C137.5,207.1,136.7,206.4,136.7,205.4L136.7,205.4z"/>
<path class="st0" d="M140.8,210.8l0.4-2.2h1.2l0.8-4.5h2.6l-0.8,4.5h2.1l-0.4,2.2h-2.1l-0.6,3.2c-0.2,0.9,0.1,1.1,0.5,1.1
	c0.3,0,0.7-0.1,0.9-0.3l0.8,1.9c-0.6,0.5-1.4,0.7-2.2,0.7c-1.7,0-3.1-0.8-2.7-3.4l0.6-3.2H140.8z"/>
<path class="st0" d="M152.2,213.3l0.8-4.8h2.7l-0.8,4.7c-0.2,1.1,0.3,1.7,1.2,1.7s1.6-0.5,1.8-1.8l0.8-4.6h2.7l-1.1,6.1
	c-0.1,0.4,0.1,0.5,0.4,0.5h0.6l-0.4,2h-1c-1.9,0-2.2-0.5-2.3-1.2v-0.1c-0.6,1-1.7,1.6-2.8,1.6C152.9,217.4,151.8,215.8,152.2,213.3z
	"/>
<path class="st0" d="M163.7,208.6h2.7l-0.3,1.2c0.5-0.9,1.5-1.4,2.5-1.4c1.9,0,3.5,1.6,3.5,4.1c0,3-1.9,4.8-4.1,4.8
	c-1.2,0.1-2.3-0.6-2.9-1.7l-1,5.8h-2.6L163.7,208.6z M169.2,212.7c0.1-0.9-0.5-1.8-1.5-1.9c-0.1,0-0.2,0-0.3,0c-1.1,0-2,1-2,2.1
	c0,0.1,0,0.1,0,0.2c0,1.2,0.6,2,1.8,2S169.2,214.1,169.2,212.7z"/>
<path class="st0" d="M177.4,213.2c0-3.1,1.9-4.8,4.1-4.8c1.1-0.1,2.2,0.5,2.8,1.6l0.2-1.4h2.7l-1.1,6.1c-0.1,0.4,0.1,0.5,0.4,0.5
	h0.6l-0.3,2h-1c-1.9,0-2.2-0.5-2.3-1.2v-0.1c-0.5,0.9-1.5,1.5-2.5,1.5C179,217.4,177.4,215.8,177.4,213.2z M183.8,212.7
	c0-1.2-0.6-2-1.6-2s-1.9,0.9-1.9,2.4c0,1.2,0.6,1.9,1.6,1.9S183.8,214.1,183.8,212.7L183.8,212.7z"/>
<path class="st0" d="M192.5,214.7l2.1-12.1h2.7l-2.1,12c-0.1,0.4,0.1,0.5,0.4,0.5h0.8l-0.3,2h-1.2
	C192.8,217.2,192.1,216.7,192.5,214.7z"/>
<path class="st0" d="M197.7,214.7l1.1-6.1h2.6l-1.1,6.1c-0.1,0.4,0.1,0.5,0.4,0.5h0.6l-0.3,2h-1
	C198.1,217.2,197.4,216.7,197.7,214.7z M199,205.4c0-0.9,0.7-1.6,1.6-1.6c0,0,0,0,0.1,0c0.9,0,1.6,0.7,1.6,1.6s-0.7,1.6-1.6,1.6
	S199,206.4,199,205.4C199,205.5,199,205.5,199,205.4z"/>
<path class="st0" d="M203.1,210.8l0.4-2.2h1.2l0.8-4.5h2.6l-0.8,4.5h2.1l-0.4,2.2H207l-0.6,3.2c-0.2,0.9,0.1,1.1,0.5,1.1
	c0.3,0,0.6-0.1,0.9-0.3l0.9,1.9c-0.6,0.5-1.4,0.7-2.2,0.7c-1.7,0-3.1-0.8-2.7-3.4l0.6-3.2H203.1z"/>
<path class="st0" d="M210.4,210.8l0.4-2.2h1.2l0.8-4.5h2.6l-0.8,4.5h2.1l-0.4,2.2h-2.1l-0.6,3.2c-0.2,0.9,0.1,1.1,0.5,1.1
	c0.3,0,0.6-0.1,0.9-0.3l0.9,1.9c-0.6,0.5-1.4,0.7-2.2,0.7c-1.7,0-3.1-0.8-2.7-3.4l0.6-3.2H210.4z"/>
<path class="st0" d="M217.6,214.7l2.1-12.1h2.7l-2.1,12c-0.1,0.4,0.1,0.5,0.4,0.5h0.8l-0.3,2h-1.2
	C218,217.2,217.3,216.7,217.6,214.7z"/>
<path class="st0" d="M227.8,215.2c0.7,0,1.4-0.3,2-0.7l1.6,1.7c-1,0.8-2.3,1.3-3.7,1.2c-3.1,0-4.9-1.9-4.9-4.4
	c-0.1-2.4,1.8-4.5,4.3-4.5c0.1,0,0.2,0,0.3,0c3,0,4.4,2,4.5,4.8l-6.4,0.7C226,214.8,226.9,215.3,227.8,215.2z M229.2,212
	c0-0.8-0.6-1.5-1.4-1.5c-0.1,0-0.1,0-0.2,0c-1-0.1-1.9,0.7-2,1.7c0,0.1,0,0.1,0,0.2L229.2,212z"/>
<path class="st0" d="M232.9,215.6c0-0.9,0.8-1.6,1.7-1.6s1.6,0.8,1.6,1.7c0,0.9-0.7,1.6-1.6,1.6
	C233.6,217.3,232.9,216.6,232.9,215.6C232.9,215.6,232.9,215.6,232.9,215.6z"/>
</svg>
