<svg height="600" viewBox="0 0 300 600" width="300" xmlns="http://www.w3.org/2000/svg" xmlns:xlink="http://www.w3.org/1999/xlink"><mask id="a" fill="#fff"><path d="m0-.00045h108.2184v58.527h-108.2184z" fill="#fff" fill-rule="evenodd"/></mask><path d="m100.7679 46.7493c0-3.915-.39-6.8685-1.167-8.859-.3435-.8475-.8595-1.512-1.5465-1.992-.6855-.48-1.464-.72-2.334-.72s-1.6485.24-2.334.72c-.687.48-1.191 1.1445-1.512 1.992-.7785 1.9695-1.167 4.875-1.167 8.721s.3885 6.765 1.167 8.757c.321.846.825 1.509 1.512 1.9905.6855.4815 1.4745.7215 2.3685.7215.87 0 1.6485-.24 2.334-.7215.687-.4815 1.191-1.1445 1.512-1.9905.3885-1.008.681-2.238.876-3.6915.1935-1.4535.291-3.096.291-4.9275zm7.4505.033c0 2.1075-.561 4.0635-1.6815 5.8725-1.122 1.809-2.6445 3.24-4.5675 4.2915-1.9215 1.053-4.0065 1.581-6.249 1.581-1.488 0-2.919-.2475-4.293-.7395-1.3725-.492-2.643-1.218-3.81-2.1795-2.9085-2.3355-4.3605-5.334-4.3605-8.997 0-1.8075.3705-3.4725 1.1145-4.995s1.8255-2.844 3.246-3.966c2.4255-1.9455 5.127-2.919 8.103-2.919 3.045 0 5.757.9735 8.1375 2.919 1.4655 1.1895 2.559 2.535 3.2805 4.035.72 1.4985 1.08 3.198 1.08 5.097zm-27.6405-11.982c-.3435.1365-.7845.234-1.3215.291-.5385.0585-1.311.087-2.3175.087h-11.5725c-1.236 0-2.1345-.0225-2.694-.069-.5625-.0465-1.008-.138-1.341-.2745-.3315-.138-.669-.3675-1.0125-.687l-.9945 7.9995h.342c.435-1.053 1.0875-2.0595 1.9575-3.021s1.8375-1.7685 2.901-2.421c1.065-.6525 2.0895-1.047 3.0735-1.185v16.689c0 1.1205-.0165 1.956-.051 2.5065-.0345.549-.0975.9675-.189 1.2525-.0915.2865-.24.555-.447.807-.2745.321-.6165.549-1.029.687-.4125.1365-1.053.228-1.923.2745v.3435h14.043v-.3435c-.87-.0465-1.5105-.138-1.9215-.2745-.4125-.138-.756-.366-1.032-.687-.2055-.228-.354-.492-.4455-.789-.0915-.2985-.1545-.7275-.189-1.2885s-.051-1.3905-.051-2.4885v-16.689c.984.138 2.0205.5385 3.1065 1.2015 1.0875.6645 2.055 1.4775 2.9025 2.439.846.9615 1.4535 1.9575 1.8195 2.9865h.3435l-.927-7.9995c-.3435.297-.687.5145-1.0305.6525zm-54.0345.378h-.447v.342c.1305.009.2235.0255.342.036.0375-.009.066-.027.105-.036zm0 0h-.447v.342c.1305.009.2235.0255.342.036.0375-.009.066-.027.105-.036zm15.039 6.42c0-1.464-.1545-2.631-.4635-3.5025-.309-.87-.801-1.5045-1.476-1.905-.6765-.4005-1.563-.6015-2.661-.6015h-.9285v12.258h.8595c1.167 0 2.088-.1995 2.763-.6s1.1625-1.053 1.4595-1.9575.447-2.1345.447-3.6915zm5.889-3.3645c.8805.984 1.3215 2.1405 1.3215 3.468 0 1.053-.3045 2.025-.909 2.919-.6075.8925-1.449 1.6125-2.5245 2.1615-1.077.528-2.244.9045-3.5025 1.134s-2.862.3435-4.8075.3435h-.996v3.9495c0 1.098.018 1.9215.0525 2.472.0345.549.0975.978.189 1.287s.24.579.4455.807c.276.321.618.549 1.0305.687.4125.1365 1.053.228 1.923.2745v.3435h-13.5975v-.3435c.756-.0465 1.3155-.138 1.683-.2745.3645-.138.663-.366.8925-.687.183-.252.315-.5205.3945-.807.0795-.285.138-.7095.171-1.2705.0345-.561.0525-1.3905.0525-2.4885v-11.16c0-1.0995-.018-1.9275-.0525-2.49-.033-.5595-.0915-.984-.171-1.2705s-.2115-.555-.3945-.807c-.2295-.3195-.528-.549-.8925-.687-.303-.1125-.7725-.1875-1.341-.2385.0375-.009.066-.027.105-.036v-.342h11.2965c2.2425 0 4.188.2625 5.8365.789s2.913 1.2825 3.795 2.2665zm-21.375-3.0555h-8.241v.342c.8475.2985 1.476.6765 1.8885 1.134s.7665 1.1445 1.0635 2.0595c.5955 1.9005.894 4.704.894 8.412v3.1245c0 1.26-.069 2.2275-.207 2.9025-.1365.675-.4005 1.299-.789 1.872-.4815.7545-1.1625 1.3335-2.043 1.7325-.882.402-1.9065.6015-3.0735.6015-1.0995 0-2.0835-.1995-2.952-.6015-.87-.399-1.5-.9435-1.89-1.6305-.297-.549-.504-1.248-.618-2.094s-.171-2.163-.171-3.9495v-8.034c0-.939.0105-1.722.0345-2.352.0225-.63.0735-1.0935.1545-1.3905.0795-.2985.2115-.573.3945-.825.2055-.3195.4755-.549.807-.687.3315-.1365.864-.228 1.5975-.2745v-.342h-12.9465v.342c.756.0465 1.317.138 1.683.2745.366.138.6645.3675.8925.687.183.252.315.5205.396.807.0795.2865.1365.711.171 1.2705.0345.5625.051 1.3905.051 2.49v9.099c0 1.236.075 2.2485.2235 3.039.1485.789.4005 1.4535.756 1.992.354.5385.8415 1.0125 1.4595 1.4235 1.8765 1.2825 4.4505 1.9245 7.725 1.9245 1.305 0 2.4495-.1215 3.4335-.3615s1.854-.612 2.61-1.116c.687-.4575 1.23-.978 1.6305-1.5615s.687-1.2945.8595-2.13c.171-.834.2565-1.8705.2565-3.108v-2.643c0-3.7545.321-6.615.9615-8.5845.366-1.098.813-1.911 1.3395-2.4375.504-.5025 1.173-.8385 1.9905-1.029-.1185-.0105-.2115-.027-.342-.036zm79.389-16.4295c-.6645 1.0065-1.476 1.944-2.4375 2.814-1.077.963-2.181 1.701-3.3135 2.2155-1.134.5145-2.2485.7725-3.348.7725-.5265 0-.939-.0915-1.236-.2745-.2985-.183-.504-.486-.618-.9105-.1155-.423-.171-1.035-.171-1.836v-8.1045c1.5315 0 2.8485.453 3.948 1.356 1.098.906 1.842 2.169 2.232 3.795h.3435v-10.5765h-.3435c-.0915.939-.4065 1.7745-.945 2.5065-.5385.7335-1.2525 1.323-2.145 1.77-.894.4455-1.9245.7035-3.09.771v-10.575h.96c2.358 0 4.413.6345 6.1635 1.905 1.752 1.2705 3.153 3.1305 4.206 5.58h.3435l-1.407-7.8975h-20.2245v.3435c.7545.0465 1.3095.138 1.665.2745.3555.138.6585.3675.9105.687.183.252.3195.5205.411.807s.15.699.1725 1.236c.0225.5385.0345 1.38.0345 2.5245v11.1585c0 1.146-.012 1.986-.0345 2.5245s-.081.9495-.1725 1.236-.228.555-.411.807c-.252.321-.555.549-.9105.6855-.3555.138-.9105.2295-1.665.276v.3435h21.597l1.5465-9.7515h-.3435c-.4815 1.35-1.0545 2.529-1.7175 3.537zm-34.887-16.3455c.4575.138.801.2925 1.0305.4635s.447.441.6525.807c.4815.7785.7215 1.854.7215 3.228 0 .7785-.057 1.4655-.1725 2.0595-.114.597-.3315 1.305-.6525 2.13-.3195.8235-.8475 2.049-1.5795 3.6735l-1.6125 3.606-3.9495-8.619c-.5265-1.098-.951-2.0145-1.2705-2.748-.321-.732-.5265-1.263-.618-1.596-.0915-.3315-.1365-.6585-.1365-.978 0-.5955.159-1.053.48-1.374.3195-.3195.8355-.537 1.545-.6525v-.3435h-13.1505v.3435c.7095.1605 1.3215.4185 1.836.7725.5145.3555 1.014.8925 1.494 1.614.4815.7215 1.053 1.7565 1.7175 3.108l8.859 18.198 6.7635-14.2155c1.3965-2.907 2.6895-5.1045 3.8805-6.5925 1.1895-1.488 2.4255-2.4495 3.708-2.8845v-.3435h-9.546zm-31.314 13.392-3.537-8.5155-3.159 8.5155zm11.502 8.172c.5265.3885 1.26.606 2.1975.6525v.3435h-13.8375v-.3435c.8235-.0465 1.4355-.2235 1.8375-.5325.4005-.309.6-.7725.6-1.3905 0-.87-.48-2.439-1.4415-4.704l-.756-1.7865h-6.936c-.297.8475-.5145 1.5855-.651 2.2155-.138.63-.207 1.2765-.207 1.9395 0 1.26.297 2.2665.8925 3.0225.5955.7545 1.431 1.167 2.5065 1.236v.3435h-10.6095v-.3435c.9375-.0915 1.8765-.504 2.8155-1.236s1.8255-1.728 2.661-2.988c.8355-1.2585 1.551-2.712 2.1465-4.3605l3.468-9.168c-.366-.687-.813-1.281-1.3395-1.785.801-.366 1.7385-1.014 2.8155-1.941 1.0755-.927 2.0835-1.974 3.021-3.1425.687 1.878 1.2825 3.423 1.7865 4.6365l4.4295 10.6785c1.281 2.9985 2.238 5.094 2.8665 6.2835.63 1.191 1.2075 1.98 1.734 2.37zm-31.452-9.9585c.915 1.053 1.3725 2.325 1.3725 3.8115 0 1.4205-.372 2.7075-1.1145 3.864-.744 1.1565-1.7685 2.0655-3.0735 2.7285-1.305.6645-2.748.996-4.326.996-.894 0-1.9815-.0855-3.2625-.2565-1.2825-.1725-2.6565-.4185-4.1205-.7395-.4125-.0915-.75-.159-1.0125-.2055-.264-.0465-.4875-.069-.6705-.069-.3435 0-.6.063-.7725.189-.171.126-.291.3375-.36.636h-.3435l-.3435-10.611h.3435c.3885 1.305.9555 2.592 1.6995 3.864.744 1.2705 1.632 2.4765 2.661 3.6225 1.0305 1.1445 1.992 1.9515 2.8845 2.4195.8925.4695 1.911.705 3.0555.705.7785 0 1.4595-.15 2.043-.447.585-.297 1.0365-.7095 1.3575-1.236.3195-.5265.48-1.1325.48-1.8195 0-.984-.384-1.842-1.1505-2.5755-.7665-.732-2.0085-1.431-3.726-2.0955l-3.3645-1.3035c-2.175-.87-3.7545-1.809-4.7385-2.8155-.984-1.008-1.476-2.199-1.476-3.5715 0-1.3965.3885-2.667 1.167-3.8115s1.848-2.043 3.21-2.6955 2.8785-.978 4.5495-.978c.7095 0 1.4205.051 2.13.1545s1.74.315 3.09.6345c.6405.1605 1.155.24 1.545.24.252 0 .435-.051.549-.1545.1155-.102.207-.303.276-.6h.3435l.3765 8.5485h-.3435c-.5715-1.7385-1.2825-3.2385-2.1285-4.497-.8475-1.2585-1.791-2.22-2.8335-2.8845-1.041-.663-2.1225-.996-3.2445-.996-.7095 0-1.338.138-1.8885.4125-.549.2745-.978.6645-1.287 1.167-.309.504-.4635 1.077-.4635 1.7175 0 .5265.108 1.0125.3255 1.458.2175.447.51.819.876 1.1175.3885.3195.9615.675 1.7175 1.0635.7545.39 1.59.756 2.5065 1.0995l3.1935 1.2015c1.944.756 3.3765 1.6605 4.2915 2.712z" fill="#c6c0be" fill-rule="evenodd" mask="url(#a)" transform="translate(95 176)"/></svg>