<?xml version="1.0" encoding="UTF-8"?><svg xmlns="http://www.w3.org/2000/svg" viewBox="0 0 728 180"><defs><style>.e{fill:none;stroke:#fff;stroke-miterlimit:10;stroke-width:1.24px;}</style></defs><g id="a"/><g id="b"/><g id="c"/><g id="d"><g><path class="e" d="M221.1,114.54h-7.82l1.82-8.66h25.14l-1.82,8.66h-7.82l-4.44,20.91h-9.51l4.44-20.91Z"/><path class="e" d="M258.48,105.04c9.59,0,15.63,6.63,15.63,14.58,0,9.25-7.82,16.69-17.96,16.69-9.59,0-15.63-6.63-15.63-14.58,0-9.25,7.82-16.69,17.96-16.69Zm-1.9,22.82c4.44,0,8.03-3.46,8.03-8.03,0-3.38-2.7-6.34-6.55-6.34-4.44,0-8.03,3.46-8.03,8.03,0,3.38,2.7,6.34,6.55,6.34Z"/><path class="e" d="M293.42,105.88h9.51l-4.39,20.7h12.25l-1.86,8.87h-21.76l6.25-29.58Z"/><path class="e" d="M329.57,105.88h10.77l4.52,29.58h-9.72l-.51-5.7h-8.66l-2.87,5.7h-10.56l17.03-29.58Zm4.56,17.32l-.55-8.24h-.21l-4.1,8.24h4.86Z"/></g></g></svg>