<svg xmlns="http://www.w3.org/2000/svg" viewBox="0 0 728 180"><defs><style>.cls-1{fill:#fff;}</style></defs><g id="Layer_1" data-name="Layer 1"><path class="cls-1" d="M148.87,148.24h.24l1.86,2.48,1.86-2.48h.24v4.19h-.3v-3.62L151,151.2l-1.8-2.39v3.62h-.3Z"/><path class="cls-1" d="M154.42,148.33a.21.21,0,1,1-.21.21A.21.21,0,0,1,154.42,148.33Zm-.15,1.23h.27v2.87h-.27Z"/><path class="cls-1" d="M155.59,149.56h.27v.51a1.09,1.09,0,0,1,.24-.29,1.1,1.1,0,0,1,.75-.28,1.17,1.17,0,0,1,1.17,1.22v1.71h-.27v-1.71a.89.89,0,0,0-.9-.95,1,1,0,0,0-1,1v1.62h-.27Z"/><path class="cls-1" d="M160,151a1.44,1.44,0,1,1,1.44,1.5A1.47,1.47,0,0,1,160,151Zm2.61,0a1.17,1.17,0,1,0-1.17,1.23A1.2,1.2,0,0,0,162.61,151Z"/><path class="cls-1" d="M163.69,149.56H164v.51a1.09,1.09,0,0,1,.24-.29,1.17,1.17,0,0,1,.78-.28h.12v.27H165a1,1,0,0,0-1,1v1.62h-.27Z"/><path class="cls-1" d="M167.89,151.86a1.35,1.35,0,0,1-.26.32,1.27,1.27,0,0,1-.85.31,1.5,1.5,0,0,1,0-3,1.27,1.27,0,0,1,.85.31,1.53,1.53,0,0,1,.26.31v-1.88h.27v4.19h-.27Zm0-.87a1.1,1.1,0,1,0-1.11,1.23A1.15,1.15,0,0,0,167.89,151Z"/><path class="cls-1" d="M171.55,151.89a1.18,1.18,0,0,1-.29.3,1.35,1.35,0,0,1-.85.3A1.47,1.47,0,0,1,169,151a1.42,1.42,0,0,1,1.38-1.49A1.38,1.38,0,0,1,171.7,151v.12h-2.43a1.18,1.18,0,0,0,1.14,1.11,1.09,1.09,0,0,0,.7-.25.83.83,0,0,0,.23-.26Zm-.12-1a1.06,1.06,0,0,0-1.05-1.07,1.16,1.16,0,0,0-1.11,1.07Z"/><path class="cls-1" d="M172.51,149.56h.27v.51a1.09,1.09,0,0,1,.24-.29,1.17,1.17,0,0,1,.78-.28h.12v.27h-.12a1,1,0,0,0-1,1v1.62h-.27Z"/><path class="cls-1" d="M175.57,151.65a1,1,0,0,0,.28.27,1.47,1.47,0,0,0,.89.27c.73,0,1.08-.36,1.08-.87,0-1.13-2.34-.6-2.34-2a1.14,1.14,0,0,1,1.14-1.1v-.61h.3v.6a1.71,1.71,0,0,1,.8.27,1.31,1.31,0,0,1,.28.24l-.21.21a1,1,0,0,0-.25-.21,1.28,1.28,0,0,0-.74-.21c-.66,0-1,.36-1,.81,0,1.13,2.34.59,2.34,2a1.17,1.17,0,0,1-1.2,1.16v.61h-.3v-.6a1.82,1.82,0,0,1-1-.33,1.77,1.77,0,0,1-.31-.3Z"/><path class="cls-1" d="M181.39,152.13v.3h-2.64c0-1.65,2.34-1.79,2.34-3.05a.92.92,0,0,0-1-.9,1,1,0,0,0-.81.37,1.21,1.21,0,0,0-.18.38l-.27-.12a1.31,1.31,0,0,1,.24-.47,1.21,1.21,0,0,1,1-.46,1.23,1.23,0,0,1,1.32,1.2c0,1.34-2,1.55-2.31,2.75Z"/><path class="cls-1" d="M182.14,150.33c0-1.34.81-2.15,1.62-2.15s1.62.81,1.62,2.15-.8,2.16-1.62,2.16S182.14,151.68,182.14,150.33Zm2.94,0c0-1.19-.67-1.85-1.32-1.85s-1.32.66-1.32,1.85.67,1.86,1.32,1.86S185.08,151.53,185.08,150.33Z"/><path class="cls-1" d="M186.37,152a.21.21,0,1,1-.21.21A.21.21,0,0,1,186.37,152Z"/><path class="cls-1" d="M192.4,151.59a2.34,2.34,0,0,1-.44.45,2,2,0,0,1-1.3.45,2.16,2.16,0,0,1,0-4.31,2,2,0,0,1,1.28.45,2,2,0,0,1,.43.45l-.21.18a1.71,1.71,0,0,0-.37-.39,1.79,1.79,0,0,0-1.13-.39,1.86,1.86,0,0,0,0,3.71,1.85,1.85,0,0,0,1.15-.39,1.76,1.76,0,0,0,.38-.39Z"/><path class="cls-1" d="M192.91,151a1.44,1.44,0,1,1,1.44,1.5A1.46,1.46,0,0,1,192.91,151Zm2.61,0a1.17,1.17,0,1,0-1.17,1.23A1.2,1.2,0,0,0,195.52,151Z"/><path class="cls-1" d="M196.6,149.56h.27V150a.79.79,0,0,1,.2-.27.91.91,0,0,1,.67-.27,1,1,0,0,1,.74.33,1.19,1.19,0,0,1,.22.33,1.19,1.19,0,0,1,.22-.33,1,1,0,0,1,.77-.33,1.11,1.11,0,0,1,1.08,1.22v1.71h-.27v-1.71a.84.84,0,0,0-.81-.95.92.92,0,0,0-.87,1v1.62h-.27v-1.71a.84.84,0,0,0-.81-.95.92.92,0,0,0-.87,1v1.62h-.27Z"/><path class="cls-1" d="M201.76,149.56H202v.56a1.53,1.53,0,0,1,.26-.31,1.27,1.27,0,0,1,.85-.31,1.5,1.5,0,0,1,0,3,1.27,1.27,0,0,1-.85-.31,1.35,1.35,0,0,1-.26-.32v1.83h-.27Zm2.46,1.43a1.1,1.1,0,1,0-1.08,1.23A1.15,1.15,0,0,0,204.22,151Z"/><path class="cls-1" d="M207.64,151.89a1.18,1.18,0,0,1-.29.3,1.35,1.35,0,0,1-.85.3,1.47,1.47,0,0,1-1.41-1.5,1.42,1.42,0,0,1,1.38-1.49,1.38,1.38,0,0,1,1.32,1.49v.12h-2.43a1.18,1.18,0,0,0,1.14,1.11,1.09,1.09,0,0,0,.7-.25.83.83,0,0,0,.23-.26Zm-.12-1a1.06,1.06,0,0,0-1.05-1.07,1.16,1.16,0,0,0-1.11,1.07Z"/><path class="cls-1" d="M208.84,149.83h-.57v-.27h.39a.21.21,0,0,0,.21-.24v-.72h.24v1h.66v.27h-.66v1.88c0,.34.18.51.45.51a.82.82,0,0,0,.28,0l.11-.05v.27l-.11,0a.82.82,0,0,1-.28,0c-.46,0-.72-.27-.72-.78Z"/><path class="cls-1" d="M210.88,148.33a.21.21,0,1,1-.21.21A.21.21,0,0,1,210.88,148.33Zm-.15,1.23H211v2.87h-.27Z"/><path class="cls-1" d="M212.29,149.83h-.57v-.27h.39a.21.21,0,0,0,.21-.24v-.72h.24v1h.66v.27h-.66v1.88c0,.34.18.51.45.51a.82.82,0,0,0,.28,0l.11-.05v.27l-.11,0a.82.82,0,0,1-.28,0c-.46,0-.72-.27-.72-.78Z"/><path class="cls-1" d="M214.33,148.33a.21.21,0,1,1-.21.21A.21.21,0,0,1,214.33,148.33Zm-.15,1.23h.27v2.87h-.27Z"/><path class="cls-1" d="M215.29,151a1.44,1.44,0,1,1,1.44,1.5A1.46,1.46,0,0,1,215.29,151Zm2.61,0a1.17,1.17,0,1,0-1.17,1.23A1.2,1.2,0,0,0,217.9,151Z"/><path class="cls-1" d="M219,149.56h.27v.51a1.28,1.28,0,0,1,.23-.29,1.11,1.11,0,0,1,.76-.28,1.17,1.17,0,0,1,1.17,1.22v1.71h-.27v-1.71a.89.89,0,0,0-.9-.95,1,1,0,0,0-1,1v1.62H219Z"/><path class="cls-1" d="M225.94,151.89a1.38,1.38,0,0,1-.29.3,1.35,1.35,0,0,1-.85.3,1.5,1.5,0,0,1,0-3,1.41,1.41,0,0,1,.85.29,1.64,1.64,0,0,1,.29.3l-.21.19a1,1,0,0,0-.23-.26,1.15,1.15,0,0,0-.7-.25,1.23,1.23,0,0,0,0,2.45,1.09,1.09,0,0,0,.7-.25.83.83,0,0,0,.23-.26Z"/><path class="cls-1" d="M226.72,148.24H227v4.19h-.27Z"/><path class="cls-1" d="M227.83,151a1.44,1.44,0,1,1,1.44,1.5A1.46,1.46,0,0,1,227.83,151Zm2.61,0a1.17,1.17,0,1,0-1.17,1.23A1.2,1.2,0,0,0,230.44,151Z"/><path class="cls-1" d="M231.46,151.8a1.39,1.39,0,0,0,.21.21.9.9,0,0,0,.6.21c.48,0,.75-.26.75-.6,0-.72-1.65-.39-1.65-1.34a.86.86,0,0,1,.93-.78,1.15,1.15,0,0,1,.66.21,1.21,1.21,0,0,1,.24.21l-.21.2a1,1,0,0,0-.18-.17.82.82,0,0,0-.51-.18c-.43,0-.66.24-.66.51,0,.69,1.65.35,1.65,1.34a.92.92,0,0,1-1,.87,1.32,1.32,0,0,1-.76-.24,1.2,1.2,0,0,1-.26-.24Z"/><path class="cls-1" d="M236.44,151.89a1.44,1.44,0,0,1-1.14.6,1.47,1.47,0,0,1-1.41-1.5,1.42,1.42,0,0,1,1.38-1.49,1.38,1.38,0,0,1,1.32,1.49v.12h-2.43a1.17,1.17,0,0,0,1.14,1.11,1.09,1.09,0,0,0,.7-.25.83.83,0,0,0,.23-.26Zm-.12-1a1.07,1.07,0,0,0-1-1.07,1.16,1.16,0,0,0-1.11,1.07Z"/><path class="cls-1" d="M237.34,151.8a1.39,1.39,0,0,0,.21.21.9.9,0,0,0,.6.21c.48,0,.75-.26.75-.6,0-.72-1.65-.39-1.65-1.34a.86.86,0,0,1,.93-.78,1.15,1.15,0,0,1,.66.21,1.21,1.21,0,0,1,.24.21l-.21.2a1,1,0,0,0-.18-.17.82.82,0,0,0-.51-.18c-.43,0-.66.24-.66.51,0,.69,1.65.35,1.65,1.34a.92.92,0,0,1-1,.87,1.32,1.32,0,0,1-.76-.24,1.2,1.2,0,0,1-.26-.24Z"/><path class="cls-1" d="M243.61,152.13v.3H241c0-1.65,2.34-1.79,2.34-3.05a.92.92,0,0,0-1-.9,1,1,0,0,0-.81.37.89.89,0,0,0-.18.38l-.27-.12a1.29,1.29,0,0,1,.23-.47,1.22,1.22,0,0,1,1-.46,1.23,1.23,0,0,1,1.32,1.2c0,1.34-2.05,1.55-2.31,2.75Z"/><path class="cls-1" d="M246.22,150.75a.39.39,0,0,1-.15.06,1.24,1.24,0,0,1-.39.07,1.35,1.35,0,1,1,1.38-1.35,1.67,1.67,0,0,1-.15.64,2.75,2.75,0,0,1-.15.25l-1.26,2h-.33Zm-.54-.17a1.05,1.05,0,1,0,0-2.1,1.05,1.05,0,1,0,0,2.1Z"/><path class="cls-1" d="M249.22,148.18h.3l-1.83,5.51h-.3Z"/><path class="cls-1" d="M250.12,151.65a1.15,1.15,0,0,0,.27.27,1.3,1.3,0,0,0,.81.27,1,1,0,0,0,1.11-1.05,1,1,0,0,0-1.05-1,1.15,1.15,0,0,0-.74.26.86.86,0,0,0-.22.25h-.24l.15-2.36h2.13v.3h-1.86l-.09,1.58a1.52,1.52,0,0,1,.23-.16,1.25,1.25,0,0,1,.64-.17,1.34,1.34,0,0,1,1.35,1.35,1.36,1.36,0,0,1-1.41,1.35,1.57,1.57,0,0,1-1-.31,1.22,1.22,0,0,1-.32-.32Z"/><path class="cls-1" d="M254.77,148.18h.3l-1.83,5.51h-.3Z"/><path class="cls-1" d="M258,152.13v.3h-2.64c0-1.65,2.34-1.79,2.34-3.05a.92.92,0,0,0-1-.9,1,1,0,0,0-.81.37.89.89,0,0,0-.18.38l-.27-.12a1.29,1.29,0,0,1,.23-.47,1.22,1.22,0,0,1,1-.46,1.23,1.23,0,0,1,1.32,1.2c0,1.34-2,1.55-2.31,2.75Z"/><path class="cls-1" d="M261.31,152.13v.3h-2.64c0-1.65,2.34-1.79,2.34-3.05a.92.92,0,0,0-1-.9,1,1,0,0,0-.81.37.89.89,0,0,0-.18.38l-.27-.12a1.29,1.29,0,0,1,.23-.47,1.22,1.22,0,0,1,1-.46,1.23,1.23,0,0,1,1.32,1.2c0,1.34-2.05,1.55-2.31,2.75Z"/><path class="cls-1" d="M262.27,152a.21.21,0,1,1-.21.21A.21.21,0,0,1,262.27,152Z"/><path class="cls-1" d="M265.24,148.24h.33L267,152l1.47-3.74h.33l-1.65,4.19h-.3Z"/><path class="cls-1" d="M269.56,148.33a.21.21,0,1,1-.21.21A.21.21,0,0,1,269.56,148.33Zm-.15,1.23h.27v2.87h-.27Z"/><path class="cls-1" d="M270.67,151.8a1.39,1.39,0,0,0,.21.21.9.9,0,0,0,.6.21c.48,0,.75-.26.75-.6,0-.72-1.65-.39-1.65-1.34a.86.86,0,0,1,.93-.78,1.15,1.15,0,0,1,.66.21,1.21,1.21,0,0,1,.24.21l-.21.2A1,1,0,0,0,272,150a.82.82,0,0,0-.51-.18c-.43,0-.66.24-.66.51,0,.69,1.65.35,1.65,1.34a.92.92,0,0,1-1,.87,1.32,1.32,0,0,1-.76-.24,1.2,1.2,0,0,1-.26-.24Z"/><path class="cls-1" d="M273.49,148.33a.21.21,0,1,1-.21.21A.21.21,0,0,1,273.49,148.33Zm-.15,1.23h.27v2.87h-.27Z"/><path class="cls-1" d="M274.9,149.83h-.57v-.27h.39a.21.21,0,0,0,.21-.24v-.72h.24v1h.66v.27h-.66v1.88c0,.34.18.51.45.51a.73.73,0,0,0,.27,0l.12-.05v.27l-.12,0a.73.73,0,0,1-.27,0c-.46,0-.72-.27-.72-.78Z"/><path class="cls-1" d="M277.45,149.56h.3l.81,2.42.78-2.42h.24l.78,2.45.81-2.45h.29l-.95,2.87h-.27l-.78-2.43-.78,2.43h-.27Z"/><path class="cls-1" d="M281.71,149.56h.3l.81,2.42.78-2.42h.24l.78,2.45.8-2.45h.3l-1,2.87h-.27l-.78-2.43-.78,2.43h-.27Z"/><path class="cls-1" d="M286,149.56h.3l.81,2.42.78-2.42h.24l.78,2.45.8-2.45h.3l-1,2.87h-.28L288,150l-.78,2.43h-.27Z"/><path class="cls-1" d="M290.47,152a.21.21,0,1,1-.21.21A.21.21,0,0,1,290.47,152Z"/><path class="cls-1" d="M291.73,148.24H293a2.1,2.1,0,1,1,0,4.19h-1.23Zm1.23,3.89a1.8,1.8,0,1,0,0-3.59H292v3.59Z"/><path class="cls-1" d="M297.79,151.92a1.16,1.16,0,0,1-.25.29,1.18,1.18,0,0,1-.8.28.88.88,0,0,1-1-.81c0-.45.32-.78.87-.87l1.14-.18a.78.78,0,0,0-.81-.86,1.05,1.05,0,0,0-.84.42L296,150a1.55,1.55,0,0,1,.26-.25,1.29,1.29,0,0,1,.76-.25,1.06,1.06,0,0,1,1.08,1.13v1.8h-.27Zm0-1-1.08.18c-.46.08-.66.3-.66.6a.62.62,0,0,0,.69.54,1,1,0,0,0,1.05-1.05Z"/><path class="cls-1" d="M299,151.8a1,1,0,0,0,.21.21.9.9,0,0,0,.6.21c.48,0,.75-.26.75-.6,0-.72-1.65-.39-1.65-1.34a.86.86,0,0,1,.93-.78,1.15,1.15,0,0,1,.66.21,1.21,1.21,0,0,1,.24.21l-.21.2a1,1,0,0,0-.18-.17.82.82,0,0,0-.51-.18c-.43,0-.66.24-.66.51,0,.69,1.65.35,1.65,1.34a.92.92,0,0,1-1,.87,1.29,1.29,0,0,1-.76-.24,1.2,1.2,0,0,1-.26-.24Z"/><path class="cls-1" d="M301.66,148.24h.27v1.83a1.05,1.05,0,0,1,.23-.29,1.11,1.11,0,0,1,.76-.28,1.17,1.17,0,0,1,1.17,1.22v1.71h-.27v-1.71a.89.89,0,0,0-.9-.95,1,1,0,0,0-1,1v1.62h-.27Z"/><path class="cls-1" d="M307.51,152.13v.3h-2.64c0-1.65,2.34-1.79,2.34-3.05a.92.92,0,0,0-1-.9,1,1,0,0,0-.81.37.89.89,0,0,0-.18.38l-.27-.12a1.29,1.29,0,0,1,.23-.47,1.22,1.22,0,0,1,1-.46,1.23,1.23,0,0,1,1.32,1.2c0,1.34-2.05,1.55-2.31,2.75Z"/><path class="cls-1" d="M308.53,148.24h.3v3.89h2.25v.3h-2.55Z"/><path class="cls-1" d="M313.06,148.24h.3l1.73,4.19h-.32l-.51-1.23h-2.1l-.51,1.23h-.33Zm1.08,2.66-.93-2.24-.93,2.24Z"/><path class="cls-1" d="M315.82,152a.21.21,0,1,1-.21.21A.21.21,0,0,1,315.82,152Z"/><path class="cls-1" d="M319.27,151.89a1.44,1.44,0,0,1-1.14.6,1.5,1.5,0,0,1,0-3,1.43,1.43,0,0,1,.85.29,1.64,1.64,0,0,1,.29.3l-.21.19a1,1,0,0,0-.23-.26,1.15,1.15,0,0,0-.7-.25,1.23,1.23,0,0,0,0,2.45,1.09,1.09,0,0,0,.7-.25.83.83,0,0,0,.23-.26Z"/><path class="cls-1" d="M319.75,151a1.44,1.44,0,1,1,1.44,1.5A1.46,1.46,0,0,1,319.75,151Zm2.6,0a1.17,1.17,0,1,0-2.33,0,1.17,1.17,0,1,0,2.33,0Z"/><path class="cls-1" d="M323.44,149.56h.27V150a.93.93,0,0,1,.87-.54,1,1,0,0,1,.73.33,1.19,1.19,0,0,1,.22.33,1.46,1.46,0,0,1,.22-.33,1,1,0,0,1,.77-.33,1.11,1.11,0,0,1,1.08,1.22v1.71h-.27v-1.71a.84.84,0,0,0-.81-.95.92.92,0,0,0-.87,1v1.62h-.27v-1.71a.84.84,0,0,0-.8-.95c-.49,0-.87.39-.87,1v1.62h-.27Z"/><path class="cls-1" d="M330,149.83h-.48v-.27H330V149c0-.51.26-.78.72-.78a1,1,0,0,1,.27,0l.11.05v.27l-.11,0a1,1,0,0,0-.27,0c-.27,0-.45.17-.45.51v.6h.72v.27h-.72v2.6H330Z"/><path class="cls-1" d="M331.42,151a1.44,1.44,0,1,1,1.44,1.5A1.46,1.46,0,0,1,331.42,151Zm2.6,0a1.17,1.17,0,1,0-2.33,0,1.17,1.17,0,1,0,2.33,0Z"/><path class="cls-1" d="M335.11,149.56h.27v.51a.93.93,0,0,1,.24-.29,1.16,1.16,0,0,1,.77-.28h.12v.27h-.12a1,1,0,0,0-1,1v1.62h-.27Z"/><path class="cls-1" d="M339,148.54h-1.37v-.3h3.05v.3H339.3v3.89H339Z"/><path class="cls-1" d="M343.5,151.56a1.28,1.28,0,0,0,.15-.31,2.42,2.42,0,0,0,.15-.86h.27a2.83,2.83,0,0,1-.19,1,2.18,2.18,0,0,1-.2.37,1.93,1.93,0,0,0,.17.21.53.53,0,0,0,.37.21h.13l0,0v.27l0,0h-.13a.75.75,0,0,1-.51-.24,2.57,2.57,0,0,1-.21-.24,1.22,1.22,0,0,1-.3.26,1.58,1.58,0,0,1-.87.25,1,1,0,0,1-1.1-1,1.32,1.32,0,0,1,.42-.89,2,2,0,0,1,.42-.33,2.8,2.8,0,0,1-.33-.38,1.39,1.39,0,0,1-.33-.79.88.88,0,0,1,.92-.9.84.84,0,0,1,.9.87,1.29,1.29,0,0,1-.4.85,3.58,3.58,0,0,1-.41.35Zm-1.29-1.14a2.15,2.15,0,0,0-.35.32,1.09,1.09,0,0,0-.36.73c0,.46.29.75.83.75a1.26,1.26,0,0,0,.75-.22.88.88,0,0,0,.24-.23Zm.41-.67a1.13,1.13,0,0,0,.34-.7.58.58,0,0,0-.63-.6.63.63,0,0,0-.66.63,1.31,1.31,0,0,0,.3.66c.1.11.19.22.3.33A2.66,2.66,0,0,0,342.62,149.75Z"/><path class="cls-1" d="M348.69,151.59a2.08,2.08,0,0,1-.44.45,2,2,0,0,1-1.3.45,2.16,2.16,0,0,1,0-4.31,2,2,0,0,1,1.29.45,2.24,2.24,0,0,1,.42.45l-.21.18a1.52,1.52,0,0,0-.37-.39,1.75,1.75,0,0,0-1.13-.39,1.86,1.86,0,0,0,0,3.71,1.85,1.85,0,0,0,1.15-.39,1.56,1.56,0,0,0,.38-.39Z"/><path class="cls-1" d="M349.42,151.8a1,1,0,0,0,.21.21.9.9,0,0,0,.6.21c.48,0,.74-.26.74-.6,0-.72-1.64-.39-1.64-1.34a.86.86,0,0,1,.92-.78,1.16,1.16,0,0,1,.67.21.93.93,0,0,1,.23.21l-.21.2a.69.69,0,0,0-.17-.17.83.83,0,0,0-.52-.18c-.42,0-.65.24-.65.51,0,.69,1.64.35,1.64,1.34a.91.91,0,0,1-1,.87,1.29,1.29,0,0,1-.76-.24,1.2,1.2,0,0,1-.26-.24Z"/><path class="cls-1" d="M352.15,152a.21.21,0,1,1-.21.21A.21.21,0,0,1,352.15,152Z"/><path class="cls-1" d="M144.72,155.44H145l2.79,3.62v-3.62h.3v4.19h-.24L145,156v3.62h-.3Z"/><path class="cls-1" d="M149.19,158.85a1,1,0,0,0,.28.27,1.47,1.47,0,0,0,.89.27c.72,0,1.08-.36,1.08-.87,0-1.14-2.34-.6-2.34-2a1.19,1.19,0,0,1,1.32-1.11,1.74,1.74,0,0,1,.89.25,1.58,1.58,0,0,1,.31.26l-.21.21a1,1,0,0,0-.25-.21,1.33,1.33,0,0,0-.74-.21c-.66,0-1,.36-1,.81,0,1.13,2.34.59,2.34,2a1.22,1.22,0,0,1-1.38,1.17,1.76,1.76,0,0,1-1-.31,1.48,1.48,0,0,1-.34-.32Z"/><path class="cls-1" d="M152.1,155.44h.33l1.17,3.71,1.2-3.71h.3l1.2,3.71,1.16-3.71h.33l-1.34,4.19h-.3l-1.2-3.71-1.2,3.71h-.3Z"/><path class="cls-1" d="M159.63,155.44h1.5a1.29,1.29,0,1,1,0,2.57h-1.2v1.62h-.3Zm1.5,2.27a1,1,0,1,0,0-2h-1.2v2Z"/><path class="cls-1" d="M165.48,159.09a1.38,1.38,0,0,1-.29.3,1.35,1.35,0,0,1-.85.3,1.47,1.47,0,0,1-1.41-1.5,1.42,1.42,0,0,1,1.38-1.49,1.38,1.38,0,0,1,1.32,1.49v.12H163.2a1.17,1.17,0,0,0,1.14,1.11,1.09,1.09,0,0,0,.7-.25.83.83,0,0,0,.23-.26Zm-.12-1.05a1.07,1.07,0,0,0-1.05-1.08A1.16,1.16,0,0,0,163.2,158Z"/><path class="cls-1" d="M166.44,156.75h.27v.51A1.23,1.23,0,0,1,167,157a1.17,1.17,0,0,1,.78-.28h.12V157h-.12a1,1,0,0,0-1,1v1.62h-.27Z"/><path class="cls-1" d="M168.45,156.75h.27v.48a1.05,1.05,0,0,1,.2-.27.93.93,0,0,1,.67-.26,1,1,0,0,1,.74.33,1.4,1.4,0,0,1,.22.32,1.11,1.11,0,0,1,.21-.32,1,1,0,0,1,.78-.33,1.11,1.11,0,0,1,1.08,1.22v1.71h-.27v-1.71a.86.86,0,0,0-.81-1,.93.93,0,0,0-.87,1v1.62h-.27v-1.71a.86.86,0,0,0-.81-1,.93.93,0,0,0-.87,1v1.62h-.27Z"/><path class="cls-1" d="M173.79,155.53a.21.21,0,1,1-.21.21A.21.21,0,0,1,173.79,155.53Zm-.15,1.22h.27v2.88h-.27Z"/><path class="cls-1" d="M175.2,157h-.57v-.28H175a.21.21,0,0,0,.21-.23v-.72h.24v.95h.66V157h-.66v1.88c0,.34.18.51.45.51a.73.73,0,0,0,.27,0l.12,0v.27l-.12.05a.73.73,0,0,1-.27,0c-.46,0-.72-.27-.72-.78Z"/><path class="cls-1" d="M178.41,155.44h.24l2.79,3.62v-3.62h.3v4.19h-.24L178.71,156v3.62h-.3Z"/><path class="cls-1" d="M182.7,158.19a1.44,1.44,0,1,1,2.88,0,1.44,1.44,0,1,1-2.88,0Zm2.61,0a1.17,1.17,0,1,0-1.17,1.23A1.2,1.2,0,0,0,185.31,158.19Z"/><path class="cls-1" d="M186.48,159.24a.21.21,0,1,1-.21.21A.21.21,0,0,1,186.48,159.24Z"/><path class="cls-1" d="M189.6,155.74h-1.38v-.3h3.06v.3H189.9v3.89h-.3Z"/><path class="cls-1" d="M192.06,155.44h1.5a1.29,1.29,0,1,1,0,2.57h-1.2v1.62h-.3Zm1.5,2.27a1,1,0,1,0,0-2h-1.2v2Z"/><path class="cls-1" d="M197.07,155.38h.3l-1.83,5.51h-.3Z"/><path class="cls-1" d="M197.76,157.54c0-1.35.8-2.16,1.62-2.16s1.62.81,1.62,2.16-.81,2.15-1.62,2.15S197.76,158.88,197.76,157.54Zm2.94,0c0-1.21-.67-1.86-1.32-1.86s-1.32.65-1.32,1.86.66,1.85,1.32,1.85S200.7,158.73,200.7,157.54Z"/><path class="cls-1" d="M202.44,156a.78.78,0,0,1-.2.16,1.06,1.06,0,0,1-.61.17v-.24a.83.83,0,0,0,.64-.32,1.47,1.47,0,0,0,.23-.31h.24v4.19h-.3Z"/><path class="cls-1" d="M205.79,155.74h-2.27v-.3h2.6v.3l-1.91,3.89h-.33Z"/><path class="cls-1" d="M207.9,155.44h.33l-1,1.68a.61.61,0,0,1,.14-.07,1.87,1.87,0,0,1,.4-.05,1.35,1.35,0,1,1-1.38,1.34,1.47,1.47,0,0,1,.15-.64,1.35,1.35,0,0,1,.15-.26Zm-.18,3.95a1.05,1.05,0,1,0-1.08-1A1,1,0,0,0,207.72,159.39Z"/><path class="cls-1" d="M211.64,155.74h-2.27v-.3H212v.3l-1.91,3.89h-.33Z"/><path class="cls-1" d="M212.22,159.24a.21.21,0,1,1-.21.21A.21.21,0,0,1,212.22,159.24Z"/><path class="cls-1" d="M216.9,155.44h.3l1.73,4.19h-.33l-.51-1.23H216l-.51,1.23h-.33ZM218,158.1l-.93-2.24-.92,2.24Z"/><path class="cls-1" d="M223.16,158.79a2.08,2.08,0,0,1-.44.45,2,2,0,0,1-1.3.45,2.16,2.16,0,0,1,0-4.31,2,2,0,0,1,1.29.45,2.24,2.24,0,0,1,.42.45l-.21.18a1.52,1.52,0,0,0-.37-.39,1.75,1.75,0,0,0-1.13-.39,1.86,1.86,0,0,0,0,3.71,1.85,1.85,0,0,0,1.15-.39,1.56,1.56,0,0,0,.38-.39Z"/><path class="cls-1" d="M224.94,155.74h-1.38v-.3h3.06v.3h-1.38v3.89h-.3Z"/><path class="cls-1" d="M228.42,155.44h1.5a1.29,1.29,0,1,1,0,2.57h-1.21v1.62h-.29Zm1.5,2.27a1,1,0,1,0,0-2h-1.21v2Z"/><path class="cls-1" d="M234.26,159.09a1.14,1.14,0,0,1-.28.3,1.38,1.38,0,0,1-.86.3,1.47,1.47,0,0,1-1.4-1.5,1.42,1.42,0,0,1,1.37-1.49,1.38,1.38,0,0,1,1.32,1.49v.12H232a1.17,1.17,0,0,0,1.13,1.11,1.1,1.1,0,0,0,.71-.25.8.8,0,0,0,.22-.26Zm-.12-1.05a1.06,1.06,0,0,0-1-1.08A1.16,1.16,0,0,0,232,158Z"/><path class="cls-1" d="M235.23,156.75h.27v.51a1,1,0,0,1,.24-.28,1.16,1.16,0,0,1,.77-.28h.12V157h-.12a1,1,0,0,0-1,1v1.62h-.27Z"/><path class="cls-1" d="M237.24,156.75h.26v.48a1.35,1.35,0,0,1,.2-.27,1,1,0,0,1,1.41.07,1.14,1.14,0,0,1,.22.32,1.4,1.4,0,0,1,.22-.32,1,1,0,0,1,.77-.33,1.11,1.11,0,0,1,1.08,1.22v1.71h-.27v-1.71a.86.86,0,0,0-.81-1,.93.93,0,0,0-.87,1v1.62h-.27v-1.71a.86.86,0,0,0-.8-1,.93.93,0,0,0-.88,1v1.62h-.26Z"/><path class="cls-1" d="M242.58,155.53a.21.21,0,1,1-.21.21A.21.21,0,0,1,242.58,155.53Zm-.15,1.22h.27v2.88h-.27Z"/><path class="cls-1" d="M244,157h-.57v-.28h.38a.21.21,0,0,0,.21-.23v-.72h.24v.95h.66V157h-.66v1.88c0,.34.18.51.45.51a.75.75,0,0,0,.28,0l.11,0v.27l-.11.05a.75.75,0,0,1-.28,0c-.45,0-.71-.27-.71-.78Z"/><path class="cls-1" d="M247.19,155.44h.24l2.79,3.62v-3.62h.3v4.19h-.24L247.49,156v3.62h-.3Z"/><path class="cls-1" d="M251.49,158.19a1.44,1.44,0,1,1,1.43,1.5A1.46,1.46,0,0,1,251.49,158.19Zm2.6,0a1.17,1.17,0,1,0-1.17,1.23A1.2,1.2,0,0,0,254.09,158.19Z"/><path class="cls-1" d="M255.26,159.24a.21.21,0,1,1-.21.21A.21.21,0,0,1,255.26,159.24Z"/><path class="cls-1" d="M258.38,155.74H257v-.3h3.05v.3h-1.38v3.89h-.3Z"/><path class="cls-1" d="M260.84,155.44h1.5a1.29,1.29,0,1,1,0,2.57h-1.2v1.62h-.3Zm1.5,2.27a1,1,0,1,0,0-2h-1.2v2Z"/><path class="cls-1" d="M268,159.33v.3h-2.64c0-1.65,2.34-1.79,2.34-3a.92.92,0,0,0-1-.9,1,1,0,0,0-.81.37,1.21,1.21,0,0,0-.18.38l-.27-.12a1.31,1.31,0,0,1,.24-.47,1.21,1.21,0,0,1,1-.46,1.23,1.23,0,0,1,1.32,1.2c0,1.34-2,1.55-2.31,2.75Z"/><path class="cls-1" d="M271.28,159.33v.3h-2.64c0-1.65,2.34-1.79,2.34-3a.92.92,0,0,0-1-.9,1,1,0,0,0-.81.37,1.21,1.21,0,0,0-.18.38l-.27-.12a1.31,1.31,0,0,1,.24-.47,1.21,1.21,0,0,1,1-.46,1.23,1.23,0,0,1,1.32,1.2c0,1.34-2,1.55-2.31,2.75Z"/><path class="cls-1" d="M273.47,155.38h.3l-1.83,5.51h-.3Z"/><path class="cls-1" d="M274.16,157.54c0-1.35.81-2.16,1.62-2.16s1.62.81,1.62,2.16-.8,2.15-1.62,2.15S274.16,158.88,274.16,157.54Zm2.94,0c0-1.21-.66-1.86-1.32-1.86s-1.32.65-1.32,1.86.67,1.85,1.32,1.85S277.1,158.73,277.1,157.54Z"/><path class="cls-1" d="M278.18,157.54c0-1.35.81-2.16,1.62-2.16s1.62.81,1.62,2.16-.8,2.15-1.62,2.15S278.18,158.88,278.18,157.54Zm2.94,0c0-1.21-.66-1.86-1.32-1.86s-1.32.65-1.32,1.86.67,1.85,1.32,1.85S281.12,158.73,281.12,157.54Z"/><path class="cls-1" d="M282.41,158.85a1.15,1.15,0,0,0,.27.27,1.32,1.32,0,0,0,.81.27,1,1,0,0,0,1.11-1,1,1,0,0,0-1.05-1.05,1.2,1.2,0,0,0-.74.26,1,1,0,0,0-.22.25h-.24l.15-2.36h2.13v.3h-1.86l-.09,1.59a1,1,0,0,1,.24-.17,1.21,1.21,0,0,1,.63-.16,1.34,1.34,0,0,1,1.35,1.34,1.35,1.35,0,0,1-1.41,1.35,1.6,1.6,0,0,1-1-.31,1.62,1.62,0,0,1-.32-.32Z"/><path class="cls-1" d="M285.83,158.85a1.15,1.15,0,0,0,.27.27,1.32,1.32,0,0,0,.81.27,1,1,0,0,0,1.11-1,1,1,0,0,0-1-1.05,1.2,1.2,0,0,0-.74.26,1,1,0,0,0-.22.25h-.24l.15-2.36h2.13v.3h-1.86l-.09,1.59a1,1,0,0,1,.24-.17A1.21,1.21,0,0,1,287,157a1.34,1.34,0,0,1,1.35,1.34,1.35,1.35,0,0,1-1.41,1.35,1.6,1.6,0,0,1-1-.31,1.62,1.62,0,0,1-.32-.32Z"/><path class="cls-1" d="M290.54,155.44h.33l-1.05,1.68a.52.52,0,0,1,.15-.07,1.69,1.69,0,0,1,.39-.05,1.35,1.35,0,1,1,0,2.69,1.35,1.35,0,0,1-1.38-1.35,1.47,1.47,0,0,1,.15-.64,2.2,2.2,0,0,1,.15-.26Zm-.18,3.95a1.05,1.05,0,1,0-1.08-1A1,1,0,0,0,290.36,159.39Z"/><path class="cls-1" d="M292.67,159.24a.21.21,0,1,1-.21.21A.21.21,0,0,1,292.67,159.24Z"/><path class="cls-1" d="M295,158.85a.94.94,0,0,0,.29.27,1.44,1.44,0,0,0,.88.27c.73,0,1.08-.36,1.08-.87,0-1.14-2.34-.6-2.34-2a1.19,1.19,0,0,1,1.32-1.11,1.78,1.78,0,0,1,.9.25,1.28,1.28,0,0,1,.3.26l-.21.21a1,1,0,0,0-.24-.21,1.34,1.34,0,0,0-.75-.21c-.66,0-1,.36-1,.81,0,1.13,2.34.59,2.34,2a1.22,1.22,0,0,1-1.38,1.17,1.81,1.81,0,0,1-1-.31,1.72,1.72,0,0,1-.34-.32Z"/><path class="cls-1" d="M299.69,155.44h.3l1.74,4.19h-.33l-.51-1.23h-2.1l-.51,1.23H298Zm1.08,2.66-.93-2.24-.93,2.24Z"/><path class="cls-1" d="M303.53,155.44h.3v3.89h2.25v.3h-2.55Z"/><path class="cls-1" d="M306.89,155.53a.21.21,0,1,1-.21.21A.21.21,0,0,1,306.89,155.53Zm-.15,1.22H307v2.88h-.27Z"/><path class="cls-1" d="M310.4,159.09a1.18,1.18,0,0,1-.29.3,1.35,1.35,0,0,1-.85.3,1.5,1.5,0,0,1,0-3,1.29,1.29,0,0,1,.85.3,1.14,1.14,0,0,1,.29.29l-.21.18a1.09,1.09,0,0,0-.23-.25,1.15,1.15,0,0,0-.7-.26,1.23,1.23,0,0,0,0,2.46,1.09,1.09,0,0,0,.7-.25.83.83,0,0,0,.23-.26Z"/><path class="cls-1" d="M313.43,159.09a1.18,1.18,0,0,1-.29.3,1.35,1.35,0,0,1-.85.3,1.47,1.47,0,0,1-1.41-1.5,1.43,1.43,0,0,1,1.38-1.49,1.38,1.38,0,0,1,1.32,1.49v.12h-2.43a1.18,1.18,0,0,0,1.14,1.11,1.14,1.14,0,0,0,.71-.25,1,1,0,0,0,.22-.26Zm-.12-1.05a1.06,1.06,0,0,0-1.05-1.08,1.17,1.17,0,0,0-1.11,1.08Z"/><path class="cls-1" d="M314.39,156.75h.27v.51a1.23,1.23,0,0,1,.24-.28,1.1,1.1,0,0,1,.75-.28,1.17,1.17,0,0,1,1.17,1.22v1.71h-.27v-1.71a.9.9,0,0,0-.9-1,1,1,0,0,0-1,1v1.62h-.27Z"/><path class="cls-1" d="M320.15,159.09a1.18,1.18,0,0,1-.29.3,1.35,1.35,0,0,1-.85.3,1.5,1.5,0,0,1,0-3,1.29,1.29,0,0,1,.85.3,1.14,1.14,0,0,1,.29.29l-.21.18a1.09,1.09,0,0,0-.23-.25,1.15,1.15,0,0,0-.7-.26,1.23,1.23,0,0,0,0,2.46,1.09,1.09,0,0,0,.7-.25.83.83,0,0,0,.23-.26Z"/><path class="cls-1" d="M323.18,159.09a1.18,1.18,0,0,1-.29.3,1.35,1.35,0,0,1-.85.3,1.47,1.47,0,0,1-1.41-1.5A1.43,1.43,0,0,1,322,156.7a1.38,1.38,0,0,1,1.32,1.49v.12H320.9a1.18,1.18,0,0,0,1.14,1.11,1.09,1.09,0,0,0,.7-.25.83.83,0,0,0,.23-.26Zm-.12-1.05A1.06,1.06,0,0,0,322,157,1.17,1.17,0,0,0,320.9,158Z"/><path class="cls-1" d="M325.49,155.44h.24l2.79,3.62v-3.62h.3v4.19h-.24L325.79,156v3.62h-.3Z"/><path class="cls-1" d="M329.78,158.19a1.44,1.44,0,1,1,1.44,1.5A1.46,1.46,0,0,1,329.78,158.19Zm2.61,0a1.17,1.17,0,1,0-1.17,1.23A1.2,1.2,0,0,0,332.39,158.19Z"/><path class="cls-1" d="M333.56,159.24a.21.21,0,1,1-.21.21A.21.21,0,0,1,333.56,159.24Z"/><path class="cls-1" d="M336.68,155.74H335.3v-.3h3.06v.3H337v3.89h-.3Z"/><path class="cls-1" d="M341.42,159.33v.3h-2.64c0-1.65,2.34-1.79,2.34-3a.92.92,0,0,0-1-.9,1,1,0,0,0-.81.37,1.21,1.21,0,0,0-.18.38l-.27-.12a1.31,1.31,0,0,1,.24-.47,1.21,1.21,0,0,1,1-.46,1.23,1.23,0,0,1,1.32,1.2c0,1.34-2,1.55-2.31,2.75Z"/><path class="cls-1" d="M344.72,159.33v.3h-2.64c0-1.65,2.34-1.79,2.34-3a.92.92,0,0,0-1-.9,1,1,0,0,0-.81.37,1.21,1.21,0,0,0-.18.38l-.27-.12a1.31,1.31,0,0,1,.24-.47,1.21,1.21,0,0,1,1-.46,1.23,1.23,0,0,1,1.32,1.2c0,1.34-2,1.55-2.31,2.75Z"/><path class="cls-1" d="M346.91,155.38h.3l-1.83,5.51h-.3Z"/><path class="cls-1" d="M347.33,158.31l2.1-2.87h.36v2.93h.54v.3h-.54v1h-.3v-1h-2.16Zm2.16.06v-2.54l-1.86,2.54Z"/><path class="cls-1" d="M350.84,158.85a1,1,0,0,0,.28.27,1.32,1.32,0,0,0,.83.27.91.91,0,1,0,0-1.8h-.39v-.3H352a.81.81,0,1,0,0-1.61,1.24,1.24,0,0,0-.73.24,1.2,1.2,0,0,0-.26.24l-.21-.24a1.14,1.14,0,0,1,.31-.27,1.57,1.57,0,0,1,.89-.27,1.16,1.16,0,0,1,1.23,1.11.88.88,0,0,1-.35.74,1.25,1.25,0,0,1-.34.19,1.4,1.4,0,0,1,.42.22,1,1,0,0,1,.42.85,1.29,1.29,0,0,1-1.38,1.2,1.61,1.61,0,0,1-1-.31,1.44,1.44,0,0,1-.33-.32Z"/><path class="cls-1" d="M354.74,156a.6.6,0,0,1-.19.16,1.12,1.12,0,0,1-.62.17v-.24a.85.85,0,0,0,.65-.32,1.44,1.44,0,0,0,.22-.31H355v4.19h-.3Z"/><path class="cls-1" d="M356.3,159.24a.21.21,0,1,1-.21.21A.21.21,0,0,1,356.3,159.24Z"/></g></svg>