<svg id="Layer_1" data-name="Layer 1" xmlns="http://www.w3.org/2000/svg" viewBox="0 0 120 600"><path d="M29.53,281.4c.51,1,1.43.93,1.43,1.52,0,.39-.36.53-.78.53H25.49c-.42,0-.76-.14-.76-.53,0-.59,1-.62,1.44-1.52a7.19,7.19,0,0,0,.33-2.86v-11a4.65,4.65,0,0,0-.28-2.3,1.61,1.61,0,0,0-.92-.59c-.4-.14-.68-.28-.68-.56s.11-.51.79-.64a13.42,13.42,0,0,0,2.66-.82,1.49,1.49,0,0,1,.54-.14c.33,0,.58.23.58.73v15.31A7.06,7.06,0,0,0,29.53,281.4Z"/><path d="M47.42,276.05c0,4.2-2.94,7.71-7.12,7.71s-7.15-2.95-7.15-7.52c0-4.23,3-7.74,7.23-7.74C44.84,268.5,47.42,271.81,47.42,276.05ZM40,269.91c-2.47,0-4,2.18-4,5.3,0,3.87,1.82,7.09,4.57,7.09s4-2.69,4-5.44C44.56,273.63,43.13,269.91,40,269.91Z"/><path d="M63.27,279.3a4.31,4.31,0,0,0,.19,1.63c.42.75,1.69.61,1.69,1.23,0,.28-.14.51-.79.65a16,16,0,0,0-2.52.78,1.47,1.47,0,0,1-.65.17c-.36,0-.59-.2-.59-.73v-1.51c0-.14-.08-.23-.16-.23a.29.29,0,0,0-.2.11,6,6,0,0,1-4.6,2.36c-2.69,0-5.75-2.05-5.75-6.9,0-4.15,2.52-8.36,6.7-8.36a6.82,6.82,0,0,1,3.7,1.12.41.41,0,0,0,.2.09c.08,0,.11-.06.11-.14V266.9a2.87,2.87,0,0,0-.31-1.68c-.53-.67-1.57-.53-1.57-1.15,0-.28.12-.48.79-.61a14.46,14.46,0,0,0,2.55-.79,1.6,1.6,0,0,1,.62-.17c.34,0,.59.23.59.73ZM60.6,276c0-3.87-1.65-6.06-4-6.06-2.94,0-4,3.14-4,5.92,0,3.31,1.63,5.92,4.06,5.92S60.6,279.47,60.6,276Z"/><path d="M78.52,271.08l-.42,0a5,5,0,0,1,.67,2.58c0,3-2.16,5.17-5.35,5.39-1.18.08-2.41,0-2.41.93,0,.56.56.81,2,.95,1.18.11,2.69.11,4.09.31,2,.31,3.14,1.43,3.14,3,0,3.05-3.11,4.62-7.2,4.62-2.47,0-4.38-.5-5.39-1.37a2.7,2.7,0,0,1-1.06-2.1A2.43,2.43,0,0,1,68.73,283c.42,0,.68.2.68.48s-.48.7-.48,1.57c0,1.82,2.33,2.47,4.43,2.47,2.61,0,4.57-1,4.57-2.44,0-1-.81-1.43-2.44-1.57a42.34,42.34,0,0,1-4.34-.37c-1.69-.3-2.5-1.26-2.5-2.3a2.61,2.61,0,0,1,1.77-2.24c.08,0,.08-.06.08-.08s0-.06-.08-.09a4.93,4.93,0,0,1-2.89-4.57,5.39,5.39,0,0,1,5.58-5.33c2.52,0,3.65,1.35,4.29,1.35.84,0,.59-1.38,1.82-1.38a1.07,1.07,0,0,1,1.15,1.18C80.37,270.61,79.7,271.08,78.52,271.08Zm-8.19,2.13c0,1.77.82,4.41,3,4.41,1.74,0,2.64-1.57,2.64-3.42s-.9-4.32-3-4.32C71.26,269.88,70.33,271.39,70.33,273.21Z"/><path d="M95,280.42c0,.79-2.13,3.34-5.86,3.34-4.29,0-6.82-3.37-6.82-7.21,0-4.09,2.92-8.05,7.27-8.05a5.5,5.5,0,0,1,5.72,5.25c0,1.71-.84,2-2.22,2h-7.6c-.19,0-.31.08-.31.28v.14c0,2.94,1.69,5.58,4.66,5.58,2.75,0,3.87-1.91,4.54-1.91A.57.57,0,0,1,95,280.42Zm-9.7-6.25c0,.14,0,.17.22.17h4.57c1.63,0,2.36-.34,2.36-1.63a3,3,0,0,0-3.12-2.83c-2.24,0-3.67,1.9-4,4C85.34,274.08,85.34,274.14,85.34,274.17Z"/></svg>