<svg id="Layer_1" data-name="Layer 1" xmlns="http://www.w3.org/2000/svg" viewBox="0 0 120 600"><defs><style>.cls-1{fill:#e24621;}</style></defs><path class="cls-1" d="M26.49,194.91c0,.73-.17,1.18-.76,1.18-.87,0-1.43-1.93-3.08-1.93-2.13,0-2.3,3-2.3,4.88,0,.19.08.28.28.28.5,0,1.15,0,1.82,0s1.43-.17,2-.17c.28,0,.78,0,.78.45a3.6,3.6,0,0,1-.08.56c-.14.81-.56.87-1.23.87s-1.1-.06-1.77-.08-1,0-1.46,0c-.28,0-.36.08-.36.33v7.32a7.7,7.7,0,0,0,.33,2.86c.45,1,1.43.9,1.43,1.52,0,.39-.36.53-.78.53H16.7c-.45,0-.78-.14-.78-.53,0-.65,1-.51,1.48-1.63a8.06,8.06,0,0,0,.28-2.75v-7.43c0-.17-.08-.22-.28-.22H15.66a.29.29,0,0,1-.33-.31v-1c0-.22.11-.3.33-.3H17.4c.23,0,.31-.09.31-.28.25-5.39,4.18-6.54,6.28-6.54a3,3,0,0,1,1.8.48A2.48,2.48,0,0,1,26.49,194.91Z"/><path class="cls-1" d="M39.11,211.74a.45.45,0,0,1,.47.45,2.12,2.12,0,0,1-2.1,1.57,2.15,2.15,0,0,1-2.13-2.22s0-.14-.06-.14,0,0-.11.12a5.32,5.32,0,0,1-4.49,2.24c-2.72,0-4.37-1.68-4.37-3.62a3.65,3.65,0,0,1,1.74-3.06c1.46-1,3.2-1.29,4.74-2,1.12-.51,2.35-1.32,2.35-2.84a2.23,2.23,0,0,0-2.44-2.3A3.91,3.91,0,0,0,29.46,202c-.56.78-.65,1.29-1.26,1.29s-.79-.65-.79-1.38a3.72,3.72,0,0,1,.48-2c.76-1,3-1.38,4.63-1.38,3.59,0,5.44,2,5.44,4.8,0,2.19-.09,4.77-.09,7,0,1,.34,1.43.9,1.43Zm-4-6.2s0-.11-.08-.11-.08,0-.2.11c-1,.76-2.83,1.24-4.18,2.13a2.85,2.85,0,0,0-1.4,2.33,2.08,2.08,0,0,0,2.25,2.13,3.39,3.39,0,0,0,3-2,9.09,9.09,0,0,0,.59-4.12Z"/><path class="cls-1" d="M42.28,208.49c.64,0,.95.87,1.57,1.74a4.19,4.19,0,0,0,3.47,2.07A2.57,2.57,0,0,0,50.16,210c0-3.68-8.11-1.91-8.11-6.9,0-2.72,2.53-4.55,5.61-4.55a6.2,6.2,0,0,1,3.34.82,2.55,2.55,0,0,1,.9,2.13c0,.64,0,1.62-.85,1.62-.67,0-.73-.58-1.31-1.45A3.28,3.28,0,0,0,47,200a2.29,2.29,0,0,0-2.44,2.1c0,1.74,2.07,2.14,4.12,2.84s4,1.62,4,4.18-2.35,4.68-5.86,4.68a7.09,7.09,0,0,1-4.51-1.37,4.19,4.19,0,0,1-.76-2.7C41.52,209.08,41.63,208.49,42.28,208.49Z"/><path class="cls-1" d="M64.68,211a2.59,2.59,0,0,1-1,1.57,4.79,4.79,0,0,1-3.19,1.21,3.57,3.57,0,0,1-3.06-1.49,5.62,5.62,0,0,1-.79-3.33c0-2.47.2-5,.2-7.77,0-.2-.08-.28-.28-.28H54.78c-.19,0-.3-.12-.3-.34v-.9a.31.31,0,0,1,.28-.33A3.31,3.31,0,0,0,56.94,198a7.77,7.77,0,0,0,.65-2.25c0-.22.14-.33.36-.33H59.1c.23,0,.34.11.34.3v2.92c0,.51.11.65.62.65a13.38,13.38,0,0,0,1.43-.06c.58-.06,1.37-.14,2-.14s.9.14.9.5a5,5,0,0,1-.09.54c-.11.67-.47.87-1.2.87-.51,0-1.12-.09-1.8-.11s-1,0-1.51,0c-.23,0-.34.11-.34.33,0,.37-.08,3.45-.08,4.29,0,1,0,2,.11,3.26.2,2.21,1.12,2.83,2.21,2.83,1.46,0,2-1.09,2.53-1.09A.47.47,0,0,1,64.68,211Z"/><path class="cls-1" d="M79.1,210.42c0,.79-2.13,3.34-5.86,3.34-4.29,0-6.82-3.37-6.82-7.21,0-4.09,2.92-8.05,7.27-8.05a5.51,5.51,0,0,1,5.72,5.25c0,1.71-.84,2-2.22,2h-7.6c-.19,0-.31.08-.31.28v.14c0,2.94,1.69,5.58,4.66,5.58,2.75,0,3.87-1.91,4.54-1.91A.57.57,0,0,1,79.1,210.42Zm-9.7-6.25c0,.14,0,.17.22.17h4.57c1.63,0,2.36-.34,2.36-1.63a3,3,0,0,0-3.12-2.83c-2.24,0-3.67,1.9-4,4C69.4,204.08,69.4,204.14,69.4,204.17Z"/><path class="cls-1" d="M82.41,208.49c.64,0,1,.87,1.57,1.74a4.19,4.19,0,0,0,3.47,2.07A2.56,2.56,0,0,0,90.29,210c0-3.68-8.11-1.91-8.11-6.9,0-2.72,2.53-4.55,5.61-4.55a6.18,6.18,0,0,1,3.34.82,2.55,2.55,0,0,1,.9,2.13c0,.64,0,1.62-.84,1.62s-.73-.58-1.32-1.45A3.28,3.28,0,0,0,87.09,200a2.29,2.29,0,0,0-2.44,2.1c0,1.74,2.08,2.14,4.12,2.84s4,1.62,4,4.18-2.35,4.68-5.86,4.68a7.11,7.11,0,0,1-4.51-1.37,4.19,4.19,0,0,1-.76-2.7C81.65,209.08,81.76,208.49,82.41,208.49Z"/><path class="cls-1" d="M104.81,211a2.59,2.59,0,0,1-1,1.57,4.79,4.79,0,0,1-3.19,1.21,3.57,3.57,0,0,1-3.06-1.49,5.62,5.62,0,0,1-.79-3.33c0-2.47.2-5,.2-7.77,0-.2-.08-.28-.28-.28H94.91c-.19,0-.3-.12-.3-.34v-.9a.31.31,0,0,1,.28-.33A3.31,3.31,0,0,0,97.07,198a7.77,7.77,0,0,0,.65-2.25c0-.22.14-.33.36-.33h1.15c.23,0,.34.11.34.3v2.92c0,.51.11.65.62.65a13.38,13.38,0,0,0,1.43-.06c.58-.06,1.37-.14,2-.14s.9.14.9.5a5,5,0,0,1-.09.54c-.11.67-.47.87-1.2.87-.51,0-1.13-.09-1.8-.11s-1,0-1.51,0c-.23,0-.34.11-.34.33,0,.37-.08,3.45-.08,4.29,0,1,0,2,.11,3.26.2,2.21,1.12,2.83,2.21,2.83,1.46,0,2-1.09,2.53-1.09A.47.47,0,0,1,104.81,211Z"/></svg>