<svg id="Layer_1" data-name="Layer 1" xmlns="http://www.w3.org/2000/svg" viewBox="0 0 120 600"><path d="M87.65,246a2.59,2.59,0,0,1-1,1.57,4.82,4.82,0,0,1-3.2,1.21,3.57,3.57,0,0,1-3-1.49,5.62,5.62,0,0,1-.79-3.33c0-2.47.2-5,.2-7.77,0-.2-.09-.28-.28-.28H77.75a.3.3,0,0,1-.31-.34v-.9a.32.32,0,0,1,.28-.33A3.33,3.33,0,0,0,79.91,233a7.77,7.77,0,0,0,.65-2.25c0-.22.14-.33.36-.33h1.15c.22,0,.34.11.34.3v2.92c0,.51.11.65.61.65a13.29,13.29,0,0,0,1.43-.06c.59-.06,1.38-.14,2-.14s.89.14.89.5a4.72,4.72,0,0,1-.08.54c-.11.67-.48.87-1.21.87-.5,0-1.12-.09-1.79-.11s-1,0-1.51,0c-.23,0-.34.11-.34.33,0,.37-.09,3.45-.09,4.29a32,32,0,0,0,.12,3.26c.19,2.21,1.12,2.83,2.21,2.83,1.46,0,2-1.09,2.53-1.09A.47.47,0,0,1,87.65,246Z"/><path d="M103.66,241.05c0,4.2-2.94,7.71-7.12,7.71s-7.15-2.95-7.15-7.52c0-4.23,3-7.74,7.23-7.74C101.08,233.5,103.66,236.81,103.66,241.05Zm-7.43-6.14c-2.47,0-4,2.18-4,5.3,0,3.87,1.82,7.09,4.57,7.09s4-2.69,4-5.44C100.8,238.63,99.37,234.91,96.23,234.91Z"/></svg>