<svg id="Layer_1" data-name="Layer 1" xmlns="http://www.w3.org/2000/svg" viewBox="0 0 120 600"><path d="M50.58,336.17c0,.54.05,1.1.05,1.66s-.16.84-.78.84c-1.15,0-.67-2.27-2.69-3.31a6.17,6.17,0,0,0-2.95-.42c-.31,0-.36.14-.36.37v13.26a7.6,7.6,0,0,0,.3,2.78c.51,1,1.46,1,1.46,1.57,0,.39-.36.53-.78.53H40c-.42,0-.76-.14-.76-.53,0-.67,1-.51,1.49-1.63a8.61,8.61,0,0,0,.25-2.72V335.31c0-.2,0-.37-.36-.37a5.47,5.47,0,0,0-3.17.56c-1.68,1-1.29,3.17-2.44,3.17-.48,0-.76-.25-.76-.84s0-1.15.06-1.66,0-1.34.06-2.13c0-.56.33-.81,1.17-.81s2.33.2,4.8.2h4.15c2.5,0,4-.2,4.82-.2.68,0,1.1.14,1.15.81S50.55,335.47,50.58,336.17Z"/><path d="M62.05,351.74a.45.45,0,0,1,.47.45,2.16,2.16,0,0,1-4.23-.65c0-.05,0-.14-.06-.14s0,0-.11.12a5.32,5.32,0,0,1-4.49,2.24c-2.72,0-4.37-1.68-4.37-3.62A3.65,3.65,0,0,1,51,347.08c1.46-1,3.19-1.29,4.74-2,1.12-.51,2.35-1.32,2.35-2.84a2.23,2.23,0,0,0-2.44-2.3A3.91,3.91,0,0,0,52.4,342c-.56.78-.65,1.29-1.26,1.29s-.79-.65-.79-1.38a3.72,3.72,0,0,1,.48-2c.76-1,3-1.38,4.63-1.38,3.59,0,5.44,2,5.44,4.8,0,2.19-.09,4.77-.09,7,0,1,.34,1.43.9,1.43Zm-4-6.2c0-.05,0-.11-.08-.11s-.08,0-.2.11c-1,.76-2.83,1.24-4.18,2.13a2.82,2.82,0,0,0-1.4,2.33,2.08,2.08,0,0,0,2.25,2.13,3.39,3.39,0,0,0,3-2,9.23,9.23,0,0,0,.59-4.12Z"/><path d="M79.24,353c0,.33-.25.5-.76.5h-4.6c-.56,0-.78-.17-.78-.45,0-.56.81-.47.81-1.12a2.4,2.4,0,0,0-.65-1.29l-2.32-3.11c-.09-.11-.12-.17-.2-.17s-.14.08-.2.17l-1.15,1.71a6.13,6.13,0,0,0-1.15,2.33c0,.92,1.21.73,1.21,1.4,0,.33-.31.53-.81.53h-4c-.5,0-.84-.17-.84-.5s.45-.56.93-.87a10.79,10.79,0,0,0,2.44-2.5c.53-.67,1.62-2.13,2.49-3.31a.36.36,0,0,0,.11-.22.38.38,0,0,0-.11-.26l-2.27-3a11.67,11.67,0,0,0-2.38-2.55c-.62-.42-1.18-.45-1.18-.93s.25-.53.76-.53h4.51c.56,0,.79.17.79.51s-.76.5-.76,1a2.88,2.88,0,0,0,.7,1.38l2.24,3c.09.11.14.19.2.19s.11-.05.2-.16c.64-1,1.4-2.08,1.88-2.92a2.37,2.37,0,0,0,.42-1.12c0-.84-1.18-.79-1.18-1.41,0-.39.25-.53.78-.53h4c.5,0,.84.14.84.51s-.48.56-.93.87a9.57,9.57,0,0,0-2.44,2.49L73.35,346a.35.35,0,0,0-.09.2.35.35,0,0,0,.09.19l2.3,3A10.32,10.32,0,0,0,78,352C78.62,352.44,79.24,352.47,79.24,353Z"/></svg>