<svg xmlns="http://www.w3.org/2000/svg" viewBox="0 0 103.42 28.23"><defs><style>.cls-1{fill:#e24621;}.cls-2{fill:#fff;}</style></defs><g id="Layer_2" data-name="Layer 2"><g id="Layer_1-2" data-name="Layer 1"><rect class="cls-1" width="103.42" height="28.23" rx="6.61"/><path class="cls-2" d="M16.81,9.7h1.91v8.65h5.36V20H16.81Z"/><path class="cls-2" d="M33.29,18.37V20H25.6V9.7h7.49v1.6H27.5V14h5v1.57h-5v2.83Z"/><path class="cls-2" d="M37.51,11.32H34.1V9.7h8.71v1.62h-3.4V20h-1.9Z"/><path class="cls-2" d="M46.23,10.19a3.25,3.25,0,0,1-.32,1.26l-.76,2.08H44l.58-2.26a1.09,1.09,0,0,1-.68-1.08,1.19,1.19,0,1,1,2.37,0Z"/><path class="cls-2" d="M47.48,18.88l.66-1.48a5.7,5.7,0,0,0,3.39,1.13c1.59,0,2.27-.57,2.27-1.34,0-2.21-6.1-.76-6.1-4.57C47.7,11,49,9.56,51.83,9.56a6.53,6.53,0,0,1,3.42.9l-.6,1.48a5.72,5.72,0,0,0-2.83-.8c-1.58,0-2.23.61-2.23,1.39,0,2.19,6.09.76,6.09,4.53,0,1.65-1.34,3.05-4.15,3.05A6.64,6.64,0,0,1,47.48,18.88Z"/><path class="cls-2" d="M68.63,14.72h1.8v4.09a6.54,6.54,0,0,1-4,1.3,5.28,5.28,0,1,1,0-10.55,5.3,5.3,0,0,1,4.12,1.67l-1.2,1.17a3.8,3.8,0,0,0-2.83-1.17,3.51,3.51,0,0,0-3.73,3.6,3.53,3.53,0,0,0,3.71,3.61,4.17,4.17,0,0,0,2.12-.53Z"/><path class="cls-2" d="M72.21,14.83a5.53,5.53,0,1,1,5.52,5.28A5.25,5.25,0,0,1,72.21,14.83Zm9.13,0a3.61,3.61,0,0,0-7.21,0,3.61,3.61,0,1,0,7.21,0Z"/><path class="cls-2" d="M84.78,18.93A1.17,1.17,0,1,1,86,20.07,1.14,1.14,0,0,1,84.78,18.93Zm.1-9.23h2.17l-.37,6.86H85.23Z"/></g></g></svg>