<?xml version="1.0" encoding="UTF-8"?><svg xmlns="http://www.w3.org/2000/svg" viewBox="0 0 693.2 20.84"><defs><style>.d{fill:#fff;}</style></defs><g id="a"/><g id="b"><g id="c"><g><path class="d" d="M6.54,.94c2.18,0,3.92,.69,5.24,2.09,1.31,1.4,1.98,3.22,1.98,5.46s-.65,4.02-1.97,5.42c-1.31,1.41-3.06,2.11-5.24,2.11H0V.95H6.54Zm-.07,12.41c1.29,0,2.33-.45,3.12-1.37,.79-.91,1.19-2.1,1.19-3.56s-.39-2.61-1.18-3.5c-.79-.89-1.83-1.34-3.12-1.34H2.92V13.34h3.54Z"/><path class="d" d="M18.51,3.62c-.47,0-.87-.16-1.2-.48-.33-.33-.49-.73-.49-1.2s.17-.85,.49-1.17c.33-.32,.73-.47,1.2-.47s.87,.16,1.2,.47c.33,.32,.49,.7,.49,1.17s-.17,.87-.49,1.19c-.33,.32-.73,.47-1.2,.47v.02Zm-1.47,1.54h2.86v10.89h-2.86V5.15Z"/><path class="d" d="M27.5,5.13h3.29v2.49h-3.29v8.4h-2.84V7.62h-2.09v-2.49h2.09v-.99c0-1.29,.33-2.3,.98-3.04,.65-.74,1.6-1.1,2.85-1.1,.96,0,1.78,.16,2.46,.47l-.69,2.28c-.43-.19-.88-.28-1.36-.27-.44,0-.79,.15-1.03,.44-.24,.29-.37,.7-.37,1.22v.99Z"/><path class="d" d="M40.81,15.68c-.86,.35-1.71,.52-2.54,.52-1.21,0-2.11-.35-2.72-1.03-.61-.68-.91-1.64-.91-2.86V7.62h-1.83v-2.49h1.83V1.6h2.86v3.53h3.19v2.49h-3.19v4.68c0,.91,.44,1.38,1.34,1.38,.46,0,.89-.11,1.29-.3l.69,2.3Z"/><path class="d" d="M44.34,13h3l-1.68,5.97h-2.26l.95-5.97Z"/><path class="d" d="M73.15,5.13l-3.77,10.89h-2.65l-2.24-6.87-2.24,6.87h-2.66l-3.75-10.89h2.95l2.26,7.3,2.24-7.3h2.39l2.26,7.3,2.26-7.3h2.95Z"/><path class="d" d="M80.05,16.34c-1.52,0-2.8-.55-3.83-1.65s-1.55-2.47-1.55-4.1,.52-3.03,1.55-4.12,2.31-1.64,3.84-1.64,2.66,.54,3.5,1.62v-1.31h2.87v10.89h-2.87v-1.34c-.84,1.09-2.01,1.64-3.5,1.64h-.01Zm.49-2.55c.87,0,1.61-.3,2.21-.91,.6-.61,.89-1.38,.89-2.31s-.29-1.67-.89-2.27-1.34-.9-2.21-.9-1.63,.29-2.21,.89-.86,1.37-.86,2.3,.28,1.72,.86,2.32,1.31,.9,2.21,.9v-.02Z"/><path class="d" d="M90.2,.3h2.84v15.72h-2.84V.3Z"/><path class="d" d="M100.92,11.83l-1.27,1.42v2.78h-2.84V.3h2.84V9.63l3.92-4.5h3.32l-4.18,4.69,4.62,6.2h-3.24l-3.16-4.19Z"/><path class="d" d="M121.41,16.33c-1.68,0-3.07-.55-4.17-1.65-1.1-1.1-1.65-2.47-1.65-4.11s.56-3.01,1.66-4.1c1.1-1.09,2.49-1.64,4.17-1.64s3.07,.55,4.17,1.64c1.1,1.09,1.65,2.46,1.65,4.1s-.55,3.01-1.65,4.11c-1.1,1.1-2.49,1.65-4.16,1.65h-.02Zm2.21-3.48c.57-.6,.85-1.36,.85-2.27s-.28-1.67-.85-2.27-1.3-.89-2.21-.89-1.64,.29-2.21,.89c-.57,.6-.85,1.36-.85,2.27s.28,1.67,.85,2.27c.57,.6,1.3,.89,2.21,.89s1.64-.29,2.21-.89Z"/><path class="d" d="M133.22,6.75c.71-1.41,1.91-2,3.6-1.77v2.67c-1.19-.19-2.08,.01-2.68,.6s-.9,1.6-.9,3.03v4.74h-2.84V5.13h2.84v1.61h-.01Z"/><path class="d" d="M148.95,6.75c.71-1.41,1.91-2,3.6-1.77v2.67c-1.19-.19-2.08,.01-2.68,.6s-.9,1.6-.9,3.03v4.74h-2.84V5.13h2.84v1.61h-.01Z"/><path class="d" d="M156.68,3.62c-.47,0-.87-.16-1.2-.48-.33-.33-.49-.73-.49-1.2s.17-.85,.49-1.17c.33-.32,.73-.47,1.2-.47s.87,.16,1.2,.47c.33,.32,.49,.7,.49,1.17s-.17,.87-.49,1.19c-.33,.32-.73,.47-1.2,.47v.02Zm-1.47,1.54h2.86v10.89h-2.86V5.15Z"/><path class="d" d="M172.95,.32v15.72h-2.87v-1.34c-.85,1.09-2.02,1.64-3.5,1.64s-2.8-.55-3.83-1.65-1.55-2.47-1.55-4.1,.52-3.03,1.55-4.12,2.31-1.64,3.84-1.64,2.66,.54,3.5,1.62V.3h2.86Zm-5.88,13.47c.87,0,1.61-.3,2.21-.91,.6-.61,.89-1.38,.89-2.31s-.29-1.67-.89-2.27-1.34-.9-2.21-.9-1.63,.29-2.21,.89-.86,1.37-.86,2.3,.28,1.72,.86,2.32,1.31,.9,2.21,.9v-.02Z"/><path class="d" d="M182.01,16.34c-1.76,0-3.18-.53-4.27-1.58s-1.64-2.44-1.64-4.16,.53-3.03,1.58-4.12c1.05-1.09,2.43-1.64,4.12-1.64s3.11,.53,4.12,1.59c1.01,1.06,1.51,2.4,1.51,4.01,0,.44-.02,.78-.06,1.01h-8.46c.09,.75,.41,1.35,.95,1.8s1.27,.67,2.22,.67c1.26,0,2.14-.48,2.65-1.44l2.57,.76c-.36,.82-.99,1.55-1.9,2.17-.91,.62-2.03,.94-3.34,.94h-.03Zm2.64-6.67c-.07-.68-.37-1.26-.88-1.72-.52-.46-1.18-.69-2-.69s-1.44,.24-1.97,.71c-.53,.47-.83,1.04-.91,1.7h5.76Z"/><path class="d" d="M203.95,15.68c-.86,.35-1.71,.52-2.54,.52-1.21,0-2.11-.35-2.72-1.03-.61-.68-.91-1.64-.91-2.86V7.62h-1.83v-2.49h1.83V1.6h2.86v3.53h3.19v2.49h-3.19v4.68c0,.91,.44,1.38,1.34,1.38,.46,0,.89-.11,1.29-.3l.69,2.3Z"/><path class="d" d="M213.17,4.84c1.4,0,2.46,.43,3.2,1.29,.74,.86,1.1,2.04,1.1,3.53v6.37h-2.85v-5.83c0-.85-.2-1.51-.59-2-.39-.48-.97-.73-1.73-.73s-1.42,.28-1.9,.86-.73,1.35-.73,2.3v5.38h-2.84V.3h2.84V6.51c.87-1.12,2.04-1.68,3.5-1.68h0Z"/><path class="d" d="M223.98,6.75c.71-1.41,1.91-2,3.6-1.77v2.67c-1.19-.19-2.08,.01-2.68,.6s-.9,1.6-.9,3.03v4.74h-2.84V5.13h2.84v1.61h-.01Z"/><path class="d" d="M235.47,16.33c-1.68,0-3.07-.55-4.17-1.65-1.1-1.1-1.65-2.47-1.65-4.11s.56-3.01,1.66-4.1c1.1-1.09,2.49-1.64,4.17-1.64s3.07,.55,4.17,1.64c1.1,1.09,1.65,2.46,1.65,4.1s-.55,3.01-1.65,4.11c-1.1,1.1-2.49,1.65-4.16,1.65h-.02Zm2.21-3.48c.57-.6,.85-1.36,.85-2.27s-.28-1.67-.85-2.27-1.3-.89-2.21-.89-1.64,.29-2.21,.89c-.57,.6-.85,1.36-.85,2.27s.28,1.67,.85,2.27c.57,.6,1.3,.89,2.21,.89s1.64-.29,2.21-.89Z"/><path class="d" d="M254.95,5.15v10.89h-2.85v-1.38c-.85,1.12-2.02,1.68-3.5,1.68s-2.48-.43-3.21-1.29c-.73-.86-1.09-2.05-1.09-3.55V5.15h2.84v5.81c0,.85,.2,1.51,.6,2,.4,.48,.98,.73,1.73,.73,.81,0,1.45-.28,1.92-.86,.47-.58,.71-1.36,.71-2.33V5.13l2.84,.02Z"/><path class="d" d="M269.73,5.13V15.63c0,1.54-.52,2.79-1.55,3.75s-2.39,1.45-4.07,1.45c-2.45,0-4.21-.96-5.26-2.87l2.48-.88c.59,.94,1.53,1.41,2.84,1.42,.86,0,1.52-.26,1.99-.8s.7-1.23,.71-2.08v-1.31c-.85,1.05-2,1.58-3.44,1.58-1.55,0-2.83-.54-3.85-1.6-1.02-1.06-1.52-2.38-1.52-3.94s.5-2.94,1.51-3.97c1.01-1.03,2.3-1.55,3.87-1.55,1.45,0,2.6,.53,3.44,1.58v-1.27h2.84Zm-5.8,8.2c.87,0,1.6-.27,2.17-.83,.57-.56,.85-1.27,.85-2.14s-.28-1.59-.85-2.13c-.57-.55-1.28-.82-2.16-.82s-1.64,.27-2.21,.82c-.57,.55-.85,1.26-.85,2.13s.28,1.59,.85,2.14c.57,.56,1.3,.83,2.21,.83h-.01Z"/><path class="d" d="M279.84,4.84c1.4,0,2.46,.43,3.2,1.29,.74,.86,1.1,2.04,1.1,3.53v6.37h-2.85v-5.83c0-.85-.2-1.51-.59-2-.39-.48-.97-.73-1.73-.73s-1.42,.28-1.9,.86-.73,1.35-.73,2.3v5.38h-2.84V.3h2.84V6.51c.87-1.12,2.04-1.68,3.5-1.68h0Z"/><path class="d" d="M301.18,15.68c-.86,.35-1.71,.52-2.54,.52-1.21,0-2.11-.35-2.72-1.03s-.91-1.64-.91-2.86V7.62h-1.83v-2.49h1.83V1.6h2.86v3.53h3.19v2.49h-3.19v4.68c0,.91,.44,1.38,1.34,1.38,.46,0,.89-.11,1.29-.3l.69,2.3Z"/><path class="d" d="M310.39,4.84c1.4,0,2.46,.43,3.2,1.29,.74,.86,1.1,2.04,1.1,3.53v6.37h-2.85v-5.83c0-.85-.2-1.51-.59-2-.39-.48-.97-.73-1.73-.73s-1.42,.28-1.9,.86-.73,1.35-.73,2.3v5.38h-2.84V.3h2.84V6.51c.87-1.12,2.04-1.68,3.5-1.68h0Z"/><path class="d" d="M323.61,16.34c-1.76,0-3.18-.53-4.27-1.58-1.09-1.05-1.64-2.44-1.64-4.16s.53-3.03,1.58-4.12c1.05-1.09,2.43-1.64,4.12-1.64s3.11,.53,4.12,1.59c1.01,1.06,1.51,2.4,1.51,4.01,0,.44-.02,.78-.06,1.01h-8.46c.09,.75,.41,1.35,.95,1.8s1.27,.67,2.22,.67c1.26,0,2.14-.48,2.65-1.44l2.57,.76c-.36,.82-.99,1.55-1.9,2.17-.91,.62-2.03,.94-3.34,.94h-.03Zm2.64-6.67c-.07-.68-.37-1.26-.88-1.72-.52-.46-1.18-.69-2-.69s-1.44,.24-1.97,.71c-.53,.47-.83,1.04-.91,1.7h5.76Z"/><path class="d" d="M351.66,4.82c1.31,0,2.37,.41,3.14,1.24,.78,.83,1.17,1.99,1.17,3.48v6.48h-2.85v-5.88c0-1.78-.69-2.67-2.08-2.67-.75,0-1.31,.26-1.71,.79-.4,.53-.6,1.26-.6,2.22v5.55h-2.87v-5.88c0-1.78-.68-2.67-2.04-2.67-.77,0-1.35,.27-1.75,.81-.4,.54-.6,1.29-.6,2.27v5.47h-2.84V5.13h2.84v1.29c.82-1.06,1.9-1.6,3.24-1.6,1.48,0,2.58,.55,3.28,1.64,.86-1.09,2.09-1.64,3.68-1.64h-.01Z"/><path class="d" d="M364.83,16.33c-1.68,0-3.07-.55-4.17-1.65s-1.65-2.47-1.65-4.11,.56-3.01,1.66-4.1,2.49-1.64,4.17-1.64,3.07,.55,4.17,1.64c1.1,1.09,1.65,2.46,1.65,4.1s-.55,3.01-1.65,4.11-2.49,1.65-4.16,1.65h-.02Zm2.21-3.48c.57-.6,.85-1.36,.85-2.27s-.28-1.67-.85-2.27c-.57-.6-1.3-.89-2.21-.89s-1.64,.29-2.21,.89c-.57,.6-.85,1.36-.85,2.27s.28,1.67,.85,2.27c.57,.6,1.3,.89,2.21,.89s1.64-.29,2.21-.89Z"/><path class="d" d="M386.82,4.82c1.31,0,2.37,.41,3.14,1.24,.78,.83,1.17,1.99,1.17,3.48v6.48h-2.85v-5.88c0-1.78-.69-2.67-2.08-2.67-.75,0-1.31,.26-1.71,.79-.4,.53-.6,1.26-.6,2.22v5.55h-2.87v-5.88c0-1.78-.68-2.67-2.04-2.67-.77,0-1.35,.27-1.75,.81-.4,.54-.6,1.29-.6,2.27v5.47h-2.84V5.13h2.84v1.29c.82-1.06,1.9-1.6,3.24-1.6,1.48,0,2.58,.55,3.28,1.64,.86-1.09,2.09-1.64,3.68-1.64h-.01Z"/><path class="d" d="M400.1,16.34c-1.76,0-3.18-.53-4.27-1.58-1.09-1.05-1.64-2.44-1.64-4.16s.53-3.03,1.58-4.12c1.05-1.09,2.43-1.64,4.12-1.64s3.11,.53,4.12,1.59c1.01,1.06,1.51,2.4,1.51,4.01,0,.44-.02,.78-.06,1.01h-8.46c.09,.75,.41,1.35,.95,1.8,.54,.45,1.27,.67,2.22,.67,1.26,0,2.14-.48,2.65-1.44l2.57,.76c-.36,.82-.99,1.55-1.9,2.17-.91,.62-2.03,.94-3.34,.94h-.03Zm2.64-6.67c-.07-.68-.37-1.26-.88-1.72-.52-.46-1.18-.69-2-.69s-1.44,.24-1.97,.71c-.53,.47-.83,1.04-.91,1.7h5.76Z"/><path class="d" d="M415.08,4.84c1.4,0,2.46,.43,3.2,1.29,.74,.86,1.1,2.04,1.1,3.53v6.37h-2.85v-5.83c0-.85-.2-1.51-.59-2-.39-.48-.97-.73-1.73-.73s-1.42,.28-1.9,.86-.73,1.35-.73,2.3v5.38h-2.84V5.13h2.84v1.38c.87-1.12,2.04-1.68,3.5-1.68h0Z"/><path class="d" d="M429.81,15.68c-.86,.35-1.71,.52-2.54,.52-1.21,0-2.11-.35-2.72-1.03-.61-.68-.91-1.64-.91-2.86V7.62h-1.83v-2.49h1.83V1.6h2.86v3.53h3.19v2.49h-3.19v4.68c0,.91,.44,1.38,1.34,1.38,.46,0,.89-.11,1.29-.3l.69,2.3Z"/><path class="d" d="M450.32,5.13l-6.55,15.41h-2.92l1.98-4.76-4.93-10.65h3.12l3.23,7.36,3.04-7.36h3.04Z"/><path class="d" d="M457.5,16.33c-1.68,0-3.07-.55-4.17-1.65s-1.65-2.47-1.65-4.11,.56-3.01,1.66-4.1c1.1-1.09,2.49-1.64,4.17-1.64s3.07,.55,4.17,1.64c1.1,1.09,1.65,2.46,1.65,4.1s-.55,3.01-1.65,4.11c-1.1,1.1-2.49,1.65-4.16,1.65h-.02Zm2.21-3.48c.57-.6,.85-1.36,.85-2.27s-.28-1.67-.85-2.27-1.3-.89-2.21-.89-1.64,.29-2.21,.89c-.57,.6-.85,1.36-.85,2.27s.28,1.67,.85,2.27c.57,.6,1.3,.89,2.21,.89s1.64-.29,2.21-.89Z"/><path class="d" d="M476.98,5.15v10.89h-2.85v-1.38c-.85,1.12-2.02,1.68-3.5,1.68s-2.48-.43-3.21-1.29c-.73-.86-1.09-2.05-1.09-3.55V5.15h2.84v5.81c0,.85,.2,1.51,.6,2,.4,.48,.98,.73,1.73,.73,.81,0,1.45-.28,1.92-.86,.47-.58,.71-1.36,.71-2.33V5.13l2.84,.02Z"/><path class="d" d="M483.57,6.75c.71-1.41,1.91-2,3.6-1.77v2.67c-1.19-.19-2.08,.01-2.68,.6s-.9,1.6-.9,3.03v4.74h-2.84V5.13h2.84v1.61h-.01Z"/><path class="d" d="M501.56,16.36c-1.67,0-3.05-.56-4.14-1.66s-1.64-2.48-1.64-4.12,.55-3.01,1.64-4.1c1.09-1.09,2.47-1.64,4.12-1.64,1.4,0,2.58,.37,3.53,1.1,.96,.74,1.56,1.56,1.8,2.47l-2.65,.76c-.13-.49-.43-.91-.91-1.27-.48-.36-1.06-.54-1.75-.54-.87,0-1.59,.32-2.13,.94-.55,.62-.82,1.38-.82,2.27s.27,1.63,.83,2.27c.56,.64,1.27,.96,2.14,.96,.67,0,1.25-.17,1.75-.52,.49-.35,.8-.76,.93-1.23l2.65,.74c-.24,.94-.83,1.76-1.78,2.47-.95,.71-2.11,1.07-3.51,1.07l-.05,.03Z"/><path class="d" d="M520.4,5.15v10.89h-2.85v-1.38c-.85,1.12-2.02,1.68-3.5,1.68s-2.48-.43-3.21-1.29c-.73-.86-1.09-2.05-1.09-3.55V5.15h2.84v5.81c0,.85,.2,1.51,.6,2,.4,.48,.98,.73,1.73,.73,.81,0,1.45-.28,1.92-.86,.47-.58,.71-1.36,.71-2.33V5.13l2.84,.02Z"/><path class="d" d="M527,6.75c.71-1.41,1.91-2,3.6-1.77v2.67c-1.19-.19-2.08,.01-2.68,.6s-.9,1.6-.9,3.03v4.74h-2.84V5.13h2.84v1.61h-.01Z"/><path class="d" d="M534.73,3.62c-.47,0-.87-.16-1.2-.48-.33-.33-.49-.73-.49-1.2s.17-.85,.49-1.17c.33-.32,.73-.47,1.2-.47s.87,.16,1.2,.47c.33,.32,.49,.7,.49,1.17s-.17,.87-.49,1.19c-.33,.32-.73,.47-1.2,.47v.02Zm-1.47,1.54h2.86v10.89h-2.86V5.15Z"/><path class="d" d="M545.03,16.33c-1.68,0-3.07-.55-4.17-1.65s-1.65-2.47-1.65-4.11,.56-3.01,1.66-4.1c1.1-1.09,2.49-1.64,4.17-1.64s3.07,.55,4.17,1.64c1.1,1.09,1.65,2.46,1.65,4.1s-.55,3.01-1.65,4.11c-1.1,1.1-2.49,1.65-4.16,1.65h-.02Zm2.21-3.48c.57-.6,.85-1.36,.85-2.27s-.28-1.67-.85-2.27-1.3-.89-2.21-.89-1.64,.29-2.21,.89c-.57,.6-.85,1.36-.85,2.27s.28,1.67,.85,2.27c.57,.6,1.3,.89,2.21,.89s1.64-.29,2.21-.89Z"/><path class="d" d="M558.32,16.32c-1.29,0-2.43-.34-3.41-1-.98-.66-1.61-1.45-1.89-2.37l2.57-.75c.19,.54,.54,.97,1.04,1.3s1.1,.5,1.81,.5c.54,0,.97-.11,1.3-.33,.34-.22,.5-.48,.5-.8,0-.47-.4-.83-1.21-1.07l-2.78-.82c-1.8-.52-2.69-1.48-2.69-2.9,0-.9,.43-1.67,1.28-2.31,.85-.64,1.88-.96,3.09-.96,1.15,0,2.16,.25,3.02,.76,.86,.5,1.47,1.17,1.82,2l-2.52,.74c-.47-.85-1.25-1.27-2.32-1.27-.43,0-.8,.09-1.1,.29-.3,.2-.45,.43-.45,.69,0,.4,.3,.68,.9,.86l2.71,.78c.98,.28,1.73,.65,2.27,1.09,.54,.44,.8,1.1,.8,2,0,1.03-.44,1.88-1.32,2.55-.88,.67-2.01,1.01-3.39,1.01h-.03Z"/><path class="d" d="M567.6,3.62c-.47,0-.87-.16-1.2-.48-.33-.33-.49-.73-.49-1.2s.17-.85,.49-1.17c.33-.32,.73-.47,1.2-.47s.87,.16,1.2,.47c.33,.32,.49,.7,.49,1.17s-.17,.87-.49,1.19c-.33,.32-.73,.47-1.2,.47v.02Zm-1.47,1.54h2.86v10.89h-2.86V5.15Z"/><path class="d" d="M579.62,15.68c-.86,.35-1.71,.52-2.54,.52-1.21,0-2.11-.35-2.72-1.03-.61-.68-.91-1.64-.91-2.86V7.62h-1.83v-2.49h1.83V1.6h2.86v3.53h3.19v2.49h-3.19v4.68c0,.91,.44,1.38,1.34,1.38,.46,0,.89-.11,1.29-.3l.69,2.3Z"/><path class="d" d="M594.05,5.13l-6.55,15.41h-2.92l1.98-4.76-4.93-10.65h3.12l3.23,7.36,3.04-7.36h3.04Z"/><path class="d" d="M608.06,16.36c-1.67,0-3.05-.56-4.14-1.66s-1.64-2.48-1.64-4.12,.55-3.01,1.64-4.1c1.09-1.09,2.47-1.64,4.12-1.64,1.4,0,2.58,.37,3.53,1.1,.96,.74,1.56,1.56,1.8,2.47l-2.65,.76c-.13-.49-.43-.91-.91-1.27-.48-.36-1.06-.54-1.75-.54-.87,0-1.59,.32-2.13,.94-.55,.62-.82,1.38-.82,2.27s.27,1.63,.83,2.27c.56,.64,1.27,.96,2.14,.96,.67,0,1.25-.17,1.75-.52,.49-.35,.8-.76,.93-1.23l2.65,.74c-.24,.94-.83,1.76-1.78,2.47-.95,.71-2.11,1.07-3.51,1.07l-.05,.03Z"/><path class="d" d="M619.24,6.75c.71-1.41,1.91-2,3.6-1.77v2.67c-1.19-.19-2.08,.01-2.68,.6s-.9,1.6-.9,3.03v4.74h-2.84V5.13h2.84v1.61h-.01Z"/><path class="d" d="M630.83,16.34c-1.76,0-3.18-.53-4.27-1.58-1.09-1.05-1.64-2.44-1.64-4.16s.53-3.03,1.58-4.12c1.05-1.09,2.43-1.64,4.12-1.64s3.11,.53,4.12,1.59c1.01,1.06,1.51,2.4,1.51,4.01,0,.44-.02,.78-.06,1.01h-8.46c.09,.75,.41,1.35,.95,1.8,.54,.45,1.27,.67,2.22,.67,1.26,0,2.14-.48,2.65-1.44l2.57,.76c-.36,.82-.99,1.55-1.9,2.17-.91,.62-2.03,.94-3.34,.94h-.03Zm2.64-6.67c-.07-.68-.37-1.26-.88-1.72-.52-.46-1.18-.69-2-.69s-1.44,.24-1.97,.71c-.53,.47-.83,1.04-.91,1.7h5.76Z"/><path class="d" d="M644.22,16.34c-1.52,0-2.8-.55-3.83-1.65s-1.55-2.47-1.55-4.1,.52-3.03,1.55-4.12,2.31-1.64,3.84-1.64,2.66,.54,3.5,1.62v-1.31h2.87v10.89h-2.87v-1.34c-.84,1.09-2.01,1.64-3.5,1.64h-.01Zm.49-2.55c.87,0,1.61-.3,2.21-.91,.6-.61,.89-1.38,.89-2.31s-.29-1.67-.89-2.27-1.34-.9-2.21-.9-1.63,.29-2.21,.89-.86,1.37-.86,2.3,.28,1.72,.86,2.32,1.31,.9,2.21,.9v-.02Z"/><path class="d" d="M661.21,15.68c-.86,.35-1.71,.52-2.54,.52-1.21,0-2.11-.35-2.72-1.03-.61-.68-.91-1.64-.91-2.86V7.62h-1.83v-2.49h1.83V1.6h2.86v3.53h3.19v2.49h-3.19v4.68c0,.91,.44,1.38,1.34,1.38,.46,0,.89-.11,1.29-.3l.69,2.3Z"/><path class="d" d="M669.12,16.34c-1.76,0-3.18-.53-4.27-1.58-1.09-1.05-1.64-2.44-1.64-4.16s.53-3.03,1.58-4.12c1.05-1.09,2.43-1.64,4.12-1.64s3.11,.53,4.12,1.59c1.01,1.06,1.51,2.4,1.51,4.01,0,.44-.02,.78-.06,1.01h-8.46c.09,.75,.41,1.35,.95,1.8,.54,.45,1.27,.67,2.22,.67,1.26,0,2.14-.48,2.65-1.44l2.57,.76c-.36,.82-.99,1.55-1.9,2.17-.91,.62-2.03,.94-3.34,.94h-.03Zm2.64-6.67c-.07-.68-.37-1.26-.88-1.72-.52-.46-1.18-.69-2-.69s-1.44,.24-1.97,.71c-.53,.47-.83,1.04-.91,1.7h5.76Z"/><path class="d" d="M682.08,16.32c-1.29,0-2.43-.34-3.41-1-.98-.66-1.61-1.45-1.89-2.37l2.57-.75c.19,.54,.54,.97,1.04,1.3s1.1,.5,1.81,.5c.54,0,.97-.11,1.3-.33,.34-.22,.5-.48,.5-.8,0-.47-.4-.83-1.21-1.07l-2.78-.82c-1.8-.52-2.69-1.48-2.69-2.9,0-.9,.43-1.67,1.28-2.31,.85-.64,1.88-.96,3.09-.96,1.15,0,2.16,.25,3.02,.76,.86,.5,1.47,1.17,1.82,2l-2.52,.74c-.47-.85-1.25-1.27-2.32-1.27-.43,0-.8,.09-1.1,.29-.3,.2-.45,.43-.45,.69,0,.4,.3,.68,.9,.86l2.71,.78c.98,.28,1.73,.65,2.27,1.09,.54,.44,.8,1.1,.8,2,0,1.03-.44,1.88-1.32,2.55-.88,.67-2.01,1.01-3.39,1.01h-.03Z"/><path class="d" d="M691.44,16.21c-.5,0-.93-.17-1.26-.52s-.5-.77-.5-1.26c0-.46,.17-.86,.52-1.19,.35-.33,.77-.49,1.26-.49s.9,.17,1.24,.49,.5,.71,.5,1.17c0,.49-.17,.91-.5,1.26s-.75,.52-1.24,.52v.02Z"/></g></g></g></svg>