<svg height="90" viewBox="0 0 728 90" width="728" xmlns="http://www.w3.org/2000/svg" xmlns:xlink="http://www.w3.org/1999/xlink"><linearGradient id="a" x1=".17767%" x2="100.177285%" y1="50.000017%" y2="50.000017%"><stop offset="0" stop-color="#dbdada"/><stop offset="1" stop-color="#929191"/></linearGradient><mask id="b" fill="#fff"><path d="m120.877769 0c-.649948.2357985-1.594034.51561272-2.83542.83787067-1.242967.32225795-2.383144.59264023-3.426857.81271883l.04586.26095034c.395346.01414791.713204.07388353.950411.17606288.235626.10060736.433299.26881028.591437.50618077.191348.2515184.317859.54705252.381114.88345838.061674.33797785.094883.86145052.094883 1.56727403v9.6913183c0 .8488746-.041116 1.4556628-.120185 1.8172205-.077488.3615577-.232464.6036441-.460183.7294033-.230882.1257592-.613576.2059307-1.151247.2389425v.2342265h7.66022v-.2342265c-.536088-.0330118-.921946-.1131833-1.149665-.2389425-.230882-.1257592-.382695-.3709896-.461764-.7419793-.080651-.3678456-.118604-.9699178-.118604-1.8046445zm-8.136216 0c-.649949.2357985-1.594035.51561272-2.833839.83787067-1.242967.32225795-2.386307.59264023-3.428439.81271883l.04586.26095034c.396927.01414791.713204.07388353.950412.17606288.237207.10060736.43488.26881028.591437.50618077.191347.2515184.317858.54705252.379532.88345838.064837.33797785.094883.86145052.094883 1.56727403v9.6913183c0 .8488746-.039535 1.4556628-.117022 1.8172205-.080651.3615577-.235627.6036441-.463346.7294033-.218231.1210433-.580367.1996428-1.083247.2342265-.613577-.0408717-1.094317-.1886388-1.442222-.4448731-.363718-.2672383-.763808-.8095749-1.198688-1.6285817-.434881-.8158628-1.095899-2.2526616-1.981473-4.3151125l-3.0599769-7.33176136c-.3463229-.83158271-.7574825-1.89424794-1.2318975-3.18170775-.6483671.80014291-1.3457571 1.51854234-2.0874258 2.15519828-.7432501.63665595-1.3931986 1.08152912-1.9466827 1.33304752.3637181.3458378.6720878.75612719.9251092 1.2261522l-2.3942142 6.29581991c-.4111596 1.1318328-.9061326 2.1316185-1.4833375 2.996213-.5787862.8630225-1.1907815 1.5468381-1.8375672 2.0498749-.6483672.5030368-1.2983156.785995-1.9451014.8504466v.2342265h7.3297112v-.2342265c-.7432501-.0487317-1.3220364-.3316899-1.733196-.8504466-.4111597-.5187567-.6151581-1.2120043-.6151581-2.0765988 0-.4543051.0458601-.8976063.1423245-1.3299035.0933016-.4322973.243533-.938478.4491128-1.5216863h4.7915911l.5234379 1.2245802c.6641809 1.5578421.9962714 2.6346552.9962714 3.2320114 0 .4244373-.1407431.7435513-.4159038.9541979-.2767421.2137907-.6989714.3348339-1.2682693.3678457v.2342265h9.4155553 7.661802v-.2342265c-.53767-.0330118-.920365-.1131833-1.149666-.2389425-.2293-.1257592-.382694-.3709896-.463345-.7419793-.077488-.3678456-.117022-.9699178-.117022-1.8046445zm-17.6972598 5.61200429 2.4432371 5.84780281h-4.6255459zm-86.36249942-2.84215792c-.7432501.63665595-1.39161722 1.08152912-1.94510134 1.33304752.36371814.3458378.67050648.75612719.92510918 1.2261522l-2.39579556 6.29581991c-.41115963 1.1318328-.90455119 2.1316185-1.48333744 2.996213-.57720487.8630225-1.18920017 1.5468381-1.83914866 2.0498749-.64678573.5030368-1.29515285.785995-1.94351996.8504466v.2342265h7.32971114v-.2342265c-.7432501-.0487317-1.32045497-.3316899-1.7316146-.8504466-.40957825-.5187567-.61673945-1.2120043-.61673945-2.0765988 0-.4543051.04744149-.8976063.14232449-1.3299035.09488299-.4322973.24511439-.938478.45069421-1.5216863h4.79159111l.5218564 1.2245802c.664181 1.5578421.9962715 2.6346552.9962715 3.2320114 0 .4244373-.1375804.7435513-.4143224.9541979-.2767421.2137907-.7021342.3348339-1.2698507.3678457v.2342265h9.5594614v-.2342265c-.6499485-.0330118-1.1544097-.1823508-1.5181279-.4495891-.3637181-.2672383-.7622267-.8095749-1.1986884-1.6285817-.4348804-.8158628-1.0943172-2.2526616-1.9783104-4.3151125l-3.0615579-7.33176136c-.3479043-.83158271-.7590639-1.89424794-1.2350603-3.18170775-.6467857.80014291-1.34259431 1.51854234-2.08584442 2.15519828zm-.83022618 2.84215792 2.443237 5.84780281h-4.62396444zm179.7400144-3.66745266c-.442787.30653804-.782784.73883529-1.019992 1.29689174-.235626.55805645-.355811 1.21514827-.355811 1.96970347v.44801715c-.664181.0314398-1.209758.09117542-1.636732.17606288-.426973.08645945-.861853.23265452-1.304641.43701322-.776459.3285459-1.375803.74197927-1.802777 1.23872811-.428554.49360486-.64046 1.02650947-.64046 1.59085388 0 .628796.192929 1.16798852.581949 1.61443372.385858.4480172.951993.7985709 1.695243 1.0500893-.94883.5046088-1.644639 1.0217935-2.087426 1.5562701-.444368.5344766-.664181 1.1161129-.664181 1.7449089 0 .5989282.219813 1.100393.664181 1.5075384.442787.4102894 1.083248.7073955 1.921381.8976063-.806506.2829582-1.418501.6130761-1.839149.9903537-.419066.3772776-.627809.784423-.627809 1.2261522 0 .471597.213487.8787424.64046 1.2277242.426974.3442658 1.035806.6115041 1.826498.8001429.790691.1902108 1.723707.2829582 2.799048.2829582 1.377385 0 2.633003-.2043587 3.771599-.6130761 1.138596-.4102894 2.03524-.9714898 2.691514-1.6851733.656274-.7152554.985202-1.5059664.985202-2.3705609 0-.6602358-.186603-1.249732-.556647-1.7684887-.373206-.5187567-.888737-.9227582-1.5545-1.2135763-.664181-.2908182-1.415338-.4354412-2.251889-.4354412-.270417 0-.80018.0141479-1.590872.0440157-.711622.0487317-1.250874.0723115-1.613011.0723115-.695808 0-1.241386-.0392997-1.636731-.1163272-.395346-.0801715-.683158-.2122187-.866598-.4024295-.180278-.1886388-.270417-.4401572-.270417-.7545552 0-.1886388.037953-.3458378.117023-.471597.079069-.1257592.213486-.2672383.403252-.4244373.521857.157199 1.004179.2719543 1.446966.3426938.441206.0707396.901388.1053234 1.377385.1053234.996271 0 1.908729-.154055 2.738955-.4605931.828645-.306538 1.486501-.7262594 1.968822-1.260736.482322-.5344766.722693-1.11611287.722693-1.74490887 0-.4244373-.126511-.82843873-.379532-1.21514827-.253022-.38356556-.607252-.71682744-1.067434-.99978564-.490229-.28453018-1.019992-.51089674-1.58929-.68538763-.569298-.1729189-1.099062-.2672383-1.58929-.2829582h-.521857v-.21064666c0-.5344766.063256-.92275813.189766-1.15698464.126511-.23737049.332091-.35369775.61674-.35369775.12651 0 .249858.03929975.366881.11632726.120185.08174348.2973.24523044.536088.49674884.249859.25309039.485485.43386924.698972.54233655.213487.1100393.453857.16505895.722692.16505895.300463 0 .577205-.08331547.830226-.24837442.254603-.16505895.455439-.38356556.60567-.65866381.14865-.27667024.224556-.57849232.224556-.90861022 0-.36312969-.094883-.6916756-.284649-.98878171-.189766-.30025008-.44595-.53604858-.771715-.70896748-.324183-.1729189-.683157-.25937835-1.078503-.25937835-.585112 0-1.100643.15248303-1.541849.45902108zm-2.514399 9.26688107c-.253021-.5250447-.379532-1.34719547-.379532-2.46330837 0-.9589139.118604-1.66316542.355811-2.11118257.237208-.44644515.608833-.67281171 1.114876-.67281171.53767 0 .93776.26881029 1.197107.80485887.262509.53290461.392183 1.34247946.392183 2.42715256 0 1.00607362-.11386 1.72604502-.343161 2.15677032-.230881.4338692-.605669.6508038-1.127526.6508038-.555065 0-.958318-.2656663-1.209758-.7922829zm-.237207 10.0214362c-.648367-.2279386-1.15441-.5454805-1.518128-.9541979-.363718-.4087174-.543996-.8724545-.543996-1.3912112 0-.1886388.037953-.3851375.117022-.5879243.079069-.2059306.173952-.3788495.284649-.5203286.110697-.1414791.213487-.2122187.309951-.2122187.346323.0471597.667344.0817435.9599.1068953.292556.0220079.596181.0345838.912458.0345838.142325 0 .578786-.0157199 1.304641-.0471597l1.280921-.0471597c.852365 0 1.514965.1493391 1.981473.4480172.466508.2986781.698971.7231154.698971 1.2733119 0 .4385852-.150231.8300107-.450694 1.1679885-.300463.3379779-.722692.6005002-1.269851.789139-.545577.1886388-1.165479.2829582-1.859706.2829582-.823901 0-1.559244-.1147553-2.207611-.3426938zm-55.119112-19.2050018v.23579849c.521857.03301179 2.490679.09274741 2.7437.19021079.253021.09274741.458601.2515184.615158.47002501.128092.1729189.218231.35684173.273579.55334048.055349.19649875.096465.4873169.120185.87402644.02214.38356556.034791.95419793.034791 1.70875313v7.66345126c0 .7545552-.012651 1.3251875-.034791 1.7087531-.02372.3867095-.064836.6759557-.120185.8740264-.055348.1964988-.145487.3804216-.273579.5533405-.156557.2200786-.362137.3788496-.615158.471597-.253021.0927474-2.221843.157199-2.7437.1902108v.2342265h10.66643v-.2342265c-.521857-.0330118-.904551-.0974634-1.151247-.1902108-.245115-.0927474-.453857-.2515184-.627809-.471597-.126511-.1729189-.218231-.3615577-.271998-.5659164-.055349-.2043587-.096465-.4951768-.118604-.8724544-.023721-.3772776-.036372-.943194-.036372-1.6977492v-3.77277602h.426974c.521856 0 .975713.14462312 1.364733.43544122.385858.2908182.762227.7749911 1.125945 1.4509468.316277.5501965.676832 1.2733119 1.078504 2.1693462.403252.8960343.945667 2.1457663 1.625662 3.7491961h6.95176v-.2342265c-.555065-.0487317-.980458-.1351911-1.282502-.2609503-.298881-.1257592-.578786-.3584138-.830226-.6948196-.253021-.3379779-.585112-.8928903-.997853-1.6631654l-1.350501-2.5702037c-.379532-.6916756-.719529-1.2182922-1.019992-1.5782779-.300463-.3631297-.632553-.635084-.996272-.81586284-.363718-.18077885-.838133-.31754198-1.423244-.41028939 1.312548-.19021079 2.327796-.57063237 3.048906-1.14598071.717948-.57377635 1.078504-1.29060379 1.078504-2.15677027 0-.6130761-.197673-1.19785638-.593019-1.75748482-.396927-.55648446-.933016-1.00921758-1.613011-1.35505538-.774878-.3929975-1.673103-.67281172-2.691514-.83629868-1.019992-.16505894-2.398958-.24837441-4.140061-.24837441zm8.4604.28453018h.664181c.630972 0 1.135433.07073955 1.507058.21064666.371625.1414791.675251.37098964.912458.68224366.490229.64608789.735344 1.57199.735344 2.78556628 0 1.2874598-.248277 2.22279385-.747995 2.80443015-.498135.5816363-1.298315.87245445-2.406865.87245445h-.664181zm71.611357 3.85294749c-.776459.33797785-1.38371.80171489-1.828079 1.39121114-.441206.58949625-.662599 1.24658807-.662599 1.97127546 0 .58163633.140743 1.10039303.426973 1.55627013.284649.4543051.735343.8755984 1.352083 1.259164.616739.3851375 1.42957.7592711 2.441655 1.1208288l1.162317.4228653c.553484.2075027.993109.4071454 1.318874.6036442.32102.1949267.555065.4197213.698971.6712397.142325.2530904.213487.5486245.213487.8976063 0 .5014648-.15972.9117542-.474415 1.2230082-.317858.31597-.744832.473169-1.282502.473169-.6626 0-1.341013-.2326545-2.027333-.6963916-.686321-.463737-1.34892-1.1192568-1.981473-1.9681314-.630972-.8488746-1.193945-1.8392283-1.682592-2.9726331h-.237208l.237208 4.6939621c1.026318.3772776 2.014682.6806717 2.965093.9070382.947249.2279386 1.715801.3426939 2.300913.3426939 1.012085 0 1.915055-.1854949 2.713654-.5533405.798598-.3694177 1.424826-.8771704 1.87552-1.5216863.450694-.6429439.676832-1.3754913.676832-2.1929261 0-.8331547-.28623-1.5358342-.853947-2.1111825-.570879-.5722044-1.488082-1.0642373-2.753188-1.4745267l-1.613011-.51718467c-1.484919-.4873169-2.228169-1.20257235-2.228169-2.14419436 0-.28453019.074325-.54705252.224557-.79071097.150231-.24523043.351067-.43701321.604088-.57849231.253021-.1414791.529763-.21379064.831807-.21379064.488648 0 1.010504.18549482 1.56557.55491247.553484.36941764 1.078503.87559842 1.576639 1.52168631.499717.6445159.912458 1.3676313 1.244548 2.16777417h.238789l-.238789-3.86552336c-.853946-.2357985-1.611429-.4087174-2.277191-.52032869-.6626-.10846731-1.304641-.16348696-1.921381-.16348696-.964644 0-1.834404.16977492-2.607701.50618078zm-13.153945.34269382c-.988365.56591639-1.766405 1.33619149-2.337285 2.31082529-.569298.9746338-.853947 2.04358702-.853947 3.20685962 0 1.1161129.27358 2.1394784.819157 3.0653805.545577.9274741 1.296734 1.6553054 2.253471 2.1819221.956737.5266166 2.019426.789139 3.18965.789139.917202 0 1.764824-.1760629 2.539701-.5297607.773297-.3536977 1.437478-.8614505 1.992543-1.5216863.330509-.4087174.611995-.8174348.841296-1.2261522.229301-.4087174.469671-.9510539.724274-1.6270096l-.215069-.0927474c-.490228.7215434-1.031061 1.245016-1.62408 1.565702-.5946.3222579-1.307804.4841729-2.145937.4841729-1.31413 0-2.29775-.3615577-2.954024-1.0846731-.656274-.7231154-.993109-1.8235084-1.008922-3.301179h7.851567c-.077488-.628796-.192929-1.14440869-.34316-1.54369415-.150231-.40242944-.368462-.80014291-.653111-1.19156842-.536089-.7388353-1.228735-1.31103966-2.074775-1.72132904-.84604-.40714541-1.758498-.6130761-2.738956-.6130761-1.186037 0-2.274029.2829582-3.262393.8488746zm1.720545.62565201c.347904-.77813504.844458-1.16956055 1.492825-1.16956055.395346 0 .706879.12418721.937761.36784566.227719.24208646.407996.63351196.534507 1.16641657.061674.3301179.105953.71211147.129674 1.14440872.02372.43386924.03479 1.03279743.03479 1.8046445h-3.651414c0-1.43208287.172371-2.53561985.521857-3.3137549zm-24.881484-1.26230796c-.442787.1414791-.888737.37413362-1.339431.69639157-.450694.32068595-.953574.76555912-1.507058 1.33147552v-2.24008574c-1.201852.4244373-2.283518.77341908-3.249743 1.04851732-.966225.27667024-1.968822.53133262-3.012535.76713112l.047442.2357985c.395345.03301179.711622.09746338.947248.20121472.238789.10217935.436462.26252233.5946.48417292.189766.24994641.316277.54390854.379532.88345838.063255.33797785.094883.86773845.094883 1.59085385v3.8655234c0 .8488746-.044279 1.4556628-.131255 1.8172205-.086976.3615577-.253021.6036441-.496554.7294033-.245114.1257592-.668925.2059307-1.269851.2389425v.2342265h7.211108v-.2342265c-.347905-.0487317-.596182-.1320472-.747995-.2483744-.14865-.1194713-.251439-.3269739-.306788-.625652-.055348-.2986781-.075906-.7781351-.060092-1.4383709v-6.93247587c.61832-.5501965 1.209758-.82529475 1.779056-.82529475.221393 0 .426973.05501965.61832.16663094.188185.10846731.33051.2515184.425393.42286531.110696.2043587.181859.47631297.213486.81271883.031628.33797785.047442.97148982.047442 1.90053594v4.4550196c.014232.6602358-.003163 1.1396928-.058511 1.4383709-.05693.2986781-.15972.5061807-.309951.625652-.148651.1163272-.40009.1996427-.746413.2483744v.2342265h6.735111v-.2342265c-.45702-.0487317-.781204-.1273312-.969388-.2389425-.191348-.1084673-.317858-.311254-.381114-.6115041-.063255-.2986781-.086976-.785995-.071162-1.4619507v-6.10718112c0-.628796-.039534-1.1318328-.118604-1.51068239-.079069-.37413362-.221393-.69010361-.425392-.94162201-.224556-.31439799-.547158-.55805644-.974132-.72940335-.426973-.17449089-.909295-.26095034-1.446965-.26095034-.537671 0-1.027899.07073955-1.470687.21221865zm-17.422098.2829582c-1.241386.3301179-2.313564.74669524-3.214952 1.24973204-.729018.3929975-1.26827.80643087-1.625662 1.23872812-.355812.43386924-.531345.89917828-.531345 1.4022151 0 .4873169.153394.8850303.460182 1.1899964.309951.3065381.70846.4605931 1.198689.4605931.679995 0 1.24613-.2185066 1.696824-.6602358.449113-.4401572.722692-1.0296535.817575-1.76848877.094883-.75612719.162883-1.23401215.202417-1.43837085.037953-.2043587.11386-.4087174.224557-.61150411.142324-.30025009.358974-.53133262.653111-.69796355.290974-.16348696.611995-.24680243.959899-.24680243.458602 0 .814413.1886388 1.067434.56748838.126511.18706681.213487.48260093.260928.88345838.047442.40085745.071163 1.00135763.071163 1.80464452v1.22615223c-1.707894.4857449-3.099512.9652018-4.174852 1.4352268-.887156.3631297-1.578221.7058235-2.074775 1.0280815-.499717.3222579-.853947.6602358-1.067434 1.0123615-.215068.3552698-.32102.7671312-.32102 1.2403002 0 .5014648.140743.9494819.426973 1.3424794.284649.3929975.679995.6995356 1.186038.9196142.506042.2185066 1.091154.3301179 1.755335.3301179.933016 0 1.734777-.1760629 2.406865-.5297607.673669-.3536977 1.295153-.9243301 1.86287-1.7103251.158138.7702751.430136 1.3346195.817575 1.6993212.38902.3599857.915621.5407646 1.57822.5407646.583531 0 1.181293-.1461951 1.791707-.4370133.607251-.2892461 1.323618-.771847 2.145937-1.4493747l-.142324-.165059c-.221394.1257592-.40009.2090747-.532926.2483744-.135999.0392998-.27358.0581637-.415904.0581637-.203999 0-.385858-.0440158-.543996-.1289032-.15972-.0864595-.270416-.2090747-.335253-.3662737-.061674-.1399071-.104371-.309682-.129674-.5077528-.022139-.1964987-.03479-.5219006-.03479-.9777777v-5.42336552c0-.6759557-.066418-1.2104323-.202417-1.6034298-.134418-.3929975-.374788-.72311539-.722692-.99035369-.267254-.2357985-.577205-.40557342-.925109-.50618078-.347905-.10375134-.759064-.15405502-1.233479-.15405502-.996272 0-2.115891.16348696-3.355695.49517685zm-.202417 9.73847806c-.237208-.3788496-.355812-.9196142-.355812-1.6270097 0-.6130761.083814-1.1113969.249859-1.4965345.166045-.3851375.449113-.7105394.853947-.9793497.403252-.2672383.967806-.5203287 1.695243-.7545552v3.6564487c0 .5486245-.126511.9809218-.381114 1.2953198-.25144.314398-.599344.473169-1.04055.473169-.444369 0-.782785-.1902108-1.021573-.5674884zm-83.5761027-9.72747413c-.7748778.33797785-1.3837103.80171489-1.8264976 1.39121114-.4427873.58949625-.6625996 1.24658807-.6625996 1.97127546 0 .58163633.1407431 1.10039303.4269735 1.55627013.2830676.4543051.7337618.8755984 1.3520826 1.259164.6135767.3851375 1.4295704.7592711 2.4416557 1.1208288l1.1623166.4228653c.5534842.2075027.9931087.4071454 1.3172922.6036442.3226022.1949267.5566469.4197213.6989714.6712397.1439059.2530904.2134867.5486245.2134867.8976063 0 .5014648-.1581383.9117542-.4744149 1.2230082-.3162767.31597-.7432501.473169-1.2809204.473169-.664181 0-1.341013-.2326545-2.0273333-.6963916-.6879017-.463737-1.3489198-1.1192568-1.9814731-1.9681314-.6325533-.8488746-1.1939443-1.8392283-1.6841731-2.9726331h-.2356261l.2356261 4.6939621c1.027899.3772776 2.0162635.6806717 2.9650935.9070382.9488299.2279386 1.7158007.3426939 2.3009125.3426939 1.0120853 0 1.9166365-.1854949 2.715235-.5533405.7985985-.3694177 1.4232449-.8771704 1.8739391-1.5216863.4522756-.6429439.676832-1.3754913.676832-2.1929261 0-.8331547-.284649-1.5358342-.8539469-2.1111825-.569298-.5722044-1.4865002-1.0642373-2.7516068-1.4745267l-1.6130109-.51718467c-1.4865002-.4873169-2.2313317-1.20257235-2.2313317-2.14419436 0-.28453019.0759064-.54705252.2261378-.79071097.1518128-.24523043.3526485-.43701321.6056698-.57849231.2530213-.1414791.5297634-.21379064.8302262-.21379064.4886474 0 1.0120852.18549482 1.5655693.55491247.5534842.36941764 1.0800848.87559842 1.5782205 1.52168631.4981357.6445159.9124581 1.3676313 1.2445486 2.16777417h.2372074l-.2372074-3.86552336c-.853947-.2357985-1.6130109-.4087174-2.2771919-.52032869-.6641809-.10846731-1.3046411-.16348696-1.9213805-.16348696-.9646438 0-1.8344046.16977492-2.6092823.50618078zm-12.0975815 0c-.7748778.33797785-1.3837103.80171489-1.8264976 1.39121114-.4427873.58949625-.6625996 1.24658807-.6625996 1.97127546 0 .58163633.1407431 1.10039303.4269735 1.55627013.2830676.4543051.7337618.8755984 1.3520826 1.259164.6151581.3851375 1.4295704.7592711 2.4416557 1.1208288l1.1623166.4228653c.5534842.2075027.9931087.4071454 1.3172922.6036442.3241836.1949267.5566469.4197213.6989714.6712397.1439059.2530904.2150681.5486245.2150681.8976063 0 .5014648-.1597197.9117542-.4759963 1.2230082-.3162767.31597-.7432501.473169-1.2809204.473169-.664181 0-1.3394316-.2326545-2.0289147-.6963916-.6863203-.463737-1.3473384-1.1192568-1.9783103-1.9681314-.6341347-.8488746-1.1955257-1.8392283-1.6857545-2.9726331h-.2356261l.2356261 4.6939621c1.027899.3772776 2.0162635.6806717 2.9666749.9070382.9472485.2279386 1.7142193.3426939 2.2993311.3426939 1.0120853 0 1.9166365-.1854949 2.715235-.5533405.7985985-.3694177 1.4232449-.8771704 1.8755205-1.5216863.4506942-.6429439.6752506-1.3754913.6752506-2.1929261 0-.8331547-.284649-1.5358342-.8539469-2.1111825-.569298-.5722044-1.4880816-1.0642373-2.7516068-1.4745267l-1.6130109-.51718467c-1.4865002-.4873169-2.2297503-1.20257235-2.2297503-2.14419436 0-.28453019.074325-.54705252.2261378-.79071097.1502314-.24523043.3510671-.43701321.6040884-.57849231.2530213-.1414791.5297634-.21379064.8318076-.21379064.4886474 0 1.0105038.18549482 1.5639879.55491247.5534842.36941764 1.0800848.87559842 1.5782205 1.52168631.4981357.6445159.9140395 1.3676313 1.2445486 2.16777417h.2372074l-.2372074-3.86552336c-.853947-.2357985-1.6130109-.4087174-2.2771919-.52032869-.6641809-.10846731-1.3046411-.16348696-1.9213805-.16348696-.9646438 0-1.8344046.16977492-2.6092823.50618078zm-13.9351488.31911397c-1.0057597.55019649-1.7948699 1.29689174-2.3720748 2.24008574-.5787863.943194-.866598 1.98856732-.866598 3.13612002 0 1.1475527.2878117 2.1929261.866598 3.1361201.5772049.943194 1.3663151 1.6898892 2.3720748 2.2416577 1.0025969.5486245 2.1064024.8237228 3.3082537.8237228 1.2018512 0 2.3040753-.2719543 3.309835-.8142909 1.0041783-.5423365 1.7980327-1.2795998 2.3831445-2.2149339.5851118-.935334.8776677-1.9618435.8776677-3.0779564 0-.9903537-.177115-1.8722401-.5345076-2.63937118-.3558112-.77184709-.8982256-1.46352269-1.6240805-2.07659879-.6483671-.5344766-1.3315247-.93219006-2.0526354-1.19156841-.7195294-.25937835-1.5054768-.38828153-2.3594237-.38828153-1.2018513 0-2.3056568.27509825-3.3082537.82529475zm2.0526354 10.56377276c-.4759964-.6586638-.7132038-2.3894248-.7132038-5.187567 0-1.1632726.0474415-2.17720612.1423245-3.04180062.0948829-.8645945.2213936-1.46981065.3795319-1.81564845.3162767-.69167559.7985985-1.03908538 1.4469657-1.03908538.5392516 0 .9646437.22951054 1.2809203.68538763.474415.69324759.7116225 2.44444445.7116225 5.25673452 0 1.1318328-.0458601 2.1363344-.1423245 3.0087889-.094883.8708824-.2213937 1.4745266-.379532 1.8030725-.317858.6901036-.7985985 1.0375134-1.4469656 1.0375134-.5376703 0-.9646438-.2342265-1.279339-.7073955zm-9.6322051-10.52918898c-.569298.57534833-1.0911544 1.4918185-1.5655694 2.74783851v-3.60771704c-1.3441757.4873169-2.3720748.83787067-3.0836972 1.04851732-.7116225.21379064-1.7078939.46845302-2.9888143.76713112l.0490229.2357985c.3937644.03301179.7100411.09746338.9472486.20121472.2372074.10217935.4348803.26252233.5930187.48417292.1897659.24994641.3162766.54390854.3795319.88345838.0632553.33797785.094883.86773845.094883 1.59085385v3.8655234c0 .8488746-.0442787 1.4556628-.1312548 1.8172205-.0869761.3615577-.2530213.6036441-.4981357.7294033-.2451144.1257592-.6673437.2059307-1.2682693.2389425v.2342265h7.9938921v-.2342265c-.6009257-.0330118-1.023155-.1131833-1.2682694-.2389425-.2466957-.1257592-.4111596-.3678456-.4981357-.7294033-.0869761-.3615577-.1312548-.9683459-.1312548-1.8172205v-2.9459092c0-.7231154.0126511-1.2811719.0347904-1.6741694.0253022-.39299747.0632554-.70739547.1186038-.94319397.0553484-.2357985.1470686-.46530904.2735793-.68381565.189766-.3301179.433299-.49517685.7353432-.49517685.1265106 0 .2498585.03615577.3684623.10689532.1186037.06916756.2403702.19178278.3668809.36627367.1897659.2672383.3289277.45116113.4143224.55176849.086976.10217935.1786963.19335477.2735793.27038228.1423244.12733119.3115324.22479457.5107867.29553412.1976729.07231154.3985086.10689532.6040884.10689532.3336719 0 .6404602-.08645945.9251092-.26095034.284649-.17134691.5060426-.40714541.6641809-.70582351.1581383-.2986781.2372075-.63665595.2372075-1.01393355 0-.3772776-.094883-.7231154-.2830676-1.03908539-.1913474-.31125401-.4522756-.56120042-.7827847-.74197927-.3336718-.17920686-.69739-.27038228-1.0927358-.27038228-.7574825 0-1.4232448.28767417-1.9925428.85987853zm-16.6646162-.01100393c-1.0184108.56591639-1.8217534 1.33619149-2.4068652 2.31082529-.5851118.9746338-.8776677 2.05144692-.8776677 3.22886742 0 1.1491247.2609282 2.1787782.7827847 3.0889604.5218564.9133262 1.238223 1.6285816 2.145937 2.1457663.9092953.5203287 1.9419386.7797071 3.0963483.7797071 1.3283619 0 2.4875158-.3694177 3.4742989-1.108253.9899459-.7388353 1.8233348-1.8628081 2.5033296-3.3719185l-.284649-.1414791c-.5534841.5501965-1.1148751.9557699-1.6841731 1.2151482-.5692979.2593784-1.1939443.3882816-1.8739391.3882816-.8065054 0-1.5181278-.1917828-2.1348673-.5769204-.6167394-.3851375-1.0911544-.93219-1.4232449-1.6411575-.3320905-.7073955-.4981357-1.5232583-.4981357-2.4491604 0-.81900682.115441-1.5609861.3447416-2.23065384.2277191-.66809575.5376702-1.19628439.9235277-1.59085387.3874389-.3929975.8191565-.59106824 1.2935715-.59106824.4111596 0 .7559012.13676313 1.0310618.40242944.2767421.26723829.4159038.60521614.4159038 1.01393354 0 .13990711-.0158138.29239014-.0490228.44801715-.0300463.157199-.0774878.3458378-.1407432.56748839-.0948829.2829582-.1581383.50932476-.1897659.68224366-.0316277.1729189-.0474415.3458378-.0474415.5187567 0 .3929975.086976.74355127.2609282 1.04851737.1739521.30811.4111596.5517684.7116224.7325473.3004628.1792069.6404602.2703823 1.0199922.2703823.3621368 0 .6958086-.0911754.9962714-.2703823.3004628-.1807789.5345075-.4338692.7005528-.7561272.1644638-.3222579.2466958-.67909967.2466958-1.07209717 0-.7073955-.2198123-1.35819936-.6625996-1.95869954-.4427873-.59578421-1.0452943-1.0673812-1.8027769-1.413219-.7590639-.34426581-1.597197-.5187567-2.5143992-.5187567-1.2176651 0-2.3372844.2829582-3.3572766.8488746z" fill="#fff" fill-rule="evenodd"/></mask><path d="m120.877769 0c-.649948.2357985-1.594034.51561272-2.83542.83787067-1.242967.32225795-2.383144.59264023-3.426857.81271883l.04586.26095034c.395346.01414791.713204.07388353.950411.17606288.235626.10060736.433299.26881028.591437.50618077.191348.2515184.317859.54705252.381114.88345838.061674.33797785.094883.86145052.094883 1.56727403v9.6913183c0 .8488746-.041116 1.4556628-.120185 1.8172205-.077488.3615577-.232464.6036441-.460183.7294033-.230882.1257592-.613576.2059307-1.151247.2389425v.2342265h7.66022v-.2342265c-.536088-.0330118-.921946-.1131833-1.149665-.2389425-.230882-.1257592-.382695-.3709896-.461764-.7419793-.080651-.3678456-.118604-.9699178-.118604-1.8046445zm-8.136216 0c-.649949.2357985-1.594035.51561272-2.833839.83787067-1.242967.32225795-2.386307.59264023-3.428439.81271883l.04586.26095034c.396927.01414791.713204.07388353.950412.17606288.237207.10060736.43488.26881028.591437.50618077.191347.2515184.317858.54705252.379532.88345838.064837.33797785.094883.86145052.094883 1.56727403v9.6913183c0 .8488746-.039535 1.4556628-.117022 1.8172205-.080651.3615577-.235627.6036441-.463346.7294033-.218231.1210433-.580367.1996428-1.083247.2342265-.613577-.0408717-1.094317-.1886388-1.442222-.4448731-.363718-.2672383-.763808-.8095749-1.198688-1.6285817-.434881-.8158628-1.095899-2.2526616-1.981473-4.3151125l-3.0599769-7.33176136c-.3463229-.83158271-.7574825-1.89424794-1.2318975-3.18170775-.6483671.80014291-1.3457571 1.51854234-2.0874258 2.15519828-.7432501.63665595-1.3931986 1.08152912-1.9466827 1.33304752.3637181.3458378.6720878.75612719.9251092 1.2261522l-2.3942142 6.29581991c-.4111596 1.1318328-.9061326 2.1316185-1.4833375 2.996213-.5787862.8630225-1.1907815 1.5468381-1.8375672 2.0498749-.6483672.5030368-1.2983156.785995-1.9451014.8504466v.2342265h7.3297112v-.2342265c-.7432501-.0487317-1.3220364-.3316899-1.733196-.8504466-.4111597-.5187567-.6151581-1.2120043-.6151581-2.0765988 0-.4543051.0458601-.8976063.1423245-1.3299035.0933016-.4322973.243533-.938478.4491128-1.5216863h4.7915911l.5234379 1.2245802c.6641809 1.5578421.9962714 2.6346552.9962714 3.2320114 0 .4244373-.1407431.7435513-.4159038.9541979-.2767421.2137907-.6989714.3348339-1.2682693.3678457v.2342265h9.4155553 7.661802v-.2342265c-.53767-.0330118-.920365-.1131833-1.149666-.2389425-.2293-.1257592-.382694-.3709896-.463345-.7419793-.077488-.3678456-.117022-.9699178-.117022-1.8046445zm-17.6972598 5.61200429 2.4432371 5.84780281h-4.6255459zm-86.36249942-2.84215792c-.7432501.63665595-1.39161722 1.08152912-1.94510134 1.33304752.36371814.3458378.67050648.75612719.92510918 1.2261522l-2.39579556 6.29581991c-.41115963 1.1318328-.90455119 2.1316185-1.48333744 2.996213-.57720487.8630225-1.18920017 1.5468381-1.83914866 2.0498749-.64678573.5030368-1.29515285.785995-1.94351996.8504466v.2342265h7.32971114v-.2342265c-.7432501-.0487317-1.32045497-.3316899-1.7316146-.8504466-.40957825-.5187567-.61673945-1.2120043-.61673945-2.0765988 0-.4543051.04744149-.8976063.14232449-1.3299035.09488299-.4322973.24511439-.938478.45069421-1.5216863h4.79159111l.5218564 1.2245802c.664181 1.5578421.9962715 2.6346552.9962715 3.2320114 0 .4244373-.1375804.7435513-.4143224.9541979-.2767421.2137907-.7021342.3348339-1.2698507.3678457v.2342265h9.5594614v-.2342265c-.6499485-.0330118-1.1544097-.1823508-1.5181279-.4495891-.3637181-.2672383-.7622267-.8095749-1.1986884-1.6285817-.4348804-.8158628-1.0943172-2.2526616-1.9783104-4.3151125l-3.0615579-7.33176136c-.3479043-.83158271-.7590639-1.89424794-1.2350603-3.18170775-.6467857.80014291-1.34259431 1.51854234-2.08584442 2.15519828zm-.83022618 2.84215792 2.443237 5.84780281h-4.62396444zm179.7400144-3.66745266c-.442787.30653804-.782784.73883529-1.019992 1.29689174-.235626.55805645-.355811 1.21514827-.355811 1.96970347v.44801715c-.664181.0314398-1.209758.09117542-1.636732.17606288-.426973.08645945-.861853.23265452-1.304641.43701322-.776459.3285459-1.375803.74197927-1.802777 1.23872811-.428554.49360486-.64046 1.02650947-.64046 1.59085388 0 .628796.192929 1.16798852.581949 1.61443372.385858.4480172.951993.7985709 1.695243 1.0500893-.94883.5046088-1.644639 1.0217935-2.087426 1.5562701-.444368.5344766-.664181 1.1161129-.664181 1.7449089 0 .5989282.219813 1.100393.664181 1.5075384.442787.4102894 1.083248.7073955 1.921381.8976063-.806506.2829582-1.418501.6130761-1.839149.9903537-.419066.3772776-.627809.784423-.627809 1.2261522 0 .471597.213487.8787424.64046 1.2277242.426974.3442658 1.035806.6115041 1.826498.8001429.790691.1902108 1.723707.2829582 2.799048.2829582 1.377385 0 2.633003-.2043587 3.771599-.6130761 1.138596-.4102894 2.03524-.9714898 2.691514-1.6851733.656274-.7152554.985202-1.5059664.985202-2.3705609 0-.6602358-.186603-1.249732-.556647-1.7684887-.373206-.5187567-.888737-.9227582-1.5545-1.2135763-.664181-.2908182-1.415338-.4354412-2.251889-.4354412-.270417 0-.80018.0141479-1.590872.0440157-.711622.0487317-1.250874.0723115-1.613011.0723115-.695808 0-1.241386-.0392997-1.636731-.1163272-.395346-.0801715-.683158-.2122187-.866598-.4024295-.180278-.1886388-.270417-.4401572-.270417-.7545552 0-.1886388.037953-.3458378.117023-.471597.079069-.1257592.213486-.2672383.403252-.4244373.521857.157199 1.004179.2719543 1.446966.3426938.441206.0707396.901388.1053234 1.377385.1053234.996271 0 1.908729-.154055 2.738955-.4605931.828645-.306538 1.486501-.7262594 1.968822-1.260736.482322-.5344766.722693-1.11611287.722693-1.74490887 0-.4244373-.126511-.82843873-.379532-1.21514827-.253022-.38356556-.607252-.71682744-1.067434-.99978564-.490229-.28453018-1.019992-.51089674-1.58929-.68538763-.569298-.1729189-1.099062-.2672383-1.58929-.2829582h-.521857v-.21064666c0-.5344766.063256-.92275813.189766-1.15698464.126511-.23737049.332091-.35369775.61674-.35369775.12651 0 .249858.03929975.366881.11632726.120185.08174348.2973.24523044.536088.49674884.249859.25309039.485485.43386924.698972.54233655.213487.1100393.453857.16505895.722692.16505895.300463 0 .577205-.08331547.830226-.24837442.254603-.16505895.455439-.38356556.60567-.65866381.14865-.27667024.224556-.57849232.224556-.90861022 0-.36312969-.094883-.6916756-.284649-.98878171-.189766-.30025008-.44595-.53604858-.771715-.70896748-.324183-.1729189-.683157-.25937835-1.078503-.25937835-.585112 0-1.100643.15248303-1.541849.45902108zm-2.514399 9.26688107c-.253021-.5250447-.379532-1.34719547-.379532-2.46330837 0-.9589139.118604-1.66316542.355811-2.11118257.237208-.44644515.608833-.67281171 1.114876-.67281171.53767 0 .93776.26881029 1.197107.80485887.262509.53290461.392183 1.34247946.392183 2.42715256 0 1.00607362-.11386 1.72604502-.343161 2.15677032-.230881.4338692-.605669.6508038-1.127526.6508038-.555065 0-.958318-.2656663-1.209758-.7922829zm-.237207 10.0214362c-.648367-.2279386-1.15441-.5454805-1.518128-.9541979-.363718-.4087174-.543996-.8724545-.543996-1.3912112 0-.1886388.037953-.3851375.117022-.5879243.079069-.2059306.173952-.3788495.284649-.5203286.110697-.1414791.213487-.2122187.309951-.2122187.346323.0471597.667344.0817435.9599.1068953.292556.0220079.596181.0345838.912458.0345838.142325 0 .578786-.0157199 1.304641-.0471597l1.280921-.0471597c.852365 0 1.514965.1493391 1.981473.4480172.466508.2986781.698971.7231154.698971 1.2733119 0 .4385852-.150231.8300107-.450694 1.1679885-.300463.3379779-.722692.6005002-1.269851.789139-.545577.1886388-1.165479.2829582-1.859706.2829582-.823901 0-1.559244-.1147553-2.207611-.3426938zm-55.119112-19.2050018v.23579849c.521857.03301179 2.490679.09274741 2.7437.19021079.253021.09274741.458601.2515184.615158.47002501.128092.1729189.218231.35684173.273579.55334048.055349.19649875.096465.4873169.120185.87402644.02214.38356556.034791.95419793.034791 1.70875313v7.66345126c0 .7545552-.012651 1.3251875-.034791 1.7087531-.02372.3867095-.064836.6759557-.120185.8740264-.055348.1964988-.145487.3804216-.273579.5533405-.156557.2200786-.362137.3788496-.615158.471597-.253021.0927474-2.221843.157199-2.7437.1902108v.2342265h10.66643v-.2342265c-.521857-.0330118-.904551-.0974634-1.151247-.1902108-.245115-.0927474-.453857-.2515184-.627809-.471597-.126511-.1729189-.218231-.3615577-.271998-.5659164-.055349-.2043587-.096465-.4951768-.118604-.8724544-.023721-.3772776-.036372-.943194-.036372-1.6977492v-3.77277602h.426974c.521856 0 .975713.14462312 1.364733.43544122.385858.2908182.762227.7749911 1.125945 1.4509468.316277.5501965.676832 1.2733119 1.078504 2.1693462.403252.8960343.945667 2.1457663 1.625662 3.7491961h6.95176v-.2342265c-.555065-.0487317-.980458-.1351911-1.282502-.2609503-.298881-.1257592-.578786-.3584138-.830226-.6948196-.253021-.3379779-.585112-.8928903-.997853-1.6631654l-1.350501-2.5702037c-.379532-.6916756-.719529-1.2182922-1.019992-1.5782779-.300463-.3631297-.632553-.635084-.996272-.81586284-.363718-.18077885-.838133-.31754198-1.423244-.41028939 1.312548-.19021079 2.327796-.57063237 3.048906-1.14598071.717948-.57377635 1.078504-1.29060379 1.078504-2.15677027 0-.6130761-.197673-1.19785638-.593019-1.75748482-.396927-.55648446-.933016-1.00921758-1.613011-1.35505538-.774878-.3929975-1.673103-.67281172-2.691514-.83629868-1.019992-.16505894-2.398958-.24837441-4.140061-.24837441zm8.4604.28453018h.664181c.630972 0 1.135433.07073955 1.507058.21064666.371625.1414791.675251.37098964.912458.68224366.490229.64608789.735344 1.57199.735344 2.78556628 0 1.2874598-.248277 2.22279385-.747995 2.80443015-.498135.5816363-1.298315.87245445-2.406865.87245445h-.664181zm71.611357 3.85294749c-.776459.33797785-1.38371.80171489-1.828079 1.39121114-.441206.58949625-.662599 1.24658807-.662599 1.97127546 0 .58163633.140743 1.10039303.426973 1.55627013.284649.4543051.735343.8755984 1.352083 1.259164.616739.3851375 1.42957.7592711 2.441655 1.1208288l1.162317.4228653c.553484.2075027.993109.4071454 1.318874.6036442.32102.1949267.555065.4197213.698971.6712397.142325.2530904.213487.5486245.213487.8976063 0 .5014648-.15972.9117542-.474415 1.2230082-.317858.31597-.744832.473169-1.282502.473169-.6626 0-1.341013-.2326545-2.027333-.6963916-.686321-.463737-1.34892-1.1192568-1.981473-1.9681314-.630972-.8488746-1.193945-1.8392283-1.682592-2.9726331h-.237208l.237208 4.6939621c1.026318.3772776 2.014682.6806717 2.965093.9070382.947249.2279386 1.715801.3426939 2.300913.3426939 1.012085 0 1.915055-.1854949 2.713654-.5533405.798598-.3694177 1.424826-.8771704 1.87552-1.5216863.450694-.6429439.676832-1.3754913.676832-2.1929261 0-.8331547-.28623-1.5358342-.853947-2.1111825-.570879-.5722044-1.488082-1.0642373-2.753188-1.4745267l-1.613011-.51718467c-1.484919-.4873169-2.228169-1.20257235-2.228169-2.14419436 0-.28453019.074325-.54705252.224557-.79071097.150231-.24523043.351067-.43701321.604088-.57849231.253021-.1414791.529763-.21379064.831807-.21379064.488648 0 1.010504.18549482 1.56557.55491247.553484.36941764 1.078503.87559842 1.576639 1.52168631.499717.6445159.912458 1.3676313 1.244548 2.16777417h.238789l-.238789-3.86552336c-.853946-.2357985-1.611429-.4087174-2.277191-.52032869-.6626-.10846731-1.304641-.16348696-1.921381-.16348696-.964644 0-1.834404.16977492-2.607701.50618078zm-13.153945.34269382c-.988365.56591639-1.766405 1.33619149-2.337285 2.31082529-.569298.9746338-.853947 2.04358702-.853947 3.20685962 0 1.1161129.27358 2.1394784.819157 3.0653805.545577.9274741 1.296734 1.6553054 2.253471 2.1819221.956737.5266166 2.019426.789139 3.18965.789139.917202 0 1.764824-.1760629 2.539701-.5297607.773297-.3536977 1.437478-.8614505 1.992543-1.5216863.330509-.4087174.611995-.8174348.841296-1.2261522.229301-.4087174.469671-.9510539.724274-1.6270096l-.215069-.0927474c-.490228.7215434-1.031061 1.245016-1.62408 1.565702-.5946.3222579-1.307804.4841729-2.145937.4841729-1.31413 0-2.29775-.3615577-2.954024-1.0846731-.656274-.7231154-.993109-1.8235084-1.008922-3.301179h7.851567c-.077488-.628796-.192929-1.14440869-.34316-1.54369415-.150231-.40242944-.368462-.80014291-.653111-1.19156842-.536089-.7388353-1.228735-1.31103966-2.074775-1.72132904-.84604-.40714541-1.758498-.6130761-2.738956-.6130761-1.186037 0-2.274029.2829582-3.262393.8488746zm1.720545.62565201c.347904-.77813504.844458-1.16956055 1.492825-1.16956055.395346 0 .706879.12418721.937761.36784566.227719.24208646.407996.63351196.534507 1.16641657.061674.3301179.105953.71211147.129674 1.14440872.02372.43386924.03479 1.03279743.03479 1.8046445h-3.651414c0-1.43208287.172371-2.53561985.521857-3.3137549zm-24.881484-1.26230796c-.442787.1414791-.888737.37413362-1.339431.69639157-.450694.32068595-.953574.76555912-1.507058 1.33147552v-2.24008574c-1.201852.4244373-2.283518.77341908-3.249743 1.04851732-.966225.27667024-1.968822.53133262-3.012535.76713112l.047442.2357985c.395345.03301179.711622.09746338.947248.20121472.238789.10217935.436462.26252233.5946.48417292.189766.24994641.316277.54390854.379532.88345838.063255.33797785.094883.86773845.094883 1.59085385v3.8655234c0 .8488746-.044279 1.4556628-.131255 1.8172205-.086976.3615577-.253021.6036441-.496554.7294033-.245114.1257592-.668925.2059307-1.269851.2389425v.2342265h7.211108v-.2342265c-.347905-.0487317-.596182-.1320472-.747995-.2483744-.14865-.1194713-.251439-.3269739-.306788-.625652-.055348-.2986781-.075906-.7781351-.060092-1.4383709v-6.93247587c.61832-.5501965 1.209758-.82529475 1.779056-.82529475.221393 0 .426973.05501965.61832.16663094.188185.10846731.33051.2515184.425393.42286531.110696.2043587.181859.47631297.213486.81271883.031628.33797785.047442.97148982.047442 1.90053594v4.4550196c.014232.6602358-.003163 1.1396928-.058511 1.4383709-.05693.2986781-.15972.5061807-.309951.625652-.148651.1163272-.40009.1996427-.746413.2483744v.2342265h6.735111v-.2342265c-.45702-.0487317-.781204-.1273312-.969388-.2389425-.191348-.1084673-.317858-.311254-.381114-.6115041-.063255-.2986781-.086976-.785995-.071162-1.4619507v-6.10718112c0-.628796-.039534-1.1318328-.118604-1.51068239-.079069-.37413362-.221393-.69010361-.425392-.94162201-.224556-.31439799-.547158-.55805644-.974132-.72940335-.426973-.17449089-.909295-.26095034-1.446965-.26095034-.537671 0-1.027899.07073955-1.470687.21221865zm-17.422098.2829582c-1.241386.3301179-2.313564.74669524-3.214952 1.24973204-.729018.3929975-1.26827.80643087-1.625662 1.23872812-.355812.43386924-.531345.89917828-.531345 1.4022151 0 .4873169.153394.8850303.460182 1.1899964.309951.3065381.70846.4605931 1.198689.4605931.679995 0 1.24613-.2185066 1.696824-.6602358.449113-.4401572.722692-1.0296535.817575-1.76848877.094883-.75612719.162883-1.23401215.202417-1.43837085.037953-.2043587.11386-.4087174.224557-.61150411.142324-.30025009.358974-.53133262.653111-.69796355.290974-.16348696.611995-.24680243.959899-.24680243.458602 0 .814413.1886388 1.067434.56748838.126511.18706681.213487.48260093.260928.88345838.047442.40085745.071163 1.00135763.071163 1.80464452v1.22615223c-1.707894.4857449-3.099512.9652018-4.174852 1.4352268-.887156.3631297-1.578221.7058235-2.074775 1.0280815-.499717.3222579-.853947.6602358-1.067434 1.0123615-.215068.3552698-.32102.7671312-.32102 1.2403002 0 .5014648.140743.9494819.426973 1.3424794.284649.3929975.679995.6995356 1.186038.9196142.506042.2185066 1.091154.3301179 1.755335.3301179.933016 0 1.734777-.1760629 2.406865-.5297607.673669-.3536977 1.295153-.9243301 1.86287-1.7103251.158138.7702751.430136 1.3346195.817575 1.6993212.38902.3599857.915621.5407646 1.57822.5407646.583531 0 1.181293-.1461951 1.791707-.4370133.607251-.2892461 1.323618-.771847 2.145937-1.4493747l-.142324-.165059c-.221394.1257592-.40009.2090747-.532926.2483744-.135999.0392998-.27358.0581637-.415904.0581637-.203999 0-.385858-.0440158-.543996-.1289032-.15972-.0864595-.270416-.2090747-.335253-.3662737-.061674-.1399071-.104371-.309682-.129674-.5077528-.022139-.1964987-.03479-.5219006-.03479-.9777777v-5.42336552c0-.6759557-.066418-1.2104323-.202417-1.6034298-.134418-.3929975-.374788-.72311539-.722692-.99035369-.267254-.2357985-.577205-.40557342-.925109-.50618078-.347905-.10375134-.759064-.15405502-1.233479-.15405502-.996272 0-2.115891.16348696-3.355695.49517685zm-.202417 9.73847806c-.237208-.3788496-.355812-.9196142-.355812-1.6270097 0-.6130761.083814-1.1113969.249859-1.4965345.166045-.3851375.449113-.7105394.853947-.9793497.403252-.2672383.967806-.5203287 1.695243-.7545552v3.6564487c0 .5486245-.126511.9809218-.381114 1.2953198-.25144.314398-.599344.473169-1.04055.473169-.444369 0-.782785-.1902108-1.021573-.5674884zm-83.5761027-9.72747413c-.7748778.33797785-1.3837103.80171489-1.8264976 1.39121114-.4427873.58949625-.6625996 1.24658807-.6625996 1.97127546 0 .58163633.1407431 1.10039303.4269735 1.55627013.2830676.4543051.7337618.8755984 1.3520826 1.259164.6135767.3851375 1.4295704.7592711 2.4416557 1.1208288l1.1623166.4228653c.5534842.2075027.9931087.4071454 1.3172922.6036442.3226022.1949267.5566469.4197213.6989714.6712397.1439059.2530904.2134867.5486245.2134867.8976063 0 .5014648-.1581383.9117542-.4744149 1.2230082-.3162767.31597-.7432501.473169-1.2809204.473169-.664181 0-1.341013-.2326545-2.0273333-.6963916-.6879017-.463737-1.3489198-1.1192568-1.9814731-1.9681314-.6325533-.8488746-1.1939443-1.8392283-1.6841731-2.9726331h-.2356261l.2356261 4.6939621c1.027899.3772776 2.0162635.6806717 2.9650935.9070382.9488299.2279386 1.7158007.3426939 2.3009125.3426939 1.0120853 0 1.9166365-.1854949 2.715235-.5533405.7985985-.3694177 1.4232449-.8771704 1.8739391-1.5216863.4522756-.6429439.676832-1.3754913.676832-2.1929261 0-.8331547-.284649-1.5358342-.8539469-2.1111825-.569298-.5722044-1.4865002-1.0642373-2.7516068-1.4745267l-1.6130109-.51718467c-1.4865002-.4873169-2.2313317-1.20257235-2.2313317-2.14419436 0-.28453019.0759064-.54705252.2261378-.79071097.1518128-.24523043.3526485-.43701321.6056698-.57849231.2530213-.1414791.5297634-.21379064.8302262-.21379064.4886474 0 1.0120852.18549482 1.5655693.55491247.5534842.36941764 1.0800848.87559842 1.5782205 1.52168631.4981357.6445159.9124581 1.3676313 1.2445486 2.16777417h.2372074l-.2372074-3.86552336c-.853947-.2357985-1.6130109-.4087174-2.2771919-.52032869-.6641809-.10846731-1.3046411-.16348696-1.9213805-.16348696-.9646438 0-1.8344046.16977492-2.6092823.50618078zm-12.0975815 0c-.7748778.33797785-1.3837103.80171489-1.8264976 1.39121114-.4427873.58949625-.6625996 1.24658807-.6625996 1.97127546 0 .58163633.1407431 1.10039303.4269735 1.55627013.2830676.4543051.7337618.8755984 1.3520826 1.259164.6151581.3851375 1.4295704.7592711 2.4416557 1.1208288l1.1623166.4228653c.5534842.2075027.9931087.4071454 1.3172922.6036442.3241836.1949267.5566469.4197213.6989714.6712397.1439059.2530904.2150681.5486245.2150681.8976063 0 .5014648-.1597197.9117542-.4759963 1.2230082-.3162767.31597-.7432501.473169-1.2809204.473169-.664181 0-1.3394316-.2326545-2.0289147-.6963916-.6863203-.463737-1.3473384-1.1192568-1.9783103-1.9681314-.6341347-.8488746-1.1955257-1.8392283-1.6857545-2.9726331h-.2356261l.2356261 4.6939621c1.027899.3772776 2.0162635.6806717 2.9666749.9070382.9472485.2279386 1.7142193.3426939 2.2993311.3426939 1.0120853 0 1.9166365-.1854949 2.715235-.5533405.7985985-.3694177 1.4232449-.8771704 1.8755205-1.5216863.4506942-.6429439.6752506-1.3754913.6752506-2.1929261 0-.8331547-.284649-1.5358342-.8539469-2.1111825-.569298-.5722044-1.4880816-1.0642373-2.7516068-1.4745267l-1.6130109-.51718467c-1.4865002-.4873169-2.2297503-1.20257235-2.2297503-2.14419436 0-.28453019.074325-.54705252.2261378-.79071097.1502314-.24523043.3510671-.43701321.6040884-.57849231.2530213-.1414791.5297634-.21379064.8318076-.21379064.4886474 0 1.0105038.18549482 1.5639879.55491247.5534842.36941764 1.0800848.87559842 1.5782205 1.52168631.4981357.6445159.9140395 1.3676313 1.2445486 2.16777417h.2372074l-.2372074-3.86552336c-.853947-.2357985-1.6130109-.4087174-2.2771919-.52032869-.6641809-.10846731-1.3046411-.16348696-1.9213805-.16348696-.9646438 0-1.8344046.16977492-2.6092823.50618078zm-13.9351488.31911397c-1.0057597.55019649-1.7948699 1.29689174-2.3720748 2.24008574-.5787863.943194-.866598 1.98856732-.866598 3.13612002 0 1.1475527.2878117 2.1929261.866598 3.1361201.5772049.943194 1.3663151 1.6898892 2.3720748 2.2416577 1.0025969.5486245 2.1064024.8237228 3.3082537.8237228 1.2018512 0 2.3040753-.2719543 3.309835-.8142909 1.0041783-.5423365 1.7980327-1.2795998 2.3831445-2.2149339.5851118-.935334.8776677-1.9618435.8776677-3.0779564 0-.9903537-.177115-1.8722401-.5345076-2.63937118-.3558112-.77184709-.8982256-1.46352269-1.6240805-2.07659879-.6483671-.5344766-1.3315247-.93219006-2.0526354-1.19156841-.7195294-.25937835-1.5054768-.38828153-2.3594237-.38828153-1.2018513 0-2.3056568.27509825-3.3082537.82529475zm2.0526354 10.56377276c-.4759964-.6586638-.7132038-2.3894248-.7132038-5.187567 0-1.1632726.0474415-2.17720612.1423245-3.04180062.0948829-.8645945.2213936-1.46981065.3795319-1.81564845.3162767-.69167559.7985985-1.03908538 1.4469657-1.03908538.5392516 0 .9646437.22951054 1.2809203.68538763.474415.69324759.7116225 2.44444445.7116225 5.25673452 0 1.1318328-.0458601 2.1363344-.1423245 3.0087889-.094883.8708824-.2213937 1.4745266-.379532 1.8030725-.317858.6901036-.7985985 1.0375134-1.4469656 1.0375134-.5376703 0-.9646438-.2342265-1.279339-.7073955zm-9.6322051-10.52918898c-.569298.57534833-1.0911544 1.4918185-1.5655694 2.74783851v-3.60771704c-1.3441757.4873169-2.3720748.83787067-3.0836972 1.04851732-.7116225.21379064-1.7078939.46845302-2.9888143.76713112l.0490229.2357985c.3937644.03301179.7100411.09746338.9472486.20121472.2372074.10217935.4348803.26252233.5930187.48417292.1897659.24994641.3162766.54390854.3795319.88345838.0632553.33797785.094883.86773845.094883 1.59085385v3.8655234c0 .8488746-.0442787 1.4556628-.1312548 1.8172205-.0869761.3615577-.2530213.6036441-.4981357.7294033-.2451144.1257592-.6673437.2059307-1.2682693.2389425v.2342265h7.9938921v-.2342265c-.6009257-.0330118-1.023155-.1131833-1.2682694-.2389425-.2466957-.1257592-.4111596-.3678456-.4981357-.7294033-.0869761-.3615577-.1312548-.9683459-.1312548-1.8172205v-2.9459092c0-.7231154.0126511-1.2811719.0347904-1.6741694.0253022-.39299747.0632554-.70739547.1186038-.94319397.0553484-.2357985.1470686-.46530904.2735793-.68381565.189766-.3301179.433299-.49517685.7353432-.49517685.1265106 0 .2498585.03615577.3684623.10689532.1186037.06916756.2403702.19178278.3668809.36627367.1897659.2672383.3289277.45116113.4143224.55176849.086976.10217935.1786963.19335477.2735793.27038228.1423244.12733119.3115324.22479457.5107867.29553412.1976729.07231154.3985086.10689532.6040884.10689532.3336719 0 .6404602-.08645945.9251092-.26095034.284649-.17134691.5060426-.40714541.6641809-.70582351.1581383-.2986781.2372075-.63665595.2372075-1.01393355 0-.3772776-.094883-.7231154-.2830676-1.03908539-.1913474-.31125401-.4522756-.56120042-.7827847-.74197927-.3336718-.17920686-.69739-.27038228-1.0927358-.27038228-.7574825 0-1.4232448.28767417-1.9925428.85987853zm-16.6646162-.01100393c-1.0184108.56591639-1.8217534 1.33619149-2.4068652 2.31082529-.5851118.9746338-.8776677 2.05144692-.8776677 3.22886742 0 1.1491247.2609282 2.1787782.7827847 3.0889604.5218564.9133262 1.238223 1.6285816 2.145937 2.1457663.9092953.5203287 1.9419386.7797071 3.0963483.7797071 1.3283619 0 2.4875158-.3694177 3.4742989-1.108253.9899459-.7388353 1.8233348-1.8628081 2.5033296-3.3719185l-.284649-.1414791c-.5534841.5501965-1.1148751.9557699-1.6841731 1.2151482-.5692979.2593784-1.1939443.3882816-1.8739391.3882816-.8065054 0-1.5181278-.1917828-2.1348673-.5769204-.6167394-.3851375-1.0911544-.93219-1.4232449-1.6411575-.3320905-.7073955-.4981357-1.5232583-.4981357-2.4491604 0-.81900682.115441-1.5609861.3447416-2.23065384.2277191-.66809575.5376702-1.19628439.9235277-1.59085387.3874389-.3929975.8191565-.59106824 1.2935715-.59106824.4111596 0 .7559012.13676313 1.0310618.40242944.2767421.26723829.4159038.60521614.4159038 1.01393354 0 .13990711-.0158138.29239014-.0490228.44801715-.0300463.157199-.0774878.3458378-.1407432.56748839-.0948829.2829582-.1581383.50932476-.1897659.68224366-.0316277.1729189-.0474415.3458378-.0474415.5187567 0 .3929975.086976.74355127.2609282 1.04851737.1739521.30811.4111596.5517684.7116224.7325473.3004628.1792069.6404602.2703823 1.0199922.2703823.3621368 0 .6958086-.0911754.9962714-.2703823.3004628-.1807789.5345075-.4338692.7005528-.7561272.1644638-.3222579.2466958-.67909967.2466958-1.07209717 0-.7073955-.2198123-1.35819936-.6625996-1.95869954-.4427873-.59578421-1.0452943-1.0673812-1.8027769-1.413219-.7590639-.34426581-1.597197-.5187567-2.5143992-.5187567-1.2176651 0-2.3372844.2829582-3.3572766.8488746z" fill="url(#a)" fill-rule="evenodd" mask="url(#b)" transform="translate(393 34)"/></svg>