<?xml version="1.0" encoding="utf-8"?>
<!-- Generator: Adobe Illustrator 23.0.4, SVG Export Plug-In . SVG Version: 6.00 Build 0)  -->
<svg version="1.1" id="Layer_1" xmlns="http://www.w3.org/2000/svg" xmlns:xlink="http://www.w3.org/1999/xlink" x="0px" y="0px"
	 viewBox="0 0 320 50" style="enable-background:new 0 0 320 50;" xml:space="preserve">
<style type="text/css">
	.st0{clip-path:url(#SVGID_2_);}
	.st1{fill:#FFFFFF;}
</style>
<g>
	<g>
		<g>
			<defs>
				<rect id="SVGID_1_" width="320" height="50"/>
			</defs>
			<clipPath id="SVGID_2_">
				<use xlink:href="#SVGID_1_"  style="overflow:visible;"/>
			</clipPath>
			<g class="st0">
				<g>
					<g>
						<path class="st1" d="M136.2,26.5H134l-0.4,1h-1l2-4.9h1.1l2,4.9h-1L136.2,26.5z M135.9,25.7l-0.7-1.9l-0.1-0.2l-0.1,0.2
							l-0.7,1.9H135.9z"/>
						<path class="st1" d="M139.4,22.7h0.8l2.6,3.3v-3.3h0.9v4.9h-0.8l-2.6-3.3v3.3h-0.9V22.7z"/>
						<path class="st1" d="M150.5,25.1c0,1.4-1.1,2.4-2.6,2.4h-1.7v-4.9h1.8C149.4,22.7,150.5,23.7,150.5,25.1z M149.5,25.1
							c0-0.9-0.7-1.6-1.7-1.6H147v3.1h0.8C148.8,26.7,149.5,26,149.5,25.1z"/>
						<path class="st1" d="M159.3,26.2c0,0.8-0.7,1.4-1.7,1.4h-2.1v-4.9h1.9c1,0,1.7,0.5,1.7,1.3c0,0.5-0.3,0.9-0.7,1l0,0
							C159,25.2,159.3,25.6,159.3,26.2z M156.5,23.5v1.2h1c0.5,0,0.8-0.2,0.8-0.6s-0.3-0.6-0.8-0.6H156.5z M158.4,26.1
							c0-0.4-0.3-0.6-0.9-0.6h-1v1.2h1.1C158.1,26.7,158.4,26.5,158.4,26.1z"/>
						<path class="st1" d="M164.6,26.7v0.8h-3.3v-4.9h3.3v0.8h-2.4v1.2h2.3v0.8h-2.3v1.2h2.4V26.7z"/>
						<path class="st1" d="M170.9,25.9H170v1.6h-0.9v-4.9h1.8c1.2,0,1.9,0.6,1.9,1.6c0,0.7-0.4,1.2-1.1,1.5l1.2,1.7h-1.1L170.9,25.9
							z M170,25.1h0.9c0.6,0,0.9-0.3,0.9-0.8s-0.3-0.8-0.9-0.8H170V25.1z"/>
						<path class="st1" d="M178.1,26.7v0.8h-3.3v-4.9h3.3v0.8h-2.4v1.2h2.3v0.8h-2.3v1.2h2.4V26.7z"/>
						<path class="st1" d="M179.8,22.7h1l1,3.5v0.3v-0.3l1-3.5h0.9l1,3.5v0.3v-0.3l1-3.5h1l-1.5,4.9h-0.9l-1-3.6v-0.3V24l-1,3.6h-1
							L179.8,22.7z"/>
						<path class="st1" d="M191,26.5h-2.2l-0.4,1h-1l2-4.9h1.1l2,4.9h-1L191,26.5z M190.7,25.7l-0.7-1.9l-0.1-0.2l-0.1,0.2l-0.7,1.9
							H190.7z"/>
						<path class="st1" d="M195.9,25.9H195v1.6h-0.9v-4.9h1.8c1.2,0,1.9,0.6,1.9,1.6c0,0.7-0.4,1.2-1.1,1.5l1.2,1.7h-1.1L195.9,25.9
							z M195.1,25.1h0.9c0.6,0,0.9-0.3,0.9-0.8s-0.3-0.8-0.9-0.8h-0.9V25.1z"/>
						<path class="st1" d="M204.2,25.1c0,1.4-1.1,2.4-2.6,2.4h-1.7v-4.9h1.8C203.1,22.7,204.2,23.7,204.2,25.1z M203.3,25.1
							c0-0.9-0.7-1.6-1.7-1.6h-0.8v3.1h0.8C202.6,26.7,203.3,26,203.3,25.1z"/>
						<path class="st1" d="M209.6,26.7v0.8h-3.3v-4.9h3.3v0.8h-2.4v1.2h2.3v0.8h-2.3v1.2h2.4V26.7z"/>
						<path class="st1" d="M216,25.1c0,1.4-1.1,2.4-2.6,2.4h-1.7v-4.9h1.8C215,22.7,216,23.7,216,25.1z M215.1,25.1
							c0-0.9-0.7-1.6-1.7-1.6h-0.8v3.1h0.8C214.4,26.7,215.1,26,215.1,25.1z"/>
					</g>
				</g>
			</g>
		</g>
	</g>
</g>
</svg>
