<?xml version="1.0" encoding="utf-8"?>
<!-- Generator: Adobe Illustrator 23.0.4, SVG Export Plug-In . SVG Version: 6.00 Build 0)  -->
<svg version="1.1" id="Layer_1" xmlns="http://www.w3.org/2000/svg" xmlns:xlink="http://www.w3.org/1999/xlink" x="0px" y="0px"
	 viewBox="0 0 320 50" style="enable-background:new 0 0 320 50;" xml:space="preserve">
<style type="text/css">
	.st0{fill:#FFFFFF;}
</style>
<g>
	<g>
		<g>
			<g>
				<rect x="267.2" y="21.2" class="st0" width="1.1" height="5.2"/>
			</g>
			<g>
				<path class="st0" d="M272.6,26.5c-1.5,0-2.8-1-2.8-2.7s1.3-2.7,2.8-2.7c0.7,0,1.4,0.2,1.8,0.5v1c-0.4-0.4-1-0.6-1.7-0.6
					c-1,0-1.8,0.7-1.8,1.9c0,1.2,0.8,1.9,1.8,1.9c0.7,0,1.3-0.3,1.7-0.6v1C274,26.3,273.3,26.5,272.6,26.5"/>
			</g>
			<g>
				<polygon class="st0" points="278.5,22 278.5,26.4 277.4,26.4 277.4,22 275.7,22 275.7,21.2 280.2,21.2 280.2,22 				"/>
			</g>
			<g>
				<path class="st0" d="M283.9,21.9c-1,0-1.7,0.8-1.7,1.9c0,1.1,0.7,1.9,1.7,1.9c1,0,1.7-0.8,1.7-1.9
					C285.6,22.6,284.9,21.9,283.9,21.9 M283.9,26.5c-1.6,0-2.8-1.1-2.8-2.7c0-1.6,1.2-2.7,2.8-2.7c1.6,0,2.8,1.1,2.8,2.7
					C286.7,25.4,285.5,26.5,283.9,26.5"/>
			</g>
			<g>
				<path class="st0" d="M289.4,23.6h0.8c0.7,0,0.9-0.3,0.9-0.8c0-0.5-0.2-0.8-0.9-0.8h-0.8V23.6z M292.1,26.4c-0.6,0-1.1-0.3-1.5-1
					l-0.6-1.1h-0.6v2.1h-1.1v-5.2h2c1.2,0,1.7,0.7,1.7,1.6c0,0.7-0.4,1.3-1.1,1.5l0.5,0.9c0.3,0.4,0.5,0.6,0.9,0.6
					c0.1,0,0.2,0,0.3,0v0.7C292.5,26.4,292.3,26.4,292.1,26.4"/>
			</g>
			<g>
				<rect x="294.5" y="21.2" class="st0" width="1.1" height="5.2"/>
			</g>
			<g>
				<path class="st0" d="M257.6,21c-0.3,0.1-0.7,0.1-0.9,0c-0.3-0.1-0.5-0.3-0.6-0.6c-0.1-0.3-0.1-0.6,0.1-0.8
					c0.1-0.2,0.3-0.3,0.6-0.3c0.3,0,0.6,0.2,0.8,0.4c0.3,0.2,0.5,0.5,0.8,0.7c0.1,0.1,0.1,0.2,0.2,0.2
					C258.2,20.8,257.9,20.9,257.6,21 M279.9,17.1c-3-0.9-6.2-1-9.3-0.5c-3.1,0.5-6.1,1.4-8.9,2.6c-0.7,0.3-1.4,0.6-2.1,0.9
					c-0.1,0.1-0.2,0.1-0.3,0.2c-0.1-0.1-0.2-0.3-0.3-0.4c-0.3-0.3-0.6-0.6-0.9-0.8c-0.4-0.2-0.8-0.5-1.3-0.5c-0.3,0-0.5,0-0.8,0.2
					c-0.2,0.1-0.4,0.3-0.6,0.6c-0.3,0.5-0.3,1-0.1,1.4c0.2,0.5,0.5,0.8,1,1c0.5,0.2,1,0.1,1.4,0c0.4-0.1,0.8-0.3,1.2-0.5
					c0.2,0.3,0.4,0.7,0.7,1l2.4,3.9v0c0,0.1,0.1,0.1,0.2,0.2c0.2,0.1,0.5,0.1,0.7-0.2l2.9-4.9c0,0,0-0.1,0-0.1h-1.1l-2.3,3.9
					l-2.1-3.2c-0.2-0.3-0.4-0.7-0.6-1c0.1,0,0.1-0.1,0.2-0.1c0.7-0.3,1.4-0.6,2.1-0.9c2.8-1.2,5.7-2.2,8.7-2.7
					c3-0.5,6.1-0.4,9.1,0.4c0.1,0,0.2,0,0.2-0.1C280.1,17.2,280,17.1,279.9,17.1"/>
			</g>
			<g>
				<path class="st0" d="M306.8,27.7c-0.1,0.3-0.3,0.4-0.5,0.5c-0.2,0-0.6-0.1-0.8-0.3c-0.3-0.2-0.6-0.4-0.8-0.7
					c-0.1-0.1-0.2-0.2-0.3-0.3c0.2-0.1,0.4-0.2,0.7-0.3c0.3-0.1,0.7-0.2,1-0.1c0.3,0,0.5,0.2,0.7,0.5
					C306.8,27.2,306.9,27.5,306.8,27.7 M307.3,26.5c-0.3-0.4-0.7-0.7-1.2-0.8c-0.5-0.1-0.9,0-1.3,0.2c-0.3,0.1-0.6,0.2-0.8,0.4
					c-0.2-0.3-0.4-0.6-0.6-0.9l-2.5-4c0-0.1-0.1-0.1-0.2-0.2c-0.2-0.1-0.5-0.1-0.7,0.2l-2.9,4.9c0,0,0,0.1,0,0.1h1.1l2.3-3.9
					l2.1,3.3c0.2,0.3,0.4,0.6,0.6,0.9c-0.2,0.1-0.4,0.2-0.5,0.3c-0.7,0.3-1.4,0.7-2.1,1.1c-2.8,1.5-5.5,3.2-8.5,4.1
					c-3,1-6.1,1.3-9.3,1.1c-0.1,0-0.2,0.1-0.2,0.2c0,0.1,0.1,0.2,0.2,0.2c3.2,0.2,6.4,0,9.5-1c3.1-0.9,5.8-2.6,8.6-4
					c0.7-0.4,1.4-0.7,2.1-1c0.2-0.1,0.5-0.2,0.7-0.3c0.1,0.2,0.3,0.3,0.4,0.5c0.3,0.3,0.6,0.6,1,0.8c0.4,0.2,0.8,0.4,1.4,0.4
					c0.3,0,0.5-0.2,0.7-0.4c0.2-0.2,0.3-0.4,0.4-0.7C307.7,27.5,307.6,26.9,307.3,26.5"/>
			</g>
			<g>
				<path class="st0" d="M277,29.5h-0.2v0.5h0.2c0.2,0,0.3-0.1,0.3-0.2C277.2,29.6,277.1,29.5,277,29.5 M276.7,29.2h0.2
					c0.1,0,0.2-0.1,0.2-0.2c0-0.1-0.1-0.2-0.2-0.2h-0.2V29.2z M277,30.1h-0.6v-1.5h0.6c0.3,0,0.4,0.2,0.4,0.4c0,0.1-0.1,0.2-0.2,0.3
					c0.1,0.1,0.2,0.2,0.2,0.4C277.5,29.9,277.4,30.1,277,30.1"/>
			</g>
			<g>
				<path class="st0" d="M278.8,30.2c-0.4,0-0.8-0.3-0.8-0.8s0.4-0.8,0.8-0.8c0.2,0,0.4,0.1,0.5,0.1V29c-0.1-0.1-0.3-0.2-0.5-0.2
					c-0.3,0-0.5,0.2-0.5,0.5c0,0.3,0.2,0.5,0.5,0.5c0.2,0,0.4-0.1,0.5-0.2V30C279.2,30.1,279,30.2,278.8,30.2"/>
			</g>
			<g>
				<path class="st0" d="M279.9,30.5L279.9,30.5c0.1-0.1,0.1-0.2,0.1-0.3h-0.1v-0.3h0.3v0.3C280.2,30.3,280.1,30.4,279.9,30.5"/>
			</g>
			<g>
				<path class="st0" d="M282.3,30.2c-0.4,0-0.8-0.3-0.8-0.8s0.4-0.8,0.8-0.8c0.2,0,0.4,0.1,0.5,0.1V29c-0.1-0.1-0.3-0.2-0.5-0.2
					c-0.3,0-0.5,0.2-0.5,0.5c0,0.3,0.2,0.5,0.5,0.5c0.2,0,0.4-0.1,0.5-0.2V30C282.7,30.1,282.5,30.2,282.3,30.2"/>
			</g>
			<g>
				<path class="st0" d="M284,29l-0.2,0.5h0.4L284,29z M284.4,30.1l-0.1-0.4h-0.6l-0.1,0.4h-0.3l0.6-1.5h0.2l0.6,1.5H284.4z"/>
			</g>
			<g>
				<polygon class="st0" points="286.2,30.1 285.5,29.2 285.5,30.1 285.2,30.1 285.2,28.7 285.4,28.7 286.2,29.6 286.2,28.7 
					286.5,28.7 286.5,30.1 				"/>
			</g>
			<g>
				<path class="st0" d="M287.7,29l-0.2,0.5h0.4L287.7,29z M288.1,30.1l-0.1-0.4h-0.6l-0.1,0.4H287l0.6-1.5h0.2l0.6,1.5H288.1z"/>
			</g>
			<g>
				<path class="st0" d="M289.4,28.9h-0.2v1h0.2c0.4,0,0.5-0.2,0.5-0.5C290,29.1,289.8,28.9,289.4,28.9 M289.5,30.1h-0.5v-1.5h0.5
					c0.6,0,0.8,0.3,0.8,0.7C290.3,29.8,290,30.1,289.5,30.1"/>
			</g>
			<g>
				<path class="st0" d="M291.4,29l-0.2,0.5h0.4L291.4,29z M291.8,30.1l-0.1-0.4h-0.6l-0.1,0.4h-0.3l0.6-1.5h0.2l0.6,1.5H291.8z"/>
			</g>
		</g>
	</g>
</g>
</svg>
