<svg xmlns="http://www.w3.org/2000/svg" viewBox="0 0 66 66"><defs><style>.cls-1{fill:#fff;}</style></defs><title>pause</title><g id="Layer_2" data-name="Layer 2"><g id="Layer_1-2" data-name="Layer 1"><path class="cls-1" d="M33,66A33,33,0,1,1,66,33,33,33,0,0,1,33,66ZM33,1.7A31.3,31.3,0,1,0,64.3,33,31.35,31.35,0,0,0,33,1.7Z"/><path class="cls-1" d="M19,31.6c0,1.7-1.2,2.7-3,2.7H14.6v2.3H13.1V28.9h2.8C17.9,28.9,19,29.9,19,31.6Zm-1.4,0a1.32,1.32,0,0,0-1.5-1.3H14.7V33h1.4C17,32.9,17.6,32.4,17.6,31.6Z"/><path class="cls-1" d="M26.2,34.9H22.7l-.6,1.7H20.5l3.1-7.7h1.7l3.1,7.7H26.8Zm-.5-1.3-1.2-3-.1-.3-.1.3-1.2,3Z"/><path class="cls-1" d="M30.5,33.3V28.9H32v4.4a1.9,1.9,0,1,0,3.8,0V28.9h1.4v4.4a3.13,3.13,0,0,1-3.3,3.4A3.2,3.2,0,0,1,30.5,33.3Z"/><path class="cls-1" d="M40.2,34.7l1.3-.4a1.39,1.39,0,0,0,1.4,1.1q1.2,0,1.2-.9c0-.6-.3-.9-1.1-1.1l-.9-.2c-1.2-.4-1.9-1.1-1.9-2.2a2.24,2.24,0,0,1,2.5-2.2,2.47,2.47,0,0,1,2.6,1.7L44,31a1.25,1.25,0,0,0-1.3-.9c-.7,0-1.1.3-1.1.9s.4.9,1.1,1.1l.9.3a2.22,2.22,0,0,1,1.8,2.2c0,1.4-1.1,2.3-2.7,2.3A3,3,0,0,1,40.2,34.7Z"/><path class="cls-1" d="M54.1,35.2v1.3H48.8V28.8H54v1.3H50.2V32h3.6v1.2H50.2v1.9h3.9Z"/></g></g></svg>