<svg xmlns="http://www.w3.org/2000/svg" viewBox="0 0 200.69 21.94"><defs><style>.cls-1{fill:#fff;}</style></defs><g id="Layer_2" data-name="Layer 2"><g id="Layer_1-2" data-name="Layer 1"><path class="cls-1" d="M0,11.67V5H1.29v6.58c0,2.47,1.31,3.86,3.5,3.86s3.45-1.28,3.45-3.78V5h1.3v6.56c0,3.34-1.92,5.07-4.78,5.07S0,14.91,0,11.67Z"/><path class="cls-1" d="M12.38,8h1.26v1.7a3.8,3.8,0,0,1,3.24-1.88,4.12,4.12,0,0,1,4,4.38v0a4.13,4.13,0,0,1-4,4.4,3.82,3.82,0,0,1-3.24-1.8v4.24H12.38Zm7.25,4.25v0a3,3,0,0,0-3-3.27,3.14,3.14,0,0,0-3,3.25v0a3.13,3.13,0,0,0,3,3.27A3,3,0,0,0,19.63,12.26Z"/><path class="cls-1" d="M28.6,14.22V9.12H27.42V8H28.6V5.45h1.26V8h2.68V9.12H29.86v4.94a1.25,1.25,0,0,0,1.42,1.41,2.68,2.68,0,0,0,1.23-.3v1.08a3.16,3.16,0,0,1-1.52.36A2.15,2.15,0,0,1,28.6,14.22Z"/><path class="cls-1" d="M34,12.28v0a4.41,4.41,0,0,1,8.82,0v0a4.39,4.39,0,0,1-4.43,4.42A4.34,4.34,0,0,1,34,12.28Zm7.53,0v0a3.2,3.2,0,0,0-3.14-3.3,3.12,3.12,0,0,0-3.09,3.27v0a3.17,3.17,0,0,0,3.12,3.29A3.12,3.12,0,0,0,41.54,12.28Z"/><path class="cls-1" d="M58,15a2.81,2.81,0,0,1-.13,1,5.25,5.25,0,0,1-.41.94,11.36,11.36,0,0,1-1.06,1.6A8.94,8.94,0,0,1,55,19.88a5.19,5.19,0,0,1-.95.59,2.07,2.07,0,0,1-1.11.17A3.53,3.53,0,0,1,52,20.4,5.49,5.49,0,0,1,51.2,20a6.41,6.41,0,0,1-1.55-1.49,4.65,4.65,0,0,1-.89-2.25c0-.36-.07-.71-.09-1s0-.68,0-1A18.44,18.44,0,0,1,49,10.53,18.18,18.18,0,0,1,50.09,7,19.11,19.11,0,0,1,51.8,3.89c.36-.5.73-1,1.1-1.47a13.63,13.63,0,0,1,1.18-1.34A.34.34,0,0,1,54.37,1a1.16,1.16,0,0,1,.31.07,1.57,1.57,0,0,1,.49.23l.46.31A2.73,2.73,0,0,1,56,2a1.5,1.5,0,0,1,.29.48,1.46,1.46,0,0,1,.11.3.32.32,0,0,1,0,.3,11.39,11.39,0,0,0-1,1.12c-.3.39-.59.8-.89,1.22A17.8,17.8,0,0,0,53.13,8c-.25.63-.47,1.26-.66,1.9A11.16,11.16,0,0,0,51.9,12a1.38,1.38,0,0,1,.25-.19,3.72,3.72,0,0,1,.92-.49,2.83,2.83,0,0,1,1-.18,1.74,1.74,0,0,1,.68.07,3.64,3.64,0,0,1,.65.25,5,5,0,0,1,1.49,1.17,4.83,4.83,0,0,1,.73,1.09A3.4,3.4,0,0,1,58,15Zm-4,1.3a7.47,7.47,0,0,0,.69-.8,5.11,5.11,0,0,0,.54-.94,2.6,2.6,0,0,0,.22-1l-.73.32a7.47,7.47,0,0,0-.9.72,8.79,8.79,0,0,0-.77.86,9.9,9.9,0,0,0-.7,1l-.32.51-.31.5-.07.07a.64.64,0,0,1,0,.2,1,1,0,0,0,0,.24,2.24,2.24,0,0,0,.63-.28A8,8,0,0,0,54,16.27Z"/><path class="cls-1" d="M73.81,8.1a7.87,7.87,0,0,1,.25,1.37c0,.46.06.94.06,1.42a21.69,21.69,0,0,1-.28,2.69,17.2,17.2,0,0,1-.71,2.55,8.54,8.54,0,0,1-1.29,2.3,9.27,9.27,0,0,1-1.67,1.64,6.05,6.05,0,0,1-2.09,1.05,6.47,6.47,0,0,1-1.21.19,8,8,0,0,1-1.2,0,7.76,7.76,0,0,1-1.52-.42,7.64,7.64,0,0,1-1.39-.72,7.54,7.54,0,0,1-2.28-2.22,7.19,7.19,0,0,1-1.17-3,9.27,9.27,0,0,1,0-2.88,28.73,28.73,0,0,1,.57-2.85,21.42,21.42,0,0,1,.79-2.55,9.65,9.65,0,0,1,1.26-2.32,7.44,7.44,0,0,1,1.79-1.65A5.33,5.33,0,0,1,66,1.84c.23,0,.46,0,.68-.05a2.63,2.63,0,0,1,.68.05,5,5,0,0,1,1.58.5,7,7,0,0,1,1.32.87,4.29,4.29,0,0,1,1,1.22c.17.13.34.27.49.41s.31.31.46.48A6.66,6.66,0,0,1,73.81,8.1Zm-2.44,3.3c.08-.53.14-1.06.17-1.59a10.84,10.84,0,0,0,0-1.61,5.43,5.43,0,0,0-.35-1.68c0-.1-.11-.24-.19-.41A.22.22,0,0,0,70.93,6l0,0a.56.56,0,0,0,0-.08.21.21,0,0,1,0-.08l-.1-.09,0,0h0s0,0-.06,0,0,0,0,0h0l0,0-.17-.05-.18,0-.28-.05-.29,0A1.42,1.42,0,0,1,69,5.22a.35.35,0,0,0-.16-.09.31.31,0,0,1-.15-.1,3.39,3.39,0,0,1-.86-.82,3.25,3.25,0,0,0-.77.22c-.25.11-.48.22-.72.35A8,8,0,0,0,64.56,6.3a9.28,9.28,0,0,0-1.23,2.12c-.11.23-.2.48-.29.73l-.25.76a14.91,14.91,0,0,0-.38,1.46c-.11.48-.21,1-.32,1.45s-.18,1-.23,1.54a7.84,7.84,0,0,0,0,1.53c0,.3.08.58.13.84a3,3,0,0,0,.22.78.72.72,0,0,1,.09.2.51.51,0,0,0,.1.21l.09.19a0,0,0,0,0,0,0l.07.11.06.11h0s0,0,0,0,0,0,0,0,0,0,0,0,.05,0,.09.06l.11.05a.34.34,0,0,1,.11.05l.22.09.18.05a.64.64,0,0,1,.17,0,5.81,5.81,0,0,0,1.3.09,6.12,6.12,0,0,0,2.66-.82,7.79,7.79,0,0,0,1.74-1.52,7.18,7.18,0,0,0,.7-1q.31-.54.57-1.08c.19-.51.35-1,.49-1.53A10.6,10.6,0,0,0,71.37,11.4Z"/><path class="cls-1" d="M92.33,1.46a1.46,1.46,0,0,1,.11.3.31.31,0,0,1-.08.3c-.23.34-.46.66-.7,1s-.46.64-.69,1a37,37,0,0,0-2.12,3.64c-.64,1.25-1.23,2.52-1.78,3.83a.76.76,0,0,1-.12.26c-.15.35-.29.7-.43,1s-.27.69-.4,1.05c-.25.61-.49,1.23-.73,1.86l-.69,1.9-.33.95c-.12.32-.24.64-.37.95a7.31,7.31,0,0,1-.35.92.85.85,0,0,0-.08.24.9.9,0,0,1-.07.24,1,1,0,0,1-.15.39.51.51,0,0,1-.3.24l0,0,0,0a1,1,0,0,1-.53,0,3.39,3.39,0,0,1-.45-.19,6,6,0,0,1-.8-.57,4.43,4.43,0,0,1-.76-.89l-.19-.34a.51.51,0,0,1,0-.38,1.54,1.54,0,0,1,.13-.67,1.25,1.25,0,0,0,.09-.25,1.39,1.39,0,0,1,.1-.26c.08-.19.16-.37.22-.55s.14-.36.22-.55c.17-.4.34-.8.51-1.18L82,14.59c.54-1.26,1.12-2.52,1.72-3.78s1.24-2.48,1.92-3.69c.78-1.45,1.63-2.88,2.56-4.27L87,3l-1.18.12-1.08.07q-.54,0-1.08,0h-.09a2.82,2.82,0,0,1,.06.47,2.48,2.48,0,0,1,0,.67c0,.21-.09.43-.13.66s-.09.45-.14.65a5.55,5.55,0,0,1-.2.62,12.92,12.92,0,0,1-1,2.18,10.58,10.58,0,0,1-1.38,1.93,10.26,10.26,0,0,1-1,.91,1.42,1.42,0,0,1-1.2.3,3.53,3.53,0,0,1-1.19-.49,6.27,6.27,0,0,1-1-.84,4.61,4.61,0,0,1-.57-.78,2.4,2.4,0,0,1-.31-.87,3.26,3.26,0,0,1,0-1.39c.1-.47.2-.92.3-1.36s.27-.85.41-1.29.32-.85.51-1.28a8.77,8.77,0,0,1,1.13-1.88A3.7,3.7,0,0,1,79.63.16a.55.55,0,0,1,.38,0c.15.06.28.1.38.15a1.38,1.38,0,0,1,.24.14l.24.17a.27.27,0,0,0,.12,0,.28.28,0,0,1,.13,0,3.36,3.36,0,0,1,.6.28c.3,0,.6,0,.9,0a9,9,0,0,0,.91-.08L83.3,1C84.49.87,85.65.75,86.8.6S89.11.26,90.27,0a.62.62,0,0,1,.38,0A3.08,3.08,0,0,1,91,.19a1.55,1.55,0,0,1,.41.25l.35.32A3,3,0,0,1,92.33,1.46ZM80.39,5.26c.11-.26.2-.52.29-.78s.15-.52.22-.78a4.13,4.13,0,0,0,.25-1.14l-.06,0a3.81,3.81,0,0,0-1.17,1.16,10.65,10.65,0,0,0-.83,1.47c-.29.76-.55,1.52-.76,2.28l-.12.62c0,.2-.09.4-.13.62v0c.13-.13.22-.24.29-.32l.42-.49c.14-.16.27-.32.4-.49A14.09,14.09,0,0,0,80.39,5.26ZM94,12a5.44,5.44,0,0,1,.47,1.5,9.16,9.16,0,0,1,.13,1.57,5.43,5.43,0,0,1-.1,1.33,8.31,8.31,0,0,1-.35,1.3,11,11,0,0,1-.52,1.3,5.93,5.93,0,0,1-.74,1.17,6.14,6.14,0,0,1-.89,1,2.9,2.9,0,0,1-.58.45,2.34,2.34,0,0,1-.68.25,2.63,2.63,0,0,1-1.22-.11,4.56,4.56,0,0,1-1.1-.56,7.51,7.51,0,0,1-.76-.61,4,4,0,0,1-.6-.75l-.3-.52a2.28,2.28,0,0,1-.2-.59,4.33,4.33,0,0,1,0-1.39c.07-.46.15-.92.26-1.36a17.67,17.67,0,0,1,.76-2.63,15.3,15.3,0,0,1,.87-1.88,13.8,13.8,0,0,1,1.12-1.73.22.22,0,0,1,.1-.19l.15-.09.35-.4c.13-.13.26-.26.38-.36a.29.29,0,0,1,.29-.13l.31.07a1.33,1.33,0,0,1,.48.23l.44.33a3.3,3.3,0,0,1,.38.37,1.49,1.49,0,0,1,.29.46,1.29,1.29,0,0,1,.12.38,6.4,6.4,0,0,1,.65.73A4.61,4.61,0,0,1,94,12Zm-2.69,4.11a8.85,8.85,0,0,0,.5-1.83,8.08,8.08,0,0,0,.1-1.9,1.87,1.87,0,0,0,0-.27c0-.07,0-.16-.05-.27-.23.36-.45.72-.65,1.08s-.38.72-.55,1.07a18.87,18.87,0,0,0-.86,3c0,.27-.08.54-.12.79s-.08.52-.1.79a.13.13,0,0,0,0,.1,6.38,6.38,0,0,0,.86-.92,5.42,5.42,0,0,0,.5-.78A8.22,8.22,0,0,0,91.32,16.11Z"/><path class="cls-1" d="M100.7,12.28v0a4.41,4.41,0,0,1,8.82,0v0a4.4,4.4,0,0,1-4.44,4.42A4.33,4.33,0,0,1,100.7,12.28Zm7.52,0v0a3.2,3.2,0,0,0-3.14-3.3A3.12,3.12,0,0,0,102,12.21v0a3.17,3.17,0,0,0,3.13,3.29A3.11,3.11,0,0,0,108.22,12.28Z"/><path class="cls-1" d="M112.27,9.12h-1.16V8h1.16V7.29A3,3,0,0,1,113,5.11a2.53,2.53,0,0,1,1.82-.65,3.77,3.77,0,0,1,1.39.21v1.1A4.26,4.26,0,0,0,115,5.55c-1,0-1.47.59-1.47,1.8V8h2.68V9.12h-2.66v7.34h-1.26Z"/><path class="cls-1" d="M122.21,18.7l.43-1A2.66,2.66,0,0,0,124,18c.76,0,1.23-.4,1.74-1.59L121.85,8h1.39l3.08,7.05L129,8h1.34l-3.55,8.73c-.72,1.75-1.54,2.39-2.82,2.39A3.86,3.86,0,0,1,122.21,18.7Z"/><path class="cls-1" d="M131.38,12.28v0a4.41,4.41,0,0,1,8.81,0v0a4.39,4.39,0,0,1-4.43,4.42A4.33,4.33,0,0,1,131.38,12.28Zm7.52,0v0a3.2,3.2,0,0,0-3.14-3.3,3.12,3.12,0,0,0-3.09,3.27v0a3.17,3.17,0,0,0,3.12,3.29A3.12,3.12,0,0,0,138.9,12.28Z"/><path class="cls-1" d="M142.34,13.26V8h1.26V13a2.25,2.25,0,0,0,2.34,2.55,2.5,2.5,0,0,0,2.53-2.65V8h1.24v8.45h-1.24V15a3.21,3.21,0,0,1-2.89,1.65A3.08,3.08,0,0,1,142.34,13.26Z"/><path class="cls-1" d="M152.55,8h1.26v2.21a3.6,3.6,0,0,1,3.45-2.36V9.22h-.1c-1.85,0-3.35,1.32-3.35,3.87v3.37h-1.26Z"/><path class="cls-1" d="M163.59,12.26v0a4.15,4.15,0,0,1,4-4.4,3.82,3.82,0,0,1,3.24,1.8V4.52h1.26V16.46h-1.26v-1.7a3.8,3.8,0,0,1-3.24,1.88A4.12,4.12,0,0,1,163.59,12.26Zm7.33,0v0A3.14,3.14,0,0,0,167.86,9a3,3,0,0,0-3,3.25v0a3,3,0,0,0,3,3.27A3.16,3.16,0,0,0,170.92,12.24Z"/><path class="cls-1" d="M174.31,14v0c0-1.82,1.47-2.77,3.61-2.77a9,9,0,0,1,2.59.36v-.26c0-1.5-.92-2.29-2.51-2.29a5.9,5.9,0,0,0-2.57.61l-.37-1a7,7,0,0,1,3.07-.71,3.75,3.75,0,0,1,2.74.93,3.38,3.38,0,0,1,.88,2.48v5.17h-1.24V15.2a3.7,3.7,0,0,1-3,1.44C175.88,16.64,174.31,15.74,174.31,14Zm6.21-.65v-.79a8.69,8.69,0,0,0-2.47-.36c-1.57,0-2.47.69-2.47,1.7v0c0,1.07,1,1.69,2.13,1.69C179.26,15.63,180.52,14.7,180.52,13.36Z"/><path class="cls-1" d="M184.45,4.77h1.44V6.16h-1.44ZM184.53,8h1.26v8.45h-1.26Z"/><path class="cls-1" d="M188.83,4.52h1.26V16.46h-1.26Z"/><path class="cls-1" d="M192.53,18.7l.43-1a2.66,2.66,0,0,0,1.32.31c.75,0,1.23-.4,1.74-1.59L192.17,8h1.39l3.08,7.05,2.71-7h1.34l-3.55,8.73c-.72,1.75-1.53,2.39-2.81,2.39A3.83,3.83,0,0,1,192.53,18.7Z"/></g></g></svg>