<?xml version="1.0" encoding="utf-8"?>
<!-- Generator: Adobe Illustrator 27.7.0, SVG Export Plug-In . SVG Version: 6.00 Build 0)  -->
<svg version="1.1" id="Layer_1" xmlns="http://www.w3.org/2000/svg" xmlns:xlink="http://www.w3.org/1999/xlink" x="0px" y="0px"
	 viewBox="0 0 970 250" style="enable-background:new 0 0 970 250;" xml:space="preserve">
<style type="text/css">
	.st0{fill:#FFFFFF;}
</style>
<g>
	<path class="st0" d="M776,128.3c-2.2,0-3.4,1.7-3.4,3.1h7C779.3,130,778.4,128.3,776,128.3z"/>
	<path class="st0" d="M844.3,128.3c-2.2,0-3.4,1.7-3.4,3.1h7C847.7,130,846.7,128.3,844.3,128.3z"/>
	<path class="st0" d="M898.5,106h-187c-4.1,0-7.2,3.1-7.2,7.2v33.6c0,4.1,3.1,7.2,7.2,7.2h187.1c4.1,0,7.2-3.1,7.2-7.2v-33.6
		C905.7,109.1,902.6,106,898.5,106z M766.4,136.2c-1.9,2.2-4.8,3.6-8.2,3.6c-5.5,0-10.3-3.8-10.3-10.1c0-6,4.6-9.8,10.3-9.8
		c4.1,0,6.5,1.9,7.9,4.3l-3.4,1.9c-1-1.4-2.6-2.4-4.6-2.4c-3.6,0-6,2.6-6,6.2c0,3.6,2.6,6.2,6,6.2c1.7,0,3.4-0.7,4.1-1.4v-2.4h-5
		v-3.6h9.1L766.4,136.2L766.4,136.2z M782.9,133.8h-10.3c0.2,1.7,1.7,3.1,4.1,3.1c1.2,0,2.9-0.5,3.6-1.4l1.7,2.4
		c-1.4,1.2-3.6,1.9-5.8,1.9c-4.3,0-7.4-2.9-7.4-7.2c0-4.1,2.9-7.2,7.2-7.2c4.1,0,7,3.1,7,7.7L782.9,133.8L782.9,133.8z M790.1,139.8
		c-2.6,0-3.8-1.4-3.8-3.8v-7.2h-2.4v-3.1h2.4v-3.8h3.6v3.8h2.9v3.1h-2.9v6.2c0,1,0.5,1.4,1.2,1.4c0.5,0,1-0.2,1.2-0.5l0.7,2.9
		C792.8,139.6,791.8,139.8,790.1,139.8z M809.1,139.8c-4.6,0-7.4-3.4-7.4-7.2s2.9-7.2,7.4-7.2s7.4,3.4,7.4,7.2
		C816.5,136.5,813.6,139.8,809.1,139.8z M826.3,125.7v3.1h-2.9v10.8h-3.6v-10.8h-2.4v-3.1h2.4V125c0-3.1,1.9-4.8,4.8-4.8
		c1,0,1.9,0.2,2.6,0.5l-0.7,2.6c-0.2-0.2-0.7-0.2-1.2-0.2c-1,0-1.7,0.7-1.7,1.9v0.7H826.3z M835.9,123.3c-0.2-0.2-0.7-0.2-1.2-0.2
		c-1,0-1.7,0.7-1.7,1.9v0.7h2.9v3.1H833v10.8h-3.6v-10.8H827v-3.1h2.4V125c0-3.1,1.9-4.8,4.8-4.8c1,0,1.9,0.2,2.6,0.5L835.9,123.3z
		 M851.3,133.8H841c0.2,1.7,1.7,3.1,4.1,3.1c1.2,0,2.9-0.5,3.6-1.4l1.7,2.4c-1.4,1.2-3.6,1.9-5.8,1.9c-4.3,0-7.4-2.9-7.4-7.2
		c0-4.1,2.9-7.2,7.2-7.2c4.1,0,7,3.1,7,7.7L851.3,133.8L851.3,133.8z M861.8,129c-0.2,0-0.7,0-1,0c-1.2,0-2.9,0.7-3.4,1.7v8.9h-3.6
		v-13.9h3.6v1.9c1-1.2,2.6-2.2,4.3-2.2v3.6H861.8z"/>
	<path class="st0" d="M809.1,128.6c-2.2,0-3.6,1.9-3.6,4.1c0,2.2,1.2,4.1,3.6,4.1s3.6-1.9,3.6-4.1
		C812.7,130.5,811.2,128.6,809.1,128.6z"/>
</g>
<g>
	<g>
		<path class="st0" d="M33.2,98.3c1.8,1.8,4.8,3.7,8.5,3.7c3,0,4.6-1.4,4.6-3c0-2.1-2.3-2.7-5.3-3.4c-4.4-0.9-9.9-2.3-9.9-8
			c0-4.4,3.9-8,10.1-8c4.1,0,7.8,1.4,10.3,3.7L48.1,87c-2.1-2.1-5-3-7.6-3c-2.5,0-3.9,1.1-3.9,2.7c0,1.8,2.3,2.3,5.3,3
			c4.4,0.9,9.9,2.3,9.9,8.2c0,4.8-3.4,8.5-10.5,8.5c-5,0-8.7-1.6-11.2-4.1L33.2,98.3z"/>
		<path class="st0" d="M56.2,101.5V91.4H53V87h3.2v-5.3h5V87h3.9v4.4h-3.9v8.7c0,1.1,0.7,2.1,1.8,2.1c0.7,0,1.4-0.2,1.8-0.5l1.1,3.9
			c-0.7,0.7-2.1,1.1-4.1,1.1C58,106.7,56.2,104.9,56.2,101.5z"/>
		<path class="st0" d="M80,104.2c-1.4,1.6-3.7,2.5-6,2.5c-3,0-6.6-2.1-6.6-6.4c0-4.6,3.7-6.2,6.6-6.2c2.5,0,4.8,0.7,6,2.3v-2.7
			c0-1.8-1.6-3.2-4.1-3.2c-2.1,0-3.9,0.7-5.5,2.3l-1.8-3.4c2.3-2.1,5.3-3,8.5-3c4.4,0,8.5,1.8,8.5,7.3v12.4h-5v-1.8H80V104.2z
			 M80,99.2c-0.9-1.1-2.5-1.6-4.1-1.6c-2.1,0-3.7,1.1-3.7,3s1.6,2.7,3.7,2.7c1.6,0,3.2-0.5,4.1-1.6V99.2z"/>
		<path class="st0" d="M90.1,87h5v2.5c1.4-1.6,3.7-3,6.2-3v4.8c-0.5,0-0.9-0.2-1.4-0.2c-1.6,0-3.9,0.9-4.8,2.3V106h-5
			C90.1,106,90.1,87,90.1,87z"/>
		<path class="st0" d="M105.4,101.5V91.4h-3.2V87h3.2v-5.3h5V87h3.9v4.4h-3.9v8.7c0,1.1,0.7,2.1,1.8,2.1c0.7,0,1.4-0.2,1.8-0.5
			l1.1,3.9c-0.7,0.7-2.1,1.1-4.1,1.1C107.2,106.7,105.4,104.9,105.4,101.5z"/>
		<path class="st0" d="M136.8,86.6c3.9,0,6.4,1.6,7.6,3.4l-3.2,3c-0.9-1.4-2.3-2.1-4.1-2.1c-3,0-5.3,2.3-5.3,5.5s2.1,5.5,5.3,5.5
			c1.8,0,3.2-0.7,4.1-2.1l3.2,3c-1.4,1.8-3.7,3.4-7.6,3.4c-6,0-10.1-4.1-10.1-10.1C126.7,90.7,130.8,86.6,136.8,86.6z"/>
		<path class="st0" d="M146.4,96.7c0-5.5,3.9-10.1,10.1-10.1c6.4,0,10.1,4.6,10.1,10.1s-3.9,10.1-10.1,10.1
			C150.3,106.7,146.4,101.9,146.4,96.7z M161.5,96.7c0-3-1.8-5.5-4.8-5.5c-3.2,0-4.8,2.5-4.8,5.5s1.8,5.5,4.8,5.5
			S161.5,99.6,161.5,96.7z"/>
		<path class="st0" d="M169.1,96.7c0-5.5,3.9-10.1,10.1-10.1c6.4,0,10.1,4.6,10.1,10.1s-3.9,10.1-10.1,10.1
			C173,106.7,169.1,101.9,169.1,96.7z M184.2,96.7c0-3-1.8-5.5-4.8-5.5c-3.2,0-4.8,2.5-4.8,5.5s1.8,5.5,4.8,5.5
			S184.2,99.6,184.2,96.7z"/>
		<path class="st0" d="M200.5,98.7l-2.3,2.5v4.8h-5V79.7h5v15.8l7.3-8.5h6.2l-7.8,8.7l7.8,10.5h-6.4L200.5,98.7z"/>
		<path class="st0" d="M213.8,81.1c0-1.6,1.4-3,3-3s3,1.4,3,3s-1.4,3-3,3C215.2,84.3,213.8,82.9,213.8,81.1z M214.2,87h5v19.2h-5V87
			z"/>
		<path class="st0" d="M237.4,94.6c0-2.7-1.4-3.7-3.4-3.7s-3.4,1.1-4.4,2.3V106h-5V86.8h5v2.5c1.1-1.4,3.7-3,6.6-3
			c4.1,0,6.2,2.3,6.2,6.2V106h-5L237.4,94.6L237.4,94.6z"/>
		<path class="st0" d="M249.3,107.4c1.6,1.6,3.7,2.3,6,2.3c2.5,0,5.3-1.1,5.3-4.8v-1.8c-1.6,1.8-3.7,3-6,3c-4.8,0-8.5-3.4-8.5-9.9
			c0-6.2,3.7-9.9,8.5-9.9c2.3,0,4.4,0.9,6,3v-2.5h5v18.1c0,7.3-5.7,9.2-10.3,9.2c-3.2,0-5.7-0.7-8.2-2.7L249.3,107.4z M260.5,93.2
			c-0.9-1.4-2.7-2.3-4.4-2.3c-2.7,0-4.8,2.1-4.8,5.3s2.1,5.3,4.8,5.3c1.6,0,3.4-0.9,4.4-2.3V93.2z"/>
		<path class="st0" d="M281.8,91.4h-3.2V87h3.2v-1.1c0-4.1,2.7-6.6,6.4-6.6c1.4,0,2.7,0.2,3.7,0.7l-1.1,3.7
			c-0.5-0.2-1.1-0.5-1.6-0.5c-1.4,0-2.3,0.9-2.3,2.7v0.9h3.9v4.4h-3.9v14.7h-5V91.4H281.8z"/>
		<path class="st0" d="M293.5,87h5v2.5c1.4-1.6,3.7-3,6.2-3v4.8c-0.5,0-0.9-0.2-1.4-0.2c-1.6,0-3.9,0.9-4.8,2.3V106h-5L293.5,87
			L293.5,87z"/>
		<path class="st0" d="M306.6,96.7c0-5.5,3.9-10.1,10.1-10.1c6.4,0,10.1,4.6,10.1,10.1s-3.9,10.1-10.1,10.1S306.6,101.9,306.6,96.7z
			 M321.7,96.7c0-3-1.8-5.5-4.8-5.5s-4.8,2.5-4.8,5.5s1.8,5.5,4.8,5.5S321.7,99.6,321.7,96.7z"/>
		<path class="st0" d="M354.5,94.1c0-1.8-0.7-3-2.7-3c-1.8,0-3.2,1.1-3.9,2.3v12.8h-5V94.1c0-1.8-0.7-3-2.7-3
			c-1.8,0-3.2,1.1-3.9,2.3v12.8h-5V87h5v2.5c0.7-1.1,3.4-3,6.2-3c2.7,0,4.6,1.4,5.3,3.4c1.1-1.8,3.7-3.4,6.6-3.4
			c3.4,0,5.7,1.8,5.7,5.7v13.7h-5V94.1H354.5z"/>
	</g>
	<g>
		<path class="st0" d="M201.8,171.3v-19.4h3.7v1.8c1.1-1.4,2.6-2.1,4.3-2.1c3.6,0,6.2,2.7,6.2,7.4s-2.6,7.4-6.2,7.4
			c-1.7,0-3.2-0.7-4.3-2.2v7.2L201.8,171.3L201.8,171.3z M208.7,154.8c-1.2,0-2.6,0.7-3.2,1.6v5c0.6,0.9,2,1.6,3.2,1.6
			c2.1,0,3.5-1.7,3.5-4.1S210.8,154.8,208.7,154.8z"/>
		<path class="st0" d="M225.2,151.5c4.2,0,7,3.1,7,7.7v0.8h-10.4c0.2,1.8,1.7,3.3,4,3.3c1.3,0,2.9-0.5,3.8-1.4l1.6,2.4
			c-1.4,1.3-3.6,1.9-5.8,1.9c-4.3,0-7.5-2.9-7.5-7.4C217.9,154.8,220.9,151.5,225.2,151.5z M221.7,157.6h6.9c-0.1-1.3-1-3.1-3.5-3.1
			C222.9,154.5,221.9,156.2,221.7,157.6z"/>
		<path class="st0" d="M234.9,151.9h3.7v1.9c1-1.3,2.7-2.2,4.5-2.2v3.6c-0.3-0.1-0.6-0.1-1-0.1c-1.2,0-2.9,0.7-3.5,1.6v9.3h-3.7
			V151.9z"/>
		<path class="st0" d="M252.9,171.3v-19.4h3.7v1.8c1.1-1.4,2.6-2.1,4.3-2.1c3.6,0,6.2,2.7,6.2,7.4s-2.6,7.4-6.2,7.4
			c-1.7,0-3.2-0.7-4.3-2.2v7.2L252.9,171.3L252.9,171.3z M259.7,154.8c-1.2,0-2.6,0.7-3.2,1.6v5c0.6,0.9,2,1.6,3.2,1.6
			c2.1,0,3.5-1.7,3.5-4.1C263.3,156.5,261.8,154.8,259.7,154.8z"/>
		<path class="st0" d="M269,158.9c0-4,2.8-7.4,7.4-7.4c4.7,0,7.4,3.4,7.4,7.4s-2.8,7.4-7.4,7.4C271.8,166.3,269,162.9,269,158.9z
			 M280,158.9c0-2.2-1.3-4.1-3.6-4.1c-2.3,0-3.6,1.9-3.6,4.1c0,2.2,1.3,4.1,3.6,4.1S280,161.1,280,158.9z"/>
		<path class="st0" d="M286.6,151.9h3.7v1.9c1-1.3,2.7-2.2,4.5-2.2v3.6c-0.3-0.1-0.6-0.1-1-0.1c-1.2,0-2.9,0.7-3.5,1.6v9.3h-3.7
			V151.9z"/>
		<path class="st0" d="M297.8,162.5v-7.3h-2.3V152h2.3v-3.8h3.7v3.8h2.9v3.2h-2.9v6.3c0,0.9,0.5,1.5,1.3,1.5c0.6,0,1.1-0.2,1.3-0.4
			l0.8,2.8c-0.6,0.5-1.5,0.9-3.1,0.9C299.2,166.3,297.8,165,297.8,162.5z"/>
		<path class="st0" d="M306.5,147.6c0-1.2,1-2.2,2.2-2.2s2.2,1,2.2,2.2s-1,2.2-2.2,2.2S306.5,148.8,306.5,147.6z M306.9,151.9h3.7
			v14h-3.7V151.9z"/>
		<path class="st0" d="M313.3,158.9c0-4,2.8-7.4,7.4-7.4c4.7,0,7.4,3.4,7.4,7.4s-2.8,7.4-7.4,7.4
			C316.1,166.3,313.3,162.9,313.3,158.9z M324.4,158.9c0-2.2-1.3-4.1-3.6-4.1c-2.3,0-3.6,1.9-3.6,4.1c0,2.2,1.3,4.1,3.6,4.1
			S324.4,161.1,324.4,158.9z"/>
		<path class="st0" d="M340.4,157.5c0-1.9-1-2.6-2.6-2.6c-1.5,0-2.6,0.8-3.2,1.7v9.5H331v-14h3.7v1.8c0.9-1.1,2.6-2.2,4.9-2.2
			c3.1,0,4.6,1.7,4.6,4.5v9.9h-3.7v-8.6L340.4,157.5L340.4,157.5z"/>
	</g>
</g>
<g>
	<path class="st0" d="M59.4,166.3v5.4h-5.6v-5.3c-6.2-0.5-10.7-2.9-13.9-6.1l4.5-6.4c2.2,2.3,5.4,4.3,9.4,5v-9.3
		c-6.1-1.5-12.7-3.8-12.7-11.8c0-6,4.8-11.1,12.7-11.9v-5.5h5.6v5.6c4.8,0.5,8.8,2.4,12,5.3l-4.7,6.1c-2.1-1.9-4.7-3.2-7.3-3.8v8.3
		c6.1,1.6,12.9,4,12.9,12C72.3,160.4,68.1,165.4,59.4,166.3z M54.3,140.7v-7.5c-3,0.3-4.6,1.8-4.6,4C49.7,139,51.6,140,54.3,140.7z
		 M58.9,159.1c3.4-0.5,4.9-2.3,4.9-4.2c0-2.2-2.1-3.2-4.9-4V159.1z"/>
	<path class="st0" d="M86.2,165.8v-28.6l-6.5,6.7l-4.8-5l12.4-12.5h7.3v39.4H86.2z"/>
	<path class="st0" d="M106.1,156.9c2.6,0,4.8,2.2,4.8,4.8s-2.2,4.8-4.8,4.8s-4.8-2.2-4.8-4.8S103.5,156.9,106.1,156.9z"/>
	<path class="st0" d="M121.3,156.1c2.1,1.9,4.4,3,7.8,3c6.3,0,9.9-5.4,9.9-11.3V147c-1.9,2.7-5.8,5.1-10.1,5.1
		c-7.1,0-13.5-4.4-13.5-12.7c0-7.7,6.1-13.5,15.1-13.5c11.9,0,16.9,9.2,16.9,20.4c0,11.9-6.7,20.3-18.3,20.3
		c-4.8,0-8.8-1.6-11.6-4.1L121.3,156.1z M130.9,133.1c-4.5,0-6.9,3.1-6.9,5.9c0,4.2,3.5,6,7.3,6c3,0,5.8-1.4,7.7-3.7
		C138.6,137.5,136.5,133.1,130.9,133.1z"/>
	<path class="st0" d="M157.2,156.1c2.1,1.9,4.4,3,7.8,3c6.3,0,9.9-5.4,9.9-11.3V147c-1.9,2.7-5.8,5.1-10.1,5.1
		c-7.1,0-13.5-4.4-13.5-12.7c0-7.7,6.1-13.5,15.1-13.5c11.9,0,16.9,9.2,16.9,20.4c0,11.9-6.7,20.3-18.3,20.3
		c-4.8,0-8.8-1.6-11.6-4.1L157.2,156.1z M166.8,133.1c-4.5,0-6.9,3.1-6.9,5.9c0,4.2,3.5,6,7.3,6c3,0,5.8-1.4,7.7-3.7
		C174.5,137.5,172.4,133.1,166.8,133.1z"/>
</g>
</svg>
