<?xml version="1.0" encoding="utf-8"?>
<!-- Generator: Adobe Illustrator 24.0.3, SVG Export Plug-In . SVG Version: 6.00 Build 0)  -->
<svg version="1.1" id="Layer_1" xmlns="http://www.w3.org/2000/svg" xmlns:xlink="http://www.w3.org/1999/xlink" x="0px" y="0px"
	 viewBox="0 0 300 250" style="enable-background:new 0 0 300 250;" xml:space="preserve">
<style type="text/css">
	.st0{fill:#0074B5;}
	.st1{fill:#DB1A21;}
</style>
<path d="M231.2,211.9c3.1-0.8,4.7-2.4,4.7-4.8s-1.9-4-5.2-4h-11.5c-0.1,0-0.3,0.1-0.3,0.2l-4.3,17.2c0,0.1,0,0.2,0.1,0.2
	c0,0,0,0,0.1,0h7.2c0.1,0,0.3-0.1,0.3-0.2l1.6-6.4c0-0.1,0.2-0.2,0.3-0.2h1.6c0.8,0,1.2,1,1.2,1l1.1,5.6c0,0.1,0.2,0.2,0.3,0.2h7.1
	c0.3,0,0.4-0.1,0.4-0.3c0-0.3-0.5-0.6-0.6-1.1c-0.1-0.6-0.5-3.2-0.6-4c0-0.1-0.1-0.5-0.1-0.5c-0.3-1.2-1.2-2.2-2.4-2.5
	C231.8,212.2,230.9,212.1,231.2,211.9 M226.1,211.3h-1.2c-0.1,0-0.2-0.1-0.2-0.2c0,0,0-0.1,0-0.1l0.8-3.1c0-0.1,0.2-0.2,0.3-0.2h1.2
	c1,0,1.4,0.5,1.4,1.1c0.1,1.3-0.9,2.3-2.1,2.4C226.2,211.3,226.2,211.3,226.1,211.3"/>
<path d="M217,203.1h-7.2c-0.1,0-0.3,0.1-0.3,0.2l-1.5,6.1c0,0.1-0.2,0.2-0.3,0.2H204c-0.1,0-0.2-0.1-0.2-0.2c0,0,0,0,0-0.1l1.5-6.1
	c0-0.1,0-0.2-0.1-0.2c0,0,0,0-0.1,0H198c-0.1,0-0.3,0.1-0.3,0.2l-4.3,17.3c0,0.1,0,0.2,0.1,0.2c0,0,0,0,0.1,0h7.2
	c0.1,0,0.3-0.1,0.3-0.2l1.5-6.1c0-0.1,0.2-0.2,0.3-0.2h3.6c0.1,0,0.2,0.1,0.2,0.2c0,0,0,0,0,0.1l-1.5,6.1c0,0.1,0,0.2,0.1,0.2
	c0,0,0,0,0.1,0h7.2c0.1,0,0.3-0.1,0.3-0.2l4.3-17.3C217.2,203.2,217.2,203.1,217,203.1C217.1,203,217.1,203,217,203.1"/>
<path d="M259.1,203h-7.7c-0.1,0-0.3,0.1-0.4,0.2l-5.7,9.4c-0.1,0.1-0.1,0.1-0.2,0l-0.9-9.4c0-0.1-0.1-0.3-0.2-0.3h-7.4
	c-0.1,0-0.2,0.1-0.2,0.2c0,0,0,0,0,0l2.5,17.2c0,0.1,0.1,0.2,0.3,0.2h8.1c0.1,0,0.3-0.1,0.4-0.2l11.5-17.3
	C259.3,203.1,259.2,203,259.1,203"/>
<path class="st0" d="M264.9,206.1c-0.1-0.1-0.1-0.2-0.2-0.3c-0.5-0.7-1-1.4-1.6-2.1l0,0c-0.1-0.1-0.1-0.1-0.2-0.1
	c-0.1,0-0.2,0.1-0.3,0.1l-1.6,2.2c-0.3,0.4-0.4,0.8-0.5,1.3c0,0.4,0.1,0.8,0.3,1.1l0,0c1.1,1.7,1.7,3.7,1.7,5.7
	c-0.5,14.3-19.1,18.4-40.2,17.1c-11.5-0.7-21.7-3.8-28.7-8.2c-0.1,0-0.1-0.1-0.2-0.1c-0.2,0-0.4,0.2-0.4,0.4c0,0.1,0,0.2,0.1,0.3
	l0,0l0,0c7.4,5.4,18.8,9.3,31.7,10.1c22.4,1.5,41.9-3.8,42.5-19.5C267.4,211.3,266.5,208.4,264.9,206.1"/>
<path class="st1" d="M259,200L259,200c-7.4-5.7-19.1-9.8-32.4-10.6c-22.4-1.5-41.9,3.8-42.5,19.5c0,3.1,0.9,6.2,2.8,8.7
	c0,0,0,0.1,0.1,0.1c0.7,1,1.5,1.9,2.3,2.8l0,0c0.1,0.1,0.1,0.1,0.2,0.1c0.2,0,0.3-0.1,0.3-0.2l0,0l1-3.4l0,0
	c0.1-0.2,0.1-0.3,0.1-0.5c0-0.4-0.1-0.9-0.4-1.2c-1.2-1.8-1.9-3.9-1.9-6c0.5-14.3,19.1-18.4,40.2-17.1c11.9,0.7,22.5,4.1,29.5,8.8
	l0,0c0.1,0.1,0.2,0.1,0.3,0.1c0.3,0,0.5-0.2,0.5-0.5C259.2,200.3,259.1,200.1,259,200"/>
</svg>
