<?xml version="1.0" encoding="utf-8"?>
<!-- Generator: Adobe Illustrator 24.0.3, SVG Export Plug-In . SVG Version: 6.00 Build 0)  -->
<svg version="1.1" id="Layer_1" xmlns="http://www.w3.org/2000/svg" xmlns:xlink="http://www.w3.org/1999/xlink" x="0px" y="0px"
	 viewBox="0 0 300 250" style="enable-background:new 0 0 300 250;" xml:space="preserve">
<style type="text/css">
	.st0{fill:#FFFFFF;}
</style>
<path class="st0" d="M63.4,146.8c0,0.8-0.3,1.5-0.8,2c-0.6,0.5-1.3,0.8-2.1,0.8c-0.8,0-1.5-0.2-2.1-0.8c-0.5-0.5-0.8-1.2-0.8-2v-3.2
	c-0.1-1.4,1-2.7,2.4-2.8c0.2,0,0.3,0,0.5,0c0.8,0,1.5,0.2,2.1,0.8c0.5,0.5,0.8,1.2,0.8,2V146.8z M58.9,146.8
	c-0.1,0.9,0.6,1.6,1.4,1.7c0.9,0.1,1.6-0.6,1.7-1.4c0-0.1,0-0.2,0-0.3v-3.2c0.1-0.9-0.6-1.6-1.4-1.7c-0.9-0.1-1.6,0.6-1.7,1.4
	c0,0.1,0,0.2,0,0.3V146.8z"/>
<path class="st0" d="M66.2,143.7c0.4-0.5,1-0.8,1.7-0.8c1.1-0.1,2.1,0.8,2.2,2c0,0.1,0,0.3,0,0.4v3.6c0.1,0.8-1.4,0.8-1.3,0v-3.5
	c0.1-0.6-0.4-1.2-1-1.3c-0.1,0-0.1,0-0.2,0c-0.7,0-1.2,0.5-1.2,1.2c0,0,0,0.1,0,0.1v3.5c0.1,0.8-1.4,0.8-1.3,0v-5.2
	c0-0.4,0.2-0.6,0.6-0.6s0.5,0.1,0.6,0.4L66.2,143.7z"/>
<path class="st0" d="M80.2,148.8c0.1,0.9-1.4,0.9-1.3,0v-3.2h-3v3.2c0,0.4-0.3,0.6-0.6,0.7c0,0,0,0-0.1,0c-0.3,0-0.6-0.2-0.7-0.6
	c0,0,0-0.1,0-0.1v-7.4c-0.1-0.9,1.4-0.8,1.3,0v3h3v-3c0-0.3,0.3-0.6,0.6-0.7c0,0,0,0,0.1,0c0.4,0,0.7,0.3,0.7,0.6c0,0,0,0,0,0V148.8
	z"/>
<path class="st0" d="M87.6,148.6c0,0.1,0,0.2,0.1,0.2c0,0.4-0.3,0.7-0.7,0.7c-0.3,0-0.5-0.2-0.6-0.4l-1.3-2.9h-1.6v2.6
	c0.1,0.9-1.4,0.9-1.3,0v-7.3c0-0.3,0.2-0.6,0.5-0.6c0,0,0.1,0,0.1,0h2.2c0.8,0,1.5,0.2,2.1,0.7c0.5,0.5,0.8,1.2,0.8,1.9
	c0,1-0.5,2-1.5,2.4L87.6,148.6z M83.4,142.1v2.9h1.4c0.8,0.1,1.6-0.5,1.7-1.3c0-0.1,0-0.2,0-0.2c0-0.9-0.6-1.4-1.7-1.4L83.4,142.1z"
	/>
<path class="st0" d="M92.8,148.8c-0.1,0.5-0.7,0.8-1.1,0.6c-0.3-0.1-0.5-0.3-0.6-0.6l-2.1-7.1c0-0.1,0-0.2,0-0.2
	c0-0.4,0.3-0.7,0.7-0.7c0.3,0,0.6,0.2,0.7,0.5l1.7,6.1l1.7-6.1c0.1-0.3,0.3-0.5,0.6-0.5c0.4,0,0.7,0.3,0.7,0.6c0,0,0,0,0,0
	c0,0.1,0,0.1,0,0.2L92.8,148.8z"/>
<path class="st0" d="M99.6,143.5l1.4,4.4l1.4-4.4c0-0.3,0.3-0.5,0.6-0.5c0.3,0,0.6,0.3,0.6,0.6c0,0.1,0,0.1,0,0.2l-1.8,5.1
	c-0.1,0.4-0.5,0.7-0.8,0.6c-0.4,0-0.8-0.2-0.9-0.6l-1.7-5c-0.1-0.3,0-0.7,0.3-0.8c0.1,0,0.2-0.1,0.3-0.1
	C99.2,143,99.5,143.2,99.6,143.5z"/>
<path class="st0" d="M109.4,147.9c-0.3,1-1.3,1.7-2.3,1.6c-1.3,0.1-2.4-0.8-2.5-2.1c0-0.1,0-0.2,0-0.3v-1.6c0-1.4,1.1-2.5,2.5-2.5
	s2.5,1.1,2.5,2.5v0.4c0,0.3-0.2,0.6-0.6,0.6c0,0-0.1,0-0.1,0h-3v0.8c0,0.7,0.5,1.3,1.3,1.3c0.6,0,1.1-0.4,1.3-0.9
	c0.1-0.2,0.3-0.4,0.5-0.4C109.2,147.2,109.5,147.5,109.4,147.9z M105.8,145.5h2.4v-0.2c0-0.7-0.5-1.2-1.2-1.2s-1.2,0.5-1.2,1.2l0,0
	V145.5z"/>
<path class="st0" d="M112.1,143.7c0.4-0.5,1-0.8,1.7-0.8c1.1-0.1,2.1,0.8,2.2,2c0,0.1,0,0.2,0,0.4v3.6c0.1,0.8-1.4,0.8-1.3,0v-3.5
	c0.1-0.6-0.4-1.2-1-1.3c-0.1,0-0.1,0-0.2,0c-0.7,0-1.2,0.5-1.2,1.2c0,0,0,0.1,0,0.1v3.5c0.1,0.8-1.4,0.8-1.3,0v-5.2
	c0-0.3,0.2-0.6,0.4-0.6c0,0,0.1,0,0.2,0c0.3,0,0.5,0.1,0.6,0.4L112.1,143.7z"/>
<path class="st0" d="M117.4,143.1h0.7v-1.2c-0.1-0.8,1.4-0.8,1.3,0v1.2h0.7c0.7-0.1,0.7,1.2,0,1.1h-0.7v4.7c0.1,0.8-1.4,0.8-1.3,0
	v-4.7h-0.7c-0.1,0-0.3,0-0.4-0.1C116.7,143.8,116.9,143.1,117.4,143.1z"/>
<path class="st0" d="M122,140.8c0.3-0.3,0.8-0.3,1.1,0s0.3,0.8,0,1.1c-0.3,0.3-0.8,0.3-1.1,0C121.7,141.5,121.7,141.1,122,140.8
	C122,140.8,122,140.8,122,140.8z M123.2,143.6v5.2c0.1,0.8-1.4,0.8-1.3,0v-5.2c0-0.2,0.1-0.3,0.2-0.5
	C122.4,142.8,123.2,143.1,123.2,143.6L123.2,143.6z"/>
<path class="st0" d="M126.1,141.2v7.7c0.1,0.8-1.4,0.8-1.3,0v-7.7c0-0.2,0.1-0.3,0.2-0.5C125.3,140.4,126.1,140.6,126.1,141.2z"/>
<path class="st0" d="M131.4,148.8c-0.4,0.5-1,0.8-1.6,0.8c-1.2,0-2.2-0.9-2.2-2.1c0-0.1,0-0.2,0-0.4v-1.8c-0.2-1.2,0.7-2.2,1.8-2.4
	c0.1,0,0.2,0,0.4,0c0.6,0,1.2,0.3,1.6,0.8l0.1-0.3c0.1-0.3,0.3-0.4,0.6-0.4c0.4,0,0.6,0.2,0.6,0.6v5.3c0,0.3-0.2,0.6-0.5,0.6
	c0,0-0.1,0-0.1,0c-0.3,0-0.5-0.1-0.6-0.4L131.4,148.8z M130,148.4c0.4,0,0.7-0.1,1-0.4c0.2-0.3,0.3-0.6,0.3-0.9v-1.7
	c0.1-0.7-0.4-1.3-1.1-1.3c0,0-0.1,0-0.1,0c-0.6,0-1.2,0.5-1.2,1.1c0,0.1,0,0.1,0,0.2v1.8c0,0.3,0.1,0.7,0.3,0.9
	C129.4,148.3,129.7,148.4,130,148.4L130,148.4z"/>
<path class="st0" d="M134.2,143.1h0.8v-1.2c-0.1-0.8,1.4-0.8,1.3,0v1.2h0.7c0.7-0.1,0.7,1.2,0,1.1h-0.7v4.7c0.1,0.8-1.4,0.8-1.3,0
	v-4.7h-0.7c-0.1,0-0.3,0-0.4-0.1C133.6,143.8,133.8,143.1,134.2,143.1z"/>
<path class="st0" d="M138.8,140.8c0.3-0.3,0.8-0.3,1.1,0s0.3,0.8,0,1.1c-0.3,0.3-0.8,0.3-1.1,0C138.5,141.5,138.5,141.1,138.8,140.8
	C138.8,140.8,138.8,140.8,138.8,140.8z M140,143.6v5.2c0.1,0.8-1.4,0.8-1.3,0v-5.2c0-0.2,0.1-0.3,0.2-0.5
	C139.2,142.8,140.1,143.1,140,143.6L140,143.6z"/>
<path class="st0" d="M146.4,147c-0.2,1.4-1.4,2.4-2.8,2.2c-1.1-0.1-2-1-2.2-2.2v-1.6c0.2-1.4,1.4-2.4,2.8-2.2c1.1,0.1,2,1,2.2,2.2
	V147z M142.7,147.1c0,0.7,0.5,1.2,1.2,1.2s1.2-0.5,1.2-1.2v-1.8c0-0.7-0.5-1.2-1.2-1.2s-1.2,0.5-1.2,1.2V147.1z"/>
<path class="st0" d="M149.1,143.7c0.4-0.5,1-0.8,1.7-0.8c1.1-0.1,2.1,0.8,2.2,2c0,0.1,0,0.3,0,0.4v3.6c0.1,0.8-1.4,0.8-1.3,0v-3.5
	c0.1-0.6-0.4-1.2-1-1.3c-0.1,0-0.1,0-0.2,0c-0.7,0-1.2,0.5-1.2,1.2c0,0,0,0.1,0,0.1v3.5c0.1,0.8-1.4,0.8-1.3,0v-5.2
	c0-0.4,0.2-0.6,0.6-0.6s0.5,0.1,0.6,0.4L149.1,143.7z"/>
<path class="st0" d="M61.2,160.2c-0.4,0.5-1,0.8-1.6,0.8c-1.2,0-2.2-0.9-2.2-2.1c0-0.1,0-0.2,0-0.3v-1.8c-0.2-1.2,0.7-2.2,1.8-2.4
	c0.1,0,0.2,0,0.3,0c0.6,0,1.3,0.3,1.6,0.8l0.1-0.3c0.1-0.3,0.3-0.4,0.5-0.4c0.3,0,0.6,0.2,0.6,0.5c0,0.1,0,0.1,0,0.2v5.3
	c0,0.3-0.2,0.6-0.5,0.6c0,0-0.1,0-0.1,0c-0.3,0-0.5-0.1-0.5-0.4L61.2,160.2z M59.9,159.9c0.3,0,0.7-0.1,0.9-0.4
	c0.2-0.3,0.4-0.6,0.3-1v-1.7c0-0.7-0.5-1.3-1.1-1.3c0,0-0.1,0-0.1,0c-0.6,0-1.2,0.5-1.2,1.1c0,0.1,0,0.1,0,0.2v1.8
	c0,0.3,0.1,0.7,0.3,0.9C59.3,159.7,59.6,159.9,59.9,159.9L59.9,159.9z"/>
<path class="st0" d="M65.3,155.2c0.4-0.5,1-0.8,1.7-0.8c1.1-0.1,2.1,0.8,2.2,2c0,0.1,0,0.2,0,0.4v3.6c0.1,0.8-1.4,0.8-1.3,0v-3.5
	c0.1-0.6-0.4-1.2-1-1.3c-0.1,0-0.1,0-0.2,0c-0.7,0-1.2,0.5-1.2,1.2c0,0,0,0.1,0,0.1v3.5c0.1,0.8-1.4,0.8-1.3,0v-5.2
	c0-0.3,0.2-0.6,0.4-0.6c0,0,0.1,0,0.2,0c0.3,0,0.5,0.1,0.6,0.4L65.3,155.2z"/>
<path class="st0" d="M75.5,160.3c0,0.3-0.2,0.6-0.5,0.6c-0.3,0-0.5-0.2-0.6-0.4l-0.1-0.3c-0.4,0.5-1,0.8-1.6,0.8
	c-1.2,0-2.2-0.9-2.2-2.1c0-0.1,0-0.2,0-0.4v-1.8c-0.2-1.2,0.7-2.2,1.8-2.4c0.1,0,0.2,0,0.4,0c0.6,0,1.2,0.2,1.5,0.7v-2.4
	c-0.1-0.8,1.4-0.8,1.3,0V160.3z M73,159.9c0.3,0,0.7-0.1,0.9-0.4c0.2-0.3,0.4-0.6,0.3-1v-1.7c0-0.7-0.5-1.2-1.2-1.3c0,0,0,0-0.1,0
	c-0.6,0-1.2,0.5-1.2,1.1c0,0.1,0,0.1,0,0.2v1.8c0,0.3,0.1,0.7,0.3,0.9C72.4,159.8,72.7,159.9,73,159.9z"/>
<path class="st0" d="M83.5,160.2c-0.4,0.5-1,0.8-1.6,0.8c-1.2,0-2.2-0.9-2.2-2.1c0-0.1,0-0.2,0-0.4v-1.8c-0.2-1.2,0.7-2.2,1.8-2.4
	c0.1,0,0.2,0,0.4,0c0.6,0,1.3,0.3,1.6,0.8v-0.3c0.1-0.3,0.3-0.4,0.6-0.4c0.4,0,0.6,0.2,0.6,0.6v5.3c0,0.3-0.2,0.6-0.5,0.6
	c0,0,0,0-0.1,0c-0.3,0-0.5-0.1-0.6-0.4V160.2z M82.2,159.9c0.3,0,0.7-0.1,0.9-0.4c0.2-0.3,0.4-0.6,0.3-1v-1.7c0-0.7-0.5-1.3-1.1-1.3
	c0,0-0.1,0-0.1,0c-0.6,0-1.2,0.5-1.2,1.1c0,0.1,0,0.1,0,0.2v1.8c0,0.3,0.1,0.7,0.3,0.9C81.5,159.8,81.8,159.9,82.2,159.9L82.2,159.9
	z"/>
<path class="st0" d="M86.4,152.2c0.3-0.3,0.8-0.3,1.1,0s0.3,0.8,0,1.1c-0.3,0.3-0.8,0.3-1.1,0C86.1,153,86.1,152.5,86.4,152.2
	C86.4,152.2,86.4,152.2,86.4,152.2z M87.6,155.1v5.2c0.1,0.8-1.4,0.8-1.3,0v-5.2c0-0.2,0.1-0.3,0.2-0.5c0.3-0.3,0.7-0.2,0.9,0
	C87.6,154.8,87.6,154.9,87.6,155.1z"/>
<path class="st0" d="M90.4,155.3c0.3-0.5,0.8-0.8,1.4-0.9c0.3,0,0.6,0.2,0.6,0.6c0,0,0,0,0,0c0,0.3-0.2,0.6-0.5,0.6c0,0,0,0,0,0
	c-0.7,0-1.3,0.6-1.3,1.3c0,0,0,0,0,0.1v3.4c0.1,0.8-1.4,0.8-1.3,0v-5.2c0-0.3,0.2-0.6,0.4-0.6c0,0,0.1,0,0.2,0
	c0.3,0,0.5,0.1,0.6,0.4L90.4,155.3z"/>
<path class="st0" d="M100.8,159.2c-0.2,1.1-1.3,1.9-2.4,1.8c-1.3,0.1-2.4-0.9-2.5-2.2c0-0.1,0-0.2,0-0.4v-1.6
	c-0.1-1.3,0.9-2.4,2.2-2.5c0.1,0,0.2,0,0.4,0c1.1-0.1,2.1,0.6,2.4,1.7c0.1,0.3-0.1,0.7-0.4,0.8c-0.1,0-0.1,0-0.2,0
	c-0.3,0-0.5-0.2-0.6-0.4c-0.1-0.5-0.6-0.9-1.2-0.9c-0.7,0-1.2,0.5-1.2,1.1c0,0.1,0,0.1,0,0.2v1.8c-0.1,0.7,0.4,1.2,1.1,1.3
	c0.1,0,0.1,0,0.2,0c0.6,0,1.1-0.4,1.2-1c0-0.3,0.3-0.5,0.6-0.4c0.3,0,0.6,0.2,0.6,0.6C100.9,159.1,100.9,159.2,100.8,159.2z"/>
<path class="st0" d="M107.1,158.5c-0.2,1.4-1.4,2.4-2.8,2.2c-1.1-0.1-2-1-2.2-2.2v-1.6c-0.2-1.4,0.8-2.6,2.2-2.8
	c1.4-0.2,2.6,0.8,2.8,2.2c0,0.2,0,0.4,0,0.6V158.5z M103.4,158.6c0,0.7,0.5,1.2,1.2,1.2s1.2-0.5,1.2-1.2v-1.8c0-0.7-0.5-1.2-1.2-1.2
	s-1.2,0.5-1.2,1.2V158.6z"/>
<path class="st0" d="M109.8,155.2c0.4-0.5,1-0.8,1.7-0.8c1.1-0.1,2.1,0.8,2.2,2c0,0.1,0,0.2,0,0.4v3.6c0.1,0.8-1.4,0.8-1.3,0v-3.5
	c0.1-0.6-0.4-1.2-1-1.3c-0.1,0-0.1,0-0.2,0c-0.7,0-1.2,0.5-1.2,1.2c0,0,0,0.1,0,0.1v3.5c0.1,0.8-1.4,0.8-1.3,0v-5.2
	c0-0.3,0.2-0.6,0.4-0.6c0,0,0.1,0,0.2,0c0.3,0,0.5,0.1,0.6,0.4L109.8,155.2z"/>
<path class="st0" d="M120,160.3c0,0.3-0.2,0.6-0.5,0.6c-0.3,0-0.5-0.2-0.6-0.4v-0.3c-0.4,0.5-1,0.8-1.6,0.8c-1.2,0-2.2-0.9-2.2-2.1
	c0-0.1,0-0.2,0-0.4v-1.8c-0.2-1.2,0.7-2.2,1.8-2.4c0.1,0,0.2,0,0.4,0c0.6,0,1.2,0.2,1.5,0.7v-2.4c-0.1-0.8,1.4-0.8,1.3,0L120,160.3z
	 M117.5,159.9c0.3,0,0.7-0.1,0.9-0.4c0.2-0.3,0.4-0.6,0.3-1v-1.7c0-0.7-0.5-1.3-1.1-1.3c0,0-0.1,0-0.1,0c-0.6,0-1.2,0.5-1.2,1.1
	c0,0.1,0,0.1,0,0.2v1.8c0,0.3,0.1,0.7,0.3,0.9C116.8,159.7,117.1,159.9,117.5,159.9L117.5,159.9z"/>
<path class="st0" d="M121.7,152.2c0.3-0.3,0.8-0.3,1.1,0s0.3,0.8,0,1.1c-0.3,0.3-0.8,0.3-1.1,0C121.4,153,121.4,152.5,121.7,152.2
	C121.7,152.2,121.7,152.2,121.7,152.2z M122.9,155.1v5.2c0.1,0.8-1.4,0.8-1.3,0v-5.2c0-0.4,0.3-0.7,0.7-0.7S122.9,154.7,122.9,155.1
	L122.9,155.1z"/>
<path class="st0" d="M124.6,154.6h0.7v-1.2c-0.1-0.8,1.4-0.8,1.3,0v1.2h0.7c0.7-0.1,0.7,1.1,0,1.1h-0.7v4.6c0.1,0.8-1.4,0.8-1.3,0
	v-4.6h-0.7c-0.1,0-0.3-0.1-0.4-0.1C123.9,155.2,124.1,154.5,124.6,154.6z"/>
<path class="st0" d="M129.1,152.2c0.3-0.3,0.8-0.3,1.1,0s0.3,0.8,0,1.1c-0.3,0.3-0.8,0.3-1.1,0C128.8,153,128.8,152.5,129.1,152.2
	C129.1,152.2,129.1,152.2,129.1,152.2z M130.3,155.1v5.2c0.1,0.8-1.4,0.8-1.3,0v-5.2c0-0.4,0.3-0.7,0.7-0.7
	C130,154.4,130.3,154.7,130.3,155.1L130.3,155.1z"/>
<path class="st0" d="M136.8,158.5c0.2,1.4-0.8,2.6-2.2,2.8c-1.4,0.2-2.6-0.8-2.8-2.2c0-0.2,0-0.4,0-0.6v-1.6
	c-0.2-1.4,0.8-2.6,2.2-2.8c1.4-0.2,2.6,0.8,2.8,2.2c0,0.2,0,0.4,0,0.6V158.5z M133,158.6c0,0.7,0.5,1.2,1.2,1.2s1.2-0.5,1.2-1.2
	v-1.8c0-0.7-0.5-1.2-1.2-1.2s-1.2,0.5-1.2,1.2V158.6z"/>
<path class="st0" d="M139.4,155.2c0.4-0.5,1-0.8,1.7-0.8c1.1,0,2.1,0.8,2.2,2c0,0.1,0,0.2,0,0.4v3.6c0.1,0.8-1.4,0.8-1.3,0v-3.5
	c0.1-0.6-0.4-1.2-1-1.3c-0.1,0-0.1,0-0.2,0c-0.7,0-1.2,0.5-1.2,1.2c0,0,0,0.1,0,0.1v3.5c0.1,0.8-1.4,0.8-1.3,0v-5.2
	c0-0.4,0.2-0.6,0.6-0.6s0.5,0.1,0.6,0.4L139.4,155.2z"/>
<path class="st0" d="M144.9,152.2c0.3-0.3,0.8-0.3,1.1,0s0.3,0.8,0,1.1c-0.3,0.3-0.8,0.3-1.1,0C144.6,153,144.6,152.5,144.9,152.2
	C144.9,152.2,144.9,152.2,144.9,152.2z M146.1,155.1v5.2c0.1,0.8-1.4,0.8-1.3,0v-5.2c0-0.2,0.1-0.3,0.2-0.5
	C145.3,154.2,146.1,154.5,146.1,155.1z"/>
<path class="st0" d="M148.9,155.2c0.4-0.5,1-0.8,1.7-0.8c1.1,0,2.1,0.8,2.2,2c0,0.1,0,0.2,0,0.4v3.6c0.1,0.8-1.4,0.8-1.3,0v-3.5
	c0.1-0.6-0.4-1.2-1-1.3c-0.1,0-0.1,0-0.2,0c-0.7,0-1.2,0.5-1.2,1.2c0,0,0,0.1,0,0.1v3.5c0.1,0.8-1.4,0.8-1.3,0v-5.2
	c0-0.4,0.2-0.6,0.6-0.6s0.5,0.1,0.6,0.4L148.9,155.2z"/>
<path class="st0" d="M158,154.9c0-0.3,0.3-0.5,0.5-0.4c0,0,0,0,0,0c0.4,0,0.6,0.2,0.6,0.6v6.1c-0.2,1.4-1.5,2.4-2.9,2.2
	c-0.8-0.1-1.5-0.5-1.9-1.2c-0.2-0.3-0.1-0.7,0.2-0.8c0.1,0,0.2-0.1,0.3-0.1c0.2,0,0.5,0.2,0.6,0.4c0.1,0.3,0.3,0.5,0.6,0.6
	c0.2,0.1,0.4,0.1,0.6,0.1c0.6,0.1,1.2-0.4,1.2-1c0-0.1,0-0.1,0-0.2V160c-0.4,0.4-1,0.7-1.5,0.7c-1.2,0-2.2-0.9-2.2-2
	c0-0.1,0-0.2,0-0.4v-1.5c-0.2-1.2,0.7-2.2,1.8-2.4c0.1,0,0.2,0,0.4,0c0.6,0,1.3,0.3,1.6,0.8L158,154.9z M156.6,159.6
	c0.3,0,0.7-0.1,0.9-0.4c0.2-0.3,0.3-0.6,0.3-0.9v-1.5c0-0.7-0.5-1.3-1.1-1.3c0,0-0.1,0-0.1,0c-0.6,0-1.2,0.5-1.2,1.1
	c0,0.1,0,0.1,0,0.2v1.6c0,0.3,0.1,0.7,0.3,0.9C156,159.5,156.3,159.6,156.6,159.6L156.6,159.6z"/>
<g>
	<path class="st0" d="M201,152.5l-10.9-10.7c-0.2-0.2-0.6-0.2-0.9,0l-10.9,10.7l-1.6-1.5l12.9-12.5l6.3,6.1l3.5,3.4l0,0l3.1,3
		L201,152.5z M198.5,164.6h-17.8v-12.8l1.6-1.5h9.9c0.3,0,0.6-0.3,0.6-0.6c0-0.3-0.3-0.6-0.6-0.6h-8.6l6.1-6l8.9,8.7L198.5,164.6z
		 M197,141.5h2.3v4.7l-2.3-2.2V141.5z M203.9,150.6l-3.3-3.2v-6.5c0-0.3-0.3-0.6-0.6-0.6h-3.5c-0.3,0-0.6,0.3-0.6,0.6v1.9l-5.7-5.5
		c-0.2-0.2-0.6-0.2-0.8,0c0,0,0,0,0,0l-13.8,13.4c-0.1,0.1-0.2,0.3-0.2,0.4c0,0.2,0.1,0.3,0.2,0.4l2.5,2.3c0.2,0.2,0.6,0.2,0.9,0
		l0.8-0.8v12.2c0,0.3,0.3,0.6,0.6,0.6h19.1c0.3,0,0.6-0.3,0.6-0.6V153l0.8,0.8c0.1,0.1,0.3,0.2,0.4,0.2c0.2,0,0.3-0.1,0.4-0.2
		l2.5-2.3C204.2,151.2,204.2,150.9,203.9,150.6C203.9,150.6,203.9,150.6,203.9,150.6"/>
	<path class="st0" d="M194.8,149.5c0,0,0-0.1,0-0.1c0,0,0-0.1-0.1-0.1l-0.1-0.1l-0.1-0.1h-0.1h-0.1h-0.2H194h-0.1l-0.1,0.1l-0.1,0.1
		c0,0,0,0.1-0.1,0.1c0,0,0,0.1,0,0.1c0,0.1,0,0.2,0,0.2c0,0,0,0.1,0,0.1c0,0,0,0.1,0.1,0.1l0.1,0.1c0.1,0.1,0.3,0.2,0.4,0.2h0.1h0.1
		l0.1-0.1l0.1-0.1l0.1-0.1c0,0,0-0.1,0.1-0.1c0,0,0-0.1,0-0.1C194.9,149.7,194.9,149.7,194.8,149.5"/>
	<path class="st0" d="M189.7,162.8c-3,0-5.4-2.4-5.4-5.4c0-3,2.4-5.4,5.4-5.4c3,0,5.4,2.4,5.4,5.4c0,0,0,0,0,0
		C195.1,160.4,192.6,162.8,189.7,162.8C189.7,162.8,189.7,162.8,189.7,162.8 M189.7,150.8c-3.7,0-6.6,3-6.6,6.6c0,3.7,3,6.6,6.6,6.6
		c3.7,0,6.6-3,6.6-6.6S193.3,150.8,189.7,150.8C189.7,150.8,189.7,150.8,189.7,150.8"/>
	<path class="st0" d="M192.3,159.8L192.3,159.8l-0.2,0.2c-0.1,0.1-0.2,0.2-0.3,0.3c-0.2-0.1-0.4-0.2-0.5-0.4
		c-0.4-0.5-0.7-1.1-0.9-1.7c0.6,0.1,1.2,0.4,1.7,0.9c0.2,0.1,0.3,0.3,0.4,0.5C192.5,159.7,192.4,159.8,192.3,159.8 M191.3,154.8
		c0.1-0.2,0.3-0.3,0.5-0.4c0.1,0.1,0.2,0.2,0.3,0.3l0.1,0.1l0.1,0.1c0.1,0.1,0.2,0.2,0.3,0.3c-0.1,0.2-0.2,0.4-0.4,0.5
		c-0.5,0.4-1.1,0.7-1.7,0.9C190.6,155.9,190.9,155.3,191.3,154.8 M187.2,155.7c-0.2-0.1-0.3-0.3-0.4-0.5c0.1-0.1,0.2-0.2,0.3-0.3
		l0.1-0.1c0,0,0.1-0.1,0.1-0.1c0.1-0.1,0.2-0.2,0.3-0.3c0.2,0.1,0.4,0.2,0.5,0.4c0.4,0.5,0.7,1.1,0.9,1.7
		C188.2,156.4,187.6,156.1,187.2,155.7 M188,159.8c-0.1,0.2-0.3,0.3-0.5,0.4c-0.1-0.1-0.2-0.2-0.3-0.3l-0.1-0.1l-0.1-0.1
		c-0.1-0.1-0.2-0.2-0.3-0.3c0.1-0.2,0.2-0.4,0.4-0.5c0.5-0.4,1.1-0.7,1.7-0.9C188.7,158.8,188.4,159.4,188,159.8 M191.9,157.3
		c0.4-0.2,0.8-0.5,1.2-0.8c0.4-0.3,0.7-0.8,0.7-1.4c0-0.5-0.3-0.9-0.6-1.2l-0.1-0.1l-0.1-0.1c-0.3-0.4-0.7-0.6-1.2-0.6l0,0
		c-0.5,0-1,0.3-1.4,0.7c-0.3,0.3-0.6,0.7-0.8,1.2c-0.2-0.4-0.5-0.8-0.8-1.2c-0.3-0.4-0.8-0.7-1.4-0.7l0,0c-0.5,0-0.9,0.3-1.2,0.6
		l-0.1,0.1l-0.1,0.1c-0.4,0.3-0.6,0.7-0.6,1.2c0,0.5,0.3,1,0.7,1.4c0.3,0.3,0.7,0.6,1.2,0.8c-0.4,0.2-0.8,0.5-1.2,0.8
		c-0.4,0.3-0.7,0.8-0.7,1.4c0,0.5,0.3,0.9,0.6,1.2l0.1,0.1l0.1,0.1c0.3,0.4,0.7,0.6,1.2,0.6l0,0c0.5-0.1,1-0.3,1.4-0.7
		c0.3-0.3,0.6-0.7,0.8-1.2c0.2,0.4,0.5,0.8,0.8,1.2c0.3,0.4,0.8,0.7,1.4,0.7l0,0c0.5,0,0.9-0.3,1.2-0.6l0.1-0.1l0.1-0.1
		c0.4-0.3,0.6-0.7,0.6-1.2c0-0.5-0.3-1-0.7-1.4C192.7,157.8,192.3,157.5,191.9,157.3"/>
	<path class="st0" d="M226.5,144.2c-0.3,0.1-0.4,0.4-0.3,0.6s0.4,0.4,0.6,0.3c0.9-0.3,1.9-0.3,2.8,0c0.3,0.1,0.5,0,0.6-0.3
		s0-0.5-0.3-0.6C228.9,143.8,227.7,143.8,226.5,144.2"/>
	<path class="st0" d="M231.2,143.2c0.2,0,0.4-0.2,0.5-0.4c0.1-0.2-0.1-0.4-0.2-0.6c-2-1-4.4-1-6.4,0c-0.2,0.1-0.3,0.4-0.2,0.7
		c0.1,0.2,0.4,0.3,0.6,0.2c1.7-0.9,3.8-0.9,5.5,0C231.1,143.1,231.2,143.1,231.2,143.2"/>
	<path class="st0" d="M232.6,141.2c0.3,0,0.5-0.2,0.5-0.5c0-0.2-0.1-0.3-0.2-0.4c-2.8-1.7-6.4-1.7-9.3,0c-0.2,0.1-0.3,0.4-0.2,0.7
		c0,0,0,0,0,0c0.1,0.2,0.4,0.3,0.7,0.2c0,0,0,0,0,0c2.5-1.5,5.7-1.5,8.2,0C232.5,141.2,232.6,141.2,232.6,141.2"/>
	<path class="st0" d="M242.2,154.4c0,0.8-0.7,1.5-1.5,1.5c0,0,0,0,0,0v-1c0-0.8-0.7-1.5-1.5-1.5h-21.9c-0.8,0-1.5,0.7-1.5,1.5v1
		c-0.8,0-1.5-0.7-1.5-1.5c0,0,0,0,0,0v-5.5c0-0.8,0.7-1.5,1.5-1.5c0,0,0,0,0,0h24.9c0.8,0,1.5,0.7,1.5,1.5c0,0,0,0,0,0L242.2,154.4z
		 M234.8,155.9v-1.5h4.5c0.3,0,0.5,0.2,0.5,0.5v1L234.8,155.9z M221.8,155.9h-5v-1c0-0.3,0.2-0.5,0.5-0.5h4.5L221.8,155.9z
		 M233.8,155.9h-5v-1.5h5V155.9z M227.8,155.9h-5v-1.5h5V155.9z M240.8,146.4h-24.9c-1.4,0-2.5,1.1-2.5,2.5v5.5
		c0,1.4,1.1,2.5,2.5,2.5h24.9c1.4,0,2.5-1.1,2.5-2.5v-5.5C243.2,147.5,242.1,146.4,240.8,146.4"/>
	<path class="st0" d="M228.3,158.4c-0.3,0-0.5,0.2-0.5,0.5v5.3l-1.2-1.2c-0.2-0.2-0.5-0.1-0.7,0.1c-0.1,0.2-0.1,0.4,0,0.6l2,2
		c0.2,0.2,0.5,0.2,0.7,0c0,0,0,0,0,0l2-2c0.2-0.2,0.2-0.5,0-0.7s-0.5-0.2-0.7,0l-1.1,1.1v-5.3C228.8,158.6,228.6,158.4,228.3,158.4"
		/>
	<path class="st0" d="M234.2,158.7c-0.1-0.3-0.4-0.4-0.6-0.3c0,0,0,0,0,0c-0.3,0.1-0.4,0.4-0.3,0.6c0.5,1.6,1.7,2.8,3.1,3.6
		l-1.4,0.6c-0.2,0.1-0.4,0.4-0.3,0.6c0,0,0,0,0,0c0.1,0.3,0.4,0.4,0.7,0.3c0,0,0,0,0,0l2.6-1.2c0.3-0.1,0.4-0.4,0.3-0.7c0,0,0,0,0,0
		l-1.1-2.6c-0.1-0.2-0.2-0.3-0.4-0.3c-0.2,0-0.4,0.1-0.5,0.2c-0.1,0.2-0.1,0.4,0,0.5l0.7,1.6C235.7,161.2,234.7,160.1,234.2,158.7"
		/>
	<path class="st0" d="M220.1,159.5c-0.3-0.1-0.5,0-0.7,0.3c0,0,0,0,0,0l-1.1,2.6c-0.1,0.3,0,0.5,0.2,0.7l2.6,1.1
		c0.3,0.1,0.6,0,0.7-0.3c0.1-0.3,0-0.6-0.3-0.7l-1.4-0.6c1.5-0.7,2.6-2,3.1-3.6c0.1-0.3-0.1-0.5-0.3-0.6c-0.3-0.1-0.5,0-0.6,0.3
		c0,0,0,0,0,0c-0.5,1.3-1.4,2.4-2.7,3l0.7-1.6C220.4,159.9,220.3,159.6,220.1,159.5"/>
	<path class="st0" d="M229.8,151.4h-3c-0.3,0-0.5,0.2-0.5,0.5s0.2,0.5,0.5,0.5h3c0.3,0,0.5-0.2,0.5-0.5S230,151.4,229.8,151.4"/>
</g>
</svg>
