<?xml version="1.0" encoding="utf-8"?>
<!-- Generator: Adobe Illustrator 24.0.3, SVG Export Plug-In . SVG Version: 6.00 Build 0)  -->
<svg version="1.1" id="Layer_1" xmlns="http://www.w3.org/2000/svg" xmlns:xlink="http://www.w3.org/1999/xlink" x="0px" y="0px"
	 viewBox="0 0 300 250" style="enable-background:new 0 0 300 250;" xml:space="preserve">
<path d="M33.7,216.9v4.1h2v0.5h-2.5v-4.6H33.7z"/>
<path d="M36.6,217.5c-0.2,0-0.3-0.1-0.3-0.3c0-0.1,0-0.2,0.1-0.2c0.1-0.1,0.3-0.1,0.5,0c0.1,0.1,0.1,0.2,0.1,0.3
	C36.9,217.3,36.7,217.5,36.6,217.5z M36.3,218.1h0.5v3.4h-0.5V218.1z"/>
<path d="M38.3,221.5h-0.5v-3.4h0.4l0.1,0.4c0.2-0.3,0.5-0.5,0.9-0.5c0.4,0,0.8,0.2,1,0.6c0.2-0.4,0.6-0.7,1-0.6
	c0.6,0,1.1,0.5,1.2,1.1c0,0.1,0,0.1,0,0.2v2.2h-0.5v-2.2c0-0.4-0.3-0.7-0.6-0.8c0,0-0.1,0-0.1,0c-0.4,0-0.8,0.3-0.8,0.8c0,0,0,0,0,0
	v2.2h-0.5v-2.2c0-0.4-0.3-0.7-0.6-0.8c0,0-0.1,0-0.1,0c-0.4,0-0.8,0.3-0.8,0.8c0,0,0,0,0,0.1L38.3,221.5z"/>
<path d="M43.6,217.5c-0.2,0-0.3-0.1-0.3-0.3c0-0.1,0-0.2,0.1-0.2c0.1-0.1,0.3-0.1,0.5,0c0.1,0.1,0.1,0.2,0.1,0.3
	C44,217.3,43.8,217.5,43.6,217.5z M43.4,218.1h0.5v3.4h-0.5V218.1z"/>
<path d="M44.6,218.6v-0.4h0.7v-0.9h0.5v0.9h0.7v0.4h-0.7v3h-0.5v-3H44.6z"/>
<path d="M49,220.4h0.5l0,0c0,0.6-0.5,1.2-1.1,1.2c0,0-0.1,0-0.1,0c-0.7,0.1-1.2-0.4-1.3-1.1c0-0.1,0-0.1,0-0.2v-1
	c-0.1-0.7,0.5-1.3,1.2-1.4s1.3,0.5,1.4,1.2c0,0.1,0,0.2,0,0.2v0.5h-2v0.5c0,0.4,0.3,0.8,0.7,0.8c0,0,0.1,0,0.1,0
	C48.6,221.2,49,220.9,49,220.4C49,220.5,49,220.4,49,220.4L49,220.4z M47.4,219.5H49v-0.2c0-0.4-0.4-0.8-0.8-0.8s-0.8,0.4-0.8,0.8
	V219.5z"/>
<path d="M52.5,221.5l-0.1-0.4c-0.2,0.3-0.6,0.5-0.9,0.5c-0.6,0-1.2-0.5-1.2-1.1c0-0.1,0-0.1,0-0.2v-1c-0.1-0.6,0.3-1.2,0.9-1.3
	c0.1,0,0.2,0,0.3,0c0.3,0,0.7,0.1,0.9,0.4v-1.6h0.5v4.7L52.5,221.5z M52.4,220.3v-1c0-0.4-0.3-0.8-0.7-0.8c0,0-0.1,0-0.1,0
	c-0.4,0-0.7,0.3-0.8,0.7c0,0,0,0.1,0,0.1v1.1c0,0.4,0.2,0.7,0.6,0.8c0,0,0.1,0,0.1,0C52,221.1,52.3,220.8,52.4,220.3
	C52.4,220.3,52.4,220.3,52.4,220.3z"/>
<path d="M54.9,218.6v-0.4h0.7v-0.9h0.5v0.9h0.7v0.4h-0.7v3h-0.5v-3H54.9z"/>
<path d="M57.7,217.5c-0.2,0-0.3-0.1-0.3-0.3c0-0.1,0-0.2,0.1-0.2c0.1-0.1,0.3-0.1,0.5,0c0.1,0.1,0.1,0.2,0.1,0.3
	C58,217.3,57.9,217.5,57.7,217.5z M57.5,218.1H58v3.4h-0.5L57.5,218.1z"/>
<path d="M59.5,221.5H59v-3.4h0.4l0.1,0.4c0.2-0.3,0.5-0.5,0.9-0.5c0.4,0,0.8,0.2,1,0.6c0.2-0.4,0.6-0.7,1-0.6c0.6,0,1.1,0.4,1.2,1.1
	c0,0.1,0,0.1,0,0.2v2.2H63v-2.2c0-0.4-0.3-0.7-0.6-0.8c0,0-0.1,0-0.1,0c-0.4,0-0.8,0.3-0.8,0.8c0,0,0,0,0,0v2.2H61v-2.2
	c0-0.4-0.3-0.7-0.6-0.8c0,0-0.1,0-0.1,0c-0.4,0-0.8,0.3-0.8,0.8c0,0,0,0,0,0.1V221.5z"/>
<path d="M66.5,220.4H67l0,0c0,0.6-0.5,1.2-1.1,1.2c0,0-0.1,0-0.1,0c-0.7,0.1-1.2-0.4-1.3-1.1c0-0.1,0-0.1,0-0.2v-1
	c0-0.7,0.5-1.3,1.2-1.3c0,0,0.1,0,0.1,0c0.7,0,1.3,0.5,1.3,1.1c0,0.1,0,0.2,0,0.2v0.5h-2.1v0.5c0,0.4,0.3,0.8,0.7,0.8
	c0,0,0.1,0,0.1,0c0.4,0,0.7-0.2,0.8-0.6C66.5,220.5,66.5,220.5,66.5,220.4L66.5,220.4z M64.9,219.5h1.6v-0.2c0-0.4-0.3-0.8-0.7-0.9
	s-0.8,0.3-0.9,0.7c0,0.1,0,0.1,0,0.2V219.5z"/>
<path d="M71.8,220.3c0.1,0.7-0.5,1.4-1.2,1.4s-1.4-0.5-1.4-1.2c0-0.1,0-0.2,0-0.2v-0.9c-0.1-0.7,0.5-1.4,1.2-1.4s1.4,0.5,1.4,1.2
	c0,0.1,0,0.2,0,0.2V220.3z M69.7,220.3c0,0.4,0.3,0.8,0.7,0.9s0.8-0.3,0.9-0.7c0-0.1,0-0.1,0-0.2v-1c0-0.4-0.3-0.8-0.7-0.9
	s-0.8,0.3-0.9,0.7c0,0.1,0,0.1,0,0.2V220.3z"/>
<path d="M72.4,218.6v-0.4h0.6V218c-0.1-0.5,0.3-1.1,0.8-1.2c0.1,0,0.2,0,0.3,0h0.3v0.4h-0.3c-0.4,0-0.7,0.2-0.7,0.7v0.2h0.9v0.4
	h-0.9v3h-0.5v-3L72.4,218.6z"/>
<path d="M74.7,218.6v-0.4h0.5V218c-0.1-0.5,0.3-1.1,0.8-1.2c0.1,0,0.2,0,0.3,0h0.3v0.4h-0.3c-0.4,0-0.7,0.2-0.7,0.7v0.2h0.9v0.4
	h-0.9v3h-0.5v-3L74.7,218.6z"/>
<path d="M79.2,220.4h0.5l0,0c0,0.6-0.5,1.2-1.1,1.2c0,0-0.1,0-0.1,0c-0.7,0.1-1.2-0.4-1.3-1.1c0-0.1,0-0.1,0-0.2v-1
	c-0.1-0.7,0.5-1.3,1.1-1.3c0.1,0,0.1,0,0.2,0c0.7,0,1.2,0.5,1.3,1.2c0,0.1,0,0.1,0,0.2v0.5h-2.1v0.5c0,0.4,0.3,0.8,0.7,0.8
	c0,0,0.1,0,0.1,0c0.4,0,0.7-0.2,0.8-0.6C79.2,220.5,79.2,220.4,79.2,220.4L79.2,220.4z M77.6,219.5h1.6v-0.2c0-0.4-0.3-0.8-0.7-0.9
	s-0.8,0.3-0.9,0.7c0,0.1,0,0.1,0,0.2V219.5z"/>
<path d="M81.1,221.5h-0.5v-3.4H81l0.1,0.4c0.2-0.3,0.5-0.6,0.9-0.6h0.2v0.5H82c-0.4,0-0.8,0.3-0.8,0.7c0,0,0,0.1,0,0.1L81.1,221.5z"
	/>
<path d="M83.2,221.3c0,0.2-0.2,0.4-0.4,0.4c-0.2,0-0.3-0.2-0.3-0.4l0,0C82.4,220.8,83.2,220.8,83.2,221.3z"/>
<path d="M88,220.1h0.5v0.1c0,0.4-0.1,0.7-0.4,1c-0.6,0.5-1.5,0.5-2.2,0c-0.3-0.3-0.4-0.7-0.4-1.1v-1.8c0-0.4,0.1-0.8,0.4-1.1
	c0.6-0.5,1.5-0.5,2.2,0c0.3,0.3,0.4,0.6,0.4,1v0.1H88v-0.1c0-0.5-0.4-0.9-0.9-0.9c0,0-0.1,0-0.1,0c-0.5-0.1-0.9,0.3-1,0.8
	c0,0.1,0,0.1,0,0.2v1.8c-0.1,0.5,0.3,0.9,0.8,1c0.1,0,0.1,0,0.2,0c0.5,0.1,0.9-0.3,1-0.8c0,0,0-0.1,0-0.1V220.1z"/>
<path d="M89.4,216.8h0.5v4.7h-0.5V216.8z"/>
<path d="M91.2,217.5c-0.2,0-0.3-0.1-0.3-0.3c0-0.1,0-0.2,0.1-0.2c0.1-0.1,0.3-0.1,0.5,0c0.1,0.1,0.1,0.2,0.1,0.3
	C91.5,217.3,91.4,217.5,91.2,217.5z M91,218.1h0.5v3.4H91L91,218.1z"/>
<path d="M94.5,220.4H95v0.1c0,0.6-0.5,1.2-1.1,1.2c-0.1,0-0.1,0-0.2,0c-0.7,0-1.3-0.5-1.3-1.2c0-0.1,0-0.1,0-0.2v-0.9
	c-0.1-0.7,0.5-1.3,1.1-1.3c0.1,0,0.1,0,0.2,0c0.6-0.1,1.2,0.4,1.3,1c0,0,0,0.1,0,0.1l0,0h-0.5v-0.1c0-0.4-0.3-0.7-0.7-0.7
	c0,0-0.1,0-0.1,0c-0.4,0-0.8,0.3-0.8,0.7c0,0,0,0.1,0,0.1v1c0,0.4,0.3,0.8,0.7,0.8c0,0,0.1,0,0.1,0c0.4,0,0.7-0.2,0.8-0.6
	C94.5,220.5,94.5,220.5,94.5,220.4L94.5,220.4z"/>
<path d="M95.8,216.8h0.5v3l1.5-1.7h0.6l-1.2,1.3l1.2,2.1h-0.6l-1-1.7l-0.6,0.6v1.1h-0.5V216.8z"/>
<path d="M100.2,218.6v-0.4h0.5V218c-0.1-0.5,0.3-1.1,0.8-1.2c0.1,0,0.2,0,0.3,0h0.3v0.4h-0.3c-0.4,0-0.7,0.2-0.7,0.7v0.2h0.9v0.4
	h-0.9v3h-0.5v-3L100.2,218.6z"/>
<path d="M105.3,220.3c0.1,0.7-0.5,1.3-1.1,1.3c-0.1,0-0.1,0-0.2,0c-0.7,0-1.3-0.5-1.3-1.2c0-0.1,0-0.1,0-0.2v-0.9
	c-0.1-0.7,0.4-1.3,1.1-1.4c0.1,0,0.2,0,0.3,0c0.7,0,1.3,0.5,1.3,1.2c0,0.1,0,0.1,0,0.2L105.3,220.3z M103.2,220.3
	c0,0.4,0.4,0.8,0.8,0.8s0.8-0.4,0.8-0.8v-1c0-0.4-0.4-0.8-0.8-0.8s-0.8,0.4-0.8,0.8V220.3z"/>
<path d="M106.7,221.5h-0.5v-3.4h0.4l0.1,0.4c0.2-0.3,0.5-0.5,0.9-0.5h0.2v0.5h-0.2c-0.4,0-0.8,0.3-0.8,0.7c0,0,0,0.1,0,0.1V221.5z"
	/>
<path d="M111.8,221.5l-0.1-0.4c-0.2,0.3-0.6,0.5-0.9,0.5c-0.6,0-1.2-0.5-1.2-1.1c0-0.1,0-0.1,0-0.2v-1c-0.1-0.6,0.4-1.2,1-1.3
	c0.1,0,0.1,0,0.2,0c0.3,0,0.7,0.1,0.9,0.4v-1.7h0.5v4.7L111.8,221.5z M111.7,220.3v-1c0-0.4-0.3-0.8-0.7-0.8c0,0-0.1,0-0.1,0
	c-0.4,0-0.7,0.3-0.8,0.7c0,0,0,0.1,0,0.1v1.1c0,0.4,0.2,0.7,0.6,0.8c0,0,0.1,0,0.1,0C111.3,221.1,111.7,220.8,111.7,220.3
	C111.7,220.4,111.7,220.3,111.7,220.3z"/>
<path d="M115.2,220.4h0.5l0,0c0,0.6-0.5,1.2-1.1,1.2c0,0-0.1,0-0.1,0c-0.7,0.1-1.2-0.4-1.3-1.1c0-0.1,0-0.1,0-0.2v-1
	c-0.1-0.7,0.5-1.3,1.1-1.3c0.1,0,0.1,0,0.2,0c0.7,0,1.2,0.5,1.3,1.2c0,0.1,0,0.1,0,0.2v0.5h-2.1v0.5c0,0.4,0.3,0.8,0.7,0.8
	c0,0,0.1,0,0.1,0c0.4,0,0.7-0.2,0.8-0.6C115.2,220.5,115.2,220.4,115.2,220.4L115.2,220.4z M113.6,219.5h1.6v-0.2
	c0-0.4-0.3-0.8-0.7-0.9s-0.8,0.3-0.9,0.7c0,0.1,0,0.1,0,0.2V219.5z"/>
<path d="M116.2,218.6v-0.4h0.7v-0.9h0.5v0.9h0.7v0.4h-0.7v3h-0.5v-3H116.2z"/>
<path d="M118.6,219.3c-0.1-0.6,0.4-1.2,1-1.3c0.1,0,0.1,0,0.2,0c0.4,0,0.7,0.2,0.9,0.5l0.1-0.4h0.4v3.4h-0.4l-0.1-0.4
	c-0.2,0.3-0.6,0.5-0.9,0.5c-0.6,0-1.2-0.5-1.2-1.1c0-0.1,0-0.1,0-0.2V219.3z M120.6,220.3v-1c0-0.4-0.3-0.8-0.7-0.8c0,0-0.1,0-0.1,0
	c-0.4,0-0.7,0.3-0.8,0.7c0,0,0,0.1,0,0.1v1.1c0,0.4,0.2,0.7,0.6,0.8c0,0,0.1,0,0.1,0C120.3,221.1,120.6,220.8,120.6,220.3
	C120.6,220.4,120.6,220.3,120.6,220.3z"/>
<path d="M122.4,217.5c-0.2,0-0.3-0.1-0.3-0.3c0-0.1,0-0.2,0.1-0.2c0.1-0.1,0.3-0.1,0.5,0c0.1,0.1,0.1,0.2,0.1,0.3
	C122.7,217.3,122.6,217.5,122.4,217.5z M122.2,218.1h0.5v3.4h-0.5V218.1z"/>
<path d="M123.7,216.8h0.5v4.7h-0.5V216.8z"/>
<path d="M125.1,220.5h0.5v0.1c0,0.4,0.3,0.6,0.8,0.6s0.7-0.2,0.7-0.6s-0.1-0.4-0.5-0.5l-0.7-0.2c-0.5-0.2-0.8-0.5-0.8-0.9
	c0-0.3,0.1-0.5,0.3-0.7c0.2-0.2,0.5-0.3,0.8-0.3c0.7,0,1.2,0.4,1.2,1v0.1H127V219c0-0.3-0.3-0.6-0.7-0.6s-0.7,0.2-0.7,0.5
	s0.1,0.4,0.4,0.5l0.6,0.2c0.6,0.2,0.9,0.4,0.9,1c0,0.6-0.5,1.1-1.1,1.1c0,0-0.1,0-0.1,0c-0.8,0-1.3-0.4-1.3-1L125.1,220.5z"/>
<path d="M128.4,221h0.6l-0.5,1.2h-0.4L128.4,221z"/>
<path d="M131.4,216.8h0.6v4.7h-0.5L131.4,216.8z"/>
<path d="M135,220.4h0.5l0,0c0,0.6-0.5,1.2-1.1,1.2c0,0-0.1,0-0.1,0c-0.7,0.1-1.2-0.4-1.3-1.1c0-0.1,0-0.1,0-0.2v-1
	c-0.1-0.7,0.5-1.3,1.2-1.4c0.7-0.1,1.3,0.5,1.4,1.2c0,0.1,0,0.2,0,0.2v0.5h-2.1v0.5c0,0.4,0.3,0.8,0.7,0.8c0,0,0.1,0,0.1,0
	C134.6,221.2,135,220.9,135,220.4C135,220.5,135,220.4,135,220.4L135,220.4z M133.4,219.5h1.6v-0.2c0-0.4-0.4-0.8-0.8-0.8
	c-0.4,0-0.8,0.4-0.8,0.8V219.5z"/>
<path d="M136.8,221.5h-0.5v-3.4h0.4l0.1,0.4c0.2-0.3,0.6-0.5,0.9-0.5c0.6,0,1.2,0.4,1.2,1.1c0,0.1,0,0.1,0,0.2v2.2h-0.5v-2.2
	c0-0.4-0.3-0.8-0.7-0.8c0,0-0.1,0-0.1,0c-0.4,0-0.8,0.3-0.8,0.7c0,0,0,0.1,0,0.1L136.8,221.5z"/>
<path d="M142,221.5l-0.1-0.4c-0.2,0.3-0.6,0.5-0.9,0.5c-0.6,0-1.2-0.5-1.2-1.1c0-0.1,0-0.1,0-0.2v-1c-0.1-0.6,0.3-1.2,0.9-1.3
	c0.1,0,0.2,0,0.3,0c0.3,0,0.7,0.1,0.9,0.4v-1.6h0.5v4.7L142,221.5z M141.9,220.3v-1c0-0.4-0.3-0.8-0.7-0.8c0,0-0.1,0-0.1,0
	c-0.4,0-0.7,0.3-0.8,0.7c0,0,0,0.1,0,0.1v1.1c0,0.4,0.2,0.7,0.6,0.8c0,0,0.1,0,0.1,0C141.5,221.1,141.9,220.8,141.9,220.3
	C141.9,220.3,141.9,220.3,141.9,220.3L141.9,220.3z"/>
<path d="M143.6,217.5c-0.2,0-0.3-0.1-0.3-0.3c0-0.1,0-0.2,0.1-0.2c0.1-0.1,0.3-0.1,0.5,0c0.1,0.1,0.1,0.2,0.1,0.3
	C144,217.3,143.8,217.5,143.6,217.5z M143.4,218.1h0.5v3.4h-0.5V218.1z"/>
<path d="M145.4,221.5h-0.5v-3.4h0.4l0.1,0.4c0.2-0.3,0.6-0.5,0.9-0.5c0.6,0,1.1,0.4,1.2,1.1c0,0.1,0,0.1,0,0.2v2.2H147v-2.2
	c0-0.4-0.3-0.7-0.6-0.8c0,0-0.1,0-0.1,0c-0.4,0-0.8,0.3-0.8,0.7c0,0,0,0.1,0,0.1L145.4,221.5z"/>
<path d="M148.4,219.3c-0.1-0.6,0.4-1.2,1-1.3c0.1,0,0.1,0,0.2,0c0.4,0,0.7,0.2,0.9,0.5l0.1-0.4h0.4v3.6c0,0.6-0.5,1.2-1.1,1.2
	c-0.1,0-0.1,0-0.2,0c-0.8,0-1.3-0.4-1.3-1l0,0h0.5v0.1c0,0.3,0.3,0.6,0.8,0.6c0.4,0,0.7-0.3,0.8-0.6c0,0,0-0.1,0-0.1v-0.7
	c-0.2,0.3-0.5,0.4-0.9,0.4c-0.6,0-1.2-0.5-1.2-1.1c0-0.1,0-0.1,0-0.2V219.3z M150.4,220.2v-0.9c0-0.4-0.3-0.8-0.7-0.8
	c0,0-0.1,0-0.1,0c-0.4,0-0.7,0.3-0.8,0.7c0,0,0,0.1,0,0.1v0.9c0,0.4,0.3,0.8,0.7,0.8c0,0,0.1,0,0.1,0
	C150.1,221,150.4,220.7,150.4,220.2C150.4,220.2,150.4,220.2,150.4,220.2L150.4,220.2z"/>
<path d="M35,228.8h0.5v0.1c0,0.6-0.5,1.2-1.1,1.2c0,0-0.1,0-0.1,0c-0.7,0-1.3-0.5-1.3-1.2c0-0.1,0-0.1,0-0.2v-0.9
	c-0.1-0.7,0.4-1.3,1.1-1.3c0.1,0,0.1,0,0.2,0c0.6-0.1,1.2,0.4,1.3,1.1c0,0,0,0.1,0,0.1l0,0H35v-0.1c0-0.4-0.3-0.7-0.7-0.7
	c0,0,0,0-0.1,0c-0.4,0-0.8,0.3-0.8,0.7c0,0,0,0.1,0,0.1v1c0,0.4,0.3,0.8,0.7,0.8c0,0,0.1,0,0.1,0c0.4,0,0.7-0.2,0.8-0.6
	C35,228.9,35,228.9,35,228.8L35,228.8z"/>
<path d="M36.9,229.9h-0.5v-3.4h0.4l0.1,0.4c0.2-0.3,0.5-0.5,0.9-0.5h0.2v0.6h-0.2c-0.4,0-0.8,0.3-0.8,0.7c0,0,0,0.1,0,0.1V229.9z"/>
<path d="M38.8,225.9c-0.2,0-0.3-0.1-0.3-0.3s0.1-0.3,0.3-0.3c0.2,0,0.3,0.1,0.3,0.3C39.2,225.7,39,225.9,38.8,225.9z M38.6,226.5
	h0.5v3.4h-0.5V226.5z"/>
<path d="M39.8,227v-0.4h0.7v-0.9H41v0.9h0.7v0.4H41v3h-0.5v-3H39.8z"/>
<path d="M44.2,228.8h0.5l0,0c0,0.6-0.5,1.2-1.1,1.2c-0.1,0-0.1,0-0.2,0c-0.7,0.1-1.2-0.4-1.3-1.1c0-0.1,0-0.1,0-0.2v-1
	c-0.1-0.7,0.5-1.3,1.1-1.3c0.1,0,0.1,0,0.2,0c0.7,0,1.2,0.5,1.3,1.2c0,0.1,0,0.1,0,0.2v0.5h-2.1v0.5c0,0.4,0.3,0.8,0.7,0.8
	c0,0,0.1,0,0.1,0c0.4,0,0.7-0.2,0.8-0.6C44.2,228.9,44.3,228.9,44.2,228.8L44.2,228.8z M42.7,227.9h1.6v-0.2c0-0.4-0.4-0.8-0.8-0.8
	s-0.8,0.4-0.8,0.8V227.9z"/>
<path d="M46.1,229.9h-0.5v-3.4H46l0.1,0.4c0.2-0.3,0.5-0.5,0.9-0.5h0.2v0.6H47c-0.4,0-0.8,0.3-0.8,0.7c0,0,0,0.1,0,0.1V229.9z"/>
<path d="M48.1,225.9c-0.2,0-0.3-0.1-0.3-0.3s0.1-0.3,0.3-0.3c0.2,0,0.3,0.1,0.3,0.3C48.4,225.7,48.2,225.9,48.1,225.9z M47.8,226.5
	h0.5v3.4h-0.5V226.5z"/>
<path d="M49.2,227.7c-0.1-0.6,0.4-1.2,1-1.3c0.1,0,0.1,0,0.2,0c0.4,0,0.7,0.2,0.9,0.5l0.1-0.4h0.4v3.4h-0.4l-0.1-0.4
	c-0.2,0.3-0.6,0.5-0.9,0.5c-0.6,0-1.2-0.5-1.2-1.1c0-0.1,0-0.1,0-0.2V227.7z M51.3,228.7v-1c0-0.4-0.3-0.8-0.7-0.8c0,0-0.1,0-0.1,0
	c-0.4,0-0.7,0.3-0.8,0.7c0,0,0,0.1,0,0.1v1.1c0,0.4,0.2,0.7,0.6,0.8c0,0,0.1,0,0.1,0C50.9,229.5,51.3,229.2,51.3,228.7
	C51.3,228.7,51.3,228.7,51.3,228.7z"/>
<path d="M52.8,229.4h0.6l-0.5,1.2h-0.4L52.8,229.4z"/>
<path d="M55.5,227v-0.4H56v-0.2c-0.1-0.5,0.3-1.1,0.8-1.2c0.1,0,0.2,0,0.4,0h0.3v0.4h-0.3c-0.4,0-0.7,0.2-0.7,0.7v0.2h0.9v0.4h-0.9
	v3H56v-3H55.5z"/>
<path d="M60,228.8h0.5l0,0c0,0.6-0.5,1.2-1.1,1.2c-0.1,0-0.1,0-0.2,0c-0.7,0.1-1.2-0.4-1.3-1.1c0-0.1,0-0.1,0-0.2v-1
	c-0.1-0.7,0.5-1.3,1.1-1.3c0.1,0,0.1,0,0.2,0c0.7,0,1.2,0.5,1.3,1.2c0,0.1,0,0.1,0,0.2v0.5h-2.1v0.5c0,0.4,0.3,0.8,0.7,0.8
	c0,0,0.1,0,0.1,0c0.4,0,0.7-0.2,0.8-0.6C60,228.9,60,228.9,60,228.8L60,228.8z M58.4,227.9H60v-0.2c0-0.4-0.4-0.8-0.8-0.8
	s-0.8,0.4-0.8,0.8V227.9z"/>
<path d="M63.3,228.8h0.5l0,0c0,0.6-0.5,1.2-1.1,1.2c-0.1,0-0.1,0-0.2,0c-0.7,0.1-1.3-0.5-1.3-1.1c0-0.1,0-0.1,0-0.2v-1
	c0-0.7,0.6-1.3,1.3-1.3c0.7,0,1.3,0.6,1.3,1.3c0,0,0,0,0,0v0.5h-2.1v0.5c0,0.4,0.3,0.8,0.7,0.8c0,0,0.1,0,0.1,0
	c0.4,0,0.7-0.2,0.8-0.6C63.3,228.9,63.3,228.9,63.3,228.8L63.3,228.8z M61.7,227.9h1.6v-0.2c0-0.4-0.4-0.8-0.8-0.8s-0.8,0.4-0.8,0.8
	V227.9z"/>
<path d="M64.5,228.9h0.5v0.1c0,0.4,0.3,0.6,0.8,0.6s0.7-0.2,0.7-0.6s-0.1-0.4-0.4-0.5l-0.7-0.2c-0.5-0.2-0.8-0.5-0.8-0.9
	c0-0.3,0.1-0.5,0.3-0.7c0.2-0.2,0.5-0.3,0.8-0.3c0.7,0,1.2,0.4,1.2,1v0.1h-0.5v-0.1c0-0.3-0.3-0.6-0.7-0.6s-0.7,0.2-0.7,0.5
	s0.1,0.4,0.4,0.5L66,228c0.6,0.2,0.9,0.4,0.9,1c0,0.6-0.6,1-1.1,1c0,0,0,0-0.1,0c-0.8,0-1.3-0.4-1.3-1L64.5,228.9z"/>
<path d="M67.8,229.4h0.6l-0.5,1.2h-0.4L67.8,229.4z"/>
<path d="M70.4,227v-0.4h0.7v-0.9h0.5v0.9h0.7v0.4h-0.7v3h-0.5v-3H70.4z"/>
<path d="M74.9,228.8h0.5l0,0c0,0.6-0.5,1.2-1.1,1.2c-0.1,0-0.1,0-0.2,0c-0.7,0.1-1.2-0.4-1.3-1.1c0-0.1,0-0.1,0-0.2v-1
	c-0.1-0.7,0.5-1.3,1.1-1.3c0.1,0,0.1,0,0.2,0c0.7,0,1.2,0.5,1.3,1.2c0,0.1,0,0.1,0,0.2v0.5h-2.1v0.5c0,0.4,0.3,0.8,0.7,0.8
	c0,0,0.1,0,0.1,0c0.4,0,0.7-0.2,0.8-0.6C74.9,228.9,74.9,228.9,74.9,228.8L74.9,228.8z M73.3,227.9h1.6v-0.2c0-0.4-0.4-0.8-0.8-0.8
	s-0.8,0.4-0.8,0.8V227.9z"/>
<path d="M76.7,229.9h-0.5v-3.4h0.4l0.1,0.4c0.2-0.3,0.5-0.5,0.9-0.5h0.2v0.6h-0.2c-0.4,0-0.8,0.3-0.8,0.8c0,0,0,0.1,0,0.1V229.9z"/>
<path d="M78.9,229.9h-0.5v-3.4h0.4l0.1,0.4c0.4-0.5,1.1-0.6,1.6-0.3c0.1,0.1,0.3,0.2,0.3,0.4c0.2-0.4,0.6-0.7,1-0.6
	c0.6,0,1.1,0.5,1.2,1.1c0,0.1,0,0.1,0,0.2v2.2h-0.5v-2.2c0-0.4-0.3-0.7-0.6-0.8c0,0-0.1,0-0.1,0c-0.4,0-0.8,0.3-0.8,0.7
	c0,0,0,0,0,0.1v2.2h-0.5v-2.2c0-0.4-0.2-0.7-0.6-0.8c0,0-0.1,0-0.1,0c-0.4,0-0.8,0.3-0.8,0.7c0,0,0,0,0,0.1V229.9z"/>
<path d="M83.8,228.9h0.5v0.1c0,0.4,0.3,0.6,0.8,0.6s0.7-0.2,0.7-0.6s-0.1-0.4-0.4-0.5l-0.7-0.2c-0.5-0.2-0.8-0.5-0.8-0.9
	c0-0.3,0.1-0.5,0.3-0.7c0.2-0.2,0.5-0.3,0.8-0.3c0.7,0,1.2,0.4,1.2,1v0.1h-0.5v-0.1c0-0.3-0.3-0.6-0.7-0.6s-0.7,0.2-0.7,0.5
	s0.1,0.4,0.4,0.5l0.6,0.2c0.6,0.2,0.9,0.4,0.9,1c0,0.6-0.6,1-1.1,1c0,0,0,0-0.1,0c-0.8,0-1.3-0.4-1.3-1L83.8,228.9z"/>
<path d="M88.5,227.7c-0.1-0.6,0.4-1.2,1-1.3c0.1,0,0.1,0,0.2,0c0.4,0,0.7,0.2,0.9,0.5l0.1-0.4h0.4v3.4h-0.4l-0.1-0.4
	c-0.2,0.3-0.6,0.5-0.9,0.5c-0.6,0-1.2-0.5-1.2-1.1c0-0.1,0-0.1,0-0.2V227.7z M90.6,228.7v-1c0-0.4-0.3-0.8-0.7-0.8c0,0,0,0-0.1,0
	c-0.4,0-0.7,0.3-0.8,0.7c0,0,0,0.1,0,0.1v1.1c0,0.4,0.2,0.7,0.6,0.8c0,0,0.1,0,0.1,0C90.2,229.5,90.6,229.2,90.6,228.7
	C90.6,228.7,90.6,228.7,90.6,228.7z"/>
<path d="M92.6,229.9h-0.5v-3.4h0.4l0.1,0.4c0.2-0.3,0.6-0.5,0.9-0.5c0.6,0,1.1,0.4,1.2,1.1c0,0.1,0,0.1,0,0.2v2.2h-0.5v-2.2
	c0-0.4-0.3-0.7-0.6-0.8c0,0-0.1,0-0.1,0c-0.4,0-0.8,0.3-0.8,0.8c0,0,0,0.1,0,0.1V229.9z"/>
<path d="M97.7,229.9l-0.1-0.4c-0.2,0.3-0.6,0.5-0.9,0.5c-0.6,0-1.2-0.5-1.2-1.1c0-0.1,0-0.1,0-0.2v-1c-0.1-0.6,0.4-1.2,1-1.3
	c0.1,0,0.1,0,0.2,0c0.3,0,0.7,0.1,0.9,0.4v-1.7h0.5v4.7H97.7z M97.6,228.7v-1c0-0.4-0.3-0.8-0.7-0.8c0,0,0,0-0.1,0
	c-0.4,0-0.7,0.3-0.8,0.7c0,0,0,0.1,0,0.1v1.1c0,0.4,0.2,0.7,0.6,0.8c0,0,0.1,0,0.1,0C97.3,229.5,97.6,229.2,97.6,228.7
	C97.6,228.7,97.6,228.7,97.6,228.7z"/>
<path d="M102.6,228.8h0.5v0.1c0,0.6-0.5,1.2-1.1,1.2c-0.1,0-0.1,0-0.2,0c-0.7,0-1.3-0.5-1.3-1.2c0-0.1,0-0.1,0-0.2v-0.9
	c-0.1-0.7,0.5-1.3,1.1-1.3c0.1,0,0.1,0,0.2,0c0.6-0.1,1.2,0.4,1.3,1.1c0,0,0,0.1,0,0.1l0,0h-0.5v-0.1c0-0.4-0.3-0.7-0.7-0.7
	c0,0,0,0-0.1,0c-0.4,0-0.8,0.3-0.8,0.7c0,0,0,0.1,0,0.1v1c0,0.4,0.3,0.8,0.7,0.8c0,0,0.1,0,0.1,0c0.4,0,0.7-0.2,0.8-0.6
	C102.6,228.9,102.6,228.9,102.6,228.8L102.6,228.8z"/>
<path d="M106.4,228.7c0,0.7-0.6,1.3-1.3,1.3c-0.7,0-1.3-0.6-1.3-1.3v-0.9c0-0.7,0.6-1.3,1.3-1.3c0.7,0,1.3,0.6,1.3,1.3l0,0V228.7z
	 M104.3,228.7c0,0.4,0.4,0.8,0.8,0.8s0.8-0.4,0.8-0.8v-1c0-0.4-0.4-0.8-0.8-0.8c-0.4,0-0.8,0.4-0.8,0.8V228.7z"/>
<path d="M107.8,229.9h-0.5v-3.4h0.4l0.1,0.4c0.2-0.3,0.6-0.5,0.9-0.5c0.6,0,1.2,0.4,1.2,1.1c0,0.1,0,0.1,0,0.2v2.2h-0.5v-2.2
	c0-0.4-0.3-0.8-0.7-0.8c0,0-0.1,0-0.1,0c-0.4,0-0.8,0.3-0.8,0.8c0,0,0,0.1,0,0.1V229.9z"/>
<path d="M113,229.9l-0.1-0.4c-0.2,0.3-0.6,0.5-0.9,0.5c-0.6,0-1.2-0.5-1.2-1.1c0-0.1,0-0.1,0-0.2v-1c-0.1-0.6,0.4-1.2,1-1.3
	c0.1,0,0.1,0,0.2,0c0.3,0,0.7,0.1,0.9,0.4v-1.7h0.5v4.7H113z M112.9,228.7v-1c0-0.4-0.3-0.8-0.7-0.8c0,0-0.1,0-0.1,0
	c-0.4,0-0.7,0.3-0.8,0.7c0,0,0,0.1,0,0.1v1.1c0,0.4,0.2,0.7,0.6,0.8c0,0,0.1,0,0.1,0C112.5,229.5,112.9,229.2,112.9,228.7
	C112.9,228.7,112.9,228.7,112.9,228.7L112.9,228.7z"/>
<path d="M114.6,225.9c-0.2,0-0.3-0.1-0.3-0.3c0-0.2,0.1-0.3,0.3-0.3c0.2,0,0.3,0.1,0.3,0.3C114.9,225.7,114.8,225.9,114.6,225.9z
	 M114.4,226.5h0.5v3.4h-0.5V226.5z"/>
<path d="M115.6,227v-0.4h0.7v-0.9h0.5v0.9h0.7v0.4h-0.7v3h-0.5v-3H115.6z"/>
<path d="M118.3,225.9c-0.2,0-0.3-0.1-0.3-0.3c0-0.2,0.1-0.3,0.3-0.3c0.2,0,0.3,0.1,0.3,0.3C118.7,225.7,118.5,225.9,118.3,225.9z
	 M118.1,226.5h0.5v3.4h-0.5V226.5z"/>
<path d="M122.1,228.7c0.1,0.7-0.5,1.4-1.2,1.4s-1.4-0.5-1.4-1.2c0-0.1,0-0.2,0-0.2v-0.9c-0.1-0.7,0.5-1.4,1.2-1.4s1.4,0.5,1.4,1.2
	c0,0.1,0,0.2,0,0.2V228.7z M120,228.7c0,0.4,0.4,0.8,0.8,0.8s0.8-0.4,0.8-0.8v-1c0-0.4-0.4-0.8-0.8-0.8c-0.4,0-0.8,0.4-0.8,0.8
	V228.7z"/>
<path d="M123.5,229.9H123v-3.4h0.4l0.1,0.4c0.2-0.3,0.6-0.5,0.9-0.5c0.6,0,1.1,0.4,1.2,1.1c0,0.1,0,0.1,0,0.2v2.2h-0.5v-2.2
	c0-0.4-0.3-0.7-0.6-0.8c0,0-0.1,0-0.1,0c-0.4,0-0.8,0.3-0.8,0.8c0,0,0,0.1,0,0.1L123.5,229.9z"/>
<path d="M126.3,228.9h0.5v0.1c0,0.4,0.3,0.6,0.8,0.6c0.5,0,0.7-0.2,0.7-0.6s-0.1-0.4-0.4-0.5l-0.7-0.2c-0.5-0.2-0.8-0.5-0.8-0.9
	c0-0.3,0.1-0.5,0.3-0.7c0.2-0.2,0.5-0.3,0.8-0.3c0.7,0,1.2,0.4,1.2,1v0.1h-0.5v-0.1c0-0.3-0.3-0.6-0.7-0.6s-0.7,0.2-0.7,0.5
	s0.1,0.4,0.4,0.5l0.6,0.2c0.6,0.2,0.9,0.4,0.9,1c0,0.6-0.6,1-1.1,1c0,0,0,0-0.1,0c-0.8,0-1.3-0.4-1.3-1L126.3,228.9z"/>
<path d="M131.1,227.7c-0.1-0.6,0.4-1.2,1-1.3c0.1,0,0.1,0,0.2,0c0.4,0,0.7,0.2,0.9,0.5l0.1-0.4h0.4v3.4h-0.4l-0.1-0.4
	c-0.2,0.3-0.6,0.5-0.9,0.5c-0.6,0-1.2-0.5-1.2-1.1c0-0.1,0-0.1,0-0.2V227.7z M133.1,228.7v-1c0-0.4-0.3-0.8-0.7-0.8c0,0,0,0-0.1,0
	c-0.4,0-0.7,0.3-0.8,0.7c0,0,0,0.1,0,0.1v1.1c0,0.4,0.2,0.7,0.6,0.8c0,0,0.1,0,0.1,0C132.8,229.5,133.1,229.2,133.1,228.7
	C133.1,228.7,133.1,228.7,133.1,228.7z"/>
<path d="M135,226.5l0.1,0.4c0.2-0.3,0.6-0.5,0.9-0.5c0.6,0,1.2,0.4,1.2,1.1c0,0.1,0,0.1,0,0.2v1c0.1,0.6-0.4,1.2-1,1.3
	c-0.1,0-0.1,0-0.2,0c-0.3,0-0.7-0.1-0.9-0.4v1.7h-0.5v-4.7L135,226.5z M135.1,227.8v1c0,0.4,0.3,0.8,0.7,0.8c0,0,0.1,0,0.1,0
	c0.4,0,0.7-0.3,0.8-0.7c0,0,0-0.1,0-0.1v-1.1c0-0.4-0.3-0.7-0.6-0.8c0,0-0.1,0-0.1,0C135.5,227,135.1,227.3,135.1,227.8
	C135.2,227.7,135.2,227.7,135.1,227.8L135.1,227.8z"/>
<path d="M138.5,226.5l0.1,0.4c0.2-0.3,0.6-0.5,0.9-0.5c0.6,0,1.2,0.5,1.2,1.1c0,0.1,0,0.1,0,0.2v1c0.1,0.6-0.4,1.2-1,1.3
	c-0.1,0-0.1,0-0.2,0c-0.3,0-0.7-0.1-0.9-0.4v1.7h-0.5v-4.7L138.5,226.5z M138.6,227.8v1c0,0.4,0.3,0.8,0.7,0.8c0,0,0.1,0,0.1,0
	c0.4,0,0.7-0.3,0.8-0.7c0,0,0-0.1,0-0.1v-1.1c0-0.4-0.3-0.8-0.7-0.8c0,0-0.1,0-0.1,0C139,226.9,138.7,227.3,138.6,227.8
	C138.6,227.7,138.6,227.7,138.6,227.8z"/>
<path d="M141.6,225.2h0.5v4.7h-0.5V225.2z"/>
<path d="M144.1,231.2h-0.5l0.5-1.3l-1.2-3.4h0.6l0.9,2.7l0.9-2.7h0.5L144.1,231.2z"/>
<path d="M146.8,229.7c0,0.2-0.2,0.3-0.4,0.3c-0.2,0-0.3-0.1-0.3-0.3c0-0.2,0.2-0.4,0.4-0.4C146.6,229.3,146.8,229.5,146.8,229.7z"/>
<path d="M41.6,205.8c0.1,1-0.3,2.1-1.1,2.8c-0.8,0.7-1.8,1.1-2.9,1c-1.1,0.1-2.1-0.3-2.9-1c-0.8-0.7-1.2-1.7-1.1-2.8v-4.5
	c0-2.4,1.4-3.8,4-3.8c1.1-0.1,2.1,0.3,2.9,1c0.7,0.7,1.1,1.8,1.1,2.8V205.8z M36.2,205.7c-0.1,0.8,0.5,1.4,1.3,1.5
	c0.8,0.1,1.4-0.5,1.5-1.3c0-0.1,0-0.2,0-0.2v-4.4c0.1-0.8-0.5-1.4-1.3-1.5c-0.8-0.1-1.4,0.5-1.5,1.3c0,0.1,0,0.2,0,0.2V205.7z"/>
<path d="M49.7,203.3c1,0.5,1.7,1.6,1.5,2.8c0,2.1-1.5,3.5-4,3.5s-4-1.4-4-3.5c-0.1-1.1,0.5-2.3,1.5-2.8c-0.9-0.5-1.4-1.5-1.3-2.5
	c0-2,1.5-3.3,3.8-3.3s3.8,1.4,3.8,3.3C51.1,201.8,50.6,202.8,49.7,203.3z M47.3,207.5c0.9,0,1.3-0.5,1.3-1.5s-0.5-1.6-1.4-1.6
	s-1.3,0.5-1.3,1.6S46.4,207.5,47.3,207.5z M47.3,202.5c0.8,0,1.2-0.5,1.2-1.4s-0.4-1.3-1.2-1.3s-1.2,0.4-1.2,1.3
	S46.5,202.4,47.3,202.5L47.3,202.5z"/>
<path d="M61,205.8c0.1,1-0.3,2.1-1.1,2.8c-1.7,1.4-4.1,1.4-5.8,0c-0.8-0.7-1.2-1.7-1.1-2.8v-4.5c0-2.4,1.4-3.8,4-3.8
	c1.1-0.1,2.1,0.3,2.9,1c0.7,0.7,1.1,1.8,1.1,2.8L61,205.8z M55.6,205.7c-0.1,0.8,0.5,1.5,1.2,1.6c0.8,0.1,1.5-0.5,1.6-1.2
	c0-0.1,0-0.2,0-0.3v-4.4c0.1-0.8-0.5-1.5-1.2-1.6c-0.8-0.1-1.5,0.5-1.6,1.2c0,0.1,0,0.2,0,0.3V205.7z"/>
<path d="M70.8,205.8c0.1,1-0.3,2.1-1.1,2.8c-1.7,1.4-4.1,1.4-5.8,0c-0.8-0.7-1.2-1.7-1.1-2.8v-4.5c0-2.4,1.4-3.8,4-3.8
	c1.1-0.1,2.1,0.3,2.9,1c0.7,0.7,1.1,1.8,1.1,2.8V205.8z M65.5,205.7c-0.1,0.8,0.5,1.4,1.3,1.5c0.8,0.1,1.4-0.5,1.5-1.3
	c0-0.1,0-0.2,0-0.2v-4.4c0.1-0.8-0.5-1.4-1.3-1.5c-0.8-0.1-1.4,0.5-1.5,1.3c0,0.1,0,0.2,0,0.2V205.7z"/>
<path d="M84.8,208.2c0,0.7-0.5,1.2-1.2,1.3c0,0-0.1,0-0.1,0c-0.7,0-1.2-0.5-1.3-1.1c0,0,0-0.1,0-0.1v-3.6H79v3.6
	c0,0.7-0.5,1.2-1.2,1.3c0,0-0.1,0-0.1,0c-0.7,0-1.2-0.4-1.3-1.1c0-0.1,0-0.1,0-0.2v-9.4c0-0.7,0.5-1.2,1.1-1.3c0,0,0.1,0,0.1,0
	c0.7-0.1,1.3,0.5,1.3,1.1c0,0,0,0.1,0,0.1v3.5h3.2v-3.5c0-0.7,0.4-1.2,1.1-1.3c0.1,0,0.1,0,0.2,0c0.7-0.1,1.3,0.4,1.3,1.1
	c0,0,0,0.1,0,0.1L84.8,208.2z"/>
<path d="M95.3,207.8c0,0.1,0.1,0.3,0.1,0.4c0,0.7-0.6,1.3-1.3,1.3c-0.5,0-1-0.3-1.2-0.8l-1.5-3.4h-1.5v3c0,0.7-0.5,1.2-1.2,1.3
	c0,0-0.1,0-0.1,0c-0.7,0-1.2-0.5-1.3-1.1c0,0,0-0.1,0-0.1v-9.3c0-0.7,0.4-1.2,1.1-1.3c0.1,0,0.1,0,0.2,0h3.1c1.1,0,2.1,0.3,2.9,1
	c1.5,1.5,1.6,3.9,0.1,5.5c-0.2,0.2-0.4,0.4-0.7,0.5L95.3,207.8z M89.9,199.9v3h1.5c0.8,0.2,1.6-0.4,1.8-1.2s-0.4-1.6-1.2-1.8
	c-0.2,0-0.4,0-0.6,0H89.9z"/>
<path d="M102.8,208.2c-0.2,1-1.2,1.5-2.2,1.3c-0.6-0.2-1.1-0.7-1.3-1.3l-2.6-8.8c0-0.1-0.1-0.3-0.1-0.4c0-0.7,0.6-1.3,1.3-1.3
	c0.6,0,1.1,0.4,1.3,1l1.8,7.2l1.9-7.2c0.1-0.6,0.6-1,1.2-1c0.7,0,1.3,0.6,1.3,1.3l0,0c0,0.1,0,0.2,0,0.4L102.8,208.2z"/>
<path d="M110.7,197.6h2.4c0.6,0,1.1,0.4,1.1,1c0,0,0,0.1,0,0.1v8.4h1.1c1.4-0.1,1.4,2.4,0,2.3h-4.7c-0.6,0-1.1-0.5-1.1-1
	c0,0,0-0.1,0-0.1c0-0.6,0.4-1.1,1-1.1c0,0,0.1,0,0.1,0h1V200h-1c-0.3,0-0.6-0.1-0.8-0.3C109.2,199,109.7,197.5,110.7,197.6z"/>
<path d="M124.6,207.1c0.6,0,1.1,0.5,1.2,1.1c0,0,0,0.1,0,0.1c0,0.6-0.4,1.1-1,1.2c0,0-0.1,0-0.1,0h-6c-0.5,0-1-0.3-1-0.9
	c0,0,0-0.1,0-0.1v-0.1c0-0.8,0.1-1.5,0.3-2.2c0.3-0.7,0.8-1.3,1.5-1.6l2.2-1.4c0.8-0.4,1.2-1.2,1.3-2c0-0.7-0.4-1.2-1.3-1.2
	c-0.7,0-1.3,0.4-1.4,1c-0.2,0.5-0.7,0.9-1.2,0.8c-0.6,0-1.2-0.4-1.2-1.1c0-0.1,0-0.1,0-0.2c0.1-0.9,0.6-1.6,1.3-2.1
	c0.8-0.5,1.7-0.8,2.7-0.8c2.4,0,3.9,1.3,3.9,3.4c0,1.6-0.9,3.1-2.3,3.9l-2.1,1.3c-0.4,0.2-0.7,0.6-0.7,1L124.6,207.1z"/>
<path d="M130.7,202.4h0.1c1,0,1.4-0.4,1.4-1.3c0.1-0.6-0.4-1.2-1-1.3c-0.1,0-0.1,0-0.2,0c-0.5,0-1.1,0.3-1.2,0.8
	c-0.2,0.5-0.7,0.9-1.2,0.9c-0.7,0-1.2-0.5-1.2-1.2c0,0,0,0,0,0c0-0.1,0-0.3,0.1-0.4c0.6-1.5,2.1-2.5,3.7-2.4c2.4,0,3.8,1.4,3.8,3.3
	c0.1,1-0.4,2-1.2,2.5c1,0.6,1.6,1.7,1.4,2.8c0,2.1-1.6,3.5-4,3.5c-2.1,0-3.5-1.1-3.9-2.8c-0.2-0.7,0.2-1.3,0.9-1.5
	c0.1,0,0.2,0,0.3,0c0.6-0.1,1.2,0.4,1.3,1c0.1,0.7,0.7,1.2,1.3,1.2c1,0,1.4-0.5,1.4-1.5s-0.5-1.4-1.5-1.4h-0.1c-0.6,0-1-0.4-1-1
	S130.2,202.4,130.7,202.4L130.7,202.4z"/>
</svg>
