<?xml version="1.0" encoding="utf-8"?>
<!-- Generator: Adobe Illustrator 23.0.0, SVG Export Plug-In . SVG Version: 6.00 Build 0)  -->
<svg version="1.1" id="Layer_1" xmlns="http://www.w3.org/2000/svg" xmlns:xlink="http://www.w3.org/1999/xlink" x="0px" y="0px"
	 viewBox="0 0 600 500" style="enable-background:new 0 0 600 500;" xml:space="preserve">
<style type="text/css">
	.st0{fill:#FFFFFF;}
	.st1{fill:#FF408E;}
</style>
<g>
	<g>
		<image style="overflow:visible;" width="274" height="141" xlink:href="FC7EE11E.png"  transform="matrix(1 0 0 1 163 132)">
		</image>
	</g>
	<g>
		<g>
			<path class="st0" d="M229.8,202.5c-0.5,0-0.9-0.3-1-0.7l-1.4-3.9h-8.5l-1.3,3.9c-0.2,0.4-0.6,0.7-1,0.7h-11.3
				c-0.4,0-0.7-0.2-0.9-0.5c-0.2-0.3-0.2-0.7-0.1-1l12.5-31.8c0.2-0.4,0.6-0.7,1-0.7H229c0.5,0,0.9,0.3,1,0.7l12.4,31.8
				c0.1,0.3,0.1,0.7-0.1,1c-0.2,0.3-0.5,0.5-0.9,0.5H229.8z M239.8,200.3l-11.5-29.6h-9.9l-11.7,29.6h8.9l1.3-3.9
				c0.2-0.4,0.6-0.7,1-0.7h10.1c0.5,0,0.9,0.3,1,0.7l1.4,3.9H239.8z M220.6,189.7c-0.4,0-0.7-0.2-0.9-0.5c-0.2-0.3-0.3-0.7-0.2-1
				l2.6-7.9c0.1-0.4,0.6-0.8,1-0.8c0.5,0,0.9,0.3,1,0.8l2.6,7.9c0.1,0.3,0,0.7-0.2,1c-0.2,0.3-0.5,0.5-0.9,0.5H220.6z M224.3,187.5
				l-1.1-3.3l-1.1,3.3H224.3z"/>
			<path class="st1" d="M229,168.9c0.3,0,0.6,0.2,0.7,0.5l12.4,31.8c0.1,0.2,0.1,0.5-0.1,0.7c-0.1,0.2-0.4,0.3-0.6,0.3h-11.6
				c-0.3,0-0.6-0.2-0.7-0.5l-1.5-4.2h-9.1l-1.4,4.2c-0.1,0.3-0.4,0.5-0.7,0.5h-11.3c-0.2,0-0.5-0.1-0.6-0.3
				c-0.1-0.2-0.2-0.5-0.1-0.7l12.5-31.8c0.1-0.3,0.4-0.5,0.7-0.5H229 M206.2,200.7h9.7l1.4-4.2c0.1-0.3,0.4-0.5,0.7-0.5h10.1
				c0.3,0,0.6,0.2,0.7,0.5l1.5,4.2h10.1l-11.8-30.3h-10.4L206.2,200.7 M223.2,180c0.3,0,0.6,0.2,0.7,0.5l2.6,7.9
				c0.1,0.2,0,0.5-0.1,0.7c-0.1,0.2-0.4,0.3-0.6,0.3h-5.2c-0.2,0-0.5-0.1-0.6-0.3c-0.1-0.2-0.2-0.4-0.1-0.7l2.6-7.9
				C222.6,180.2,222.9,180,223.2,180C223.2,180,223.2,180,223.2,180 M221.6,187.9h3.2l-1.6-4.8L221.6,187.9 M229,168.2h-11.4
				c-0.6,0-1.1,0.4-1.4,0.9l-12.5,31.8c-0.2,0.5-0.1,1,0.2,1.4c0.3,0.4,0.7,0.6,1.2,0.6h11.3c0.6,0,1.2-0.4,1.4-1l1.2-3.7h8l1.3,3.7
				c0.2,0.6,0.8,1,1.4,1h11.6c0.5,0,0.9-0.2,1.2-0.6c0.3-0.4,0.3-0.9,0.2-1.4l-12.4-31.8C230.2,168.5,229.7,168.2,229,168.2
				L229,168.2z M218.7,171.1h9.4l11.3,28.9h-8.5l-1.3-3.7c-0.2-0.6-0.8-1-1.4-1H218c-0.6,0-1.2,0.4-1.4,1l-1.2,3.7h-8.1L218.7,171.1
				L218.7,171.1z M223.2,179.3L223.2,179.3L223.2,179.3L223.2,179.3c-0.6,0-1.2,0.4-1.4,1l-2.6,7.9c-0.1,0.4-0.1,0.9,0.2,1.3
				c0.3,0.4,0.7,0.6,1.2,0.6h5.2c0.5,0,0.9-0.2,1.2-0.6c0.3-0.4,0.4-0.9,0.2-1.3l-2.6-7.9C224.4,179.7,223.8,179.3,223.2,179.3
				L223.2,179.3z M222.6,187.1l0.6-1.7l0.6,1.7H222.6L222.6,187.1z"/>
		</g>
		<g>
			<path class="st0" d="M262.7,202.5c-0.4,0-0.7-0.2-0.9-0.5l-6.6-9.8v9.2c0,0.6-0.5,1.1-1.1,1.1h-10.4c-0.6,0-1.1-0.5-1.1-1.1
				v-31.8c0-0.6,0.5-1.1,1.1-1.1H254c0.6,0,1.1,0.5,1.1,1.1v8.5l6.6-9.1c0.2-0.3,0.5-0.5,0.9-0.5h12.6c0.4,0,0.8,0.2,1,0.6
				c0.2,0.4,0.1,0.8-0.1,1.2l-11.4,13.9l12,16.6c0.2,0.3,0.3,0.8,0.1,1.1c-0.2,0.4-0.6,0.6-1,0.6H262.7z M273.6,200.3l-11.3-15.5
				c-0.3-0.4-0.3-1,0-1.3l10.5-12.8h-9.7L255,182c-0.2,0.3-0.5,0.5-0.9,0.5c-0.7,0-1.2-0.5-1.2-1.1v-10.6h-8.1v29.6h8.2v-11.6
				c0-0.6,0.5-1.1,1.1-1.1h0.1c0.4,0,0.7,0.2,0.9,0.5l8.2,12.2H273.6z"/>
			<path class="st1" d="M275.2,168.9c0.3,0,0.5,0.2,0.7,0.4c0.1,0.3,0.1,0.6-0.1,0.8l-11.6,14.1l12.2,16.8c0.2,0.2,0.2,0.5,0.1,0.8
				c-0.1,0.2-0.4,0.4-0.7,0.4h-13.1c-0.2,0-0.5-0.1-0.6-0.3l-7.2-10.8v10.4c0,0.4-0.3,0.7-0.7,0.7h-10.4c-0.4,0-0.7-0.3-0.7-0.7
				v-31.8c0-0.4,0.3-0.7,0.7-0.7H254c0.4,0,0.7,0.3,0.7,0.7v9.6l7.3-10c0.1-0.2,0.4-0.3,0.6-0.3H275.2 M254,182.1
				c-0.4,0-0.7-0.3-0.7-0.7v-11h-8.9v30.3h8.9v-11.9c0-0.4,0.3-0.7,0.7-0.7h0.1c0.2,0,0.5,0.1,0.6,0.3l8.3,12.3h11.3l-11.7-16.1
				c-0.2-0.3-0.2-0.6,0-0.9l11-13.4H263l-8.3,11.4C254.6,182,254.4,182.1,254,182.1L254,182.1 M275.2,168.2h-12.6
				c-0.5,0-0.9,0.2-1.2,0.6l-5.9,8.2v-7.3c0-0.8-0.7-1.5-1.5-1.5h-10.3c-0.8,0-1.5,0.7-1.5,1.5v31.8c0,0.8,0.7,1.5,1.5,1.5h10.4
				c0.8,0,1.5-0.7,1.5-1.5v-8l5.9,8.8c0.3,0.4,0.7,0.6,1.2,0.6h13.1c0.6,0,1.1-0.3,1.3-0.8c0.3-0.5,0.2-1.1-0.1-1.5l-11.9-16.3
				l11.2-13.7c0.4-0.4,0.4-1,0.2-1.5C276.3,168.5,275.8,168.2,275.2,168.2L275.2,168.2z M263.4,171.1h8.7l-10,12.2
				c-0.4,0.5-0.4,1.2-0.1,1.8l10.9,14.9h-9.5l-8.1-12c-0.3-0.4-0.7-0.6-1.2-0.6h-0.1c-0.8,0-1.5,0.7-1.5,1.5V200h-7.5v-28.9h7.4
				v10.3c0,0.8,0.7,1.5,1.5,1.5h0.1c0.5,0,0.9-0.2,1.2-0.6L263.4,171.1L263.4,171.1z"/>
		</g>
		<g>
			<path class="st0" d="M284.9,202.5c-0.6,0-1.1-0.5-1.1-1.1v-21.7h-6.7c-0.6,0-1.1-0.5-1.1-1.1v-9c0-0.6,0.5-1.1,1.1-1.1h26.3
				c0.6,0,1.1,0.5,1.1,1.1v9c0,0.6-0.5,1.1-1.1,1.1h-6.7v21.7c0,0.6-0.5,1.1-1.1,1.1H284.9z M294.5,200.3v-21.7
				c0-0.6,0.5-1.1,1.1-1.1h6.7v-6.8h-24.1v6.8h6.7c0.6,0,1.1,0.5,1.1,1.1v21.7H294.5z"/>
			<path class="st1" d="M303.5,168.9c0.4,0,0.7,0.3,0.7,0.7v9c0,0.4-0.3,0.7-0.7,0.7h-7.1v22c0,0.4-0.3,0.7-0.7,0.7h-10.7
				c-0.4,0-0.7-0.3-0.7-0.7v-22h-7.1c-0.4,0-0.7-0.3-0.7-0.7v-9c0-0.4,0.3-0.7,0.7-0.7H303.5 M277.9,177.9h7.1
				c0.4,0,0.7,0.3,0.7,0.7v22h9.2v-22c0-0.4,0.3-0.7,0.7-0.7h7.1v-7.6h-24.9V177.9 M303.5,168.2h-26.3c-0.8,0-1.5,0.7-1.5,1.5v9
				c0,0.8,0.7,1.5,1.5,1.5h6.4v21.3c0,0.8,0.7,1.5,1.5,1.5h10.7c0.8,0,1.5-0.7,1.5-1.5v-21.3h6.4c0.8,0,1.5-0.7,1.5-1.5v-9
				C304.9,168.8,304.3,168.2,303.5,168.2L303.5,168.2z M278.6,171.1H302v6.1h-6.4c-0.8,0-1.5,0.7-1.5,1.5V200h-7.8v-21.3
				c0-0.8-0.7-1.5-1.5-1.5h-6.4V171.1L278.6,171.1z"/>
		</g>
		<g>
			<path class="st0" d="M306.7,202.5c-0.6,0-1.1-0.5-1.1-1.1v-31.8c0-0.6,0.5-1.1,1.1-1.1h10.8c0.6,0,1.1,0.5,1.1,1.1v31.8
				c0,0.6-0.5,1.1-1.1,1.1H306.7z M316.4,200.3v-29.6h-8.6v29.6H316.4z"/>
			<path class="st1" d="M317.5,168.9c0.4,0,0.7,0.3,0.7,0.7v31.8c0,0.4-0.3,0.7-0.7,0.7h-10.8c-0.4,0-0.7-0.3-0.7-0.7v-31.8
				c0-0.4,0.3-0.7,0.7-0.7H317.5 M307.5,200.7h9.3v-30.3h-9.3V200.7 M317.5,168.2h-10.8c-0.8,0-1.5,0.7-1.5,1.5v31.8
				c0,0.8,0.7,1.5,1.5,1.5h10.8c0.8,0,1.5-0.7,1.5-1.5v-31.8C319,168.8,318.3,168.2,317.5,168.2L317.5,168.2z M308.2,171.1h7.9V200
				h-7.9V171.1L308.2,171.1z"/>
		</g>
		<g>
			<path class="st0" d="M339.7,203.4c-2.6,0-5.1-0.4-7.4-1.3c-2.3-0.9-4.3-2.1-6-3.7c-1.7-1.6-3-3.5-4-5.7c-1-2.2-1.4-4.7-1.4-7.4
				c0-2.7,0.5-5.2,1.4-7.3c1-2.2,2.3-4.1,4-5.6c1.7-1.5,3.7-2.7,6-3.5c2.3-0.8,4.8-1.2,7.4-1.2s5.1,0.4,7.4,1.2c2.3,0.8,4.3,2,6,3.5
				c1.7,1.5,3,3.4,4,5.6c1,2.2,1.4,4.6,1.4,7.3c0,2.7-0.5,5.2-1.4,7.4c-1,2.2-2.3,4.2-4,5.7c-1.7,1.6-3.7,2.8-6,3.7
				C344.8,203,342.3,203.4,339.7,203.4z M339.7,169.8c-2.4,0-4.6,0.4-6.6,1.1c-2,0.7-3.8,1.8-5.2,3.1c-1.4,1.3-2.6,3-3.4,4.9
				c-0.8,1.9-1.3,4.1-1.3,6.5c0,2.4,0.4,4.6,1.3,6.5c0.8,1.9,2,3.6,3.5,5c1.5,1.4,3.2,2.5,5.2,3.2c2,0.8,4.3,1.1,6.6,1.1
				c2.4,0,4.6-0.4,6.6-1.1c2-0.8,3.8-1.8,5.3-3.2c1.5-1.4,2.6-3.1,3.5-5c0.8-1.9,1.3-4.1,1.3-6.5c0-2.4-0.4-4.6-1.3-6.5
				c-0.8-1.9-2-3.5-3.5-4.9c-1.5-1.3-3.2-2.4-5.3-3.1C344.3,170.2,342,169.8,339.7,169.8z M339.7,193.5c-1,0-2-0.2-3-0.6
				c-0.9-0.4-1.7-1-2.4-1.7c-0.6-0.7-1.2-1.6-1.5-2.6c-0.4-1-0.5-2.1-0.5-3.2c0-1.1,0.2-2.2,0.5-3.2c0.4-1,0.9-1.8,1.5-2.5
				c0.7-0.7,1.5-1.2,2.4-1.6c0.9-0.4,1.9-0.6,2.9-0.6c1,0,2,0.2,2.9,0.6c0.9,0.4,1.7,0.9,2.4,1.6c0.7,0.7,1.2,1.5,1.6,2.5
				c0.4,1,0.5,2,0.5,3.2c0,1.2-0.2,2.3-0.5,3.2c-0.4,1-0.9,1.9-1.5,2.6c-0.7,0.7-1.5,1.3-2.4,1.7
				C341.7,193.3,340.7,193.5,339.7,193.5z M339.7,179.6c-0.7,0-1.4,0.1-2.1,0.4c-0.6,0.3-1.2,0.6-1.6,1.1c-0.4,0.5-0.8,1.1-1.1,1.8
				c-0.3,0.7-0.4,1.5-0.4,2.4c0,0.9,0.1,1.8,0.4,2.5c0.3,0.7,0.6,1.4,1.1,1.9c0.4,0.5,1,0.9,1.6,1.2c0.6,0.3,1.3,0.4,2.1,0.4l0,0
				c0.7,0,1.4-0.1,2-0.4c0.6-0.3,1.2-0.7,1.6-1.2c0.5-0.5,0.8-1.2,1.1-1.9c0.3-0.7,0.4-1.6,0.4-2.5c0-0.9-0.1-1.7-0.4-2.4
				c-0.3-0.7-0.6-1.3-1.1-1.8c-0.5-0.5-1-0.9-1.6-1.1C341.1,179.8,340.4,179.6,339.7,179.6z"/>
			<path class="st1" d="M339.7,168c2.6,0,5,0.4,7.3,1.2c2.2,0.8,4.2,2,5.9,3.5c1.7,1.5,3,3.3,3.9,5.5c0.9,2.1,1.4,4.6,1.4,7.2
				c0,2.6-0.5,5.1-1.4,7.3c-0.9,2.2-2.2,4.1-3.9,5.6c-1.7,1.5-3.6,2.7-5.9,3.6c-2.2,0.8-4.7,1.3-7.3,1.3c-2.6,0-5-0.4-7.3-1.3
				c-2.2-0.8-4.2-2-5.8-3.6c-1.6-1.5-2.9-3.4-3.9-5.6c-0.9-2.2-1.4-4.6-1.4-7.3c0-2.6,0.5-5.1,1.4-7.2c0.9-2.1,2.2-4,3.9-5.5
				c1.6-1.5,3.6-2.7,5.8-3.5C334.6,168.4,337.1,168,339.7,168 M339.7,201.6c2.4,0,4.7-0.4,6.8-1.2c2.1-0.8,3.9-1.9,5.4-3.3
				c1.5-1.4,2.7-3.1,3.6-5.1c0.9-2,1.3-4.2,1.3-6.7c0-2.4-0.4-4.7-1.3-6.6c-0.9-1.9-2-3.6-3.6-5c-1.5-1.4-3.3-2.4-5.4-3.2
				c-2.1-0.7-4.3-1.1-6.8-1.1c-2.4,0-4.7,0.4-6.8,1.1c-2.1,0.7-3.9,1.8-5.3,3.2c-1.5,1.4-2.7,3-3.5,5c-0.9,1.9-1.3,4.2-1.3,6.6
				c0,2.4,0.4,4.7,1.3,6.7c0.9,2,2,3.7,3.5,5.1c1.5,1.4,3.3,2.5,5.4,3.3C335,201.2,337.2,201.6,339.7,201.6 M339.7,177.8
				c1,0,1.9,0.2,2.8,0.6c0.8,0.4,1.6,0.9,2.2,1.5c0.6,0.7,1.1,1.5,1.5,2.4c0.3,0.9,0.5,2,0.5,3.1c0,1.1-0.2,2.2-0.5,3.1
				c-0.3,1-0.8,1.8-1.5,2.5c-0.6,0.7-1.4,1.3-2.2,1.6c-0.9,0.4-1.8,0.6-2.8,0.6c-1,0-1.9-0.2-2.8-0.6c-0.9-0.4-1.6-0.9-2.3-1.6
				c-0.6-0.7-1.1-1.5-1.4-2.5c-0.3-0.9-0.5-2-0.5-3.1c0-1.1,0.2-2.1,0.5-3.1c0.3-0.9,0.8-1.8,1.5-2.4c0.6-0.7,1.4-1.2,2.2-1.5
				C337.7,178,338.7,177.8,339.7,177.8 M339.7,191.7c0.8,0,1.5-0.2,2.2-0.5c0.7-0.3,1.3-0.7,1.8-1.3c0.5-0.6,0.9-1.2,1.2-2
				c0.3-0.8,0.4-1.7,0.4-2.6c0-0.9-0.1-1.8-0.4-2.6c-0.3-0.8-0.7-1.4-1.2-1.9c-0.5-0.5-1.1-0.9-1.8-1.2c-0.7-0.3-1.4-0.4-2.2-0.4
				c-0.8,0-1.5,0.1-2.2,0.4c-0.7,0.3-1.3,0.7-1.8,1.2c-0.5,0.5-0.9,1.2-1.1,1.9c-0.3,0.8-0.4,1.6-0.4,2.6c0,1,0.1,1.8,0.4,2.6
				c0.3,0.8,0.7,1.5,1.2,2c0.5,0.5,1.1,1,1.7,1.3C338.1,191.6,338.9,191.7,339.7,191.7 M339.7,167.3c-2.7,0-5.2,0.4-7.5,1.3
				c-2.3,0.8-4.4,2.1-6.1,3.6c-1.7,1.6-3.1,3.5-4.1,5.7c-1,2.2-1.5,4.7-1.5,7.5c0,2.7,0.5,5.3,1.5,7.5c1,2.3,2.3,4.2,4,5.9
				c1.7,1.6,3.8,2.9,6.1,3.7c2.3,0.9,4.8,1.3,7.5,1.3c2.7,0,5.2-0.4,7.5-1.3c2.3-0.9,4.4-2.1,6.1-3.7c1.7-1.6,3.1-3.6,4.1-5.9
				c1-2.3,1.5-4.8,1.5-7.5c0-2.7-0.5-5.3-1.5-7.5c-1-2.2-2.4-4.2-4.1-5.7c-1.7-1.6-3.8-2.8-6.1-3.6
				C344.9,167.7,342.3,167.3,339.7,167.3L339.7,167.3z M339.7,200.9c-2.3,0-4.5-0.4-6.5-1.1c-2-0.7-3.7-1.8-5.1-3.1
				c-1.4-1.3-2.6-3-3.4-4.9c-0.8-1.9-1.2-4.1-1.2-6.4c0-2.3,0.4-4.5,1.2-6.3c0.8-1.9,1.9-3.5,3.4-4.7c1.4-1.3,3.1-2.3,5.1-3
				c2-0.7,4.2-1.1,6.5-1.1s4.5,0.4,6.5,1.1c2,0.7,3.7,1.7,5.1,3c1.4,1.3,2.6,2.9,3.4,4.7c0.8,1.9,1.2,4,1.2,6.3
				c0,2.3-0.4,4.5-1.2,6.4c-0.8,1.9-2,3.5-3.4,4.9c-1.4,1.3-3.2,2.4-5.1,3.1C344.2,200.5,342,200.9,339.7,200.9L339.7,200.9z
				 M339.7,177.1c-1.1,0-2.1,0.2-3.1,0.6c-1,0.4-1.8,1-2.5,1.7c-0.7,0.7-1.2,1.6-1.6,2.7c-0.4,1-0.6,2.1-0.6,3.3
				c0,1.2,0.2,2.3,0.6,3.4c0.4,1,0.9,2,1.6,2.7c0.7,0.8,1.5,1.4,2.5,1.8c1,0.4,2,0.6,3.1,0.6c1.1,0,2.1-0.2,3.1-0.6
				c0.9-0.4,1.8-1,2.5-1.8c0.7-0.8,1.2-1.7,1.6-2.7c0.4-1,0.6-2.2,0.6-3.4c0-1.2-0.2-2.3-0.6-3.3c-0.4-1-0.9-1.9-1.6-2.7
				c-0.7-0.7-1.5-1.3-2.5-1.7C341.8,177.3,340.7,177.1,339.7,177.1L339.7,177.1z M339.7,191c-0.7,0-1.3-0.1-1.9-0.4
				c-0.6-0.3-1.1-0.6-1.5-1.1c-0.4-0.5-0.8-1.1-1-1.8c-0.3-0.7-0.4-1.5-0.4-2.4c0-0.8,0.1-1.6,0.4-2.3c0.2-0.7,0.6-1.2,1-1.7
				c0.4-0.4,0.9-0.8,1.5-1c0.6-0.3,1.2-0.4,1.9-0.4c0.7,0,1.3,0.1,1.9,0.4c0.6,0.3,1.1,0.6,1.5,1c0.4,0.4,0.8,1,1,1.6
				c0.3,0.7,0.4,1.5,0.4,2.3c0,0.9-0.1,1.7-0.4,2.4c-0.2,0.7-0.6,1.3-1,1.8c-0.4,0.5-0.9,0.9-1.5,1.1C341,190.9,340.3,191,339.7,191
				L339.7,191z"/>
		</g>
		<g>
			<path class="st0" d="M379.6,202.5c-0.4,0-0.8-0.2-0.9-0.5l-6.8-11.8l0.3,11.2c0,0.3-0.1,0.6-0.3,0.8s-0.5,0.3-0.8,0.3H361
				c-0.6,0-1.1-0.5-1.1-1.1v-31.8c0-0.6,0.5-1.1,1.1-1.1h10.6c0.4,0,0.8,0.2,1,0.6l7.1,12.6l-0.3-12c0-0.3,0.1-0.6,0.3-0.8
				s0.5-0.3,0.8-0.3h10.2c0.6,0,1.1,0.5,1.1,1.1v31.8c0,0.6-0.5,1.1-1.1,1.1H379.6z M389.5,200.3v-29.6h-7.9l0.4,15
				c0,0.3-0.1,0.6-0.3,0.8c-0.2,0.2-0.5,0.3-0.8,0.3h-0.2c-0.4,0-0.8-0.2-1-0.6l-8.8-15.6h-8.9v29.6h7.9l-0.4-14.1
				c0-0.3,0.1-0.6,0.3-0.8s0.5-0.3,0.8-0.3h0.2c0.4,0,0.8,0.2,0.9,0.5l8.5,14.6H389.5z"/>
			<path class="st1" d="M390.6,168.9c0.4,0,0.7,0.3,0.7,0.7v31.8c0,0.4-0.3,0.7-0.7,0.7h-10.9c-0.3,0-0.5-0.1-0.6-0.4l-7.5-13
				l0.4,12.6c0,0.2-0.1,0.4-0.2,0.5c-0.1,0.1-0.3,0.2-0.5,0.2H361c-0.4,0-0.7-0.3-0.7-0.7v-31.8c0-0.4,0.3-0.7,0.7-0.7h10.6
				c0.3,0,0.5,0.1,0.6,0.4l7.8,13.9l-0.4-13.5c0-0.2,0.1-0.4,0.2-0.5c0.1-0.1,0.3-0.2,0.5-0.2H390.6 M380.7,186.5
				c-0.3,0-0.5-0.1-0.6-0.4l-8.9-15.8h-9.5v30.3h8.7l-0.4-14.4c0-0.2,0.1-0.4,0.2-0.5c0.1-0.1,0.3-0.2,0.5-0.2h0.2
				c0.3,0,0.5,0.1,0.6,0.4l8.6,14.8h9.8v-30.3h-8.7l0.4,15.4c0,0.2-0.1,0.4-0.2,0.5c-0.1,0.1-0.3,0.2-0.5,0.2H380.7 M390.6,168.2
				h-10.2c-0.4,0-0.8,0.2-1,0.4c-0.3,0.3-0.4,0.7-0.4,1.1l0.3,10.6l-6.4-11.3c-0.3-0.5-0.7-0.7-1.3-0.7H361c-0.8,0-1.5,0.7-1.5,1.5
				v31.8c0,0.8,0.7,1.5,1.5,1.5h10.2c0.4,0,0.8-0.2,1-0.4c0.3-0.3,0.4-0.7,0.4-1.1l-0.3-9.7l6.1,10.5c0.3,0.4,0.7,0.7,1.3,0.7h10.9
				c0.8,0,1.5-0.7,1.5-1.5v-31.8C392,168.8,391.4,168.2,390.6,168.2L390.6,168.2z M381.9,171.1h7.2V200h-8.6l-8.4-14.5
				c-0.3-0.4-0.7-0.7-1.3-0.7h-0.2c-0.4,0-0.8,0.2-1,0.4c-0.3,0.3-0.4,0.7-0.4,1.1l0.4,13.7h-7.2v-28.9h8.3l8.7,15.4
				c0.3,0.5,0.7,0.7,1.3,0.7h0.2c0.4,0,0.8-0.2,1-0.4c0.3-0.3,0.4-0.7,0.4-1.1L381.9,171.1L381.9,171.1z"/>
		</g>
		<g>
			<path class="st0" d="M199.7,236.6c-0.6,0-1.1-0.5-1.1-1.1v-20.1c0-0.6,0.5-1.1,1.1-1.1h8.6c1.1,0,2.2,0.1,3.2,0.4
				c1.1,0.2,2.1,0.7,3,1.3c0.9,0.6,1.7,1.4,2.2,2.5c0.6,1,0.8,2.3,0.8,3.8c0,1.4-0.3,2.7-0.8,3.7c-0.5,1-1.3,1.9-2.2,2.5
				c-0.9,0.6-1.9,1.1-3,1.4c-1.1,0.3-2.2,0.4-3.3,0.4h-0.8v5.4c0,0.6-0.5,1.1-1.1,1.1H199.7z M205.4,234.4V229
				c0-0.6,0.5-1.1,1.1-1.1h1.9c0.9,0,1.9-0.1,2.8-0.3c0.9-0.2,1.6-0.6,2.3-1c0.6-0.4,1.1-1,1.5-1.8c0.4-0.7,0.6-1.6,0.6-2.7
				c0-1.1-0.2-2-0.6-2.7c-0.4-0.7-0.9-1.3-1.5-1.7c-0.7-0.4-1.4-0.8-2.3-0.9c-0.9-0.2-1.8-0.3-2.8-0.3h-7.5v17.9H205.4z M206.5,225
				c-0.6,0-1.1-0.5-1.1-1.1v-3.2c0-0.6,0.5-1.1,1.1-1.1h1.4c0.3,0,0.6,0,0.9,0.1c0.4,0.1,0.7,0.2,1,0.4c0.4,0.2,0.7,0.5,0.9,0.9
				c0.2,0.4,0.3,0.8,0.3,1.3c0,1.3-0.6,1.9-1.2,2.2c-0.6,0.4-1.3,0.5-2,0.5H206.5z M207.9,222.8c0.3,0,0.6-0.1,0.8-0.2
				c0,0,0.1-0.1,0.1-0.4c0-0.2,0-0.2,0-0.2c-0.2-0.1-0.3-0.1-0.4-0.2c-0.2,0-0.4-0.1-0.5-0.1h-0.3v1H207.9z"/>
			<path class="st1" d="M208.4,214.7c1.1,0,2.1,0.1,3.2,0.3c1.1,0.2,2,0.6,2.9,1.2c0.9,0.6,1.6,1.4,2.1,2.3c0.5,1,0.8,2.2,0.8,3.6
				c0,1.4-0.3,2.5-0.8,3.5c-0.5,1-1.2,1.8-2.1,2.4c-0.8,0.6-1.8,1-2.9,1.3c-1,0.3-2.1,0.4-3.2,0.4h-1.2v5.7c0,0.4-0.3,0.7-0.7,0.7
				h-6.7c-0.4,0-0.7-0.3-0.7-0.7v-20.1c0-0.4,0.3-0.7,0.7-0.7H208.4 M200.5,234.8h5.3V229c0-0.4,0.3-0.7,0.7-0.7h1.9
				c1,0,1.9-0.1,2.9-0.3c0.9-0.2,1.7-0.6,2.4-1.1c0.7-0.5,1.2-1.1,1.6-1.9c0.4-0.8,0.6-1.7,0.6-2.8c0-1.2-0.2-2.1-0.6-2.9
				c-0.4-0.8-1-1.4-1.6-1.8c-0.7-0.5-1.5-0.8-2.4-1c-0.9-0.2-1.9-0.3-2.8-0.3h-7.9V234.8 M207.9,219.9c0.3,0,0.6,0,0.9,0.1
				c0.3,0.1,0.6,0.2,0.9,0.3c0.3,0.2,0.6,0.4,0.7,0.7c0.2,0.3,0.3,0.7,0.3,1.1c0,1.1-0.5,1.6-1,1.9c-0.5,0.3-1.1,0.5-1.8,0.5h-1.4
				c-0.4,0-0.7-0.3-0.7-0.7v-3.2c0-0.4,0.3-0.7,0.7-0.7H207.9 M207.2,223.2h0.7c0.4,0,0.7-0.1,1-0.3c0.1-0.1,0.3-0.2,0.3-0.7
				c0-0.3,0-0.4-0.1-0.4c0-0.1-0.1-0.1-0.2-0.2c-0.1-0.1-0.3-0.1-0.4-0.2c-0.2,0-0.4-0.1-0.6-0.1h-0.7V223.2 M208.4,213.9h-8.6
				c-0.8,0-1.5,0.7-1.5,1.5v20.1c0,0.8,0.7,1.5,1.5,1.5h6.7c0.8,0,1.5-0.7,1.5-1.5v-5h0.4c1.2,0,2.3-0.1,3.4-0.4
				c1.2-0.3,2.2-0.8,3.1-1.4c0.9-0.7,1.7-1.6,2.3-2.6c0.6-1.1,0.9-2.4,0.9-3.9c0-1.5-0.3-2.9-0.9-4c-0.6-1.1-1.4-1.9-2.3-2.6
				c-0.9-0.6-2-1.1-3.1-1.3C210.6,214.1,209.5,213.9,208.4,213.9L208.4,213.9z M201.2,216.9h7.2c0.9,0,1.8,0.1,2.7,0.3
				c0.8,0.2,1.5,0.5,2.1,0.9c0.6,0.4,1,0.9,1.4,1.6c0.4,0.6,0.5,1.5,0.5,2.5c0,1-0.2,1.8-0.5,2.5c-0.4,0.7-0.8,1.2-1.4,1.6
				c-0.6,0.4-1.3,0.8-2.1,1c-0.9,0.2-1.8,0.3-2.7,0.3h-1.9c-0.8,0-1.5,0.7-1.5,1.5v5h-3.8V216.9L201.2,216.9z M207.9,219.2h-1.4
				c-0.8,0-1.5,0.7-1.5,1.5v3.2c0,0.8,0.7,1.5,1.5,1.5h1.4c0.8,0,1.5-0.2,2.2-0.6c0.9-0.5,1.3-1.4,1.3-2.5c0-0.6-0.1-1.1-0.4-1.5
				c-0.2-0.4-0.6-0.8-1-1c-0.3-0.2-0.7-0.3-1.1-0.4C208.6,219.2,208.2,219.2,207.9,219.2L207.9,219.2z M207.9,222.4v-0.3
				c0.1,0,0.3,0,0.4,0c0,0,0.1,0,0.1,0c0,0,0,0,0,0c0,0,0,0.1,0,0.1C208.3,222.4,208.1,222.4,207.9,222.4L207.9,222.4z"/>
		</g>
		<g>
			<path class="st0" d="M219.1,236.6c-0.6,0-1.1-0.5-1.1-1.1v-20.1c0-0.6,0.5-1.1,1.1-1.1H233c0.6,0,1.1,0.5,1.1,1.1v5.6
				c0,0.5-0.3,0.9-0.7,1c0.2,0.2,0.3,0.4,0.3,0.7v5.2c0,0.3-0.1,0.6-0.3,0.8h0.2c0.6,0,1.1,0.5,1.1,1.1v5.6c0,0.6-0.5,1.1-1.1,1.1
				H219.1z M232.3,234.4V231h-6.9c-0.6,0-1.1-0.5-1.1-1.1V228c0-0.6,0.5-1.1,1.1-1.1h5.9v-3.1h-5.9c-0.6,0-1.1-0.5-1.1-1.1V221
				c0-0.6,0.5-1.1,1.1-1.1h6.4v-3.4h-11.6v17.9H232.3z"/>
			<path class="st1" d="M233,214.7c0.4,0,0.7,0.3,0.7,0.7v5.6c0,0.4-0.3,0.7-0.7,0.7h-6.7v0.3h6.3c0.4,0,0.7,0.3,0.7,0.7v5.2
				c0,0.4-0.3,0.7-0.7,0.7h-6.3v0.4h7.2c0.4,0,0.7,0.3,0.7,0.7v5.6c0,0.4-0.3,0.7-0.7,0.7h-14.3c-0.4,0-0.7-0.3-0.7-0.7v-20.1
				c0-0.4,0.3-0.7,0.7-0.7H233 M219.9,234.8h12.8v-4.2h-7.2c-0.4,0-0.7-0.3-0.7-0.7V228c0-0.4,0.3-0.7,0.7-0.7h6.3v-3.8h-6.3
				c-0.4,0-0.7-0.3-0.7-0.7V221c0-0.4,0.3-0.7,0.7-0.7h6.7v-4.2h-12.4V234.8 M233,213.9h-13.8c-0.8,0-1.5,0.7-1.5,1.5v20.1
				c0,0.8,0.7,1.5,1.5,1.5h14.3c0.8,0,1.5-0.7,1.5-1.5v-5.6c0-0.7-0.4-1.2-1-1.4c0.1-0.2,0.1-0.3,0.1-0.5v-5.2c0-0.2,0-0.4-0.1-0.6
				c0.3-0.3,0.6-0.7,0.6-1.2v-5.6C234.4,214.6,233.8,213.9,233,213.9L233,213.9z M220.6,216.9h10.9v2.7h-6c-0.8,0-1.5,0.7-1.5,1.5
				v1.7c0,0.8,0.7,1.5,1.5,1.5h5.5v2.3h-5.5c-0.8,0-1.5,0.7-1.5,1.5v1.9c0,0.8,0.7,1.5,1.5,1.5h6.5v2.7h-11.4V216.9L220.6,216.9z"/>
		</g>
		<g>
			<path class="st0" d="M245.3,237.2c-1.7,0-3.2-0.2-4.5-0.7c-1.3-0.5-2.4-1.2-3.3-2c-0.9-0.9-1.6-1.9-2-3.1
				c-0.4-1.1-0.6-2.4-0.6-3.7v-12.2c0-0.6,0.5-1.1,1.1-1.1h6.8c0.6,0,1.1,0.5,1.1,1.1v11.5c0,0.7,0.1,1.2,0.4,1.5
				c0.3,0.3,0.6,0.4,1.1,0.4s0.9-0.1,1.1-0.4c0.3-0.3,0.4-0.9,0.4-1.5v-11.5c0-0.6,0.5-1.1,1.1-1.1h6.7c0.6,0,1.1,0.5,1.1,1.1v12.2
				c0,1.3-0.2,2.6-0.7,3.7c-0.5,1.2-1.2,2.2-2.1,3.1c-0.9,0.9-2,1.5-3.3,2C248.5,236.9,247,237.2,245.3,237.2z M237.1,227.6
				c0,1.1,0.2,2.1,0.5,3c0.3,0.9,0.8,1.6,1.5,2.3c0.7,0.6,1.5,1.2,2.5,1.5c1,0.4,2.3,0.6,3.7,0.6s2.7-0.2,3.8-0.6
				c1-0.4,1.9-0.9,2.6-1.6c0.7-0.6,1.2-1.4,1.5-2.3c0.4-0.9,0.5-1.9,0.5-2.9v-11.1h-4.5v10.4c0,1.2-0.3,2.2-1,3
				c-0.7,0.8-1.6,1.2-2.8,1.2s-2.1-0.4-2.8-1.2c-0.6-0.7-1-1.7-1-3v-10.4h-4.6V227.6z"/>
			<path class="st1" d="M254.8,214.7c0.4,0,0.7,0.3,0.7,0.7v12.2c0,1.3-0.2,2.5-0.7,3.6c-0.4,1.1-1.1,2.1-2,2.9
				c-0.9,0.8-1.9,1.5-3.2,1.9c-1.3,0.5-2.7,0.7-4.4,0.7c-1.7,0-3.1-0.2-4.4-0.7c-1.3-0.5-2.3-1.1-3.2-1.9c-0.9-0.8-1.5-1.8-1.9-3
				c-0.4-1.1-0.6-2.3-0.6-3.6v-12.2c0-0.4,0.3-0.7,0.7-0.7h6.8c0.4,0,0.7,0.3,0.7,0.7v11.5c0,0.8,0.2,1.4,0.5,1.8
				c0.3,0.4,0.8,0.6,1.4,0.6c0.6,0,1.1-0.2,1.4-0.6c0.3-0.4,0.5-1,0.5-1.8v-11.5c0-0.4,0.3-0.7,0.7-0.7H254.8 M245.4,230.7
				c-1.1,0-1.9-0.4-2.5-1.1c-0.6-0.7-0.9-1.6-0.9-2.7v-10.7h-5.3v11.5c0,1.1,0.2,2.1,0.5,3.1c0.3,0.9,0.9,1.7,1.6,2.4
				c0.7,0.7,1.6,1.2,2.7,1.6c1.1,0.4,2.4,0.6,3.8,0.6c1.5,0,2.8-0.2,3.9-0.6c1.1-0.4,2-0.9,2.7-1.6c0.7-0.7,1.3-1.5,1.6-2.4
				c0.4-0.9,0.6-2,0.6-3.1v-11.5h-5.3v10.7c0,1.1-0.3,2.1-0.9,2.7C247.3,230.3,246.5,230.7,245.4,230.7 M254.8,213.9h-6.7
				c-0.8,0-1.5,0.7-1.5,1.5v11.5c0,0.6-0.1,1-0.3,1.3c-0.1,0.1-0.3,0.3-0.9,0.3c-0.5,0-0.8-0.2-0.9-0.3c-0.2-0.3-0.3-0.7-0.3-1.3
				v-11.5c0-0.8-0.7-1.5-1.5-1.5H236c-0.8,0-1.5,0.7-1.5,1.5v12.2c0,1.4,0.2,2.7,0.7,3.8c0.5,1.2,1.2,2.3,2.1,3.2
				c0.9,0.9,2.1,1.6,3.4,2.1c1.3,0.5,2.9,0.7,4.6,0.7c1.7,0,3.3-0.2,4.6-0.7c1.4-0.5,2.5-1.2,3.5-2.1c0.9-0.9,1.7-2,2.2-3.2
				c0.5-1.2,0.7-2.5,0.7-3.9v-12.2C256.2,214.6,255.6,213.9,254.8,213.9L254.8,213.9z M249.5,216.9h3.8v10.7c0,1-0.2,1.9-0.5,2.8
				c-0.3,0.8-0.8,1.6-1.5,2.2c-0.6,0.6-1.5,1.1-2.5,1.5c-1,0.4-2.2,0.6-3.6,0.6c-1.4,0-2.6-0.2-3.6-0.6c-1-0.4-1.8-0.9-2.4-1.5
				c-0.6-0.6-1.1-1.3-1.4-2.1c-0.3-0.9-0.5-1.8-0.5-2.8v-10.7h3.8v10c0,1.3,0.4,2.4,1,3.2c0.8,0.9,1.8,1.3,3.1,1.3
				c1.3,0,2.3-0.5,3.1-1.3c0.7-0.8,1-1.9,1-3.2V216.9L249.5,216.9z"/>
		</g>
		<g>
			<path class="st0" d="M268.5,237.1c-1.7,0-3.3-0.3-4.8-0.8c-1.5-0.5-2.8-1.3-3.9-2.3c-1.1-1-2-2.3-2.6-3.7
				c-0.6-1.4-0.9-3.1-0.9-4.8c0-1.8,0.3-3.4,0.9-4.8c0.6-1.4,1.5-2.7,2.6-3.7c1.1-1,2.4-1.8,3.8-2.4c1.4-0.5,3-0.8,4.6-0.8
				c1.7,0,3.3,0.3,4.8,0.8c1.6,0.6,2.9,1.4,3.8,2.4c0.4,0.4,0.4,1,0.1,1.5l-3,3.6h2.5c0.6,0,1.1,0.5,1.1,1.1v11
				c0,0.4-0.2,0.7-0.5,0.9c-0.5,0.3-1.1,0.6-1.8,0.9c-0.7,0.3-1.4,0.5-2.1,0.7c-0.7,0.2-1.5,0.3-2.3,0.4
				C270.1,237,269.3,237.1,268.5,237.1z M268.2,215.9c-1.4,0-2.7,0.2-3.9,0.7c-1.2,0.4-2.2,1.1-3.1,1.9c-0.9,0.8-1.6,1.8-2.1,3
				c-0.5,1.2-0.8,2.5-0.8,3.9c0,1.5,0.3,2.8,0.8,3.9c0.5,1.2,1.2,2.2,2.1,3c0.9,0.8,1.9,1.4,3.2,1.9c1.2,0.4,2.6,0.7,4.1,0.7
				c0.7,0,1.4,0,2.1-0.1c0.7-0.1,1.4-0.2,2.1-0.4c0.6-0.2,1.3-0.3,1.8-0.6c0.3-0.1,0.6-0.3,0.9-0.4v-9.2h-7v3.1h2.1
				c0.6,0,1.1,0.5,1.1,1.1v1.5c0,0.4-0.2,0.8-0.6,1c-0.3,0.2-0.6,0.3-1.1,0.3c-0.4,0.1-0.7,0.1-1,0.1c-1.9,0-3.4-0.6-4.3-1.7
				c-0.9-1.1-1.3-2.5-1.3-4.1c0-0.8,0.2-1.6,0.5-2.3c0.3-0.7,0.7-1.3,1.2-1.8c0.5-0.5,1.1-0.9,1.7-1.2c0.7-0.3,1.3-0.4,2-0.4
				c1,0,1.9,0.2,2.6,0.6c0.3,0.2,0.6,0.3,0.9,0.6l2.5-3c-0.6-0.5-1.4-0.9-2.3-1.2C271,216.2,269.7,215.9,268.2,215.9z M266.2,223.1
				c-0.2,0.2-0.4,0.5-0.5,0.8c-0.2,0.4-0.3,0.9-0.3,1.5c0,1.1,0.2,2,0.8,2.6V223.1z M269.4,222c-0.2,0-0.5-0.1-0.7-0.1
				c-0.2,0-0.4,0-0.6,0.1H269.4z"/>
			<path class="st1" d="M268.2,214.1c1.6,0,3.2,0.3,4.7,0.8c1.5,0.5,2.8,1.3,3.7,2.3c0.3,0.3,0.3,0.7,0,1l-3.5,4.2h3.2
				c0.4,0,0.7,0.3,0.7,0.7v11c0,0.3-0.1,0.5-0.4,0.6c-0.5,0.3-1.1,0.6-1.7,0.8c-0.6,0.2-1.3,0.5-2,0.6c-0.7,0.2-1.5,0.3-2.2,0.4
				c-0.8,0.1-1.6,0.2-2.4,0.2c-1.7,0-3.2-0.3-4.7-0.8c-1.4-0.5-2.7-1.3-3.8-2.3c-1.1-1-1.9-2.2-2.5-3.6c-0.6-1.4-0.9-3-0.9-4.7
				c0-1.7,0.3-3.3,0.9-4.7c0.6-1.4,1.4-2.6,2.5-3.6c1-1,2.3-1.8,3.7-2.3C265.1,214.4,266.6,214.1,268.2,214.1 M268.5,235.3
				c0.7,0,1.4,0,2.1-0.1c0.7-0.1,1.4-0.2,2.1-0.4c0.7-0.2,1.3-0.4,1.9-0.6c0.4-0.2,0.8-0.3,1.2-0.5v-9.8H268v3.8h2.5
				c0.4,0,0.7,0.3,0.7,0.7v1.5c0,0.3-0.1,0.5-0.4,0.6c-0.2,0.1-0.6,0.2-1,0.3c-0.3,0.1-0.7,0.1-1,0.1c-1.8,0-3.2-0.5-4.1-1.6
				c-0.8-1-1.3-2.3-1.3-3.9c0-0.8,0.1-1.5,0.4-2.2c0.3-0.6,0.7-1.2,1.1-1.7c0.5-0.5,1-0.8,1.6-1.1c0.6-0.3,1.2-0.4,1.9-0.4
				c0.9,0,1.8,0.2,2.4,0.5c0.4,0.2,0.8,0.5,1.1,0.7l3-3.6c-0.7-0.6-1.6-1.1-2.7-1.5c-1.3-0.5-2.7-0.7-4.2-0.7c-1.4,0-2.8,0.2-4,0.7
				c-1.2,0.5-2.3,1.1-3.2,2c-0.9,0.9-1.6,1.9-2.2,3.1c-0.5,1.2-0.8,2.6-0.8,4.1s0.3,2.9,0.8,4.1c0.5,1.2,1.3,2.2,2.2,3.1
				c0.9,0.8,2,1.5,3.3,2C265.6,235,267,235.3,268.5,235.3 M268.9,229.5c0.2,0,0.5,0,0.8-0.1c0,0,0.1,0,0.1,0v-0.3h-2.5
				c-0.4,0-0.7-0.3-0.7-0.7v-5.3c0-0.4,0.3-0.7,0.7-0.7h3.8c-0.2-0.2-0.4-0.3-0.7-0.4c-0.5-0.2-1.1-0.4-1.8-0.4
				c-0.4,0-0.9,0.1-1.3,0.3c-0.4,0.2-0.8,0.4-1.1,0.8c-0.3,0.3-0.6,0.8-0.8,1.2c-0.2,0.5-0.3,1-0.3,1.6c0,1.2,0.3,2.2,0.9,3
				C266.6,229.1,267.5,229.5,268.9,229.5 M268.2,213.4c-1.7,0-3.3,0.3-4.8,0.8c-1.5,0.6-2.8,1.4-3.9,2.4c-1.1,1.1-2,2.3-2.7,3.8
				c-0.6,1.5-1,3.1-1,5c0,1.8,0.3,3.5,1,5c0.6,1.5,1.6,2.8,2.7,3.8c1.1,1,2.5,1.9,4,2.4c1.5,0.5,3.2,0.8,4.9,0.8
				c0.8,0,1.6-0.1,2.5-0.2c0.8-0.1,1.6-0.3,2.3-0.4c0.7-0.2,1.5-0.4,2.1-0.7c0.7-0.3,1.3-0.6,1.9-0.9c0.4-0.3,0.7-0.7,0.7-1.3v-11
				c0-0.8-0.7-1.5-1.5-1.5h-1.7l2.5-3c0.5-0.6,0.4-1.4-0.1-2c-1-1-2.4-1.9-4-2.4C271.6,213.7,270,213.4,268.2,213.4L268.2,213.4z
				 M268.5,234.5c-1.4,0-2.8-0.2-4-0.6c-1.2-0.4-2.2-1-3-1.8c-0.8-0.8-1.5-1.7-2-2.8c-0.5-1.1-0.7-2.4-0.7-3.8
				c0-1.4,0.2-2.7,0.7-3.8c0.5-1.1,1.2-2.1,2-2.9c0.8-0.8,1.8-1.4,3-1.8c1.2-0.4,2.4-0.7,3.7-0.7c1.4,0,2.7,0.2,4,0.7
				c0.7,0.3,1.3,0.6,1.9,0.9l-2,2.5c-0.2-0.1-0.4-0.3-0.6-0.4c-0.8-0.4-1.7-0.6-2.8-0.6c-0.7,0-1.5,0.1-2.2,0.4
				c-0.7,0.3-1.3,0.7-1.9,1.3c-0.5,0.5-0.9,1.2-1.3,1.9c-0.3,0.7-0.5,1.6-0.5,2.5c0,1.7,0.5,3.2,1.4,4.4c1,1.2,2.6,1.8,4.6,1.8
				c0.4,0,0.7,0,1.1-0.1c0.5-0.1,0.9-0.2,1.2-0.4c0.5-0.3,0.8-0.7,0.8-1.3v-1.5c0-0.8-0.7-1.5-1.5-1.5h-1.8v-2.4h6.3v8.6
				c-0.2,0.1-0.5,0.2-0.7,0.3c-0.6,0.2-1.2,0.4-1.8,0.6c-0.6,0.2-1.3,0.3-2,0.4C269.9,234.5,269.2,234.5,268.5,234.5L268.5,234.5z
				 M265.8,226.1c0-0.2,0-0.4,0-0.6c0-0.2,0-0.3,0-0.5V226.1L265.8,226.1z"/>
		</g>
		<g>
			<path class="st0" d="M279.9,236.6c-0.6,0-1.1-0.5-1.1-1.1v-20.1c0-0.6,0.5-1.1,1.1-1.1h13.8c0.6,0,1.1,0.5,1.1,1.1v5.6
				c0,0.5-0.3,0.9-0.7,1c0.2,0.2,0.3,0.4,0.3,0.7v5.2c0,0.3-0.1,0.6-0.3,0.8h0.2c0.6,0,1.1,0.5,1.1,1.1v5.6c0,0.6-0.5,1.1-1.1,1.1
				H279.9z M293.1,234.4V231h-6.9c-0.6,0-1.1-0.5-1.1-1.1V228c0-0.6,0.5-1.1,1.1-1.1h5.9v-3.1h-5.9c-0.6,0-1.1-0.5-1.1-1.1V221
				c0-0.6,0.5-1.1,1.1-1.1h6.4v-3.4H281v17.9H293.1z"/>
			<path class="st1" d="M293.7,214.7c0.4,0,0.7,0.3,0.7,0.7v5.6c0,0.4-0.3,0.7-0.7,0.7h-6.7v0.3h6.3c0.4,0,0.7,0.3,0.7,0.7v5.2
				c0,0.4-0.3,0.7-0.7,0.7h-6.3v0.4h7.2c0.4,0,0.7,0.3,0.7,0.7v5.6c0,0.4-0.3,0.7-0.7,0.7h-14.3c-0.4,0-0.7-0.3-0.7-0.7v-20.1
				c0-0.4,0.3-0.7,0.7-0.7H293.7 M280.6,234.8h12.8v-4.2h-7.2c-0.4,0-0.7-0.3-0.7-0.7V228c0-0.4,0.3-0.7,0.7-0.7h6.3v-3.8h-6.3
				c-0.4,0-0.7-0.3-0.7-0.7V221c0-0.4,0.3-0.7,0.7-0.7h6.7v-4.2h-12.4V234.8 M293.7,213.9h-13.8c-0.8,0-1.5,0.7-1.5,1.5v20.1
				c0,0.8,0.7,1.5,1.5,1.5h14.3c0.8,0,1.5-0.7,1.5-1.5v-5.6c0-0.7-0.4-1.2-1-1.4c0.1-0.2,0.1-0.3,0.1-0.5v-5.2c0-0.2,0-0.4-0.1-0.6
				c0.3-0.3,0.6-0.7,0.6-1.2v-5.6C295.1,214.6,294.5,213.9,293.7,213.9L293.7,213.9z M281.3,216.9h10.9v2.7h-6
				c-0.8,0-1.5,0.7-1.5,1.5v1.7c0,0.8,0.7,1.5,1.5,1.5h5.5v2.3h-5.5c-0.8,0-1.5,0.7-1.5,1.5v1.9c0,0.8,0.7,1.5,1.5,1.5h6.5v2.7
				h-11.4V216.9L281.3,216.9z"/>
		</g>
		<g>
			<path class="st0" d="M307.2,237.2c-1.7,0-3.3-0.3-4.8-0.8c-1.5-0.6-2.8-1.4-3.9-2.4c-1.1-1-2-2.3-2.6-3.8
				c-0.6-1.5-0.9-3.1-0.9-4.8c0-1.8,0.3-3.4,0.9-4.8c0.6-1.4,1.5-2.7,2.6-3.7c1.1-1,2.4-1.8,3.9-2.3c1.5-0.5,3.1-0.8,4.8-0.8
				s3.3,0.3,4.8,0.8c1.5,0.5,2.8,1.3,3.9,2.3c1.1,1,2,2.2,2.6,3.7c0.6,1.4,0.9,3,0.9,4.8c0,1.8-0.3,3.4-0.9,4.8
				c-0.6,1.5-1.5,2.7-2.6,3.8c-1.1,1-2.4,1.8-3.9,2.4C310.6,236.9,308.9,237.2,307.2,237.2z M307.2,215.9c-1.5,0-2.8,0.2-4.1,0.7
				c-1.2,0.4-2.3,1.1-3.2,1.9c-0.9,0.8-1.6,1.8-2.1,2.9c-0.5,1.2-0.8,2.5-0.8,3.9c0,1.5,0.3,2.8,0.8,4c0.5,1.2,1.2,2.2,2.1,3
				c0.9,0.8,1.9,1.5,3.2,1.9c1.2,0.5,2.6,0.7,4,0.7s2.8-0.2,4-0.7c1.2-0.5,2.3-1.1,3.2-1.9c0.9-0.8,1.6-1.8,2.1-3
				c0.5-1.2,0.8-2.5,0.8-4c0-1.4-0.3-2.8-0.8-3.9c-0.5-1.1-1.2-2.1-2.1-2.9c-0.9-0.8-2-1.4-3.2-1.9
				C310,216.2,308.7,215.9,307.2,215.9z M307.2,230.9c-0.7,0-1.4-0.1-2-0.4c-0.6-0.3-1.2-0.7-1.6-1.2c-0.4-0.5-0.8-1.1-1-1.8
				c-0.2-0.7-0.4-1.4-0.4-2.2c0-0.8,0.1-1.5,0.4-2.2c0.3-0.7,0.6-1.3,1.1-1.7c0.5-0.5,1-0.9,1.6-1.1c0.6-0.3,1.3-0.4,2-0.4
				c0.7,0,1.4,0.1,2,0.4c0.6,0.3,1.2,0.6,1.6,1.1c0.5,0.5,0.8,1.1,1.1,1.7c0.2,0.7,0.4,1.4,0.4,2.2c0,0.8-0.1,1.5-0.4,2.2
				c-0.2,0.7-0.6,1.3-1.1,1.8c-0.5,0.5-1,0.9-1.6,1.2C308.6,230.8,307.9,230.9,307.2,230.9z M307.2,222.1c-0.4,0-0.8,0.1-1.2,0.2
				c-0.4,0.2-0.6,0.4-0.9,0.6c-0.2,0.3-0.4,0.6-0.6,1c-0.2,0.4-0.2,0.9-0.2,1.4c0,0.5,0.1,1,0.2,1.4c0.2,0.4,0.4,0.8,0.6,1.1
				c0.2,0.3,0.5,0.5,0.9,0.6c0.3,0.2,0.7,0.2,1.1,0.2l0,0c0.4,0,0.8-0.1,1.1-0.2c0.3-0.2,0.6-0.4,0.9-0.7c0.3-0.3,0.5-0.6,0.6-1.1
				c0.2-0.4,0.2-0.9,0.2-1.4c0-0.5-0.1-1-0.2-1.4c-0.1-0.4-0.3-0.7-0.6-1c-0.3-0.3-0.6-0.5-0.9-0.6
				C308,222.2,307.6,222.1,307.2,222.1z"/>
			<path class="st1" d="M307.2,214.1c1.7,0,3.2,0.3,4.7,0.8c1.4,0.5,2.7,1.3,3.8,2.2c1.1,1,1.9,2.2,2.5,3.6c0.6,1.4,0.9,2.9,0.9,4.6
				c0,1.7-0.3,3.3-0.9,4.7c-0.6,1.4-1.5,2.6-2.5,3.6c-1.1,1-2.3,1.8-3.8,2.3c-1.4,0.5-3,0.8-4.7,0.8c-1.7,0-3.2-0.3-4.7-0.8
				c-1.4-0.5-2.7-1.3-3.8-2.3c-1.1-1-1.9-2.2-2.5-3.6c-0.6-1.4-0.9-3-0.9-4.7c0-1.7,0.3-3.3,0.9-4.6c0.6-1.4,1.5-2.6,2.5-3.6
				c1.1-1,2.3-1.7,3.8-2.2C304,214.4,305.6,214.1,307.2,214.1 M307.2,235.3c1.5,0,2.9-0.2,4.2-0.7c1.3-0.5,2.4-1.2,3.3-2
				c0.9-0.9,1.7-1.9,2.2-3.1c0.5-1.2,0.8-2.6,0.8-4.1c0-1.5-0.3-2.9-0.8-4.1c-0.5-1.2-1.3-2.2-2.2-3.1c-0.9-0.8-2-1.5-3.3-2
				c-1.3-0.5-2.7-0.7-4.2-0.7c-1.5,0-2.9,0.2-4.2,0.7c-1.3,0.5-2.4,1.1-3.3,2c-0.9,0.8-1.6,1.9-2.2,3.1c-0.5,1.2-0.8,2.6-0.8,4.1
				c0,1.5,0.3,2.9,0.8,4.1c0.5,1.2,1.3,2.3,2.2,3.1c0.9,0.9,2,1.5,3.3,2C304.3,235.1,305.7,235.3,307.2,235.3 M307.2,220.3
				c0.6,0,1.3,0.1,1.9,0.4c0.6,0.2,1.1,0.6,1.5,1c0.4,0.4,0.8,1,1,1.6c0.2,0.6,0.3,1.3,0.3,2c0,0.7-0.1,1.4-0.3,2.1
				c-0.2,0.6-0.6,1.2-1,1.7c-0.4,0.5-0.9,0.8-1.5,1.1c-0.6,0.3-1.2,0.4-1.9,0.4c-0.7,0-1.3-0.1-1.9-0.4c-0.6-0.3-1.1-0.6-1.5-1.1
				c-0.4-0.5-0.7-1-1-1.7c-0.2-0.6-0.3-1.3-0.3-2.1c0-0.7,0.1-1.4,0.3-2c0.2-0.6,0.6-1.2,1-1.6c0.4-0.4,0.9-0.8,1.5-1
				C305.9,220.4,306.6,220.3,307.2,220.3 M307.2,229.1c0.4,0,0.9-0.1,1.3-0.3c0.4-0.2,0.7-0.4,1-0.7c0.3-0.3,0.5-0.7,0.7-1.2
				c0.2-0.5,0.3-1,0.3-1.6c0-0.6-0.1-1.1-0.3-1.5c-0.2-0.4-0.4-0.8-0.7-1.1c-0.3-0.3-0.6-0.5-1-0.7c-0.4-0.2-0.8-0.3-1.3-0.3
				c-0.5,0-0.9,0.1-1.3,0.3c-0.4,0.2-0.7,0.4-1,0.7c-0.3,0.3-0.5,0.7-0.7,1.1c-0.2,0.5-0.3,1-0.3,1.5c0,0.6,0.1,1.1,0.3,1.6
				c0.2,0.5,0.4,0.9,0.7,1.2c0.3,0.3,0.6,0.6,1,0.7C306.3,229,306.8,229.1,307.2,229.1 M307.2,213.4c-1.8,0-3.4,0.3-4.9,0.8
				c-1.5,0.6-2.9,1.4-4,2.4c-1.1,1-2,2.3-2.7,3.8c-0.6,1.5-1,3.1-1,4.9c0,1.8,0.3,3.5,1,5c0.6,1.5,1.5,2.8,2.7,3.9
				c1.1,1.1,2.5,1.9,4,2.5c1.5,0.6,3.2,0.9,4.9,0.9c1.8,0,3.4-0.3,4.9-0.9c1.5-0.6,2.9-1.4,4-2.5c1.1-1.1,2.1-2.4,2.7-3.9
				c0.6-1.5,1-3.2,1-5c0-1.8-0.3-3.5-1-4.9c-0.6-1.5-1.6-2.8-2.7-3.8c-1.1-1-2.5-1.8-4-2.4C310.6,213.6,309,213.4,307.2,213.4
				L307.2,213.4z M307.2,234.6c-1.4,0-2.7-0.2-3.9-0.7c-1.2-0.4-2.2-1.1-3-1.9c-0.8-0.8-1.5-1.8-2-2.9c-0.5-1.1-0.7-2.4-0.7-3.8
				c0-1.4,0.2-2.7,0.7-3.8c0.5-1.1,1.2-2,2-2.8c0.8-0.8,1.9-1.4,3-1.8c1.2-0.4,2.5-0.7,3.9-0.7c1.4,0,2.7,0.2,3.9,0.7
				c1.2,0.4,2.2,1,3.1,1.8c0.8,0.8,1.5,1.7,2,2.8c0.5,1.1,0.7,2.4,0.7,3.8c0,1.4-0.2,2.7-0.7,3.8c-0.5,1.1-1.2,2.1-2,2.9
				c-0.9,0.8-1.9,1.4-3.1,1.9C309.9,234.4,308.6,234.6,307.2,234.6L307.2,234.6z M307.2,219.6c-0.8,0-1.5,0.1-2.2,0.4
				c-0.7,0.3-1.3,0.7-1.8,1.2c-0.5,0.5-0.9,1.1-1.1,1.9c-0.3,0.7-0.4,1.5-0.4,2.3c0,0.8,0.1,1.6,0.4,2.3c0.3,0.7,0.6,1.4,1.1,1.9
				c0.5,0.6,1.1,1,1.8,1.3c0.7,0.3,1.4,0.5,2.2,0.5c0.8,0,1.5-0.2,2.2-0.5c0.7-0.3,1.3-0.7,1.7-1.3c0.5-0.5,0.9-1.2,1.1-1.9
				c0.3-0.7,0.4-1.5,0.4-2.3c0-0.8-0.1-1.6-0.4-2.3c-0.3-0.7-0.7-1.4-1.2-1.9c-0.5-0.5-1.1-0.9-1.7-1.2
				C308.7,219.7,308,219.6,307.2,219.6L307.2,219.6z M307.2,228.4c-0.4,0-0.7-0.1-1-0.2c-0.3-0.1-0.5-0.3-0.8-0.6
				c-0.2-0.3-0.4-0.6-0.5-1c-0.1-0.4-0.2-0.8-0.2-1.3c0-0.5,0.1-0.9,0.2-1.3c0.1-0.4,0.3-0.6,0.5-0.9c0.2-0.2,0.5-0.4,0.8-0.5
				c0.3-0.1,0.7-0.2,1-0.2c0.4,0,0.7,0.1,1,0.2c0.3,0.1,0.6,0.3,0.8,0.5c0.2,0.2,0.4,0.5,0.5,0.8c0.1,0.4,0.2,0.8,0.2,1.3
				c0,0.5-0.1,0.9-0.2,1.3c-0.1,0.4-0.3,0.7-0.5,0.9c-0.2,0.2-0.5,0.4-0.8,0.6C307.9,228.3,307.6,228.4,307.2,228.4L307.2,228.4z"/>
		</g>
		<g>
			<path class="st0" d="M323.6,236.6c-0.6,0-1.1-0.5-1.1-1.1v-13.3h-3.8c-0.6,0-1.1-0.5-1.1-1.1v-5.7c0-0.6,0.5-1.1,1.1-1.1h16.6
				c0.6,0,1.1,0.5,1.1,1.1v5.7c0,0.6-0.5,1.1-1.1,1.1h-3.8v13.3c0,0.6-0.5,1.1-1.1,1.1H323.6z M329.3,234.4v-13.3
				c0-0.6,0.5-1.1,1.1-1.1h3.8v-3.5h-14.4v3.5h3.8c0.6,0,1.1,0.5,1.1,1.1v13.3H329.3z"/>
			<path class="st1" d="M335.3,214.7c0.4,0,0.7,0.3,0.7,0.7v5.7c0,0.4-0.3,0.7-0.7,0.7h-4.2v13.7c0,0.4-0.3,0.7-0.7,0.7h-6.8
				c-0.4,0-0.7-0.3-0.7-0.7v-13.7h-4.2c-0.4,0-0.7-0.3-0.7-0.7v-5.7c0-0.4,0.3-0.7,0.7-0.7H335.3 M319.4,220.4h4.2
				c0.4,0,0.7,0.3,0.7,0.7v13.7h5.3v-13.7c0-0.4,0.3-0.7,0.7-0.7h4.2v-4.2h-15.2V220.4 M335.3,213.9h-16.6c-0.8,0-1.5,0.7-1.5,1.5
				v5.7c0,0.8,0.7,1.5,1.5,1.5h3.5v12.9c0,0.8,0.7,1.5,1.5,1.5h6.8c0.8,0,1.5-0.7,1.5-1.5v-12.9h3.5c0.8,0,1.5-0.7,1.5-1.5v-5.7
				C336.8,214.6,336.1,213.9,335.3,213.9L335.3,213.9z M320.2,216.9h13.7v2.8h-3.5c-0.8,0-1.5,0.7-1.5,1.5V234h-3.8v-12.9
				c0-0.8-0.7-1.5-1.5-1.5h-3.5V216.9L320.2,216.9z"/>
		</g>
		<g>
			<path class="st0" d="M343.8,236.6c-0.6,0-1.1-0.5-1.1-1.1v-5.2c0-0.3,0.1-0.6,0.4-0.9l6.5-5.2c-0.1,0-0.1,0-0.2,0l-0.1,0
				l-6.4-0.7c-0.6-0.1-1-0.6-1-1.2c0.1-1.5,0.5-2.7,1.2-3.8c0.6-1.1,1.4-2,2.3-2.7c0.9-0.7,2-1.2,3.1-1.6c1.1-0.3,2.3-0.5,3.4-0.5
				c1.1,0,2.2,0.1,3.2,0.4c1.1,0.3,2.1,0.7,3,1.3c0.9,0.6,1.6,1.4,2.2,2.4c0.6,1,0.9,2.2,0.9,3.5c0,0.9-0.1,1.8-0.4,2.6
				c-0.3,0.7-0.6,1.4-1,2c-0.4,0.6-0.9,1.1-1.4,1.5c-0.5,0.4-1,0.8-1.5,1.2l-0.2,0.1h3.5c0.6,0,1.1,0.5,1.1,1.1v5.6
				c0,0.6-0.5,1.1-1.1,1.1H343.8z M359,234.4v-3.5h-5.8c-0.5,0-0.9-0.3-1-0.8c-0.1-0.5,0-0.9,0.4-1.2l3-2.1c0.5-0.3,1-0.7,1.4-1.1
				c0.4-0.3,0.8-0.7,1.1-1.2c0.3-0.4,0.5-0.9,0.7-1.4c0.2-0.5,0.3-1.1,0.3-1.8c0-1-0.2-1.8-0.6-2.5c-0.4-0.7-0.9-1.2-1.5-1.7
				c-0.6-0.4-1.4-0.8-2.2-1c-0.9-0.2-1.8-0.3-2.7-0.3c-1,0-1.9,0.1-2.8,0.4c-0.9,0.3-1.7,0.7-2.4,1.2c-0.7,0.5-1.3,1.2-1.8,2
				c-0.3,0.5-0.6,1.2-0.7,1.9l4.3,0.5c0.1-0.5,0.4-0.9,0.7-1.3c0.6-0.7,1.3-1.1,2.2-1.1c0.8,0,1.5,0.3,2,0.8
				c0.4,0.5,0.6,1.1,0.6,1.7c0,0.5-0.2,1.1-0.5,1.6c-0.3,0.4-0.6,0.8-1,1.1l-7.5,6v3.6H359z M351.4,221.8c-0.2,0-0.4,0.1-0.5,0.3
				c-0.2,0.2-0.3,0.6-0.3,1.1c0,0.1,0,0.2-0.1,0.4l0.6-0.5c0.2-0.2,0.4-0.4,0.6-0.6c0.1-0.1,0.1-0.2,0.1-0.3c0-0.1,0-0.2-0.1-0.3
				l0,0C351.7,221.8,351.6,221.8,351.4,221.8z"/>
			<path class="st1" d="M352,214.1c1,0,2.1,0.1,3.1,0.4c1.1,0.3,2,0.7,2.8,1.3c0.8,0.6,1.5,1.3,2.1,2.3c0.5,0.9,0.8,2.1,0.8,3.4
				c0,0.9-0.1,1.7-0.4,2.4c-0.2,0.7-0.6,1.3-1,1.9c-0.4,0.5-0.9,1-1.4,1.5c-0.5,0.4-1,0.8-1.5,1.2l-1.1,0.8h4.6
				c0.4,0,0.7,0.3,0.7,0.7v5.6c0,0.4-0.3,0.7-0.7,0.7h-16.3c-0.4,0-0.7-0.3-0.7-0.7v-5.2c0-0.2,0.1-0.4,0.3-0.6l7.9-6.4c0,0,0,0,0,0
				c0.3-0.2,0.5-0.4,0.6-0.7c0.1-0.2,0.2-0.3,0.2-0.5c0-0.2-0.1-0.4-0.2-0.5c-0.1-0.1-0.4-0.2-0.6-0.2c-0.3,0-0.6,0.1-0.8,0.4
				c-0.3,0.3-0.4,0.8-0.4,1.3c0,0.2-0.1,0.4-0.3,0.5c-0.1,0.1-0.3,0.2-0.5,0.2c0,0-0.1,0-0.1,0l-6.4-0.7c-0.4,0-0.7-0.4-0.6-0.8
				c0.1-1.4,0.5-2.6,1.1-3.7c0.6-1,1.4-1.9,2.2-2.6c0.9-0.7,1.9-1.2,3-1.5C349.7,214.3,350.8,214.1,352,214.1 M348.8,222.3
				c0.1-0.6,0.3-1,0.7-1.4c0.5-0.6,1.2-0.9,1.9-0.9c0.7,0,1.3,0.2,1.7,0.7c0.3,0.4,0.5,0.9,0.5,1.5c0,0.5-0.1,0.9-0.4,1.4
				c-0.3,0.4-0.6,0.7-0.9,1l-7.7,6.1v4.2h14.8v-4.2h-6.2c-0.3,0-0.6-0.2-0.7-0.5c-0.1-0.3,0-0.6,0.3-0.8l3-2.1
				c0.5-0.3,1-0.7,1.4-1.1c0.4-0.4,0.8-0.8,1.1-1.2c0.3-0.4,0.6-0.9,0.8-1.5c0.2-0.6,0.3-1.2,0.3-2c0-1-0.2-1.9-0.6-2.6
				c-0.4-0.7-1-1.3-1.6-1.8c-0.7-0.5-1.5-0.8-2.4-1c-0.9-0.2-1.8-0.3-2.8-0.3c-1,0-2,0.1-2.9,0.4c-0.9,0.3-1.8,0.7-2.5,1.3
				c-0.7,0.6-1.4,1.3-1.9,2.1c-0.4,0.7-0.7,1.5-0.8,2.4L348.8,222.3 M352,213.4c-1.2,0-2.4,0.2-3.5,0.5c-1.2,0.3-2.3,0.9-3.2,1.6
				c-1,0.7-1.8,1.7-2.4,2.8c-0.7,1.1-1.1,2.5-1.2,4c-0.1,0.8,0.5,1.5,1.3,1.6l5.8,0.7l-5.8,4.6c-0.3,0.3-0.5,0.7-0.5,1.1v5.2
				c0,0.8,0.7,1.5,1.5,1.5h16.3c0.8,0,1.5-0.7,1.5-1.5v-5.6c0-0.8-0.7-1.5-1.5-1.5h-2.4c0.3-0.2,0.6-0.4,0.8-0.7
				c0.5-0.5,1-1,1.5-1.6c0.5-0.6,0.8-1.3,1.1-2.1c0.3-0.8,0.4-1.7,0.4-2.7c0-1.4-0.3-2.7-0.9-3.7c-0.6-1-1.4-1.9-2.3-2.5
				c-0.9-0.6-1.9-1.1-3.1-1.4C354.2,213.5,353.1,213.4,352,213.4L352,213.4z M344.7,221.1c0.1-0.5,0.3-1,0.6-1.4
				c0.4-0.8,1-1.4,1.7-1.9c0.7-0.5,1.4-0.9,2.3-1.1c0.9-0.3,1.8-0.4,2.7-0.4c0.9,0,1.7,0.1,2.6,0.3c0.8,0.2,1.5,0.5,2.1,0.9
				c0.6,0.4,1,0.9,1.4,1.5c0.3,0.6,0.5,1.4,0.5,2.3c0,0.7-0.1,1.2-0.2,1.7c-0.2,0.5-0.4,0.9-0.7,1.3c-0.3,0.4-0.6,0.8-1,1.1
				c-0.4,0.4-0.9,0.7-1.4,1.1l-3,2.1c-0.5,0.4-0.7,1-0.5,1.6c0.2,0.6,0.8,1,1.4,1h5.5v2.7h-13.4v-3.1l7.4-5.9
				c0.4-0.3,0.8-0.7,1.1-1.1c0.4-0.6,0.6-1.1,0.6-1.8c0-0.7-0.2-1.4-0.7-1.9c-0.4-0.4-1-1-2.2-1c-1,0-1.9,0.4-2.5,1.2
				c-0.3,0.3-0.5,0.7-0.6,1.1L344.7,221.1L344.7,221.1z M351,222.6c0-0.1,0.1-0.3,0.2-0.4c0.1-0.1,0.1-0.1,0.2-0.1c0,0,0,0,0,0
				c0,0,0,0,0,0.1C351.3,222.4,351.1,222.5,351,222.6L351,222.6z"/>
		</g>
		<g>
			<path class="st0" d="M371.7,237.2c-1.3,0-2.6-0.2-3.6-0.5c-1-0.4-2-0.9-2.7-1.5c-0.8-0.6-1.4-1.4-1.9-2.2
				c-0.5-0.8-0.9-1.6-1.2-2.5c-0.3-0.9-0.5-1.7-0.6-2.6c-0.1-0.9-0.2-1.7-0.2-2.5c0-0.8,0.1-1.6,0.2-2.5c0.1-0.9,0.3-1.7,0.6-2.6
				c0.3-0.9,0.7-1.7,1.2-2.5c0.5-0.8,1.1-1.5,1.9-2.1c0.8-0.6,1.7-1.1,2.7-1.4c1-0.3,2.2-0.5,3.6-0.5c2,0,3.7,0.4,5.1,1.2
				c1.3,0.8,2.4,1.7,3.1,2.9c0.7,1.1,1.2,2.4,1.5,3.8c0.3,1.3,0.4,2.6,0.4,3.7c0,0.8-0.1,1.6-0.2,2.5c-0.1,0.9-0.3,1.8-0.6,2.6
				c-0.3,0.9-0.7,1.7-1.1,2.5c-0.5,0.8-1.1,1.6-1.9,2.2c-0.8,0.6-1.7,1.1-2.7,1.5C374.3,237,373.1,237.2,371.7,237.2z M371.7,215.9
				c-1.1,0-2.1,0.1-2.9,0.4c-0.8,0.3-1.5,0.6-2,1.1c-0.6,0.5-1,1-1.4,1.6c-0.4,0.6-0.7,1.3-0.9,2c-0.2,0.7-0.4,1.4-0.5,2.2
				c-0.1,0.8-0.1,1.5-0.1,2.2c0,0.7,0,1.5,0.1,2.2c0.1,0.7,0.3,1.5,0.5,2.2c0.2,0.7,0.5,1.4,0.9,2c0.4,0.6,0.9,1.2,1.4,1.6
				c0.6,0.5,1.2,0.8,2,1.1c0.8,0.3,1.8,0.4,2.9,0.4s2.1-0.1,2.9-0.4c0.8-0.3,1.5-0.7,2.1-1.1c0.6-0.5,1-1,1.4-1.6
				c0.4-0.6,0.7-1.3,0.9-2c0.2-0.7,0.4-1.5,0.5-2.2c0.1-0.8,0.1-1.5,0.1-2.2c0-1-0.1-2.2-0.3-3.3c-0.2-1.1-0.6-2.1-1.2-3
				c-0.6-0.9-1.4-1.6-2.4-2.2C374.7,216.2,373.4,215.9,371.7,215.9z M371.7,231.3c-0.7,0-1.4-0.3-1.8-0.8c-0.4-0.4-0.7-0.9-0.9-1.5
				c-0.2-0.5-0.3-1.2-0.4-1.8c-0.1-0.6-0.1-1.2-0.1-1.8c0-0.6,0-1.2,0.1-1.7c0.1-0.6,0.2-1.2,0.4-1.8c0.2-0.6,0.5-1.1,0.9-1.5
				c0.5-0.5,1.1-0.8,1.8-0.8c0.7,0,1.3,0.3,1.8,0.8c0.4,0.4,0.7,0.9,0.9,1.5c0.2,0.5,0.3,1.1,0.3,1.7c0.1,0.6,0.1,1.2,0.1,1.7
				c0,0.6,0,1.2-0.1,1.8c-0.1,0.6-0.2,1.2-0.3,1.8c-0.2,0.6-0.5,1.2-0.9,1.6C373.1,231,372.5,231.3,371.7,231.3z M371.7,221.7
				c-0.1,0-0.2,0-0.2,0.1c-0.2,0.2-0.3,0.4-0.4,0.7c-0.1,0.4-0.2,0.8-0.3,1.3c-0.1,0.5-0.1,1-0.1,1.5c0,0.5,0,1,0.1,1.6
				c0,0.5,0.1,1,0.3,1.3c0.1,0.3,0.2,0.6,0.4,0.7c0,0,0.1,0.1,0.2,0.1c0.1,0,0.2,0,0.2-0.1c0.2-0.2,0.3-0.4,0.4-0.7
				c0.1-0.4,0.2-0.9,0.3-1.4c0.1-0.5,0.1-1.1,0.1-1.6c0-0.5,0-1-0.1-1.5c0-0.5-0.1-0.9-0.3-1.3c-0.1-0.3-0.2-0.5-0.4-0.7
				C371.9,221.8,371.9,221.7,371.7,221.7z"/>
			<path class="st1" d="M371.7,214.1c2,0,3.6,0.4,4.9,1.1c1.3,0.7,2.3,1.7,3,2.8c0.7,1.1,1.2,2.3,1.5,3.7c0.3,1.3,0.4,2.5,0.4,3.7
				c0,0.8-0.1,1.6-0.2,2.4c-0.1,0.9-0.3,1.7-0.6,2.6c-0.3,0.8-0.6,1.7-1.1,2.4c-0.5,0.8-1.1,1.5-1.8,2.1c-0.7,0.6-1.6,1.1-2.6,1.4
				c-1,0.3-2.2,0.5-3.5,0.5c-1.3,0-2.5-0.2-3.5-0.5c-1-0.3-1.9-0.8-2.6-1.4c-0.7-0.6-1.3-1.3-1.8-2.1c-0.5-0.8-0.9-1.6-1.1-2.4
				c-0.3-0.8-0.5-1.7-0.6-2.5c-0.1-0.8-0.2-1.7-0.2-2.4c0-0.8,0.1-1.6,0.2-2.4c0.1-0.9,0.3-1.7,0.6-2.5c0.3-0.8,0.7-1.6,1.1-2.4
				c0.5-0.8,1.1-1.4,1.8-2c0.7-0.6,1.6-1,2.6-1.4C369.3,214.3,370.4,214.1,371.7,214.1 M371.7,235.3c1.1,0,2.2-0.1,3-0.4
				c0.8-0.3,1.6-0.7,2.2-1.2c0.6-0.5,1.1-1.1,1.5-1.7c0.4-0.7,0.7-1.4,1-2.1c0.2-0.7,0.4-1.5,0.5-2.3c0.1-0.8,0.2-1.6,0.2-2.2
				c0-1.1-0.1-2.2-0.4-3.4c-0.2-1.1-0.7-2.2-1.3-3.2c-0.6-0.9-1.4-1.7-2.5-2.3c-1.1-0.6-2.5-0.9-4.2-0.9c-1.1,0-2.2,0.1-3,0.4
				c-0.8,0.3-1.6,0.7-2.2,1.1c-0.6,0.5-1.1,1-1.5,1.7c-0.4,0.6-0.7,1.3-1,2.1c-0.2,0.7-0.4,1.5-0.5,2.2c-0.1,0.8-0.2,1.5-0.2,2.2
				c0,0.7,0.1,1.5,0.2,2.3c0.1,0.8,0.3,1.5,0.5,2.3c0.2,0.7,0.6,1.4,1,2.1c0.4,0.6,0.9,1.2,1.5,1.7c0.6,0.5,1.3,0.9,2.2,1.2
				C369.6,235.2,370.6,235.3,371.7,235.3 M371.7,219.9c0.6,0,1.2,0.2,1.6,0.6c0.4,0.4,0.6,0.8,0.8,1.4c0.2,0.5,0.3,1.1,0.3,1.7
				c0.1,0.6,0.1,1.2,0.1,1.7c0,0.6,0,1.2-0.1,1.8c-0.1,0.6-0.2,1.2-0.3,1.7c-0.2,0.6-0.4,1.1-0.8,1.4c-0.4,0.4-1,0.7-1.6,0.7
				c-0.6,0-1.2-0.2-1.6-0.7c-0.3-0.4-0.6-0.8-0.8-1.4c-0.2-0.5-0.3-1.1-0.3-1.7c-0.1-0.6-0.1-1.2-0.1-1.8c0-0.6,0-1.1,0.1-1.7
				c0.1-0.6,0.2-1.2,0.3-1.7c0.2-0.6,0.4-1,0.8-1.4C370.6,220.1,371.1,219.9,371.7,219.9 M371.7,229.5c0.2,0,0.4-0.1,0.5-0.2
				c0.2-0.2,0.3-0.5,0.5-0.9c0.1-0.4,0.2-0.9,0.3-1.4c0.1-0.6,0.1-1.1,0.1-1.6c0-0.5,0-1-0.1-1.6c-0.1-0.5-0.1-1-0.3-1.4
				c-0.1-0.3-0.3-0.6-0.5-0.8c-0.1-0.1-0.3-0.2-0.5-0.2c-0.2,0-0.4,0.1-0.5,0.2c-0.2,0.2-0.3,0.5-0.5,0.8c-0.1,0.4-0.2,0.9-0.3,1.4
				c-0.1,0.5-0.1,1.1-0.1,1.6c0,0.5,0,1.1,0.1,1.6c0.1,0.5,0.1,1,0.3,1.4c0.1,0.4,0.3,0.7,0.5,0.9
				C371.4,229.4,371.5,229.5,371.7,229.5 M371.7,213.4c-1.4,0-2.6,0.2-3.7,0.5c-1.1,0.4-2,0.9-2.8,1.5c-0.8,0.6-1.5,1.4-2,2.2
				c-0.5,0.8-0.9,1.7-1.2,2.5c-0.3,0.9-0.5,1.8-0.6,2.7c-0.1,0.9-0.2,1.7-0.2,2.5c0,0.8,0.1,1.7,0.2,2.5c0.1,0.9,0.3,1.8,0.6,2.7
				c0.3,0.9,0.7,1.8,1.2,2.6c0.5,0.8,1.2,1.6,2,2.3c0.8,0.7,1.7,1.2,2.8,1.6c1.1,0.4,2.3,0.6,3.7,0.6c1.4,0,2.6-0.2,3.7-0.6
				c1.1-0.4,2-0.9,2.8-1.6c0.8-0.7,1.5-1.4,2-2.3c0.5-0.8,0.9-1.7,1.2-2.6c0.3-0.9,0.5-1.8,0.6-2.7c0.1-0.9,0.2-1.7,0.2-2.5
				c0-1.2-0.1-2.5-0.4-3.8c-0.3-1.4-0.8-2.7-1.6-3.9c-0.8-1.2-1.9-2.2-3.3-3C375.6,213.8,373.8,213.4,371.7,213.4L371.7,213.4z
				 M371.7,234.6c-1.1,0-2-0.1-2.8-0.4c-0.8-0.3-1.4-0.6-1.9-1.1c-0.5-0.4-1-1-1.3-1.5c-0.4-0.6-0.7-1.3-0.9-1.9
				c-0.2-0.7-0.4-1.4-0.5-2.1c-0.1-0.7-0.1-1.5-0.1-2.2c0-0.7,0-1.4,0.1-2.1c0.1-0.7,0.3-1.4,0.5-2.1c0.2-0.7,0.5-1.3,0.9-1.9
				c0.4-0.6,0.8-1.1,1.3-1.5c0.5-0.4,1.2-0.8,1.9-1c0.8-0.3,1.7-0.4,2.8-0.4c1.6,0,2.9,0.3,3.8,0.8c1,0.6,1.7,1.2,2.2,2.1
				c0.6,0.9,0.9,1.8,1.2,2.9c0.2,1.1,0.3,2.2,0.3,3.2c0,0.7,0,1.4-0.1,2.2c-0.1,0.7-0.3,1.5-0.5,2.2c-0.2,0.7-0.5,1.3-0.9,2
				c-0.3,0.6-0.8,1.1-1.3,1.5c-0.5,0.4-1.2,0.8-2,1.1C373.7,234.5,372.8,234.6,371.7,234.6L371.7,234.6z M371.7,219.2
				c-0.8,0-1.5,0.3-2.1,0.9c-0.4,0.4-0.7,1-0.9,1.6c-0.2,0.6-0.3,1.2-0.4,1.8c-0.1,0.6-0.1,1.2-0.1,1.8c0,0.6,0,1.2,0.1,1.8
				c0.1,0.7,0.2,1.3,0.4,1.9c0.2,0.7,0.5,1.2,0.9,1.7c0.5,0.6,1.3,0.9,2.1,0.9c0.8,0,1.6-0.3,2.1-0.9c0.4-0.5,0.8-1,1-1.7
				c0.2-0.6,0.3-1.2,0.4-1.9c0.1-0.6,0.1-1.2,0.1-1.8c0-0.6,0-1.2-0.1-1.8c-0.1-0.7-0.2-1.3-0.4-1.8c-0.2-0.7-0.5-1.2-1-1.7
				C373.3,219.5,372.6,219.2,371.7,219.2L371.7,219.2z M371.8,228.7c-0.1-0.1-0.2-0.3-0.3-0.6c-0.1-0.4-0.2-0.8-0.2-1.3
				c-0.1-0.5-0.1-1-0.1-1.5c0-0.5,0-1,0.1-1.5c0-0.4,0.1-0.9,0.2-1.2c0.1-0.2,0.2-0.4,0.3-0.5c0.1,0.1,0.2,0.3,0.3,0.5
				c0.1,0.4,0.2,0.8,0.2,1.2c0.1,0.5,0.1,1,0.1,1.5c0,0.5,0,1-0.1,1.5c0,0.5-0.1,0.9-0.2,1.3C371.9,228.4,371.9,228.6,371.8,228.7
				L371.8,228.7z"/>
		</g>
		<g>
			<path class="st0" d="M391.6,237.2c-1.1,0-2.2-0.1-3.3-0.4c-1.1-0.3-2.1-0.7-3-1.3c-0.9-0.6-1.7-1.4-2.2-2.3
				c-0.6-1-0.9-2.1-0.9-3.5c0-1.3,0.4-2.5,1.1-3.5c0.3-0.4,0.7-0.9,1.2-1.2c-0.3-0.3-0.6-0.6-0.9-0.9c-0.7-0.9-1.1-2-1.1-3.3
				c0-1.2,0.3-2.3,0.8-3.3c0.5-0.9,1.3-1.6,2.2-2.2c0.8-0.5,1.8-0.9,2.9-1.2c1-0.2,2.1-0.4,3.2-0.4c1.1,0,2.2,0.1,3.2,0.4
				c1.1,0.3,2.1,0.7,2.9,1.2c0.9,0.6,1.6,1.3,2.2,2.2c0.6,0.9,0.9,2,0.9,3.3c0,1.3-0.4,2.4-1,3.3c-0.3,0.4-0.6,0.7-0.9,0.9
				c0.4,0.3,0.8,0.7,1.1,1.1c0.8,1,1.2,2.2,1.2,3.6c0,1.3-0.3,2.5-0.9,3.5c-0.6,0.9-1.3,1.7-2.2,2.3c-0.9,0.6-1.9,1-3,1.3
				C393.8,237,392.7,237.2,391.6,237.2z M391.6,215.9c-0.9,0-1.8,0.1-2.7,0.3c-0.8,0.2-1.6,0.5-2.2,0.9c-0.6,0.4-1.1,0.9-1.5,1.5
				c-0.3,0.6-0.5,1.3-0.5,2.1c0,0.8,0.2,1.4,0.6,2c0.5,0.6,1,1,1.7,1.2c0.4,0.2,0.7,0.6,0.7,1c0,0.5-0.3,0.9-0.7,1.1
				c-0.8,0.3-1.5,0.8-2,1.5c-0.5,0.6-0.7,1.3-0.7,2.2c0,0.9,0.2,1.7,0.6,2.3c0.4,0.7,0.9,1.2,1.6,1.6c0.7,0.4,1.4,0.8,2.3,1
				c0.9,0.2,1.9,0.3,2.8,0.3l0,0c1,0,1.9-0.1,2.8-0.3c0.9-0.2,1.6-0.5,2.3-1c0.6-0.4,1.2-1,1.6-1.6c0.4-0.6,0.6-1.4,0.6-2.3
				c0-0.9-0.2-1.6-0.7-2.2c-0.5-0.6-1.1-1.1-1.9-1.4c-0.4-0.2-0.7-0.6-0.7-1c0-0.6,0.3-1,0.8-1.1c0.7-0.2,1.2-0.6,1.7-1.2
				c0.4-0.5,0.6-1.2,0.6-2c0-0.8-0.2-1.5-0.5-2.1c-0.4-0.6-0.9-1.1-1.5-1.5c-0.6-0.4-1.4-0.7-2.2-0.9
				C393.4,216,392.5,215.9,391.6,215.9z M391.6,232c-0.9,0-1.6-0.3-2.1-0.9c-0.5-0.5-0.7-1.2-0.7-1.9c0-0.7,0.2-1.3,0.7-1.9
				c0.5-0.6,1.2-0.9,2.2-0.9c0.9,0,1.6,0.3,2.2,0.9c0.5,0.5,0.7,1.2,0.7,1.9c0,0.7-0.2,1.3-0.7,1.9C393.2,231.8,392.5,232,391.6,232
				z M391.6,228.7c-0.1,0-0.4,0-0.5,0.1c-0.1,0.1-0.2,0.3-0.2,0.4c0,0.2,0,0.3,0.2,0.4c0.1,0.1,0.4,0.1,0.5,0.1c0.1,0,0.4,0,0.5-0.1
				c0.1-0.1,0.2-0.3,0.2-0.4c0-0.2-0.1-0.3-0.2-0.4C392,228.7,391.7,228.7,391.6,228.7z M391.6,224c-0.8,0-1.5-0.3-2-0.8
				c-0.5-0.5-0.7-1.1-0.7-1.8c0-0.6,0.3-1.2,0.7-1.8c0.5-0.5,1.2-0.8,2-0.8s1.5,0.3,2,0.8c0.5,0.5,0.7,1.1,0.7,1.8
				c0,0.7-0.2,1.3-0.7,1.8C393.1,223.7,392.4,224,391.6,224z M391.6,220.9c-0.3,0-0.4,0.1-0.4,0.1c-0.1,0.2-0.1,0.2-0.1,0.3
				c0,0,0,0.1,0.2,0.3c0,0,0.1,0.1,0.4,0.1c0.3,0,0.4-0.1,0.4-0.1c0.2-0.2,0.2-0.3,0.2-0.3c0,0,0-0.1-0.1-0.3
				C392,221,391.9,220.9,391.6,220.9z"/>
			<path class="st1" d="M391.6,214.1c1,0,2.1,0.1,3.1,0.4c1,0.2,2,0.6,2.8,1.1c0.8,0.5,1.5,1.2,2.1,2.1c0.5,0.9,0.8,1.9,0.8,3.1
				c0,1.2-0.3,2.2-1,3.1c-0.3,0.5-0.8,0.8-1.2,1.2c0.5,0.4,1,0.8,1.4,1.3c0.7,0.9,1.1,2.1,1.1,3.4c0,1.3-0.3,2.4-0.8,3.3
				c-0.5,0.9-1.3,1.6-2.1,2.2c-0.9,0.6-1.8,1-2.9,1.2c-1,0.2-2.1,0.4-3.2,0.4c-1.1,0-2.2-0.1-3.2-0.4c-1.1-0.2-2.1-0.7-2.9-1.2
				c-0.9-0.6-1.6-1.3-2.1-2.2c-0.5-0.9-0.8-2-0.8-3.3c0-1.3,0.4-2.4,1.1-3.3c0.4-0.6,0.9-1,1.5-1.4c-0.5-0.3-0.9-0.7-1.2-1.2
				c-0.7-0.9-1-1.9-1-3.1c0-1.2,0.3-2.2,0.8-3.1c0.5-0.9,1.2-1.6,2-2.1c0.8-0.5,1.8-0.9,2.8-1.1
				C389.5,214.2,390.5,214.1,391.6,214.1 M391.6,235.3c1,0,2-0.1,2.9-0.3c0.9-0.2,1.7-0.6,2.4-1c0.7-0.4,1.3-1,1.7-1.7
				c0.4-0.7,0.6-1.5,0.6-2.5c0-1-0.3-1.8-0.8-2.5c-0.6-0.7-1.2-1.2-2.1-1.5c-0.3-0.1-0.5-0.4-0.5-0.7V225c0-0.3,0.2-0.6,0.5-0.7
				c0.8-0.3,1.4-0.7,1.8-1.3c0.5-0.6,0.7-1.3,0.7-2.2c0-0.9-0.2-1.7-0.6-2.3c-0.4-0.7-0.9-1.2-1.6-1.6c-0.7-0.4-1.5-0.7-2.3-1
				c-0.9-0.2-1.8-0.3-2.8-0.3c-0.9,0-1.9,0.1-2.8,0.3c-0.9,0.2-1.7,0.5-2.4,1c-0.6,0.4-1.2,0.9-1.6,1.6c-0.4,0.6-0.6,1.4-0.6,2.3
				c0,0.9,0.2,1.6,0.7,2.2c0.5,0.6,1.1,1.1,1.8,1.4c0.3,0.1,0.5,0.4,0.5,0.7v0.1c0,0.3-0.2,0.6-0.4,0.7c-0.9,0.4-1.6,0.9-2.1,1.6
				c-0.5,0.7-0.8,1.5-0.8,2.4c0,1,0.2,1.8,0.6,2.5c0.4,0.7,1,1.3,1.7,1.7c0.7,0.5,1.5,0.8,2.4,1
				C389.6,235.2,390.6,235.3,391.6,235.3 M391.6,219.1c0.7,0,1.3,0.2,1.7,0.7c0.4,0.5,0.6,1,0.6,1.5c0,0.6-0.2,1.1-0.6,1.5
				c-0.4,0.5-1,0.7-1.8,0.7c-0.7,0-1.3-0.2-1.8-0.7c-0.4-0.5-0.6-1-0.6-1.5c0-0.6,0.2-1.1,0.6-1.5
				C390.3,219.4,390.9,219.1,391.6,219.1 M391.6,222.1c0.4,0,0.6-0.1,0.7-0.2c0.2-0.2,0.3-0.4,0.3-0.6c0-0.1,0-0.3-0.2-0.5
				c-0.1-0.1-0.3-0.2-0.7-0.2s-0.6,0.1-0.7,0.2c-0.2,0.2-0.2,0.4-0.2,0.5c0,0.1,0,0.3,0.3,0.6C391,222,391.2,222.1,391.6,222.1
				 M391.6,226.9c0.8,0,1.4,0.3,1.9,0.8c0.4,0.5,0.6,1,0.6,1.6c0,0.6-0.2,1.2-0.6,1.6c-0.4,0.5-1.1,0.7-1.9,0.7
				c-0.8,0-1.4-0.2-1.9-0.7c-0.4-0.5-0.6-1-0.6-1.6c0-0.6,0.2-1.2,0.6-1.6C390.2,227.2,390.8,226.9,391.6,226.9 M391.6,230.2
				c0.6,0,0.7-0.2,0.8-0.3c0.2-0.2,0.3-0.4,0.3-0.7c0-0.3-0.1-0.5-0.3-0.7c-0.1-0.1-0.2-0.3-0.8-0.3c-0.6,0-0.7,0.2-0.8,0.3
				c-0.2,0.2-0.3,0.4-0.3,0.7c0,0.3,0.1,0.5,0.3,0.7C390.9,230,391,230.2,391.6,230.2 M391.6,213.4L391.6,213.4
				c-1.1,0-2.2,0.1-3.3,0.4c-1.1,0.3-2.1,0.7-3,1.2c-0.9,0.6-1.7,1.4-2.3,2.3c-0.6,1-0.9,2.1-0.9,3.4c0,1.4,0.4,2.6,1.2,3.6
				c0.2,0.2,0.4,0.5,0.6,0.7c-0.3,0.3-0.7,0.6-0.9,1c-0.8,1.1-1.2,2.3-1.2,3.7c0,1.4,0.3,2.6,0.9,3.7c0.6,1,1.4,1.8,2.3,2.4
				c0.9,0.6,2,1,3.1,1.3c1.1,0.2,2.2,0.4,3.4,0.4c1.2,0,2.3-0.1,3.4-0.4c1.1-0.3,2.2-0.7,3.1-1.3c1-0.6,1.8-1.5,2.4-2.4
				c0.6-1,0.9-2.3,0.9-3.7c0-1.5-0.4-2.7-1.3-3.8c-0.3-0.3-0.5-0.6-0.8-0.9c0.2-0.2,0.4-0.5,0.6-0.7c0.7-1,1.1-2.2,1.1-3.5
				c0-1.3-0.3-2.5-0.9-3.5c-0.6-0.9-1.3-1.7-2.3-2.3c-0.9-0.6-1.9-1-3-1.2C393.8,213.5,392.7,213.4,391.6,213.4L391.6,213.4z
				 M391.6,234.6c-0.9,0-1.8-0.1-2.7-0.3c-0.8-0.2-1.6-0.5-2.2-0.9c-0.6-0.4-1.1-0.9-1.4-1.5c-0.3-0.6-0.5-1.3-0.5-2.2
				c0-0.8,0.2-1.4,0.6-1.9c0.5-0.6,1.1-1,1.8-1.4c0.5-0.2,0.9-0.8,0.9-1.3V225c0-0.6-0.4-1.1-0.9-1.4c-0.6-0.2-1.1-0.6-1.5-1.1
				c-0.4-0.5-0.6-1-0.6-1.7c0-0.8,0.2-1.4,0.5-1.9c0.3-0.6,0.8-1,1.3-1.4c0.6-0.4,1.3-0.7,2.1-0.9c0.9-0.2,1.7-0.3,2.6-0.3
				c0.9,0,1.7,0.1,2.6,0.3c0.8,0.2,1.5,0.5,2.1,0.9c0.6,0.4,1,0.8,1.4,1.4c0.3,0.5,0.5,1.2,0.5,1.9c0,0.7-0.2,1.3-0.5,1.8
				c-0.4,0.5-0.8,0.8-1.5,1c-0.6,0.2-1,0.8-1,1.4v0.1c0,0.6,0.4,1.2,0.9,1.4c0.7,0.3,1.3,0.7,1.8,1.3c0.4,0.6,0.6,1.2,0.6,2
				c0,0.9-0.2,1.6-0.5,2.2c-0.4,0.6-0.9,1.1-1.4,1.5c-0.6,0.4-1.4,0.7-2.2,0.9C393.4,234.5,392.5,234.6,391.6,234.6L391.6,234.6z
				 M391.6,218.4c-0.9,0-1.7,0.3-2.3,0.9c-0.6,0.6-0.8,1.3-0.8,2c0,0.7,0.3,1.4,0.8,2c0.6,0.6,1.4,1,2.3,1c0.9,0,1.7-0.3,2.3-1
				c0.5-0.6,0.8-1.3,0.8-2c0-0.7-0.3-1.4-0.8-2C393.3,218.7,392.5,218.4,391.6,218.4L391.6,218.4z M391.4,221.3c0,0,0.1,0,0.2,0
				c0.1,0,0.2,0,0.2,0c0,0,0,0,0,0c0,0,0,0,0,0c0,0,0,0,0,0c0,0,0,0-0.1,0C391.5,221.4,391.4,221.4,391.4,221.3
				C391.4,221.4,391.4,221.4,391.4,221.3C391.4,221.3,391.4,221.3,391.4,221.3C391.4,221.3,391.4,221.3,391.4,221.3L391.4,221.3z
				 M391.6,226.2c-1,0-1.9,0.4-2.4,1c-0.5,0.6-0.8,1.3-0.8,2.1c0,0.8,0.3,1.5,0.8,2.1c0.6,0.6,1.4,1,2.4,1c1,0,1.8-0.3,2.4-1
				c0.5-0.6,0.8-1.3,0.8-2.1c0-0.8-0.3-1.5-0.8-2.1C393.5,226.5,392.6,226.2,391.6,226.2L391.6,226.2z M391.4,229.1c0,0,0.1,0,0.2,0
				c0.1,0,0.2,0,0.2,0c0.1,0.1,0.1,0.1,0.1,0.2c0,0.1,0,0.1-0.1,0.2c0,0-0.1,0-0.3,0c-0.2,0-0.3,0-0.3,0c0,0,0-0.1,0-0.2
				C391.3,229.2,391.3,229.2,391.4,229.1C391.4,229.1,391.4,229.1,391.4,229.1L391.4,229.1z"/>
		</g>
	</g>
</g>
</svg>
