<?xml version="1.0" encoding="utf-8"?>
<!-- Generator: Adobe Illustrator 23.0.0, SVG Export Plug-In . SVG Version: 6.00 Build 0)  -->
<svg version="1.1" id="Layer_1" xmlns="http://www.w3.org/2000/svg" xmlns:xlink="http://www.w3.org/1999/xlink" x="0px" y="0px"
	 viewBox="0 0 600 500" style="enable-background:new 0 0 600 500;" xml:space="preserve">
<style type="text/css">
	.st0{fill:#FFFFFF;}
</style>
<g>
	<path class="st0" d="M83.3,196.7h11.4v2.7H80.3v-21.9h14v2.7h-11v6.5h10.3v2.6H83.3V196.7z"/>
	<path class="st0" d="M112.8,181.6c-0.4-0.6-1-1.1-1.8-1.5c-0.7-0.4-1.6-0.6-2.5-0.6c-0.5,0-1,0.1-1.5,0.2c-0.5,0.1-1,0.4-1.4,0.6
		c-0.4,0.3-0.7,0.7-1,1.1c-0.3,0.4-0.4,1-0.4,1.6c0,0.6,0.1,1.1,0.4,1.5c0.2,0.4,0.6,0.7,1,1s0.9,0.5,1.4,0.7
		c0.5,0.2,1.1,0.4,1.7,0.6c0.7,0.2,1.5,0.5,2.3,0.8c0.8,0.3,1.5,0.7,2.1,1.1c0.6,0.5,1.1,1.1,1.5,1.8c0.4,0.7,0.6,1.6,0.6,2.7
		c0,1.1-0.2,2.1-0.6,2.9c-0.4,0.8-1,1.5-1.7,2.1c-0.7,0.5-1.5,1-2.4,1.2c-0.9,0.3-1.9,0.4-2.8,0.4c-1.4,0-2.7-0.3-4-0.8
		c-1.3-0.5-2.4-1.3-3.2-2.4l2.4-2c0.5,0.8,1.2,1.4,2.1,1.9c0.9,0.5,1.8,0.7,2.8,0.7c0.5,0,1-0.1,1.5-0.2c0.5-0.1,1-0.4,1.4-0.7
		c0.4-0.3,0.8-0.7,1-1.2c0.3-0.5,0.4-1,0.4-1.7c0-0.7-0.1-1.2-0.4-1.7c-0.3-0.4-0.7-0.8-1.1-1.1c-0.5-0.3-1-0.6-1.7-0.8
		c-0.6-0.2-1.3-0.4-2-0.7c-0.7-0.2-1.4-0.5-2.1-0.8c-0.7-0.3-1.3-0.7-1.8-1.1c-0.5-0.5-1-1-1.3-1.7c-0.3-0.7-0.5-1.5-0.5-2.5
		c0-1.1,0.2-2,0.7-2.8c0.4-0.8,1-1.4,1.7-1.9c0.7-0.5,1.5-0.9,2.4-1.1c0.9-0.2,1.8-0.4,2.7-0.4c1.3,0,2.5,0.2,3.6,0.7
		c1.1,0.5,2,1.1,2.7,1.8L112.8,181.6z"/>
	<path class="st0" d="M136.4,199.4h-3.1v-21.9h3.1V199.4z"/>
	<path class="st0" d="M155.7,181.6c-0.4-0.6-1-1.1-1.8-1.5c-0.7-0.4-1.6-0.6-2.5-0.6c-0.5,0-1,0.1-1.5,0.2c-0.5,0.1-1,0.4-1.4,0.6
		c-0.4,0.3-0.7,0.7-1,1.1c-0.3,0.4-0.4,1-0.4,1.6c0,0.6,0.1,1.1,0.4,1.5c0.2,0.4,0.6,0.7,1,1s0.9,0.5,1.4,0.7
		c0.5,0.2,1.1,0.4,1.7,0.6c0.7,0.2,1.5,0.5,2.3,0.8c0.8,0.3,1.5,0.7,2.1,1.1c0.6,0.5,1.1,1.1,1.5,1.8c0.4,0.7,0.6,1.6,0.6,2.7
		c0,1.1-0.2,2.1-0.6,2.9c-0.4,0.8-1,1.5-1.7,2.1c-0.7,0.5-1.5,1-2.4,1.2c-0.9,0.3-1.9,0.4-2.8,0.4c-1.4,0-2.7-0.3-4-0.8
		c-1.3-0.5-2.4-1.3-3.2-2.4l2.4-2c0.5,0.8,1.2,1.4,2.1,1.9c0.9,0.5,1.8,0.7,2.8,0.7c0.5,0,1-0.1,1.5-0.2c0.5-0.1,1-0.4,1.4-0.7
		c0.4-0.3,0.8-0.7,1-1.2c0.3-0.5,0.4-1,0.4-1.7c0-0.7-0.1-1.2-0.4-1.7c-0.3-0.4-0.7-0.8-1.1-1.1c-0.5-0.3-1-0.6-1.7-0.8
		c-0.6-0.2-1.3-0.4-2-0.7c-0.7-0.2-1.4-0.5-2.1-0.8c-0.7-0.3-1.3-0.7-1.8-1.1c-0.5-0.5-1-1-1.3-1.7c-0.3-0.7-0.5-1.5-0.5-2.5
		c0-1.1,0.2-2,0.7-2.8c0.4-0.8,1-1.4,1.7-1.9c0.7-0.5,1.5-0.9,2.4-1.1c0.9-0.2,1.8-0.4,2.7-0.4c1.3,0,2.5,0.2,3.6,0.7
		c1.1,0.5,2,1.1,2.7,1.8L155.7,181.6z"/>
	<path class="st0" d="M172.7,199.4h-3.1v-19.2h-7v-2.7h17.1v2.7h-7V199.4z"/>
	<path class="st0" d="M198.8,196.7h11.4v2.7h-14.5v-21.9h14v2.7h-11v6.5h10.3v2.6h-10.3V196.7z"/>
	<path class="st0" d="M225.1,199.4H222v-19.2h-7v-2.7h17.1v2.7h-7V199.4z"/>
	<path class="st0" d="M243.8,195L243.8,195l5.2-17.4h3.4l5.1,17.4h0.1l4.8-17.4h3.2l-6.4,21.9H256l-5.3-17.6h-0.1l-5.3,17.6h-3.2
		l-6.4-21.9h3.3L243.8,195z"/>
	<path class="st0" d="M272.2,199.4h-3.4l9.5-21.9h2.8l9.4,21.9H287l-2.2-5.4h-10.4L272.2,199.4z M275.5,191.4h8.2l-4.1-10.3
		L275.5,191.4z"/>
	<path class="st0" d="M307.2,181.6c-0.4-0.6-1-1.1-1.8-1.5c-0.7-0.4-1.6-0.6-2.5-0.6c-0.5,0-1,0.1-1.5,0.2c-0.5,0.1-1,0.4-1.4,0.6
		c-0.4,0.3-0.7,0.7-1,1.1c-0.3,0.4-0.4,1-0.4,1.6c0,0.6,0.1,1.1,0.4,1.5c0.2,0.4,0.6,0.7,1,1s0.9,0.5,1.4,0.7
		c0.5,0.2,1.1,0.4,1.7,0.6c0.7,0.2,1.5,0.5,2.3,0.8c0.8,0.3,1.5,0.7,2.1,1.1c0.6,0.5,1.1,1.1,1.5,1.8c0.4,0.7,0.6,1.6,0.6,2.7
		c0,1.1-0.2,2.1-0.6,2.9c-0.4,0.8-1,1.5-1.7,2.1c-0.7,0.5-1.5,1-2.4,1.2c-0.9,0.3-1.9,0.4-2.8,0.4c-1.4,0-2.7-0.3-4-0.8
		c-1.3-0.5-2.4-1.3-3.2-2.4l2.4-2c0.5,0.8,1.2,1.4,2.1,1.9c0.9,0.5,1.8,0.7,2.8,0.7c0.5,0,1-0.1,1.5-0.2c0.5-0.1,1-0.4,1.4-0.7
		c0.4-0.3,0.8-0.7,1-1.2c0.3-0.5,0.4-1,0.4-1.7c0-0.7-0.1-1.2-0.4-1.7c-0.3-0.4-0.7-0.8-1.1-1.1c-0.5-0.3-1-0.6-1.7-0.8
		c-0.6-0.2-1.3-0.4-2-0.7c-0.7-0.2-1.4-0.5-2.1-0.8c-0.7-0.3-1.3-0.7-1.8-1.1c-0.5-0.5-1-1-1.3-1.7c-0.3-0.7-0.5-1.5-0.5-2.5
		c0-1.1,0.2-2,0.7-2.8c0.4-0.8,1-1.4,1.7-1.9c0.7-0.5,1.5-0.9,2.4-1.1c0.9-0.2,1.8-0.4,2.7-0.4c1.3,0,2.5,0.2,3.6,0.7
		c1.1,0.5,2,1.1,2.7,1.8L307.2,181.6z"/>
</g>
<g>
	<path class="st0" d="M77,216h17.3v51.1H77V216z"/>
	<path class="st0" d="M119,238.2l0.8,28.8h-16V216h22.4l9.2,27.5h0.4l8-27.5h23.2v51.1h-16.7l0.5-28.7l-0.4-0.1l-9.5,28.8h-12.1
		l-9.4-28.8H119z"/>
	<path class="st0" d="M227.9,240.5c1.2,0.3,2.4,0.8,3.5,1.4c1.2,0.6,2.2,1.5,3.1,2.5c0.9,1,1.6,2.1,2.2,3.4c0.5,1.3,0.8,2.7,0.8,4.3
		c0,2.8-0.6,5.1-1.7,7c-1.1,1.9-2.6,3.4-4.5,4.6c-1.9,1.2-4,2-6.3,2.5s-4.8,0.8-7.3,0.8h-23.1V216h21c2.1,0,4.3,0.2,6.6,0.5
		c2.3,0.3,4.5,0.9,6.5,1.9c2,0.9,3.6,2.3,4.9,4.1c1.3,1.8,1.9,4.2,1.9,7.1c0,2.7-0.7,5-2.1,6.8c-1.4,1.8-3.2,3.1-5.4,4V240.5z
		 M210.5,229.4v6.3h4.6c1.2,0,2.2-0.3,3-0.8c0.8-0.6,1.2-1.4,1.2-2.6c0-1-0.4-1.7-1.2-2.2c-0.8-0.5-1.9-0.7-3.2-0.7H210.5z
		 M210.5,246.7v6.9h5.1c1.3,0,2.4-0.3,3.3-0.9c0.8-0.6,1.3-1.5,1.3-2.6c0-0.7-0.2-1.2-0.5-1.7c-0.4-0.4-0.8-0.8-1.3-1
		c-0.5-0.3-1.1-0.4-1.7-0.5c-0.6-0.1-1.2-0.1-1.7-0.1H210.5z"/>
	<path class="st0" d="M267.4,268.5c-4,0-7.5-0.6-10.4-1.7c-3-1.1-5.4-2.6-7.4-4.5c-2-1.9-3.4-4.2-4.4-6.8c-1-2.6-1.4-5.4-1.4-8.5
		v-31h17.2v29.1c0,2.5,0.6,4.4,1.8,5.7c1.2,1.4,2.8,2.1,5,2.1s3.8-0.7,5-2.1c1.2-1.4,1.8-3.3,1.8-5.7V216h17.1v31
		c0,3-0.5,5.9-1.6,8.5c-1,2.6-2.6,4.9-4.6,6.8s-4.5,3.4-7.5,4.5C274.9,268,271.4,268.5,267.4,268.5z"/>
	<path class="st0" d="M317.1,268.5c-2.1,0-4.1-0.2-6.1-0.5c-2-0.4-3.9-0.9-5.8-1.6c-1.9-0.7-3.6-1.5-5.2-2.4c-1.6-0.9-3.1-2-4.4-3.1
		l10.5-11.4c1.2,1.3,2.8,2.5,4.8,3.5c2,1,4,1.5,6.2,1.5c1,0,1.8-0.2,2.6-0.5c0.8-0.3,1.2-1,1.2-1.9c0-0.5-0.1-0.9-0.4-1.2
		c-0.3-0.3-0.7-0.7-1.4-1c-0.7-0.4-1.6-0.8-2.8-1.2c-1.2-0.4-2.7-0.9-4.4-1.5c-1.7-0.6-3.4-1.3-5-2.1c-1.6-0.8-3-1.8-4.2-2.9
		c-1.2-1.2-2.2-2.5-2.9-4.2c-0.7-1.6-1.1-3.6-1.1-5.8c0-3.2,0.6-5.9,1.9-8.1c1.3-2.2,3-4,5-5.5c2-1.4,4.3-2.4,6.9-3.1
		c2.5-0.6,5.1-0.9,7.6-0.9c3.4,0,6.8,0.6,10.3,1.9c3.5,1.3,6.5,3.2,9.2,5.6L328.9,233c-1.2-1.4-2.6-2.5-4.3-3.3
		c-1.7-0.7-3.2-1.1-4.5-1.1c-1.3,0-2.3,0.2-3,0.5c-0.8,0.4-1.2,1-1.2,1.8c0,0.8,0.4,1.3,1.2,1.7c0.8,0.4,2.1,0.9,3.9,1.4
		c1.8,0.6,3.7,1.3,5.8,2c2,0.8,3.9,1.8,5.6,3c1.7,1.2,3.1,2.7,4.2,4.5c1.1,1.8,1.7,4,1.7,6.6c0,3.1-0.6,5.8-1.8,8
		c-1.2,2.3-2.8,4.2-4.8,5.7c-2,1.5-4.2,2.6-6.7,3.4C322.3,268.2,319.7,268.5,317.1,268.5z"/>
	<path class="st0" d="M342.6,241.6c0-4.1,0.7-7.8,2.2-11.1c1.4-3.3,3.4-6.2,5.9-8.5c2.5-2.4,5.4-4.2,8.8-5.4c3.4-1.3,7-1.9,10.9-1.9
		c3.9,0,7.7,0.6,11.2,1.9c3.5,1.3,6.4,3,8.8,5.2l-10.5,12.7c-1-1.3-2.2-2.2-3.6-2.8c-1.4-0.6-3.1-1-4.8-1c-1.4,0-2.8,0.3-4,0.8
		c-1.3,0.5-2.3,1.2-3.3,2.2c-0.9,1-1.7,2.1-2.2,3.5c-0.5,1.4-0.8,2.9-0.8,4.6s0.3,3.2,0.8,4.5c0.6,1.3,1.3,2.5,2.2,3.4
		c0.9,1,2,1.7,3.3,2.2c1.2,0.5,2.6,0.8,4,0.8c2,0,3.7-0.4,5.1-1.2c1.4-0.8,2.5-1.8,3.4-2.9l10.5,12.6c-2.3,2.3-5.1,4.1-8.5,5.5
		c-3.4,1.4-7.2,2.1-11.5,2.1c-3.8,0-7.5-0.6-10.9-1.9c-3.4-1.3-6.3-3.1-8.8-5.5c-2.5-2.4-4.5-5.2-5.9-8.5
		C343.3,249.3,342.6,245.6,342.6,241.6z"/>
	<path class="st0" d="M426.2,247.7h-14v19.4h-17.2V216h17.1v17.3h14V216h17.2v51.1h-17.2V247.7z"/>
	<path class="st0" d="M468.6,258.9c0-1.3,0.3-2.5,0.8-3.6c0.5-1.1,1.2-2.1,2.1-3c0.9-0.8,1.9-1.5,3.1-2c1.2-0.5,2.4-0.8,3.7-0.8
		c1.2,0,2.4,0.3,3.6,0.8c1.1,0.5,2.1,1.2,3,2c0.9,0.8,1.6,1.8,2.1,3c0.5,1.1,0.8,2.3,0.8,3.6s-0.3,2.5-0.8,3.7
		c-0.5,1.2-1.2,2.1-2.1,3c-0.9,0.8-1.9,1.5-3,1.9c-1.1,0.5-2.3,0.7-3.6,0.7c-1.3,0-2.5-0.2-3.7-0.7c-1.2-0.5-2.2-1.1-3.1-1.9
		c-0.9-0.8-1.6-1.8-2.1-3C468.9,261.5,468.6,260.2,468.6,258.9z M492.5,258.9c0-1.3,0.3-2.5,0.8-3.6c0.5-1.1,1.2-2.1,2.1-3
		c0.9-0.8,1.9-1.5,3.1-2c1.2-0.5,2.4-0.8,3.7-0.8c1.2,0,2.4,0.3,3.6,0.8c1.1,0.5,2.1,1.2,3,2c0.9,0.8,1.6,1.8,2.1,3
		c0.5,1.1,0.8,2.3,0.8,3.6s-0.3,2.5-0.8,3.7c-0.5,1.2-1.2,2.1-2.1,3c-0.9,0.8-1.9,1.5-3,1.9c-1.1,0.5-2.3,0.7-3.6,0.7
		c-1.3,0-2.5-0.2-3.7-0.7c-1.2-0.5-2.2-1.1-3.1-1.9c-0.9-0.8-1.6-1.8-2.1-3C492.8,261.5,492.5,260.2,492.5,258.9z M516.6,258.9
		c0-1.3,0.3-2.5,0.8-3.6c0.5-1.1,1.2-2.1,2.1-3c0.9-0.8,1.9-1.5,3.1-2c1.2-0.5,2.4-0.8,3.7-0.8c1.2,0,2.4,0.3,3.6,0.8
		c1.1,0.5,2.1,1.2,3,2c0.9,0.8,1.6,1.8,2.1,3c0.5,1.1,0.8,2.3,0.8,3.6s-0.3,2.5-0.8,3.7c-0.5,1.2-1.2,2.1-2.1,3
		c-0.9,0.8-1.9,1.5-3,1.9c-1.1,0.5-2.3,0.7-3.6,0.7c-1.3,0-2.5-0.2-3.7-0.7c-1.2-0.5-2.2-1.1-3.1-1.9c-0.9-0.8-1.6-1.8-2.1-3
		C516.8,261.5,516.6,260.2,516.6,258.9z"/>
</g>
</svg>
