<?xml version="1.0" encoding="utf-8"?>
<!-- Generator: Adobe Illustrator 23.0.0, SVG Export Plug-In . SVG Version: 6.00 Build 0)  -->
<svg version="1.1" id="Layer_1" xmlns="http://www.w3.org/2000/svg" xmlns:xlink="http://www.w3.org/1999/xlink" x="0px" y="0px"
	 viewBox="0 0 600 500" style="enable-background:new 0 0 600 500;" xml:space="preserve">
<style type="text/css">
	.st0{opacity:0.88;}
	.st1{fill:#FFFFFF;}
	.st2{fill:#5EB56A;}
</style>
<g>
	<g class="st0">
		<image style="overflow:visible;" width="346" height="170" xlink:href="76CD6950.png"  transform="matrix(1 0 0 1 116 28)">
		</image>
	</g>
	<g>
		<g>
			<path class="st1" d="M202.1,162c-3.8,0-7.2-0.6-10.3-1.9c-3-1.2-5.7-2.9-8.1-5c-2.3-2-4.4-4.4-6.3-7c-1.8-2.5-3.4-5.3-4.9-8.1
				c-1.4-2.8-2.8-5.6-4-8.5c-0.6-1.3-1.1-2.6-1.7-3.9l-0.4,1.2c-0.4,1.4-0.9,2.8-1.3,4.2c-0.5,1.5-0.9,2.8-1.3,3.9
				c-0.6,1.6-1.9,2.6-3.7,2.7c-0.3,0-0.5,0-0.8,0c-0.8,0-1.5-0.1-2.3-0.3c-1.1-0.3-2.1-0.8-2.9-1.6c-1.3-1.1-1.9-2.7-1.5-4.4
				c0.2-1,0.5-2.3,0.9-3.6c0.4-1.3,0.7-2.6,1.1-3.8c0.4-1.3,0.8-2.5,1.2-3.7c0.2-0.5,0.3-1,0.5-1.5c-1-1-1.9-2-2.6-3.2
				c-1.4-2-2-4.3-2-6.7c0-2.8,1-5.2,2.9-7.1c1.9-1.9,4.3-2.8,7.1-2.8c0.4,0,0.9,0,1.3,0.1l0.3-0.9c0.6-1.8,1.4-3.9,2.2-6.3
				c0.9-2.4,1.7-4.9,2.7-7.5c0.9-2.7,1.8-5.1,2.7-7.4c0.8-2.3,1.6-4.3,2.2-5.9c0.8-2.2,1.2-2.9,1.5-3.3c0.8-1.3,1.8-2.2,3-2.6
				c0.6-0.2,1.2-0.3,1.8-0.3c0.6,0,1.1,0.1,1.6,0.3c1.1,0.4,2,1.2,2.6,2.2c0.6,1,0.8,2.1,0.6,3.2c0,0,0,0,0,0
				c1.5-1.2,3.1-2.3,4.7-3.3c2.7-1.7,5.6-3.1,8.6-4.1c3.1-1.1,6.2-1.7,9.4-1.7c2.6,0,5.1,0.5,7.3,1.4c2.3,0.9,4.3,2.3,5.9,4
				c1.6,1.7,2.9,3.7,3.7,5.9c0.9,2.2,1.3,4.7,1.3,7.3c0,4.3-0.8,8.4-2.3,12.3c-1.5,3.8-3.6,7.3-6.2,10.4c-2.6,3.1-5.6,5.9-8.9,8.4
				c-3.3,2.5-6.9,4.6-10.6,6.3c-3.7,1.7-7.6,3.1-11.5,4.1c-2.5,0.6-4.9,1.1-7.2,1.4c0.8,1.9,1.7,3.9,2.7,6c1.6,3.5,3.4,6.8,5.6,9.8
				c2.1,3,4.5,5.5,7.2,7.5c2.4,1.8,5.2,2.7,8.4,2.7c1.4,0,2.8-0.1,4-0.4c1.3-0.3,2.6-0.6,3.7-0.9c1.1-0.3,2-0.7,2.9-1.1
				c0.8-0.4,1.5-0.7,1.9-1c0.5-0.3,1.2-0.5,1.8-0.5c0.5,0,1.1,0.1,1.6,0.4c0.8,0.4,1.4,0.9,2,1.7c0.4,0.5,0.6,1.2,0.8,1.8
				c0.4,1.4,0,2.7-0.9,3.6c-0.7,0.8-1.8,1.7-3.1,2.5c-1.2,0.8-2.6,1.6-4.2,2.3c-1.6,0.8-3.3,1.4-5.1,1.8
				C205.7,161.8,203.8,162,202.1,162z M166.6,123.3c0.2,0,0.3,0.1,0.4,0.2l0.5,1.2c0.9,1.9,1.7,3.9,2.6,6c1.2,2.8,2.5,5.7,4,8.4
				c1.4,2.8,3,5.4,4.8,7.9c1.8,2.5,3.8,4.8,6,6.7c2.2,2,4.8,3.6,7.6,4.7c2.8,1.1,6.1,1.7,9.6,1.7c1.6,0,3.3-0.2,5-0.7
				c1.7-0.4,3.3-1,4.7-1.7c1.5-0.7,2.8-1.4,3.9-2.2c1.2-0.8,2.1-1.6,2.8-2.3c0.5-0.5,0.7-1.2,0.5-1.9c-0.1-0.5-0.3-0.9-0.6-1.3
				c-0.3-0.5-0.7-0.8-1.2-1c-0.3-0.1-0.6-0.2-0.9-0.2c-0.3,0-0.6,0.1-0.9,0.2c-0.5,0.3-1.2,0.7-2.1,1.1c-0.9,0.4-1.9,0.8-3.1,1.2
				c-1.2,0.4-2.5,0.7-3.9,1c-1.4,0.3-2.8,0.4-4.4,0.4c-3.6,0-6.7-1-9.4-3.1c-2.8-2.1-5.4-4.8-7.6-7.9c-2.2-3.1-4.2-6.6-5.8-10.1
				c-1.2-2.6-2.2-5-3.1-7.2l-0.3-0.6c0-0.1,0-0.3,0-0.4c0.1-0.1,0.2-0.2,0.3-0.2l0.7-0.1c2.6-0.3,5.4-0.7,8.2-1.4
				c3.8-0.9,7.5-2.3,11.1-4c3.6-1.7,7.1-3.8,10.3-6.2c3.2-2.4,6.1-5.1,8.6-8.1c2.5-3,4.5-6.4,5.9-10c1.5-3.6,2.2-7.5,2.2-11.6
				c0-2.4-0.4-4.6-1.2-6.6c-0.8-2-1.9-3.8-3.4-5.3c-1.5-1.5-3.2-2.7-5.3-3.5c-2-0.8-4.3-1.2-6.6-1.2c-2.9,0-5.9,0.5-8.8,1.6
				c-2.8,1-5.6,2.4-8.2,4c-2.3,1.4-4.4,3-6.4,4.7l-1.2,1c-0.1,0.1-0.2,0.1-0.3,0.1c-0.1,0-0.1,0-0.2-0.1c-0.1-0.1-0.2-0.3-0.2-0.4
				l0.4-1.6c0.2-0.8,0.4-1.6,0.5-2.3c0.1-0.7-0.1-1.4-0.4-2.1c-0.4-0.7-1-1.2-1.7-1.4c-0.3-0.1-0.7-0.2-1-0.2
				c-0.4,0-0.8,0.1-1.2,0.2c-0.8,0.3-1.5,0.9-2,1.9c-0.2,0.3-0.5,0.9-1.3,3c-0.6,1.6-1.3,3.5-2.2,5.8c-0.8,2.3-1.7,4.8-2.7,7.4
				c-0.9,2.6-1.8,5.1-2.7,7.5c-0.8,2.4-1.6,4.5-2.2,6.3l-0.7,2.1c-0.1,0.2-0.2,0.3-0.4,0.3c0,0-0.1,0-0.1,0l-0.4-0.1
				c-0.5-0.1-1.1-0.2-1.7-0.2c-2.3,0-4.2,0.8-5.8,2.3c-1.6,1.5-2.4,3.5-2.4,5.8c0,2.1,0.6,4,1.7,5.7c0.8,1.2,1.8,2.3,2.8,3.3
				l0.2,0.2c0.1,0.1,0.2,0.3,0.1,0.4c0,0-0.5,1.6-0.8,2.3c-0.4,1.2-0.8,2.5-1.2,3.7c-0.4,1.3-0.8,2.5-1.1,3.8
				c-0.4,1.3-0.6,2.5-0.8,3.5c-0.2,1,0.1,1.9,0.9,2.6c0.6,0.6,1.4,1,2.2,1.2c0.6,0.2,1.2,0.3,1.8,0.3c0,0,0,0,0,0c0.2,0,0.4,0,0.6,0
				c1-0.1,1.8-0.7,2.2-1.6c0.4-1,0.8-2.3,1.3-3.8c0.4-1.4,0.9-2.9,1.3-4.2l1.5-4.7C166.3,123.5,166.4,123.3,166.6,123.3
				C166.6,123.3,166.6,123.3,166.6,123.3z M173.7,116.6c-0.2,0-0.3-0.1-0.4-0.2l-0.3-0.7c-0.3-0.7-0.7-1.5-1.1-2.3
				c-0.4-0.8-0.8-1.6-1.1-2.3l-0.4-0.8c-0.1-0.1-0.1-0.2,0-0.3l0.1-0.2c0.8-2.3,1.8-4.8,3-7.4c1.3-2.9,2.8-5.9,4.5-8.7
				c1.7-2.9,3.6-5.7,5.7-8.3c2.1-2.6,4.3-4.9,6.8-6.9c2.4-2,5-3.6,7.8-4.8c2.8-1.2,5.7-1.8,8.8-1.8c1.4,0,2.7,0.3,3.7,0.8
				c1.1,0.5,1.9,1.2,2.6,2.1c0.7,0.9,1.3,2,1.6,3.2c0.4,1.2,0.6,2.6,0.6,3.9c0,3.3-0.6,6.5-1.9,9.4c-1.3,3-3,5.8-5.1,8.3
				c-2.1,2.6-4.7,4.9-7.5,7c-2.9,2.1-6,3.9-9.1,5.3c-3.1,1.4-6.4,2.6-9.7,3.4c-2.8,0.7-5.5,1.1-8.1,1.2
				C174,116.6,173.7,116.6,173.7,116.6z M172.4,110.3c0.4,0.7,0.8,1.5,1.2,2.3c0.4,0.7,0.7,1.5,1,2.1c2.3-0.1,4.7-0.5,7.2-1.1
				c3.2-0.8,6.3-1.8,9.4-3.2c3-1.4,6-3.1,8.8-5.1c2.8-2,5.2-4.2,7.2-6.6c2-2.4,3.6-5.1,4.8-7.9c1.2-2.7,1.7-5.7,1.7-8.7
				c0-1.2-0.2-2.3-0.5-3.4c-0.3-1-0.8-1.9-1.3-2.6c-0.6-0.7-1.2-1.2-2.1-1.7c-0.8-0.4-1.7-0.6-2.9-0.6c-2.8,0-5.5,0.5-8.1,1.6
				c-2.6,1.1-5.1,2.6-7.3,4.5c-2.3,1.9-4.5,4.2-6.5,6.7c-2,2.6-3.9,5.3-5.5,8.1c-1.7,2.8-3.1,5.7-4.4,8.6c-1.1,2.4-2,4.7-2.8,6.9
				L172.4,110.3z"/>
			<path class="st2" d="M206.7,64c2.6,0,5,0.5,7.2,1.3c2.2,0.9,4.2,2.2,5.7,3.9c1.6,1.6,2.8,3.6,3.7,5.8c0.9,2.2,1.3,4.6,1.3,7.1
				c0,4.2-0.8,8.3-2.3,12.1c-1.5,3.7-3.6,7.2-6.1,10.3c-2.5,3.1-5.5,5.9-8.9,8.3c-3.3,2.4-6.8,4.6-10.5,6.3
				c-3.7,1.7-7.5,3.1-11.4,4.1c-2.6,0.7-5.2,1.1-7.7,1.4c0.9,2,1.8,4.2,2.9,6.5c1.6,3.5,3.5,6.8,5.7,9.9c2.1,3,4.6,5.5,7.3,7.6
				c2.5,1.9,5.3,2.8,8.6,2.8c1.4,0,2.8-0.1,4.1-0.4c1.4-0.3,2.6-0.6,3.7-0.9c1.1-0.3,2.1-0.7,2.9-1.1c0.8-0.4,1.5-0.8,1.9-1
				c0.5-0.3,1-0.5,1.6-0.5c0.5,0,1,0.1,1.4,0.3c0.7,0.3,1.3,0.8,1.8,1.5c0.3,0.5,0.6,1.1,0.8,1.7c0.3,1.2,0,2.4-0.8,3.2
				c-0.7,0.8-1.8,1.6-3.1,2.5c-1.2,0.8-2.6,1.6-4.1,2.3c-1.6,0.7-3.2,1.3-5,1.8c-1.8,0.5-3.6,0.7-5.4,0.7c-3.7,0-7.1-0.6-10.1-1.8
				c-3-1.2-5.7-2.9-8-4.9c-2.3-2-4.4-4.4-6.2-7c-1.8-2.5-3.4-5.2-4.9-8.1c-1.4-2.8-2.8-5.6-4-8.5c-0.7-1.6-1.4-3.3-2.1-4.8l-0.7,2.2
				c-0.4,1.4-0.9,2.8-1.3,4.2c-0.5,1.5-0.9,2.8-1.3,3.9c-0.5,1.4-1.7,2.3-3.3,2.5c-0.2,0-0.5,0-0.7,0c-0.7,0-1.5-0.1-2.2-0.3
				c-1-0.3-2-0.8-2.7-1.5c-1.2-1.1-1.7-2.5-1.4-4c0.2-1,0.5-2.3,0.9-3.6c0.4-1.3,0.7-2.6,1.1-3.8c0.4-1.3,0.8-2.5,1.2-3.7
				c0.2-0.6,0.4-1.2,0.6-1.8c-1-1-1.9-2.1-2.8-3.3c-1.3-1.9-2-4.1-2-6.5c0-2.7,0.9-5,2.8-6.8c1.8-1.8,4.1-2.7,6.8-2.7
				c0.5,0,1.1,0,1.6,0.1l0.4-1.2c0.6-1.8,1.4-3.9,2.2-6.3c0.8-2.3,1.7-4.8,2.7-7.5c0.9-2.7,1.8-5.1,2.7-7.4c0.8-2.3,1.6-4.3,2.2-5.8
				c0.9-2.2,1.2-2.9,1.4-3.2c0.7-1.2,1.7-2.1,2.8-2.4c0.6-0.2,1.1-0.3,1.7-0.3c0.5,0,1,0.1,1.5,0.3c1,0.4,1.8,1.1,2.4,2
				c0.5,0.9,0.7,2,0.6,2.9c0,0.3-0.1,0.7-0.2,1c1.7-1.4,3.6-2.7,5.5-3.9c2.7-1.7,5.6-3,8.5-4.1C200.5,64.6,203.6,64,206.7,64
				 M181.8,76.4l0.4-1.6c0.2-0.8,0.4-1.6,0.5-2.4c0.1-0.8-0.1-1.6-0.5-2.3c-0.4-0.8-1.1-1.3-1.9-1.6c-0.4-0.1-0.8-0.2-1.1-0.2
				c-0.4,0-0.9,0.1-1.3,0.2c-0.9,0.3-1.6,1-2.3,2c-0.2,0.3-0.5,0.9-1.4,3c-0.6,1.6-1.3,3.5-2.2,5.8c-0.8,2.3-1.7,4.8-2.7,7.4
				c-0.9,2.6-1.8,5.1-2.7,7.5c-0.8,2.4-1.6,4.5-2.2,6.3l-0.7,2.1l-0.4-0.1c-0.6-0.1-1.2-0.2-1.8-0.2c-2.4,0-4.4,0.8-6.1,2.4
				c-1.6,1.6-2.5,3.6-2.5,6.1c0,2.2,0.6,4.2,1.8,5.9c0.8,1.2,1.8,2.4,2.8,3.3l0.2,0.2l-0.1,0.3c-0.2,0.6-0.4,1.3-0.7,2
				c-0.4,1.2-0.8,2.5-1.2,3.7c-0.4,1.3-0.8,2.5-1.1,3.8c-0.4,1.3-0.6,2.5-0.8,3.5c-0.3,1.1,0.1,2.2,1.1,3c0.7,0.6,1.5,1,2.4,1.3
				c0.6,0.2,1.3,0.3,1.9,0.3c0.2,0,0.4,0,0.6,0c1.2-0.1,2.1-0.8,2.5-1.8c0.4-1,0.8-2.3,1.3-3.8c0.4-1.4,0.9-2.9,1.3-4.2l1.5-4.7
				l0.5,1.2c0.9,1.9,1.8,3.9,2.6,6c1.2,2.8,2.5,5.7,4,8.4c1.4,2.8,3,5.5,4.8,8c1.8,2.5,3.8,4.8,6,6.8c2.3,2,4.9,3.6,7.7,4.8
				c2.9,1.2,6.2,1.8,9.7,1.8c1.7,0,3.4-0.2,5.1-0.7c1.7-0.4,3.3-1,4.8-1.7c1.5-0.7,2.8-1.5,4-2.2c1.2-0.8,2.2-1.6,2.9-2.3
				c0.6-0.6,0.8-1.4,0.5-2.3c-0.1-0.5-0.4-1-0.6-1.4c-0.4-0.5-0.8-0.9-1.4-1.2c-0.3-0.2-0.7-0.2-1-0.2c-0.4,0-0.8,0.1-1.1,0.3
				c-0.5,0.3-1.2,0.7-2,1.1c-0.9,0.4-1.9,0.8-3,1.2c-1.2,0.4-2.5,0.7-3.9,1c-1.3,0.3-2.8,0.4-4.3,0.4c-3.5,0-6.5-1-9.2-3
				c-2.8-2.1-5.3-4.7-7.5-7.8c-2.2-3.1-4.2-6.5-5.8-10c-1.2-2.6-2.2-5-3.1-7.2l-0.3-0.6l0.7-0.1c2.7-0.3,5.4-0.7,8.2-1.4
				c3.8-1,7.6-2.3,11.2-4c3.6-1.7,7.1-3.8,10.4-6.2c3.3-2.4,6.2-5.2,8.7-8.2c2.5-3,4.5-6.4,6-10.1c1.5-3.7,2.2-7.6,2.2-11.7
				c0-2.4-0.4-4.7-1.2-6.8c-0.8-2.1-2-3.9-3.5-5.5c-1.5-1.6-3.3-2.8-5.4-3.6c-2.1-0.8-4.4-1.3-6.8-1.3c-3,0-6,0.5-8.9,1.6
				c-2.9,1-5.7,2.4-8.3,4c-2.3,1.4-4.5,3-6.5,4.7L181.8,76.4 M206.9,72.4c1.4,0,2.5,0.3,3.5,0.8c1,0.5,1.8,1.2,2.5,2
				c0.7,0.8,1.2,1.9,1.6,3c0.4,1.2,0.6,2.5,0.6,3.8c0,3.3-0.6,6.4-1.9,9.3c-1.3,2.9-3,5.7-5,8.2c-2.1,2.5-4.6,4.8-7.5,6.9
				c-2.9,2.1-5.9,3.8-9,5.3c-3.1,1.4-6.4,2.6-9.6,3.3c-2.8,0.7-5.5,1-8,1.1l-0.3,0l-0.3-0.7c-0.3-0.7-0.7-1.5-1.1-2.3
				c-0.4-0.8-0.8-1.6-1.1-2.3l-0.4-0.8l0.1-0.2c0.8-2.3,1.8-4.8,3-7.3c1.3-2.9,2.8-5.8,4.5-8.7c1.7-2.9,3.6-5.6,5.6-8.2
				c2.1-2.6,4.3-4.9,6.7-6.9c2.4-2,4.9-3.5,7.7-4.7C201,73,203.9,72.4,206.9,72.4 M174.3,115.2c2.4-0.1,4.9-0.5,7.5-1.1
				c3.2-0.8,6.4-1.9,9.4-3.3c3.1-1.4,6-3.1,8.9-5.2c2.8-2,5.2-4.3,7.3-6.7c2-2.4,3.7-5.1,4.9-8c1.2-2.8,1.8-5.8,1.8-8.9
				c0-1.2-0.2-2.4-0.5-3.5c-0.3-1-0.8-2-1.4-2.7c-0.6-0.7-1.3-1.3-2.2-1.8c-0.8-0.4-1.9-0.6-3.1-0.6c-2.9,0-5.6,0.6-8.2,1.6
				c-2.7,1.1-5.2,2.7-7.4,4.5c-2.3,1.9-4.5,4.2-6.6,6.7c-2,2.6-3.9,5.3-5.5,8.1c-1.7,2.8-3.1,5.7-4.4,8.6c-1.1,2.5-2.1,4.9-2.9,7.1
				l0.2,0.4c0.4,0.7,0.8,1.5,1.2,2.3C173.6,113.7,173.9,114.4,174.3,115.2L174.3,115.2 M206.7,63.2c-3.2,0-6.4,0.6-9.5,1.7
				c-3,1.1-5.9,2.5-8.6,4.2c-1.4,0.8-2.7,1.8-4,2.7c0-0.9-0.3-1.8-0.7-2.6c-0.7-1.1-1.6-2-2.8-2.4c-0.6-0.2-1.1-0.3-1.8-0.3
				c-0.6,0-1.3,0.1-2,0.3c-1.3,0.4-2.3,1.4-3.2,2.8c-0.3,0.4-0.7,1.2-1.5,3.3c-0.6,1.6-1.3,3.5-2.2,5.9c-0.9,2.4-1.8,4.9-2.7,7.4
				c-0.9,2.6-1.8,5.1-2.6,7.4l0,0.1c-0.8,2.4-1.6,4.5-2.2,6.3l-0.2,0.6c-0.3,0-0.7-0.1-1-0.1c-2.9,0-5.3,1-7.3,2.9c-2,2-3,4.4-3,7.3
				c0,2.5,0.7,4.9,2.1,6.9c0.7,1.1,1.6,2.1,2.5,3.1c-0.1,0.4-0.3,0.8-0.4,1.3c-0.4,1.2-0.8,2.5-1.2,3.7c-0.4,1.3-0.8,2.6-1.1,3.8
				c-0.4,1.3-0.7,2.6-0.9,3.6c-0.4,1.7,0.2,3.5,1.6,4.7c0.9,0.8,1.9,1.3,3.1,1.7c0.8,0.2,1.6,0.3,2.4,0.3c0.3,0,0.5,0,0.8,0
				c1.9-0.2,3.4-1.3,4-3c0.4-1.1,0.8-2.4,1.3-3.9c0.4-1.4,0.9-2.8,1.3-4.2l0.1-0.2c0.4,1,0.8,1.9,1.2,2.9c1.2,2.9,2.6,5.7,4,8.5
				c1.5,2.9,3.1,5.6,4.9,8.2c1.9,2.7,4,5,6.3,7.1c2.4,2.1,5.2,3.8,8.2,5.1c3.1,1.3,6.6,1.9,10.4,1.9c1.8,0,3.7-0.2,5.6-0.7
				c1.8-0.5,3.5-1.1,5.1-1.9c1.5-0.7,3-1.5,4.2-2.3c1.4-0.9,2.4-1.8,3.2-2.6c1-1,1.4-2.5,1-4c-0.2-0.7-0.5-1.3-0.9-1.9
				c-0.5-0.8-1.3-1.4-2.1-1.8c-0.6-0.3-1.2-0.4-1.8-0.4c-0.8,0-1.5,0.2-2.1,0.6c-0.4,0.2-1,0.6-1.8,1c-0.8,0.4-1.7,0.7-2.8,1.1
				c-1.1,0.3-2.3,0.7-3.7,0.9c-1.2,0.2-2.6,0.4-3.9,0.4c-3.1,0-5.8-0.9-8.1-2.6c-2.6-2-5-4.5-7.1-7.4c-2.2-3-4-6.3-5.6-9.7
				c-0.9-1.9-1.7-3.8-2.4-5.6c2.2-0.3,4.5-0.7,6.8-1.3c3.9-1,7.8-2.4,11.5-4.1c3.7-1.8,7.3-3.9,10.7-6.4c3.4-2.5,6.4-5.4,9-8.5
				c2.6-3.2,4.7-6.7,6.3-10.5c1.6-3.9,2.4-8.1,2.4-12.4c0-2.7-0.4-5.2-1.3-7.4c-0.9-2.3-2.2-4.3-3.8-6.1c-1.7-1.7-3.7-3.1-6-4.1
				C211.9,63.7,209.4,63.2,206.7,63.2L206.7,63.2z M181.8,77.2c0.2,0,0.4-0.1,0.5-0.2l1.2-1c2-1.7,4.2-3.3,6.4-4.6
				c2.6-1.6,5.3-2.9,8.2-3.9c2.8-1,5.7-1.5,8.6-1.5c2.3,0,4.5,0.4,6.5,1.2c2,0.8,3.7,2,5.1,3.5c1.4,1.5,2.5,3.2,3.3,5.2
				c0.8,2,1.2,4.2,1.2,6.5c0,4-0.7,7.8-2.2,11.4c-1.4,3.6-3.4,6.9-5.9,9.9c-2.4,3-5.3,5.7-8.5,8c-3.2,2.4-6.6,4.4-10.2,6.1
				c-3.6,1.7-7.3,3-11.1,4c-2.8,0.7-5.5,1.2-8.1,1.4l-0.7,0.1c-0.3,0-0.5,0.2-0.6,0.4c-0.1,0.2-0.1,0.5-0.1,0.7l0.3,0.6
				c0.9,2.2,2,4.6,3.1,7.2c1.6,3.6,3.6,7,5.8,10.2c2.2,3.1,4.8,5.8,7.7,8c2.8,2.1,6,3.1,9.7,3.1c1.6,0,3.1-0.1,4.5-0.4
				c1.4-0.3,2.7-0.6,3.9-1c1.2-0.4,2.2-0.8,3.1-1.2c0.9-0.4,1.6-0.8,2.1-1.1c0.2-0.1,0.4-0.2,0.7-0.2c0.2,0,0.5,0.1,0.7,0.2
				c0.4,0.2,0.8,0.5,1,0.9c0.2,0.4,0.4,0.7,0.5,1.2c0.2,0.6,0,1.1-0.3,1.5c-0.7,0.7-1.6,1.5-2.8,2.2c-1.2,0.8-2.5,1.5-3.9,2.2
				c-1.4,0.7-3,1.3-4.7,1.7c-1.7,0.4-3.3,0.7-4.9,0.7c-3.5,0-6.7-0.6-9.4-1.7c-2.8-1.1-5.3-2.7-7.5-4.6c-2.2-1.9-4.2-4.2-5.9-6.7
				c-1.7-2.5-3.3-5.1-4.7-7.9c-1.4-2.7-2.7-5.5-3.9-8.4c-0.9-2.1-1.8-4.1-2.6-6l-0.5-1.2c-0.1-0.3-0.4-0.5-0.7-0.5c0,0,0,0,0,0
				c-0.3,0-0.6,0.2-0.7,0.6l-1.5,4.7c-0.5,1.4-0.9,2.8-1.4,4.2c-0.5,1.5-0.9,2.7-1.3,3.8c-0.3,0.8-0.9,1.2-1.8,1.3
				c-0.2,0-0.4,0-0.6,0c-0.6,0-1.1-0.1-1.7-0.2c-0.8-0.2-1.5-0.6-2.1-1.1c-0.7-0.6-1-1.4-0.8-2.2c0.2-1,0.5-2.2,0.8-3.5
				c0.3-1.2,0.7-2.4,1.1-3.8c0.4-1.3,0.8-2.5,1.2-3.7c0.2-0.7,0.4-1.4,0.7-2l0.1-0.3c0.1-0.3,0-0.6-0.2-0.8l-0.2-0.2
				c-1-0.9-1.9-2-2.7-3.2c-1.1-1.6-1.7-3.5-1.7-5.5c0-2.2,0.8-4,2.2-5.5c1.5-1.4,3.3-2.2,5.5-2.2c0.5,0,1.1,0.1,1.6,0.2l0.4,0.1
				c0.1,0,0.1,0,0.2,0c0.3,0,0.6-0.2,0.8-0.5l0.7-2.1c0.6-1.8,1.4-3.9,2.2-6.3c0.8-2.4,1.7-4.8,2.7-7.5c0.9-2.6,1.8-5.1,2.7-7.4
				c0.8-2.3,1.6-4.2,2.2-5.8c0.8-2.1,1.1-2.6,1.3-2.9c0.5-0.9,1.2-1.5,1.9-1.7c0.4-0.1,0.7-0.2,1.1-0.2c0.3,0,0.6,0,0.9,0.1
				c0.6,0.2,1.1,0.6,1.4,1.2c0.3,0.6,0.5,1.2,0.4,1.8c-0.1,0.7-0.3,1.5-0.5,2.3l-0.4,1.6c-0.1,0.3,0,0.7,0.3,0.9
				C181.5,77.1,181.6,77.2,181.8,77.2L181.8,77.2z M206.9,71.6c-3.1,0-6.1,0.6-8.9,1.8c-2.8,1.2-5.5,2.8-7.9,4.8
				c-2.4,2-4.7,4.4-6.8,7c-2.1,2.6-4,5.4-5.7,8.3c-1.7,2.9-3.2,5.9-4.5,8.8c-1.2,2.6-2.2,5.1-3,7.4L170,110c-0.1,0.2-0.1,0.4,0,0.6
				l0.4,0.8c0.4,0.7,0.7,1.4,1.1,2.2c0.4,0.8,0.7,1.6,1.1,2.3l0.3,0.7c0.1,0.3,0.4,0.5,0.7,0.5c0,0,0,0,0,0l0.3,0
				c2.6-0.1,5.4-0.5,8.2-1.2c3.3-0.8,6.6-1.9,9.8-3.4c3.2-1.5,6.2-3.3,9.2-5.3c2.9-2.1,5.5-4.5,7.6-7c2.1-2.6,3.9-5.4,5.2-8.4
				c1.3-3,1.9-6.2,1.9-9.6c0-1.4-0.2-2.8-0.6-4c-0.4-1.3-1-2.4-1.7-3.3c-0.8-0.9-1.7-1.7-2.8-2.2C209.7,71.9,208.4,71.6,206.9,71.6
				L206.9,71.6z M172.7,110.1c0.8-2.1,1.7-4.3,2.7-6.7c1.3-2.8,2.7-5.7,4.4-8.5c1.6-2.8,3.5-5.5,5.5-8c2-2.5,4.1-4.7,6.4-6.6
				c2.2-1.8,4.7-3.3,7.2-4.4c2.5-1,5.1-1.6,7.9-1.6c1.1,0,2,0.2,2.7,0.6c0.8,0.4,1.4,0.9,1.9,1.6c0.5,0.7,1,1.5,1.3,2.4
				c0.3,1,0.5,2.1,0.5,3.3c0,3-0.6,5.9-1.7,8.6c-1.2,2.8-2.8,5.4-4.8,7.8c-2,2.4-4.4,4.6-7.1,6.6c-2.8,2-5.7,3.7-8.7,5.1
				c-3,1.4-6.1,2.5-9.3,3.2c-2.3,0.6-4.6,0.9-6.8,1.1c-0.3-0.6-0.6-1.2-0.9-1.9C173.5,111.7,173.1,110.9,172.7,110.1L172.7,110.1
				L172.7,110.1z"/>
		</g>
		<g>
			<path class="st1" d="M223,138.5c-1.6,0-3-0.3-4.1-0.9c-1.2-0.7-2.1-1.6-2.7-2.7c0,0,0-0.1-0.1-0.1c-1.3,0.8-2.6,1.4-4,1.7
				c-0.8,0.2-1.6,0.3-2.4,0.3c-0.7,0-1.4-0.1-2.1-0.2c-1.9-0.4-3.3-1.6-4.2-3.4c-0.6-1.4-0.8-3.1-0.6-5c0.2-1.5,0.6-3.1,1.1-4.7
				c0.5-1.6,1.2-3.1,2-4.5c0.8-1.5,1.6-2.7,2.4-3.5c1.4-1.6,2.9-2,4-2c0.5,0,0.9,0.1,1.1,0.1c3.3,0.7,3.7,2.8,3.7,3.7
				c0,0.8-0.2,1.7-0.7,2.6c-0.3,0.6-0.8,1.7-1.5,3c-0.2,0.5-0.5,1-0.7,1.5c0.7-1,1.4-2,2-3c0.7-1.3,1.4-2.3,2-3c0,0,0.2-0.2,0.3-0.6
				c0.3-0.5,0.6-1,0.9-1.5c0.4-0.5,0.7-1,1.1-1.5c0.6-0.8,1.4-1.3,2.3-1.6l0.2-0.1c0.5-0.1,1-0.2,1.4-0.2c0.6,0,1.1,0.1,1.7,0.3
				c1.1,0.3,1.9,0.9,2.6,1.7l0.1,0.1c1,1.4,1.2,3,0.6,4.6c-0.3,0.8-0.7,1.5-1.1,2.1c-0.5,0.8-1,1.9-1.5,3.1
				c-0.5,1.2-0.9,2.3-1.1,3.4c0,0.1-0.1,0.2-0.1,0.4c0.2-0.1,0.4-0.2,0.6-0.3c1.2-0.7,2.5-1.6,3.8-2.6c1.3-1,2.6-2.1,3.7-3.3
				l0.6-0.6c0,0,0.3-0.9,0.4-1.2c0.5-1.4,0.9-2.4,1.2-3c0.8-1.7,2.3-2.8,4.3-2.9c0.1,0,0.3,0,0.4,0c1.7,0,3.1,0.7,4.2,2l0.2,0.2
				c0.2,0.3,0.3,0.5,0.4,0.8c0.1-0.1,0.2-0.1,0.3-0.2c1.4-0.9,2.8-1.6,4.3-2.1c0.8-0.2,1.7-0.4,2.6-0.4c0.9,0,1.9,0.1,2.8,0.4
				c1.9,0.6,3.3,1.8,4.1,3.3c0.6,1.2,1,2.5,1.2,3.9c0.1,1.2,0.2,2.4,0.2,3.7c0,0.8,0,1.5,0.2,2c0,0,0,0,0,0c0,0,0.1,0,0.1,0
				c1.6-0.2,3.4-0.7,5.1-1.7c1.9-1,3.7-2.2,5.2-3.6c1-0.9,2.1-1.4,3.1-1.4c0.3,0,0.6,0,0.9,0.1c1.5,0.4,2.5,1.5,2.7,3
				c0.1,0.9,0,1.8-0.3,2.8c-0.3,0.9-0.8,1.7-1.4,2.4c-0.9,0.9-1.8,1.8-2.9,2.7c-1.1,0.9-2.3,1.7-3.6,2.4c-1.3,0.7-2.6,1.3-4,1.7
				c-1.5,0.5-2.9,0.7-4.3,0.7c-2,0-3.9-0.3-5.6-0.9c-2.1-0.8-3.7-2.2-4.8-4.3c-0.6-1.2-0.9-2.5-1-4c0-0.7-0.1-1.3-0.1-1.9
				c-1,1-2.1,2.1-3.2,3.3c-1.4,1.6-2.8,3-4.1,4.4c-1.7,1.8-3.2,2.8-4.7,3.1c-0.5,0.1-1,0.2-1.5,0.2c-0.8,0-1.6-0.2-2.4-0.5
				c-0.9-0.4-1.7-0.9-2.2-1.6c-1.1,0.7-2.3,1.4-3.4,1.9C226.8,138.1,224.9,138.5,223,138.5z M216.7,132.2c0,0,0.1,0,0.1,0
				c0.1,0,0.2,0.1,0.3,0.2l0.2,0.6c0.1,0.3,0.3,0.6,0.4,0.9c0.5,0.8,1.1,1.5,2,2c0.9,0.5,2,0.7,3.2,0.7c1.6,0,3.2-0.4,4.9-1.1
				c1.3-0.6,2.6-1.3,3.9-2.2l0.5-0.3c0.1,0,0.1-0.1,0.2-0.1c0,0,0.1,0,0.1,0c0.1,0,0.2,0.1,0.3,0.2l0.2,0.6c0.3,0.7,0.9,1.3,1.8,1.6
				c0.6,0.2,1.1,0.3,1.7,0.3c0.4,0,0.7,0,1.1-0.1c1.2-0.3,2.4-1.1,3.8-2.6c1.3-1.4,2.7-2.8,4.1-4.4c1.4-1.5,2.8-2.9,4.1-4.1
				c0.3-0.3,0.6-0.5,0.9-0.7l0.8-0.6c0.1-0.1,0.2-0.1,0.2-0.1c0.1,0,0.1,0,0.2,0c0.1,0.1,0.2,0.2,0.2,0.4c0,0,0,1.4,0,1.7
				c0,1,0,2,0.1,3.1c0.1,1.2,0.3,2.3,0.8,3.3c0.8,1.7,2.1,2.8,3.8,3.4c1.5,0.6,3.2,0.8,5,0.8c1.2,0,2.5-0.2,3.8-0.6
				c1.3-0.4,2.5-0.9,3.7-1.6c1.2-0.6,2.3-1.4,3.4-2.2c1-0.8,1.9-1.6,2.7-2.5c0.5-0.5,0.8-1.2,1.1-1.8c0.3-0.7,0.3-1.4,0.2-2
				c-0.1-0.8-0.7-1.4-1.4-1.6c-0.2,0-0.3-0.1-0.5-0.1c-0.6,0-1.3,0.3-1.9,0.9c-1.7,1.4-3.5,2.7-5.6,3.8c-2,1.1-3.9,1.7-5.8,1.9
				c-0.1,0-0.3,0-0.4,0c-1.1,0-1.4-0.6-1.6-1.3c-0.2-0.7-0.3-1.6-0.3-2.6c0-1.2,0-2.3-0.2-3.5c-0.1-1.2-0.5-2.3-1-3.3
				c-0.6-1.1-1.6-1.9-3.1-2.4c-0.7-0.2-1.5-0.3-2.2-0.3c-0.7,0-1.4,0.1-2,0.3c-1.3,0.4-2.6,1-3.8,1.8c-0.4,0.3-0.9,0.6-1.3,0.9
				l-0.7,0.5c-0.1,0.1-0.2,0.1-0.2,0.1c0,0-0.1,0-0.1,0c-0.1-0.1-0.2-0.2-0.3-0.3l-0.1-0.8c-0.1-0.5-0.3-1-0.5-1.4l-0.1-0.1
				c-0.7-0.8-1.6-1.2-2.7-1.2c-0.1,0-0.2,0-0.3,0c-1.3,0.1-2.3,0.7-2.8,1.8c-0.2,0.5-0.6,1.5-1.1,2.9c-0.1,0.3-0.4,1-0.4,1l-0.2,0.5
				c0,0.1-0.1,0.1-0.1,0.2l-0.8,0.8c-1.2,1.2-2.5,2.3-3.9,3.4c-1.3,1.1-2.7,2-4,2.8c-0.9,0.5-1.7,0.9-2.4,1l-0.6,0.1
				c0,0-0.1,0-0.1,0c-0.1,0-0.2,0-0.3-0.1c-0.1-0.1-0.1-0.2-0.1-0.3l0-0.6c0-0.6,0.1-1.3,0.3-2.1c0.3-1.2,0.7-2.4,1.2-3.7
				c0.6-1.3,1.1-2.4,1.7-3.3c0.4-0.6,0.7-1.2,1-1.9c0.4-1,0.3-2-0.3-2.8c-0.5-0.6-1.1-1-1.8-1.2c-0.4-0.1-0.8-0.2-1.2-0.2
				c-0.3,0-0.6,0-1,0.1l-0.1,0c-0.6,0.2-1.1,0.5-1.5,1.1c-0.3,0.4-0.6,0.8-0.9,1.3c-0.3,0.5-0.6,0.9-0.8,1.4
				c-0.2,0.4-0.4,0.7-0.5,0.8c-0.6,0.7-1.2,1.6-1.9,2.8c-0.6,1.1-1.3,2.2-2.2,3.3c-0.8,1.1-1.6,2-2.5,2.7c-0.2,0.2-0.4,0.3-0.7,0.5
				l-1,0.6c-0.1,0-0.1,0.1-0.2,0.1c-0.1,0-0.2,0-0.2-0.1c-0.1-0.1-0.2-0.3-0.1-0.4l0.3-1.1c0.1-0.6,0.3-1.2,0.6-1.9
				c0.5-1.2,1-2.5,1.6-3.8c0.7-1.3,1.1-2.3,1.4-3c0.3-0.7,0.5-1.3,0.5-1.9c0-1-0.8-1.6-2.3-1.9c-0.3-0.1-0.5-0.1-0.7-0.1
				c-1,0-1.9,0.5-2.6,1.4c-0.7,0.8-1.4,1.9-2.2,3.2c-0.7,1.3-1.4,2.8-1.9,4.2c-0.5,1.5-0.9,2.9-1.1,4.4c-0.2,1.6-0.1,2.9,0.4,4
				c0.6,1.3,1.7,2.1,3,2.4c0.5,0.1,1.1,0.2,1.7,0.2c0.6,0,1.3-0.1,2-0.2c1.5-0.4,2.9-1,4.1-1.9l0.7-0.5
				C216.6,132.2,216.6,132.2,216.7,132.2z"/>
			<path class="st2" d="M224.6,113.3c0.5,0,1.1,0.1,1.6,0.2c1,0.3,1.8,0.8,2.4,1.6l0.1,0.1c0.9,1.3,1.1,2.7,0.5,4.2
				c-0.3,0.7-0.7,1.4-1.1,2.1c-0.5,0.8-1,1.9-1.6,3.1c-0.5,1.2-0.9,2.4-1.2,3.5c-0.1,0.4-0.2,0.8-0.2,1.1c0.4-0.1,0.8-0.4,1.3-0.6
				c1.3-0.7,2.5-1.6,3.8-2.7c1.3-1,2.6-2.1,3.8-3.3l0.7-0.7l0.1-0.3c0.1-0.3,0.2-0.7,0.4-1c0.5-1.4,0.9-2.4,1.2-3
				c0.7-1.6,2.1-2.5,4-2.7c0.1,0,0.3,0,0.4,0c1.5,0,2.9,0.6,3.8,1.8l0.2,0.2c0.2,0.4,0.4,0.8,0.5,1.2c0.2-0.2,0.5-0.4,0.7-0.5
				c1.3-0.9,2.7-1.6,4.2-2c0.8-0.2,1.6-0.4,2.4-0.4c0.9,0,1.8,0.1,2.7,0.4c1.8,0.6,3.1,1.7,3.9,3.1c0.6,1.1,1,2.4,1.1,3.7
				c0.1,1.2,0.2,2.4,0.2,3.7c0,0.9,0.1,1.6,0.2,2.1c0,0.1,0.1,0.3,0.1,0.3c0,0,0,0,0,0c0,0,0,0,0.1,0c0,0,0,0,0,0c0.1,0,0.2,0,0.3,0
				c1.7-0.2,3.4-0.7,5.2-1.7c1.9-1,3.7-2.3,5.3-3.6c1-0.8,1.9-1.3,2.9-1.3c0.3,0,0.6,0,0.8,0.1c1.3,0.4,2.2,1.4,2.4,2.7
				c0.1,0.8,0,1.7-0.3,2.6c-0.3,0.8-0.7,1.6-1.3,2.3c-0.8,0.9-1.8,1.8-2.8,2.6c-1.1,0.9-2.3,1.7-3.6,2.3c-1.3,0.7-2.6,1.2-3.9,1.7
				c-1.4,0.5-2.9,0.7-4.2,0.7c-2,0-3.8-0.3-5.5-0.9c-2-0.7-3.6-2.1-4.6-4.1c-0.5-1.2-0.9-2.4-0.9-3.8c-0.1-1-0.1-1.9-0.1-2.8
				c-1.3,1.2-2.6,2.5-3.9,3.9c-1.4,1.6-2.8,3-4.1,4.4c-1.7,1.7-3.1,2.7-4.5,3c-0.5,0.1-1,0.2-1.4,0.2c-0.7,0-1.5-0.1-2.2-0.4
				c-1-0.4-1.7-1-2.2-1.8c-1.2,0.8-2.4,1.5-3.7,2c-1.9,0.8-3.7,1.3-5.5,1.3c-1.5,0-2.8-0.3-3.9-0.9c-1.1-0.6-2-1.5-2.6-2.5
				c-0.1-0.2-0.2-0.3-0.3-0.5c-1.3,0.9-2.7,1.6-4.3,1.9c-0.8,0.2-1.5,0.3-2.3,0.3c-0.7,0-1.3-0.1-2-0.2c-1.7-0.4-3.1-1.5-4-3.2
				c-0.6-1.3-0.8-2.9-0.5-4.8c0.2-1.5,0.6-3.1,1.1-4.6c0.5-1.6,1.2-3.1,2-4.5c0.8-1.5,1.6-2.6,2.4-3.5c1.3-1.5,2.7-1.8,3.7-1.8
				c0.4,0,0.8,0.1,1,0.1c3.1,0.6,3.4,2.5,3.4,3.3c0,0.8-0.2,1.6-0.6,2.5c-0.3,0.6-0.8,1.7-1.5,3c-0.6,1.2-1.1,2.4-1.6,3.6
				c0,0.1,0,0.1-0.1,0.2c0.5-0.5,1.1-1.1,1.6-1.8c0.8-1,1.5-2.1,2.1-3.1c0.7-1.2,1.4-2.2,2-3c0-0.1,0.2-0.3,0.4-0.6
				c0.3-0.5,0.5-1,0.9-1.5c0.3-0.5,0.7-1,1-1.4c0.6-0.7,1.3-1.2,2.2-1.5l0.2-0.1C223.7,113.4,224.2,113.3,224.6,113.3 M211.4,129
				l0.3-1.1c0.1-0.6,0.3-1.2,0.6-1.8c0.5-1.2,1-2.5,1.6-3.7c0.7-1.3,1.1-2.3,1.4-3c0.4-0.8,0.6-1.4,0.6-2c0-0.8-0.5-1.9-2.6-2.3
				c-0.2-0.1-0.5-0.1-0.8-0.1c-0.8,0-1.9,0.3-3,1.5c-0.7,0.8-1.5,1.9-2.2,3.3c-0.7,1.4-1.4,2.8-1.9,4.3c-0.5,1.5-0.9,3-1.1,4.4
				c-0.2,1.7-0.1,3,0.4,4.2c0.7,1.4,1.8,2.3,3.3,2.7c0.6,0.1,1.2,0.2,1.8,0.2c0.7,0,1.4-0.1,2.1-0.2c1.5-0.4,3-1,4.2-2l0.7-0.6
				l0.2,0.6c0.1,0.3,0.3,0.7,0.5,1c0.5,0.9,1.2,1.6,2.2,2.1c0.9,0.5,2.1,0.8,3.4,0.8c1.6,0,3.3-0.4,5.1-1.2c1.3-0.6,2.6-1.3,4-2.3
				l0.5-0.3l0.2,0.6c0.4,0.8,1.1,1.5,2,1.8c0.6,0.2,1.2,0.4,1.9,0.4c0.4,0,0.8-0.1,1.2-0.2c1.2-0.3,2.5-1.2,4-2.7
				c1.3-1.4,2.7-2.8,4.1-4.4c1.4-1.5,2.7-2.9,4.1-4.1c0.3-0.3,0.6-0.5,0.8-0.7l0.8-0.6l0,1c0,0.2,0,0.4,0,0.6c0,1,0,2.1,0.1,3.2
				c0.1,1.3,0.3,2.4,0.8,3.4c0.9,1.8,2.2,3,4,3.6c1.6,0.6,3.3,0.9,5.2,0.9c1.2,0,2.6-0.2,3.9-0.7c1.3-0.4,2.5-1,3.8-1.6
				c1.2-0.7,2.4-1.4,3.4-2.2c1-0.8,1.9-1.7,2.7-2.5c0.5-0.6,0.9-1.2,1.1-2c0.3-0.8,0.4-1.5,0.3-2.1c-0.2-1-0.8-1.7-1.7-1.9
				c-0.2-0.1-0.4-0.1-0.6-0.1c-0.7,0-1.4,0.3-2.2,1c-1.7,1.4-3.5,2.7-5.5,3.7c-1.9,1-3.8,1.6-5.6,1.8c-0.1,0-0.3,0-0.4,0
				c-0.8,0-1-0.3-1.2-1c-0.2-0.7-0.3-1.5-0.3-2.5c0-1.2,0-2.4-0.2-3.5c-0.2-1.2-0.5-2.4-1-3.4c-0.6-1.2-1.7-2.1-3.3-2.6
				c-0.8-0.2-1.6-0.4-2.3-0.4c-0.7,0-1.4,0.1-2.2,0.3c-1.3,0.4-2.7,1-3.9,1.9c-0.4,0.3-0.9,0.6-1.3,1l-0.7,0.5l-0.1-0.8
				c-0.1-0.6-0.3-1.1-0.6-1.6l-0.1-0.2c-0.7-0.9-1.8-1.4-3-1.4c-0.1,0-0.2,0-0.4,0c-1.5,0.1-2.5,0.8-3.1,2.1
				c-0.2,0.5-0.6,1.5-1.1,2.9c-0.1,0.3-0.2,0.7-0.4,1l-0.2,0.5l-0.8,0.8c-1.2,1.2-2.5,2.3-3.8,3.4c-1.3,1.1-2.7,2-3.9,2.7
				c-0.8,0.5-1.6,0.8-2.2,0.9l-0.6,0.1l0-0.6c0-0.6,0.1-1.2,0.3-2c0.3-1.2,0.7-2.4,1.2-3.7c0.6-1.3,1.1-2.4,1.6-3.3
				c0.4-0.6,0.7-1.2,1-1.9c0.5-1.1,0.3-2.2-0.4-3.2l-0.1-0.1c-0.5-0.6-1.2-1-2-1.3c-0.4-0.1-0.9-0.2-1.3-0.2c-0.4,0-0.7,0-1,0.1
				l-0.1,0c-0.6,0.2-1.2,0.6-1.7,1.2c-0.3,0.4-0.6,0.8-1,1.3c-0.3,0.5-0.6,1-0.8,1.4c-0.2,0.4-0.4,0.7-0.5,0.8
				c-0.6,0.7-1.2,1.7-1.9,2.9c-0.6,1.1-1.3,2.2-2.1,3.2c-0.8,1-1.6,1.9-2.5,2.6c-0.2,0.2-0.4,0.3-0.6,0.4L211.4,129 M251.7,123.5
				L251.7,123.5 M224.6,112.5c-0.5,0-1,0.1-1.5,0.2l-0.2,0.1c-1,0.3-1.9,0.9-2.5,1.8c-0.4,0.4-0.7,1-1.1,1.5c-0.3,0.5-0.6,1-0.9,1.5
				c-0.2,0.3-0.3,0.5-0.3,0.5c-0.2,0.3-0.5,0.6-0.7,0.9c0.2-0.6,0.3-1.2,0.3-1.8c0-0.8-0.3-3.3-4-4.1c-0.2-0.1-0.7-0.1-1.2-0.1
				c-1.2,0-2.8,0.4-4.3,2.1c-0.8,0.9-1.6,2.1-2.5,3.6c-0.8,1.4-1.5,3-2,4.6c-0.5,1.6-0.9,3.2-1.2,4.8c-0.3,2-0.1,3.7,0.6,5.2
				c1,2,2.5,3.2,4.5,3.7c0.7,0.2,1.4,0.2,2.2,0.2c0.8,0,1.6-0.1,2.5-0.3c1.3-0.3,2.6-0.8,3.8-1.6c0.7,1.1,1.6,2,2.8,2.6
				c1.2,0.7,2.6,1,4.3,1c1.9,0,3.8-0.4,5.8-1.3c1-0.5,2.1-1,3.1-1.7c0.6,0.6,1.3,1.1,2.1,1.5c0.8,0.3,1.7,0.5,2.5,0.5
				c0.6,0,1.1-0.1,1.6-0.2c1.6-0.4,3.1-1.4,4.9-3.2c1.3-1.3,2.7-2.8,4.1-4.4c0.9-0.9,1.7-1.8,2.5-2.6c0,0.3,0,0.7,0.1,1
				c0.1,1.5,0.4,2.8,1,4.1c1.1,2.2,2.8,3.7,5,4.5c1.8,0.6,3.7,1,5.8,1c1.4,0,2.9-0.2,4.4-0.7c1.4-0.4,2.7-1,4.1-1.7
				c1.3-0.7,2.6-1.5,3.7-2.4c1.1-0.9,2.1-1.8,2.9-2.7c0.7-0.8,1.2-1.6,1.5-2.6c0.4-1.1,0.5-2.1,0.3-3c-0.3-1.7-1.4-2.9-3-3.4
				c-0.3-0.1-0.7-0.1-1.1-0.1c-1.1,0-2.3,0.5-3.4,1.5c-1.5,1.3-3.3,2.5-5.2,3.5c-1.6,0.9-3.2,1.4-4.7,1.6c-0.1-0.4-0.1-1-0.1-1.6
				c0-1.3,0-2.6-0.2-3.8c-0.2-1.5-0.6-2.8-1.2-4c-0.9-1.7-2.3-2.8-4.3-3.5c-1-0.3-1.9-0.5-2.9-0.5c-0.9,0-1.8,0.1-2.7,0.4
				c-1.5,0.4-3,1.1-4.3,2.1c-0.1-0.1-0.1-0.2-0.2-0.4c0,0,0,0,0,0l-0.2-0.2c-1.1-1.4-2.7-2.1-4.5-2.1c-0.2,0-0.3,0-0.5,0
				c-2.1,0.2-3.8,1.3-4.6,3.1c-0.2,0.6-0.6,1.6-1.2,3c-0.1,0.3-0.3,0.7-0.4,1l0,0.1l-0.5,0.5c-1.2,1.1-2.4,2.2-3.7,3.3
				c-1.2,0.9-2.4,1.8-3.5,2.5c0.2-0.9,0.6-1.8,1-2.8c0.5-1.2,1-2.2,1.5-3c0.4-0.6,0.8-1.4,1.1-2.2c0.7-1.7,0.5-3.5-0.6-5l-0.1-0.1
				c-0.7-0.9-1.7-1.5-2.8-1.9C225.8,112.6,225.2,112.5,224.6,112.5L224.6,112.5z M211.4,129.8c0.1,0,0.3,0,0.4-0.1l1-0.6
				c0.2-0.1,0.5-0.3,0.7-0.5c0.9-0.8,1.8-1.7,2.6-2.8c0.8-1.1,1.5-2.2,2.2-3.3c0.7-1.2,1.3-2.1,1.8-2.8c0.1-0.2,0.3-0.5,0.5-0.9
				c0.2-0.4,0.5-0.9,0.8-1.4c0.3-0.5,0.6-0.9,0.9-1.3c0.4-0.5,0.8-0.8,1.3-0.9l0.1,0c0.3-0.1,0.5-0.1,0.8-0.1c0.4,0,0.7,0.1,1.1,0.2
				c0.6,0.2,1.2,0.6,1.6,1l0,0.1c0.5,0.7,0.6,1.5,0.3,2.4c-0.3,0.6-0.6,1.3-0.9,1.8c-0.6,0.9-1.1,2.1-1.7,3.4
				c-0.6,1.3-1,2.6-1.3,3.8c-0.2,0.8-0.3,1.6-0.3,2.2l0,0.6c0,0.2,0.1,0.5,0.3,0.6c0.1,0.1,0.3,0.2,0.5,0.2c0.1,0,0.1,0,0.2,0
				l0.6-0.1c0.7-0.1,1.6-0.5,2.5-1c1.3-0.8,2.7-1.7,4-2.8c1.4-1.1,2.7-2.2,3.9-3.4l0.8-0.8c0.1-0.1,0.2-0.2,0.2-0.3l0.2-0.5l0-0.1
				c0.1-0.3,0.2-0.6,0.3-0.9c0.5-1.4,0.9-2.4,1.1-2.9c0.4-1,1.3-1.5,2.4-1.6c0.1,0,0.2,0,0.3,0c1,0,1.8,0.4,2.4,1.1l0.1,0.1
				c0.2,0.3,0.3,0.7,0.4,1.2l0.1,0.8c0,0.3,0.2,0.5,0.5,0.6c0.1,0,0.2,0.1,0.3,0.1c0.2,0,0.4-0.1,0.5-0.2l0.7-0.5
				c0.4-0.3,0.8-0.6,1.3-0.9c1.2-0.8,2.4-1.4,3.7-1.8c0.6-0.2,1.3-0.3,1.9-0.3c0.7,0,1.4,0.1,2.1,0.3c1.3,0.4,2.3,1.2,2.8,2.2
				c0.5,0.9,0.8,2,0.9,3.1c0.1,1.1,0.2,2.2,0.1,3.4c0,1,0.1,2,0.3,2.7c0.2,0.7,0.6,1.6,2,1.6c0.1,0,0.3,0,0.5,0
				c1.9-0.2,3.9-0.8,5.9-1.9c2-1.1,3.9-2.4,5.6-3.8c0.6-0.6,1.2-0.8,1.7-0.8c0.1,0,0.2,0,0.4,0c0.6,0.2,1,0.6,1.1,1.3
				c0.1,0.5,0,1.1-0.2,1.8c-0.2,0.6-0.6,1.2-1,1.7c-0.8,0.8-1.6,1.6-2.6,2.4c-1,0.8-2.1,1.5-3.3,2.2c-1.2,0.6-2.4,1.1-3.6,1.5
				c-1.3,0.4-2.5,0.6-3.6,0.6c-1.8,0-3.4-0.3-4.9-0.8c-1.6-0.6-2.8-1.7-3.6-3.2c-0.4-0.9-0.7-2-0.8-3.1c-0.1-1.1-0.1-2.1,0-3.1
				c0-0.2,0-0.5,0-0.7l0-0.9c0,0,0-0.1,0-0.1c0-0.4-0.4-0.8-0.8-0.8h0c0,0,0,0,0,0c0,0,0,0,0,0c-0.2,0-0.3,0.1-0.5,0.2l-0.8,0.6
				c-0.3,0.2-0.6,0.5-0.9,0.7c-1.3,1.2-2.7,2.6-4.1,4.1c-1.4,1.6-2.8,3-4.1,4.4c-1.4,1.5-2.6,2.3-3.6,2.5c-0.4,0.1-0.7,0.1-1,0.1
				c-0.5,0-1-0.1-1.6-0.3c-0.7-0.3-1.3-0.8-1.5-1.4l-0.2-0.6c-0.1-0.2-0.3-0.4-0.5-0.4c-0.1,0-0.1,0-0.2,0c-0.2,0-0.3,0-0.5,0.1
				l-0.5,0.3c-1.3,0.9-2.6,1.6-3.8,2.2c-1.7,0.7-3.3,1.1-4.8,1.1c-1.2,0-2.2-0.2-3-0.7c-0.8-0.5-1.5-1.1-1.9-1.8
				c-0.2-0.3-0.3-0.6-0.4-0.9l-0.2-0.6c-0.1-0.2-0.3-0.4-0.5-0.5c-0.1,0-0.1,0-0.2,0c-0.2,0-0.3,0.1-0.5,0.2l-0.7,0.6
				c-1.2,0.9-2.5,1.5-3.9,1.9c-0.6,0.1-1.3,0.2-1.9,0.2c-0.5,0-1.1-0.1-1.6-0.2c-1.2-0.3-2.1-1-2.7-2.2c-0.5-1-0.6-2.2-0.4-3.7
				c0.2-1.4,0.5-2.8,1-4.3c0.5-1.5,1.1-2.9,1.8-4.2c0.7-1.3,1.4-2.4,2.1-3.1c0.7-0.8,1.5-1.2,2.4-1.2c0.2,0,0.4,0,0.6,0.1
				c1.3,0.3,2,0.8,2,1.5c0,0.5-0.2,1.1-0.5,1.7c-0.3,0.7-0.8,1.7-1.4,3c-0.6,1.3-1.2,2.5-1.7,3.8c-0.3,0.7-0.5,1.3-0.6,1.9l-0.3,1.1
				c-0.1,0.3,0,0.6,0.3,0.8C211,129.7,211.2,129.8,211.4,129.8L211.4,129.8z"/>
		</g>
		<g>
			<path class="st1" d="M314.2,146.6c-3.6,0-6.9-0.5-10-1.4c-3.1-1-5.9-2.5-8.2-4.5c-2.4-2-4.2-4.5-5.5-7.5
				c-1.3-2.9-1.9-6.3-1.9-10.1c0-3.7,0.6-7.8,1.9-12.1c1.2-4.2,2.9-8.5,5-12.6c2.1-4.1,4.6-8.1,7.5-12c2.9-3.8,6.1-7.3,9.5-10.2
				c3.4-3,7.1-5.4,10.9-7.2c4-1.9,8.1-2.8,12.3-2.8c0.7,0,1.8,0.1,3.4,0.4c1.5,0.2,3.1,0.6,4.7,1.1c1.6,0.5,3.1,1.1,4.4,1.9
				c2.6,1.5,3.2,3.3,3.2,4.6c0,1.7-0.7,3.2-2.1,4.1c-1.1,0.8-2.3,1.2-3.6,1.2c-0.8,0-1.6-0.2-2.7-0.8c-0.5-0.3-1.2-0.6-1.9-0.9
				c-0.7-0.3-1.5-0.6-2.5-0.9c-0.7-0.2-1.5-0.4-2.3-0.4c-2.8,0-5.6,0.7-8.3,2.1c-2.9,1.5-5.8,3.4-8.4,5.9c-2.7,2.5-5.3,5.4-7.7,8.6
				c-2.4,3.2-4.5,6.6-6.2,10.1c-1.7,3.4-3.1,6.9-4.1,10.2c-1,3.3-1.4,6.3-1.4,9c0,4.5,1.1,8,3.3,10.3c2.2,2.2,5.6,3.4,10.2,3.4
				c2.3,0,4.9-0.5,7.6-1.6c2.9-1.1,5.8-2.6,8.6-4.4c2.9-1.9,5.8-4.1,8.5-6.5c2.7-2.4,5.1-5.1,7.1-7.8c2-2.7,3.6-5.4,4.8-8.2
				c1.1-2.6,1.7-5.1,1.7-7.4c0-1.4-0.3-2.5-0.9-3.5c-0.7-1-1.6-1.9-2.7-2.5c-1.2-0.7-2.5-1.2-3.9-1.5c-1.5-0.3-3-0.5-4.5-0.5
				c-1.9,0-3.7,0.3-5.7,0.8c-1.9,0.6-3.5,1.3-4.7,2.2c-1,0.7-1.7,1.5-1.9,2.2c-0.1,0.3,0.3,0.9,0.6,1.2c1.6,1.9,1.8,4,0.7,5.8
				c-1,1.6-2.6,2.5-4.5,2.5c-2.4,0-4.4-1-5.9-2.9c-1.3-1.7-2-3.5-2-5.5c0-5.4,2.3-9.8,6.8-12.9c4.2-2.9,9.8-4.3,16.6-4.3
				c2.7,0,5.4,0.3,8.1,1c2.8,0.7,5.3,1.8,7.6,3.2c2.3,1.5,4.2,3.5,5.7,5.9c1.5,2.5,2.3,5.5,2.3,8.8c0,3.6-0.8,7.3-2.3,11.1
				c-1.5,3.6-3.6,7.2-6.1,10.6c-2.5,3.4-5.5,6.6-8.8,9.6c-3.3,3-6.8,5.6-10.4,7.8c-3.6,2.3-7.3,4.1-11.1,5.4
				C321.4,146,317.7,146.6,314.2,146.6z M335.6,68c-3.9,0-7.7,0.9-11.5,2.7c-3.7,1.7-7.2,4.1-10.5,6.9c-3.3,2.8-6.4,6.2-9.2,9.9
				c-2.8,3.7-5.3,7.7-7.3,11.7c-2.1,4-3.7,8.2-4.9,12.3c-1.2,4.1-1.8,8-1.8,11.6c0,3.5,0.6,6.7,1.8,9.4c1.2,2.7,2.9,5,5,6.9
				c2.1,1.8,4.7,3.2,7.6,4.1c2.9,0.9,6,1.4,9.4,1.4c3.3,0,6.8-0.7,10.4-1.9c3.6-1.3,7.2-3,10.7-5.2c3.5-2.2,6.9-4.8,10.1-7.7
				c3.2-2.9,6.1-6,8.6-9.3c2.5-3.3,4.4-6.7,5.9-10.2c1.5-3.5,2.2-7,2.2-10.4c0-3-0.7-5.7-2-7.9c-1.3-2.2-3.1-3.9-5.2-5.3
				c-2.1-1.3-4.4-2.4-7-3c-2.6-0.6-5.1-1-7.7-1c-6.4,0-11.7,1.3-15.6,4c-4,2.8-6,6.6-6,11.4c0,1.6,0.5,3.1,1.6,4.4
				c1.1,1.4,2.6,2.2,4.4,2.2c1.3,0,2.3-0.6,3-1.6c0.9-1.5,0.2-2.8-0.5-3.7c-1-1.1-1.3-2.1-1-3c0.4-1.1,1.3-2.2,2.6-3.1
				c1.4-1,3.2-1.8,5.2-2.4c2.1-0.6,4.1-0.9,6.2-0.9c1.6,0,3.2,0.2,4.9,0.5c1.6,0.4,3.1,1,4.5,1.8c1.3,0.8,2.4,1.8,3.2,3.1
				c0.8,1.2,1.2,2.7,1.2,4.5c0,2.5-0.6,5.3-1.8,8.1c-1.3,2.9-2.9,5.8-5,8.6c-2.1,2.8-4.6,5.5-7.4,8c-2.8,2.5-5.7,4.8-8.7,6.7
				c-3,1.9-6,3.5-9,4.6c-2.9,1.1-5.7,1.7-8.3,1.7c-5.1,0-9-1.3-11.5-3.9c-2.5-2.6-3.8-6.5-3.8-11.5c0-2.8,0.5-6,1.5-9.5
				c1-3.5,2.4-7,4.2-10.5c1.8-3.5,3.9-7,6.3-10.3c2.4-3.3,5.1-6.3,7.9-8.9c2.8-2.6,5.7-4.6,8.8-6.2c3-1.5,6.1-2.3,9.1-2.3
				c1,0,1.9,0.1,2.9,0.4c1,0.3,1.9,0.6,2.6,1c0.8,0.3,1.5,0.7,2.1,1c0.8,0.4,1.4,0.6,1.8,0.6c0.9,0,1.8-0.3,2.6-0.8
				c0.9-0.6,1.3-1.6,1.3-2.7c0-0.8-0.4-2-2.3-3.1c-1.2-0.7-2.6-1.2-4.1-1.7c-1.5-0.5-3-0.8-4.5-1C337.2,68.1,336.2,68,335.6,68z"/>
			<path class="st2" d="M335.6,66.6c0.7,0,1.8,0.1,3.4,0.4c1.5,0.2,3.1,0.6,4.6,1.1c1.6,0.5,3.1,1.1,4.4,1.8c2.5,1.4,3,3.1,3,4.3
				c0,1.6-0.7,2.9-1.9,3.8c-1,0.7-2.2,1.1-3.4,1.1c-0.7,0-1.4-0.2-2.5-0.8c-0.6-0.3-1.2-0.6-2-0.9c-0.7-0.3-1.6-0.6-2.5-0.9
				c-0.8-0.2-1.6-0.4-2.4-0.4c-2.8,0-5.7,0.7-8.5,2.1c-3,1.5-5.8,3.5-8.5,5.9c-2.7,2.5-5.3,5.4-7.7,8.7c-2.4,3.3-4.5,6.7-6.2,10.1
				c-1.7,3.5-3.1,6.9-4.1,10.3c-1,3.3-1.4,6.4-1.4,9.1c0,4.7,1.1,8.2,3.4,10.5c2.2,2.3,5.8,3.5,10.5,3.5c2.4,0,5-0.5,7.8-1.6
				c2.9-1.1,5.8-2.6,8.7-4.5c2.9-1.9,5.8-4.1,8.5-6.6c2.7-2.5,5.1-5.1,7.2-7.8c2-2.7,3.7-5.5,4.9-8.3c1.1-2.7,1.7-5.2,1.7-7.6
				c0-1.5-0.3-2.7-1-3.7c-0.7-1.1-1.6-1.9-2.8-2.6c-1.2-0.7-2.6-1.3-4-1.6c-1.6-0.3-3.1-0.5-4.6-0.5c-1.9,0-3.8,0.3-5.8,0.9
				c-1.9,0.6-3.5,1.3-4.8,2.2c-1.1,0.8-1.8,1.6-2.1,2.4c-0.1,0.2-0.2,0.6,0.7,1.6c1.5,1.7,1.7,3.7,0.7,5.3c-0.9,1.5-2.4,2.3-4.2,2.3
				c-2.3,0-4.2-0.9-5.6-2.7c-1.2-1.6-1.9-3.4-1.9-5.3c0-5.3,2.2-9.5,6.6-12.5c4.1-2.8,9.6-4.3,16.4-4.3c2.6,0,5.3,0.3,8,1
				c2.7,0.7,5.2,1.8,7.4,3.2c2.3,1.5,4.1,3.4,5.6,5.8c1.5,2.4,2.3,5.3,2.3,8.6c0,3.5-0.8,7.2-2.3,10.9c-1.5,3.6-3.5,7.1-6.1,10.5
				c-2.5,3.3-5.4,6.5-8.7,9.5c-3.3,2.9-6.7,5.6-10.3,7.8c-3.6,2.2-7.3,4-11,5.4c-3.8,1.3-7.5,2-10.9,2c-3.5,0-6.8-0.5-9.8-1.4
				c-3.1-1-5.8-2.4-8.1-4.4c-2.3-2-4.1-4.5-5.4-7.4c-1.3-2.9-1.9-6.2-1.9-10c0-3.7,0.6-7.7,1.8-12c1.2-4.2,2.9-8.4,5-12.5
				c2.1-4.1,4.6-8.1,7.4-11.9c2.9-3.8,6-7.2,9.4-10.1c3.4-2.9,7.1-5.3,10.9-7.1C327.4,67.6,331.5,66.6,335.6,66.6 M314.2,145.2
				c3.3,0,6.9-0.7,10.6-2c3.6-1.3,7.3-3.1,10.8-5.3c3.5-2.2,6.9-4.8,10.2-7.7c3.2-2.9,6.1-6.1,8.6-9.4c2.5-3.3,4.5-6.8,5.9-10.3
				c1.5-3.6,2.2-7.1,2.2-10.5c0-3.1-0.7-5.8-2.1-8.1c-1.4-2.2-3.1-4-5.3-5.4c-2.1-1.4-4.5-2.4-7.1-3.1c-2.6-0.6-5.2-1-7.8-1
				c-6.5,0-11.8,1.4-15.8,4.1c-4.1,2.8-6.2,6.8-6.2,11.7c0,1.7,0.6,3.3,1.7,4.7c1.2,1.5,2.8,2.3,4.8,2.3c1.4,0,2.6-0.7,3.3-1.8
				c0.8-1.3,0.6-2.8-0.6-4.2c-1.2-1.3-1.1-2.1-0.9-2.6c0.4-1,1.2-2,2.4-2.9c1.4-1,3.1-1.8,5.1-2.4c2-0.6,4.1-0.9,6.1-0.9
				c1.6,0,3.2,0.2,4.8,0.5c1.6,0.4,3,0.9,4.3,1.7c1.3,0.8,2.3,1.7,3.1,2.9c0.8,1.1,1.1,2.5,1.1,4.2c0,2.5-0.6,5.2-1.8,8
				c-1.2,2.9-2.9,5.7-5,8.5c-2.1,2.8-4.6,5.5-7.3,8c-2.8,2.5-5.7,4.8-8.6,6.7c-3,1.9-6,3.4-8.9,4.5c-2.9,1.1-5.6,1.6-8.1,1.6
				c-5,0-8.8-1.3-11.2-3.8c-2.4-2.5-3.7-6.3-3.7-11.2c0-2.8,0.5-6,1.5-9.3c1-3.4,2.4-7,4.2-10.5c1.8-3.5,3.9-7,6.3-10.3
				c2.4-3.3,5-6.3,7.8-8.8c2.7-2.5,5.7-4.6,8.7-6.1c3-1.5,6-2.2,9-2.2c0.9,0,1.9,0.1,2.7,0.4c1,0.3,1.8,0.6,2.6,1
				c0.8,0.3,1.5,0.7,2,1c0.9,0.5,1.5,0.7,2,0.7c1,0,2-0.3,2.8-0.9c1-0.7,1.5-1.8,1.5-3c0-0.9-0.4-2.3-2.5-3.4
				c-1.2-0.7-2.6-1.3-4.2-1.7c-1.5-0.5-3-0.8-4.5-1c-1.5-0.2-2.6-0.3-3.2-0.3c-3.9,0-7.9,0.9-11.7,2.7c-3.7,1.8-7.3,4.1-10.6,7
				c-3.3,2.9-6.4,6.2-9.3,10c-2.8,3.8-5.3,7.7-7.3,11.8c-2.1,4.1-3.7,8.2-4.9,12.3c-1.2,4.2-1.8,8.1-1.8,11.7c0,3.6,0.6,6.8,1.8,9.6
				c1.2,2.8,2.9,5.1,5.1,7c2.2,1.9,4.8,3.3,7.7,4.2C307.6,144.8,310.8,145.2,314.2,145.2 M335.6,65.8c-4.2,0-8.4,1-12.4,2.9
				c-3.9,1.8-7.6,4.3-11,7.2c-3.4,2.9-6.6,6.4-9.5,10.3c-2.9,3.8-5.4,7.9-7.5,12c-2.1,4.2-3.8,8.4-5,12.7c-1.2,4.3-1.9,8.4-1.9,12.2
				c0,3.9,0.7,7.3,2,10.3c1.3,3,3.2,5.6,5.6,7.7c2.4,2,5.2,3.6,8.4,4.5c3.1,1,6.5,1.5,10.1,1.5c3.5,0,7.3-0.7,11.2-2.1
				c3.8-1.3,7.5-3.2,11.1-5.4c3.6-2.3,7.1-4.9,10.4-7.9c3.3-3,6.3-6.2,8.8-9.6c2.6-3.4,4.6-7,6.2-10.7c1.6-3.8,2.4-7.6,2.4-11.2
				c0-3.4-0.8-6.5-2.4-9c-1.5-2.4-3.5-4.4-5.8-6c-2.3-1.5-4.9-2.6-7.7-3.3c-2.7-0.7-5.5-1-8.2-1c-6.9,0-12.6,1.5-16.8,4.4
				c-4.6,3.2-7,7.6-7,13.2c0,2.1,0.7,4,2,5.8c1.5,2,3.7,3,6.2,3c2.1,0,3.8-1,4.9-2.7c1.2-2,0.9-4.3-0.7-6.3
				c-0.6-0.6-0.6-0.9-0.6-0.9c0.2-0.7,0.8-1.4,1.8-2c1.2-0.9,2.8-1.6,4.6-2.1c1.9-0.6,3.7-0.8,5.6-0.8c1.4,0,2.9,0.2,4.4,0.5
				c1.4,0.3,2.7,0.8,3.8,1.5c1,0.6,1.9,1.4,2.5,2.4c0.6,0.8,0.8,1.9,0.8,3.2c0,2.2-0.6,4.7-1.7,7.3c-1.2,2.7-2.8,5.5-4.8,8.1
				c-2,2.7-4.4,5.3-7.1,7.7c-2.7,2.4-5.5,4.6-8.4,6.5c-2.8,1.8-5.7,3.3-8.6,4.4c-2.7,1-5.2,1.5-7.5,1.5c-4.5,0-7.9-1.1-10-3.2
				c-2.1-2.2-3.2-5.5-3.2-10c0-2.6,0.5-5.6,1.4-8.8c1-3.3,2.3-6.8,4-10.2c1.7-3.4,3.8-6.8,6.1-10c2.3-3.2,4.9-6.1,7.6-8.6
				c2.6-2.4,5.4-4.4,8.3-5.8c2.7-1.3,5.5-2,8.2-2c0.8,0,1.5,0.1,2.2,0.3c0.9,0.3,1.7,0.6,2.4,0.9c0.7,0.3,1.4,0.6,1.9,0.9
				c1.1,0.6,2,0.9,2.8,0.9c1.4,0,2.7-0.4,3.9-1.3c1.4-1,2.2-2.6,2.2-4.5c0-1.4-0.6-3.4-3.4-5c-1.3-0.7-2.9-1.4-4.5-1.9
				c-1.6-0.5-3.2-0.9-4.8-1.1C337.4,65.9,336.3,65.8,335.6,65.8L335.6,65.8z M314.2,144.4c-3.3,0-6.5-0.4-9.3-1.3
				c-2.8-0.9-5.4-2.3-7.4-4c-2.1-1.8-3.8-4.1-4.9-6.7c-1.2-2.6-1.8-5.8-1.8-9.3c0-3.5,0.6-7.4,1.8-11.5c1.2-4.1,2.8-8.2,4.8-12.2
				c2-4,4.5-7.9,7.3-11.6c2.8-3.7,5.9-7,9.1-9.9c3.3-2.8,6.8-5.1,10.5-6.9c3.7-1.7,7.5-2.6,11.3-2.6c0.6,0,1.6,0.1,3.1,0.3
				c1.4,0.2,2.9,0.6,4.4,1c1.5,0.5,2.8,1,4,1.7c1.3,0.8,2,1.7,2,2.7c0,1-0.4,1.8-1.2,2.4c-0.7,0.5-1.5,0.8-2.3,0.8
				c-0.4,0-0.9-0.2-1.6-0.6c-0.6-0.3-1.3-0.6-2.1-1c-0.8-0.3-1.7-0.7-2.7-1c-1-0.3-2-0.5-3-0.5c-3.1,0-6.2,0.8-9.3,2.3
				c-3.1,1.5-6.1,3.6-8.9,6.2c-2.8,2.6-5.5,5.6-7.9,8.9c-2.4,3.3-4.6,6.8-6.4,10.4c-1.8,3.6-3.2,7.1-4.2,10.6
				c-1,3.5-1.5,6.7-1.5,9.6c0,5.1,1.3,9.1,3.9,11.8c2.6,2.7,6.6,4,11.8,4c2.6,0,5.4-0.6,8.4-1.7c3-1.1,6-2.7,9.1-4.6
				c3-1.9,6-4.2,8.8-6.7c2.8-2.5,5.3-5.2,7.4-8.1c2.1-2.8,3.8-5.7,5.1-8.7c1.2-2.9,1.9-5.7,1.9-8.3c0-1.9-0.4-3.4-1.3-4.7
				c-0.9-1.3-2-2.3-3.4-3.2c-1.4-0.8-2.9-1.4-4.6-1.8c-1.7-0.4-3.3-0.6-4.9-0.6c-2.1,0-4.2,0.3-6.3,0.9c-2.1,0.6-3.9,1.5-5.4,2.5
				c-1.4,1-2.3,2.1-2.7,3.3c-0.4,1.1,0,2.2,1.1,3.4c0.6,0.8,1.3,1.9,0.5,3.2c-0.6,0.9-1.5,1.4-2.6,1.4c-1.7,0-3.1-0.7-4.1-2
				c-1-1.3-1.5-2.7-1.5-4.2c0-4.7,2-8.4,5.9-11.1c3.8-2.6,9-3.9,15.3-3.9c2.5,0,5,0.3,7.6,0.9c2.5,0.6,4.9,1.6,6.9,2.9
				c2,1.3,3.7,3.1,5,5.2c1.3,2.1,2,4.7,2,7.7c0,3.3-0.7,6.7-2.2,10.2c-1.4,3.5-3.4,6.9-5.8,10.1c-2.4,3.2-5.3,6.3-8.5,9.2
				c-3.2,2.9-6.6,5.4-10.1,7.6c-3.5,2.2-7,3.9-10.6,5.2C320.9,143.8,317.4,144.4,314.2,144.4L314.2,144.4z"/>
		</g>
		<g>
			<path class="st1" d="M386.1,152.6c-0.6,0-1.2-0.1-1.7-0.3c-0.9-0.3-1.7-0.7-2.3-1.4l-0.2-0.2c-0.8-1-1.2-2.1-1.1-3.3
				c0-0.7,0.2-1.3,0.3-1.9l0.8-2.9c0.3-1,0.6-2.1,0.9-3.1l1-3.4c-0.7,0.4-1.4,0.8-2.2,1.1c-1.9,0.9-3.8,1.3-5.7,1.3
				c-1.6,0-3-0.3-4.1-0.9c-1.2-0.7-2.1-1.6-2.7-2.7c0,0,0-0.1-0.1-0.1c-1.3,0.8-2.6,1.4-4,1.7c-0.8,0.2-1.6,0.3-2.4,0.3
				c-0.7,0-1.4-0.1-2.1-0.2c-1.9-0.4-3.3-1.6-4.2-3.4c-0.7-1.4-0.8-3.1-0.6-5c0.2-1.5,0.6-3.1,1.1-4.7c0.5-1.6,1.2-3.1,2-4.5
				c0.8-1.5,1.6-2.7,2.4-3.5c1.4-1.6,2.9-2,4-2c0.5,0,0.9,0.1,1.1,0.1c3.3,0.7,3.7,2.8,3.7,3.7c0,0.8-0.2,1.7-0.7,2.6
				c-0.3,0.6-0.8,1.7-1.5,3c-0.2,0.5-0.5,1-0.7,1.5c0.7-1,1.4-2,2-3c0.7-1.3,1.4-2.3,2-3c0,0,0.2-0.2,0.3-0.6c0.3-0.5,0.6-1,0.9-1.5
				c0.4-0.5,0.7-1,1.1-1.5c0.6-0.8,1.4-1.3,2.3-1.6l0.2-0.1c0.5-0.1,1-0.2,1.4-0.2c0.6,0,1.1,0.1,1.7,0.3c1.1,0.3,1.9,0.9,2.6,1.7
				l0.1,0.1c1,1.4,1.2,3,0.6,4.6c-0.3,0.8-0.7,1.5-1.1,2.1c-0.5,0.8-1,1.9-1.5,3.1c-0.5,1.2-0.9,2.3-1.1,3.4c0,0.1-0.1,0.2-0.1,0.4
				c0.2-0.1,0.4-0.2,0.6-0.3c1.2-0.7,2.5-1.6,3.8-2.6c1.3-1,2.6-2.1,3.7-3.3c0.6-0.6,1.1-1.1,1.6-1.6c0,0,3.8-12.6,4.8-15.6
				c-0.7,0-1.5,0-2.2-0.1c-2-0.1-4.1-0.1-6-0.1c-0.6,0-1.1,0-1.7-0.1c-1.1-0.1-2.1-0.5-2.9-1.2l-0.2-0.2c-0.9-0.9-1.3-2-1.3-3.3
				c0-1.3,0.4-2.4,1.3-3.3l0.2-0.2c0.9-0.7,1.9-1.2,3-1.3c0.5,0,1.1-0.1,1.7-0.1c3.1,0,5.6,0,7.4,0c1.7,0,2.9,0,3.8,0l2.5-7.3
				c0.1-0.4,0.3-0.9,0.5-1.4c0.3-0.8,0.7-1.4,1.2-2c0.7-0.9,1.7-1.4,2.8-1.7c0.3-0.1,0.6-0.1,0.9-0.1c0.9,0,1.7,0.2,2.6,0.7l0.1,0.1
				c1.7,1,2.1,2.3,2.2,3.2c0.1,0.7,0,1.4-0.2,2.3l-1.9,6.3h12.2c1.5,0,2.9,0.4,3.9,1.1c1.3,0.8,2.1,1.9,2.3,3.1
				c0.3,1.6-0.3,3.1-1.7,4.2c-1.1,0.8-2.5,1.2-4.6,1.2c-0.3,0-1.2,0-2.6,0c-1.5,0-3.2,0-5,0h-7.5c-1,3.6-2,7.3-3.2,10.9
				c-1.4,4.4-2.7,8.7-3.9,12.9l-4.3,15.3c0.6,1.4,0.4,2.5,0.1,3.3c-0.5,1.2-1.1,2.2-1.8,3c-1,1-2.3,1.7-3.8,1.9
				C386.7,152.6,386.4,152.6,386.1,152.6z M386.2,132.4c0.1,0,0.2,0,0.2,0.1c0.1,0.1,0.2,0.3,0.2,0.4l-2.1,7.1c-0.3,1-0.6,2-0.9,3
				l-0.8,2.9c-0.2,0.5-0.2,1.1-0.3,1.6c-0.1,0.7,0.2,1.4,0.7,2l0.1,0.1c0.4,0.4,0.9,0.7,1.5,0.9c0.4,0.1,0.8,0.2,1.2,0.2
				c0.2,0,0.4,0,0.7,0c1.1-0.2,2.1-0.6,2.8-1.4c0.6-0.6,1.1-1.5,1.5-2.4c0.2-0.4,0.3-1.1-0.1-2l-0.2-0.3c0-0.1-0.1-0.2,0-0.3
				l4.4-15.8c1.2-4.2,2.5-8.5,3.9-12.9c1.2-3.8,2.3-7.7,3.3-11.5l0.1-0.4c0-0.2,0.2-0.3,0.4-0.3h8.6c1.8,0,3.5,0,5,0
				c1.5,0,2.4,0,2.7,0c1.6,0,2.7-0.3,3.5-0.8c0.8-0.6,1.2-1.5,1-2.4c-0.2-0.8-0.7-1.4-1.5-2c-0.8-0.5-1.8-0.8-3-0.8H405
				c-0.1,0-0.2-0.1-0.3-0.2c-0.1-0.1-0.1-0.2-0.1-0.4l2.4-8c0.2-0.6,0.2-1.2,0.2-1.6c0-0.5-0.3-1.2-1.3-1.8
				c-0.7-0.4-1.3-0.5-1.8-0.5c-0.2,0-0.4,0-0.6,0.1c-0.7,0.1-1.3,0.5-1.7,1.1c-0.4,0.4-0.7,1-0.9,1.5c-0.2,0.5-0.4,1-0.5,1.3
				l-2.8,8.3c-0.1,0.2-0.2,0.3-0.4,0.3h-0.9c-0.9,0-2.2,0-4,0c-1.8,0-4.3,0-7.4,0c-0.5,0-1.1,0-1.5,0.1c-0.7,0-1.3,0.3-1.9,0.8
				l-0.1,0.1c-0.5,0.5-0.8,1.2-0.8,2c0,0.8,0.3,1.5,0.8,2l0.1,0.1c0.5,0.5,1.2,0.7,1.9,0.8c0.5,0,1,0.1,1.5,0.1c2,0,4.1,0,6.1,0.1
				c1.1,0,2.3,0.1,3.4,0.1l0.7,0c0.1,0,0.2,0.1,0.3,0.2c0.1,0.1,0.1,0.2,0.1,0.4l-0.2,0.6c-1,3.4-2.1,6.8-3.1,10.1l-2.1,7
				c0,0.1-0.1,0.1-0.1,0.2c0,0-1.2,1.2-1.9,1.8c-1.2,1.2-2.5,2.3-3.9,3.4c-1.3,1.1-2.7,2-4,2.8c-0.9,0.5-1.7,0.9-2.4,1l-0.6,0.1
				c0,0,0,0-0.1,0c-0.1,0-0.2,0-0.3-0.1c-0.1-0.1-0.1-0.2-0.1-0.3l0-0.6c0-0.6,0.1-1.3,0.3-2.1c0.3-1.2,0.7-2.4,1.2-3.7
				c0.6-1.3,1.1-2.4,1.7-3.3c0.4-0.6,0.7-1.2,1-1.9c0.4-1,0.3-2-0.3-2.8c-0.5-0.6-1.1-1-1.8-1.2c-0.4-0.1-0.8-0.2-1.2-0.2
				c-0.3,0-0.6,0-1,0.1l-0.1,0c-0.6,0.2-1.1,0.5-1.5,1.1c-0.3,0.4-0.6,0.8-0.9,1.3c-0.3,0.5-0.6,0.9-0.8,1.4
				c-0.2,0.4-0.4,0.7-0.5,0.8c-0.6,0.7-1.2,1.6-1.9,2.8c-0.6,1.1-1.4,2.2-2.2,3.3c-0.8,1.1-1.6,2-2.5,2.7c-0.2,0.2-0.4,0.3-0.7,0.5
				l-1,0.6c-0.1,0-0.1,0.1-0.2,0.1c-0.1,0-0.2,0-0.2-0.1c-0.1-0.1-0.2-0.3-0.1-0.4l0.3-1.1c0.1-0.6,0.3-1.2,0.6-1.9
				c0.5-1.2,1-2.5,1.6-3.8c0.7-1.3,1.1-2.3,1.4-3c0.3-0.7,0.5-1.3,0.5-1.9c0-1-0.8-1.6-2.3-1.9c-0.3-0.1-0.5-0.1-0.7-0.1
				c-1,0-1.9,0.5-2.6,1.4c-0.7,0.8-1.4,1.9-2.2,3.2c-0.7,1.3-1.4,2.8-1.9,4.2c-0.5,1.5-0.9,2.9-1.1,4.4c-0.2,1.6-0.1,2.9,0.4,4
				c0.6,1.3,1.7,2.1,3,2.4c0.5,0.1,1.1,0.2,1.7,0.2c0.6,0,1.3-0.1,2-0.2c1.5-0.4,2.9-1,4.1-1.9l0.7-0.5c0.1-0.1,0.2-0.1,0.2-0.1
				c0,0,0.1,0,0.1,0c0.1,0,0.2,0.1,0.3,0.2l0.2,0.6c0.1,0.3,0.3,0.6,0.4,0.9c0.5,0.8,1.1,1.5,2,2c0.9,0.5,2,0.7,3.2,0.7
				c1.6,0,3.2-0.4,4.9-1.1c1.3-0.6,2.6-1.3,3.9-2.2l1.2-0.8C386.1,132.5,386.2,132.4,386.2,132.4z"/>
			<path class="st2" d="M404,83.4c0.8,0,1.6,0.2,2.4,0.7l0.1,0.1c1.5,1,1.9,2.1,2,2.9c0.1,0.6,0,1.3-0.2,2.1l0,0.1l-2,6.6h12.8
				c1.4,0,2.7,0.3,3.7,1c1.2,0.8,1.9,1.7,2.2,2.9v0c0.3,1.4-0.3,2.8-1.6,3.8c-1,0.8-2.4,1.1-4.3,1.1c-0.3,0-1.2,0-2.7,0
				c-1.5,0-3.2,0-5,0h-7.8c-1,3.7-2.1,7.5-3.3,11.2c-1.4,4.4-2.7,8.7-3.9,12.9l-4.3,15.4c0.6,1.3,0.4,2.4,0.2,3.1
				c-0.4,1.1-1,2.1-1.8,2.9c-0.9,1-2.1,1.6-3.6,1.8c-0.3,0-0.6,0.1-0.9,0.1c-0.6,0-1.1-0.1-1.6-0.2c-0.8-0.3-1.5-0.7-2.1-1.3
				l-0.1-0.2c-0.8-0.9-1.1-2-1-3c0-0.6,0.2-1.3,0.3-1.9l0.8-2.9c0.3-1,0.6-2,0.9-3l1.3-4.4c-1,0.6-2,1.2-3,1.6
				c-1.9,0.8-3.7,1.3-5.5,1.3c-1.5,0-2.8-0.3-3.9-0.9c-1.1-0.6-2-1.5-2.6-2.5c-0.1-0.2-0.2-0.3-0.3-0.5c-1.3,0.9-2.7,1.6-4.3,1.9
				c-0.8,0.2-1.5,0.3-2.3,0.3c-0.7,0-1.3-0.1-2-0.2c-1.7-0.4-3.1-1.5-4-3.2c-0.6-1.3-0.8-2.9-0.5-4.8c0.2-1.5,0.6-3.1,1.1-4.6
				c0.5-1.6,1.2-3.1,2-4.5c0.8-1.5,1.6-2.6,2.4-3.5c1.3-1.5,2.7-1.8,3.7-1.8c0.4,0,0.8,0.1,1,0.1c3.1,0.6,3.4,2.5,3.4,3.3
				c0,0.8-0.2,1.6-0.6,2.5c-0.3,0.6-0.8,1.7-1.5,3c-0.6,1.2-1.1,2.4-1.6,3.6c0,0.1,0,0.1-0.1,0.2c0.5-0.5,1.1-1.1,1.6-1.8
				c0.8-1,1.5-2.1,2.1-3.1c0.7-1.2,1.4-2.2,2-3c0-0.1,0.2-0.3,0.4-0.6c0.3-0.5,0.5-1,0.9-1.5c0.3-0.5,0.7-1,1-1.4
				c0.6-0.7,1.3-1.2,2.2-1.5l0.2-0.1c0.4-0.1,0.9-0.2,1.3-0.2c0.5,0,1.1,0.1,1.6,0.2c1,0.3,1.8,0.8,2.4,1.6l0.1,0.1
				c0.9,1.3,1.1,2.7,0.5,4.2c-0.3,0.7-0.7,1.4-1.1,2.1c-0.5,0.8-1,1.9-1.6,3.1c-0.5,1.2-0.9,2.4-1.2,3.5c-0.1,0.4-0.2,0.8-0.2,1.1
				c0.4-0.1,0.8-0.4,1.3-0.6c1.3-0.7,2.5-1.6,3.8-2.7c1.3-1,2.6-2.1,3.8-3.3c0.6-0.6,1.2-1.2,1.7-1.7l2-6.7c1-3.2,1.9-6.3,2.9-9.5
				c-0.9,0-1.8,0-2.8-0.1c-2-0.1-4.1-0.1-6.1-0.1c-0.6,0-1.1,0-1.6-0.1c-1-0.1-1.9-0.5-2.7-1.1l-0.2-0.1c-0.8-0.8-1.2-1.8-1.2-3
				c0-1.1,0.4-2.2,1.2-3l0.2-0.1c0.8-0.7,1.7-1.1,2.7-1.2c0.5,0,1.1-0.1,1.6-0.1c3.1,0,5.6,0,7.4,0c1.8,0,3.1,0,4,0h0.1l2.6-7.6
				c0.1-0.4,0.3-0.9,0.5-1.4c0.3-0.7,0.7-1.4,1.1-1.9c0.7-0.8,1.5-1.3,2.5-1.5C403.5,83.5,403.8,83.4,404,83.4 M396.3,97
				c-0.9,0-2.2,0-4,0c-1.8,0-4.3,0-7.4,0c-0.6,0-1.1,0-1.6,0.1c-0.8,0.1-1.5,0.4-2.1,0.9l-0.1,0.1c-0.6,0.6-0.9,1.4-0.9,2.3
				c0,0.9,0.3,1.7,0.9,2.3l0.1,0.1c0.6,0.5,1.3,0.8,2.1,0.9c0.5,0,1,0.1,1.6,0.1c2,0,4.1,0,6.1,0.1c1.1,0,2.3,0.1,3.4,0.1l0.7,0
				l-0.2,0.6c-1,3.4-2.1,6.8-3.1,10.1l-2.1,7l-0.1,0.1c-0.5,0.5-1.1,1.1-1.8,1.7c-1.2,1.2-2.5,2.3-3.8,3.4c-1.3,1.1-2.7,2-3.9,2.7
				c-0.8,0.5-1.6,0.8-2.2,0.9l-0.6,0.1l0-0.6c0-0.6,0.1-1.2,0.3-2c0.3-1.2,0.7-2.4,1.2-3.7c0.6-1.3,1.1-2.4,1.6-3.3
				c0.4-0.6,0.7-1.2,1-1.9c0.5-1.1,0.3-2.2-0.4-3.2l-0.1-0.1c-0.5-0.6-1.2-1-2-1.3c-0.4-0.1-0.9-0.2-1.3-0.2c-0.4,0-0.7,0-1,0.1
				l-0.1,0c-0.6,0.2-1.2,0.6-1.7,1.2c-0.3,0.4-0.6,0.8-1,1.3c-0.3,0.5-0.6,1-0.8,1.4c-0.2,0.4-0.4,0.7-0.5,0.8
				c-0.6,0.7-1.2,1.7-1.9,2.9c-0.6,1.1-1.3,2.2-2.1,3.2c-0.8,1-1.6,1.9-2.5,2.6c-0.2,0.2-0.4,0.3-0.6,0.4l-1,0.6l0.3-1.1
				c0.1-0.6,0.3-1.2,0.6-1.8c0.5-1.2,1-2.5,1.6-3.7c0.7-1.3,1.1-2.3,1.4-3c0.4-0.8,0.6-1.4,0.6-2c0-0.8-0.5-1.9-2.6-2.3
				c-0.2-0.1-0.5-0.1-0.8-0.1c-0.8,0-1.9,0.3-3,1.5c-0.7,0.8-1.5,1.9-2.2,3.3c-0.7,1.4-1.4,2.8-1.9,4.3c-0.5,1.5-0.9,3-1.1,4.4
				c-0.2,1.7-0.1,3,0.4,4.2c0.7,1.4,1.8,2.3,3.3,2.7c0.6,0.1,1.2,0.2,1.8,0.2c0.7,0,1.4-0.1,2.1-0.2c1.5-0.4,3-1,4.2-2l0.7-0.6
				l0.2,0.6c0.1,0.3,0.3,0.7,0.5,1c0.5,0.9,1.2,1.6,2.2,2.1c0.9,0.5,2.1,0.8,3.4,0.8c1.6,0,3.3-0.4,5.1-1.2c1.3-0.6,2.7-1.3,4-2.3
				l1.2-0.8l-2.1,7.1c-0.3,1-0.6,2-0.9,3l-0.8,2.9c-0.2,0.5-0.3,1.1-0.3,1.7c-0.1,0.8,0.2,1.6,0.8,2.3l0.1,0.1
				c0.5,0.5,1.1,0.8,1.7,1c0.4,0.1,0.9,0.2,1.3,0.2c0.2,0,0.5,0,0.7,0c1.2-0.2,2.2-0.7,3-1.5c0.6-0.7,1.2-1.5,1.6-2.5
				c0.2-0.5,0.3-1.3-0.1-2.3l-0.2-0.3l4.4-15.8c1.2-4.2,2.5-8.5,3.9-12.9c1.2-3.8,2.3-7.7,3.4-11.5l0.1-0.4h8.6c1.8,0,3.5,0,5,0
				c1.5,0,2.4,0,2.7,0c1.7,0,2.9-0.3,3.7-0.9c1-0.7,1.4-1.8,1.2-2.8c-0.2-0.9-0.8-1.6-1.7-2.2c-0.9-0.6-1.9-0.8-3.2-0.8H405l2.4-8
				c0.2-0.7,0.2-1.3,0.2-1.8c-0.1-0.6-0.4-1.4-1.5-2.1l-0.1,0c-0.7-0.4-1.3-0.6-1.9-0.6c-0.2,0-0.4,0-0.6,0.1
				c-0.8,0.2-1.5,0.6-2,1.2c-0.4,0.5-0.7,1-1,1.6c-0.2,0.5-0.4,1-0.5,1.4l-2.8,8.3H396.3 M404,82.6c-0.3,0-0.7,0-1,0.1
				c-1.2,0.3-2.2,0.9-3,1.8c-0.5,0.6-0.9,1.3-1.2,2.1c-0.2,0.5-0.4,1-0.5,1.5l-2.4,7c-0.9,0-2.1,0-3.5,0c-1.8,0-4.3,0-7.5,0
				c-0.6,0-1.2,0-1.7,0.1c-1.1,0.1-2.2,0.5-3.2,1.3l-0.2,0.2c-1,1-1.4,2.2-1.4,3.6c0,1.4,0.5,2.6,1.4,3.6l0.2,0.2
				c0.9,0.8,2,1.3,3.2,1.4c0.5,0,1.1,0.1,1.7,0.1c2,0,4,0,6,0.1c0.6,0,1.1,0,1.7,0c-0.9,2.8-1.7,5.7-2.6,8.5l-2,6.5
				c-0.5,0.5-1,1-1.6,1.5c-1.2,1.1-2.4,2.2-3.7,3.3c-1.2,0.9-2.4,1.8-3.5,2.5c0.2-0.9,0.6-1.8,1-2.8c0.5-1.2,1-2.2,1.5-3
				c0.4-0.6,0.8-1.4,1.1-2.2c0.7-1.7,0.5-3.5-0.6-5l-0.1-0.1c-0.7-0.9-1.7-1.5-2.8-1.9c-0.6-0.2-1.2-0.3-1.8-0.3
				c-0.5,0-1,0.1-1.5,0.2l-0.2,0.1c-1,0.3-1.9,0.9-2.5,1.8c-0.4,0.4-0.7,1-1.1,1.5c-0.3,0.5-0.6,1-0.9,1.5c-0.2,0.3-0.3,0.5-0.3,0.5
				c-0.2,0.3-0.5,0.6-0.7,0.9c0.2-0.6,0.3-1.2,0.3-1.8c0-0.8-0.3-3.3-4-4.1c-0.2-0.1-0.7-0.1-1.2-0.1c-1.2,0-2.8,0.4-4.3,2.1
				c-0.8,0.9-1.6,2.1-2.5,3.6c-0.8,1.4-1.5,3-2,4.6c-0.5,1.6-0.9,3.2-1.2,4.8c-0.3,2-0.1,3.7,0.6,5.2c1,2,2.5,3.2,4.5,3.7
				c0.7,0.2,1.4,0.2,2.2,0.2c0.8,0,1.6-0.1,2.5-0.3c1.3-0.3,2.6-0.8,3.8-1.6c0.7,1.1,1.6,2,2.8,2.6c1.2,0.7,2.6,1,4.3,1
				c1.9,0,3.8-0.4,5.8-1.3c0.4-0.2,0.9-0.4,1.3-0.6l-0.7,2.5c-0.3,1-0.6,2-0.9,3.1l-0.8,2.9c-0.2,0.6-0.3,1.3-0.4,2
				c-0.1,1.3,0.3,2.6,1.2,3.6l0.2,0.2c0.7,0.7,1.6,1.2,2.5,1.5c0.6,0.2,1.2,0.3,1.9,0.3c0.3,0,0.6,0,1-0.1c1.7-0.2,3-0.9,4.1-2
				c0.8-0.9,1.5-1.9,1.9-3.1c0.3-0.8,0.5-2-0.1-3.4l4.2-15.1c1.2-4.1,2.5-8.5,3.9-12.9c1.1-3.5,2.2-7.1,3.1-10.6h7.2
				c1.9,0,3.6,0,5.1,0c1.4,0,2.3,0,2.6,0c2.2,0,3.7-0.4,4.8-1.3c1.5-1.2,2.2-2.8,1.8-4.6c-0.3-1.4-1.1-2.5-2.5-3.4
				c-1.2-0.7-2.6-1.1-4.2-1.1h-11.7l1.7-5.6l0-0.1c0.2-0.9,0.3-1.7,0.2-2.4c-0.1-1-0.6-2.4-2.4-3.5l-0.1-0.1
				C405.9,82.9,405,82.6,404,82.6L404,82.6z M396.3,97.8h0.9c0.3,0,0.6-0.2,0.8-0.5l2.8-8.3c0.1-0.4,0.3-0.8,0.5-1.3
				c0.2-0.5,0.5-1,0.8-1.4c0.4-0.5,0.9-0.8,1.5-0.9c0.2,0,0.3,0,0.5,0c0.5,0,1,0.2,1.6,0.5l0.1,0c0.7,0.4,1.1,1,1.1,1.5
				c0,0.4,0,0.9-0.2,1.5l-2.4,8c-0.1,0.2,0,0.5,0.1,0.7c0.2,0.2,0.4,0.3,0.6,0.3h14.1c1.1,0,2,0.2,2.7,0.7c0.8,0.5,1.2,1.1,1.4,1.7
				c0.2,0.7-0.2,1.4-0.9,2c-0.7,0.5-1.7,0.7-3.2,0.7c-0.3,0-1.2,0-2.7,0c-1.4,0-3.1,0-5,0h-8.6c-0.4,0-0.7,0.2-0.8,0.6L402,104
				c-1,3.8-2.1,7.7-3.3,11.5c-1.4,4.4-2.7,8.8-3.9,12.9l-4.4,15.8c-0.1,0.2,0,0.4,0.1,0.6l0.2,0.3c0.3,0.6,0.3,1.1,0.1,1.6
				c-0.4,0.9-0.8,1.7-1.4,2.3c-0.6,0.7-1.5,1.1-2.5,1.2c-0.2,0-0.4,0-0.6,0c-0.4,0-0.8-0.1-1.1-0.2c-0.5-0.2-1-0.4-1.4-0.8l-0.1-0.1
				c-0.4-0.5-0.6-1.1-0.6-1.7c0-0.5,0.1-1,0.3-1.5l0.8-2.9c0.3-1,0.6-2,0.9-3l2.1-7.1c0.1-0.3,0-0.7-0.3-0.9
				c-0.1-0.1-0.3-0.1-0.5-0.1c-0.2,0-0.3,0-0.5,0.1l-1.2,0.8c-1.3,0.9-2.6,1.6-3.8,2.2c-1.7,0.7-3.3,1.1-4.8,1.1
				c-1.2,0-2.2-0.2-3-0.7c-0.8-0.5-1.5-1.1-1.9-1.8c-0.2-0.3-0.3-0.6-0.4-0.9l-0.2-0.6c-0.1-0.2-0.3-0.4-0.5-0.5c-0.1,0-0.1,0-0.2,0
				c-0.2,0-0.3,0.1-0.5,0.2l-0.7,0.6c-1.2,0.9-2.5,1.5-3.9,1.9c-0.6,0.1-1.3,0.2-1.9,0.2c-0.5,0-1.1-0.1-1.6-0.2
				c-1.2-0.3-2.1-1-2.7-2.2c-0.5-1-0.6-2.2-0.4-3.7c0.2-1.4,0.5-2.8,1-4.3c0.5-1.5,1.1-2.9,1.8-4.2c0.7-1.3,1.4-2.4,2.1-3.1
				c0.7-0.8,1.5-1.2,2.4-1.2c0.2,0,0.4,0,0.6,0.1c1.3,0.3,2,0.8,2,1.5c0,0.5-0.2,1.1-0.5,1.7c-0.3,0.7-0.8,1.7-1.4,3
				c-0.6,1.3-1.2,2.5-1.7,3.8c-0.3,0.7-0.5,1.3-0.6,1.9l-0.3,1.1c-0.1,0.3,0,0.6,0.3,0.8c0.1,0.1,0.3,0.2,0.5,0.2
				c0.1,0,0.3,0,0.4-0.1l1-0.6c0.2-0.1,0.5-0.3,0.7-0.5c0.9-0.8,1.8-1.7,2.6-2.8c0.8-1.1,1.5-2.2,2.2-3.3c0.7-1.2,1.3-2.1,1.8-2.8
				c0.1-0.2,0.3-0.5,0.5-0.9c0.2-0.4,0.5-0.9,0.8-1.4c0.3-0.5,0.6-0.9,0.9-1.3c0.4-0.5,0.8-0.8,1.3-0.9l0.1,0
				c0.3-0.1,0.5-0.1,0.8-0.1c0.4,0,0.7,0.1,1.1,0.2c0.6,0.2,1.2,0.6,1.6,1l0,0.1c0.5,0.7,0.6,1.5,0.3,2.4c-0.3,0.6-0.6,1.3-0.9,1.8
				c-0.6,0.9-1.1,2.1-1.7,3.4c-0.6,1.3-1,2.6-1.3,3.8c-0.2,0.8-0.3,1.6-0.3,2.2l0,0.6c0,0.2,0.1,0.5,0.3,0.6
				c0.1,0.1,0.3,0.2,0.5,0.2c0.1,0,0.1,0,0.2,0l0.6-0.1c0.7-0.1,1.6-0.5,2.5-1c1.3-0.8,2.7-1.7,4-2.8c1.4-1.1,2.7-2.2,3.9-3.4
				c0.7-0.6,1.3-1.2,1.8-1.7l0.1-0.1c0.1-0.1,0.2-0.2,0.2-0.3l2.1-7c1-3.4,2.1-6.8,3.1-10.1l0.2-0.6c0.1-0.2,0-0.5-0.1-0.7
				c-0.1-0.2-0.4-0.3-0.6-0.3l-0.7,0c-1.1,0-2.3,0-3.4-0.1c-2-0.1-4.1-0.1-6.1-0.1c-0.5,0-1,0-1.5-0.1c-0.6,0-1.2-0.3-1.6-0.7
				l-0.1-0.1c-0.4-0.4-0.7-1-0.7-1.7c0-0.7,0.2-1.3,0.7-1.7l0.1-0.1c0.5-0.4,1-0.6,1.6-0.7c0.5,0,1-0.1,1.5-0.1c3.1,0,5.6,0,7.4,0
				C394,97.8,395.3,97.8,396.3,97.8L396.3,97.8z"/>
		</g>
	</g>
</g>
</svg>
