<svg xmlns="http://www.w3.org/2000/svg" viewBox="0 0 140.94 36"><defs><style>.cls-1{fill:#002355;}.cls-2{fill:#fff;}</style></defs><title>cta</title><g id="Layer_2" data-name="Layer 2"><g id="Btn"><rect class="cls-1" width="140.94" height="36"/><path class="cls-2" d="M11.48,21.35a1.5,1.5,0,0,0,.42.76,1.16,1.16,0,0,0,.81.3,1.22,1.22,0,0,0,.63-.15,1,1,0,0,0,.39-.39,1.82,1.82,0,0,0,.2-.57,4,4,0,0,0,.06-.71V14.75h1.19v5.89a4.49,4.49,0,0,1-.1.94,2.48,2.48,0,0,1-.36.91,2.14,2.14,0,0,1-.73.7,2.48,2.48,0,0,1-1.22.27,2.46,2.46,0,0,1-1.59-.5,2.42,2.42,0,0,1-.8-1.3Z"/><path class="cls-2" d="M18.84,22.19h4.44v1.06H17.65v-8.5H23.1v1H18.84v2.55h4v1h-4Z"/><path class="cls-2" d="M28.32,23.25H27.13V15.79H24.41v-1H31v1H28.32Z"/><path class="cls-2" d="M38.11,15.79l-4.8,6.4h4.87v1.06H31.87V22.2l4.79-6.41H32v-1h6.14Z"/><path class="cls-2" d="M43.07,23.25H41.88V15.79H39.16v-1h6.63v1H43.07Z"/><path class="cls-2" d="M50.59,14.75h2.59a5.31,5.31,0,0,1,1.25.14,2.64,2.64,0,0,1,1,.42,1.9,1.9,0,0,1,.61.74,2.31,2.31,0,0,1,.22,1.06,2.48,2.48,0,0,1-.23,1.1,2.11,2.11,0,0,1-.65.74,3.19,3.19,0,0,1-1,.43,5.34,5.34,0,0,1-1.23.13H51.78v3.74H50.59Zm1.19,3.76H53a4,4,0,0,0,.8-.08,2,2,0,0,0,.63-.24,1.1,1.1,0,0,0,.4-.43,1.28,1.28,0,0,0,.15-.65,1.16,1.16,0,0,0-.56-1.06,1.82,1.82,0,0,0-.62-.23,4.75,4.75,0,0,0-.78-.06H51.78Z"/><path class="cls-2" d="M59.4,23.25H58.21v-8.5h2.72a4.94,4.94,0,0,1,1.17.13,2.72,2.72,0,0,1,1,.4,2,2,0,0,1,.65.72A2.32,2.32,0,0,1,64,17.1a2,2,0,0,1-.58,1.51,2.68,2.68,0,0,1-1.49.74l2.38,3.9H62.83l-2.16-3.78H59.4Zm0-4.78h1.37a3.84,3.84,0,0,0,.78-.07,2,2,0,0,0,.63-.24,1.06,1.06,0,0,0,.42-.42,1.15,1.15,0,0,0,.16-.64,1.17,1.17,0,0,0-.16-.64,1.15,1.15,0,0,0-.41-.41,1.84,1.84,0,0,0-.61-.23,4.23,4.23,0,0,0-.73-.06H59.4Z"/><path class="cls-2" d="M74.63,19a4.62,4.62,0,0,1-.35,1.8,4.19,4.19,0,0,1-.94,1.42,4.24,4.24,0,0,1-1.43.92,5,5,0,0,1-3.59,0,4.3,4.3,0,0,1-1.42-.92A4.35,4.35,0,0,1,66,20.79a5.13,5.13,0,0,1,0-3.62,4.2,4.2,0,0,1,.94-1.41,4.25,4.25,0,0,1,1.42-.9,5,5,0,0,1,3.59,0,4.2,4.2,0,0,1,1.43.9,4.06,4.06,0,0,1,.94,1.41A4.65,4.65,0,0,1,74.63,19Zm-1.29,0a3.81,3.81,0,0,0-.22-1.32,3.46,3.46,0,0,0-.65-1.08,2.91,2.91,0,0,0-1-.74,3.16,3.16,0,0,0-1.33-.27,3.19,3.19,0,0,0-1.33.27,2.88,2.88,0,0,0-1,.74,3.26,3.26,0,0,0-.64,1.08A3.81,3.81,0,0,0,66.91,19a3.91,3.91,0,0,0,.23,1.33,3.18,3.18,0,0,0,.65,1.08,3,3,0,0,0,1,.73,3.19,3.19,0,0,0,1.33.26,3.22,3.22,0,0,0,1.33-.26,3,3,0,0,0,1-.73,3.35,3.35,0,0,0,.65-1.08A3.91,3.91,0,0,0,73.34,19Z"/><path class="cls-2" d="M77.91,23.25H76.73v-8.5H82v1H77.91v2.64h3.86v1H77.91Z"/><path class="cls-2" d="M85.21,23.25H84v-8.5h1.19Z"/><path class="cls-2" d="M90.73,23.25H89.54V15.79H86.82v-1h6.63v1H90.73Z"/><path class="cls-2" d="M96.25,23.25H95.06v-8.5h1.19Z"/><path class="cls-2" d="M100,22.19h4.44v1.06H98.79v-8.5h5.45v1H100v2.55h4v1h-4Z"/><path class="cls-2" d="M107.67,23.25h-1.18v-8.5h2.72a4.79,4.79,0,0,1,1.16.13,2.72,2.72,0,0,1,1,.4A1.88,1.88,0,0,1,112,16a2.32,2.32,0,0,1,.24,1.1,2,2,0,0,1-.57,1.51,2.71,2.71,0,0,1-1.49.74l2.38,3.9h-1.44L109,19.47h-1.28Zm0-4.78H109a3.84,3.84,0,0,0,.78-.07,2,2,0,0,0,.63-.24,1.15,1.15,0,0,0,.43-.42,1.24,1.24,0,0,0,.15-.64,1.26,1.26,0,0,0-.15-.64,1.18,1.18,0,0,0-.42-.41,1.79,1.79,0,0,0-.6-.23,4.32,4.32,0,0,0-.73-.06h-1.46Z"/><path class="cls-2" d="M115.52,22.19H120v1.06h-5.63v-8.5h5.45v1h-4.26v2.55h4v1h-4Z"/><path class="cls-2" d="M128,21.54h0V14.75h1.19v8.5h-1.5l-4.49-6.94h0v6.94H122v-8.5h1.54Z"/></g></g></svg>