<svg xmlns="http://www.w3.org/2000/svg" xmlns:xlink="http://www.w3.org/1999/xlink" viewBox="0 0 511.74 563.24"><defs><style>.cls-1{fill:url(#linear-gradient);}.cls-2{fill:url(#linear-gradient-2);}.cls-3{fill:url(#linear-gradient-3);}.cls-4{fill:url(#linear-gradient-4);}.cls-5{fill:url(#linear-gradient-5);}.cls-6{fill:url(#linear-gradient-6);}.cls-7{fill:url(#linear-gradient-7);}.cls-8{fill:url(#linear-gradient-8);}.cls-9{fill:url(#linear-gradient-9);}.cls-10{fill:url(#linear-gradient-10);}.cls-11{fill:url(#linear-gradient-11);}.cls-12{fill:url(#linear-gradient-12);}.cls-13{fill:url(#linear-gradient-13);}.cls-14{fill:url(#linear-gradient-14);}.cls-15{fill:url(#linear-gradient-15);}.cls-16{fill:url(#linear-gradient-16);}.cls-17{fill:url(#linear-gradient-17);}.cls-18{fill:url(#linear-gradient-18);}.cls-19{fill:url(#linear-gradient-19);}.cls-20{fill:url(#linear-gradient-20);}.cls-21{fill:url(#linear-gradient-21);}.cls-22{fill:url(#linear-gradient-22);}.cls-23{fill:url(#linear-gradient-23);}.cls-24{fill:url(#linear-gradient-24);}.cls-25{fill:url(#linear-gradient-25);}.cls-26{fill:url(#linear-gradient-26);}.cls-27{fill:url(#linear-gradient-27);}.cls-28{fill:url(#linear-gradient-28);}.cls-29{fill:url(#linear-gradient-29);}.cls-30{fill:url(#linear-gradient-30);}.cls-31{fill:url(#linear-gradient-31);}.cls-32{fill:url(#linear-gradient-32);}.cls-33{fill:url(#linear-gradient-33);}.cls-34{fill:url(#linear-gradient-34);}.cls-35{fill:url(#linear-gradient-35);}.cls-36{fill:url(#linear-gradient-36);}.cls-37{fill:url(#linear-gradient-37);}.cls-38{fill:url(#linear-gradient-38);}.cls-39{fill:url(#linear-gradient-39);}.cls-40{fill:url(#linear-gradient-40);}.cls-41{fill:url(#linear-gradient-41);}.cls-42{fill:url(#linear-gradient-42);}</style><linearGradient id="linear-gradient" x1="243.76" y1="-442.55" x2="306.23" y2="-253.88" gradientTransform="matrix(0.94, -0.34, 0.34, 0.94, 48.89, 621.57)" gradientUnits="userSpaceOnUse"><stop offset="0" stop-color="#0d3970"/><stop offset="0.18" stop-color="#0b305f"/><stop offset="0.46" stop-color="#082649"/><stop offset="0.74" stop-color="#071f3c"/><stop offset="1" stop-color="#061d38"/></linearGradient><linearGradient id="linear-gradient-2" x1="291.31" y1="-460.97" x2="285.06" y2="-193.17" gradientTransform="matrix(0.94, -0.34, 0.34, 0.94, 48.89, 621.57)" gradientUnits="userSpaceOnUse"><stop offset="0" stop-color="#0a2e5c"/><stop offset="1" stop-color="#061d38"/></linearGradient><linearGradient id="linear-gradient-3" x1="453.54" y1="1645.41" x2="517.66" y2="1839.05" gradientTransform="matrix(0.71, 0.43, -0.43, 0.72, 783.42, -1245.09)" xlink:href="#linear-gradient-2"/><linearGradient id="linear-gradient-4" x1="384.59" y1="-765.2" x2="166.27" y2="-568.84" gradientTransform="matrix(0.83, -0.45, 0.27, 0.85, 339.89, 919)" xlink:href="#linear-gradient"/><linearGradient id="linear-gradient-5" x1="5426.74" y1="384.22" x2="5489.21" y2="572.89" gradientTransform="matrix(-0.66, -0.01, -0.01, 0.86, 3911.22, -163.03)" xlink:href="#linear-gradient-2"/><linearGradient id="linear-gradient-6" x1="5474.29" y1="365.8" x2="5468.04" y2="633.6" gradientTransform="matrix(-0.66, -0.01, -0.01, 0.86, 3911.22, -163.03)" xlink:href="#linear-gradient"/><linearGradient id="linear-gradient-7" x1="289.98" y1="-440.46" x2="313.3" y2="-209.31" xlink:href="#linear-gradient"/><linearGradient id="linear-gradient-8" x1="336.83" y1="-524.71" x2="286.86" y2="-197.36" xlink:href="#linear-gradient-2"/><linearGradient id="linear-gradient-9" x1="1127.22" y1="-2203.17" x2="1148.63" y2="-1991.04" gradientTransform="matrix(0.44, -0.9, 0.74, 0.36, 1218.13, 2116.39)" xlink:href="#linear-gradient-2"/><linearGradient id="linear-gradient-10" x1="1167.68" y1="-2289.12" x2="1120.74" y2="-1981.66" gradientTransform="matrix(0.44, -0.9, 0.74, 0.36, 1218.13, 2116.39)" xlink:href="#linear-gradient"/><linearGradient id="linear-gradient-11" x1="3845.04" y1="870.12" x2="3868.16" y2="1099.18" gradientTransform="matrix(-1.22, -0.24, -0.15, 0.78, 5187, 381.77)" xlink:href="#linear-gradient-2"/><linearGradient id="linear-gradient-12" x1="3889.18" y1="783.29" x2="3839.2" y2="1110.64" gradientTransform="matrix(-1.22, -0.24, -0.15, 0.78, 5187, 381.77)" xlink:href="#linear-gradient"/><linearGradient id="linear-gradient-13" x1="158.79" y1="-434.06" x2="297.06" y2="-248.3" xlink:href="#linear-gradient-2"/><linearGradient id="linear-gradient-14" x1="189.91" y1="-450.59" x2="280.49" y2="-240.68" xlink:href="#linear-gradient"/><linearGradient id="linear-gradient-15" x1="180.18" y1="-438.7" x2="309.71" y2="-251.7" xlink:href="#linear-gradient"/><linearGradient id="linear-gradient-16" x1="217.65" y1="-440.66" x2="293.45" y2="-242" xlink:href="#linear-gradient-2"/><linearGradient id="linear-gradient-17" x1="377.04" y1="-1445.45" x2="506.57" y2="-1258.44" gradientTransform="matrix(0.67, -0.69, 0.63, 0.62, 675.33, 1447.99)" xlink:href="#linear-gradient-2"/><linearGradient id="linear-gradient-18" x1="414.52" y1="-1447.42" x2="490.32" y2="-1248.74" gradientTransform="matrix(0.67, -0.69, 0.63, 0.62, 675.33, 1447.99)" xlink:href="#linear-gradient"/><linearGradient id="linear-gradient-19" x1="177.35" y1="688.76" x2="306.89" y2="875.77" gradientTransform="matrix(0.89, 0.14, -0.14, 0.88, 167.79, -528.73)" xlink:href="#linear-gradient"/><linearGradient id="linear-gradient-20" x1="214.83" y1="686.8" x2="290.63" y2="885.47" gradientTransform="matrix(0.89, 0.14, -0.14, 0.88, 167.79, -528.73)" xlink:href="#linear-gradient-2"/><linearGradient id="linear-gradient-21" x1="1299.04" y1="2549.09" x2="1428.56" y2="2736.09" gradientTransform="matrix(0.52, 0.67, -0.58, 0.45, 1207.12, -1844.67)" xlink:href="#linear-gradient"/><linearGradient id="linear-gradient-22" x1="1336.51" y1="2547.13" x2="1412.31" y2="2745.78" gradientTransform="matrix(0.52, 0.67, -0.58, 0.45, 1207.12, -1844.67)" xlink:href="#linear-gradient-2"/><linearGradient id="linear-gradient-23" x1="2755.15" y1="-3081.59" x2="2884.68" y2="-2894.59" gradientTransform="matrix(0.07, 0.85, 0.73, -0.06, 2121.93, -2203.37)" xlink:href="#linear-gradient"/><linearGradient id="linear-gradient-24" x1="2792.63" y1="-3083.55" x2="2868.43" y2="-2884.89" gradientTransform="matrix(0.07, 0.85, 0.73, -0.06, 2121.93, -2203.37)" xlink:href="#linear-gradient-2"/><linearGradient id="linear-gradient-25" x1="340.42" y1="1621.84" x2="469.94" y2="1808.84" gradientTransform="matrix(0.68, 0.39, -0.41, 0.7, 766.68, -1147.04)" xlink:href="#linear-gradient"/><linearGradient id="linear-gradient-26" x1="377.89" y1="1619.87" x2="453.69" y2="1818.54" gradientTransform="matrix(0.68, 0.39, -0.41, 0.7, 766.68, -1147.04)" xlink:href="#linear-gradient-2"/><linearGradient id="linear-gradient-27" x1="351.34" y1="-438.29" x2="303.44" y2="-200.06" xlink:href="#linear-gradient-2"/><linearGradient id="linear-gradient-28" x1="328.04" y1="-498.74" x2="324.29" y2="-173.88" xlink:href="#linear-gradient"/><linearGradient id="linear-gradient-29" x1="1247.15" y1="-2937.42" x2="1197.18" y2="-2688.87" gradientTransform="matrix(0.16, -0.68, 0.7, 0.16, 1939.69, 1639.42)" xlink:href="#linear-gradient"/><linearGradient id="linear-gradient-30" x1="1220.48" y1="-3002.96" x2="1216.54" y2="-2661.01" gradientTransform="matrix(0.16, -0.68, 0.7, 0.16, 1939.69, 1639.42)" xlink:href="#linear-gradient-2"/><linearGradient id="linear-gradient-31" x1="585.99" y1="-222.11" x2="332.49" y2="-144.41" gradientTransform="translate(51.69 633) rotate(-19.99)" xlink:href="#linear-gradient-2"/><linearGradient id="linear-gradient-32" x1="458.31" y1="-232.4" x2="411.07" y2="-134.14" gradientTransform="translate(51.69 633) rotate(-19.99)" xlink:href="#linear-gradient"/><linearGradient id="linear-gradient-33" x1="4459.84" y1="-1087.83" x2="4411.94" y2="-849.6" gradientTransform="matrix(-0.8, 0.6, 0.58, 0.78, 4285.83, -1636.85)" xlink:href="#linear-gradient-2"/><linearGradient id="linear-gradient-34" x1="4436.53" y1="-1148.28" x2="4432.79" y2="-823.42" gradientTransform="matrix(-0.8, 0.6, 0.58, 0.78, 4285.83, -1636.85)" xlink:href="#linear-gradient"/><linearGradient id="linear-gradient-35" x1="4099.88" y1="-1339.34" x2="4052.3" y2="-1102.69" gradientTransform="matrix(-0.75, 0.72, 0.63, 0.66, 4013.13, -1844.58)" xlink:href="#linear-gradient-2"/><linearGradient id="linear-gradient-36" x1="125.61" y1="-410.32" x2="296.36" y2="-184.59" xlink:href="#linear-gradient"/><linearGradient id="linear-gradient-37" x1="3120.95" y1="-3220.28" x2="3071.96" y2="-2976.61" gradientTransform="matrix(-0.09, 0.82, 0.66, 0.07, 2478.52, -1927.75)" xlink:href="#linear-gradient-2"/><linearGradient id="linear-gradient-38" x1="366.53" y1="-2388.89" x2="532.56" y2="-2169.4" gradientTransform="matrix(0.37, -0.69, 0.62, 0.39, 1408.85, 1597.48)" xlink:href="#linear-gradient"/><linearGradient id="linear-gradient-39" x1="396.74" y1="-479.61" x2="309.9" y2="-129.76" xlink:href="#linear-gradient-2"/><linearGradient id="linear-gradient-40" x1="382.66" y1="-523.82" x2="325.19" y2="-168.97" xlink:href="#linear-gradient"/><linearGradient id="linear-gradient-41" x1="307.35" y1="-133.89" x2="297.35" y2="42.91" gradientTransform="matrix(1, -0.05, 0.05, 1, 19.19, 537.73)" gradientUnits="userSpaceOnUse"><stop offset="0" stop-color="#061d38"/><stop offset="1" stop-color="#0a2e5c"/></linearGradient><linearGradient id="linear-gradient-42" x1="284.8" y1="-60.53" x2="311.38" y2="-60.53" gradientTransform="translate(25.13 535.9) rotate(-16.99)" gradientUnits="userSpaceOnUse"><stop offset="0.05" stop-color="#061d38"/><stop offset="1" stop-color="#061d38"/></linearGradient></defs><title>l3</title><g id="Layer_2" data-name="Layer 2"><g id="leaves_state_1-3" data-name="leaves state 1-3"><path class="cls-1" d="M295.76,399.26S220.66,251.43,210,230.45C199.67,210,126.57,59.09,122.9,51.44c2.17,3.54,23.77,39.36,33.86,58.63a2.42,2.42,0,0,0,.19.36c1.69,3.48,2.85,5.8,3.13,6.36a.42.42,0,0,1,.07.13s94.59,186.14,135,281c.16.37.29.67.37.88S295.7,399.1,295.76,399.26Z"/><path class="cls-2" d="M295.2,397.92c-40.46-94.86-135-281-135-281a.42.42,0,0,0-.07-.13c-.28-.56-1.44-2.88-3.13-6.36a2.42,2.42,0,0,1-.19-.36C148.82,94,129.63,54.44,128.49,46.43c0,0,86.25,158.89,94.95,177C231.66,240.59,289,382.67,295.2,397.92Z"/><path class="cls-3" d="M295.71,396.73c27.5-48.56,53.18-98.35,77.14-148.4,24.44-51.05,48.21-102.78,69.41-155.3-1,3.34-11.34,36.92-18.15,54.09a1.2,1.2,0,0,0-.13.32c-1.3,3-2.17,5.05-2.38,5.55a.25.25,0,0,1,0,.12C386.85,236.62,346,319.38,296.43,395.64c-.19.3-.35.55-.47.72S295.8,396.61,295.71,396.73Z"/><path class="cls-4" d="M296.43,395.64s90.42-159,125.13-242.53a.25.25,0,0,0,0-.12c.21-.5,1.08-2.53,2.38-5.55a1.2,1.2,0,0,1,.13-.32c5.95-14,13.73-34.53,18.11-39.83-17,49-34.66,100.22-57.28,145.62C360.83,301.3,296.43,395.64,296.43,395.64Z"/><path class="cls-5" d="M295.83,397.08s15.23-140.65,17.38-160.6c2.08-19.44,15.42-162,16.07-169.24-.6,3.48-6.4,38.52-8.58,56.94,0,.12,0,.23,0,.34-.32,3.29-.54,5.49-.6,6,0,0,0,.09,0,.13s-19.19,177.09-24.16,265.17c0,.34,0,.62,0,.81S295.83,396.93,295.83,397.08Z"/><path class="cls-6" d="M295.89,395.84c5-88.08,24.16-265.17,24.16-265.17s0-.09,0-.13c.06-.53.28-2.73.6-6,0-.11,0-.22,0-.34,1.52-15.24,5-52.61,4-59.4,0,0-19.82,152.72-21.37,169.81C301.91,250.77,296.48,381.77,295.89,395.84Z"/><path class="cls-7" d="M295.8,398.13a5.8,5.8,0,0,1,.31,1s-76.62-196-96.22-248.23c-18.4-49-52.23-116.37-56.37-124.6L198,128.72s32,87.75,42.57,116.47C250.68,272.61,291.85,386.06,295.8,398.13Z"/><path class="cls-8" d="M295.8,398.13c-3.95-12.07-45.12-125.52-55.27-152.94C229.92,216.47,198,128.72,198,128.72c-36.36-89.3-40.79-113.8-40.79-113.8,3.61,9.64,75,181.7,81.66,198.35C245.17,229.16,291.6,384.11,295.8,398.13Z"/><path class="cls-9" d="M294.88,398.51a5.47,5.47,0,0,1,.76.42S136.85,328.46,95.06,309.07a756.73,756.73,0,0,0-79.6-31.72l50.74,11.9s86,37.36,108.86,48.13C196.9,347.66,285.61,393.62,294.88,398.51Z"/><path class="cls-10" d="M294.88,398.51c-9.27-4.89-99.09-48-120.93-58.28-22.86-10.77-92.41-44-92.41-44C8.23,265.13,8.86,263.51,8.86,263.51c7.71,3.58,132.79,51.53,146.37,57.43C168.18,326.56,284.37,392.54,294.88,398.51Z"/><path class="cls-11" d="M296.82,397a3.87,3.87,0,0,0-.1.83S336,234.11,345.48,190.5c8.92-40.86,18.45-97.86,21.21-104.77l-24.86,86.53S327.06,245.45,322,269.41C317.24,292.29,298.32,386.92,296.82,397Z"/><path class="cls-12" d="M296.82,397c1.5-10.05,20.42-104.68,25.22-127.56,5-24,19.79-97.15,19.79-97.15,19.63-74.66,18.36-94.91,18.36-94.91C358.44,85.4,319,229.29,315.5,243.21,312.17,256.49,298.09,385.31,296.82,397Z"/><path class="cls-13" d="M294.25,399.51c-13.28-15.07-137.59-172-163.94-205.74C103.74,159.73,60.23,87.3,58.89,85c.32.38,2.76,3.41,6.47,8,0,0,0,0,0,.06a.28.28,0,0,1,.11.15c3.16,4.36,54.52,75.44,86.82,115.94,29.52,37,114.06,150.09,137.11,182.25a1.18,1.18,0,0,0,.11.15C291.2,394.32,292.78,397,294.25,399.51Z"/><path class="cls-14" d="M289.44,391.41C266.39,359.25,181.85,246.2,152.33,209.16,120,168.66,68.67,97.58,65.51,93.22c13.92,17.12,45.12,55.52,49.35,60.14,5.47,6,75.12,91.36,93.75,116.54C225.94,293.36,265.73,351.86,289.44,391.41Z"/><path class="cls-15" d="M294.86,399.21a.13.13,0,0,1-.08-.07,5.75,5.75,0,0,0-.32-.53c-.07-.13-.17-.25-.24-.39-8.55-13.76-82.65-132.81-100.68-162.9-19.18-32-103.08-157-104.28-165l0,.09,18,26.79s83.77,117.65,96.65,141.89C216.49,262.62,290.79,392.15,294.86,399.21Z"/><path class="cls-16" d="M294.86,399.21c-4.07-7.06-78.37-136.59-90.93-160.15-12.88-24.24-96.65-141.89-96.65-141.89l-18-26.79c2.61,3.28,86.62,109.24,114.24,155.54C230.81,271.61,291.39,392.26,294.86,399.21Z"/><path class="cls-17" d="M296,399.83s-.06,0-.09,0a3.86,3.86,0,0,0-.47-.29c-.11-.08-.24-.13-.35-.21-12.33-7.47-119.09-72-145.49-88.57C121.5,293.12,4.23,228,.24,222l.08,0,25.12,14s114.44,59.11,134.31,73.2C179.09,322.91,289.9,395.86,296,399.83Z"/><path class="cls-18" d="M296,399.83c-6.06-4-116.87-76.92-136.21-90.61C139.88,295.13,25.44,236,25.44,236l-25.12-14c3.42,1.53,113.75,51,154.25,76.61C194.54,324,290.45,395.69,296,399.83Z"/><path class="cls-19" d="M298.18,396.21a.12.12,0,0,1,0-.09c0-.16,0-.34,0-.55s0-.27,0-.41c-.81-14.44-7.94-139.36-9.19-170.63-1.35-33.23-13.65-167.06-11.12-173.86v.09l2.62,28.68s15.41,128,15.11,152.49C295.28,255.74,298,388.94,298.18,396.21Z"/><path class="cls-20" d="M298.18,396.21c-.16-7.27-2.9-140.47-2.65-164.28.3-24.49-15.11-152.49-15.11-152.49L277.8,50.76c.64,3.7,21.31,122.68,23.13,170.75C302.73,268.94,298.44,389.28,298.18,396.21Z"/><path class="cls-21" d="M294.94,398.66a.09.09,0,0,1,0-.08,3.89,3.89,0,0,0,.28-.35,2.78,2.78,0,0,1,.21-.27c7.39-9.41,71.25-90.94,87.6-111,17.36-21.33,82.65-111.71,88.08-114.25l-.05.06-14,19.36s-60,88.83-73.66,103.7C370.18,310.31,298.82,394.08,294.94,398.66Z"/><path class="cls-22" d="M294.94,398.66c3.88-4.58,75.24-88.35,88.5-102.84C397.1,281,457.1,192.12,457.1,192.12l14-19.36c-1.59,2.7-53.1,89.4-78.29,120.16C367.94,323.29,298.92,394.57,294.94,398.66Z"/><path class="cls-23" d="M294.41,397.2a.1.1,0,0,0-.07,0c-.13,0-.28,0-.45-.07l-.34-.06c-11.8-1.94-114-18.92-139.58-22.67-27.21-4-136.4-26.54-142.12-24.74h.08l23.39,4.82s104.24,25,124.36,26.71C179.25,382.88,288.45,396.44,294.41,397.2Z"/><path class="cls-24" d="M294.41,397.2c-6-.76-115.16-14.32-134.73-16-20.12-1.75-124.36-26.71-124.36-26.71l-23.39-4.82c3,.91,99.54,30,138.9,35.71C189.67,390.94,288.71,396.87,294.41,397.2Z"/><path class="cls-25" d="M296.72,397.8a.1.1,0,0,1,0-.09c0-.13.1-.29.16-.47s.07-.24.11-.35c4.14-12.49,39.81-120.6,49.17-147.5,9.93-28.59,44.36-145.81,48.67-150.81l0,.08-7.38,25.11s-30,113.23-38.34,133.9C341,277.79,299,391.59,296.72,397.8Z"/><path class="cls-26" d="M296.72,397.8c2.28-6.21,44.26-120,52.37-140.13,8.37-20.67,38.34-133.9,38.34-133.9l7.38-25.11c-.7,3.33-23.4,110.49-37.88,151.81C342.66,291.24,299.23,392,296.72,397.8Z"/><path class="cls-27" d="M264.16,224.1c6,22.26,30.7,164,32.25,172.83L225.67,107,198.78,0C209.16,22.51,257.92,201.12,264.16,224.1Z"/><path class="cls-28" d="M225.67,107l70.74,289.93,0,.15c0,.18,0,.28,0,.28-3.06-8.54-41.19-146.18-45-161.42L196.71,17.17S211.22,55.59,225.67,107Z"/><path class="cls-29" d="M164.68,357.87c42.47,12.38,85.76,28.29,129.38,40.83A2057.44,2057.44,0,0,1,74.89,335.47c-25.26-9.14-50-18.54-74.89-28.42C55.39,322.43,110.69,342.13,164.68,357.87Z"/><path class="cls-30" d="M74.89,335.47A2057.44,2057.44,0,0,0,294.06,398.7l.11,0a1.26,1.26,0,0,1,.21.06A1241.54,1241.54,0,0,1,167,369.8,1640.81,1640.81,0,0,1,8.8,315.3C31,321.62,52.93,328.53,74.89,335.47Z"/><path class="cls-31" d="M399.28,330.6c-31,24.93-67.78,46-103,66.32q83.23-58.38,160.88-123.55,27.76-24.06,54.57-49.29C480.92,264.6,437.93,299.56,399.28,330.6Z"/><path class="cls-32" d="M457.17,273.37q-77.85,65.38-160.88,123.55l-.09.06-.17.09c29.5-23.95,59.36-48.3,88.61-71.68,38-30.36,77.14-61.58,114-94.41C498.65,231,483.09,248.87,457.17,273.37Z"/><path class="cls-33" d="M170,277.46c14.72,16.75,116.24,112,122.56,118L96.32,183.81l-72-78.76C36.82,125.51,154.83,260.16,170,277.46Z"/><path class="cls-34" d="M96.32,183.81,292.59,395.45l.11.1a2.1,2.1,0,0,0,.2.18c-5.23-7-95.86-111.26-106.13-122.44S39.46,112.43,39.46,112.43,62.58,144.71,96.32,183.81Z"/><path class="cls-35" d="M165,303.78c16,14,124.47,90.25,131.23,95L84.37,224.37,7.57,162.11C21.6,180.07,148.54,289.38,165,303.78Z"/><path class="cls-36" d="M84.37,224.37,296.25,398.8l.11.08a2,2,0,0,0,.22.15c-5.76-6-104.09-92.94-115.18-102.17s-175.79-150-175.79-150S47.74,191.71,84.37,224.37Z"/><path class="cls-37" d="M167.6,413.41c42.83-1.22,87-8.39,129.12-15.84A1990,1990,0,0,1,91.86,408.52c-24.13.1-48.44-.37-72.61-1.41C67,416.4,120.26,414.77,167.6,413.41Z"/><path class="cls-38" d="M91.86,408.52a1990,1990,0,0,0,204.86-10.95l.1,0,.2,0c-49,2.79-98.24,4.18-147,5.29-40.51.92-82.1-.56-123-3.57A352.73,352.73,0,0,0,91.86,408.52Z"/><path class="cls-39" d="M253,29.36c9.14,49.76,31.52,172.64,33.09,191.75,2,24,13.78,129.09,11.27,175-.55-14.33-31-255.46-31-255.46a.28.28,0,0,1,0-.1.52.52,0,0,0,0-.21c-.09-1.72-.32-4-.68-6.71,0-.18-.05-.35-.06-.53s0-.31-.06-.46C263.45,113,258,61.4,253,29.36Z"/><path class="cls-40" d="M242.69,13.78c1.2,5.65,18.67,88,22.81,118.9,0,.15,0,.31.06.46s.05.35.06.53c.36,2.71.59,5,.68,6.71a.52.52,0,0,1,0,.21.28.28,0,0,0,0,.1s30.47,241.13,31,255.46a1.48,1.48,0,0,0,0,.29,2.38,2.38,0,0,1,0,.32c-.27,4.16-23.8-151.78-26.3-174.45C268.61,200.16,243.85,22.13,242.69,13.78Z"/><rect class="cls-41" x="315.64" y="391.54" width="6.25" height="174.47" transform="translate(-124.46 112.19) rotate(-16.75)"/><polygon class="cls-42" points="291.47 399.09 282.14 399.15 283.98 397.31 279.99 395.41 284.29 393.53 281.31 391.79 284.43 391.45 283.17 388.14 286.07 388.42 285.11 385.41 288.05 388.3 286.6 384.8 289.82 386.87 289.32 384.37 291.71 385.37 293.02 383.48 295.61 386.64 296.11 383.55 297.67 386.1 299.06 384.65 300.3 388.1 303.25 388.28 302.44 390.9 306.12 389.99 297.35 397.05 291.47 399.09"/></g></g></svg>