<?xml version="1.0" encoding="utf-8"?>
<!-- Generator: Adobe Illustrator 23.0.0, SVG Export Plug-In . SVG Version: 6.00 Build 0)  -->
<svg version="1.1" id="Layer_1" xmlns="http://www.w3.org/2000/svg" xmlns:xlink="http://www.w3.org/1999/xlink" x="0px" y="0px"
	 viewBox="0 0 600 500" style="enable-background:new 0 0 600 500;" xml:space="preserve">
<style type="text/css">
	.st0{clip-path:url(#SVGID_2_);fill:#FFFFFF;}
	.st1{clip-path:url(#SVGID_2_);fill:#E40521;}
	.st2{fill:url(#SVGID_3_);}
	.st3{fill:url(#SVGID_4_);}
	.st4{fill:url(#SVGID_5_);}
	.st5{fill:url(#SVGID_6_);}
	.st6{fill:url(#SVGID_7_);}
	.st7{fill:url(#SVGID_8_);}
	.st8{opacity:0.85;fill:url(#SVGID_9_);}
	.st9{opacity:0.85;fill:url(#SVGID_10_);}
	.st10{opacity:0.85;fill:url(#SVGID_11_);}
	.st11{fill:url(#SVGID_12_);}
	.st12{fill:#7E7E7D;}
	.st13{fill:url(#SVGID_13_);}
	.st14{fill:url(#SVGID_14_);}
	.st15{fill:url(#SVGID_15_);}
	.st16{fill:url(#SVGID_16_);}
	.st17{fill:url(#SVGID_17_);}
	.st18{fill:url(#SVGID_18_);}
	.st19{fill:url(#SVGID_19_);}
	.st20{fill:url(#SVGID_20_);}
	.st21{fill:url(#SVGID_21_);}
	.st22{fill:url(#SVGID_22_);}
	.st23{fill:url(#SVGID_23_);}
	.st24{fill:url(#SVGID_24_);}
	.st25{fill:url(#SVGID_25_);}
	.st26{fill:url(#SVGID_26_);}
	.st27{fill:url(#SVGID_27_);}
	.st28{fill:url(#SVGID_28_);}
	.st29{fill:url(#SVGID_29_);}
	.st30{fill:#FFFFFF;}
</style>
<g>
	<defs>
		<rect id="SVGID_1_" x="30" y="29.2" width="81.4" height="28.7"/>
	</defs>
	<clipPath id="SVGID_2_">
		<use xlink:href="#SVGID_1_"  style="overflow:visible;"/>
	</clipPath>
	<path class="st0" d="M111.4,46.7c-0.3,1.4-0.6,2.7-0.8,4.2c-4.5,0.1-9.4,0.1-13.9,0.1c0.7-1.3,1.5-2.4,2.4-3.6
		c2.4-3.5,4.8-7,7.2-10.6c-1.1,0-2.2-0.1-3.2-0.1c-2.6,0-4.3,1.4-4.9,3.4c-0.3,0.1-0.6,0-0.9,0c0.4-1.5,0.7-3.1,0.9-4.8
		c4,0.5,9,0.3,13.3,0.1c-3.1,4.8-6.4,9.4-9.6,14.1c0.5,0.2,1,0.1,1.6,0.1c1,0.1,2.1,0.3,3,0.2c2.3-0.2,3.5-1.5,4.2-3.3
		C110.8,46.6,111.1,46.7,111.4,46.7"/>
	<path class="st0" d="M82.3,39.7c-0.1,1.8,0,3.7,0,5.6l-1.6-1.6c0-1.4,0.2-3,0.1-4.5c-0.2-1.5-1.3-2.5-2.9-2.5c0-0.3,0-0.6,0-0.9
		c1.7,0.1,3.8,0.2,5.6,0c3,3.3,6,6.5,9,9.7c-0.1-2,0.3-4.9,0-6.9c-0.2-1.2-1.1-2-2.5-2c0-0.3,0-0.7,0-1c2.1,0.2,4.3,0.2,6.4,0
		c0,0.3,0,0.6,0,1c-3.1-0.2-2.4,3.9-2.3,7.1c0,2.9,0,5.1,0.1,7.4c-0.4,0-0.8,0-1.2,0C89.3,47.3,85.8,43.4,82.3,39.7"/>
	<path class="st0" d="M44.4,36.8c0.2,1.2,0.4,2.5,0.7,3.6c-0.3,0-0.6,0.1-0.9,0c-0.5-1.7-1.7-3-3.7-3.2c-1.3-0.2-2.8,0.1-4.3,0
		c0,1.9,0,3.8,0,5.7c1.5-0.1,3.2,0.2,4.2-0.5c0.5-0.4,0.8-0.9,0.9-1.8c0.2-0.1,0.5,0,0.8,0c-0.3,2-0.3,4.2,0,6.3c-0.3,0-0.6,0-0.9,0
		c0.1-2.6-2.8-2.4-5-2.3c0,2.6-0.6,6.1,2.4,5.8c0,0.3,0,0.6,0,0.9c-2.9-0.2-5.7-0.2-8.6,0c0-0.3,0-0.6,0-0.9c0.7,0,1.1-0.1,1.5-0.3
		c1.3-1,0.9-3.9,0.9-6.5c0-1.7,0.1-3.4,0-4.6c-0.1-0.9-0.4-1.5-0.9-1.9c-0.5-0.2-0.9-0.4-1.6-0.3c0-0.3,0-0.6,0-0.9
		c4.6,0,9.8,0.4,14.1-0.2C44.4,35.8,44.3,36.4,44.4,36.8"/>
	<path class="st0" d="M52.1,43.6c0-2.1,0-4.3,0-6.4c0-0.1,0-0.1,0-0.1c2.9-0.3,5.3,0.5,5.3,3C57.5,42.7,55.4,43.9,52.1,43.6
		 M57.6,44.3c1.2-0.4,2.3-0.9,2.9-1.9c1.2-1.9,0.4-4.5-0.9-5.6c-2.1-1.6-6.2-0.9-9.5-0.9c-1.4,0-2.7-0.1-4.1-0.1c0,0.3,0,0.6,0,0.9
		c0.7-0.1,1.1,0.1,1.6,0.3c0.4,0.3,0.9,0.9,1,1.8c0.1,1.4,0,3.1,0,4.8c0,1.7,0.2,3.4,0,4.8c-0.2,1.4-1.1,2.1-2.6,2
		c0,0.3,0,0.6,0,0.9c2.9-0.2,5.7-0.2,8.6,0c0-0.3,0-0.6,0-0.9c-2.9,0.3-2.7-2.8-2.5-5.4c0.6,0,1.2,0,1.7,0c1.6,2.7,3.6,5,6.6,6.3
		l0.6-2C59.6,47.9,58.4,46.3,57.6,44.3"/>
	<path class="st1" d="M67,29.2c-1.9,6.5-8,26.7-8.5,28.7c9.6-2.2,19.5-4.6,29.2-6.9C86,49.2,71.2,33.6,67,29.2"/>
</g>
<g>
	<g>
		<g>
			<g>
				<g>
					<path d="M549,58c-0.7-2-3.3-6.9-5.4-9.7c-0.5-0.6-0.3-0.9,0-1.1c0.2-0.2,1-0.9,1.9-1.9c0.9-1.1,1.2-2.3,0.5-4
						c-0.7-1.7-2.8-5.8-3.3-7.2c-0.5-1.6-0.6-2.3-0.3-3.1c0.4-1,0.9-1,1.3-1c0.2,0,0.4,0.2,0.4,0.3c0,0.4,0,1,0.5,2.1
						c0.7,1.8,2.5,3,3,3.3c0.4,0.2,0.5-0.1,0.4-0.3c0-0.1-0.6-2.4-1-4.1c-0.5-1.8-0.7-2.2-1.1-2.5c-0.6-0.6-1.6-0.9-2.4-0.9
						c-1.8,0.1-2.7,1.8-2.8,2c-0.1,0.1-0.1,0.3-0.3,0.1c-0.5-0.4-2.1-1.7-2.2-2.5c-0.1-0.5-0.2-0.5-0.6-0.7
						c-1.8-0.7-3.4-1.4-5.2-1.7c-0.7-0.1-0.7-0.2-1.6,0c-1.4,0.3-2.3,0.6-3.3,1.1c-0.6,0.3-0.7,0.5-0.8,0.7
						c-0.1,0.1-0.2,0.3-0.4,0.3c-0.4,0.1-1.7,0.6-2.1,0.9c-0.3,0.2-0.4,0.3-0.3,0.6c0.3,0.6,1,1.7,1.3,2c0.2,0.2,0.7,0.3,0.8,0.3
						c0.1,0,0.2,0.1,0.2,0c0-0.1,0.1-0.2,0.3-0.4c0.3-0.2,1-0.4,1.3-0.4c0.3,0,0.4,0,0.6,0.1c0.1,0.1,0.4,0.4,0.6,0.8
						c0.1,0.3,0,0.5-0.1,0.5c-0.2,0.1-0.8,0.2-1.4,0.3c-0.7,0.1-0.8-0.1-0.9-0.2c0,0-0.1-0.1-0.2,0c-0.1,0.2-0.3,0.3-0.5,0.4
						c-0.1,0.1-0.2,0.2-0.1,0.5c0.4,0.7,1,1.5,1.5,1.7c0.4,0.1,0.6,0,1.1-0.3c0.4-0.3,0.7-0.3,0.8-0.2c0.1,0.1,0.4,0.3,0.3,0.5
						c-0.1,0.4-0.8,1.2-1,1.4c-0.1,0.2-0.3,0.3-0.5,0.1c-0.3-0.2-5.6-2.9-6.3-3.1c-0.8-0.3-1.3-0.4-2-0.4c-0.6,0-1.4,0-1.9,0.1
						c-0.4,0.1-0.6,0.2-0.9,0.6c-0.5,0.4-1,1-1,1.5c0,0.3,0.3,1,0.4,1.1c0,0.1,0.1,0.1,0.3,0.1c0.2,0,0.7-0.3,1.3-0.2
						c0.6,0.1,0.6,0.5,0.6,0.9c0,0.1,0.1,0.2,0.2,0.2c0.2,0,0.6,0,1,0.2c0.5,0.2,1.5,1,1.6,1.2c0.1,0.1,0.1,0.3-0.1,0.3
						c-1.2,0.1-3.1,0.5-4,0.8c-0.6,0.2-1.4,0.5-1.6,0.9c-0.3,0.5-0.7,1.3-0.8,1.9c-0.1,0.6,0.5,1.3,0.7,1.5c0.1,0.1,0.2,0.2,0.4,0.1
						c0.3-0.2,1-0.6,1.7-0.7c0.4,0,0.6,0.4,0.7,0.5c0.1,0.1,0.2,0,0.6-0.1c0.7-0.2,4.5-0.1,5.8-0.1c0.6,0,1.5,0.1,2.1,0.5
						c0.6,0.3,1.8,1.4,1.8,1.4s-1.5,2.5-2.3,4c-0.7,1.4-1.3,2.4-1.6,3c-0.2,0.5-0.4,1.3-0.4,1.9c0.1,0.9,0.1,1.4,0.1,1.8
						c0,0.4-0.3,0.4-0.8,0.5c-0.7,0.2-1.9,0.3-3,0.5c-1,0.2-1.3,0.5-1.5,1.2c-0.1,0.6-0.3,2-0.4,2.7c0,0.3,0,0.4,0.3,0.3
						c0.2,0,0.8-0.1,1.5-0.2c0.9-0.1,1.8-0.1,2.6-0.1c1.4,0,5.4,0.2,5.7,0.3c0.3,0,0.4,0,0.4-0.2c0-0.3-0.1-1.3-0.1-1.9
						c0-0.6-0.1-1.2,0.4-1.8c0.5-0.6,4.6-5.2,4.9-5.4c0.2-0.2,0.3-0.4,0.6-0.1c0.3,0.3,3.7,2.7,4.4,3.2c0.7,0.5,1.3,0.7,2.1,0.7
						c0.6,0,0.7,1,0.2,1.1c-0.5,0.1-1.2,0.2-1.7,0.4c-0.8,0.2-1,0.4-1.3,1c-0.2,0.5-0.4,2.7-0.4,2.9c0,0.1,0,0.3,0.2,0.3
						c1-0.2,2.5-0.3,4.2-0.2c1.9,0.1,3.8,0.2,4,0.2c0.3,0,0.3,0,0.5-0.2c0.2-0.4,1-1.2,1.6-1.7C549.1,58.5,549.1,58.4,549,58z
						 M541.6,44.5c-0.5,0.2-0.8,0-1-0.2c-0.2-0.2-2.2-2.6-2.8-3.3c-0.3-0.4-0.5-1.2,0.4-1.5c0.8-0.3,2.2-0.7,2.5-0.9
						c0.4-0.2,0.6-0.4,0.6-0.8c0-0.4,0-0.8,0-1c0-0.1,0.2-0.3,0.3-0.1c0.1,0.1,0.4,0.8,0.8,1.6c0.6,1.2,1.4,2.7,1.7,3.3
						c0.2,0.6,0.1,1.1-0.2,1.5C543.5,43.7,542,44.4,541.6,44.5z"/>
				</g>
			</g>
			<linearGradient id="SVGID_3_" gradientUnits="userSpaceOnUse" x1="548.4358" y1="29.8239" x2="537.7667" y2="46.1648">
				<stop  offset="0.2033" style="stop-color:#CCCCCC"/>
				<stop  offset="0.2274" style="stop-color:#A6A6A6"/>
				<stop  offset="0.2583" style="stop-color:#7D7D7D"/>
				<stop  offset="0.2885" style="stop-color:#5D5D5D"/>
				<stop  offset="0.3174" style="stop-color:#464646"/>
				<stop  offset="0.3446" style="stop-color:#383838"/>
				<stop  offset="0.3681" style="stop-color:#333333"/>
				<stop  offset="0.4381" style="stop-color:#393939"/>
				<stop  offset="0.5311" style="stop-color:#4A4A4A"/>
				<stop  offset="0.637" style="stop-color:#656565"/>
				<stop  offset="0.7516" style="stop-color:#8C8C8C"/>
				<stop  offset="0.8132" style="stop-color:#A3A3A3"/>
				<stop  offset="1" style="stop-color:#000000"/>
			</linearGradient>
			<path class="st2" d="M543.6,28.2C543.6,28.2,543.6,28.2,543.6,28.2c-1.5,0-3.1,1.7-2.8,4.4c0.2,1.6,0.4,2.3,0.9,3.4
				c0.2,0.5,2.8,5.4,2.9,5.9c0.2,0.7,0,1.2-0.6,1.7c-0.6,0.6-1.7,1.2-2.4,1.5c-0.2,0.1-0.3,0.1-0.5,0.1c-0.2,0-0.6-0.1-1.3-1
				l3.3,4.4c-0.4-0.6-0.6-1-0.6-1.4c0.1-0.4,0.7-0.8,1.4-1.3c0.7-0.5,1.5-1.2,1.8-2.2c0.1-0.3,0.1-0.5,0.1-0.8c0-0.9-0.4-1.9-0.9-3
				c-0.7-1.4-2.6-4.5-3.1-6.7c-0.1-0.5-0.2-1-0.2-1.4c0-1.2,0.5-2,1.2-2.3c0.3-0.1,0.6-0.2,0.8-0.2c0.4,0,0.6,0.1,0.7,0.2
				c0.2,0.1,0.2,0.3,0.2,0.5c0,0,0,0,0,0c0,0,0,0.1,0,0.3c0,0.5,0.1,1.6,0.7,2.7c0.7,1.4,2,2.1,2.5,2.3c0,0-1.1-4.4-1.4-5.2
				C546.2,29.2,545.5,28.2,543.6,28.2z"/>
			<linearGradient id="SVGID_4_" gradientUnits="userSpaceOnUse" x1="518.4683" y1="41.6854" x2="520.4013" y2="37.2581">
				<stop  offset="3.103500e-02" style="stop-color:#A6A6A6"/>
				<stop  offset="0.2" style="stop-color:#A6A6A6"/>
				<stop  offset="0.9897" style="stop-color:#4C4C4C"/>
			</linearGradient>
			<path class="st3" d="M522.9,38c0.3,0.3-0.2,0.3-1.8,0.4c-1.6,0.1-3.1,0.5-4,0.8c-0.6,0.2-1,0.4-1.2,0.9c0,0-0.5,1.1-0.6,1.5
				c0,0.2,0,0.3,0.1,0.5c0.1,0.1,0.2-2.8,4-3C522.8,38.9,523.6,38.5,522.9,38L522.9,38z"/>
			<linearGradient id="SVGID_5_" gradientUnits="userSpaceOnUse" x1="544.8668" y1="31.0504" x2="542.4852" y2="30.8251">
				<stop  offset="0.1966" style="stop-color:#333333"/>
				<stop  offset="0.2597" style="stop-color:#353535"/>
				<stop  offset="0.2825" style="stop-color:#3C3C3C"/>
				<stop  offset="0.2987" style="stop-color:#474747"/>
				<stop  offset="0.3118" style="stop-color:#585858"/>
				<stop  offset="0.323" style="stop-color:#6E6E6E"/>
				<stop  offset="0.333" style="stop-color:#8A8A8A"/>
				<stop  offset="0.342" style="stop-color:#AAAAAA"/>
				<stop  offset="0.3503" style="stop-color:#D0D0D0"/>
				<stop  offset="0.3576" style="stop-color:#F9F9F9"/>
				<stop  offset="0.3586" style="stop-color:#FFFFFF"/>
				<stop  offset="0.8241" style="stop-color:#333333"/>
				<stop  offset="1" style="stop-color:#191919"/>
			</linearGradient>
			<path class="st4" d="M542,32c0,0,0.1-0.8,0.2-1.1c0.3-1,1-1.2,1.4-1.2c0.3,0,0.4,0.1,0.5,0.2c0.1,0.1,0.2,0.2,0.2,0.3
				c0,0.4,0,0.9,0.5,2.1c0,0.1,0.1,0.1,0.1,0.2c-0.4-0.9-0.4-1.8-0.4-2.2c0-0.1,0-0.3,0-0.3c0-0.3-0.4-0.4-0.7-0.4
				c-0.2,0-0.5,0-0.7,0.2c-0.5,0.2-1,0.9-1,2L542,32z"/>
			<linearGradient id="SVGID_6_" gradientUnits="userSpaceOnUse" x1="523.4402" y1="44.0248" x2="525.3996" y2="39.5373">
				<stop  offset="0" style="stop-color:#CCCCCC"/>
				<stop  offset="0.1219" style="stop-color:#B8B8B8"/>
				<stop  offset="0.2537" style="stop-color:#ABABAB"/>
				<stop  offset="0.3681" style="stop-color:#A6A6A6"/>
				<stop  offset="0.9897" style="stop-color:#000000"/>
			</linearGradient>
			<path class="st5" d="M523,38.1c0.1,0.3-0.3,0.2-1.9,0.4c-1.6,0.1-3.1,0.4-4,0.7c-0.6,0.2-1,0.4-1.2,0.9c0,0-0.5,1.1-0.6,1.5
				c0,0.2,0,0.3,0.1,0.5c0.2,0.3,0.3,0.3,0.5,0.2c0.2-0.1,1-0.6,1.6-0.6c0.5,0,0.7,0.3,0.8,0.6c0,0.2,0.3,0.1,0.3,0.1
				c0.2-0.1,0.4-0.1,1.2-0.2c0.9-0.1,4.6,0,5.9,0c1.2,0,5.9,3.7,6,3.7l0.2-0.5C530.4,44.1,524.4,39.4,523,38.1L523,38.1z"/>
			<linearGradient id="SVGID_7_" gradientUnits="userSpaceOnUse" x1="542.5011" y1="65.1788" x2="507.4995" y2="29.571">
				<stop  offset="7.692300e-02" style="stop-color:#808080"/>
				<stop  offset="0.1209" style="stop-color:#8C8C8C"/>
				<stop  offset="0.1703" style="stop-color:#666666"/>
				<stop  offset="0.3077" style="stop-color:#808080"/>
				<stop  offset="0.4725" style="stop-color:#F2F2F2"/>
				<stop  offset="0.6978" style="stop-color:#F2F2F2"/>
				<stop  offset="0.7209" style="stop-color:#E3E3E3"/>
				<stop  offset="0.7655" style="stop-color:#BBBBBB"/>
				<stop  offset="0.8268" style="stop-color:#7B7B7B"/>
				<stop  offset="0.8407" style="stop-color:#6B6B6B"/>
				<stop  offset="0.9615" style="stop-color:#333333"/>
			</linearGradient>
			<path class="st6" d="M536.6,41c0.7,0.9,2.9,3.5,4.7,5.8c2.9,3.7,4.6,6.5,6.5,10.7c0.2,0.4,0,0.5-0.2,0.7
				c-0.6,0.5-0.4,0.6-0.9,1.4c0,0.1-0.2,0.2-0.3,0.2c-0.4,0-3.4-0.3-5.4-0.2c-1.2,0-1.5,0.1-1.8,0.2c-0.2,0.1-0.3,0-0.3-0.2
				c0-0.1,0.2-1.4,0.4-1.8c0.2-0.5,0.4-0.6,0.8-0.7c0.4-0.1,1.5-0.3,2-0.4c0.5-0.1,0.5-0.5,0.4-0.9c0-0.3-0.3-0.8-0.6-0.8
				c-0.4-0.1-0.7-0.1-1.1-0.3c-0.4-0.2-6.6-5.2-7.2-5.6c-0.1-0.1-0.3-0.2-0.3-0.2c0,0.1,0.1,0.2,0.1,0.3c0.1,0.1,1,1.1,1.2,1.3
				c0.1,0.1,0.1,0.2,0,0.3c-0.1,0.1-3,3-4.3,4.3c-1.2,1.3-2.1,2-2.1,3c0,1,0.1,1.8,0.1,2c0,0.2-0.2,0.1-0.3,0.1
				c-0.4,0-3.3-0.3-4.9-0.4c-1.6,0-2.8,0.1-3.6,0.3c-0.2,0-0.2-0.1-0.2-0.2c0-0.3,0.2-1.3,0.4-2c0.2-0.5,0.5-0.6,0.9-0.7
				c0.5-0.1,2.6-0.5,3.6-0.7c0.5-0.1,0.6-0.3,0.6-0.7c0-0.4-0.1-1.4-0.1-1.8c0-0.5,0.1-1,0.3-1.4c0.7-1.7,2.6-5.4,4.1-7.6
				c0.2-0.3,0.4-0.3,0.5-0.3c0.2,0.1,1.2,0.8,1.2,0.8c0.2,0.1,0.4,0,0.3-0.1c-0.6-0.6-2.2-1.6-3.2-2.4c-2-1.6-4.1-3.9-5.8-5.5
				c-0.9-0.8-1.8-1.4-2.5-1.5c-0.2-0.1-0.5-0.1-0.7-0.1c-0.1,0-0.1-0.1-0.1-0.2c0-0.1,0-0.3-0.2-0.6c-0.2-0.2-0.5-0.2-0.8-0.2
				c-0.3,0-0.9,0.1-1.2,0.1c-0.2,0-0.2,0-0.3-0.1c-0.1-0.1-0.1-0.3-0.2-0.5c0-0.1,0-0.2,0.1-0.4c0.2-0.4,0.7-0.8,1-1.1
				c0.3-0.3,0.5-0.3,0.8-0.3c0.7-0.1,1.7-0.1,2.6,0.1c0.7,0.2,1.3,0.4,1.9,0.8c0.7,0.3,4.7,2.4,5.2,2.6L536.6,41z"/>
			<radialGradient id="SVGID_8_" cx="527.3551" cy="34.217" r="7.9819" gradientUnits="userSpaceOnUse">
				<stop  offset="3.571400e-02" style="stop-color:#FFFFFF"/>
				<stop  offset="0.467" style="stop-color:#FFFFFF"/>
				<stop  offset="0.5179" style="stop-color:#FBFBFB"/>
				<stop  offset="0.5707" style="stop-color:#EEEEEE"/>
				<stop  offset="0.6243" style="stop-color:#DADADA"/>
				<stop  offset="0.6785" style="stop-color:#BDBDBD"/>
				<stop  offset="0.7326" style="stop-color:#989898"/>
				<stop  offset="0.7473" style="stop-color:#8C8C8C"/>
				<stop  offset="0.8462" style="stop-color:#666666"/>
				<stop  offset="1" style="stop-color:#333333"/>
			</radialGradient>
			<path class="st7" d="M530,33.8c0.1,0.5-0.2,0.8-0.4,1.1c-0.2,0.3-0.6,0.7-0.8,1c-0.3,0.3-0.7,0.2-0.7,0.2s2.3,1.2,3.6,1.8
				c0.5,0.3,1.3,0,1.9-1c0.1-0.2,1-2,1.2-2.5c0.2-0.5,0.5-1.1,0-2.1c-0.5-1-1.9-2.8-2.5-3.5c-0.3-0.4-0.7-0.6-1.4-0.6
				c-0.8,0-1.7,0.1-2.9,0.4c-1.2,0.3-2.8,1-2.9,1c0,0,0,0.1,0,0.1c0,0,0.2,0.3,0.2,0.3s0.1,0.2,0.3,0.3c0.2,0.1,0.5,0.2,0.5,0.2
				c0.1,0,0.1,0,0.1,0c0,0,0.3-0.5,1.1-0.7c0.5-0.1,0.8-0.1,0.9-0.1c0.2,0,0.6,0.1,0.8,0.3c0.3,0.3,0.6,0.8,0.6,1.1
				c0.1,0.2,0,0.5-0.2,0.7c-0.2,0.1-0.9,0.3-1.4,0.3c-0.5,0-0.9,0-1.1-0.1c0,0-0.1,0-0.1,0c-0.1,0.1-0.2,0.1-0.3,0.3
				c0,0-0.1,0.1,0,0.2c0,0.1,0.6,1,0.9,1.2c0.3,0.2,0.5,0.1,0.9-0.1c0.4-0.2,0.7-0.5,1.1-0.5C529.6,33,529.9,33.4,530,33.8z"/>
			
				<radialGradient id="SVGID_9_" cx="529.1463" cy="40.2285" r="2.8174" gradientTransform="matrix(1 0 0 0.9636 0 -6.1579)" gradientUnits="userSpaceOnUse">
				<stop  offset="3.571400e-02" style="stop-color:#FFFFFF"/>
				<stop  offset="0.2276" style="stop-color:#FFFFFF"/>
				<stop  offset="0.2932" style="stop-color:#F6F6F6"/>
				<stop  offset="0.4021" style="stop-color:#DCDCDC"/>
				<stop  offset="0.5409" style="stop-color:#B3B3B3"/>
				<stop  offset="0.7042" style="stop-color:#797979"/>
				<stop  offset="0.886" style="stop-color:#313131"/>
				<stop  offset="1" style="stop-color:#000000"/>
			</radialGradient>
			<path class="st8" d="M529.2,31.8c-0.2,0.1-0.9,0.3-1.3,0.3c-0.4,0-0.9,0-1.1-0.1c0,0-0.1,0-0.1,0c-0.1,0.1-0.2,0.1-0.3,0.2
				c0,0-0.1,0.1,0,0.1c0,0.1,0.5,0.9,0.9,1.1c0.3,0.2,0.5,0.1,0.9-0.1c0.4-0.2,0.7-0.5,1.1-0.5L529.2,31.8z"/>
			<radialGradient id="SVGID_10_" cx="527.3851" cy="28.1809" r="3.3146" gradientUnits="userSpaceOnUse">
				<stop  offset="0.2308" style="stop-color:#FFFFFF"/>
				<stop  offset="0.5714" style="stop-color:#F5F5F5"/>
				<stop  offset="0.8626" style="stop-color:#000000"/>
			</radialGradient>
			<path class="st9" d="M527.8,28.7c-1.2,0.3-2.7,0.9-2.7,0.9c0,0,0,0.1,0,0.1c0,0,0.2,0.3,0.2,0.3s0.1,0.2,0.3,0.3
				c0.2,0.1,0.4,0.2,0.5,0.2c0.1,0,0.1,0,0.1,0c0,0,0.3-0.5,1.1-0.7c0.5-0.1,0.8-0.1,0.9-0.1L527.8,28.7z"/>
			<radialGradient id="SVGID_11_" cx="532.938" cy="34.6482" r="11.1639" gradientUnits="userSpaceOnUse">
				<stop  offset="3.571400e-02" style="stop-color:#FFFFFF"/>
				<stop  offset="0.2527" style="stop-color:#FFFFFF"/>
				<stop  offset="0.2708" style="stop-color:#FBFBFB"/>
				<stop  offset="0.2894" style="stop-color:#EEEEEE"/>
				<stop  offset="0.3084" style="stop-color:#DADADA"/>
				<stop  offset="0.3275" style="stop-color:#BDBDBD"/>
				<stop  offset="0.3462" style="stop-color:#999999"/>
				<stop  offset="0.4121" style="stop-color:#666666"/>
				<stop  offset="0.4725" style="stop-color:#333333"/>
				<stop  offset="0.8571" style="stop-color:#333333"/>
			</radialGradient>
			<path class="st10" d="M530,33.8c0.1,0.5-0.2,0.9-0.4,1.2c-0.2,0.3-0.6,0.7-0.8,1c-0.3,0.3-0.6,0.2-0.6,0.2s2.2,1.1,3.5,1.8
				c0.5,0.3,1.3,0.1,1.9-1c0.1-0.2,1-2,1.2-2.5L530,33.8z"/>
			<g>
				<linearGradient id="SVGID_12_" gradientUnits="userSpaceOnUse" x1="525.1389" y1="41" x2="519.6732" y2="42.3665">
					<stop  offset="0" style="stop-color:#F2F2F2"/>
					<stop  offset="8.055412e-02" style="stop-color:#DDDDDD"/>
					<stop  offset="0.2582" style="stop-color:#B2B2B2"/>
					<stop  offset="0.2996" style="stop-color:#C6C6C6"/>
					<stop  offset="0.3578" style="stop-color:#DADADA"/>
					<stop  offset="0.4245" style="stop-color:#E8E8E8"/>
					<stop  offset="0.5065" style="stop-color:#F0F0F0"/>
					<stop  offset="0.6484" style="stop-color:#F2F2F2"/>
					<stop  offset="0.8956" style="stop-color:#FFFFFF"/>
				</linearGradient>
				<path class="st11" d="M519.2,42c-0.1,0-0.1-0.2,0-0.3c0.1-0.1,0.7-0.6,1-0.7c0.4-0.1,1.7-0.2,2.2-0.2c0.2,0,2.2-0.2,2.4-0.2
					c0.2,0,0.6,0.7,1.2,1.3c-0.1,0-1.8,0-3.3,0c-1.4,0-2.7,0-3.1,0.1C519.5,42,519.3,42,519.2,42z"/>
				<path class="st12" d="M519.2,42L519.2,42L519.2,42c-0.1,0-0.1-0.1-0.1-0.1l0,0c0-0.1,0-0.1,0.1-0.2l0,0c0.1-0.1,0.7-0.6,1.1-0.7
					l0,0c0.4-0.1,1.7-0.2,2.2-0.2l0,0c0.2,0,2.1-0.2,2.3-0.2l0,0c0,0,0,0,0,0l0,0c0.1,0,0.1,0.1,0.2,0.1l0,0
					c0.1,0.1,0.2,0.2,0.3,0.3l0,0c0.2,0.3,0.5,0.6,0.7,0.9l0,0l0,0l-0.1,0c0,0,0,0,0,0l0,0c-0.2,0-1.7,0-3.1,0l0,0
					c-0.1,0-0.1,0-0.2,0l0,0c-1.4,0-2.7,0-3.1,0.1l0,0c-0.1,0-0.2,0-0.3,0l0,0C519.2,42.1,519.2,42,519.2,42L519.2,42z M519.3,42
					c0.1,0,0.2,0,0.3,0l0,0c0.5,0,1.7-0.1,3.1-0.1l0,0c0.1,0,0.1,0,0.2,0l0,0c1.3,0,2.7,0,3,0l0,0c-0.4-0.4-0.7-0.9-1-1.1l0,0
					c-0.1-0.1-0.1-0.1-0.2-0.1l0,0c0,0,0,0,0,0l0,0c-0.3,0-2.2,0.2-2.3,0.2l0,0c-0.6,0-1.9,0.2-2.2,0.2l0,0c-0.3,0.1-1,0.6-1,0.6
					l0,0c-0.1,0.1-0.1,0.1-0.1,0.2l0,0c0,0,0,0.1,0.1,0.1l0,0l0,0C519.2,42,519.3,42,519.3,42L519.3,42z"/>
			</g>
			<g>
				<g>
					
						<linearGradient id="SVGID_13_" gradientUnits="userSpaceOnUse" x1="1702.4937" y1="196.5073" x2="1759.6154" y2="266.1023" gradientTransform="matrix(0.4383 0 0 0.4383 -221.3337 -58.8703)">
						<stop  offset="0" style="stop-color:#FFFFFF"/>
						<stop  offset="6.896600e-02" style="stop-color:#DEDEDE"/>
						<stop  offset="0.1565" style="stop-color:#FFFFFF"/>
						<stop  offset="0.2033" style="stop-color:#FFFFFF"/>
						<stop  offset="0.2785" style="stop-color:#DEDEDE"/>
						<stop  offset="0.3297" style="stop-color:#CCCCCC"/>
						<stop  offset="0.3357" style="stop-color:#D1D1D1"/>
						<stop  offset="0.3647" style="stop-color:#E6E6E6"/>
						<stop  offset="0.3976" style="stop-color:#F4F4F4"/>
						<stop  offset="0.4372" style="stop-color:#FCFCFC"/>
						<stop  offset="0.502" style="stop-color:#FFFFFF"/>
						<stop  offset="0.8852" style="stop-color:#FFFFFF"/>
						<stop  offset="0.9797" style="stop-color:#B0B0B0"/>
					</linearGradient>
					<path class="st13" d="M548.2,57.7c-0.6-1.5-2.3-4.9-4.7-8.3c-2.3-3.4-6.2-8-6.8-8.8c-0.5-0.8-0.7-1.6,0.4-1.9
						c0.7-0.2,2.5-0.6,3.2-0.8c0.7-0.2,0.7-0.4,0.8-1c0.1-0.6-0.1-3.4-0.4-5.1c-0.1-0.3-0.3-0.6-0.6-0.8c-0.2-0.2-1.2-1-1.7-1.6
						c-0.6-0.7-0.9-1.3-1-1.8c0,0,0-0.1-0.1-0.2c0-0.1-0.1-0.1-0.2-0.1c-1-0.6-4.7-1.6-5.5-1.7c-0.5,0-2.3,0.2-4,1.2
						c-0.5,0.3-0.5,0.7-0.8,0.9c-0.3,0.2-1.1,0.4-1.9,0.7c-0.5,0.2-0.5,0.2-0.3,0.5c0,0.1,0.3,0.6,0.5,0.6c0.1,0,0.3-0.1,0.5-0.1
						c0.2-0.1,1.9-0.7,3.1-1c1.4-0.3,3-0.3,3.5,0.2c0.8,0.9,2.3,2.8,2.7,3.7c0.4,0.8,0.4,1.3,0.1,2.1c-0.3,0.8-1.3,2.9-1.6,3.3
						c-0.3,0.4-0.7,0.7-1.5,0.3c-0.9-0.4-4.3-2.1-5.1-2.5c-0.5-0.3-2.6-1.3-4.2-2.1c-0.6-0.3-1.1-0.5-1.6-0.6
						c-1.2-0.3-2.4-0.2-3-0.1c-0.3,0-0.4,0.5-0.4,0.6c0,0.2,0.6,0.1,1.1,0.1c0.4,0,1.8,0.2,2.7,0.5c0.9,0.4,5.2,2.7,6.3,3.3
						c8.3,4.5,11.9,7.4,18.3,18.3c0.3,0.5,0.4,1.1,0,1.2c-0.7,0.2-3.4,0.7-4.2,1c-0.7,0.2-0.8,0.3-0.9,0.6c-0.1,0.4-0.3,1.2-0.2,1.3
						c0,0.1,0,0.1,0.1,0.1c0.8,0,3.5,0,5.7,0.2c0.3,0,0.3,0,0.4-0.2c0.2-0.3,0.9-1.1,1.4-1.5C548.4,58.1,548.3,57.8,548.2,57.7z"/>
				</g>
			</g>
			<linearGradient id="SVGID_14_" gradientUnits="userSpaceOnUse" x1="518.5167" y1="33.1791" x2="544.1039" y2="57.4815">
				<stop  offset="0" style="stop-color:#D9D9D9"/>
				<stop  offset="4.297529e-02" style="stop-color:#C3C3C3"/>
				<stop  offset="0.1571" style="stop-color:#909090"/>
				<stop  offset="0.2643" style="stop-color:#686868"/>
				<stop  offset="0.3616" style="stop-color:#4B4B4B"/>
				<stop  offset="0.4457" style="stop-color:#393939"/>
				<stop  offset="0.5069" style="stop-color:#333333"/>
				<stop  offset="0.5726" style="stop-color:#383838"/>
				<stop  offset="0.6507" style="stop-color:#464646"/>
				<stop  offset="0.735" style="stop-color:#5E5E5E"/>
				<stop  offset="0.8238" style="stop-color:#808080"/>
				<stop  offset="0.915" style="stop-color:#AAAAAA"/>
				<stop  offset="1" style="stop-color:#D9D9D9"/>
			</linearGradient>
			<path class="st14" d="M546.3,56.1c0-0.4-0.4-1.1-1.2-2.2c-0.7-1.1-1.6-2.7-2.8-4.4c-2.1-3-4.2-5.4-6.9-7.5
				c-1.9-1.5-4-2.8-5.4-3.6c-1.5-0.9-7.8-4.3-8.7-4.6c-0.9-0.3-1.6-0.4-2.2-0.4c-0.4,0-0.8,0-1.2,0c-0.4,0-0.2-0.3-0.2-0.4
				c0,0.1-0.3,0.5,0.1,0.5c0.3,0,0.9,0,1.3,0c0.8,0.1,1.8,0.3,2.4,0.5c0.9,0.3,5,2.8,6,3.4c3.2,1.8,5.6,3.5,7.9,5.3
				c3.5,2.8,6.5,6.1,10.3,12.7c0.1,0.3,0.2,0.5,0.2,0.7c0,0.4-0.3,0.5-0.4,0.5c-0.6,0.2-3.3,0.8-4.1,1.1c-0.7,0.2-0.8,0.4-0.9,0.7
				c0,0.1-0.1,0.8-0.3,0.9c-0.1,0.2-0.4,0.2-0.8,0.2c-0.2,0-0.3,0-0.3-0.2c0-0.2,0.2-0.8,0.2-1.2c0.1-0.3,0.2-0.6,0.5-0.8
				c0.3-0.2,1.4-0.4,2-0.5c0.6-0.2,0.7-0.4,0.6-0.9c0,0.5-0.2,0.6-0.8,0.8c-0.6,0.1-1.7,0.3-2,0.5c-0.3,0.2-0.5,0.6-0.5,0.8
				c-0.2,0.9-0.4,1.5-0.3,1.7c0,0.2,0.1,0.2,0.3,0.2c0.2,0,0.7-0.1,1.6-0.1c0.2,0,0.2-0.3,0.2-0.6c0-0.1,0-0.5,0.1-0.6
				c0.1-0.2,0.2-0.3,0.4-0.4c0.4-0.1,2.9-0.8,4.2-1.2C546.1,56.8,546.3,56.6,546.3,56.1z"/>
			<linearGradient id="SVGID_15_" gradientUnits="userSpaceOnUse" x1="530.8483" y1="44.9393" x2="520.8774" y2="59.8457">
				<stop  offset="0" style="stop-color:#BFBFBF"/>
				<stop  offset="0.1" style="stop-color:#FFFFFF"/>
				<stop  offset="0.3492" style="stop-color:#EDEDED"/>
				<stop  offset="0.4228" style="stop-color:#F6F6F6"/>
				<stop  offset="0.5385" style="stop-color:#FFFFFF"/>
				<stop  offset="0.5442" style="stop-color:#F4F4F4"/>
				<stop  offset="0.5799" style="stop-color:#B2B2B2"/>
				<stop  offset="0.6139" style="stop-color:#7C7C7C"/>
				<stop  offset="0.6453" style="stop-color:#515151"/>
				<stop  offset="0.6735" style="stop-color:#333333"/>
				<stop  offset="0.6974" style="stop-color:#202020"/>
				<stop  offset="0.7143" style="stop-color:#191919"/>
				<stop  offset="0.7229" style="stop-color:#373737"/>
				<stop  offset="0.7398" style="stop-color:#6C6C6C"/>
				<stop  offset="0.757" style="stop-color:#999999"/>
				<stop  offset="0.7741" style="stop-color:#BEBEBE"/>
				<stop  offset="0.7912" style="stop-color:#DADADA"/>
				<stop  offset="0.8081" style="stop-color:#EFEFEF"/>
				<stop  offset="0.8249" style="stop-color:#FBFBFB"/>
				<stop  offset="0.8414" style="stop-color:#FFFFFF"/>
				<stop  offset="0.85" style="stop-color:#FAFAFA"/>
				<stop  offset="0.8597" style="stop-color:#EDEDED"/>
				<stop  offset="0.87" style="stop-color:#D6D6D6"/>
				<stop  offset="0.8806" style="stop-color:#B7B7B7"/>
				<stop  offset="0.8915" style="stop-color:#8E8E8E"/>
				<stop  offset="0.9025" style="stop-color:#5D5D5D"/>
				<stop  offset="0.9103" style="stop-color:#363636"/>
				<stop  offset="0.9451" style="stop-color:#363636"/>
				<stop  offset="1" style="stop-color:#737373"/>
			</linearGradient>
			<path class="st15" d="M529.8,44.5c0.2,0.1,0.5,0.3,0.7,0.5c0.2,0.1,0.4,0.3,0.4,0.3c-1.7,2.1-4.1,5.7-4.9,7.2
				c-0.4,0.8-0.4,1.1-0.4,1.8c0,0.7,0.1,1.6,0,2c0,0.4-0.3,0.6-0.7,0.7c-0.4,0.1-2.8,0.5-3.3,0.7c-0.5,0.2-0.6,0.5-0.7,0.8
				c-0.1,0.4-0.1,0.6-0.2,0.8c0,0.2,0,0.3-0.2,0.3c-0.1,0-0.5,0-0.7,0.1c-0.2,0-0.2,0-0.2-0.2c0-0.2,0.2-1,0.3-1.5
				c0.1-0.4,0.3-0.7,0.9-0.9c0.6-0.1,3-0.6,3.5-0.6c0.5-0.1,0.7-0.3,0.6-0.8c0-0.5-0.1-1.3-0.1-1.8c0-0.5,0-0.8,0.2-1.3
				c0.2-0.5,1-2.3,1.8-3.7c1-1.8,2.2-3.8,2.5-4.1C529.4,44.6,529.5,44.5,529.8,44.5z"/>
			<linearGradient id="SVGID_16_" gradientUnits="userSpaceOnUse" x1="529.7352" y1="52.7036" x2="532.3668" y2="54.2537">
				<stop  offset="0.2" style="stop-color:#FFFFFF"/>
				<stop  offset="0.3197" style="stop-color:#FDFDFD"/>
				<stop  offset="0.3903" style="stop-color:#F4F4F4"/>
				<stop  offset="0.4482" style="stop-color:#E6E6E6"/>
				<stop  offset="0.4989" style="stop-color:#D2D2D2"/>
				<stop  offset="0.5207" style="stop-color:#C7C7C7"/>
				<stop  offset="0.8189" style="stop-color:#3B3B3B"/>
				<stop  offset="0.8352" style="stop-color:#333333"/>
				<stop  offset="0.9389" style="stop-color:#242424"/>
				<stop  offset="1" style="stop-color:#191919"/>
			</linearGradient>
			<path class="st16" d="M528.4,57.9c0-0.4,0.1-0.8,0.4-1.2c0.4-0.5,0.9-1.1,1.6-1.8c1.2-1.3,4.2-4.2,4.3-4.3c0.1-0.1,0.1-0.2,0-0.3
				c-0.3-0.3-0.5-0.5-0.9-0.9c-0.3-0.3-0.5-0.5-0.5-0.6c0,0-3.3,3.7-4.4,6.5c-0.4,1-0.6,1.6-0.6,2C528.3,57.8,528.4,57.9,528.4,57.9
				z"/>
			<linearGradient id="SVGID_17_" gradientUnits="userSpaceOnUse" x1="531.211" y1="45.5763" x2="533.9799" y2="42.2612">
				<stop  offset="2.197800e-02" style="stop-color:#FFFFFF"/>
				<stop  offset="0.1828" style="stop-color:#FFFFFF"/>
				<stop  offset="0.2088" style="stop-color:#FFFFFF"/>
				<stop  offset="0.3037" style="stop-color:#F7F7F7"/>
				<stop  offset="0.4491" style="stop-color:#E2E2E2"/>
				<stop  offset="0.5" style="stop-color:#D9D9D9"/>
				<stop  offset="0.5971" style="stop-color:#C5C5C5"/>
				<stop  offset="0.8268" style="stop-color:#9C9C9C"/>
				<stop  offset="0.9451" style="stop-color:#8C8C8C"/>
				<stop  offset="1" style="stop-color:#858585"/>
			</linearGradient>
			<path class="st17" d="M517.8,33.5c0.5,0,0.9,0,1.3,0c0.8,0.1,1.8,0.3,2.4,0.6c0.3,0.1,1.1,0.5,1.9,1c1.5,0.9,3.4,2,4.1,2.4
				c2.4,1.3,4.3,2.6,6.1,3.9c0.6,0.5,1.2,1,1.9,1.4c3.5,2.8,6.4,5.9,10.2,12.6c0.1,0.3,0.2,0.5,0.2,0.7c0,0.2-0.2,0.4-0.5,0.5
				L517.8,33.5z"/>
			<linearGradient id="SVGID_18_" gradientUnits="userSpaceOnUse" x1="537.3228" y1="27.0799" x2="540.928" y2="30.768">
				<stop  offset="0" style="stop-color:#000000"/>
				<stop  offset="4.349559e-02" style="stop-color:#020202"/>
				<stop  offset="6.841232e-02" style="stop-color:#0B0B0B"/>
				<stop  offset="8.864626e-02" style="stop-color:#191919"/>
				<stop  offset="0.1064" style="stop-color:#2C2C2C"/>
				<stop  offset="0.1224" style="stop-color:#464646"/>
				<stop  offset="0.1373" style="stop-color:#666666"/>
				<stop  offset="0.1513" style="stop-color:#8C8C8C"/>
				<stop  offset="0.1646" style="stop-color:#B7B7B7"/>
				<stop  offset="0.1768" style="stop-color:#E7E7E7"/>
				<stop  offset="0.1793" style="stop-color:#F2F2F2"/>
				<stop  offset="0.1929" style="stop-color:#E4E4E4"/>
				<stop  offset="0.2458" style="stop-color:#B2B2B2"/>
				<stop  offset="0.2999" style="stop-color:#878787"/>
				<stop  offset="0.3543" style="stop-color:#646464"/>
				<stop  offset="0.4091" style="stop-color:#494949"/>
				<stop  offset="0.4645" style="stop-color:#363636"/>
				<stop  offset="0.5207" style="stop-color:#2A2A2A"/>
				<stop  offset="0.5793" style="stop-color:#262626"/>
				<stop  offset="0.7135" style="stop-color:#1F1F1F"/>
				<stop  offset="0.911" style="stop-color:#0B0B0B"/>
				<stop  offset="1" style="stop-color:#000000"/>
			</linearGradient>
			<path class="st18" d="M540.6,30.3L540.6,30.3L540.6,30.3c-0.1,0-0.2-0.1-0.3-0.1c-0.6-0.4-2.1-1.6-2.3-2.6
				c-0.1-0.5,0-0.3-0.5-0.5c-0.1-0.1-0.3-0.1-0.4-0.2c0,0,0.1,0,0.1,0.1c0.1,0,0.1,0.1,0.2,0.1c0.2,0.2,0.2,0.3,0.2,0.4
				c0.1,0.5,0.3,1.1,0.9,1.7c0.5,0.6,1.5,1.4,1.7,1.6c0.1,0.1,0.3,0.2,0.4,0.3c0.1-0.3,0.2-0.7,0.3-1.1c0,0,0,0.1-0.1,0.2
				C540.9,30.2,540.8,30.3,540.6,30.3z"/>
			<linearGradient id="SVGID_19_" gradientUnits="userSpaceOnUse" x1="537.7549" y1="42.4074" x2="541.8578" y2="39.7135">
				<stop  offset="0" style="stop-color:#000000"/>
				<stop  offset="4.349559e-02" style="stop-color:#020202"/>
				<stop  offset="6.841232e-02" style="stop-color:#0B0B0B"/>
				<stop  offset="8.864626e-02" style="stop-color:#191919"/>
				<stop  offset="0.1064" style="stop-color:#2C2C2C"/>
				<stop  offset="0.1224" style="stop-color:#464646"/>
				<stop  offset="0.1373" style="stop-color:#666666"/>
				<stop  offset="0.1513" style="stop-color:#8C8C8C"/>
				<stop  offset="0.1646" style="stop-color:#B7B7B7"/>
				<stop  offset="0.1768" style="stop-color:#E7E7E7"/>
				<stop  offset="0.1793" style="stop-color:#F2F2F2"/>
				<stop  offset="0.1929" style="stop-color:#E4E4E4"/>
				<stop  offset="0.2458" style="stop-color:#B2B2B2"/>
				<stop  offset="0.2999" style="stop-color:#878787"/>
				<stop  offset="0.3543" style="stop-color:#646464"/>
				<stop  offset="0.4091" style="stop-color:#494949"/>
				<stop  offset="0.4645" style="stop-color:#363636"/>
				<stop  offset="0.5207" style="stop-color:#2A2A2A"/>
				<stop  offset="0.5793" style="stop-color:#262626"/>
				<stop  offset="0.7135" style="stop-color:#1F1F1F"/>
				<stop  offset="0.911" style="stop-color:#0B0B0B"/>
				<stop  offset="1" style="stop-color:#000000"/>
			</linearGradient>
			<path class="st19" d="M537.2,38.9c-0.5,0.2-0.6,0.3-0.6,0.6v0c0,0.2,0.1,0.6,0.3,0.9c0.3,0.4,1.6,1.9,3,3.7
				c0.2,0.2,0.2,0.3,0.4,0.4c-0.1-0.1-2.1-2.7-2.7-3.4c-0.2-0.2-0.4-0.5-0.4-0.9c0-0.4,0.3-0.9,0.9-1.1c0.8-0.3,2.2-0.7,2.5-0.9
				c0.3-0.2,0.4-0.3,0.5-0.5c-0.2,0.1-0.4,0.2-0.6,0.3C539.7,38.4,537.9,38.7,537.2,38.9z"/>
			<g>
				<linearGradient id="SVGID_20_" gradientUnits="userSpaceOnUse" x1="541.0475" y1="29.3086" x2="546.4358" y2="29.3086">
					<stop  offset="0" style="stop-color:#4C4C4C"/>
					<stop  offset="0.2857" style="stop-color:#CCCCCC"/>
					<stop  offset="0.2991" style="stop-color:#C0C0C0"/>
					<stop  offset="0.3504" style="stop-color:#979797"/>
					<stop  offset="0.4006" style="stop-color:#767676"/>
					<stop  offset="0.4488" style="stop-color:#5F5F5F"/>
					<stop  offset="0.4939" style="stop-color:#515151"/>
					<stop  offset="0.533" style="stop-color:#4C4C4C"/>
					<stop  offset="0.7582" style="stop-color:#191919"/>
					<stop  offset="1" style="stop-color:#000000"/>
				</linearGradient>
				<path class="st20" d="M541,30.5c0.3-1,1.2-2.1,2.6-2.1c1.8,0,2.6,0.7,2.8,1.7c-0.3-1.4-1.6-1.9-2.8-1.9
					C542.2,28.2,541.3,29.4,541,30.5z"/>
			</g>
			<linearGradient id="SVGID_21_" gradientUnits="userSpaceOnUse" x1="519.0551" y1="57.3287" x2="531.4796" y2="57.3287">
				<stop  offset="0" style="stop-color:#000000"/>
				<stop  offset="5.118979e-02" style="stop-color:#020202"/>
				<stop  offset="8.051176e-02" style="stop-color:#0B0B0B"/>
				<stop  offset="0.1043" style="stop-color:#191919"/>
				<stop  offset="0.1252" style="stop-color:#2C2C2C"/>
				<stop  offset="0.144" style="stop-color:#464646"/>
				<stop  offset="0.1615" style="stop-color:#666666"/>
				<stop  offset="0.1777" style="stop-color:#8B8B8B"/>
				<stop  offset="0.1793" style="stop-color:#8F8F8F"/>
				<stop  offset="0.1944" style="stop-color:#878787"/>
				<stop  offset="0.2688" style="stop-color:#646464"/>
				<stop  offset="0.3444" style="stop-color:#494949"/>
				<stop  offset="0.4208" style="stop-color:#363636"/>
				<stop  offset="0.4984" style="stop-color:#2A2A2A"/>
				<stop  offset="0.5793" style="stop-color:#262626"/>
				<stop  offset="0.7135" style="stop-color:#1F1F1F"/>
				<stop  offset="0.911" style="stop-color:#0B0B0B"/>
				<stop  offset="1" style="stop-color:#000000"/>
			</linearGradient>
			<path class="st21" d="M529.3,56.6c0.2-0.3,1.2-1.3,2.2-2.4c-0.3,0.3-0.6,0.6-0.8,0.9c-1.4,1.4-2,1.9-2,2.8c0,0.5,0.1,1.8,0.1,2
				c0,0.1,0,0.3-0.2,0.4c-0.1,0.1-0.3,0.1-0.4,0.1c-0.4,0-4.1-0.4-5.3-0.4c-1.3,0-2.4,0.1-3.1,0.3c-0.1,0-0.4,0-0.5-0.2
				c-0.1-0.1-0.1-0.2-0.1-0.3c0,0.3-0.1,0.5-0.1,0.7c0.2,0,0.8-0.1,1.5-0.2c0.9-0.1,1.9-0.1,2.6-0.1s5.7,0.3,5.8,0.3
				c0-0.4-0.1-1.3-0.1-1.9c0-0.1,0-0.1,0-0.6C528.8,57.6,528.9,57,529.3,56.6z"/>
			<linearGradient id="SVGID_22_" gradientUnits="userSpaceOnUse" x1="534.8644" y1="52.5603" x2="540.4212" y2="52.5603">
				<stop  offset="0" style="stop-color:#000000"/>
				<stop  offset="5.118979e-02" style="stop-color:#020202"/>
				<stop  offset="8.051176e-02" style="stop-color:#0B0B0B"/>
				<stop  offset="0.1043" style="stop-color:#191919"/>
				<stop  offset="0.1252" style="stop-color:#2C2C2C"/>
				<stop  offset="0.144" style="stop-color:#464646"/>
				<stop  offset="0.1615" style="stop-color:#666666"/>
				<stop  offset="0.1777" style="stop-color:#8B8B8B"/>
				<stop  offset="0.1793" style="stop-color:#8F8F8F"/>
				<stop  offset="0.1944" style="stop-color:#878787"/>
				<stop  offset="0.2688" style="stop-color:#646464"/>
				<stop  offset="0.3444" style="stop-color:#494949"/>
				<stop  offset="0.4208" style="stop-color:#363636"/>
				<stop  offset="0.4984" style="stop-color:#2A2A2A"/>
				<stop  offset="0.5793" style="stop-color:#262626"/>
				<stop  offset="0.7135" style="stop-color:#1F1F1F"/>
				<stop  offset="0.911" style="stop-color:#0B0B0B"/>
				<stop  offset="1" style="stop-color:#000000"/>
			</linearGradient>
			<path class="st22" d="M539.6,54.2c0.3,0.2,0.6,0.3,0.8,0.4c-0.2-0.2-0.6-0.4-1-0.8c-0.7-0.5-1.5-1.2-2.3-1.8
				c-0.7-0.6-1.4-1.1-2-1.6c0,0.2-0.1,0.3-0.2,0.4c0.1,0,0.3,0.1,0.4,0.2C535.5,51.3,538.9,53.7,539.6,54.2z"/>
			<linearGradient id="SVGID_23_" gradientUnits="userSpaceOnUse" x1="538.5848" y1="53.307" x2="548.7917" y2="53.307">
				<stop  offset="0" style="stop-color:#000000"/>
				<stop  offset="5.118979e-02" style="stop-color:#020202"/>
				<stop  offset="8.051176e-02" style="stop-color:#0B0B0B"/>
				<stop  offset="0.1043" style="stop-color:#191919"/>
				<stop  offset="0.1252" style="stop-color:#2C2C2C"/>
				<stop  offset="0.144" style="stop-color:#464646"/>
				<stop  offset="0.1615" style="stop-color:#666666"/>
				<stop  offset="0.1777" style="stop-color:#8B8B8B"/>
				<stop  offset="0.1793" style="stop-color:#8F8F8F"/>
				<stop  offset="0.1944" style="stop-color:#878787"/>
				<stop  offset="0.2688" style="stop-color:#646464"/>
				<stop  offset="0.3444" style="stop-color:#494949"/>
				<stop  offset="0.4208" style="stop-color:#363636"/>
				<stop  offset="0.4984" style="stop-color:#2A2A2A"/>
				<stop  offset="0.5793" style="stop-color:#262626"/>
				<stop  offset="0.7135" style="stop-color:#1F1F1F"/>
				<stop  offset="0.911" style="stop-color:#0B0B0B"/>
				<stop  offset="1" style="stop-color:#000000"/>
			</linearGradient>
			<path class="st23" d="M548.6,58.6c0.1-0.1,0.2-0.1,0.2-0.2c0-0.1,0-0.2-0.1-0.3c-0.7-2-3.3-6.8-5.4-9.5c-0.2-0.3-0.3-0.6-0.3-0.8
				c0-0.3,0.2-0.5,0.3-0.7c0.1-0.1,0.5-0.4,0.9-0.9c-0.7,0.5-1.2,0.9-1.3,1.1c0,0.1-0.1,0.2-0.1,0.4c0,0.2,0.1,0.5,0.3,0.9
				c0.2,0.2,0.3,0.5,0.5,0.7c2.4,3.5,4,6.9,4.6,8.4c0.1,0.4,0.1,0.6,0,0.7c0,0-1.2,1.3-1.4,1.5c-0.1,0.1-0.1,0.2-0.2,0.2
				c-0.1,0.1-0.3,0.1-0.5,0.1c-1.8-0.2-3.8-0.2-4.8-0.2c-1.3,0-2,0.1-2.5,0.1c-0.2,0-0.4,0-0.4-0.1c0,0,0,0,0,0c0,0.2,0,0.3,0,0.4
				c0.8-0.1,1.8-0.2,3-0.2c0.4,0,0.8,0,1.1,0c1.9,0.1,4.2,0.2,4.2,0.2C546.9,60.5,548,59.1,548.6,58.6z"/>
			<linearGradient id="SVGID_24_" gradientUnits="userSpaceOnUse" x1="518.5095" y1="43.3388" x2="529.1489" y2="43.3388">
				<stop  offset="0" style="stop-color:#666666"/>
				<stop  offset="5.677871e-02" style="stop-color:#686868"/>
				<stop  offset="8.929450e-02" style="stop-color:#717171"/>
				<stop  offset="0.1157" style="stop-color:#7F7F7F"/>
				<stop  offset="0.1388" style="stop-color:#929292"/>
				<stop  offset="0.1596" style="stop-color:#ACACAC"/>
				<stop  offset="0.1787" style="stop-color:#CBCBCB"/>
				<stop  offset="0.1793" style="stop-color:#CCCCCC"/>
				<stop  offset="0.2072" style="stop-color:#BEBEBE"/>
				<stop  offset="0.3158" style="stop-color:#8C8C8C"/>
				<stop  offset="0.4268" style="stop-color:#616161"/>
				<stop  offset="0.5384" style="stop-color:#3E3E3E"/>
				<stop  offset="0.6508" style="stop-color:#232323"/>
				<stop  offset="0.7644" style="stop-color:#0F0F0F"/>
				<stop  offset="0.8798" style="stop-color:#040404"/>
				<stop  offset="1" style="stop-color:#000000"/>
			</linearGradient>
			<path class="st24" d="M529.1,44.3c-0.6-0.4-1.2-0.8-1.7-1.2c-0.7-0.5-1.4-0.8-1.6-0.8c-2.2,0-2.2,0-3.5,0c-1,0-2,0-2.4,0.1
				c-0.8,0.1-1.2,0.2-1.2,0.2c-0.1,0-0.1,0-0.1,0c0,0,0,0.1,0.1,0.1c0,0,0.1,0,0.1,0c0.5-0.1,1.5-0.2,2.8-0.2c1.2,0,2.6,0,3.3,0
				c0.6,0,1.5,0.1,2.2,0.5C527.7,43.4,529.1,44.4,529.1,44.3z"/>
			<linearGradient id="SVGID_25_" gradientUnits="userSpaceOnUse" x1="518.7442" y1="36.8644" x2="522.5306" y2="36.8644">
				<stop  offset="0" style="stop-color:#262626"/>
				<stop  offset="4.889393e-02" style="stop-color:#292929"/>
				<stop  offset="7.689209e-02" style="stop-color:#313131"/>
				<stop  offset="9.961995e-02" style="stop-color:#3F3F3F"/>
				<stop  offset="0.1195" style="stop-color:#535353"/>
				<stop  offset="0.1376" style="stop-color:#6C6C6C"/>
				<stop  offset="0.1543" style="stop-color:#8C8C8C"/>
				<stop  offset="0.1697" style="stop-color:#B1B1B1"/>
				<stop  offset="0.1793" style="stop-color:#CCCCCC"/>
				<stop  offset="0.2072" style="stop-color:#BEBEBE"/>
				<stop  offset="0.3158" style="stop-color:#8C8C8C"/>
				<stop  offset="0.4268" style="stop-color:#616161"/>
				<stop  offset="0.5384" style="stop-color:#3E3E3E"/>
				<stop  offset="0.6508" style="stop-color:#232323"/>
				<stop  offset="0.7644" style="stop-color:#0F0F0F"/>
				<stop  offset="0.8798" style="stop-color:#040404"/>
				<stop  offset="1" style="stop-color:#000000"/>
			</linearGradient>
			<path class="st25" d="M522.4,37.9c-0.8-0.8-2.1-1.7-2.7-1.8c-0.2,0-0.5-0.1-0.7-0.1c-0.2,0-0.2-0.2-0.2-0.3c0,0,0,0.4,0.1,0.4
				c0.1,0,0.6-0.1,1,0.1c0.6,0.3,2,1.3,2.2,1.6C522.4,38.1,522.7,38.1,522.4,37.9z"/>
			<linearGradient id="SVGID_26_" gradientUnits="userSpaceOnUse" x1="515.5095" y1="42.3863" x2="518.0016" y2="42.3863">
				<stop  offset="0" style="stop-color:#666666"/>
				<stop  offset="6.204499e-02" style="stop-color:#686868"/>
				<stop  offset="9.757584e-02" style="stop-color:#717171"/>
				<stop  offset="0.1264" style="stop-color:#7F7F7F"/>
				<stop  offset="0.1516" style="stop-color:#929292"/>
				<stop  offset="0.1743" style="stop-color:#ACACAC"/>
				<stop  offset="0.1793" style="stop-color:#B2B2B2"/>
				<stop  offset="0.182" style="stop-color:#B2B2B2"/>
				<stop  offset="0.3133" style="stop-color:#878787"/>
				<stop  offset="0.4469" style="stop-color:#646464"/>
				<stop  offset="0.5816" style="stop-color:#494949"/>
				<stop  offset="0.7176" style="stop-color:#363636"/>
				<stop  offset="0.856" style="stop-color:#2A2A2A"/>
				<stop  offset="1" style="stop-color:#262626"/>
			</linearGradient>
			<path class="st26" d="M517.6,42.1c0.2,0,0.2,0,0.4,0.1c-0.1-0.1-0.2-0.2-0.5-0.2c-0.4,0-1.4,0.5-1.6,0.6c-0.2,0.1-0.3,0.1-0.5,0
				c0.1,0.2,0.2,0.3,0.3,0.2C515.9,42.8,517.1,42.1,517.6,42.1z"/>
			<linearGradient id="SVGID_27_" gradientUnits="userSpaceOnUse" x1="528.6144" y1="26.9376" x2="528.888" y2="27.5394">
				<stop  offset="0" style="stop-color:#FFFFFF"/>
				<stop  offset="0.1154" style="stop-color:#EBEBEB"/>
				<stop  offset="0.9066" style="stop-color:#404040"/>
			</linearGradient>
			<path class="st27" d="M529.3,26.8c0.2,0,0.3-0.1,0.4,0.1c0,0.1,0,0.2,0,0.2c0,0-0.1,0.1-0.1,0.1c-0.2,0.1-1.3,0.5-1.5,0.5
				c-0.1,0.1-0.2,0-0.2-0.1c0-0.1,0-0.3,0.1-0.4c0.1-0.1,0.1-0.1,0.2-0.2C528.2,27.1,529.1,26.8,529.3,26.8z"/>
			<path d="M529.3,26.9c0.1,0,0.2,0,0.2,0.1c0,0.1,0,0.1,0,0.1c0,0,0,0.1-0.1,0.1c-0.1,0-0.9,0.3-1.1,0.4c-0.2,0.1-0.3,0-0.3,0
				c0-0.1,0-0.2,0-0.2c0-0.1,0.1-0.1,0.1-0.1C528.4,27.1,529.1,26.9,529.3,26.9z"/>
			<linearGradient id="SVGID_28_" gradientUnits="userSpaceOnUse" x1="525.1888" y1="33.1374" x2="535.2566" y2="33.1374">
				<stop  offset="0.6868" style="stop-color:#FFFFFF"/>
				<stop  offset="0.7158" style="stop-color:#FAFAFA"/>
				<stop  offset="0.7521" style="stop-color:#EAEAEA"/>
				<stop  offset="0.7922" style="stop-color:#D1D1D1"/>
				<stop  offset="0.8351" style="stop-color:#ADADAD"/>
				<stop  offset="0.8803" style="stop-color:#7F7F7F"/>
				<stop  offset="0.9273" style="stop-color:#474747"/>
				<stop  offset="0.9751" style="stop-color:#070707"/>
				<stop  offset="0.9797" style="stop-color:#000000"/>
			</linearGradient>
			<path class="st28" d="M533.7,37.3c0.1-0.2,1-2.1,1.2-2.6c0.1-0.3,0.3-0.7,0.3-1.1c0-0.3-0.1-0.7-0.3-1.1c-0.5-1-2-3-2.6-3.7
				c-0.5-0.6-1-0.7-1.9-0.7c-2.2,0.1-4.2,1-5.3,1.5c0.8-0.3,2.7-1,4.8-1.2c1.2-0.1,1.6,0,2.1,0.5c0.6,0.7,2.1,2.6,2.6,3.6
				c0.2,0.4,0.3,0.7,0.3,1c0,0.5-0.2,0.8-0.3,1.1c-0.2,0.5-1.1,2.2-1.2,2.4c-0.6,1-1.2,1-1.8,0.9c0,0,0.3,0.1,0.6,0.3
				C532.9,38.4,533.3,38,533.7,37.3z"/>
			<linearGradient id="SVGID_29_" gradientUnits="userSpaceOnUse" x1="524.5286" y1="58.0596" x2="528.2609" y2="44.8598">
				<stop  offset="0" style="stop-color:#E5E5E5"/>
				<stop  offset="6.593400e-02" style="stop-color:#404040"/>
				<stop  offset="7.501830e-02" style="stop-color:#424242"/>
				<stop  offset="0.2588" style="stop-color:#6E6E6E"/>
				<stop  offset="0.3517" style="stop-color:#808080"/>
				<stop  offset="0.4902" style="stop-color:#9A9A9A"/>
				<stop  offset="0.6044" style="stop-color:#ABABAB"/>
				<stop  offset="0.7298" style="stop-color:#898989"/>
				<stop  offset="0.8783" style="stop-color:#666666"/>
				<stop  offset="0.9586" style="stop-color:#595959"/>
				<stop  offset="1" style="stop-color:#A6A6A6"/>
			</linearGradient>
			<path class="st29" d="M531,45.4c0,0-0.1-0.1-0.3-0.2c-0.3,0.4-1.9,2.3-2.9,4c-0.8,1.3-1.9,3.2-2.1,3.6c-0.2,0.4-0.2,0.7-0.2,1.2
				c0,0,0.1,2,0.1,2.1c0,0.3,0,0.5-0.2,0.6c-0.1,0.2-0.3,0.2-0.6,0.3c-0.5,0.1-2.7,0.4-3.3,0.5c-0.6,0.1-0.8,0.4-1,0.8
				c-0.1,0.3-0.2,0.8-0.2,1c0,0,0,0.1,0,0.1c0,0.2,0.1,0.2,0.1,0.2s2.6-0.2,4.1-0.1c1.5,0.1,3.7,0.3,3.7,0.3s-2.2-0.4-3.8-0.5
				c-1.5-0.1-3.5,0.1-3.6,0c0-0.1-0.1-0.2,0-0.3c0-0.1,0.1-0.3,0.1-0.4c0.1-0.4,0.3-0.7,0.9-0.8c0.6-0.1,2.7-0.5,3.1-0.6
				c0.4-0.1,0.7-0.3,0.7-0.6c0-0.1,0-0.3,0-0.5c0-0.4-0.1-1.6-0.1-1.7c0-0.7,0-1.1,0.5-1.9c0.7-1.2,3.4-5.3,4.8-6.8
				C530.9,45.5,531,45.4,531,45.4C531.1,45.4,531.1,45.4,531,45.4z"/>
		</g>
	</g>
	<g>
		<path class="st30" d="M498.5,69v6h1.7v-1.9h1.5c3.2,0,4.8-1,4.8-2.2c0-1.2-1.7-2-4.7-2H498.5z M500.2,72.6v-2.8h1.3
			c1.3,0,3.1,0.2,3.1,1.3c0,0.8-0.6,1.5-3.3,1.5H500.2z"/>
		<path class="st30" d="M516,75.1v-0.8h-4.1c-0.9,0-1.1-0.4-1.1-1.1v-0.9h4.8v-0.8h-4.8v-1.8h5V69h-6.7v4.2c0,1.1,0.5,1.8,2,1.8H516
			z"/>
		<path class="st30" d="M526.6,69h-1.7v5.1c-0.5,0.2-1.1,0.3-2,0.3c-1.3,0-2.5-0.3-2.5-1.4V69h-1.7v4.1c0,1.7,1.7,2.2,3.5,2.2
			c1.7,0,3.2-0.4,4.3-0.9V69z"/>
		<path class="st30" d="M531.2,72.1c0-1.7,1.4-2.5,3.2-2.5c1.4,0,2.5,0.4,3.6,0.8v-1c-1.1-0.3-2.1-0.5-3.6-0.5c-2.8,0-5,1.3-5,3.2
			c0,2,2.3,3.2,5,3.2c1.4,0,2.8-0.3,3.7-0.5v-2.4h-1.6v1.8c-0.6,0.2-1,0.4-2,0.4C532.6,74.5,531.2,73.6,531.2,72.1"/>
		<path class="st30" d="M548,75.1v-0.8h-4.1c-0.9,0-1.1-0.4-1.1-1.1v-0.9h4.8v-0.8h-4.8v-1.8h5V69h-6.7v4.2c0,1.1,0.5,1.8,2,1.8H548
			z"/>
		<path class="st30" d="M555.2,68.9c-2.8,0-5.1,1.3-5.1,3.2c0,2,2.3,3.2,5.1,3.2c2.8,0,5-1.1,5-3.2C560.2,70.2,558,68.9,555.2,68.9
			 M555.2,74.6c-1.9,0-3.2-1-3.2-2.5c0-1.7,1.4-2.5,3.2-2.5c1.7,0,3.2,0.8,3.2,2.5C558.4,73.6,557.1,74.6,555.2,74.6"/>
		<polygon class="st30" points="561.6,69.9 564.9,69.9 564.9,75.1 566.6,75.1 566.6,69.9 569.9,69.9 569.9,69 561.6,69 		"/>
	</g>
</g>
</svg>
