<?xml version="1.0" encoding="utf-8"?>
<!-- Generator: Adobe Illustrator 23.0.0, SVG Export Plug-In . SVG Version: 6.00 Build 0)  -->
<svg version="1.1" id="Layer_1" xmlns="http://www.w3.org/2000/svg" xmlns:xlink="http://www.w3.org/1999/xlink" x="0px" y="0px"
	 viewBox="0 0 300 250" style="enable-background:new 0 0 300 250;" xml:space="preserve">
<style type="text/css">
	.st0{fill:#060866;}
	.st1{fill:#FFFFFF;}
</style>
<g>
	<rect x="63" y="76" class="st0" width="178" height="25"/>
	<g>
		<path class="st1" d="M73.9,84.2h2.98v1.4c0.43-0.6,0.91-1.02,1.44-1.26c0.53-0.24,1.11-0.36,1.74-0.36c0.72,0,1.32,0.13,1.79,0.4
			c0.47,0.27,0.85,0.63,1.12,1.08c0.27,0.45,0.47,0.97,0.58,1.56c0.11,0.59,0.17,1.21,0.17,1.86v5.58h-2.98v-5.52
			c0-0.36-0.03-0.69-0.1-0.99c-0.07-0.3-0.18-0.56-0.33-0.79c-0.15-0.23-0.35-0.4-0.59-0.53c-0.24-0.13-0.53-0.19-0.88-0.19
			s-0.64,0.06-0.89,0.19c-0.25,0.13-0.45,0.3-0.61,0.53s-0.28,0.49-0.35,0.8s-0.11,0.64-0.11,1v5.5H73.9V84.2z"/>
		<path class="st1" d="M84.92,89.32c0-0.8,0.15-1.53,0.46-2.18s0.72-1.22,1.24-1.69c0.52-0.47,1.12-0.84,1.8-1.09
			c0.68-0.25,1.39-0.38,2.14-0.38c0.75,0,1.46,0.13,2.14,0.39c0.68,0.26,1.28,0.62,1.8,1.09c0.52,0.47,0.93,1.03,1.24,1.68
			s0.46,1.38,0.46,2.18c0,0.8-0.15,1.53-0.46,2.19c-0.31,0.66-0.72,1.22-1.24,1.69c-0.52,0.47-1.12,0.83-1.8,1.09
			c-0.68,0.26-1.39,0.39-2.14,0.39c-0.75,0-1.46-0.13-2.14-0.38c-0.68-0.25-1.28-0.62-1.8-1.09c-0.52-0.47-0.93-1.04-1.24-1.7
			C85.07,90.85,84.92,90.12,84.92,89.32z M87.82,89.32c0,0.4,0.07,0.77,0.22,1.12s0.35,0.64,0.6,0.89c0.25,0.25,0.55,0.44,0.88,0.58
			c0.33,0.14,0.68,0.21,1.04,0.21c0.37,0,0.72-0.07,1.05-0.21c0.33-0.14,0.62-0.34,0.87-0.59c0.25-0.25,0.45-0.55,0.6-0.89
			c0.15-0.34,0.22-0.71,0.22-1.11s-0.07-0.77-0.22-1.1c-0.15-0.33-0.35-0.63-0.6-0.88c-0.25-0.25-0.54-0.45-0.87-0.59
			c-0.33-0.14-0.68-0.21-1.05-0.21c-0.36,0-0.71,0.07-1.04,0.21c-0.33,0.14-0.63,0.33-0.88,0.58c-0.25,0.25-0.45,0.54-0.6,0.88
			S87.82,88.92,87.82,89.32z"/>
		<path class="st1" d="M101.02,84.2h2.84v2.34h-2.84v4.8c0,0.23,0.05,0.43,0.16,0.62c0.11,0.19,0.31,0.28,0.6,0.28s0.5-0.1,0.61-0.3
			s0.17-0.42,0.17-0.66c0-0.15-0.02-0.31-0.05-0.49c-0.03-0.18-0.06-0.31-0.09-0.39h2.36c0.09,0.19,0.16,0.39,0.19,0.61
			c0.03,0.22,0.05,0.42,0.05,0.61c0,0.39-0.06,0.76-0.19,1.12c-0.13,0.36-0.33,0.69-0.61,0.98c-0.28,0.29-0.64,0.53-1.07,0.7
			c-0.43,0.17-0.95,0.26-1.55,0.26c-0.45,0-0.89-0.05-1.32-0.15c-0.43-0.1-0.81-0.28-1.14-0.55c-0.33-0.27-0.6-0.63-0.8-1.1
			c-0.2-0.47-0.3-1.07-0.3-1.82v-4.52H96.5V84.2h1.76l0.46-2.52h2.3V84.2z"/>
		<path class="st1" d="M111.54,90.84c0.08,0.29,0.2,0.54,0.35,0.74c0.15,0.2,0.33,0.36,0.53,0.48c0.2,0.12,0.41,0.2,0.64,0.25
			s0.44,0.07,0.64,0.07c0.33,0,0.64-0.06,0.92-0.19c0.28-0.13,0.42-0.32,0.42-0.59c0-0.17-0.06-0.32-0.17-0.44
			c-0.11-0.12-0.31-0.23-0.59-0.34l-1.8-0.76c-0.61-0.21-1.09-0.47-1.43-0.76c-0.34-0.29-0.59-0.58-0.76-0.86s-0.27-0.54-0.31-0.78
			c-0.04-0.24-0.06-0.42-0.06-0.54c0-0.52,0.11-0.97,0.32-1.36c0.21-0.39,0.5-0.71,0.87-0.98c0.37-0.27,0.79-0.47,1.28-0.6
			c0.49-0.13,1-0.2,1.55-0.2c0.29,0,0.61,0.03,0.94,0.08c0.33,0.05,0.66,0.16,0.99,0.31c0.33,0.15,0.64,0.37,0.95,0.66
			c0.31,0.29,0.58,0.66,0.82,1.11l-2.3,1.06c-0.07-0.2-0.16-0.37-0.27-0.5s-0.24-0.23-0.38-0.3c-0.14-0.07-0.28-0.11-0.42-0.14
			c-0.14-0.03-0.27-0.04-0.39-0.04c-0.28,0-0.54,0.07-0.78,0.22c-0.24,0.15-0.36,0.35-0.36,0.62c0,0.23,0.09,0.4,0.28,0.53
			c0.19,0.13,0.41,0.24,0.68,0.35l1.54,0.6c0.6,0.17,1.08,0.39,1.43,0.66c0.35,0.27,0.62,0.54,0.8,0.83
			c0.18,0.29,0.29,0.56,0.34,0.82c0.05,0.26,0.07,0.48,0.07,0.65c0,0.52-0.11,0.98-0.34,1.38s-0.53,0.73-0.91,1
			c-0.38,0.27-0.83,0.47-1.34,0.6c-0.51,0.13-1.05,0.2-1.61,0.2c-0.39,0-0.79-0.04-1.22-0.11s-0.84-0.21-1.24-0.4
			c-0.4-0.19-0.76-0.46-1.09-0.8c-0.33-0.34-0.58-0.78-0.75-1.31L111.54,90.84z"/>
		<path class="st1" d="M119.22,80h2.98v5.6c0.43-0.6,0.91-1.02,1.44-1.26c0.53-0.24,1.11-0.36,1.74-0.36c0.72,0,1.32,0.13,1.79,0.4
			c0.47,0.27,0.85,0.63,1.12,1.08c0.27,0.45,0.47,0.97,0.58,1.56c0.11,0.59,0.17,1.21,0.17,1.86v5.58h-2.98v-5.52
			c0-0.36-0.03-0.69-0.1-0.99c-0.07-0.3-0.18-0.56-0.33-0.79s-0.35-0.4-0.59-0.53c-0.24-0.13-0.53-0.19-0.88-0.19
			s-0.64,0.06-0.89,0.19c-0.25,0.13-0.45,0.3-0.61,0.53s-0.28,0.49-0.35,0.8s-0.11,0.64-0.11,1v5.5h-2.98V80z"/>
		<path class="st1" d="M141.48,84.2v10.26h-2.98v-1.5c-0.37,0.53-0.81,0.95-1.32,1.26c-0.51,0.31-1.14,0.46-1.9,0.46
			c-0.79,0-1.49-0.14-2.1-0.42c-0.61-0.28-1.14-0.66-1.57-1.15c-0.43-0.49-0.76-1.06-0.99-1.72c-0.23-0.66-0.34-1.36-0.34-2.11
			c0-0.72,0.11-1.4,0.32-2.04c0.21-0.64,0.53-1.2,0.95-1.69c0.42-0.49,0.94-0.87,1.55-1.15c0.61-0.28,1.32-0.42,2.12-0.42
			c0.69,0,1.33,0.15,1.9,0.46c0.57,0.31,1.03,0.69,1.38,1.16v-1.4H141.48z M133.26,89.3c0,0.41,0.06,0.8,0.18,1.16
			s0.29,0.67,0.52,0.94c0.23,0.27,0.5,0.48,0.83,0.63c0.33,0.15,0.7,0.23,1.11,0.23c0.36,0,0.7-0.06,1.03-0.18
			c0.33-0.12,0.61-0.3,0.86-0.53c0.25-0.23,0.44-0.52,0.58-0.87c0.14-0.35,0.21-0.75,0.21-1.22c0-0.96-0.26-1.71-0.77-2.25
			c-0.51-0.54-1.18-0.81-1.99-0.81c-0.41,0-0.78,0.08-1.09,0.23c-0.31,0.15-0.58,0.36-0.8,0.63c-0.22,0.27-0.39,0.57-0.5,0.92
			S133.26,88.9,133.26,89.3z"/>
		<path class="st1" d="M146.34,86.44c0.08-0.47,0.23-0.86,0.45-1.17c0.22-0.31,0.47-0.57,0.75-0.76c0.28-0.19,0.56-0.33,0.85-0.41
			c0.29-0.08,0.54-0.12,0.77-0.12c0.17,0,0.3,0.01,0.39,0.02s0.21,0.03,0.37,0.06V87c-0.21-0.05-0.44-0.09-0.68-0.11
			s-0.43-0.03-0.58-0.03c-0.28,0-0.55,0.04-0.82,0.12s-0.51,0.21-0.72,0.38c-0.21,0.17-0.38,0.39-0.51,0.64
			c-0.13,0.25-0.19,0.55-0.19,0.88v5.58h-2.98V84.2h2.9V86.44z"/>
		<path class="st1" d="M160.76,92.66c-0.36,0.4-0.75,0.73-1.17,0.99c-0.42,0.26-0.84,0.47-1.26,0.62s-0.83,0.26-1.23,0.32
			c-0.4,0.06-0.77,0.09-1.12,0.09c-0.95,0-1.79-0.14-2.52-0.42c-0.73-0.28-1.35-0.66-1.85-1.14s-0.88-1.04-1.13-1.68
			c-0.25-0.64-0.38-1.33-0.38-2.06c0-0.76,0.14-1.47,0.42-2.12c0.28-0.65,0.67-1.22,1.17-1.71c0.5-0.49,1.1-0.87,1.79-1.15
			c0.69-0.28,1.45-0.42,2.28-0.42c0.71,0,1.39,0.12,2.06,0.37c0.67,0.25,1.26,0.62,1.78,1.12c0.52,0.5,0.94,1.13,1.25,1.89
			c0.31,0.76,0.47,1.65,0.47,2.66h-8.26c0.03,0.64,0.32,1.17,0.87,1.59c0.55,0.42,1.31,0.63,2.27,0.63c0.53,0,1.05-0.12,1.55-0.35
			s0.93-0.52,1.29-0.87L160.76,92.66z M155.72,86.4c-0.24,0-0.49,0.03-0.76,0.09c-0.27,0.06-0.52,0.16-0.76,0.3
			s-0.46,0.33-0.65,0.56s-0.34,0.52-0.43,0.87h5.14c-0.05-0.33-0.17-0.61-0.34-0.84c-0.17-0.23-0.38-0.41-0.63-0.56
			c-0.25-0.15-0.51-0.25-0.78-0.32C156.23,86.43,155.97,86.4,155.72,86.4z"/>
		<path class="st1" d="M162.48,80h2.98v5.6c0.43-0.6,0.91-1.02,1.44-1.26c0.53-0.24,1.11-0.36,1.74-0.36c0.72,0,1.32,0.13,1.79,0.4
			c0.47,0.27,0.85,0.63,1.12,1.08c0.27,0.45,0.47,0.97,0.58,1.56c0.11,0.59,0.17,1.21,0.17,1.86v5.58h-2.98v-5.52
			c0-0.36-0.03-0.69-0.1-0.99c-0.07-0.3-0.18-0.56-0.33-0.79s-0.35-0.4-0.59-0.53c-0.24-0.13-0.53-0.19-0.88-0.19
			s-0.64,0.06-0.89,0.19c-0.25,0.13-0.45,0.3-0.61,0.53s-0.28,0.49-0.35,0.8s-0.11,0.64-0.11,1v5.5h-2.98V80z"/>
		<path class="st1" d="M173.5,89.32c0-0.8,0.15-1.53,0.46-2.18s0.72-1.22,1.24-1.69c0.52-0.47,1.12-0.84,1.8-1.09
			c0.68-0.25,1.39-0.38,2.14-0.38c0.75,0,1.46,0.13,2.14,0.39c0.68,0.26,1.28,0.62,1.8,1.09c0.52,0.47,0.93,1.03,1.24,1.68
			s0.46,1.38,0.46,2.18c0,0.8-0.15,1.53-0.46,2.19c-0.31,0.66-0.72,1.22-1.24,1.69c-0.52,0.47-1.12,0.83-1.8,1.09
			c-0.68,0.26-1.39,0.39-2.14,0.39c-0.75,0-1.46-0.13-2.14-0.38c-0.68-0.25-1.28-0.62-1.8-1.09c-0.52-0.47-0.93-1.04-1.24-1.7
			C173.65,90.85,173.5,90.12,173.5,89.32z M176.4,89.32c0,0.4,0.07,0.77,0.22,1.12s0.35,0.64,0.6,0.89
			c0.25,0.25,0.55,0.44,0.88,0.58c0.33,0.14,0.68,0.21,1.04,0.21c0.37,0,0.72-0.07,1.05-0.21c0.33-0.14,0.62-0.34,0.87-0.59
			c0.25-0.25,0.45-0.55,0.6-0.89c0.15-0.34,0.22-0.71,0.22-1.11s-0.07-0.77-0.22-1.1c-0.15-0.33-0.35-0.63-0.6-0.88
			c-0.25-0.25-0.54-0.45-0.87-0.59c-0.33-0.14-0.68-0.21-1.05-0.21c-0.36,0-0.71,0.07-1.04,0.21c-0.33,0.14-0.63,0.33-0.88,0.58
			c-0.25,0.25-0.45,0.54-0.6,0.88S176.4,88.92,176.4,89.32z"/>
		<path class="st1" d="M186.14,94.46V80h2.98v14.46H186.14z"/>
		<path class="st1" d="M201.72,80v14.46h-2.98v-1.5c-0.37,0.53-0.81,0.95-1.32,1.26c-0.51,0.31-1.14,0.46-1.9,0.46
			c-0.79,0-1.49-0.14-2.1-0.42c-0.61-0.28-1.14-0.66-1.57-1.15c-0.43-0.49-0.76-1.06-0.99-1.72c-0.23-0.66-0.34-1.36-0.34-2.11
			c0-0.72,0.11-1.4,0.32-2.04c0.21-0.64,0.53-1.2,0.95-1.69c0.42-0.49,0.94-0.87,1.55-1.15c0.61-0.28,1.32-0.42,2.12-0.42
			c0.69,0,1.33,0.15,1.9,0.46c0.57,0.31,1.03,0.69,1.38,1.16V80H201.72z M193.5,89.3c0,0.41,0.06,0.8,0.18,1.16s0.29,0.67,0.52,0.94
			c0.23,0.27,0.5,0.48,0.83,0.63c0.33,0.15,0.7,0.23,1.11,0.23c0.36,0,0.7-0.06,1.03-0.18c0.33-0.12,0.61-0.3,0.86-0.53
			c0.25-0.23,0.44-0.52,0.58-0.87c0.14-0.35,0.21-0.75,0.21-1.22c0-0.96-0.26-1.71-0.77-2.25c-0.51-0.54-1.18-0.81-1.99-0.81
			c-0.41,0-0.78,0.08-1.09,0.23c-0.31,0.15-0.58,0.36-0.8,0.63c-0.22,0.27-0.39,0.57-0.5,0.92S193.5,88.9,193.5,89.3z"/>
		<path class="st1" d="M213.72,92.66c-0.36,0.4-0.75,0.73-1.17,0.99c-0.42,0.26-0.84,0.47-1.26,0.62s-0.83,0.26-1.23,0.32
			c-0.4,0.06-0.77,0.09-1.12,0.09c-0.95,0-1.79-0.14-2.52-0.42c-0.73-0.28-1.35-0.66-1.85-1.14s-0.88-1.04-1.13-1.68
			c-0.25-0.64-0.38-1.33-0.38-2.06c0-0.76,0.14-1.47,0.42-2.12c0.28-0.65,0.67-1.22,1.17-1.71c0.5-0.49,1.1-0.87,1.79-1.15
			c0.69-0.28,1.45-0.42,2.28-0.42c0.71,0,1.39,0.12,2.06,0.37c0.67,0.25,1.26,0.62,1.78,1.12c0.52,0.5,0.94,1.13,1.25,1.89
			c0.31,0.76,0.47,1.65,0.47,2.66h-8.26c0.03,0.64,0.32,1.17,0.87,1.59c0.55,0.42,1.31,0.63,2.27,0.63c0.53,0,1.05-0.12,1.55-0.35
			s0.93-0.52,1.29-0.87L213.72,92.66z M208.68,86.4c-0.24,0-0.49,0.03-0.76,0.09c-0.27,0.06-0.52,0.16-0.76,0.3
			s-0.46,0.33-0.65,0.56s-0.34,0.52-0.43,0.87h5.14c-0.05-0.33-0.17-0.61-0.34-0.84c-0.17-0.23-0.38-0.41-0.63-0.56
			c-0.25-0.15-0.51-0.25-0.78-0.32C209.19,86.43,208.93,86.4,208.68,86.4z"/>
		<path class="st1" d="M218.32,86.44c0.08-0.47,0.23-0.86,0.45-1.17c0.22-0.31,0.47-0.57,0.75-0.76c0.28-0.19,0.56-0.33,0.85-0.41
			c0.29-0.08,0.54-0.12,0.77-0.12c0.17,0,0.3,0.01,0.39,0.02s0.21,0.03,0.37,0.06V87c-0.21-0.05-0.44-0.09-0.68-0.11
			s-0.43-0.03-0.58-0.03c-0.28,0-0.55,0.04-0.82,0.12s-0.51,0.21-0.72,0.38c-0.21,0.17-0.38,0.39-0.51,0.64
			c-0.13,0.25-0.19,0.55-0.19,0.88v5.58h-2.98V84.2h2.9V86.44z"/>
		<path class="st1" d="M224.2,90.84c0.08,0.29,0.2,0.54,0.35,0.74c0.15,0.2,0.33,0.36,0.53,0.48c0.2,0.12,0.41,0.2,0.64,0.25
			s0.44,0.07,0.64,0.07c0.33,0,0.64-0.06,0.92-0.19c0.28-0.13,0.42-0.32,0.42-0.59c0-0.17-0.06-0.32-0.17-0.44
			c-0.11-0.12-0.31-0.23-0.59-0.34l-1.8-0.76c-0.61-0.21-1.09-0.47-1.43-0.76c-0.34-0.29-0.59-0.58-0.76-0.86s-0.27-0.54-0.31-0.78
			c-0.04-0.24-0.06-0.42-0.06-0.54c0-0.52,0.11-0.97,0.32-1.36c0.21-0.39,0.5-0.71,0.87-0.98c0.37-0.27,0.79-0.47,1.28-0.6
			c0.49-0.13,1-0.2,1.55-0.2c0.29,0,0.61,0.03,0.94,0.08c0.33,0.05,0.66,0.16,0.99,0.31c0.33,0.15,0.64,0.37,0.95,0.66
			c0.31,0.29,0.58,0.66,0.82,1.11L228,87.2c-0.07-0.2-0.16-0.37-0.27-0.5s-0.24-0.23-0.38-0.3c-0.14-0.07-0.28-0.11-0.42-0.14
			c-0.14-0.03-0.27-0.04-0.39-0.04c-0.28,0-0.54,0.07-0.78,0.22c-0.24,0.15-0.36,0.35-0.36,0.62c0,0.23,0.09,0.4,0.28,0.53
			c0.19,0.13,0.41,0.24,0.68,0.35l1.54,0.6c0.6,0.17,1.08,0.39,1.43,0.66c0.35,0.27,0.62,0.54,0.8,0.83
			c0.18,0.29,0.29,0.56,0.34,0.82c0.05,0.26,0.07,0.48,0.07,0.65c0,0.52-0.11,0.98-0.34,1.38s-0.53,0.73-0.91,1
			c-0.38,0.27-0.83,0.47-1.34,0.6c-0.51,0.13-1.05,0.2-1.61,0.2c-0.39,0-0.79-0.04-1.22-0.11s-0.84-0.21-1.24-0.4
			c-0.4-0.19-0.76-0.46-1.09-0.8c-0.33-0.34-0.58-0.78-0.75-1.31L224.2,90.84z"/>
		<path class="st1" d="M231.48,92.96c0-0.51,0.18-0.93,0.53-1.26c0.35-0.33,0.8-0.5,1.35-0.5c0.53,0,0.98,0.17,1.35,0.5
			c0.37,0.33,0.55,0.75,0.55,1.26c0,0.49-0.18,0.9-0.55,1.23c-0.37,0.33-0.82,0.49-1.35,0.49c-0.55,0-1-0.16-1.35-0.49
			S231.48,93.45,231.48,92.96z"/>
	</g>
</g>
</svg>
