<?xml version="1.0" encoding="utf-8"?>
<!-- Generator: Adobe Illustrator 24.2.1, SVG Export Plug-In . SVG Version: 6.00 Build 0)  -->
<svg version="1.1" id="Layer_1" xmlns="http://www.w3.org/2000/svg" xmlns:xlink="http://www.w3.org/1999/xlink" x="0px" y="0px"
	 viewBox="0 0 300 250" style="enable-background:new 0 0 300 250;" xml:space="preserve">
<style type="text/css">
	.st0{clip-path:url(#SVGID_2_);}
	.st1{clip-path:url(#SVGID_4_);}
	.st2{fill:#FFFFFF;}
</style>
<g>
	<defs>
		<rect id="SVGID_1_" width="300" height="250"/>
	</defs>
	<clipPath id="SVGID_2_">
		<use xlink:href="#SVGID_1_"  style="overflow:visible;"/>
	</clipPath>
	<g class="st0">
		<g>
			<defs>
				<rect id="SVGID_3_" width="300" height="250"/>
			</defs>
			<clipPath id="SVGID_4_">
				<use xlink:href="#SVGID_3_"  style="overflow:visible;"/>
			</clipPath>
			<g class="st1">
				<path class="st2" d="M42,71h4.8v-9c0-3.2-1.8-5-4.7-5c-1.8,0-3.5,0.8-4.6,2.2c-0.8-1.5-2.3-2.3-4-2.2c-1.6,0-3.2,0.8-4.1,2.2v-2
					h-4.8V71h4.8v-7.5c0-1.5,0.8-2.3,2-2.3c1.1,0,1.9,0.8,1.9,2.3V71h4.8v-7.5c0-1.5,0.8-2.3,2-2.3s1.9,0.8,1.9,2.3L42,71z
					 M57.9,70.7l5-13.4h-5l-2.5,8.2l-2.7-8.3h-5L53,70.7c-0.3,0.4-0.7,0.6-1.2,0.6c-0.7-0.1-1.5-0.3-2.1-0.7l-1.5,3.4
					c1.3,0.8,2.8,1.2,4.4,1.2C55.4,75.1,56.7,73.8,57.9,70.7 M76.7,71H81V53.2h-4.9v9.4l-7.3-9.4h-4.6V71h4.9v-9.8L76.7,71z
					 M83.6,71h15.7v-4.2h-8.9l8.9-10v-3.6H83.9v4.1h8.6l-8.9,10L83.6,71z M110.8,57.6h5.3v-4.4h-15.5v4.3h5.3V71h4.9V57.6z
					 M117.7,71h14.4v-4.2h-9.5V64h8.5v-3.9h-8.5v-2.7h9.4v-4.2h-14.3V71z M139.7,68c0-1-0.5-1.9-1.4-2.4c-1.1-0.6-2.4-0.5-3.3,0.4
					c-1.1,1-1.2,2.8-0.1,3.9c0,0,0.1,0.1,0.1,0.1c0.5,0.5,1.2,0.8,2,0.8c0.8,0,1.5-0.3,2-0.8C139.5,69.5,139.8,68.8,139.7,68"/>
			</g>
		</g>
	</g>
</g>
</svg>
