<?xml version="1.0" encoding="utf-8"?>
<!-- Generator: Adobe Illustrator 24.2.1, SVG Export Plug-In . SVG Version: 6.00 Build 0)  -->
<svg version="1.1" id="Layer_1" xmlns="http://www.w3.org/2000/svg" xmlns:xlink="http://www.w3.org/1999/xlink" x="0px" y="0px"
	 viewBox="0 0 300 250" style="enable-background:new 0 0 300 250;" xml:space="preserve">
<style type="text/css">
	.st0{fill:#FFFFFF;}
</style>
<g>
	<path class="st0" d="M32.2,38.5l-7.5-12.3h6.2l4,7.1l4.1-7.1h6l-7.4,12.2v7.4h-5.4V38.5z"/>
	<path class="st0" d="M43.2,38.3L43.2,38.3c0.1-4.5,3.7-8.1,8.2-8c0.1,0,0.1,0,0.2,0c4.4-0.2,8.1,3.2,8.3,7.7c0,0.1,0,0.1,0,0.2v0.1
		c-0.1,4.5-3.7,8-8.2,7.9c-0.1,0-0.1,0-0.2,0c-4.4,0.2-8.1-3.3-8.3-7.7C43.2,38.4,43.2,38.4,43.2,38.3z M54.8,38.3L54.8,38.3
		c0.1-1.9-1.4-3.4-3.2-3.5c0,0,0,0-0.1,0c-1.8,0-3.2,1.4-3.2,3.2c0,0.1,0,0.1,0,0.2v0.1c-0.1,1.8,1.3,3.3,3.1,3.4c0,0,0.1,0,0.1,0
		c1.8,0,3.2-1.4,3.2-3.2C54.8,38.4,54.8,38.4,54.8,38.3z"/>
	<path class="st0" d="M61.7,40.5v-9.9h5.3v8.2c0,1.7,0.9,2.5,2.2,2.5c1.2,0,2.2-1,2.3-2.2c0-0.1,0-0.2,0-0.3v-8.2h5.3v15.1h-5.3
		v-2.1c-1,1.5-2.7,2.4-4.5,2.4C63.7,46.1,61.7,44,61.7,40.5z"/>
	<path class="st0" d="M78.8,34.3c1.9-0.2,2.9-1.1,2.8-2.6h-2.2v-5.5H85v4.5c0,4.2-2.2,5.6-5.7,5.7L78.8,34.3z"/>
	<path class="st0" d="M86.2,30.6h5.6l2.9,8.9l2.9-8.9h5.5l-6,15.3h-4.9L86.2,30.6z"/>
	<path class="st0" d="M103,38.3L103,38.3c-0.2-4.2,3.1-7.8,7.3-8c0.1,0,0.3,0,0.4,0c5.2,0,7.6,3.8,7.6,8.3c0,0.3,0,0.7,0,1.1h-10.2
		c0.3,1.5,1.7,2.6,3.3,2.5c1.3,0,2.5-0.6,3.4-1.5l2.9,2.4c-1.6,2-4,3.2-6.6,3.1C106.3,46.2,103,43,103,38.3z M113.3,37
		c-0.2-1.7-1.2-2.7-2.7-2.7s-2.3,1-2.6,2.7H113.3z"/>
	<path class="st0" d="M127.3,48.6l1.7-3.5c1.6,0.9,3.4,1.4,5.3,1.4c2.6,0,4-1.3,4-3.7v-0.6c-1.1,1.4-2.8,2.3-4.6,2.3
		c-3.7,0.1-6.7-2.8-6.8-6.5c0-0.2,0-0.3,0-0.5v-0.1c0-4.4,3.1-7,6.6-7c1.8-0.1,3.6,0.7,4.8,2.1v-1.9h5.3v11.5c0,2.8-0.6,4.7-2,6
		s-3.5,2.1-6.7,2.1C132.2,50.4,129.7,49.8,127.3,48.6z M138.3,37.4L138.3,37.4c-0.1-1.8-1.6-3.1-3.3-3c-1.6,0.1-2.8,1.3-2.9,2.9v0.1
		c0.1,1.7,1.6,3,3.3,2.9C137,40.3,138.2,39,138.3,37.4z"/>
	<path class="st0" d="M146.2,30.6h5.3v3.1c0.9-2.1,2.3-3.4,4.8-3.3V36h-0.4c-2.8,0-4.3,1.6-4.3,5.1v4.7h-5.3V30.6z"/>
	<path class="st0" d="M157.1,38.3L157.1,38.3c0.1-4.5,3.7-8.1,8.2-8c0.1,0,0.1,0,0.2,0c4.9,0,8.4,3.6,8.4,7.9v0.1
		c-0.1,4.5-3.8,8-8.2,7.9c-0.1,0-0.1,0-0.2,0c-4.4,0.2-8.1-3.3-8.3-7.7C157.1,38.4,157.1,38.4,157.1,38.3z M168.7,38.3L168.7,38.3
		c0.1-1.9-1.4-3.4-3.2-3.5c0,0,0,0-0.1,0c-1.8,0-3.2,1.4-3.2,3.2c0,0.1,0,0.1,0,0.2v0.1c-0.1,1.8,1.3,3.3,3.2,3.4c0,0,0,0,0.1,0
		c1.8,0,3.2-1.4,3.2-3.2C168.7,38.4,168.7,38.4,168.7,38.3z"/>
	<path class="st0" d="M173.9,30.6h5.2l2,7.6l2.4-7.7h4.4l2.4,7.7l2-7.7h5.1l-4.7,15.3h-4.6l-2.4-7.9l-2.5,7.9h-4.5L173.9,30.6z"/>
	<path class="st0" d="M198.6,30.6h5.3v2.1c1-1.5,2.7-2.4,4.5-2.5c3.2,0,5.1,2.1,5.1,5.6v9.9h-5.3v-8.2c0-1.7-0.9-2.6-2.2-2.6
		s-2.2,0.9-2.2,2.6v8.2h-5.3L198.6,30.6z"/>
	<path class="st0" d="M25,70.9l2-3.2c1.5,1.1,3.3,1.7,5.2,1.7c0.9,0,1.4-0.3,1.4-0.8l0,0c0-0.6-0.9-0.9-2.5-1.3
		c-3-0.8-5.4-1.8-5.4-4.8l0,0c0-3.2,2.6-5,6.1-5c2.2,0,4.4,0.6,6.2,1.8l-1.8,3.4c-1.3-0.9-2.9-1.4-4.5-1.6c-0.8,0-1.2,0.3-1.2,0.8v0
		c0,0.6,0.9,0.9,2.5,1.3c3,0.8,5.4,1.9,5.4,4.8V68c0,3.3-2.5,5.1-6.2,5.1C29.6,73.1,27.1,72.3,25,70.9z"/>
	<path class="st0" d="M39.4,65.3L39.4,65.3c0.1-4.5,3.7-8.1,8.2-8c0.1,0,0.1,0,0.2,0c4.8,0,8.3,3.5,8.3,7.9l0,0
		c-0.1,4.5-3.8,8-8.2,7.9c-0.1,0-0.1,0-0.2,0c-4.4,0.2-8.1-3.3-8.3-7.7C39.4,65.4,39.4,65.3,39.4,65.3z M50.9,65.3L50.9,65.3
		c0.1-1.9-1.4-3.4-3.2-3.5c0,0,0,0-0.1,0c-1.8,0-3.2,1.4-3.2,3.2c0,0.1,0,0.1,0,0.2l0,0c-0.1,1.8,1.3,3.3,3.2,3.4c0,0,0,0,0.1,0
		c1.8,0,3.2-1.4,3.2-3.2C50.9,65.4,50.9,65.3,50.9,65.3z"/>
	<path class="st0" d="M58,57.6h5.3v2.1c1-1.5,2.7-2.4,4.5-2.4c1.8-0.1,3.5,0.9,4.4,2.5c1.2-1.6,3.1-2.5,5.1-2.5c3.2,0,5.2,2,5.2,5.5
		v9.9h-5.3v-8.2c0-1.7-0.8-2.5-2.1-2.5s-2.2,0.9-2.2,2.5v8.2h-5.3v-8.2c0-1.7-0.8-2.5-2.1-2.5s-2.2,0.9-2.2,2.5v8.2H58V57.6z"/>
	<path class="st0" d="M84.4,65.3L84.4,65.3c-0.2-4.2,3.1-7.8,7.3-8c0.1,0,0.3,0,0.4,0c5.2,0,7.6,3.8,7.6,8.3c0,0.3,0,0.7,0,1.1H89.5
		c0.3,1.5,1.7,2.6,3.3,2.5c1.3,0,2.5-0.6,3.4-1.5l2.9,2.4c-1.6,2-4,3.2-6.6,3.1C87.7,73.2,84.4,70,84.4,65.3z M94.7,64
		c-0.2-1.7-1.2-2.7-2.7-2.7s-2.3,1-2.6,2.7H94.7z"/>
	<path class="st0" d="M102.2,68.1v-6.2h-1.8v-4.3h1.8v-3.8h5.3v3.8h3.5v4.3h-3.5v5.2c0,1.1,0.5,1.5,1.4,1.5c0.7,0,1.4-0.2,2-0.5v4.1
		c-1.1,0.6-2.4,0.9-3.7,0.9C104.1,73.1,102.2,71.7,102.2,68.1z"/>
	<path class="st0" d="M113.3,52.3h5.3v7.4c1-1.5,2.7-2.4,4.5-2.4c3.2,0,5.2,2.1,5.2,5.6v9.9H123v-8.2c0-1.7-0.9-2.6-2.2-2.6
		s-2.2,0.9-2.2,2.6v8.2h-5.3L113.3,52.3z"/>
	<path class="st0" d="M130.8,52.3h5.5v3.9h-5.5V52.3z M130.9,57.6h5.3v15.2h-5.3V57.6z"/>
	<path class="st0" d="M138.9,57.6h5.3v2.1c1-1.5,2.7-2.4,4.5-2.5c3.2,0,5.1,2.1,5.1,5.6v9.9h-5.3v-8.2c0-1.7-0.9-2.6-2.2-2.6
		s-2.2,0.9-2.2,2.6v8.2h-5.3L138.9,57.6z"/>
	<path class="st0" d="M156.3,75.6l1.7-3.5c1.6,0.9,3.4,1.4,5.3,1.4c2.6,0,3.9-1.3,3.9-3.7v-0.6c-1.1,1.4-2.8,2.3-4.6,2.3
		c-3.7,0.1-6.7-2.8-6.8-6.5c0-0.2,0-0.3,0-0.5v-0.1c0-4.4,3.1-7,6.6-7c1.8-0.1,3.6,0.7,4.8,2.1v-1.8h5.3v11.4c0,2.8-0.6,4.7-2,6
		s-3.5,2.1-6.7,2.1C161.2,77.3,158.6,76.8,156.3,75.6z M167.3,64.4L167.3,64.4c0-1.8-1.4-3.2-3.1-3.2s-3.1,1.4-3.1,3.1l0,0v0.1
		c0.1,1.7,1.6,3,3.4,2.9C165.9,67.2,167.1,65.9,167.3,64.4z"/>
	<path class="st0" d="M25,97.8l2-3.2c1.5,1.1,3.3,1.7,5.2,1.7c0.9,0,1.4-0.3,1.4-0.8l0,0c0-0.6-0.9-0.9-2.5-1.3
		c-3-0.8-5.4-1.8-5.4-4.8v-0.1c0-3.2,2.6-5,6.1-5c2.2,0,4.4,0.6,6.2,1.8l-1.8,3.4c-1.4-0.9-2.9-1.4-4.5-1.5c-0.8,0-1.2,0.3-1.2,0.8
		v0.1c0,0.6,0.9,0.9,2.5,1.3c3,0.8,5.4,1.9,5.4,4.8l0,0c0,3.3-2.5,5.1-6.2,5.1C29.6,100.1,27.1,99.3,25,97.8z"/>
	<path class="st0" d="M40.3,84.6h5.3v2c1.1-1.5,2.8-2.4,4.6-2.3c3.6,0,6.7,3,6.7,7.8v0.1c0,4.9-3.1,7.9-6.7,7.9
		c-1.8,0-3.5-0.8-4.6-2.2v6.3h-5.3V84.6z M51.8,92.2L51.8,92.2c0.2-1.7-1-3.3-2.8-3.5c-1.7-0.2-3.3,1-3.5,2.8c0,0.2,0,0.5,0,0.7l0,0
		c-0.2,1.7,1,3.3,2.8,3.5c1.7,0.2,3.3-1,3.5-2.8C51.8,92.7,51.8,92.5,51.8,92.2z"/>
	<path class="st0" d="M58.4,92.3L58.4,92.3c-0.2-4.2,3.1-7.8,7.3-8c0.1,0,0.3,0,0.4,0c5.2,0,7.6,3.8,7.6,8.3c0,0.3,0,0.7,0,1.1H63.5
		c0.3,1.5,1.7,2.6,3.3,2.5c1.3,0,2.5-0.6,3.4-1.5l2.9,2.4c-1.6,2-4,3.2-6.6,3.1C61.7,100.2,58.4,97,58.4,92.3z M68.7,91
		c-0.2-1.7-1.2-2.7-2.7-2.7s-2.3,1-2.6,2.7H68.7z"/>
	<path class="st0" d="M74.8,92.3L74.8,92.3c0-4.4,3.5-7.9,7.8-8c0.1,0,0.2,0,0.3,0c2.6-0.1,5.1,1.2,6.5,3.4l-3.6,2.7
		c-0.6-1-1.7-1.6-2.8-1.6c-1.7,0.1-3.1,1.6-3,3.3c0,0,0,0,0,0.1l0,0c0,2,1.2,3.4,3,3.4c1.2,0,2.3-0.6,2.9-1.6l3.6,2.6
		c-1.5,2.3-4,3.6-6.7,3.5c-4.3,0.1-7.8-3.4-7.9-7.7C74.9,92.4,74.8,92.3,74.8,92.3z"/>
	<path class="st0" d="M90.9,79.3h5.5v3.9h-5.5V79.3z M91,84.6h5.3v15.1H91L91,84.6z"/>
	<path class="st0" d="M98.1,95.4L98.1,95.4c0-3.2,2.4-4.8,5.9-4.8c1.2,0,2.5,0.2,3.6,0.6V91c0-1.6-1-2.5-3-2.5
		c-1.4,0-2.9,0.3-4.2,0.8l-1.1-3.7c1.9-0.8,4-1.2,6.1-1.2c2.7,0,4.6,0.7,5.8,1.8c1.2,1.3,1.8,3.1,1.6,4.8v8.7h-5.2v-1.6
		c-1.1,1.3-2.8,2-4.5,1.9C100.3,100.1,98.1,98.4,98.1,95.4z M107.8,94.3v-0.7c-0.7-0.3-1.4-0.4-2.1-0.4c-1.5,0-2.4,0.7-2.4,1.9v0.1
		c0,0.9,0.8,1.7,1.7,1.7c0.1,0,0.1,0,0.2,0c1.3,0.1,2.5-0.9,2.7-2.2C107.7,94.5,107.8,94.4,107.8,94.3z"/>
	<path class="st0" d="M115.6,79.3h5.3v20.4h-5.3V79.3z"/>
	<path class="st0" d="M123.8,97.4c0-1.7,1.3-3,3-3c1.7,0,3,1.3,3,3s-1.3,3-3,3C125.1,100.4,123.8,99,123.8,97.4z"/>
</g>
</svg>
