<?xml version="1.0" encoding="utf-8"?>
<!-- Generator: Adobe Illustrator 24.2.1, SVG Export Plug-In . SVG Version: 6.00 Build 0)  -->
<svg version="1.1" id="Layer_1" xmlns="http://www.w3.org/2000/svg" xmlns:xlink="http://www.w3.org/1999/xlink" x="0px" y="0px"
	 viewBox="0 0 300 250" style="enable-background:new 0 0 300 250;" xml:space="preserve">
<style type="text/css">
	.st0{clip-path:url(#SVGID_2_);}
	.st1{fill:#FFFFFF;}
</style>
<g>
	<defs>
		<rect id="SVGID_1_" width="300" height="250"/>
	</defs>
	<clipPath id="SVGID_2_">
		<use xlink:href="#SVGID_1_"  style="overflow:visible;"/>
	</clipPath>
	<g class="st0">
		<path class="st1" d="M29.5,92l-4.8-7.9h4l2.6,4.6l2.6-4.6h3.9L33,91.9v4.8h-3.5V92z"/>
		<path class="st1" d="M36.6,91.9L36.6,91.9c0-2.9,2.4-5.2,5.2-5.1c0.1,0,0.1,0,0.2,0c2.8-0.1,5.2,2.1,5.4,4.9c0,0.1,0,0.1,0,0.2
			l0,0c-0.1,2.9-2.4,5.1-5.3,5.1c0,0-0.1,0-0.1,0c-2.8,0.1-5.2-2-5.4-4.9C36.6,92,36.6,91.9,36.6,91.9z M44,91.9L44,91.9
			c0-1.2-0.9-2.2-2.1-2.2c0,0,0,0,0,0c-1.1,0-2,1-2,2.1c0,0,0,0.1,0,0.1l0,0c0,1.2,0.9,2.1,2.1,2.2C43.1,94,44,93,44,91.9
			C44,91.9,44,91.9,44,91.9L44,91.9z"/>
		<path class="st1" d="M48.5,93.3V87h3.4v5.3c0,1.1,0.6,1.6,1.4,1.6c0.8,0,1.4-0.6,1.5-1.4c0-0.1,0-0.1,0-0.2V87h3.4v9.7h-3.4v-1.3
			c-0.7,1-1.7,1.6-2.9,1.6C49.7,96.9,48.5,95.5,48.5,93.3z"/>
		<path class="st1" d="M59.8,87h3.4v2c0.4-1.3,1.7-2.2,3.1-2.1v3.6H66c-1.8,0-2.8,1-2.8,3.3v3h-3.4V87z"/>
		<path class="st1" d="M71.7,87h3.4v1.3c0.7-1,1.8-1.5,3-1.5c2.3,0,4.3,1.9,4.3,5.1l0,0c0,3.2-2,5.1-4.3,5.1c-1.2,0-2.3-0.5-3-1.4
			v4.1h-3.4V87z M79.1,91.9L79.1,91.9c0-1.1-0.9-2-2-2s-2,0.9-2,2l0,0c0,1.1,0.9,2,2,2S79.1,93,79.1,91.9z"/>
		<path class="st1" d="M83.8,83.6h3.4v13.1h-3.4V83.6z"/>
		<path class="st1" d="M88.4,93.9L88.4,93.9c0-2,1.5-3.1,3.8-3.1c0.8,0,1.6,0.1,2.3,0.4V91c0-1-0.6-1.6-2-1.6
			c-0.9,0-1.8,0.2-2.7,0.5l-0.7-2.4c1.2-0.5,2.6-0.8,3.9-0.8c1.4-0.1,2.7,0.3,3.8,1.2c0.8,0.8,1.1,2,1,3.1v5.6h-3.3v-1
			c-0.7,0.8-1.8,1.3-2.9,1.2c-1.7,0.1-3.1-1.1-3.2-2.7C88.4,94.1,88.4,94,88.4,93.9z M94.6,93.2v-0.4c-0.4-0.2-0.9-0.2-1.3-0.2
			c-1,0-1.6,0.5-1.6,1.2l0,0c0,0.6,0.5,1.1,1.1,1.1c0,0,0.1,0,0.1,0c0.9,0.1,1.6-0.6,1.7-1.4C94.5,93.3,94.6,93.2,94.6,93.2z"/>
		<path class="st1" d="M99,91.9L99,91.9c0-2.8,2.2-5,4.9-5.1c0.1,0,0.2,0,0.3,0c1.7-0.1,3.3,0.7,4.2,2.2l-2.4,1.7
			c-0.4-0.6-1.1-1-1.8-1c-1.1,0-2,1-1.9,2.1c0,0,0,0.1,0,0.1l0,0c-0.1,1.1,0.7,2.1,1.8,2.2c0.1,0,0.1,0,0.2,0c0.8,0,1.5-0.4,1.9-1
			l2.3,1.7c-0.9,1.5-2.6,2.3-4.3,2.2C101.3,96.9,99,94.7,99,91.9C99,91.9,99,91.9,99,91.9z"/>
		<path class="st1" d="M108.7,91.9L108.7,91.9c-0.1-2.7,2-5,4.7-5.1c0.1,0,0.2,0,0.3,0c3.3,0,4.9,2.5,4.9,5.3c0,0.2,0,0.5,0,0.7H112
			c0.2,1,1.1,1.7,2.1,1.6c0.8,0,1.6-0.4,2.2-1l1.8,1.6c-1,1.3-2.6,2.1-4.2,2c-2.7,0.2-5-1.9-5.2-4.6
			C108.7,92.2,108.7,92.1,108.7,91.9z M115.3,91c0-1-0.8-1.7-1.7-1.8c-0.9,0-1.5,0.7-1.7,1.8H115.3z"/>
		<path class="st1" d="M124.9,93.7v-4h-1.2V87h1.2v-2.5h3.4V87h2.3v2.7h-2.3V93c0,0.7,0.3,1,0.9,1c0.5,0,0.9-0.1,1.3-0.3v2.7
			c-0.7,0.4-1.6,0.6-2.4,0.6C126.1,96.9,124.9,96,124.9,93.7z"/>
		<path class="st1" d="M131.2,91.9L131.2,91.9c0.1-3,2.6-5.3,5.6-5.1c2.8,0.1,5,2.4,5.1,5.1l0,0c-0.1,2.9-2.4,5.1-5.3,5.1
			c0,0-0.1,0-0.1,0c-2.8,0.1-5.2-2.1-5.3-4.9C131.3,92,131.3,91.9,131.2,91.9z M138.7,91.9L138.7,91.9c0-1.2-0.9-2.2-2.1-2.2
			c0,0,0,0,0,0c-1.1,0-2,1-2,2.1c0,0,0,0.1,0,0.1l0,0c0,1.2,0.9,2.2,2,2.2c0,0,0,0,0,0C137.8,94,138.7,93.1,138.7,91.9
			C138.7,91.9,138.7,91.9,138.7,91.9z"/>
		<path class="st1" d="M147.7,98.5l1.1-2.3c1,0.6,2.2,0.9,3.4,0.9c1.7,0,2.5-0.8,2.5-2.4v-0.4c-0.7,0.9-1.8,1.5-3,1.5
			c-2.4,0-4.3-1.8-4.3-4.2c0-0.1,0-0.2,0-0.3l0,0c-0.2-2.3,1.6-4.4,4-4.5c0.1,0,0.2,0,0.2,0c1.2,0,2.3,0.5,3.1,1.4V87h3.4v7.4
			c0.1,1.4-0.3,2.8-1.3,3.9c-0.9,0.9-2.2,1.4-4.3,1.4C150.8,99.7,149.2,99.3,147.7,98.5z M154.7,91.3L154.7,91.3c0-1.1-0.9-2-2-2
			s-2,0.9-2,2l0,0c0,1.1,0.9,2,2,2S154.7,92.4,154.7,91.3z"/>
		<path class="st1" d="M159.7,87h3.4v2c0.4-1.3,1.7-2.2,3.1-2.1v3.6H166c-1.8,0-2.8,1-2.8,3.3v3h-3.4L159.7,87z"/>
		<path class="st1" d="M166.7,91.9L166.7,91.9c0.1-3,2.6-5.3,5.6-5.1c2.8,0.1,5,2.4,5.1,5.1l0,0c-0.1,2.9-2.4,5.1-5.3,5.1
			c0,0-0.1,0-0.1,0c-2.8,0.1-5.2-2.1-5.3-4.9C166.7,92,166.7,91.9,166.7,91.9z M174.2,91.9L174.2,91.9c0-1.2-0.9-2.2-2.1-2.2
			c0,0,0,0,0,0c-1.1,0-2,1-2,2.1c0,0,0,0.1,0,0.1l0,0c0,1.2,0.9,2.2,2,2.2c0,0,0,0,0,0C173.3,94,174.2,93.1,174.2,91.9
			C174.2,91.9,174.2,91.9,174.2,91.9L174.2,91.9z"/>
		<path class="st1" d="M177.5,87h3.3l1.3,4.9l1.5-4.9h2.8l1.5,5l1.3-5h3.3l-3,9.8h-3l-1.5-5.1l-1.6,5.1h-2.9L177.5,87z"/>
		<path class="st1" d="M32.3,105.9h3.5l-3.6,9.5c-0.9,2.3-1.8,3.2-3.7,3.2c-1.1,0-2.2-0.3-3.1-0.8l1-2.4c0.4,0.3,1,0.5,1.5,0.5
			c0.3,0,0.6-0.1,0.8-0.4l-3.8-9.6h3.6l1.9,5.9L32.3,105.9z"/>
		<path class="st1" d="M35.7,110.8L35.7,110.8c0-2.9,2.4-5.1,5.3-5.1c0,0,0.1,0,0.1,0c2.8-0.1,5.2,2.1,5.4,4.9c0,0.1,0,0.1,0,0.2
			l0,0c-0.1,2.9-2.4,5.1-5.3,5.1c0,0-0.1,0-0.1,0c-2.8,0.1-5.2-2.1-5.3-4.9C35.7,110.9,35.7,110.8,35.7,110.8z M43.1,110.8
			L43.1,110.8c0.1-1.2-0.8-2.2-2-2.2c0,0-0.1,0-0.1,0c-1.1,0-2,1-2,2.1c0,0,0,0.1,0,0.1l0,0c0,1.2,0.9,2.1,2,2.2c0,0,0,0,0,0
			C42.2,112.9,43.1,112,43.1,110.8C43.1,110.8,43.1,110.8,43.1,110.8z"/>
		<path class="st1" d="M47.6,112.2v-6.3H51v5.3c0,1.1,0.6,1.6,1.4,1.6c0.8,0,1.4-0.6,1.5-1.4c0-0.1,0-0.1,0-0.2v-5.3h3.4v9.7h-3.4
			v-1.3c-0.7,1-1.7,1.6-2.9,1.6C48.8,115.8,47.6,114.4,47.6,112.2z"/>
		<path class="st1" d="M58.9,105.9h3.4v2c0.4-1.3,1.7-2.2,3.1-2.1v3.6h-0.3c-1.8,0-2.8,1-2.8,3.3v3h-3.4V105.9z"/>
		<path class="st1" d="M70.5,110.8L70.5,110.8c-0.1-2.7,2-5,4.7-5.1c0.1,0,0.2,0,0.2,0c3.3,0,4.9,2.5,4.9,5.3c0,0.2,0,0.5,0,0.7
			h-6.5c0.2,1,1.1,1.7,2.1,1.6c0.8,0,1.6-0.4,2.2-1l1.9,1.6c-1,1.3-2.6,2.1-4.2,2c-2.7,0.2-5-1.9-5.2-4.6
			C70.5,111.1,70.5,110.9,70.5,110.8z M77.1,109.9c0-1-0.8-1.7-1.7-1.8c-0.9,0-1.5,0.7-1.7,1.8H77.1z"/>
		<path class="st1" d="M85.5,108.3l1.5-2.4h3.6l-3.2,4.8l3.3,4.9h-3.7l-1.5-2.5l-1.5,2.5h-3.6l3.3-4.9l-3.2-4.8H84L85.5,108.3z"/>
		<path class="st1" d="M91.3,105.9h3.4v1.3c0.7-1,1.8-1.5,3-1.5c2.3,0,4.3,1.9,4.3,5l0,0c0,3.2-2,5.1-4.3,5.1c-1.2,0-2.3-0.5-3-1.4
			v4.1h-3.4V105.9z M98.6,110.7L98.6,110.7c0-1.1-0.9-2-2-2s-2,0.9-2,2l0,0c0,1.1,0.9,2,2,2S98.6,111.8,98.6,110.7z"/>
		<path class="st1" d="M102.8,110.8L102.8,110.8c0.1-3,2.6-5.3,5.6-5.1c2.8,0.1,5,2.4,5.1,5.1l0,0c-0.1,3-2.6,5.3-5.6,5.1
			C105.1,115.8,102.9,113.6,102.8,110.8z M110.2,110.8L110.2,110.8c0-1.2-0.9-2.2-2-2.2c0,0,0,0-0.1,0c-1.1,0-2,0.9-2,2
			c0,0.1,0,0.1,0,0.2l0,0c0,1.2,0.8,2.1,2,2.2c0,0,0,0,0.1,0C109.3,112.9,110.2,112,110.2,110.8
			C110.2,110.8,110.2,110.8,110.2,110.8z"/>
		<path class="st1" d="M114.7,105.9h3.4v2c0.4-1.3,1.7-2.2,3.1-2.1v3.6h-0.3c-1.8,0-2.8,1-2.8,3.3v3h-3.4V105.9z"/>
		<path class="st1" d="M123.4,112.6v-4h-1.2v-2.7h1.2v-2.5h3.4v2.5h2.3v2.7h-2.3v3.3c0,0.7,0.3,1,0.9,1c0.5,0,0.9-0.1,1.3-0.3v2.7
			c-0.7,0.4-1.6,0.6-2.4,0.6C124.6,115.8,123.4,114.9,123.4,112.6z"/>
		<path class="st1" d="M134.8,102.5h3.4v6.7l2.6-3.3h3.9l-3.4,3.9l3.5,5.8h-3.8l-1.9-3.3l-0.9,1v2.3h-3.4L134.8,102.5z"/>
		<path class="st1" d="M145.4,105.9h3.4v1.4c0.7-1,1.7-1.6,2.9-1.6c2.1,0,3.3,1.4,3.3,3.6v6.4h-3.4v-5.3c0-1.1-0.6-1.7-1.4-1.7
			s-1.4,0.6-1.4,1.7v5.3h-3.4V105.9z"/>
		<path class="st1" d="M156.2,110.8L156.2,110.8c0.1-3,2.6-5.3,5.6-5.1c2.8,0.1,5,2.4,5.1,5.1l0,0c-0.1,2.9-2.4,5.1-5.3,5.1
			c0,0-0.1,0-0.1,0c-2.8,0.1-5.2-2.1-5.3-4.9C156.2,110.9,156.2,110.8,156.2,110.8z M163.6,110.8L163.6,110.8c0-1.2-0.9-2.2-2.1-2.2
			c0,0,0,0,0,0c-1.1,0-2,1-2,2.1c0,0,0,0.1,0,0.1l0,0c0,1.2,0.9,2.1,2,2.2c0,0,0,0,0,0C162.7,112.9,163.6,112,163.6,110.8
			C163.6,110.8,163.6,110.8,163.6,110.8z"/>
		<path class="st1" d="M167,105.9h3.3l1.3,4.9l1.5-4.9h2.8l1.5,5l1.3-4.9h3.2l-3,9.8h-3l-1.6-5.1l-1.6,5.1h-2.9L167,105.9z"/>
		<path class="st1" d="M182.8,102.5h3.4v13.1h-3.4V102.5z"/>
		<path class="st1" d="M187.4,110.8L187.4,110.8c-0.1-2.7,2-5,4.7-5.1c0.1,0,0.2,0,0.3,0c3.4,0,4.9,2.5,4.9,5.3c0,0.2,0,0.5,0,0.7
			h-6.5c0.2,1,1.1,1.7,2.1,1.6c0.8,0,1.6-0.4,2.2-1l1.9,1.6c-1,1.3-2.6,2.1-4.2,2c-2.7,0.2-5-1.9-5.2-4.6
			C187.4,111.1,187.4,110.9,187.4,110.8z M194.1,109.9c0-1-0.8-1.7-1.7-1.8c-0.9,0-1.5,0.7-1.7,1.8H194.1z"/>
		<path class="st1" d="M198.1,110.8L198.1,110.8c0-3.2,2-5.1,4.3-5.1c1.2,0,2.3,0.5,3,1.4v-4.6h3.4v13.1h-3.4v-1.3
			c-0.7,1-1.8,1.5-2.9,1.5C200.1,115.8,198.1,113.9,198.1,110.8z M205.4,110.8L205.4,110.8c0-1.1-0.9-2-2-2s-2,0.9-2,2l0,0
			c0,1.1,0.9,2,2,2S205.4,111.9,205.4,110.8z"/>
		<path class="st1" d="M210.3,117.4l1.1-2.3c1,0.6,2.2,0.9,3.4,0.9c1.7,0,2.5-0.8,2.5-2.4v-0.4c-0.7,0.9-1.8,1.5-3,1.5
			c-2.4,0-4.3-1.8-4.3-4.2c0-0.1,0-0.2,0-0.3l0,0c-0.2-2.3,1.6-4.4,4-4.5c0.1,0,0.2,0,0.2,0c1.2,0,2.3,0.5,3.1,1.4v-1.2h3.4v7.4
			c0.1,1.4-0.3,2.8-1.3,3.9c-1.2,1-2.7,1.5-4.3,1.4C213.4,118.6,211.8,118.2,210.3,117.4z M217.3,110.2L217.3,110.2c0-1.1-0.9-2-2-2
			s-2,0.9-2,2l0,0c0,1.1,0.9,2,2,2S217.3,111.3,217.3,110.2z"/>
		<path class="st1" d="M221.9,110.8L221.9,110.8c-0.1-2.7,2-5,4.7-5.1c0.1,0,0.2,0,0.3,0c3.4,0,4.9,2.5,4.9,5.3c0,0.2,0,0.5,0,0.7
			h-6.5c0.2,1,1.1,1.7,2.1,1.6c0.8,0,1.6-0.4,2.2-1l1.9,1.6c-1,1.3-2.6,2.1-4.2,2c-2.7,0.2-5-1.9-5.2-4.6
			C221.9,111.1,221.9,110.9,221.9,110.8z M228.5,109.9c0-1-0.8-1.7-1.7-1.8c-0.9,0-1.5,0.7-1.7,1.8H228.5z"/>
		<path class="st1" d="M232.9,113.9c0-1.2,1-2.2,2.2-2.2c1.2,0,2.2,1,2.2,2.2c0,1.2-1,2.2-2.2,2.2c-0.6,0-1.1-0.2-1.5-0.6
			C233.1,115,232.9,114.5,232.9,113.9z"/>
		<path class="st1" d="M25.9,121.9h6c1.5-0.1,3,0.4,4.1,1.3c0.7,0.8,1.1,1.9,1,2.9l0,0c0.1,1.7-1,3.3-2.6,3.9l3,4.4h-4l-2.5-3.8
			h-1.5v3.8h-3.5V121.9z M31.7,127.9c1.2,0,1.9-0.6,1.9-1.5l0,0c0-1-0.7-1.5-1.9-1.5h-2.3v3L31.7,127.9z"/>
		<path class="st1" d="M37.6,131.7L37.6,131.7c0-2,1.5-3.1,3.8-3.1c0.8,0,1.6,0.1,2.3,0.4v-0.2c0-1-0.6-1.6-1.9-1.6
			c-0.9,0-1.8,0.2-2.7,0.5l-0.7-2.4c1.2-0.5,2.6-0.8,3.9-0.8c1.3-0.1,2.7,0.3,3.7,1.2c0.8,0.8,1.1,2,1,3.1v5.6h-3.3v-1
			c-0.7,0.8-1.8,1.3-2.9,1.2c-1.7,0.1-3.1-1.1-3.2-2.7C37.6,131.9,37.6,131.8,37.6,131.7z M43.8,131v-0.4c-0.4-0.2-0.9-0.2-1.3-0.2
			c-1,0-1.6,0.5-1.6,1.2l0,0c0,0.6,0.5,1.1,1.1,1.1c0,0,0.1,0,0.1,0c0.9,0.1,1.6-0.6,1.7-1.4C43.8,131.1,43.8,131,43.8,131L43.8,131
			z"/>
		<path class="st1" d="M48.6,124.8H52v1.3c0.7-1,1.8-1.5,3-1.5c2.3,0,4.3,1.9,4.3,5l0,0c0,3.2-2,5.1-4.3,5.1c-1.2,0-2.3-0.5-3-1.4
			v4.1h-3.5V124.8z M55.9,129.6L55.9,129.6c0-1.1-0.9-2-2-2s-2,0.9-2,2l0,0c0,1.1,0.9,2,2,2S55.9,130.7,55.9,129.6z"/>
		<path class="st1" d="M60.3,131.1v-6.4h3.4v5.2c0,1.1,0.6,1.6,1.4,1.6c0.8,0,1.4-0.6,1.5-1.4c0-0.1,0-0.2,0-0.2v-5.3h3.4v9.7h-3.4
			v-1.4c-0.7,1-1.7,1.6-2.9,1.6C61.5,134.7,60.3,133.3,60.3,131.1z"/>
		<path class="st1" d="M71,136.2c1.2-0.1,1.8-0.7,1.8-1.7h-1.3V131H75v2.9c0,2.7-1.5,3.6-3.7,3.6L71,136.2z"/>
		<path class="st1" d="M85.2,121.8h3.4l5.4,12.7h-3.7l-0.9-2.3h-4.9l-0.9,2.3h-3.7L85.2,121.8z M88.2,129.5l-1.4-3.5l-1.4,3.6
			L88.2,129.5z"/>
		<path class="st1" d="M94.4,121.4h3.4v6.6l2.6-3.3h3.9l-3.4,3.9l3.5,5.9h-3.8l-1.9-3.3l-0.9,1v2.3h-3.4V121.4z"/>
		<path class="st1" d="M104,129.7L104,129.7c0.1-3,2.6-5.3,5.6-5.1c2.8,0.1,5,2.4,5.1,5.1l0,0c-0.1,2.9-2.4,5.1-5.3,5.1
			c0,0-0.1,0-0.1,0c-2.8,0.1-5.2-2.1-5.3-4.9C104,129.8,104,129.7,104,129.7z M111.4,129.7L111.4,129.7c0.1-1.2-0.9-2.2-2-2.2
			c0,0,0,0,0,0c-1.1,0-2,0.9-2,2c0,0.1,0,0.1,0,0.2l0,0c0,1.2,0.9,2.1,2,2.2c0,0,0,0,0,0c1.1,0,2.1-0.9,2.1-2
			C111.5,129.7,111.5,129.7,111.4,129.7L111.4,129.7z"/>
		<path class="st1" d="M115.1,136.2c1.2-0.1,1.8-0.7,1.8-1.7h-1.4V131h3.6v2.9c0,2.7-1.5,3.6-3.7,3.6L115.1,136.2z"/>
		<path class="st1" d="M128,125h-3.8v-3.1h11v3.1h-3.8v9.5H128V125z"/>
		<path class="st1" d="M136,131.1v-6.4h3.4v5.2c0,1.1,0.6,1.6,1.4,1.6c0.8,0,1.4-0.6,1.5-1.4c0-0.1,0-0.2,0-0.2v-5.3h3.4v9.7h-3.4
			v-1.4c-0.7,1-1.7,1.5-2.9,1.6C137.3,134.7,136,133.3,136,131.1z M137.4,121.7h6.8v2.1h-6.8V121.7z"/>
		<path class="st1" d="M147.2,121.4h3.4v4.7c0.7-1,1.8-1.5,2.9-1.6c2.1,0,3.3,1.4,3.3,3.6v6.4h-3.4v-5.3c0-1.1-0.6-1.7-1.4-1.7
			s-1.4,0.6-1.4,1.7v5.3h-3.4V121.4z"/>
		<path class="st1" d="M157.8,129.7L157.8,129.7c0-2.9,2.4-5.2,5.3-5.1c0,0,0.1,0,0.1,0c2.8-0.1,5.2,2.1,5.4,4.9c0,0,0,0.1,0,0.1
			l0,0c-0.1,2.9-2.4,5.1-5.3,5.1c0,0-0.1,0-0.1,0c-2.8,0.1-5.2-2.1-5.3-4.9C157.8,129.8,157.8,129.7,157.8,129.7z M165.3,129.7
			L165.3,129.7c0-1.2-0.9-2.2-2-2.2c0,0,0,0-0.1,0c-1.1,0-2,1-2,2.1c0,0,0,0.1,0,0.1l0,0c0,1.2,0.9,2.1,2,2.2c0,0,0,0,0.1,0
			C164.4,131.8,165.3,130.9,165.3,129.7C165.3,129.7,165.3,129.7,165.3,129.7L165.3,129.7z"/>
		<path class="st1" d="M169.6,124.8h3.4v1.4c0.7-1,1.7-1.6,2.9-1.6c2.1,0,3.3,1.4,3.3,3.6v6.4h-3.4v-5.3c0-1.1-0.6-1.7-1.4-1.7
			s-1.4,0.6-1.4,1.7v5.3h-3.4V124.8z"/>
		<path class="st1" d="M180.2,129.7L180.2,129.7c0.1-3,2.6-5.3,5.6-5.1c2.8,0.1,5,2.4,5.1,5.1l0,0c-0.1,2.9-2.4,5.1-5.3,5.1
			c0,0-0.1,0-0.1,0c-2.8,0.1-5.2-2.1-5.3-4.9C180.2,129.8,180.2,129.7,180.2,129.7z M187.6,129.7L187.6,129.7c0-1.2-0.9-2.2-2-2.2
			c0,0,0,0-0.1,0c-1.1,0-2,0.9-2,2c0,0.1,0,0.1,0,0.2l0,0c0,1.2,0.8,2.1,2,2.2c0,0,0,0,0.1,0C186.7,131.8,187.6,130.9,187.6,129.7
			C187.6,129.7,187.6,129.7,187.6,129.7L187.6,129.7z"/>
		<path class="st1" d="M191.9,132.8c0-0.6,0.2-1.1,0.6-1.5c0.8-0.8,2.2-0.8,3,0c0.4,0.4,0.6,0.9,0.6,1.5c0,1.2-1,2.1-2.1,2.1
			C192.8,134.9,191.8,134,191.9,132.8L191.9,132.8z"/>
	</g>
</g>
</svg>
