<?xml version="1.0" encoding="utf-8"?>
<!-- Generator: Adobe Illustrator 24.2.0, SVG Export Plug-In . SVG Version: 6.00 Build 0)  -->
<svg version="1.1" id="Layer_1" xmlns="http://www.w3.org/2000/svg" xmlns:xlink="http://www.w3.org/1999/xlink" x="0px" y="0px"
	 viewBox="0 0 300 250" style="enable-background:new 0 0 300 250;" xml:space="preserve">
<style type="text/css">
	.st0{clip-path:url(#SVGID_2_);}
	.st1{clip-path:url(#SVGID_4_);}
	.st2{fill:#FFFFFF;}
</style>
<g>
	<defs>
		<rect id="SVGID_1_" y="0" width="300" height="250"/>
	</defs>
	<clipPath id="SVGID_2_">
		<use xlink:href="#SVGID_1_"  style="overflow:visible;"/>
	</clipPath>
	<g class="st0">
		<g>
			<defs>
				<rect id="SVGID_3_" x="24.7" y="187.6" width="115.1" height="38.2"/>
			</defs>
			<clipPath id="SVGID_4_">
				<use xlink:href="#SVGID_3_"  style="overflow:visible;"/>
			</clipPath>
			<g class="st1">
				<path class="st2" d="M30.3,210.9c0.1-0.1,1.4,5.3,8.9,4.4c-1.5-3.5-6-5.8-7.1-5.9c0.2-0.1,1.5-1.1,1.7-1.3c-0.3,1,4,4.9,7.3,3.8
					c-0.9-2.7-4.5-5-5.5-5c0.4-0.2,0.8-0.5,1.2-0.7c-0.2,0.5,2.9,3.6,6.3,3.4c0-1.6-3.6-4.6-4.3-4.4l1-0.6c0.5,1.1,3.6,3.5,5.7,3.1
					c-1.8-3.7-4-3.9-4-3.9c0.6-0.3,0.9-0.5,1-0.5c0,1,3.1,3.2,5.2,2.7c-0.5-1.8-2-3.1-3.8-3.4l1.1-0.5c-0.2,0.3,2.4,2.5,4.9,2.3
					c-1.2-2.9-2.8-2.9-3.4-3c0.3-0.1,0.7-0.4,1-0.5c0.1,0.4,1.5,2.3,4.7,1.8c-0.6-1.3-1.9-2.3-3.4-2.4c0.5-0.3,0.8-0.4,1.1-0.6
					c0.2,0.3,1,2,4.3,1.4c-0.5-1.2-1.5-2-2.8-2.2l0.8-0.5c1,1,2.4,1.4,3.7,1.1c-0.5-1-1.6-1.7-2.8-1.6c0.5-0.3,1-0.7,1-0.7
					c0.2,0.4,1.2,1.3,3.4,0.7c-0.6-0.9-1.6-1.4-2.6-1.2c0.5-0.3,0.6-0.5,0.9-0.7c0.7,0.9,2,1.1,2.9,0.5c-0.4-0.8-1.3-1.2-2.2-1.1
					c0.2-0.2,0.5-0.4,0.7-0.6c-0.1,0.2,1.4,1,2.6,0c-0.5-0.5-1.3-0.8-2-0.7c0.1-0.2,0.2-0.2,0.4-0.4c0.7,0.5,1.6,0.4,2.2-0.2
					c-0.6-0.4-1.3-0.5-1.9-0.2l0.4-0.6c0.6,0.4,1.4,0.3,1.8-0.4c-0.5-0.3-1-0.3-1.6-0.1c0,0,0.1-0.3,0.2-0.4c2.3,0.3,1.5-2.4,1-3.9
					c-8.6,13.1-20,3.8-34,12.1c-0.6,1.7-0.9,3.5-0.7,5.3c0,0.2,0,0.3,0.1,0.7c0.1,0.8,0.3,1.5,0.5,2.3c0.3,0.8,0.6,1.4,0.9,2.2
					l0.6-0.5c-0.6-0.9-2.7-6.3-0.1-9.4c2.5,0,2.8,7.1,2.3,7.8c0,0,1.2-0.8,1.6-1c-0.5-0.2-2.4-6.4,0.7-8.9c0,0,2.8,1.1,1.6,7.6
					c0.5-0.3,1.1-0.6,1.8-0.9c-0.3-0.6-2.3-5.3,0.8-7.7c1.7,0.7,1.6,5.8,0.9,6.9c0.5-0.2,1.1-0.5,1.6-0.8c-1-0.4-0.9-5.2,0.7-6.5
					c1.8,1.7,1.4,4.6,0.9,5.8l1.4-0.6c-1.1-2-0.6-4.5,0.6-5.5c0.9,0.6,1.1,2.2,0.7,4.9c0.4-0.2,0.6-0.3,1-0.4
					c-0.2-0.4-0.8-3.2,0.7-4.7c1.4,0.7,0.9,3.8,0.8,4.1c0,0,0.8-0.3,0.8-0.4c-0.3-0.6-0.5-2.9,0.8-4c0.5,0.4,1.1,1.4,0.6,3.4
					c0.3-0.1,0.6-0.3,0.9-0.4c-0.4-0.5-0.1-2.5,0.5-3.3c0.8,0.6,1.1,1.7,0.9,2.7l0.8-0.4c-0.3-0.4-0.3-2.3,0.4-2.8
					c0.8,0.5,0.7,1.9,0.7,2.2c0.2-0.1,0.9-0.5,0.8-0.5c-0.6-0.7-0.4-1.8,0.3-2.4c0.8,0.2,0.8,1.7,0.7,1.8c0.3-0.2,0.8-0.6,1-0.7
					c-0.7-0.2-0.6-1.3-0.2-1.9c0.5,0.1,0.8,0.4,1,1.2c0.2-0.2,0.6-0.5,0.8-0.7c-0.5-0.2-0.7-0.8-0.5-1.3c0-0.1,0.1-0.2,0.2-0.3
					c0.5,0.1,0.8,0.5,0.9,1c0.2-0.2,0.3-0.4,0.5-0.6c-0.4-0.3-0.6-0.9-0.3-1.4c0.4,0,0.8,0.5,0.8,0.8l0.4-0.6
					c-0.2-0.2-0.7-0.7-0.3-1.2c0.5,0,0.6,0.4,0.7,0.7c-4.7,9.3-23.8,10.9-33.8,22.1c0,0-1,1.1-1,1.6v3.8H25
					C26.1,215.6,27.9,213,30.3,210.9"/>
				<path class="st2" d="M66.6,187.8c-1.1,0-1.9,0.9-1.8,2s0.9,1.9,2,1.8c1,0,1.9-0.9,1.8-2C68.6,188.6,67.7,187.8,66.6,187.8
					C66.6,187.8,66.6,187.8,66.6,187.8 M68.4,189.7c0,0.9-0.8,1.7-1.7,1.7c-0.9,0-1.7-0.8-1.7-1.7c0-0.9,0.7-1.7,1.6-1.7
					C67.6,188,68.3,188.7,68.4,189.7C68.4,189.6,68.4,189.6,68.4,189.7"/>
				<polygon class="st2" points="66.4,189.3 66.4,189.1 65.4,189.1 65.4,189.3 65.8,189.3 65.8,190.5 66,190.5 66,189.3 				"/>
				<polygon class="st2" points="67.8,190.5 67.8,189.1 67.6,189.1 67.2,189.9 66.7,189.1 66.5,189.1 66.5,190.5 66.7,190.5 
					66.7,189.6 67,190.2 67.3,190.2 67.6,189.6 67.6,190.5 				"/>
				<polygon class="st2" points="63.2,220.1 61.8,220.1 61.8,224.4 60.8,224.4 60.8,220.1 59.4,220.1 59.4,219.1 63.2,219.1 				"/>
				<path class="st2" d="M66.3,222.8h-2.4c0,0.2,0.1,0.5,0.2,0.6c0.2,0.2,0.4,0.2,0.6,0.2c0.3,0,0.6-0.1,0.9-0.4l0.6,0.6
					c-0.2,0.2-0.4,0.3-0.6,0.4c-0.3,0.1-0.6,0.2-0.8,0.2c-1.2,0-1.8-0.7-1.8-2c0-0.5,0.1-1,0.5-1.5c0.3-0.3,0.8-0.5,1.2-0.5
					c0.5,0,0.9,0.2,1.2,0.5c0.3,0.4,0.5,0.8,0.4,1.3V222.8z M65.4,222.1c0-0.1,0-0.3-0.1-0.4c-0.1-0.3-0.4-0.4-0.6-0.4
					c-0.3,0-0.5,0.1-0.6,0.4c-0.1,0.1-0.1,0.3-0.1,0.4H65.4z"/>
				<polygon class="st2" points="72.2,220.1 70.8,220.1 70.8,224.4 69.8,224.4 69.8,220.1 68.4,220.1 68.4,219.1 72.2,219.1 				"/>
				<path class="st2" d="M75.4,224.4h-0.9v-0.3c-0.3,0.3-0.6,0.4-0.9,0.4c-0.4,0-0.7-0.1-1-0.3c-0.2-0.2-0.3-0.5-0.3-0.9
					c0-0.3,0.1-0.6,0.3-0.8c0.3-0.2,0.6-0.3,1-0.3h0.9v-0.2c0-0.4-0.2-0.6-0.7-0.6c-0.3,0-0.6,0.1-0.7,0.3l-0.6-0.6
					c0.2-0.2,0.4-0.3,0.6-0.4c0.3-0.1,0.5-0.1,0.8-0.1c1.1,0,1.6,0.4,1.6,1.4V224.4z M74.4,223v-0.2h-0.8c-0.3,0-0.5,0.1-0.5,0.4
					s0.2,0.4,0.6,0.4c0.2,0,0.5-0.1,0.7-0.2C74.4,223.3,74.4,223.1,74.4,223"/>
				<path class="st2" d="M79.5,224.4h-0.9V224c-0.3,0.3-0.6,0.4-1,0.4c-0.3,0-0.7-0.1-0.9-0.3c-0.3-0.3-0.4-0.7-0.4-1.1v-2.4h1v2.3
					c0,0.2,0.1,0.4,0.2,0.6c0.1,0.1,0.3,0.2,0.4,0.1c0.2,0,0.3,0,0.4-0.1c0.1-0.1,0.2-0.3,0.2-0.6v-2.3h1L79.5,224.4z"/>
				<path class="st2" d="M83.2,220.9l-0.7,0.7c-0.1-0.1-0.3-0.2-0.5-0.2c-0.2,0-0.3,0.1-0.4,0.2c-0.1,0.1-0.2,0.3-0.2,0.5v2.3h-1
					v-3.8h0.9v0.4c0.2-0.3,0.6-0.4,1-0.4C82.7,220.5,83,220.6,83.2,220.9"/>
				<path class="st2" d="M86.6,224.4h-0.9v-0.3c-0.6,0.5-1.4,0.5-1.9,0c-0.2-0.2-0.3-0.5-0.3-0.9c0-0.3,0.1-0.6,0.3-0.8
					c0.3-0.2,0.6-0.3,1-0.3h0.9v-0.2c0-0.4-0.2-0.6-0.7-0.6c-0.3,0-0.5,0.1-0.7,0.3l-0.6-0.6c0.2-0.2,0.4-0.3,0.6-0.4
					c0.3-0.1,0.5-0.1,0.8-0.1c1.1,0,1.6,0.4,1.6,1.4L86.6,224.4z M85.6,223v-0.2h-0.8c-0.4,0-0.5,0.1-0.5,0.4s0.2,0.4,0.5,0.4
					c0.2,0,0.5-0.1,0.7-0.2C85.6,223.3,85.6,223.1,85.6,223"/>
				<path class="st2" d="M90.7,222.5c0,0.3,0,0.6,0,0.9c0,0.3-0.2,0.5-0.3,0.7c-0.3,0.2-0.6,0.4-0.9,0.4c-0.4,0-0.7-0.1-0.9-0.4v1.8
					h-1v-5.2h0.9v0.4c0.3-0.3,0.6-0.4,1-0.4c0.3,0,0.7,0.1,0.9,0.4c0.2,0.2,0.3,0.5,0.3,0.7C90.7,221.9,90.7,222.2,90.7,222.5
					 M89.7,222.5c0-0.2,0-0.5-0.1-0.7c-0.1-0.2-0.3-0.4-0.6-0.4c-0.2,0-0.5,0.1-0.6,0.4c-0.1,0.2-0.1,0.5-0.1,0.7
					c0,0.2,0,0.5,0.1,0.7c0.1,0.2,0.3,0.4,0.6,0.4c0.2,0,0.5-0.1,0.6-0.4C89.7,223,89.7,222.7,89.7,222.5"/>
				<path class="st2" d="M94.4,224.4h-0.9v-0.3c-0.3,0.3-0.6,0.4-1,0.4c-0.4,0-0.7-0.1-1-0.3c-0.2-0.2-0.3-0.5-0.3-0.9
					c0-0.3,0.1-0.6,0.3-0.8c0.3-0.2,0.6-0.3,1-0.3h0.9v-0.2c0-0.4-0.2-0.6-0.7-0.6c-0.3,0-0.5,0.1-0.7,0.3l-0.6-0.6
					c0.2-0.2,0.4-0.3,0.6-0.4c0.3-0.1,0.5-0.1,0.8-0.1c1.1,0,1.6,0.4,1.6,1.4L94.4,224.4z M93.4,223v-0.2h-0.8
					c-0.4,0-0.5,0.1-0.5,0.4s0.2,0.4,0.6,0.4c0.2,0,0.5-0.1,0.7-0.2C93.4,223.3,93.4,223.1,93.4,223"/>
				<polygon class="st2" points="100.4,220.1 99,220.1 99,224.4 98,224.4 98,220.1 96.6,220.1 96.6,219.1 100.4,219.1 				"/>
				<path class="st2" d="M103.6,224.4h-0.9V224c-0.3,0.3-0.6,0.4-1,0.4c-0.3,0-0.7-0.1-0.9-0.3c-0.3-0.3-0.4-0.7-0.4-1.1v-2.4h1v2.3
					c0,0.2,0.1,0.4,0.2,0.6c0.1,0.1,0.3,0.2,0.4,0.1c0.2,0,0.3,0,0.4-0.1c0.1-0.1,0.2-0.3,0.2-0.6v-2.3h1L103.6,224.4z"/>
				<path class="st2" d="M107.7,224.4h-1V222c0-0.2-0.1-0.4-0.2-0.5c-0.2-0.2-0.6-0.2-0.8,0c-0.1,0.1-0.2,0.3-0.2,0.5v2.4h-1v-5.2h1
					v1.8c0.2-0.3,0.6-0.4,0.9-0.4c0.4,0,0.7,0.1,1,0.4c0.2,0.3,0.3,0.6,0.3,1L107.7,224.4z"/>
				<path class="st2" d="M111.8,222.5c0,0.3,0,0.6-0.1,0.9c-0.1,0.2-0.2,0.4-0.3,0.6c-0.7,0.6-1.7,0.6-2.4,0
					c-0.2-0.2-0.3-0.4-0.3-0.6c-0.1-0.3-0.1-0.6-0.1-0.9c0-0.5,0.1-1.1,0.4-1.5c0.7-0.6,1.7-0.6,2.4,0
					C111.6,221.4,111.8,221.9,111.8,222.5 M110.8,222.5c0-0.3,0-0.7-0.2-0.9c-0.1-0.1-0.3-0.2-0.4-0.2c-0.2,0-0.3,0.1-0.4,0.2
					c-0.2,0.3-0.3,0.6-0.2,0.9c0,0.3,0,0.7,0.2,0.9c0.1,0.1,0.3,0.2,0.4,0.2c0.2,0,0.3,0,0.4-0.2
					C110.7,223.1,110.8,222.8,110.8,222.5"/>
				<path class="st2" d="M115.8,224.4h-1v-2.3c0-0.2-0.1-0.4-0.2-0.6c-0.1-0.1-0.3-0.2-0.4-0.1c-0.2,0-0.3,0-0.4,0.1
					c-0.1,0.1-0.2,0.3-0.2,0.6v2.3h-1v-3.8h0.9v0.4c0.3-0.3,0.6-0.4,1-0.4c0.3,0,0.7,0.1,0.9,0.3c0.3,0.3,0.4,0.7,0.4,1.1
					L115.8,224.4z"/>
				<path class="st2" d="M119.8,222.5c0,0.3,0,0.6-0.1,0.9c-0.1,0.2-0.2,0.4-0.3,0.6c-0.3,0.3-0.7,0.5-1.2,0.5
					c-0.4,0-0.9-0.2-1.2-0.5c-0.2-0.2-0.3-0.4-0.3-0.6c-0.1-0.3-0.1-0.6-0.1-0.9c0-0.5,0.1-1.1,0.4-1.5c0.7-0.6,1.7-0.6,2.4,0
					C119.6,221.4,119.8,221.9,119.8,222.5 M118.8,222.5c0-0.3,0-0.7-0.2-0.9c-0.1-0.1-0.3-0.2-0.4-0.2c-0.2,0-0.3,0.1-0.4,0.2
					c-0.2,0.3-0.3,0.6-0.2,0.9c0,0.3,0,0.7,0.2,0.9c0.1,0.1,0.3,0.2,0.4,0.2c0.2,0,0.3,0,0.4-0.2
					C118.7,223.1,118.8,222.8,118.8,222.5"/>
				<rect x="101" y="219.4" class="st2" width="2.1" height="0.5"/>
				<path class="st2" d="M121.9,207.6h-2.5v-7h2.5c0.7,0,1.3,0.2,1.8,0.7c0.6,0.7,0.9,1.6,0.7,2.5v0.5c0.1,0.9-0.1,1.9-0.7,2.6
					C123.2,207.4,122.6,207.6,121.9,207.6 M120.8,206.3h1c0.4,0,0.8-0.1,1-0.4c0.2-0.3,0.3-0.8,0.3-1.8s0-1.5-0.3-1.8
					c-0.2-0.3-0.6-0.4-1-0.4h-1V206.3z"/>
				<path class="st2" d="M92.9,207.6h-4.6v-4.7c0-0.6,0-1.2,0.2-1.8c0.2-0.4,0.7-0.6,1.2-0.6h3.3v1.3h-2.5c-0.2,0-0.4,0-0.5,0.2
					c-0.1,0.2-0.2,0.4-0.2,0.6v0.8h2.7v1.3h-2.7v1.6h3.2V207.6z"/>
				<path class="st2" d="M70.8,200.6h-4.6v4.7c0,0.6,0,1.2,0.2,1.8c0.2,0.4,0.7,0.6,1.2,0.6h3.3v-1.3h-2.5c-0.2,0-0.4-0.1-0.5-0.2
					c-0.1-0.2-0.2-0.4-0.2-0.6v-0.8h2.7v-1.3h-2.7v-1.6h3.2V200.6z"/>
				<path class="st2" d="M102,206.3h3.2v1.3h-4.6v-6.1l0,0c0-0.3-0.1-0.7-0.4-0.8l0,0l0,0l0,0h0.8c0.6,0,1,0.2,1,1.5L102,206.3z"/>
				<polygon class="st2" points="64.8,207.6 63.5,207.6 60.8,203.4 60.8,207.6 59.4,207.6 59.4,200.6 60.6,200.6 63.3,204.8 
					63.3,200.6 64.8,200.6 				"/>
				<path class="st2" d="M116.5,203.7v-2.4c0-0.3-0.1-0.6-0.4-0.7l0,0l0,0l0,0h0.8c0.7,0,1,0.5,1,1.5v5.5h-1.3l-2.7-4.2v4.2h-1.4v-7
					h1.3l2.7,4.2L116.5,203.7z"/>
				<path class="st2" d="M109.5,201.3c-0.1-0.4-0.4-0.7-0.8-0.7h-0.5l-2.5,7h1.5l0.4-1.2h2.4l0.4,1.2h1.5L109.5,201.3z M107.9,205.1
					l0.8-2.4l0.8,2.4H107.9z"/>
				<path class="st2" d="M97.5,201.3c-0.1-0.4-0.4-0.7-0.8-0.7h-0.5l-2.6,7h1.5l0.4-1.2h2.4l0.4,1.2h1.5L97.5,201.3z M95.9,205.1
					l0.8-2.4l0.8,2.4H95.9z"/>
				<path class="st2" d="M74.3,204.9l1.2-4.3h1.1l1.2,4.3l1.1-4.3h1.5l-1.9,7h-1.2l-1.3-4.1l-1.2,4.1h-1.2l-1.6-6
					c-0.2-0.6-0.3-0.8-0.7-0.9l0,0l0,0l0,0h0.9c0.6-0.1,1.2,0.4,1.2,1L74.3,204.9z"/>
				<path class="st2" d="M86.7,202.4c0.3-0.4,0.4-0.9,0.5-1.4v-0.4h-4.5v1.3h2.8l-2.9,4.6v1.1h4.6v-1.3h-2.9L86.7,202.4z"/>
				<path class="st2" d="M72.3,211.3c-0.1-0.3-0.3-0.5-0.7-0.5h-0.4l-2,5.6h1.2l0.3-1h1.9l0.3,1h1.2L72.3,211.3z M71,214.4l0.7-1.9
					l0.6,1.9H71z"/>
				<path class="st2" d="M76.9,216.3h-2v-5.6h2c0.5,0,1.1,0.2,1.5,0.5c0.5,0.6,0.7,1.3,0.6,2v0.4c0.1,0.7-0.1,1.5-0.6,2.1
					C78,216.1,77.4,216.3,76.9,216.3 M76,215.3h0.8c0.3,0,0.6-0.1,0.8-0.3c0.2-0.2,0.2-0.6,0.2-1.5s0-1.2-0.2-1.4
					c-0.2-0.2-0.5-0.4-0.8-0.3H76L76,215.3z"/>
				<path class="st2" d="M120.7,216.3h-1.1v-5.6h2.2c1-0.1,1.8,0.7,1.9,1.6s-0.7,1.8-1.6,1.9c-0.1,0-0.2,0-0.3,0h-1L120.7,216.3z
					 M120.7,213.2h1c0.4,0,0.7-0.2,0.8-0.6c0,0,0-0.1,0-0.1c0-0.4-0.3-0.7-0.7-0.7c0,0-0.1,0-0.1,0h-1V213.2z"/>
				<polygon class="st2" points="107.1,216.3 106,216.3 106,211.8 104.5,211.8 104.5,210.7 108.6,210.7 108.6,211.8 107.1,211.8 
									"/>
				<polygon class="st2" points="61.9,216.3 60.8,216.3 60.8,211.8 59.3,211.8 59.3,210.7 63.4,210.7 63.4,211.8 61.9,211.8 				"/>
				<path class="st2" d="M102.6,213.2v-1.9c0-0.2-0.1-0.5-0.3-0.6l0,0l0,0l0,0h0.7c0.5,0,0.8,0.4,0.8,1.2v4.4h-1l-2.2-3.4v3.4h-1.1
					v-5.6h1l2.2,3.3V213.2z"/>
				<path class="st2" d="M129.4,212.2v-0.7c0-0.3-0.1-0.6-0.4-0.7l0,0l0,0l0,0h0.7c0.4,0,0.8,0.1,0.8,1.2v4.4h-1.1L129.4,212.2z"/>
				<path class="st2" d="M139.8,216.3h-3.7v-3.8c0-0.5,0-1,0.2-1.4c0.2-0.3,0.6-0.5,0.9-0.4h2.6v1h-2c-0.1,0-0.3,0-0.4,0.1
					c-0.1,0.1-0.2,0.3-0.1,0.5v0.6h2.2v1h-2.2v1.3h2.6L139.8,216.3z"/>
				<path class="st2" d="M113.1,216.3h-3.7v-3.8c0-0.5,0-1,0.2-1.4c0.2-0.3,0.6-0.5,0.9-0.4h2.6v1h-2c-0.1,0-0.3,0-0.4,0.1
					c-0.1,0.1-0.2,0.3-0.2,0.5v0.6h2.2v1h-2.2v1.3h2.6L113.1,216.3z"/>
				<path class="st2" d="M98.3,216.3h-3.7v-3.8c0-0.5,0-1,0.2-1.4c0.2-0.3,0.6-0.5,0.9-0.4h2.6v1h-2c-0.1,0-0.3,0-0.4,0.1
					c-0.1,0.1-0.2,0.3-0.2,0.5v0.6H98v1h-2.2v1.3h2.6L98.3,216.3z"/>
				<path class="st2" d="M83.6,216.3h-3.7v-3.8c0-0.5,0-1,0.2-1.4c0.2-0.3,0.6-0.5,0.9-0.4h2.6v1h-2c-0.1,0-0.3,0-0.4,0.1
					c-0.1,0.1-0.2,0.3-0.2,0.5v0.6h2.2v1H81v1.3h2.6L83.6,216.3z"/>
				<path class="st2" d="M87.9,216.4c-1.2,0-1.9-0.6-1.9-1.7c0.1-0.6,0.4-1.2,1-1.5c-0.3-0.3-0.5-0.7-0.6-1.2c0-0.7,0.6-1.3,1.4-1.3
					c0,0,0.1,0,0.1,0c0.7-0.1,1.4,0.4,1.5,1.2c0,0,0,0.1,0,0.1c0,0.4-0.2,0.8-0.6,1l-0.3,0.2l0.8,1c0.2-0.3,0.2-0.6,0.2-0.9l0,0h1
					l0,0c0,0.6-0.2,1.2-0.6,1.7l1,1.2h-1.3l-0.4-0.5C88.9,216.1,88.4,216.3,87.9,216.4 M87.6,213.8c-0.3,0.2-0.5,0.4-0.5,0.8
					c0,0.4,0.4,0.7,0.8,0.7c0,0,0,0,0,0c0.3,0,0.5-0.1,0.8-0.3L87.6,213.8z M88,211.6c-0.2,0-0.4,0.1-0.4,0.3c0,0,0,0,0,0.1
					c0,0.2,0.2,0.4,0.3,0.6l0.2-0.1c0.2-0.1,0.3-0.3,0.3-0.4C88.4,211.8,88.3,211.6,88,211.6C88,211.6,88,211.6,88,211.6"/>
				<path class="st2" d="M128.6,216.3h-1.3l-1.1-2.2h-0.8v2.2h-1.1v-5.6h2.2c0.9-0.1,1.8,0.6,1.8,1.6c0,0.1,0,0.1,0,0.2
					c0,0.7-0.4,1.2-1,1.5L128.6,216.3z M125.4,213.2h1c0.4,0,0.7-0.3,0.7-0.7c0-0.4-0.3-0.7-0.7-0.7c0,0,0,0,0,0h-1V213.2z"/>
				<path class="st2" d="M118.6,216.3h-1.3l-1.1-2.2h-0.7v2.2h-1.1v-5.6h2.2c0.9-0.1,1.8,0.6,1.8,1.6c0,0.1,0,0.1,0,0.2
					c0,0.7-0.4,1.2-1,1.5L118.6,216.3z M115.4,213.2h1c0.4,0,0.7-0.3,0.7-0.7c0-0.4-0.3-0.7-0.7-0.7c0,0,0,0,0,0h-1V213.2z"/>
				<path class="st2" d="M68.7,216.3h-1.3l-1.1-2.2h-0.7v2.2h-1.1v-5.6h2.2c0.9-0.1,1.7,0.6,1.8,1.6c0,0.1,0,0.1,0,0.2
					c0,0.7-0.4,1.2-1,1.5L68.7,216.3z M65.5,213.2h1c0.4,0,0.7-0.3,0.7-0.7c0-0.4-0.3-0.7-0.7-0.7c0,0,0,0,0,0h-1V213.2z"/>
				<path class="st2" d="M134.9,213.5c-0.3-0.3-0.7-0.4-1.1-0.4l-0.6-0.1c-0.2,0-0.4-0.1-0.5-0.2c-0.1-0.1-0.2-0.2-0.2-0.4
					c0-0.4,0.3-0.7,0.8-0.7c0.3,0,0.6,0,0.9,0.2l0,0c0.2,0.1,0.4,0.1,0.6-0.1l0.4-0.4l0,0c-0.5-0.5-1.1-0.7-1.8-0.6
					c-0.9-0.1-1.8,0.5-2,1.4c0,0.1,0,0.2,0,0.3c0,0.4,0.1,0.8,0.4,1.1c0.3,0.3,0.7,0.4,1.2,0.5l0.7,0.1c0.2,0,0.3,0.1,0.5,0.2
					c0.1,0.1,0.2,0.3,0.2,0.4c0,0.4-0.3,0.7-0.9,0.7c-0.5,0-1-0.1-1.3-0.5l0,0l-0.7,0.7l0,0c0.5,0.5,1.3,0.8,2,0.7
					c1.2,0,2.1-0.7,2.1-1.7C135.4,214.3,135.3,213.8,134.9,213.5"/>
			</g>
		</g>
	</g>
</g>
</svg>
