<?xml version="1.0" encoding="utf-8"?>
<!-- Generator: Adobe Illustrator 26.2.1, SVG Export Plug-In . SVG Version: 6.00 Build 0)  -->
<svg version="1.1" id="Layer_1" xmlns="http://www.w3.org/2000/svg" xmlns:xlink="http://www.w3.org/1999/xlink" x="0px" y="0px"
	 viewBox="0 0 970 250" style="enable-background:new 0 0 970 250;" xml:space="preserve">
<style type="text/css">
	.st0{fill:#FFFFFF;}
	.st1{fill:none;stroke:#FFFFFF;stroke-width:2.2;stroke-miterlimit:10;}
</style>
<g id="c">
	<g>
		<g>
			<path class="st0" d="M184.6,46h5.3l7,9v-9h6.1v18.9h-5.3l-7-9v9h-6.1C184.6,64.8,184.6,45.9,184.6,46z"/>
			<path class="st0" d="M216.3,45.4c6.2,0,10.7,4.5,10.7,10s-4.5,10-10.7,10s-10.7-4.5-10.7-10S210.1,45.4,216.3,45.4z M216.3,60
				c2.6,0,4.6-2,4.6-4.6s-2-4.6-4.6-4.6s-4.6,2-4.6,4.6S213.7,60,216.3,60z"/>
			<path class="st0" d="M226.8,46h6.5l2.6,10.4h0.1l3-10.4h4.9l3,10.4h0.1l2.6-10.4h6.5l-6.2,18.9h-5.3l-3.1-10h-0.1l-3.1,10H233
				L226.8,46L226.8,46z"/>
			<path class="st0" d="M262.3,46h7.6c5.9,0,10.3,4.3,10.3,9.5s-4.3,9.4-10.3,9.4h-7.6V46L262.3,46z M269.8,59.7
				c2.6,0,4.3-1.7,4.3-4.3s-1.7-4.3-4.3-4.3h-1.4v8.6H269.8z"/>
			<path class="st0" d="M282.9,46h15v5h-8.9v2.3h6.8v4.3h-6.8v2.3h9.2v5h-15.2V46L282.9,46z"/>
			<path class="st0" d="M301,46h6.1v13.2h7.8v5.7H301V46L301,46z"/>
			<path class="st0" d="M317.1,46h6.1v18.9h-6.1C317.1,64.8,317.1,45.9,317.1,46z"/>
			<path class="st0" d="M324.7,46h6.5l3.4,12.8h0.1l3.4-12.8h6.5l-6.5,18.9h-6.9L324.7,46L324.7,46z"/>
			<path class="st0" d="M346,46h15v5h-8.9v2.3h6.8v4.3h-6.8v2.3h9.2v5H346V46L346,46z"/>
			<path class="st0" d="M364.1,46h9.3c4.2,0,7.1,3,7.1,6.8c0,2-0.8,3.3-1.5,4.2c-0.5,0.5-0.9,0.9-1.5,1.2l3.6,6.8h-6.3l-2.7-5.4h-2
				v5.4h-6.1V46L364.1,46z M372.8,54.3c1.1,0,1.8-0.7,1.8-1.6s-0.7-1.6-1.8-1.6h-2.6v3.2C370.2,54.3,372.8,54.3,372.8,54.3z"/>
			<path class="st0" d="M383.6,46h6.1v18.9h-6.1C383.6,64.8,383.6,45.9,383.6,46z"/>
			<path class="st0" d="M393.4,46h5.3l7,9v-9h6.1v18.9h-5.3l-7-9v9h-6.1C393.4,64.8,393.4,45.9,393.4,46z"/>
			<path class="st0" d="M424.9,54.3h8.8v7.3c-0.6,0.7-1.4,1.3-2.2,1.9c-1.4,0.9-3.5,1.9-6.3,1.9c-6.2,0-10.7-4.5-10.7-10
				s4.5-10,10.7-10c2.8,0,4.8,0.9,6.2,1.8c0.8,0.5,1.5,1.1,2,1.8l-3.6,3.9c-0.3-0.4-0.7-0.8-1.2-1.1c-0.8-0.5-1.9-1.1-3.3-1.1
				c-2.7,0-4.7,2-4.7,4.6s2,4.6,4.6,4.6c1,0,1.7-0.2,2.2-0.4c0.3-0.1,0.5-0.2,0.7-0.4v-1.5h-3.2L424.9,54.3L424.9,54.3z"/>
		</g>
		<g>
			<path class="st1" d="M144.6,93.6H158l13.1,16.8l13.1-16.8h13.4v46.9h-15.1v-25.1l-11.4,14.4l-11.4-14.4v25.1h-15.1L144.6,93.6
				L144.6,93.6z"/>
			<path class="st1" d="M231.1,92.2c15.3,0,26.5,11.1,26.5,24.8s-11.1,24.8-26.5,24.8s-26.5-11.1-26.5-24.8S215.7,92.2,231.1,92.2
				L231.1,92.2z M231.1,128.4c6.4,0,11.4-5,11.4-11.4s-5-11.4-11.4-11.4s-11.4,5-11.4,11.4S224.6,128.4,231.1,128.4z"/>
			<path class="st1" d="M264.5,93.6h23.1c10.4,0,17.8,7.4,17.8,16.8c0,4.9-1.9,8.2-3.7,10.3c-1.1,1.3-2.3,2.3-3.7,3.1l9,16.7h-15.8
				l-6.7-13.4h-5v13.4h-15.1L264.5,93.6L264.5,93.6z M286,114.4c2.7,0,4.4-1.7,4.4-4s-1.7-4-4.4-4h-6.4v8
				C279.6,114.4,286,114.4,286,114.4z"/>
			<path class="st1" d="M313.3,93.6h37.2V106h-22.1v5.7h16.8v10.7h-16.8v5.7h22.8v12.4h-37.9L313.3,93.6L313.3,93.6z"/>
			<path class="st1" d="M383.7,107.3h-12.4V93.6h39.9v13.7h-12.4v33.2h-15.1L383.7,107.3L383.7,107.3z"/>
			<path class="st1" d="M440.7,92.2c15.3,0,26.5,11.1,26.5,24.8s-11.1,24.8-26.5,24.8s-26.5-11.1-26.5-24.8S425.3,92.2,440.7,92.2z
				 M440.7,128.4c6.4,0,11.4-5,11.4-11.4s-5-11.4-11.4-11.4s-11.4,5-11.4,11.4S434.2,128.4,440.7,128.4z"/>
			<path class="st0" d="M106.7,183.5L90,153.3h16.4l7.7,17.8h0.3l7.7-17.8h16.4l-16.8,30.1v16.8h-15.1L106.7,183.5L106.7,183.5z"/>
			<path class="st0" d="M163,152c15.3,0,26.5,11.1,26.5,24.8s-11.1,24.8-26.5,24.8s-26.5-11.1-26.5-24.8S147.6,152,163,152z
				 M163,188.1c6.4,0,11.4-5,11.4-11.4s-5-11.4-11.4-11.4s-11.4,5-11.4,11.4S156.6,188.1,163,188.1z"/>
			<path class="st0" d="M194.8,153.3h15.1v27.1c0,4.1,3.3,7.4,7,7.4s7-3.3,7-7.4v-27.1H239v27.1c0,12.1-9,21.1-22.1,21.1
				s-22.1-9-22.1-21.1L194.8,153.3L194.8,153.3z"/>
			<path class="st0" d="M246.4,153.3h23.1c10.4,0,17.8,7.4,17.8,16.8c0,4.9-1.9,8.2-3.7,10.3c-1.1,1.3-2.3,2.3-3.7,3.1l9,16.8h-15.8
				l-6.7-13.4h-5v13.4h-15.1L246.4,153.3L246.4,153.3z M267.8,174.1c2.7,0,4.4-1.7,4.4-4s-1.7-4-4.4-4h-6.4v8L267.8,174.1
				L267.8,174.1z"/>
			<path class="st0" d="M308.7,153.3h18.8c14.7,0,25.5,10.8,25.5,23.4s-10.7,23.4-25.5,23.4h-18.8V153.3z M327.1,187.5
				c6.4,0,10.7-4.3,10.7-10.7s-4.3-10.7-10.7-10.7h-3.4v21.4H327.1z"/>
			<path class="st0" d="M384.1,152c15.3,0,26.5,11.1,26.5,24.8s-11.1,24.8-26.5,24.8s-26.5-11.1-26.5-24.8S368.7,152,384.1,152z
				 M384.1,188.1c6.4,0,11.4-5,11.4-11.4s-5-11.4-11.4-11.4s-11.4,5-11.4,11.4S377.6,188.1,384.1,188.1z"/>
			<path class="st0" d="M442.4,152c15.3,0,26.5,11.1,26.5,24.8s-11.1,24.8-26.5,24.8s-26.5-11.1-26.5-24.8S427,152,442.4,152z
				 M442.4,188.1c6.4,0,11.4-5,11.4-11.4s-5-11.4-11.4-11.4s-11.4,5-11.4,11.4S435.9,188.1,442.4,188.1z"/>
			<path class="st0" d="M474.2,153.3h23.1c10.4,0,17.8,7.4,17.8,16.8c0,4.9-1.9,8.2-3.7,10.3c-1.1,1.3-2.4,2.3-3.7,3.1l9,16.8H501
				l-6.7-13.4h-5v13.4h-15.1V153.3z M495.6,174.1c2.7,0,4.4-1.7,4.4-4s-1.7-4-4.4-4h-6.4v8L495.6,174.1L495.6,174.1z"/>
		</g>
	</g>
</g>
</svg>
