<?xml version="1.0" encoding="utf-8"?>
<!-- Generator: Adobe Illustrator 26.2.1, SVG Export Plug-In . SVG Version: 6.00 Build 0)  -->
<svg version="1.1" id="Layer_1" xmlns="http://www.w3.org/2000/svg" xmlns:xlink="http://www.w3.org/1999/xlink" x="0px" y="0px"
	 viewBox="0 0 970 250" style="enable-background:new 0 0 970 250;" xml:space="preserve">
<style type="text/css">
	.st0{fill:#FFFFFF;}
</style>
<g>
	<g id="b">
		<g>
			<path class="st0" d="M48.9,143.4c0.2,0.1,0.4,0.1,0.6,0.2c0.4,0.1,0.9,0.2,1.4,0.2c1.6,0,2.5-0.9,3.1-2.2l0.4-0.9l-6.8-17.5h5.2
				l4.2,11.7H57l4-11.7h5.2L59,142.3c-1.5,4-3.6,6.1-6.8,6.1c-0.9,0-1.7-0.1-2.3-0.2c-0.3-0.1-0.7-0.2-0.9-0.3L48.9,143.4
				L48.9,143.4z"/>
			<path class="st0" d="M76.6,122.8c5.2,0,9.4,4.2,9.4,9.2c0,5-4.2,9.2-9.4,9.2s-9.4-4.1-9.4-9.2S71.4,122.8,76.6,122.8z M81.1,132
				c0-2.7-2-4.7-4.5-4.7s-4.5,2-4.5,4.7s2,4.7,4.5,4.7S81.1,134.7,81.1,132z"/>
			<path class="st0" d="M89.6,123.2h4.9v9.9c0,2.2,1.2,3.4,3.2,3.4c2.2,0,3.8-1.6,3.8-4v-9.4h4.9v17.7h-4.9v-2.5h-0.2
				c-0.4,0.5-0.8,1-1.3,1.4c-0.9,0.7-2.2,1.4-3.9,1.4c-3.6,0-6.5-2.9-6.5-7.4L89.6,123.2L89.6,123.2z"/>
			<path class="st0" d="M111.1,123.2h4.9v2.5h0.2c0.4-0.5,0.8-1,1.3-1.4c0.9-0.7,2.2-1.4,3.9-1.4h0.4v5.2l-0.4-0.1
				c-0.3,0-0.7-0.1-1.2-0.1c-2.3,0-4.2,1.8-4.2,4.7v8.3h-4.9L111.1,123.2L111.1,123.2z"/>
			<path class="st0" d="M132.7,128H130v-4.5h2.7v-1.8c0-4.2,2.3-6.5,5.9-6.5c0.8,0,1.5,0.1,2.1,0.3c0.3,0.1,0.6,0.2,0.8,0.2v4.5
				c-0.1,0-0.3-0.1-0.5-0.2c-0.3-0.1-0.7-0.2-1.1-0.2c-1.4,0-2.3,0.9-2.3,2.5v1.1H149v17.3h-4.9V128h-6.5v12.8h-4.9L132.7,128
				L132.7,128z M146.5,115.4c1.6,0,2.8,1.3,2.8,2.7s-1.3,2.7-2.8,2.7s-2.8-1.3-2.8-2.7S145,115.4,146.5,115.4z"/>
			<path class="st0" d="M153.8,123.2h4.9v2.5h0.2c0.4-0.5,0.8-1,1.3-1.4c0.9-0.7,2.2-1.4,3.9-1.4h0.4v5.2l-0.4-0.1
				c-0.3,0-0.7-0.1-1.2-0.1c-2.3,0-4.1,1.8-4.1,4.7v8.3h-4.9L153.8,123.2L153.8,123.2z"/>
			<path class="st0" d="M168.6,134.9c0.4,0.4,0.8,0.7,1.3,1c0.8,0.5,2,1,3.4,1c1.6,0,2.2-0.5,2.2-1.3c0-2-9-1.6-9-7.4
				c0-2.9,2.5-5.4,7-5.4c2.3,0,4,0.7,5.1,1.4c0.7,0.4,1.3,0.9,1.7,1.3l-2.9,3.1c-0.3-0.2-0.6-0.5-1.1-0.7c-0.7-0.4-1.7-0.7-2.9-0.7
				s-1.8,0.5-1.8,1.1c0,2,9,1.6,9,7.4c0,3-2.5,5.6-7.4,5.6c-2.4,0-4.3-0.8-5.6-1.6c-0.8-0.5-1.4-1-1.9-1.6L168.6,134.9L168.6,134.9z
				"/>
			<path class="st0" d="M185.4,128h-3.1v-4.5h1.6c1.3,0,2-0.7,2-2.2v-3.2h4.3v5.4h4v4.5h-4v5.9c0,1.6,0.9,2.5,2.3,2.5
				c0.5,0,1-0.1,1.4-0.2c0.2,0,0.4-0.1,0.6-0.2v4.5c-0.3,0.1-0.6,0.2-0.9,0.3c-0.6,0.1-1.4,0.2-2.3,0.2c-3.6,0-5.9-2.3-5.9-6.5
				L185.4,128L185.4,128z"/>
			<path class="st0" d="M222.5,135.8v5.1h-17.9c0-11.9,12.3-11.9,12.3-17.5c0-1.8-1.4-3.2-3.6-3.2c-1.6,0-2.6,0.8-3.3,1.6
				c-0.4,0.4-0.8,0.9-1,1.5l-4.3-2.2c0.5-1.1,1.1-2.1,1.9-3c1.4-1.5,3.6-3,7.1-3c5.4,0,8.8,3.5,8.8,7.9c0,7.2-7.9,8.3-10.8,12.8
				L222.5,135.8L222.5,135.8z"/>
			<path class="st0" d="M242.5,122.8c5.2,0,9.4,4.2,9.4,9.2c0,5-4.1,9.2-9.4,9.2s-9.4-4.1-9.4-9.2S237.3,122.8,242.5,122.8z
				 M247,132c0-2.7-2-4.7-4.5-4.7s-4.5,2-4.5,4.7s2,4.7,4.5,4.7S247,134.7,247,132z"/>
			<path class="st0" d="M255.5,123.2h4.9v2.5h0.2c0.4-0.5,0.8-1,1.3-1.4c0.9-0.7,2.2-1.4,3.9-1.4h0.4v5.2l-0.4-0.1
				c-0.3,0-0.7-0.1-1.2-0.1c-2.3,0-4.1,1.8-4.1,4.7v8.3h-4.9L255.5,123.2L255.5,123.2z"/>
			<path class="st0" d="M281.5,138.3h-0.2c-0.4,0.5-0.8,1-1.4,1.4c-1,0.7-2.3,1.4-4.2,1.4c-4.2,0-7.9-3.8-7.9-9.2s3.8-9.2,7.9-9.2
				c1.9,0,3.2,0.7,4.2,1.4c0.5,0.4,1,0.9,1.4,1.4h0.2v-10.1h4.9v25.2h-4.9V138.3L281.5,138.3z M281.7,132c0-2.7-2-4.7-4.5-4.7
				s-4.5,2-4.5,4.7s2,4.7,4.5,4.7S281.7,134.7,281.7,132z"/>
			<path class="st0" d="M307.1,138.3c-0.5,0.5-1.2,1-2,1.4c-1.3,0.7-3.2,1.4-5.6,1.4c-5.2,0-9.4-4.1-9.4-9.2s4.1-9.2,9.2-9.2
				s8.8,4,8.8,8.8c0,0.7-0.1,1.1-0.1,1.6l-0.1,0.6h-12.8c0.5,1.6,2,3.1,4.7,3.1c1.5,0,2.7-0.4,3.5-1c0.5-0.3,0.9-0.6,1.2-1
				L307.1,138.3L307.1,138.3z M303.1,130.2c-0.5-1.6-2-3.1-4-3.1s-3.4,1.4-4,3.1H303.1z"/>
			<path class="st0" d="M311.8,123.2h4.9v2.5h0.2c0.4-0.5,0.8-1,1.3-1.4c0.9-0.7,2.2-1.4,3.9-1.4h0.4v5.2L322,128
				c-0.3,0-0.7-0.1-1.2-0.1c-2.3,0-4.1,1.8-4.1,4.7v8.3h-4.9L311.8,123.2L311.8,123.2z"/>
			<path class="st0" d="M326.6,134.9c0.4,0.4,0.8,0.7,1.3,1c0.8,0.5,2,1,3.4,1c1.6,0,2.2-0.5,2.2-1.3c0-2-9-1.6-9-7.4
				c0-2.9,2.5-5.4,7-5.4c2.3,0,4,0.7,5.1,1.4c0.7,0.4,1.3,0.9,1.7,1.3l-2.9,3.1c-0.3-0.2-0.6-0.5-1-0.7c-0.7-0.4-1.7-0.7-2.9-0.7
				s-1.8,0.5-1.8,1.1c0,2,9,1.6,9,7.4c0,3-2.5,5.6-7.4,5.6c-2.5,0-4.3-0.8-5.6-1.6c-0.8-0.5-1.4-1-2-1.6L326.6,134.9L326.6,134.9z"
				/>
			<path class="st0" d="M342.5,118.1l-2.4-0.4l0.6-2l2.3,0.9l-0.3-2.5h2.1l-0.3,2.5l2.3-0.9l0.6,2l-2.4,0.4l1.8,1.9l-1.7,1.3
				l-1.4-2.2l-1.4,2.2l-1.7-1.3L342.5,118.1L342.5,118.1z"/>
		</g>
	</g>
</g>
</svg>
