<?xml version="1.0" encoding="utf-8"?>
<!-- Generator: Adobe Illustrator 26.2.1, SVG Export Plug-In . SVG Version: 6.00 Build 0)  -->
<svg version="1.1" id="Layer_1" xmlns="http://www.w3.org/2000/svg" xmlns:xlink="http://www.w3.org/1999/xlink" x="0px" y="0px"
	 viewBox="0 0 970 250" style="enable-background:new 0 0 970 250;" xml:space="preserve">
<style type="text/css">
	.st0{fill:#FFFFFF;}
	.st1{fill:#FF3008;}
</style>
<g>
	<g id="b">
		<g>
			<rect x="161.7" y="164.2" class="st0" width="118.3" height="39.7"/>
			<g>
				<path class="st0" d="M49.6,175.4h3.5v9.6c0,2.3,1.5,3.9,3.6,3.9s3.6-1.5,3.6-3.9v-9.6h3.5v9.6c0,4.2-2.9,7.1-7.1,7.1
					s-7.1-2.9-7.1-7.1V175.4z"/>
				<path class="st0" d="M68,187.9c0.2,0.3,0.5,0.5,0.8,0.6c0.5,0.4,1.3,0.6,2.2,0.6c1.1,0,1.4-0.4,1.4-0.8c0-1.3-5.8-1.1-5.8-4.8
					c0-1.9,1.6-3.5,4.6-3.5c1.5,0,2.6,0.4,3.3,0.9c0.4,0.3,0.8,0.6,1.1,0.9l-1.9,2c-0.2-0.2-0.4-0.3-0.7-0.5
					c-0.4-0.3-1.1-0.5-1.9-0.5s-1.2,0.4-1.2,0.7c0,1.3,5.8,1.1,5.8,4.8c0,2-1.6,3.6-4.8,3.6c-1.6,0-2.8-0.5-3.6-1.1
					c-0.5-0.3-0.9-0.6-1.3-1.1L68,187.9L68,187.9z"/>
				<path class="st0" d="M88.2,190.1c-0.3,0.4-0.8,0.6-1.3,0.9c-0.8,0.5-2.1,0.9-3.6,0.9c-3.4,0-6.1-2.7-6.1-5.9s2.7-5.9,5.9-5.9
					s5.7,2.6,5.7,5.7c0,0.4-0.1,0.8-0.1,1l-0.1,0.4h-8.3c0.3,1.1,1.3,2,3,2c1,0,1.7-0.3,2.3-0.6c0.3-0.2,0.6-0.4,0.8-0.6L88.2,190.1
					L88.2,190.1z M85.7,184.9c-0.3-1.1-1.3-2-2.6-2s-2.2,0.9-2.6,2H85.7z"/>
				<path class="st0" d="M106.3,189.7c-0.3,0.4-0.7,0.8-1.2,1.2c-0.8,0.6-2,1.2-3.6,1.2c-3.4,0-6.1-2.7-6.1-5.9s2.7-5.9,6.1-5.9
					c1.7,0,2.8,0.6,3.6,1.2c0.5,0.4,0.9,0.7,1.2,1.2l-2,2c-0.2-0.3-0.5-0.5-0.8-0.7c-0.5-0.4-1.2-0.7-2.1-0.7c-1.6,0-2.9,1.3-2.9,3
					s1.3,3,2.9,3c0.9,0,1.6-0.4,2.1-0.7c0.3-0.2,0.5-0.4,0.8-0.7L106.3,189.7L106.3,189.7z"/>
				<path class="st0" d="M113.4,180.1c3.4,0,6.1,2.7,6.1,5.9s-2.7,5.9-6.1,5.9s-6.1-2.7-6.1-5.9S110.1,180.1,113.4,180.1z
					 M116.4,186.1c0-1.8-1.3-3-2.9-3s-2.9,1.3-2.9,3s1.3,3,2.9,3S116.4,187.8,116.4,186.1z"/>
				<path class="st0" d="M130,190.1h-0.1c-0.2,0.4-0.5,0.6-0.9,0.9c-0.6,0.5-1.5,0.9-2.7,0.9c-2.7,0-5.1-2.4-5.1-5.9
					s2.4-5.9,5.1-5.9c1.2,0,2.1,0.5,2.7,0.9c0.4,0.3,0.6,0.6,0.9,0.9h0.1v-6.5h3.1v16.3H130V190.1L130,190.1z M130.1,186.1
					c0-1.8-1.3-3-2.9-3s-2.9,1.3-2.9,3s1.3,3,2.9,3S130.1,187.8,130.1,186.1z"/>
				<path class="st0" d="M146.6,190.1c-0.4,0.4-0.8,0.6-1.3,0.9c-0.8,0.5-2.1,0.9-3.6,0.9c-3.4,0-6.1-2.7-6.1-5.9s2.7-5.9,5.9-5.9
					s5.7,2.6,5.7,5.7c0,0.4-0.1,0.8-0.1,1l-0.1,0.4h-8.3c0.4,1.1,1.3,2,3,2c1,0,1.7-0.3,2.3-0.6c0.3-0.2,0.6-0.4,0.8-0.6
					L146.6,190.1L146.6,190.1z M144,184.9c-0.4-1.1-1.3-2-2.6-2s-2.2,0.9-2.6,2H144L144,184.9z"/>
				<path class="st0" d="M150.9,180.1c1.1,0,1.9,0.8,1.9,1.9s-0.8,1.9-1.9,1.9s-1.9-0.8-1.9-1.9S149.9,180.1,150.9,180.1z
					 M150.9,188.3c1.1,0,1.9,0.8,1.9,1.9s-0.8,1.9-1.9,1.9s-1.9-0.8-1.9-1.9S149.9,188.3,150.9,188.3z"/>
			</g>
			<g>
				<path class="st1" d="M175.5,175.4h3.5v7l6.3-7h4.2l-6.1,6.8l6.5,9.6h-4.1l-4.8-7L179,187v4.8h-3.5L175.5,175.4L175.5,175.4z"/>
				<path class="st1" d="M191.9,175.4h3.5v16.3h-3.5V175.4z"/>
				<path class="st1" d="M203.9,175.4h4l6.3,16.3h-3.7L209,188h-6.3l-1.4,3.7h-3.7L203.9,175.4L203.9,175.4z M207.9,184.9l-1.9-5.4
					h-0.1l-1.9,5.4H207.9z"/>
				<path class="st1" d="M223.7,175.1c5,0,8.9,3.9,8.9,8.5s-3.8,8.5-8.9,8.5s-8.9-3.9-8.9-8.5S218.7,175.1,223.7,175.1z
					 M223.7,188.9c2.9,0,5.2-2.3,5.2-5.2s-2.3-5.2-5.2-5.2s-5.2,2.3-5.2,5.2S220.8,188.9,223.7,188.9z"/>
				<path class="st1" d="M235.8,175.4h7.2c3.5,0,5.7,2.2,5.7,5.5c0,1.9-0.7,3.1-1.4,3.8c-0.4,0.4-0.9,0.8-1.4,1l3.4,6.1h-3.9
					l-2.9-5.4h-3.3v5.4h-3.5L235.8,175.4L235.8,175.4z M242.9,183.1c1.3,0,2.2-0.9,2.2-2.2s-0.9-2.2-2.2-2.2h-3.6v4.4H242.9z"/>
				<path class="st1" d="M256.5,175.4h4l6.3,16.3h-3.7l-1.4-3.7h-6.3l-1.4,3.7h-3.7L256.5,175.4L256.5,175.4z M260.5,184.9l-1.9-5.4
					h-0.1l-1.9,5.4H260.5z"/>
			</g>
		</g>
	</g>
</g>
</svg>
