<?xml version="1.0" encoding="utf-8"?>
<!-- Generator: Adobe Illustrator 26.2.1, SVG Export Plug-In . SVG Version: 6.00 Build 0)  -->
<svg version="1.1" id="Layer_1" xmlns="http://www.w3.org/2000/svg" xmlns:xlink="http://www.w3.org/1999/xlink" x="0px" y="0px"
	 viewBox="0 0 970 250" style="enable-background:new 0 0 970 250;" xml:space="preserve">
<style type="text/css">
	.st0{fill:#FFFFFF;}
	.st1{fill:none;stroke:#FFFFFF;stroke-width:2.29;stroke-miterlimit:10;}
</style>
<g>
	<g id="b">
		<g>
			<path class="st0" d="M60.9,79.1c0.9,0.9,2,1.7,3.1,2.4c2,1.3,4.6,2.3,7.6,2.3c3.9,0,6.4-2.6,6.4-5.6s-2.6-5.6-6.4-5.6
				c-2,0-3.4,0.7-4.5,1.3c-0.6,0.4-1.1,0.9-1.5,1.3l-13.3-2.6l2.6-34.3h40.3v15.9H72.5l-0.9,6.4c0.7-0.3,1.5-0.6,2.3-0.9
				c1.5-0.4,3.4-0.9,5.8-0.9c10.7,0,19.3,8.5,19.3,19.7c0,12-9.4,21.4-24.4,21.4c-8.2,0-14.3-2.4-18.3-4.9c-2.4-1.5-4.5-3.2-6.1-5
				L60.9,79.1L60.9,79.1z"/>
			<path class="st0" d="M102.3,68.4c0-19.3,12.4-31.7,27-31.7s27,12.4,27,31.7s-12.4,31.7-27,31.7S102.3,87.7,102.3,68.4z
				 M137.1,68.4c0-10.7-3.9-14.6-7.7-14.6s-7.7,3.9-7.7,14.6s3.9,14.6,7.7,14.6S137.1,79.1,137.1,68.4z"/>
			<path class="st0" d="M174.1,37.1c9,0,16.3,6.9,16.3,15.4S183.1,68,174.1,68s-16.3-6.9-16.3-15.4S165.1,37.1,174.1,37.1z
				 M206.3,38.4h15.4l-37.7,60h-15.4C168.5,98.4,206.3,38.4,206.3,38.4z M174.1,56.8c2.7,0,4.3-2.1,4.3-4.3s-1.6-4.3-4.3-4.3
				s-4.3,2.1-4.3,4.3S171.5,56.8,174.1,56.8z M216.1,68.8c9,0,16.3,6.9,16.3,15.4s-7.3,15.4-16.3,15.4s-16.3-6.9-16.3-15.4
				S207.1,68.8,216.1,68.8z M216.1,88.6c2.7,0,4.3-2.1,4.3-4.3s-1.6-4.3-4.3-4.3s-4.3,2.1-4.3,4.3S213.5,88.6,216.1,88.6z"/>
			<path class="st1" d="M286.4,36.7c19.6,0,33.9,14.1,33.9,31.7s-14.2,31.7-33.9,31.7S252.5,86,252.5,68.4S266.7,36.7,286.4,36.7z
				 M286.4,83c8.2,0,14.6-6.3,14.6-14.6s-6.4-14.6-14.6-14.6s-14.6,6.3-14.6,14.6S278.2,83,286.4,83z"/>
			<path class="st1" d="M329.3,38.4h47.6v16.7h-28.3v9h21.4v15.4h-21.4v18.9h-19.3L329.3,38.4L329.3,38.4z"/>
			<path class="st1" d="M385.1,38.4h47.6v16.7h-28.3v9h21.4v15.4h-21.4v18.9h-19.3L385.1,38.4L385.1,38.4z"/>
		</g>
	</g>
</g>
</svg>
