<?xml version="1.0" encoding="utf-8"?>
<!-- Generator: Adobe Illustrator 26.2.1, SVG Export Plug-In . SVG Version: 6.00 Build 0)  -->
<svg version="1.1" id="Layer_1" xmlns="http://www.w3.org/2000/svg" xmlns:xlink="http://www.w3.org/1999/xlink" x="0px" y="0px"
	 viewBox="0 0 970 250" style="enable-background:new 0 0 970 250;" xml:space="preserve">
<style type="text/css">
	.st0{fill:#FFFFFF;}
</style>
<g>
	<g id="b">
		<g>
			<path class="st0" d="M49.6,230.3l-1-0.2l0.2-0.4l1,0.3l-0.1-1h0.5l-0.1,1l1-0.3l0.2,0.4l-1,0.2l0.7,0.8l-0.4,0.3l-0.6-0.9
				l-0.6,0.9l-0.4-0.3C48.9,231.1,49.6,230.3,49.6,230.3z"/>
			<path class="st0" d="M53.6,229.5h-1.8l0.1-0.6h4.1l-0.1,0.6h-1.8l-1.1,5h-0.6C52.6,234.5,53.6,229.5,53.6,229.5z"/>
			<path class="st0" d="M60,234.5C60,234.5,60,234.6,60,234.5c-0.1,0.1-0.2,0.1-0.3,0.1c-0.3,0-0.5-0.1-0.6-0.3
				c-0.1-0.1-0.2-0.2-0.2-0.3c-0.1,0.1-0.3,0.2-0.4,0.3c-0.3,0.1-0.6,0.3-1.1,0.3c-0.9,0-1.4-0.5-1.4-1.3c0-0.6,0.4-1,0.7-1.3
				c0.2-0.2,0.5-0.3,0.7-0.5c-0.1-0.1-0.2-0.3-0.3-0.5c-0.1-0.3-0.3-0.6-0.3-0.9c0-0.7,0.6-1.3,1.4-1.3s1.2,0.5,1.2,1.1
				c0,0.5-0.3,0.9-0.7,1.2c-0.2,0.2-0.4,0.3-0.7,0.5l1,1.6c0.1-0.1,0.2-0.2,0.3-0.4c0.1-0.2,0.3-0.6,0.4-1h0.5
				c-0.1,0.6-0.3,1-0.5,1.3c-0.1,0.2-0.2,0.4-0.4,0.5c0,0.1,0.1,0.2,0.2,0.2c0.1,0.1,0.2,0.2,0.4,0.2c0.1,0,0.1,0,0.2,0l0.1,0
				L60,234.5L60,234.5z M57.7,231.9c-0.2,0.1-0.4,0.3-0.6,0.4c-0.3,0.3-0.6,0.6-0.6,1c0,0.4,0.3,0.8,0.9,0.8c0.4,0,0.7-0.1,0.9-0.2
				c0.1-0.1,0.2-0.1,0.3-0.2C58.6,233.6,57.7,231.9,57.7,231.9z M58.4,230.9c0.3-0.2,0.5-0.5,0.5-0.9s-0.3-0.6-0.7-0.6
				c-0.5,0-0.8,0.4-0.8,0.8c0,0.2,0.1,0.5,0.2,0.7c0.1,0.1,0.2,0.3,0.2,0.4C58.1,231.1,58.3,231,58.4,230.9L58.4,230.9z"/>
			<path class="st0" d="M65.9,233.7c-0.2,0.2-0.4,0.3-0.6,0.5c-0.4,0.2-0.9,0.5-1.6,0.5c-1.5,0-2.6-1.2-2.6-2.6
				c0-1.8,1.5-3.2,3.2-3.2c1.6,0,2.2,1.2,2.2,1.2l-0.5,0.3c-0.1-0.2-0.2-0.4-0.4-0.5c-0.3-0.2-0.7-0.5-1.4-0.5
				c-1.3,0-2.5,1.1-2.5,2.6c0,1.1,0.8,2,2.1,2c0.6,0,1-0.2,1.3-0.4c0.2-0.1,0.3-0.2,0.5-0.4L65.9,233.7L65.9,233.7z"/>
			<path class="st0" d="M67,233.4c0,0,0.3,0.7,1,0.7c0.5,0,0.8-0.3,0.8-0.6c0-0.7-1.7-0.7-1.7-1.7c0-0.6,0.6-1.1,1.3-1.1
				c0.9,0,1.3,0.7,1.3,0.6l-0.5,0.4c0,0-0.2-0.5-0.9-0.5c-0.4,0-0.7,0.3-0.7,0.6c0,0.7,1.7,0.6,1.7,1.7c0,0.7-0.6,1.2-1.4,1.2
				c-1.1,0-1.5-0.8-1.5-0.8L67,233.4L67,233.4z"/>
			<path class="st0" d="M74.3,234c-0.1,0.1-0.2,0.2-0.3,0.3c-0.2,0.1-0.5,0.3-0.9,0.3c-0.8,0-1.2-0.5-1.2-1.1s0.5-1.1,1.2-1.2
				l1.7-0.3c0-0.1,0-0.1,0-0.1c0-0.5-0.3-0.8-0.9-0.8c-0.3,0-0.6,0.1-0.8,0.2c-0.1,0.1-0.2,0.1-0.3,0.2l-0.3-0.4
				c0.1-0.1,0.2-0.2,0.4-0.3c0.2-0.1,0.6-0.3,1-0.3c0.8,0,1.4,0.5,1.4,1.3c0,0.1,0,0.2,0,0.4l-0.5,2.2h-0.6L74.3,234L74.3,234z
				 M74.6,232.6l-1.4,0.2c-0.6,0.1-0.8,0.4-0.8,0.7s0.3,0.6,0.7,0.6c0.8,0,1.3-0.5,1.5-1.2L74.6,232.6z"/>
			<path class="st0" d="M76.8,230.7h0.6l-0.1,0.5c0.1-0.1,0.2-0.2,0.3-0.3c0.2-0.1,0.6-0.3,1-0.3c0.9,0,1.6,0.7,1.6,1.8
				c0,1.3-1.1,2.2-2.1,2.2c-0.6,0-0.9-0.2-1.1-0.4c-0.1-0.1-0.2-0.3-0.3-0.4l-0.5,2.5h-0.6L76.8,230.7L76.8,230.7z M79.7,232.3
				c0-0.7-0.5-1.2-1.2-1.2c-0.7,0-1.5,0.7-1.5,1.6c0,0.8,0.5,1.3,1.2,1.3C78.9,234.1,79.7,233.3,79.7,232.3z"/>
			<path class="st0" d="M81.6,230.7h0.6l-0.1,0.5c0.1-0.1,0.2-0.2,0.3-0.3c0.2-0.1,0.6-0.3,1-0.3c0.9,0,1.6,0.7,1.6,1.8
				c0,1.3-1.1,2.2-2.1,2.2c-0.6,0-0.9-0.2-1.1-0.4c-0.1-0.1-0.2-0.3-0.3-0.4l-0.5,2.5h-0.6L81.6,230.7L81.6,230.7z M84.4,232.3
				c0-0.7-0.5-1.2-1.2-1.2c-0.7,0-1.5,0.7-1.5,1.6c0,0.8,0.5,1.3,1.2,1.3C83.7,234.1,84.4,233.3,84.4,232.3z"/>
			<path class="st0" d="M86.8,228.9h0.6l-1.2,5.6h-0.6L86.8,228.9z"/>
			<path class="st0" d="M86.8,235.6l0.1,0.1c0.1,0,0.2,0.1,0.3,0.1c0.4,0,0.6-0.2,0.8-0.6l0.3-0.6l-0.7-3.8h0.6l0.6,3.1l1.9-3.1h0.6
				l-2.7,4.4c-0.5,0.8-0.8,1.1-1.4,1.1c-0.2,0-0.3,0-0.3-0.1l-0.1-0.1L86.8,235.6L86.8,235.6z"/>
			<path class="st0" d="M90.9,234.2c0-0.2,0.2-0.4,0.4-0.4c0.2,0,0.4,0.1,0.4,0.4c0,0.2-0.2,0.4-0.4,0.4
				C91.1,234.6,90.9,234.4,90.9,234.2z"/>
			<path class="st0" d="M94.8,233.1c0.1,0.2,0.2,0.3,0.3,0.4c0.2,0.2,0.6,0.4,1.2,0.4c0.8,0,1.3-0.5,1.3-1.1c0-1.1-2.5-0.9-2.5-2.5
				c0-0.8,0.7-1.6,1.9-1.6c0.6,0,1.1,0.2,1.3,0.4c0.2,0.1,0.3,0.3,0.4,0.4l-0.5,0.4c-0.1-0.1-0.2-0.2-0.3-0.3
				c-0.2-0.2-0.5-0.4-1-0.4c-0.7,0-1.2,0.5-1.2,1c0,1.1,2.5,0.9,2.5,2.5c0,0.9-0.8,1.6-1.9,1.6c-0.7,0-1.2-0.3-1.6-0.5
				c-0.2-0.1-0.3-0.3-0.4-0.5L94.8,233.1L94.8,233.1z"/>
			<path class="st0" d="M102.3,234c-0.1,0.1-0.3,0.2-0.4,0.3c-0.3,0.1-0.6,0.3-1.1,0.3c-1,0-1.7-0.8-1.7-1.8c0-1.3,1.1-2.2,2.1-2.2
				c1,0,1.7,0.7,1.7,1.6c0,0.1,0,0.3,0,0.4l0,0.2h-3.2c0,0.8,0.6,1.3,1.3,1.3c0.3,0,0.6-0.1,0.8-0.2c0.1-0.1,0.2-0.1,0.3-0.2
				L102.3,234L102.3,234z M102.3,232.3L102.3,232.3C102.3,232.3,102.3,232.3,102.3,232.3c0-0.6-0.4-1.2-1.2-1.2
				c-0.7,0-1.3,0.6-1.5,1.2L102.3,232.3L102.3,232.3z"/>
			<path class="st0" d="M106.7,234c-0.1,0.1-0.3,0.2-0.4,0.3c-0.3,0.1-0.6,0.3-1.1,0.3c-1,0-1.7-0.8-1.7-1.8c0-1.3,1.1-2.2,2.1-2.2
				c1,0,1.7,0.7,1.7,1.6c0,0.1,0,0.3,0,0.4l0,0.2H104c0,0.8,0.6,1.3,1.3,1.3c0.3,0,0.6-0.1,0.8-0.2c0.1-0.1,0.2-0.1,0.3-0.2
				L106.7,234L106.7,234z M106.7,232.3L106.7,232.3C106.7,232.3,106.7,232.3,106.7,232.3c0-0.6-0.4-1.2-1.2-1.2
				c-0.7,0-1.3,0.6-1.5,1.2L106.7,232.3L106.7,232.3z"/>
			<path class="st0" d="M112,234c-0.1,0.1-0.2,0.2-0.3,0.3c-0.2,0.1-0.5,0.3-0.9,0.3c-0.8,0-1.2-0.5-1.2-1.1s0.5-1.1,1.2-1.2
				l1.7-0.3c0-0.1,0-0.1,0-0.1c0-0.5-0.3-0.8-0.9-0.8c-0.3,0-0.6,0.1-0.8,0.2c-0.1,0.1-0.2,0.1-0.3,0.2l-0.3-0.4
				c0.1-0.1,0.2-0.2,0.4-0.3c0.2-0.1,0.6-0.3,1-0.3c0.8,0,1.4,0.5,1.4,1.3c0,0.1,0,0.2,0,0.4l-0.5,2.2h-0.6L112,234L112,234z
				 M112.3,232.6l-1.4,0.2c-0.6,0.1-0.8,0.4-0.8,0.7s0.3,0.6,0.7,0.6c0.8,0,1.3-0.5,1.5-1.2L112.3,232.6z"/>
			<path class="st0" d="M114.5,230.7h0.6l-0.1,0.5c0.1-0.1,0.2-0.2,0.3-0.3c0.2-0.1,0.6-0.3,1-0.3c0.9,0,1.6,0.7,1.6,1.8
				c0,1.3-1.1,2.2-2.1,2.2c-0.6,0-0.9-0.2-1.1-0.4c-0.1-0.1-0.2-0.3-0.3-0.4l-0.5,2.5h-0.6L114.5,230.7L114.5,230.7z M117.4,232.3
				c0-0.7-0.5-1.2-1.2-1.2c-0.7,0-1.5,0.7-1.5,1.6c0,0.8,0.5,1.3,1.2,1.3C116.6,234.1,117.4,233.3,117.4,232.3L117.4,232.3z"/>
			<path class="st0" d="M119.3,230.7h0.6l-0.1,0.5c0.1-0.1,0.2-0.2,0.3-0.3c0.2-0.1,0.6-0.3,1-0.3c0.9,0,1.6,0.7,1.6,1.8
				c0,1.3-1.1,2.2-2.1,2.2c-0.6,0-0.9-0.2-1.1-0.4c-0.1-0.1-0.2-0.3-0.3-0.4l-0.5,2.5h-0.6L119.3,230.7L119.3,230.7z M122.1,232.3
				c0-0.7-0.5-1.2-1.2-1.2c-0.7,0-1.5,0.7-1.5,1.6c0,0.8,0.5,1.3,1.2,1.3C121.4,234.1,122.1,233.3,122.1,232.3L122.1,232.3z"/>
			<path class="st0" d="M125.8,231.2h-0.6l0.1-0.5h0.6l0.2-0.7c0.2-0.7,0.5-1.1,1.2-1.1c0.2,0,0.3,0.1,0.5,0.1
				c0.1,0,0.1,0.1,0.2,0.1l-0.1,0.5c0,0-0.1-0.1-0.2-0.1c-0.1,0-0.2-0.1-0.4-0.1c-0.3,0-0.5,0.1-0.6,0.6l-0.2,0.7h0.9l-0.1,0.5h-0.9
				l-0.7,3.3h-0.6L125.8,231.2L125.8,231.2z"/>
			<path class="st0" d="M127.6,232.8c0-1.3,1-2.2,2.2-2.2c1.1,0,1.8,0.8,1.8,1.8c0,1.3-1,2.2-2.2,2.2
				C128.3,234.6,127.6,233.8,127.6,232.8z M131,232.4c0-0.7-0.5-1.3-1.3-1.3c-0.8,0-1.6,0.7-1.6,1.7c0,0.7,0.5,1.3,1.3,1.3
				C130.3,234.1,131,233.4,131,232.4z"/>
			<path class="st0" d="M133,230.7h0.6l-0.1,0.4c0.1-0.1,0.2-0.2,0.3-0.3c0.2-0.1,0.5-0.3,0.9-0.3h0.3l-0.1,0.6h-0.4
				c-0.5,0-1.1,0.4-1.3,1.2l-0.4,2.1h-0.6L133,230.7L133,230.7z"/>
			<path class="st0" d="M139.6,234c-0.1,0.1-0.2,0.2-0.3,0.3c-0.2,0.1-0.5,0.3-1,0.3c-0.9,0-1.6-0.7-1.6-1.8c0-1.3,1.1-2.2,2.1-2.2
				c0.6,0,0.9,0.2,1.1,0.4c0.1,0.1,0.2,0.3,0.3,0.4l0.5-2.6h0.6l-1.2,5.6h-0.6L139.6,234L139.6,234z M139.9,232.4
				c0-0.8-0.5-1.3-1.2-1.3c-0.8,0-1.5,0.7-1.5,1.7c0,0.7,0.5,1.2,1.1,1.2C139.1,234.1,139.9,233.3,139.9,232.4z"/>
			<path class="st0" d="M144.7,234c-0.1,0.1-0.3,0.2-0.4,0.3c-0.3,0.1-0.6,0.3-1.1,0.3c-1,0-1.7-0.8-1.7-1.8c0-1.3,1.1-2.2,2.1-2.2
				c1,0,1.7,0.7,1.7,1.6c0,0.1,0,0.3,0,0.4l0,0.2H142c0,0.8,0.6,1.3,1.3,1.3c0.3,0,0.6-0.1,0.8-0.2c0.1-0.1,0.2-0.1,0.3-0.2
				L144.7,234L144.7,234z M144.7,232.3L144.7,232.3C144.7,232.3,144.7,232.3,144.7,232.3c0-0.6-0.4-1.2-1.2-1.2
				c-0.7,0-1.3,0.6-1.5,1.2L144.7,232.3L144.7,232.3z"/>
			<path class="st0" d="M146.8,231.2h-0.7l0.1-0.5h0.4c0.2,0,0.3-0.1,0.4-0.4l0.2-0.9h0.5l-0.3,1.3h0.8l-0.1,0.5h-0.8l-0.5,2.2
				c0,0.1,0,0.1,0,0.2c0,0.3,0.2,0.5,0.6,0.5c0.1,0,0.2,0,0.3,0l0.1,0l-0.1,0.5l-0.1,0c-0.1,0-0.2,0-0.3,0c-0.7,0-1-0.4-1-0.9
				c0-0.1,0-0.2,0-0.3L146.8,231.2L146.8,231.2z"/>
			<path class="st0" d="M151.1,234c-0.1,0.1-0.2,0.2-0.3,0.3c-0.2,0.1-0.5,0.3-0.9,0.3c-0.8,0-1.2-0.5-1.2-1.1s0.5-1.1,1.2-1.2
				l1.7-0.3c0-0.1,0-0.1,0-0.1c0-0.5-0.3-0.8-0.9-0.8c-0.3,0-0.6,0.1-0.8,0.2c-0.1,0.1-0.2,0.1-0.3,0.2l-0.3-0.4
				c0.1-0.1,0.2-0.2,0.4-0.3c0.2-0.1,0.6-0.3,1-0.3c0.8,0,1.4,0.5,1.4,1.3c0,0.1,0,0.2,0,0.4l-0.5,2.2H151L151.1,234L151.1,234z
				 M151.4,232.6l-1.4,0.2c-0.6,0.1-0.8,0.4-0.8,0.7s0.3,0.6,0.7,0.6c0.8,0,1.3-0.5,1.5-1.2L151.4,232.6L151.4,232.6z"/>
			<path class="st0" d="M153.6,230.7h0.6l-0.8,3.8h-0.6L153.6,230.7L153.6,230.7z M153.8,229.4c0-0.2,0.2-0.4,0.4-0.4
				c0.2,0,0.3,0.1,0.3,0.3c0,0.2-0.2,0.4-0.4,0.4S153.8,229.6,153.8,229.4z"/>
			<path class="st0" d="M155.8,228.9h0.6l-1.2,5.6h-0.6L155.8,228.9z"/>
			<path class="st0" d="M156.8,233.4c0,0,0.3,0.7,1,0.7c0.5,0,0.8-0.3,0.8-0.6c0-0.7-1.7-0.7-1.7-1.7c0-0.6,0.6-1.1,1.4-1.1
				c0.9,0,1.3,0.7,1.3,0.6l-0.5,0.4c0,0-0.2-0.5-0.9-0.5c-0.4,0-0.7,0.3-0.7,0.6c0,0.7,1.7,0.6,1.7,1.7c0,0.7-0.6,1.2-1.4,1.2
				c-1.1,0-1.5-0.8-1.5-0.8L156.8,233.4L156.8,233.4z"/>
		</g>
	</g>
</g>
</svg>
