<svg xmlns="http://www.w3.org/2000/svg" viewBox="0 0 70.53 66"><defs><style>.cls-1{fill:#fdd800;}.cls-2{fill:#010101;}</style></defs><title>logo-320</title><g id="Layer_2" data-name="Layer 2"><g id="Layer_1-2" data-name="Layer 1"><g id="NS_LOGO" data-name="NS LOGO"><rect class="cls-1" x="2.05" y="2.05" width="66.44" height="61.94"/><path class="cls-2" d="M70.5,66H0L0,0l70.5,0ZM2,64l66.44,0,0-61.94L2.06,2Z"/><path class="cls-2" d="M35.34,53.15a1.33,1.33,0,0,0-.82-.23h-.88v1.84h.71c.86,0,1.3-.31,1.3-.93A.8.8,0,0,0,35.34,53.15Zm6.52,2.48h1.36l-.65-2.37ZM25.56,52.9a2,2,0,0,0-1.54.68,2.81,2.81,0,0,0-.63,2A2.69,2.69,0,0,0,24,57.42a2.06,2.06,0,0,0,3.08,0,3.25,3.25,0,0,0,0-3.83A2,2,0,0,0,25.56,52.9ZM4.3,49.5v12l61.91,0v-12ZM12.15,59a2.35,2.35,0,0,1-1.6.58A1.9,1.9,0,0,1,9,58.78v.66H7.62V56.76H9a1.5,1.5,0,0,0,.38,1.08,1.17,1.17,0,0,0,.82.35.84.84,0,0,0,.62-.26.83.83,0,0,0,0-1.19,3.5,3.5,0,0,0-.89-.57A6.67,6.67,0,0,1,8,55a1.86,1.86,0,0,1-.49-1.35,2,2,0,0,1,.65-1.6,2.16,2.16,0,0,1,1.47-.57,1.69,1.69,0,0,1,1.45.73v-.65h1.33V54H11.12a1.32,1.32,0,0,0-.38-.85,1.08,1.08,0,0,0-.75-.31.85.85,0,0,0-.55.18.56.56,0,0,0-.23.46.69.69,0,0,0,.19.46,3.89,3.89,0,0,0,1.09.62,8.38,8.38,0,0,1,1.34.7,2.27,2.27,0,0,1,.73.81,2.4,2.4,0,0,1,.28,1.16A2.23,2.23,0,0,1,12.15,59Zm8.4-4.21H19.22V52.91H18v5.21h1.18v1.33H14.77V58.12H16V52.91H14.78v1.83H13.43V51.58h7.13Zm8.21,3.63a4.35,4.35,0,0,1-3.21,1.17,4.22,4.22,0,0,1-3.23-1.21,4,4,0,0,1-1.13-2.84,3.91,3.91,0,0,1,1.16-2.86,4.27,4.27,0,0,1,3.21-1.17,4.31,4.31,0,0,1,3.2,1.17,4.11,4.11,0,0,1,0,5.74Zm18,1.08H42.91V58.13h1l-.38-1.35h-2l-.41,1.35h1v1.33H36.31L34.54,56h-.91v2.12h1v1.33H30.51V58.13h1.08V52.92H30.51V51.59h4.74a2.46,2.46,0,0,1,1.93.68,2.23,2.23,0,0,1,.59,1.53,2,2,0,0,1-1.36,2l1.28,2.38h1.94l1.53-5.21h-1V51.6h5.14v1.33H44.19l1.65,5.21h.94ZM55,57.76a3.47,3.47,0,0,1-1.5,1.32,5,5,0,0,1-2.21.48A4.41,4.41,0,0,1,48,58.42a3.93,3.93,0,0,1-1.14-2.9,4,4,0,0,1,.57-2.16A3.63,3.63,0,0,1,49,52,4.53,4.53,0,0,1,51,51.48a3.6,3.6,0,0,1,2.47.77V51.6h1.33v2.79H53.5a1.94,1.94,0,0,0-.84-1.11,2.37,2.37,0,0,0-1.33-.41,2.14,2.14,0,0,0-1.6.67,2.48,2.48,0,0,0-.66,1.84,2.82,2.82,0,0,0,.67,2,2.18,2.18,0,0,0,1.64.71,1.88,1.88,0,0,0,1.18-.35,1.76,1.76,0,0,0,.65-1H51.83V55.5h3.68A4.2,4.2,0,0,1,55,57.76Zm8-3.66H61.45V52.93H59v1.82h2v1.33H59v2.06h2.43V57H63v2.51H56V58.14H57V52.93H56V51.6H63Z"/><path class="cls-2" d="M4.57,47.28V46h1V40.9h-1V39.61H7.8l2.82,4.79V40.91h-1v-1.3h3.44v1.3H12v6.44H10.28L7,41.65V46h1v1.3Z"/><path class="cls-2" d="M20.86,46v1.29H17.08V46h1l-.36-1.32h-2L15.3,46h1v1.3h-3.4V46h.95l1.5-5.08h-1v-1.3h5v1.3h-1L19.94,46Zm-3.47-2.45-.64-2.32-.69,2.32Z"/><path class="cls-2" d="M22.18,47.29V46h1.15V40.91H22.18V42.7H20.86V39.61h7V42.7h-1.3V40.91H25.33V46h1.15v1.29Z"/><path class="cls-2" d="M28.52,47.3V46h1.16V40.92H28.52V39.62h4.34v1.3H31.69V46h1.18v1.3Z"/><path class="cls-2" d="M37.6,39.5a4.21,4.21,0,0,1,3.13,1.15,4,4,0,0,1,0,5.6,4.23,4.23,0,0,1-3.13,1.15,4.15,4.15,0,0,1-3.16-1.19,3.92,3.92,0,0,1-1.1-2.77,3.83,3.83,0,0,1,1.14-2.79A4.18,4.18,0,0,1,37.6,39.5Zm0,1.4a2,2,0,0,0-1.5.66,2.78,2.78,0,0,0-.62,1.95,2.64,2.64,0,0,0,.61,1.81,2,2,0,0,0,3,0,3.18,3.18,0,0,0,0-3.73A1.92,1.92,0,0,0,37.6,40.9Z"/><path class="cls-2" d="M42.11,47.3V46h1V40.92h-1v-1.3h3.23l2.82,4.79V40.92h-1V39.63h3.45v1.29H49.53v6.44H47.82l-3.31-5.69V46h1V47.3Z"/><path class="cls-2" d="M58.37,46v1.3H54.59V46h1l-.37-1.32h-2L52.81,46h1v1.3h-3.4V46h1l1.5-5.08h-1v-1.3h5v1.3h-1L57.45,46ZM54.9,43.57l-.64-2.32-.69,2.32Z"/><path class="cls-2" d="M59.09,47.31V46h1.09V40.93h-1.1v-1.3h4.22v1.3H62.18V46h2.27V43.64H66v3.67Z"/></g></g></g></svg>