<svg xmlns="http://www.w3.org/2000/svg" viewBox="0 0 131.61 31.09"><defs><style>.cls-1{fill:#231f20;}</style></defs><title>t3-320</title><g id="Layer_2" data-name="Layer 2"><g id="Layer_1-2" data-name="Layer 1"><path class="cls-1" d="M2.82,11.3V9.42H4.38v-3l-3-4.36H0V.18H5.57V2.06H4.47L6.11,4.77,7.76,2.06H6.62V.18h4.9V2.06H10.15L7.27,6.42v3H8.82V11.3Z"/><path class="cls-1" d="M12.55,11.3V9.42h1.33V2.06H12.55V.18h9.8V3.7H20.22V2.06H16.78V4.62h2.78V6.5H16.78V9.42h3.44V7.76h2.13V11.3Z"/><path class="cls-1" d="M29.92,9.42V11.3H24.05V9.42h1.42V2.06H24.05V.18h5.87a4.7,4.7,0,0,1,3.16,1A3.25,3.25,0,0,1,34.2,3.72a3.48,3.48,0,0,1-.4,1.68,2.94,2.94,0,0,1-1,1.16,3.61,3.61,0,0,1-1.4.55,10.74,10.74,0,0,1-2,.15H28.37V9.42Zm-1.55-4h.43a2.58,2.58,0,0,0,1.91-.49,1.72,1.72,0,0,0,.43-1.2,1.84,1.84,0,0,0-.29-1,1.22,1.22,0,0,0-.68-.52,5.43,5.43,0,0,0-1.26-.1h-.54Z"/><path class="cls-1" d="M34.63,14.23V13A1.38,1.38,0,0,0,36,11.45V11.3H34.63V8.62h2.68v2.49A5.23,5.23,0,0,1,37.05,13a1.84,1.84,0,0,1-.88,1A3.41,3.41,0,0,1,34.63,14.23Z"/><path class="cls-1" d="M45.74,11.3V9.42H47.3v-3l-3-4.36H42.92V.18h5.57V2.06h-1.1L49,4.77l1.65-2.71H49.54V.18h4.9V2.06H53.07L50.19,6.42v3h1.55V11.3Z"/><path class="cls-1" d="M61.24,0a6.09,6.09,0,0,1,4.53,1.66,5.56,5.56,0,0,1,1.65,4.06,5.54,5.54,0,0,1-1.65,4.06,6.13,6.13,0,0,1-4.53,1.66,6,6,0,0,1-4.58-1.71,5.67,5.67,0,0,1-1.6-4,5.57,5.57,0,0,1,1.64-4A6.1,6.1,0,0,1,61.24,0Zm0,2a2.86,2.86,0,0,0-2.17,1,4,4,0,0,0-.89,2.82,3.78,3.78,0,0,0,.88,2.62,2.78,2.78,0,0,0,2.18,1,2.87,2.87,0,0,0,2.18-1,4,4,0,0,0,.89-2.78A3.92,3.92,0,0,0,63.46,3,2.78,2.78,0,0,0,61.24,2Z"/><path class="cls-1" d="M68.46,2.06V.18h5.31V2.06h-1.1v5a9.65,9.65,0,0,0,.08,1.45,1.23,1.23,0,0,0,.45.73,1.42,1.42,0,0,0,.91.29,1.56,1.56,0,0,0,.94-.27,1.3,1.3,0,0,0,.49-.68,8.49,8.49,0,0,0,.1-1.67V2.06H74.57V.18H79V2.06H77.64V7.62a8,8,0,0,1-.12,1.65,2.45,2.45,0,0,1-.56,1,2.93,2.93,0,0,1-1.25.82,5.18,5.18,0,0,1-1.88.32,5.7,5.7,0,0,1-2.1-.35,2.86,2.86,0,0,1-1.29-.92A3.1,3.1,0,0,1,69.89,9a10.62,10.62,0,0,1-.12-1.93v-5Z"/><path class="cls-1" d="M95.31,9.42V11.3H91.92L89.41,6.43H88.14v3h1.39V11.3H83.72V9.42h1.52V2.06H83.72V.18h6.71a3.49,3.49,0,0,1,2.73,1A3.24,3.24,0,0,1,94,3.3a2.89,2.89,0,0,1-1.92,2.76l1.8,3.36ZM88.14,4.66h1c1.23,0,1.84-.44,1.84-1.32a1.12,1.12,0,0,0-.42-1,1.84,1.84,0,0,0-1.16-.32H88.14Z"/><path class="cls-1" d="M96.35,11.3V9.42h1.33V2.06H96.35V.18h9.8V3.7H104V2.06h-3.45V4.62h2.78V6.5h-2.78V9.42H104V7.76h2.12V11.3Z"/><path class="cls-1" d="M118.69,9.42V11.3h-5.47V9.42h1.42l-.52-1.91h-2.89l-.59,1.91h1.49V11.3H107.2V9.42h1.37l2.17-7.36h-1.48V.18h7.27V2.06H115l2.34,7.36Zm-5-3.54-.93-3.35-1,3.35Z"/><path class="cls-1" d="M119.67,11.3V9.42h1.68V2.06h-1.68V.18h5.27a13.87,13.87,0,0,1,2.68.2,5,5,0,0,1,1.94.9,5.11,5.11,0,0,1,1.49,1.88,6,6,0,0,1,.56,2.61A6.31,6.31,0,0,1,131.22,8a5.05,5.05,0,0,1-1,1.69,4.42,4.42,0,0,1-1.38,1,5.74,5.74,0,0,1-1.49.49,14.82,14.82,0,0,1-2.09.11Zm4.57-1.88h.7a5,5,0,0,0,2-.33,2.49,2.49,0,0,0,1.19-1.15,4.5,4.5,0,0,0,.45-2.16,4.73,4.73,0,0,0-.45-2.16,2.53,2.53,0,0,0-1.23-1.23,5,5,0,0,0-2-.33h-.7Z"/><path class="cls-1" d="M11.92,31V29.08h1.67V21.71H11.92V24.3H10V19.83H20.1V24.3H18.21V21.71H16.49v7.37h1.67V31Z"/><path class="cls-1" d="M21.38,31V29.08h1.39V21.71H21.38V19.83h5.37v1.88H25.58v2.44h3V21.71H27.49V19.83h5.33v1.88H31.43v7.37h1.39V31H27.49V29.08h1.12V26h-3v3h1.17V31Z"/><path class="cls-1" d="M45.33,29.08V31H39.86V29.08h1.42l-.53-1.91H37.87l-.6,1.91h1.49V31H33.83V29.08h1.38l2.17-7.37H35.9V19.83h7.26v1.88h-1.5L44,29.08Zm-5-3.54-.93-3.36-1,3.36Z"/><path class="cls-1" d="M47.32,31V29.08H49V21.71H47.32V24.3H45.41V19.83H55.49V24.3H53.6V21.71H51.88v7.37h1.68V31Z"/><path class="cls-1" d="M72.06,29.08V31H68.67l-2.51-4.87H64.88v3h1.39V31H60.46V29.08H62V21.71H60.46V19.83h6.71a3.46,3.46,0,0,1,2.73,1A3.2,3.2,0,0,1,70.74,23a2.9,2.9,0,0,1-1.93,2.77l1.81,3.36Zm-7.18-4.77h1c1.23,0,1.84-.43,1.84-1.31a1.15,1.15,0,0,0-.42-1,1.87,1.87,0,0,0-1.15-.32H64.88Z"/><path class="cls-1" d="M73,31V29.08h1.68V21.71H73V19.83h6.28v1.88h-1.7v7.37h1.7V31Z"/><path class="cls-1" d="M87.52,27.22V25.34h5.22A6.06,6.06,0,0,1,92,28.55a5.07,5.07,0,0,1-2.13,1.87,7.08,7.08,0,0,1-3.13.67,6.26,6.26,0,0,1-4.63-1.61,5.59,5.59,0,0,1-1.61-4.1,5.78,5.78,0,0,1,.8-3.05,5.11,5.11,0,0,1,2.15-2,6.48,6.48,0,0,1,2.94-.67,5.09,5.09,0,0,1,3.48,1.09v-.92h1.89v4H89.88a2.75,2.75,0,0,0-1.17-1.57,3.44,3.44,0,0,0-1.89-.58,3.1,3.1,0,0,0-2.26.94,3.52,3.52,0,0,0-.94,2.61,4.07,4.07,0,0,0,.95,2.9,3.11,3.11,0,0,0,2.32,1,2.71,2.71,0,0,0,1.67-.49,2.45,2.45,0,0,0,.92-1.36Z"/><path class="cls-1" d="M94.1,31V29.08h1.39V21.71H94.1V19.83h5.38v1.88H98.31v2.44h3V21.71h-1.13V19.83h5.34v1.88h-1.39v7.37h1.39V31h-5.34V29.08h1.13V26h-3v3h1.17V31Z"/><path class="cls-1" d="M108.75,31V29.08h1.67V21.71h-1.67V24.3h-1.91V19.83h10.09V24.3H115V21.71h-1.72v7.37H115V31Z"/><path class="cls-1" d="M118.73,31V28.28h2.67V31Zm.74-3.88-.68-4.2V19.83h2.47v3.05l-.63,4.2Z"/></g></g></svg>