<svg xmlns="http://www.w3.org/2000/svg" viewBox="0 0 154.7 26.27"><defs><style>.cls-1{fill:#231f20;}</style></defs><title>t5-320</title><g id="Layer_2" data-name="Layer 2"><g id="Layer_1-2" data-name="Layer 1"><path class="cls-1" d="M0,9V7.48H1.26V1.63H0V.14H4.85V1.63H3.56V7.48H6.17V4.75H7.89V9Z"/><path class="cls-1" d="M8.74,9V7.48h1.34V1.63H8.74V.14h5V1.63H12.38V7.48h1.35V9Z"/><path class="cls-1" d="M14.85,9V7.48H16V1.63H14.85V.14h4.43l1.94,5.17,2-5.17h4.51V1.63H26.54V7.48h1.14V9H23.24V7.48H24.3V1.63h-.21L21.36,9h-1L17.64,1.63h-.21V7.48h1.15V9Z"/><path class="cls-1" d="M28.81,9V7.48h1.34V1.63H28.81V.14h5V1.63H32.44V7.48H33.8V9Z"/><path class="cls-1" d="M36.29,9V7.48h1.32V1.63H36.29V3.69H34.77V.14h8V3.69h-1.5V1.63H39.91V7.48h1.33V9Z"/><path class="cls-1" d="M43.82,9V7.48h1.06V1.63H43.82V.14H51.6v2.8H49.91V1.63H47.18v2h2.21V5.16H47.18V7.48h2.73V6.16H51.6V9Z"/><path class="cls-1" d="M52.9,9V7.48h1.33V1.63H52.9V.14h4.18A11.13,11.13,0,0,1,59.21.3,3.86,3.86,0,0,1,60.75,1a3.93,3.93,0,0,1,1.18,1.49,4.83,4.83,0,0,1,.44,2.07,4.93,4.93,0,0,1-.31,1.75,4.13,4.13,0,0,1-.77,1.35,3.42,3.42,0,0,1-1.1.81A4.64,4.64,0,0,1,59,8.88,11,11,0,0,1,57.35,9Zm3.63-1.49h.55a4,4,0,0,0,1.59-.26,2,2,0,0,0,.94-.92A3.57,3.57,0,0,0,60,4.58a3.72,3.72,0,0,0-.36-1.71,2,2,0,0,0-1-1,3.9,3.9,0,0,0-1.56-.27h-.55Z"/><path class="cls-1" d="M68.18,9V7.48h1.33V1.63H68.18V3.69H66.66V.14h8V3.69h-1.5V1.63H71.8V7.48h1.33V9Z"/><path class="cls-1" d="M75.65,9V7.48H77V1.63H75.65V.14h5V1.63H79.28V7.48h1.36V9Z"/><path class="cls-1" d="M81.76,9V7.48H82.9V1.63H81.76V.14h4.43l1.93,5.17L90.07.14h4.52V1.63H93.44V7.48h1.15V9H90.14V7.48h1.07V1.63H91L88.26,9h-1L84.54,1.63h-.21V7.48h1.16V9Z"/><path class="cls-1" d="M95.82,9V7.48h1.06V1.63H95.82V.14h7.78v2.8h-1.68V1.63H99.18v2h2.21V5.16H99.18V7.48h2.74V6.16h1.68V9Z"/><path class="cls-1" d="M112.86,0a4.86,4.86,0,0,1,3.6,1.32,4.41,4.41,0,0,1,1.31,3.22,4.38,4.38,0,0,1-1.32,3.22,4.83,4.83,0,0,1-3.59,1.32,4.73,4.73,0,0,1-3.64-1.36A4.52,4.52,0,0,1,108,4.54a4.44,4.44,0,0,1,1.31-3.22A4.83,4.83,0,0,1,112.86,0Zm0,1.61a2.28,2.28,0,0,0-1.72.76,3.16,3.16,0,0,0-.71,2.24,3,3,0,0,0,.7,2.08,2.22,2.22,0,0,0,1.73.78,2.28,2.28,0,0,0,1.73-.76,3.16,3.16,0,0,0,.71-2.21,3.15,3.15,0,0,0-.68-2.09A2.21,2.21,0,0,0,112.86,1.61Z"/><path class="cls-1" d="M118.78,9V7.48H120V1.63h-1.26V.14h7.9V2.86H125V1.63h-2.66v2h1.91v1.5h-1.91V7.48h1.36V9Z"/><path class="cls-1" d="M127.57,9V7.48h1.26V1.63h-1.26V.14h7.9V2.86h-1.69V1.63h-2.65v2H133v1.5h-1.91V7.48h1.36V9Z"/><path class="cls-1" d="M136.38,9V7.48h1.06V1.63h-1.06V.14h7.78v2.8h-1.68V1.63h-2.74v2H142V5.16h-2.21V7.48h2.74V6.16h1.68V9Z"/><path class="cls-1" d="M154.7,7.48V9H152L150,5.1h-1V7.48h1.11V9h-4.62V7.48h1.21V1.63h-1.21V.14h5.33A2.75,2.75,0,0,1,153,.9a2.54,2.54,0,0,1,.66,1.72,2.29,2.29,0,0,1-1.53,2.19l1.43,2.67ZM149,3.69h.79c1,0,1.46-.34,1.46-1a.92.92,0,0,0-.33-.77,1.57,1.57,0,0,0-.92-.25h-1Z"/><path class="cls-1" d="M23.19,24.57V21.36h1.1v.78a2.37,2.37,0,0,0,2.08,1.44,1.57,1.57,0,0,0,1.1-.4,1.29,1.29,0,0,0,.46-1,1.09,1.09,0,0,0-.37-.91,4.83,4.83,0,0,0-1.39-.55,9.93,9.93,0,0,1-1.76-.6,2.14,2.14,0,0,1-.91-.8A2.22,2.22,0,0,1,23.16,18a2.27,2.27,0,0,1,.74-1.78,2.67,2.67,0,0,1,1.85-.66,3.17,3.17,0,0,1,2,.69v-.6H28.8v2.68H27.72v-.61a2.13,2.13,0,0,0-1.87-1,1.67,1.67,0,0,0-1.11.33,1,1,0,0,0-.39.8,1,1,0,0,0,.2.62,1.22,1.22,0,0,0,.5.4,11,11,0,0,0,1.2.35,9.11,9.11,0,0,1,1.7.57,2.29,2.29,0,0,1,.9.88,2.57,2.57,0,0,1,.38,1.41A2.43,2.43,0,0,1,28.44,24a2.81,2.81,0,0,1-2,.74,3.18,3.18,0,0,1-2.17-.87v.73Z"/><path class="cls-1" d="M30.35,20.11a4.45,4.45,0,0,1,1.26-3.22,4.37,4.37,0,0,1,3.27-1.29,4.42,4.42,0,0,1,4.61,4.54,4.45,4.45,0,0,1-1.31,3.28,4.51,4.51,0,0,1-3.31,1.29,4.74,4.74,0,0,1-2.36-.61,3.93,3.93,0,0,1-1.62-1.71A5.09,5.09,0,0,1,30.35,20.11Zm1.45,0a3.6,3.6,0,0,0,.86,2.44,2.81,2.81,0,0,0,2.23,1,2.84,2.84,0,0,0,2.25-1,3.51,3.51,0,0,0,.89-2.4,3.37,3.37,0,0,0-.9-2.38,3,3,0,0,0-2.26-1,2.83,2.83,0,0,0-2.21,1A3.47,3.47,0,0,0,31.8,20.12Z"/><path class="cls-1" d="M50,20.31h3.21v.3a3.82,3.82,0,0,1-1.22,3,4.53,4.53,0,0,1-3.21,1.12,4.48,4.48,0,0,1-3.57-1.36A4.78,4.78,0,0,1,44,20.13a4.57,4.57,0,0,1,1.2-3.24,4.2,4.2,0,0,1,3.25-1.29,4.46,4.46,0,0,1,3.1,1.12v-1h1.12v2.9H51.56a3.33,3.33,0,0,0-3-1.87,2.86,2.86,0,0,0-2.28,1,3.5,3.5,0,0,0-.84,2.36,3.33,3.33,0,0,0,.95,2.5,3.19,3.19,0,0,0,2.3.93A3.16,3.16,0,0,0,50.59,23a2.21,2.21,0,0,0,1-1.54H50Z"/><path class="cls-1" d="M55.3,23.46V16.84H54.16v-1.1h7.33V18.4H60.4V16.84H56.63v2.63h3.28v1.11H56.63v2.88H60.4v-1.6h1.09v2.71H54.16V23.46Z"/><path class="cls-1" d="M65.33,23.46V16.84H63.51V19.1H62.42V15.74h7.15V19.1H68.48V16.84H66.66v6.62h1.15v1.11H64.2V23.46Z"/><path class="cls-1" d="M74.33,23.46V16.84h-1v-1.1h3.24v1.1h-1v6.62h1v1.11H73.38V23.46Z"/><path class="cls-1" d="M78.75,23.46V16.84H77.49v-1.1h3l3.88,6.86V16.84H83.12v-1.1h3.63v1.1h-1.3v7.82H84.08l-4.24-7.54v6.34h1.27v1.11H77.49V23.46Z"/><path class="cls-1" d="M95.84,24.66l.26.12a4.66,4.66,0,0,0,1.59.42,3.43,3.43,0,0,0,.47-.05l-.47,1.09-.35,0a4.37,4.37,0,0,1-1.74-.54,3.8,3.8,0,0,0-1.49-.45,1.29,1.29,0,0,0-.91.31l-.38-.54a1.78,1.78,0,0,1,1-.53A4.54,4.54,0,0,1,92,23.44a4.36,4.36,0,0,1-1-1.61,5.39,5.39,0,0,1-.29-1.71,4.5,4.5,0,0,1,1.24-3.2A4.29,4.29,0,0,1,95.2,15.6a4.48,4.48,0,0,1,3.33,1.29,4.42,4.42,0,0,1,1.27,3.25,5,5,0,0,1-.4,2A4.25,4.25,0,0,1,98,23.81,4,4,0,0,1,95.84,24.66Zm-3.71-4.54A3.59,3.59,0,0,0,93,22.56a3,3,0,0,0,4.48,0,3.51,3.51,0,0,0,.89-2.4,3.37,3.37,0,0,0-.9-2.38,3,3,0,0,0-2.26-1,2.83,2.83,0,0,0-2.21,1A3.46,3.46,0,0,0,92.13,20.12Z"/><path class="cls-1" d="M102.94,16.84v4.42a6.44,6.44,0,0,0,.1,1.42,1.14,1.14,0,0,0,.53.67,1.88,1.88,0,0,0,1.08.28,2.45,2.45,0,0,0,1.2-.24,1.16,1.16,0,0,0,.56-.64,5.16,5.16,0,0,0,.13-1.43V16.84h-1v-1.1H109v1.1h-1.11v4.62a8.42,8.42,0,0,1-.08,1.35,2.08,2.08,0,0,1-.43.89,2.41,2.41,0,0,1-1,.73,3.75,3.75,0,0,1-1.54.28,4.68,4.68,0,0,1-1.67-.26,2.27,2.27,0,0,1-1-.69,2.3,2.3,0,0,1-.44-.92,7.06,7.06,0,0,1-.11-1.52V16.84h-1.1v-1.1H104v1.1Z"/><path class="cls-1" d="M110.86,23.46V16.84h-1v-1.1h3.24v1.1h-1v6.62h1v1.11H109.9V23.46Z"/><path class="cls-1" d="M121.67,21l1.15.64a3.85,3.85,0,0,1-1.57,2.28,4.66,4.66,0,0,1-2.71.81,4.2,4.2,0,0,1-3.21-1.3,4.55,4.55,0,0,1-1.22-3.22,4.6,4.6,0,0,1,1.22-3.35,4.24,4.24,0,0,1,3.18-1.24,4.53,4.53,0,0,1,2.92.94v-.8h1.14v2.84h-1.14a2.91,2.91,0,0,0-1.18-1.34,3.15,3.15,0,0,0-1.67-.47,2.77,2.77,0,0,0-2.17.95,3.5,3.5,0,0,0-.84,2.41,3.38,3.38,0,0,0,.9,2.43,2.94,2.94,0,0,0,4,.29A3.56,3.56,0,0,0,121.67,21Z"/><path class="cls-1" d="M124.86,23.46V16.84h-1.11v-1.1h3.57v1.1h-1.13v6.62h1v1.11h-3.45V23.46Zm1.37-3.55,2.83-3.07h-1v-1.1h3.46v1.1h-.94l-2.71,3.07,2.79,3.55h.95v1.11H128V23.46h1Z"/></g></g></svg>