<?xml version="1.0" encoding="UTF-8"?><svg xmlns="http://www.w3.org/2000/svg" xmlns:xlink="http://www.w3.org/1999/xlink" viewBox="0 0 300 250"><defs><style>.e,.f{fill:none;}.f{stroke:#fff;stroke-miterlimit:10;stroke-width:1.5px;}.g{fill:#fff;}.h{clip-path:url(#d);}</style><clipPath id="d"><rect class="e" width="300" height="250"/></clipPath></defs><g id="a"/><g id="b"><g id="c"><g class="h"><g><path class="g" d="M33.09,48.45c.56,.56,1.17,1.02,1.83,1.43,1.17,.76,2.75,1.38,4.53,1.38,2.29,0,3.82-1.53,3.82-3.31s-1.53-3.31-3.82-3.31c-1.17,0-2.04,.41-2.65,.76-.36,.25-.66,.51-.92,.76l-7.9-1.53,1.53-20.37h23.94v9.42h-13.5l-.51,3.82c.41-.2,.87-.36,1.38-.51,.87-.25,2.04-.51,3.46-.51,6.37,0,11.46,5.04,11.46,11.71,0,7.13-5.6,12.73-14.52,12.73-4.89,0-8.51-1.43-10.9-2.9-1.43-.87-2.65-1.88-3.62-2.95l6.37-6.62Z"/><path class="g" d="M57.98,42.09c0-11.46,7.39-18.85,16.04-18.85s16.04,7.39,16.04,18.85-7.38,18.85-16.04,18.85-16.04-7.39-16.04-18.85Zm20.63,0c0-6.37-2.29-8.66-4.58-8.66s-4.58,2.29-4.58,8.66,2.29,8.66,4.58,8.66,4.58-2.29,4.58-8.66Z"/><path class="g" d="M100.88,23.5c5.35,0,9.68,4.07,9.68,9.17s-4.33,9.17-9.68,9.17-9.68-4.07-9.68-9.17,4.33-9.17,9.68-9.17Zm19.1,.76h9.17l-22.41,35.65h-9.17l22.41-35.65Zm-19.1,10.95c1.58,0,2.55-1.27,2.55-2.55s-.97-2.55-2.55-2.55-2.55,1.27-2.55,2.55,.97,2.55,2.55,2.55Zm24.96,7.13c5.35,0,9.68,4.07,9.68,9.17s-4.33,9.17-9.68,9.17-9.68-4.07-9.68-9.17,4.33-9.17,9.68-9.17Zm0,11.71c1.58,0,2.55-1.27,2.55-2.55s-.97-2.55-2.55-2.55-2.55,1.27-2.55,2.55,.97,2.55,2.55,2.55Z"/><path class="f" d="M167.55,23.24c11.66,0,20.12,8.4,20.12,18.85s-8.46,18.85-20.12,18.85-20.12-8.4-20.12-18.85,8.46-18.85,20.12-18.85Zm0,27.5c4.89,0,8.66-3.77,8.66-8.66s-3.77-8.66-8.66-8.66-8.66,3.77-8.66,8.66,3.77,8.66,8.66,8.66Z"/><path class="f" d="M193.32,24.26h28.27v9.93h-16.81v5.35h12.73v9.17h-12.73v11.21h-11.46V24.26Z"/><path class="f" d="M226.73,24.26h28.27v9.93h-16.81v5.35h12.73v9.17h-12.73v11.21h-11.46V24.26Z"/></g></g></g></g></svg>