<?xml version="1.0" encoding="UTF-8"?><svg xmlns="http://www.w3.org/2000/svg" xmlns:xlink="http://www.w3.org/1999/xlink" viewBox="0 0 300 250"><defs><style>.e{fill:none;}.f{fill:#fff;}.g{clip-path:url(#d);}</style><clipPath id="d"><rect class="e" width="300" height="250"/></clipPath></defs><g id="a"/><g id="b"><g id="c"><g class="g"><g><path class="f" d="M25.93,87.49c.11,.04,.21,.08,.34,.1,.23,.06,.5,.1,.82,.1,.94,0,1.47-.52,1.78-1.26l.21-.52-3.99-10.18h3.04l2.41,6.82h.11l2.31-6.82h3.04l-4.2,11.13c-.86,2.33-2.08,3.57-3.99,3.57-.52,0-1.01-.06-1.34-.15-.19-.06-.38-.1-.55-.17v-2.62Z"/><path class="f" d="M42.1,75.53c3.04,0,5.46,2.41,5.46,5.35s-2.41,5.35-5.46,5.35-5.46-2.41-5.46-5.35,2.42-5.35,5.46-5.35Zm2.62,5.35c0-1.57-1.16-2.73-2.62-2.73s-2.62,1.15-2.62,2.73,1.15,2.73,2.62,2.73,2.62-1.15,2.62-2.73Z"/><path class="f" d="M49.66,75.74h2.83v5.77c0,1.26,.71,1.99,1.89,1.99,1.26,0,2.2-.94,2.2-2.31v-5.46h2.83v10.29h-2.83v-1.47h-.1c-.23,.31-.48,.59-.78,.84-.5,.42-1.28,.84-2.27,.84-2.1,0-3.78-1.68-3.78-4.3v-6.19Z"/><path class="f" d="M62.16,75.74h2.83v1.47h.1c.23-.31,.48-.59,.78-.84,.5-.42,1.26-.84,2.27-.84h.21v3.04l-.23-.04c-.17-.02-.4-.06-.71-.06-1.36,0-2.41,1.05-2.41,2.73v4.83h-2.83v-10.29Z"/><path class="f" d="M74.76,78.57h-1.57v-2.62h1.57v-1.05c0-2.44,1.37-3.78,3.46-3.78,.48,0,.88,.08,1.2,.17,.17,.06,.34,.1,.48,.15v2.62c-.08-.02-.17-.06-.27-.1-.17-.06-.42-.1-.67-.1-.84,0-1.36,.52-1.36,1.47v.63h6.61v10.08h-2.83v-7.45h-3.78v7.45h-2.83v-7.45Zm8.04-7.35c.9,0,1.62,.73,1.62,1.57s-.73,1.57-1.64,1.57-1.62-.73-1.62-1.57,.73-1.57,1.64-1.57Z"/><path class="f" d="M87.04,75.74h2.83v1.47h.11c.23-.31,.48-.59,.78-.84,.5-.42,1.26-.84,2.27-.84h.21v3.04l-.23-.04c-.17-.02-.4-.06-.71-.06-1.37,0-2.42,1.05-2.42,2.73v4.83h-2.83v-10.29Z"/><path class="f" d="M95.65,82.56c.21,.23,.46,.42,.74,.59,.48,.31,1.15,.57,1.99,.57,.95,0,1.26-.31,1.26-.73,0-1.15-5.25-.94-5.25-4.3,0-1.68,1.47-3.15,4.09-3.15,1.32,0,2.31,.4,2.98,.8,.4,.23,.73,.5,1.01,.78l-1.68,1.78c-.17-.15-.38-.29-.61-.42-.4-.23-.97-.42-1.7-.42s-1.05,.31-1.05,.63c0,1.15,5.25,.94,5.25,4.3,0,1.76-1.47,3.25-4.3,3.25-1.43,0-2.52-.46-3.28-.94-.44-.27-.82-.59-1.13-.94l1.68-1.78Z"/><path class="f" d="M105.42,78.57h-1.78v-2.62h.94c.78,0,1.16-.42,1.16-1.26v-1.89h2.52v3.15h2.31v2.62h-2.31v3.46c0,.94,.52,1.47,1.36,1.47,.32,0,.59-.04,.82-.1,.13-.02,.23-.06,.34-.1v2.62c-.17,.06-.36,.1-.55,.17-.34,.08-.82,.15-1.34,.15-2.1,0-3.46-1.34-3.46-3.78v-3.88Z"/><path class="f" d="M127.05,83.09v2.94h-10.39c0-6.93,7.14-6.93,7.14-10.18,0-1.07-.84-1.89-2.1-1.89-.9,0-1.53,.46-1.93,.9-.23,.25-.44,.55-.59,.88l-2.52-1.26c.27-.65,.63-1.22,1.09-1.72,.8-.86,2.1-1.74,4.16-1.74,3.15,0,5.14,2.02,5.14,4.62,0,4.18-4.62,4.85-6.3,7.45h6.3Z"/><path class="f" d="M138.7,75.53c3.04,0,5.46,2.41,5.46,5.35s-2.42,5.35-5.46,5.35-5.46-2.41-5.46-5.35,2.41-5.35,5.46-5.35Zm2.62,5.35c0-1.57-1.15-2.73-2.62-2.73s-2.62,1.15-2.62,2.73,1.16,2.73,2.62,2.73,2.62-1.15,2.62-2.73Z"/><path class="f" d="M146.26,75.74h2.83v1.47h.1c.23-.31,.48-.59,.78-.84,.5-.42,1.26-.84,2.27-.84h.21v3.04l-.23-.04c-.17-.02-.4-.06-.71-.06-1.36,0-2.41,1.05-2.41,2.73v4.83h-2.83v-10.29Z"/><path class="f" d="M161.38,84.56h-.1c-.21,.31-.48,.59-.8,.84-.57,.42-1.37,.84-2.46,.84-2.44,0-4.62-2.2-4.62-5.35s2.18-5.35,4.62-5.35c1.09,0,1.89,.42,2.46,.84,.31,.25,.59,.52,.8,.84h.1v-5.88h2.83v14.7h-2.83v-1.47Zm.11-3.67c0-1.57-1.16-2.73-2.62-2.73s-2.62,1.15-2.62,2.73,1.15,2.73,2.62,2.73,2.62-1.15,2.62-2.73Z"/><path class="f" d="M176.29,84.56c-.32,.31-.69,.59-1.13,.84-.76,.42-1.85,.84-3.28,.84-3.04,0-5.46-2.41-5.46-5.35s2.41-5.35,5.35-5.35,5.14,2.31,5.14,5.14c0,.4-.04,.67-.06,.9l-.04,.36h-7.45c.31,.94,1.15,1.78,2.73,1.78,.9,0,1.55-.25,2.04-.57,.27-.17,.5-.36,.69-.59l1.47,1.99Zm-2.31-4.72c-.32-.94-1.13-1.78-2.31-1.78s-2,.84-2.31,1.78h4.62Z"/><path class="f" d="M179.02,75.74h2.83v1.47h.11c.23-.31,.48-.59,.78-.84,.5-.42,1.26-.84,2.27-.84h.21v3.04l-.23-.04c-.17-.02-.4-.06-.71-.06-1.37,0-2.42,1.05-2.42,2.73v4.83h-2.83v-10.29Z"/><path class="f" d="M187.63,82.56c.21,.23,.46,.42,.74,.59,.48,.31,1.15,.57,1.99,.57,.95,0,1.26-.31,1.26-.73,0-1.15-5.25-.94-5.25-4.3,0-1.68,1.47-3.15,4.09-3.15,1.32,0,2.31,.4,2.98,.8,.4,.23,.73,.5,1.01,.78l-1.68,1.78c-.17-.15-.38-.29-.61-.42-.4-.23-.97-.42-1.7-.42s-1.05,.31-1.05,.63c0,1.15,5.25,.94,5.25,4.3,0,1.76-1.47,3.25-4.3,3.25-1.43,0-2.52-.46-3.28-.94-.44-.27-.82-.59-1.13-.94l1.68-1.78Z"/><path class="f" d="M196.91,72.79l-1.41-.24,.37-1.16,1.35,.55-.18-1.47h1.22l-.18,1.47,1.35-.55,.37,1.16-1.41,.24,1.04,1.1-.98,.73-.8-1.29-.8,1.29-.98-.73,1.04-1.1Z"/></g></g></g></g></svg>