<?xml version="1.0" encoding="UTF-8"?><svg xmlns="http://www.w3.org/2000/svg" xmlns:xlink="http://www.w3.org/1999/xlink" viewBox="0 0 300 250"><defs><style>.e{fill:none;}.f{fill:#fff;}.g{clip-path:url(#d);}</style><clipPath id="d"><rect class="e" width="300" height="250"/></clipPath></defs><g id="a"/><g id="b"><g id="c"><g class="g"><g><path class="f" d="M206.92,239.19l-.75-.18,.12-.33,.72,.24-.06-.78h.36l-.06,.78,.72-.24,.12,.33-.75,.18,.51,.63-.27,.21-.45-.66-.45,.66-.27-.21,.51-.63Z"/><path class="f" d="M209.9,238.56h-1.32l.09-.42h3.09l-.09,.42h-1.32l-.8,3.78h-.45l.8-3.78Z"/><path class="f" d="M214.7,242.35s-.04,.02-.06,.02c-.04,.01-.1,.02-.17,.02-.19,0-.34-.11-.44-.22-.06-.07-.11-.14-.16-.23-.09,.08-.19,.16-.31,.23-.2,.11-.47,.22-.83,.22-.64,0-1.08-.39-1.08-.99,0-.44,.27-.76,.55-.98,.16-.13,.34-.25,.54-.34-.08-.11-.14-.22-.2-.34-.1-.21-.2-.46-.2-.71,0-.53,.48-.95,1.02-.95s.93,.36,.93,.83c0,.36-.26,.68-.52,.89-.15,.13-.32,.25-.52,.35l.73,1.19c.07-.08,.13-.18,.19-.29,.1-.19,.22-.45,.27-.76h.39c-.07,.43-.23,.77-.38,1.01-.08,.14-.17,.26-.28,.37,.04,.07,.08,.12,.12,.17,.07,.09,.17,.16,.28,.16,.05,0,.1,0,.14-.01l.05-.02-.08,.38Zm-1.77-2c-.16,.1-.31,.2-.44,.31-.22,.19-.44,.44-.44,.75,0,.34,.21,.6,.69,.6,.28,0,.51-.09,.68-.18,.1-.05,.19-.11,.26-.18l-.74-1.3Zm.56-.75c.2-.17,.4-.39,.4-.65,0-.27-.22-.49-.53-.49-.39,0-.63,.26-.63,.57,0,.19,.09,.39,.18,.55,.05,.1,.11,.19,.18,.28,.15-.08,.28-.17,.4-.27Z"/><path class="f" d="M219.12,241.7c-.14,.13-.29,.25-.46,.35-.29,.17-.7,.35-1.2,.35-1.16,0-1.96-.88-1.96-1.95,0-1.34,1.16-2.37,2.4-2.37,1.18,0,1.66,.91,1.66,.91l-.36,.26c-.08-.14-.18-.26-.31-.37-.22-.19-.56-.37-1.04-.37-.98,0-1.9,.86-1.9,1.95,0,.86,.64,1.53,1.55,1.53,.41,0,.76-.14,1-.29,.14-.09,.26-.19,.38-.3l.23,.32Z"/><path class="f" d="M219.94,241.51s.22,.5,.77,.5c.38,0,.62-.2,.62-.49,0-.53-1.29-.5-1.29-1.27,0-.46,.42-.86,1.01-.86,.69,0,.97,.5,.97,.49l-.36,.26s-.16-.36-.64-.36c-.33,0-.55,.21-.55,.43,0,.51,1.29,.44,1.29,1.26,0,.51-.44,.92-1.08,.92-.85,0-1.09-.63-1.1-.62l.36-.26Z"/><path class="f" d="M225.42,241.98c-.07,.08-.14,.15-.23,.21-.16,.11-.4,.21-.71,.21-.59,0-.93-.38-.93-.81s.34-.79,.92-.88l1.26-.2s.01-.08,.01-.11c0-.34-.24-.61-.67-.61-.23,0-.43,.08-.57,.17-.08,.05-.16,.1-.22,.16l-.22-.3c.09-.08,.19-.14,.29-.21,.19-.1,.44-.21,.75-.21,.6,0,1.04,.37,1.04,.97,0,.09,0,.19-.03,.29l-.35,1.68h-.42l.07-.36Zm.23-1.1l-1.06,.17c-.47,.08-.63,.3-.63,.53s.2,.42,.54,.42c.58,0,.96-.38,1.09-.89l.05-.24Z"/><path class="f" d="M227.31,239.46h.42l-.08,.4c.07-.08,.15-.16,.25-.23,.17-.11,.41-.23,.73-.23,.7,0,1.22,.52,1.22,1.32,0,.97-.8,1.68-1.55,1.68-.43,0-.68-.16-.84-.33-.1-.1-.17-.2-.22-.33l-.4,1.86h-.42l.88-4.14Zm2.12,1.26c0-.52-.35-.93-.86-.93-.56,0-1.15,.54-1.15,1.23,0,.57,.37,.99,.88,.99,.58,0,1.13-.55,1.13-1.29Z"/><path class="f" d="M230.88,239.46h.42l-.08,.4c.07-.08,.15-.16,.25-.23,.17-.11,.41-.23,.73-.23,.7,0,1.22,.52,1.22,1.32,0,.97-.8,1.68-1.55,1.68-.43,0-.68-.16-.84-.33-.1-.1-.17-.2-.22-.33l-.4,1.86h-.42l.88-4.14Zm2.12,1.26c0-.52-.35-.93-.86-.93-.56,0-1.15,.54-1.15,1.23,0,.57,.37,.99,.88,.99,.58,0,1.13-.55,1.13-1.29Z"/><path class="f" d="M234.75,238.14h.42l-.89,4.2h-.42l.89-4.2Z"/><path class="f" d="M234.83,243.13l.08,.04c.05,.02,.12,.04,.21,.04,.27,0,.44-.14,.62-.45l.24-.42-.54-2.88h.43l.44,2.32,1.42-2.32h.47l-2.02,3.3c-.37,.59-.62,.84-1.08,.84-.11,0-.2-.02-.26-.04l-.09-.04,.08-.39Z"/><path class="f" d="M237.9,242.12c0-.19,.15-.32,.32-.32,.16,0,.28,.11,.28,.28,0,.17-.15,.32-.32,.32-.16,0-.28-.11-.28-.28Z"/><path class="f" d="M240.8,241.32c.07,.13,.15,.23,.25,.33,.19,.17,.46,.33,.92,.33,.58,0,.96-.35,.96-.81,0-.84-1.89-.65-1.89-1.89,0-.61,.56-1.2,1.41-1.2,.47,0,.8,.17,1.01,.33,.13,.1,.23,.21,.31,.33l-.36,.28c-.05-.1-.13-.18-.22-.26-.16-.14-.41-.26-.77-.26-.56,0-.93,.38-.93,.78,0,.83,1.89,.67,1.89,1.89,0,.67-.58,1.23-1.44,1.23-.55,0-.93-.19-1.17-.39-.14-.11-.25-.24-.34-.39l.37-.3Z"/><path class="f" d="M246.39,241.94c-.09,.08-.19,.16-.31,.23-.2,.11-.47,.23-.82,.23-.78,0-1.31-.6-1.31-1.35,0-.96,.82-1.65,1.61-1.65,.72,0,1.24,.53,1.24,1.23,0,.11-.01,.22-.03,.29l-.02,.13h-2.39c0,.58,.43,.96,.96,.96,.26,0,.47-.09,.62-.18,.09-.05,.17-.11,.24-.19l.21,.3Zm0-1.25v-.02s0-.02,0-.04c0-.39-.32-.85-.88-.85-.5,0-1,.42-1.09,.9h1.96Z"/><path class="f" d="M249.75,241.94c-.09,.08-.19,.16-.31,.23-.2,.11-.47,.23-.82,.23-.78,0-1.31-.6-1.31-1.35,0-.96,.82-1.65,1.61-1.65,.72,0,1.24,.53,1.24,1.23,0,.11-.01,.22-.03,.29l-.02,.13h-2.39c0,.58,.43,.96,.96,.96,.26,0,.47-.09,.62-.18,.09-.05,.17-.11,.24-.19l.21,.3Zm0-1.25v-.02s0-.02,0-.04c0-.39-.32-.85-.88-.85-.5,0-1,.42-1.09,.9h1.96Z"/><path class="f" d="M253.71,241.98c-.07,.08-.14,.15-.23,.21-.16,.11-.4,.21-.71,.21-.59,0-.93-.38-.93-.81s.34-.79,.92-.88l1.27-.2s.01-.08,.01-.11c0-.34-.24-.61-.67-.61-.23,0-.43,.08-.57,.17-.08,.05-.16,.1-.22,.16l-.22-.3c.09-.08,.19-.14,.29-.21,.19-.1,.44-.21,.75-.21,.6,0,1.04,.37,1.04,.97,0,.09,0,.19-.03,.29l-.35,1.68h-.42l.07-.36Zm.23-1.1l-1.06,.17c-.47,.08-.63,.3-.63,.53s.2,.42,.54,.42c.58,0,.97-.38,1.09-.89l.05-.24Z"/><path class="f" d="M255.6,239.46h.42l-.08,.4c.07-.08,.15-.16,.25-.23,.17-.11,.41-.23,.73-.23,.7,0,1.22,.52,1.22,1.32,0,.97-.8,1.68-1.55,1.68-.43,0-.68-.16-.84-.33-.1-.1-.17-.2-.22-.33l-.4,1.86h-.42l.88-4.14Zm2.12,1.26c0-.52-.35-.93-.86-.93-.56,0-1.15,.54-1.15,1.23,0,.57,.37,.99,.88,.99,.58,0,1.13-.55,1.13-1.29Z"/><path class="f" d="M259.17,239.46h.42l-.08,.4c.07-.08,.15-.16,.25-.23,.17-.11,.41-.23,.73-.23,.7,0,1.22,.52,1.22,1.32,0,.97-.8,1.68-1.55,1.68-.43,0-.68-.16-.84-.33-.1-.1-.17-.2-.22-.33l-.4,1.86h-.42l.88-4.14Zm2.12,1.26c0-.52-.35-.93-.86-.93-.56,0-1.15,.54-1.15,1.23,0,.57,.37,.99,.88,.99,.58,0,1.13-.55,1.13-1.29Z"/><path class="f" d="M264.06,239.85h-.45l.08-.39h.45l.11-.54c.11-.55,.37-.84,.89-.84,.14,0,.25,.04,.34,.07,.05,.02,.09,.04,.13,.06l-.08,.39s-.07-.04-.11-.06c-.07-.03-.17-.07-.3-.07-.21,0-.37,.11-.44,.45l-.11,.54h.69l-.08,.39h-.69l-.53,2.49h-.42l.53-2.49Z"/><path class="f" d="M265.4,241.05c0-.94,.75-1.65,1.64-1.65,.79,0,1.34,.6,1.34,1.35,0,.94-.75,1.65-1.64,1.65-.79,0-1.34-.6-1.34-1.35Zm2.55-.3c0-.52-.39-.96-.95-.96-.63,0-1.19,.52-1.19,1.26,0,.52,.39,.96,.95,.96,.63,0,1.19-.52,1.19-1.26Z"/><path class="f" d="M269.43,239.46h.42l-.07,.33c.07-.07,.15-.14,.25-.2,.16-.1,.4-.2,.68-.2h.23l-.09,.42h-.28c-.39,0-.86,.28-1,.93l-.34,1.59h-.42l.61-2.88Z"/><path class="f" d="M274.35,241.94c-.07,.08-.16,.16-.26,.23-.17,.11-.41,.23-.72,.23-.7,0-1.22-.52-1.22-1.32,0-.97,.8-1.68,1.55-1.68,.41,0,.68,.17,.84,.33,.1,.1,.17,.21,.22,.33l.4-1.92h.42l-.89,4.2h-.42l.08-.4Zm.23-1.16c0-.57-.37-.99-.88-.99-.58,0-1.13,.55-1.13,1.29,0,.52,.35,.93,.86,.93,.56,0,1.15-.54,1.15-1.23Z"/><path class="f" d="M278.19,241.94c-.09,.08-.19,.16-.31,.23-.2,.11-.47,.23-.82,.23-.78,0-1.31-.6-1.31-1.35,0-.96,.82-1.65,1.61-1.65,.72,0,1.24,.53,1.24,1.23,0,.11-.01,.22-.03,.29l-.02,.13h-2.39c0,.58,.43,.96,.96,.96,.26,0,.47-.09,.62-.18,.09-.05,.17-.11,.24-.19l.21,.3Zm0-1.25v-.02s0-.02,0-.04c0-.39-.32-.85-.88-.85-.5,0-1,.42-1.09,.9h1.96Z"/><path class="f" d="M279.78,239.85h-.54l.08-.39h.33c.16,0,.26-.1,.3-.3l.14-.66h.39l-.2,.96h.63l-.08,.39h-.63l-.35,1.65c-.01,.05-.02,.11-.02,.15,0,.23,.15,.36,.41,.36,.09,0,.15,0,.22-.02l.1-.02-.09,.4-.08,.02c-.05,.01-.12,.02-.2,.02-.53,0-.77-.29-.77-.71,0-.09,.01-.17,.03-.26l.34-1.58Z"/><path class="f" d="M282.99,241.98c-.07,.08-.14,.15-.23,.21-.16,.11-.4,.21-.71,.21-.59,0-.93-.38-.93-.81s.34-.79,.92-.88l1.27-.2s.01-.08,.01-.11c0-.34-.24-.61-.67-.61-.23,0-.43,.08-.57,.17-.08,.05-.16,.1-.22,.16l-.22-.3c.09-.08,.19-.14,.29-.21,.19-.1,.44-.21,.75-.21,.6,0,1.04,.37,1.04,.97,0,.09,0,.19-.03,.29l-.35,1.68h-.42l.07-.36Zm.23-1.1l-1.06,.17c-.47,.08-.63,.3-.63,.53s.2,.42,.54,.42c.58,0,.97-.38,1.09-.89l.05-.24Z"/><path class="f" d="M284.88,239.46h.42l-.61,2.88h-.42l.61-2.88Zm.14-.94c0-.17,.15-.29,.3-.29,.14,0,.24,.1,.24,.25,0,.17-.15,.29-.29,.29s-.25-.1-.25-.25Z"/><path class="f" d="M286.56,238.14h.42l-.89,4.2h-.42l.89-4.2Z"/><path class="f" d="M287.27,241.51s.22,.5,.77,.5c.38,0,.62-.2,.62-.49,0-.53-1.29-.5-1.29-1.27,0-.46,.42-.86,1.01-.86,.69,0,.97,.5,.97,.49l-.36,.26s-.16-.36-.64-.36c-.33,0-.55,.21-.55,.43,0,.51,1.29,.44,1.29,1.26,0,.51-.44,.92-1.08,.92-.85,0-1.09-.63-1.1-.62l.36-.26Z"/><path class="f" d="M289.58,242.12c0-.19,.15-.32,.32-.32,.16,0,.28,.11,.28,.28,0,.17-.15,.32-.32,.32-.16,0-.28-.11-.28-.28Z"/></g></g></g></g></svg>