<?xml version="1.0" encoding="utf-8"?>
<!-- Generator: Adobe Illustrator 26.0.2, SVG Export Plug-In . SVG Version: 6.00 Build 0)  -->
<svg version="1.1" id="Layer_1" xmlns="http://www.w3.org/2000/svg" xmlns:xlink="http://www.w3.org/1999/xlink" x="0px" y="0px"
	 viewBox="0 0 300 250" style="enable-background:new 0 0 300 250;" xml:space="preserve">
<style type="text/css">
	.st0{fill:#FFFFFF;}
</style>
<g>
	<path class="st0" d="M32.4,70.8c0,1-0.4,1.5-1.2,1.5h-7.1c-0.5,0-0.9-0.2-1-0.5c-0.1-0.3-0.2-0.7-0.1-1.1V50.5c0-1,0.4-1.5,1.2-1.5
		H31c0.3,0,0.6,0,0.8,0.2c0.2,0.2,0.3,0.6,0.3,1.2v1.3c0,0.8-0.2,1.2-0.5,1.4c-0.2,0.1-0.4,0.1-0.6,0.1h-3.4c-0.3,0-0.5,0.1-0.6,0.2
		c0,0.2-0.1,0.4,0,0.5v3.2c0,0.2,0,0.4,0.1,0.6c0.1,0.1,0.2,0.1,0.5,0.1h1.7c0.7,0,1,0.4,1,1.2v1.8c0,0.8-0.3,1.2-1,1.2h-1.7
		c-0.2,0-0.4,0-0.5,0.1C27,62.3,27,62.4,27,62.5v4.9c-0.1,0.4,0.2,0.7,0.6,0.8c0.1,0,0.1,0,0.2,0h3.5c0.8,0,1.2,0.5,1.2,1.5V70.8z"
		/>
	<path class="st0" d="M44.8,60.7c0,2.5-0.1,5-0.3,7.5c-0.1,1.2-0.5,2.4-1.3,3.4c-0.8,0.6-1.8,0.9-2.8,0.8h-5.7c-0.6,0-1-0.1-1.1-0.4
		c-0.1-0.3-0.2-0.7-0.1-1.1V50.6c0-1,0.4-1.6,1.1-1.6h6c1.7-0.1,3.2,1,3.6,2.6C44.5,53,44.8,56,44.8,60.7z M40.6,61
		c0-2.8,0-4.7-0.1-5.5c0-0.7-0.1-1.4-0.5-2.1c-0.4-0.3-0.9-0.4-1.4-0.3c-0.3,0-0.7,0-1,0.2c-0.1,0.1-0.2,0.4-0.2,0.9v13.1
		c0,0.4,0.1,0.7,0.2,0.8c0.3,0.1,0.7,0.2,1.1,0.2c0.5,0.1,0.9,0,1.3-0.3c0.4-0.6,0.5-1.2,0.5-1.9C40.5,65.2,40.6,63.5,40.6,61z"/>
	<path class="st0" d="M57.3,65.5c0,2.5-0.3,4.2-0.9,5.1c-0.8,1.2-2.3,1.8-4.5,1.8c-2.7,0-4.5-0.9-5.2-2.8c-0.5-1.3-0.7-4.2-0.7-8.8
		c-0.1-2.9,0.1-5.9,0.5-8.8c0.5-2,1.7-3,3.5-3h4.8c0.4-0.1,0.7,0.1,1,0.3c0.2,0.4,0.3,0.8,0.2,1.2v1.1c0,1-0.4,1.5-1.1,1.5h-2.5
		c-0.5-0.1-1,0-1.5,0.3c-0.4,0.6-0.6,1.3-0.6,2c-0.1,0.8-0.1,2.6-0.1,5.4V66c0,1.5,0.6,2.2,1.8,2.2s1.7-0.6,1.7-1.8v-3.5
		c0-0.6-0.1-0.9-0.4-0.9h-1c-0.4,0-0.6-0.4-0.6-1.1v-1.6c0-0.4,0-0.7,0.2-1.1c0.2-0.2,0.5-0.4,1.1-0.4h3.3c0.7,0,1.1,0.5,1.1,1.5
		V65.5z"/>
	<path class="st0" d="M68.2,70.8c0,1-0.4,1.5-1.2,1.5h-7.2c-0.5,0-0.9-0.2-1-0.5c-0.1-0.3-0.2-0.7-0.2-1.1V50.5c0-1,0.4-1.5,1.2-1.5
		h6.9c0.3,0,0.6,0,0.8,0.2c0.2,0.2,0.3,0.6,0.3,1.2v1.3c0,0.8-0.2,1.2-0.5,1.4c-0.2,0.1-0.4,0.1-0.6,0.1h-3.5
		c-0.3,0-0.5,0.1-0.6,0.2c0,0.2,0,0.4,0,0.5v3.2c0,0.2,0,0.4,0.1,0.6c0.1,0.1,0.2,0.1,0.5,0.1h1.7c0.7,0,1,0.4,1,1.2v1.8
		c0,0.8-0.3,1.2-1,1.2h-1.8c-0.3,0-0.5,0-0.5,0.1c-0.1,0.1-0.1,0.3-0.1,0.4v4.9c0,0.5,0.2,0.8,0.7,0.8H67c0.8,0,1.2,0.5,1.2,1.5
		L68.2,70.8z"/>
	<path class="st0" d="M78.7,68.6c0,2.5-1.2,3.7-3.7,3.7h-5.2c-0.5,0-0.8-0.1-0.9-0.3c-0.2-0.3-0.3-0.7-0.2-1.1v-1.2
		c0-0.7,0.1-1.2,0.4-1.3c0.2-0.1,0.5-0.2,0.8-0.2h3.6c0.5,0.1,0.9-0.3,0.9-0.7c0-0.1,0-0.1,0-0.2c0-0.3-0.1-0.5-0.2-0.8l-4-7.5
		c-1-1.8-1.6-3.8-1.6-5.8c-0.1-1.2,0.3-2.4,1.1-3.3c0.9-0.7,2.1-1,3.3-0.9h4c0.7,0,1,0.4,1,1.3v1.5c0,0.9-0.3,1.3-1.1,1.3h-3.2
		c-0.7,0-1.1,0.3-1.1,1c0,0.4,0.1,0.7,0.3,1.1l3.7,6.9C77.8,64.1,78.5,66.3,78.7,68.6z"/>
	<path class="st0" d="M95.1,71.8c0.1,0.3-0.1,0.5-0.5,0.5h-3.3c-0.3,0-0.5-0.2-0.6-0.6L90,66.8c0-0.3-0.3-0.6-0.6-0.5c0,0,0,0,0,0
		h-1.5c-0.3,0-0.6,0.2-0.6,0.5c0,0,0,0,0,0.1l-0.6,5c0,0.3-0.2,0.6-0.5,0.6c0,0-0.1,0-0.1,0h-3.2c-0.4,0-0.7-0.2-0.6-0.5l2.8-21.5
		c0-0.7,0.6-1.3,1.4-1.3c0,0,0.1,0,0.1,0h4.1c0.8,0,1.2,0.5,1.3,1.4L95.1,71.8z M89.6,61.7l-0.7-8c0-0.3-0.1-0.5-0.3-0.5
		s-0.2,0.2-0.3,0.5l-0.6,8c0,0.3,0.1,0.4,0.4,0.4h0.9C89.4,62.1,89.6,62,89.6,61.7z"/>
	<path class="st0" d="M107.8,49.9l-3.4,21.5c-0.1,0.6-0.4,0.9-1,0.9h-3.7c-0.5,0-0.8-0.3-0.9-0.9l-3.4-21.5
		c-0.1-0.6,0.1-0.9,0.6-0.9h2.7c0.5,0,0.8,0.4,0.9,1.1l1.7,13.3c0,0.3,0.2,0.5,0.3,0.5s0.3-0.2,0.3-0.5l1.7-13.3
		c0.1-0.8,0.4-1.1,1-1.1h2.7C107.7,49,107.9,49.3,107.8,49.9z"/>
	<path class="st0" d="M120.1,71.8c0,0.3-0.1,0.5-0.5,0.5h-3.3c-0.3,0-0.5-0.2-0.6-0.6l-0.7-4.9c0-0.3-0.3-0.6-0.6-0.5c0,0,0,0,0,0
		h-1.5c-0.3,0-0.6,0.2-0.6,0.5c0,0,0,0,0,0.1l-0.6,5c0,0.3-0.2,0.6-0.5,0.6c0,0-0.1,0-0.1,0h-3.2c-0.4,0-0.7-0.2-0.6-0.5l2.8-21.5
		c0-0.7,0.6-1.3,1.4-1.3c0,0,0.1,0,0.1,0h4.1c0.8,0,1.2,0.5,1.3,1.4L120.1,71.8z M114.5,61.7l-0.7-8c0-0.3-0.1-0.5-0.3-0.5
		s-0.2,0.2-0.3,0.5l-0.6,8c0,0.3,0.1,0.4,0.4,0.4h0.9C114.4,62.1,114.5,62,114.5,61.7z"/>
	<path class="st0" d="M125.2,70.9c0,0.4,0,0.8-0.2,1.1c-0.2,0.2-0.5,0.3-1,0.3h-1.7c-0.3,0-0.7,0-0.9-0.2c-0.3-0.4-0.4-0.8-0.3-1.3
		V50.6c0-1,0.4-1.6,1.2-1.6h1.9c0.7,0,1.1,0.5,1.1,1.6L125.2,70.9z"/>
	<path class="st0" d="M135.7,70.8c0,1-0.4,1.5-1.3,1.5h-6.2c-0.5,0-0.8-0.1-1-0.4c-0.2-0.4-0.2-0.8-0.2-1.2V50.5
		c0-1,0.4-1.5,1.2-1.5h1.9c0.4-0.1,0.7,0.1,0.9,0.4c0.1,0.3,0.2,0.7,0.2,1.1v17c0,0.5,0.2,0.7,0.6,0.7h2.8c0.8,0,1.2,0.5,1.2,1.5
		L135.7,70.8z"/>
	<path class="st0" d="M148.7,71.8c0,0.3-0.1,0.5-0.5,0.5h-3.3c-0.3,0-0.5-0.2-0.6-0.6l-0.7-4.9c0-0.3-0.3-0.6-0.6-0.5c0,0,0,0,0,0
		h-1.5c-0.3,0-0.6,0.2-0.6,0.5c0,0,0,0,0,0.1l-0.6,5c0,0.3-0.2,0.6-0.5,0.6c0,0-0.1,0-0.1,0h-3.2c-0.4,0-0.6-0.2-0.6-0.5l2.8-21.5
		c0-0.7,0.6-1.3,1.4-1.3c0,0,0.1,0,0.1,0h4.1c0.8,0,1.2,0.5,1.4,1.4L148.7,71.8z M143.2,61.7l-0.7-8c0-0.3-0.1-0.5-0.3-0.5
		s-0.2,0.2-0.3,0.5l-0.6,8c0,0.3,0.1,0.4,0.4,0.4h0.9C143,62.1,143.2,62,143.2,61.7z"/>
	<path class="st0" d="M161,66c0,4.2-1.3,6.3-3.8,6.3h-6.3c-0.5,0-0.8-0.2-1-0.5c-0.1-0.3-0.2-0.7-0.1-1.1V50.5c0-1,0.4-1.5,1.1-1.5
		h6.3c1.2-0.1,2.3,0.6,2.8,1.7c0.5,1.3,0.7,2.8,0.6,4.2c0,2.8-0.6,4.5-1.9,5.3C160.2,60.7,161,62.7,161,66z M156.6,55.6
		c0-0.6,0-1.2-0.2-1.7c-0.2-0.5-0.7-0.9-1.3-0.8h-0.7c-0.3,0-0.4,0-0.5,0.2c-0.1,0.2-0.1,0.4-0.1,0.5v3.7c0,0.5,0.2,0.7,0.6,0.7h0.7
		c0.6,0.1,1.1-0.3,1.3-0.8C156.6,56.8,156.6,56.2,156.6,55.6L156.6,55.6z M156.8,65.3c0.1-0.8-0.1-1.7-0.4-2.4
		c-0.3-0.4-0.8-0.6-1.3-0.5h-0.7c-0.3,0-0.4,0.1-0.5,0.2c-0.1,0.2-0.1,0.3-0.1,0.5v4.5c0,0.5,0.2,0.7,0.6,0.7h0.7
		c0.7,0.1,1.3-0.3,1.5-0.9C156.8,66.6,156.8,66,156.8,65.3L156.8,65.3z"/>
	<path class="st0" d="M171.1,70.8c0,1-0.4,1.5-1.3,1.5h-6.3c-0.5,0-0.8-0.1-1-0.4c-0.2-0.4-0.2-0.8-0.2-1.2V50.5
		c0-1,0.4-1.5,1.2-1.5h1.9c0.5,0,0.8,0.1,0.9,0.4c0.1,0.3,0.2,0.7,0.2,1.1v17c0,0.5,0.2,0.7,0.6,0.7h2.8c0.8,0,1.2,0.5,1.2,1.5
		L171.1,70.8z"/>
	<path class="st0" d="M181.6,70.8c0,1-0.4,1.5-1.2,1.5h-7.1c-0.6,0-0.9-0.2-1-0.5c-0.1-0.3-0.2-0.7-0.2-1.1V50.5
		c0-1,0.4-1.5,1.2-1.5h6.9c0.3,0,0.6,0,0.8,0.2c0.2,0.2,0.3,0.6,0.3,1.2v1.3c0,0.8-0.2,1.2-0.5,1.4c-0.2,0.1-0.4,0.1-0.6,0.1h-3.4
		c-0.3,0-0.5,0.1-0.6,0.2c0,0.2-0.1,0.4-0.1,0.5v3.2c0,0.2,0,0.4,0.1,0.6c0.1,0.1,0.2,0.1,0.5,0.1h1.8c0.7,0,1,0.4,1,1.2v1.8
		c0,0.8-0.3,1.2-1,1.2h-1.8c-0.2,0-0.4,0-0.5,0.1c-0.1,0.1-0.1,0.3-0.1,0.4v4.9c-0.1,0.4,0.2,0.7,0.6,0.8c0.1,0,0.1,0,0.2,0h3.5
		c0.8,0,1.2,0.5,1.2,1.5L181.6,70.8z"/>
	<path class="st0" d="M199.1,70.8c0.1,0.5-0.1,1-0.3,1.3c-0.3,0.2-0.6,0.3-0.9,0.2h-1.6c-0.3,0-0.6,0-0.9-0.2
		c-0.2-0.3-0.4-0.6-0.5-0.9l-2.9-8.7c-0.1-0.3-0.2-0.5-0.4-0.5s-0.2,0.2-0.2,0.7v8.1c0,1-0.4,1.5-1.1,1.5h-1.8
		c-0.8,0-1.3-0.5-1.3-1.6V50.5c-0.1-0.5,0.1-0.9,0.3-1.3c0.3-0.2,0.6-0.3,0.9-0.2h1.6c0.3,0,0.6,0,0.9,0.2c0.2,0.3,0.4,0.6,0.5,0.9
		l2.9,8.7c0.1,0.3,0.2,0.5,0.4,0.5s0.2-0.2,0.2-0.7v-8.1c0-1,0.4-1.5,1.1-1.5h1.8c0.8,0,1.3,0.5,1.3,1.6L199.1,70.8z"/>
	<path class="st0" d="M211.9,60.6c0,4.3-0.2,7.2-0.7,8.6c-1,2.7-4.1,4.1-6.8,3c-1.4-0.5-2.5-1.6-3-3c-0.4-1.4-0.7-4.3-0.7-8.6
		c0-4.3,0.2-7.2,0.7-8.5c0.8-2.2,2.4-3.3,5-3.3c2.6,0,4.2,1.1,4.9,3.3C211.6,53.5,211.9,56.3,211.9,60.6z M207.8,60.6
		c0.1-2,0-4-0.2-6c-0.2-1-0.6-1.4-1.3-1.4s-1.2,0.5-1.4,1.4c-0.2,2-0.3,4-0.2,6c-0.1,2,0,4.1,0.2,6.1c0.2,1,0.6,1.5,1.3,1.5
		s1.2-0.5,1.3-1.5C207.8,64.7,207.8,62.7,207.8,60.6z"/>
	<path class="st0" d="M231.4,50.3l-3.6,21.1c-0.1,0.7-0.4,1-1,1h-2.7c-0.3,0-0.5,0-0.8-0.2c-0.1-0.2-0.2-0.5-0.2-0.8l-1-7.8
		c0-0.3-0.1-0.4-0.2-0.4s-0.2,0.1-0.3,0.4l-1.9,8.2c-0.1,0.5-0.5,0.8-1,0.7h-2.3c-0.5,0-0.8-0.3-0.9-0.9l-3.2-21.2
		c0-0.2-0.1-0.3-0.1-0.5c0-0.5,0.3-0.8,0.9-0.8h2.4c0.5,0,0.8,0.3,0.8,1l1.7,11.4c0,0.3,0.1,0.5,0.3,0.5s0.2-0.2,0.3-0.5l1.6-6.7
		l-0.5-4.4c-0.1-0.8,0.2-1.3,0.9-1.3h2.4c0.5,0,0.8,0.3,0.9,1l1.4,11.4c0,0.3,0.1,0.5,0.3,0.5s0.2-0.2,0.3-0.5l1.4-11.5
		c0.1-0.6,0.4-0.9,0.8-0.9h2.6c0.5,0,0.8,0.2,0.8,0.7C231.5,49.9,231.5,50.1,231.4,50.3z"/>
</g>
</svg>
