<?xml version="1.0" encoding="utf-8"?>
<!-- Generator: Adobe Illustrator 26.0.2, SVG Export Plug-In . SVG Version: 6.00 Build 0)  -->
<svg version="1.1" id="Layer_1" xmlns="http://www.w3.org/2000/svg" xmlns:xlink="http://www.w3.org/1999/xlink" x="0px" y="0px"
	 viewBox="0 0 300 250" style="enable-background:new 0 0 300 250;" xml:space="preserve">
<style type="text/css">
	.st0{fill:#FFFFFF;}
</style>
<g>
	<g>
		<path class="st0" d="M32.4,43.8c0,1-0.4,1.5-1.2,1.5h-7.1c-0.5,0-0.9-0.2-1-0.5c-0.1-0.3-0.2-0.7-0.1-1.1V23.5
			c0-1,0.4-1.5,1.2-1.5H31c0.3,0,0.6,0,0.8,0.2c0.2,0.2,0.3,0.6,0.3,1.2v1.3c0,0.8-0.2,1.2-0.5,1.4c-0.2,0.1-0.4,0.1-0.6,0.1h-3.4
			c-0.3,0-0.5,0.1-0.6,0.2c0,0.2-0.1,0.4,0,0.5v3.2c0,0.2,0,0.4,0.1,0.6c0.1,0.1,0.2,0.1,0.5,0.1h1.7c0.7,0,1,0.4,1,1.2v1.8
			c0,0.8-0.3,1.2-1,1.2h-1.7c-0.2,0-0.4,0-0.5,0.1C27,35.3,27,35.4,27,35.5v4.9c-0.1,0.4,0.2,0.7,0.6,0.8c0.1,0,0.1,0,0.2,0h3.5
			c0.8,0,1.2,0.5,1.2,1.5V43.8z"/>
		<path class="st0" d="M45.4,44.8c0,0.3-0.1,0.5-0.5,0.5h-3.3c-0.3,0-0.5-0.2-0.6-0.6l-0.7-4.9c0-0.3-0.3-0.5-0.6-0.5c0,0,0,0,0,0
			h-1.5c-0.3,0-0.6,0.2-0.6,0.5c0,0,0,0,0,0.1l-0.6,5c0,0.3-0.2,0.6-0.5,0.6c0,0-0.1,0-0.1,0h-3.2c-0.5,0-0.7-0.2-0.6-0.5l2.8-21.5
			c0-0.7,0.6-1.3,1.4-1.3c0,0,0.1,0,0.1,0H41c0.8,0,1.2,0.5,1.3,1.4L45.4,44.8z M39.9,34.7l-0.7-8c0-0.3-0.1-0.5-0.3-0.5
			c-0.2,0-0.3,0.2-0.3,0.5l-0.6,8c0,0.3,0.1,0.4,0.5,0.4h0.9C39.7,35.1,39.9,35,39.9,34.7z"/>
		<path class="st0" d="M55.3,24.8c0.1,0.4,0,0.8-0.2,1.1c-0.3,0.2-0.6,0.3-0.9,0.2h-2.7c-0.6-0.1-1.2,0.4-1.2,1
			c-0.2,2.2-0.3,4.4-0.2,6.6c0,3.3,0,4.7,0,4.3c0.1,2.1,0.6,3.2,1.4,3.2h2.7c0.8,0,1.1,0.4,1.1,1.2v1.7c0,0.8-0.4,1.3-1.1,1.3h-4.2
			c-1.5,0.2-2.9-0.7-3.4-2.1c-0.5-1.4-0.8-4.5-0.8-9.1c0-7.3,0-8.9-0.1-4.8c0-1.7,0.2-3.4,0.8-5c0.5-1.4,1.8-2.3,3.3-2.3h4.3
			c0.7,0,1.1,0.4,1.1,1.2V24.8z"/>
		<path class="st0" d="M67.7,43.8c0,1-0.4,1.5-1.2,1.5h-1.8c-0.7,0-1.1-0.5-1.1-1.5v-8.1c0-0.5-0.2-0.7-0.5-0.7H61
			c-0.4,0-0.6,0.2-0.6,0.7v8.1c0,1-0.4,1.5-1.1,1.5h-1.9c-0.8,0-1.2-0.5-1.2-1.5V23.5c0-1,0.4-1.5,1.2-1.5h1.9
			c0.7,0,1.1,0.5,1.1,1.5v6.8c0,0.5,0.2,0.7,0.5,0.7h2.2c0.3,0,0.5-0.2,0.5-0.7v-6.8c0-1,0.4-1.5,1.1-1.5h1.9c0.8,0,1.2,0.5,1.2,1.5
			L67.7,43.8z"/>
		<path class="st0" d="M83.2,24.8c0.1,0.4,0,0.8-0.2,1.1c-0.3,0.2-0.6,0.3-0.9,0.2h-2.7c-0.6-0.1-1.2,0.4-1.2,1
			c-0.2,2.2-0.3,4.4-0.2,6.6c0.1,1.4,0,2.9-0.1,4.3c0.1,2.1,0.6,3.2,1.4,3.2h2.7c0.8,0,1.1,0.4,1.1,1.2v1.7c0,0.8-0.4,1.3-1.1,1.3
			H78c-1.5,0.2-2.9-0.7-3.4-2.1c-0.5-1.4-0.8-4.5-0.8-9.1c0-7.3,0-8.9-0.1-4.8c0-1.7,0.2-3.4,0.8-5c0.5-1.4,1.8-2.3,3.3-2.3h4.3
			c0.7,0,1.1,0.4,1.1,1.2L83.2,24.8z"/>
		<path class="st0" d="M95.3,38.7c0.1,1.7-0.2,3.4-1,4.9c-0.9,1.4-2.4,2-4.7,2S85.9,45,85,43.8c-0.7-1-1-2.7-1-5V23.5
			c0-0.4,0-0.8,0.2-1.1c0.3-0.3,0.6-0.4,1-0.4h1.8c0.4-0.1,0.7,0.1,0.9,0.4c0.1,0.3,0.2,0.7,0.2,1v16c0,1.2,0.5,1.8,1.5,1.8
			s1.5-0.6,1.5-1.8V23.4c0-0.4,0-0.8,0.2-1.1c0.1-0.2,0.4-0.3,0.9-0.3h1.9c0.6,0,0.9,0.2,1,0.5c0.1,0.3,0.1,0.6,0.1,0.9L95.3,38.7z"
			/>
		<path class="st0" d="M106.9,24.7c0,0.8-0.2,1.3-0.6,1.4c-0.2,0-0.3,0.1-0.5,0.1H104c-0.3,0-0.5,0.2-0.5,0.7v17
			c0,0.4,0,0.8-0.2,1.2c-0.1,0.2-0.4,0.3-0.9,0.3h-1.8c-0.6,0-1-0.2-1.1-0.7c-0.1-0.2-0.1-0.5-0.1-0.8V26.8c0-0.5-0.2-0.7-0.5-0.7
			h-1.8c-0.3,0-0.6,0-0.8-0.2c-0.2-0.4-0.3-0.8-0.3-1.2v-1.2c0-0.8,0.2-1.2,0.4-1.4C96.8,22,97,22,97.2,22h8.5
			c0.8,0,1.1,0.5,1.1,1.4L106.9,24.7z"/>
		<path class="st0" d="M117.9,24.7c0,0.8-0.2,1.3-0.6,1.4c-0.1,0-0.3,0.1-0.5,0.1H115c-0.3,0-0.5,0.2-0.5,0.7v17
			c0,0.4,0,0.8-0.2,1.2c-0.1,0.2-0.4,0.3-0.9,0.3h-1.8c-0.6,0-1-0.2-1.1-0.7c0-0.2-0.1-0.5-0.1-0.8V26.8c0-0.5-0.2-0.7-0.5-0.7h-1.8
			c-0.3,0-0.6,0-0.8-0.2c-0.2-0.2-0.3-0.6-0.3-1.2v-1.2c0-0.8,0.2-1.2,0.4-1.4c0.2-0.1,0.5-0.2,0.7-0.1h8.5c0.8,0,1.1,0.5,1.1,1.4
			L117.9,24.7z"/>
		<path class="st0" d="M123.1,43.9c0,0.4,0,0.8-0.2,1.1c-0.2,0.2-0.5,0.3-1,0.3h-1.7c-0.3,0-0.7,0-0.9-0.2c-0.3-0.4-0.4-0.8-0.3-1.3
			V23.6c0-1,0.4-1.6,1.2-1.6h1.9c0.7,0,1.1,0.5,1.1,1.6L123.1,43.9z"/>
		<path class="st0" d="M136.8,43.8c0.1,0.5-0.1,0.9-0.3,1.3c-0.3,0.2-0.6,0.3-0.9,0.2h-1.6c-0.3,0-0.6,0-0.9-0.2
			c-0.2-0.3-0.4-0.6-0.5-0.9l-2.9-8.7c-0.1-0.3-0.2-0.5-0.4-0.5s-0.2,0.2-0.2,0.7v8.1c0,1-0.4,1.5-1.1,1.5h-1.8
			c-0.8,0-1.3-0.5-1.3-1.6V23.5c-0.1-0.5,0.1-0.9,0.3-1.3c0.3-0.2,0.6-0.3,0.9-0.2h1.6c0.3,0,0.6,0,0.9,0.2c0.2,0.3,0.4,0.6,0.5,0.9
			l2.9,8.7c0.1,0.3,0.2,0.5,0.4,0.5s0.2-0.2,0.2-0.7v-8c0-1,0.4-1.5,1.1-1.5h1.8c0.8,0,1.3,0.5,1.3,1.6L136.8,43.8z"/>
		<path class="st0" d="M149.6,38.5c0,2.5-0.3,4.2-0.9,5.1c-0.8,1.2-2.3,1.8-4.5,1.8c-2.7,0-4.5-0.9-5.2-2.8
			c-0.5-1.3-0.7-4.2-0.7-8.8c-0.1-2.9,0.1-5.9,0.5-8.8c0.5-2,1.7-3,3.5-3h4.7c0.4-0.1,0.7,0.1,1,0.3c0.2,0.4,0.3,0.8,0.2,1.1v1.1
			c0,1-0.4,1.5-1.1,1.5h-2.5c-0.5-0.1-1,0-1.5,0.3c-0.4,0.6-0.6,1.3-0.6,2c0,0.8-0.1,2.6-0.1,5.4V39c0,1.5,0.6,2.2,1.8,2.2
			s1.7-0.6,1.7-1.8v-3.5c0-0.6-0.1-0.9-0.4-0.9h-1c-0.4,0-0.6-0.4-0.6-1.1v-1.6c0-0.4,0-0.7,0.2-1.1c0.3-0.3,0.7-0.4,1.1-0.4h3.3
			c0.7,0,1.1,0.5,1.1,1.5L149.6,38.5z"/>
		<path class="st0" d="M165.1,43.8c0,1-0.4,1.5-1.2,1.5h-7.1c-0.5,0-0.9-0.2-1-0.5c-0.1-0.3-0.2-0.7-0.1-1.1V23.5
			c0-1,0.4-1.5,1.2-1.5h6.9c0.3,0,0.6,0,0.8,0.2c0.2,0.2,0.3,0.6,0.3,1.2v1.3c0,0.8-0.2,1.2-0.5,1.4c-0.2,0.1-0.4,0.1-0.6,0.1h-3.4
			c-0.3,0-0.5,0.1-0.6,0.2c0,0.2,0,0.4,0,0.5v3.2c0,0.2,0,0.4,0.1,0.6c0.1,0.1,0.2,0.1,0.5,0.1h1.7c0.7,0,1,0.4,1,1.2v1.8
			c0,0.8-0.3,1.2-1,1.2h-1.7c-0.3,0-0.4,0-0.5,0.1c-0.1,0.1-0.1,0.3-0.1,0.4v4.9c0,0.5,0.2,0.8,0.7,0.8h3.5c0.8,0,1.2,0.5,1.2,1.5
			L165.1,43.8z"/>
		<path class="st0" d="M177.4,33.7c0,2.5-0.1,5-0.3,7.5c-0.1,1.2-0.5,2.4-1.3,3.4c-0.8,0.6-1.8,0.9-2.8,0.8h-5.7
			c-0.6,0-1-0.1-1.1-0.4c-0.1-0.3-0.2-0.7-0.1-1.1V23.6c0-1,0.4-1.6,1.1-1.6h6c1.7-0.1,3.2,1,3.6,2.6C177.2,26,177.4,29,177.4,33.7z
			 M173.2,34c0-2.8,0-4.7-0.1-5.5c0-0.7-0.1-1.4-0.5-2.1c-0.4-0.3-0.9-0.4-1.4-0.3c-0.3,0-0.7,0-1,0.2c-0.1,0.1-0.2,0.4-0.2,0.9
			v13.1c0,0.4,0.1,0.7,0.2,0.8c0.3,0.1,0.7,0.2,1.1,0.2c0.4,0.1,0.9-0.1,1.2-0.3c0.4-0.6,0.5-1.2,0.5-1.9
			C173.2,38.2,173.2,36.5,173.2,34z"/>
		<path class="st0" d="M189.9,38.5c0,2.5-0.3,4.2-0.9,5.1c-0.8,1.2-2.3,1.8-4.5,1.8c-2.7,0-4.5-1-5.2-2.8c-0.5-1.3-0.7-4.3-0.7-8.8
			c-0.1-2.9,0.1-5.9,0.5-8.8c0.5-2,1.6-3,3.5-3h4.8c0.4-0.1,0.7,0.1,1,0.3c0.2,0.4,0.3,0.8,0.2,1.1v1.1c0,1-0.4,1.5-1.1,1.5H185
			c-0.5-0.1-1,0-1.5,0.3c-0.4,0.6-0.6,1.3-0.6,2c-0.1,0.8-0.1,2.6-0.1,5.4V39c0,1.5,0.6,2.2,1.8,2.2s1.7-0.6,1.7-1.8v-3.5
			c0-0.6-0.1-0.9-0.4-0.9h-1c-0.4,0-0.6-0.4-0.6-1.1v-1.6c0-0.4,0-0.7,0.2-1.1c0.3-0.3,0.7-0.4,1.1-0.4h3.3c0.7,0,1.1,0.5,1.1,1.5
			L189.9,38.5z"/>
		<path class="st0" d="M200.9,43.8c0,1-0.4,1.5-1.2,1.5h-7.1c-0.6,0-0.9-0.2-1-0.5c-0.1-0.3-0.2-0.7-0.2-1.1V23.5
			c0-1,0.4-1.5,1.2-1.5h6.9c0.3,0,0.6,0,0.8,0.2c0.3,0.3,0.4,0.8,0.3,1.2v1.3c0,0.8-0.2,1.2-0.5,1.4c-0.2,0.1-0.4,0.1-0.6,0.1H196
			c-0.3,0-0.5,0.1-0.6,0.2c0,0.2-0.1,0.4-0.1,0.5v3.2c0,0.2,0,0.4,0.1,0.6c0.2,0.1,0.4,0.1,0.5,0.1h1.7c0.7,0,1,0.4,1,1.2v1.8
			c0,0.8-0.3,1.2-1,1.2H196c-0.2,0-0.4,0-0.5,0.1c-0.1,0.1-0.1,0.3-0.1,0.4v4.9c0,0.5,0.2,0.8,0.7,0.8h3.5c0.8,0,1.2,0.5,1.2,1.5
			L200.9,43.8z"/>
	</g>
</g>
</svg>
