<?xml version="1.0" encoding="utf-8"?>
<!-- Generator: Adobe Illustrator 26.0.2, SVG Export Plug-In . SVG Version: 6.00 Build 0)  -->
<svg version="1.1" id="Layer_1" xmlns="http://www.w3.org/2000/svg" xmlns:xlink="http://www.w3.org/1999/xlink" x="0px" y="0px"
	 viewBox="0 0 300 250" style="enable-background:new 0 0 300 250;" xml:space="preserve">
<style type="text/css">
	.st0{fill:#FFFFFF;}
</style>
<g>
	<g>
		<path class="st0" d="M33.9,60.6c0,4.3-0.2,7.2-0.7,8.6c-0.6,2.2-2.7,3.6-4.9,3.4c-2.3,0.2-4.4-1.2-5-3.4c-0.5-1.4-0.7-4.3-0.7-8.6
			c0-4.3,0.2-7.2,0.7-8.5c0.7-2.2,2.4-3.3,5-3.3c2.6,0,4.2,1.1,4.9,3.3C33.6,53.5,33.9,56.3,33.9,60.6z M29.8,60.6c0.1-2,0-4-0.2-6
			c-0.2-1-0.6-1.4-1.3-1.4s-1.2,0.5-1.4,1.4c-0.2,2-0.3,4-0.2,6c-0.1,2,0,4.1,0.2,6.1c0.2,1,0.6,1.5,1.3,1.5s1.2-0.5,1.3-1.5
			C29.8,64.7,29.8,62.7,29.8,60.6z"/>
		<path class="st0" d="M44.4,51.7c0,0.9-0.4,1.4-1.1,1.4h-3.2c-0.3,0-0.5,0.1-0.6,0.2c-0.1,0.2-0.1,0.5-0.1,0.7v3.2
			c0,0.4,0.1,0.6,0.4,0.6h2c0.5,0,0.8,0.1,0.9,0.4c0.1,0.3,0.2,0.7,0.2,1v1.2c0,1-0.4,1.5-1.1,1.5h-1.8c-0.3,0-0.5,0.1-0.6,0.2
			c-0.1,0.2-0.1,0.5-0.1,0.7v8c0,1-0.3,1.5-1,1.5h-2c-0.6,0-0.9-0.2-1-0.6c-0.1-0.3-0.1-0.6-0.1-0.9V50.6c0-0.8,0.2-1.3,0.5-1.5
			c0.2-0.1,0.5-0.2,0.7-0.1h6.6c0.8,0,1.2,0.5,1.2,1.5L44.4,51.7z"/>
		<path class="st0" d="M58.9,65.1c0.1,1.9-0.2,3.8-1,5.5c-0.6,1.1-1.8,1.8-3.1,1.7h-4.2c-0.7,0-1-0.2-1.1-0.6
			c-0.1-0.3-0.1-0.6-0.1-0.9v-1.2c0-0.8,0.2-1.2,0.5-1.3c0.2-0.1,0.5-0.1,0.7-0.1h2.7c0.9,0,1.3-1.1,1.3-3.2s-0.4-3.2-1.3-3.2h-2.4
			c-0.8,0-1.2-0.4-1.2-1.1V50.6c0-1.1,0.4-1.6,1.1-1.6h6.5c0.8,0,1.2,0.5,1.2,1.5v1.2c0,1-0.4,1.4-1.1,1.4h-3.1
			c-0.1,0-0.3,0-0.4,0.1c-0.1,0.2-0.2,0.4-0.1,0.7v3.2c0,0.4,0.2,0.6,0.5,0.6H55c1.1-0.1,2.1,0.4,2.7,1.2
			C58.5,60,58.9,62.1,58.9,65.1z"/>
		<path class="st0" d="M70.7,60.7c0,5-0.3,8.2-1,9.6s-2.2,2.3-4.6,2.3s-3.9-0.8-4.5-2.3s-0.9-4.7-0.9-9.7s0.3-8.2,0.9-9.6
			s2.2-2.3,4.5-2.3s3.9,0.8,4.6,2.3S70.7,55.7,70.7,60.7z M66.6,60.7c0.1-2.1,0-4.3-0.2-6.4c-0.2-0.7-0.5-1.1-1.2-1.1
			s-1,0.4-1.2,1.1c-0.2,2.1-0.3,4.3-0.2,6.4c-0.1,2.1,0,4.3,0.2,6.4c0.1,0.7,0.5,1.1,1.2,1.1s1-0.4,1.2-1.1
			C66.6,65,66.6,62.8,66.6,60.7z"/>
		<path class="st0" d="M86.7,70.8c0,0.8-0.1,1.2-0.4,1.4c-0.2,0.1-0.5,0.1-0.8,0.1h-1.9c-0.4,0.1-0.8-0.1-1-0.4
			c-0.1-0.3-0.2-0.7-0.2-1.1v-9.5c0-0.6,0-0.8-0.1-0.8s-0.2,0.3-0.3,0.8l-1.4,6.9c-0.1,0.7-0.8,1.2-1.5,1.1c-0.6-0.1-1-0.5-1.1-1.1
			l-1.3-6.9c-0.1-0.5-0.2-0.8-0.3-0.8s-0.1,0.3-0.1,0.8v9.5c0,0.4,0,0.8-0.2,1.1c-0.2,0.3-0.6,0.5-1,0.4h-1.8c-0.6,0-1-0.2-1.1-0.6
			c-0.1-0.3-0.1-0.6-0.1-0.9V50.4c0-0.4,0-0.8,0.2-1.1c0.1-0.2,0.4-0.3,0.9-0.3h1.9c0.4,0,0.8,0,1.1,0.2c0.2,0.2,0.4,0.6,0.5,0.9
			l2.3,8.4c0.1,0.2,0.1,0.3,0.3,0.3c0.1,0,0.2-0.1,0.3-0.3l2.3-8.4c0.1-0.3,0.2-0.7,0.5-0.9c0.3-0.2,0.7-0.2,1.1-0.2h1.9
			c0.5,0,0.8,0.1,0.9,0.3c0.2,0.4,0.2,0.7,0.2,1.1V70.8z"/>
		<path class="st0" d="M103,70.8c0,0.8-0.1,1.2-0.4,1.4c-0.2,0.1-0.5,0.1-0.8,0.1H100c-0.4,0.1-0.8,0-1-0.3
			c-0.1-0.3-0.2-0.7-0.2-1.1v-9.5c0-0.6,0-0.8-0.1-0.8s-0.2,0.3-0.3,0.8L97,68.2c-0.1,0.6-0.6,1.1-1.3,1.1c0,0,0,0,0,0
			c-0.6,0.1-1.2-0.4-1.3-1.1l-1.4-6.9c-0.1-0.5-0.2-0.8-0.3-0.8s-0.1,0.3-0.1,0.8v9.5c0,0.4,0,0.8-0.2,1.1c-0.2,0.3-0.6,0.5-1,0.4
			h-1.8c-0.6,0-1-0.2-1.1-0.6c-0.1-0.3-0.1-0.6-0.1-0.9V50.4c0-0.4,0-0.8,0.2-1.1c0.1-0.2,0.4-0.3,0.9-0.3h1.9c0.4,0,0.8,0,1.1,0.2
			c0.3,0.2,0.4,0.6,0.5,0.9l2.3,8.4c0.1,0.2,0.2,0.3,0.3,0.3s0.2-0.1,0.3-0.3l2.3-8.4c0.1-0.3,0.2-0.7,0.5-0.9
			C99.2,49,99.6,49,100,49h1.9c0.5,0,0.8,0.1,0.9,0.3c0.2,0.4,0.2,0.7,0.2,1.1L103,70.8z"/>
		<path class="st0" d="M118.6,51.8c0.1,0.4,0,0.8-0.2,1.1c-0.3,0.2-0.6,0.3-0.9,0.2h-2.7c-0.6-0.1-1.2,0.4-1.2,1
			c-0.2,2.2-0.3,4.4-0.2,6.6c0.1,1.4,0,2.9-0.1,4.3c0.1,2.1,0.6,3.2,1.4,3.2h2.7c0.8,0,1.1,0.4,1.1,1.2v1.7c0,0.8-0.4,1.3-1.1,1.3
			h-4.2c-1.5,0.2-2.9-0.7-3.4-2.1c-0.5-1.4-0.8-4.5-0.8-9.1c0-7.3,0-8.9-0.1-4.8c0-1.7,0.2-3.4,0.8-5c0.5-1.4,1.8-2.3,3.3-2.3h4.3
			c0.7,0,1.1,0.4,1.1,1.2L118.6,51.8z"/>
		<path class="st0" d="M130.7,65.7c0.1,1.7-0.2,3.4-1,4.9c-0.9,1.4-2.4,2-4.7,2s-3.7-0.6-4.5-1.8c-0.7-1-1-2.7-1-5V50.5
			c0-0.4,0-0.8,0.2-1.2c0.3-0.3,0.6-0.4,1-0.4h1.8c0.4-0.1,0.7,0.1,0.9,0.4c0.1,0.3,0.2,0.7,0.2,1v16c0,1.2,0.5,1.8,1.5,1.8
			s1.5-0.6,1.5-1.8V50.4c0-0.4,0-0.8,0.2-1.1c0.1-0.2,0.4-0.3,0.9-0.3h1.9c0.6,0,0.9,0.2,1,0.5c0.1,0.3,0.1,0.6,0.1,0.9V65.7z"/>
		<path class="st0" d="M142.3,51.7c0,0.8-0.2,1.3-0.6,1.4c-0.1,0-0.3,0.1-0.5,0.1h-1.8c-0.3,0-0.5,0.2-0.5,0.7v17
			c0,0.4,0,0.8-0.2,1.2c-0.1,0.2-0.4,0.3-0.9,0.3H136c-0.6,0-1-0.2-1.1-0.7c-0.1-0.2-0.1-0.5-0.1-0.8V53.8c0-0.5-0.1-0.7-0.5-0.7
			h-1.8c-0.3,0-0.6,0-0.8-0.2c-0.2-0.4-0.3-0.8-0.3-1.2v-1.2c0-0.8,0.1-1.2,0.4-1.4c0.2-0.1,0.5-0.2,0.7-0.1h8.5
			c0.8,0,1.1,0.5,1.1,1.4L142.3,51.7z"/>
		<path class="st0" d="M153.3,51.7c0,0.8-0.2,1.3-0.6,1.4c-0.1,0-0.3,0.1-0.5,0.1h-1.8c-0.3,0-0.5,0.2-0.5,0.7v17
			c0,0.4,0,0.8-0.2,1.2c-0.1,0.2-0.4,0.3-0.9,0.3H147c-0.6,0-1-0.2-1.1-0.7c-0.1-0.2-0.1-0.5-0.1-0.8V53.8c0-0.5-0.2-0.7-0.5-0.7
			h-1.8c-0.3,0-0.6,0-0.8-0.2c-0.2-0.2-0.3-0.6-0.3-1.2v-1.2c0-0.8,0.1-1.2,0.4-1.4c0.2-0.1,0.5-0.2,0.7-0.1h8.5
			c0.8,0,1.1,0.5,1.1,1.4L153.3,51.7z"/>
		<path class="st0" d="M158.5,70.9c0,0.4,0,0.8-0.2,1.1c-0.1,0.2-0.5,0.3-1,0.3h-1.7c-0.3,0-0.7,0-0.9-0.2c-0.3-0.4-0.4-0.8-0.3-1.3
			V50.6c0-1,0.4-1.6,1.2-1.6h1.9c0.7,0,1.1,0.5,1.1,1.6L158.5,70.9z"/>
		<path class="st0" d="M172.1,70.8c0.1,0.5-0.1,1-0.3,1.3c-0.3,0.2-0.6,0.3-0.9,0.2h-1.6c-0.3,0-0.6,0-0.9-0.2
			c-0.2-0.3-0.4-0.6-0.5-0.9l-2.9-8.7c-0.1-0.3-0.2-0.5-0.4-0.5s-0.2,0.2-0.2,0.7v8.1c0,1-0.4,1.5-1.1,1.5h-1.8
			c-0.8,0-1.3-0.5-1.3-1.6V50.5c-0.1-0.5,0.1-0.9,0.3-1.3c0.3-0.2,0.6-0.3,0.9-0.2h1.6c0.3,0,0.6,0,0.9,0.2c0.2,0.3,0.4,0.6,0.5,0.9
			l2.9,8.7c0.1,0.3,0.2,0.5,0.4,0.5s0.2-0.2,0.2-0.7v-8.1c0-1,0.4-1.5,1.1-1.5h1.8c0.8,0,1.3,0.5,1.3,1.6L172.1,70.8z"/>
		<path class="st0" d="M185,65.5c0,2.5-0.3,4.2-0.9,5.1c-0.8,1.2-2.3,1.8-4.5,1.8c-2.7,0-4.5-0.9-5.2-2.8c-0.5-1.3-0.7-4.2-0.7-8.8
			c-0.1-2.9,0.1-5.9,0.5-8.8c0.5-2,1.7-3,3.5-3h4.8c0.4-0.1,0.7,0.1,1,0.3c0.2,0.4,0.3,0.8,0.2,1.2v1.1c0,1-0.4,1.5-1.1,1.5H180
			c-0.5-0.1-1,0-1.5,0.3c-0.4,0.6-0.6,1.3-0.6,2c-0.1,0.8-0.1,2.6-0.1,5.4V66c0,1.5,0.6,2.2,1.8,2.2s1.7-0.6,1.7-1.8v-3.5
			c0-0.6-0.1-0.9-0.4-0.9h-1c-0.4,0-0.6-0.4-0.6-1.1v-1.6c0-0.4,0-0.7,0.2-1.1c0.3-0.3,0.7-0.4,1.1-0.4h3.3c0.7,0,1.1,0.5,1.1,1.5
			L185,65.5z"/>
		<path class="st0" d="M200.6,70.8c0,1-0.4,1.5-1.2,1.5h-7.1c-0.6,0-0.9-0.2-1.1-0.5c-0.1-0.3-0.2-0.7-0.1-1.1V50.5
			c0-1,0.4-1.5,1.2-1.5h6.9c0.3,0,0.6,0,0.8,0.2c0.2,0.2,0.3,0.6,0.3,1.2v1.3c0,0.8-0.2,1.2-0.5,1.4c-0.2,0.1-0.4,0.1-0.6,0.1h-3.4
			c-0.3,0-0.5,0.1-0.6,0.2c0,0.2-0.1,0.4-0.1,0.5v3.2c0,0.2,0,0.4,0.1,0.6c0.1,0.1,0.2,0.1,0.5,0.1h1.7c0.7,0,1,0.4,1,1.2v1.8
			c0,0.8-0.3,1.2-1,1.2h-1.7c-0.2,0-0.4,0-0.5,0.1c-0.1,0.1-0.1,0.3-0.1,0.4v4.9c0,0.5,0.2,0.8,0.7,0.8h3.5c0.8,0,1.2,0.5,1.2,1.5
			V70.8z"/>
		<path class="st0" d="M212.9,60.7c0,2.5-0.1,5-0.3,7.5c-0.1,1.2-0.5,2.4-1.3,3.4c-0.8,0.6-1.8,0.9-2.8,0.8h-5.7
			c-0.6,0-1-0.1-1.1-0.4c-0.1-0.3-0.2-0.7-0.1-1.1V50.6c0-1,0.4-1.6,1.1-1.6h6c1.7-0.1,3.2,1,3.6,2.6C212.7,53,212.9,56,212.9,60.7z
			 M208.7,61c0-2.8,0-4.7-0.1-5.5c0-0.7-0.1-1.4-0.5-2.1c-0.4-0.3-0.9-0.4-1.4-0.3c-0.3,0-0.7,0-1,0.2c-0.1,0.1-0.2,0.4-0.2,0.9
			v13.1c0,0.4,0.1,0.7,0.2,0.8c0.3,0.1,0.7,0.2,1.1,0.2c0.4,0.1,0.9-0.1,1.2-0.3c0.4-0.6,0.5-1.2,0.5-1.9
			C208.7,65.2,208.7,63.5,208.7,61z"/>
		<path class="st0" d="M225.4,65.5c0,2.5-0.3,4.2-0.9,5.1c-0.8,1.2-2.3,1.8-4.5,1.8c-2.7,0-4.5-1-5.2-2.8c-0.5-1.3-0.7-4.2-0.7-8.8
			c-0.1-2.9,0.1-5.9,0.5-8.8c0.5-2,1.7-3,3.5-3h4.8c0.4-0.1,0.7,0.1,1,0.3c0.2,0.4,0.3,0.8,0.2,1.2v1.1c0,1-0.4,1.5-1.1,1.5h-2.5
			c-0.5-0.1-1,0-1.5,0.3c-0.4,0.6-0.6,1.3-0.6,2c-0.1,0.8-0.1,2.6-0.1,5.4V66c0,1.5,0.6,2.2,1.8,2.2s1.7-0.6,1.7-1.8v-3.5
			c0-0.6-0.1-0.9-0.4-0.9h-1c-0.4,0-0.6-0.4-0.6-1.1v-1.6c0-0.4,0-0.7,0.2-1.1c0.3-0.3,0.7-0.4,1.1-0.4h3.3c0.7,0,1.1,0.5,1.1,1.5
			L225.4,65.5z"/>
		<path class="st0" d="M236.4,70.8c0,1-0.4,1.5-1.2,1.5h-7.1c-0.6,0-0.9-0.2-1-0.5c-0.1-0.3-0.2-0.7-0.2-1.1V50.5
			c0-1,0.4-1.5,1.2-1.5h6.9c0.3,0,0.6,0,0.8,0.2c0.2,0.2,0.3,0.6,0.3,1.2v1.3c0,0.8-0.2,1.2-0.5,1.4c-0.2,0.1-0.4,0.1-0.6,0.1h-3.4
			c-0.3,0-0.5,0.1-0.6,0.2c0,0.2-0.1,0.4-0.1,0.5v3.2c0,0.2,0,0.4,0.1,0.6c0.2,0.1,0.4,0.1,0.5,0.1h1.7c0.7,0,1,0.4,1,1.2v1.8
			c0,0.8-0.3,1.2-1,1.2h-1.7c-0.2,0-0.4,0-0.5,0.1c-0.1,0.1-0.1,0.3-0.1,0.4v4.9c0,0.5,0.2,0.8,0.7,0.8h3.5c0.8,0,1.2,0.5,1.2,1.5
			L236.4,70.8z"/>
		<path class="st0" d="M246.9,68.6c0,2.5-1.2,3.7-3.7,3.7h-5.2c-0.3,0-0.7-0.1-0.9-0.3c-0.2-0.3-0.3-0.7-0.2-1.1v-1.2
			c0-0.7,0.1-1.2,0.4-1.3c0.2-0.1,0.5-0.2,0.8-0.2h3.6c0.4,0.1,0.9-0.2,0.9-0.7c0-0.1,0-0.2,0-0.2c0-0.3-0.1-0.5-0.2-0.8l-4-7.5
			c-1-1.8-1.6-3.8-1.6-5.8c-0.1-1.2,0.3-2.4,1.1-3.3c0.9-0.7,2.1-1,3.3-0.9h4c0.6,0,1,0.4,1,1.3v1.5c0,0.9-0.4,1.3-1.1,1.3h-3.1
			c-0.7,0-1.1,0.3-1.1,1c0,0.4,0.1,0.7,0.3,1.1l3.7,6.9C246,64.1,246.7,66.3,246.9,68.6z"/>
	</g>
</g>
</svg>
