<?xml version="1.0" encoding="utf-8"?>
<!-- Generator: Adobe Illustrator 26.0.2, SVG Export Plug-In . SVG Version: 6.00 Build 0)  -->
<svg version="1.1" id="Layer_1" xmlns="http://www.w3.org/2000/svg" xmlns:xlink="http://www.w3.org/1999/xlink" x="0px" y="0px"
	 viewBox="0 0 300 250" style="enable-background:new 0 0 300 250;" xml:space="preserve">
<style type="text/css">
	.st0{fill:#FFFFFF;}
</style>
<g>
	<g>
		<path class="st0" d="M34.3,70.8c0,1-0.4,1.5-1.2,1.5h-1.9c-0.7,0-1.1-0.5-1.1-1.5v-8.1c0-0.5-0.2-0.7-0.5-0.7h-2.1
			c-0.4,0-0.6,0.2-0.6,0.7v8.1c0,1-0.4,1.5-1.1,1.5h-1.8c-0.8,0-1.2-0.5-1.2-1.5V50.5c0-1,0.4-1.5,1.2-1.5H26c0.7,0,1.1,0.5,1.1,1.5
			v6.8c0,0.5,0.2,0.7,0.5,0.7h2.2c0.3,0,0.5-0.2,0.5-0.7v-6.8c0-1,0.4-1.5,1.1-1.5h1.9c0.8,0,1.2,0.5,1.2,1.5L34.3,70.8z"/>
		<path class="st0" d="M40.3,70.9c0,0.4,0,0.8-0.2,1.1c-0.2,0.2-0.5,0.3-1,0.3h-1.7c-0.3,0-0.7,0-0.9-0.2c-0.3-0.4-0.4-0.8-0.3-1.3
			V50.6c0-1,0.4-1.6,1.2-1.6h1.9c0.7,0,1.1,0.5,1.1,1.6L40.3,70.9z"/>
		<path class="st0" d="M53.1,65.5c0,2.5-0.3,4.2-0.9,5.1c-0.8,1.2-2.3,1.8-4.5,1.8c-2.7,0-4.5-0.9-5.2-2.8c-0.5-1.3-0.7-4.2-0.7-8.8
			c-0.1-2.9,0.1-5.9,0.5-8.8c0.5-2,1.7-3,3.5-3h4.8c0.4-0.1,0.7,0.1,1,0.3c0.2,0.4,0.3,0.8,0.2,1.2v1.1c0,1-0.4,1.5-1.1,1.5h-2.5
			c-0.5-0.1-1,0-1.5,0.3c-0.4,0.6-0.6,1.3-0.6,2c-0.1,0.8-0.1,2.6-0.1,5.4V66c0,1.5,0.6,2.2,1.8,2.2s1.7-0.6,1.7-1.8v-3.5
			c0-0.6-0.1-0.9-0.4-0.9h-1c-0.4,0-0.6-0.4-0.6-1.1v-1.6c0-0.4,0-0.7,0.2-1.1c0.2-0.2,0.5-0.4,1.1-0.4H52c0.7,0,1.1,0.5,1.1,1.5
			L53.1,65.5z"/>
		<path class="st0" d="M66,70.8c0,1-0.4,1.5-1.2,1.5H63c-0.7,0-1.1-0.5-1.1-1.5v-8.1c0-0.5-0.2-0.7-0.5-0.7h-2.2
			c-0.4,0-0.6,0.2-0.6,0.7v8.1c0,1-0.4,1.5-1.1,1.5h-1.8c-0.8,0-1.2-0.5-1.2-1.5V50.5c0-1,0.4-1.5,1.2-1.5h1.9
			c0.7,0,1.1,0.5,1.1,1.5v6.8c0,0.5,0.2,0.7,0.5,0.7h2.2c0.3,0,0.5-0.2,0.5-0.7v-6.8c0-1,0.4-1.5,1.1-1.5h1.9c0.8,0,1.2,0.5,1.2,1.5
			V70.8z"/>
		<path class="st0" d="M82.1,51.7c0,0.8-0.2,1.3-0.6,1.4c-0.1,0-0.3,0.1-0.5,0.1h-1.8c-0.3,0-0.5,0.2-0.5,0.7v17
			c0,0.4,0,0.8-0.2,1.2c-0.1,0.2-0.4,0.3-0.9,0.3h-1.8c-0.6,0-1-0.2-1.1-0.7c0-0.2-0.1-0.5-0.1-0.8V53.8c0-0.5-0.2-0.7-0.5-0.7h-1.8
			c-0.3,0-0.6,0-0.8-0.2c-0.2-0.2-0.3-0.6-0.3-1.2v-1.2c0-0.8,0.2-1.2,0.4-1.4c0.2-0.1,0.5-0.2,0.7-0.1h8.5c0.8,0,1.1,0.5,1.1,1.4
			L82.1,51.7z"/>
		<path class="st0" d="M92.6,70.8c0,1-0.4,1.5-1.2,1.5h-7.2c-0.5,0-0.9-0.2-1-0.5c-0.1-0.3-0.2-0.7-0.2-1.1V50.5
			c0-1,0.4-1.5,1.2-1.5h6.9c0.3,0,0.6,0,0.8,0.2c0.2,0.2,0.3,0.6,0.3,1.2v1.3c0,0.8-0.2,1.2-0.5,1.4c-0.2,0.1-0.4,0.1-0.6,0.1h-3.5
			c-0.3,0-0.5,0.1-0.6,0.2c0,0.2-0.1,0.4-0.1,0.5v3.2c0,0.2,0,0.4,0.1,0.6c0.1,0.1,0.2,0.1,0.5,0.1h1.7c0.7,0,1,0.4,1,1.2v1.8
			c0,0.8-0.3,1.2-1,1.2h-1.7c-0.3,0-0.4,0-0.5,0.1c-0.1,0.1-0.1,0.3-0.1,0.4v4.9c-0.1,0.4,0.2,0.7,0.6,0.8c0.1,0,0.1,0,0.2,0h3.5
			c0.8,0,1.2,0.5,1.2,1.5V70.8z"/>
		<path class="st0" d="M105.5,70.8c0.1,0.5-0.1,0.9-0.3,1.3c-0.3,0.2-0.6,0.3-0.9,0.2h-1.6c-0.3,0-0.6,0-0.9-0.2
			c-0.2-0.3-0.4-0.6-0.5-0.9l-2.9-8.7c-0.1-0.3-0.2-0.5-0.4-0.5s-0.2,0.2-0.2,0.7v8.1c0,1-0.4,1.5-1.1,1.5h-1.8
			c-0.8,0-1.3-0.5-1.3-1.6V50.5c-0.1-0.5,0-0.9,0.3-1.3c0.3-0.2,0.6-0.3,0.9-0.2h1.6c0.3,0,0.6,0,0.9,0.2c0.2,0.3,0.4,0.6,0.5,0.9
			l2.9,8.7c0.1,0.3,0.2,0.5,0.4,0.5s0.2-0.2,0.2-0.7v-8.1c0-1,0.4-1.5,1.1-1.5h1.8c0.8,0,1.3,0.5,1.3,1.6L105.5,70.8z"/>
		<path class="st0" d="M116.8,68.6c0,2.5-1.2,3.7-3.7,3.7h-5.2c-0.3,0-0.7-0.1-0.9-0.3c-0.2-0.3-0.3-0.7-0.2-1.1v-1.2
			c0-0.7,0.1-1.2,0.4-1.3c0.2-0.1,0.5-0.2,0.8-0.2h3.6c0.5,0.1,0.9-0.3,0.9-0.7c0-0.1,0-0.1,0-0.2c0-0.3-0.1-0.5-0.2-0.8l-4-7.5
			c-1-1.8-1.6-3.8-1.6-5.8c-0.1-1.2,0.3-2.4,1.1-3.3c0.9-0.7,2.1-1,3.3-0.9h4c0.7,0,1,0.4,1,1.3v1.5c0,0.9-0.3,1.3-1.1,1.3h-3.1
			c-0.7,0-1.1,0.3-1.1,1c0,0.4,0.1,0.7,0.3,1.1l3.7,6.9C115.8,64.1,116.6,66.3,116.8,68.6z"/>
		<path class="st0" d="M122,70.9c0,0.4,0,0.8-0.2,1.1c-0.1,0.2-0.5,0.3-1,0.3h-1.7c-0.3,0-0.7,0-0.9-0.2c-0.3-0.4-0.4-0.8-0.3-1.3
			V50.6c0-1,0.4-1.6,1.2-1.6h1.9c0.7,0,1.1,0.5,1.1,1.6L122,70.9z"/>
		<path class="st0" d="M132.5,70.8c0,1-0.4,1.5-1.3,1.5H125c-0.5,0-0.8-0.1-1-0.4c-0.2-0.4-0.2-0.8-0.2-1.2V50.5
			c0-1,0.4-1.5,1.2-1.5h1.8c0.4-0.1,0.8,0.1,1,0.4c0.1,0.3,0.2,0.7,0.2,1.1v17c0,0.5,0.2,0.7,0.6,0.7h2.8c0.8,0,1.2,0.5,1.2,1.5
			L132.5,70.8z"/>
		<path class="st0" d="M143,70.8c0,1-0.4,1.5-1.2,1.5h-7.1c-0.5,0-0.9-0.2-1-0.5c-0.1-0.3-0.2-0.7-0.1-1.1V50.5c0-1,0.4-1.5,1.2-1.5
			h6.9c0.3,0,0.6,0,0.8,0.2c0.2,0.2,0.3,0.6,0.3,1.2v1.3c0,0.8-0.2,1.2-0.5,1.4c-0.2,0.1-0.4,0.1-0.6,0.1h-3.4
			c-0.3,0-0.5,0.1-0.6,0.2c0,0.2-0.1,0.4-0.1,0.5v3.2c0,0.2,0,0.4,0.1,0.6c0.1,0.1,0.2,0.1,0.5,0.1h1.7c0.7,0,1,0.4,1,1.2v1.8
			c0,0.8-0.3,1.2-1,1.2h-1.7c-0.3,0-0.4,0-0.5,0.1c-0.1,0.1-0.1,0.3-0.1,0.4v4.9c-0.1,0.4,0.2,0.7,0.6,0.8c0.1,0,0.1,0,0.2,0h3.5
			c0.8,0,1.2,0.5,1.2,1.5L143,70.8z"/>
	</g>
</g>
</svg>
