<?xml version="1.0" encoding="utf-8"?>
<!-- Generator: Adobe Illustrator 16.0.0, SVG Export Plug-In . SVG Version: 6.00 Build 0)  -->
<!DOCTYPE svg PUBLIC "-//W3C//DTD SVG 1.1//EN" "http://www.w3.org/Graphics/SVG/1.1/DTD/svg11.dtd">
<svg version="1.1" id="Layer_1" xmlns="http://www.w3.org/2000/svg" xmlns:xlink="http://www.w3.org/1999/xlink" x="0px" y="0px"
	 width="39.092px" height="8.923px" viewBox="0 0 39.092 8.923" enable-background="new 0 0 39.092 8.923" xml:space="preserve">
<g>
	<path fill="#FFFFFF" d="M0,0.18h0.815v3.718H5.9V0.18h0.815v8.563H5.9v-4.15H0.815v4.15H0V0.18z"/>
	<path fill="#FFFFFF" d="M12.034,0c2.687,0,4.03,2.123,4.03,4.461c0,2.339-1.343,4.461-4.03,4.461c-2.699,0-4.042-2.123-4.042-4.461
		C7.992,2.123,9.335,0,12.034,0z M12.034,8.228c2.254,0,3.214-1.895,3.214-3.766s-0.959-3.766-3.214-3.766
		c-2.267,0-3.227,1.895-3.227,3.766S9.767,8.228,12.034,8.228z"/>
	<path fill="#FFFFFF" d="M17.256,0.18h0.815v5.301c-0.012,1.991,0.936,2.747,2.506,2.747c1.583,0,2.531-0.756,2.519-2.747V0.18
		h0.815v5.481c0,1.763-0.948,3.262-3.334,3.262c-2.375,0-3.322-1.499-3.322-3.262V0.18z"/>
	<path fill="#FFFFFF" d="M25.943,5.925c-0.036,1.763,1.235,2.303,2.795,2.303c0.899,0,2.267-0.492,2.267-1.739
		c0-0.971-0.972-1.355-1.763-1.547l-1.907-0.468c-1.008-0.252-1.931-0.732-1.931-2.063c0-0.839,0.54-2.411,2.951-2.411
		c1.691,0,3.178,0.912,3.166,2.663h-0.815c-0.048-1.307-1.127-1.967-2.339-1.967c-1.115,0-2.147,0.432-2.147,1.703
		c0,0.804,0.6,1.14,1.295,1.308l2.087,0.516c1.211,0.324,2.219,0.852,2.219,2.255c0,0.587-0.24,2.446-3.274,2.446
		c-2.027,0-3.514-0.911-3.418-2.998H25.943z"/>
	<path fill="#FFFFFF" d="M33.119,0.18h5.913v0.696h-5.097V3.97h4.773v0.696h-4.773v3.382h5.157v0.696h-5.973V0.18z"/>
</g>
</svg>
