<?xml version="1.0" encoding="utf-8"?>
<!-- Generator: Adobe Illustrator 25.4.1, SVG Export Plug-In . SVG Version: 6.00 Build 0)  -->
<svg version="1.1" id="Layer_1" xmlns="http://www.w3.org/2000/svg" xmlns:xlink="http://www.w3.org/1999/xlink" x="0px" y="0px"
	 viewBox="0 0 300 600" style="enable-background:new 0 0 300 600;" xml:space="preserve">
<style type="text/css">
	.st0{clip-path:url(#SVGID_00000029036225902445447360000013257833325827864716_);}
	.st1{fill:#EAB8B9;}
</style>
<g>
	<defs>
		<rect id="SVGID_1_" width="300" height="600"/>
	</defs>
	<clipPath id="SVGID_00000003792286871509144650000006419917480456778911_">
		<use xlink:href="#SVGID_1_"  style="overflow:visible;"/>
	</clipPath>
	<g style="clip-path:url(#SVGID_00000003792286871509144650000006419917480456778911_);">
		<path class="st1" d="M39.2,562.5c-0.1-0.3-0.2-0.6-0.2-0.9c0-0.4-0.3-0.8-0.7-0.8c0,0-0.1,0-0.1,0H37v1.7h-0.6v-4.3h1.7
			c1.1,0,1.6,0.5,1.6,1.3c0,0.6-0.4,1-0.9,1.1c0,0,0,0-0.1,0c0.5,0.1,0.8,0.5,0.8,0.9c0.1,0.6,0.1,0.9,0.2,1L39.2,562.5z
			 M38.1,560.2c0.7,0,1.1-0.3,1.1-0.8s-0.3-0.8-1.1-0.8H37v1.6H38.1z"/>
		<path class="st1" d="M43.2,561.5c-0.1,0.7-0.7,1.1-1.4,1.1c-0.8,0-1.5-0.6-1.5-1.4c0,0,0-0.1,0-0.1c0-0.8,0.6-1.6,1.4-1.6
			c0,0,0.1,0,0.1,0c0.8,0,1.4,0.6,1.4,1.3c0,0.1,0,0.1,0,0.2v0.2h-2.4c0,0.6,0.4,1,1,1c0.4,0,0.8-0.3,0.9-0.7L43.2,561.5z
			 M42.6,560.7c0-0.5-0.3-0.9-0.8-0.9c0,0,0,0,0,0c-0.5,0-0.9,0.4-0.9,0.9H42.6z"/>
		<path class="st1" d="M46,561.8c-0.2,0.4-0.6,0.7-1.1,0.7c-0.9-0.1-1.5-1-1.3-1.8c0.1-0.7,0.6-1.2,1.3-1.3c0.5,0,0.9,0.3,1.1,0.7
			v-1.9h0.6v4.3H46V561.8z M46,560.8c0-0.5-0.4-1-0.9-1c0,0,0,0-0.1,0c-0.6,0-0.9,0.4-0.9,1.1s0.3,1.1,0.9,1.1c0.5,0,0.9-0.4,1-0.9
			c0,0,0,0,0-0.1V560.8z"/>
		<path class="st1" d="M50.5,562.5h-1.8v-4.3h1.8c1.1,0,1.5,0.5,1.5,1.1c0,0.5-0.3,0.9-0.8,0.9c0.5,0,0.9,0.5,0.9,1
			C52,562,51.5,562.5,50.5,562.5z M49.2,560h1.2c0.6,0,0.9-0.3,0.9-0.7s-0.3-0.7-0.9-0.7h-1.2V560z M49.2,560.5v1.5h1.2
			c0.6,0,1-0.3,1-0.7s-0.3-0.8-1-0.8L49.2,560.5z"/>
		<path class="st1" d="M52.6,558.2h0.6v0.6h-0.6V558.2z M53.2,559.5v3h-0.6v-3H53.2z"/>
		<path class="st1" d="M55.7,560c-0.1-0.1-0.3-0.1-0.5-0.1c-0.4,0-0.8,0.4-0.8,1v1.6H54v-3h0.6v0.6c0.1-0.4,0.4-0.7,0.8-0.7
			c0.2,0,0.3,0,0.4,0.1L55.7,560z"/>
		<path class="st1" d="M58.4,561.8c-0.2,0.4-0.6,0.7-1.1,0.7c-0.9-0.1-1.5-1-1.3-1.8c0.1-0.7,0.6-1.2,1.3-1.3c0.5,0,0.9,0.3,1.1,0.7
			v-1.9h0.6v4.3h-0.6V561.8z M58.4,560.8c0-0.5-0.4-1-0.9-1c0,0,0,0-0.1,0c-0.6,0-0.9,0.4-0.9,1.1s0.3,1.1,0.9,1.1
			c0.5,0,0.9-0.4,1-0.9c0,0,0,0,0-0.1V560.8z"/>
		<path class="st1" d="M62.3,562.5l-1.7-4.3h0.6l1.5,3.6l0,0l1.4-3.6h0.6l-1.7,4.3H62.3z"/>
		<path class="st1" d="M67.6,561.5c-0.1,0.7-0.7,1.1-1.4,1.1c-0.8,0-1.5-0.6-1.5-1.4c0,0,0-0.1,0-0.1c0-0.8,0.6-1.6,1.4-1.6
			c0,0,0.1,0,0.1,0c0.8,0,1.4,0.6,1.4,1.3c0,0.1,0,0.1,0,0.2v0.2h-2.4c0,0.6,0.4,1,1,1c0.4,0,0.8-0.3,0.9-0.7L67.6,561.5z M67,560.7
			c0-0.5-0.3-0.9-0.8-0.9c0,0,0,0,0,0c-0.5,0-0.9,0.4-0.9,0.9H67z"/>
		<path class="st1" d="M68.7,562.5h-0.6v-3h0.6v0.5c0.2-0.4,0.6-0.6,1-0.6c0.8,0,1.1,0.5,1.1,1.2v1.8h-0.6v-1.8
			c0-0.5-0.2-0.8-0.7-0.8c-0.5,0-0.8,0.4-0.8,0.8c0,0,0,0,0,0.1L68.7,562.5z"/>
		<path class="st1" d="M71.6,559.9h-0.4v-0.3h0.2c0.3,0,0.3-0.2,0.4-0.5l0.1-0.4h0.3v0.8H73v0.4h-0.8v1.8c0,0.3,0.1,0.4,0.4,0.4
			c0.2,0,0.4-0.1,0.6-0.2v0.4c-0.2,0.2-0.5,0.3-0.8,0.2c-0.4,0-0.7-0.2-0.7-0.8L71.6,559.9z"/>
		<path class="st1" d="M75.6,559.5h0.6v3h-0.6v-0.5c-0.2,0.4-0.6,0.6-1,0.6c-0.8,0-1.1-0.5-1.1-1.2v-1.8h0.6v1.8
			c0,0.5,0.2,0.8,0.7,0.8c0.5,0,0.8-0.4,0.8-0.8c0,0,0,0,0-0.1L75.6,559.5z"/>
		<path class="st1" d="M78.7,560c-0.1-0.1-0.3-0.1-0.5-0.1c-0.4,0-0.8,0.4-0.8,1v1.6h-0.6v-3h0.6v0.6c0.1-0.4,0.4-0.7,0.8-0.7
			c0.2,0,0.3,0,0.4,0.1L78.7,560z"/>
		<path class="st1" d="M81.8,561.5c-0.1,0.7-0.7,1.1-1.4,1.1c-0.8,0-1.5-0.6-1.5-1.4c0-0.1,0-0.1,0-0.2c-0.1-0.8,0.6-1.6,1.4-1.6
			c0,0,0.1,0,0.1,0c0.8,0,1.4,0.5,1.4,1.3c0,0.1,0,0.1,0,0.2v0.2h-2.4c0,0.6,0.4,1,1,1c0.4,0,0.8-0.3,0.9-0.7L81.8,561.5z
			 M81.3,560.7c0-0.5-0.3-0.9-0.8-0.9c0,0,0,0-0.1,0c-0.5,0-0.9,0.4-0.9,0.9H81.3z"/>
		<path class="st1" d="M82.7,561.4c0,0.4,0.4,0.7,0.9,0.7c0,0,0,0,0,0c0.4,0,0.7-0.1,0.7-0.4s-0.2-0.4-0.6-0.4l-0.5-0.1
			c-0.6-0.1-0.9-0.3-0.9-0.8s0.5-0.9,1.2-0.9s1.2,0.4,1.3,1.1h-0.4c0-0.4-0.4-0.7-0.8-0.7c0,0,0,0,0,0c-0.4,0-0.6,0.2-0.6,0.4
			s0.2,0.4,0.4,0.4l0.6,0.1c0.6,0.1,0.9,0.3,0.9,0.9s-0.5,0.9-1.2,0.9s-1.3-0.3-1.4-1.1L82.7,561.4z"/>
		<path class="st1" d="M87.2,558.2v3.8h2.4v0.5h-3v-4.3L87.2,558.2z"/>
		<path class="st1" d="M90.2,558.2h0.6v0.6h-0.6V558.2z M90.8,559.5v3h-0.6v-3H90.8z"/>
		<path class="st1" d="M95,559.4c0.8,0,1,0.5,1,1.2v1.8h-0.5v-1.8c0-0.5-0.2-0.8-0.7-0.8c-0.4,0-0.8,0.4-0.8,0.9c0,0,0,0,0,0v1.7
			h-0.6v-1.8c0-0.5-0.2-0.8-0.7-0.8c-0.4,0-0.8,0.4-0.8,0.9c0,0,0,0,0,0v1.7h-0.6v-3h0.6v0.5c0.2-0.4,0.6-0.6,1-0.6
			c0.4-0.1,0.9,0.2,1,0.7C94.2,559.7,94.6,559.4,95,559.4z"/>
		<path class="st1" d="M96.8,558.2h0.6v0.6h-0.6V558.2z M97.4,559.5v3h-0.6v-3H97.4z"/>
		<path class="st1" d="M98.2,559.9h-0.4v-0.3H98c0.3,0,0.3-0.2,0.4-0.5l0.1-0.4h0.3v0.8h0.8v0.4h-0.8v1.8c0,0.3,0.1,0.4,0.4,0.4
			c0.2,0,0.4-0.1,0.6-0.2v0.4c-0.2,0.2-0.5,0.3-0.8,0.2c-0.4,0-0.7-0.2-0.7-0.8V559.9z"/>
		<path class="st1" d="M102.9,561.5c-0.1,0.7-0.7,1.1-1.4,1.1c-0.8,0.1-1.5-0.6-1.5-1.4c0-0.1,0-0.1,0-0.2c-0.1-0.8,0.6-1.6,1.4-1.6
			c0,0,0.1,0,0.1,0c0.8,0,1.4,0.5,1.4,1.3c0,0.1,0,0.1,0,0.2v0.2h-2.4c0,0.6,0.4,1,1,1c0.4,0,0.8-0.3,0.9-0.7L102.9,561.5z
			 M102.4,560.7c0-0.5-0.3-0.9-0.8-0.9c0,0,0,0,0,0c-0.5,0-0.9,0.4-0.9,0.9H102.4z"/>
		<path class="st1" d="M105.8,561.8c-0.2,0.4-0.6,0.7-1.1,0.7c-0.9-0.1-1.5-1-1.3-1.8c0.1-0.7,0.6-1.2,1.3-1.3
			c0.5,0,0.9,0.3,1.1,0.7v-1.9h0.6v4.3h-0.6V561.8z M105.8,560.8c0-0.5-0.4-1-0.9-1c0,0-0.1,0-0.1,0c-0.6,0-0.9,0.4-0.9,1.1
			s0.3,1.1,0.9,1.1c0.5,0,1-0.4,1-0.9c0,0,0-0.1,0-0.1V560.8z"/>
		<path class="st1" d="M107,561.8h0.7v0.7H107V561.8z"/>
	</g>
</g>
</svg>
