<svg id="Layer_1" data-name="Layer 1" xmlns="http://www.w3.org/2000/svg" xmlns:xlink="http://www.w3.org/1999/xlink" viewBox="0 0 300 600"><defs><style>.cls-1{fill:none;}.cls-2{clip-path:url(#clip-path);}.cls-3{fill:#fff;}.cls-4{fill:#221e1f;}.cls-5{clip-path:url(#clip-path-2);}.cls-6{clip-path:url(#clip-path-3);}</style><clipPath id="clip-path"><rect class="cls-1" x="-320" width="300" height="600"/></clipPath><clipPath id="clip-path-2"><rect class="cls-1" width="300" height="600"/></clipPath><clipPath id="clip-path-3"><rect class="cls-1" x="143.86" y="535.74" width="116.6" height="26.71"/></clipPath></defs><g class="cls-2"><path class="cls-3" d="M-115.69-92C-204.54-92-288-3.81-288,82.57c0,85.34,70.41,154.76,157,154.77,88.83,0,172.39-88.17,172.39-174.5C41.34-22.54-29.1-92-115.69-92M25.24,5.06Z"/><path class="cls-4" d="M-115.69-92C-204.54-92-288-3.81-288,82.57c0,85.34,70.41,154.77,157,154.77,88.83,0,172.38-88.17,172.38-174.5C41.33-22.54-29.11-92-115.69-92M25.24,5.06ZM14.75,4.4,6.62,11.78A157.62,157.62,0,0,0-2.45-3.61l8.8-8a143,143,0,0,1,8.4,16M-.59-21.88l-9.19,8.33a154.28,154.28,0,0,0-14-15.37l9.67-8.77A144.5,144.5,0,0,1-.59-21.88M-40-58.43A143,143,0,0,1-23.15-46.06L-33-37.15A155.8,155.8,0,0,0-50.06-49.31Zm5.18,32.36Zm-39.43-48a142.08,142.08,0,0,1,23,9.27l-10.12,9.18A153,153,0,0,0-84.26-65Zm-40.19-6.13a143.5,143.5,0,0,1,25.82,2.58l-9.8,8.89A154.33,154.33,0,0,0-123.48-72Zm16,20.1Zm-35.52-19L-142-71.76a153.31,153.31,0,0,0-42.43,9.12A142,142,0,0,1-134-79.09m3,304.67c-78.85,0-143-64.16-143-143s64.15-143,143-143a142.64,142.64,0,0,1,36,4.6l.26.28.17-.16c61.26,16.16,106.56,72,106.56,138.28,0,78.85-64.16,143-143,143m143-202.15,7.51-6.82A141.91,141.91,0,0,1,25,37.33L18.68,43a153.41,153.41,0,0,0-6.62-19.59m9.6,33.48,5.18-4.7c.26,3.51.44,7,.44,10.63A142.87,142.87,0,0,1,23.13,97c.44-4.74.7-9.55.7-14.41a155.07,155.07,0,0,0-2.17-25.66"/></g><g class="cls-5"><rect class="cls-4" y="502.27" width="300" height="97.73"/><g class="cls-6"><path class="cls-3" d="M166.93,554.89c0-3.67-2.34-5.67-5.38-6.29a5.15,5.15,0,0,0,4.6-5.27c0-4.32-3-7.1-9.66-7.1H143.86V562h13.49c6.05,0,9.58-2.62,9.58-7.07m-10.73-3.27c2.47,0,3.54,1,3.54,2.41s-1.07,2.37-3.5,2.37h-5.59v-4.78Zm-5.55-9.88h4.93c2.39,0,3.33,1.06,3.33,2.41s-.94,2.29-3.33,2.29h-4.93Z"/><path class="cls-3" d="M181.29,562.45c6.66,0,11.8-3.19,11.8-10.7V536.23h-7V550.6c0,3.92-1.19,6-4.81,6s-4.82-2.09-4.82-6V536.23h-6.95v15.52c0,7.51,5.1,10.7,11.77,10.7"/><path class="cls-3" d="M195.69,549.09c0,7.93,5.71,13.36,13.28,13.36,7.94,0,12.18-5,12.67-11.4l-6.7-.28c-.42,2.86-2,5.51-6,5.51-3.82,0-6-2.82-6-7.19s2.22-7.19,6-7.19c4,0,5.59,2.66,6,5.52l6.7-.25c-.49-6.41-4.73-11.43-12.67-11.43-7.57,0-13.28,5.43-13.28,13.35"/><polygon class="cls-3" points="249.15 561.96 238.67 547.17 248.66 536.23 240.64 536.23 231.34 546.64 231.34 536.23 224.35 536.23 224.35 561.96 231.34 561.96 231.34 554.16 233.61 551.71 240.8 561.96 249.15 561.96"/><path class="cls-3" d="M254.1,540.31H253v-3.13h-1.36v-.93h3.85v.93H254.1Zm4.46,0h-.79l-.8-2.85h0v2.85h-1v-4.06h1.58l.7,2.71h0l.7-2.71h1.51v4.06h-1.07v-2.85h0Z"/></g></g></svg>