<?xml version="1.0" encoding="UTF-8"?><svg id="Layer_2" xmlns="http://www.w3.org/2000/svg" xmlns:xlink="http://www.w3.org/1999/xlink" viewBox="0 0 32.96 16.79"><defs><style>.cls-1,.cls-2{fill:none;}.cls-3{clip-path:url(#clippath);}.cls-4{fill:#fff;}.cls-5{fill:#ff3008;}.cls-6{fill:#ce2e19;}.cls-7{fill:#c5e8e9;}.cls-8{fill:#10322c;}.cls-9{fill:#221f20;}.cls-10{fill:#27346b;}.cls-11{clip-path:url(#clippath-1);}.cls-2{stroke:#27346b;stroke-miterlimit:10;stroke-width:.51px;}</style><clipPath id="clippath"><ellipse class="cls-1" cx="16.48" cy="8.4" rx="16.22" ry="8.14"/></clipPath><clipPath id="clippath-1"><ellipse class="cls-2" cx="16.48" cy="8.4" rx="16.22" ry="8.14"/></clipPath></defs><g id="Layer_3"><g><g><path class="cls-4" d="M13.99,14.17c-.57-4.61-.46-9.14,.34-13.78C6.41,.92,.3,4.33,.3,8.46c0,.77,.21,1.52,.61,2.23,2.84,1.88,7.17,3.09,12.94,3.48,.05,0,.09,0,.14,0Z"/><path class="cls-4" d="M1.06,10.93s-.04-.06-.06-.1c.02,.03,.04,.06,.06,.1Z"/><path class="cls-5" d="M13.99,14.17c.92,.06,1.87,.1,2.87,.12,.2,0,.39,0,.58,0,.06,0,.12,0,.18,0-.59-4.66-.48-9.24,.34-13.93-.48-.02-.97-.03-1.46-.03-.74,0-1.46,.03-2.17,.07-.8,4.64-.91,9.17-.34,13.78Z"/><path class="cls-7" d="M18.02,16.5c7.21-.34,13.05-3.05,14.39-6.56-3.03,2.6-8.29,4.23-14.79,4.35,.09,.74,.2,1.48,.33,2.22,.02,0,.04,0,.07,0Z"/><path class="cls-7" d="M.9,10.68c.03,.05,.06,.1,.1,.15-.03-.05-.06-.1-.09-.15,0,0,0,0,0,0Z"/><path class="cls-7" d="M1.09,10.98s-.02-.03-.03-.05c.01,.02,.02,.03,.03,.05Z"/><path class="cls-7" d="M14.33,16.46c-.13-.77-.25-1.53-.34-2.29-.05,0-.09,0-.14,0-5.77-.39-10.1-1.6-12.94-3.48,.03,.05,.06,.1,.09,.15,.02,.03,.04,.06,.06,.1,.01,.02,.02,.03,.03,.05,1.93,2.9,7.03,5.07,13.24,5.49Z"/><path class="cls-6" d="M16.86,14.29c-.99-.02-1.95-.06-2.87-.12,.09,.76,.21,1.53,.34,2.29,.7,.05,1.42,.07,2.15,.07,.41,0,.81,0,1.21-.02,.09,0,.18,0,.26-.01-.13-.74-.24-1.48-.33-2.22-.06,0-.12,0-.18,0-.19,0-.39,0-.58,0Z"/></g><g><path class="cls-4" d="M17.62,14.28c6.17-.11,11.21-1.58,14.3-3.95h-14.63c.05,1.31,.16,2.63,.33,3.95Z"/><path class="cls-4" d="M17.96,.35c-.37,2.14-.59,4.25-.67,6.36h15.05C30.84,3.29,25.05,.67,17.96,.35Z"/><path class="cls-4" d="M18.02,16.5s-.04,0-.07,0c-.09,0-.18,0-.26,.01-.4,.01-.8,.02-1.21,.02-.73,0-1.45-.03-2.15-.07-6.21-.41-11.31-2.59-13.24-5.49,2.11,3.26,8.21,5.62,15.41,5.62,7.67,0,14.09-2.67,15.77-6.27h-.03c-1.61,3.32-7.28,5.84-14.22,6.17Z"/><path class="cls-5" d="M17.28,6.71H.58s-.44,.88-.38,1.78,.48,1.84,.48,1.84H17.29c-.05-1.21-.05-2.41,0-3.62Z"/><path class="cls-5" d="M31.92,10.33h.32c.06-.13,.12-.26,.17-.39-.16,.13-.32,.27-.49,.39Z"/><path class="cls-5" d="M32.33,6.71h-15.05c-.05,1.21-.04,2.41,0,3.62h14.63c.17-.13,.33-.26,.49-.39-.05,.13-.11,.26-.17,.39h.03c.28-.6,.43-1.23,.43-1.87,0-.6-.13-1.18-.37-1.75Z"/></g><path class="cls-9" d="M32.53,7.91c-.42-2.85-4.98-3.77-7.34-4.41,2.43,.61,7.06,1.46,7.51,4.41,0,0-.16,0-.16,0h0Z"/><path class="cls-10" d="M16.48,16.72C7.43,16.72,.06,12.99,.06,8.4S7.43,.07,16.48,.07s16.42,3.74,16.42,8.33-7.37,8.33-16.42,8.33ZM16.48,.45C7.64,.45,.46,4.01,.46,8.4s7.19,7.95,16.02,7.95,16.02-3.57,16.02-7.95S25.31,.45,16.48,.45Z"/><g class="cls-3"><g><path class="cls-10" d="M11.08,2.73c-1.34-.78-4.88-1.39-7.11-.65-1.15,.38-2.4,1.09-3.58,1.91,5.33-1.52,6.95-1.37,10.69-1.27Z"/><path class="cls-10" d="M-.58,4.71c-3.66,2.84-5.62,6.98-1.31,3.3C2.7,4.1,7.68,3.41,11.08,2.99c-3.85,0-5.83,0-11.65,1.73Z"/></g></g><g><g class="cls-11"><polygon class="cls-8" points="16.55 14.31 16.55 14.31 16.55 14.31 16.55 14.31"/><path class="cls-10" d="M30.12,13.27c4.12-2.74,6.95-6.21,1.76-3.09-5.66,3.39-11.32,4.03-13.89,4.12,2.85,.38,5.8,.36,12.13-1.03Z"/><path class="cls-10" d="M22.25,14.91c-1.97,.09-2.38,.1-4.16-.18,1.37,.93,4.56,1.59,6.99,.98,1.26-.32,2.64-.97,3.96-1.76-2.81,.58-4.94,.87-6.79,.96Z"/></g><ellipse class="cls-2" cx="16.48" cy="8.4" rx="16.22" ry="8.14"/></g></g></g></svg>