<?xml version="1.0" encoding="utf-8"?>
<!-- Generator: Adobe Illustrator 26.5.0, SVG Export Plug-In . SVG Version: 6.00 Build 0)  -->
<svg version="1.1" id="Layer_3" xmlns="http://www.w3.org/2000/svg" xmlns:xlink="http://www.w3.org/1999/xlink" x="0px" y="0px"
	 viewBox="0 0 375 50" style="enable-background:new 0 0 375 50;" xml:space="preserve">
<style type="text/css">
	.st0{fill:#ECFBFB;}
	.st1{clip-path:url(#SVGID_00000021102457726454939570000012628384276582338447_);}
	.st2{fill-rule:evenodd;clip-rule:evenodd;fill:#C6E6F5;}
	.st3{clip-path:url(#SVGID_00000153706650310043058460000017731612199504464047_);}
	.st4{fill:#27346B;}
	.st5{fill:#FFFFFF;}
	.st6{fill:#273479;}
	.st7{fill:#FF3008;}
</style>
<g>
	<rect x="-0.6" y="0.2" class="st0" width="377.2" height="50.8"/>
	<g>
		<defs>
			<rect id="SVGID_1_" x="274.4" y="-17.4" width="105" height="69.3"/>
		</defs>
		<clipPath id="SVGID_00000103241241443453328760000013795470032660201632_">
			<use xlink:href="#SVGID_1_"  style="overflow:visible;"/>
		</clipPath>
		<g style="clip-path:url(#SVGID_00000103241241443453328760000013795470032660201632_);">
			<polygon class="st2" points="413.8,15.8 411.3,11.1 407.9,11.1 405.4,15.8 405.4,25.6 401.1,25.6 401.1,10.3 396.1,10.3 
				395.7,10.3 394.8,10.3 394.8,28.3 390.2,28.3 390.2,18.4 388,18.4 388,17.5 386.3,17.5 385.8,17.5 384.5,17.5 384.5,18.4 
				382.3,18.4 382.3,29.4 380.9,29.4 380.9,12.9 373,12.9 373,29.4 371.4,29.4 371.4,9.7 368.9,8.5 368.3,8.5 368.3,7.4 363.5,7.4 
				363.5,8.5 363.1,8.5 360.7,9.7 360.7,26.6 359.4,26.6 359.4,19.9 355.1,16.8 349.1,16.8 349.1,30.1 347.5,30.1 347.5,21.1 
				338,21.1 338,24.3 336,24.3 336,15.3 328.4,15.3 328.4,29.7 325.7,29.7 322.5,29.7 322.5,46.7 322.5,42.5 314.8,42.5 314.8,61.1 
				312,61.1 312,56.2 305.4,56.2 305.4,79.3 302.7,79.3 302.7,72.5 295.1,72.5 295.1,79 295.1,128.7 292.6,128.7 290.6,128.7 
				290.6,121.9 285,121.9 285,132 282.2,132 282.2,112.7 272.2,110.6 272.2,135.4 270.6,135.4 270.6,118.2 269.2,118.2 269.2,117.5 
				265.5,117.5 265.5,118.2 264.1,118.2 264.1,129.4 262.3,129.4 262.3,118.2 256.8,118.2 256.8,128.1 255.9,128.1 255.9,115.3 
				253.1,115.3 253.1,114.3 248.4,114.3 248.4,115.3 246.5,115.3 246.5,127.7 244.8,127.7 244.8,120.3 243.8,119.4 237.1,119.4 
				236.6,120.3 234.6,120.3 234.6,127.7 232.2,127.7 232.2,109.2 231,109.2 231,108.5 226.9,108.5 225.9,109.2 224.3,109.2 
				224.3,110.4 220.5,110.4 220.5,117.2 210.9,117.2 210.9,125.5 209.3,125.5 209.3,112.9 197.9,112.9 197.9,122.5 196.3,122.5 
				196.3,119.5 188.7,119.5 188.7,122.4 187.7,122.4 187.7,112 180,112 180,131.5 178.1,131.5 178.1,115.5 170.4,115.5 170.4,118.7 
				167,118.7 167,108.8 167,107.1 167,105.7 162.6,105.7 162.6,107.1 156.9,107.1 156.9,125 154,125 154,121.7 146.1,121.7 
				146.1,125 144.8,125 144.8,111.3 143.1,109.4 134.7,112.1 134.7,128.9 133.3,128.9 133.3,121.9 125.7,121.9 125.7,128.9 
				124.2,128.9 124.2,119.6 120.4,115.4 114.2,115.4 114.2,192.8 664.4,177.6 664.4,30.1 663,30.1 663,19.4 655.3,19.4 655.3,24.3 
				653.4,24.3 653.4,15.3 645.7,15.3 645.7,29.7 644,29.7 644,25.5 622.8,25.5 622.8,31.4 620,31.4 620,19.5 613.3,19.5 610.7,26.4 
				610.7,15 607.1,15 607.1,25 605.8,25 604.6,22.9 604.2,22.9 604.2,31.2 602.6,31.2 602.6,19.2 595.6,19.2 595.6,23.5 594.2,23.5 
				594.2,9.9 584.7,7.8 584.7,32.7 583.7,32.7 583.7,15.4 582.3,15.4 582.3,14.8 577.5,14.8 577.5,15.4 576.2,15.4 576.2,26.6 
				574.3,26.6 574.3,21.4 574.1,21.4 571.6,22.8 571.6,12.5 570.4,12.5 570.4,11.6 569.5,11.6 569.5,9.9 567,9.9 567,11.6 
				566.2,11.6 566.2,12.5 564.8,12.5 564.8,24.4 560.4,24.4 560.4,17.6 559.4,17.6 559.4,16.7 556.8,16.7 556.2,17.6 554.2,17.6 
				554.2,27.4 551.5,27.4 551.5,13 550.2,13 550.2,9.6 544.2,9.6 543.2,13 541.6,13 541.6,29.4 537.1,29.4 537.1,14.5 529.2,14.5 
				529.2,29.4 526.5,29.4 526.5,10.2 525.2,10.2 522.6,7.7 520,10.2 518.4,10.2 518.4,29.4 513.7,29.4 513.7,16.8 506,16.8 505,9.3 
				497.4,9.3 497.4,28.8 495.4,28.8 495.4,12.8 491.7,12.8 491.7,13.9 488.3,13.9 488.2,16.1 483.4,16.1 483.4,14.5 482.4,14.5 
				482.4,13.3 473.9,13.3 473.9,14.5 472.9,14.5 472.9,25.5 469.2,25.5 469.2,10.2 466.5,10.2 466.5,9.2 463.5,9.2 463.5,10.2 
				460.8,10.2 460.8,26.9 459.2,24.4 459.2,11.8 458.4,11.8 458.4,10.9 453.3,10.9 453.3,11.8 451.6,11.8 450.6,3.7 442.9,3.7 
				442.9,25 441,25 441,12.8 433.3,12.8 431.2,16.8 429.4,16.8 428.6,19.2 414.8,19.2 413.8,19.9 413.8,15.8 			"/>
		</g>
	</g>
	<g>
		<defs>
			<rect id="SVGID_00000140728918366981049750000012244344251932517290_" x="323.5" y="-5.6" width="45.7" height="58.5"/>
		</defs>
		<clipPath id="SVGID_00000140717849117780672000000013409802573084351646_">
			<use xlink:href="#SVGID_00000140728918366981049750000012244344251932517290_"  style="overflow:visible;"/>
		</clipPath>
		<g style="clip-path:url(#SVGID_00000140717849117780672000000013409802573084351646_);">
			<g>
				<g>
					<path class="st4" d="M349.2,3.6c-3.6,0-6.6,2.9-6.6,6.4v8.9c0,3.5,3,5,6.6,5s6.6-1.5,6.6-5V10C355.9,6.4,352.9,3.6,349.2,3.6z"
						/>
					<path class="st5" d="M346.1,28.1c0.9-0.6,1.6-1.6,1.4-3.3l3.7-0.1c-0.3,0-0.1,1.3-0.1,1.5c0.1,0.8,0.6,1.3,1.1,1.6
						c0.1,0,0.2,0.1,0.2,0.1C352.4,28,349.7,29.8,346.1,28.1L346.1,28.1z"/>
					<g>
						<path class="st5" d="M354.4,20.7c0-1.3-0.8-1.1-1.1-0.9c-0.3-2.9-1.9-3-3.9-3c-2,0-3.8-0.1-4.1,3c-0.3-0.1-1.1-0.4-1.1,0.9
							c0,1.2,0.8,1.4,1.2,1.4c0.2,2.3,1.2,4.6,3.9,4.7c2.9,0,3.8-2.4,4-4.7C353.6,22.1,354.3,21.9,354.4,20.7L354.4,20.7z"/>
						<path class="st4" d="M349.3,16.1c-2.2,0-4.1-0.1-4.1,3.8c0,2.7,0.6,6.1,3.9,6.2c3.5,0,4.1-3.6,4.1-6.1
							C353.3,16.3,351.5,16.1,349.3,16.1L349.3,16.1z M349.2,25.5c-3-0.1-3.6-3.1-3.6-5.6c0-3.5,1.7-3.4,3.8-3.4
							c2,0,3.6,0.1,3.6,3.5C352.9,22.2,352.4,25.5,349.2,25.5L349.2,25.5z"/>
					</g>
					<path class="st6" d="M343.9,20.4h10.7c0,0-0.3-5.9-5.4-5.9S343.9,20.4,343.9,20.4z"/>
				</g>
				<g>
					<path class="st7" d="M340.7,30.8c0,0-7.6,11.9-3.2,26l3.4-0.5c0,0-4-13.8,2-19.9L340.7,30.8L340.7,30.8z"/>
					<path class="st7" d="M357.8,30.8c0,0,7.8,11.9,3.5,26l-3.4-0.5c0,0,3.8-13.8-2.2-19.9L357.8,30.8L357.8,30.8z"/>
					<g>
						<g>
							<path class="st7" d="M355.9,44.4l1.5,10.8l-6.5,1.2h-3l-6.8-1.2l1.8-10.8l-2.1-13.5c0.6-0.8,1.6-1.2,2.5-1.6l3-1.4h5.9l3,1.4
								c0.2,0.1,1.9,0.8,2.5,1.6L355.9,44.4z"/>
							<polygon class="st5" points="356.2,46.1 355.9,44.4 342.8,44.4 342.5,46.1 							"/>
							<rect x="349" y="27.8" class="st5" width="0.5" height="28.6"/>
						</g>
						<path class="st6" d="M346.3,27.8c0,0,0.7,0.7,3.1,0.7s2.9-0.7,2.9-0.7l-0.7-0.9c0,0-1.9,1.1-4.5,0L346.3,27.8L346.3,27.8z"/>
						<g>
							<path class="st5" d="M350.7,30c0,0.2-0.2,0.4-0.4,0.4s-0.4-0.2-0.4-0.4s0.2-0.4,0.4-0.4S350.7,29.7,350.7,30z"/>
							<path class="st5" d="M350.7,31.8c0,0.2-0.2,0.4-0.4,0.4s-0.4-0.2-0.4-0.4s0.2-0.4,0.4-0.4S350.7,31.6,350.7,31.8z"/>
							<path class="st5" d="M350.7,33.7c0,0.2-0.2,0.4-0.4,0.4s-0.4-0.2-0.4-0.4s0.2-0.4,0.4-0.4S350.7,33.5,350.7,33.7z"/>
							<path class="st5" d="M350.7,35.6c0,0.2-0.2,0.4-0.4,0.4s-0.4-0.2-0.4-0.4s0.2-0.4,0.4-0.4S350.7,35.4,350.7,35.6z"/>
							<path class="st5" d="M350.7,37.5c0,0.2-0.2,0.4-0.4,0.4s-0.4-0.2-0.4-0.4s0.2-0.4,0.4-0.4S350.7,37.2,350.7,37.5z"/>
							<path class="st5" d="M350.7,39.3c0,0.2-0.2,0.4-0.4,0.4s-0.4-0.2-0.4-0.4s0.2-0.4,0.4-0.4S350.7,39.1,350.7,39.3z"/>
							<path class="st5" d="M350.7,41.2c0,0.2-0.2,0.4-0.4,0.4s-0.4-0.2-0.4-0.4s0.2-0.4,0.4-0.4S350.7,41,350.7,41.2z"/>
							<path class="st5" d="M350.7,43.1c0,0.2-0.2,0.4-0.4,0.4s-0.4-0.2-0.4-0.4s0.2-0.4,0.4-0.4S350.7,42.9,350.7,43.1z"/>
						</g>
						<path class="st4" d="M347.8,44.2h2.9c0.3,0,0.5,0.2,0.5,0.5v0.9c0,0.3-0.2,0.5-0.5,0.5h-2.9c-0.3,0-0.5-0.2-0.5-0.5v-0.9
							C347.3,44.4,347.5,44.2,347.8,44.2z"/>
					</g>
				</g>
			</g>
		</g>
	</g>
</g>
</svg>
