<?xml version="1.0" encoding="UTF-8"?><svg id="Layer_2" xmlns="http://www.w3.org/2000/svg" viewBox="0 0 93.24 19.97"><defs><style>.cls-1{fill:#fff;}.cls-2{fill:#ff3008;}</style></defs><g id="Layer_3"><g><rect class="cls-2" x="0" y="0" width="93.24" height="19.97" rx="9.99" ry="9.99"/><g><path class="cls-1" d="M20.72,6.78c2.02,0,3.51,1.49,3.51,3.33s-1.49,3.33-3.51,3.33-3.51-1.49-3.51-3.33,1.49-3.33,3.51-3.33Zm0,5.09c.98,0,1.76-.77,1.76-1.76s-.77-1.75-1.76-1.75-1.76,.77-1.76,1.75,.77,1.76,1.76,1.76Z"/><path class="cls-1" d="M25.42,6.96h2.97c1.34,0,2.29,.95,2.29,2.16,0,.68-.26,1.13-.54,1.4-.15,.16-.33,.3-.54,.4l1.31,2.34h-1.8l-1.04-1.98h-.95v1.98h-1.71V6.96Zm2.88,2.79c.4,0,.68-.27,.68-.63s-.27-.63-.68-.63h-1.17v1.26h1.17Z"/><path class="cls-1" d="M31.99,6.96h2.34c2.03,0,3.42,1.4,3.42,3.15s-1.39,3.15-3.42,3.15h-2.34V6.96Zm2.34,4.77c.98,0,1.67-.68,1.67-1.62s-.68-1.62-1.67-1.62h-.63v3.24h.63Z"/><path class="cls-1" d="M38.94,6.96h4.82v1.53h-3.11v.9h2.38v1.44h-2.38v.9h3.2v1.53h-4.91V6.96Z"/><path class="cls-1" d="M45.13,6.96h2.97c1.34,0,2.29,.95,2.29,2.16,0,.68-.26,1.13-.54,1.4-.15,.16-.33,.3-.54,.4l1.31,2.34h-1.8l-1.04-1.98h-.95v1.98h-1.71V6.96Zm2.88,2.79c.4,0,.68-.27,.68-.63s-.27-.63-.68-.63h-1.17v1.26h1.17Z"/><path class="cls-1" d="M53.54,6.96h1.49l2.7,3.47v-3.47h1.71v6.3h-1.48l-2.7-3.47v3.47h-1.71V6.96Z"/><path class="cls-1" d="M64.14,6.78c2.02,0,3.51,1.49,3.51,3.33s-1.49,3.33-3.51,3.33-3.51-1.49-3.51-3.33,1.49-3.33,3.51-3.33Zm0,5.09c.98,0,1.76-.77,1.76-1.76s-.77-1.75-1.76-1.75-1.76,.77-1.76,1.75,.77,1.76,1.76,1.76Z"/><path class="cls-1" d="M67.97,6.96h1.85l.99,3.69h.04l1.12-3.69h1.53l1.12,3.69h.04l.99-3.69h1.85l-2.07,6.3h-1.53l-1.15-3.78h-.04l-1.15,3.78h-1.53l-2.07-6.3Z"/></g></g></g></svg>