<?xml version="1.0" encoding="UTF-8"?><svg id="Layer_2" xmlns="http://www.w3.org/2000/svg" viewBox="0 0 66.38 32.23"><defs><style>.cls-1{fill:#ff3008;}</style></defs><g id="Layer_3"><g><path class="cls-1" d="M2.75,24.67c2.17,0,3.8,1.64,3.8,3.7s-1.64,3.7-3.8,3.7H.18c-.1,0-.18-.08-.18-.18v-7.01c0-.1,.08-.18,.18-.18l2.56-.02Zm-1.16,1.43v4.55h1.16c1.24-.02,2.23-1.03,2.21-2.27,.03-1.22-.93-2.24-2.15-2.27-.02,0-.04,0-.06,0H1.59Z"/><path class="cls-1" d="M12.14,24.52c2.27,0,4.01,1.74,4.01,3.86s-1.74,3.86-4.01,3.86-4.02-1.74-4.02-3.86,1.74-3.85,4.02-3.85m0,6.28c1.34,0,2.43-1.09,2.43-2.43s-1.09-2.43-2.43-2.43-2.43,1.09-2.43,2.43c0,1.34,1.09,2.43,2.43,2.43"/><path class="cls-1" d="M21.69,24.52c2.27,0,4.02,1.74,4.02,3.86s-1.74,3.86-4.02,3.86-4.01-1.74-4.01-3.86,1.74-3.85,4.01-3.85m0,6.28c1.34,0,2.43-1.09,2.43-2.43,0-1.34-1.09-2.43-2.43-2.43-1.34,0-2.43,1.09-2.43,2.43h0c0,1.34,1.09,2.43,2.43,2.43"/><path class="cls-1" d="M27.8,24.86c0-.1,.08-.18,.18-.18h3.08c1.47,0,2.54,1.08,2.54,2.43,0,.91-.5,1.75-1.32,2.16l1.42,2.52c.06,.08,.03,.2-.05,.26-.03,.02-.07,.03-.12,.03h-1.25c-.07,0-.14-.04-.17-.1l-1.37-2.49h-1.37v2.4c0,.1-.08,.18-.18,.18h-1.2c-.1,0-.18-.08-.18-.18v-7.02Zm3.22,1.24h-1.64v1.95h1.64c.53,.02,.98-.39,1-.92,0-.01,0-.02,0-.03,.02-.54-.4-.99-.94-1-.02,0-.05,0-.07,0"/><path class="cls-1" d="M38.91,24.71c2.17,0,3.81,1.64,3.81,3.7s-1.64,3.7-3.81,3.7h-2.56c-.1,0-.18-.08-.18-.18v-7.03c0-.1,.08-.18,.18-.18h2.56Zm-1.17,1.43v4.54h1.17c1.24-.02,2.23-1.03,2.21-2.27,.03-1.22-.93-2.24-2.15-2.27-.02,0-.04,0-.06,0h-1.17Z"/><path class="cls-1" d="M46.11,30.32l-.59,1.62c-.03,.08-.1,.13-.18,.13h-1.27c-.1,0-.19-.06-.2-.17,0-.03,0-.07,.02-.1l2.76-7.01c.03-.08,.1-.13,.18-.12h1.43c.08,0,.16,.04,.18,.12l2.75,7.01c.04,.09,0,.2-.09,.25-.03,.01-.06,.02-.1,.02h-1.28c-.08,0-.16-.05-.18-.13l-.59-1.62h-2.85Zm1.43-3.8l-.9,2.43h1.8l-.9-2.43Z"/><path class="cls-1" d="M52.67,26.67c0-1.16,1-2.17,2.59-2.17,.85-.02,1.67,.29,2.3,.86,.07,.08,.07,.2,0,.27l-.71,.71c-.07,.07-.19,.07-.26,0,0,0,0,0,0,0-.34-.31-.77-.48-1.22-.48-.63,0-1.11,.37-1.11,.79,0,1.37,3.75,.58,3.75,3.22,0,1.32-1.01,2.32-2.8,2.32-1,.01-1.96-.37-2.67-1.07-.07-.08-.07-.2,0-.27l.68-.68c.07-.07,.19-.08,.26,0h0c.44,.42,1.01,.66,1.62,.66,.79,0,1.32-.42,1.32-.95,0-1.37-3.75-.58-3.75-3.22"/><path class="cls-1" d="M64.8,24.86v2.77h-3.17v-2.77c0-.1-.08-.18-.18-.18h-1.21c-.1,0-.18,.08-.18,.18v7.01c0,.1,.08,.18,.18,.18h1.2c.1,0,.18-.08,.18-.18v-2.82h3.17v2.82c0,.1,.08,.18,.18,.18h1.22c.1,0,.18-.08,.18-.18v-7.01c0-.1-.08-.18-.18-.18h-1.2c-.1,0-.19,.08-.19,.18h0"/><path class="cls-1" d="M45.34,4.03C44.02,1.54,41.42,0,38.6,0H17.27c-.41,0-.73,.34-.73,.75,0,.19,.08,.37,.21,.51l4.65,4.67c.41,.41,.97,.65,1.55,.65h15.04c1.07-.08,2,.73,2.07,1.8,.08,1.07-.73,2-1.8,2.07-.08,0-.16,0-.24,0h-10.38c-.41,0-.73,.34-.73,.75,0,.19,.08,.37,.21,.51l4.65,4.67c.41,.41,.97,.65,1.55,.65h4.69c6.1,0,10.71-6.52,7.31-13"/></g></g></svg>