<?xml version="1.0" encoding="utf-8"?>
<!-- Generator: Adobe Illustrator 26.5.0, SVG Export Plug-In . SVG Version: 6.00 Build 0)  -->
<svg version="1.1" id="Layer_3" xmlns="http://www.w3.org/2000/svg" xmlns:xlink="http://www.w3.org/1999/xlink" x="0px" y="0px"
	 viewBox="0 0 375 50" style="enable-background:new 0 0 375 50;" xml:space="preserve">
<style type="text/css">
	.st0{fill:#27346B;}
</style>
<g>
	<g>
		<path class="st0" d="M212.6,5.3c-5.4,0-10.3,0.7-10.3,0.7v16.5c0,2.2,0.9,3.8,2.5,4.7l7.8,4.5l7.8-4.5c1.6-1,2.5-2.5,2.5-4.7V6
			C222.9,6,218,5.3,212.6,5.3L212.6,5.3z M222.3,22.4v0.1c0,0.2,0,0.2,0,0.4c-0.1,1.7-0.9,2.9-2.2,3.6l-7.5,4.3l-7.5-4.3
			c-1.4-0.8-2.1-2-2.2-3.6l0,0c0-0.1,0-0.2,0-0.4v-2.6l0,0v-4.6l0,0V6.6c0,0,4.7-0.6,9.7-0.6s9.7,0.6,9.7,0.6L222.3,22.4L222.3,22.4
			z"/>
		<path class="st0" d="M203.6,7.1v8.6l9,5.2l9-5.2V7.1c0,0-4.5-0.5-9-0.5S203.6,7.1,203.6,7.1z M215.9,8.8h1.4V13h2.7v1.2h-3.2
			c0,0-0.4-0.5-0.9-1V8.8L215.9,8.8z M215.2,10.6c0,0.7-0.3,1.3-0.8,1.6c0.2,0.2,1.6,1.9,1.6,1.9h-1.7l-1.3-1.6h-0.7v1.6H211v-3.6
			h1.4v0.8h0.8c0.4,0,0.7-0.3,0.7-0.7c0-0.5-0.3-0.7-0.8-0.7h-2.9v4.2h-1.3l-1.9-3h0v3h-1.3V8.8h1.3l1.8,3h0v-3h4.3
			C214.5,8.8,215.2,9.5,215.2,10.6L215.2,10.6z"/>
		<polygon class="st0" points="203.6,18.7 203.6,20.3 212.6,25.5 221.6,20.3 221.6,18.7 212.6,23.9 		"/>
		<path class="st0" d="M203.7,23.3c0.2,1.2,0.8,2.1,1.8,2.7l7.1,4.1l7.1-4.1c1-0.6,1.6-1.5,1.8-2.7l-8.9,5.2L203.7,23.3L203.7,23.3z
			"/>
	</g>
	<g>
		<path class="st0" d="M230.5,11.2c1.5,0,2.7,1.2,2.7,2.6s-1.2,2.6-2.7,2.6s-2.7-1.2-2.7-2.6S228.9,11.2,230.5,11.2z M230.5,15.4
			c0.9,0,1.6-0.7,1.6-1.6s-0.7-1.6-1.6-1.6s-1.6,0.7-1.6,1.6S229.6,15.4,230.5,15.4z"/>
		<path class="st0" d="M234.4,11.3h3.7v1h-2.6v1.2h2v1h-2v1.8h-1.1C234.4,16.3,234.4,11.3,234.4,11.3z"/>
		<path class="st0" d="M239.2,11.3h3.7v1h-2.6v1.2h2v1h-2v1.8h-1.1C239.2,16.3,239.2,11.3,239.2,11.3z"/>
		<path class="st0" d="M244,11.3h1.1v5H244C244,16.3,244,11.3,244,11.3z"/>
		<path class="st0" d="M251.1,15.4c-0.1,0.2-0.3,0.4-0.5,0.5c-0.4,0.3-0.9,0.5-1.6,0.5c-1.5,0-2.7-1.2-2.7-2.6s1.2-2.6,2.7-2.6
			c0.7,0,1.2,0.2,1.6,0.5c0.2,0.1,0.4,0.3,0.5,0.5l-0.7,0.7c-0.1-0.1-0.2-0.2-0.4-0.4c-0.2-0.2-0.6-0.4-1-0.4
			c-0.9,0-1.6,0.7-1.6,1.6s0.7,1.6,1.6,1.6c0.5,0,0.8-0.2,1.1-0.4c0.1-0.1,0.3-0.2,0.4-0.4L251.1,15.4L251.1,15.4z"/>
		<path class="st0" d="M252.2,11.3h1.1v5h-1.1C252.2,16.3,252.2,11.3,252.2,11.3z"/>
		<path class="st0" d="M256.1,11.3h1.2l1.9,5h-1.1l-0.4-1.1h-1.9l-0.4,1.1h-1.1L256.1,11.3L256.1,11.3z M257.3,14.2l-0.6-1.6h0
			l-0.6,1.6H257.3z"/>
		<path class="st0" d="M260.2,11.3h1.1v4h2.3v1h-3.4C260.2,16.3,260.2,11.3,260.2,11.3z"/>
		<path class="st0" d="M266.1,11.3h1.8c1.5,0,2.6,1.1,2.6,2.5s-1.1,2.5-2.6,2.5h-1.8C266.1,16.3,266.1,11.3,266.1,11.3z M267.9,15.3
			c0.9,0,1.5-0.6,1.5-1.5s-0.6-1.5-1.5-1.5h-0.8v3L267.9,15.3L267.9,15.3z"/>
		<path class="st0" d="M271.8,11.3h3.7v1h-2.6v1h2.1v1h-2.1v1.1h2.7v1h-3.8L271.8,11.3L271.8,11.3z"/>
		<path class="st0" d="M276.9,11.3h1.1v4h2.3v1h-3.4C276.9,16.3,276.9,11.3,276.9,11.3z"/>
		<path class="st0" d="M281.2,11.3h1.1v5h-1.1C281.2,16.3,281.2,11.3,281.2,11.3z"/>
		<path class="st0" d="M283.3,11.3h1.1l1.3,3.7h0l1.3-3.7h1.1l-1.9,5h-1.2C285.1,16.3,283.3,11.3,283.3,11.3z"/>
		<path class="st0" d="M289.1,11.3h3.7v1h-2.6v1h2.1v1h-2.1v1.1h2.7v1h-3.8L289.1,11.3L289.1,11.3z"/>
		<path class="st0" d="M294.2,11.3h2.2c1.1,0,1.7,0.7,1.7,1.7c0,0.6-0.2,0.9-0.4,1.2c-0.1,0.1-0.3,0.2-0.4,0.3l1,1.9h-1.2l-0.9-1.6
			h-1v1.6h-1.1L294.2,11.3L294.2,11.3z M296.4,13.6c0.4,0,0.7-0.3,0.7-0.7s-0.3-0.7-0.7-0.7h-1.1v1.4H296.4z"/>
		<path class="st0" d="M300.6,14.5l-1.9-3.2h1.2l1.2,2.1h0l1.2-2.1h1.2l-1.9,3.2v1.8h-1.1L300.6,14.5L300.6,14.5z"/>
		<path class="st0" d="M228.1,18.5h2.1c1.1,0,1.8,0.7,1.8,1.7s-0.7,1.7-1.8,1.7h-1v1.6h-1.1V18.5z M230.1,20.8
			c0.4,0,0.7-0.3,0.7-0.7s-0.3-0.7-0.7-0.7h-1v1.4H230.1z"/>
		<path class="st0" d="M234.2,18.5h1.2l1.9,5h-1.1l-0.4-1.1h-1.9l-0.4,1.1h-1.1L234.2,18.5L234.2,18.5z M235.4,21.4l-0.6-1.6h0
			l-0.6,1.6H235.4L235.4,21.4z"/>
		<path class="st0" d="M238.3,18.5h2.2c1.1,0,1.7,0.7,1.7,1.7c0,0.6-0.2,0.9-0.4,1.2c-0.1,0.1-0.3,0.2-0.4,0.3l1,1.9h-1.2l-0.9-1.6
			h-1v1.6h-1.1L238.3,18.5L238.3,18.5z M240.4,20.8c0.4,0,0.7-0.3,0.7-0.7s-0.3-0.7-0.7-0.7h-1.1v1.4H240.4z"/>
		<path class="st0" d="M244.5,19.5h-1.4v-1h3.9v1h-1.4v4h-1.1V19.5z"/>
		<path class="st0" d="M248,18.5h1l2.4,3.1v-3.1h1.1v5h-1l-2.4-3.1v3.1H248V18.5z"/>
		<path class="st0" d="M254,18.5h3.7v1H255v1h2.1v1H255v1.1h2.7v1H254V18.5L254,18.5z"/>
		<path class="st0" d="M259,18.5h2.2c1.1,0,1.7,0.7,1.7,1.7c0,0.6-0.2,0.9-0.4,1.2c-0.1,0.1-0.3,0.2-0.4,0.3l1,1.9H262l-0.9-1.6h-1
			v1.6H259L259,18.5L259,18.5z M261.2,20.8c0.4,0,0.7-0.3,0.7-0.7s-0.3-0.7-0.7-0.7h-1.1v1.4H261.2z"/>
		<path class="st0" d="M268.2,18.4c1.5,0,2.7,1.2,2.7,2.6s-1.2,2.6-2.7,2.6s-2.7-1.2-2.7-2.6S266.7,18.4,268.2,18.4z M268.2,22.6
			c0.9,0,1.6-0.7,1.6-1.6s-0.7-1.6-1.6-1.6s-1.6,0.7-1.6,1.6S267.3,22.6,268.2,22.6z"/>
		<path class="st0" d="M272.1,18.5h3.7v1h-2.6v1.2h2v1h-2v1.8h-1.1V18.5z"/>
		<path class="st0" d="M279.4,19.5H278v-1h3.9v1h-1.4v4h-1.1L279.4,19.5L279.4,19.5z"/>
		<path class="st0" d="M282.9,18.5h1.1v2h2.1v-2h1.1v5h-1.1v-2h-2.1v2h-1.1V18.5z"/>
		<path class="st0" d="M288.7,18.5h3.7v1h-2.6v1h2.1v1h-2.1v1.1h2.7v1h-3.8L288.7,18.5L288.7,18.5z"/>
		<path class="st0" d="M295.2,18.5h1l2.4,3.1v-3.1h1.1v5h-1l-2.4-3.1v3.1h-1.1V18.5z"/>
		<path class="st0" d="M301.2,18.5h2.2c1.1,0,1.7,0.7,1.7,1.7c0,0.6-0.2,0.9-0.4,1.2c-0.1,0.1-0.3,0.2-0.4,0.3l1,1.9h-1.2l-0.9-1.6
			h-1v1.6h-1.1L301.2,18.5L301.2,18.5z M303.4,20.8c0.4,0,0.7-0.3,0.7-0.7s-0.3-0.7-0.7-0.7h-1.1v1.4H303.4z"/>
		<path class="st0" d="M306.5,18.5h1.1v4h2.3v1h-3.4V18.5z"/>
	</g>
</g>
</svg>
