<svg xmlns="http://www.w3.org/2000/svg" viewBox="0 0 110.15 9.93"><defs><style>.cls-1{fill:#fff;}</style></defs><g id="Layer_2" data-name="Layer 2"><g id="Layer_1-2" data-name="Layer 1"><path class="cls-1" d="M0,2.38H.86V3.54A2.58,2.58,0,0,1,3.07,2.25a2.82,2.82,0,0,1,2.75,3v0a2.83,2.83,0,0,1-2.75,3A2.61,2.61,0,0,1,.86,7V9.93H0Zm4.94,2.9v0A2.08,2.08,0,0,0,2.91,3,2.15,2.15,0,0,0,.83,5.24v0A2.15,2.15,0,0,0,2.91,7.5,2,2,0,0,0,4.94,5.28Z"/><path class="cls-1" d="M7.2,6.47v0c0-1.24,1-1.89,2.46-1.89a5.81,5.81,0,0,1,1.76.25V4.63c0-1-.62-1.56-1.7-1.56A3.93,3.93,0,0,0,8,3.48l-.26-.7a4.75,4.75,0,0,1,2.1-.49,2.56,2.56,0,0,1,1.86.63,2.29,2.29,0,0,1,.6,1.7V8.14h-.85V7.28a2.5,2.5,0,0,1-2.07,1A1.94,1.94,0,0,1,7.2,6.47ZM11.44,6V5.49a6.11,6.11,0,0,0-1.69-.25c-1.07,0-1.68.47-1.68,1.16v0c0,.73.67,1.15,1.45,1.15A1.72,1.72,0,0,0,11.44,6Z"/><path class="cls-1" d="M14,5.29v0a3,3,0,0,1,5.26-2l-.57.6A2.31,2.31,0,0,0,16.89,3a2.12,2.12,0,0,0-2.06,2.23v0A2.16,2.16,0,0,0,17,7.51a2.39,2.39,0,0,0,1.76-.86l.55.51A3,3,0,0,1,14,5.29Z"/><path class="cls-1" d="M20.89,0h.86V5.62l3.11-3.24h1.07L23.51,4.85,26,8.14H25L22.92,5.45,21.75,6.64v1.5h-.86Z"/><path class="cls-1" d="M29.72,7.53a2.34,2.34,0,0,0,1.82-.82l.54.48A3,3,0,0,1,29.7,8.28a2.87,2.87,0,0,1-2.87-3,2.85,2.85,0,0,1,2.76-3c1.71,0,2.69,1.36,2.69,3.06,0,.08,0,.17,0,.3H27.7A2,2,0,0,0,29.72,7.53Zm1.69-2.61A1.89,1.89,0,0,0,29.57,3,2,2,0,0,0,27.7,4.92Z"/><path class="cls-1" d="M33.68,5.28v0a2.83,2.83,0,0,1,2.75-3,2.61,2.61,0,0,1,2.21,1.23V0h.86V8.14h-.86V7a2.61,2.61,0,0,1-2.21,1.29A2.82,2.82,0,0,1,33.68,5.28Zm5,0v0A2.14,2.14,0,0,0,36.59,3a2,2,0,0,0-2,2.22v0a2.08,2.08,0,0,0,2,2.24A2.16,2.16,0,0,0,38.67,5.26Z"/><path class="cls-1" d="M45.21,2.38h.86v1a2.11,2.11,0,0,1,1.86-1.1A2,2,0,0,1,49.79,3.4a2.3,2.3,0,0,1,2-1.15A2.08,2.08,0,0,1,54,4.57V8.14H53.1V4.77C53.1,3.66,52.54,3,51.6,3A1.61,1.61,0,0,0,50,4.82V8.14h-.85V4.75c0-1.08-.57-1.72-1.48-1.72a1.67,1.67,0,0,0-1.61,1.82V8.14h-.86Z"/><path class="cls-1" d="M56,6V2.38h.86V5.74a1.53,1.53,0,0,0,1.59,1.74,1.7,1.7,0,0,0,1.73-1.8V2.38H61V8.14h-.85v-1a2.2,2.2,0,0,1-2,1.13A2.11,2.11,0,0,1,56,6Z"/><path class="cls-1" d="M62.65,7.41l.44-.62a3.34,3.34,0,0,0,2,.74c.7,0,1.2-.36,1.2-.92v0c0-.58-.68-.8-1.44-1S62.93,5,62.93,4v0a1.75,1.75,0,0,1,2-1.65A3.93,3.93,0,0,1,67,2.91l-.39.65A3.24,3.24,0,0,0,64.87,3c-.68,0-1.11.36-1.11.84v0c0,.55.71.76,1.48,1s1.85.62,1.85,1.65v0c0,1.09-.9,1.72-2,1.72A4,4,0,0,1,62.65,7.41Z"/><path class="cls-1" d="M68.91,0h.86V3.38a2.18,2.18,0,0,1,2-1.13A2.11,2.11,0,0,1,74,4.56V8.14H73.1V4.77A1.54,1.54,0,0,0,71.5,3a1.7,1.7,0,0,0-1.73,1.81v3.3h-.86Z"/><path class="cls-1" d="M76,2.38h.86v1.5a2.45,2.45,0,0,1,2.35-1.6V3.2h-.07c-1.26,0-2.28.9-2.28,2.64v2.3H76Z"/><path class="cls-1" d="M80.15,5.29v0a3,3,0,0,1,6,0v0a3,3,0,0,1-3,3A3,3,0,0,1,80.15,5.29Zm5.13,0v0A2.18,2.18,0,0,0,83.14,3,2.13,2.13,0,0,0,81,5.24v0a2.17,2.17,0,0,0,2.13,2.25A2.13,2.13,0,0,0,85.28,5.29Z"/><path class="cls-1" d="M87.57,5.29v0a3,3,0,0,1,6,0v0a3,3,0,0,1-3,3A3,3,0,0,1,87.57,5.29Zm5.13,0v0A2.18,2.18,0,0,0,90.56,3a2.13,2.13,0,0,0-2.11,2.23v0a2.17,2.17,0,0,0,2.13,2.25A2.13,2.13,0,0,0,92.7,5.29Z"/><path class="cls-1" d="M95.36,2.38h.86v1a2.11,2.11,0,0,1,1.86-1.1A2,2,0,0,1,99.93,3.4a2.31,2.31,0,0,1,2-1.15,2.07,2.07,0,0,1,2.14,2.32V8.14h-.85V4.77c0-1.11-.56-1.74-1.5-1.74a1.61,1.61,0,0,0-1.59,1.79V8.14h-.85V4.75c0-1.08-.57-1.72-1.49-1.72a1.67,1.67,0,0,0-1.6,1.82V8.14h-.86Z"/><path class="cls-1" d="M105.71,7.41l.44-.62a3.34,3.34,0,0,0,2,.74c.69,0,1.19-.36,1.19-.92v0c0-.58-.68-.8-1.44-1S106,5,106,4v0a1.75,1.75,0,0,1,2-1.65,3.93,3.93,0,0,1,2.07.63l-.39.65A3.24,3.24,0,0,0,107.93,3c-.68,0-1.11.36-1.11.84v0c0,.55.71.76,1.48,1s1.85.62,1.85,1.65v0c0,1.09-.9,1.72-2.05,1.72A4,4,0,0,1,105.71,7.41Z"/></g></g></svg>