<svg xmlns="http://www.w3.org/2000/svg" viewBox="0 0 85.19 18.9"><defs><style>.cls-1{fill:#fff;}</style></defs><g id="Layer_2" data-name="Layer 2"><g id="Layer_1-2" data-name="Layer 1"><path class="cls-1" d="M4,1c0,.07.09.17.15.29a.4.4,0,0,1,.06.32c-.18.6-.33,1.2-.47,1.79s-.27,1.18-.41,1.78-.22,1.06-.3,1.59S2.89,7.8,2.81,8.35A15.13,15.13,0,0,0,2.63,10c0,.56-.07,1.11-.1,1.66A28.19,28.19,0,0,0,2.45,15c0,.27,0,.54,0,.8s0,.54,0,.81V18a.29.29,0,0,0,0,.09.22.22,0,0,1,0,.09.67.67,0,0,1,0,.23v0a.63.63,0,0,1,0,.16c0,.17,0,.28-.1.33a.43.43,0,0,1-.33,0l-.31-.12a2,2,0,0,1-.29-.14l-.24-.21A1.7,1.7,0,0,1,1,18.17L.7,17.79l-.28-.41-.1-.31-.1-.31a4,4,0,0,1-.11-.54c0-.17,0-.35,0-.54s0-.65,0-1,0-.65,0-1c0-.56.07-1.13.1-1.7s.09-1.14.16-1.71S.41,9.2.5,8.64.67,7.53.76,7c.18-1.14.4-2.28.65-3.4S2,1.33,2.3.22A.25.25,0,0,1,2.48,0a.72.72,0,0,1,.29,0,1.27,1.27,0,0,1,.32.13l.26.17a2.55,2.55,0,0,1,.38.29A2.51,2.51,0,0,1,4,1Z"/><path class="cls-1" d="M20.43,8a1.94,1.94,0,0,1,.12.56,2.73,2.73,0,0,1,0,.57c0,.37-.08.74-.14,1.1s-.12.73-.17,1.1-.08.73-.14,1.09-.11.74-.17,1.12-.07.72-.1,1.08-.07.73-.1,1.1a5.21,5.21,0,0,0,0,.55,2.56,2.56,0,0,1-.05.55c0,.18,0,.35,0,.52s0,.35,0,.54a.15.15,0,0,1-.11.16.61.61,0,0,1-.52,0l-.27-.15a2.75,2.75,0,0,1-.33-.23,3.58,3.58,0,0,1-.28-.26,2.27,2.27,0,0,1-.23-.31.77.77,0,0,1-.16-.33c0-.19-.06-.37-.08-.56a5.54,5.54,0,0,0-.07-.57q0-.3,0-.6v-.6a16.62,16.62,0,0,1,.16-1.88c.08-.61.18-1.24.3-1.87a3.73,3.73,0,0,0,.09-.46l.09-.46a3.55,3.55,0,0,0-.23.31l-.2.3c-.14.19-.27.38-.4.58s-.26.39-.4.58l-.4.65c-.12.22-.25.43-.37.66-.27.44-.52.9-.75,1.37s-.48.93-.74,1.4l-.15.3a1.15,1.15,0,0,1-.2.29l-.27.23a.84.84,0,0,1-.73.11,3.61,3.61,0,0,1-.42-.16,2.84,2.84,0,0,1-.5-.32l-.42-.4a2.78,2.78,0,0,1-.38-.54,6.45,6.45,0,0,1-.29-.59,4.25,4.25,0,0,1-.15-.56c0-.19-.07-.38-.1-.57a.27.27,0,0,0-.09.12l-.09.11c-.14.16-.26.31-.37.46l-.35.46c-.12.18-.23.35-.33.52l-.31.51-.57,1c-.18.34-.38.68-.59,1,0,.09-.07.17-.11.26a.48.48,0,0,1-.17.2.61.61,0,0,1-.56.21,2.11,2.11,0,0,1-.59-.18A3.23,3.23,0,0,1,5.7,17.07a1.91,1.91,0,0,1-.3-.69A3,3,0,0,1,5.32,16c0-.14,0-.29-.05-.45,0,0,0,.08,0,.12a.5.5,0,0,1,0,.12c0-.35-.06-.68-.08-1s0-.64,0-1c0-.55,0-1.09,0-1.62s.08-1.06.14-1.59S5.54,9.49,5.61,9s.16-1.06.25-1.59A.17.17,0,0,1,6,7.21a.59.59,0,0,1,.23,0,.66.66,0,0,1,.37.1l.32.2a2.4,2.4,0,0,1,.68.67l.17.28a.45.45,0,0,1,.06.31c0,.28-.06.54-.09.8s0,.52-.09.79c0,.55-.07,1.1-.1,1.66s0,1.1,0,1.65c.13-.2.27-.41.39-.63a5,5,0,0,1,.43-.6A6.35,6.35,0,0,1,9,11.58a5.82,5.82,0,0,1,.45-.4,2.58,2.58,0,0,1,.53-.32.82.82,0,0,1,.41,0,3.28,3.28,0,0,1,.41.08,2.41,2.41,0,0,1,.8.47,4,4,0,0,1,.63.68,3.21,3.21,0,0,1,.35.66c.09.23.17.46.24.7a.21.21,0,0,1,0,.12.36.36,0,0,0,0,.11,2.73,2.73,0,0,0,.22-.41,2.73,2.73,0,0,1,.22-.41c.36-.73.74-1.46,1.13-2.18.15-.29.32-.58.5-.86s.36-.56.55-.83l.59-.72c.21-.24.43-.48.67-.72l.36-.32q.18-.16.36-.3l.42-.32a1.1,1.1,0,0,1,.47-.21,1.2,1.2,0,0,1,.85.21,3.7,3.7,0,0,1,.69.58A2.09,2.09,0,0,1,20.43,8Z"/><path class="cls-1" d="M37.52,8a1.64,1.64,0,0,1,.11.56,2.73,2.73,0,0,1,0,.57c0,.37-.09.74-.15,1.1s-.11.73-.16,1.1-.08.73-.14,1.09S37,13.2,37,13.58s-.07.72-.1,1.08-.07.73-.11,1.1c0,.19,0,.37,0,.55a3.41,3.41,0,0,1,0,.55c0,.18,0,.35,0,.52s0,.35,0,.54a.15.15,0,0,1-.12.16A.59.59,0,0,1,36,18l-.27-.15a4,4,0,0,1-.34-.23l-.28-.26a3.58,3.58,0,0,1-.23-.31.74.74,0,0,1-.15-.33,5.39,5.39,0,0,1-.08-.56,5.58,5.58,0,0,0-.08-.57c0-.2,0-.4,0-.6v-.6c0-.64.07-1.26.15-1.88s.19-1.24.31-1.87l.09-.46.09-.46a2.26,2.26,0,0,0-.23.31l-.21.3c-.13.19-.27.38-.39.58s-.27.39-.4.58l-.4.65c-.13.22-.25.43-.37.66-.27.44-.53.9-.76,1.37s-.47.93-.73,1.4l-.15.3a1,1,0,0,1-.21.29,2,2,0,0,1-.27.23.69.69,0,0,1-.29.13.81.81,0,0,1-.44,0,3.47,3.47,0,0,1-.41-.16,2.52,2.52,0,0,1-.5-.32,5.33,5.33,0,0,1-.42-.4,2.46,2.46,0,0,1-.39-.54c-.1-.19-.19-.39-.28-.59a3.11,3.11,0,0,1-.15-.56c0-.19-.07-.38-.11-.57a.62.62,0,0,0-.09.12.31.31,0,0,1-.09.11c-.13.16-.26.31-.37.46s-.23.31-.34.46-.24.35-.34.52l-.31.51-.56,1c-.19.34-.39.68-.59,1a1.51,1.51,0,0,1-.12.26.46.46,0,0,1-.16.2.61.61,0,0,1-.56.21,2,2,0,0,1-.59-.18,3.23,3.23,0,0,1-1.19-1.05,2,2,0,0,1-.18-.32,3.19,3.19,0,0,1-.13-.37,3,3,0,0,1-.07-.43c0-.14,0-.29-.05-.45a.49.49,0,0,0,0,.12.49.49,0,0,1,0,.12c0-.35-.06-.68-.07-1s0-.64,0-1c0-.55,0-1.09,0-1.62s.07-1.06.14-1.59L22.7,9l.24-1.59a.2.2,0,0,1,.13-.16.56.56,0,0,1,.23,0,.65.65,0,0,1,.36.1l.32.2a2.43,2.43,0,0,1,.69.67l.16.28a.52.52,0,0,1,.07.31c0,.28-.07.54-.09.8s-.06.52-.09.79c0,.55-.07,1.1-.11,1.66s-.05,1.1-.05,1.65c.14-.2.27-.41.4-.63a6.42,6.42,0,0,1,.42-.6,7.31,7.31,0,0,1,.7-.82,3.55,3.55,0,0,1,.45-.4,2.51,2.51,0,0,1,.52-.32.83.83,0,0,1,.41,0,2.7,2.7,0,0,1,.41.08,2.56,2.56,0,0,1,.81.47,4,4,0,0,1,.63.68,3.78,3.78,0,0,1,.35.66c.09.23.17.46.24.7a.22.22,0,0,1,0,.12.2.2,0,0,0,0,.11,2.73,2.73,0,0,0,.22-.41,2.73,2.73,0,0,1,.22-.41c.36-.73.73-1.46,1.13-2.18.15-.29.32-.58.5-.86s.36-.56.55-.83.38-.48.59-.72.42-.48.66-.72l.36-.32q.18-.16.36-.3L35,6.56a1.05,1.05,0,0,1,.47-.21,1.22,1.22,0,0,1,.85.21,4.06,4.06,0,0,1,.69.58A2.09,2.09,0,0,1,37.52,8Z"/><path class="cls-1" d="M48.65,16.79c0,.05.07.12.12.2a1.52,1.52,0,0,1,.09.25.37.37,0,0,1,0,.21c0,.07-.11.11-.23.11a.8.8,0,0,1-.26,0l-.25-.11a1.49,1.49,0,0,1-.37-.23,2,2,0,0,1-.33-.31,6.33,6.33,0,0,1-.56-.77,8.52,8.52,0,0,1-.46-.84,6,6,0,0,1-.26-.75,5,5,0,0,1-.15-.77l-.19.38-.2.34c-.29.55-.6,1.09-.92,1.63a9.21,9.21,0,0,1-1.13,1.5l-.4.39a2,2,0,0,1-.42.3,1.13,1.13,0,0,1-.92,0,4.49,4.49,0,0,1-.85-.41A5.36,5.36,0,0,1,40,17a2.44,2.44,0,0,1-.55-1.1,2.27,2.27,0,0,1-.08-.59v-.59a17.78,17.78,0,0,1,.18-2,17.14,17.14,0,0,1,.44-2,11.47,11.47,0,0,1,.73-1.9A9.84,9.84,0,0,1,41.8,7.09a.25.25,0,0,1,.26-.1,1.28,1.28,0,0,1,.28.07,1.16,1.16,0,0,1,.4.2l.4.29a2.34,2.34,0,0,1,.3.32,2,2,0,0,1,.26.4,2.67,2.67,0,0,1,.09.26.28.28,0,0,1,0,.25,12.14,12.14,0,0,0-.92,1.67l-.25.68c-.07.21-.15.44-.21.68a9.52,9.52,0,0,0-.31,1.31c-.07.43-.12.86-.15,1.31a1.65,1.65,0,0,0,0,.32c0,.11,0,.22,0,.32a1.49,1.49,0,0,0,.2-.23c.34-.45.67-.9,1-1.37L43.91,12q.44-.7.93-1.41A10.48,10.48,0,0,1,46,9.32a.29.29,0,0,1,.27-.1l.27,0a1.47,1.47,0,0,1,.34.15,1.76,1.76,0,0,1,.3.24,2.94,2.94,0,0,1,.55.52,1.07,1.07,0,0,1,.27.71,17.3,17.3,0,0,1,0,1.77,11.63,11.63,0,0,0,0,1.77c0,.29.08.57.13.86a4.87,4.87,0,0,0,.23.83,1.43,1.43,0,0,0,.18.41l0,0a.46.46,0,0,1,.07.1A.76.76,0,0,0,48.65,16.79Z"/><path class="cls-1" d="M61.17,17a2.67,2.67,0,0,1,.09.26.27.27,0,0,1-.06.26.25.25,0,0,1-.25.1l-.27-.05a2.3,2.3,0,0,1-.77-.49,3.88,3.88,0,0,1-.66-.68,4.58,4.58,0,0,1-.52-.83,5.1,5.1,0,0,1-.41-1.13c-.08-.4-.17-.79-.25-1.18,0-.19-.08-.38-.12-.55s-.08-.37-.11-.56l-.49.4c-.15.13-.31.27-.46.42a11.69,11.69,0,0,0-2,2.47c-.53.9-1,1.82-1.52,2.74a.39.39,0,0,0,0,.14.68.68,0,0,1,0,.14.31.31,0,0,1-.17.21.59.59,0,0,1-.27,0,1,1,0,0,1-.29-.08l-.25-.11a2.08,2.08,0,0,1-.74-.57,1.19,1.19,0,0,1-.39-.41.27.27,0,0,1-.07-.13.57.57,0,0,0-.08-.13A2,2,0,0,1,51,17c0-.1-.07-.19-.11-.27a2.07,2.07,0,0,1,0-.29,1.28,1.28,0,0,1,0-.38,2.19,2.19,0,0,0,0-.36,5.52,5.52,0,0,1,0-.58v-.58a10.58,10.58,0,0,1,.23-2,7.38,7.38,0,0,1,.21-1c.1-.32.21-.64.33-1s.24-.68.38-1,.27-.67.41-1,.28-.64.42-.94l.45-.91c0-.09.11-.12.23-.1a.72.72,0,0,1,.29.08,1.63,1.63,0,0,1,.34.14,1.61,1.61,0,0,1,.3.21,2.33,2.33,0,0,1,.56.57c0,.07.09.17.17.29a.34.34,0,0,1,.06.32c-.12.35-.23.69-.33,1s-.22.68-.33,1-.18.59-.26.89-.17.61-.26.9c0,.1-.07.22-.1.36l.3-.33.29-.34a13.47,13.47,0,0,1,1-.92c.18-.15.38-.3.59-.45a4.09,4.09,0,0,1,.64-.37l.37-.09a.9.9,0,0,1,.4,0,2.43,2.43,0,0,1,1,.43,2.74,2.74,0,0,1,.73.75,2.49,2.49,0,0,1,.37.93c.06.32.13.65.22,1s.13.55.19.82.13.56.2.85.09.43.14.64a2.94,2.94,0,0,0,.19.62.3.3,0,0,1,0,.1.42.42,0,0,0,0,.1,1.11,1.11,0,0,1,.07.13s0,0,0,0,0,0,0,0A2.32,2.32,0,0,1,61.17,17Z"/><path class="cls-1" d="M65.84,17.48a.75.75,0,0,1,0,.2.23.23,0,0,1-.13.18.38.38,0,0,1-.36,0,2.08,2.08,0,0,1-.36-.14A4.73,4.73,0,0,1,64,16.93a3.82,3.82,0,0,1-.73-1.14s0,0,0,0A2.13,2.13,0,0,1,63,15c0-.14,0-.28,0-.43s0-.29,0-.45,0-.38,0-.59a3.13,3.13,0,0,1,0-.61c0-.41.09-.81.15-1.18a12.12,12.12,0,0,1,.7-2.29.38.38,0,0,1,.18-.23h.2a.83.83,0,0,1,.4.11,1.36,1.36,0,0,1,.34.23,3.41,3.41,0,0,1,.75.69,2.08,2.08,0,0,0,.17.32.4.4,0,0,1,.06.32,11.49,11.49,0,0,0-.37,2.05,11.12,11.12,0,0,0,0,2.08.45.45,0,0,0,0-.11.6.6,0,0,1,0-.12,1.63,1.63,0,0,1,0,.31,1.27,1.27,0,0,0,0,.28c0,.14,0,.27,0,.41a2,2,0,0,0,.07.41.94.94,0,0,1,0,.22.68.68,0,0,0,0,.19c0,.09,0,.16,0,.22a.41.41,0,0,1,0,.22.35.35,0,0,0,0,.06.1.1,0,0,1,0,.07,1.08,1.08,0,0,0,.07.18v.12Zm.87-10.36a1.29,1.29,0,0,1,.16.64,1.09,1.09,0,0,1-.26.66l-.24.25a1.1,1.1,0,0,1-.3.19,1,1,0,0,1-.35,0,1.21,1.21,0,0,1-.34-.07,2.28,2.28,0,0,1-.59-.28,4.23,4.23,0,0,1-.51-.38,2.54,2.54,0,0,1-.44-.43,3,3,0,0,1-.36-.51,2,2,0,0,1-.21-.56,1.19,1.19,0,0,1,.08-.61A1.78,1.78,0,0,1,64,5.11a.37.37,0,0,1,.36-.1l.14,0h.14a1.75,1.75,0,0,1,.49.25c.15.11.3.21.43.32a2.79,2.79,0,0,1,.35.34,2.7,2.7,0,0,1,.29.4v0l.29.34A1.52,1.52,0,0,1,66.71,7.12Z"/><path class="cls-1" d="M74.74,9.22a2,2,0,0,1,.18.38c.07.19,0,.3-.15.34l-.23.07a.85.85,0,0,1-.23,0h-.39a8.58,8.58,0,0,0-2.64.69v.67c0,.43,0,.85,0,1.26v1.23c0,.84,0,1.67.08,2.51,0,.21,0,.41,0,.62s0,.41,0,.61,0,.21,0,.32a1.62,1.62,0,0,1,0,.32.7.7,0,0,1-.1.36.37.37,0,0,1-.23.21.65.65,0,0,1-.36-.05,1.08,1.08,0,0,1-.36-.16,2.67,2.67,0,0,1-.41-.3,1.49,1.49,0,0,1-.33-.39,2.43,2.43,0,0,1-.31-.56,1,1,0,0,1-.08-.2c0-.05,0-.13,0-.21a.17.17,0,0,0,0-.08.15.15,0,0,1,0-.08c0-.13,0-.28,0-.43s0-.3,0-.44,0-.47,0-.69,0-.45,0-.67c0-.38,0-.74,0-1.1V12.37a.29.29,0,0,1-.25.09.88.88,0,0,1-.27-.06,1,1,0,0,1-.38-.18L67.79,12a2.16,2.16,0,0,1-.31-.3,1.29,1.29,0,0,1-.23-.39L67.16,11a.3.3,0,0,1,0-.25,5,5,0,0,1,1-1c.31-.22.62-.43.92-.62.07-.68.17-1.36.29-2a11.73,11.73,0,0,1,.54-2,.24.24,0,0,1,.18-.18h.15a1,1,0,0,1,.36.09,1.84,1.84,0,0,1,.31.2,3.29,3.29,0,0,1,.64.61l.15.26a.33.33,0,0,1,0,.31,10.47,10.47,0,0,0-.41,1.92L72,8.24l.4,0h.4a2.56,2.56,0,0,1,.89.18,1.72,1.72,0,0,1,.38.16,2.09,2.09,0,0,1,.32.25l.19.19Z"/><path class="cls-1" d="M84.62,8.6a2.76,2.76,0,0,1,.45.66,1.27,1.27,0,0,1,.11.75l-.15.93a6.55,6.55,0,0,1-.21.9c0,.17-.07.33-.11.48s-.09.31-.14.46a4.27,4.27,0,0,0-.13.48c0,.16-.07.32-.1.47a7,7,0,0,1-.34,1c-.13.31-.27.62-.41.93s-.27.58-.39.88a4.51,4.51,0,0,1-.48.82c-.19.27-.38.53-.58.78a5.34,5.34,0,0,1-.65.7.27.27,0,0,1-.23.09l-.26,0a.85.85,0,0,1-.38-.19l-.36-.27a2.09,2.09,0,0,1-.54-.64.54.54,0,0,1,0-.49c.11-.18.21-.38.32-.57l.32-.58c.11-.19.2-.37.3-.55l.29-.55a24.31,24.31,0,0,0,1.16-2.26.3.3,0,0,0,0,.13l.19-.46c.06-.16.12-.32.19-.49a3.09,3.09,0,0,0,.14-.32,3.59,3.59,0,0,0,.12-.35l-.3.33-.27.31-1,1.07-1,1a6.51,6.51,0,0,1-1.08.89,2.41,2.41,0,0,1-.36.23,1.8,1.8,0,0,1-.38.16,1.54,1.54,0,0,1-.68-.05A2.36,2.36,0,0,1,77,15a3.3,3.3,0,0,1-.67-.49,2.66,2.66,0,0,1-.52-.64,2.62,2.62,0,0,1-.33-.7.74.74,0,0,1-.05-.25,1.15,1.15,0,0,0,0-.26,5,5,0,0,1,0-.76c0-.26.07-.51.1-.75.07-.53.16-1,.26-1.55a8.44,8.44,0,0,1,.46-1.51c0-.11.09-.18.18-.2h.18A.8.8,0,0,1,77,8a1.46,1.46,0,0,1,.33.22,1.79,1.79,0,0,1,.67.64l.17.27a.4.4,0,0,1,.06.32,10.8,10.8,0,0,0-.35,1.1,11.2,11.2,0,0,0-.21,1.13c0,.21-.06.41-.08.6s0,.39,0,.58v0c.32-.28.64-.57.95-.88s.48-.49.72-.75.47-.53.71-.78.41-.48.62-.7.42-.44.64-.67a7,7,0,0,1,.67-.66,3,3,0,0,1,.79-.59A1,1,0,0,1,83,7.74a1.89,1.89,0,0,1,.39.07,2.17,2.17,0,0,1,.67.32A3.5,3.5,0,0,1,84.62,8.6Z"/></g></g></svg>