<svg xmlns="http://www.w3.org/2000/svg" viewBox="0 0 102.74 10.01"><defs><style>.cls-1{fill:#fff;}</style></defs><g id="Layer_2" data-name="Layer 2"><g id="Layer_1-2" data-name="Layer 1"><path class="cls-1" d="M0,.38H5.61v.81H.88V4H5.11v.81H.88v3.4H0Z"/><path class="cls-1" d="M7.42.21h1v1h-1Zm.06,2.21h.85V8.19H7.48Z"/><path class="cls-1" d="M10.63,0h.86V8.19h-.86Z"/><path class="cls-1" d="M13.79,0h.86V8.19h-.86Z"/><path class="cls-1" d="M20.11,9.72,20.4,9a1.84,1.84,0,0,0,.9.21c.51,0,.84-.27,1.18-1.08L19.86,2.42h.95l2.1,4.81,1.85-4.81h.91l-2.42,6C22.76,9.57,22.2,10,21.33,10A2.59,2.59,0,0,1,20.11,9.72Z"/><path class="cls-1" d="M26.58,5.33v0a3,3,0,0,1,6,0v0a3,3,0,0,1-3,3A3,3,0,0,1,26.58,5.33Zm5.13,0v0a2.18,2.18,0,0,0-2.14-2.25,2.13,2.13,0,0,0-2.11,2.23v0a2.16,2.16,0,0,0,2.13,2.24A2.13,2.13,0,0,0,31.71,5.33Z"/><path class="cls-1" d="M34.27,6V2.42h.85V5.79a1.54,1.54,0,0,0,1.6,1.74,1.71,1.71,0,0,0,1.73-1.81V2.42h.85V8.19h-.85v-1a2.19,2.19,0,0,1-2,1.13A2.1,2.1,0,0,1,34.27,6Z"/><path class="cls-1" d="M41.44,2.42h.86V3.93a2.47,2.47,0,0,1,2.35-1.61v.93h-.06c-1.26,0-2.29.9-2.29,2.64v2.3h-.86Z"/><path class="cls-1" d="M50.08,3.18h-.79V2.43h.79v-.5a2,2,0,0,1,.5-1.48A1.69,1.69,0,0,1,51.82,0a2.43,2.43,0,0,1,1,.15V.89a2.89,2.89,0,0,0-.84-.14c-.67,0-1,.4-1,1.22v.47h1.82v.74H50.94v5h-.86Z"/><path class="cls-1" d="M53.59,5.33v0a3,3,0,0,1,6,0v0a3,3,0,0,1-3,3A3,3,0,0,1,53.59,5.33Zm5.13,0v0a2.17,2.17,0,0,0-2.14-2.25,2.13,2.13,0,0,0-2.11,2.23v0A2.16,2.16,0,0,0,56.6,7.55,2.13,2.13,0,0,0,58.72,5.33Z"/><path class="cls-1" d="M61,5.33v0a3,3,0,0,1,6,0v0a3,3,0,0,1-3,3A3,3,0,0,1,61,5.33Zm5.13,0v0A2.17,2.17,0,0,0,64,3.06a2.13,2.13,0,0,0-2.11,2.23v0A2.16,2.16,0,0,0,64,7.55,2.13,2.13,0,0,0,66.14,5.33Z"/><path class="cls-1" d="M68.46,5.32v0a2.82,2.82,0,0,1,2.75-3,2.61,2.61,0,0,1,2.21,1.23V0h.86V8.19h-.86V7a2.6,2.6,0,0,1-2.21,1.28A2.81,2.81,0,0,1,68.46,5.32Zm5,0v0a2.14,2.14,0,0,0-2.08-2.22,2,2,0,0,0-2,2.22v0a2.07,2.07,0,0,0,2,2.23A2.15,2.15,0,0,0,73.45,5.31Z"/><path class="cls-1" d="M79.5,2.42h.92l1.51,4.63L83.48,2.4h.72l1.56,4.65,1.52-4.63h.89l-2,5.81h-.75L83.84,3.68,82.28,8.23h-.76Z"/><path class="cls-1" d="M89.83.21h1v1h-1Zm.06,2.21h.86V8.19h-.86Z"/><path class="cls-1" d="M93.27,6.66V3.18h-.8V2.42h.8V.68h.86V2.42H96v.76H94.13V6.55a.85.85,0,0,0,1,1,1.88,1.88,0,0,0,.84-.2V8a2.13,2.13,0,0,1-1,.25A1.47,1.47,0,0,1,93.27,6.66Z"/><path class="cls-1" d="M97.7,0h.86V3.42a2.18,2.18,0,0,1,2-1.12,2.11,2.11,0,0,1,2.21,2.31V8.19h-.86V4.82a1.54,1.54,0,0,0-1.59-1.74,1.7,1.7,0,0,0-1.73,1.81v3.3H97.7Z"/></g></g></svg>