<svg viewBox="0 0 600 500" xmlns="http://www.w3.org/2000/svg"><g fill="#fff"><path d="m163.26 98.65h-7.7l-2-5.21h-12.26l-2 5.21h-6.75l12.28-30.41h6.21zm-19.85-10.88h8l-4-10.53z"/><path d="m178 68.24c7.74 0 12.51 2.47 12.51 8.32a6.69 6.69 0 0 1 -4.51 6.44 6.69 6.69 0 0 1 5.26 6.84c0 6.39-5.62 8.77-13.27 8.77h-10.41v-30.37zm-3.4 12.15h3.4c3.19 0 5.22-.59 5.22-3.15s-2-3.11-5.22-3.11h-3.4zm0 12.37h3.64c3.2 0 5.76-.81 5.76-3.37s-2.56-3.33-5.76-3.33h-3.64z"/><path d="m220.18 73.5c-2.47 0-4.77.63-4.77 3.06 0 4.55 13.14 2.7 13.14 12.74 0 7.73-5.49 10.12-11.16 10.12a20.7 20.7 0 0 1 -8.86-1.94v-6.12a20.23 20.23 0 0 0 8.19 2.08c2.56 0 4.54-.77 4.54-3.29 0-5.31-13.14-2.88-13.14-13.14 0-6.12 4.77-9.54 11.88-9.54a20.44 20.44 0 0 1 7.65 1.35v6.35a15.26 15.26 0 0 0 -7.47-1.67z"/><path d="m249.43 99.42c-9.63 0-16.15-6-16.15-16s6.52-16 16.15-16 16.15 6 16.15 16-6.58 16-16.15 16zm0-25.92c-5.8 0-8.82 4-8.82 10s3 10 8.82 10 8.82-4 8.82-10-3.06-10-8.82-10z"/><path d="m292.45 74.13h-13.45v7.2h12v5.9h-12v11.42h-7v-30.41h20.52z"/><path d="m312.3 99.42c-9.63 0-16.16-6-16.16-16s6.53-16 16.16-16 16.15 6 16.15 16-6.57 16-16.15 16zm0-25.92c-5.81 0-8.82 4-8.82 10s3 10 8.82 10 8.82-4 8.82-10-3.06-10-8.82-10z"/><path d="m341.82 98.65h-7v-30.41h11.61c7.42 0 12.46 3.55 12.46 10.08 0 4.54-2.47 7.47-6.66 8.68l7.16 11.65h-7.92l-5.94-10.17h-3.69zm0-16.06h4.18c2.92 0 5.58-.76 5.58-4.23s-2.66-4.23-5.58-4.23h-4.14z"/><path d="m387.54 74.13h-9.41v24.52h-7.06v-24.52h-9.41v-5.89h25.88z"/><path d="m415 68.24c7.74 0 12.51 2.47 12.51 8.32a6.69 6.69 0 0 1 -4.51 6.44 6.69 6.69 0 0 1 5.26 6.84c0 6.39-5.62 8.77-13.27 8.77h-10.4v-30.37zm-3.42 12.15h3.42c3.19 0 5.22-.59 5.22-3.15s-2-3.11-5.22-3.11h-3.42zm0 12.37h3.64c3.2 0 5.76-.81 5.76-3.37s-2.56-3.33-5.76-3.33h-3.64z"/><path d="m454.81 74.13h-13.46v6.21h11.93v5.89h-11.93v4.19c0 1.57.45 2.34 2.07 2.34h11.88v5.89h-13.14c-5.49 0-7.83-2.83-7.83-8.23v-22.18h20.48z"/><path d="m469.25 98.65h-7v-30.41h7z"/><path d="m151.78 122.24c9.68 0 16 5 16 15.21s-6.3 15.2-16 15.2h-10.93v-30.41zm-3.91 24.52h3.91c5.27 0 8.69-2.57 8.69-9.36s-3.42-9.27-8.69-9.27h-3.91z"/><path d="m194.22 128.13h-13.46v6.21h11.93v5.89h-11.93v4.19c0 1.57.45 2.34 2.07 2.34h11.88v5.89h-13.14c-5.49 0-7.83-2.83-7.83-8.23v-22.18h20.48z"/><path d="m208.66 152.65h-7v-30.41h11.61c7.43 0 12.47 3.55 12.47 10.08 0 4.54-2.48 7.47-6.66 8.68l7.15 11.65h-7.92l-5.94-10.17h-3.69zm0-16.06h4.14c2.93 0 5.58-.76 5.58-4.23s-2.65-4.23-5.58-4.23h-4.14z"/><path d="m264.73 128.13h-13.5v7.2h12v5.9h-12v11.42h-7v-30.41h20.52z"/><path d="m278.64 152.65h-7v-30.41h11.61c7.42 0 12.46 3.55 12.46 10.08 0 4.54-2.47 7.47-6.66 8.68l7.16 11.65h-7.92l-5.94-10.17h-3.69zm0-16.06h4.14c2.92 0 5.58-.76 5.58-4.23s-2.66-4.23-5.58-4.23h-4.14z"/><path d="m328.5 152.65h-7.7l-2-5.21h-12.26l-2 5.21h-6.75l12.28-30.41h6.21zm-19.85-10.88h8l-4-10.53z"/><path d="m359.41 152.65h-6l-13.76-18.58v18.58h-6.84v-30.41h6l13.77 18.58v-18.58h6.84z"/><path d="m389.42 127.55-15.12 19.21h15.57v5.89h-24.52v-4.85l15.53-19.67h-15.21v-5.89h23.75z"/><path d="m434.29 152.65h-7.7l-2-5.21h-12.26l-2 5.21h-6.73l12.28-30.41h6.21zm-19.85-10.88h8l-4-10.53z"/><path d="m466 149.82a26.17 26.17 0 0 1 -13.14 3.6c-8.64 0-16.52-4.68-16.52-16s8.91-16 17.91-16a27.36 27.36 0 0 1 11.16 2.16v6.3a27 27 0 0 0 -11-2.43c-5.4 0-10.76 2.16-10.76 9.95 0 7.42 4.77 10 9.68 10a16.35 16.35 0 0 0 5.85-1.09v-5.84h-6.89v-5.76h13.71z"/></g></svg>