<svg viewBox="0 0 600 500" xmlns="http://www.w3.org/2000/svg"><g fill="#fff"><path d="m122.17 98.65h-6l-13.75-18.58v18.58h-6.84v-30.41h6l13.77 18.58v-18.58h6.84z"/><path d="m150.93 74.13h-13.46v6.21h11.93v5.89h-11.93v4.19c0 1.57.45 2.34 2.07 2.34h11.88v5.89h-13.14c-5.49 0-7.83-2.83-7.83-8.23v-22.18h20.48z"/><path d="m179.5 68.24 6.5 21.46 5.31-21.46h7.38l-8.23 30.41h-7.46l-6.62-21.37-6.57 21.37h-7.51l-8.3-30.41h7.38l5.31 21.46 6.48-21.46z"/><path d="m222.07 98.65h-7v-30.41h11.16c7.83 0 12.92 3.37 12.92 10.26s-5.15 10.26-12.94 10.26h-4.14zm0-15.79h4.14c2.93 0 5.58-.9 5.58-4.36s-2.65-4.37-5.58-4.37h-4.14z"/><path d="m265.54 74.13h-13.45v6.21h11.91v5.89h-11.91v4.19c0 1.57.45 2.34 2.07 2.34h11.84v5.89h-13.1c-5.49 0-7.83-2.83-7.83-8.23v-22.18h20.47z"/><path d="m297.49 87.45c0 7.78-5.17 12-12.64 12s-12.65-4.19-12.65-12v-19.21h7v19.26c0 4.14 2.43 5.94 5.63 5.94s5.71-1.8 5.71-5.94v-19.26h6.93z"/><path d="m332.72 95.82a26.14 26.14 0 0 1 -13.14 3.6c-8.64 0-16.51-4.68-16.51-16s8.91-16 17.91-16a27.43 27.43 0 0 1 11.16 2.16v6.3a27.07 27.07 0 0 0 -11-2.43c-5.4 0-10.75 2.16-10.75 10 0 7.42 4.77 10 9.67 10a16.31 16.31 0 0 0 5.85-1.09v-5.85h-6.91v-5.76h13.72z"/><path d="m360.8 74.13h-13.45v6.21h11.92v5.89h-11.92v4.19c0 1.57.45 2.34 2.07 2.34h11.88v5.89h-13.14c-5.49 0-7.83-2.83-7.83-8.23v-22.18h20.47z"/><path d="m382.09 99.42c-9.63 0-16.15-6-16.15-16s6.52-16 16.15-16 16.15 6 16.15 16-6.57 16-16.15 16zm0-25.92c-5.81 0-8.82 4-8.82 10s3 10 8.82 10 8.82-4 8.82-10-3.06-10-8.82-10z"/><path d="m424.12 74.13h-9.41v24.52h-7.06v-24.52h-9.41v-5.89h25.88z"/><path d="m459.94 98.65h-20.7v-5.65l9.63-9c2.38-2.25 3.42-4.1 3.42-6.44 0-3.1-2.3-4.09-4.91-4.09a15.31 15.31 0 0 0 -7 1.84v-6.22a20.24 20.24 0 0 1 7.92-1.62c5.72 0 11.34 2.57 11.34 9.68 0 4.86-2 7.6-5.31 10.39l-6.25 5.22h11.88z"/><path d="m488.87 83.45c0 8.68-4.36 16-13 16s-13-7.29-13-16 4.37-16 13-16 13 7.31 13 16zm-18.85 0c0 6 1.75 10 5.85 10s5.85-4 5.85-10-1.76-10-5.85-10-5.87 4.01-5.87 10z"/><path d="m490.4 90.33a7.4 7.4 0 0 1 5-7.51 6.8 6.8 0 0 1 -4.4-6.82c0-5.35 4.59-8.59 11.43-8.59s11.43 3.24 11.43 8.59a6.85 6.85 0 0 1 -4.32 6.8c2.66 1.08 4.95 3.15 4.95 7.51 0 5.22-4.32 9.09-12.06 9.09s-12.03-3.85-12.03-9.07zm7.29-.68c0 2.7 2.07 4 4.77 4s4.77-1.35 4.77-4-2.11-3.91-4.77-3.91-4.77 1.26-4.77 3.91zm.63-12.86c0 2.65 1.85 3.51 4.14 3.51s4.14-.86 4.14-3.51-1.84-3.6-4.14-3.6-4.14.94-4.14 3.6z"/></g></svg>