<svg id="Layer_1" data-name="Layer 1" xmlns="http://www.w3.org/2000/svg" viewBox="0 0 554 549.81"><defs><style>.cls-1{fill:#fff;}.cls-2{fill:#221e1f;}</style></defs><g id="left"><path class="cls-1" d="M287.71,0C139.28,0,0,147.31,0,291.45,0,433.91,117.59,549.81,262.1,549.81,410.35,549.81,550,402.5,550,258.36,550,115.91,432.22,0,287.71,0Z"/><path class="cls-2" d="M287.71,0C139.46,0,0,147.31,0,291.45,0,433.91,117.59,549.81,262.1,549.81,410.35,549.81,550,402.5,550,258.36,550,115.91,432.22,0,287.71,0Zm217.8,161L491.86,173.3a237.09,237.09,0,0,0-15.14-25.61l14.77-13.27a240.92,240.92,0,0,1,14,26.54m-25.62-43.74-15.33,13.83a255.53,255.53,0,0,0-23.36-25.8l16.07-14.58a219,219,0,0,1,22.62,26.55m-65.8-61.14a253.46,253.46,0,0,1,28.23,20.57L425.87,91.6a241,241,0,0,0-28.61-20.37ZM356.88,29.91a234.23,234.23,0,0,1,38.33,15.52L378.38,60.76a258.39,258.39,0,0,0-38.14-15.52ZM289.77,19.63A240.43,240.43,0,0,1,333,23.93L316.5,38.7a240.08,240.08,0,0,0-41.69-5.42ZM257.24,21.5,243.78,33.84A255.05,255.05,0,0,0,172.93,49,237.93,237.93,0,0,1,257.24,21.5m5.05,508.87c-131.61,0-238.73-107.12-238.73-238.73,0-132,107.12-238.92,239.1-238.73a241.09,241.09,0,0,1,60,7.66l.38.56.37-.19C450.92,94.6,527,225.27,493.35,352.77a239.28,239.28,0,0,1-231.06,177.6M501,192.74l12.53-11.4a219.82,219.82,0,0,1,9,34.58l-10.47,9.54a223.56,223.56,0,0,0-11-32.72m16.08,55.9,8.6-7.85c.37,5.79.74,11.78.74,17.76a234.74,234.74,0,0,1-6.91,57q1.13-11.77,1.12-24.12a252.9,252.9,0,0,0-3.55-42.81"/></g><path class="cls-2" d="M545.71,511.6a28.33,28.33,0,0,1-39.42,0A27.07,27.07,0,0,1,498,491.29a26.53,26.53,0,0,1,8.28-20.17,28,28,0,0,1,39.42,0A26.57,26.57,0,0,1,554,491.29a27,27,0,0,1-8.27,20.31Zm-3.61-37.16a22,22,0,0,0-16.1-6.62,22.52,22.52,0,0,0-16.25,6.62,24.77,24.77,0,0,0,0,33.71A22.68,22.68,0,0,0,526,514.76a22.09,22.09,0,0,0,16.1-6.54,24.37,24.37,0,0,0,0-33.71Zm-10.22,32c-.76-.75-1.21-1.95-1.36-5.12-.15-3.45-1.65-4.06-4.51-4.06h-3.46v9.18h-8.87v-30h15.19c7.69,0,11.59,3.61,11.59,9.48A7.48,7.48,0,0,1,534,493.7c3.17.6,5.12,2.25,5.28,5.72.45,4.36.59,5.71,1.65,6.92Zm-5.57-16.1c3.14,0,4.81-.9,4.81-3.31s-1.67-3.47-4.81-3.47h-3.78v6.77Z"/></svg>