<?xml version="1.0" encoding="utf-8"?>
<!-- Generator: Adobe Illustrator 25.3.1, SVG Export Plug-In . SVG Version: 6.00 Build 0)  -->
<svg version="1.1" id="Layer_1" xmlns="http://www.w3.org/2000/svg" xmlns:xlink="http://www.w3.org/1999/xlink" x="0px" y="0px"
	 viewBox="0 0 300 250" style="enable-background:new 0 0 300 250;" xml:space="preserve">
<style type="text/css">
	.st0{clip-path:url(#SVGID_2_);}
	.st1{fill:#221E1F;}
</style>
<g>
	<defs>
		<rect id="SVGID_1_" width="300" height="250"/>
	</defs>
	<clipPath id="SVGID_2_">
		<use xlink:href="#SVGID_1_"  style="overflow:visible;"/>
	</clipPath>
	<g class="st0">
		<path class="st1" d="M44.3,40.8L54,64.9h-7l-1.8-4.7h-9.4L34,64.9h-6.5l9.6-24.1H44.3z M37.7,55.4h5.7l-2.8-7.1h-0.2L37.7,55.4z"
			/>
		<path class="st1" d="M59.8,59.3c0.2,1.4,1.4,2.2,3.3,2.2c1.4,0,2.1-0.5,2.1-1.2s-0.4-1.1-1.6-1.3l-2.5-0.4c-4.1-0.7-6.3-2-6.3-5.5
			s3-5.8,7.7-5.8c4.9,0,7.8,2.2,8.2,5.8l-5.1,0.2c-0.2-1.2-1.3-2-3.2-2c-1.2,0-1.9,0.5-1.9,1.2c0,0.6,0.5,0.9,1,1l3.3,0.6
			c3.8,0.6,6,2.3,6,5.7c0,3.6-3.1,5.7-7.9,5.7c-4.7,0-8.2-1.9-8.6-6L59.8,59.3z"/>
		<path class="st1" d="M79.5,64.9h-6.2V40.8h6.2v12.9l5.9-5.9h7.3l-7,6.7l7.3,10.4h-7L81,58l-1.5,1.5V64.9z"/>
		<path class="st1" d="M101.8,52.1h-2.3v-3.8l1.3-0.2c1.7-0.3,2.3-1.2,2.7-2.8l0.6-2.2h3.9v4.7h4.4v4.3h-4.4v6.2c0,1.5,0.7,2,2,2
			c0.9,0,1.8-0.2,2.6-0.6v4c-1.5,1.1-3.3,1.6-5.1,1.5c-2.9,0-5.6-1.2-5.6-5.2L101.8,52.1z"/>
		<path class="st1" d="M121.1,64.9h-6.2V40.8h6.2v9.6c1.1-2,3.2-3.2,5.5-3c4.7,0,6.2,3.3,6.2,6.8v10.7h-6.2v-9.1
			c0-2.3-0.7-3.6-2.5-3.6c-2.1,0-3,1.7-3,4.2L121.1,64.9z"/>
		<path class="st1" d="M151.9,59.9c0,0.9,0.4,1.3,1,1.3c0.5,0,0.9-0.1,1.4-0.3v3.3c-1.1,0.8-2.5,1.2-3.9,1.1c-2,0.1-3.8-1.1-4.3-3
			c-1,2-3,3-5.7,3c-3.3,0-5.5-1.7-5.5-4.6c0-3.3,2.4-4.7,6.1-5.4l4.8-0.8v-0.3c0-1.4-0.6-2.3-2.1-2.3c-1.2,0-2.2,0.9-2.3,2.1
			l-5.8-0.4c0.5-3.8,3.3-6.4,8.5-6.4c4.5,0,7.9,2,7.9,6.7L151.9,59.9z M145.8,57.5l-2.5,0.5c-1.5,0.3-2.4,0.8-2.4,1.9
			c0,0.9,0.7,1.5,1.7,1.5c1.8,0,3.2-1.5,3.2-3.2c0-0.1,0-0.2,0-0.3L145.8,57.5z"/>
		<path class="st1" d="M156.7,52.1h-2.3v-3.8l1.3-0.2c1.7-0.3,2.3-1.2,2.7-2.8l0.6-2.2h3.9v4.7h4.4v4.3h-4.4v6.2c0,1.5,0.7,2,1.9,2
			c0.9,0,1.8-0.2,2.6-0.6v4c-1.5,1.1-3.3,1.6-5.1,1.5c-2.9,0-5.6-1.2-5.6-5.2V52.1z"/>
		<path class="st1" d="M199.4,47.4c4.7,0,6.1,3.3,6.1,6.8v10.7h-6.2v-9.1c0-2.3-0.4-3.6-2.3-3.6c-2.1,0-2.8,1.7-2.8,4.2v8.4H188
			v-9.1c0-2.3-0.5-3.6-2.3-3.6c-2,0-2.8,1.7-2.8,4.2v8.4h-6.2V47.8h6.2v2.6c1-2,3.1-3.2,5.3-3c3,0,4.6,1.4,5.3,3.4
			C194.6,48.6,196.9,47.3,199.4,47.4z"/>
		<path class="st1" d="M224.6,59.9c0,0.9,0.4,1.3,1,1.3c0.5,0,1-0.1,1.4-0.3v3.3c-1.1,0.8-2.5,1.2-3.9,1.1c-2,0.1-3.8-1.1-4.3-3
			c-1,2-2.9,3-5.7,3c-3.3,0-5.5-1.7-5.5-4.6c0-3.3,2.4-4.7,6.1-5.4l4.8-0.8v-0.3c0-1.4-0.6-2.3-2.1-2.3c-1.2,0-2.3,0.9-2.3,2.1
			l-5.8-0.4c0.5-3.8,3.3-6.4,8.5-6.4c4.5,0,7.9,2,7.9,6.7L224.6,59.9z M218.5,57.5L216,58c-1.5,0.3-2.4,0.8-2.4,1.9
			c0,0.9,0.7,1.5,1.7,1.5c1.8,0,3.2-1.5,3.2-3.2c0-0.1,0-0.2,0-0.3L218.5,57.5z"/>
		<path class="st1" d="M229.4,52.1h-2.3v-3.8l1.3-0.2c1.7-0.3,2.3-1.2,2.7-2.8l0.6-2.2h3.9v4.7h4.4v4.3h-4.4v6.2c0,1.5,0.7,2,1.9,2
			c0.9,0,1.8-0.2,2.6-0.6v4c-1.5,1.1-3.3,1.7-5.2,1.6c-2.9,0-5.6-1.2-5.6-5.2L229.4,52.1z"/>
		<path class="st1" d="M259.5,59.3c-0.9,3.9-4,6.1-8.5,6.1c-5.5,0-9.4-3.3-9.4-8.7c-0.2-5,3.8-9.1,8.7-9.3c0.2,0,0.4,0,0.6,0
			c5.7,0,8.7,3.9,8.7,8.5v1.7h-12c0.1,1.8,1.6,3.2,3.4,3.1c0.1,0,0.1,0,0.2,0c1.7,0,2.8-0.6,3.3-1.9L259.5,59.3z M253.7,54.7
			c0-1.5-1.2-2.8-2.8-2.8c0,0-0.1,0-0.1,0c-1.6-0.1-3,1.1-3.1,2.7c0,0,0,0.1,0,0.1L253.7,54.7z"/>
	</g>
</g>
</svg>
