<?xml version="1.0" encoding="utf-8"?>
<!-- Generator: Adobe Illustrator 25.3.1, SVG Export Plug-In . SVG Version: 6.00 Build 0)  -->
<svg version="1.1" id="Layer_1" xmlns="http://www.w3.org/2000/svg" xmlns:xlink="http://www.w3.org/1999/xlink" x="0px" y="0px"
	 viewBox="0 0 300 250" style="enable-background:new 0 0 300 250;" xml:space="preserve">
<style type="text/css">
	.st0{clip-path:url(#SVGID_2_);}
	.st1{fill:#221E1F;}
</style>
<g>
	<defs>
		<rect id="SVGID_1_" width="300" height="250"/>
	</defs>
	<clipPath id="SVGID_2_">
		<use xlink:href="#SVGID_1_"  style="overflow:visible;"/>
	</clipPath>
	<g class="st0">
		<path class="st1" d="M27.4,92.4v-4.3h2.5v-0.7c0-4.4,2.8-6.8,6.9-6.8c3.2,0,5.4,1.6,6.1,4.4L39,86.2c-0.2-0.7-0.9-1.2-1.6-1.2
			c-1,0-1.4,0.8-1.4,1.9v1.2h4.3v4.3H36v12.8h-6.2V92.4H27.4z"/>
		<path class="st1" d="M50.1,105.6c-5.6,0-9.4-3.7-9.4-9s3.8-9,9.3-9s9.3,3.7,9.3,9S55.6,105.6,50.1,105.6z M50.1,101
			c2.1,0,3.1-1.8,3.1-4.3s-1-4.3-3.1-4.3S47,94.1,47,96.6S47.9,101,50.1,101L50.1,101z"/>
		<path class="st1" d="M74.8,94.1c-0.9-0.5-2-0.8-3-0.7c-2.3,0-3.7,1.1-3.7,4v7.8h-6.2V88.1h6.2v3c0.7-2,2.5-3.4,4.7-3.5
			c0.8,0,1.7,0.2,2.4,0.7L74.8,94.1z"/>
		<path class="st1" d="M84.6,92.4h-2.3v-3.8l1.3-0.2c1.7-0.3,2.3-1.2,2.7-2.8l0.6-2.2h3.9v4.7h4.4v4.3h-4.4v6.2c0,1.5,0.7,2,1.9,2
			c0.9,0,1.8-0.2,2.7-0.6v4c-1.5,1.1-3.3,1.6-5.1,1.5c-2.9,0-5.6-1.2-5.6-5.2V92.4z"/>
		<path class="st1" d="M103.8,105.2h-6.2V81h6.2v9.6c1.1-2,3.3-3.2,5.5-3c4.7,0,6.2,3.2,6.2,6.8v10.7h-6.2v-9.1
			c0-2.3-0.7-3.6-2.5-3.6c-2.1,0-3,1.7-3,4.2L103.8,105.2z"/>
		<path class="st1" d="M134.7,100.2c0,0.9,0.4,1.3,1,1.3c0.5,0,0.9-0.1,1.4-0.3v3.3c-1.1,0.8-2.5,1.2-3.9,1.1c-2,0.1-3.8-1.1-4.3-3
			c-1,2-3,3-5.7,3c-3.3,0-5.5-1.7-5.5-4.6c0-3.3,2.4-4.7,6.1-5.4l4.8-0.8v-0.3c0-1.4-0.7-2.3-2.1-2.3c-1.2,0-2.3,0.9-2.3,2.2
			l-5.7-0.4c0.5-3.8,3.3-6.4,8.5-6.4c4.5,0,7.9,2,7.9,6.7L134.7,100.2z M128.6,97.8l-2.5,0.5c-1.5,0.3-2.4,0.8-2.4,1.9
			c0,0.9,0.7,1.5,1.7,1.5c1.8,0,3.2-1.4,3.2-3.2c0-0.1,0-0.2,0-0.4V97.8z"/>
		<path class="st1" d="M139.5,92.4h-2.3v-3.8l1.3-0.2c1.7-0.3,2.3-1.2,2.7-2.8l0.6-2.2h3.9v4.7h4.4v4.3h-4.4v6.2c0,1.5,0.7,2,2,2
			c0.9,0,1.8-0.2,2.6-0.6v4c-1.5,1.1-3.3,1.6-5.1,1.5c-2.9,0-5.6-1.2-5.6-5.2L139.5,92.4z"/>
		<path class="st1" d="M182.2,87.6c4.7,0,6.1,3.2,6.1,6.8v10.7H182v-9.1c0-2.3-0.4-3.6-2.3-3.6c-2.1,0-2.8,1.7-2.8,4.2v8.4h-6.2
			v-9.1c0-2.3-0.5-3.6-2.3-3.6c-2,0-2.8,1.7-2.8,4.2v8.4h-6.2V88.1h6.2v2.6c1-2,3.1-3.2,5.3-3c3,0,4.6,1.4,5.3,3.4
			C177.4,88.8,179.7,87.5,182.2,87.6z"/>
		<path class="st1" d="M199.9,105.6c-5.6,0-9.4-3.7-9.4-9s3.8-9,9.4-9s9.3,3.7,9.3,9S205.4,105.6,199.9,105.6z M199.9,101
			c2.1,0,3.1-1.8,3.1-4.3s-1-4.3-3.1-4.3s-3.1,1.8-3.1,4.3S197.7,101,199.9,101L199.9,101z"/>
		<path class="st1" d="M217.9,105.2h-6.2V88.1h6.2v2.6c1.1-2,3.2-3.2,5.5-3c4.7,0,6.2,3.2,6.2,6.8v10.7h-6.2v-9.1
			c0-2.3-0.7-3.6-2.5-3.6c-2.1,0-2.9,1.7-2.9,4.2V105.2z"/>
		<path class="st1" d="M249.7,99.5c-0.9,3.9-4,6.1-8.5,6.1c-5.5,0-9.4-3.3-9.4-8.7c-0.2-5,3.8-9.1,8.7-9.3c0.2,0,0.4,0,0.6,0
			c5.7,0,8.7,3.9,8.7,8.5v1.7h-12c0.1,1.8,1.6,3.2,3.3,3.1c0.1,0,0.1,0,0.2,0c1.7,0,2.8-0.6,3.3-1.9L249.7,99.5z M243.9,94.9
			c0-1.5-1.2-2.8-2.8-2.8c-0.1,0-0.1,0-0.2,0c-1.6-0.1-3,1.1-3.1,2.7c0,0,0,0.1,0,0.1H243.9z"/>
		<path class="st1" d="M255.1,111.3l2.5-5.9l-7-17.3h6.5l3.8,10h0.2l3.9-10h6.1l-9.8,23.2H255.1z"/>
	</g>
</g>
</svg>
