<svg id="Layer_1" data-name="Layer 1" xmlns="http://www.w3.org/2000/svg" xmlns:xlink="http://www.w3.org/1999/xlink" viewBox="0 0 300 250"><defs><style>.cls-1{fill:none;}.cls-2{clip-path:url(#clip-path);}.cls-3{clip-path:url(#clip-path-2);}.cls-4,.cls-6{fill:#221e1f;}.cls-5{fill:#eab8b9;}.cls-6{fill-rule:evenodd;}</style><clipPath id="clip-path"><rect class="cls-1" width="300" height="250"/></clipPath><clipPath id="clip-path-2"><rect class="cls-1" x="163.65" y="19" width="116.62" height="224.35"/></clipPath></defs><g class="cls-2"><g class="cls-3"><path class="cls-4" d="M180.8,243.35h82.31a17.16,17.16,0,0,0,17.16-17.16v-190A17.16,17.16,0,0,0,263.11,19H180.8a17.15,17.15,0,0,0-17.15,17.16v190a17.15,17.15,0,0,0,17.15,17.16"/><path class="cls-5" d="M263.22,25.74H253a1.59,1.59,0,0,0-1.58,1.59v.91a5.87,5.87,0,0,1-5.88,5.87H198.9A5.87,5.87,0,0,1,193,28.24v-.91a1.59,1.59,0,0,0-1.58-1.59H180.93a11.1,11.1,0,0,0-11.09,11.09V226.39a11.1,11.1,0,0,0,11.09,11.09h82.29a11.09,11.09,0,0,0,11.09-11.09V36.83a11.09,11.09,0,0,0-11.09-11.09"/><path class="cls-6" d="M270,32.59a.46.46,0,0,1-.45.52v-1a.46.46,0,0,1,.45.51m-.59-1v1.92h0a.45.45,0,0,1-.45.44h-4.84a.45.45,0,0,1-.45-.44h0V31.63a.45.45,0,0,1,.45-.44h4.84a.45.45,0,0,1,.45.44m-5.29-.29a.29.29,0,0,0-.3.29v1.92a.29.29,0,0,0,.3.3h4.84a.29.29,0,0,0,.3-.3V31.63a.29.29,0,0,0-.3-.29Z"/><path class="cls-4" d="M260.28,31.34a2.72,2.72,0,0,1,1.77.69l-.23.26a2.43,2.43,0,0,0-1.54-.56,2.39,2.39,0,0,0-1.54.56L258.5,32a2.77,2.77,0,0,1,1.78-.69m0,.92a1.84,1.84,0,0,1,1.17.43l-.25.28a1.47,1.47,0,0,0-.92-.32,1.5,1.5,0,0,0-.93.32l-.25-.28a1.86,1.86,0,0,1,1.18-.43m0,.9a.94.94,0,0,1,.57.21l-.57.63-.57-.63a.89.89,0,0,1,.57-.21"/><rect class="cls-4" x="252.97" y="33.09" width="0.52" height="0.91"/><rect class="cls-4" x="254.18" y="32.52" width="0.52" height="1.48"/><rect class="cls-4" x="255.39" y="32.04" width="0.52" height="1.95"/><rect class="cls-4" x="256.6" y="31.51" width="0.52" height="2.48"/><polygon class="cls-4" points="176.67 31.59 176.66 31.59 175.91 32.11 175.91 31.69 176.67 31.15 177.11 31.15 177.11 34.03 176.67 34.03 176.67 31.59"/><path class="cls-4" d="M177.81,33.72l1-1a3.33,3.33,0,0,0,.29-.32.83.83,0,0,0,.14-.23.65.65,0,0,0,0-.21h0a.43.43,0,0,0-.07-.25.44.44,0,0,0-.17-.16.58.58,0,0,0-.26-.06.59.59,0,0,0-.51.26.44.44,0,0,0-.07.26h-.43a.8.8,0,0,1,.13-.46.93.93,0,0,1,.36-.32,1.19,1.19,0,0,1,.51-.11,1.07,1.07,0,0,1,.49.1.9.9,0,0,1,.34.3.73.73,0,0,1,.12.41h0a.81.81,0,0,1-.06.31,1.09,1.09,0,0,1-.21.32,4.56,4.56,0,0,1-.4.44l-.81.79.15-.29v.29l-.15-.13h1.52V34h-2Z"/><path class="cls-4" d="M180.23,32a.24.24,0,0,1-.07-.18.25.25,0,0,1,.07-.19.26.26,0,0,1,.19-.08.25.25,0,0,1,.18.08.22.22,0,0,1,.08.19.22.22,0,0,1-.08.18.25.25,0,0,1-.18.08.26.26,0,0,1-.19-.08m0,1.5a.25.25,0,0,1-.07-.19.24.24,0,0,1,.07-.18.26.26,0,0,1,.19-.08.25.25,0,0,1,.18.08.22.22,0,0,1,.08.18.22.22,0,0,1-.08.19.25.25,0,0,1-.18.08.26.26,0,0,1-.19-.08"/><path class="cls-4" d="M182.47,33.45H181v-.39l.24-.38.25-.38.24-.39.25-.38.24-.38h.65v1.93h.4v.37h-.4V34h-.43Zm0-.36V31.5h0l-.2.32-.21.31a3.28,3.28,0,0,1-.2.31c-.07.11-.13.22-.2.32l-.2.31v0Z"/><path class="cls-4" d="M184.09,33.89a1.18,1.18,0,0,1-.38-.51,2.33,2.33,0,0,1-.13-.79h0a2.38,2.38,0,0,1,.13-.79,1.18,1.18,0,0,1,.38-.51,1,1,0,0,1,.59-.18,1,1,0,0,1,.59.18,1.11,1.11,0,0,1,.38.51,2.15,2.15,0,0,1,.13.79h0a2.11,2.11,0,0,1-.13.79,1.11,1.11,0,0,1-.38.51.91.91,0,0,1-.59.19.93.93,0,0,1-.59-.19m.94-.32a.92.92,0,0,0,.23-.39,2,2,0,0,0,.07-.59h0a2.08,2.08,0,0,0-.07-.59.88.88,0,0,0-.23-.38.48.48,0,0,0-.35-.14.52.52,0,0,0-.35.14.87.87,0,0,0-.22.38,2.08,2.08,0,0,0-.07.59h0a2,2,0,0,0,.07.59.91.91,0,0,0,.22.39.51.51,0,0,0,.35.13.48.48,0,0,0,.35-.13"/><path class="cls-4" d="M189.14,31.78,188.6,33l0-.28,0-.24-.24,0-.4,0Zm.6-.66-2.88,1.57,1.42.08.17,1.34Z"/><path class="cls-6" d="M264,31.71v1.77a.14.14,0,0,0,.14.14h4.28a.15.15,0,0,0,.15-.14V31.71a.15.15,0,0,0-.15-.15h-4.28a.15.15,0,0,0-.14.15"/></g></g></svg>