<?xml version="1.0" encoding="utf-8"?>
<!-- Generator: Adobe Illustrator 23.0.0, SVG Export Plug-In . SVG Version: 6.00 Build 0)  -->
<svg version="1.1" id="Layer_1" xmlns="http://www.w3.org/2000/svg" xmlns:xlink="http://www.w3.org/1999/xlink" x="0px" y="0px"
	 viewBox="0 0 160 600" style="enable-background:new 0 0 160 600;" xml:space="preserve">
<style type="text/css">
	.st0{fill:#BB8C54;}
</style>
<g>
	<path class="st0" d="M57.71,179.29h-4.95c-0.4,0.08-0.79,0.12-1.16,0.12c-1.01,0-1.94-0.25-2.8-0.74s-1.53-1.17-2.03-2.02
		s-0.75-1.78-0.75-2.8c0-1,0.25-1.93,0.75-2.78s1.18-1.54,2.03-2.05c0.85-0.51,1.79-0.77,2.8-0.77c1,0,1.93,0.25,2.78,0.77
		c0.85,0.51,1.54,1.19,2.05,2.05s0.77,1.79,0.77,2.78c0,0.71-0.13,1.38-0.38,2.02c-0.26,0.64-0.61,1.21-1.07,1.72h1.96
		C57.71,177.59,57.71,179.29,57.71,179.29z M48.33,175.79c0.34,0.6,0.8,1.06,1.39,1.41c0.58,0.34,1.23,0.52,1.93,0.52
		c0.69,0,1.32-0.17,1.89-0.52s1.02-0.81,1.36-1.41c0.33-0.59,0.5-1.24,0.5-1.94s-0.17-1.35-0.51-1.94s-0.8-1.06-1.38-1.41
		s-1.21-0.52-1.91-0.52s-1.34,0.17-1.91,0.52c-0.58,0.35-1.03,0.82-1.37,1.41s-0.5,1.23-0.5,1.94
		C47.83,174.55,48,175.2,48.33,175.79z"/>
	<path class="st0" d="M61.96,176.54c0.22,0.36,0.52,0.65,0.9,0.86c0.38,0.22,0.79,0.32,1.24,0.32c0.47,0,0.9-0.1,1.28-0.31
		c0.38-0.21,0.69-0.49,0.91-0.85s0.33-0.75,0.33-1.19v-6.99h1.73v7.04c0,0.78-0.19,1.47-0.56,2.08c-0.38,0.61-0.89,1.08-1.54,1.42
		s-1.36,0.51-2.15,0.51c-0.78,0-1.49-0.17-2.14-0.51c-0.65-0.34-1.15-0.81-1.52-1.42c-0.37-0.6-0.56-1.3-0.56-2.08v-7.04h1.74v6.99
		C61.63,175.79,61.74,176.17,61.96,176.54z"/>
	<path class="st0" d="M78.41,168.38v1.68h-5.49v2.91h4.89v1.68h-4.89v2.97h5.7v1.68h-7.46v-10.92L78.41,168.38L78.41,168.38z"/>
	<path class="st0" d="M88.28,168.38v1.68h-5.49v2.91h4.89v1.68h-4.89v2.97h5.7v1.68h-7.46v-10.92L88.28,168.38L88.28,168.38z"/>
	<path class="st0" d="M100.55,168.38v11.31h-0.04l-7.88-7.64l0.04,7.25H90.9V168h0.09l7.85,7.73l-0.03-7.35L100.55,168.38
		L100.55,168.38z"/>
	<path class="st0" d="M102.5,170.48c0.18-0.18,0.33-0.41,0.45-0.7c0.12-0.29,0.18-0.57,0.18-0.86c0-0.07-0.01-0.19-0.03-0.35
		l1.32-0.1c0.02,0.14,0.03,0.25,0.03,0.31c0,0.39-0.11,0.79-0.32,1.19c-0.22,0.4-0.47,0.7-0.77,0.9L102.5,170.48z"/>
	<path class="st0" d="M109.64,169.86c-0.54,0-0.97,0.12-1.28,0.36s-0.47,0.57-0.47,0.99c0,0.41,0.2,0.75,0.59,1.03
		c0.4,0.28,0.95,0.55,1.66,0.82c0.54,0.19,1,0.41,1.39,0.65s0.7,0.58,0.95,1s0.38,0.95,0.38,1.59c0,0.58-0.14,1.1-0.43,1.58
		c-0.29,0.47-0.71,0.84-1.26,1.13c-0.55,0.28-1.2,0.42-1.95,0.42c-0.66,0-1.31-0.1-1.95-0.31s-1.21-0.49-1.71-0.85l0.78-1.36
		c0.37,0.28,0.81,0.51,1.31,0.7s0.97,0.28,1.4,0.28c0.53,0,1-0.13,1.4-0.38s0.6-0.65,0.6-1.18c0-0.42-0.17-0.77-0.5-1.05
		c-0.34-0.28-0.8-0.53-1.4-0.76c-0.62-0.23-1.13-0.46-1.54-0.68s-0.76-0.54-1.06-0.95c-0.29-0.4-0.44-0.91-0.44-1.52
		c0-0.89,0.3-1.61,0.91-2.15c0.6-0.54,1.4-0.84,2.39-0.88c0.72,0,1.35,0.08,1.9,0.25c0.54,0.17,1.05,0.4,1.52,0.7l-0.66,1.33
		C111.2,170.1,110.37,169.86,109.64,169.86z"/>
	<path class="st0" d="M49.99,195.63c0.35,0.44,0.52,0.95,0.52,1.53c0,1.06-0.36,1.85-1.07,2.36c-0.72,0.52-1.6,0.77-2.65,0.77h-3.4
		v-10.92h2.98c1.14,0,2.02,0.23,2.66,0.7c0.63,0.47,0.94,1.15,0.94,2.05c0,0.57-0.12,1.06-0.37,1.48s-0.59,0.75-1.04,1
		C49.16,194.85,49.64,195.19,49.99,195.63z M45.13,194.02h1.52c0.5,0,0.88-0.15,1.13-0.44c0.26-0.29,0.38-0.65,0.38-1.09
		c0-0.48-0.15-0.84-0.46-1.08c-0.31-0.24-0.73-0.36-1.27-0.36h-1.31L45.13,194.02L45.13,194.02z M48.15,198.29
		c0.37-0.25,0.56-0.63,0.56-1.12c0-0.52-0.2-0.89-0.61-1.13c-0.4-0.23-0.91-0.34-1.51-0.34h-1.46v2.97h1.58
		C47.3,198.67,47.78,198.55,48.15,198.29z"/>
	<path class="st0" d="M54.58,189.38v10.92h-1.75v-10.92H54.58z"/>
	<path class="st0" d="M63.55,200.29l-2.46-3.79h-0.18h-1.58v3.79h-1.75v-10.92h3.08c1.22,0,2.2,0.31,2.93,0.93
		c0.74,0.62,1.1,1.48,1.1,2.58c0,0.67-0.14,1.29-0.43,1.87s-0.73,1.02-1.34,1.33l2.66,4.21H63.55z M59.34,194.82h1.56
		c0.7,0,1.21-0.19,1.52-0.58c0.31-0.38,0.47-0.82,0.47-1.3c0-0.28-0.06-0.56-0.18-0.85c-0.12-0.29-0.33-0.53-0.61-0.74
		c-0.29-0.2-0.67-0.31-1.14-0.31h-1.62C59.34,191.04,59.34,194.82,59.34,194.82z"/>
	<path class="st0" d="M73.98,189.38v1.68h-2.82v9.24h-1.74v-9.24h-2.74v-1.68H73.98z"/>
	<path class="st0" d="M85.08,200.29h-1.75v-4.65h-5.37v4.65H76.2v-10.92h1.75v4.6h5.37v-4.6h1.75v10.92H85.08z"/>
	<path class="st0" d="M88.08,189.38h3.1c1.37,0,2.5,0.27,3.4,0.81s1.55,1.23,1.96,2.08s0.62,1.75,0.62,2.71
		c0,1.06-0.25,1.99-0.74,2.8c-0.5,0.81-1.16,1.43-1.99,1.86c-0.83,0.44-1.74,0.65-2.72,0.65h-3.63
		C88.08,200.29,88.08,189.38,88.08,189.38z M91.39,198.61c0.78,0,1.47-0.14,2.06-0.44c0.59-0.29,1.06-0.72,1.4-1.28
		s0.5-1.24,0.5-2.03c0-0.86-0.18-1.58-0.55-2.15c-0.37-0.57-0.83-1-1.4-1.27s-1.15-0.4-1.75-0.4h-1.83v7.57L91.39,198.61
		L91.39,198.61z"/>
	<path class="st0" d="M104.46,197.73h-3.98l-1.05,2.56H97.7l4.83-11.37h0.1l4.83,11.37h-2.01L104.46,197.73z M103.87,196.23
		l-1.36-3.45l-1.41,3.45H103.87z"/>
	<path class="st0" d="M116.62,189.38l-4.09,7.38v3.54h-1.74v-3.54l-4.03-7.38h2.15l2.82,5.38l2.76-5.38H116.62z"/>
</g>
</svg>
