<?xml version="1.0" encoding="utf-8"?>
<!-- Generator: Adobe Illustrator 23.0.0, SVG Export Plug-In . SVG Version: 6.00 Build 0)  -->
<svg version="1.1" id="Layer_1" xmlns="http://www.w3.org/2000/svg" xmlns:xlink="http://www.w3.org/1999/xlink" x="0px" y="0px"
	 viewBox="0 0 160 600" style="enable-background:new 0 0 160 600;" xml:space="preserve">
<style type="text/css">
	.st0{fill:#BB8C54;}
</style>
<g>
	<path class="st0" d="M49.02,314.5c0.36-0.46,0.8-0.82,1.3-1.07c-0.3-0.24-0.53-0.49-0.69-0.76c-0.16-0.26-0.24-0.6-0.24-1.01
		c0-0.43,0.12-0.82,0.35-1.17s0.56-0.62,0.97-0.82c0.41-0.19,0.86-0.29,1.36-0.29s0.96,0.1,1.37,0.29s0.74,0.46,0.98,0.79
		c0.24,0.34,0.36,0.71,0.36,1.12c0,0.44-0.08,0.79-0.24,1.06s-0.4,0.53-0.72,0.78c0.51,0.27,0.95,0.64,1.31,1.1
		c0.36,0.47,0.55,1.03,0.55,1.7c0,0.58-0.16,1.12-0.48,1.62s-0.76,0.9-1.31,1.21c-0.56,0.31-1.17,0.46-1.84,0.46
		c-0.67,0-1.28-0.15-1.83-0.45c-0.55-0.3-0.98-0.7-1.29-1.21c-0.31-0.5-0.46-1.05-0.46-1.63C48.47,315.54,48.65,314.97,49.02,314.5z
		 M50.49,317.1c0.16,0.29,0.38,0.52,0.66,0.69s0.58,0.25,0.9,0.25c0.33,0,0.64-0.08,0.93-0.25s0.52-0.4,0.7-0.69
		c0.17-0.29,0.26-0.6,0.26-0.93c0-0.52-0.18-0.96-0.54-1.33c-0.36-0.36-0.79-0.55-1.3-0.55c-0.32,0-0.62,0.08-0.91,0.25
		c-0.28,0.17-0.51,0.39-0.68,0.68s-0.25,0.6-0.25,0.94C50.25,316.5,50.33,316.81,50.49,317.1z M51.39,312.55
		c0.21,0.2,0.45,0.29,0.72,0.29s0.5-0.09,0.7-0.28s0.3-0.42,0.3-0.69c0-0.29-0.1-0.54-0.3-0.74c-0.2-0.2-0.44-0.3-0.7-0.3
		c-0.28,0-0.52,0.1-0.73,0.3c-0.21,0.2-0.31,0.45-0.31,0.74C51.08,312.13,51.18,312.36,51.39,312.55z"/>
	<path class="st0" d="M61.38,312.12v1.12H59.5v6.16h-1.16v-6.16h-1.83v-1.12H61.38z"/>
	<path class="st0" d="M68.78,319.4h-1.17v-3.1h-3.58v3.1h-1.17v-7.28h1.17v3.07h3.58v-3.07h1.17V319.4z"/>
	<path class="st0" d="M82.9,319.4l-0.87-1.15c-0.32,0.4-0.74,0.72-1.25,0.96c-0.52,0.24-1.11,0.36-1.79,0.36s-1.3-0.14-1.85-0.43
		c-0.55-0.28-0.98-0.68-1.31-1.18c-0.32-0.5-0.48-1.06-0.48-1.68c0-0.76,0.27-1.43,0.8-2.01c0.53-0.58,1.19-0.98,1.98-1.22l-0.3-0.4
		c-0.55-0.81-0.82-1.52-0.82-2.13c0-0.42,0.11-0.83,0.32-1.22s0.53-0.7,0.94-0.94c0.42-0.24,0.91-0.36,1.48-0.36
		c0.6,0,1.15,0.12,1.66,0.37c0.5,0.25,0.92,0.56,1.25,0.94l-0.87,1.16c-0.34-0.32-0.65-0.56-0.94-0.73
		c-0.28-0.17-0.56-0.26-0.82-0.26c-0.38,0-0.68,0.12-0.9,0.35s-0.33,0.52-0.33,0.85c0,0.29,0.08,0.57,0.24,0.83
		c0.16,0.27,0.24,0.4,0.25,0.41l2.53,3.38l0.92-2.4h1.6l-1.48,3.78l2.06,2.73H82.9V319.4z M81.12,317.03l-2.07-2.77
		c-0.52,0.05-0.96,0.26-1.33,0.63s-0.55,0.81-0.55,1.31c0,0.53,0.2,0.97,0.59,1.31s0.88,0.51,1.46,0.51
		C80.09,318,80.72,317.68,81.12,317.03z"/>
	<path class="st0" d="M96.26,309.95c0.55,0.31,0.99,0.74,1.32,1.28s0.49,1.15,0.49,1.83c0,0.99-0.23,1.88-0.69,2.68
		s-1.03,1.48-1.72,2.06s-1.52,1.19-2.51,1.83l-1.17-1.27c0.79-0.37,1.49-0.78,2.1-1.23s1.09-0.91,1.44-1.37
		c-0.45,0.31-1.02,0.46-1.71,0.46c-0.5,0-0.97-0.14-1.42-0.41s-0.82-0.66-1.09-1.14c-0.28-0.48-0.42-1.02-0.42-1.61
		c0-0.72,0.17-1.35,0.49-1.89c0.33-0.54,0.77-0.96,1.31-1.25s1.12-0.44,1.74-0.44C95.09,309.48,95.7,309.64,96.26,309.95z
		 M93.18,314.25c0.34,0.33,0.77,0.5,1.28,0.5s0.94-0.16,1.28-0.47c0.35-0.31,0.52-0.7,0.52-1.16v-0.3
		c-0.01-0.49-0.19-0.91-0.53-1.25c-0.34-0.35-0.77-0.52-1.27-0.52c-0.51,0-0.94,0.17-1.28,0.51c-0.35,0.34-0.52,0.8-0.52,1.37
		C92.67,313.47,92.84,313.91,93.18,314.25z"/>
	<path class="st0" d="M103.81,312.12v1.12h-1.88v6.16h-1.16v-6.16h-1.83v-1.12H103.81z"/>
	<path class="st0" d="M111.21,319.4h-1.17v-3.1h-3.58v3.1h-1.17v-7.28h1.17v3.07h3.58v-3.07h1.17V319.4z"/>
	<path class="st0" d="M46.3,337.59c-0.35,0.65-0.84,1.15-1.46,1.5s-1.33,0.54-2.15,0.57v-1.7c0.73-0.04,1.31-0.28,1.73-0.73
		c0.42-0.44,0.64-1.11,0.64-2v-8.76h1.75v8.8C46.83,336.18,46.65,336.94,46.3,337.59z"/>
	<path class="st0" d="M51.73,334.64c0.22,0.36,0.52,0.65,0.9,0.86c0.38,0.22,0.79,0.32,1.24,0.32c0.47,0,0.9-0.1,1.28-0.31
		c0.38-0.21,0.69-0.49,0.91-0.85c0.22-0.36,0.33-0.75,0.33-1.19v-6.99h1.73v7.04c0,0.78-0.19,1.47-0.56,2.08
		c-0.38,0.61-0.89,1.08-1.54,1.42c-0.65,0.34-1.36,0.51-2.15,0.51c-0.78,0-1.49-0.17-2.14-0.51c-0.65-0.34-1.15-0.81-1.52-1.42
		c-0.37-0.6-0.56-1.3-0.56-2.08v-7.04h1.74v6.99C51.4,333.89,51.51,334.28,51.73,334.64z"/>
	<path class="st0" d="M70.59,326.48v11.31h-0.04l-7.88-7.64l0.04,7.25h-1.77v-11.3h0.09l7.85,7.73l-0.03-7.35H70.59z"/>
	<path class="st0" d="M80.85,326.48v1.68h-5.49v2.91h4.89v1.68h-4.89v2.97h5.7v1.68H73.6v-10.92L80.85,326.48L80.85,326.48z"/>
	<path class="st0" d="M94.48,335.72v1.68h-6.9l0.54-0.54c0.99-0.99,1.77-1.8,2.33-2.42s1.04-1.25,1.41-1.89
		c0.38-0.63,0.56-1.24,0.56-1.81c0-0.54-0.16-0.95-0.49-1.24s-0.74-0.44-1.23-0.44c-0.53,0-0.94,0.15-1.23,0.45
		c-0.29,0.3-0.43,0.64-0.43,1.01c0,0.62,0.19,1.13,0.58,1.54l-1.06,0.97c-0.36-0.2-0.65-0.56-0.88-1.07
		c-0.23-0.52-0.34-0.98-0.34-1.4c0-0.55,0.15-1.07,0.44-1.56s0.71-0.88,1.27-1.18c0.56-0.29,1.21-0.44,1.96-0.44
		c0.63,0,1.19,0.15,1.69,0.44c0.49,0.3,0.88,0.69,1.15,1.18s0.4,1.02,0.4,1.59s-0.13,1.14-0.39,1.69c-0.26,0.56-0.57,1.08-0.94,1.56
		s-0.88,1.11-1.54,1.88H94.48z"/>
	<path class="st0" d="M97.72,336.85c-0.63-0.4-1.13-0.97-1.48-1.73c-0.36-0.76-0.54-1.67-0.54-2.72c0-1.7,0.37-2.96,1.12-3.79
		c0.75-0.82,1.76-1.23,3.05-1.22c0.8-0.01,1.51,0.18,2.14,0.58s1.12,0.97,1.48,1.73c0.35,0.76,0.53,1.66,0.53,2.71
		c0,1.08-0.18,2-0.54,2.75c-0.36,0.76-0.85,1.33-1.48,1.71c-0.63,0.39-1.34,0.57-2.14,0.56C99.07,337.44,98.35,337.25,97.72,336.85z
		 M101.62,334.84c0.39-0.61,0.58-1.44,0.58-2.48c0-1.01-0.2-1.81-0.58-2.41c-0.39-0.6-0.98-0.89-1.77-0.88
		c-0.78-0.01-1.36,0.29-1.75,0.89c-0.39,0.61-0.58,1.42-0.58,2.44s0.2,1.84,0.58,2.45c0.39,0.61,0.98,0.92,1.75,0.92
		C100.64,335.77,101.23,335.46,101.62,334.84z"/>
	<path class="st0" d="M108.07,327.5v9.9h-1.76v-8.22h-0.99v-1.68H108.07z"/>
	<path class="st0" d="M115.49,327.95c0.55,0.31,0.99,0.74,1.32,1.28s0.49,1.15,0.49,1.83c0,0.99-0.23,1.88-0.69,2.68
		s-1.03,1.48-1.72,2.06s-1.52,1.19-2.51,1.83l-1.17-1.27c0.79-0.37,1.49-0.78,2.1-1.23s1.09-0.91,1.44-1.37
		c-0.45,0.31-1.02,0.46-1.71,0.46c-0.5,0-0.97-0.14-1.42-0.41s-0.82-0.66-1.09-1.14c-0.28-0.48-0.42-1.02-0.42-1.61
		c0-0.72,0.17-1.35,0.49-1.89c0.33-0.54,0.77-0.96,1.31-1.25s1.12-0.44,1.74-0.44C114.32,327.48,114.93,327.64,115.49,327.95z
		 M112.42,332.25c0.34,0.33,0.77,0.5,1.28,0.5s0.94-0.16,1.28-0.47c0.35-0.31,0.52-0.7,0.52-1.16v-0.3
		c-0.01-0.49-0.19-0.91-0.53-1.25c-0.34-0.35-0.77-0.52-1.27-0.52c-0.51,0-0.94,0.17-1.28,0.51c-0.35,0.34-0.52,0.8-0.52,1.37
		C111.9,331.47,112.07,331.91,112.42,332.25z"/>
</g>
</svg>
