<?xml version="1.0" encoding="utf-8"?>
<!-- Generator: Adobe Illustrator 23.0.0, SVG Export Plug-In . SVG Version: 6.00 Build 0)  -->
<svg version="1.1" id="Layer_1" xmlns="http://www.w3.org/2000/svg" xmlns:xlink="http://www.w3.org/1999/xlink" x="0px" y="0px"
	 viewBox="0 0 160 600" style="enable-background:new 0 0 160 600;" xml:space="preserve">
<style type="text/css">
	.st0{fill:#BB8C54;}
</style>
<g>
	<path class="st0" d="M42.26,182.26c-0.42,0.78-1,1.38-1.75,1.8s-1.6,0.65-2.57,0.68v-2.03c0.88-0.05,1.57-0.34,2.08-0.87
		s0.76-1.33,0.76-2.4v-10.51h2.11v10.57C42.89,180.55,42.68,181.48,42.26,182.26z"/>
	<path class="st0" d="M46,176.06c0.37-0.62,0.87-1.11,1.52-1.47c0.65-0.35,1.39-0.53,2.21-0.53s1.56,0.18,2.21,0.53
		c0.64,0.35,1.14,0.84,1.49,1.46c0.35,0.62,0.52,1.31,0.52,2.08s-0.17,1.46-0.52,2.08c-0.35,0.62-0.84,1.11-1.49,1.47
		c-0.64,0.36-1.38,0.54-2.22,0.54c-0.82,0-1.55-0.17-2.2-0.5s-1.16-0.8-1.52-1.42c-0.37-0.62-0.55-1.34-0.55-2.17
		C45.45,177.38,45.63,176.69,46,176.06z M48.11,179.87c0.42,0.46,0.94,0.69,1.57,0.69c0.65,0,1.18-0.23,1.59-0.68
		s0.62-1.03,0.62-1.73s-0.21-1.27-0.62-1.74s-0.95-0.69-1.59-0.69c-0.62,0-1.15,0.24-1.57,0.71s-0.63,1.05-0.63,1.72
		C47.48,178.84,47.69,179.41,48.11,179.87z"/>
	<path class="st0" d="M56.34,170.92c0.24-0.21,0.51-0.31,0.81-0.31c0.29,0,0.55,0.11,0.78,0.31c0.23,0.21,0.35,0.47,0.35,0.77
		s-0.12,0.55-0.35,0.76c-0.23,0.2-0.5,0.31-0.78,0.31c-0.3,0-0.57-0.1-0.81-0.31c-0.24-0.2-0.36-0.46-0.36-0.76
		C55.98,171.39,56.1,171.14,56.34,170.92z M58.09,174.41v7.61h-2.02v-7.61H58.09z"/>
	<path class="st0" d="M67.6,174.72c0.47,0.43,0.72,0.98,0.73,1.65v5.65h-2.02v-4.93c-0.02-0.4-0.14-0.71-0.35-0.94
		s-0.53-0.35-0.95-0.36c-0.62,0-1.14,0.27-1.54,0.8s-0.6,1.21-0.6,2.04v3.38h-2.02v-7.61h1.82l0.14,1.35
		c0.28-0.53,0.68-0.94,1.2-1.23c0.52-0.29,1.13-0.44,1.81-0.44C66.53,174.08,67.12,174.3,67.6,174.72z"/>
	<path class="st0" d="M84.19,174.41v7.61h-1.82l-0.13-1.37c-0.26,0.52-0.65,0.93-1.17,1.23c-0.52,0.31-1.1,0.46-1.76,0.46
		c-0.7,0-1.28-0.21-1.74-0.64s-0.7-0.98-0.71-1.65v-5.65h2.02v4.93c0.04,0.84,0.45,1.27,1.24,1.28c0.59,0,1.08-0.27,1.47-0.81
		s0.58-1.22,0.58-2.03v-3.37L84.19,174.41L84.19,174.41z"/>
	<path class="st0" d="M87.6,181.87c-0.52-0.21-0.95-0.51-1.29-0.89l0.85-1.13c0.64,0.62,1.28,0.94,1.94,0.94
		c0.36,0,0.66-0.07,0.89-0.21c0.23-0.14,0.35-0.34,0.35-0.62c0-0.29-0.12-0.5-0.36-0.65c-0.24-0.14-0.51-0.26-0.8-0.35
		c-0.29-0.09-0.48-0.15-0.57-0.17c-0.66-0.2-1.15-0.5-1.48-0.89s-0.49-0.85-0.49-1.38c0-0.42,0.11-0.81,0.32-1.18
		s0.53-0.66,0.95-0.89c0.43-0.23,0.95-0.34,1.56-0.34c0.58,0,1.08,0.07,1.5,0.2c0.43,0.13,0.83,0.34,1.2,0.63l-0.77,1.21
		c-0.22-0.2-0.48-0.37-0.78-0.49c-0.31-0.12-0.58-0.18-0.84-0.18c-0.31,0-0.57,0.07-0.77,0.22s-0.31,0.33-0.31,0.56
		c-0.01,0.28,0.09,0.48,0.31,0.62s0.56,0.29,1.04,0.44c0.2,0.06,0.34,0.1,0.4,0.13c0.6,0.19,1.07,0.46,1.4,0.8
		c0.34,0.34,0.5,0.79,0.5,1.34c0,0.74-0.27,1.37-0.8,1.86s-1.3,0.75-2.29,0.75C88.67,182.18,88.12,182.08,87.6,181.87z"/>
	<path class="st0" d="M101.01,176.17h-1.3v-1.78h1.3v-2.99c0-1.07,0.27-1.9,0.81-2.5s1.31-0.9,2.32-0.9c0.3,0,0.62,0.04,0.97,0.13
		c0.35,0.09,0.65,0.22,0.9,0.39l-0.85,1.46c-0.2-0.22-0.47-0.32-0.81-0.32c-0.89,0-1.33,0.6-1.33,1.8v2.93h2.38v1.78h-2.38v5.85H101
		L101.01,176.17L101.01,176.17z"/>
	<path class="st0" d="M107.04,176.06c0.37-0.62,0.87-1.11,1.52-1.47c0.65-0.35,1.39-0.53,2.21-0.53s1.56,0.18,2.21,0.53
		c0.64,0.35,1.14,0.84,1.49,1.46c0.35,0.62,0.52,1.31,0.52,2.08s-0.17,1.46-0.52,2.08s-0.84,1.11-1.49,1.47
		c-0.64,0.36-1.38,0.54-2.22,0.54c-0.82,0-1.55-0.17-2.2-0.5c-0.65-0.33-1.16-0.8-1.52-1.42c-0.37-0.62-0.55-1.34-0.55-2.17
		C106.49,177.38,106.67,176.69,107.04,176.06z M109.15,179.87c0.42,0.46,0.94,0.69,1.57,0.69c0.65,0,1.18-0.23,1.59-0.68
		s0.62-1.03,0.62-1.73s-0.21-1.27-0.62-1.74s-0.95-0.69-1.59-0.69c-0.62,0-1.15,0.24-1.57,0.71s-0.63,1.05-0.63,1.72
		C108.52,178.84,108.73,179.41,109.15,179.87z"/>
	<path class="st0" d="M119.93,175.07c0.37-0.32,0.75-0.57,1.14-0.75c0.39-0.17,0.72-0.26,0.98-0.26l-0.09,2.02
		c-0.55-0.05-1.04,0.05-1.48,0.3c-0.43,0.25-0.77,0.58-1.01,1.01c-0.24,0.43-0.36,0.88-0.36,1.36v3.28h-2.02v-7.61h1.82l0.14,1.76
		C119.27,175.76,119.56,175.4,119.93,175.07z"/>
</g>
</svg>
