<?xml version="1.0" encoding="utf-8"?>
<!-- Generator: Adobe Illustrator 23.0.0, SVG Export Plug-In . SVG Version: 6.00 Build 0)  -->
<svg version="1.1" id="Layer_1" xmlns="http://www.w3.org/2000/svg" xmlns:xlink="http://www.w3.org/1999/xlink" x="0px" y="0px"
	 viewBox="0 0 160 600" style="enable-background:new 0 0 160 600;" xml:space="preserve">
<style type="text/css">
	.st0{fill:#768961;}
</style>
<g>
	<path class="st0" d="M44.52,221v9.86h5.74v1.79h-7.62V221H44.52z"/>
	<path class="st0" d="M52.6,222.78c0.21-0.19,0.45-0.28,0.72-0.28c0.26,0,0.49,0.09,0.7,0.28s0.31,0.41,0.31,0.68
		s-0.1,0.49-0.31,0.67c-0.21,0.18-0.44,0.27-0.7,0.27c-0.27,0-0.51-0.09-0.72-0.27c-0.21-0.18-0.32-0.41-0.32-0.67
		S52.39,222.97,52.6,222.78z M54.15,225.88v6.77h-1.79v-6.77H54.15z"/>
	<path class="st0" d="M63.3,225.88l-3.71,6.94h-0.08l-3.89-6.94h2.13l1.86,3.87l1.7-3.87H63.3z"/>
	<path class="st0" d="M69.37,230.76l0.82,1.33c-0.36,0.22-0.75,0.4-1.17,0.54s-0.82,0.2-1.2,0.2c-0.78,0-1.45-0.15-2.02-0.46
		c-0.57-0.31-1.01-0.74-1.31-1.28s-0.46-1.17-0.46-1.87c0-0.66,0.17-1.27,0.51-1.82c0.34-0.55,0.81-0.99,1.39-1.32
		c0.59-0.33,1.23-0.49,1.92-0.49c0.92,0,1.68,0.27,2.29,0.81s1.01,1.3,1.22,2.28l-5.22,1.76c0.18,0.28,0.42,0.49,0.72,0.64
		s0.63,0.22,0.99,0.22C68.35,231.29,68.86,231.11,69.37,230.76z M66.32,227.58c-0.36,0.39-0.54,0.91-0.54,1.54
		c0,0.12,0.01,0.21,0.02,0.27l3.55-1.26c-0.14-0.33-0.34-0.6-0.61-0.82c-0.27-0.21-0.61-0.32-1.04-0.32
		C67.14,226.98,66.68,227.18,66.32,227.58z"/>
	<path class="st0" d="M88.59,226.14c0.39,0.37,0.59,0.86,0.62,1.47v5.04h-1.78v-4.35c-0.02-0.36-0.1-0.64-0.24-0.84
		s-0.37-0.31-0.69-0.33c-0.55,0-1,0.25-1.34,0.74c-0.34,0.5-0.52,1.07-0.53,1.74v3.04h-1.81v-4.35c-0.02-0.35-0.1-0.63-0.25-0.83
		c-0.14-0.2-0.38-0.31-0.71-0.34c-0.36,0-0.68,0.12-0.96,0.35c-0.28,0.23-0.49,0.54-0.65,0.93c-0.15,0.38-0.23,0.78-0.23,1.2v3.04
		h-1.79v-6.77h1.62l0.14,1.18c0.26-0.48,0.6-0.85,1.04-1.1s0.94-0.38,1.5-0.38c0.54,0,1,0.12,1.37,0.36s0.61,0.58,0.73,1.03
		c0.28-0.44,0.63-0.78,1.06-1.02c0.43-0.25,0.87-0.37,1.33-0.37C87.68,225.58,88.2,225.76,88.59,226.14z"/>
	<path class="st0" d="M98.18,225.88v6.77h-1.62l-0.11-1.22c-0.23,0.46-0.58,0.82-1.04,1.1c-0.46,0.27-0.98,0.41-1.57,0.41
		c-0.62,0-1.13-0.19-1.54-0.57s-0.62-0.87-0.63-1.46v-5.02h1.79v4.38c0.03,0.75,0.4,1.13,1.1,1.14c0.52,0,0.96-0.24,1.3-0.72
		c0.35-0.48,0.52-1.08,0.52-1.81v-2.99L98.18,225.88L98.18,225.88z"/>
	<path class="st0" d="M101.22,232.51c-0.46-0.19-0.85-0.45-1.14-0.79l0.75-1.01c0.57,0.55,1.14,0.83,1.73,0.83
		c0.32,0,0.58-0.06,0.79-0.18s0.31-0.31,0.31-0.55c0-0.26-0.11-0.45-0.32-0.58s-0.45-0.23-0.71-0.31s-0.43-0.13-0.5-0.15
		c-0.59-0.18-1.02-0.45-1.31-0.79s-0.43-0.75-0.43-1.22c0-0.37,0.09-0.72,0.28-1.05s0.47-0.59,0.85-0.79s0.84-0.3,1.38-0.3
		c0.51,0,0.96,0.06,1.34,0.18s0.73,0.3,1.06,0.56l-0.69,1.07c-0.19-0.18-0.42-0.33-0.7-0.43c-0.27-0.11-0.52-0.16-0.74-0.16
		c-0.28,0-0.51,0.06-0.69,0.19s-0.27,0.29-0.27,0.5c-0.01,0.25,0.08,0.43,0.27,0.55s0.5,0.25,0.93,0.39
		c0.18,0.05,0.3,0.09,0.35,0.11c0.53,0.17,0.95,0.41,1.25,0.71s0.45,0.7,0.45,1.19c0,0.66-0.24,1.21-0.71,1.66
		c-0.47,0.44-1.15,0.66-2.04,0.66C102.17,232.79,101.68,232.7,101.22,232.51z"/>
	<path class="st0" d="M107.67,222.78c0.21-0.19,0.45-0.28,0.72-0.28c0.26,0,0.49,0.09,0.7,0.28s0.31,0.41,0.31,0.68
		s-0.1,0.49-0.31,0.67s-0.44,0.27-0.7,0.27c-0.27,0-0.51-0.09-0.72-0.27c-0.21-0.18-0.32-0.41-0.32-0.67
		S107.46,222.97,107.67,222.78z M109.22,225.88v6.77h-1.79v-6.77H109.22z"/>
	<path class="st0" d="M116.19,232.61c-0.43,0.14-0.87,0.22-1.3,0.22c-0.75,0-1.41-0.14-1.98-0.43s-1.01-0.7-1.32-1.24
		c-0.31-0.54-0.46-1.17-0.46-1.9c0-0.71,0.17-1.34,0.5-1.88c0.33-0.54,0.77-0.95,1.32-1.24c0.55-0.29,1.14-0.43,1.77-0.43
		c1.07,0,1.95,0.29,2.64,0.86l-0.9,1.17c-0.2-0.16-0.44-0.3-0.71-0.41s-0.56-0.17-0.87-0.17c-0.54,0-1.01,0.2-1.38,0.6
		c-0.38,0.4-0.57,0.9-0.57,1.5s0.2,1.1,0.6,1.5s0.91,0.6,1.53,0.6c0.53,0,0.98-0.15,1.34-0.45l0.9,1.12
		C116.99,232.27,116.62,232.46,116.19,232.61z"/>
</g>
</svg>
