<?xml version="1.0" encoding="utf-8"?>
<!-- Generator: Adobe Illustrator 23.0.0, SVG Export Plug-In . SVG Version: 6.00 Build 0)  -->
<svg version="1.1" id="Layer_1" xmlns="http://www.w3.org/2000/svg" xmlns:xlink="http://www.w3.org/1999/xlink" x="0px" y="0px"
	 viewBox="0 0 160 600" style="enable-background:new 0 0 160 600;" xml:space="preserve">
<style type="text/css">
	.st0{fill:#768961;}
</style>
<g>
	<path class="st0" d="M62.96,320.7c0.23,0.38,0.55,0.69,0.96,0.92c0.41,0.23,0.85,0.34,1.33,0.34c0.5,0,0.96-0.11,1.37-0.34
		c0.41-0.22,0.73-0.53,0.97-0.91c0.23-0.38,0.35-0.81,0.35-1.26V312h1.84v7.5c0,0.83-0.2,1.57-0.6,2.22s-0.95,1.15-1.64,1.51
		c-0.69,0.36-1.46,0.54-2.29,0.54s-1.59-0.18-2.28-0.54c-0.69-0.36-1.23-0.87-1.62-1.51c-0.39-0.65-0.59-1.38-0.59-2.22V312h1.86
		v7.46C62.61,319.9,62.73,320.32,62.96,320.7z"/>
	<path class="st0" d="M78.58,317.02c0.51,0.3,0.91,0.73,1.2,1.28c0.29,0.56,0.43,1.2,0.43,1.94c0,0.73-0.16,1.36-0.47,1.9
		s-0.75,0.96-1.31,1.25s-1.19,0.43-1.9,0.43c-0.45,0-0.88-0.09-1.3-0.27c-0.42-0.18-0.76-0.43-1.02-0.74v4.08h-1.79v-10.14h1.55
		l0.16,1.01c0.35-0.36,0.76-0.65,1.22-0.86s0.97-0.32,1.51-0.32C77.49,316.58,78.06,316.73,78.58,317.02z M77.27,322.12
		c0.34-0.19,0.61-0.44,0.81-0.76s0.3-0.68,0.3-1.09c0-0.63-0.2-1.15-0.6-1.56s-0.89-0.62-1.48-0.62c-0.52,0-0.96,0.13-1.32,0.38
		s-0.62,0.61-0.78,1.07v1.36c0.11,0.44,0.34,0.79,0.7,1.07s0.78,0.42,1.27,0.42C76.57,322.4,76.94,322.31,77.27,322.12z"/>
	<path class="st0" d="M89.66,313.9v2.98h1.76v1.41h-1.76v5.36h-1.79v-5.36H86.7v-1.41h1.17v-2.98H89.66z"/>
	<path class="st0" d="M93.11,318.35c0.33-0.55,0.78-0.99,1.35-1.3c0.58-0.31,1.23-0.47,1.97-0.47s1.39,0.16,1.96,0.47
		s1.01,0.75,1.32,1.3s0.46,1.17,0.46,1.85s-0.15,1.3-0.46,1.85s-0.75,0.98-1.32,1.3c-0.57,0.32-1.23,0.48-1.98,0.48
		c-0.73,0-1.38-0.15-1.95-0.44c-0.58-0.29-1.03-0.71-1.35-1.26s-0.49-1.19-0.49-1.93C92.62,319.52,92.79,318.91,93.11,318.35z
		 M94.99,321.74c0.37,0.41,0.84,0.62,1.39,0.62c0.58,0,1.05-0.2,1.42-0.61c0.37-0.41,0.55-0.92,0.55-1.54s-0.18-1.13-0.55-1.54
		s-0.84-0.62-1.42-0.62c-0.55,0-1.02,0.21-1.39,0.63s-0.56,0.93-0.56,1.53C94.43,320.82,94.62,321.33,94.99,321.74z"/>
	<path class="st0" d="M53.42,341.41v2.24h-7.66l0.86-0.86c1-1.02,1.78-1.85,2.33-2.46c0.55-0.62,1.01-1.25,1.38-1.88
		c0.37-0.63,0.55-1.24,0.55-1.82c0-0.45-0.15-0.81-0.45-1.07c-0.3-0.27-0.69-0.4-1.18-0.4c-0.47,0-0.84,0.12-1.12,0.37
		s-0.42,0.52-0.42,0.83c0,0.63,0.21,1.16,0.62,1.6l-1.42,1.3c-0.29-0.14-0.54-0.38-0.77-0.72c-0.22-0.34-0.39-0.71-0.51-1.1
		s-0.18-0.73-0.18-1.01c0-0.6,0.17-1.17,0.5-1.7c0.33-0.54,0.81-0.97,1.45-1.3c0.63-0.33,1.38-0.5,2.25-0.5
		c0.7,0,1.33,0.16,1.89,0.49c0.55,0.33,0.99,0.76,1.3,1.3c0.31,0.54,0.46,1.12,0.46,1.73c0,0.57-0.11,1.12-0.33,1.66
		s-0.5,1.06-0.83,1.54s-0.78,1.07-1.34,1.77L53.42,341.41L53.42,341.41z"/>
	<path class="st0" d="M56.98,343.08c-0.67-0.4-1.21-1-1.6-1.81c-0.4-0.81-0.59-1.8-0.59-2.98c0-3.61,1.49-5.4,4.46-5.38
		c0.84-0.01,1.6,0.18,2.27,0.58s1.21,1,1.6,1.81s0.59,1.8,0.59,2.98c0,1.22-0.2,2.23-0.59,3.03c-0.4,0.81-0.93,1.4-1.6,1.78
		s-1.43,0.57-2.27,0.56C58.41,343.67,57.65,343.48,56.98,343.08z M60.82,340.58c0.31-0.58,0.47-1.36,0.47-2.35
		c0-2.05-0.69-3.07-2.06-3.07c-0.74,0-1.26,0.28-1.57,0.83s-0.46,1.32-0.46,2.29c0,0.98,0.16,1.75,0.46,2.32
		c0.31,0.57,0.83,0.85,1.57,0.85C59.98,341.44,60.51,341.15,60.82,340.58z"/>
	<path class="st0" d="M65.48,338.1c-0.43-0.56-0.65-1.29-0.65-2.2s0.22-1.64,0.65-2.19s1.07-0.83,1.93-0.83
		c0.84,0,1.48,0.28,1.92,0.84c0.44,0.56,0.66,1.29,0.66,2.18c0,0.91-0.22,1.64-0.66,2.2s-1.08,0.84-1.92,0.84
		C66.55,338.94,65.91,338.66,65.48,338.1z M68.14,343.68l-2.19-0.03l7.74-10.77h2.22L68.14,343.68z M66.92,337
		c0.09,0.25,0.25,0.38,0.49,0.38s0.39-0.13,0.48-0.38c0.08-0.25,0.13-0.62,0.13-1.1c0-0.52-0.04-0.89-0.13-1.11
		c-0.09-0.22-0.25-0.33-0.48-0.33c-0.25,0-0.41,0.11-0.5,0.33c-0.08,0.22-0.13,0.59-0.13,1.11C66.78,336.38,66.83,336.75,66.92,337z
		 M72.17,343.26c-0.43-0.56-0.65-1.29-0.65-2.2s0.22-1.64,0.65-2.19s1.07-0.83,1.93-0.83c0.84,0,1.48,0.28,1.92,0.84
		s0.66,1.29,0.66,2.18c0,0.91-0.22,1.64-0.66,2.2s-1.08,0.84-1.92,0.84C73.24,344.1,72.6,343.82,72.17,343.26z M73.61,342.15
		c0.09,0.25,0.25,0.38,0.49,0.38c0.23,0,0.39-0.13,0.48-0.38c0.09-0.25,0.13-0.62,0.13-1.1c0-0.52-0.04-0.89-0.13-1.11
		c-0.08-0.22-0.25-0.33-0.48-0.33c-0.25,0-0.41,0.11-0.5,0.33s-0.13,0.59-0.13,1.11C73.47,341.54,73.52,341.9,73.61,342.15z"/>
	<path class="st0" d="M84.04,334.78c0.54-0.93,1.27-1.67,2.19-2.22c0.92-0.55,1.92-0.82,3-0.82s2.08,0.27,3,0.82
		c0.92,0.55,1.66,1.29,2.21,2.22c0.55,0.93,0.82,1.93,0.82,2.99c0,1.09-0.27,2.09-0.82,3.01s-1.29,1.65-2.21,2.18
		c-0.92,0.54-1.92,0.81-3,0.81c-1.09,0-2.09-0.27-3.01-0.81c-0.92-0.54-1.65-1.27-2.18-2.18c-0.54-0.92-0.81-1.92-0.81-3.01
		C83.23,336.71,83.5,335.71,84.04,334.78z M86.12,339.66c0.33,0.58,0.77,1.03,1.33,1.37c0.56,0.34,1.18,0.5,1.86,0.5
		c0.66,0,1.26-0.17,1.81-0.5c0.54-0.34,0.97-0.79,1.28-1.36c0.31-0.57,0.46-1.2,0.46-1.9c0-0.7-0.16-1.34-0.48-1.92
		s-0.75-1.03-1.3-1.37s-1.16-0.5-1.83-0.5s-1.28,0.17-1.83,0.5c-0.55,0.34-0.98,0.79-1.3,1.37s-0.48,1.22-0.48,1.92
		C85.63,338.46,85.79,339.09,86.12,339.66z"/>
	<path class="st0" d="M104.94,331.87v2.24H99.9v2.67h4.37v2.24H99.9v4.62h-2.32v-11.78h7.36V331.87z"/>
	<path class="st0" d="M114.54,331.87v2.24h-5.04v2.67h4.37v2.24h-4.37v4.62h-2.32v-11.78h7.36V331.87z"/>
	<path class="st0" d="M71.32,352v1.79h-5.2v3.28h4.53v1.78h-4.53v4.8h-1.87V352H71.32z"/>
	<path class="st0" d="M72.53,358.35c0.33-0.55,0.78-0.99,1.35-1.3s1.23-0.47,1.97-0.47s1.39,0.16,1.96,0.47s1.01,0.75,1.32,1.3
		s0.46,1.17,0.46,1.85s-0.15,1.3-0.46,1.85c-0.31,0.55-0.75,0.98-1.32,1.3c-0.57,0.32-1.23,0.48-1.98,0.48
		c-0.73,0-1.38-0.15-1.95-0.44c-0.58-0.29-1.03-0.71-1.35-1.26c-0.33-0.55-0.49-1.19-0.49-1.93
		C72.04,359.52,72.2,358.91,72.53,358.35z M74.41,361.74c0.37,0.41,0.84,0.62,1.39,0.62c0.58,0,1.05-0.2,1.42-0.61
		c0.37-0.41,0.55-0.92,0.55-1.54s-0.18-1.13-0.55-1.54s-0.84-0.62-1.42-0.62c-0.55,0-1.02,0.21-1.39,0.63s-0.56,0.93-0.56,1.53
		C73.85,360.82,74.03,361.33,74.41,361.74z"/>
	<path class="st0" d="M83.99,357.47c0.33-0.29,0.67-0.51,1.02-0.66s0.64-0.23,0.87-0.23l-0.08,1.79c-0.49-0.04-0.93,0.05-1.31,0.26
		s-0.68,0.52-0.9,0.9c-0.21,0.38-0.32,0.78-0.32,1.21v2.91h-1.79v-6.77h1.62l0.13,1.57C83.4,358.09,83.66,357.76,83.99,357.47z"/>
	<path class="st0" d="M94.62,356.88v6.77h-1.79v-0.98c-0.25,0.29-0.58,0.55-0.99,0.79c-0.42,0.24-0.9,0.36-1.46,0.36
		c-0.65,0-1.23-0.14-1.74-0.41c-0.51-0.27-0.92-0.67-1.22-1.21c-0.3-0.53-0.45-1.18-0.45-1.94c0-0.74,0.15-1.38,0.46-1.94
		s0.72-0.99,1.24-1.3c0.52-0.3,1.08-0.46,1.7-0.46c1.1,0,1.92,0.41,2.46,1.22l0.13-0.91h1.66V356.88z M92.11,361.98
		c0.34-0.25,0.57-0.61,0.71-1.06v-1.47c-0.13-0.42-0.38-0.75-0.74-1.01s-0.79-0.38-1.27-0.38c-0.57,0-1.04,0.2-1.44,0.6
		s-0.59,0.91-0.59,1.53c0,0.41,0.1,0.77,0.29,1.1c0.19,0.33,0.45,0.59,0.77,0.78s0.67,0.29,1.04,0.29
		C91.36,362.35,91.78,362.23,92.11,361.98z"/>
	<path class="st0" d="M97.65,363.51c-0.46-0.19-0.85-0.45-1.14-0.79l0.75-1.01c0.57,0.55,1.14,0.83,1.73,0.83
		c0.32,0,0.58-0.06,0.79-0.18s0.31-0.31,0.31-0.55c0-0.26-0.11-0.45-0.32-0.58c-0.21-0.13-0.45-0.23-0.71-0.31s-0.43-0.13-0.5-0.15
		c-0.59-0.18-1.02-0.45-1.31-0.79s-0.43-0.75-0.43-1.22c0-0.37,0.09-0.72,0.28-1.05s0.47-0.59,0.85-0.79s0.84-0.3,1.38-0.3
		c0.51,0,0.96,0.06,1.34,0.18s0.73,0.3,1.06,0.56l-0.69,1.07c-0.19-0.18-0.42-0.33-0.7-0.43c-0.27-0.11-0.52-0.16-0.74-0.16
		c-0.28,0-0.51,0.06-0.69,0.19s-0.27,0.29-0.27,0.5c-0.01,0.25,0.08,0.43,0.27,0.55c0.19,0.12,0.5,0.25,0.93,0.39
		c0.18,0.05,0.3,0.09,0.35,0.11c0.53,0.17,0.95,0.41,1.25,0.71s0.45,0.7,0.45,1.19c0,0.66-0.24,1.21-0.71,1.66
		c-0.47,0.44-1.15,0.66-2.04,0.66C98.6,363.79,98.11,363.7,97.65,363.51z"/>
	<path class="st0" d="M58.36,377.02c0.51,0.3,0.91,0.73,1.2,1.28s0.43,1.2,0.43,1.94c0,0.73-0.16,1.36-0.47,1.9
		s-0.75,0.96-1.31,1.25s-1.19,0.43-1.9,0.43c-0.45,0-0.88-0.09-1.3-0.27s-0.76-0.43-1.02-0.74v4.08H52.2v-10.14h1.55l0.16,1.01
		c0.35-0.36,0.76-0.65,1.22-0.86c0.46-0.21,0.97-0.32,1.51-0.32C57.28,376.58,57.85,376.73,58.36,377.02z M57.06,382.12
		c0.34-0.19,0.61-0.44,0.81-0.76s0.3-0.68,0.3-1.09c0-0.63-0.2-1.15-0.6-1.56c-0.4-0.41-0.89-0.62-1.48-0.62
		c-0.52,0-0.96,0.13-1.32,0.38s-0.62,0.61-0.78,1.07v1.36c0.11,0.44,0.34,0.79,0.7,1.07s0.78,0.42,1.27,0.42
		C56.35,382.4,56.72,382.31,57.06,382.12z"/>
	<path class="st0" d="M64.39,377.47c0.33-0.29,0.67-0.51,1.02-0.66s0.64-0.23,0.87-0.23l-0.08,1.79c-0.49-0.04-0.93,0.05-1.31,0.26
		s-0.68,0.52-0.9,0.9c-0.21,0.38-0.32,0.78-0.32,1.21v2.91h-1.79v-6.77h1.62l0.13,1.57C63.8,378.09,64.06,377.76,64.39,377.47z"/>
	<path class="st0" d="M67.74,378.35c0.33-0.55,0.78-0.99,1.35-1.3s1.23-0.47,1.97-0.47s1.39,0.16,1.96,0.47s1.01,0.75,1.32,1.3
		s0.46,1.17,0.46,1.85s-0.15,1.3-0.46,1.85c-0.31,0.55-0.75,0.98-1.32,1.3c-0.57,0.32-1.23,0.48-1.98,0.48
		c-0.73,0-1.38-0.15-1.95-0.44c-0.58-0.29-1.03-0.71-1.35-1.26c-0.33-0.55-0.49-1.19-0.49-1.93
		C67.26,379.52,67.42,378.91,67.74,378.35z M69.62,381.74c0.37,0.41,0.84,0.62,1.39,0.62c0.58,0,1.05-0.2,1.42-0.61
		c0.37-0.41,0.55-0.92,0.55-1.54s-0.18-1.13-0.55-1.54s-0.84-0.62-1.42-0.62c-0.55,0-1.02,0.21-1.39,0.63s-0.56,0.93-0.56,1.53
		C69.06,380.82,69.25,381.33,69.62,381.74z"/>
	<path class="st0" d="M83.91,371.17v12.48h-1.79v-0.91c-0.75,0.73-1.63,1.09-2.66,1.09c-0.63,0-1.2-0.15-1.7-0.45
		c-0.51-0.3-0.9-0.72-1.19-1.28c-0.29-0.55-0.43-1.2-0.43-1.94s0.15-1.38,0.46-1.92s0.73-0.96,1.26-1.24
		c0.54-0.28,1.15-0.42,1.83-0.42c0.49,0,0.96,0.09,1.39,0.28s0.79,0.44,1.06,0.76v-6.45L83.91,371.17L83.91,371.17z M81.35,381.92
		c0.36-0.26,0.62-0.61,0.77-1.07v-1.44c-0.13-0.42-0.38-0.76-0.76-1.02c-0.38-0.27-0.82-0.4-1.32-0.4c-0.37,0-0.72,0.09-1.04,0.28
		s-0.58,0.44-0.77,0.77c-0.19,0.33-0.29,0.69-0.29,1.1s0.1,0.77,0.29,1.1c0.19,0.33,0.45,0.59,0.77,0.78s0.67,0.29,1.04,0.29
		C80.55,382.3,80.99,382.18,81.35,381.92z"/>
	<path class="st0" d="M92.89,376.88v6.77h-1.62l-0.11-1.22c-0.23,0.46-0.58,0.82-1.04,1.1c-0.46,0.27-0.98,0.41-1.57,0.41
		c-0.62,0-1.13-0.19-1.54-0.57s-0.62-0.87-0.63-1.46v-5.02h1.79v4.38c0.03,0.75,0.4,1.13,1.1,1.14c0.52,0,0.96-0.24,1.3-0.72
		c0.35-0.48,0.52-1.08,0.52-1.81v-2.99h1.8V376.88z"/>
	<path class="st0" d="M99.87,383.61c-0.43,0.14-0.87,0.22-1.3,0.22c-0.75,0-1.41-0.14-1.98-0.43c-0.57-0.29-1.01-0.7-1.32-1.24
		c-0.31-0.54-0.46-1.17-0.46-1.9c0-0.71,0.17-1.34,0.5-1.88s0.77-0.95,1.32-1.24c0.55-0.29,1.14-0.43,1.77-0.43
		c1.07,0,1.95,0.29,2.64,0.86l-0.9,1.17c-0.2-0.16-0.44-0.3-0.71-0.41c-0.27-0.11-0.56-0.17-0.87-0.17c-0.54,0-1.01,0.2-1.38,0.6
		c-0.38,0.4-0.57,0.9-0.57,1.5s0.2,1.1,0.6,1.5s0.91,0.6,1.53,0.6c0.53,0,0.98-0.15,1.34-0.45l0.9,1.12
		C100.67,383.27,100.3,383.46,99.87,383.61z"/>
	<path class="st0" d="M105.25,373.9v2.98h1.76v1.41h-1.76v5.36h-1.79v-5.36h-1.17v-1.41h1.17v-2.98H105.25z"/>
	<path class="st0" d="M109.33,383.51c-0.46-0.19-0.85-0.45-1.14-0.79l0.75-1.01c0.57,0.55,1.14,0.83,1.73,0.83
		c0.32,0,0.58-0.06,0.79-0.18s0.31-0.31,0.31-0.55c0-0.26-0.11-0.45-0.32-0.58c-0.21-0.13-0.45-0.23-0.71-0.31s-0.43-0.13-0.5-0.15
		c-0.59-0.18-1.02-0.45-1.31-0.79c-0.29-0.35-0.43-0.75-0.43-1.22c0-0.37,0.09-0.72,0.28-1.05s0.47-0.59,0.85-0.79
		s0.84-0.3,1.38-0.3c0.51,0,0.96,0.06,1.34,0.18s0.73,0.3,1.06,0.56l-0.69,1.07c-0.19-0.18-0.42-0.33-0.7-0.43
		c-0.27-0.11-0.52-0.16-0.74-0.16c-0.28,0-0.51,0.06-0.69,0.19s-0.27,0.29-0.27,0.5c-0.01,0.25,0.08,0.43,0.27,0.55
		c0.19,0.12,0.5,0.25,0.93,0.39c0.18,0.05,0.3,0.09,0.35,0.11c0.53,0.17,0.95,0.41,1.25,0.71s0.45,0.7,0.45,1.19
		c0,0.66-0.24,1.21-0.71,1.66c-0.47,0.44-1.15,0.66-2.04,0.66C110.28,383.79,109.79,383.7,109.33,383.51z"/>
</g>
</svg>
