<?xml version="1.0" encoding="utf-8"?>
<!-- Generator: Adobe Illustrator 23.0.0, SVG Export Plug-In . SVG Version: 6.00 Build 0)  -->
<svg version="1.1" id="Layer_1" xmlns="http://www.w3.org/2000/svg" xmlns:xlink="http://www.w3.org/1999/xlink" x="0px" y="0px"
	 viewBox="0 0 160 600" style="enable-background:new 0 0 160 600;" xml:space="preserve">
<style type="text/css">
	.st0{fill:#768961;}
</style>
<g>
	<path class="st0" d="M63.5,168.15c0.89,0.8,1.33,1.89,1.33,3.27c0,0.79-0.15,1.53-0.46,2.22s-0.8,1.26-1.49,1.7
		c-0.69,0.44-1.58,0.67-2.67,0.67h-1.87v4.19h-2.61v-13.25h4.01C61.36,166.95,62.62,167.35,63.5,168.15z M61.38,173.14
		c0.3-0.22,0.52-0.48,0.65-0.78s0.2-0.59,0.2-0.86c0-0.47-0.14-0.92-0.41-1.36s-0.81-0.66-1.6-0.66h-1.87v4h1.85
		C60.68,173.47,61.08,173.36,61.38,173.14z"/>
	<path class="st0" d="M69.28,166v14.2h-2.52V166H69.28z"/>
	<path class="st0" d="M79.79,172.34v7.87H77.5l-0.18-1.26c-0.28,0.5-0.66,0.9-1.16,1.2s-1.08,0.44-1.75,0.44
		c-0.72,0-1.32-0.22-1.8-0.67c-0.48-0.44-0.73-1.01-0.74-1.69v-5.89h2.52v4.95c0.04,0.77,0.39,1.15,1.06,1.15
		c0.55,0,0.99-0.27,1.32-0.81s0.5-1.24,0.5-2.09v-3.2H79.79z"/>
	<path class="st0" d="M83.12,180.02c-0.56-0.23-1.03-0.55-1.4-0.95l1.04-1.39c0.7,0.65,1.35,0.97,1.96,0.97
		c0.32,0,0.58-0.05,0.78-0.15c0.2-0.1,0.3-0.25,0.3-0.46c0-0.24-0.11-0.42-0.34-0.55c-0.23-0.13-0.48-0.23-0.76-0.31
		s-0.47-0.14-0.57-0.16c-0.68-0.22-1.19-0.54-1.53-0.96c-0.34-0.43-0.5-0.92-0.5-1.47c0-0.42,0.11-0.83,0.33-1.23
		s0.57-0.73,1.04-0.99s1.05-0.39,1.75-0.39c0.65,0,1.2,0.07,1.66,0.2s0.89,0.35,1.31,0.65l-0.95,1.48c-0.24-0.19-0.51-0.35-0.8-0.48
		s-0.56-0.19-0.8-0.19c-0.29,0-0.52,0.06-0.7,0.18s-0.27,0.26-0.27,0.43c-0.01,0.25,0.09,0.44,0.31,0.57s0.57,0.26,1.04,0.39
		c0.07,0.02,0.15,0.05,0.22,0.07c0.08,0.02,0.16,0.05,0.24,0.07c1.24,0.41,1.85,1.15,1.85,2.23c0,0.5-0.13,0.97-0.38,1.39
		s-0.63,0.76-1.14,1.02s-1.13,0.39-1.86,0.39C84.29,180.36,83.69,180.25,83.12,180.02z"/>
	<path class="st0" d="M104.74,172.34v7.87h-2.52v-0.97c-0.76,0.79-1.63,1.19-2.63,1.19c-1.16,0-2.11-0.35-2.83-1.04
		c-0.73-0.7-1.09-1.73-1.09-3.1c0-0.86,0.18-1.62,0.53-2.28c0.35-0.65,0.83-1.16,1.41-1.52c0.59-0.36,1.22-0.54,1.89-0.54
		c0.7,0,1.25,0.11,1.66,0.32s0.77,0.51,1.08,0.89l0.16-0.81h2.34V172.34z M102.22,177.18v-1.93c-0.14-0.38-0.39-0.69-0.75-0.92
		c-0.35-0.23-0.77-0.34-1.25-0.34c-0.55,0-1.02,0.2-1.41,0.61c-0.39,0.41-0.58,0.92-0.58,1.55c0,0.41,0.1,0.78,0.29,1.13
		c0.19,0.34,0.45,0.61,0.76,0.8c0.32,0.19,0.66,0.29,1.04,0.29C101.19,178.37,101.83,177.97,102.22,177.18z"/>
	<path class="st0" d="M56.92,201.17c-0.52,0.17-1.04,0.25-1.54,0.25c-1.37,0-2.45-0.37-3.25-1.11s-1.2-1.75-1.2-3.05
		c0-0.84,0.2-1.58,0.58-2.21c0.39-0.63,0.9-1.11,1.54-1.44s1.32-0.5,2.05-0.5c1.31,0,2.37,0.35,3.19,1.04l-1.22,1.62
		c-0.52-0.41-1.09-0.61-1.73-0.61c-0.53,0-0.97,0.2-1.34,0.59s-0.55,0.89-0.55,1.49s0.2,1.1,0.59,1.5c0.4,0.4,0.91,0.6,1.55,0.6
		c0.55,0,1.01-0.15,1.37-0.45l1.26,1.58C57.87,200.78,57.44,201,56.92,201.17z"/>
	<path class="st0" d="M67.5,193.62c0.5,0.44,0.75,1.01,0.77,1.69v5.89h-2.52v-4.95c-0.04-0.77-0.42-1.15-1.15-1.15
		c-0.58,0-1.04,0.27-1.39,0.81s-0.52,1.24-0.52,2.09v3.2h-2.52V187h2.47v7.58c0.29-0.5,0.69-0.9,1.2-1.19
		c0.51-0.29,1.11-0.43,1.81-0.43C66.38,192.96,67,193.18,67.5,193.62z"/>
	<path class="st0" d="M79.32,193.34v7.87H76.8v-0.97c-0.76,0.79-1.63,1.19-2.63,1.19c-1.16,0-2.11-0.35-2.83-1.04
		c-0.73-0.7-1.09-1.73-1.09-3.1c0-0.86,0.18-1.62,0.53-2.28c0.35-0.65,0.83-1.16,1.41-1.52c0.59-0.36,1.22-0.54,1.89-0.54
		c0.7,0,1.25,0.11,1.66,0.32s0.77,0.51,1.08,0.89l0.16-0.81h2.34V193.34z M76.8,198.18v-1.93c-0.14-0.38-0.39-0.69-0.75-0.92
		c-0.35-0.23-0.77-0.34-1.25-0.34c-0.55,0-1.02,0.2-1.41,0.61c-0.39,0.41-0.58,0.92-0.58,1.55c0,0.41,0.1,0.78,0.29,1.13
		c0.19,0.34,0.45,0.61,0.76,0.8c0.32,0.19,0.66,0.29,1.04,0.29C75.76,199.37,76.4,198.97,76.8,198.18z"/>
	<path class="st0" d="M85.27,194c0.38-0.34,0.76-0.6,1.16-0.78c0.4-0.19,0.71-0.28,0.94-0.28l-0.13,2.52
		c-0.07-0.01-0.17-0.02-0.31-0.02c-0.5,0-0.95,0.13-1.33,0.4c-0.38,0.26-0.68,0.6-0.88,1.02s-0.31,0.84-0.31,1.27v3.08h-2.5v-7.87
		h2.27l0.2,1.8C84.59,194.72,84.89,194.34,85.27,194z"/>
	<path class="st0" d="M89.66,189.64c0.28-0.25,0.6-0.37,0.96-0.37c0.35,0,0.66,0.12,0.94,0.37s0.41,0.55,0.41,0.91
		s-0.14,0.66-0.41,0.9c-0.28,0.24-0.59,0.36-0.94,0.36c-0.36,0-0.68-0.12-0.96-0.36s-0.42-0.54-0.42-0.9
		C89.23,190.19,89.38,189.88,89.66,189.64z M91.81,193.34v7.87h-2.52v-7.87H91.81z"/>
	<path class="st0" d="M97.66,189.88v3.42h1.91v1.96h-1.91v5.94h-2.52v-5.94h-1.22v-1.96h1.22v-3.42H97.66z"/>
	<path class="st0" d="M109.63,193.34l-5.08,11.65h-2.43l1.89-4.19l-3.64-7.45h2.83l2.07,4.64l2.09-4.64L109.63,193.34L109.63,193.34
		z"/>
	<path class="st0" d="M49.72,215c0.38-0.34,0.76-0.6,1.16-0.78c0.4-0.19,0.71-0.28,0.94-0.28l-0.13,2.52
		c-0.07-0.01-0.17-0.02-0.31-0.02c-0.5,0-0.95,0.13-1.33,0.4c-0.38,0.26-0.68,0.6-0.88,1.02s-0.31,0.84-0.31,1.27v3.08h-2.5v-7.87
		h2.27l0.2,1.8C49.05,215.72,49.35,215.34,49.72,215z"/>
	<path class="st0" d="M61.94,214.34v7.87h-2.52v-0.97c-0.76,0.79-1.63,1.19-2.63,1.19c-1.16,0-2.11-0.35-2.83-1.04
		c-0.73-0.7-1.09-1.73-1.09-3.1c0-0.86,0.18-1.62,0.53-2.28c0.35-0.65,0.83-1.16,1.41-1.52c0.59-0.36,1.22-0.54,1.89-0.54
		c0.7,0,1.25,0.11,1.66,0.32s0.77,0.51,1.08,0.89l0.16-0.81h2.34V214.34z M59.42,219.18v-1.93c-0.14-0.38-0.39-0.69-0.75-0.92
		c-0.35-0.23-0.77-0.34-1.25-0.34c-0.55,0-1.02,0.2-1.41,0.61s-0.58,0.92-0.58,1.55c0,0.41,0.1,0.78,0.29,1.13
		c0.19,0.34,0.45,0.61,0.76,0.8c0.32,0.19,0.66,0.29,1.04,0.29C58.38,220.37,59.02,219.97,59.42,219.18z"/>
	<path class="st0" d="M73.44,214.3h2.38v2.23h-2.38v5.67h-2.52v-5.67h-3.11v5.67h-2.52v-5.67h-1.33v-2.23h1.33v-2.74
		c0-1.06,0.3-1.9,0.91-2.55c0.61-0.64,1.46-0.96,2.57-0.96c0.36,0,0.74,0.05,1.15,0.16s0.76,0.27,1.06,0.49l-1.06,1.82
		c-0.22-0.26-0.51-0.4-0.88-0.4s-0.67,0.13-0.89,0.38s-0.33,0.63-0.33,1.13v2.66h3.11v-2.74c0-1.06,0.3-1.9,0.91-2.55
		c0.61-0.64,1.46-0.96,2.57-0.96c0.36,0,0.74,0.05,1.15,0.16s0.76,0.27,1.06,0.49l-1.06,1.82c-0.22-0.26-0.51-0.4-0.88-0.4
		s-0.67,0.13-0.89,0.38s-0.33,0.63-0.33,1.13v2.68H73.44z M80.51,208v14.2h-2.52V208H80.51z"/>
	<path class="st0" d="M88.59,219.75l1.12,1.87c-0.43,0.24-0.89,0.43-1.37,0.58c-0.48,0.14-0.94,0.22-1.37,0.22
		c-0.94,0-1.74-0.18-2.42-0.53s-1.19-0.85-1.54-1.49s-0.52-1.38-0.52-2.21c0-0.77,0.2-1.48,0.6-2.12c0.4-0.65,0.95-1.16,1.65-1.54
		c0.7-0.38,1.46-0.57,2.29-0.57c1.13,0,2.05,0.33,2.78,0.99c0.73,0.66,1.2,1.6,1.41,2.83l-5.76,1.84c0.38,0.44,0.91,0.67,1.57,0.67
		C87.53,220.28,88.05,220.1,88.59,219.75z M85.48,216.5c-0.34,0.38-0.5,0.9-0.5,1.55v0.16l3.46-1.17c-0.25-0.74-0.79-1.12-1.6-1.12
		C86.27,215.92,85.82,216.11,85.48,216.5z"/>
	<path class="st0" d="M102.17,210.88v3.42h1.91v1.96h-1.91v5.94h-2.52v-5.94h-1.22v-1.96h1.22v-3.42H102.17z"/>
	<path class="st0" d="M105.96,216.01c0.38-0.64,0.91-1.14,1.6-1.5c0.69-0.37,1.47-0.55,2.35-0.55s1.65,0.18,2.31,0.55
		s1.18,0.87,1.54,1.5c0.36,0.64,0.54,1.36,0.54,2.16s-0.18,1.53-0.54,2.18s-0.87,1.16-1.54,1.52s-1.45,0.55-2.35,0.55
		c-0.88,0-1.65-0.17-2.33-0.51s-1.21-0.83-1.58-1.47c-0.38-0.64-0.57-1.39-0.57-2.27C105.39,217.37,105.58,216.65,105.96,216.01z
		 M108.47,219.75c0.36,0.41,0.82,0.62,1.37,0.62c0.58,0,1.04-0.2,1.4-0.61c0.35-0.41,0.53-0.93,0.53-1.57
		c0-0.64-0.18-1.16-0.53-1.57s-0.82-0.61-1.4-0.61c-0.55,0-1.01,0.21-1.37,0.62c-0.36,0.41-0.54,0.93-0.54,1.56
		C107.93,218.81,108.11,219.33,108.47,219.75z"/>
	<path class="st0" d="M55.84,243.78l-3.15-7.85l-3.67,7.88l-5.33-13.77h3.06l2.61,7.67l2.02-5.06l-1.04-2.61h2.59l2.97,7.36
		l2.25-7.36h2.81L55.84,243.78z"/>
	<path class="st0" d="M65.85,229.95v13.25h-2.61v-13.25H65.85z"/>
	<path class="st0" d="M81.21,229.95v13.79h-0.07l-9.27-8.37l0.05,7.83h-2.65v-13.77h0.11l9.25,8.5l-0.05-7.97L81.21,229.95
		L81.21,229.95z"/>
	<path class="st0" d="M90.02,237.01c0.38-0.64,0.91-1.14,1.6-1.5c0.69-0.37,1.47-0.55,2.35-0.55s1.65,0.18,2.31,0.55
		s1.18,0.87,1.54,1.5c0.36,0.64,0.54,1.36,0.54,2.16s-0.18,1.53-0.54,2.18s-0.87,1.16-1.54,1.52s-1.45,0.55-2.35,0.55
		c-0.88,0-1.65-0.17-2.33-0.51s-1.21-0.83-1.58-1.47c-0.38-0.64-0.57-1.39-0.57-2.27C89.45,238.37,89.64,237.65,90.02,237.01z
		 M92.53,240.75c0.36,0.41,0.82,0.62,1.37,0.62c0.58,0,1.04-0.2,1.4-0.61c0.35-0.41,0.53-0.93,0.53-1.57c0-0.64-0.18-1.16-0.53-1.57
		s-0.82-0.61-1.4-0.61c-0.55,0-1.01,0.21-1.37,0.62c-0.36,0.41-0.54,0.93-0.54,1.56C91.99,239.81,92.17,240.33,92.53,240.75z"/>
	<path class="st0" d="M108.26,235.34v7.87h-2.29l-0.18-1.26c-0.28,0.5-0.66,0.9-1.16,1.2s-1.08,0.44-1.75,0.44
		c-0.72,0-1.32-0.22-1.8-0.67c-0.48-0.44-0.73-1.01-0.74-1.69v-5.89h2.52v4.95c0.04,0.77,0.39,1.15,1.06,1.15
		c0.55,0,0.99-0.27,1.32-0.81s0.5-1.24,0.5-2.09v-3.2H108.26z"/>
	<path class="st0" d="M114.21,236c0.38-0.34,0.76-0.6,1.16-0.78c0.4-0.19,0.71-0.28,0.94-0.28l-0.13,2.52
		c-0.07-0.01-0.17-0.02-0.31-0.02c-0.5,0-0.95,0.13-1.33,0.4c-0.38,0.26-0.68,0.6-0.88,1.02s-0.31,0.84-0.31,1.27v3.08h-2.5v-7.87
		h2.27l0.2,1.8C113.53,236.72,113.83,236.34,114.21,236z"/>
</g>
</svg>
