<?xml version="1.0" encoding="utf-8"?>
<!-- Generator: Adobe Illustrator 23.0.0, SVG Export Plug-In . SVG Version: 6.00 Build 0)  -->
<svg version="1.1" id="Layer_1" xmlns="http://www.w3.org/2000/svg" xmlns:xlink="http://www.w3.org/1999/xlink" x="0px" y="0px"
	 viewBox="0 0 160 600" style="enable-background:new 0 0 160 600;" xml:space="preserve">
<style type="text/css">
	.st0{fill:#FFFFFF;}
	.st1{fill:#768961;}
</style>
<g>
	<rect x="33" y="436" class="st0" width="94" height="52"/>
	<g>
		<path class="st1" d="M64.8,448.3v7.4h-2.2l-0.2-1.2c-0.3,0.5-0.6,0.9-1.1,1.1s-1,0.4-1.7,0.4s-1.2-0.2-1.7-0.6s-0.7-1-0.7-1.6
			v-5.6h2.4v4.7c0,0.7,0.4,1.1,1,1.1c0.5,0,0.9-0.3,1.2-0.8s0.5-1.2,0.5-2v-3h2.5V448.3z"/>
		<path class="st1" d="M74.2,448.4c0.5,0.3,1,0.8,1.3,1.4s0.5,1.3,0.5,2.2c0,0.8-0.2,1.5-0.5,2.1s-0.8,1-1.4,1.4S72.8,456,72,456
			c-0.4,0-0.9-0.1-1.3-0.2c-0.4-0.2-0.8-0.4-1-0.7v4.3h-2.4v-11.2h2l0.2,0.9c0.9-0.7,1.9-1.1,2.9-1.1
			C73,447.9,73.7,448.1,74.2,448.4z M72.9,453.4c0.4-0.4,0.6-0.9,0.6-1.5s-0.2-1.1-0.6-1.5s-0.8-0.6-1.4-0.6c-0.5,0-0.9,0.1-1.2,0.3
			c-0.3,0.2-0.6,0.5-0.8,0.8v1.8c0.1,0.4,0.3,0.7,0.7,0.9c0.3,0.2,0.7,0.3,1.1,0.3C72,454,72.5,453.8,72.9,453.4z"/>
		<path class="st1" d="M86.4,445v3.2h1.8v1.9h-1.8v5.6H84v-5.6h-1.2v-1.9H84V445H86.4z"/>
		<path class="st1" d="M90,449.8c0.4-0.6,0.9-1.1,1.5-1.4s1.4-0.5,2.2-0.5c0.8,0,1.6,0.2,2.2,0.5s1.1,0.8,1.5,1.4
			c0.3,0.6,0.5,1.3,0.5,2c0,0.8-0.2,1.4-0.5,2.1c-0.3,0.6-0.8,1.1-1.5,1.4c-0.6,0.3-1.4,0.5-2.2,0.5c-0.8,0-1.6-0.2-2.2-0.5
			s-1.1-0.8-1.5-1.4s-0.5-1.3-0.5-2.1C89.5,451.1,89.7,450.4,90,449.8z M92.4,453.4c0.3,0.4,0.8,0.6,1.3,0.6s1-0.2,1.3-0.6
			s0.5-0.9,0.5-1.5s-0.2-1.1-0.5-1.5s-0.8-0.6-1.3-0.6s-1,0.2-1.3,0.6s-0.5,0.9-0.5,1.5S92,453,92.4,453.4z"/>
		<path class="st1" d="M51.7,474.3v2.4h-8.1l0.9-0.9c1.1-1.1,1.9-2,2.5-2.6c0.6-0.7,1.1-1.3,1.5-2s0.6-1.3,0.6-1.9
			c0-0.5-0.2-0.9-0.5-1.1c-0.3-0.2-0.7-0.4-1.3-0.4c-0.5,0-0.9,0.1-1.2,0.4c-0.3,0.3-0.4,0.6-0.4,0.9c0,0.7,0.2,1.2,0.7,1.7
			l-1.5,1.4c-0.3-0.1-0.6-0.4-0.8-0.8s-0.4-0.8-0.5-1.2c-0.1-0.4-0.2-0.8-0.2-1.1c0-0.6,0.2-1.2,0.5-1.8c0.4-0.6,0.9-1,1.5-1.4
			c0.7-0.4,1.5-0.5,2.4-0.5c0.7,0,1.4,0.2,2,0.5c0.6,0.3,1,0.8,1.4,1.4c0.3,0.6,0.5,1.2,0.5,1.8c0,0.6-0.1,1.2-0.3,1.8
			c-0.2,0.6-0.5,1.1-0.9,1.6c-0.4,0.5-0.8,1.1-1.4,1.9h2.6V474.3z"/>
		<path class="st1" d="M55.5,476.1c-0.7-0.4-1.3-1.1-1.7-1.9c-0.4-0.9-0.6-1.9-0.6-3.2c0-3.8,1.6-5.7,4.7-5.7c0.9,0,1.7,0.2,2.4,0.6
			s1.3,1.1,1.7,1.9c0.4,0.9,0.6,1.9,0.6,3.2c0,1.3-0.2,2.4-0.6,3.2c-0.4,0.9-1,1.5-1.7,1.9s-1.5,0.6-2.4,0.6S56.2,476.5,55.5,476.1z
			 M59.6,473.4c0.3-0.6,0.5-1.4,0.5-2.5c0-2.2-0.7-3.3-2.2-3.3c-0.8,0-1.3,0.3-1.7,0.9c-0.3,0.6-0.5,1.4-0.5,2.4s0.2,1.9,0.5,2.5
			s0.9,0.9,1.7,0.9C58.7,474.3,59.3,474,59.6,473.4z"/>
		<path class="st1" d="M64.6,470.8c-0.5-0.6-0.7-1.4-0.7-2.3c0-1,0.2-1.7,0.7-2.3c0.5-0.6,1.1-0.9,2-0.9s1.6,0.3,2,0.9
			c0.5,0.6,0.7,1.4,0.7,2.3c0,1-0.2,1.7-0.7,2.3c-0.5,0.6-1.1,0.9-2,0.9C65.7,471.7,65,471.4,64.6,470.8z M67.4,476.7h-2.3l8.2-11.4
			h2.4L67.4,476.7z M66.1,469.6c0.1,0.3,0.3,0.4,0.5,0.4s0.4-0.1,0.5-0.4s0.1-0.7,0.1-1.2c0-0.6,0-0.9-0.1-1.2s-0.3-0.3-0.5-0.3
			c-0.3,0-0.4,0.1-0.5,0.3c-0.1,0.2-0.1,0.6-0.1,1.2C65.9,469,66,469.4,66.1,469.6z M71.7,476.3c-0.5-0.6-0.7-1.4-0.7-2.3
			s0.2-1.7,0.7-2.3c0.5-0.6,1.1-0.9,2-0.9c0.9,0,1.6,0.3,2,0.9c0.5,0.6,0.7,1.4,0.7,2.3c0,1-0.2,1.7-0.7,2.3c-0.5,0.6-1.1,0.9-2,0.9
			C72.8,477.2,72.1,476.9,71.7,476.3z M73.2,475.1c0.1,0.3,0.3,0.4,0.5,0.4c0.2,0,0.4-0.1,0.5-0.4c0.1-0.3,0.1-0.7,0.1-1.2
			c0-0.6,0-0.9-0.1-1.2c-0.1-0.2-0.3-0.3-0.5-0.3c-0.3,0-0.4,0.1-0.5,0.3c-0.1,0.2-0.1,0.6-0.1,1.2C73,474.4,73.1,474.8,73.2,475.1z
			"/>
		<path class="st1" d="M84.3,467.3c0.6-1,1.3-1.8,2.3-2.4s2-0.9,3.2-0.9c1.1,0,2.2,0.3,3.2,0.9s1.8,1.4,2.3,2.4c0.6,1,0.9,2,0.9,3.2
			s-0.3,2.2-0.9,3.2s-1.4,1.7-2.3,2.3c-1,0.6-2,0.9-3.2,0.9s-2.2-0.3-3.2-0.9s-1.7-1.3-2.3-2.3s-0.9-2-0.9-3.2
			S83.7,468.3,84.3,467.3z M86.5,472.5c0.3,0.6,0.8,1.1,1.4,1.5s1.3,0.5,2,0.5s1.3-0.2,1.9-0.5c0.6-0.4,1-0.8,1.4-1.4s0.5-1.3,0.5-2
			s-0.2-1.4-0.5-2s-0.8-1.1-1.4-1.5s-1.2-0.5-1.9-0.5c-0.7,0-1.4,0.2-1.9,0.5c-0.6,0.4-1,0.8-1.4,1.5c-0.3,0.6-0.5,1.3-0.5,2
			C86,471.2,86.1,471.8,86.5,472.5z"/>
		<path class="st1" d="M106.5,464.2v2.4h-5.4v2.8h4.6v2.4h-4.6v4.9h-2.5v-12.5L106.5,464.2L106.5,464.2z"/>
		<path class="st1" d="M116.7,464.2v2.4h-5.4v2.8h4.7v2.4h-4.6v4.9h-2.5v-12.5L116.7,464.2L116.7,464.2z"/>
	</g>
</g>
</svg>
