<?xml version="1.0" encoding="UTF-8"?><svg id="Layer_2" xmlns="http://www.w3.org/2000/svg" xmlns:xlink="http://www.w3.org/1999/xlink" viewBox="0 0 30.32 15.45"><defs><style>.cls-1,.cls-2{fill:none;}.cls-3{clip-path:url(#clippath);}.cls-4{fill:#fff;}.cls-5{fill:#ff3008;}.cls-6{fill:#ce2e19;}.cls-7{fill:#c5e8e9;}.cls-8{fill:#10322c;}.cls-9{fill:#221f20;}.cls-10{fill:#27346b;}.cls-11{clip-path:url(#clippath-1);}.cls-2{stroke:#27346b;stroke-miterlimit:10;stroke-width:.47px;}</style><clipPath id="clippath"><ellipse class="cls-1" cx="15.16" cy="7.72" rx="14.92" ry="7.49"/></clipPath><clipPath id="clippath-1"><ellipse class="cls-2" cx="15.16" cy="7.72" rx="14.92" ry="7.49"/></clipPath></defs><g id="Layer_3"><g><g><path class="cls-4" d="M12.87,13.03c-.53-4.24-.42-8.41,.31-12.67C5.89,.85,.27,3.98,.27,7.78c0,.71,.2,1.4,.56,2.05,2.61,1.73,6.59,2.84,11.9,3.2,.04,0,.08,0,.13,0Z"/><path class="cls-4" d="M.98,10.05s-.04-.06-.06-.09c.02,.03,.04,.06,.06,.09Z"/><path class="cls-5" d="M12.87,13.03c.85,.06,1.72,.09,2.64,.11,.18,0,.36,0,.53,0,.06,0,.11,0,.17,0-.54-4.29-.44-8.5,.31-12.81-.44-.02-.89-.03-1.34-.03-.68,0-1.34,.02-2,.07-.74,4.27-.84,8.44-.31,12.67Z"/><path class="cls-7" d="M16.57,15.17c6.63-.31,12-2.81,13.24-6.04-2.79,2.39-7.62,3.89-13.6,4,.09,.68,.19,1.36,.31,2.04,.02,0,.04,0,.06,0Z"/><path class="cls-7" d="M.83,9.82s.06,.09,.09,.14c-.03-.05-.06-.09-.08-.14,0,0,0,0,0,0Z"/><path class="cls-7" d="M1,10.1s-.02-.03-.03-.04c0,.01,.02,.03,.03,.04Z"/><path class="cls-7" d="M13.18,15.14c-.12-.71-.23-1.41-.31-2.11-.04,0-.08,0-.13,0-5.31-.36-9.29-1.47-11.9-3.2,.03,.05,.05,.09,.08,.14,.02,.03,.04,.06,.06,.09,0,.01,.02,.03,.03,.04,1.78,2.67,6.47,4.67,12.18,5.05Z"/><path class="cls-6" d="M15.5,13.14c-.91-.02-1.79-.05-2.64-.11,.09,.7,.19,1.4,.31,2.11,.65,.04,1.31,.07,1.98,.07,.37,0,.75,0,1.11-.02,.08,0,.16,0,.24,0-.12-.68-.22-1.36-.31-2.04-.06,0-.11,0-.17,0-.18,0-.36,0-.53,0Z"/></g><g><path class="cls-4" d="M16.21,13.14c5.67-.1,10.31-1.45,13.15-3.63H15.9c.05,1.21,.15,2.42,.3,3.63Z"/><path class="cls-4" d="M16.52,.32c-.34,1.97-.55,3.91-.62,5.85h13.84C28.36,3.02,23.05,.62,16.52,.32Z"/><path class="cls-4" d="M16.57,15.17s-.04,0-.06,0c-.08,0-.16,0-.24,0-.37,.01-.74,.02-1.11,.02-.67,0-1.33-.02-1.98-.07-5.71-.38-10.4-2.38-12.18-5.05,1.94,3,7.55,5.17,14.17,5.17,7.05,0,12.96-2.46,14.51-5.76h-.03c-1.48,3.05-6.69,5.37-13.08,5.67Z"/><path class="cls-5" d="M15.9,6.17H.53s-.41,.81-.35,1.64,.44,1.69,.44,1.69H15.9c-.05-1.11-.05-2.22,0-3.33Z"/><path class="cls-5" d="M29.36,9.5h.29c.06-.12,.11-.24,.16-.36-.14,.12-.29,.24-.45,.36Z"/><path class="cls-5" d="M29.73,6.17H15.9c-.04,1.11-.04,2.22,0,3.33h13.46c.15-.12,.31-.24,.45-.36-.05,.12-.1,.24-.16,.36h.03c.26-.55,.4-1.13,.4-1.72,0-.55-.12-1.09-.34-1.61Z"/></g><path class="cls-9" d="M29.92,7.27c-.39-2.62-4.58-3.47-6.75-4.06,2.23,.56,6.49,1.34,6.9,4.06,0,0-.15,0-.15,0h0Z"/><path class="cls-10" d="M15.16,15.38C6.83,15.38,.05,11.95,.05,7.72S6.83,.06,15.16,.06s15.1,3.44,15.1,7.66-6.78,7.66-15.1,7.66ZM15.16,.41C7.03,.41,.42,3.69,.42,7.72s6.61,7.31,14.74,7.31,14.74-3.28,14.74-7.31S23.28,.41,15.16,.41Z"/><g class="cls-3"><g><path class="cls-10" d="M10.19,2.51c-1.24-.72-4.49-1.27-6.54-.59-1.06,.35-2.21,1-3.29,1.76,4.9-1.4,6.39-1.26,9.83-1.17Z"/><path class="cls-10" d="M-.53,4.33c-3.37,2.61-5.17,6.42-1.2,3.03C2.48,3.77,7.07,3.14,10.19,2.75c-3.54,0-5.36,0-10.72,1.59Z"/></g></g><g><g class="cls-11"><polygon class="cls-8" points="15.22 13.16 15.22 13.16 15.22 13.16 15.22 13.16"/><path class="cls-10" d="M27.7,12.21c3.79-2.52,6.39-5.71,1.62-2.84-5.21,3.12-10.41,3.7-12.78,3.79,2.62,.35,5.34,.33,11.16-.95Z"/><path class="cls-10" d="M20.46,13.72c-1.81,.08-2.19,.09-3.83-.17,1.26,.86,4.19,1.46,6.43,.9,1.16-.29,2.43-.89,3.64-1.62-2.58,.53-4.54,.8-6.24,.88Z"/></g><ellipse class="cls-2" cx="15.16" cy="7.72" rx="14.92" ry="7.49"/></g></g></g></svg>