<?xml version="1.0" encoding="UTF-8"?><svg id="Layer_2" xmlns="http://www.w3.org/2000/svg" viewBox="0 0 168.58 11.85"><defs><style>.cls-1{fill:#27346b;}</style></defs><g id="Layer_3"><g><path class="cls-1" d="M4.24,.32h3.36l4.24,11.21h-3.28l-.8-2.4h-3.68l-.8,2.4H0L4.24,.32Zm2.72,6.32l-1.01-3.2h-.06l-1.01,3.2h2.08Z"/><path class="cls-1" d="M16.56,.32h3.04V8.64h4.88v2.88h-7.92V.32Z"/><path class="cls-1" d="M31.55,0c3.58,0,6.24,2.64,6.24,5.92s-2.66,5.92-6.24,5.92-6.24-2.64-6.24-5.92S27.96,0,31.55,0Zm0,9.04c1.75,0,3.12-1.36,3.12-3.12s-1.38-3.12-3.12-3.12-3.12,1.38-3.12,3.12,1.36,3.12,3.12,3.12Z"/><path class="cls-1" d="M39.69,.32h2.64l4.8,6.16V.32h3.04V11.53h-2.64l-4.8-6.16v6.16h-3.04V.32Z"/><path class="cls-1" d="M52.74,.32h4.16c3.6,0,6.08,2.48,6.08,5.6s-2.48,5.6-6.08,5.6h-4.16V.32Zm4.16,8.48c1.74,0,2.96-1.22,2.96-2.88s-1.22-2.88-2.96-2.88h-1.12v5.76h1.12Z"/><path class="cls-1" d="M70.48,0c3.58,0,6.24,2.64,6.24,5.92s-2.66,5.92-6.24,5.92-6.24-2.64-6.24-5.92,2.66-5.92,6.24-5.92Zm0,9.04c1.75,0,3.12-1.36,3.12-3.12s-1.38-3.12-3.12-3.12-3.12,1.38-3.12,3.12,1.36,3.12,3.12,3.12Z"/><path class="cls-1" d="M78.62,.32h2.64l4.8,6.16V.32h3.04V11.53h-2.64l-4.8-6.16v6.16h-3.04V.32Z"/><path class="cls-1" d="M95.18,.32h3.04V4.4h4.08V.32h3.04V11.53h-3.04V7.28h-4.08v4.24h-3.04V.32Z"/><path class="cls-1" d="M113.48,0c3.58,0,6.24,2.64,6.24,5.92s-2.66,5.92-6.24,5.92-6.24-2.64-6.24-5.92,2.66-5.92,6.24-5.92Zm0,9.04c1.75,0,3.12-1.36,3.12-3.12s-1.38-3.12-3.12-3.12-3.12,1.38-3.12,3.12,1.36,3.12,3.12,3.12Z"/><path class="cls-1" d="M121.61,.32h3.04V8.64h4.88v2.88h-7.92V.32Z"/><path class="cls-1" d="M130.94,.32h3.04V11.53h-3.04V.32Z"/><path class="cls-1" d="M136.52,.32h4.16c3.6,0,6.08,2.48,6.08,5.6s-2.48,5.6-6.08,5.6h-4.16V.32Zm4.16,8.48c1.74,0,2.96-1.22,2.96-2.88s-1.22-2.88-2.96-2.88h-1.12v5.76h1.12Z"/><path class="cls-1" d="M151.1,.32h3.36l4.24,11.21h-3.28l-.8-2.4h-3.68l-.8,2.4h-3.28L151.1,.32Zm2.72,6.32l-1.01-3.2h-.06l-1.01,3.2h2.08Z"/><path class="cls-1" d="M161.54,7.52l-4-7.2h3.36l2.13,4.4h.06l2.13-4.4h3.36l-4,7.2v4h-3.04V7.52Z"/></g></g></svg>