<?xml version="1.0" encoding="utf-8"?>
<!-- Generator: Adobe Illustrator 26.5.0, SVG Export Plug-In . SVG Version: 6.00 Build 0)  -->
<svg version="1.1" id="Layer_3" xmlns="http://www.w3.org/2000/svg" xmlns:xlink="http://www.w3.org/1999/xlink" x="0px" y="0px"
	 viewBox="0 0 414 50" style="enable-background:new 0 0 414 50;" xml:space="preserve">
<style type="text/css">
	.st0{fill:#273B6B;}
</style>
<g>
	<path class="st0" d="M155.2,35.3h0.6l1.6,2l1.6-2h0.6v4.2h-0.7v-3.1l-1.5,2l-1.5-2v3.1h-0.7V35.3z"/>
	<path class="st0" d="M160.9,35.3c0.2,0,0.4,0.2,0.4,0.4s-0.2,0.4-0.4,0.4s-0.4-0.2-0.4-0.4S160.7,35.3,160.9,35.3z M160.6,36.6h0.6
		v2.9h-0.6V36.6z"/>
	<path class="st0" d="M162.1,36.6h0.6V37c0.1-0.1,0.1-0.2,0.2-0.2c0.1-0.1,0.4-0.2,0.7-0.2c0.7,0,1.1,0.5,1.1,1.3v1.7h-0.6v-1.7
		c0-0.4-0.3-0.7-0.7-0.7c-0.4,0-0.8,0.3-0.8,0.8v1.6h-0.6L162.1,36.6L162.1,36.6z"/>
	<path class="st0" d="M168.1,36.5c0.8,0,1.5,0.7,1.5,1.5s-0.7,1.5-1.5,1.5s-1.5-0.7-1.5-1.5S167.3,36.5,168.1,36.5z M169,38
		c0-0.5-0.4-0.9-0.9-0.9s-0.9,0.4-0.9,0.9s0.4,0.9,0.9,0.9S169,38.6,169,38z"/>
	<path class="st0" d="M170.3,36.6h0.6V37c0.1-0.1,0.1-0.2,0.2-0.2c0.1-0.1,0.4-0.2,0.6-0.2h0.1v0.6h-0.1c0,0-0.1,0-0.2,0
		c-0.4,0-0.8,0.4-0.8,0.9v1.5h-0.6L170.3,36.6L170.3,36.6z"/>
	<path class="st0" d="M174.6,39.1c-0.1,0.1-0.1,0.2-0.2,0.2c-0.2,0.1-0.4,0.2-0.8,0.2c-0.7,0-1.4-0.6-1.4-1.5s0.6-1.5,1.4-1.5
		c0.3,0,0.6,0.1,0.8,0.2c0.1,0.1,0.2,0.2,0.2,0.2v-1.7h0.6v4.2h-0.6C174.6,39.5,174.6,39.1,174.6,39.1z M174.6,38
		c0-0.5-0.4-0.9-0.9-0.9s-0.9,0.4-0.9,0.9s0.4,0.9,0.9,0.9S174.6,38.6,174.6,38z"/>
	<path class="st0" d="M178.6,39c-0.1,0.1-0.2,0.2-0.3,0.3c-0.2,0.1-0.5,0.3-0.9,0.3c-0.8,0-1.5-0.7-1.5-1.5s0.7-1.5,1.5-1.5
		s1.4,0.6,1.4,1.4c0,0.1,0,0.2,0,0.2v0.1h-2.2c0.1,0.4,0.4,0.7,0.9,0.7c0.3,0,0.5-0.1,0.6-0.2c0.1,0,0.2-0.1,0.2-0.2
		C178.2,38.6,178.6,39,178.6,39z M178.1,37.7c-0.1-0.4-0.4-0.7-0.8-0.7c-0.5,0-0.7,0.3-0.8,0.7H178.1z"/>
	<path class="st0" d="M179.4,36.6h0.6V37c0.1-0.1,0.1-0.2,0.2-0.2c0.1-0.1,0.4-0.2,0.6-0.2h0.1v0.6h-0.1c0,0-0.1,0-0.2,0
		c-0.4,0-0.8,0.4-0.8,0.9v1.5h-0.6L179.4,36.6L179.4,36.6z"/>
	<path class="st0" d="M182.9,38.5c0.1,0.1,0.1,0.2,0.2,0.2c0.2,0.1,0.4,0.2,0.8,0.2c0.6,0,0.8-0.3,0.8-0.6c0-0.9-2.2-0.4-2.2-1.9
		c0-0.6,0.5-1,1.1-1.1v-0.6h0.6v0.6c0.3,0,0.6,0.2,0.8,0.3c0.1,0.1,0.2,0.1,0.3,0.2l-0.4,0.5c-0.1-0.1-0.1-0.1-0.2-0.2
		c-0.1-0.1-0.4-0.2-0.6-0.2c-0.5,0-0.8,0.3-0.8,0.6c0,0.9,2.2,0.4,2.2,1.9c0,0.6-0.5,1.1-1.2,1.2v0.6h-0.6v-0.6
		c-0.4,0-0.7-0.2-0.9-0.3c-0.1-0.1-0.2-0.2-0.3-0.3C182.5,38.9,182.9,38.5,182.9,38.5z"/>
	<path class="st0" d="M188.7,38.8v0.6h-2.8c0-1.9,2.2-1.9,2.2-3c0-0.4-0.3-0.7-0.8-0.7c-0.3,0-0.5,0.1-0.6,0.3
		c-0.1,0.1-0.1,0.2-0.2,0.3l-0.5-0.2c0.1-0.2,0.1-0.3,0.3-0.5c0.2-0.2,0.5-0.5,1.1-0.5c0.8,0,1.4,0.6,1.4,1.3c0,1.2-1.6,1.4-2,2.3
		H188.7z"/>
	<path class="st0" d="M189.4,37.4c0-1.4,0.8-2.2,1.7-2.2s1.7,0.8,1.7,2.2s-0.8,2.2-1.7,2.2S189.4,38.8,189.4,37.4z M191.1,35.8
		c-0.6,0-1.1,0.5-1.1,1.6s0.5,1.6,1.1,1.6s1.1-0.5,1.1-1.6S191.7,35.8,191.1,35.8z"/>
	<path class="st0" d="M193.5,39.2c0-0.2,0.2-0.4,0.4-0.4s0.4,0.2,0.4,0.4s-0.2,0.4-0.4,0.4S193.5,39.4,193.5,39.2z"/>
	<path class="st0" d="M195.9,35.3h0.7l1.3,3.4l1.3-3.4h0.7l-1.6,4.2h-0.7L195.9,35.3z"/>
	<path class="st0" d="M200.6,35.3c0.2,0,0.4,0.2,0.4,0.4s-0.2,0.4-0.4,0.4s-0.4-0.2-0.4-0.4S200.4,35.3,200.6,35.3z M200.2,36.6h0.6
		v2.9h-0.6V36.6z"/>
	<path class="st0" d="M201.8,38.6c0.1,0.1,0.1,0.1,0.2,0.2c0.1,0.1,0.3,0.2,0.5,0.2c0.3,0,0.5-0.2,0.5-0.4c0-0.5-1.5-0.2-1.5-1.3
		c0-0.5,0.4-0.8,1.1-0.8c0.3,0,0.6,0.1,0.8,0.2c0.1,0,0.2,0.1,0.2,0.2l-0.4,0.4c0,0-0.1-0.1-0.2-0.1c-0.1-0.1-0.3-0.1-0.5-0.1
		c-0.3,0-0.4,0.2-0.4,0.3c0,0.5,1.5,0.2,1.5,1.3c0,0.5-0.4,0.9-1.1,0.9c-0.4,0-0.7-0.1-0.9-0.3c-0.1-0.1-0.2-0.2-0.3-0.3L201.8,38.6
		L201.8,38.6z"/>
	<path class="st0" d="M204.7,35.3c0.2,0,0.4,0.2,0.4,0.4s-0.2,0.4-0.4,0.4s-0.4-0.2-0.4-0.4S204.5,35.3,204.7,35.3z M204.4,36.6h0.6
		v2.9h-0.6V36.6z"/>
	<path class="st0" d="M206.1,37.2h-0.5v-0.6h0.3c0.2,0,0.3-0.1,0.3-0.3v-0.6h0.5v1h0.7v0.6h-0.7v1.3c0,0.3,0.1,0.5,0.4,0.5
		c0.1,0,0.2,0,0.2,0l0.1,0v0.6l-0.1,0c-0.1,0-0.2,0-0.3,0c-0.6,0-0.9-0.3-0.9-1C206.1,38.6,206.1,37.2,206.1,37.2z"/>
	<path class="st0" d="M209.5,35.3h0.6v4.2h-0.6V35.3z"/>
	<path class="st0" d="M212.3,36.5c0.8,0,1.5,0.7,1.5,1.5s-0.7,1.5-1.5,1.5s-1.5-0.7-1.5-1.5S211.4,36.5,212.3,36.5z M213.2,38
		c0-0.5-0.4-0.9-0.9-0.9s-0.9,0.4-0.9,0.9s0.4,0.9,0.9,0.9S213.2,38.6,213.2,38z"/>
	<path class="st0" d="M214.4,36.6h0.6V37c0.1-0.1,0.1-0.2,0.2-0.2c0.1-0.1,0.4-0.2,0.7-0.2c0.7,0,1.1,0.5,1.1,1.3v1.7h-0.6v-1.7
		c0-0.4-0.3-0.7-0.7-0.7c-0.4,0-0.8,0.3-0.8,0.8v1.6h-0.6L214.4,36.6L214.4,36.6z"/>
	<path class="st0" d="M220.1,39.1c-0.1,0.1-0.1,0.2-0.2,0.2c-0.2,0.1-0.4,0.2-0.8,0.2c-0.7,0-1.4-0.6-1.4-1.5s0.6-1.5,1.4-1.5
		c0.3,0,0.6,0.1,0.8,0.2c0.1,0.1,0.2,0.2,0.2,0.2v-1.7h0.6v4.2h-0.6C220.1,39.5,220.1,39.1,220.1,39.1z M220.1,38
		c0-0.5-0.4-0.9-0.9-0.9s-0.9,0.4-0.9,0.9s0.4,0.9,0.9,0.9S220.1,38.6,220.1,38z"/>
	<path class="st0" d="M222.9,36.5c0.8,0,1.5,0.7,1.5,1.5s-0.7,1.5-1.5,1.5s-1.5-0.7-1.5-1.5S222,36.5,222.9,36.5z M223.8,38
		c0-0.5-0.4-0.9-0.9-0.9S222,37.5,222,38s0.4,0.9,0.9,0.9S223.8,38.6,223.8,38z"/>
	<path class="st0" d="M225,36.6h0.6V37c0.1-0.1,0.1-0.2,0.2-0.2c0.1-0.1,0.4-0.2,0.7-0.2c0.7,0,1.1,0.5,1.1,1.3v1.7h-0.6v-1.7
		c0-0.4-0.3-0.7-0.7-0.7c-0.4,0-0.8,0.3-0.8,0.8v1.6H225L225,36.6L225,36.6z"/>
	<path class="st0" d="M231.1,38.9c-0.1,0.1-0.2,0.2-0.3,0.3c-0.2,0.2-0.5,0.3-0.9,0.3c-0.8,0-1.5-0.7-1.5-1.5s0.7-1.5,1.5-1.5
		c0.4,0,0.7,0.1,0.9,0.3c0.1,0.1,0.2,0.2,0.3,0.3l-0.4,0.4c-0.1-0.1-0.1-0.1-0.2-0.2c-0.1-0.1-0.3-0.2-0.6-0.2
		c-0.5,0-0.9,0.4-0.9,0.9s0.4,0.9,0.9,0.9c0.3,0,0.5-0.1,0.6-0.2c0.1-0.1,0.1-0.1,0.2-0.2L231.1,38.9z"/>
	<path class="st0" d="M233.3,39.1c-0.1,0.1-0.1,0.2-0.2,0.2c-0.2,0.1-0.4,0.2-0.7,0.2c-0.6,0-1-0.4-1-0.8c0-0.5,0.3-0.8,0.8-0.9
		l1.1-0.2c0-0.3-0.2-0.5-0.6-0.5c-0.2,0-0.4,0.1-0.6,0.2c-0.1,0-0.1,0.1-0.2,0.2l-0.4-0.4c0.1-0.1,0.2-0.2,0.3-0.3
		c0.2-0.1,0.5-0.3,0.9-0.3c0.7,0,1.2,0.5,1.2,1.1v1.8h-0.6L233.3,39.1L233.3,39.1z M233.3,38.1l-0.8,0.2c-0.3,0-0.4,0.2-0.4,0.4
		c0,0.2,0.2,0.4,0.5,0.4C232.9,39,233.3,38.7,233.3,38.1L233.3,38.1z"/>
	<path class="st0" d="M234.8,35.3h0.6v4.2h-0.6V35.3z"/>
	<path class="st0" d="M236.3,35.3h0.6v4.2h-0.6V35.3z"/>
	<path class="st0" d="M238.1,35.3c0.2,0,0.4,0.2,0.4,0.4s-0.2,0.4-0.4,0.4s-0.4-0.2-0.4-0.4S237.9,35.3,238.1,35.3z M237.8,36.6h0.6
		v2.9h-0.6V36.6z"/>
	<path class="st0" d="M239.2,36.6h0.6V37c0.1-0.1,0.1-0.2,0.2-0.2c0.1-0.1,0.4-0.2,0.7-0.2c0.7,0,1.1,0.5,1.1,1.3v1.7h-0.6v-1.7
		c0-0.4-0.3-0.7-0.7-0.7c-0.4,0-0.8,0.3-0.8,0.8v1.6h-0.6L239.2,36.6L239.2,36.6z"/>
	<path class="st0" d="M243.1,39.8c0.1,0.1,0.1,0.2,0.2,0.2c0.1,0.1,0.3,0.2,0.6,0.2c0.6,0,0.9-0.3,0.9-0.9V39
		c-0.1,0.1-0.1,0.2-0.2,0.2c-0.2,0.1-0.4,0.2-0.7,0.2c-0.7,0-1.3-0.6-1.3-1.4s0.6-1.4,1.3-1.4c0.3,0,0.5,0.1,0.7,0.2
		c0.1,0.1,0.2,0.1,0.2,0.2v-0.4h0.6v2.6c0,0.9-0.6,1.5-1.5,1.5c-0.4,0-0.7-0.2-0.9-0.3c-0.1-0.1-0.2-0.2-0.3-0.3
		C242.6,40.1,243.1,39.8,243.1,39.8z M244.8,38c0-0.5-0.4-0.9-0.8-0.9s-0.8,0.4-0.8,0.9s0.4,0.9,0.8,0.9S244.8,38.5,244.8,38z"/>
	<path class="st0" d="M246.1,39.2c0-0.2,0.2-0.4,0.4-0.4s0.4,0.2,0.4,0.4s-0.2,0.4-0.4,0.4S246.1,39.4,246.1,39.2z"/>
	<path class="st0" d="M250.1,38.9c-0.1,0.1-0.2,0.2-0.3,0.3c-0.2,0.2-0.5,0.3-0.9,0.3c-0.8,0-1.5-0.7-1.5-1.5s0.7-1.5,1.5-1.5
		c0.4,0,0.7,0.1,0.9,0.3c0.1,0.1,0.2,0.2,0.3,0.3l-0.4,0.4c-0.1-0.1-0.1-0.1-0.2-0.2c-0.1-0.1-0.3-0.2-0.6-0.2
		c-0.5,0-0.9,0.4-0.9,0.9s0.4,0.9,0.9,0.9c0.3,0,0.5-0.1,0.6-0.2c0.1-0.1,0.1-0.1,0.2-0.2L250.1,38.9z"/>
	<path class="st0" d="M251.9,36.5c0.8,0,1.5,0.7,1.5,1.5s-0.7,1.5-1.5,1.5s-1.5-0.7-1.5-1.5S251.1,36.5,251.9,36.5z M252.8,38
		c0-0.5-0.4-0.9-0.9-0.9S251,37.5,251,38s0.4,0.9,0.9,0.9S252.8,38.6,252.8,38z"/>
	<path class="st0" d="M254.1,36.6h0.6V37c0.1-0.1,0.1-0.2,0.2-0.2c0.1-0.1,0.3-0.2,0.6-0.2s0.5,0.1,0.7,0.2c0.1,0.1,0.2,0.2,0.2,0.2
		c0-0.1,0.1-0.2,0.2-0.2c0.2-0.1,0.4-0.2,0.8-0.2c0.6,0,1,0.5,1,1.2v1.7h-0.6v-1.7c0-0.4-0.3-0.7-0.6-0.7c-0.4,0-0.7,0.3-0.7,0.8
		v1.6H256v-1.7c0-0.4-0.3-0.7-0.6-0.7c-0.4,0-0.7,0.3-0.7,0.8v1.6h-0.6L254.1,36.6L254.1,36.6z"/>
	<path class="st0" d="M260.8,37.2h-0.5v-0.6h0.5v-0.4c0-0.6,0.3-1,0.9-1c0.1,0,0.2,0,0.3,0c0,0,0.1,0,0.1,0v0.6l-0.1,0
		c-0.1,0-0.1,0-0.2,0c-0.3,0-0.4,0.2-0.4,0.5v0.4h0.7v0.6h-0.7v2.3h-0.6L260.8,37.2L260.8,37.2z"/>
	<path class="st0" d="M264,36.5c0.8,0,1.5,0.7,1.5,1.5s-0.7,1.5-1.5,1.5s-1.5-0.7-1.5-1.5S263.1,36.5,264,36.5z M264.9,38
		c0-0.5-0.4-0.9-0.9-0.9s-0.9,0.4-0.9,0.9s0.4,0.9,0.9,0.9S264.9,38.6,264.9,38z"/>
	<path class="st0" d="M266.1,36.6h0.6V37c0.1-0.1,0.1-0.2,0.2-0.2c0.1-0.1,0.4-0.2,0.6-0.2h0.1v0.6h-0.1c0,0-0.1,0-0.2,0
		c-0.4,0-0.8,0.4-0.8,0.9v1.5h-0.6V36.6z"/>
	<path class="st0" d="M269.6,37.2h-0.5v-0.6h0.5v-0.4c0-0.6,0.3-1,0.9-1c0.1,0,0.2,0,0.3,0c0,0,0.1,0,0.1,0v0.6l-0.1,0
		c-0.1,0-0.1,0-0.2,0c-0.3,0-0.4,0.2-0.4,0.5v0.4h0.7v0.6h-0.7v2.3h-0.6L269.6,37.2L269.6,37.2z"/>
	<path class="st0" d="M271.5,36.6h0.6v1.7c0,0.4,0.3,0.7,0.7,0.7c0.5,0,0.8-0.3,0.8-0.8v-1.6h0.6v2.9h-0.6v-0.4
		c-0.1,0.1-0.1,0.2-0.2,0.2c-0.1,0.1-0.4,0.2-0.7,0.2c-0.7,0-1.1-0.5-1.1-1.3L271.5,36.6L271.5,36.6z"/>
	<path class="st0" d="M275,35.3h0.6v4.2H275V35.3z"/>
	<path class="st0" d="M276.5,35.3h0.6v4.2h-0.6V35.3z"/>
	<path class="st0" d="M280.2,35.9H279v-0.6h3.2v0.6h-1.3v3.6h-0.7L280.2,35.9L280.2,35.9z"/>
	<path class="st0" d="M284.9,38.3c0-0.1,0.1-0.2,0.1-0.2c0.1-0.2,0.1-0.4,0.1-0.6h0.5c0,0.4-0.1,0.7-0.2,0.9c0,0.1-0.1,0.3-0.2,0.4
		c0,0,0.1,0.1,0.1,0.1c0.1,0.1,0.2,0.1,0.3,0.1c0,0,0.1,0,0.1,0l0,0v0.5l0,0c0,0-0.1,0-0.2,0c-0.2,0-0.4-0.1-0.5-0.2
		c-0.1-0.1-0.1-0.1-0.2-0.2c-0.1,0.1-0.2,0.2-0.3,0.2c-0.2,0.1-0.5,0.2-0.8,0.2c-0.8,0-1.2-0.5-1.2-1.1c0-0.4,0.2-0.7,0.4-0.9
		c0.1-0.1,0.3-0.2,0.4-0.3c-0.1-0.1-0.2-0.2-0.3-0.3c-0.1-0.2-0.3-0.5-0.3-0.8c0-0.5,0.4-1,1-1s1,0.4,1,0.9c0,0.3-0.2,0.6-0.4,0.8
		c-0.1,0.1-0.2,0.2-0.4,0.3C284.1,37.3,284.9,38.3,284.9,38.3z M283.7,37.6c-0.1,0.1-0.2,0.1-0.3,0.2c-0.1,0.1-0.3,0.3-0.3,0.6
		c0,0.3,0.3,0.6,0.7,0.6c0.2,0,0.4-0.1,0.5-0.2c0.1,0,0.1-0.1,0.2-0.2L283.7,37.6L283.7,37.6z M284,36.7c0.1-0.1,0.2-0.3,0.2-0.5
		c0-0.2-0.2-0.4-0.5-0.4c-0.3,0-0.5,0.2-0.5,0.4c0,0.2,0.1,0.3,0.2,0.5c0.1,0.1,0.1,0.2,0.2,0.2C283.9,36.8,284,36.8,284,36.7
		L284,36.7z"/>
	<path class="st0" d="M290.3,38.7c-0.1,0.2-0.3,0.3-0.4,0.4c-0.3,0.2-0.7,0.4-1.3,0.4c-1.3,0-2.2-1-2.2-2.2s1-2.2,2.2-2.2
		c0.6,0,1,0.2,1.3,0.4c0.2,0.1,0.3,0.2,0.4,0.4l-0.4,0.4c-0.1-0.1-0.2-0.2-0.3-0.3c-0.2-0.2-0.5-0.3-1-0.3c-0.9,0-1.6,0.7-1.6,1.6
		s0.7,1.6,1.6,1.6c0.4,0,0.8-0.2,1-0.3c0.1-0.1,0.2-0.2,0.3-0.3L290.3,38.7L290.3,38.7z"/>
	<path class="st0" d="M291,38.6c0.1,0.1,0.1,0.1,0.2,0.2c0.1,0.1,0.3,0.2,0.5,0.2c0.3,0,0.5-0.2,0.5-0.4c0-0.5-1.5-0.2-1.5-1.3
		c0-0.5,0.4-0.8,1-0.8c0.3,0,0.6,0.1,0.8,0.2c0.1,0,0.2,0.1,0.2,0.2l-0.4,0.4c0,0-0.1-0.1-0.2-0.1c-0.1-0.1-0.3-0.1-0.5-0.1
		c-0.3,0-0.5,0.2-0.5,0.3c0,0.5,1.5,0.2,1.5,1.3c0,0.5-0.4,0.9-1.1,0.9c-0.4,0-0.7-0.1-0.9-0.3c-0.1-0.1-0.2-0.2-0.3-0.3L291,38.6
		L291,38.6z"/>
	<path class="st0" d="M293.3,39.2c0-0.2,0.2-0.4,0.4-0.4s0.4,0.2,0.4,0.4s-0.2,0.4-0.4,0.4S293.3,39.4,293.3,39.2z"/>
	<path class="st0" d="M160.4,42.3h0.6l2.3,3.1v-3.1h0.7v4.2h-0.6l-2.3-3.1v3.1h-0.7V42.3z"/>
	<path class="st0" d="M165.2,45.5c0.1,0.1,0.1,0.2,0.2,0.2c0.2,0.1,0.4,0.2,0.8,0.2c0.5,0,0.8-0.3,0.8-0.6c0-0.9-2.2-0.4-2.2-1.9
		c0-0.6,0.6-1.2,1.4-1.2c0.4,0,0.8,0.1,1,0.3c0.1,0.1,0.2,0.2,0.3,0.3l-0.4,0.5c-0.1-0.1-0.1-0.1-0.2-0.2c-0.1-0.1-0.4-0.2-0.6-0.2
		c-0.5,0-0.8,0.3-0.8,0.6c0,0.9,2.2,0.4,2.2,1.9c0,0.7-0.6,1.2-1.5,1.2c-0.5,0-0.9-0.2-1.1-0.3c-0.1-0.1-0.3-0.2-0.4-0.3
		C164.7,45.9,165.2,45.5,165.2,45.5z"/>
	<path class="st0" d="M168,42.3h0.7l1,3.2l1-3.2h0.7l1,3.2l1-3.2h0.7l-1.4,4.2H172l-1-3.2l-1,3.2h-0.7L168,42.3z"/>
	<path class="st0" d="M176.6,42.9h-1.3v-0.6h3.2v0.6h-1.3v3.6h-0.7V42.9z"/>
	<path class="st0" d="M179.2,42.3h1.7c0.8,0,1.4,0.6,1.4,1.3s-0.6,1.3-1.4,1.3h-1v1.5h-0.7L179.2,42.3L179.2,42.3z M180.9,44.4
		c0.4,0,0.8-0.3,0.8-0.8s-0.3-0.8-0.8-0.8h-1v1.5H180.9z"/>
	<path class="st0" d="M184.4,42.2h0.5l-1.8,5.5h-0.5L184.4,42.2z"/>
	<path class="st0" d="M185.3,44.4c0-1.4,0.8-2.2,1.7-2.2s1.7,0.8,1.7,2.2s-0.8,2.2-1.7,2.2S185.3,45.8,185.3,44.4z M187,42.8
		c-0.6,0-1.1,0.5-1.1,1.6s0.5,1.6,1.1,1.6s1.1-0.5,1.1-1.6S187.6,42.8,187,42.8z"/>
	<path class="st0" d="M192.1,45.8v0.6h-2.8c0-1.9,2.2-1.9,2.2-3c0-0.4-0.3-0.7-0.8-0.7c-0.3,0-0.5,0.1-0.6,0.3
		c-0.1,0.1-0.1,0.2-0.2,0.3l-0.5-0.2c0.1-0.2,0.1-0.3,0.3-0.5c0.2-0.2,0.5-0.5,1.1-0.5c0.8,0,1.4,0.6,1.4,1.3c0,1.2-1.6,1.4-2,2.3
		H192.1z"/>
	<path class="st0" d="M192.8,44.4c0-1.4,0.8-2.2,1.7-2.2s1.7,0.8,1.7,2.2s-0.8,2.2-1.7,2.2S192.8,45.8,192.8,44.4z M194.5,42.8
		c-0.6,0-1.1,0.5-1.1,1.6s0.5,1.6,1.1,1.6s1.1-0.5,1.1-1.6S195.1,42.8,194.5,42.8z"/>
	<path class="st0" d="M198.4,42.3h0.7l-1,1.5h0.1c0,0,0.1,0,0.2,0c0.8,0,1.4,0.6,1.4,1.4s-0.6,1.4-1.5,1.4s-1.5-0.6-1.5-1.4
		c0-0.2,0.1-0.5,0.1-0.6c0-0.1,0.1-0.2,0.1-0.3L198.4,42.3L198.4,42.3z M198.4,46c0.5,0,0.8-0.4,0.8-0.8s-0.4-0.8-0.8-0.8
		s-0.8,0.4-0.8,0.8S197.9,46,198.4,46z"/>
	<path class="st0" d="M203.2,45.8v0.6h-2.8c0-1.9,2.2-1.9,2.2-3c0-0.4-0.3-0.7-0.8-0.7c-0.3,0-0.5,0.1-0.6,0.3
		c-0.1,0.1-0.1,0.2-0.2,0.3l-0.5-0.2c0.1-0.2,0.1-0.3,0.3-0.5c0.2-0.2,0.5-0.5,1.1-0.5c0.8,0,1.4,0.6,1.4,1.3c0,1.2-1.6,1.4-2,2.3
		H203.2z"/>
	<path class="st0" d="M203.8,46.2c0-0.2,0.2-0.4,0.4-0.4s0.4,0.2,0.4,0.4s-0.2,0.4-0.4,0.4S203.8,46.4,203.8,46.2z"/>
	<path class="st0" d="M207.8,42.3h0.7l1.7,4.2h-0.7l-0.4-1.1h-1.9l-0.4,1.1h-0.7L207.8,42.3L207.8,42.3z M208.9,44.8l-0.7-1.7
		l-0.7,1.7H208.9z"/>
	<path class="st0" d="M214.4,45.7c-0.1,0.2-0.3,0.3-0.4,0.4c-0.3,0.2-0.7,0.4-1.3,0.4c-1.3,0-2.2-1-2.2-2.2s1-2.2,2.2-2.2
		c0.6,0,1,0.2,1.3,0.4c0.2,0.1,0.3,0.2,0.4,0.4l-0.4,0.4c-0.1-0.1-0.2-0.2-0.3-0.3c-0.2-0.2-0.5-0.3-1-0.3c-0.9,0-1.6,0.7-1.6,1.6
		s0.7,1.6,1.6,1.6c0.4,0,0.8-0.2,1-0.3c0.1-0.1,0.2-0.2,0.3-0.3L214.4,45.7L214.4,45.7z"/>
	<path class="st0" d="M216,42.9h-1.3v-0.6h3.2v0.6h-1.3v3.6H216V42.9z"/>
	<path class="st0" d="M220.5,42.9h-1.3v-0.6h3.2v0.6h-1.3v3.6h-0.7V42.9z"/>
	<path class="st0" d="M223.1,42.3h1.7c0.8,0,1.4,0.6,1.4,1.3s-0.6,1.3-1.4,1.3h-1v1.5h-0.7L223.1,42.3L223.1,42.3z M224.8,44.4
		c0.4,0,0.8-0.3,0.8-0.8s-0.3-0.8-0.8-0.8h-1v1.5H224.8z"/>
	<path class="st0" d="M230.6,45.8v0.6h-2.8c0-1.9,2.2-1.9,2.2-3c0-0.4-0.3-0.7-0.8-0.7c-0.3,0-0.5,0.1-0.6,0.3
		c-0.1,0.1-0.1,0.2-0.2,0.3l-0.5-0.2c0.1-0.2,0.1-0.3,0.3-0.5c0.2-0.2,0.5-0.5,1.1-0.5c0.8,0,1.4,0.6,1.4,1.3c0,1.2-1.6,1.4-2,2.3
		H230.6z"/>
	<path class="st0" d="M234,45.8v0.6h-2.8c0-1.9,2.2-1.9,2.2-3c0-0.4-0.3-0.7-0.8-0.7c-0.3,0-0.5,0.1-0.6,0.3
		c-0.1,0.1-0.1,0.2-0.2,0.3l-0.5-0.2c0.1-0.2,0.1-0.3,0.3-0.5c0.2-0.2,0.5-0.5,1.1-0.5c0.8,0,1.4,0.6,1.4,1.3c0,1.2-1.6,1.4-2,2.3
		H234z"/>
	<path class="st0" d="M236.1,42.2h0.5l-1.8,5.5h-0.5L236.1,42.2z"/>
	<path class="st0" d="M237,44.4c0-1.4,0.8-2.2,1.7-2.2s1.7,0.8,1.7,2.2s-0.8,2.2-1.7,2.2S237,45.8,237,44.4z M238.7,42.8
		c-0.6,0-1.1,0.5-1.1,1.6s0.5,1.6,1.1,1.6s1.1-0.5,1.1-1.6S239.3,42.8,238.7,42.8z"/>
	<path class="st0" d="M241.7,43.3H241v-0.4c0.5-0.1,0.8-0.3,0.9-0.6h0.5v4.2h-0.7L241.7,43.3L241.7,43.3z"/>
	<path class="st0" d="M243.7,45.5c0.1,0.1,0.1,0.2,0.2,0.2c0.2,0.1,0.4,0.2,0.8,0.2c0.6,0,0.9-0.3,0.9-0.8s-0.3-0.8-0.9-0.8
		c-0.3,0-0.4,0.1-0.6,0.2c-0.1,0.1-0.1,0.1-0.2,0.2l-0.5-0.1l0.1-2.4h2.4v0.6h-1.8l-0.1,1c0.1,0,0.1-0.1,0.2-0.1
		c0.1,0,0.3-0.1,0.5-0.1c0.8,0,1.4,0.6,1.4,1.4s-0.6,1.4-1.5,1.4c-0.5,0-0.9-0.2-1.1-0.3c-0.1-0.1-0.3-0.2-0.4-0.3
		C243.2,45.9,243.7,45.5,243.7,45.5z"/>
	<path class="st0" d="M249.4,45.8v0.6h-2.8c0-1.9,2.2-1.9,2.2-3c0-0.4-0.3-0.7-0.8-0.7c-0.3,0-0.5,0.1-0.6,0.3
		c-0.1,0.1-0.1,0.2-0.2,0.3l-0.5-0.2c0.1-0.2,0.1-0.3,0.3-0.5c0.2-0.2,0.5-0.5,1.1-0.5c0.8,0,1.4,0.6,1.4,1.3c0,1.2-1.6,1.4-2,2.3
		H249.4z"/>
	<path class="st0" d="M250.7,43.3H250v-0.4c0.5-0.1,0.8-0.3,0.9-0.6h0.5v4.2h-0.7L250.7,43.3L250.7,43.3z"/>
	<path class="st0" d="M252.3,46.2c0-0.2,0.2-0.4,0.4-0.4s0.4,0.2,0.4,0.4s-0.2,0.4-0.4,0.4S252.3,46.4,252.3,46.2z"/>
	<path class="st0" d="M255.2,45.5c0.1,0.1,0.1,0.2,0.2,0.2c0.2,0.1,0.4,0.2,0.8,0.2c0.5,0,0.8-0.3,0.8-0.6c0-0.9-2.2-0.4-2.2-1.9
		c0-0.6,0.6-1.2,1.4-1.2c0.4,0,0.8,0.1,1,0.3c0.1,0.1,0.2,0.2,0.3,0.3l-0.5,0.5c-0.1-0.1-0.1-0.1-0.2-0.2c-0.1-0.1-0.4-0.2-0.6-0.2
		c-0.5,0-0.8,0.3-0.8,0.6c0,0.9,2.2,0.4,2.2,1.9c0,0.7-0.6,1.2-1.5,1.2c-0.5,0-0.9-0.2-1.1-0.3c-0.1-0.1-0.3-0.2-0.4-0.3L255.2,45.5
		L255.2,45.5z"/>
	<path class="st0" d="M259.7,42.3h0.7l1.7,4.2h-0.7l-0.4-1.1h-1.9l-0.4,1.1h-0.7L259.7,42.3L259.7,42.3z M260.8,44.8l-0.7-1.7
		l-0.7,1.7H260.8z"/>
	<path class="st0" d="M264.7,42.9h-1.3v-0.6h3.2v0.6h-1.3v3.6h-0.7L264.7,42.9L264.7,42.9z"/>
	<path class="st0" d="M269.7,45.8v0.6h-2.8c0-1.9,2.2-1.9,2.2-3c0-0.4-0.3-0.7-0.8-0.7c-0.3,0-0.5,0.1-0.6,0.3
		c-0.1,0.1-0.1,0.2-0.2,0.3l-0.5-0.2c0-0.2,0.1-0.3,0.3-0.5c0.2-0.2,0.5-0.5,1.1-0.5c0.8,0,1.4,0.6,1.4,1.3c0,1.2-1.6,1.4-2,2.3
		H269.7L269.7,45.8z"/>
	<path class="st0" d="M273.1,45.8v0.6h-2.8c0-1.9,2.2-1.9,2.2-3c0-0.4-0.3-0.7-0.8-0.7c-0.3,0-0.5,0.1-0.6,0.3
		c-0.1,0.1-0.1,0.2-0.2,0.3l-0.5-0.2c0-0.2,0.1-0.3,0.3-0.5c0.2-0.2,0.5-0.5,1.1-0.5c0.8,0,1.4,0.6,1.4,1.3c0,1.2-1.6,1.4-2,2.3
		H273.1L273.1,45.8z"/>
	<path class="st0" d="M275.2,42.2h0.5l-1.8,5.5h-0.5L275.2,42.2z"/>
	<path class="st0" d="M276.7,43.3H276v-0.4c0.5-0.1,0.8-0.3,0.9-0.6h0.5v4.2h-0.7C276.7,46.5,276.7,43.3,276.7,43.3z"/>
	<path class="st0" d="M278.9,43.3h-0.8v-0.4c0.5-0.1,0.8-0.3,0.9-0.6h0.5v4.2h-0.7C278.9,46.5,278.9,43.3,278.9,43.3z"/>
	<path class="st0" d="M282.2,45L282.2,45c-0.1,0-0.2,0-0.3,0c-0.8,0-1.4-0.6-1.4-1.4s0.6-1.4,1.5-1.4s1.5,0.6,1.5,1.4
		c0,0.2-0.1,0.5-0.1,0.7c0,0.1-0.1,0.2-0.1,0.3l-1.2,1.9h-0.7L282.2,45L282.2,45z M282,44.4c0.5,0,0.8-0.4,0.8-0.8s-0.4-0.8-0.8-0.8
		s-0.8,0.4-0.8,0.8S281.5,44.4,282,44.4z"/>
	<path class="st0" d="M284.1,44.4c0-1.4,0.8-2.2,1.7-2.2s1.7,0.8,1.7,2.2s-0.8,2.2-1.7,2.2S284.1,45.8,284.1,44.4z M285.8,42.8
		c-0.6,0-1.1,0.5-1.1,1.6s0.5,1.6,1.1,1.6s1.1-0.5,1.1-1.6S286.4,42.8,285.8,42.8z"/>
	<path class="st0" d="M288.1,46.2c0-0.2,0.2-0.4,0.4-0.4s0.4,0.2,0.4,0.4s-0.2,0.4-0.4,0.4S288.1,46.4,288.1,46.2z"/>
</g>
</svg>
