<svg xmlns="http://www.w3.org/2000/svg" viewBox="0 0 733.21 301.32"><defs><style>.cls-1{fill:#fff;}</style></defs><title>bg-element</title><g id="Layer_2" data-name="Layer 2"><g id="Layer_1-2" data-name="Layer 1"><path class="cls-1" d="M724.62,175.36c-.51-12.19-4.77-42.61-29.76-51-13.61-4.58-28.25,1.19-38.81,11.57-3.83,4.09-7.18,8.89-8.36,15.75a12.42,12.42,0,0,1-.43,1.6,2.93,2.93,0,0,1-2.86,2.44c-1.62.11-2.47-1-2.74-2.56-1.12-6.51-2.26-13.42-4.94-20-4.53-11.08-14.46-8-19-2.6-7.6,9-1.26,38.73,24.33,34.68,4.17-.66,5.35-.44,5.53.72.39,2.4-.88,4-5.37,4.44-10,.92-27.24-3.29-34.69-24.81-.4-1.16-.84-2.21-1.07-3.19a32.87,32.87,0,0,1-.71-4.5,1.34,1.34,0,0,1,0-.2c-11.74-20.66-30.69-25-38.34-14.11-3.84,5.44.5,16.17,3.31,21.95.7,1.72,1.19,3.07,1.49,4.05a8.13,8.13,0,0,1,.17,3.46,4.27,4.27,0,0,1-2,3.09,6.05,6.05,0,0,1-3.59,1,7.75,7.75,0,0,1-2.95-.61A22.4,22.4,0,0,1,561,154.8c-11-11-17.74-9.38-18.92-4.53,0,0,12.64,15.92,4.78,21.91-2.2,1.68-4.87,1.45-8.18-.9a17.1,17.1,0,0,1-5.44-8.69c-.59-2.23-1.67-10.26,2.63-15.46-11.6-13.22-28.89-26.68-45.73-20.62a19.58,19.58,0,0,0-2.18,1c2.16,7.51,1.38,15-1.89,20.57,0,0-.06.08-.09.13a7.76,7.76,0,0,1-4.35,3.19l-.34.08-1.21.26c-7.63,1.66-17.42-6.44-13.27-18.26a13.47,13.47,0,0,1,6.42-7.93c1.39-.88,2.21-1.4-.82-5.06-8-9.68-28.38-7.93-21.85,14.24,5.09,17.31,19.24,14.69,19.92,17,.6,2-1.34,4.26-4.78,4-8.73-.66-16.75-9.28-20.38-19.7-10.91-12.37-29-30.77-46.22-29.64-5.93.38-11.24,5.39-16.62,10.76-10.43,10.4-11.18,18.07-20.59,19.43-16.05,2.33-29.49-21.55-29.49-21.55s1.7,8.92,2.53,16.65l.82,1.46.27.48q3,5.06,6.15,10.42c1.82,3.11,20.27,41.09,25.74,54.22-4.37-3.13-8.41-5.92-12.34-8.56-8-26.74-19.13-43.59-19.59-43.37-1.29.62,1.55,14.1,4.19,25.79.93,4.13,2,8.24,3.09,12.34,1.8,1.16,3.66,2.38,5.56,3.64q3.78,2.5,7.82,5.29c4.05,2.8,8.3,5.79,12.79,9l6.9,5c11.88,8.71,25.27,18.89,40.57,30.78C443.47,259,505.8,307.58,597.39,292c129.23-22,127.53-109.42,127.23-116.64m-184.71-23c-1.27,2.1-.62,9.35.3,11s2,2.29,3.19,1.8c1.51-.64,2.06-1.78,1.58-4.1a20.48,20.48,0,0,0-5.07-8.68m-60.14-14.11a18.63,18.63,0,0,0-2.48-7.68c-1.67-.14-3.92,1-5.43,2.69a6.2,6.2,0,0,0-1.95,3.19c-.58,3,.29,6,2.13,7.24a4.82,4.82,0,0,0,4.58.71c2.44-.84,3.34-3.23,3.15-6.15m-152.36-9c-21.21-33.61-53.7-42-78.39-33.88,0,0,20.6,5.54,22.22,22.31,2,20.51-23.64,36.59-49.15,1a.94.94,0,0,0-1-.54c-.37.07-.52.37-.46.89q.53,7,1,13.42a4,4,0,0,1-1.85,3.73,3.74,3.74,0,0,1-4.13.3,3.64,3.64,0,0,1-2.1-3.44c-9.75-15.92-28.74-40.18-46.81-33.67a21.19,21.19,0,0,0-2.05,1c2,7.05,1.3,14.11-1.77,19.29l-.08.12a7.26,7.26,0,0,1-4.08,3l-.32.07-1.14.24c-7.15,1.56-16.33-6-12.44-17.12a12.67,12.67,0,0,1,6-7.43c1.31-.83,2.07-1.32-.77-4.74-7.52-9.08-26.61-6.89-21.1,14.07,4.43,16.88,18.66,13.05,19.3,15.2.55,1.87-1.25,3.72-4.49,3.76a13,13,0,0,1-5.11-1,23.56,23.56,0,0,1-8.7-5.93c-22.56,14.23-44.86,18.25-71.46,10.28L55.33,133,51,136.74C10.68,171.69,23,219.35,30.13,232.21c11.85,21.44,31.8,39.87,56.75,43.56C142.57,284,175.75,233.63,209.24,199c17.49-18.11,39.17-37,65.54-38.58,17.38-1,33.57,3,59.89,18.81-.32-1.6-.64-3.22-1-4.89-1.45-7.06-4.17-27.18-6.3-45M157,110.4a17.34,17.34,0,0,0-2.32-7.21c-2.36-.18-6,2.35-6.57,5.24s.31,5.9,2.12,7.24a4,4,0,0,0,3.82.5c2.29-.8,3.13-3,2.95-5.77m-94.14-.3h0C74.72,98.49,85.3,86.22,91.15,74.61a42.32,42.32,0,0,0,5.76-20.78A42.89,42.89,0,0,0,59.43,11a42.28,42.28,0,0,0-26.17,5.32C3.24,33.69,1.59,65.83,13.71,90.09a68.61,68.61,0,0,0,35.58,32.48c4.64-4.19,9.84-9,13.57-12.47M200.08,20.89c1.12,9.29,5.73,41.88,11.19,53.69.7-15.41-4-41-11.19-53.69M731.42,203.37c-14.92,67.39-99.11,109.14-197.5,95.31-63.15-8.88-113.74-49.74-157.44-84l-6-4.64q-6.07-4.74-12-9.21-3.56-2.69-7.06-5.24c-2.15-1.58-4.3-3.12-6.42-4.61,1.55,5.3,3.22,10.58,5.06,15.84q6,17.14,8.93,17.38c.11,0,.32-.13.66-.41q1.69-1.87,1.6-6.47a65.45,65.45,0,0,0-1.59-11.21l-.54-2.5c4.2,3,7.93,5.78,11.52,8.83.4,8-.92,17.82-9.48,19.61a8.78,8.78,0,0,1-5.09-.32,15.81,15.81,0,0,1-2.46-1.29,19.39,19.39,0,0,1-3.69-4.32,45.43,45.43,0,0,1-4.85-9.15,165.65,165.65,0,0,1-5.43-16.65q-2-7-3.85-15.57c-5.2-3.37-10.31-6.42-15.35-9-15.64-8.16-42.38-13.44-59.11-7.9-46.75,15.48-75,89.78-130,112.43-25.36,10.45-49.08,7.86-71.1-.21C41.93,273.34,26.35,260,17.54,243.32c-9.79-18.47-22.33-54.83,3.63-90.64a103,103,0,0,1,20.66-23.53c1.21-1,2.69-2.32,4.29-3.75A93.94,93.94,0,0,1,26.55,113C8.78,98.41,2.63,79.66.72,65.59-5.57,19.24,31.11,4.69,40.45,2.07c31.09-8.72,60.44,11.22,67.9,38.72C116,69.14,106,87,83.19,108.42h0l-.88.82h0c-5.68,5.15-13.64,12.14-20.88,18.44,21.62,7.23,48.8,1.82,66.33-10.6a29.17,29.17,0,0,1-4.54-10.33,30.14,30.14,0,0,1,1-18,19,19,0,0,1,2.72-5.21,8.67,8.67,0,0,1,.58-.72,20.06,20.06,0,0,1,1.71-1.74l.52-.46.09-.07A12.8,12.8,0,0,1,134,78.1c9.3-3.69,20.84,1.56,26.49,12.38a27.12,27.12,0,0,1,1.45,3.4.21.21,0,0,0,0,.06c5.87-3.16,22.68-12.54,50.89,30q-1-14.64-2.42-28.77-6.06-15.52-11-32.6a219.27,219.27,0,0,1-6.79-30.71q-1.86-13.65,2-17.06a6.23,6.23,0,0,1,4.45-1.36,4,4,0,0,1,2,.47c8.46,6.16,13.31,27.88,17.56,79.59a1.62,1.62,0,0,0,.09.78c3.66,9.91,7.26,21.13,13.94,29.42,7.86,9.9,25.49,13.29,25.14-1.72-.19-7.75-7-19.85-22.46-20.17l-2.59-.52a4,4,0,0,1-2.67-1.61,3.54,3.54,0,0,1-.7-2.85A4.17,4.17,0,0,1,231,94.13c.77-.62,52.53-28.45,95.6,27.75-1.27-11.15-2.18-20.38-2.18-23.26a3.67,3.67,0,0,1,3-4,3.58,3.58,0,0,1,4.51,1.75c3.27,5.74,16.38,25.74,28.15,28.58,4.73,1.14,7.59-2.53,10-5.25,4.29-4.81,14.2-18.57,26.42-20.1C416.71,97.1,435,118,443.7,129.8c-1.14-7.05-.15-14.34,4-20.22a8.1,8.1,0,0,1,.61-.76,17.49,17.49,0,0,1,5.31-4.29c10.15-5.3,23.53.28,29.89,12.47a27.68,27.68,0,0,1,1.54,3.62.43.43,0,0,1,0,.07c6.08-3.27,26.16-7.83,52.69,24.61,2.32-1.75,5.61-2.87,10.29-2.79,5.24.09,8,1.5,12.36,4.35a3,3,0,0,0,1.33.61c.66,0,.9-.3.69-.82-.49-1.21-15.89-28.52,4.49-34.18,12.47-3.45,25.69,3.17,39.22,18.9a23,23,0,0,1,2.48-7.23,16.27,16.27,0,0,1,9-7.78c10.1-3.42,21.92,4.56,26.41,17.81a33.1,33.1,0,0,1,1.43,6.23c0,.16.05.3.07.44a32.37,32.37,0,0,1,7.54-9.12h0c15.81-13.87,41.46-16.4,57.93-3.19,17.64,14.15,26.22,48.7,20.44,74.83"/></g></g></svg>