<?xml version="1.0" encoding="utf-8"?>
<!-- Generator: Adobe Illustrator 23.0.0, SVG Export Plug-In . SVG Version: 6.00 Build 0)  -->
<svg version="1.1" id="Layer_1" xmlns="http://www.w3.org/2000/svg" xmlns:xlink="http://www.w3.org/1999/xlink" x="0px" y="0px"
	 viewBox="0 0 300 600" style="enable-background:new 0 0 300 600;" xml:space="preserve">
<style type="text/css">
	.st0{fill:#060866;}
	.st1{fill:#FFFFFF;}
</style>
<g>
	<polygon class="st0" points="127,249 127,226 64,226 64,249 11,249 11,287 216,287 216,249 	"/>
	<g>
		<path class="st1" d="M71.77,233.3h4.47v2.1c0.64-0.9,1.36-1.53,2.16-1.89c0.8-0.36,1.67-0.54,2.61-0.54c1.08,0,1.97,0.2,2.68,0.6
			c0.71,0.4,1.27,0.94,1.68,1.62c0.41,0.68,0.7,1.46,0.87,2.34c0.17,0.88,0.26,1.81,0.26,2.79v8.37h-4.47v-8.28
			c0-0.54-0.05-1.04-0.15-1.49c-0.1-0.45-0.27-0.84-0.5-1.19c-0.23-0.34-0.53-0.6-0.88-0.79c-0.36-0.19-0.8-0.28-1.32-0.28
			c-0.52,0-0.96,0.09-1.33,0.28c-0.37,0.19-0.67,0.46-0.92,0.79c-0.24,0.34-0.42,0.74-0.53,1.2c-0.11,0.46-0.17,0.96-0.17,1.5v8.25
			h-4.47V233.3z"/>
		<path class="st1" d="M88.3,240.98c0-1.2,0.23-2.29,0.69-3.27c0.46-0.98,1.08-1.82,1.86-2.54c0.78-0.71,1.68-1.25,2.7-1.63
			c1.02-0.38,2.09-0.57,3.21-0.57s2.19,0.2,3.21,0.59c1.02,0.39,1.92,0.94,2.7,1.63c0.78,0.7,1.4,1.54,1.86,2.52
			c0.46,0.98,0.69,2.07,0.69,3.27s-0.23,2.29-0.69,3.29c-0.46,0.99-1.08,1.83-1.86,2.53c-0.78,0.7-1.68,1.25-2.7,1.64
			c-1.02,0.39-2.09,0.58-3.21,0.58s-2.19-0.19-3.21-0.57c-1.02-0.38-1.92-0.92-2.7-1.63c-0.78-0.71-1.4-1.56-1.86-2.55
			C88.53,243.27,88.3,242.18,88.3,240.98z M92.65,240.98c0,0.6,0.11,1.16,0.33,1.68s0.52,0.96,0.9,1.33s0.82,0.66,1.32,0.87
			c0.5,0.21,1.02,0.32,1.56,0.32c0.56,0,1.08-0.11,1.58-0.32c0.49-0.21,0.92-0.5,1.3-0.88s0.68-0.83,0.9-1.33
			c0.22-0.51,0.33-1.06,0.33-1.67s-0.11-1.15-0.33-1.65c-0.22-0.5-0.52-0.94-0.9-1.32c-0.38-0.38-0.82-0.67-1.3-0.88
			c-0.49-0.21-1.02-0.31-1.58-0.31c-0.54,0-1.06,0.1-1.56,0.31c-0.5,0.21-0.94,0.5-1.32,0.87s-0.68,0.81-0.9,1.32
			S92.65,240.38,92.65,240.98z"/>
		<path class="st1" d="M112.45,233.3h4.26v3.51h-4.26v7.2c0,0.34,0.08,0.65,0.24,0.93c0.16,0.28,0.46,0.42,0.9,0.42
			c0.44,0,0.75-0.15,0.92-0.45c0.17-0.3,0.25-0.63,0.25-0.99c0-0.22-0.03-0.46-0.08-0.73s-0.09-0.47-0.13-0.58h3.54
			c0.14,0.28,0.23,0.58,0.29,0.92c0.05,0.33,0.08,0.63,0.08,0.92c0,0.58-0.1,1.14-0.29,1.68c-0.19,0.54-0.5,1.03-0.92,1.47
			s-0.96,0.79-1.61,1.05s-1.42,0.39-2.33,0.39c-0.68,0-1.34-0.08-1.98-0.23c-0.64-0.15-1.21-0.42-1.71-0.83
			c-0.5-0.4-0.9-0.95-1.2-1.65c-0.3-0.7-0.45-1.61-0.45-2.73v-6.78h-2.31v-3.51h2.64l0.69-3.78h3.45V233.3z"/>
		<path class="st1" d="M22.45,273.26c0.12,0.44,0.29,0.81,0.53,1.11c0.23,0.3,0.5,0.54,0.79,0.72c0.3,0.18,0.62,0.31,0.96,0.38
			c0.34,0.07,0.66,0.1,0.96,0.1c0.5,0,0.96-0.09,1.38-0.28s0.63-0.48,0.63-0.89c0-0.26-0.08-0.48-0.25-0.66
			c-0.17-0.18-0.46-0.35-0.88-0.51l-2.7-1.14c-0.92-0.32-1.63-0.7-2.15-1.14c-0.51-0.44-0.89-0.87-1.14-1.29
			c-0.25-0.42-0.41-0.81-0.46-1.17c-0.06-0.36-0.09-0.63-0.09-0.81c0-0.78,0.16-1.46,0.48-2.04s0.75-1.07,1.31-1.47
			c0.55-0.4,1.19-0.7,1.92-0.9c0.73-0.2,1.5-0.3,2.32-0.3c0.44,0,0.91,0.04,1.41,0.12c0.5,0.08,1,0.24,1.49,0.47
			s0.96,0.56,1.42,0.99c0.46,0.43,0.87,0.99,1.23,1.67l-3.45,1.59c-0.1-0.3-0.24-0.55-0.41-0.75c-0.17-0.2-0.36-0.35-0.57-0.45
			s-0.42-0.17-0.63-0.21s-0.4-0.06-0.58-0.06c-0.42,0-0.81,0.11-1.17,0.33c-0.36,0.22-0.54,0.53-0.54,0.93
			c0,0.34,0.14,0.61,0.42,0.79c0.28,0.19,0.62,0.37,1.02,0.53l2.31,0.9c0.9,0.26,1.62,0.59,2.15,0.99c0.53,0.4,0.93,0.82,1.2,1.25
			c0.27,0.43,0.44,0.84,0.51,1.23c0.07,0.39,0.1,0.72,0.1,0.98c0,0.78-0.17,1.47-0.51,2.07s-0.79,1.1-1.37,1.5
			c-0.57,0.4-1.24,0.7-2.01,0.9c-0.77,0.2-1.58,0.3-2.42,0.3c-0.58,0-1.19-0.06-1.83-0.17c-0.64-0.11-1.26-0.31-1.86-0.6
			c-0.6-0.29-1.15-0.69-1.64-1.2c-0.49-0.51-0.87-1.17-1.13-1.97L22.45,273.26z"/>
		<path class="st1" d="M33.97,257h4.47v8.4c0.64-0.9,1.36-1.53,2.16-1.89c0.8-0.36,1.67-0.54,2.61-0.54c1.08,0,1.97,0.2,2.68,0.6
			c0.71,0.4,1.27,0.94,1.68,1.62c0.41,0.68,0.7,1.46,0.87,2.34c0.17,0.88,0.25,1.81,0.25,2.79v8.37h-4.47v-8.28
			c0-0.54-0.05-1.04-0.15-1.49c-0.1-0.45-0.26-0.84-0.49-1.19c-0.23-0.34-0.53-0.6-0.89-0.79c-0.36-0.19-0.8-0.28-1.32-0.28
			c-0.52,0-0.97,0.09-1.33,0.28c-0.37,0.19-0.68,0.46-0.92,0.79c-0.24,0.34-0.42,0.74-0.53,1.2c-0.11,0.46-0.17,0.96-0.17,1.5v8.25
			h-4.47V257z"/>
		<path class="st1" d="M67.36,263.3v15.39h-4.47v-2.25c-0.56,0.8-1.22,1.43-1.98,1.89c-0.76,0.46-1.71,0.69-2.85,0.69
			c-1.18,0-2.23-0.21-3.15-0.63c-0.92-0.42-1.71-1-2.36-1.73c-0.65-0.73-1.14-1.59-1.48-2.58c-0.34-0.99-0.51-2.04-0.51-3.17
			c0-1.08,0.16-2.1,0.48-3.06c0.32-0.96,0.79-1.8,1.42-2.54c0.63-0.73,1.41-1.3,2.33-1.72s1.98-0.63,3.18-0.63
			c1.04,0,1.99,0.23,2.85,0.69c0.86,0.46,1.55,1.04,2.07,1.74v-2.1H67.36z M55.03,270.95c0,0.62,0.09,1.2,0.27,1.74
			c0.18,0.54,0.44,1.01,0.78,1.41c0.34,0.4,0.75,0.72,1.25,0.94c0.49,0.23,1.04,0.35,1.67,0.35c0.54,0,1.05-0.09,1.54-0.27
			c0.49-0.18,0.92-0.44,1.29-0.8c0.37-0.35,0.66-0.78,0.87-1.3s0.31-1.13,0.31-1.83c0-1.44-0.38-2.56-1.15-3.38
			c-0.77-0.81-1.77-1.21-2.99-1.21c-0.62,0-1.17,0.12-1.63,0.34c-0.47,0.23-0.87,0.55-1.2,0.95s-0.58,0.86-0.75,1.38
			S55.03,270.35,55.03,270.95z"/>
		<path class="st1" d="M74.65,266.66c0.12-0.7,0.35-1.29,0.68-1.76c0.33-0.47,0.71-0.85,1.13-1.14s0.84-0.5,1.27-0.62
			s0.82-0.18,1.16-0.18c0.26,0,0.46,0.01,0.58,0.03c0.13,0.02,0.32,0.05,0.55,0.09v4.41c-0.32-0.08-0.66-0.14-1.02-0.17
			s-0.65-0.04-0.87-0.04c-0.42,0-0.83,0.06-1.23,0.18c-0.4,0.12-0.76,0.31-1.08,0.57c-0.32,0.26-0.58,0.58-0.77,0.96
			s-0.29,0.82-0.29,1.32v8.37H70.3V263.3h4.35V266.66z"/>
		<path class="st1" d="M96.28,275.99c-0.54,0.6-1.13,1.1-1.75,1.49c-0.63,0.39-1.26,0.7-1.89,0.93c-0.63,0.23-1.25,0.39-1.84,0.48
			c-0.6,0.09-1.16,0.14-1.68,0.14c-1.42,0-2.68-0.21-3.78-0.63c-1.1-0.42-2.03-0.99-2.78-1.71c-0.75-0.72-1.31-1.56-1.69-2.52
			c-0.38-0.96-0.57-1.99-0.57-3.09c0-1.14,0.21-2.2,0.63-3.18s1-1.83,1.75-2.57c0.75-0.73,1.65-1.3,2.69-1.72
			c1.04-0.42,2.18-0.63,3.42-0.63c1.06,0,2.09,0.19,3.09,0.56c1,0.37,1.89,0.93,2.67,1.68s1.41,1.69,1.88,2.83s0.71,2.47,0.71,3.99
			H84.73c0.04,0.96,0.47,1.76,1.3,2.39s1.96,0.94,3.41,0.94c0.8,0,1.57-0.17,2.32-0.52c0.75-0.35,1.4-0.78,1.94-1.31L96.28,275.99z
			 M88.72,266.6c-0.36,0-0.74,0.04-1.14,0.13c-0.4,0.09-0.78,0.24-1.14,0.45c-0.36,0.21-0.69,0.49-0.98,0.84
			c-0.29,0.35-0.5,0.79-0.64,1.31h7.71c-0.08-0.5-0.25-0.92-0.51-1.26c-0.26-0.34-0.58-0.62-0.95-0.84
			c-0.37-0.22-0.76-0.38-1.17-0.48C89.49,266.65,89.1,266.6,88.72,266.6z"/>
		<path class="st1" d="M98.86,257h4.47v8.4c0.64-0.9,1.36-1.53,2.16-1.89c0.8-0.36,1.67-0.54,2.61-0.54c1.08,0,1.97,0.2,2.68,0.6
			c0.71,0.4,1.27,0.94,1.68,1.62c0.41,0.68,0.7,1.46,0.87,2.34c0.17,0.88,0.25,1.81,0.25,2.79v8.37h-4.47v-8.28
			c0-0.54-0.05-1.04-0.15-1.49c-0.1-0.45-0.26-0.84-0.49-1.19c-0.23-0.34-0.53-0.6-0.89-0.79c-0.36-0.19-0.8-0.28-1.32-0.28
			c-0.52,0-0.97,0.09-1.33,0.28c-0.37,0.19-0.68,0.46-0.92,0.79c-0.24,0.34-0.42,0.74-0.53,1.2c-0.11,0.46-0.17,0.96-0.17,1.5v8.25
			h-4.47V257z"/>
		<path class="st1" d="M115.39,270.98c0-1.2,0.23-2.29,0.69-3.27c0.46-0.98,1.08-1.82,1.86-2.54c0.78-0.71,1.68-1.25,2.7-1.63
			c1.02-0.38,2.09-0.57,3.21-0.57s2.19,0.2,3.21,0.59c1.02,0.39,1.92,0.94,2.7,1.63c0.78,0.7,1.4,1.54,1.86,2.52
			c0.46,0.98,0.69,2.07,0.69,3.27s-0.23,2.29-0.69,3.29c-0.46,0.99-1.08,1.83-1.86,2.53c-0.78,0.7-1.68,1.25-2.7,1.64
			c-1.02,0.39-2.09,0.58-3.21,0.58s-2.19-0.19-3.21-0.57c-1.02-0.38-1.92-0.92-2.7-1.63c-0.78-0.71-1.4-1.56-1.86-2.55
			C115.62,273.27,115.39,272.18,115.39,270.98z M119.74,270.98c0,0.6,0.11,1.16,0.33,1.68s0.52,0.96,0.9,1.33s0.82,0.66,1.32,0.87
			c0.5,0.21,1.02,0.32,1.56,0.32c0.56,0,1.08-0.11,1.58-0.32c0.49-0.21,0.92-0.5,1.3-0.88s0.68-0.83,0.9-1.33
			c0.22-0.51,0.33-1.06,0.33-1.67s-0.11-1.15-0.33-1.65c-0.22-0.5-0.52-0.94-0.9-1.32c-0.38-0.38-0.82-0.67-1.3-0.88
			c-0.49-0.21-1.02-0.31-1.58-0.31c-0.54,0-1.06,0.1-1.56,0.31c-0.5,0.21-0.94,0.5-1.32,0.87s-0.68,0.81-0.9,1.32
			S119.74,270.38,119.74,270.98z"/>
		<path class="st1" d="M134.35,278.69V257h4.47v21.69H134.35z"/>
		<path class="st1" d="M157.72,257v21.69h-4.47v-2.25c-0.56,0.8-1.22,1.43-1.98,1.89c-0.76,0.46-1.71,0.69-2.85,0.69
			c-1.18,0-2.23-0.21-3.15-0.63c-0.92-0.42-1.71-1-2.36-1.73c-0.65-0.73-1.14-1.59-1.48-2.58c-0.34-0.99-0.51-2.04-0.51-3.17
			c0-1.08,0.16-2.1,0.48-3.06c0.32-0.96,0.79-1.8,1.42-2.54c0.63-0.73,1.41-1.3,2.33-1.72s1.98-0.63,3.18-0.63
			c1.04,0,1.99,0.23,2.85,0.69c0.86,0.46,1.55,1.04,2.07,1.74V257H157.72z M145.39,270.95c0,0.62,0.09,1.2,0.27,1.74
			c0.18,0.54,0.44,1.01,0.78,1.41c0.34,0.4,0.75,0.72,1.25,0.94c0.49,0.23,1.04,0.35,1.67,0.35c0.54,0,1.05-0.09,1.54-0.27
			c0.49-0.18,0.92-0.44,1.29-0.8c0.37-0.35,0.66-0.78,0.87-1.3s0.31-1.13,0.31-1.83c0-1.44-0.38-2.56-1.15-3.38
			c-0.77-0.81-1.77-1.21-2.99-1.21c-0.62,0-1.17,0.12-1.63,0.34c-0.47,0.23-0.87,0.55-1.2,0.95s-0.58,0.86-0.75,1.38
			S145.39,270.35,145.39,270.95z"/>
		<path class="st1" d="M175.72,275.99c-0.54,0.6-1.13,1.1-1.75,1.49c-0.63,0.39-1.26,0.7-1.89,0.93c-0.63,0.23-1.25,0.39-1.84,0.48
			c-0.6,0.09-1.16,0.14-1.68,0.14c-1.42,0-2.68-0.21-3.78-0.63c-1.1-0.42-2.03-0.99-2.78-1.71c-0.75-0.72-1.31-1.56-1.69-2.52
			c-0.38-0.96-0.57-1.99-0.57-3.09c0-1.14,0.21-2.2,0.63-3.18s1-1.83,1.75-2.57c0.75-0.73,1.65-1.3,2.69-1.72
			c1.04-0.42,2.18-0.63,3.42-0.63c1.06,0,2.09,0.19,3.09,0.56c1,0.37,1.89,0.93,2.67,1.68s1.41,1.69,1.88,2.83s0.71,2.47,0.71,3.99
			h-12.39c0.04,0.96,0.47,1.76,1.3,2.39s1.96,0.94,3.41,0.94c0.8,0,1.57-0.17,2.32-0.52c0.75-0.35,1.4-0.78,1.94-1.31L175.72,275.99
			z M168.16,266.6c-0.36,0-0.74,0.04-1.14,0.13c-0.4,0.09-0.78,0.24-1.14,0.45c-0.36,0.21-0.69,0.49-0.98,0.84
			c-0.29,0.35-0.5,0.79-0.64,1.31h7.71c-0.08-0.5-0.25-0.92-0.51-1.26c-0.26-0.34-0.58-0.62-0.95-0.84
			c-0.37-0.22-0.76-0.38-1.17-0.48C168.93,266.65,168.54,266.6,168.16,266.6z"/>
		<path class="st1" d="M182.62,266.66c0.12-0.7,0.35-1.29,0.68-1.76c0.33-0.47,0.71-0.85,1.13-1.14s0.84-0.5,1.27-0.62
			s0.82-0.18,1.16-0.18c0.26,0,0.46,0.01,0.58,0.03c0.13,0.02,0.32,0.05,0.55,0.09v4.41c-0.32-0.08-0.66-0.14-1.02-0.17
			s-0.65-0.04-0.87-0.04c-0.42,0-0.83,0.06-1.23,0.18c-0.4,0.12-0.76,0.31-1.08,0.57c-0.32,0.26-0.58,0.58-0.77,0.96
			s-0.29,0.82-0.29,1.32v8.37h-4.47V263.3h4.35V266.66z"/>
		<path class="st1" d="M191.44,273.26c0.12,0.44,0.29,0.81,0.53,1.11c0.23,0.3,0.5,0.54,0.79,0.72c0.3,0.18,0.62,0.31,0.96,0.38
			c0.34,0.07,0.66,0.1,0.96,0.1c0.5,0,0.96-0.09,1.38-0.28s0.63-0.48,0.63-0.89c0-0.26-0.08-0.48-0.25-0.66
			c-0.17-0.18-0.46-0.35-0.88-0.51l-2.7-1.14c-0.92-0.32-1.63-0.7-2.15-1.14c-0.51-0.44-0.89-0.87-1.14-1.29
			c-0.25-0.42-0.41-0.81-0.46-1.17c-0.06-0.36-0.09-0.63-0.09-0.81c0-0.78,0.16-1.46,0.48-2.04s0.75-1.07,1.31-1.47
			c0.55-0.4,1.19-0.7,1.92-0.9c0.73-0.2,1.5-0.3,2.32-0.3c0.44,0,0.91,0.04,1.41,0.12c0.5,0.08,1,0.24,1.49,0.47
			s0.96,0.56,1.42,0.99c0.46,0.43,0.87,0.99,1.23,1.67l-3.45,1.59c-0.1-0.3-0.24-0.55-0.41-0.75c-0.17-0.2-0.36-0.35-0.57-0.45
			s-0.42-0.17-0.63-0.21s-0.4-0.06-0.58-0.06c-0.42,0-0.81,0.11-1.17,0.33c-0.36,0.22-0.54,0.53-0.54,0.93
			c0,0.34,0.14,0.61,0.42,0.79c0.28,0.19,0.62,0.37,1.02,0.53l2.31,0.9c0.9,0.26,1.62,0.59,2.15,0.99c0.53,0.4,0.93,0.82,1.2,1.25
			c0.27,0.43,0.44,0.84,0.51,1.23c0.07,0.39,0.1,0.72,0.1,0.98c0,0.78-0.17,1.47-0.51,2.07s-0.79,1.1-1.37,1.5
			c-0.57,0.4-1.24,0.7-2.01,0.9c-0.77,0.2-1.58,0.3-2.42,0.3c-0.58,0-1.19-0.06-1.83-0.17c-0.64-0.11-1.26-0.31-1.86-0.6
			c-0.6-0.29-1.15-0.69-1.64-1.2c-0.49-0.51-0.87-1.17-1.13-1.97L191.44,273.26z"/>
		<path class="st1" d="M202.36,276.44c0-0.76,0.27-1.39,0.79-1.89c0.53-0.5,1.21-0.75,2.03-0.75c0.8,0,1.47,0.25,2.03,0.75
			c0.55,0.5,0.82,1.13,0.82,1.89c0,0.74-0.27,1.35-0.82,1.85c-0.55,0.49-1.23,0.73-2.03,0.73c-0.82,0-1.5-0.25-2.03-0.73
			C202.62,277.79,202.36,277.18,202.36,276.44z"/>
	</g>
</g>
</svg>
