<svg enable-background="new 0 0 300 600" viewBox="0 0 300 600" xmlns="http://www.w3.org/2000/svg"><g fill="#fff"><path d="m84.3 181.4-5.9-9.7h4.9l3.2 5.7 3.2-5.7h4.8l-5.9 9.7v5.9h-4.3z"/><path d="m92.2 181.3c0-3.5 2.9-6.4 6.5-6.3h.2c3.5-.2 6.4 2.5 6.6 6v.2c-.1 3.5-3 6.3-6.5 6.3h-.1c-3.5.1-6.4-2.6-6.6-6-.1-.1-.1-.1-.1-.2zm9.2 0c.1-1.4-1.1-2.7-2.5-2.7 0 0 0 0-.1 0-1.4 0-2.5 1.1-2.5 2.5v.2c-.1 1.4 1 2.7 2.5 2.7h.1c1.4 0 2.5-1.1 2.5-2.5 0-.1 0-.1 0-.2z"/><path d="m106.8 183.1v-7.8h4.2v6.5c0 1.3.7 2 1.7 2s1.8-.8 1.8-1.8c0-.1 0-.2 0-.2v-6.5h4.2v12h-4.2v-1.7c-.8 1.2-2.2 1.9-3.6 1.9-2.6 0-4.1-1.7-4.1-4.4z"/><path d="m120.5 175.3h4.2v2.4c.5-1.7 2.1-2.7 3.8-2.6v4.4h-.4c-2.2 0-3.4 1.3-3.4 4v3.7h-4.2z"/><path d="m135.3 175.3h4.2v1.6c.8-1.2 2.2-1.9 3.6-1.9 2.9 0 5.3 2.4 5.3 6.2 0 3.9-2.5 6.3-5.3 6.3-1.4 0-2.8-.6-3.7-1.7v5h-4.2v-15.5zm9 6c.2-1.4-.8-2.6-2.2-2.7s-2.6.8-2.7 2.2v.5c-.2 1.4.8 2.6 2.2 2.7s2.6-.8 2.7-2.2c.1-.2.1-.4 0-.5z"/><path d="m149.9 171.1h4.2v16.2h-4.2z"/><path d="m155.5 183.8c0-2.6 1.9-3.8 4.7-3.8 1 0 2 .1 2.9.5v-.2c0-1.3-.8-2-2.4-2-1.1 0-2.3.2-3.3.7l-.9-2.9c1.5-.6 3.2-1 4.9-.9 2.1 0 3.6.5 4.6 1.5.9 1 1.4 2.4 1.3 3.8v6.9h-4.1v-1.4c-.9 1-2.2 1.6-3.6 1.5-2.4 0-4.1-1.3-4.1-3.7zm7.6-.9v-.6c-.5-.2-1.1-.3-1.7-.3-1.2 0-1.9.6-1.9 1.5 0 .7.6 1.3 1.3 1.3h.2c1.1.1 2-.7 2.1-1.8 0 0 0 0 0-.1z"/><path d="m168.5 181.3c0-3.4 2.7-6.2 6.2-6.3h.2c2.1-.1 4 .9 5.1 2.7l-2.8 2.1c-.5-.8-1.3-1.2-2.2-1.3-1.4.1-2.4 1.3-2.4 2.6-.1 1.4.9 2.6 2.2 2.7h.2c.9 0 1.8-.5 2.3-1.2l2.8 2c-1.2 1.8-3.2 2.9-5.3 2.8-3.4.1-6.2-2.6-6.3-6 0 0 0 0 0-.1z"/><path d="m180.4 181.3c-.1-3.3 2.4-6.1 5.7-6.3h.3c4.1 0 6 3 6 6.6v.9h-8c.2 1.2 1.3 2.1 2.6 2 1 0 2-.4 2.7-1.2l2.3 1.9c-1.2 1.6-3.2 2.5-5.2 2.4-3.3.3-6.2-2.2-6.4-5.5-.1-.3-.1-.5 0-.8zm8.1-1c0-1.2-.9-2.2-2.1-2.2-1.1 0-1.9.8-2.1 2.2z"/><path d="m200.3 183.5v-4.9h-1.4v-3.4h1.4v-3h4.2v3h2.8v3.4h-2.8v4.1c0 .8.4 1.2 1.2 1.2.6 0 1.1-.1 1.6-.4v3.3c-.9.5-1.9.7-2.9.7-2.6 0-4.1-1.1-4.1-4z"/><path d="m207.9 181.3c.2-3.7 3.3-6.5 7-6.3 3.4.2 6.1 2.9 6.3 6.3-.1 3.5-3 6.3-6.5 6.3-.1 0-.1 0-.2 0-3.5.1-6.4-2.6-6.6-6 0-.1 0-.2 0-.3zm9.1 0c.1-1.4-1.1-2.7-2.5-2.7 0 0 0 0-.1 0-1.4 0-2.5 1.1-2.5 2.5v.2c-.1 1.4 1 2.7 2.5 2.7h.1c1.4 0 2.5-1.2 2.5-2.6 0 0 0 0 0-.1z"/><path d="m56.2 215.5 1.3-2.8c1.3.7 2.7 1.1 4.2 1.1 2.1 0 3.1-1 3.1-2.9v-.5c-.9 1.1-2.2 1.8-3.7 1.8-2.9.1-5.3-2.2-5.4-5.1 0-.1 0-.3 0-.4-.2-2.9 2-5.4 4.9-5.6h.3c1.4 0 2.8.6 3.8 1.7v-1.4h4.3v9.1c0 2.2-.5 3.8-1.6 4.8s-2.8 1.7-5.3 1.7c-2-.1-4.1-.6-5.9-1.5zm8.7-8.9c-.1-1.4-1.3-2.4-2.6-2.3-1.2.1-2.2 1.1-2.3 2.3.1 1.4 1.3 2.4 2.6 2.3 1.2 0 2.2-1 2.3-2.3z"/><path d="m70.8 201.3h4.2v2.4c.5-1.7 2.1-2.7 3.8-2.6v4.4h-.4c-2.2 0-3.4 1.3-3.4 4v3.7h-4.2z"/><path d="m79.2 207.3c.2-3.7 3.3-6.5 7-6.3 3.4.2 6.1 2.9 6.3 6.3-.1 3.5-3 6.3-6.5 6.3h-.1c-3.5.1-6.4-2.6-6.6-6.1-.1 0-.1-.1-.1-.2zm9.2 0c.1-1.4-1.1-2.7-2.5-2.7 0 0 0 0-.1 0-1.4 0-2.5 1.1-2.5 2.5v.2c-.1 1.4 1 2.7 2.5 2.7h.1c1.4 0 2.5-1.1 2.5-2.5 0-.1 0-.1 0-.2z"/><path d="m92.4 201.3h4.1l1.6 6 1.9-6.1h3.5l1.9 6.1 1.6-6.1h4.1l-3.7 12.1h-3.6l-2-6.2-2 6.2h-3.6z"/><path d="m125.8 201.3h4.3l-4.4 11.7c-1.1 2.8-2.2 3.9-4.6 3.9-1.3 0-2.7-.3-3.8-1l1.3-3c.6.4 1.2.6 1.8.6.4 0 .8-.2 1-.5l-4.7-11.8h4.4l2.4 7.2z"/><path d="m130 207.3c.1-3.5 3-6.3 6.5-6.3h.1c3.5-.2 6.4 2.5 6.6 6v.2c-.1 3.5-3 6.3-6.5 6.3h-.1c-3.5.1-6.4-2.6-6.6-6 0 0 0-.1 0-.2zm9.2 0c.1-1.4-1.1-2.7-2.5-2.7 0 0 0 0-.1 0-1.4 0-2.5 1.1-2.5 2.5v.2c-.1 1.4 1.1 2.6 2.5 2.7h.1c1.4 0 2.5-1.1 2.5-2.5 0-.1 0-.1 0-.2z"/><path d="m144.5 209.1v-7.8h4.2v6.5c0 1.3.7 2 1.7 2s1.8-.8 1.8-1.8c0-.1 0-.2 0-.2v-6.5h4.2v12h-4.2v-1.7c-.8 1.2-2.2 1.9-3.6 1.9-2.5 0-4.1-1.7-4.1-4.4z"/><path d="m158.3 201.3h4.2v2.4c.5-1.7 2.1-2.7 3.8-2.6v4.4h-.4c-2.2 0-3.4 1.3-3.4 4v3.7h-4.2z"/><path d="m172.6 207.3c-.1-3.3 2.4-6.1 5.7-6.3h.3c4.1 0 6 3 6 6.6v.9h-8c.2 1.2 1.3 2.1 2.6 2 1 0 2-.5 2.7-1.2l2.3 1.9c-1.2 1.6-3.2 2.5-5.2 2.4-3.3.3-6.2-2.2-6.4-5.5 0-.3 0-.5 0-.8zm8.1-1c0-1.2-.9-2.2-2.1-2.2-1.1 0-1.9.8-2.1 2.2z"/><path d="m190.8 204.3 1.8-3h4.4l-3.9 5.9 4 6.1h-4.5l-1.9-3.1-1.9 3.1h-4.4l4-6-3.9-6h4.5z"/><path d="m198.1 201.3h4.2v1.6c.8-1.2 2.2-1.9 3.6-1.9 2.9 0 5.3 2.4 5.3 6.2 0 3.9-2.5 6.3-5.3 6.3-1.4 0-2.8-.6-3.7-1.7v5h-4.2zm9 6c.2-1.4-.8-2.6-2.2-2.7s-2.6.8-2.7 2.2v.5c-.2 1.4.8 2.6 2.2 2.7s2.6-.8 2.7-2.2c0-.2 0-.4 0-.5z"/><path d="m212.2 207.3c.2-3.7 3.4-6.4 7.1-6.2 3.3.2 6 2.9 6.2 6.2-.1 3.5-3 6.3-6.5 6.3h-.1c-3.5.1-6.4-2.6-6.6-6-.1-.1-.1-.2-.1-.3zm9.1 0c.1-1.4-1.1-2.7-2.5-2.7 0 0 0 0-.1 0-1.4 0-2.5 1.1-2.5 2.5v.2c-.1 1.4 1.1 2.7 2.5 2.7h.1c1.4 0 2.5-1.1 2.5-2.5 0-.1 0-.1 0-.2z"/><path d="m226.8 201.3h4.2v2.4c.5-1.7 2.1-2.7 3.8-2.6v4.4h-.4c-2.2 0-3.4 1.3-3.4 4v3.7h-4.2z"/><path d="m237.4 209.5v-4.9h-1.4v-3.4h1.4v-3h4.2v3h2.8v3.4h-2.8v4.1c0 .8.4 1.2 1.2 1.2.6 0 1.1-.1 1.6-.4v3.3c-.9.5-1.9.7-2.9.7-2.6 0-4.1-1.1-4.1-4z"/><path d="m86.4 223.1h4.2v8.2l3.3-4h4.8l-4.2 4.8 4.3 7.2h-4.7l-2.4-4.1-1.1 1.3v2.8h-4.2z"/><path d="m99.4 227.3h4.2v1.7c.8-1.2 2.1-2 3.6-2 2.6 0 4.1 1.7 4.1 4.4v7.9h-4.2v-6.5c0-1.3-.7-2-1.7-2s-1.8.7-1.8 2v6.5h-4.2z"/><path d="m112.6 233.3c.1-3.5 3-6.3 6.5-6.3h.1c3.5-.2 6.4 2.5 6.6 6v.2c-.1 3.5-3 6.3-6.5 6.3-.1 0-.1 0-.2 0-3.5.1-6.4-2.6-6.6-6 .1-.1.1-.1.1-.2zm9.2 0c.1-1.5-1.1-2.7-2.5-2.7 0 0 0 0-.1 0-1.4 0-2.5 1.1-2.5 2.5v.2c-.1 1.4 1.1 2.6 2.5 2.7h.1c1.4 0 2.5-1.1 2.5-2.5 0-.1 0-.1 0-.2z"/><path d="m125.8 227.3h4.1l1.6 6 1.9-6.1h3.5l1.9 6.1 1.6-6.1h4.1l-3.7 12.1h-3.8l-2-6.2-2 6.2h-3.6z"/><path d="m145.4 223.1h4.2v16.2h-4.2z"/><path d="m151.1 233.3c-.2-3.3 2.4-6.1 5.7-6.3h.3c4.1 0 6 3 6 6.6v.9h-8c.2 1.2 1.3 2.1 2.6 2 1 0 2-.4 2.7-1.2l2.3 1.9c-1.2 1.6-3.2 2.5-5.2 2.4-3.3.3-6.2-2.2-6.4-5.5 0-.3 0-.5 0-.8zm8.1-1c0-1.2-.9-2.1-2.1-2.2-1.1 0-1.9.9-2.1 2.2z"/><path d="m164.1 233.3c0-3.9 2.5-6.3 5.3-6.3 1.4 0 2.8.6 3.7 1.7v-5.7h4.2v16.2h-4.2v-1.6c-.8 1.2-2.2 1.9-3.6 1.9-2.9 0-5.4-2.3-5.4-6.2zm9.1 0c.2-1.4-.8-2.6-2.2-2.7s-2.6.8-2.7 2.2v.5c-.2 1.4.8 2.6 2.2 2.7s2.6-.8 2.7-2.2c0-.1 0-.3 0-.5z"/><path d="m179.1 241.5 1.4-2.8c1.3.7 2.7 1.1 4.2 1.1 2.1 0 3.1-1 3.1-3v-.5c-.9 1.1-2.2 1.8-3.7 1.8-2.9.1-5.3-2.2-5.3-5.1 0-.1 0-.3 0-.4-.2-2.9 2-5.4 4.9-5.6h.3c1.4 0 2.8.6 3.8 1.7v-1.4h4.2v9.1c0 2.2-.5 3.8-1.6 4.8s-2.8 1.7-5.3 1.7c-2.1 0-4.2-.5-6-1.4zm8.7-8.9c-.1-1.4-1.3-2.4-2.6-2.3-1.2.1-2.2 1.1-2.3 2.3.1 1.4 1.3 2.4 2.6 2.3 1.2 0 2.2-1 2.3-2.3z"/><path d="m193.2 233.3c-.2-3.3 2.4-6.1 5.7-6.3h.3c4.1 0 6 3 6 6.6v.9h-8c.2 1.2 1.4 2.1 2.6 2 1 0 2-.4 2.7-1.2l2.3 1.9c-1.2 1.6-3.2 2.5-5.2 2.4-3.3.2-6.2-2.3-6.5-5.6.1-.2.1-.5.1-.7zm8.2-1c0-1.2-.9-2.1-2.1-2.2-1.1 0-1.9.9-2.1 2.2z"/><path d="m207.6 237.3c.1-1.4 1.3-2.4 2.6-2.3 1.2.1 2.2 1.1 2.3 2.3 0 .7-.3 1.3-.7 1.7-1 1-2.5.9-3.5 0-.4-.5-.7-1.1-.7-1.7z"/><path d="m44 249.8h7.3c1.8-.1 3.7.4 5.1 1.7.9 1 1.4 2.3 1.3 3.6.1 2.1-1.2 4-3.2 4.8l3.7 5.4h-5l-3.1-4.7h-1.9v4.7h-4.2zm7.2 7.4c1.5 0 2.3-.7 2.3-1.8v-.1c0-1.2-.9-1.9-2.3-1.9h-2.9v3.8z"/><path d="m58.7 261.8c0-2.5 1.9-3.8 4.7-3.8 1 0 2 .1 2.9.5v-.2c0-1.3-.8-2-2.4-2-1.1 0-2.3.2-3.3.7l-.9-3c1.5-.6 3.2-1 4.9-.9 1.7-.1 3.3.4 4.6 1.5.9 1 1.4 2.4 1.3 3.8v6.9h-4.1v-1.3c-.9 1-2.2 1.6-3.5 1.5-2.5 0-4.2-1.3-4.2-3.7zm7.6-.9v-.6c-.5-.2-1.1-.3-1.7-.3-1.2 0-1.9.6-1.9 1.5 0 .7.6 1.3 1.3 1.3h.2c1.1.1 2-.7 2.1-1.8 0 0 0 0 0-.1z"/><path d="m72.1 253.3h4.2v1.6c.8-1.2 2.2-1.9 3.7-1.9 2.9 0 5.3 2.4 5.3 6.2 0 3.9-2.5 6.3-5.3 6.3-1.4 0-2.8-.6-3.7-1.7v5h-4.3v-15.5zm9 6c.1-1.4-.9-2.6-2.2-2.7-1.4-.1-2.6.9-2.7 2.2v.4c-.1 1.4.9 2.6 2.2 2.7 1.4.1 2.6-.9 2.7-2.2 0-.1 0-.3 0-.4z"/><path d="m86.6 261.1v-7.8h4.2v6.5c0 1.3.7 2 1.7 2s1.8-.8 1.8-1.8c0-.1 0-.2 0-.2v-6.5h4.2v12h-4.2v-1.7c-.8 1.2-2.2 1.9-3.6 1.9-2.6 0-4.1-1.7-4.1-4.4z"/><path d="m99.6 267.3c1.5-.2 2.3-.9 2.2-2.1h-1.7v-4.3h4.4v3.5c0 3.3-1.8 4.4-4.5 4.5z"/><path d="m117.5 249.6h4.1l6.6 15.6h-4.6l-1.1-2.8h-6l-1.1 2.8h-4.5zm3.8 9.5-1.7-4.4-1.8 4.4z"/><path d="m129.1 249.1h4.2v8.2l3.3-4h4.8l-4.2 4.8 4.3 7.2h-4.7l-2.4-4.1-1.1 1.3v2.8h-4.2z"/><path d="m141 259.3c.1-3.5 3-6.3 6.5-6.3h.1c3.5-.2 6.4 2.5 6.6 6v.2c-.1 3.5-3 6.3-6.5 6.3-.1 0-.1 0-.2 0-3.5.1-6.4-2.6-6.6-6 .1 0 .1-.1.1-.2zm9.2 0c.1-1.5-1.1-2.7-2.5-2.7 0 0 0 0-.1 0-1.4 0-2.5 1.1-2.5 2.5v.2c-.1 1.4 1.1 2.6 2.5 2.7h.1c1.4 0 2.5-1.2 2.5-2.6-.1 0-.1 0 0-.1z"/><path d="m154.5 267.3c1.5-.2 2.3-.9 2.2-2.1h-1.7v-4.3h4.4v3.5c0 3.3-1.8 4.4-4.6 4.5z"/><path d="m170.9 253.5h-4.6v-3.8h13.6v3.8h-4.7v11.8h-4.3z"/><path d="m180.3 261.1v-7.8h4.2v6.5c0 1.3.7 2 1.7 2s1.8-.8 1.8-1.8c0-.1 0-.2 0-.2v-6.5h4.2v12h-4.2v-1.7c-.8 1.2-2.1 1.9-3.6 1.9-2.5 0-4.1-1.7-4.1-4.4zm1.8-11.6h8.3v2.5h-8.3z"/><path d="m194.1 249.1h4.2v5.8c.8-1.2 2.2-1.9 3.6-1.9 2.6 0 4.1 1.7 4.1 4.4v7.9h-4.2v-6.5c0-1.3-.7-2-1.7-2s-1.8.7-1.8 2v6.5h-4.2z"/><path d="m207.2 259.3c.2-3.7 3.4-6.4 7-6.2 3.3.2 6 2.8 6.2 6.2-.1 3.5-3 6.3-6.5 6.3-.1 0-.1 0-.2 0-3.5.1-6.4-2.6-6.6-6 .1-.1.1-.2.1-.3zm9.2 0c.1-1.5-1.1-2.7-2.5-2.7 0 0 0 0-.1 0-1.4 0-2.5 1.1-2.5 2.5v.2c-.1 1.4 1.1 2.6 2.5 2.7h.1c1.4 0 2.5-1.1 2.5-2.5 0-.1 0-.1 0-.2z"/><path d="m221.9 253.3h4.2v1.7c.8-1.2 2.1-2 3.6-2 2.6 0 4.1 1.7 4.1 4.4v7.9h-4.2v-6.5c0-1.3-.7-2-1.7-2s-1.8.7-1.8 2v6.5h-4.2z"/><path d="m235 259.3c.2-3.7 3.3-6.5 7-6.3 3.4.2 6.1 2.9 6.3 6.2-.1 3.5-3 6.3-6.5 6.3-.1 0-.1 0-.2 0-3.5.1-6.4-2.6-6.6-6 0 0 0-.1 0-.2zm9.2 0c.1-1.5-1.1-2.7-2.5-2.7-1.4 0-2.5 1.1-2.5 2.5v.2c-.1 1.4 1.1 2.6 2.5 2.7h.1c1.4 0 2.5-1.1 2.6-2.5-.2 0-.2-.1-.2-.2z"/><path d="m250.3 263.3c0-.6.3-1.3.7-1.7 1-1 2.5-.9 3.5 0 .5.5.7 1.1.7 1.7 0 .7-.3 1.3-.7 1.7-1 .9-2.5.9-3.5 0-.4-.4-.7-1.1-.7-1.7z"/></g></svg>