<svg xmlns="http://www.w3.org/2000/svg" xmlns:xlink="http://www.w3.org/1999/xlink" viewBox="0 0 81 13.5"><defs><style>.cls-1{fill:none;}.cls-2{clip-path:url(#clip-path);}.cls-3{fill:url(#linear-gradient);}.cls-4{fill:#fff;}</style><clipPath id="clip-path" transform="translate(0 0)"><rect class="cls-1" width="81" height="13.5"/></clipPath><linearGradient id="linear-gradient" x1="-2870.06" y1="-552.77" x2="-2869.37" y2="-552.77" gradientTransform="matrix(116, 0, 0, -116, 332927.51, -64114.95)" gradientUnits="userSpaceOnUse"><stop offset="0" stop-color="#916942"/><stop offset="0" stop-color="#916942"/><stop offset="0.12" stop-color="#99724c"/><stop offset="0.31" stop-color="#b08b68"/><stop offset="0.44" stop-color="#c19e7e"/><stop offset="0.71" stop-color="#ba9472"/><stop offset="1" stop-color="#9e7147"/></linearGradient></defs><title>cta-en-small_1</title><g id="Layer_2" data-name="Layer 2"><g id="Layer_1-2" data-name="Layer 1"><g class="cls-2"><rect class="cls-3" width="81" height="13.5"/></g><path class="cls-4" d="M13,7.05,15.7,9.32h-.43L12.76,7.24V9.32H12V4.18h1.44c1,0,1.89.41,1.89,1.44s-.86,1.43-1.89,1.43Zm.28-.28c.9,0,1.28-.39,1.28-1.15s-.38-1.16-1.28-1.16h-.49V6.77Z" transform="translate(0 0)"/><path class="cls-4" d="M17.61,4.46V6.55h1.88v.29H17.61V9h2.25v.28h-3V4.18h3v.28Z" transform="translate(0 0)"/><path class="cls-4" d="M25.4,5a2.72,2.72,0,0,0-1.74-.58,2.13,2.13,0,0,0-1.95,2.38,2.12,2.12,0,0,0,1.95,2.38,2.16,2.16,0,0,0,1.27-.33V6.7h.76V8.86a3.47,3.47,0,0,1-2,.56,2.67,2.67,0,1,1,0-5.34,3.55,3.55,0,0,1,1.74.42Z" transform="translate(0 0)"/><path class="cls-4" d="M27.25,4.18H28V9.32h-.76Z" transform="translate(0 0)"/><path class="cls-4" d="M32.18,4.73a2,2,0,0,0-1.08-.34c-.49,0-.92.22-.92.67s.39.69,1,1.11c.88.6,1.5,1,1.5,1.86,0,1-1,1.36-1.77,1.36a2.47,2.47,0,0,1-1.5-.47V8.49a2.32,2.32,0,0,0,1.51.61c.63,0,1.07-.31,1.07-.85s-.34-.8-1-1.31c-.87-.62-1.4-1-1.4-1.68s.78-1.16,1.55-1.16a2.66,2.66,0,0,1,1.07.22Z" transform="translate(0 0)"/><path class="cls-4" d="M37.32,4.46H35.75V9.32H35V4.46H33.42V4.18h3.9Z" transform="translate(0 0)"/><path class="cls-4" d="M39.44,4.46V6.55h1.89v.29H39.44V9H41.7v.28h-3V4.18h3v.28Z" transform="translate(0 0)"/><path class="cls-4" d="M44.1,7.05l2.73,2.27H46.4L43.89,7.24V9.32h-.76V4.18h1.44c1,0,1.88.41,1.88,1.44s-.85,1.43-1.88,1.43Zm.28-.28c.9,0,1.27-.39,1.27-1.15s-.37-1.16-1.27-1.16h-.49V6.77Z" transform="translate(0 0)"/><path class="cls-4" d="M54.25,4.18V9.41l-3.8-3.95V9.32h-.29V4.09L54,8V4.18Z" transform="translate(0 0)"/><path class="cls-4" d="M58.38,9.42a2.67,2.67,0,1,1,2.76-2.67A2.64,2.64,0,0,1,58.38,9.42Zm1.95-2.67c0-1.4-.79-2.38-1.95-2.38s-2,1-2,2.38.78,2.38,2,2.38S60.33,8.16,60.33,6.75Z" transform="translate(0 0)"/><path class="cls-4" d="M62.58,4.18,64.06,8,65.6,4.09,67.29,8l1.42-3.86H69L67.09,9.41l-1.73-4-1.55,4-2-5.23Z" transform="translate(0 0)"/></g></g></svg>