<svg xmlns="http://www.w3.org/2000/svg" viewBox="0 0 166.34 12.05"><defs><style>.cls-1{fill:#a5714e;}</style></defs><title>t2-ch-x50</title><g id="Layer_2" data-name="Layer 2"><g id="Layer_2-2" data-name="Layer 2"><path class="cls-1" d="M4.11.44A18.36,18.36,0,0,1,2.79,3.2V12h-1V4.71A13.62,13.62,0,0,1,.55,6.28a4.58,4.58,0,0,0-.55-1A14.65,14.65,0,0,0,3.2.17ZM11.8,10.53v.94H3.72v-.94H8.26A58.8,58.8,0,0,0,9.49,4.09l1,.19c-.34,2-.87,4.52-1.34,6.25Zm-.53-7.12h-7V2.47h7ZM6,9.93a46.63,46.63,0,0,0-.88-5.54L6,4.2a50.38,50.38,0,0,1,1,5.46Zm1.47-7.6A13.42,13.42,0,0,0,6.85.26L7.76,0a19.21,19.21,0,0,1,.65,2Z"/><path class="cls-1" d="M19,5a4.37,4.37,0,0,1,0,.44c-.15,4.07-.29,5.47-.66,5.93a.89.89,0,0,1-.74.41,9.16,9.16,0,0,1-1.2,0,2.3,2.3,0,0,0-.23-.88c.44,0,.81,0,1,0a.36.36,0,0,0,.39-.17c.23-.28.39-1.52.52-4.88H16.34c-.14,2.57-.52,4.7-1.68,6.11a2.4,2.4,0,0,0-.72-.7c1.39-1.68,1.5-4.57,1.54-8.09H14.2v-.9h5.24v.9h-3c0,.61,0,1.22-.05,1.79ZM16.8,2.25A8,8,0,0,0,15.73.4l.85-.32a7.85,7.85,0,0,1,1.11,1.8ZM23.14.32a5.5,5.5,0,0,1-.23.72,9,9,0,0,0,3.18,3.54,3.85,3.85,0,0,0-.71.79A9.91,9.91,0,0,1,22.49,2a8.4,8.4,0,0,1-2.81,3.46A3.4,3.4,0,0,0,19,4.68,8,8,0,0,0,22.26.05Zm-2.2,8.36a19.37,19.37,0,0,1,3.55,2.18l-.65.84a18.71,18.71,0,0,0-3.51-2.29Zm2.42-1.14a18.87,18.87,0,0,0-2.23-1.79l.62-.63A16,16,0,0,1,24,6.83Z"/><path class="cls-1" d="M39.68,1.48v.83H28.35V1.48h5.32c-.12-.38-.27-.82-.4-1.18L34.2.08c.19.44.38,1,.52,1.4ZM39.26,11c0,.47-.12.66-.47.79a5.45,5.45,0,0,1-1.71.12,3,3,0,0,0-.32-.71c.56,0,1.16,0,1.32,0s.22,0,.22-.21V7.16H29.76V12h-.94V6.34H39.26ZM37.86,3v2.6H30.32V3Zm-1.17,7.55H32.11v.64h-.9V7.93h5.48Zm.18-6.83h-5.6V4.93h5.6Zm-4.76,4.9V9.87h3.71V8.66Z"/><path class="cls-1" d="M47,10.58A18,18,0,0,1,43,12a5.91,5.91,0,0,0-.7-.72,17.06,17.06,0,0,0,3.83-1.12Zm6.81-6H42.33V3.81h5.26V3.12H44.07V.87h3.52V.12h.95V.87h3.71V3.12H48.54v.69h5.29ZM44,10.06V5.2h8.39v4.86Zm.93-3.43h6.5V5.82H44.9ZM44.9,8h6.5V7.23H44.9Zm0,1.42h6.5V8.63H44.9Zm2.69-7V1.52H45v.94Zm.95-.94v.94h2.77V1.52Zm1.39,8.7a38.62,38.62,0,0,1,3.92,1.28L52.74,12a31.61,31.61,0,0,0-3.63-1.29Z"/><path class="cls-1" d="M61.11,7.32a24.74,24.74,0,0,0-1.48-2V12h-1V5.63a13.58,13.58,0,0,1-2.12,4,4.41,4.41,0,0,0-.52-.9,13.31,13.31,0,0,0,2.47-4.89H56.37V2.9h2.31V.12h1V2.9h1.85v.92H59.63v.3c.43.4,1.81,2,2.12,2.37Zm4.46-3.5a14.2,14.2,0,0,0,2.62,5.27,3.34,3.34,0,0,0-.75.75,15,15,0,0,1-2.11-4.29V12h-1V5.59a13.78,13.78,0,0,1-2.68,4.49,5.48,5.48,0,0,0-.57-.85,13.31,13.31,0,0,0,3-5.41H62V2.9h2.34V.12h1V2.9h2.45v.92Z"/><path class="cls-1" d="M76.6,3V4.72h4.21V9.27c0,.56-.13.84-.55,1a7.94,7.94,0,0,1-2.27.17,3.66,3.66,0,0,0-.34-1c.88,0,1.66,0,1.88,0s.3-.08.3-.26V5.67H76.6V12h-1V5.67h-3v4.82h-1V4.72h4V3H70.36V2h5.53A15,15,0,0,0,75,.31L76,0A10.55,10.55,0,0,1,77,2L76.8,2H82V3Z"/><path class="cls-1" d="M95.38,2.43V8.51h-1V7.77H90.66V12h-1V7.77H85.94v.81H85V2.43h4.67V.12h1V2.43Zm-5.72,4.4V3.38H85.94V6.83Zm4.73,0V3.38H90.66V6.83Z"/><path class="cls-1" d="M100.46,4.88A25.78,25.78,0,0,1,99.32,10l-1-.4a20.36,20.36,0,0,0,1.17-4.88Zm2.11-1.16v6.41c0,.59.16.71.9.71H106c.81,0,.92-.45,1-2.69a3,3,0,0,0,.91.43c-.14,2.46-.44,3.17-1.89,3.17h-2.61c-1.4,0-1.79-.35-1.79-1.64V3.72Zm.27-3.15a24.13,24.13,0,0,1,3.5,2.87l-.69.72a23.83,23.83,0,0,0-3.44-2.95Zm5.66,3.78a23.46,23.46,0,0,1,1.74,4.88l-.95.38a23.24,23.24,0,0,0-1.69-4.9Z"/><path class="cls-1" d="M117,10.41A17.28,17.28,0,0,1,113,12a5.37,5.37,0,0,0-.67-.68,15.52,15.52,0,0,0,3.79-1.48ZM124.09,5h-11.6V4.16h11.6Zm-8.55-3.12h-2.41V1.1h2.41v-1h.94v1h3.64v-1h1v1h2.43v.77h-2.43V3.5h-5.54Zm-1.56,8V5.62h8.73V9.83Zm.94-2.46h2.85v-1h-2.85Zm0,1.74h2.85V8.05h-2.85Zm1.56-7.24v.92h3.64V1.87Zm5.27,4.46h-3v1h3Zm0,1.72h-3V9.11h3Zm-1.51,1.82a36,36,0,0,1,4,1.48l-.85.65a28.83,28.83,0,0,0-3.78-1.52Z"/><path class="cls-1" d="M132.78,4.89V6.66h4.54v.88h-4.54v3.17h5.13v.9H126.74v-.9h5V7.54h-4.46V6.66h4.46V4.89H129V4.17a14.73,14.73,0,0,1-2.06,1,3.93,3.93,0,0,0-.65-.88,11.67,11.67,0,0,0,6-4.24l.89.42c-.1.14-.21.31-.33.46a14.3,14.3,0,0,0,5.55,3.36,3.4,3.4,0,0,0-.67.84,15.32,15.32,0,0,1-2.1-1v.81Zm-3.57,2.94a11.13,11.13,0,0,1,1.25,2.32l-.85.35a10.82,10.82,0,0,0-1.19-2.35ZM135.49,4a15.15,15.15,0,0,1-3.16-2.44,13.75,13.75,0,0,1-3,2.44ZM134,10.22a15.61,15.61,0,0,0,1.35-2.39l.91.35a22.83,22.83,0,0,1-1.54,2.35Z"/><path class="cls-1" d="M143,7.79l1.43-.61.2.85c-1.37.64-2.83,1.29-4,1.8l-.37-1c.49-.17,1.11-.43,1.79-.72v-4h-1.56V3.22h1.56V.27H143v3h1.4v.93H143Zm7.46,3c.76,0,.89-.35,1-1.85a2.23,2.23,0,0,0,.87.37c-.16,1.78-.46,2.35-1.81,2.35h-3.2c-1.47,0-1.91-.35-1.91-1.75V5.86l-1,.43L144,5.45l1.4-.59V1.33h.92V4.46l1.75-.73V.12H149V3.34l2-.83.74.25-.06.15a47.29,47.29,0,0,1-.67,5.7l-.79-.24a45.51,45.51,0,0,0,.49-4.74L149,4.34V9.11h-.92V4.73l-1.75.74V10c0,.7.17.87,1,.87Z"/><path class="cls-1" d="M159.56,9c-1.08.16-2.16.36-3.16.51V11.8h-.93V9.7l-.94.15-.14-.91c.31,0,.69-.09,1.08-.14V1.27l0,0v0A18.3,18.3,0,0,0,158.9.05l.78.73a23.36,23.36,0,0,1-3.28,1.08V3.28h2.92v.85H156.4V5.92h2.9v.85h-2.9V8.66l3.12-.46Zm5.83-2.87a7.68,7.68,0,0,1-1.91,3.63,7.56,7.56,0,0,0,2.86,1.34,3.32,3.32,0,0,0-.6.83,8.06,8.06,0,0,1-2.94-1.56,9.12,9.12,0,0,1-3.28,1.64,2.76,2.76,0,0,0-.49-.83,8.06,8.06,0,0,0,3.09-1.43A8.25,8.25,0,0,1,160.41,7l.48-.13H160V6h4.64l.17,0Zm-3.6-4a4,4,0,0,1-1.71,3.54,4.26,4.26,0,0,0-.66-.61,3.29,3.29,0,0,0,1.47-2.95V.6h3.6V3.89c0,.33,0,.44.22.44h.87a2.86,2.86,0,0,0,.6,0c0,.22,0,.54.08.75a2.61,2.61,0,0,1-.67,0h-1c-.86,0-1-.33-1-1.22V1.44h-1.8Zm-.58,4.65a6.85,6.85,0,0,0,1.58,2.37,6.23,6.23,0,0,0,1.45-2.37Z"/></g></g></svg>