<?xml version="1.0" encoding="utf-8"?>
<!-- Generator: Adobe Illustrator 25.2.1, SVG Export Plug-In . SVG Version: 6.00 Build 0)  -->
<svg version="1.1" id="Layer_1" xmlns="http://www.w3.org/2000/svg" xmlns:xlink="http://www.w3.org/1999/xlink" x="0px" y="0px"
	 viewBox="0 0 300 600" style="enable-background:new 0 0 300 600;" xml:space="preserve">
<style type="text/css">
	.st0{enable-background:new    ;}
	.st1{fill:#FFFFFF;}
</style>
<g class="st0">
	<path class="st1" d="M47.7,275.6h-1.9l-1.6-3.9h-5.5l-1.6,3.9h-1.9l6.1-14.1h0.3L47.7,275.6z M39.3,270.3h4.3l-2.2-5.3L39.3,270.3z
		"/>
	<path class="st1" d="M52.6,269.8c1.5,0.5,3.4,1.2,3.4,3.2c0,1.7-1.5,2.8-3.6,2.8c-1.5,0-2.5-0.3-3.7-0.9c0.2-0.4,0.4-0.7,0.6-1.1
		c0.9,0.5,1.9,0.8,3,0.8c1.1,0,2-0.6,2-1.4c0-1.2-1.1-1.5-2.4-1.9c-1.4-0.5-3-1-3-2.9c0-1.8,1.3-2.8,3.2-2.8c0.6,0,1.9,0.1,3.5,0.8
		c-0.2,0.5-0.3,0.8-0.6,1.2c-0.7-0.3-1.8-0.7-2.5-0.7c-1,0-1.9,0.3-2,1.3C50.4,269.1,51.4,269.4,52.6,269.8z"/>
</g>
<g class="st0">
	<path class="st1" d="M59.7,275.6H58v-14h1.7v8.7l4.2-4.7h1.8l-4.3,4.7l4.7,5.3h-1.9l-4.5-5V275.6z"/>
</g>
<g class="st0">
	<path class="st1" d="M75.5,274.2c-1.1,1-2.3,1.5-3.9,1.5c-3.8,0-5-3-5-5.2c0-2.1,1.1-5.2,5-5.2c2.6,0,4,1.7,4,4.2
		c0,0.4,0,0.8-0.1,1.2h-7.2c0.1,1.3,0.9,3.5,3.3,3.5c1.2,0,2.2-0.4,3.1-1.2L75.5,274.2z M68.3,269.6H74c0.2-1.2-0.3-2.7-2.4-2.8
		C69.4,266.8,68.6,268.3,68.3,269.6z"/>
	<path class="st1" d="M84.7,266.1v-4.6h1.7v14h-0.9c-0.1-0.4-0.3-0.9-0.4-1.2c-1,1.2-2.2,1.4-3.3,1.4c-3.7,0-4.9-3-4.9-5.1
		c0-2.1,1.2-5.2,5-5.2C82.9,265.4,83.8,265.7,84.7,266.1z M84.7,272.9v-5.2c-0.6-0.5-1.8-0.9-2.6-0.9c-2.9,0-3.5,2.6-3.5,3.8
		c0,1,0.4,3.6,3.3,3.6C83.2,274.2,84.3,273.5,84.7,272.9z"/>
	<path class="st1" d="M94.3,266.3c1.1-0.5,2.3-0.9,3.6-0.9c3.3,0,3.5,2.2,3.5,4.1v6h-0.9l-0.4-1.3c-0.8,1.1-2.2,1.5-3.1,1.5
		c-3,0-3.5-2-3.5-2.9c0-2.5,1.8-3.3,3.8-3.3c0.8,0,1.6,0.1,2.3,0.3v-0.4c0-2.4-0.8-2.7-2.2-2.6c-0.5,0.1-1.7,0.3-2.7,0.7L94.3,266.3
		z M99.8,271.2c-0.6-0.1-1.4-0.3-2.3-0.3c-1.2,0-2.3,0.3-2.3,1.7c0,1.2,0.9,1.7,2,1.7c1.3,0,2.2-0.8,2.6-1.5V271.2z"/>
	<path class="st1" d="M105.5,275.6h-1.7v-10h0.9l0.4,1.2c1-1,2.2-1.4,3.3-1.4c3.7,0,4.2,2.7,4.2,5v5.2h-1.7v-5.1
		c0-1.1,0.1-3.5-2.6-3.5c-1.2,0-2.4,0.9-2.8,1.5V275.6z"/>
	<path class="st1" d="M122,266.1v-4.6h1.7v14h-0.9c-0.1-0.4-0.3-0.9-0.4-1.2c-1,1.2-2.2,1.4-3.3,1.4c-3.7,0-4.9-3-4.9-5.1
		c0-2.1,1.2-5.2,5-5.2C120.1,265.4,121.1,265.7,122,266.1z M122,272.9v-5.2c-0.6-0.5-1.8-0.9-2.6-0.9c-2.9,0-3.5,2.6-3.5,3.8
		c0,1,0.4,3.6,3.3,3.6C120.5,274.2,121.5,273.5,122,272.9z"/>
	<path class="st1" d="M131.6,266.3c1.1-0.5,2.3-0.9,3.6-0.9c3.3,0,3.5,2.2,3.5,4.1v6h-0.9l-0.4-1.3c-0.8,1.1-2.2,1.5-3.1,1.5
		c-3,0-3.5-2-3.5-2.9c0-2.5,1.8-3.3,3.8-3.3c0.8,0,1.6,0.1,2.3,0.3v-0.4c0-2.4-0.8-2.7-2.2-2.6c-0.5,0.1-1.7,0.3-2.7,0.7
		L131.6,266.3z M137,271.2c-0.6-0.1-1.4-0.3-2.3-0.3c-1.2,0-2.3,0.3-2.3,1.7c0,1.2,0.9,1.7,2,1.7c1.3,0,2.2-0.8,2.6-1.5V271.2z"/>
	<path class="st1" d="M142.8,275.6h-1.7v-10h0.9l0.4,1.2c1-1,2.2-1.4,3.3-1.4c3.7,0,4.2,2.7,4.2,5v5.2h-1.7v-5.1
		c0-1.1,0.1-3.5-2.6-3.5c-1.2,0-2.4,0.9-2.8,1.5V275.6z"/>
	<path class="st1" d="M155.3,269.8c1.5,0.5,3.4,1.2,3.4,3.2c0,1.7-1.5,2.8-3.6,2.8c-1.5,0-2.5-0.3-3.7-0.9c0.2-0.4,0.4-0.7,0.6-1.1
		c0.9,0.5,1.9,0.8,3,0.8c1.1,0,2-0.6,2-1.4c0-1.2-1.1-1.5-2.4-1.9c-1.4-0.5-3-1-3-2.9c0-1.8,1.3-2.8,3.2-2.8c0.6,0,1.9,0.1,3.5,0.8
		c-0.2,0.5-0.3,0.8-0.6,1.2c-0.7-0.3-1.8-0.7-2.5-0.7c-1,0-1.9,0.3-2,1.3C153.1,269.1,154.1,269.4,155.3,269.8z"/>
</g>
<g class="st0">
	<path class="st1" d="M172.5,265.6h1.8l-4.4,10.2h-0.3l-2.7-6.6l-2.7,6.6h-0.3l-4.4-10.2h1.8l2.7,6.7l2.7-6.9h0.3l2.7,6.9
		L172.5,265.6z"/>
</g>
<g class="st0">
	<path class="st1" d="M183.4,274.2c-1.1,1-2.3,1.5-3.9,1.5c-3.8,0-5-3-5-5.2c0-2.1,1.1-5.2,5-5.2c2.6,0,4,1.7,4,4.2
		c0,0.4,0,0.8-0.1,1.2h-7.2c0.1,1.3,0.9,3.5,3.3,3.5c1.2,0,2.2-0.4,3.1-1.2L183.4,274.2z M176.3,269.6h5.7c0.2-1.2-0.3-2.7-2.4-2.8
		C177.4,266.8,176.6,268.3,176.3,269.6z"/>
	<path class="st1" d="M190.3,266.9c-0.2,0-0.4-0.1-0.6-0.1c-1.3,0-2.4,0.7-2.7,1.6v7.1h-1.7v-10h0.9l0.4,1.2c1-1,2.2-1.4,3.3-1.4
		c0.2,0,0.4,0,0.8,0.1L190.3,266.9z"/>
	<path class="st1" d="M200,274.2c-1.1,1-2.3,1.5-3.9,1.5c-3.8,0-5-3-5-5.2c0-2.1,1.1-5.2,5-5.2c2.6,0,4,1.7,4,4.2
		c0,0.4,0,0.8-0.1,1.2h-7.2c0.1,1.3,0.9,3.5,3.3,3.5c1.2,0,2.2-0.4,3.1-1.2L200,274.2z M192.8,269.6h5.7c0.2-1.2-0.3-2.7-2.4-2.8
		C193.9,266.8,193.1,268.3,192.8,269.6z"/>
	<path class="st1" d="M209.2,266.1v-4.6h1.7v14H210c-0.1-0.4-0.3-0.9-0.4-1.2c-1,1.2-2.2,1.4-3.3,1.4c-3.7,0-4.9-3-4.9-5.1
		c0-2.1,1.2-5.2,5-5.2C207.3,265.4,208.3,265.7,209.2,266.1z M209.2,272.9v-5.2c-0.6-0.5-1.8-0.9-2.6-0.9c-2.9,0-3.5,2.6-3.5,3.8
		c0,1,0.4,3.6,3.3,3.6C207.7,274.2,208.7,273.5,209.2,272.9z"/>
</g>
</svg>
