<?xml version="1.0" encoding="utf-8"?>
<!-- Generator: Adobe Illustrator 25.2.1, SVG Export Plug-In . SVG Version: 6.00 Build 0)  -->
<svg version="1.1" id="Layer_1" xmlns="http://www.w3.org/2000/svg" xmlns:xlink="http://www.w3.org/1999/xlink" x="0px" y="0px"
	 viewBox="0 0 300 600" style="enable-background:new 0 0 300 600;" xml:space="preserve">
<style type="text/css">
	.st0{clip-path:url(#SVGID_2_);}
	.st1{enable-background:new    ;}
	.st2{fill:#EE4627;}
</style>
<g>
	<g>
		<defs>
			<rect id="SVGID_1_" x="32.1" y="166.1" width="238.5" height="52.6"/>
		</defs>
		<clipPath id="SVGID_2_">
			<use xlink:href="#SVGID_1_"  style="overflow:visible;"/>
		</clipPath>
		<g class="st0">
			<g class="st1">
				<path class="st2" d="M48.7,178.2c1.4,0.5,2.4,2,2.4,3.7c0,2.6-1.6,5.7-6.8,5.7h-7.2v-18.8h7.2c5.2,0,6.8,3.2,6.8,5.7
					C51.1,175.9,50.1,177.6,48.7,178.2z M46.8,174.6c0-0.4-0.3-1.8-2.2-1.8h-3.2v3.7h3.2C46.5,176.5,46.8,175.1,46.8,174.6z
					 M46.8,181.9c0-0.6-0.3-1.7-2.1-1.8h-3.2v3.5h3.2C46.5,183.6,46.8,182.4,46.8,181.9z"/>
				<path class="st2" d="M58.7,187.6h-4.3v-18.8h4.3V187.6z"/>
			</g>
			<g class="st1">
				<path class="st2" d="M62.9,187.6v-18.8h6.8c7.1,0,9.3,5.5,9.3,9.4c0,4-2.2,9.4-9.3,9.4L62.9,187.6L62.9,187.6z M69.7,183.6
					c4.4,0,5-4,5-5.4s-0.6-5.4-5-5.4h-2.5v10.8L69.7,183.6L69.7,183.6z"/>
			</g>
			<g class="st1">
				<path class="st2" d="M86.3,180.4v3.3H95v4H82v-18.8h13v4h-8.7v3.5h6.8v4H86.3z"/>
				<path class="st2" d="M98.5,168.6l11,9.7v-9.5h4.3v18.9l-0.2,0.1l-11-9.8v9.7h-4.3v-19L98.5,168.6z"/>
			</g>
			<g class="st1">
				<path class="st2" d="M53.4,214.8h-4.8l-1.6-3.9h-5.3l-1.6,3.9h-4.8l8.9-19h0.4L53.4,214.8z M43.1,207.5h2.5l-1.2-3L43.1,207.5z"
					/>
			</g>
			<g class="st1">
				<path class="st2" d="M55.9,214.8V196h6.8c7.1,0,9.3,5.5,9.3,9.4c0,4-2.2,9.4-9.3,9.4L55.9,214.8L55.9,214.8z M62.6,210.8
					c4.4,0,5-4,5-5.4s-0.6-5.4-5-5.4h-2.5v10.8L62.6,210.8L62.6,210.8z"/>
			</g>
			<g class="st1">
				<path class="st2" d="M85.1,215l-4.9-9.3l-3.1,9.1h-4.6l7.1-18.9h0.3l5.4,10.7l5.4-10.7H91l7.1,18.9h-4.6l-3.1-9.1l-4.9,9.3H85.1
					z"/>
				<path class="st2" d="M104.8,214.8h-4.3V196h4.3V214.8z"/>
				<path class="st2" d="M109.4,195.8l11,9.7V196h4.3v18.9l-0.2,0.1l-11-9.8v9.7h-4.3v-19L109.4,195.8z"/>
				<path class="st2" d="M133.3,214.8H129V196h4.3V214.8z"/>
			</g>
			<g class="st1">
				<path class="st2" d="M145.4,203.6c2.6,0.9,5.5,2.2,5.5,5.6c0,3.3-2.8,5.8-7,5.8c-2.8,0-5-0.7-7.4-2l1.9-3.6
					c1.9,0.9,3.7,1.6,5.4,1.6c1.4,0,2.6-0.7,2.6-1.6c0-1.2-1.5-1.7-3.2-2.3c-2.7-0.9-6.1-1.9-6.1-5.8c0-3.5,2.6-5.6,6.2-5.6
					c1.2,0,3.9,0.2,7.2,1.8l-1.6,3.7c-0.9-0.4-3.7-1.4-5.4-1.4c-1.1,0-2.2,0.3-2.1,1.4C141.4,202.3,143.3,202.8,145.4,203.6z"/>
			</g>
			<g class="st1">
				<path class="st2" d="M157,200h-4.9v-4h14.2v4h-5v14.8H157V200z"/>
				<path class="st2" d="M173.4,214.8h-4.3V196h7.2c5.2,0,6.8,3.7,6.8,6.2c0,2.7-1.5,4.6-3.5,5.6l3.3,7h-4.7l-3-6.3h-1.9
					L173.4,214.8L173.4,214.8z M178.8,202.2c0-0.8-0.4-2.2-2.4-2.2h-3.1v4.5h3.2C178.4,204.4,178.8,202.9,178.8,202.2z"/>
			</g>
			<g class="st1">
				<path class="st2" d="M202.6,214.8h-4.8l-1.6-3.9h-5.3l-1.6,3.9h-4.8l8.9-19h0.4L202.6,214.8z M192.3,207.5h2.5l-1.2-3
					L192.3,207.5z"/>
			</g>
			<g class="st1">
				<path class="st2" d="M205.8,200h-4.9v-4h14.2v4h-5v14.8h-4.3V200z"/>
				<path class="st2" d="M222.3,214.8H218V196h4.3V214.8z"/>
				<path class="st2" d="M244.2,205.4c0,4-2.2,9.7-9.3,9.7s-9.3-5.7-9.3-9.7c0-3.9,2.2-9.7,9.3-9.7S244.2,201.5,244.2,205.4z
					 M239.8,205.4c0-1.4-0.6-5.6-4.9-5.6c-4.4,0-5,4.2-5,5.6s0.6,5.7,5,5.7C239.2,211.1,239.8,206.8,239.8,205.4z"/>
				<path class="st2" d="M247.7,195.8l11,9.7V196h4.3v18.9l-0.2,0.1l-11-9.8v9.7h-4.3v-19L247.7,195.8z"/>
			</g>
		</g>
	</g>
</g>
</svg>
