<?xml version="1.0" encoding="utf-8"?>
<!-- Generator: Adobe Illustrator 25.2.1, SVG Export Plug-In . SVG Version: 6.00 Build 0)  -->
<svg version="1.1" id="Layer_1" xmlns="http://www.w3.org/2000/svg" xmlns:xlink="http://www.w3.org/1999/xlink" x="0px" y="0px"
	 viewBox="0 0 300 600" style="enable-background:new 0 0 300 600;" xml:space="preserve">
<style type="text/css">
	.st0{clip-path:url(#SVGID_2_);}
	.st1{enable-background:new    ;}
	.st2{fill:#EE4627;}
</style>
<g>
	<g>
		<defs>
			<rect id="SVGID_1_" x="32.1" y="166.1" width="238.5" height="52.6"/>
		</defs>
		<clipPath id="SVGID_2_">
			<use xlink:href="#SVGID_1_"  style="overflow:visible;"/>
		</clipPath>
		<g class="st0">
			<g>
				<g class="st1">
					<path class="st2" d="M47.6,180.3v-11.4h4.3v11.4c0,3.2-1.9,7.6-7.5,7.6s-7.5-4.4-7.5-7.6v-11.4h4.3v11.4c0,1,0.7,3.6,3.2,3.6
						S47.6,181.3,47.6,180.3z"/>
					<path class="st2" d="M63.8,176.5c2.6,0.9,5.5,2.2,5.5,5.6c0,3.3-2.8,5.8-7,5.8c-2.8,0-5-0.7-7.4-2l1.9-3.6
						c1.9,0.9,3.7,1.6,5.4,1.6c1.4,0,2.6-0.7,2.6-1.6c0-1.2-1.5-1.7-3.2-2.3c-2.7-0.9-6.1-1.9-6.1-5.8c0-3.5,2.6-5.6,6.2-5.6
						c1.2,0,3.9,0.2,7.2,1.8l-1.6,3.7c-0.9-0.4-3.7-1.4-5.4-1.4c-1.1,0-2.2,0.3-2.1,1.4C59.8,175.2,61.7,175.7,63.8,176.5z"/>
					<path class="st2" d="M79.7,178.1v3.2H72v-3.2H79.7z"/>
				</g>
				<g class="st1">
					<path class="st2" d="M96.3,175.2c-1.1-1.3-3.1-2.5-4.7-2.5c-4.4,0-5,4.2-5,5.6s0.6,5.6,5,5.6c1.7,0,3.6-1,4.9-2.2l2.5,3
						c-2,2-4.4,3.4-7.4,3.4c-7.1,0-9.3-5.6-9.3-9.7c0-3.9,2.2-9.6,9.3-9.6c3.2,0,5.5,1.5,7.5,3.8L96.3,175.2z"/>
					<path class="st2" d="M106.2,187.7h-4.3v-18.8h4.3v7.5h7v-7.5h4.3v18.8h-4.3v-7.3h-7V187.7z"/>
				</g>
				<g class="st1">
					<path class="st2" d="M126,187.7h-4.3v-18.8h4.3V187.7z"/>
					<path class="st2" d="M130.6,168.7l11,9.7v-9.5h4.3v18.9l-0.2,0.1l-11-9.8v9.7h-4.3v-19L130.6,168.7z"/>
					<path class="st2" d="M166.6,187.7h-4.8l-1.6-3.9h-5.3l-1.6,3.9h-4.8l8.9-19h0.4L166.6,187.7z M156.2,180.4h2.5l-1.2-3
						L156.2,180.4z"/>
				</g>
				<g class="st1">
					<path class="st2" d="M40.6,200.1h-4.9v-4h14.2v4h-5v14.8h-4.3V200.1z"/>
					<path class="st2" d="M57,207.6v3.3h8.7v4h-13v-18.8h13v4H57v3.5h6.8v4H57z"/>
					<path class="st2" d="M69.2,195.8l11,9.7V196h4.3v18.9l-0.2,0.1l-11-9.8v9.7H69v-19L69.2,195.8z"/>
					<path class="st2" d="M96.7,203.6c2.6,0.9,5.5,2.2,5.5,5.6c0,3.3-2.8,5.8-7,5.8c-2.8,0-5-0.7-7.4-2l1.9-3.6
						c1.9,0.9,3.7,1.6,5.4,1.6c1.4,0,2.6-0.7,2.6-1.6c0-1.2-1.5-1.7-3.2-2.3c-2.7-0.9-6.1-1.9-6.1-5.8c0-3.5,2.6-5.6,6.2-5.6
						c1.2,0,3.9,0.2,7.2,1.8l-1.6,3.7c-0.9-0.4-3.7-1.4-5.4-1.4c-1.1,0-2.2,0.3-2.1,1.4C92.7,202.4,94.6,202.9,96.7,203.6z"/>
					<path class="st2" d="M109.7,214.9h-4.3v-18.8h4.3V214.9z"/>
					<path class="st2" d="M131.6,205.4c0,4-2.2,9.7-9.3,9.7c-7.1,0-9.3-5.7-9.3-9.7c0-3.9,2.2-9.7,9.3-9.7
						C129.4,195.8,131.6,201.5,131.6,205.4z M127.3,205.4c0-1.4-0.6-5.6-4.9-5.6c-4.4,0-5,4.2-5,5.6s0.6,5.7,5,5.7
						C126.6,211.1,127.3,206.8,127.3,205.4z"/>
					<path class="st2" d="M135.1,195.8l11,9.7V196h4.3v18.9l-0.2,0.1l-11-9.8v9.7h-4.3v-19L135.1,195.8z"/>
					<path class="st2" d="M162.6,203.6c2.6,0.9,5.5,2.2,5.5,5.6c0,3.3-2.8,5.8-7,5.8c-2.8,0-5-0.7-7.4-2l1.9-3.6
						c1.9,0.9,3.7,1.6,5.4,1.6c1.4,0,2.6-0.7,2.6-1.6c0-1.2-1.5-1.7-3.2-2.3c-2.7-0.9-6.1-1.9-6.1-5.8c0-3.5,2.6-5.6,6.2-5.6
						c1.2,0,3.9,0.2,7.2,1.8l-1.6,3.7c-0.9-0.4-3.7-1.4-5.4-1.4c-1.1,0-2.2,0.3-2.1,1.4C158.7,202.4,160.5,202.9,162.6,203.6z"/>
				</g>
			</g>
		</g>
	</g>
</g>
</svg>
