<svg xmlns="http://www.w3.org/2000/svg" viewBox="0 0 143.09 34.07"><defs><style>.cls-1{fill:#ee4627;}.cls-2{fill:#fff;}</style></defs><g id="Layer_2" data-name="Layer 2"><g id="Layer_1-2" data-name="Layer 1"><rect class="cls-1" width="143.09" height="34.07"/><path class="cls-2" d="M20.29,20.65H18.63v-7.3h2.79a2.39,2.39,0,0,1,2.64,2.41,2.33,2.33,0,0,1-1.35,2.16L24,20.65H22.17L21,18.2h-.74Zm2.1-4.89a.84.84,0,0,0-.92-.86H20.29v1.74h1.23A.86.86,0,0,0,22.39,15.76Z"/><path class="cls-2" d="M27.33,17.82V19.1H30.7v1.55h-5v-7.3h5v1.56H27.33v1.36H30v1.55Z"/><path class="cls-2" d="M35.27,18.18V16.65h3.07v3a3.65,3.65,0,0,1-2.73,1.12A3.49,3.49,0,0,1,32,17a3.51,3.51,0,0,1,3.62-3.74,3.62,3.62,0,0,1,2.78,1.27l-1,1.13a2.79,2.79,0,0,0-1.75-.83A2,2,0,0,0,33.69,17c0,.54.24,2.23,1.92,2.23a2,2,0,0,0,1-.3v-.72Z"/><path class="cls-2" d="M41.76,20.65H40.09v-7.3h1.67Z"/><path class="cls-2" d="M46.92,16.28c1,.36,2.13.86,2.13,2.19a2.44,2.44,0,0,1-2.7,2.26,5.78,5.78,0,0,1-2.89-.79l.74-1.4a5,5,0,0,0,2.08.63c.55,0,1-.26,1-.63s-.56-.65-1.25-.87c-1.05-.35-2.37-.75-2.37-2.25a2.16,2.16,0,0,1,2.4-2.18,6.24,6.24,0,0,1,2.81.71l-.62,1.42a6.85,6.85,0,0,0-2.08-.56c-.44,0-.85.14-.83.53S46.11,16,46.92,16.28Z"/><path class="cls-2" d="M51.87,14.91H50V13.35h5.51v1.56H53.55v5.74H51.87Z"/><path class="cls-2" d="M58.69,17.82V19.1h3.38v1.55H57v-7.3h5v1.56H58.69v1.36h2.64v1.55Z"/><path class="cls-2" d="M65.43,20.65H63.77v-7.3h2.8a2.38,2.38,0,0,1,2.63,2.41,2.34,2.34,0,0,1-1.34,2.16l1.28,2.73H67.32L66.17,18.2h-.74Zm2.11-4.89a.84.84,0,0,0-.92-.86H65.43v1.74h1.23A.87.87,0,0,0,67.54,15.76Z"/><path class="cls-2" d="M75.72,17.82v2.83H74.07v-7.3h5v1.56H75.72v1.36h2.65v1.55Z"/><path class="cls-2" d="M87.32,17a3.63,3.63,0,1,1-7.25,0,3.63,3.63,0,1,1,7.25,0Zm-1.7,0a1.94,1.94,0,1,0-3.85,0c0,.54.24,2.21,1.93,2.21S85.62,17.53,85.62,17Z"/><path class="cls-2" d="M90.68,20.65H89v-7.3h2.79a2.38,2.38,0,0,1,2.64,2.41,2.34,2.34,0,0,1-1.34,2.16l1.28,2.73H92.56L91.42,18.2h-.74Zm2.1-4.89a.83.83,0,0,0-.91-.86H90.68v1.74h1.23A.86.86,0,0,0,92.78,15.76Z"/><path class="cls-2" d="M101,17.82v2.83H99.31v-7.3h5v1.56H101v1.36h2.65v1.55Z"/><path class="cls-2" d="M107.71,20.65h-1.66v-7.3h2.79a2.39,2.39,0,0,1,2.64,2.41,2.34,2.34,0,0,1-1.34,2.16l1.28,2.73h-1.83l-1.14-2.45h-.74Zm2.1-4.89a.83.83,0,0,0-.92-.86h-1.18v1.74h1.23A.86.86,0,0,0,109.81,15.76Z"/><path class="cls-2" d="M114.75,17.82V19.1h3.37v1.55h-5v-7.3h5v1.56h-3.37v1.36h2.63v1.55Z"/><path class="cls-2" d="M121.5,17.82V19.1h3.37v1.55h-5v-7.3h5v1.56H121.5v1.36h2.63v1.55Z"/></g></g></svg>