<?xml version="1.0" encoding="utf-8"?>
<!-- Generator: Adobe Illustrator 25.2.1, SVG Export Plug-In . SVG Version: 6.00 Build 0)  -->
<svg version="1.1" id="Layer_1" xmlns="http://www.w3.org/2000/svg" xmlns:xlink="http://www.w3.org/1999/xlink" x="0px" y="0px"
	 viewBox="0 0 300 600" style="enable-background:new 0 0 300 600;" xml:space="preserve">
<style type="text/css">
	.st0{fill:#EE4627;}
</style>
<rect x="22.5" y="24" width="3.7" height="3.7"/>
<rect x="22.5" y="30.4" width="3.7" height="3.7"/>
<rect x="29.4" y="24" width="3.7" height="3.7"/>
<rect x="29.4" y="30.4" width="3.7" height="3.7"/>
<rect x="15.6" y="24" width="3.7" height="3.7"/>
<rect x="15.6" y="30.4" width="3.7" height="3.7"/>
<path class="st0" d="M35.7,54.1c0,6,4.9,10.9,10.9,10.9c6,0,10.9-4.9,10.9-10.9c0-5.7-4.4-10.4-10-10.8H15.6V47h31.2
	c3.9,0.1,7,3.4,6.9,7.3c-0.1,3.9-3.4,7-7.3,6.9c-3.8-0.1-6.9-3.3-6.9-7.1"/>
<path class="st0" d="M29.3,54.1c0,9.5,7.7,17.3,17.3,17.3s17.3-7.7,17.3-17.3c0-9.2-7.2-16.8-16.4-17.2H15.6v3.7h31.2
	c7.5,0.1,13.4,6.3,13.2,13.7c-0.1,7.5-6.3,13.4-13.7,13.2C38.9,67.4,33,61.4,33,54.1"/>
<path class="st0" d="M70.2,54.1c0-12.7-10.1-23.2-22.8-23.6H36.9v3.8h9.9c11,0.1,19.8,9.1,19.7,20.1S57.3,74.1,46.3,74
	c-5.1-0.1-10-2.1-13.6-5.6L30,71c9.4,9.1,24.3,8.9,33.5-0.5C67.8,66.1,70.2,60.2,70.2,54.1"/>
<path class="st0" d="M47.1,24L47.1,24C46.9,24,47.3,24,47.1,24H36.9v3.8H47c14.5,0.1,26.2,12,26,26.6s-12,26.2-26.6,26v3.8
	c16.6-0.1,30-13.6,29.9-30.2C76.4,37.7,63.4,24.4,47.1,24"/>
<path d="M244.5,53.3v-2.6H240v-2.3h5.7v-2.6h-8.6v12.4h8.6v-2.6H240v-2.2H244.5z M230,51.3h-2v-3h2c0.8-0.1,1.5,0.5,1.6,1.3
	c0,0.1,0,0.1,0,0.2c0,0.8-0.6,1.5-1.4,1.5C230.1,51.3,230.1,51.3,230,51.3 M228,54h1.2l2,4.2h3.1l-2.2-4.6c1.4-0.7,2.3-2.1,2.3-3.7
	c0-1.7-1-4.1-4.5-4.1h-4.7v12.4h2.8V54z M216.8,58.2h2.9v-9.8h3.3v-2.6h-9.4v2.6h3.2L216.8,58.2z M201,45.7v12.5h2.8v-6.4l7.3,6.5
	l0.1-0.1V45.8h-2.8V52l-7.3-6.4L201,45.7z M196.8,53.3v-2.6h-4.5v-2.3h5.7v-2.6h-8.6v12.4h8.6v-2.6h-5.7v-2.2H196.8z M187,48.1
	c-1.2-1.6-3-2.5-5-2.5c-4.7,0-6.1,3.8-6.1,6.3s1.4,6.4,6.1,6.4c1.9,0,3.6-0.8,4.9-2.2l-1.6-1.9c-0.9,0.8-2,1.4-3.2,1.5
	c-2.9,0-3.3-2.7-3.3-3.7s0.4-3.7,3.3-3.7c1.2,0.1,2.3,0.7,3,1.6L187,48.1z M162.1,49.1c0-0.7,0.7-0.9,1.4-0.9
	c1.2,0.1,2.4,0.4,3.5,0.9l1-2.4c-1.5-0.8-3.1-1.2-4.8-1.2c-2.4,0-4.1,1.4-4.1,3.7c0,2.5,2.2,3.2,4,3.8c1.2,0.4,2.1,0.7,2.1,1.5
	c0,0.6-0.8,1.1-1.7,1.1c-1.2-0.1-2.4-0.5-3.5-1.1l-1.2,2.4c1.5,0.9,3.2,1.3,4.9,1.3c2.7,0,4.6-1.7,4.6-3.8s-1.9-3.1-3.6-3.7
	C163.4,50.2,162.1,49.9,162.1,49.1 M155.5,53.3v-2.6H151v-2.3h5.7v-2.6h-8.6v12.4h8.6v-2.6H151v-2.2L155.5,53.3z M144.8,45.8H142
	v12.4h2.8L144.8,45.8z M131.4,55.5v-7.1h1.6c2.9,0,3.3,2.6,3.3,3.6s-0.4,3.6-3.3,3.6L131.4,55.5z M133,58.1c4.7,0,6.1-3.5,6.1-6.2
	s-1.4-6.2-6.1-6.2h-4.5v12.4H133z M120.3,55.6c-1.7,0-2.1-1.7-2.1-2.4v-7.5h-2.8v7.5c-0.1,2.7,2,5,4.7,5.2c2.7,0.1,5-2,5.2-4.7
	c0-0.1,0-0.3,0-0.4v-7.5h-2.8v7.5C122.4,53.9,121.9,55.6,120.3,55.6 M107,58.1h2.8v-9.7h3.3v-2.6h-9.3v2.6h3.2V58.1z M95.7,49.1
	c0-0.7,0.7-0.9,1.4-0.9c1.2,0.1,2.4,0.4,3.5,0.9l1-2.4c-1.5-0.8-3.1-1.2-4.8-1.2c-2.4,0-4.1,1.4-4.1,3.7c0,2.5,2.2,3.2,4,3.8
	c1.2,0.4,2.1,0.7,2.1,1.5c0,0.6-0.8,1.1-1.7,1.1c-1.2-0.1-2.4-0.5-3.5-1.1l-1.3,2.4c1.5,0.9,3.2,1.3,4.9,1.3c2.7,0,4.6-1.7,4.6-3.8
	s-1.9-3.1-3.6-3.7C96.9,50.2,95.7,49.9,95.7,49.1"/>
<path d="M224.4,31.1c0-0.7,0.7-0.9,1.4-0.9c1.2,0.1,2.4,0.4,3.5,0.9l1-2.4c-1.5-0.8-3.1-1.2-4.8-1.2c-2.4,0-4.1,1.4-4.1,3.7
	c0,2.6,2.2,3.2,4,3.8c1.2,0.4,2.1,0.7,2.1,1.5c0,0.6-0.8,1.1-1.7,1.1c-1.2-0.1-2.4-0.5-3.5-1.1l-1.3,2.4c1.5,0.9,3.2,1.3,4.9,1.3
	c2.7,0,4.6-1.7,4.6-3.8s-1.9-3.1-3.6-3.7C225.7,32.2,224.4,31.8,224.4,31.1 M217.8,35.3v-2.6h-4.5v-2.3h5.7v-2.6h-8.6v12.4h8.6v-2.6
	h-5.7v-2.2H217.8z M202.1,40.1h2.9v-9.7h3.3v-2.6h-9.3v2.6h3.2L202.1,40.1z M192.8,33.3l0.8,2H192L192.8,33.3z M192.9,27.6h-0.2
	l-5.8,12.5h3.2l1.1-2.6h3.5l1.1,2.6h3.2L192.9,27.6z M180.8,40.1h2.9v-9.7h3.3v-2.6h-9.4v2.6h3.2V40.1z M169.5,31.1
	c0-0.7,0.7-0.9,1.4-0.9c1.2,0.1,2.4,0.4,3.5,0.9l1-2.4c-1.5-0.8-3.1-1.2-4.8-1.2c-2.4,0-4.1,1.4-4.1,3.7c0,2.6,2.2,3.2,4,3.8
	c1.2,0.4,2.1,0.7,2.1,1.5c0,0.6-0.8,1.1-1.7,1.1c-1.2-0.1-2.5-0.5-3.5-1.1l-1.2,2.4c1.5,0.9,3.2,1.3,4.9,1.3c2.7,0,4.6-1.7,4.6-3.8
	s-1.9-3.1-3.6-3.7C170.7,32.2,169.5,31.8,169.5,31.1 M151,37.4v-7.1h1.6c2.9,0,3.3,2.6,3.3,3.6s-0.4,3.6-3.3,3.6L151,37.4z
	 M152.7,40.1c4.7,0,6.1-3.5,6.1-6.2s-1.4-6.2-6.1-6.2h-4.4v12.4L152.7,40.1z M144,35.3v-2.6h-4.5v-2.3h5.7v-2.6h-8.6v12.4h8.6v-2.6
	h-5.7v-2.2H144z M128.3,40.1h2.8v-9.7h3.3v-2.6h-9.3v2.6h3.2L128.3,40.1z M122.8,27.7H120v12.4h2.8L122.8,27.7z M106.2,27.6v12.5
	h2.8v-6.4l7.3,6.5l0.1-0.1V27.7h-2.8V34l-7.3-6.4L106.2,27.6z M98,37.6c-1.7,0-2.1-1.7-2.1-2.4v-7.5h-2.8v7.5
	c-0.4,2.7,1.5,5.3,4.2,5.7c2.7,0.4,5.3-1.5,5.7-4.2c0.1-0.5,0.1-0.9,0-1.4v-7.5h-2.9v7.5C100.1,35.9,99.7,37.6,98,37.6"/>
<path class="st0" d="M166,69.4c0-0.6,0.6-0.7,1.1-0.7c1,0.1,2,0.4,2.9,0.8l0.9-2c-1.2-0.6-2.5-1-3.9-1c-1.9,0-3.3,1.1-3.3,3
	c0,2.1,1.8,2.6,3.3,3.1c1,0.3,1.7,0.6,1.7,1.2s-0.6,0.9-1.4,0.9c-1-0.1-2-0.4-2.9-0.9l-1,1.9c1.2,0.7,2.6,1.1,4,1.1
	c2.2,0,3.7-1.4,3.7-3.1s-1.5-2.5-2.9-3C167,70.3,166,70,166,69.4 M158.4,71.2h-1.7v-2.4h1.6c0.6,0,1.2,0.5,1.2,1.1c0,0,0,0.1,0,0.1
	C159.5,70.7,159,71.2,158.4,71.2C158.3,71.2,158.3,71.2,158.4,71.2 M156.6,73.3h1l1.6,3.4h2.5l-1.7-3.8c1.2-0.5,1.9-1.7,1.9-3
	c0-1.8-1.4-3.3-3.2-3.3c-0.1,0-0.3,0-0.4,0h-3.8v10h2.3L156.6,73.3z M147.8,71.2l0.7,1.6h-1.3L147.8,71.2z M147.9,66.6h-0.2
	l-4.8,10.1h2.6l0.9-2.1h2.8l0.9,2.1h2.6L147.9,66.6z M132.9,66.6v10.1h2.3v-5.2l5.9,5.2l0.1-0.1v-10h-2.3v5.1l-5.9-5.2L132.9,66.6z
	 M130.2,66.7h-2.3v10h2.3V66.7z M122.2,74.6h-1.7v-1.9h1.7c1,0,1.1,0.7,1.1,1S123.3,74.6,122.2,74.6 M122.2,70.8h-1.7v-2h1.7
	c1,0,1.2,0.7,1.2,1c0,0.6-0.4,1-1,1C122.3,70.8,122.3,70.8,122.2,70.8 M125.7,69.8c0-1.4-0.8-3.1-3.6-3.1h-3.8v10h3.8
	c2.8,0,3.6-1.7,3.6-3.1c0-0.9-0.5-1.7-1.3-2C125.2,71.3,125.6,70.6,125.7,69.8 M115.1,72.8v-2.1h-3.6v-1.9h4.6v-2.1h-6.9v10h6.9
	v-2.1h-4.6v-1.7H115.1z M100,66.6l-2.5,5.2l-2.3-5.1h-2.6l4.8,10.1h0.1l2.5-5l2.5,5h0.1l4.8-10.1h-2.6l-2.3,5.1l-2.5-5.2H100z"/>
</svg>
