<svg id="Layer_1" data-name="Layer 1" xmlns="http://www.w3.org/2000/svg" xmlns:xlink="http://www.w3.org/1999/xlink" viewBox="0 0 728 90"><defs><style>.cls-1{fill:none;}.cls-2{clip-path:url(#clip-path);}.cls-3{fill:#009970;}</style><clipPath id="clip-path"><rect class="cls-1" width="728" height="90"/></clipPath></defs><g class="cls-2"><path class="cls-3" d="M37.3,35.13l4.42-18.08h5.51l-7,26.88H35.11L30.38,26.2,25.65,43.93H20.53l-7-26.88h5.64l4.38,18.08,4.73-18.08h4.38Z"/><path class="cls-3" d="M73,43.93H67.29l-2.41-6.48H54.81l-2.36,6.48H46.84L57.13,17.05h5.56Zm-9.85-11.2-3.29-8.94-3.28,8.94Z"/><path class="cls-3" d="M91.63,17.05h6.74L87.21,29.92l11.56,14H91.89L81.82,31.76V43.93h-5.6V17.05h5.6V28.61Z"/><path class="cls-3" d="M120.09,22H107.35v5.86h11.56v4.77H107.35V39h12.74v4.94H101.83V17.05h18.26Z"/><path class="cls-3" d="M133.35,33.12V17.05H139v15.5c0,4.6,2,6.79,5.56,6.79s5.56-2.19,5.56-6.79V17.05h5.6V33.12c0,7.4-4.38,11.25-11.16,11.25S133.35,40.52,133.35,33.12Z"/><path class="cls-3" d="M166,43.93h-5.56V17.05H171.4c5.69,0,9.46,3.07,9.46,8.8s-3.77,8.76-9.46,8.76H166Zm5-22.1h-5v8h5c2.93,0,4.29-1.67,4.29-4S174,21.83,171.05,21.83Z"/><path class="cls-3" d="M216.8,17.05,207,33.73v10.2h-5.56V33.73L191.8,17.05h6.09l6.52,11.39,6.48-11.39Z"/><path class="cls-3" d="M229.37,44.37c-7.49,0-12.7-5.87-12.7-13.88s5.21-13.87,12.7-13.87,12.73,5.82,12.73,13.87S236.85,44.37,229.37,44.37Zm0-22.76c-4.21,0-7,3.63-7,8.88s2.8,8.89,7,8.89,7.09-3.63,7.09-8.89S233.7,21.61,229.37,21.61Z"/><path class="cls-3" d="M245.61,33.12V17.05h5.6v15.5c0,4.6,2,6.79,5.56,6.79s5.56-2.19,5.56-6.79V17.05h5.61V33.12c0,7.4-4.38,11.25-11.17,11.25S245.61,40.52,245.61,33.12Z"/><path class="cls-3" d="M278.27,43.93h-5.56V17.05h11.08c5.64,0,9.41,3,9.41,8.54,0,4.33-2.32,7-6.13,7.92l7.09,10.42h-6.3l-6.66-10h-2.93Zm5.17-14.62c2.8,0,4.24-1.49,4.24-3.72s-1.44-3.76-4.24-3.76h-5.17v7.48Z"/><path class="cls-3" d="M312.16,26.6V43.93h-5.48V17.05h5.21L320,29.75l8.1-12.7h5.12V43.93h-5.52V26.6l-7.66,11.55h-.17Z"/><path class="cls-3" d="M349.76,44.37c-7.48,0-12.69-5.87-12.69-13.88s5.21-13.87,12.69-13.87,12.74,5.82,12.74,13.87S357.25,44.37,349.76,44.37Zm0-22.76c-4.2,0-7,3.63-7,8.88s2.8,8.89,7,8.89,7.1-3.63,7.1-8.89S354.1,21.61,349.76,21.61Z"/><path class="cls-3" d="M384.48,43.93,371.79,26v17.9H366.4V17.05h5.26l11.86,17v-17h5.39V43.93Z"/><path class="cls-3" d="M412.33,22H399.59v5.86h11.56v4.77H399.59V39h12.74v4.94H394.07V17.05h18.26Z"/><path class="cls-3" d="M439.56,17.05,429.8,33.73v10.2h-5.56V33.73l-9.68-16.68h6.09l6.52,11.39,6.48-11.39Z"/></g></svg>