<svg id="Layer_1" data-name="Layer 1" xmlns="http://www.w3.org/2000/svg" xmlns:xlink="http://www.w3.org/1999/xlink" viewBox="0 0 728 90"><defs><style>.cls-1{fill:none;}.cls-2{clip-path:url(#clip-path);}.cls-3{fill:#009970;}</style><clipPath id="clip-path"><rect class="cls-1" width="728" height="90"/></clipPath></defs><g class="cls-2"><path class="cls-3" d="M16.92,19.85H18.8V40.78H31.09v1.73H16.92Z"/><path class="cls-3" d="M50,39.59a9,9,0,0,1-7.16,3.25,9.16,9.16,0,0,1-7.16-3.25,12.36,12.36,0,0,1-2.85-8.41,12.41,12.41,0,0,1,2.85-8.42,9.18,9.18,0,0,1,7.16-3.24A9.06,9.06,0,0,1,50,22.76a12.28,12.28,0,0,1,2.88,8.42A12.23,12.23,0,0,1,50,39.59ZM48.66,24.06a7.24,7.24,0,0,0-5.87-2.77A7.15,7.15,0,0,0,37,24.06a10.78,10.78,0,0,0-2.26,7.12A10.78,10.78,0,0,0,37,38.3a7.15,7.15,0,0,0,5.83,2.77,7.24,7.24,0,0,0,5.87-2.77,10.83,10.83,0,0,0,2.25-7.12A10.83,10.83,0,0,0,48.66,24.06Z"/><path class="cls-3" d="M73,39.59a9.52,9.52,0,0,1-14.33,0,12.41,12.41,0,0,1-2.84-8.41,12.45,12.45,0,0,1,2.84-8.42,9.54,9.54,0,0,1,14.33,0,12.32,12.32,0,0,1,2.87,8.42A12.27,12.27,0,0,1,73,39.59Zm-1.3-15.53a7.56,7.56,0,0,0-11.7,0,10.83,10.83,0,0,0-2.25,7.12A10.83,10.83,0,0,0,60,38.3a7.56,7.56,0,0,0,11.7,0,10.77,10.77,0,0,0,2.25-7.12A10.77,10.77,0,0,0,71.68,24.06Z"/><path class="cls-3" d="M82.05,30.18,93.49,19.85H96L83.86,30.74l12.4,11.77H93.79l-11.74-11v11H80.17V19.85h1.88Z"/><path class="cls-3" d="M101.76,42.51H99.88V19.85h1.88Z"/><path class="cls-3" d="M124.49,42.51h-1.25L109.4,22.84V42.51h-1.81V19.85h1.81l13.29,18.9V19.85h1.8Z"/><path class="cls-3" d="M145.2,39.08V32.62h-5.72V31h7.45v8.64a9.84,9.84,0,0,1-7.79,3.17,9.63,9.63,0,0,1-7.34-3.13,12,12,0,0,1-3-8.53,11.77,11.77,0,0,1,3-8.53,10,10,0,0,1,7.49-3.13A10.56,10.56,0,0,1,146,21.69V23.8a9.52,9.52,0,0,0-6.65-2.51,8,8,0,0,0-6.2,2.65,10.5,10.5,0,0,0-2.4,7.24,10.57,10.57,0,0,0,2.37,7.27,7.73,7.73,0,0,0,6.05,2.66A8.57,8.57,0,0,0,145.2,39.08Z"/><path class="cls-3" d="M160.18,42.51V19.85h13.14v1.73H162.06v8.64h10.67v1.7H162.06V42.51Z"/><path class="cls-3" d="M193.32,39.59a9,9,0,0,1-7.16,3.25A9.16,9.16,0,0,1,179,39.59a12.41,12.41,0,0,1-2.84-8.41A12.45,12.45,0,0,1,179,22.76a9.18,9.18,0,0,1,7.16-3.24,9.06,9.06,0,0,1,7.16,3.24,12.28,12.28,0,0,1,2.88,8.42A12.23,12.23,0,0,1,193.32,39.59ZM192,24.06a7.24,7.24,0,0,0-5.87-2.77,7.15,7.15,0,0,0-5.83,2.77,10.77,10.77,0,0,0-2.25,7.12,10.77,10.77,0,0,0,2.25,7.12,7.15,7.15,0,0,0,5.83,2.77A7.24,7.24,0,0,0,192,38.3a10.83,10.83,0,0,0,2.25-7.12A10.83,10.83,0,0,0,192,24.06Z"/><path class="cls-3" d="M200.51,19.85h7.83c4.43,0,7.31,2.21,7.31,6.35,0,3.65-2.26,5.75-5.8,6.2l6.87,10.11h-2.18l-6.76-10h-5.39v10h-1.88Zm1.88,11h5.87c3.44,0,5.54-1.74,5.54-4.65s-2.1-4.65-5.54-4.65h-5.87Z"/><path class="cls-3" d="M239.34,37.31l-8.57-13.88V42.51h-1.84V19.85h1.66l8.82,14.39,8.86-14.39h1.55V42.51H248V23.43l-8.52,13.88Z"/><path class="cls-3" d="M271.33,39.59a9,9,0,0,1-7.16,3.25A9.16,9.16,0,0,1,257,39.59a12.41,12.41,0,0,1-2.84-8.41A12.45,12.45,0,0,1,257,22.76a9.18,9.18,0,0,1,7.16-3.24,9.06,9.06,0,0,1,7.16,3.24,12.28,12.28,0,0,1,2.88,8.42A12.23,12.23,0,0,1,271.33,39.59ZM270,24.06a7.23,7.23,0,0,0-5.87-2.77,7.15,7.15,0,0,0-5.83,2.77,10.83,10.83,0,0,0-2.25,7.12,10.83,10.83,0,0,0,2.25,7.12,7.15,7.15,0,0,0,5.83,2.77A7.23,7.23,0,0,0,270,38.3a10.83,10.83,0,0,0,2.25-7.12A10.83,10.83,0,0,0,270,24.06Z"/><path class="cls-3" d="M278.53,19.85h7.82c4.43,0,7.31,2.21,7.31,6.35,0,3.65-2.25,5.75-5.79,6.2l6.86,10.11h-2.18l-6.75-10h-5.39v10h-1.88Zm1.88,11h5.87c3.43,0,5.53-1.74,5.53-4.65s-2.1-4.65-5.53-4.65h-5.87Z"/><path class="cls-3" d="M312.85,19.85v1.73H300.63V30h11.08V31.7H300.63v9.08h12.22v1.73H298.79V19.85Z"/><path class="cls-3" d="M341,36.27c0,4-2.8,6.24-7.38,6.24H326V19.85h6.94c4.61,0,7.23,2.14,7.23,5.87a4.94,4.94,0,0,1-3.73,5.05A5.45,5.45,0,0,1,341,36.27ZM332.89,30c3.43,0,5.39-1.43,5.39-4.24s-2-4.24-5.39-4.24h-5.1V30Zm-5.1,10.78h5.91c3.54,0,5.39-1.81,5.39-4.57s-1.85-4.58-5.39-4.58h-5.91Z"/><path class="cls-3" d="M358,35.05H348l-2.92,7.46h-1.88l9-22.66h1.73l9,22.66H361Zm-9.38-1.69h8.71L353,22.28Z"/><path class="cls-3" d="M366.62,19.85h1.88V40.78h12.29v1.73H366.62Z"/><path class="cls-3" d="M398,35.05h-10L385,42.51h-1.88l9-22.66h1.73l9,22.66H400.9Zm-9.38-1.69h8.71l-4.35-11.08Z"/><path class="cls-3" d="M423.45,42.51H422.2L408.35,22.84V42.51h-1.81V19.85h1.81l13.29,18.9V19.85h1.81Z"/><path class="cls-3" d="M430.79,22.65a9.66,9.66,0,0,1,7.27-3.13,9.48,9.48,0,0,1,6.2,1.95v2.07a8.77,8.77,0,0,0-6.16-2.25,7.77,7.77,0,0,0-6,2.65,10.49,10.49,0,0,0-2.36,7.24,10.44,10.44,0,0,0,2.36,7.23,7.75,7.75,0,0,0,6,2.66,8.81,8.81,0,0,0,6.16-2.29v2.11a9.53,9.53,0,0,1-6.2,2,9.66,9.66,0,0,1-7.27-3.13,11.92,11.92,0,0,1-3-8.53A11.92,11.92,0,0,1,430.79,22.65Z"/><path class="cls-3" d="M463.08,19.85v1.73H450.87V30h11.07V31.7H450.87v9.08h12.21v1.73H449V19.85Z"/><path class="cls-3" d="M16.92,73.8V51.14H30.06v1.73H18.8v8.64H29.47v1.7H18.8V73.8Z"/><path class="cls-3" d="M34.37,51.14H42.2c4.43,0,7.3,2.21,7.3,6.34,0,3.66-2.25,5.76-5.79,6.21L50.58,73.8H48.4l-6.76-10H36.25v10H34.37Zm1.88,11h5.87c3.43,0,5.54-1.73,5.54-4.65s-2.11-4.65-5.54-4.65H36.25Z"/><path class="cls-3" d="M70.21,70.88a9,9,0,0,1-7.16,3.25,9.16,9.16,0,0,1-7.16-3.25A12.36,12.36,0,0,1,53,62.47a12.39,12.39,0,0,1,2.85-8.42,9.16,9.16,0,0,1,7.16-3.25,9,9,0,0,1,7.16,3.25,12.26,12.26,0,0,1,2.88,8.42A12.23,12.23,0,0,1,70.21,70.88ZM68.92,55.34a7.59,7.59,0,0,0-11.71,0A10.87,10.87,0,0,0,55,62.47a10.85,10.85,0,0,0,2.25,7.12,7.57,7.57,0,0,0,11.71,0,10.85,10.85,0,0,0,2.25-7.12A10.87,10.87,0,0,0,68.92,55.34Z"/><path class="cls-3" d="M87.81,68.59,79.25,54.72V73.8H77.4V51.14h1.66l8.82,14.39,8.86-14.39h1.55V73.8H96.45V54.72L87.92,68.59Z"/><path class="cls-3" d="M126.41,51.14h2l-8.27,13V73.8h-1.88V64.13l-8.23-13h2.07l7.16,11.25Z"/><path class="cls-3" d="M146.93,70.88a9,9,0,0,1-7.16,3.25,9.16,9.16,0,0,1-7.16-3.25,12.41,12.41,0,0,1-2.84-8.41,12.43,12.43,0,0,1,2.84-8.42,9.16,9.16,0,0,1,7.16-3.25,9,9,0,0,1,7.16,3.25,12.26,12.26,0,0,1,2.88,8.42A12.23,12.23,0,0,1,146.93,70.88Zm-1.29-15.54a7.26,7.26,0,0,0-5.87-2.76,7.17,7.17,0,0,0-5.83,2.76,10.82,10.82,0,0,0-2.25,7.13,10.79,10.79,0,0,0,2.25,7.12,7.15,7.15,0,0,0,5.83,2.77,7.24,7.24,0,0,0,5.87-2.77,10.85,10.85,0,0,0,2.25-7.12A10.87,10.87,0,0,0,145.64,55.34Z"/><path class="cls-3" d="M156.19,71.84c-1.66-1.55-2.51-3.87-2.51-7V51.14h1.88V64.61c0,5.28,2.92,7.79,6.8,7.79a6.6,6.6,0,0,0,4.87-1.92c1.29-1.3,2-3.25,2-5.87V51.14h1.89V64.87q0,4.65-2.55,7a9.44,9.44,0,0,1-12.33,0Z"/><path class="cls-3" d="M176.45,51.14h7.83c4.43,0,7.3,2.21,7.3,6.34,0,3.66-2.25,5.76-5.79,6.21l6.87,10.11h-2.18l-6.76-10h-5.39v10h-1.88Zm1.88,11h5.87c3.43,0,5.54-1.73,5.54-4.65s-2.11-4.65-5.54-4.65h-5.87Z"/><path class="cls-3" d="M206.75,73.8h-1.88V51.14h1.88Z"/><path class="cls-3" d="M229.48,73.8h-1.25L214.39,54.12V73.8h-1.81V51.14h1.81L227.68,70V51.14h1.8Z"/><path class="cls-3" d="M242.18,73.8l-8.93-22.66h1.95L243,71.21l7.9-20.07h1.91l-9,22.66Z"/><path class="cls-3" d="M270.67,51.14v1.73H258.45v8.38h11.07V63H258.45v9.08h12.22V73.8H256.61V51.14Z"/><path class="cls-3" d="M274.13,69.7a9.85,9.85,0,0,0,7,2.7c3.25,0,5.31-1.63,5.31-4.25,0-2.25-1.29-3.21-4.06-4.39l-3.32-1.4a13.69,13.69,0,0,1-3.36-2,4.62,4.62,0,0,1-1.55-3.8,4.94,4.94,0,0,1,2.07-4.32A8.17,8.17,0,0,1,281,50.8a11,11,0,0,1,6.35,1.92v2.11a9.49,9.49,0,0,0-6.32-2.29c-2.8,0-5.05,1.33-5.05,4,0,2.22,1.55,3.22,4,4.14l3.5,1.47c3.29,1.44,4.84,3.07,4.84,6a5.33,5.33,0,0,1-2,4.36,7.86,7.86,0,0,1-5.13,1.66,10.93,10.93,0,0,1-7-2.25Z"/><path class="cls-3" d="M291,51.14h18.46v1.73h-8.31V73.8h-1.88V52.87H291Z"/><path class="cls-3" d="M323.88,68.59l-8.56-13.87V73.8h-1.85V51.14h1.67L324,65.53l8.86-14.39h1.55V73.8h-1.85V54.72L324,68.59Z"/><path class="cls-3" d="M354.26,51.14v1.73H342v8.38h11.07V63H342v9.08h12.22V73.8H340.19V51.14Z"/><path class="cls-3" d="M376.1,73.8h-1.25L361,54.12V73.8H359.2V51.14H361L374.29,70V51.14h1.81Z"/><path class="cls-3" d="M380.16,51.14h18.46v1.73h-8.31V73.8h-1.88V52.87h-8.27Z"/><path class="cls-3" d="M401.19,69.7a9.85,9.85,0,0,0,7,2.7c3.25,0,5.31-1.63,5.31-4.25,0-2.25-1.29-3.21-4.06-4.39l-3.32-1.4a13.69,13.69,0,0,1-3.36-2,4.62,4.62,0,0,1-1.55-3.8,4.94,4.94,0,0,1,2.07-4.32,8.17,8.17,0,0,1,4.8-1.44,11,11,0,0,1,6.35,1.92v2.11a9.49,9.49,0,0,0-6.32-2.29c-2.8,0-5.05,1.33-5.05,4,0,2.22,1.55,3.22,3.95,4.14l3.5,1.47c3.29,1.44,4.84,3.07,4.84,6a5.33,5.33,0,0,1-2,4.36,7.86,7.86,0,0,1-5.13,1.66,10.93,10.93,0,0,1-7-2.25Z"/><path class="cls-3" d="M427.84,60.1A4.72,4.72,0,0,0,429,56.93c0-2.66-1.66-4.35-4.76-4.35a9,9,0,0,0-6.46,3.35V53.87a9,9,0,0,1,6.53-3.07c4.14,0,6.54,2.44,6.54,6.13a5.57,5.57,0,0,1-1.26,3.58c-.85,1.07-1.69,2.07-2.58,3a4.63,4.63,0,0,0-1.59,3.13h-1.77a6.45,6.45,0,0,1,2-4.09Zm-3.36,11a1.43,1.43,0,0,1,1.4,1.44,1.38,1.38,0,1,1-2.76,0A1.42,1.42,0,0,1,424.48,71.07Z"/></g></svg>