<svg id="Layer_1" data-name="Layer 1" xmlns="http://www.w3.org/2000/svg" xmlns:xlink="http://www.w3.org/1999/xlink" viewBox="0 0 970 250"><defs><style>.cls-1{fill:none;}.cls-2{clip-path:url(#clip-path);}.cls-3{fill:#221e1f;}.cls-4{fill:#fff;}.cls-5{clip-path:url(#clip-path-2);}.cls-6{clip-path:url(#clip-path-4);}.cls-7{clip-path:url(#clip-path-5);}.cls-8{clip-path:url(#clip-path-6);}.cls-9{clip-path:url(#clip-path-8);}.cls-10{clip-path:url(#clip-path-9);}.cls-11{clip-path:url(#clip-path-10);}.cls-12{clip-path:url(#clip-path-12);}.cls-13{clip-path:url(#clip-path-13);}</style><clipPath id="clip-path"><rect class="cls-1" width="970" height="250"/></clipPath><clipPath id="clip-path-2"><rect class="cls-1" x="990" width="970" height="250"/></clipPath><clipPath id="clip-path-4"><rect class="cls-1" x="1551.94" y="129.11" width="121.62" height="120.89"/></clipPath><clipPath id="clip-path-5"><rect class="cls-1" x="-31778" y="-32517" width="65535" height="65535"/></clipPath><clipPath id="clip-path-6"><rect class="cls-1" x="2970" width="970" height="250"/></clipPath><clipPath id="clip-path-8"><rect class="cls-1" x="3531.94" y="129.11" width="121.62" height="120.89"/></clipPath><clipPath id="clip-path-9"><rect class="cls-1" x="-29798" y="-32517" width="65535" height="65535"/></clipPath><clipPath id="clip-path-10"><rect class="cls-1" x="3960" width="970" height="250"/></clipPath><clipPath id="clip-path-12"><rect class="cls-1" x="4521.94" y="129.11" width="121.62" height="120.89"/></clipPath><clipPath id="clip-path-13"><rect class="cls-1" x="-28808" y="-32517" width="65535" height="65535"/></clipPath></defs><g class="cls-2"><path class="cls-3" d="M600,113.84v-1.26a4,4,0,0,1-2.34-1,2.83,2.83,0,0,1-.9-2.21l1.86-.07A1.71,1.71,0,0,0,600,111v-2l-.7-.12a2.42,2.42,0,0,1-2.32-2.46c0-1.59,1.18-2.61,3-2.72v-1.08h1v1.09a3,3,0,0,1,3,3.05l-1.82,0a1.5,1.5,0,0,0-1.16-1.47v1.94l.6.11c1.75.31,2.56,1.13,2.56,2.54a2.26,2.26,0,0,1-.91,1.93,4,4,0,0,1-2.25.75v1.23Zm0-6.74v-1.85c-.7.07-1.08.4-1.08,1S599.38,107,600,107.1Zm1,2.08V111c.72-.07,1.2-.41,1.2-1S601.74,109.29,601,109.18Z"/><path class="cls-3" d="M618.21,117.22v3.44H605v-2.9l4.76-3.85a25.51,25.51,0,0,0,2.87-2.65,3.63,3.63,0,0,0,.9-2.41,2,2,0,0,0-2.19-2.24c-1.64,0-2.35,1.18-2.35,2.82a4.89,4.89,0,0,0,.19,1.45l-4-.11a8.5,8.5,0,0,1-.22-1.62,5.61,5.61,0,0,1,1.8-4.37,6.8,6.8,0,0,1,4.76-1.67,6.51,6.51,0,0,1,4.73,1.59,5.1,5.1,0,0,1,1.66,3.91,5.57,5.57,0,0,1-1.23,3.71,22.13,22.13,0,0,1-3.25,3L611,117.22Z"/><path class="cls-3" d="M632.14,117.22v3.44H619v-2.9l4.76-3.85a25.24,25.24,0,0,0,2.86-2.65,3.59,3.59,0,0,0,.91-2.41,2,2,0,0,0-2.19-2.24c-1.64,0-2.35,1.18-2.35,2.82a4.89,4.89,0,0,0,.19,1.45l-4-.11a8.5,8.5,0,0,1-.22-1.62,5.61,5.61,0,0,1,1.8-4.37,6.8,6.8,0,0,1,4.76-1.67,6.47,6.47,0,0,1,4.72,1.59,5.08,5.08,0,0,1,1.67,3.91,5.57,5.57,0,0,1-1.23,3.71,22.13,22.13,0,0,1-3.25,3L625,117.22Z"/><path class="cls-3" d="M643,112.71a4.75,4.75,0,0,1-4.15,2,6,6,0,0,1-4.4-1.58,6,6,0,0,1,.24-8.39,7.08,7.08,0,0,1,4.79-1.62,6.55,6.55,0,0,1,5.44,2.38,10.09,10.09,0,0,1,1.88,6.42,10.77,10.77,0,0,1-1.88,6.51,6.39,6.39,0,0,1-5.55,2.57c-3.64,0-6-1.94-6.37-5.33l3.88-.08a2.28,2.28,0,0,0,2.54,2.13C641.68,117.71,642.88,115.66,643,112.71Zm-3.47-6.34a2.62,2.62,0,1,0,2.76,2.62A2.53,2.53,0,0,0,639.52,106.37Z"/><rect class="cls-4" x="593.95" y="70.02" width="57.59" height="23.07"/><path class="cls-3" d="M604.57,82.9c.08,1.4,1.16,2,2.4,2,1.07,0,1.75-.43,1.75-1.09s-.6-.84-1.48-1l-1.9-.33c-1.61-.31-2.75-1.21-2.75-2.93,0-2,1.58-3.23,4-3.23,2.75,0,4.25,1.38,4.3,3.62l-2.25.06a1.84,1.84,0,0,0-2.06-1.77c-1,0-1.61.42-1.61,1.11s.46.79,1.19.93l1.9.34c2,.37,3,1.4,3,3.06A2.64,2.64,0,0,1,609.89,86a5.19,5.19,0,0,1-2.92.81,5.4,5.4,0,0,1-3.33-1A3.31,3.31,0,0,1,602.33,83Z"/><path class="cls-3" d="M614.84,86.58h-2.43V76.45h4.28c2.62,0,4.15,1.24,4.15,3.41s-1.53,3.43-4.15,3.43h-1.85Zm1.76-5.26c1.33,0,1.88-.5,1.88-1.44s-.55-1.47-1.88-1.47h-1.76v2.91Z"/><path class="cls-3" d="M624.26,76.45v8.12h5.15v2h-7.59V76.45Z"/><path class="cls-3" d="M633.07,76.45V86.58h-2.44V76.45Z"/><path class="cls-3" d="M637.8,86.58V78.46h-3.52v-2h9.52v2h-3.57v8.12Z"/></g></svg>