<svg id="Layer_1" data-name="Layer 1" xmlns="http://www.w3.org/2000/svg" xmlns:xlink="http://www.w3.org/1999/xlink" viewBox="0 0 970 250"><defs><style>.cls-1{fill:none;}.cls-2{clip-path:url(#clip-path);}.cls-3{fill:#221e1f;}.cls-4{clip-path:url(#clip-path-2);}.cls-5{clip-path:url(#clip-path-4);}.cls-6{clip-path:url(#clip-path-5);}.cls-7{clip-path:url(#clip-path-6);}.cls-8{clip-path:url(#clip-path-8);}.cls-9{clip-path:url(#clip-path-9);}.cls-10{clip-path:url(#clip-path-10);}.cls-11{clip-path:url(#clip-path-12);}.cls-12{clip-path:url(#clip-path-13);}.cls-13{clip-path:url(#clip-path-14);}.cls-14{clip-path:url(#clip-path-16);}.cls-15{clip-path:url(#clip-path-17);}</style><clipPath id="clip-path"><rect class="cls-1" width="970" height="250"/></clipPath><clipPath id="clip-path-2"><rect class="cls-1" x="990" width="970" height="250"/></clipPath><clipPath id="clip-path-4"><rect class="cls-1" x="1551.94" y="129.11" width="121.62" height="120.89"/></clipPath><clipPath id="clip-path-5"><rect class="cls-1" x="-31778" y="-32517" width="65535" height="65535"/></clipPath><clipPath id="clip-path-6"><rect class="cls-1" x="1980" width="970" height="250"/></clipPath><clipPath id="clip-path-8"><rect class="cls-1" x="2541.94" y="129.11" width="121.62" height="120.89"/></clipPath><clipPath id="clip-path-9"><rect class="cls-1" x="-30788" y="-32517" width="65535" height="65535"/></clipPath><clipPath id="clip-path-10"><rect class="cls-1" x="3960" width="970" height="250"/></clipPath><clipPath id="clip-path-12"><rect class="cls-1" x="4521.94" y="129.11" width="121.62" height="120.89"/></clipPath><clipPath id="clip-path-13"><rect class="cls-1" x="-28808" y="-32517" width="65535" height="65535"/></clipPath><clipPath id="clip-path-14"><rect class="cls-1" x="4950" width="970" height="250"/></clipPath><clipPath id="clip-path-16"><rect class="cls-1" x="5511.94" y="129.11" width="121.62" height="120.89"/></clipPath><clipPath id="clip-path-17"><rect class="cls-1" x="-27818" y="-32517" width="65535" height="65535"/></clipPath></defs><g class="cls-2"><path class="cls-3" d="M68.26,111.35c-9.84,0-17.58-7.15-17.58-17.58S58.42,76.2,68.26,76.2s17.57,7.15,17.57,17.57S78.09,111.35,68.26,111.35Zm0-27.09c-5,0-8.18,3.76-8.18,9.51s3.18,9.52,8.18,9.52,8.17-3.76,8.17-9.52S73.26,84.26,68.26,84.26Z"/><path class="cls-3" d="M98,110.71H89.27v-24H98v3.6c1.29-2.63,4.14-4.24,7.74-4.24,6.56,0,8.66,4.57,8.66,9.57v15h-8.71V98c0-3.28-.92-5-3.55-5-3,0-4.14,2.36-4.14,6Z"/><path class="cls-3" d="M142.71,102.81c-1.24,5.48-5.65,8.54-12,8.54-7.69,0-13.17-4.62-13.17-12.25a12.64,12.64,0,0,1,13.06-13c8,0,12.26,5.48,12.26,12v2.41H126c.22,3,2.37,4.36,5,4.36,2.37,0,3.87-.81,4.68-2.69Zm-8.12-6.51a3.94,3.94,0,0,0-4.09-4c-2.79,0-4,1.72-4.35,4Z"/><path class="cls-3" d="M162.81,110.71h-6.72V76.84h8.71v14c1.18-2.85,3.87-4.78,7.9-4.78,7,0,10.64,5.59,10.64,12.63s-3.6,12.63-10.8,12.63c-3.87,0-6.88-1.88-8.23-4.78Zm2-11.83c0,3.5,1.88,5.75,4.84,5.75,3.38,0,4.94-2.42,4.94-5.91s-1.56-5.86-4.94-5.86c-3,0-4.84,2.26-4.84,5.7Z"/><path class="cls-3" d="M186.73,76.84h8.81v7.63h-8.81Zm8.76,9.89v24h-8.71v-24Z"/><path class="cls-3" d="M208.93,76.84v33.87h-8.71V76.84Z"/><path class="cls-3" d="M222.37,76.84v33.87h-8.71V76.84Z"/><path class="cls-3" d="M245.48,119.31h-8.71V86.73h8.71v4.14c1.19-2.85,3.87-4.78,7.91-4.78,7,0,10.64,5.59,10.64,12.63s-3.6,12.63-10.64,12.63c-4,0-6.72-1.93-7.91-4.73Zm0-20.43c0,3.5,1.89,5.75,4.84,5.75,3.39,0,5-2.42,5-5.91s-1.56-5.86-5-5.86c-2.95,0-4.84,2.26-4.84,5.7Z"/><path class="cls-3" d="M291.34,102.81c-1.24,5.48-5.65,8.54-12,8.54-7.69,0-13.17-4.62-13.17-12.25a12.64,12.64,0,0,1,13.06-13c8,0,12.26,5.48,12.26,12v2.41H274.67c.22,3,2.37,4.36,5,4.36,2.37,0,3.87-.81,4.68-2.69Zm-8.12-6.51a3.94,3.94,0,0,0-4.09-4c-2.79,0-4,1.72-4.35,4Z"/><path class="cls-3" d="M313.11,95.23a7.78,7.78,0,0,0-4.14-1c-3.23,0-5.22,1.5-5.22,5.53v11H295v-24h8.71V91a7,7,0,0,1,6.56-4.89,5.82,5.82,0,0,1,3.34.91Z"/><path class="cls-3" d="M326.87,92.75h-3.23V87.38l1.78-.27c2.41-.38,3.17-1.67,3.76-3.87l.8-3.12h5.49v6.61h6.23v6h-6.23v8.77c0,2,1,2.84,2.74,2.84a9.67,9.67,0,0,0,3.71-.8v5.64a11.25,11.25,0,0,1-7.2,2.15c-4,0-7.85-1.66-7.85-7.31Z"/><path class="cls-3" d="M367.67,103.67c0,1.23.53,1.77,1.45,1.77a4.92,4.92,0,0,0,1.93-.38v4.63a9.16,9.16,0,0,1-5.43,1.56,5.92,5.92,0,0,1-6.07-4.25c-1.4,2.79-4.14,4.25-8,4.25-4.67,0-7.74-2.42-7.74-6.51,0-4.62,3.34-6.61,8.55-7.53l6.72-1.12v-.38c0-2-.91-3.17-3-3.17-1.94,0-2.9,1.23-3.28,3L344.77,95c.75-5.27,4.67-8.92,11.88-8.92,6.34,0,11,2.74,11,9.41Zm-8.55-3.34-3.55.65c-2.09.43-3.33,1.07-3.33,2.63,0,1.24,1,2,2.42,2,2.47,0,4.46-1.83,4.46-5Z"/><path class="cls-3" d="M380.3,110.71h-6.72V76.84h8.71v14c1.18-2.85,3.87-4.78,7.9-4.78,7,0,10.64,5.59,10.64,12.63s-3.6,12.63-10.8,12.63c-3.87,0-6.88-1.88-8.23-4.78Zm2-11.83c0,3.5,1.88,5.75,4.84,5.75,3.38,0,4.94-2.42,4.94-5.91s-1.56-5.86-4.94-5.86c-3,0-4.84,2.26-4.84,5.7Z"/><path class="cls-3" d="M413,76.84v33.87h-8.71V76.84Z"/><path class="cls-3" d="M441.58,102.81c-1.24,5.48-5.64,8.54-12,8.54-7.68,0-13.17-4.62-13.17-12.25a12.64,12.64,0,0,1,13.07-13c8,0,12.25,5.48,12.25,12v2.41H424.92c.21,3,2.36,4.36,5,4.36,2.36,0,3.87-.81,4.67-2.69Zm-8.12-6.51a3.92,3.92,0,0,0-4.08-4c-2.8,0-4,1.72-4.36,4Z"/><path class="cls-3" d="M453.08,99.42a9,9,0,0,1,3.55-6.88c2.15-1.72,3.82-3,3.82-5.43a3.08,3.08,0,0,0-3.39-3.17c-3.06,0-4.14,2.15-4.14,4.89a8.7,8.7,0,0,0,.38,2.79l-8.93-.26a17.07,17.07,0,0,1-.43-3.18c0-7.25,5.38-12,13.17-12,8.23,0,12.91,4.62,12.91,10.42,0,4.41-2.69,6.89-5.76,9.14-1.72,1.29-2.63,2.32-2.74,3.66Zm-.43,2h9.25v9.25h-9.25Z"/></g></svg>