<svg id="Layer_1" data-name="Layer 1" xmlns="http://www.w3.org/2000/svg" xmlns:xlink="http://www.w3.org/1999/xlink" viewBox="0 0 970 250"><defs><style>.cls-1{fill:none;}.cls-2{clip-path:url(#clip-path);}.cls-3{fill:#221e1f;}.cls-4{fill:#fff;}.cls-5{clip-path:url(#clip-path-4);}.cls-6{clip-path:url(#clip-path-5);}.cls-7{clip-path:url(#clip-path-7);}.cls-8{clip-path:url(#clip-path-8);}.cls-9{clip-path:url(#clip-path-9);}.cls-10{clip-path:url(#clip-path-11);}.cls-11{clip-path:url(#clip-path-12);}.cls-12{clip-path:url(#clip-path-13);}.cls-13{clip-path:url(#clip-path-15);}.cls-14{clip-path:url(#clip-path-16);}.cls-15{clip-path:url(#clip-path-17);}.cls-16{clip-path:url(#clip-path-19);}.cls-17{clip-path:url(#clip-path-20);}</style><clipPath id="clip-path"><rect class="cls-1" width="970" height="250"/></clipPath><clipPath id="clip-path-4"><rect class="cls-1" x="815.04" y="97" width="111.85" height="25.62"/></clipPath><clipPath id="clip-path-5"><rect class="cls-1" x="990" width="970" height="250"/></clipPath><clipPath id="clip-path-7"><rect class="cls-1" x="1551.94" y="129.11" width="121.62" height="120.89"/></clipPath><clipPath id="clip-path-8"><rect class="cls-1" x="-31778" y="-32517" width="65535" height="65535"/></clipPath><clipPath id="clip-path-9"><rect class="cls-1" x="1980" width="970" height="250"/></clipPath><clipPath id="clip-path-11"><rect class="cls-1" x="2541.94" y="129.11" width="121.62" height="120.89"/></clipPath><clipPath id="clip-path-12"><rect class="cls-1" x="-30788" y="-32517" width="65535" height="65535"/></clipPath><clipPath id="clip-path-13"><rect class="cls-1" x="3960" width="970" height="250"/></clipPath><clipPath id="clip-path-15"><rect class="cls-1" x="4521.94" y="129.11" width="121.62" height="120.89"/></clipPath><clipPath id="clip-path-16"><rect class="cls-1" x="-28808" y="-32517" width="65535" height="65535"/></clipPath><clipPath id="clip-path-17"><rect class="cls-1" x="4950" width="970" height="250"/></clipPath><clipPath id="clip-path-19"><rect class="cls-1" x="5511.94" y="129.11" width="121.62" height="120.89"/></clipPath><clipPath id="clip-path-20"><rect class="cls-1" x="-27818" y="-32517" width="65535" height="65535"/></clipPath></defs><g class="cls-2"><g class="cls-2"><rect class="cls-3" x="757" width="213" height="250"/></g><g class="cls-2"><path class="cls-4" d="M799.12,138.27v-1.19h1.33v-1a2.75,2.75,0,0,1,2.88-3.06,2.54,2.54,0,0,1,2.72,2l-1.13.4a1.56,1.56,0,0,0-1.51-1.2c-.91,0-1.33.66-1.33,1.69v1.2h2.44v1.19h-2.44v7.49h-1.63v-7.49Z"/><path class="cls-4" d="M811,138.72a2.57,2.57,0,0,0-1.35-.35c-1.25,0-2.19,1.13-2.19,2.8v4.59h-1.64v-8.68h1.64v1.76a2.74,2.74,0,0,1,2.47-2,1.85,1.85,0,0,1,1.23.39Z"/><path class="cls-4" d="M812.31,133.24H814v1.87h-1.71Zm1.69,3.84v8.68h-1.65v-8.68Z"/><path class="cls-4" d="M824.21,142.84a3.87,3.87,0,0,1-4.05,3.16,4.25,4.25,0,0,1-4.47-4.46,4.42,4.42,0,0,1,4.39-4.7,4,4,0,0,1,4.17,4.33v.65h-6.91a2.86,2.86,0,0,0,2.84,2.88,2.49,2.49,0,0,0,2.66-2Zm-1.65-2.09a2.48,2.48,0,0,0-2.48-2.66,2.79,2.79,0,0,0-2.7,2.66Z"/><path class="cls-4" d="M827.61,145.76H826v-8.68h1.65v1.54a3.08,3.08,0,0,1,2.88-1.78c2.26,0,3.18,1.51,3.18,3.53v5.39H832v-5.25c0-1.45-.7-2.36-2.07-2.36a2.4,2.4,0,0,0-2.34,2.62Z"/><path class="cls-4" d="M842.35,144a3.23,3.23,0,0,1-3.12,2.05c-2.58,0-4-2-4-4.57s1.39-4.59,4-4.59a3.24,3.24,0,0,1,3.12,2.06v-5.66H844v12.52h-1.65Zm0-2.78a2.73,2.73,0,0,0-2.76-3c-1.71,0-2.66,1.27-2.66,3.26s.95,3.25,2.66,3.25a2.73,2.73,0,0,0,2.76-3Z"/><path class="cls-4" d="M852.78,148.94h-3.22v-12h3.22v1.53a2.94,2.94,0,0,1,2.92-1.77c2.6,0,3.93,2.06,3.93,4.67S858.3,146,855.7,146a3,3,0,0,1-2.92-1.75Zm0-7.55c0,1.29.7,2.12,1.79,2.12,1.25,0,1.83-.89,1.83-2.18s-.58-2.17-1.83-2.17c-1.09,0-1.79.84-1.79,2.11Z"/><path class="cls-4" d="M869.19,143.15c0,.46.2.66.54.66a1.76,1.76,0,0,0,.71-.14v1.71a3.35,3.35,0,0,1-2,.58,2.19,2.19,0,0,1-2.25-1.57,3,3,0,0,1-2.94,1.57c-1.73,0-2.86-.9-2.86-2.41,0-1.71,1.23-2.44,3.16-2.78l2.48-.42v-.14c0-.73-.33-1.17-1.11-1.17a1.2,1.2,0,0,0-1.21,1.11l-3-.19c.28-2,1.73-3.3,4.39-3.3,2.34,0,4.07,1,4.07,3.47ZM866,141.92l-1.31.24c-.77.16-1.23.4-1.23,1a.79.79,0,0,0,.89.76,1.66,1.66,0,0,0,1.65-1.83Z"/><path class="cls-4" d="M872.33,148.94l1.27-3.06-3.61-9h3.37l2,5.18h.08l2-5.18h3.16l-5.09,12Z"/><path class="cls-4" d="M884.23,138.27v-1.19h1.33v-1a2.76,2.76,0,0,1,2.88-3.06,2.54,2.54,0,0,1,2.72,2l-1.13.4a1.56,1.56,0,0,0-1.51-1.2c-.91,0-1.33.66-1.33,1.69v1.2h2.44v1.19h-2.44v7.49h-1.63v-7.49Z"/><path class="cls-4" d="M896.07,138.72a2.57,2.57,0,0,0-1.35-.35c-1.25,0-2.18,1.13-2.18,2.8v4.59h-1.65v-8.68h1.65v1.76a2.72,2.72,0,0,1,2.46-2,1.83,1.83,0,0,1,1.23.39Z"/><path class="cls-4" d="M897.42,133.24h1.71v1.87h-1.71Zm1.69,3.84v8.68h-1.65v-8.68Z"/><path class="cls-4" d="M909.32,142.84a3.85,3.85,0,0,1-4.05,3.16,4.25,4.25,0,0,1-4.47-4.46,4.42,4.42,0,0,1,4.39-4.7,4,4,0,0,1,4.17,4.33v.65h-6.91a2.86,2.86,0,0,0,2.84,2.88,2.49,2.49,0,0,0,2.66-2Zm-1.65-2.09a2.48,2.48,0,0,0-2.48-2.66,2.79,2.79,0,0,0-2.7,2.66Z"/><path class="cls-4" d="M912.72,145.76h-1.65v-8.68h1.65v1.54a3.08,3.08,0,0,1,2.88-1.78c2.27,0,3.18,1.51,3.18,3.53v5.39h-1.65v-5.25c0-1.45-.69-2.36-2.06-2.36a2.4,2.4,0,0,0-2.35,2.62Z"/><path class="cls-4" d="M927.46,144a3.23,3.23,0,0,1-3.12,2.05c-2.58,0-4-2-4-4.57s1.39-4.59,4-4.59a3.24,3.24,0,0,1,3.12,2.06v-5.66h1.65v12.52h-1.65Zm0-2.78a2.73,2.73,0,0,0-2.76-3c-1.71,0-2.66,1.27-2.66,3.26s1,3.25,2.66,3.25a2.73,2.73,0,0,0,2.76-3Z"/><g class="cls-5"><path class="cls-4" d="M837.18,115.38c0-3.53-2.25-5.45-5.17-6a4.94,4.94,0,0,0,4.42-5c0-4.16-2.88-6.82-9.27-6.82H815v24.68H828c5.8,0,9.2-2.5,9.2-6.77m-10.3-3.14c2.37,0,3.39,1,3.39,2.31s-1,2.27-3.35,2.27h-5.37v-4.58Zm-5.33-9.48h4.74c2.29,0,3.19,1,3.19,2.31s-.9,2.2-3.19,2.2h-4.74Z"/><path class="cls-4" d="M851,122.62c6.39,0,11.32-3.05,11.32-10.26V97.47h-6.71v13.79c0,3.76-1.14,5.76-4.61,5.76s-4.62-2-4.62-5.76V97.47h-6.67v14.89c0,7.21,4.89,10.26,11.29,10.26"/><path class="cls-4" d="M864.76,109.81a12.33,12.33,0,0,0,12.75,12.81c7.61,0,11.68-4.78,12.15-10.93l-6.43-.27c-.4,2.74-1.9,5.29-5.76,5.29-3.67,0-5.8-2.71-5.8-6.9s2.13-6.89,5.8-6.89c3.86,0,5.36,2.54,5.76,5.29l6.43-.24c-.47-6.15-4.54-11-12.15-11a12.33,12.33,0,0,0-12.75,12.81"/><polygon class="cls-4" points="916.06 122.15 905.99 107.97 915.58 97.47 907.89 97.47 898.97 107.46 898.97 97.47 892.26 97.47 892.26 122.15 898.97 122.15 898.97 114.67 901.14 112.32 908.05 122.15 916.06 122.15"/><path class="cls-4" d="M920.8,101.38h-1v-3h-1.31v-.9h3.69v.9H920.8Zm4.28,0h-.76l-.77-2.72h0v2.72h-1V97.49h1.51l.68,2.6h0l.67-2.6h1.46v3.89h-1V98.66h0Z"/></g></g></g></svg>