<svg id="Ebene_1" data-name="Ebene 1" xmlns="http://www.w3.org/2000/svg" viewBox="0 0 300 600"><defs><style>.cls-1{fill:#192847;}.cls-2{fill:#fff;}</style></defs><title>cta</title><rect class="cls-1" x="120.63" y="544" width="159.37" height="36"/><path class="cls-2" d="M144.21,564.28c0,1.7-.83,2.49-2.31,2.49a3.52,3.52,0,0,1-1.39-.27v-1.56a2.2,2.2,0,0,0,1.06.3c.55,0,.79-.2.79-.84v-5.6h1.85Z"/><path class="cls-2" d="M151.93,560.31h-3.55v1.59h3.14v1.5h-3.14v1.07c0,.4.12.6.54.6h3.14v1.51h-3.47c-1.45,0-2.06-.73-2.06-2.11V558.8h5.4Z"/><path class="cls-2" d="M160,560.31h-2.48v6.27h-1.87v-6.27h-2.48V558.8H160Z"/><path class="cls-2" d="M167.18,560.16l-4,4.91h4.11v1.51h-6.47v-1.24l4.1-5h-4V558.8h6.27Z"/><path class="cls-2" d="M175,560.31H172.5v6.27h-1.86v-6.27h-2.48V558.8H175Z"/><path class="cls-2" d="M181.81,566.58H180V558.8h2.94c2.07,0,3.41.86,3.41,2.62s-1.34,2.63-3.41,2.63h-1.09Zm0-4h1.09c.77,0,1.47-.23,1.47-1.12s-.7-1.11-1.47-1.11h-1.09Z"/><path class="cls-2" d="M190.06,566.58h-1.85V558.8h3.06c2,0,3.29.91,3.29,2.58a2.18,2.18,0,0,1-1.76,2.22l1.89,3H192.6L191,564h-1Zm0-4.11h1.09c.77,0,1.47-.19,1.47-1.08s-.7-1.08-1.47-1.08h-1.09Z"/><path class="cls-2" d="M200.15,566.77c-2.54,0-4.26-1.53-4.26-4.08s1.72-4.08,4.26-4.08,4.26,1.52,4.26,4.08A3.9,3.9,0,0,1,200.15,566.77Zm0-6.62a2.55,2.55,0,1,0,2.33,2.54A2.23,2.23,0,0,0,200.15,560.15Z"/><path class="cls-2" d="M211.74,560.31h-3.56v1.84h3.15v1.51h-3.15v2.92h-1.85V558.8h5.41Z"/><path class="cls-2" d="M215.64,566.58h-1.85V558.8h1.85Z"/><path class="cls-2" d="M224,560.31h-2.48v6.27h-1.87v-6.27H217.2V558.8H224Z"/><path class="cls-2" d="M227.43,566.58h-1.85V558.8h1.85Z"/><path class="cls-2" d="M235.26,560.31h-3.55v1.59h3.15v1.5h-3.15v1.07c0,.4.12.6.54.6h3.14v1.51h-3.47c-1.45,0-2.06-.73-2.06-2.11V558.8h5.4Z"/><path class="cls-2" d="M239.31,566.58h-1.85V558.8h3.06c2,0,3.29.91,3.29,2.58a2.19,2.19,0,0,1-1.76,2.22l1.89,3h-2.09l-1.57-2.6h-1Zm0-4.11h1.09c.77,0,1.47-.19,1.47-1.08s-.7-1.08-1.47-1.08h-1.09Z"/><path class="cls-2" d="M251.05,560.31H247.5v1.59h3.15v1.5H247.5v1.07c0,.4.12.6.54.6h3.14v1.51h-3.47c-1.45,0-2.06-.73-2.06-2.11V558.8h5.4Z"/><path class="cls-2" d="M260.26,566.58h-1.58l-3.63-4.75v4.75h-1.8V558.8h1.57l3.64,4.75V558.8h1.8Z"/></svg>