<svg id="typo" xmlns="http://www.w3.org/2000/svg" viewBox="0 0 300 600"><defs><style>.cls-1{fill:#fff;}</style></defs><title>text2</title><path class="cls-1" d="M45.48,151.79H42l-8-10.74v10.74h-4V134.21h3.46l8,10.74V134.21h3.95Z"/><path class="cls-1" d="M62.09,137.62H54.32v3.59h6.89v3.4H54.32V147c0,.91.26,1.35,1.2,1.35h6.86v3.41H54.79c-3.17,0-4.53-1.64-4.53-4.76V134.21H62.09Z"/><path class="cls-1" d="M78.61,134.21l3.74,12.4,3.07-12.4h4.26l-4.76,17.58H80.61l-3.83-12.35L73,151.79H68.65l-4.76-17.58h4.26l3.07,12.4L75,134.21Z"/><path class="cls-1" d="M103.2,151.79H99.14V134.21h6.45c4.53,0,7.46,1.95,7.46,5.93s-2.93,5.93-7.46,5.93H103.2Zm0-9.13h2.39c1.69,0,3.23-.52,3.23-2.52s-1.54-2.52-3.23-2.52H103.2Z"/><path class="cls-1" d="M128.32,137.62h-7.78v3.59h6.89v3.4h-6.89V147c0,.91.26,1.35,1.2,1.35h6.86v3.41H121c-3.17,0-4.52-1.64-4.52-4.76V134.21h11.83Z"/><path class="cls-1" d="M146.78,145.31c0,4.5-3,6.92-7.31,6.92s-7.31-2.42-7.31-6.92v-11.1h4.06v11.13c0,2.39,1.4,3.43,3.25,3.43a3.08,3.08,0,0,0,3.3-3.43V134.21h4Z"/><path class="cls-1" d="M167.13,150.15a15.06,15.06,0,0,1-7.59,2.08c-5,0-9.54-2.7-9.54-9.23s5.15-9.23,10.35-9.23A15.87,15.87,0,0,1,166.8,135v3.64a15.57,15.57,0,0,0-6.37-1.41c-3.12,0-6.22,1.25-6.22,5.75,0,4.29,2.76,5.77,5.59,5.77a9.52,9.52,0,0,0,3.38-.62v-3.38h-4v-3.33h7.93Z"/><path class="cls-1" d="M183.36,137.62h-7.78v3.59h6.89v3.4h-6.89V147c0,.91.26,1.35,1.2,1.35h6.86v3.41h-7.59c-3.17,0-4.52-1.64-4.52-4.76V134.21h11.83Z"/><path class="cls-1" d="M195.66,152.23c-5.57,0-9.34-3.46-9.34-9.23s3.77-9.23,9.34-9.23S205,137.23,205,143,201.19,152.23,195.66,152.23Zm0-15c-3.36,0-5.1,2.29-5.1,5.75s1.74,5.77,5.1,5.77,5.09-2.31,5.09-5.77S199,137.25,195.66,137.25Z"/><path class="cls-1" d="M219.94,137.62h-5.43v14.17h-4.09V137.62H205v-3.41h14.95Z"/><path class="cls-1" d="M240.64,151.79h-12v-3.25l5.57-5.23c1.38-1.3,2-2.36,2-3.72,0-1.79-1.32-2.36-2.83-2.36a8.85,8.85,0,0,0-4.06,1.06v-3.58a11.59,11.59,0,0,1,4.58-.94c3.3,0,6.55,1.48,6.55,5.59,0,2.81-1.14,4.39-3.07,6l-3.61,3h6.87Z"/><path class="cls-1" d="M257.35,143c0,5-2.52,9.23-7.51,9.23s-7.52-4.21-7.52-9.23,2.53-9.23,7.52-9.23S257.35,138,257.35,143Zm-10.89,0c0,3.46,1,5.77,3.38,5.77s3.38-2.31,3.38-5.77-1-5.75-3.38-5.75S246.46,139.54,246.46,143Z"/><path class="cls-1" d="M258.24,147a4.26,4.26,0,0,1,2.86-4.34,3.92,3.92,0,0,1-2.5-3.93c0-3.09,2.65-5,6.6-5s6.61,1.88,6.61,5a4,4,0,0,1-2.5,3.93,4.26,4.26,0,0,1,2.86,4.34c0,3-2.49,5.25-7,5.25S258.24,150,258.24,147Zm4.21-.39c0,1.56,1.19,2.34,2.75,2.34s2.76-.78,2.76-2.34-1.22-2.26-2.76-2.26S262.45,145,262.45,146.59Zm.36-7.44c0,1.54,1.07,2,2.39,2s2.4-.49,2.4-2-1.07-2.08-2.4-2.08S262.81,137.62,262.81,139.15Z"/></svg>