<svg id="Ebene_1" data-name="Ebene 1" xmlns="http://www.w3.org/2000/svg" viewBox="0 0 300 600"><defs><style>.cls-1{fill:none;}.cls-2{fill:#fff;}.cls-3{fill:#192847;}</style></defs><title>Zeichenfläche 1 Kopie 5</title><rect class="cls-1" x="11.78" y="248.19" width="276.45" height="175.93"/><path class="cls-2" d="M69.49,284.33l-2.38.61-5.5-6v7.42l-2.73.7V274.92l2.39-.62,5.49,6v-7.42l2.73-.7Z"/><path class="cls-2" d="M81.33,271.49,76,272.87v2.48l4.76-1.22v2.35L76,277.71v1.67c0,.63.18.88.83.72l4.74-1.22v2.35l-5.25,1.35c-2.19.57-3.12-.33-3.12-2.48v-8.86l8.17-2.1Z"/><path class="cls-2" d="M93.1,266.11l2.58,7.9,2.12-9.11,3-.76-3.29,13-3,.77L91.84,270l-2.62,9.21-3,.77-3.29-11.29,2.95-.76L88,276l2.58-9.23Z"/><path class="cls-2" d="M110.81,273.69l-2.8.72V262.27l4.45-1.15c3.13-.8,5.15,0,5.15,2.77s-2,4.62-5.15,5.43l-1.65.42Zm0-6.3,1.65-.43c1.17-.3,2.23-.93,2.23-2.31s-1.06-1.47-2.23-1.17l-1.65.42Z"/><path class="cls-2" d="M128.52,259.34l-5.37,1.39v2.48l4.76-1.23v2.35l-4.76,1.23v1.67c0,.63.18.89.82.72l4.75-1.22v2.35l-5.25,1.35c-2.19.57-3.12-.32-3.12-2.48v-8.86l8.17-2.1Z"/><path class="cls-2" d="M141.63,261.28a6.2,6.2,0,0,1-5,6.08c-3,.77-5-.37-5-3.48v-7.67l2.8-.72v7.69c0,1.65,1,2.12,2.24,1.79a2.88,2.88,0,0,0,2.28-3v-7.69l2.77-.72Z"/><path class="cls-2" d="M156.05,260.91a13.53,13.53,0,0,1-5.24,2.79c-3.45.89-6.59-.17-6.59-4.68s3.55-7.29,7.15-8.22a10.3,10.3,0,0,1,4.45-.28V253a10,10,0,0,0-4.4.17c-2.16.55-4.29,2-4.29,5.07s1.9,3.5,3.86,3a7.77,7.77,0,0,0,2.33-1V257.9l-2.74.7v-2.29l5.47-1.41Z"/><path class="cls-2" d="M167.62,249.28l-5.37,1.38v2.48l4.76-1.23v2.36l-4.76,1.22v1.67c0,.63.18.89.83.72l4.74-1.22V259l-5.25,1.35c-2.19.56-3.12-.33-3.12-2.49V249l8.17-2.11Z"/><path class="cls-2" d="M176.48,257.09c-3.85,1-6.45-.73-6.45-4.71a8.17,8.17,0,0,1,6.45-8c3.82-1,6.44.73,6.44,4.71A8.19,8.19,0,0,1,176.48,257.09Zm0-10.34a4.65,4.65,0,0,0-3.52,4.87c0,2.39,1.2,3.68,3.52,3.08a4.69,4.69,0,0,0,3.52-4.89C180,247.42,178.78,246.15,176.48,246.75Z"/><path class="cls-2" d="M193.61,242.59l-3.75,1v9.79l-2.82.73v-9.79l-3.76,1v-2.35l10.33-2.66Z"/><path class="cls-2" d="M208.63,248.51l-8.26,2.13v-2.25l3.84-4.6a4.56,4.56,0,0,0,1.37-2.92c0-1.24-.92-1.4-2-1.13a7.7,7.7,0,0,0-2.8,1.46v-2.48a9.94,9.94,0,0,1,3.16-1.46c2.28-.59,4.52-.14,4.52,2.69a6.55,6.55,0,0,1-2.12,4.7l-2.49,2.73,4.74-1.22Z"/><path class="cls-2" d="M220.54,239.37c0,3.47-1.74,6.83-5.19,7.71s-5.19-1.57-5.19-5,1.74-6.82,5.19-7.71S220.54,235.9,220.54,239.37ZM213,241.31c0,2.39.7,3.81,2.34,3.39s2.33-2.2,2.33-4.59-.7-3.79-2.33-3.37S213,238.92,213,241.31Z"/><path class="cls-2" d="M221.51,241.87a4,4,0,0,1,2-3.51,2,2,0,0,1-1.72-2.27c0-2.13,1.83-3.9,4.56-4.6s4.56.12,4.56,2.25a3.71,3.71,0,0,1-1.72,3.16,2.17,2.17,0,0,1,2,2.49c0,2.09-1.72,4.07-4.81,4.87S221.51,244,221.51,241.87Zm2.91-1c0,1.08.82,1.41,1.9,1.13a2.28,2.28,0,0,0,1.91-2.11c0-1.08-.85-1.34-1.91-1.07A2.2,2.2,0,0,0,224.42,240.85Zm.25-5.2c0,1.06.74,1.21,1.65,1A1.87,1.87,0,0,0,228,234.8c0-1.06-.73-1.25-1.65-1A1.9,1.9,0,0,0,224.67,235.65Z"/><path class="cls-3" d="M284,283.38a9.39,9.39,0,0,0-8.09-1.67l-6.51,1.68a9.32,9.32,0,0,0-5.84,4.49,9.43,9.43,0,0,0-7.29-1.12l-5.7,1.47a9.34,9.34,0,0,0-3.72,1.94,9.36,9.36,0,0,0-4.21.11l-19.51,5a9.33,9.33,0,0,0-5.09,3.35,28.4,28.4,0,0,0-4.59-.4,9.48,9.48,0,0,0,.3-2.33v-16.1l1.92-.49a9.39,9.39,0,0,0,7-9.09v-5.62A9.39,9.39,0,0,0,211,255.54l-24.66,6.35a8.76,8.76,0,0,0-1.73.64,9.1,9.1,0,0,0-1.79.26l-22.64,5.83a9.8,9.8,0,0,0-1.65.6,9.59,9.59,0,0,0-1.69.26l-24.66,6.35a9.61,9.61,0,0,0-2.18.86,9.83,9.83,0,0,0-2.28.29l-19.51,5a9.39,9.39,0,0,0-3.92,2.11,9.31,9.31,0,0,0-4.45.05l-6.69,1.72a9.37,9.37,0,0,0-7,9.08V310.6a9.37,9.37,0,0,0-6.69,9v5.79a9.36,9.36,0,0,0,2.44,6.3l-3.67.94a9.39,9.39,0,0,0-6,4.82l-2.48,4.84-.68-1a9.37,9.37,0,0,0-10-3.73l-6.52,1.68a9.26,9.26,0,0,0-3.92,2.1,9.39,9.39,0,0,0-4.44.05l-6.61,1.7a9.37,9.37,0,0,0-4.94,3.17,9.47,9.47,0,0,0-5.86-.39L20,347.6a9.37,9.37,0,0,0-7,9.08V375c0,6.21,2.33,11.44,6.55,14.71a17.54,17.54,0,0,0,10.94,3.52,25.09,25.09,0,0,0,6.28-.84A26.23,26.23,0,0,0,49.44,385a9.44,9.44,0,0,0,7.67,1.37l6.6-1.7a9.4,9.4,0,0,0,6.9-7.44l2.51-.65a9.63,9.63,0,0,0,1.54,1.52,9.43,9.43,0,0,0,8.09,1.67l6.6-1.7A9.4,9.4,0,0,0,94,375.24a25.3,25.3,0,0,0,4.16.34,30.79,30.79,0,0,0,7.55-1A23.68,23.68,0,0,0,120,364.87a9,9,0,0,0,1.3,1.24,9.37,9.37,0,0,0,5.75,2,9.8,9.8,0,0,0,2.34-.29l6.73-1.74a9.37,9.37,0,0,0,7-8.57,10.93,10.93,0,0,0,1,.86,13.72,13.72,0,0,0,8.61,2.81,20.33,20.33,0,0,0,5.07-.68l12.52-3.23a9.46,9.46,0,0,0,3.53-1.76,9.42,9.42,0,0,0,1.6.14,9.25,9.25,0,0,0,2.33-.3l6.69-1.72a9.38,9.38,0,0,0,6.48-5.9,21.62,21.62,0,0,0,8.8,1.78,29.77,29.77,0,0,0,7.36-1,41.38,41.38,0,0,0,16.48-8.79,14.13,14.13,0,0,0,6.54,1.51,20.27,20.27,0,0,0,5.07-.68l12.52-3.23a9.38,9.38,0,0,0,3.53-1.76,9.52,9.52,0,0,0,1.6.14,9.33,9.33,0,0,0,2.34-.3l6.52-1.68a9.39,9.39,0,0,0,5.84-4.48,9.44,9.44,0,0,0,7.28,1.11l5.7-1.47a9.38,9.38,0,0,0,7-9.09v-29A9.38,9.38,0,0,0,284,283.38Z"/><path class="cls-2" d="M102.15,313.65c0,6.35-3,10.08-8.36,11.46a11.41,11.41,0,0,1-5,.26v-5.79a7.28,7.28,0,0,0,3.86.13c2-.51,2.83-1.5,2.83-3.86V295l6.69-1.72Z"/><path class="cls-2" d="M130,291.68,117.21,295v5.92L128.57,298v5.61l-11.36,2.93v4c0,1.5.42,2.12,2,1.72l11.32-2.92v5.62L118,318.16c-5.23,1.34-7.46-.78-7.46-5.93V291.09l19.51-5Z"/><path class="cls-2" d="M159.14,284.18l-9,2.31v23.38l-6.73,1.73V288.23l-9,2.3v-5.62l24.65-6.34Z"/><path class="cls-2" d="M185.13,276.94l-14.41,22,14.84-3.82v5.62l-23.37,6v-4.63L177,279.59l-14.5,3.73v-5.61l22.64-5.83Z"/><path class="cls-2" d="M213.31,270.24l-9,2.31v23.37l-6.74,1.73V274.28l-9,2.31V271l24.66-6.35Z"/><path class="cls-2" d="M46.4,368.79c0,7.42-4.93,12.68-12,14.51s-12-.89-12-8.31V356.68L29,355v18.35c0,3.95,2.31,5.07,5.35,4.28a6.9,6.9,0,0,0,5.45-7.06V352.18l6.6-1.7Z"/><path class="cls-2" d="M67.89,368.27,61.37,358v17.58l-6.6,1.7v-29l6.52-1.67,9.6,13.82L80.5,341.7,87,340v29l-6.6,1.7V353.13l-6.52,13.6Z"/><path class="cls-2" d="M106.06,340.14c-2.36.6-4.55,1.77-4.55,4.08,0,4.33,12.52-.65,12.52,8.92,0,7.37-5.23,11-10.63,12.38a18.43,18.43,0,0,1-8.45.33V360a17.66,17.66,0,0,0,7.8,0c2.45-.63,4.33-1.85,4.33-4.25,0-5.06-12.52.48-12.52-9.3,0-5.83,4.55-10.26,11.32-12a18.85,18.85,0,0,1,7.29-.59v6.05A13.56,13.56,0,0,0,106.06,340.14Z"/><path class="cls-2" d="M142.76,331.29l-9,2.3V357l-6.73,1.73V335.33l-9,2.3V332l24.65-6.35Z"/><path class="cls-2" d="M167.55,324.91l-12.82,3.3v5.91l11.36-2.92v5.62l-11.36,2.92v4c0,1.5.43,2.12,2,1.72L168,342.54v5.62l-12.52,3.22c-5.23,1.35-7.46-.78-7.46-5.93V324.31l19.51-5Z"/><path class="cls-2" d="M182.17,344.51l-6.68,1.73v-29l6.68-1.72Z"/><path class="cls-2" d="M217.34,332.76a32.38,32.38,0,0,1-12.52,6.65c-8.24,2.12-15.74-.41-15.74-11.17s8.49-17.41,17.07-19.62a24.86,24.86,0,0,1,10.63-.68v6a23.8,23.8,0,0,0-10.51.39C201.13,315.66,196,319,196,326.45c0,7.08,4.54,8.35,9.22,7.15a19.32,19.32,0,0,0,5.57-2.47v-5.57l-6.56,1.69v-5.49l13.08-3.37Z"/><path class="cls-2" d="M245,305l-12.82,3.3v5.92l11.37-2.93v5.62l-11.37,2.92v4c0,1.5.43,2.12,2,1.72l11.32-2.91v5.62l-12.52,3.22c-5.24,1.35-7.47-.78-7.47-5.93V304.38l19.51-5Z"/><path class="cls-2" d="M278.23,319.78l-5.7,1.47-13.12-14.33v17.71l-6.52,1.68v-29l5.7-1.47,13.12,14.33V292.47l6.52-1.68Z"/></svg>