<svg id="typo" xmlns="http://www.w3.org/2000/svg" viewBox="0 0 300 600"><defs><style>.cls-1{fill:#fff;}</style></defs><title>text4</title><path class="cls-1" d="M69.22,151.79H64.77l-1.14-3h-7.1l-1.14,3h-3.9l7.1-17.58h3.58ZM57.75,145.5h4.63l-2.29-6.09Z"/><path class="cls-1" d="M77.75,134.21c4.47,0,7.23,1.43,7.23,4.81a3.88,3.88,0,0,1-2.6,3.75,3.86,3.86,0,0,1,3,3.95c0,3.69-3.25,5.07-7.67,5.07h-6V134.21Zm-2,7h2c1.84,0,3-.34,3-1.82s-1.17-1.79-3-1.79h-2Zm0,7.15h2.11c1.84,0,3.33-.47,3.33-1.95s-1.49-1.92-3.33-1.92H75.77Z"/><path class="cls-1" d="M102.11,137.25c-1.43,0-2.76.37-2.76,1.77,0,2.63,7.6,1.56,7.6,7.36,0,4.47-3.18,5.85-6.45,5.85a12,12,0,0,1-5.12-1.12v-3.53a11.86,11.86,0,0,0,4.73,1.19c1.48,0,2.62-.44,2.62-1.9,0-3.06-7.59-1.66-7.59-7.59,0-3.53,2.76-5.51,6.87-5.51a11.82,11.82,0,0,1,4.42.78v3.67A8.8,8.8,0,0,0,102.11,137.25Z"/><path class="cls-1" d="M119,152.23c-5.57,0-9.34-3.46-9.34-9.23s3.77-9.23,9.34-9.23,9.33,3.46,9.33,9.23S124.55,152.23,119,152.23Zm0-15c-3.36,0-5.1,2.29-5.1,5.75s1.74,5.77,5.1,5.77,5.09-2.31,5.09-5.77S122.34,137.25,119,137.25Z"/><path class="cls-1" d="M143.87,137.62h-7.81v4.16H143v3.4h-6.92v6.61H132V134.21h11.86Z"/><path class="cls-1" d="M155.33,152.23c-5.56,0-9.33-3.46-9.33-9.23s3.77-9.23,9.33-9.23,9.34,3.46,9.34,9.23S160.87,152.23,155.33,152.23Zm0-15c-3.35,0-5.1,2.29-5.1,5.75s1.75,5.77,5.1,5.77,5.1-2.31,5.1-5.77S158.66,137.25,155.33,137.25Z"/><path class="cls-1" d="M172.39,151.79h-4.06V134.21H175c4.29,0,7.2,2.06,7.2,5.83a4.89,4.89,0,0,1-3.85,5l4.14,6.74H178l-3.43-5.88h-2.13Zm0-9.28h2.39c1.69,0,3.22-.45,3.22-2.45s-1.53-2.44-3.22-2.44h-2.39Z"/><path class="cls-1" d="M198.8,137.62h-5.43v14.17h-4.08V137.62h-5.44v-3.41h15Z"/><path class="cls-1" d="M214.69,134.21c4.47,0,7.23,1.43,7.23,4.81a3.88,3.88,0,0,1-2.6,3.75,3.86,3.86,0,0,1,3,3.95c0,3.69-3.25,5.07-7.67,5.07h-6V134.21Zm-2,7h2c1.84,0,3-.34,3-1.82s-1.18-1.79-3-1.79h-2Zm0,7.15h2.11c1.84,0,3.33-.47,3.33-1.95s-1.49-1.92-3.33-1.92h-2.11Z"/><path class="cls-1" d="M237.67,137.62H229.9v3.59h6.89v3.4H229.9V147c0,.91.26,1.35,1.19,1.35H238v3.41h-7.59c-3.18,0-4.53-1.64-4.53-4.76V134.21h11.83Z"/><path class="cls-1" d="M246,151.79H242V134.21H246Z"/><path class="cls-1" d="M62.59,165.41c5.59,0,9.23,2.86,9.23,8.79S68.18,183,62.59,183H56.27V165.41Zm-2.26,14.17h2.26c3,0,5-1.48,5-5.41s-2-5.35-5-5.35H60.33Z"/><path class="cls-1" d="M87.11,168.82H79.33v3.59h6.89v3.4H79.33v2.42c0,.91.26,1.35,1.2,1.35h6.86V183H79.8c-3.17,0-4.52-1.64-4.52-4.76V165.41H87.11Z"/><path class="cls-1" d="M95.45,183h-4V165.41h6.71c4.29,0,7.2,2.06,7.2,5.83a4.89,4.89,0,0,1-3.85,5l4.13,6.74H101l-3.43-5.88H95.45Zm0-9.28h2.4c1.69,0,3.22-.45,3.22-2.45s-1.53-2.44-3.22-2.44h-2.4Z"/><path class="cls-1" d="M127.85,168.82h-7.8V173H127v3.4h-6.92V183H116V165.41h11.86Z"/><path class="cls-1" d="M135.88,183h-4V165.41h6.71c4.29,0,7.2,2.06,7.2,5.83a4.89,4.89,0,0,1-3.85,5L146,183h-4.57L138,177.11h-2.14Zm0-9.28h2.4c1.69,0,3.22-.45,3.22-2.45s-1.53-2.44-3.22-2.44h-2.4Z"/><path class="cls-1" d="M164.69,183h-4.44l-1.15-3H152l-1.14,3H147l7.1-17.58h3.59Zm-11.46-6.29h4.62l-2.28-6.09Z"/><path class="cls-1" d="M182.55,183h-3.46l-8-10.74V183h-3.95V165.41h3.45l8,10.74V165.41h4Z"/><path class="cls-1" d="M199.89,168.48l-8.73,11.1h9V183H186v-2.81l9-11.36h-8.78v-3.41h13.72Z"/><path class="cls-1" d="M225.82,183h-4.45l-1.14-3h-7.1L212,183h-3.9l7.1-17.58h3.59Zm-11.47-6.29H219l-2.29-6.09Z"/><path class="cls-1" d="M244.12,181.35a15.09,15.09,0,0,1-7.59,2.08c-5,0-9.54-2.7-9.54-9.23s5.14-9.23,10.34-9.23a15.8,15.8,0,0,1,6.45,1.25v3.64a15.53,15.53,0,0,0-6.37-1.41c-3.12,0-6.21,1.25-6.21,5.75,0,4.29,2.75,5.77,5.59,5.77a9.52,9.52,0,0,0,3.38-.62V176h-4v-3.33h7.93Z"/></svg>