<svg id="Ebene_1" data-name="Ebene 1" xmlns="http://www.w3.org/2000/svg" viewBox="0 0 300 600"><defs><style>.cls-1{fill:#192847;}.cls-2{fill:#fff;}</style></defs><title>01</title><path class="cls-1" d="M278.07,294.55v-2.61a12.59,12.59,0,0,0,1.16-5.3V282.2a12.72,12.72,0,0,0-4.93-10.05,12.42,12.42,0,0,0-3.57-1.94V247.5a12.72,12.72,0,0,0-15.89-12.32l-5.16,1.32a12.79,12.79,0,0,0-4.9,2.49,12.37,12.37,0,0,0-5.48.19l-4.51,1.16a12.64,12.64,0,0,0-3,1.22h-.07a12.69,12.69,0,0,0-3.17.4l-15.43,4a12.86,12.86,0,0,0-2.06.72,12.73,12.73,0,0,0-2.11.35l-19.51,5a12.9,12.9,0,0,0-4.61,2.26l-.86,0a26.79,26.79,0,0,0-6.71.9l-8.75,2.25a12.77,12.77,0,0,0-6.08,3.59,12.7,12.7,0,0,0-7-.21L150.66,262a12.66,12.66,0,0,0-4.6,2.25,11.77,11.77,0,0,0-1.48-.15h-.45l-.65,0a12.32,12.32,0,0,0-2.8.46l-5.29,1.36a12.66,12.66,0,0,0-4.22,2,12.43,12.43,0,0,0-4.66.32l-4.75,1.22a12.71,12.71,0,0,0-4.23,2,12.12,12.12,0,0,0-1.48-.09,12.45,12.45,0,0,0-3.18.41l-5.57,1.43a12.72,12.72,0,0,0-6.41,3.95,12.69,12.69,0,0,0-1.67-.38,23.18,23.18,0,0,0-3.48-.25,29.59,29.59,0,0,0-7.36,1,26.47,26.47,0,0,0-12.25,6.77A12.67,12.67,0,0,0,70.69,283a12.89,12.89,0,0,0-3.18.4l-4.68,1.21a12.72,12.72,0,0,0-8.14,6.51,21.91,21.91,0,0,0-8-1.46h0a29.92,29.92,0,0,0-7.41,1l-8.24,2.12a12.73,12.73,0,0,0-9.55,12.32V328a12.58,12.58,0,0,0,.66,4A12.72,12.72,0,0,0,14,344v22.93A12.72,12.72,0,0,0,29.84,379.2l5.29-1.36a13,13,0,0,0,4.65-2.28,13.13,13.13,0,0,0,2,.15,12.69,12.69,0,0,0,3.17-.4L50.23,374a12.69,12.69,0,0,0,1.94-.67,12.87,12.87,0,0,0,2-.34l5.08-1.31A12.81,12.81,0,0,0,65,368.42a12.61,12.61,0,0,0,3.36.46,12.39,12.39,0,0,0,3.18-.41L77.3,367a12.62,12.62,0,0,0,2.55-1,12.73,12.73,0,0,0,2.67-.38l5.33-1.38a12.7,12.7,0,0,0,9.51-11.41A16.35,16.35,0,0,0,109.45,358a21.61,21.61,0,0,0,5.33-.71l9.91-2.55a12.69,12.69,0,0,0,2.86-1.12,12.56,12.56,0,0,0,3-.4l5.3-1.36a12.49,12.49,0,0,0,3.45-1.48l.57,0a12.75,12.75,0,0,0,3.17-.4l5.15-1.33a12.77,12.77,0,0,0,4.9-2.48,12.78,12.78,0,0,0,5.48-.19l4.52-1.17a12.7,12.7,0,0,0,8.58-7.48,16.79,16.79,0,0,0,8.67,2.38,21.69,21.69,0,0,0,5.34-.71l9.9-2.55a12.51,12.51,0,0,0,2.86-1.12,12.7,12.7,0,0,0,3.05-.4l5.15-1.33a12.63,12.63,0,0,0,4.9-2.48,12.78,12.78,0,0,0,5.48-.19l4.52-1.16a12.49,12.49,0,0,0,3.45-1.48l.56,0a13.26,13.26,0,0,0,3.18-.4l8.24-2.13a30.58,30.58,0,0,0,12.24-6.17,17.21,17.21,0,0,0,5.56.93,21.61,21.61,0,0,0,5.33-.71l9.91-2.55A12.73,12.73,0,0,0,279.6,305v-4.45A12.72,12.72,0,0,0,278.07,294.55Z"/><path class="cls-1" d="M70.4,271.81l-2.25.58L63,266.73v7l-2.57.66V262.94l2.25-.58L67.83,268v-7l2.57-.66Z"/><path class="cls-1" d="M81.55,259.71,76.49,261v2.33L81,262.2v2.21l-4.49,1.16v1.57c0,.6.17.84.78.68l4.47-1.15v2.22l-4.94,1.27c-2.07.53-3-.31-3-2.34v-8.34l7.7-2Z"/><path class="cls-1" d="M92.64,254.64l2.44,7.45,2-8.59,2.77-.71L96.75,265l-2.81.73-2.48-7.4L89,267l-2.82.73-3.1-10.64,2.78-.72,2,7.56,2.44-8.7Z"/><path class="cls-1" d="M109.33,261.79l-2.64.68V251l4.2-1.09c2.94-.75,4.85,0,4.85,2.61s-1.91,4.35-4.85,5.11l-1.56.4Zm0-5.94,1.56-.41c1.1-.28,2.09-.87,2.09-2.18s-1-1.38-2.09-1.1l-1.56.4Z"/><path class="cls-1" d="M126,248.27l-5.06,1.3v2.33l4.48-1.15V253L121,254.12v1.58c0,.59.17.83.77.68l4.47-1.15v2.21l-4.94,1.27c-2.06.54-3-.3-3-2.33V248l7.71-2Z"/><path class="cls-1" d="M138.37,250.09a5.84,5.84,0,0,1-4.75,5.73c-2.8.72-4.76-.35-4.76-3.28v-7.22l2.64-.68v7.24c0,1.56.91,2,2.12,1.69a2.73,2.73,0,0,0,2.15-2.79v-7.24l2.6-.67Z"/><path class="cls-1" d="M152,249.74a12.67,12.67,0,0,1-4.94,2.63c-3.25.84-6.21-.16-6.21-4.41s3.35-6.87,6.74-7.74a9.72,9.72,0,0,1,4.19-.27v2.37a9.43,9.43,0,0,0-4.14.15c-2,.53-4,1.86-4,4.79s1.8,3.29,3.64,2.82a7.65,7.65,0,0,0,2.2-1v-2.2l-2.59.67V245.4l5.16-1.33Z"/><path class="cls-1" d="M162.86,238.78l-5.06,1.3v2.34l4.49-1.16v2.22l-4.49,1.16v1.57c0,.59.17.84.78.68l4.47-1.15V248l-4.94,1.27c-2.07.53-3-.31-3-2.34v-8.34l7.7-2Z"/><path class="cls-1" d="M171.21,246.14c-3.63.94-6.08-.68-6.08-4.44a7.69,7.69,0,0,1,6.08-7.57c3.6-.93,6.08.68,6.08,4.44A7.71,7.71,0,0,1,171.21,246.14Zm0-9.75a4.41,4.41,0,0,0-3.32,4.6c0,2.25,1.13,3.46,3.32,2.9a4.44,4.44,0,0,0,3.32-4.61C174.53,237,173.37,235.84,171.21,236.39Z"/><path class="cls-1" d="M187.36,232.47l-3.54.92v9.22l-2.66.68v-9.22l-3.54.91v-2.22l9.74-2.5Z"/><path class="cls-1" d="M201.5,238.06l-7.78,2v-2.12l3.62-4.33a4.27,4.27,0,0,0,1.29-2.75c0-1.17-.87-1.32-1.85-1.07a7.47,7.47,0,0,0-2.64,1.38v-2.34a9.67,9.67,0,0,1,3-1.37c2.15-.56,4.27-.14,4.27,2.54a6.17,6.17,0,0,1-2,4.42L197,237l4.46-1.15Z"/><path class="cls-1" d="M212.73,229.45c0,3.26-1.65,6.43-4.9,7.26s-4.89-1.48-4.89-4.75,1.64-6.43,4.89-7.26S212.73,226.18,212.73,229.45Zm-7.1,1.82c0,2.25.66,3.59,2.2,3.19s2.21-2.07,2.21-4.32-.67-3.57-2.21-3.17S205.63,229,205.63,231.27Z"/><path class="cls-1" d="M213.64,231.8a3.8,3.8,0,0,1,1.86-3.31,1.86,1.86,0,0,1-1.62-2.13c0-2,1.72-3.68,4.3-4.34s4.3.11,4.3,2.12a3.52,3.52,0,0,1-1.63,3,2,2,0,0,1,1.86,2.35c0,2-1.62,3.83-4.53,4.58S213.64,233.76,213.64,231.8Zm2.74-1c0,1,.78,1.32,1.8,1.06a2.14,2.14,0,0,0,1.79-2c0-1-.8-1.27-1.79-1A2.08,2.08,0,0,0,216.38,230.84Zm.24-4.9c0,1,.69,1.14,1.56.92a1.76,1.76,0,0,0,1.55-1.72c0-1-.69-1.18-1.55-1A1.8,1.8,0,0,0,216.62,225.94Z"/><path class="cls-2" d="M42.5,303c7.29-1.88,12,.63,12,8.37s-4.75,12.69-12,14.56L34.25,328V305.1Zm-3,19.25,3-.76c4-1,6.54-3.62,6.54-8.74s-2.58-6.33-6.54-5.31l-3,.76Z"/><path class="cls-2" d="M79.88,316.29l-5.8,1.49-1.49-3.55-9.27,2.39-1.49,4.31-5.09,1.32L66,296.93l4.69-1.21Zm-15-4.36,6-1.55-3-7.17Z"/><path class="cls-2" d="M91.68,294.29c-1.86.48-3.59,1.4-3.59,3.23,0,3.42,9.9-.52,9.9,7.05,0,5.83-4.13,8.7-8.41,9.8a14.7,14.7,0,0,1-6.68.26V310a13.94,13.94,0,0,0,6.17,0c1.94-.5,3.43-1.46,3.43-3.36,0-4-9.91.38-9.91-7.36,0-4.61,3.6-8.12,9-9.49a14.63,14.63,0,0,1,5.77-.47v4.78A10.71,10.71,0,0,0,91.68,294.29Z"/><path class="cls-2" d="M129.68,280.54l4.88,14.92,4-17.21,5.56-1.44-6.21,24.54-5.63,1.45-5-14.83-5,17.38-5.67,1.46-6.2-21.33,5.56-1.43,4,15.15,4.89-17.44Z"/><path class="cls-2" d="M167.71,293.68l-5.81,1.49-1.49-3.55L151.15,294l-1.49,4.32-5.09,1.31,9.26-25.31,4.68-1.21Zm-15-4.36,6-1.55-3-7.17Z"/><path class="cls-2" d="M176.93,291.3l-5.29,1.36V269.73l8.75-2.25c5.6-1.44,9.4.26,9.4,5.18,0,3.42-1.87,6.11-5,7.84l5.39,7.4-6,1.53-4.48-6.51-2.78.72Zm0-12.11,3.12-.8c2.21-.57,4.21-1.66,4.21-4.27s-2-2.68-4.21-2.11l-3.12.8Z"/><path class="cls-2" d="M212.08,263.77,205,265.59v18.49l-5.33,1.37V267l-7.09,1.83v-4.45l19.51-5Z"/><path class="cls-2" d="M231.68,258.72l-10.14,2.61V266l9-2.31v4.44l-9,2.31v3.16c0,1.19.34,1.68,1.56,1.36l9-2.3v4.44l-9.91,2.55c-4.14,1.07-5.9-.62-5.9-4.69V258.25l15.43-4Z"/><path class="cls-2" d="M258,270.43l-4.51,1.16-10.38-11.34v14L238,275.59V252.66l4.51-1.16,10.38,11.33v-14L258,247.5Z"/><path class="cls-2" d="M47.06,361.63,41.77,363V353.6L32,356.12v9.4l-5.29,1.36V344L32,342.58v8.93L41.77,349v-8.92l5.29-1.36Z"/><path class="cls-2" d="M74.13,354.66l-5.8,1.49-1.49-3.55L57.57,355l-1.49,4.32L51,360.62l9.26-25.32,4.69-1.21Zm-15-4.36,6-1.55-3-7.17Z"/><path class="cls-2" d="M91.77,331.63l-7.09,1.83v18.48l-5.33,1.38V334.83l-7.09,1.82v-4.44l19.51-5Z"/><path class="cls-2" d="M121.15,324.07,111,326.68v4.68l9-2.31v4.44l-9,2.31V339c0,1.19.34,1.68,1.56,1.36l9-2.3v4.44L111.61,345c-4.14,1.07-5.9-.62-5.9-4.69V323.6l15.44-4Z"/><path class="cls-2" d="M132.71,339.58l-5.29,1.36V318l5.29-1.36Z"/><path class="cls-2" d="M160,332.56l-4.51,1.17-10.38-11.34v14l-5.15,1.33V314.79l4.51-1.16L154.8,325V311l5.15-1.33Z"/><path class="cls-2" d="M192.08,305.81l-10.14,2.61v4.68l9-2.32v4.45l-9,2.31v3.16c0,1.19.33,1.67,1.56,1.36l8.95-2.31v4.45l-9.9,2.55c-4.14,1.06-5.91-.62-5.91-4.69V305.34l15.44-4Z"/><path class="cls-2" d="M218.4,317.52l-4.51,1.16-10.38-11.34v14l-5.16,1.33V299.75l4.52-1.17,10.38,11.34v-14l5.15-1.33Z"/><path class="cls-2" d="M233.84,290.61c7.29-1.88,12,.63,12,8.37s-4.75,12.69-12,14.56l-8.25,2.13V292.73Zm-3,19.25,3-.76c4-1,6.55-3.62,6.55-8.74s-2.58-6.33-6.55-5.3l-3,.76Z"/><path class="cls-2" d="M266.51,286.64l-10.15,2.62v4.68l9-2.32v4.45l-9,2.31v3.16c0,1.18.34,1.67,1.56,1.36l9-2.31V305L257,307.59c-4.14,1.06-5.9-.62-5.9-4.69V286.17l15.44-4Z"/></svg>