<svg id="typo" xmlns="http://www.w3.org/2000/svg" viewBox="0 0 300 600"><defs><style>.cls-1{fill:#fff;}</style></defs><title>text5</title><path class="cls-1" d="M19.77,146.59c0,3.85-1.82,5.64-5.07,5.64a7.52,7.52,0,0,1-3-.62V148.1a5,5,0,0,0,2.35.67c1.19,0,1.71-.47,1.71-1.9V134.21h4.06Z"/><path class="cls-1" d="M36.15,137.62H28.37v3.59h6.89v3.4H28.37V147c0,.91.26,1.35,1.2,1.35h6.86v3.41H28.84c-3.17,0-4.52-1.64-4.52-4.76V134.21H36.15Z"/><path class="cls-1" d="M53.28,137.62H47.85v14.17H43.77V137.62H38.33v-3.41h15Z"/><path class="cls-1" d="M68.52,137.28l-8.74,11.1h9v3.41H54.61V149l9-11.36H54.79v-3.41H68.52Z"/><path class="cls-1" d="M85.08,137.62H79.65v14.17H75.56V137.62H70.13v-3.41h15Z"/><path class="cls-1" d="M99,151.79H94.93V134.21h6.45c4.52,0,7.46,1.95,7.46,5.93s-2.94,5.93-7.46,5.93H99Zm0-9.13h2.39c1.69,0,3.22-.52,3.22-2.52s-1.53-2.52-3.22-2.52H99Z"/><path class="cls-1" d="M116.54,151.79h-4.06V134.21h6.71c4.29,0,7.2,2.06,7.2,5.82a4.89,4.89,0,0,1-3.85,5l4.14,6.74H122.1l-3.43-5.88h-2.13Zm0-9.28h2.39c1.69,0,3.22-.45,3.22-2.45s-1.53-2.44-3.22-2.44h-2.39Z"/><path class="cls-1" d="M138.12,152.23c-5.57,0-9.34-3.46-9.34-9.23s3.77-9.23,9.34-9.23,9.33,3.46,9.33,9.23S143.66,152.23,138.12,152.23Zm0-15c-3.36,0-5.1,2.29-5.1,5.75s1.74,5.77,5.1,5.77,5.09-2.31,5.09-5.77S141.45,137.25,138.12,137.25Z"/><path class="cls-1" d="M157.15,134.21c4.47,0,7.23,1.43,7.23,4.81a3.88,3.88,0,0,1-2.6,3.75,3.86,3.86,0,0,1,3,3.95c0,3.69-3.25,5.07-7.67,5.07h-6V134.21Zm-2,7h2c1.85,0,3-.34,3-1.82s-1.17-1.79-3-1.79h-2Zm0,7.15h2.11c1.85,0,3.33-.47,3.33-1.95s-1.48-1.92-3.33-1.92h-2.11Z"/><path class="cls-1" d="M180.13,137.62h-7.77v3.59h6.89v3.4h-6.89V147c0,.91.26,1.35,1.2,1.35h6.86v3.41h-7.59c-3.17,0-4.53-1.64-4.53-4.76V134.21h11.83Z"/><path class="cls-1" d="M196.28,137.62h-7.8v4.16h6.92v3.4h-6.92v6.61h-4.06V134.21h11.86Z"/><path class="cls-1" d="M214.71,151.79h-4.44l-1.15-3H202l-1.15,3H197l7.1-17.58h3.59Zm-11.46-6.29h4.63l-2.29-6.09Z"/><path class="cls-1" d="M232.84,151.79h-4.06v-7.2h-7.51v7.2h-4.06V134.21h4.06v6.84h7.51v-6.84h4.06Z"/><path class="cls-1" d="M241.88,151.79h-4V134.21h6.71c4.29,0,7.2,2.06,7.2,5.82a4.89,4.89,0,0,1-3.85,5l4.13,6.74h-4.57L244,145.91h-2.14Zm0-9.28h2.4c1.69,0,3.22-.45,3.22-2.45s-1.53-2.44-3.22-2.44h-2.4Z"/><path class="cls-1" d="M267.08,137.62H259.3v3.59h6.89v3.4H259.3V147c0,.91.26,1.35,1.2,1.35h6.86v3.41h-7.59c-3.17,0-4.52-1.64-4.52-4.76V134.21h11.83Z"/><path class="cls-1" d="M286.73,151.79h-3.45l-8-10.74v10.74h-3.95V134.21h3.46L282.78,145V134.21h4Z"/><path class="cls-1" d="M36,182.15V190A2.83,2.83,0,0,0,39,193.18,2.83,2.83,0,0,0,42.08,190v-7.86h1.56v7.9A4.28,4.28,0,0,1,39,194.57a4.3,4.3,0,0,1-4.65-4.52v-7.9Z"/><path class="cls-1" d="M48.66,182.15l7.13,9.61v-9.61h1.53v12.17H55.9l-7.13-9.6v9.6H47.22V182.15Z"/><path class="cls-1" d="M65,182.15c4.36,0,6.73,2.25,6.73,6.08s-2.37,6.09-6.73,6.09H61.21V182.15Zm-2.16,10.78H65c3.11,0,5-1.44,5-4.7s-1.93-4.7-5-4.7H62.81Z"/><path class="cls-1" d="M89.83,187.73v5.33a9.75,9.75,0,0,1-5.22,1.51c-3.69,0-6.34-2.31-6.34-6.34,0-4.54,3.31-6.34,6.74-6.34a9.7,9.7,0,0,1,4.51,1.1v1.46a9.44,9.44,0,0,0-4.5-1.17c-2.61,0-5.07,1.28-5.07,4.95,0,3.21,2,5,4.7,5a7.59,7.59,0,0,0,3.67-.86v-3.24H84.5v-1.35Z"/><path class="cls-1" d="M100.63,182.15v1.38H95v3.82h5.16v1.39H95v2.62c0,1.07.45,1.57,1.55,1.57h4.39v1.39H96.29c-2.11,0-3-1-3-3v-9.21Z"/><path class="cls-1" d="M107.5,183.28c-1.27,0-2.59.52-2.59,2,0,2.81,6.14,1.38,6.14,5.63,0,2.69-2.09,3.66-4.27,3.66a7.24,7.24,0,0,1-3.47-.88v-1.43a7.18,7.18,0,0,0,3.44.92c1.4,0,2.68-.54,2.68-2.12,0-3-6.14-1.44-6.14-5.69,0-2.32,1.93-3.48,4.21-3.48a6.6,6.6,0,0,1,3.17.69V184A6.42,6.42,0,0,0,107.5,183.28Z"/><path class="cls-1" d="M119.33,181.89a7.11,7.11,0,0,1,3.12.63V184a6.82,6.82,0,0,0-3-.67c-2.81,0-4.57,1.87-4.57,4.95s1.78,5,4.57,5a6.64,6.64,0,0,0,3.15-.77v1.44a6.85,6.85,0,0,1-3.2.72c-3.87,0-6.22-2.58-6.22-6.34S115.51,181.89,119.33,181.89Z"/><path class="cls-1" d="M127.14,182.15v5.18h7v-5.18h1.62v12.17h-1.62v-5.6h-7v5.6h-1.6V182.15Z"/><path class="cls-1" d="M146.78,182.15v1.38h-5.67v3.82h5.17v1.39h-5.17v2.62c0,1.07.45,1.57,1.55,1.57h4.39v1.39h-4.61c-2.11,0-2.95-1-2.95-3v-9.21Z"/><path class="cls-1" d="M151.55,182.15l7.13,9.61v-9.61h1.53v12.17h-1.42l-7.13-9.6v9.6h-1.55V182.15Z"/><path class="cls-1" d="M165.7,182.15v5.38l5.56-5.38h1.91l-6,5.81,6.14,6.36h-2.11l-5.54-5.67v5.67h-1.61V182.15Z"/><path class="cls-1" d="M186.94,182.15v1.38h-5.67v3.82h5.16v1.39h-5.16v2.62c0,1.07.45,1.57,1.54,1.57h4.4v1.39H182.6c-2.11,0-2.95-1-2.95-3v-9.21Z"/><path class="cls-1" d="M191.87,189.78v4.54h-1.61V182.15H194c2.93,0,4.66,1.38,4.66,3.81a3.39,3.39,0,0,1-3.1,3.55l3.5,4.81h-1.84L194,189.78Zm0-1.39H194c1.8,0,3-.73,3-2.43s-1.19-2.43-3-2.43h-2.16Z"/><path class="cls-1" d="M203.15,182.15v5.18h7v-5.18h1.62v12.17h-1.62v-5.6h-7v5.6h-1.6V182.15Z"/><path class="cls-1" d="M220.15,182.15,225,194.32h-1.73l-1.19-3h-5.6l-1.17,3h-1.58l4.9-12.17ZM217,190h4.57l-2.29-5.82Z"/><path class="cls-1" d="M228.41,182.15v9.21c0,1.07.43,1.57,1.55,1.57h4v1.39h-4.23c-2.1,0-2.93-1.07-2.93-3v-9.21Z"/><path class="cls-1" d="M242.49,182.15v1.38h-4.11v10.79h-1.62V183.53h-4.11v-1.38Z"/><path class="cls-1" d="M251.9,182.15v1.38h-5.67v3.82h5.17v1.39h-5.17v2.62c0,1.07.45,1.57,1.55,1.57h4.39v1.39h-4.61c-2.11,0-2.95-1-2.95-3v-9.21Z"/><path class="cls-1" d="M256.67,182.15l7.13,9.61v-9.61h1.53v12.17h-1.42l-7.13-9.6v9.6h-1.55V182.15Z"/></svg>