<?xml version="1.0" encoding="utf-8"?>
<!-- Generator: Adobe Illustrator 24.0.3, SVG Export Plug-In . SVG Version: 6.00 Build 0)  -->
<svg version="1.1" id="Layer_1" xmlns="http://www.w3.org/2000/svg" xmlns:xlink="http://www.w3.org/1999/xlink" x="0px" y="0px"
	 viewBox="0 0 35.2 68.5" style="enable-background:new 0 0 35.2 68.5;" xml:space="preserve">
<style type="text/css">
	.st0{fill:#062172;}
</style>
<title>element</title>
<path class="st0" d="M35.2,44.4c0-4.8-1.5-8.6-4.3-11c-2.6-2.2-5.5-3.8-8.6-4.9l-5.7-2.3c0,0-0.1,0-0.1,0c-1.5-0.5-2.6-1.9-2.6-3.5
	c0-2.2,1.3-3.4,3.7-3.4c1.8,0,3.1,1,4,3.1c1.7,3.8,4.3,4.6,6.1,4.6c3.4,0.1,6.3-2.6,6.4-6.1c0-0.2,0-0.3,0-0.5
	c-0.3-3.3-1.9-6.4-4.4-8.4C27.5,10,25,8.8,22.2,8.3l0-3.2c0.1-1.3-0.3-2.5-1.2-3.4c-0.8-1-2-1.5-3.2-1.6c-0.2,0-0.3,0-0.5,0
	C16,0,14.8,0.4,13.8,1.3c-1,0.9-1.6,2.1-1.6,3.4c0,0.1,0,0.2,0,0.3v3.4C5.4,10.1,0.8,16.3,1,23.3c0,7.1,3.9,12.2,11.7,15.4l7,2.8
	c1.6,0.6,2.6,2.2,2.5,4c0,2.5-1.8,3.9-4.9,3.9c-2.7,0-3.9-0.9-4.8-3.4c-1.5-4.1-4.3-5-6.3-5c-1.9,0-3.7,0.9-4.9,2.4
	c-1.3,1.6-1.7,3.8-1.2,5.9c1.3,5.3,5.8,9.4,12,10.9v3.4c0,2.7,2.1,5,4.8,5c0.1,0,0.2,0,0.3,0c0.1,0,0.2,0,0.3,0c1.1,0,2.1-0.4,3-1.1
	c1-0.8,1.5-1.9,1.7-3.2c0-0.3,0-0.6,0-0.8v-3.1C30.1,58.8,35.2,52.6,35.2,44.4z"/>
</svg>
