<svg id="Layer_1" data-name="Layer 1" xmlns="http://www.w3.org/2000/svg" viewBox="0 0 300 600"><defs><style>.cls-1{fill:#fff;}</style></defs><title>subheadline</title><g id="subheadline"><path class="cls-1" d="M61.71,317.26a5.26,5.26,0,0,1-1.58,4A5.83,5.83,0,0,1,56,322.76a5.74,5.74,0,0,1-4.14-1.51,5.26,5.26,0,0,1-1.59-4v-6.32c0-3.4,2.15-5.5,5.73-5.5a5.82,5.82,0,0,1,4.17,1.49,5.29,5.29,0,0,1,1.58,4Zm-8.85,0a3.1,3.1,0,1,0,6.19,0v-6.32a3.1,3.1,0,1,0-6.19,0Z"/><path class="cls-1" d="M67.21,311.32a3.9,3.9,0,0,1,3.28-1.58c2.73,0,4.22,1.81,4.22,4.6v7c.18,1.63-2.69,1.63-2.54,0v-6.93A2.23,2.23,0,0,0,69.85,312a2.4,2.4,0,0,0-2.43,2.59v6.83c.15,1.63-2.71,1.63-2.56,0V311.07c0-.79.38-1.2,1.15-1.2s1,.28,1.1.82Z"/><path class="cls-1" d="M94.73,321.35c.16,1.66-2.81,1.66-2.66,0v-6.21H86.14v6.21a1.28,1.28,0,0,1-1.36,1.28,1.21,1.21,0,0,1-1.28-1.28v-14.5c-.18-1.69,2.79-1.67,2.64,0v5.91h5.93v-5.91a1.23,1.23,0,0,1,1.31-1.28,1.27,1.27,0,0,1,1.35,1.28Z"/><path class="cls-1" d="M109.26,320.84a1.09,1.09,0,0,1,.1.46,1.37,1.37,0,0,1-1.35,1.33,1.23,1.23,0,0,1-1.23-.85l-2.53-5.67a2.19,2.19,0,0,1-.41,0H101.1v5.22c.15,1.66-2.81,1.69-2.63,0V307a1.17,1.17,0,0,1,1.27-1.28H104a6.07,6.07,0,0,1,4.14,1.4,4.78,4.78,0,0,1,1.58,3.74,4.86,4.86,0,0,1-2.89,4.65ZM101.1,308v5.81h2.69c2,0,3.27-1.15,3.27-3s-1.25-2.84-3.27-2.84Z"/><path class="cls-1" d="M119.49,321.3a1.79,1.79,0,0,1-3.45,0l-4.1-13.89a2,2,0,0,1-.07-.48,1.34,1.34,0,0,1,2.63-.36l3.33,12,3.35-12a1.3,1.3,0,0,1,1.2-1,1.28,1.28,0,0,1,1.3,1.28,1.58,1.58,0,0,1-.07.41Z"/><path class="cls-1" d="M132.86,310.79l2.72,8.62,2.76-8.6a1.15,1.15,0,0,1,1.17-.94,1.21,1.21,0,0,1,1.16,1.61l-3.46,10a1.76,1.76,0,0,1-3.37,0l-3.41-9.82a1.27,1.27,0,0,1,1.18-1.76A1.2,1.2,0,0,1,132.86,310.79Z"/><path class="cls-1" d="M152.15,319.58c-.33,1.92-2.18,3.18-4.55,3.18a4.59,4.59,0,0,1-5-4.84V314.7a4.86,4.86,0,1,1,9.72,0v.72a1.16,1.16,0,0,1-1.28,1.25h-5.93v1.51a2.36,2.36,0,0,0,2.48,2.51,2.4,2.4,0,0,0,2.46-1.77,1,1,0,0,1,1-.82C151.87,318.1,152.33,318.69,152.15,319.58Zm-7-4.73h4.78v-.46a2.4,2.4,0,1,0-4.78,0Z"/><path class="cls-1" d="M157.44,311.32a3.89,3.89,0,0,1,3.28-1.58c2.73,0,4.22,1.81,4.22,4.6v7c.18,1.63-2.69,1.63-2.54,0v-6.93a2.23,2.23,0,0,0-2.32-2.49,2.4,2.4,0,0,0-2.43,2.59v6.83c.15,1.63-2.71,1.63-2.56,0V311.07c0-.79.38-1.2,1.15-1.2s1,.28,1.1.82Z"/><path class="cls-1" d="M168,310.1h1.46v-2.31c-.18-1.63,2.69-1.63,2.53,0v2.31h1.46c1.38-.18,1.38,2.27,0,2.12h-1.46v9.16c.16,1.63-2.71,1.63-2.53,0v-9.16H168a1,1,0,0,1-.74-.28C166.62,311.35,167,310,168,310.1Z"/><path class="cls-1" d="M176.9,305.44a1.52,1.52,0,1,1,0,2.15A1.55,1.55,0,0,1,176.9,305.44Zm2.36,5.68v10.26c.15,1.63-2.71,1.63-2.56,0V311.12a1.26,1.26,0,0,1,.36-.92A1.31,1.31,0,0,1,179.26,311.12Z"/><path class="cls-1" d="M185,306.31v15.07c.15,1.63-2.71,1.63-2.53,0V306.31a1.25,1.25,0,0,1,.35-.92A1.3,1.3,0,0,1,185,306.31Z"/><path class="cls-1" d="M195.45,321.2a3.64,3.64,0,0,1-3.2,1.56c-2.74,0-4.3-1.87-4.3-4.76v-3.5c0-2.89,1.56-4.76,4.3-4.76a3.73,3.73,0,0,1,3.2,1.53l.1-.58a1.09,1.09,0,0,1,1.1-.82c.77,0,1.15.41,1.15,1.2v10.36a1.1,1.1,0,0,1-1.15,1.2c-.64,0-1-.28-1.1-.82Zm-2.64-.67a2.34,2.34,0,0,0,1.79-.74,2.73,2.73,0,0,0,.67-1.87v-3.37a2.42,2.42,0,0,0-2.46-2.59,2.24,2.24,0,0,0-2.3,2.49v3.6a2.58,2.58,0,0,0,.61,1.79A2.09,2.09,0,0,0,192.81,320.53Z"/><path class="cls-1" d="M201.1,310.1h1.46v-2.31c-.18-1.63,2.68-1.63,2.53,0v2.31h1.46c1.38-.18,1.38,2.27,0,2.12h-1.46v9.16c.15,1.63-2.71,1.63-2.53,0v-9.16H201.1a1,1,0,0,1-.74-.28C199.77,311.35,200.15,310,201.1,310.1Z"/><path class="cls-1" d="M210.05,305.44a1.52,1.52,0,1,1,0,2.15A1.53,1.53,0,0,1,210.05,305.44Zm2.35,5.68v10.26c.16,1.63-2.71,1.63-2.55,0V311.12a1.25,1.25,0,0,1,.35-.92C211,309.48,212.51,310,212.4,311.12Z"/><path class="cls-1" d="M225.09,317.8a5,5,0,0,1-9.92,0v-3.1a5,5,0,0,1,9.92,0Zm-7.37.2a2.41,2.41,0,1,0,4.81,0v-3.5a2.41,2.41,0,1,0-4.81,0Z"/><path class="cls-1" d="M230.23,311.32a3.88,3.88,0,0,1,3.27-1.58c2.74,0,4.22,1.81,4.22,4.6v7c.18,1.63-2.68,1.63-2.53,0v-6.93a2.24,2.24,0,0,0-2.33-2.49,2.4,2.4,0,0,0-2.43,2.59v6.83c.16,1.63-2.71,1.63-2.55,0V311.07c0-.79.38-1.2,1.15-1.2s1,.28,1.1.82Z"/><path class="cls-1" d="M57.49,343.73a3.64,3.64,0,0,1-3.19,1.56c-2.74,0-4.3-1.87-4.3-4.76V337c0-2.89,1.56-4.76,4.3-4.76a3.69,3.69,0,0,1,3.19,1.54l.11-.59a1.09,1.09,0,0,1,1.1-.82,1,1,0,0,1,1.15,1.2V344a1.1,1.1,0,0,1-1.15,1.2c-.64,0-1-.28-1.1-.82Zm-2.63-.67a2.34,2.34,0,0,0,1.79-.74,2.73,2.73,0,0,0,.67-1.86v-3.38a2.41,2.41,0,0,0-2.46-2.58,2.23,2.23,0,0,0-2.3,2.48v3.6a2.56,2.56,0,0,0,.61,1.79A2.09,2.09,0,0,0,54.86,343.06Z"/><path class="cls-1" d="M65.45,333.86a3.85,3.85,0,0,1,3.27-1.59c2.74,0,4.22,1.82,4.22,4.6v7c.18,1.63-2.68,1.63-2.53,0V337a2.23,2.23,0,0,0-2.33-2.48,2.39,2.39,0,0,0-2.43,2.58v6.83c.16,1.63-2.71,1.63-2.56,0V333.6a1,1,0,0,1,1.16-1.2c.63,0,1,.28,1.1.82Z"/><path class="cls-1" d="M85.55,344a1.15,1.15,0,0,1-2.25.38l-.1-.61a3.64,3.64,0,0,1-3.2,1.56c-2.74,0-4.3-1.87-4.3-4.76V337c0-2.89,1.56-4.76,4.3-4.76a3.75,3.75,0,0,1,3,1.33v-4.76c-.15-1.63,2.71-1.63,2.53,0Zm-5-.9a2.34,2.34,0,0,0,1.79-.74,2.69,2.69,0,0,0,.67-1.86v-3.38a2.41,2.41,0,0,0-2.46-2.58,2.24,2.24,0,0,0-2.3,2.48v3.6a2.61,2.61,0,0,0,.61,1.79A2.09,2.09,0,0,0,80.56,343.06Z"/><path class="cls-1" d="M101.25,343.73a3.64,3.64,0,0,1-3.19,1.56c-2.74,0-4.3-1.87-4.3-4.76V337c0-2.89,1.56-4.76,4.3-4.76a3.69,3.69,0,0,1,3.19,1.54l.11-.59a1.08,1.08,0,0,1,1.1-.82,1,1,0,0,1,1.15,1.2V344a1.1,1.1,0,0,1-1.15,1.2c-.64,0-1-.28-1.1-.82Zm-2.63-.67a2.34,2.34,0,0,0,1.79-.74,2.73,2.73,0,0,0,.66-1.86v-3.38a2.4,2.4,0,0,0-2.45-2.58,2.23,2.23,0,0,0-2.3,2.48v3.6a2.56,2.56,0,0,0,.61,1.79A2.07,2.07,0,0,0,98.62,343.06Z"/><path class="cls-1" d="M107,328a1.52,1.52,0,1,1,2.15,2.15A1.52,1.52,0,0,1,107,328Zm2.35,5.68v10.26c.15,1.63-2.71,1.63-2.56,0V333.65a1.26,1.26,0,0,1,.36-.92C107.9,332,109.46,332.5,109.36,333.65Z"/><path class="cls-1" d="M114.94,334a3.18,3.18,0,0,1,2.78-1.66,1.13,1.13,0,0,1,1.16,1.12,1.14,1.14,0,0,1-1.13,1.18,2.57,2.57,0,0,0-2.63,2.63v6.63c.15,1.63-2.72,1.63-2.56,0V333.6c0-.79.38-1.2,1.15-1.2s1,.28,1.1.82Z"/><path class="cls-1" d="M135.4,341.78c-.41,2.18-2.23,3.51-4.71,3.51a4.64,4.64,0,0,1-5-5v-3.1a4.62,4.62,0,0,1,5-5c2.43,0,4.28,1.31,4.69,3.25a1.21,1.21,0,0,1-1.13,1.58,1.13,1.13,0,0,1-1.18-.86,2.44,2.44,0,0,0-4.78.79v3.5a2.35,2.35,0,0,0,2.46,2.59,2.29,2.29,0,0,0,2.4-1.92,1.06,1.06,0,0,1,1.15-.9A1.15,1.15,0,0,1,135.4,341.78Z"/><path class="cls-1" d="M147.78,340.33a5,5,0,0,1-9.93,0v-3.1a5,5,0,0,1,9.93,0Zm-7.37.2a2.41,2.41,0,1,0,4.81,0V337a2.41,2.41,0,1,0-4.81,0Z"/><path class="cls-1" d="M152.92,333.86a3.85,3.85,0,0,1,3.27-1.59c2.74,0,4.22,1.82,4.22,4.6v7c.18,1.63-2.69,1.63-2.53,0V337a2.23,2.23,0,0,0-2.33-2.48,2.39,2.39,0,0,0-2.43,2.58v6.83c.15,1.63-2.71,1.63-2.56,0V333.6a1,1,0,0,1,1.15-1.2c.64,0,1,.28,1.1.82Z"/><path class="cls-1" d="M173,344a1.1,1.1,0,0,1-1.15,1.2,1.09,1.09,0,0,1-1.1-.82l-.1-.61a3.67,3.67,0,0,1-3.2,1.56c-2.74,0-4.3-1.87-4.3-4.76V337c0-2.89,1.56-4.76,4.3-4.76a3.75,3.75,0,0,1,3,1.33v-4.76c-.16-1.63,2.71-1.63,2.53,0Zm-5-.9a2.34,2.34,0,0,0,1.79-.74,2.69,2.69,0,0,0,.67-1.86v-3.38A2.41,2.41,0,0,0,168,334.5a2.23,2.23,0,0,0-2.3,2.48v3.6a2.56,2.56,0,0,0,.61,1.79A2.09,2.09,0,0,0,168,343.06Z"/><path class="cls-1" d="M176.44,328a1.55,1.55,0,0,1,2.15,0,1.52,1.52,0,0,1-2.15,2.15A1.55,1.55,0,0,1,176.44,328Zm2.36,5.68v10.26c.15,1.63-2.71,1.63-2.56,0V333.65a1.26,1.26,0,0,1,.36-.92C177.34,332,178.9,332.5,178.8,333.65Z"/><path class="cls-1" d="M182.07,332.63h1.46v-2.3c-.18-1.64,2.69-1.64,2.53,0v2.3h1.46c1.38-.18,1.38,2.27,0,2.12h-1.46v9.16c.16,1.63-2.71,1.63-2.53,0v-9.16h-1.46a1,1,0,0,1-.74-.28C180.74,333.88,181.12,332.53,182.07,332.63Z"/><path class="cls-1" d="M191,328a1.55,1.55,0,0,1,2.15,0,1.52,1.52,0,1,1-2.15,0Zm2.36,5.68v10.26c.15,1.63-2.72,1.63-2.56,0V333.65a1.26,1.26,0,0,1,.36-.92C191.92,332,193.48,332.5,193.38,333.65Z"/><path class="cls-1" d="M206.06,340.33a5,5,0,1,1-9.92,0v-3.1a5,5,0,1,1,9.92,0Zm-7.36.2a2.41,2.41,0,1,0,4.8,0V337a2.41,2.41,0,1,0-4.8,0Z"/><path class="cls-1" d="M211.2,333.86a3.87,3.87,0,0,1,3.28-1.59c2.73,0,4.22,1.82,4.22,4.6v7c.17,1.63-2.69,1.63-2.54,0V337a2.22,2.22,0,0,0-2.32-2.48,2.39,2.39,0,0,0-2.43,2.58v6.83c.15,1.63-2.72,1.63-2.56,0V333.6c0-.79.38-1.2,1.15-1.2s1,.28,1.1.82Z"/><path class="cls-1" d="M222,328a1.55,1.55,0,0,1,2.15,0,1.52,1.52,0,0,1-2.15,2.15A1.55,1.55,0,0,1,222,328Zm2.36,5.68v10.26c.15,1.63-2.71,1.63-2.56,0V333.65a1.26,1.26,0,0,1,.36-.92C222.89,332,224.45,332.5,224.35,333.65Z"/><path class="cls-1" d="M229.9,333.86a3.85,3.85,0,0,1,3.27-1.59c2.74,0,4.22,1.82,4.22,4.6v7c.18,1.63-2.69,1.63-2.53,0V337a2.23,2.23,0,0,0-2.33-2.48,2.39,2.39,0,0,0-2.43,2.58v6.83c.16,1.63-2.71,1.63-2.56,0V333.6a1,1,0,0,1,1.15-1.2c.64,0,1,.28,1.1.82Z"/><path class="cls-1" d="M247.75,333.24a1,1,0,0,1,1.1-.84c.77,0,1.15.41,1.15,1.2v12c0,2.79-1.92,4.5-4.86,4.5-2.28,0-3.78-.82-4.5-2.43a1.17,1.17,0,0,1,1-1.74,1.22,1.22,0,0,1,1.07.72,2.32,2.32,0,0,0,1.15,1.12A2.42,2.42,0,0,0,245,348a2.18,2.18,0,0,0,2.43-2.33V343.5a3.74,3.74,0,0,1-3,1.3c-2.74,0-4.3-1.86-4.3-4.75v-3c0-2.89,1.56-4.76,4.3-4.76a3.72,3.72,0,0,1,3.2,1.54ZM245,342.58a2.37,2.37,0,0,0,1.79-.74,2.66,2.66,0,0,0,.67-1.85v-2.91A2.41,2.41,0,0,0,245,334.5a2.24,2.24,0,0,0-2.3,2.48v3.12a2.58,2.58,0,0,0,.62,1.79A2.05,2.05,0,0,0,245,342.58Z"/><g id="icons"><path class="cls-1" d="M138,272.75,121.89,257a.91.91,0,0,0-1.28,0l-16.09,15.77-2.28-2.12,19-18.45,9.31,9,5.21,5h0l4.49,4.36Zm-3.64,17.88H108.16V271.75l2.27-2.24H125a.91.91,0,0,0,0-1.82H112.3l9-8.78,13.09,12.84Zm-2.23-34.05h3.38v6.87l-3.38-3.27ZM142.22,270l-4.91-4.76v-9.56a.91.91,0,0,0-.91-.92h-5.2a.91.91,0,0,0-.91.92v2.74l-8.4-8.15a.9.9,0,0,0-1.27,0L100.28,270a.91.91,0,0,0-.28.66.92.92,0,0,0,.29.66l3.63,3.37a.91.91,0,0,0,1.26,0l1.15-1.13v18a.91.91,0,0,0,.91.91h28a.92.92,0,0,0,.92-.91v-18l1.15,1.13a.93.93,0,0,0,.64.26.89.89,0,0,0,.62-.25l3.63-3.37a.92.92,0,0,0,.29-.66.91.91,0,0,0-.28-.66"/><path class="cls-1" d="M128.86,268.42a1.54,1.54,0,0,0-.05-.17.71.71,0,0,0-.08-.15.55.55,0,0,0-.12-.14l-.13-.12-.16-.08-.17-.05a.73.73,0,0,0-.36,0l-.17.05-.16.08-.14.12a.53.53,0,0,0-.11.14.71.71,0,0,0-.08.15,1.77,1.77,0,0,0-.06.17,1.62,1.62,0,0,0,0,.36.85.85,0,0,0,.06.17.8.8,0,0,0,.08.16,1.34,1.34,0,0,0,.11.14.93.93,0,0,0,.65.27l.18,0,.17-.05.16-.09.14-.11.11-.14a.8.8,0,0,0,.08-.16.84.84,0,0,0,.05-.17.82.82,0,0,0,0-.36"/><path class="cls-1" d="M121.25,287.88a7.92,7.92,0,1,1,7.92-7.92,7.93,7.93,0,0,1-7.92,7.92m0-17.66A9.75,9.75,0,1,0,131,280a9.75,9.75,0,0,0-9.74-9.74"/><path class="cls-1" d="M125.1,283.58l-.12.11-.11.12a2.24,2.24,0,0,1-.43.38,2,2,0,0,1-.73-.55,5.49,5.49,0,0,1-1.27-2.49,5.54,5.54,0,0,1,2.49,1.27c.45.46.54.68.55.74a3.26,3.26,0,0,1-.38.42m-1.39-7.3a2.13,2.13,0,0,1,.73-.55,3.25,3.25,0,0,1,.43.38l.11.12.12.11a4,4,0,0,1,.38.43c0,.06-.1.28-.55.73a5.49,5.49,0,0,1-2.49,1.27,5.49,5.49,0,0,1,1.27-2.49m-6.14,1.22c-.45-.45-.54-.67-.55-.73a4,4,0,0,1,.38-.43l.12-.11.11-.12a3.25,3.25,0,0,1,.43-.38,2.13,2.13,0,0,1,.73.55,5.54,5.54,0,0,1,1.27,2.49,5.49,5.49,0,0,1-2.49-1.27m1.22,6.14a2,2,0,0,1-.73.55,2.24,2.24,0,0,1-.43-.38l-.11-.12-.12-.11a3.26,3.26,0,0,1-.38-.42c0-.06.1-.28.55-.74a5.49,5.49,0,0,1,2.49-1.27,5.49,5.49,0,0,1-1.27,2.49m5.72-3.68a5.85,5.85,0,0,0,1.71-1.17,2.94,2.94,0,0,0,1.09-2,2.43,2.43,0,0,0-.93-1.71l-.11-.1-.1-.11a2.43,2.43,0,0,0-1.71-.93h0a3,3,0,0,0-2,1.09,6.2,6.2,0,0,0-1.17,1.71,6.2,6.2,0,0,0-1.17-1.71,3,3,0,0,0-2-1.09h0a2.43,2.43,0,0,0-1.71.93l-.1.11-.11.1a2.43,2.43,0,0,0-.93,1.71,2.94,2.94,0,0,0,1.09,2A6,6,0,0,0,118,280a6.27,6.27,0,0,0-1.71,1.17,3,3,0,0,0-1.09,2,2.43,2.43,0,0,0,.93,1.71l.11.11.1.1A2.39,2.39,0,0,0,118,286h0a2.94,2.94,0,0,0,2-1.09,5.92,5.92,0,0,0,1.17-1.71,6.12,6.12,0,0,0,1.17,1.71,2.94,2.94,0,0,0,2,1.09h0a2.39,2.39,0,0,0,1.71-.93l.1-.1.11-.11a2.43,2.43,0,0,0,.93-1.71,3,3,0,0,0-1.09-2,6.42,6.42,0,0,0-1.71-1.17"/><path class="cls-1" d="M175.48,260.66A.74.74,0,0,0,176,262a5.74,5.74,0,0,1,4,0,.74.74,0,0,0,.52-1.38,7.25,7.25,0,0,0-5.07,0"/><path class="cls-1" d="M182.4,259.08a.74.74,0,0,0,.71-.56.75.75,0,0,0-.38-.83,10.28,10.28,0,0,0-9.44,0A.74.74,0,0,0,174,259a8.76,8.76,0,0,1,8.09,0,.77.77,0,0,0,.34.08"/><path class="cls-1" d="M184.45,256.14a.74.74,0,0,0,.71-.54.73.73,0,0,0-.32-.82,13.13,13.13,0,0,0-13.65,0,.73.73,0,0,0-.25,1,.74.74,0,0,0,1,.24,11.65,11.65,0,0,1,12.13,0,.7.7,0,0,0,.37.11"/><path class="cls-1" d="M198.53,275.6a2.19,2.19,0,0,1-2.19,2.19v-1.46a2.21,2.21,0,0,0-2.2-2.2H161.89a2.21,2.21,0,0,0-2.2,2.2v1.46a2.2,2.2,0,0,1-2.2-2.19v-8.07a2.2,2.2,0,0,1,2.2-2.19h36.65a2.19,2.19,0,0,1,2.19,2.19Zm-11,2.19V275.6h6.6a.73.73,0,0,1,.73.73v1.46Zm-19,0h-7.33v-1.46a.72.72,0,0,1,.73-.73h6.6Zm17.59,0h-7.33V275.6h7.33Zm-8.8,0H170V275.6h7.33Zm19.06-13.92H159.69a3.66,3.66,0,0,0-3.66,3.66v8.07a3.66,3.66,0,0,0,3.66,3.66h36.65A3.66,3.66,0,0,0,200,275.6v-8.07a3.66,3.66,0,0,0-3.66-3.66"/><path class="cls-1" d="M178,281.46a.73.73,0,0,0-.73.73V290l-1.68-1.68a.74.74,0,0,0-1,0,.75.75,0,0,0,0,1l2.94,2.93a.74.74,0,0,0,1,0l2.93-2.93a.73.73,0,0,0-1-1L178.75,290v-7.76a.74.74,0,0,0-.74-.73"/><path class="cls-1" d="M186.77,282a.73.73,0,0,0-1.39.46c.06.18,1.36,3.95,4.58,5.28l-2,.89a.73.73,0,0,0,.6,1.34l3.78-1.68a.73.73,0,0,0,.37-1L191,283.49a.73.73,0,0,0-.59-.45.73.73,0,0,0-.75,1l1,2.34c-2.74-1-3.94-4.43-3.95-4.47"/><path class="cls-1" d="M166,283.12a.72.72,0,0,0-1,.37l-1.69,3.79a.72.72,0,0,0,.37,1l3.79,1.69a.74.74,0,0,0,1-.37.75.75,0,0,0-.37-1l-2-.89c3.22-1.33,4.52-5.1,4.58-5.28a.72.72,0,0,0-.47-.92.74.74,0,0,0-.93.46s-1.19,3.48-3.95,4.47l1-2.34a.73.73,0,0,0-.37-1"/><path class="cls-1" d="M180.21,271.2h-4.4a.73.73,0,0,0,0,1.46h4.4a.73.73,0,1,0,0-1.46"/></g></g></svg>