<svg id="Layer_1" data-name="Layer 1" xmlns="http://www.w3.org/2000/svg" viewBox="0 0 300 250"><defs><style>.cls-1{fill:#fff;}</style></defs><path class="cls-1" d="M62.19,159.68h.23l5.57-22h9.13l-9.19,35.09H57.85L52,150.61h-.22l-5.85,22.16H36l-9.19-35.09H36.3l5.56,22h.23l5.79-22H56.4Z"/><path class="cls-1" d="M79.8,172.77V137.68h9.47v13.54h14V137.68h9.46v35.09h-9.46V158.9h-14v13.87Z"/><path class="cls-1" d="M134.72,173.44c-10.2,0-18.22-7.41-18.22-18.21s8-18.21,18.22-18.21,18.21,7.4,18.21,18.21S144.91,173.44,134.72,173.44Zm0-28.07c-5.18,0-8.47,3.9-8.47,9.86s3.29,9.86,8.47,9.86,8.46-3.9,8.46-9.86S139.9,145.37,134.72,145.37Z"/><path class="cls-1" d="M155.72,137.68h9.41v7.8c0,5.46-3.18,7.74-9.41,7.91V149.1c2.67-.11,4.17-.83,4.23-3.06h-4.23Z"/><path class="cls-1" d="M176,160.07c.34,4.4,3.74,5.91,7.64,5.91,3.28,0,5.4-1.17,5.4-3.12s-2.06-2.4-4.74-2.9l-6.4-1.11c-5.74-1.06-9.75-4.29-9.75-10.42,0-7.13,5.57-11.41,14.32-11.41,9.69,0,14.92,4.73,15.09,12.53l-8.69.16c-.28-3.62-2.9-5.29-6.52-5.29-3.11,0-4.9,1.23-4.9,3.18,0,1.61,1.34,2.23,3.51,2.61l6.63,1.17c7.35,1.29,10.69,5.13,10.69,10.87,0,7.46-6.46,11.19-14.64,11.19-9.53,0-16.32-4.62-16.32-13.09Z"/></svg>