<svg id="Layer_1" data-name="Layer 1" xmlns="http://www.w3.org/2000/svg" xmlns:xlink="http://www.w3.org/1999/xlink" viewBox="0 0 300 600"><defs><style>.cls-1{fill:none;}.cls-2{clip-path:url(#clip-path);}.cls-3{fill:#221e1f;}.cls-4{clip-path:url(#clip-path-2);}.cls-5{clip-path:url(#clip-path-4);}.cls-6{clip-path:url(#clip-path-5);}</style><clipPath id="clip-path"><rect class="cls-1" width="300" height="600"/></clipPath><clipPath id="clip-path-2"><rect class="cls-1" x="320" width="300" height="600"/></clipPath><clipPath id="clip-path-4"><rect class="cls-1" x="400.85" y="364.8" width="138.3" height="137.47"/></clipPath><clipPath id="clip-path-5"><rect class="cls-1" x="-32448" y="-32167" width="65535" height="65535"/></clipPath></defs><g class="cls-2"><path class="cls-3" d="M66.47,157.75c0,1.12.49,1.61,1.31,1.61a4.54,4.54,0,0,0,1.75-.34v4.18a8.36,8.36,0,0,1-4.91,1.4,5.35,5.35,0,0,1-5.49-3.83c-1.26,2.52-3.74,3.83-7.19,3.83-4.22,0-7-2.18-7-5.87,0-4.18,3-6,7.72-6.81l6.07-1v-.34c0-1.79-.82-2.86-2.72-2.86-1.74,0-2.62,1.11-3,2.72l-7.29-.49c.68-4.76,4.23-8.06,10.74-8.06,5.73,0,10,2.47,10,8.5Zm-7.73-3-3.2.58c-1.9.39-3,1-3,2.39,0,1.11.87,1.84,2.18,1.84,2.24,0,4-1.65,4-4.47Z"/><path class="cls-3" d="M79.68,164.12H71.81V142.45h7.87v3.26c1.17-2.39,3.74-3.84,7-3.84,5.93,0,7.82,4.13,7.82,8.64v13.61H86.63V152.6c0-3-.83-4.51-3.21-4.51-2.67,0-3.74,2.13-3.74,5.39Z"/><path class="cls-3" d="M114.08,160.43c-1,2.52-3.5,4.27-7.1,4.27-6.41,0-9.62-5-9.62-11.42s3.21-11.41,9.62-11.41c3.6,0,6.08,1.75,7.1,4.32V133.51H122v30.61h-7.87Zm0-7.29c0-3.11-1.7-5.15-4.33-5.15-3.11,0-4.47,2.18-4.47,5.29s1.36,5.35,4.47,5.35c2.63,0,4.33-2,4.33-5.2Z"/><path class="cls-3" d="M140.26,157c.29,1.79,1.75,2.81,4.13,2.81,1.75,0,2.67-.63,2.67-1.5s-.48-1.41-2-1.65l-3.21-.49c-5.24-.83-8-2.53-8-7,0-4.27,3.74-7.33,9.81-7.33,6.27,0,10,2.77,10.4,7.28l-6.46.2c-.3-1.56-1.65-2.53-4.08-2.53-1.51,0-2.39.59-2.39,1.56,0,.73.59,1.11,1.32,1.21l4.22.73c4.86.78,7.68,3,7.68,7.19,0,4.57-3.89,7.19-10.06,7.19-6,0-10.44-2.38-10.88-7.63Z"/><path class="cls-3" d="M165.23,171.89h-7.87V142.45h7.87v3.74c1.07-2.57,3.5-4.32,7.14-4.32,6.37,0,9.62,5,9.62,11.41s-3.25,11.42-9.62,11.42c-3.64,0-6.07-1.75-7.14-4.27Zm0-18.46c0,3.16,1.7,5.2,4.37,5.2,3.06,0,4.47-2.19,4.47-5.35S172.66,148,169.6,148c-2.67,0-4.37,2-4.37,5.15Z"/><path class="cls-3" d="M193,133.51v30.61H185.1V133.51Z"/><path class="cls-3" d="M197.2,133.51h8v6.9h-8Zm7.92,8.94v21.67h-7.87V142.45Z"/><path class="cls-3" d="M210.17,147.89h-2.92V143l1.61-.24c2.18-.34,2.86-1.51,3.4-3.5l.72-2.82h5v6h5.64v5.44h-5.64v7.92c0,1.85.87,2.57,2.48,2.57a8.76,8.76,0,0,0,3.35-.72v5.1a10.22,10.22,0,0,1-6.51,1.94c-3.64,0-7.09-1.5-7.09-6.61Z"/><path class="cls-3" d="M226.1,155.76h8.36v8.36H226.1Z"/></g></svg>