<svg id="Layer_1" data-name="Layer 1" xmlns="http://www.w3.org/2000/svg" xmlns:xlink="http://www.w3.org/1999/xlink" viewBox="0 0 300 600"><defs><style>.cls-1{fill:none;}.cls-2{clip-path:url(#clip-path);}.cls-3{fill:#221e1f;}.cls-4{clip-path:url(#clip-path-2);}.cls-5{clip-path:url(#clip-path-4);}.cls-6{clip-path:url(#clip-path-5);}</style><clipPath id="clip-path"><rect class="cls-1" width="300" height="600"/></clipPath><clipPath id="clip-path-2"><rect class="cls-1" x="320" width="300" height="600"/></clipPath><clipPath id="clip-path-4"><rect class="cls-1" x="400.85" y="364.8" width="138.3" height="137.47"/></clipPath><clipPath id="clip-path-5"><rect class="cls-1" x="-32448" y="-32167" width="65535" height="65535"/></clipPath></defs><g class="cls-2"><path class="cls-3" d="M70.5,107.21H46.4V76.61H70.06v6.8H54.52v5h12v6.71h-12v5.29h16Z"/><path class="cls-3" d="M94.26,100.85c0,1.12.48,1.6,1.31,1.6a4.36,4.36,0,0,0,1.75-.34v4.18a8.29,8.29,0,0,1-4.91,1.41,5.35,5.35,0,0,1-5.49-3.84c-1.26,2.53-3.74,3.84-7.19,3.84-4.23,0-7-2.19-7-5.88,0-4.18,3-6,7.73-6.8l6.07-1v-.34c0-1.8-.82-2.87-2.72-2.87s-2.62,1.12-3,2.72L73.56,93C74.24,88.27,77.79,85,84.3,85c5.73,0,10,2.48,10,8.51Zm-7.73-3-3.2.58c-1.9.39-3,1-3,2.38,0,1.12.88,1.85,2.19,1.85,2.23,0,4-1.65,4-4.47Z"/><path class="cls-3" d="M100.38,91H97.46V86.13l1.6-.24c2.19-.34,2.87-1.51,3.4-3.5l.73-2.82h5v6h5.64V91h-5.64v7.92c0,1.84.87,2.57,2.48,2.57a8.61,8.61,0,0,0,3.35-.73v5.1a10.16,10.16,0,0,1-6.51,2c-3.64,0-7.09-1.51-7.09-6.61Z"/><path class="cls-3" d="M141.28,103.52c-1,2.53-3.5,4.28-7.09,4.28-6.41,0-9.62-5-9.62-11.42S127.78,85,134.19,85c3.59,0,6.07,1.75,7.09,4.33V76.61h7.87v30.6h-7.87Zm0-7.29c0-3.11-1.7-5.15-4.32-5.15-3.11,0-4.47,2.19-4.47,5.3s1.36,5.34,4.47,5.34c2.62,0,4.32-2,4.32-5.19Z"/><path class="cls-3" d="M153.38,76.61h8v6.9h-8Zm7.91,8.94v21.66h-7.87V85.55Z"/><path class="cls-3" d="M173.44,107.21h-7.87V85.55h7.87V88.8c1.17-2.38,3.74-3.84,7-3.84,5.92,0,7.82,4.13,7.82,8.65v13.6h-7.87V95.7c0-3-.83-4.52-3.21-4.52-2.67,0-3.74,2.14-3.74,5.4Z"/><path class="cls-3" d="M200.16,107.21h-7.87V85.55h7.87V88.8c1.17-2.38,3.74-3.84,7-3.84,5.92,0,7.82,4.13,7.82,8.65v13.6h-7.87V95.7c0-3-.83-4.52-3.21-4.52-2.67,0-3.74,2.14-3.74,5.4Z"/><path class="cls-3" d="M240.58,100.07c-1.12,5-5.1,7.73-10.84,7.73-6.94,0-11.9-4.18-11.9-11.08A11.43,11.43,0,0,1,229.65,85c7.24,0,11.07,5,11.07,10.84V98h-15.2c.19,2.68,2.13,3.94,4.52,3.94,2.13,0,3.49-.73,4.22-2.43Zm-7.34-5.88a3.55,3.55,0,0,0-3.69-3.59c-2.53,0-3.64,1.55-3.94,3.59Z"/><path class="cls-3" d="M260.25,93.22a7,7,0,0,0-3.74-.92c-2.91,0-4.71,1.36-4.71,5v9.91h-7.87V85.55h7.87v3.83A6.31,6.31,0,0,1,257.73,85a5.17,5.17,0,0,1,3,.83Z"/></g></svg>