<?xml version="1.0" encoding="utf-8"?>
<!-- Generator: Adobe Illustrator 24.2.3, SVG Export Plug-In . SVG Version: 6.00 Build 0)  -->
<svg version="1.1" id="Layer_1" xmlns="http://www.w3.org/2000/svg" xmlns:xlink="http://www.w3.org/1999/xlink" x="0px" y="0px"
	 viewBox="0 0 146 37.3" style="enable-background:new 0 0 146 37.3;" xml:space="preserve">
<style type="text/css">
	.st0{fill:#FFFFFF;}
	.st1{fill:#76ABA8;}
</style>
<g id="Layer_2_1_">
	<g id="Layer_3">
		<rect class="st0" width="146" height="37.3"/>
		<path class="st1" d="M26.9,14H29v7.7h4v2h-6.1V14z"/>
		<path class="st1" d="M34.4,14H41v2h-4.5v1.8h4.2v2h-4.2v2h4.7v2h-6.8V14z"/>
		<path class="st1" d="M46.2,14H48l4.2,9.7h-2.4l-0.8-2h-3.8l-0.8,2h-2.3L46.2,14z M47.1,16.8l-1.2,3h2.4L47.1,16.8z"/>
		<path class="st1" d="M53.3,14h3.8c2,0,3.7,0.7,3.7,2.9c0.1,1.3-0.8,2.5-2.1,2.6l2.5,4.1h-2.6l-2-3.9h-1v3.9h-2.2V14z M55.5,18h1.3
			c0.8,0,1.8,0,1.8-1.1s-0.9-1.1-1.7-1.1h-1.4L55.5,18z"/>
		<path class="st1" d="M62.3,14h2.9l4.1,6.7l0,0V14h2.1v9.7h-2.8l-4.2-6.9l0,0v6.9h-2.2V14z"/>
		<path class="st1" d="M77.8,14H81l2.2,6.3l0,0l2.3-6.3h3.2v9.7h-2.1v-7.4l0,0L84,23.7h-1.6l-2.4-7.4l0,0v7.4h-2.2V14z"/>
		<path class="st1" d="M95.5,13.8c2.7-0.2,5,1.9,5.2,4.6c0,0.2,0,0.3,0,0.5c-0.1,2.9-2.6,5.1-5.5,5c-2.7-0.1-4.9-2.3-5-5
			c-0.1-2.7,2-5,4.7-5.1C95.2,13.8,95.3,13.8,95.5,13.8z M95.5,22c1.6,0,3-1.2,3-2.9c0-0.1,0-0.2,0-0.3c0-1.7-1.3-3-3-3s-3,1.3-3,3
			c-0.1,1.6,1.1,3,2.7,3.1C95.3,22,95.4,22,95.5,22L95.5,22z"/>
		<path class="st1" d="M102.3,14h3.7c2,0,3.7,0.7,3.7,2.9c0.1,1.3-0.8,2.5-2.1,2.6l2.5,4.1h-2.6l-2-3.9h-1v3.9h-2.1L102.3,14z
			 M104.4,18h1.3c0.8,0,1.8,0,1.8-1.1s-0.9-1.1-1.7-1.1h-1.4V18z"/>
		<path class="st1" d="M111.4,14h6.6v2h-4.4v1.8h4.2v2h-4.2v2h4.7v2h-6.8L111.4,14z"/>
	</g>
</g>
</svg>
