<?xml version="1.0" encoding="utf-8"?>
<!-- Generator: Adobe Illustrator 24.2.3, SVG Export Plug-In . SVG Version: 6.00 Build 0)  -->
<svg version="1.1" id="Layer_1" xmlns="http://www.w3.org/2000/svg" xmlns:xlink="http://www.w3.org/1999/xlink" x="0px" y="0px"
	 viewBox="0 0 300 600" style="enable-background:new 0 0 300 600;" xml:space="preserve">
<style type="text/css">
	.st0{fill:#76ACA9;}
	.st1{fill:#FFFFFF;}
	.st2{fill:#044854;}
</style>
<g>
	<g>
		<path class="st0" d="M331,538h-0.1h-0.1l-0.7,0.1c-0.3,0.1-0.6,0.1-0.9,0.1c-0.6,0-1.1,0.1-1.6,0.3s-1,0.5-1.5,0.9
			c-0.2,0.1-0.4,0.3-0.6,0.4c-0.3,0.2-0.6,0.3-0.9,0.5c-0.4,0.2-0.8,0.4-1.2,0.7c-0.2,0.2-0.5,0.4-0.7,0.6c-0.3,0.3-0.6,0.6-1,0.8
			l-0.2,0.1c-0.5,0.4-1.1,0.7-1.8,0.9c-0.7,0.2-1.5,0.4-2.3,0.4c-0.7,0-1.5-0.1-2.2-0.3l-0.6-0.2h-0.3l-0.6-0.1
			c-0.1-0.1-0.2-0.2-0.3-0.3c-0.4-0.3-0.7-0.5-1-0.7c-0.4-0.3-0.9-0.6-1.3-0.9l-0.5-0.4c-0.5-0.5-1-0.9-1.6-1.3
			c-0.2-0.2-0.5-0.3-0.7-0.4c-0.1-0.1-0.3-0.3-0.5-0.4c-0.3-0.2-0.6-0.3-0.9-0.3l-0.4-0.2c-0.2-0.1-0.5-0.2-0.8-0.4
			c-0.6-0.4-1.2-0.6-1.9-0.7c-0.8-0.1-1.5-0.1-2.3-0.1h-0.9c-0.8,0-1.6,0-2.4,0.1c-0.9,0.2-1.7,0.4-2.5,0.7c-0.5,0.2-1,0.5-1.4,0.9
			c-0.2,0.2-0.4,0.3-0.6,0.5l-0.5,0.3c-0.5,0.3-1,0.6-1.4,1c-0.4,0.3-0.8,0.5-1.2,0.7c-0.3,0.1-0.5,0.3-0.8,0.4
			c-0.2,0.1-0.3,0.2-0.5,0.3c-0.4,0.3-0.9,0.6-1.4,0.7l-0.4,0.1c-0.6,0.2-1.2,0.3-1.9,0.3c-0.8,0-1.6,0-2.4-0.2
			c-0.5-0.2-0.9-0.4-1.3-0.7c-0.2-0.2-0.4-0.3-0.6-0.4c-0.3-0.2-0.6-0.5-0.9-0.7c-0.2-0.2-0.5-0.5-0.8-0.7c-0.4-0.3-0.8-0.5-1.2-0.7
			c-0.3-0.1-0.6-0.3-0.9-0.5c-0.7-0.4-1.4-0.8-2.1-1.1c-0.8-0.3-1.6-0.5-2.4-0.6l-0.6-0.1c-0.6-0.2-1.2-0.2-1.9-0.3h-0.6
			c-0.7,0-1.3,0-2,0.1s-1.4,0.4-2,0.7l-0.4,0.2l-0.5,0.2c-0.6,0.2-1.2,0.5-1.8,0.8c-0.6,0.4-1.1,0.8-1.6,1.2l-0.3,0.2l-0.2,0.1H261
			c0,0.7,0.2,1.4,0.5,2.1c0.1,0.1,0.2,0.2,0.4,0.4c0.2,0.3,0.5,0.5,0.9,0.5c0.3,0,0.6-0.1,0.8-0.3c0.1-0.1,0.2-0.2,0.3-0.2l0.3-0.2
			c0.6-0.5,1.2-0.9,1.9-1.3c0.6-0.4,1.3-0.8,2-1c0.4-0.1,0.8-0.1,1.3,0c0.4,0,0.7,0.1,1.1,0.1c0.7,0,1.5,0,2.2,0.2s1.4,0.4,2,0.8
			c0.3,0.2,0.6,0.5,0.8,0.7c0.2,0.3,0.5,0.5,0.8,0.7c0.6,0.5,1.2,0.9,1.9,1.3h0.1c0.5,0.3,1,0.4,1.5,0.5c0.3,0.1,0.7,0.2,1,0.3
			l0.5,0.2c0.6,0.3,1.2,0.5,1.9,0.6c0.8,0.2,1.7,0.3,2.5,0.3c0.6,0,1.2-0.1,1.8-0.3c0.2,0,0.5-0.1,0.7-0.1c0.3-0.1,0.6-0.1,0.9-0.1
			c0.6,0,1.1-0.1,1.6-0.3s1-0.5,1.5-0.9l0.6-0.4c0.3-0.2,0.6-0.3,0.9-0.5c0.4-0.2,0.8-0.4,1.2-0.7c0.2-0.2,0.5-0.4,0.7-0.6
			c0.3-0.3,0.7-0.6,1-0.8l0.2-0.1c0.5-0.4,1.1-0.7,1.8-0.9c0.7-0.2,1.5-0.4,2.3-0.4c0.7,0,1.5,0.1,2.2,0.3l0.6,0.2h0.2l0.6,0.1
			c0.1,0.1,0.2,0.2,0.3,0.3c0.4,0.3,0.7,0.5,1,0.7s0.9,0.6,1.2,0.9l0.5,0.4c0.5,0.5,1,0.9,1.6,1.3c0.2,0.2,0.5,0.3,0.7,0.4
			s0.3,0.3,0.5,0.4c0.3,0.2,0.6,0.3,0.9,0.3l0.4,0.2c0.2,0.1,0.5,0.2,0.8,0.4c0.6,0.4,1.2,0.6,1.9,0.7c0.8,0.1,1.5,0.1,2.3,0.1h0.9
			c0.8,0,1.5,0,2.3-0.1c0.9-0.2,1.7-0.4,2.5-0.7c0.5-0.2,1-0.5,1.4-0.9c0.2-0.2,0.4-0.3,0.6-0.5l0.5-0.3c0.5-0.3,1-0.6,1.4-1
			c0.4-0.3,0.8-0.5,1.2-0.7c0.3-0.1,0.5-0.3,0.8-0.4l0.5-0.3c0.4-0.3,0.9-0.6,1.4-0.7l0.4-0.1l0.8-0.2c0.1,0,0.4-0.7,0.4-0.7
			c0-0.1,0.1-0.2,0.1-0.4c0-0.5,0.2-1.1,0-1.5S331.3,538.1,331,538"/>
		<path class="st0" d="M330.6,546.8c-0.1-0.1-0.4,0-0.6,0c-0.8,0.1-1.6,0.3-2.4,0.6c-0.5,0.2-1,0.5-1.4,0.8
			c-0.2,0.2-0.4,0.3-0.5,0.4l-0.5,0.3c-0.5,0.3-0.9,0.5-1.3,0.9c-0.5,0.4-1.1,0.8-1.7,1.1s-1.2,0.5-1.9,0.6l-0.6,0.2
			c-0.5,0.2-1,0.3-1.5,0.3s-1.1-0.1-1.6-0.2c-0.3,0-0.5-0.1-0.8-0.1h-0.4c-0.6,0-1.3-0.1-1.9-0.3c-0.5-0.2-0.9-0.4-1.4-0.7
			c-0.2-0.1-0.4-0.2-0.5-0.3s-0.3-0.2-0.5-0.2c-0.3-0.2-0.7-0.5-1-0.7s-0.7-0.4-1.1-0.5l-1.1-0.8l-0.1-0.1h-0.1
			c-0.3-0.3-0.7-0.4-1.1-0.3c-0.3-0.2-0.6-0.4-1-0.5c-0.9-0.3-1.8-0.4-2.7-0.6c-0.5,0-1,0-1.5,0.1c-0.4,0.1-0.8,0.1-1.2,0.1
			c-0.3,0-0.7-0.1-1-0.1c-0.5-0.1-1-0.1-1.4-0.1c-0.5,0.1-1.1,0.3-1.5,0.6c-0.2,0.1-0.4,0.2-0.7,0.3l-0.8,0.2
			c-0.5,0.1-1,0.3-1.5,0.6c-0.4,0.3-0.7,0.6-1,0.9c-0.2,0.2-0.4,0.4-0.6,0.5c-0.4,0.3-0.8,0.5-1.2,0.7l-0.6,0.3
			c-0.6,0.3-1.3,0.5-1.9,0.6h-0.2c-0.6,0.2-1.2,0.2-1.8,0.3c-0.8,0-1.5-0.1-2.2-0.3s-1.4-0.5-2-0.9c-0.3-0.2-0.6-0.3-0.9-0.5
			c-0.4-0.2-0.8-0.4-1.1-0.6c-0.2-0.2-0.4-0.4-0.6-0.6c-0.3-0.3-0.6-0.6-1-0.9c-0.6-0.4-1.3-0.7-2-1l-0.2-0.1
			c-0.2-0.1-0.4-0.2-0.6-0.3c-0.5-0.3-1.1-0.5-1.7-0.6c-0.9-0.1-1.7-0.2-2.6-0.1c-0.8,0-1.5,0.1-2.3,0.2h-0.3l-0.8,0.1
			c-0.6,0-1.2,0.2-1.8,0.4c-0.5,0.2-0.9,0.5-1.3,0.9c-0.2,0.2-0.4,0.4-0.6,0.5c-0.6,0.4-1.2,0.8-1.8,1.3c-0.2,0.8-0.2,1.6,0.1,2.4
			c0.6,0.5,1.4,1.1,2.4,0.3l0.2-0.1l0.2-0.2c0.3-0.2,0.6-0.5,0.8-0.8c0.2-0.3,0.4-0.5,0.7-0.7c0.7-0.4,1.4-0.7,2.1-0.9
			c0.8-0.2,1.5-0.4,2.3-0.4c0.7,0,1.5,0.2,2.2,0.4h0.1c0.7,0.2,1.4,0.5,2.1,0.9c0.6,0.4,1.2,0.8,1.8,1.3c0.2,0.2,0.4,0.4,0.6,0.6
			c0.3,0.3,0.7,0.6,1.1,0.9l0.4,0.3c0.5,0.4,1.1,0.7,1.6,1c0.5,0.2,1.1,0.3,1.6,0.3c0.3,0,0.6,0.1,0.9,0.1c0.3,0.1,0.5,0.1,0.8,0.3
			c0.5,0.2,1.1,0.4,1.7,0.4c0.8,0,1.6-0.1,2.5-0.2c0.6-0.1,1.1-0.3,1.6-0.6c0.2-0.1,0.4-0.2,0.6-0.3c0.3-0.1,0.5-0.2,0.8-0.2
			c0.5-0.1,1-0.3,1.4-0.6c0.4-0.2,0.7-0.6,1-0.9c0.2-0.2,0.4-0.4,0.6-0.6c0.4-0.3,0.7-0.5,1.1-0.7l0.7-0.3l0.5-0.3
			c0.3-0.3,0.7-0.5,1.1-0.6c0.3,0,0.7,0,1,0.1c0.4,0.1,0.8,0.1,1.2,0.2h0.9c0.5-0.1,1.1-0.1,1.6,0l0.6,0.1c0.6,0.1,1.2,0.2,1.8,0.4
			c0.5,0.2,0.9,0.5,1.4,0.9l0.6,0.5c0.3,0.2,0.6,0.4,0.9,0.5l0.5,0.3l0.5,0.3l0.1,0.1l0.9,0.7l0.5,0.4c0.5,0.1,1,0.3,1.5,0.5
			l0.2-0.1c0.6,0.1,1.1,0.2,1.7,0.1c0.4,0,0.8,0,1.2,0c0.3,0,0.6,0.1,0.9,0.1c0.7,0.1,1.3,0.2,2,0.2c0.8,0,1.5-0.1,2.2-0.2h0.2
			c0.8-0.1,1.6-0.3,2.4-0.5c0.5-0.2,1-0.5,1.4-0.8c0.2-0.1,0.3-0.2,0.5-0.4c0.3-0.2,0.6-0.3,0.9-0.4c0.4-0.1,0.8-0.3,1.2-0.6
			l0.2-0.2c0.4-0.4,0.9-0.7,1.4-1l0.3-0.2c0.4-0.3,0.9-0.5,1.4-0.6c0.3-0.5,0.9-1,0.9-1.3C331.2,548.3,330.9,547.5,330.6,546.8"/>
		<path class="st0" d="M331.9,531.4c-0.1-0.2-0.2-0.5-0.2-0.7c-0.2-0.5-0.3-1-0.4-1.5c-0.2-0.1-0.5-0.2-0.7-0.3L330,529
			c-0.6,0.1-1.1,0.3-1.6,0.6c-0.2,0.1-0.4,0.2-0.6,0.3c-0.3,0.1-0.5,0.2-0.8,0.2c-0.5,0.1-1,0.3-1.5,0.6c-0.4,0.3-0.7,0.6-1,0.9
			c-0.2,0.2-0.3,0.4-0.5,0.6c-0.4,0.3-0.7,0.5-1.1,0.7l-0.7,0.4l-0.5,0.3c-0.4,0.3-0.8,0.5-1.3,0.6c-0.3,0-0.7,0-1-0.1
			c-0.4-0.1-0.8-0.1-1.2-0.2h-0.9c-0.5,0-1.1,0-1.6,0l-0.6-0.1c-0.6-0.1-1.2-0.2-1.8-0.4c-0.5-0.2-0.9-0.5-1.4-0.9l-0.6-0.5
			c-0.3-0.2-0.6-0.4-0.9-0.5l-0.5-0.3l-0.5-0.3l-0.1-0.1l-0.9-0.7l-0.7-0.5c-0.4-0.4-1-0.5-1.6-0.3c-0.6-0.1-1.1-0.2-1.7-0.1
			c-0.4,0-0.8,0-1.2,0s-0.6-0.1-0.9-0.1c-0.7-0.1-1.3-0.2-2-0.2s-1.4,0.1-2.1,0.2h-0.1c-0.8,0.1-1.6,0.3-2.4,0.5
			c-0.5,0.2-1,0.5-1.4,0.8l-0.5,0.4c-0.3,0.2-0.6,0.3-0.9,0.4c-0.4,0.1-0.8,0.3-1.2,0.6l-0.2,0.2c-0.5,0.4-0.9,0.7-1.4,1l-0.3,0.2
			c-0.4,0.3-0.9,0.5-1.5,0.7c-0.7,0.1-1.4,0.2-2.1,0.2s-1.4-0.1-2.1-0.2c-0.6-0.1-1.2-0.4-1.8-0.8c-0.3-0.2-0.6-0.3-0.9-0.4
			c-0.4-0.1-0.7-0.3-1-0.5c-0.2-0.2-0.4-0.3-0.6-0.5c-0.3-0.3-0.7-0.6-1.1-0.9c-0.2-0.1-0.4-0.3-0.5-0.4c-0.4-0.3-0.9-0.6-1.4-0.8
			s-1-0.3-1.6-0.3c-0.3,0-0.6,0-0.9-0.1c-0.8-0.1-1.6-0.2-2.4-0.2c-0.3,0-0.7,0-1,0c-0.6-0.1-1.2-0.1-1.8,0
			c-0.7,0.1-1.4,0.3-2.1,0.5l-0.6,0.2c-0.6,0.2-1.2,0.5-1.8,0.8c-0.2,0.1-0.4,0.2-0.6,0.3l0,0c-0.7,0.3-1.4,0.7-2,1.2
			c0,0.1,0,0.2-0.1,0.3c0.1,0.5,0.2,1,0.4,1.4l0.1-0.1l-0.1,0.1c0.1,0.2,0.2,0.4,0.3,0.5c0.2,0.1,0.4,0.2,0.6,0.3
			c0.5,0.2,1,0.1,1.4-0.2c0.5-0.4,1.1-0.7,1.8-0.9l0.5-0.2c0.8-0.3,1.6-0.6,2.5-0.7c0.3,0,0.6-0.1,1-0.2c0.5-0.2,1.1-0.2,1.7-0.3
			c0.6,0,1.2,0.1,1.7,0.3l0.4,0.1c0.7,0.1,1.3,0.4,1.9,0.7c0.4,0.2,0.7,0.5,1,0.8l0.6,0.5c0.4,0.3,0.7,0.5,1.1,0.7
			c0.3,0.1,0.5,0.3,0.8,0.5c0.2,0.1,0.4,0.3,0.6,0.5c0.4,0.4,0.8,0.7,1.3,0.9s1,0.2,1.5,0.2c0.3,0,0.6,0,1,0.1
			c0.8,0.1,1.6,0.2,2.4,0.2c0.3,0,0.6,0,1,0c0.5,0.1,1,0.1,1.5,0c0.8-0.1,1.6-0.3,2.4-0.6c0.5-0.2,1-0.5,1.4-0.8
			c0.2-0.1,0.4-0.3,0.6-0.4l0.5-0.3c0.5-0.3,0.9-0.5,1.3-0.9c0.5-0.4,1.1-0.8,1.7-1.1s1.2-0.5,1.9-0.6l0.6-0.2
			c0.5-0.2,1-0.3,1.5-0.3s1.1,0.1,1.6,0.2l0.8,0.1h0.4c0.6,0,1.3,0.1,1.9,0.3c0.5,0.2,1,0.4,1.4,0.7l0.5,0.3l0.5,0.2
			c0.3,0.2,0.7,0.5,1,0.7c0.4,0.2,0.7,0.4,1.1,0.5l1.1,0.8l0.1,0.1h0.1c0.3,0.3,0.7,0.4,1.1,0.3c0.3,0.2,0.6,0.4,1,0.5
			c0.9,0.3,1.8,0.4,2.7,0.6c0.5,0,1,0,1.5-0.1c0.4-0.1,0.8-0.1,1.2-0.1c0.3,0,0.7,0.1,1,0.1h0.3c1.2-0.4,2.5-0.7,3.8-1.1
			c0.8-0.3,1.5-0.6,2.3-1c0.2-0.2,0.4-0.3,0.5-0.5c0.2-0.2,0.4-0.4,0.6-0.5c0.4-0.3,0.8-0.5,1.2-0.7l0.6-0.3
			c0.6-0.3,1.2-0.5,1.9-0.6l0.2-0.1l0.4-0.1c0.4-0.3,0.7-0.7,0.9-1.2c0,0,0,0,0-0.1"/>
	</g>
	<g>
		<path class="st0" d="M163.7,528.7L163.7,528.7l0.4,0.1l0,0H164C163.9,528.7,163.8,528.7,163.7,528.7z"/>
		<path class="st1" d="M162.6,530.1v-2.6h1.2h0.3l1.3,0.1v2.2l-1.1,0.1h-0.5L162.6,530.1z"/>
		<path class="st0" d="M180.9,542.8l0.2-0.2l3.4-4.8l-4.4-3.9l-0.2-0.2v-0.3l0.7-5.8l-5.7-1.4l-0.3-0.1l-0.1-0.3l-2.1-5.5l-5.7,1.4
			l-0.3,0.1l-0.2-0.2l-4.4-3.9l-4.4,3.9l-0.2,0.2l-0.3-0.1l-5.7-1.4l-2.1,5.5l-0.1,0.3l-0.3,0.1l-5.7,1.4l0.7,5.8v0.3l-0.2,0.2
			l-4.4,3.9l3.4,4.8l0.2,0.2l-0.1,0.3l-2.1,5.5l5.2,2.7l0.3,0.2v0.3l0.7,5.8h6.2l0.2,0.2l3.3,4.9l5.2-2.8l0.3-0.2l0.3,0.2l5.2,2.8
			l3.3-4.9l0.2-0.2h6.2l0.7-5.8v-0.3l0.3-0.2l5.2-2.7l-2.1-5.5L180.9,542.8z M177,542.6l-0.5,2.4l-0.9,2.3l-1.2,2.1l-1.5,2l-2,1.5
			l-2.1,1.2l-2.2,1l-2.4,0.6h-2.5l-2.4-0.2l-2.4-0.6l-2.3-0.9l-2.2-1.1l-1.9-1.6l-1.4-2l-1.5-2l-1-2.3l-0.4-2.4l-0.2-2.5l0.1-2.5
			l0.6-2.4l1.1-2.2l1.1-2.2l1.6-1.9l2-1.5l2-1.5l2.4-0.7l2.4-0.7h2.5l2.4,0.2l2.4,0.4l2.3,1l2.1,1.2l1.9,1.6l1.6,1.9l1.1,2.2
			l1.2,2.2l0.4,2.5l0.4,2.4L177,542.6z"/>
		<path class="st1" d="M155.8,564.3l-3.8-5.5h-6.6l-0.8-6.6l-5.9-3.1l2.4-6.2l-3.8-5.5l5-4.4l-0.8-6.6l6.4-1.6l2.3-6.2l6.4,1.6
			l5-4.4l5,4.4l6.4-1.6l2.3,6.2l6.4,1.6l-0.8,6.6l5,4.4l-3.9,5.5l2.4,6.2l-5.9,3.1l-0.8,6.6h-6.6l-3.8,5.5l-5.9-3.1L155.8,564.3z
			 M161.7,558.5l5.1,2.7l3.3-4.8h5.8l0.7-5.7l5.1-2.7l-2.1-5.4l0.5-0.8l2.7-4l-4.3-3.8l0.7-5.7l-5.6-1.4l-2-5.4L166,523l-4.3-3.8
			l-4.3,3.8l-5.6-1.4l-2,5.4l-5.6,1.4l0.7,5.7l-4.3,3.9l3.3,4.7l-2.1,5.4l5.1,2.7l0.7,5.7h5.8l3.3,4.8L161.7,558.5z M161.6,557
			l-2.6-0.2l-2.6-0.7l-2.4-1l-2.3-1.2l-2.1-1.8l-1.5-2.2l-1.5-2.1l-1.1-2.5l-0.5-2.7l-0.2-2.5l0.1-2.7l0.6-2.7l1.2-2.3l1.1-2.3
			l1.8-2.1l2.1-1.6l2.2-1.6l5.1-1.5h2.7l2.6,0.2l2.6,0.4l2.5,1.1l2.2,1.3l2,1.7l1.8,2l1.1,2.3l1.2,2.4l0.8,5.3l-0.4,2.7l-0.6,2.5
			l-0.9,2.5l-1.3,2.3l-1.7,2.1l-2.2,1.7l-2.2,1.3l-2.3,1l-2.6,0.7L161.6,557z M159.4,554.4l2.3,0.2h2.3l2.1-0.6l2.1-0.9l2-1.2
			l1.8-1.4l1.4-1.8l1.1-2l0.8-2.1l0.5-2.3l0.4-2.2l-0.6-4.5l-1.1-2l-1-2.1l-1.5-1.7l-1.7-1.5l-2-1.1l-2.1-0.9L164,526l-2.3-0.2h-2.2
			l-4.4,1.3l-1.9,1.3l-1.9,1.4l-1.4,1.7l-1,2.1l-1.1,2.1l-0.5,2.2l-0.1,2.3l0.2,2.3l0.4,2.2l0.9,2l1.4,1.9l1.3,1.9l1.7,1.4l2.1,1
			l2.1,0.9L159.4,554.4z"/>
		<path class="st0" d="M159.2,552.4h0.3l-0.3-0.2C159.2,552.3,159.2,552.3,159.2,552.4z"/>
		<path class="st1" d="M164.1,554.2l-5.9-0.8l-0.1-0.9v-0.1v-0.1l-0.3-2.7L164.1,554.2z"/>
		<circle class="st1" cx="161.9" cy="540.7" r="17.2"/>
		<path class="st2" d="M171.7,542.4l0.1-0.1h0.1l0,0l0,0c0-0.3,0-0.6,0-0.9l-0.1-0.1c-0.1-0.1-0.2-0.2-0.2-0.3h-0.1l-0.2-0.1
			l-0.1-0.1l-0.4-0.3c-0.2-0.1-0.3-0.2-0.5-0.4l-0.2-0.2c-0.2-0.2-0.4-0.4-0.6-0.5l-0.3-0.2c-0.1-0.1-0.1-0.1-0.2-0.2
			c-0.1-0.1-0.2-0.1-0.3-0.1l-0.1-0.1c-0.1,0-0.2-0.1-0.3-0.2c-0.2-0.1-0.5-0.2-0.7-0.3c-0.3,0-0.6,0-0.9,0h-0.4c-0.3,0-0.6,0-0.9,0
			c-0.3,0.1-0.7,0.2-1,0.3c-0.2,0.1-0.4,0.2-0.5,0.4l-0.2,0.2l-0.2,0.1c-0.2,0.1-0.4,0.3-0.5,0.4c-0.1,0.1-0.3,0.2-0.4,0.3
			c-0.1,0.1-0.2,0.1-0.3,0.2c-0.1,0-0.1,0.1-0.2,0.1c-0.2,0.1-0.3,0.2-0.5,0.3h-0.1c-0.2,0.1-0.5,0.1-0.7,0.1c-0.3,0-0.6,0-0.9-0.1
			c-0.2-0.1-0.3-0.2-0.5-0.3l-0.2-0.2c-0.1-0.1-0.2-0.2-0.3-0.3s-0.2-0.2-0.3-0.3s-0.3-0.2-0.4-0.3c-0.1-0.1-0.2-0.1-0.4-0.2
			c-0.3-0.2-0.5-0.3-0.8-0.5c-0.3-0.1-0.6-0.2-0.9-0.2h-0.2c-0.2-0.1-0.5-0.1-0.7-0.1H155c-0.2,0-0.5,0-0.7,0
			c-0.3,0.1-0.5,0.1-0.8,0.3l-0.1,0.1l-0.2,0.1c-0.2,0.1-0.5,0.2-0.7,0.3c-0.2,0.2-0.4,0.3-0.6,0.5l-0.1,0.1h-0.1l0,0
			c0,0.3,0.1,0.6,0.2,0.9l0.1,0.1c0.1,0.1,0.2,0.2,0.3,0.2s0.2,0,0.3-0.1l0.1-0.1l0.1-0.1c0.2-0.2,0.5-0.4,0.7-0.5
			c0.2-0.2,0.5-0.3,0.8-0.4c0.2,0,0.3,0,0.5,0c0.1,0,0.3,0,0.4,0c0.3,0,0.6,0,0.8,0.1c0.3,0.1,0.5,0.2,0.8,0.3
			c0.1,0.1,0.2,0.2,0.3,0.3s0.2,0.2,0.3,0.3c0.2,0.2,0.5,0.4,0.7,0.5l0,0c0.2,0.1,0.4,0.2,0.6,0.2c0.1,0,0.3,0.1,0.4,0.1l0.2,0.1
			c0.2,0.1,0.5,0.2,0.7,0.2c0.3,0.1,0.7,0.1,1,0.1c0.2,0,0.5,0,0.7-0.1c0.1,0,0.2,0,0.3-0.1h0.3c0.2,0,0.4,0,0.6-0.1
			c0.2-0.1,0.4-0.2,0.6-0.4l0.2-0.2c0.1-0.1,0.2-0.1,0.3-0.2c0.2-0.1,0.3-0.2,0.4-0.3l0.2-0.2c0.1-0.1,0.3-0.2,0.4-0.3h0.1
			c0.2-0.2,0.4-0.3,0.7-0.4c0.3-0.1,0.6-0.1,0.9-0.2c0.3,0,0.6,0.1,0.8,0.2l0.2,0.1h0.1l0.2,0.1l0.1,0.1l0.4,0.3
			c0.2,0.1,0.3,0.2,0.5,0.4l0.2,0.2c0.2,0.2,0.4,0.4,0.6,0.5l0.3,0.2l0.2,0.2c0.1,0.1,0.2,0.1,0.3,0.1l0.1,0.1l0.3,0.2
			c0.2,0.1,0.5,0.2,0.7,0.3h0.1l0,0L171.7,542.4z"/>
		<path class="st2" d="M170.7,545.7L170.7,545.7c0.3,0.1,0.5,0.1,0.7,0l0,0h0.2h0.1l0,0l0,0h0.1l0,0l0.1-0.1l0,0l0,0
			c0-0.2,0-0.5,0-0.8l0,0l0,0l-0.1-0.1l-0.1-0.1l-0.1-0.1c-0.1,0-0.2,0-0.3-0.1c-0.2-0.1-0.4-0.2-0.5-0.3l-0.2-0.1l-0.2-0.1
			l-0.4-0.3c-0.1-0.1-0.3-0.2-0.4-0.2c-0.1-0.1-0.3-0.2-0.4-0.3l0,0l0,0c-0.1-0.1-0.3-0.1-0.4-0.1c-0.1-0.1-0.3-0.2-0.4-0.2
			c-0.3-0.1-0.7-0.2-1-0.2c-0.2,0-0.4,0-0.6,0c-0.1,0-0.3,0-0.4,0c-0.1,0-0.3,0-0.4,0c-0.2,0-0.4,0-0.5,0c-0.2,0-0.4,0.1-0.6,0.2
			c-0.1,0-0.2,0.1-0.2,0.1l-0.3,0.1c-0.2,0.1-0.4,0.1-0.6,0.2c-0.1,0.1-0.3,0.2-0.4,0.4l-0.2,0.2c-0.1,0.1-0.3,0.2-0.4,0.3l-0.2,0.1
			c-0.2,0.1-0.5,0.2-0.7,0.2h-0.1c-0.2,0.1-0.5,0.1-0.7,0.1c-0.3,0-0.6,0-0.9-0.1c-0.3-0.1-0.5-0.2-0.8-0.4l-0.3-0.2
			c-0.2-0.1-0.3-0.2-0.4-0.3c-0.1-0.1-0.2-0.2-0.2-0.2c-0.1-0.1-0.3-0.3-0.4-0.4c-0.2-0.2-0.5-0.3-0.8-0.4H157l-0.2-0.1
			c-0.2-0.1-0.4-0.2-0.6-0.3c-0.3-0.1-0.7-0.1-1-0.1s-0.6,0-0.9,0.1h-0.1h-0.3c-0.2,0-0.5,0.1-0.7,0.2c-0.2,0.1-0.3,0.2-0.5,0.4
			c-0.1,0.1-0.2,0.2-0.2,0.2c-0.2,0.2-0.4,0.3-0.7,0.5c-0.1,0.3-0.1,0.7,0,1c0.2,0.2,0.5,0.5,0.9,0.2l0.1-0.1l0.1-0.1
			c0.1-0.1,0.2-0.2,0.3-0.3s0.2-0.2,0.3-0.3c0.2-0.2,0.5-0.3,0.8-0.4c0.3-0.1,0.6-0.1,0.9-0.2c0.3,0,0.6,0.1,0.8,0.2l0,0
			c0.3,0.1,0.5,0.2,0.8,0.4c0.2,0.2,0.5,0.3,0.7,0.5c0.1,0.1,0.2,0.1,0.2,0.2c0.1,0.1,0.3,0.3,0.4,0.4l0.2,0.1
			c0.2,0.2,0.4,0.3,0.6,0.4c0.2,0.1,0.4,0.1,0.6,0.1h0.3c0.1,0,0.2,0.1,0.3,0.1c0.2,0.1,0.4,0.2,0.6,0.2c0.3,0,0.6,0,0.9-0.1
			c0.2,0,0.4-0.1,0.6-0.2l0.2-0.1l0.3-0.1c0.2-0.1,0.4-0.1,0.6-0.2c0.1-0.1,0.3-0.2,0.4-0.4c0.1-0.1,0.1-0.2,0.2-0.2
			c0.1-0.1,0.3-0.2,0.4-0.3c0.1,0,0.2-0.1,0.2-0.2l0.2-0.1c0.1-0.1,0.3-0.2,0.5-0.3c0.1,0,0.2,0,0.4,0s0.3,0.1,0.5,0.1h0.3
			c0.2,0,0.4,0,0.6,0h0.2c0.2,0,0.5,0.1,0.7,0.2c0.2,0.1,0.4,0.2,0.5,0.4c0.1,0.1,0.1,0.1,0.2,0.2c0.3,0.2,1.1,0.6,0.5,0.3l0.2,0.2
			l0,0c0.1,0.1,0.2,0.2,0.4,0.3l0.2,0.2L170.7,545.7z"/>
		<path class="st2" d="M171.9,537.1l-0.3-0.2c-0.1,0-0.3-0.1-0.4-0.1c-0.2-0.1-0.4-0.2-0.5-0.4l-0.2-0.2l-0.3-0.2l-0.2-0.1l-0.2-0.2
			h-0.1l-0.4-0.3l-0.3-0.2c-0.2-0.2-0.4-0.2-0.6-0.1c-0.2-0.1-0.4-0.1-0.6,0c-0.2,0-0.3,0-0.5,0L167,535c-0.3-0.1-0.5-0.1-0.8-0.1
			s-0.6,0-0.9,0.1h-0.1c-0.3,0-0.6,0.1-0.9,0.2c-0.2,0.1-0.4,0.2-0.5,0.3l-0.2,0.1c-0.1,0.1-0.2,0.1-0.4,0.2
			c-0.2,0.1-0.3,0.1-0.4,0.2l-0.1,0.1c-0.2,0.2-0.4,0.3-0.5,0.4l-0.1,0.1c-0.2,0.1-0.4,0.2-0.6,0.3c-0.3,0.1-0.5,0.1-0.8,0.1
			s-0.5,0-0.8-0.1c-0.2-0.1-0.5-0.2-0.7-0.3c-0.1-0.1-0.2-0.1-0.3-0.2c-0.1,0-0.3-0.1-0.4-0.2l-0.2-0.2c-0.1-0.1-0.3-0.3-0.4-0.4
			c-0.1,0-0.1-0.1-0.2-0.2c-0.1-0.1-0.3-0.3-0.5-0.3c-0.2-0.1-0.4-0.1-0.6-0.1h-0.3c-0.3-0.1-0.6-0.1-0.9-0.1H155
			c-0.2,0-0.4,0-0.7,0s-0.5,0.1-0.8,0.2l-0.2,0.1c-0.2,0.1-0.5,0.2-0.7,0.3l-0.2,0.1l0,0c-0.3,0.1-0.5,0.3-0.8,0.5v0.1
			c0,0.2,0.1,0.4,0.2,0.6l0,0l0,0c0,0.1,0.1,0.2,0.1,0.2c0.1,0.1,0.1,0.1,0.2,0.1c0.2,0.1,0.4,0,0.5-0.1c0.2-0.2,0.4-0.3,0.7-0.4
			l0.2-0.1c0.3-0.1,0.6-0.2,0.9-0.3c0.1,0,0.2-0.1,0.4-0.1c0.2-0.1,0.4-0.1,0.6-0.1c0.2,0,0.4,0,0.7,0.1h0.1
			c0.3,0.1,0.5,0.2,0.7,0.3c0.1,0.1,0.3,0.2,0.4,0.3l0.2,0.2c0.1,0.1,0.3,0.2,0.4,0.3l0.3,0.2c0.1,0.1,0.2,0.1,0.2,0.2
			c0.3,0.3,0.7,0.5,1.1,0.5h0.4c0.3,0.1,0.6,0.1,0.9,0.1h0.4c0.2,0,0.4,0,0.6,0c0.3-0.1,0.6-0.1,0.9-0.2c0.2-0.1,0.4-0.2,0.5-0.3
			l0.2-0.2l0.2-0.1c0.2-0.1,0.3-0.2,0.5-0.3c0.2-0.2,0.4-0.3,0.6-0.5c0.2-0.1,0.5-0.2,0.7-0.3l0.2-0.1c0.2-0.1,0.4-0.1,0.6-0.1
			c0.2,0,0.4,0,0.6,0.1h0.3h0.1c0.2,0,0.5,0.1,0.7,0.1c0.2,0.1,0.4,0.2,0.5,0.3l0.2,0.1l0.2,0.1c0.1,0.1,0.3,0.2,0.4,0.3
			c0.1,0.1,0.3,0.2,0.4,0.2l0.4,0.3h0.1l0,0c0.1,0.1,0.3,0.2,0.4,0.1c0.1,0.1,0.2,0.2,0.4,0.2c0.2,0.1,0.5,0.1,0.7,0.2h0.1
			c0,0,0.1-0.1,0,0l0.1-0.1l0.1-0.1l0,0v-0.1L171.9,537.1L171.9,537.1z"/>
		<path class="st0" d="M163.7,528.7L163.7,528.7l0.4,0.1l0,0H164C163.9,528.7,163.8,528.7,163.7,528.7z"/>
		<path class="st0" d="M180.9,542.8l0.2-0.2l3.4-4.8l-4.4-3.9l-0.2-0.2v-0.3l0.7-5.8l-5.7-1.4l-0.3-0.1l-0.1-0.3l-2.1-5.5l-5.7,1.4
			l-0.3,0.1l-0.2-0.2l-4.4-3.9l-4.4,3.9l-0.2,0.2l-0.3-0.1l-5.7-1.4l-2.1,5.5l-0.1,0.3l-0.3,0.1l-5.7,1.4l0.7,5.8v0.3l-0.2,0.2
			l-4.4,3.9l3.4,4.8l0.2,0.2l-0.1,0.3l-2.1,5.5l5.2,2.7l0.3,0.2v0.3l0.7,5.8h6.2l0.2,0.2l3.3,4.9l5.2-2.8l0.3-0.2l0.3,0.2l5.2,2.8
			l3.3-4.9l0.2-0.2h6.2l0.7-5.8v-0.3l0.3-0.2l5.2-2.7l-2.1-5.5L180.9,542.8z M177,542.6l-0.5,2.4l-0.9,2.3l-1.2,2.1l-1.5,2l-2,1.5
			l-2.1,1.2l-2.2,1l-2.4,0.6h-2.5l-2.4-0.2l-2.4-0.6l-2.3-0.9l-2.2-1.1l-1.9-1.6l-1.4-2l-1.5-2l-1-2.3l-0.4-2.4l-0.2-2.5l0.1-2.5
			l0.6-2.4l1.1-2.2l1.1-2.2l1.6-1.9l2-1.5l2-1.5l2.4-0.7l2.4-0.7h2.5l2.4,0.2l2.4,0.4l2.3,1l2.1,1.2l1.9,1.6l1.6,1.9l1.1,2.2
			l1.2,2.2l0.4,2.5l0.4,2.4L177,542.6z"/>
		<path class="st0" d="M159.2,552.4h0.3l-0.3-0.2C159.2,552.3,159.2,552.3,159.2,552.4z"/>
	</g>
</g>
</svg>
