<?xml version="1.0" encoding="utf-8"?>
<!-- Generator: Adobe Illustrator 25.2.3, SVG Export Plug-In . SVG Version: 6.00 Build 0)  -->
<svg version="1.1" id="Layer_1" xmlns="http://www.w3.org/2000/svg" xmlns:xlink="http://www.w3.org/1999/xlink" x="0px" y="0px"
	 viewBox="0 0 300 600" style="enable-background:new 0 0 300 600;" xml:space="preserve">
<style type="text/css">
	.st0{fill:#074854;}
</style>
<g id="Button_1">
	<path class="st0" d="M99.1,43.5h0.7c0.2,0,0.4,0,0.6-0.1c0-0.4-0.1-0.7-0.2-1.1c-0.1-0.3-0.1-0.7-0.2-1.1s-0.1-0.6-0.1-0.8
		s-0.1-0.4-0.1-0.5c0-0.1-0.1-0.2-0.1-0.3c-0.1-0.1-0.2-0.1-0.2-0.1h-0.2c0,0.3-0.1,0.6-0.2,1l-0.2,0.9c-0.1,0.3-0.2,0.6-0.2,1
		s-0.1,0.6-0.2,1h0.2L99.1,43.5L99.1,43.5z M101.8,48.4c-0.2,0-0.4,0-0.6,0c-0.1-0.5-0.2-0.9-0.3-1.4s-0.2-0.9-0.3-1.4h-1
		c-0.6,0-1.1,0-1.7,0c-0.2,0.9-0.4,1.8-0.6,2.7h-0.5h-1.3l-0.3,0c0.1-0.9,0.3-1.8,0.5-2.7s0.4-1.9,0.7-2.8s0.5-1.9,0.7-2.8
		s0.5-1.8,0.7-2.8h0.5h0.5h1.3h1.2c0.1,0.3,0.2,0.7,0.3,1.3s0.3,1.2,0.4,2s0.3,1.5,0.5,2.3s0.3,1.6,0.4,2.3s0.2,1.3,0.3,1.8
		c0.1,0.4,0.1,0.7,0.1,1.1v0.4H101.8z"/>
	<path class="st0" d="M116.6,48.3H116h-1.1h-0.5c-0.1-0.6-0.1-1.2-0.1-1.9s0-1.3,0-1.9s0-1.3,0-1.9s0-1.3,0-1.9h-0.1
		c-0.1,0.5-0.2,0.9-0.4,1.4c-0.2,0.4-0.3,0.9-0.5,1.3c-0.2,0.4-0.4,0.8-0.6,1.2s-0.4,0.8-0.6,1.3c-0.2,0-0.3,0.1-0.5,0.1
		c-0.2,0-0.3,0.1-0.5,0.1h-0.5h-0.4c-0.1,0-0.2,0-0.4-0.1l-0.5-0.2l-1-2.5c-0.3-0.8-0.6-1.7-0.8-2.5h-0.1v2.6c0,0.8,0,1.6,0.1,2.4
		c0.1,0.8,0.1,1.6,0,2.4l-0.4,0h-0.4h-0.8c-0.3,0-0.5,0-0.8,0c-0.1-0.8-0.1-1.7-0.1-2.5c0-0.8,0-1.7,0-2.6l0.1-2.6
		c0-0.9,0-1.7,0-2.5v-0.5c0-0.2,0-0.3,0-0.5h1h1.2c0.2,0,0.4,0,0.6,0.1l0.6,0.1c0.3,1.1,0.7,2.1,1.1,3.2s0.8,2.1,1.2,3.1
		c0.3-0.8,0.6-1.4,0.8-2l0.7-1.6c0.2-0.5,0.4-1,0.6-1.4s0.3-0.9,0.5-1.5c0.3,0,0.5,0,0.8,0h1.3h0.6h0.6c0.1,0.8,0.2,1.6,0.2,2.5
		s0,1.7,0,2.6s0,1.7-0.1,2.6s0,1.7,0,2.5L116.6,48.3z"/>
	<path class="st0" d="M120.7,42.2c0.1,0,0.2,0,0.2,0h1.1c0.4,0,0.7-0.1,1-0.2c0.3-0.1,0.6-0.3,0.8-0.5c0.2-0.3,0.4-0.6,0.3-1
		c0-0.3-0.1-0.6-0.2-0.9c-0.2-0.2-0.4-0.4-0.6-0.5c-0.3-0.1-0.6-0.2-0.8-0.2c-0.3,0-0.6-0.1-0.9-0.1h-0.3c-0.1,0-0.2,0-0.3,0
		c-0.1,0-0.2,0-0.3,0.1c-0.1,0-0.1,0.1-0.1,0.2c0,0.3,0,0.6,0,1s0,0.6,0,1s0,0.4,0,0.6C120.6,41.8,120.6,42,120.7,42.2 M118.1,48.3
		c-0.1-0.5-0.1-1-0.1-1.4s0-1,0-1.5s0-1,0-1.5s0-1,0-1.5s0-0.8,0-1.2v-1.4c0-0.5,0-0.9,0-1.3c0-0.4,0.1-0.8,0.2-1.2
		c0.2,0,0.3-0.1,0.5-0.1h0.5h1.6c0.6,0,1.1,0,1.7,0c0.6,0,1.1,0.1,1.6,0.2c0.5,0.1,1,0.3,1.4,0.6c0.4,0.3,0.8,0.6,1,1.1
		c0.3,0.5,0.4,1.1,0.4,1.7c0,0.6-0.1,1.1-0.4,1.7c-0.2,0.5-0.6,0.9-1,1.2c-0.4,0.3-0.9,0.6-1.5,0.7c-0.6,0.2-1.1,0.3-1.7,0.2h-0.7
		c-0.2,0-0.5,0-0.8,0c0,0.3,0,0.7-0.1,1.1v1.1c0,0.3,0,0.6,0,0.8c0,0.3,0,0.6,0,0.8c-0.2,0-0.4,0.1-0.7,0.1h-1.3
		C118.5,48.4,118.3,48.3,118.1,48.3"/>
	<path class="st0" d="M133.8,41.5c0.2,0,0.4,0,0.7-0.1c0.2,0,0.4-0.1,0.6-0.2c0.2-0.1,0.3-0.2,0.4-0.4c0.1-0.2,0.2-0.4,0.1-0.6
		c0-0.3-0.1-0.5-0.2-0.7c-0.2-0.2-0.4-0.3-0.6-0.4c-0.2-0.1-0.5-0.2-0.8-0.2c-0.3,0-3.2,0-3.4,0c-0.2,0-0.3,0-0.5,0
		c-0.1,0-0.2,0.2-0.2,0.4s0,0.5,0,0.7s0,0.5,0,0.7v0.6c0,0.1,0,0.1,0.1,0.1h0.2L133.8,41.5z M129.8,46.4c0,0.1,0.1,0.1,0.1,0.1
		c0.1,0,0.1,0,0.2,0c0.3,0,3.3,0,3.7,0c0.3,0,0.7-0.1,1-0.2c0.3-0.1,0.6-0.3,0.8-0.5c0.2-0.3,0.3-0.6,0.3-1c0-0.3-0.1-0.6-0.4-0.8
		c-0.2-0.2-0.5-0.3-0.8-0.4c-0.3-0.1-0.7-0.1-1-0.1h-3.6c-0.1,0-0.2,0-0.3,0.1c-0.1,0.1-0.1,0.2-0.1,0.3c0,0.4,0,0.8,0,1.2
		S129.7,46,129.8,46.4 M136.7,42.3c0.5,0.3,0.9,0.6,1.3,1c0.3,0.4,0.5,0.9,0.5,1.5c0,0.6-0.1,1.2-0.4,1.7c-0.2,0.4-0.5,0.8-0.9,1.1
		c-0.4,0.3-0.9,0.5-1.4,0.6c-0.5,0.1-1.1,0.2-1.6,0.2c-0.6,0-3.8,0-4.3,0h-1.6h-0.5c-0.1,0-0.2,0-0.3-0.1c-0.1,0-0.1-0.1-0.2-0.2
		c0-0.1,0-0.3,0-0.4v-9.9c0-0.2,0.2-0.5,0.4-0.5c0.3-0.1,0.6-0.2,0.9-0.2c0.4,0,0.7,0,1.1,0c0.4,0,3.3,0,3.5,0c0.5,0,1.1,0,1.6,0.1
		c0.5,0,1,0.2,1.5,0.4c0.4,0.2,0.8,0.5,1.1,0.9c0.3,0.4,0.5,1,0.4,1.5c0,0.4-0.1,0.8-0.3,1.2c-0.2,0.4-0.5,0.7-0.8,0.9L136.7,42.3z"
		/>
	<path class="st0" d="M144.6,48.3c-0.8,0-1.6,0-2.4,0c-0.8,0-1.6,0-2.4-0.1c-0.1-0.8-0.2-1.5-0.2-2.3c0-0.8,0-1.7,0-2.5
		s0-1.7,0.1-2.5c0-0.8,0-1.6,0-2.4v-1.3h0.7h6.6h0.8c0,0.3,0.1,0.7,0.1,1v0.5c0,0.2,0,0.3,0,0.5h-0.5h-0.5c-0.7,0-2,0-2.7,0
		c-0.7,0-1.4,0-2.1,0.1c0,0.1,0,0.2,0,0.3v2c0.6,0,1.2,0,1.8,0c0.6,0,1.8,0,2.6,0c0,0,0,0,0.1,0.1c0,0.1,0,0.2,0.1,0.2l-0.1,1.4
		c0,0.1,0,0.1-0.1,0.1l-0.2,0.1H146h-2.3c-0.5,0-1,0-1.4,0v0.9V46c0.3,0.1,0.7,0.2,1,0.2c0.5,0,0.9,0,1.4,0c0.5,0,1.6,0,2.1-0.1
		c0.4,0,0.8,0,1.2,0c0,0.2,0.1,0.4,0.1,0.6c0,0.2,0,0.4,0,0.5c0,0.2,0,0.4,0,0.5c0,0.2,0,0.3-0.1,0.5L144.6,48.3z"/>
	<path class="st0" d="M149,37.2h0.8h0.8c0.2,0,0.5,0,0.7,0c0.1,1,0.1,2,0.1,3v4.5c0,0.5,0,1,0,1.4c0.8,0,1.6,0,2.4,0
		c0.7,0,1.3,0,2,0.1c0.1,0.3,0.1,0.5,0.1,0.8c0,0.3,0,0.6,0,0.8c0,0.2,0,0.4-0.1,0.5c-0.2,0-0.4,0-0.7,0h-3.1c-1,0-2.1,0-3.1-0.1
		c-0.1-0.8-0.1-1.6-0.1-2.5s0-1.7,0-2.5s0-1.7,0.1-2.5s0-1.7,0-2.5L149,37.2z"/>
	<path class="st0" d="M156.5,37.2h0.8h0.8c0.2,0,0.5,0,0.7,0c0.1,1,0.1,2,0.1,3v4.5c0,0.5,0,1,0,1.4c0.8,0,1.6,0,2.4,0
		c0.7,0,1.3,0,2,0.1c0,0.3,0.1,0.5,0.1,0.8c0,0.3,0,0.6,0,0.8c0,0.2,0,0.4-0.1,0.5c-0.2,0-0.4,0-0.7,0h-3.1c-1,0-2.1,0-3.1-0.1
		c-0.1-0.8-0.1-1.6-0.1-2.5s0-1.7,0-2.5s0-1.7,0.1-2.5s0-1.7,0-2.5L156.5,37.2z"/>
	<path class="st0" d="M89.2,48.3c-0.8,0-1.6,0-2.4,0c-0.8,0-1.6,0-2.3-0.1c-0.1-0.8-0.2-1.5-0.2-2.3c0-0.8,0-1.7,0-2.5
		s0-1.7,0.1-2.5c0-0.8,0-1.6,0-2.4v-1.3h0.7h7.5h0.8c0,0.3,0.1,0.7,0.1,1v0.5c0,0.2,0,0.3,0,0.5H93h-0.5c-0.7,0-2.9,0-3.6,0
		c-0.7,0-1.4,0-2.1,0.1c0,0.1,0,0.2,0,0.3V46c0.3,0.1,0.7,0.2,1,0.2c0.5,0,0.9,0,1.4,0c0.5,0,2.5,0,3-0.1c0.4,0,0.8,0,1.2,0
		c0,0.2,0.1,0.4,0.1,0.6c0,0.2,0,0.4,0,0.5c0,0.2,0,0.4,0,0.5l-0.1,0.5L89.2,48.3z"/>
	<path class="st0" d="M170.9,42.2c0,0.1,0.1,0.1,0.2,0.1c0.1,0,0.1,0,0.2,0h1c0.4,0,2-0.1,2.3-0.2c0.3-0.1,0.6-0.2,0.8-0.5
		c0.3-0.3,0.4-0.6,0.3-1c0-0.3-0.1-0.7-0.3-0.9c-0.2-0.2-0.5-0.4-0.8-0.5c-0.8-0.1-1.5-0.1-2.3-0.2h-1c-0.1,0-0.2,0-0.3,0
		c-0.1,0-0.1,0.1-0.1,0.1c0,0.1,0,0.1,0,0.2c0,0.1,0,0.2,0,0.3c0,0.2,0,0.4,0,0.6s0,0.4,0,0.6L170.9,42.2z M176.2,48.5
		c-0.2-0.2-0.3-0.5-0.4-0.8c-0.2-0.4-0.4-0.8-0.6-1.2s-0.4-0.9-0.5-1.3s-0.3-0.7-0.4-0.9c-0.6-0.1-1.3-0.1-1.9-0.1h-1.1
		c-0.1,0-0.3,0-0.4,0c0,0.2,0,0.3,0,0.5v0.5c0,0.5,0,1,0.1,1.6c0,0.5,0,1-0.1,1.6c-0.3,0-0.6,0.1-0.8,0.1h-1.6
		c-0.1-0.3-0.1-0.6-0.1-0.8c0-0.5-0.1-1-0.1-1.7s0-1.4,0-2.2v-2.2c0-0.7,0-1.3,0-1.9s0-1,0-1.2s0-0.4,0-0.6c0-0.2,0-0.4,0.1-0.6
		c0.4-0.1,0.8-0.1,1.1-0.1h1.1h1.4c0.5,0,2.3,0,2.7,0.1c0.5,0.1,0.9,0.2,1.4,0.3c0.4,0.1,0.8,0.3,1.1,0.6c0.3,0.3,0.6,0.6,0.8,1
		c0.2,0.5,0.3,1,0.3,1.5c0,0.3,0,0.7-0.1,1c-0.1,0.3-0.2,0.6-0.3,0.8c-0.1,0.3-0.3,0.5-0.6,0.7c-0.2,0.2-0.5,0.4-0.8,0.6
		c0.1,0.4,0.2,0.8,0.4,1.1c0.2,0.4,0.4,0.8,0.6,1.2s0.4,0.8,0.5,1.2c0.1,0.4,0.2,0.7,0.3,1.1l-0.2,0h-0.2L176.2,48.5z"/>
	<path class="st0" d="M181.9,48.6h-1.8h-0.2h-0.2c0-0.2,0-4-0.1-4.3s0-1.4,0-1.7v-3.7c0-0.3,0-0.5,0-0.8s0-0.5,0.1-0.8h0.6h0.6h1.1
		h0.1h0.1c0,1.8,0.1,9,0.1,11.2L181.9,48.6z"/>
	<path class="st0" d="M188.8,48.6h-2.4c-0.1-0.3-0.3-0.7-0.4-1.3s-0.4-1.3-0.6-2s-0.4-1.5-0.6-2.3s-0.4-1.6-0.6-2.3s-0.3-1.4-0.4-2
		c-0.1-0.4-0.2-0.9-0.2-1.3c0.1,0,0.2,0,0.3,0h1.9c0.4,0.6,0.7,1.3,0.9,2c0.2,0.7,0.5,1.4,0.6,2.2c0.2,0.7,0.3,1.5,0.5,2.2
		c0.1,0.7,0.3,1.5,0.4,2.1h0.2c0-0.2,0.1-0.6,0.2-1.1s0.2-1,0.4-1.6s0.3-1.2,0.5-1.8s0.4-1.2,0.5-1.8s0.4-1,0.5-1.4
		c0.1-0.3,0.2-0.6,0.4-0.9h2.2c0,0.4-0.1,0.9-0.2,1.3c-0.1,0.6-0.3,1.2-0.5,1.9s-0.4,1.5-0.7,2.2s-0.5,1.6-0.8,2.3l-0.7,2
		c-0.2,0.6-0.4,1.1-0.5,1.5L188.8,48.6z"/>
	<path class="st0" d="M199,48.4c-0.8,0-1.6,0-2.4,0.1c-0.8,0-1.6,0-2.4-0.1c-0.1-0.8-0.2-1.6-0.2-2.3c0-0.8,0-1.7,0-2.5
		s0-1.7,0.1-2.5s0-1.6,0-2.4v-1.3h0.7h6.8h2.1c0,0.3,0,0.7,0,1v0.5c0,0.2,0,0.3,0,0.5h-0.5c-0.2,0-1.6,0-1.7,0c-0.7,0-2.2,0-2.9,0
		c-0.7,0-1.4,0-2.1,0.1c0,0.1,0,0.2,0,0.3V40v1.7c0.6,0,1.2,0,1.8,0c0.6,0,2.1,0,2.8,0c0,0,0,0,0.1,0.1s0,0.2,0.1,0.2l-0.1,1.4
		c0,0,0,0.1-0.1,0.1c-0.1,0-0.2,0.1-0.2,0.1c-0.1,0-1,0-1.1,0h-1.7c-0.5,0-1,0-1.4,0v0.9V46c0.3,0.1,0.7,0.2,1,0.2
		c0.4,0,0.9,0,1.4,0l2.3-0.1c0.5,0,2.2,0,2.5,0c0,0.2,0.1,0.4,0.1,0.6s0,0.4,0,0.6c0,0.2,0,0.4,0,0.5c0,0.2-0.1,0.3-0.1,0.5
		L199,48.4z"/>
	<path class="st0" d="M206.9,42.1c0,0.1,0.1,0.1,0.2,0.1c0.1,0,0.1,0,0.2,0h2.5c0.4,0,0.7-0.1,1.1-0.2c0.3-0.1,0.6-0.2,0.8-0.5
		c0.2-0.3,0.4-0.6,0.3-1c0-0.3-0.1-0.7-0.3-0.9c-0.2-0.2-0.5-0.4-0.8-0.5c-0.3-0.1-0.7-0.1-1-0.2h-2.4c-0.1,0-0.2,0-0.3,0
		c-0.1,0-0.1,0.1-0.1,0.1c0,0.1,0,0.2,0,0.2c0,0.1,0,0.2,0,0.3c0,0.2,0,0.4,0,0.6s0,0.4,0,0.6L206.9,42.1z M215.5,46.3
		c0,0.3,0.1,0.6,0.1,0.9c0.1,0.3,0.1,0.6,0.1,0.9c0,0.1-0.1,0.2-0.2,0.3c-0.1,0.1-0.3,0.1-0.4,0.1c-0.2,0-0.4,0-0.5,0h-0.4
		c-0.4,0-0.9-0.1-1.3-0.2c-0.4-0.2-0.7-0.4-1-0.7c-0.3-0.3-0.6-0.6-0.8-1c-0.2-0.4-0.4-0.8-0.6-1.2l-0.4-1.1
		c-0.1-0.1-0.3-0.1-0.4-0.1h-2.3c-0.1,0-0.3,0-0.4,0c0,0.2,0,0.3,0,0.5v0.5c0,0.5,0,1,0.1,1.6c0,0.5,0,1-0.1,1.6
		c-0.3,0.1-0.6,0.1-0.8,0.1h-0.9h-0.7c-0.1-0.3-0.1-0.6-0.1-0.8c0-0.5-0.1-1-0.1-1.7s0-1.4,0-2.2v-2.2c0-0.7,0-1.3,0-1.9
		s0-0.9,0-1.2s0-0.4,0-0.6c0-0.2,0-0.4,0.1-0.6c0.4-0.1,0.8-0.1,1.1-0.1h1.1h2.9c0.5,0,1,0,1.5,0.1c0.5,0.1,0.9,0.2,1.4,0.3
		c0.4,0.1,0.8,0.3,1.1,0.6c0.3,0.3,0.6,0.6,0.8,1c0.2,0.5,0.3,1,0.3,1.5c0,0.3,0,0.7-0.1,1c-0.1,0.3-0.2,0.5-0.4,0.8
		c-0.2,0.3-0.4,0.5-0.7,0.7c-0.3,0.2-0.6,0.4-0.9,0.6c0.1,0.3,0.2,0.6,0.4,0.9c0.2,0.3,0.3,0.6,0.5,0.8c0.2,0.2,0.4,0.4,0.6,0.6
		c0.2,0.1,0.4,0.2,0.6,0.2h0.3c0.2,0,0.3,0,0.5-0.1L215.5,46.3z"/>
	<path class="st0" d="M163.7,91.3h-0.1l-0.3,0.1h-0.4c-0.2,0-0.4,0-0.6,0.1c-0.2,0.1-0.4,0.2-0.6,0.3l-0.2,0.1
		c-0.1,0.1-0.2,0.1-0.4,0.2c-0.2,0.1-0.3,0.1-0.5,0.2l-0.3,0.2c-0.1,0.1-0.3,0.2-0.4,0.3h-0.1c-0.2,0.1-0.5,0.2-0.7,0.3
		c-0.3,0.1-0.6,0.1-0.9,0.1c-0.3,0-0.6-0.1-0.9-0.1h-0.2h-0.1l-0.2-0.1l-0.1-0.1l-0.4-0.3c-0.2-0.1-0.4-0.2-0.5-0.3l-0.2-0.1
		c-0.2-0.2-0.4-0.3-0.6-0.4l-0.3-0.2c-0.1,0-0.1-0.1-0.2-0.1c-0.1-0.1-0.2-0.1-0.4-0.1l-0.1-0.1c-0.1,0-0.2-0.1-0.3-0.1
		c-0.2-0.1-0.5-0.2-0.8-0.2c-0.3,0-0.6,0-0.9,0h-0.4c-0.3,0-0.6,0-0.9,0.1c-0.3,0-0.7,0.1-1,0.2c-0.2,0.1-0.4,0.2-0.6,0.3l-0.2,0.2
		l-0.2,0.1c-0.2,0.1-0.4,0.2-0.6,0.3c-0.1,0.1-0.3,0.2-0.5,0.2l-0.3,0.2l-0.2,0.1c-0.2,0.1-0.3,0.2-0.5,0.2h-0.1
		c-0.2,0.1-0.5,0.1-0.8,0.1c-0.3,0-0.6,0-0.9-0.1c-0.2-0.1-0.3-0.1-0.5-0.3l-0.2-0.2c-0.1-0.1-0.2-0.2-0.3-0.3l-0.3-0.2
		c-0.1-0.1-0.3-0.2-0.5-0.2l-0.4-0.2c-0.3-0.2-0.6-0.3-0.9-0.4c-0.3-0.1-0.7-0.2-1-0.2h-0.3c-0.2-0.1-0.5-0.1-0.7-0.1h-0.3
		c-0.3,0-0.5,0-0.8,0c-0.3,0.1-0.5,0.1-0.8,0.2h-0.1l-0.2,0.1c-0.2,0.1-0.5,0.2-0.7,0.3c-0.2,0.1-0.4,0.3-0.6,0.4l-0.1,0.1h-0.1l0,0
		c0,0.3,0.1,0.5,0.2,0.8l0.1,0.1c0.1,0.1,0.2,0.2,0.3,0.2c0.1,0,0.2,0,0.3-0.1l0.1-0.1l0.1-0.1c0.2-0.2,0.5-0.3,0.7-0.4
		c0.3-0.2,0.5-0.3,0.8-0.3c0.2,0,0.3,0,0.5,0h0.4c0.3,0,0.6,0,0.9,0.1c0.3,0.1,0.6,0.2,0.8,0.3c0.1,0.1,0.2,0.2,0.3,0.3
		c0.1,0.1,0.2,0.2,0.3,0.3s0.5,0.3,0.8,0.5l0,0c0.2,0.1,0.4,0.2,0.6,0.2c0.1,0,0.3,0.1,0.4,0.1l0.2,0.1c0.2,0.1,0.5,0.2,0.7,0.2
		c0.3,0.1,0.7,0.1,1,0.1c0.2,0,0.5,0,0.7-0.1h0.3h0.4c0.2,0,0.4,0,0.6-0.1c0.2-0.1,0.4-0.2,0.6-0.3c0.1-0.1,0.1-0.1,0.2-0.1
		c0.1-0.1,0.2-0.1,0.4-0.2c0.2-0.1,0.3-0.1,0.5-0.2l0.3-0.2c0.1-0.1,0.3-0.2,0.4-0.3h0.1c0.2-0.1,0.5-0.2,0.7-0.3
		c0.3-0.1,0.6-0.1,0.9-0.1c0.3,0,0.6,0.1,0.9,0.1h0.2h0.1h0.2c0,0,0.1,0.1,0.1,0.1l0.4,0.3c0.2,0.1,0.4,0.2,0.5,0.3l0.2,0.1
		c0.2,0.2,0.4,0.3,0.6,0.4s0.2,0.1,0.3,0.2c0.1,0.1,0.1,0.1,0.2,0.1c0.1,0.1,0.2,0.1,0.4,0.1L156,94c0.1,0,0.2,0.1,0.3,0.1
		c0.2,0.1,0.5,0.2,0.8,0.3c0.3,0,0.6,0,0.9,0h0.4c0.3,0,0.6,0,0.9,0c0.3,0,0.7-0.1,1-0.2c0.2-0.1,0.4-0.2,0.6-0.3
		c0.1-0.1,0.2-0.1,0.2-0.2l0.2-0.1c0.2-0.1,0.4-0.2,0.6-0.3c0.1-0.1,0.3-0.2,0.5-0.2c0.1,0,0.2-0.1,0.3-0.2c0.1,0,0.1-0.1,0.2-0.1
		c0.2-0.1,0.4-0.2,0.6-0.2h0.1l0.3-0.1c0.1,0,0.2-0.2,0.2-0.2c0,0,0-0.1,0-0.1c0-0.2,0.1-0.4,0-0.5S163.7,91.3,163.7,91.3"/>
	<path class="st0" d="M163.5,94.5c-0.1,0-0.2,0-0.2,0c-0.3,0-0.6,0.1-0.9,0.2c-0.2,0.1-0.4,0.2-0.5,0.3l-0.2,0.1l-0.2,0.1
		c-0.2,0.1-0.4,0.2-0.5,0.3c-0.2,0.1-0.4,0.3-0.7,0.4c-0.2,0.1-0.5,0.2-0.8,0.2h-0.2c-0.2,0.1-0.4,0.1-0.6,0.1c-0.2,0-0.4,0-0.6,0
		h-0.3h-0.1c-0.3,0-0.5,0-0.8-0.1c-0.2-0.1-0.4-0.1-0.6-0.2l-0.2-0.1l-0.2-0.1l-0.4-0.3c-0.1-0.1-0.3-0.1-0.4-0.2l-0.4-0.3l0,0l0,0
		c-0.1-0.1-0.3-0.1-0.4-0.1c-0.1-0.1-0.3-0.2-0.4-0.2c-0.3-0.1-0.7-0.2-1.1-0.2c-0.2,0-0.4,0-0.6,0c-0.2,0-0.3,0-0.5,0h-0.4
		c-0.2,0-0.4,0-0.6,0c-0.2,0-0.4,0.1-0.6,0.2c-0.1,0-0.2,0.1-0.3,0.1c-0.1,0-0.2,0.1-0.3,0.1c-0.2,0-0.4,0.1-0.6,0.2
		c-0.1,0.1-0.3,0.2-0.4,0.3c-0.1,0.1-0.1,0.1-0.2,0.2c-0.1,0.1-0.3,0.2-0.5,0.3l-0.2,0.1c-0.2,0.1-0.5,0.2-0.8,0.2h-0.1
		c-0.2,0.1-0.5,0.1-0.7,0.1c-0.3,0-0.6,0-0.9-0.1c-0.3-0.1-0.5-0.2-0.8-0.3l-0.4-0.2c-0.2-0.1-0.3-0.1-0.4-0.2
		c-0.1-0.1-0.2-0.1-0.3-0.2c-0.1-0.1-0.3-0.2-0.4-0.3c-0.3-0.1-0.5-0.3-0.8-0.3h-0.1l-0.2-0.1c-0.2-0.1-0.4-0.2-0.7-0.2
		c-0.3,0-0.7-0.1-1-0.1c-0.3,0-0.6,0-0.9,0.1h-0.1h-0.3c-0.2,0-0.5,0.1-0.7,0.1c-0.2,0.1-0.4,0.2-0.5,0.3c-0.1,0.1-0.2,0.1-0.2,0.2
		c-0.2,0.1-0.5,0.3-0.7,0.5c-0.1,0.3-0.1,0.6,0,0.9c0.2,0.3,0.6,0.3,0.9,0.1l0.1-0.1l0.1-0.1c0.1-0.1,0.2-0.2,0.3-0.3
		c0.1-0.1,0.2-0.2,0.3-0.3c0.3-0.1,0.5-0.3,0.8-0.3c0.3-0.1,0.6-0.1,0.9-0.1c0.3,0,0.6,0.1,0.9,0.1l0,0c0.3,0.1,0.6,0.2,0.8,0.3
		c0.2,0.1,0.5,0.3,0.7,0.5l0.3,0.2c0.1,0.1,0.3,0.2,0.4,0.3l0.2,0.1c0.2,0.1,0.4,0.3,0.7,0.3c0.2,0.1,0.4,0.1,0.6,0.1h0.4l0.3,0.1
		c0.2,0.1,0.4,0.1,0.7,0.2c0.3,0,0.7,0,1-0.1c0.2,0,0.4-0.1,0.6-0.2c0.1,0,0.2-0.1,0.2-0.1c0.1,0,0.2-0.1,0.3-0.1
		c0.2,0,0.4-0.1,0.6-0.2c0.1-0.1,0.3-0.2,0.4-0.3c0.1-0.1,0.1-0.1,0.2-0.2c0.1-0.1,0.3-0.2,0.4-0.2l0.3-0.1l0.2-0.1
		c0.2-0.1,0.3-0.2,0.5-0.2c0.1,0,0.3,0,0.4,0c0.2,0,0.3,0,0.5,0h0.4c0.2,0,0.4,0,0.6,0h0.2c0.2,0,0.5,0.1,0.7,0.2
		c0.2,0.1,0.4,0.2,0.5,0.3l0.2,0.2c0.1,0.1,0.2,0.1,0.4,0.2l0.2,0.1l0.2,0.1h0.1l0.4,0.2l0.2,0.1l0.6,0.2h0.1c0.2,0,0.5,0.1,0.7,0.1
		c0.2,0,0.3,0,0.5,0h0.4c0.3,0,0.5,0.1,0.8,0.1c0.3,0,0.6,0,0.9-0.1h0.1c0.3,0,0.6-0.1,0.9-0.2c0.2-0.1,0.4-0.2,0.6-0.3l0.2-0.1
		c0.1-0.1,0.2-0.1,0.4-0.2c0.2,0,0.3-0.1,0.5-0.2l0.1-0.1c0.2-0.1,0.4-0.3,0.6-0.4l0.1-0.1c0.2-0.1,0.4-0.2,0.6-0.2
		c0.1-0.2,0.4-0.4,0.4-0.5c0-0.3-0.1-0.6-0.2-0.8"/>
	<path class="st0" d="M164.1,88.9l-0.1-0.3c-0.1-0.2-0.1-0.3-0.2-0.5l-0.3-0.1h-0.2c-0.2,0-0.4,0.1-0.6,0.2l-0.2,0.1
		c-0.1,0-0.2,0.1-0.3,0.1c-0.2,0-0.4,0.1-0.6,0.2c-0.1,0.1-0.3,0.2-0.4,0.3c-0.1,0.1-0.1,0.2-0.2,0.2c-0.1,0.1-0.3,0.2-0.4,0.2
		l-0.3,0.1l-0.2,0.1c-0.2,0.1-0.3,0.2-0.5,0.2c-0.1,0-0.3,0-0.4,0c-0.2,0-0.3-0.1-0.5-0.1h-0.4c-0.2,0-0.4,0-0.6,0h-0.2
		c-0.2,0-0.5-0.1-0.7-0.2c-0.2-0.1-0.4-0.2-0.5-0.3l-0.2-0.2l-0.4-0.2l-0.2-0.1l-0.2-0.1h-0.1l-0.4-0.2l-0.3-0.2
		c-0.2-0.1-0.4-0.2-0.6-0.1c-0.2,0-0.4,0-0.7,0h-0.5h-0.4c-0.3,0-0.5-0.1-0.8-0.1c-0.3,0-0.6,0-0.9,0.1h-0.1c-0.3,0-0.6,0.1-0.9,0.2
		c-0.2,0.1-0.4,0.2-0.6,0.3c-0.1,0.1-0.1,0.1-0.2,0.1c-0.1,0.1-0.2,0.1-0.4,0.2c-0.2,0.1-0.3,0.1-0.5,0.2l-0.1,0.1
		c-0.2,0.1-0.4,0.2-0.6,0.4l-0.1,0.1c-0.2,0.1-0.4,0.2-0.6,0.2c-0.3,0-0.6,0.1-0.8,0.1c-0.3,0-0.5,0-0.8-0.1
		c-0.3-0.1-0.5-0.1-0.7-0.3c-0.1-0.1-0.2-0.1-0.4-0.2c-0.1,0-0.3-0.1-0.4-0.2c-0.1-0.1-0.2-0.1-0.2-0.2c-0.1-0.1-0.3-0.2-0.4-0.3
		l-0.2-0.2c-0.2-0.1-0.3-0.2-0.5-0.3c-0.2-0.1-0.4-0.1-0.6-0.1h-0.3c-0.3,0-0.7-0.1-1-0.1h-0.4c-0.2,0-0.5,0-0.7,0
		c-0.3,0-0.6,0.1-0.8,0.2l-0.2,0.1c-0.2,0.1-0.5,0.2-0.7,0.3l-0.2,0.1l0,0c-0.3,0.1-0.5,0.3-0.8,0.4c0,0,0,0.1,0,0.1
		c0,0.2,0.1,0.3,0.2,0.5l0,0l0,0c0,0.1,0.1,0.1,0.1,0.2c0.1,0,0.1,0.1,0.2,0.1c0.2,0.1,0.4,0,0.6-0.1c0.2-0.1,0.5-0.2,0.7-0.3
		l0.2-0.1c0.3-0.1,0.7-0.2,1-0.2c0.1,0,0.3,0,0.4-0.1c0.2-0.1,0.4-0.1,0.7-0.1c0.2,0,0.5,0,0.7,0.1h0.1c0.3,0,0.5,0.1,0.8,0.3
		c0.1,0.1,0.3,0.2,0.4,0.3l0.2,0.2c0.1,0.1,0.3,0.2,0.4,0.2l0.3,0.2c0.1,0.1,0.1,0.1,0.2,0.2c0.1,0.1,0.3,0.2,0.5,0.3
		c0.2,0.1,0.4,0.1,0.6,0.1c0.1,0,0.2,0,0.4,0c0.3,0,0.7,0.1,1,0.1h0.4c0.2,0,0.4,0,0.6,0c0.3,0,0.6-0.1,0.9-0.2
		c0.2-0.1,0.4-0.2,0.5-0.3c0.1-0.1,0.1-0.1,0.2-0.1l0.2-0.1c0.2-0.1,0.4-0.2,0.5-0.3c0.2-0.1,0.4-0.3,0.7-0.4
		c0.2-0.1,0.5-0.2,0.7-0.2l0.2-0.1c0.2-0.1,0.4-0.1,0.6-0.1c0.2,0,0.4,0,0.6,0h0.3h0.1c0.3,0,0.5,0.1,0.8,0.1
		c0.2,0.1,0.4,0.1,0.6,0.2l0.2,0.1l0.2,0.1c0.1,0.1,0.3,0.2,0.4,0.3c0.1,0.1,0.3,0.1,0.4,0.2l0.4,0.3h0.1l0,0
		c0.1,0.1,0.3,0.1,0.4,0.1c0.1,0.1,0.3,0.2,0.4,0.2c0.3,0.1,0.7,0.2,1.1,0.2c0.2,0,0.4,0,0.6,0c0.2,0,0.3,0,0.5-0.1
		c0.1,0,0.3,0,0.4,0.1h0.1c0.5-0.1,1-0.2,1.5-0.4c0.3-0.1,0.6-0.2,0.9-0.3l0.2-0.2L162,90c0.1-0.1,0.3-0.2,0.5-0.2l0.2-0.1
		c0.2-0.1,0.5-0.2,0.8-0.2h0.1h0.1C163.9,89.3,164,89.1,164.1,88.9L164.1,88.9"/>
	<rect x="171.5" y="91.7" class="st0" width="70.7" height="1"/>
	<rect x="57.8" y="91.7" class="st0" width="69.9" height="1"/>
	<path class="st0" d="M52.1,69.3c0-1.2,0.1-2.3,0.4-3.4c0.3-1,0.7-2,1.3-2.9c0.6-0.8,1.4-1.5,2.2-2c1-0.5,2.1-0.8,3.2-0.8
		c0.6,0,1.2,0.1,1.9,0.2c0.6,0.1,1.2,0.3,1.8,0.6c0.6,0.3,1.1,0.6,1.5,1c0.5,0.4,0.8,0.9,1.1,1.5c-0.2,0.3-0.5,0.5-0.7,0.8
		c-0.3,0.2-0.5,0.4-0.8,0.6c-0.3,0.2-0.5,0.3-0.7,0.4c-0.2,0.1-0.4,0.2-0.6,0.4c-0.2-0.6-0.7-1.1-1.3-1.4c-0.5-0.3-1.1-0.4-1.7-0.4
		c-0.6,0-1.2,0.1-1.8,0.4c-0.5,0.3-0.9,0.6-1.1,1.1c-0.3,0.5-0.5,1.1-0.6,1.7c-0.1,0.7-0.2,1.4-0.2,2.1c0,0.5,0,1.1,0.1,1.7
		c0.1,0.6,0.2,1.1,0.5,1.7c0.2,0.5,0.6,0.9,1.1,1.2c0.9,0.5,2,0.6,3,0.3c0.3-0.1,0.6-0.3,0.8-0.5c0.3-0.2,0.5-0.5,0.7-0.8
		c0.2-0.3,0.5-0.7,0.8-1.1c0.5,0,1,0.2,1.5,0.4c0.5,0.3,1,0.5,1.4,0.8c-0.2,0.7-0.5,1.3-0.8,1.9c-0.4,0.6-0.8,1.1-1.4,1.6
		c-0.6,0.4-1.2,0.8-1.9,1c-0.8,0.3-1.6,0.4-2.5,0.4c-1.1,0-2.1-0.2-3.1-0.6c-0.9-0.4-1.6-0.9-2.2-1.7c-0.6-0.8-1.1-1.7-1.4-2.7
		C52.3,71.6,52.1,70.5,52.1,69.3z"/>
	<path class="st0" d="M81.4,77.9c-1.2,0-2.4-0.2-3.4-0.7c-0.9-0.5-1.7-1.2-2.3-2c-0.6-0.9-1.1-1.9-1.3-2.9c-0.3-1.1-0.4-2.3-0.4-3.4
		c0-1,0.2-2,0.4-3c0.3-1,0.7-1.9,1.3-2.8c0.6-0.8,1.3-1.5,2.2-2c0.9-0.5,1.9-0.8,3-0.8c1.1,0,2.3,0.2,3.3,0.7
		c0.9,0.4,1.7,1.1,2.4,1.9c0.7,0.8,1.1,1.8,1.4,2.8c0.3,1.1,0.5,2.2,0.4,3.4c0,1.1-0.2,2.1-0.4,3.1c-0.3,1-0.7,2-1.3,2.9
		c-0.6,0.8-1.3,1.6-2.2,2.1C83.6,77.6,82.5,77.9,81.4,77.9z M81.2,74.3c0.6,0,1.3-0.2,1.8-0.5c0.5-0.3,0.9-0.8,1.2-1.3
		c0.3-0.5,0.5-1.1,0.6-1.7c0.1-0.6,0.2-1.2,0.2-1.9c0-0.6-0.1-1.2-0.2-1.8c-0.1-0.6-0.3-1.2-0.6-1.7c-0.3-0.5-0.6-0.9-1.1-1.3
		c-0.5-0.3-1.2-0.5-1.8-0.5c-0.7,0-1.4,0.2-2,0.6c-0.5,0.4-0.9,0.9-1.2,1.5c-0.3,0.6-0.5,1.3-0.6,2c-0.1,0.7-0.1,1.4-0.1,2.1
		c0,0.5,0.1,1.1,0.2,1.6c0.1,0.5,0.4,1,0.7,1.4c0.3,0.4,0.7,0.8,1.2,1C80.1,74.2,80.6,74.3,81.2,74.3z"/>
	<path class="st0" d="M97.8,60.6l1.1-0.1h1.1c0.4,0,0.7,0,1.1,0.1c0.1,1.5,0.2,3.1,0.2,4.6V72c0,0.7,0,1.4,0,2.2c1.2,0,2.3,0,3.4,0
		c1.1,0,2.3,0,3.4,0.1c0.1,0.4,0.1,0.8,0.1,1.2c0,0.5,0,0.8,0,1.2c0,0.3,0,0.6-0.1,0.8c-0.5,0-1,0.1-1.5,0.1h-4.4
		c-1.5,0-3-0.1-4.5-0.2c-0.1-1.2-0.2-2.5-0.2-3.8c0-1.3,0-2.5,0-3.8s0-2.6,0.1-3.8s0-2.5,0-3.8L97.8,60.6z"/>
	<path class="st0" d="M116.8,60.6l1.1-0.1h1.1c0.4,0,0.7,0,1.1,0.1c0.1,1.5,0.2,3.1,0.2,4.6V72c0,0.7,0,1.4,0,2.2c1.2,0,2.3,0,3.4,0
		c1.1,0,2.3,0,3.4,0.1c0.1,0.4,0.1,0.8,0.1,1.2c0,0.5,0,0.8,0,1.2c0,0.3,0,0.6-0.1,0.8c-0.5,0-1,0.1-1.5,0.1h-4.4
		c-1.5,0-3-0.1-4.4-0.2c-0.1-1.2-0.2-2.5-0.2-3.8s0-2.5,0-3.8s0-2.6,0.1-3.8s0-2.5,0-3.8L116.8,60.6z"/>
	<path class="st0" d="M142.7,77.6c-1.1,0-2.3,0-3.5,0.1c-1.1,0.1-2.3,0-3.4-0.2c-0.1-1.2-0.2-2.3-0.2-3.5c0-1.3,0-2.5,0-3.8
		c0-1.3,0-2.6,0.1-3.9c0-1.3,0.1-2.5,0.1-3.6v-2l1-0.1h8.7l1.2,0c0.1,0.5,0.1,1,0.1,1.5v0.7c0,0.2,0,0.5-0.1,0.7l-0.7,0.1
		c-0.2,0-0.5,0-0.7,0c-1,0-2,0-3,0c-1,0-2,0-3,0.2c0,0.2-0.1,0.3-0.1,0.5v0.5v2.5c0.9,0.1,1.7,0.1,2.6,0.1c0.9,0,1.8-0.1,2.9-0.1
		c1.6,0,0.1,0.1,0.1,0.2l0.1,0.4l-0.1,2.1c0,0.1-0.1,0.2-0.1,0.2c-0.1,0-0.2,0.1-0.3,0.1c-0.1,0-0.3,0-0.4,0h-2.5
		c-0.7,0-1.4,0-2.1,0l-0.1,1.4V74c0.4,0.2,0.9,0.3,1.4,0.3c0.7,0,1.3,0,2,0l2.1-0.1c0.6,0,1.2,0,1.8,0c0,0.3,0.1,0.6,0.1,0.8
		c0,0.3,0,0.6,0,0.8c0,0.3,0,0.5-0.1,0.8c0,0.3-0.1,0.5-0.1,0.8L142.7,77.6z"/>
	<path class="st0" d="M155,69.3c0-1.2,0.1-2.3,0.4-3.4c0.3-1,0.7-2,1.3-2.9c0.6-0.8,1.3-1.5,2.2-2c1-0.5,2.1-0.8,3.2-0.8
		c0.6,0,1.2,0.1,1.9,0.2c0.6,0.1,1.2,0.3,1.8,0.6c0.6,0.3,1.1,0.6,1.5,1c0.5,0.4,0.8,0.9,1.1,1.5c-0.2,0.3-0.5,0.5-0.7,0.8
		c-0.3,0.2-0.5,0.4-0.8,0.6c-0.3,0.2-0.5,0.3-0.8,0.4c-0.2,0.1-0.4,0.2-0.6,0.4c-0.2-0.6-0.7-1.1-1.3-1.4c-0.5-0.3-1.1-0.4-1.7-0.4
		c-0.6,0-1.2,0.1-1.8,0.4c-0.5,0.3-0.9,0.6-1.1,1.1c-0.3,0.5-0.5,1.1-0.6,1.7c-0.1,0.7-0.2,1.4-0.2,2.1c0,0.5,0,1.1,0.1,1.7
		c0.1,0.6,0.2,1.1,0.5,1.7c0.2,0.5,0.6,0.9,1.1,1.2c0.9,0.5,2,0.6,3,0.3c0.3-0.1,0.6-0.3,0.8-0.5c0.3-0.2,0.5-0.5,0.7-0.8
		c0.2-0.3,0.5-0.7,0.8-1.1c0.5,0,1,0.2,1.5,0.4c0.5,0.3,1,0.5,1.4,0.8c-0.2,0.7-0.5,1.3-0.8,1.9c-0.4,0.6-0.8,1.1-1.4,1.6
		c-0.6,0.4-1.2,0.8-1.9,1c-0.8,0.3-1.6,0.4-2.5,0.4c-1.1,0-2.1-0.2-3.1-0.6c-0.9-0.4-1.6-1-2.3-1.8c-0.6-0.8-1.1-1.7-1.4-2.7
		C155.1,71.6,155,70.5,155,69.3z"/>
	<path class="st0" d="M180.7,77.6c0-0.5-0.1-0.9-0.1-1.4c0-2,0-4,0-6.1c0-2,0-4-0.2-6.1c-0.7,0-1.4,0-2.1-0.1s-1.4,0-2.1-0.1
		c0-0.4-0.1-0.8-0.1-1.1s0-0.7,0-1.1c0-0.2,0-0.4,0-0.5c0-0.2,0-0.3,0.1-0.5c1.4-0.1,2.9-0.1,4.3-0.1h4.3c0.6,0,1.2,0,1.8,0
		s1.2,0.1,1.8,0.2c0.1,0.4,0.2,0.8,0.2,1.2c0,0.4,0,0.8,0,1.2l-0.1,0.8h-1.1c-0.6,0-1.2,0-1.7,0c-0.6,0-1.1,0.1-1.7,0.2
		c-0.1,1.1-0.1,2.2-0.1,3.4l0.1,3.4c0,1.1,0.1,2.3,0.1,3.4c0,1.1-0.1,2.2-0.2,3.4c-0.4,0.1-0.8,0.1-1.1,0.1h-1.1L180.7,77.6z"/>
	<path class="st0" d="M200.4,77.6h-2.6h-0.3h-0.3c0-0.4-0.1-0.7-0.1-1.1s0-0.7,0-1.1V63c0-0.4,0-0.8,0-1.2c0-0.4,0-0.8,0.1-1.2
		l0.9-0.1h0.9h1.6h0.2l0.1,0c0,2.8,0,5.6,0,8.5s0,5.7-0.1,8.4L200.4,77.6z"/>
	<path class="st0" d="M217.6,77.9c-1.2,0-2.4-0.2-3.4-0.7c-0.9-0.5-1.7-1.2-2.3-2c-0.6-0.9-1.1-1.9-1.3-2.9
		c-0.3-1.1-0.4-2.3-0.4-3.4c0-1,0.2-2,0.5-3c0.3-1,0.7-1.9,1.3-2.8c0.6-0.8,1.3-1.5,2.2-2c0.9-0.5,1.9-0.8,3-0.8
		c1.1,0,2.3,0.2,3.3,0.7c0.9,0.4,1.7,1.1,2.4,1.9c0.6,0.8,1.1,1.7,1.4,2.7c0.3,1.1,0.5,2.2,0.5,3.3c0,1.1-0.1,2.1-0.4,3.2
		c-0.3,1-0.7,2-1.3,2.9c-0.6,0.8-1.3,1.6-2.2,2.1C219.8,77.6,218.7,77.9,217.6,77.9z M217.4,74.3c0.6,0,1.3-0.2,1.8-0.5
		c0.5-0.3,0.9-0.8,1.2-1.3c0.3-0.5,0.5-1.1,0.6-1.7c0.1-0.6,0.2-1.2,0.2-1.9c0-0.6-0.1-1.2-0.1-1.8c-0.1-0.6-0.3-1.2-0.6-1.7
		c-0.3-0.5-0.6-0.9-1.1-1.3c-0.5-0.3-1.2-0.5-1.8-0.5c-0.7,0-1.4,0.2-2,0.6c-0.5,0.4-0.9,0.9-1.2,1.5c-0.3,0.6-0.5,1.3-0.6,2
		c-0.1,0.7-0.1,1.4-0.1,2.1c0,0.5,0.1,1.1,0.2,1.6c0.2,0.5,0.4,1,0.7,1.4c0.3,0.4,0.7,0.8,1.2,1C216.3,74.2,216.8,74.3,217.4,74.3
		L217.4,74.3z"/>
	<path class="st0" d="M246.2,77.6c-0.7,0-1.3,0-1.9,0c-0.6,0-1.3-0.1-1.9-0.2c-0.5-1-1-1.9-1.4-2.8s-0.9-1.9-1.3-2.8
		s-0.8-1.9-1.1-2.9c-0.3-1-0.6-2-0.9-3h-0.1V69c0,1.4,0,2.9,0.1,4.3c0.1,1.4,0,2.9-0.1,4.3c-0.3,0-0.5,0.1-0.8,0.1h-2.4h-0.4
		c0-0.7-0.1-1.4-0.1-2.1s0-1.4,0-2.1v-7.7c0-0.9,0-1.7,0-2.6s0-1.7,0.1-2.6h1.5h1.8c0.3,0,0.6,0,0.9,0.1l0.9,0.1c0.4,1,0.9,2,1.3,3
		c0.5,1,0.9,2,1.4,3s0.9,2,1.3,3.1s0.8,2,1.1,3.1h0.2c0-0.6,0-1.2,0-1.8s0-1.2,0-1.8c0-1.5,0-2.9-0.1-4.4s0-2.9,0-4.4
		c0.3-0.1,0.6-0.1,0.8-0.1h0.9h0.9c0.3,0,0.6,0,0.9,0.1c0.1,1.1,0.2,2.2,0.2,3.4s0,2.3,0,3.4s0,2.3,0,3.4s0,2.3,0,3.4v1.6
		c0,0.6,0,1.1,0,1.6L246.2,77.6z"/>
</g>
</svg>
