<?xml version="1.0" encoding="utf-8"?>
<!-- Generator: Adobe Illustrator 24.2.3, SVG Export Plug-In . SVG Version: 6.00 Build 0)  -->
<svg version="1.1" id="Layer_1" xmlns="http://www.w3.org/2000/svg" xmlns:xlink="http://www.w3.org/1999/xlink" x="0px" y="0px"
	 viewBox="0 0 300 600" style="enable-background:new 0 0 300 600;" xml:space="preserve">
<style type="text/css">
	.st0{enable-background:new    ;}
	.st1{fill:#FFFFFF;}
</style>
<g class="st0">
	<path class="st1" d="M194.1,540.3c0-1.3,0.1-2.7,0.4-4c0.2-1.4,0.7-2.6,1.3-3.7s1.5-2,2.5-2.7s2.4-1,4.1-1c1.7,0,3,0.3,4.1,1
		s1.9,1.6,2.5,2.7c0.6,1.1,1,2.3,1.3,3.7c0.2,1.4,0.4,2.7,0.4,4s-0.1,2.7-0.4,4c-0.2,1.4-0.7,2.6-1.3,3.7c-0.6,1.1-1.5,2-2.5,2.7
		c-1.1,0.7-2.4,1-4.1,1c-1.6,0-3-0.3-4.1-1c-1.1-0.7-1.9-1.6-2.5-2.7c-0.6-1.1-1-2.3-1.3-3.7C194.3,543,194.1,541.6,194.1,540.3z
		 M198.8,540.3c0,0.6,0,1.3,0.1,2.1c0.1,0.8,0.2,1.6,0.4,2.4c0.2,0.8,0.6,1.4,1,1.9c0.5,0.5,1.1,0.8,2,0.8c0.8,0,1.5-0.3,2-0.8
		c0.5-0.5,0.8-1.2,1.1-1.9c0.2-0.8,0.4-1.5,0.4-2.4c0.1-0.8,0.1-1.5,0.1-2.1s0-1.3-0.1-2.1c-0.1-0.8-0.2-1.6-0.4-2.4
		c-0.2-0.8-0.6-1.4-1.1-1.9c-0.5-0.5-1.1-0.8-2-0.8c-0.9,0-1.5,0.3-2,0.8c-0.5,0.5-0.8,1.2-1,1.9c-0.2,0.8-0.4,1.5-0.4,2.4
		C198.9,539,198.8,539.7,198.8,540.3z"/>
</g>
</svg>
