<?xml version="1.0" encoding="utf-8"?>
<!-- Generator: Adobe Illustrator 24.2.3, SVG Export Plug-In . SVG Version: 6.00 Build 0)  -->
<svg version="1.1" id="Layer_1" xmlns="http://www.w3.org/2000/svg" xmlns:xlink="http://www.w3.org/1999/xlink" x="0px" y="0px"
	 viewBox="0 0 300 600" style="enable-background:new 0 0 300 600;" xml:space="preserve">
<style type="text/css">
	.st0{enable-background:new    ;}
	.st1{fill:#FFFFFF;}
</style>
<g class="st0">
	<path class="st1" d="M202.1,534.5l-4.4,3.9l-2.7-3.1l7.2-6.1h4.4v22.2h-4.5V534.5z"/>
	<path class="st1" d="M212.7,540.3c0-1.3,0.1-2.7,0.4-4c0.2-1.4,0.7-2.6,1.3-3.7c0.6-1.1,1.5-2,2.5-2.7c1.1-0.7,2.4-1,4.1-1
		c1.6,0,3,0.3,4.1,1c1.1,0.7,1.9,1.6,2.5,2.7s1,2.3,1.3,3.7c0.2,1.4,0.4,2.7,0.4,4s-0.1,2.7-0.4,4c-0.2,1.4-0.7,2.6-1.3,3.7
		c-0.6,1.1-1.5,2-2.5,2.7c-1.1,0.7-2.4,1-4.1,1c-1.7,0-3-0.3-4.1-1c-1.1-0.7-1.9-1.6-2.5-2.7c-0.6-1.1-1-2.3-1.3-3.7
		C212.8,543,212.7,541.6,212.7,540.3z M217.4,540.3c0,0.6,0,1.3,0.1,2.1c0.1,0.8,0.2,1.6,0.4,2.4c0.2,0.8,0.6,1.4,1,1.9
		c0.5,0.5,1.1,0.8,2,0.8c0.8,0,1.5-0.3,2-0.8c0.5-0.5,0.8-1.2,1.1-1.9c0.2-0.8,0.4-1.5,0.4-2.4c0.1-0.8,0.1-1.5,0.1-2.1
		s0-1.3-0.1-2.1c-0.1-0.8-0.2-1.6-0.4-2.4c-0.2-0.8-0.6-1.4-1.1-1.9c-0.5-0.5-1.1-0.8-2-0.8c-0.9,0-1.5,0.3-2,0.8
		c-0.5,0.5-0.8,1.2-1,1.9c-0.2,0.8-0.4,1.5-0.4,2.4C217.4,539,217.4,539.7,217.4,540.3z"/>
	<path class="st1" d="M231.2,540.3c0-1.3,0.1-2.7,0.4-4c0.2-1.4,0.7-2.6,1.3-3.7c0.6-1.1,1.5-2,2.5-2.7c1.1-0.7,2.4-1,4.1-1
		c1.6,0,3,0.3,4.1,1c1.1,0.7,1.9,1.6,2.5,2.7s1,2.3,1.3,3.7c0.2,1.4,0.4,2.7,0.4,4s-0.1,2.7-0.4,4c-0.2,1.4-0.7,2.6-1.3,3.7
		c-0.6,1.1-1.5,2-2.5,2.7c-1.1,0.7-2.4,1-4.1,1c-1.7,0-3-0.3-4.1-1c-1.1-0.7-1.9-1.6-2.5-2.7c-0.6-1.1-1-2.3-1.3-3.7
		C231.3,543,231.2,541.6,231.2,540.3z M235.9,540.3c0,0.6,0,1.3,0.1,2.1c0.1,0.8,0.2,1.6,0.4,2.4c0.2,0.8,0.6,1.4,1,1.9
		c0.5,0.5,1.1,0.8,2,0.8c0.8,0,1.5-0.3,2-0.8c0.5-0.5,0.8-1.2,1.1-1.9c0.2-0.8,0.4-1.5,0.4-2.4c0.1-0.8,0.1-1.5,0.1-2.1
		s0-1.3-0.1-2.1c-0.1-0.8-0.2-1.6-0.4-2.4c-0.2-0.8-0.6-1.4-1.1-1.9c-0.5-0.5-1.1-0.8-2-0.8c-0.9,0-1.5,0.3-2,0.8
		c-0.5,0.5-0.8,1.2-1,1.9c-0.2,0.8-0.4,1.5-0.4,2.4C236,539,235.9,539.7,235.9,540.3z"/>
</g>
</svg>
