<svg id="Layer_1" data-name="Layer 1" xmlns="http://www.w3.org/2000/svg" xmlns:xlink="http://www.w3.org/1999/xlink" viewBox="0 0 300 600"><defs><style>.cls-1{fill:none;}.cls-2{clip-path:url(#clip-path);}.cls-3{fill:#fff;}</style><clipPath id="clip-path"><rect class="cls-1" width="300" height="600"/></clipPath></defs><g class="cls-2"><path class="cls-3" d="M94.9,235.89H87.24c-1.59,0-2.15-1.07-2.15-2.49s.56-2.54,2.15-2.54h20.9c1.55,0,2.15,1.12,2.15,2.54s-.6,2.49-2.15,2.49h-7.65v21c0,1.63-1.29,2.27-2.8,2.27s-2.79-.64-2.79-2.27Z"/><path class="cls-3" d="M128.65,256.23a2.08,2.08,0,0,1-1.81,2.37,32,32,0,0,1-7,.64c-7.7,0-10.2-1.89-10.2-8.13v-5.59c0-6.58,2.8-8.21,10-8.21,7.06,0,9.33,1.81,9.33,8.08v2.46c0,1.84-.68,2.49-2.27,2.49H115v1.07c0,2.24,1.54,3.1,4.64,3.1,2.32,0,5.2-.39,6.79-.39S128.65,254.6,128.65,256.23ZM115,246.08h8.77v-.94c0-2.54-1-3.19-4.39-3.19-3.22,0-4.38.56-4.38,3.19Z"/><path class="cls-3" d="M148.56,249.91V239.63c0-1.59,1.16-2.23,2.62-2.23s2.67.64,2.67,2.23v10.54c0,8-2,9.07-9.72,9.07s-9.67-1.07-9.67-9.07V239.63c0-1.59,1.16-2.23,2.66-2.23s2.67.64,2.67,2.23v10.28c0,3.91.38,4.56,4.34,4.56S148.56,253.82,148.56,249.91Z"/><path class="cls-3" d="M168.6,242.26c-2.89,0-3.44.38-3.44,3.26v11.4c0,1.59-1.16,2.23-2.63,2.23s-2.71-.64-2.71-2.23V245.09c0-6.58,2.11-7.78,8.86-7.78,4.39,0,5.51,1,5.51,2.67a2.21,2.21,0,0,1-2.33,2.45C171,242.43,170.23,242.26,168.6,242.26Z"/><path class="cls-3" d="M195.21,256.23a2.07,2.07,0,0,1-1.8,2.37,32.15,32.15,0,0,1-7,.64c-7.7,0-10.19-1.89-10.19-8.13v-5.59c0-6.58,2.79-8.21,10-8.21,7.05,0,9.33,1.81,9.33,8.08v2.46c0,1.84-.69,2.49-2.28,2.49H181.54v1.07c0,2.24,1.55,3.1,4.64,3.1,2.32,0,5.21-.39,6.8-.39S195.21,254.6,195.21,256.23Zm-13.67-10.15h8.77v-.94c0-2.54-.94-3.19-4.39-3.19-3.22,0-4.38.56-4.38,3.19Z"/><path class="cls-3" d="M209.83,242.26c-2.88,0-3.44.38-3.44,3.26v11.4c0,1.59-1.16,2.23-2.62,2.23s-2.71-.64-2.71-2.23V245.09c0-6.58,2.11-7.78,8.86-7.78,4.38,0,5.5,1,5.5,2.67a2.2,2.2,0,0,1-2.32,2.45C212.24,242.43,211.47,242.26,209.83,242.26Z"/><path class="cls-3" d="M82.55,310.24c-5,0-10.14-.6-10.14-3.49a2.31,2.31,0,0,1,2.19-2.58c2.15,0,5.63.87,8,.87,4.22,0,6.41-1,6.41-3.57,0-6.28-16.34,1-16.34-11.74,0-5.68,3.57-8.3,11.83-8.3,5,0,9,.64,9,3.14a2.33,2.33,0,0,1-2.41,2.49c-2.07,0-4.86-.6-7-.6-4,0-5.85,1.2-5.85,3.22,0,6.45,16.3-.73,16.3,11.4C94.47,307.1,91.15,310.24,82.55,310.24Z"/><path class="cls-3" d="M118.46,307.23a2.07,2.07,0,0,1-1.81,2.36,31.21,31.21,0,0,1-7,.65c-7.69,0-10.19-1.89-10.19-8.13v-5.59c0-6.58,2.8-8.21,10-8.21,7,0,9.33,1.8,9.33,8.08v2.45c0,1.85-.68,2.5-2.28,2.5H104.79v1.07c0,2.24,1.54,3.1,4.64,3.1,2.32,0,5.2-.39,6.79-.39S118.46,305.59,118.46,307.23Zm-13.67-10.15h8.77v-.95c0-2.53-1-3.18-4.39-3.18-3.22,0-4.38.56-4.38,3.18Z"/><path class="cls-3" d="M133.08,293.25c-2.88,0-3.44.39-3.44,3.27v11.4c0,1.59-1.16,2.23-2.62,2.23s-2.71-.64-2.71-2.23V296.09c0-6.58,2.1-7.78,8.85-7.78,4.39,0,5.51,1,5.51,2.66a2.2,2.2,0,0,1-2.32,2.45C135.49,293.42,134.71,293.25,133.08,293.25Z"/><path class="cls-3" d="M150.84,303.31l5.24-12.89c1.38-3.4,6.88-2.28,5.12,1.67l-6.88,15.35c-.9,2-2.06,2.8-3.7,2.8a4.08,4.08,0,0,1-3.91-2.8l-6.62-15.35c-1.64-3.82,3.78-5.16,5.11-1.72l5,12.94Z"/><path class="cls-3" d="M167.91,280.57a3.06,3.06,0,0,1,3.05,3.05,3,3,0,0,1-3.05,3,3,3,0,0,1-3-3A3,3,0,0,1,167.91,280.57Zm2.66,27.35c0,1.59-1.2,2.23-2.66,2.23s-2.67-.64-2.67-2.23V290.67c0-1.59,1.21-2.28,2.67-2.28s2.66.69,2.66,2.28Z"/><path class="cls-3" d="M181.67,296.48v5.67c0,1.9.81,3.19,4.25,3.19,2.16,0,3.36-.43,5.08-.43,1.55,0,2.11.94,2.11,2.36a2.24,2.24,0,0,1-1.85,2.41,21.84,21.84,0,0,1-5.55.56c-7.31,0-9.37-2.58-9.37-7.87v-6c0-6.15,2.36-8,9.71-8,6.58,0,7.06,1.07,7.06,3,0,1.37-.48,2.23-2,2.23s-2.79-.38-5.16-.38C182.61,293.17,181.67,294.2,181.67,296.48Z"/><path class="cls-3" d="M214.91,307.23a2.07,2.07,0,0,1-1.81,2.36,31.21,31.21,0,0,1-7,.65c-7.7,0-10.19-1.89-10.19-8.13v-5.59c0-6.58,2.8-8.21,10-8.21,7.05,0,9.33,1.8,9.33,8.08v2.45c0,1.85-.69,2.5-2.28,2.5H201.23v1.07c0,2.24,1.55,3.1,4.65,3.1,2.32,0,5.2-.39,6.79-.39S214.91,305.59,214.91,307.23Zm-13.68-10.15H210v-.95c0-2.53-.94-3.18-4.38-3.18-3.23,0-4.39.56-4.39,3.18Z"/><path class="cls-3" d="M223.81,303.49a3.32,3.32,0,0,1,3.31,3.35,3.23,3.23,0,0,1-3.31,3.31,3.17,3.17,0,0,1-3.27-3.31A3.26,3.26,0,0,1,223.81,303.49Zm2.19-3.74a2,2,0,0,1-2.19,1.8,1.94,1.94,0,0,1-2.11-1.8l-1.08-15.61c-.12-1.81,1.6-2.71,3.32-2.71s3.26.86,3.14,2.71Z"/></g></svg>