<svg id="Layer_1" data-name="Layer 1" xmlns="http://www.w3.org/2000/svg" xmlns:xlink="http://www.w3.org/1999/xlink" viewBox="0 0 300 600"><defs><style>.cls-1{fill:none;}.cls-2{clip-path:url(#clip-path);}.cls-3{fill:#fff;}</style><clipPath id="clip-path"><rect class="cls-1" width="300" height="600"/></clipPath></defs><g class="cls-2"><path class="cls-3" d="M39.34,233.18l11.14,18h.17V232.84c0-1.59,1.16-2.32,2.62-2.32s2.58.73,2.58,2.32v21.84c0,3.27-2.06,4.56-3.82,4.56-2.5,0-3.53-1.33-4.43-2.75l-11.23-18h-.08v18.36c0,1.59-1.21,2.32-2.67,2.32S31,258.42,31,256.83V235c0-3.27,2-4.52,3.79-4.52A4.82,4.82,0,0,1,39.34,233.18Z"/><path class="cls-3" d="M81.05,256.23a2.08,2.08,0,0,1-1.81,2.37,32,32,0,0,1-7,.64c-7.7,0-10.2-1.89-10.2-8.13v-5.59c0-6.58,2.8-8.21,10-8.21,7.06,0,9.33,1.81,9.33,8.08v2.46c0,1.84-.68,2.49-2.27,2.49H67.38v1.07c0,2.24,1.54,3.1,4.64,3.1,2.32,0,5.2-.39,6.79-.39S81.05,254.6,81.05,256.23ZM67.38,246.08h8.77v-.94c0-2.54-1-3.19-4.39-3.19-3.22,0-4.38.56-4.38,3.19Z"/><path class="cls-3" d="M101,249.91V239.63c0-1.59,1.16-2.23,2.62-2.23s2.67.64,2.67,2.23v10.54c0,8-2,9.07-9.72,9.07s-9.68-1.07-9.68-9.07V239.63c0-1.59,1.17-2.23,2.67-2.23s2.67.64,2.67,2.23v10.28c0,3.91.38,4.56,4.34,4.56S101,253.82,101,249.91Z"/><path class="cls-3" d="M131,256.23a2.07,2.07,0,0,1-1.8,2.37,32.15,32.15,0,0,1-7,.64c-7.7,0-10.19-1.89-10.19-8.13v-5.59c0-6.58,2.79-8.21,10-8.21,7,0,9.33,1.81,9.33,8.08v2.46c0,1.84-.69,2.49-2.28,2.49H117.3v1.07c0,2.24,1.55,3.1,4.64,3.1,2.32,0,5.21-.39,6.8-.39S131,254.6,131,256.23ZM117.3,246.08h8.77v-.94c0-2.54-.95-3.19-4.39-3.19-3.22,0-4.38.56-4.38,3.19Z"/><path class="cls-3" d="M163.48,247.72l6.58,6.53c3,3-1.08,6.84-4,3.7l-8.51-9.07c-2.46-2.63-1.21-5.46,1.33-5.46h1.89c2.67,0,3.61-1.16,3.61-4s-.94-3.57-3.65-3.57h-7.87v21c0,1.63-1.29,2.27-2.8,2.27s-2.79-.64-2.79-2.27v-23.7c0-1.55,1-2.32,2.58-2.32h10.92c6.67,0,9.2,1.89,9.2,8.56,0,4.73-1.2,7.14-6.49,8.17Z"/><path class="cls-3" d="M193.75,256.23a2.07,2.07,0,0,1-1.8,2.37,32.15,32.15,0,0,1-7,.64c-7.7,0-10.19-1.89-10.19-8.13v-5.59c0-6.58,2.79-8.21,10-8.21,7.06,0,9.34,1.81,9.34,8.08v2.46c0,1.84-.69,2.49-2.28,2.49H180.08v1.07c0,2.24,1.55,3.1,4.64,3.1,2.32,0,5.2-.39,6.8-.39S193.75,254.6,193.75,256.23Zm-13.67-10.15h8.77v-.94c0-2.54-.95-3.19-4.39-3.19-3.22,0-4.38.56-4.38,3.19Z"/><path class="cls-3" d="M202.26,229.57a3.07,3.07,0,0,1,3.06,3.05,3,3,0,0,1-3.06,3,3,3,0,0,1-3-3A3,3,0,0,1,202.26,229.57Zm2.67,27.35c0,1.59-1.2,2.23-2.67,2.23s-2.66-.64-2.66-2.23V239.68c0-1.6,1.2-2.28,2.66-2.28s2.67.68,2.67,2.28Z"/><path class="cls-3" d="M218.91,234.73c-1.6,0-1.94.47-1.94,2.24v.77h3.83c1.59,0,2.15,1,2.15,2.45s-.56,2.45-2.15,2.45H217v14.28c0,1.59-1.16,2.23-2.67,2.23s-2.62-.64-2.62-2.23V242.64h-2.06c-1.55,0-2.11-1-2.11-2.45s.56-2.45,2.11-2.45h2.06v-.64c0-5.59,1.59-7.1,7.23-7.1,5,0,5.71.6,5.71,2.62a2.21,2.21,0,0,1-2.49,2.24C221.36,234.86,219.85,234.73,218.91,234.73Z"/><path class="cls-3" d="M244,256.23a2.08,2.08,0,0,1-1.81,2.37,32.07,32.07,0,0,1-7,.64c-7.69,0-10.19-1.89-10.19-8.13v-5.59c0-6.58,2.8-8.21,10-8.21,7.05,0,9.33,1.81,9.33,8.08v2.46c0,1.84-.69,2.49-2.28,2.49H230.34v1.07c0,2.24,1.55,3.1,4.65,3.1,2.32,0,5.2-.39,6.79-.39S244,254.6,244,256.23Zm-13.68-10.15h8.78v-.94c0-2.54-1-3.19-4.39-3.19-3.23,0-4.39.56-4.39,3.19Z"/><path class="cls-3" d="M255.2,246.64v10.28c0,1.59-1.21,2.23-2.67,2.23s-2.66-.64-2.66-2.23V246.38c0-8,1.93-9.07,9.71-9.07s9.85,1.08,9.85,9.07v10.54c0,1.59-1.2,2.23-2.67,2.23s-2.62-.64-2.62-2.23V246.64c0-3.91-.6-4.56-4.56-4.56S255.2,242.73,255.2,246.64Z"/><path class="cls-3" d="M86.86,300.26l-3.23,2.5v5.16c0,1.59-1.2,2.23-2.71,2.23s-2.71-.64-2.71-2.23V283.28c0-1.59,1.25-2.28,2.71-2.28s2.71.69,2.71,2.28v13.93h.09l8.6-7.83a3.94,3.94,0,0,1,2.4-.94c2,0,3.62,2.4,1,4.64l-4.73,4,5.67,8.09c2.58,3.65-1.72,6.75-4.08,3.57Z"/><path class="cls-3" d="M101.48,291.27c0-1.93,1.63-3,8.08-3,8,0,9.93,1.25,9.93,7.09v8.13c0,5.68-2.53,6.71-9.93,6.71s-9.29-1-9.29-6.84c0-4.77,1.16-6.71,9-6.71h4.9v-.86c0-2.1-.81-2.62-4-2.62s-5.16.52-6.41.52C102.08,293.73,101.48,292.78,101.48,291.27ZM114.2,301H109c-3,0-3.53.51-3.53,2.19s.65,2.32,4.26,2.32,4.47-.43,4.47-1.63Z"/><path class="cls-3" d="M139.49,300.91V290.63c0-1.59,1.16-2.24,2.62-2.24s2.67.65,2.67,2.24v10.54c0,8-2,9.07-9.72,9.07s-9.68-1.08-9.68-9.07V290.63c0-1.59,1.16-2.24,2.67-2.24s2.66.65,2.66,2.24v10.28c0,3.91.39,4.55,4.35,4.55S139.49,304.82,139.49,300.91Z"/><path class="cls-3" d="M159.18,285.73c-1.59,0-1.93.47-1.93,2.23v.78h3.82c1.59,0,2.15,1,2.15,2.45s-.56,2.45-2.15,2.45h-3.82v14.28c0,1.59-1.17,2.23-2.67,2.23s-2.62-.64-2.62-2.23V293.64h-2.07c-1.55,0-2.1-1-2.1-2.45s.55-2.45,2.1-2.45H152v-.65c0-5.59,1.59-7.09,7.22-7.09,5,0,5.72.6,5.72,2.62a2.22,2.22,0,0,1-2.49,2.24C161.63,285.86,160.13,285.73,159.18,285.73Z"/><path class="cls-3" d="M184.25,307.23a2.07,2.07,0,0,1-1.81,2.36,31.21,31.21,0,0,1-7,.65c-7.69,0-10.19-1.89-10.19-8.13v-5.59c0-6.58,2.8-8.21,10-8.21,7.05,0,9.33,1.8,9.33,8.08v2.45c0,1.85-.68,2.5-2.28,2.5H170.58v1.07c0,2.24,1.54,3.1,4.64,3.1,2.32,0,5.2-.39,6.79-.39S184.25,305.59,184.25,307.23Zm-13.67-10.15h8.77v-.95c0-2.53-.95-3.18-4.39-3.18-3.22,0-4.38.56-4.38,3.18Z"/><path class="cls-3" d="M195.43,297.64v10.28c0,1.59-1.21,2.23-2.67,2.23s-2.66-.64-2.66-2.23V297.38c0-8,1.93-9.07,9.71-9.07s9.85,1.07,9.85,9.07v10.54c0,1.59-1.2,2.23-2.66,2.23s-2.63-.64-2.63-2.23V297.64c0-3.91-.6-4.56-4.56-4.56S195.43,293.73,195.43,297.64Z"/><path class="cls-3" d="M218.73,303.49a3.32,3.32,0,0,1,3.32,3.35,3.24,3.24,0,0,1-3.32,3.31,3.16,3.16,0,0,1-3.26-3.31A3.25,3.25,0,0,1,218.73,303.49Zm2.2-3.74a2,2,0,0,1-2.2,1.8,1.93,1.93,0,0,1-2.1-1.8l-1.08-15.61c-.13-1.81,1.59-2.71,3.31-2.71s3.27.86,3.14,2.71Z"/></g></svg>