<svg id="Layer_1" data-name="Layer 1" xmlns="http://www.w3.org/2000/svg" xmlns:xlink="http://www.w3.org/1999/xlink" viewBox="0 0 300 600"><defs><style>.cls-1{fill:none;}.cls-2{clip-path:url(#clip-path);}</style><clipPath id="clip-path"><rect class="cls-1" width="300" height="600"/></clipPath></defs><g class="cls-2"><path d="M106.31,69.05c-.53,0-1-.23-1-.81V60c0-.56.44-.81,1-.81s1,.25,1,.81v7.29h4.2c.55,0,.76.39.76.89s-.21.9-.76.9Z"/><path d="M119.81,68.14a.73.73,0,0,1-.63.83,11,11,0,0,1-2.47.23c-2.7,0-3.58-.67-3.58-2.86v-2c0-2.31,1-2.89,3.52-2.89s3.28.64,3.28,2.85v.86c0,.65-.24.88-.8.88H115v.37c0,.79.55,1.09,1.64,1.09.82,0,1.83-.13,2.39-.13S119.81,67.56,119.81,68.14ZM115,64.57h3.09v-.33c0-.9-.33-1.12-1.54-1.12s-1.55.19-1.55,1.12Z"/><path d="M121.79,62.53c0-.68.58-1.05,2.85-1.05,2.79,0,3.49.44,3.49,2.5v2.86c0,2-.89,2.36-3.49,2.36s-3.27-.37-3.27-2.41c0-1.68.41-2.36,3.18-2.36h1.72v-.3c0-.74-.29-.92-1.42-.92s-1.82.18-2.25.18C122,63.39,121.79,63.06,121.79,62.53ZM126.27,66h-1.83c-1,0-1.24.18-1.24.77s.23.82,1.5.82,1.57-.15,1.57-.58Z"/><path d="M129.67,63.86c0-1.41,1-2.38,3.37-2.38,2.21,0,2.63.41,2.63,1.08,0,.48-.19.74-.81.74-.46,0-.91-.17-2-.17-.9,0-1.31.18-1.31.55,0,1.18,4.43.24,4.43,3.13,0,1.68-1.18,2.39-3.33,2.39-2.6,0-2.93-.4-2.93-1s.21-.81.83-.81c.47,0,1,.18,2,.18s1.51-.2,1.51-.65C134.1,65.78,129.67,66.66,129.67,63.86Z"/><path d="M138.27,58.76a1.09,1.09,0,0,1,1.08,1.08,1.07,1.07,0,0,1-1.08,1.06,1,1,0,0,1-1-1.06A1.05,1.05,0,0,1,138.27,58.76Zm.94,9.62c0,.56-.42.79-.94.79s-.93-.23-.93-.79V62.32c0-.56.42-.8.93-.8s.94.24.94.8Z"/><path d="M143.2,64.77v3.61c0,.56-.42.79-.93.79s-.94-.23-.94-.79v-3.7c0-2.82.68-3.2,3.42-3.2s3.46.38,3.46,3.2v3.7c0,.56-.42.79-.94.79s-.92-.23-.92-.79V64.77c0-1.38-.21-1.61-1.6-1.61S143.2,63.39,143.2,64.77Z"/><path d="M155.74,61c0-.53.42-.74.92-.74s.91.21.91.74v3.15c0,2-1,2.45-3.47,2.45a7.39,7.39,0,0,1-1.9-.19h0v.94h3c2,0,2.68.56,2.68,2.1,0,1.92-1,2.57-3.92,2.57-2.66,0-3.6-.57-3.6-2.52v-5.6c0-2.11.93-2.39,3.47-2.39a8.39,8.39,0,0,1,1.9.17h.05Zm0,3v-.74a12.79,12.79,0,0,0-1.89-.12c-1.56,0-1.7.19-1.7.8v.32c0,.59.22.71,1.79.71S155.74,64.81,155.74,64Zm-3.59,5.34c0,.87.34,1,1.8,1,1.65,0,2.06-.18,2.06-.8,0-.47-.23-.61-1.18-.61h-2.68Z"/><path d="M161.68,65.34v3c0,.58-.45.81-1,.81s-1-.23-1-.81V60c0-.54.37-.81.91-.81h3.95c2.34,0,3.23.66,3.23,3,0,1.86-.56,3.11-3.23,3.11Zm0-1.72h2.89c.94,0,1.27-.4,1.27-1.38S165.51,61,164.55,61h-2.87Z"/><path d="M170.37,69.05c-.53,0-1-.23-1-.81V60c0-.56.44-.81,1-.81s1,.25,1,.81v7.29h4.2c.55,0,.76.39.76.89s-.21.9-.76.9Z"/><path d="M183.42,65.61V59.9c0-.58.46-.8,1-.8s1,.22,1,.8v5.89c0,3.15-1.52,3.41-4.17,3.41s-4.1-.26-4.1-3.41V59.9c0-.58.46-.8,1-.8s1,.22,1,.8v5.71c0,1.56.57,1.82,2.13,1.82S183.42,67.17,183.42,65.61Z"/><path d="M190.91,69.2c-1.77,0-3.57-.22-3.57-1.23a.81.81,0,0,1,.77-.91c.76,0,2,.31,2.8.31,1.48,0,2.25-.34,2.25-1.26,0-2.21-5.75.36-5.75-4.13,0-2,1.26-2.91,4.16-2.91,1.76,0,3.18.22,3.18,1.1a.83.83,0,0,1-.85.88c-.73,0-1.71-.22-2.48-.22-1.42,0-2.06.43-2.06,1.14,0,2.27,5.74-.26,5.74,4C195.1,68.09,193.93,69.2,190.91,69.2Z"/><path d="M18,99.7c-.82,0-1.43-.34-1.43-1.21V86.14c0-.84.61-1.23,1.43-1.23h4.91c4.71,0,6.78,1.07,6.78,7.46s-2.54,7.33-6.78,7.33ZM19.55,97h3.28c2.57,0,3.94-.6,3.94-4.67s-1.3-4.78-3.94-4.78H19.55Z"/><path d="M32.8,89.89c0-1,.86-1.57,4.28-1.57,4.21,0,5.25.66,5.25,3.76v4.3c0,3-1.34,3.55-5.25,3.55s-4.92-.55-4.92-3.62c0-2.52.62-3.55,4.78-3.55h2.59v-.45c0-1.12-.43-1.39-2.14-1.39s-2.73.27-3.39.27C33.12,91.19,32.8,90.69,32.8,89.89Zm6.73,5.17H36.78c-1.57,0-1.86.27-1.86,1.16s.34,1.23,2.25,1.23,2.36-.23,2.36-.87Z"/><path d="M44.65,91.9c0-2.12,1.46-3.58,5.08-3.58,3.32,0,4,.62,4,1.62,0,.73-.3,1.11-1.23,1.11-.68,0-1.37-.25-3-.25-1.37,0-2,.28-2,.82,0,1.78,6.66.37,6.66,4.71,0,2.53-1.77,3.6-5,3.6-3.92,0-4.42-.59-4.42-1.53S45,97.17,46,97.17c.71,0,1.46.28,3.07.28s2.28-.3,2.28-1C51.32,94.79,44.65,96.11,44.65,91.9Z"/><path d="M71.28,95.86H64.79l-1.23,3c-.75,1.8-3.84,1.21-2.91-.88l5.28-11.77a2.25,2.25,0,0,1,4.23,0l5.3,11.77c.91,2-2.16,2.68-2.91.91Zm-3.42-7.38-2,4.78h4.32l-2-4.78Z"/><path d="M80.42,98.7c0,.84-.63,1.18-1.43,1.18s-1.43-.34-1.43-1.18v-13c0-.84.66-1.2,1.43-1.2s1.43.36,1.43,1.2Z"/><path d="M86.48,98.7c0,.84-.64,1.18-1.44,1.18s-1.43-.34-1.43-1.18v-13c0-.84.66-1.2,1.43-1.2s1.44.36,1.44,1.2Z"/><path d="M89.62,94.85c-.78,0-1.09-.59-1.09-1.29s.31-1.28,1.09-1.28h4.8c.77,0,1.11.57,1.11,1.28s-.34,1.29-1.11,1.29Z"/><path d="M97.33,99.7c-.84,0-1.14-.52-1.14-1.3s.3-1.29,1.14-1.29H98.7V87.53H97.33c-.84,0-1.14-.52-1.14-1.3s.3-1.32,1.14-1.32H103c.84,0,1.14.55,1.14,1.32s-.3,1.3-1.14,1.3h-1.36v9.58H103c.84,0,1.14.52,1.14,1.29s-.3,1.3-1.14,1.3Z"/><path d="M109.21,93.26V98.7c0,.84-.64,1.18-1.41,1.18s-1.41-.34-1.41-1.18V93.12c0-4.23,1-4.8,5.14-4.8s5.21.57,5.21,4.8V98.7c0,.84-.64,1.18-1.41,1.18s-1.39-.34-1.39-1.18V93.26c0-2.07-.32-2.41-2.41-2.41S109.21,91.19,109.21,93.26Z"/><path d="M122.61,92.65v3c0,1,.43,1.68,2.26,1.68,1.13,0,1.77-.22,2.68-.22s1.12.5,1.12,1.25a1.18,1.18,0,0,1-1,1.27,11.5,11.5,0,0,1-2.94.3c-3.87,0-5-1.37-5-4.17V92.58c0-3.25,1.25-4.26,5.14-4.26,3.49,0,3.74.57,3.74,1.6,0,.73-.25,1.18-1.07,1.18s-1.48-.2-2.73-.2C123.11,90.9,122.61,91.44,122.61,92.65Z"/><path d="M133.6,98.7c0,.84-.63,1.18-1.43,1.18s-1.43-.34-1.43-1.18v-13c0-.84.66-1.2,1.43-1.2s1.43.36,1.43,1.2Z"/><path d="M144.23,95V89.55c0-.84.61-1.18,1.39-1.18s1.41.34,1.41,1.18v5.58c0,4.23-1.05,4.8-5.14,4.8s-5.12-.57-5.12-4.8V89.55c0-.84.61-1.18,1.41-1.18s1.41.34,1.41,1.18V95c0,2.07.2,2.41,2.3,2.41S144.23,97.06,144.23,95Z"/><path d="M149.17,91.9c0-2.12,1.45-3.58,5.07-3.58,3.32,0,4,.62,4,1.62,0,.73-.29,1.11-1.23,1.11-.68,0-1.36-.25-3-.25-1.37,0-2,.28-2,.82,0,1.78,6.67.37,6.67,4.71,0,2.53-1.78,3.6-5,3.6-3.91,0-4.41-.59-4.41-1.53s.32-1.23,1.25-1.23c.7,0,1.45.28,3.07.28,1.46,0,2.27-.3,2.27-1C155.83,94.79,149.17,96.11,149.17,91.9Z"/><path d="M162.14,84.23a1.61,1.61,0,1,1,0,3.21,1.61,1.61,0,0,1,0-3.21Zm1.41,14.47c0,.84-.64,1.18-1.41,1.18s-1.41-.34-1.41-1.18V89.58c0-.85.64-1.21,1.41-1.21s1.41.36,1.41,1.21Z"/><path d="M171.38,96.26l2.77-6.82c.73-1.8,3.64-1.21,2.71.89l-3.64,8.12a2,2,0,0,1-2,1.48,2.17,2.17,0,0,1-2.07-1.48l-3.5-8.12c-.87-2,2-2.73,2.71-.91l2.66,6.84Z"/><path d="M188.67,98.33a1.11,1.11,0,0,1-1,1.26,17,17,0,0,1-3.71.34c-4.07,0-5.39-1-5.39-4.3v-3c0-3.48,1.48-4.35,5.3-4.35s4.94,1,4.94,4.28v1.3c0,1-.36,1.32-1.2,1.32h-6.22v.57c0,1.18.82,1.64,2.46,1.64,1.23,0,2.75-.21,3.6-.21S188.67,97.47,188.67,98.33ZM181.43,93h4.65v-.5c0-1.35-.5-1.69-2.33-1.69s-2.32.3-2.32,1.69Z"/><path d="M192.18,94.85c-.78,0-1.1-.59-1.1-1.29s.32-1.28,1.1-1.28H197c.77,0,1.11.57,1.11,1.28s-.34,1.29-1.11,1.29Z"/><path d="M201.78,99.7c-.8,0-1.44-.34-1.44-1.21V86.05c0-.84.66-1.23,1.46-1.23s1.43.39,1.43,1.23V97h6.33c.82,0,1.14.59,1.14,1.34s-.32,1.34-1.14,1.34Z"/><path d="M222.1,98.33a1.11,1.11,0,0,1-1,1.26,17,17,0,0,1-3.71.34c-4.07,0-5.39-1-5.39-4.3v-3c0-3.48,1.48-4.35,5.3-4.35s4.94,1,4.94,4.28v1.3c0,1-.36,1.32-1.21,1.32h-6.21v.57c0,1.18.82,1.64,2.46,1.64,1.23,0,2.75-.21,3.59-.21S222.1,97.47,222.1,98.33ZM214.86,93h4.64v-.5c0-1.35-.5-1.69-2.32-1.69s-2.32.3-2.32,1.69Z"/><path d="M225.08,89.89c0-1,.86-1.57,4.28-1.57,4.21,0,5.25.66,5.25,3.76v4.3c0,3-1.34,3.55-5.25,3.55s-4.92-.55-4.92-3.62c0-2.52.62-3.55,4.78-3.55h2.59v-.45c0-1.12-.43-1.39-2.13-1.39s-2.73.27-3.39.27C225.4,91.19,225.08,90.69,225.08,89.89Zm6.73,5.17h-2.75c-1.57,0-1.86.27-1.86,1.16s.34,1.23,2.25,1.23,2.36-.23,2.36-.87Z"/><path d="M236.94,91.9c0-2.12,1.45-3.58,5.07-3.58,3.32,0,4,.62,4,1.62,0,.73-.3,1.11-1.23,1.11-.68,0-1.37-.25-3-.25-1.37,0-2,.28-2,.82,0,1.78,6.66.37,6.66,4.71,0,2.53-1.77,3.6-5,3.6-3.92,0-4.42-.59-4.42-1.53s.32-1.23,1.25-1.23c.71,0,1.46.28,3.08.28,1.45,0,2.27-.3,2.27-1C243.6,94.79,236.94,96.11,236.94,91.9Z"/><path d="M249.88,84.23a1.61,1.61,0,1,1,0,3.21,1.61,1.61,0,0,1,0-3.21Zm1.41,14.47c0,.84-.63,1.18-1.41,1.18s-1.41-.34-1.41-1.18V89.58c0-.85.64-1.21,1.41-1.21s1.41.36,1.41,1.21Z"/><path d="M257.3,93.26V98.7c0,.84-.64,1.18-1.41,1.18s-1.41-.34-1.41-1.18V93.12c0-4.23,1-4.8,5.14-4.8s5.21.57,5.21,4.8V98.7c0,.84-.64,1.18-1.41,1.18S262,99.54,262,98.7V93.26c0-2.07-.32-2.41-2.41-2.41S257.3,91.19,257.3,93.26Z"/><path d="M276.16,87.55c0-.8.64-1.11,1.39-1.11s1.37.31,1.37,1.11v4.73c0,3-1.55,3.69-5.21,3.69a11.62,11.62,0,0,1-2.87-.27h-.07v1.41h4.53c3.07,0,4,.84,4,3.16,0,2.89-1.46,3.87-5.9,3.87-4,0-5.41-.87-5.41-3.8V91.92c0-3.19,1.39-3.6,5.21-3.6a12,12,0,0,1,2.86.26h.07Zm0,4.53V91a19.16,19.16,0,0,0-2.84-.18c-2.34,0-2.55.3-2.55,1.21v.48c0,.88.32,1.06,2.69,1.06S276.16,93.33,276.16,92.08Zm-5.39,8c0,1.32.5,1.57,2.71,1.57,2.48,0,3.09-.27,3.09-1.21,0-.7-.34-.91-1.77-.91h-4Z"/><path d="M281.6,97.77c.28-1.16.91-1.51,1.64-1.51a1.17,1.17,0,0,1,1.32,1.23,2.6,2.6,0,0,1-.25,1.05l-1.68,3.78a1.26,1.26,0,0,1-1.05.72,1,1,0,0,1-1-1,1.73,1.73,0,0,1,0-.36Z"/><path d="M34.32,121.66c0,4.82-1.41,5.78-5.48,5.78s-5.44-1-5.44-5.78,1.34-5.82,5.44-5.82a12,12,0,0,1,2.62.29V112.9c0-.84.66-1.2,1.43-1.2s1.43.36,1.43,1.2Zm-5.48,3.25c2.07,0,2.66-.34,2.66-3.3s-.59-3.25-2.66-3.25-2.62.21-2.62,3.25S26.75,124.91,28.84,124.91Z"/><path d="M37.58,117.41c0-1,.86-1.57,4.28-1.57,4.2,0,5.25.66,5.25,3.75v4.3c0,3-1.34,3.55-5.25,3.55s-4.92-.55-4.92-3.62c0-2.52.62-3.55,4.78-3.55h2.59v-.45c0-1.12-.43-1.39-2.14-1.39s-2.73.27-3.39.27C37.9,118.7,37.58,118.2,37.58,117.41Zm6.73,5.16H41.56c-1.57,0-1.87.27-1.87,1.16S40,125,42,125s2.36-.23,2.36-.87Z"/><path d="M49.43,119.41c0-2.12,1.46-3.57,5.08-3.57,3.32,0,4,.61,4,1.61,0,.73-.3,1.12-1.23,1.12-.69,0-1.37-.25-3-.25-1.36,0-2,.27-2,.81,0,1.78,6.67.37,6.67,4.71,0,2.53-1.77,3.6-5,3.6-3.92,0-4.42-.59-4.42-1.53,0-.79.32-1.22,1.25-1.22.71,0,1.46.27,3.07.27s2.28-.3,2.28-1C56.1,122.3,49.43,123.62,49.43,119.41Z"/><path d="M76.51,125.85a1.1,1.1,0,0,1-1,1.25,17,17,0,0,1-3.7.34c-4.08,0-5.4-1-5.4-4.3v-3c0-3.48,1.48-4.34,5.3-4.34s4.94,1,4.94,4.27v1.3c0,1-.36,1.32-1.2,1.32H69.28v.57c0,1.18.81,1.64,2.45,1.64,1.23,0,2.76-.21,3.6-.21S76.51,125,76.51,125.85Zm-7.23-5.37h4.64V120c0-1.35-.5-1.69-2.32-1.69s-2.32.3-2.32,1.69Z"/><path d="M84.25,118.45c-1.53,0-1.82.21-1.82,1.73v6c0,.84-.62,1.18-1.39,1.18s-1.43-.34-1.43-1.18V120c0-3.48,1.11-4.11,4.68-4.11,2.32,0,2.92.54,2.92,1.41A1.17,1.17,0,0,1,86,118.54C85.52,118.54,85.11,118.45,84.25,118.45Z"/><path d="M88,119.41c0-2.12,1.46-3.57,5.07-3.57,3.33,0,4,.61,4,1.61,0,.73-.29,1.12-1.23,1.12-.68,0-1.36-.25-3-.25-1.36,0-2,.27-2,.81,0,1.78,6.67.37,6.67,4.71,0,2.53-1.78,3.6-5,3.6-3.91,0-4.41-.59-4.41-1.53,0-.79.32-1.22,1.25-1.22.71,0,1.46.27,3.07.27,1.46,0,2.28-.3,2.28-1C94.65,122.3,88,123.62,88,119.41Z"/><path d="M103.41,124.91c.68,0,1.07-.06,1.55-.06.75,0,1.06.38,1.06,1.11,0,1.05-.5,1.48-3,1.48-2.17,0-3.23-.59-3.23-3.14v-5.64H98.63c-.8,0-1.09-.55-1.09-1.3s.29-1.3,1.09-1.3h1.12v-1.79c0-.82.63-1.16,1.38-1.16s1.44.34,1.44,1.16v1.79h2.34c.8,0,1,.57,1,1.3s-.22,1.3-1,1.3h-2.34v5.41A.75.75,0,0,0,103.41,124.91Z"/><path d="M116.15,120.77v5.44c0,.84-.64,1.18-1.41,1.18s-1.41-.34-1.41-1.18v-5.57c0-4.24,1-4.8,5.14-4.8s5.21.56,5.21,4.8v5.57c0,.84-.64,1.18-1.41,1.18s-1.39-.34-1.39-1.18v-5.44c0-2.07-.32-2.41-2.41-2.41S116.15,118.7,116.15,120.77Z"/><path d="M131.87,115.84c4.08,0,5.49,1.11,5.49,5.91s-1.41,5.69-5.49,5.69-5.46-.87-5.46-5.69S127.76,115.84,131.87,115.84Zm0,9.07c2,0,2.67-.25,2.67-3.2s-.62-3.35-2.67-3.35-2.63.3-2.63,3.35S129.78,124.91,131.87,124.91Z"/><path d="M142.77,120.16v3c0,1,.44,1.69,2.26,1.69,1.13,0,1.77-.23,2.68-.23s1.12.5,1.12,1.25a1.18,1.18,0,0,1-1,1.27,11.5,11.5,0,0,1-2.94.3c-3.87,0-5-1.37-5-4.16v-3.19c0-3.25,1.25-4.25,5.14-4.25,3.49,0,3.74.56,3.74,1.59,0,.73-.25,1.18-1.07,1.18s-1.48-.2-2.73-.2C143.27,118.41,142.77,119,142.77,120.16Z"/><path d="M153.77,116.11a13.71,13.71,0,0,1,2.52-.27c3.87,0,5,.56,5,4.8v5.57c0,.84-.64,1.18-1.41,1.18s-1.39-.34-1.39-1.18v-5.44c0-2.07-.29-2.41-2.39-2.41a13.08,13.08,0,0,0-2.29.23v7.62c0,.84-.64,1.18-1.44,1.18s-1.43-.34-1.43-1.18v-13c0-.84.66-1.2,1.43-1.2s1.44.36,1.44,1.2Z"/><path d="M177.18,121.55c-.84,0-1.16-.57-1.16-1.3s.32-1.37,1.16-1.37h4.12a1.25,1.25,0,0,1,1.41,1.28c0,5.62-1.37,7.28-6.35,7.28-4.57,0-6.73-1-6.73-7.49,0-6.28,1.91-7.75,7.05-7.75a29.65,29.65,0,0,1,4.32.31,1.3,1.3,0,0,1,1,1.41c0,.76-.29,1.28-1.11,1.28-1.09,0-2.57-.3-4.12-.3-3.12,0-4.19.41-4.19,5,0,4.34,1.3,4.84,3.87,4.84s3.39-.91,3.32-3.2Z"/><path d="M195.68,125.85a1.1,1.1,0,0,1-1,1.25,17,17,0,0,1-3.71.34c-4.07,0-5.39-1-5.39-4.3v-3c0-3.48,1.48-4.34,5.3-4.34s4.94,1,4.94,4.27v1.3c0,1-.36,1.32-1.2,1.32h-6.22v.57c0,1.18.82,1.64,2.46,1.64,1.23,0,2.75-.21,3.6-.21S195.68,125,195.68,125.85Zm-7.24-5.37h4.64V120c0-1.35-.5-1.69-2.32-1.69s-2.32.3-2.32,1.69Z"/><path d="M201.64,126.21c0,.84-.64,1.18-1.43,1.18s-1.43-.34-1.43-1.18v-13c0-.84.65-1.2,1.43-1.2s1.43.36,1.43,1.2Z"/><path d="M215.29,121.66c0,4.82-1.41,5.78-5.48,5.78s-5.44-1-5.44-5.78,1.34-5.82,5.44-5.82a12,12,0,0,1,2.62.29V112.9c0-.84.66-1.2,1.43-1.2s1.43.36,1.43,1.2Zm-5.48,3.25c2.07,0,2.66-.34,2.66-3.3s-.59-3.25-2.66-3.25-2.62.21-2.62,3.25S207.72,124.91,209.81,124.91Z"/><path d="M223,119.41c0-2.12,1.46-3.57,5.08-3.57,3.32,0,4,.61,4,1.61,0,.73-.3,1.12-1.23,1.12-.68,0-1.37-.25-3-.25-1.37,0-2,.27-2,.81,0,1.78,6.66.37,6.66,4.71,0,2.53-1.77,3.6-5,3.6-3.92,0-4.42-.59-4.42-1.53,0-.79.32-1.22,1.25-1.22.71,0,1.46.27,3.08.27,1.45,0,2.27-.3,2.27-1C229.63,122.3,223,123.62,223,119.41Z"/><path d="M234.52,121.5c0-4.84,1.41-5.66,5.46-5.66s5.44.82,5.44,5.66-1.3,5.94-5.44,5.94a13.39,13.39,0,0,1-2.52-.3h-.07v2.92c0,.86-.68,1.18-1.46,1.18s-1.41-.32-1.41-1.18Zm5.46-3.14c-1.88,0-2.64.23-2.64,3.19s.6,3.36,2.64,3.36,2.64-.31,2.64-3.36S242.08,118.36,240,118.36Z"/><path d="M248.25,117.41c0-1,.86-1.57,4.27-1.57,4.21,0,5.26.66,5.26,3.75v4.3c0,3-1.34,3.55-5.26,3.55s-4.91-.55-4.91-3.62c0-2.52.61-3.55,4.78-3.55H255v-.45c0-1.12-.43-1.39-2.14-1.39s-2.73.27-3.39.27C248.56,118.7,248.25,118.2,248.25,117.41Zm6.73,5.16h-2.75c-1.57,0-1.87.27-1.87,1.16s.34,1.23,2.25,1.23,2.37-.23,2.37-.87Z"/><path d="M265.56,118.45c-1.52,0-1.82.21-1.82,1.73v6c0,.84-.61,1.18-1.39,1.18s-1.43-.34-1.43-1.18V120c0-3.48,1.11-4.11,4.69-4.11,2.32,0,2.91.54,2.91,1.41a1.16,1.16,0,0,1-1.23,1.29C266.83,118.54,266.43,118.45,265.56,118.45Z"/><path d="M274.78,124.91c.68,0,1.07-.06,1.54-.06.76,0,1.07.38,1.07,1.11,0,1.05-.5,1.48-3.05,1.48-2.16,0-3.23-.59-3.23-3.14v-5.64H270c-.8,0-1.09-.55-1.09-1.3s.29-1.3,1.09-1.3h1.11v-1.79c0-.82.64-1.16,1.39-1.16s1.44.34,1.44,1.16v1.79h2.34c.8,0,1,.57,1,1.3s-.22,1.3-1,1.3h-2.34v5.41A.75.75,0,0,0,274.78,124.91Z"/></g></svg>