<?xml version="1.0" encoding="utf-8"?>
<!-- Generator: Adobe Illustrator 23.0.0, SVG Export Plug-In . SVG Version: 6.00 Build 0)  -->
<svg version="1.1" id="Layer_1" xmlns="http://www.w3.org/2000/svg" xmlns:xlink="http://www.w3.org/1999/xlink" x="0px" y="0px"
	 viewBox="0 0 320 50" style="enable-background:new 0 0 320 50;" xml:space="preserve">
<style type="text/css">
	.st0{fill:#FFFFFF;}
</style>
<g>
	<path class="st0" d="M171.4,28.6c0,0.5,0,1-0.1,1.5c0,0.5-0.1,1-0.3,1.4c-0.1,0.4-0.4,0.7-0.7,1c-0.3,0.2-0.7,0.4-1.2,0.4
		s-0.9-0.2-1.3-0.5c-0.4-0.3-0.6-0.8-0.7-1.3l-0.1-0.6l-6.2,1.5l0.1,0.5c0.4,2.2,1.4,3.8,2.9,4.9c1.5,1,3.3,1.5,5.4,1.5
		c1.8,0,3.3-0.3,4.4-0.8c1.2-0.6,2.1-1.3,2.7-2.2c0.6-0.9,1-2,1.3-3.2c0.2-1.1,0.3-2.3,0.3-3.5V11.7h-6.7v16.9H171.4z"/>
	<path class="st0" d="M205.2,14.8c-1.3-1.2-2.8-2.2-4.6-2.8c-1.7-0.6-3.7-1-5.7-1c-2.1,0-4,0.3-5.7,1c-1.8,0.7-3.3,1.6-4.6,2.8
		s-2.3,2.7-3,4.4s-1.1,3.7-1.1,5.8s0.4,4.1,1.1,5.8c0.7,1.7,1.7,3.2,3,4.4s2.8,2.2,4.6,2.8c1.7,0.6,3.7,1,5.7,1c2.1,0,4-0.3,5.7-1
		c1.8-0.7,3.3-1.6,4.6-2.8s2.3-2.7,3-4.4c0.7-1.7,1.1-3.7,1.1-5.8s-0.4-4.1-1.1-5.8C207.5,17.5,206.4,16,205.2,14.8z M202.3,25
		c0,1.1-0.2,2.2-0.5,3.1s-0.9,1.7-1.5,2.4c-0.6,0.7-1.4,1.2-2.3,1.6c-0.9,0.4-1.9,0.6-3.1,0.6c-1.1,0-2.2-0.2-3.1-0.6
		c-0.9-0.4-1.7-0.9-2.3-1.6s-1.2-1.5-1.5-2.4c-0.4-0.9-0.5-2-0.5-3.1s0.2-2.2,0.5-3.1s0.9-1.8,1.5-2.4c0.6-0.7,1.4-1.2,2.3-1.6
		c0.9-0.4,1.9-0.6,3.1-0.6c1.1,0,2.2,0.2,3.1,0.6c0.9,0.4,1.7,0.9,2.3,1.6s1.2,1.5,1.5,2.4C202.1,22.8,202.3,23.9,202.3,25z"/>
	<path class="st0" d="M231.5,26.1c-0.5-0.6-1.2-1.1-1.9-1.5c-0.3-0.2-0.6-0.3-1-0.4c0.8-0.4,1.5-1,2-1.6c0.9-1,1.3-2.4,1.3-3.9
		S231.6,16,231,15c-0.6-0.9-1.4-1.6-2.4-2.1c-0.9-0.5-2-0.8-3.2-1c-1.1-0.2-2.3-0.2-3.4-0.2h-10v26.7h11c1.2,0,2.4-0.1,3.5-0.4
		c1.2-0.3,2.3-0.7,3.3-1.3s1.8-1.4,2.4-2.4c0.6-1,1-2.2,1-3.7c0-0.9-0.1-1.7-0.4-2.5C232.5,27.4,232.1,26.7,231.5,26.1z M225.1,20.7
		c-0.2,0.3-0.4,0.5-0.6,0.7c-0.3,0.2-0.6,0.3-1,0.4s-0.8,0.1-1.2,0.1h-3.6v-4.4h3.3c0.4,0,0.8,0,1.2,0.1s0.8,0.2,1.1,0.4
		c0.3,0.2,0.5,0.4,0.7,0.6c0.2,0.3,0.3,0.6,0.3,1C225.3,20.1,225.2,20.4,225.1,20.7z M218.7,27.7h3.7c0.4,0,0.9,0,1.4,0.1
		s0.9,0.2,1.4,0.4c0.4,0.2,0.7,0.4,0.9,0.7c0.2,0.3,0.3,0.7,0.3,1.1c0,0.5-0.1,0.8-0.3,1.1c-0.2,0.3-0.4,0.6-0.7,0.8
		c-0.3,0.2-0.7,0.3-1,0.4c-0.4,0.1-0.8,0.1-1.2,0.1h-4.5L218.7,27.7L218.7,27.7z"/>
	<path class="st0" d="M249.8,23.9c-0.9-0.6-1.9-1-3-1.3c-1-0.3-2-0.6-2.8-0.9s-1.5-0.6-2.1-1c-0.4-0.3-0.6-0.7-0.6-1.3
		c0-0.4,0.1-0.7,0.3-0.9c0.2-0.3,0.4-0.5,0.8-0.7c0.3-0.2,0.7-0.3,1.1-0.4c0.4-0.1,0.8-0.1,1.2-0.1c0.6,0,1.3,0.1,2.1,0.4
		c0.7,0.2,1.2,0.6,1.6,1.1l0.4,0.5l4.7-5.1l-0.4-0.4c-1.1-1-2.4-1.7-3.9-2.2c-1.4-0.4-2.9-0.6-4.4-0.6c-1.3,0-2.6,0.2-3.8,0.5
		c-1.2,0.4-2.4,0.9-3.3,1.7c-1,0.7-1.7,1.7-2.3,2.8s-0.9,2.4-0.9,3.9s0.3,2.8,1,3.7c0.6,0.9,1.4,1.7,2.4,2.3c0.9,0.6,1.9,1,3,1.3
		c1,0.3,2,0.6,2.9,0.9c0.8,0.3,1.5,0.7,2.1,1.1c0.5,0.4,0.7,0.8,0.7,1.4c0,0.4-0.1,0.6-0.3,0.9s-0.4,0.5-0.7,0.7
		c-0.3,0.2-0.7,0.3-1.1,0.4c-1.3,0.3-2.6,0.1-3.8-0.4c-0.8-0.4-1.5-0.9-2-1.6l-0.4-0.5l-4.8,5.3l0.4,0.4c1.3,1.2,2.7,2,4.2,2.6
		c1.5,0.5,3.1,0.8,4.8,0.8c1.4,0,2.7-0.2,3.9-0.5c1.3-0.4,2.4-0.9,3.3-1.6c1-0.7,1.7-1.7,2.3-2.8s0.9-2.5,0.9-4c0-1.6-0.3-2.9-1-3.9
		C251.6,25.2,250.8,24.4,249.8,23.9z"/>
</g>
</svg>
