<?xml version="1.0" encoding="utf-8"?>
<!-- Generator: Adobe Illustrator 23.0.0, SVG Export Plug-In . SVG Version: 6.00 Build 0)  -->
<svg version="1.1" id="Layer_1" xmlns="http://www.w3.org/2000/svg" xmlns:xlink="http://www.w3.org/1999/xlink" x="0px" y="0px"
	 viewBox="0 0 320 50" style="enable-background:new 0 0 320 50;" xml:space="preserve">
<style type="text/css">
	.st0{fill:#1992C7;}
</style>
<g>
	<g>
		<path class="st0" d="M251.2,28l-0.5-1.6h-2.4l-0.5,1.6h-1.5l2.4-6.7h1.7l2.4,6.7H251.2z M250.4,25.2c-0.4-1.4-0.7-2.3-0.8-2.4
			c-0.1-0.2-0.1-0.3-0.1-0.4c-0.1,0.4-0.4,1.4-0.9,2.9H250.4z"/>
		<path class="st0" d="M256.3,28.1c-0.6,0-1.1-0.2-1.4-0.7h-0.1c0,0.4,0.1,0.7,0.1,0.7v2.1h-1.4v-7.3h1.1l0.2,0.7h0.1
			c0.3-0.5,0.8-0.8,1.4-0.8c0.6,0,1.1,0.2,1.4,0.7s0.5,1.1,0.5,1.9c0,0.5-0.1,1-0.2,1.4c-0.2,0.4-0.4,0.7-0.7,0.9
			S256.6,28.1,256.3,28.1z M255.8,23.9c-0.3,0-0.6,0.1-0.8,0.3c-0.2,0.2-0.2,0.6-0.2,1v0.2c0,0.5,0.1,0.9,0.2,1.2
			c0.2,0.2,0.4,0.4,0.8,0.4c0.6,0,0.9-0.5,0.9-1.5c0-0.5-0.1-0.9-0.2-1.1C256.4,24,256.2,23.9,255.8,23.9z"/>
		<path class="st0" d="M262.2,28.1c-0.6,0-1.1-0.2-1.4-0.7h-0.1c0,0.4,0.1,0.7,0.1,0.7v2.1h-1.4v-7.3h1.1l0.2,0.7h0.1
			c0.3-0.5,0.8-0.8,1.4-0.8c0.6,0,1.1,0.2,1.4,0.7s0.5,1.1,0.5,1.9c0,0.5-0.1,1-0.2,1.4c-0.2,0.4-0.4,0.7-0.7,0.9
			S262.6,28.1,262.2,28.1z M261.7,23.9c-0.3,0-0.6,0.1-0.8,0.3c-0.2,0.2-0.2,0.6-0.2,1v0.2c0,0.5,0.1,0.9,0.2,1.2
			c0.2,0.2,0.4,0.4,0.8,0.4c0.6,0,0.9-0.5,0.9-1.5c0-0.5-0.1-0.9-0.2-1.1C262.3,24,262.1,23.9,261.7,23.9z"/>
		<path class="st0" d="M266.7,28h-1.4v-7.1h1.4V28z"/>
		<path class="st0" d="M267.4,22.9h1.5l1,2.9c0.1,0.2,0.1,0.5,0.2,0.9h0c0-0.3,0.1-0.6,0.2-0.9l0.9-2.9h1.5l-2.2,5.7
			c-0.2,0.5-0.5,0.9-0.8,1.2c-0.4,0.3-0.8,0.4-1.3,0.4c-0.2,0-0.5,0-0.7-0.1v-1.1c0.2,0,0.3,0.1,0.5,0.1c0.2,0,0.5-0.1,0.6-0.2
			c0.2-0.2,0.3-0.4,0.4-0.7l0.1-0.3L267.4,22.9z"/>
		<path class="st0" d="M281.9,28h-1.8l-2.9-5h0c0.1,0.9,0.1,1.5,0.1,1.9V28H276v-6.7h1.8l2.9,5h0c0-0.9-0.1-1.5-0.1-1.8v-3.2h1.3V28
			z"/>
		<path class="st0" d="M288.1,25.4c0,0.8-0.2,1.5-0.7,1.9c-0.4,0.5-1,0.7-1.8,0.7c-0.5,0-0.9-0.1-1.3-0.3c-0.4-0.2-0.7-0.5-0.9-0.9
			c-0.2-0.4-0.3-0.9-0.3-1.4c0-0.8,0.2-1.5,0.7-1.9c0.4-0.5,1-0.7,1.8-0.7c0.5,0,0.9,0.1,1.3,0.3s0.7,0.5,0.9,0.9
			S288.1,24.9,288.1,25.4z M284.5,25.4c0,0.5,0.1,0.9,0.2,1.1c0.2,0.3,0.4,0.4,0.8,0.4c0.4,0,0.6-0.1,0.8-0.4
			c0.2-0.3,0.2-0.6,0.2-1.1c0-0.5-0.1-0.9-0.2-1.1s-0.4-0.4-0.8-0.4c-0.4,0-0.6,0.1-0.8,0.4C284.6,24.6,284.5,24.9,284.5,25.4z"/>
		<path class="st0" d="M293.4,28l-0.4-1.8l-0.5-2.3h0l-0.9,4H290l-1.4-5.1h1.4l0.6,2.3c0.1,0.4,0.2,1,0.3,1.7h0
			c0-0.2,0.1-0.6,0.2-1.1l0.1-0.4l0.6-2.4h1.5l0.6,2.4c0,0.1,0,0.2,0.1,0.3c0,0.1,0.1,0.3,0.1,0.4c0,0.1,0,0.3,0.1,0.4
			c0,0.1,0,0.3,0,0.3h0c0-0.2,0.1-0.5,0.1-0.9c0.1-0.4,0.1-0.6,0.2-0.8l0.6-2.3h1.4l-1.5,5.1H293.4z"/>
	</g>
	<g>
		<path class="st0" d="M303,16c2.2,0,4,1.8,4,4v10c0,2.2-1.8,4-4,4h-63.3c-2.2,0-4-1.8-4-4V20c0-2.2,1.8-4,4-4H303 M303,15h-63.3
			c-2.8,0-5,2.3-5,5v10c0,2.8,2.3,5,5,5H303c2.8,0,5-2.3,5-5V20C308,17.3,305.8,15,303,15L303,15z"/>
	</g>
</g>
</svg>
