<?xml version="1.0" encoding="utf-8"?>
<!-- Generator: Adobe Illustrator 23.0.0, SVG Export Plug-In . SVG Version: 6.00 Build 0)  -->
<svg version="1.1" id="Layer_1" xmlns="http://www.w3.org/2000/svg" xmlns:xlink="http://www.w3.org/1999/xlink" x="0px" y="0px"
	 viewBox="0 0 320 50" style="enable-background:new 0 0 320 50;" xml:space="preserve">
<style type="text/css">
	.st0{fill:#FFFFFF;}
	.st1{fill:#F48021;}
</style>
<g>
	<path d="M106.7,32.9"/>
	<path d="M115.1,25.6"/>
	<path class="st0" d="M89.4,33h-11l16-22H106l4.1,22h-11l-0.2-2.7H91L89.4,33z M98.5,25L98.5,25c0-0.9-0.1-5.8,0-6.7h-0.4L94.3,25
		H98.5z"/>
	<path class="st0" d="M138.3,11l-3.6,13c-1.8,6.4-7.8,9.3-15.8,9.3c-8,0-12.5-2.9-10.7-9.3l3.6-13h10.4l-3.4,12.3
		c-0.5,1.7-0.8,3.2,2,3.2c2.8,0,3.3-1.5,3.7-3.2l3.4-12.3H138.3z"/>
	<path class="st0" d="M55.7,11h10.7l0.8,11.6h0.3c0.5-1,3.3-4.1,3.9-5l5.7-6.5h10.6l-3.8,22H73.8l1.9-12h-0.2
		c-0.4,0.7-0.8,1.5-1.3,2.2L67.3,33h-6.1l-1.1-9.3c0-0.9-0.3-2.2-0.3-3.3l0,0c-0.3,0.9-0.7,2.2-1.1,3.1L55.1,33H45L55.7,11z"/>
	<path class="st1" d="M135.1,36.3"/>
	<path class="st1" d="M48.5,38.9h-0.9l-0.1-3.1l-1.5,3.1h-0.9L45,34.7h0.9l0,2.9l1.5-2.9h0.9l0.1,2.9l1.4-2.9h0.8L48.5,38.9z"/>
	<path class="st1" d="M52.3,36c0.3-0.4,0.6-0.6,1-0.6c0.3,0,0.5,0.1,0.7,0.3c0.2,0.2,0.3,0.4,0.3,0.8c0,0.3-0.1,0.6-0.2,0.9
		c-0.1,0.3-0.3,0.5-0.5,0.7c-0.2,0.2-0.4,0.2-0.7,0.2c-0.3,0-0.5-0.1-0.7-0.3c-0.2-0.2-0.3-0.4-0.3-0.7C51.9,36.8,52.1,36.4,52.3,36
		z M51.2,38.1c0.1,0.3,0.3,0.5,0.6,0.7c0.3,0.2,0.6,0.3,1,0.3c0.4,0,0.9-0.1,1.2-0.3c0.4-0.2,0.6-0.5,0.8-1c0.2-0.4,0.3-0.8,0.3-1.3
		c0-0.5-0.2-1-0.5-1.3c-0.3-0.3-0.7-0.5-1.3-0.5c-0.4,0-0.7,0.1-1,0.2c-0.3,0.2-0.6,0.4-0.8,0.6c-0.2,0.3-0.3,0.6-0.4,1
		c-0.1,0.3-0.1,0.5-0.1,0.8C51.1,37.5,51.1,37.8,51.2,38.1z"/>
	<path class="st1" d="M57.7,35.4h1c0.3,0,0.4,0,0.5,0.1c0.1,0.1,0.2,0.2,0.2,0.3c0,0.1,0,0.3-0.1,0.4c-0.1,0.1-0.2,0.2-0.4,0.3
		c-0.2,0.1-0.5,0.1-0.9,0.1h-0.5L57.7,35.4z M57.3,37.2h0.4c0.2,0,0.3,0,0.4,0.1c0.1,0.1,0.3,0.3,0.4,0.5c0.2,0.5,0.4,0.9,0.4,1.1
		h0.9c-0.2-0.6-0.5-1.1-0.6-1.4c-0.1-0.2-0.2-0.3-0.3-0.4c0.4-0.1,0.8-0.2,1-0.4c0.2-0.2,0.3-0.5,0.3-0.9c0-0.2-0.1-0.5-0.2-0.6
		c-0.1-0.2-0.3-0.3-0.4-0.4c-0.2-0.1-0.4-0.1-0.7-0.1h-1.9l-0.9,4.2h0.9L57.3,37.2z"/>
	<path class="st1" d="M61,38.9l0.9-4.2h0.9l-0.4,1.8l1.9-1.8h1.2l-1.9,1.6l1.4,2.6h-1l-1-2l-0.8,0.7l-0.3,1.3H61z"/>
	<path class="st1" d="M65.9,38.9l0.9-4.2h2.9l-0.2,0.7h-2l-0.2,1h2l-0.2,0.7h-2l-0.4,1.8H65.9z"/>
	<path class="st1" d="M71.7,36c0.3-0.4,0.6-0.6,1-0.6c0.3,0,0.5,0.1,0.7,0.3c0.2,0.2,0.3,0.4,0.3,0.8c0,0.3-0.1,0.6-0.2,0.9
		c-0.1,0.3-0.3,0.5-0.5,0.7c-0.2,0.2-0.4,0.2-0.7,0.2c-0.3,0-0.5-0.1-0.7-0.3c-0.2-0.2-0.3-0.4-0.3-0.7C71.3,36.8,71.5,36.4,71.7,36
		z M70.6,38.1c0.1,0.3,0.3,0.5,0.6,0.7c0.3,0.2,0.6,0.3,1,0.3c0.4,0,0.9-0.1,1.2-0.3c0.4-0.2,0.6-0.5,0.8-1c0.2-0.4,0.3-0.8,0.3-1.3
		c0-0.5-0.2-1-0.5-1.3c-0.3-0.3-0.7-0.5-1.3-0.5c-0.4,0-0.7,0.1-1,0.2c-0.3,0.2-0.6,0.4-0.8,0.6c-0.2,0.3-0.3,0.6-0.4,1
		c-0.1,0.3-0.1,0.5-0.1,0.8C70.5,37.5,70.5,37.8,70.6,38.1z"/>
	<path class="st1" d="M77.1,35.4h1c0.3,0,0.4,0,0.5,0.1c0.1,0.1,0.2,0.2,0.2,0.3c0,0.1,0,0.3-0.1,0.4c-0.1,0.1-0.2,0.2-0.4,0.3
		c-0.2,0.1-0.5,0.1-0.9,0.1h-0.5L77.1,35.4z M76.7,37.2h0.4c0.2,0,0.3,0,0.4,0.1c0.1,0.1,0.3,0.3,0.4,0.5c0.2,0.5,0.4,0.9,0.4,1.1
		h0.9c-0.2-0.6-0.5-1.1-0.6-1.4c-0.1-0.2-0.2-0.3-0.3-0.4c0.4-0.1,0.8-0.2,1-0.4c0.2-0.2,0.3-0.5,0.3-0.9c0-0.2-0.1-0.5-0.2-0.6
		c-0.1-0.2-0.3-0.3-0.4-0.4c-0.2-0.1-0.4-0.1-0.7-0.1h-1.9l-0.9,4.2h0.9L76.7,37.2z"/>
	<path class="st1" d="M83.4,37.4l0.9,0.1c-0.2,0.5-0.4,0.8-0.8,1.1c-0.3,0.2-0.7,0.4-1.2,0.4c-0.5,0-0.9-0.2-1.2-0.5
		c-0.3-0.3-0.4-0.8-0.4-1.3c0-0.5,0.1-0.9,0.3-1.3c0.2-0.4,0.5-0.7,0.8-0.9c0.3-0.2,0.7-0.3,1.1-0.3c0.5,0,0.8,0.1,1.1,0.4
		c0.3,0.2,0.4,0.6,0.5,1l-0.8,0.1c0-0.2-0.1-0.4-0.3-0.5c-0.1-0.1-0.3-0.2-0.5-0.2c-0.2,0-0.5,0.1-0.7,0.2c-0.2,0.1-0.4,0.4-0.5,0.7
		c-0.1,0.3-0.2,0.6-0.2,0.9c0,0.3,0.1,0.6,0.2,0.8c0.2,0.2,0.4,0.3,0.6,0.3c0.2,0,0.4-0.1,0.6-0.2C83.2,37.9,83.3,37.7,83.4,37.4z"
		/>
	<path class="st1" d="M85.3,38.9l0.9-4.2h3.1l-0.2,0.7h-2.2l-0.2,0.9h2.2l-0.2,0.7h-2.2l-0.2,1.1h2.4l-0.2,0.7H85.3z"/>
	<path class="st1" d="M92.4,37.6l0.8,0c0,0.3,0.1,0.4,0.1,0.5c0.1,0.1,0.4,0.2,0.7,0.2c0.3,0,0.5-0.1,0.6-0.2
		c0.1-0.1,0.2-0.2,0.2-0.4c0-0.1-0.1-0.2-0.2-0.3c-0.1-0.1-0.3-0.2-0.6-0.3c-0.3-0.1-0.6-0.3-0.7-0.4c-0.2-0.1-0.3-0.2-0.4-0.4
		c-0.1-0.2-0.1-0.3-0.1-0.5c0-0.4,0.1-0.6,0.4-0.9c0.3-0.2,0.6-0.4,1.1-0.4c0.5,0,0.9,0.1,1.1,0.3c0.3,0.2,0.4,0.5,0.4,0.9l-0.8,0
		c0-0.2-0.1-0.4-0.2-0.5c-0.1-0.1-0.3-0.2-0.5-0.2c-0.2,0-0.4,0-0.5,0.1c-0.1,0.1-0.2,0.2-0.2,0.3c0,0.1,0,0.2,0.1,0.3
		c0.1,0.1,0.3,0.2,0.6,0.3c0.5,0.2,0.8,0.4,0.9,0.5c0.2,0.2,0.3,0.4,0.3,0.7c0,0.4-0.1,0.7-0.4,0.9C95,38.9,94.6,39,94,39
		c-0.4,0-0.7-0.1-0.9-0.2c-0.3-0.1-0.4-0.3-0.6-0.5C92.4,38.1,92.4,37.8,92.4,37.6z"/>
	<path class="st1" d="M98.4,36c0.3-0.4,0.6-0.6,1-0.6c0.3,0,0.5,0.1,0.7,0.3c0.2,0.2,0.3,0.4,0.3,0.8c0,0.3-0.1,0.6-0.2,0.9
		c-0.1,0.3-0.3,0.5-0.5,0.7c-0.2,0.2-0.4,0.2-0.7,0.2c-0.3,0-0.5-0.1-0.7-0.3c-0.2-0.2-0.3-0.4-0.3-0.7C98,36.8,98.1,36.4,98.4,36z
		 M97.3,38.1c0.1,0.3,0.3,0.5,0.6,0.7c0.3,0.2,0.6,0.3,1,0.3c0.4,0,0.9-0.1,1.2-0.3c0.4-0.2,0.6-0.5,0.8-1c0.2-0.4,0.3-0.8,0.3-1.3
		c0-0.5-0.2-1-0.5-1.3c-0.3-0.3-0.7-0.5-1.3-0.5c-0.4,0-0.7,0.1-1,0.2c-0.3,0.2-0.6,0.4-0.8,0.6c-0.2,0.3-0.3,0.6-0.4,1
		c-0.1,0.3-0.1,0.5-0.1,0.8C97.1,37.5,97.2,37.8,97.3,38.1z"/>
	<path class="st1" d="M102.1,38.9l0.9-4.2h0.9l-0.7,3.5h2.1l-0.2,0.7H102.1z"/>
	<path class="st1" d="M107.3,34.7h0.9l-0.5,2.3l-0.1,0.6c0,0,0,0.1,0,0.2c0,0.2,0.1,0.3,0.2,0.4c0.1,0.1,0.3,0.1,0.6,0.1
		c0.2,0,0.4,0,0.6-0.1c0.1-0.1,0.3-0.2,0.3-0.3c0.1-0.2,0.2-0.4,0.2-0.8l0.5-2.3h0.9l-0.5,2.4c-0.1,0.5-0.2,0.8-0.4,1.1
		c-0.1,0.2-0.3,0.4-0.6,0.6c-0.3,0.2-0.6,0.2-1.1,0.2c-0.5,0-0.9-0.1-1.2-0.4c-0.3-0.2-0.4-0.5-0.4-0.9c0-0.1,0-0.2,0-0.3
		c0-0.1,0-0.2,0.1-0.5L107.3,34.7z"/>
	<path class="st1" d="M113.2,38.9h-0.9l0.7-3.5h-1.2l0.1-0.7h3.3l-0.1,0.7h-1.2L113.2,38.9z"/>
	<path class="st1" d="M115.6,38.9l0.9-4.2h0.9l-0.9,4.2H115.6z"/>
	<path class="st1" d="M119.5,36c0.3-0.4,0.6-0.6,1-0.6c0.3,0,0.5,0.1,0.7,0.3c0.2,0.2,0.3,0.4,0.3,0.8c0,0.3-0.1,0.6-0.2,0.9
		c-0.1,0.3-0.3,0.5-0.5,0.7c-0.2,0.2-0.4,0.2-0.7,0.2c-0.3,0-0.5-0.1-0.7-0.3c-0.2-0.2-0.3-0.4-0.3-0.7
		C119.1,36.8,119.2,36.4,119.5,36z M118.4,38.1c0.1,0.3,0.3,0.5,0.6,0.7c0.3,0.2,0.6,0.3,1,0.3c0.4,0,0.9-0.1,1.2-0.3
		c0.4-0.2,0.6-0.5,0.8-1c0.2-0.4,0.3-0.8,0.3-1.3c0-0.5-0.2-1-0.5-1.3c-0.3-0.3-0.7-0.5-1.3-0.5c-0.4,0-0.7,0.1-1,0.2
		c-0.3,0.2-0.6,0.4-0.8,0.6c-0.2,0.3-0.3,0.6-0.4,1c-0.1,0.3-0.1,0.5-0.1,0.8C118.2,37.5,118.3,37.8,118.4,38.1z"/>
	<path class="st1" d="M126.6,38.9h-0.8l-1.1-2.8l-0.6,2.8h-0.8l0.9-4.2h0.8l1.1,2.8l0.6-2.8h0.8L126.6,38.9z"/>
	<path class="st1" d="M128.3,37.6l0.8,0c0,0.3,0.1,0.4,0.1,0.5c0.1,0.1,0.4,0.2,0.7,0.2c0.3,0,0.5-0.1,0.6-0.2
		c0.1-0.1,0.2-0.2,0.2-0.4c0-0.1-0.1-0.2-0.2-0.3c-0.1-0.1-0.3-0.2-0.6-0.3c-0.3-0.1-0.6-0.3-0.7-0.4c-0.1-0.1-0.3-0.2-0.4-0.4
		c-0.1-0.2-0.1-0.3-0.1-0.5c0-0.4,0.1-0.6,0.4-0.9c0.3-0.2,0.6-0.4,1.1-0.4c0.5,0,0.9,0.1,1.1,0.3c0.3,0.2,0.4,0.5,0.4,0.9l-0.8,0
		c0-0.2-0.1-0.4-0.2-0.5c-0.1-0.1-0.3-0.2-0.5-0.2c-0.2,0-0.4,0-0.5,0.1c-0.1,0.1-0.2,0.2-0.2,0.3c0,0.1,0,0.2,0.1,0.3
		c0.1,0.1,0.3,0.2,0.6,0.3c0.5,0.2,0.8,0.4,0.9,0.5c0.2,0.2,0.3,0.4,0.3,0.7c0,0.4-0.1,0.7-0.4,0.9c-0.3,0.3-0.7,0.4-1.2,0.4
		c-0.4,0-0.7-0.1-0.9-0.2c-0.3-0.1-0.4-0.3-0.6-0.5C128.3,38.1,128.3,37.8,128.3,37.6z"/>
	<path class="st1" d="M134.3,35.9l0.2,0c0,0.1,0,0.2,0.1,0.2c0,0.1,0.1,0.1,0.2,0.1c0.1,0,0.2,0.1,0.3,0.1c0.1,0,0.2,0,0.2,0
		c0.1,0,0.1-0.1,0.1-0.1c0,0,0-0.1,0-0.1c0-0.1,0-0.1,0-0.1c0,0-0.1-0.1-0.2-0.1c0,0-0.1,0-0.3-0.1c-0.2,0-0.3-0.1-0.3-0.1
		c-0.1,0-0.1-0.1-0.2-0.2c0-0.1-0.1-0.1-0.1-0.2c0-0.1,0-0.2,0.1-0.2c0-0.1,0.1-0.1,0.2-0.2c0.1,0,0.2-0.1,0.3-0.1
		c0.1,0,0.2,0,0.3,0.1c0.1,0,0.2,0.1,0.2,0.2c0.1,0.1,0.1,0.2,0.1,0.3l-0.2,0c0-0.1-0.1-0.2-0.1-0.2c-0.1-0.1-0.2-0.1-0.3-0.1
		c-0.1,0-0.2,0-0.3,0.1c-0.1,0.1-0.1,0.1-0.1,0.2c0,0.1,0,0.1,0.1,0.2c0,0,0.2,0.1,0.3,0.1c0.2,0,0.3,0.1,0.4,0.1
		c0.1,0,0.2,0.1,0.2,0.2c0,0.1,0.1,0.2,0.1,0.2c0,0.1,0,0.2-0.1,0.3c-0.1,0.1-0.1,0.1-0.2,0.2c-0.1,0-0.2,0.1-0.3,0.1
		c-0.2,0-0.3,0-0.4-0.1c-0.1,0-0.2-0.1-0.2-0.2C134.4,36.1,134.3,36,134.3,35.9z"/>
	<path class="st1" d="M136.3,36.5v-1.7h0.3l0.4,1.2c0,0.1,0.1,0.2,0.1,0.3c0-0.1,0.1-0.2,0.1-0.3l0.4-1.2h0.3v1.7h-0.2V35l-0.5,1.4
		H137l-0.5-1.5v1.5H136.3z"/>
</g>
</svg>
