<?xml version="1.0" encoding="utf-8"?>
<!-- Generator: Adobe Illustrator 19.0.0, SVG Export Plug-In . SVG Version: 6.00 Build 0)  -->
<svg version="1.1" id="Layer_1" xmlns="http://www.w3.org/2000/svg" xmlns:xlink="http://www.w3.org/1999/xlink" x="0px" y="0px"
	 viewBox="0 0 82 70.5913" style="enable-background:new 0 0 82 70.5913;" xml:space="preserve">
<style type="text/css">
	.st0{fill:#231F20;}
	.st1{fill:#FCD800;}
	.st2{fill:#010101;}
</style>
<g id="XMLID_6_">
	<rect id="XMLID_36_" class="st0" width="82" height="70.5913"/>
	<rect id="XMLID_35_" x="8.9722" y="5.0586" class="st1" width="64.7679" height="60.3821"/>
	<path id="XMLID_32_" class="st2" d="M75.7201,67.4216H6.9922V3.0795h68.7279V67.4216z M8.9722,65.4407h64.7679V5.0586H8.9722
		V65.4407z"/>
	<path id="XMLID_21_" class="st2" d="M41.439,54.8769c-0.1936-0.1472-0.4582-0.2216-0.7964-0.2216H39.777v1.7916h0.6851
		c0.8419,0,1.2668-0.3014,1.2668-0.9042C41.729,55.2458,41.6309,55.0232,41.439,54.8769 M47.796,57.2897h1.3282l-0.6413-2.3085
		L47.796,57.2897z M31.9017,54.6404c-0.5887,0-1.0855,0.2181-1.4955,0.6606c-0.41,0.4407-0.6141,1.0872-0.6141,1.9397
		c0,0.7526,0.2024,1.3562,0.6063,1.8065c0.4047,0.4512,0.905,0.679,1.5034,0.679c0.5896,0,1.0873-0.2234,1.4999-0.6641
		c0.41-0.4433,0.6159-1.0811,0.6159-1.916c0-0.7456-0.1954-1.3492-0.5887-1.8118C33.0371,54.8708,32.5272,54.6404,31.9017,54.6404
		 M11.1792,63.0247h60.3549V51.3366H11.1792V63.0247z M18.8381,60.548c-0.4416,0.3828-0.9628,0.5721-1.5647,0.5721
		c-0.6729,0-1.1898-0.2505-1.5542-0.7456v0.6518h-1.301v-2.6117h1.301c0.0149,0.4775,0.1384,0.827,0.375,1.0557
		c0.2339,0.226,0.5029,0.339,0.8043,0.339c0.2357,0,0.4328-0.0815,0.5966-0.2453c0.1595-0.163,0.2418-0.3548,0.2418-0.5782
		c0-0.2339-0.0797-0.4302-0.2374-0.5896c-0.1586-0.1595-0.4468-0.3417-0.8656-0.5485c-0.8866-0.4249-1.4894-0.8025-1.8057-1.1302
		c-0.318-0.3294-0.4766-0.7683-0.4766-1.3238c0-0.6711,0.2103-1.1898,0.629-1.5586c0.4205-0.3671,0.8954-0.552,1.4289-0.552
		c0.6071,0,1.0811,0.2383,1.4132,0.714V53.363h1.2958v2.3287h-1.2958c-0.0377-0.3601-0.1621-0.6378-0.3697-0.8349
		c-0.2076-0.1962-0.4494-0.2944-0.7254-0.2944c-0.2138,0-0.3934,0.0561-0.5414,0.1708c-0.1463,0.113-0.219,0.2611-0.219,0.4459
		c0,0.1577,0.0605,0.3084,0.1814,0.4494c0.1218,0.1411,0.4757,0.3417,1.0653,0.6019c0.566,0.2523,1.0023,0.4801,1.3037,0.6851
		c0.304,0.2033,0.5414,0.4678,0.7175,0.7929c0.1761,0.3242,0.2654,0.7026,0.2654,1.1284
		C19.5004,59.5947,19.2796,60.1651,18.8381,60.548 M27.0253,56.4425h-1.301v-1.7873h-1.1836v5.0762h1.1512v1.2949h-4.2991v-1.2949
		h1.1521v-5.0762h-1.1521v1.7873h-1.3177V53.363h6.9502V56.4425z M35.0215,59.9758C34.2611,60.738,33.222,61.12,31.9017,61.12
		c-1.3693,0-2.4215-0.3925-3.1566-1.1766c-0.7368-0.7833-1.1021-1.7058-1.1021-2.7632c0-1.096,0.3767-2.0264,1.1319-2.7922
		c0.7552-0.7657,1.7969-1.1477,3.1268-1.1477c1.3238,0,2.3629,0.382,3.1233,1.1468c0.7579,0.7631,1.1381,1.6935,1.1381,2.793
		C36.1631,58.2823,35.7829,59.2145,35.0215,59.9758 M52.5909,61.0263h-3.769v-1.2949h0.9795l-0.3636-1.3168h-1.9896l-0.4065,1.3168
		h1.0233v1.2949h-5.678l-1.7321-3.3555H39.777v2.0606h0.9593v1.2949h-4.0055v-1.2949h1.0513v-5.0762h-1.0513V53.363h4.6232
		c0.87,0,1.4964,0.2182,1.881,0.6571c0.3855,0.4381,0.5765,0.9357,0.5765,1.4903c0,0.8708-0.4416,1.5051-1.3273,1.9055
		l1.2449,2.3156h1.8898l1.492-5.0762h-1.018V53.363h5.0034v1.2923H50.066l1.6112,5.0762h0.9138V61.0263z M60.6003,59.3678
		c-0.3355,0.5432-0.8244,0.9707-1.4657,1.2835c-0.6396,0.3128-1.3597,0.4687-2.1561,0.4687c-1.386,0-2.4496-0.3706-3.1882-1.1126
		c-0.7403-0.7421-1.1118-1.6848-1.1118-2.8272c0-0.7946,0.1849-1.4955,0.5519-2.1027c0.3662-0.608,0.8612-1.0662,1.4833-1.3746
		c0.6203-0.3101,1.294-0.4626,2.0203-0.4626c1.0294,0,1.8311,0.2497,2.4049,0.7499V53.363h1.3001v2.7194H59.139
		c-0.1358-0.4582-0.4065-0.8209-0.813-1.0864c-0.4013-0.2628-0.8349-0.396-1.2984-0.396c-0.6098,0-1.1302,0.2164-1.5595,0.6492
		c-0.4302,0.4319-0.644,1.0286-0.644,1.7925c0,0.8744,0.2164,1.5428,0.6545,1.9975c0.4363,0.4573,0.9698,0.6869,1.5989,0.6869
		c0.4617,0,0.8472-0.1113,1.1529-0.3373c0.3031-0.2234,0.5152-0.5362,0.6308-0.9348H57.512v-1.2966h3.5938
		C61.1058,58.0878,60.9367,58.8238,60.6003,59.3678 M68.3617,55.7907h-1.4649v-1.1354h-2.3751v1.7706h1.9161v1.294h-1.9161v2.0115
		h2.3751v-1.146h1.4649v2.4408h-6.7557v-1.2949h0.9199v-5.0762h-0.9199V53.363h6.7557V55.7907z"/>
	<polygon id="XMLID_20_" class="st2" points="11.4384,49.1745 11.4384,47.9112 12.4407,47.9112 12.4407,42.9533 11.4384,42.9533 
		11.4384,41.6882 14.5845,41.6882 17.339,46.3569 17.339,42.9533 16.3648,42.9533 16.3648,41.6882 19.7246,41.6882 19.7246,42.9533 
		18.6751,42.9533 18.6751,49.2297 17.0052,49.2297 13.7759,43.6804 13.7759,47.9112 14.7186,47.9112 14.7186,49.1745 	"/>
	<path id="XMLID_17_" class="st2" d="M27.3172,47.9112v1.2633h-3.6814v-1.2633h0.9585l-0.3539-1.287h-1.9432l-0.4004,1.287h1.0023
		v1.2633h-3.3169v-1.2633h0.9269l1.4596-4.9579h-0.997v-1.2651h4.8887v1.2651h-1.0075l1.5726,4.9579H27.3172z M23.9311,45.5264
		l-0.6229-2.2551l-0.6737,2.2551H23.9311z"/>
	<polygon id="XMLID_16_" class="st2" points="28.6046,49.1745 28.6046,47.9112 29.7286,47.9112 29.7286,42.9533 28.6046,42.9533 
		28.6046,44.6967 27.3167,44.6967 27.3167,41.6882 34.1056,41.6882 34.1056,44.6967 32.8353,44.6967 32.8353,42.9533 
		31.6771,42.9533 31.6771,47.9112 32.8011,47.9112 32.8011,49.1745 	"/>
	<polygon id="XMLID_15_" class="st2" points="34.7878,49.1745 34.7878,47.9112 35.9215,47.9112 35.9215,42.9533 34.7878,42.9533 
		34.7878,41.6882 39.0176,41.6882 39.0176,42.9533 37.8717,42.9533 37.8717,47.9112 39.0176,47.9112 39.0176,49.1745 	"/>
	<path id="XMLID_12_" class="st2" d="M43.6344,41.5685c1.2922,0,2.3094,0.3741,3.0514,1.1223
		c0.7386,0.7447,1.1101,1.6532,1.1101,2.7273c0,1.0776-0.3715,1.987-1.1136,2.7326c-0.7438,0.7438-1.7583,1.117-3.0479,1.117
		c-1.3378,0-2.3673-0.3837-3.0848-1.1503c-0.7158-0.764-1.075-1.6646-1.075-2.6993c0-1.068,0.368-1.9782,1.1065-2.7264
		C41.3189,41.9452,42.3369,41.5685,43.6344,41.5685 M43.6344,42.9378c-0.5739,0-1.0601,0.2138-1.4614,0.6448
		c-0.3995,0.431-0.6001,1.0636-0.6001,1.895c0,0.735,0.1989,1.3247,0.5914,1.7662c0.3969,0.4398,0.8857,0.6606,1.4701,0.6606
		c0.5756,0,1.0618-0.2146,1.464-0.6483c0.4013-0.431,0.6045-1.0548,0.6045-1.8696c0-0.7289-0.1927-1.3194-0.5765-1.7715
		C44.7427,43.1639,44.2442,42.9378,43.6344,42.9378"/>
	<polygon id="XMLID_11_" class="st2" points="48.0342,49.1745 48.0342,47.9112 49.0356,47.9112 49.0356,42.9533 48.0342,42.9533 
		48.0342,41.6882 51.1786,41.6882 53.9339,46.3569 53.9339,42.9533 52.9597,42.9533 52.9597,41.6882 56.3178,41.6882 
		56.3178,42.9533 55.2674,42.9533 55.2674,49.2297 53.601,49.2297 50.3699,43.6804 50.3699,47.9112 51.3126,47.9112 
		51.3126,49.1745 	"/>
	<path id="XMLID_8_" class="st2" d="M63.8895,47.9112v1.2633h-3.684v-1.2633h0.9593l-0.3557-1.287H58.865l-0.3978,1.287h1.0014
		v1.2633h-3.3161v-1.2633h0.9269l1.4587-4.9579h-0.9961v-1.2651h4.8878v1.2651h-1.0067l1.5709,4.9579H63.8895z M60.5016,45.5264
		l-0.6238-2.2551l-0.672,2.2551H60.5016z"/>
	<polygon id="XMLID_7_" class="st2" points="64.5849,49.1745 64.5849,47.9112 65.6546,47.9112 65.6546,42.9533 64.5849,42.9533 
		64.5849,41.6882 68.6955,41.6882 68.6955,42.9533 67.6021,42.9533 67.6021,47.9112 69.8152,47.9112 69.8152,45.5965 
		71.2748,45.5965 71.2748,49.1745 	"/>
</g>
</svg>
