<svg height="60" viewBox="0 0 468 60" width="468" xmlns="http://www.w3.org/2000/svg" xmlns:xlink="http://www.w3.org/1999/xlink"><linearGradient id="a"><stop offset="0" stop-color="#d49442"/><stop offset="1" stop-color="#936f44"/></linearGradient><linearGradient id="b" x1="-.001032%" x2="99.999996%" xlink:href="#a" y1="49.999392%" y2="49.999392%"/><linearGradient id="c" x1="-.021853%" x2="100.01315%" xlink:href="#a" y1="50.011483%" y2="50.011483%"/><linearGradient id="d" x1="-.007249%" x2="100.000094%" xlink:href="#a" y1="50.001315%" y2="50.001315%"/><linearGradient id="e" x1=".000081%" x2="99.995137%" xlink:href="#a" y1="49.999988%" y2="49.999988%"/><linearGradient id="f" x1="-.013839%" x2="100.000086%" xlink:href="#a" y1="50.006949%" y2="50.006949%"/><mask id="g" fill="#fff"><path d="m23.281238.00252982v.41916538c.9345084.14033407 1.6495264.32181321 2.1457979.54553952.4947835.22409368.9553414.60174662 1.3801856 1.13259147.736223.8952726 1.2886692 2.05541657 1.6573387 3.48190139.3679255 1.42611745.5520743 3.16082291.5520743 5.20191222v6.2926238l-15.1664165-17.07373378h-13.84835791v.41916538c.93413638.02791987 1.72058174.13335411 2.35710397.31483325.63726628.18221387 1.28160089.48235245 1.93263182.90188519.65177496.44781999 1.13279381.8952726 1.44528866 1.34235785.31137879.44745262.5304972 1.03487194.65809926 1.76152323.12760206.72812076.19121708 1.73470546.19121708 3.0208562v7.59310188c0 2.8250498-.20609779 5.0692928-.61606126 6.7330965-.41070751 1.6638037-1.0903838 2.922402-2.03902887 3.7754274-.9493891.8530254-2.25889131 1.4198722-3.92925066 1.6987035v.4195328h13.46592371v-.4195328c-1.2462592-.1116795-2.2090409-.3629583-2.8887172-.7549385-.68004834-.3916129-1.30280592-1.034872-1.86901682-1.9297772-.56695493-.9228251-.97059411-2.0763565-1.21128954-3.4605941-.24032342-1.384605-.36048513-3.1678029-.36048513-5.3488589v-11.95594854l22.43043359 25.25425504v-16.7802078c0-2.2927355.1551314-4.20157276.4672542-5.72614448.3113788-1.52420435.7923976-2.83166236 1.4445446-3.92237403.5375655-.866618 1.1108448-1.46836462 1.7202097-1.80413776.6086209-.33540578 1.493279-.57272466 2.6550902-.71305873v-.41916538z" fill="#fff" fill-rule="evenodd"/></mask><mask id="h" fill="#fff"><path d="m4.22981366.03884817c-.7773913.00109513-1.4910559.17777554-2.13987577.52931116-.64956522.35190065-1.15937888.82901077-1.53167702 1.43096532-.37267081.60195454-.5578882 1.26852155-.55640644 1.99970103.00075427.73190956.18858035 1.39774648.56348719 1.9986059.37416149.60049438.88621118 1.07541425 1.5368944 1.42512465.64993789.34971041 1.36434783.52383552 2.14211181.52202451.77701863-.00074428 1.48993788-.17450436 2.13987577-.52165947.64770187-.34679006 1.16086957-.81878959 1.53950311-1.41563355.37677018-.59684395.56496894-1.25063449.56385588-1.96246673-.00112296-.63152296-.11739625-1.19222774-.34845216-1.68284442-.2310559-.49061668-.5821118-.93085754-1.05354037-1.32108763-.41962733-.33985426-.86273292-.59209841-1.32857143-.75673243-.46322981-.16353889-.96857143-.24530834-1.51714285-.24530834zm-.80049689 7.26105389c-.30745342-.42052858-.46285714-1.52222587-.46583851-3.30582193-.00149068-.7417657.02795031-1.38825539.08832298-1.93910403.06037267-.55121368.14124224-.93706326.24372671-1.15791378.20347826-.44097094.51503106-.6621865.93465839-.66291933.34770186-.00072734.6242236.14419441.82956521.43440293.30745342.44060591.46248447 1.55763496.46583851 3.35145221.00111801.72132333-.02757764 1.36014714-.08832298 1.91610637-.06037267.55668931-.14198758.9399836-.24335404 1.15024789-.2042236.44170103-.51577639.6621865-.93503105.66328163h-.00223603c-.34695652 0-.62273292-.14966729-.82732919-.44973196z" fill="#fff" fill-rule="evenodd"/></mask><mask id="i" fill="#fff"><path d="m2.49031429.00294186c-.29602858.00073546-.56531429.07464958-.81008572.22137464-.24477143.14672505-.44051428.34125525-.5876.58395835-.14782857.24270309-.22137143.51041195-.22063414.80275886.00074843.29308237.07429128.5626299.22323414.81011351.1482.24711587.34728572.44348474.59725714.58947433.24997143.14562185.52297143.21843278.81825715.21806643.28562857-.00073685.55342857-.07465097.80302857-.22137602.2496-.14635732.44794286-.34125526.59577143-.58359062.14708571-.24307082.22062857-.50526371.21989128-.78804959-.00074843-.30301113-.07206271-.5777069-.21543414-.82482278-.14337143-.24674814-.34022857-.44348474-.58982857-.58947433-.24885714-.14488639-.52557143-.21843278-.83014286-.21843278zm-.2834 7.3193369c-.79448572.2335098-1.52842858.42656908-2.20034286.57917784l.03045714.15113783c.25442857.0194898.45834286.06251444.61137143.12760299.1534.06582402.28117143.16878897.38331429.30999804.12257142.16143433.20465714.35044856.24551428.56704268.04122857.21769732.06277143.55821712.06314286 1.02229486l.00445714 2.4829262c.00074286.5453465-.02451428.9336714-.07465714 1.166078-.05051429.2331421-.15005714.3894282-.29751429.4699615-.14745714.0812687-.39482857.1320157-.74137143.1529765l.00037143.1511378 4.93962857-.0080901v-.1518733c-.34691428-.0194898-.59428571-.0695014-.74211428-.1500347-.14782857-.0805333-.24737143-.2390257-.299-.4762128-.05162857-.2371872-.07762857-.6233057-.07837143-1.1583557l-.0104-5.82965475c-.42788571.16253753-1.03925714.36000959-1.83448571.59388711z" fill="#fff" fill-rule="evenodd"/></mask><mask id="j" fill="#fff"><path d="m6.23641558.01110497c-.48783116.00109512-.9145909.18471134-1.2787987.55084864-.36605844.36686738-.69991558.95093486-1.00268182 1.75293252l-.00444155-2.2997657c-.86351299.3124761-1.52345455.53624696-1.98056494.67240769-.45711039.13616073-1.09632467.30006466-1.91949351.49171181l.03035065.15039737c.25427923.01971228.45785065.06169213.61034416.12666964.15249351.06461246.27944805.16718931.38197403.30773055.12177272.15988847.20320129.34752015.24428571.56289503.04108442.21573993.06255195.55376898.06255195 1.0144522l.00481169 2.46512981c.00111039.5409925-.02627922.92720712-.0817987 1.15754873-.05551949.23070666-.16211689.38621462-.31942208.4665239-.15693507.08067432-.42935065.13105014-.81502598.15185754l.00037013.15003234 5.13592208-.00839597-.00037013-.15039738c-.38641558-.01971227-.65735065-.06899297-.8153961-.14930225-.15804546-.07957919-.26464286-.23472211-.3209026-.46542877-.05625974-.23034161-.08475974-.61582615-.08587013-1.15718369l-.00333117-1.87850703c-.00111039-.46068322.00555195-.81696439.0210974-1.06774836.01443507-.25041893.03923377-.45082709.07476624-.60122446.03553247-.15076242.09364285-.29568416.1747013-.4362254.12177272-.21062933.27833766-.31612652.47191558-.31649157.08105844 0 .15952597.02263262.23614286.06753281.07661688.04490018.15545454.12265417.23688311.23253186.12251299.17010966.21097403.28765324.26723377.35263074.05551948.06534255.11474026.12265417.17544156.17266495.09179221.08030928.20098052.14236645.32830519.18690159.12732468.04526523.2565.06789785.38863637.06753281.2131948-.00036505.41158441-.05585146.59405844-.16682428.18284416-.11024273.32423377-.26064011.42601948-.45155717.10141558-.19018697.15175325-.40592689.15175325-.64648969-.00037013-.24056279-.06218182-.46068322-.18469481-.66109137-.12214286-.20004312-.29018182-.35737629-.50374675-.47236458-.21282468-.11462324-.4460065-.17193486-.69917533-.17193486z" fill="#fff" fill-rule="evenodd"/></mask><mask id="k" fill="#fff"><path d="m4.2178882.00161387c-.76695652.00146017-1.47093168.18252109-2.1089441.54464293-.63913044.36175679-1.14186335.8534686-1.5089441 1.47550046-.36708074.62239691-.55006211 1.30356561-.54894919 2.04496626.00149577.71183224.17888708 1.36306748.53255167 1.95334068.35440994.59100328.84111802 1.05314667 1.46086957 1.38789035.61900621.33474367 1.30695652.50156794 2.0642236.50047817.59329193-.00110048 1.14074534-.11499364 1.64161491-.34168483.50086956-.2259611.92981366-.54975351 1.28720497-.97137722.21465838-.26100516.39503105-.52164527.54372671-.78301547.14757764-.26027507.30298136-.60597001.46583851-1.03744986l-.13826087-.05986691c-.31565218.46177835-.66596274.79506185-1.049441 1.00167572-.38273292.20588379-.84596273.30919072-1.38782608.31028585-.84968945.00109513-1.48695653-.22815136-1.91180125-.68846954-.42521739-.45995314-.64472049-1.16083412-.65552795-2.10300797l5.07875777-.00876101c-.05180125-.40081631-.12596274-.72898922-.22397516-.9841537-.09801242-.25516448-.23925466-.50813871-.42372671-.7581926-.34919254-.47053936-.79677018-.83521649-1.34496894-1.09512652-.54447205-.25844986-1.13217391-.38767479-1.76273292-.38767479zm-.99540373.94107873c.22322982-.49645736.54559006-.74505108.96521739-.74578245.25602485-.00036376.45726708.07702518.60633541.23216811.14832298.15514292.26347826.40264152.34732919.74322586.04024845.21062934.0689441.45374743.08496894.72898923.01602485.27560684.02422361.65890112.02571429 1.14988284l-2.36386569.00401547c-.00147593-.91187535.10995265-1.61640675.33430047-2.11249906z" fill="#fff" fill-rule="evenodd"/></mask><g fill="none" fill-rule="evenodd"><path d="m23.281238.00252982v.41916538c.9345084.14033407 1.6495264.32181321 2.1457979.54553952.4947835.22409368.9553414.60174662 1.3801856 1.13259147.736223.8952726 1.2886692 2.05541657 1.6573387 3.48190139.3679255 1.42611745.5520743 3.16082291.5520743 5.20191222v6.2926238l-15.1664165-17.07373378h-13.84835791v.41916538c.93413638.02791987 1.72058174.13335411 2.35710397.31483325.63726628.18221387 1.28160089.48235245 1.93263182.90188519.65177496.44781999 1.13279381.8952726 1.44528866 1.34235785.31137879.44745262.5304972 1.03487194.65809926 1.76152323.12760206.72812076.19121708 1.73470546.19121708 3.0208562v7.59310188c0 2.8250498-.20609779 5.0692928-.61606126 6.7330965-.41070751 1.6638037-1.0903838 2.922402-2.03902887 3.7754274-.9493891.8530254-2.25889131 1.4198722-3.92925066 1.6987035v.4195328h13.46592371v-.4195328c-1.2462592-.1116795-2.2090409-.3629583-2.8887172-.7549385-.68004834-.3916129-1.30280592-1.034872-1.86901682-1.9297772-.56695493-.9228251-.97059411-2.0763565-1.21128954-3.4605941-.24032342-1.384605-.36048513-3.1678029-.36048513-5.3488589v-11.95594854l22.43043359 25.25425504v-16.7802078c0-2.2927355.1551314-4.20157276.4672542-5.72614448.3113788-1.52420435.7923976-2.83166236 1.4445446-3.92237403.5375655-.866618 1.1108448-1.46836462 1.7202097-1.80413776.6086209-.33540578 1.493279-.57272466 2.6550902-.71305873v-.41916538z" fill="url(#b)" mask="url(#g)" transform="translate(217 11.775258)"/><path d="m4.22981366.03884817c-.7773913.00109513-1.4910559.17777554-2.13987577.52931116-.64956522.35190065-1.15937888.82901077-1.53167702 1.43096532-.37267081.60195454-.5578882 1.26852155-.55640644 1.99970103.00075427.73190956.18858035 1.39774648.56348719 1.9986059.37416149.60049438.88621118 1.07541425 1.5368944 1.42512465.64993789.34971041 1.36434783.52383552 2.14211181.52202451.77701863-.00074428 1.48993788-.17450436 2.13987577-.52165947.64770187-.34679006 1.16086957-.81878959 1.53950311-1.41563355.37677018-.59684395.56496894-1.25063449.56385588-1.96246673-.00112296-.63152296-.11739625-1.19222774-.34845216-1.68284442-.2310559-.49061668-.5821118-.93085754-1.05354037-1.32108763-.41962733-.33985426-.86273292-.59209841-1.32857143-.75673243-.46322981-.16353889-.96857143-.24530834-1.51714285-.24530834zm-.80049689 7.26105389c-.30745342-.42052858-.46285714-1.52222587-.46583851-3.30582193-.00149068-.7417657.02795031-1.38825539.08832298-1.93910403.06037267-.55121368.14124224-.93706326.24372671-1.15791378.20347826-.44097094.51503106-.6621865.93465839-.66291933.34770186-.00072734.6242236.14419441.82956521.43440293.30745342.44060591.46248447 1.55763496.46583851 3.35145221.00111801.72132333-.02757764 1.36014714-.08832298 1.91610637-.06037267.55668931-.14198758.9399836-.24335404 1.15024789-.2042236.44170103-.51577639.6621865-.93503105.66328163h-.00223603c-.34695652 0-.62273292-.14966729-.82732919-.44973196z" fill="url(#c)" mask="url(#h)" transform="translate(217 41.193815)"/><path d="m2.49031429.00294186c-.29602858.00073546-.56531429.07464958-.81008572.22137464-.24477143.14672505-.44051428.34125525-.5876.58395835-.14782857.24270309-.22137143.51041195-.22063414.80275886.00074843.29308237.07429128.5626299.22323414.81011351.1482.24711587.34728572.44348474.59725714.58947433.24997143.14562185.52297143.21843278.81825715.21806643.28562857-.00073685.55342857-.07465097.80302857-.22137602.2496-.14635732.44794286-.34125526.59577143-.58359062.14708571-.24307082.22062857-.50526371.21989128-.78804959-.00074843-.30301113-.07206271-.5777069-.21543414-.82482278-.14337143-.24674814-.34022857-.44348474-.58982857-.58947433-.24885714-.14488639-.52557143-.21843278-.83014286-.21843278zm-.2834 7.3193369c-.79448572.2335098-1.52842858.42656908-2.20034286.57917784l.03045714.15113783c.25442857.0194898.45834286.06251444.61137143.12760299.1534.06582402.28117143.16878897.38331429.30999804.12257142.16143433.20465714.35044856.24551428.56704268.04122857.21769732.06277143.55821712.06314286 1.02229486l.00445714 2.4829262c.00074286.5453465-.02451428.9336714-.07465714 1.166078-.05051429.2331421-.15005714.3894282-.29751429.4699615-.14745714.0812687-.39482857.1320157-.74137143.1529765l.00037143.1511378 4.93962857-.0080901v-.1518733c-.34691428-.0194898-.59428571-.0695014-.74211428-.1500347-.14782857-.0805333-.24737143-.2390257-.299-.4762128-.05162857-.2371872-.07762857-.6233057-.07837143-1.1583557l-.0104-5.82965475c-.42788571.16253753-1.03925714.36000959-1.83448571.59388711z" fill="url(#d)" mask="url(#i)" transform="translate(225.828571 34.430928)"/><path d="m6.23641558.01110497c-.48783116.00109512-.9145909.18471134-1.2787987.55084864-.36605844.36686738-.69991558.95093486-1.00268182 1.75293252l-.00444155-2.2997657c-.86351299.3124761-1.52345455.53624696-1.98056494.67240769-.45711039.13616073-1.09632467.30006466-1.91949351.49171181l.03035065.15039737c.25427923.01971228.45785065.06169213.61034416.12666964.15249351.06461246.27944805.16718931.38197403.30773055.12177272.15988847.20320129.34752015.24428571.56289503.04108442.21573993.06255195.55376898.06255195 1.0144522l.00481169 2.46512981c.00111039.5409925-.02627922.92720712-.0817987 1.15754873-.05551949.23070666-.16211689.38621462-.31942208.4665239-.15693507.08067432-.42935065.13105014-.81502598.15185754l.00037013.15003234 5.13592208-.00839597-.00037013-.15039738c-.38641558-.01971227-.65735065-.06899297-.8153961-.14930225-.15804546-.07957919-.26464286-.23472211-.3209026-.46542877-.05625974-.23034161-.08475974-.61582615-.08587013-1.15718369l-.00333117-1.87850703c-.00111039-.46068322.00555195-.81696439.0210974-1.06774836.01443507-.25041893.03923377-.45082709.07476624-.60122446.03553247-.15076242.09364285-.29568416.1747013-.4362254.12177272-.21062933.27833766-.31612652.47191558-.31649157.08105844 0 .15952597.02263262.23614286.06753281.07661688.04490018.15545454.12265417.23688311.23253186.12251299.17010966.21097403.28765324.26723377.35263074.05551948.06534255.11474026.12265417.17544156.17266495.09179221.08030928.20098052.14236645.32830519.18690159.12732468.04526523.2565.06789785.38863637.06753281.2131948-.00036505.41158441-.05585146.59405844-.16682428.18284416-.11024273.32423377-.26064011.42601948-.45155717.10141558-.19018697.15175325-.40592689.15175325-.64648969-.00037013-.24056279-.06218182-.46068322-.18469481-.66109137-.12214286-.20004312-.29018182-.35737629-.50374675-.47236458-.21282468-.11462324-.4460065-.17193486-.69917533-.17193486z" fill="url(#e)" mask="url(#j)" transform="translate(231.057143 41.193815)"/><path d="m4.2178882.00161387c-.76695652.00146017-1.47093168.18252109-2.1089441.54464293-.63913044.36175679-1.14186335.8534686-1.5089441 1.47550046-.36708074.62239691-.55006211 1.30356561-.54894919 2.04496626.00149577.71183224.17888708 1.36306748.53255167 1.95334068.35440994.59100328.84111802 1.05314667 1.46086957 1.38789035.61900621.33474367 1.30695652.50156794 2.0642236.50047817.59329193-.00110048 1.14074534-.11499364 1.64161491-.34168483.50086956-.2259611.92981366-.54975351 1.28720497-.97137722.21465838-.26100516.39503105-.52164527.54372671-.78301547.14757764-.26027507.30298136-.60597001.46583851-1.03744986l-.13826087-.05986691c-.31565218.46177835-.66596274.79506185-1.049441 1.00167572-.38273292.20588379-.84596273.30919072-1.38782608.31028585-.84968945.00109513-1.48695653-.22815136-1.91180125-.68846954-.42521739-.45995314-.64472049-1.16083412-.65552795-2.10300797l5.07875777-.00876101c-.05180125-.40081631-.12596274-.72898922-.22397516-.9841537-.09801242-.25516448-.23925466-.50813871-.42372671-.7581926-.34919254-.47053936-.79677018-.83521649-1.34496894-1.09512652-.54447205-.25844986-1.13217391-.38767479-1.76273292-.38767479zm-.99540373.94107873c.22322982-.49645736.54559006-.74505108.96521739-.74578245.25602485-.00036376.45726708.07702518.60633541.23216811.14832298.15514292.26347826.40264152.34732919.74322586.04024845.21062934.0689441.45374743.08496894.72898923.01602485.27560684.02422361.65890112.02571429 1.14988284l-2.36386569.00401547c-.00147593-.91187535.10995265-1.61640675.33430047-2.11249906z" fill="url(#f)" mask="url(#k)" transform="translate(238.771429 41.193815)"/></g></svg>