<svg height="60" viewBox="0 0 468 60" width="468" xmlns="http://www.w3.org/2000/svg" xmlns:xlink="http://www.w3.org/1999/xlink"><linearGradient id="a" x1="49.93594%" x2="49.93594%" y1=".000308%" y2="100.000103%"><stop offset="0" stop-color="#d49442"/><stop offset="1" stop-color="#a37946"/></linearGradient><mask id="b" fill="#fff"><path d="m.388542.5544h.516516v31.416h-.516516z" fill="#fff" fill-rule="evenodd"/></mask><g fill="none" fill-rule="evenodd"><path d="m.388542 31.9704h.516516v-31.416h-.516516z" fill="url(#a)" mask="url(#b)" transform="translate(182.91 15)"/><g fill="#cf913f" transform="translate(199.85 21.93)"><path d="m4.1051452 6.56854894c-.30743379.12976153-.61788162.19413935-.93134352.19413935-.49430529 0-.93837631-.08550179-1.33422242-.25751126-.39383674-.17200948-.72739235-.40940267-.99865745-.71117368-.2712651-.301771-.47923501-.65584899-.62390973-1.06323985s-.21701208-.84596472-.21701208-1.3177334c0-.48283361.07233736-.93046061.21701208-1.34388689s.35264463-.77454559.62390973-1.08235201c.2712651-.30680053.60482071-.54922324.99865745-.72425042.39584611-.17502719.83991713-.26254078 1.33422242-.26254078.33154624 0 .65304562.05029517.96248877.1498796.31145252.09958443.59075511.24544042.84092181.43857387.25016671.19413934.45713193.43153254.61989099.71519728.16275906.28366475.26222293.61058334.29839161.97773807h-1.3563255c-.08439359-.36212521-.24715265-.63371912-.48827718-.81478172-.24112454-.1800567-.53348804-.27159391-.8770905-.27159391-.31949001 0-.59075511.06236601-.8137953.18609212-.2230402.12372612-.4038836.28970017-.5425302.49792217-.13864661.20822199-.24011985.44460928-.30241036.71016777-.06429987.26656439-.09544512.54117601-.09544512.82383485 0 .27159391.03114525.53614649.09544512.79265185.06229051.25650535.16376375.48685722.30241036.69206151.1386466.20520429.31949.37017244.5425302.49389855.22304019.12372611.49430529.18508622.8137953.18508622.47019284 0 .83288433-.1186966 1.08907915-.35709569.25619482-.2383991.40589296-.58442986.44808976-1.03708637h-1.42866287v-1.05921624h2.71265101v3.49450828h-.904217l-.14467472-.73330355c-.25318076.32691859-.53348803.55425275-.84092181.68401428"/><path d="m14.80153.15450676v1.19501319h-3.4088981v1.38512892h3.1295955v1.10448189h-3.1295955v1.5842978h3.4812355v1.19501319h-4.9008562v-6.46393499z"/><path d="m18.1569788 1.34951995v-1.19501319h5.2896695v1.19501319h-1.9350244v5.2689218h-1.4196207v-5.2689218z"/><path d="m37.1901439.15450676v1.19501319h-3.4088981v1.38512892h3.1285909v1.10448189h-3.1285909v1.5842978h3.4812355v1.19501319h-4.9008562v-6.46393499z"/><path d="m44.3514421 4.11967721-.8137953-2.37192012h-.0180843l-.8409218 2.37192012zm-.0813795-3.96527104 2.4142594 6.46393499h-1.4738737l-.4882772-1.43944771h-2.4142594l-.5063615 1.43944771h-1.4286629l2.4413859-6.46393499z"/><path d="m53.0502107 3.07836605c.3245134 0 .568652-.07242504.7324157-.21727512.1627591-.14485009.2441386-.38023147.2441386-.70614416 0-.31384185-.0813795-.54218191-.2441386-.68401429-.1637637-.14082647-.4079023-.21224561-.7324157-.21224561h-1.5552533v1.81967918zm.5063615-2.92416107c.2893494 0 .549563.04727746.7816453.13982057.2320824.09455492.4310101.22230465.5967833.38526099.1657731.16295634.2923635.35206618.3797711.56632359.0874076.21425742.1316138.44460929.1316138.69206151 0 .38023147-.0803748.70916187-.2401198.9867912s-.4199586.48886903-.7816454.63371912v.01810626c.1748153.04828336.31949.12272021.4340242.22129874.1145341.09958443.2079699.21828102.2803072.35307207.0713327.13680286.124581.28567656.1577357.4486329.0341593.16295635.0562624.32591269.0683186.48886904.0060281.10260214.0110515.22331054.0170796.36212521.0060281.13881466.0170797.28064703.0331547.42549712.0140656.14485008.0391827.28265884.0713326.41141447.0331547.13076744.0833889.2404109.1486935.33094221h-1.418616c-.0783655-.20520429-.1265904-.44963881-.1446747-.73330355-.0180844-.28366475-.0452109-.55525866-.0813796-.81478172-.0482249-.33798353-.1507028-.58543576-.3074337-.74235668-.156731-.15692093-.4129258-.23538139-.7695892-.23538139h-1.418616v2.52582334h-1.4196207v-6.463935z"/><path d="m60.8532015.15450676v5.2689218h3.1466752v1.19501319h-4.5662959v-6.46393499z"/><path d="m66.9294393.15450676h1.5914219l1.5100424 2.55298272 1.5010003-2.55298272h1.5823797l-2.396175 3.9833773v2.48055769h-1.4196207v-2.51677021z"/><path d="m16.0131808 14.9832323-.8137953-2.3709142h-.0180844l-.8409218 2.3709142zm-.0813795-3.9642651 2.4142594 6.4629291h-1.4738738l-.4882771-1.4384418h-2.4142594l-.5063616 1.4384418h-1.4286628l2.4413859-6.4629291z"/><path d="m25.8785902 12.7429849c-.0853983-.1357969-.1898856-.2544935-.316476-.3570956-.1265904-.1036081-.2702604-.1830745-.4300054-.240411-.159745-.0573364-.3265228-.0865076-.5013381-.0865076-.3204947 0-.5907551.062366-.8148.1860921-.2220355.1237261-.4028789.2897001-.5425302.4979221-.1376419.208222-.2391151.4446093-.3024103.7111737-.0632952.2655585-.0944405.5401701-.0944405.8238349 0 .270588.0311453.5351406.0944405.7916459.0632952.2565054.1647684.4868572.3024103.6920615.1396513.2062102.3204947.3701725.5425302.4938986.2240449.1237261.4943053.1850862.8148.1850862.4330195 0 .7726032-.1327792 1.0177465-.3973318.2431339-.2665644.3918273-.6166188.447085-1.0501631h1.3744099c-.0361687.4033672-.1306091.7685101-.2803073 1.0954287-.1517075.3259127-.3496306.6025361-.5967832.832888-.2471526.2283401-.5365021.4033672-.8680483.5240757-.3315463.1207084-.6972518.1810626-1.0941026.1810626-.4943053 0-.939381-.0855018-1.3342224-.2575113s-.7273924-.4083968-.9986575-.7111737c-.2712651-.301771-.479235-.655849-.6249144-1.0642457-.14367-.406385-.2160074-.8449589-.2160074-1.3157216 0-.4838395.0723374-.9314665.2160074-1.3448928.1456794-.4134263.3536493-.7745456.6249144-1.082352.2712651-.3068006.6038161-.5492233.9986575-.7232446.3948414-.176033.8399171-.2635466 1.3342224-.2635466.354654 0 .6912237.0523069 1.0076996.1549091.316476.1026021.5997973.2514758.849964.447627.2501667.1961511.4571319.4385738.619891.7292799.1627591.2897002.2642323.6206424.3064291.9948384h-1.3744099c-.0231077-.1629563-.0773607-.31183-.1617543-.447627"/><path d="m35.4083341 12.7429849c-.0843936-.1357969-.1888809-.2544935-.3154713-.3570956-.127595-.1036081-.2712651-.1830745-.4300054-.240411-.159745-.0573364-.3275275-.0865076-.5023428-.0865076-.31949 0-.5907551.062366-.8137953.1860921s-.4038836.2897001-.5425302.4979221-.2391151.4446093-.303415.7111737c-.0622905.2655585-.0944404.5401701-.0944404.8238349 0 .270588.0321499.5351406.0944404.7916459.0642999.2565054.1647684.4868572.303415.6920615.1386466.2062102.31949.3701725.5425302.4938986s.4943053.1850862.8137953.1850862c.4340242 0 .7726032-.1327792 1.0177465-.3973318.2441386-.2665644.3928321-.6166188.4470851-1.0501631h1.3744098c-.0361686.4033672-.1296044.7685101-.2803072 1.0954287-.1507029.3259127-.3496306.6025361-.5967833.832888-.2471526.2283401-.5365021.4033672-.8680483.5240757-.3315462.1207084-.6962471.1810626-1.0941026.1810626-.4943053 0-.939381-.0855018-1.3332177-.2575113-.3958461-.1720095-.728397-.4083968-.9986574-.7111737-.2722698-.301771-.4802397-.655849-.6249145-1.0642457-.1446747-.406385-.217012-.8449589-.217012-1.3157216 0-.4838395.0723373-.9314665.217012-1.3448928.1446748-.4134263.3526447-.7745456.6249145-1.082352.2702604-.3068006.6028113-.5492233.9986574-.7232446.3938367-.176033.8389124-.2635466 1.3332177-.2635466.3556587 0 .6912237.0523069 1.0087043.1549091.3154713.1026021.5987926.2514758.8489593.447627.2501667.1961511.457132.4385738.619891.7292799.1627591.2897002.265237.6206424.3074338.9948384h-1.3744098c-.0241125-.1629563-.0783655-.31183-.1627591-.447627"/><path d="m45.6258858 11.0185648v1.1950132h-3.4088981v1.3851289h3.1295955v1.1044819h-3.1295955v1.5832919h3.4812354v1.1960191h-4.9008561v-6.463935z"/><path d="m50.572857 15.8889477c.0773608.1508855.1818481.2725998.3124572.3661488.1285998.0945549.281312.1629564.4561273.208222.1738106.0452657.354654.0684015.5425302.0684015.1265903 0 .2612182-.0100591.4068976-.032189.1446747-.020118.2793026-.0613601.405893-.1217143s.233087-.1428382.3174806-.249464c.0843936-.1046139.1265904-.239405.1265904-.4023613 0-.1750272-.0562624-.3168596-.1677825-.4254972-.1115201-.1086375-.2571995-.1991688-.4390476-.2715939-.1808434-.072425-.3857992-.1357969-.6138629-.1901157-.230073-.0543188-.4611506-.114673-.6972517-.1810626-.2411246-.0603542-.4752163-.1337852-.7052893-.2212987-.2280636-.0875136-.4330195-.2021866-.6138629-.3399954-.1818481-.1388146-.3275275-.31183-.4390476-.520052s-.1677825-.4607038-.1677825-.7564393c0-.3319482.0713327-.6196365.2129934-.8650769.1416606-.2434287.3275275-.447627.5555911-.6105834.230073-.1629563.4882772-.2836647.7786313-.3621252.2893494-.0784604.5786989-.1176907.8680483-.1176907.3375744 0 .6610831.0372184.9725356.1136671.3094432.0744368.5857317.1971571.8268563.3661488.2401198.1689918.4320148.3842551.5736754.6467959.1416607.2635467.2129934.5814121.2129934.9556082h-1.3744099c-.0130609-.1931335-.0532483-.3530721-.1225716-.4798159-.0693233-.1267439-.1607497-.2263283-.2762886-.2987533-.1145341-.0724251-.2451432-.1237261-.392832-.1539032s-.3094432-.0452657-.4842585-.0452657c-.1145341 0-.2280636.0120708-.3425977.0362125-.1155389.0241417-.2190215.0663897-.3124572.1267439-.0934358.0603542-.1707966.1357969-.2310777.2263282-.0592765.0905313-.089417.2052043-.089417.344019 0 .1267438.0231077.2293459.0723373.3078064.0482249.0784604.1426654.1508855.284326.2172751.1416607.0663896.3375744.1327793.5877411.1991689s.5766895.1508855.9815778.2534876c.1205623.0241417.2873401.0684015.5013381.1317734s.4259867.1639622.6369706.3027769c.210984.1388146.3938368.3249068.5475537.5562645.1537168.2333696.2310776.5301111.2310776.8922363 0 .2957356-.0582717.5703472-.1718012.8238349-.1145342.2534876-.2853307.4727745-.5113849.655849-.2250496.1850862-.5063616.3279245-.8409219.4305266s-.7223689.1539032-1.1614165.1539032c-.3566633 0-.7012705-.0432538-1.0358308-.1307674s-.6299378-.2253224-.8861326-.4134263c-.2561949-.1860921-.4591413-.4244912-.6108489-.7141914-.1507028-.2897002-.2220355-.6337191-.2160074-1.0320568h1.3744099c0 .2172751.0391827.4013554.1175482.5522409"/><path d="m59.2706208 15.8889477c.0783655.1508855.1828528.2725998.3124572.3661488.1285998.0945549.281312.1629564.4561273.208222.1748153.0452657.3556587.0684015.5425302.0684015.1265904 0 .2622229-.0100591.4068976-.032189.1446748-.020118.2803073-.0613601.4068977-.1217143s.2320823-.1428382.3164759-.249464c.0843936-.1046139.1265904-.239405.1265904-.4023613 0-.1750272-.0552577-.3168596-.1667778-.4254972-.1125248-.1086375-.2582042-.1991688-.4390476-.2715939-.1808434-.072425-.3857992-.1357969-.6148675-.1901157s-.4611507-.114673-.6962471-.1810626c-.2411246-.0603542-.476221-.1337852-.7052893-.2212987-.2290683-.0875136-.4340242-.2021866-.6148676-.3399954-.1808434-.1388146-.3265228-.31183-.4390475-.520052-.1115201-.208222-.1667779-.4607038-.1667779-.7564393 0-.3319482.0713327-.6196365.2119887-.8650769.1416607-.2434287.3275275-.447627.5565958-.6105834.2290683-.1629563.4882772-.2836647.7786313-.3621252.2883448-.0784604.5776942-.1176907.8670436-.1176907.3375744 0 .6610831.0372184.9725357.1136671.3094431.0744368.5857317.1971571.8268562.3661488.2411245.1689918.4320148.3842551.5736754.6467959.1426654.2635467.2129934.5814121.2129934.9556082h-1.3744099c-.0120562-.1931335-.0532483-.3530721-.1215669-.4798159-.070328-.1267439-.1617544-.2263283-.2762885-.2987533-.1145342-.0724251-.246148-.1237261-.3928321-.1539032-.1486935-.0301771-.3094432-.0452657-.4842584-.0452657-.1145342 0-.2290683.0120708-.3436025.0362125s-.2180168.0663897-.3114525.1267439c-.0944405.0603542-.1707966.1357969-.2310777.2263282s-.0904217.2052043-.0904217.344019c0 .1267438.0241124.2293459.0723374.3078064.0482249.0784604.1426653.1508855.284326.2172751.1426653.0663896.3375743.1327793.5887457.1991689.249162.0663896.5766895.1508855.9805731.2534876.1205623.0241417.2883448.0684015.5023428.1317734s.4259867.1639622.6369706.3027769c.210984.1388146.3938368.3249068.546549.5562645.1547216.2333696.2310777.5301111.2310777.8922363 0 .2957356-.0572671.5703472-.1718013.8238349-.1145341.2534876-.284326.4727745-.5113849.655849-.2250496.1850862-.5063615.3279245-.8409218.4305266s-.7213643.1539032-1.1614165.1539032c-.3556587 0-.7002659-.0432538-1.0348262-.1307674s-.6299378-.2253224-.8861326-.4134263c-.2571995-.1860921-.460146-.4244912-.6108489-.7141914-.1507028-.2897002-.2230401-.6337191-.217012-1.0320568h1.3744098c0 .2172751.0391828.4013554.1175482.5522409"/></g></g></svg>