<svg id="Layer_1" data-name="Layer 1" xmlns="http://www.w3.org/2000/svg" xmlns:xlink="http://www.w3.org/1999/xlink" viewBox="0 0 300 600"><defs><style>.cls-1,.cls-4{fill:none;}.cls-2{clip-path:url(#clip-path);}.cls-3{fill:#009970;}.cls-4{stroke:#b2b2b2;stroke-width:0.5px;}</style><clipPath id="clip-path"><rect class="cls-1" width="300" height="600"/></clipPath></defs><g class="cls-2"><path class="cls-3" d="M28.07,77.28H26.15V39.21h1.92Z"/><path class="cls-3" d="M35.51,71.39a15.73,15.73,0,0,0,11.71,4.53c5.89,0,9.49-3.23,9.49-7.94a6.05,6.05,0,0,0-1.8-4.71,21.22,21.22,0,0,0-5.58-3.41l-5.64-2.48a32.78,32.78,0,0,1-5.27-3.16c-1.8-1.31-2.66-3.35-2.66-6.14,0-3.16,1.11-5.46,3.34-7a13.13,13.13,0,0,1,7.69-2.35,17.82,17.82,0,0,1,10.42,3.22V44.3a15,15,0,0,0-10.42-3.72c-5,0-9.11,2.54-9.11,7.5,0,4,3,5.89,7.19,7.69l5.83,2.54c5.45,2.48,7.93,5,7.93,9.67a8.88,8.88,0,0,1-3.22,7.07,12.41,12.41,0,0,1-8.19,2.73c-5.14,0-9.23-1.62-11.71-3.91Z"/><path class="cls-3" d="M104,39.21h2.11L92.17,60.66V77.28H90.25V60.66L76.37,39.21h2.17l12.7,19.66Z"/><path class="cls-3" d="M137.25,72.44a15.66,15.66,0,0,1-23.56,0c-3.16-3.59-4.78-8.3-4.78-14.19s1.62-10.6,4.78-14.14a15.57,15.57,0,0,1,23.56,0c3.16,3.54,4.77,8.25,4.77,14.14S140.41,68.85,137.25,72.44ZM136,45.54a13.55,13.55,0,0,0-21,0c-2.73,3.28-4.09,7.5-4.09,12.71S112.26,67.73,115,71a13.66,13.66,0,0,0,21,0c2.72-3.29,4.09-7.57,4.09-12.77S138.67,48.82,136,45.54Z"/><path class="cls-3" d="M153.12,74c-2.79-2.54-4.22-6.44-4.22-11.65V39.21h1.93V62c0,4.71,1.17,8.24,3.59,10.54A12.23,12.23,0,0,0,163.16,76,12.4,12.4,0,0,0,172,72.57c2.41-2.3,3.65-5.83,3.65-10.54V39.21h1.93V62.34c0,5.21-1.43,9.11-4.28,11.65a14.6,14.6,0,0,1-10.11,3.79A14.34,14.34,0,0,1,153.12,74Z"/><path class="cls-3" d="M187.09,77.28V39.21h12.59c7.19,0,12,3.66,12,10.36,0,6-3.85,9.54-9.8,10.23l11.72,17.48H211.4L199.68,59.92H189V77.28ZM189,58.12h10.54c6.38,0,10.23-3.1,10.23-8.55s-3.85-8.5-10.23-8.5H189Z"/><path class="cls-3" d="M53.73,129.28h-1L28,94.25v35H26.15V91.21H28l23.86,33.73V91.21h1.86Z"/><path class="cls-3" d="M87.15,91.21v1.86H66V108.7H85.17v1.86H66v16.86h21.2v1.86H64V91.21Z"/><path class="cls-3" d="M93.17,123.39a15.73,15.73,0,0,0,11.71,4.53c5.89,0,9.49-3.23,9.49-7.94a6.05,6.05,0,0,0-1.8-4.71,21.39,21.39,0,0,0-5.58-3.41l-5.64-2.48a32.35,32.35,0,0,1-5.27-3.16c-1.8-1.31-2.66-3.35-2.66-6.14,0-3.16,1.11-5.46,3.34-7a13.13,13.13,0,0,1,7.69-2.35,17.82,17.82,0,0,1,10.42,3.22V96.3a15,15,0,0,0-10.42-3.72c-5,0-9.11,2.54-9.11,7.5,0,4,3,5.89,7.19,7.69l5.83,2.54c5.45,2.48,7.93,5,7.93,9.67a8.88,8.88,0,0,1-3.22,7.07,12.41,12.41,0,0,1-8.19,2.73c-5.14,0-9.23-1.62-11.71-3.91Z"/><path class="cls-3" d="M120.2,91.21H151v1.86H136.5v36.21h-1.92V93.07H120.2Z"/><path class="cls-3" d="M194.84,91.21v1.86h-21.2V108.7h19.22v1.86H173.64v16.86h21.2v1.86H171.72V91.21Z"/><path class="cls-3" d="M229.13,124.2V112H218.59v-1.67h12.34v14.26c-3.54,4.15-8.43,5.15-12.9,5.15a16.17,16.17,0,0,1-12-5.21c-3.28-3.54-5-8.31-5-14.32s1.68-10.85,5-14.32a16.16,16.16,0,0,1,12.22-5.21A17.79,17.79,0,0,1,229.5,94.5v2.35a16,16,0,0,0-11.28-4.27,14,14,0,0,0-10.91,4.71c-2.85,3.1-4.28,7.44-4.28,13s1.43,9.85,4.28,13A14,14,0,0,0,218,127.92C222.68,127.92,225.84,127,229.13,124.2Z"/><path class="cls-3" d="M265.21,124.2V112H254.67v-1.67H267v14.26c-3.53,4.15-8.43,5.15-12.89,5.15a16.17,16.17,0,0,1-12-5.21c-3.29-3.54-5-8.31-5-14.32s1.67-10.85,5-14.32a16.14,16.14,0,0,1,12.21-5.21,17.77,17.77,0,0,1,11.28,3.78v2.35a16,16,0,0,0-11.28-4.27,14,14,0,0,0-10.91,4.71c-2.85,3.1-4.28,7.44-4.28,13s1.43,9.85,4.28,13a14,14,0,0,0,10.73,4.65C258.76,127.92,261.93,127,265.21,124.2Z"/><path class="cls-3" d="M28.07,181.28H26.15V143.21h1.92Z"/><path class="cls-3" d="M66,181.28H64.89l-24.67-35v35H38.36V143.21h1.86l23.87,33.73V143.21H66Z"/><path class="cls-3" d="M86.72,143.21h30.75v1.86H103v36.21H101.1V145.07H86.72Z"/><path class="cls-3" d="M154.42,143.21v38.07H152.5V162.56h-26v18.72h-1.92V143.21h1.92V160.7h26V143.21Z"/><path class="cls-3" d="M187.84,143.21v1.86h-21.2V160.7h19.21v1.86H166.64v16.86h21.2v1.86H164.71V143.21Z"/><path class="cls-3" d="M45.12,195.21l9.61,34.54,9.54-34.54H66.2L55.59,233.28H53.92l-9.61-34.41-9.55,34.41H33.09l-10.6-38.07h1.92L34,229.75l9.54-34.54Z"/><path class="cls-3" d="M72.83,233.28V195.21H85.42c7.19,0,12,3.66,12,10.36,0,6-3.84,9.54-9.79,10.23l11.72,17.48H97.13L85.42,215.92H74.75v17.36Zm1.92-19.16H85.29c6.39,0,10.23-3.1,10.23-8.55s-3.84-8.5-10.23-8.5H74.75Z"/><path class="cls-3" d="M132.16,228.44a15.65,15.65,0,0,1-23.55,0c-3.17-3.59-4.78-8.3-4.78-14.19s1.61-10.6,4.78-14.14a15.56,15.56,0,0,1,23.55,0c3.17,3.54,4.78,8.25,4.78,14.14S135.33,224.85,132.16,228.44Zm-1.3-26.9a13.54,13.54,0,0,0-21,0c-2.73,3.28-4.09,7.5-4.09,12.71s1.36,9.48,4.09,12.77a13.65,13.65,0,0,0,21,0c2.73-3.29,4.09-7.57,4.09-12.77S133.59,204.82,130.86,201.54Z"/><path class="cls-3" d="M172.15,233.28H171.1l-24.68-35v35h-1.86V195.21h1.86l23.87,33.73V195.21h1.86Z"/><path class="cls-3" d="M207.87,228.2V216H197.33v-1.67h12.33v14.26c-3.53,4.15-8.43,5.15-12.89,5.15a16.17,16.17,0,0,1-12-5.21c-3.29-3.54-5-8.31-5-14.32s1.67-10.85,5-14.32A16.15,16.15,0,0,1,197,194.72a17.8,17.8,0,0,1,11.29,3.78v2.35A16,16,0,0,0,197,196.58,14,14,0,0,0,186,201.29c-2.85,3.1-4.28,7.44-4.28,13s1.43,9.85,4.28,13a14,14,0,0,0,10.73,4.65C201.42,231.92,204.58,231,207.87,228.2Z"/><path class="cls-3" d="M50.51,275c0,6.45-4.53,10.29-12.21,10.29H26.15V247.21h11c7.69,0,11.9,3.54,11.9,9.67,0,2.67-.68,4.65-2.1,6a11.09,11.09,0,0,1-4.65,2.66A9.29,9.29,0,0,1,50.51,275ZM37.18,264.76c6.39,0,10-2.61,10-7.81s-3.59-7.88-10-7.88H28.07v15.69Zm-9.11,18.66h10.6c6.45,0,9.92-3.41,9.92-8.43s-3.47-8.5-9.92-8.5H28.07Z"/><path class="cls-3" d="M79.21,272H61.48l-5.27,13.27H54.29l15.25-38.07h1.68l15.25,38.07H84.55Zm-17-1.86H78.47l-8.12-20.27Z"/><path class="cls-3" d="M90.25,279.39A15.75,15.75,0,0,0,102,283.92c5.89,0,9.49-3.23,9.49-7.94a6.09,6.09,0,0,0-1.8-4.71,21.39,21.39,0,0,0-5.58-3.41l-5.64-2.48a31.93,31.93,0,0,1-5.27-3.16c-1.8-1.31-2.67-3.35-2.67-6.14a7.93,7.93,0,0,1,3.35-7,13.11,13.11,0,0,1,7.69-2.35A17.77,17.77,0,0,1,112,249.94v2.36a15,15,0,0,0-10.41-3.72c-5,0-9.12,2.54-9.12,7.5,0,4,3,5.89,7.19,7.69l5.83,2.54c5.46,2.48,7.94,5,7.94,9.67a8.89,8.89,0,0,1-3.23,7.07,12.41,12.41,0,0,1-8.18,2.73c-5.15,0-9.24-1.62-11.72-3.91Z"/><path class="cls-3" d="M123.17,264.88l20.77-17.67h2.67L125,265.5l22.07,19.78h-2.66l-21.27-18.85v18.85h-1.92V247.21h1.92Z"/><path class="cls-3" d="M176.62,247.21v1.86H155.41V264.7h19.22v1.86H155.41v16.86h21.21v1.86H153.49V247.21Z"/><path class="cls-3" d="M182.26,247.21H213v1.86H198.56v36.21h-1.92V249.07H182.26Z"/><path class="cls-3" d="M233.9,262.4a8.41,8.41,0,0,0,2.11-5.7c0-4.9-3.1-8.18-8.8-8.18-4.28,0-8.12,2.79-10.79,5.82v-2.29a14.76,14.76,0,0,1,10.79-5.33c6.88,0,10.66,4,10.66,10a9.49,9.49,0,0,1-2.11,6.07c-1.42,1.8-2.85,3.48-4.34,5.15-1.92,2.17-2.66,3.47-2.72,5.39H227c.19-2.54,1.18-4.21,3.1-6.44Zm-6.13,19.66a1.67,1.67,0,1,1-1.62,1.67A1.7,1.7,0,0,1,227.77,282.06Z"/><g class="cls-2"><rect class="cls-4" x="0.25" y="0.25" width="299.5" height="599.5"/></g></g></svg>