<svg id="Layer_1" data-name="Layer 1" xmlns="http://www.w3.org/2000/svg" viewBox="0 0 320 50"><defs><style>.cls-1{fill:#fff;}</style></defs><path class="cls-1" d="M17.45,22.05H15.86V19l-2.39-3.9h1.77l1.41,2.34,1.41-2.34h1.78l-2.39,3.88Z"/><path class="cls-1" d="M26.89,18.54a3.48,3.48,0,1,1-6.95,0,3.48,3.48,0,1,1,7,0Zm-1.63,0a1.86,1.86,0,1,0-3.69,0c0,.52.23,2.12,1.85,2.12S25.26,19.06,25.26,18.54Z"/><path class="cls-1" d="M32,19.3V15.06h1.61V19.3a2.8,2.8,0,1,1-5.6,0V15.06h1.6V19.3c0,.37.25,1.34,1.2,1.34S32,19.67,32,19.3Z"/><path class="cls-1" d="M36.68,22.05H35.09v-7h2.68a2.28,2.28,0,0,1,2.53,2.3A2.23,2.23,0,0,1,39,19.43l1.23,2.62H38.49l-1.1-2.35h-.71Zm2-4.69a.81.81,0,0,0-.88-.83H36.68V18.2h1.18A.83.83,0,0,0,38.7,17.36Z"/><path class="cls-1" d="M48,19.3V15.06H49.6V19.3a2.8,2.8,0,1,1-5.6,0V15.06h1.6V19.3c0,.37.25,1.34,1.2,1.34S48,19.67,48,19.3Z"/><path class="cls-1" d="M54,17.86c1,.34,2,.82,2,2.1a2.33,2.33,0,0,1-2.59,2.17,5.55,5.55,0,0,1-2.77-.76L51.41,20a4.91,4.91,0,0,0,2,.6c.52,0,1-.25,1-.6s-.54-.63-1.2-.84c-1-.33-2.28-.72-2.28-2.16A2.07,2.07,0,0,1,53.2,15a6.08,6.08,0,0,1,2.69.67L55.3,17a6.81,6.81,0,0,0-2-.52c-.42,0-.81.12-.8.5S53.24,17.58,54,17.86Z"/><path class="cls-1" d="M59.92,18.49V19.7H57.06V18.49Z"/><path class="cls-1" d="M67.4,22.05H65.61L65,20.59H63l-.61,1.46H60.62l3.32-7h.14Zm-3.86-2.72h.93L64,18.21Z"/><path class="cls-1" d="M71.79,19.3V15.06H73.4V19.3a2.8,2.8,0,1,1-5.6,0V15.06h1.6V19.3c0,.37.25,1.34,1.2,1.34S71.79,19.67,71.79,19.3Z"/><path class="cls-1" d="M77.82,17.86c1,.34,2,.82,2,2.1a2.33,2.33,0,0,1-2.59,2.17,5.55,5.55,0,0,1-2.77-.76L75.21,20a4.91,4.91,0,0,0,2,.6c.52,0,1-.25,1-.6s-.54-.63-1.2-.84c-1-.33-2.28-.72-2.28-2.16A2.07,2.07,0,0,1,77,15a6.08,6.08,0,0,1,2.69.67L79.1,17a6.81,6.81,0,0,0-2-.52c-.42,0-.81.12-.8.5S77,17.58,77.82,17.86Z"/><path class="cls-1" d="M82.14,16.54H80.31V15.06H85.6v1.48H83.75v5.51H82.14Z"/><path class="cls-1" d="M88.24,22.05H86.65v-7h2.68a2.28,2.28,0,0,1,2.53,2.3,2.23,2.23,0,0,1-1.29,2.07l1.23,2.62H90.05L89,19.7h-.71Zm2-4.69a.81.81,0,0,0-.88-.83H88.24V18.2h1.18A.83.83,0,0,0,90.26,17.36Z"/><path class="cls-1" d="M99.14,22.05H97.35l-.61-1.46h-2l-.61,1.46H92.36l3.32-7h.14Zm-3.86-2.72h.93l-.46-1.12Z"/><path class="cls-1" d="M101.65,20.56h2.53v1.49H100v-7h1.61Z"/><path class="cls-1" d="M107,22.05h-1.6v-7H107Z"/><path class="cls-1" d="M114.65,22.05h-1.78l-.61-1.46h-2l-.61,1.46h-1.79l3.32-7h.14Zm-3.85-2.72h.93l-.46-1.12Z"/><path class="cls-1" d="M124.7,18.54a3.75,3.75,0,0,1-1.26,2.91l1.64,2,0,.05h-1.83l-1.17-1.4a4.15,4.15,0,0,1-.82.08,3.37,3.37,0,0,1-3.48-3.62,3.47,3.47,0,1,1,6.94,0Zm-1.62,0c0-.52-.24-2.1-1.84-2.1a1.93,1.93,0,0,0-1.85,2.1c0,.52.23,2.12,1.85,2.12S123.08,19.06,123.08,18.54Z"/><path class="cls-1" d="M130,19.3V15.06h1.6V19.3a2.8,2.8,0,1,1-5.59,0V15.06h1.6V19.3c0,.37.25,1.34,1.2,1.34S130,19.67,130,19.3Z"/><path class="cls-1" d="M134.69,19.34v1.22h3.23v1.49h-4.83v-7h4.83v1.48h-3.23v1.31h2.52v1.49Z"/><path class="cls-1" d="M142.05,17.86c1,.34,2,.82,2,2.1a2.32,2.32,0,0,1-2.58,2.17,5.55,5.55,0,0,1-2.77-.76l.71-1.34a4.91,4.91,0,0,0,2,.6c.52,0,1-.25,1-.6s-.54-.63-1.2-.84c-1-.33-2.28-.72-2.28-2.16A2.07,2.07,0,0,1,141.23,15a6.08,6.08,0,0,1,2.69.67L143.33,17a6.81,6.81,0,0,0-2-.52c-.42,0-.81.12-.8.5S141.27,17.58,142.05,17.86Z"/><path class="cls-1" d="M146.37,16.54h-1.83V15.06h5.29v1.48H148v5.51h-1.61Z"/><path class="cls-1" d="M152.48,22.05h-1.6v-7h1.6Z"/><path class="cls-1" d="M160.62,18.54a3.47,3.47,0,1,1-6.94,0,3.47,3.47,0,1,1,6.94,0Zm-1.63,0c0-.52-.23-2.1-1.83-2.1a1.93,1.93,0,0,0-1.85,2.1c0,.52.23,2.12,1.85,2.12S159,19.06,159,18.54Z"/><path class="cls-1" d="M161.92,15l4.1,3.62V15.06h1.6v7l-.08,0-4.1-3.66v3.6h-1.61V15Z"/><path class="cls-1" d="M172.15,17.86c1,.34,2,.82,2,2.1a2.33,2.33,0,0,1-2.58,2.17,5.55,5.55,0,0,1-2.77-.76l.71-1.34a4.91,4.91,0,0,0,2,.6c.52,0,1-.25,1-.6s-.54-.63-1.2-.84c-1-.33-2.28-.72-2.28-2.16A2.07,2.07,0,0,1,171.33,15a6,6,0,0,1,2.68.67L173.42,17a6.74,6.74,0,0,0-2-.52c-.42,0-.81.12-.8.5S171.37,17.58,172.15,17.86Z"/></svg>