<?xml version="1.0" encoding="utf-8"?>
<!-- Generator: Adobe Illustrator 25.2.1, SVG Export Plug-In . SVG Version: 6.00 Build 0)  -->
<svg version="1.1" id="Layer_1" xmlns="http://www.w3.org/2000/svg" xmlns:xlink="http://www.w3.org/1999/xlink" x="0px" y="0px"
	 viewBox="0 0 320 50" style="enable-background:new 0 0 320 50;" xml:space="preserve">
<style type="text/css">
	.st0{fill:#EE4627;}
</style>
<path class="st0" d="M19,34.8h-2.7l-0.8,2h-1.2l3.3-7.6h0.1l3.4,7.6h-1.2L19,34.8z M16.8,33.8h1.9l-1-2.3L16.8,33.8z"/>
<path class="st0" d="M25.6,35.3c0,0.9-0.8,1.5-2,1.5c-0.7,0-1.4-0.2-2-0.5l0.4-0.8c0.5,0.3,1,0.4,1.6,0.4c0.5,0,0.9-0.2,0.9-0.6
	c0-1.2-2.8-0.6-2.8-2.5c0-0.9,0.7-1.6,1.5-1.6c0.1,0,0.1,0,0.2,0c0.7,0,1.3,0.2,1.9,0.5L25,32.6c-0.4-0.2-0.9-0.3-1.4-0.4
	c-0.5,0-0.9,0.1-0.9,0.6C22.8,33.8,25.6,33.3,25.6,35.3z"/>
<path class="st0" d="M27.8,36.8h-1.1v-7.5h1.1v4.4l2-2.2H31v0.1L28.7,34l2.5,2.7v0.1H30l-2.2-2.4V36.8z"/>
<path class="st0" d="M36.3,36c-0.6,0.6-1.4,0.9-2.2,0.9c-1.4,0.1-2.6-1.1-2.7-2.5c0-0.1,0-0.2,0-0.3c-0.1-1.4,1-2.7,2.4-2.8
	c0.1,0,0.2,0,0.3,0c1.6,0,2.4,1.3,2.1,3h-3.7c0,0.9,0.7,1.7,1.6,1.7c0,0,0,0,0,0c0.6,0,1.2-0.2,1.6-0.6L36.3,36z M32.6,33.5h2.7
	c0.1-0.6-0.3-1.2-0.9-1.3c-0.1,0-0.2,0-0.3,0C33.4,32.2,32.7,32.8,32.6,33.5L32.6,33.5z"/>
<path class="st0" d="M41,31.6v-2.4h1.1v7.5h-0.7l-0.2-0.5c-0.4,0.4-1,0.6-1.6,0.6c-1.4,0-2.6-1.1-2.6-2.5c0-0.1,0-0.2,0-0.3
	c-0.1-1.4,1-2.7,2.4-2.8c0.1,0,0.2,0,0.3,0C40.1,31.3,40.6,31.4,41,31.6z M41,35.3v-2.7c-0.4-0.2-0.8-0.4-1.2-0.4
	c-1,0-1.7,0.8-1.7,1.8c0,0,0,0.1,0,0.1c0,0.5,0.2,1.9,1.6,1.9C40.2,36,40.7,35.7,41,35.3z"/>
<path class="st0" d="M50.3,33.6v3.2h-0.6l-0.2-0.6c-0.4,0.4-1,0.6-1.5,0.7c-1.6,0-1.9-1.1-1.9-1.6c0-1.8,1.9-1.8,3.2-1.7v-0.1
	c0-1.1-0.3-1.3-1.1-1.3c-0.5,0-1,0.2-1.5,0.3l-0.3-0.8c0.5-0.3,1.1-0.5,1.7-0.5C50.1,31.2,50.3,32.5,50.3,33.6z M49.2,34.5
	c-0.5-0.1-2.2-0.3-2.2,0.7c0,0.5,0.4,0.9,0.8,0.9c0,0,0.1,0,0.1,0c0.5,0,1-0.3,1.3-0.8V34.5z"/>
<path class="st0" d="M52.6,36.8h-1.1v-5.4h0.6l0.2,0.5c0.4-0.4,1-0.6,1.6-0.6c2,0,2.3,1.4,2.3,2.7v2.8h-1.1V34
	c0-0.4,0.1-1.8-1.2-1.8c-0.5,0-1,0.3-1.3,0.7L52.6,36.8z"/>
<path class="st0" d="M61.2,31.6v-2.4h1.1v7.5h-0.6l-0.2-0.5c-0.4,0.4-1,0.6-1.6,0.6c-1.4,0-2.6-1.1-2.6-2.5c0-0.1,0-0.2,0-0.3
	c-0.1-1.4,1-2.7,2.4-2.8c0.1,0,0.2,0,0.3,0C60.3,31.3,60.7,31.4,61.2,31.6z M61.2,35.3v-2.7c-0.4-0.2-0.8-0.4-1.2-0.4
	c-1,0-1.7,0.8-1.7,1.8c0,0,0,0.1,0,0.1c0,0.5,0.2,1.9,1.6,1.9C60.4,36,60.9,35.7,61.2,35.3z"/>
<path class="st0" d="M70.4,33.6v3.2h-0.7l-0.2-0.6c-0.4,0.4-1,0.6-1.6,0.7c-1.6,0-1.9-1.1-1.9-1.6c0-1.8,1.9-1.8,3.2-1.7v-0.1
	c0-1.1-0.3-1.3-1-1.3c-0.5,0-1,0.2-1.5,0.3l-0.3-0.8c0.5-0.3,1.1-0.5,1.7-0.5C70.2,31.2,70.4,32.5,70.4,33.6z M69.3,34.5
	c-0.5-0.1-2.2-0.3-2.2,0.7c0,0.5,0.4,0.9,0.8,0.9c0,0,0.1,0,0.1,0c0.5,0,1-0.3,1.3-0.8V34.5z"/>
<path class="st0" d="M72.8,36.8h-1.1v-5.4h0.7l0.2,0.5c0.4-0.4,1-0.6,1.6-0.6c2,0,2.3,1.4,2.3,2.7v2.8h-1.1V34
	c0-0.4,0.1-1.8-1.2-1.8c-0.5,0-1,0.3-1.3,0.7V36.8z"/>
<path class="st0" d="M81.3,35.3c0,0.9-0.8,1.5-2,1.5c-0.7,0-1.4-0.2-2-0.5l0.4-0.8c0.5,0.3,1,0.4,1.6,0.4c0.5,0,0.9-0.2,0.9-0.6
	c0-1.2-2.8-0.6-2.8-2.5c0-0.9,0.7-1.6,1.5-1.6c0.1,0,0.1,0,0.2,0c0.7,0,1.3,0.2,1.9,0.5l-0.4,0.8c-0.4-0.2-0.9-0.3-1.4-0.4
	c-0.5,0-0.9,0.1-0.9,0.6C78.4,33.8,81.3,33.3,81.3,35.3z"/>
<path class="st0" d="M86.9,36.9L86.9,36.9l-1.4-3.1l-1.3,3.1h-0.1l-2.4-5.5H83l1.3,3.2l1.3-3.2h0.1l1.3,3.2l1.3-3.2h1.2L86.9,36.9z"
	/>
<path class="st0" d="M94.3,36c-0.6,0.6-1.4,0.9-2.2,0.9c-1.4,0.1-2.6-1.1-2.7-2.5c0-0.1,0-0.2,0-0.3c-0.1-1.4,1-2.7,2.4-2.8
	c0.1,0,0.2,0,0.3,0c1.6,0,2.4,1.3,2.1,3h-3.7c0,0.9,0.7,1.7,1.6,1.7c0,0,0,0,0,0c0.6,0,1.2-0.2,1.6-0.6L94.3,36z M90.6,33.5h2.7
	c0.1-0.6-0.3-1.2-0.9-1.3c-0.1,0-0.2,0-0.3,0C91.4,32.2,90.7,32.8,90.6,33.5L90.6,33.5z"/>
<path class="st0" d="M98.1,32.3c-0.1,0-0.3,0-0.4,0c-0.5,0-1.1,0.2-1.3,0.7v3.8h-1.1v-5.4h0.6l0.2,0.5c0.4-0.4,1-0.6,1.6-0.6
	c0.2,0,0.3,0,0.5,0L98.1,32.3z"/>
<path class="st0" d="M103.3,36c-0.6,0.6-1.4,0.9-2.2,0.9c-1.4,0.1-2.6-1.1-2.7-2.5c0-0.1,0-0.2,0-0.3c-0.1-1.4,1-2.7,2.4-2.8
	c0.1,0,0.2,0,0.3,0c1.6,0,2.4,1.3,2.1,3h-3.7c0,0.9,0.7,1.6,1.6,1.6c0.6,0,1.2-0.2,1.6-0.6L103.3,36z M99.5,33.5h2.7
	c0.1-0.6-0.3-1.2-0.9-1.3c-0.1,0-0.2,0-0.3,0C100.3,32.2,99.6,32.8,99.5,33.5L99.5,33.5z"/>
<path class="st0" d="M108,31.6v-2.4h1.1v7.5h-0.7l-0.2-0.5c-0.4,0.4-1,0.6-1.6,0.6c-1.4,0-2.6-1.1-2.6-2.5c0-0.1,0-0.2,0-0.3
	c-0.1-1.4,1-2.7,2.4-2.8c0.1,0,0.2,0,0.3,0C107.1,31.3,107.6,31.4,108,31.6z M108,35.3v-2.7c-0.4-0.2-0.8-0.4-1.2-0.4
	c-1,0-1.7,0.8-1.7,1.8c0,0,0,0.1,0,0.1c0,0.5,0.2,1.9,1.6,1.9C107.2,36,107.7,35.7,108,35.3z"/>
</svg>
