<svg id="Layer_1" data-name="Layer 1" xmlns="http://www.w3.org/2000/svg" xmlns:xlink="http://www.w3.org/1999/xlink" viewBox="0 0 320 50"><defs><style>.cls-1{fill:none;}.cls-2{clip-path:url(#clip-path);}.cls-3{clip-path:url(#clip-path-2);}.cls-4{fill:#fff;}</style><clipPath id="clip-path"><rect class="cls-1" x="-353.83" y="-0.33" width="320" height="50.63"/></clipPath><clipPath id="clip-path-2"><rect class="cls-1" x="-145.55" y="-10.33" width="122.48" height="110.67"/></clipPath></defs><g class="cls-2"><image width="1127" height="1600" transform="translate(-361.06 157.5) rotate(-90) scale(0.23)" xlink:href="../Links/01.jpg"/></g><g class="cls-3"><image width="1600" height="1066" transform="translate(-256.23 -49.3) scale(0.2)" xlink:href="../Links/JB-Blue.png"/></g><rect class="cls-4" x="17.07" y="10.9" width="1.78" height="1.78"/><rect class="cls-4" x="17.07" y="13.93" width="1.78" height="1.78"/><rect class="cls-4" x="20.33" y="10.9" width="1.78" height="1.78"/><rect class="cls-4" x="20.33" y="13.93" width="1.78" height="1.78"/><rect class="cls-4" x="13.76" y="10.9" width="1.78" height="1.78"/><rect class="cls-4" x="13.76" y="13.93" width="1.78" height="1.78"/><path class="cls-4" d="M23.33,25.21a5.18,5.18,0,1,0,5.59-5.16H13.76v1.78H28.61a3.38,3.38,0,1,1-3.49,3.38"/><path class="cls-4" d="M20.28,25.21A8.23,8.23,0,1,0,28.92,17H13.76v1.78H28.61a6.44,6.44,0,1,1-6.54,6.43"/><path class="cls-4" d="M39.78,25.21A11.29,11.29,0,0,0,28.92,13.94h-5v1.79h4.71A9.49,9.49,0,1,1,21.89,32L20.65,33.3a11.18,11.18,0,0,0,7.85,3.19A11.29,11.29,0,0,0,39.78,25.21"/><path class="cls-4" d="M28.79,10.89H23.9v1.79h4.85a12.54,12.54,0,0,1-.25,25.07v1.79a14.33,14.33,0,0,0,.29-28.65"/><path class="cls-4" d="M122.86,24.87V23.61h-2.13v-1.1h2.73V21.25h-4.08v5.9h4.08V25.9h-2.73v-1Zm-6.89-1h-1V22.5h1a.68.68,0,0,1,.74.7.7.7,0,0,1-.71.71m-1,1.26h.6l.92,2H118l-1-2.21A1.88,1.88,0,0,0,118,23.2a1.93,1.93,0,0,0-2.13-1.95h-2.26v5.9H115Zm-5.35,2H111V22.51h1.56V21.25h-4.46v1.26h1.54Zm-7.52-5.95v5.95h1.36v-3l3.46,3.08.07,0V21.25h-1.35v3l-3.46-3.06Zm-2,3.67V23.61H98v-1.1h2.73V21.25H96.62v5.9h4.08V25.9H98v-1Zm-4.68-2.52a3,3,0,0,0-2.37-1.18,2.83,2.83,0,0,0-2.93,3,2.83,2.83,0,0,0,2.93,3,3.21,3.21,0,0,0,2.33-1.06l-.78-.93a2.54,2.54,0,0,1-1.54.7,1.61,1.61,0,0,1-1.57-1.75,1.62,1.62,0,0,1,1.56-1.75,2.19,2.19,0,0,1,1.47.78Zm-11.84.51c0-.32.33-.43.68-.43a5.57,5.57,0,0,1,1.68.45l.5-1.14a5,5,0,0,0-2.27-.58,1.75,1.75,0,0,0-1.94,1.76c0,1.22,1.07,1.54,1.92,1.82.56.18,1,.34,1,.71s-.37.51-.81.51a4.09,4.09,0,0,1-1.68-.51l-.6,1.13a4.69,4.69,0,0,0,2.33.64,2,2,0,0,0,2.18-1.83c0-1.08-.9-1.48-1.71-1.77s-1.25-.39-1.29-.76m-3.12,2V23.61H78.33v-1.1h2.73V21.25H77v5.9h4.08V25.9H78.33v-1Zm-5.12-3.62H74v5.9h1.35ZM69,25.9V22.5h.79a1.57,1.57,0,0,1,1.56,1.69,1.58,1.58,0,0,1-1.56,1.71Zm.79,1.25a2.76,2.76,0,0,0,2.92-3,2.77,2.77,0,0,0-2.92-2.94H67.61v5.9ZM63.66,26a1.08,1.08,0,0,1-1-1.13V21.25H61.31v3.58a2.36,2.36,0,1,0,4.71,0V21.25H64.67v3.58a1.08,1.08,0,0,1-1,1.13m-6.32,1.19H58.7V22.51h1.56V21.25H55.8v1.26h1.54ZM52,22.86c0-.32.32-.43.67-.43a5.73,5.73,0,0,1,1.69.45l.49-1.14a5,5,0,0,0-2.26-.58,1.76,1.76,0,0,0-1.95,1.76c0,1.22,1.07,1.54,1.92,1.82.56.18,1,.34,1,.71s-.37.51-.81.51A4.09,4.09,0,0,1,51,25.45l-.6,1.13a4.72,4.72,0,0,0,2.33.64A2,2,0,0,0,55,25.39c0-1.08-.91-1.48-1.72-1.77-.66-.23-1.25-.39-1.28-.76"/><path class="cls-4" d="M113.3,14.25c0-.32.32-.43.67-.43a5.73,5.73,0,0,1,1.69.45l.5-1.15a5.09,5.09,0,0,0-2.27-.57,1.76,1.76,0,0,0-2,1.76c0,1.22,1.07,1.54,1.92,1.82.56.18,1,.34,1,.71s-.37.5-.8.5a4.11,4.11,0,0,1-1.69-.5l-.6,1.13a4.73,4.73,0,0,0,2.34.64,2,2,0,0,0,2.18-1.83c0-1.08-.9-1.48-1.72-1.77-.66-.23-1.25-.39-1.28-.76m-3.13,2V15H108V13.9h2.73V12.64h-4.08v5.9h4.08V17.29H108v-1Zm-7.48,2.28H104V13.9h1.56V12.64h-4.45V13.9h1.54Zm-4.42-3.23.39.94h-.79Zm.06-2.72h-.12l-2.8,5.95h1.51l.52-1.23H99.1l.52,1.23h1.5Zm-5.84,5.95h1.36V13.9h1.56V12.64H91V13.9h1.54ZM87.1,14.25c0-.32.32-.43.67-.43a5.73,5.73,0,0,1,1.69.45l.5-1.15a5.09,5.09,0,0,0-2.27-.57,1.76,1.76,0,0,0-2,1.76c0,1.22,1.07,1.54,1.93,1.82.55.18,1,.34,1,.71s-.37.5-.81.5a4.11,4.11,0,0,1-1.69-.5L85.58,18a4.73,4.73,0,0,0,2.34.64,2,2,0,0,0,2.18-1.83c0-1.08-.9-1.48-1.72-1.77-.66-.23-1.25-.39-1.28-.76m-8.76,3v-3.4h.78a1.56,1.56,0,0,1,1.56,1.69,1.57,1.57,0,0,1-1.56,1.71Zm.78,1.25a2.77,2.77,0,0,0,2.93-3,2.77,2.77,0,0,0-2.93-2.94H77v5.9ZM75,16.26V15H72.86V13.9h2.72V12.64H71.51v5.9h4.07V17.29H72.86v-1ZM67.5,18.54h1.36V13.9h1.56V12.64H66V13.9H67.5Zm-2.62-5.9H63.53v5.9h1.35ZM57,12.59v5.95h1.36v-3l3.46,3.08.07,0V12.64H60.53v3l-3.46-3.06Zm-4,4.76a1.08,1.08,0,0,1-1-1.13V12.64H50.68v3.58a2.36,2.36,0,1,0,4.72,0V12.64H54v3.58c0,.32-.2,1.13-1,1.13"/><path class="cls-4" d="M85.44,32.52c0-.26.25-.35.54-.35a4.84,4.84,0,0,1,1.37.36l.4-.93a4.1,4.1,0,0,0-1.84-.46,1.42,1.42,0,0,0-1.57,1.43c0,1,.86,1.24,1.55,1.47.45.14.82.27.82.57s-.3.41-.65.41a3.29,3.29,0,0,1-1.37-.41l-.48.92a3.81,3.81,0,0,0,1.89.52,1.6,1.6,0,0,0,1.77-1.49c0-.87-.73-1.2-1.4-1.43s-1-.32-1-.61m-3.65.84H81V32.22h.77a.57.57,0,1,1,0,1.14m-.8,1h.48l.75,1.6h1.2l-.84-1.79a1.52,1.52,0,0,0,.88-1.41,1.57,1.57,0,0,0-1.73-1.58H79.9V36H81Zm-4.22-1,.31.76h-.63Zm0-2.2h-.1L74.45,36h1.23l.41-1h1.35l.42,1h1.22Zm-7.14,0V36h1.1V33.53l2.8,2.5.06,0V31.21h-1.1v2.42l-2.8-2.48Zm-1.3,0H67.29V36h1.09ZM64.61,35h-.82v-.89h.83c.47,0,.54.31.54.46s-.08.43-.55.43m0-1.8h-.83v-1h.82a.49.49,0,0,1,.55.45.5.5,0,0,1-.54.5m1.65-.5c0-.64-.41-1.46-1.73-1.46H62.71V36h1.83c1.32,0,1.73-.8,1.73-1.45a1,1,0,0,0-.62-.94,1.12,1.12,0,0,0,.62-.93M61.2,34.14v-1H59.47v-.89h2.22v-1H58.38V36h3.31V35H59.47v-.83Zm-7.2-3-1.18,2.48-1.09-2.45H50.51L52.78,36h0L54,33.62l1.2,2.4h0l2.27-4.81H56.34l-1.09,2.45-1.18-2.48Z"/></svg>