<?xml version="1.0" encoding="utf-8"?>
<!-- Generator: Adobe Illustrator 24.0.3, SVG Export Plug-In . SVG Version: 6.00 Build 0)  -->
<svg version="1.1" id="Layer_1" xmlns="http://www.w3.org/2000/svg" xmlns:xlink="http://www.w3.org/1999/xlink" x="0px" y="0px"
	 viewBox="0 0 320 50" style="enable-background:new 0 0 320 50;" xml:space="preserve">
<style type="text/css">
	.st0{clip-path:url(#SVGID_2_);}
	.st1{clip-path:url(#SVGID_4_);}
	.st2{fill:#F57D20;}
	.st3{fill:#FFFFFF;}
	.st4{clip-path:url(#SVGID_6_);}
</style>
<title>slide2</title>
<g>
	<g id="Layer_1_1_">
		<g>
			<defs>
				<rect id="SVGID_1_" width="320" height="50"/>
			</defs>
			<clipPath id="SVGID_2_">
				<use xlink:href="#SVGID_1_"  style="overflow:visible;"/>
			</clipPath>
			<g class="st0">
				<g>
					<defs>
						<rect id="SVGID_3_" width="320" height="50"/>
					</defs>
					<clipPath id="SVGID_4_">
						<use xlink:href="#SVGID_3_"  style="overflow:visible;"/>
					</clipPath>
					<g class="st1">
						<path class="st2" d="M18.5,15.6h6.5c3,0,4.8,1.4,4.8,4.3c0,2.3-1.2,3.6-2.8,3.9v0.1c1.9,0.3,3.2,2,3,3.8c0,3.3-2,4.7-4.8,4.7
							h-6.6V15.6z M23.9,22.7c1.3,0,2.1-0.8,2.1-2.5c0-1.6-0.7-2.2-1.8-2.2h-1.9v4.7H23.9z M24.1,30c1.2,0,1.9-0.9,1.9-2.5
							s-0.8-2.4-2.1-2.4h-1.7V30H24.1z"/>
						<path class="st2" d="M31.8,15.6h9.9v2.5h-6.1v4.4h4.9V25h-4.9v4.9h6.1v2.6h-9.9V15.6z"/>
						<path class="st2" d="M42.6,28l3.6-0.1c0.2,1.2,0.6,2.4,2.1,2.4c0.9,0.1,1.7-0.6,1.8-1.5c0-0.1,0-0.2,0-0.3
							c0-0.9-0.8-1.8-2-2.7L46,24.1c-1.8-1.4-3-2.8-3-4.5c0-2.3,1.8-4.2,5.4-4.2c2.6,0,5,1.1,5.2,4.6L50.2,20
							c-0.2-1.3-0.6-2.2-2-2.2c-0.8-0.1-1.6,0.5-1.7,1.3c0,0.1,0,0.2,0,0.3c0,0.9,1.2,1.8,2.2,2.6l2,1.6c2,1.5,3.1,3,3.1,4.9
							c0,2.4-2,4.3-5.5,4.3S42.8,31,42.6,28z"/>
						<path class="st2" d="M58.3,18.1h-4.1v-2.5h12v2.5h-4v14.4h-3.9V18.1z"/>
						<path class="st2" d="M71.4,15.6h3.8v16.9h-3.8V15.6z"/>
						<path class="st2" d="M77.5,15.6h3.9l4.8,9.8h0.1v-9.8h3.4v16.9h-3.4l-5.3-10.8h-0.1v10.8h-3.4V15.6z"/>
						<path class="st2" d="M95.5,28.5v-8.9c0-2.7,2.6-4.2,6-4.2c3.2,0,5.5,1.5,5.5,3.9v1.9h-3.4v-1.6c0-1-0.8-1.6-2.1-1.6
							c-1.5,0-2.1,0.7-2.1,1.7v8.7c0,1.2,0.8,1.8,2.1,1.8s2.1-0.6,2.1-1.6v-1.6h3.4v1.8c0,2.5-2.3,4-5.6,4
							C98,32.7,95.5,31.3,95.5,28.5z"/>
						<path class="st2" d="M108.9,15.6h3.8v14.3h6.1v2.6h-9.9V15.6z"/>
						<path class="st2" d="M124.2,15.6h5.2l4.2,16.9h-3.8l-1-4.1h-4.4l-1,4.1h-3.5L124.2,15.6z M128.1,26l-1.5-7h-0.1l-1.6,7H128.1z
							"/>
						<path class="st2" d="M134.1,28l3.6-0.1c0.1,1.2,0.6,2.4,2.1,2.4c0.9,0.1,1.7-0.6,1.8-1.5c0-0.1,0-0.2,0-0.3
							c0-0.9-0.8-1.8-2-2.7l-2.1-1.8c-1.8-1.4-3-2.8-3-4.5c0-2.3,1.8-4.2,5.4-4.2c2.6,0,5,1.1,5.2,4.6l-3.4,0.1
							c-0.2-1.3-0.6-2.2-2-2.2c-0.8-0.1-1.6,0.5-1.7,1.3c0,0.1,0,0.2,0,0.3c0,0.9,1.1,1.8,2.2,2.6l2,1.6c2,1.5,3.1,3,3.1,4.9
							c0,2.4-2.1,4.3-5.5,4.3S134.4,31,134.1,28z"/>
						<path class="st2" d="M146.3,28l3.6-0.1c0.2,1.2,0.6,2.4,2.1,2.4c0.9,0.1,1.7-0.6,1.8-1.5c0-0.1,0-0.2,0-0.3
							c0-0.9-0.8-1.8-2-2.7l-2.1-1.8c-1.8-1.4-3-2.8-3-4.5c0-2.3,1.8-4.2,5.4-4.2c2.6,0,5,1.1,5.2,4.6l-3.4,0.1
							c-0.2-1.3-0.6-2.2-2-2.2c-0.8-0.1-1.6,0.5-1.7,1.3c0,0.1,0,0.2,0,0.3c0,0.9,1.1,1.8,2.2,2.6l2,1.6c2,1.5,3.1,3,3.1,4.9
							c0,2.4-2.1,4.3-5.5,4.3S146.5,31,146.3,28z"/>
						<path class="st3" d="M162.6,15.6h6.1c3.6,0,5.3,1.9,5.3,5.1c0,3.4-1.6,5.5-5.4,5.5h-2.1v6.3h-3.9L162.6,15.6z M168.1,23.7
							c1.5,0,2.2-1,2.2-2.9c0-1.7-0.6-2.7-2.1-2.7h-1.7v5.6H168.1z"/>
						<path class="st3" d="M176,15.6h10v2.5h-6.2v4.4h4.9V25h-4.9v4.9h6.2v2.6h-10V15.6z"/>
						<path class="st3" d="M187.9,15.6h5.9c3.6,0,5.7,1.6,5.7,4.9c0,2.4-1,3.8-2.7,4.4l2.9,7.5h-4l-2.4-6.9h-1.6v6.9h-3.9
							L187.9,15.6z M193.5,23.4c1.4,0,2.1-0.8,2.1-2.6c0-1.6-0.6-2.6-2.2-2.6h-1.7v5.3H193.5z"/>
						<path class="st3" d="M201.5,15.6h10v2.5h-6.2v4.5h4.9v2.6h-4.9v7.3h-3.8L201.5,15.6z"/>
						<path class="st3" d="M212.6,28.3v-8.5c0-2.9,2.6-4.4,6.1-4.4s6.1,1.4,6.1,4.4v8.5c0,3-2.7,4.5-6.1,4.5
							C215.1,32.7,212.6,31.3,212.6,28.3z M220.9,28.3v-8.7c0-1-0.8-1.7-2.2-1.7s-2.1,0.7-2.1,1.7v8.6c0,1,0.7,1.8,2.2,1.8
							S220.9,29.3,220.9,28.3z"/>
						<path class="st3" d="M226.8,15.6h5.9c3.6,0,5.7,1.6,5.7,4.9c0,2.4-1,3.8-2.7,4.4l2.9,7.5h-4l-2.4-6.9h-1.6v6.9h-3.9
							L226.8,15.6z M232.4,23.4c1.4,0,2.1-0.8,2.1-2.6c0-1.6-0.6-2.6-2.2-2.6h-1.7v5.3H232.4z"/>
						<path class="st3" d="M240.5,15.6h4.9l2.6,6.9h0.1l2.7-6.9h4.6v16.9H252V20.2h-0.1l-2.6,7.1h-2.6l-2.7-7.1h-0.1v12.2h-3.4
							L240.5,15.6z"/>
						<path class="st3" d="M261.4,15.6h5.3l4.2,16.9H267l-1-4.1h-4.5l-1,4.1h-3.6L261.4,15.6z M265.4,26l-1.6-7h-0.1l-1.6,7H265.4z"
							/>
						<path class="st3" d="M272.4,15.6h4l4.8,9.8h0.1v-9.8h3.4v16.9h-3.5l-5.4-10.8h-0.1v10.8h-3.4L272.4,15.6z"/>
						<path class="st3" d="M286.7,28.5v-8.9c0-2.7,2.6-4.2,6.1-4.2c3.2,0,5.6,1.5,5.6,3.9v1.9h-3.5v-1.6c0-1-0.8-1.6-2.1-1.6
							c-1.5,0-2.1,0.7-2.1,1.7v8.7c0,1.2,0.8,1.8,2.2,1.8s2.1-0.6,2.1-1.6v-1.6h3.5v1.8c0,2.5-2.4,4-5.6,4
							C289.2,32.7,286.7,31.3,286.7,28.5z"/>
						<path class="st3" d="M300.3,15.6h10v2.5h-6.2v4.4h4.9V25h-4.9v4.9h6.2v2.6h-10L300.3,15.6z"/>
						<g>
							<defs>
								<rect id="SVGID_5_" width="320" height="50"/>
							</defs>
							<clipPath id="SVGID_6_">
								<use xlink:href="#SVGID_5_"  style="overflow:visible;"/>
							</clipPath>
							<g class="st4">
								<path class="st2" d="M11,27c1.5,0,2.7-1.2,2.7-2.7c0-1.5-1.2-2.7-2.7-2.7c-1.5,0-2.7,1.2-2.7,2.7C8.3,25.8,9.5,27,11,27
									C11,27,11,27,11,27"/>
							</g>
						</g>
					</g>
				</g>
			</g>
		</g>
	</g>
</g>
</svg>
