<svg id="Layer_1" data-name="Layer 1" xmlns="http://www.w3.org/2000/svg" xmlns:xlink="http://www.w3.org/1999/xlink" viewBox="0 0 320 50"><defs><style>.cls-1{fill:none;}.cls-2{clip-path:url(#clip-path);}.cls-3{clip-path:url(#clip-path-2);}.cls-4{fill:#f57d20;}.cls-5{fill:#fff;}</style><clipPath id="clip-path"><rect class="cls-1" x="-340" width="320" height="50"/></clipPath><clipPath id="clip-path-2"><rect class="cls-1" width="320" height="50"/></clipPath></defs><title>slide5_NZ</title><g class="cls-3"><g class="cls-3"><g class="cls-3"><path class="cls-4" d="M13.2,26.7A2.68,2.68,0,1,0,10.5,24a2.69,2.69,0,0,0,2.7,2.68"/></g><path class="cls-4" d="M157.74,19.29V17.13a1.61,1.61,0,0,1,3.21,0v2.17a1.48,1.48,0,0,1-1.61,1.47A1.46,1.46,0,0,1,157.74,19.29Zm2.1,0V17a.49.49,0,0,0-.51-.51.47.47,0,0,0-.49.51v2.29a.46.46,0,0,0,.5.51A.47.47,0,0,0,159.84,19.32Zm3.31-3.6H164l-4,9.93h-.9Zm-1,8.6V22.21a1.52,1.52,0,0,1,1.61-1.59,1.5,1.5,0,0,1,1.62,1.53v2.16a1.52,1.52,0,0,1-1.62,1.48A1.47,1.47,0,0,1,162.17,24.32Zm2.1,0v-2.3a.47.47,0,0,0-.49-.5.46.46,0,0,0-.48.5v2.3a.45.45,0,0,0,.48.51A.47.47,0,0,0,164.27,24.35Z"/><path class="cls-4" d="M166.06,17l.24-.35-.37-.22.13-.21.34.19V16h.26v.39l.34-.19.13.21-.38.22L167,17l-.22.14-.25-.36-.26.36Z"/><path class="cls-5" d="M168.18,15.81h1.43a1.12,1.12,0,0,1,1.23,1.27c0,.85-.39,1.37-1.26,1.37h-.5V20h-.9Zm1.27,2c.34,0,.51-.25.51-.74s-.14-.67-.5-.67h-.38v1.41Z"/><path class="cls-5" d="M172,15.8h1.23l1,4.24h-.91L173,19H172l-.23,1h-.83Zm.94,2.61-.37-1.76h0l-.38,1.76Z"/><path class="cls-5" d="M168.18,21h.9V25.2h-.9Z"/><path class="cls-5" d="M169.75,21h.92l1.13,2.44h0V21h.8V25.2h-.82l-1.24-2.71h0V25.2h-.8Z"/><path class="cls-5" d="M174,21.6h-1V21h2.81v.63h-.95v3.6H174Z"/><path class="cls-5" d="M176.36,21h2.33v.63h-1.44v1.1h1.15v.64h-1.15v1.22h1.45v.64h-2.34Z"/><path class="cls-5" d="M179.27,21h1.37c.84,0,1.33.4,1.33,1.23a1.05,1.05,0,0,1-.62,1.11L182,25.2h-.94l-.55-1.72h-.38V25.2h-.89Zm1.3,2c.32,0,.5-.2.5-.66s-.15-.66-.51-.66h-.4v1.32Z"/><path class="cls-5" d="M182.57,21h2.33v.63h-1.44v1.1h1.15v.64h-1.15v1.22h1.45v.64h-2.34Z"/><path class="cls-5" d="M185.26,24.09l.83,0c0,.29.14.6.5.6a.4.4,0,0,0,.42-.45c0-.24-.18-.44-.47-.68l-.5-.44a1.48,1.48,0,0,1-.71-1.14c0-.57.43-1.05,1.28-1.05A1.09,1.09,0,0,1,187.83,22l-.79,0c0-.34-.15-.57-.47-.57a.37.37,0,0,0-.4.4c0,.23.27.45.51.66l.47.4a1.59,1.59,0,0,1,.74,1.21c0,.62-.49,1.09-1.31,1.09A1.19,1.19,0,0,1,185.26,24.09Z"/><path class="cls-5" d="M189.07,21.6h-1V21h2.82v.63h-1v3.6h-.91Z"/><path class="cls-5" d="M168.18,26.13h1.38c.84,0,1.33.4,1.33,1.24a1.07,1.07,0,0,1-.62,1.11l.67,1.88H170l-.55-1.72h-.38v1.72h-.9Zm1.31,1.95c.32,0,.49-.2.49-.66s-.15-.66-.5-.66h-.4v1.32Z"/><path class="cls-5" d="M172.35,26.12h1.22l1,4.24h-.91l-.23-1h-1l-.22,1h-.84Zm.93,2.61L172.91,27h0l-.37,1.76Z"/><path class="cls-5" d="M175.5,26.77h-1v-.64h2.81v.64h-.95v3.59h-.9Z"/><path class="cls-5" d="M177.82,26.13h2.33v.64h-1.44v1.09h1.15v.64h-1.15v1.22h1.44v.64h-2.33Z"/><path class="cls-4" d="M21.87,15.74h3.2L29,24.22H29V15.74h2.75V30.41H29L24.67,21h-.05v9.4H21.87Z"/><path class="cls-4" d="M33.88,26.75V19.39c0-2.53,2.11-3.87,4.9-3.87s4.87,1.19,4.87,3.78v7.39c0,2.65-2.17,3.93-4.9,3.93C35.85,30.62,33.88,29.38,33.88,26.75Zm6.62,0V19.24c0-.9-.67-1.46-1.75-1.46S37,18.4,37,19.28v7.51c0,.88.59,1.54,1.75,1.54A1.52,1.52,0,0,0,40.5,26.79Z"/><path class="cls-4" d="M49.36,15.74h4.85c2.56,0,4.6,1.12,4.6,3.42v7.63c0,2.47-2,3.62-4.65,3.62h-4.8Zm4.53,12.45a1.54,1.54,0,0,0,1.77-1.54V19.43c0-.85-.56-1.46-1.79-1.46H52.44V28.19Z"/><path class="cls-4" d="M60.93,15.74H69V18H64v3.78h4V24H64v4.24h5v2.22H60.93Z"/><path class="cls-4" d="M71,15.74h5c2.88,0,4.23,1.63,4.23,4.43s-1.33,4.75-4.35,4.75H74.07v5.49H71Zm4.38,7c1.19,0,1.78-.84,1.78-2.55,0-1.5-.5-2.33-1.73-2.33H74.07v4.88Z"/><path class="cls-4" d="M82,26.75V19.39c0-2.53,2.12-3.87,4.9-3.87s4.87,1.19,4.87,3.78v7.39c0,2.65-2.16,3.93-4.89,3.93C83.92,30.62,82,29.38,82,26.75Zm6.62,0V19.24c0-.9-.66-1.46-1.74-1.46s-1.73.62-1.73,1.5v7.51c0,.88.59,1.54,1.75,1.54A1.51,1.51,0,0,0,88.57,26.79Z"/><path class="cls-4" d="M93.37,26.54l2.91-.08c.12,1,.47,2.06,1.72,2.06A1.38,1.38,0,0,0,99.45,27c0-.83-.61-1.53-1.62-2.35l-1.75-1.52c-1.5-1.22-2.44-2.41-2.44-3.95,0-2,1.48-3.66,4.43-3.66,2.15,0,4.07.94,4.21,4l-2.73.08C99.4,18.4,99,17.6,97.93,17.6A1.29,1.29,0,0,0,96.52,19c0,.81.94,1.57,1.8,2.29L100,22.64c1.62,1.33,2.53,2.59,2.53,4.21,0,2.12-1.67,3.77-4.5,3.77S93.55,29.07,93.37,26.54Z"/><path class="cls-4" d="M104.33,15.74h3.1V30.41h-3.1Z"/><path class="cls-4" d="M112.38,18h-3.33V15.74h9.75V18h-3.3V30.41h-3.12Z"/><path class="cls-4" d="M127,27h-5V25.06l4-9.32h3.1l-4.45,9.16H127V22.53L129.7,21V24.9H131V27H129.7v3.41H127Z"/><path class="cls-4" d="M132.63,27.41h2.76v3h-2.76Z"/><path class="cls-4" d="M137.39,27.55V26.4h2.78v1a1.07,1.07,0,0,0,1.2,1.11,1.16,1.16,0,0,0,1.31-1.2V23.79a3.17,3.17,0,0,1-2.39,1c-1.94,0-3.08-1-3.08-2.53V18.73c0-2,1.7-3.21,4.26-3.21s4.23,1.34,4.23,3.33V27c0,2.22-1.74,3.62-4.25,3.62S137.39,29.4,137.39,27.55Zm5.29-5.76V18.67a1.29,1.29,0,0,0-2.56,0V22c0,.7.56,1,1.2,1A1.28,1.28,0,0,0,142.68,21.79Z"/><path class="cls-4" d="M147.7,27.55V26.4h2.78v1a1.07,1.07,0,0,0,1.21,1.11,1.15,1.15,0,0,0,1.3-1.2V23.79a3.14,3.14,0,0,1-2.39,1c-1.94,0-3.07-1-3.07-2.53V18.73c0-2,1.7-3.21,4.26-3.21S156,16.86,156,18.85V27c0,2.22-1.75,3.62-4.26,3.62S147.7,29.4,147.7,27.55ZM153,21.79V18.67a1.29,1.29,0,0,0-2.56,0V22c0,.7.57,1,1.21,1A1.28,1.28,0,0,0,153,21.79Z"/><path class="cls-5" d="M198.58,26.56V19.2c0-2.53,2.12-3.87,4.9-3.87s4.88,1.2,4.88,3.79V26.5c0,2.66-2.17,3.93-4.9,3.93C200.55,30.43,198.58,29.2,198.58,26.56Zm6.63,0V19.06c0-.91-.67-1.46-1.75-1.46s-1.73.61-1.73,1.5v7.5a1.75,1.75,0,0,0,3.48,0Z"/><path class="cls-5" d="M210.47,15.56h3.2L217.56,24h.08V15.56h2.75V30.22h-2.8l-4.31-9.4h-.05v9.4h-2.76Z"/><path class="cls-5" d="M226.28,15.56H231c2.9,0,4.6,1.38,4.6,4.28,0,2.1-.84,3.33-2.14,3.84l2.34,6.54H232.6l-1.92-6h-1.3v6h-3.1Zm4.5,6.77c1.11,0,1.72-.7,1.72-2.31,0-1.42-.51-2.28-1.74-2.28h-1.38v4.59Z"/><path class="cls-5" d="M237.72,15.56h8.05v2.2h-5v3.78h4v2.23h-4V28h5v2.22h-8.07Z"/><path class="cls-5" d="M247.77,15.56h4.94c2.88,0,4.24,1.62,4.24,4.42s-1.33,4.75-4.36,4.75h-1.72v5.49h-3.1Zm4.38,7c1.18,0,1.77-.84,1.77-2.55,0-1.5-.49-2.32-1.72-2.32h-1.33v4.87Z"/><path class="cls-5" d="M258.74,26.56V19.2c0-2.53,2.12-3.87,4.9-3.87s4.88,1.2,4.88,3.79V26.5c0,2.66-2.17,3.93-4.9,3.93C260.71,30.43,258.74,29.2,258.74,26.56Zm6.63,0V19.06c0-.91-.67-1.46-1.75-1.46s-1.73.61-1.73,1.5v7.5a1.75,1.75,0,0,0,3.48,0Z"/><path class="cls-5" d="M269.67,15.56h3.08l1.45,9.25h.05l1.68-9.25h3l1.6,9.21h.05L282,15.56h2.76L282,30.31h-2.9l-1.77-9.81h-.1l-1.82,9.81h-3Z"/><path class="cls-5" d="M286.26,15.56h8.05v2.2h-5v3.78h4v2.23h-4V28h5v2.22h-8.08Z"/><path class="cls-5" d="M296.31,15.56h4.75c2.9,0,4.6,1.38,4.6,4.28,0,2.1-.84,3.33-2.14,3.84l2.34,6.54h-3.23l-1.92-6h-1.3v6h-3.1Zm4.5,6.77c1.11,0,1.73-.7,1.73-2.31,0-1.42-.52-2.28-1.75-2.28h-1.38v4.59Z"/></g></g></svg>