<svg id="Layer_1" data-name="Layer 1" xmlns="http://www.w3.org/2000/svg" xmlns:xlink="http://www.w3.org/1999/xlink" viewBox="0 0 320 50"><defs><style>.cls-1{fill:none;}.cls-2{clip-path:url(#clip-path);}.cls-3{clip-path:url(#clip-path-2);}.cls-4{fill:#f57d20;}.cls-5{fill:#fff;}.cls-6{clip-path:url(#clip-path-5);}</style><clipPath id="clip-path"><rect class="cls-1" x="-340" width="320" height="50"/></clipPath><clipPath id="clip-path-2"><rect class="cls-1" width="320" height="50"/></clipPath><clipPath id="clip-path-5"><rect class="cls-1" x="340" width="320" height="50"/></clipPath></defs><title>slide4_NZ</title><g class="cls-3"><g class="cls-3"><g class="cls-3"><path class="cls-4" d="M68.5,27a2.68,2.68,0,1,0-2.69-2.68A2.67,2.67,0,0,0,68.5,27"/></g><path class="cls-5" d="M75.44,28l3.69-.1c.16,1.16.6,2.37,2.19,2.37a1.67,1.67,0,0,0,1.85-1.78c0-.94-.78-1.75-2.07-2.7l-2.22-1.75c-1.91-1.39-3.1-2.77-3.1-4.54,0-2.27,1.88-4.21,5.64-4.21,2.72,0,5.16,1.09,5.35,4.57L83.29,20c-.18-1.33-.65-2.25-2.06-2.25a1.57,1.57,0,0,0-1.79,1.59c0,.92,1.19,1.8,2.29,2.62l2.07,1.59c2.06,1.54,3.22,3,3.22,4.85,0,2.44-2.13,4.33-5.73,4.33S75.66,31,75.44,28Z"/><path class="cls-5" d="M92.25,15.59h5.39L102,32.49H98l-1-4.1h-4.6l-1,4.1H87.71ZM96.35,26l-1.59-7h-.1L93,26Z"/><path class="cls-5" d="M101.11,15.61h4l2.57,11.46h.12l2.6-11.46h3.57l-4.29,17h-4.16Z"/><path class="cls-5" d="M115.08,15.61h10.24v2.53H119V22.5H124v2.55H119v4.88h6.36v2.56H115.08Z"/><path class="cls-5" d="M131.11,28.42V15.61h4V28.27c0,1.26.94,1.85,2.19,1.85,1.41,0,2.13-.74,2.13-1.82V15.61h3.76V28.32c0,2.84-2.6,4.43-6.14,4.43S131.11,31.37,131.11,28.42Z"/><path class="cls-5" d="M145.45,15.61h6.3c3.66,0,5.38,1.87,5.38,5.09,0,3.38-1.69,5.47-5.54,5.47H149.4v6.32h-4Zm5.58,8.1q2.25,0,2.25-2.94c0-1.73-.62-2.67-2.19-2.67H149.4v5.61Z"/><path class="cls-5" d="M166.37,18.14h-4.23V15.61h12.4v2.53h-4.19V32.49h-4Z"/><path class="cls-5" d="M175.36,28.27V19.8c0-2.91,2.69-4.45,6.23-4.45s6.2,1.37,6.2,4.36V28.2c0,3.05-2.76,4.52-6.23,4.52C177.86,32.72,175.36,31.3,175.36,28.27Zm8.42.05V19.63c0-1-.84-1.68-2.22-1.68s-2.19.71-2.19,1.73v8.64c0,1,.75,1.77,2.22,1.77S183.78,29.31,183.78,28.32Z"/><path class="cls-4" d="M197.72,31.82c-2.32-.21-4.6-1.35-4.76-3.9l3.57-.1a1.87,1.87,0,0,0,2.06,1.85c1.13,0,1.7-.64,1.7-1.42s-.79-1.71-1.95-2.56l-2-1.54c-1.72-1.27-3-2.48-3-4.07,0-1.89,1.51-3.43,4.39-3.71V14.9h2.47v1.49c1.94.26,3.57,1.23,3.73,3.72l-3.2.05a1.81,1.81,0,0,0-2-1.8c-1.16,0-1.75.61-1.75,1.44s1,1.59,1.94,2.34l2,1.54c1.57,1.26,3,2.61,3,4.26,0,1.82-1.41,3.29-3.73,3.72v1.65h-2.47Z"/><path class="cls-4" d="M207.05,18.52l-1.66.31-.5-2.15,3.73-1.09h2.16v16.9h-3.73Z"/><path class="cls-4" d="M219.79,18.12h-6.41V15.61h10.36v2.15a25.41,25.41,0,0,0-4.6,14.73h-3.79A27,27,0,0,1,219.79,18.12Z"/><path class="cls-4" d="M225.05,29.12V27.61h3.45v1.28c0,.83.59,1.42,1.72,1.42a1.51,1.51,0,0,0,1.66-1.71V25.36a1.48,1.48,0,0,0-1.69-1.56,2.18,2.18,0,0,0-1.69.9l-3.23-.17.41-8.92h9.21V18.1h-6.11s-.12,3.24-.22,4.3a5.81,5.81,0,0,1,3-.78c2.16,0,4,.9,4,3.32v3.78c0,2.61-2.38,4-5.42,4C226.84,32.75,225.05,31.33,225.05,29.12Z"/><path class="cls-4" d="M237.49,29V19.07c0-2.51,2.6-3.72,5.48-3.72s5.48,1.18,5.48,3.69V29c0,2.55-2.51,3.76-5.48,3.76S237.49,31.49,237.49,29Zm7.2.07V19c0-.67-.63-1.21-1.72-1.21s-1.69.57-1.69,1.21V29.05c0,.64.56,1.26,1.69,1.26S244.69,29.67,244.69,29Z"/><path class="cls-4" d="M249.53,17.78l.67-.75-1-.45.36-.45.93.4v-.81h.72v.82l.92-.41.37.45-1,.45.68.75-.59.29-.7-.76-.7.76Z"/></g></g></svg>