<svg id="Layer_1" data-name="Layer 1" xmlns="http://www.w3.org/2000/svg" xmlns:xlink="http://www.w3.org/1999/xlink" viewBox="0 0 320 50"><defs><style>.cls-1{fill:none;}.cls-2{clip-path:url(#clip-path);}.cls-3{clip-path:url(#clip-path-2);}.cls-4{fill:#f57d20;}.cls-5{fill:#fff;}.cls-6{clip-path:url(#clip-path-5);}</style><clipPath id="clip-path"><rect class="cls-1" x="-340" width="320" height="50"/></clipPath><clipPath id="clip-path-2"><rect class="cls-1" width="320" height="50"/></clipPath><clipPath id="clip-path-5"><rect class="cls-1" x="340" width="320" height="50"/></clipPath></defs><title>slide3</title><g class="cls-3"><g class="cls-3"><g class="cls-3"><path class="cls-4" d="M27.43,27a2.68,2.68,0,1,0-2.7-2.68A2.69,2.69,0,0,0,27.43,27"/></g><path class="cls-4" d="M35,15.61h3.92V29.93h6.35v2.56H35Z"/><path class="cls-4" d="M46.85,15.61H50.8V32.49H46.85Z"/><path class="cls-4" d="M52.9,28.44V19.59c0-2.68,2.66-4.24,6.16-4.24,3.29,0,6,1.4,6,3.86V21H61.38V19.45c0-1-.94-1.57-2.25-1.57-1.51,0-2.23.76-2.23,1.8v8.69c0,1.09.79,1.77,2.23,1.77s2.09-.66,2.09-1.58V25.83H58.78V23.56H65V28.7c0,2.53-2.28,4-5.91,4S52.9,31.28,52.9,28.44Z"/><path class="cls-4" d="M67.08,15.61h4v7h4.32v-7h3.91V32.49H75.35v-7.2H71v7.2h-4Z"/><path class="cls-4" d="M85,18.14H80.73V15.61h12.4v2.53H88.94V32.49H85Z"/><path class="cls-4" d="M93.79,15.61h3.92l1.84,10.65h.07l2.13-10.65h3.78l2,10.6h.06l1.82-10.6H113l-3.47,17h-3.7l-2.25-11.29h-.13l-2.31,11.29H97.33Z"/><path class="cls-4" d="M114.27,15.61h10.24v2.53h-6.32V22.5h5v2.55h-5v4.88h6.35v2.56H114.27Z"/><path class="cls-4" d="M126.45,15.61h4V32.49h-4Z"/><path class="cls-4" d="M132.5,28.44V19.59c0-2.68,2.66-4.24,6.16-4.24,3.29,0,6,1.4,6,3.86V21H141V19.45c0-1-.94-1.57-2.25-1.57-1.51,0-2.23.76-2.23,1.8v8.69c0,1.09.79,1.77,2.23,1.77s2.09-.66,2.09-1.58V25.83h-2.44V23.56h6.26V28.7c0,2.53-2.28,4-5.91,4S132.5,31.28,132.5,28.44Z"/><path class="cls-4" d="M146.71,15.61h3.95v7H155v-7h3.91V32.49H155v-7.2h-4.32v7.2h-3.95Z"/><path class="cls-4" d="M164.59,18.14h-4.23V15.61h12.4v2.53h-4.19V32.49h-4Z"/><path class="cls-5" d="M177.43,28c0-2.16,1.23-3.84,3.57-4.88a7.21,7.21,0,0,1-1.81-3.93c0-2.06,1.56-3.9,5-3.9,3,0,4.79,1.46,4.79,3.69,0,1.94-1.25,3.57-3.51,4.64.16.26,2.29,2.86,2.45,3.12a13.85,13.85,0,0,0,.62-2.32l2.94.26a14.46,14.46,0,0,1-1.81,4.55c.19.33,2.32,2.86,2.47,3.22h-4.13L187,31.11a6.5,6.5,0,0,1-4.44,1.68C179.12,32.79,177.43,30.85,177.43,28Zm8.11,1.18c-.21-.38-2.88-3.67-3.06-4a2.78,2.78,0,0,0-1.35,2.63,2.24,2.24,0,0,0,2.19,2.51A3,3,0,0,0,185.54,29.22ZM185.79,19a1.47,1.47,0,0,0-1.5-1.61A1.44,1.44,0,0,0,182.76,19a5.49,5.49,0,0,0,1.34,2.82A3,3,0,0,0,185.79,19Z"/><path class="cls-5" d="M197.22,28.49v-8.9c0-2.7,2.7-4.24,6.2-4.24,3.29,0,5.73,1.47,5.73,3.93v1.87h-3.57V19.56c0-1-.81-1.63-2.16-1.63-1.53,0-2.19.71-2.19,1.73v8.66c0,1.16.82,1.77,2.23,1.77s2.12-.63,2.12-1.58V26.92h3.57v1.75c0,2.54-2.41,4-5.76,4C199.79,32.72,197.22,31.33,197.22,28.49Z"/><path class="cls-5" d="M210.81,28.27V19.8c0-2.91,2.7-4.45,6.24-4.45s6.2,1.37,6.2,4.36V28.2c0,3.05-2.76,4.52-6.24,4.52C213.32,32.72,210.81,31.3,210.81,28.27Zm8.43.05V19.63c0-1-.85-1.68-2.23-1.68s-2.19.71-2.19,1.73v8.64c0,1,.75,1.77,2.23,1.77S219.24,29.31,219.24,28.32Z"/><path class="cls-5" d="M225.34,15.61h5l2.7,6.86h.06l2.75-6.86h4.76V32.49h-3.5V20.25H237l-2.69,7.15h-2.69l-2.76-7.13h-.06V32.49h-3.48Z"/><path class="cls-5" d="M242.91,15.61h6.3c3.66,0,5.38,1.87,5.38,5.09,0,3.38-1.69,5.47-5.54,5.47h-2.19v6.32h-4Zm5.58,8.1q2.25,0,2.25-2.94c0-1.73-.63-2.67-2.19-2.67h-1.69v5.61Z"/><path class="cls-5" d="M258.88,15.59h5.39l4.35,16.9h-4l-1-4.1H259l-1,4.1h-3.66ZM263,26l-1.59-7h-.1l-1.66,7Z"/><path class="cls-5" d="M269.59,28.49v-8.9c0-2.7,2.69-4.24,6.2-4.24,3.29,0,5.73,1.47,5.73,3.93v1.87H278V19.56c0-1-.81-1.63-2.16-1.63-1.53,0-2.19.71-2.19,1.73v8.66c0,1.16.81,1.77,2.22,1.77s2.13-.63,2.13-1.58V26.92h3.57v1.75c0,2.54-2.41,4-5.76,4C272.16,32.72,269.59,31.33,269.59,28.49Z"/><path class="cls-5" d="M286.41,18.14h-4.23V15.61h12.4v2.53h-4.2V32.49h-4Z"/></g></g></svg>