<?xml version="1.0" encoding="utf-8"?>
<!-- Generator: Adobe Illustrator 24.0.3, SVG Export Plug-In . SVG Version: 6.00 Build 0)  -->
<svg version="1.1" id="Layer_1" xmlns="http://www.w3.org/2000/svg" xmlns:xlink="http://www.w3.org/1999/xlink" x="0px" y="0px"
	 viewBox="0 0 320 50" style="enable-background:new 0 0 320 50;" xml:space="preserve">
<path d="M144.2,13.8h1.5c0.1,0.6,0.2,1.3,0.9,1.3s0.8-0.5,0.8-1c-0.1-0.6-0.4-1.1-0.9-1.5l-0.9-0.9c-0.8-0.6-1.2-1.5-1.3-2.5
	c-0.1-1.2,0.8-2.2,2-2.3c0.1,0,0.2,0,0.3,0c1.1,0,2.1,0.6,2.2,2.5l-1.4,0.1c-0.1-0.7-0.3-1.2-0.9-1.2s-0.7,0.4-0.7,0.9
	s0.5,1,0.9,1.4l0.9,0.9c0.8,0.7,1.3,1.6,1.3,2.7c0.1,1.2-0.9,2.3-2.1,2.4c-0.1,0-0.2,0-0.2,0C145.1,16.3,144.3,15.4,144.2,13.8z"/>
<path d="M149.9,7h4.2v1.4h-2.6v2.4h2.1v1.4h-2.1v2.6h2.6v1.4h-4.2L149.9,7z"/>
<path d="M155.1,7h4.2v1.4h-2.6v2.4h2.1v1.4h-2.1v2.6h2.6v1.4h-4.2L155.1,7z"/>
<path d="M163.6,12.5L161.8,7h1.7l1.1,3.6l1-3.6h1.5l-1.9,5.5v3.7h-1.6L163.6,12.5z"/>
<path d="M167.6,13.9V9.3c-0.1-1.3,0.9-2.4,2.2-2.4c0.1,0,0.2,0,0.3,0c1.2-0.2,2.4,0.7,2.5,2c0,0.1,0,0.3,0,0.4v4.6
	c0.1,1.3-0.9,2.4-2.2,2.5c-0.1,0-0.3,0-0.4,0c-1.2,0.2-2.4-0.7-2.5-1.9C167.5,14.2,167.5,14.1,167.6,13.9z M171,13.9V9.2
	c0.1-0.5-0.3-0.9-0.8-1c-0.5-0.1-0.9,0.3-1,0.8c0,0.1,0,0.1,0,0.2v4.7c-0.1,0.5,0.3,0.9,0.8,1c0.5,0.1,0.9-0.3,1-0.8
	C171,14,171,14,171,13.9L171,13.9z"/>
<path d="M173.7,14V7h1.6v6.9c0,0.7,0.4,1,0.9,1s0.9-0.4,0.9-1V7h1.5v6.9c0.1,1.3-0.9,2.3-2.2,2.4c-0.1,0-0.2,0-0.3,0
	c-1.2,0.2-2.3-0.7-2.4-1.9C173.7,14.3,173.7,14.1,173.7,14z"/>
<path d="M179.8,7h2.5c1.5,0,2.4,0.9,2.4,2.7c0,1.3-0.4,2.1-1.1,2.4l1.2,4.1h-1.7l-1-3.7h-0.7v3.7h-1.6L179.8,7z M182.2,11.2
	c0.6,0,0.9-0.4,0.9-1.4s-0.3-1.4-0.9-1.4h-0.7v2.9L182.2,11.2z"/>
<path d="M132,18.9h2.6c1.5,0,2.2,1,2.2,2.8s-0.7,3-2.3,3h-0.9V28H132V18.9z M134.3,23.3c0.6,0,0.9-0.5,0.9-1.6s-0.2-1.5-0.9-1.5
	h-0.7v3L134.3,23.3z"/>
<path d="M138.7,18.9h2.3l1.7,9.1h-1.6l-0.4-2.2h-1.9l-0.4,2.2h-1.5L138.7,18.9z M140.4,24.5l-0.6-3.8l0,0l-0.7,3.8H140.4z"/>
<path d="M143.6,18.9h2.5c1.5,0,2.4,0.9,2.4,2.7c0,1.3-0.4,2.1-1.1,2.4l1.2,4.1h-1.7l-1-3.7h-0.7V28h-1.6L143.6,18.9z M146,23.1
	c0.6,0,0.9-0.4,0.9-1.4s-0.3-1.4-0.9-1.4h-0.7v2.9H146z"/>
<path d="M150.8,20.3H149v-1.4h5.1v1.4h-1.7V28h-1.6L150.8,20.3z"/>
<path d="M155,18.9h1.6V28H155V18.9z"/>
<path d="M157.7,25.9V21c0-1.3,1-2.3,2.3-2.3c0.1,0,0.2,0,0.3,0c1.2-0.1,2.2,0.7,2.3,1.9c0,0.1,0,0.2,0,0.2v1h-1.5V21
	c0.1-0.5-0.3-0.9-0.8-1c-0.5-0.1-0.9,0.3-1,0.8c0,0.1,0,0.1,0,0.2v4.7c-0.1,0.5,0.2,0.9,0.7,1c0.1,0,0.2,0,0.2,0
	c0.5,0,0.8-0.3,0.9-0.8c0,0,0-0.1,0-0.1V25h1.5v1c0,1.2-0.9,2.2-2.1,2.2c-0.1,0-0.2,0-0.3,0c-1.2,0.2-2.3-0.7-2.5-1.9
	C157.7,26.1,157.7,26,157.7,25.9z"/>
<path d="M163.6,18.9h1.6V28h-1.6V18.9z"/>
<path d="M166.4,18.9h2.6c1.5,0,2.2,1,2.2,2.8s-0.7,3-2.3,3H168V28h-1.6L166.4,18.9z M168.7,23.3c0.6,0,0.9-0.5,0.9-1.6
	s-0.3-1.5-0.9-1.5H168v3L168.7,23.3z"/>
<path d="M173.2,18.9h2.2l1.8,9.1h-1.6l-0.4-2.2h-1.9l-0.4,2.2h-1.5L173.2,18.9z M174.9,24.5l-0.6-3.8l0,0l-0.7,3.8H174.9z"/>
<path d="M178.9,20.3h-1.7v-1.4h5.1v1.4h-1.7V28h-1.6L178.9,20.3z"/>
<path d="M183.1,18.9h1.6V28h-1.6V18.9z"/>
<path d="M185.9,18.9h1.7l2,5.3l0,0v-5.3h1.4V28h-1.5l-2.2-5.9l0,0V28h-1.4L185.9,18.9z"/>
<path d="M192.2,25.8V21c0-1.3,1-2.3,2.3-2.3c0.1,0,0.2,0,0.3,0c1.2-0.1,2.3,0.7,2.4,1.9c0,0.1,0,0.1,0,0.2v1h-1.5V21
	c0-0.5-0.4-0.8-0.8-0.9c0,0-0.1,0-0.1,0c-0.5,0-0.9,0.3-0.9,0.8c0,0.1,0,0.1,0,0.2v4.6c-0.1,0.5,0.2,0.9,0.7,1c0.1,0,0.1,0,0.2,0
	c0.4,0.1,0.8-0.2,0.9-0.7c0-0.1,0-0.1,0-0.2v-1.5h-1v-1.2h2.6V26c0,1.2-0.9,2.2-2.1,2.2c-0.1,0-0.2,0-0.4,0
	c-1.2,0.2-2.4-0.7-2.5-1.9C192.2,26.1,192.2,26,192.2,25.8z"/>
<path d="M132.7,30.7h2.5c1.2-0.2,2.2,0.7,2.4,1.8c0,0.1,0,0.2,0,0.3v4.8c0.1,1.2-0.9,2.2-2.1,2.3c-0.1,0-0.2,0-0.4,0h-2.5
	L132.7,30.7z M135.1,38.5c0.5,0,0.9-0.3,0.9-0.8c0-0.1,0-0.1,0-0.2V33c0-0.5-0.3-0.9-0.8-0.9c-0.1,0-0.1,0-0.2,0h-0.7v6.4
	L135.1,38.5z"/>
<path d="M138.8,30.7h4.2v1.4h-2.6v2.4h2.1v1.4h-2.1v2.6h2.6v1.4h-4.2L138.8,30.7z"/>
<path d="M145.5,30.7h2.2l1.8,9.2h-1.6l-0.4-2.2h-1.9l-0.4,2.2h-1.5L145.5,30.7z M147.2,36.3l-0.6-3.8l0,0l-0.7,3.8H147.2z"/>
<path d="M150.4,30.7h1.6v7.8h2.6v1.4h-4.2L150.4,30.7z"/>
<path d="M155.5,30.7h4.2v1.4h-2.6v2.4h2.1v1.4h-2.1v2.6h2.6v1.4h-4.2V30.7z"/>
<path d="M160.8,30.7h2.5c1.5,0,2.4,0.9,2.4,2.7c0,1.3-0.4,2.1-1.1,2.4l1.2,4.1h-1.7l-1-3.7h-0.7v3.7h-1.6L160.8,30.7z M163.1,35
	c0.6,0,0.9-0.4,0.9-1.4s-0.3-1.4-0.9-1.4h-0.7V35H163.1z"/>
<path d="M170,32.1h-1.7v-1.4h5.1v1.4h-1.7v7.8H170V32.1z"/>
<path d="M173.9,37.6V33c-0.1-1.3,0.9-2.4,2.2-2.4c0.1,0,0.2,0,0.3,0c1.2-0.1,2.4,0.8,2.5,2c0,0.1,0,0.3,0,0.4v4.6
	c0,1.3-1,2.4-2.3,2.4c-0.1,0-0.2,0-0.3,0c-1.2,0.2-2.4-0.7-2.5-1.9C173.9,37.9,173.9,37.7,173.9,37.6z M177.4,37.6v-4.7
	c0-0.5-0.3-0.9-0.8-0.9c-0.1,0-0.1,0-0.2,0c-0.5,0-0.9,0.3-0.9,0.8c0,0.1,0,0.1,0,0.2v4.7c-0.1,0.5,0.3,0.9,0.8,1
	c0.5,0.1,0.9-0.3,1-0.8C177.4,37.7,177.4,37.7,177.4,37.6L177.4,37.6z"/>
<path d="M180.1,30.7h2.5c1.2-0.2,2.2,0.7,2.4,1.8c0,0.1,0,0.2,0,0.3v4.8c0.1,1.2-0.9,2.2-2.1,2.3c-0.1,0-0.2,0-0.4,0h-2.5V30.7z
	 M182.5,38.5c0.5,0,0.9-0.4,0.9-0.8c0-0.1,0-0.1,0-0.2V33c0-0.5-0.3-0.9-0.8-0.9c-0.1,0-0.1,0-0.2,0h-0.8v6.4L182.5,38.5z"/>
<path d="M187.6,30.7h2.2l1.8,9.2h-1.6l-0.4-2.2h-1.9l-0.4,2.2h-1.5L187.6,30.7z M189.3,36.3l-0.7-3.8l0,0l-0.7,3.8H189.3z"/>
<path d="M193.3,36.2l-1.9-5.5h1.7l1.1,3.5l1-3.5h1.5l-1.9,5.5v3.7h-1.6L193.3,36.2z"/>
</svg>
