<?xml version="1.0" encoding="utf-8"?>
<!-- Generator: Adobe Illustrator 23.0.4, SVG Export Plug-In . SVG Version: 6.00 Build 0)  -->
<svg version="1.1" id="Layer_1" xmlns="http://www.w3.org/2000/svg" xmlns:xlink="http://www.w3.org/1999/xlink" x="0px" y="0px"
	 viewBox="0 0 300 600" style="enable-background:new 0 0 300 600;" xml:space="preserve">
<style type="text/css">
	.st0{fill:#FFFFFF;}
</style>
<title>300 x 600 3</title>
<path class="st0" d="M176.1,199.1v8.1h-1.4l-0.3-1.8c-0.8,1.3-2.3,2.1-4.4,2.1c-2.9,0-4.6-1.4-4.6-3.9s1.8-3.9,4.9-3.9
	c1.4,0,2.7,0.2,4,0.7v-1.1c0-1.9-1.2-3.1-3.3-3.1c-1.4,0-2.7,0.4-3.8,1.2l-1-1.5c1.4-1,3.1-1.5,4.9-1.4
	C174,194.5,176.1,196.3,176.1,199.1z M174.1,202.7V202c-1.1-0.5-2.3-0.7-3.6-0.7c-2.2,0-3.4,0.8-3.4,2.2s1.1,2.2,3.2,2.2
	S174.1,204.4,174.1,202.7z"/>
<path class="st0" d="M180.3,188.5h1.9v18.7h-1.9V188.5z"/>
<path class="st0" d="M186.6,188.5h1.9v18.7h-1.9V188.5z"/>
</svg>
