<?xml version="1.0" encoding="utf-8"?>
<!-- Generator: Adobe Illustrator 23.0.4, SVG Export Plug-In . SVG Version: 6.00 Build 0)  -->
<svg version="1.1" id="Layer_1" xmlns="http://www.w3.org/2000/svg" xmlns:xlink="http://www.w3.org/1999/xlink" x="0px" y="0px"
	 viewBox="0 0 300 600" style="enable-background:new 0 0 300 600;" xml:space="preserve">
<style type="text/css">
	.st0{fill:#FFFFFF;}
</style>
<title>300 x 600 3</title>
<path class="st0" d="M69.6,160.1c0-0.8,0.6-1.4,1.3-1.4c0,0,0,0,0.1,0c0.7,0,1.4,0.5,1.4,1.3v0.1c-0.1,0.8-0.8,1.4-1.5,1.3
	C70.2,161.3,69.6,160.8,69.6,160.1L69.6,160.1z M70.1,164.1H72v12.4h-1.9V164.1z"/>
<path class="st0" d="M76.4,164.1h1.5l0.3,2c1-1.5,2.8-2.4,4.6-2.2c3,0,5,2,5,5.3v7.4h-1.9v-7.1c0-2.4-1.2-3.7-3.4-3.7
	c-2.1-0.1-4,1.5-4.1,3.7c0,0.1,0,0.2,0,0.3v6.8h-1.9L76.4,164.1L76.4,164.1z"/>
</svg>
