<?xml version="1.0" encoding="utf-8"?>
<!-- Generator: Adobe Illustrator 23.0.4, SVG Export Plug-In . SVG Version: 6.00 Build 0)  -->
<svg version="1.1" id="Layer_1" xmlns="http://www.w3.org/2000/svg" xmlns:xlink="http://www.w3.org/1999/xlink" x="0px" y="0px"
	 viewBox="0 0 300 600" style="enable-background:new 0 0 300 600;" xml:space="preserve">
<style type="text/css">
	.st0{fill:#FFFFFF;}
</style>
<title>300 x 600 3</title>
<path class="st0" d="M150.2,164h4.3v2.9h-4.3v9.7h-3.4v-9.7h-2.2V164h2.2v-1.4c-0.3-2.5,1.6-4.7,4.1-5c0.3,0,0.6,0,0.9,0
	c1.3,0,2.6,0.4,3.7,1.2l-1.1,2.6c-0.6-0.5-1.3-0.8-2.1-0.8c-1-0.1-2,0.6-2.1,1.7c0,0.2,0,0.3,0,0.5L150.2,164z"/>
<path class="st0" d="M156.6,157.9h3.4v18.6h-3.4V157.9z"/>
<path class="st0" d="M174.4,168.8v7.8H172l-0.5-1.7c-0.8,1.3-2.2,1.9-4.4,1.9c-2.9,0-4.6-1.5-4.6-4s1.8-3.9,4.9-3.9
	c1.2,0,2.5,0.2,3.6,0.6V169c0.1-1.3-0.8-2.4-2.1-2.5c-0.2,0-0.3,0-0.5,0c-1.2,0-2.4,0.3-3.4,1l-1.8-2.3c1.6-1.1,3.5-1.6,5.4-1.6
	C172.2,163.7,174.4,165.7,174.4,168.8z M171.1,171.9v-0.3c-0.9-0.3-1.7-0.5-2.6-0.5c-1.6,0-2.5,0.5-2.5,1.6s0.8,1.6,2.2,1.6
	c1.4,0.2,2.7-0.9,2.9-2.3C171.1,172,171.1,171.9,171.1,171.9L171.1,171.9z"/>
<path class="st0" d="M184.4,176.6h-3.6l-5.4-12.6h3.9l3.1,8.2l0.2,1.1l0.2-1.1l3.2-8.2h3.7L184.4,176.6z"/>
<path class="st0" d="M190.1,170.3c0-3.6,2.9-6.5,6.5-6.6c0.1,0,0.3,0,0.4,0c4,0,6.9,2.7,6.9,6.6c0,3.6-2.9,6.5-6.5,6.5
	c-0.1,0-0.2,0-0.3,0C192.9,176.8,190.1,174.1,190.1,170.3z M200.4,170.3c0.1-1.8-1.2-3.3-3-3.5c-0.1,0-0.3,0-0.4,0
	c-1.9,0-3.5,1.5-3.5,3.5c0,1.9,1.5,3.5,3.5,3.5C198.9,173.7,200.4,172.2,200.4,170.3L200.4,170.3z"/>
<path class="st0" d="M218.6,176.6h-2.7l-0.4-2c-0.9,1.5-2.6,2.4-4.3,2.2c-2.9,0-4.8-2-4.8-5.2V164h3.4v7c0,1.9,0.9,2.8,2.4,2.8
	c1.6,0.1,3-1.1,3.1-2.7c0-0.1,0-0.2,0-0.4V164h3.4L218.6,176.6z"/>
<path class="st0" d="M222,164h2.6l0.5,2.3c0.6-1.6,2.2-2.5,4.3-2.5c0.3,0,0.5,0,0.8,0.1l-0.2,3.4h-0.5c-2.9,0-4.1,1.2-4.1,4.5v4.8
	H222V164z"/>
</svg>
