<?xml version="1.0" encoding="utf-8"?>
<!-- Generator: Adobe Illustrator 23.0.4, SVG Export Plug-In . SVG Version: 6.00 Build 0)  -->
<svg version="1.1" id="Layer_1" xmlns="http://www.w3.org/2000/svg" xmlns:xlink="http://www.w3.org/1999/xlink" x="0px" y="0px"
	 viewBox="0 0 300 600" style="enable-background:new 0 0 300 600;" xml:space="preserve">
<style type="text/css">
	.st0{fill:#FFFFFF;}
</style>
<title>300 x 600 3</title>
<path class="st0" d="M142,190.7c0-0.8,0.6-1.4,1.3-1.4h0.1c0.7,0,1.4,0.5,1.4,1.3v0.1c-0.1,0.8-0.8,1.4-1.5,1.3
	C142.6,191.9,142.1,191.4,142,190.7L142,190.7z M142.5,194.7h1.9v12.4h-1.9V194.7z"/>
<path class="st0" d="M156.9,206.6c-1,0.5-2.1,0.8-3.2,0.8c-2.9,0-4.2-1.5-4.2-4.5v-6.5h-2.4V195c2-0.1,2.8-1.1,2.9-3.8h1.5v3.6h4.8
	v1.7h-4.8v6.4c0,2,0.7,2.8,2.5,2.8c0.8,0,1.7-0.2,2.4-0.7L156.9,206.6z"/>
</svg>
