<?xml version="1.0" encoding="utf-8"?>
<!-- Generator: Adobe Illustrator 16.0.0, SVG Export Plug-In . SVG Version: 6.00 Build 0)  -->
<!DOCTYPE svg PUBLIC "-//W3C//DTD SVG 1.1//EN" "http://www.w3.org/Graphics/SVG/1.1/DTD/svg11.dtd">
<svg version="1.1" id="Layer_1" xmlns="http://www.w3.org/2000/svg" xmlns:xlink="http://www.w3.org/1999/xlink" x="0px" y="0px"
	 width="130.516px" height="88.471px" viewBox="0 0 130.516 88.471" enable-background="new 0 0 130.516 88.471"
	 xml:space="preserve">
<g>
	<path fill="#FFFFFF" d="M1.074,2.917C0.942,2.544,0.767,2.435,0.394,2.435H0V0h1.818c1.098,0,1.492,0.285,1.843,1.271l2.981,8.684
		c0.308,0.877,0.592,2.279,0.592,2.279H7.28c0,0,0.285-1.402,0.593-2.279l2.981-8.684C11.204,0.285,11.577,0,12.674,0h1.842v2.435
		h-0.417c-0.373,0-0.548,0.109-0.68,0.482l-4.648,12.65H5.745L1.074,2.917z"/>
	<path fill="#FFFFFF" d="M21.098,4.122c3.201,0,4.956,2.347,4.956,5.307c0,0.329-0.066,1.03-0.066,1.03h-7.719
		c0.22,1.974,1.667,3.005,3.355,3.005c1.798,0,3.135-1.25,3.135-1.25l1.162,1.93c0,0-1.71,1.688-4.494,1.688
		c-3.706,0-6.008-2.675-6.008-5.854C15.419,6.534,17.743,4.122,21.098,4.122z M23.202,8.531c-0.043-1.339-0.966-2.26-2.104-2.26
		c-1.425,0-2.435,0.855-2.741,2.26H23.202z"/>
	<path fill="#FFFFFF" d="M29.872,7.236c0-0.328-0.177-0.481-0.482-0.481h-0.877V4.386h2.543c0.986,0,1.491,0.417,1.491,1.359v0.657
		c0,0.416-0.044,0.701-0.044,0.701h0.044c0.505-1.601,1.842-2.872,3.552-2.872c0.242,0,0.504,0.044,0.504,0.044v2.74
		c0,0-0.284-0.044-0.68-0.044c-1.185,0-2.543,0.68-3.047,2.347c-0.154,0.549-0.242,1.162-0.242,1.819v4.43h-2.762V7.236z"/>
	<path fill="#FFFFFF" d="M43.446,4.122c2.589,0,3.442,1.579,3.442,1.579h0.044c0,0,0-0.133,0-0.285c0-0.504,0.352-1.03,1.229-1.03
		h2.587v2.368h-0.855c-0.285,0-0.481,0.153-0.481,0.438v7.696c0,3.837-2.981,5.284-5.897,5.284c-1.404,0-2.895-0.396-3.97-0.965
		l0.854-2.192c0,0,1.383,0.745,3.093,0.745c1.688,0,3.156-0.724,3.156-2.74v-0.525c0-0.265,0.021-0.593,0.021-0.593h-0.043
		c-0.658,0.942-1.623,1.446-3.113,1.446c-3.202,0-5.021-2.587-5.021-5.656C38.491,6.622,40.224,4.122,43.446,4.122z M46.714,9.714
		c0-2.544-1.272-3.224-2.785-3.224c-1.688,0-2.609,1.229-2.609,3.113c0,1.951,0.986,3.398,2.785,3.398
		C45.441,13.003,46.714,12.235,46.714,9.714z"/>
	<path fill="#FFFFFF" d="M58.712,4.122c3.201,0,4.955,2.347,4.955,5.307c0,0.329-0.066,1.03-0.066,1.03h-7.718
		c0.22,1.974,1.667,3.005,3.354,3.005c1.8,0,3.137-1.25,3.137-1.25l1.162,1.93c0,0-1.71,1.688-4.495,1.688
		c-3.705,0-6.008-2.675-6.008-5.854C53.032,6.534,55.356,4.122,58.712,4.122z M60.816,8.531c-0.044-1.339-0.965-2.26-2.104-2.26
		c-1.426,0-2.436,0.855-2.742,2.26H60.816z"/>
	<path fill="#FFFFFF" d="M67.42,2.851c0-0.329-0.176-0.481-0.482-0.481H66.06V0h2.654c1.03,0,1.49,0.461,1.49,1.491V12.74
		c0,0.307,0.176,0.481,0.481,0.481h0.855v2.346H68.91c-1.054,0-1.491-0.438-1.491-1.49L67.42,2.851L67.42,2.851z"/>
	<path fill="#FFFFFF" d="M75.073,7.236c0-0.328-0.176-0.481-0.482-0.481h-0.877V4.386h2.653c1.029,0,1.47,0.46,1.47,1.491v6.863
		c0,0.307,0.175,0.481,0.48,0.481h0.878v2.346h-2.652c-1.031,0-1.47-0.438-1.47-1.49V7.236z M75.205,0h2.412v2.564h-2.412V0z"/>
	<path fill="#FFFFFF" d="M80.908,17.74c0.79,0,2.236-0.241,2.236-2.063V7.236c0-0.328-0.176-0.481-0.481-0.481h-0.878V4.386h2.652
		c1.054,0,1.491,0.46,1.491,1.491v10.021c0,3.749-3.136,4.21-4.67,4.21c-0.505,0-0.834-0.065-0.834-0.065v-2.347
		C80.426,17.695,80.623,17.74,80.908,17.74z M83.255,0h2.434v2.564h-2.434V0z"/>
	<path fill="#FFFFFF" d="M90.383,2.851c0-0.329-0.176-0.481-0.482-0.481h-0.877V0h2.653c1.03,0,1.49,0.241,1.49,1.271v7.061h0.834
		c0.351,0,0.811-0.065,1.052-0.416l2.28-3.53h3.092l-2.828,4.21c-0.481,0.701-0.833,0.877-0.833,0.877v0.044
		c0,0,0.396,0.153,0.789,0.877l1.271,2.412c0.176,0.329,0.395,0.417,0.921,0.417h0.746v2.346H98.43
		c-0.942,0-1.314-0.152-1.754-0.965l-1.864-3.508c-0.219-0.396-0.68-0.417-1.029-0.417h-0.614v4.89h-2.784L90.383,2.851
		L90.383,2.851z"/>
	<path fill="#FFFFFF" d="M5.416,28.335c2.587,0,3.441,1.579,3.441,1.579h0.044c0,0,0-0.132,0-0.285c0-0.504,0.352-1.03,1.229-1.03
		h2.588v2.368h-0.855c-0.284,0-0.481,0.153-0.481,0.438v7.695c0,3.837-2.982,5.284-5.898,5.284c-1.401,0-2.895-0.395-3.969-0.965
		l0.855-2.192c0,0,1.381,0.745,3.092,0.745c1.688,0,3.157-0.724,3.157-2.74v-0.525c0-0.265,0.021-0.592,0.021-0.592H8.595
		c-0.657,0.941-1.622,1.445-3.113,1.445c-3.2,0-5.021-2.587-5.021-5.656C0.46,30.835,2.192,28.335,5.416,28.335z M8.683,33.927
		c0-2.544-1.271-3.224-2.784-3.224c-1.688,0-2.608,1.229-2.608,3.113c0,1.951,0.986,3.398,2.784,3.398
		C7.411,37.216,8.683,36.448,8.683,33.927z"/>
	<path fill="#FFFFFF" d="M16.12,31.449c0-0.329-0.177-0.482-0.482-0.482h-0.877v-2.368h2.543c0.987,0,1.492,0.417,1.492,1.359v0.658
		c0,0.416-0.045,0.7-0.045,0.7h0.045c0.504-1.601,1.842-2.872,3.552-2.872c0.241,0,0.504,0.045,0.504,0.045v2.739
		c0,0-0.284-0.044-0.68-0.044c-1.186,0-2.544,0.681-3.048,2.348c-0.153,0.548-0.241,1.161-0.241,1.818v4.431H16.12V31.449z"/>
	<path fill="#FFFFFF" d="M31.165,32.765h0.351v-0.088c0-1.601-0.636-2.192-2.062-2.192c-0.504,0-1.49,0.133-1.49,0.745v0.594h-2.588
		v-1.186c0-2.083,2.938-2.303,4.101-2.303c3.729,0,4.823,1.952,4.823,4.451v4.167c0,0.307,0.176,0.481,0.482,0.481h0.877v2.347
		H33.16c-1.03,0-1.426-0.57-1.426-1.229c0-0.285,0.021-0.482,0.021-0.482h-0.044c0,0-0.854,1.974-3.376,1.974
		c-1.996,0-3.816-1.249-3.816-3.486C24.521,33.05,29.345,32.765,31.165,32.765z M29.017,37.874c1.49,0,2.543-1.579,2.543-2.938
		v-0.264h-0.481c-1.447,0-3.75,0.198-3.75,1.755C27.327,37.172,27.876,37.874,29.017,37.874z"/>
	<path fill="#FFFFFF" d="M39.062,30.813h-1.446v-2.215h1.514V25.55h2.719v3.048h2.543v2.215h-2.543v4.518
		c0,1.842,1.447,2.104,2.215,2.104c0.308,0,0.504-0.044,0.504-0.044v2.435c0,0-0.352,0.064-0.854,0.064
		c-1.558,0-4.648-0.46-4.648-4.21v-4.867H39.062z"/>
	<path fill="#FFFFFF" d="M48.339,31.449c0-0.329-0.176-0.482-0.482-0.482H46.98v-2.368h2.652c1.031,0,1.47,0.46,1.47,1.491v6.863
		c0,0.307,0.175,0.481,0.482,0.481h0.877v2.347h-2.653c-1.03,0-1.469-0.438-1.469-1.491V31.449z M48.47,24.213h2.412v2.564H48.47
		V24.213z"/>
	<path fill="#FFFFFF" d="M55.972,36.229c0,0,1.425,1.646,3.332,1.646c0.855,0,1.514-0.353,1.514-1.098
		c0-1.578-5.897-1.557-5.897-5.175c0-2.235,2.018-3.268,4.342-3.268c1.513,0,3.924,0.505,3.924,2.324v1.162h-2.455v-0.549
		c0-0.525-0.789-0.789-1.402-0.789c-0.987,0-1.667,0.352-1.667,1.01c0,1.754,5.941,1.402,5.941,5.131c0,2.104-1.863,3.42-4.298,3.42
		c-3.069,0-4.647-1.995-4.647-1.995L55.972,36.229z"/>
	<path fill="#FFFFFF" d="M78.802,28.335c3.201,0,4.955,2.347,4.955,5.307c0,0.329-0.065,1.03-0.065,1.03h-7.719
		c0.22,1.974,1.667,3.005,3.355,3.005c1.798,0,3.136-1.25,3.136-1.25l1.162,1.93c0,0-1.711,1.688-4.495,1.688
		c-3.706,0-6.009-2.675-6.009-5.854C73.122,30.747,75.447,28.335,78.802,28.335z M80.906,32.743c-0.045-1.338-0.966-2.26-2.104-2.26
		c-1.426,0-2.434,0.855-2.741,2.26H80.906z"/>
	<path fill="#FFFFFF" d="M87.575,31.449c0-0.329-0.177-0.482-0.482-0.482h-0.877v-2.368h2.565c0.985,0,1.469,0.46,1.469,1.25v0.329
		c0,0.241-0.044,0.481-0.044,0.481h0.044c0.481-0.942,1.688-2.324,3.945-2.324c2.479,0,3.903,1.294,3.903,4.254v4.364
		c0,0.307,0.176,0.481,0.482,0.481h0.877v2.347h-2.653c-1.052,0-1.49-0.438-1.49-1.491v-5.131c0-1.359-0.352-2.28-1.755-2.28
		c-1.491,0-2.608,0.943-3.004,2.28c-0.153,0.461-0.219,0.965-0.219,1.49v5.132h-2.763L87.575,31.449L87.575,31.449z"/>
	<path fill="#FFFFFF" d="M0.877,55.575C0.768,55.29,0.57,55.18,0.263,55.18h-0.24v-2.368h1.601c0.922,0,1.358,0.285,1.645,1.054
		l2.105,5.876c0.24,0.657,0.416,1.601,0.416,1.601h0.045c0,0,0.175-0.942,0.395-1.601l2.104-5.876
		c0.285-0.769,0.745-1.054,1.645-1.054h1.491v2.368h-0.264c-0.308,0-0.504,0.109-0.613,0.396l-3.201,8.42H4.079L0.877,55.575z"/>
	<path fill="#FFFFFF" d="M14.65,55.663c0-0.329-0.175-0.482-0.481-0.482h-0.877v-2.368h2.544c0.985,0,1.49,0.417,1.49,1.359v0.658
		c0,0.416-0.043,0.701-0.043,0.701h0.043c0.505-1.602,1.842-2.872,3.553-2.872c0.241,0,0.504,0.044,0.504,0.044v2.739
		c0,0-0.285-0.044-0.68-0.044c-1.185,0-2.543,0.681-3.049,2.348c-0.152,0.548-0.24,1.162-0.24,1.818v4.431H14.65V55.663z"/>
	<path fill="#FFFFFF" d="M24.894,55.663c0-0.329-0.176-0.482-0.481-0.482h-0.877v-2.368h2.651c1.031,0,1.47,0.46,1.47,1.491v6.863
		c0,0.307,0.176,0.481,0.481,0.481h0.877v2.347h-2.652c-1.03,0-1.469-0.438-1.469-1.491V55.663z M25.024,48.427h2.412v2.565h-2.412
		V48.427z"/>
	<path fill="#FFFFFF" d="M30.728,66.166c0.789,0,2.236-0.241,2.236-2.063v-8.44c0-0.329-0.176-0.482-0.482-0.482h-0.877v-2.368
		h2.652c1.053,0,1.491,0.46,1.491,1.491v10.021c0,3.749-3.137,4.21-4.671,4.21c-0.504,0-0.832-0.066-0.832-0.066v-2.346
		C30.245,66.122,30.442,66.166,30.728,66.166z M33.073,48.427h2.434v2.565h-2.434V48.427z"/>
	<path fill="#FFFFFF" d="M40.202,51.277c0-0.328-0.177-0.481-0.482-0.481h-0.878v-2.368h2.653c1.03,0,1.49,0.461,1.49,1.491v3.245
		c0,0.548-0.044,0.942-0.044,0.942h0.044c0,0,0.986-1.558,3.354-1.558c3.025,0,4.955,2.391,4.955,5.854
		c0,3.554-2.17,5.854-5.131,5.854c-2.324,0-3.332-1.578-3.332-1.578h-0.044c0,0,0.044,0.307,0.044,0.745v0.57h-2.631L40.202,51.277
		L40.202,51.277z M45.683,61.912c1.514,0,2.808-1.25,2.808-3.465c0-2.128-1.141-3.509-2.784-3.509c-1.447,0-2.808,1.054-2.808,3.53
		C42.898,60.202,43.819,61.912,45.683,61.912z"/>
	<path fill="#FFFFFF" d="M54.721,51.277c0-0.328-0.175-0.481-0.48-0.481h-0.879v-2.368h2.653c1.031,0,1.491,0.461,1.491,1.491
		v11.249c0,0.307,0.175,0.481,0.481,0.481h0.854v2.347h-2.631c-1.053,0-1.491-0.438-1.491-1.491L54.721,51.277L54.721,51.277z"/>
	<path fill="#FFFFFF" d="M62.375,55.663c0-0.329-0.175-0.482-0.482-0.482h-0.877v-2.368h2.653c1.03,0,1.469,0.46,1.469,1.491v6.863
		c0,0.307,0.176,0.481,0.482,0.481h0.877v2.347h-2.652c-1.031,0-1.47-0.438-1.47-1.491V55.663z M62.507,48.427h2.412v2.565h-2.412
		V48.427z"/>
	<path fill="#FFFFFF" d="M68.21,66.166c0.789,0,2.235-0.241,2.235-2.063v-8.44c0-0.329-0.176-0.482-0.481-0.482h-0.877v-2.368h2.651
		c1.054,0,1.491,0.46,1.491,1.491v10.021c0,3.749-3.136,4.21-4.671,4.21c-0.504,0-0.832-0.066-0.832-0.066v-2.346
		C67.728,66.122,67.925,66.166,68.21,66.166z M70.556,48.427h2.435v2.565h-2.435V48.427z"/>
	<path fill="#FFFFFF" d="M77.069,55.575c-0.108-0.285-0.307-0.396-0.613-0.396h-0.241v-2.368h1.602c0.921,0,1.359,0.285,1.646,1.054
		l2.104,5.876c0.241,0.657,0.417,1.601,0.417,1.601h0.044c0,0,0.176-0.942,0.396-1.601l2.104-5.876
		c0.285-0.769,0.746-1.054,1.646-1.054h1.491v2.368h-0.264c-0.308,0-0.505,0.109-0.613,0.396l-3.201,8.42h-3.313L77.069,55.575z"/>
	<path fill="#FFFFFF" d="M95.186,52.549c3.201,0,4.955,2.347,4.955,5.307c0,0.329-0.064,1.03-0.064,1.03h-7.72
		c0.221,1.974,1.667,3.004,3.355,3.004c1.798,0,3.136-1.249,3.136-1.249l1.162,1.93c0,0-1.711,1.688-4.495,1.688
		c-3.706,0-6.008-2.675-6.008-5.854C89.507,54.961,91.831,52.549,95.186,52.549z M97.29,56.957
		c-0.044-1.338-0.965-2.259-2.104-2.259c-1.426,0-2.434,0.854-2.741,2.259H97.29z"/>
	<path fill="#FFFFFF" d="M103.959,55.663c0-0.329-0.176-0.482-0.482-0.482H102.6v-2.368h2.565c0.985,0,1.469,0.46,1.469,1.25v0.329
		c0,0.241-0.044,0.482-0.044,0.482h0.044c0.482-0.943,1.688-2.325,3.946-2.325c2.479,0,3.902,1.294,3.902,4.254v4.364
		c0,0.307,0.177,0.481,0.482,0.481h0.877v2.347h-2.653c-1.052,0-1.489-0.438-1.489-1.491v-5.131c0-1.359-0.353-2.28-1.756-2.28
		c-1.489,0-2.608,0.943-3.004,2.28c-0.152,0.461-0.219,0.965-0.219,1.491v5.131h-2.763L103.959,55.663L103.959,55.663z"/>
	<path fill="#FFFFFF" d="M123.148,52.549c2.435,0,3.224,1.36,3.224,1.36h0.044c0,0-0.021-0.285-0.021-0.658v-1.975
		c0-0.328-0.176-0.481-0.481-0.481h-0.877v-2.368h2.651c1.031,0,1.491,0.461,1.491,1.491v11.249c0,0.307,0.176,0.481,0.482,0.481
		h0.854v2.347h-2.564c-1.01,0-1.383-0.482-1.383-1.142c0-0.241,0-0.416,0-0.416h-0.044c0,0-0.921,1.819-3.485,1.819
		c-3.025,0-4.978-2.39-4.978-5.854C118.062,54.852,120.188,52.549,123.148,52.549z M126.459,58.382c0-1.732-0.899-3.442-2.764-3.442
		c-1.534,0-2.807,1.25-2.807,3.464c0,2.128,1.118,3.51,2.763,3.51C125.1,61.912,126.459,60.859,126.459,58.382z"/>
	<path fill="#FFFFFF" d="M0.153,82.463L6.6,72.64h3.376v9.21h2.391v2.435H9.976v3.925H7.104v-3.925H0.153V82.463z M7.147,77.529
		c0-0.768,0.11-1.688,0.11-1.688H7.214c0,0-0.438,0.834-0.833,1.403l-2.436,3.597c-0.416,0.592-0.788,1.03-0.788,1.03v0.044
		c0,0,0.637-0.065,1.358-0.065h2.631V77.529z"/>
	<path fill="#FFFFFF" d="M27.546,76.762c3.42,0,6.139,2.436,6.139,5.854c0,3.442-2.719,5.854-6.139,5.854
		c-3.399,0-6.118-2.411-6.118-5.854C21.428,79.196,24.146,76.762,27.546,76.762z M27.546,86.103c1.819,0,3.332-1.401,3.332-3.485
		c0-2.062-1.513-3.486-3.332-3.486c-1.799,0-3.313,1.426-3.313,3.486C24.234,84.7,25.747,86.103,27.546,86.103z"/>
	<path fill="#FFFFFF" d="M37.327,79.24h-1.382v-2.216h1.382v-0.329c0-3.661,3.004-4.145,4.562-4.145
		c0.569,0,0.942,0.066,0.942,0.066v2.367c0,0-0.24-0.044-0.57-0.044c-0.789,0-2.148,0.22-2.148,1.887v0.196h4.562v-0.329
		c0-3.661,3.004-4.145,4.583-4.145c0.548,0,0.921,0.066,0.921,0.066v2.367c0,0-0.241-0.044-0.57-0.044
		c-0.789,0-2.147,0.22-2.147,1.887v0.196h2.412v2.216H47.46v8.968h-2.785V79.24h-4.561v8.968h-2.785V79.24H37.327z"/>
	<path fill="#FFFFFF" d="M57.438,76.762c3.201,0,4.956,2.347,4.956,5.307c0,0.329-0.064,1.03-0.064,1.03h-7.72
		c0.22,1.975,1.666,3.004,3.354,3.004c1.798,0,3.136-1.249,3.136-1.249l1.162,1.931c0,0-1.711,1.688-4.495,1.688
		c-3.706,0-6.008-2.675-6.008-5.854C51.76,79.174,54.084,76.762,57.438,76.762z M59.544,81.17c-0.044-1.338-0.965-2.259-2.105-2.259
		c-1.425,0-2.434,0.854-2.739,2.259H59.544z"/>
	<path fill="#FFFFFF" d="M66.213,79.876c0-0.329-0.175-0.482-0.482-0.482h-0.877v-2.368h2.544c0.986,0,1.49,0.417,1.49,1.359v0.658
		c0,0.416-0.043,0.701-0.043,0.701h0.043c0.505-1.602,1.842-2.872,3.553-2.872c0.241,0,0.504,0.044,0.504,0.044v2.74
		c0,0-0.284-0.045-0.68-0.045c-1.184,0-2.543,0.681-3.048,2.348c-0.153,0.548-0.241,1.162-0.241,1.818v4.431h-2.763V79.876z"/>
	<path fill="#FFFFFF" d="M76.412,79.24h-1.447v-2.216h1.513v-3.048h2.719v3.048h2.545v2.216h-2.545v4.517
		c0,1.842,1.447,2.104,2.216,2.104c0.307,0,0.504-0.044,0.504-0.044v2.435c0,0-0.352,0.064-0.854,0.064
		c-1.558,0-4.647-0.46-4.647-4.21V79.24H76.412z"/>
	<path fill="#FFFFFF" d="M89.987,76.762c3.201,0,4.955,2.347,4.955,5.307c0,0.329-0.064,1.03-0.064,1.03h-7.719
		c0.22,1.975,1.667,3.004,3.354,3.004c1.798,0,3.136-1.249,3.136-1.249l1.162,1.931c0,0-1.711,1.688-4.495,1.688
		c-3.706,0-6.009-2.675-6.009-5.854C84.308,79.174,86.633,76.762,89.987,76.762z M92.092,81.17
		c-0.044-1.338-0.965-2.259-2.104-2.259c-1.426,0-2.434,0.854-2.74,2.259H92.092z"/>
	<path fill="#FFFFFF" d="M98.805,84.656c0,0,1.425,1.645,3.332,1.645c0.855,0,1.514-0.352,1.514-1.097
		c0-1.579-5.897-1.558-5.897-5.176c0-2.235,2.017-3.268,4.341-3.268c1.514,0,3.926,0.505,3.926,2.325v1.162h-2.456V79.7
		c0-0.526-0.789-0.789-1.402-0.789c-0.987,0-1.667,0.351-1.667,1.009c0,1.754,5.941,1.403,5.941,5.131
		c0,2.104-1.862,3.42-4.298,3.42c-3.069,0-4.647-1.995-4.647-1.995L98.805,84.656z"/>
</g>
</svg>
