<?xml version="1.0" encoding="utf-8"?>
<!-- Generator: Adobe Illustrator 16.0.0, SVG Export Plug-In . SVG Version: 6.00 Build 0)  -->
<!DOCTYPE svg PUBLIC "-//W3C//DTD SVG 1.1//EN" "http://www.w3.org/Graphics/SVG/1.1/DTD/svg11.dtd">
<svg version="1.1" id="Layer_1" xmlns="http://www.w3.org/2000/svg" xmlns:xlink="http://www.w3.org/1999/xlink" x="0px" y="0px"
	 width="141.418px" height="90.949px" viewBox="0 0 141.418 90.949" enable-background="new 0 0 141.418 90.949"
	 xml:space="preserve">
<g>
	<path fill="#FFFFFF" d="M1.315,2.916c-0.132-0.373-0.307-0.482-0.68-0.482H0.241V0H2.06c1.097,0,1.492,0.285,1.842,1.271
		l2.982,8.683c0.307,0.877,0.592,2.28,0.592,2.28h0.045c0,0,0.285-1.403,0.592-2.28l2.982-8.683C11.445,0.285,11.818,0,12.915,0
		h1.842v2.434H14.34c-0.373,0-0.548,0.11-0.68,0.482L9.012,15.568H5.986L1.315,2.916z"/>
	<path fill="#FFFFFF" d="M21.339,4.122c3.201,0,4.956,2.346,4.956,5.306c0,0.329-0.066,1.031-0.066,1.031H18.51
		c0.22,1.973,1.667,3.004,3.355,3.004c1.798,0,3.135-1.25,3.135-1.25l1.162,1.93c0,0-1.71,1.688-4.494,1.688
		c-3.706,0-6.008-2.675-6.008-5.854C15.66,6.534,17.984,4.122,21.339,4.122z M23.443,8.529c-0.043-1.337-0.965-2.258-2.104-2.258
		c-1.425,0-2.435,0.855-2.741,2.258H23.443z"/>
	<path fill="#FFFFFF" d="M30.112,7.236c0-0.329-0.175-0.482-0.482-0.482h-0.877V4.385h2.544c0.986,0,1.49,0.417,1.49,1.359v0.658
		c0,0.417-0.043,0.702-0.043,0.702h0.043c0.505-1.601,1.842-2.873,3.553-2.873c0.241,0,0.504,0.044,0.504,0.044v2.741
		c0,0-0.285-0.044-0.68-0.044c-1.184,0-2.543,0.68-3.048,2.346c-0.153,0.548-0.241,1.162-0.241,1.82v4.429h-2.763V7.236z"/>
	<path fill="#FFFFFF" d="M39.982,2.85c0-0.329-0.176-0.482-0.482-0.482h-0.877V0h2.652c1.031,0,1.492,0.46,1.492,1.491V12.74
		c0,0.307,0.175,0.482,0.482,0.482h0.854v2.346h-2.632c-1.052,0-1.49-0.438-1.49-1.491L39.982,2.85L39.982,2.85z"/>
	<path fill="#FFFFFF" d="M53.096,8.551h0.352V8.463c0-1.601-0.637-2.192-2.062-2.192c-0.505,0-1.491,0.131-1.491,0.746v0.592h-2.588
		V6.424c0-2.083,2.939-2.302,4.102-2.302c3.727,0,4.823,1.952,4.823,4.451v4.166c0,0.307,0.175,0.482,0.482,0.482h0.877v2.346
		h-2.499c-1.031,0-1.426-0.57-1.426-1.228c0-0.285,0.021-0.482,0.021-0.482h-0.043c0,0-0.855,1.974-3.377,1.974
		c-1.996,0-3.815-1.25-3.815-3.486C46.452,8.836,51.275,8.551,53.096,8.551z M50.947,13.66c1.49,0,2.543-1.579,2.543-2.938v-0.263
		h-0.482c-1.447,0-3.749,0.197-3.749,1.754C49.259,12.958,49.807,13.66,50.947,13.66z"/>
	<path fill="#FFFFFF" d="M66.497,8.551h0.351V8.463c0-1.601-0.636-2.192-2.061-2.192c-0.505,0-1.492,0.131-1.492,0.746v0.592h-2.587
		V6.424c0-2.083,2.938-2.302,4.101-2.302c3.728,0,4.824,1.952,4.824,4.451v4.166c0,0.307,0.175,0.482,0.482,0.482h0.877v2.346h-2.5
		c-1.031,0-1.426-0.57-1.426-1.228c0-0.285,0.022-0.482,0.022-0.482h-0.044c0,0-0.855,1.974-3.377,1.974
		c-1.995,0-3.814-1.25-3.814-3.486C59.854,8.836,64.677,8.551,66.497,8.551z M64.348,13.66c1.491,0,2.544-1.579,2.544-2.938v-0.263
		H66.41c-1.447,0-3.749,0.197-3.749,1.754C62.66,12.958,63.208,13.66,64.348,13.66z"/>
	<path fill="#FFFFFF" d="M78.188,4.122c2.587,0,3.441,1.579,3.441,1.579h0.045c0,0,0-0.131,0-0.285c0-0.504,0.351-1.03,1.228-1.03
		h2.589v2.368h-0.855c-0.285,0-0.482,0.153-0.482,0.438v7.696c0,3.837-2.98,5.284-5.898,5.284c-1.402,0-2.895-0.395-3.969-0.965
		l0.855-2.192c0,0,1.381,0.746,3.092,0.746c1.688,0,3.157-0.724,3.157-2.741v-0.526c0-0.263,0.022-0.592,0.022-0.592h-0.045
		c-0.658,0.943-1.623,1.447-3.113,1.447c-3.201,0-5.021-2.587-5.021-5.657C73.233,6.622,74.963,4.122,78.188,4.122z M81.454,9.713
		c0-2.543-1.271-3.223-2.783-3.223c-1.688,0-2.609,1.228-2.609,3.113c0,1.952,0.986,3.399,2.785,3.399
		C80.183,13.002,81.454,12.235,81.454,9.713z"/>
	<path fill="#FFFFFF" d="M95.778,7.236c0-0.329-0.176-0.482-0.482-0.482h-0.877V4.385h2.652c1.031,0,1.471,0.46,1.471,1.469v5.152
		c0,1.36,0.351,2.281,1.731,2.281c2.017,0,3.136-1.776,3.136-3.771V4.385h2.784v8.354c0,0.307,0.177,0.482,0.481,0.482h0.878v2.346
		h-2.565c-0.965,0-1.469-0.46-1.469-1.25V14.01c0-0.263,0.021-0.504,0.021-0.504h-0.045c-0.525,1.162-1.93,2.324-3.858,2.324
		c-2.39,0-3.858-1.206-3.858-4.254V7.236z"/>
	<path fill="#FFFFFF" d="M110.254,7.148c-0.11-0.329-0.285-0.395-0.614-0.395h-0.308V4.385h1.908c0.92,0,1.358,0.285,1.578,1.14
		l1.645,6.205c0.154,0.592,0.22,1.184,0.22,1.184h0.044c0,0,0.088-0.592,0.264-1.184l2.061-7.301h2.457l2.082,7.301
		c0.176,0.592,0.242,1.184,0.242,1.184h0.043c0,0,0.065-0.592,0.22-1.184l1.622-6.205c0.22-0.855,0.658-1.14,1.578-1.14h1.908v2.368
		h-0.308c-0.328,0-0.481,0.065-0.612,0.395l-2.676,8.42h-3.136l-1.908-6.381c-0.175-0.592-0.263-1.206-0.263-1.206h-0.045
		c0,0-0.108,0.614-0.284,1.206l-1.886,6.381h-3.157L110.254,7.148z"/>
	<path fill="#FFFFFF" d="M1.82,31.449c0-0.329-0.176-0.482-0.482-0.482H0.461v-2.368h2.543c0.986,0,1.491,0.417,1.491,1.359v0.658
		c0,0.417-0.044,0.702-0.044,0.702h0.044C5,29.717,6.337,28.445,8.047,28.445c0.242,0,0.504,0.044,0.504,0.044v2.741
		c0,0-0.284-0.044-0.68-0.044c-1.184,0-2.543,0.68-3.047,2.346c-0.154,0.548-0.242,1.162-0.242,1.82v4.429H1.82V31.449z"/>
	<path fill="#FFFFFF" d="M12.063,31.449c0-0.329-0.176-0.482-0.482-0.482h-0.877v-2.368h2.652c1.031,0,1.469,0.46,1.469,1.491v6.863
		c0,0.307,0.176,0.482,0.482,0.482h0.877v2.346h-2.652c-1.031,0-1.469-0.438-1.469-1.491V31.449z M12.193,24.213h2.412v2.565h-2.412
		V24.213z"/>
	<path fill="#FFFFFF" d="M19.694,36.229c0,0,1.425,1.645,3.333,1.645c0.855,0,1.513-0.351,1.513-1.096
		c0-1.579-5.897-1.557-5.897-5.175c0-2.236,2.017-3.267,4.341-3.267c1.513,0,3.925,0.504,3.925,2.324v1.162h-2.455v-0.548
		c0-0.526-0.79-0.789-1.404-0.789c-0.986,0-1.666,0.351-1.666,1.008c0,1.754,5.941,1.403,5.941,5.131c0,2.104-1.863,3.42-4.297,3.42
		c-3.07,0-4.648-1.996-4.648-1.996L19.694,36.229z"/>
	<path fill="#FFFFFF" d="M31.121,31.449c0-0.329-0.176-0.482-0.482-0.482h-0.877v-2.368h2.652c1.031,0,1.47,0.46,1.47,1.491v6.863
		c0,0.307,0.175,0.482,0.482,0.482h0.877v2.346H32.59c-1.03,0-1.469-0.438-1.469-1.491V31.449z M31.252,24.213h2.412v2.565h-2.412
		V24.213z"/>
	<path fill="#FFFFFF" d="M43.709,28.335c1.447,0,4.057,0.592,4.057,2.521v1.316H45.31v-0.614c0-0.614-0.921-0.877-1.601-0.877
		c-1.93,0-3.311,1.469-3.311,3.486c0,2.28,1.688,3.442,3.486,3.442c1.907,0,3.311-1.513,3.311-1.513l1.162,1.93
		c0,0-1.666,2.017-4.715,2.017c-3.684,0-6.051-2.609-6.051-5.854C37.592,31.032,39.871,28.335,43.709,28.335z"/>
	<path fill="#FFFFFF" d="M56.627,28.335c3.42,0,6.14,2.434,6.14,5.854c0,3.442-2.72,5.854-6.14,5.854
		c-3.398,0-6.117-2.412-6.117-5.854C50.51,30.77,53.229,28.335,56.627,28.335z M56.627,37.676c1.82,0,3.333-1.403,3.333-3.486
		c0-2.061-1.513-3.486-3.333-3.486c-1.798,0-3.311,1.425-3.311,3.486C53.316,36.273,54.829,37.676,56.627,37.676z"/>
	<path fill="#FFFFFF" d="M78.888,32.765h0.351v-0.088c0-1.601-0.636-2.192-2.061-2.192c-0.506,0-1.491,0.131-1.491,0.746v0.592H73.1
		v-1.184c0-2.083,2.938-2.302,4.1-2.302c3.729,0,4.824,1.952,4.824,4.451v4.166c0,0.307,0.176,0.482,0.482,0.482h0.877v2.346h-2.5
		c-1.03,0-1.426-0.57-1.426-1.228c0-0.285,0.021-0.482,0.021-0.482h-0.043c0,0-0.855,1.974-3.377,1.974
		c-1.995,0-3.814-1.25-3.814-3.486C72.245,33.05,77.068,32.765,78.888,32.765z M76.739,37.874c1.491,0,2.543-1.579,2.543-2.938
		v-0.263h-0.482c-1.445,0-3.748,0.197-3.748,1.754C75.051,37.172,75.599,37.874,76.739,37.874z"/>
	<path fill="#FFFFFF" d="M86.674,27.063c0-0.329-0.174-0.482-0.481-0.482h-0.877v-2.368h2.653c1.029,0,1.49,0.46,1.49,1.491v11.249
		c0,0.307,0.176,0.482,0.482,0.482h0.854v2.346h-2.631c-1.053,0-1.49-0.438-1.49-1.491V27.063L86.674,27.063z"/>
	<path fill="#FFFFFF" d="M94.286,36.229c0,0,1.426,1.645,3.332,1.645c0.855,0,1.514-0.351,1.514-1.096
		c0-1.579-5.897-1.557-5.897-5.175c0-2.236,2.017-3.267,4.341-3.267c1.514,0,3.926,0.504,3.926,2.324v1.162h-2.455v-0.548
		c0-0.526-0.789-0.789-1.403-0.789c-0.987,0-1.667,0.351-1.667,1.008c0,1.754,5.941,1.403,5.941,5.131
		c0,2.104-1.862,3.42-4.297,3.42c-3.07,0-4.648-1.996-4.648-1.996L94.286,36.229z"/>
	<path fill="#FFFFFF" d="M0,42.522v-1.096h64.59v1.096H0z"/>
	<path fill="#FFFFFF" d="M1.141,55.575c-0.109-0.329-0.285-0.396-0.614-0.396H0.219v-2.367h1.908c0.921,0,1.359,0.285,1.578,1.14
		l1.645,6.205c0.154,0.592,0.22,1.184,0.22,1.184h0.044c0,0,0.088-0.592,0.264-1.184l2.061-7.302h2.456l2.083,7.302
		c0.176,0.592,0.241,1.184,0.241,1.184h0.044c0,0,0.065-0.592,0.219-1.184l1.623-6.205c0.219-0.854,0.658-1.14,1.578-1.14h1.908
		v2.367h-0.307c-0.33,0-0.482,0.065-0.614,0.396l-2.675,8.42h-3.137l-1.906-6.381c-0.176-0.593-0.264-1.206-0.264-1.206H9.144
		c0,0-0.11,0.613-0.285,1.206l-1.886,6.381H3.815L1.141,55.575z"/>
	<path fill="#FFFFFF" d="M25.594,52.549c3.201,0,4.955,2.346,4.955,5.307c0,0.328-0.065,1.03-0.065,1.03h-7.718
		c0.219,1.974,1.666,3.005,3.354,3.005c1.799,0,3.137-1.25,3.137-1.25l1.162,1.93c0,0-1.711,1.688-4.496,1.688
		c-3.705,0-6.008-2.675-6.008-5.854C19.914,54.961,22.238,52.549,25.594,52.549z M27.699,56.956
		c-0.045-1.337-0.965-2.258-2.105-2.258c-1.426,0-2.434,0.854-2.741,2.258H27.699z"/>
	<path fill="#FFFFFF" d="M34.367,55.663c0-0.329-0.176-0.481-0.482-0.481h-0.877v-2.369h2.543c0.987,0,1.492,0.418,1.492,1.359
		v0.658c0,0.417-0.045,0.702-0.045,0.702h0.045c0.504-1.601,1.842-2.873,3.552-2.873c0.241,0,0.504,0.044,0.504,0.044v2.74
		c0,0-0.284-0.043-0.68-0.043c-1.185,0-2.544,0.68-3.048,2.346c-0.153,0.548-0.241,1.162-0.241,1.82v4.429h-2.763V55.663z"/>
	<path fill="#FFFFFF" d="M44.215,51.277c0-0.329-0.176-0.482-0.482-0.482h-0.877v-2.368h2.653c1.03,0,1.491,0.241,1.491,1.271v7.061
		h0.833c0.351,0,0.812-0.065,1.053-0.417l2.28-3.529h3.092l-2.828,4.209c-0.482,0.703-0.834,0.877-0.834,0.877v0.045
		c0,0,0.395,0.152,0.789,0.877l1.272,2.412c0.175,0.328,0.395,0.416,0.921,0.416h0.745v2.347h-2.062
		c-0.942,0-1.314-0.153-1.754-0.965l-1.863-3.509c-0.219-0.395-0.68-0.416-1.031-0.416H47v4.89h-2.785V51.277z"/>
	<path fill="#FFFFFF" d="M61.212,52.549c2.587,0,3.442,1.579,3.442,1.579h0.044c0,0,0-0.131,0-0.285c0-0.504,0.351-1.03,1.228-1.03
		h2.588v2.369h-0.855c-0.285,0-0.482,0.152-0.482,0.438v7.695c0,3.838-2.982,5.285-5.898,5.285c-1.402,0-2.895-0.396-3.969-0.966
		l0.855-2.192c0,0,1.381,0.746,3.092,0.746c1.688,0,3.157-0.724,3.157-2.74V62.92c0-0.263,0.022-0.592,0.022-0.592h-0.045
		c-0.657,0.943-1.622,1.447-3.113,1.447c-3.201,0-5.021-2.588-5.021-5.657C56.257,55.048,57.988,52.549,61.212,52.549z
		 M64.479,58.141c0-2.543-1.271-3.224-2.784-3.224c-1.688,0-2.609,1.228-2.609,3.113c0,1.952,0.987,3.399,2.784,3.399
		C63.207,61.43,64.479,60.662,64.479,58.141z"/>
	<path fill="#FFFFFF" d="M76.477,52.549c3.201,0,4.955,2.346,4.955,5.307c0,0.328-0.064,1.03-0.064,1.03h-7.72
		c0.22,1.974,1.667,3.005,3.354,3.005c1.799,0,3.137-1.25,3.137-1.25l1.162,1.93c0,0-1.711,1.688-4.495,1.688
		c-3.706,0-6.009-2.675-6.009-5.854C70.797,54.961,73.122,52.549,76.477,52.549z M78.581,56.956
		c-0.043-1.337-0.965-2.258-2.104-2.258c-1.426,0-2.434,0.854-2.741,2.258H78.581z"/>
	<path fill="#FFFFFF" d="M84.549,55.575c-0.109-0.285-0.307-0.396-0.614-0.396h-0.241v-2.367h1.602c0.922,0,1.359,0.285,1.646,1.052
		l2.104,5.876c0.24,0.658,0.416,1.601,0.416,1.601h0.045c0,0,0.175-0.942,0.395-1.601l2.104-5.876
		c0.285-0.767,0.746-1.052,1.646-1.052h1.491v2.367h-0.264c-0.308,0-0.504,0.109-0.613,0.396l-3.201,8.42H87.75L84.549,55.575z"/>
	<path fill="#FFFFFF" d="M102.665,52.549c3.201,0,4.955,2.346,4.955,5.307c0,0.328-0.065,1.03-0.065,1.03h-7.72
		c0.221,1.974,1.668,3.005,3.355,3.005c1.798,0,3.137-1.25,3.137-1.25l1.161,1.93c0,0-1.711,1.688-4.495,1.688
		c-3.705,0-6.009-2.675-6.009-5.854C96.984,54.961,99.31,52.549,102.665,52.549z M104.769,56.956
		c-0.044-1.337-0.965-2.258-2.104-2.258c-1.426,0-2.434,0.854-2.74,2.258H104.769z"/>
	<path fill="#FFFFFF" d="M111.438,55.663c0-0.329-0.176-0.481-0.482-0.481h-0.877v-2.369h2.543c0.986,0,1.491,0.418,1.491,1.359
		v0.658c0,0.417-0.044,0.702-0.044,0.702h0.044c0.505-1.601,1.843-2.873,3.552-2.873c0.241,0,0.506,0.044,0.506,0.044v2.74
		c0,0-0.285-0.043-0.68-0.043c-1.186,0-2.545,0.68-3.049,2.346c-0.152,0.548-0.24,1.162-0.24,1.82v4.429h-2.764V55.663z"/>
	<path fill="#FFFFFF" d="M1.863,84.656c0,0,1.426,1.645,3.334,1.645c0.854,0,1.512-0.351,1.512-1.096
		c0-1.579-5.897-1.557-5.897-5.176c0-2.235,2.017-3.266,4.341-3.266c1.514,0,3.926,0.504,3.926,2.323v1.162H6.622V79.7
		c0-0.526-0.79-0.789-1.403-0.789c-0.986,0-1.666,0.351-1.666,1.008c0,1.754,5.941,1.403,5.941,5.131c0,2.104-1.863,3.42-4.297,3.42
		c-3.07,0-4.648-1.995-4.648-1.995L1.863,84.656z"/>
	<path fill="#FFFFFF" d="M13.158,79.876c0-0.329-0.175-0.481-0.482-0.481h-0.877v-2.369h2.654c1.029,0,1.469,0.461,1.469,1.47v5.153
		c0,1.358,0.351,2.279,1.732,2.279c2.018,0,3.135-1.775,3.135-3.771v-5.132h2.785v8.354c0,0.308,0.176,0.481,0.482,0.481h0.877
		v2.347h-2.565c-0.965,0-1.47-0.46-1.47-1.25V86.65c0-0.262,0.022-0.504,0.022-0.504h-0.044c-0.525,1.162-1.93,2.324-3.859,2.324
		c-2.39,0-3.859-1.205-3.859-4.254V79.876z"/>
	<path fill="#FFFFFF" d="M28.227,75.49c0-0.329-0.176-0.482-0.482-0.482h-0.878v-2.367h2.653c1.031,0,1.491,0.459,1.491,1.49v3.245
		c0,0.548-0.044,0.942-0.044,0.942h0.044c0,0,0.986-1.557,3.354-1.557c3.025,0,4.955,2.391,4.955,5.854
		c0,3.552-2.17,5.854-5.131,5.854c-2.324,0-3.332-1.579-3.332-1.579h-0.044c0,0,0.044,0.308,0.044,0.745v0.57h-2.631L28.227,75.49
		L28.227,75.49z M33.707,86.125c1.514,0,2.807-1.25,2.807-3.464c0-2.127-1.14-3.509-2.784-3.509c-1.447,0-2.807,1.053-2.807,3.531
		C30.923,84.415,31.844,86.125,33.707,86.125z"/>
	<path fill="#FFFFFF" d="M43.03,84.656c0,0,1.425,1.645,3.333,1.645c0.855,0,1.513-0.351,1.513-1.096
		c0-1.579-5.897-1.557-5.897-5.176c0-2.235,2.017-3.266,4.341-3.266c1.513,0,3.925,0.504,3.925,2.323v1.162H47.79V79.7
		c0-0.526-0.79-0.789-1.404-0.789c-0.986,0-1.666,0.351-1.666,1.008c0,1.754,5.941,1.403,5.941,5.131c0,2.104-1.863,3.42-4.297,3.42
		c-3.07,0-4.648-1.995-4.648-1.995L43.03,84.656z"/>
	<path fill="#FFFFFF" d="M54.413,79.24h-1.447v-2.215h1.513v-3.047h2.719v3.047h2.544v2.215h-2.544v4.517
		c0,1.843,1.447,2.104,2.215,2.104c0.307,0,0.505-0.043,0.505-0.043v2.434c0,0-0.351,0.066-0.855,0.066
		c-1.557,0-4.648-0.461-4.648-4.211V79.24H54.413z"/>
	<path fill="#FFFFFF" d="M69.085,81.191h0.351v-0.088c0-1.602-0.636-2.192-2.061-2.192c-0.505,0-1.492,0.131-1.492,0.746v0.592
		h-2.587v-1.185c0-2.082,2.938-2.301,4.101-2.301c3.728,0,4.824,1.951,4.824,4.45v4.166c0,0.308,0.175,0.481,0.482,0.481h0.877
		v2.347h-2.5c-1.031,0-1.426-0.569-1.426-1.228c0-0.285,0.022-0.482,0.022-0.482h-0.044c0,0-0.855,1.975-3.377,1.975
		c-1.995,0-3.814-1.25-3.814-3.486C62.441,81.477,67.265,81.191,69.085,81.191z M66.936,86.3c1.491,0,2.544-1.579,2.544-2.938V83.1
		h-0.482c-1.447,0-3.749,0.196-3.749,1.754C65.248,85.6,65.796,86.3,66.936,86.3z"/>
	<path fill="#FFFFFF" d="M76.938,79.876c0-0.329-0.176-0.481-0.482-0.481h-0.877v-2.369h2.565c0.985,0,1.469,0.461,1.469,1.25v0.33
		c0,0.24-0.044,0.481-0.044,0.481h0.044c0.482-0.942,1.688-2.323,3.946-2.323c2.479,0,3.902,1.293,3.902,4.254v4.362
		c0,0.308,0.177,0.481,0.482,0.481h0.877v2.347h-2.652c-1.053,0-1.49-0.438-1.49-1.491v-5.131c0-1.359-0.352-2.279-1.756-2.279
		c-1.489,0-2.608,0.942-3.004,2.279c-0.152,0.46-0.219,0.965-0.219,1.491v5.131h-2.763L76.938,79.876L76.938,79.876z"/>
	<path fill="#FFFFFF" d="M92.204,79.24h-1.447v-2.215h1.513v-3.047h2.719v3.047h2.544v2.215h-2.544v4.517
		c0,1.843,1.447,2.104,2.216,2.104c0.307,0,0.504-0.043,0.504-0.043v2.434c0,0-0.352,0.066-0.854,0.066
		c-1.558,0-4.647-0.461-4.647-4.211V79.24H92.204z"/>
	<path fill="#FFFFFF" d="M101.479,79.876c0-0.329-0.175-0.481-0.482-0.481h-0.877v-2.369h2.653c1.03,0,1.47,0.461,1.47,1.492v6.862
		c0,0.308,0.176,0.481,0.481,0.481h0.878v2.347h-2.652c-1.031,0-1.471-0.438-1.471-1.491V79.876z M101.611,72.641h2.412v2.564
		h-2.412V72.641z"/>
	<path fill="#FFFFFF" d="M113.629,76.762c3.201,0,4.955,2.346,4.955,5.307c0,0.328-0.065,1.031-0.065,1.031h-7.72
		c0.221,1.973,1.668,3.004,3.355,3.004c1.799,0,3.137-1.25,3.137-1.25l1.162,1.93c0,0-1.711,1.688-4.496,1.688
		c-3.705,0-6.008-2.675-6.008-5.854C107.95,79.174,110.274,76.762,113.629,76.762z M115.733,81.169
		c-0.044-1.337-0.965-2.258-2.104-2.258c-1.426,0-2.435,0.854-2.741,2.258H115.733z"/>
	<path fill="#FFFFFF" d="M126.963,76.762c3.201,0,4.955,2.346,4.955,5.307c0,0.328-0.064,1.031-0.064,1.031h-7.719
		c0.22,1.973,1.666,3.004,3.355,3.004c1.797,0,3.135-1.25,3.135-1.25l1.162,1.93c0,0-1.711,1.688-4.494,1.688
		c-3.707,0-6.008-2.675-6.008-5.854C121.286,79.174,123.609,76.762,126.963,76.762z M129.068,81.169
		c-0.044-1.337-0.965-2.258-2.104-2.258c-1.426,0-2.434,0.854-2.74,2.258H129.068z"/>
	<path fill="#FFFFFF" d="M135.672,75.49c0-0.329-0.176-0.482-0.482-0.482h-0.877v-2.367h2.652c1.031,0,1.492,0.459,1.492,1.49V85.38
		c0,0.308,0.174,0.481,0.481,0.481h0.854v2.347h-2.631c-1.054,0-1.492-0.438-1.492-1.491V75.49H135.672z"/>
	<path fill="#FFFFFF" d="M0,90.949v-1.096h141.418v1.096H0z"/>
</g>
</svg>
