<?xml version="1.0" encoding="utf-8"?>
<!-- Generator: Adobe Illustrator 23.0.3, SVG Export Plug-In . SVG Version: 6.00 Build 0)  -->
<svg version="1.1" id="Layer_1" xmlns="http://www.w3.org/2000/svg" xmlns:xlink="http://www.w3.org/1999/xlink" x="0px" y="0px"
	 viewBox="0 0 300 250" style="enable-background:new 0 0 300 250;" xml:space="preserve">
<style type="text/css">
	.st0{fill:#BB8C54;}
</style>
<g>
	<path class="st0" d="M88.3,75h-4.9c-0.4,0.1-0.8,0.1-1.2,0.1c-1,0-1.9-0.2-2.8-0.7c-0.9-0.5-1.5-1.2-2-2c-0.5-0.8-0.8-1.8-0.8-2.8
		c0-1,0.3-1.9,0.8-2.8s1.2-1.5,2-2c0.9-0.5,1.8-0.8,2.8-0.8c1,0,1.9,0.3,2.8,0.8c0.9,0.5,1.5,1.2,2,2.1c0.5,0.9,0.8,1.8,0.8,2.8
		c0,0.7-0.1,1.4-0.4,2c-0.3,0.6-0.6,1.2-1.1,1.7h2V75z M79,71.5c0.3,0.6,0.8,1.1,1.4,1.4c0.6,0.3,1.2,0.5,1.9,0.5
		c0.7,0,1.3-0.2,1.9-0.5c0.6-0.3,1-0.8,1.4-1.4c0.3-0.6,0.5-1.2,0.5-1.9c0-0.7-0.2-1.3-0.5-1.9s-0.8-1.1-1.4-1.4
		c-0.6-0.4-1.2-0.5-1.9-0.5c-0.7,0-1.3,0.2-1.9,0.5c-0.6,0.4-1,0.8-1.4,1.4s-0.5,1.2-0.5,1.9C78.5,70.2,78.6,70.9,79,71.5z"/>
	<path class="st0" d="M92.6,72.2c0.2,0.4,0.5,0.6,0.9,0.9c0.4,0.2,0.8,0.3,1.2,0.3c0.5,0,0.9-0.1,1.3-0.3s0.7-0.5,0.9-0.9
		c0.2-0.4,0.3-0.8,0.3-1.2v-7H99v7c0,0.8-0.2,1.5-0.6,2.1c-0.4,0.6-0.9,1.1-1.5,1.4c-0.6,0.3-1.4,0.5-2.1,0.5s-1.5-0.2-2.1-0.5
		c-0.6-0.3-1.2-0.8-1.5-1.4c-0.4-0.6-0.6-1.3-0.6-2.1v-7h1.7v7C92.3,71.5,92.4,71.8,92.6,72.2z"/>
	<path class="st0" d="M109,64v1.7h-5.5v2.9h4.9v1.7h-4.9v3h5.7V75h-7.5V64H109z"/>
	<path class="st0" d="M118.9,64v1.7h-5.5v2.9h4.9v1.7h-4.9v3h5.7V75h-7.5V64H118.9z"/>
	<path class="st0" d="M131.2,64v11.3h0l-7.9-7.6l0,7.2h-1.8V63.7h0.1l7.8,7.7l0-7.4H131.2z"/>
	<path class="st0" d="M133.1,66.1c0.2-0.2,0.3-0.4,0.5-0.7s0.2-0.6,0.2-0.9c0-0.1,0-0.2,0-0.3l1.3-0.1c0,0.1,0,0.2,0,0.3
		c0,0.4-0.1,0.8-0.3,1.2c-0.2,0.4-0.5,0.7-0.8,0.9L133.1,66.1z"/>
	<path class="st0" d="M140.3,65.5c-0.5,0-1,0.1-1.3,0.4c-0.3,0.2-0.5,0.6-0.5,1c0,0.4,0.2,0.8,0.6,1c0.4,0.3,0.9,0.5,1.7,0.8
		c0.5,0.2,1,0.4,1.4,0.7s0.7,0.6,1,1s0.4,1,0.4,1.6c0,0.6-0.1,1.1-0.4,1.6c-0.3,0.5-0.7,0.8-1.3,1.1c-0.6,0.3-1.2,0.4-2,0.4
		c-0.7,0-1.3-0.1-2-0.3c-0.6-0.2-1.2-0.5-1.7-0.8l0.8-1.4c0.4,0.3,0.8,0.5,1.3,0.7c0.5,0.2,1,0.3,1.4,0.3c0.5,0,1-0.1,1.4-0.4
		c0.4-0.3,0.6-0.6,0.6-1.2c0-0.4-0.2-0.8-0.5-1.1c-0.3-0.3-0.8-0.5-1.4-0.8c-0.6-0.2-1.1-0.5-1.5-0.7s-0.8-0.5-1.1-0.9
		c-0.3-0.4-0.4-0.9-0.4-1.5c0-0.9,0.3-1.6,0.9-2.2c0.6-0.5,1.4-0.8,2.4-0.9c0.7,0,1.4,0.1,1.9,0.2s1.1,0.4,1.5,0.7l-0.7,1.3
		C141.8,65.8,141,65.5,140.3,65.5z"/>
	<path class="st0" d="M157.2,70.3c0.3,0.4,0.5,1,0.5,1.5c0,1.1-0.4,1.8-1.1,2.4S155,75,154,75h-3.4V64h3c1.1,0,2,0.2,2.7,0.7
		c0.6,0.5,0.9,1.1,0.9,2c0,0.6-0.1,1.1-0.4,1.5c-0.2,0.4-0.6,0.7-1,1C156.4,69.5,156.8,69.9,157.2,70.3z M152.3,68.7h1.5
		c0.5,0,0.9-0.1,1.1-0.4c0.3-0.3,0.4-0.7,0.4-1.1c0-0.5-0.2-0.8-0.5-1.1c-0.3-0.2-0.7-0.4-1.3-0.4h-1.3V68.7z M155.3,73
		c0.4-0.3,0.6-0.6,0.6-1.1c0-0.5-0.2-0.9-0.6-1.1c-0.4-0.2-0.9-0.3-1.5-0.3h-1.5v3h1.6C154.5,73.3,155,73.2,155.3,73z"/>
	<path class="st0" d="M161.8,64V75H160V64H161.8z"/>
	<path class="st0" d="M170.8,75l-2.5-3.8h-0.2h-1.6V75h-1.8V64h3.1c1.2,0,2.2,0.3,2.9,0.9c0.7,0.6,1.1,1.5,1.1,2.6
		c0,0.7-0.1,1.3-0.4,1.9c-0.3,0.6-0.7,1-1.3,1.3l2.7,4.2H170.8z M166.5,69.5h1.6c0.7,0,1.2-0.2,1.5-0.6c0.3-0.4,0.5-0.8,0.5-1.3
		c0-0.3-0.1-0.6-0.2-0.8c-0.1-0.3-0.3-0.5-0.6-0.7c-0.3-0.2-0.7-0.3-1.1-0.3h-1.6V69.5z"/>
	<path class="st0" d="M181.2,64v1.7h-2.8V75h-1.7v-9.2h-2.7V64H181.2z"/>
	<path class="st0" d="M192.3,75h-1.8v-4.6h-5.4V75h-1.8V64h1.8v4.6h5.4V64h1.8V75z"/>
	<path class="st0" d="M195.3,64h3.1c1.4,0,2.5,0.3,3.4,0.8c0.9,0.5,1.5,1.2,2,2.1s0.6,1.8,0.6,2.7c0,1.1-0.2,2-0.7,2.8
		c-0.5,0.8-1.2,1.4-2,1.9s-1.7,0.7-2.7,0.7h-3.6V64z M198.6,73.3c0.8,0,1.5-0.1,2.1-0.4c0.6-0.3,1.1-0.7,1.4-1.3s0.5-1.2,0.5-2
		c0-0.9-0.2-1.6-0.5-2.2c-0.4-0.6-0.8-1-1.4-1.3c-0.6-0.3-1.1-0.4-1.7-0.4H197v7.6H198.6z"/>
	<path class="st0" d="M211.7,72.4h-4l-1,2.6h-1.7l4.8-11.4h0.1l4.8,11.4h-2L211.7,72.4z M211.1,70.9l-1.4-3.5l-1.4,3.5H211.1z"/>
	<path class="st0" d="M223.8,64l-4.1,7.4V75H218v-3.5l-4-7.4h2.1l2.8,5.4l2.8-5.4H223.8z"/>
</g>
</svg>
