<?xml version="1.0" encoding="utf-8"?>
<!-- Generator: Adobe Illustrator 23.0.3, SVG Export Plug-In . SVG Version: 6.00 Build 0)  -->
<svg version="1.1" id="Layer_1" xmlns="http://www.w3.org/2000/svg" xmlns:xlink="http://www.w3.org/1999/xlink" x="0px" y="0px"
	 viewBox="0 0 300 250" style="enable-background:new 0 0 300 250;" xml:space="preserve">
<style type="text/css">
	.st0{fill:#768961;}
</style>
<g>
	<path class="st0" d="M78.2,152v1.7h-4.9v3.1h4.2v1.7h-4.2v4.5h-1.8V152H78.2z"/>
	<path class="st0" d="M80.4,154.7c0.5-0.9,1.2-1.5,2-2c0.9-0.5,1.8-0.8,2.8-0.8c1,0,1.9,0.3,2.8,0.8c0.9,0.5,1.5,1.2,2,2.1
		c0.5,0.9,0.8,1.8,0.8,2.8c0,1-0.3,1.9-0.8,2.8c-0.5,0.9-1.2,1.5-2,2c-0.9,0.5-1.8,0.8-2.8,0.8c-1,0-1.9-0.2-2.8-0.7
		c-0.9-0.5-1.5-1.2-2-2c-0.5-0.9-0.8-1.8-0.8-2.8C79.7,156.5,79.9,155.6,80.4,154.7z M82,159.5c0.3,0.6,0.8,1.1,1.4,1.4
		c0.6,0.4,1.2,0.5,1.9,0.5c0.7,0,1.3-0.2,1.9-0.5c0.6-0.3,1-0.8,1.4-1.4s0.5-1.2,0.5-2c0-0.7-0.2-1.4-0.5-2
		c-0.3-0.6-0.8-1.1-1.4-1.4c-0.6-0.3-1.2-0.5-1.9-0.5c-0.7,0-1.3,0.2-1.9,0.5c-0.6,0.4-1,0.8-1.4,1.4c-0.3,0.6-0.5,1.3-0.5,2
		C81.5,158.2,81.7,158.9,82,159.5z"/>
	<path class="st0" d="M99.2,163l-2.5-3.8h-0.2h-1.6v3.8h-1.8V152h3.1c1.2,0,2.2,0.3,2.9,0.9c0.7,0.6,1.1,1.5,1.1,2.6
		c0,0.7-0.1,1.3-0.4,1.9c-0.3,0.6-0.7,1-1.3,1.3l2.7,4.2H99.2z M94.9,157.5h1.6c0.7,0,1.2-0.2,1.5-0.6c0.3-0.4,0.5-0.8,0.5-1.3
		c0-0.3-0.1-0.6-0.2-0.8s-0.3-0.5-0.6-0.7s-0.7-0.3-1.1-0.3h-1.6V157.5z"/>
	<path class="st0" d="M108.8,160.4h-4l-1,2.6h-1.7l4.8-11.4h0.1l4.8,11.4h-2L108.8,160.4z M108.3,158.9l-1.4-3.4l-1.4,3.4H108.3z"/>
	<path class="st0" d="M116.9,153.5c-0.5,0-1,0.1-1.3,0.4c-0.3,0.2-0.5,0.6-0.5,1c0,0.4,0.2,0.8,0.6,1c0.4,0.3,0.9,0.5,1.7,0.8
		c0.5,0.2,1,0.4,1.4,0.7c0.4,0.2,0.7,0.6,1,1s0.4,1,0.4,1.6c0,0.6-0.1,1.1-0.4,1.6s-0.7,0.8-1.3,1.1s-1.2,0.4-2,0.4
		c-0.7,0-1.3-0.1-2-0.3c-0.6-0.2-1.2-0.5-1.7-0.8l0.8-1.4c0.4,0.3,0.8,0.5,1.3,0.7c0.5,0.2,1,0.3,1.4,0.3c0.5,0,1-0.1,1.4-0.4
		c0.4-0.3,0.6-0.6,0.6-1.2c0-0.4-0.2-0.8-0.5-1c-0.3-0.3-0.8-0.5-1.4-0.8c-0.6-0.2-1.1-0.5-1.5-0.7s-0.8-0.5-1.1-0.9
		c-0.3-0.4-0.4-0.9-0.4-1.5c0-0.9,0.3-1.6,0.9-2.2c0.6-0.5,1.4-0.8,2.4-0.9c0.7,0,1.4,0.1,1.9,0.2c0.5,0.2,1.1,0.4,1.5,0.7l-0.7,1.3
		C118.5,153.8,117.7,153.5,116.9,153.5z"/>
	<path class="st0" d="M122.3,164.8h-1.3l0.4-1c0.5-1.2,0.7-1.9,0.8-2.1h1.5L122.3,164.8z"/>
	<path class="st0" d="M133.5,153.5c-0.5,0-1,0.1-1.3,0.4c-0.3,0.2-0.5,0.6-0.5,1c0,0.4,0.2,0.8,0.6,1c0.4,0.3,0.9,0.5,1.7,0.8
		c0.5,0.2,1,0.4,1.4,0.7c0.4,0.2,0.7,0.6,1,1s0.4,1,0.4,1.6c0,0.6-0.1,1.1-0.4,1.6s-0.7,0.8-1.3,1.1s-1.2,0.4-2,0.4
		c-0.7,0-1.3-0.1-2-0.3c-0.6-0.2-1.2-0.5-1.7-0.8l0.8-1.4c0.4,0.3,0.8,0.5,1.3,0.7c0.5,0.2,1,0.3,1.4,0.3c0.5,0,1-0.1,1.4-0.4
		c0.4-0.3,0.6-0.6,0.6-1.2c0-0.4-0.2-0.8-0.5-1c-0.3-0.3-0.8-0.5-1.4-0.8c-0.6-0.2-1.1-0.5-1.5-0.7s-0.8-0.5-1.1-0.9
		c-0.3-0.4-0.4-0.9-0.4-1.5c0-0.9,0.3-1.6,0.9-2.2c0.6-0.5,1.4-0.8,2.4-0.9c0.7,0,1.4,0.1,1.9,0.2c0.5,0.2,1.1,0.4,1.5,0.7l-0.7,1.3
		C135.1,153.8,134.3,153.5,133.5,153.5z"/>
	<path class="st0" d="M145.5,152v1.7h-2.8v9.2H141v-9.2h-2.7V152H145.5z"/>
	<path class="st0" d="M147.4,154.7c0.5-0.9,1.2-1.5,2-2c0.9-0.5,1.8-0.8,2.8-0.8c1,0,1.9,0.3,2.8,0.8c0.9,0.5,1.5,1.2,2,2.1
		s0.8,1.8,0.8,2.8c0,1-0.3,1.9-0.8,2.8c-0.5,0.9-1.2,1.5-2,2c-0.9,0.5-1.8,0.8-2.8,0.8c-1,0-1.9-0.2-2.8-0.7c-0.9-0.5-1.5-1.2-2-2
		c-0.5-0.9-0.8-1.8-0.8-2.8C146.6,156.5,146.9,155.6,147.4,154.7z M149,159.5c0.3,0.6,0.8,1.1,1.4,1.4c0.6,0.4,1.2,0.5,1.9,0.5
		c0.7,0,1.3-0.2,1.9-0.5c0.6-0.3,1-0.8,1.4-1.4s0.5-1.2,0.5-2c0-0.7-0.2-1.4-0.5-2c-0.3-0.6-0.8-1.1-1.4-1.4
		c-0.6-0.3-1.2-0.5-1.9-0.5c-0.7,0-1.3,0.2-1.9,0.5c-0.6,0.4-1,0.8-1.4,1.4c-0.3,0.6-0.5,1.3-0.5,2
		C148.4,158.2,148.6,158.9,149,159.5z"/>
	<path class="st0" d="M168.2,163.4l-2.6-6.5l-2.9,6.5l-4.4-11.4h2l2.5,7.3l1.8-4.6l-1-2.6h1.7l2.8,7.1l2.3-7.1h1.9L168.2,163.4z"/>
	<path class="st0" d="M181.1,158.3c0.3,0.4,0.5,1,0.5,1.5c0,1.1-0.4,1.8-1.1,2.4c-0.7,0.5-1.6,0.8-2.6,0.8h-3.4V152h3
		c1.1,0,2,0.2,2.7,0.7s0.9,1.1,0.9,2c0,0.6-0.1,1.1-0.4,1.5s-0.6,0.7-1,1C180.3,157.5,180.8,157.9,181.1,158.3z M176.3,156.7h1.5
		c0.5,0,0.9-0.1,1.1-0.4s0.4-0.7,0.4-1.1c0-0.5-0.2-0.8-0.5-1.1s-0.7-0.4-1.3-0.4h-1.3V156.7z M179.3,161c0.4-0.3,0.6-0.6,0.6-1.1
		c0-0.5-0.2-0.9-0.6-1.1c-0.4-0.2-0.9-0.3-1.5-0.3h-1.5v3h1.6C178.4,161.3,178.9,161.2,179.3,161z"/>
	<path class="st0" d="M189.9,163l-2.5-3.8h-0.2h-1.6v3.8H184V152h3.1c1.2,0,2.2,0.3,2.9,0.9c0.7,0.6,1.1,1.5,1.1,2.6
		c0,0.7-0.1,1.3-0.4,1.9c-0.3,0.6-0.7,1-1.3,1.3l2.7,4.2H189.9z M185.7,157.5h1.6c0.7,0,1.2-0.2,1.5-0.6c0.3-0.4,0.5-0.8,0.5-1.3
		c0-0.3-0.1-0.6-0.2-0.8s-0.3-0.5-0.6-0.7s-0.7-0.3-1.1-0.3h-1.6V157.5z"/>
	<path class="st0" d="M195.8,152V163H194V152H195.8z"/>
	<path class="st0" d="M198.8,152h3.1c1.4,0,2.5,0.3,3.4,0.8c0.9,0.5,1.5,1.2,2,2.1c0.4,0.9,0.6,1.8,0.6,2.7c0,1.1-0.2,2-0.7,2.8
		c-0.5,0.8-1.2,1.4-2,1.9c-0.8,0.4-1.7,0.7-2.7,0.7h-3.6V152z M202.1,161.3c0.8,0,1.5-0.1,2.1-0.4c0.6-0.3,1.1-0.7,1.4-1.3
		c0.3-0.6,0.5-1.2,0.5-2c0-0.9-0.2-1.6-0.5-2.2c-0.4-0.6-0.8-1-1.4-1.3c-0.6-0.3-1.1-0.4-1.7-0.4h-1.8v7.6H202.1z"/>
	<path class="st0" d="M217.3,162.7c-0.7,0.2-1.4,0.4-2,0.4c-1.2,0-2.2-0.2-3-0.7s-1.5-1.1-2-1.9c-0.5-0.8-0.7-1.7-0.7-2.7
		c0-1.2,0.3-2.3,0.8-3.2s1.2-1.5,2-2c0.9-0.5,1.8-0.7,2.8-0.7c0.6,0,1.2,0.1,1.8,0.2c0.6,0.1,1.1,0.3,1.5,0.6l-0.6,1.6
		c-0.3-0.2-0.7-0.3-1.2-0.5c-0.5-0.1-0.9-0.2-1.3-0.2c-1.3,0-2.2,0.3-3,1s-1.1,1.7-1.1,2.9c0,0.7,0.2,1.4,0.5,2
		c0.3,0.6,0.8,1,1.4,1.3c0.6,0.3,1.3,0.5,2.1,0.5c0.3,0,0.7,0,1-0.1c0.3-0.1,0.6-0.2,0.8-0.3v-1.8h-2.1v-1.7h3.8v4.5
		C218.6,162.2,218,162.5,217.3,162.7z"/>
	<path class="st0" d="M228.8,152v1.7h-5.5v2.9h4.9v1.7h-4.9v3h5.7v1.7h-7.5V152H228.8z"/>
</g>
</svg>
