<?xml version="1.0" encoding="utf-8"?>
<!-- Generator: Adobe Illustrator 23.0.3, SVG Export Plug-In . SVG Version: 6.00 Build 0)  -->
<svg version="1.1" id="Layer_1" xmlns="http://www.w3.org/2000/svg" xmlns:xlink="http://www.w3.org/1999/xlink" x="0px" y="0px"
	 viewBox="0 0 300 250" style="enable-background:new 0 0 300 250;" xml:space="preserve">
<style type="text/css">
	.st0{fill:#BB8C54;}
</style>
<g>
	<path class="st0" d="M78.9,131.1c0.4-0.5,0.8-0.8,1.3-1.1c-0.3-0.2-0.5-0.5-0.7-0.8c-0.2-0.3-0.2-0.6-0.2-1c0-0.4,0.1-0.8,0.4-1.2
		c0.2-0.3,0.6-0.6,1-0.8c0.4-0.2,0.9-0.3,1.4-0.3s1,0.1,1.4,0.3s0.7,0.5,1,0.8c0.2,0.3,0.4,0.7,0.4,1.1c0,0.4-0.1,0.8-0.2,1.1
		s-0.4,0.5-0.7,0.8c0.5,0.3,0.9,0.6,1.3,1.1c0.4,0.5,0.5,1,0.5,1.7c0,0.6-0.2,1.1-0.5,1.6c-0.3,0.5-0.8,0.9-1.3,1.2
		c-0.6,0.3-1.2,0.5-1.8,0.5s-1.3-0.2-1.8-0.5s-1-0.7-1.3-1.2c-0.3-0.5-0.5-1-0.5-1.6C78.4,132.1,78.6,131.5,78.9,131.1z M80.4,133.7
		c0.2,0.3,0.4,0.5,0.7,0.7c0.3,0.2,0.6,0.3,0.9,0.3c0.3,0,0.6-0.1,0.9-0.3s0.5-0.4,0.7-0.7c0.2-0.3,0.3-0.6,0.3-0.9
		c0-0.5-0.2-1-0.5-1.3c-0.4-0.4-0.8-0.5-1.3-0.5c-0.3,0-0.6,0.1-0.9,0.2s-0.5,0.4-0.7,0.7s-0.3,0.6-0.3,0.9
		C80.2,133.1,80.2,133.4,80.4,133.7z M81.3,129.1c0.2,0.2,0.5,0.3,0.7,0.3c0.3,0,0.5-0.1,0.7-0.3s0.3-0.4,0.3-0.7
		c0-0.3-0.1-0.5-0.3-0.7c-0.2-0.2-0.4-0.3-0.7-0.3c-0.3,0-0.5,0.1-0.7,0.3c-0.2,0.2-0.3,0.4-0.3,0.7C81,128.7,81.1,128.9,81.3,129.1
		z"/>
	<path class="st0" d="M91.3,128.7v1.1h-1.9v6.2h-1.2v-6.2h-1.8v-1.1H91.3z"/>
	<path class="st0" d="M98.7,136h-1.2v-3.1h-3.6v3.1h-1.2v-7.3h1.2v3.1h3.6v-3.1h1.2V136z"/>
	<path class="st0" d="M112.8,136l-0.9-1.2c-0.3,0.4-0.7,0.7-1.3,1c-0.5,0.2-1.1,0.4-1.8,0.4s-1.3-0.1-1.8-0.4s-1-0.7-1.3-1.2
		c-0.3-0.5-0.5-1.1-0.5-1.7c0-0.8,0.3-1.4,0.8-2s1.2-1,2-1.2l-0.3-0.4c-0.5-0.8-0.8-1.5-0.8-2.1c0-0.4,0.1-0.8,0.3-1.2
		c0.2-0.4,0.5-0.7,0.9-0.9c0.4-0.2,0.9-0.4,1.5-0.4c0.6,0,1.2,0.1,1.7,0.4c0.5,0.2,0.9,0.6,1.3,0.9l-0.9,1.2
		c-0.3-0.3-0.7-0.6-0.9-0.7c-0.3-0.2-0.6-0.3-0.8-0.3c-0.4,0-0.7,0.1-0.9,0.3c-0.2,0.2-0.3,0.5-0.3,0.9c0,0.3,0.1,0.6,0.2,0.8
		c0.2,0.3,0.2,0.4,0.3,0.4l2.5,3.4l0.9-2.4h1.6l-1.5,3.8l2.1,2.7H112.8z M111,133.6l-2.1-2.8c-0.5,0.1-1,0.3-1.3,0.6
		c-0.4,0.4-0.5,0.8-0.5,1.3c0,0.5,0.2,1,0.6,1.3c0.4,0.3,0.9,0.5,1.5,0.5C110,134.6,110.6,134.2,111,133.6z"/>
	<path class="st0" d="M126.2,126.5c0.6,0.3,1,0.7,1.3,1.3c0.3,0.5,0.5,1.2,0.5,1.8c0,1-0.2,1.9-0.7,2.7s-1,1.5-1.7,2.1
		c-0.7,0.6-1.5,1.2-2.5,1.8l-1.2-1.3c0.8-0.4,1.5-0.8,2.1-1.2c0.6-0.4,1.1-0.9,1.4-1.4c-0.4,0.3-1,0.5-1.7,0.5c-0.5,0-1-0.1-1.4-0.4
		c-0.5-0.3-0.8-0.7-1.1-1.1c-0.3-0.5-0.4-1-0.4-1.6c0-0.7,0.2-1.3,0.5-1.9c0.3-0.5,0.8-1,1.3-1.2c0.5-0.3,1.1-0.4,1.7-0.4
		C125,126,125.6,126.2,126.2,126.5z M123.1,130.8c0.3,0.3,0.8,0.5,1.3,0.5s0.9-0.2,1.3-0.5c0.3-0.3,0.5-0.7,0.5-1.2v-0.3
		c0-0.5-0.2-0.9-0.5-1.3c-0.3-0.3-0.8-0.5-1.3-0.5c-0.5,0-0.9,0.2-1.3,0.5s-0.5,0.8-0.5,1.4C122.6,130,122.8,130.5,123.1,130.8z"/>
	<path class="st0" d="M133.7,128.7v1.1h-1.9v6.2h-1.2v-6.2h-1.8v-1.1H133.7z"/>
	<path class="st0" d="M141.1,136H140v-3.1h-3.6v3.1h-1.2v-7.3h1.2v3.1h3.6v-3.1h1.2V136z"/>
	<path class="st0" d="M150.6,136.2c-0.4,0.7-0.8,1.2-1.5,1.5c-0.6,0.4-1.3,0.5-2.1,0.6v-1.7c0.7,0,1.3-0.3,1.7-0.7
		c0.4-0.4,0.6-1.1,0.6-2V125h1.8v8.8C151.1,134.7,150.9,135.5,150.6,136.2z"/>
	<path class="st0" d="M156,133.2c0.2,0.4,0.5,0.6,0.9,0.9c0.4,0.2,0.8,0.3,1.2,0.3c0.5,0,0.9-0.1,1.3-0.3c0.4-0.2,0.7-0.5,0.9-0.9
		c0.2-0.4,0.3-0.8,0.3-1.2v-7h1.7v7c0,0.8-0.2,1.5-0.6,2.1s-0.9,1.1-1.5,1.4c-0.7,0.3-1.4,0.5-2.1,0.5c-0.8,0-1.5-0.2-2.1-0.5
		c-0.6-0.3-1.2-0.8-1.5-1.4c-0.4-0.6-0.6-1.3-0.6-2.1v-7h1.7v7C155.7,132.5,155.8,132.8,156,133.2z"/>
	<path class="st0" d="M174.9,125v11.3h0l-7.9-7.6l0,7.2h-1.8v-11.3h0.1l7.8,7.7l0-7.4H174.9z"/>
	<path class="st0" d="M185.1,125v1.7h-5.5v2.9h4.9v1.7h-4.9v3h5.7v1.7h-7.5V125H185.1z"/>
	<path class="st0" d="M198.8,134.3v1.7h-6.9l0.5-0.5c1-1,1.8-1.8,2.3-2.4c0.6-0.6,1-1.3,1.4-1.9s0.6-1.2,0.6-1.8
		c0-0.5-0.2-1-0.5-1.2c-0.3-0.3-0.7-0.4-1.2-0.4c-0.5,0-0.9,0.1-1.2,0.5c-0.3,0.3-0.4,0.6-0.4,1c0,0.6,0.2,1.1,0.6,1.5l-1.1,1
		c-0.4-0.2-0.7-0.6-0.9-1.1c-0.2-0.5-0.3-1-0.3-1.4c0-0.5,0.1-1.1,0.4-1.6c0.3-0.5,0.7-0.9,1.3-1.2s1.2-0.4,2-0.4
		c0.6,0,1.2,0.1,1.7,0.4c0.5,0.3,0.9,0.7,1.1,1.2c0.3,0.5,0.4,1,0.4,1.6c0,0.6-0.1,1.1-0.4,1.7c-0.3,0.6-0.6,1.1-0.9,1.6
		c-0.4,0.5-0.9,1.1-1.5,1.9H198.8z"/>
	<path class="st0" d="M202,135.4c-0.6-0.4-1.1-1-1.5-1.7c-0.4-0.8-0.5-1.7-0.5-2.7c0-1.7,0.4-3,1.1-3.8c0.7-0.8,1.8-1.2,3.1-1.2
		c0.8,0,1.5,0.2,2.1,0.6c0.6,0.4,1.1,1,1.5,1.7c0.4,0.8,0.5,1.7,0.5,2.7c0,1.1-0.2,2-0.5,2.8c-0.4,0.8-0.9,1.3-1.5,1.7
		s-1.3,0.6-2.1,0.6C203.3,136,202.6,135.8,202,135.4z M205.9,133.4c0.4-0.6,0.6-1.4,0.6-2.5c0-1-0.2-1.8-0.6-2.4
		c-0.4-0.6-1-0.9-1.8-0.9c-0.8,0-1.4,0.3-1.8,0.9c-0.4,0.6-0.6,1.4-0.6,2.4s0.2,1.8,0.6,2.4c0.4,0.6,1,0.9,1.8,0.9
		C204.9,134.3,205.5,134,205.9,133.4z"/>
	<path class="st0" d="M212.3,126.1v9.9h-1.8v-8.2h-1v-1.7H212.3z"/>
	<path class="st0" d="M219.8,126.5c0.6,0.3,1,0.7,1.3,1.3s0.5,1.2,0.5,1.8c0,1-0.2,1.9-0.7,2.7s-1,1.5-1.7,2.1s-1.5,1.2-2.5,1.8
		l-1.2-1.3c0.8-0.4,1.5-0.8,2.1-1.2c0.6-0.4,1.1-0.9,1.4-1.4c-0.5,0.3-1,0.5-1.7,0.5c-0.5,0-1-0.1-1.4-0.4c-0.5-0.3-0.8-0.7-1.1-1.1
		c-0.3-0.5-0.4-1-0.4-1.6c0-0.7,0.2-1.3,0.5-1.9c0.3-0.5,0.8-1,1.3-1.2c0.5-0.3,1.1-0.4,1.7-0.4C218.6,126,219.2,126.2,219.8,126.5z
		 M216.7,130.8c0.3,0.3,0.8,0.5,1.3,0.5s0.9-0.2,1.3-0.5c0.3-0.3,0.5-0.7,0.5-1.2v-0.3c0-0.5-0.2-0.9-0.5-1.3
		c-0.3-0.3-0.8-0.5-1.3-0.5c-0.5,0-0.9,0.2-1.3,0.5c-0.3,0.3-0.5,0.8-0.5,1.4C216.2,130,216.3,130.5,216.7,130.8z"/>
</g>
</svg>
