<?xml version="1.0" encoding="utf-8"?>
<!-- Generator: Adobe Illustrator 23.0.3, SVG Export Plug-In . SVG Version: 6.00 Build 0)  -->
<svg version="1.1" id="Layer_1" xmlns="http://www.w3.org/2000/svg" xmlns:xlink="http://www.w3.org/1999/xlink" x="0px" y="0px"
	 viewBox="0 0 300 250" style="enable-background:new 0 0 300 250;" xml:space="preserve">
<style type="text/css">
	.st0{fill:#768961;}
</style>
<g>
	<path class="st0" d="M52.4,126c-0.6,0.2-1.3,0.4-2.1,0.4c-1.3,0-2.4-0.3-3.4-0.8c-1-0.6-1.7-1.3-2.2-2.3s-0.8-2-0.8-3.1
		c0-1.2,0.3-2.3,0.8-3.3c0.5-1,1.2-1.7,2.2-2.3c0.9-0.5,2-0.8,3.2-0.8c0.7,0,1.4,0.1,2,0.3c0.6,0.2,1.2,0.4,1.6,0.7l-0.8,1.9
		c-0.9-0.6-1.9-1-2.8-1c-0.7,0-1.4,0.2-2,0.6s-1.1,0.9-1.5,1.6c-0.4,0.7-0.6,1.4-0.6,2.2c0,0.8,0.2,1.6,0.5,2.3
		c0.3,0.7,0.8,1.2,1.5,1.6c0.6,0.4,1.4,0.6,2.2,0.6c0.6,0,1.1-0.1,1.6-0.3c0.5-0.2,0.9-0.4,1.2-0.7l0.8,1.8
		C53.6,125.6,53.1,125.8,52.4,126z"/>
	<path class="st0" d="M55.6,120.6c0.3-0.6,0.8-1.1,1.4-1.4c0.6-0.3,1.3-0.5,2.1-0.5c0.8,0,1.5,0.2,2.1,0.5c0.6,0.3,1.1,0.8,1.4,1.4
		c0.3,0.6,0.5,1.2,0.5,2s-0.2,1.4-0.5,2c-0.3,0.6-0.8,1-1.4,1.4s-1.3,0.5-2.1,0.5c-0.8,0-1.5-0.2-2.1-0.5s-1.1-0.8-1.4-1.3
		c-0.3-0.6-0.5-1.3-0.5-2C55.1,121.9,55.3,121.2,55.6,120.6z M57.6,124.2c0.4,0.4,0.9,0.7,1.5,0.7c0.6,0,1.1-0.2,1.5-0.6
		c0.4-0.4,0.6-1,0.6-1.6s-0.2-1.2-0.6-1.6c-0.4-0.4-0.9-0.7-1.5-0.7c-0.6,0-1.1,0.2-1.5,0.7c-0.4,0.4-0.6,1-0.6,1.6
		C57,123.3,57.2,123.8,57.6,124.2z"/>
	<path class="st0" d="M75.6,119.3c0.4,0.4,0.6,0.9,0.7,1.6v5.4h-1.9v-4.6c0-0.4-0.1-0.7-0.3-0.9c-0.1-0.2-0.4-0.3-0.7-0.3
		c-0.6,0-1.1,0.3-1.4,0.8c-0.4,0.5-0.5,1.1-0.6,1.8v3.2h-1.9v-4.6c0-0.4-0.1-0.7-0.3-0.9c-0.2-0.2-0.4-0.3-0.8-0.4
		c-0.4,0-0.7,0.1-1,0.4c-0.3,0.3-0.5,0.6-0.7,1c-0.2,0.4-0.2,0.8-0.2,1.3v3.2h-1.9v-7.2h1.7l0.2,1.3c0.3-0.5,0.6-0.9,1.1-1.2
		c0.5-0.3,1-0.4,1.6-0.4c0.6,0,1.1,0.1,1.5,0.4s0.6,0.6,0.8,1.1c0.3-0.5,0.7-0.8,1.1-1.1c0.5-0.3,0.9-0.4,1.4-0.4
		C74.7,118.7,75.2,118.9,75.6,119.3z"/>
	<path class="st0" d="M85,119.2c0.5,0.3,1,0.8,1.3,1.4c0.3,0.6,0.5,1.3,0.5,2.1c0,0.8-0.2,1.4-0.5,2s-0.8,1-1.4,1.3
		c-0.6,0.3-1.3,0.5-2,0.5c-0.5,0-0.9-0.1-1.4-0.3c-0.4-0.2-0.8-0.5-1.1-0.8v4.3h-1.9v-10.8h1.6l0.2,1.1c0.4-0.4,0.8-0.7,1.3-0.9
		c0.5-0.2,1-0.3,1.6-0.3C83.8,118.7,84.4,118.9,85,119.2z M83.6,124.6c0.4-0.2,0.6-0.5,0.9-0.8c0.2-0.3,0.3-0.7,0.3-1.2
		c0-0.7-0.2-1.2-0.6-1.7c-0.4-0.4-0.9-0.7-1.6-0.7c-0.6,0-1,0.1-1.4,0.4c-0.4,0.3-0.7,0.7-0.8,1.1v1.4c0.1,0.5,0.4,0.8,0.7,1.1
		c0.4,0.3,0.8,0.4,1.4,0.4C82.8,124.9,83.2,124.8,83.6,124.6z"/>
	<path class="st0" d="M90.1,113v13.3h-1.9V113H90.1z"/>
	<path class="st0" d="M92.5,115.8c0.2-0.2,0.5-0.3,0.8-0.3c0.3,0,0.5,0.1,0.7,0.3c0.2,0.2,0.3,0.4,0.3,0.7s-0.1,0.5-0.3,0.7
		c-0.2,0.2-0.5,0.3-0.7,0.3c-0.3,0-0.5-0.1-0.8-0.3c-0.2-0.2-0.3-0.4-0.3-0.7S92.3,116,92.5,115.8z M94.1,119.1v7.2h-1.9v-7.2H94.1z
		"/>
	<path class="st0" d="M107.3,119.3c0.4,0.4,0.6,0.9,0.7,1.6v5.4H106v-4.6c0-0.4-0.1-0.7-0.3-0.9c-0.1-0.2-0.4-0.3-0.7-0.3
		c-0.6,0-1.1,0.3-1.4,0.8c-0.4,0.5-0.5,1.1-0.6,1.8v3.2h-1.9v-4.6c0-0.4-0.1-0.7-0.3-0.9c-0.2-0.2-0.4-0.3-0.8-0.4
		c-0.4,0-0.7,0.1-1,0.4c-0.3,0.3-0.5,0.6-0.7,1c-0.2,0.4-0.2,0.8-0.2,1.3v3.2h-1.9v-7.2H98l0.2,1.3c0.3-0.5,0.6-0.9,1.1-1.2
		c0.5-0.3,1-0.4,1.6-0.4c0.6,0,1.1,0.1,1.5,0.4s0.6,0.6,0.8,1.1c0.3-0.5,0.7-0.8,1.1-1.1c0.5-0.3,0.9-0.4,1.4-0.4
		C106.3,118.7,106.8,118.9,107.3,119.3z"/>
	<path class="st0" d="M115.1,124.3l0.9,1.4c-0.4,0.2-0.8,0.4-1.2,0.6s-0.9,0.2-1.3,0.2c-0.8,0-1.5-0.2-2.2-0.5
		c-0.6-0.3-1.1-0.8-1.4-1.4c-0.3-0.6-0.5-1.2-0.5-2c0-0.7,0.2-1.3,0.5-1.9c0.4-0.6,0.9-1.1,1.5-1.4c0.6-0.3,1.3-0.5,2-0.5
		c1,0,1.8,0.3,2.4,0.9s1.1,1.4,1.3,2.4l-5.5,1.9c0.2,0.3,0.4,0.5,0.8,0.7c0.3,0.2,0.7,0.2,1.1,0.2
		C114,124.8,114.6,124.6,115.1,124.3z M111.9,120.9c-0.4,0.4-0.6,1-0.6,1.6c0,0.1,0,0.2,0,0.3l3.8-1.3c-0.1-0.4-0.4-0.6-0.6-0.9
		s-0.7-0.3-1.1-0.3C112.8,120.2,112.3,120.5,111.9,120.9z"/>
	<path class="st0" d="M125,119.4c0.4,0.4,0.7,0.9,0.7,1.6v5.3h-1.9v-4.7c0-0.4-0.1-0.7-0.3-0.9c-0.2-0.2-0.5-0.3-0.9-0.3
		c-0.6,0-1.1,0.3-1.5,0.8c-0.4,0.5-0.6,1.1-0.6,1.9v3.2h-1.9v-7.2h1.7l0.1,1.3c0.3-0.5,0.6-0.9,1.1-1.2c0.5-0.3,1.1-0.4,1.7-0.4
		C124,118.8,124.5,119,125,119.4z"/>
	<path class="st0" d="M130.4,115.9v3.2h1.9v1.5h-1.9v5.7h-1.9v-5.7h-1.2v-1.5h1.2v-3.2H130.4z"/>
	<path class="st0" d="M141.2,119.1v7.2h-1.9v-1c-0.3,0.3-0.6,0.6-1.1,0.8c-0.4,0.3-1,0.4-1.5,0.4c-0.7,0-1.3-0.1-1.9-0.4
		s-1-0.7-1.3-1.3c-0.3-0.6-0.5-1.3-0.5-2.1c0-0.8,0.2-1.5,0.5-2.1c0.3-0.6,0.8-1.1,1.3-1.4s1.2-0.5,1.8-0.5c1.2,0,2,0.4,2.6,1.3
		l0.1-1H141.2z M138.5,124.5c0.4-0.3,0.6-0.6,0.8-1.1v-1.6c-0.1-0.4-0.4-0.8-0.8-1.1s-0.8-0.4-1.4-0.4c-0.6,0-1.1,0.2-1.5,0.6
		c-0.4,0.4-0.6,1-0.6,1.6c0,0.4,0.1,0.8,0.3,1.2c0.2,0.4,0.5,0.6,0.8,0.8c0.3,0.2,0.7,0.3,1.1,0.3
		C137.7,124.9,138.2,124.8,138.5,124.5z"/>
	<path class="st0" d="M146,119.7c0.4-0.3,0.7-0.5,1.1-0.7c0.4-0.2,0.7-0.2,0.9-0.2l-0.1,1.9c-0.5,0-1,0-1.4,0.3
		c-0.4,0.2-0.7,0.5-1,1c-0.2,0.4-0.3,0.8-0.3,1.3v3.1h-1.9v-7.2h1.7l0.1,1.7C145.4,120.3,145.6,120,146,119.7z"/>
	<path class="st0" d="M156.6,119.1l-4.6,10.6H150l1.7-3.8l-3.3-6.9h2.1l2.1,4.8l2.1-4.8H156.6z"/>
	<path class="st0" d="M165.2,119.7c0.4-0.3,0.7-0.5,1.1-0.7c0.4-0.2,0.7-0.2,0.9-0.2l-0.1,1.9c-0.5,0-1,0-1.4,0.3
		c-0.4,0.2-0.7,0.5-1,1c-0.2,0.4-0.3,0.8-0.3,1.3v3.1h-1.9v-7.2h1.7l0.1,1.7C164.6,120.3,164.9,120,165.2,119.7z"/>
	<path class="st0" d="M173.5,124.3l0.9,1.4c-0.4,0.2-0.8,0.4-1.2,0.6s-0.9,0.2-1.3,0.2c-0.8,0-1.5-0.2-2.2-0.5
		c-0.6-0.3-1.1-0.8-1.4-1.4c-0.3-0.6-0.5-1.2-0.5-2c0-0.7,0.2-1.3,0.5-1.9c0.4-0.6,0.9-1.1,1.5-1.4c0.6-0.3,1.3-0.5,2-0.5
		c1,0,1.8,0.3,2.4,0.9s1.1,1.4,1.3,2.4l-5.5,1.9c0.2,0.3,0.4,0.5,0.8,0.7c0.3,0.2,0.7,0.2,1.1,0.2
		C172.4,124.8,172.9,124.6,173.5,124.3z M170.2,120.9c-0.4,0.4-0.6,1-0.6,1.6c0,0.1,0,0.2,0,0.3l3.8-1.3c-0.1-0.4-0.4-0.6-0.6-0.9
		s-0.7-0.3-1.1-0.3C171.1,120.2,170.6,120.5,170.2,120.9z"/>
	<path class="st0" d="M177.6,120.7h-1.2v-1.7h1.2v-2.8c0-1,0.3-1.8,0.8-2.4c0.5-0.6,1.2-0.9,2.2-0.9c0.3,0,0.6,0,0.9,0.1
		s0.6,0.2,0.9,0.4l-0.8,1.4c-0.2-0.2-0.4-0.3-0.8-0.3c-0.8,0-1.3,0.6-1.3,1.7v2.8h2.2v1.7h-2.2v5.5h-1.9V120.7z"/>
	<path class="st0" d="M186,119.7c0.4-0.3,0.7-0.5,1.1-0.7c0.4-0.2,0.7-0.2,0.9-0.2l-0.1,1.9c-0.5,0-1,0-1.4,0.3
		c-0.4,0.2-0.7,0.5-1,1c-0.2,0.4-0.3,0.8-0.3,1.3v3.1h-1.9v-7.2h1.7l0.1,1.7C185.3,120.3,185.6,120,186,119.7z"/>
	<path class="st0" d="M194.2,124.3l0.9,1.4c-0.4,0.2-0.8,0.4-1.2,0.6s-0.9,0.2-1.3,0.2c-0.8,0-1.5-0.2-2.2-0.5
		c-0.6-0.3-1.1-0.8-1.4-1.4c-0.3-0.6-0.5-1.2-0.5-2c0-0.7,0.2-1.3,0.5-1.9c0.4-0.6,0.9-1.1,1.5-1.4c0.6-0.3,1.3-0.5,2-0.5
		c1,0,1.8,0.3,2.4,0.9s1.1,1.4,1.3,2.4l-5.5,1.9c0.2,0.3,0.4,0.5,0.8,0.7c0.3,0.2,0.7,0.2,1.1,0.2
		C193.1,124.8,193.6,124.6,194.2,124.3z M191,120.9c-0.4,0.4-0.6,1-0.6,1.6c0,0.1,0,0.2,0,0.3l3.8-1.3c-0.1-0.4-0.4-0.6-0.6-0.9
		s-0.7-0.3-1.1-0.3C191.8,120.2,191.3,120.5,191,120.9z"/>
	<path class="st0" d="M198.3,126.1c-0.5-0.2-0.9-0.5-1.2-0.8l0.8-1.1c0.6,0.6,1.2,0.9,1.8,0.9c0.3,0,0.6-0.1,0.8-0.2
		c0.2-0.1,0.3-0.3,0.3-0.6c0-0.3-0.1-0.5-0.3-0.6c-0.2-0.1-0.5-0.2-0.8-0.3c-0.3-0.1-0.5-0.1-0.5-0.2c-0.6-0.2-1.1-0.5-1.4-0.8
		s-0.5-0.8-0.5-1.3c0-0.4,0.1-0.8,0.3-1.1c0.2-0.3,0.5-0.6,0.9-0.8c0.4-0.2,0.9-0.3,1.5-0.3c0.5,0,1,0.1,1.4,0.2s0.8,0.3,1.1,0.6
		l-0.7,1.1c-0.2-0.2-0.5-0.3-0.7-0.5c-0.3-0.1-0.6-0.2-0.8-0.2c-0.3,0-0.5,0.1-0.7,0.2c-0.2,0.1-0.3,0.3-0.3,0.5
		c0,0.3,0.1,0.5,0.3,0.6c0.2,0.1,0.5,0.3,1,0.4c0.2,0.1,0.3,0.1,0.4,0.1c0.6,0.2,1,0.4,1.3,0.8c0.3,0.3,0.5,0.7,0.5,1.3
		c0,0.7-0.3,1.3-0.8,1.8c-0.5,0.5-1.2,0.7-2.2,0.7C199.3,126.4,198.8,126.3,198.3,126.1z"/>
	<path class="st0" d="M210.7,119.4c0.4,0.4,0.7,0.9,0.7,1.6v5.3h-1.9v-4.7c0-0.4-0.1-0.7-0.3-0.9c-0.2-0.2-0.5-0.3-0.9-0.3
		c-0.6,0-1.1,0.3-1.5,0.8s-0.6,1.2-0.6,1.9v3.2h-1.9V113h1.9v7.3c0.3-0.5,0.6-0.8,1.1-1.1c0.5-0.3,1-0.4,1.7-0.4
		C209.7,118.8,210.3,119,210.7,119.4z"/>
	<path class="st0" d="M224.6,119.3c0.4,0.4,0.6,0.9,0.7,1.6v5.4h-1.9v-4.6c0-0.4-0.1-0.7-0.3-0.9s-0.4-0.3-0.7-0.3
		c-0.6,0-1.1,0.3-1.4,0.8c-0.4,0.5-0.5,1.1-0.6,1.8v3.2h-1.9v-4.6c0-0.4-0.1-0.7-0.3-0.9c-0.2-0.2-0.4-0.3-0.8-0.4
		c-0.4,0-0.7,0.1-1,0.4c-0.3,0.3-0.5,0.6-0.7,1c-0.2,0.4-0.2,0.8-0.2,1.3v3.2h-1.9v-7.2h1.7l0.2,1.3c0.3-0.5,0.6-0.9,1.1-1.2
		c0.5-0.3,1-0.4,1.6-0.4c0.6,0,1.1,0.1,1.5,0.4c0.4,0.3,0.6,0.6,0.8,1.1c0.3-0.5,0.7-0.8,1.1-1.1c0.5-0.3,0.9-0.4,1.4-0.4
		C223.6,118.7,224.1,118.9,224.6,119.3z"/>
	<path class="st0" d="M232.4,124.3l0.9,1.4c-0.4,0.2-0.8,0.4-1.2,0.6c-0.4,0.1-0.9,0.2-1.3,0.2c-0.8,0-1.5-0.2-2.2-0.5
		c-0.6-0.3-1.1-0.8-1.4-1.4c-0.3-0.6-0.5-1.2-0.5-2c0-0.7,0.2-1.3,0.5-1.9c0.4-0.6,0.9-1.1,1.5-1.4c0.6-0.3,1.3-0.5,2-0.5
		c1,0,1.8,0.3,2.4,0.9c0.6,0.6,1.1,1.4,1.3,2.4l-5.5,1.9c0.2,0.3,0.4,0.5,0.8,0.7c0.3,0.2,0.7,0.2,1.1,0.2
		C231.3,124.8,231.9,124.6,232.4,124.3z M229.2,120.9c-0.4,0.4-0.6,1-0.6,1.6c0,0.1,0,0.2,0,0.3l3.8-1.3c-0.1-0.4-0.4-0.6-0.6-0.9
		s-0.7-0.3-1.1-0.3C230.1,120.2,229.6,120.5,229.2,120.9z"/>
	<path class="st0" d="M242.3,119.4c0.4,0.4,0.7,0.9,0.7,1.6v5.3h-1.9v-4.7c0-0.4-0.1-0.7-0.3-0.9c-0.2-0.2-0.5-0.3-0.9-0.3
		c-0.6,0-1.1,0.3-1.5,0.8c-0.4,0.5-0.6,1.1-0.6,1.9v3.2h-1.9v-7.2h1.7l0.1,1.3c0.3-0.5,0.6-0.9,1.1-1.2c0.5-0.3,1.1-0.4,1.7-0.4
		C241.3,118.8,241.8,119,242.3,119.4z"/>
	<path class="st0" d="M247.7,115.9v3.2h1.9v1.5h-1.9v5.7h-1.9v-5.7h-1.2v-1.5h1.2v-3.2H247.7z"/>
	<path class="st0" d="M251.5,126.1c-0.5-0.2-0.9-0.5-1.2-0.8l0.8-1.1c0.6,0.6,1.2,0.9,1.8,0.9c0.3,0,0.6-0.1,0.8-0.2
		c0.2-0.1,0.3-0.3,0.3-0.6c0-0.3-0.1-0.5-0.3-0.6c-0.2-0.1-0.5-0.2-0.8-0.3c-0.3-0.1-0.5-0.1-0.5-0.2c-0.6-0.2-1.1-0.5-1.4-0.8
		s-0.5-0.8-0.5-1.3c0-0.4,0.1-0.8,0.3-1.1s0.5-0.6,0.9-0.8c0.4-0.2,0.9-0.3,1.5-0.3c0.5,0,1,0.1,1.4,0.2s0.8,0.3,1.1,0.6l-0.7,1.1
		c-0.2-0.2-0.5-0.3-0.7-0.5c-0.3-0.1-0.6-0.2-0.8-0.2c-0.3,0-0.5,0.1-0.7,0.2c-0.2,0.1-0.3,0.3-0.3,0.5c0,0.3,0.1,0.5,0.3,0.6
		c0.2,0.1,0.5,0.3,1,0.4c0.2,0.1,0.3,0.1,0.4,0.1c0.6,0.2,1,0.4,1.3,0.8c0.3,0.3,0.5,0.7,0.5,1.3c0,0.7-0.3,1.3-0.8,1.8
		c-0.5,0.5-1.2,0.7-2.2,0.7C252.5,126.4,252,126.3,251.5,126.1z"/>
</g>
</svg>
