<?xml version="1.0" encoding="utf-8"?>
<!-- Generator: Adobe Illustrator 23.0.3, SVG Export Plug-In . SVG Version: 6.00 Build 0)  -->
<svg version="1.1" id="Layer_1" xmlns="http://www.w3.org/2000/svg" xmlns:xlink="http://www.w3.org/1999/xlink" x="0px" y="0px"
	 viewBox="0 0 300 250" style="enable-background:new 0 0 300 250;" xml:space="preserve">
<style type="text/css">
	.st0{fill:#768961;}
</style>
<g>
	<path class="st0" d="M114.5,89v10.5h6.1v1.9h-8.1V89H114.5z"/>
	<path class="st0" d="M122.6,90.9c0.2-0.2,0.5-0.3,0.8-0.3c0.3,0,0.5,0.1,0.7,0.3c0.2,0.2,0.3,0.4,0.3,0.7s-0.1,0.5-0.3,0.7
		c-0.2,0.2-0.5,0.3-0.7,0.3c-0.3,0-0.5-0.1-0.8-0.3c-0.2-0.2-0.3-0.4-0.3-0.7S122.4,91.1,122.6,90.9z M124.3,94.2v7.2h-1.9v-7.2
		H124.3z"/>
	<path class="st0" d="M133.5,94.2l-3.9,7.4h-0.1l-4.1-7.4h2.3l2,4.1l1.8-4.1H133.5z"/>
	<path class="st0" d="M139.4,99.4l0.9,1.4c-0.4,0.2-0.8,0.4-1.2,0.6s-0.9,0.2-1.3,0.2c-0.8,0-1.5-0.2-2.2-0.5
		c-0.6-0.3-1.1-0.8-1.4-1.4c-0.3-0.6-0.5-1.2-0.5-2c0-0.7,0.2-1.3,0.5-1.9c0.4-0.6,0.9-1.1,1.5-1.4c0.6-0.3,1.3-0.5,2-0.5
		c1,0,1.8,0.3,2.4,0.9s1.1,1.4,1.3,2.4L136,99c0.2,0.3,0.4,0.5,0.8,0.7c0.3,0.2,0.7,0.2,1.1,0.2C138.4,99.9,138.9,99.7,139.4,99.4z
		 M136.2,96c-0.4,0.4-0.6,1-0.6,1.6c0,0.1,0,0.2,0,0.3l3.8-1.3c-0.1-0.4-0.4-0.6-0.6-0.9s-0.7-0.3-1.1-0.3
		C137.1,95.4,136.6,95.6,136.2,96z"/>
	<path class="st0" d="M158.9,94.5c0.4,0.4,0.6,0.9,0.7,1.6v5.4h-1.9v-4.6c0-0.4-0.1-0.7-0.3-0.9c-0.1-0.2-0.4-0.3-0.7-0.3
		c-0.6,0-1.1,0.3-1.4,0.8c-0.4,0.5-0.5,1.1-0.6,1.8v3.2h-1.9v-4.6c0-0.4-0.1-0.7-0.3-0.9c-0.2-0.2-0.4-0.3-0.8-0.4
		c-0.4,0-0.7,0.1-1,0.4c-0.3,0.3-0.5,0.6-0.7,1c-0.2,0.4-0.2,0.8-0.2,1.3v3.2h-1.9v-7.2h1.7l0.2,1.3c0.3-0.5,0.6-0.9,1.1-1.2
		c0.5-0.3,1-0.4,1.6-0.4c0.6,0,1.1,0.1,1.5,0.4s0.6,0.6,0.8,1.1c0.3-0.5,0.7-0.8,1.1-1.1c0.5-0.3,0.9-0.4,1.4-0.4
		C157.9,93.9,158.5,94.1,158.9,94.5z"/>
	<path class="st0" d="M168.6,94.2v7.2h-1.7l-0.1-1.3c-0.2,0.5-0.6,0.9-1.1,1.2c-0.5,0.3-1,0.4-1.7,0.4c-0.7,0-1.2-0.2-1.6-0.6
		c-0.4-0.4-0.7-0.9-0.7-1.6v-5.3h1.9v4.7c0,0.8,0.4,1.2,1.2,1.2c0.6,0,1-0.3,1.4-0.8c0.4-0.5,0.6-1.2,0.6-1.9v-3.2H168.6z"/>
	<path class="st0" d="M171.3,101.2c-0.5-0.2-0.9-0.5-1.2-0.8l0.8-1.1c0.6,0.6,1.2,0.9,1.8,0.9c0.3,0,0.6-0.1,0.8-0.2
		c0.2-0.1,0.3-0.3,0.3-0.6c0-0.3-0.1-0.5-0.3-0.6c-0.2-0.1-0.5-0.2-0.8-0.3c-0.3-0.1-0.5-0.1-0.5-0.2c-0.6-0.2-1.1-0.5-1.4-0.8
		s-0.5-0.8-0.5-1.3c0-0.4,0.1-0.8,0.3-1.1s0.5-0.6,0.9-0.8c0.4-0.2,0.9-0.3,1.5-0.3c0.5,0,1,0.1,1.4,0.2s0.8,0.3,1.1,0.6l-0.7,1.1
		c-0.2-0.2-0.5-0.3-0.7-0.5c-0.3-0.1-0.6-0.2-0.8-0.2c-0.3,0-0.5,0.1-0.7,0.2c-0.2,0.1-0.3,0.3-0.3,0.5c0,0.3,0.1,0.5,0.3,0.6
		c0.2,0.1,0.5,0.3,1,0.4c0.2,0.1,0.3,0.1,0.4,0.1c0.6,0.2,1,0.4,1.3,0.8c0.3,0.3,0.5,0.7,0.5,1.3c0,0.7-0.3,1.3-0.8,1.8
		c-0.5,0.5-1.2,0.7-2.2,0.7C172.3,101.5,171.8,101.4,171.3,101.2z"/>
	<path class="st0" d="M177.7,90.9c0.2-0.2,0.5-0.3,0.8-0.3c0.3,0,0.5,0.1,0.7,0.3s0.3,0.4,0.3,0.7s-0.1,0.5-0.3,0.7
		s-0.5,0.3-0.7,0.3c-0.3,0-0.5-0.1-0.8-0.3c-0.2-0.2-0.3-0.4-0.3-0.7S177.4,91.1,177.7,90.9z M179.3,94.2v7.2h-1.9v-7.2H179.3z"/>
	<path class="st0" d="M186.2,101.3c-0.5,0.2-0.9,0.2-1.4,0.2c-0.8,0-1.5-0.2-2.1-0.5c-0.6-0.3-1.1-0.7-1.4-1.3
		c-0.3-0.6-0.5-1.2-0.5-2c0-0.8,0.2-1.4,0.5-2c0.4-0.6,0.8-1,1.4-1.3s1.2-0.5,1.9-0.5c1.1,0,2.1,0.3,2.8,0.9l-1,1.2
		c-0.2-0.2-0.5-0.3-0.8-0.4s-0.6-0.2-0.9-0.2c-0.6,0-1.1,0.2-1.5,0.6s-0.6,1-0.6,1.6s0.2,1.2,0.6,1.6c0.4,0.4,1,0.6,1.6,0.6
		c0.6,0,1-0.2,1.4-0.5l1,1.2C187.1,101,186.7,101.2,186.2,101.3z"/>
</g>
</svg>
