<?xml version="1.0" encoding="utf-8"?>
<!-- Generator: Adobe Illustrator 23.0.3, SVG Export Plug-In . SVG Version: 6.00 Build 0)  -->
<svg version="1.1" id="Layer_1" xmlns="http://www.w3.org/2000/svg" xmlns:xlink="http://www.w3.org/1999/xlink" x="0px" y="0px"
	 viewBox="0 0 300 250" style="enable-background:new 0 0 300 250;" xml:space="preserve">
<style type="text/css">
	.st0{fill:#FFFFFF;}
	.st1{fill:#768961;}
</style>
<rect x="34" y="182" class="st0" width="232" height="36"/>
<g>
	<path class="st1" d="M92,202.2c0.2,0.4,0.6,0.7,1,0.9s0.8,0.3,1.3,0.3s0.9-0.1,1.3-0.3s0.7-0.5,1-0.9c0.2-0.4,0.3-0.7,0.3-1.1v-7.9
		h2.4v7.9c0,0.9-0.2,1.7-0.7,2.4s-1.1,1.3-1.8,1.7s-1.6,0.6-2.6,0.6c-0.9,0-1.8-0.2-2.6-0.6s-1.4-1-1.8-1.7s-0.7-1.5-0.7-2.4v-7.9
		h2.5v7.9C91.7,201.4,91.8,201.8,92,202.2z"/>
	<path class="st1" d="M108.9,198.3c0.5,0.3,1,0.8,1.3,1.4c0.3,0.6,0.5,1.3,0.5,2.2c0,0.8-0.2,1.5-0.5,2.1s-0.8,1-1.4,1.4
		c-0.6,0.3-1.3,0.5-2.1,0.5c-0.4,0-0.9-0.1-1.3-0.2c-0.4-0.2-0.8-0.4-1-0.7v4.3H102V198h2l0.2,0.9c0.9-0.7,1.9-1.1,2.9-1.1
		C107.8,197.8,108.4,198,108.9,198.3z M107.6,203.4c0.4-0.4,0.6-0.9,0.6-1.5s-0.2-1.1-0.6-1.5s-0.8-0.6-1.4-0.6
		c-0.5,0-0.9,0.1-1.2,0.3c-0.3,0.2-0.6,0.5-0.8,0.8v1.8c0.1,0.4,0.3,0.7,0.7,0.9c0.3,0.2,0.7,0.3,1.1,0.3
		C106.7,204,107.2,203.8,107.6,203.4z"/>
	<path class="st1" d="M121.1,195v3.2h1.8v1.9h-1.8v5.6h-2.4V200h-1.2v-1.9h1.2V195H121.1z"/>
	<path class="st1" d="M124.7,199.8c0.4-0.6,0.9-1.1,1.5-1.4c0.7-0.3,1.4-0.5,2.2-0.5c0.8,0,1.6,0.2,2.2,0.5c0.6,0.3,1.1,0.8,1.5,1.4
		s0.5,1.3,0.5,2c0,0.8-0.2,1.4-0.5,2.1s-0.8,1.1-1.5,1.4c-0.6,0.3-1.4,0.5-2.2,0.5s-1.6-0.2-2.2-0.5s-1.1-0.8-1.5-1.4
		c-0.4-0.6-0.5-1.3-0.5-2.1C124.2,201.1,124.4,200.4,124.7,199.8z M127.1,203.3c0.3,0.4,0.8,0.6,1.3,0.6c0.5,0,1-0.2,1.3-0.6
		c0.3-0.4,0.5-0.9,0.5-1.5s-0.2-1.1-0.5-1.5s-0.8-0.6-1.3-0.6s-1,0.2-1.3,0.6c-0.3,0.4-0.5,0.9-0.5,1.5
		C126.6,202.4,126.8,202.9,127.1,203.3z"/>
	<path class="st1" d="M147.8,203.3v2.4h-8.1l0.9-0.9c1.1-1.1,1.9-2,2.5-2.6s1.1-1.3,1.5-2s0.6-1.3,0.6-1.9c0-0.5-0.2-0.9-0.5-1.1
		s-0.7-0.4-1.3-0.4c-0.5,0-0.9,0.1-1.2,0.4c-0.3,0.3-0.4,0.6-0.4,0.9c0,0.7,0.2,1.2,0.7,1.7l-1.5,1.4c-0.3-0.1-0.6-0.4-0.8-0.8
		c-0.2-0.4-0.4-0.8-0.5-1.2s-0.2-0.8-0.2-1.1c0-0.6,0.2-1.2,0.5-1.8s0.9-1,1.5-1.4c0.7-0.4,1.5-0.5,2.4-0.5c0.7,0,1.4,0.2,2,0.5
		s1,0.8,1.4,1.4c0.3,0.6,0.5,1.2,0.5,1.8s-0.1,1.2-0.3,1.8s-0.5,1.1-0.9,1.6s-0.8,1.1-1.4,1.9L147.8,203.3L147.8,203.3z"/>
	<path class="st1" d="M151.6,205c-0.7-0.4-1.3-1.1-1.7-1.9c-0.4-0.9-0.6-1.9-0.6-3.2c0-3.8,1.6-5.7,4.7-5.7c0.9,0,1.7,0.2,2.4,0.6
		c0.7,0.4,1.3,1.1,1.7,1.9c0.4,0.9,0.6,1.9,0.6,3.2s-0.2,2.4-0.6,3.2c-0.4,0.9-1,1.5-1.7,1.9s-1.5,0.6-2.4,0.6
		C153.1,205.7,152.3,205.5,151.6,205z M155.7,202.4c0.3-0.6,0.5-1.4,0.5-2.5c0-2.2-0.7-3.3-2.2-3.3c-0.8,0-1.3,0.3-1.7,0.9
		c-0.3,0.6-0.5,1.4-0.5,2.4s0.2,1.9,0.5,2.5s0.9,0.9,1.7,0.9C154.8,203.3,155.4,203,155.7,202.4z"/>
	<path class="st1" d="M160.6,199.8c-0.5-0.6-0.7-1.4-0.7-2.3c0-1,0.2-1.7,0.7-2.3s1.1-0.9,2-0.9s1.6,0.3,2,0.9
		c0.5,0.6,0.7,1.4,0.7,2.3c0,1-0.2,1.7-0.7,2.3s-1.1,0.9-2,0.9C161.8,200.7,161.1,200.4,160.6,199.8z M163.5,205.7h-2.3l8.2-11.4
		h2.4L163.5,205.7z M162.2,198.6c0.1,0.3,0.3,0.4,0.5,0.4s0.4-0.1,0.5-0.4s0.1-0.7,0.1-1.2c0-0.6,0-0.9-0.1-1.2s-0.3-0.3-0.5-0.3
		c-0.3,0-0.4,0.1-0.5,0.3s-0.1,0.6-0.1,1.2C162,197.9,162.1,198.3,162.2,198.6z M167.8,205.2c-0.5-0.6-0.7-1.4-0.7-2.3
		s0.2-1.7,0.7-2.3s1.1-0.9,2-0.9s1.6,0.3,2,0.9c0.5,0.6,0.7,1.4,0.7,2.3c0,1-0.2,1.7-0.7,2.3s-1.1,0.9-2,0.9
		C168.9,206.1,168.2,205.8,167.8,205.2z M169.3,204.1c0.1,0.3,0.3,0.4,0.5,0.4s0.4-0.1,0.5-0.4c0.1-0.3,0.1-0.7,0.1-1.2
		c0-0.6,0-0.9-0.1-1.2s-0.3-0.3-0.5-0.3c-0.3,0-0.4,0.1-0.5,0.3s-0.1,0.6-0.1,1.2C169.1,203.4,169.2,203.8,169.3,204.1z"/>
	<path class="st1" d="M180.4,196.2c0.6-1,1.3-1.8,2.3-2.4s2-0.9,3.2-0.9s2.2,0.3,3.2,0.9s1.8,1.4,2.3,2.4c0.6,1,0.9,2,0.9,3.2
		s-0.3,2.2-0.9,3.2c-0.6,1-1.4,1.7-2.3,2.3s-2,0.9-3.2,0.9s-2.2-0.3-3.2-0.9c-1-0.6-1.7-1.3-2.3-2.3s-0.9-2-0.9-3.2
		C179.5,198.3,179.8,197.2,180.4,196.2z M182.6,201.4c0.3,0.6,0.8,1.1,1.4,1.5c0.6,0.4,1.3,0.5,2,0.5s1.3-0.2,1.9-0.5
		c0.6-0.4,1-0.8,1.4-1.4s0.5-1.3,0.5-2s-0.2-1.4-0.5-2s-0.8-1.1-1.4-1.5c-0.6-0.4-1.2-0.5-1.9-0.5s-1.4,0.2-1.9,0.5
		c-0.6,0.4-1,0.8-1.4,1.5c-0.3,0.6-0.5,1.3-0.5,2C182.1,200.1,182.2,200.8,182.6,201.4z"/>
	<path class="st1" d="M202.6,193.1v2.4h-5.4v2.8h4.6v2.4h-4.6v4.9h-2.5v-12.5L202.6,193.1L202.6,193.1z"/>
	<path class="st1" d="M212.8,193.1v2.4h-5.4v2.8h4.6v2.4h-4.6v4.9H205v-12.5L212.8,193.1L212.8,193.1z"/>
</g>
</svg>
