<svg id="Layer_1" data-name="Layer 1" xmlns="http://www.w3.org/2000/svg" xmlns:xlink="http://www.w3.org/1999/xlink" viewBox="0 0 160 600"><defs><style>.cls-1{fill:none;}.cls-2{clip-path:url(#clip-path);}.cls-3{fill:#fff;}</style><clipPath id="clip-path"><rect class="cls-1" width="160" height="600"/></clipPath></defs><g class="cls-2"><path class="cls-3" d="M57.5,231.77l6.09,10h.1V231.58a1.26,1.26,0,0,1,1.43-1.29c.85,0,1.41.4,1.41,1.29v12.2c0,1.82-1.13,2.54-2.09,2.54A2.59,2.59,0,0,1,62,244.78l-6.14-10.05h-.05V245a1.29,1.29,0,0,1-1.46,1.29c-.87,0-1.41-.41-1.41-1.29v-12.2C53,231,54,230.26,55,230.26A2.63,2.63,0,0,1,57.5,231.77Z"/><path class="cls-3" d="M71.52,229.76a1.69,1.69,0,0,1,1.67,1.7,1.67,1.67,0,0,1-1.67,1.68,1.63,1.63,0,0,1-1.62-1.68A1.65,1.65,0,0,1,71.52,229.76ZM73,245c0,.89-.66,1.25-1.46,1.25s-1.46-.36-1.46-1.25V235.4c0-.89.66-1.27,1.46-1.27s1.46.38,1.46,1.27Z"/><path class="cls-3" d="M79.05,238.64v3.17c0,1.05.44,1.77,2.32,1.77,1.18,0,1.84-.24,2.78-.24s1.15.53,1.15,1.32a1.24,1.24,0,0,1-1,1.35,12,12,0,0,1-3,.31c-4,0-5.13-1.44-5.13-4.39v-3.36c0-3.43,1.29-4.49,5.31-4.49,3.6,0,3.86.6,3.86,1.68,0,.77-.26,1.25-1.1,1.25s-1.53-.22-2.83-.22C79.56,236.79,79.05,237.37,79.05,238.64Z"/><path class="cls-3" d="M90.41,234.37a13.7,13.7,0,0,1,2.61-.29c4,0,5.12.6,5.12,5.06V245c0,.89-.66,1.25-1.46,1.25s-1.43-.36-1.43-1.25v-5.73c0-2.19-.31-2.55-2.47-2.55a12.94,12.94,0,0,0-2.37.24v8c0,.89-.66,1.25-1.49,1.25s-1.48-.36-1.48-1.25V231.27c0-.89.68-1.27,1.48-1.27s1.49.38,1.49,1.27Z"/><path class="cls-3" d="M105.86,243.66c.7,0,1.1-.08,1.6-.08.77,0,1.1.41,1.1,1.18,0,1.1-.52,1.56-3.15,1.56-2.23,0-3.34-.62-3.34-3.31v-5.95h-1.15c-.82,0-1.13-.58-1.13-1.37s.31-1.37,1.13-1.37h1.15v-1.9c0-.86.66-1.22,1.44-1.22s1.48.36,1.48,1.22v1.9h2.42c.82,0,1.06.6,1.06,1.37s-.24,1.37-1.06,1.37H105v5.71A.79.79,0,0,0,105.86,243.66Z"/><path class="cls-3" d="M39,264.22c0-.86.7-1.22,1.5-1.22s1.46.36,1.46,1.22v3.24a9.61,9.61,0,0,1,2.8-.38c4.16,0,5.57,1.08,5.57,6.1s-1.36,6.14-5.6,6.14-5.73-.86-5.73-6.1Zm5.73,5.52c-2,0-2.79.22-2.79,3.44s.65,3.48,2.79,3.48,2.68-.29,2.68-3.48C47.43,270.18,46.64,269.74,44.75,269.74Z"/><path class="cls-3" d="M63.43,277.64a1.15,1.15,0,0,1-1,1.32,17.13,17.13,0,0,1-3.83.36c-4.21,0-5.58-1.06-5.58-4.54v-3.12c0-3.67,1.53-4.58,5.48-4.58s5.11,1,5.11,4.51V273c0,1-.38,1.39-1.25,1.39H56v.6c0,1.25.85,1.73,2.54,1.73,1.27,0,2.84-.22,3.71-.22S63.43,276.73,63.43,277.64ZM56,272h4.8v-.53c0-1.42-.52-1.78-2.4-1.78S56,270,56,271.45Z"/><path class="cls-3" d="M68.09,262.76a1.7,1.7,0,0,1,1.67,1.7,1.68,1.68,0,0,1-1.67,1.68,1.64,1.64,0,0,1-1.63-1.68A1.66,1.66,0,0,1,68.09,262.76ZM69.54,278c0,.89-.65,1.25-1.45,1.25s-1.46-.36-1.46-1.25V268.4c0-.89.66-1.27,1.46-1.27s1.45.38,1.45,1.27Z"/><path class="cls-3" d="M86,274.11v-5.73c0-.89.64-1.25,1.43-1.25s1.46.36,1.46,1.25v5.88c0,4.46-1.08,5.06-5.31,5.06s-5.29-.6-5.29-5.06v-5.88c0-.89.63-1.25,1.46-1.25s1.45.36,1.45,1.25v5.73c0,2.19.22,2.55,2.38,2.55S86,276.3,86,274.11Z"/><path class="cls-3" d="M95.11,272.29V278c0,.89-.66,1.25-1.46,1.25s-1.46-.36-1.46-1.25v-5.88c0-4.46,1.06-5.06,5.32-5.06s5.38.6,5.38,5.06V278c0,.89-.65,1.25-1.45,1.25S100,278.91,100,278v-5.73c0-2.19-.33-2.55-2.49-2.55S95.11,270.1,95.11,272.29Z"/><path class="cls-3" d="M105.34,270.85c0-2.23,1.51-3.77,5.25-3.77,3.43,0,4.09.65,4.09,1.7,0,.77-.31,1.18-1.27,1.18-.71,0-1.41-.26-3.11-.26-1.41,0-2,.28-2,.86,0,1.87,6.89.38,6.89,5,0,2.66-1.84,3.79-5.18,3.79-4,0-4.56-.62-4.56-1.61,0-.84.33-1.29,1.3-1.29.73,0,1.5.28,3.17.28,1.51,0,2.35-.31,2.35-1C112.23,273.9,105.34,275.29,105.34,270.85Z"/><path class="cls-3" d="M119.24,275.55a1.84,1.84,0,0,1,1.81,1.87,1.79,1.79,0,0,1-1.81,1.85,1.76,1.76,0,0,1-1.79-1.85A1.81,1.81,0,0,1,119.24,275.55Zm1.2-2.09a1.12,1.12,0,0,1-1.2,1,1.07,1.07,0,0,1-1.15-1l-.59-8.71c-.07-1,.87-1.51,1.81-1.51s1.79.48,1.72,1.51Z"/></g></svg>