<svg id="Layer_1" data-name="Layer 1" xmlns="http://www.w3.org/2000/svg" xmlns:xlink="http://www.w3.org/1999/xlink" viewBox="0 0 160 600"><defs><style>.cls-1{fill:none;}.cls-2{clip-path:url(#clip-path);}.cls-3{fill:#fff;}</style><clipPath id="clip-path"><rect class="cls-1" width="160" height="600"/></clipPath></defs><g class="cls-2"><path class="cls-3" d="M49.86,233.29H45.67c-.87,0-1.17-.6-1.17-1.39s.3-1.42,1.17-1.42H57.1c.85,0,1.18.62,1.18,1.42s-.33,1.39-1.18,1.39H52.91V245c0,.91-.7,1.27-1.52,1.27s-1.53-.36-1.53-1.27Z"/><path class="cls-3" d="M68.32,244.64a1.15,1.15,0,0,1-1,1.32,17.06,17.06,0,0,1-3.83.36c-4.21,0-5.57-1.06-5.57-4.54v-3.12c0-3.67,1.52-4.58,5.47-4.58s5.11,1,5.11,4.51V240c0,1-.38,1.39-1.25,1.39H60.84v.6c0,1.25.85,1.73,2.54,1.73,1.27,0,2.85-.22,3.72-.22S68.32,243.73,68.32,244.64ZM60.84,239h4.8v-.53c0-1.42-.52-1.78-2.4-1.78s-2.4.31-2.4,1.78Z"/><path class="cls-3" d="M79.21,241.11v-5.73c0-.89.63-1.25,1.43-1.25s1.46.36,1.46,1.25v5.88c0,4.46-1.08,5.06-5.31,5.06s-5.29-.6-5.29-5.06v-5.88c0-.89.63-1.25,1.45-1.25s1.46.36,1.46,1.25v5.73c0,2.19.21,2.55,2.38,2.55S79.21,243.3,79.21,241.11Z"/><path class="cls-3" d="M90.17,236.84c-1.58,0-1.88.22-1.88,1.82V245c0,.89-.64,1.25-1.44,1.25s-1.48-.36-1.48-1.25v-6.6c0-3.67,1.16-4.34,4.85-4.34,2.4,0,3,.58,3,1.49A1.23,1.23,0,0,1,92,236.94C91.49,236.94,91.06,236.84,90.17,236.84Z"/><path class="cls-3" d="M104.75,244.64a1.15,1.15,0,0,1-1,1.32,17.06,17.06,0,0,1-3.83.36c-4.21,0-5.57-1.06-5.57-4.54v-3.12c0-3.67,1.53-4.58,5.48-4.58s5.1,1,5.1,4.51V240c0,1-.38,1.39-1.25,1.39H97.27v.6c0,1.25.85,1.73,2.54,1.73,1.27,0,2.85-.22,3.72-.22S104.75,243.73,104.75,244.64ZM97.27,239h4.8v-.53c0-1.42-.52-1.78-2.4-1.78s-2.4.31-2.4,1.78Z"/><path class="cls-3" d="M112.75,236.84c-1.58,0-1.88.22-1.88,1.82V245c0,.89-.64,1.25-1.44,1.25S108,245.91,108,245v-6.6c0-3.67,1.15-4.34,4.85-4.34,2.39,0,3,.58,3,1.49a1.23,1.23,0,0,1-1.27,1.37C114.07,236.94,113.64,236.84,112.75,236.84Z"/><path class="cls-3" d="M43.1,279.32c-2.75,0-5.55-.34-5.55-1.94,0-.8.44-1.44,1.2-1.44,1.17,0,3.08.48,4.35.48,2.3,0,3.5-.53,3.5-2,0-3.5-8.94.58-8.94-6.55,0-3.17,2-4.63,6.47-4.63,2.73,0,4.94.36,4.94,1.75a1.29,1.29,0,0,1-1.32,1.39c-1.13,0-2.66-.33-3.85-.33-2.21,0-3.2.67-3.2,1.8,0,3.6,8.91-.41,8.91,6.36C49.61,277.57,47.8,279.32,43.1,279.32Z"/><path class="cls-3" d="M62.73,277.64a1.15,1.15,0,0,1-1,1.32,17.17,17.17,0,0,1-3.84.36c-4.21,0-5.57-1.06-5.57-4.54v-3.12c0-3.67,1.53-4.58,5.48-4.58s5.1,1,5.1,4.51V273c0,1-.37,1.39-1.24,1.39H55.26v.6c0,1.25.84,1.73,2.54,1.73,1.27,0,2.84-.22,3.71-.22S62.73,276.73,62.73,277.64ZM55.26,272h4.79v-.53c0-1.42-.51-1.78-2.4-1.78s-2.39.31-2.39,1.78Z"/><path class="cls-3" d="M70.73,269.84c-1.57,0-1.88.22-1.88,1.82V278c0,.89-.63,1.25-1.43,1.25s-1.48-.36-1.48-1.25v-6.6c0-3.67,1.15-4.34,4.84-4.34,2.4,0,3,.58,3,1.49a1.23,1.23,0,0,1-1.27,1.37C72.05,269.94,71.63,269.84,70.73,269.84Z"/><path class="cls-3" d="M80.45,275.46l2.86-7.2c.76-1.9,3.77-1.28,2.8.93l-3.76,8.57c-.49,1.13-1.13,1.56-2,1.56a2.24,2.24,0,0,1-2.14-1.56l-3.62-8.57c-.9-2.13,2.07-2.88,2.79-1l2.76,7.23Z"/><path class="cls-3" d="M89.78,262.76a1.69,1.69,0,0,1,1.67,1.7,1.67,1.67,0,0,1-1.67,1.68,1.63,1.63,0,0,1-1.62-1.68A1.66,1.66,0,0,1,89.78,262.76ZM91.24,278c0,.89-.66,1.25-1.46,1.25s-1.45-.36-1.45-1.25V268.4c0-.89.65-1.27,1.45-1.27s1.46.38,1.46,1.27Z"/><path class="cls-3" d="M97.31,271.64v3.17c0,1.05.45,1.77,2.33,1.77,1.17,0,1.83-.24,2.77-.24s1.15.53,1.15,1.32a1.24,1.24,0,0,1-1,1.35,11.91,11.91,0,0,1-3,.31c-4,0-5.13-1.44-5.13-4.39v-3.36c0-3.43,1.3-4.49,5.32-4.49,3.6,0,3.85.6,3.85,1.68,0,.77-.25,1.25-1.1,1.25s-1.53-.22-2.82-.22C97.83,269.79,97.31,270.37,97.31,271.64Z"/><path class="cls-3" d="M115.46,277.64a1.15,1.15,0,0,1-1,1.32,17.17,17.17,0,0,1-3.84.36c-4.2,0-5.57-1.06-5.57-4.54v-3.12c0-3.67,1.53-4.58,5.48-4.58s5.1,1,5.1,4.51V273c0,1-.37,1.39-1.24,1.39H108v.6c0,1.25.84,1.73,2.54,1.73,1.27,0,2.84-.22,3.71-.22S115.46,276.73,115.46,277.64ZM108,272h4.79v-.53c0-1.42-.51-1.78-2.39-1.78s-2.4.31-2.4,1.78Z"/><path class="cls-3" d="M120.34,275.55a1.84,1.84,0,0,1,1.81,1.87,1.79,1.79,0,0,1-1.81,1.85,1.75,1.75,0,0,1-1.79-1.85A1.8,1.8,0,0,1,120.34,275.55Zm1.19-2.09a1.11,1.11,0,0,1-1.19,1,1.07,1.07,0,0,1-1.16-1l-.58-8.71c-.08-1,.87-1.51,1.81-1.51s1.78.48,1.71,1.51Z"/></g></svg>