<svg id="Layer_1" data-name="Layer 1" xmlns="http://www.w3.org/2000/svg" xmlns:xlink="http://www.w3.org/1999/xlink" viewBox="0 0 160 600"><defs><style>.cls-1{fill:none;}.cls-2{clip-path:url(#clip-path);}.cls-3{fill:#fff;}</style><clipPath id="clip-path"><rect class="cls-1" width="160" height="600"/></clipPath></defs><g class="cls-2"><g class="cls-2"><path class="cls-3" d="M20.52,22.29c1.09,0,1.37-.26,3.16-.26,1.33,0,1.72.22,1.72.89v.87H22.54c-3.2,0-3.75,1.05-3.75,3.45,0,3,1,3.43,4.67,3.43,3.4,0,4.63-.46,4.63-3.34v-4.1c0-2.66-.92-3.69-4.3-3.69-3.93,0-4.34.42-4.34,1.53,0,.7.28,1.22,1.07,1.22m4.88,5.17c0,.59-.52.79-2,.79s-2-.27-2-1.07.31-1.07,1.64-1.07H25.4Zm15.21-5.37c1.57,0,1.81.31,1.81,2.29v5c0,.81.59,1.14,1.33,1.14s1.35-.33,1.35-1.14V24.14c0-4.05-1.09-4.6-4.49-4.6a7,7,0,0,0-3.18.68,6.55,6.55,0,0,0-3.15-.68c-3.4,0-4.49.55-4.49,4.6v5.24c0,.81.61,1.14,1.35,1.14s1.33-.33,1.33-1.14v-5c0-2,.24-2.29,1.81-2.29s1.81.31,1.81,1.79v5.5c0,.81.61,1.14,1.36,1.14s1.35-.33,1.35-1.14V24.14c0-1.74.31-2.05,1.81-2.05m7.94.2c1.09,0,1.37-.26,3.16-.26,1.33,0,1.73.22,1.73.89v.87H50.58c-3.21,0-3.76,1.05-3.76,3.45,0,3,1,3.43,4.67,3.43,3.41,0,4.63-.46,4.63-3.34v-4.1c0-2.66-.92-3.69-4.3-3.69-3.93,0-4.34.42-4.34,1.53,0,.7.28,1.22,1.07,1.22m4.82,5.17c0,.59-.52.79-2,.79s-2-.27-2-1.07.31-1.07,1.64-1.07h2.33Zm11.7-7.72a13.86,13.86,0,0,0-2.36-.2c-3.55,0-4.88.33-4.88,3.45v8.2c0,2.82,1.54,3.3,4.93,3.3,3.62,0,5-.68,5-3.56,0-2.36-.92-3.34-4-3.34H60.36v-.94a14.72,14.72,0,0,0,2.35.11c3.58,0,4.89-.56,4.89-3.53V18.91c0-.77-.57-1.07-1.24-1.07s-1.29.3-1.29,1.07Zm-2.36,4.64c-2.12,0-2.36-.08-2.36-1.2V23.1c0-1,.61-1.16,2.36-1.16a21.63,21.63,0,0,1,2.36.15V23c0,1.11-.27,1.39-2.36,1.39m-2.36,5.48h2.81c1.44,0,2.08.24,2.08,1.18s-.79,1.09-2.47,1.09-2.42-.2-2.42-.92Z"/><path class="cls-3" d="M79.7,29.59h6.16c.38,0,.49.21.49.47s-.11.45-.49.45H79a.45.45,0,0,1-.47-.47V18.63c0-.32.28-.45.58-.45s.55.12.55.45Z"/><path class="cls-3" d="M89.08,25.47h5.85V24c0-1.14-.57-1.85-2.85-1.85s-3,.69-3,2ZM95.75,30c0,.17,0,.33-.36.43a13.92,13.92,0,0,1-3.14.28c-3.19,0-4.22-1.11-4.22-3.24V24.18c0-2.16,1.28-2.92,4.09-2.92S96,22.08,96,24.1v1.37c0,.58-.29.88-.79.88H89.08v1.07c0,1.54.83,2.36,3.19,2.36a30.42,30.42,0,0,0,3.12-.26c.21,0,.36.13.36.47"/><path class="cls-3" d="M105,26.22H101.7c-2.13,0-2.58.47-2.58,1.78s.56,1.82,2.83,1.82c2.47,0,3-.26,3-1.71ZM98.5,22a.46.46,0,0,1,.36-.49,21.06,21.06,0,0,1,3.29-.22c3,0,3.86.63,3.86,2.68v4.14c0,2.28-.93,2.62-4.1,2.62s-3.84-.54-3.84-2.61.64-2.75,3.65-2.75H105V23.8c0-1.29-.74-1.66-2.9-1.66a28.29,28.29,0,0,0-3.18.26A.39.39,0,0,1,98.5,22"/><path class="cls-3" d="M114.24,28.23c0-2.72-6-1-6-4.56,0-1.68,1.37-2.41,3.84-2.41a9.38,9.38,0,0,1,2.3.24c.3.09.43.15.43.41a.43.43,0,0,1-.45.49,19,19,0,0,0-2.45-.26c-1.7,0-2.62.54-2.62,1.5,0,2.43,6,1,6,4.6,0,1.58-1.12,2.46-3.93,2.46a9.39,9.39,0,0,1-2.94-.39c-.26-.1-.36-.23-.36-.45a.4.4,0,0,1,.43-.45,17.23,17.23,0,0,0,3,.41c1.93,0,2.74-.58,2.74-1.59"/><path class="cls-3" d="M118.45,30.19c0,.28-.25.43-.53.43s-.52-.15-.52-.46V21.8a.46.46,0,0,1,.52-.47c.28,0,.53.15.53.43Zm-.53-12a.75.75,0,0,1,0,1.5.75.75,0,1,1,0-1.5"/><path class="cls-3" d="M122.61,24.93v5.26c0,.28-.25.43-.53.43s-.52-.15-.52-.46V25c0-3.34.77-3.71,3.93-3.71,3,0,3.94.37,3.94,3.71v5.19a.47.47,0,0,1-.53.46c-.28,0-.52-.15-.52-.43V24.93c0-2.51-.83-2.79-2.89-2.79-2.43,0-2.88.28-2.88,2.79"/><path class="cls-3" d="M133.51,31.69c0,1.24,1.08,1.59,3.35,1.59s3.3-.39,3.3-1.85c0-1.2-.62-1.69-3.15-1.69h-3.5Zm6.12-7.57V22.4a19,19,0,0,0-3.22-.26c-2.3,0-2.9.39-2.9,1.89v.34c0,1.64.5,1.87,3,1.87,2.83,0,3.16-.38,3.16-2.12m0-4a.48.48,0,0,1,.53-.42c.28,0,.56.17.56.42v4.25c0,2.28-1,2.79-4.18,2.79a10.48,10.48,0,0,1-3-.28h-.05v2h3.56c3.26,0,4.14.64,4.14,2.52,0,2.3-1.35,2.82-4.37,2.82s-4.38-.54-4.38-2.49V24.09c0-2.35.92-2.83,4-2.83a16.86,16.86,0,0,1,3.2.24Z"/></g></g></svg>