<svg id="Layer_1" data-name="Layer 1" xmlns="http://www.w3.org/2000/svg" xmlns:xlink="http://www.w3.org/1999/xlink" viewBox="0 0 300 600"><defs><style>.cls-1{fill:none;}.cls-2{clip-path:url(#clip-path);}.cls-3{fill:#fff;}.cls-4{fill:#0dcf5a;}.cls-5{fill:#1f79ff;}.cls-6{clip-path:url(#clip-path-3);}.cls-7{clip-path:url(#clip-path-4);}.cls-8{fill:url(#linear-gradient);}</style><clipPath id="clip-path"><rect class="cls-1" width="300" height="600"/></clipPath><clipPath id="clip-path-3"><rect class="cls-1" x="7.27" y="446.2" width="285.46" height="153.8"/></clipPath><clipPath id="clip-path-4"><path class="cls-1" d="M68.6,535.9a.16.16,0,0,1,.3-.11c1.93,4.26,7.81,15.93,16.21,21.37a.15.15,0,0,1,.07.16c-.16.55-1,3.14-3,3.4h0l-.32,0c-3.22,0-8.65-5.86-13.25-24.84m32.5,8.56c1-5.7,9.39-55.54,12.2-55.54s-3.06,45.18-11.93,55.66a.15.15,0,0,1-.27-.12m-11.84,2.71c-.36,0-8.26-3.86-18-43.64-1.66-6.78-4-12.61-9.75-11.9-6,.75-7.63,9.31-7.63,17.69,0,8.83,5.84,62,28.39,62,10.37,0,13.13-9.82,13.44-11.09a.15.15,0,0,1,.17-.12c1.93.27,23.15,1.55,28.44-69.67.57-7.67-2.26-15.63-9.84-15.63-19.45,0-24,72.33-25.23,72.33"/></clipPath><linearGradient id="linear-gradient" y1="600" x2="1" y2="600" gradientTransform="matrix(0, -96.51, -96.51, 0, 57996.33, 571.35)" gradientUnits="userSpaceOnUse"><stop offset="0" stop-color="#0de839"/><stop offset="0.08" stop-color="#0de642"/><stop offset="0.21" stop-color="#0de259"/><stop offset="0.37" stop-color="#0dda80"/><stop offset="0.56" stop-color="#0dd0b5"/><stop offset="0.72" stop-color="#0dc6e8"/><stop offset="1" stop-color="#1f79ff"/></linearGradient></defs><g class="cls-2"><path class="cls-3" d="M43.17,72.66h3.39v50.22H43.17Z"/><path class="cls-3" d="M57,105.22c0-10.49,7.52-17.94,17.67-17.94s17.67,7.45,17.67,17.94-7.52,17.94-17.67,17.94S57,115.71,57,105.22Zm31.89,0c0-8.87-6.1-14.89-14.22-14.89s-14.21,6-14.21,14.89,6.09,14.89,14.21,14.89S88.87,114.09,88.87,105.22Z"/><path class="cls-3" d="M97.6,118.62l1.56-2.71a20.56,20.56,0,0,0,12.72,4.27c7.45,0,10.43-2.64,10.43-6.64,0-10.28-23.42-2.7-23.42-16.58,0-5.35,4.46-9.68,13.4-9.68,4.47,0,9.34,1.35,12.12,3.45l-1.56,2.71a18.19,18.19,0,0,0-10.63-3.18c-6.9,0-10,2.84-10,6.63,0,10.63,23.42,3.12,23.42,16.59,0,5.75-4.94,9.68-13.94,9.68C105.93,123.16,100.38,121.19,97.6,118.62Z"/><path class="cls-3" d="M152.7,120.65a10.73,10.73,0,0,1-7.24,2.51c-6.23,0-9.61-3.66-9.61-9.62V90.46h-6.5V87.55h6.5V79.83h3.38v7.72h11.24v2.91H139.23v22.75c0,4.53,2.24,7,6.57,7a8.09,8.09,0,0,0,5.48-2Z"/><path class="cls-3" d="M78.37,172.91c0,10.63-7.51,17.94-17.46,17.94a15.81,15.81,0,0,1-14.35-8.32v21.18H43.17V155.25h3.25v8.32A15.81,15.81,0,0,1,60.91,155C70.86,155,78.37,162.35,78.37,172.91Zm-3.38,0C75,164.05,68.83,158,60.71,158s-14.22,6-14.22,14.89,6.09,14.9,14.22,14.9S75,181.78,75,172.91Z"/><path class="cls-3" d="M85,172.91C85,162.42,92.52,155,102.68,155s17.66,7.44,17.66,17.93-7.51,17.94-17.66,17.94S85,183.41,85,172.91Zm31.88,0c0-8.86-6.09-14.89-14.21-14.89s-14.22,6-14.22,14.89,6.09,14.9,14.22,14.9S116.89,181.78,116.89,172.91Z"/><path class="cls-3" d="M180.39,155.25,167,190.58H163.8l-11.91-30.66-12,30.66H136.8l-13.41-35.33h3.25l11.78,31.54,12.05-31.54h2.91l12,31.47,11.91-31.47Z"/><path class="cls-3" d="M217.08,173.73H186.69c.34,8.39,6.5,14.08,15,14.08a14.25,14.25,0,0,0,11.3-4.95l2,2.24c-3.11,3.79-8,5.75-13.33,5.75-10.7,0-18.21-7.44-18.21-17.94S190.61,155,200.29,155s16.86,7.31,16.86,17.8C217.15,173.05,217.08,173.39,217.08,173.73Zm-30.32-2.64h27.07c-.47-7.65-6-13.13-13.54-13.13S187.3,163.37,186.76,171.09Z"/><path class="cls-3" d="M244.36,155v3.31c-.27,0-.54-.06-.81-.06-7.85,0-12.52,5.21-12.52,13.94v18.41h-3.39V155.25h3.25V163C233.06,157.82,237.73,155,244.36,155Z"/><path class="cls-3" d="M42.09,211.64a2.79,2.79,0,0,1,2.78-2.78,2.75,2.75,0,1,1-2.78,2.78Zm1.08,11.3h3.39v35.34H43.17Z"/><path class="cls-3" d="M92.45,237.63v20.65H89.07V237.9c0-8-4.27-12.18-11.44-12.18-8.33,0-13.4,5.35-13.4,13.74v18.82H60.84V222.94h3.25v7.65c2.37-4.94,7.31-7.92,14-7.92C86.7,222.67,92.45,227.75,92.45,237.63Z"/><path class="cls-3" d="M141.33,256a10.73,10.73,0,0,1-7.24,2.51c-6.23,0-9.62-3.66-9.62-9.61V225.85H118v-2.91h6.49v-7.71h3.39v7.71H139.1v2.91H127.86V248.6c0,4.53,2.23,7,6.56,7a8.12,8.12,0,0,0,5.49-2Z"/><path class="cls-3" d="M182.35,237.63v20.65H179V237.9c0-8-4.27-12.18-11.44-12.18-8.33,0-13.41,5.35-13.41,13.74v18.82h-3.38V208.05h3.38v22.27c2.44-4.81,7.32-7.65,13.88-7.65C176.6,222.67,182.35,227.75,182.35,237.63Z"/><path class="cls-3" d="M226.22,241.42H195.83c.33,8.39,6.49,14.08,14.95,14.08a14.25,14.25,0,0,0,11.31-4.94l2,2.23c-3.11,3.79-8,5.76-13.33,5.76-10.7,0-18.21-7.45-18.21-17.94s7.24-17.94,16.92-17.94,16.85,7.31,16.85,17.8C226.28,240.74,226.22,241.08,226.22,241.42Zm-30.33-2.64H223c-.48-7.65-6-13.13-13.54-13.13S196.43,231.07,195.89,238.78Z"/><path class="cls-4" d="M38,321.71,39.52,319a20.57,20.57,0,0,0,12.73,4.26c7.44,0,10.42-2.64,10.42-6.63,0-10.29-23.42-2.71-23.42-16.58,0-5.35,4.47-9.68,13.4-9.68,4.47,0,9.34,1.35,12.12,3.45l-1.56,2.71a18.19,18.19,0,0,0-10.63-3.18c-6.9,0-9.95,2.84-9.95,6.63,0,10.63,23.42,3.11,23.42,16.58,0,5.76-4.94,9.68-13.94,9.68C46.29,326.24,40.74,324.28,38,321.71Z"/><path class="cls-4" d="M93.06,323.74a10.72,10.72,0,0,1-7.24,2.5c-6.23,0-9.61-3.65-9.61-9.61V293.55h-6.5v-2.91h6.5v-7.72h3.38v7.72H90.83v2.91H79.59v22.74c0,4.54,2.24,7,6.57,7a8.09,8.09,0,0,0,5.48-2Z"/><path class="cls-4" d="M97.4,308.3c0-10.49,7.51-17.93,17.67-17.93s17.66,7.44,17.66,17.93-7.51,17.94-17.66,17.94S97.4,318.8,97.4,308.3Zm31.88,0c0-8.86-6.09-14.89-14.21-14.89s-14.22,6-14.22,14.89,6.09,14.9,14.22,14.9S129.28,317.17,129.28,308.3Z"/><path class="cls-4" d="M160,290.37v3.31c-.27,0-.54-.06-.82-.06-7.85,0-12.52,5.21-12.52,13.94V326h-3.38V290.64h3.25v7.71C148.64,293.21,153.31,290.37,160,290.37Z"/><path class="cls-4" d="M227.37,305.33V326H224V305.6c0-8-4.13-12.19-11-12.19-8,0-12.93,5.35-12.93,13.74V326h-3.38V305.6c0-8-4.13-12.19-11-12.19-8,0-12.93,5.35-12.93,13.74V326h-3.38V290.64h3.25v7.58c2.3-4.94,7.11-7.85,13.54-7.85s11,2.91,12.92,8.53c2.31-5.15,7.45-8.53,14.29-8.53C221.82,290.37,227.37,295.44,227.37,305.33Z"/><path class="cls-4" d="M259.86,290.3c0-5.21-4.19-9-11.84-9-6.09,0-10.43,1.89-13.61,5.62l-2.5-2c3.59-4.26,9-6.7,16.31-6.7,9.28,0,15.16,4.6,15.16,11.58,0,11.84-12.72,12.18-12.72,22.54h-3.52C247.14,300.72,259.86,300.18,259.86,290.3Zm-13.74,33.17a2.81,2.81,0,0,1,5.62,0,2.81,2.81,0,0,1-5.62,0Z"/><g class="cls-2"><rect class="cls-5" x="36" y="366" width="186.19" height="40.04" rx="8.01"/></g><path class="cls-3" d="M59.62,379.16a2,2,0,0,0-1.5.54,2.26,2.26,0,0,0-.51,1.6v1.35h3.51V384H57.65v10.1H56.11V384h-2v-1.3h2v-1.41a3.35,3.35,0,0,1,.9-2.47,3.41,3.41,0,0,1,2.55-.91,4.34,4.34,0,0,1,1.25.18,2.74,2.74,0,0,1,1,.53l-.52,1.15a2.57,2.57,0,0,0-1.69-.56Zm6.09,1a1.07,1.07,0,0,1-.8-.32,1.06,1.06,0,0,1-.32-.78,1,1,0,0,1,.32-.76,1.07,1.07,0,0,1,.8-.32,1.09,1.09,0,0,1,.8.31,1,1,0,0,1,.33.75,1.08,1.08,0,0,1-.33.8,1.06,1.06,0,0,1-.8.32Zm-.78,2.5h1.54v11.4H64.93Zm11.64-.09A4.65,4.65,0,0,1,80,383.81a4.85,4.85,0,0,1,1.27,3.63v6.61H79.71v-6.46a3.74,3.74,0,0,0-.89-2.71,3.32,3.32,0,0,0-2.53-.93A3.91,3.91,0,0,0,73.37,385a4.16,4.16,0,0,0-1.07,3v6H70.76v-11.4h1.48v2.1A4.32,4.32,0,0,1,74,383.13a5.62,5.62,0,0,1,2.59-.57ZM95.88,378v16.08H94.41v-2.26a4.68,4.68,0,0,1-1.83,1.76,5.45,5.45,0,0,1-2.57.61,5.83,5.83,0,0,1-2.91-.74,5.29,5.29,0,0,1-2-2.06,6.51,6.51,0,0,1,0-6,5.17,5.17,0,0,1,2-2,5.82,5.82,0,0,1,2.91-.73,5.41,5.41,0,0,1,2.5.57,4.76,4.76,0,0,1,1.83,1.68V378Zm-5.74,14.82a4.22,4.22,0,0,0,2.15-.55,3.9,3.9,0,0,0,1.52-1.57,5.17,5.17,0,0,0,0-4.64,3.9,3.9,0,0,0-1.52-1.57,4.23,4.23,0,0,0-2.15-.56,4.29,4.29,0,0,0-2.18.56A4,4,0,0,0,86.44,386a5.17,5.17,0,0,0,0,4.64A4,4,0,0,0,88,392.24a4.28,4.28,0,0,0,2.18.55Zm20.37,1.37a5.9,5.9,0,0,1-3-.75,5.51,5.51,0,0,1-2.08-2.07,6.26,6.26,0,0,1,0-6,5.35,5.35,0,0,1,2.08-2.06,6.33,6.33,0,0,1,5.94,0,5.26,5.26,0,0,1,2.07,2.06,6.34,6.34,0,0,1,0,6,5.42,5.42,0,0,1-2.07,2.07,5.9,5.9,0,0,1-3,.75Zm0-1.37a4.28,4.28,0,0,0,2.18-.55,3.94,3.94,0,0,0,1.51-1.57,5.25,5.25,0,0,0,0-4.64,3.94,3.94,0,0,0-1.51-1.57,4.52,4.52,0,0,0-4.36,0,3.87,3.87,0,0,0-1.51,1.57,5.09,5.09,0,0,0,0,4.64,3.87,3.87,0,0,0,1.51,1.57,4.31,4.31,0,0,0,2.18.55Zm19.2-10.14v11.4h-1.47V392a4.17,4.17,0,0,1-1.67,1.61,5.07,5.07,0,0,1-2.43.58,4.42,4.42,0,0,1-4.81-4.9v-6.61h1.54v6.46a3.82,3.82,0,0,0,.89,2.73,3.35,3.35,0,0,0,2.54.93,3.72,3.72,0,0,0,2.83-1.1,4.21,4.21,0,0,0,1.05-3v-6ZM140,393.35a3,3,0,0,1-1.07.6,4.27,4.27,0,0,1-1.34.21,3,3,0,0,1-3.33-3.32V384h-2v-1.3h2v-2.5h1.54v2.5h3.46V384h-3.46v6.8a2.15,2.15,0,0,0,.51,1.55,1.88,1.88,0,0,0,1.46.53,2.86,2.86,0,0,0,.92-.15,2.23,2.23,0,0,0,.77-.43Zm22.69-10.79a4.5,4.5,0,0,1,3.37,1.24,4.93,4.93,0,0,1,1.23,3.64v6.61h-1.54v-6.46a3.87,3.87,0,0,0-.86-2.71,3.1,3.1,0,0,0-2.41-.93,3.63,3.63,0,0,0-2.8,1.09,4.27,4.27,0,0,0-1,3v6h-1.54v-6.46a3.86,3.86,0,0,0-.85-2.71,3.16,3.16,0,0,0-2.44-.93,3.65,3.65,0,0,0-2.79,1.09,4.28,4.28,0,0,0-1,3v6H148.5v-11.4H150v2.08a4.1,4.1,0,0,1,1.69-1.61,5.37,5.37,0,0,1,2.49-.56,4.8,4.8,0,0,1,2.48.61,3.66,3.66,0,0,1,1.57,1.8A4.47,4.47,0,0,1,160,383.2a5.55,5.55,0,0,1,2.7-.64Zm13.48,11.6a6,6,0,0,1-3-.75,5.51,5.51,0,0,1-2.08-2.07,6.34,6.34,0,0,1,0-6,5.35,5.35,0,0,1,2.08-2.06,6.33,6.33,0,0,1,5.94,0,5.26,5.26,0,0,1,2.07,2.06,6.34,6.34,0,0,1,0,6,5.42,5.42,0,0,1-2.07,2.07,5.9,5.9,0,0,1-3,.75Zm0-1.37a4.28,4.28,0,0,0,2.18-.55,3.87,3.87,0,0,0,1.51-1.57,5.25,5.25,0,0,0,0-4.64,3.87,3.87,0,0,0-1.51-1.57,4.5,4.5,0,0,0-4.35,0,3.9,3.9,0,0,0-1.52,1.57,5.17,5.17,0,0,0,0,4.64,3.9,3.9,0,0,0,1.52,1.57,4.24,4.24,0,0,0,2.17.55Zm10.41-7.91a3.71,3.71,0,0,1,1.61-1.73,5.51,5.51,0,0,1,2.66-.59v1.5l-.37,0a3.64,3.64,0,0,0-2.82,1.11,4.41,4.41,0,0,0-1,3.1v5.81h-1.54v-11.4h1.48v2.23Zm16.86,3.94h-9.54a4.08,4.08,0,0,0,1.37,2.88,4.51,4.51,0,0,0,3.12,1.09,5,5,0,0,0,2-.38,4.22,4.22,0,0,0,1.54-1.12l.87,1a4.91,4.91,0,0,1-1.9,1.39,6.79,6.79,0,0,1-5.61-.27,5.41,5.41,0,0,1-2.12-2.07,6,6,0,0,1-.76-3,6.13,6.13,0,0,1,.73-3,5.19,5.19,0,0,1,2-2.06,5.61,5.61,0,0,1,2.85-.74,5.52,5.52,0,0,1,2.84.74,5.21,5.21,0,0,1,2,2.05,6.21,6.21,0,0,1,.71,3ZM198,383.88a3.88,3.88,0,0,0-2.76,1.05,4.16,4.16,0,0,0-1.27,2.75H202a4.16,4.16,0,0,0-1.27-2.75,3.92,3.92,0,0,0-2.79-1.05Z"/><g class="cls-6"><path class="cls-3" d="M135.25,494.47h2.49a2.45,2.45,0,0,1,2.31,1.61l5,13.62,5-13.62a2.45,2.45,0,0,1,2.31-1.61h2.38a.6.6,0,0,1,.55.82l-8,19.69a.6.6,0,0,1-.56.38h-3.47a.61.61,0,0,1-.56-.38l-8-19.69a.6.6,0,0,1,.56-.82"/><path class="cls-3" d="M174,506.52H159.32a5.79,5.79,0,0,0,6,5.26,7.3,7.3,0,0,0,5.21-2.1.62.62,0,0,1,.81,0l1.93,1.72a.6.6,0,0,1,.06.85,10.5,10.5,0,0,1-8.09,3.43,10.34,10.34,0,0,1-10.64-10.76v-.57A10.19,10.19,0,0,1,165.11,494c7.89.42,9.73,7.2,9.49,11.92a.6.6,0,0,1-.61.56m-4.07-3.14c-.31-3.06-2.12-5.46-5.26-5.46-2.91,0-4.95,2.24-5.38,5.46Z"/><path class="cls-3" d="M176,505v-.08A10.7,10.7,0,0,1,186.78,494a10.43,10.43,0,0,1,7.89,3.16.6.6,0,0,1,0,.83l-2.17,2.31a.6.6,0,0,1-.86,0,6.64,6.64,0,0,0-4.9-2.15c-3.46,0-6,3-6,6.59v.08c0,3.69,2.55,6.64,6.2,6.64a7,7,0,0,0,5-2.14.61.61,0,0,1,.84,0l2,2a.6.6,0,0,1,0,.84,10.32,10.32,0,0,1-8.08,3.46A10.58,10.58,0,0,1,176,505"/><path class="cls-3" d="M198.56,509.47V498.55h-2a.6.6,0,0,1-.6-.6v-2.88a.6.6,0,0,1,.6-.6h2v-5.1a.6.6,0,0,1,.6-.6h1.69a2.47,2.47,0,0,1,2.46,2.47v3.23h5a.6.6,0,0,1,.6.6V498a.6.6,0,0,1-.6.6h-5v10.17a2.26,2.26,0,0,0,2.55,2.59A6.34,6.34,0,0,0,208,511a.59.59,0,0,1,.8.55v2.63a.59.59,0,0,1-.32.53,8.22,8.22,0,0,1-4,.89c-3.5,0-6-1.53-6-6.08"/><path class="cls-3" d="M210,505v-.08a11.05,11.05,0,0,1,22.1-.08v.08A10.84,10.84,0,0,1,221,515.67,10.72,10.72,0,0,1,210,505m17.35,0v-.08A6.4,6.4,0,0,0,221,498.2c-3.81,0-6.24,3-6.24,6.59v.08a6.39,6.39,0,0,0,6.32,6.64c3.85,0,6.28-3,6.28-6.56"/><path class="cls-3" d="M238.77,507.31v7.29a.6.6,0,0,1-.6.6h-3.55a.6.6,0,0,1-.6-.6V495.07a.6.6,0,0,1,.6-.6H237a1.79,1.79,0,0,1,1.8,1.8v2.87c1.22-2.93,3.43-5,6.74-5.07a.59.59,0,0,1,.6.6v2.17a2.44,2.44,0,0,1-1.9,2.4c-2.18.44-5.44,2.1-5.44,8.07"/></g><g class="cls-7"><rect class="cls-8" x="53.89" y="474.84" width="71.02" height="96.51"/></g></g></svg>