<svg viewBox="0 0 300 250" xmlns="http://www.w3.org/2000/svg" xmlns:xlink="http://www.w3.org/1999/xlink"><clipPath id="a"><path d="m0 0h300v250h-300z"/></clipPath><g clip-path="url(#a)"><g clip-path="url(#a)"><g clip-path="url(#a)"><path d="m13.73 124.92a6.67 6.67 0 1 0 -6.73-6.66 6.63 6.63 0 0 0 6.71 6.66" fill="#f57d20"/></g><path d="m120.74 106.71v-6.38a4.31 4.31 0 0 1 4.61-4.54c2.65 0 4.69 1.59 4.69 4.5v6.42a4.33 4.33 0 0 1 -4.65 4.33c-2.57-.04-4.65-1.55-4.65-4.33zm6.08.08v-6.79a1.42 1.42 0 0 0 -1.47-1.51 1.39 1.39 0 0 0 -1.43 1.51v6.75a1.45 1.45 0 1 0 2.9 0zm9.59-10.63h2.59l-11.51 29.32h-2.61zm-2.82 25.39v-6.21a4.45 4.45 0 0 1 4.65-4.71 4.37 4.37 0 0 1 4.7 4.5v6.38a4.46 4.46 0 0 1 -4.7 4.38c-2.57 0-4.65-1.56-4.65-4.34zm6.08.08v-6.78a1.38 1.38 0 0 0 -1.43-1.48 1.34 1.34 0 0 0 -1.38 1.48v6.78c0 .82.36 1.52 1.38 1.52a1.39 1.39 0 0 0 1.43-1.52z" fill="#f57d20"/><path d="m144.34 96.78h.93l.95 4.27h-.93l-.51-2.54-.55 2.54h-.94z" fill="#f57d20"/><path d="m32.67 129.82v-2.48h6.91v2.73c0 2.36 1 3.94 3.2 3.94s3.39-1.4 3.39-6.73-2.4-6.43-4.5-6.43h-3v-6.61h3.13c2.65 0 4-1.51 4-6.48 0-4.61-1.35-5.94-3.2-5.94-2.1 0-2.9 1.63-2.9 4v2.54h-6.85v-2.42c0-6.55 3.7-10.37 10.36-10.37 6 0 9.81 4 9.81 11.22 0 4.85-1.42 9.09-5.3 10.36v.25c4.07 1.33 5.92 5.33 5.92 10.06 0 8.91-5.12 12.61-10.55 12.61-7.71 0-10.42-4.55-10.42-10.25z" fill="#f57d20"/><path d="m58.08 130.61h6.92v8.85h-6.92z" fill="#f57d20"/><path d="m70 131v-3.4h7v2.91c0 1.94 1 3.28 3 3.28 2.22 0 3.27-1.52 3.27-3.52v-10.33a7.39 7.39 0 0 1 -6 2.85c-4.87 0-7.71-2.91-7.71-7.45v-10.34c0-5.76 4.26-9.46 10.67-9.46s10.61 3.94 10.61 9.82v24c0 6.55-4.38 10.67-10.67 10.67s-10.17-3.54-10.17-9.03zm13.26-17v-9.21a3.12 3.12 0 0 0 -3.26-3.28c-2.35 0-3.21 1.82-3.21 3.46v9.64a2.84 2.84 0 0 0 3 3 3.46 3.46 0 0 0 3.46-3.55z" fill="#f57d20"/><path d="m95.83 131v-3.4h7v2.91c0 1.94 1 3.28 3 3.28 2.22 0 3.27-1.52 3.27-3.52v-10.33a7.37 7.37 0 0 1 -6 2.85c-4.88 0-7.71-2.91-7.71-7.45v-10.34c0-5.76 4.25-9.46 10.67-9.46s10.61 3.94 10.61 9.82v24c0 6.55-4.38 10.67-10.67 10.67s-10.17-3.54-10.17-9.03zm13.26-17v-9.21a3.12 3.12 0 0 0 -3.21-3.34c-2.34 0-3.21 1.82-3.21 3.46v9.64a2.84 2.84 0 0 0 3 3 3.45 3.45 0 0 0 3.42-3.49z" fill="#f57d20"/><g fill="#fff"><path d="m31.5 154.32v-5.84c0-1.77 1.51-2.78 3.47-2.78s3.21 1 3.21 2.58v1.23h-2v-1c0-.66-.45-1.07-1.21-1.07s-1.22.46-1.22 1.13v5.68a1.08 1.08 0 0 0 1.25 1.12 1 1 0 0 0 1.19-1v-1h2v1.15c0 1.66-1.35 2.65-3.22 2.65-2.03-.08-3.47-.99-3.47-2.85z"/><path d="m39.46 154.18v-5.56c0-1.91 1.51-2.92 3.49-2.92s3.47.9 3.47 2.86v5.57c0 2-1.54 3-3.49 3s-3.47-.97-3.47-2.95zm4.71 0v-5.7a1.24 1.24 0 0 0 -2.47 0v5.67a1.12 1.12 0 0 0 1.3 1.22 1.1 1.1 0 0 0 1.17-1.16z"/><path d="m47.92 145.87h2.79l1.51 4.5 1.55-4.5h2.66v11.07h-2v-8l-1.43 4.66h-1.5l-1.55-4.67v8h-2.03z"/><path d="m58.11 145.87h3.52c2 0 3 1.23 3 3.34s-.94 3.58-3.1 3.58h-1.22v4.15h-2.2zm3.12 5.31q1.26 0 1.26-1.92c0-1.14-.35-1.76-1.23-1.76h-.95v3.68z"/><path d="m67.38 145.86h3l2.44 11.08h-2.22l-.6-2.69h-2.55l-.56 2.69h-2.06zm2.29 6.81-.89-4.59-.93 4.59z"/><path d="m74 145.87h3.38c2.07 0 3.28 1 3.28 3.23 0 1.58-.6 2.52-1.53 2.9l1.67 4.94h-2.3l-1.37-4.5h-.92v4.5h-2.21zm3.25 5.13c.78 0 1.22-.53 1.22-1.74s-.37-1.72-1.24-1.72h-1v3.46z"/><path d="m82.19 145.87h2.21v11.07h-2.21z"/><path d="m85.71 154 2.07-.06c.09.76.33 1.55 1.22 1.55a1 1 0 0 0 1-1.16c0-.62-.44-1.15-1.16-1.77l-1.24-1.15a4 4 0 0 1 -1.74-3c0-1.49 1-2.76 3.16-2.76 1.52 0 2.89.71 3 3l-2 .07c-.11-.87-.37-1.48-1.16-1.48a1 1 0 0 0 -1 1c0 .61.67 1.18 1.28 1.72l1.16 1a4.2 4.2 0 0 1 1.81 3.18c0 1.6-1.2 2.84-3.21 2.84a3 3 0 0 1 -3.19-2.98z"/><path d="m93.37 154.18v-5.56c0-1.91 1.51-2.92 3.49-2.92s3.47.9 3.47 2.86v5.57c0 2-1.54 3-3.49 3s-3.47-.97-3.47-2.95zm4.71 0v-5.7a1.24 1.24 0 0 0 -2.47 0v5.67a1.12 1.12 0 0 0 1.25 1.16 1.1 1.1 0 0 0 1.22-1.1z"/><path d="m101.83 145.87h2.28l2.77 6.4h.05v-6.4h2v11.07h-2l-3.07-7.09v7.09h-2z"/><path d="m113.08 145.87h3.39c2.07 0 3.28 1 3.28 3.23 0 1.58-.6 2.52-1.53 2.9l1.67 4.94h-2.3l-1.37-4.5h-.93v4.5h-2.21zm3.21 5.11c.79 0 1.23-.53 1.23-1.74s-.37-1.72-1.25-1.72h-1v3.48z"/><path d="m123.34 145.86h3l2.44 11.08h-2.23l-.58-2.69h-2.57l-.56 2.69h-2.06zm2.29 6.81-.89-4.59-.93 4.59z"/><path d="m131.1 147.53h-2.37v-1.66h7v1.66h-2.35v9.41h-2.28z"/><path d="m136.83 145.87h5.73v1.66h-3.56v2.86h2.83v1.68h-2.83v3.19h3.56v1.68h-5.75z"/><path d="m154.75 107.27v-7.88c0-2.71 2.5-4.15 5.79-4.15s5.76 1.28 5.76 4.06v7.91c0 2.84-2.56 4.21-5.79 4.21-3.43 0-5.76-1.33-5.76-4.15zm7.83 0v-8.04c0-1-.79-1.56-2.07-1.56s-2 .66-2 1.6v8c0 .94.7 1.65 2.07 1.65s2-.68 2-1.6z"/><path d="m168.8 95.49h3.78l4.6 9.07h.09v-9.07h3.26v15.71h-3.32l-5.09-10.07h-.06v10.07h-3.26z"/><path d="m187.48 95.49h6.23c2.93 0 4.65 1.3 4.65 4a3.38 3.38 0 0 1 -2.73 3.66v.09a3.33 3.33 0 0 1 2.85 3.57c0 3-1.89 4.41-4.63 4.41h-6.37zm5.24 6.63c1.25 0 2-.71 2-2.29s-.69-2.1-1.77-2.1h-1.83v4.39zm.23 6.81c1.19 0 1.83-.84 1.83-2.32s-.78-2.22-2-2.22h-1.63v4.54z"/><path d="m200.69 107.27v-7.88c0-2.71 2.5-4.15 5.79-4.15s5.76 1.28 5.76 4.06v7.91c0 2.84-2.56 4.21-5.79 4.21-3.45 0-5.76-1.33-5.76-4.15zm7.82 0v-8.04c0-1-.78-1.56-2.06-1.56s-2 .66-2 1.6v8c0 .94.7 1.65 2.07 1.65s1.99-.68 1.99-1.6z"/><path d="m218 95.46h5l4 15.74h-3.7l-1-3.82h-4.28l-.93 3.82h-3.4zm3.81 9.68-1.48-6.53h-.09l-1.54 6.53z"/><path d="m230.86 97.84h-3.93v-2.35h11.52v2.35h-3.9v13.36h-3.69z"/><path d="m155 114.5h5.85c3.41 0 5 1.74 5 4.74 0 3.15-1.57 5.09-5.15 5.09h-2v5.88h-3.7zm5.18 7.53c1.4 0 2.1-.9 2.1-2.73 0-1.61-.58-2.49-2-2.49h-1.57v5.19z"/><path d="m170.4 114.48h5l4 15.73h-3.69l-1-3.81h-4.28l-.93 3.81h-3.41zm3.81 9.67-1.48-6.52h-.09l-1.54 6.52z"/><path d="m181 126.49v-8.29c0-2.51 2.51-3.94 5.76-3.94 3.06 0 5.33 1.36 5.33 3.65v1.74h-3.32v-1.47c0-.93-.75-1.52-2-1.52-1.42 0-2 .66-2 1.61v8.06c0 1.08.75 1.65 2.06 1.65s2-.59 2-1.47v-1.51h3.32v1.63c0 2.36-2.24 3.77-5.35 3.77-3.45.03-5.8-1.27-5.8-3.91z"/><path d="m194.4 114.5h3.67v7.14l4.28-7.14h3.65l-3.79 6.1 3.84 9.61h-3.92l-2.63-7.21-1.43 2v5.22h-3.67z"/><path d="m211.48 114.48h5l4 15.73h-3.69l-1-3.81h-4.19l-.93 3.81h-3.41zm3.81 9.67-1.48-6.52h-.09l-1.54 6.52z"/><path d="m222 126.44v-8.24c0-2.49 2.47-3.94 5.73-3.94 3.06 0 5.53 1.3 5.53 3.59v1.67h-3.37v-1.45c0-.9-.88-1.46-2.1-1.46-1.4 0-2.06.71-2.06 1.68v8.09c0 1 .72 1.65 2.06 1.65s1.95-.62 1.95-1.48v-2.55h-2.27v-2.1h5.82v4.78c0 2.36-2.12 3.75-5.5 3.75s-5.79-1.34-5.79-3.99z"/><path d="m235.8 114.5h9.52v2.36h-5.88v4h4.68v2.38h-4.68v4.54h5.91v2.38h-9.55z"/><path d="m246.77 126.07 3.43-.09c.15 1.08.56 2.2 2 2.2a1.55 1.55 0 0 0 1.72-1.65c0-.88-.73-1.63-1.92-2.51l-2-1.63c-1.77-1.3-2.88-2.58-2.88-4.23 0-2.12 1.75-3.93 5.24-3.93 2.53 0 4.8 1 5 4.26l-3.23.09c-.17-1.24-.61-2.1-1.92-2.1a1.47 1.47 0 0 0 -1.66 1.48c0 .86 1.11 1.67 2.13 2.44l1.92 1.48c1.92 1.43 3 2.78 3 4.52 0 2.27-2 4-5.33 4s-5.27-1.62-5.5-4.33z"/><path d="m154.75 153.3v-7.89c0-2.71 2.5-4.14 5.79-4.14s5.76 1.28 5.76 4.06v7.91c0 2.84-2.56 4.2-5.79 4.2-3.43 0-5.76-1.32-5.76-4.14zm7.83 0v-8.09c0-1-.79-1.56-2.07-1.56s-2 .66-2 1.6v8c0 .94.7 1.65 2.07 1.65s2-.63 2-1.55z"/><path d="m168.8 141.51h5.62c3.43 0 5.44 1.48 5.44 4.59 0 2.25-1 3.57-2.53 4.12l2.76 7h-3.81l-2.28-6.39h-1.54v6.39h-3.66zm5.33 7.25c1.31 0 2-.75 2-2.46 0-1.52-.61-2.45-2.06-2.45h-1.63v4.91z"/><path d="m186.58 141.51h5.61c3.44 0 5.44 1.48 5.44 4.59 0 2.25-1 3.57-2.53 4.12l2.77 7h-3.81l-2.27-6.39h-1.55v6.39h-3.66zm5.32 7.25c1.31 0 2-.75 2-2.46 0-1.52-.61-2.45-2.07-2.45h-1.63v4.91z"/><path d="m200.1 141.51h9.52v2.36h-5.88v4.06h4.69v2.38h-4.69v4.53h5.91v2.38h-9.55z"/><path d="m212 141.51h5.85c3.41 0 5 1.75 5 4.74 0 3.15-1.57 5.09-5.15 5.09h-2v5.88h-3.7zm5.18 7.54c1.4 0 2.1-.9 2.1-2.73 0-1.61-.58-2.49-2-2.49h-1.57v5.22z"/><path d="m225 153.3v-7.89c0-2.71 2.5-4.14 5.79-4.14s5.76 1.28 5.76 4.06v7.91c0 2.84-2.56 4.2-5.79 4.2-3.48 0-5.76-1.32-5.76-4.14zm7.83 0v-8.09c0-1-.79-1.56-2.07-1.56s-2 .66-2 1.6v8c0 .94.7 1.65 2.07 1.65s1.95-.63 1.95-1.55z"/><path d="m237.87 141.51h3.63l1.72 9.92h.06l2-9.92h3.52l1.89 9.88h.06l1.69-9.88h3.26l-3.23 15.8h-3.47l-2.09-10.51h-.12l-2.15 10.51h-3.49z"/><path d="m257.47 141.51h9.53v2.36h-5.88v4.06h4.69v2.38h-4.69v4.53h5.88v2.38h-9.55z"/><path d="m269.34 141.51h5.66c3.43 0 5.44 1.48 5.44 4.59 0 2.25-1 3.57-2.53 4.12l2.77 7h-3.82l-2.27-6.39h-1.59v6.39h-3.67zm5.33 7.25c1.31 0 2-.75 2-2.46 0-1.52-.61-2.45-2.07-2.45h-1.6v4.91z"/></g></g></g></svg>