<svg viewBox="0 0 300 250" xmlns="http://www.w3.org/2000/svg" xmlns:xlink="http://www.w3.org/1999/xlink"><clipPath id="a"><path d="m0 0h300v250h-300z"/></clipPath><g clip-path="url(#a)"><g clip-path="url(#a)"><g clip-path="url(#a)"><path d="m13.72 125a6.67 6.67 0 1 0 -6.72-6.66 6.63 6.63 0 0 0 6.72 6.66" fill="#f57d20"/></g><g fill="#fff"><path d="m32.26 127.38 7.4-.24c.32 2.91 1.2 5.93 4.39 5.93 2.83 0 3.7-2.31 3.7-4.45 0-2.37-1.56-4.38-4.13-6.75l-4.46-4.39c-3.82-3.48-6.16-6.93-6.16-11.37 0-5.69 3.77-10.55 11.29-10.55 5.41 0 10.3 2.73 10.71 11.44l-7 .23c-.37-3.31-1.31-5.62-4.13-5.62-2.33 0-3.58 1.65-3.58 4s2.38 4.5 4.58 6.57l4.14 4c4.14 3.85 6.46 7.47 6.46 12.15 0 6.1-4.27 10.84-11.48 10.84s-11.29-4.5-11.73-11.79z"/><path d="m65.38 96.21h10.79l8.71 42.31h-8l-2.07-10.25h-9.18l-2 10.25h-7.34zm8.21 26-3.19-17.52h-.19l-3.33 17.53z"/><path d="m82.5 96.27h7.91l5.14 28.73h.25l5.2-28.73h7.15l-8.59 42.48h-8.34z"/><path d="m109.85 96.27h20.51v6.34h-12.67v10.9h10.1v6.4h-10.1v12.21h12.73v6.4h-20.57z"/><path d="m137.79 111.63v-15.28h3.83v15.11a2 2 0 0 0 2.09 2.2 1.94 1.94 0 0 0 2-2.18v-15.13h3.58v15.16c0 3.39-2.48 5.28-5.86 5.28s-5.64-1.63-5.64-5.16z"/><path d="m152.05 96.35h6c3.5 0 5.15 2.23 5.15 6.07 0 4-1.62 6.52-5.29 6.52h-2.1v7.54h-3.77zm5.33 9.65c1.43 0 2.15-1.15 2.15-3.5 0-2.06-.6-3.19-2.09-3.19h-1.62v6.69z"/><path d="m141.11 122.13h-4v-3h11.85v3h-4v17.12h-3.8z"/><path d="m150.29 134.22v-10.11c0-3.48 2.57-5.31 6-5.31s5.92 1.64 5.92 5.2v10.14c0 3.64-2.63 5.39-5.95 5.39-3.58 0-5.97-1.69-5.97-5.31zm8 .06v-10.37a2.11 2.11 0 0 0 -4.21.06v10.31a2.11 2.11 0 1 0 4.21 0z"/></g><path d="m179.14 136.86c-4.74-.53-9.41-3.38-9.73-9.78l7.3-.23c.25 2.6 1.34 4.62 4.22 4.62a3.28 3.28 0 0 0 3.45-3.56c0-2-1.6-4.26-4-6.4l-4.16-3.85c-3.52-3.2-6.08-6.22-6.08-10.19 0-4.74 3.07-8.59 9-9.3v-3.67h5.05v3.73c4 .65 7.3 3.08 7.61 9.3l-6.52.12c-.32-3.2-1.86-4.5-4-4.5a3.33 3.33 0 0 0 -3.58 3.61c0 2.07 2 4 4 5.87l4.1 3.85c3.2 3.14 6.07 6.51 6.07 10.66a9.28 9.28 0 0 1 -7.61 9.3v4.15h-5.05z" fill="#f57d20"/><path d="m197.5 103.56-3.39.77-1-5.39 7.62-2.73h4.41v42.31h-7.64z" fill="#f57d20"/><path d="m208.31 130.1v-3.79h7v3.2a3.27 3.27 0 0 0 3.52 3.56c2.17 0 3.39-1.48 3.39-4.27v-8.12c0-2.43-1.22-3.91-3.46-3.91a4.28 4.28 0 0 0 -3.45 2.25l-6.59-.41.83-22.34h18.85v6.22h-12.48c0 .06-.25 8.12-.45 10.79a10.07 10.07 0 0 1 6.21-2c4.41 0 8.19 2.25 8.19 8.3v9.48c0 6.51-4.86 10.07-11.07 10.07-6.8.04-10.49-3.52-10.49-9.03z" fill="#f57d20"/><path d="m233.07 129.69v-24.77c0-6.28 5.31-9.3 11.19-9.3s11.2 3 11.2 9.24v24.83c0 6.4-5.12 9.42-11.2 9.42s-11.19-3.11-11.19-9.42zm14.71.18v-25.12c0-1.66-1.28-3-3.52-3s-3.45 1.43-3.45 3v25.18a3.15 3.15 0 0 0 3.45 3.14c2.5 0 3.52-1.6 3.52-3.2z" fill="#f57d20"/><path d="m258.78 129.69v-24.77c0-6.28 5.31-9.3 11.2-9.3s11.2 3 11.2 9.24v24.83c0 6.4-5.12 9.42-11.2 9.42s-11.2-3.11-11.2-9.42zm14.72.18v-25.12c0-1.66-1.28-3-3.52-3s-3.45 1.43-3.45 3v25.18a3.15 3.15 0 0 0 3.45 3.14c2.5 0 3.52-1.6 3.52-3.2z" fill="#f57d20"/><path d="m282.39 98.52.85-1.16-1.3-.7.46-.69 1.17.62v-1.26h.91v1.27l1.17-.63.46.69-1.31.7.86 1.16-.75.45-.91-1.18-.86 1.21z" fill="#f57d20"/></g></g></svg>