<svg xmlns="http://www.w3.org/2000/svg" viewBox="0 0 129.06 20.07"><defs><style>.cls-1{fill:#fff;}.cls-2{fill:#231f20;}</style></defs><title>cta-728</title><g id="Layer_2" data-name="Layer 2"><g id="Layer_1-2" data-name="Layer 1"><path class="cls-1" d="M3.65,0S0,0,0,3.65V16.42s0,3.65,3.65,3.65H125.41s3.65,0,3.65-3.65V3.65s0-3.65-3.65-3.65Z"/><path class="cls-2" d="M16.55,14.26v-1.4H17.8V7.36H16.55V9.29H15.12V6h7.53V9.29H21.24V7.36H20v5.5h1.25v1.4Z"/><path class="cls-2" d="M23.43,14.26v-1.4h1V7.36h-1V6h7.33V8.59H29.17V7.36H26.59V9.27h2.08v1.41H26.59v2.18h2.58V11.62h1.59v2.64Z"/><path class="cls-2" d="M31.53,14.26v-1.4h1.19V7.36H31.53V6h4.56V7.36H34.88v5.5h2.46V10.29H39v4Z"/><path class="cls-2" d="M39.43,14.26v-1.4h1.19V7.36H39.43V6H44V7.36H42.78v5.5h2.46V10.29h1.62v4Z"/><path class="cls-2" d="M50.39,14.26v-1.4h1.08V7.36H50.39V6h4.17l1.82,4.87L58.22,6h4.25V7.36H61.39v5.5h1.08v1.4H58.28v-1.4h1V7.36h-.2l-2.57,6.9h-.9L53,7.36h-.19v5.5H53.9v1.4Z"/><path class="cls-2" d="M63.21,14.26v-1.4h1V7.36h-1V6h7.33V8.59H69V7.36H66.37V9.27h2.08v1.41H66.37v2.18H69V11.62h1.59v2.64Z"/><path class="cls-2" d="M74.36,14.26v-1.4h1.08V7.36H74.36V6h4.17l1.83,4.87L82.19,6h4.25V7.36H85.36v5.5h1.08v1.4H82.26v-1.4h1V7.36h-.2l-2.57,6.9h-.9L77,7.36h-.2v5.5h1.09v1.4Z"/><path class="cls-2" d="M92,5.82a4.55,4.55,0,0,1,3.39,1.24,4.15,4.15,0,0,1,1.23,3,4.16,4.16,0,0,1-1.23,3A4.62,4.62,0,0,1,92,14.37a4.47,4.47,0,0,1-3.42-1.28,4.23,4.23,0,0,1-1.2-3,4.14,4.14,0,0,1,1.23-3A4.55,4.55,0,0,1,92,5.82Zm0,1.52a2.13,2.13,0,0,0-1.62.72,3,3,0,0,0-.67,2.1,2.82,2.82,0,0,0,.66,2,2.09,2.09,0,0,0,1.63.73,2.15,2.15,0,0,0,1.63-.72,3,3,0,0,0,.67-2.07,3,3,0,0,0-.64-2A2.08,2.08,0,0,0,92,7.34Z"/><path class="cls-2" d="M106.18,12.86v1.4h-2.54l-1.87-3.64h-1v2.24h1v1.4H97.51v-1.4h1.14V7.36H97.51V6h5a2.59,2.59,0,0,1,2,.72,2.39,2.39,0,0,1,.62,1.61,2.15,2.15,0,0,1-1.44,2.07l1.35,2.51ZM100.82,9.3h.74c.91,0,1.37-.33,1.37-1a.83.83,0,0,0-.31-.72,1.41,1.41,0,0,0-.87-.24h-.93Z"/><path class="cls-2" d="M106.56,14.26v-1.4h1V7.36h-1V6h7.32V8.59h-1.59V7.36h-2.57V9.27h2.08v1.41h-2.08v2.18h2.57V11.62h1.59v2.64Z"/></g></g></svg>