<svg xmlns="http://www.w3.org/2000/svg" viewBox="0 0 344.73 19.82"><defs><style>.cls-1{fill:#231f20;}</style></defs><title>t3-728</title><g id="Layer_2" data-name="Layer 2"><g id="Layer_1-2" data-name="Layer 1"><path class="cls-1" d="M3.92,15.75V13.13H6.1V8.94L1.89,2.86H0V.25H7.76V2.86H6.23L8.51,6.64l2.31-3.78H9.22V.25h6.83V2.86H14.14l-4,6.08v4.19h2.16v2.62Z"/><path class="cls-1" d="M17.41,15.75V13.13h1.86V2.86H17.41V.25H31.07V5.16h-3V2.86H23.3V6.44h3.88V9.06H23.3v4.07h4.81V10.81h3v4.94Z"/><path class="cls-1" d="M41.54,13.13v2.62H33.37V13.13h2V2.86h-2V.25h8.17A6.58,6.58,0,0,1,46,1.58a4.49,4.49,0,0,1,1.55,3.6A5.08,5.08,0,0,1,47,7.53a4.19,4.19,0,0,1-1.4,1.61,5.25,5.25,0,0,1-2,.77,15,15,0,0,1-2.75.21H39.38v3Zm-2.16-5.6H40c1.38,0,2.27-.22,2.67-.67a2.44,2.44,0,0,0,.6-1.68,2.52,2.52,0,0,0-.41-1.44,1.77,1.77,0,0,0-1-.74,7.91,7.91,0,0,0-1.75-.14h-.76Z"/><path class="cls-1" d="M48,19.82V18.15A1.91,1.91,0,0,0,49.81,16v-.2H48V12H51.7v3.47a7.2,7.2,0,0,1-.36,2.57,2.48,2.48,0,0,1-1.23,1.34A4.67,4.67,0,0,1,48,19.82Z"/><path class="cls-1" d="M63.45,15.75V13.13h2.17V8.94l-4.2-6.08h-1.9V.25h7.76V2.86H65.75L68,6.64l2.31-3.78h-1.6V.25h6.83V2.86H73.66l-4,6.08v4.19h2.16v2.62Z"/><path class="cls-1" d="M85,0a8.49,8.49,0,0,1,6.31,2.32A7.73,7.73,0,0,1,93.57,8a7.68,7.68,0,0,1-2.31,5.65A8.5,8.5,0,0,1,85,15.93a8.35,8.35,0,0,1-6.39-2.37A7.9,7.9,0,0,1,76.34,8a7.77,7.77,0,0,1,2.29-5.65A8.49,8.49,0,0,1,85,0Zm0,2.83a4,4,0,0,0-3,1.34,5.56,5.56,0,0,0-1.24,3.92,5.3,5.3,0,0,0,1.22,3.65,3.91,3.91,0,0,0,3,1.38,4,4,0,0,0,3-1.35A5.47,5.47,0,0,0,89.23,7.9,5.46,5.46,0,0,0,88,4.23,3.86,3.86,0,0,0,85,2.83Z"/><path class="cls-1" d="M94.91,2.86V.25h7.4V2.86h-1.52v7a12.32,12.32,0,0,0,.11,2,1.66,1.66,0,0,0,.62,1,2,2,0,0,0,1.27.41,2.22,2.22,0,0,0,1.32-.38,1.7,1.7,0,0,0,.67-.95,11.22,11.22,0,0,0,.15-2.32V2.86h-1.5V.25h6.17V2.86h-1.89v7.76a11.33,11.33,0,0,1-.17,2.3,3.48,3.48,0,0,1-.77,1.43A4.19,4.19,0,0,1,105,15.49a7.18,7.18,0,0,1-2.63.44,7.9,7.9,0,0,1-2.92-.48,3.92,3.92,0,0,1-1.8-1.29,4,4,0,0,1-.76-1.59,15,15,0,0,1-.17-2.7v-7Z"/><path class="cls-1" d="M132.33,13.13v2.62h-4.72L124.11,9h-1.77v4.17h1.94v2.62h-8.11V13.13h2.13V2.86h-2.13V.25h9.35a4.83,4.83,0,0,1,3.81,1.33,4.46,4.46,0,0,1,1.16,3,4,4,0,0,1-2.68,3.86l2.52,4.68Zm-10-6.64h1.38c1.71,0,2.56-.61,2.56-1.83a1.59,1.59,0,0,0-.58-1.35,2.59,2.59,0,0,0-1.61-.45h-1.75Z"/><path class="cls-1" d="M133.68,15.75V13.13h1.86V2.86h-1.86V.25h13.67V5.16h-3V2.86h-4.8V6.44h3.88V9.06h-3.88v4.07h4.8V10.81h3v4.94Z"/><path class="cls-1" d="M164.74,13.13v2.62h-7.62V13.13h2l-.74-2.67h-4l-.83,2.67h2.08v2.62h-6.87V13.13h1.92l3-10.27h-2.06V.25h10.11V2.86h-2.08l3.25,10.27Zm-7-4.94-1.29-4.67-1.39,4.67Z"/><path class="cls-1" d="M166,15.75V13.13h2.35V2.86H166V.25h7.35a19.67,19.67,0,0,1,3.73.28,6.74,6.74,0,0,1,2.71,1.26,7,7,0,0,1,2.07,2.61A8.32,8.32,0,0,1,182.67,8a8.67,8.67,0,0,1-.55,3.09,7.28,7.28,0,0,1-1.35,2.36,5.93,5.93,0,0,1-1.93,1.42,7.61,7.61,0,0,1-2.07.69,20.11,20.11,0,0,1-2.92.16Zm6.38-2.62h1a7.11,7.11,0,0,0,2.79-.46,3.51,3.51,0,0,0,1.65-1.61,6.26,6.26,0,0,0,.63-3,6.54,6.54,0,0,0-.63-3,3.46,3.46,0,0,0-1.71-1.71,6.93,6.93,0,0,0-2.73-.47h-1Z"/><path class="cls-1" d="M192.87,15.75V13.13h2.32V2.86h-2.32V6.47H190.2V.25h14.05V6.47h-2.63V2.86h-2.39V13.13h2.33v2.62Z"/><path class="cls-1" d="M206,15.75V13.13h1.93V2.86H206V.25h7.48V2.86h-1.62v3.4h4.22V2.86h-1.57V.25h7.43V2.86H220V13.13h1.94v2.62h-7.43V13.13h1.57V8.89h-4.22v4.24h1.62v2.62Z"/><path class="cls-1" d="M239.27,13.13v2.62h-7.62V13.13h2l-.74-2.67h-4l-.82,2.67h2.07v2.62h-6.87V13.13h1.92l3-10.27h-2.06V.25h10.12V2.86h-2.09l3.26,10.27Zm-7-4.94L231,3.52l-1.4,4.67Z"/><path class="cls-1" d="M242,15.75V13.13h2.33V2.86H242V6.47h-2.66V.25h14.05V6.47h-2.63V2.86h-2.4V13.13h2.33v2.62Z"/><path class="cls-1" d="M276.41,13.13v2.62h-4.72L268.19,9h-1.77v4.17h1.94v2.62h-8.1V13.13h2.13V2.86h-2.13V.25h9.35a4.8,4.8,0,0,1,3.8,1.33,4.42,4.42,0,0,1,1.17,3,4,4,0,0,1-2.69,3.86l2.52,4.68Zm-10-6.64h1.38c1.71,0,2.56-.61,2.56-1.83a1.59,1.59,0,0,0-.58-1.35,2.59,2.59,0,0,0-1.61-.45h-1.75Z"/><path class="cls-1" d="M277.67,15.75V13.13H280V2.86h-2.35V.25h8.76V2.86h-2.38V13.13h2.38v2.62Z"/><path class="cls-1" d="M297.83,10.54V7.92h7.26a8.45,8.45,0,0,1-1,4.47,7,7,0,0,1-3,2.6,9.85,9.85,0,0,1-4.36.94,8.73,8.73,0,0,1-6.45-2.25A7.73,7.73,0,0,1,288.05,8a8.07,8.07,0,0,1,1.12-4.25,7.11,7.11,0,0,1,3-2.78A8.94,8.94,0,0,1,296.26,0a7.12,7.12,0,0,1,4.85,1.52V.25h2.63v5.5h-2.63a3.88,3.88,0,0,0-1.63-2.2,4.77,4.77,0,0,0-2.63-.8,4.3,4.3,0,0,0-3.16,1.31,4.9,4.9,0,0,0-1.3,3.63,5.65,5.65,0,0,0,1.32,4A4.35,4.35,0,0,0,297,13.12a3.87,3.87,0,0,0,2.33-.68,3.57,3.57,0,0,0,1.28-1.9Z"/><path class="cls-1" d="M306.9,15.75V13.13h1.94V2.86H306.9V.25h7.49V2.86h-1.63v3.4H317V2.86h-1.57V.25h7.43V2.86h-1.93V13.13h1.93v2.62h-7.43V13.13H317V8.89h-4.22v4.24h1.63v2.62Z"/><path class="cls-1" d="M327.22,15.75V13.13h2.33V2.86h-2.33V6.47h-2.66V.25h14.05V6.47H336V2.86h-2.4V13.13h2.33v2.62Z"/><path class="cls-1" d="M341,15.75V12h3.73v3.74Zm1-5.41-1-5.85V.25h3.45V4.49l-.88,5.85Z"/></g></g></svg>