<svg xmlns="http://www.w3.org/2000/svg" xmlns:xlink="http://www.w3.org/1999/xlink" viewBox="0 0 166 28"><defs><style>.cls-1{fill:none;}.cls-2{clip-path:url(#clip-path);}.cls-3{fill:url(#linear-gradient);}.cls-4{fill:#fff;}</style><clipPath id="clip-path" transform="translate(0 0)"><rect class="cls-1" width="166" height="28"/></clipPath><linearGradient id="linear-gradient" x1="-2230.08" y1="7537.08" x2="-2228.65" y2="7537.08" gradientTransform="matrix(116, 0, 0, -116, 258688.97, 874314.86)" gradientUnits="userSpaceOnUse"><stop offset="0" stop-color="#926a42"/><stop offset="0" stop-color="#926a42"/><stop offset="0.12" stop-color="#9a734c"/><stop offset="0.31" stop-color="#b08b68"/><stop offset="0.44" stop-color="#c19e7e"/><stop offset="0.71" stop-color="#ba9472"/><stop offset="1" stop-color="#9f7248"/></linearGradient></defs><title>cta-ch-728x90</title><g id="Layer_2" data-name="Layer 2"><g id="Layer_2-2" data-name="Layer 2"><g class="cls-2"><rect class="cls-3" width="166" height="28"/></g><path class="cls-4" d="M40.84,9h5.83v1H40.84Zm5.34,3.14h-5v-1h5Zm-4.93,1.29h4.94v1H41.25Zm4.89,7.25H42.42v.78h-1.1v-5.7h4.82Zm-3.72-3.88v2.84H45V16.83Zm1.28-8a20.6,20.6,0,0,0-.85-2.29l1-.33a12.07,12.07,0,0,1,.88,2.23ZM55.31,20.38c0,.61-.12.92-.58,1.11a6.68,6.68,0,0,1-2.19.18,3.85,3.85,0,0,0-.36-1.05c.76,0,1.46,0,1.66,0s.28-.07.28-.26V18.94H48.85a6.22,6.22,0,0,1-1.23,3,4.06,4.06,0,0,0-.88-.83,6.94,6.94,0,0,0,1.12-4.33V13.62h7.45Zm1-8.73v1H46.86v-1h4V10.49h-3.4V9.57h3.4v-1H47.05v-1h3.82V6.19h1.24V7.57h4v1h-4v1H55.8v.92H52.11v1.16ZM54.12,18V16.78H49c0,.39,0,.82-.05,1.26ZM49,14.62v1.26h5.1V14.62Z" transform="translate(0 0)"/><path class="cls-4" d="M69.43,15.91a37.34,37.34,0,0,1,2.37,4.34l-1.14.63c-.19-.46-.46-1.07-.78-1.7-4.29,1.51-4.85,1.75-5.2,2a5.57,5.57,0,0,0-.53-1.29,1.14,1.14,0,0,0,.71-1.07V7.07h6.48v8H66.12v4.18l3.25-1.06c-.34-.61-.7-1.22-1-1.75Zm-3.31-7.7v2.21h4V8.21Zm4,5.7V11.56h-4v2.35Zm8.36,3c0,.71-.15,1.07-.61,1.27a6.37,6.37,0,0,1-2.47.22,4,4,0,0,0-.37-1.2c.88,0,1.67,0,1.89,0s.32-.06.32-.3V8.36H74.14V21.71H72.9V7.18h5.56Z" transform="translate(0 0)"/><path class="cls-4" d="M101.77,9a23.76,23.76,0,0,1-2.59,2,11.52,11.52,0,0,0,3.2,2,5.16,5.16,0,0,0-.87,1,13,13,0,0,1-4-2.92V12H91.4v-.8a14.83,14.83,0,0,1-4.18,3,5.46,5.46,0,0,0-.78-1A12,12,0,0,0,89.87,11a11.19,11.19,0,0,0-2.16-1.72l.68-.71a11.19,11.19,0,0,1,2.23,1.7,12.24,12.24,0,0,0,1.7-2.38H87.69V6.82h5.22l.24-.05.83.42a11.55,11.55,0,0,1-2.31,3.71h5.61a15.81,15.81,0,0,1-2.82-4.34l1.1-.34a13,13,0,0,0,1.18,2.11,21.93,21.93,0,0,0,2.19-2l1,.68A23.94,23.94,0,0,1,97.31,9.1a15.25,15.25,0,0,0,1.14,1.29,21.12,21.12,0,0,0,2.37-2.06Zm-3.59,9c-.36.73-.78,1.53-1.14,2.18h4.83v1.1H87V20.2h4.65a8.42,8.42,0,0,0-1-2.11l1.14-.36a8.75,8.75,0,0,1,1,2.11l-1.06.36h3.93A16.13,16.13,0,0,0,97,17.7Zm.95-.42H89.51V13.36h9.62Zm-1.32-3.18H90.75v2.12h7.06Z" transform="translate(0 0)"/><path class="cls-4" d="M109.66,8.82h6.76v1h-6.76Zm.49,4.73h5.73v1h-5.73Zm5.46,7.24h-4.12v.78h-1.12V15.86h5.24Zm0-9.6v1h-5.09v-1Zm-4.07,5.71v2.84h3V16.9ZM113,8.72a9.92,9.92,0,0,0-1.39-2.11l1-.52a9.08,9.08,0,0,1,1.46,2Zm9.81,11.44c.88,0,1-.44,1.14-2.8a3.33,3.33,0,0,0,1.19.51c-.19,2.75-.58,3.48-2.24,3.48h-3.34c-1.73,0-2.24-.39-2.24-2V12.63h5.51V8.31h-5.73V7.11h7v7.63h-1.24v-.9h-4.27v5.52c0,.67.19.8,1.11.8Z" transform="translate(0 0)"/></g></g></svg>