<svg xmlns="http://www.w3.org/2000/svg" xmlns:xlink="http://www.w3.org/1999/xlink" viewBox="0 0 138 23"><defs><style>.cls-1{fill:none;}.cls-2{clip-path:url(#clip-path);}.cls-3{fill:url(#linear-gradient);}.cls-4{fill:#fff;}</style><clipPath id="clip-path" transform="translate(0 0)"><rect class="cls-1" width="138" height="23"/></clipPath><linearGradient id="linear-gradient" x1="-1787.61" y1="234.56" x2="-1786.42" y2="234.56" gradientTransform="matrix(116, 0, 0, -116, 207362.88, 27220.55)" gradientUnits="userSpaceOnUse"><stop offset="0" stop-color="#916942"/><stop offset="0" stop-color="#916942"/><stop offset="0.12" stop-color="#99724c"/><stop offset="0.31" stop-color="#b08b68"/><stop offset="0.44" stop-color="#c19e7e"/><stop offset="0.71" stop-color="#ba9472"/><stop offset="1" stop-color="#9e7147"/></linearGradient></defs><title>cta-en-728</title><g id="Layer_2" data-name="Layer 2"><g id="Layer_1-2" data-name="Layer 1"><g class="cls-2"><rect class="cls-3" width="138" height="23"/></g><path class="cls-4" d="M29.11,12.41l4,3.31h-.63l-3.65-3v3h-1.1V8.23h2.1c1.5,0,2.74.6,2.74,2.09s-1.24,2.09-2.74,2.09Zm.4-.42c1.31,0,1.85-.56,1.85-1.67s-.54-1.67-1.85-1.67h-.72V12Z" transform="translate(0 0)"/><path class="cls-4" d="M35.85,8.65v3h2.74v.41H35.85v3.2h3.28v.42H34.74V8.23h4.39v.42Z" transform="translate(0 0)"/><path class="cls-4" d="M47.19,9.36a4,4,0,0,0-2.54-.86c-1.59,0-2.84,1.43-2.84,3.47s1.25,3.47,2.84,3.47A3.19,3.19,0,0,0,46.5,15v-3h1.1V15a5,5,0,0,1-3,.82,3.89,3.89,0,1,1,0-7.78,5.16,5.16,0,0,1,2.54.62Z" transform="translate(0 0)"/><path class="cls-4" d="M49.88,8.23H51v7.49h-1.1Z" transform="translate(0 0)"/><path class="cls-4" d="M57.05,9a2.91,2.91,0,0,0-1.57-.49c-.71,0-1.33.32-1.33,1s.56,1,1.47,1.62c1.29.87,2.19,1.53,2.19,2.71,0,1.51-1.44,2-2.57,2a3.6,3.6,0,0,1-2.19-.68V14.5a3.37,3.37,0,0,0,2.19.89c.93,0,1.56-.46,1.56-1.24s-.49-1.16-1.52-1.9c-1.27-.91-2.05-1.47-2.05-2.45,0-1.19,1.15-1.68,2.26-1.68a4,4,0,0,1,1.56.31Z" transform="translate(0 0)"/><path class="cls-4" d="M64.54,8.65h-2.3v7.07h-1.1V8.65H58.85V8.23h5.69Z" transform="translate(0 0)"/><path class="cls-4" d="M67.62,8.65v3h2.75v.41H67.62v3.2H70.9v.42H66.52V8.23H70.9v.42Z" transform="translate(0 0)"/><path class="cls-4" d="M74.4,12.41l4,3.31h-.62l-3.66-3v3H73V8.23h2.1c1.5,0,2.74.6,2.74,2.09s-1.24,2.09-2.74,2.09Zm.41-.42c1.3,0,1.84-.56,1.84-1.67s-.54-1.67-1.84-1.67h-.73V12Z" transform="translate(0 0)"/><path class="cls-4" d="M89.16,8.23v7.61l-5.53-5.75v5.63h-.42V8.1l5.53,5.75V8.23Z" transform="translate(0 0)"/><path class="cls-4" d="M95.17,15.86a3.89,3.89,0,1,1,4-3.89A3.85,3.85,0,0,1,95.17,15.86ZM98,12c0-2-1.13-3.47-2.83-3.47S92.33,9.94,92.33,12s1.14,3.47,2.84,3.47S98,14,98,12Z" transform="translate(0 0)"/><path class="cls-4" d="M101.29,8.23l2.14,5.58,2.25-5.71,2.46,5.75,2.06-5.62h.43l-2.79,7.61-2.51-5.79-2.26,5.79-2.94-7.61Z" transform="translate(0 0)"/></g></g></svg>