<svg id="Layer_1" data-name="Layer 1" xmlns="http://www.w3.org/2000/svg" xmlns:xlink="http://www.w3.org/1999/xlink" viewBox="0 0 970 250"><defs><style>.cls-1{fill:none;}.cls-2{clip-path:url(#clip-path);}.cls-3{clip-path:url(#clip-path-3);}.cls-4{clip-path:url(#clip-path-4);}.cls-5{clip-path:url(#clip-path-5);}.cls-6{fill:#fff;}.cls-7{fill:#221e1f;}.cls-8{clip-path:url(#clip-path-6);}.cls-9{clip-path:url(#clip-path-8);}.cls-10{clip-path:url(#clip-path-9);}.cls-11{clip-path:url(#clip-path-10);}.cls-12{clip-path:url(#clip-path-12);}.cls-13{clip-path:url(#clip-path-13);}</style><clipPath id="clip-path"><rect class="cls-1" x="-990" width="970" height="250"/></clipPath><clipPath id="clip-path-3"><rect class="cls-1" x="-428.06" y="129.11" width="121.62" height="120.89"/></clipPath><clipPath id="clip-path-4"><rect class="cls-1" x="-33758" y="-32517" width="65535" height="65535"/></clipPath><clipPath id="clip-path-5"><rect class="cls-1" width="970" height="250"/></clipPath><clipPath id="clip-path-6"><rect class="cls-1" x="1980" width="970" height="250"/></clipPath><clipPath id="clip-path-8"><rect class="cls-1" x="2541.94" y="129.11" width="121.62" height="120.89"/></clipPath><clipPath id="clip-path-9"><rect class="cls-1" x="-30788" y="-32517" width="65535" height="65535"/></clipPath><clipPath id="clip-path-10"><rect class="cls-1" x="2970" width="970" height="250"/></clipPath><clipPath id="clip-path-12"><rect class="cls-1" x="3531.94" y="129.11" width="121.62" height="120.89"/></clipPath><clipPath id="clip-path-13"><rect class="cls-1" x="-29798" y="-32517" width="65535" height="65535"/></clipPath></defs><g class="cls-5"><rect class="cls-6" x="372.61" y="99.54" width="121.21" height="50.92"/><path class="cls-7" d="M471.14,137.57V118.91h8.2V114.3H457.47v4.61h8.09v18.66Zm-22.05,0h5.61V114.3h-5.61ZM428.85,114.3v23.27h17.43V133H434.47V114.3Zm-16,11.19V118.8h4c3.06,0,4.32,1.19,4.32,3.36s-1.26,3.33-4.32,3.33Zm0,4.5h4.25c6,0,9.53-2.88,9.53-7.86s-3.51-7.83-9.53-7.83h-9.82v23.27h5.57Zm-28.73-.7a7.65,7.65,0,0,0,3,6.47,12.46,12.46,0,0,0,7.65,2.25,12,12,0,0,0,6.72-1.85,6.08,6.08,0,0,0,2.77-5.43c0-3.8-2.22-6.16-6.94-7l-4.36-.78c-1.66-.33-2.74-.81-2.74-2.14,0-1.59,1.33-2.55,3.7-2.55,2.66,0,4.58,1.37,4.72,4.06l5.18-.15c-.12-5.13-3.55-8.31-9.87-8.31-5.61,0-9.23,2.85-9.23,7.43,0,4,2.62,6,6.32,6.72l4.35.78c2,.4,3.4.81,3.4,2.32s-1.55,2.51-4,2.51c-2.85,0-5.32-1.29-5.51-4.5Z"/></g></svg>