<?xml version="1.0" encoding="utf-8"?>
<!-- Generator: Adobe Illustrator 19.0.0, SVG Export Plug-In . SVG Version: 6.00 Build 0)  -->
<svg version="1.1" id="Layer_1" xmlns="http://www.w3.org/2000/svg" xmlns:xlink="http://www.w3.org/1999/xlink" x="0px" y="0px"
	 viewBox="0 0 118 45.5444" style="enable-background:new 0 0 118 45.5444;" xml:space="preserve">
<style type="text/css">
	.st0{fill-rule:evenodd;clip-rule:evenodd;fill:#FCD800;}
	.st1{fill:#231F20;}
</style>
<g id="XMLID_37_">
	<g id="XMLID_41_">
		<rect id="XMLID_179_" class="st0" width="118" height="45.5444"/>
	</g>
	<g id="XMLID_40_">
		<path id="XMLID_100_" class="st1" d="M13.4018,17.1558V15.187h5.4611c0,1.4133-0.2555,2.533-0.7664,3.3592
			c-0.5109,0.8262-1.254,1.4774-2.228,1.9514c-0.9746,0.4751-2.0677,0.7121-3.2793,0.7121c-2.1052,0-3.7207-0.5642-4.8458-1.6916
			c-1.1252-1.1284-1.6877-2.5602-1.6877-4.2974c0-1.2067,0.2794-2.271,0.8376-3.195c0.5582-0.9251,1.3094-1.6209,2.253-2.0905
			c0.9436-0.4685,1.9688-0.7034,3.0744-0.7034c1.5633,0,2.7808,0.3794,3.6516,1.1393V9.4155h1.9769v4.1387h-1.9769
			c-0.2066-0.6979-0.6169-1.248-1.2312-1.6502c-0.6142-0.4022-1.273-0.6034-1.9769-0.6034c-0.9268,0-1.7171,0.3283-2.3705,0.9838
			c-0.6534,0.6566-0.98,1.5654-0.98,2.7265c0,1.3295,0.3327,2.3417,0.9969,3.0363c0.6648,0.6958,1.4741,1.0436,2.4292,1.0436
			c0.7039,0,1.2871-0.1707,1.7508-0.5109c0.4631-0.3414,0.7844-0.8153,0.9632-1.4241H13.4018z"/>
		<path id="XMLID_102_" class="st1" d="M19.8506,21.0673v-1.9688h1.3986v-7.7142h-1.3986V9.4155h10.2689v3.694h-2.228v-1.7253
			h-3.6098v2.6884h2.9146v1.9688h-2.9146v3.057h3.6098v-1.7416h2.228v3.7103H19.8506z"/>
		<path id="XMLID_104_" class="st1" d="M33.2525,21.0673v-1.9688h1.7503v-7.7142h-1.7503v2.7134h-2.0019V9.4155H41.813v4.6822
			h-1.9769v-2.7134h-1.8008v7.7142h1.7503v1.9688H33.2525z"/>
	</g>
	<g id="XMLID_39_">
		<path id="XMLID_83_" class="st1" d="M5.9887,37.7393v-3.9702h1.9764c0.0223,0.7262,0.2125,1.26,0.5696,1.6035
			c0.3577,0.3435,0.7653,0.5153,1.223,0.5153c0.3577,0,0.6588-0.1239,0.9045-0.3729c0.2457-0.2479,0.3691-0.5403,0.3691-0.8751
			c0-0.3566-0.1207-0.6577-0.3604-0.9001c-0.2403-0.2435-0.6789-0.5196-1.3165-0.8306c-1.348-0.6479-2.2628-1.2219-2.7444-1.7198
			c-0.481-0.4979-0.7218-1.1686-0.7218-2.0133c0-1.0175,0.318-1.8068,0.955-2.3667c0.6365-0.5588,1.3594-0.8382,2.1693-0.8382
			c0.9268,0,1.6443,0.3609,2.1525,1.0839v-0.9675h1.9682v3.544H11.165c-0.0614-0.5479-0.25-0.9708-0.5653-1.2698
			c-0.3158-0.2979-0.6827-0.4479-1.1012-0.4479c-0.324,0-0.5979,0.087-0.8213,0.2598c-0.2234,0.1729-0.3348,0.399-0.3348,0.6784
			c0,0.2403,0.0919,0.4675,0.2761,0.6827c0.1843,0.2152,0.724,0.5196,1.6182,0.9143c0.861,0.3838,1.5214,0.7305,1.9818,1.0404
			c0.4599,0.3098,0.8235,0.7121,1.0915,1.2067c0.2674,0.4946,0.4017,1.0665,0.4017,1.7144c0,1.1523-0.3354,2.0177-1.0056,2.5993
			c-0.6697,0.5816-1.4627,0.8719-2.3786,0.8719c-1.0219,0-1.809-0.3783-2.3623-1.1349v0.9925H5.9887z"/>
		<path id="XMLID_85_" class="st1" d="M16.4674,37.7393v-1.9688h1.7503v-7.7142h-1.7503v2.7134h-2.0019v-4.6822H25.028v4.6822
			H23.051v-2.7134h-1.8008v7.7142h1.7503v1.9688H16.4674z"/>
		<path id="XMLID_87_" class="st1" d="M32.3703,25.9038c2.0106,0,3.5918,0.5805,4.7453,1.7426
			c1.1529,1.161,1.7296,2.5765,1.7296,4.2463c0,1.6752-0.5778,3.0918-1.734,4.2506c-1.1556,1.1589-2.7363,1.7383-4.7409,1.7383
			c-2.0829,0-3.6826-0.5957-4.7996-1.7883c-1.1165-1.1926-1.6752-2.5928-1.6752-4.2006c0-1.6644,0.574-3.0787,1.7214-4.243
			C28.7644,26.4855,30.3488,25.9038,32.3703,25.9038z M32.3703,28.0313c-0.8936,0-1.6513,0.3348-2.2742,1.0056
			c-0.6224,0.6697-0.9338,1.6524-0.9338,2.9483c0,1.1447,0.3071,2.0601,0.9213,2.7471s1.3768,1.0306,2.2867,1.0306
			c0.8936,0,1.653-0.337,2.2786-1.0099c0.6251-0.6729,0.9382-1.6426,0.9382-2.9102c0-1.1339-0.299-2.0525-0.8963-2.7558
			C34.0929,28.3836,33.3199,28.0313,32.3703,28.0313z"/>
		<path id="XMLID_90_" class="st1" d="M51.7933,35.7705v1.9688h-3.5494l-2.6308-5.1008h-1.3333v3.132h1.4573v1.9688h-6.0895v-1.9688
			h1.6002v-7.7142h-1.6002v-1.9688h7.0277c1.3236,0,2.277,0.3337,2.8607,1.0012c0.5832,0.6675,0.8751,1.423,0.8751,2.2656
			c0,1.3241-0.6729,2.2895-2.0188,2.8983l1.8932,3.5179H51.7933z M44.2797,30.7785h1.0387c1.2844,0,1.9264-0.4577,1.9264-1.373
			c0-0.4522-0.1468-0.7903-0.4397-1.0143c-0.293-0.2229-0.6968-0.3348-1.2105-0.3348h-1.3149V30.7785z"/>
		<path id="XMLID_93_" class="st1" d="M63.2396,35.7705v1.9688h-5.7291v-1.9688h1.491l-0.5533-2.0014h-3.0233l-0.6202,2.0014h1.5578
			v1.9688H51.203v-1.9688h1.4404l2.2704-7.7142h-1.5497v-1.9688h7.6055v1.9688h-1.5665l2.446,7.7142H63.2396z M57.9708,32.0602
			l-0.9713-3.5092l-1.0474,3.5092H57.9708z"/>
		<path id="XMLID_96_" class="st1" d="M70.7276,33.8278v-1.9688h5.4611c0,1.4133-0.2555,2.533-0.7664,3.3592
			c-0.5109,0.8262-1.254,1.4774-2.228,1.9514c-0.9746,0.4751-2.0677,0.7121-3.2793,0.7121c-2.1052,0-3.7207-0.5642-4.8458-1.6916
			c-1.1252-1.1284-1.6877-2.5602-1.6877-4.2974c0-1.2067,0.2794-2.271,0.8376-3.195c0.5582-0.9251,1.3094-1.6209,2.253-2.0905
			c0.9436-0.4685,1.9688-0.7034,3.0744-0.7034c1.5633,0,2.7808,0.3794,3.6516,1.1393v-0.9556h1.9769v4.1387h-1.9769
			c-0.2066-0.6979-0.6169-1.248-1.2312-1.6502s-1.273-0.6033-1.9769-0.6033c-0.9268,0-1.7171,0.3283-2.3705,0.9838
			c-0.6534,0.6566-0.98,1.5654-0.98,2.7265c0,1.3295,0.3327,2.3417,0.9969,3.0363c0.6648,0.6958,1.4741,1.0436,2.4292,1.0436
			c0.7039,0,1.2871-0.1707,1.7508-0.5109c0.4631-0.3414,0.7844-0.8153,0.9632-1.4241H70.7276z"/>
		<path id="XMLID_98_" class="st1" d="M77.1938,37.7393v-1.9688h1.3986v-7.7142h-1.3986v-1.9688h10.2689v3.694h-2.228v-1.7253
			h-3.6098v2.6884h2.9146v1.9688h-2.9146v3.057h3.6098V34.029h2.228v3.7103H77.1938z"/>
	</g>
	<g id="XMLID_38_">
		<polygon id="XMLID_152_" class="st1" points="102.4734,23.2902 102.4734,17.314 107.6483,20.3027 112.8245,23.2902 
			107.6483,26.2789 102.4734,29.2664 		"/>
	</g>
</g>
</svg>
