<?xml version="1.0" encoding="utf-8"?>
<!-- Generator: Adobe Illustrator 19.0.0, SVG Export Plug-In . SVG Version: 6.00 Build 0)  -->
<svg version="1.1" id="Layer_1" xmlns="http://www.w3.org/2000/svg" xmlns:xlink="http://www.w3.org/1999/xlink" x="0px" y="0px"
	 viewBox="0 0 160 91.4285" style="enable-background:new 0 0 160 91.4285;" xml:space="preserve">
<style type="text/css">
	.st0{fill-rule:evenodd;clip-rule:evenodd;fill:#FCD800;}
	.st1{fill:#010101;}
</style>
<g id="XMLID_42_">
	<g id="XMLID_148_">
		<rect id="XMLID_201_" class="st0" width="160" height="91.4285"/>
	</g>
	<g id="XMLID_124_">
		<path id="XMLID_146_" class="st1" d="M11.9591,38.5444v-2.9401h2.0892V24.0814h-2.0892v-2.9409H27.298v5.5179h-3.3278v-2.577
			h-5.3925v4.0156h4.3537v2.9409h-4.3537v4.5665h5.3925v-2.6027h3.3278v5.5428H11.9591z"/>
		<path id="XMLID_144_" class="st1" d="M33.9918,38.7198l-4.0915-9.4968h-1.7514v-2.7898h7.3441v2.7898h-1.5056l1.8974,5.5128
			L38.11,29.223h-1.5911v-2.7898h6.4184v2.7898h-1.7265l-3.9286,9.4968H33.9918z"/>
		<path id="XMLID_141_" class="st1" d="M52.8936,34.8913l3.0029,0.9632c-1.2595,1.977-3.2281,2.9651-5.9056,2.9651
			c-2.1354,0-3.8013-0.5626-4.9982-1.6887c-1.1972-1.126-1.7954-2.6071-1.7954-4.4418c0-1.8684,0.6169-3.428,1.8515-4.6794
			c1.2346-1.2515,2.8066-1.8765,4.7168-1.8765c1.3846,0,2.5814,0.3499,3.5908,1.0505c1.0094,0.7006,1.7099,1.5728,2.102,2.6152
			c0.3921,1.0431,0.588,2.2066,0.588,3.4911h-9.0207c0.0583,1.1004,0.4064,1.8809,1.0446,2.3393
			c0.6382,0.4585,1.3116,0.6881,2.0206,0.6881C51.0168,36.3173,51.951,35.842,52.8936,34.8913z M52.1557,31.1376
			c-0.0899-0.6756-0.3543-1.2515-0.793-1.7268c-0.439-0.4754-1.038-0.713-1.7972-0.713c-1.418,0-2.2436,0.8135-2.4773,2.4398
			H52.1557z"/>
		<path id="XMLID_139_" class="st1" d="M65.8367,35.7547v2.7898h-8.5204v-2.7898h2.2396V29.223h-2.102v-2.7898h5.643v3.0781
			c0.2168-0.8839,0.7108-1.6498,1.4825-2.2961c0.7713-0.6463,1.6828-0.9698,2.7336-0.9698c0.1753,0,0.3837,0.0044,0.6257,0.0125
			v3.6539c-0.976,0-1.7727,0.1078-2.3896,0.325c-0.6177,0.2171-1.126,0.6925-1.5266,1.4261
			c-0.4005,0.7343-0.6004,1.6014-0.6004,2.6027v1.4891H65.8367z"/>
		<path id="XMLID_137_" class="st1" d="M71.279,44.0117V41.222h2.3272l0.8066-2.1538L70.003,29.223h-1.7518v-2.7898h7.2568v2.7898
			h-1.4264l2.0166,5.4541l2.1497-5.4541h-1.5764v-2.7898H83.04v2.7898h-1.7268l-5.8051,14.7887H71.279z"/>
		<path id="XMLID_135_" class="st1" d="M83.8278,29.223v-2.7898h1.539v-1.9014l3.8659-2.778v4.6794h2.2271v2.7898h-2.2271v5.2531
			c0,0.4761,0.0609,0.7959,0.1819,0.9588c0.1203,0.1628,0.3976,0.2443,0.8319,0.2443c0.3587,0,0.7629-0.0829,1.2133-0.2501v2.6775
			c-0.9925,0.4086-1.9645,0.6133-2.9152,0.6133c-2.1185,0-3.1778-1.0527-3.1778-3.1573V29.223H83.8278z"/>
		<path id="XMLID_133_" class="st1" d="M92.8617,38.5444v-2.7898h1.952V23.931h-1.952v-2.7905h5.8055v6.2683
			c1.2177-0.8502,2.365-1.2757,3.4404-1.2757c2.4773,0,3.7163,1.4884,3.7163,4.4667v5.1548h1.7767v2.7898h-5.6426v-7.77
			c0-0.567-0.1027-0.9566-0.3066-1.1693c-0.2047-0.2127-0.5113-0.3191-0.9199-0.3191c-0.5751,0-1.2632,0.2545-2.0643,0.7629v5.7057
			h1.7268v2.7898H92.8617z"/>
		<path id="XMLID_130_" class="st1" d="M109.2518,29.223v-2.7898h5.705v9.3215h1.8016v2.7898h-7.5066v-2.7898h1.8391V29.223
			H109.2518z M110.953,22.9613c0-0.5825,0.2069-1.0813,0.6199-1.4972c0.4123-0.4152,0.9111-0.6235,1.495-0.6235
			c0.592,0,1.0923,0.2083,1.5016,0.6235c0.4079,0.4159,0.6125,0.9148,0.6125,1.4972c0,0.5825-0.2061,1.0791-0.6191,1.4906
			c-0.413,0.4123-0.9111,0.6177-1.495,0.6177c-0.5759,0-1.0717-0.2076-1.4891-0.6235
			C111.1613,24.0301,110.953,23.5349,110.953,22.9613z"/>
		<path id="XMLID_128_" class="st1" d="M118.1603,29.223v-2.7898h5.7182v1.126c1.1671-0.8759,2.3518-1.3138,3.5527-1.3138
			c2.4443,0,3.6664,1.5603,3.6664,4.6794v4.8298h1.8266v2.7898h-5.6925v-7.332c0-0.6587-0.0902-1.1092-0.2692-1.3512
			c-0.1797-0.2413-0.4739-0.3624-0.8825-0.3624c-0.7174,0-1.451,0.2626-2.2014,0.7879v5.468h1.864v2.7898h-7.5822v-2.7898h1.8515
			V29.223H118.1603z"/>
		<path id="XMLID_125_" class="st1" d="M148.4669,26.4332v2.7898h-2.0019v8.9532c0,3.9987-2.1105,5.9984-6.3314,5.9984
			c-2.4186,0-4.2202-0.4379-5.4049-1.3138l1.8772-2.5646c0.9756,0.6001,1.9557,0.9008,2.9401,0.9008
			c0.859,0,1.5823-0.2215,2.1706-0.6631c0.5883-0.4423,0.8818-1.3013,0.8818-2.5778v-0.9258
			c-1.2595,1.126-2.4853,1.6894-3.6781,1.6894c-1.4011,0-2.5961-0.5861-3.5849-1.7584c-0.9881-1.1715-1.4825-2.6665-1.4825-4.485
			c0-1.8266,0.5091-3.3216,1.5266-4.4858c1.0175-1.1634,2.2601-1.7452,3.7287-1.7452c1.4092,0,2.5726,0.5582,3.4903,1.6733v-1.4855
			H148.4669z M142.6108,32.5262c0-0.9756-0.2164-1.7474-0.6507-2.3144c-0.4335-0.567-1.0255-0.8509-1.776-0.8509
			c-0.768,0-1.3534,0.292-1.7584,0.8759c-0.4042,0.5839-0.6067,1.3344-0.6067,2.2521s0.2105,1.6659,0.6316,2.2462
			c0.4211,0.5795,0.9991,0.8693,1.7334,0.8693c0.6756,0,1.2485-0.2692,1.7202-0.8069
			C142.3754,34.2589,142.6108,33.5026,142.6108,32.5262z"/>
	</g>
	<g id="XMLID_106_">
		<path id="XMLID_122_" class="st1" d="M30.0786,74.3352v-3.1529c0.4922,0.1423,0.9261,0.2127,1.3013,0.2127
			c0.6921,0,1.1887-0.1915,1.4888-0.5751c0.3004-0.3837,0.4504-1.0593,0.4504-2.0268V54.8304h-2.5899v-2.9409h9.4839v2.9409h-2.3647
			v14.1249c0,1.9352-0.4691,3.3678-1.4077,4.298c-0.9382,0.9302-2.1875,1.3952-3.7471,1.3952
			C31.9095,74.6485,31.0377,74.5443,30.0786,74.3352z"/>
		<path id="XMLID_120_" class="st1" d="M55.6302,66.5037v2.7898h-5.8179v-1.0321c-1.1594,0.8047-2.3353,1.2075-3.5281,1.2075
			c-1.1678,0-2.0833-0.3279-2.7465-0.9837s-0.9944-1.5801-0.9944-2.7751v-5.738h-1.8145v-2.7898h5.6679v7.5447
			c0,0.6001,0.0917,1.0109,0.2751,1.2324c0.1834,0.2208,0.5172,0.3316,1.001,0.3316c0.6507,0,1.3637-0.2883,2.1395-0.8634V59.972
			h-1.864v-2.7898h5.7303v9.3214H55.6302z"/>
		<path id="XMLID_118_" class="st1" d="M57.7447,69.2934v-4.1667h2.8275c0.0253,0.5678,0.2879,1.0197,0.7886,1.3578
			c0.5003,0.3374,1.1176,0.5069,1.8515,0.5069c0.6338,0,1.1279-0.1108,1.4825-0.3316c0.3547-0.2208,0.5318-0.5025,0.5318-0.8451
			c0-0.3162-0.1625-0.5626-0.4878-0.738c-0.3253-0.1753-0.9635-0.3418-1.9142-0.5018c-1.9601-0.3184-3.3737-0.8003-4.2415-1.4466
			c-0.8674-0.6463-1.3013-1.5031-1.3013-2.5697c0-1.0006,0.4086-1.8449,1.2262-2.5323c0.8176-0.6881,1.9018-1.0321,3.253-1.0321
			c1.0927,0,2.1145,0.2025,3.0652,0.6067v-0.4189h2.7652v3.516h-2.7652c-0.2501-0.8429-1.1345-1.2639-2.6522-1.2639
			c-1.118,0-1.6766,0.3088-1.6766,0.9258c0,0.234,0.1144,0.4108,0.344,0.5318c0.2292,0.121,0.815,0.2648,1.758,0.4313
			c1.4928,0.2589,2.6104,0.5172,3.3528,0.7754c0.7424,0.2589,1.3369,0.6866,1.7829,1.283c0.4464,0.5964,0.6694,1.3116,0.6694,2.1457
			c0,1.1847-0.4233,2.1538-1.2698,2.9093c-0.8465,0.7548-2.0456,1.1319-3.597,1.1319c-1.4433,0-2.4314-0.2942-2.9655-0.8818v0.6067
			H57.7447z"/>
		<path id="XMLID_116_" class="st1" d="M69.524,59.972v-2.7898h1.539v-1.9014l3.8663-2.778v4.6794h2.2268v2.7898h-2.2268v5.2531
			c0,0.4761,0.0602,0.7959,0.1812,0.9588c0.121,0.1628,0.3983,0.2443,0.8322,0.2443c0.3583,0,0.7629-0.0829,1.2133-0.2502v2.6775
			c-0.9925,0.4086-1.9641,0.6133-2.9152,0.6133c-2.1185,0-3.1778-1.0527-3.1778-3.1573V59.972H69.524z"/>
		<path id="XMLID_114_" class="st1" d="M84.9883,69.2934v-2.9401h2.4897V54.8304h-2.4897v-2.9409h15.5773v5.3675h-3.3282v-2.4266
			h-5.2296v4.028h3.7654v2.9409h-3.7654v4.554h2.6768v2.9401H84.9883z"/>
		<path id="XMLID_111_" class="st1" d="M101.2765,59.972v-2.7898h5.705v9.3214h1.8016v2.7898h-7.5066v-2.7898h1.8391V59.972
			H101.2765z M102.9776,53.7102c0-0.5825,0.2069-1.0813,0.6199-1.4972c0.4123-0.4152,0.9111-0.6235,1.495-0.6235
			c0.592,0,1.0923,0.2083,1.5016,0.6235c0.4079,0.4159,0.6125,0.9148,0.6125,1.4972c0,0.5825-0.2061,1.0791-0.6191,1.4906
			c-0.413,0.4123-0.9111,0.6177-1.495,0.6177c-0.5759,0-1.0717-0.2076-1.4891-0.6235
			C103.186,54.779,102.9776,54.2839,102.9776,53.7102z"/>
		<path id="XMLID_109_" class="st1" d="M108.5036,59.972v-2.7898h1.539v-1.9014l3.8659-2.778v4.6794h2.2271v2.7898h-2.2271v5.2531
			c0,0.4761,0.0609,0.7959,0.1819,0.9588c0.1203,0.1628,0.3976,0.2443,0.8319,0.2443c0.3587,0,0.7629-0.0829,1.2133-0.2502v2.6775
			c-0.9925,0.4086-1.9645,0.6133-2.9152,0.6133c-2.1185,0-3.1778-1.0527-3.1778-3.1573V59.972H108.5036z"/>
		<path id="XMLID_107_" class="st1" d="M118.3253,69.2934v-4.1667h2.8272c0.0249,0.5678,0.2883,1.0197,0.7886,1.3578
			c0.5003,0.3374,1.1172,0.5069,1.8515,0.5069c0.6338,0,1.1282-0.1108,1.4825-0.3316c0.3543-0.2208,0.5318-0.5025,0.5318-0.8451
			c0-0.3162-0.1628-0.5626-0.4878-0.738c-0.3257-0.1753-0.9632-0.3418-1.9139-0.5018c-1.9601-0.3184-3.3744-0.8003-4.2415-1.4466
			c-0.8678-0.6463-1.3014-1.5031-1.3014-2.5697c0-1.0006,0.4086-1.8449,1.2258-2.5323c0.8172-0.6881,1.9021-1.0321,3.2534-1.0321
			c1.0923,0,2.1141,0.2025,3.0648,0.6067v-0.4189h2.7655v3.516h-2.7655c-0.2501-0.8429-1.1341-1.2639-2.6526-1.2639
			c-1.1172,0-1.6762,0.3088-1.6762,0.9258c0,0.234,0.1144,0.4108,0.344,0.5318c0.2296,0.121,0.815,0.2648,1.7576,0.4313
			c1.4935,0.2589,2.6108,0.5172,3.3531,0.7754c0.7424,0.2589,1.3366,0.6866,1.7833,1.283c0.446,0.5964,0.669,1.3116,0.669,2.1457
			c0,1.1847-0.4233,2.1538-1.2698,2.9093c-0.8465,0.7548-2.0459,1.1319-3.5974,1.1319c-1.4429,0-2.431-0.2942-2.9651-0.8818v0.6067
			H118.3253z"/>
	</g>
</g>
</svg>
