<svg xmlns="http://www.w3.org/2000/svg" viewBox="0 0 44.5 11.09"><defs><style>.cls-1{fill:#fff;}</style></defs><title>logo-300x250</title><g id="Layer_2" data-name="Layer 2"><g id="Layer_1-2" data-name="Layer 1"><g id="_Group_" data-name="&lt;Group&gt;"><g id="thicker"><path id="_Compound_Path_" data-name="&lt;Compound Path&gt;" class="cls-1" d="M10.87,2A2.3,2.3,0,0,1,12,2.27V3a2.14,2.14,0,0,0-1.09-.37.83.83,0,0,0-.45.11.38.38,0,0,0-.16.3.51.51,0,0,0,.3.41c.06,0,.28.14.66.32a1.89,1.89,0,0,1,.7.51,1.07,1.07,0,0,1,.21.67,1,1,0,0,1-.37.82,1.42,1.42,0,0,1-.94.31A2.46,2.46,0,0,1,10.19,6a3.29,3.29,0,0,1-.61-.29V4.91a1.88,1.88,0,0,0,1.19.52.79.79,0,0,0,.45-.12A.39.39,0,0,0,11.39,5a.52.52,0,0,0-.3-.45l-.64-.32a1.91,1.91,0,0,1-.69-.49,1,1,0,0,1-.23-.66,1,1,0,0,1,.37-.79A1.48,1.48,0,0,1,10.87,2Z"/><path id="_Compound_Path_2" data-name="&lt;Compound Path&gt;" class="cls-1" d="M15,2V3.86h0L16.44,2h.87L15.84,3.89,17.74,6h-1L15,4V6h-.76V2Z"/><path id="_Compound_Path_3" data-name="&lt;Compound Path&gt;" class="cls-1" d="M20.3,2l.95,1.31,1-1.31h.9L21.63,4V6h-.76V4l-1.5-2Z"/><path id="_Compound_Path_4" data-name="&lt;Compound Path&gt;" class="cls-1" d="M26.33,2V5.38h1.91V6H25.57V2Z"/><path id="_Compound_Path_5" data-name="&lt;Compound Path&gt;" class="cls-1" d="M31.39,2V5.38H33.3V6H30.63V2Z"/><path id="_Compound_Path_6" data-name="&lt;Compound Path&gt;" class="cls-1" d="M38,2v.59H36.22v1h1.71v.59H36.22V5.38h1.83V6H35.46V2Z"/><path id="_Compound_Path_7" data-name="&lt;Compound Path&gt;" class="cls-1" d="M41.41,2l2.34,2.75V2h.75V6h-.66l-2.35-2.8V6h-.75V2Z"/></g><g id="_Group_2" data-name="&lt;Group&gt;"><path id="_Compound_Path_8" data-name="&lt;Compound Path&gt;" class="cls-1" d="M25.57,10.31V7.83h.7a.9.9,0,0,1,.6.18.59.59,0,0,1,.22.49.62.62,0,0,1-.22.5.94.94,0,0,1-.62.18h-.43v1.13ZM26.24,9a.7.7,0,0,0,.44-.12.41.41,0,0,0,.15-.34.4.4,0,0,0-.15-.33.62.62,0,0,0-.42-.12h-.44V9Z"/><path id="_Compound_Path_9" data-name="&lt;Compound Path&gt;" class="cls-1" d="M30.17,10.31l-.4-.86-1.16,0-.36.84H28l1.15-2.48h.13l1.16,2.48Zm-.49-1.06-.48-1-.47,1Z"/><path id="_Path_" data-name="&lt;Path&gt;" class="cls-1" d="M32.73,10.34a1.31,1.31,0,0,1-.94-.36,1.21,1.21,0,0,1-.37-.91,1.24,1.24,0,0,1,.38-.91,1.3,1.3,0,0,1,.92-.36,2,2,0,0,1,.85.2v.27h0A1.84,1.84,0,0,0,32.7,8a1,1,0,0,0-.73.3,1,1,0,0,0-.29.74,1,1,0,0,0,.3.74,1,1,0,0,0,.75.29,1.8,1.8,0,0,0,.84-.24l0,0v.24A1.74,1.74,0,0,1,32.73,10.34Z"/><rect id="_Path_2" data-name="&lt;Path&gt;" class="cls-1" x="35.24" y="7.83" width="0.25" height="2.48"/><polygon id="_Path_3" data-name="&lt;Path&gt;" class="cls-1" points="37.46 10.31 37.46 7.83 38.77 7.83 38.77 8.05 37.71 8.05 37.71 8.9 38.66 8.9 38.66 9.12 37.71 9.12 37.71 10.31 37.46 10.31"/><rect id="_Path_4" data-name="&lt;Path&gt;" class="cls-1" x="40.36" y="7.83" width="0.25" height="2.48"/><path id="_Path_5" data-name="&lt;Path&gt;" class="cls-1" d="M43.61,10.34a1.31,1.31,0,0,1-.94-.36,1.27,1.27,0,0,1,0-1.82,1.28,1.28,0,0,1,.91-.36,1.92,1.92,0,0,1,.85.2v.27h0A1.84,1.84,0,0,0,43.58,8a1,1,0,0,0-.73.3,1,1,0,0,0-.29.74,1,1,0,0,0,1,1,1.83,1.83,0,0,0,.84-.24l0,0v.24A1.74,1.74,0,0,1,43.61,10.34Z"/></g><g id="_Group_3" data-name="&lt;Group&gt;"><path id="_Compound_Path_10" data-name="&lt;Compound Path&gt;" class="cls-1" d="M3.77,3.78H3.18v7.31h.59Z"/><polygon id="_Path_6" data-name="&lt;Path&gt;" class="cls-1" points="6.33 2.33 3.47 0.68 0.59 2.31 0.59 9.4 0 9.4 0 1.96 3.48 0 6.92 1.99 6.92 9.39 6.33 9.39 6.33 2.33"/></g></g></g></g></svg>