<svg xmlns="http://www.w3.org/2000/svg" viewBox="0 0 114.59 7.97"><defs><style>.cls-1{fill:#fff;}</style></defs><title>t1b-300x250</title><g id="Layer_2" data-name="Layer 2"><g id="Layer_1-2" data-name="Layer 1"><path class="cls-1" d="M0,7.9V.07H1.19V7.9Z"/><path class="cls-1" d="M8,7.9,4.42,2.39V7.9H3.23V.07H4.32l3.62,5.5V.07H9.13V7.9Z"/><path class="cls-1" d="M18.62,7.9,15,2.39V7.9H13.82V.07H14.9l3.62,5.5V.07h1.19V7.9Z"/><path class="cls-1" d="M21.76,7.9V.07h5V1.13H23V3.42H26.2V4.48H23V6.83h3.81V7.9Z"/><path class="cls-1" d="M34.78,7.9h-1l-1.6-5.49L30.57,7.9h-1L27.49.07h1.25l1.37,5.6L31.68.07h1l1.57,5.6L35.57.07h1.26Z"/><path class="cls-1" d="M47,7.9H46l-1.6-5.49L42.79,7.9h-1l-2-7.83H41l1.37,5.6L43.9.07h1l1.57,5.6L47.79.07h1.26Z"/><path class="cls-1" d="M50.19,7.9V.07h5V1.13H51.38V3.42h3.26V4.48H51.38V6.83H55.2V7.9Z"/><path class="cls-1" d="M58.9,8a3.57,3.57,0,0,1-2.77-1l.78-.78a2.66,2.66,0,0,0,2,.76c1,0,1.61-.44,1.61-1.21a1,1,0,0,0-.3-.82,1.67,1.67,0,0,0-.86-.33l-.93-.13A2.66,2.66,0,0,1,57,3.8a1.94,1.94,0,0,1-.58-1.51A2.3,2.3,0,0,1,59,0a3.24,3.24,0,0,1,2.44.89l-.75.75A2.36,2.36,0,0,0,59,1c-.92,0-1.42.51-1.42,1.23a.9.9,0,0,0,.29.72,1.46,1.46,0,0,0,.86.35l.93.15a2.51,2.51,0,0,1,1.45.58,2.09,2.09,0,0,1,.64,1.61C61.72,7.11,60.55,8,58.9,8Z"/><path class="cls-1" d="M66,1.13V7.9H64.78V1.13H62.62V.07h5.5V1.13Z"/><path class="cls-1" d="M75.2,7.9V2.66L73.39,6.48h-.88L70.66,2.66V7.9H69.47V.07h1.19L73,4.94,75.2.07h1.18V7.9Z"/><path class="cls-1" d="M78.42,7.9V.07h1.19V7.9Z"/><path class="cls-1" d="M86.46,7.9,82.84,2.39V7.9H81.65V.07h1.09l3.62,5.5V.07h1.19V7.9Z"/><path class="cls-1" d="M91.67,8a3.57,3.57,0,0,1-2.77-1l.78-.78a2.64,2.64,0,0,0,2,.76c1,0,1.61-.44,1.61-1.21A1,1,0,0,0,93,4.88a1.59,1.59,0,0,0-.85-.33l-.93-.13a2.63,2.63,0,0,1-1.47-.62,1.94,1.94,0,0,1-.58-1.51A2.3,2.3,0,0,1,91.78,0a3.22,3.22,0,0,1,2.43.89l-.74.75A2.36,2.36,0,0,0,91.74,1c-.93,0-1.42.51-1.42,1.23a.9.9,0,0,0,.29.72,1.43,1.43,0,0,0,.85.35l.94.15a2.54,2.54,0,0,1,1.45.58,2.09,2.09,0,0,1,.64,1.61C94.49,7.11,93.32,8,91.67,8Z"/><path class="cls-1" d="M98.73,1.13V7.9H97.55V1.13H95.39V.07h5.5V1.13Z"/><path class="cls-1" d="M102.24,7.9V.07h5V1.13h-3.82V3.42h3.26V4.48h-3.26V6.83h3.82V7.9Z"/><path class="cls-1" d="M113.2,7.9l-1.65-3.3h-1.49V7.9h-1.18V.07h3a2.23,2.23,0,0,1,2.43,2.28,2,2,0,0,1-1.56,2.08l1.81,3.47Zm-1.37-6.77h-1.77V3.59h1.77a1.19,1.19,0,0,0,1.33-1.22A1.21,1.21,0,0,0,111.83,1.13Z"/></g></g></svg>