<svg xmlns="http://www.w3.org/2000/svg" viewBox="0 0 70.58 7.97"><defs><style>.cls-1{fill:#f5811f;}</style></defs><title>t2-300x250</title><g id="Layer_2" data-name="Layer 2"><g id="Layer_1-2" data-name="Layer 1"><path class="cls-1" d="M2.82,8a2.74,2.74,0,0,1-2-.8C0,6.4,0,5.62,0,4S0,1.56.79.79a2.77,2.77,0,0,1,2-.79A2.71,2.71,0,0,1,5.61,2.41H4.4A1.56,1.56,0,0,0,2.82,1.06a1.53,1.53,0,0,0-1.16.48c-.4.42-.47.89-.47,2.44s.07,2,.47,2.44a1.54,1.54,0,0,0,1.16.49,1.58,1.58,0,0,0,1.6-1.35H5.61A2.71,2.71,0,0,1,2.82,8Z"/><path class="cls-1" d="M11.64,7.17a2.74,2.74,0,0,1-2,.8,2.73,2.73,0,0,1-2-.8C6.82,6.4,6.8,5.62,6.8,4s0-2.42.79-3.19a2.77,2.77,0,0,1,2-.79,2.77,2.77,0,0,1,2,.79c.77.77.79,1.55.79,3.19S12.41,6.4,11.64,7.17Zm-.86-5.63a1.65,1.65,0,0,0-2.33,0C8.06,2,8,2.43,8,4s.07,2,.46,2.43a1.61,1.61,0,0,0,2.33,0c.4-.4.46-.88.46-2.43S11.18,2,10.78,1.54Z"/><path class="cls-1" d="M19.91,7.9V2.66l-1.8,3.82h-.88L15.38,2.66V7.9H14.19V.07h1.19l2.29,4.87L19.91.07H21.1V7.9Z"/><path class="cls-1" d="M23.13,7.9V.07h1.19V7.9Z"/><path class="cls-1" d="M31.17,7.9,27.55,2.39V7.9H26.37V.07h1.09l3.62,5.5V.07h1.18V7.9Z"/><path class="cls-1" d="M39,7.07a2.89,2.89,0,0,1-2.16.9,2.74,2.74,0,0,1-2-.8C34.06,6.4,34,5.62,34,4s0-2.42.79-3.19a2.77,2.77,0,0,1,2-.79,2.75,2.75,0,0,1,2.84,2.42H38.49a1.68,1.68,0,0,0-2.82-.88c-.38.42-.46.89-.46,2.44s.08,2,.46,2.44a1.59,1.59,0,0,0,1.17.49,1.67,1.67,0,0,0,1.29-.56,1.79,1.79,0,0,0,.38-1.23V4.68H36.84v-1H39.7v1.2A3,3,0,0,1,39,7.07Z"/><path class="cls-1" d="M46.17,8a3.58,3.58,0,0,1-2.78-1l.78-.78a2.67,2.67,0,0,0,2,.76c1,0,1.62-.44,1.62-1.21a1,1,0,0,0-.31-.82,1.63,1.63,0,0,0-.86-.33l-.92-.13a2.66,2.66,0,0,1-1.48-.62,2,2,0,0,1-.58-1.51c0-1.37,1-2.29,2.62-2.29a3.24,3.24,0,0,1,2.43.89L48,1.64A2.35,2.35,0,0,0,46.23,1c-.92,0-1.42.51-1.42,1.23A.9.9,0,0,0,45.1,3a1.46,1.46,0,0,0,.86.35l.93.15a2.51,2.51,0,0,1,1.45.58A2.09,2.09,0,0,1,49,5.67C49,7.11,47.82,8,46.17,8Z"/><path class="cls-1" d="M55.13,7.17a2.7,2.7,0,0,1-2,.8,2.74,2.74,0,0,1-2-.8c-.77-.77-.79-1.55-.79-3.19s0-2.42.79-3.19a2.77,2.77,0,0,1,2-.79,2.73,2.73,0,0,1,2,.79c.77.77.79,1.55.79,3.19S55.9,6.4,55.13,7.17Zm-.86-5.63a1.54,1.54,0,0,0-1.16-.48,1.57,1.57,0,0,0-1.17.48c-.38.42-.46.89-.46,2.44s.08,2,.46,2.43a1.58,1.58,0,0,0,1.17.5,1.56,1.56,0,0,0,1.16-.5c.4-.4.47-.88.47-2.43S54.67,2,54.27,1.54Z"/><path class="cls-1" d="M62.13,7.17a3,3,0,0,1-4.05,0c-.77-.77-.79-1.55-.79-3.19s0-2.42.79-3.19a3,3,0,0,1,4.05,0c.77.77.79,1.55.79,3.19S62.9,6.4,62.13,7.17Zm-.86-5.63a1.57,1.57,0,0,0-1.17-.48,1.54,1.54,0,0,0-1.16.48c-.39.42-.46.89-.46,2.44s.07,2,.46,2.43a1.56,1.56,0,0,0,1.16.5,1.58,1.58,0,0,0,1.17-.5c.4-.4.46-.88.46-2.43S61.67,2,61.27,1.54Z"/><path class="cls-1" d="M69.49,7.9,65.87,2.39V7.9H64.68V.07h1.09l3.62,5.5V.07h1.19V7.9Z"/></g></g></svg>