<?xml version="1.0" encoding="utf-8"?>
<!-- Generator: Adobe Illustrator 23.0.4, SVG Export Plug-In . SVG Version: 6.00 Build 0)  -->
<svg version="1.1" id="Layer_1" xmlns="http://www.w3.org/2000/svg" xmlns:xlink="http://www.w3.org/1999/xlink" x="0px" y="0px"
	 viewBox="0 0 300 600" style="enable-background:new 0 0 300 600;" xml:space="preserve">
<style type="text/css">
	.st0{clip-path:url(#SVGID_2_);}
	.st1{fill:none;}
	.st2{clip-path:url(#SVGID_4_);}
	.st3{clip-path:url(#SVGID_6_);}
	.st4{clip-path:url(#SVGID_8_);}
	.st5{clip-path:url(#SVGID_10_);}
	.st6{clip-path:url(#SVGID_12_);}
	.st7{clip-path:url(#SVGID_14_);}
	.st8{clip-path:url(#SVGID_16_);}
	.st9{fill:#FFFFFF;}
	.st10{clip-path:url(#SVGID_18_);}
	.st11{clip-path:url(#SVGID_20_);}
</style>
<g>
	<defs>
		<rect id="SVGID_1_" width="300" height="600"/>
	</defs>
	<clipPath id="SVGID_2_">
		<use xlink:href="#SVGID_1_"  style="overflow:visible;"/>
	</clipPath>
	<g class="st0">
		<path class="st1" d="M-175.1-25.5h652.4v505h-652.4V-25.5z"/>
	</g>
</g>
<g>
	<defs>
		<rect id="SVGID_3_" width="300" height="600"/>
	</defs>
	<clipPath id="SVGID_4_">
		<use xlink:href="#SVGID_3_"  style="overflow:visible;"/>
	</clipPath>
	<g class="st2">
		<path class="st1" d="M-177.3-24.3H472v502.6h-649.3L-177.3-24.3z"/>
	</g>
</g>
<g>
	<defs>
		<rect id="SVGID_5_" width="300" height="600"/>
	</defs>
	<clipPath id="SVGID_6_">
		<use xlink:href="#SVGID_5_"  style="overflow:visible;"/>
	</clipPath>
	<g class="st3">
		<path class="st1" d="M-177.3-24.3H472v502.6h-649.3L-177.3-24.3z"/>
	</g>
</g>
<g>
	<defs>
		<rect id="SVGID_7_" width="300" height="600"/>
	</defs>
	<clipPath id="SVGID_8_">
		<use xlink:href="#SVGID_7_"  style="overflow:visible;"/>
	</clipPath>
	<g class="st4">
		<path class="st1" d="M-177.3-24.3H472v502.6h-649.3L-177.3-24.3z"/>
	</g>
</g>
<g>
	<defs>
		<rect id="SVGID_9_" width="300" height="600"/>
	</defs>
	<clipPath id="SVGID_10_">
		<use xlink:href="#SVGID_9_"  style="overflow:visible;"/>
	</clipPath>
	<g class="st5">
		<path class="st1" d="M-177.3-24.3H472v502.6h-649.3L-177.3-24.3z"/>
	</g>
</g>
<g>
	<defs>
		<rect id="SVGID_11_" width="300" height="600"/>
	</defs>
	<clipPath id="SVGID_12_">
		<use xlink:href="#SVGID_11_"  style="overflow:visible;"/>
	</clipPath>
	<g class="st6">
		<path class="st1" d="M-177.3-24.3H472v502.6h-649.3L-177.3-24.3z"/>
	</g>
</g>
<g>
	<defs>
		<rect id="SVGID_13_" width="300" height="600"/>
	</defs>
	<clipPath id="SVGID_14_">
		<use xlink:href="#SVGID_13_"  style="overflow:visible;"/>
	</clipPath>
	<g class="st7">
		<path class="st1" d="M-177.3-24.3H472v502.6h-649.3L-177.3-24.3z"/>
	</g>
</g>
<g>
	<defs>
		<rect id="SVGID_15_" width="300" height="600"/>
	</defs>
	<clipPath id="SVGID_16_">
		<use xlink:href="#SVGID_15_"  style="overflow:visible;"/>
	</clipPath>
	<g class="st8">
		<path class="st9" d="M117.1,327.3h-5.8l-1.1,2.7h-2.6l5.2-12.7h2.8l5.2,12.7h-2.7L117.1,327.3z M116.3,325.2l-1.9-5l-0.2-0.6
			l-0.1,0.6l-1.9,5H116.3z"/>
		<path class="st9" d="M125.4,317.3h2.1l6.8,8.7v-8.7h2.4V330h-2.1l-6.8-8.7v8.7h-2.4L125.4,317.3z"/>
		<path class="st9" d="M154.4,323.7c0,3.7-2.9,6.4-6.9,6.4H143v-12.7h4.6C151.6,317.3,154.4,320,154.4,323.7L154.4,323.7z
			 M152,323.7c0-2.5-1.8-4.1-4.4-4.1h-2.2v8.2h2.2C150.2,327.8,152,326.1,152,323.7z"/>
		<path class="st9" d="M177.7,326.4c0,2.2-1.7,3.6-4.5,3.6h-5.4v-12.7h5.1c2.7,0,4.4,1.4,4.4,3.5c0,1.3-0.7,2.4-1.8,2.7v0.1
			C176.8,323.9,177.7,325,177.7,326.4z M170.2,319.4v3.2h2.6c1.3,0,2-0.6,2-1.6s-0.7-1.6-2-1.6H170.2z M175.3,326.3
			c0-1.1-0.8-1.6-2.3-1.6h-2.7v3.3h2.8C174.5,327.9,175.3,327.3,175.3,326.3L175.3,326.3z"/>
		<path class="st9" d="M191.6,327.9v2.2h-8.8v-12.7h8.7v2.2h-6.3v3.1h5.9v2.1h-5.9v3.2h6.4L191.6,327.9z"/>
		<path class="st9" d="M93.5,352.3h-2.3v4.2h-2.4v-12.7h4.8c3.1,0,5,1.6,5,4.3c0,1.9-1.1,3.3-2.8,3.9l3.1,4.6H96L93.5,352.3z
			 M91.2,350.1h2.4c1.5,0,2.5-0.8,2.5-2c0-1.3-0.9-2-2.5-2h-2.5L91.2,350.1z"/>
		<path class="st9" d="M112.4,354.3v2.2h-8.8v-12.7h8.7v2.2H106v3.1h5.9v2.1H106v3.2h6.4L112.4,354.3z"/>
		<path class="st9" d="M116.9,343.8h2.6l2.7,9.1l0.1,0.8l0.1-0.8l2.5-9.1h2.4l2.5,9.1l0.1,0.8l0.1-0.8l2.7-9.1h2.5l-4,12.7h-2.5
			l-2.6-9.4l-0.1-0.7l-0.1,0.7l-2.6,9.4h-2.5L116.9,343.8z"/>
		<path class="st9" d="M146.1,353.8h-5.8l-1.1,2.7h-2.6l5.2-12.7h2.8l5.2,12.7h-2.7L146.1,353.8z M145.3,351.6l-1.9-5l-0.2-0.6
			l-0.1,0.6l-1.9,5H145.3z"/>
		<path class="st9" d="M159.2,352.3h-2.3v4.2h-2.4v-12.7h4.8c3.1,0,5,1.6,5,4.3c0,1.9-1.1,3.3-2.8,3.9l3.1,4.6h-2.9L159.2,352.3z
			 M156.9,350.1h2.4c1.5,0,2.5-0.8,2.5-2c0-1.3-0.9-2-2.5-2h-2.5v4H156.9z"/>
		<path class="st9" d="M180.8,350.1c0,3.7-2.9,6.4-6.9,6.4h-4.6v-12.7h4.6C178,343.8,180.8,346.4,180.8,350.1L180.8,350.1z
			 M178.4,350.1c0-2.5-1.8-4.1-4.4-4.1h-2.2v8.2h2.2C176.6,354.2,178.4,352.6,178.4,350.1z"/>
		<path class="st9" d="M195.1,354.3v2.2h-8.8v-12.7h8.7v2.2h-6.3v3.1h5.9v2.1h-5.9v3.2h6.4L195.1,354.3z"/>
		<path class="st9" d="M211.9,350.1c0,3.7-2.9,6.4-6.9,6.4h-4.6v-12.7h4.6C209,343.8,211.9,346.4,211.9,350.1L211.9,350.1z
			 M209.4,350.1c0-2.5-1.8-4.1-4.4-4.1h-2.2v8.2h2.2C207.6,354.2,209.4,352.6,209.4,350.1z"/>
	</g>
</g>
<g>
	<defs>
		<rect id="SVGID_17_" width="300" height="600"/>
	</defs>
	<clipPath id="SVGID_18_">
		<use xlink:href="#SVGID_17_"  style="overflow:visible;"/>
	</clipPath>
	<g class="st10">
		<path class="st1" d="M-1.5-8.6h303v252.5h-303V-8.6z"/>
	</g>
</g>
<g>
	<defs>
		<rect id="SVGID_19_" width="300" height="600"/>
	</defs>
	<clipPath id="SVGID_20_">
		<use xlink:href="#SVGID_19_"  style="overflow:visible;"/>
	</clipPath>
	<g class="st11">
		<path class="st1" d="M0,0h300v600H0V0z"/>
	</g>
</g>
</svg>
