<svg enable-background="new 0 0 300 600" viewBox="0 0 300 600" xmlns="http://www.w3.org/2000/svg" xmlns:xlink="http://www.w3.org/1999/xlink"><clipPath id="a"><path d="m0 0h300v600h-300z"/></clipPath><g clip-path="url(#a)"><path d="m-12.9-4.2h325.7v256h-325.7z" fill="#3ab9e0"/><path d="m-12.6-2.1h325.4v254.6h-325.4z" fill="none"/><path d="m135.1 65v7.4h-1.4l-.2-2.3c-1 1.7-2.9 2.6-4.8 2.5-3.8-.2-6.7-3.4-6.6-7.1.2-3.6 3-6.4 6.6-6.6 2.5-.1 4.8 1.2 5.9 3.4l-1.9.7c-.8-1.4-2.4-2.3-4-2.2-2.8 0-5 2.2-5 5s2.2 5 5 5c2.3.1 4.2-1.6 4.3-3.9v-.1h-4.6v-1.8z" fill="#fff"/><path d="m147.4 70.5v1.8h-9v-13.3h8.9v1.8h-6.9v4h6.5v1.8h-6.5v4h7z" fill="#fff"/><path d="m159.9 60.9h-4.5v11.4h-2v-11.4h-4.4v-1.9h11z" fill="#fff"/><path d="m175.4 69.2h-6.5l-1.3 3.2h-2.2l5.6-13.3h2.4l5.6 13.3h-2.2zm-.8-1.8-2.4-5.9-.2-.6-.1.6-2.4 5.9z" fill="#fff"/><path d="m61 100.1v2.2h-3.1v-2.3c-2-.5-3.6-2.1-4.1-4.1l3.6-1.1s.3 1.9 2 1.9c.9 0 1.6-.5 1.6-1.2s-.6-1.2-1.7-1.5l-1.4-.4c-2.5-.8-3.8-2.3-3.8-4.5-.1-2.3 1.6-4.3 3.8-4.6v-2.2h3.1v2.3c1.9.4 3.4 1.8 3.9 3.6l-3.7 1.3c-.1-.9-.9-1.6-1.8-1.6-.8 0-1.3.4-1.3 1.1s.6 1.2 1.8 1.5l1.6.5c2.4.8 3.7 2.3 3.7 4.4 0 2.5-1.6 4.3-4.2 4.7z" fill="#fff"/><path d="m73.4 87.8h-6.9v-3.8h11.8v3.1c-2.8 4.2-4.9 8.8-6.1 13.6h-4.6c1.3-4.5 3.2-8.9 5.8-12.9z" fill="#fff"/><path d="m91.5 95.3c0 3.3-2.5 5.6-6 5.6-3.1 0-5.2-1.5-5.9-4.3l3.8-1.1c.1 1 1 1.7 2 1.7 1 .1 1.8-.7 1.9-1.6 0-.1 0-.2 0-.3 0-1.2-.6-2-1.7-2-.7 0-1.4.4-1.6 1.1l-3.8-1.1.7-9.3h9.8v3.6h-6.3l-.3 3c.7-.6 1.6-.9 2.5-.8 2.9 0 4.9 2.3 4.9 5.5z" fill="#fff"/><path d="m99.7 96.3 3.8-1.1c.2 1.2 1.2 2.1 2.4 2.2 1.2 0 1.9-.6 1.9-1.5s-.6-1.5-2-1.8l-1.7-.5c-2.8-.8-4.2-2.5-4.2-5 0-3.2 2.3-5.2 5.9-5.2 5.1 0 6.1 4.1 6.1 4.1l-3.8 1.3c-.2-1.1-1.1-1.9-2.2-1.8-1 0-1.7.5-1.7 1.4s.7 1.4 2.2 1.8l1.8.6c2.7.8 4.1 2.5 4.1 4.9 0 3.3-2.5 5.3-6.3 5.3-3 .1-5.6-1.9-6.3-4.7z" fill="#fff"/><path d="m128.3 89.8c0 3.8-2.7 6.3-7 6.3h-2.2v4.7h-4.3v-17.2h6.6c4.3 0 6.9 2.3 6.9 6.2zm-4.4 0c0-1.4-.9-2.2-2.5-2.2h-2.2v4.4h2.2c1.6 0 2.5-.8 2.5-2.2z" fill="#fff"/><path d="m142 97.6h-6.8l-1.1 3.1h-4.7l6.7-17.2h5.1l6.6 17.2h-4.7zm-1.3-3.7-1.9-5.2-.2-.9-.2.9-1.9 5.2z" fill="#fff"/><path d="m164.6 87.3c-2.5-.1-4.5 1.9-4.6 4.4v.4c-.2 2.4 1.6 4.6 4 4.7h.5c1.9.1 3.6-1 4.2-2.8l4.1 1.6c-1.4 3.3-4.7 5.5-8.3 5.3-4.9 0-8.8-4-8.8-8.9s4-8.8 8.9-8.8c3.5-.1 6.7 1.9 8.1 5.1l-4.1 1.6c-.6-1.6-2.3-2.6-4-2.6z" fill="#fff"/><path d="m181.6 95.6h-2.1v5.2h-4.4v-17.2h6.7c4.4 0 7 2.3 7 6 .1 2.2-1.2 4.3-3.2 5.2l3.6 6h-5zm-2.1-4h2.4c1.6 0 2.5-.7 2.5-2s-.9-2-2.5-2h-2.5v4z" fill="#fff"/><path d="m203.8 96.9v3.9h-12.1v-17.2h12v3.8h-7.7v2.9h7.2v3.6h-7.2v3z" fill="#fff"/><path d="m222.6 92.1c0 5-4 8.6-9.4 8.6h-6.4v-17.1h6.5c5.3 0 9.3 3.5 9.3 8.5zm-4.5 0c0-2.8-2-4.5-5-4.5h-2.1v9h2.2c2.9 0 4.9-1.8 4.9-4.5z" fill="#fff"/><path d="m225.1 83.6h4.4v17.2h-4.4z" fill="#fff"/><path d="m246.6 87.6h-5.4v13.2h-4.3v-13.2h-5.4v-4h15.1z" fill="#fff"/><path d="m114.8 32.3.9-.3c.1.5.5.8 1 .8s.9-.2.9-.7c0-.4-.2-.6-.8-.8l-.6-.2c-.8-.1-1.3-.7-1.3-1.5 0-.9.7-1.5 1.8-1.5.8-.1 1.5.4 1.8 1.2l-.9.3c-.1-.4-.5-.7-.9-.6-.5 0-.8.2-.8.6s.3.6.8.8l.6.2c.7.1 1.3.8 1.3 1.5 0 1-.7 1.6-1.9 1.6-.8.1-1.6-.5-1.9-1.4z" fill="#304e6f"/><path d="m124.6 30.2c0 1-.8 1.9-1.8 1.9-.1 0-.2 0-.3 0h-.9v1.6h-1v-5.3h2c1-.1 1.9.6 2 1.6zm-1 0c0-.5-.4-.9-.9-.9h-.1-1v1.9h1c.5-.1.9-.5 1-1z" fill="#304e6f"/><path d="m130.2 32.8v.9h-3.7v-5.4h3.6v.9h-2.6v1.3h2.5v.9h-2.5v1.4z" fill="#304e6f"/><path d="m134.7 29.2c-1 0-1.8.8-1.8 1.8s.8 1.8 1.8 1.8c.7.1 1.3-.4 1.5-1l1 .4c-.4 1-1.4 1.6-2.5 1.6-1.5 0-2.8-1.2-2.8-2.7s1.2-2.8 2.8-2.8c1 0 2 .6 2.4 1.5l-.9.4c-.3-.7-.9-1.1-1.5-1z" fill="#304e6f"/><path d="m139 28.3h1v5.3h-1z" fill="#304e6f"/><path d="m145.7 32.5h-2.4l-.4 1.2h-1.1l2.2-5.3h1.2l2.2 5.3h-1.2zm-.3-.9-.8-2.1-.1-.2-.1.2-.8 2.1z" fill="#304e6f"/><path d="m152.4 32.7v1h-3.5v-5.4h1v4.4z" fill="#304e6f"/><path d="m156.9 31c0-1.5 1.1-2.7 2.6-2.8h.2c1.5-.1 2.7 1.1 2.8 2.5v.2c0 1.5-1.3 2.8-2.8 2.8s-2.8-1.2-2.8-2.7zm4.5 0c.1-.9-.6-1.7-1.6-1.8-.1 0-.1 0-.2 0-1 0-1.8.8-1.8 1.8s.8 1.8 1.8 1.8 1.8-.8 1.8-1.8z" fill="#304e6f"/><path d="m165.4 29.2v1.4h2.3v.9h-2.3v2.1h-1v-5.3h3.5v.9z" fill="#304e6f"/><path d="m170.9 29.2v1.4h2.3v.9h-2.3v2.1h-1v-5.3h3.5v.9z" fill="#304e6f"/><path d="m178.9 32.8v.9h-3.7v-5.4h3.6v.9h-2.6v1.3h2.5v.9h-2.5v1.4z" fill="#304e6f"/><path d="m182.9 31.9h-1v1.8h-1v-5.3h2c1.3 0 2.1.7 2.1 1.8 0 .7-.4 1.4-1.1 1.7l1.2 1.9h-1.2zm-1-1h1c.6 0 1-.3 1-.8s-.4-.8-1-.8h-1z" fill="#304e6f"/><g fill="#fff"><path d="m50.7 140.3c0 3.9-3 6.7-7.2 6.7h-4.8v-13.3h4.8c4.2 0 7.2 2.8 7.2 6.6zm-2.6 0c0-2.6-1.8-4.3-4.6-4.3h-2.3v8.6h2.3c2.7 0 4.6-1.7 4.6-4.3z"/><path d="m61.6 143.2h-6.9c.1 1.1 1.2 2 2.3 1.9.8.1 1.6-.3 2-1.1l2.2 1c-1.4 2.3-4.4 3-6.7 1.7-2.3-1.4-3-4.4-1.7-6.7.9-1.5 2.5-2.4 4.3-2.4 2.7 0 4.6 2 4.6 4.9 0 .3-.1.7-.1.7zm-2.3-1.8c-.2-1-1.1-1.8-2.1-1.7-1.1-.1-2.1.6-2.4 1.7z"/><path d="m63.4 133.3h2.5v13.7h-2.5z"/><path d="m75.4 146.7c-.8.4-1.7.6-2.7.6-2.4 0-3.6-1.2-3.6-3.6v-3.7h-1.7v-1.8c1.4-.1 2.1-1 2.2-2.8h1.9v2.5h3.1v2.1h-3.1v3.6c0 1.2.4 1.5 1.4 1.6.6 0 1.1-.2 1.6-.5z"/><path d="m85 141.3v5.7h-1.8l-.3-1.2c-.7 1-2 1.6-3.2 1.4-2.1 0-3.4-1.1-3.4-2.9s1.3-2.9 3.6-2.9c.9 0 1.8.1 2.7.4v-.4c.1-.9-.6-1.7-1.5-1.8-.1 0-.3 0-.4 0-.9 0-1.8.2-2.5.7l-1.3-1.6c1.2-.8 2.6-1.2 4-1.2 2.5.1 4.1 1.5 4.1 3.8zm-2.4 2.3v-.2c-.6-.2-1.3-.3-2-.4-1.2 0-1.8.4-1.8 1.2s.6 1.2 1.7 1.2c1.1.1 2-.6 2.2-1.6-.1-.1-.1-.2-.1-.2z"/><path d="m103.8 133.7v13.3h-2.5v-5.6h-6.4v5.6h-2.5v-13.3h2.5v5.5h6.4v-5.5z"/><path d="m105.9 142.4c0-2.6 2.1-4.8 4.8-4.8h.3c2.6-.2 4.8 1.8 5 4.4v.4c-.2 2.8-2.6 4.9-5.4 4.7-2.5-.1-4.5-2.1-4.7-4.7zm7.6 0c.1-1.3-.9-2.5-2.2-2.6-.1 0-.2 0-.3 0-1.4 0-2.6 1.1-2.6 2.5s1.1 2.6 2.5 2.6c1.5.1 2.6-1.1 2.6-2.5z"/><path d="m124.9 146.7c-.8.4-1.7.6-2.6.6-2.4 0-3.6-1.2-3.6-3.6v-3.7h-1.6v-1.8c1.4-.1 2.1-1 2.2-2.8h1.9v2.5h3.1v2.1h-3.1v3.6c0 1.2.4 1.5 1.4 1.6.6 0 1.1-.2 1.6-.5z"/><path d="m135.4 143.2h-6.9c.1 1.2 1.2 2 2.3 1.9.8.1 1.6-.3 2-1.1l2.2 1c-1.5 2.3-4.6 2.9-6.8 1.3-1.3-.9-2.1-2.4-2.2-3.9-.1-2.6 2-4.7 4.6-4.8h.3c2.7 0 4.6 2 4.6 4.9-.1.3-.1.7-.1.7zm-2.4-1.8c-.2-1.1-1.1-1.8-2.2-1.7-1.1-.1-2.1.6-2.4 1.7z"/><path d="m137.2 133.3h2.5v13.7h-2.5z"/><path d="m141.5 144.9 2.2-.6c.2.7.8 1.1 1.5 1.1.8 0 1.3-.3 1.3-.9s-.4-.9-1.3-1.1l-.9-.2c-1.7-.4-2.6-1.3-2.6-2.7 0-1.7 1.4-2.8 3.5-2.8 2.9 0 3.5 2 3.5 2l-2.1.7c-.2-.5-.7-.9-1.3-.8-.7 0-1.1.3-1.1.8s.4.8 1.3 1l1 .2c1.4.2 2.5 1.3 2.5 2.8 0 1.8-1.4 2.9-3.7 2.9-3.3-.1-3.8-2.4-3.8-2.4z"/><path d="m165.2 142.4c0 2.8-1.9 4.9-4.5 4.9-1.2.1-2.4-.5-3.1-1.5l-.4 1.3h-1.9v-13.7h2.5v5.4c.8-.8 1.9-1.3 3-1.2 2.6 0 4.4 2 4.4 4.8zm-2.5 0c.1-1.3-.8-2.4-2.1-2.5-.1 0-.2 0-.3 0-1.4-.1-2.7.9-2.8 2.3s.9 2.7 2.3 2.8 2.7-.9 2.8-2.3c.1-.2.1-.2.1-.3z"/><path d="m166.4 150.7.8-2.1c.3.2.7.3 1.1.4.6 0 1-.3 1.2-.9l.6-1.3-4-9h2.8l2.4 6 .1 1 .1-1 2.3-6h2.7l-4.7 10.9c-.8 1.8-1.7 2.6-3.4 2.6-.6 0-1.4-.2-2-.6z"/><path d="m183.1 133.7h2.1l5.1 7.4 5.1-7.4h2.1v13.3h-2.5v-8.8l-4.3 6.2h-.9l-4.3-6.2v8.8h-2.5z"/><path d="m208.4 141.3v5.7h-1.8l-.4-1.2c-.7 1-2 1.6-3.2 1.4-2.1 0-3.4-1.1-3.4-2.9s1.3-2.9 3.6-2.9c.9 0 1.8.1 2.7.4v-.4c.1-.9-.6-1.7-1.5-1.8-.1 0-.2 0-.4 0-.9 0-1.8.2-2.5.7l-1.3-1.6c1.2-.8 2.6-1.2 4-1.2 2.6.1 4.2 1.5 4.2 3.8zm-2.4 2.3v-.2c-.6-.2-1.3-.3-1.9-.4-1.2 0-1.8.4-1.8 1.2s.6 1.2 1.7 1.2c.9.1 1.9-.7 2-1.8z"/><path d="m210.6 137.8h1.9l.4 1.7c.6-1.2 1.8-2 3.2-1.8.2 0 .4 0 .6.1l-.1 2.5h-.4c-2.1 0-3 .9-3 3.3v3.5h-2.5z"/><path d="m218.2 137.8h1.9l.4 1.7c.6-1.2 1.8-2 3.2-1.8.2 0 .4 0 .6.1l-.1 2.5h-.4c-2.1 0-3 .9-3 3.3v3.5h-2.5z"/><path d="m225.5 134.9c0-.8.7-1.5 1.5-1.5s1.5.7 1.5 1.5-.6 1.5-1.4 1.5h-.1c-.8 0-1.5-.6-1.5-1.4 0-.1 0-.1 0-.1zm.3 2.9h2.5v9.3h-2.5z"/><path d="m230.1 142.4c0-2.6 2.1-4.8 4.8-4.8h.3c2.6-.2 4.8 1.8 5 4.4v.4c-.2 2.8-2.6 4.9-5.4 4.7-2.5-.1-4.5-2.1-4.7-4.7zm7.6 0c.1-1.3-.9-2.5-2.2-2.6-.1 0-.2 0-.3 0-1.4 0-2.6 1.1-2.6 2.5s1.1 2.6 2.5 2.6 2.6-1.1 2.6-2.5z"/><path d="m249.1 146.7c-.8.4-1.7.6-2.6.6-2.4 0-3.6-1.2-3.6-3.6v-3.7h-1.6v-1.8c1.4-.1 2.1-1 2.2-2.8h1.9v2.5h3.1v2.1h-3.1v3.6c0 1.2.4 1.5 1.4 1.6.6 0 1.1-.2 1.6-.5z"/><path d="m257.8 146.7c-.8.4-1.7.6-2.7.6-2.4 0-3.6-1.2-3.6-3.6v-3.7h-1.7v-1.8c1.4-.1 2.1-1 2.2-2.8h1.9v2.5h3.1v2.1h-3v3.6c0 1.2.4 1.5 1.4 1.6.6 0 1.1-.2 1.6-.5z"/><path d="m65.3 156.3h1.1l3.2 7.4.1.3.1-.3 3.2-7.4h1l-3.7 8.7h-1.1z"/><path d="m74.8 157.1c0-.4.3-.7.6-.7h.1c.4 0 .7.3.7.6v.1c0 .4-.3.7-.7.7s-.7-.3-.7-.7zm.3 2h.9v6h-.9z"/><path d="m77.6 162c0-1.7 1.3-3 3-3h.1c1.1 0 2.1.5 2.6 1.5l-.8.3c-.4-.6-1-1-1.7-1-1.2.1-2.2 1.1-2.1 2.3.1 1.1.9 2 2 2.1.8.1 1.5-.4 1.9-1.1l.8.4c-.5 1-1.6 1.7-2.7 1.6-1.7 0-3-1.3-3-3-.1 0-.1 0-.1-.1z"/><path d="m88.7 164.8c-.5.3-1 .4-1.5.4-1.4 0-2-.7-2-2.1v-3.1h-1.2v-.7c1 0 1.3-.5 1.4-1.8h.7v1.7h2.3v.8h-2.3v3.1c0 1 .3 1.3 1.2 1.3.4 0 .8-.1 1.1-.3z"/><path d="m89.7 162c-.1-1.7 1.2-3 2.9-3.1h.3c1.7-.1 3.1 1.2 3.2 2.8v.3c0 1.8-1.4 3.2-3.2 3.2s-3.2-1.4-3.2-3.2zm5.4 0c.1-1.2-.8-2.2-2-2.2-.1 0-.2 0-.2 0-1.2 0-2.2.9-2.2 2.1v.2c-.1 1.2.8 2.3 2.1 2.4 1.2.1 2.3-.8 2.4-2.1-.1-.2-.1-.3-.1-.4z"/><path d="m97.6 159.1h.7l.2 1.2c.5-.9 1.5-1.4 2.6-1.3l-.1 1h-.2c-1.5 0-2.2.8-2.2 2.6v2.5h-.9z"/><path d="m102.1 157.1c0-.4.3-.7.6-.7s.6.2.7.6v.1c0 .4-.4.6-.8.6-.2 0-.4-.2-.5-.6zm.3 2h.9v6h-.9z"/><path d="m110 161.1v3.9h-.7l-.2-.9c-.5.7-1.3 1.1-2.1 1-1.4 0-2.2-.7-2.2-1.9s.9-1.9 2.3-1.9c.7 0 1.3.1 1.9.4v-.5c0-.8-.6-1.4-1.3-1.5-.1 0-.2 0-.3 0-.7 0-1.3.2-1.8.6l-.5-.7c.7-.5 1.5-.7 2.3-.7 1.2-.2 2.3.7 2.5 1.9.1.2.1.3.1.3zm-.9 1.8v-.4c-.5-.2-1.1-.3-1.7-.3-1.1 0-1.6.4-1.6 1.1s.5 1.1 1.5 1.1 1.8-.7 1.8-1.5z"/><path d="m114.5 160.7c-.1-2.4 1.8-4.4 4.2-4.5h.3c2.4-.1 4.4 1.7 4.5 4.1v.3c0 2.5-2 4.5-4.5 4.5s-4.5-1.9-4.5-4.4zm8 0c.1-1.9-1.3-3.4-3.2-3.6-.1 0-.2 0-.3 0-2 0-3.6 1.5-3.6 3.5s1.5 3.6 3.5 3.6c2 .1 3.6-1.5 3.6-3.5z"/><path d="m124.9 162c0-1.7 1.3-3 3-3h.1c1.1 0 2.1.5 2.6 1.5l-.9.3c-.4-.6-1-1-1.7-1-1.2.1-2.2 1.1-2.1 2.3.1 1.1.9 2 2 2.1.8 0 1.5-.4 1.9-1.1l.8.4c-.5 1-1.6 1.7-2.7 1.6-1.7 0-3-1.3-3-3 0 0 0 0 0-.1z"/><path d="m137.5 162.4h-4.9c.1 1.1 1 1.9 2.1 1.9.7.1 1.4-.3 1.8-.9l.8.4c-.5.9-1.6 1.5-2.6 1.4-1.7-.1-3-1.6-2.9-3.3.1-1.6 1.4-2.8 3-2.9 1.6 0 2.8 1.2 2.9 2.8v.3c-.2.1-.2.3-.2.3zm-.9-.8c0-1-.8-1.8-1.8-1.8-.1 0-.1 0-.2 0-1.1-.1-2 .7-2.1 1.8z"/><path d="m143.8 161.1v3.9h-.6l-.2-.9c-.5.7-1.3 1.1-2.1 1-1.4 0-2.2-.7-2.2-1.9s.9-1.9 2.4-1.9c.7 0 1.3.1 1.9.4v-.5c0-.8-.6-1.4-1.3-1.5-.1 0-.2 0-.3 0-.6 0-1.3.2-1.8.6l-.5-.7c.7-.5 1.5-.7 2.3-.7 1.2-.1 2.3.8 2.4 2zm-.9 1.8v-.4c-.5-.2-1.1-.3-1.7-.3-1.1 0-1.6.4-1.6 1.1s.5 1.1 1.5 1.1 1.8-.7 1.8-1.5z"/><path d="m145.7 159.1h.7l.1 1c.5-.7 1.3-1.1 2.2-1.1 1.3-.1 2.3.9 2.4 2.2v.3 3.5h-.9v-3.4c0-1.2-.6-1.8-1.6-1.8-1-.1-1.9.7-2 1.7v.3 3.2h-.9z"/><path d="m162.4 159.2c0 1.8-1.3 2.9-3.2 2.9h-2.1v2.9h-1v-8.7h3.1c1.9 0 3.2 1.1 3.2 2.9zm-1 0c0-1.1-.9-2-2-2-.1 0-.2 0-.2 0h-2.1v4h2.1c1.1.1 2.1-.7 2.2-1.8 0 0 0-.1 0-.2z"/><path d="m163.7 162c-.1-1.7 1.2-3 2.9-3.1h.3c1.7-.1 3.1 1.2 3.2 2.8v.3c-.1 1.8-1.6 3.1-3.4 3-1.6 0-2.9-1.3-3-3zm5.4 0c.1-1.2-.8-2.2-2-2.2-.1 0-.2 0-.2 0-1.2 0-2.2.9-2.2 2.1v.1c-.1 1.2.8 2.3 2.1 2.4s2.3-.8 2.4-2.1c-.1-.1-.1-.2-.1-.3z"/><path d="m171.4 157.1c0-.4.3-.7.6-.7s.6.2.7.6v.1c0 .4-.4.6-.8.6-.2 0-.4-.2-.5-.6zm.2 2h.9v6h-.9z"/><path d="m174.6 159.1h.7l.1 1c.5-.7 1.3-1.1 2.2-1.1 1.3-.1 2.3.9 2.4 2.2v.3 3.5h-.9v-3.4c0-1.2-.6-1.8-1.6-1.8-1-.1-1.9.7-2 1.8v.2 3.2h-.9z"/><path d="m186 164.8c-.5.3-1 .4-1.5.4-1.4 0-2-.7-2-2.1v-3.1h-1.1v-.7c1 0 1.3-.5 1.4-1.8h.7v1.7h2.3v.8h-2.3v3.1c0 1 .3 1.3 1.2 1.3.4 0 .8-.1 1.1-.3z"/><path d="m192.8 162.4h-4.9c.1 1.1 1 1.9 2.1 1.9.7.1 1.4-.3 1.8-.9l.8.4c-.5.9-1.6 1.5-2.6 1.4-1.7-.1-3-1.6-2.9-3.3.1-1.6 1.4-2.8 3-2.9 1.6 0 2.8 1.2 2.9 2.8v.3c-.1.1-.2.3-.2.3zm-.8-.8c0-1-.8-1.8-1.8-1.8-.1 0-.1 0-.2 0-1.1 0-2 .7-2.1 1.8z"/><path d="m202.9 165-2.3-3.2h-2.2v3.2h-.9v-8.7h3.2c2 0 3.2 1.1 3.2 2.8 0 1.3-.9 2.5-2.2 2.7l2.5 3.3h-1.3zm-4.4-4h2.2c1.4 0 2.2-.7 2.2-1.9s-.8-1.9-2.2-1.9h-2.2z"/><path d="m211.3 162.4h-4.9c.1 1.1 1 1.9 2.1 1.9.7.1 1.4-.3 1.8-.9l.8.4c-.5.9-1.6 1.5-2.6 1.4-1.7-.1-3-1.6-2.9-3.3.1-1.6 1.4-2.8 3-2.9 1.6 0 2.8 1.2 2.9 2.8v.3c-.2.1-.2.3-.2.3zm-.9-.8c0-1-.8-1.8-1.8-1.8-.1 0-.1 0-.2 0-1.1-.1-2 .7-2.1 1.8z"/><path d="m212.4 163.8.9-.3c.2.5.7.9 1.3.8.8 0 1.2-.3 1.2-.9s-.3-.7-1-.9l-.8-.2c-.8-.1-1.5-.8-1.5-1.7 0-1 .8-1.7 2-1.7.8-.1 1.7.4 2 1.1l-.9.3s-.2-.6-1.1-.6c-.7 0-1.1.3-1.1.8s.3.7 1 .9l.8.2c.8.1 1.5.8 1.5 1.7 0 1.1-.8 1.8-2.1 1.8-1 .2-1.9-.4-2.2-1.3z"/><path d="m217.8 162c0-1.8 1.3-3.2 3.1-3.2s3.2 1.3 3.2 3.1-1.3 3.2-3.1 3.2c0 0 0 0-.1 0-1.7.1-3.1-1.2-3.2-2.8.1-.1.1-.2.1-.3zm5.4 0c.1-1.2-.8-2.2-2-2.2-.1 0-.2 0-.2 0-1.2 0-2.2.9-2.2 2.1v.1c-.1 1.2.8 2.3 2.1 2.4s2.3-.8 2.4-2.1c-.1-.1-.1-.2-.1-.3z"/><path d="m225.8 159.1h.7l.2 1.2c.4-.9 1.3-1.4 2.2-1.3h.3l-.1 1h-.2c-1.5 0-2.2.8-2.2 2.6v2.5h-.9z"/><path d="m234.5 164.8c-.5.3-1 .4-1.5.4-1.4 0-2-.7-2-2.1v-3.1h-1.2v-.7c1 0 1.4-.5 1.4-1.8h.7v1.7h2.3v.8h-2.3v3.1c0 1 .3 1.3 1.2 1.3.4 0 .8-.1 1.1-.3z"/></g><path d="m107.5 116.7h85" fill="none"/><path d="m107.5 116h85.1v1.4h-85.1z" fill="#fff"/></g></svg>