<svg enable-background="new 0 0 300 600" viewBox="0 0 300 600" xmlns="http://www.w3.org/2000/svg"><path d="m-.5 471.5h300v130h-300z" fill="#304e6f"/><g fill="#fff"><path d="m105.7 524.6h3.3v16.1h-3.3z"/><path d="m122.7 541.1c-4.6 0-8.6-3.2-8.6-8.4s4-8.4 8.6-8.4c2.1 0 4.3.6 5.6 1.6v3c-1.3-1.1-3-2-5.2-2-3.2 0-5.5 2.1-5.5 5.8 0 3.6 2.4 5.8 5.5 5.8 2.2 0 4-.9 5.2-2v3c-1.4.9-3.5 1.6-5.6 1.6"/><path d="m140.8 527.2v13.5h-3.3v-13.5h-5.4v-2.6h14.1v2.6z"/><path d="m157.8 526.8c-3.2 0-5.3 2.4-5.3 5.9s2.1 5.9 5.3 5.9 5.2-2.4 5.2-5.9-2.1-5.9-5.2-5.9m0 14.4c-4.9 0-8.8-3.6-8.8-8.5s3.8-8.5 8.8-8.5c4.9 0 8.7 3.6 8.7 8.5-.1 4.9-3.8 8.5-8.7 8.5"/><path d="m174.9 532h2.5c2 0 2.8-1.1 2.8-2.5s-.7-2.5-2.8-2.5h-2.5zm8.2 8.9c-1.9 0-3.5-.8-4.6-3.2l-1.7-3.4h-1.9v6.4h-3.3v-16.1h6.3c3.8 0 5.4 2.2 5.4 4.8 0 2.3-1.3 4-3.5 4.6l1.6 2.8c.8 1.4 1.6 1.9 2.7 1.9.3 0 .6 0 .9-.1v2.1c-.6.1-1.3.2-1.9.2"/><path d="m190.6 524.6h3.3v16.1h-3.3z"/><path d="m75.8 524.1c-1 .3-2 .3-2.8-.1-.8-.3-1.5-1-1.7-1.8-.3-.8-.2-1.8.2-2.4.4-.7 1-1 1.8-.9.8 0 1.8.5 2.6 1.2.9.6 1.6 1.4 2.4 2.3.2.2.4.5.6.7-1.1.4-2.1.8-3.1 1m69.4-12.3c-9.3-2.7-19.2-3.1-28.8-1.7s-18.8 4.5-27.7 8.2c-2.2.9-4.4 1.9-6.7 2.9-.3.2-.6.3-.9.5-.3-.4-.6-.8-1-1.2-.8-.9-1.8-1.9-2.8-2.6-1.1-.8-2.3-1.5-3.9-1.6-.8-.1-1.6.1-2.4.5s-1.4 1-1.7 1.7c-.8 1.4-.8 3.1-.3 4.5s1.7 2.6 3.1 3.2c1.5.6 3 .5 4.3.1 1.4-.4 2.6-.9 3.8-1.5.7 1 1.3 2.1 2 3.2l7.5 12.2c.1.2.3.4.5.5.7.4 1.6.2 2-.5l9.1-15.4c.1-.1.1-.2.1-.3h-3.4l-7.2 12.1-6.4-10.1c-.6-1-1.3-2-2-3.1.2-.1.4-.2.6-.3 2.1-1 4.3-2 6.5-2.9 8.7-3.8 17.8-7 27.1-8.5 9.4-1.5 19-1.3 28.2 1.2.3.1.6-.1.7-.4.2-.3.1-.6-.3-.7"/><path d="m228.8 545c-.3.8-.8 1.3-1.6 1.4s-1.7-.3-2.6-.8c-.9-.6-1.7-1.4-2.5-2.2-.3-.3-.6-.7-.9-1.1.7-.3 1.3-.6 2-.9 1.1-.4 2.1-.6 3-.4.9.1 1.7.7 2.2 1.5.5.7.6 1.7.4 2.5m1.7-3.8c-.9-1.3-2.3-2.3-3.8-2.5s-2.9.1-4.2.6c-.9.3-1.8.8-2.6 1.2-.6-.9-1.2-1.9-1.8-2.9l-7.7-12.6c-.1-.2-.3-.4-.5-.5-.7-.4-1.6-.2-2 .5l-9.1 15.4c-.1.1-.1.2-.1.3h3.4l7.2-12.1 6.6 10.4 1.8 2.7c-.6.3-1.1.6-1.7.9-2.2 1.1-4.4 2.2-6.6 3.4-8.7 4.7-17 9.8-26.3 12.8-9.2 3.1-19.1 3.9-28.8 3.4-.3 0-.6.2-.7.6 0 .3.2.6.6.7 9.8.7 19.9 0 29.4-3 9.5-2.9 18.2-8 26.8-12.5 2.2-1.1 4.3-2.2 6.6-3.2.7-.3 1.4-.7 2.1-1 .4.5.9 1.1 1.4 1.6.9 1 1.9 1.9 3 2.6 1.2.7 2.6 1.4 4.3 1.2.8-.1 1.7-.5 2.3-1.1s1.1-1.3 1.3-2.1c.2-1.8-.1-3.5-.9-4.8"/><path d="m136.1 550.4h-.8v1.4h.8c.6 0 .8-.3.8-.7s-.2-.7-.8-.7m-.8-.7h.7c.5 0 .7-.3.7-.6s-.2-.6-.7-.6h-.7zm.9 2.7h-1.8v-4.6h1.8c1 0 1.4.5 1.4 1.2 0 .3-.2.7-.5.9.4.2.7.7.7 1.1 0 .8-.5 1.4-1.6 1.4"/><path d="m141.7 552.5c-1.3 0-2.4-.9-2.4-2.4s1.1-2.4 2.4-2.4c.6 0 1.2.2 1.6.5v.8c-.4-.3-.9-.6-1.5-.6-.9 0-1.6.6-1.6 1.6s.7 1.6 1.6 1.6c.6 0 1.1-.2 1.5-.6v.8c-.4.6-1 .7-1.6.7"/><path d="m145.3 553.4-.2-.2c.3-.2.5-.5.5-.8h-.5v-.9h.9v.8c.1.5-.2 1-.7 1.1"/><path d="m152.6 552.5c-1.3 0-2.4-.9-2.4-2.4s1.1-2.4 2.4-2.4c.6 0 1.2.2 1.6.5v.8c-.4-.3-.9-.6-1.5-.6-.9 0-1.6.6-1.6 1.6s.7 1.6 1.6 1.6c.6 0 1.1-.2 1.5-.6v.8c-.4.6-1 .7-1.6.7"/><path d="m157.9 549-.7 1.7h1.3zm1.4 3.4-.5-1.1h-1.8l-.5 1.1h-.9l1.9-4.6h.7l1.9 4.6z"/><path d="m165 552.4-2.4-3v3h-.8v-4.5h.6l2.4 3v-3h.8v4.5z"/><path d="m169.5 549-.7 1.7h1.3zm1.3 3.4-.5-1.1h-1.8l-.5 1.1h-.9l1.9-4.6h.7l1.9 4.6z"/><path d="m174.9 548.6h-.6v3.1h.6c1.2 0 1.7-.6 1.7-1.5 0-1-.5-1.6-1.7-1.6m0 3.8h-1.6v-4.6h1.6c1.8 0 2.6 1 2.6 2.3s-.7 2.3-2.6 2.3"/><path d="m180.8 549-.7 1.7h1.3zm1.4 3.4-.5-1.1h-1.8l-.5 1.1h-.9l1.9-4.6h.7l1.9 4.6z"/></g></svg>