<?xml version="1.0" encoding="UTF-8"?><svg xmlns="http://www.w3.org/2000/svg" viewBox="0 0 300 250"><defs><style>.e{fill:none;stroke:#fff;stroke-miterlimit:10;stroke-width:.96px;}</style></defs><g id="a"/><g id="b"/><g id="c"/><g id="d"><g><path class="e" d="M122.92,103.66h-6.05l1.41-6.7h19.45l-1.41,6.7h-6.05l-3.43,16.18h-7.35l3.43-16.18Z"/><path class="e" d="M151.92,96.3c7.42,0,12.09,5.13,12.09,11.28,0,7.16-6.05,12.91-13.89,12.91-7.42,0-12.09-5.13-12.09-11.28,0-7.16,6.05-12.91,13.89-12.91Zm-1.47,17.65c3.43,0,6.21-2.68,6.21-6.21,0-2.62-2.09-4.9-5.07-4.9-3.43,0-6.21,2.68-6.21,6.21,0,2.62,2.09,4.9,5.07,4.9Z"/><path class="e" d="M178.95,96.96h7.35l-3.4,16.02h9.48l-1.44,6.86h-16.83l4.84-22.88Z"/><path class="e" d="M206.98,96.96h8.33l3.5,22.88h-7.52l-.39-4.41h-6.7l-2.22,4.41h-8.17l13.17-22.88Zm3.53,13.4l-.43-6.37h-.16l-3.17,6.37h3.76Z"/></g></g></svg>