<?xml version="1.0" encoding="UTF-8"?><svg xmlns="http://www.w3.org/2000/svg" viewBox="0 0 66.16 66.16"><defs><style>.d{stroke-width:.4px;}.d,.e,.f{fill:none;stroke:#701010;stroke-miterlimit:10;}.g{fill:#701010;}.e{stroke-width:.7px;}</style></defs><g id="a"/><g id="b"><g id="c"><g><circle class="g" cx="33.08" cy="1.96" r="1.96"/><circle class="g" cx="33.08" cy="64.2" r="1.96"/><circle class="g" cx="64.2" cy="33.08" r="1.96"/><circle class="g" cx="1.96" cy="33.08" r="1.96"/><circle class="g" cx="48.73" cy="59.98" r="1.96"/><circle class="g" cx="17.43" cy="6.18" r="1.96"/><circle class="g" cx="60.1" cy="48.52" r="1.96"/><circle class="g" cx="6.06" cy="17.64" r="1.96"/><circle class="g" cx="59.61" cy="16.81" r="1.96"/><circle class="g" cx="6.56" cy="49.35" r="1.96"/><circle class="g" cx="48.7" cy="6.17" r="1.96"/><circle class="g" cx="17.46" cy="60" r="1.96"/><g><g><circle class="f" cx="33.08" cy="33.08" r="31.12"/><circle class="d" cx="33.08" cy="33.08" r="23.34"/><circle class="d" cx="33.08" cy="33.08" r="15.56"/><circle class="e" cx="33.08" cy="33.08" r="7.78"/></g><g><line class="d" x1="33.08" y1="33.08" x2="33.08" y2="64.2"/><line class="d" x1="33.08" y1="33.08" x2="41.13" y2="63.14"/><line class="d" x1="33.08" y1="33.08" x2="48.64" y2="60.03"/><line class="d" x1="33.08" y1="33.08" x2="55.09" y2="55.09"/><line class="d" x1="33.08" y1="33.08" x2="60.03" y2="48.64"/><line class="d" x1="33.08" y1="33.08" x2="63.14" y2="41.13"/><line class="d" x1="33.08" y1="33.08" x2="64.2" y2="33.08"/><line class="d" x1="33.08" y1="33.08" x2="63.14" y2="25.03"/><line class="d" x1="33.08" y1="33.08" x2="60.03" y2="17.52"/><line class="d" x1="33.08" y1="33.08" x2="55.09" y2="11.08"/><line class="d" x1="33.08" y1="33.08" x2="48.64" y2="6.13"/><line class="d" x1="33.08" y1="33.08" x2="41.13" y2="3.02"/><line class="d" x1="33.08" y1="33.08" x2="33.08" y2="1.96"/><line class="d" x1="33.08" y1="33.08" x2="25.03" y2="3.02"/><line class="d" x1="33.08" y1="33.08" x2="17.52" y2="6.13"/><line class="d" x1="33.08" y1="33.08" x2="11.08" y2="11.08"/><line class="d" x1="33.08" y1="33.08" x2="6.13" y2="17.52"/><line class="d" x1="33.08" y1="33.08" x2="3.02" y2="25.03"/><line class="d" x1="33.08" y1="33.08" x2="1.96" y2="33.08"/><line class="d" x1="33.08" y1="33.08" x2="3.02" y2="41.13"/><line class="d" x1="33.08" y1="33.08" x2="6.13" y2="48.64"/><line class="d" x1="33.08" y1="33.08" x2="11.08" y2="55.09"/><line class="d" x1="33.08" y1="33.08" x2="17.52" y2="60.03"/><line class="d" x1="33.08" y1="33.08" x2="25.03" y2="63.14"/></g></g></g></g></g></svg>