<?xml version="1.0" encoding="UTF-8"?>
<svg id="Layer_2" data-name="Layer 2" xmlns="http://www.w3.org/2000/svg" xmlns:xlink="http://www.w3.org/1999/xlink" viewBox="0 0 500 1000">
  <defs>
    <style>
      .cls-1 {
        fill: none;
      }

      .cls-1, .cls-2 {
        stroke-width: 0px;
      }

      .cls-3 {
        clip-path: url(#clippath-1);
      }

      .cls-4 {
        clip-path: url(#clippath);
      }

      .cls-2 {
        fill: #fff;
      }
    </style>
    <clipPath id="clippath">
      <rect class="cls-1" width="500" height="1000"/>
    </clipPath>
    <clipPath id="clippath-1">
      <rect class="cls-1" width="500" height="1000"/>
    </clipPath>
  </defs>
  <g id="Layer_1-2" data-name="Layer 1">
    <g class="cls-4">
      <g class="cls-3">
        <g>
          <path class="cls-2" d="M56.23,198.83c-1.54,0-2.76-.65-2.76-2.28v-23.52c0-1.59,1.27-2.32,2.81-2.32s2.76.73,2.76,2.32v20.73h12.19c1.58,0,2.19,1.12,2.19,2.54s-.61,2.54-2.19,2.54h-15Z"/>
          <path class="cls-2" d="M95.39,196.25c0,1.29-.4,1.98-1.84,2.37-.88.26-3.68.65-7.15.65-7.85,0-10.39-1.89-10.39-8.13v-5.59c0-6.58,2.85-8.21,10.22-8.21s9.52,1.81,9.52,8.08v2.45c0,1.85-.7,2.49-2.32,2.49h-11.97v1.07c0,2.24,1.58,3.1,4.74,3.1,2.37,0,5.31-.39,6.93-.39s2.28.47,2.28,2.11ZM81.45,186.1h8.95v-.95c0-2.54-.96-3.18-4.47-3.18-3.29,0-4.47.56-4.47,3.18v.95Z"/>
          <path class="cls-2" d="M101.14,180.29c0-1.94,1.67-2.97,8.24-2.97,8.11,0,10.13,1.25,10.13,7.09v8.13c0,5.68-2.59,6.71-10.13,6.71s-9.47-1.03-9.47-6.84c0-4.77,1.18-6.71,9.21-6.71h5v-.86c0-2.11-.83-2.62-4.12-2.62s-5.26.52-6.53.52c-1.71,0-2.32-.95-2.32-2.45ZM114.12,190.06h-5.31c-3.03,0-3.6.52-3.6,2.19,0,1.81.66,2.32,4.34,2.32s4.56-.43,4.56-1.63v-2.88Z"/>
          <path class="cls-2" d="M123.99,184.08c0-4,2.81-6.75,9.78-6.75,6.4,0,7.63,1.16,7.63,3.05,0,1.38-.57,2.11-2.37,2.11-1.32,0-2.63-.47-5.79-.47-2.63,0-3.82.52-3.82,1.55,0,3.35,12.85.69,12.85,8.9,0,4.77-3.42,6.79-9.65,6.79-7.54,0-8.51-1.12-8.51-2.88,0-1.5.61-2.32,2.41-2.32,1.36,0,2.81.52,5.92.52,2.81,0,4.38-.56,4.38-1.85,0-3.18-12.85-.69-12.85-8.64Z"/>
          <path class="cls-2" d="M148.95,169.59c1.71,0,3.11,1.38,3.11,3.05s-1.4,3.01-3.11,3.01-3.03-1.33-3.03-3.01,1.32-3.05,3.03-3.05ZM151.67,196.94c0,1.59-1.23,2.24-2.72,2.24s-2.72-.65-2.72-2.24v-17.24c0-1.59,1.23-2.28,2.72-2.28s2.72.69,2.72,2.28v17.24Z"/>
          <path class="cls-2" d="M163.24,186.66v10.28c0,1.59-1.23,2.24-2.72,2.24s-2.72-.65-2.72-2.24v-10.53c0-8,1.97-9.07,9.91-9.07s10.04,1.07,10.04,9.07v10.53c0,1.59-1.23,2.24-2.72,2.24s-2.68-.65-2.68-2.24v-10.28c0-3.91-.61-4.56-4.65-4.56s-4.47.65-4.47,4.56Z"/>
          <path class="cls-2" d="M199.6,175.87c0-1.51,1.23-2.11,2.67-2.11s2.63.6,2.63,2.11v8.94c0,5.76-2.98,6.97-10.04,6.97-2.76,0-4.21-.22-5.53-.52h-.13v2.67h8.73c5.92,0,7.76,1.59,7.76,5.98,0,5.46-2.81,7.31-11.36,7.31-7.72,0-10.44-1.63-10.44-7.18v-15.91c0-6.02,2.68-6.79,10.04-6.79,2.06,0,4.25.13,5.53.47h.13v-1.93ZM199.6,184.42v-2.11c-1.1-.17-2.98-.34-5.48-.34-4.52,0-4.91.56-4.91,2.28v.9c0,1.68.61,2.02,5.17,2.02,4.82,0,5.22-.39,5.22-2.75ZM189.21,199.6c0,2.49.96,2.97,5.22,2.97,4.78,0,5.96-.52,5.96-2.28,0-1.33-.66-1.72-3.42-1.72h-7.76v1.03Z"/>
          <path class="cls-2" d="M216.84,188.29v8.6c0,1.63-1.32,2.28-2.85,2.28s-2.85-.65-2.85-2.28v-23.69c0-1.55,1.05-2.32,2.63-2.32h11.45c6.8,0,9.38,1.89,9.38,8.56,0,5.29-1.62,8.86-9.38,8.86h-8.38ZM216.84,183.39h8.38c2.72,0,3.68-1.12,3.68-3.91s-.96-3.57-3.73-3.57h-8.33v7.48Z"/>
          <path class="cls-2" d="M242.06,198.83c-1.54,0-2.76-.65-2.76-2.28v-23.52c0-1.59,1.27-2.32,2.81-2.32s2.76.73,2.76,2.32v20.73h12.19c1.58,0,2.19,1.12,2.19,2.54s-.61,2.54-2.19,2.54h-15Z"/>
          <path class="cls-2" d="M279.91,189.07v-16.25c0-1.63,1.32-2.28,2.85-2.28s2.81.65,2.81,2.28v16.77c0,8.94-4.43,9.67-12.1,9.67s-11.88-.73-11.88-9.67v-16.77c0-1.63,1.32-2.28,2.85-2.28s2.85.65,2.85,2.28v16.25c0,4.43,1.67,5.16,6.18,5.16s6.45-.73,6.45-5.16Z"/>
          <path class="cls-2" d="M301.62,199.26c-5.13,0-10.35-.6-10.35-3.48,0-1.42.83-2.58,2.24-2.58,2.19,0,5.75.86,8.11.86,4.3,0,6.53-.95,6.53-3.57,0-6.28-16.66,1.03-16.66-11.74,0-5.68,3.64-8.3,12.06-8.3,5.09,0,9.21.65,9.21,3.14,0,1.55-1.05,2.49-2.46,2.49-2.1,0-4.96-.6-7.19-.6-4.12,0-5.96,1.2-5.96,3.23,0,6.45,16.62-.73,16.62,11.39,0,6.02-3.38,9.16-12.15,9.16Z"/>
          <path class="cls-2" d="M320.83,192.51c1.89,0,3.38,1.5,3.38,3.35s-1.49,3.31-3.38,3.31-3.33-1.38-3.33-3.31,1.4-3.35,3.33-3.35Z"/>
        </g>
      </g>
    </g>
  </g>
</svg>