<?xml version="1.0" encoding="UTF-8"?>
<svg id="Layer_2" data-name="Layer 2" xmlns="http://www.w3.org/2000/svg" xmlns:xlink="http://www.w3.org/1999/xlink" viewBox="0 0 500 1000">
  <defs>
    <style>
      .cls-1 {
        fill: none;
      }

      .cls-1, .cls-2 {
        stroke-width: 0px;
      }

      .cls-3 {
        clip-path: url(#clippath-1);
      }

      .cls-4 {
        clip-path: url(#clippath);
      }

      .cls-2 {
        fill: #fff;
      }
    </style>
    <clipPath id="clippath">
      <rect class="cls-1" width="500" height="1000"/>
    </clipPath>
    <clipPath id="clippath-1">
      <rect class="cls-1" width="500" height="1000"/>
    </clipPath>
  </defs>
  <g id="Layer_1-2" data-name="Layer 1">
    <g class="cls-4">
      <g class="cls-3">
        <g>
          <path class="cls-2" d="M52.98,138.03c0-9.16,2.72-10.71,10.52-10.71s10.48,1.55,10.48,10.71-2.5,11.22-10.48,11.22c-1.49,0-3.73-.3-4.87-.56h-.13v5.5c0,1.63-1.32,2.24-2.81,2.24s-2.72-.6-2.72-2.24v-16.17ZM63.51,132.09c-3.64,0-5.09.43-5.09,6.02s1.14,6.36,5.09,6.36,5.09-.6,5.09-6.36-1.05-6.02-5.09-6.02Z"/>
          <path class="cls-2" d="M98.37,146.24c0,1.29-.4,1.98-1.84,2.37-.88.26-3.68.65-7.15.65-7.85,0-10.39-1.89-10.39-8.13v-5.59c0-6.58,2.85-8.21,10.22-8.21s9.52,1.81,9.52,8.08v2.45c0,1.85-.7,2.49-2.32,2.49h-11.97v1.07c0,2.24,1.58,3.1,4.74,3.1,2.37,0,5.31-.39,6.93-.39s2.28.47,2.28,2.11ZM84.43,136.09h8.95v-.95c0-2.54-.96-3.18-4.47-3.18-3.29,0-4.47.56-4.47,3.18v.95Z"/>
          <path class="cls-2" d="M109.78,136.65v10.28c0,1.59-1.23,2.24-2.72,2.24s-2.72-.65-2.72-2.24v-10.53c0-8,1.97-9.07,9.91-9.07s10.04,1.07,10.04,9.07v10.53c0,1.59-1.23,2.24-2.72,2.24s-2.68-.65-2.68-2.24v-10.28c0-3.91-.61-4.56-4.65-4.56s-4.47.65-4.47,4.56Z"/>
          <path class="cls-2" d="M128.86,134.07c0-4,2.81-6.75,9.78-6.75,6.4,0,7.63,1.16,7.63,3.05,0,1.38-.57,2.11-2.37,2.11-1.32,0-2.63-.47-5.79-.47-2.63,0-3.82.52-3.82,1.55,0,3.35,12.85.69,12.85,8.9,0,4.77-3.42,6.79-9.65,6.79-7.54,0-8.51-1.12-8.51-2.88,0-1.5.61-2.32,2.41-2.32,1.36,0,2.81.52,5.92.52,2.81,0,4.38-.56,4.38-1.85,0-3.18-12.85-.69-12.85-8.64Z"/>
          <path class="cls-2" d="M153.81,119.58c1.71,0,3.11,1.38,3.11,3.05s-1.4,3.01-3.11,3.01-3.03-1.33-3.03-3.01,1.32-3.05,3.03-3.05ZM156.53,146.93c0,1.59-1.23,2.24-2.72,2.24s-2.72-.65-2.72-2.24v-17.24c0-1.59,1.23-2.28,2.72-2.28s2.72.69,2.72,2.28v17.24Z"/>
          <path class="cls-2" d="M181.79,146.24c0,1.29-.4,1.98-1.84,2.37-.88.26-3.68.65-7.15.65-7.85,0-10.39-1.89-10.39-8.13v-5.59c0-6.58,2.85-8.21,10.22-8.21s9.52,1.81,9.52,8.08v2.45c0,1.85-.7,2.49-2.32,2.49h-11.97v1.07c0,2.24,1.58,3.1,4.74,3.1,2.37,0,5.31-.39,6.93-.39s2.28.47,2.28,2.11ZM167.85,136.09h8.95v-.95c0-2.54-.96-3.18-4.47-3.18-3.29,0-4.47.56-4.47,3.18v.95Z"/>
          <path class="cls-2" d="M196.71,132.26c-2.94,0-3.51.39-3.51,3.27v11.39c0,1.59-1.18,2.24-2.67,2.24s-2.76-.65-2.76-2.24v-11.82c0-6.58,2.15-7.78,9.03-7.78,4.47,0,5.61,1.03,5.61,2.67,0,1.46-.83,2.45-2.37,2.45-.88,0-1.67-.17-3.33-.17Z"/>
          <path class="cls-2" d="M208.59,119.58c1.71,0,3.11,1.38,3.11,3.05s-1.4,3.01-3.11,3.01-3.03-1.33-3.03-3.01,1.32-3.05,3.03-3.05ZM211.31,146.93c0,1.59-1.23,2.24-2.72,2.24s-2.72-.65-2.72-2.24v-17.24c0-1.59,1.23-2.28,2.72-2.28s2.72.69,2.72,2.28v17.24Z"/>
          <path class="cls-2" d="M232.89,135.49v5.68c0,1.89.83,3.18,4.34,3.18,2.19,0,3.42-.43,5.17-.43,1.58,0,2.15.95,2.15,2.36,0,1.33-.61,2.06-1.89,2.41-.61.17-2.46.56-5.66.56-7.46,0-9.56-2.58-9.56-7.87v-6.02c0-6.15,2.41-8.04,9.91-8.04,6.71,0,7.19,1.07,7.19,3.01,0,1.38-.48,2.24-2.06,2.24s-2.85-.39-5.26-.39c-3.38,0-4.34,1.03-4.34,3.31Z"/>
          <path class="cls-2" d="M257.28,127.32c7.85,0,10.57,2.11,10.57,11.18s-2.72,10.75-10.57,10.75-10.53-1.63-10.53-10.75,2.59-11.18,10.53-11.18ZM257.28,144.48c3.95,0,5.13-.47,5.13-6.06s-1.18-6.32-5.13-6.32-5.09.56-5.09,6.32,1.05,6.06,5.09,6.06Z"/>
          <path class="cls-2" d="M278.55,136.65v10.28c0,1.59-1.23,2.24-2.72,2.24s-2.72-.65-2.72-2.24v-10.53c0-8,1.97-9.07,9.91-9.07s10.04,1.07,10.04,9.07v10.53c0,1.59-1.23,2.24-2.72,2.24s-2.68-.65-2.68-2.24v-10.28c0-3.91-.61-4.56-4.65-4.56s-4.47.65-4.47,4.56Z"/>
        </g>
      </g>
    </g>
  </g>
</svg>