<?xml version="1.0" encoding="UTF-8"?>
<svg id="Layer_2" data-name="Layer 2" xmlns="http://www.w3.org/2000/svg" xmlns:xlink="http://www.w3.org/1999/xlink" viewBox="0 0 500 1000">
  <defs>
    <style>
      .cls-1 {
        fill: #000;
      }

      .cls-1, .cls-2 {
        stroke-width: 0px;
      }

      .cls-2 {
        fill: none;
      }

      .cls-3 {
        clip-path: url(#clippath);
      }
    </style>
    <clipPath id="clippath">
      <rect class="cls-2" width="500" height="1000"/>
    </clipPath>
  </defs>
  <g id="Layer_1-2" data-name="Layer 1">
    <g class="cls-3">
      <g>
        <path class="cls-1" d="M68.99,231.41c0-3.87-2.1-4.94-7.59-5.76-5.57-.82-9.6-2.28-9.6-7.74s3.46-7.48,10.35-7.48c3.33,0,6.4.3,7.19.52.7.17,1.01.6,1.01,1.12,0,.73-.53,1.12-1.14,1.12-.7,0-3.64-.52-7.19-.52-5.04,0-7.59,1.5-7.59,5.16s3.38,4.9,7.98,5.59c6.4.95,9.21,2.32,9.21,7.87,0,6.23-4.04,7.96-11.05,7.96-3.64,0-6.75-.3-7.98-.73-.75-.26-.88-.6-.88-1.03,0-.86.48-1.07,1.1-1.07,1.05,0,3.77.69,8.07.69,5.13,0,8.11-1.29,8.11-5.68Z"/>
        <path class="cls-1" d="M94.47,237.61c0,.39-.09.77-.83.99-1.1.34-4.21.65-7.37.65-7.46,0-9.87-2.54-9.87-7.44v-7.52c0-4.94,2.98-6.71,9.56-6.71s9.03,1.89,9.03,6.54v3.14c0,1.33-.66,2.02-1.84,2.02h-14.3v2.45c0,3.53,1.93,5.42,7.46,5.42,3.51,0,6.62-.6,7.32-.6.48,0,.83.3.83,1.07ZM78.86,227.24h13.68v-3.4c0-2.62-1.32-4.26-6.67-4.26s-7.02,1.59-7.02,4.52v3.14Z"/>
        <path class="cls-1" d="M103.51,238.08c0,.65-.57.99-1.23.99-.7,0-1.23-.34-1.23-1.07v-13.2c0-5.42,2.02-7.22,7.94-7.22,1.58,0,3.29.09,3.99.26.7.17.92.56.92,1.08,0,.77-.53.99-1.14.99-.83,0-1.84-.22-3.86-.22-4.39,0-5.39,1.25-5.39,5.46v12.94Z"/>
        <path class="cls-1" d="M122.67,237.22l-7.72-17.89c-.66-1.55,1.93-2.24,2.59-.69l7.46,18.1h.75l7.46-18.1c.66-1.55,3.25-.86,2.59.69l-7.72,17.89c-.48,1.12-1.4,2.02-2.72,2.02s-2.19-.9-2.67-2.02Z"/>
        <path class="cls-1" d="M141.45,210.43c.96,0,1.75.77,1.75,1.72s-.79,1.72-1.75,1.72-1.8-.77-1.8-1.72.79-1.72,1.8-1.72ZM142.67,238.08c0,.65-.57.99-1.23.99-.7,0-1.23-.34-1.23-1.07v-19.18c0-.73.53-1.08,1.23-1.08.66,0,1.23.34,1.23.99v19.35Z"/>
        <path class="cls-1" d="M149.25,224.84c0-4.86,2.24-7.27,9.74-7.27,3.25,0,5.31.3,6.05.52s1.01.56,1.01,1.07c0,.73-.53,1.03-1.1,1.03-.7,0-3.11-.52-6.05-.52-5.57,0-7.19,1.85-7.19,5.03v7.31c0,3.53,1.93,5.12,7.24,5.12,3.16,0,5.44-.65,6.32-.65.48,0,1.05.17,1.05,1.03,0,.52-.22.82-.83,1.03-.88.3-3.64.69-6.97.69-7.02,0-9.25-2.41-9.25-7.35v-7.05Z"/>
        <path class="cls-1" d="M172.1,210.43c.96,0,1.75.77,1.75,1.72s-.79,1.72-1.75,1.72-1.8-.77-1.8-1.72.79-1.72,1.8-1.72ZM173.33,238.08c0,.65-.57.99-1.23.99-.7,0-1.23-.34-1.23-1.07v-19.18c0-.73.53-1.08,1.23-1.08.66,0,1.23.34,1.23.99v19.35Z"/>
        <path class="cls-1" d="M189.47,217.57c7.5,0,10.04,2.15,10.04,11.05s-2.67,10.62-10.04,10.62-10-1.72-10-10.62,2.5-11.05,10-11.05ZM189.47,237.22c5.66,0,7.59-1.16,7.59-8.69s-1.97-8.94-7.59-8.94-7.54,1.2-7.54,8.94,1.84,8.69,7.54,8.69Z"/>
        <path class="cls-1" d="M206.01,235.33c1.1,0,1.97.86,1.97,1.85,0,1.12-.88,1.93-1.97,1.93s-1.93-.82-1.93-1.93c0-.99.88-1.85,1.93-1.85Z"/>
      </g>
    </g>
  </g>
</svg>