<?xml version="1.0" encoding="UTF-8"?>
<svg id="Layer_2" data-name="Layer 2" xmlns="http://www.w3.org/2000/svg" xmlns:xlink="http://www.w3.org/1999/xlink" viewBox="0 0 500 1000">
  <defs>
    <style>
      .cls-1 {
        fill: #000;
      }

      .cls-1, .cls-2 {
        stroke-width: 0px;
      }

      .cls-2 {
        fill: none;
      }

      .cls-3 {
        clip-path: url(#clippath);
      }
    </style>
    <clipPath id="clippath">
      <rect class="cls-2" width="500" height="1000"/>
    </clipPath>
  </defs>
  <g id="Layer_1-2" data-name="Layer 1">
    <g class="cls-3">
      <g>
        <path class="cls-1" d="M67.19,392.54l10.83,24.81c.75,1.72-1.97,2.32-2.63.73l-3.99-9.42h-14.12l-3.99,9.42c-.66,1.59-3.38.99-2.63-.73l10.92-24.81c.48-1.12,1.45-2.15,2.81-2.15s2.32,1.03,2.81,2.15ZM58.2,406.51h12.28l-5.79-13.59h-.7l-5.79,13.59Z"/>
        <path class="cls-1" d="M94.43,413.52c0-6.23-13.99-2.36-13.99-10.45,0-3.87,3.2-5.55,8.99-5.55,2.32,0,4.34.26,5.39.56.7.21,1.01.34,1.01.95,0,.86-.57,1.12-1.05,1.12-.7,0-2.89-.6-5.75-.6-3.99,0-6.14,1.25-6.14,3.44,0,5.59,13.99,2.28,13.99,10.58,0,3.61-2.63,5.63-9.21,5.63-3.77,0-6.18-.65-6.88-.9-.61-.21-.83-.52-.83-1.03,0-.86.57-1.03,1.01-1.03,1.05,0,3.16.95,7.06.95,4.52,0,6.4-1.33,6.4-3.66Z"/>
        <path class="cls-1" d="M113.16,413.52c0-6.23-13.99-2.36-13.99-10.45,0-3.87,3.2-5.55,8.99-5.55,2.32,0,4.34.26,5.39.56.7.21,1.01.34,1.01.95,0,.86-.57,1.12-1.05,1.12-.7,0-2.89-.6-5.75-.6-3.99,0-6.14,1.25-6.14,3.44,0,5.59,13.99,2.28,13.99,10.58,0,3.61-2.63,5.63-9.21,5.63-3.77,0-6.18-.65-6.88-.9-.61-.21-.83-.52-.83-1.03,0-.86.57-1.03,1.01-1.03,1.05,0,3.16.95,7.06.95,4.52,0,6.4-1.33,6.4-3.66Z"/>
        <path class="cls-1" d="M121.27,390.39c.96,0,1.75.77,1.75,1.72s-.79,1.72-1.75,1.72-1.8-.77-1.8-1.72.79-1.72,1.8-1.72ZM122.5,418.03c0,.65-.57.99-1.23.99-.7,0-1.23-.34-1.23-1.07v-19.18c0-.73.53-1.08,1.23-1.08.66,0,1.23.34,1.23.99v19.35Z"/>
        <path class="cls-1" d="M129.08,404.79c0-4.86,2.24-7.27,9.74-7.27,3.25,0,5.31.3,6.05.52s1.01.56,1.01,1.07c0,.73-.53,1.03-1.1,1.03-.7,0-3.11-.52-6.05-.52-5.57,0-7.19,1.85-7.19,5.03v7.31c0,3.53,1.93,5.12,7.24,5.12,3.16,0,5.44-.65,6.32-.65.48,0,1.05.17,1.05,1.03,0,.52-.22.82-.83,1.03-.88.3-3.64.69-6.97.69-7.02,0-9.25-2.41-9.25-7.35v-7.05Z"/>
        <path class="cls-1" d="M165.65,410.77v-12.08c0-.65.57-.99,1.23-.99s1.23.34,1.23,1.08v11.91c0,7.65-2.06,8.51-9.03,8.51-7.41,0-9.03-.86-9.03-8.51v-11.91c0-.73.53-1.08,1.23-1.08.66,0,1.23.34,1.23.99v12.08c0,5.76.88,6.41,6.58,6.41,4.82,0,6.58-.65,6.58-6.41Z"/>
        <path class="cls-1" d="M177.5,418.03c0,.65-.57.99-1.23.99-.7,0-1.23-.34-1.23-1.07v-13.2c0-5.42,2.02-7.22,7.94-7.22,1.58,0,3.29.09,3.99.26.7.17.92.56.92,1.07,0,.77-.53.99-1.14.99-.83,0-1.84-.21-3.86-.21-4.39,0-5.39,1.25-5.39,5.46v12.94Z"/>
        <path class="cls-1" d="M190.3,399.16c0-.6.31-.99.83-1.12.79-.17,3.86-.52,7.72-.52,7.06,0,9.03,1.46,9.03,6.15v9.5c0,5.25-2.19,6.02-9.6,6.02s-8.99-1.25-8.99-5.98,1.49-6.32,8.55-6.32h7.59v-3.53c0-2.97-1.75-3.83-6.8-3.83-4.34,0-6.23.6-7.46.6-.44,0-.88-.34-.88-.99ZM205.43,408.92h-7.63c-5,0-6.05,1.07-6.05,4.08,0,3.18,1.32,4.17,6.62,4.17,5.79,0,7.06-.6,7.06-3.91v-4.34Z"/>
        <path class="cls-1" d="M226.75,399.97h-13.55c-.48,0-.92-.43-.92-1.03s.44-.99.92-.99h15.35c1.1,0,1.54.77,1.54,1.46,0,.34-.09.65-.26.86l-14.82,16.3v.17h14.69c.48,0,.92.43.92,1.03s-.44.99-.92.99h-16.71c-1.01,0-1.36-.6-1.36-1.2,0-.43.17-.86.39-1.12l14.73-16.3v-.17Z"/>
        <path class="cls-1" d="M236.62,390.39c.96,0,1.75.77,1.75,1.72s-.79,1.72-1.75,1.72-1.8-.77-1.8-1.72.79-1.72,1.8-1.72ZM237.85,418.03c0,.65-.57.99-1.23.99-.7,0-1.23-.34-1.23-1.07v-19.18c0-.73.53-1.08,1.23-1.08.66,0,1.23.34,1.23.99v19.35Z"/>
        <path class="cls-1" d="M253.99,397.52c7.5,0,10.04,2.15,10.04,11.05s-2.67,10.62-10.04,10.62-10-1.72-10-10.62,2.5-11.05,10-11.05ZM253.99,417.17c5.66,0,7.59-1.16,7.59-8.69s-1.97-8.94-7.59-8.94-7.54,1.2-7.54,8.94,1.84,8.69,7.54,8.69Z"/>
        <path class="cls-1" d="M272.54,405.95v12.08c0,.65-.57.99-1.23.99-.7,0-1.23-.34-1.23-1.07v-11.91c0-7.65,1.8-8.51,9.21-8.51,6.97,0,9.21.86,9.21,8.51v11.91c0,.73-.57,1.07-1.23,1.07s-1.23-.34-1.23-.99v-12.08c0-5.76-1.93-6.41-6.75-6.41-5.7,0-6.75.65-6.75,6.41Z"/>
        <path class="cls-1" d="M313.24,417.56c0,.39-.09.77-.83.99-1.1.34-4.21.65-7.37.65-7.46,0-9.87-2.54-9.87-7.44v-7.52c0-4.94,2.98-6.71,9.56-6.71s9.03,1.89,9.03,6.54v3.14c0,1.33-.66,2.02-1.84,2.02h-14.3v2.45c0,3.53,1.93,5.42,7.46,5.42,3.51,0,6.62-.6,7.32-.6.48,0,.83.3.83,1.07ZM297.63,407.2h13.68v-3.4c0-2.62-1.32-4.26-6.67-4.26s-7.02,1.59-7.02,4.52v3.14Z"/>
        <path class="cls-1" d="M321.18,415.28c1.1,0,1.97.86,1.97,1.85,0,1.12-.88,1.93-1.97,1.93s-1.93-.82-1.93-1.93c0-.99.88-1.85,1.93-1.85Z"/>
      </g>
    </g>
  </g>
</svg>