<?xml version="1.0" encoding="UTF-8"?>
<svg id="Layer_2" data-name="Layer 2" xmlns="http://www.w3.org/2000/svg" xmlns:xlink="http://www.w3.org/1999/xlink" viewBox="0 0 500 1000">
  <defs>
    <style>
      .cls-1 {
        fill: none;
      }

      .cls-1, .cls-2, .cls-3 {
        stroke-width: 0px;
      }

      .cls-4 {
        clip-path: url(#clippath);
      }

      .cls-2 {
        fill: #fff;
      }

      .cls-3 {
        fill: #0254a6;
      }
    </style>
    <clipPath id="clippath">
      <rect class="cls-1" width="500" height="1000"/>
    </clipPath>
  </defs>
  <g id="Layer_1-2" data-name="Layer 1">
    <g class="cls-4">
      <rect class="cls-3" x="50" y="861.06" width="160" height="68.94"/>
      <g>
        <path class="cls-2" d="M79.49,902.43c-2.34,0-4.72-.28-4.72-1.62,0-.66.38-1.2,1.02-1.2,1,0,2.62.4,3.7.4,1.96,0,2.98-.44,2.98-1.66,0-2.92-7.6.48-7.6-5.46,0-2.64,1.66-3.86,5.5-3.86,2.32,0,4.2.3,4.2,1.46,0,.72-.48,1.16-1.12,1.16-.96,0-2.26-.28-3.28-.28-1.88,0-2.72.56-2.72,1.5,0,3,7.58-.34,7.58,5.3,0,2.8-1.54,4.26-5.54,4.26Z"/>
        <path class="cls-2" d="M89.83,896.03v2.64c0,.88.38,1.48,1.98,1.48,1,0,1.56-.2,2.36-.2.72,0,.98.44.98,1.1,0,.62-.28.96-.86,1.12-.28.08-1.12.26-2.58.26-3.4,0-4.36-1.2-4.36-3.66v-2.8c0-2.86,1.1-3.74,4.52-3.74,3.06,0,3.28.5,3.28,1.4,0,.64-.22,1.04-.94,1.04s-1.3-.18-2.4-.18c-1.54,0-1.98.48-1.98,1.54Z"/>
        <path class="cls-2" d="M100.96,892.23c3.58,0,4.82.98,4.82,5.2s-1.24,5-4.82,5-4.8-.76-4.8-5,1.18-5.2,4.8-5.2ZM100.96,900.21c1.8,0,2.34-.22,2.34-2.82s-.54-2.94-2.34-2.94-2.32.26-2.32,2.94.48,2.82,2.32,2.82Z"/>
        <path class="cls-2" d="M108.14,897.21c0-4.26,1.24-4.98,4.8-4.98s4.78.72,4.78,4.98-1.14,5.22-4.78,5.22c-.68,0-1.7-.14-2.22-.26h-.06v2.56c0,.76-.6,1.04-1.28,1.04s-1.24-.28-1.24-1.04v-7.52ZM112.94,894.45c-1.66,0-2.32.2-2.32,2.8s.52,2.96,2.32,2.96,2.32-.28,2.32-2.96-.48-2.8-2.32-2.8Z"/>
        <path class="cls-2" d="M124.2,894.53c-1.34,0-1.6.18-1.6,1.52v5.3c0,.74-.54,1.04-1.22,1.04s-1.26-.3-1.26-1.04v-5.5c0-3.06.98-3.62,4.12-3.62,2.04,0,2.56.48,2.56,1.24,0,.68-.38,1.14-1.08,1.14-.4,0-.76-.08-1.52-.08Z"/>
        <path class="cls-2" d="M129.62,888.63c.78,0,1.42.64,1.42,1.42s-.64,1.4-1.42,1.4-1.38-.62-1.38-1.4.6-1.42,1.38-1.42ZM130.86,901.35c0,.74-.56,1.04-1.24,1.04s-1.24-.3-1.24-1.04v-8.02c0-.74.56-1.06,1.24-1.06s1.24.32,1.24,1.06v8.02Z"/>
        <path class="cls-2" d="M137.38,900.21c.6,0,.94-.06,1.36-.06.66,0,.94.34.94.98,0,.92-.44,1.3-2.68,1.3-1.9,0-2.84-.52-2.84-2.76v-4.96h-.98c-.7,0-.96-.48-.96-1.14s.26-1.14.96-1.14h.98v-1.58c0-.72.56-1.02,1.22-1.02.7,0,1.26.3,1.26,1.02v1.58h2.06c.7,0,.9.5.9,1.14s-.2,1.14-.9,1.14h-2.06v4.76c0,.56.34.74.74.74Z"/>
        <path class="cls-2" d="M149.78,901.03c0,.6-.18.92-.84,1.1-.4.12-1.68.3-3.26.3-3.58,0-4.74-.88-4.74-3.78v-2.6c0-3.06,1.3-3.82,4.66-3.82s4.34.84,4.34,3.76v1.14c0,.86-.32,1.16-1.06,1.16h-5.46v.5c0,1.04.72,1.44,2.16,1.44,1.08,0,2.42-.18,3.16-.18s1.04.22,1.04.98ZM143.42,896.31h4.08v-.44c0-1.18-.44-1.48-2.04-1.48-1.5,0-2.04.26-2.04,1.48v.44Z"/>
        <path class="cls-2" d="M161.58,892.23c3.58,0,4.82.98,4.82,5.2s-1.24,5-4.82,5-4.8-.76-4.8-5,1.18-5.2,4.8-5.2ZM161.58,900.21c1.8,0,2.34-.22,2.34-2.82s-.54-2.94-2.34-2.94-2.32.26-2.32,2.94.48,2.82,2.32,2.82Z"/>
        <path class="cls-2" d="M172.89,894.53c-1.34,0-1.6.18-1.6,1.52v5.3c0,.74-.54,1.04-1.22,1.04s-1.26-.3-1.26-1.04v-5.5c0-3.06.98-3.62,4.12-3.62,2.04,0,2.56.48,2.56,1.24,0,.68-.38,1.14-1.08,1.14-.4,0-.76-.08-1.52-.08Z"/>
        <path class="cls-2" d="M176.55,893.61c0-.9.76-1.38,3.76-1.38,3.7,0,4.62.58,4.62,3.3v3.78c0,2.64-1.18,3.12-4.62,3.12s-4.32-.48-4.32-3.18c0-2.22.54-3.12,4.2-3.12h2.28v-.4c0-.98-.38-1.22-1.88-1.22s-2.4.24-2.98.24c-.78,0-1.06-.44-1.06-1.14ZM182.47,898.15h-2.42c-1.38,0-1.64.24-1.64,1.02,0,.84.3,1.08,1.98,1.08s2.08-.2,2.08-.76v-1.34Z"/>
      </g>
    </g>
  </g>
</svg>