<svg xmlns="http://www.w3.org/2000/svg" viewBox="0 0 374.49 376.74"><defs><style>.cls-1{fill:#3c7a52;}</style></defs><title>leaf3</title><g id="Layer_2" data-name="Layer 2"><g id="Dark_Green_Leaves_3" data-name="Dark Green Leaves 3"><path class="cls-1" d="M374.49,247.7c-8.68,6.69-13,5.66-18.06-4.62-13.54-27.71-26.46-55.73-44.41-81-17.61-24.84-35.22-49.68-57-71.11C239.35,75.62,219.43,66.87,200.88,56c-.47-.28-1.24,0-2.8,0,.35,1.85.51,3.41.93,4.89,11.62,40.55,21.23,81.69,24.78,123.66,3.24,38.27,3.43,76.85,3.66,115.31.1,16.59-3,33.21-4.81,49.81-.56,5.12-3.35,8.76-8.88,8.47s-7.62-4.49-8.44-9.29c-3.1-18.17-5.17-36.58-9.35-54.49-5.46-23.39-11-47-19.34-69.43-11.09-29.85-24.45-58.9-37.69-87.9A162.09,162.09,0,0,0,97.17,81c-1.76-1.52-3.66-2.9-6.75-5.34-.3,3.32-.54,5.28-.65,7.25-1.75,33.21-2.8,66.47-5.45,99.6-2.1,26.15-5.2,52.32-9.61,78.18-5.28,31-12,61.8-24.11,91-3,7.19-7,14-10.94,20.72-3.54,6-8.42,5.74-10.92-.71A49.44,49.44,0,0,1,25,355.49c-.7-29.35,0-58.76-1.5-88.06-1.28-25.55-4.1-51.08-7.47-76.46C11.54,157,5.63,123.22.74,89.3-1.79,71.78,2.1,56.15,13.86,41.92,34.42,17.06,60.41,4,92.28,2.41,116,1.27,139.81-1.1,163.33.58c51.73,3.7,100.47,17.31,142.31,50.16,19.87,15.6,30.7,36.6,39.19,59.54a583.77,583.77,0,0,1,27.59,101.55,36.74,36.74,0,0,0,2.07,5.85Z"/></g></g></svg>