<?xml version="1.0" encoding="UTF-8"?><svg id="Layer_2" xmlns="http://www.w3.org/2000/svg" viewBox="0 0 388.34 56.1"><defs><style>.cls-1{fill:#fff;}</style></defs><g id="Layer_1-2"><g><polygon class="cls-1" points="39.05 24.33 17.44 24.33 17.21 24.33 17.25 24.1 19.72 10.08 19.75 9.92 19.91 9.92 44.74 9.92 46.17 1.76 9.41 1.76 0 55.14 11.78 55.14 15.86 32 15.88 31.84 16.05 31.84 37.73 31.84 39.05 24.33"/><path class="cls-1" d="M144.42,1.76l-2.35,13.3-.03,.18-.18-.02c-.89-.08-1.77-.19-2.62-.3-1.66-.21-3.38-.42-5.13-.42-14.64,0-24.83,8.29-27.28,22.17-1.04,5.93,.01,11.14,2.98,14.67,2.62,3.12,6.51,4.77,11.25,4.77,6.22,0,10.88-2.27,15.1-7.35l.21-.18,.41-.35-.09,.53-1.13,6.38h10.33L155.31,1.76h-10.89Zm-3.77,21.36l-2.27,12.89c-1.33,7.52-7.51,12.57-12.45,12.57-2.74,0-4.87-.88-6.34-2.62-1.9-2.26-2.49-5.78-1.71-10.18,.91-5.15,4.35-13.78,17.18-13.78,1.8,0,3.59,.29,5.46,.9l.16,.05-.03,.17Z"/><path class="cls-1" d="M164.85,45.51c-1.76-2.1-2.38-4.98-1.78-8.35l.23-1.29,.03-.16h29.02l.53-2.98c.99-5.62,.16-10.07-2.47-13.2-2.76-3.29-7.46-5.03-13.59-5.03-12.92,0-22.01,7.8-24.31,20.88-1.07,6.07,0,11.22,3.07,14.89,3.2,3.82,8.46,5.84,15.21,5.84,5.02,0,9.41-.46,14.21-1.5l1.34-7.69c-3.87,1.13-8.03,2.16-12.31,2.16-3.98,0-7.23-1.27-9.16-3.57Zm-.6-15.05c1.46-5.77,5.92-9.5,11.35-9.5,2.83,0,4.9,.76,6.15,2.25,1.35,1.61,1.75,4.08,1.17,7.33l-.03,.16h-18.71l.06-.24Z"/><path class="cls-1" d="M223.7,14.86c-1.15-.25-2.16-.36-3.17-.36-4.5,0-8.21,2.03-11.35,6.21l-.15,.2-.16-.19-.13-.16-.06-.07,.02-.09,.87-4.93h-10.33l-6.99,39.67h10.89l3.55-20.15c1.35-7.64,5.64-11.85,12.09-11.85,1.12,0,2.18,.12,3.51,.41l1.42-8.69Z"/><polygon class="cls-1" points="227.02 15.47 220.02 55.14 230.92 55.14 237.91 15.47 227.02 15.47"/><path class="cls-1" d="M237.34,34.57c-1.25,7.08-.31,12.55,2.79,16.25,2.94,3.51,7.7,5.29,14.14,5.29,3.61,0,7.24-.44,11.12-1.34l1.42-7.87c-2.95,1.11-6.02,1.69-8.88,1.69-3.47,0-6.12-1.01-7.85-2.99-1.91-2.18-2.63-5.52-2.08-9.64,1.1-8.73,6.42-13.95,14.23-13.95,2.9,0,5.85,.59,8.76,1.76,.06,.02,.12,.05,.19,.08l1.46-7.87c-3.51-.98-7.33-1.48-11.36-1.48-12.96,0-21.68,7.32-23.93,20.07Z"/><path class="cls-1" d="M288.21,46.7c-.92-1.1-1.11-2.88-.6-5.76l3.14-17.81,.03-.16h10.06c.04-.06,.09-.13,.13-.19l1.29-7.32h-10.16l.04-.23,1.64-9.31-11.34,2.57-1.2,6.8-.03,.16h-5.64l-1.32,7.51h5.64l-.04,.23-4.01,22.73c-.61,3.44-.24,5.9,1.12,7.52,1.52,1.81,4.31,2.65,8.78,2.65,3.21,0,6.1-.37,9.07-1.17l1.25-7.37c-1.48,.26-2.98,.39-4.46,.39-1.58,0-2.69-.41-3.39-1.24Z"/><path class="cls-1" d="M88.53,14.5c-12.92,0-22.01,7.8-24.31,20.88-1.07,6.07,0,11.22,3.07,14.89,3.2,3.82,8.46,5.84,15.21,5.84,5.02,0,9.41-.46,14.21-1.5l1.34-7.69c-3.87,1.13-8.03,2.16-12.31,2.16-3.98,0-7.23-1.27-9.16-3.57-1.76-2.1-2.38-4.98-1.78-8.35l.23-1.29,.03-.16h29.02l.53-2.98c.99-5.62,.16-10.07-2.47-13.2-2.76-3.29-7.46-5.03-13.59-5.03Zm6.12,16.04l-.03,.16h-18.71l.06-.24c1.46-5.77,5.92-9.5,11.35-9.5,2.83,0,4.9,.76,6.15,2.25,1.35,1.61,1.75,4.08,1.17,7.33Z"/><path class="cls-1" d="M67.79,14.86c-1.15-.25-2.16-.36-3.17-.36-4.5,0-8.21,2.03-11.35,6.21l-.15,.2-.41-.04,.08-.46,.87-4.93h-10.33l-6.99,39.67h10.89l3.55-20.15c1.35-7.64,5.64-11.85,12.09-11.85,1.12,0,2.18,.12,3.51,.41l1.42-8.69Z"/><path class="cls-1" d="M233.43,11.87c3.43,0,6.62-2.66,7.1-5.93,.48-3.27-1.92-5.93-5.35-5.93s-6.62,2.66-7.1,5.93c-.48,3.27,1.92,5.93,5.35,5.93Z"/><path class="cls-1" d="M343.76,41.29l-2.44,13.85h10.89l1.87-10.62c-2.55-.54-5.16-1.32-7.76-2.33-.85-.33-1.71-.63-2.56-.9Z"/><path class="cls-1" d="M372.27,55.14h10.89l3.2-18.14c-3.68,2.95-7.73,5.16-12.05,6.59l-2.04,11.55Z"/><path class="cls-1" d="M386.4,18.4c-2.17-2.59-6.09-3.91-11.64-3.91-7.62,0-12.62,2.36-16.2,7.65l-.15,.21-.16-.2-.13-.16-.06-.07,.02-.09,1.13-6.38h-10.89l-2.27,12.89c2.2,1.01,4.38,2.23,6.5,3.62,1.2,.79,2.45,1.49,3.73,2.09,2.38-7.56,6.45-10.94,13.19-10.94,2.68,0,4.95,.87,6.22,2.39,.98,1.17,1.34,2.68,1.04,4.37l-1.16,6.58c3.58-.55,7.34-1.61,10.95-3.07l.56-.21,1.01-5.94c.66-3.75,.1-6.73-1.68-8.84Z"/><path class="cls-1" d="M340.31,29.02c-6.04-1.76-12.48-2.33-18.69-1.2-2.56,.46-5.03,1.18-7.46,2.02-1.11,1.94-1.7,4.09-2,5.78,7.94-3.36,15.1-5.7,25.23-3.78,5.19,.78,9.53,3.03,14.34,5.41,6.36,3.24,13.9,4.8,20.96,3.27,3.4-.63,6.89-1.97,10.05-3.35,.02-.07-2.52,.79-2.52,.77-2.39,.78-5.17,1.35-7.67,1.62-6.96,.9-13.68-1.05-19.67-4.55-2.66-1.44-5.25-3.13-8.18-4.44l-3.08-1.11c-.43-.16-.86-.3-1.3-.44Z"/><path class="cls-1" d="M345.8,36.2c-10.93-5.44-23.14-3.14-33.93,1.76-.11,1.82,.07,3.39,.56,4.62,5.12-2.61,10.49-4.68,16.07-5.51l.71-.1c2.33-.3,4.7-.38,7.11-.18,2.01,.14,3.93,.61,5.8,1.22l2.46,.88c2.82,1.09,5.6,2.37,8.51,3.28,5.82,1.9,12.11,2.82,18.1,1.79-5.86-.19-11.93-1.47-17.31-3.9-2.73-1.16-5.35-2.51-8.1-3.86Z"/><path class="cls-1" d="M330.43,39.61c-2.25,5.79-6.58,8.98-12.2,8.98-3.09,0-5.45-.95-7.02-2.82-.47-.56-.86-1.21-1.18-1.93-.57-1.3-.85-2.84-.89-4.58,0-.26-.02-.51-.01-.79,.01-.52,.05-1.05,.11-1.6,.06-.54,.13-1.09,.23-1.66,.26-1.46,.62-2.8,1.08-4.04,2.17-5.88,6.5-9.18,12.29-9.18,2.88,0,5.14,.81,6.7,2.42,4.39,.12,8.76,.96,12.98,2.48-1.62-7.9-8.26-12.42-18.29-12.42-6.75,0-12.72,2.02-17.29,5.85-4.41,3.7-7.32,8.9-8.4,15.03-.27,1.52-.4,2.98-.4,4.37,0,4.18,1.17,7.77,3.48,10.52,3.2,3.82,8.46,5.84,15.21,5.84,11.36,0,20.39-5.81,24.21-15.56-2.79-.66-5.61-1-8.39-1-.74,0-1.48,.02-2.22,.07Z"/></g></g></svg>