<svg enable-background="new 0 0 320 50" viewBox="0 0 320 50" xmlns="http://www.w3.org/2000/svg" xmlns:xlink="http://www.w3.org/1999/xlink"><linearGradient id="a" gradientTransform="matrix(305 0 0 -37 -905 5266)" gradientUnits="userSpaceOnUse" x1="2.9672" x2="3.9672" y1="141.8243" y2="141.8243"><stop offset="0" stop-color="#d49442"/><stop offset="1" stop-color="#936f44"/></linearGradient><mask id="b" height="8.3" maskUnits="userSpaceOnUse" width="1.8" x="52.8" y=".2"><path clip-rule="evenodd" d="m0 23h179.9v-23h-179.9z" fill="#fff" fill-rule="evenodd"/></mask><mask id="c" height="8.7" maskUnits="userSpaceOnUse" width="7.7" x="59.5" y="0"><path clip-rule="evenodd" d="m0 23h179.9v-23h-179.9z" fill="#fff" fill-rule="evenodd"/></mask><mask id="d" height="8.3" maskUnits="userSpaceOnUse" width="7" x="72.5" y=".2"><path clip-rule="evenodd" d="m0 23h179.9v-23h-179.9z" fill="#fff" fill-rule="evenodd"/></mask><mask id="e" height="8.5" maskUnits="userSpaceOnUse" width="7.1" x="91.3" y=".2"><path clip-rule="evenodd" d="m0 23h179.9v-23h-179.9z" fill="#fff" fill-rule="evenodd"/></mask><mask id="f" height="8.3" maskUnits="userSpaceOnUse" width="6.6" x="103.6" y=".2"><path clip-rule="evenodd" d="m0 23h179.9v-23h-179.9z" fill="#fff" fill-rule="evenodd"/></mask><mask id="g" height="8.3" maskUnits="userSpaceOnUse" width="8.1" x="120.8" y=".2"><path clip-rule="evenodd" d="m0 23h179.9v-23h-179.9z" fill="#fff" fill-rule="evenodd"/></mask><mask id="h" height="8.3" maskUnits="userSpaceOnUse" width="6.8" x="131.8" y=".2"><path clip-rule="evenodd" d="m0 23h179.9v-23h-179.9z" fill="#fff" fill-rule="evenodd"/></mask><mask id="i" height="8.3" maskUnits="userSpaceOnUse" width="5.9" x="0" y="14.5"><path clip-rule="evenodd" d="m0 23h179.9v-23h-179.9z" fill="#fff" fill-rule="evenodd"/></mask><mask id="j" height="8.7" maskUnits="userSpaceOnUse" width="8.2" x="10" y="14.3"><path clip-rule="evenodd" d="m0 23h179.9v-23h-179.9z" fill="#fff" fill-rule="evenodd"/></mask><mask id="k" height="8.3" maskUnits="userSpaceOnUse" width="7.2" x="23.1" y="14.5"><path clip-rule="evenodd" d="m0 23h179.9v-23h-179.9z" fill="#fff" fill-rule="evenodd"/></mask><mask id="l" height="8.3" maskUnits="userSpaceOnUse" width="8.1" x="34.5" y="14.5"><path clip-rule="evenodd" d="m0 23h179.9v-23h-179.9z" fill="#fff" fill-rule="evenodd"/></mask><mask id="m" height="8.7" maskUnits="userSpaceOnUse" width="7" x="46.5" y="14.3"><path clip-rule="evenodd" d="m0 23h179.9v-23h-179.9z" fill="#fff" fill-rule="evenodd"/></mask><mask id="n" height="1.8" maskUnits="userSpaceOnUse" width="1.8" x="58.3" y="21"><path clip-rule="evenodd" d="m0 23h179.9v-23h-179.9z" fill="#fff" fill-rule="evenodd"/></mask><mask id="o" height="8.7" maskUnits="userSpaceOnUse" width="7.8" x="64.6" y="14.3"><path clip-rule="evenodd" d="m0 23h179.9v-23h-179.9z" fill="#fff" fill-rule="evenodd"/></mask><mask id="p" height="8.7" maskUnits="userSpaceOnUse" width="8.2" x="76.9" y="14.3"><path clip-rule="evenodd" d="m0 23h179.9v-23h-179.9z" fill="#fff" fill-rule="evenodd"/></mask><mask id="q" height="1.8" maskUnits="userSpaceOnUse" width="1.8" x="89.6" y="21"><path clip-rule="evenodd" d="m0 23h179.9v-23h-179.9z" fill="#fff" fill-rule="evenodd"/></mask><mask id="r" height="8.5" maskUnits="userSpaceOnUse" width="7.1" x="96.4" y="14.5"><path clip-rule="evenodd" d="m0 23h179.9v-23h-179.9z" fill="#fff" fill-rule="evenodd"/></mask><mask id="s" height="8.3" maskUnits="userSpaceOnUse" width="7.7" x="108.7" y="14.5"><path clip-rule="evenodd" d="m0 23h179.9v-23h-179.9z" fill="#fff" fill-rule="evenodd"/></mask><mask id="t" height="8.7" maskUnits="userSpaceOnUse" width="4.6" x="120.4" y="14.3"><path clip-rule="evenodd" d="m0 23h179.9v-23h-179.9z" fill="#fff" fill-rule="evenodd"/></mask><mask id="u" height="8.3" maskUnits="userSpaceOnUse" width="7" x="129.3" y="14.5"><path clip-rule="evenodd" d="m0 23h179.9v-23h-179.9z" fill="#fff" fill-rule="evenodd"/></mask><mask id="v" height="8.7" maskUnits="userSpaceOnUse" width="8.2" x="141.3" y="14.3"><path clip-rule="evenodd" d="m0 23h179.9v-23h-179.9z" fill="#fff" fill-rule="evenodd"/></mask><mask id="w" height="8.3" maskUnits="userSpaceOnUse" width="1.8" x="154.3" y="14.5"><path clip-rule="evenodd" d="m0 23h179.9v-23h-179.9z" fill="#fff" fill-rule="evenodd"/></mask><mask id="x" height="8.3" maskUnits="userSpaceOnUse" width="7.2" x="161.5" y="14.5"><path clip-rule="evenodd" d="m0 23h179.9v-23h-179.9z" fill="#fff" fill-rule="evenodd"/></mask><mask id="y" height="8.3" maskUnits="userSpaceOnUse" width="6.3" x="173.5" y="14.5"><path clip-rule="evenodd" d="m0 23h179.9v-23h-179.9z" fill="#fff" fill-rule="evenodd"/></mask><g clip-rule="evenodd" fill-rule="evenodd"><path d="m0 0h305v37h-305z" fill="url(#a)" transform="translate(7 6)"/><g fill="#1b1b1b" transform="translate(70 13)"><path d="m42.9 6.5c.1.2.2.4.4.5s.4.2.6.3.5.1.7.1h.5c.2 0 .4-.1.5-.2.2-.1.3-.2.4-.3s.2-.3.2-.5-.1-.4-.2-.5-.3-.3-.6-.3c-.2-.1-.5-.2-.8-.2-.3-.3-.6-.4-.9-.5s-.6-.2-.9-.3-.6-.3-.8-.4c-.2-.2-.4-.4-.6-.7s-.2-.6-.2-1 .1-.8.3-1.1.4-.6.7-.8.6-.4 1-.5c.4 0 .8-.1 1.2-.1s.9 0 1.3.1.8.3 1.1.5.6.5.7.8c.2.3.3.7.3 1.2h-1.8c0-.2-.1-.5-.2-.6s-.2-.3-.4-.4c-.1-.1-.3-.2-.5-.2s-.4-.1-.6-.1c-.1 0-.3 0-.4 0s-.3.1-.4.2-.2.2-.3.3c-.1.2-.2.4-.2.6s0 .3.1.4.2.2.4.2.4.2.8.3.7.2 1.3.3c.2 0 .4.1.6.2s.5.2.8.4.5.4.7.7.3.7.3 1.2c0 .4-.1.7-.2 1.1-.1.3-.4.6-.7.8s-.7.4-1.1.6c-.4.1-.9.2-1.5.2-.5 0-.9-.1-1.3-.2s-.8-.3-1.2-.6c-.3-.2-.6-.5-.8-.9-.1-.4-.2-.8-.2-1.3h1.8c0 .2 0 .5.1.7"/><path d="m52.8 8.5h1.8v-8.3h-1.8z" mask="url(#b)"/><path d="m64.8 8.5c-.4.2-.8.3-1.2.3-.6 0-1.2-.1-1.7-.3s-.9-.5-1.3-.9-.6-.8-.8-1.4c-.2-.5-.3-1.1-.3-1.7s.1-1.2.3-1.7.5-1 .8-1.4.8-.7 1.3-.9c.5-.4 1.1-.5 1.7-.5.4 0 .8.1 1.2.2s.8.3 1.1.6c.3.2.6.6.8.9.3.3.4.8.5 1.2h-1.7c-.1-.5-.3-.8-.6-1s-.7-.3-1.1-.3-.8.1-1 .2c-.3.2-.5.4-.7.6-.2.3-.3.6-.4.9s-.1.7-.1 1.1c0 .3 0 .7.1 1s.2.6.4.9.4.5.7.6c.3.2.6.2 1 .2.6 0 1.1-.2 1.4-.5s.5-.8.6-1.3h-1.8v-1.3h3.5v4.5h-1.2l-.2-.9c-.5.4-.9.7-1.3.9" mask="url(#c)"/><path d="m74.3.2 3.5 5.6v-5.6h1.7v8.3h-1.8l-3.5-5.5v5.5h-1.7v-8.3z" mask="url(#d)"/><path d="m97.4 7.9c-.6.5-1.5.8-2.6.8s-2-.3-2.6-.8-.9-1.4-.9-2.5v-5.2h1.8v5.2c0 .2 0 .4.1.7s.1.4.2.6.3.3.5.4.5.2.9.2c.7 0 1.1-.1 1.4-.4s.4-.7.4-1.4v-5.3h1.8v5.2c0 1.1-.3 1.9-1 2.5" mask="url(#e)"/><path d="m106.9 4.1h.6c.2 0 .4-.1.5-.2s.3-.2.4-.4.1-.4.1-.6 0-.5-.1-.6c-.1-.2-.2-.3-.4-.4-.1-.1-.3-.1-.5-.2-.2 0-.4 0-.6 0h-1.4v2.5h1.4zm.5-3.9c.5 0 1 .1 1.3.2.4.2.7.4.9.6.2.3.4.5.5.9.1.3.2.6.2 1 0 .3-.1.7-.2 1s-.3.6-.5.9c-.2.2-.5.4-.9.6s-.8.2-1.3.2h-1.9v3h-1.8v-8.4z" mask="url(#f)"/><path d="m125.9 5.3-1.1-3.1-1.1 3.1zm-.1-5.1 3.1 8.3h-1.9l-.6-1.9h-3.1l-.7 1.9h-1.8l3.1-8.3h1.9z" mask="url(#g)"/><path d="m131.8 1.7v-1.5h6.9v1.5h-2.5v6.8h-1.9v-6.8z" mask="url(#h)"/><path d="m5.9 14.5v1.5h-4.1v1.9h3.5v1.4h-3.5v3.5h-1.8v-8.3z" mask="url(#i)"/><path d="m12 19.7c.1.3.2.6.4.9s.4.5.7.6.6.2 1 .2.8-.1 1-.2.5-.4.7-.6c.2-.3.3-.6.4-.9s.1-.7.1-1c0-.4 0-.7-.1-1.1-.1-.3-.2-.6-.4-.9s-.4-.5-.7-.6c-.3-.2-.6-.2-1-.2s-.8.1-1 .2c-.3.2-.5.4-.7.6-.2.3-.3.6-.4.9s-.1.7-.1 1.1c0 .3 0 .6.1 1m-1.7-2.8c.2-.5.5-1 .8-1.4.4-.4.8-.7 1.3-.9s1.1-.3 1.7-.3 1.2.1 1.7.3.9.5 1.3.9c.3.4.6.9.8 1.4s.3 1.1.3 1.7-.1 1.2-.3 1.7-.5 1-.8 1.4c-.4.4-.8.7-1.3.9s-1.1.3-1.7.3-1.2-.1-1.7-.3-.9-.5-1.3-.9c-.3-.4-.6-.8-.8-1.4-.2-.5-.3-1.1-.3-1.7s.1-1.1.3-1.7" mask="url(#j)"/><path d="m27 18.2c.4 0 .7-.1.9-.3s.3-.5.3-.9-.1-.7-.3-.9-.5-.3-.9-.3h-2v2.3h2zm.6-3.7c.4 0 .7.1 1 .2s.6.3.8.5.4.5.5.7c.1.3.2.6.2.9 0 .5-.1.9-.3 1.3s-.5.6-1 .8l.6.3c.1.1.3.3.4.5s.2.4.2.6.1.4.1.6v.5.5c0 .2.1.4.1.5 0 .2.1.3.2.4h-1.8c-.1-.3-.2-.6-.2-.9 0-.4-.1-.7-.1-1.1-.1-.4-.2-.8-.4-1s-.5-.3-1-.3h-1.8v3.3h-1.8v-8.3z" mask="url(#k)"/><path d="m39.7 19.6-1-3.1-1.1 3.1zm-.1-5.1 3.1 8.3h-1.9l-.6-1.9h-3.2l-.7 1.9h-1.8l3.2-8.3z" mask="url(#l)"/><path d="m48.4 20.7c.1.2.2.4.4.5l.6.3c.2.1.5.1.7.1h.5c.2 0 .4-.1.5-.2.2-.1.3-.2.4-.3s.2-.3.2-.5-.1-.4-.2-.5-.3-.3-.6-.3c-.2-.1-.5-.2-.8-.2s-.6-.1-.9-.2-.6-.2-.9-.3-.6-.3-.8-.4-.3-.7-.5-1c-.1-.3-.2-.6-.2-1s.1-.8.3-1.1.4-.6.7-.8.6-.4 1-.5.7-.2 1.1-.2.9 0 1.3.1.8.3 1.1.5.6.5.7.8c.2.3.3.7.3 1.2h-1.8c0-.2-.1-.5-.2-.6-.1-.2-.2-.3-.4-.4-.1-.1-.3-.2-.5-.2s-.4-.1-.6-.1c-.1 0-.3 0-.4 0s-.3.1-.4.2-.2.2-.3.3-.1.3-.1.4c0 .2 0 .3.1.4s.2.2.4.3.4.2.8.3c.3.1.7.2 1.3.3.2 0 .4.1.6.2.3.1.5.2.8.4s.5.4.7.7.3.7.3 1.1-.1.7-.2 1.1c-.1.3-.4.6-.7.8s-.7.4-1.1.6-1 .5-1.5.5-.9-.1-1.3-.2-.8-.3-1.1-.5-.6-.5-.8-.9-.3-.8-.3-1.3h1.8c-.1.2-.1.4 0 .6" mask="url(#m)"/><path d="m58.3 22.8h1.8v-1.8h-1.8z" mask="url(#n)"/><path d="m70.3 16.7c-.1-.2-.2-.3-.4-.5-.2-.1-.3-.2-.6-.3-.2-.1-.4-.1-.6-.1-.4 0-.8.1-1.1.2-.3.2-.5.4-.7.6-.2.3-.3.6-.4.9s-.1.7-.1 1.1c0 .3 0 .7.1 1s.2.6.4.9.4.5.7.6c.3.2.6.2 1.1.2.6 0 1-.2 1.3-.5s.5-.8.6-1.4h1.8c0 .5-.2 1-.4 1.4s-.5.8-.8 1.1-.7.5-1.1.7-.9.2-1.4.2c-.6 0-1.2-.1-1.7-.3s-.9-.5-1.3-.9c-.3-.4-.6-.8-.8-1.4-.2-.5-.3-1.1-.3-1.7s.1-1.2.3-1.7.5-1 .8-1.4.8-.7 1.3-.9 1.1-.3 1.7-.3c.5 0 .9.1 1.3.2s.8.3 1.1.6.6.6.8.9c.2.4.3.8.4 1.3h-1.8c0-.2 0-.3-.2-.5" mask="url(#o)"/><path d="m78.9 19.7c.1.3.2.6.4.9s.4.5.7.6.6.2 1 .2.8-.1 1-.2.5-.4.7-.6c.2-.3.3-.6.4-.9s.1-.7.1-1c0-.4 0-.7-.1-1.1-.1-.3-.2-.6-.4-.9s-.4-.5-.7-.6c-.3-.2-.6-.2-1-.2s-.8.1-1 .2c-.3.2-.5.4-.7.6-.2.3-.3.6-.4.9s-.1.7-.1 1.1c-.1.3 0 .6.1 1m-1.7-2.8c.2-.5.5-1 .8-1.4.4-.4.8-.7 1.3-.9s1.1-.3 1.7-.3 1.2.1 1.7.3.9.5 1.3.9c.3.4.6.9.8 1.4s.3 1.1.3 1.7-.1 1.2-.3 1.7-.5 1-.8 1.4c-.4.4-.8.7-1.3.9-.5.3-1.1.4-1.7.4s-1.2-.1-1.7-.3-.9-.5-1.3-.9c-.3-.4-.6-.8-.8-1.4-.2-.5-.3-1.1-.3-1.7 0-.7.1-1.2.3-1.8" mask="url(#p)"/><path d="m89.6 22.8h1.8v-1.8h-1.8z" mask="url(#q)"/><path d="m102.5 22.1c-.6.5-1.5.8-2.6.8s-2-.3-2.6-.8-.9-1.4-.9-2.5v-5.2h1.8v5.2c0 .2 0 .4.1.7s.1.4.2.6.3.3.5.4.5.2.9.2c.7 0 1.1-.1 1.4-.4s.4-.7.4-1.4v-5.2h1.8v5.2c0 1.1-.3 1.9-1 2.4" mask="url(#r)"/><path d="m110.6 14.5v3.4l3.2-3.4h2.3l-3.3 3.2 3.6 5.1h-2.3l-2.5-3.8-1 1.1v2.7h-1.9v-8.3z" mask="url(#s)"/><path d="m124.9 14.3-3.2 8.7h-1.3l3.2-8.7z" mask="url(#t)"/><path d="m131.1 14.5 3.5 5.5v-5.5h1.8v8.3h-1.9l-3.4-5.6h-.1v5.6h-1.7v-8.3z" mask="url(#u)"/><path d="m143.2 19.7c.1.3.2.6.4.9s.4.5.7.6c.3.2.6.2 1 .2s.8-.1 1-.2c.3-.2.5-.4.7-.6.2-.3.3-.6.4-.9s.1-.7.1-1c0-.4 0-.7-.1-1.1-.1-.3-.2-.6-.4-.9s-.4-.5-.7-.6c-.3-.2-.6-.2-1-.2s-.8.1-1 .2c-.3.2-.5.4-.7.6-.2.3-.3.6-.4.9s-.1.7-.1 1.1c0 .3 0 .6.1 1m-1.7-2.8c.2-.5.5-1 .8-1.4.4-.4.8-.7 1.3-.9s1.1-.3 1.7-.3 1.2.1 1.7.3.9.5 1.3.9c.3.4.6.9.8 1.4s.3 1.1.3 1.7-.1 1.2-.3 1.7-.5 1-.8 1.4c-.4.4-.8.7-1.3.9s-1.1.3-1.7.3-1.2-.1-1.7-.3-.9-.5-1.3-.9c-.3-.4-.6-.8-.8-1.4-.2-.5-.3-1.1-.3-1.7.1-.6.2-1.1.3-1.7" mask="url(#v)"/><path d="m154.3 22.8h1.9v-8.3h-1.9z" mask="url(#w)"/><path d="m165.3 18.2c.4 0 .7-.1.9-.3s.3-.5.3-.9-.1-.7-.3-.9-.5-.3-.9-.3h-2v2.3h2zm.7-3.7c.4 0 .7.1 1 .2s.6.3.8.5.4.5.5.7c.1.3.2.6.2.9 0 .5-.1.9-.3 1.3s-.5.6-1 .8c.2.1.4.2.6.3.1.1.3.3.4.5s.2.4.2.6.1.4.1.6v.5.5c0 .2.1.4.1.5 0 .2.1.3.2.4h-1.8c-.1-.3-.2-.6-.2-.9 0-.4-.1-.7-.1-1.1-.1-.4-.2-.8-.4-1s-.5-.3-1-.3h-1.8v3.3h-1.8v-8.3z" mask="url(#x)"/><path d="m179.8 14.5v1.5h-4.4v1.8h4v1.4h-4v2h4.5v1.6h-6.4v-8.3z" mask="url(#y)"/></g></g></svg>