<svg height="50" viewBox="0 0 320 50" width="320" xmlns="http://www.w3.org/2000/svg" xmlns:xlink="http://www.w3.org/1999/xlink"><linearGradient id="a"><stop offset="0" stop-color="#d49442"/><stop offset="1" stop-color="#936f44"/></linearGradient><linearGradient id="b" x1="-.001032%" x2="99.999996%" xlink:href="#a" y1="49.999392%" y2="49.999392%"/><linearGradient id="c" x1="-.021853%" x2="100.01315%" xlink:href="#a" y1="50.011483%" y2="50.011483%"/><linearGradient id="d" x1="-.007249%" x2="100.000094%" xlink:href="#a" y1="50.001315%" y2="50.001315%"/><linearGradient id="e" x1=".000081%" x2="99.995137%" xlink:href="#a" y1="49.999988%" y2="49.999988%"/><linearGradient id="f" x1="-.013839%" x2="100.000086%" xlink:href="#a" y1="50.006949%" y2="50.006949%"/><mask id="g" fill="#fff"><path d="m18.465017.0020404v.33807408c.7411854.11318518 1.3082866.25955555 1.7018938.44.392427.18074074.7577086.48533333 1.0946647.91348148.5839196.72207407 1.0220805 1.65777778 1.3144829 2.8082963.2918122 1.15022222.4378659 2.54933333.4378659 4.19555555v5.07525929l-12.0289196-13.7706667h-10.98352941v.33807408c.74089033.02251852 1.36464268.10755555 1.86948671.25392592.50543414.14696297 1.01647438.38903704 1.53282567.72740741.51694139.36118519.89845123.72207408 1.14629985 1.08266667.24696344.36088889.42075253.83466666.52195738 1.42074074.10120485.58725926.15165975 1.39911111.15165975 2.43644444v6.12414814c0 2.2785185-.16346207 4.0885926-.48861585 5.4305185-.32574389 1.341926-.86481463 2.3570371-1.61721222 3.0450371-.7529877.688-1.79159142 1.1451852-3.11640129 1.370074v.3383704h10.68021001v-.3383704c-.98844394-.090074-1.75205372-.2927407-2.29112446-.6088888-.5393658-.3158519-1.03329269-.8346667-1.48237077-1.5564445-.44966821-.7442963-.769806-1.6746667-.96070845-2.7911111-.19060739-1.1167407-.28591108-2.554963-.28591108-4.3140741v-9.64296294l17.79021966 20.36859264v-13.533926c0-1.84918516.1230391-3.38874071.3705926-4.61837034.2469635-1.22933334.6284733-2.28385186 1.1457098-3.16355556.4263586-.69896296.8810428-1.1842963 1.3643476-1.45511111.4827147-.27051852 1.1843623-.46192593 2.1058281-.57511111v-.33807408z" fill="#fff" fill-rule="evenodd"/></mask><mask id="h" fill="#fff"><path d="m3.35478642.03133264c-.61657132.00088327-1.18259916.14338327-1.69719679.42691116-.51518879.28382232-.91953662.6686312-1.21481694 1.15413223-.29557589.48550104-.44247711 1.02311467-.44130189 1.61284091.00059823.59031508.14956848 1.12733988.44691784 1.61195765.29675819.48432334.70287948.8673657 1.21895499 1.14942148.51548436.28205579 1.08210336.42249484 1.69897025.42103418.61627575-.00060029 1.18171244-.14074492 1.6971968-.42073975.51371091-.27970042.92071892-.6603874 1.22102403-1.14176653.29882723-.48137914.44809306-1.00868802.44721025-1.58280992-.00089065-.50934917-.09311033-.96158058-.27636739-1.35728306-.18325705-.39570248-.46168955-.75077479-.83559305-1.06551136-.33281846-.27410641-.6842582-.47755165-1.05372807-.61033575-.36740084-.13190082-.76820176-.19785124-1.20328948-.19785124zm-.63489702 5.85633781c-.24385012-.33917355-.36710527-1.2277376-.36946987-2.66628099-.00118231-.59826446.02216819-1.11968491.07005148-1.56396694.0478833-.44457645.11202327-.75577996.19330664-.93390496.16138444-.35566115.40848589-.53408058.74130435-.53467163.27577231-.00058663.49508962.1162987.65795194.35036378.24385012.35536674.36680969 1.25629649.36946987 2.70308368.00088673.58177686-.02187261 1.09701446-.07005148 1.54541839-.0478833.44899277-.11261442.75813533-.19301106.9277221-.16197559.35625-.40907704.53408058-.74159993.53496385h-.00177345c-.27518116 0-.49390733-.12071281-.65617849-.36272728z" fill="#fff" fill-rule="evenodd"/></mask><mask id="i" fill="#fff"><path d="m1.97513962.00237273c-.23478874.00059318-.44836696.06020795-.64250219.17854773-.19413524.11833977-.34938451.27523636-.4660424.47098636-.11724708.19575-.17557602.41166818-.17499126.64745795.0005936.23638296.05892255.45378409.17705339.65338978.11754167.19930909.27544226.35768863.47370176.47543522.1982595.11745.41478362.176175.64898319.17587953.2265402-.0005943.43894005-.06020907.63690497-.17854885.19796491-.11804318.35527631-.27523636.47252339-.47068977.11665789-.19604659.17498684-.40751591.17440208-.63559432-.0005936-.24439091-.05715501-.46594431-.17086699-.6652534-.11371199-.1990125-.26984503-.35768864-.46780995-.47543523-.19737573-.11685682-.41684576-.176175-.65841008-.176175zm-.22477266 5.90334545c-.63012939.18833523-1.2122405.34404546-1.74515497.46713068l.02415643.12189887c.20179459.01571932.36352486.05042045.4848962.10291704.12166594.05308978.22300512.13613523.30401754.25002614.09721492.13020341.16231945.28265114.19472442.45734318.03269956.17558182.04978582.450225.05008041.82452273l.00353509 2.00258178c.00058918.4398444-.01944299.7530444-.05921272.9404898-.04006433.1880386-.11901462.3140898-.23596711.3790432-.11695248.0655466-.31314985.1064761-.58800292.1233818l.00029459.1218989 3.91776096-.006525v-.1224921c-.27514766-.0157193-.47134503-.0560557-.5885921-.1210091-.11724708-.0649534-.19619737-.1927841-.23714547-.3840852-.0409481-.1913011-.06156944-.5027216-.06215863-.9342614l-.00824853-4.70185564c-.33936842.13109319-.82426462.2903625-1.45498319.47899432z" fill="#fff" fill-rule="evenodd"/></mask><mask id="j" fill="#fff"><path d="m4.9462799.00895661c-.38691287.00088327-.72538825.14897727-1.01425189.44428203-.29033144.29589359-.55512311.76696797-.79525568 1.41381198l-.00352273-1.85485537c-.68487689.25202479-1.20829545.43250516-1.5708428.54232438-.36254735.10981921-.86952652.24201446-1.5224053.39658574l.02407196.12130165c.20167614.01589877.36313448.04975724.48408144.10216426.12094697.0521126.22163826.13484504.30295455.24819732.09658144.12895661.16116477.28028925.19375.45399793.03258523.1740031.04961174.4466374.04961174.81819731l.00381629 1.98822831c.00088068.43633264-.0208428.74783058-.06487689.93361054-.04403409.18607438-.12857955.31149793-.25334281.37627066-.12446969.06506715-.3405303.10569731-.64642045.12247934l.00029356.12100723 4.07344697-.0067717-.00029356-.12130165c-.30647727-.01589876-.52136364-.05564566-.64671402-.12041839-.12535038-.06418388-.20989583-.18931301-.25451704-.37538739-.04462121-.18577996-.06722538-.49668905-.06810606-.93331612l-.00264205-1.51509298c-.00088068-.37155991.00440341-.65891529.01673296-.86118285.01144886-.20197314.03111742-.36361053.05929924-.48491219.02818182-.12159607.07427083-.2384814.1385606-.35183367.09658144-.1698812.22075758-.25496901.37428978-.25526343.06428977 0 .12652462.01825413.18729166.05446797.06076705.03621384.12329546.09892562.18787879.18754649.09716856.13720041.16732955.23200413.21195076.28441116.04403409.05270144.09100379.09892562.13914773.13926136.07280303.06477273.15940341.11482438.26038825.1507438.10098485.03650827.2034375.0547624.30823864.05446798.16909091-.00029443.32643939-.04504649.47116477-.13455062.14501894-.08891529.25715909-.21021695.33788826-.36419938.08043561-.1533936.12035985-.3273967.12035985-.52142046-.00029356-.19402376-.04931818-.37155992-.14648674-.53319731-.096875-.16134298-.23015152-.28823864-.39953599-.38098141-.16879735-.09244834-.35374053-.13867252-.55453598-.13867252z" fill="#fff" fill-rule="evenodd"/></mask><mask id="k" fill="#fff"><path d="m3.34532799.00130165c-.60829519.00117769-1.16663806.14721075-1.67266399.43927686-.50691267.2917717-.90564455.68835744-1.19678681 1.19005166-.29114225.50198863-.43627002 1.05137913-.43538733 1.64934917.00118634.5741219.14188047 1.09936983.42238199 1.57544938.28109268.47666839.6671148.84940599 1.15865752 1.11939049.49095156.26998451 1.03658467.40453513 1.63719489.40365618.47055682-.00088758.90475781-.09274708 1.30201182-.27558283.397254-.1822469.73746186-.44339876 1.02091915-.78345558.17025171-.21051136.31331045-.4207283.43124523-.63153409.11704805-.20992252.2403032-.48873967.36946987-.83674587l-.10965866-.04828512c-.25035278.37244318-.52819413.64125-.83234172.80789256-.30355645.16605372-.67095729.249375-1.10072464.25025827-.67391304.00088326-1.17934783-.18401343-1.51630435-.55527893-.3372521-.37097107-.5113463-.93626033-.519918-1.69616219l4.02810831-.00706611c-.04108505-.3232748-.09990465-.58795971-.17764111-.79376033-.07773646-.20580062-.18975973-.40983472-.33606979-.61151343-.27695462-.3795093-.63194127-.67363637-1.06673341-.88326447-.43183639-.20845041-.89795958-.31267562-1.39807399-.31267562zm-.78948322.7590186c.17704997-.40041322.43272312-.60091426.76554158-.60150414.20306064-.00029338.36267162.06212397.48090198.18725311.11763921.12512913.20897216.3247469.27547673.59944214.0319222.1698812.05468155.36596591.06739131.58795971.01270976.22228823.01921243.53143079.02039474.92742769l-1.87484962.00323864c-.0011706-.73546488.0872066-1.30369835.26514328-1.70381715z" fill="#fff" fill-rule="evenodd"/></mask><g fill="none" fill-rule="evenodd"><path d="m18.465017.0020404v.33807408c.7411854.11318518 1.3082866.25955555 1.7018938.44.392427.18074074.7577086.48533333 1.0946647.91348148.5839196.72207407 1.0220805 1.65777778 1.3144829 2.8082963.2918122 1.15022222.4378659 2.54933333.4378659 4.19555555v5.07525929l-12.0289196-13.7706667h-10.98352941v.33807408c.74089033.02251852 1.36464268.10755555 1.86948671.25392592.50543414.14696297 1.01647438.38903704 1.53282567.72740741.51694139.36118519.89845123.72207408 1.14629985 1.08266667.24696344.36088889.42075253.83466666.52195738 1.42074074.10120485.58725926.15165975 1.39911111.15165975 2.43644444v6.12414814c0 2.2785185-.16346207 4.0885926-.48861585 5.4305185-.32574389 1.341926-.86481463 2.3570371-1.61721222 3.0450371-.7529877.688-1.79159142 1.1451852-3.11640129 1.370074v.3383704h10.68021001v-.3383704c-.98844394-.090074-1.75205372-.2927407-2.29112446-.6088888-.5393658-.3158519-1.03329269-.8346667-1.48237077-1.5564445-.44966821-.7442963-.769806-1.6746667-.96070845-2.7911111-.19060739-1.1167407-.28591108-2.554963-.28591108-4.3140741v-9.64296294l17.79021966 20.36859264v-13.533926c0-1.84918516.1230391-3.38874071.3705926-4.61837034.2469635-1.22933334.6284733-2.28385186 1.1457098-3.16355556.4263586-.69896296.8810428-1.1842963 1.3643476-1.45511111.4827147-.27051852 1.1843623-.46192593 2.1058281-.57511111v-.33807408z" fill="url(#b)" mask="url(#g)" transform="translate(146.379386 10.431818)"/><path d="m3.35478642.03133264c-.61657132.00088327-1.18259916.14338327-1.69719679.42691116-.51518879.28382232-.91953662.6686312-1.21481694 1.15413223-.29557589.48550104-.44247711 1.02311467-.44130189 1.61284091.00059823.59031508.14956848 1.12733988.44691784 1.61195765.29675819.48432334.70287948.8673657 1.21895499 1.14942148.51548436.28205579 1.08210336.42249484 1.69897025.42103418.61627575-.00060029 1.18171244-.14074492 1.6971968-.42073975.51371091-.27970042.92071892-.6603874 1.22102403-1.14176653.29882723-.48137914.44809306-1.00868802.44721025-1.58280992-.00089065-.50934917-.09311033-.96158058-.27636739-1.35728306-.18325705-.39570248-.46168955-.75077479-.83559305-1.06551136-.33281846-.27410641-.6842582-.47755165-1.05372807-.61033575-.36740084-.13190082-.76820176-.19785124-1.20328948-.19785124zm-.63489702 5.85633781c-.24385012-.33917355-.36710527-1.2277376-.36946987-2.66628099-.00118231-.59826446.02216819-1.11968491.07005148-1.56396694.0478833-.44457645.11202327-.75577996.19330664-.93390496.16138444-.35566115.40848589-.53408058.74130435-.53467163.27577231-.00058663.49508962.1162987.65795194.35036378.24385012.35536674.36680969 1.25629649.36946987 2.70308368.00088673.58177686-.02187261 1.09701446-.07005148 1.54541839-.0478833.44899277-.11261442.75813533-.19301106.9277221-.16197559.35625-.40907704.53408058-.74159993.53496385h-.00177345c-.27518116 0-.49390733-.12071281-.65617849-.36272728z" fill="url(#c)" mask="url(#h)" transform="translate(146.379386 34.159091)"/><path d="m1.97513962.00237273c-.23478874.00059318-.44836696.06020795-.64250219.17854773-.19413524.11833977-.34938451.27523636-.4660424.47098636-.11724708.19575-.17557602.41166818-.17499126.64745795.0005936.23638296.05892255.45378409.17705339.65338978.11754167.19930909.27544226.35768863.47370176.47543522.1982595.11745.41478362.176175.64898319.17587953.2265402-.0005943.43894005-.06020907.63690497-.17854885.19796491-.11804318.35527631-.27523636.47252339-.47068977.11665789-.19604659.17498684-.40751591.17440208-.63559432-.0005936-.24439091-.05715501-.46594431-.17086699-.6652534-.11371199-.1990125-.26984503-.35768864-.46780995-.47543523-.19737573-.11685682-.41684576-.176175-.65841008-.176175zm-.22477266 5.90334545c-.63012939.18833523-1.2122405.34404546-1.74515497.46713068l.02415643.12189887c.20179459.01571932.36352486.05042045.4848962.10291704.12166594.05308978.22300512.13613523.30401754.25002614.09721492.13020341.16231945.28265114.19472442.45734318.03269956.17558182.04978582.450225.05008041.82452273l.00353509 2.00258178c.00058918.4398444-.01944299.7530444-.05921272.9404898-.04006433.1880386-.11901462.3140898-.23596711.3790432-.11695248.0655466-.31314985.1064761-.58800292.1233818l.00029459.1218989 3.91776096-.006525v-.1224921c-.27514766-.0157193-.47134503-.0560557-.5885921-.1210091-.11724708-.0649534-.19619737-.1927841-.23714547-.3840852-.0409481-.1913011-.06156944-.5027216-.06215863-.9342614l-.00824853-4.70185564c-.33936842.13109319-.82426462.2903625-1.45498319.47899432z" fill="url(#d)" mask="url(#i)" transform="translate(153.381579 28.704545)"/><path d="m4.9462799.00895661c-.38691287.00088327-.72538825.14897727-1.01425189.44428203-.29033144.29589359-.55512311.76696797-.79525568 1.41381198l-.00352273-1.85485537c-.68487689.25202479-1.20829545.43250516-1.5708428.54232438-.36254735.10981921-.86952652.24201446-1.5224053.39658574l.02407196.12130165c.20167614.01589877.36313448.04975724.48408144.10216426.12094697.0521126.22163826.13484504.30295455.24819732.09658144.12895661.16116477.28028925.19375.45399793.03258523.1740031.04961174.4466374.04961174.81819731l.00381629 1.98822831c.00088068.43633264-.0208428.74783058-.06487689.93361054-.04403409.18607438-.12857955.31149793-.25334281.37627066-.12446969.06506715-.3405303.10569731-.64642045.12247934l.00029356.12100723 4.07344697-.0067717-.00029356-.12130165c-.30647727-.01589876-.52136364-.05564566-.64671402-.12041839-.12535038-.06418388-.20989583-.18931301-.25451704-.37538739-.04462121-.18577996-.06722538-.49668905-.06810606-.93331612l-.00264205-1.51509298c-.00088068-.37155991.00440341-.65891529.01673296-.86118285.01144886-.20197314.03111742-.36361053.05929924-.48491219.02818182-.12159607.07427083-.2384814.1385606-.35183367.09658144-.1698812.22075758-.25496901.37428978-.25526343.06428977 0 .12652462.01825413.18729166.05446797.06076705.03621384.12329546.09892562.18787879.18754649.09716856.13720041.16732955.23200413.21195076.28441116.04403409.05270144.09100379.09892562.13914773.13926136.07280303.06477273.15940341.11482438.26038825.1507438.10098485.03650827.2034375.0547624.30823864.05446798.16909091-.00029443.32643939-.04504649.47116477-.13455062.14501894-.08891529.25715909-.21021695.33788826-.36419938.08043561-.1533936.12035985-.3273967.12035985-.52142046-.00029356-.19402376-.04931818-.37155992-.14648674-.53319731-.096875-.16134298-.23015152-.28823864-.39953599-.38098141-.16879735-.09244834-.35374053-.13867252-.55453598-.13867252z" fill="url(#e)" mask="url(#j)" transform="translate(157.528509 34.159091)"/><path d="m3.34532799.00130165c-.60829519.00117769-1.16663806.14721075-1.67266399.43927686-.50691267.2917717-.90564455.68835744-1.19678681 1.19005166-.29114225.50198863-.43627002 1.05137913-.43538733 1.64934917.00118634.5741219.14188047 1.09936983.42238199 1.57544938.28109268.47666839.6671148.84940599 1.15865752 1.11939049.49095156.26998451 1.03658467.40453513 1.63719489.40365618.47055682-.00088758.90475781-.09274708 1.30201182-.27558283.397254-.1822469.73746186-.44339876 1.02091915-.78345558.17025171-.21051136.31331045-.4207283.43124523-.63153409.11704805-.20992252.2403032-.48873967.36946987-.83674587l-.10965866-.04828512c-.25035278.37244318-.52819413.64125-.83234172.80789256-.30355645.16605372-.67095729.249375-1.10072464.25025827-.67391304.00088326-1.17934783-.18401343-1.51630435-.55527893-.3372521-.37097107-.5113463-.93626033-.519918-1.69616219l4.02810831-.00706611c-.04108505-.3232748-.09990465-.58795971-.17764111-.79376033-.07773646-.20580062-.18975973-.40983472-.33606979-.61151343-.27695462-.3795093-.63194127-.67363637-1.06673341-.88326447-.43183639-.20845041-.89795958-.31267562-1.39807399-.31267562zm-.78948322.7590186c.17704997-.40041322.43272312-.60091426.76554158-.60150414.20306064-.00029338.36267162.06212397.48090198.18725311.11763921.12512913.20897216.3247469.27547673.59944214.0319222.1698812.05468155.36596591.06739131.58795971.01270976.22228823.01921243.53143079.02039474.92742769l-1.87484962.00323864c-.0011706-.73546488.0872066-1.30369835.26514328-1.70381715z" fill="url(#f)" mask="url(#k)" transform="translate(163.64693 34.159091)"/></g></svg>