<svg height="50" viewBox="0 0 320 50" width="320" xmlns="http://www.w3.org/2000/svg" xmlns:xlink="http://www.w3.org/1999/xlink"><linearGradient id="a" x1=".17767%" x2="100.177285%" y1="50.000017%" y2="50.000017%"><stop offset="0" stop-color="#dbdada"/><stop offset="1" stop-color="#929191"/></linearGradient><mask id="b" fill="#fff"><path d="m14.2311033 0c-.3456188.4293154-.7166345.81448526-1.112495 1.15550957-.3958606.34157613-.7414794.57941024-1.0363044.71405415.1932374.18485946.3577652.40393171.4924792.65611312l-1.2764708 3.37327125c-.2191863.60644939-.4819891 1.14116227-.7895126 1.60413865-.3075235.46297637-.63381854.82938438-.97943736 1.099224-.34561882.26928781-.69123764.42103811-1.03630435.45414727v.12636661h3.90505101v-.12636661c-.3958606-.02538369-.703384-.17658217-.9220183-.45414727-.2197385-.27811691-.3285035-.64893947-.3285035-1.11191584 0-.24390413.0248448-.48173824.0750865-.71405415.0502417-.23121228.1308493-.50270736.2401664-.81393344h2.5529416l.2782618.65666494c.3539004.83324712.5311267 1.41045008.5311267 1.73050526 0 .22734955-.0745344.39841352-.2213948.51208829-.1474125.11312296-.3726721.17878945-.6763308.19479221v.12636661h5.0931847v-.12636661c-.3450667-.01600276-.6150469-.09656837-.8088364-.23893775-.1937894-.14347301-.4063505-.43428177-.6382353-.87242628-.2318849-.43759269-.5835769-1.20848422-1.055076-2.31101914l-1.6303712-3.92895327c-.1855079-.44586997-.4046943-1.01479565-.6570071-1.70512157zm-1.5547325 2.67797896 1.3018677 3.13267805h-2.4646045zm59.9499583-2.04007587c-.1264325.05021555-.2887518.0860838-.486406.10705294-.1982064.02152095-.4825413.03200552-.853005.03200552h-4.2595035c-.4549359 0-.7856479-.00882911-.9921358-.02538369-.2064879-.0171064-.3704636-.05076737-.4924792-.10153475-.1225677-.05021555-.2467917-.13409208-.372672-.25218141l-.367151 2.94285222h.1264324c.160111-.38737714.3997253-.75764787.7204993-1.11136403.3202219-.35371616.6763308-.65059493 1.0677745-.89063632.3919957-.23948957.7685325-.38516986 1.1312667-.43593723v6.13898948c0 .41276082-.0060732.72012416-.0193238.92209002-.0121463.20251767-.0353348.35647525-.0695654.46187273-.0331264.10484567-.087785.20362132-.1639757.29687878-.1004835.1175375-.227468.20141403-.3787452.25218141-.1518294.05021555-.387579.08442835-.7078009.10098292v.12636662h5.1693754v-.12636662c-.320774-.01655457-.5565236-.05076737-.7083529-.10098292-.1512773-.05076738-.2777097-.13464391-.3787452-.25218141-.0756387-.08442835-.1308493-.18154855-.1645279-.29080876-.0342306-.10981204-.056867-.26708054-.0690133-.47346095-.0132506-.20693223-.0198758-.51208829-.0198758-.91657182v-6.13898948c.362182.05076737.7442398.19810312 1.1439651.44200724.4002774.24500776.7563863.54354199 1.0677745.89780997.3119403.35261252.5355435.71957234.6697054 1.09812037h.1269846l-.341202-2.94285222c-.1264324.10926022-.2528649.18927401-.3792973.24004139zm-70.98933261.31564062c-.50131292.24004139-.89551714.57058114-1.18206054.99161925-.28654339.42103811-.42953904.88842904-.42953904 1.40217279 0 .50491464.18109101.94305915.54327303 1.31332988.36273413.37082256.94355042.71570961 1.7441052 1.03631661l1.23837542.47953095c.63216221.24445594 1.08875449.50105191 1.37143314.77033972.28212654.27039144.42346587.58603207.42346587.9474737 0 .25273323-.05907542.47622004-.17667416.67046042-.11870295.19313675-.28488708.34488705-.4996566.45414727-.21476952.10981204-.46542598.16389032-.75196938.16389032-.42125744 0-.79613792-.0860838-1.12464143-.25880324-.32850351-.17216761-.68240393-.46904638-1.06170126-.89063631-.37874523-.42103811-.70559242-.86470081-.97943736-1.33264356-.27384494-.46683911-.48254129-.94085187-.62553694-1.42093465h-.12643244l.12643244 3.90301776h.12643245c.02539691-.10926021.06956545-.18651491.13250562-.23341955.06349227-.04635282.15790252-.06952923.28433497-.06952923.06790913 0 .14962092.00882911.24679171.02538369.09661868.01655458.2208427.04193826.37267205.07559924.53885618.11808932 1.04403385.20858769 1.51608511.27149508.47205126.0629074.87288076.09491292 1.20138427.09491292.58136839 0 1.11194297-.12250388 1.59227584-.366408.48033286-.24390412.85742177-.57885843 1.13126671-1.00375927.27384494-.42545266.41021531-.89891361.41021531-1.42093464 0-.54795655-.16839256-1.01534748-.50517767-1.40272461-.33678511-.38737714-.86349494-.72012416-1.57957739-.99768926l-1.17598735-.44255906c-.33678512-.1258148-.64430857-.2604587-.92201826-.40337989-.2782618-.14402484-.48916657-.27370237-.63216222-.39179169-.13526615-.10926022-.24237486-.24666322-.32243033-.41110536-.08005548-.16389033-.11980717-.34267978-.11980717-.53636834 0-.23562684.056867-.4464218.17060099-.63183308.11373398-.18485946.27163651-.32833247.47370758-.4293154.20262317-.10153474.4339559-.1517503.69510239-.1517503.41242373 0 .8110448.12250388 1.19420688.366408.38371418.24445594.73154143.5981721 1.04292963 1.06114848.31194031.46352819.57308679 1.01479565.78399157 1.65490601h.12588034l-.1391309-3.14592171h-.12588034c-.02539691.10981204-.05962753.183204-.10158764.22183135-.04251222.03752371-.10931713.05628557-.20151896.05628557-.14409986 0-.33347247-.02924642-.56922205-.08829108-.49744817-.11753751-.8761934-.19589585-1.13733988-.23397138-.2616986-.03752371-.52284509-.05683738-.78343947-.05683738-.61559902 0-1.17322682.1202966-1.67453974.36033798zm73.58036951.73226419c-.522293.41276082-.920914.89946542-1.1942069 1.45956199-.274397.56009657-.4107674 1.17261597-.4107674 1.8375582 0 1.34754268.5349915 2.45062942 1.6049743 3.30981204.4295391.35371616.8971735.62079669 1.4023511.80179341.5057298.18099672 1.0324397.27149509 1.5801295.27149509.8253996 0 1.5922759-.19313675 2.3000767-.58051389.7078009-.38792895 1.2681892-.91381272 1.681165-1.57930677.4124238-.66494223.6189117-1.38506639.6189117-2.15982066 0-.69915503-.1325056-1.32436627-.3975169-1.87563373-.2655633-.55126746-.6680491-1.04680117-1.2074574-1.48494568-.8761934-.71515779-1.8749545-1.0732885-2.9951791-1.0732885-1.0953797 0-2.089724.35813071-2.9824806 1.0732885zm2.1228504 7.25090533c-.2523127-.17658217-.4383727-.42103811-.5559714-.73226419-.2859913-.732816-.4295391-1.8061045-.4295391-3.22152095 0-1.41431281.1435478-2.48373857.4295391-3.20827729.1175987-.31177789.3036587-.55568201.5559714-.732816.2528649-.17658217.5394083-.26487325.8596302-.26487325.3202219 0 .6062132.08829108.8590781.26487325.253417.17713399.4422375.42103811.5692221.732816.2859913.73226419.429539 1.81879635.429539 3.25904466 0 .67377134-.0358869 1.27801346-.1076608 1.81272634-.0717739.53471288-.1788826.98720469-.3218782 1.35802724-.1181509.31122608-.3031066.55568202-.5559715.73226419-.2528649.17658217-.5399604.26542507-.8596302.26542507-.3285035 0-.6194638-.0888429-.8723287-.26542507zm-46.7551593-8.17906536v.12636662c.2782618.01710639.4825413.05076737.6128385.10153474.1302972.04966374.2423749.13409209.3345767.25218141.0679091.09270564.1181508.19148129.1523814.29687878.0331264.10539748.0546586.25659596.0629402.45469908.0082816.19810312.0121464.50712192.0121464.92871185v4.10498362c0 .42158993-.0038648.73116054-.0121464.92871184-.0082816.19755131-.0298138.34930161-.0629402.45469909-.0342306.10484566-.0844723.20417313-.1523814.29743059-.0922018.11753751-.2042795.20141404-.3345767.25162959-.1302972.05076738-.3345767.08498017-.6128385.10098293v.12636661h7.9492329l.569222-3.58737713h-.1269845c-.1761221.49663735-.387579.93091912-.6316101 1.30118986-.2445833.37082256-.5438252.71570961-.8971735 1.03631661-.3964126.35371616-.8027632.62521124-1.2196038.81503707-.4173927.1887222-.827608.28308329-1.2323022.28308329-.1943416 0-.3456189-.03310915-.454936-.10043111-.1098692-.06732195-.1855079-.17878944-.227468-.3349543-.0425122-.15561303-.0634922-.38020348-.0634922-.67597862v-2.98092774c.5648052 0 1.0490028.16664942 1.453697.49884463.4041421.33329884.6779871.79793067.8209827 1.39555095h.1269846v-3.89032591h-.1269846c-.0336785.34543886-.1490688.6528022-.3472751.92264183-.1982063.26928781-.4610091.48615279-.7900648.65059493-.3285035.16389033-.7072487.25880324-1.1373398.28363511v-3.89032592h.3539004c.8673597 0 1.624298.23397138 2.2686066.70081049.6448606.46794275 1.1610804 1.15219865 1.5481073 2.05276772h.1264324l-.5178761-2.90532851zm-5.0810383 0v.12636662c.1683925.05076737.294825.10705294.3792973.17106397.0839202.0629074.1645278.16168305.2407185.29632695.1761221.28639421.2644592.68204863.2644592 1.18751509 0 .28639421-.0209801.53912744-.0629402.75764787-.0425122.21907226-.1214635.48008278-.2401664.78358338-.1181509.30294878-.3113882.75378514-.5813684 1.3508536l-.5935148 1.32657354-1.453697-3.17020176c-.1937895-.40448353-.3494836-.74109329-.4676344-1.01093292-.1181509-.2692878-.1937895-.46518365-.227468-.58713571-.0336785-.12195206-.0507938-.24169684-.0507938-.35978617 0-.21907225.0590754-.38737713.1772262-.50546646.1175988-.11808932.3075235-.19810312.56867-.24004138v-.12636662h-4.8403198v.12636662c.2611465.05904466.486406.15340575.6757786.28418692.1899248.13078117.3732242.32888429.5498984.59375755.1766741.26542507.3875789.64618037.6321622 1.14336954l3.2601903 6.6946715 2.4900014-5.22959131c.5140113-1.06942576.9899274-1.87784101 1.4283001-2.42524573.4378207-.54740473.8927566-.90112088 1.3648079-1.06114847v-.12636662zm27.2337692.01931368v.12581479c-.0143548.00331092-.0242927.00993275-.0386475.01379548.2092485.01876186.3820579.045801.4930313.08773927.1352662.05076737.2445833.1346439.3290556.25273323.066805.09215382.1159425.19092947.1452041.29632695.0292617.1059493.0507938.26156234.0634923.46739093.0121463.20638041.0187716.51153647.0187716.91602v4.10498362c0 .40448353-.0066253.70963959-.0187716.91657182-.0126985.20638041-.0342306.36199345-.0634923.46739093-.0292616.10484567-.0783991.20362132-.1452041.29687878-.0844723.1175375-.1937894.20141403-.3290556.25218141-.134714.05021555-.3406498.08442835-.6189116.10098292v.12636662h5.0048476v-.12636662c-.3202219-.01655457-.5565236-.05076737-.7078009-.10098292-.1518293-.05076738-.2782618-.13464391-.3792973-.25218141-.0756386-.08442835-.1302972-.183204-.1645278-.29687878-.0336785-.11422659-.0563149-.2720469-.0695655-.47401276-.0121463-.20196585-.0182195-.50546646-.0182195-.90994999v-1.45238834h.3660468c.7160824 0 1.3062845-.04193827 1.76895-.12636662.4637696-.08387653.8938608-.22293498 1.2897213-.41662355.3958606-.20251768.7055924-.46794275.9286436-.7957234.2236032-.32888429.3351288-.68646319.3351288-1.07384032 0-.48836006-.1623194-.91381273-.4864061-1.27580617-.3246387-.36199345-.7900647-.64011037-1.39683-.83379893-.6067653-.19368857-1.3228478-.29025694-2.1482474-.29025694zm3.5009088.15119848h.3406499c.4046942 0 .7309893.07394378.9794373.22127953.2484481.14733575.4300912.38130712.5438252.70081048.113734.32005519.1711531.74937058.1711531 1.28849802 0 .57334023-.0552107 1.02583204-.1645278 1.35857907-.1098693.3321952-.2887519.57223659-.5371999.71957234-.2490001.14733574-.5879937.22072771-1.0175327.22072771h-.3158051zm-3.6654366-.15119848h-3.0332745v.12581479c.3113882.10981204.5432731.24831868.6951024.41717538.1518294.16830488.2821266.42048629.3914437.75819969.2191864.69915502.3285035 1.72995344.3285035 3.09460251v1.14943956c0 .4635282-.0253969.81889981-.0750865 1.06721849-.0507938.24831867-.1479646.47842731-.2909603.68867046-.1766741.2775651-.4278827.49056734-.7525214.63790308-.3240867.14733575-.7006235.22072772-1.1307147.22072772-.4046942 0-.7668762-.07339197-1.086546-.22072772-.320774-.14733574-.5521068-.34764614-.6951024-.59982755-.1098692-.20196586-.1855079-.45966546-.2280201-.77089153-.0419601-.31122608-.0629402-.79572341-.0629402-1.45294017v-2.95554406c0-.34543886.0038648-.63404035.0126985-.86525263.0082816-.23176409.0270532-.40227625.056867-.51153647.0292616-.10926022.0772949-.21079496.1452041-.30294878.0761907-.11808933.1750178-.20196586.2970334-.25273323.1225677-.05076738.3180135-.08442835.5874416-.10153475v-.12581479h-4.7641291v.12581479c.2782618.0171064.4841976.05076737.6189117.10153475.134714.05076737.2440311.1346439.3285035.25273323.067357.09215382.1159424.19092947.1457561.29632695.0292617.1059493.0507939.26156234.0629402.46739093.0126985.20638041.0187716.51153647.0187716.91602v3.34788757c0 .45469909.0276054.82662528.0828161 1.11743404.0546585.29025694.1468603.5352647.2777096.732816.1302972.19755131.3091798.37247802.5371999.52422832.6906855.47180548 1.6386528.7068805 2.8433497.7068805.4803329 0 .9015903-.04414555 1.2637723-.13243663.3621821-.08829109.682404-.22514227.9606658-.41055355.2528649-.16830488.4527275-.35978617.6006921-.57444386.1468604-.21520952.2523128-.47566822.315253-.78358338.0634922-.30681152.0949623-.68867046.0949623-1.14281773v-.97285739c0-1.38065183.1181509-2.43352302.3539004-3.15750991.1347141-.40448353.2992419-.70356958.4935835-.89725815.1849557-.18485946.4311953-.3090188.7320935-.37799621.0143548-.00386273.0242927-.01048456.0386475-.01379548v-.12581479z" fill="#fff" fill-rule="evenodd"/></mask><path d="m14.2311033 0c-.3456188.4293154-.7166345.81448526-1.112495 1.15550957-.3958606.34157613-.7414794.57941024-1.0363044.71405415.1932374.18485946.3577652.40393171.4924792.65611312l-1.2764708 3.37327125c-.2191863.60644939-.4819891 1.14116227-.7895126 1.60413865-.3075235.46297637-.63381854.82938438-.97943736 1.099224-.34561882.26928781-.69123764.42103811-1.03630435.45414727v.12636661h3.90505101v-.12636661c-.3958606-.02538369-.703384-.17658217-.9220183-.45414727-.2197385-.27811691-.3285035-.64893947-.3285035-1.11191584 0-.24390413.0248448-.48173824.0750865-.71405415.0502417-.23121228.1308493-.50270736.2401664-.81393344h2.5529416l.2782618.65666494c.3539004.83324712.5311267 1.41045008.5311267 1.73050526 0 .22734955-.0745344.39841352-.2213948.51208829-.1474125.11312296-.3726721.17878945-.6763308.19479221v.12636661h5.0931847v-.12636661c-.3450667-.01600276-.6150469-.09656837-.8088364-.23893775-.1937894-.14347301-.4063505-.43428177-.6382353-.87242628-.2318849-.43759269-.5835769-1.20848422-1.055076-2.31101914l-1.6303712-3.92895327c-.1855079-.44586997-.4046943-1.01479565-.6570071-1.70512157zm-1.5547325 2.67797896 1.3018677 3.13267805h-2.4646045zm59.9499583-2.04007587c-.1264325.05021555-.2887518.0860838-.486406.10705294-.1982064.02152095-.4825413.03200552-.853005.03200552h-4.2595035c-.4549359 0-.7856479-.00882911-.9921358-.02538369-.2064879-.0171064-.3704636-.05076737-.4924792-.10153475-.1225677-.05021555-.2467917-.13409208-.372672-.25218141l-.367151 2.94285222h.1264324c.160111-.38737714.3997253-.75764787.7204993-1.11136403.3202219-.35371616.6763308-.65059493 1.0677745-.89063632.3919957-.23948957.7685325-.38516986 1.1312667-.43593723v6.13898948c0 .41276082-.0060732.72012416-.0193238.92209002-.0121463.20251767-.0353348.35647525-.0695654.46187273-.0331264.10484567-.087785.20362132-.1639757.29687878-.1004835.1175375-.227468.20141403-.3787452.25218141-.1518294.05021555-.387579.08442835-.7078009.10098292v.12636662h5.1693754v-.12636662c-.320774-.01655457-.5565236-.05076737-.7083529-.10098292-.1512773-.05076738-.2777097-.13464391-.3787452-.25218141-.0756387-.08442835-.1308493-.18154855-.1645279-.29080876-.0342306-.10981204-.056867-.26708054-.0690133-.47346095-.0132506-.20693223-.0198758-.51208829-.0198758-.91657182v-6.13898948c.362182.05076737.7442398.19810312 1.1439651.44200724.4002774.24500776.7563863.54354199 1.0677745.89780997.3119403.35261252.5355435.71957234.6697054 1.09812037h.1269846l-.341202-2.94285222c-.1264324.10926022-.2528649.18927401-.3792973.24004139zm-70.98933261.31564062c-.50131292.24004139-.89551714.57058114-1.18206054.99161925-.28654339.42103811-.42953904.88842904-.42953904 1.40217279 0 .50491464.18109101.94305915.54327303 1.31332988.36273413.37082256.94355042.71570961 1.7441052 1.03631661l1.23837542.47953095c.63216221.24445594 1.08875449.50105191 1.37143314.77033972.28212654.27039144.42346587.58603207.42346587.9474737 0 .25273323-.05907542.47622004-.17667416.67046042-.11870295.19313675-.28488708.34488705-.4996566.45414727-.21476952.10981204-.46542598.16389032-.75196938.16389032-.42125744 0-.79613792-.0860838-1.12464143-.25880324-.32850351-.17216761-.68240393-.46904638-1.06170126-.89063631-.37874523-.42103811-.70559242-.86470081-.97943736-1.33264356-.27384494-.46683911-.48254129-.94085187-.62553694-1.42093465h-.12643244l.12643244 3.90301776h.12643245c.02539691-.10926021.06956545-.18651491.13250562-.23341955.06349227-.04635282.15790252-.06952923.28433497-.06952923.06790913 0 .14962092.00882911.24679171.02538369.09661868.01655458.2208427.04193826.37267205.07559924.53885618.11808932 1.04403385.20858769 1.51608511.27149508.47205126.0629074.87288076.09491292 1.20138427.09491292.58136839 0 1.11194297-.12250388 1.59227584-.366408.48033286-.24390412.85742177-.57885843 1.13126671-1.00375927.27384494-.42545266.41021531-.89891361.41021531-1.42093464 0-.54795655-.16839256-1.01534748-.50517767-1.40272461-.33678511-.38737714-.86349494-.72012416-1.57957739-.99768926l-1.17598735-.44255906c-.33678512-.1258148-.64430857-.2604587-.92201826-.40337989-.2782618-.14402484-.48916657-.27370237-.63216222-.39179169-.13526615-.10926022-.24237486-.24666322-.32243033-.41110536-.08005548-.16389033-.11980717-.34267978-.11980717-.53636834 0-.23562684.056867-.4464218.17060099-.63183308.11373398-.18485946.27163651-.32833247.47370758-.4293154.20262317-.10153474.4339559-.1517503.69510239-.1517503.41242373 0 .8110448.12250388 1.19420688.366408.38371418.24445594.73154143.5981721 1.04292963 1.06114848.31194031.46352819.57308679 1.01479565.78399157 1.65490601h.12588034l-.1391309-3.14592171h-.12588034c-.02539691.10981204-.05962753.183204-.10158764.22183135-.04251222.03752371-.10931713.05628557-.20151896.05628557-.14409986 0-.33347247-.02924642-.56922205-.08829108-.49744817-.11753751-.8761934-.19589585-1.13733988-.23397138-.2616986-.03752371-.52284509-.05683738-.78343947-.05683738-.61559902 0-1.17322682.1202966-1.67453974.36033798zm73.58036951.73226419c-.522293.41276082-.920914.89946542-1.1942069 1.45956199-.274397.56009657-.4107674 1.17261597-.4107674 1.8375582 0 1.34754268.5349915 2.45062942 1.6049743 3.30981204.4295391.35371616.8971735.62079669 1.4023511.80179341.5057298.18099672 1.0324397.27149509 1.5801295.27149509.8253996 0 1.5922759-.19313675 2.3000767-.58051389.7078009-.38792895 1.2681892-.91381272 1.681165-1.57930677.4124238-.66494223.6189117-1.38506639.6189117-2.15982066 0-.69915503-.1325056-1.32436627-.3975169-1.87563373-.2655633-.55126746-.6680491-1.04680117-1.2074574-1.48494568-.8761934-.71515779-1.8749545-1.0732885-2.9951791-1.0732885-1.0953797 0-2.089724.35813071-2.9824806 1.0732885zm2.1228504 7.25090533c-.2523127-.17658217-.4383727-.42103811-.5559714-.73226419-.2859913-.732816-.4295391-1.8061045-.4295391-3.22152095 0-1.41431281.1435478-2.48373857.4295391-3.20827729.1175987-.31177789.3036587-.55568201.5559714-.732816.2528649-.17658217.5394083-.26487325.8596302-.26487325.3202219 0 .6062132.08829108.8590781.26487325.253417.17713399.4422375.42103811.5692221.732816.2859913.73226419.429539 1.81879635.429539 3.25904466 0 .67377134-.0358869 1.27801346-.1076608 1.81272634-.0717739.53471288-.1788826.98720469-.3218782 1.35802724-.1181509.31122608-.3031066.55568202-.5559715.73226419-.2528649.17658217-.5399604.26542507-.8596302.26542507-.3285035 0-.6194638-.0888429-.8723287-.26542507zm-46.7551593-8.17906536v.12636662c.2782618.01710639.4825413.05076737.6128385.10153474.1302972.04966374.2423749.13409209.3345767.25218141.0679091.09270564.1181508.19148129.1523814.29687878.0331264.10539748.0546586.25659596.0629402.45469908.0082816.19810312.0121464.50712192.0121464.92871185v4.10498362c0 .42158993-.0038648.73116054-.0121464.92871184-.0082816.19755131-.0298138.34930161-.0629402.45469909-.0342306.10484566-.0844723.20417313-.1523814.29743059-.0922018.11753751-.2042795.20141404-.3345767.25162959-.1302972.05076738-.3345767.08498017-.6128385.10098293v.12636661h7.9492329l.569222-3.58737713h-.1269845c-.1761221.49663735-.387579.93091912-.6316101 1.30118986-.2445833.37082256-.5438252.71570961-.8971735 1.03631661-.3964126.35371616-.8027632.62521124-1.2196038.81503707-.4173927.1887222-.827608.28308329-1.2323022.28308329-.1943416 0-.3456189-.03310915-.454936-.10043111-.1098692-.06732195-.1855079-.17878944-.227468-.3349543-.0425122-.15561303-.0634922-.38020348-.0634922-.67597862v-2.98092774c.5648052 0 1.0490028.16664942 1.453697.49884463.4041421.33329884.6779871.79793067.8209827 1.39555095h.1269846v-3.89032591h-.1269846c-.0336785.34543886-.1490688.6528022-.3472751.92264183-.1982063.26928781-.4610091.48615279-.7900648.65059493-.3285035.16389033-.7072487.25880324-1.1373398.28363511v-3.89032592h.3539004c.8673597 0 1.624298.23397138 2.2686066.70081049.6448606.46794275 1.1610804 1.15219865 1.5481073 2.05276772h.1264324l-.5178761-2.90532851zm-5.0810383 0v.12636662c.1683925.05076737.294825.10705294.3792973.17106397.0839202.0629074.1645278.16168305.2407185.29632695.1761221.28639421.2644592.68204863.2644592 1.18751509 0 .28639421-.0209801.53912744-.0629402.75764787-.0425122.21907226-.1214635.48008278-.2401664.78358338-.1181509.30294878-.3113882.75378514-.5813684 1.3508536l-.5935148 1.32657354-1.453697-3.17020176c-.1937895-.40448353-.3494836-.74109329-.4676344-1.01093292-.1181509-.2692878-.1937895-.46518365-.227468-.58713571-.0336785-.12195206-.0507938-.24169684-.0507938-.35978617 0-.21907225.0590754-.38737713.1772262-.50546646.1175988-.11808932.3075235-.19810312.56867-.24004138v-.12636662h-4.8403198v.12636662c.2611465.05904466.486406.15340575.6757786.28418692.1899248.13078117.3732242.32888429.5498984.59375755.1766741.26542507.3875789.64618037.6321622 1.14336954l3.2601903 6.6946715 2.4900014-5.22959131c.5140113-1.06942576.9899274-1.87784101 1.4283001-2.42524573.4378207-.54740473.8927566-.90112088 1.3648079-1.06114847v-.12636662zm27.2337692.01931368v.12581479c-.0143548.00331092-.0242927.00993275-.0386475.01379548.2092485.01876186.3820579.045801.4930313.08773927.1352662.05076737.2445833.1346439.3290556.25273323.066805.09215382.1159425.19092947.1452041.29632695.0292617.1059493.0507938.26156234.0634923.46739093.0121463.20638041.0187716.51153647.0187716.91602v4.10498362c0 .40448353-.0066253.70963959-.0187716.91657182-.0126985.20638041-.0342306.36199345-.0634923.46739093-.0292616.10484567-.0783991.20362132-.1452041.29687878-.0844723.1175375-.1937894.20141403-.3290556.25218141-.134714.05021555-.3406498.08442835-.6189116.10098292v.12636662h5.0048476v-.12636662c-.3202219-.01655457-.5565236-.05076737-.7078009-.10098292-.1518293-.05076738-.2782618-.13464391-.3792973-.25218141-.0756386-.08442835-.1302972-.183204-.1645278-.29687878-.0336785-.11422659-.0563149-.2720469-.0695655-.47401276-.0121463-.20196585-.0182195-.50546646-.0182195-.90994999v-1.45238834h.3660468c.7160824 0 1.3062845-.04193827 1.76895-.12636662.4637696-.08387653.8938608-.22293498 1.2897213-.41662355.3958606-.20251768.7055924-.46794275.9286436-.7957234.2236032-.32888429.3351288-.68646319.3351288-1.07384032 0-.48836006-.1623194-.91381273-.4864061-1.27580617-.3246387-.36199345-.7900647-.64011037-1.39683-.83379893-.6067653-.19368857-1.3228478-.29025694-2.1482474-.29025694zm3.5009088.15119848h.3406499c.4046942 0 .7309893.07394378.9794373.22127953.2484481.14733575.4300912.38130712.5438252.70081048.113734.32005519.1711531.74937058.1711531 1.28849802 0 .57334023-.0552107 1.02583204-.1645278 1.35857907-.1098693.3321952-.2887519.57223659-.5371999.71957234-.2490001.14733574-.5879937.22072771-1.0175327.22072771h-.3158051zm-3.6654366-.15119848h-3.0332745v.12581479c.3113882.10981204.5432731.24831868.6951024.41717538.1518294.16830488.2821266.42048629.3914437.75819969.2191864.69915502.3285035 1.72995344.3285035 3.09460251v1.14943956c0 .4635282-.0253969.81889981-.0750865 1.06721849-.0507938.24831867-.1479646.47842731-.2909603.68867046-.1766741.2775651-.4278827.49056734-.7525214.63790308-.3240867.14733575-.7006235.22072772-1.1307147.22072772-.4046942 0-.7668762-.07339197-1.086546-.22072772-.320774-.14733574-.5521068-.34764614-.6951024-.59982755-.1098692-.20196586-.1855079-.45966546-.2280201-.77089153-.0419601-.31122608-.0629402-.79572341-.0629402-1.45294017v-2.95554406c0-.34543886.0038648-.63404035.0126985-.86525263.0082816-.23176409.0270532-.40227625.056867-.51153647.0292616-.10926022.0772949-.21079496.1452041-.30294878.0761907-.11808933.1750178-.20196586.2970334-.25273323.1225677-.05076738.3180135-.08442835.5874416-.10153475v-.12581479h-4.7641291v.12581479c.2782618.0171064.4841976.05076737.6189117.10153475.134714.05076737.2440311.1346439.3285035.25273323.067357.09215382.1159424.19092947.1457561.29632695.0292617.1059493.0507939.26156234.0629402.46739093.0126985.20638041.0187716.51153647.0187716.91602v3.34788757c0 .45469909.0276054.82662528.0828161 1.11743404.0546585.29025694.1468603.5352647.2777096.732816.1302972.19755131.3091798.37247802.5371999.52422832.6906855.47180548 1.6386528.7068805 2.8433497.7068805.4803329 0 .9015903-.04414555 1.2637723-.13243663.3621821-.08829109.682404-.22514227.9606658-.41055355.2528649-.16830488.4527275-.35978617.6006921-.57444386.1468604-.21520952.2523128-.47566822.315253-.78358338.0634922-.30681152.0949623-.68867046.0949623-1.14281773v-.97285739c0-1.38065183.1181509-2.43352302.3539004-3.15750991.1347141-.40448353.2992419-.70356958.4935835-.89725815.1849557-.18485946.4311953-.3090188.7320935-.37799621.0143548-.00386273.0242927-.01048456.0386475-.01379548v-.12581479z" fill="url(#a)" fill-rule="evenodd" mask="url(#b)" transform="translate(18 20)"/></svg>