<svg height="50" viewBox="0 0 320 50" width="320" xmlns="http://www.w3.org/2000/svg" xmlns:xlink="http://www.w3.org/1999/xlink"><linearGradient id="a" x1=".17767%" x2="100.177285%" y1="50.000017%" y2="50.000017%"><stop offset="0" stop-color="#dbdada"/><stop offset="1" stop-color="#929191"/></linearGradient><mask id="b" fill="#fff"><path d="m72.5266615 0c-.3899691.1414791-.9564205.30936763-1.701252.5027224-.7457803.19335477-1.4298867.35558414-2.0561144.4876313l.027516.1565702c.2372075.00848875.4279223.04433012.5702468.10563773.1413757.06036442.2599794.16128617.3548624.30370847.1148084.15091104.1907148.32823151.228668.53007502.0370044.20278671.0569298.51687031.0569298.94036442v5.814791c0 .50932475-.0246696.87339764-.0721111 1.09033226-.0464926.2169346-.139478.3621865-.2761095.437642-.1385292.0754555-.368146.1235584-.6907482.1433655v.1405359h4.5961322v-.1405359c-.3216534-.0198071-.5531679-.06791-.6897994-.1433655-.1385291-.0754555-.2296168-.2225938-.2770583-.44518755-.0483903-.2207074-.0711623-.5819507-.0711623-1.08278671zm-4.8817299 0c-.3899691.1414791-.9564206.30936763-1.7003032.5027224-.7457803.19335477-1.4317844.35558414-2.0570633.4876313l.0275161.1565702c.2381563.00848875.4279223.04433012.5702468.10563773.1423244.06036442.2609282.16128617.3548623.30370847.1148085.15091104.1907149.32823151.2277192.53007502.0389021.20278671.0569298.51687031.0569298.94036442v5.814791c0 .50932475-.0237207.87339764-.0702134 1.09033226-.0483903.2169346-.1413756.3621865-.2780072.437642-.1309385.072626-.3482205.1197857-.6499485.1405359-.368146-.024523-.6565903-.1131833-.8653328-.2669239-.2182309-.160343-.4582849-.48574489-.7192131-.97714897-.2609283-.48951768-.6575392-1.35159699-1.1888839-2.58906752l-1.8359859-4.39905681c-.2077938-.49894962-.4544895-1.13654876-.7391385-1.90902465-.3890203.48008575-.8074543.91112541-1.2524555 1.29311897-.4459501.38199357-.8359192.64891747-1.1680097.79982851.2182309.20750268.4032528.45367632.5550656.73569132l-1.4365285 3.77749196c-.2466958.67909968-.5436796 1.27897107-.8900025 1.79772776-.3472718.51781351-.7144689.9281029-1.1025404 1.22992493-.3890203.3018221-.7789893.471597-1.1670608.510268v.1405359h4.3978267v-.1405359c-.4459501-.029239-.7932218-.1990139-1.0399176-.510268-.2466958-.31125397-.3690948-.72720253-.3690948-1.24595922 0-.27258307.027516-.53856378.0853947-.79794213.0559809-.25937835.1461198-.56308681.2694677-.91301179h2.8749546l.3140627.73474813c.3985086.93470525.5977629 1.58079314.5977629 1.93920686 0 .25466238-.0844459.44613075-.2495423.57251875-.1660452.1282744-.4193828.2009003-.7609616.2207074v.1405359h5.6493334 4.5970809v-.1405359c-.3226021-.0198071-.552219-.06791-.6897993-.1433655-.1375804-.0754555-.2296169-.2225938-.2780072-.44518755-.0464927-.2207074-.0702134-.5819507-.0702134-1.08278671zm-10.6183557 3.36720257 1.4659423 3.50868167h-2.7753275zm-51.81749963-1.70529475c-.44595006.38199357-.83497033.64891747-1.1670608.79982851.21823088.20750268.40230388.45367632.5550655.73569132l-1.43747733 3.77749196c-.24669578.67909968-.54273072 1.27897107-.89000247 1.79772776-.34632292.51781351-.7135201.9281029-1.1034892 1.22992493-.38807143.3018221-.7770917.471597-1.16611197.510268v.1405359h4.39782669v-.1405359c-.44595007-.029239-.79227299-.1990139-1.03896877-.510268-.24574695-.31125397-.37004367-.72720253-.37004367-1.24595922 0-.27258307.0284649-.53856378.0853947-.79794213.05692979-.25937835.14706863-.56308681.27041652-.91301179h2.87495467l.31311387.73474813c.39850857.93470525.59776285 1.58079314.59776285 1.93920686 0 .25466238-.0825482.44613075-.24859344.57251875-.16604524.1282744-.42128048.2009003-.76191043.2207074v.1405359h5.73567691v-.1405359c-.3899691-.0198071-.6926459-.1094105-.9108768-.2697535-.2182308-.160343-.457336-.48574489-.719213-.97714897-.26092826-.48951768-.65659034-1.35159699-1.18698627-2.58906752l-1.83693473-4.39905681c-.20874258-.49894962-.45543836-1.13654876-.74103616-1.90902465-.38807144.48008575-.80555661.91112541-1.25150667 1.29311897zm-.49813571 1.70529475 1.46594223 3.50868167h-2.77437869zm107.84400844-2.20047159c-.265672.18392282-.46967.44330117-.611995.77813504-.141376.33483387-.213487.72908896-.213487 1.18182208v.26881029c-.398508.01886388-.725854.05470525-.982039.10563773-.256184.05187567-.517112.13959271-.782784.26220793-.465876.19712755-.825482.44518757-1.081666.74323687-.257133.29616292-.384276.61590568-.384276.95451233 0 .3772776.115757.70079314.349169.96866023.231514.26881029.571196.47914255 1.017146.63005359-.569298.30276528-.986784.6130761-1.252456.93376206-.266621.32068596-.398508.66966774-.398508 1.04694534 0 .35935691.131887.6602358.398508.90452304.265672.24617359.649949.42443729 1.152828.53856379-.483903.1697749-.8511.3678456-1.103489.5942122-.25144.2263666-.376685.4706538-.376685.7356913 0 .2829582.128092.5272455.384276.7366345.256184.2065595.621484.3669025 1.095898.4800858.474415.1141265 1.034225.1697749 1.679429.1697749.826431 0 1.579802-.1226152 2.26296-.3678457.683157-.2461736 1.221144-.5828938 1.614908-1.0111039.393765-.4291533.591121-.9035799.591121-1.4223366 0-.3961415-.111962-.7498392-.333988-1.06109322-.223924-.31125402-.533242-.55365488-.9327-.72814577-.398508-.17449089-.849202-.26126473-1.351133-.26126473-.16225 0-.480108.00848874-.954523.02640943-.426974.02923901-.750525.04338692-.967807.04338692-.417485 0-.744831-.02357985-.982039-.06979635-.237207-.0481029-.409894-.12733119-.519959-.24145767-.108166-.11318328-.162249-.26409432-.162249-.45273312 0-.11318328.022771-.20750268.070213-.2829582.047441-.07545552.128092-.16034298.241952-.25466238.313113.0943194.602507.16317257.868179.2056163.264723.04244373.540833.06319399.826431.06319399.597763 0 1.145238-.09243301 1.643373-.27635584.497187-.18392283.8919-.43575563 1.181293-.75644158.289394-.32068596.433616-.66966774.433616-1.04694534 0-.25466238-.075907-.49706324-.227719-.72908896-.151813-.23013934-.364351-.43009647-.640461-.59987139-.294137-.17071811-.611995-.30653804-.953574-.41123258-.341578-.10375134-.659437-.16034298-.953574-.16977492h-.313114v-.12638799c0-.32068596.037954-.55365488.11386-.69419079.075906-.14242229.199254-.21221865.370044-.21221865.075906 0 .149915.02357985.220128.06979636.072111.04904609.17838.14713826.321653.2980493.149916.15185424.291291.26032155.419383.32540193.128092.06602358.272315.09903537.433616.09903537.180277 0 .346323-.04998928.498135-.14902465.152762-.09903537.273263-.23013933.363402-.39519828.08919-.16600215.134734-.3470954.134734-.54516613 0-.21787782-.05693-.41500536-.170789-.59326903-.11386-.18015005-.26757-.32162915-.463029-.42538049-.194511-.10375134-.409895-.15562701-.647102-.15562701-.351067 0-.660386.09148982-.92511.27541265zm-1.508639 5.56012861c-.151813-.31502679-.227719-.80831725-.227719-1.47798499 0-.57534834.071162-.99789925.213486-1.26670954.142325-.2678671.3653-.40368703.668926-.40368703.322602 0 .562656.16128617.718264.48291532.157506.31974277.23531.80548768.23531 1.45629154 0 .60364416-.068316 1.03562701-.205897 1.29406216-.138529.26032155-.363401.39048232-.676515.39048232-.33304 0-.574991-.15939979-.725855-.47536978zm-.142325 6.01286171c-.38902-.1367631-.692645-.3272883-.910876-.5725187-.218231-.2452305-.326398-.5234727-.326398-.8347267 0-.1131833.022772-.2310825.070214-.3527546.047441-.1235584.104371-.2273097.170789-.3121972.066418-.0848874.128092-.1273312.185971-.1273312.207793.0282958.400406.0490461.575939.0641372.175534.0132047.357709.0207503.547475.0207503.085395 0 .347272-.009432.782785-.0282958l.768552-.0282959c.511419 0 .908979.0896035 1.188884.2688103.279905.1792069.419383.4338693.419383.7639872 0 .2631511-.090139.4980064-.270417.7007931-.180277.2027867-.433615.3603001-.76191.4734834-.327346.1131833-.699288.1697749-1.115824.1697749-.49434 0-.935546-.0688531-1.324567-.2056163zm-33.0714665-11.52300104v.1414791c.3131138.01980707 1.4944071.05564844 1.6462199.11412647.1518128.05564845.2751607.15091104.3690948.28201501.0768552.10375134.1309385.21410503.1641476.33200428.033209.11789925.0578786.29239014.0721111.52441587.0132836.23013933.0208742.57251875.0208742 1.02525187v4.59807074c0 .45273312-.0075906.79511254-.0208742 1.02525188-.0142325.23202572-.0389021.40557342-.0721111.52441586-.0332091.11789925-.0872924.22825296-.1641476.33200426-.0939341.1320472-.217282.2273098-.3690948.2829582-.1518128.0556485-1.3331061.0943194-1.6462199.1141265v.1405359h6.3998578v-.1405359c-.3131139-.0198071-.5427307-.058478-.6907482-.1141265-.1470686-.0556484-.2723142-.150911-.3766855-.2829582-.0759064-.1037513-.1309385-.21693459-.1631987-.33954981-.0332091-.12261522-.0578787-.29710611-.0711623-.52347267-.0142324-.22636656-.0218231-.5659164-.0218231-1.01864952v-2.26366559h.2561841c.3131139 0 .5854281.08677384.8188402.26126473.2315145.17449089.4573361.46499464.6755669.87056806.189766.3301179.4060993.76398714.6471021 1.30160772.2419516.53762058.5674002 1.28745981.9753971 2.24951768h4.1710563v-.1405359c-.3330393-.029239-.5882745-.0811147-.769501-.1565702-.1793289-.0754555-.3472718-.2150482-.4981357-.41689175-.1518128-.20278671-.3510671-.53573419-.5987117-.99789925l-.8103008-1.54212219c-.2277191-.41500536-.4317176-.73097535-.6119953-.94696677-.1802776-.21787781-.3795319-.38105038-.5977628-.48951769-.2182309-.10846731-.5028799-.19052518-.8539469-.24617363.7875288-.11412647 1.3966776-.34237942 1.829344-.68758842.4307688-.34426581.6471021-.77436228.6471021-1.29406217 0-.36784566-.1186038-.71871382-.3558113-1.05449089-.2381563-.33389067-.5598096-.60553054-.9678065-.81303322-.4649266-.2357985-1.003862-.40368704-1.6149085-.50177921-.6119953-.09903537-1.439375-.14902465-2.4840367-.14902465zm5.07624.17071811h.3985086c.3785831 0 .6812599.04244373.9042349.126388.2229751.08488746.4051504.22259378.5474749.40934619.2941373.38765273.4412059.943194.4412059 1.67133977 0 .77247588-.1489663 1.33367631-.4487966 1.68265809-.2988814.34898178-.7789893.52347267-1.4441191.52347267h-.3985086zm42.9668145 2.31176849c-.465876.20278671-.830226.48102894-1.096848.83472669-.264723.35369775-.397559.74795284-.397559 1.18276527 0 .34898178.084445.6602358.256184.93376206.170789.27258306.441206.52535906.811249.75549839.370044.23108253.857742.4555627 1.464994.67249732l.69739.25371919c.33209.1245016.595865.24428724.791324.36218649.192612.11695606.333039.2518328.419383.40274384.085394.15185423.128092.3291747.128092.53856377 0 .30087889-.095832.54705252-.284649.73380492-.190715.189582-.446899.2839014-.769501.2839014-.39756 0-.804608-.1395927-1.2164-.4178349-.411793-.27824226-.809352-.67155416-1.188884-1.18087892-.378583-.50932476-.716367-1.10353698-1.009555-1.78357985h-.142325l.142325 2.81637727c.61579.2263666 1.208809.408403 1.779056.5442229.568349.1367632 1.02948.2056163 1.380547.2056163.607252 0 1.149033-.1112969 1.628193-.3320043.479159-.2216505.854895-.5263022 1.125312-.91301174.270416-.38576635.406099-.82529475.406099-1.31575563 0-.49989282-.171738-.92150053-.512368-1.26670954-.342528-.34332261-.892849-.63854233-1.651913-.88471597l-.967807-.31031082c-.890951-.29239014-1.336901-.72154341-1.336901-1.28651662 0-.17071811.044595-.32823151.134734-.47442658.090139-.14713826.21064-.26220793.362453-.34709539.151813-.08488746.317858-.12827438.499084-.12827438.293189 0 .606303.11129689.939342.33294748.332091.22165059.647102.52535906.945984.91301179.29983.38670954.547474.82057878.746729 1.30066452h.143273l-.143273-2.31931404c-.512368-.1414791-.966858-.24523044-1.366315-.31219721-.39756-.06508039-.782785-.09809218-1.152829-.09809218-.578786 0-1.100642.10186495-1.56462.30370847zm-7.892368.20561629c-.593018.33954984-1.059843.8017149-1.40237 1.38649518-.341579.58478028-.512368 1.2261522-.512368 1.92411575 0 .66966774.164147 1.28368703.491494 1.8392283.327346.55648446.77804.99318332 1.352082 1.30915322.574042.31597 1.211656.4734834 1.91379.4734834.550321 0 1.058894-.1056377 1.523821-.3178563.463978-.2122187.862486-.5168704 1.195526-.91301183.198305-.24523044.367197-.49046088.504777-.73569132.137581-.24523044.281803-.57063237.434564-.97620579l-.129041-.05564844c-.294137.43292604-.618637.74700964-.974448.93942122-.35676.19335477-.784682.29050375-1.287562.29050375-.788478 0-1.37865-.21693462-1.772414-.65080386-.393765-.43386924-.595866-1.09410504-.605354-1.98070739h4.710941c-.046493-.3772776-.115758-.68664524-.205896-.92621651-.090139-.24145766-.221078-.48008575-.391867-.71494105-.321654-.44330118-.737241-.7866238-1.244865-1.03279743-.507624-.24428724-1.055099-.36784566-1.643373-.36784566-.711623 0-1.364418.16977492-1.957437.50932476zm1.032327.37539121c.208743-.46688103.506676-.70173633.895696-.70173633.237207 0 .424127.07451232.562656.22070739.136631.14525188.244798.38010718.320704.69984995.037005.19807074.063572.42726688.077805.68664523.014232.26032154.020874.61967846.020874 1.08278671h-2.190848c0-.85924973.103422-1.52137192.313113-1.98825295zm-14.92889-.75738478c-.265672.08488746-.533242.22448017-.803659.41783494-.270416.19241158-.572144.45933548-.904234.79888532v-1.34405145c-.721111.25466238-1.370111.46405145-1.949846.6291104-.579735.16600214-1.1812932.31879957-1.807521.46027867l.0284649.1414791c.2372075.01980707.4269735.05847803.5683492.12072883.1432733.06130761.261877.1575134.35676.29050375.1138596.14996785.189766.32634513.2277192.53007503.0379532.20278671.0569298.52064309.0569298.95451233v2.31931404c0 .50932475-.0265672.87339764-.0787529 1.09033226-.0521856.2169346-.1518128.3621865-.2979326.437642-.1470686.0754555-.401355.1235584-.7619104.1433655v.1405359h4.3266648v-.1405359c-.208743-.029239-.357709-.0792283-.448797-.1490247-.08919-.0716827-.150864-.1961843-.184073-.37539116-.033209-.17920686-.045544-.46688103-.036055-.86302251v-4.15948553c.370992-.3301179.725854-.49517685 1.067433-.49517685.132836 0 .256184.03301179.370993.09997856.11291.06508039.198305.15091104.255235.25371919.066418.12261522.109115.28578778.128092.4876313.018977.20278671.028465.58289389.028465 1.14032154v2.67301179c.008539.39614148-.001898.68381565-.035107.86302251-.034158.17920686-.095832.30370846-.18597.37539116-.089191.0697964-.240054.1197857-.447848.1490247v.1405359h4.041066v-.1405359c-.274211-.029239-.468722-.0763987-.581632-.1433655-.114809-.0650804-.190715-.1867524-.228668-.3669025-.037954-.17920681-.052186-.47159695-.042698-.87717037v-3.66430868c0-.3772776-.02372-.67909968-.071162-.90640943-.047441-.22448018-.132836-.41406217-.255235-.56497321-.134734-.1886388-.328295-.33483387-.584479-.43764201-.256184-.10469454-.545578-.15657021-.86818-.15657021-.322602 0-.616739.04244373-.882412.12733119zm-10.4532589.16977492c-.7448314.19807074-1.3881381.44801715-1.9289712.74983923-.4374106.2357985-.7609616.48385852-.9753971.74323687-.2134868.26032154-.3188069.53950697-.3188069.84132905 0 .29239014.0920365.53101822.2761095.71399785.1859707.18392283.4250758.27635584.7192131.27635584.4079969 0 .747678-.13110396 1.0180945-.39614148.2694677-.26409431.4336153-.61779206.4905451-1.06109324.0569298-.45367632.0977294-.74040729.1214502-.86302251.0227719-.12261522.0683157-.24523044.1347338-.36690247.0853947-.18015005.2153844-.31879957.3918668-.41877813.1745847-.09809218.3671972-.14808146.5759398-.14808146.2751606 0 .4886474.11318328.6404602.34049303.0759064.11224009.128092.28956056.1565569.53007503.0284649.24051447.0426973.60081458.0426973 1.08278671v.73569132c-1.0247363.29144694-1.8597066.57912111-2.5049109.86113612-.5322936.21787781-.9469323.4234941-1.2448649.61684887-.2998303.19335477-.5123682.39614148-.6404602.60741694-.1290409.21316184-.1926125.46027867-.1926125.74418006 0 .30087889.0844459.56968918.2561841.80548767.1707894.2357985.4079969.4197213.7116224.5517685.3036256.131104.6546927.1980707 1.0532013.1980707.5598096 0 1.0408664-.1056377 1.4441191-.3178563.4042015-.2122187.7770917-.55459811 1.1177216-1.02619511.094883.46216506.2580818.80077171.4905451 1.01959271.2334122.2159914.5493725.3244587.9469323.3244587.3501182 0 .7087759-.087717 1.0750243-.2622079.3643507-.1735477.7941706-.4631082 1.2875622-.86962486l-.0853947-.09903537c-.1328362.07545552-.240054.1254448-.3197557.14902465-.0815994.02357985-.1641476.03489818-.2495423.03489818-.122399 0-.2315145-.02640943-.3263975-.07734191-.0958318-.05187567-.1622499-.1254448-.2011519-.2197642-.0370044-.08394427-.0626228-.18580922-.0778041-.30465166-.0132836-.11789925-.0208742-.31314041-.0208742-.58666667v-3.25401929c0-.40557342-.0398509-.72625938-.1214502-.96205788-.0806506-.2357985-.2248727-.43386924-.4336153-.59421222-.1603523-.1414791-.3463229-.24334405-.5550655-.30370847-.2087426-.0622508-.4554384-.09243301-.7400874-.09243301-.5977628 0-1.2695344.09809218-2.0134171.29710611zm-.1214502 5.84308682c-.1423245-.22730976-.2134867-.55176849-.2134867-.97620579 0-.36784566.050288-.66683816.1499151-.89792069.0996272-.23108252.2694677-.42632368.5123682-.58760986.2419516-.16034298.5806839-.31219721 1.0171456-.45273312v2.19386924c0 .32917471-.0759064.58855306-.228668.77719186-.1508639.1886388-.3596065.28390139-.6243301.28390139-.2666212 0-.4696708-.11412647-.6129441-.34049303zm-50.1456613-5.83648446c-.4649267.20278671-.8302262.48102894-1.0958986.83472669-.2656724.35369775-.3975597.74795284-.3975597 1.18276527 0 .34898178.0844458.6602358.256184.93376206.1698406.27258306.4402571.52535906.8112496.75549839.368146.23108253.8577423.4555627 1.4649934.67249732l.69739.25371919c.3320905.1245016.5958652.24428724.7903753.36218649.1935613.11695606.3339882.2518328.4193829.40274384.0863435.15185423.128092.3291747.128092.53856377 0 .30087889-.094883.54705252-.284649.73380492-.189766.189582-.44595.2839014-.7685522.2839014-.3985086 0-.8046078-.1395927-1.2164-.4178349-.412741-.27824226-.8093519-.67155416-1.1888839-1.18087892-.3795319-.50932476-.7163665-1.10353698-1.0105038-1.78357985h-.1413757l.1413757 2.81637727c.6167394.2263666 1.2097581.408403 1.7790561.5442229.5692979.1367632 1.0294804.2056163 1.3805475.2056163.6072512 0 1.1499819-.1112969 1.629141-.3320043.4791591-.2216505.8539469-.5263022 1.1243634-.91301174.2713654-.38576635.4060993-.82529475.4060993-1.31575563 0-.49989282-.1707894-.92150053-.5123682-1.26670954-.3415788-.34332261-.8919001-.63854233-1.6509641-.88471597l-.9678065-.31031082c-.8919001-.29239014-1.338799-.72154341-1.338799-1.28651662 0-.17071811.0455438-.32823151.1356827-.47442658.0910876-.14713826.211589-.26220793.3634018-.34709539.1518128-.08488746.3178581-.12827438.4981357-.12827438.2931885 0 .6072512.11129689.9393417.33294748.3320904.22165059.6480508.52535906.9469322.91301179.2988815.38670954.5474749.82057878.7467292 1.30066452h.1423245l-.1423245-2.31931404c-.5123682-.1414791-.9678065-.24523044-1.3663151-.31219721-.3985086-.06508039-.7827847-.09809218-1.1528284-.09809218-.5787862 0-1.1006427.10186495-1.5655693.30370847zm-7.2585489 0c-.4649267.20278671-.8302262.48102894-1.0958986.83472669-.2656724.35369775-.3975597.74795284-.3975597 1.18276527 0 .34898178.0844458.6602358.256184.93376206.1698406.27258306.4402571.52535906.8112496.75549839.3690949.23108253.8577423.4555627 1.4649934.67249732l.69739.25371919c.3320905.1245016.5958652.24428724.7903753.36218649.1945102.11695606.3339882.2518328.4193829.40274384.0863435.15185423.1290408.3291747.1290408.53856377 0 .30087889-.0958318.54705252-.2855978.73380492-.189766.189582-.44595.2839014-.7685522.2839014-.3985086 0-.8036589-.1395927-1.2173488-.4178349-.4117922-.27824226-.8084031-.67155416-1.1869862-1.18087892-.3804808-.50932476-.7173154-1.10353698-1.0114527-1.78357985h-.1413757l.1413757 2.81637727c.6167394.2263666 1.2097581.408403 1.7800049.5442229.5683491.1367632 1.0285316.2056163 1.3795987.2056163.6072512 0 1.1499819-.1112969 1.629141-.3320043.4791591-.2216505.8539469-.5263022 1.1253123-.91301174.2704165-.38576635.4051504-.82529475.4051504-1.31575563 0-.49989282-.1707894-.92150053-.5123682-1.26670954-.3415788-.34332261-.892849-.63854233-1.6509641-.88471597l-.9678065-.31031082c-.8919001-.29239014-1.3378502-.72154341-1.3378502-1.28651662 0-.17071811.044595-.32823151.1356827-.47442658.0901388-.14713826.2106402-.26220793.362453-.34709539.1518128-.08488746.3178581-.12827438.4990846-.12827438.2931884 0 .6063023.11129689.9383928.33294748.3320904.22165059.6480508.52535906.9469322.91301179.2988815.38670954.5484237.82057878.7467292 1.30066452h.1423245l-.1423245-2.31931404c-.5123682-.1414791-.9678065-.24523044-1.3663151-.31219721-.3985086-.06508039-.7827847-.09809218-1.1528284-.09809218-.5787862 0-1.1006427.10186495-1.5655693.30370847zm-8.3610893.19146838c-.6034558.3301179-1.076922.77813505-1.4232449 1.34405145-.3472717.5659164-.5199588 1.19314041-.5199588 1.88167202 0 .68853162.1726871 1.31575563.5199588 1.88167203.3463229.5659164.8197891 1.01393356 1.4232449 1.34499466.6015582.3291747 1.2638415.4942336 1.9849522.4942336.7211107 0 1.3824452-.1631725 1.985901-.4885745.602507-.3254019 1.0788196-.76775987 1.4298867-1.3289603.3510671-.56120043.5266006-1.17710611.5266006-1.84677385 0-.59421221-.1062689-1.12334405-.3207045-1.58362272-.2134867-.46310825-.5389354-.87811361-.9744483-1.24595927-.3890203-.32068596-.7989148-.55931404-1.2315813-.71494105-.4317176-.15562701-.9032861-.23296892-1.4156542-.23296892-.7211107 0-1.383394.16505895-1.9849522.49517685zm1.2315812 6.33826366c-.2855978-.39519828-.4279223-1.43365487-.4279223-3.11254019 0-.69796355.0284649-1.30632368.0853947-1.82508038.0569298-.5187567.1328362-.88188639.2277192-1.08938907.189766-.41500536.4791591-.62345123.8681794-.62345123.323551 0 .5787862.13770632.7685522.41123258.284649.41594855.4269735 1.46666667.4269735 3.15404073 0 .67909968-.0275161 1.28180064-.0853947 1.80527331-.0569298.52252948-.1328362.88471597-.2277192 1.08184355-.1907148.4140621-.4791591.622508-.8681794.622508-.3226021 0-.5787862-.1405359-.7676034-.4244373zm-5.779323-6.31751339c-.3415788.345209-.6546927.8950911-.9393416 1.64870311v-2.16463023c-.8065055.29239014-1.4232449.5027224-1.8502184.6291104-.4269735.12827438-1.0247363.28107181-1.7932885.46027867l.0294137.1414791c.2362586.01980707.4260246.05847803.5683491.12072883.1423245.06130761.2609282.1575134.3558112.29050375.1138596.14996785.189766.32634513.2277192.53007503.0379532.20278671.0569298.52064309.0569298.95451233v2.31931404c0 .50932475-.0265672.87339764-.0787529 1.09033226-.0521856.2169346-.1518128.3621865-.2988814.437642-.1470686.0754555-.4004062.1235584-.7609616.1433655v.1405359h4.7963353v-.1405359c-.3605554-.0198071-.613893-.06791-.7609616-.1433655-.1480175-.0754555-.2466958-.2207074-.2988815-.437642-.0521856-.21693462-.0787529-.58100751-.0787529-1.09033226v-1.76754556c0-.43386924.0075907-.7687031.0208743-1.0045016.0151813-.2357985.0379532-.4244373.0711623-.5659164.033209-.1414791.0882411-.27918543.1641475-.41028939.1138596-.19807074.2599794-.29710611.4412059-.29710611.0759064 0 .1499152.02169346.2210774.06413719.0711623.04150054.1442222.11506967.2201286.2197642.1138595.16034298.1973566.27069668.2485934.3310611.0521856.06130761.1072178.11601286.1641476.16222936.0853947.07639872.1869195.13487675.306472.17732047.1186038.04338693.2391052.0641372.3624531.0641372.2002031 0 .3842761-.05187567.5550655-.15657021.1707894-.10280814.3036255-.24428724.3985085-.4234941.094883-.17920686.1423245-.38199357.1423245-.60836013 0-.22636656-.0569298-.43386924-.1698405-.62345123-.1148085-.18675241-.2713654-.33672026-.4696708-.44518757-.2002032-.10752412-.418434-.16222937-.6556415-.16222937-.4544896 0-.8539469.1726045-1.1955257.51592712zm-9.9987697-.00660236c-.6110465.33954984-1.0930521.8017149-1.4441192 1.38649518-.351067.58478028-.5266006 1.23086817-.5266006 1.93732047 0 .68947481.156557 1.30726688.4696708 1.85337621.3131139.54799571.7429339.97714899 1.2875622 1.28745979.5455772.3121972 1.1651632.4678242 1.857809.4678242.7970172 0 1.4925095-.2216506 2.0845794-.6649517.5939675-.44330121 1.0940009-1.11768492 1.5019977-2.02315116l-.1707894-.08488746c-.3320904.3301179-.6689251.57346195-1.0105038.72908896-.3415788.15562701-.7163666.23296892-1.1243635.23296892-.4839032 0-.9108767-.11506967-1.2809204-.3461522-.3700436-.23108253-.6546926-.55931404-.8539469-.98469453-.1992543-.4244373-.2988814-.91395499-.2988814-1.46949625 0-.49140407.0692646-.93659164.2068449-1.33839228.1366315-.40085745.3226022-.71777064.5541167-.95451233.2324633-.2357985.4914939-.35464094.7761428-.35464094.2466958 0 .4535407.08205788.6186371.24145766.1660453.16034298.2495423.36312969.2495423.60836013 0 .08394427-.0094883.17543408-.0294137.26881029-.0180278.0943194-.0464927.20750268-.0844459.34049303-.0569298.16977492-.094883.30559486-.1138596.4093462-.0189766.10375134-.0284649.20750268-.0284649.31125402 0 .2357985.0521857.44613076.156557.62911039.1043713.18486603.2466958.3310611.4269734.43952841.1802777.10752411.3842762.16222936.6119953.16222936.2172821 0 .4174852-.05470525.5977629-.16222936.1802777-.10846731.3207045-.26032155.4203316-.45367632.0986784-.19335477.1480175-.4074598.1480175-.6432583 0-.4244373-.1318873-.81491962-.3975597-1.17521972-.2656724-.35747053-.6271766-.64042873-1.0816661-.84793141-.4554384-.20655948-.9583183-.31125402-1.5086396-.31125402-.730599 0-1.4023706.16977492-2.0143659.50932476z" fill="#fff" fill-rule="evenodd"/></mask><path d="m72.5266615 0c-.3899691.1414791-.9564205.30936763-1.701252.5027224-.7457803.19335477-1.4298867.35558414-2.0561144.4876313l.027516.1565702c.2372075.00848875.4279223.04433012.5702468.10563773.1413757.06036442.2599794.16128617.3548624.30370847.1148084.15091104.1907148.32823151.228668.53007502.0370044.20278671.0569298.51687031.0569298.94036442v5.814791c0 .50932475-.0246696.87339764-.0721111 1.09033226-.0464926.2169346-.139478.3621865-.2761095.437642-.1385292.0754555-.368146.1235584-.6907482.1433655v.1405359h4.5961322v-.1405359c-.3216534-.0198071-.5531679-.06791-.6897994-.1433655-.1385291-.0754555-.2296168-.2225938-.2770583-.44518755-.0483903-.2207074-.0711623-.5819507-.0711623-1.08278671zm-4.8817299 0c-.3899691.1414791-.9564206.30936763-1.7003032.5027224-.7457803.19335477-1.4317844.35558414-2.0570633.4876313l.0275161.1565702c.2381563.00848875.4279223.04433012.5702468.10563773.1423244.06036442.2609282.16128617.3548623.30370847.1148085.15091104.1907149.32823151.2277192.53007502.0389021.20278671.0569298.51687031.0569298.94036442v5.814791c0 .50932475-.0237207.87339764-.0702134 1.09033226-.0483903.2169346-.1413756.3621865-.2780072.437642-.1309385.072626-.3482205.1197857-.6499485.1405359-.368146-.024523-.6565903-.1131833-.8653328-.2669239-.2182309-.160343-.4582849-.48574489-.7192131-.97714897-.2609283-.48951768-.6575392-1.35159699-1.1888839-2.58906752l-1.8359859-4.39905681c-.2077938-.49894962-.4544895-1.13654876-.7391385-1.90902465-.3890203.48008575-.8074543.91112541-1.2524555 1.29311897-.4459501.38199357-.8359192.64891747-1.1680097.79982851.2182309.20750268.4032528.45367632.5550656.73569132l-1.4365285 3.77749196c-.2466958.67909968-.5436796 1.27897107-.8900025 1.79772776-.3472718.51781351-.7144689.9281029-1.1025404 1.22992493-.3890203.3018221-.7789893.471597-1.1670608.510268v.1405359h4.3978267v-.1405359c-.4459501-.029239-.7932218-.1990139-1.0399176-.510268-.2466958-.31125397-.3690948-.72720253-.3690948-1.24595922 0-.27258307.027516-.53856378.0853947-.79794213.0559809-.25937835.1461198-.56308681.2694677-.91301179h2.8749546l.3140627.73474813c.3985086.93470525.5977629 1.58079314.5977629 1.93920686 0 .25466238-.0844459.44613075-.2495423.57251875-.1660452.1282744-.4193828.2009003-.7609616.2207074v.1405359h5.6493334 4.5970809v-.1405359c-.3226021-.0198071-.552219-.06791-.6897993-.1433655-.1375804-.0754555-.2296169-.2225938-.2780072-.44518755-.0464927-.2207074-.0702134-.5819507-.0702134-1.08278671zm-10.6183557 3.36720257 1.4659423 3.50868167h-2.7753275zm-51.81749963-1.70529475c-.44595006.38199357-.83497033.64891747-1.1670608.79982851.21823088.20750268.40230388.45367632.5550655.73569132l-1.43747733 3.77749196c-.24669578.67909968-.54273072 1.27897107-.89000247 1.79772776-.34632292.51781351-.7135201.9281029-1.1034892 1.22992493-.38807143.3018221-.7770917.471597-1.16611197.510268v.1405359h4.39782669v-.1405359c-.44595007-.029239-.79227299-.1990139-1.03896877-.510268-.24574695-.31125397-.37004367-.72720253-.37004367-1.24595922 0-.27258307.0284649-.53856378.0853947-.79794213.05692979-.25937835.14706863-.56308681.27041652-.91301179h2.87495467l.31311387.73474813c.39850857.93470525.59776285 1.58079314.59776285 1.93920686 0 .25466238-.0825482.44613075-.24859344.57251875-.16604524.1282744-.42128048.2009003-.76191043.2207074v.1405359h5.73567691v-.1405359c-.3899691-.0198071-.6926459-.1094105-.9108768-.2697535-.2182308-.160343-.457336-.48574489-.719213-.97714897-.26092826-.48951768-.65659034-1.35159699-1.18698627-2.58906752l-1.83693473-4.39905681c-.20874258-.49894962-.45543836-1.13654876-.74103616-1.90902465-.38807144.48008575-.80555661.91112541-1.25150667 1.29311897zm-.49813571 1.70529475 1.46594223 3.50868167h-2.77437869zm107.84400844-2.20047159c-.265672.18392282-.46967.44330117-.611995.77813504-.141376.33483387-.213487.72908896-.213487 1.18182208v.26881029c-.398508.01886388-.725854.05470525-.982039.10563773-.256184.05187567-.517112.13959271-.782784.26220793-.465876.19712755-.825482.44518757-1.081666.74323687-.257133.29616292-.384276.61590568-.384276.95451233 0 .3772776.115757.70079314.349169.96866023.231514.26881029.571196.47914255 1.017146.63005359-.569298.30276528-.986784.6130761-1.252456.93376206-.266621.32068596-.398508.66966774-.398508 1.04694534 0 .35935691.131887.6602358.398508.90452304.265672.24617359.649949.42443729 1.152828.53856379-.483903.1697749-.8511.3678456-1.103489.5942122-.25144.2263666-.376685.4706538-.376685.7356913 0 .2829582.128092.5272455.384276.7366345.256184.2065595.621484.3669025 1.095898.4800858.474415.1141265 1.034225.1697749 1.679429.1697749.826431 0 1.579802-.1226152 2.26296-.3678457.683157-.2461736 1.221144-.5828938 1.614908-1.0111039.393765-.4291533.591121-.9035799.591121-1.4223366 0-.3961415-.111962-.7498392-.333988-1.06109322-.223924-.31125402-.533242-.55365488-.9327-.72814577-.398508-.17449089-.849202-.26126473-1.351133-.26126473-.16225 0-.480108.00848874-.954523.02640943-.426974.02923901-.750525.04338692-.967807.04338692-.417485 0-.744831-.02357985-.982039-.06979635-.237207-.0481029-.409894-.12733119-.519959-.24145767-.108166-.11318328-.162249-.26409432-.162249-.45273312 0-.11318328.022771-.20750268.070213-.2829582.047441-.07545552.128092-.16034298.241952-.25466238.313113.0943194.602507.16317257.868179.2056163.264723.04244373.540833.06319399.826431.06319399.597763 0 1.145238-.09243301 1.643373-.27635584.497187-.18392283.8919-.43575563 1.181293-.75644158.289394-.32068596.433616-.66966774.433616-1.04694534 0-.25466238-.075907-.49706324-.227719-.72908896-.151813-.23013934-.364351-.43009647-.640461-.59987139-.294137-.17071811-.611995-.30653804-.953574-.41123258-.341578-.10375134-.659437-.16034298-.953574-.16977492h-.313114v-.12638799c0-.32068596.037954-.55365488.11386-.69419079.075906-.14242229.199254-.21221865.370044-.21221865.075906 0 .149915.02357985.220128.06979636.072111.04904609.17838.14713826.321653.2980493.149916.15185424.291291.26032155.419383.32540193.128092.06602358.272315.09903537.433616.09903537.180277 0 .346323-.04998928.498135-.14902465.152762-.09903537.273263-.23013933.363402-.39519828.08919-.16600215.134734-.3470954.134734-.54516613 0-.21787782-.05693-.41500536-.170789-.59326903-.11386-.18015005-.26757-.32162915-.463029-.42538049-.194511-.10375134-.409895-.15562701-.647102-.15562701-.351067 0-.660386.09148982-.92511.27541265zm-1.508639 5.56012861c-.151813-.31502679-.227719-.80831725-.227719-1.47798499 0-.57534834.071162-.99789925.213486-1.26670954.142325-.2678671.3653-.40368703.668926-.40368703.322602 0 .562656.16128617.718264.48291532.157506.31974277.23531.80548768.23531 1.45629154 0 .60364416-.068316 1.03562701-.205897 1.29406216-.138529.26032155-.363401.39048232-.676515.39048232-.33304 0-.574991-.15939979-.725855-.47536978zm-.142325 6.01286171c-.38902-.1367631-.692645-.3272883-.910876-.5725187-.218231-.2452305-.326398-.5234727-.326398-.8347267 0-.1131833.022772-.2310825.070214-.3527546.047441-.1235584.104371-.2273097.170789-.3121972.066418-.0848874.128092-.1273312.185971-.1273312.207793.0282958.400406.0490461.575939.0641372.175534.0132047.357709.0207503.547475.0207503.085395 0 .347272-.009432.782785-.0282958l.768552-.0282959c.511419 0 .908979.0896035 1.188884.2688103.279905.1792069.419383.4338693.419383.7639872 0 .2631511-.090139.4980064-.270417.7007931-.180277.2027867-.433615.3603001-.76191.4734834-.327346.1131833-.699288.1697749-1.115824.1697749-.49434 0-.935546-.0688531-1.324567-.2056163zm-33.0714665-11.52300104v.1414791c.3131138.01980707 1.4944071.05564844 1.6462199.11412647.1518128.05564845.2751607.15091104.3690948.28201501.0768552.10375134.1309385.21410503.1641476.33200428.033209.11789925.0578786.29239014.0721111.52441587.0132836.23013933.0208742.57251875.0208742 1.02525187v4.59807074c0 .45273312-.0075906.79511254-.0208742 1.02525188-.0142325.23202572-.0389021.40557342-.0721111.52441586-.0332091.11789925-.0872924.22825296-.1641476.33200426-.0939341.1320472-.217282.2273098-.3690948.2829582-.1518128.0556485-1.3331061.0943194-1.6462199.1141265v.1405359h6.3998578v-.1405359c-.3131139-.0198071-.5427307-.058478-.6907482-.1141265-.1470686-.0556484-.2723142-.150911-.3766855-.2829582-.0759064-.1037513-.1309385-.21693459-.1631987-.33954981-.0332091-.12261522-.0578787-.29710611-.0711623-.52347267-.0142324-.22636656-.0218231-.5659164-.0218231-1.01864952v-2.26366559h.2561841c.3131139 0 .5854281.08677384.8188402.26126473.2315145.17449089.4573361.46499464.6755669.87056806.189766.3301179.4060993.76398714.6471021 1.30160772.2419516.53762058.5674002 1.28745981.9753971 2.24951768h4.1710563v-.1405359c-.3330393-.029239-.5882745-.0811147-.769501-.1565702-.1793289-.0754555-.3472718-.2150482-.4981357-.41689175-.1518128-.20278671-.3510671-.53573419-.5987117-.99789925l-.8103008-1.54212219c-.2277191-.41500536-.4317176-.73097535-.6119953-.94696677-.1802776-.21787781-.3795319-.38105038-.5977628-.48951769-.2182309-.10846731-.5028799-.19052518-.8539469-.24617363.7875288-.11412647 1.3966776-.34237942 1.829344-.68758842.4307688-.34426581.6471021-.77436228.6471021-1.29406217 0-.36784566-.1186038-.71871382-.3558113-1.05449089-.2381563-.33389067-.5598096-.60553054-.9678065-.81303322-.4649266-.2357985-1.003862-.40368704-1.6149085-.50177921-.6119953-.09903537-1.439375-.14902465-2.4840367-.14902465zm5.07624.17071811h.3985086c.3785831 0 .6812599.04244373.9042349.126388.2229751.08488746.4051504.22259378.5474749.40934619.2941373.38765273.4412059.943194.4412059 1.67133977 0 .77247588-.1489663 1.33367631-.4487966 1.68265809-.2988814.34898178-.7789893.52347267-1.4441191.52347267h-.3985086zm42.9668145 2.31176849c-.465876.20278671-.830226.48102894-1.096848.83472669-.264723.35369775-.397559.74795284-.397559 1.18276527 0 .34898178.084445.6602358.256184.93376206.170789.27258306.441206.52535906.811249.75549839.370044.23108253.857742.4555627 1.464994.67249732l.69739.25371919c.33209.1245016.595865.24428724.791324.36218649.192612.11695606.333039.2518328.419383.40274384.085394.15185423.128092.3291747.128092.53856377 0 .30087889-.095832.54705252-.284649.73380492-.190715.189582-.446899.2839014-.769501.2839014-.39756 0-.804608-.1395927-1.2164-.4178349-.411793-.27824226-.809352-.67155416-1.188884-1.18087892-.378583-.50932476-.716367-1.10353698-1.009555-1.78357985h-.142325l.142325 2.81637727c.61579.2263666 1.208809.408403 1.779056.5442229.568349.1367632 1.02948.2056163 1.380547.2056163.607252 0 1.149033-.1112969 1.628193-.3320043.479159-.2216505.854895-.5263022 1.125312-.91301174.270416-.38576635.406099-.82529475.406099-1.31575563 0-.49989282-.171738-.92150053-.512368-1.26670954-.342528-.34332261-.892849-.63854233-1.651913-.88471597l-.967807-.31031082c-.890951-.29239014-1.336901-.72154341-1.336901-1.28651662 0-.17071811.044595-.32823151.134734-.47442658.090139-.14713826.21064-.26220793.362453-.34709539.151813-.08488746.317858-.12827438.499084-.12827438.293189 0 .606303.11129689.939342.33294748.332091.22165059.647102.52535906.945984.91301179.29983.38670954.547474.82057878.746729 1.30066452h.143273l-.143273-2.31931404c-.512368-.1414791-.966858-.24523044-1.366315-.31219721-.39756-.06508039-.782785-.09809218-1.152829-.09809218-.578786 0-1.100642.10186495-1.56462.30370847zm-7.892368.20561629c-.593018.33954984-1.059843.8017149-1.40237 1.38649518-.341579.58478028-.512368 1.2261522-.512368 1.92411575 0 .66966774.164147 1.28368703.491494 1.8392283.327346.55648446.77804.99318332 1.352082 1.30915322.574042.31597 1.211656.4734834 1.91379.4734834.550321 0 1.058894-.1056377 1.523821-.3178563.463978-.2122187.862486-.5168704 1.195526-.91301183.198305-.24523044.367197-.49046088.504777-.73569132.137581-.24523044.281803-.57063237.434564-.97620579l-.129041-.05564844c-.294137.43292604-.618637.74700964-.974448.93942122-.35676.19335477-.784682.29050375-1.287562.29050375-.788478 0-1.37865-.21693462-1.772414-.65080386-.393765-.43386924-.595866-1.09410504-.605354-1.98070739h4.710941c-.046493-.3772776-.115758-.68664524-.205896-.92621651-.090139-.24145766-.221078-.48008575-.391867-.71494105-.321654-.44330118-.737241-.7866238-1.244865-1.03279743-.507624-.24428724-1.055099-.36784566-1.643373-.36784566-.711623 0-1.364418.16977492-1.957437.50932476zm1.032327.37539121c.208743-.46688103.506676-.70173633.895696-.70173633.237207 0 .424127.07451232.562656.22070739.136631.14525188.244798.38010718.320704.69984995.037005.19807074.063572.42726688.077805.68664523.014232.26032154.020874.61967846.020874 1.08278671h-2.190848c0-.85924973.103422-1.52137192.313113-1.98825295zm-14.92889-.75738478c-.265672.08488746-.533242.22448017-.803659.41783494-.270416.19241158-.572144.45933548-.904234.79888532v-1.34405145c-.721111.25466238-1.370111.46405145-1.949846.6291104-.579735.16600214-1.1812932.31879957-1.807521.46027867l.0284649.1414791c.2372075.01980707.4269735.05847803.5683492.12072883.1432733.06130761.261877.1575134.35676.29050375.1138596.14996785.189766.32634513.2277192.53007503.0379532.20278671.0569298.52064309.0569298.95451233v2.31931404c0 .50932475-.0265672.87339764-.0787529 1.09033226-.0521856.2169346-.1518128.3621865-.2979326.437642-.1470686.0754555-.401355.1235584-.7619104.1433655v.1405359h4.3266648v-.1405359c-.208743-.029239-.357709-.0792283-.448797-.1490247-.08919-.0716827-.150864-.1961843-.184073-.37539116-.033209-.17920686-.045544-.46688103-.036055-.86302251v-4.15948553c.370992-.3301179.725854-.49517685 1.067433-.49517685.132836 0 .256184.03301179.370993.09997856.11291.06508039.198305.15091104.255235.25371919.066418.12261522.109115.28578778.128092.4876313.018977.20278671.028465.58289389.028465 1.14032154v2.67301179c.008539.39614148-.001898.68381565-.035107.86302251-.034158.17920686-.095832.30370846-.18597.37539116-.089191.0697964-.240054.1197857-.447848.1490247v.1405359h4.041066v-.1405359c-.274211-.029239-.468722-.0763987-.581632-.1433655-.114809-.0650804-.190715-.1867524-.228668-.3669025-.037954-.17920681-.052186-.47159695-.042698-.87717037v-3.66430868c0-.3772776-.02372-.67909968-.071162-.90640943-.047441-.22448018-.132836-.41406217-.255235-.56497321-.134734-.1886388-.328295-.33483387-.584479-.43764201-.256184-.10469454-.545578-.15657021-.86818-.15657021-.322602 0-.616739.04244373-.882412.12733119zm-10.4532589.16977492c-.7448314.19807074-1.3881381.44801715-1.9289712.74983923-.4374106.2357985-.7609616.48385852-.9753971.74323687-.2134868.26032154-.3188069.53950697-.3188069.84132905 0 .29239014.0920365.53101822.2761095.71399785.1859707.18392283.4250758.27635584.7192131.27635584.4079969 0 .747678-.13110396 1.0180945-.39614148.2694677-.26409431.4336153-.61779206.4905451-1.06109324.0569298-.45367632.0977294-.74040729.1214502-.86302251.0227719-.12261522.0683157-.24523044.1347338-.36690247.0853947-.18015005.2153844-.31879957.3918668-.41877813.1745847-.09809218.3671972-.14808146.5759398-.14808146.2751606 0 .4886474.11318328.6404602.34049303.0759064.11224009.128092.28956056.1565569.53007503.0284649.24051447.0426973.60081458.0426973 1.08278671v.73569132c-1.0247363.29144694-1.8597066.57912111-2.5049109.86113612-.5322936.21787781-.9469323.4234941-1.2448649.61684887-.2998303.19335477-.5123682.39614148-.6404602.60741694-.1290409.21316184-.1926125.46027867-.1926125.74418006 0 .30087889.0844459.56968918.2561841.80548767.1707894.2357985.4079969.4197213.7116224.5517685.3036256.131104.6546927.1980707 1.0532013.1980707.5598096 0 1.0408664-.1056377 1.4441191-.3178563.4042015-.2122187.7770917-.55459811 1.1177216-1.02619511.094883.46216506.2580818.80077171.4905451 1.01959271.2334122.2159914.5493725.3244587.9469323.3244587.3501182 0 .7087759-.087717 1.0750243-.2622079.3643507-.1735477.7941706-.4631082 1.2875622-.86962486l-.0853947-.09903537c-.1328362.07545552-.240054.1254448-.3197557.14902465-.0815994.02357985-.1641476.03489818-.2495423.03489818-.122399 0-.2315145-.02640943-.3263975-.07734191-.0958318-.05187567-.1622499-.1254448-.2011519-.2197642-.0370044-.08394427-.0626228-.18580922-.0778041-.30465166-.0132836-.11789925-.0208742-.31314041-.0208742-.58666667v-3.25401929c0-.40557342-.0398509-.72625938-.1214502-.96205788-.0806506-.2357985-.2248727-.43386924-.4336153-.59421222-.1603523-.1414791-.3463229-.24334405-.5550655-.30370847-.2087426-.0622508-.4554384-.09243301-.7400874-.09243301-.5977628 0-1.2695344.09809218-2.0134171.29710611zm-.1214502 5.84308682c-.1423245-.22730976-.2134867-.55176849-.2134867-.97620579 0-.36784566.050288-.66683816.1499151-.89792069.0996272-.23108252.2694677-.42632368.5123682-.58760986.2419516-.16034298.5806839-.31219721 1.0171456-.45273312v2.19386924c0 .32917471-.0759064.58855306-.228668.77719186-.1508639.1886388-.3596065.28390139-.6243301.28390139-.2666212 0-.4696708-.11412647-.6129441-.34049303zm-50.1456613-5.83648446c-.4649267.20278671-.8302262.48102894-1.0958986.83472669-.2656724.35369775-.3975597.74795284-.3975597 1.18276527 0 .34898178.0844458.6602358.256184.93376206.1698406.27258306.4402571.52535906.8112496.75549839.368146.23108253.8577423.4555627 1.4649934.67249732l.69739.25371919c.3320905.1245016.5958652.24428724.7903753.36218649.1935613.11695606.3339882.2518328.4193829.40274384.0863435.15185423.128092.3291747.128092.53856377 0 .30087889-.094883.54705252-.284649.73380492-.189766.189582-.44595.2839014-.7685522.2839014-.3985086 0-.8046078-.1395927-1.2164-.4178349-.412741-.27824226-.8093519-.67155416-1.1888839-1.18087892-.3795319-.50932476-.7163665-1.10353698-1.0105038-1.78357985h-.1413757l.1413757 2.81637727c.6167394.2263666 1.2097581.408403 1.7790561.5442229.5692979.1367632 1.0294804.2056163 1.3805475.2056163.6072512 0 1.1499819-.1112969 1.629141-.3320043.4791591-.2216505.8539469-.5263022 1.1243634-.91301174.2713654-.38576635.4060993-.82529475.4060993-1.31575563 0-.49989282-.1707894-.92150053-.5123682-1.26670954-.3415788-.34332261-.8919001-.63854233-1.6509641-.88471597l-.9678065-.31031082c-.8919001-.29239014-1.338799-.72154341-1.338799-1.28651662 0-.17071811.0455438-.32823151.1356827-.47442658.0910876-.14713826.211589-.26220793.3634018-.34709539.1518128-.08488746.3178581-.12827438.4981357-.12827438.2931885 0 .6072512.11129689.9393417.33294748.3320904.22165059.6480508.52535906.9469322.91301179.2988815.38670954.5474749.82057878.7467292 1.30066452h.1423245l-.1423245-2.31931404c-.5123682-.1414791-.9678065-.24523044-1.3663151-.31219721-.3985086-.06508039-.7827847-.09809218-1.1528284-.09809218-.5787862 0-1.1006427.10186495-1.5655693.30370847zm-7.2585489 0c-.4649267.20278671-.8302262.48102894-1.0958986.83472669-.2656724.35369775-.3975597.74795284-.3975597 1.18276527 0 .34898178.0844458.6602358.256184.93376206.1698406.27258306.4402571.52535906.8112496.75549839.3690949.23108253.8577423.4555627 1.4649934.67249732l.69739.25371919c.3320905.1245016.5958652.24428724.7903753.36218649.1945102.11695606.3339882.2518328.4193829.40274384.0863435.15185423.1290408.3291747.1290408.53856377 0 .30087889-.0958318.54705252-.2855978.73380492-.189766.189582-.44595.2839014-.7685522.2839014-.3985086 0-.8036589-.1395927-1.2173488-.4178349-.4117922-.27824226-.8084031-.67155416-1.1869862-1.18087892-.3804808-.50932476-.7173154-1.10353698-1.0114527-1.78357985h-.1413757l.1413757 2.81637727c.6167394.2263666 1.2097581.408403 1.7800049.5442229.5683491.1367632 1.0285316.2056163 1.3795987.2056163.6072512 0 1.1499819-.1112969 1.629141-.3320043.4791591-.2216505.8539469-.5263022 1.1253123-.91301174.2704165-.38576635.4051504-.82529475.4051504-1.31575563 0-.49989282-.1707894-.92150053-.5123682-1.26670954-.3415788-.34332261-.892849-.63854233-1.6509641-.88471597l-.9678065-.31031082c-.8919001-.29239014-1.3378502-.72154341-1.3378502-1.28651662 0-.17071811.044595-.32823151.1356827-.47442658.0901388-.14713826.2106402-.26220793.362453-.34709539.1518128-.08488746.3178581-.12827438.4990846-.12827438.2931884 0 .6063023.11129689.9383928.33294748.3320904.22165059.6480508.52535906.9469322.91301179.2988815.38670954.5484237.82057878.7467292 1.30066452h.1423245l-.1423245-2.31931404c-.5123682-.1414791-.9678065-.24523044-1.3663151-.31219721-.3985086-.06508039-.7827847-.09809218-1.1528284-.09809218-.5787862 0-1.1006427.10186495-1.5655693.30370847zm-8.3610893.19146838c-.6034558.3301179-1.076922.77813505-1.4232449 1.34405145-.3472717.5659164-.5199588 1.19314041-.5199588 1.88167202 0 .68853162.1726871 1.31575563.5199588 1.88167203.3463229.5659164.8197891 1.01393356 1.4232449 1.34499466.6015582.3291747 1.2638415.4942336 1.9849522.4942336.7211107 0 1.3824452-.1631725 1.985901-.4885745.602507-.3254019 1.0788196-.76775987 1.4298867-1.3289603.3510671-.56120043.5266006-1.17710611.5266006-1.84677385 0-.59421221-.1062689-1.12334405-.3207045-1.58362272-.2134867-.46310825-.5389354-.87811361-.9744483-1.24595927-.3890203-.32068596-.7989148-.55931404-1.2315813-.71494105-.4317176-.15562701-.9032861-.23296892-1.4156542-.23296892-.7211107 0-1.383394.16505895-1.9849522.49517685zm1.2315812 6.33826366c-.2855978-.39519828-.4279223-1.43365487-.4279223-3.11254019 0-.69796355.0284649-1.30632368.0853947-1.82508038.0569298-.5187567.1328362-.88188639.2277192-1.08938907.189766-.41500536.4791591-.62345123.8681794-.62345123.323551 0 .5787862.13770632.7685522.41123258.284649.41594855.4269735 1.46666667.4269735 3.15404073 0 .67909968-.0275161 1.28180064-.0853947 1.80527331-.0569298.52252948-.1328362.88471597-.2277192 1.08184355-.1907148.4140621-.4791591.622508-.8681794.622508-.3226021 0-.5787862-.1405359-.7676034-.4244373zm-5.779323-6.31751339c-.3415788.345209-.6546927.8950911-.9393416 1.64870311v-2.16463023c-.8065055.29239014-1.4232449.5027224-1.8502184.6291104-.4269735.12827438-1.0247363.28107181-1.7932885.46027867l.0294137.1414791c.2362586.01980707.4260246.05847803.5683491.12072883.1423245.06130761.2609282.1575134.3558112.29050375.1138596.14996785.189766.32634513.2277192.53007503.0379532.20278671.0569298.52064309.0569298.95451233v2.31931404c0 .50932475-.0265672.87339764-.0787529 1.09033226-.0521856.2169346-.1518128.3621865-.2988814.437642-.1470686.0754555-.4004062.1235584-.7609616.1433655v.1405359h4.7963353v-.1405359c-.3605554-.0198071-.613893-.06791-.7609616-.1433655-.1480175-.0754555-.2466958-.2207074-.2988815-.437642-.0521856-.21693462-.0787529-.58100751-.0787529-1.09033226v-1.76754556c0-.43386924.0075907-.7687031.0208743-1.0045016.0151813-.2357985.0379532-.4244373.0711623-.5659164.033209-.1414791.0882411-.27918543.1641475-.41028939.1138596-.19807074.2599794-.29710611.4412059-.29710611.0759064 0 .1499152.02169346.2210774.06413719.0711623.04150054.1442222.11506967.2201286.2197642.1138595.16034298.1973566.27069668.2485934.3310611.0521856.06130761.1072178.11601286.1641476.16222936.0853947.07639872.1869195.13487675.306472.17732047.1186038.04338693.2391052.0641372.3624531.0641372.2002031 0 .3842761-.05187567.5550655-.15657021.1707894-.10280814.3036255-.24428724.3985085-.4234941.094883-.17920686.1423245-.38199357.1423245-.60836013 0-.22636656-.0569298-.43386924-.1698405-.62345123-.1148085-.18675241-.2713654-.33672026-.4696708-.44518757-.2002032-.10752412-.418434-.16222937-.6556415-.16222937-.4544896 0-.8539469.1726045-1.1955257.51592712zm-9.9987697-.00660236c-.6110465.33954984-1.0930521.8017149-1.4441192 1.38649518-.351067.58478028-.5266006 1.23086817-.5266006 1.93732047 0 .68947481.156557 1.30726688.4696708 1.85337621.3131139.54799571.7429339.97714899 1.2875622 1.28745979.5455772.3121972 1.1651632.4678242 1.857809.4678242.7970172 0 1.4925095-.2216506 2.0845794-.6649517.5939675-.44330121 1.0940009-1.11768492 1.5019977-2.02315116l-.1707894-.08488746c-.3320904.3301179-.6689251.57346195-1.0105038.72908896-.3415788.15562701-.7163666.23296892-1.1243635.23296892-.4839032 0-.9108767-.11506967-1.2809204-.3461522-.3700436-.23108253-.6546926-.55931404-.8539469-.98469453-.1992543-.4244373-.2988814-.91395499-.2988814-1.46949625 0-.49140407.0692646-.93659164.2068449-1.33839228.1366315-.40085745.3226022-.71777064.5541167-.95451233.2324633-.2357985.4914939-.35464094.7761428-.35464094.2466958 0 .4535407.08205788.6186371.24145766.1660453.16034298.2495423.36312969.2495423.60836013 0 .08394427-.0094883.17543408-.0294137.26881029-.0180278.0943194-.0464927.20750268-.0844459.34049303-.0569298.16977492-.094883.30559486-.1138596.4093462-.0189766.10375134-.0284649.20750268-.0284649.31125402 0 .2357985.0521857.44613076.156557.62911039.1043713.18486603.2466958.3310611.4269734.43952841.1802777.10752411.3842762.16222936.6119953.16222936.2172821 0 .4174852-.05470525.5977629-.16222936.1802777-.10846731.3207045-.26032155.4203316-.45367632.0986784-.19335477.1480175-.4074598.1480175-.6432583 0-.4244373-.1318873-.81491962-.3975597-1.17521972-.2656724-.35747053-.6271766-.64042873-1.0816661-.84793141-.4554384-.20655948-.9583183-.31125402-1.5086396-.31125402-.730599 0-1.4023706.16977492-2.0143659.50932476z" fill="url(#a)" fill-rule="evenodd" mask="url(#b)" transform="translate(176 18)"/></svg>