<svg height="50" viewBox="0 0 320 50" width="320" xmlns="http://www.w3.org/2000/svg" xmlns:xlink="http://www.w3.org/1999/xlink"><mask id="a" fill="#fff"><path d="m0 .5177172h6.83230548v7.71771h-6.83230548z" fill="#fff" fill-rule="evenodd"/></mask><mask id="b" fill="#fff"><path d="m.32348316.3327324h7.5903828v8.0756676h-7.5903828z" fill="#fff" fill-rule="evenodd"/></mask><mask id="c" fill="#fff"><path d="m0 8.50645919h134.193259v-8.0756676h-134.193259z" fill="#fff" fill-rule="evenodd"/></mask><g fill="#c6c0be" fill-rule="evenodd" transform="translate(25 20)"><path d="m3.21068748 6.8084016c.2450448 0 .4828824-.0384384.7135128-.1189188.2306304-.078078.4360356-.21021.6162156-.3939936s.324324-.4228224.432432-.7183176.162162-.6558552.162162-1.0822812c0-.3891888-.0384384-.7399392-.114114-1.0534524s-.1993992-.5813808-.372372-.8060052c-.1729728-.222222-.402402-.3939936-.6870864-.5129124-.2834832-.1189188-.6354348-.1789788-1.0534524-.1789788h-1.2108096v4.86486zm.1189188-6.2906844c.4972968 0 .9597588.078078 1.3885872.2378376.4288284.1585584.7999992.3951948 1.1147136.7135128.312312.3159156.5573568.7123116.7339332 1.189188.1765764.474474.2654652 1.033032.2654652 1.6744728 0 .5621616-.072072 1.0822812-.216216 1.5567552-.144144.4768764-.3615612.8876868-.6534528 1.2336324-.2930928.3459456-.6558552.6174168-1.093092.8156148-.4348344.198198-.948948.2966964-1.5399384.2966964h-3.3297264v-7.71771z" mask="url(#a)" transform="translate(0 .098059)"/><path d="m2.13489276 5.3549496c.0756756.306306.1957956.5813808.3615612.8264256.1657656.246246.3819816.4420416.648648.5897892s.5909904.2210208.972972.2210208.7063056-.0732732.972972-.2210208.4828824-.3435432.648648-.5897892c.1657656-.2450448.2870868-.5201196.3627624-.8264256s.1129128-.6222216.1129128-.9453444c0-.3387384-.0372372-.6678672-.1129128-.9837828-.0756756-.3171168-.1969968-.6006-.3627624-.8492484-.1657656-.2498496-.3819816-.4468464-.648648-.594594s-.5909904-.2210208-.972972-.2210208-.7063056.0732732-.972972.2210208-.4828824.3447444-.648648.594594c-.1657656.2486484-.2858856.5321316-.3615612.8492484-.0756756.3159156-.114114.6450444-.114114.9837828 0 .3231228.0384384.6390384.114114.9453444m-1.5519504-2.5513488c.174174-.4936932.4228224-.924924.7471464-1.29129.324324-.3687684.7219212-.6558552 1.1939928-.8660652.4720716-.2090088 1.003002-.3135132 1.5939924-.3135132.5981976 0 1.1315304.1045044 1.5999984.3135132.4696692.21021.8660652.4972968 1.1903892.8660652.3231228.366366.5717712.7975968.744744 1.29129s.2606604 1.0282272.2606604 1.6060044c0 .5621616-.0876876 1.0858848-.2606604 1.5711696-.1729728.4876872-.4216212.9105096-.744744 1.2708696-.324324.3615612-.72072.6438432-1.1903892.8492484-.468468.2054052-1.0018008.3075072-1.5999984.3075072-.5909904 0-1.1219208-.102102-1.5939924-.3075072s-.8696688-.4876872-1.1939928-.8492484c-.324324-.36036-.5729724-.7831824-.7471464-1.2708696-.1729728-.4852848-.2594592-1.009008-.2594592-1.5711696 0-.5777772.0864864-1.1123112.2594592-1.6060044" mask="url(#b)" transform="translate(10.8108 .098059)"/><path d="m25.027002.61541603 3.2216184 5.1783732h.0216216v-5.1783732h1.5891876v7.7189112h-1.6972956l-3.2108076-5.1675624h-.0216216v5.1675624h-1.5891876v-7.7189112z"/><path d="m36.3350988.61541603v1.6540524c.0072072.2378376-.0264264.4612608-.102102.6702696-.0756756.2078076-.1825824.3927924-.3195192.5513508-.1369368.1573572-.3015012.2906904-.492492.3951948s-.3975972.1705704-.6210204.1993992v-.7135128c.2738736-.0936936.4612608-.2318316.5621616-.4168164.1009008-.1837836.1513512-.4096092.1513512-.6750744h-.7135128v-1.6648632z"/><path d="m40.6701095 2.04184103v-1.4258244h6.324318v1.4258244h-2.3135112v6.2918856h-1.6972956v-6.2918856z"/><path d="m60.1942942.61541603 1.8054036 5.3081028h.0216216l1.7069052-5.3081028h2.390388v7.7189112h-1.5903888v-5.4702648h-.0204204l-1.89189 5.4702648h-1.3081068l-1.89189-5.4162108h-.0216216v5.4162108h-1.5891876v-7.7189112z"/><path d="m71.0701992 8.33348639h1.6972956v-7.7189112h-1.6972956z" mask="url(#c)"/><path d="m79.015897 6.43139219c.0936936.180174.2186184.3255192.3735732.4372308.1537536.1129128.336336.1945944.5453448.2486484.2078076.054054.4252248.0816816.648648.0816816.1513512 0 .312312-.012012.486486-.0384384.1729728-.024024.3351348-.0732732.486486-.1453452s.2774772-.1705704.378378-.2978976c.1009008-.1249248.1513512-.2858796.1513512-.48048 0-.2090088-.0672672-.378378-.1993992-.5081076-.1345344-.1297296-.3087084-.2378376-.5249244-.324324-.2174172-.0864864-.462462-.162162-.7351344-.2270268-.2750748-.0648648-.5513508-.1369368-.8336328-.216216-.2870868-.072072-.5681676-.1597596-.8420412-.264264s-.5189184-.24024-.7351344-.4060056-.3915912-.3735732-.5249244-.6222216-.2006004-.5489484-.2006004-.9021012c0-.396396.0864864-.7411404.2546544-1.0318308.1693692-.2918916.3915912-.5357352.6654648-.7303296s.582582-.3387384.9297288-.432432c.3459456-.0936936.6918912-.1405404 1.0378368-.1405404.4036032 0 .7903896.0456456 1.1627616.1345344.3699696.09009.7002996.2366364.9885876.438438s.516516.4588584.6858852.7723716c.1705704.3147144.2546544.6942936.2546544 1.14114h-1.6432416c-.0144144-.2306304-.0636636-.4216212-.1453452-.5729724-.084084-.1513512-.1933932-.27027-.3315312-.3567564-.1357356-.0864864-.2930928-.1477476-.468468-.1837836-.1777776-.036036-.3699696-.054054-.5789784-.054054-.1369368 0-.2738736.0144144-.4108104.0432432s-.2606604.0792792-.3735732.1513512c-.1117116.072072-.2030028.162162-.276276.27027-.0708708.108108-.1069068.2450448-.1069068.4108104 0 .1513512.0288288.2750748.0864864.3675672.0576576.0936936.1705704.18018.3399396.2594592.1705704.0792792.4036032.1585584.702702.2378376s.69069.18018 1.1735724.3027024c.144144.0288288.3447444.0804804.6006.1573572.2558556.0744744.5081076.1957956.7603596.3615612s.4708704.3879876.654654.6642636c.1849848.2786784.276276.6330324.276276 1.0654644 0 .3531528-.0684684.6810804-.2054052.9837828s-.3399396.564564-.6114108.7831824c-.2690688.2210208-.6054048.3915912-1.0054044.5141136s-.8636628.1837836-1.3885872.1837836c-.426426 0-.8372364-.0516516-1.237236-.156156s-.7531524-.2690688-1.0606596-.4936932c-.306306-.222222-.5489484-.5069064-.7303296-.852852-.1789788-.3459456-.2654652-.756756-.258258-1.2324312h1.6432416c0 .2594592.0468468.4792788.1405404.6594648" mask="url(#c)"/><path d="m89.4912018 6.43139219c.0936936.180174.2186184.3255192.3735732.4372308.1537536.1129128.336336.1945944.5453448.2486484.2078076.054054.4252248.0816816.648648.0816816.1513512 0 .312312-.012012.486486-.0384384.1729728-.024024.3351348-.0732732.486486-.1453452s.2774772-.1705704.378378-.2978976c.1009008-.1249248.1513512-.2858796.1513512-.48048 0-.2090088-.0672672-.378378-.1993992-.5081076-.1345344-.1297296-.3087084-.2378376-.5249244-.324324-.2174172-.0864864-.462462-.162162-.7351344-.2270268-.2750748-.0648648-.5513508-.1369368-.8336328-.216216-.2870868-.072072-.5681676-.1597596-.8420412-.264264s-.5189184-.24024-.7351344-.4060056-.3915912-.3735732-.5249244-.6222216-.2006004-.5489484-.2006004-.9021012c0-.396396.0864864-.7411404.2546544-1.0318308.1693692-.2918916.3915912-.5357352.6654648-.7303296s.582582-.3387384.9297288-.432432c.3459456-.0936936.6918912-.1405404 1.0378368-.1405404.4036032 0 .7903896.0456456 1.1627616.1345344.3699696.09009.7002996.2366364.9885876.438438s.516516.4588584.6858852.7723716c.1705704.3147144.2546544.6942936.2546544 1.14114h-1.6432416c-.0144144-.2306304-.0636636-.4216212-.1453452-.5729724-.084084-.1513512-.1933932-.27027-.3315312-.3567564-.1357356-.0864864-.2930928-.1477476-.468468-.1837836-.1777776-.036036-.3699696-.054054-.5789784-.054054-.1369368 0-.2738736.0144144-.4108104.0432432s-.2606604.0792792-.3735732.1513512c-.1117116.072072-.2030028.162162-.276276.27027-.0708708.108108-.1069068.2450448-.1069068.4108104 0 .1513512.0288288.2750748.0864864.3675672.0576576.0936936.1705704.18018.3399396.2594592.1705704.0792792.4036032.1585584.702702.2378376s.69069.18018 1.1735724.3027024c.144144.0288288.3447444.0804804.6006.1573572.2558556.0744744.5081076.1957956.7603596.3615612s.4708704.3879876.654654.6642636c.1849848.2786784.276276.6330324.276276 1.0654644 0 .3531528-.0684684.6810804-.2054052.9837828s-.3399396.564564-.6114108.7831824c-.2690688.2210208-.6054048.3915912-1.0054044.5141136s-.8636628.1837836-1.3885872.1837836c-.426426 0-.8372364-.0516516-1.237236-.156156s-.7531524-.2690688-1.0606596-.4936932c-.306306-.222222-.5489484-.5069064-.7303296-.852852-.1789788-.3459456-.2654652-.756756-.258258-1.2324312h1.6432416c0 .2594592.0468468.4792788.1405404.6594648" mask="url(#c)"/><path d="m106.610584 5.45300879c.074474.306306.195796.5813808.362762.8264256.164565.246246.380781.4420416.648648.5897892.265466.1477476.58979.2210208.971771.2210208.383183 0 .706306-.0732732.972972-.2210208.267868-.1477476.482883-.3435432.648648-.5897892.166967-.2450448.287087-.5201196.362763-.8264256.075675-.306306.112912-.6222216.112912-.9453444 0-.3387384-.037237-.6678672-.112912-.9837828-.075676-.3171168-.195796-.6006-.362763-.8492484-.165765-.2498496-.38078-.4468464-.648648-.594594-.266666-.1477476-.589789-.2210208-.972972-.2210208-.381981 0-.706305.0732732-.971771.2210208-.267867.1477476-.484083.3447444-.648648.594594-.166966.2486484-.288288.5321316-.362762.8492484-.075676.3159156-.114114.6450444-.114114.9837828 0 .3231228.038438.6390384.114114.9453444m-1.55195-2.5513488c.174174-.4936932.422822-.924924.745945-1.29129.325525-.3687684.723122-.6558552 1.195194-.8660652.472071-.2090088 1.003002-.3135132 1.593992-.3135132.598198 0 1.132732.1045044 1.599999.3135132.468468.21021.864864.4972968 1.190389.8660652.323123.366366.571771.7975968.745945 1.29129.171772.4936932.259459 1.0282272.259459 1.6060044 0 .5621616-.087687 1.0858848-.259459 1.5711696-.174174.4876872-.422822.9105096-.745945 1.2708696-.325525.3615612-.721921.6438432-1.190389.8492484-.467267.2054052-1.001801.3075072-1.599999.3075072-.59099 0-1.121921-.102102-1.593992-.3075072-.472072-.2054052-.869669-.4876872-1.195194-.8492484-.323123-.36036-.571771-.7831824-.745945-1.2708696-.172973-.4852848-.25946-1.009008-.25946-1.5711696 0-.5777772.086487-1.1123112.25946-1.6060044" mask="url(#c)"/><path d="m122.680118 7.74513863c-.582582.5081076-1.39099.7615608-2.42162.7615608-1.045044 0-1.854652-.252252-2.426424-.756756-.574173-.504504-.860059-1.2816804-.860059-2.3339316v-4.8011964h1.697296v4.8011964c0 .2078076.018018.4132128.054054.6150144s.111711.3807804.228228.5357352c.114114.1537536.275075.2810808.48048.378378s.48048.1453452.826425.1453452c.605405 0 1.023423-.1345344 1.254053-.4048044.231832-.27027.345946-.6942936.345946-1.2696684v-4.8011964h1.697295v4.8011964c0 1.045044-.291891 1.8210192-.875674 2.3291268" mask="url(#c)"/><path d="m127.869782 2.04184103v-1.4258244h6.324318v1.4258244h-2.313511v6.2918856h-1.697296v-6.2918856z" mask="url(#c)"/></g></svg>