<?xml version="1.0" encoding="utf-8"?>
<!-- Generator: Adobe Illustrator 23.0.4, SVG Export Plug-In . SVG Version: 6.00 Build 0)  -->
<svg version="1.1" id="Layer_1" xmlns="http://www.w3.org/2000/svg" xmlns:xlink="http://www.w3.org/1999/xlink" x="0px" y="0px"
	 viewBox="0 0 160 600" style="enable-background:new 0 0 160 600;" xml:space="preserve">
<style type="text/css">
	.st0{fill:#FFFFFF;}
</style>
<g>
	<path class="st0" d="M42,223.4c-0.1-3.4,2.6-6.2,6-6.3c0.2,0,0.3,0,0.5,0c3.3-0.2,6.2,2.3,6.4,5.7c0,0.2,0,0.4,0,0.6
		c0.1,3.4-2.7,6.2-6.1,6.3c-0.1,0-0.2,0-0.3,0c-3.4,0.2-6.3-2.4-6.4-5.8C42,223.7,42,223.6,42,223.4z M52.9,223.4
		c0.1-2.4-1.7-4.4-4-4.6c-0.2,0-0.3,0-0.5,0c-2.4-0.1-4.4,1.8-4.5,4.3c0,0.1,0,0.2,0,0.3c-0.2,2.5,1.7,4.6,4.2,4.8s4.6-1.7,4.8-4.2
		C52.9,223.8,52.9,223.6,52.9,223.4L52.9,223.4z"/>
	<path class="st0" d="M60.8,215.3v2h4.7v1.7h-4.7v10.4h-1.9V219h-2.3v-1.7h2.3v-2.1c-0.2-2.1,1.4-4,3.5-4.2c0.2,0,0.4,0,0.6,0
		c1.2,0,2.3,0.4,3.2,1.1l-0.8,1.6c-0.6-0.6-1.4-1-2.3-1c-1.2-0.1-2.3,0.8-2.4,2.1C60.7,215,60.7,215.2,60.8,215.3L60.8,215.3z"/>
</g>
</svg>
