<?xml version="1.0" encoding="utf-8"?>
<!-- Generator: Adobe Illustrator 23.0.4, SVG Export Plug-In . SVG Version: 6.00 Build 0)  -->
<svg version="1.1" id="Layer_1" xmlns="http://www.w3.org/2000/svg" xmlns:xlink="http://www.w3.org/1999/xlink" x="0px" y="0px"
	 viewBox="0 0 160 600" style="enable-background:new 0 0 160 600;" xml:space="preserve">
<style type="text/css">
	.st0{fill:#FFFFFF;}
</style>
<g>
	<path class="st0" d="M73.9,213.4c0-0.7,0.6-1.3,1.3-1.3h0.1c0.7,0,1.3,0.5,1.4,1.2v0.1c-0.1,0.8-0.7,1.3-1.5,1.3
		C74.5,214.7,74,214.1,73.9,213.4z M74.4,217.4h1.9v12.1h-1.9V217.4z"/>
	<path class="st0" d="M88.4,228.9c-0.9,0.5-2,0.8-3.1,0.7c-2.8,0-4.1-1.4-4.1-4.4V219h-2.3v-1.4c1.9,0,2.7-1.1,2.8-3.7h1.5v3.4h4.7
		v1.7h-4.7v6.2c0,1.9,0.7,2.7,2.4,2.7c0.8,0,1.6-0.2,2.3-0.6L88.4,228.9z"/>
</g>
</svg>
