<?xml version="1.0" encoding="utf-8"?>
<!-- Generator: Adobe Illustrator 23.0.4, SVG Export Plug-In . SVG Version: 6.00 Build 0)  -->
<svg version="1.1" id="Layer_1" xmlns="http://www.w3.org/2000/svg" xmlns:xlink="http://www.w3.org/1999/xlink" x="0px" y="0px"
	 viewBox="0 0 160 600" style="enable-background:new 0 0 160 600;" xml:space="preserve">
<style type="text/css">
	.st0{fill:#FFFFFF;}
</style>
<g>
	<path class="st0" d="M44.9,188.9h4.2v2.8h-4.2v9.4h-3.3v-9.4h-2.2v-2.8h2.2v-1.3c-0.2-2.4,1.6-4.6,4-4.8c0.3,0,0.5,0,0.8,0
		c1.3,0,2.5,0.4,3.5,1.1l-1.1,2.5c-0.5-0.5-1.3-0.8-2-0.8c-1-0.1-1.9,0.6-2,1.6c0,0.1,0,0.3,0,0.4L44.9,188.9z"/>
	<path class="st0" d="M51.1,183h3.3v18.1h-3.3V183z"/>
	<path class="st0" d="M68.5,193.6v7.5h-2.3l-0.5-1.6c-0.8,1.2-2.2,1.9-4.2,1.9c-2.8,0-4.5-1.4-4.5-3.9s1.7-3.8,4.7-3.8
		c1.2,0,2.4,0.2,3.6,0.6v-0.5c0.1-1.2-0.8-2.3-2.1-2.4c-0.2,0-0.3,0-0.5,0c-1.2,0-2.3,0.3-3.3,1l-1.8-2.2c1.5-1.1,3.4-1.6,5.2-1.5
		C66.3,188.6,68.5,190.5,68.5,193.6z M65.3,196.6v-0.3c-0.8-0.3-1.7-0.4-2.6-0.5c-1.6,0-2.4,0.5-2.4,1.6s0.7,1.6,2.2,1.6
		c1.4,0.2,2.6-0.9,2.8-2.2C65.3,196.6,65.3,196.6,65.3,196.6L65.3,196.6z"/>
	<path class="st0" d="M78.2,201.1h-3.5l-5.2-12.2h3.7l3,7.9l0.2,1l0.2-1l3.1-7.9h3.6L78.2,201.1z"/>
	<path class="st0" d="M83.7,195c0-3.5,2.8-6.4,6.3-6.4c0.1,0,0.3,0,0.4,0c3.9,0,6.7,2.6,6.7,6.4c0,3.5-2.8,6.3-6.3,6.3
		c-0.1,0-0.2,0-0.4,0C86.4,201.3,83.7,198.7,83.7,195z M93.7,195c0.1-1.7-1.2-3.3-2.9-3.4c-0.1,0-0.3,0-0.4,0
		c-1.9,0-3.4,1.5-3.4,3.4s1.5,3.4,3.4,3.4C92.2,198.4,93.7,196.9,93.7,195L93.7,195z"/>
	<path class="st0" d="M111.3,201.1h-2.6l-0.4-1.9c-0.9,1.4-2.5,2.3-4.2,2.2c-2.8,0-4.6-1.9-4.6-5V189h3.2v6.8c0,1.8,0.8,2.7,2.4,2.7
		c1.6,0.1,2.9-1.1,3-2.7c0-0.1,0-0.2,0-0.3v-6.4h3.2V201.1z"/>
	<path class="st0" d="M114.6,188.9h2.5l0.5,2.2c0.6-1.6,2.1-2.4,4.2-2.4c0.2,0,0.5,0,0.7,0.1l-0.2,3.3h-0.5c-2.8,0-4,1.2-4,4.4v4.7
		h-3.3L114.6,188.9z"/>
</g>
</svg>
