<?xml version="1.0" encoding="utf-8"?>
<!-- Generator: Adobe Illustrator 23.0.4, SVG Export Plug-In . SVG Version: 6.00 Build 0)  -->
<svg version="1.1" id="Layer_1" xmlns="http://www.w3.org/2000/svg" xmlns:xlink="http://www.w3.org/1999/xlink" x="0px" y="0px"
	 viewBox="0 0 160 600" style="enable-background:new 0 0 160 600;" xml:space="preserve">
<style type="text/css">
	.st0{fill:#FFFFFF;}
</style>
<g>
	<path class="st0" d="M55.5,133c0,3.8-2.7,6.2-6.9,6.2h-3.1v5.2h-3.3v-17.7h6.5C52.9,126.8,55.5,129.1,55.5,133z M52,133
		c0-1.9-1.3-3.1-3.4-3.1h-3.2v6.1h3.2C50.8,136,52,134.8,52,133z"/>
	<path class="st0" d="M68,140.6h-8l-1.5,3.8h-3.6l7.1-17.6H66l7.2,17.6h-3.7L68,140.6z M66.8,137.6l-2.6-6.9L64,130l-0.2,0.8
		l-2.6,6.9L66.8,137.6z"/>
	<path class="st0" d="M74.2,136.9v-10.1h3.3v10.1c0,2.9,1.7,4.6,4.4,4.6s4.3-1.7,4.3-4.6v-10.1h3.3v10.1c0,4.8-2.9,7.8-7.7,7.8
		S74.2,141.6,74.2,136.9z"/>
	<path class="st0" d="M92.7,140.1l3-0.9c0.3,1.5,1.6,2.6,3.2,2.6c1.7,0,2.8-0.8,2.8-2.1s-0.8-2-2.5-2.5l-2-0.6
		c-2.8-0.8-4.2-2.4-4.2-5c0-3.1,2.2-5,5.8-5c5,0,5.9,3.9,5.9,3.9l-3,1c-0.3-1.3-1.5-2.2-2.9-2.1c-1.6,0-2.6,0.8-2.6,2s0.8,2,2.6,2.5
		l2.1,0.6c2.8,0.8,4.2,2.4,4.2,5c0,3.2-2.4,5.2-6.2,5.2C95.9,144.8,93.4,142.9,92.7,140.1L92.7,140.1z"/>
	<path class="st0" d="M120.7,141.4v3h-12.1v-17.6h12v3h-8.7v4.3h8.2v2.8h-8.2v4.4L120.7,141.4z"/>
</g>
</svg>
