<?xml version="1.0" encoding="utf-8"?>
<!-- Generator: Adobe Illustrator 23.0.4, SVG Export Plug-In . SVG Version: 6.00 Build 0)  -->
<svg version="1.1" id="Layer_1" xmlns="http://www.w3.org/2000/svg" xmlns:xlink="http://www.w3.org/1999/xlink" x="0px" y="0px"
	 viewBox="0 0 160 600" style="enable-background:new 0 0 160 600;" xml:space="preserve">
<style type="text/css">
	.st0{fill:#FFFFFF;}
</style>
<g>
	<path class="st0" d="M107,221.6v7.9h-1.4l-0.3-1.8c-0.8,1.3-2.2,2-4.3,2c-2.9,0-4.5-1.4-4.5-3.8s1.8-3.7,4.8-3.7
		c1.3,0,2.7,0.2,3.9,0.7v-1c0-1.9-1.2-3-3.2-3c-1.3,0-2.6,0.4-3.7,1.1l-1-1.5c1.4-0.9,3.1-1.4,4.7-1.4
		C105,217.1,107,218.9,107,221.6z M105.1,225.1v-0.7c-1.1-0.5-2.3-0.7-3.4-0.7c-2.1,0-3.3,0.7-3.3,2.1s1,2.1,3.1,2.1
		S105.1,226.7,105.1,225.1L105.1,225.1z"/>
	<path class="st0" d="M111.1,211.3h1.9v18.1h-1.9V211.3z"/>
	<path class="st0" d="M117.3,211.3h1.9v18.1h-1.9V211.3z"/>
</g>
</svg>
