<?xml version="1.0" encoding="utf-8"?>
<!-- Generator: Adobe Illustrator 23.0.4, SVG Export Plug-In . SVG Version: 6.00 Build 0)  -->
<svg version="1.1" id="Layer_1" xmlns="http://www.w3.org/2000/svg" xmlns:xlink="http://www.w3.org/1999/xlink" x="0px" y="0px"
	 viewBox="0 0 160 600" style="enable-background:new 0 0 160 600;" xml:space="preserve">
<style type="text/css">
	.st0{fill:#FFFFFF;}
</style>
<g>
	<path class="st0" d="M49,156.8c0-0.7,0.6-1.3,1.3-1.3h0.1c0.7,0,1.3,0.5,1.4,1.2v0.1c-0.1,0.8-0.7,1.3-1.5,1.3
		C49.6,158,49.1,157.4,49,156.8z M49.5,160.7h1.9v12.1h-1.9V160.7z"/>
	<path class="st0" d="M55.5,160.7H57l0.3,2c1-1.5,2.7-2.3,4.5-2.2c3,0,4.8,2,4.8,5.1v7.2h-1.8v-6.9c0-2.4-1.2-3.6-3.3-3.6
		c-2.1-0.1-3.9,1.5-4,3.6c0,0.1,0,0.2,0,0.4v6.6h-1.9L55.5,160.7z"/>
</g>
</svg>
