<?xml version="1.0" encoding="utf-8"?>
<!-- Generator: Adobe Illustrator 23.0.4, SVG Export Plug-In . SVG Version: 6.00 Build 0)  -->
<svg version="1.1" id="Layer_1" xmlns="http://www.w3.org/2000/svg" xmlns:xlink="http://www.w3.org/1999/xlink" x="0px" y="0px"
	 viewBox="0 0 160 600" style="enable-background:new 0 0 160 600;" xml:space="preserve">
<style type="text/css">
	.st0{fill:#323E60;}
	.st1{fill:#FFFFFF;}
	.st2{fill:#7BB6DE;}
	.st3{clip-path:url(#SVGID_2_);}
	.st4{clip-path:url(#SVGID_4_);}
	.st5{clip-path:url(#SVGID_6_);}
</style>
<title>160 x 600 4</title>
<rect class="st0" width="160" height="600"/>
<path class="st1" d="M53.6,223.9v2.6h-9.4v-11.8h-1c-1.6-0.2-3,1-3.2,2.6c0,0.1,0,0.3,0,0.4c-0.1,1.5,1,2.8,2.6,3l-0.5,2.5
	c-2.8-0.2-5-2.7-4.8-5.5c0-3.4,2.3-5.6,6-5.6H47v11.8L53.6,223.9z"/>
<path class="st1" d="M64.7,222.4h-7.5c0.1,1.2,1.3,2.1,2.5,2c0.9,0.1,1.8-0.4,2.2-1.1l2.4,1.1c-1.6,2.5-4.9,3.2-7.3,1.6
	c-1.5-1-2.4-2.6-2.4-4.4c-0.1-2.8,2.1-5.1,4.8-5.2c0.2,0,0.3,0,0.5,0c2.9,0,4.9,2.1,4.9,5.2C64.7,222,64.7,222.4,64.7,222.4z
	 M62.1,220.4c-0.1-1.1-1.2-2-2.3-1.8c0,0,0,0,0,0c-1.2-0.1-2.3,0.7-2.5,1.8H62.1z"/>
<path class="st1" d="M74.2,226.1c-0.9,0.4-1.9,0.6-2.9,0.6c-2.6,0-3.8-1.3-3.8-3.9v-4h-1.8v-2c1.5-0.1,2.3-1.1,2.4-3h2.1v2.7h3.4
	v2.3h-3.4v3.9c0,1.2,0.4,1.7,1.5,1.7c0.6,0,1.2-0.2,1.7-0.5L74.2,226.1z"/>
<path class="st1" d="M88.9,226.1c-0.9,0.4-1.9,0.6-2.8,0.6c-2.6,0-3.8-1.3-3.8-3.9v-4h-1.8v-2c1.5-0.1,2.3-1.1,2.4-3h2.1v2.7h3.4
	v2.3h-3.4v3.9c0,1.2,0.4,1.7,1.5,1.7c0.6,0,1.2-0.2,1.7-0.5L88.9,226.1z"/>
<path class="st1" d="M90.1,213.4c0.1-0.9,0.9-1.6,1.7-1.5c0.8,0.1,1.4,0.7,1.5,1.5c0,0.9-0.7,1.6-1.6,1.6c0,0,0,0-0.1,0
	c-0.8,0-1.6-0.6-1.6-1.5C90.1,213.5,90.1,213.5,90.1,213.4z M90.3,216.6H93v10h-2.7V216.6z"/>
<path class="st1" d="M111.7,220.5v6.1H109V221c0-1.4-0.6-2.2-1.8-2.2c-1.2,0-2.2,0.9-2.2,2.1c0,0.1,0,0.2,0,0.3v5.3h-2.7V221
	c0-1.4-0.6-2.2-1.8-2.2c-1.2,0-2.2,0.9-2.2,2.1c0,0.1,0,0.2,0,0.4v5.3h-2.6v-10h2.1l0.4,1.4c0.7-1.1,2-1.7,3.3-1.6
	c1.3-0.1,2.4,0.6,3,1.7c0.8-1.2,2.2-1.8,3.6-1.7C110.3,216.3,111.7,217.9,111.7,220.5z"/>
<path class="st1" d="M123.8,222.4h-7.5c0.1,1.2,1.3,2.1,2.5,2c0.9,0.1,1.8-0.4,2.2-1.1l2.4,1.1c-1.6,2.5-4.9,3.2-7.3,1.6
	c-1.5-1-2.4-2.6-2.4-4.4c-0.1-2.8,2.1-5.1,4.8-5.2c0.2,0,0.3,0,0.5,0c2.9,0,4.9,2.1,4.9,5.2C123.9,222,123.8,222.4,123.8,222.4z
	 M121.3,220.4c-0.1-1.1-1.2-2-2.3-1.8c0,0,0,0,0,0c-1.2-0.1-2.3,0.7-2.5,1.8H121.3z"/>
<path class="st1" d="M43.2,242.4h3.4v2.3h-3.4v7.7h-2.7v-7.7h-1.8v-2.3h1.8v-1.1c-0.2-2,1.3-3.7,3.3-3.9c0.2,0,0.4,0,0.6,0
	c1,0,2.1,0.3,2.9,0.9l-0.9,2c-0.4-0.4-1-0.6-1.6-0.6c-0.8-0.1-1.6,0.5-1.6,1.3c0,0.1,0,0.2,0,0.4V242.4z"/>
<path class="st1" d="M56.4,246.2v6.1h-1.9l-0.4-1.3c-0.8,1.1-2.1,1.7-3.5,1.5c-2.3,0-3.6-1.2-3.6-3.2s1.4-3.1,3.9-3.1
	c1,0,2,0.1,2.9,0.5v-0.4c0.1-1-0.6-1.9-1.6-2c-0.1,0-0.3,0-0.4,0c-1,0-1.9,0.3-2.7,0.8l-1.4-1.8c1.3-0.9,2.8-1.3,4.3-1.2
	C54.7,242.1,56.4,243.7,56.4,246.2z M53.8,248.7v-0.2c-0.7-0.2-1.4-0.4-2.1-0.4c-1.3,0-2,0.4-2,1.3s0.6,1.3,1.8,1.3
	c1.1,0.1,2.2-0.7,2.3-1.8C53.8,248.7,53.8,248.7,53.8,248.7L53.8,248.7z"/>
<path class="st1" d="M59,237.6h2.7v14.8H59V237.6z"/>
<path class="st1" d="M64.4,237.6h2.7v14.8h-2.7V237.6z"/>
<path class="st1" d="M83.8,246.2v6.1h-1.9l-0.4-1.3c-0.8,1.1-2.1,1.7-3.4,1.5c-2.3,0-3.6-1.2-3.6-3.2s1.4-3.1,3.9-3.1
	c1,0,2,0.1,2.9,0.5v-0.4c0.1-1-0.6-1.9-1.6-2c-0.1,0-0.3,0-0.4,0c-1,0-1.9,0.3-2.7,0.8l-1.4-1.7c1.3-0.9,2.8-1.3,4.3-1.2
	C82.1,242.1,83.8,243.7,83.8,246.2z M81.2,248.7v-0.2c-0.7-0.2-1.4-0.4-2.1-0.4c-1.3,0-2,0.4-2,1.3s0.6,1.3,1.8,1.3
	c1.1,0.1,2.2-0.7,2.3-1.8C81.2,248.7,81.2,248.7,81.2,248.7L81.2,248.7z"/>
<path class="st1" d="M100.5,242.4l-3.4,10h-2.4l-1.9-6.1l-0.2-0.9l-0.1,0.9l-1.8,6.1h-2.4l-3.6-10h2.8l1.9,6.1l0.2,1.2l0.2-1.2
	l1.8-6.1h2.2l1.8,6.1l0.2,1.2l0.2-1.2l1.8-6.1H100.5z"/>
<path class="st1" d="M110.1,246.2v6.1h-1.9l-0.4-1.3c-0.8,1.1-2.1,1.7-3.5,1.5c-2.3,0-3.6-1.2-3.6-3.2s1.4-3.1,3.9-3.1
	c1,0,2,0.1,2.9,0.5v-0.4c0.1-1-0.6-1.9-1.6-2c-0.1,0-0.3,0-0.4,0c-1,0-1.9,0.3-2.7,0.8l-1.4-1.8c1.3-0.9,2.8-1.3,4.3-1.2
	C108.3,242.1,110.1,243.7,110.1,246.2z M107.5,248.7v-0.2c-0.7-0.2-1.4-0.4-2.1-0.4c-1.3,0-2,0.4-2,1.3s0.6,1.3,1.8,1.3
	c1.1,0.1,2.2-0.7,2.3-1.8C107.5,248.7,107.5,248.7,107.5,248.7L107.5,248.7z"/>
<path class="st1" d="M101.2,256l1.9-1.5c1.2,2,3.4,3.3,5.8,3.4c2.6,0,4.3-1.2,5.6-4l0.8-1.8l-4.3-9.7h3.1l2.5,6.4l0.2,1.1l0.2-1.1
	l2-4.8c0.4-0.9,0.7-1.8,0.8-2.8c0-1.3-1.4-1.6-1.4-1.6l1-2.3c0,0,3.2,0.8,3.2,3.7c-0.1,1.3-0.4,2.7-1.1,3.9l-4.3,9.8
	c-1.6,3.8-4.3,5.7-8.2,5.7C105.7,260.2,102.9,258.7,101.2,256z"/>
<path class="st2" d="M34.5,292.3h90.9c9.1,0,16.6,7.4,16.6,16.5v3.9c0,9.1-7.4,16.5-16.6,16.5H34.5c-9.1,0-16.5-7.4-16.5-16.5v-3.9
	C18,299.7,25.4,292.3,34.5,292.3z"/>
<path class="st1" d="M48.7,312.8v1.9H42v-10.3h2v8.4H48.7z"/>
<path class="st1" d="M56.6,311.7h-5.3c0.1,0.9,0.9,1.5,1.8,1.4c0.6,0.1,1.3-0.3,1.6-0.8l1.7,0.8c-1.1,1.8-3.4,2.3-5.2,1.2
	c-1.1-0.7-1.8-1.9-1.8-3.2c0-2,1.5-3.6,3.5-3.7c0.1,0,0.2,0,0.3,0c1.9,0,3.5,1.5,3.5,3.4c0,0.1,0,0.3,0,0.4
	C56.6,311.4,56.6,311.7,56.6,311.7z M54.8,310.3c-0.1-0.8-0.9-1.4-1.7-1.3c0,0,0,0,0,0c-0.8-0.1-1.6,0.5-1.8,1.3H54.8z"/>
<path class="st1" d="M64.2,310.3v4.4h-1.4l-0.3-0.9c-0.6,0.8-1.5,1.2-2.5,1.1c-1.6,0-2.6-0.8-2.6-2.3s1-2.2,2.8-2.2
	c0.7,0,1.4,0.1,2.1,0.3v-0.3c0.1-0.7-0.5-1.3-1.2-1.4c-0.1,0-0.2,0-0.3,0c-0.7,0-1.4,0.2-1.9,0.6l-1-1.3c0.9-0.6,2-0.9,3.1-0.9
	C62.9,307.4,64.2,308.5,64.2,310.3z M62.3,312v-0.2c-0.5-0.2-1-0.3-1.5-0.3c-0.9,0-1.4,0.3-1.4,0.9s0.4,0.9,1.3,0.9
	C61.5,313.5,62.2,312.9,62.3,312C62.3,312.1,62.3,312,62.3,312z"/>
<path class="st1" d="M66,307.5h1.4l0.3,1.3c0.4-0.9,1.4-1.5,2.4-1.4c0.1,0,0.3,0,0.4,0l-0.1,1.9h-0.3c-1.6,0-2.3,0.7-2.3,2.6v2.7H66
	V307.5z"/>
<path class="st1" d="M71.8,307.5h1.5l0.3,1c0.6-0.8,1.5-1.2,2.5-1.2c1.5-0.1,2.7,1.1,2.8,2.6c0,0.1,0,0.3,0,0.4v4.3h-1.9v-3.9
	c0-1-0.5-1.6-1.4-1.6c-0.9-0.1-1.7,0.6-1.7,1.5c0,0.1,0,0.1,0,0.2v3.8h-1.9V307.5z"/>
<path class="st1" d="M95.7,310.3v4.3h-1.9v-3.9c0-1-0.4-1.6-1.3-1.6c-0.8,0-1.5,0.7-1.5,1.5c0,0.1,0,0.1,0,0.2v3.8h-1.9v-3.9
	c0-1-0.5-1.6-1.3-1.6c-0.8,0-1.6,0.6-1.6,1.5c0,0.1,0,0.2,0,0.3v3.8h-1.9v-7.1h1.5l0.3,1c0.5-0.8,1.4-1.2,2.3-1.1
	c0.9-0.1,1.8,0.4,2.2,1.2c0.6-0.8,1.6-1.3,2.6-1.2C94.7,307.4,95.7,308.5,95.7,310.3z"/>
<path class="st1" d="M97.1,311.1c0-2,1.6-3.7,3.7-3.7c0.1,0,0.2,0,0.2,0c2-0.1,3.7,1.4,3.9,3.4c0,0.1,0,0.2,0,0.3
	c0,2.1-1.7,3.9-3.9,3.9C98.9,315,97.1,313.2,97.1,311.1z M103,311.1c0.1-1-0.7-1.9-1.7-2c-0.1,0-0.2,0-0.3,0c-1.1,0-2,0.9-2,2
	s0.9,2,2,2S103,312.2,103,311.1z"/>
<path class="st1" d="M106.4,307.5h1.5l0.3,1.3c0.4-0.9,1.4-1.5,2.5-1.4c0.1,0,0.3,0,0.4,0l-0.1,1.9h-0.3c-1.6,0-2.3,0.7-2.3,2.6v2.7
	h-1.9L106.4,307.5z"/>
<path class="st1" d="M118.7,311.7h-5.3c0.1,0.9,0.9,1.5,1.8,1.4c0.6,0.1,1.3-0.3,1.6-0.8l1.7,0.8c-0.7,1.1-1.9,1.8-3.3,1.7
	c-2,0.1-3.8-1.5-3.8-3.6s1.5-3.8,3.6-3.8c0.1,0,0.2,0,0.4,0c1.9,0,3.5,1.5,3.5,3.4c0,0.1,0,0.3,0,0.4
	C118.8,311.4,118.7,311.7,118.7,311.7z M116.9,310.3c-0.1-0.8-0.9-1.4-1.7-1.3c0,0,0,0,0,0c-0.8-0.1-1.6,0.5-1.8,1.3H116.9z"/>
<rect x="45.2" y="140.6" class="st1" width="2.6" height="12.6"/>
<g>
	<defs>
		<rect id="SVGID_1_" x="16.2" y="128.7" width="127.5" height="42.6"/>
	</defs>
	<clipPath id="SVGID_2_">
		<use xlink:href="#SVGID_1_"  style="overflow:visible;"/>
	</clipPath>
	<g class="st3">
		<path class="st1" d="M58.6,153.5c-3.6,0.1-6.7-2.7-6.8-6.3c-0.1-3.6,2.7-6.7,6.3-6.8c0.2,0,0.3,0,0.5,0c1.6,0,3.1,0.4,4.4,1.3v2.3
			c-1.1-1-2.6-1.6-4.1-1.6c-2.5,0.2-4.3,2.4-4.1,4.9c0.2,2.2,1.9,3.9,4.1,4.1c1.5,0,3-0.5,4.1-1.5v2.3
			C61.7,153.1,60.2,153.6,58.6,153.5"/>
	</g>
</g>
<polygon class="st1" points="72.8,142.6 72.8,153.2 70.2,153.2 70.2,142.6 66,142.6 66,140.6 77,140.6 77,142.6 "/>
<g>
	<defs>
		<rect id="SVGID_3_" x="16.2" y="128.7" width="127.5" height="42.6"/>
	</defs>
	<clipPath id="SVGID_4_">
		<use xlink:href="#SVGID_3_"  style="overflow:visible;"/>
	</clipPath>
	<g class="st4">
		<path class="st1" d="M86.1,142.3c-2.5,0-4.2,1.9-4.2,4.6s1.7,4.6,4.2,4.6s4.1-1.9,4.1-4.6S88.6,142.3,86.1,142.3 M86.1,153.6
			c-3.7-0.1-6.6-3.1-6.5-6.8s3.1-6.6,6.8-6.5c3.6,0.1,6.5,3,6.5,6.7c0,3.6-2.9,6.6-6.5,6.7C86.3,153.6,86.2,153.6,86.1,153.6"/>
		<path class="st1" d="M99.5,146.4h2c1.6,0,2.2-0.8,2.2-1.9s-0.6-2-2.2-2h-2V146.4z M105.9,153.4c-1.6,0-3.1-1-3.6-2.5l-1.3-2.7
			h-1.5v5h-2.6v-12.6h5c3,0,4.3,1.8,4.3,3.8c0.1,1.7-1.1,3.2-2.8,3.6l1.2,2.2c0.6,1.1,1.2,1.5,2.1,1.5c0.2,0,0.5,0,0.7-0.1v1.6
			C107,153.3,106.5,153.4,105.9,153.4"/>
	</g>
</g>
<rect x="111.8" y="140.6" class="st1" width="2.6" height="12.6"/>
<g>
	<defs>
		<rect id="SVGID_5_" x="16.2" y="128.7" width="127.5" height="42.6"/>
	</defs>
	<clipPath id="SVGID_6_">
		<use xlink:href="#SVGID_5_"  style="overflow:visible;"/>
	</clipPath>
	<g class="st5">
		<path class="st1" d="M21.9,140.2c-0.7,0.2-1.5,0.2-2.2-0.1c-0.6-0.3-1.1-0.8-1.4-1.4c-0.2-0.6-0.2-1.3,0.1-1.9
			c0.3-0.5,0.9-0.8,1.4-0.7c0.7,0.1,1.4,0.4,2,0.9c0.7,0.5,1.3,1.1,1.9,1.8c0.2,0.2,0.3,0.4,0.4,0.6C23.4,139.7,22.6,140,21.9,140.2
			 M76.2,130.6c-7.3-2-15-2.5-22.5-1.3c-7.5,1.2-14.8,3.4-21.7,6.4c-1.8,0.7-3.4,1.5-5.2,2.3l-0.7,0.4c-0.2-0.3-0.5-0.6-0.8-0.9
			c-0.7-0.8-1.4-1.5-2.2-2.1c-0.9-0.7-2-1.1-3.1-1.3c-0.7,0-1.3,0.1-1.9,0.4c-0.6,0.3-1.1,0.8-1.4,1.4c-0.6,1.1-0.7,2.4-0.2,3.5
			c0.4,1.1,1.3,2,2.5,2.5c1.1,0.4,2.2,0.4,3.3,0.1c1-0.3,2.1-0.7,3-1.2c0.5,0.8,1,1.6,1.6,2.5l5.9,9.6l0,0c0.1,0.2,0.2,0.3,0.4,0.4
			c0.6,0.3,1.3,0.1,1.6-0.4c0,0,0,0,0,0l7.1-12c0-0.1,0.1-0.2,0.1-0.3h-2.7l-5.6,9.5l-5-7.9c-0.5-0.8-1-1.6-1.6-2.4l0.5-0.3
			c1.6-0.8,3.4-1.6,5.1-2.3c6.8-3.1,13.9-5.3,21.3-6.6c7.3-1.3,14.8-1,22,0.9c0.2,0.1,0.5-0.1,0.6-0.3c0,0,0,0,0,0
			C76.6,130.9,76.5,130.7,76.2,130.6C76.2,130.6,76.2,130.6,76.2,130.6"/>
		<path class="st1" d="M141.7,156.6c-0.1,0.6-0.6,1-1.2,1.1c-0.7,0-1.4-0.2-2-0.6c-0.7-0.5-1.4-1.1-1.9-1.7
			c-0.2-0.3-0.5-0.6-0.7-0.8c0.5-0.3,1-0.5,1.6-0.7c0.8-0.3,1.6-0.4,2.4-0.3c1.3,0.2,2.2,1.5,2,2.8
			C141.8,156.4,141.8,156.5,141.7,156.6 M143.1,153.6c-0.7-1.1-1.8-1.8-3-2c-1.1-0.1-2.2,0-3.3,0.4c-0.7,0.3-1.4,0.6-2.1,0.9
			c-0.5-0.7-0.9-1.5-1.4-2.3l-6.1-9.8l0,0c-0.1-0.2-0.2-0.3-0.4-0.4c-0.6-0.3-1.3-0.1-1.6,0.4l-7.1,12c0,0.1-0.1,0.2-0.1,0.3h2.6
			l5.6-9.5l5.2,8.1c0.4,0.7,0.9,1.4,1.4,2.1c-0.4,0.2-0.9,0.5-1.3,0.7c-1.7,0.8-3.5,1.7-5.2,2.6c-6.8,3.7-13.3,7.7-20.6,10
			c-7.3,2.3-15,3.2-22.6,2.7c-0.3,0-0.5,0.2-0.5,0.5c0,0.3,0.2,0.5,0.5,0.5c7.7,0.7,15.6-0.1,23-2.4c7.5-2.3,14.2-6.3,21-9.8
			c1.7-0.9,3.4-1.7,5.2-2.6c0.6-0.2,1.1-0.5,1.6-0.8c0.3,0.4,0.7,0.9,1.1,1.2c0.7,0.8,1.5,1.5,2.4,2.1c1,0.7,2.2,1,3.4,0.9
			c0.7-0.1,1.3-0.4,1.8-0.9c0.5-0.5,0.8-1,1-1.7c0.3-1.2,0.2-2.5-0.5-3.6"/>
		<path class="st1" d="M69.1,160.8h-0.6v1.1h0.6c0.4,0,0.6-0.2,0.6-0.6S69.5,160.8,69.1,160.8 M68.5,160.3H69c0.4,0,0.5-0.2,0.5-0.5
			c0-0.2-0.2-0.5-0.4-0.5c0,0-0.1,0-0.1,0h-0.5V160.3z M69.2,162.4h-1.5v-3.6h1.4c0.8,0,1.1,0.4,1.1,0.9c0,0.3-0.2,0.5-0.4,0.7
			c0.3,0.2,0.6,0.5,0.6,0.9C70.4,162,70.1,162.4,69.2,162.4"/>
		<path class="st1" d="M73.5,162.5c-1,0-1.9-0.8-1.9-1.9s0.8-1.9,1.9-1.9c0.4,0,0.9,0.1,1.2,0.4v0.7c-0.3-0.3-0.7-0.4-1.2-0.4
			c-0.7,0-1.3,0.6-1.3,1.3c0,0.7,0.6,1.3,1.3,1.3c0.4,0,0.8-0.2,1.2-0.4v0.7C74.4,162.4,74,162.5,73.5,162.5"/>
		<path class="st1" d="M76.3,163.2l-0.1-0.2c0.2-0.1,0.4-0.4,0.4-0.6h-0.4v-0.7h0.7v0.6C76.9,162.7,76.7,163.1,76.3,163.2"/>
		<path class="st1" d="M82.1,162.5c-1,0-1.9-0.8-1.9-1.9s0.8-1.9,1.9-1.9c0.4,0,0.9,0.1,1.2,0.4v0.7c-0.3-0.3-0.7-0.4-1.2-0.4
			c-0.7,0-1.3,0.6-1.3,1.3c0,0.7,0.6,1.3,1.3,1.3c0.4,0,0.8-0.2,1.2-0.4v0.7C82.9,162.4,82.5,162.5,82.1,162.5"/>
	</g>
</g>
<path class="st1" d="M86.2,159.8l-0.5,1.3h1.1L86.2,159.8z M87.2,162.4l-0.4-0.9h-1.4l-0.4,0.9h-0.7l1.5-3.6h0.6l1.5,3.6H87.2z"/>
<polygon class="st1" points="91.7,162.4 89.9,160.1 89.9,162.4 89.2,162.4 89.2,158.9 89.7,158.9 91.6,161.2 91.6,158.9 92.2,158.9 
	92.2,162.4 "/>
<path class="st1" d="M95.2,159.8l-0.5,1.3h1.1L95.2,159.8z M96.3,162.4l-0.4-0.9h-1.4l-0.4,0.9h-0.7l1.5-3.6h0.6l1.5,3.6H96.3z"/>
<path class="st1" d="M99.5,159.4H99v2.4h0.5c1,0,1.3-0.5,1.3-1.2S100.5,159.4,99.5,159.4 M99.5,162.4h-1.2v-3.6h1.3
	c1.4,0,2,0.8,2,1.8S101,162.4,99.5,162.4"/>
<path class="st1" d="M104.2,159.8l-0.5,1.3h1L104.2,159.8z M105.3,162.4l-0.4-0.9h-1.4l-0.4,0.9h-0.7l1.5-3.6h0.6l1.5,3.6H105.3z"/>
</svg>
