<?xml version="1.0" encoding="utf-8"?>
<!-- Generator: Adobe Illustrator 26.0.3, SVG Export Plug-In . SVG Version: 6.00 Build 0)  -->
<svg version="1.1" id="Layer_1" xmlns="http://www.w3.org/2000/svg" xmlns:xlink="http://www.w3.org/1999/xlink" x="0px" y="0px"
	 viewBox="0 0 970 250" style="enable-background:new 0 0 970 250;" xml:space="preserve">
<style type="text/css">
	.st0{fill:#FFFFFF;}
	.st1{fill:#CEFFFF;}
</style>
<g>
	<g>
		<path class="st0" d="M54.2,68.2h-6.1v14h-8.3v-39h18.2c8.1,0,13.1,5.3,13.1,12.6c0,6.9-4.3,10.6-8.5,11.6l8.8,14.9h-9.5L54.2,68.2
			z M56.9,50.3h-8.7v10.8h8.7c3.3,0,5.8-2.1,5.8-5.4S60.2,50.3,56.9,50.3z"/>
		<path class="st0" d="M88.4,53.2c8.4,0,14.2,6.3,14.2,15.6v1.6h-21C82,74,84.9,77,89.7,77c2.8,0,5.4-1,7.6-2.8l3.3,4.8
			c-2.8,2.6-7.2,3.9-11.6,3.9c-8.6,0-15.1-5.8-15.1-14.9C73.8,59.9,79.8,53.2,88.4,53.2z M81.4,65.4h14c-0.2-3.6-3.2-6.4-6.8-6.3
			c-0.1,0-0.1,0-0.2,0C84.8,59.1,81.7,61.8,81.4,65.4L81.4,65.4z"/>
		<path class="st0" d="M108,43.2h7.4v39H108V43.2z"/>
		<path class="st0" d="M139.7,79.3c-2.3,2.5-5.6,3.8-9,3.6c-4.5,0-9.8-3-9.8-9.4c0-6.6,5.3-9,9.8-9c3.8,0,7.1,1.2,9,3.5v-3.9
			c0-2.9-2.4-4.7-6.2-4.7c-3.1,0-6,1.2-8.2,3.3l-2.8-5c3.4-2.9,7.8-4.5,12.3-4.5c6.4,0,12.3,2.6,12.3,10.7v18.3h-7.4V79.3z
			 M139.7,71.9c-1.2-1.6-3.6-2.4-6-2.4c-2.9,0-5.3,1.5-5.3,4.3s2.4,4.2,5.3,4.2c2.4,0,4.7-0.8,6-2.5V71.9z"/>
		<path class="st0" d="M165.6,72.7l-6.5,9.5h-8.2l10-14.5L151.4,54h8.3l5.9,8.7l5.8-8.7h8.3l-9.5,13.7l10.1,14.5H172L165.6,72.7z"/>
		<path class="st0" d="M198.2,45.3c0-2.5,2-4.4,4.5-4.4c2.5,0,4.4,2,4.4,4.5c0,2.5-2,4.4-4.5,4.4c0,0,0,0,0,0
			C200.2,49.8,198.2,47.8,198.2,45.3z M199,54h7.4v28.2H199V54z"/>
		<path class="st0" d="M232.8,65.1c0-3.9-2.1-5.3-5.2-5.3c-2.6,0-4.9,1.3-6.4,3.3v19h-7.4V54h7.4v3.7c2.5-2.8,6.1-4.4,9.9-4.4
			c6.2,0,9.2,3.5,9.2,9v19.9h-7.4L232.8,65.1z"/>
		<path class="st1" d="M271.9,50.5h-11.4v-7.3h31.1v7.3h-11.4v31.7h-8.4V50.5z"/>
		<path class="st1" d="M303.9,53.2c8.4,0,14.2,6.3,14.2,15.6v1.6h-21c0.5,3.6,3.3,6.6,8.1,6.6c2.8,0,5.4-1,7.5-2.8L316,79
			c-2.8,2.6-7.2,3.9-11.6,3.9c-8.6,0-15.1-5.8-15.1-14.9C289.2,59.9,295.2,53.2,303.9,53.2z M296.9,65.4h13.9
			c-0.1-3.6-3.2-6.4-6.8-6.3c-0.1,0-0.1,0-0.2,0C300.2,59.1,297.2,61.8,296.9,65.4L296.9,65.4z"/>
		<path class="st1" d="M363.4,75.5H346l-2.5,6.7h-9.1l15.1-39h10.4l15,39h-9.1L363.4,75.5z M348.2,68.3h12.9l-6.4-17.9L348.2,68.3z"
			/>
		<path class="st1" d="M397.4,65.1c0-3.9-2-5.3-5.2-5.3c-2.6,0-5,1.3-6.4,3.3v19h-7.4V54h7.4v3.7c2.5-2.8,6.1-4.4,9.9-4.4
			c6.2,0,9.2,3.5,9.2,9v19.9h-7.4V65.1z"/>
		<path class="st1" d="M429.2,79.3c-2.3,2.4-5.6,3.8-9,3.6c-4.5,0-9.8-3-9.8-9.4c0-6.6,5.3-9,9.8-9c3.8,0,7.1,1.2,9,3.5v-3.9
			c0-2.9-2.5-4.7-6.2-4.7c-3.1,0-6,1.2-8.2,3.3l-2.8-5c3.4-2.9,7.8-4.5,12.3-4.5c6.4,0,12.3,2.6,12.3,10.7v18.3h-7.4V79.3z
			 M429.2,71.9c-1.2-1.6-3.6-2.4-6-2.4c-2.9,0-5.3,1.5-5.3,4.3s2.4,4.2,5.3,4.2c2.4,0,4.7-0.8,6-2.5V71.9z"/>
		<path class="st1" d="M463.1,78.6c-2.6,2.8-6.2,4.3-10,4.3c-6.2,0-9.1-3.4-9.1-8.9V54h7.4v17.1c0,3.9,2,5.2,5.2,5.2
			c2.5,0,4.9-1.2,6.4-3.2V54h7.4v28.2h-7.4L463.1,78.6z"/>
		<path class="st0" d="M492.9,43.2h7.4v14.4c2.1-2.7,5.3-4.3,8.7-4.3c7.2,0,12.5,5.6,12.5,14.9c0,9.4-5.4,14.8-12.5,14.8
			c-3.4,0-6.6-1.6-8.7-4.3v3.6h-7.4L492.9,43.2z M506.6,76.3c4.3,0,7.2-3.3,7.2-8.2s-2.9-8.2-7.2-8.2c-2.5,0.1-4.9,1.3-6.4,3.3v10
			C501.8,75.1,504.2,76.3,506.6,76.3z"/>
		<path class="st0" d="M539.9,53.2c8.4,0,14.2,6.3,14.2,15.6v1.6h-21c0.5,3.6,3.3,6.6,8.1,6.6c2.8,0,5.5-1,7.5-2.8L552,79
			c-2.8,2.6-7.3,3.9-11.6,3.9c-8.6,0-15.1-5.8-15.1-14.9C525.3,59.9,531.3,53.2,539.9,53.2z M532.9,65.4h14
			c-0.2-3.6-3.2-6.4-6.8-6.3c-0.1,0-0.1,0-0.2,0C536.3,59.1,533.3,61.8,532.9,65.4L532.9,65.4z"/>
		<path class="st0" d="M561.1,60.5h-4.7V54h4.7v-1.6c0-6.1,4-9.8,9.5-9.8c1.9,0,3.7,0.4,5.4,1.2l-1.5,5.2c-0.7-0.4-1.6-0.6-2.4-0.6
			c-2.1,0-3.5,1.4-3.5,4.1V54h5.7v6.5h-5.7v21.7h-7.5V60.5z"/>
		<path class="st0" d="M576.8,68.1c0-8,5.6-14.8,14.9-14.8s15,6.8,15,14.8s-5.6,14.9-15,14.9S576.8,76.1,576.8,68.1z M599,68.1
			c0-4.4-2.6-8.2-7.2-8.2s-7.2,3.8-7.2,8.2s2.6,8.2,7.2,8.2S599,72.5,599,68.1L599,68.1z"/>
		<path class="st0" d="M612.2,54h7.4v3.9c2.2-2.7,5.5-4.4,9-4.5v7.3c-0.7-0.2-1.3-0.2-2-0.2c-2.5,0-5.7,1.4-7,3.2v18.6h-7.4V54z"/>
		<path class="st0" d="M646,53.2c8.4,0,14.2,6.3,14.2,15.6v1.6h-21c0.5,3.6,3.3,6.6,8.1,6.6c2.8,0,5.5-1,7.5-2.8l3.3,4.8
			c-2.8,2.6-7.3,3.9-11.7,3.9c-8.6,0-15.1-5.8-15.1-14.9C631.4,59.9,637.5,53.2,646,53.2z M639,65.4h14c-0.2-3.6-3.2-6.4-6.8-6.3
			c-0.1,0-0.1,0-0.2,0C642.4,59.1,639.4,61.8,639,65.4L639,65.4z"/>
	</g>
</g>
</svg>
