<?xml version="1.0" encoding="utf-8"?>
<!-- Generator: Adobe Illustrator 26.0.3, SVG Export Plug-In . SVG Version: 6.00 Build 0)  -->
<svg version="1.1" id="Layer_1" xmlns="http://www.w3.org/2000/svg" xmlns:xlink="http://www.w3.org/1999/xlink" x="0px" y="0px"
	 viewBox="0 0 970 250" style="enable-background:new 0 0 970 250;" xml:space="preserve">
<style type="text/css">
	.st0{fill:#FFFFFF;}
</style>
<g>
	<g>
		<path class="st0" d="M48.9,50.5H37.5v-7.3h31.1v7.3H57.2v31.7h-8.4V50.5z"/>
		<path class="st0" d="M73,45.3c0-2.5,2-4.5,4.5-4.4c2.5,0,4.4,2,4.4,4.5c0,2.5-2,4.4-4.5,4.4l0,0C75,49.8,73,47.8,73,45.3z
			 M73.8,53.9h7.4v28.3h-7.5L73.8,53.9z"/>
		<path class="st0" d="M123.6,64.4c0-2.6-1.2-4.5-4.2-4.5c-2.4,0.1-4.5,1.3-5.8,3.3v19.1H106V64.4c0-2.6-1.2-4.5-4.2-4.5
			c-2.3,0.2-4.5,1.4-5.8,3.3v19h-7.5V54H96v3.7c2.3-2.7,5.7-4.3,9.2-4.4c4.2,0,6.8,1.9,7.8,5.2c2.2-3.2,5.8-5.1,9.7-5.2
			c5.2,0,8.3,2.8,8.3,8.5v20.4h-7.5L123.6,64.4z"/>
		<path class="st0" d="M151.2,53.2c8.4,0,14.2,6.3,14.2,15.6v1.6h-21c0.5,3.6,3.3,6.6,8.1,6.6c2.8,0,5.4-1,7.5-2.8l3.3,4.8
			c-2.8,2.6-7.3,3.9-11.6,3.9c-8.6,0-15.1-5.8-15.1-14.9C136.6,59.9,142.6,53.2,151.2,53.2z M144.2,65.4h13.9
			c-0.2-3.6-3.2-6.4-6.8-6.3c-0.1,0-0.1,0-0.2,0C147.5,59.1,144.5,61.8,144.2,65.4L144.2,65.4z"/>
		<path class="st0" d="M187.1,75.2V60.5h-4.7V54h4.7v-7.8h7.5V54h5.7v6.5h-5.7v12.7c0,1.8,0.9,3.1,2.6,3.1c0.9,0,1.8-0.3,2.6-0.8
			l1.6,5.6c-1.1,1-3.1,1.8-6.2,1.8C190,82.9,187.1,80.2,187.1,75.2z"/>
		<path class="st0" d="M203.6,68.1c0-8,5.6-14.8,14.9-14.8s15,6.8,15,14.8s-5.6,14.9-15,14.9S203.6,76.1,203.6,68.1z M225.8,68.1
			c0-4.4-2.6-8.2-7.3-8.2s-7.2,3.8-7.2,8.2s2.6,8.2,7.2,8.2S225.8,72.5,225.8,68.1L225.8,68.1z"/>
	</g>
</g>
</svg>
