<?xml version="1.0" encoding="utf-8"?>
<!-- Generator: Adobe Illustrator 26.0.3, SVG Export Plug-In . SVG Version: 6.00 Build 0)  -->
<svg version="1.1" id="Layer_1" xmlns="http://www.w3.org/2000/svg" xmlns:xlink="http://www.w3.org/1999/xlink" x="0px" y="0px"
	 viewBox="0 0 970 250" style="enable-background:new 0 0 970 250;" xml:space="preserve">
<style type="text/css">
	.st0{fill:#FFFFFF;}
	.st1{clip-path:url(#SVGID_00000072263888473492988610000013122329760919020166_);}
</style>
<g>
	<g>
		<path class="st0" d="M838.8,187.8v-17.5h2.6v15.2h7.9v2.3L838.8,187.8z"/>
		<path class="st0" d="M859.7,187.8v-1.4c-1.1,1.1-2.6,1.8-4.1,1.7c-2.3,0.1-4.3-1.7-4.4-4c0-0.1,0-0.1,0-0.2c0-2.9,2.3-4.1,4.4-4.1
			c1.6-0.1,3.1,0.5,4.1,1.7v-2.1c0-1.6-1.3-2.5-3.1-2.5c-1.4,0-2.8,0.6-3.8,1.7l-1-1.6c1.4-1.4,3.2-2.1,5.2-2.1
			c2.7,0,5.1,1.2,5.1,4.4v8.5H859.7z M859.7,182.9c-0.8-1-2-1.5-3.2-1.4c-1.4-0.2-2.7,0.7-2.9,2.1c-0.2,1.4,0.7,2.7,2.1,2.9
			c0.3,0.1,0.6,0.1,0.9,0c1.2,0.1,2.5-0.5,3.2-1.4V182.9z"/>
		<path class="st0" d="M874.3,187.8l-4.2-5.4l-1.9,1.9v3.5h-2.4v-17.5h2.4v11.2l6.1-6.4h3l-5.5,5.7l5.5,6.9L874.3,187.8z"/>
		<path class="st0" d="M884.4,174.9c3.8,0,6.2,3,6.2,6.8v0.6h-10c0.1,2.3,2,4,4.3,3.9c1.4,0,2.7-0.5,3.8-1.5l1.1,1.6
			c-1.4,1.3-3.2,2-5.1,1.9c-3.7,0.1-6.7-2.9-6.7-6.5S880.7,174.9,884.4,174.9L884.4,174.9z M880.5,180.6h7.7c0-2.1-1.6-3.8-3.7-3.8
			c0,0-0.1,0-0.1,0C882.3,176.8,880.6,178.5,880.5,180.6L880.5,180.6z"/>
		<path class="st0" d="M843.1,211.6v-15.2h-5.4v-2.3h13.4v2.3h-5.4v15.2H843.1z"/>
		<path class="st0" d="M856.4,198.6c3.8,0,6.2,2.9,6.2,6.8v0.6h-10c0.1,2.3,2,4,4.3,3.9c1.4,0,2.7-0.5,3.7-1.5l1.1,1.6
			c-1.4,1.3-3.2,2-5.1,1.9c-3.7-0.1-6.6-3.1-6.5-6.8C850.2,201.7,853,198.8,856.4,198.6L856.4,198.6z M852.6,204.3h7.7
			c0-2.1-1.6-3.8-3.7-3.8c0,0-0.1,0-0.1,0C854.3,200.6,852.6,202.3,852.6,204.3L852.6,204.3z"/>
		<path class="st0" d="M884.8,211.6l-1.4-3.6h-8.6l-1.4,3.6h-2.9l6.9-17.5h3.3l6.9,17.5L884.8,211.6z M879.1,196.4l-3.5,9.2h7
			L879.1,196.4z"/>
		<path class="st0" d="M898.3,211.6v-8.1c0-2.1-1.1-2.8-2.7-2.8c-1.4,0-2.7,0.7-3.5,1.8v9h-2.4V199h2.4v1.8c1.1-1.3,2.8-2.1,4.5-2.1
			c2.7,0,4,1.4,4,4.1v8.9L898.3,211.6z"/>
		<path class="st0" d="M912.2,211.6v-1.4c-1.1,1.1-2.6,1.8-4.1,1.7c-2.3,0.1-4.3-1.7-4.4-4c0-0.1,0-0.1,0-0.2c0-2.9,2.3-4.1,4.4-4.1
			c1.6-0.1,3.1,0.5,4.1,1.7v-2.1c0-1.6-1.3-2.5-3.1-2.5c-1.4,0-2.8,0.6-3.8,1.7l-1-1.6c1.4-1.4,3.2-2.1,5.2-2.1
			c2.8,0,5.1,1.2,5.1,4.4v8.5L912.2,211.6z M912.2,206.7c-0.8-1-2-1.5-3.2-1.4c-1.4-0.2-2.7,0.7-2.9,2.1c-0.2,1.4,0.7,2.7,2.1,2.9
			c0.3,0.1,0.6,0.1,0.9,0c1.2,0.1,2.4-0.5,3.2-1.4V206.7z"/>
		<path class="st0" d="M926.9,211.6v-1.7c-1.2,1.3-2.8,2-4.5,2c-2.7,0-4-1.4-4-4V199h2.4v8.1c0,2.1,1,2.7,2.7,2.7
			c1.4,0,2.7-0.7,3.5-1.8V199h2.4v12.6L926.9,211.6z"/>
		<g>
			<defs>
				<rect id="SVGID_1_" width="970" height="250"/>
			</defs>
			<clipPath id="SVGID_00000122710981968296098080000018257760306929492132_">
				<use xlink:href="#SVGID_1_"  style="overflow:visible;"/>
			</clipPath>
			<g style="clip-path:url(#SVGID_00000122710981968296098080000018257760306929492132_);">
				<path class="st0" d="M815.3,191.9c-4.7,6.5-9.3,13-14,19.5l-0.2,0.2c-0.3,0.4-0.6,0.4-0.9,0c-1-1.4-2-2.8-3-4.2
					c-3.5-4.9-7.1-9.9-10.7-14.8c-1.6-2.1-2.8-4.6-3.5-7.1c-0.3-1.4-0.5-2.8-0.5-4.2c-0.1-9.1,6.5-16.9,15.4-18.3
					c9.8-1.5,19.1,5.2,20.7,15C819.5,182.9,818.3,187.9,815.3,191.9 M819.8,177.2c-1.8-8.9-9.4-15.4-18.5-15.8
					c-10.9-0.3-20,8.3-20.3,19.2c0,0.9,0,1.8,0.1,2.6c0.4,3.6,1.7,7,3.9,9.8c5,6.8,9.9,13.7,14.9,20.5c0.5,0.7,1,0.7,1.5,0
					c1.5-2,2.9-4,4.3-5.9c3.7-5.1,7.5-10.2,11.1-15.4c2.3-3.3,3.5-7.1,3.5-11.1C820.2,179.8,820.1,178.5,819.8,177.2"/>
				<path class="st0" d="M800.6,193.2c-6.7,0-12.1-5.5-12-12.1c0-6.7,5.5-12.1,12.1-12c6.7,0,12.1,5.5,12,12.1c0,0,0,0,0,0
					C812.6,187.8,807.2,193.2,800.6,193.2 M818.6,178.1c-1.7-9.9-11.1-16.6-21.1-14.9c-8.8,1.5-15.3,9.2-15.2,18.2
					c0,1.4,0.2,2.8,0.5,4.2c0.7,2.6,1.9,5,3.5,7.1c3.6,4.9,7.1,9.9,10.7,14.8c1,1.4,2,2.8,3,4.2c0.3,0.4,0.6,0.4,0.9,0l0.2-0.2
					c4.7-6.5,9.3-13,14-19.5C818.2,187.9,819.4,182.9,818.6,178.1"/>
				<path class="st0" d="M800.6,191.8c-5.9,0-10.8-4.8-10.8-10.8c0-5.9,4.8-10.8,10.8-10.8c5.9,0,10.8,4.8,10.8,10.8c0,0,0,0,0,0
					C811.4,187,806.5,191.8,800.6,191.8 M800.6,169c-6.7,0-12.1,5.4-12.1,12.1c0,6.7,5.4,12.1,12.1,12.1c6.7,0,12.1-5.4,12.1-12
					C812.7,174.5,807.3,169,800.6,169"/>
			</g>
		</g>
	</g>
</g>
</svg>
