<?xml version="1.0" encoding="utf-8"?>
<!-- Generator: Adobe Illustrator 26.0.3, SVG Export Plug-In . SVG Version: 6.00 Build 0)  -->
<svg version="1.1" id="Layer_1" xmlns="http://www.w3.org/2000/svg" xmlns:xlink="http://www.w3.org/1999/xlink" x="0px" y="0px"
	 viewBox="0 0 970 250" style="enable-background:new 0 0 970 250;" xml:space="preserve">
<style type="text/css">
	.st0{fill:#FFFFFF;}
	.st1{clip-path:url(#SVGID_00000176043730202618797790000016527024491536722618_);}
</style>
<g>
	<g>
		<path class="st0" d="M767.1,187.8v-17.5h11.7v2.3h-9.1v5.1h8.9v2.3h-8.9v7.8L767.1,187.8z"/>
		<path class="st0" d="M781.3,171.6c-0.1-0.8,0.4-1.6,1.3-1.7c0.8-0.1,1.6,0.4,1.7,1.3c0,0.2,0,0.3,0,0.5c-0.1,0.8-0.9,1.4-1.7,1.3
			C781.9,172.7,781.4,172.2,781.3,171.6z M781.6,187.8v-12.6h2.4v12.6H781.6z"/>
		<path class="st0" d="M786.9,181.5c-0.2-3.5,2.5-6.4,5.9-6.6c0.2,0,0.3,0,0.5,0c4,0,6.4,3,6.4,6.6s-2.4,6.7-6.4,6.7
			S786.9,185.2,786.9,181.5z M797.3,181.5c0-2.4-1.4-4.5-3.9-4.5s-3.9,2.1-3.9,4.5s1.4,4.6,3.9,4.6S797.3,183.9,797.3,181.5z"/>
		<path class="st0" d="M802.7,187.8v-12.6h2.3v1.9c1-1.3,2.5-2.2,4.1-2.2v2.4c-0.3-0.1-0.5-0.1-0.8-0.1c-1.3,0.1-2.5,0.8-3.3,1.8
			v8.8L802.7,187.8z"/>
		<path class="st0" d="M820.6,187.8V186c-1,1.3-2.5,2.1-4.1,2.1c-3.3,0-5.7-2.5-5.7-6.6s2.4-6.6,5.7-6.6c1.6,0,3.2,0.8,4.1,2.1v-6.6
			h2.3v17.5L820.6,187.8z M820.6,178.8c-0.8-1.1-2.1-1.8-3.5-1.9c-2.4,0-3.8,1.9-3.8,4.6s1.5,4.5,3.8,4.5c1.4,0,2.7-0.7,3.5-1.8
			V178.8z"/>
		<path class="st0" d="M826.7,187.8v-17.5h2.3v17.5H826.7z"/>
		<path class="st0" d="M840.6,187.8v-1.4c-1.1,1.1-2.6,1.8-4.1,1.7c-2.3,0.1-4.3-1.7-4.4-4c0-0.1,0-0.1,0-0.2c0-2.9,2.3-4.1,4.4-4.1
			c1.6-0.1,3.1,0.5,4.1,1.7v-2.1c0-1.6-1.3-2.5-3.1-2.5c-1.4,0-2.8,0.6-3.8,1.7l-1-1.6c1.4-1.4,3.3-2.1,5.2-2.1
			c2.8,0,5.1,1.2,5.1,4.4v8.5H840.6z M840.6,182.9c-0.8-1-2-1.5-3.2-1.4c-1.7,0-2.9,1-2.9,2.5c0,1.4,1.2,2.6,2.7,2.5
			c0.1,0,0.2,0,0.2,0c1.2,0.1,2.4-0.5,3.2-1.4V182.9z"/>
		<path class="st0" d="M855.3,187.8v-8.1c0-2.1-1.1-2.8-2.7-2.8c-1.4,0-2.7,0.7-3.5,1.8v9h-2.4v-12.6h2.4v1.8
			c1.1-1.3,2.8-2.1,4.5-2.1c2.7,0,4,1.4,4,4.1v8.9L855.3,187.8z"/>
		<path class="st0" d="M870.4,187.8V186c-1,1.3-2.5,2.1-4.1,2.1c-3.3,0-5.7-2.5-5.7-6.6s2.3-6.6,5.7-6.6c1.6,0,3.2,0.8,4.1,2.1v-6.6
			h2.4v17.5L870.4,187.8z M870.4,178.8c-0.8-1.1-2.1-1.8-3.5-1.9c-2.3,0-3.8,1.9-3.8,4.6s1.5,4.5,3.8,4.5c1.4,0,2.7-0.7,3.5-1.8
			V178.8z"/>
		<path class="st0" d="M779.4,211.6v-7.8h-9.7v7.8h-2.6v-17.5h2.6v7.3h9.7v-7.3h2.6v17.5H779.4z"/>
		<path class="st0" d="M785.5,195.4c0-0.8,0.7-1.5,1.5-1.5c0.8,0,1.5,0.7,1.5,1.5c0,0,0,0,0,0c0,0.8-0.7,1.5-1.5,1.5c0,0,0,0,0,0
			C786.2,196.8,785.5,196.2,785.5,195.4z M785.8,211.6V199h2.4v12.6L785.8,211.6z"/>
		<path class="st0" d="M792,208.2c1.1,1.1,2.6,1.8,4.2,1.8c1.8,0,2.7-0.7,2.7-1.8c0-1.3-1.4-1.7-3.1-2c-2.2-0.5-4.7-1.1-4.7-3.8
			c0-2,1.7-3.7,4.8-3.7c1.8-0.1,3.5,0.6,4.8,1.8l-1,1.6c-1-1-2.3-1.6-3.8-1.5c-1.6,0-2.6,0.6-2.6,1.6s1.4,1.5,2.9,1.8
			c2.2,0.5,4.8,1.1,4.8,4c0,2.2-1.8,3.9-5.1,3.9c-2,0.1-3.9-0.6-5.3-2L792,208.2z"/>
		<path class="st0" d="M804.7,208.8V201h-2.1v-2h2.1v-3.5h2.3v3.5h2.6v2H807v7.2c0,0.9,0.4,1.6,1.2,1.6c0.5,0,0.9-0.2,1.3-0.5
			l0.6,1.8c-0.7,0.6-1.6,0.9-2.5,0.8C805.7,211.9,804.7,210.8,804.7,208.8z"/>
		<path class="st0" d="M811.4,205.3c-0.2-3.5,2.5-6.4,5.9-6.6c0.2,0,0.3,0,0.5,0c4,0,6.4,3,6.4,6.6s-2.4,6.6-6.4,6.6
			S811.4,208.9,811.4,205.3z M821.8,205.3c0-2.4-1.4-4.5-3.9-4.5s-3.9,2.1-3.9,4.5s1.4,4.6,3.9,4.6S821.8,207.7,821.8,205.3z"/>
		<path class="st0" d="M827.2,211.6V199h2.3v1.9c1-1.3,2.5-2.2,4.1-2.2v2.4c-0.3-0.1-0.5-0.1-0.8-0.1c-1.3,0.1-2.5,0.8-3.3,1.8v8.8
			L827.2,211.6z"/>
		<path class="st0" d="M835.7,195.4c0-0.8,0.7-1.5,1.5-1.5c0.8,0,1.5,0.7,1.5,1.5c0,0,0,0,0,0c0,0.8-0.7,1.5-1.5,1.5c0,0,0,0,0,0
			C836.4,196.8,835.7,196.2,835.7,195.4z M836,211.6V199h2.3v12.6L836,211.6z"/>
		<path class="st0" d="M847.8,198.6c1.8-0.1,3.6,0.7,4.7,2.2l-1.5,1.4c-0.7-1-1.8-1.6-3.1-1.6c-2.5,0-4.1,1.9-4.1,4.5
			s1.6,4.6,4.1,4.6c1.2,0,2.4-0.6,3.1-1.6l1.6,1.4c-1.1,1.5-2.9,2.3-4.7,2.2c-3.7-0.1-6.5-3.2-6.4-6.9
			C841.6,201.6,844.4,198.8,847.8,198.6L847.8,198.6z"/>
		<path class="st0" d="M860.9,202.9c-0.1-4.8,3.7-8.9,8.5-9c0.2,0,0.3,0,0.5,0c2.8-0.1,5.4,1.3,6.9,3.7l-2.2,1.2
			c-1-1.6-2.8-2.6-4.7-2.5c-3.5,0-6.3,2.8-6.3,6.7s2.7,6.7,6.3,6.7c1.9,0,3.7-0.9,4.7-2.5l2.2,1.2c-1.5,2.4-4.1,3.8-6.9,3.7
			c-4.8,0.1-8.9-3.7-9-8.5C860.9,203.3,860.9,203.1,860.9,202.9z"/>
		<path class="st0" d="M879.4,211.6V199h2.3v1.9c1-1.3,2.5-2.2,4.1-2.2v2.4c-0.3-0.1-0.5-0.1-0.8-0.1c-1.3,0.1-2.5,0.8-3.3,1.8v8.8
			L879.4,211.6z"/>
		<path class="st0" d="M896.8,211.6v-1.7c-1.2,1.3-2.8,2-4.5,2c-2.7,0-4-1.4-4-4V199h2.4v8.1c0,2.1,1,2.7,2.7,2.7
			c1.4,0,2.7-0.7,3.5-1.8V199h2.4v12.6L896.8,211.6z"/>
		<path class="st0" d="M902.5,195.4c0-0.8,0.7-1.5,1.5-1.5c0.8,0,1.5,0.7,1.5,1.5c0,0,0,0,0,0c0,0.8-0.7,1.5-1.5,1.5c0,0,0,0,0,0
			C903.2,196.8,902.5,196.2,902.5,195.4z M902.9,211.6V199h2.4v12.6L902.9,211.6z"/>
		<path class="st0" d="M909,208.2c1.1,1.1,2.6,1.8,4.2,1.8c1.8,0,2.7-0.7,2.7-1.8c0-1.3-1.4-1.7-3.1-2c-2.2-0.5-4.7-1.1-4.7-3.8
			c0-2,1.7-3.7,4.8-3.7c1.8-0.1,3.5,0.6,4.8,1.8l-1,1.6c-1-1-2.3-1.6-3.8-1.5c-1.6,0-2.6,0.6-2.6,1.6s1.4,1.5,2.9,1.8
			c2.2,0.5,4.8,1.1,4.8,4c0,2.2-1.8,3.9-5.1,3.9c-2,0.1-3.9-0.6-5.3-2L909,208.2z"/>
		<path class="st0" d="M926.8,198.6c3.8,0,6.2,2.9,6.2,6.8v0.6h-10c0.1,2.3,2,4,4.3,3.9c1.4,0,2.7-0.5,3.8-1.5l1.1,1.6
			c-1.4,1.3-3.2,1.9-5.1,1.9c-3.7-0.1-6.6-3.1-6.5-6.8C920.5,201.7,923.3,198.8,926.8,198.6L926.8,198.6z M922.9,204.3h7.7
			c0-2.1-1.6-3.8-3.7-3.8c0,0-0.1,0-0.1,0C924.7,200.6,922.9,202.3,922.9,204.3L922.9,204.3z"/>
		<g>
			<defs>
				<rect id="SVGID_1_" width="970" height="250"/>
			</defs>
			<clipPath id="SVGID_00000099659959796404147880000004105437017341489047_">
				<use xlink:href="#SVGID_1_"  style="overflow:visible;"/>
			</clipPath>
			<g style="clip-path:url(#SVGID_00000099659959796404147880000004105437017341489047_);">
				<path class="st0" d="M743.6,191.9c-4.7,6.5-9.3,13-14,19.5l-0.2,0.2c-0.3,0.4-0.6,0.4-0.9,0c-1-1.4-2-2.8-3-4.2
					c-3.5-4.9-7.1-9.9-10.7-14.8c-1.6-2.1-2.8-4.6-3.5-7.1c-0.3-1.4-0.5-2.8-0.5-4.2c-0.1-9.1,6.5-16.9,15.5-18.3
					c9.8-1.5,19.1,5.2,20.7,15C747.8,182.9,746.6,187.9,743.6,191.9 M748.1,177.2c-1.8-8.9-9.4-15.4-18.5-15.8
					c-10.9-0.3-20,8.3-20.3,19.2c0,0.9,0,1.7,0.1,2.6c0.4,3.5,1.7,6.9,3.9,9.7c5,6.8,9.9,13.7,14.9,20.5c0.5,0.7,1,0.7,1.5,0
					c1.5-2,2.9-4,4.3-5.9c3.7-5.1,7.5-10.2,11.1-15.4c2.3-3.3,3.5-7.1,3.5-11.1C748.5,179.7,748.4,178.4,748.1,177.2"/>
				<path class="st0" d="M728.9,193.2c-6.7,0-12.1-5.4-12.1-12.1c0-6.7,5.4-12.1,12.1-12.1c6.7,0,12.1,5.4,12.1,12.1c0,0,0,0,0,0.1
					C741,187.8,735.5,193.2,728.9,193.2 M746.9,178.1c-1.7-9.8-10.9-16.5-20.7-15c-9,1.4-15.6,9.2-15.5,18.3c0,1.4,0.2,2.8,0.5,4.2
					c0.7,2.6,1.9,5,3.5,7.1c3.6,4.9,7.1,9.9,10.7,14.8c1,1.4,2,2.8,3,4.2c0.3,0.4,0.6,0.4,0.9,0l0.2-0.2c4.7-6.5,9.3-13,14-19.5
					C746.5,187.9,747.7,182.9,746.9,178.1"/>
				<path class="st0" d="M728.9,191.8c-5.9,0-10.8-4.8-10.8-10.8c0-5.9,4.8-10.8,10.8-10.8c5.9,0,10.8,4.8,10.8,10.8c0,0,0,0,0,0
					C739.6,187,734.8,191.8,728.9,191.8 M728.9,169c-6.7,0-12.1,5.4-12.1,12.1c0,6.7,5.4,12.1,12.1,12.1c6.7,0,12.1-5.4,12.1-12
					C741,174.4,735.6,169,728.9,169L728.9,169"/>
			</g>
		</g>
	</g>
</g>
</svg>
