<?xml version="1.0" encoding="utf-8"?>
<!-- Generator: Adobe Illustrator 26.0.3, SVG Export Plug-In . SVG Version: 6.00 Build 0)  -->
<svg version="1.1" id="Layer_1" xmlns="http://www.w3.org/2000/svg" xmlns:xlink="http://www.w3.org/1999/xlink" x="0px" y="0px"
	 viewBox="0 0 970 250" style="enable-background:new 0 0 970 250;" xml:space="preserve">
<style type="text/css">
	.st0{fill:#FFFFFF;}
	.st1{clip-path:url(#SVGID_00000136373008642434934050000007890601034900522640_);}
</style>
<g>
	<g>
		<path class="st0" d="M826.4,187.8v-17.5h11.7v2.3h-9.1v5.1h8.9v2.3h-8.9v7.8L826.4,187.8z"/>
		<path class="st0" d="M840.6,171.6c-0.1-0.8,0.4-1.6,1.3-1.7c0.8-0.1,1.6,0.4,1.7,1.3c0,0.2,0,0.3,0,0.5c-0.1,0.8-0.9,1.4-1.7,1.3
			C841.2,172.7,840.7,172.2,840.6,171.6z M841,187.8v-12.6h2.3v12.6H841z"/>
		<path class="st0" d="M846.3,181.5c-0.2-3.5,2.5-6.4,5.9-6.6c0.2,0,0.3,0,0.5,0c4,0,6.4,3,6.4,6.6s-2.4,6.7-6.4,6.7
			S846.3,185.2,846.3,181.5z M856.6,181.5c0-2.4-1.4-4.5-3.9-4.5s-3.9,2.1-3.9,4.5s1.4,4.6,3.9,4.6S856.6,183.9,856.6,181.5z"/>
		<path class="st0" d="M862,187.8v-12.6h2.3v1.9c1-1.3,2.5-2.2,4.1-2.2v2.4c-0.3-0.1-0.5-0.1-0.8-0.1c-1.3,0.1-2.5,0.8-3.3,1.8v8.8
			L862,187.8z"/>
		<path class="st0" d="M879.9,187.8V186c-1,1.3-2.5,2.1-4.1,2.1c-3.3,0-5.7-2.5-5.7-6.6s2.4-6.6,5.7-6.6c1.6,0,3.2,0.8,4.1,2.1v-6.6
			h2.3v17.5L879.9,187.8z M879.9,178.8c-0.8-1.1-2.1-1.8-3.5-1.9c-2.4,0-3.8,1.9-3.8,4.6s1.5,4.5,3.8,4.5c1.4,0,2.7-0.7,3.5-1.8
			V178.8z"/>
		<path class="st0" d="M886,187.8v-17.5h2.3v17.5H886z"/>
		<path class="st0" d="M899.9,187.8v-1.4c-1.1,1.1-2.6,1.8-4.1,1.7c-2.3,0.1-4.3-1.7-4.4-4c0-0.1,0-0.1,0-0.2c0-2.9,2.3-4.1,4.4-4.1
			c1.6-0.1,3.1,0.5,4.1,1.7v-2.1c0-1.6-1.3-2.5-3.1-2.5c-1.4,0-2.8,0.6-3.8,1.7L892,177c1.4-1.4,3.3-2.1,5.2-2.1
			c2.8,0,5.1,1.2,5.1,4.4v8.5L899.9,187.8z M899.9,182.9c-0.8-1-2-1.5-3.2-1.4c-1.7,0-2.9,1-2.9,2.5c0,1.4,1.2,2.6,2.7,2.5
			c0.1,0,0.2,0,0.2,0c1.2,0.1,2.4-0.5,3.2-1.4V182.9z"/>
		<path class="st0" d="M914.6,187.8v-8.1c0-2.1-1.1-2.8-2.7-2.8c-1.4,0-2.7,0.7-3.5,1.8v9h-2.4v-12.6h2.4v1.8
			c1.1-1.3,2.8-2.1,4.5-2.1c2.7,0,4.1,1.4,4.1,4.1v8.9L914.6,187.8z"/>
		<path class="st0" d="M929.7,187.8V186c-1,1.3-2.5,2.1-4.1,2.1c-3.3,0-5.7-2.5-5.7-6.6s2.3-6.6,5.7-6.6c1.6,0,3.2,0.8,4.1,2.1v-6.6
			h2.4v17.5L929.7,187.8z M929.7,178.8c-0.8-1.1-2.1-1.8-3.5-1.8c-2.3,0-3.8,1.9-3.8,4.6s1.5,4.5,3.8,4.5c1.4,0,2.7-0.7,3.5-1.8
			V178.8z"/>
		<path class="st0" d="M826.4,211.6v-17.5h2.6v15.2h7.9v2.3H826.4z"/>
		<path class="st0" d="M838.6,205.3c-0.2-3.5,2.5-6.4,5.9-6.6c0.2,0,0.3,0,0.5,0c4,0,6.4,3,6.4,6.6s-2.4,6.6-6.4,6.6
			S838.6,208.9,838.6,205.3z M848.9,205.3c0-2.4-1.4-4.5-3.9-4.5s-3.9,2.1-3.9,4.5s1.4,4.6,3.9,4.6S848.9,207.7,848.9,205.3z"/>
		<path class="st0" d="M863.4,211.6v-1.8c-1,1.3-2.5,2.1-4.1,2.1c-3.3,0-5.7-2.5-5.7-6.6s2.3-6.6,5.7-6.6c1.6,0,3.2,0.8,4.1,2.1
			v-6.6h2.4v17.5L863.4,211.6z M863.4,202.6c-0.8-1.1-2.1-1.8-3.5-1.9c-2.4,0-3.8,1.9-3.8,4.6s1.5,4.5,3.8,4.5
			c1.4,0,2.7-0.7,3.5-1.8V202.6z"/>
		<path class="st0" d="M870.5,213.1c1,1.2,2.5,1.8,4.1,1.7c2,0,3.9-0.9,3.9-3.6v-1.6c-1,1.3-2.5,2.1-4.2,2.2c-3.3,0-5.6-2.4-5.6-6.5
			s2.3-6.5,5.6-6.5c1.6,0,3.2,0.8,4.2,2.1V199h2.4v12.1c0,4.4-3.2,5.6-6.3,5.6c-1.9,0.1-3.8-0.6-5.2-1.9L870.5,213.1z M878.5,202.6
			c-0.8-1.1-2.1-1.8-3.5-1.9c-2.4,0-3.8,1.8-3.8,4.4s1.5,4.4,3.8,4.4c1.4,0,2.7-0.7,3.5-1.9V202.6z"/>
		<path class="st0" d="M890.2,198.6c3.8,0,6.2,2.9,6.2,6.8v0.6h-10c0.1,2.3,2,4,4.3,3.9c1.4,0,2.7-0.5,3.7-1.5l1.1,1.6
			c-1.4,1.3-3.2,2-5.1,1.9c-3.7-0.1-6.6-3.1-6.5-6.8C883.9,201.7,886.7,198.8,890.2,198.6L890.2,198.6z M886.3,204.3h7.7
			c0-2.1-1.6-3.8-3.7-3.8c0,0-0.1,0-0.1,0C888.1,200.6,886.3,202.3,886.3,204.3L886.3,204.3z"/>
		<g>
			<defs>
				<rect id="SVGID_1_" width="970" height="250"/>
			</defs>
			<clipPath id="SVGID_00000057867473516273655130000004725972765580825225_">
				<use xlink:href="#SVGID_1_"  style="overflow:visible;"/>
			</clipPath>
			<g style="clip-path:url(#SVGID_00000057867473516273655130000004725972765580825225_);">
				<path class="st0" d="M802.9,191.9c-4.7,6.5-9.3,13-14,19.5l-0.2,0.2c-0.3,0.4-0.6,0.4-0.9,0c-1-1.4-2-2.8-3-4.2
					c-3.5-4.9-7.1-9.9-10.7-14.8c-1.6-2.1-2.8-4.6-3.5-7.1c-0.3-1.4-0.5-2.8-0.5-4.2c-0.1-9.1,6.5-16.9,15.5-18.3
					c9.8-1.5,19.1,5.2,20.7,15C807.1,182.9,805.9,187.9,802.9,191.9 M807.5,177.2c-1.8-8.9-9.4-15.4-18.5-15.7
					c-10.9-0.3-20,8.3-20.3,19.2c0,0.9,0,1.7,0.1,2.6c0.4,3.5,1.7,6.9,3.8,9.8c5,6.8,9.9,13.7,14.9,20.5c0.5,0.7,1,0.7,1.5,0
					c1.5-2,2.9-4,4.3-5.9c3.7-5.1,7.5-10.2,11.1-15.4c2.3-3.3,3.5-7.1,3.5-11.1C807.8,179.8,807.7,178.5,807.5,177.2"/>
				<path class="st0" d="M788.2,193.2c-6.7,0-12.1-5.4-12.1-12.1c0-6.7,5.4-12.1,12.1-12.1c6.7,0,12.1,5.4,12.1,12.1c0,0,0,0,0,0.1
					C800.3,187.8,794.9,193.2,788.2,193.2 M806.2,178.1c-1.7-9.8-10.9-16.5-20.7-15c-9,1.4-15.5,9.2-15.5,18.2
					c0,1.4,0.2,2.8,0.5,4.2c0.7,2.6,1.9,5,3.5,7.1c3.6,4.9,7.2,9.9,10.7,14.8c1,1.4,2,2.8,3,4.2c0.3,0.4,0.6,0.4,0.9,0l0.2-0.2
					c4.7-6.5,9.3-13,14-19.5C805.8,187.9,807,182.9,806.2,178.1"/>
				<path class="st0" d="M788.2,191.8c-5.9,0-10.8-4.8-10.8-10.8s4.8-10.8,10.8-10.8s10.8,4.8,10.8,10.8c0,0,0,0,0,0
					C799,187,794.2,191.8,788.2,191.8 M788.2,169c-6.7,0-12.1,5.4-12.1,12.1c0,6.7,5.4,12.1,12.1,12.1c6.7,0,12.1-5.4,12.1-12
					C800.3,174.5,794.9,169,788.2,169"/>
			</g>
		</g>
	</g>
</g>
</svg>
