<?xml version="1.0" encoding="utf-8"?>
<!-- Generator: Adobe Illustrator 26.0.3, SVG Export Plug-In . SVG Version: 6.00 Build 0)  -->
<svg version="1.1" id="Layer_1" xmlns="http://www.w3.org/2000/svg" xmlns:xlink="http://www.w3.org/1999/xlink" x="0px" y="0px"
	 viewBox="0 0 970 250" style="enable-background:new 0 0 970 250;" xml:space="preserve">
<style type="text/css">
	.st0{fill:#FFFFFF;}
	.st1{clip-path:url(#SVGID_00000018930541198125994970000014515581144861896356_);}
</style>
<g>
	<g>
		<path class="st0" d="M671.1,187.8v-15.2h-5.4v-2.3h13.4v2.3h-5.4v15.2H671.1z"/>
		<path class="st0" d="M684.4,174.9c3.8,0,6.2,3,6.2,6.8v0.6h-10c0.1,2.3,2,4,4.3,3.9c1.4,0,2.7-0.5,3.7-1.5l1.1,1.6
			c-1.4,1.3-3.2,2-5.1,1.9c-3.7,0.1-6.7-2.9-6.7-6.5S680.8,174.9,684.4,174.9L684.4,174.9z M680.6,180.6h7.7c0-2.1-1.6-3.7-3.7-3.8
			c-0.1,0-0.1,0-0.2,0C682.3,176.8,680.6,178.5,680.6,180.6L680.6,180.6z"/>
		<path class="st0" d="M712.8,187.8l-1.4-3.6h-8.6l-1.4,3.6h-2.9l6.9-17.5h3.3l6.9,17.5H712.8z M707.1,172.6l-3.5,9.2h7L707.1,172.6
			z"/>
		<path class="st0" d="M726.3,187.8v-8.1c0-2.1-1.1-2.8-2.7-2.8c-1.4,0-2.7,0.7-3.5,1.8v9h-2.4v-12.6h2.4v1.8
			c1.1-1.3,2.8-2.1,4.5-2.1c2.7,0,4,1.4,4,4.1v8.9L726.3,187.8z"/>
		<path class="st0" d="M740.2,187.8v-1.4c-1.1,1.1-2.6,1.8-4.1,1.7c-2.3,0.1-4.3-1.7-4.4-4c0-0.1,0-0.1,0-0.2c0-2.9,2.3-4.1,4.4-4.1
			c1.6-0.1,3.1,0.5,4.1,1.7v-2.1c0-1.6-1.3-2.5-3.1-2.5c-1.4,0-2.8,0.6-3.8,1.7l-1-1.6c1.4-1.4,3.2-2.1,5.2-2.1
			c2.8,0,5.1,1.2,5.1,4.4v8.5H740.2z M740.2,182.9c-0.8-1-2-1.5-3.2-1.4c-1.4-0.2-2.7,0.7-2.9,2.1c-0.2,1.4,0.7,2.7,2.1,2.9
			c0.3,0.1,0.6,0.1,0.9,0c1.2,0.1,2.4-0.5,3.2-1.4V182.9z"/>
		<path class="st0" d="M754.9,187.8v-1.7c-1.2,1.3-2.8,2-4.5,2c-2.7,0-4-1.4-4-4v-8.9h2.4v8.1c0,2.1,1,2.7,2.7,2.7
			c1.4,0,2.7-0.7,3.5-1.8v-9.1h2.4v12.6L754.9,187.8z"/>
		<path class="st0" d="M675.1,193.9c2.7-0.1,5.3,1.2,6.9,3.5l-2.1,1.2c-1.1-1.5-2.9-2.4-4.8-2.4c-3.6,0-6.4,2.8-6.4,6.7
			c-0.2,3.5,2.5,6.5,6,6.7c0.1,0,0.2,0,0.4,0c1.6,0,3.2-0.6,4.4-1.7v-3.1H674v-2.3h8.2v6.4c-1.8,2-4.3,3.1-7,3.1c-5,0-9-4.1-9-9.1
			S670.2,193.9,675.1,193.9L675.1,193.9z"/>
		<path class="st0" d="M684.7,205.3c-0.2-3.5,2.5-6.4,5.9-6.6c0.2,0,0.3,0,0.5,0c4,0,6.4,3,6.4,6.6s-2.4,6.6-6.4,6.6
			S684.7,208.9,684.7,205.3z M695,205.3c0-2.4-1.4-4.5-3.9-4.5s-3.9,2.1-3.9,4.5s1.4,4.6,3.9,4.6S695,207.7,695,205.3L695,205.3z"/>
		<path class="st0" d="M700.5,211.6v-17.5h2.4v17.5H700.5z"/>
		<path class="st0" d="M709.5,201v10.6h-2.4V201H705v-2h2.1v-0.8c0-2.7,1.6-4.2,3.8-4.2c0.7,0,1.4,0.1,2.1,0.5l-0.5,1.8
			c-0.3-0.2-0.7-0.3-1.1-0.3c-1.2,0-1.9,0.8-1.9,2.3v0.8h2.6v2H709.5z"/>
		<path class="st0" d="M720.3,202.9c-0.1-4.8,3.7-8.9,8.5-9c0.2,0,0.3,0,0.5,0c2.8-0.1,5.4,1.3,6.9,3.7l-2.2,1.1
			c-1-1.6-2.8-2.6-4.7-2.5c-3.5,0-6.3,2.8-6.3,6.7s2.7,6.7,6.3,6.7c1.9,0,3.7-0.9,4.7-2.5l2.2,1.2c-1.5,2.4-4.1,3.8-6.9,3.7
			c-4.8,0.1-8.9-3.7-9-8.5C720.3,203.2,720.3,203.1,720.3,202.9z"/>
		<path class="st0" d="M738.8,211.6v-17.5h2.3v17.5H738.8z"/>
		<path class="st0" d="M753.4,211.6v-1.7c-1.2,1.3-2.8,2-4.5,2c-2.7,0-4-1.4-4-4V199h2.3v8.1c0,2.1,1,2.7,2.7,2.7
			c1.4,0,2.7-0.7,3.5-1.8V199h2.4v12.6L753.4,211.6z"/>
		<path class="st0" d="M759.5,211.6v-17.5h2.3v6.6c1-1.3,2.5-2.1,4.1-2.1c3.3,0,5.6,2.6,5.6,6.6s-2.4,6.6-5.6,6.6
			c-1.6,0-3.2-0.8-4.1-2.1v1.8L759.5,211.6z M761.8,208c0.8,1.1,2.1,1.8,3.5,1.8c2.4,0,3.8-1.9,3.8-4.5s-1.5-4.6-3.8-4.6
			c-1.4,0-2.7,0.7-3.5,1.9V208z"/>
		<g>
			<defs>
				<rect id="SVGID_1_" width="970" height="250"/>
			</defs>
			<clipPath id="SVGID_00000020388959722708440430000010899870657019935879_">
				<use xlink:href="#SVGID_1_"  style="overflow:visible;"/>
			</clipPath>
			<g style="clip-path:url(#SVGID_00000020388959722708440430000010899870657019935879_);">
				<path class="st0" d="M643.3,191.9c-4.7,6.5-9.3,13-14,19.5l-0.2,0.2c-0.3,0.4-0.6,0.4-0.9,0c-1-1.4-2-2.8-3-4.2
					c-3.5-4.9-7.1-9.9-10.7-14.8c-1.6-2.1-2.8-4.6-3.5-7.1c-0.3-1.4-0.5-2.8-0.5-4.2c-0.1-9.1,6.5-16.9,15.4-18.3
					c9.8-1.5,19.1,5.2,20.7,15C647.5,182.9,646.3,187.9,643.3,191.9 M647.8,177.2c-1.8-8.9-9.4-15.4-18.5-15.8
					c-10.9-0.3-20,8.3-20.3,19.2c0,0.9,0,1.8,0.1,2.6c0.4,3.6,1.7,7,3.9,9.8c5,6.8,9.9,13.7,14.9,20.5c0.5,0.7,1,0.7,1.5,0
					c1.5-2,2.9-4,4.3-5.9c3.7-5.1,7.5-10.2,11.1-15.4c2.3-3.3,3.5-7.1,3.5-11.1C648.2,179.8,648.1,178.5,647.8,177.2"/>
				<path class="st0" d="M628.6,193.2c-6.7,0-12.1-5.5-12-12.1c0-6.7,5.5-12.1,12.1-12c6.7,0,12.1,5.5,12,12.1c0,0,0,0,0,0
					C640.6,187.8,635.2,193.2,628.6,193.2 M646.6,178.1c-1.7-9.9-11.1-16.6-21.1-14.9c-8.8,1.5-15.3,9.2-15.2,18.2
					c0,1.4,0.2,2.8,0.5,4.2c0.7,2.6,1.9,5,3.5,7.1c3.6,4.9,7.1,9.9,10.7,14.8c1,1.4,2,2.8,3,4.2c0.3,0.4,0.6,0.4,0.9,0l0.2-0.2
					c4.7-6.5,9.3-13,14-19.5C646.2,187.9,647.4,182.9,646.6,178.1"/>
				<path class="st0" d="M628.6,191.8c-5.9,0-10.8-4.8-10.8-10.8c0-5.9,4.8-10.8,10.8-10.8c5.9,0,10.8,4.8,10.8,10.8c0,0,0,0,0,0
					C639.4,187,634.5,191.8,628.6,191.8 M628.6,169c-6.7,0-12.1,5.4-12.1,12.1c0,6.7,5.4,12.1,12.1,12.1c6.7,0,12.1-5.4,12.1-12
					C640.7,174.5,635.3,169,628.6,169"/>
			</g>
		</g>
	</g>
</g>
</svg>
