<?xml version="1.0" encoding="utf-8"?>
<!-- Generator: Adobe Illustrator 26.0.3, SVG Export Plug-In . SVG Version: 6.00 Build 0)  -->
<svg version="1.1" id="Layer_1" xmlns="http://www.w3.org/2000/svg" xmlns:xlink="http://www.w3.org/1999/xlink" x="0px" y="0px"
	 viewBox="0 0 300 600" style="enable-background:new 0 0 300 600;" xml:space="preserve">
<style type="text/css">
	.st0{fill:#FFFFFF;}
</style>
<g>
	<g>
		<path class="st0" d="M37.2,148.4c0,0-3.1-9.8-3.9-12.2c-0.6-1.7-1-3.5-1.2-5.3c0.2,4.4,0.3,5.2,0.3,9.1v8.4h-7v-33h6.8
			c0,0,2.8,9.7,3.4,11.7c0.5,1.4,0.8,2.9,1.1,4.4c-0.2-3.2-0.2-6.4-0.2-9.7v-6.4h7v33H37.2z"/>
		<path class="st0" d="M57.1,148.4l-0.8-4.9h-3.7l-0.8,4.9h-6.7l5.8-33.1h7.2l6.8,33.1H57.1z M55,133c-0.2-1.5-0.5-4.8-0.7-8
			c-0.1,3.3-0.4,6.6-0.6,8.1c-0.2,2.5-0.5,5.5-0.5,5.5h2.5C55.7,138.6,55.3,135.5,55,133z"/>
		<path class="st0" d="M76.1,121.3v27.1h-7.7v-27.1h-4.7v-5.9h17.2v5.9H76.1z"/>
		<path class="st0" d="M92,149.1c-6.2,0-9-2.8-9-7.6v-26.1h7.7v24.8c0,1.9,0.2,2.7,1.4,2.7s1.2-0.7,1.2-2.7v-24.8h7.7v26.2
			C101,145.9,98.3,149.1,92,149.1z"/>
		<path class="st0" d="M114.5,148.4c-0.5-2-0.7-4-0.7-6v-4c0-2.8-0.3-3.6-1.8-3.6h-0.5v13.6h-7.7v-33h10.4c4.6,0,7.6,2.4,7.6,8.4
			c0,5.2-1.1,7.2-5.3,7.7c4,0.3,4.7,3.5,4.7,8.7c0,3,0.6,7,1.4,8.3L114.5,148.4z M112.2,120.2h-0.6v8.9h1.1c1.1,0,1.4-1,1.4-4.4
			S113.8,120.2,112.2,120.2z"/>
		<path class="st0" d="M135.4,148.4l-0.8-4.9h-3.7l-0.8,4.9h-6.7l5.8-33.1h7.2l6.8,33.1H135.4z M133.4,133c-0.2-1.5-0.5-4.8-0.7-8
			c-0.1,3.3-0.4,6.6-0.6,8.1c-0.3,2.5-0.5,5.5-0.5,5.5h2.5C134,138.6,133.6,135.5,133.4,133z"/>
		<path class="st0" d="M145,148.4v-33h7.7v26.8h6.6v6.2L145,148.4z"/>
		<path class="st0" d="M183.8,148.7l-1.2-1.8c-0.4,1.2-1.8,2.1-4.2,2.1c-5.6,0-9.3-2-9.3-15.9c0-15.1,3.4-18.2,9.8-18.2
			c5.3,0,7.6,2.5,7.6,8.6c0,1.4-0.2,2.8-0.6,4.1l-6.8,0.2c0.3-1.6,0.5-3.1,0.6-4.7c0-1.5-0.1-2.5-1.1-2.5c-1.4,0-1.6,0.6-1.6,12.2
			c0,9.5,0.4,10.1,1.7,10.1c1.6,0,1.6-1.9,1.6-3.5c0-1.4,0-2.8-0.2-4.1h-1.8v-4.7h8.4v18.1L183.8,148.7z"/>
		<path class="st0" d="M200.2,148.4l-0.8-4.9h-3.7l-0.8,4.9h-6.7l5.8-33.1h7.2l6.8,33.1H200.2z M198.1,133c-0.2-1.5-0.5-4.8-0.7-8
			c-0.1,3.3-0.4,6.6-0.6,8.1c-0.3,2.5-0.5,5.5-0.5,5.5h2.4C198.8,138.6,198.4,135.5,198.1,133z"/>
		<path class="st0" d="M217.3,149.1c-5,0-8.5-2.1-8.5-8.6c0-1.4,0.2-2.8,0.5-4.1l6.9-0.2c-0.2,1.4-0.3,2.7-0.3,4.1
			c0,2.7,0.3,3.3,1.3,3.3c0.9,0,1.1-0.6,1.1-2.8c0-4.4-0.8-5.4-3.5-6.8l-2.1-1.1c-3.4-1.7-4.1-5.6-4.1-9.5c0-5.6,3.2-8.6,8.3-8.6
			s8.2,2.5,8.2,7.4c0,1-0.2,2.1-0.4,3.1l-6.8,0.5c0.2-1.1,0.2-2.2,0.3-3.3c0-1.9-0.1-2.4-1.1-2.4s-1.1,0.6-1.1,2.2
			c0,3,0.8,4.3,2.7,5.2l2.2,1.1c4,2,5.2,5.2,5.2,11.1S223.3,149.1,217.3,149.1z"/>
	</g>
</g>
</svg>
