<?xml version="1.0" encoding="utf-8"?>
<!-- Generator: Adobe Illustrator 26.0.3, SVG Export Plug-In . SVG Version: 6.00 Build 0)  -->
<svg version="1.1" id="Layer_1" xmlns="http://www.w3.org/2000/svg" xmlns:xlink="http://www.w3.org/1999/xlink" x="0px" y="0px"
	 viewBox="0 0 300 600" style="enable-background:new 0 0 300 600;" xml:space="preserve">
<style type="text/css">
	.st0{fill:#FFFFFF;}
</style>
<g>
	<g>
		<path class="st0" d="M33.7,108.4h-8.5v-33h7.9c6.8,0,10.7,2.6,10.7,17.5C43.8,105.3,39.7,108.4,33.7,108.4z M33.6,81.3h-0.6v20.9
			h0.6c1.5,0,2.3-1,2.3-9.6C35.8,81.8,35.2,81.3,33.6,81.3z"/>
		<path class="st0" d="M56.7,108.4c-0.5-2-0.7-4-0.7-6v-4c0-2.8-0.3-3.7-1.8-3.7h-0.5v13.7h-7.7v-33h10.5c4.6,0,7.6,2.4,7.6,8.4
			c0,5.2-1.1,7.2-5.3,7.7c4,0.3,4.7,3.5,4.7,8.7c0,3,0.6,7,1.4,8.3L56.7,108.4z M54.4,80.2h-0.6v8.9h1.1c1.1,0,1.4-1,1.4-4.4
			S56,80.2,54.4,80.2z"/>
		<path class="st0" d="M66.6,108.4v-33h7.7v33H66.6z"/>
		<path class="st0" d="M89,108.6h-7l-6.4-33.2h7.8c0.5,3.3,1.3,9.4,2.2,15.4c0.2,1.6,0.3,4.4,0.3,4.4c0-1.5,0.2-3,0.3-4.4
			c0.9-6,1.9-12.2,2.4-15.4h7.1L89,108.6z"/>
		<path class="st0" d="M97,108.4v-33h14.2v5.9h-6.5v7.1h5.7v6.4h-5.7v7.3h7.5v6.2L97,108.4z"/>
		<path class="st0" d="M130.9,109.1c-6.1,0-9.2-3.4-9.2-17.2c0-13.2,2.8-17,9.2-17c6.4,0,9.4,3.4,9.4,17
			C140.3,106,136.7,109.1,130.9,109.1z M131,80.5c-1.1,0-1.3,0.6-1.3,11.3c0,10.2,0.1,11,1.3,11s1.4-0.9,1.4-11
			C132.4,81.1,132.1,80.5,131,80.5z"/>
		<path class="st0" d="M154.6,108.4c0,0-3.1-9.8-3.9-12.2c-0.6-1.7-1-3.5-1.3-5.3c0.3,4.4,0.3,5.2,0.3,9.1v8.4h-7v-33h6.8
			c0,0,2.8,9.7,3.4,11.7c0.5,1.4,0.8,2.9,1.1,4.4c-0.2-3.2-0.2-6.4-0.2-9.7v-6.5h7v33L154.6,108.4z"/>
	</g>
</g>
</svg>
