<?xml version="1.0" encoding="utf-8"?>
<!-- Generator: Adobe Illustrator 26.0.3, SVG Export Plug-In . SVG Version: 6.00 Build 0)  -->
<svg version="1.1" id="Layer_1" xmlns="http://www.w3.org/2000/svg" xmlns:xlink="http://www.w3.org/1999/xlink" x="0px" y="0px"
	 viewBox="0 0 300 600" style="enable-background:new 0 0 300 600;" xml:space="preserve">
<style type="text/css">
	.st0{fill:#FFFFFF;}
</style>
<g>
	<g>
		<path class="st0" d="M35.5,216.8h-2.6v11.6h-7.7v-33H35c5.5,0,8.1,3,8.1,10C43,213.3,40.6,216.8,35.5,216.8z M33.6,201.3h-0.7v9.6
			h0.9c1.5,0,1.6-1.2,1.6-5.5C35.4,201.6,34.9,201.3,33.6,201.3z"/>
		<path class="st0" d="M45,228.4v-33h14.2v5.9h-6.5v7.1h5.7v6.4h-5.7v7.4h7.5v6.2L45,228.4z"/>
		<path class="st0" d="M72.4,228.4c-0.5-2-0.7-4-0.7-6v-4c0-2.8-0.3-3.6-1.8-3.6h-0.5v13.6h-7.7v-33h10.5c4.6,0,7.6,2.4,7.6,8.4
			c0,5.2-1.1,7.2-5.3,7.7c4,0.3,4.7,3.5,4.7,8.7c0,3,0.6,7,1.4,8.3L72.4,228.4z M70,200.2h-0.6v8.9h1.1c1.1,0,1.4-1,1.4-4.4
			S71.7,200.2,70,200.2z"/>
		<path class="st0" d="M89.9,201.3v7.5h5.3v6.4h-5.3v13.2h-7.7v-33h13.8v5.9L89.9,201.3z"/>
		<path class="st0" d="M106.2,229.1c-6.1,0-9.2-3.4-9.2-17.2c0-13.2,2.8-17,9.2-17s9.4,3.4,9.4,17C115.6,226,112,229.1,106.2,229.1z
			 M106.3,200.5c-1.1,0-1.3,0.6-1.3,11.3c0,10.1,0.1,11,1.3,11s1.4-0.9,1.4-11C107.7,201.1,107.4,200.5,106.3,200.5z"/>
		<path class="st0" d="M128.6,228.4c-0.5-2-0.7-4-0.7-6v-4c0-2.8-0.3-3.6-1.8-3.6h-0.5v13.6H118v-33h10.4c4.6,0,7.6,2.4,7.6,8.4
			c0,5.2-1.1,7.2-5.3,7.7c4,0.3,4.6,3.5,4.7,8.7c0.1,3,0.6,7,1.4,8.3L128.6,228.4z M126.2,200.2h-0.6v8.9h1.1c1.1,0,1.4-1,1.4-4.4
			S127.9,200.2,126.2,200.2z"/>
		<path class="st0" d="M155,228.4v-11.5c0-4,0.2-11.8,0.2-11.8s-0.9,8.5-1.5,14.4c-0.4,3.4-0.9,8.9-0.9,8.9h-5.5c0,0-0.6-5.5-1-8.9
			c-0.7-6-1.7-14.4-1.7-14.4s0.2,7.2,0.2,11.7v11.6h-6.3v-33h8.9c0.4,2.3,1.2,7.3,1.9,12.2c0.3,2.4,0.7,6.4,0.7,6.4s0.4-4,0.7-6.4
			c0.6-5,1.3-10,1.7-12.2h9.2v33H155z"/>
		<path class="st0" d="M175.2,228.4l-0.8-4.9h-3.7l-0.8,4.9h-6.7l5.9-33.1h7.2l6.8,33.1H175.2z M173.2,213c-0.2-1.5-0.5-4.8-0.7-8
			c-0.1,3.3-0.4,6.6-0.6,8.1c-0.2,2.5-0.5,5.5-0.5,5.5h2.4C173.8,218.6,173.4,215.5,173.2,213z"/>
		<path class="st0" d="M196.6,228.4c0,0-3.1-9.8-3.9-12.2c-0.6-1.7-1-3.5-1.3-5.3c0.3,4.4,0.3,5.2,0.3,9.1v8.4h-7v-33h6.8
			c0,0,2.8,9.7,3.4,11.7c0.5,1.4,0.8,2.9,1.1,4.4c-0.2-3.2-0.2-6.4-0.2-9.7v-6.4h7v33H196.6z"/>
		<path class="st0" d="M214.4,229.1c-6,0-9.2-2.8-9.2-16c0-14.1,2.6-18.3,9.2-18.3c5.4,0,8.2,3,8.2,8.3c0,1.7-0.1,3.4-0.4,5.2
			l-7.1,0.2c0.2-1.4,0.3-2.8,0.3-4.2c0-2.9,0-3.8-1.1-3.8s-1.3,0.8-1.3,11.7c0,10,0.2,10.6,1.5,10.6s1.2-1.7,1.2-4.7
			c0-1.5-0.1-2.9-0.3-4.3l7.2,0.1c0.2,1.8,0.3,3.5,0.3,5.3C223,225.6,219.7,229.1,214.4,229.1z"/>
		<path class="st0" d="M225.2,228.4v-33h14.2v5.9h-6.5v7.1h5.7v6.4h-5.7v7.4h7.5v6.2L225.2,228.4z"/>
	</g>
</g>
</svg>
