<?xml version="1.0" encoding="utf-8"?>
<!-- Generator: Adobe Illustrator 26.0.3, SVG Export Plug-In . SVG Version: 6.00 Build 0)  -->
<svg version="1.1" id="Layer_1" xmlns="http://www.w3.org/2000/svg" xmlns:xlink="http://www.w3.org/1999/xlink" x="0px" y="0px"
	 viewBox="0 0 300 600" style="enable-background:new 0 0 300 600;" xml:space="preserve">
<style type="text/css">
	.st0{fill:#FFFFFF;}
</style>
<g>
	<g>
		<path class="st0" d="M45.5,148.4h-6.3l-1.2-9.7c-0.4-3.7-0.9-6.9-0.9-6.9s-0.3,3.1-0.8,6.9s-1.3,9.7-1.3,9.7h-6.7l-4.2-33h7.1
			c0,0,0.7,7,1.1,11.4c0.2,2.2,0.3,8,0.3,8s0-5.8,0.3-8c0.7-4.4,1.3-8.5,1.7-11.4H40c0.5,4,0.9,7,1.5,11.4c0.5,3.6,0.6,8,0.6,8
			c0-2.7,0.1-5.3,0.3-8c0.6-4.5,1.4-11.4,1.4-11.4h6.6L45.5,148.4z"/>
		<path class="st0" d="M52.1,148.4v-33h7.7v33H52.1z"/>
		<path class="st0" d="M74.3,121.3v27.1h-7.7v-27.1h-4.7v-5.9h17.2v5.9H74.3z"/>
		<path class="st0" d="M91.5,148.4v-14.6h-2.6v14.6h-7.7v-33h7.7v11.7h2.6v-11.8h7.7v33L91.5,148.4z"/>
		<path class="st0" d="M118.9,149.1c-5,0-8.5-2.1-8.5-8.6c0-1.4,0.2-2.8,0.5-4.1l6.9-0.2c-0.2,1.4-0.3,2.7-0.3,4.1
			c0,2.7,0.2,3.3,1.3,3.3c0.9,0,1.1-0.6,1.1-2.8c0-4.4-0.8-5.4-3.5-6.8l-2.1-1.1c-3.4-1.7-4.1-5.6-4.1-9.5c0-5.6,3.2-8.6,8.3-8.6
			s8.2,2.5,8.2,7.4c0,1-0.1,2.1-0.4,3.1l-6.8,0.5c0.2-1.1,0.2-2.2,0.3-3.3c0-1.9-0.1-2.4-1.1-2.4s-1.1,0.6-1.1,2.2
			c0,3,0.8,4.3,2.7,5.2l2.2,1.1c4,2,5.2,5.2,5.2,11.1S124.8,149.1,118.9,149.1z"/>
		<path class="st0" d="M140.5,148.4v-14.6h-2.6v14.6h-7.7v-33h7.7v11.7h2.6v-11.8h7.7v33L140.5,148.4z"/>
		<path class="st0" d="M151.1,148.4v-33h14.2v5.9h-6.5v7.1h5.7v6.4h-5.7v7.4h7.5v6.2L151.1,148.4z"/>
		<path class="st0" d="M167.8,148.4v-33h7.7v26.8h6.6v6.2L167.8,148.4z"/>
		<path class="st0" d="M184.1,148.4v-33h7.7v26.8h6.6v6.2L184.1,148.4z"/>
	</g>
</g>
</svg>
