<?xml version="1.0" encoding="utf-8"?>
<!-- Generator: Adobe Illustrator 26.0.3, SVG Export Plug-In . SVG Version: 6.00 Build 0)  -->
<svg version="1.1" id="Layer_1" xmlns="http://www.w3.org/2000/svg" xmlns:xlink="http://www.w3.org/1999/xlink" x="0px" y="0px"
	 viewBox="0 0 300 600" style="enable-background:new 0 0 300 600;" xml:space="preserve">
<style type="text/css">
	.st0{fill:#FFFFFF;}
</style>
<g>
	<g>
		<path class="st0" d="M35.5,136.8h-2.6v11.6h-7.7v-33H35c5.5,0,8.1,3,8.1,10C43,133.3,40.6,136.8,35.5,136.8z M33.6,121.3h-0.7v9.6
			h0.9c1.5,0,1.6-1.2,1.6-5.5C35.4,121.6,34.9,121.3,33.6,121.3z"/>
		<path class="st0" d="M55.7,148.4c-0.5-2-0.7-4-0.7-6v-4c0-2.8-0.3-3.6-1.8-3.6h-0.5v13.6H45v-33h10.5c4.5,0,7.6,2.4,7.6,8.4
			c0,5.2-1.1,7.2-5.3,7.7c4,0.3,4.6,3.5,4.7,8.7c0,3,0.5,7,1.4,8.3L55.7,148.4z M53.3,120.2h-0.6v8.9h1.1c1.1,0,1.4-1,1.4-4.4
			S55,120.2,53.3,120.2z"/>
		<path class="st0" d="M74.1,149.1c-6.1,0-9.2-3.4-9.2-17.2c0-13.2,2.8-17,9.2-17s9.4,3.4,9.4,17C83.5,146,79.9,149.1,74.1,149.1z
			 M74.2,120.5c-1.1,0-1.3,0.6-1.3,11.3c0,10.1,0.1,11,1.3,11s1.4-0.9,1.4-11C75.6,121.1,75.2,120.5,74.2,120.5z"/>
		<path class="st0" d="M96.5,121.3v27.1h-7.7v-27.1h-4.7v-5.9h17.2v5.9H96.5z"/>
		<path class="st0" d="M103.4,148.4v-33h14.2v5.9h-6.5v7.1h5.7v6.4h-5.7v7.4h7.5v6.2L103.4,148.4z"/>
		<path class="st0" d="M128.3,149.1c-6,0-9.2-2.8-9.2-16c0-14.1,2.6-18.3,9.2-18.3c5.4,0,8.2,3,8.2,8.3c0,1.7-0.1,3.4-0.3,5.2
			l-7,0.2c0.2-1.4,0.3-2.8,0.3-4.2c0-2.9,0-3.8-1.1-3.8s-1.3,0.8-1.3,11.7c0,10,0.2,10.6,1.5,10.6c1.3,0,1.2-1.7,1.2-4.7
			c0-1.5-0.1-2.9-0.3-4.3l7.2,0.1c0.2,1.8,0.3,3.5,0.3,5.3C137,145.6,133.6,149.1,128.3,149.1z"/>
		<path class="st0" d="M150.3,121.3v27.1h-7.7v-27.1h-4.7v-5.9h17.2v5.9H150.3z"/>
		<path class="st0" d="M157.2,148.4v-33h7.7v33H157.2z"/>
		<path class="st0" d="M176.4,149.1c-6.1,0-9.2-3.4-9.2-17.2c0-13.2,2.8-17,9.2-17s9.4,3.4,9.4,17
			C185.8,146,182.2,149.1,176.4,149.1z M176.5,120.5c-1.1,0-1.3,0.6-1.3,11.3c0,10.1,0.1,11,1.3,11s1.4-0.9,1.4-11
			C177.9,121.1,177.6,120.5,176.5,120.5z"/>
		<path class="st0" d="M200,148.4c0,0-3.1-9.8-3.9-12.2c-0.6-1.7-1-3.5-1.3-5.3c0.3,4.4,0.3,5.2,0.3,9.1v8.4h-7v-33h6.8
			c0,0,2.8,9.7,3.4,11.7c0.5,1.4,0.8,2.9,1.1,4.4c-0.2-3.2-0.2-6.4-0.2-9.7v-6.4h7v33H200z"/>
	</g>
</g>
</svg>
