<?xml version="1.0" encoding="utf-8"?>
<!-- Generator: Adobe Illustrator 26.0.3, SVG Export Plug-In . SVG Version: 6.00 Build 0)  -->
<svg version="1.1" id="Layer_1" xmlns="http://www.w3.org/2000/svg" xmlns:xlink="http://www.w3.org/1999/xlink" x="0px" y="0px"
	 viewBox="0 0 300 600" style="enable-background:new 0 0 300 600;" xml:space="preserve">
<style type="text/css">
	.st0{fill:#FFFFFF;}
</style>
<g>
	<g>
		<path class="st0" d="M36,188.4l-0.8-4.9h-3.7l-0.8,4.9H24l5.8-33.1h7.2l6.9,33.1H36z M34,173c-0.2-1.5-0.5-4.8-0.7-8
			c-0.1,3.3-0.4,6.6-0.6,8.1c-0.3,2.5-0.5,5.5-0.5,5.5h2.5C34.6,178.6,34.2,175.5,34,173z"/>
		<path class="st0" d="M57.5,188.4c0,0-3.1-9.8-3.9-12.2c-0.6-1.7-1-3.5-1.3-5.3c0.3,4.4,0.3,5.2,0.3,9.1v8.4h-7v-33h6.8
			c0,0,2.8,9.7,3.4,11.7c0.5,1.4,0.8,2.9,1.1,4.4c-0.2-3.2-0.2-6.4-0.2-9.7v-6.4h7v33H57.5z"/>
		<path class="st0" d="M75.1,188.4h-8.5v-33h7.9c6.8,0,10.7,2.6,10.7,17.5C85.2,185.4,81.2,188.4,75.1,188.4z M75,161.3h-0.6v20.9
			H75c1.5,0,2.3-1,2.3-9.6C77.2,161.8,76.6,161.3,75,161.3z"/>
	</g>
</g>
</svg>
