<?xml version="1.0" encoding="utf-8"?>
<!-- Generator: Adobe Illustrator 26.0.3, SVG Export Plug-In . SVG Version: 6.00 Build 0)  -->
<svg version="1.1" id="Layer_1" xmlns="http://www.w3.org/2000/svg" xmlns:xlink="http://www.w3.org/1999/xlink" x="0px" y="0px"
	 viewBox="0 0 300 600" style="enable-background:new 0 0 300 600;" xml:space="preserve">
<style type="text/css">
	.st0{clip-path:url(#SVGID_00000146463546603257168530000008329291138454701223_);}
	.st1{fill:#FFFFFF;}
	.st2{clip-path:url(#SVGID_00000031914423540004651430000008388317989839618693_);}
	.st3{clip-path:url(#SVGID_00000080191688018316745590000008614783063516638626_);}
	.st4{clip-path:url(#SVGID_00000119813097201267177170000015292807475970423713_);}
	.st5{fill:#ED2124;}
</style>
<g>
	<g>
		<g>
			<defs>
				<rect id="SVGID_1_" width="300" height="600"/>
			</defs>
			<clipPath id="SVGID_00000000922787458682398450000015621698175122050223_">
				<use xlink:href="#SVGID_1_"  style="overflow:visible;"/>
			</clipPath>
			<g style="clip-path:url(#SVGID_00000000922787458682398450000015621698175122050223_);">
				<path class="st1" d="M164.2,561.5c0.1,0,0.2,0,0.3,0c0.1,0,0.1-0.1,0.2-0.2c0-0.1,0.1-0.3,0.1-0.4c0-0.2,0-0.4,0-0.7
					s0-0.5,0-0.7c0-0.1,0-0.3-0.1-0.4c0-0.1-0.1-0.2-0.2-0.2c-0.1,0-0.2,0-0.3,0H164v2.8L164.2,561.5z M164.5,557.8
					c0.3,0,0.6,0,0.8,0.2c0.2,0.1,0.3,0.3,0.4,0.5c0.1,0.2,0.2,0.5,0.2,0.7c0,0.3,0,0.6,0,0.9s0,0.6,0,0.8c0,0.2-0.1,0.5-0.2,0.7
					c-0.1,0.2-0.2,0.4-0.4,0.5c-0.2,0.1-0.5,0.2-0.8,0.2h-1.7v-4.5L164.5,557.8z M162.2,557.8v1h-1.5v0.8h1.4v0.9h-1.4v0.9h1.6v1
					h-2.7v-4.5L162.2,557.8z M157,557.8l0.8,2.8l0,0v-2.8h1.1v4.5h-1.3l-0.8-2.8l0,0v2.8h-1.1v-4.5H157z M153.3,557.8l0.5,3.1l0,0
					l0.3-3.1h1.1l-0.8,4.5h-1.3l-0.4-3l0,0l-0.4,3h-1.3l-0.8-4.5h1.1l0.4,3.1l0,0l0.4-3.1H153.3z M146.9,559c0-0.3,0.1-0.5,0.3-0.7
					c0.1-0.2,0.3-0.3,0.5-0.4c0.2-0.1,0.5-0.1,0.8-0.1c0.3,0,0.5,0,0.8,0.1c0.2,0.1,0.4,0.2,0.5,0.4c0.1,0.2,0.2,0.5,0.3,0.7
					c0.1,0.7,0.1,1.4,0,2.2c0,0.3-0.1,0.5-0.3,0.7c-0.1,0.2-0.3,0.3-0.5,0.4c-0.2,0.1-0.5,0.1-0.8,0.1c-0.3,0-0.5,0-0.8-0.1
					c-0.2-0.1-0.4-0.2-0.5-0.4c-0.1-0.2-0.2-0.5-0.3-0.7C146.8,560.4,146.8,559.7,146.9,559 M148.1,560.8c0,0.2,0,0.3,0.1,0.5
					c0,0.1,0,0.2,0.1,0.2c0.1,0.1,0.3,0.1,0.4,0c0.1-0.1,0.1-0.1,0.1-0.2c0-0.2,0-0.3,0-0.5c0-0.2,0-0.5,0-0.8s0-0.6,0-0.8
					c0-0.2,0-0.3,0-0.5c0-0.1-0.1-0.2-0.1-0.2c-0.1-0.1-0.3-0.1-0.4,0c-0.1,0.1-0.1,0.1-0.1,0.2c0,0.2-0.1,0.3-0.1,0.5
					c0,0.2,0,0.5,0,0.8S148.1,560.6,148.1,560.8"/>
			</g>
		</g>
		<path class="st1" d="M161,547.1h-3.6v-2.6h7.3v2.3l-3.9,7.3h3.9v2.6h-7.6v-2.3L161,547.1z M151,544.5l2.1,7.5l0,0v-7.5h3v12.2
			h-3.5l-2.1-7.6l0,0v7.6h-3v-12.3L151,544.5z"/>
		<g>
			<defs>
				<rect id="SVGID_00000080924561256427777650000014230130506373588621_" width="300" height="600"/>
			</defs>
			<clipPath id="SVGID_00000035489328473715417940000007586949278285653667_">
				<use xlink:href="#SVGID_00000080924561256427777650000014230130506373588621_"  style="overflow:visible;"/>
			</clipPath>
			<g style="clip-path:url(#SVGID_00000035489328473715417940000007586949278285653667_);">
				<path class="st1" d="M164,541.7c0,0.1,0,0.2,0,0.3c0,0.1,0,0.1,0.1,0.1c0,0,0.1,0,0.1,0c0,0,0.1,0,0.1,0c0,0,0.1-0.1,0.1-0.1
					c0-0.1,0-0.2,0-0.3c0-0.1,0-0.3,0-0.5s0-0.3,0-0.5c0-0.1,0-0.2,0-0.3c0-0.1,0-0.1-0.1-0.1c0,0-0.1,0-0.1,0c0,0-0.1,0-0.1,0
					c0,0-0.1,0.1-0.1,0.1c0,0.1,0,0.2,0,0.3s0,0.3,0,0.5S164,541.6,164,541.7 M164.3,536.9l-2.6,5.8h-0.9l2.6-5.8H164.3z
					 M160.5,538.9c0,0.1,0,0.2,0,0.3c0,0.1,0,0.1,0.1,0.1c0.1,0.1,0.2,0.1,0.3,0c0,0,0.1-0.1,0.1-0.1c0-0.1,0-0.2,0-0.3
					c0-0.1,0-0.3,0-0.5s0-0.3,0-0.5c0-0.1,0-0.2,0-0.3c0-0.1,0-0.1-0.1-0.1c-0.1,0-0.2,0-0.3,0c0,0-0.1,0.1-0.1,0.1
					c0,0.1,0,0.2,0,0.3c0,0.1,0,0.3,0,0.5S160.5,538.8,160.5,538.9 M163.1,540.5c0-0.2,0.1-0.3,0.2-0.5c0.1-0.1,0.2-0.2,0.4-0.3
					c0.2-0.1,0.4-0.1,0.6-0.1c0.2,0,0.4,0,0.6,0.1c0.2,0.1,0.3,0.1,0.4,0.3c0.1,0.1,0.2,0.3,0.2,0.5c0,0.2,0.1,0.5,0.1,0.7
					c0,0.2,0,0.5-0.1,0.7c0,0.2-0.1,0.3-0.2,0.5c-0.1,0.1-0.2,0.2-0.4,0.3c-0.2,0.1-0.4,0.1-0.6,0.1c-0.2,0-0.4,0-0.6-0.1
					c-0.2,0-0.3-0.1-0.4-0.3c-0.1-0.1-0.2-0.3-0.2-0.5c0-0.2-0.1-0.5-0.1-0.7C163,541,163,540.7,163.1,540.5 M159.6,537.8
					c0-0.2,0.1-0.3,0.2-0.5c0.1-0.1,0.2-0.2,0.4-0.3c0.4-0.1,0.8-0.1,1.2,0c0.2,0.1,0.3,0.1,0.4,0.3c0.1,0.1,0.2,0.3,0.2,0.5
					c0.1,0.5,0.1,1,0,1.4c0,0.2-0.1,0.3-0.2,0.5c-0.1,0.1-0.2,0.2-0.4,0.3c-0.4,0.1-0.8,0.1-1.2,0c-0.2-0.1-0.3-0.1-0.4-0.3
					c-0.1-0.1-0.2-0.3-0.2-0.5C159.5,538.7,159.5,538.2,159.6,537.8 M155.3,538.4c0.1-0.3,0.2-0.6,0.4-0.9c0.1-0.2,0.4-0.4,0.6-0.5
					c0.6-0.2,1.2-0.2,1.8,0c0.2,0.1,0.5,0.2,0.6,0.5c0.2,0.3,0.3,0.6,0.4,0.9c0.1,0.5,0.1,1,0.1,1.4c0,0.5,0,1-0.1,1.4
					c0,0.3-0.2,0.6-0.4,0.9c-0.2,0.2-0.4,0.4-0.6,0.5c-0.6,0.2-1.2,0.2-1.8,0c-0.2-0.1-0.5-0.2-0.6-0.5c-0.2-0.3-0.3-0.6-0.4-0.9
					c-0.1-0.5-0.1-1-0.1-1.4C155.2,539.4,155.2,538.9,155.3,538.4 M156.8,541.6c0.1,0.1,0.2,0.2,0.3,0.2c0.1,0,0.3-0.1,0.4-0.2
					c0.1-0.3,0.1-0.5,0.1-0.8v-1.9c0-0.3,0-0.6-0.1-0.8c-0.1-0.1-0.2-0.2-0.4-0.2c-0.1,0-0.3,0.1-0.3,0.2c-0.1,0.3-0.1,0.5-0.1,0.8
					v1.9C156.7,541.1,156.7,541.4,156.8,541.6 M150.9,538.4c0.1-0.3,0.2-0.6,0.4-0.9c0.1-0.2,0.4-0.4,0.6-0.5c0.6-0.2,1.2-0.2,1.8,0
					c0.2,0.1,0.5,0.2,0.6,0.5c0.2,0.3,0.3,0.6,0.4,0.9c0.1,0.5,0.1,1,0.1,1.4c0,0.5,0,1-0.1,1.4c0,0.3-0.2,0.6-0.4,0.9
					c-0.2,0.2-0.4,0.4-0.6,0.5c-0.6,0.2-1.2,0.2-1.8,0c-0.2-0.1-0.5-0.2-0.6-0.5c-0.2-0.3-0.3-0.6-0.4-0.9c-0.1-0.5-0.1-1-0.1-1.4
					C150.8,539.4,150.8,538.9,150.9,538.4 M152.4,541.6c0.1,0.1,0.2,0.2,0.3,0.2c0.1,0,0.3-0.1,0.3-0.2c0.1-0.3,0.1-0.5,0.1-0.8
					v-1.9c0-0.3,0-0.6-0.1-0.8c-0.1-0.1-0.2-0.2-0.3-0.2c-0.1,0-0.3,0.1-0.3,0.2c-0.1,0.3-0.1,0.5-0.1,0.8v1.9
					C152.3,541.1,152.3,541.4,152.4,541.6 M148.2,538.8h-1.1v-0.9c0.2,0,0.4,0,0.6,0c0.2,0,0.3-0.1,0.4-0.2c0.1-0.1,0.2-0.2,0.3-0.3
					c0.1-0.1,0.1-0.3,0.2-0.4h1.1v5.8h-1.5V538.8z"/>
			</g>
		</g>
		<polygon class="st1" points="52.5,537.5 51.9,540.2 54.1,540.2 52.3,549 55.5,549 57.3,540.2 59.5,540.2 60,537.5 		"/>
		<g>
			<defs>
				<rect id="SVGID_00000029015650875658586990000003684354715056595349_" x="24.5" y="536.7" width="119.9" height="12.4"/>
			</defs>
			<clipPath id="SVGID_00000109750024126027361000000014746162382749207220_">
				<use xlink:href="#SVGID_00000029015650875658586990000003684354715056595349_"  style="overflow:visible;"/>
			</clipPath>
			<g style="clip-path:url(#SVGID_00000109750024126027361000000014746162382749207220_);">
				<path class="st1" d="M60.6,537.5h4.8c2.2,0,2.9,1.1,2.5,3s-1.3,2.6-2.5,2.8l0,0c0.6,0,1.1,0.4,1.3,0.9c0.1,0.7,0.1,1.4-0.1,2
					l-0.2,1c-0.1,0.4-0.2,0.9-0.1,1.3c0,0.1,0.1,0.3,0.3,0.3v0.2h-3.4c-0.1-0.6-0.1-1.1,0.1-1.7c0.1-0.6,0.2-1.1,0.3-1.7
					c0.2-1-0.1-1.2-0.6-1.2h-0.6l-1,4.5h-3.2L60.6,537.5z M62.8,542.3h0.5c0.5,0,1.1-0.2,1.4-1.3s-0.2-1.2-1-1.2h-0.4L62.8,542.3z"
					/>
				<path class="st1" d="M73.3,539.9L73.3,539.9l-0.3,4.7h-1.4L73.3,539.9z M71.8,537.4l-5.1,11.5H70l0.7-1.8h2.2v1.8h3.3l-0.3-11.5
					L71.8,537.4z"/>
				<polygon class="st1" points="84.2,537.4 82.8,544.4 82.8,544.4 82.6,537.4 79.1,537.4 76.7,548.9 79.6,548.9 81.1,541.8 
					81.1,541.8 81.4,548.9 84.9,548.8 87.3,537.4 				"/>
				<path class="st1" d="M92.4,540.2c0.1-0.5,0-0.9-0.6-0.9c-0.5,0-0.9,0.4-0.9,0.9c-0.5,2.3,4.6,1.1,3.7,5.2c-0.6,2.7-2,3.7-5,3.8
					c-2.5,0-3.6-0.8-3.1-3.3l0.1-0.3h3.1l-0.1,0.5c-0.1,0.6,0,1,0.6,1s0.9-0.5,1-1c0.2-0.7-0.1-0.9-0.5-1.1s-0.9-0.5-1.4-0.8
					c-1.6-0.8-2-1.5-1.7-3.2c0.2-1.2,0.8-2.3,1.8-3c0.8-0.5,1.8-0.7,2.8-0.7c3.2,0,3.5,1.6,3.1,3.5h-3L92.4,540.2z"/>
				<path class="st1" d="M97.2,537.3h4.6c1.1-0.2,2.2,0.4,2.6,1.5c0.3,0.9,0.3,1.5-0.3,4.2c-0.5,2.5-1.3,5.7-4.6,5.8h-4.7
					L97.2,537.3z M98.5,546.5h0.7c0.8,0,1.1-0.9,1.3-1.8l0.7-3.3c0.2-1.2,0.2-1.8-0.8-1.7h-0.5L98.5,546.5z"/>
				<polygon class="st1" points="106.2,537.3 103.8,548.7 107.1,548.7 109.4,537.2 				"/>
				<polygon class="st1" points="110.5,537.2 108.2,548.7 115.2,548.7 115.7,546.1 111.9,546.1 112.3,544.1 115.8,544.1 
					116.3,541.6 112.8,541.6 113.2,539.8 116.9,539.8 117.4,537.2 				"/>
				<path class="st1" d="M122.4,540c0.1-0.5,0-0.9-0.6-0.9c-0.5,0-0.9,0.4-0.9,0.9c-0.5,2.3,4.6,1.1,3.7,5.2c-0.6,2.7-2,3.7-5,3.8
					c-2.5,0-3.6-0.8-3.1-3.3l0.1-0.3h3.1l-0.1,0.5c-0.1,0.6,0,1,0.6,1s0.9-0.5,1-1c0.2-0.7-0.1-0.9-0.4-1.1s-0.9-0.5-1.4-0.7
					c-1.6-0.9-2-1.5-1.7-3.2c0.1-1.2,0.8-2.3,1.8-3c0.8-0.5,1.8-0.8,2.8-0.7c3.2,0,3.5,1.6,3.1,3.5h-3L122.4,540z"/>
				<polygon class="st1" points="127.2,537.2 134.1,537.1 133.5,539.7 129.9,539.7 129.5,541.5 132.9,541.5 132.4,544 129,544 
					128.6,546 132.4,546 131.9,548.6 124.8,548.6 				"/>
				<polygon class="st1" points="135.2,537.1 138.4,537.1 136.6,546 140.1,546 139.5,548.5 132.8,548.6 				"/>
				<path class="st1" d="M143.1,545.7c0.7,0,1.2,0.5,1.3,1.2c0,0.1,0,0.3,0,0.4c-0.2,0.9-1,1.5-1.9,1.5c-0.7,0-1.2-0.5-1.3-1.1
					c0-0.1,0-0.3,0-0.4C141.5,546.4,142.2,545.8,143.1,545.7 M143,546.2c-0.6,0-1.2,0.5-1.3,1.1c-0.1,0.7,0.2,1.1,0.8,1.1
					c0.6,0,1.2-0.5,1.3-1.1c0.2-0.4,0-0.9-0.4-1C143.3,546.2,143.2,546.2,143,546.2 M142.6,547.4L142.6,547.4l-0.1,0.6h-0.4l0.3-1.6
					h0.6c0.4,0,0.6,0.1,0.6,0.5c0,0.2-0.2,0.4-0.5,0.5l0.2,0.6h-0.4L142.6,547.4z M142.9,547.1c0.1,0,0.2-0.1,0.2-0.2s0-0.2-0.2-0.2
					h-0.3l-0.1,0.3L142.9,547.1z"/>
				<polygon class="st1" points="139.4,543.2 139.9,543.2 139.6,544 140.4,544 140.3,544.3 138.9,544.3 				"/>
				<polygon class="st1" points="141.1,543.5 140.6,543.5 140.7,543.2 142.3,543.2 142.2,543.5 141.7,543.5 141.4,544.3 
					140.8,544.3 				"/>
				<path class="st1" d="M142.6,543.2h0.9c0.3,0,0.8,0.1,0.7,0.5s-0.4,0.6-1.1,0.6h-0.9L142.6,543.2z M142.9,544h0.3
					c0.4,0,0.5-0.2,0.5-0.3s-0.1-0.2-0.3-0.2h-0.2L142.9,544z"/>
				<path class="st1" d="M43.2,536.7c-3.3,0-5.9,2.7-5.9,5.9c0,0,0,0,0,0.1c0,1.1,0.4,2.3,1,3.2l4.2-4.2h-2.7v-2.1l6.5,0l0.1,6.3
					h-2.2v-2.5l-4.1,4.2c2.7,1.8,6.4,1,8.2-1.7c0.6-1,1-2.1,1-3.3C49.1,539.3,46.5,536.7,43.2,536.7
					C43.2,536.7,43.2,536.7,43.2,536.7"/>
				<path class="st1" d="M30.4,536.8c-3.3,0-5.9,2.7-5.9,6c0,1.1,0.3,2.2,1,3.2l4.2-4.2h-2.7v-2.1l6.5-0.1l0.1,6.3h-2.2v-2.5
					l-4.1,4.2c2.7,1.8,6.4,1,8.2-1.7s1-6.4-1.7-8.2C32.7,537.1,31.5,536.7,30.4,536.8"/>
			</g>
		</g>
		<polygon class="st1" points="51.4,551.8 49.1,563 136.5,563 138.8,551.8 		"/>
		<g>
			<defs>
				<rect id="SVGID_00000139292838688455985000000001019777375038561687_" width="300" height="600"/>
			</defs>
			<clipPath id="SVGID_00000054949623371614255880000013453426863266197139_">
				<use xlink:href="#SVGID_00000139292838688455985000000001019777375038561687_"  style="overflow:visible;"/>
			</clipPath>
			<g style="clip-path:url(#SVGID_00000054949623371614255880000013453426863266197139_);">
				<path class="st5" d="M125.5,559.8l0.2-1.2h-1.2l-0.2,1.2H125.5z M121.6,559.8l0.3-1.3l0.4-0.5l0.3,1.8h1.3l-0.6-2.9l1.6-2.3
					h-1.2l-1.3,2.1l0,0l0.4-2.1h-1.2l-1.1,5.2H121.6z M120.6,556.5l0.1-0.4c0.2-1.1-0.3-1.5-1.3-1.5c-1-0.1-1.9,0.6-2,1.6
					c0,0,0,0,0,0l-0.4,2.1c-0.2,1.1,0.1,1.7,1.2,1.7c1,0.1,1.9-0.5,2.1-1.5l0.1-0.6h-1.2l-0.1,0.5c-0.1,0.3-0.2,0.8-0.6,0.8
					s-0.4-0.2-0.3-0.5l0.6-2.6c0.1-0.3,0.2-0.5,0.6-0.5c0.2,0,0.3,0.2,0.2,0.7l-0.1,0.3H120.6z M115.3,557.9h-0.7l0.8-2.3l0,0
					L115.3,557.9z M113.9,559.8l0.4-1h1v1h1.2v-5.2H115l-2.2,5.2H113.9z M111.1,559.8c0.9,0.1,1.8-0.6,1.9-1.5
					c0.1-0.6,0.1-0.9-0.4-1.2l0,0c0.4-0.2,0.7-0.6,0.8-1.1c0.2-1-0.4-1.3-1.4-1.3h-1.6l-1.1,5.2L111.1,559.8z M111.5,555.6
					c0.4,0,0.8,0,0.7,0.5s-0.4,0.6-0.9,0.6L111.5,555.6z M111,557.6c0.5,0,0.9,0,0.7,0.6s-0.4,0.7-1,0.7L111,557.6z M105.7,557.7
					h0.4c0.3,0,0.3,0.2,0.3,0.5s-0.2,0.8-0.2,1.2c0,0.1,0,0.2,0,0.3h1.3v-0.1c0-0.1-0.1-0.1-0.1-0.2c0-0.3,0.2-1.2,0.2-1.7
					c0.1-0.3-0.1-0.6-0.4-0.7c0,0,0,0,0,0l0,0c0.5-0.2,0.8-0.7,0.9-1.2c0.2-1-0.2-1.4-1.2-1.4h-1.8l-1.1,5.2h1.2L105.7,557.7z
					 M106.2,555.5c0.6,0,0.8,0,0.7,0.6c-0.1,0.3-0.2,0.7-0.6,0.7h-0.4L106.2,555.5z M100.5,558.3c-0.2,1.1,0.3,1.6,1.3,1.6
					c1,0.1,1.9-0.6,2-1.6l0.8-3.8h-1.2l-0.8,3.9c0,0.3-0.3,0.5-0.5,0.5c-0.3,0-0.4-0.2-0.3-0.5l0.8-3.9h-1.2L100.5,558.3z
					 M100.5,556c0.2-1-0.2-1.5-1.3-1.5c-1-0.1-1.8,0.6-2,1.5l-0.4,2.1c-0.2,1.2,0,1.8,1.3,1.8s1.8-0.6,2-1.8L100.5,556z M98.8,558.2
					c-0.1,0.3-0.2,0.8-0.6,0.8s-0.3-0.5-0.3-0.8l0.4-2.1c0.1-0.3,0.2-0.7,0.6-0.7s0.3,0.4,0.3,0.7L98.8,558.2z M95.1,554.6h-1.2
					l0.6,3l-0.5,2.3h1.2l0.5-2.2l1.9-3h-1.2l-1,1.7l0,0L95.1,554.6z M88.9,555.6h1l-0.9,4.3h1.2l0.9-4.2h1l0.2-1h-3.2L88.9,555.6z
					 M88.8,556c0.2-1-0.2-1.5-1.3-1.5c-1-0.1-1.8,0.6-2,1.5l-0.4,2.2c-0.2,1.2,0,1.8,1.3,1.8s1.8-0.6,2-1.8L88.8,556z M87.1,558.2
					c-0.1,0.3-0.2,0.8-0.6,0.8s-0.3-0.5-0.3-0.8l0.4-2.1c0.1-0.3,0.2-0.7,0.6-0.7s0.3,0.4,0.3,0.7L87.1,558.2z M84.2,559.7l0.6-2.8
					h-1.6l-0.2,0.9h0.4l-0.1,0.4c-0.1,0.3-0.2,0.7-0.6,0.7s-0.4-0.2-0.3-0.5l0.6-2.6c0.1-0.3,0.2-0.5,0.6-0.5s0.3,0.2,0.2,0.7
					l-0.1,0.3h1.2L85,556c0.2-1.1-0.3-1.5-1.3-1.5c-1-0.1-1.9,0.7-2,1.7l-0.4,2.1c-0.2,0.9,0,1.7,1,1.7c0.5,0,0.9-0.2,1.2-0.6l0,0
					v0.5L84.2,559.7z M78.9,559.7l0.2-1h-1.6l0.2-1.1h1.5l0.2-1H78l0.2-1h1.6l0.2-1h-2.8l-1.1,5.2L78.9,559.7z M74.8,559.7l2.2-5.1
					h-1.2l-1.4,3.7l0,0l0.2-3.7h-1.2v5.2L74.8,559.7z M71.4,556.7c0.6,0,1.2-0.4,1.3-1.1l0.2-1.1h-1.1l-0.2,1.1h0.6
					c0,0.4-0.3,0.7-0.7,0.7L71.4,556.7z M70.4,559.7l0.2-1H69l0.2-1.1h1.5l0.2-1h-1.5l0.2-1h1.6l0.2-1h-2.8l-1.1,5.2L70.4,559.7z
					 M66.4,554.5h-1.2l-1.2,3.7l0,0l0.4-3.7h-1.2l-0.2,5.2h1.4l1.2-3.7l0,0l-0.4,3.7h1.4l2-5.2h-1.2l-1.2,3.7l0,0L66.4,554.5z"/>
			</g>
		</g>
	</g>
</g>
</svg>
