<?xml version="1.0" encoding="utf-8"?>
<!-- Generator: Adobe Illustrator 23.0.3, SVG Export Plug-In . SVG Version: 6.00 Build 0)  -->
<svg version="1.1" id="Layer_1" xmlns="http://www.w3.org/2000/svg" xmlns:xlink="http://www.w3.org/1999/xlink" x="0px" y="0px"
	 viewBox="0 0 300 600" style="enable-background:new 0 0 300 600;" xml:space="preserve">
<g>
	<path d="M22.9,573.7c0.9,0,1.6,0.3,2.1,0.7l-0.4,0.7c-0.4-0.3-1.1-0.5-1.7-0.5c-1.6,0-2.5,1.1-2.5,2.5c0,1.3,0.9,2.5,2.5,2.5
		c0.6,0,1.3-0.2,1.7-0.5l0.4,0.7c-0.5,0.4-1.2,0.7-2.1,0.7c-2.2,0-3.4-1.5-3.4-3.3C19.5,575.3,20.8,573.7,22.9,573.7z"/>
	<path d="M26.6,578.9l-0.5,1.3h-0.9l2.4-6.3h1.1l2.4,6.3h-0.9l-0.5-1.3H26.6z M29.4,578.1l-1.3-3.4l-1.3,3.4H29.4z"/>
	<path d="M31.8,580.2v-6.3h2.6c1.2,0,1.9,0.9,1.9,2c0,0.9-0.5,1.7-1.5,1.9c0.1,0.7,0.5,1.8,1.2,1.8c0.3,0,0.6-0.1,0.7-0.3l0.3,0.6
		c-0.3,0.3-0.7,0.4-1.1,0.4c-1.5,0-1.9-1.7-2-2.5h-1.3v2.4H31.8z M34.3,577.1c0.7,0,1.2-0.5,1.2-1.2c0-0.7-0.4-1.2-1.2-1.2h-1.5v2.5
		H34.3z"/>
	<path d="M41.8,580.2h-4v-6.3h4v0.7h-3.1v2.1h2.7v0.7h-2.7v2h3.1V580.2z"/>
	<path d="M45.2,578.5c0.1,0.5,0.7,1,1.5,1c0.8,0,1.3-0.4,1.3-1c0-0.5-0.4-0.8-0.9-1l-1-0.3c-1.3-0.4-1.5-1.1-1.5-1.7
		c0-1.1,1-1.7,2-1.7c1.1,0,1.9,0.6,2.1,1.5l-0.8,0.2c-0.2-0.6-0.6-0.9-1.3-0.9c-0.6,0-1.1,0.3-1.1,0.9c0,0.3,0.1,0.6,0.8,0.9l1,0.4
		c1,0.3,1.5,1,1.5,1.7c0,1.1-0.9,1.8-2.2,1.8c-1.3,0-2.1-0.7-2.3-1.6L45.2,578.5z"/>
	<path d="M50.5,578.2c0,1,0.4,1.3,0.9,1.3c0.5,0,1.5-0.3,1.5-1.7v-2.1h0.9v4.5h-0.9v-0.9c-0.2,0.6-0.8,1-1.5,1c-1,0-1.7-0.6-1.7-2.1
		v-2.6h0.9V578.2z"/>
	<path d="M57.4,580.3c-0.6,0-1.2-0.2-1.6-0.8v2.8h-0.9v-6.6h0.9v0.7c0.4-0.6,1-0.8,1.6-0.8c1.4,0,2.2,1.1,2.2,2.4
		C59.7,579.2,58.8,580.3,57.4,580.3z M57.3,579.5c0.9,0,1.5-0.7,1.5-1.6c0-0.9-0.5-1.6-1.5-1.6c-0.9,0-1.5,0.7-1.5,1.6
		C55.8,578.8,56.4,579.5,57.3,579.5z"/>
	<path d="M64.7,579.4c-0.6,0.7-1.3,0.8-2,0.8c-1.6,0-2.6-1.1-2.6-2.3c0-1.3,1-2.4,2.4-2.4c1.2,0,2.3,0.8,2.3,2.4H61
		c0,0.9,0.7,1.5,1.7,1.5c0.5,0,1-0.2,1.5-0.6L64.7,579.4z M61.1,577.3H64c-0.2-0.8-0.9-1-1.4-1C62.1,576.3,61.4,576.5,61.1,577.3z"
		/>
	<path d="M66.5,576.7c0.2-0.7,0.7-1.1,1.2-1.1c0.2,0,0.3,0,0.4,0.1v0.9c-0.1-0.1-0.3-0.1-0.5-0.1c-0.3,0-1.2,0.1-1.2,2.1v1.7h-0.9
		v-4.5h0.9V576.7z"/>
	<path d="M70.7,580.2v-6.3h2.5c1.2,0,1.9,0.9,1.9,2s-0.7,1.9-1.9,1.9h-1.6v2.4H70.7z M73.1,577.1c0.7,0,1.2-0.5,1.2-1.2
		c0-0.7-0.4-1.2-1.2-1.2h-1.4v2.5H73.1z"/>
	<path d="M77,578.8c0,0.5,0.2,0.7,0.5,0.7c0.3,0,0.6-0.2,0.6-0.5c0-0.1,0-0.2-0.1-0.4c0.3,0,0.5,0,0.8,0c0.1,0.2,0.1,0.5,0.1,0.5
		c0,0.6-0.5,1.2-1.3,1.2c-0.7,0-1.4-0.4-1.4-1.5v-2.4h-0.7v-0.7h0.7l0.2-1.3H77v1.3h1.4v0.7H77V578.8z"/>
	<path d="M82.5,575.7h1l-2.8,6.6h-0.9l0.8-2.2l-1.9-4.4h1l1.4,3.4L82.5,575.7z"/>
	<path d="M89.9,580.2h-3.8v-6.3H87v5.6h2.9V580.2z"/>
	<path d="M91.3,578.8c0,0.5,0.2,0.7,0.5,0.7c0.3,0,0.6-0.2,0.6-0.5c0-0.1,0-0.2-0.1-0.4c0.3,0,0.5,0,0.8,0c0.1,0.2,0.1,0.5,0.1,0.5
		c0,0.6-0.5,1.2-1.3,1.2c-0.7,0-1.4-0.4-1.4-1.5v-2.4h-0.7v-0.7h0.7l0.2-1.3h0.7v1.3h1.4v0.7h-1.4V578.8z"/>
	<path d="M95.7,575.6c0.6,0,1.2,0.2,1.6,0.8v-2.7h0.9v6.6h-0.9v-0.7c-0.4,0.6-1,0.8-1.6,0.8c-1.4,0-2.2-1.1-2.2-2.4
		C93.4,576.6,94.3,575.6,95.7,575.6z M95.8,576.3c-0.9,0-1.5,0.7-1.5,1.6c0,0.9,0.5,1.6,1.5,1.6c0.9,0,1.5-0.7,1.6-1.6
		C97.3,577,96.7,576.3,95.8,576.3z"/>
	<path d="M102,577.6c0,1.9,0.9,3.3,1.4,4l-0.6,0.3c-0.5-0.5-1.7-2.1-1.7-4.3c0-2.2,1.2-3.8,1.7-4.3l0.6,0.3
		C103,574.3,102,575.7,102,577.6z"/>
	<path d="M108.6,573.8v0.7h-2.1v5.6h-0.9v-5.6h-2.1v-0.7H108.6z"/>
	<path d="M109.2,576.7c0.2-0.7,0.7-1.1,1.2-1.1c0.2,0,0.3,0,0.4,0.1v0.9c-0.1-0.1-0.3-0.1-0.5-0.1c-0.3,0-1.2,0.1-1.2,2.1v1.7h-0.9
		v-4.5h0.9V576.7z"/>
	<path d="M112.2,578.2c0,1,0.4,1.3,0.9,1.3c0.5,0,1.5-0.3,1.5-1.7v-2.1h0.9v4.5h-0.9v-0.9c-0.2,0.6-0.8,1-1.5,1
		c-1,0-1.7-0.6-1.7-2.1v-2.6h0.9V578.2z"/>
	<path d="M118.6,576.8c-0.1-0.4-0.4-0.5-0.7-0.5c-0.4,0-0.7,0.3-0.7,0.6c0,0.3,0.3,0.5,0.5,0.5l0.7,0.2c0.9,0.3,1.1,0.8,1.1,1.3
		c0,0.9-0.8,1.4-1.6,1.4c-0.8,0-1.5-0.4-1.7-1.2l0.8-0.2c0.1,0.4,0.5,0.6,1,0.6c0.5,0,0.8-0.3,0.8-0.6c0-0.3-0.3-0.5-0.6-0.6
		l-0.6-0.2c-0.7-0.2-1.1-0.6-1.1-1.2c0-0.8,0.6-1.4,1.5-1.4c0.6,0,1.3,0.3,1.5,1.1L118.6,576.8z"/>
	<path d="M121.4,578.8c0,0.5,0.2,0.7,0.5,0.7c0.3,0,0.6-0.2,0.6-0.5c0-0.1,0-0.2-0.1-0.4c0.3,0,0.5,0,0.8,0c0.1,0.2,0.1,0.5,0.1,0.5
		c0,0.6-0.5,1.2-1.3,1.2c-0.7,0-1.4-0.4-1.4-1.5v-2.4h-0.7v-0.7h0.7l0.2-1.3h0.7v1.3h1.4v0.7h-1.4V578.8z"/>
	<path d="M128.1,579.4c-0.6,0.7-1.3,0.8-2,0.8c-1.6,0-2.6-1.1-2.6-2.3c0-1.3,1-2.4,2.4-2.4c1.2,0,2.3,0.8,2.3,2.4h-3.9
		c0,0.9,0.7,1.5,1.7,1.5c0.5,0,1-0.2,1.5-0.6L128.1,579.4z M124.5,577.3h2.9c-0.2-0.8-0.9-1-1.4-1
		C125.4,576.3,124.8,576.5,124.5,577.3z"/>
	<path d="M133.2,579.4c-0.6,0.7-1.3,0.8-2,0.8c-1.6,0-2.6-1.1-2.6-2.3c0-1.3,1-2.4,2.4-2.4c1.2,0,2.3,0.8,2.3,2.4h-3.9
		c0,0.9,0.7,1.5,1.7,1.5c0.5,0,1-0.2,1.5-0.6L133.2,579.4z M129.6,577.3h2.9c-0.2-0.8-0.9-1-1.4-1
		C130.6,576.3,129.9,576.5,129.6,577.3z"/>
	<path d="M133.9,573.3c0.5,0.5,1.7,2.1,1.7,4.3c0,2.3-1.2,3.8-1.7,4.3l-0.6-0.3c0.4-0.6,1.4-2,1.4-4c0-2-0.9-3.4-1.4-4L133.9,573.3z
		"/>
	<path d="M139.1,578.9l-0.5,1.3h-0.9l2.4-6.3h1.1l2.4,6.3h-0.9l-0.5-1.3H139.1z M141.9,578.1l-1.3-3.4l-1.3,3.4H141.9z"/>
	<path d="M147.5,576.9c1,0.1,1.5,0.8,1.5,1.6c0,1-0.9,1.7-2.1,1.7h-2.5v-6.3h2.3c1.2,0,2.1,0.6,2.1,1.6
		C148.7,576.1,148.3,576.7,147.5,576.9z M146.3,576.6c1.1,0,1.5-0.6,1.5-1.1c0-0.6-0.5-1-1.2-1h-1.4v2.1H146.3z M145.3,577.4v2.1
		h1.6c0.7,0,1.2-0.4,1.2-1c0-0.6-0.5-1.1-1.6-1.1H145.3z"/>
	<path d="M151,575.5v4.7h-0.9v-6.3h0.7l3.5,4.7v-4.7h0.9v6.3h-0.7L151,575.5z"/>
	<path d="M160.5,578c-1.2,0-2.2-0.8-2.2-2.1c0-1.2,0.9-2.1,2.3-2.1c1.6,0,2.5,1.3,2.5,3.1c0,1.9-1,3.4-2.7,3.4
		c-0.8,0-1.4-0.3-1.8-0.7l0.6-0.5c0.2,0.3,0.7,0.4,1.2,0.4c1.1,0,1.8-1.1,1.8-2.5C161.9,577.7,161.1,578,160.5,578z M160.6,574.5
		c-0.8,0-1.5,0.5-1.5,1.3s0.7,1.3,1.5,1.3c0.8,0,1.5-0.5,1.5-1.3S161.4,574.5,160.6,574.5z"/>
	<path d="M163.4,574.8l2.1-1h0.4v6.3h-0.9v-5.3l-1.4,0.6L163.4,574.8z"/>
	<path d="M171.7,580.3c-1.7,0-2.7-1.5-2.7-3.3c0-1.8,1-3.3,2.7-3.3c1.7,0,2.7,1.5,2.7,3.3C174.4,578.8,173.4,580.3,171.7,580.3z
		 M171.7,574.5c-1.2,0-1.8,1.1-1.8,2.5c0,1.4,0.7,2.5,1.8,2.5s1.9-1.1,1.9-2.5C173.6,575.6,172.8,574.5,171.7,574.5z"/>
	<path d="M177.8,580.3c-1.7,0-2.7-1.5-2.7-3.3c0-1.8,1-3.3,2.7-3.3c1.7,0,2.7,1.5,2.7,3.3C180.6,578.8,179.5,580.3,177.8,580.3z
		 M177.8,574.5c-1.2,0-1.8,1.1-1.8,2.5c0,1.4,0.7,2.5,1.8,2.5c1.2,0,1.9-1.1,1.9-2.5C179.7,575.6,179,574.5,177.8,574.5z"/>
	<path d="M183.9,576.1c1.2,0,2.2,0.8,2.2,2.1c0,1.2-0.9,2.1-2.3,2.1c-1.6,0-2.6-1.3-2.6-3.1c0-1.9,1-3.4,2.7-3.4
		c0.8,0,1.4,0.3,1.8,0.7l-0.6,0.5c-0.2-0.3-0.7-0.4-1.2-0.4c-1,0-1.8,0.9-1.8,2.4C182.6,576.3,183.3,576.1,183.9,576.1z
		 M183.8,579.5c0.8,0,1.5-0.5,1.5-1.3c0-0.8-0.7-1.3-1.5-1.3c-0.8,0-1.5,0.5-1.5,1.3C182.3,579,183,579.5,183.8,579.5z"/>
	<path d="M191.5,576.1c1.2,0,2.2,0.8,2.2,2.1c0,1.2-0.9,2.1-2.3,2.1c-1.6,0-2.6-1.3-2.6-3.1c0-1.9,1-3.4,2.7-3.4
		c0.8,0,1.4,0.3,1.8,0.7l-0.6,0.5c-0.2-0.3-0.7-0.4-1.2-0.4c-1,0-1.8,0.9-1.8,2.4C190.2,576.3,190.9,576.1,191.5,576.1z
		 M191.4,579.5c0.8,0,1.5-0.5,1.5-1.3c0-0.8-0.7-1.3-1.5-1.3c-0.8,0-1.5,0.5-1.5,1.3C189.8,579,190.6,579.5,191.4,579.5z"/>
	<path d="M194.1,573.8h4.6v0.6l-3.2,5.7h-1l3.2-5.6h-3.6V573.8z"/>
	<path d="M201.7,580.3c-1.7,0-2.7-1.5-2.7-3.3c0-1.8,1-3.3,2.7-3.3c1.7,0,2.7,1.5,2.7,3.3C204.4,578.8,203.4,580.3,201.7,580.3z
		 M201.7,574.5c-1.2,0-1.8,1.1-1.8,2.5c0,1.4,0.7,2.5,1.8,2.5c1.2,0,1.9-1.1,1.9-2.5C203.5,575.6,202.8,574.5,201.7,574.5z"/>
	<path d="M209.9,580.3c-1.7,0-2.7-1.5-2.7-3.3c0-1.8,1-3.3,2.7-3.3c1.7,0,2.7,1.5,2.7,3.3C212.7,578.8,211.6,580.3,209.9,580.3z
		 M209.9,574.5c-1.2,0-1.8,1.1-1.8,2.5c0,1.4,0.7,2.5,1.8,2.5c1.2,0,1.9-1.1,1.9-2.5C211.8,575.6,211.1,574.5,209.9,574.5z"/>
	<path d="M216,576.1c1.2,0,2.2,0.8,2.2,2.1c0,1.2-0.9,2.1-2.3,2.1c-1.6,0-2.6-1.3-2.6-3.1c0-1.9,1-3.4,2.7-3.4
		c0.8,0,1.4,0.3,1.8,0.7l-0.6,0.5c-0.2-0.3-0.7-0.4-1.2-0.4c-1,0-1.8,0.9-1.8,2.4C214.7,576.3,215.4,576.1,216,576.1z M215.9,579.5
		c0.8,0,1.5-0.5,1.5-1.3c0-0.8-0.7-1.3-1.5-1.3c-0.8,0-1.5,0.5-1.5,1.3C214.3,579,215.1,579.5,215.9,579.5z"/>
	<path d="M221.5,580.3c-1.7,0-2.7-1.5-2.7-3.3c0-1.8,1-3.3,2.7-3.3c1.7,0,2.7,1.5,2.7,3.3C224.2,578.8,223.2,580.3,221.5,580.3z
		 M221.5,574.5c-1.2,0-1.8,1.1-1.8,2.5c0,1.4,0.7,2.5,1.8,2.5c1.2,0,1.9-1.1,1.9-2.5C223.4,575.6,222.7,574.5,221.5,574.5z"/>
	<path d="M227.8,578.9l-0.5,1.3h-0.9l2.4-6.3h1.1l2.4,6.3h-0.9l-0.5-1.3H227.8z M230.7,578.1l-1.3-3.4l-1.3,3.4H230.7z"/>
	<path d="M233.1,580.2v-6.3h4v0.7H234v2.1h2.7v0.7H234v2.7H233.1z"/>
	<path d="M238.2,578.5c0.1,0.5,0.7,1,1.5,1c0.8,0,1.3-0.4,1.3-1c0-0.5-0.4-0.8-0.9-1l-1-0.3c-1.3-0.4-1.5-1.1-1.5-1.7
		c0-1.1,1-1.7,2-1.7c1.1,0,1.9,0.6,2.1,1.5l-0.8,0.2c-0.2-0.6-0.6-0.9-1.3-0.9c-0.6,0-1.1,0.3-1.1,0.9c0,0.3,0.1,0.6,0.8,0.9l1,0.4
		c1,0.3,1.5,1,1.5,1.7c0,1.1-0.9,1.8-2.2,1.8c-1.3,0-2.1-0.7-2.3-1.6L238.2,578.5z"/>
	<path d="M246.8,580.2h-3.8v-6.3h0.9v5.6h2.9V580.2z"/>
	<path d="M250.3,579.5c0.3,0,1.3,0,1.4,0h1.8v0.7h-4.5l-0.1-0.6l2.6-2.4c0.5-0.4,0.9-0.9,0.9-1.5c0-0.8-0.5-1.2-1.3-1.2
		c-1.1,0-1.3,0.6-1.3,1.1h-0.9c0-0.7,0.5-1.8,2.2-1.8c1.4,0,2.2,0.8,2.2,2c0,1-0.6,1.6-1.2,2.1L250.3,579.5L250.3,579.5z"/>
	<path d="M257.9,578.1c0-0.7-0.6-1.3-1.4-1.3c-0.2,0-0.6,0-0.9,0.3l-0.4-0.5l2.1-2h-2.9v-0.7h4.3v0.6l-1.9,1.8
		c1.1,0,2.1,0.7,2.1,1.9c0,1.2-0.9,2.2-2.5,2.2c-1.1,0-1.8-0.4-2.2-0.7l0.5-0.6c0.6,0.4,1,0.5,1.7,0.5
		C257.4,579.5,257.9,578.7,257.9,578.1z"/>
	<path d="M259.9,579c0.3,0.3,1.1,0.5,1.6,0.5c1.1,0,1.6-0.7,1.6-1.4c0-0.6-0.5-1.3-1.5-1.3c-0.5,0-1.1,0.2-1.5,0.5l-0.6-0.3l0.2-3.1
		h3.8v0.7h-3l-0.2,1.9c0.3-0.3,0.9-0.5,1.4-0.5c1.4,0,2.2,1,2.2,2.1c0,1.3-0.9,2.2-2.5,2.2c-0.9,0-1.7-0.4-2.1-0.7L259.9,579z"/>
	<path d="M266,579.5c0.3,0,1.3,0,1.4,0h1.8v0.7h-4.5l-0.1-0.6l2.6-2.4c0.5-0.4,0.9-0.9,0.9-1.5c0-0.8-0.5-1.2-1.3-1.2
		c-1.1,0-1.3,0.6-1.3,1.1h-0.9c0-0.7,0.5-1.8,2.2-1.8c1.4,0,2.2,0.8,2.2,2c0,1-0.6,1.6-1.2,2.1L266,579.5L266,579.5z"/>
	<path d="M271.2,579.5c0.3,0,1.3,0,1.4,0h1.8v0.7H270l-0.1-0.6l2.6-2.4c0.5-0.4,0.9-0.9,0.9-1.5c0-0.8-0.5-1.2-1.3-1.2
		c-1.1,0-1.3,0.6-1.3,1.1h-0.9c0-0.7,0.5-1.8,2.2-1.8c1.4,0,2.2,0.8,2.2,2c0,1-0.6,1.6-1.2,2.1L271.2,579.5L271.2,579.5z"/>
	<path d="M277.8,576.1c1.2,0,2.2,0.8,2.2,2.1c0,1.2-0.9,2.1-2.3,2.1c-1.6,0-2.6-1.3-2.6-3.1c0-1.9,1-3.4,2.7-3.4
		c0.8,0,1.4,0.3,1.8,0.7L279,575c-0.2-0.3-0.7-0.4-1.2-0.4c-1,0-1.8,0.9-1.8,2.4C276.5,576.3,277.1,576.1,277.8,576.1z M277.6,579.5
		c0.8,0,1.5-0.5,1.5-1.3c0-0.8-0.7-1.3-1.5-1.3c-0.8,0-1.5,0.5-1.5,1.3C276.1,579,276.8,579.5,277.6,579.5z"/>
</g>
</svg>
