<?xml version="1.0" encoding="utf-8"?>
<!-- Generator: Adobe Illustrator 23.0.3, SVG Export Plug-In . SVG Version: 6.00 Build 0)  -->
<svg version="1.1" id="Layer_1" xmlns="http://www.w3.org/2000/svg" xmlns:xlink="http://www.w3.org/1999/xlink" x="0px" y="0px"
	 viewBox="0 0 300 600" style="enable-background:new 0 0 300 600;" xml:space="preserve">
<style type="text/css">
	.st0{fill:#060866;}
	.st1{fill:#FFFFFF;}
</style>
<g>
	<polygon class="st0" points="178,251 178,219 61,219 61,251 11,251 11,287 196,287 196,251 	"/>
	<g>
		<path class="st1" d="M69,232.3h4.5v2.1c1.3-1.8,2.9-2.4,4.8-2.4c4.3,0,5.5,3.4,5.5,7.3v8.4h-4.5v-8.3c0-2.1-0.8-3.7-2.9-3.7
			s-2.9,1.6-2.9,3.8v8.2H69V232.3z"/>
		<path class="st1" d="M94,232c4.5,0,8.5,3.2,8.5,8c0,4.8-4,8-8.5,8c-4.5,0-8.5-3.2-8.5-8C85.5,235.2,89.5,232,94,232z M94,244.2
			c2.2,0,4.1-1.8,4.1-4.2c0-2.4-1.9-4.2-4.1-4.2c-2.2,0-4.1,1.8-4.1,4.2C89.9,242.4,91.8,244.2,94,244.2z"/>
		<path class="st1" d="M109.7,232.3h4.3v3.5h-4.3v7.2c0,0.7,0.3,1.3,1.1,1.3s1.2-0.7,1.2-1.4c0-0.4-0.1-1.1-0.2-1.3h3.5
			c0.3,0.6,0.4,1.3,0.4,1.8c0,2.3-1.5,4.6-5.1,4.6c-2.7,0-5.3-1-5.3-5.4v-6.8h-2.3v-3.5h2.6l0.7-3.8h3.4V232.3z"/>
		<path class="st1" d="M128.9,232.3h4.3v3.5h-4.3v7.2c0,0.7,0.3,1.3,1.1,1.3s1.2-0.7,1.2-1.4c0-0.4-0.1-1.1-0.2-1.3h3.5
			c0.3,0.6,0.4,1.3,0.4,1.8c0,2.3-1.5,4.6-5.1,4.6c-2.7,0-5.3-1-5.3-5.4v-6.8h-2.3v-3.5h2.6l0.7-3.8h3.4V232.3z"/>
		<path class="st1" d="M136.3,226h4.5v8.4c1.3-1.8,2.9-2.4,4.8-2.4c4.3,0,5.5,3.4,5.5,7.3v8.4h-4.5v-8.3c0-2.1-0.8-3.7-2.9-3.7
			c-2.1,0-2.9,1.6-2.9,3.8v8.2h-4.5V226z"/>
		<path class="st1" d="M168.8,245c-2.2,2.4-5.1,3-7.2,3c-5.7,0-8.8-3.6-8.8-7.9c0-4.5,3.5-8.1,8.5-8.1c4.3,0,8.3,2.9,8.3,9.1h-12.4
			c0.1,1.9,1.9,3.3,4.7,3.3c1.6,0,3.2-0.8,4.3-1.8L168.8,245z M157.3,238.3h7.7c-0.3-2-2.3-2.7-3.8-2.7
			C159.8,235.6,157.9,236.3,157.3,238.3z"/>
	</g>
	<g>
		<path class="st1" d="M29.4,260.8h3.1l2.8,8.8l2.7-9.3h4.9l-1.2,3.5l-4.3,11.9h-3.8l-2.6-8.7l-2.6,8.7h-3.8l-4.3-11.9l-1.2-3.5h4.9
			l2.7,9.3L29.4,260.8z"/>
		<path class="st1" d="M48.8,263.7c0.5-2.8,2.9-3.7,4.2-3.7c0.5,0,0.7,0,1.1,0.1v4.4c-0.6-0.2-1.4-0.2-1.9-0.2c-1.7,0-3.4,1-3.4,3
			v8.4h-4.5v-15.4h4.3V263.7z"/>
		<path class="st1" d="M62.9,260c4.5,0,8.5,3.2,8.5,8c0,4.8-4,8-8.5,8c-4.5,0-8.5-3.2-8.5-8C54.4,263.2,58.4,260,62.9,260z
			 M62.9,272.2c2.2,0,4.1-1.8,4.1-4.2c0-2.4-1.9-4.2-4.1-4.2c-2.2,0-4.1,1.8-4.1,4.2C58.7,270.4,60.7,272.2,62.9,272.2z"/>
		<path class="st1" d="M73.3,260.3h4.5v2.1c1.3-1.8,2.9-2.4,4.8-2.4c4.3,0,5.5,3.5,5.5,7.3v8.4h-4.5v-8.3c0-2.1-0.8-3.8-2.8-3.8
			c-2.1,0-2.9,1.6-2.9,3.8v8.3h-4.5V260.3z"/>
		<path class="st1" d="M106.7,274.6c0,6.1-4,8.4-8.3,8.4c-3.4,0-5.7-0.9-7.3-2.1l1.8-3.5c0.9,0.8,2.9,1.7,4.6,1.7
			c2.3,0,4.8-0.7,4.8-4v-1.7c-1.1,1.6-2.6,2.6-4.8,2.6c-4.7,0-7.5-3.6-7.5-8.1c0-4.3,2.6-8,7.4-8c2.1,0,3.9,1,4.9,2.4v-2.1h4.5
			V274.6z M98.3,272.4c2.2,0,4-1.4,4-4.2c0-2.8-1.7-4.6-4.1-4.6c-2.5,0-3.8,2-3.8,4.4C94.4,270.4,95.9,272.4,98.3,272.4z"/>
		<path class="st1" d="M123.6,260c4.5,0,8.5,3.2,8.5,8c0,4.8-4,8-8.5,8c-4.5,0-8.5-3.2-8.5-8C115.1,263.2,119.1,260,123.6,260z
			 M123.6,272.2c2.2,0,4.1-1.8,4.1-4.2c0-2.4-1.9-4.2-4.1-4.2c-2.2,0-4.1,1.8-4.1,4.2C119.5,270.4,121.4,272.2,123.6,272.2z"/>
		<path class="st1" d="M134,260.3h4.5v2.1c1.3-1.8,2.9-2.4,4.8-2.4c4.3,0,5.5,3.5,5.5,7.3v8.4h-4.5v-8.3c0-2.1-0.8-3.8-2.8-3.8
			c-2.1,0-2.9,1.6-2.9,3.8v8.3H134V260.3z"/>
		<path class="st1" d="M166.5,273c-2.2,2.4-5.1,3-7.2,3c-5.7,0-8.8-3.6-8.8-8c0-4.5,3.5-8.1,8.5-8.1c4.3,0,8.3,2.9,8.3,9.1H155
			c0.1,1.9,1.9,3.3,4.7,3.3c1.6,0,3.2-0.8,4.3-1.8L166.5,273z M155.1,266.4h7.7c-0.3-2-2.3-2.7-3.8-2.7
			C157.5,263.6,155.6,264.3,155.1,266.4z"/>
		<path class="st1" d="M171.1,270.3c0.5,1.8,2,2.3,3.2,2.3c1,0,2-0.4,2-1.2c0-0.5-0.3-0.9-1.1-1.2l-2.7-1.1
			c-3.7-1.3-3.8-3.7-3.8-4.4c0-3.1,2.7-4.7,6-4.7c1.8,0,4.1,0.5,5.5,3.2l-3.5,1.6c-0.4-1.2-1.5-1.5-2.2-1.5c-0.8,0-1.7,0.5-1.7,1.3
			c0,0.7,0.7,1,1.4,1.3l2.3,0.9c3.6,1,4,3.4,4,4.4c0,3.1-2.9,4.8-6.3,4.8c-2.3,0-5.4-0.7-6.5-3.9L171.1,270.3z"/>
		<path class="st1" d="M184.9,270.8c1.6,0,2.8,1.1,2.8,2.6c0,1.5-1.3,2.6-2.8,2.6c-1.6,0-2.8-1.1-2.8-2.6
			C182,272,183.2,270.8,184.9,270.8z"/>
	</g>
</g>
</svg>
