<svg xmlns="http://www.w3.org/2000/svg" viewBox="0 0 93.2 17.76"><defs><style>.cls-1{fill:#c1e8a0;}</style></defs><g id="Layer_2" data-name="Layer 2"><g id="Layer_1-2" data-name="Layer 1"><path class="cls-1" d="M9,15.93a4.63,4.63,0,0,1-3.69,1.83c-3,0-5.29-2.28-5.29-6.26S2.25,5.22,5.29,5.22A4.61,4.61,0,0,1,9,7.05V1h3.17v16.5H9ZM9,9.38A3.41,3.41,0,0,0,6.26,8c-1.78,0-3,1.41-3,3.49S4.48,15,6.26,15A3.4,3.4,0,0,0,9,13.6Z"/><path class="cls-1" d="M14.94,1.88A1.9,1.9,0,0,1,16.82,0a1.88,1.88,0,0,1,0,3.76A1.9,1.9,0,0,1,14.94,1.88Zm.33,3.64h3.14V17.46H15.27Z"/><path class="cls-1" d="M21.85,13.7A6.79,6.79,0,0,0,26,15.34c1.36,0,2-.47,2-1.22s-1-1.13-2.4-1.41c-2-.39-4.7-.89-4.7-3.73,0-2,1.76-3.76,4.9-3.76A7.6,7.6,0,0,1,30.6,6.85L29.34,9A5.08,5.08,0,0,0,25.8,7.62c-1.13,0-1.88.42-1.88,1.11s.94,1,2.28,1.29c2.05.39,4.8.94,4.8,3.91,0,2.17-1.86,3.83-5.17,3.83a8,8,0,0,1-5.34-1.86Z"/><path class="cls-1" d="M38.89,5.22a5.56,5.56,0,0,1,4.73,2.15L41.56,9.3A2.9,2.9,0,0,0,39,8a3.2,3.2,0,0,0-3.24,3.47A3.21,3.21,0,0,0,39,15a3,3,0,0,0,2.52-1.28l2.06,1.9a5.5,5.5,0,0,1-4.73,2.18,6.07,6.07,0,0,1-6.33-6.28A6.06,6.06,0,0,1,38.89,5.22Z"/><path class="cls-1" d="M44.91,11.48a6,6,0,0,1,6.3-6.26,6.05,6.05,0,0,1,6.33,6.26,6.06,6.06,0,0,1-6.33,6.28A6.05,6.05,0,0,1,44.91,11.48Zm9.37,0C54.28,9.62,53.17,8,51.21,8s-3,1.61-3,3.47,1.09,3.48,3,3.48S54.28,13.36,54.28,11.48Z"/><path class="cls-1" d="M58.17,5.52h3.36l3.12,8.31,3.11-8.31h3.39l-4.8,11.94H63Z"/><path class="cls-1" d="M78,5.22c3.56,0,6,2.67,6,6.58v.69H75.09a3.22,3.22,0,0,0,3.44,2.77,4.86,4.86,0,0,0,3.19-1.19l1.38,2a7.41,7.41,0,0,1-4.92,1.66,6,6,0,0,1-6.38-6.28A6.08,6.08,0,0,1,78,5.22ZM75,10.36h5.89a2.78,2.78,0,0,0-3-2.64A2.87,2.87,0,0,0,75,10.36Z"/><path class="cls-1" d="M86.25,5.52h3.14V7.15A5.08,5.08,0,0,1,93.2,5.24V8.31a3.93,3.93,0,0,0-.87-.1,4,4,0,0,0-2.94,1.36v7.89H86.25Z"/></g></g></svg>