<svg xmlns="http://www.w3.org/2000/svg" viewBox="0 0 21.6 15.51"><defs><style>.cls-1{fill:#fff;}</style></defs><g id="Layer_2" data-name="Layer 2"><g id="Layer_1-2" data-name="Layer 1"><path class="cls-1" d="M2,12.24V6H0V3.27H2V0H5.15V3.27H7.57V6H5.15V11.4c0,.74.39,1.31,1.08,1.31a1.74,1.74,0,0,0,1.09-.34L8,14.74a3.88,3.88,0,0,1-2.62.77C3.17,15.51,2,14.37,2,12.24Z"/><path class="cls-1" d="M9,9.23A6,6,0,0,1,15.26,3,6.06,6.06,0,0,1,21.6,9.23a6.07,6.07,0,0,1-6.34,6.28A6.05,6.05,0,0,1,9,9.23Zm9.37,0c0-1.86-1.11-3.47-3.07-3.47s-3,1.61-3,3.47,1.09,3.48,3,3.48S18.33,11.11,18.33,9.23Z"/></g></g></svg>