<svg xmlns="http://www.w3.org/2000/svg" viewBox="0 0 54.11 17.76"><defs><style>.cls-1{fill:#cdffff;}</style></defs><g id="Layer_2" data-name="Layer 2"><g id="Layer_1-2" data-name="Layer 1"><path class="cls-1" d="M4.82,4.06H0V1H13.16v3.1H8.36v13.4H4.82Z"/><path class="cls-1" d="M15,1.88A1.9,1.9,0,0,1,16.92,0a1.88,1.88,0,0,1,0,3.76A1.9,1.9,0,0,1,15,1.88Zm.32,3.64H18.5V17.46H15.36Z"/><path class="cls-1" d="M36.44,9.92C36.44,8.81,36,8,34.66,8A3.17,3.17,0,0,0,32.19,9.4v8.06H29V9.92C29,8.81,28.52,8,27.24,8a3.26,3.26,0,0,0-2.48,1.41v8H21.62V5.52h3.14V7.07a5.26,5.26,0,0,1,3.91-1.85A3.17,3.17,0,0,1,32,7.4a5.05,5.05,0,0,1,4.1-2.18c2.2,0,3.52,1.16,3.52,3.61v8.63H36.44Z"/><path class="cls-1" d="M48.12,5.22c3.56,0,6,2.67,6,6.58v.69H45.23a3.21,3.21,0,0,0,3.43,2.77,4.82,4.82,0,0,0,3.19-1.19l1.39,2a7.45,7.45,0,0,1-4.92,1.66,6,6,0,0,1-6.38-6.28A6.07,6.07,0,0,1,48.12,5.22Zm-2.94,5.14h5.88a2.76,2.76,0,0,0-2.94-2.64A2.86,2.86,0,0,0,45.18,10.36Z"/></g></g></svg>