<svg xmlns="http://www.w3.org/2000/svg" viewBox="0 0 24.34 16.79"><defs><style>.cls-1{fill:#cdffff;}</style></defs><g id="Layer_2" data-name="Layer 2"><g id="Layer_1-2" data-name="Layer 1"><path class="cls-1" d="M4.82,3.09H0V0H13.16V3.09H8.36V16.5H4.82Z"/><path class="cls-1" d="M18.36,4.25c3.56,0,6,2.68,6,6.58v.7H15.46A3.22,3.22,0,0,0,18.9,14.3a4.91,4.91,0,0,0,3.19-1.19l1.39,2a7.45,7.45,0,0,1-4.93,1.65,6,6,0,0,1-6.38-6.28A6.09,6.09,0,0,1,18.36,4.25ZM15.41,9.4H21.3a2.77,2.77,0,0,0-2.94-2.65A2.88,2.88,0,0,0,15.41,9.4Z"/></g></g></svg>