<?xml version="1.0" encoding="utf-8"?>
<!-- Generator: Adobe Illustrator 25.4.1, SVG Export Plug-In . SVG Version: 6.00 Build 0)  -->
<svg version="1.1" id="Layer_1" xmlns="http://www.w3.org/2000/svg" xmlns:xlink="http://www.w3.org/1999/xlink" x="0px" y="0px"
	 viewBox="0 0 300 250" style="enable-background:new 0 0 300 250;" xml:space="preserve">
<style type="text/css">
	.st0{clip-path:url(#SVGID_00000080167430828887452960000003687626636353685893_);}
	.st1{fill:#FFFFFF;}
</style>
<g>
	<g>
		<g>
			<defs>
				<rect id="SVGID_1_" x="203.3" y="195.9" width="77" height="34.2"/>
			</defs>
			<clipPath id="SVGID_00000042717659661904934200000005822505746884567687_">
				<use xlink:href="#SVGID_1_"  style="overflow:visible;"/>
			</clipPath>
			<g style="clip-path:url(#SVGID_00000042717659661904934200000005822505746884567687_);">
				<path class="st1" d="M211.1,196.3h3.7v33.6h-3.7V196.3z M276.3,196.3H272v33.6h4.5c2.5,0,3.8-1.2,3.8-3.7v-26.4
					C280.3,197.4,279.1,196.3,276.3,196.3 M276.9,225.3c0,0.8-0.2,1.2-0.9,1.2h-0.4v-26.8h0.4c0.7,0,0.9,0.2,0.9,1.2V225.3z
					 M203.3,230h3.7v-15l2.9-2.3v-4.4l-2.9,2.2v-10.8h2.9v-3.4h-6.6L203.3,230z M239.3,196.3H235V230h4.5c2.5,0,3.8-1.2,3.8-3.7
					v-26.4C243.2,197.4,242.1,196.3,239.3,196.3 M239.8,225.3c0,0.8-0.2,1.2-0.9,1.2h-0.4v-26.8h0.4c0.7,0,0.9,0.2,0.9,1.2
					L239.8,225.3z M220.3,196c-2.9,0-4.2,1.7-4.2,5.6v23.8c0,3.4,1.3,4.8,4.1,4.8c1.4,0.1,2.7-0.5,3.6-1.6c0.6-0.8,0.8-1.9,0.7-2.9
					v-25C224.4,197.6,223,196,220.3,196 M221,225.6c0,0.9-0.2,1.2-0.7,1.2s-0.7-0.3-0.7-1.1v-25c0-0.9,0.2-1.2,0.7-1.2
					s0.7,0.2,0.7,1.3V225.6z M267.5,215.8l-2.4-19.4h-3.9v30.2l-5.2-30.2h-1l-4.5,30.2h-2.2v-30.2h-3.8V230h9l2.2-18.3l2.8,18.3h6.1
					v-16.9l2.1,16.9h4v-33.7h-3.3L267.5,215.8z M232.4,214.2c0.9-0.7,1.5-1.8,1.4-3V200c0-2.3-1.4-3.7-4-3.7h-4.1v33.6h3.6V216h0.3
					c0.4,0,0.7,0.1,0.7,0.3V230h3.7v-12.6C233.9,215.6,233.5,214.7,232.4,214.2 M230.3,211.7c0,0.8-0.1,0.9-0.6,0.9
					c-0.1,0-0.3,0-0.4,0v-12.9h0.3c0.6,0,0.7,0.2,0.7,1.1L230.3,211.7z"/>
			</g>
		</g>
	</g>
</g>
</svg>
