<svg xmlns="http://www.w3.org/2000/svg" xmlns:xlink="http://www.w3.org/1999/xlink" viewBox="0 0 124 20"><defs><style>.cls-1{fill:none;}.cls-2{clip-path:url(#clip-path);}.cls-3{fill:url(#linear-gradient);}.cls-4{fill:#fff;}</style><clipPath id="clip-path" transform="translate(0 0)"><rect class="cls-1" width="124" height="20"/></clipPath><linearGradient id="linear-gradient" x1="-3330.35" y1="7623.77" x2="-3329.28" y2="7623.77" gradientTransform="matrix(116, 0, 0, -116, 386320.32, 884367.81)" gradientUnits="userSpaceOnUse"><stop offset="0" stop-color="#926a42"/><stop offset="0" stop-color="#926a42"/><stop offset="0.12" stop-color="#9a734c"/><stop offset="0.31" stop-color="#b08b68"/><stop offset="0.44" stop-color="#c19e7e"/><stop offset="0.71" stop-color="#ba9472"/><stop offset="1" stop-color="#9f7248"/></linearGradient></defs><title>cta-ch-468x60</title><g id="Layer_2" data-name="Layer 2"><g id="Layer_2-2" data-name="Layer 2"><g class="cls-2"><rect class="cls-3" width="124" height="20"/></g><path class="cls-4" d="M29.76,6.2h4.46V7H29.76Zm4.08,2.4H30.06V7.83h3.78Zm-3.77,1h3.78v.77H30.07Zm3.75,5.54H31v.6h-.85V11.37h3.7Zm-2.85-3v2.18h2V12.16Zm1-6.11a12.35,12.35,0,0,0-.65-1.75l.81-.25a10.19,10.19,0,0,1,.68,1.7Zm8.88,8.83c0,.47-.09.7-.44.85a5,5,0,0,1-1.68.14,2.5,2.5,0,0,0-.27-.81c.59,0,1.12,0,1.28,0s.2-.06.2-.2v-1.1h-4A4.75,4.75,0,0,1,35,16.05a3.43,3.43,0,0,0-.68-.64,5.27,5.27,0,0,0,.86-3.31V9.71h5.69Zm.76-6.68v.74H34.36V8.2h3.07V7.32h-2.6V6.61h2.6V5.82H34.5V5.08h2.93V4h1v1h3.07v.74H38.38v.79H41.2v.71H38.38V8.2Zm-1.67,4.89v-1H36c0,.29,0,.62,0,1ZM36,10.47v1h3.9v-1Z" transform="translate(0 0)"/><path class="cls-4" d="M51.63,11.46a28.15,28.15,0,0,1,1.8,3.32l-.87.48c-.14-.35-.35-.82-.6-1.3-3.27,1.16-3.7,1.34-4,1.55a3.91,3.91,0,0,0-.41-1,.88.88,0,0,0,.55-.82v-9h4.95v6.1h-4V14l2.48-.81c-.26-.47-.53-.93-.76-1.34ZM49.09,5.57V7.26h3V5.57Zm3,4.36V8.13h-3v1.8Zm6.4,2.29c0,.54-.12.82-.47,1a4.87,4.87,0,0,1-1.88.17,3.37,3.37,0,0,0-.29-.92c.68,0,1.27,0,1.44,0s.25,0,.25-.23V5.69H55.23V15.9h-.95V4.78h4.25Z" transform="translate(0 0)"/><path class="cls-4" d="M76.35,6.16a19.36,19.36,0,0,1-2,1.57,8.77,8.77,0,0,0,2.44,1.51,4.26,4.26,0,0,0-.66.79A9.86,9.86,0,0,1,73.08,7.8v.66H68.42V7.85a11.11,11.11,0,0,1-3.2,2.3,4.1,4.1,0,0,0-.59-.73,9.07,9.07,0,0,0,2.62-1.71A8.24,8.24,0,0,0,65.6,6.39l.52-.54a7.86,7.86,0,0,1,1.7,1.3,9.11,9.11,0,0,0,1.3-1.82H65.59V4.51h4l.18,0,.64.32a9.13,9.13,0,0,1-1.77,2.84h4.29a11.94,11.94,0,0,1-2.16-3.32l.85-.26a9.46,9.46,0,0,0,.89,1.61,16.06,16.06,0,0,0,1.68-1.53l.74.52a19.18,19.18,0,0,1-2,1.6,10,10,0,0,0,.87,1,16.22,16.22,0,0,0,1.8-1.58Zm-2.74,6.91c-.27.56-.6,1.17-.87,1.67h3.69v.84H65.05v-.84h3.57a6.85,6.85,0,0,0-.73-1.61l.87-.28a7.08,7.08,0,0,1,.79,1.62l-.8.27h3a12.13,12.13,0,0,0,1-1.91Zm.73-.32H67V9.51h7.36Zm-1-2.43H67.93v1.62h5.39Z" transform="translate(0 0)"/><path class="cls-4" d="M82.38,6h5.18v.79H82.38Zm.38,3.62h4.38v.78H82.76Zm4.17,5.53H83.79v.6h-.86V11.42h4Zm0-7.34V8.6H83V7.85Zm-3.11,4.37v2.17h2.27V12.22ZM85,6a7.74,7.74,0,0,0-1.07-1.61l.74-.4a6.84,6.84,0,0,1,1.12,1.56Zm7.5,8.75c.68,0,.79-.33.87-2.14a2.46,2.46,0,0,0,.91.39c-.14,2.1-.44,2.66-1.72,2.66H90c-1.33,0-1.72-.3-1.72-1.52V9h4.21V5.65H88.09V4.73h5.33v5.84h-1V9.88H89.21V14.1c0,.51.14.61.84.61Z" transform="translate(0 0)"/></g></g></svg>