<svg xmlns="http://www.w3.org/2000/svg" xmlns:xlink="http://www.w3.org/1999/xlink" viewBox="0 0 114 19"><defs><style>.cls-1{fill:none;}.cls-2{clip-path:url(#clip-path);}.cls-3{fill:url(#linear-gradient);}.cls-4{fill:#fff;}</style><clipPath id="clip-path" transform="translate(0 0)"><rect class="cls-1" width="114" height="19"/></clipPath><linearGradient id="linear-gradient" x1="717.6" y1="529.41" x2="718.59" y2="529.41" gradientTransform="matrix(116, 0, 0, -116, -83242.12, 61420.75)" gradientUnits="userSpaceOnUse"><stop offset="0" stop-color="#916942"/><stop offset="0" stop-color="#916942"/><stop offset="0.12" stop-color="#99724c"/><stop offset="0.31" stop-color="#b08b68"/><stop offset="0.44" stop-color="#c19e7e"/><stop offset="0.71" stop-color="#ba9472"/><stop offset="1" stop-color="#9e7147"/></linearGradient></defs><title>cta-en-468</title><g id="Layer_2" data-name="Layer 2"><g id="Layer_1-2" data-name="Layer 1"><g class="cls-2"><rect class="cls-3" width="114" height="19"/></g><path class="cls-4" d="M24,10.25,27.32,13H26.8l-3-2.51V13h-.91V6.8h1.74c1.24,0,2.26.49,2.26,1.73s-1,1.72-2.26,1.72Zm.34-.34c1.08,0,1.53-.47,1.53-1.38s-.45-1.39-1.53-1.39h-.6V9.91Z" transform="translate(0 0)"/><path class="cls-4" d="M29.61,7.14V9.65h2.27V10H29.61v2.64h2.71V13H28.7V6.8h3.62v.34Z" transform="translate(0 0)"/><path class="cls-4" d="M39,7.73A3.26,3.26,0,0,0,36.89,7c-1.32,0-2.35,1.18-2.35,2.87s1,2.87,2.35,2.87a2.65,2.65,0,0,0,1.53-.41V9.83h.9v2.59a4,4,0,0,1-2.43.68,3.21,3.21,0,1,1,0-6.42A4.17,4.17,0,0,1,39,7.19Z" transform="translate(0 0)"/><path class="cls-4" d="M41.2,6.8h.91V13H41.2Z" transform="translate(0 0)"/><path class="cls-4" d="M47.13,7.46a2.42,2.42,0,0,0-1.3-.4c-.59,0-1.1.26-1.1.79s.47.84,1.22,1.34c1.06.72,1.81,1.27,1.81,2.24,0,1.25-1.19,1.63-2.13,1.63a2.93,2.93,0,0,1-1.8-.56V12a2.78,2.78,0,0,0,1.81.73c.76,0,1.28-.37,1.28-1s-.4-1-1.25-1.57C44.62,9.37,44,8.91,44,8.1c0-1,.94-1.39,1.86-1.39A3.36,3.36,0,0,1,47.13,7Z" transform="translate(0 0)"/><path class="cls-4" d="M53.31,7.14H51.42V13h-.91V7.14h-1.9V6.8h4.7Z" transform="translate(0 0)"/><path class="cls-4" d="M55.86,7.14V9.65h2.27V10H55.86v2.64h2.71V13H55V6.8h3.62v.34Z" transform="translate(0 0)"/><path class="cls-4" d="M61.46,10.25,64.74,13h-.52l-3-2.51V13h-.91V6.8H62c1.24,0,2.26.49,2.26,1.73s-1,1.72-2.26,1.72Zm.34-.34c1.08,0,1.52-.47,1.52-1.38s-.44-1.39-1.52-1.39h-.6V9.91Z" transform="translate(0 0)"/><path class="cls-4" d="M73.66,6.8v6.29L69.08,8.34V13h-.34V6.69l4.57,4.75V6.8Z" transform="translate(0 0)"/><path class="cls-4" d="M78.62,13.1a3.21,3.21,0,1,1,3.32-3.21A3.18,3.18,0,0,1,78.62,13.1ZM81,9.89C81,8.21,80,7,78.62,7s-2.35,1.19-2.35,2.87.94,2.87,2.35,2.87S81,11.58,81,9.89Z" transform="translate(0 0)"/><path class="cls-4" d="M83.67,6.8l1.77,4.61L87.3,6.69l2,4.75L91,6.8h.35l-2.3,6.29L87,8.3l-1.87,4.79L82.72,6.8Z" transform="translate(0 0)"/></g></g></svg>