<svg xmlns="http://www.w3.org/2000/svg" viewBox="0 0 179.34 30.47"><defs><style>.cls-1{fill:#a5714e;}</style></defs><title>t3-en-468</title><g id="Layer_2" data-name="Layer 2"><g id="Layer_1-2" data-name="Layer 1"><path class="cls-1" d="M31.5,11.07s5-3.87,5-8.13c0-1.53-.62-2.33-1.78-2.33a2.88,2.88,0,0,0-2.52,1.88V1.38A3.18,3.18,0,0,1,35,0a2.79,2.79,0,0,1,3,3c0,3-3.34,5.91-4.13,6.58H39l-.57,1.52Z"/><path class="cls-1" d="M46.47,4.41a3.58,3.58,0,0,1-.91-2.26A2,2,0,0,1,47.73,0c1.28,0,2,.72,2,1.75s-.7,1.68-1.62,2.35l3.54,4.54a6.31,6.31,0,0,0,.79-2.76h.61a7.37,7.37,0,0,1-1,3.28l1.49,1.91h-1.9l-.61-.78a5.41,5.41,0,0,1-3.38,1c-2.55,0-3.94-1.16-3.94-3,0-1.5.83-2.48,2.78-3.83Zm.45.58a4,4,0,0,0-1.55,3.14,2.31,2.31,0,0,0,2.57,2.54,4.31,4.31,0,0,0,2.73-.87Zm.83-1.38a2.47,2.47,0,0,0,.9-1.87c0-.6-.22-1.13-.93-1.13s-.89.56-.89,1S46.88,2.49,47.75,3.61Z"/><path class="cls-1" d="M60.41,4.91A3.54,3.54,0,0,1,62,4.52a2.35,2.35,0,0,0,1.17-2.15c0-1-.46-1.76-1.58-1.76A3,3,0,0,0,59,2.49V1.38A3.07,3.07,0,0,1,61.84,0c1.8,0,2.85,1,2.85,2.4a2.74,2.74,0,0,1-1.22,2.29A3.28,3.28,0,0,1,65.91,8c0,2-1.39,3.31-4.11,3.31-2.35,0-3.22-1-3.22-1V9.38a3.59,3.59,0,0,0,2.9,1.29,2.51,2.51,0,0,0,2.78-2.61,2.72,2.72,0,0,0-1.9-2.84,6.65,6.65,0,0,1-2.07.3Z"/><path class="cls-1" d="M71.47,11.07V.21h2.31c2,0,3.63.61,3.63,2.36a2.29,2.29,0,0,1-1.7,2.2c1.81.36,3.05,1.49,3.05,3.15,0,2.09-2,3.15-4.27,3.15ZM73.07.82V4.6h.84a1.77,1.77,0,0,0,2-2c0-1.1-.51-1.82-2-1.82Zm0,4.39v5.25h1.28a2.39,2.39,0,0,0,2.72-2.57,2.47,2.47,0,0,0-2.72-2.68Z"/><path class="cls-1" d="M82.07.82v4.4h4v.61h-4v4.63h4.76v.61H80.47V.21h6.36V.82Z"/><path class="cls-1" d="M88.81,11.07V.21h3c3.32,0,6,2.17,6,5.43s-2.63,5.43-6,5.43Zm1.6-.61h1.36c2.38,0,4.3-1.81,4.3-4.82S94.15.82,91.77.82H90.41Z"/><path class="cls-1" d="M101.57,6.28l5.75,4.79h-.91l-5.29-4.41v4.41h-1.6V.21h3c2.17,0,4,.87,4,3s-1.8,3-4,3Zm.59-.61c1.9,0,2.68-.82,2.68-2.42S104.06.82,102.16.82h-1V5.67Z"/><path class="cls-1" d="M113.87,11.27A5.58,5.58,0,0,1,108,5.64a5.84,5.84,0,0,1,11.67,0A5.57,5.57,0,0,1,113.87,11.27ZM118,5.64c0-2.95-1.65-5-4.11-5s-4.11,2.08-4.11,5,1.64,5,4.11,5S118,8.6,118,5.64Z"/><path class="cls-1" d="M127,11.27a5.58,5.58,0,0,1-5.84-5.63,5.84,5.84,0,0,1,11.67,0A5.57,5.57,0,0,1,127,11.27Zm4.11-5.63c0-2.95-1.65-5-4.11-5s-4.11,2.08-4.11,5,1.64,5,4.11,5S131.14,8.6,131.14,5.64Z"/><path class="cls-1" d="M147.39,11.07h-1.65l-1.26-7.65-4.23,7.83L135.83,3.4l-1.26,7.67H134l1.82-11,5,9,4.8-9Z"/><path class="cls-1" d="M6.14,27.07H1.93L.62,30.27H0L4.57,19.13,9.13,30.27H7.45Zm-4-.61H5.89L4,21.93Z"/><path class="cls-1" d="M12.45,25.48v4.79h-1.6V19.41h2.92c2.17,0,4,.87,4,3s-1.8,3-4,3Zm0-.61h.92c1.9,0,2.68-.82,2.68-2.42S15.27,20,13.37,20h-.92Z"/><path class="cls-1" d="M23.56,27.07h-4.2l-1.31,3.2h-.63L22,19.13l4.56,11.14H24.88Zm-3.95-.61h3.71l-1.86-4.53Z"/><path class="cls-1" d="M30.33,25.48l5.75,4.79h-.92l-5.29-4.41v4.41h-1.6V19.41h3.05c2.16,0,4,.87,4,3s-1.8,3-4,3Zm.59-.61c1.89,0,2.68-.82,2.68-2.42S32.81,20,30.92,20H29.87v4.85Z"/><path class="cls-1" d="M44.76,20H41.44V30.27H39.85V20H36.52v-.61h8.24Z"/><path class="cls-1" d="M58.91,30.27H57.26L56,22.62l-4.23,7.83L47.35,22.6l-1.26,7.67h-.62l1.82-11,5,9,4.8-9Z"/><path class="cls-1" d="M62.55,20v4.4h4V25h-4v4.63h4.76v.61H61V19.41h6.36V20Z"/><path class="cls-1" d="M77.92,19.41v11l-8-8.34v8.16h-.61v-11l8,8.34V19.41Z"/><path class="cls-1" d="M88,20H84.68V30.27H83.09V20H79.77v-.61H88Z"/><path class="cls-1" d="M95.72,25.48l5.75,4.79h-.91l-5.29-4.41v4.41h-1.6V19.41h3c2.16,0,4,.87,4,3s-1.8,3-4,3Zm.6-.61c1.89,0,2.68-.82,2.68-2.42S98.21,20,96.32,20h-1v4.85Z"/><path class="cls-1" d="M104.45,20v4.4h4V25h-4v4.63h4.76v.61h-6.36V19.41h6.36V20Z"/><path class="cls-1" d="M116.56,20.58a4.15,4.15,0,0,0-2.28-.72c-1,0-1.93.47-1.93,1.4s.82,1.47,2.14,2.35c1.87,1.27,3.17,2.22,3.17,3.93,0,2.19-2.08,2.85-3.73,2.85a5.2,5.2,0,0,1-3.16-1V28.5a4.85,4.85,0,0,0,3.17,1.29c1.34,0,2.26-.66,2.26-1.79s-.71-1.69-2.2-2.75c-1.84-1.32-3-2.14-3-3.55,0-1.74,1.66-2.44,3.27-2.44a5.89,5.89,0,0,1,2.26.44Z"/><path class="cls-1" d="M119.57,19.41h1.59V30.27h-1.59Z"/><path class="cls-1" d="M123.45,30.27V19.41h3c3.31,0,5.94,2.17,5.94,5.43s-2.63,5.43-5.94,5.43Zm1.59-.61h1.36c2.39,0,4.31-1.81,4.31-4.82S128.79,20,126.4,20H125Z"/><path class="cls-1" d="M135.75,20v4.4h4V25h-4v4.63h4.76v.61h-6.36V19.41h6.36V20Z"/><path class="cls-1" d="M151.12,19.41v11l-8-8.34v8.16h-.61v-11l8,8.34V19.41Z"/><path class="cls-1" d="M162.12,20.92a5.55,5.55,0,0,0-3.32-1.11c-2.46,0-4.1,2-4.1,5s1.64,5,4.09,5a5.36,5.36,0,0,0,3.63-1.46v1a6.15,6.15,0,0,1-3.63,1.06,5.64,5.64,0,1,1,0-11.27,7.29,7.29,0,0,1,3.33.77Z"/><path class="cls-1" d="M166.13,20v4.4h4V25h-4v4.63h4.76v.61h-6.36V19.41h6.36V20Z"/><path class="cls-1" d="M178.24,20.58a4.19,4.19,0,0,0-2.28-.72c-1,0-1.93.47-1.93,1.4s.82,1.47,2.14,2.35c1.86,1.27,3.17,2.22,3.17,3.93,0,2.19-2.08,2.85-3.73,2.85a5.2,5.2,0,0,1-3.16-1V28.5a4.82,4.82,0,0,0,3.17,1.29c1.34,0,2.25-.66,2.25-1.79s-.7-1.69-2.2-2.75c-1.83-1.32-3-2.14-3-3.55,0-1.74,1.65-2.44,3.27-2.44a5.89,5.89,0,0,1,2.26.44Z"/></g></g></svg>