<?xml version="1.0" encoding="UTF-8"?><svg id="Layer_1" xmlns="http://www.w3.org/2000/svg" viewBox="0 0 1020.12 119.44"><defs><style>.cls-1{fill:#fff;}</style></defs><g><path class="cls-1" d="M1020.12,30.31c0-1.32-1.07-2.38-2.38-2.38s-2.38,1.07-2.38,2.38,1.07,2.38,2.38,2.38,2.38-1.07,2.38-2.38Z"/><path class="cls-1" d="M1020.12,42.64c0-1.32-1.07-2.38-2.38-2.38s-2.38,1.07-2.38,2.38,1.07,2.38,2.38,2.38,2.38-1.07,2.38-2.38Z"/><path class="cls-1" d="M1020.12,36.48c0-1.32-1.07-2.38-2.38-2.38s-2.38,1.07-2.38,2.38,1.07,2.38,2.38,2.38,2.38-1.07,2.38-2.38Z"/><path class="cls-1" d="M1020.12,48.81c0-1.32-1.07-2.38-2.38-2.38s-2.38,1.07-2.38,2.38,1.07,2.38,2.38,2.38,2.38-1.07,2.38-2.38Z"/><path class="cls-1" d="M1020.12,54.98c0-1.32-1.07-2.38-2.38-2.38s-2.38,1.07-2.38,2.38,1.07,2.38,2.38,2.38,2.38-1.07,2.38-2.38Z"/><path class="cls-1" d="M1013.92,30.27c0-1.32-1.07-2.38-2.38-2.38s-2.38,1.07-2.38,2.38,1.07,2.38,2.38,2.38,2.38-1.07,2.38-2.38Z"/><path class="cls-1" d="M1013.92,42.61c0-1.32-1.07-2.38-2.38-2.38s-2.38,1.07-2.38,2.38,1.07,2.38,2.38,2.38,2.38-1.07,2.38-2.38Z"/><circle class="cls-1" cx="1011.54" cy="36.44" r="2.38"/><path class="cls-1" d="M1013.92,48.78c0-1.32-1.07-2.38-2.38-2.38s-2.38,1.07-2.38,2.38,1.07,2.38,2.38,2.38,2.38-1.07,2.38-2.38Z"/><path class="cls-1" d="M1013.92,54.94c0-1.32-1.07-2.38-2.38-2.38s-2.38,1.07-2.38,2.38,1.07,2.38,2.38,2.38,2.38-1.07,2.38-2.38Z"/><path class="cls-1" d="M1007.71,30.24c0-1.32-1.07-2.38-2.38-2.38s-2.38,1.07-2.38,2.38,1.07,2.38,2.38,2.38,2.38-1.07,2.38-2.38Z"/><path class="cls-1" d="M1007.71,42.57c0-1.32-1.07-2.38-2.38-2.38s-2.38,1.07-2.38,2.38,1.07,2.38,2.38,2.38,2.38-1.07,2.38-2.38Z"/><path class="cls-1" d="M1007.71,36.4c0-1.32-1.07-2.38-2.38-2.38s-2.38,1.07-2.38,2.38,1.07,2.38,2.38,2.38,2.38-1.07,2.38-2.38Z"/><path class="cls-1" d="M1007.71,48.74c0-1.32-1.07-2.38-2.38-2.38s-2.38,1.07-2.38,2.38,1.07,2.38,2.38,2.38,2.38-1.07,2.38-2.38Z"/><path class="cls-1" d="M1007.71,54.91c0-1.32-1.07-2.38-2.38-2.38s-2.38,1.07-2.38,2.38,1.07,2.38,2.38,2.38,2.38-1.07,2.38-2.38Z"/><path class="cls-1" d="M1001.51,30.2c0-1.32-1.07-2.38-2.38-2.38s-2.38,1.07-2.38,2.38,1.07,2.38,2.38,2.38,2.38-1.07,2.38-2.38Z"/><path class="cls-1" d="M1001.51,42.54c0-1.32-1.07-2.38-2.38-2.38s-2.38,1.07-2.38,2.38,1.07,2.38,2.38,2.38,2.38-1.07,2.38-2.38Z"/><circle class="cls-1" cx="999.12" cy="36.37" r="2.38"/><path class="cls-1" d="M1001.51,48.7c0-1.32-1.07-2.38-2.38-2.38s-2.38,1.07-2.38,2.38,1.07,2.38,2.38,2.38,2.38-1.07,2.38-2.38Z"/><path class="cls-1" d="M1001.51,54.87c0-1.32-1.07-2.38-2.38-2.38s-2.38,1.07-2.38,2.38,1.07,2.38,2.38,2.38,2.38-1.07,2.38-2.38Z"/><path class="cls-1" d="M995.3,30.16c0-1.32-1.07-2.38-2.38-2.38s-2.38,1.07-2.38,2.38,1.07,2.38,2.38,2.38,2.38-1.07,2.38-2.38Z"/><path class="cls-1" d="M995.3,42.5c0-1.32-1.07-2.38-2.38-2.38s-2.38,1.07-2.38,2.38,1.07,2.38,2.38,2.38,2.38-1.07,2.38-2.38Z"/><path class="cls-1" d="M995.3,36.33c0-1.32-1.07-2.38-2.38-2.38s-2.38,1.07-2.38,2.38,1.07,2.38,2.38,2.38,2.38-1.07,2.38-2.38Z"/><path class="cls-1" d="M995.3,48.67c0-1.32-1.07-2.38-2.38-2.38s-2.38,1.07-2.38,2.38,1.07,2.38,2.38,2.38,2.38-1.07,2.38-2.38Z"/><circle class="cls-1" cx="992.92" cy="54.83" r="2.38"/><circle class="cls-1" cx="986.71" cy="30.13" r="2.38"/><path class="cls-1" d="M989.1,42.46c0-1.32-1.07-2.38-2.38-2.38s-2.38,1.07-2.38,2.38,1.07,2.38,2.38,2.38,2.38-1.07,2.38-2.38Z"/><path class="cls-1" d="M989.1,36.3c0-1.32-1.07-2.38-2.38-2.38s-2.38,1.07-2.38,2.38,1.07,2.38,2.38,2.38,2.38-1.07,2.38-2.38Z"/><path class="cls-1" d="M989.1,48.63c0-1.32-1.07-2.38-2.38-2.38s-2.38,1.07-2.38,2.38,1.07,2.38,2.38,2.38,2.38-1.07,2.38-2.38Z"/><circle class="cls-1" cx="986.71" cy="54.8" r="2.38"/><path class="cls-1" d="M982.89,30.09c0-1.32-1.07-2.38-2.38-2.38s-2.38,1.07-2.38,2.38,1.07,2.38,2.38,2.38,2.38-1.07,2.38-2.38Z"/><path class="cls-1" d="M982.89,42.43c0-1.32-1.07-2.38-2.38-2.38s-2.38,1.07-2.38,2.38,1.07,2.38,2.38,2.38,2.38-1.07,2.38-2.38Z"/><path class="cls-1" d="M982.89,36.26c0-1.32-1.07-2.38-2.38-2.38s-2.38,1.07-2.38,2.38,1.07,2.38,2.38,2.38,2.38-1.07,2.38-2.38Z"/><path class="cls-1" d="M982.89,48.59c0-1.32-1.07-2.38-2.38-2.38s-2.38,1.07-2.38,2.38,1.07,2.38,2.38,2.38,2.38-1.07,2.38-2.38Z"/><path class="cls-1" d="M982.89,54.76c0-1.32-1.07-2.38-2.38-2.38s-2.38,1.07-2.38,2.38,1.07,2.38,2.38,2.38,2.38-1.07,2.38-2.38Z"/><path class="cls-1" d="M976.68,30.06c0-1.32-1.07-2.38-2.38-2.38s-2.38,1.07-2.38,2.38,1.07,2.38,2.38,2.38,2.38-1.07,2.38-2.38Z"/><path class="cls-1" d="M976.68,42.39c0-1.32-1.07-2.38-2.38-2.38s-2.38,1.07-2.38,2.38,1.07,2.38,2.38,2.38,2.38-1.07,2.38-2.38Z"/><path class="cls-1" d="M976.68,36.22c0-1.32-1.07-2.38-2.38-2.38s-2.38,1.07-2.38,2.38,1.07,2.38,2.38,2.38,2.38-1.07,2.38-2.38Z"/><path class="cls-1" d="M976.68,48.56c0-1.32-1.07-2.38-2.38-2.38s-2.38,1.07-2.38,2.38,1.07,2.38,2.38,2.38,2.38-1.07,2.38-2.38Z"/><path class="cls-1" d="M976.68,54.72c0-1.32-1.07-2.38-2.38-2.38s-2.38,1.07-2.38,2.38,1.07,2.38,2.38,2.38,2.38-1.07,2.38-2.38Z"/><path class="cls-1" d="M970.48,30.02c0-1.32-1.07-2.38-2.38-2.38s-2.38,1.07-2.38,2.38,1.07,2.38,2.38,2.38,2.38-1.07,2.38-2.38Z"/><path class="cls-1" d="M970.48,42.35c0-1.32-1.07-2.38-2.38-2.38s-2.38,1.07-2.38,2.38,1.07,2.38,2.38,2.38,2.38-1.07,2.38-2.38Z"/><path class="cls-1" d="M970.48,36.19c0-1.32-1.07-2.38-2.38-2.38s-2.38,1.07-2.38,2.38,1.07,2.38,2.38,2.38,2.38-1.07,2.38-2.38Z"/><circle class="cls-1" cx="968.09" cy="48.52" r="2.38"/><path class="cls-1" d="M970.48,54.69c0-1.32-1.07-2.38-2.38-2.38s-2.38,1.07-2.38,2.38,1.07,2.38,2.38,2.38,2.38-1.07,2.38-2.38Z"/><path class="cls-1" d="M964.27,29.98c0-1.32-1.07-2.38-2.38-2.38s-2.38,1.07-2.38,2.38,1.07,2.38,2.38,2.38,2.38-1.07,2.38-2.38Z"/><path class="cls-1" d="M964.27,42.32c0-1.32-1.07-2.38-2.38-2.38s-2.38,1.07-2.38,2.38,1.07,2.38,2.38,2.38,2.38-1.07,2.38-2.38Z"/><path class="cls-1" d="M964.27,36.15c0-1.32-1.07-2.38-2.38-2.38s-2.38,1.07-2.38,2.38,1.07,2.38,2.38,2.38,2.38-1.07,2.38-2.38Z"/><path class="cls-1" d="M964.27,48.48c0-1.32-1.07-2.38-2.38-2.38s-2.38,1.07-2.38,2.38,1.07,2.38,2.38,2.38,2.38-1.07,2.38-2.38Z"/><path class="cls-1" d="M964.27,54.65c0-1.32-1.07-2.38-2.38-2.38s-2.38,1.07-2.38,2.38,1.07,2.38,2.38,2.38,2.38-1.07,2.38-2.38Z"/><path class="cls-1" d="M958.07,29.95c0-1.32-1.07-2.38-2.38-2.38s-2.38,1.07-2.38,2.38,1.07,2.38,2.38,2.38,2.38-1.07,2.38-2.38Z"/><path class="cls-1" d="M958.07,42.28c0-1.32-1.07-2.38-2.38-2.38s-2.38,1.07-2.38,2.38,1.07,2.38,2.38,2.38,2.38-1.07,2.38-2.38Z"/><path class="cls-1" d="M958.07,36.11c0-1.32-1.07-2.38-2.38-2.38s-2.38,1.07-2.38,2.38,1.07,2.38,2.38,2.38,2.38-1.07,2.38-2.38Z"/><path class="cls-1" d="M958.07,48.45c0-1.32-1.07-2.38-2.38-2.38s-2.38,1.07-2.38,2.38,1.07,2.38,2.38,2.38,2.38-1.07,2.38-2.38Z"/><path class="cls-1" d="M958.07,54.62c0-1.32-1.07-2.38-2.38-2.38s-2.38,1.07-2.38,2.38,1.07,2.38,2.38,2.38,2.38-1.07,2.38-2.38Z"/><path class="cls-1" d="M951.86,29.91c0-1.32-1.07-2.38-2.38-2.38s-2.38,1.07-2.38,2.38,1.07,2.38,2.38,2.38,2.38-1.07,2.38-2.38Z"/><path class="cls-1" d="M951.86,42.24c0-1.32-1.07-2.38-2.38-2.38s-2.38,1.07-2.38,2.38,1.07,2.38,2.38,2.38,2.38-1.07,2.38-2.38Z"/><path class="cls-1" d="M951.86,36.08c0-1.32-1.07-2.38-2.38-2.38s-2.38,1.07-2.38,2.38,1.07,2.38,2.38,2.38,2.38-1.07,2.38-2.38Z"/><path class="cls-1" d="M951.86,48.41c0-1.32-1.07-2.38-2.38-2.38s-2.38,1.07-2.38,2.38,1.07,2.38,2.38,2.38,2.38-1.07,2.38-2.38Z"/><path class="cls-1" d="M951.86,54.58c0-1.32-1.07-2.38-2.38-2.38s-2.38,1.07-2.38,2.38,1.07,2.38,2.38,2.38,2.38-1.07,2.38-2.38Z"/><path class="cls-1" d="M945.65,29.87c0-1.32-1.07-2.38-2.38-2.38s-2.38,1.07-2.38,2.38,1.07,2.38,2.38,2.38,2.38-1.07,2.38-2.38Z"/><circle class="cls-1" cx="943.27" cy="42.21" r="2.38"/><path class="cls-1" d="M945.65,36.04c0-1.32-1.07-2.38-2.38-2.38s-2.38,1.07-2.38,2.38,1.07,2.38,2.38,2.38,2.38-1.07,2.38-2.38Z"/><path class="cls-1" d="M945.65,48.38c0-1.32-1.07-2.38-2.38-2.38s-2.38,1.07-2.38,2.38,1.07,2.38,2.38,2.38,2.38-1.07,2.38-2.38Z"/><path class="cls-1" d="M945.65,54.54c0-1.32-1.07-2.38-2.38-2.38s-2.38,1.07-2.38,2.38,1.07,2.38,2.38,2.38,2.38-1.07,2.38-2.38Z"/><path class="cls-1" d="M939.45,29.84c0-1.32-1.07-2.38-2.38-2.38s-2.38,1.07-2.38,2.38,1.07,2.38,2.38,2.38,2.38-1.07,2.38-2.38Z"/><path class="cls-1" d="M939.45,42.17c0-1.32-1.07-2.38-2.38-2.38s-2.38,1.07-2.38,2.38,1.07,2.38,2.38,2.38,2.38-1.07,2.38-2.38Z"/><path class="cls-1" d="M939.45,36c0-1.32-1.07-2.38-2.38-2.38s-2.38,1.07-2.38,2.38,1.07,2.38,2.38,2.38,2.38-1.07,2.38-2.38Z"/><path class="cls-1" d="M939.45,48.34c0-1.32-1.07-2.38-2.38-2.38s-2.38,1.07-2.38,2.38,1.07,2.38,2.38,2.38,2.38-1.07,2.38-2.38Z"/><path class="cls-1" d="M939.45,54.51c0-1.32-1.07-2.38-2.38-2.38s-2.38,1.07-2.38,2.38,1.07,2.38,2.38,2.38,2.38-1.07,2.38-2.38Z"/><path class="cls-1" d="M933.24,29.8c0-1.32-1.07-2.38-2.38-2.38s-2.38,1.07-2.38,2.38,1.07,2.38,2.38,2.38,2.38-1.07,2.38-2.38Z"/><circle class="cls-1" cx="930.86" cy="42.14" r="2.38"/><path class="cls-1" d="M933.24,35.97c0-1.32-1.07-2.38-2.38-2.38s-2.38,1.07-2.38,2.38,1.07,2.38,2.38,2.38,2.38-1.07,2.38-2.38Z"/><path class="cls-1" d="M933.24,48.3c0-1.32-1.07-2.38-2.38-2.38s-2.38,1.07-2.38,2.38,1.07,2.38,2.38,2.38,2.38-1.07,2.38-2.38Z"/><path class="cls-1" d="M933.24,54.47c0-1.32-1.07-2.38-2.38-2.38s-2.38,1.07-2.38,2.38,1.07,2.38,2.38,2.38,2.38-1.07,2.38-2.38Z"/><path class="cls-1" d="M927.04,29.76c0-1.32-1.07-2.38-2.38-2.38s-2.38,1.07-2.38,2.38,1.07,2.38,2.38,2.38,2.38-1.07,2.38-2.38Z"/><path class="cls-1" d="M927.04,42.1c0-1.32-1.07-2.38-2.38-2.38s-2.38,1.07-2.38,2.38,1.07,2.38,2.38,2.38,2.38-1.07,2.38-2.38Z"/><path class="cls-1" d="M927.04,35.93c0-1.32-1.07-2.38-2.38-2.38s-2.38,1.07-2.38,2.38,1.07,2.38,2.38,2.38,2.38-1.07,2.38-2.38Z"/><path class="cls-1" d="M927.04,48.27c0-1.32-1.07-2.38-2.38-2.38s-2.38,1.07-2.38,2.38,1.07,2.38,2.38,2.38,2.38-1.07,2.38-2.38Z"/><path class="cls-1" d="M927.04,54.43c0-1.32-1.07-2.38-2.38-2.38s-2.38,1.07-2.38,2.38,1.07,2.38,2.38,2.38,2.38-1.07,2.38-2.38Z"/><path class="cls-1" d="M920.83,29.73c0-1.32-1.07-2.38-2.38-2.38s-2.38,1.07-2.38,2.38,1.07,2.38,2.38,2.38,2.38-1.07,2.38-2.38Z"/><path class="cls-1" d="M920.83,42.06c0-1.32-1.07-2.38-2.38-2.38s-2.38,1.07-2.38,2.38,1.07,2.38,2.38,2.38,2.38-1.07,2.38-2.38Z"/><path class="cls-1" d="M920.83,35.9c0-1.32-1.07-2.38-2.38-2.38s-2.38,1.07-2.38,2.38,1.07,2.38,2.38,2.38,2.38-1.07,2.38-2.38Z"/><path class="cls-1" d="M920.83,48.23c0-1.32-1.07-2.38-2.38-2.38s-2.38,1.07-2.38,2.38,1.07,2.38,2.38,2.38,2.38-1.07,2.38-2.38Z"/><path class="cls-1" d="M920.83,54.4c0-1.32-1.07-2.38-2.38-2.38s-2.38,1.07-2.38,2.38,1.07,2.38,2.38,2.38,2.38-1.07,2.38-2.38Z"/><path class="cls-1" d="M914.62,29.69c0-1.32-1.07-2.38-2.38-2.38s-2.38,1.07-2.38,2.38,1.07,2.38,2.38,2.38,2.38-1.07,2.38-2.38Z"/><path class="cls-1" d="M914.62,42.03c0-1.32-1.07-2.38-2.38-2.38s-2.38,1.07-2.38,2.38,1.07,2.38,2.38,2.38,2.38-1.07,2.38-2.38Z"/><path class="cls-1" d="M914.62,35.86c0-1.32-1.07-2.38-2.38-2.38s-2.38,1.07-2.38,2.38,1.07,2.38,2.38,2.38,2.38-1.07,2.38-2.38Z"/><path class="cls-1" d="M914.62,48.19c0-1.32-1.07-2.38-2.38-2.38s-2.38,1.07-2.38,2.38,1.07,2.38,2.38,2.38,2.38-1.07,2.38-2.38Z"/><path class="cls-1" d="M914.62,54.36c0-1.32-1.07-2.38-2.38-2.38s-2.38,1.07-2.38,2.38,1.07,2.38,2.38,2.38,2.38-1.07,2.38-2.38Z"/><path class="cls-1" d="M908.42,29.66c0-1.32-1.07-2.38-2.38-2.38s-2.38,1.07-2.38,2.38,1.07,2.38,2.38,2.38,2.38-1.07,2.38-2.38Z"/><path class="cls-1" d="M908.42,41.99c0-1.32-1.07-2.38-2.38-2.38s-2.38,1.07-2.38,2.38,1.07,2.38,2.38,2.38,2.38-1.07,2.38-2.38Z"/><circle class="cls-1" cx="906.03" cy="35.82" r="2.38"/><path class="cls-1" d="M908.42,48.16c0-1.32-1.07-2.38-2.38-2.38s-2.38,1.07-2.38,2.38,1.07,2.38,2.38,2.38,2.38-1.07,2.38-2.38Z"/><path class="cls-1" d="M908.42,54.32c0-1.32-1.07-2.38-2.38-2.38s-2.38,1.07-2.38,2.38,1.07,2.38,2.38,2.38,2.38-1.07,2.38-2.38Z"/><path class="cls-1" d="M902.21,29.62c0-1.32-1.07-2.38-2.38-2.38s-2.38,1.07-2.38,2.38,1.07,2.38,2.38,2.38,2.38-1.07,2.38-2.38Z"/><path class="cls-1" d="M902.21,41.95c0-1.32-1.07-2.38-2.38-2.38s-2.38,1.07-2.38,2.38,1.07,2.38,2.38,2.38,2.38-1.07,2.38-2.38Z"/><path class="cls-1" d="M902.21,35.79c0-1.32-1.07-2.38-2.38-2.38s-2.38,1.07-2.38,2.38,1.07,2.38,2.38,2.38,2.38-1.07,2.38-2.38Z"/><path class="cls-1" d="M902.21,48.12c0-1.32-1.07-2.38-2.38-2.38s-2.38,1.07-2.38,2.38,1.07,2.38,2.38,2.38,2.38-1.07,2.38-2.38Z"/><path class="cls-1" d="M902.21,54.29c0-1.32-1.07-2.38-2.38-2.38s-2.38,1.07-2.38,2.38,1.07,2.38,2.38,2.38,2.38-1.07,2.38-2.38Z"/><path class="cls-1" d="M896.01,29.58c0-1.32-1.07-2.38-2.38-2.38s-2.38,1.07-2.38,2.38,1.07,2.38,2.38,2.38,2.38-1.07,2.38-2.38Z"/><path class="cls-1" d="M896.01,41.92c0-1.32-1.07-2.38-2.38-2.38s-2.38,1.07-2.38,2.38,1.07,2.38,2.38,2.38,2.38-1.07,2.38-2.38Z"/><path class="cls-1" d="M896.01,35.75c0-1.32-1.07-2.38-2.38-2.38s-2.38,1.07-2.38,2.38,1.07,2.38,2.38,2.38,2.38-1.07,2.38-2.38Z"/><path class="cls-1" d="M896.01,48.08c0-1.32-1.07-2.38-2.38-2.38s-2.38,1.07-2.38,2.38,1.07,2.38,2.38,2.38,2.38-1.07,2.38-2.38Z"/><path class="cls-1" d="M896.01,54.25c0-1.32-1.07-2.38-2.38-2.38s-2.38,1.07-2.38,2.38,1.07,2.38,2.38,2.38,2.38-1.07,2.38-2.38Z"/><path class="cls-1" d="M889.8,29.55c0-1.32-1.07-2.38-2.38-2.38s-2.38,1.07-2.38,2.38,1.07,2.38,2.38,2.38,2.38-1.07,2.38-2.38Z"/><path class="cls-1" d="M889.8,41.88c0-1.32-1.07-2.38-2.38-2.38s-2.38,1.07-2.38,2.38,1.07,2.38,2.38,2.38,2.38-1.07,2.38-2.38Z"/><path class="cls-1" d="M889.8,35.71c0-1.32-1.07-2.38-2.38-2.38s-2.38,1.07-2.38,2.38,1.07,2.38,2.38,2.38,2.38-1.07,2.38-2.38Z"/><path class="cls-1" d="M889.8,48.05c0-1.32-1.07-2.38-2.38-2.38s-2.38,1.07-2.38,2.38,1.07,2.38,2.38,2.38,2.38-1.07,2.38-2.38Z"/><circle class="cls-1" cx="887.42" cy="54.22" r="2.38"/><circle class="cls-1" cx="881.21" cy="29.51" r="2.38"/><path class="cls-1" d="M883.59,41.84c0-1.32-1.07-2.38-2.38-2.38s-2.38,1.07-2.38,2.38,1.07,2.38,2.38,2.38,2.38-1.07,2.38-2.38Z"/><path class="cls-1" d="M883.59,35.68c0-1.32-1.07-2.38-2.38-2.38s-2.38,1.07-2.38,2.38,1.07,2.38,2.38,2.38,2.38-1.07,2.38-2.38Z"/><path class="cls-1" d="M883.59,48.01c0-1.32-1.07-2.38-2.38-2.38s-2.38,1.07-2.38,2.38,1.07,2.38,2.38,2.38,2.38-1.07,2.38-2.38Z"/><path class="cls-1" d="M883.59,54.18c0-1.32-1.07-2.38-2.38-2.38s-2.38,1.07-2.38,2.38,1.07,2.38,2.38,2.38,2.38-1.07,2.38-2.38Z"/><path class="cls-1" d="M877.39,29.47c0-1.32-1.07-2.38-2.38-2.38s-2.38,1.07-2.38,2.38,1.07,2.38,2.38,2.38,2.38-1.07,2.38-2.38Z"/><path class="cls-1" d="M877.39,41.81c0-1.32-1.07-2.38-2.38-2.38s-2.38,1.07-2.38,2.38,1.07,2.38,2.38,2.38,2.38-1.07,2.38-2.38Z"/><path class="cls-1" d="M877.39,35.64c0-1.32-1.07-2.38-2.38-2.38s-2.38,1.07-2.38,2.38,1.07,2.38,2.38,2.38,2.38-1.07,2.38-2.38Z"/><circle class="cls-1" cx="875" cy="47.98" r="2.38"/><path class="cls-1" d="M877.39,54.14c0-1.32-1.07-2.38-2.38-2.38s-2.38,1.07-2.38,2.38,1.07,2.38,2.38,2.38,2.38-1.07,2.38-2.38Z"/><path class="cls-1" d="M871.18,29.44c0-1.32-1.07-2.38-2.38-2.38s-2.38,1.07-2.38,2.38,1.07,2.38,2.38,2.38,2.38-1.07,2.38-2.38Z"/><path class="cls-1" d="M871.18,41.77c0-1.32-1.07-2.38-2.38-2.38s-2.38,1.07-2.38,2.38,1.07,2.38,2.38,2.38,2.38-1.07,2.38-2.38Z"/><path class="cls-1" d="M871.18,35.6c0-1.32-1.07-2.38-2.38-2.38s-2.38,1.07-2.38,2.38,1.07,2.38,2.38,2.38,2.38-1.07,2.38-2.38Z"/><path class="cls-1" d="M871.18,47.94c0-1.32-1.07-2.38-2.38-2.38s-2.38,1.07-2.38,2.38,1.07,2.38,2.38,2.38,2.38-1.07,2.38-2.38Z"/><path class="cls-1" d="M871.18,54.11c0-1.32-1.07-2.38-2.38-2.38s-2.38,1.07-2.38,2.38,1.07,2.38,2.38,2.38,2.38-1.07,2.38-2.38Z"/><path class="cls-1" d="M1020.12,61.35c0-1.32-1.07-2.38-2.38-2.38s-2.38,1.07-2.38,2.38,1.07,2.38,2.38,2.38,2.38-1.07,2.38-2.38Z"/><path class="cls-1" d="M1020.12,73.69c0-1.32-1.07-2.38-2.38-2.38s-2.38,1.07-2.38,2.38,1.07,2.38,2.38,2.38,2.38-1.07,2.38-2.38Z"/><path class="cls-1" d="M1020.12,67.52c0-1.32-1.07-2.38-2.38-2.38s-2.38,1.07-2.38,2.38,1.07,2.38,2.38,2.38,2.38-1.07,2.38-2.38Z"/><path class="cls-1" d="M1020.12,79.85c0-1.32-1.07-2.38-2.38-2.38s-2.38,1.07-2.38,2.38,1.07,2.38,2.38,2.38,2.38-1.07,2.38-2.38Z"/><path class="cls-1" d="M1020.12,86.02c0-1.32-1.07-2.38-2.38-2.38s-2.38,1.07-2.38,2.38,1.07,2.38,2.38,2.38,2.38-1.07,2.38-2.38Z"/><path class="cls-1" d="M1013.92,61.31c0-1.32-1.07-2.38-2.38-2.38s-2.38,1.07-2.38,2.38,1.07,2.38,2.38,2.38,2.38-1.07,2.38-2.38Z"/><path class="cls-1" d="M1013.92,73.65c0-1.32-1.07-2.38-2.38-2.38s-2.38,1.07-2.38,2.38,1.07,2.38,2.38,2.38,2.38-1.07,2.38-2.38Z"/><circle class="cls-1" cx="1011.54" cy="67.48" r="2.38"/><path class="cls-1" d="M1013.92,79.82c0-1.32-1.07-2.38-2.38-2.38s-2.38,1.07-2.38,2.38,1.07,2.38,2.38,2.38,2.38-1.07,2.38-2.38Z"/><path class="cls-1" d="M1013.92,85.98c0-1.32-1.07-2.38-2.38-2.38s-2.38,1.07-2.38,2.38,1.07,2.38,2.38,2.38,2.38-1.07,2.38-2.38Z"/><path class="cls-1" d="M1007.71,61.28c0-1.32-1.07-2.38-2.38-2.38s-2.38,1.07-2.38,2.38,1.07,2.38,2.38,2.38,2.38-1.07,2.38-2.38Z"/><path class="cls-1" d="M1007.71,73.61c0-1.32-1.07-2.38-2.38-2.38s-2.38,1.07-2.38,2.38,1.07,2.38,2.38,2.38,2.38-1.07,2.38-2.38Z"/><path class="cls-1" d="M1007.71,67.45c0-1.32-1.07-2.38-2.38-2.38s-2.38,1.07-2.38,2.38,1.07,2.38,2.38,2.38,2.38-1.07,2.38-2.38Z"/><path class="cls-1" d="M1007.71,79.78c0-1.32-1.07-2.38-2.38-2.38s-2.38,1.07-2.38,2.38,1.07,2.38,2.38,2.38,2.38-1.07,2.38-2.38Z"/><path class="cls-1" d="M1007.71,85.95c0-1.32-1.07-2.38-2.38-2.38s-2.38,1.07-2.38,2.38,1.07,2.38,2.38,2.38,2.38-1.07,2.38-2.38Z"/><path class="cls-1" d="M1001.51,61.24c0-1.32-1.07-2.38-2.38-2.38s-2.38,1.07-2.38,2.38,1.07,2.38,2.38,2.38,2.38-1.07,2.38-2.38Z"/><path class="cls-1" d="M1001.51,73.58c0-1.32-1.07-2.38-2.38-2.38s-2.38,1.07-2.38,2.38,1.07,2.38,2.38,2.38,2.38-1.07,2.38-2.38Z"/><circle class="cls-1" cx="999.12" cy="67.41" r="2.38"/><path class="cls-1" d="M1001.51,79.74c0-1.32-1.07-2.38-2.38-2.38s-2.38,1.07-2.38,2.38,1.07,2.38,2.38,2.38,2.38-1.07,2.38-2.38Z"/><path class="cls-1" d="M1001.51,85.91c0-1.32-1.07-2.38-2.38-2.38s-2.38,1.07-2.38,2.38,1.07,2.38,2.38,2.38,2.38-1.07,2.38-2.38Z"/><path class="cls-1" d="M995.3,61.21c0-1.32-1.07-2.38-2.38-2.38s-2.38,1.07-2.38,2.38,1.07,2.38,2.38,2.38,2.38-1.07,2.38-2.38Z"/><path class="cls-1" d="M995.3,73.54c0-1.32-1.07-2.38-2.38-2.38s-2.38,1.07-2.38,2.38,1.07,2.38,2.38,2.38,2.38-1.07,2.38-2.38Z"/><path class="cls-1" d="M995.3,67.37c0-1.32-1.07-2.38-2.38-2.38s-2.38,1.07-2.38,2.38,1.07,2.38,2.38,2.38,2.38-1.07,2.38-2.38Z"/><path class="cls-1" d="M995.3,79.71c0-1.32-1.07-2.38-2.38-2.38s-2.38,1.07-2.38,2.38,1.07,2.38,2.38,2.38,2.38-1.07,2.38-2.38Z"/><circle class="cls-1" cx="992.92" cy="85.87" r="2.38"/><circle class="cls-1" cx="986.71" cy="61.17" r="2.38"/><path class="cls-1" d="M989.1,73.5c0-1.32-1.07-2.38-2.38-2.38s-2.38,1.07-2.38,2.38,1.07,2.38,2.38,2.38,2.38-1.07,2.38-2.38Z"/><path class="cls-1" d="M989.1,67.34c0-1.32-1.07-2.38-2.38-2.38s-2.38,1.07-2.38,2.38,1.07,2.38,2.38,2.38,2.38-1.07,2.38-2.38Z"/><path class="cls-1" d="M989.1,79.67c0-1.32-1.07-2.38-2.38-2.38s-2.38,1.07-2.38,2.38,1.07,2.38,2.38,2.38,2.38-1.07,2.38-2.38Z"/><circle class="cls-1" cx="986.71" cy="85.84" r="2.38"/><path class="cls-1" d="M982.89,61.13c0-1.32-1.07-2.38-2.38-2.38s-2.38,1.07-2.38,2.38,1.07,2.38,2.38,2.38,2.38-1.07,2.38-2.38Z"/><path class="cls-1" d="M982.89,73.47c0-1.32-1.07-2.38-2.38-2.38s-2.38,1.07-2.38,2.38,1.07,2.38,2.38,2.38,2.38-1.07,2.38-2.38Z"/><path class="cls-1" d="M982.89,67.3c0-1.32-1.07-2.38-2.38-2.38s-2.38,1.07-2.38,2.38,1.07,2.38,2.38,2.38,2.38-1.07,2.38-2.38Z"/><path class="cls-1" d="M982.89,79.63c0-1.32-1.07-2.38-2.38-2.38s-2.38,1.07-2.38,2.38,1.07,2.38,2.38,2.38,2.38-1.07,2.38-2.38Z"/><path class="cls-1" d="M982.89,85.8c0-1.32-1.07-2.38-2.38-2.38s-2.38,1.07-2.38,2.38,1.07,2.38,2.38,2.38,2.38-1.07,2.38-2.38Z"/><path class="cls-1" d="M976.68,61.1c0-1.32-1.07-2.38-2.38-2.38s-2.38,1.07-2.38,2.38,1.07,2.38,2.38,2.38,2.38-1.07,2.38-2.38Z"/><path class="cls-1" d="M976.68,73.43c0-1.32-1.07-2.38-2.38-2.38s-2.38,1.07-2.38,2.38,1.07,2.38,2.38,2.38,2.38-1.07,2.38-2.38Z"/><path class="cls-1" d="M976.68,67.26c0-1.32-1.07-2.38-2.38-2.38s-2.38,1.07-2.38,2.38,1.07,2.38,2.38,2.38,2.38-1.07,2.38-2.38Z"/><path class="cls-1" d="M976.68,79.6c0-1.32-1.07-2.38-2.38-2.38s-2.38,1.07-2.38,2.38,1.07,2.38,2.38,2.38,2.38-1.07,2.38-2.38Z"/><path class="cls-1" d="M976.68,85.76c0-1.32-1.07-2.38-2.38-2.38s-2.38,1.07-2.38,2.38,1.07,2.38,2.38,2.38,2.38-1.07,2.38-2.38Z"/><path class="cls-1" d="M970.48,61.06c0-1.32-1.07-2.38-2.38-2.38s-2.38,1.07-2.38,2.38,1.07,2.38,2.38,2.38,2.38-1.07,2.38-2.38Z"/><path class="cls-1" d="M970.48,73.39c0-1.32-1.07-2.38-2.38-2.38s-2.38,1.07-2.38,2.38,1.07,2.38,2.38,2.38,2.38-1.07,2.38-2.38Z"/><path class="cls-1" d="M970.48,67.23c0-1.32-1.07-2.38-2.38-2.38s-2.38,1.07-2.38,2.38,1.07,2.38,2.38,2.38,2.38-1.07,2.38-2.38Z"/><circle class="cls-1" cx="968.09" cy="79.56" r="2.38"/><path class="cls-1" d="M970.48,85.73c0-1.32-1.07-2.38-2.38-2.38s-2.38,1.07-2.38,2.38,1.07,2.38,2.38,2.38,2.38-1.07,2.38-2.38Z"/><path class="cls-1" d="M964.27,61.02c0-1.32-1.07-2.38-2.38-2.38s-2.38,1.07-2.38,2.38,1.07,2.38,2.38,2.38,2.38-1.07,2.38-2.38Z"/><path class="cls-1" d="M964.27,73.36c0-1.32-1.07-2.38-2.38-2.38s-2.38,1.07-2.38,2.38,1.07,2.38,2.38,2.38,2.38-1.07,2.38-2.38Z"/><path class="cls-1" d="M964.27,67.19c0-1.32-1.07-2.38-2.38-2.38s-2.38,1.07-2.38,2.38,1.07,2.38,2.38,2.38,2.38-1.07,2.38-2.38Z"/><path class="cls-1" d="M964.27,79.53c0-1.32-1.07-2.38-2.38-2.38s-2.38,1.07-2.38,2.38,1.07,2.38,2.38,2.38,2.38-1.07,2.38-2.38Z"/><path class="cls-1" d="M964.27,85.69c0-1.32-1.07-2.38-2.38-2.38s-2.38,1.07-2.38,2.38,1.07,2.38,2.38,2.38,2.38-1.07,2.38-2.38Z"/><path class="cls-1" d="M958.07,60.99c0-1.32-1.07-2.38-2.38-2.38s-2.38,1.07-2.38,2.38,1.07,2.38,2.38,2.38,2.38-1.07,2.38-2.38Z"/><path class="cls-1" d="M958.07,73.32c0-1.32-1.07-2.38-2.38-2.38s-2.38,1.07-2.38,2.38,1.07,2.38,2.38,2.38,2.38-1.07,2.38-2.38Z"/><path class="cls-1" d="M958.07,67.15c0-1.32-1.07-2.38-2.38-2.38s-2.38,1.07-2.38,2.38,1.07,2.38,2.38,2.38,2.38-1.07,2.38-2.38Z"/><path class="cls-1" d="M958.07,79.49c0-1.32-1.07-2.38-2.38-2.38s-2.38,1.07-2.38,2.38,1.07,2.38,2.38,2.38,2.38-1.07,2.38-2.38Z"/><path class="cls-1" d="M958.07,85.66c0-1.32-1.07-2.38-2.38-2.38s-2.38,1.07-2.38,2.38,1.07,2.38,2.38,2.38,2.38-1.07,2.38-2.38Z"/><path class="cls-1" d="M951.86,60.95c0-1.32-1.07-2.38-2.38-2.38s-2.38,1.07-2.38,2.38,1.07,2.38,2.38,2.38,2.38-1.07,2.38-2.38Z"/><path class="cls-1" d="M951.86,73.29c0-1.32-1.07-2.38-2.38-2.38s-2.38,1.07-2.38,2.38,1.07,2.38,2.38,2.38,2.38-1.07,2.38-2.38Z"/><path class="cls-1" d="M951.86,67.12c0-1.32-1.07-2.38-2.38-2.38s-2.38,1.07-2.38,2.38,1.07,2.38,2.38,2.38,2.38-1.07,2.38-2.38Z"/><path class="cls-1" d="M951.86,79.45c0-1.32-1.07-2.38-2.38-2.38s-2.38,1.07-2.38,2.38,1.07,2.38,2.38,2.38,2.38-1.07,2.38-2.38Z"/><path class="cls-1" d="M951.86,85.62c0-1.32-1.07-2.38-2.38-2.38s-2.38,1.07-2.38,2.38,1.07,2.38,2.38,2.38,2.38-1.07,2.38-2.38Z"/><path class="cls-1" d="M945.65,60.91c0-1.32-1.07-2.38-2.38-2.38s-2.38,1.07-2.38,2.38,1.07,2.38,2.38,2.38,2.38-1.07,2.38-2.38Z"/><circle class="cls-1" cx="943.27" cy="73.25" r="2.38"/><path class="cls-1" d="M945.65,67.08c0-1.32-1.07-2.38-2.38-2.38s-2.38,1.07-2.38,2.38,1.07,2.38,2.38,2.38,2.38-1.07,2.38-2.38Z"/><path class="cls-1" d="M945.65,79.42c0-1.32-1.07-2.38-2.38-2.38s-2.38,1.07-2.38,2.38,1.07,2.38,2.38,2.38,2.38-1.07,2.38-2.38Z"/><path class="cls-1" d="M945.65,85.58c0-1.32-1.07-2.38-2.38-2.38s-2.38,1.07-2.38,2.38,1.07,2.38,2.38,2.38,2.38-1.07,2.38-2.38Z"/><path class="cls-1" d="M939.45,60.88c0-1.32-1.07-2.38-2.38-2.38s-2.38,1.07-2.38,2.38,1.07,2.38,2.38,2.38,2.38-1.07,2.38-2.38Z"/><path class="cls-1" d="M939.45,73.21c0-1.32-1.07-2.38-2.38-2.38s-2.38,1.07-2.38,2.38,1.07,2.38,2.38,2.38,2.38-1.07,2.38-2.38Z"/><path class="cls-1" d="M939.45,67.05c0-1.32-1.07-2.38-2.38-2.38s-2.38,1.07-2.38,2.38,1.07,2.38,2.38,2.38,2.38-1.07,2.38-2.38Z"/><path class="cls-1" d="M939.45,79.38c0-1.32-1.07-2.38-2.38-2.38s-2.38,1.07-2.38,2.38,1.07,2.38,2.38,2.38,2.38-1.07,2.38-2.38Z"/><path class="cls-1" d="M939.45,85.55c0-1.32-1.07-2.38-2.38-2.38s-2.38,1.07-2.38,2.38,1.07,2.38,2.38,2.38,2.38-1.07,2.38-2.38Z"/><path class="cls-1" d="M933.24,60.84c0-1.32-1.07-2.38-2.38-2.38s-2.38,1.07-2.38,2.38,1.07,2.38,2.38,2.38,2.38-1.07,2.38-2.38Z"/><circle class="cls-1" cx="930.86" cy="73.18" r="2.38"/><path class="cls-1" d="M933.24,67.01c0-1.32-1.07-2.38-2.38-2.38s-2.38,1.07-2.38,2.38,1.07,2.38,2.38,2.38,2.38-1.07,2.38-2.38Z"/><path class="cls-1" d="M933.24,79.34c0-1.32-1.07-2.38-2.38-2.38s-2.38,1.07-2.38,2.38,1.07,2.38,2.38,2.38,2.38-1.07,2.38-2.38Z"/><path class="cls-1" d="M933.24,85.51c0-1.32-1.07-2.38-2.38-2.38s-2.38,1.07-2.38,2.38,1.07,2.38,2.38,2.38,2.38-1.07,2.38-2.38Z"/><path class="cls-1" d="M927.04,60.81c0-1.32-1.07-2.38-2.38-2.38s-2.38,1.07-2.38,2.38,1.07,2.38,2.38,2.38,2.38-1.07,2.38-2.38Z"/><path class="cls-1" d="M927.04,73.14c0-1.32-1.07-2.38-2.38-2.38s-2.38,1.07-2.38,2.38,1.07,2.38,2.38,2.38,2.38-1.07,2.38-2.38Z"/><path class="cls-1" d="M927.04,66.97c0-1.32-1.07-2.38-2.38-2.38s-2.38,1.07-2.38,2.38,1.07,2.38,2.38,2.38,2.38-1.07,2.38-2.38Z"/><path class="cls-1" d="M927.04,79.31c0-1.32-1.07-2.38-2.38-2.38s-2.38,1.07-2.38,2.38,1.07,2.38,2.38,2.38,2.38-1.07,2.38-2.38Z"/><path class="cls-1" d="M927.04,85.47c0-1.32-1.07-2.38-2.38-2.38s-2.38,1.07-2.38,2.38,1.07,2.38,2.38,2.38,2.38-1.07,2.38-2.38Z"/><path class="cls-1" d="M920.83,60.77c0-1.32-1.07-2.38-2.38-2.38s-2.38,1.07-2.38,2.38,1.07,2.38,2.38,2.38,2.38-1.07,2.38-2.38Z"/><path class="cls-1" d="M920.83,73.1c0-1.32-1.07-2.38-2.38-2.38s-2.38,1.07-2.38,2.38,1.07,2.38,2.38,2.38,2.38-1.07,2.38-2.38Z"/><path class="cls-1" d="M920.83,66.94c0-1.32-1.07-2.38-2.38-2.38s-2.38,1.07-2.38,2.38,1.07,2.38,2.38,2.38,2.38-1.07,2.38-2.38Z"/><path class="cls-1" d="M920.83,79.27c0-1.32-1.07-2.38-2.38-2.38s-2.38,1.07-2.38,2.38,1.07,2.38,2.38,2.38,2.38-1.07,2.38-2.38Z"/><path class="cls-1" d="M920.83,85.44c0-1.32-1.07-2.38-2.38-2.38s-2.38,1.07-2.38,2.38,1.07,2.38,2.38,2.38,2.38-1.07,2.38-2.38Z"/><path class="cls-1" d="M914.62,60.73c0-1.32-1.07-2.38-2.38-2.38s-2.38,1.07-2.38,2.38,1.07,2.38,2.38,2.38,2.38-1.07,2.38-2.38Z"/><path class="cls-1" d="M914.62,73.07c0-1.32-1.07-2.38-2.38-2.38s-2.38,1.07-2.38,2.38,1.07,2.38,2.38,2.38,2.38-1.07,2.38-2.38Z"/><path class="cls-1" d="M914.62,66.9c0-1.32-1.07-2.38-2.38-2.38s-2.38,1.07-2.38,2.38,1.07,2.38,2.38,2.38,2.38-1.07,2.38-2.38Z"/><path class="cls-1" d="M914.62,79.23c0-1.32-1.07-2.38-2.38-2.38s-2.38,1.07-2.38,2.38,1.07,2.38,2.38,2.38,2.38-1.07,2.38-2.38Z"/><path class="cls-1" d="M914.62,85.4c0-1.32-1.07-2.38-2.38-2.38s-2.38,1.07-2.38,2.38,1.07,2.38,2.38,2.38,2.38-1.07,2.38-2.38Z"/><path class="cls-1" d="M908.42,60.7c0-1.32-1.07-2.38-2.38-2.38s-2.38,1.07-2.38,2.38,1.07,2.38,2.38,2.38,2.38-1.07,2.38-2.38Z"/><path class="cls-1" d="M908.42,73.03c0-1.32-1.07-2.38-2.38-2.38s-2.38,1.07-2.38,2.38,1.07,2.38,2.38,2.38,2.38-1.07,2.38-2.38Z"/><circle class="cls-1" cx="906.03" cy="66.86" r="2.38"/><path class="cls-1" d="M908.42,79.2c0-1.32-1.07-2.38-2.38-2.38s-2.38,1.07-2.38,2.38,1.07,2.38,2.38,2.38,2.38-1.07,2.38-2.38Z"/><path class="cls-1" d="M908.42,85.36c0-1.32-1.07-2.38-2.38-2.38s-2.38,1.07-2.38,2.38,1.07,2.38,2.38,2.38,2.38-1.07,2.38-2.38Z"/><path class="cls-1" d="M902.21,60.66c0-1.32-1.07-2.38-2.38-2.38s-2.38,1.07-2.38,2.38,1.07,2.38,2.38,2.38,2.38-1.07,2.38-2.38Z"/><path class="cls-1" d="M902.21,72.99c0-1.32-1.07-2.38-2.38-2.38s-2.38,1.07-2.38,2.38,1.07,2.38,2.38,2.38,2.38-1.07,2.38-2.38Z"/><path class="cls-1" d="M902.21,66.83c0-1.32-1.07-2.38-2.38-2.38s-2.38,1.07-2.38,2.38,1.07,2.38,2.38,2.38,2.38-1.07,2.38-2.38Z"/><path class="cls-1" d="M902.21,79.16c0-1.32-1.07-2.38-2.38-2.38s-2.38,1.07-2.38,2.38,1.07,2.38,2.38,2.38,2.38-1.07,2.38-2.38Z"/><path class="cls-1" d="M902.21,85.33c0-1.32-1.07-2.38-2.38-2.38s-2.38,1.07-2.38,2.38,1.07,2.38,2.38,2.38,2.38-1.07,2.38-2.38Z"/><path class="cls-1" d="M896.01,60.62c0-1.32-1.07-2.38-2.38-2.38s-2.38,1.07-2.38,2.38,1.07,2.38,2.38,2.38,2.38-1.07,2.38-2.38Z"/><path class="cls-1" d="M896.01,72.96c0-1.32-1.07-2.38-2.38-2.38s-2.38,1.07-2.38,2.38,1.07,2.38,2.38,2.38,2.38-1.07,2.38-2.38Z"/><path class="cls-1" d="M896.01,66.79c0-1.32-1.07-2.38-2.38-2.38s-2.38,1.07-2.38,2.38,1.07,2.38,2.38,2.38,2.38-1.07,2.38-2.38Z"/><path class="cls-1" d="M896.01,79.13c0-1.32-1.07-2.38-2.38-2.38s-2.38,1.07-2.38,2.38,1.07,2.38,2.38,2.38,2.38-1.07,2.38-2.38Z"/><path class="cls-1" d="M896.01,85.29c0-1.32-1.07-2.38-2.38-2.38s-2.38,1.07-2.38,2.38,1.07,2.38,2.38,2.38,2.38-1.07,2.38-2.38Z"/><path class="cls-1" d="M889.8,60.59c0-1.32-1.07-2.38-2.38-2.38s-2.38,1.07-2.38,2.38,1.07,2.38,2.38,2.38,2.38-1.07,2.38-2.38Z"/><path class="cls-1" d="M889.8,72.92c0-1.32-1.07-2.38-2.38-2.38s-2.38,1.07-2.38,2.38,1.07,2.38,2.38,2.38,2.38-1.07,2.38-2.38Z"/><path class="cls-1" d="M889.8,66.75c0-1.32-1.07-2.38-2.38-2.38s-2.38,1.07-2.38,2.38,1.07,2.38,2.38,2.38,2.38-1.07,2.38-2.38Z"/><path class="cls-1" d="M889.8,79.09c0-1.32-1.07-2.38-2.38-2.38s-2.38,1.07-2.38,2.38,1.07,2.38,2.38,2.38,2.38-1.07,2.38-2.38Z"/><circle class="cls-1" cx="887.42" cy="85.26" r="2.38"/><circle class="cls-1" cx="881.21" cy="60.55" r="2.38"/><path class="cls-1" d="M883.59,72.89c0-1.32-1.07-2.38-2.38-2.38s-2.38,1.07-2.38,2.38,1.07,2.38,2.38,2.38,2.38-1.07,2.38-2.38Z"/><path class="cls-1" d="M883.59,66.72c0-1.32-1.07-2.38-2.38-2.38s-2.38,1.07-2.38,2.38,1.07,2.38,2.38,2.38,2.38-1.07,2.38-2.38Z"/><path class="cls-1" d="M883.59,79.05c0-1.32-1.07-2.38-2.38-2.38s-2.38,1.07-2.38,2.38,1.07,2.38,2.38,2.38,2.38-1.07,2.38-2.38Z"/><path class="cls-1" d="M883.59,85.22c0-1.32-1.07-2.38-2.38-2.38s-2.38,1.07-2.38,2.38,1.07,2.38,2.38,2.38,2.38-1.07,2.38-2.38Z"/><path class="cls-1" d="M877.39,60.51c0-1.32-1.07-2.38-2.38-2.38s-2.38,1.07-2.38,2.38,1.07,2.38,2.38,2.38,2.38-1.07,2.38-2.38Z"/><path class="cls-1" d="M877.39,72.85c0-1.32-1.07-2.38-2.38-2.38s-2.38,1.07-2.38,2.38,1.07,2.38,2.38,2.38,2.38-1.07,2.38-2.38Z"/><path class="cls-1" d="M877.39,66.68c0-1.32-1.07-2.38-2.38-2.38s-2.38,1.07-2.38,2.38,1.07,2.38,2.38,2.38,2.38-1.07,2.38-2.38Z"/><circle class="cls-1" cx="875" cy="79.02" r="2.38"/><path class="cls-1" d="M877.39,85.18c0-1.32-1.07-2.38-2.38-2.38s-2.38,1.07-2.38,2.38,1.07,2.38,2.38,2.38,2.38-1.07,2.38-2.38Z"/><path class="cls-1" d="M871.18,60.48c0-1.32-1.07-2.38-2.38-2.38s-2.38,1.07-2.38,2.38,1.07,2.38,2.38,2.38,2.38-1.07,2.38-2.38Z"/><path class="cls-1" d="M871.18,72.81c0-1.32-1.07-2.38-2.38-2.38s-2.38,1.07-2.38,2.38,1.07,2.38,2.38,2.38,2.38-1.07,2.38-2.38Z"/><path class="cls-1" d="M871.18,66.65c0-1.32-1.07-2.38-2.38-2.38s-2.38,1.07-2.38,2.38,1.07,2.38,2.38,2.38,2.38-1.07,2.38-2.38Z"/><path class="cls-1" d="M871.18,78.98c0-1.32-1.07-2.38-2.38-2.38s-2.38,1.07-2.38,2.38,1.07,2.38,2.38,2.38,2.38-1.07,2.38-2.38Z"/><path class="cls-1" d="M871.18,85.15c0-1.32-1.07-2.38-2.38-2.38s-2.38,1.07-2.38,2.38,1.07,2.38,2.38,2.38,2.38-1.07,2.38-2.38Z"/><path class="cls-1" d="M1020.12,92.39c0-1.32-1.07-2.38-2.38-2.38s-2.38,1.07-2.38,2.38,1.07,2.38,2.38,2.38,2.38-1.07,2.38-2.38Z"/><path class="cls-1" d="M1020.12,104.73c0-1.32-1.07-2.38-2.38-2.38s-2.38,1.07-2.38,2.38,1.07,2.38,2.38,2.38,2.38-1.07,2.38-2.38Z"/><path class="cls-1" d="M1020.12,98.56c0-1.32-1.07-2.38-2.38-2.38s-2.38,1.07-2.38,2.38,1.07,2.38,2.38,2.38,2.38-1.07,2.38-2.38Z"/><path class="cls-1" d="M1020.12,110.89c0-1.32-1.07-2.38-2.38-2.38s-2.38,1.07-2.38,2.38,1.07,2.38,2.38,2.38,2.38-1.07,2.38-2.38Z"/><path class="cls-1" d="M1020.12,117.06c0-1.32-1.07-2.38-2.38-2.38s-2.38,1.07-2.38,2.38,1.07,2.38,2.38,2.38,2.38-1.07,2.38-2.38Z"/><path class="cls-1" d="M1013.92,92.36c0-1.32-1.07-2.38-2.38-2.38s-2.38,1.07-2.38,2.38,1.07,2.38,2.38,2.38,2.38-1.07,2.38-2.38Z"/><path class="cls-1" d="M1013.92,104.69c0-1.32-1.07-2.38-2.38-2.38s-2.38,1.07-2.38,2.38,1.07,2.38,2.38,2.38,2.38-1.07,2.38-2.38Z"/><circle class="cls-1" cx="1011.54" cy="98.52" r="2.38"/><path class="cls-1" d="M1013.92,110.86c0-1.32-1.07-2.38-2.38-2.38s-2.38,1.07-2.38,2.38,1.07,2.38,2.38,2.38,2.38-1.07,2.38-2.38Z"/><path class="cls-1" d="M1013.92,117.02c0-1.32-1.07-2.38-2.38-2.38s-2.38,1.07-2.38,2.38,1.07,2.38,2.38,2.38,2.38-1.07,2.38-2.38Z"/><path class="cls-1" d="M1007.71,92.32c0-1.32-1.07-2.38-2.38-2.38s-2.38,1.07-2.38,2.38,1.07,2.38,2.38,2.38,2.38-1.07,2.38-2.38Z"/><path class="cls-1" d="M1007.71,104.65c0-1.32-1.07-2.38-2.38-2.38s-2.38,1.07-2.38,2.38,1.07,2.38,2.38,2.38,2.38-1.07,2.38-2.38Z"/><path class="cls-1" d="M1007.71,98.49c0-1.32-1.07-2.38-2.38-2.38s-2.38,1.07-2.38,2.38,1.07,2.38,2.38,2.38,2.38-1.07,2.38-2.38Z"/><path class="cls-1" d="M1007.71,110.82c0-1.32-1.07-2.38-2.38-2.38s-2.38,1.07-2.38,2.38,1.07,2.38,2.38,2.38,2.38-1.07,2.38-2.38Z"/><path class="cls-1" d="M1007.71,116.99c0-1.32-1.07-2.38-2.38-2.38s-2.38,1.07-2.38,2.38,1.07,2.38,2.38,2.38,2.38-1.07,2.38-2.38Z"/><path class="cls-1" d="M1001.51,92.28c0-1.32-1.07-2.38-2.38-2.38s-2.38,1.07-2.38,2.38,1.07,2.38,2.38,2.38,2.38-1.07,2.38-2.38Z"/><path class="cls-1" d="M1001.51,104.62c0-1.32-1.07-2.38-2.38-2.38s-2.38,1.07-2.38,2.38,1.07,2.38,2.38,2.38,2.38-1.07,2.38-2.38Z"/><circle class="cls-1" cx="999.12" cy="98.45" r="2.38"/><path class="cls-1" d="M1001.51,110.78c0-1.32-1.07-2.38-2.38-2.38s-2.38,1.07-2.38,2.38,1.07,2.38,2.38,2.38,2.38-1.07,2.38-2.38Z"/><path class="cls-1" d="M1001.51,116.95c0-1.32-1.07-2.38-2.38-2.38s-2.38,1.07-2.38,2.38,1.07,2.38,2.38,2.38,2.38-1.07,2.38-2.38Z"/><path class="cls-1" d="M995.3,92.25c0-1.32-1.07-2.38-2.38-2.38s-2.38,1.07-2.38,2.38,1.07,2.38,2.38,2.38,2.38-1.07,2.38-2.38Z"/><path class="cls-1" d="M995.3,104.58c0-1.32-1.07-2.38-2.38-2.38s-2.38,1.07-2.38,2.38,1.07,2.38,2.38,2.38,2.38-1.07,2.38-2.38Z"/><path class="cls-1" d="M995.3,98.41c0-1.32-1.07-2.38-2.38-2.38s-2.38,1.07-2.38,2.38,1.07,2.38,2.38,2.38,2.38-1.07,2.38-2.38Z"/><path class="cls-1" d="M995.3,110.75c0-1.32-1.07-2.38-2.38-2.38s-2.38,1.07-2.38,2.38,1.07,2.38,2.38,2.38,2.38-1.07,2.38-2.38Z"/><circle class="cls-1" cx="992.92" cy="116.91" r="2.38"/><circle class="cls-1" cx="986.71" cy="92.21" r="2.38"/><path class="cls-1" d="M989.1,104.54c0-1.32-1.07-2.38-2.38-2.38s-2.38,1.07-2.38,2.38,1.07,2.38,2.38,2.38,2.38-1.07,2.38-2.38Z"/><path class="cls-1" d="M989.1,98.38c0-1.32-1.07-2.38-2.38-2.38s-2.38,1.07-2.38,2.38,1.07,2.38,2.38,2.38,2.38-1.07,2.38-2.38Z"/><path class="cls-1" d="M989.1,110.71c0-1.32-1.07-2.38-2.38-2.38s-2.38,1.07-2.38,2.38,1.07,2.38,2.38,2.38,2.38-1.07,2.38-2.38Z"/><circle class="cls-1" cx="986.71" cy="116.88" r="2.38"/><path class="cls-1" d="M982.89,92.17c0-1.32-1.07-2.38-2.38-2.38s-2.38,1.07-2.38,2.38,1.07,2.38,2.38,2.38,2.38-1.07,2.38-2.38Z"/><path class="cls-1" d="M982.89,104.51c0-1.32-1.07-2.38-2.38-2.38s-2.38,1.07-2.38,2.38,1.07,2.38,2.38,2.38,2.38-1.07,2.38-2.38Z"/><path class="cls-1" d="M982.89,98.34c0-1.32-1.07-2.38-2.38-2.38s-2.38,1.07-2.38,2.38,1.07,2.38,2.38,2.38,2.38-1.07,2.38-2.38Z"/><path class="cls-1" d="M982.89,110.68c0-1.32-1.07-2.38-2.38-2.38s-2.38,1.07-2.38,2.38,1.07,2.38,2.38,2.38,2.38-1.07,2.38-2.38Z"/><path class="cls-1" d="M982.89,116.84c0-1.32-1.07-2.38-2.38-2.38s-2.38,1.07-2.38,2.38,1.07,2.38,2.38,2.38,2.38-1.07,2.38-2.38Z"/><path class="cls-1" d="M976.68,92.14c0-1.32-1.07-2.38-2.38-2.38s-2.38,1.07-2.38,2.38,1.07,2.38,2.38,2.38,2.38-1.07,2.38-2.38Z"/><path class="cls-1" d="M976.68,104.47c0-1.32-1.07-2.38-2.38-2.38s-2.38,1.07-2.38,2.38,1.07,2.38,2.38,2.38,2.38-1.07,2.38-2.38Z"/><path class="cls-1" d="M976.68,98.3c0-1.32-1.07-2.38-2.38-2.38s-2.38,1.07-2.38,2.38,1.07,2.38,2.38,2.38,2.38-1.07,2.38-2.38Z"/><path class="cls-1" d="M976.68,110.64c0-1.32-1.07-2.38-2.38-2.38s-2.38,1.07-2.38,2.38,1.07,2.38,2.38,2.38,2.38-1.07,2.38-2.38Z"/><path class="cls-1" d="M976.68,116.81c0-1.32-1.07-2.38-2.38-2.38s-2.38,1.07-2.38,2.38,1.07,2.38,2.38,2.38,2.38-1.07,2.38-2.38Z"/><path class="cls-1" d="M970.48,92.1c0-1.32-1.07-2.38-2.38-2.38s-2.38,1.07-2.38,2.38,1.07,2.38,2.38,2.38,2.38-1.07,2.38-2.38Z"/><path class="cls-1" d="M970.48,104.44c0-1.32-1.07-2.38-2.38-2.38s-2.38,1.07-2.38,2.38,1.07,2.38,2.38,2.38,2.38-1.07,2.38-2.38Z"/><path class="cls-1" d="M970.48,98.27c0-1.32-1.07-2.38-2.38-2.38s-2.38,1.07-2.38,2.38,1.07,2.38,2.38,2.38,2.38-1.07,2.38-2.38Z"/><circle class="cls-1" cx="968.09" cy="110.6" r="2.38"/><path class="cls-1" d="M970.48,116.77c0-1.32-1.07-2.38-2.38-2.38s-2.38,1.07-2.38,2.38,1.07,2.38,2.38,2.38,2.38-1.07,2.38-2.38Z"/><path class="cls-1" d="M964.27,92.06c0-1.32-1.07-2.38-2.38-2.38s-2.38,1.07-2.38,2.38,1.07,2.38,2.38,2.38,2.38-1.07,2.38-2.38Z"/><path class="cls-1" d="M964.27,104.4c0-1.32-1.07-2.38-2.38-2.38s-2.38,1.07-2.38,2.38,1.07,2.38,2.38,2.38,2.38-1.07,2.38-2.38Z"/><path class="cls-1" d="M964.27,98.23c0-1.32-1.07-2.38-2.38-2.38s-2.38,1.07-2.38,2.38,1.07,2.38,2.38,2.38,2.38-1.07,2.38-2.38Z"/><path class="cls-1" d="M964.27,110.57c0-1.32-1.07-2.38-2.38-2.38s-2.38,1.07-2.38,2.38,1.07,2.38,2.38,2.38,2.38-1.07,2.38-2.38Z"/><path class="cls-1" d="M964.27,116.73c0-1.32-1.07-2.38-2.38-2.38s-2.38,1.07-2.38,2.38,1.07,2.38,2.38,2.38,2.38-1.07,2.38-2.38Z"/><path class="cls-1" d="M958.07,92.03c0-1.32-1.07-2.38-2.38-2.38s-2.38,1.07-2.38,2.38,1.07,2.38,2.38,2.38,2.38-1.07,2.38-2.38Z"/><path class="cls-1" d="M958.07,104.36c0-1.32-1.07-2.38-2.38-2.38s-2.38,1.07-2.38,2.38,1.07,2.38,2.38,2.38,2.38-1.07,2.38-2.38Z"/><path class="cls-1" d="M958.07,98.19c0-1.32-1.07-2.38-2.38-2.38s-2.38,1.07-2.38,2.38,1.07,2.38,2.38,2.38,2.38-1.07,2.38-2.38Z"/><path class="cls-1" d="M958.07,110.53c0-1.32-1.07-2.38-2.38-2.38s-2.38,1.07-2.38,2.38,1.07,2.38,2.38,2.38,2.38-1.07,2.38-2.38Z"/><path class="cls-1" d="M958.07,116.7c0-1.32-1.07-2.38-2.38-2.38s-2.38,1.07-2.38,2.38,1.07,2.38,2.38,2.38,2.38-1.07,2.38-2.38Z"/><path class="cls-1" d="M951.86,91.99c0-1.32-1.07-2.38-2.38-2.38s-2.38,1.07-2.38,2.38,1.07,2.38,2.38,2.38,2.38-1.07,2.38-2.38Z"/><path class="cls-1" d="M951.86,104.33c0-1.32-1.07-2.38-2.38-2.38s-2.38,1.07-2.38,2.38,1.07,2.38,2.38,2.38,2.38-1.07,2.38-2.38Z"/><path class="cls-1" d="M951.86,98.16c0-1.32-1.07-2.38-2.38-2.38s-2.38,1.07-2.38,2.38,1.07,2.38,2.38,2.38,2.38-1.07,2.38-2.38Z"/><path class="cls-1" d="M951.86,110.49c0-1.32-1.07-2.38-2.38-2.38s-2.38,1.07-2.38,2.38,1.07,2.38,2.38,2.38,2.38-1.07,2.38-2.38Z"/><path class="cls-1" d="M951.86,116.66c0-1.32-1.07-2.38-2.38-2.38s-2.38,1.07-2.38,2.38,1.07,2.38,2.38,2.38,2.38-1.07,2.38-2.38Z"/><path class="cls-1" d="M945.65,91.95c0-1.32-1.07-2.38-2.38-2.38s-2.38,1.07-2.38,2.38,1.07,2.38,2.38,2.38,2.38-1.07,2.38-2.38Z"/><circle class="cls-1" cx="943.27" cy="104.29" r="2.38"/><path class="cls-1" d="M945.65,98.12c0-1.32-1.07-2.38-2.38-2.38s-2.38,1.07-2.38,2.38,1.07,2.38,2.38,2.38,2.38-1.07,2.38-2.38Z"/><path class="cls-1" d="M945.65,110.46c0-1.32-1.07-2.38-2.38-2.38s-2.38,1.07-2.38,2.38,1.07,2.38,2.38,2.38,2.38-1.07,2.38-2.38Z"/><path class="cls-1" d="M945.65,116.62c0-1.32-1.07-2.38-2.38-2.38s-2.38,1.07-2.38,2.38,1.07,2.38,2.38,2.38,2.38-1.07,2.38-2.38Z"/><path class="cls-1" d="M939.45,91.92c0-1.32-1.07-2.38-2.38-2.38s-2.38,1.07-2.38,2.38,1.07,2.38,2.38,2.38,2.38-1.07,2.38-2.38Z"/><path class="cls-1" d="M939.45,104.25c0-1.32-1.07-2.38-2.38-2.38s-2.38,1.07-2.38,2.38,1.07,2.38,2.38,2.38,2.38-1.07,2.38-2.38Z"/><path class="cls-1" d="M939.45,98.09c0-1.32-1.07-2.38-2.38-2.38s-2.38,1.07-2.38,2.38,1.07,2.38,2.38,2.38,2.38-1.07,2.38-2.38Z"/><path class="cls-1" d="M939.45,110.42c0-1.32-1.07-2.38-2.38-2.38s-2.38,1.07-2.38,2.38,1.07,2.38,2.38,2.38,2.38-1.07,2.38-2.38Z"/><path class="cls-1" d="M939.45,116.59c0-1.32-1.07-2.38-2.38-2.38s-2.38,1.07-2.38,2.38,1.07,2.38,2.38,2.38,2.38-1.07,2.38-2.38Z"/><path class="cls-1" d="M933.24,91.88c0-1.32-1.07-2.38-2.38-2.38s-2.38,1.07-2.38,2.38,1.07,2.38,2.38,2.38,2.38-1.07,2.38-2.38Z"/><circle class="cls-1" cx="930.86" cy="104.22" r="2.38"/><path class="cls-1" d="M933.24,98.05c0-1.32-1.07-2.38-2.38-2.38s-2.38,1.07-2.38,2.38,1.07,2.38,2.38,2.38,2.38-1.07,2.38-2.38Z"/><path class="cls-1" d="M933.24,110.38c0-1.32-1.07-2.38-2.38-2.38s-2.38,1.07-2.38,2.38,1.07,2.38,2.38,2.38,2.38-1.07,2.38-2.38Z"/><path class="cls-1" d="M933.24,116.55c0-1.32-1.07-2.38-2.38-2.38s-2.38,1.07-2.38,2.38,1.07,2.38,2.38,2.38,2.38-1.07,2.38-2.38Z"/><path class="cls-1" d="M927.04,91.85c0-1.32-1.07-2.38-2.38-2.38s-2.38,1.07-2.38,2.38,1.07,2.38,2.38,2.38,2.38-1.07,2.38-2.38Z"/><path class="cls-1" d="M927.04,104.18c0-1.32-1.07-2.38-2.38-2.38s-2.38,1.07-2.38,2.38,1.07,2.38,2.38,2.38,2.38-1.07,2.38-2.38Z"/><path class="cls-1" d="M927.04,98.01c0-1.32-1.07-2.38-2.38-2.38s-2.38,1.07-2.38,2.38,1.07,2.38,2.38,2.38,2.38-1.07,2.38-2.38Z"/><path class="cls-1" d="M927.04,110.35c0-1.32-1.07-2.38-2.38-2.38s-2.38,1.07-2.38,2.38,1.07,2.38,2.38,2.38,2.38-1.07,2.38-2.38Z"/><path class="cls-1" d="M927.04,116.51c0-1.32-1.07-2.38-2.38-2.38s-2.38,1.07-2.38,2.38,1.07,2.38,2.38,2.38,2.38-1.07,2.38-2.38Z"/><path class="cls-1" d="M920.83,91.81c0-1.32-1.07-2.38-2.38-2.38s-2.38,1.07-2.38,2.38,1.07,2.38,2.38,2.38,2.38-1.07,2.38-2.38Z"/><path class="cls-1" d="M920.83,104.14c0-1.32-1.07-2.38-2.38-2.38s-2.38,1.07-2.38,2.38,1.07,2.38,2.38,2.38,2.38-1.07,2.38-2.38Z"/><path class="cls-1" d="M920.83,97.98c0-1.32-1.07-2.38-2.38-2.38s-2.38,1.07-2.38,2.38,1.07,2.38,2.38,2.38,2.38-1.07,2.38-2.38Z"/><path class="cls-1" d="M920.83,110.31c0-1.32-1.07-2.38-2.38-2.38s-2.38,1.07-2.38,2.38,1.07,2.38,2.38,2.38,2.38-1.07,2.38-2.38Z"/><path class="cls-1" d="M920.83,116.48c0-1.32-1.07-2.38-2.38-2.38s-2.38,1.07-2.38,2.38,1.07,2.38,2.38,2.38,2.38-1.07,2.38-2.38Z"/><path class="cls-1" d="M914.62,91.77c0-1.32-1.07-2.38-2.38-2.38s-2.38,1.07-2.38,2.38,1.07,2.38,2.38,2.38,2.38-1.07,2.38-2.38Z"/><path class="cls-1" d="M914.62,104.11c0-1.32-1.07-2.38-2.38-2.38s-2.38,1.07-2.38,2.38,1.07,2.38,2.38,2.38,2.38-1.07,2.38-2.38Z"/><path class="cls-1" d="M914.62,97.94c0-1.32-1.07-2.38-2.38-2.38s-2.38,1.07-2.38,2.38,1.07,2.38,2.38,2.38,2.38-1.07,2.38-2.38Z"/><path class="cls-1" d="M914.62,110.27c0-1.32-1.07-2.38-2.38-2.38s-2.38,1.07-2.38,2.38,1.07,2.38,2.38,2.38,2.38-1.07,2.38-2.38Z"/><path class="cls-1" d="M914.62,116.44c0-1.32-1.07-2.38-2.38-2.38s-2.38,1.07-2.38,2.38,1.07,2.38,2.38,2.38,2.38-1.07,2.38-2.38Z"/><path class="cls-1" d="M908.42,91.74c0-1.32-1.07-2.38-2.38-2.38s-2.38,1.07-2.38,2.38,1.07,2.38,2.38,2.38,2.38-1.07,2.38-2.38Z"/><path class="cls-1" d="M908.42,104.07c0-1.32-1.07-2.38-2.38-2.38s-2.38,1.07-2.38,2.38,1.07,2.38,2.38,2.38,2.38-1.07,2.38-2.38Z"/><circle class="cls-1" cx="906.03" cy="97.9" r="2.38"/><path class="cls-1" d="M908.42,110.24c0-1.32-1.07-2.38-2.38-2.38s-2.38,1.07-2.38,2.38,1.07,2.38,2.38,2.38,2.38-1.07,2.38-2.38Z"/><path class="cls-1" d="M908.42,116.41c0-1.32-1.07-2.38-2.38-2.38s-2.38,1.07-2.38,2.38,1.07,2.38,2.38,2.38,2.38-1.07,2.38-2.38Z"/><path class="cls-1" d="M902.21,91.7c0-1.32-1.07-2.38-2.38-2.38s-2.38,1.07-2.38,2.38,1.07,2.38,2.38,2.38,2.38-1.07,2.38-2.38Z"/><path class="cls-1" d="M902.21,104.03c0-1.32-1.07-2.38-2.38-2.38s-2.38,1.07-2.38,2.38,1.07,2.38,2.38,2.38,2.38-1.07,2.38-2.38Z"/><path class="cls-1" d="M902.21,97.87c0-1.32-1.07-2.38-2.38-2.38s-2.38,1.07-2.38,2.38,1.07,2.38,2.38,2.38,2.38-1.07,2.38-2.38Z"/><path class="cls-1" d="M902.21,110.2c0-1.32-1.07-2.38-2.38-2.38s-2.38,1.07-2.38,2.38,1.07,2.38,2.38,2.38,2.38-1.07,2.38-2.38Z"/><path class="cls-1" d="M902.21,116.37c0-1.32-1.07-2.38-2.38-2.38s-2.38,1.07-2.38,2.38,1.07,2.38,2.38,2.38,2.38-1.07,2.38-2.38Z"/><path class="cls-1" d="M896.01,91.66c0-1.32-1.07-2.38-2.38-2.38s-2.38,1.07-2.38,2.38,1.07,2.38,2.38,2.38,2.38-1.07,2.38-2.38Z"/><path class="cls-1" d="M896.01,104c0-1.32-1.07-2.38-2.38-2.38s-2.38,1.07-2.38,2.38,1.07,2.38,2.38,2.38,2.38-1.07,2.38-2.38Z"/><path class="cls-1" d="M896.01,97.83c0-1.32-1.07-2.38-2.38-2.38s-2.38,1.07-2.38,2.38,1.07,2.38,2.38,2.38,2.38-1.07,2.38-2.38Z"/><path class="cls-1" d="M896.01,110.17c0-1.32-1.07-2.38-2.38-2.38s-2.38,1.07-2.38,2.38,1.07,2.38,2.38,2.38,2.38-1.07,2.38-2.38Z"/><path class="cls-1" d="M896.01,116.33c0-1.32-1.07-2.38-2.38-2.38s-2.38,1.07-2.38,2.38,1.07,2.38,2.38,2.38,2.38-1.07,2.38-2.38Z"/><path class="cls-1" d="M889.8,91.63c0-1.32-1.07-2.38-2.38-2.38s-2.38,1.07-2.38,2.38,1.07,2.38,2.38,2.38,2.38-1.07,2.38-2.38Z"/><path class="cls-1" d="M889.8,103.96c0-1.32-1.07-2.38-2.38-2.38s-2.38,1.07-2.38,2.38,1.07,2.38,2.38,2.38,2.38-1.07,2.38-2.38Z"/><path class="cls-1" d="M889.8,97.79c0-1.32-1.07-2.38-2.38-2.38s-2.38,1.07-2.38,2.38,1.07,2.38,2.38,2.38,2.38-1.07,2.38-2.38Z"/><path class="cls-1" d="M889.8,110.13c0-1.32-1.07-2.38-2.38-2.38s-2.38,1.07-2.38,2.38,1.07,2.38,2.38,2.38,2.38-1.07,2.38-2.38Z"/><circle class="cls-1" cx="887.42" cy="116.3" r="2.38"/><circle class="cls-1" cx="881.21" cy="91.59" r="2.38"/><path class="cls-1" d="M883.59,103.93c0-1.32-1.07-2.38-2.38-2.38s-2.38,1.07-2.38,2.38,1.07,2.38,2.38,2.38,2.38-1.07,2.38-2.38Z"/><path class="cls-1" d="M883.59,97.76c0-1.32-1.07-2.38-2.38-2.38s-2.38,1.07-2.38,2.38,1.07,2.38,2.38,2.38,2.38-1.07,2.38-2.38Z"/><path class="cls-1" d="M883.59,110.09c0-1.32-1.07-2.38-2.38-2.38s-2.38,1.07-2.38,2.38,1.07,2.38,2.38,2.38,2.38-1.07,2.38-2.38Z"/><path class="cls-1" d="M883.59,116.26c0-1.32-1.07-2.38-2.38-2.38s-2.38,1.07-2.38,2.38,1.07,2.38,2.38,2.38,2.38-1.07,2.38-2.38Z"/><path class="cls-1" d="M877.39,91.55c0-1.32-1.07-2.38-2.38-2.38s-2.38,1.07-2.38,2.38,1.07,2.38,2.38,2.38,2.38-1.07,2.38-2.38Z"/><path class="cls-1" d="M877.39,103.89c0-1.32-1.07-2.38-2.38-2.38s-2.38,1.07-2.38,2.38,1.07,2.38,2.38,2.38,2.38-1.07,2.38-2.38Z"/><path class="cls-1" d="M877.39,97.72c0-1.32-1.07-2.38-2.38-2.38s-2.38,1.07-2.38,2.38,1.07,2.38,2.38,2.38,2.38-1.07,2.38-2.38Z"/><circle class="cls-1" cx="875" cy="110.06" r="2.38"/><path class="cls-1" d="M877.39,116.22c0-1.32-1.07-2.38-2.38-2.38s-2.38,1.07-2.38,2.38,1.07,2.38,2.38,2.38,2.38-1.07,2.38-2.38Z"/><path class="cls-1" d="M871.18,91.52c0-1.32-1.07-2.38-2.38-2.38s-2.38,1.07-2.38,2.38,1.07,2.38,2.38,2.38,2.38-1.07,2.38-2.38Z"/><path class="cls-1" d="M871.18,103.85c0-1.32-1.07-2.38-2.38-2.38s-2.38,1.07-2.38,2.38,1.07,2.38,2.38,2.38,2.38-1.07,2.38-2.38Z"/><path class="cls-1" d="M871.18,97.69c0-1.32-1.07-2.38-2.38-2.38s-2.38,1.07-2.38,2.38,1.07,2.38,2.38,2.38,2.38-1.07,2.38-2.38Z"/><path class="cls-1" d="M871.18,110.02c0-1.32-1.07-2.38-2.38-2.38s-2.38,1.07-2.38,2.38,1.07,2.38,2.38,2.38,2.38-1.07,2.38-2.38Z"/><path class="cls-1" d="M871.18,116.19c0-1.32-1.07-2.38-2.38-2.38s-2.38,1.07-2.38,2.38,1.07,2.38,2.38,2.38,2.38-1.07,2.38-2.38Z"/></g><g><path class="cls-1" d="M153.71,3.26c0-1.32-1.07-2.38-2.38-2.38s-2.38,1.07-2.38,2.38,1.07,2.38,2.38,2.38,2.38-1.07,2.38-2.38Z"/><path class="cls-1" d="M153.71,15.59c0-1.32-1.07-2.38-2.38-2.38s-2.38,1.07-2.38,2.38,1.07,2.38,2.38,2.38,2.38-1.07,2.38-2.38Z"/><path class="cls-1" d="M153.71,9.42c0-1.32-1.07-2.38-2.38-2.38s-2.38,1.07-2.38,2.38,1.07,2.38,2.38,2.38,2.38-1.07,2.38-2.38Z"/><path class="cls-1" d="M153.71,21.76c0-1.32-1.07-2.38-2.38-2.38s-2.38,1.07-2.38,2.38,1.07,2.38,2.38,2.38,2.38-1.07,2.38-2.38Z"/><path class="cls-1" d="M153.71,27.93c0-1.32-1.07-2.38-2.38-2.38s-2.38,1.07-2.38,2.38,1.07,2.38,2.38,2.38,2.38-1.07,2.38-2.38Z"/><path class="cls-1" d="M147.51,3.22c0-1.32-1.07-2.38-2.38-2.38s-2.38,1.07-2.38,2.38,1.07,2.38,2.38,2.38,2.38-1.07,2.38-2.38Z"/><path class="cls-1" d="M147.51,15.55c0-1.32-1.07-2.38-2.38-2.38s-2.38,1.07-2.38,2.38,1.07,2.38,2.38,2.38,2.38-1.07,2.38-2.38Z"/><circle class="cls-1" cx="145.12" cy="9.39" r="2.38"/><path class="cls-1" d="M147.51,21.72c0-1.32-1.07-2.38-2.38-2.38s-2.38,1.07-2.38,2.38,1.07,2.38,2.38,2.38,2.38-1.07,2.38-2.38Z"/><path class="cls-1" d="M147.51,27.89c0-1.32-1.07-2.38-2.38-2.38s-2.38,1.07-2.38,2.38,1.07,2.38,2.38,2.38,2.38-1.07,2.38-2.38Z"/><path class="cls-1" d="M141.3,3.18c0-1.32-1.07-2.38-2.38-2.38s-2.38,1.07-2.38,2.38,1.07,2.38,2.38,2.38,2.38-1.07,2.38-2.38Z"/><path class="cls-1" d="M141.3,15.52c0-1.32-1.07-2.38-2.38-2.38s-2.38,1.07-2.38,2.38,1.07,2.38,2.38,2.38,2.38-1.07,2.38-2.38Z"/><path class="cls-1" d="M141.3,9.35c0-1.32-1.07-2.38-2.38-2.38s-2.38,1.07-2.38,2.38,1.07,2.38,2.38,2.38,2.38-1.07,2.38-2.38Z"/><path class="cls-1" d="M141.3,21.69c0-1.32-1.07-2.38-2.38-2.38s-2.38,1.07-2.38,2.38,1.07,2.38,2.38,2.38,2.38-1.07,2.38-2.38Z"/><path class="cls-1" d="M141.3,27.85c0-1.32-1.07-2.38-2.38-2.38s-2.38,1.07-2.38,2.38,1.07,2.38,2.38,2.38,2.38-1.07,2.38-2.38Z"/><path class="cls-1" d="M135.09,3.15c0-1.32-1.07-2.38-2.38-2.38s-2.38,1.07-2.38,2.38,1.07,2.38,2.38,2.38,2.38-1.07,2.38-2.38Z"/><path class="cls-1" d="M135.09,15.48c0-1.32-1.07-2.38-2.38-2.38s-2.38,1.07-2.38,2.38,1.07,2.38,2.38,2.38,2.38-1.07,2.38-2.38Z"/><circle class="cls-1" cx="132.71" cy="9.31" r="2.38"/><path class="cls-1" d="M135.09,21.65c0-1.32-1.07-2.38-2.38-2.38s-2.38,1.07-2.38,2.38,1.07,2.38,2.38,2.38,2.38-1.07,2.38-2.38Z"/><path class="cls-1" d="M135.09,27.82c0-1.32-1.07-2.38-2.38-2.38s-2.38,1.07-2.38,2.38,1.07,2.38,2.38,2.38,2.38-1.07,2.38-2.38Z"/><path class="cls-1" d="M128.89,3.11c0-1.32-1.07-2.38-2.38-2.38s-2.38,1.07-2.38,2.38,1.07,2.38,2.38,2.38,2.38-1.07,2.38-2.38Z"/><path class="cls-1" d="M128.89,15.45c0-1.32-1.07-2.38-2.38-2.38s-2.38,1.07-2.38,2.38,1.07,2.38,2.38,2.38,2.38-1.07,2.38-2.38Z"/><path class="cls-1" d="M128.89,9.28c0-1.32-1.07-2.38-2.38-2.38s-2.38,1.07-2.38,2.38,1.07,2.38,2.38,2.38,2.38-1.07,2.38-2.38Z"/><path class="cls-1" d="M128.89,21.61c0-1.32-1.07-2.38-2.38-2.38s-2.38,1.07-2.38,2.38,1.07,2.38,2.38,2.38,2.38-1.07,2.38-2.38Z"/><circle class="cls-1" cx="126.5" cy="27.78" r="2.38"/><circle class="cls-1" cx="120.3" cy="3.07" r="2.38"/><path class="cls-1" d="M122.68,15.41c0-1.32-1.07-2.38-2.38-2.38s-2.38,1.07-2.38,2.38,1.07,2.38,2.38,2.38,2.38-1.07,2.38-2.38Z"/><path class="cls-1" d="M122.68,9.24c0-1.32-1.07-2.38-2.38-2.38s-2.38,1.07-2.38,2.38,1.07,2.38,2.38,2.38,2.38-1.07,2.38-2.38Z"/><path class="cls-1" d="M122.68,21.58c0-1.32-1.07-2.38-2.38-2.38s-2.38,1.07-2.38,2.38,1.07,2.38,2.38,2.38,2.38-1.07,2.38-2.38Z"/><circle class="cls-1" cx="120.3" cy="27.74" r="2.38"/><path class="cls-1" d="M116.48,3.04c0-1.32-1.07-2.38-2.38-2.38s-2.38,1.07-2.38,2.38,1.07,2.38,2.38,2.38,2.38-1.07,2.38-2.38Z"/><path class="cls-1" d="M116.48,15.37c0-1.32-1.07-2.38-2.38-2.38s-2.38,1.07-2.38,2.38,1.07,2.38,2.38,2.38,2.38-1.07,2.38-2.38Z"/><path class="cls-1" d="M116.48,9.21c0-1.32-1.07-2.38-2.38-2.38s-2.38,1.07-2.38,2.38,1.07,2.38,2.38,2.38,2.38-1.07,2.38-2.38Z"/><path class="cls-1" d="M116.48,21.54c0-1.32-1.07-2.38-2.38-2.38s-2.38,1.07-2.38,2.38,1.07,2.38,2.38,2.38,2.38-1.07,2.38-2.38Z"/><path class="cls-1" d="M116.48,27.71c0-1.32-1.07-2.38-2.38-2.38s-2.38,1.07-2.38,2.38,1.07,2.38,2.38,2.38,2.38-1.07,2.38-2.38Z"/><path class="cls-1" d="M110.27,3c0-1.32-1.07-2.38-2.38-2.38s-2.38,1.07-2.38,2.38,1.07,2.38,2.38,2.38,2.38-1.07,2.38-2.38Z"/><path class="cls-1" d="M110.27,15.34c0-1.32-1.07-2.38-2.38-2.38s-2.38,1.07-2.38,2.38,1.07,2.38,2.38,2.38,2.38-1.07,2.38-2.38Z"/><path class="cls-1" d="M110.27,9.17c0-1.32-1.07-2.38-2.38-2.38s-2.38,1.07-2.38,2.38,1.07,2.38,2.38,2.38,2.38-1.07,2.38-2.38Z"/><path class="cls-1" d="M110.27,21.5c0-1.32-1.07-2.38-2.38-2.38s-2.38,1.07-2.38,2.38,1.07,2.38,2.38,2.38,2.38-1.07,2.38-2.38Z"/><path class="cls-1" d="M110.27,27.67c0-1.32-1.07-2.38-2.38-2.38s-2.38,1.07-2.38,2.38,1.07,2.38,2.38,2.38,2.38-1.07,2.38-2.38Z"/><path class="cls-1" d="M104.06,2.97c0-1.32-1.07-2.38-2.38-2.38s-2.38,1.07-2.38,2.38,1.07,2.38,2.38,2.38,2.38-1.07,2.38-2.38Z"/><path class="cls-1" d="M104.06,15.3c0-1.32-1.07-2.38-2.38-2.38s-2.38,1.07-2.38,2.38,1.07,2.38,2.38,2.38,2.38-1.07,2.38-2.38Z"/><path class="cls-1" d="M104.06,9.13c0-1.32-1.07-2.38-2.38-2.38s-2.38,1.07-2.38,2.38,1.07,2.38,2.38,2.38,2.38-1.07,2.38-2.38Z"/><circle class="cls-1" cx="101.68" cy="21.47" r="2.38"/><path class="cls-1" d="M104.06,27.63c0-1.32-1.07-2.38-2.38-2.38s-2.38,1.07-2.38,2.38,1.07,2.38,2.38,2.38,2.38-1.07,2.38-2.38Z"/><path class="cls-1" d="M97.86,2.93c0-1.32-1.07-2.38-2.38-2.38s-2.38,1.07-2.38,2.38,1.07,2.38,2.38,2.38,2.38-1.07,2.38-2.38Z"/><path class="cls-1" d="M97.86,15.26c0-1.32-1.07-2.38-2.38-2.38s-2.38,1.07-2.38,2.38,1.07,2.38,2.38,2.38,2.38-1.07,2.38-2.38Z"/><path class="cls-1" d="M97.86,9.1c0-1.32-1.07-2.38-2.38-2.38s-2.38,1.07-2.38,2.38,1.07,2.38,2.38,2.38,2.38-1.07,2.38-2.38Z"/><path class="cls-1" d="M97.86,21.43c0-1.32-1.07-2.38-2.38-2.38s-2.38,1.07-2.38,2.38,1.07,2.38,2.38,2.38,2.38-1.07,2.38-2.38Z"/><path class="cls-1" d="M97.86,27.6c0-1.32-1.07-2.38-2.38-2.38s-2.38,1.07-2.38,2.38,1.07,2.38,2.38,2.38,2.38-1.07,2.38-2.38Z"/><path class="cls-1" d="M91.65,2.89c0-1.32-1.07-2.38-2.38-2.38s-2.38,1.07-2.38,2.38,1.07,2.38,2.38,2.38,2.38-1.07,2.38-2.38Z"/><path class="cls-1" d="M91.65,15.23c0-1.32-1.07-2.38-2.38-2.38s-2.38,1.07-2.38,2.38,1.07,2.38,2.38,2.38,2.38-1.07,2.38-2.38Z"/><path class="cls-1" d="M91.65,9.06c0-1.32-1.07-2.38-2.38-2.38s-2.38,1.07-2.38,2.38,1.07,2.38,2.38,2.38,2.38-1.07,2.38-2.38Z"/><path class="cls-1" d="M91.65,21.39c0-1.32-1.07-2.38-2.38-2.38s-2.38,1.07-2.38,2.38,1.07,2.38,2.38,2.38,2.38-1.07,2.38-2.38Z"/><path class="cls-1" d="M91.65,27.56c0-1.32-1.07-2.38-2.38-2.38s-2.38,1.07-2.38,2.38,1.07,2.38,2.38,2.38,2.38-1.07,2.38-2.38Z"/><path class="cls-1" d="M85.45,2.86c0-1.32-1.07-2.38-2.38-2.38s-2.38,1.07-2.38,2.38,1.07,2.38,2.38,2.38,2.38-1.07,2.38-2.38Z"/><path class="cls-1" d="M85.45,15.19c0-1.32-1.07-2.38-2.38-2.38s-2.38,1.07-2.38,2.38,1.07,2.38,2.38,2.38,2.38-1.07,2.38-2.38Z"/><path class="cls-1" d="M85.45,9.02c0-1.32-1.07-2.38-2.38-2.38s-2.38,1.07-2.38,2.38,1.07,2.38,2.38,2.38,2.38-1.07,2.38-2.38Z"/><path class="cls-1" d="M85.45,21.36c0-1.32-1.07-2.38-2.38-2.38s-2.38,1.07-2.38,2.38,1.07,2.38,2.38,2.38,2.38-1.07,2.38-2.38Z"/><path class="cls-1" d="M85.45,27.53c0-1.32-1.07-2.38-2.38-2.38s-2.38,1.07-2.38,2.38,1.07,2.38,2.38,2.38,2.38-1.07,2.38-2.38Z"/><path class="cls-1" d="M79.24,2.82c0-1.32-1.07-2.38-2.38-2.38s-2.38,1.07-2.38,2.38,1.07,2.38,2.38,2.38,2.38-1.07,2.38-2.38Z"/><circle class="cls-1" cx="76.86" cy="15.15" r="2.38"/><path class="cls-1" d="M79.24,8.99c0-1.32-1.07-2.38-2.38-2.38s-2.38,1.07-2.38,2.38,1.07,2.38,2.38,2.38,2.38-1.07,2.38-2.38Z"/><path class="cls-1" d="M79.24,21.32c0-1.32-1.07-2.38-2.38-2.38s-2.38,1.07-2.38,2.38,1.07,2.38,2.38,2.38,2.38-1.07,2.38-2.38Z"/><path class="cls-1" d="M79.24,27.49c0-1.32-1.07-2.38-2.38-2.38s-2.38,1.07-2.38,2.38,1.07,2.38,2.38,2.38,2.38-1.07,2.38-2.38Z"/><path class="cls-1" d="M73.03,2.78c0-1.32-1.07-2.38-2.38-2.38s-2.38,1.07-2.38,2.38,1.07,2.38,2.38,2.38,2.38-1.07,2.38-2.38Z"/><path class="cls-1" d="M73.03,15.12c0-1.32-1.07-2.38-2.38-2.38s-2.38,1.07-2.38,2.38,1.07,2.38,2.38,2.38,2.38-1.07,2.38-2.38Z"/><path class="cls-1" d="M73.03,8.95c0-1.32-1.07-2.38-2.38-2.38s-2.38,1.07-2.38,2.38,1.07,2.38,2.38,2.38,2.38-1.07,2.38-2.38Z"/><path class="cls-1" d="M73.03,21.29c0-1.32-1.07-2.38-2.38-2.38s-2.38,1.07-2.38,2.38,1.07,2.38,2.38,2.38,2.38-1.07,2.38-2.38Z"/><path class="cls-1" d="M73.03,27.45c0-1.32-1.07-2.38-2.38-2.38s-2.38,1.07-2.38,2.38,1.07,2.38,2.38,2.38,2.38-1.07,2.38-2.38Z"/><path class="cls-1" d="M66.83,2.75c0-1.32-1.07-2.38-2.38-2.38s-2.38,1.07-2.38,2.38,1.07,2.38,2.38,2.38,2.38-1.07,2.38-2.38Z"/><circle class="cls-1" cx="64.44" cy="15.08" r="2.38"/><path class="cls-1" d="M66.83,8.91c0-1.32-1.07-2.38-2.38-2.38s-2.38,1.07-2.38,2.38,1.07,2.38,2.38,2.38,2.38-1.07,2.38-2.38Z"/><path class="cls-1" d="M66.83,21.25c0-1.32-1.07-2.38-2.38-2.38s-2.38,1.07-2.38,2.38,1.07,2.38,2.38,2.38,2.38-1.07,2.38-2.38Z"/><path class="cls-1" d="M66.83,27.42c0-1.32-1.07-2.38-2.38-2.38s-2.38,1.07-2.38,2.38,1.07,2.38,2.38,2.38,2.38-1.07,2.38-2.38Z"/><path class="cls-1" d="M60.62,2.71c0-1.32-1.07-2.38-2.38-2.38s-2.38,1.07-2.38,2.38,1.07,2.38,2.38,2.38,2.38-1.07,2.38-2.38Z"/><path class="cls-1" d="M60.62,15.05c0-1.32-1.07-2.38-2.38-2.38s-2.38,1.07-2.38,2.38,1.07,2.38,2.38,2.38,2.38-1.07,2.38-2.38Z"/><path class="cls-1" d="M60.62,8.88c0-1.32-1.07-2.38-2.38-2.38s-2.38,1.07-2.38,2.38,1.07,2.38,2.38,2.38,2.38-1.07,2.38-2.38Z"/><path class="cls-1" d="M60.62,21.21c0-1.32-1.07-2.38-2.38-2.38s-2.38,1.07-2.38,2.38,1.07,2.38,2.38,2.38,2.38-1.07,2.38-2.38Z"/><path class="cls-1" d="M60.62,27.38c0-1.32-1.07-2.38-2.38-2.38s-2.38,1.07-2.38,2.38,1.07,2.38,2.38,2.38,2.38-1.07,2.38-2.38Z"/><path class="cls-1" d="M54.42,2.67c0-1.32-1.07-2.38-2.38-2.38s-2.38,1.07-2.38,2.38,1.07,2.38,2.38,2.38,2.38-1.07,2.38-2.38Z"/><path class="cls-1" d="M54.42,15.01c0-1.32-1.07-2.38-2.38-2.38s-2.38,1.07-2.38,2.38,1.07,2.38,2.38,2.38,2.38-1.07,2.38-2.38Z"/><path class="cls-1" d="M54.42,8.84c0-1.32-1.07-2.38-2.38-2.38s-2.38,1.07-2.38,2.38,1.07,2.38,2.38,2.38,2.38-1.07,2.38-2.38Z"/><path class="cls-1" d="M54.42,21.18c0-1.32-1.07-2.38-2.38-2.38s-2.38,1.07-2.38,2.38,1.07,2.38,2.38,2.38,2.38-1.07,2.38-2.38Z"/><path class="cls-1" d="M54.42,27.34c0-1.32-1.07-2.38-2.38-2.38s-2.38,1.07-2.38,2.38,1.07,2.38,2.38,2.38,2.38-1.07,2.38-2.38Z"/><path class="cls-1" d="M48.21,2.64c0-1.32-1.07-2.38-2.38-2.38s-2.38,1.07-2.38,2.38,1.07,2.38,2.38,2.38,2.38-1.07,2.38-2.38Z"/><path class="cls-1" d="M48.21,14.97c0-1.32-1.07-2.38-2.38-2.38s-2.38,1.07-2.38,2.38,1.07,2.38,2.38,2.38,2.38-1.07,2.38-2.38Z"/><path class="cls-1" d="M48.21,8.81c0-1.32-1.07-2.38-2.38-2.38s-2.38,1.07-2.38,2.38,1.07,2.38,2.38,2.38,2.38-1.07,2.38-2.38Z"/><path class="cls-1" d="M48.21,21.14c0-1.32-1.07-2.38-2.38-2.38s-2.38,1.07-2.38,2.38,1.07,2.38,2.38,2.38,2.38-1.07,2.38-2.38Z"/><path class="cls-1" d="M48.21,27.31c0-1.32-1.07-2.38-2.38-2.38s-2.38,1.07-2.38,2.38,1.07,2.38,2.38,2.38,2.38-1.07,2.38-2.38Z"/><path class="cls-1" d="M42,2.6c0-1.32-1.07-2.38-2.38-2.38s-2.38,1.07-2.38,2.38,1.07,2.38,2.38,2.38,2.38-1.07,2.38-2.38Z"/><path class="cls-1" d="M42,14.94c0-1.32-1.07-2.38-2.38-2.38s-2.38,1.07-2.38,2.38,1.07,2.38,2.38,2.38,2.38-1.07,2.38-2.38Z"/><circle class="cls-1" cx="39.62" cy="8.77" r="2.38"/><path class="cls-1" d="M42,21.1c0-1.32-1.07-2.38-2.38-2.38s-2.38,1.07-2.38,2.38,1.07,2.38,2.38,2.38,2.38-1.07,2.38-2.38Z"/><path class="cls-1" d="M42,27.27c0-1.32-1.07-2.38-2.38-2.38s-2.38,1.07-2.38,2.38,1.07,2.38,2.38,2.38,2.38-1.07,2.38-2.38Z"/><path class="cls-1" d="M35.8,2.57c0-1.32-1.07-2.38-2.38-2.38s-2.38,1.07-2.38,2.38,1.07,2.38,2.38,2.38,2.38-1.07,2.38-2.38Z"/><path class="cls-1" d="M35.8,14.9c0-1.32-1.07-2.38-2.38-2.38s-2.38,1.07-2.38,2.38,1.07,2.38,2.38,2.38,2.38-1.07,2.38-2.38Z"/><path class="cls-1" d="M35.8,8.73c0-1.32-1.07-2.38-2.38-2.38s-2.38,1.07-2.38,2.38,1.07,2.38,2.38,2.38,2.38-1.07,2.38-2.38Z"/><path class="cls-1" d="M35.8,21.07c0-1.32-1.07-2.38-2.38-2.38s-2.38,1.07-2.38,2.38,1.07,2.38,2.38,2.38,2.38-1.07,2.38-2.38Z"/><path class="cls-1" d="M35.8,27.23c0-1.32-1.07-2.38-2.38-2.38s-2.38,1.07-2.38,2.38,1.07,2.38,2.38,2.38,2.38-1.07,2.38-2.38Z"/><path class="cls-1" d="M29.59,2.53c0-1.32-1.07-2.38-2.38-2.38s-2.38,1.07-2.38,2.38,1.07,2.38,2.38,2.38,2.38-1.07,2.38-2.38Z"/><path class="cls-1" d="M29.59,14.86c0-1.32-1.07-2.38-2.38-2.38s-2.38,1.07-2.38,2.38,1.07,2.38,2.38,2.38,2.38-1.07,2.38-2.38Z"/><path class="cls-1" d="M29.59,8.7c0-1.32-1.07-2.38-2.38-2.38s-2.38,1.07-2.38,2.38,1.07,2.38,2.38,2.38,2.38-1.07,2.38-2.38Z"/><path class="cls-1" d="M29.59,21.03c0-1.32-1.07-2.38-2.38-2.38s-2.38,1.07-2.38,2.38,1.07,2.38,2.38,2.38,2.38-1.07,2.38-2.38Z"/><path class="cls-1" d="M29.59,27.2c0-1.32-1.07-2.38-2.38-2.38s-2.38,1.07-2.38,2.38,1.07,2.38,2.38,2.38,2.38-1.07,2.38-2.38Z"/><path class="cls-1" d="M23.39,2.49c0-1.32-1.07-2.38-2.38-2.38s-2.38,1.07-2.38,2.38,1.07,2.38,2.38,2.38,2.38-1.07,2.38-2.38Z"/><path class="cls-1" d="M23.39,14.83c0-1.32-1.07-2.38-2.38-2.38s-2.38,1.07-2.38,2.38,1.07,2.38,2.38,2.38,2.38-1.07,2.38-2.38Z"/><path class="cls-1" d="M23.39,8.66c0-1.32-1.07-2.38-2.38-2.38s-2.38,1.07-2.38,2.38,1.07,2.38,2.38,2.38,2.38-1.07,2.38-2.38Z"/><path class="cls-1" d="M23.39,20.99c0-1.32-1.07-2.38-2.38-2.38s-2.38,1.07-2.38,2.38,1.07,2.38,2.38,2.38,2.38-1.07,2.38-2.38Z"/><circle class="cls-1" cx="21" cy="27.16" r="2.38"/><circle class="cls-1" cx="14.8" cy="2.46" r="2.38"/><path class="cls-1" d="M17.18,14.79c0-1.32-1.07-2.38-2.38-2.38s-2.38,1.07-2.38,2.38,1.07,2.38,2.38,2.38,2.38-1.07,2.38-2.38Z"/><path class="cls-1" d="M17.18,8.62c0-1.32-1.07-2.38-2.38-2.38s-2.38,1.07-2.38,2.38,1.07,2.38,2.38,2.38,2.38-1.07,2.38-2.38Z"/><path class="cls-1" d="M17.18,20.96c0-1.32-1.07-2.38-2.38-2.38s-2.38,1.07-2.38,2.38,1.07,2.38,2.38,2.38,2.38-1.07,2.38-2.38Z"/><path class="cls-1" d="M17.18,27.13c0-1.32-1.07-2.38-2.38-2.38s-2.38,1.07-2.38,2.38,1.07,2.38,2.38,2.38,2.38-1.07,2.38-2.38Z"/><path class="cls-1" d="M10.97,2.42C10.97,1.1,9.91,.04,8.59,.04s-2.38,1.07-2.38,2.38,1.07,2.38,2.38,2.38,2.38-1.07,2.38-2.38Z"/><path class="cls-1" d="M10.97,14.75c0-1.32-1.07-2.38-2.38-2.38s-2.38,1.07-2.38,2.38,1.07,2.38,2.38,2.38,2.38-1.07,2.38-2.38Z"/><path class="cls-1" d="M10.97,8.59c0-1.32-1.07-2.38-2.38-2.38s-2.38,1.07-2.38,2.38,1.07,2.38,2.38,2.38,2.38-1.07,2.38-2.38Z"/><circle class="cls-1" cx="8.59" cy="20.92" r="2.38"/><path class="cls-1" d="M10.97,27.09c0-1.32-1.07-2.38-2.38-2.38s-2.38,1.07-2.38,2.38,1.07,2.38,2.38,2.38,2.38-1.07,2.38-2.38Z"/><path class="cls-1" d="M4.77,2.38C4.77,1.07,3.7,0,2.38,0S0,1.07,0,2.38s1.07,2.38,2.38,2.38,2.38-1.07,2.38-2.38Z"/><path class="cls-1" d="M4.77,14.72c0-1.32-1.07-2.38-2.38-2.38S0,13.4,0,14.72s1.07,2.38,2.38,2.38,2.38-1.07,2.38-2.38Z"/><path class="cls-1" d="M4.77,8.55c0-1.32-1.07-2.38-2.38-2.38S0,7.23,0,8.55s1.07,2.38,2.38,2.38,2.38-1.07,2.38-2.38Z"/><path class="cls-1" d="M4.77,20.89c0-1.32-1.07-2.38-2.38-2.38S0,19.57,0,20.89s1.07,2.38,2.38,2.38,2.38-1.07,2.38-2.38Z"/><path class="cls-1" d="M4.77,27.05c0-1.32-1.07-2.38-2.38-2.38S0,25.74,0,27.05s1.07,2.38,2.38,2.38,2.38-1.07,2.38-2.38Z"/><path class="cls-1" d="M153.71,34.3c0-1.32-1.07-2.38-2.38-2.38s-2.38,1.07-2.38,2.38,1.07,2.38,2.38,2.38,2.38-1.07,2.38-2.38Z"/><path class="cls-1" d="M153.71,46.63c0-1.32-1.07-2.38-2.38-2.38s-2.38,1.07-2.38,2.38,1.07,2.38,2.38,2.38,2.38-1.07,2.38-2.38Z"/><path class="cls-1" d="M153.71,40.46c0-1.32-1.07-2.38-2.38-2.38s-2.38,1.07-2.38,2.38,1.07,2.38,2.38,2.38,2.38-1.07,2.38-2.38Z"/><path class="cls-1" d="M153.71,52.8c0-1.32-1.07-2.38-2.38-2.38s-2.38,1.07-2.38,2.38,1.07,2.38,2.38,2.38,2.38-1.07,2.38-2.38Z"/><path class="cls-1" d="M153.71,58.97c0-1.32-1.07-2.38-2.38-2.38s-2.38,1.07-2.38,2.38,1.07,2.38,2.38,2.38,2.38-1.07,2.38-2.38Z"/><path class="cls-1" d="M147.51,34.26c0-1.32-1.07-2.38-2.38-2.38s-2.38,1.07-2.38,2.38,1.07,2.38,2.38,2.38,2.38-1.07,2.38-2.38Z"/><path class="cls-1" d="M147.51,46.6c0-1.32-1.07-2.38-2.38-2.38s-2.38,1.07-2.38,2.38,1.07,2.38,2.38,2.38,2.38-1.07,2.38-2.38Z"/><circle class="cls-1" cx="145.12" cy="40.43" r="2.38"/><path class="cls-1" d="M147.51,52.76c0-1.32-1.07-2.38-2.38-2.38s-2.38,1.07-2.38,2.38,1.07,2.38,2.38,2.38,2.38-1.07,2.38-2.38Z"/><path class="cls-1" d="M147.51,58.93c0-1.32-1.07-2.38-2.38-2.38s-2.38,1.07-2.38,2.38,1.07,2.38,2.38,2.38,2.38-1.07,2.38-2.38Z"/><path class="cls-1" d="M141.3,34.22c0-1.32-1.07-2.38-2.38-2.38s-2.38,1.07-2.38,2.38,1.07,2.38,2.38,2.38,2.38-1.07,2.38-2.38Z"/><path class="cls-1" d="M141.3,46.56c0-1.32-1.07-2.38-2.38-2.38s-2.38,1.07-2.38,2.38,1.07,2.38,2.38,2.38,2.38-1.07,2.38-2.38Z"/><path class="cls-1" d="M141.3,40.39c0-1.32-1.07-2.38-2.38-2.38s-2.38,1.07-2.38,2.38,1.07,2.38,2.38,2.38,2.38-1.07,2.38-2.38Z"/><path class="cls-1" d="M141.3,52.73c0-1.32-1.07-2.38-2.38-2.38s-2.38,1.07-2.38,2.38,1.07,2.38,2.38,2.38,2.38-1.07,2.38-2.38Z"/><path class="cls-1" d="M141.3,58.89c0-1.32-1.07-2.38-2.38-2.38s-2.38,1.07-2.38,2.38,1.07,2.38,2.38,2.38,2.38-1.07,2.38-2.38Z"/><path class="cls-1" d="M135.09,34.19c0-1.32-1.07-2.38-2.38-2.38s-2.38,1.07-2.38,2.38,1.07,2.38,2.38,2.38,2.38-1.07,2.38-2.38Z"/><path class="cls-1" d="M135.09,46.52c0-1.32-1.07-2.38-2.38-2.38s-2.38,1.07-2.38,2.38,1.07,2.38,2.38,2.38,2.38-1.07,2.38-2.38Z"/><circle class="cls-1" cx="132.71" cy="40.36" r="2.38"/><path class="cls-1" d="M135.09,52.69c0-1.32-1.07-2.38-2.38-2.38s-2.38,1.07-2.38,2.38,1.07,2.38,2.38,2.38,2.38-1.07,2.38-2.38Z"/><path class="cls-1" d="M135.09,58.86c0-1.32-1.07-2.38-2.38-2.38s-2.38,1.07-2.38,2.38,1.07,2.38,2.38,2.38,2.38-1.07,2.38-2.38Z"/><path class="cls-1" d="M128.89,34.15c0-1.32-1.07-2.38-2.38-2.38s-2.38,1.07-2.38,2.38,1.07,2.38,2.38,2.38,2.38-1.07,2.38-2.38Z"/><path class="cls-1" d="M128.89,46.49c0-1.32-1.07-2.38-2.38-2.38s-2.38,1.07-2.38,2.38,1.07,2.38,2.38,2.38,2.38-1.07,2.38-2.38Z"/><path class="cls-1" d="M128.89,40.32c0-1.32-1.07-2.38-2.38-2.38s-2.38,1.07-2.38,2.38,1.07,2.38,2.38,2.38,2.38-1.07,2.38-2.38Z"/><path class="cls-1" d="M128.89,52.65c0-1.32-1.07-2.38-2.38-2.38s-2.38,1.07-2.38,2.38,1.07,2.38,2.38,2.38,2.38-1.07,2.38-2.38Z"/><circle class="cls-1" cx="126.5" cy="58.82" r="2.38"/><circle class="cls-1" cx="120.3" cy="34.12" r="2.38"/><path class="cls-1" d="M122.68,46.45c0-1.32-1.07-2.38-2.38-2.38s-2.38,1.07-2.38,2.38,1.07,2.38,2.38,2.38,2.38-1.07,2.38-2.38Z"/><path class="cls-1" d="M122.68,40.28c0-1.32-1.07-2.38-2.38-2.38s-2.38,1.07-2.38,2.38,1.07,2.38,2.38,2.38,2.38-1.07,2.38-2.38Z"/><path class="cls-1" d="M122.68,52.62c0-1.32-1.07-2.38-2.38-2.38s-2.38,1.07-2.38,2.38,1.07,2.38,2.38,2.38,2.38-1.07,2.38-2.38Z"/><circle class="cls-1" cx="120.3" cy="58.78" r="2.38"/><path class="cls-1" d="M116.48,34.08c0-1.32-1.07-2.38-2.38-2.38s-2.38,1.07-2.38,2.38,1.07,2.38,2.38,2.38,2.38-1.07,2.38-2.38Z"/><path class="cls-1" d="M116.48,46.41c0-1.32-1.07-2.38-2.38-2.38s-2.38,1.07-2.38,2.38,1.07,2.38,2.38,2.38,2.38-1.07,2.38-2.38Z"/><path class="cls-1" d="M116.48,40.25c0-1.32-1.07-2.38-2.38-2.38s-2.38,1.07-2.38,2.38,1.07,2.38,2.38,2.38,2.38-1.07,2.38-2.38Z"/><path class="cls-1" d="M116.48,52.58c0-1.32-1.07-2.38-2.38-2.38s-2.38,1.07-2.38,2.38,1.07,2.38,2.38,2.38,2.38-1.07,2.38-2.38Z"/><path class="cls-1" d="M116.48,58.75c0-1.32-1.07-2.38-2.38-2.38s-2.38,1.07-2.38,2.38,1.07,2.38,2.38,2.38,2.38-1.07,2.38-2.38Z"/><path class="cls-1" d="M110.27,34.04c0-1.32-1.07-2.38-2.38-2.38s-2.38,1.07-2.38,2.38,1.07,2.38,2.38,2.38,2.38-1.07,2.38-2.38Z"/><path class="cls-1" d="M110.27,46.38c0-1.32-1.07-2.38-2.38-2.38s-2.38,1.07-2.38,2.38,1.07,2.38,2.38,2.38,2.38-1.07,2.38-2.38Z"/><path class="cls-1" d="M110.27,40.21c0-1.32-1.07-2.38-2.38-2.38s-2.38,1.07-2.38,2.38,1.07,2.38,2.38,2.38,2.38-1.07,2.38-2.38Z"/><path class="cls-1" d="M110.27,52.54c0-1.32-1.07-2.38-2.38-2.38s-2.38,1.07-2.38,2.38,1.07,2.38,2.38,2.38,2.38-1.07,2.38-2.38Z"/><path class="cls-1" d="M110.27,58.71c0-1.32-1.07-2.38-2.38-2.38s-2.38,1.07-2.38,2.38,1.07,2.38,2.38,2.38,2.38-1.07,2.38-2.38Z"/><path class="cls-1" d="M104.06,34.01c0-1.32-1.07-2.38-2.38-2.38s-2.38,1.07-2.38,2.38,1.07,2.38,2.38,2.38,2.38-1.07,2.38-2.38Z"/><path class="cls-1" d="M104.06,46.34c0-1.32-1.07-2.38-2.38-2.38s-2.38,1.07-2.38,2.38,1.07,2.38,2.38,2.38,2.38-1.07,2.38-2.38Z"/><path class="cls-1" d="M104.06,40.17c0-1.32-1.07-2.38-2.38-2.38s-2.38,1.07-2.38,2.38,1.07,2.38,2.38,2.38,2.38-1.07,2.38-2.38Z"/><circle class="cls-1" cx="101.68" cy="52.51" r="2.38"/><path class="cls-1" d="M104.06,58.68c0-1.32-1.07-2.38-2.38-2.38s-2.38,1.07-2.38,2.38,1.07,2.38,2.38,2.38,2.38-1.07,2.38-2.38Z"/><path class="cls-1" d="M97.86,33.97c0-1.32-1.07-2.38-2.38-2.38s-2.38,1.07-2.38,2.38,1.07,2.38,2.38,2.38,2.38-1.07,2.38-2.38Z"/><path class="cls-1" d="M97.86,46.3c0-1.32-1.07-2.38-2.38-2.38s-2.38,1.07-2.38,2.38,1.07,2.38,2.38,2.38,2.38-1.07,2.38-2.38Z"/><path class="cls-1" d="M97.86,40.14c0-1.32-1.07-2.38-2.38-2.38s-2.38,1.07-2.38,2.38,1.07,2.38,2.38,2.38,2.38-1.07,2.38-2.38Z"/><path class="cls-1" d="M97.86,52.47c0-1.32-1.07-2.38-2.38-2.38s-2.38,1.07-2.38,2.38,1.07,2.38,2.38,2.38,2.38-1.07,2.38-2.38Z"/><path class="cls-1" d="M97.86,58.64c0-1.32-1.07-2.38-2.38-2.38s-2.38,1.07-2.38,2.38,1.07,2.38,2.38,2.38,2.38-1.07,2.38-2.38Z"/><path class="cls-1" d="M91.65,33.93c0-1.32-1.07-2.38-2.38-2.38s-2.38,1.07-2.38,2.38,1.07,2.38,2.38,2.38,2.38-1.07,2.38-2.38Z"/><path class="cls-1" d="M91.65,46.27c0-1.32-1.07-2.38-2.38-2.38s-2.38,1.07-2.38,2.38,1.07,2.38,2.38,2.38,2.38-1.07,2.38-2.38Z"/><path class="cls-1" d="M91.65,40.1c0-1.32-1.07-2.38-2.38-2.38s-2.38,1.07-2.38,2.38,1.07,2.38,2.38,2.38,2.38-1.07,2.38-2.38Z"/><path class="cls-1" d="M91.65,52.44c0-1.32-1.07-2.38-2.38-2.38s-2.38,1.07-2.38,2.38,1.07,2.38,2.38,2.38,2.38-1.07,2.38-2.38Z"/><path class="cls-1" d="M91.65,58.6c0-1.32-1.07-2.38-2.38-2.38s-2.38,1.07-2.38,2.38,1.07,2.38,2.38,2.38,2.38-1.07,2.38-2.38Z"/><path class="cls-1" d="M85.45,33.9c0-1.32-1.07-2.38-2.38-2.38s-2.38,1.07-2.38,2.38,1.07,2.38,2.38,2.38,2.38-1.07,2.38-2.38Z"/><path class="cls-1" d="M85.45,46.23c0-1.32-1.07-2.38-2.38-2.38s-2.38,1.07-2.38,2.38,1.07,2.38,2.38,2.38,2.38-1.07,2.38-2.38Z"/><path class="cls-1" d="M85.45,40.06c0-1.32-1.07-2.38-2.38-2.38s-2.38,1.07-2.38,2.38,1.07,2.38,2.38,2.38,2.38-1.07,2.38-2.38Z"/><path class="cls-1" d="M85.45,52.4c0-1.32-1.07-2.38-2.38-2.38s-2.38,1.07-2.38,2.38,1.07,2.38,2.38,2.38,2.38-1.07,2.38-2.38Z"/><path class="cls-1" d="M85.45,58.57c0-1.32-1.07-2.38-2.38-2.38s-2.38,1.07-2.38,2.38,1.07,2.38,2.38,2.38,2.38-1.07,2.38-2.38Z"/><path class="cls-1" d="M79.24,33.86c0-1.32-1.07-2.38-2.38-2.38s-2.38,1.07-2.38,2.38,1.07,2.38,2.38,2.38,2.38-1.07,2.38-2.38Z"/><circle class="cls-1" cx="76.86" cy="46.2" r="2.38"/><path class="cls-1" d="M79.24,40.03c0-1.32-1.07-2.38-2.38-2.38s-2.38,1.07-2.38,2.38,1.07,2.38,2.38,2.38,2.38-1.07,2.38-2.38Z"/><path class="cls-1" d="M79.24,52.36c0-1.32-1.07-2.38-2.38-2.38s-2.38,1.07-2.38,2.38,1.07,2.38,2.38,2.38,2.38-1.07,2.38-2.38Z"/><path class="cls-1" d="M79.24,58.53c0-1.32-1.07-2.38-2.38-2.38s-2.38,1.07-2.38,2.38,1.07,2.38,2.38,2.38,2.38-1.07,2.38-2.38Z"/><path class="cls-1" d="M73.03,33.82c0-1.32-1.07-2.38-2.38-2.38s-2.38,1.07-2.38,2.38,1.07,2.38,2.38,2.38,2.38-1.07,2.38-2.38Z"/><path class="cls-1" d="M73.03,46.16c0-1.32-1.07-2.38-2.38-2.38s-2.38,1.07-2.38,2.38,1.07,2.38,2.38,2.38,2.38-1.07,2.38-2.38Z"/><path class="cls-1" d="M73.03,39.99c0-1.32-1.07-2.38-2.38-2.38s-2.38,1.07-2.38,2.38,1.07,2.38,2.38,2.38,2.38-1.07,2.38-2.38Z"/><path class="cls-1" d="M73.03,52.33c0-1.32-1.07-2.38-2.38-2.38s-2.38,1.07-2.38,2.38,1.07,2.38,2.38,2.38,2.38-1.07,2.38-2.38Z"/><path class="cls-1" d="M73.03,58.49c0-1.32-1.07-2.38-2.38-2.38s-2.38,1.07-2.38,2.38,1.07,2.38,2.38,2.38,2.38-1.07,2.38-2.38Z"/><path class="cls-1" d="M66.83,33.79c0-1.32-1.07-2.38-2.38-2.38s-2.38,1.07-2.38,2.38,1.07,2.38,2.38,2.38,2.38-1.07,2.38-2.38Z"/><circle class="cls-1" cx="64.44" cy="46.12" r="2.38"/><path class="cls-1" d="M66.83,39.96c0-1.32-1.07-2.38-2.38-2.38s-2.38,1.07-2.38,2.38,1.07,2.38,2.38,2.38,2.38-1.07,2.38-2.38Z"/><path class="cls-1" d="M66.83,52.29c0-1.32-1.07-2.38-2.38-2.38s-2.38,1.07-2.38,2.38,1.07,2.38,2.38,2.38,2.38-1.07,2.38-2.38Z"/><path class="cls-1" d="M66.83,58.46c0-1.32-1.07-2.38-2.38-2.38s-2.38,1.07-2.38,2.38,1.07,2.38,2.38,2.38,2.38-1.07,2.38-2.38Z"/><path class="cls-1" d="M60.62,33.75c0-1.32-1.07-2.38-2.38-2.38s-2.38,1.07-2.38,2.38,1.07,2.38,2.38,2.38,2.38-1.07,2.38-2.38Z"/><path class="cls-1" d="M60.62,46.09c0-1.32-1.07-2.38-2.38-2.38s-2.38,1.07-2.38,2.38,1.07,2.38,2.38,2.38,2.38-1.07,2.38-2.38Z"/><path class="cls-1" d="M60.62,39.92c0-1.32-1.07-2.38-2.38-2.38s-2.38,1.07-2.38,2.38,1.07,2.38,2.38,2.38,2.38-1.07,2.38-2.38Z"/><path class="cls-1" d="M60.62,52.25c0-1.32-1.07-2.38-2.38-2.38s-2.38,1.07-2.38,2.38,1.07,2.38,2.38,2.38,2.38-1.07,2.38-2.38Z"/><path class="cls-1" d="M60.62,58.42c0-1.32-1.07-2.38-2.38-2.38s-2.38,1.07-2.38,2.38,1.07,2.38,2.38,2.38,2.38-1.07,2.38-2.38Z"/><path class="cls-1" d="M54.42,33.72c0-1.32-1.07-2.38-2.38-2.38s-2.38,1.07-2.38,2.38,1.07,2.38,2.38,2.38,2.38-1.07,2.38-2.38Z"/><path class="cls-1" d="M54.42,46.05c0-1.32-1.07-2.38-2.38-2.38s-2.38,1.07-2.38,2.38,1.07,2.38,2.38,2.38,2.38-1.07,2.38-2.38Z"/><path class="cls-1" d="M54.42,39.88c0-1.32-1.07-2.38-2.38-2.38s-2.38,1.07-2.38,2.38,1.07,2.38,2.38,2.38,2.38-1.07,2.38-2.38Z"/><path class="cls-1" d="M54.42,52.22c0-1.32-1.07-2.38-2.38-2.38s-2.38,1.07-2.38,2.38,1.07,2.38,2.38,2.38,2.38-1.07,2.38-2.38Z"/><path class="cls-1" d="M54.42,58.38c0-1.32-1.07-2.38-2.38-2.38s-2.38,1.07-2.38,2.38,1.07,2.38,2.38,2.38,2.38-1.07,2.38-2.38Z"/><path class="cls-1" d="M48.21,33.68c0-1.32-1.07-2.38-2.38-2.38s-2.38,1.07-2.38,2.38,1.07,2.38,2.38,2.38,2.38-1.07,2.38-2.38Z"/><path class="cls-1" d="M48.21,46.01c0-1.32-1.07-2.38-2.38-2.38s-2.38,1.07-2.38,2.38,1.07,2.38,2.38,2.38,2.38-1.07,2.38-2.38Z"/><path class="cls-1" d="M48.21,39.85c0-1.32-1.07-2.38-2.38-2.38s-2.38,1.07-2.38,2.38,1.07,2.38,2.38,2.38,2.38-1.07,2.38-2.38Z"/><path class="cls-1" d="M48.21,52.18c0-1.32-1.07-2.38-2.38-2.38s-2.38,1.07-2.38,2.38,1.07,2.38,2.38,2.38,2.38-1.07,2.38-2.38Z"/><path class="cls-1" d="M48.21,58.35c0-1.32-1.07-2.38-2.38-2.38s-2.38,1.07-2.38,2.38,1.07,2.38,2.38,2.38,2.38-1.07,2.38-2.38Z"/><path class="cls-1" d="M42,33.64c0-1.32-1.07-2.38-2.38-2.38s-2.38,1.07-2.38,2.38,1.07,2.38,2.38,2.38,2.38-1.07,2.38-2.38Z"/><path class="cls-1" d="M42,45.98c0-1.32-1.07-2.38-2.38-2.38s-2.38,1.07-2.38,2.38,1.07,2.38,2.38,2.38,2.38-1.07,2.38-2.38Z"/><circle class="cls-1" cx="39.62" cy="39.81" r="2.38"/><path class="cls-1" d="M42,52.14c0-1.32-1.07-2.38-2.38-2.38s-2.38,1.07-2.38,2.38,1.07,2.38,2.38,2.38,2.38-1.07,2.38-2.38Z"/><path class="cls-1" d="M42,58.31c0-1.32-1.07-2.38-2.38-2.38s-2.38,1.07-2.38,2.38,1.07,2.38,2.38,2.38,2.38-1.07,2.38-2.38Z"/><path class="cls-1" d="M35.8,33.61c0-1.32-1.07-2.38-2.38-2.38s-2.38,1.07-2.38,2.38,1.07,2.38,2.38,2.38,2.38-1.07,2.38-2.38Z"/><path class="cls-1" d="M35.8,45.94c0-1.32-1.07-2.38-2.38-2.38s-2.38,1.07-2.38,2.38,1.07,2.38,2.38,2.38,2.38-1.07,2.38-2.38Z"/><path class="cls-1" d="M35.8,39.77c0-1.32-1.07-2.38-2.38-2.38s-2.38,1.07-2.38,2.38,1.07,2.38,2.38,2.38,2.38-1.07,2.38-2.38Z"/><path class="cls-1" d="M35.8,52.11c0-1.32-1.07-2.38-2.38-2.38s-2.38,1.07-2.38,2.38,1.07,2.38,2.38,2.38,2.38-1.07,2.38-2.38Z"/><path class="cls-1" d="M35.8,58.27c0-1.32-1.07-2.38-2.38-2.38s-2.38,1.07-2.38,2.38,1.07,2.38,2.38,2.38,2.38-1.07,2.38-2.38Z"/><path class="cls-1" d="M29.59,33.57c0-1.32-1.07-2.38-2.38-2.38s-2.38,1.07-2.38,2.38,1.07,2.38,2.38,2.38,2.38-1.07,2.38-2.38Z"/><path class="cls-1" d="M29.59,45.9c0-1.32-1.07-2.38-2.38-2.38s-2.38,1.07-2.38,2.38,1.07,2.38,2.38,2.38,2.38-1.07,2.38-2.38Z"/><path class="cls-1" d="M29.59,39.74c0-1.32-1.07-2.38-2.38-2.38s-2.38,1.07-2.38,2.38,1.07,2.38,2.38,2.38,2.38-1.07,2.38-2.38Z"/><path class="cls-1" d="M29.59,52.07c0-1.32-1.07-2.38-2.38-2.38s-2.38,1.07-2.38,2.38,1.07,2.38,2.38,2.38,2.38-1.07,2.38-2.38Z"/><path class="cls-1" d="M29.59,58.24c0-1.32-1.07-2.38-2.38-2.38s-2.38,1.07-2.38,2.38,1.07,2.38,2.38,2.38,2.38-1.07,2.38-2.38Z"/><path class="cls-1" d="M23.39,33.53c0-1.32-1.07-2.38-2.38-2.38s-2.38,1.07-2.38,2.38,1.07,2.38,2.38,2.38,2.38-1.07,2.38-2.38Z"/><path class="cls-1" d="M23.39,45.87c0-1.32-1.07-2.38-2.38-2.38s-2.38,1.07-2.38,2.38,1.07,2.38,2.38,2.38,2.38-1.07,2.38-2.38Z"/><path class="cls-1" d="M23.39,39.7c0-1.32-1.07-2.38-2.38-2.38s-2.38,1.07-2.38,2.38,1.07,2.38,2.38,2.38,2.38-1.07,2.38-2.38Z"/><path class="cls-1" d="M23.39,52.04c0-1.32-1.07-2.38-2.38-2.38s-2.38,1.07-2.38,2.38,1.07,2.38,2.38,2.38,2.38-1.07,2.38-2.38Z"/><circle class="cls-1" cx="21" cy="58.2" r="2.38"/><circle class="cls-1" cx="14.8" cy="33.5" r="2.38"/><path class="cls-1" d="M17.18,45.83c0-1.32-1.07-2.38-2.38-2.38s-2.38,1.07-2.38,2.38,1.07,2.38,2.38,2.38,2.38-1.07,2.38-2.38Z"/><path class="cls-1" d="M17.18,39.66c0-1.32-1.07-2.38-2.38-2.38s-2.38,1.07-2.38,2.38,1.07,2.38,2.38,2.38,2.38-1.07,2.38-2.38Z"/><path class="cls-1" d="M17.18,52c0-1.32-1.07-2.38-2.38-2.38s-2.38,1.07-2.38,2.38,1.07,2.38,2.38,2.38,2.38-1.07,2.38-2.38Z"/><path class="cls-1" d="M17.18,58.17c0-1.32-1.07-2.38-2.38-2.38s-2.38,1.07-2.38,2.38,1.07,2.38,2.38,2.38,2.38-1.07,2.38-2.38Z"/><path class="cls-1" d="M10.97,33.46c0-1.32-1.07-2.38-2.38-2.38s-2.38,1.07-2.38,2.38,1.07,2.38,2.38,2.38,2.38-1.07,2.38-2.38Z"/><path class="cls-1" d="M10.97,45.8c0-1.32-1.07-2.38-2.38-2.38s-2.38,1.07-2.38,2.38,1.07,2.38,2.38,2.38,2.38-1.07,2.38-2.38Z"/><path class="cls-1" d="M10.97,39.63c0-1.32-1.07-2.38-2.38-2.38s-2.38,1.07-2.38,2.38,1.07,2.38,2.38,2.38,2.38-1.07,2.38-2.38Z"/><circle class="cls-1" cx="8.59" cy="51.96" r="2.38"/><path class="cls-1" d="M10.97,58.13c0-1.32-1.07-2.38-2.38-2.38s-2.38,1.07-2.38,2.38,1.07,2.38,2.38,2.38,2.38-1.07,2.38-2.38Z"/><path class="cls-1" d="M4.77,33.42c0-1.32-1.07-2.38-2.38-2.38S0,32.11,0,33.42s1.07,2.38,2.38,2.38,2.38-1.07,2.38-2.38Z"/><path class="cls-1" d="M4.77,45.76c0-1.32-1.07-2.38-2.38-2.38S0,44.44,0,45.76s1.07,2.38,2.38,2.38,2.38-1.07,2.38-2.38Z"/><path class="cls-1" d="M4.77,39.59c0-1.32-1.07-2.38-2.38-2.38S0,38.28,0,39.59s1.07,2.38,2.38,2.38,2.38-1.07,2.38-2.38Z"/><path class="cls-1" d="M4.77,51.93c0-1.32-1.07-2.38-2.38-2.38S0,50.61,0,51.93s1.07,2.38,2.38,2.38,2.38-1.07,2.38-2.38Z"/><path class="cls-1" d="M4.77,58.09c0-1.32-1.07-2.38-2.38-2.38S0,56.78,0,58.09s1.07,2.38,2.38,2.38,2.38-1.07,2.38-2.38Z"/><path class="cls-1" d="M153.71,65.34c0-1.32-1.07-2.38-2.38-2.38s-2.38,1.07-2.38,2.38,1.07,2.38,2.38,2.38,2.38-1.07,2.38-2.38Z"/><path class="cls-1" d="M153.71,77.67c0-1.32-1.07-2.38-2.38-2.38s-2.38,1.07-2.38,2.38,1.07,2.38,2.38,2.38,2.38-1.07,2.38-2.38Z"/><path class="cls-1" d="M153.71,71.51c0-1.32-1.07-2.38-2.38-2.38s-2.38,1.07-2.38,2.38,1.07,2.38,2.38,2.38,2.38-1.07,2.38-2.38Z"/><path class="cls-1" d="M153.71,83.84c0-1.32-1.07-2.38-2.38-2.38s-2.38,1.07-2.38,2.38,1.07,2.38,2.38,2.38,2.38-1.07,2.38-2.38Z"/><path class="cls-1" d="M153.71,90.01c0-1.32-1.07-2.38-2.38-2.38s-2.38,1.07-2.38,2.38,1.07,2.38,2.38,2.38,2.38-1.07,2.38-2.38Z"/><path class="cls-1" d="M147.51,65.3c0-1.32-1.07-2.38-2.38-2.38s-2.38,1.07-2.38,2.38,1.07,2.38,2.38,2.38,2.38-1.07,2.38-2.38Z"/><path class="cls-1" d="M147.51,77.64c0-1.32-1.07-2.38-2.38-2.38s-2.38,1.07-2.38,2.38,1.07,2.38,2.38,2.38,2.38-1.07,2.38-2.38Z"/><circle class="cls-1" cx="145.12" cy="71.47" r="2.38"/><path class="cls-1" d="M147.51,83.8c0-1.32-1.07-2.38-2.38-2.38s-2.38,1.07-2.38,2.38,1.07,2.38,2.38,2.38,2.38-1.07,2.38-2.38Z"/><path class="cls-1" d="M147.51,89.97c0-1.32-1.07-2.38-2.38-2.38s-2.38,1.07-2.38,2.38,1.07,2.38,2.38,2.38,2.38-1.07,2.38-2.38Z"/><path class="cls-1" d="M141.3,65.27c0-1.32-1.07-2.38-2.38-2.38s-2.38,1.07-2.38,2.38,1.07,2.38,2.38,2.38,2.38-1.07,2.38-2.38Z"/><path class="cls-1" d="M141.3,77.6c0-1.32-1.07-2.38-2.38-2.38s-2.38,1.07-2.38,2.38,1.07,2.38,2.38,2.38,2.38-1.07,2.38-2.38Z"/><path class="cls-1" d="M141.3,71.43c0-1.32-1.07-2.38-2.38-2.38s-2.38,1.07-2.38,2.38,1.07,2.38,2.38,2.38,2.38-1.07,2.38-2.38Z"/><path class="cls-1" d="M141.3,83.77c0-1.32-1.07-2.38-2.38-2.38s-2.38,1.07-2.38,2.38,1.07,2.38,2.38,2.38,2.38-1.07,2.38-2.38Z"/><path class="cls-1" d="M141.3,89.93c0-1.32-1.07-2.38-2.38-2.38s-2.38,1.07-2.38,2.38,1.07,2.38,2.38,2.38,2.38-1.07,2.38-2.38Z"/><path class="cls-1" d="M135.09,65.23c0-1.32-1.07-2.38-2.38-2.38s-2.38,1.07-2.38,2.38,1.07,2.38,2.38,2.38,2.38-1.07,2.38-2.38Z"/><path class="cls-1" d="M135.09,77.56c0-1.32-1.07-2.38-2.38-2.38s-2.38,1.07-2.38,2.38,1.07,2.38,2.38,2.38,2.38-1.07,2.38-2.38Z"/><circle class="cls-1" cx="132.71" cy="71.4" r="2.38"/><path class="cls-1" d="M135.09,83.73c0-1.32-1.07-2.38-2.38-2.38s-2.38,1.07-2.38,2.38,1.07,2.38,2.38,2.38,2.38-1.07,2.38-2.38Z"/><path class="cls-1" d="M135.09,89.9c0-1.32-1.07-2.38-2.38-2.38s-2.38,1.07-2.38,2.38,1.07,2.38,2.38,2.38,2.38-1.07,2.38-2.38Z"/><path class="cls-1" d="M128.89,65.19c0-1.32-1.07-2.38-2.38-2.38s-2.38,1.07-2.38,2.38,1.07,2.38,2.38,2.38,2.38-1.07,2.38-2.38Z"/><path class="cls-1" d="M128.89,77.53c0-1.32-1.07-2.38-2.38-2.38s-2.38,1.07-2.38,2.38,1.07,2.38,2.38,2.38,2.38-1.07,2.38-2.38Z"/><path class="cls-1" d="M128.89,71.36c0-1.32-1.07-2.38-2.38-2.38s-2.38,1.07-2.38,2.38,1.07,2.38,2.38,2.38,2.38-1.07,2.38-2.38Z"/><path class="cls-1" d="M128.89,83.69c0-1.32-1.07-2.38-2.38-2.38s-2.38,1.07-2.38,2.38,1.07,2.38,2.38,2.38,2.38-1.07,2.38-2.38Z"/><circle class="cls-1" cx="126.5" cy="89.86" r="2.38"/><circle class="cls-1" cx="120.3" cy="65.16" r="2.38"/><path class="cls-1" d="M122.68,77.49c0-1.32-1.07-2.38-2.38-2.38s-2.38,1.07-2.38,2.38,1.07,2.38,2.38,2.38,2.38-1.07,2.38-2.38Z"/><path class="cls-1" d="M122.68,71.32c0-1.32-1.07-2.38-2.38-2.38s-2.38,1.07-2.38,2.38,1.07,2.38,2.38,2.38,2.38-1.07,2.38-2.38Z"/><path class="cls-1" d="M122.68,83.66c0-1.32-1.07-2.38-2.38-2.38s-2.38,1.07-2.38,2.38,1.07,2.38,2.38,2.38,2.38-1.07,2.38-2.38Z"/><circle class="cls-1" cx="120.3" cy="89.82" r="2.38"/><path class="cls-1" d="M116.48,65.12c0-1.32-1.07-2.38-2.38-2.38s-2.38,1.07-2.38,2.38,1.07,2.38,2.38,2.38,2.38-1.07,2.38-2.38Z"/><path class="cls-1" d="M116.48,77.45c0-1.32-1.07-2.38-2.38-2.38s-2.38,1.07-2.38,2.38,1.07,2.38,2.38,2.38,2.38-1.07,2.38-2.38Z"/><path class="cls-1" d="M116.48,71.29c0-1.32-1.07-2.38-2.38-2.38s-2.38,1.07-2.38,2.38,1.07,2.38,2.38,2.38,2.38-1.07,2.38-2.38Z"/><path class="cls-1" d="M116.48,83.62c0-1.32-1.07-2.38-2.38-2.38s-2.38,1.07-2.38,2.38,1.07,2.38,2.38,2.38,2.38-1.07,2.38-2.38Z"/><path class="cls-1" d="M116.48,89.79c0-1.32-1.07-2.38-2.38-2.38s-2.38,1.07-2.38,2.38,1.07,2.38,2.38,2.38,2.38-1.07,2.38-2.38Z"/><path class="cls-1" d="M110.27,65.08c0-1.32-1.07-2.38-2.38-2.38s-2.38,1.07-2.38,2.38,1.07,2.38,2.38,2.38,2.38-1.07,2.38-2.38Z"/><path class="cls-1" d="M110.27,77.42c0-1.32-1.07-2.38-2.38-2.38s-2.38,1.07-2.38,2.38,1.07,2.38,2.38,2.38,2.38-1.07,2.38-2.38Z"/><path class="cls-1" d="M110.27,71.25c0-1.32-1.07-2.38-2.38-2.38s-2.38,1.07-2.38,2.38,1.07,2.38,2.38,2.38,2.38-1.07,2.38-2.38Z"/><path class="cls-1" d="M110.27,83.59c0-1.32-1.07-2.38-2.38-2.38s-2.38,1.07-2.38,2.38,1.07,2.38,2.38,2.38,2.38-1.07,2.38-2.38Z"/><path class="cls-1" d="M110.27,89.75c0-1.32-1.07-2.38-2.38-2.38s-2.38,1.07-2.38,2.38,1.07,2.38,2.38,2.38,2.38-1.07,2.38-2.38Z"/><path class="cls-1" d="M104.06,65.05c0-1.32-1.07-2.38-2.38-2.38s-2.38,1.07-2.38,2.38,1.07,2.38,2.38,2.38,2.38-1.07,2.38-2.38Z"/><path class="cls-1" d="M104.06,77.38c0-1.32-1.07-2.38-2.38-2.38s-2.38,1.07-2.38,2.38,1.07,2.38,2.38,2.38,2.38-1.07,2.38-2.38Z"/><path class="cls-1" d="M104.06,71.21c0-1.32-1.07-2.38-2.38-2.38s-2.38,1.07-2.38,2.38,1.07,2.38,2.38,2.38,2.38-1.07,2.38-2.38Z"/><circle class="cls-1" cx="101.68" cy="83.55" r="2.38"/><path class="cls-1" d="M104.06,89.72c0-1.32-1.07-2.38-2.38-2.38s-2.38,1.07-2.38,2.38,1.07,2.38,2.38,2.38,2.38-1.07,2.38-2.38Z"/><path class="cls-1" d="M97.86,65.01c0-1.32-1.07-2.38-2.38-2.38s-2.38,1.07-2.38,2.38,1.07,2.38,2.38,2.38,2.38-1.07,2.38-2.38Z"/><path class="cls-1" d="M97.86,77.35c0-1.32-1.07-2.38-2.38-2.38s-2.38,1.07-2.38,2.38,1.07,2.38,2.38,2.38,2.38-1.07,2.38-2.38Z"/><path class="cls-1" d="M97.86,71.18c0-1.32-1.07-2.38-2.38-2.38s-2.38,1.07-2.38,2.38,1.07,2.38,2.38,2.38,2.38-1.07,2.38-2.38Z"/><path class="cls-1" d="M97.86,83.51c0-1.32-1.07-2.38-2.38-2.38s-2.38,1.07-2.38,2.38,1.07,2.38,2.38,2.38,2.38-1.07,2.38-2.38Z"/><path class="cls-1" d="M97.86,89.68c0-1.32-1.07-2.38-2.38-2.38s-2.38,1.07-2.38,2.38,1.07,2.38,2.38,2.38,2.38-1.07,2.38-2.38Z"/><path class="cls-1" d="M91.65,64.97c0-1.32-1.07-2.38-2.38-2.38s-2.38,1.07-2.38,2.38,1.07,2.38,2.38,2.38,2.38-1.07,2.38-2.38Z"/><path class="cls-1" d="M91.65,77.31c0-1.32-1.07-2.38-2.38-2.38s-2.38,1.07-2.38,2.38,1.07,2.38,2.38,2.38,2.38-1.07,2.38-2.38Z"/><path class="cls-1" d="M91.65,71.14c0-1.32-1.07-2.38-2.38-2.38s-2.38,1.07-2.38,2.38,1.07,2.38,2.38,2.38,2.38-1.07,2.38-2.38Z"/><path class="cls-1" d="M91.65,83.48c0-1.32-1.07-2.38-2.38-2.38s-2.38,1.07-2.38,2.38,1.07,2.38,2.38,2.38,2.38-1.07,2.38-2.38Z"/><path class="cls-1" d="M91.65,89.64c0-1.32-1.07-2.38-2.38-2.38s-2.38,1.07-2.38,2.38,1.07,2.38,2.38,2.38,2.38-1.07,2.38-2.38Z"/><path class="cls-1" d="M85.45,64.94c0-1.32-1.07-2.38-2.38-2.38s-2.38,1.07-2.38,2.38,1.07,2.38,2.38,2.38,2.38-1.07,2.38-2.38Z"/><path class="cls-1" d="M85.45,77.27c0-1.32-1.07-2.38-2.38-2.38s-2.38,1.07-2.38,2.38,1.07,2.38,2.38,2.38,2.38-1.07,2.38-2.38Z"/><path class="cls-1" d="M85.45,71.11c0-1.32-1.07-2.38-2.38-2.38s-2.38,1.07-2.38,2.38,1.07,2.38,2.38,2.38,2.38-1.07,2.38-2.38Z"/><path class="cls-1" d="M85.45,83.44c0-1.32-1.07-2.38-2.38-2.38s-2.38,1.07-2.38,2.38,1.07,2.38,2.38,2.38,2.38-1.07,2.38-2.38Z"/><path class="cls-1" d="M85.45,89.61c0-1.32-1.07-2.38-2.38-2.38s-2.38,1.07-2.38,2.38,1.07,2.38,2.38,2.38,2.38-1.07,2.38-2.38Z"/><path class="cls-1" d="M79.24,64.9c0-1.32-1.07-2.38-2.38-2.38s-2.38,1.07-2.38,2.38,1.07,2.38,2.38,2.38,2.38-1.07,2.38-2.38Z"/><circle class="cls-1" cx="76.86" cy="77.24" r="2.38"/><path class="cls-1" d="M79.24,71.07c0-1.32-1.07-2.38-2.38-2.38s-2.38,1.07-2.38,2.38,1.07,2.38,2.38,2.38,2.38-1.07,2.38-2.38Z"/><path class="cls-1" d="M79.24,83.4c0-1.32-1.07-2.38-2.38-2.38s-2.38,1.07-2.38,2.38,1.07,2.38,2.38,2.38,2.38-1.07,2.38-2.38Z"/><path class="cls-1" d="M79.24,89.57c0-1.32-1.07-2.38-2.38-2.38s-2.38,1.07-2.38,2.38,1.07,2.38,2.38,2.38,2.38-1.07,2.38-2.38Z"/><path class="cls-1" d="M73.03,64.87c0-1.32-1.07-2.38-2.38-2.38s-2.38,1.07-2.38,2.38,1.07,2.38,2.38,2.38,2.38-1.07,2.38-2.38Z"/><path class="cls-1" d="M73.03,77.2c0-1.32-1.07-2.38-2.38-2.38s-2.38,1.07-2.38,2.38,1.07,2.38,2.38,2.38,2.38-1.07,2.38-2.38Z"/><path class="cls-1" d="M73.03,71.03c0-1.32-1.07-2.38-2.38-2.38s-2.38,1.07-2.38,2.38,1.07,2.38,2.38,2.38,2.38-1.07,2.38-2.38Z"/><path class="cls-1" d="M73.03,83.37c0-1.32-1.07-2.38-2.38-2.38s-2.38,1.07-2.38,2.38,1.07,2.38,2.38,2.38,2.38-1.07,2.38-2.38Z"/><path class="cls-1" d="M73.03,89.53c0-1.32-1.07-2.38-2.38-2.38s-2.38,1.07-2.38,2.38,1.07,2.38,2.38,2.38,2.38-1.07,2.38-2.38Z"/><path class="cls-1" d="M66.83,64.83c0-1.32-1.07-2.38-2.38-2.38s-2.38,1.07-2.38,2.38,1.07,2.38,2.38,2.38,2.38-1.07,2.38-2.38Z"/><circle class="cls-1" cx="64.44" cy="77.16" r="2.38"/><path class="cls-1" d="M66.83,71c0-1.32-1.07-2.38-2.38-2.38s-2.38,1.07-2.38,2.38,1.07,2.38,2.38,2.38,2.38-1.07,2.38-2.38Z"/><path class="cls-1" d="M66.83,83.33c0-1.32-1.07-2.38-2.38-2.38s-2.38,1.07-2.38,2.38,1.07,2.38,2.38,2.38,2.38-1.07,2.38-2.38Z"/><path class="cls-1" d="M66.83,89.5c0-1.32-1.07-2.38-2.38-2.38s-2.38,1.07-2.38,2.38,1.07,2.38,2.38,2.38,2.38-1.07,2.38-2.38Z"/><path class="cls-1" d="M60.62,64.79c0-1.32-1.07-2.38-2.38-2.38s-2.38,1.07-2.38,2.38,1.07,2.38,2.38,2.38,2.38-1.07,2.38-2.38Z"/><path class="cls-1" d="M60.62,77.13c0-1.32-1.07-2.38-2.38-2.38s-2.38,1.07-2.38,2.38,1.07,2.38,2.38,2.38,2.38-1.07,2.38-2.38Z"/><path class="cls-1" d="M60.62,70.96c0-1.32-1.07-2.38-2.38-2.38s-2.38,1.07-2.38,2.38,1.07,2.38,2.38,2.38,2.38-1.07,2.38-2.38Z"/><path class="cls-1" d="M60.62,83.29c0-1.32-1.07-2.38-2.38-2.38s-2.38,1.07-2.38,2.38,1.07,2.38,2.38,2.38,2.38-1.07,2.38-2.38Z"/><path class="cls-1" d="M60.62,89.46c0-1.32-1.07-2.38-2.38-2.38s-2.38,1.07-2.38,2.38,1.07,2.38,2.38,2.38,2.38-1.07,2.38-2.38Z"/><path class="cls-1" d="M54.42,64.76c0-1.32-1.07-2.38-2.38-2.38s-2.38,1.07-2.38,2.38,1.07,2.38,2.38,2.38,2.38-1.07,2.38-2.38Z"/><path class="cls-1" d="M54.42,77.09c0-1.32-1.07-2.38-2.38-2.38s-2.38,1.07-2.38,2.38,1.07,2.38,2.38,2.38,2.38-1.07,2.38-2.38Z"/><path class="cls-1" d="M54.42,70.92c0-1.32-1.07-2.38-2.38-2.38s-2.38,1.07-2.38,2.38,1.07,2.38,2.38,2.38,2.38-1.07,2.38-2.38Z"/><path class="cls-1" d="M54.42,83.26c0-1.32-1.07-2.38-2.38-2.38s-2.38,1.07-2.38,2.38,1.07,2.38,2.38,2.38,2.38-1.07,2.38-2.38Z"/><path class="cls-1" d="M54.42,89.42c0-1.32-1.07-2.38-2.38-2.38s-2.38,1.07-2.38,2.38,1.07,2.38,2.38,2.38,2.38-1.07,2.38-2.38Z"/><path class="cls-1" d="M48.21,64.72c0-1.32-1.07-2.38-2.38-2.38s-2.38,1.07-2.38,2.38,1.07,2.38,2.38,2.38,2.38-1.07,2.38-2.38Z"/><path class="cls-1" d="M48.21,77.05c0-1.32-1.07-2.38-2.38-2.38s-2.38,1.07-2.38,2.38,1.07,2.38,2.38,2.38,2.38-1.07,2.38-2.38Z"/><path class="cls-1" d="M48.21,70.89c0-1.32-1.07-2.38-2.38-2.38s-2.38,1.07-2.38,2.38,1.07,2.38,2.38,2.38,2.38-1.07,2.38-2.38Z"/><path class="cls-1" d="M48.21,83.22c0-1.32-1.07-2.38-2.38-2.38s-2.38,1.07-2.38,2.38,1.07,2.38,2.38,2.38,2.38-1.07,2.38-2.38Z"/><path class="cls-1" d="M48.21,89.39c0-1.32-1.07-2.38-2.38-2.38s-2.38,1.07-2.38,2.38,1.07,2.38,2.38,2.38,2.38-1.07,2.38-2.38Z"/><path class="cls-1" d="M42,64.68c0-1.32-1.07-2.38-2.38-2.38s-2.38,1.07-2.38,2.38,1.07,2.38,2.38,2.38,2.38-1.07,2.38-2.38Z"/><path class="cls-1" d="M42,77.02c0-1.32-1.07-2.38-2.38-2.38s-2.38,1.07-2.38,2.38,1.07,2.38,2.38,2.38,2.38-1.07,2.38-2.38Z"/><circle class="cls-1" cx="39.62" cy="70.85" r="2.38"/><path class="cls-1" d="M42,83.19c0-1.32-1.07-2.38-2.38-2.38s-2.38,1.07-2.38,2.38,1.07,2.38,2.38,2.38,2.38-1.07,2.38-2.38Z"/><path class="cls-1" d="M42,89.35c0-1.32-1.07-2.38-2.38-2.38s-2.38,1.07-2.38,2.38,1.07,2.38,2.38,2.38,2.38-1.07,2.38-2.38Z"/><path class="cls-1" d="M35.8,64.65c0-1.32-1.07-2.38-2.38-2.38s-2.38,1.07-2.38,2.38,1.07,2.38,2.38,2.38,2.38-1.07,2.38-2.38Z"/><path class="cls-1" d="M35.8,76.98c0-1.32-1.07-2.38-2.38-2.38s-2.38,1.07-2.38,2.38,1.07,2.38,2.38,2.38,2.38-1.07,2.38-2.38Z"/><path class="cls-1" d="M35.8,70.81c0-1.32-1.07-2.38-2.38-2.38s-2.38,1.07-2.38,2.38,1.07,2.38,2.38,2.38,2.38-1.07,2.38-2.38Z"/><path class="cls-1" d="M35.8,83.15c0-1.32-1.07-2.38-2.38-2.38s-2.38,1.07-2.38,2.38,1.07,2.38,2.38,2.38,2.38-1.07,2.38-2.38Z"/><path class="cls-1" d="M35.8,89.32c0-1.32-1.07-2.38-2.38-2.38s-2.38,1.07-2.38,2.38,1.07,2.38,2.38,2.38,2.38-1.07,2.38-2.38Z"/><path class="cls-1" d="M29.59,64.61c0-1.32-1.07-2.38-2.38-2.38s-2.38,1.07-2.38,2.38,1.07,2.38,2.38,2.38,2.38-1.07,2.38-2.38Z"/><path class="cls-1" d="M29.59,76.95c0-1.32-1.07-2.38-2.38-2.38s-2.38,1.07-2.38,2.38,1.07,2.38,2.38,2.38,2.38-1.07,2.38-2.38Z"/><path class="cls-1" d="M29.59,70.78c0-1.32-1.07-2.38-2.38-2.38s-2.38,1.07-2.38,2.38,1.07,2.38,2.38,2.38,2.38-1.07,2.38-2.38Z"/><path class="cls-1" d="M29.59,83.11c0-1.32-1.07-2.38-2.38-2.38s-2.38,1.07-2.38,2.38,1.07,2.38,2.38,2.38,2.38-1.07,2.38-2.38Z"/><path class="cls-1" d="M29.59,89.28c0-1.32-1.07-2.38-2.38-2.38s-2.38,1.07-2.38,2.38,1.07,2.38,2.38,2.38,2.38-1.07,2.38-2.38Z"/><path class="cls-1" d="M23.39,64.57c0-1.32-1.07-2.38-2.38-2.38s-2.38,1.07-2.38,2.38,1.07,2.38,2.38,2.38,2.38-1.07,2.38-2.38Z"/><path class="cls-1" d="M23.39,76.91c0-1.32-1.07-2.38-2.38-2.38s-2.38,1.07-2.38,2.38,1.07,2.38,2.38,2.38,2.38-1.07,2.38-2.38Z"/><path class="cls-1" d="M23.39,70.74c0-1.32-1.07-2.38-2.38-2.38s-2.38,1.07-2.38,2.38,1.07,2.38,2.38,2.38,2.38-1.07,2.38-2.38Z"/><path class="cls-1" d="M23.39,83.08c0-1.32-1.07-2.38-2.38-2.38s-2.38,1.07-2.38,2.38,1.07,2.38,2.38,2.38,2.38-1.07,2.38-2.38Z"/><circle class="cls-1" cx="21" cy="89.24" r="2.38"/><circle class="cls-1" cx="14.8" cy="64.54" r="2.38"/><path class="cls-1" d="M17.18,76.87c0-1.32-1.07-2.38-2.38-2.38s-2.38,1.07-2.38,2.38,1.07,2.38,2.38,2.38,2.38-1.07,2.38-2.38Z"/><path class="cls-1" d="M17.18,70.7c0-1.32-1.07-2.38-2.38-2.38s-2.38,1.07-2.38,2.38,1.07,2.38,2.38,2.38,2.38-1.07,2.38-2.38Z"/><path class="cls-1" d="M17.18,83.04c0-1.32-1.07-2.38-2.38-2.38s-2.38,1.07-2.38,2.38,1.07,2.38,2.38,2.38,2.38-1.07,2.38-2.38Z"/><path class="cls-1" d="M17.18,89.21c0-1.32-1.07-2.38-2.38-2.38s-2.38,1.07-2.38,2.38,1.07,2.38,2.38,2.38,2.38-1.07,2.38-2.38Z"/><path class="cls-1" d="M10.97,64.5c0-1.32-1.07-2.38-2.38-2.38s-2.38,1.07-2.38,2.38,1.07,2.38,2.38,2.38,2.38-1.07,2.38-2.38Z"/><path class="cls-1" d="M10.97,76.84c0-1.32-1.07-2.38-2.38-2.38s-2.38,1.07-2.38,2.38,1.07,2.38,2.38,2.38,2.38-1.07,2.38-2.38Z"/><path class="cls-1" d="M10.97,70.67c0-1.32-1.07-2.38-2.38-2.38s-2.38,1.07-2.38,2.38,1.07,2.38,2.38,2.38,2.38-1.07,2.38-2.38Z"/><circle class="cls-1" cx="8.59" cy="83" r="2.38"/><path class="cls-1" d="M10.97,89.17c0-1.32-1.07-2.38-2.38-2.38s-2.38,1.07-2.38,2.38,1.07,2.38,2.38,2.38,2.38-1.07,2.38-2.38Z"/><path class="cls-1" d="M4.77,64.46c0-1.32-1.07-2.38-2.38-2.38S0,63.15,0,64.46s1.07,2.38,2.38,2.38,2.38-1.07,2.38-2.38Z"/><path class="cls-1" d="M4.77,76.8c0-1.32-1.07-2.38-2.38-2.38S0,75.48,0,76.8s1.07,2.38,2.38,2.38,2.38-1.07,2.38-2.38Z"/><path class="cls-1" d="M4.77,70.63c0-1.32-1.07-2.38-2.38-2.38S0,69.32,0,70.63s1.07,2.38,2.38,2.38,2.38-1.07,2.38-2.38Z"/><path class="cls-1" d="M4.77,82.97c0-1.32-1.07-2.38-2.38-2.38S0,81.65,0,82.97s1.07,2.38,2.38,2.38,2.38-1.07,2.38-2.38Z"/><path class="cls-1" d="M4.77,89.13c0-1.32-1.07-2.38-2.38-2.38S0,87.82,0,89.13s1.07,2.38,2.38,2.38,2.38-1.07,2.38-2.38Z"/></g></svg>