<?xml version="1.0" encoding="UTF-8"?><svg id="SOLO_1" xmlns="http://www.w3.org/2000/svg" viewBox="0 0 848.75 154.47"><defs><style>.cls-1{fill:#fff;}</style></defs><path class="cls-1" d="M434.68,88.34c1.32,0,2.38-1.07,2.38-2.38s-1.07-2.38-2.38-2.38-2.38,1.07-2.38,2.38,1.07,2.38,2.38,2.38Z"/><path class="cls-1" d="M422.34,88.34c1.32,0,2.38-1.07,2.38-2.38s-1.07-2.38-2.38-2.38-2.38,1.07-2.38,2.38,1.07,2.38,2.38,2.38Z"/><path class="cls-1" d="M428.51,88.34c1.32,0,2.38-1.07,2.38-2.38s-1.07-2.38-2.38-2.38-2.38,1.07-2.38,2.38,1.07,2.38,2.38,2.38Z"/><path class="cls-1" d="M416.18,88.34c1.32,0,2.38-1.07,2.38-2.38s-1.07-2.38-2.38-2.38-2.38,1.07-2.38,2.38,1.07,2.38,2.38,2.38Z"/><path class="cls-1" d="M410.01,88.34c1.32,0,2.38-1.07,2.38-2.38s-1.07-2.38-2.38-2.38-2.38,1.07-2.38,2.38,1.07,2.38,2.38,2.38Z"/><circle class="cls-1" cx="434.68" cy="79.76" r="2.38"/><circle class="cls-1" cx="422.34" cy="79.76" r="2.38"/><path class="cls-1" d="M428.51,82.14c1.32,0,2.38-1.07,2.38-2.38s-1.07-2.38-2.38-2.38-2.38,1.07-2.38,2.38,1.07,2.38,2.38,2.38Z"/><circle class="cls-1" cx="416.18" cy="79.76" r="2.38"/><circle class="cls-1" cx="410.01" cy="79.76" r="2.38"/><circle class="cls-1" cx="434.68" cy="73.56" r="2.38"/><circle class="cls-1" cx="422.34" cy="73.56" r="2.38"/><path class="cls-1" d="M428.51,75.94c1.32,0,2.38-1.07,2.38-2.38s-1.07-2.38-2.38-2.38-2.38,1.07-2.38,2.38,1.07,2.38,2.38,2.38Z"/><circle class="cls-1" cx="416.18" cy="73.56" r="2.38"/><circle class="cls-1" cx="410.01" cy="73.56" r="2.38"/><path class="cls-1" d="M434.68,69.75c1.32,0,2.38-1.07,2.38-2.38s-1.07-2.38-2.38-2.38-2.38,1.07-2.38,2.38,1.07,2.38,2.38,2.38Z"/><path class="cls-1" d="M422.34,69.75c1.32,0,2.38-1.07,2.38-2.38s-1.07-2.38-2.38-2.38-2.38,1.07-2.38,2.38,1.07,2.38,2.38,2.38Z"/><path class="cls-1" d="M428.51,69.75c1.32,0,2.38-1.07,2.38-2.38s-1.07-2.38-2.38-2.38-2.38,1.07-2.38,2.38,1.07,2.38,2.38,2.38Z"/><path class="cls-1" d="M416.18,69.75c1.32,0,2.38-1.07,2.38-2.38s-1.07-2.38-2.38-2.38-2.38,1.07-2.38,2.38,1.07,2.38,2.38,2.38Z"/><path class="cls-1" d="M410.01,69.75c1.32,0,2.38-1.07,2.38-2.38s-1.07-2.38-2.38-2.38-2.38,1.07-2.38,2.38,1.07,2.38,2.38,2.38Z"/><path class="cls-1" d="M434.68,63.55c1.32,0,2.38-1.07,2.38-2.38s-1.07-2.38-2.38-2.38-2.38,1.07-2.38,2.38,1.07,2.38,2.38,2.38Z"/><path class="cls-1" d="M422.34,63.55c1.32,0,2.38-1.07,2.38-2.38s-1.07-2.38-2.38-2.38-2.38,1.07-2.38,2.38,1.07,2.38,2.38,2.38Z"/><path class="cls-1" d="M428.51,63.55c1.32,0,2.38-1.07,2.38-2.38s-1.07-2.38-2.38-2.38-2.38,1.07-2.38,2.38,1.07,2.38,2.38,2.38Z"/><path class="cls-1" d="M416.18,63.55c1.32,0,2.38-1.07,2.38-2.38s-1.07-2.38-2.38-2.38-2.38,1.07-2.38,2.38,1.07,2.38,2.38,2.38Z"/><path class="cls-1" d="M410.01,63.55c1.32,0,2.38-1.07,2.38-2.38s-1.07-2.38-2.38-2.38-2.38,1.07-2.38,2.38,1.07,2.38,2.38,2.38Z"/><circle class="cls-1" cx="434.68" cy="54.97" r="2.38"/><circle class="cls-1" cx="422.34" cy="54.97" r="2.38"/><path class="cls-1" d="M428.51,57.35c1.32,0,2.38-1.07,2.38-2.38s-1.07-2.38-2.38-2.38-2.38,1.07-2.38,2.38,1.07,2.38,2.38,2.38Z"/><circle class="cls-1" cx="416.18" cy="54.97" r="2.38"/><circle class="cls-1" cx="410.01" cy="54.97" r="2.38"/><circle class="cls-1" cx="434.68" cy="48.77" r="2.38"/><circle class="cls-1" cx="422.34" cy="48.77" r="2.38"/><path class="cls-1" d="M428.51,51.16c1.32,0,2.38-1.07,2.38-2.38s-1.07-2.38-2.38-2.38-2.38,1.07-2.38,2.38,1.07,2.38,2.38,2.38Z"/><circle class="cls-1" cx="416.18" cy="48.77" r="2.38"/><circle class="cls-1" cx="410.01" cy="48.77" r="2.38"/><circle class="cls-1" cx="434.68" cy="42.58" r="2.38"/><circle class="cls-1" cx="422.34" cy="42.58" r="2.38"/><path class="cls-1" d="M428.51,44.96c1.32,0,2.38-1.07,2.38-2.38s-1.07-2.38-2.38-2.38-2.38,1.07-2.38,2.38,1.07,2.38,2.38,2.38Z"/><circle class="cls-1" cx="416.18" cy="42.58" r="2.38"/><circle class="cls-1" cx="410.01" cy="42.58" r="2.38"/><path class="cls-1" d="M434.68,38.76c1.32,0,2.38-1.07,2.38-2.38s-1.07-2.38-2.38-2.38-2.38,1.07-2.38,2.38,1.07,2.38,2.38,2.38Z"/><path class="cls-1" d="M422.34,38.76c1.32,0,2.38-1.07,2.38-2.38s-1.07-2.38-2.38-2.38-2.38,1.07-2.38,2.38,1.07,2.38,2.38,2.38Z"/><path class="cls-1" d="M428.51,38.76c1.32,0,2.38-1.07,2.38-2.38s-1.07-2.38-2.38-2.38-2.38,1.07-2.38,2.38,1.07,2.38,2.38,2.38Z"/><path class="cls-1" d="M416.18,38.76c1.32,0,2.38-1.07,2.38-2.38s-1.07-2.38-2.38-2.38-2.38,1.07-2.38,2.38,1.07,2.38,2.38,2.38Z"/><path class="cls-1" d="M410.01,38.76c1.32,0,2.38-1.07,2.38-2.38s-1.07-2.38-2.38-2.38-2.38,1.07-2.38,2.38,1.07,2.38,2.38,2.38Z"/><path class="cls-1" d="M434.68,32.57c1.32,0,2.38-1.07,2.38-2.38s-1.07-2.38-2.38-2.38-2.38,1.07-2.38,2.38,1.07,2.38,2.38,2.38Z"/><path class="cls-1" d="M422.34,32.57c1.32,0,2.38-1.07,2.38-2.38s-1.07-2.38-2.38-2.38-2.38,1.07-2.38,2.38,1.07,2.38,2.38,2.38Z"/><path class="cls-1" d="M428.51,32.57c1.32,0,2.38-1.07,2.38-2.38s-1.07-2.38-2.38-2.38-2.38,1.07-2.38,2.38,1.07,2.38,2.38,2.38Z"/><path class="cls-1" d="M416.18,32.57c1.32,0,2.38-1.07,2.38-2.38s-1.07-2.38-2.38-2.38-2.38,1.07-2.38,2.38,1.07,2.38,2.38,2.38Z"/><path class="cls-1" d="M410.01,32.57c1.32,0,2.38-1.07,2.38-2.38s-1.07-2.38-2.38-2.38-2.38,1.07-2.38,2.38,1.07,2.38,2.38,2.38Z"/><circle class="cls-1" cx="434.68" cy="23.99" r="2.38"/><circle class="cls-1" cx="422.34" cy="23.99" r="2.38"/><path class="cls-1" d="M428.51,26.37c1.32,0,2.38-1.07,2.38-2.38s-1.07-2.38-2.38-2.38-2.38,1.07-2.38,2.38,1.07,2.38,2.38,2.38Z"/><circle class="cls-1" cx="416.18" cy="23.99" r="2.38"/><circle class="cls-1" cx="410.01" cy="23.99" r="2.38"/><circle class="cls-1" cx="434.68" cy="17.79" r="2.38"/><circle class="cls-1" cx="422.34" cy="17.79" r="2.38"/><path class="cls-1" d="M428.51,20.17c1.32,0,2.38-1.07,2.38-2.38s-1.07-2.38-2.38-2.38-2.38,1.07-2.38,2.38,1.07,2.38,2.38,2.38Z"/><circle class="cls-1" cx="416.18" cy="17.79" r="2.38"/><circle class="cls-1" cx="410.01" cy="17.79" r="2.38"/><path class="cls-1" d="M434.68,13.98c1.32,0,2.38-1.07,2.38-2.38s-1.07-2.38-2.38-2.38-2.38,1.07-2.38,2.38,1.07,2.38,2.38,2.38Z"/><path class="cls-1" d="M422.34,13.98c1.32,0,2.38-1.07,2.38-2.38s-1.07-2.38-2.38-2.38-2.38,1.07-2.38,2.38,1.07,2.38,2.38,2.38Z"/><path class="cls-1" d="M428.51,13.98c1.32,0,2.38-1.07,2.38-2.38s-1.07-2.38-2.38-2.38-2.38,1.07-2.38,2.38,1.07,2.38,2.38,2.38Z"/><path class="cls-1" d="M416.18,13.98c1.32,0,2.38-1.07,2.38-2.38s-1.07-2.38-2.38-2.38-2.38,1.07-2.38,2.38,1.07,2.38,2.38,2.38Z"/><path class="cls-1" d="M410.01,13.98c1.32,0,2.38-1.07,2.38-2.38s-1.07-2.38-2.38-2.38-2.38,1.07-2.38,2.38,1.07,2.38,2.38,2.38Z"/><path class="cls-1" d="M434.68,7.78c1.32,0,2.38-1.07,2.38-2.38s-1.07-2.38-2.38-2.38-2.38,1.07-2.38,2.38,1.07,2.38,2.38,2.38Z"/><path class="cls-1" d="M422.34,7.78c1.32,0,2.38-1.07,2.38-2.38s-1.07-2.38-2.38-2.38-2.38,1.07-2.38,2.38,1.07,2.38,2.38,2.38Z"/><path class="cls-1" d="M428.51,7.78c1.32,0,2.38-1.07,2.38-2.38s-1.07-2.38-2.38-2.38-2.38,1.07-2.38,2.38,1.07,2.38,2.38,2.38Z"/><path class="cls-1" d="M416.18,7.78c1.32,0,2.38-1.07,2.38-2.38s-1.07-2.38-2.38-2.38-2.38,1.07-2.38,2.38,1.07,2.38,2.38,2.38Z"/><path class="cls-1" d="M410.01,7.78c1.32,0,2.38-1.07,2.38-2.38s-1.07-2.38-2.38-2.38-2.38,1.07-2.38,2.38,1.07,2.38,2.38,2.38Z"/></svg>