<svg xmlns="http://www.w3.org/2000/svg" viewBox="0 0 496.15 341.84"><defs><style>.cls-1{fill:#d0d3d3;}.cls-2{fill:#e4e7e7;}.cls-3{fill:#fff;}.cls-4{fill:#9d9da2;}.cls-5{fill:#404042;}.cls-6{fill:#ffe05d;}.cls-7{fill:#ffd900;}.cls-8{fill:none;}</style></defs><title>warehouse</title><g id="Layer_2" data-name="Layer 2"><g id="Layer_1-2" data-name="Layer 1"><rect class="cls-1" y="78.89" width="24.48" height="262.95"/><polygon class="cls-2" points="247.24 12.52 21.86 78.89 0 78.89 247.24 2.32 496.15 78.89 473.87 78.89 247.24 12.52"/><rect class="cls-1" x="471.66" y="78.89" width="24.48" height="262.95"/><polygon class="cls-3" points="247.29 10.91 247.29 10.88 247.24 10.9 247.18 10.88 247.18 10.91 17.37 78.89 17.37 94.81 22.81 93.4 22.81 341.84 247.18 341.84 247.29 341.84 471.66 341.84 471.66 93.4 477.1 94.81 477.1 78.89 247.29 10.91"/><rect class="cls-4" x="70.21" y="127.86" width="354.27" height="213.98"/><polygon class="cls-5" points="360.29 341.84 424.48 341.84 424.48 143.47 360.29 341.84"/><rect class="cls-6" x="59.75" y="125.14" width="376.55" height="76.17"/><path class="cls-7" d="M70.16,137.38H425.91c2.19,0,3.1-.6,3.1-1.36s-.91-1.36-3.1-1.36H70.16c-2.19,0-3.12.6-3.12,1.36s.93,1.36,3.12,1.36"/><path class="cls-7" d="M70.16,148.26H425.91c2.19,0,3.1-.6,3.1-1.36s-.91-1.36-3.1-1.36H70.16c-2.19,0-3.12.6-3.12,1.36s.93,1.36,3.12,1.36"/><path class="cls-7" d="M70.16,159.14H425.91c2.19,0,3.1-.6,3.1-1.36s-.91-1.36-3.1-1.36H70.16c-2.19,0-3.12.6-3.12,1.36s.93,1.36,3.12,1.36"/><path class="cls-7" d="M70.16,170H425.91c2.19,0,3.1-.6,3.1-1.36s-.91-1.36-3.1-1.36H70.16c-2.19,0-3.12.6-3.12,1.36S68,170,70.16,170"/><path class="cls-7" d="M70.16,180.9H425.91c2.19,0,3.1-.6,3.1-1.36s-.91-1.36-3.1-1.36H70.16c-2.19,0-3.12.6-3.12,1.36s.93,1.36,3.12,1.36"/><path class="cls-7" d="M70.16,191.79H425.91c2.19,0,3.1-.6,3.1-1.36s-.91-1.36-3.1-1.36H70.16c-2.19,0-3.12.6-3.12,1.36s.93,1.36,3.12,1.36"/><rect class="cls-8" x="225.42" width="270.72" height="341.84"/><path class="cls-1" d="M256.65,111.17v-6.36h3.17a3.58,3.58,0,0,0,.91,2.57,2.75,2.75,0,0,0,2,.82,2,2,0,0,0,1.45-.6,1.93,1.93,0,0,0,.59-1.4,2,2,0,0,0-.58-1.44,8.14,8.14,0,0,0-2.11-1.33,16.36,16.36,0,0,1-4.39-2.75,4.44,4.44,0,0,1-1.16-3.22A4.78,4.78,0,0,1,258,93.67a5.12,5.12,0,0,1,3.47-1.34,4,4,0,0,1,3.45,1.74V92.51h3.15v5.67h-3.15a3.19,3.19,0,0,0-.91-2,2.49,2.49,0,0,0-1.76-.72,2.08,2.08,0,0,0-1.31.42,1.31,1.31,0,0,0-.54,1.09,1.66,1.66,0,0,0,.44,1.09,8.83,8.83,0,0,0,2.59,1.46,21.72,21.72,0,0,1,3.17,1.67,5.4,5.4,0,0,1,1.75,1.93,5.68,5.68,0,0,1,.64,2.75A5.21,5.21,0,0,1,267.4,110a5.63,5.63,0,0,1-3.81,1.4,4.4,4.4,0,0,1-3.78-1.82v1.59Z"/><path class="cls-1" d="M274,111.17V108h2.8V95.67H274V100h-3.21v-7.5h16.91V100h-3.17V95.67h-2.88V108h2.8v3.15Z"/><path class="cls-1" d="M299.58,92.22a10.23,10.23,0,0,1,7.6,2.79,9.73,9.73,0,0,1,0,13.61,10.24,10.24,0,0,1-7.59,2.78q-5,0-7.69-2.86a9.52,9.52,0,0,1-2.68-6.73A9.32,9.32,0,0,1,292,95,10.2,10.2,0,0,1,299.58,92.22Zm0,3.41a4.78,4.78,0,0,0-3.64,1.61,6.7,6.7,0,0,0-1.5,4.72,6.35,6.35,0,0,0,1.47,4.4,4.71,4.71,0,0,0,3.66,1.65,4.8,4.8,0,0,0,3.65-1.62,7.74,7.74,0,0,0,.07-9.07A4.65,4.65,0,0,0,299.58,95.63Z"/><path class="cls-1" d="M331.4,108v3.15h-5.68L321.5,103h-2.13v5h2.33v3.15h-9.75V108h2.56V95.67h-2.56V92.51H323.2q3.18,0,4.58,1.6a5.36,5.36,0,0,1,1.4,3.63,4.85,4.85,0,0,1-3.23,4.64l3,5.63Zm-12-8H321q3.08,0,3.08-2.2a1.91,1.91,0,0,0-.7-1.62,3.13,3.13,0,0,0-1.94-.54h-2.11Z"/><path class="cls-1" d="M350.55,108v3.15h-9.17V108h2.39l-.89-3.21H338L337,108h2.49v3.15h-8.26V108h2.31l3.64-12.35h-2.48V92.51h12.18v3.15h-2.51L348.32,108Zm-8.44-5.94-1.56-5.62-1.68,5.62Z"/><path class="cls-1" d="M363.15,104.91v-3.15h8.75a10.17,10.17,0,0,1-1.23,5.38,8.37,8.37,0,0,1-3.57,3.13,11.83,11.83,0,0,1-5.25,1.14q-5.06,0-7.76-2.71a9.34,9.34,0,0,1-2.7-6.88,9.71,9.71,0,0,1,1.34-5.12,8.64,8.64,0,0,1,3.61-3.35,10.91,10.91,0,0,1,4.92-1.13A8.61,8.61,0,0,1,367.1,94V92.51h3.17v6.63H367.1a4.65,4.65,0,0,0-2-2.64,5.68,5.68,0,0,0-3.17-1,5.16,5.16,0,0,0-3.8,1.58,5.92,5.92,0,0,0-1.57,4.37,6.77,6.77,0,0,0,1.6,4.86,5.18,5.18,0,0,0,3.89,1.67,4.61,4.61,0,0,0,2.8-.82,4.2,4.2,0,0,0,1.54-2.28Z"/><path class="cls-1" d="M374.08,111.17V108h2.24V95.67h-2.24V92.51h16.44v5.92H387V95.67h-5.78V100h4.67v3.15h-4.67V108H387v-2.79h3.57v5.94Z"/><path class="cls-1" d="M256,84.93V82.12h2.22v-11H256V68.3h7l6.12,10.37V71.11h-2.16V68.3h7.46v2.81h-2.33V85h-3.71l-7.17-12.33v9.4h2.09v2.81Z"/><path class="cls-1" d="M291.49,82.12v2.81h-8.18V82.12h2.13l-.79-2.86h-4.32l-.88,2.86h2.22v2.81h-7.36V82.12h2.06l3.24-11h-2.21V68.3h10.85v2.81H286l3.49,11ZM284,76.82l-1.39-5-1.49,5Z"/><path class="cls-1" d="M294.36,84.93V82.12h2.5v-11h-2.5V75h-2.86V68.3h15.08V75h-2.82V71.11h-2.57v11h2.5v2.81Z"/><path class="cls-1" d="M307.86,84.93V82.12h2.52v-11h-2.52V68.3h9.4v2.81h-2.55v11h2.55v2.81Z"/><path class="cls-1" d="M328.22,68A9.12,9.12,0,0,1,335,70.52a8.67,8.67,0,0,1,0,12.13,9.13,9.13,0,0,1-6.77,2.48,8.93,8.93,0,0,1-6.85-2.55,8.49,8.49,0,0,1-2.39-6,8.31,8.31,0,0,1,2.46-6.06A9.09,9.09,0,0,1,328.22,68Zm0,3A4.26,4.26,0,0,0,325,72.51a6,6,0,0,0-1.33,4.21A5.66,5.66,0,0,0,325,80.63a4.2,4.2,0,0,0,3.26,1.47,4.27,4.27,0,0,0,3.25-1.44,6.9,6.9,0,0,0,.06-8.09A4.14,4.14,0,0,0,328.22,71.07Z"/><path class="cls-1" d="M339.34,84.93V82.12h2.22v-11h-2.22V68.3h7l6.12,10.37V71.11h-2.16V68.3h7.46v2.81h-2.33V85H351.7l-7.17-12.33v9.4h2.09v2.81Z"/><path class="cls-1" d="M374.82,82.12v2.81h-8.18V82.12h2.13L368,79.26h-4.32l-.88,2.86H365v2.81h-7.36V82.12h2.06l3.24-11h-2.21V68.3h10.85v2.81h-2.24l3.49,11Zm-7.52-5.3-1.39-5-1.49,5Z"/><path class="cls-1" d="M375.48,84.93V82.12h2.38v-11h-2.38V68.3h9.13v2.81h-2.43v11h4.91V77h3.24v7.95Z"/></g></g></svg>