<?xml version="1.0" encoding="UTF-8"?><svg xmlns="http://www.w3.org/2000/svg" xmlns:xlink="http://www.w3.org/1999/xlink" viewBox="0 0 300 1556"><defs><style>.e,.f{fill:none;}.g{fill:#fff;}.h{fill:#ff3008;}.f{stroke:#fff;stroke-miterlimit:10;stroke-width:1.8px;}.i{clip-path:url(#d);}</style><clipPath id="d"><rect class="e" width="300" height="1556"/></clipPath></defs><g id="a"/><g id="b"><g id="c"><g class="i"><g><g><path class="g" d="M53.46,1032.39h4.08l5.44,7.01v-7.01h4.71v14.65h-4.08l-5.44-7.01v7.01h-4.71v-14.65Z"/><path class="g" d="M78.06,1031.97c4.79,0,8.27,3.45,8.27,7.75s-3.48,7.75-8.27,7.75-8.27-3.46-8.27-7.75,3.48-7.75,8.27-7.75Zm0,11.3c2.01,0,3.56-1.55,3.56-3.56s-1.55-3.56-3.56-3.56-3.56,1.55-3.56,3.56,1.55,3.56,3.56,3.56Z"/><path class="g" d="M86.22,1032.39h5.02l1.99,8.06h.11l2.3-8.06h3.77l2.3,8.06h.1l1.99-8.06h5.02l-4.81,14.65h-4.08l-2.37-7.75h-.08l-2.37,7.75h-4.08l-4.82-14.65Z"/><path class="g" d="M113.74,1032.39h5.86c4.61,0,7.96,3.37,7.96,7.33s-3.35,7.33-7.96,7.33h-5.86v-14.65Zm5.76,10.68c2.01,0,3.35-1.34,3.35-3.35s-1.34-3.35-3.35-3.35h-1.05v6.7h1.05Z"/><path class="g" d="M129.64,1032.39h11.62v3.87h-6.91v1.78h5.23v3.35h-5.23v1.78h7.12v3.87h-11.83v-14.65Z"/><path class="g" d="M143.67,1032.39h4.71v10.26h6.07v4.4h-10.78v-14.65Z"/><path class="g" d="M156.22,1032.39h4.71v14.65h-4.71v-14.65Z"/><path class="g" d="M162.08,1032.39h5.02l2.62,9.94h.1l2.62-9.94h5.02l-5.02,14.65h-5.34l-5.02-14.65Z"/><path class="g" d="M178.62,1032.39h11.62v3.87h-6.91v1.78h5.23v3.35h-5.23v1.78h7.12v3.87h-11.83v-14.65Z"/><path class="g" d="M192.64,1032.39h7.22c3.25,0,5.55,2.3,5.55,5.23,0,1.53-.59,2.55-1.15,3.22-.36,.4-.73,.71-1.15,.96l2.83,5.23h-4.92l-2.09-4.19h-1.57v4.19h-4.71v-14.65Zm6.7,6.49c.84,0,1.36-.52,1.36-1.26s-.52-1.26-1.36-1.26h-1.99v2.51h1.99Z"/><path class="g" d="M207.71,1032.39h4.71v14.65h-4.71v-14.65Z"/><path class="g" d="M215.35,1032.39h4.08l5.44,7.01v-7.01h4.71v14.65h-4.08l-5.44-7.01v7.01h-4.71v-14.65Z"/><path class="g" d="M239.73,1038.88h6.8v5.65c-.48,.54-1.05,1.03-1.7,1.46-1.11,.73-2.74,1.47-4.9,1.47-4.79,0-8.27-3.46-8.27-7.75s3.47-7.75,8.27-7.75c2.16,0,3.73,.69,4.79,1.42,.63,.42,1.15,.88,1.59,1.4l-2.83,3.04c-.25-.31-.54-.59-.9-.84-.59-.42-1.47-.84-2.55-.84-2.09,0-3.66,1.55-3.66,3.56s1.55,3.56,3.56,3.56c.78,0,1.34-.15,1.74-.31,.23-.08,.42-.19,.57-.31v-1.15h-2.51v-2.62Z"/></g><g><path class="f" d="M63.01,1072.21h11.39l11.1,14.23,11.1-14.23h11.39v39.85h-12.81v-21.35l-9.68,12.24-9.68-12.24v21.35h-12.81v-39.85Z"/><path class="f" d="M136.61,1071.07c13.04,0,22.49,9.39,22.49,21.06s-9.45,21.06-22.49,21.06-22.49-9.39-22.49-21.06,9.45-21.06,22.49-21.06Zm0,30.74c5.46,0,9.68-4.21,9.68-9.68s-4.21-9.68-9.68-9.68-9.68,4.21-9.68,9.68,4.21,9.68,9.68,9.68Z"/><path class="f" d="M165.21,1072.21h19.64c8.82,0,15.09,6.26,15.09,14.23,0,4.16-1.59,6.95-3.13,8.77-.97,1.08-1.99,1.94-3.13,2.62l7.69,14.23h-13.38l-5.69-11.39h-4.27v11.39h-12.81v-39.85Zm18.22,17.65c2.28,0,3.7-1.42,3.7-3.42s-1.42-3.42-3.7-3.42h-5.41v6.83h5.41Z"/><path class="f" d="M206.82,1072.21h31.6v10.53h-18.79v4.84h14.23v9.11h-14.23v4.84h19.36v10.53h-32.17v-39.85Z"/><path class="g" d="M29.6,1131.59h-10.53v-11.67H52.94v11.67h-10.53v28.18h-12.81v-28.18Z"/><path class="g" d="M76.85,1118.79c13.04,0,22.49,9.39,22.49,21.06s-9.45,21.06-22.49,21.06-22.49-9.39-22.49-21.06,9.45-21.06,22.49-21.06Zm0,30.74c5.46,0,9.68-4.21,9.68-9.68s-4.21-9.68-9.68-9.68-9.68,4.21-9.68,9.68,4.21,9.68,9.68,9.68Z"/><path class="g" d="M124.38,1145.54l-14.23-25.62h13.95l6.55,15.09h.28l6.55-15.09h13.95l-14.23,25.62v14.23h-12.81v-14.23Z"/><path class="g" d="M172.2,1118.79c13.04,0,22.49,9.39,22.49,21.06s-9.45,21.06-22.49,21.06-22.49-9.39-22.49-21.06,9.45-21.06,22.49-21.06Zm0,30.74c5.47,0,9.68-4.21,9.68-9.68s-4.21-9.68-9.68-9.68-9.68,4.21-9.68,9.68,4.21,9.68,9.68,9.68Z"/><path class="g" d="M199.81,1119.92h12.81v23.06c0,3.47,2.79,6.26,5.98,6.26s5.98-2.79,5.98-6.26v-23.06h12.81v23.06c0,10.25-7.63,17.93-18.79,17.93s-18.79-7.68-18.79-17.93v-23.06Z"/><path class="g" d="M244.79,1119.92h19.64c8.82,0,15.09,6.26,15.09,14.23,0,4.16-1.59,6.95-3.13,8.77-.97,1.08-1.99,1.94-3.13,2.62l7.69,14.23h-13.38l-5.69-11.39h-4.27v11.39h-12.81v-39.85Zm18.22,17.65c2.28,0,3.7-1.42,3.7-3.42s-1.42-3.42-3.7-3.42h-5.41v6.83h5.41Z"/><path class="g" d="M63.47,1167.64h15.94c12.52,0,21.63,9.17,21.63,19.93s-9.11,19.93-21.63,19.93h-15.94v-39.85Zm15.66,29.04c5.47,0,9.11-3.64,9.11-9.11s-3.64-9.11-9.11-9.11h-2.85v18.22h2.85Z"/><path class="g" d="M126.94,1166.5c13.04,0,22.49,9.39,22.49,21.06s-9.45,21.06-22.49,21.06-22.49-9.39-22.49-21.06,9.45-21.06,22.49-21.06Zm0,30.74c5.46,0,9.68-4.21,9.68-9.68s-4.21-9.68-9.68-9.68-9.68,4.21-9.68,9.68,4.21,9.68,9.68,9.68Z"/><path class="g" d="M175.33,1166.5c13.04,0,22.49,9.39,22.49,21.06s-9.45,21.06-22.49,21.06-22.49-9.39-22.49-21.06,9.45-21.06,22.49-21.06Zm0,30.74c5.47,0,9.68-4.21,9.68-9.68s-4.21-9.68-9.68-9.68-9.68,4.21-9.68,9.68,4.21,9.68,9.68,9.68Z"/><path class="g" d="M203.51,1167.64h19.64c8.82,0,15.09,6.26,15.09,14.23,0,4.16-1.59,6.95-3.13,8.77-.97,1.08-1.99,1.94-3.13,2.62l7.69,14.23h-13.38l-5.69-11.39h-4.27v11.39h-12.81v-39.85Zm18.22,17.65c2.28,0,3.7-1.42,3.7-3.42s-1.42-3.42-3.7-3.42h-5.41v6.83h5.41Z"/></g><g><path class="h" d="M101.63,52.45c5.66,0,9.93,4.28,9.93,9.66s-4.28,9.66-9.93,9.66h-6.67c-.28,0-.5-.22-.5-.5v-18.31c0-.28,.22-.5,.5-.5h6.67Zm-3.03,3.72v11.86h3.03c3.17,0,5.79-2.62,5.79-5.93s-2.48-5.93-5.79-5.93h-3.03Z"/><path class="h" d="M126.16,52.04c5.93,0,10.48,4.55,10.48,10.07s-4.55,10.07-10.48,10.07-10.48-4.55-10.48-10.07,4.55-10.07,10.48-10.07m0,16.41c3.45,0,6.38-2.76,6.38-6.35s-2.93-6.35-6.38-6.35-6.34,2.76-6.34,6.35,2.89,6.35,6.34,6.35"/><path class="h" d="M151.08,52.04c5.93,0,10.48,4.55,10.48,10.07s-4.55,10.07-10.48,10.07-10.48-4.55-10.48-10.07,4.55-10.07,10.48-10.07m0,16.41c3.45,0,6.38-2.76,6.38-6.35s-2.93-6.35-6.38-6.35-6.34,2.76-6.34,6.35,2.89,6.35,6.34,6.35"/><path class="h" d="M167.05,52.95c0-.28,.22-.5,.5-.5h8.05c3.86,0,6.62,2.81,6.62,6.35,0,4.14-3.45,5.66-3.45,5.66l3.71,6.56c.19,.33-.05,.75-.44,.75h-3.26c-.18,0-.35-.1-.44-.26l-3.58-6.5h-3.59v6.26c0,.28-.22,.5-.5,.5h-3.14c-.28,0-.5-.22-.5-.5v-18.31Zm8.42,3.22h-4.28v5.1h4.28c1.52,0,2.62-1.1,2.62-2.48,0-1.52-1.1-2.62-2.62-2.62"/><path class="h" d="M196.02,52.54c5.66,0,9.93,4.28,9.93,9.66s-4.28,9.66-9.93,9.66h-6.67c-.28,0-.5-.22-.5-.5v-18.31c0-.28,.22-.5,.5-.5h6.67Zm-3.03,3.72v11.87h3.03c3.17,0,5.79-2.62,5.79-5.93s-2.48-5.93-5.79-5.93h-3.03Z"/><path class="h" d="M214.85,67.19l-1.54,4.22c-.07,.2-.26,.33-.47,.33h-3.33c-.35,0-.59-.35-.47-.68l7.19-18.31c.08-.19,.26-.32,.47-.32h3.73c.21,0,.39,.13,.47,.32l7.19,18.31c.13,.33-.11,.68-.47,.68h-3.33c-.21,0-.4-.13-.47-.33l-1.54-4.22h-7.45Zm3.73-9.93l-2.35,6.35h4.69l-2.34-6.35Z"/><path class="h" d="M231.97,57.67c0-3.03,2.62-5.66,6.76-5.66,3.28,0,5.26,1.54,6.01,2.26,.2,.19,.2,.51,.01,.7l-1.86,1.86c-.19,.18-.49,.2-.68,.02-.52-.47-1.64-1.26-3.2-1.26-1.66,0-2.89,.97-2.89,2.07,0,3.59,9.78,1.52,9.78,8.41,0,3.45-2.62,6.07-7.31,6.07-3.8,0-6.15-1.97-6.98-2.8-.19-.19-.19-.51,0-.7l1.78-1.78c.19-.19,.5-.2,.7-.01,.62,.59,2.08,1.72,4.22,1.72s3.43-1.1,3.43-2.48c0-3.59-9.78-1.52-9.78-8.41"/><path class="h" d="M263.65,52.93v7.22h-8.28v-7.22c0-.28-.22-.5-.5-.5h-3.14c-.28,0-.5,.22-.5,.5v18.31c0,.28,.22,.5,.5,.5h3.14c.28,0,.5-.22,.5-.5v-7.36h8.28v7.36c0,.28,.22,.5,.5,.5h3.14c.28,0,.5-.22,.5-.5v-18.31c0-.28-.22-.5-.5-.5h-3.14c-.28,0-.5,.22-.5,.5"/><path class="h" d="M78.12,54.96c-2.09-3.98-6.26-6.42-10.74-6.42H33.38c-1.04,0-1.56,1.26-.82,2l7.41,7.45c.66,.66,1.54,1.03,2.47,1.03h23.98c1.44,0,2.75,.97,3.06,2.39,.44,2.01-1.07,3.79-3,3.79h-16.53c-1.04,0-1.56,1.26-.82,2l7.41,7.45c.66,.66,1.54,1.03,2.47,1.03h7.47c9.72,0,17.08-10.4,11.65-20.72"/></g><g><path class="g" d="M96.36,1262.88h5.43v4.89c-.38,.47-.85,.89-1.41,1.27-.94,.63-2.34,1.27-4.2,1.27-4.06,0-7.06-2.99-7.06-6.7s3.01-6.7,7.06-6.7c1.81,0,3.15,.6,4.08,1.23,.53,.36,.98,.76,1.36,1.21l-2.08,2.35c-.27-.31-.58-.58-.92-.81-.6-.42-1.41-.81-2.43-.81-1.99,0-3.53,1.56-3.53,3.53s1.54,3.53,3.53,3.53c.72,0,1.29-.16,1.67-.36,.22-.11,.42-.24,.6-.36v-1h-2.08v-2.54Z"/><path class="g" d="M104.51,1257.27h9.69v3.08h-6.25v1.81h4.8v2.9h-4.8v1.81h6.43v3.08h-9.87v-12.68Z"/><path class="g" d="M119.23,1260.35h-3.53v-3.08h10.5v3.08h-3.53v9.6h-3.44v-9.6Z"/><path class="g" d="M134.81,1260.35h-3.53v-3.08h10.5v3.08h-3.53v9.6h-3.44v-9.6Z"/><path class="g" d="M143.55,1257.27h3.44v4.62h4.62v-4.62h3.44v12.68h-3.44v-4.8h-4.62v4.8h-3.44v-12.68Z"/><path class="g" d="M158.14,1257.27h9.69v3.08h-6.25v1.81h4.8v2.9h-4.8v1.81h6.43v3.08h-9.87v-12.68Z"/><path class="g" d="M177.79,1257.27h3.8l4.8,12.68h-3.71l-.91-2.72h-4.17l-.91,2.72h-3.71l4.8-12.68Zm3.08,7.15l-1.14-3.62h-.07l-1.14,3.62h2.35Z"/><path class="g" d="M187.95,1257.27h5.71c2.81,0,4.71,1.9,4.71,4.44s-1.9,4.44-4.71,4.44h-2.26v3.8h-3.44v-12.68Zm5.52,5.8c.81,0,1.45-.63,1.45-1.36s-.63-1.36-1.45-1.36h-2.08v2.72h2.08Z"/><path class="g" d="M200.47,1257.27h5.71c2.81,0,4.71,1.9,4.71,4.44s-1.9,4.44-4.71,4.44h-2.26v3.8h-3.44v-12.68Zm5.52,5.8c.81,0,1.45-.63,1.45-1.36s-.63-1.36-1.45-1.36h-2.08v2.72h2.08Z"/></g></g></g></g></g></svg>