<?xml version="1.0" encoding="utf-8"?>
<!-- Generator: Adobe Illustrator 26.0.3, SVG Export Plug-In . SVG Version: 6.00 Build 0)  -->
<svg version="1.1" id="Layer_1" xmlns="http://www.w3.org/2000/svg" xmlns:xlink="http://www.w3.org/1999/xlink" x="0px" y="0px"
	 viewBox="0 0 300 600" style="enable-background:new 0 0 300 600;" xml:space="preserve">
<style type="text/css">
	.st0{fill:#FFFFFF;}
</style>
<g>
	<g>
		<path class="st0" d="M32.8,119.3c0-1.9,1.5-3.3,3.3-3.3s3.4,1.5,3.4,3.3c0,1.9-1.5,3.3-3.3,3.3c0,0,0,0,0,0
			C34.3,122.6,32.8,121.1,32.8,119.3z M33.4,125.8H39v21.3h-5.6L33.4,125.8z"/>
		<path class="st0" d="M45.1,140.4c2.1,1.8,4.7,2.8,7.4,2.9c2.4,0,3.6-0.8,3.6-2.2c0-1.5-1.8-2-4.3-2.5c-3.7-0.7-8.4-1.6-8.4-6.6
			c0-3.6,3.1-6.7,8.7-6.7c3.1,0,6.1,1,8.6,2.9l-2.2,3.9c-1.7-1.6-4-2.5-6.3-2.5c-2,0-3.3,0.8-3.3,2s1.7,1.8,4.1,2.3
			c3.7,0.7,8.5,1.7,8.5,7c0,3.9-3.3,6.8-9.2,6.8c-3.5,0.1-6.9-1.1-9.5-3.3L45.1,140.4z"/>
		<path class="st0" d="M91.3,134.1c0-3-1.6-3.9-4-3.9c-1.9,0-3.7,1-4.8,2.5v14.3h-5.6v-29.4h5.6v10.9c1.9-2.2,4.7-3.4,7.5-3.3
			c4.7,0,6.9,2.6,6.9,6.7v15.1h-5.6V134.1z"/>
		<path class="st0" d="M101.1,136.4c-0.2-6,4.4-11,10.4-11.2c0.3,0,0.6,0,0.8,0c7.1,0,11.3,5.1,11.3,11.2c0.2,6-4.4,11-10.4,11.2
			c-0.3,0-0.6,0-0.9,0C105.3,147.6,101.1,142.5,101.1,136.4z M117.8,136.4c0-3.3-2-6.2-5.5-6.2s-5.4,2.9-5.4,6.2s1.9,6.2,5.4,6.2
			S117.8,139.7,117.8,136.4z"/>
		<path class="st0" d="M154.2,133.6c0-2-0.9-3.4-3.2-3.4c-1.8,0.1-3.4,1-4.4,2.5v14.4H141v-13.4c0-2-0.9-3.4-3.2-3.4
			c-1.8,0.1-3.4,1-4.4,2.5v14.3h-5.6v-21.3h5.6v2.8c1.7-2.1,4.3-3.3,7-3.3c3.1,0,5.1,1.5,5.9,3.9c1.7-2.4,4.4-3.9,7.3-3.9
			c3.9,0,6.3,2.1,6.3,6.4v15.4h-5.6L154.2,133.6z"/>
		<path class="st0" d="M175,125.2c6.4,0,10.7,4.8,10.7,11.7v1.2h-15.8c0.4,2.7,2.5,4.9,6.1,4.9c2.1,0,4.1-0.8,5.7-2.1l2.5,3.6
			c-2.5,2-5.6,3.1-8.8,3c-6.5,0-11.4-4.4-11.4-11.2c-0.2-6,4.5-11,10.5-11.2C174.6,125.2,174.8,125.2,175,125.2z M169.8,134.4h10.5
			c-0.1-2.7-2.4-4.8-5.1-4.7c0,0-0.1,0-0.1,0C172.3,129.6,170,131.7,169.8,134.4z"/>
		<path class="st0" d="M202.1,141.8v-11.1h-3.5v-4.9h3.5v-5.8h5.6v5.8h4.3v4.9h-4.3v9.6c0,1.3,0.7,2.3,1.9,2.3
			c0.7,0,1.4-0.2,1.9-0.6l1.2,4.2c-1.3,1-3,1.5-4.7,1.4C204.2,147.6,202.1,145.6,202.1,141.8z"/>
		<path class="st0" d="M214.6,136.4c-0.2-6,4.5-11,10.4-11.2c0.3,0,0.6,0,0.8,0c7.1,0,11.3,5.1,11.3,11.2c0.2,6-4.4,11-10.4,11.2
			c-0.3,0-0.6,0-0.9,0C218.8,147.6,214.6,142.5,214.6,136.4z M231.3,136.4c0-3.3-2-6.2-5.5-6.2s-5.4,2.9-5.4,6.2s1.9,6.2,5.4,6.2
			S231.3,139.7,231.3,136.4z"/>
	</g>
</g>
</svg>
