<?xml version="1.0" encoding="utf-8"?>
<!-- Generator: Adobe Illustrator 26.0.3, SVG Export Plug-In . SVG Version: 6.00 Build 0)  -->
<svg version="1.1" id="Layer_1" xmlns="http://www.w3.org/2000/svg" xmlns:xlink="http://www.w3.org/1999/xlink" x="0px" y="0px"
	 viewBox="0 0 300 600" style="enable-background:new 0 0 300 600;" xml:space="preserve">
<style type="text/css">
	.st0{fill:#CDFFFF;}
</style>
<g>
	<path class="st0" d="M32.8,116h5.6v29.4h-5.6V116z"/>
	<path class="st0" d="M56.7,143.2c-1.7,1.9-4.2,2.9-6.7,2.8c-3.4,0-7.4-2.3-7.4-7.1c0-5,4-6.8,7.4-6.8c2.8,0,5.3,0.9,6.7,2.6v-2.9
		c0-2.2-1.8-3.6-4.7-3.6c-2.3,0-4.5,0.9-6.2,2.5l-2.1-3.8c2.6-2.2,5.9-3.4,9.3-3.3c4.8,0,9.3,1.9,9.3,8.1v13.8h-5.6L56.7,143.2z
		 M56.7,137.7c-1.1-1.3-2.8-2-4.5-1.9c-2.2,0-4,1.1-4,3.2s1.8,3.1,4,3.1c1.7,0.1,3.4-0.6,4.5-1.9V137.7z"/>
	<path class="st0" d="M67.9,124.1h5.6v2.9c1.7-2.1,4.1-3.3,6.8-3.4v5.5c-0.5-0.1-1-0.2-1.6-0.2c-2,0-3.9,0.9-5.2,2.4v14.1h-5.6
		V124.1z"/>
	<path class="st0" d="M85.8,146.8c1.7,1.8,4.2,2.8,6.7,2.6c2.7,0,5.9-1.2,5.9-5.4v-2.2c-1.5,2.1-4,3.3-6.6,3.4
		c-5.3,0-9.4-3.8-9.4-10.9s4-10.8,9.4-10.8c2.6,0,5,1.2,6.6,3.3v-2.7h5.6V144c0,8.1-6.3,10.1-11.5,10.1c-3.4,0.2-6.6-1-9.2-3.2
		L85.8,146.8z M98.4,131c-1.1-1.5-2.9-2.4-4.8-2.4c-3.2,0-5.4,2.2-5.4,5.9s2.2,5.9,5.4,5.9c1.9,0,3.7-0.9,4.8-2.4V131z"/>
	<path class="st0" d="M119.2,123.6c6.3,0,10.7,4.8,10.7,11.7v1.2h-15.8c0.3,2.7,2.5,4.9,6.1,4.9c2.1,0,4.1-0.7,5.7-2.1l2.5,3.6
		c-2.5,2-5.6,3.1-8.8,3c-6.5,0-11.4-4.4-11.4-11.2c-0.2-6,4.5-11,10.5-11.2C118.8,123.6,119,123.6,119.2,123.6z M114,132.8h10.5
		c-0.1-2.7-2.4-4.8-5.1-4.7c0,0-0.1,0-0.1,0C116.5,128,114.2,130,114,132.8z"/>
	<path class="st0" d="M134.5,138.7c2.1,1.8,4.7,2.8,7.4,2.9c2.4,0,3.6-0.8,3.6-2.2c0-1.5-1.9-2-4.3-2.5c-3.7-0.7-8.4-1.6-8.4-6.7
		c0-3.6,3.1-6.7,8.7-6.7c3.1,0,6.2,1,8.6,2.9l-2.2,3.8c-1.7-1.6-4-2.5-6.3-2.5c-2,0-3.4,0.8-3.4,2s1.7,1.8,4.1,2.3
		c3.7,0.7,8.6,1.7,8.6,7c0,3.9-3.3,6.8-9.2,6.8c-3.5,0.1-6.9-1.1-9.5-3.3L134.5,138.7z"/>
	<path class="st0" d="M156.1,140.1V129h-3.5v-4.9h3.5v-5.8h5.6v5.8h4.3v4.9h-4.3v9.6c0,1.3,0.7,2.3,1.9,2.3c0.7,0,1.4-0.2,1.9-0.6
		l1.2,4.2c-1.3,1-3,1.5-4.7,1.4C158.2,146,156.1,143.9,156.1,140.1z"/>
</g>
</svg>
