<?xml version="1.0" encoding="utf-8"?>
<!-- Generator: Adobe Illustrator 26.0.3, SVG Export Plug-In . SVG Version: 6.00 Build 0)  -->
<svg version="1.1" id="Layer_1" xmlns="http://www.w3.org/2000/svg" xmlns:xlink="http://www.w3.org/1999/xlink" x="0px" y="0px"
	 viewBox="0 0 300 600" style="enable-background:new 0 0 300 600;" xml:space="preserve">
<style type="text/css">
	.st0{fill:#C1E8A0;}
</style>
<g>
	<g>
		<path class="st0" d="M47.2,146.5c4.9-0.2,9.6,2.3,12.2,6.5l-5.2,2.8c-1.6-2.3-4.2-3.7-7-3.7c-5.3,0-9.2,4.1-9.2,9.6
			s3.9,9.7,9.2,9.7c2.3,0,4.6-0.8,6.3-2.2v-3.6h-7.8v-5.4h14v11.2c-3.2,3.6-7.7,5.6-12.5,5.5c-8.6,0-15.6-6-15.6-15.3
			S38.5,146.5,47.2,146.5z"/>
		<path class="st0" d="M64.5,155.1h5.6v2.9c1.7-2.1,4.1-3.3,6.8-3.4v5.5c-0.5-0.1-1-0.2-1.5-0.2c-2,0-3.9,0.9-5.2,2.4v14.1h-5.6
			V155.1z"/>
		<path class="st0" d="M90.1,154.6c6.3,0,10.7,4.8,10.7,11.7v1.2H84.9c0.3,2.7,2.5,4.9,6.1,4.9c2.1,0,4.1-0.7,5.7-2.1l2.5,3.6
			c-2.5,2-5.6,3.1-8.8,3c-6.5,0-11.4-4.4-11.4-11.2c-0.2-6,4.5-11,10.5-11.2C89.7,154.6,89.9,154.6,90.1,154.6z M84.8,163.8h10.5
			c-0.1-2.7-2.4-4.9-5.1-4.8c-0.1,0-0.1,0-0.2,0C87.3,158.9,85,161,84.8,163.8z"/>
		<path class="st0" d="M117.6,174.2c-1.7,1.8-4.2,2.8-6.7,2.7c-3.4,0-7.4-2.3-7.4-7.1c0-5,4-6.8,7.4-6.8c2.8,0,5.3,0.9,6.7,2.6v-2.9
			c0-2.2-1.8-3.6-4.7-3.6c-2.3,0-4.5,0.9-6.2,2.5l-2.1-3.8c2.6-2.2,5.9-3.4,9.3-3.4c4.8,0,9.3,1.9,9.3,8.1v13.8h-5.6L117.6,174.2z
			 M117.6,168.7c-1.1-1.3-2.8-2-4.5-1.9c-2.2,0-4,1.1-4,3.2s1.8,3.1,4,3.1c1.7,0.1,3.4-0.6,4.5-1.9V168.7z"/>
		<path class="st0" d="M129.9,171.1V160h-3.5v-4.9h3.5v-5.8h5.6v5.8h4.3v4.9h-4.3v9.6c0,1.3,0.7,2.3,1.9,2.3c0.7,0,1.4-0.2,1.9-0.6
			l1.2,4.2c-1.3,1-3,1.5-4.7,1.4C132,177,129.9,174.9,129.9,171.1z"/>
		<path class="st0" d="M172.4,156.2l-5.1,20.2h-6.7l-8.4-29.4h7l5.2,21.3L170,147h4.9l5.6,21.3l5.1-21.3h7.1l-8.4,29.4h-6.7
			L172.4,156.2z"/>
		<path class="st0" d="M206.4,174.2c-1.7,1.8-4.2,2.8-6.7,2.7c-3.4,0-7.4-2.3-7.4-7.1c0-5,4-6.8,7.4-6.8c2.8,0,5.3,0.9,6.7,2.6v-2.9
			c0-2.2-1.9-3.6-4.7-3.6c-2.3,0-4.5,0.9-6.2,2.5l-2.1-3.8c2.6-2.2,5.9-3.4,9.3-3.4c4.9,0,9.3,1.9,9.3,8.1v13.8h-5.6V174.2z
			 M206.4,168.7c-1.1-1.3-2.8-2-4.5-1.9c-2.2,0-4,1.1-4,3.2s1.8,3.1,4,3.1c1.7,0.1,3.4-0.6,4.5-1.9V168.7z"/>
		<path class="st0" d="M217.6,147h5.6v29.4h-5.6V147z"/>
		<path class="st0" d="M236.9,168.2l-2.6,2.8v5.5h-5.6V147h5.6v17.6l8.1-9.5h6.9l-8.4,9.7l8.7,11.6h-7L236.9,168.2z"/>
		<path class="st0" d="M255.2,169.8c2,0,3.6,1.6,3.6,3.6s-1.6,3.6-3.6,3.6s-3.6-1.6-3.6-3.6C251.7,171.4,253.3,169.8,255.2,169.8z"
			/>
	</g>
</g>
</svg>
