<?xml version="1.0" encoding="utf-8"?>
<!-- Generator: Adobe Illustrator 26.0.3, SVG Export Plug-In . SVG Version: 6.00 Build 0)  -->
<svg version="1.1" id="Layer_1" xmlns="http://www.w3.org/2000/svg" xmlns:xlink="http://www.w3.org/1999/xlink" x="0px" y="0px"
	 viewBox="0 0 300 600" style="enable-background:new 0 0 300 600;" xml:space="preserve">
<style type="text/css">
	.st0{fill:#C1E8A0;}
</style>
<g>
	<g>
		<path class="st0" d="M33.9,136.1V125h-3.5v-4.9h3.5v-5.8h5.6v5.8h4.3v4.9h-4.3v9.6c0,1.4,0.7,2.4,1.9,2.4c0.7,0,1.4-0.2,1.9-0.7
			l1.2,4.3c-1.3,1-3,1.5-4.7,1.4C36,142,33.9,139.9,33.9,136.1z M47.2,114.5c0.1-1.8,1.7-3.2,3.5-3.1c1.7,0.1,3,1.4,3.1,3.1
			c0.1,1.8-1.3,3.4-3.1,3.5s-3.4-1.3-3.5-3.1C47.2,114.7,47.2,114.6,47.2,114.5z M47.7,141.4v-21.3h5.6v21.3H47.7z M57.5,130.7
			c0-6.5,4.8-11.2,11.3-11.2c4.4,0,7,1.9,8.4,3.8l-3.7,3.4c-1-1.5-2.7-2.4-4.5-2.3c-3.4,0-5.8,2.5-5.8,6.2s2.4,6.3,5.8,6.3
			c1.8,0,3.5-0.8,4.5-2.3l3.7,3.4c-1.4,1.9-4,3.9-8.4,3.9C62.2,142,57.5,137.3,57.5,130.7L57.5,130.7z M94.6,141.4l-5.6-8.2
			l-2.6,2.8v5.5h-5.6V112h5.6v17.6l8.1-9.5h6.9l-8.4,9.6l8.7,11.6L94.6,141.4z M114.5,130.7c-0.2-5.9,4.4-10.9,10.4-11.2
			c0.3,0,0.6,0,0.8,0c7.1,0,11.3,5.1,11.3,11.2c-0.2,6.2-5.4,11.1-11.6,10.9C119.4,141.5,114.6,136.7,114.5,130.7z M131.2,130.7
			c0-3.3-1.9-6.2-5.5-6.2s-5.4,2.9-5.4,6.2c0,3.3,1.9,6.2,5.4,6.2S131.2,134.1,131.2,130.7L131.2,130.7z M142.5,141.4V125h-3.5v-4.9
			h3.5v-0.9c0-4.8,2.9-7.7,7.1-7.7c2-0.1,4.1,0.6,5.6,2L153,117c-0.6-0.6-1.5-0.9-2.3-0.8c-1.6,0-2.6,1-2.6,3.1v0.9h4.3v4.9h-4.3
			v16.4L142.5,141.4z M156.9,141.4V125h-3.5v-4.9h3.5v-0.9c0-4.8,2.9-7.7,7.1-7.7c2-0.1,4.1,0.6,5.6,2l-2.1,3.4
			c-0.6-0.6-1.5-0.9-2.3-0.8c-1.6,0-2.6,1-2.6,3.1v0.9h4.3v4.9h-4.3v16.4L156.9,141.4z M194.2,141.4v-2.2c-1.7,1.9-4.2,2.9-6.7,2.8
			c-3.4,0-7.4-2.3-7.4-7.1c0-5,4-6.9,7.4-6.9c2.5-0.1,5,0.8,6.7,2.6v-2.7c0-2.2-1.9-3.6-4.7-3.6c-2.3,0-4.5,0.9-6.1,2.5l-2.2-3.9
			c2.6-2.2,5.9-3.4,9.3-3.3c4.9,0,9.4,1.9,9.4,8.1v13.8H194.2z M194.2,136.3v-2.6c-1.1-1.3-2.8-2-4.5-1.9c-2.2,0-4,1.2-4,3.2
			s1.8,3.2,4,3.2C191.4,138.3,193.1,137.6,194.2,136.3L194.2,136.3z"/>
	</g>
</g>
</svg>
