<?xml version="1.0" encoding="utf-8"?>
<!-- Generator: Adobe Illustrator 26.0.3, SVG Export Plug-In . SVG Version: 6.00 Build 0)  -->
<svg version="1.1" id="Layer_1" xmlns="http://www.w3.org/2000/svg" xmlns:xlink="http://www.w3.org/1999/xlink" x="0px" y="0px"
	 viewBox="0 0 300 600" style="enable-background:new 0 0 300 600;" xml:space="preserve">
<style type="text/css">
	.st0{fill:#FFC7AE;}
</style>
<g>
	<g>
		<path class="st0" d="M34.8,177.8c2.2,2.1,5.1,3.3,8.1,3.4c3.6,0,5.6-1.5,5.6-3.8s-1.8-3.5-5.9-3.5c-1.2,0-3.2,0-3.7,0v-5.5
			c0.5,0.1,2.6,0.1,3.7,0.1c3.3,0,5.4-1.1,5.4-3.3s-2.4-3.5-5.5-3.5c-2.8,0-5.5,1.1-7.5,3.1l-3.1-3.9c2.9-3.1,7-4.8,11.2-4.7
			c6.9,0,11.1,3.1,11.1,8c0,3.7-3.2,6.1-6.4,6.7c3,0.3,6.9,2.6,6.9,7.1c0,5.1-4.5,8.6-11.6,8.6c-5.4,0-9.4-2.1-11.6-4.7L34.8,177.8z
			"/>
		<path class="st0" d="M69.2,175.4c-0.2-6,4.5-11,10.4-11.2c0.3,0,0.6,0,0.8,0c6.2,0,11.2,5,11.2,11.2c0,6.2-5,11.2-11.2,11.2
			c0,0,0,0,0,0C73.4,186.6,69.2,181.5,69.2,175.4z M85.9,175.4c0-3.3-2-6.2-5.5-6.2s-5.4,2.9-5.4,6.2s2,6.2,5.4,6.2
			S85.9,178.7,85.9,175.4z"/>
		<path class="st0" d="M97.1,169.7h-3.5v-4.9h3.5v-1.1c0-4.6,3-7.4,7.2-7.4c1.4,0,2.8,0.3,4.1,0.9l-1.2,4c-0.6-0.3-1.2-0.5-1.8-0.4
			c-1.6,0-2.7,1.1-2.7,3.1v1.1h4.3v4.9h-4.3v16.4h-5.6V169.7z"/>
		<path class="st0" d="M128,166.3v19.8h-6.3v-29.4h6.4l13.6,19v-19h6.3v29.4H142L128,166.3z"/>
		<path class="st0" d="M152.8,181l13.9-18.8h-13.9v-5.5h22.1v5L161,180.6h14.2v5.5h-22.4L152.8,181z"/>
		<path class="st0" d="M179.6,166.9c1.6-0.9,2.8-2.4,3.4-4.2c-0.3,0.1-0.6,0.2-0.8,0.2c-1.7,0-3-1.3-3-3c0-0.1,0-0.1,0-0.2
			c0-1.9,1.5-3.5,3.4-3.5c2.1,0,4,1.6,4,4.5c-0.1,3.3-1.8,6.4-4.5,8.2L179.6,166.9z"/>
		<path class="st0" d="M190.4,179.4c2.1,1.8,4.7,2.8,7.4,2.9c2.4,0,3.6-0.8,3.6-2.2c0-1.5-1.9-2-4.3-2.5c-3.7-0.7-8.4-1.6-8.4-6.6
			c0-3.6,3.1-6.7,8.7-6.7c3.1,0,6.1,1,8.6,2.9l-2.2,3.9c-1.7-1.6-4-2.5-6.3-2.5c-2,0-3.4,0.8-3.4,2s1.7,1.8,4.1,2.3
			c3.7,0.7,8.6,1.7,8.6,7c0,3.9-3.3,6.8-9.2,6.8c-3.5,0.1-6.9-1.1-9.5-3.3L190.4,179.4z"/>
	</g>
</g>
</svg>
