<?xml version="1.0" encoding="utf-8"?>
<!-- Generator: Adobe Illustrator 26.0.3, SVG Export Plug-In . SVG Version: 6.00 Build 0)  -->
<svg version="1.1" id="Layer_1" xmlns="http://www.w3.org/2000/svg" xmlns:xlink="http://www.w3.org/1999/xlink" x="0px" y="0px"
	 viewBox="0 0 300 600" style="enable-background:new 0 0 300 600;" xml:space="preserve">
<style type="text/css">
	.st0{fill:#FFC7AE;}
</style>
<g>
	<g>
		<path class="st0" d="M47.8,195.2c4.9-0.2,9.6,2.3,12.2,6.4l-5.2,2.8c-1.6-2.3-4.2-3.7-7-3.7c-5.3,0-9.2,4.1-9.2,9.7
			s3.9,9.6,9.2,9.6c2.3,0,4.6-0.8,6.3-2.2v-3.6h-7.8v-5.4h14V220c-3.2,3.6-7.7,5.6-12.5,5.6c-8.6,0-15.7-6-15.7-15.2
			S39.2,195.2,47.8,195.2z"/>
		<path class="st0" d="M65.2,203.8h5.6v2.9c1.7-2.1,4.1-3.3,6.8-3.4v5.5c-0.5-0.1-1-0.2-1.6-0.2c-2,0-3.9,0.9-5.2,2.4v14.1h-5.6
			V203.8z"/>
		<path class="st0" d="M90.7,203.2c6.3,0,10.7,4.8,10.7,11.7v1.2H85.5c0.3,2.7,2.5,4.9,6.1,4.9c2.1,0,4.1-0.8,5.7-2.1l2.5,3.6
			c-2.5,2-5.6,3.1-8.8,3c-6.5,0-11.4-4.4-11.4-11.2c-0.2-6,4.5-11,10.5-11.2C90.3,203.2,90.5,203.2,90.7,203.2z M85.4,212.4h10.5
			c-0.1-2.7-2.4-4.8-5.1-4.7c0,0-0.1,0-0.1,0C88,207.6,85.6,209.7,85.4,212.4z"/>
		<path class="st0" d="M118.2,222.9c-1.8,1.8-4.2,2.8-6.8,2.7c-3.4,0-7.4-2.3-7.4-7.1c0-5,4-6.8,7.4-6.8c2.8,0,5.3,0.9,6.8,2.6v-3
			c0-2.2-1.8-3.6-4.7-3.6c-2.3,0-4.5,0.9-6.2,2.5l-2.1-3.8c2.6-2.2,5.9-3.4,9.3-3.4c4.8,0,9.3,1.9,9.3,8.1V225h-5.6V222.9z
			 M118.2,217.3c-1.1-1.3-2.8-1.9-4.5-1.9c-2.2,0-4,1.1-4,3.2s1.8,3.1,4,3.1c1.7,0.1,3.4-0.6,4.5-1.9V217.3z"/>
		<path class="st0" d="M130.5,219.8v-11.1h-3.5v-4.9h3.5v-5.8h5.6v5.8h4.3v4.9h-4.3v9.6c0,1.3,0.7,2.3,1.9,2.3
			c0.7,0,1.4-0.2,1.9-0.6l1.2,4.2c-1.3,1-3,1.5-4.7,1.4C132.6,225.6,130.5,223.6,130.5,219.8z"/>
		<path class="st0" d="M173,204.9l-5.1,20.2h-6.6l-8.4-29.4h7l5.2,21.2l5.6-21.2h4.9l5.5,21.2l5.1-21.2h7.1l-8.4,29.4h-6.7
			L173,204.9z"/>
		<path class="st0" d="M207.1,222.9c-1.8,1.8-4.2,2.8-6.8,2.7c-3.4,0-7.4-2.3-7.4-7.1c0-5,4-6.8,7.4-6.8c2.8,0,5.3,0.9,6.8,2.6v-3
			c0-2.2-1.9-3.6-4.7-3.6c-2.3,0-4.5,0.9-6.2,2.5l-2.1-3.8c2.6-2.2,5.9-3.4,9.3-3.4c4.9,0,9.3,1.9,9.3,8.1V225h-5.6V222.9z
			 M207.1,217.3c-1.1-1.3-2.8-1.9-4.5-1.9c-2.2,0-4,1.1-4,3.2s1.8,3.1,4,3.1c1.7,0.1,3.4-0.6,4.5-1.9V217.3z"/>
		<path class="st0" d="M218.2,195.6h5.6v29.4h-5.6V195.6z"/>
		<path class="st0" d="M237.5,216.9l-2.5,2.7v5.5h-5.6v-29.4h5.6v17.6l8.1-9.5h6.9l-8.4,9.7l8.7,11.6h-7L237.5,216.9z"/>
		<path class="st0" d="M253.6,218.4c2.1,1.8,4.7,2.8,7.4,2.9c2.4,0,3.6-0.8,3.6-2.2c0-1.5-1.9-2-4.3-2.5c-3.7-0.7-8.4-1.6-8.4-6.6
			c0-3.6,3.1-6.7,8.7-6.7c3.1,0,6.2,1,8.6,2.9l-2.3,3.9c-1.7-1.6-4-2.5-6.3-2.5c-2,0-3.4,0.8-3.4,2s1.7,1.8,4,2.3
			c3.7,0.7,8.6,1.7,8.6,7c0,3.9-3.3,6.8-9.2,6.8c-3.5,0.1-6.9-1.1-9.5-3.3L253.6,218.4z"/>
		<path class="st0" d="M276.9,218.4c2,0,3.6,1.6,3.6,3.6s-1.6,3.6-3.6,3.6s-3.6-1.6-3.6-3.6c0,0,0,0,0,0
			C273.3,220,274.9,218.4,276.9,218.4z"/>
	</g>
</g>
</svg>
