<?xml version="1.0" encoding="utf-8"?>
<!-- Generator: Adobe Illustrator 26.0.3, SVG Export Plug-In . SVG Version: 6.00 Build 0)  -->
<svg version="1.1" id="Layer_1" xmlns="http://www.w3.org/2000/svg" xmlns:xlink="http://www.w3.org/1999/xlink" x="0px" y="0px"
	 viewBox="0 0 300 600" style="enable-background:new 0 0 300 600;" xml:space="preserve">
<style type="text/css">
	.st0{fill:#FFFFFF;}
	.st1{clip-path:url(#SVGID_00000013178462155113220820000016584611007240064416_);}
</style>
<g>
	<g>
		<path class="st0" d="M76.3,547.9l-2.8-4.6h-2.2v4.6h-1.8V536h5c2-0.2,3.7,1.3,3.8,3.3c0,0.1,0,0.3,0,0.4c0.1,1.8-1.2,3.3-3,3.5
			l3,4.8H76.3z M74.2,537.6h-3v4.2h3c1.2,0,2.1-0.9,2.1-2.1C76.3,538.5,75.4,537.6,74.2,537.6C74.2,537.6,74.2,537.6,74.2,537.6z"/>
		<path class="st0" d="M79.3,543.6c0.1-2.4,2.1-4.3,4.5-4.2c2.4,0.1,4.3,2.1,4.2,4.5c-0.1,2.3-2,4.2-4.4,4.2c-2.4,0-4.3-1.8-4.4-4.2
			C79.3,543.8,79.3,543.7,79.3,543.6z M86.3,543.6c0-1.6-1-3.1-2.7-3.1c-1.5,0.1-2.7,1.4-2.7,3c0,0,0,0.1,0,0.1c0,1.6,1,3.1,2.7,3.1
			S86.4,545.2,86.3,543.6L86.3,543.6z"/>
		<path class="st0" d="M95.9,547.9v-1.2c-0.8,0.9-1.9,1.4-3.1,1.4c-1.3,0.2-2.6-0.7-2.8-2.1c0-0.2,0-0.5,0-0.7v-6.1h1.6v5.5
			c0,1.4,0.7,1.8,1.8,1.8c0.9,0,1.8-0.5,2.4-1.2v-6.2h1.6v8.6L95.9,547.9z"/>
		<path class="st0" d="M100.4,546v-5.3H99v-1.4h1.4v-2.4h1.6v2.4h1.8v1.4H102v4.9c0,0.6,0.3,1,0.8,1c0.3,0,0.6-0.1,0.9-0.3l0.4,1.2
			c-0.5,0.4-1.1,0.6-1.7,0.5c-1,0.1-2-0.6-2.1-1.7C100.4,546.3,100.4,546.1,100.4,546z"/>
		<path class="st0" d="M109.3,539.1c2.6,0,4.2,2,4.2,4.7v0.4h-6.8c0.1,1.5,1.4,2.7,2.9,2.7c0.9,0,1.9-0.3,2.6-1l0.8,1.1
			c-0.9,0.9-2.2,1.3-3.5,1.3c-2.5-0.2-4.3-2.5-4.1-5C105.6,541.1,107.2,539.4,109.3,539.1L109.3,539.1z M106.7,543h5.3
			c0-1.4-1.1-2.6-2.5-2.6c0,0-0.1,0-0.1,0C107.9,540.4,106.7,541.6,106.7,543z"/>
		<path class="st0" d="M115.5,547.9V536h1.6v4.5c0.6-0.9,1.7-1.5,2.8-1.5c2.2,0,3.8,1.8,3.8,4.5s-1.6,4.5-3.8,4.5
			c-1.1,0-2.2-0.5-2.8-1.4v1.2H115.5z M117.1,545.4c0.5,0.8,1.4,1.2,2.4,1.2c1.6,0,2.6-1.3,2.6-3.1s-1-3.1-2.6-3.1
			c-1,0-1.8,0.5-2.4,1.3V545.4z"/>
		<path class="st0" d="M131.7,547.9v-1.2c-0.8,0.9-1.9,1.4-3.1,1.4c-1.3,0.2-2.6-0.7-2.8-2.1c0-0.2,0-0.5,0-0.7v-6.1h1.6v5.5
			c0,1.4,0.7,1.8,1.8,1.8c0.9,0,1.8-0.5,2.4-1.2v-6.2h1.6v8.6L131.7,547.9z"/>
		<path class="st0" d="M135.8,547.9v-8.6h1.6v1.3c0.7-0.9,1.7-1.5,2.8-1.5v1.6c-0.2,0-0.4-0.1-0.6,0c-0.9,0.1-1.7,0.5-2.3,1.2v6
			H135.8z"/>
		<path class="st0" d="M147.7,547.9v-5.5c0-1.4-0.7-1.9-1.8-1.9c-0.9,0-1.8,0.5-2.4,1.2v6.2h-1.6v-8.6h1.6v1.2
			c0.8-0.9,1.8-1.4,3-1.4c1.4-0.2,2.6,0.8,2.8,2.1c0,0.2,0,0.4,0,0.6v6L147.7,547.9z"/>
		<path class="st0" d="M72.3,564.1v-10.3h-3.7v-1.6h9.2v1.6h-3.7v10.3L72.3,564.1z"/>
		<path class="st0" d="M78.2,564.1v-8.6h1.6v1.3c0.7-0.9,1.7-1.5,2.8-1.5v1.6c-0.2,0-0.4,0-0.6,0c-0.9,0.1-1.7,0.5-2.3,1.2v6
			L78.2,564.1z"/>
		<path class="st0" d="M89.5,564.1v-1c-0.7,0.8-1.8,1.2-2.8,1.2c-1.6,0.1-2.9-1.1-3-2.7c0,0,0-0.1,0-0.1c0-1.5,1.2-2.8,2.7-2.8
			c0.1,0,0.2,0,0.3,0c1.1-0.1,2.1,0.4,2.8,1.1v-1.4c0-1.1-0.9-1.7-2.1-1.7c-1,0-1.9,0.4-2.6,1.1l-0.7-1.1c0.9-0.9,2.2-1.4,3.5-1.4
			c1.9,0,3.5,0.8,3.5,3v5.8L89.5,564.1z M89.5,560.8c-0.5-0.7-1.4-1-2.2-1c-0.9-0.1-1.8,0.5-1.9,1.5c-0.1,0.9,0.5,1.8,1.5,1.9
			c0.2,0,0.3,0,0.5,0c0.9,0,1.7-0.3,2.2-1V560.8z"/>
		<path class="st0" d="M97.6,555.3c1.3-0.1,2.5,0.5,3.2,1.5l-1.1,1c-0.5-0.7-1.3-1.1-2.1-1.1c-1.7,0.2-3,1.7-2.8,3.4
			c0.1,1.5,1.3,2.6,2.8,2.8c0.8,0,1.6-0.4,2.1-1.1l1.1,1c-0.8,1-2,1.6-3.2,1.5c-2.5-0.1-4.4-2.2-4.3-4.7
			C93.4,557.3,95.2,555.4,97.6,555.3L97.6,555.3z"/>
		<path class="st0" d="M108.4,564.1l-2.9-3.7l-1.3,1.3v2.4h-1.6v-11.9h1.6v7.7l4.2-4.4h2l-3.7,3.9l3.8,4.7H108.4z"/>
		<g>
			<defs>
				<rect id="SVGID_1_" width="300" height="600"/>
			</defs>
			<clipPath id="SVGID_00000098206318722264342040000012889558270397452425_">
				<use xlink:href="#SVGID_1_"  style="overflow:visible;"/>
			</clipPath>
			<g style="clip-path:url(#SVGID_00000098206318722264342040000012889558270397452425_);">
				<path class="st0" d="M53.4,551.9c-3.2,4.4-6.4,8.8-9.6,13.3l-0.1,0.2c-0.2,0.3-0.4,0.3-0.6,0c-0.7-1-1.4-1.9-2.1-2.8
					c-2.4-3.4-4.8-6.8-7.3-10.1c-1.1-1.5-1.9-3.1-2.4-4.9c-0.2-0.9-0.4-1.9-0.4-2.8c0-6.2,4.5-11.5,10.6-12.5
					c6.7-1,13,3.5,14.1,10.2C56.2,545.8,55.4,549.2,53.4,551.9 M56.5,541.9c-1.2-6.1-6.4-10.5-12.6-10.8
					c-7.4-0.2-13.6,5.6-13.8,13.1c0,0.6,0,1.2,0.1,1.7c0.3,2.4,1.2,4.7,2.6,6.6l10.1,14c0.3,0.5,0.7,0.5,1,0c1-1.4,2-2.7,2.9-4.1
					c2.5-3.5,5.1-7,7.6-10.5c1.6-2.2,2.4-4.9,2.4-7.6C56.7,543.7,56.6,542.8,56.5,541.9"/>
				<path class="st0" d="M43.3,552.8c-4.6,0-8.2-3.7-8.2-8.3c0-4.6,3.7-8.2,8.3-8.2c4.6,0,8.2,3.7,8.2,8.3
					C51.6,549.1,47.9,552.8,43.3,552.8 M55.6,542.5c-1.1-6.7-7.4-11.2-14.1-10.2c-6.1,1-10.6,6.3-10.6,12.5c0,1,0.1,1.9,0.4,2.8
					c0.5,1.8,1.3,3.4,2.4,4.9c2.5,3.3,4.9,6.7,7.3,10.1c0.7,1,1.4,1.9,2.1,2.8c0.2,0.3,0.4,0.3,0.6,0l0.1-0.2
					c3.2-4.4,6.4-8.9,9.6-13.3C55.4,549.2,56.2,545.8,55.6,542.5"/>
				<path class="st0" d="M43.4,551.9c-4.1,0-7.3-3.3-7.3-7.3s3.3-7.3,7.3-7.3s7.3,3.3,7.3,7.3c0,0,0,0,0,0
					C50.7,548.6,47.4,551.9,43.4,551.9 M43.4,536.3c-4.6,0-8.2,3.7-8.2,8.2s3.7,8.2,8.2,8.2c4.5,0,8.2-3.7,8.2-8.2
					C51.6,540,47.9,536.3,43.4,536.3C43.4,536.3,43.4,536.3,43.4,536.3"/>
			</g>
		</g>
	</g>
</g>
</svg>
