<?xml version="1.0" encoding="utf-8"?>
<!-- Generator: Adobe Illustrator 26.0.3, SVG Export Plug-In . SVG Version: 6.00 Build 0)  -->
<svg version="1.1" id="Layer_1" xmlns="http://www.w3.org/2000/svg" xmlns:xlink="http://www.w3.org/1999/xlink" x="0px" y="0px"
	 viewBox="0 0 300 600" style="enable-background:new 0 0 300 600;" xml:space="preserve">
<style type="text/css">
	.st0{fill:#FFFFFF;}
	.st1{clip-path:url(#SVGID_00000160170805251961122700000008008862396906163862_);}
</style>
<g>
	<g>
		<path class="st0" d="M69,552.5v-11.9h8v1.6h-6.2v3.5h6.1v1.6h-6.1v5.3L69,552.5z"/>
		<path class="st0" d="M78.6,541.4c0-0.6,0.4-1,1-1s1,0.4,1,1s-0.4,1-1,1S78.6,542,78.6,541.4z M78.8,552.5v-8.6h1.6v8.6H78.8z"/>
		<path class="st0" d="M82.5,548.2c0.1-2.4,2.1-4.3,4.5-4.2c2.4,0.1,4.3,2.1,4.2,4.5c-0.1,2.3-2,4.2-4.4,4.2c-2.4,0-4.3-1.8-4.4-4.2
			C82.5,548.4,82.5,548.3,82.5,548.2z M89.5,548.2c0-1.6-1-3.1-2.7-3.1c-1.6,0.1-2.8,1.4-2.7,2.9c0,0.1,0,0.1,0,0.2
			c0,1.6,1,3.1,2.7,3.1S89.5,549.8,89.5,548.2L89.5,548.2z"/>
		<path class="st0" d="M93.2,552.5v-8.6h1.6v1.3c0.7-0.9,1.7-1.5,2.8-1.5v1.6c-0.2,0-0.4-0.1-0.6-0.1c-0.9,0.1-1.7,0.5-2.3,1.2v6
			H93.2z"/>
		<path class="st0" d="M105.4,552.5v-1.2c-0.7,0.9-1.7,1.4-2.8,1.5c-2.2,0-3.9-1.7-3.9-4.5s1.6-4.5,3.9-4.5c1.1,0,2.2,0.6,2.8,1.5
			v-4.5h1.6v11.9H105.4z M105.4,546.3c-0.5-0.8-1.4-1.3-2.4-1.3c-1.6,0-2.6,1.3-2.6,3.1s1,3.1,2.6,3.1c1,0,1.8-0.5,2.4-1.3V546.3z"
			/>
		<path class="st0" d="M109.6,552.5v-11.9h1.6v11.9H109.6z"/>
		<path class="st0" d="M119.1,552.5v-0.9c-0.7,0.8-1.8,1.2-2.8,1.2c-1.6,0.1-2.9-1.2-3-2.8c0,0,0-0.1,0-0.1c0-1.5,1.2-2.8,2.8-2.8
			c0.1,0,0.2,0,0.2,0c1.1-0.1,2.1,0.4,2.8,1.1v-1.4c0-1.1-0.9-1.7-2.1-1.7c-1,0-1.9,0.4-2.6,1.1l-0.7-1.1c0.9-0.9,2.2-1.4,3.5-1.4
			c1.9,0,3.5,0.8,3.5,3v5.8L119.1,552.5z M119.1,549.1c-0.5-0.7-1.4-1-2.2-1c-0.9-0.1-1.8,0.5-1.9,1.5c-0.1,0.9,0.5,1.8,1.5,1.9
			c0.2,0,0.3,0,0.5,0c0.9,0,1.7-0.3,2.2-1V549.1z"/>
		<path class="st0" d="M129.1,552.5V547c0-1.4-0.7-1.9-1.8-1.9c-0.9,0-1.8,0.5-2.4,1.2v6.2h-1.6v-8.6h1.6v1.2c0.8-0.9,1.8-1.4,3-1.4
			c1.4-0.2,2.6,0.8,2.8,2.1c0,0.2,0,0.4,0,0.6v6L129.1,552.5z"/>
		<path class="st0" d="M139.4,552.5v-1.2c-0.7,0.9-1.7,1.4-2.8,1.5c-2.2,0-3.9-1.7-3.9-4.5s1.6-4.5,3.9-4.5c1.1,0,2.2,0.5,2.8,1.5
			v-4.5h1.6v11.9H139.4z M139.4,546.3c-0.5-0.8-1.4-1.3-2.4-1.3c-1.6,0-2.6,1.3-2.6,3.1s1,3.1,2.6,3.1c0.9,0,1.8-0.5,2.4-1.2V546.3z
			"/>
		<path class="st0" d="M77.3,568.7l-6.6-9.1v9.1H69v-11.9h1.8l6.5,8.9v-8.9h1.8v11.9H77.3z"/>
		<path class="st0" d="M87,568.7v-0.9c-0.7,0.8-1.8,1.2-2.8,1.2c-1.6,0.1-2.9-1.2-3-2.7c0,0,0-0.1,0-0.1c0-1.5,1.2-2.8,2.8-2.8
			c0.1,0,0.2,0,0.2,0c1.1-0.1,2.1,0.4,2.8,1.1v-1.4c0-1.1-0.9-1.7-2.1-1.7c-1,0-1.9,0.4-2.6,1.1l-0.7-1.1c0.9-0.9,2.2-1.4,3.5-1.4
			c1.9,0,3.5,0.8,3.5,3v5.8L87,568.7z M87,565.3c-0.5-0.7-1.4-1-2.2-1c-0.9-0.1-1.8,0.5-1.9,1.5c-0.1,0.9,0.5,1.8,1.5,1.9
			c0.2,0,0.3,0,0.5,0c0.9,0,1.7-0.3,2.2-1V565.3z"/>
		<path class="st0" d="M91.5,566.8v-5.3h-1.4v-1.4h1.4v-2.4h1.6v2.4h1.8v1.4h-1.8v4.9c0,0.6,0.3,1.1,0.8,1.1c0.3,0,0.6-0.1,0.9-0.3
			l0.4,1.2c-0.5,0.4-1.1,0.6-1.7,0.6c-1,0.1-2-0.6-2.1-1.7C91.5,567.1,91.5,566.9,91.5,566.8z"/>
		<path class="st0" d="M96.4,557.6c0-0.6,0.4-1,1-1s1,0.4,1,1s-0.4,1-1,1S96.4,558.2,96.4,557.6z M96.6,568.7v-8.6h1.6v8.6H96.6z"/>
		<path class="st0" d="M100.3,564.4c0.1-2.4,2.1-4.3,4.5-4.2c2.4,0.1,4.3,2.1,4.2,4.5c-0.1,2.3-2,4.2-4.4,4.2
			c-2.4,0-4.3-1.8-4.4-4.2C100.2,564.6,100.3,564.5,100.3,564.4z M107.3,564.4c0-1.6-1-3.1-2.7-3.1c-1.6,0.1-2.8,1.4-2.7,2.9
			c0,0.1,0,0.1,0,0.2c0,1.6,1,3.1,2.7,3.1S107.3,566,107.3,564.4L107.3,564.4z"/>
		<path class="st0" d="M116.8,568.7v-5.5c0-1.4-0.7-1.9-1.8-1.9c-0.9,0-1.8,0.5-2.4,1.2v6.2H111v-8.6h1.6v1.2c0.8-0.9,1.8-1.4,3-1.4
			c1.4-0.2,2.6,0.8,2.8,2.1c0,0.2,0,0.4,0,0.6v6H116.8z"/>
		<path class="st0" d="M126.3,568.7v-0.9c-0.7,0.8-1.8,1.2-2.8,1.2c-1.6,0.1-2.9-1.2-3-2.7c0,0,0-0.1,0-0.1c0-1.5,1.2-2.8,2.8-2.8
			c0.1,0,0.2,0,0.2,0c1.1-0.1,2.1,0.4,2.8,1.1v-1.4c0-1.1-0.9-1.7-2.1-1.7c-1,0-1.9,0.4-2.6,1.1l-0.7-1.1c0.9-0.9,2.2-1.4,3.5-1.4
			c1.9,0,3.5,0.8,3.5,3v5.8L126.3,568.7z M126.3,565.3c-0.5-0.7-1.4-1-2.2-1c-0.9-0.1-1.8,0.5-1.9,1.5c-0.1,0.9,0.5,1.8,1.5,1.9
			c0.2,0,0.3,0,0.5,0c0.9,0,1.7-0.3,2.2-1V565.3z"/>
		<path class="st0" d="M130.5,568.7v-11.9h1.6v11.9H130.5z"/>
		<path class="st0" d="M139.3,568.7v-11.9h5c2,0,3.7,1.6,3.7,3.7c0,2-1.6,3.7-3.7,3.7h-3.2v4.6L139.3,568.7z M144.1,558.4h-3v4.2h3
			c1.2,0.1,2.1-0.8,2.2-1.9c0.1-1.2-0.8-2.1-1.9-2.2C144.3,558.4,144.2,558.4,144.1,558.4z"/>
		<path class="st0" d="M154.9,568.7v-0.9c-0.7,0.8-1.8,1.2-2.8,1.2c-1.6,0.1-2.9-1.2-3-2.8c0,0,0-0.1,0-0.1c0-1.5,1.2-2.8,2.8-2.8
			c0.1,0,0.2,0,0.2,0c1.1-0.1,2.1,0.4,2.8,1.1v-1.4c0-1.1-0.9-1.7-2.1-1.7c-1,0-1.9,0.4-2.6,1.1l-0.7-1.1c0.9-0.9,2.2-1.4,3.5-1.4
			c1.9,0,3.5,0.8,3.5,3v5.8L154.9,568.7z M154.9,565.3c-0.5-0.7-1.4-1-2.2-1c-0.9-0.1-1.8,0.5-1.9,1.5c-0.1,0.9,0.5,1.8,1.5,1.9
			c0.2,0,0.3,0,0.5,0c0.9,0,1.7-0.3,2.2-1V565.3z"/>
		<path class="st0" d="M159.1,568.7v-8.6h1.6v1.3c0.7-0.9,1.7-1.5,2.8-1.5v1.6c-0.2,0-0.4-0.1-0.6-0.1c-0.9,0.1-1.7,0.5-2.3,1.2v6
			H159.1z"/>
		<path class="st0" d="M170.9,568.7L168,565l-1.3,1.3v2.4h-1.6v-11.9h1.6v7.7l4.2-4.4h2l-3.7,3.9l3.8,4.7L170.9,568.7z"/>
		<g>
			<defs>
				<rect id="SVGID_1_" width="300" height="600"/>
			</defs>
			<clipPath id="SVGID_00000047770554941824775740000001707224147469990794_">
				<use xlink:href="#SVGID_1_"  style="overflow:visible;"/>
			</clipPath>
			<g style="clip-path:url(#SVGID_00000047770554941824775740000001707224147469990794_);">
				<path class="st0" d="M52.9,555.3l-9.6,13.3l-0.1,0.2c-0.2,0.3-0.4,0.3-0.6,0c-0.7-1-1.4-1.9-2.1-2.8c-2.4-3.4-4.8-6.8-7.3-10.1
					c-1.1-1.4-1.9-3.1-2.4-4.9c-0.2-0.9-0.3-1.9-0.4-2.9c0-6.2,4.5-11.5,10.6-12.4c6.7-1,13,3.5,14.1,10.2
					C55.8,549.2,55,552.6,52.9,555.3 M56,545.3c-1.2-6.1-6.4-10.5-12.6-10.8c-3.4-0.1-6.7,1-9.2,3.3c-3.4,2.8-5.1,7.2-4.6,11.6
					c0.3,2.4,1.2,4.7,2.6,6.6c3.4,4.7,6.8,9.3,10.1,14c0.4,0.5,0.7,0.5,1,0c1-1.3,2-2.7,2.9-4c2.5-3.5,5.1-7,7.6-10.5
					c1.5-2.2,2.4-4.9,2.4-7.6C56.2,547.1,56.1,546.2,56,545.3"/>
				<path class="st0" d="M42.9,556.1c-4.6,0-8.2-3.7-8.2-8.3c0-4.6,3.7-8.2,8.3-8.2c4.6,0,8.2,3.7,8.2,8.3c0,0,0,0,0,0
					C51.1,552.5,47.4,556.1,42.9,556.1 M55.2,545.8c-1.1-6.7-7.4-11.2-14.1-10.2c-6.1,1-10.6,6.2-10.6,12.4c0,1,0.1,1.9,0.4,2.9
					c0.5,1.8,1.3,3.4,2.4,4.9c2.5,3.3,4.9,6.7,7.3,10.1c0.7,1,1.4,1.9,2.1,2.8c0.2,0.3,0.4,0.3,0.6,0l0.1-0.2l9.6-13.3
					C55,552.5,55.8,549.1,55.2,545.8"/>
				<path class="st0" d="M42.9,555.2c-4.1,0-7.3-3.3-7.3-7.3s3.3-7.3,7.3-7.3s7.3,3.3,7.3,7.3c0,0,0,0,0,0
					C50.2,551.9,47,555.2,42.9,555.2 M42.9,539.6c-4.6,0-8.2,3.7-8.2,8.2c0,4.6,3.7,8.2,8.2,8.2c4.5,0,8.2-3.7,8.2-8.2
					C51.2,543.4,47.5,539.7,42.9,539.6C42.9,539.6,42.9,539.6,42.9,539.6"/>
			</g>
		</g>
	</g>
</g>
</svg>
