<?xml version="1.0" encoding="utf-8"?>
<!-- Generator: Adobe Illustrator 26.0.3, SVG Export Plug-In . SVG Version: 6.00 Build 0)  -->
<svg version="1.1" id="Layer_1" xmlns="http://www.w3.org/2000/svg" xmlns:xlink="http://www.w3.org/1999/xlink" x="0px" y="0px"
	 viewBox="0 0 300 600" style="enable-background:new 0 0 300 600;" xml:space="preserve">
<style type="text/css">
	.st0{clip-path:url(#SVGID_00000120539350841481554050000005075326326938695591_);}
	.st1{fill:#FFFFFF;}
</style>
<g>
	<g>
		<g>
			<defs>
				<rect id="SVGID_1_" x="30" y="514" width="125.9" height="56"/>
			</defs>
			<clipPath id="SVGID_00000076573967447582782380000011272568202861688253_">
				<use xlink:href="#SVGID_1_"  style="overflow:visible;"/>
			</clipPath>
			<g style="clip-path:url(#SVGID_00000076573967447582782380000011272568202861688253_);">
				<path class="st1" d="M42.7,514.6h6v55h-6V514.6z M149.4,514.6h-7v55h7.3c4.1,0,6.2-2,6.2-6.1v-43.1
					C156.1,516.4,154.1,514.6,149.4,514.6 M150.4,562c0,1.3-0.4,1.9-1.4,1.9h-0.6v-43.7h0.6c1.1,0,1.4,0.4,1.4,2L150.4,562z
					 M30,569.7h6.1v-24.6l4.7-3.8V534l-4.7,3.8v-17.6h4.7v-5.6H30V569.7z M89,514.6h-7v55h7.3c4.1,0,6.2-2,6.2-6.1v-43.1
					C95.5,516.4,93.6,514.6,89,514.6 M89.8,562c0,1.3-0.4,1.9-1.4,1.9h-0.6v-43.7h0.6c1.1,0,1.4,0.4,1.4,2V562z M57.8,514
					c-4.7,0-7,2.9-7,9.2V562c0,5.5,2.1,7.9,6.7,7.9c2.3,0.1,4.4-0.9,5.9-2.6c0.8-1,1.1-2.3,1.1-4.7v-40.8
					C64.5,516.7,62.2,514,57.8,514 M58.9,562.6c0,1.4-0.3,1.9-1.1,1.9s-1.2-0.5-1.2-1.8v-40.9c0-1.5,0.3-2,1.2-2s1.1,0.4,1.1,2
					V562.6z M135,546.4l-3.9-31.8h-6.3v49.4l-8.5-49.4h-1.7l-7.3,49.4h-3.7v-49.4h-6.2v55.1h14.7l3.6-29.9l4.8,29.9h10v-27.6
					l3.4,27.6h6.6v-55.1H135V546.4z M77.6,543.9c1.4-0.8,2.3-2.9,2.3-5v-18.3c0-3.8-2.3-6-6.6-6h-6.7v55h5.9v-22.9H73
					c0.7,0,1.1,0.2,1.1,0.5v22.3h6v-20.5C80.1,546.2,79.4,544.7,77.6,543.9 M74.2,539.8c0,1.3-0.2,1.5-1,1.5c-0.2,0-0.4,0-0.7-0.1
					v-21H73c1,0,1.2,0.3,1.2,1.8L74.2,539.8z"/>
			</g>
		</g>
	</g>
</g>
</svg>
