<svg xmlns="http://www.w3.org/2000/svg" xmlns:xlink="http://www.w3.org/1999/xlink" viewBox="0 0 192.27 100.97"><defs><style>.cls-1{fill:none;}.cls-2{clip-path:url(#clip-path);}.cls-3{fill:#fff;}</style><clipPath id="clip-path" transform="translate(0 -4.83)"><rect class="cls-1" x="1.69" width="41.8" height="38"/></clipPath></defs><title>text4</title><g id="Layer_2" data-name="Layer 2"><g id="Layer_1-2" data-name="Layer 1"><g class="cls-2"><path class="cls-3" d="M9.68,4.83A7,7,0,0,1,17,12a7,7,0,0,1-7.29,7.21A7,7,0,0,1,2.4,12,7,7,0,0,1,9.68,4.83Zm0,2.63c-2.58,0-4.23,2-4.23,4.58s1.65,4.58,4.23,4.58,4.24-2,4.24-4.58S12.25,7.46,9.68,7.46Z" transform="translate(0 -4.83)"/><path class="cls-3" d="M24.2,14H22v5h-3V5.06h6.52a4.34,4.34,0,0,1,4.68,4.49,4,4,0,0,1-3.05,4.14L30.35,19H26.94Zm.94-6.39H22v3.84h3.11a1.93,1.93,0,1,0,0-3.84Z" transform="translate(0 -4.83)"/></g><path class="cls-3" d="M9.11,95,6.23,105.8H4L0,91.86H2.34L5.23,103l3-11.18H10L13,103l2.89-11.18h2.34l-4,13.94H12Z" transform="translate(0 -4.83)"/><path class="cls-3" d="M27.88,102.92H21.05l-1.13,2.88h-2.3l5.54-13.94h2.61l5.54,13.94H29Zm-6.23-1.87h5.63l-2.83-7.38Z" transform="translate(0 -4.83)"/><path class="cls-3" d="M37.68,100.43H35.07v5.37H33V91.86h5.87a4.15,4.15,0,0,1,4.48,4.28,3.9,3.9,0,0,1-3.47,4.08l3.57,5.58H41Zm.9-6.73H35.07v4.89h3.51a2.45,2.45,0,1,0,0-4.89Z" transform="translate(0 -4.83)"/><path class="cls-3" d="M50.6,100.43H48v5.37H45.9V91.86h5.87a4.15,4.15,0,0,1,4.47,4.28,3.89,3.89,0,0,1-3.47,4.08l3.58,5.58H53.92Zm.9-6.73H48v4.89H51.5a2.45,2.45,0,1,0,0-4.89Z" transform="translate(0 -4.83)"/><path class="cls-3" d="M67.63,102.92H60.8l-1.13,2.88h-2.3l5.54-13.94h2.61l5.54,13.94h-2.3Zm-6.23-1.87H67l-2.82-7.38Z" transform="translate(0 -4.83)"/><path class="cls-3" d="M74.82,95.1v10.7H72.73V91.86h2.15l7.59,10.45V91.86h2.09V105.8h-2Z" transform="translate(0 -4.83)"/><path class="cls-3" d="M91.06,93.7H86.73V91.86H97.46V93.7H93.15v12.1H91.06Z" transform="translate(0 -4.83)"/><path class="cls-3" d="M103.64,100l-5.45-8.11h2.4l4.1,6.23,4-6.23h2.43L105.73,100v5.83h-2.09Z" transform="translate(0 -4.83)"/><path class="cls-3" d="M4.62,63.46a14.32,14.32,0,0,0,11,5c5.41,0,8.65-2.59,8.65-6.71,0-4.36-3.53-6.18-9.24-6.18-1.59,0-3.66,0-4.24.06V50.26c.64.06,2.71.06,4.24.06,4.77,0,8.66-1.76,8.66-5.83s-3.77-6.12-8.43-6.12A13.74,13.74,0,0,0,5,42.9L1.85,39.25a17.73,17.73,0,0,1,13.9-6.12c8,0,13.79,3.94,13.79,10.54,0,5.48-4.66,8.36-8.55,9.07,3.72.35,9.13,3.42,9.13,9.6,0,6.6-5.47,11.37-14.37,11.37-6.83,0-11.9-2.89-14.43-6.42Z" transform="translate(0 -4.83)"/><path class="cls-3" d="M63.93,56.57,48.56,33.71h6.77L66.88,51.27,78.3,33.71h6.84L69.82,56.57V73H63.93Z" transform="translate(0 -4.83)"/><path class="cls-3" d="M89.85,33.71h26.38V38.9H95.74V50.38h20.08v5.19H95.74V67.82h20.49V73H89.85Z" transform="translate(0 -4.83)"/><path class="cls-3" d="M148.45,64.87H129.19L126,73h-6.48l15.61-39.29h7.36L158.11,73h-6.48ZM130.9,59.63h15.84l-8-20.79Z" transform="translate(0 -4.83)"/><path class="cls-3" d="M176.08,57.86h-7.37V73h-5.89V33.71h16.55c7.48,0,12.61,4.83,12.61,12.08,0,7.07-4.77,10.84-9.78,11.48L192.27,73h-6.83Zm2.53-19h-9.9V52.68h9.9c4.24,0,7.3-2.77,7.3-6.89S182.85,38.9,178.61,38.9Z" transform="translate(0 -4.83)"/></g></g></svg>