<svg xmlns="http://www.w3.org/2000/svg" xmlns:xlink="http://www.w3.org/1999/xlink" viewBox="0 0 274 74.66"><defs><style>.cls-1,.cls-2{fill:none;}.cls-2{clip-rule:evenodd;}.cls-3{clip-path:url(#clip-path);}.cls-4{clip-path:url(#clip-path-2);}.cls-5{isolation:isolate;}.cls-6{clip-path:url(#clip-path-3);}.cls-7{clip-path:url(#clip-path-4);}.cls-8{fill:#db0e25;}.cls-9{clip-path:url(#clip-path-6);}.cls-10{clip-path:url(#clip-path-7);}.cls-11{fill:#1d1d1b;}.cls-12{clip-path:url(#clip-path-8);}.cls-13{clip-path:url(#clip-path-10);}.cls-14{clip-path:url(#clip-path-11);}.cls-15{clip-path:url(#clip-path-12);}.cls-16{clip-path:url(#clip-path-13);}.cls-17{clip-path:url(#clip-path-14);}.cls-18{clip-path:url(#clip-path-16);}.cls-19{clip-path:url(#clip-path-17);}</style><clipPath id="clip-path" transform="translate(-13 -93)"><rect class="cls-1" x="108.22" y="146.68" width="172.74" height="15.98"/></clipPath><clipPath id="clip-path-2" transform="translate(-13 -93)"><rect class="cls-1" x="3" y="1.56" width="300" height="1050"/></clipPath><clipPath id="clip-path-3" transform="translate(-13 -93)"><rect class="cls-1" x="108" y="146.56" width="173" height="17"/></clipPath><clipPath id="clip-path-4" transform="translate(-13 -93)"><path class="cls-2" d="M269.69,160.19a7.31,7.31,0,0,0,5.74,2.45c4.05,0,5.53-2.29,5.53-4.53,0-3.24-2.79-4-5.23-4.7-1.91-.53-3.64-1-3.64-2.54s1.28-2.45,3.07-2.45a5.63,5.63,0,0,1,4.34,1.85l1.12-1.41a6.92,6.92,0,0,0-5.32-2.15c-2.94,0-5.14,1.73-5.14,4.27,0,3,2.67,3.73,5.07,4.37,2,.56,3.8,1.07,3.8,2.92,0,1.18-.86,2.66-3.53,2.66a6.25,6.25,0,0,1-4.71-2.2Zm-8.13,2.17h1.86V148.65h4.76v-1.71H256.82v1.71h4.74Zm-17.63-2.17a7.32,7.32,0,0,0,5.75,2.45c4,0,5.52-2.29,5.52-4.53,0-3.24-2.78-4-5.23-4.7-1.91-.53-3.64-1-3.64-2.54s1.28-2.45,3.08-2.45a5.61,5.61,0,0,1,4.33,1.85l1.12-1.41a6.9,6.9,0,0,0-5.32-2.15c-2.94,0-5.14,1.73-5.14,4.27,0,3,2.67,3.73,5.07,4.37,2,.56,3.8,1.07,3.8,2.92,0,1.18-.85,2.66-3.53,2.66a6.26,6.26,0,0,1-4.71-2.2Zm-4-5.53c0,3.59-2.16,6.27-5.51,6.27s-5.5-2.68-5.5-6.27,2.13-6.27,5.5-6.27S240,151.05,240,154.66Zm-12.94,0c0,4.56,3,8,7.43,8s7.44-3.42,7.44-8-3-8-7.44-8S227,150.1,227,154.66Zm-7.55,8a6.79,6.79,0,0,0,5.78-3l-1.6-.91a5,5,0,0,1-4.18,2.25c-3.21,0-5.7-2.62-5.7-6.27s2.49-6.27,5.7-6.27a5,5,0,0,1,4.18,2.25l1.57-.91a6.69,6.69,0,0,0-5.75-3,8,8,0,0,0,0,16Zm-29.44-8A7.75,7.75,0,0,0,203.64,160v-5.57h-7v1.71h5.15v3.15a5.87,5.87,0,0,1-4,1.66c-3.28,0-5.78-2.64-5.78-6.29s2.5-6.27,5.78-6.27a5.46,5.46,0,0,1,4.33,2.13l1.48-1a7.07,7.07,0,0,0-5.81-2.89A7.61,7.61,0,0,0,190.05,154.66Zm-4.69,7.7h1.8V146.94h-1.87v12.18l-8.62-12.18h-1.91v15.42h1.87V149.92Zm-16,0h1.87V146.94h-1.87Zm-5.3,0h1.8V146.94H164v12.18l-8.63-12.18h-1.91v15.42h1.87V149.92Zm-15.89,0H150V146.94h-1.86v12.18l-8.63-12.18h-1.9v15.42h1.86V149.92Zm-26.32-6c0,3.79,2,6.27,6.1,6.27s6.11-2.45,6.11-6.29v-9.41h-1.86v9.38c0,2.83-1.48,4.61-4.25,4.61s-4.24-1.78-4.24-4.61v-9.38h-1.86ZM117,151.58a2.84,2.84,0,0,1-3,3h-3.93v-5.9H114A2.82,2.82,0,0,1,117,151.58Zm-.11,10.78h2.2l-4-6.29a4.21,4.21,0,0,0,3.88-4.49,4.42,4.42,0,0,0-4.69-4.64h-6v15.42h1.87v-6.13h3Z"/></clipPath><clipPath id="clip-path-6" transform="translate(-13 -93)"><path class="cls-2" d="M96.26,162.37H98V145.93H96.19v13l-8.34-13H86v16.44h1.8V149.11Zm-15-8.21c0,3.82-2.09,6.68-5.33,6.68s-5.33-2.86-5.33-6.68,2.07-6.68,5.33-6.68S81.3,150.32,81.3,154.16Zm-12.53,0c0,4.86,2.9,8.5,7.2,8.5s7.2-3.64,7.2-8.5-2.91-8.5-7.2-8.5S68.77,149.31,68.77,154.16Zm-13.13,8.21h2l4.13-16.44h-2l-3.2,13.7-3.32-13.7H51.7l-3.32,13.7-3.22-13.7h-2l4.13,16.44h2l3.19-13.26Zm-15.35-8.21c0,3.82-2.09,6.68-5.33,6.68s-5.33-2.86-5.33-6.68,2.07-6.68,5.33-6.68S40.29,150.32,40.29,154.16Zm-12.53,0c0,4.86,2.9,8.5,7.2,8.5s7.2-3.64,7.2-8.5-2.92-8.5-7.2-8.5S27.76,149.31,27.76,154.16ZM18,162.37h8.55v-1.83H19.8V145.93H18Z"/></clipPath><clipPath id="clip-path-7" transform="translate(-13 -93)"><rect class="cls-1" x="3" y="3.66" width="300" height="1050"/></clipPath><clipPath id="clip-path-8" transform="translate(-13 -93)"><path class="cls-2" d="M270.23,138.27H280v-1.83h-7.92v-5.66h7.76V129h-7.76v-5.29H280v-1.83h-9.77Zm-8.12.29a6.65,6.65,0,0,0,5.75-3.25l-1.59-1a4.91,4.91,0,0,1-4.16,2.39c-3.2,0-5.68-2.79-5.68-6.68s2.48-6.68,5.68-6.68a5,5,0,0,1,4.16,2.4l1.56-1a6.57,6.57,0,0,0-5.72-3.25c-4.23,0-7.61,3.45-7.61,8.5S257.88,138.56,262.11,138.56Zm-12.28-.29h1.79V121.83h-1.86v13l-8.59-13h-1.9v16.44h1.86V125Zm-19.66-14.61,3.22,9.14h-6.46Zm5.1,14.61h2.06l-6-16.44H229l-6,16.44h2.06l1.32-3.65H234Zm-16.06,0h1.86V121.83H218.4l-4.65,12.52-4.63-12.52h-2.66v16.44h1.86V124.59l5.05,13.68h.76l5.08-13.68Zm-17.6-11.49a2.94,2.94,0,0,1-3,3.16h-3.91v-6.28h3.91A2.91,2.91,0,0,1,201.61,126.78Zm-.11,11.49h2.19l-4-6.71c2-.19,3.87-1.82,3.87-4.78s-1.94-5-4.67-5h-6v16.44h1.86v-6.53h3ZM188,130.06c0,3.82-2.15,6.68-5.48,6.68s-5.48-2.86-5.48-6.68,2.13-6.68,5.48-6.68S188,126.22,188,130.06Zm-12.88,0c0,4.86,3,8.5,7.4,8.5s7.41-3.64,7.41-8.5-3-8.5-7.41-8.5S175.15,125.21,175.15,130.06Zm-11.7,8.21h1.86v-7.49h7.76V129h-7.76v-5.29h7.92v-1.83h-9.78Zm-4.85-11.49a2.94,2.94,0,0,1-3,3.16h-3.91v-6.28h3.91A2.91,2.91,0,0,1,158.6,126.78Zm-.11,11.49h2.19l-4-6.71c2-.19,3.87-1.82,3.87-4.78s-1.94-5-4.67-5h-6v16.44h1.86v-6.53h3Zm-21.36,0h9.77v-1.83H139v-5.66h7.76V129H139v-5.29h7.91v-1.83h-9.77Zm-4.38-11.49a2.91,2.91,0,0,1-3,3.13h-3.91v-6.25h3.91A2.91,2.91,0,0,1,132.75,126.78ZM124,138.27h1.86v-6.53H130c3,0,4.68-2.27,4.68-5s-1.68-5-4.68-5h-6Z"/></clipPath><clipPath id="clip-path-10" transform="translate(-13 -93)"><path class="cls-2" d="M112.2,138.24H114V121.83h-1.87v13l-8.64-13h-1.91v16.41h1.87V125Zm-15.48-8.19c0,3.81-2.16,6.67-5.51,6.67s-5.51-2.86-5.51-6.67,2.14-6.67,5.51-6.67S96.72,126.21,96.72,130.05Zm-13,0c0,4.85,3,8.49,7.45,8.49s7.45-3.64,7.45-8.49-3-8.49-7.45-8.49S83.76,125.2,83.76,130.05Zm-21.84,0c0,5.09,3.44,8.51,7.72,8.51a7.52,7.52,0,0,0,5.89-2.83V129.8h-7v1.82h5.15V135a5.66,5.66,0,0,1-4,1.77c-3.29,0-5.79-2.8-5.79-6.69s2.5-6.67,5.79-6.67A5.38,5.38,0,0,1,74,125.65l1.48-1a6.94,6.94,0,0,0-5.82-3.08C65.36,121.56,61.92,125,61.92,130.05Zm-4.77,8.19H59V121.83H57.15Zm-12.28-1.82v-5.66h4.59a2.67,2.67,0,0,1,2.79,2.83,2.59,2.59,0,0,1-2.79,2.83Zm0-7.48v-5.29h4.5A2.47,2.47,0,0,1,52,126.31a2.43,2.43,0,0,1-2.58,2.63ZM43,138.24h6.84a4.08,4.08,0,0,0,4.34-4.43,4,4,0,0,0-2.92-4A3.68,3.68,0,0,0,53.89,126a3.94,3.94,0,0,0-4.21-4.18H43Z"/></clipPath><clipPath id="clip-path-11" transform="translate(-13 -93)"><rect class="cls-1" y="1.56" width="300" height="1050"/></clipPath><clipPath id="clip-path-12" transform="translate(-13 -93)"><path class="cls-2" d="M274.46,114.26h1.82V107.5L282,98.26h-2.12l-4.52,7.44-4.53-7.44h-2.11l5.74,9.24Zm-13.08,0h1.81V100h4.63V98.26H256.77V100h4.61Zm-8.83,0h1.81v-16h-1.81Zm-11.14,0H250v-1.78h-6.77V98.26h-1.81ZM232.51,100l3.15,8.89h-6.31Zm5,14.22h2l-5.87-16h-2.25l-5.86,16h2l1.29-3.55h7.39Zm-25.2-6.21c0,3.93,2,6.49,5.95,6.49s5.94-2.54,5.94-6.52V98.26h-1.81V108c0,2.92-1.45,4.77-4.13,4.77s-4.13-1.85-4.13-4.77V98.26H212.3Zm-10.07,4.72c-3.28,0-5.35-2.78-5.35-6.5s2.07-6.5,5.35-6.5,5.35,2.76,5.35,6.5a7.36,7.36,0,0,1-1.33,4.46l-2.05-2.42-1.27,1.18L205,112A4.94,4.94,0,0,1,202.23,112.77Zm7.23-6.5c0-4.72-2.92-8.27-7.23-8.27s-7.23,3.55-7.23,8.27,2.91,8.27,7.23,8.27a6.94,6.94,0,0,0,4-1.19l1.39,1.65,1.27-1.2-1.38-1.63A9,9,0,0,0,209.46,106.27Z"/></clipPath><clipPath id="clip-path-13" transform="translate(-13 -93)"><rect class="cls-1" x="3" width="300" height="1050"/></clipPath><clipPath id="clip-path-14" transform="translate(-13 -93)"><rect class="cls-1" x="113.71" y="98.56" width="72.03" height="15.89"/></clipPath><clipPath id="clip-path-16" transform="translate(-13 -93)"><rect class="cls-1" x="113" y="97.56" width="73" height="17"/></clipPath><clipPath id="clip-path-17" transform="translate(-13 -93)"><path class="cls-2" d="M183.91,114.14h1.83V98.81h-1.9v12.12l-8.76-12.12h-1.94v15.33H175V101.78Zm-15.7-7.65c0,3.56-2.19,6.23-5.59,6.23s-5.6-2.67-5.6-6.23,2.17-6.23,5.6-6.23S168.21,102.9,168.21,106.49Zm-13.15,0c0,4.53,3,7.93,7.56,7.93s7.55-3.4,7.55-7.93-3.06-7.93-7.55-7.93S155.06,102,155.06,106.49Zm-22.16,0a7.66,7.66,0,0,0,7.83,8,7.89,7.89,0,0,0,6-2.64v-5.54h-7.12V108h5.22v3.13a6,6,0,0,1-4.08,1.65,6.25,6.25,0,0,1,0-12.48,5.6,5.6,0,0,1,4.4,2.11l1.51-.94a7.24,7.24,0,0,0-5.91-2.87A7.64,7.64,0,0,0,132.9,106.49Zm-4.84,7.65H130V98.81h-1.9Zm-12.46-1.7v-5.28h4.66a2.59,2.59,0,0,1,2.83,2.64,2.52,2.52,0,0,1-2.83,2.64Zm0-7v-4.94h4.56a2.4,2.4,0,0,1,2.63,2.48,2.37,2.37,0,0,1-2.63,2.46Zm-1.89,8.69h6.93c2.79,0,4.41-1.67,4.41-4.13a3.84,3.84,0,0,0-3-3.78,3.47,3.47,0,0,0,2.67-3.51c0-2.3-1.62-3.91-4.27-3.91h-6.77Z"/></clipPath></defs><title>text1</title><g id="Layer_2" data-name="Layer 2"><g id="Layer_1-2" data-name="Layer 1"><g class="cls-3"><g class="cls-4"><g class="cls-5"><g class="cls-6"><g class="cls-7"><g class="cls-6"><rect class="cls-8" x="90.22" y="48.68" width="182.74" height="25.98"/></g></g></g></g></g></g><g class="cls-9"><g class="cls-10"><rect class="cls-11" y="47.66" width="90" height="27"/></g></g><g class="cls-12"><g class="cls-4"><rect class="cls-8" x="106" y="23.56" width="166" height="27"/></g></g><g class="cls-13"><g class="cls-14"><rect class="cls-11" x="25" y="23.56" width="81" height="27"/></g></g><g class="cls-15"><g class="cls-16"><rect class="cls-8" x="177" width="97" height="27"/></g></g><g class="cls-17"><g class="cls-4"><g class="cls-5"><g class="cls-18"><g class="cls-19"><g class="cls-18"><rect class="cls-11" x="95.71" y="0.56" width="82.03" height="25.89"/></g></g></g></g></g></g></g></g></svg>