<?xml version="1.0" encoding="utf-8"?>
<!-- Generator: Adobe Illustrator 26.0.3, SVG Export Plug-In . SVG Version: 6.00 Build 0)  -->
<svg version="1.1" id="Layer_1" xmlns="http://www.w3.org/2000/svg" xmlns:xlink="http://www.w3.org/1999/xlink" x="0px" y="0px"
	 viewBox="0 0 970 250" style="enable-background:new 0 0 970 250;" xml:space="preserve">
<style type="text/css">
	.st0{fill:#FFFFFF;}
</style>
<g>
	<g>
		<path class="st0" d="M58.2,54.7c0.1,4.7-0.1,9.4-0.6,14c-0.4,3.1-1.3,5.2-2.4,6.3c-1,0.9-2.8,1.4-5.2,1.4H39.5
			c-1.1,0-1.8-0.3-2-0.8c-0.2-0.6-0.3-1.3-0.3-2V36c0-1.9,0.7-2.9,2.1-2.9h11.1c3.1-0.2,5.9,1.9,6.6,4.9
			C57.8,40.6,58.2,46.2,58.2,54.7z M50.5,55.4c0-5.3,0-8.7-0.2-10.2c-0.1-2-0.4-3.3-1-3.8c-0.8-0.5-1.7-0.7-2.5-0.6
			c-0.6-0.1-1.2,0-1.8,0.3c-0.3,0.2-0.4,0.8-0.4,1.6V67c0,0.8,0.1,1.3,0.4,1.5c0.6,0.2,1.3,0.3,2,0.3c0.8,0.1,1.6-0.1,2.3-0.6
			c0.5-0.5,0.8-1.7,1-3.5C50.4,63.1,50.5,60,50.5,55.4z"/>
		<path class="st0" d="M68.7,73.7c0.1,0.7-0.1,1.4-0.3,2.1c-0.3,0.4-0.9,0.6-1.8,0.6h-3.2c-0.6,0.1-1.2-0.1-1.7-0.4
			c-0.4-0.3-0.6-1.1-0.6-2.4V36c0-1.9,0.7-2.9,2.2-2.9h3.5c1.3,0,2,1,2,2.9L68.7,73.7z"/>
		<path class="st0" d="M92.5,63.7c0,4.6-0.6,7.7-1.7,9.5c-1.4,2.2-4.2,3.3-8.3,3.3c-5.1,0-8.3-1.8-9.7-5.3
			c-0.9-2.4-1.4-7.9-1.3-16.3s0.4-13.9,1-16.3c0.9-3.7,3.1-5.6,6.4-5.6h8.8c0.7-0.1,1.3,0.1,1.8,0.6c0.3,0.7,0.5,1.4,0.4,2.1v2.1
			c0,1.9-0.7,2.8-2,2.8h-4.7c-1-0.1-1.9,0.1-2.8,0.5c-0.6,0.5-0.9,1.8-1.1,3.8c-0.1,1.5-0.2,4.9-0.2,10v9.5c0,2.8,1.2,4.2,3.4,4.2
			c2.1,0,3.1-1.1,3.1-3.4V59c0-1.1-0.3-1.7-0.8-1.7h-1.9c-0.8,0-1.2-0.7-1.2-2v-3c-0.1-0.7,0.1-1.4,0.4-2c0.5-0.5,1.3-0.8,2-0.7h6.2
			c1.4,0,2,1,2,2.8L92.5,63.7z"/>
		<path class="st0" d="M124.8,54.7c0.1,4.7-0.1,9.4-0.6,14c-0.4,3.1-1.3,5.2-2.4,6.3c-1,0.9-2.8,1.4-5.2,1.4h-10.5
			c-1.1,0-1.8-0.3-2-0.8c-0.2-0.6-0.3-1.3-0.2-2V36c0-1.9,0.7-2.9,2.1-2.9h11c3.1-0.2,5.9,1.9,6.6,4.9
			C124.4,40.6,124.8,46.2,124.8,54.7z M117.1,55.4c0-5.3-0.1-8.7-0.2-10.2c-0.1-2-0.4-3.3-1-3.8c-0.8-0.5-1.7-0.7-2.5-0.6
			c-0.6-0.1-1.2,0-1.8,0.3c-0.3,0.2-0.4,0.8-0.4,1.6V67c0,0.8,0.1,1.3,0.4,1.5c0.6,0.2,1.3,0.3,2,0.3c0.8,0.1,1.6-0.1,2.3-0.6
			c0.5-0.5,0.8-1.7,1-3.5C117,63.1,117.1,60,117.1,55.4z"/>
		<path class="st0" d="M145.3,73.7c0,1.9-0.7,2.8-2.2,2.8h-13.3c-1,0-1.7-0.3-1.9-0.9c-0.2-0.6-0.3-1.3-0.3-2V35.9
			c0-1.9,0.7-2.9,2.2-2.9h12.8c0.5-0.1,1.1,0.1,1.5,0.3c0.5,0.6,0.7,1.4,0.6,2.2V38c0,1.4-0.3,2.3-0.9,2.5c-0.4,0.1-0.8,0.2-1.1,0.2
			h-6.4c-0.6,0-1,0.2-1.1,0.5c-0.1,0.3-0.1,0.7-0.1,1v6c0,0.4,0,0.8,0.2,1.2c0.1,0.1,0.4,0.2,1,0.2h3.2c1.2,0,1.9,0.7,1.9,2.2v3.3
			c0,1.4-0.6,2.2-1.9,2.2h-3.2c-0.3-0.1-0.7,0-1,0.2c-0.2,0.2-0.2,0.5-0.2,0.8v9.1c0,1,0.4,1.4,1.4,1.4h6.5c1.5,0,2.3,0.9,2.3,2.8
			L145.3,73.7z"/>
		<path class="st0" d="M164.9,73.7c0,1.9-0.7,2.8-2.2,2.8h-13.3c-1,0-1.7-0.3-1.9-0.9c-0.2-0.6-0.3-1.3-0.3-2V35.9
			c0-1.9,0.8-2.9,2.2-2.9h12.9c0.5-0.1,1.1,0.1,1.5,0.3c0.4,0.3,0.6,1,0.6,2.2V38c0,1.4-0.3,2.3-1,2.5c-0.4,0.1-0.8,0.2-1.1,0.2
			h-6.3c-0.6,0-1,0.2-1.1,0.5c-0.1,0.3-0.1,0.7-0.1,1v6c0,0.4,0,0.8,0.2,1.2c0.1,0.1,0.4,0.2,1,0.2h3.2c1.2,0,1.9,0.7,1.9,2.2v3.3
			c0,1.4-0.6,2.2-1.9,2.2h-3.2c-0.5,0-0.8,0.1-1,0.2c-0.2,0.2-0.2,0.5-0.2,0.8v9.1c0,1,0.4,1.4,1.4,1.4h6.4c1.5,0,2.3,0.9,2.3,2.8
			L164.9,73.7z"/>
		<path class="st0" d="M187.1,46.9c0,8.9-2.4,13.4-7.3,13.4h-5.5v13.3c0.1,0.8-0.1,1.6-0.4,2.3c-0.5,0.4-1.1,0.6-1.6,0.5h-3.5
			c-1.1,0-1.7-0.3-1.9-1c-0.1-0.6-0.2-1.2-0.1-1.7V36.1c0-2,0.7-3,2.1-3h10C184.4,33.1,187.1,37.7,187.1,46.9z M179.5,46.9
			c0.1-1.7-0.1-3.4-0.5-5c-0.2-0.7-0.9-1.1-1.6-1.1h-1.9c-0.7,0-1,0.4-1,1.2v9.6c0,0.7,0.3,1.1,1,1.1h2.1c1,0,1.6-0.8,1.9-2.3
			C179.4,49.8,179.5,48.7,179.5,46.9z"/>
		<path class="st0" d="M231.6,35.4l-6.8,39.1c-0.2,1.2-0.8,1.9-1.8,1.9h-5c-0.5,0.1-1-0.1-1.4-0.4c-0.3-0.5-0.4-1-0.4-1.5L214.3,60
			c-0.1-0.5-0.2-0.8-0.3-0.8s-0.4,0.2-0.5,0.7L210,75.1c-0.2,0.8-0.9,1.4-1.8,1.3H204c-0.9,0-1.4-0.5-1.6-1.6l-6.1-39.3
			c-0.1-0.3-0.1-0.6-0.1-0.9c0-1,0.6-1.5,1.7-1.5h4.4c0.9,0,1.4,0.6,1.6,1.9l3.1,21.1c0.1,0.6,0.2,0.9,0.6,0.9s0.4-0.3,0.5-0.9
			l2.9-12.5l-1-8.2c-0.2-1.6,0.4-2.3,1.6-2.3h4.5c0.9,0,1.5,0.6,1.6,1.9l2.5,21c0.1,0.6,0.3,0.9,0.5,0.9s0.4-0.3,0.5-0.9l2.6-21.2
			c0.1-1.1,0.6-1.7,1.5-1.7h4.8c1,0,1.5,0.5,1.5,1.3C231.7,34.8,231.7,35.1,231.6,35.4z"/>
		<path class="st0" d="M241.3,73.7c0.1,0.7-0.1,1.4-0.4,2.1c-0.3,0.4-0.9,0.6-1.8,0.6h-3.2c-0.6,0.1-1.2-0.1-1.7-0.4
			c-0.4-0.3-0.6-1.1-0.6-2.4V36c0-1.9,0.7-2.9,2.1-2.9h3.5c1.4,0,2,1,2,2.9L241.3,73.7z"/>
		<path class="st0" d="M263.2,38.1c0,1.5-0.4,2.4-1.2,2.6c-0.3,0.1-0.6,0.1-0.9,0.1h-3.4c-0.6,0-0.9,0.4-0.9,1.3v31.5
			c0.1,0.8-0.1,1.5-0.4,2.2c-0.3,0.4-0.8,0.6-1.7,0.6h-3.4c-1.2,0-1.9-0.4-2.1-1.3c-0.1-0.5-0.1-0.9-0.1-1.4V42.1
			c0-0.9-0.3-1.3-0.9-1.3h-3.4c-0.5,0.1-1-0.1-1.5-0.4c-0.4-0.7-0.6-1.4-0.5-2.2v-2.2c0-1.4,0.3-2.3,0.8-2.6
			c0.4-0.2,0.9-0.3,1.3-0.3h15.8c1.4,0,2.1,0.9,2.1,2.6V38.1z"/>
		<path class="st0" d="M286.3,73.6c0,1.9-0.7,2.9-2.2,2.9h-3.4c-1.4,0-2-0.9-2-2.8v-15c0-0.9-0.3-1.4-1-1.4h-3.9c-0.7,0-1,0.5-1,1.4
			v15c0,1.9-0.7,2.8-2,2.8h-3.4c-1.4,0-2.2-1-2.2-2.9V35.9c0-1.9,0.7-2.8,2.2-2.8h3.5c1.3,0,2,0.9,2,2.7v12.5c0,0.8,0.3,1.2,1,1.2h4
			c0.6,0,1-0.4,1-1.2V35.8c0-1.8,0.6-2.7,2-2.7h3.5c1.4,0,2.2,0.9,2.2,2.8L286.3,73.6z"/>
	</g>
</g>
</svg>
