<?xml version="1.0" encoding="utf-8"?>
<!-- Generator: Adobe Illustrator 26.0.3, SVG Export Plug-In . SVG Version: 6.00 Build 0)  -->
<svg version="1.1" id="Layer_1" xmlns="http://www.w3.org/2000/svg" xmlns:xlink="http://www.w3.org/1999/xlink" x="0px" y="0px"
	 viewBox="0 0 970 250" style="enable-background:new 0 0 970 250;" xml:space="preserve">
<style type="text/css">
	.st0{fill:#FFFFFF;}
</style>
<g>
	<g>
		<path class="st0" d="M58.5,78.4c0,0.6-0.4,0.9-1.2,0.9h-5.1c-1,0-1.5-0.6-1.8-1.9l-2.7-15.6c-0.1-0.4-0.3-0.6-0.8-0.6h-0.9
			c-0.5,0-0.7,0.2-0.7,0.6v14.8c0,1.8-0.7,2.7-2.2,2.7h-3.5c-1,0-1.6-0.3-1.9-0.9c-0.2-0.6-0.2-1.2-0.2-1.8V38.9
			c0-2,0.7-2.9,2.2-2.9h9.3c5.9,0,8.9,4.5,8.9,13.4c0,4.5-1.2,7.8-3.5,9.8l3.8,18.5C58.4,77.9,58.5,78.2,58.5,78.4z M50.6,48.4
			c0-3.1-0.7-4.7-2.2-4.7h-2.1c-0.6,0-0.8,0.3-0.8,0.9v7.9c0,0.8,0.2,1.2,0.6,1.2h2.2C49.8,53.6,50.6,51.9,50.6,48.4L50.6,48.4z"/>
		<path class="st0" d="M78.2,76.6c0,1.9-0.7,2.8-2.2,2.8H62.7c-1,0-1.7-0.3-1.9-0.8c-0.2-0.6-0.3-1.3-0.3-2V38.9
			c0-1.9,0.7-2.9,2.2-2.9h12.9c0.5-0.1,1.1,0.1,1.5,0.3c0.5,0.6,0.7,1.4,0.6,2.2V41c0,1.4-0.3,2.3-1,2.5c-0.4,0.1-0.8,0.2-1.1,0.2
			h-6.3c-0.6,0-1,0.2-1.1,0.4c-0.1,0.3-0.1,0.7-0.1,1v6c0,0.4,0,0.8,0.2,1.2c0.1,0.1,0.4,0.2,1,0.2h3.2c1.2,0,1.9,0.8,1.9,2.2V58
			c0,1.4-0.6,2.2-1.9,2.2h-3.2c-0.4-0.1-0.7,0-1,0.2c-0.2,0.2-0.2,0.5-0.2,0.8v9.1c0,1,0.4,1.4,1.4,1.4h6.4c1.6,0,2.3,0.9,2.3,2.8
			L78.2,76.6z"/>
		<path class="st0" d="M96.8,41.1c0,1.7-0.7,2.6-2,2.6h-6c-0.6,0-0.9,0.2-1,0.4c-0.1,0.4-0.2,0.9-0.1,1.3v5.9c0,0.8,0.3,1.2,0.8,1.2
			h3.7c0.6-0.1,1.3,0.2,1.7,0.7c0.2,0.6,0.3,1.3,0.3,1.9v2.3c0,1.9-0.7,2.8-2,2.8h-3.3c-0.6,0-0.9,0.1-1,0.4
			c-0.1,0.4-0.2,0.8-0.1,1.3v14.8c0,1.8-0.6,2.7-1.9,2.7h-3.7c-1.1,0-1.7-0.4-1.9-1.1c-0.1-0.5-0.2-1.1-0.2-1.6V39
			c0-1.5,0.3-2.4,0.8-2.7c0.4-0.2,0.9-0.3,1.3-0.3h12.3c1.5,0,2.3,0.9,2.3,2.8V41.1z"/>
		<path class="st0" d="M106.4,76.6c0.1,0.7-0.1,1.4-0.3,2.1c-0.3,0.4-0.9,0.6-1.8,0.6H101c-0.6,0.1-1.2-0.1-1.7-0.4
			c-0.5-0.7-0.7-1.6-0.6-2.4V38.9c0-2,0.7-2.9,2.2-2.9h3.5c1.3,0,2,1,2,2.9L106.4,76.6z"/>
		<path class="st0" d="M131.8,76.4c0.1,0.9-0.1,1.8-0.6,2.5c-0.5,0.3-1.1,0.5-1.7,0.4h-3c-0.6,0-1.1-0.1-1.6-0.4
			c-0.4-0.5-0.7-1-0.9-1.7l-5.5-16.2c-0.2-0.6-0.4-0.9-0.7-0.9s-0.3,0.4-0.3,1.2v15c0,1.9-0.7,2.8-2,2.8h-3.4c-1.6,0-2.3-1-2.3-2.9
			V38.9c-0.1-0.9,0.1-1.7,0.6-2.5c0.5-0.3,1-0.5,1.6-0.4h3c0.6,0,1.1,0.1,1.7,0.3c0.4,0.5,0.7,1,0.9,1.7l5.5,16.1
			c0.2,0.6,0.4,0.9,0.7,0.9s0.3-0.4,0.3-1.2v-15c0-1.9,0.7-2.9,2-2.9h3.4c1.6,0,2.4,1,2.4,2.9L131.8,76.4z"/>
		<path class="st0" d="M152.9,76.6c0,1.9-0.7,2.8-2.2,2.8h-13.3c-1,0-1.7-0.3-1.9-0.8c-0.2-0.6-0.3-1.3-0.3-2V38.9
			c0-1.9,0.7-2.9,2.2-2.9h12.9c0.5-0.1,1.1,0.1,1.5,0.3c0.5,0.6,0.7,1.4,0.6,2.2V41c0,1.4-0.3,2.3-0.9,2.5c-0.4,0.1-0.8,0.2-1.1,0.2
			h-6.4c-0.6,0-0.9,0.2-1.1,0.4c-0.1,0.3-0.1,0.7-0.1,1v6c0,0.4,0,0.8,0.2,1.2c0.1,0.1,0.4,0.2,1,0.2h3.2c1.2,0,1.9,0.8,1.9,2.2V58
			c0,1.4-0.6,2.2-1.9,2.2h-3.2c-0.4-0.1-0.7,0-1,0.2c-0.2,0.2-0.2,0.5-0.2,0.8v9.1c0,1,0.4,1.4,1.4,1.4h6.4c1.6,0,2.3,0.9,2.3,2.8
			L152.9,76.6z"/>
		<path class="st0" d="M175.7,57.7c0.1,4.7-0.1,9.4-0.6,14c-0.4,3.1-1.3,5.2-2.4,6.3c-1,0.9-2.8,1.4-5.1,1.4H157
			c-1.1,0-1.8-0.3-2-0.8c-0.2-0.6-0.3-1.3-0.3-2V38.9c0-2,0.7-2.9,2.1-2.9H168c3.1-0.2,5.9,1.9,6.6,4.9
			C175.3,43.5,175.7,49.1,175.7,57.7z M168,58.3c0-5.3-0.1-8.7-0.2-10.2c-0.1-2-0.4-3.3-1-3.8c-0.8-0.5-1.7-0.7-2.5-0.6
			c-0.6-0.1-1.2,0-1.8,0.3c-0.3,0.2-0.4,0.8-0.4,1.6v24.3c0,0.8,0.1,1.3,0.4,1.5c0.6,0.2,1.3,0.3,2,0.3c0.8,0.1,1.6-0.1,2.3-0.6
			c0.5-0.5,0.8-1.7,0.9-3.5C167.9,66,168,62.9,168,58.3z"/>
		<path class="st0" d="M208.2,80.6c0.3,0.3,0.6,0.7,0.6,1.1c0,0.4-0.3,0.7-0.9,1l-4.3,1.9c-0.2,0.1-0.4,0.1-0.6,0.2
			c-0.5,0-1-0.4-1.7-1.3l-2.8-3.6h-0.7H197c-4.7,0-7.7-2.1-9.1-6.3c-0.8-2.6-1.3-8-1.3-16s0.4-13.3,1.3-15.9
			c1.4-4.1,4.4-6.2,9.1-6.2c4.7,0,7.8,2.1,9.2,6.2c0.8,2.6,1.3,7.9,1.3,15.9c0,5.4-0.1,9.1-0.4,11.3c-0.4,3.5-1.2,6.1-2.5,7.8
			L208.2,80.6z M199.9,57.6c0.1-3.7,0-7.5-0.4-11.2c-0.3-1.8-1.1-2.6-2.5-2.6s-2.2,0.9-2.5,2.6c-0.4,3.7-0.5,7.5-0.4,11.2
			c-0.1,3.8,0,7.6,0.4,11.3c0.3,1.8,1.2,2.8,2.5,2.8c1.7,0,2.6-1.9,2.9-5.8V57.6z"/>
		<path class="st0" d="M230.9,67c0,4.2-0.6,7.2-1.8,9.1c-1.6,2.5-4.5,3.8-8.8,3.8c-4.1,0-6.9-1.1-8.4-3.3c-1.3-1.8-1.9-4.9-1.9-9.3
			V38.9c-0.1-0.7,0.1-1.5,0.4-2.1c0.5-0.5,1.2-0.8,1.9-0.7h3.4c0.9,0,1.4,0.2,1.7,0.8c0.2,0.6,0.3,1.3,0.3,1.9v29.6
			c0,2.2,0.9,3.4,2.9,3.4c1.9,0,2.8-1.1,2.7-3.4V38.7c-0.1-0.7,0.1-1.5,0.4-2.1c0.3-0.4,0.8-0.6,1.7-0.6h3.6c1,0,1.6,0.3,1.8,1
			c0.1,0.6,0.2,1.1,0.2,1.7V67z"/>
		<path class="st0" d="M256,78.4c0.1,0.7-0.2,1-1,1h-6.2c-0.6,0-1-0.4-1.1-1.2l-1.3-9.2c0-0.6-0.4-1-1-1c0,0-0.1,0-0.1,0h-2.7
			c-0.5-0.1-1,0.3-1.1,0.9c0,0,0,0.1,0,0.1l-1,9.3c0,0.6-0.4,1-1,1c-0.1,0-0.1,0-0.2,0h-6c-0.8,0-1.2-0.3-1.1-1l5.3-39.9
			c0-1.4,1.2-2.5,2.6-2.4c0,0,0.1,0,0.1,0h7.6c1.4,0,2.3,0.8,2.5,2.5L256,78.4z M245.7,59.6l-1.2-15c0-0.6-0.2-1-0.5-1
			s-0.5,0.3-0.5,1l-1.1,14.9c-0.1,0.5,0.2,0.7,0.8,0.7h1.6C245.4,60.3,245.7,60.1,245.7,59.6z"/>
		<path class="st0" d="M274,76.6c0,1.9-0.8,2.8-2.4,2.8H260c-1,0-1.5-0.2-1.8-0.7c-0.3-0.7-0.4-1.4-0.3-2.2V38.8
			c0-1.9,0.7-2.8,2.1-2.8h3.4c0.7-0.1,1.4,0.2,1.8,0.8c0.3,0.6,0.4,1.3,0.3,2v31.5c0,0.9,0.4,1.4,1,1.4h5.3c1.5,0,2.2,0.9,2.2,2.7
			L274,76.6z"/>
		<path class="st0" d="M283.6,76.6c0.1,0.7-0.1,1.4-0.4,2.1c-0.3,0.4-0.9,0.6-1.8,0.6h-3.2c-0.6,0.1-1.2-0.1-1.7-0.4
			c-0.5-0.7-0.7-1.6-0.6-2.4V38.9c0-2,0.7-2.9,2.2-2.9h3.5c1.4,0,2,1,2,2.9L283.6,76.6z"/>
		<path class="st0" d="M305.5,41c0,1.5-0.4,2.4-1.2,2.6c-0.3,0.1-0.6,0.1-0.9,0.1h-3.4c-0.6,0-0.9,0.4-0.9,1.3v31.5
			c0.1,0.8-0.1,1.5-0.4,2.2c-0.3,0.4-0.8,0.6-1.7,0.6h-3.4c-1.2,0-1.9-0.4-2.1-1.3c-0.1-0.5-0.1-0.9-0.1-1.4V45
			c0-0.9-0.3-1.3-0.9-1.3h-3.4c-0.5,0-1-0.1-1.4-0.4c-0.4-0.7-0.6-1.4-0.5-2.2v-2.2c0-1.4,0.3-2.3,0.8-2.6c0.4-0.2,0.8-0.3,1.3-0.2
			h15.8c1.4,0,2.1,0.9,2.1,2.6V41z"/>
		<path class="st0" d="M327.9,38.3l-7.1,24.5v13.8c0.1,0.8-0.1,1.6-0.4,2.3c-0.5,0.4-1.1,0.6-1.7,0.5h-3.4c-1,0-1.6-0.2-1.8-0.7
			c-0.3-0.7-0.4-1.4-0.4-2.1V62.8l-7.1-24.5c-0.4-1.5,0-2.3,1.2-2.3h4.4c0.9,0,1.4,0.5,1.7,1.6l3.3,14.1c0.1,0.5,0.3,0.7,0.4,0.7
			s0.3-0.2,0.5-0.7l3.3-14.1c0.2-1,0.8-1.6,1.7-1.6h4.4C327.9,36,328.3,36.8,327.9,38.3z"/>
	</g>
</g>
</svg>
