<?xml version="1.0" encoding="utf-8"?>
<!-- Generator: Adobe Illustrator 26.0.3, SVG Export Plug-In . SVG Version: 6.00 Build 0)  -->
<svg version="1.1" id="Layer_1" xmlns="http://www.w3.org/2000/svg" xmlns:xlink="http://www.w3.org/1999/xlink" x="0px" y="0px"
	 viewBox="0 0 970 250" style="enable-background:new 0 0 970 250;" xml:space="preserve">
<style type="text/css">
	.st0{fill:#FFFFFF;}
</style>
<g>
	<g>
		<path class="st0" d="M55.4,76.6c0,1.9-0.7,2.8-2.2,2.8H39.9c-1,0-1.7-0.3-1.9-0.8c-0.2-0.6-0.3-1.3-0.3-2V38.9
			c0-1.9,0.7-2.9,2.2-2.9h12.9c0.5-0.1,1.1,0.1,1.5,0.3c0.5,0.6,0.7,1.4,0.6,2.2V41c0,1.4-0.3,2.3-1,2.5c-0.4,0.1-0.8,0.2-1.1,0.2
			h-6.3c-0.6,0-1,0.2-1.1,0.4c-0.1,0.3-0.1,0.7-0.1,1v6c0,0.4,0,0.8,0.2,1.2c0.1,0.1,0.5,0.2,1,0.2h3.2c1.2,0,1.9,0.8,1.9,2.2V58
			c0,1.4-0.6,2.2-1.9,2.2h-3.2c-0.4-0.1-0.7,0-1,0.2c-0.2,0.2-0.2,0.5-0.2,0.8v9.1c0,1,0.5,1.4,1.4,1.4H53c1.5,0,2.3,0.9,2.3,2.8
			L55.4,76.6z"/>
		<path class="st0" d="M73.4,76.6c0,1.9-0.8,2.8-2.4,2.8H59.4c-1,0-1.5-0.2-1.8-0.7c-0.3-0.7-0.4-1.4-0.3-2.2V38.8
			c0-1.9,0.7-2.8,2.2-2.8h3.4c0.7-0.1,1.4,0.2,1.8,0.8c0.3,0.6,0.4,1.3,0.3,2v31.5c0,0.9,0.3,1.4,1,1.4h5.3c1.5,0,2.2,0.9,2.2,2.7
			L73.4,76.6z"/>
		<path class="st0" d="M83,76.6c0.1,0.7-0.1,1.4-0.3,2.1c-0.3,0.4-0.9,0.6-1.8,0.6h-3.3c-0.6,0.1-1.2-0.1-1.7-0.4
			c-0.5-0.7-0.7-1.6-0.6-2.4V38.9c0-2,0.7-2.9,2.2-2.9h3.5c1.3,0,2,1,2,2.9L83,76.6z"/>
		<path class="st0" d="M104.9,41c0,1.5-0.4,2.4-1.2,2.6c-0.3,0.1-0.6,0.1-0.9,0.1h-3.4c-0.6,0-0.9,0.4-0.9,1.3v31.5
			c0.1,0.8-0.1,1.5-0.4,2.2c-0.2,0.4-0.8,0.6-1.7,0.6h-3.4c-1.2,0-1.9-0.4-2.1-1.3c-0.1-0.5-0.2-0.9-0.2-1.4V45
			c0-0.9-0.3-1.3-0.8-1.3h-3.3c-0.5,0.1-1-0.1-1.5-0.4c-0.4-0.7-0.6-1.4-0.5-2.2v-2.2c0-1.4,0.3-2.3,0.8-2.6
			c0.4-0.2,0.9-0.3,1.3-0.2h15.8c1.4,0,2.1,0.9,2.1,2.6L104.9,41z"/>
		<path class="st0" d="M124.5,76.6c0,1.9-0.7,2.8-2.2,2.8H109c-1,0-1.7-0.3-1.9-0.8c-0.2-0.6-0.3-1.3-0.3-2V38.9
			c0-1.9,0.7-2.9,2.2-2.9h12.8c0.5-0.1,1.1,0.1,1.5,0.3c0.5,0.6,0.7,1.4,0.6,2.2V41c0,1.4-0.3,2.3-1,2.5c-0.4,0.1-0.8,0.2-1.2,0.2
			h-6.3c-0.6,0-1,0.2-1.1,0.4c-0.1,0.3-0.1,0.7-0.1,1v6c0,0.4,0,0.8,0.2,1.2c0.1,0.1,0.4,0.2,1,0.2h3.2c1.2,0,1.9,0.8,1.9,2.2V58
			c0,1.4-0.6,2.2-1.9,2.2h-3.2c-0.4-0.1-0.7,0-1,0.2c-0.2,0.2-0.2,0.5-0.2,0.8v9.1c0,1,0.5,1.4,1.4,1.4h6.4c1.5,0,2.3,0.9,2.3,2.8
			L124.5,76.6z"/>
		<path class="st0" d="M152.6,76.6c0,1.9-0.7,2.8-2.2,2.8h-13.3c-1,0-1.7-0.3-1.9-0.8c-0.2-0.6-0.3-1.3-0.3-2V38.9
			c0-1.9,0.7-2.9,2.2-2.9H150c0.5-0.1,1.1,0.1,1.5,0.3c0.5,0.6,0.7,1.4,0.6,2.2V41c0,1.4-0.3,2.3-1,2.5c-0.4,0.1-0.8,0.2-1.1,0.2
			h-6.3c-0.6,0-1,0.2-1.1,0.4c-0.1,0.3-0.1,0.7-0.1,1v6c0,0.4,0,0.8,0.2,1.2c0.1,0.1,0.4,0.2,1,0.2h3.2c1.2,0,1.9,0.8,1.9,2.2V58
			c0,1.4-0.6,2.2-1.9,2.2h-3.2c-0.4-0.1-0.7,0-1,0.2c-0.2,0.2-0.2,0.5-0.2,0.8v9.1c0,1,0.5,1.4,1.4,1.4h6.4c1.5,0,2.3,0.9,2.3,2.8
			L152.6,76.6z"/>
		<path class="st0" d="M171.3,41.1c0,1.7-0.7,2.6-2,2.6h-6c-0.6,0-0.9,0.2-1.1,0.4c-0.1,0.4-0.2,0.9-0.1,1.3v5.9
			c0,0.8,0.3,1.2,0.8,1.2h3.6c0.9,0,1.4,0.2,1.7,0.7c0.2,0.6,0.3,1.3,0.3,1.9v2.3c0,1.9-0.7,2.8-2,2.8h-3.2c-0.6,0-0.9,0.1-1.1,0.4
			c-0.1,0.4-0.2,0.8-0.1,1.3v14.8c0,1.8-0.6,2.7-1.9,2.7h-3.6c-1.1,0-1.7-0.4-1.9-1.1c-0.2-0.5-0.2-1.1-0.2-1.6V39
			c0-1.5,0.3-2.4,0.8-2.7c0.4-0.2,0.9-0.3,1.3-0.2H169c1.5,0,2.3,0.9,2.3,2.8L171.3,41.1z"/>
		<path class="st0" d="M189.9,41.1c0,1.7-0.7,2.6-2,2.6h-6c-0.6,0-0.9,0.2-1.1,0.4c-0.1,0.4-0.2,0.9-0.1,1.3v5.9
			c0,0.8,0.3,1.2,0.8,1.2h3.6c0.9,0,1.4,0.2,1.7,0.7c0.2,0.6,0.3,1.3,0.3,1.9v2.3c0,1.9-0.7,2.8-2,2.8H182c-0.6,0-0.9,0.1-1.1,0.4
			c-0.1,0.4-0.1,0.8-0.1,1.3v14.8c0,1.8-0.6,2.7-1.9,2.7h-3.6c-1.1,0-1.7-0.4-1.9-1.1c-0.2-0.5-0.2-1.1-0.2-1.6V39
			c0-1.5,0.3-2.4,0.8-2.7c0.4-0.2,0.9-0.3,1.3-0.2h12.3c1.5,0,2.3,0.9,2.3,2.8L189.9,41.1z"/>
		<path class="st0" d="M199.5,76.6c0.1,0.7-0.1,1.4-0.4,2.1c-0.3,0.4-0.9,0.6-1.8,0.6h-3.2c-0.6,0.1-1.2-0.1-1.7-0.4
			c-0.5-0.7-0.7-1.6-0.6-2.4V38.9c0-2,0.7-2.9,2.2-2.9h3.5c1.4,0,2,1,2,2.9L199.5,76.6z"/>
		<path class="st0" d="M219.8,41.2c0.1,0.7-0.1,1.4-0.5,2c-0.5,0.3-1.1,0.5-1.7,0.4h-4.9c-1.2-0.1-2.2,0.8-2.3,1.9
			c-0.4,4.1-0.5,8.1-0.4,12.2c0,6.1,0,8.8-0.1,8.1c0.2,3.9,1.1,5.8,2.6,5.8h5.1c1.4,0,2.1,0.8,2.1,2.2V77c0,1.6-0.6,2.3-2,2.3h-7.7
			c-3.3,0-5.4-1.3-6.4-4s-1.4-8.3-1.4-16.8c0-13.6-0.1-16.6-0.2-9c-0.1-3.2,0.4-6.3,1.5-9.3c1.2-2.8,3.3-4.2,6.1-4.2h8.1
			c1.4,0,2,0.8,2,2.3L219.8,41.2z"/>
		<path class="st0" d="M229.4,76.6c0.1,0.7-0.1,1.4-0.4,2.1c-0.3,0.4-0.9,0.6-1.8,0.6H224c-0.6,0.1-1.2-0.1-1.7-0.4
			c-0.5-0.7-0.7-1.6-0.6-2.4V38.9c0-2,0.7-2.9,2.2-2.9h3.5c1.4,0,2,1,2,2.9L229.4,76.6z"/>
		<path class="st0" d="M250.4,76.6c0,1.9-0.7,2.8-2.2,2.8H235c-1,0-1.7-0.3-1.9-0.8c-0.2-0.6-0.3-1.3-0.3-2V38.9
			c0-1.9,0.8-2.9,2.2-2.9h12.9c0.5-0.1,1.1,0.1,1.5,0.3c0.5,0.6,0.7,1.4,0.6,2.2V41c0,1.4-0.3,2.3-0.9,2.5c-0.4,0.1-0.8,0.2-1.1,0.2
			h-6.4c-0.6,0-0.9,0.2-1.1,0.4c-0.1,0.3-0.1,0.7-0.1,1v6c0,0.4,0,0.8,0.2,1.2c0.1,0.1,0.4,0.2,1,0.2h3.2c1.2,0,1.9,0.8,1.9,2.2V58
			c0,1.4-0.6,2.2-1.9,2.2h-3.2c-0.4-0.1-0.7,0-1,0.2c-0.2,0.2-0.2,0.5-0.2,0.8v9.1c0,1,0.4,1.4,1.4,1.4h6.4c1.5,0,2.3,0.9,2.3,2.8
			L250.4,76.6z"/>
		<path class="st0" d="M274.4,76.4c0.1,0.9-0.1,1.8-0.6,2.5c-0.5,0.3-1.1,0.5-1.7,0.4h-3c-0.6,0-1.1-0.1-1.6-0.3
			c-0.4-0.5-0.7-1-0.9-1.7l-5.4-16.2c-0.2-0.6-0.5-0.9-0.7-0.9s-0.3,0.4-0.3,1.2v15c0,1.9-0.7,2.8-2,2.8h-3.4c-1.6,0-2.4-1-2.4-2.9
			V38.9c-0.1-0.9,0.1-1.7,0.6-2.5c0.5-0.3,1.1-0.5,1.7-0.4h3c0.6-0.1,1.1,0.1,1.6,0.3c0.4,0.5,0.7,1,0.9,1.7l5.5,16.1
			c0.2,0.6,0.5,0.9,0.7,0.9s0.3-0.4,0.3-1.2v-15c0-1.9,0.7-2.9,2-2.9h3.3c1.6,0,2.4,1,2.4,2.9L274.4,76.4z"/>
		<path class="st0" d="M294.7,41.2c0.1,0.7-0.1,1.4-0.5,2c-0.5,0.3-1.1,0.5-1.7,0.4h-4.9c-1.2-0.1-2.2,0.8-2.3,1.9
			c-0.3,4.1-0.5,8.1-0.3,12.2c0,6.1,0,8.8-0.1,8.1c0.2,3.9,1.1,5.8,2.6,5.8h5.1c1.4,0,2.1,0.8,2.1,2.2V77c0,1.6-0.6,2.3-2,2.3H285
			c-3.3,0-5.4-1.3-6.4-4s-1.5-8.3-1.5-16.8c0-13.6-0.1-16.6-0.2-9c-0.1-3.2,0.4-6.3,1.5-9.3c1.2-2.8,3.3-4.2,6.1-4.2h8.1
			c1.4,0,2,0.8,2,2.3L294.7,41.2z"/>
		<path class="st0" d="M317,38.3l-7.1,24.5v13.8c0.1,0.8-0.1,1.6-0.4,2.3c-0.5,0.4-1.1,0.6-1.7,0.5h-3.4c-1,0-1.6-0.2-1.8-0.7
			c-0.3-0.7-0.4-1.4-0.4-2.1V62.8l-7.1-24.5c-0.4-1.5,0-2.3,1.2-2.3h4.4c0.9,0,1.4,0.5,1.7,1.6l3.3,14.1c0.1,0.5,0.3,0.7,0.5,0.7
			s0.3-0.2,0.5-0.7l3.3-14.1c0.3-1,0.8-1.6,1.7-1.6h4.4C317.1,36,317.5,36.8,317,38.3z"/>
	</g>
</g>
</svg>
