<?xml version="1.0" encoding="utf-8"?>
<!-- Generator: Adobe Illustrator 26.0.3, SVG Export Plug-In . SVG Version: 6.00 Build 0)  -->
<svg version="1.1" id="Layer_1" xmlns="http://www.w3.org/2000/svg" xmlns:xlink="http://www.w3.org/1999/xlink" x="0px" y="0px"
	 viewBox="0 0 970 250" style="enable-background:new 0 0 970 250;" xml:space="preserve">
<style type="text/css">
	.st0{fill:#FFFFFF;}
</style>
<g>
	<g>
		<path class="st0" d="M58.7,57.7c0.1,4.7-0.1,9.4-0.6,14c-0.4,3.1-1.3,5.2-2.4,6.3c-1,0.9-2.8,1.4-5.2,1.4H40c-1.1,0-1.8-0.3-2-0.8
			c-0.2-0.6-0.3-1.3-0.3-2V38.9c0-2,0.7-2.9,2.1-2.9h11.1c3.1-0.2,5.9,1.9,6.6,4.9C58.3,43.5,58.7,49.1,58.7,57.7z M51,58.3
			c0-5.3,0-8.7-0.2-10.2c-0.1-2-0.4-3.3-1-3.8c-0.8-0.5-1.7-0.7-2.5-0.6c-0.6-0.1-1.2,0-1.8,0.3c-0.3,0.2-0.4,0.8-0.4,1.6v24.3
			c0,0.8,0.1,1.3,0.4,1.5c0.6,0.2,1.3,0.3,2,0.3c0.8,0.1,1.6-0.1,2.3-0.6c0.5-0.5,0.8-1.7,1-3.5C50.9,66,51,62.9,51,58.3z"/>
		<path class="st0" d="M69.2,76.6c0.1,0.7-0.1,1.4-0.3,2.1c-0.3,0.4-0.9,0.6-1.8,0.6h-3.2c-0.6,0.1-1.2-0.1-1.7-0.4
			c-0.5-0.7-0.7-1.6-0.6-2.4V38.9c0-2,0.7-2.9,2.2-2.9h3.5c1.3,0,2,1,2,2.9L69.2,76.6z"/>
		<path class="st0" d="M93,66.6c0,4.6-0.6,7.7-1.7,9.5c-1.4,2.2-4.2,3.3-8.3,3.3c-5.1,0-8.3-1.8-9.7-5.3c-0.9-2.4-1.4-7.9-1.3-16.3
			s0.4-13.9,1-16.3c0.9-3.7,3-5.5,6.4-5.5h8.8c0.7-0.1,1.3,0.1,1.8,0.6c0.3,0.7,0.5,1.4,0.4,2.1v2.1c0,1.9-0.7,2.9-2,2.9h-4.7
			c-1-0.1-1.9,0.1-2.8,0.5C80.4,44.8,80,46,79.9,48c-0.1,1.5-0.2,4.9-0.2,10v9.5c0,2.8,1.2,4.2,3.4,4.2c2.1,0,3.1-1.1,3.1-3.4v-6.4
			c0-1.1-0.3-1.7-0.8-1.7h-1.9c-0.8,0-1.2-0.7-1.2-2v-3c-0.1-0.7,0.1-1.4,0.4-2c0.5-0.5,1.3-0.8,2-0.7H91c1.4,0,2,1,2,2.9V66.6z"/>
		<path class="st0" d="M125.3,57.7c0.1,4.7-0.1,9.4-0.6,14c-0.5,3.1-1.3,5.2-2.4,6.3c-1,0.9-2.8,1.4-5.2,1.4h-10.5
			c-1.1,0-1.8-0.3-2-0.8c-0.2-0.6-0.3-1.3-0.2-2V38.9c0-2,0.7-2.9,2.1-2.9h11.1c3.1-0.2,5.9,1.9,6.6,4.9
			C124.9,43.5,125.3,49.1,125.3,57.7z M117.6,58.3c0-5.3-0.1-8.7-0.2-10.2c-0.1-2-0.4-3.3-1-3.8c-0.8-0.5-1.7-0.7-2.5-0.6
			c-0.6-0.1-1.2,0-1.8,0.3c-0.3,0.2-0.4,0.8-0.4,1.6v24.3c0,0.8,0.1,1.3,0.4,1.5c0.6,0.2,1.3,0.3,2,0.3c0.8,0.1,1.6-0.1,2.3-0.6
			c0.5-0.5,0.8-1.7,1-3.5C117.5,66,117.6,62.9,117.6,58.3z"/>
		<path class="st0" d="M145.8,76.6c0,1.9-0.7,2.8-2.2,2.8h-13.3c-1,0-1.7-0.3-1.9-0.8c-0.2-0.6-0.3-1.3-0.3-2V38.9
			c0-1.9,0.8-2.9,2.2-2.9h12.9c0.5-0.1,1.1,0.1,1.5,0.3c0.5,0.6,0.7,1.4,0.6,2.2V41c0,1.4-0.3,2.3-1,2.5c-0.4,0.1-0.8,0.2-1.1,0.2
			h-6.4c-0.6,0-1,0.2-1.1,0.4c-0.1,0.3-0.1,0.7-0.1,1v6c0,0.4,0,0.8,0.2,1.2c0.1,0.1,0.4,0.2,1,0.2h3.2c1.2,0,1.9,0.8,1.9,2.2V58
			c0,1.4-0.6,2.2-1.9,2.2h-3.2c-0.5,0-0.8,0.1-1,0.2c-0.2,0.2-0.2,0.5-0.2,0.8v9.1c0,1,0.4,1.4,1.4,1.4h6.4c1.5,0,2.3,0.9,2.3,2.8
			L145.8,76.6z"/>
		<path class="st0" d="M165.3,76.6c0,1.9-0.7,2.8-2.2,2.8h-13.3c-1,0-1.7-0.3-1.9-0.8c-0.2-0.6-0.3-1.3-0.3-2V38.9
			c0-1.9,0.7-2.9,2.2-2.9h12.9c0.5-0.1,1.1,0.1,1.5,0.3c0.4,0.3,0.6,1,0.6,2.2V41c0,1.4-0.3,2.3-1,2.5c-0.4,0.1-0.8,0.2-1.1,0.2
			h-6.4c-0.6,0-0.9,0.2-1.1,0.4c-0.1,0.3-0.1,0.7-0.1,1v6c0,0.4,0,0.8,0.2,1.2c0.1,0.1,0.4,0.2,1,0.2h3.2c1.2,0,1.9,0.8,1.9,2.2V58
			c0,1.4-0.6,2.2-1.9,2.2h-3.2c-0.4-0.1-0.7,0-1,0.2c-0.2,0.2-0.2,0.5-0.2,0.8v9.1c0,1,0.4,1.4,1.4,1.4h6.5c1.5,0,2.3,0.9,2.3,2.8
			L165.3,76.6z"/>
		<path class="st0" d="M187.6,49.8c0,8.9-2.4,13.4-7.3,13.4h-5.5v13.3c0.1,0.8-0.1,1.6-0.4,2.3c-0.5,0.4-1.1,0.6-1.6,0.5h-3.5
			c-1.1,0-1.7-0.3-1.9-1c-0.1-0.6-0.2-1.2-0.2-1.8V39c0-2,0.7-3,2.1-3h10C184.8,36,187.6,40.6,187.6,49.8z M180,49.8
			c0.1-1.7-0.1-3.4-0.5-5c-0.2-0.7-0.9-1.1-1.6-1.1H176c-0.7,0-1,0.4-1,1.2v9.6c0,0.7,0.3,1.1,1,1.1h2c1,0,1.6-0.8,1.9-2.3
			C179.9,52.8,180,51.6,180,49.8z"/>
		<path class="st0" d="M232.1,38.3l-6.8,39.1c-0.2,1.2-0.8,1.9-1.8,1.9h-5.1c-0.5,0.1-1-0.1-1.4-0.4c-0.3-0.5-0.4-1-0.4-1.5
			l-1.8-14.5c-0.1-0.5-0.2-0.8-0.3-0.8s-0.4,0.2-0.5,0.7L210.4,78c-0.2,0.8-0.9,1.4-1.8,1.3h-4.2c-0.9,0-1.4-0.5-1.6-1.6l-6.1-39.3
			c-0.1-0.3-0.1-0.6-0.1-0.9c0-1,0.6-1.5,1.7-1.5h4.4c0.9,0,1.4,0.6,1.6,1.9l3.1,21.1c0.1,0.6,0.2,0.9,0.6,0.9s0.4-0.3,0.5-0.9
			l2.9-12.5l-0.9-8.2c-0.2-1.6,0.4-2.3,1.6-2.3h4.5c0.9,0,1.5,0.6,1.6,1.9l2.5,21.1c0.1,0.6,0.3,0.9,0.5,0.9s0.4-0.3,0.5-0.9
			l2.6-21.3c0.1-1.1,0.6-1.7,1.5-1.7h4.8c1,0,1.5,0.4,1.5,1.3C232.2,37.7,232.2,38,232.1,38.3z"/>
		<path class="st0" d="M241.8,76.6c0.1,0.7-0.1,1.4-0.4,2.1c-0.3,0.4-0.9,0.6-1.8,0.6h-3.2c-0.6,0.1-1.2-0.1-1.7-0.4
			c-0.5-0.7-0.7-1.6-0.6-2.4V38.9c0-2,0.7-2.9,2.1-2.9h3.5c1.4,0,2,1,2,2.9L241.8,76.6z"/>
		<path class="st0" d="M263.7,41c0,1.5-0.4,2.4-1.2,2.6c-0.3,0.1-0.6,0.1-0.9,0.1h-3.4c-0.6,0-0.9,0.4-0.9,1.3v31.5
			c0.1,0.8-0.1,1.5-0.4,2.2c-0.3,0.4-0.8,0.6-1.7,0.6H252c-1.2,0-1.9-0.4-2.1-1.3c-0.1-0.5-0.1-0.9-0.1-1.4V45
			c0-0.9-0.3-1.3-0.9-1.3h-3.4c-0.5,0.1-1-0.1-1.5-0.4c-0.4-0.7-0.6-1.4-0.5-2.2v-2.2c0-1.4,0.3-2.3,0.8-2.6
			c0.4-0.2,0.9-0.3,1.3-0.2h15.8c1.4,0,2.1,0.9,2.1,2.6V41z"/>
		<path class="st0" d="M286.8,76.5c0,1.9-0.7,2.8-2.2,2.8h-3.4c-1.4,0-2-0.9-2-2.8v-15c0-0.9-0.3-1.4-1-1.4h-3.9c-0.7,0-1,0.5-1,1.4
			v15c0,1.9-0.7,2.8-2,2.8h-3.4c-1.4,0-2.2-0.9-2.2-2.8V38.8c0-1.9,0.7-2.8,2.2-2.8h3.5c1.3,0,2,0.9,2,2.7v12.5c0,0.8,0.3,1.2,1,1.2
			h4c0.7,0,1-0.4,1-1.2V38.7c0-1.8,0.6-2.7,2-2.7h3.5c1.4,0,2.2,0.9,2.2,2.8L286.8,76.5z"/>
	</g>
</g>
</svg>
