<?xml version="1.0" encoding="utf-8"?>
<!-- Generator: Adobe Illustrator 26.0.3, SVG Export Plug-In . SVG Version: 6.00 Build 0)  -->
<svg version="1.1" id="Layer_1" xmlns="http://www.w3.org/2000/svg" xmlns:xlink="http://www.w3.org/1999/xlink" x="0px" y="0px"
	 viewBox="0 0 970 250" style="enable-background:new 0 0 970 250;" xml:space="preserve">
<style type="text/css">
	.st0{fill:#FFFFFF;}
</style>
<g>
	<g>
		<path class="st0" d="M621.8,203.8l-3,18.4c-0.1,0.5-0.4,0.8-0.8,0.8h-3.2c-0.5,0-0.7-0.3-0.8-0.8l-3-18.4
			c-0.1-0.5,0.1-0.8,0.5-0.8h2.3c0.5,0,0.7,0.3,0.8,1l1.4,11.4c0,0.3,0.1,0.4,0.3,0.4s0.2-0.1,0.3-0.4l1.4-11.4c0.1-0.6,0.4-1,0.8-1
			h2.3C621.7,203,621.9,203.2,621.8,203.8z"/>
		<path class="st0" d="M631.9,212.9c0.1,2.5-0.1,5-0.6,7.4c-0.9,2.3-3.5,3.5-5.9,2.6c-1.2-0.5-2.1-1.4-2.6-2.6
			c-0.5-2.4-0.7-4.9-0.6-7.4c-0.1-2.5,0.1-4.9,0.6-7.3c0.9-2.3,3.6-3.5,6-2.5c1.1,0.5,2.1,1.4,2.5,2.5
			C631.8,208,632,210.5,631.9,212.9z M628.4,212.9c0-1.7,0-3.5-0.2-5.2c-0.2-0.8-0.5-1.2-1.1-1.2s-1,0.4-1.2,1.2
			c-0.2,1.7-0.2,3.4-0.2,5.2c0,1.7,0,3.5,0.2,5.2c0.1,0.9,0.5,1.3,1.1,1.3s1-0.4,1.1-1.3C628.4,216.4,628.4,214.7,628.4,212.9z"/>
		<path class="st0" d="M640.7,221.7c0,0.9-0.4,1.3-1.1,1.3h-5.4c-0.4,0-0.7-0.1-0.8-0.3c-0.1-0.3-0.2-0.7-0.2-1v-17.4
			c0-0.9,0.3-1.3,1-1.3h1.6c0.3,0,0.6,0.1,0.8,0.4c0.1,0.3,0.2,0.6,0.1,0.9v14.5c0,0.4,0.2,0.6,0.5,0.6h2.4c0.7,0,1,0.4,1,1.3
			L640.7,221.7z"/>
		<path class="st0" d="M649.9,203.8l-3,18.4c-0.1,0.5-0.4,0.8-0.8,0.8H643c-0.5,0-0.7-0.3-0.8-0.8l-3-18.4c-0.1-0.5,0.1-0.8,0.5-0.8
			h2.2c0.5,0,0.7,0.3,0.8,1l1.4,11.4c0,0.3,0.1,0.4,0.3,0.4s0.2-0.1,0.3-0.4l1.4-11.4c0.1-0.6,0.4-1,0.8-1h2.3
			C649.8,203,650,203.3,649.9,203.8z"/>
		<path class="st0" d="M660,212.9c0.1,2.5-0.1,5-0.6,7.4c-0.9,2.3-3.5,3.5-5.9,2.6c-1.2-0.5-2.1-1.4-2.6-2.6
			c-0.5-2.4-0.7-4.9-0.6-7.4c-0.1-2.5,0.1-4.9,0.6-7.3c0.9-2.3,3.6-3.5,6-2.5c1.1,0.5,2.1,1.4,2.5,2.5
			C659.9,208,660.1,210.5,660,212.9z M656.5,212.9c0-1.7,0-3.5-0.2-5.2c-0.1-0.8-0.5-1.2-1.1-1.2s-1,0.4-1.2,1.2
			c-0.2,1.7-0.2,3.4-0.2,5.2c0,1.7,0,3.5,0.2,5.2c0.2,0.9,0.5,1.3,1.2,1.3s1-0.4,1.1-1.3C656.5,216.4,656.5,214.7,656.5,212.9z"/>
		<path class="st0" d="M673.4,221.7c0,0.9-0.3,1.3-1,1.3h-6.1c-0.5,0-0.8-0.1-0.9-0.4c-0.1-0.3-0.2-0.6-0.1-0.9v-17.4
			c0-0.9,0.3-1.3,1-1.3h5.9c0.2,0,0.5,0,0.7,0.2c0.2,0.1,0.3,0.5,0.3,1v1.1c0,0.7-0.2,1.1-0.4,1.2c-0.2,0.1-0.3,0.1-0.5,0.1h-2.9
			c-0.3,0-0.4,0.1-0.5,0.2c0,0.1,0,0.3,0,0.4v2.9c0,0.2,0,0.4,0.1,0.5c0,0.1,0.2,0.1,0.5,0.1h1.5c0.6,0,0.9,0.3,0.9,1v1.5
			c0,0.7-0.3,1-0.9,1h-1.5c-0.2,0-0.3,0-0.5,0.1c-0.1,0.1-0.1,0.2-0.1,0.4v4.2c0,0.4,0.2,0.6,0.6,0.6h3c0.7,0,1.1,0.4,1.1,1.3
			L673.4,221.7z"/>
		<path class="st0" d="M681.9,205.4c0,0.3,0,0.7-0.2,0.9c-0.2,0.2-0.5,0.2-0.8,0.2h-2.3c-0.5,0-1,0.4-1.1,0.9
			c-0.2,1.9-0.2,3.8-0.2,5.6c0,2.8,0,4.1,0,3.7c0.1,1.8,0.5,2.7,1.2,2.7h2.3c0.6,0,1,0.4,1,1v1.4c0,0.7-0.3,1.1-0.9,1.1h-3.6
			c-1.3,0.1-2.5-0.6-2.9-1.8c-0.5-1.2-0.7-3.8-0.7-7.8c0-6.3,0-7.6-0.1-4.1c0-1.5,0.2-2.9,0.7-4.3c0.4-1.2,1.6-2,2.8-2h3.6
			c0.6,0,0.9,0.3,0.9,1L681.9,205.4z"/>
		<path class="st0" d="M692.4,222.5c0,0.3-0.2,0.4-0.5,0.4h-2.3c-0.4,0-0.7-0.3-0.8-0.9l-1.2-7.2c0-0.2-0.2-0.3-0.4-0.3h-0.4
			c-0.2,0-0.3,0.1-0.3,0.3v6.8c0,0.8-0.3,1.3-1,1.3h-1.6c-0.5,0-0.8-0.1-0.9-0.4c-0.1-0.3-0.1-0.6-0.1-0.9v-17.4
			c0-0.9,0.3-1.3,1-1.4h4.3c2.7,0,4.1,2.1,4.1,6.2c0,2.1-0.5,3.6-1.6,4.5l1.7,8.5C692.3,222.3,692.4,222.4,692.4,222.5z
			 M688.7,208.7c0-1.5-0.3-2.2-1-2.2h-1c-0.3,0-0.4,0.1-0.4,0.4v3.6c0,0.4,0.1,0.5,0.3,0.5h1C688.4,211.1,688.7,210.3,688.7,208.7
			L688.7,208.7z"/>
		<path class="st0" d="M700.7,217.2c0.1,1.5-0.2,3.1-0.8,4.5c-0.7,0.9-1.7,1.4-2.9,1.3h-3.3c-0.5,0-0.7-0.1-0.8-0.3
			c-0.1-0.3-0.2-0.6-0.2-0.9v-1c0-0.6,0.1-1,0.4-1.2c0.2-0.1,0.4-0.1,0.6-0.1h2.3c0.3,0,0.5,0,0.7-0.2c0.3-0.2,0.4-0.9,0.4-2.2
			c0-1.5-0.3-2.2-1-2.2h-1.6c-0.2,0-0.5,0-0.7-0.2c-0.2-0.3-0.3-0.7-0.2-1.1v-1.2c0-0.5,0.2-1,0.5-1.3l2.2-1.7
			c0.5-0.4,0.8-1,0.8-1.6c0-0.9-0.3-1.4-1-1.4h-2.4c-0.4,0-0.7-0.1-0.8-0.3c-0.1-0.3-0.2-0.6-0.2-0.9v-1.1c0-0.3,0-0.7,0.2-1
			c0.1-0.2,0.4-0.3,0.8-0.3h3.5c0.9-0.1,1.9,0.3,2.5,1c0.7,1.2,1,2.6,0.8,3.9c0,2.1-0.6,3.5-1.8,4c0.4,0.3,0.8,0.8,1.2,1.2
			C700.5,214.4,700.8,215.8,700.7,217.2z"/>
		<path class="st0" d="M709.3,216.8c0.1,1.6-0.2,3.2-0.8,4.7c-0.5,1-1.5,1.5-2.6,1.5h-3.7c-0.6,0-0.9-0.2-1-0.5c0-0.3,0-0.5,0-0.8
			v-1c0-0.7,0.1-1.1,0.4-1.2c0.2-0.1,0.4-0.1,0.6-0.1h2.3c0.7,0,1.1-0.9,1.1-2.7s-0.4-2.8-1.1-2.8h-2c-0.7,0-1-0.3-1-0.9v-8.7
			c0-0.9,0.3-1.4,1-1.4h5.6c0.7,0,1,0.4,1,1.3v1c0,0.8-0.3,1.2-0.9,1.2h-2.7c-0.1,0-0.2,0-0.3,0.1c-0.1,0.2-0.1,0.4-0.1,0.6v2.7
			c0,0.4,0.1,0.5,0.4,0.5h0.6c0.9-0.1,1.8,0.3,2.3,1.1C709,212.4,709.3,214.2,709.3,216.8z"/>
		<path class="st0" d="M717.9,216.8c0.1,1.6-0.2,3.2-0.8,4.7c-0.5,1-1.5,1.5-2.6,1.4h-3.7c-0.6,0-0.9-0.2-1-0.5
			c0-0.3-0.1-0.5-0.1-0.8v-1c0-0.7,0.2-1.1,0.4-1.2c0.2-0.1,0.4-0.1,0.6-0.1h2.3c0.7,0,1.1-0.9,1.1-2.7s-0.4-2.8-1.1-2.8h-2
			c-0.7,0-1-0.3-1-0.9v-8.7c0-0.9,0.3-1.4,1-1.4h5.6c0.7,0,1,0.4,1,1.3v1c0,0.8-0.3,1.2-0.9,1.2H714c-0.1,0-0.2,0-0.3,0.1
			c-0.1,0.2-0.1,0.4-0.1,0.6v2.7c0,0.4,0.1,0.5,0.4,0.5h0.6c0.9-0.1,1.8,0.3,2.3,1.1C717.5,212.4,717.9,214.2,717.9,216.8z"/>
		<path class="st0" d="M727,221.7c0,0.9-0.3,1.3-1,1.3h-6.1c-0.5,0-0.8-0.1-0.9-0.4c-0.1-0.3-0.2-0.6-0.1-0.9v-17.4
			c0-0.9,0.3-1.3,1-1.3h5.9c0.2,0,0.5,0,0.7,0.2c0.2,0.3,0.3,0.6,0.3,1v1.1c0,0.7-0.1,1.1-0.4,1.2c-0.2,0.1-0.3,0.1-0.5,0.1h-2.9
			c-0.3,0-0.4,0.1-0.5,0.2c0,0.1,0,0.3,0,0.4v2.9c0,0.2,0,0.4,0.1,0.5c0,0.1,0.2,0.1,0.5,0.1h1.5c0.6,0,0.9,0.3,0.9,1v1.5
			c0,0.7-0.3,1-0.9,1h-1.5c-0.2,0-0.3,0-0.5,0.1c-0.1,0.1-0.1,0.2-0.1,0.4v4.2c0,0.4,0.2,0.6,0.6,0.6h3c0.7,0,1.1,0.4,1.1,1.3
			L727,221.7z"/>
		<path class="st0" d="M735.3,221.7c0,0.9-0.4,1.3-1.1,1.3h-5.4c-0.4,0-0.7-0.1-0.8-0.3c-0.1-0.3-0.2-0.7-0.2-1v-17.4
			c0-0.9,0.3-1.3,1-1.3h1.6c0.3,0,0.6,0.1,0.8,0.4c0.1,0.3,0.2,0.6,0.2,0.9v14.5c0,0.4,0.2,0.6,0.5,0.6h2.4c0.7,0,1,0.4,1,1.3
			L735.3,221.7z"/>
	</g>
</g>
</svg>
