<svg height="600" viewBox="0 0 160 600" width="160" xmlns="http://www.w3.org/2000/svg" xmlns:xlink="http://www.w3.org/1999/xlink"><linearGradient id="a"><stop offset="0" stop-color="#d49442"/><stop offset="1" stop-color="#936f44"/></linearGradient><linearGradient id="b" x1="-.000072%" x2="99.999385%" xlink:href="#a" y1="50.000247%" y2="50.000247%"/><linearGradient id="c" x1="-.013012%" x2="100.017199%" xlink:href="#a" y1="50.008114%" y2="50.008114%"/><linearGradient id="d" x1="-.003594%" x2="99.998454%" xlink:href="#a" y1="50.000044%" y2="50.000044%"/><linearGradient id="e" x1="-.000909%" x2="99.99858%" xlink:href="#a" y1="49.996565%" y2="49.996565%"/><linearGradient id="f" x1="-.013647%" x2="99.999621%" xlink:href="#a" y1="50.008957%" y2="50.008957%"/><mask id="g" fill="#fff"><path d="m67.9581334.15248169v1.20618824c2.7002939.40206274 4.764284.92505842 6.1967667 1.56741648 1.4276865.64392861 2.7594477 1.72918392 3.98729 3.25262479 2.1247428 2.57257334 3.7202983 5.9052966 4.7850678 10.0013108 1.0599733 4.0975848 1.592358 9.0841051 1.592358 14.9469966v18.077118l-43.7978389-49.05165491h-39.99280668v1.20618824c2.69869509.07852788 4.96892438.38321605 6.81068785.90464117 1.83856597.52299568 3.69791573 1.3852318 5.58124683 2.59142004 1.8801335 1.28628667 3.2710486 2.57100279 4.1711466 3.8557189.9000979 1.28628668 1.5332041 2.97306556 1.9009173 5.06033656.3677132 2.0904122.5531686 4.9833793.5531686 8.6789013v21.8134745c0 8.1135006-.5947362 14.5606395-1.7794122 19.3414168-1.1862747 4.7823479-3.1495434 8.396201-5.8914048 10.8478414-2.73866394 2.4500698-6.51971482 4.0771675-11.34635018 4.8797224v1.2061883h38.88966718v-1.2061883c-3.5987931-.3203937-6.3774258-1.0444208-8.3422933-2.1705106-1.9616699-1.1229487-3.7618658-2.9699244-5.3973902-5.5424977-1.6371231-2.6495307-2.802614-5.9665484-3.4964728-9.9416296-.6954576-3.9766519-1.0439857-9.1013813-1.0439857-15.364765v-34.3480947l64.7782747 72.5503377v-48.2082655c0-6.5869186.4476508-12.0697351 1.3477488-16.4500203.9000979-4.3755734 2.2894143-8.1323472 4.1727454-11.26875075 1.5523891-2.48933379 3.2070985-4.21537659 4.9673256-5.17969896 1.7570295-.96746348 4.313436-1.64751492 7.667619-2.04957766v-1.20618824z" fill="#fff" fill-rule="evenodd"/></mask><mask id="h" fill="#fff"><path d="m13.2143875 0c-2.3205619.00314308-4.44595177.51389347-6.38278569 1.53225117-1.93683391 1.01678617-3.45685984 2.39974107-4.56834779 4.13786394-1.11148795 1.74126595-1.66392392 3.6726882-1.66063069 5.78640909.00497677 2.1168639.56402874 4.0451431 1.68213269 5.7816944 1.11644995 1.7381229 2.64143788 3.1132201 4.58323379 4.1221485 1.94014191 1.0136431 4.06883979 1.5165358 6.38774769 1.511854 2.3189079-.0031759 4.4442978-.5060686 6.3811317-1.511854 1.9351799-1.0026423 3.4667839-2.3667387 4.5931578-4.0922893 1.12472-1.7255505 1.6854259-3.6192558 1.6821325-5.6795443-.0033226-1.8261291-.3490085-3.44795803-1.0370725-4.86862989-.689718-1.41595724-1.7383539-2.69047591-3.1425999-3.82041293-1.2537319-.98378383-2.5752779-1.71140669-3.9629838-2.19072629-1.3843979-.46989036-2.8895379-.70876439-4.5269978-.70876439zm-2.3883759 21.0067707c-.91631593-1.2163717-1.37943591-4.4034541-1.39103688-9.5643904-.00163103-2.14515164.08603097-4.0137123.26631696-5.6103966.17863199-1.59196968.42177002-2.70933438.72610592-3.34737949.607018-1.27609021 1.536566-1.91884993 2.7886439-1.91884993 1.035404 0 1.8607499.41645801 2.4743839 1.25723173.916316 1.27294713 1.3794359 4.50560422 1.3893599 9.69325669.003308 2.0885762-.084354 3.9351353-.2646399 5.5459634-.180286 1.6076851-.423424 2.7171921-.726106 3.3285211-.610326 1.2760902-1.5382199 1.9125637-2.7886439 1.9157068h-.004962c-1.0354039 0-1.8574419-.4321734-2.4694219-1.2996633z" fill="#fff" fill-rule="evenodd"/></mask><mask id="i" fill="#fff"><path d="m7.55682468 0c-.83282176.00154606-1.59247974.21026352-2.28053061.62306028-.68960755.41588887-1.2422276.96628455-1.65630347 1.65118704-.41563254.68335644-.62267047 1.44092353-.62112251 2.26651705.00156539.83023169.21171668 1.59089089.62890589 2.28970787.41563255.69727094.97759265 1.25385084 1.68276696 1.66355549.70517432.41434281 1.47261568.61996817 2.30543744.61691041.80324491-.00158041 1.55667619-.20875182 2.26029382-.62464069.702061-.41279676 1.2609077-.96473849 1.6780969-1.64964099.4140759-.68335643.6211138-1.42546297.6180351-2.2263196-.003148-.85342252-.2039592-1.62954227-.6055817-2.32835926-.4047358-.69881699-.9573558-1.25230478-1.66097345-1.66510154-.70206096-.41125071-1.48195573-.61687606-2.34124099-.61687606zm-.79857488 20.6784894c-2.23850036.6586196-4.30420966 1.201285-6.19868458 1.6326344l.08717386.4313494c.71607105.054112 1.29359792.1731582 1.72479722.3602309.42964263.1824345.78767815.476185 1.07721992.8750673.34558212.4560863.57597019.9894754.69272091 1.6032593.11519403.6106919.17434773 1.5723382.17746108 2.8849392l.01245341 7.0159989c.00311335 1.539871-.06693708 2.6375703-.21015128 3.2961898-.14321421.6555275-.42341593 1.0976993-.83904847 1.3280615-.41563254.2288162-1.1114668.3725993-2.08750277.4313494v.4251652l13.9135718-.0216447v-.4298034c-.9775927-.0541119-1.6749836-.194803-2.0906162-.4220731-.4156325-.2303622-.6973909-.6787183-.8421618-1.3466141-.1447709-.669442-.2179346-1.760957-.221048-3.2729991l-.0280202-16.471673c-1.206424.4622706-2.92810787 1.0173044-5.1681649 1.6805621z" fill="#fff" fill-rule="evenodd"/></mask><mask id="j" fill="#fff"><path d="m19.3008734 0c-1.4735498.00321827-2.7639465.54388784-3.8661951 1.63005437-1.1039135 1.08616653-2.1145855 2.81598731-3.032016 5.19428974l-.0116552-6.8146893c-2.6090989.92525298-4.6054675 1.58982598-5.98744076 1.99371902-1.38197326.40389304-3.31340577.88663372-5.80095764 1.45626773l.08991151.44251229c.76924295.05953801 1.38530332.18665973 1.84651608.37814687.45954773.19148713.84583424.49400463 1.15386442.91237988.36963622.47147674.61439534 1.02662852.73927244 1.66545536.12321208.6372177.18814817 1.64131832.1898132 3.00586531l.01498525 7.30386653c0 1.6010899-.08158637 2.7451853-.24808917 3.4258497-.16816783.6838826-.48951824 1.1440954-.96571626 1.3838566-.47619801.236543-1.29705683.3894108-2.46424148.4473397l.00166503.4473397 15.52638638-.0273553-.0033301-.4457305c-1.1671846-.0579289-1.9897085-.2043603-2.4642415-.4409032-.477863-.2349338-.7992134-.6935375-.9690463-1.3774201-.1714979-.6822735-.2580793-1.8247598-.2597444-3.4274588l-.0099901-5.5660001c-.0033301-1.3661561.0183153-2.41853081.061606-3.16195146.0466208-.74181152.1215471-1.33558255.2264438-1.78292225.1082268-.44412143.2830548-.8721515.5278139-1.29052676.3696362-.62434462.8441692-.93651692 1.4285941-.93651692.2447591-.00321827.4828581.06597456.715962.19792368.2281088.13355825.4662079.36205551.712632.69031917.3696362.50365945.6393708.85284187.8092036 1.04432901.1698329.19309627.3446608.36366465.5278139.51009599.2797247.23815207.6094003.42320266.9940217.55515178.3829565.13355826.7742381.19792368 1.1755098.19792368.6443659-.00160913 1.243776-.16252269 1.7949002-.49400463.5527893-.32665453.9823666-.77077596 1.2887317-1.33558255.3063652-.56319747.4578827-1.20363344.4578827-1.91487138-.00333-.71445621-.1881481-1.36776526-.5577844-1.95992717-.3696362-.5921619-.8774697-1.05720209-1.5235006-1.39833884-.6427008-.34113675-1.3453426-.50848685-2.1079255-.50848685z" fill="#fff" fill-rule="evenodd"/></mask><mask id="k" fill="#fff"><path d="m12.5350102 0c-2.1965223.0047143-4.21039809.52957329-6.03845096 1.57614838-1.82964109 1.0465751-3.27175404 2.46872295-4.32157415 4.2695864-1.05140834 1.79929203-1.57552428 3.76829893-1.57236217 5.91487792.00477904 2.0585786.51142445 3.9411566 1.52630349 5.6477341 1.01170259 1.7112917 2.40775687 3.0485821 4.18339814 4.0165855 1.77246481.9695748 3.74504665 1.4504336 5.91139255 1.4473061 1.6994062-.0031582 3.2669893-.3315879 4.7011611-.9853045 1.4341718-.655288 2.6618737-1.5950056 3.6846939-2.8144385.6162333-.7511454 1.1339963-1.5070052 1.5580537-2.262865.4240575-.752717.8687619-1.7537205 1.3341133-3.0014391l-.393881-.1728578c-.9068794 1.335719-1.9090526 2.2990081-3.0065197 2.8945816-1.097467.597145-2.4220509.8972889-3.9753399.9004317-2.4331686.0015715-4.2564568-.6600023-5.4746293-1.9925784-1.21817247-1.3294332-1.84552336-3.3565832-1.8788762-6.08144988l14.5465997-.02828581c-.1492937-1.15814692-.3637047-2.10886454-.641645-2.84429569-.2811167-.74014545-.6845272-1.46929087-1.2134078-2.19372198-.9974085-1.36243335-2.2822867-2.41529418-3.8514581-3.16801111-1.5612302-.74800262-3.2479305-1.12200393-5.0569247-1.12200393zm-2.85087311 2.72172383c.64164501-1.43629075 1.56123021-2.15600756 2.76510861-2.15758718.7321741-.00156325 1.3102899.22315183 1.7375238.67101054.4240574.44943015.7559975 1.16600409.9926438 2.15286469.1159408.60814499.200117 1.30900459.2445874 2.1072931.0444705.79828852.0698822 1.90772098.0714704 3.32515452l-6.76750135.01100004c-.00471188-2.63686639.31293414-4.67501639.95616734-6.10973571z" fill="#fff" fill-rule="evenodd"/></mask><g fill="none" fill-rule="evenodd"><path d="m67.9581334.15248169v1.20618824c2.7002939.40206274 4.764284.92505842 6.1967667 1.56741648 1.4276865.64392861 2.7594477 1.72918392 3.98729 3.25262479 2.1247428 2.57257334 3.7202983 5.9052966 4.7850678 10.0013108 1.0599733 4.0975848 1.592358 9.0841051 1.592358 14.9469966v18.077118l-43.7978389-49.05165491h-39.99280668v1.20618824c2.69869509.07852788 4.96892438.38321605 6.81068785.90464117 1.83856597.52299568 3.69791573 1.3852318 5.58124683 2.59142004 1.8801335 1.28628667 3.2710486 2.57100279 4.1711466 3.8557189.9000979 1.28628668 1.5332041 2.97306556 1.9009173 5.06033656.3677132 2.0904122.5531686 4.9833793.5531686 8.6789013v21.8134745c0 8.1135006-.5947362 14.5606395-1.7794122 19.3414168-1.1862747 4.7823479-3.1495434 8.396201-5.8914048 10.8478414-2.73866394 2.4500698-6.51971482 4.0771675-11.34635018 4.8797224v1.2061883h38.88966718v-1.2061883c-3.5987931-.3203937-6.3774258-1.0444208-8.3422933-2.1705106-1.9616699-1.1229487-3.7618658-2.9699244-5.3973902-5.5424977-1.6371231-2.6495307-2.802614-5.9665484-3.4964728-9.9416296-.6954576-3.9766519-1.0439857-9.1013813-1.0439857-15.364765v-34.3480947l64.7782747 72.5503377v-48.2082655c0-6.5869186.4476508-12.0697351 1.3477488-16.4500203.9000979-4.3755734 2.2894143-8.1323472 4.1727454-11.26875075 1.5523891-2.48933379 3.2070985-4.21537659 4.9673256-5.17969896 1.7570295-.96746348 4.313436-1.64751492 7.667619-2.04957766v-1.20618824z" fill="url(#b)" mask="url(#g)" transform="translate(30 224)"/><path d="m13.2143875 0c-2.3205619.00314308-4.44595177.51389347-6.38278569 1.53225117-1.93683391 1.01678617-3.45685984 2.39974107-4.56834779 4.13786394-1.11148795 1.74126595-1.66392392 3.6726882-1.66063069 5.78640909.00497677 2.1168639.56402874 4.0451431 1.68213269 5.7816944 1.11644995 1.7381229 2.64143788 3.1132201 4.58323379 4.1221485 1.94014191 1.0136431 4.06883979 1.5165358 6.38774769 1.511854 2.3189079-.0031759 4.4442978-.5060686 6.3811317-1.511854 1.9351799-1.0026423 3.4667839-2.3667387 4.5931578-4.0922893 1.12472-1.7255505 1.6854259-3.6192558 1.6821325-5.6795443-.0033226-1.8261291-.3490085-3.44795803-1.0370725-4.86862989-.689718-1.41595724-1.7383539-2.69047591-3.1425999-3.82041293-1.2537319-.98378383-2.5752779-1.71140669-3.9629838-2.19072629-1.3843979-.46989036-2.8895379-.70876439-4.5269978-.70876439zm-2.3883759 21.0067707c-.91631593-1.2163717-1.37943591-4.4034541-1.39103688-9.5643904-.00163103-2.14515164.08603097-4.0137123.26631696-5.6103966.17863199-1.59196968.42177002-2.70933438.72610592-3.34737949.607018-1.27609021 1.536566-1.91884993 2.7886439-1.91884993 1.035404 0 1.8607499.41645801 2.4743839 1.25723173.916316 1.27294713 1.3794359 4.50560422 1.3893599 9.69325669.003308 2.0885762-.084354 3.9351353-.2646399 5.5459634-.180286 1.6076851-.423424 2.7171921-.726106 3.3285211-.610326 1.2760902-1.5382199 1.9125637-2.7886439 1.9157068h-.004962c-1.0354039 0-1.8574419-.4321734-2.4694219-1.2996633z" fill="url(#c)" mask="url(#h)" transform="translate(31.205217 308.466831)"/><path d="m7.55682468 0c-.83282176.00154606-1.59247974.21026352-2.28053061.62306028-.68960755.41588887-1.2422276.96628455-1.65630347 1.65118704-.41563254.68335644-.62267047 1.44092353-.62112251 2.26651705.00156539.83023169.21171668 1.59089089.62890589 2.28970787.41563255.69727094.97759265 1.25385084 1.68276696 1.66355549.70517432.41434281 1.47261568.61996817 2.30543744.61691041.80324491-.00158041 1.55667619-.20875182 2.26029382-.62464069.702061-.41279676 1.2609077-.96473849 1.6780969-1.64964099.4140759-.68335643.6211138-1.42546297.6180351-2.2263196-.003148-.85342252-.2039592-1.62954227-.6055817-2.32835926-.4047358-.69881699-.9573558-1.25230478-1.66097345-1.66510154-.70206096-.41125071-1.48195573-.61687606-2.34124099-.61687606zm-.79857488 20.6784894c-2.23850036.6586196-4.30420966 1.201285-6.19868458 1.6326344l.08717386.4313494c.71607105.054112 1.29359792.1731582 1.72479722.3602309.42964263.1824345.78767815.476185 1.07721992.8750673.34558212.4560863.57597019.9894754.69272091 1.6032593.11519403.6106919.17434773 1.5723382.17746108 2.8849392l.01245341 7.0159989c.00311335 1.539871-.06693708 2.6375703-.21015128 3.2961898-.14321421.6555275-.42341593 1.0976993-.83904847 1.3280615-.41563254.2288162-1.1114668.3725993-2.08750277.4313494v.4251652l13.9135718-.0216447v-.4298034c-.9775927-.0541119-1.6749836-.194803-2.0906162-.4220731-.4156325-.2303622-.6973909-.6787183-.8421618-1.3466141-.1447709-.669442-.2179346-1.760957-.221048-3.2729991l-.0280202-16.471673c-1.206424.4622706-2.92810787 1.0173044-5.1681649 1.6805621z" fill="url(#d)" mask="url(#i)" transform="translate(57.72 289.205986)"/><path d="m19.3008734 0c-1.4735498.00321827-2.7639465.54388784-3.8661951 1.63005437-1.1039135 1.08616653-2.1145855 2.81598731-3.032016 5.19428974l-.0116552-6.8146893c-2.6090989.92525298-4.6054675 1.58982598-5.98744076 1.99371902-1.38197326.40389304-3.31340577.88663372-5.80095764 1.45626773l.08991151.44251229c.76924295.05953801 1.38530332.18665973 1.84651608.37814687.45954773.19148713.84583424.49400463 1.15386442.91237988.36963622.47147674.61439534 1.02662852.73927244 1.66545536.12321208.6372177.18814817 1.64131832.1898132 3.00586531l.01498525 7.30386653c0 1.6010899-.08158637 2.7451853-.24808917 3.4258497-.16816783.6838826-.48951824 1.1440954-.96571626 1.3838566-.47619801.236543-1.29705683.3894108-2.46424148.4473397l.00166503.4473397 15.52638638-.0273553-.0033301-.4457305c-1.1671846-.0579289-1.9897085-.2043603-2.4642415-.4409032-.477863-.2349338-.7992134-.6935375-.9690463-1.3774201-.1714979-.6822735-.2580793-1.8247598-.2597444-3.4274588l-.0099901-5.5660001c-.0033301-1.3661561.0183153-2.41853081.061606-3.16195146.0466208-.74181152.1215471-1.33558255.2264438-1.78292225.1082268-.44412143.2830548-.8721515.5278139-1.29052676.3696362-.62434462.8441692-.93651692 1.4285941-.93651692.2447591-.00321827.4828581.06597456.715962.19792368.2281088.13355825.4662079.36205551.712632.69031917.3696362.50365945.6393708.85284187.8092036 1.04432901.1698329.19309627.3446608.36366465.5278139.51009599.2797247.23815207.6094003.42320266.9940217.55515178.3829565.13355826.7742381.19792368 1.1755098.19792368.6443659-.00160913 1.243776-.16252269 1.7949002-.49400463.5527893-.32665453.9823666-.77077596 1.2887317-1.33558255.3063652-.56319747.4578827-1.20363344.4578827-1.91487138-.00333-.71445621-.1881481-1.36776526-.5577844-1.95992717-.3696362-.5921619-.8774697-1.05720209-1.5235006-1.39833884-.6427008-.34113675-1.3453426-.50848685-2.1079255-.50848685z" fill="url(#e)" mask="url(#j)" transform="translate(72.182609 307.263028)"/><path d="m12.5350102 0c-2.1965223.0047143-4.21039809.52957329-6.03845096 1.57614838-1.82964109 1.0465751-3.27175404 2.46872295-4.32157415 4.2695864-1.05140834 1.79929203-1.57552428 3.76829893-1.57236217 5.91487792.00477904 2.0585786.51142445 3.9411566 1.52630349 5.6477341 1.01170259 1.7112917 2.40775687 3.0485821 4.18339814 4.0165855 1.77246481.9695748 3.74504665 1.4504336 5.91139255 1.4473061 1.6994062-.0031582 3.2669893-.3315879 4.7011611-.9853045 1.4341718-.655288 2.6618737-1.5950056 3.6846939-2.8144385.6162333-.7511454 1.1339963-1.5070052 1.5580537-2.262865.4240575-.752717.8687619-1.7537205 1.3341133-3.0014391l-.393881-.1728578c-.9068794 1.335719-1.9090526 2.2990081-3.0065197 2.8945816-1.097467.597145-2.4220509.8972889-3.9753399.9004317-2.4331686.0015715-4.2564568-.6600023-5.4746293-1.9925784-1.21817247-1.3294332-1.84552336-3.3565832-1.8788762-6.08144988l14.5465997-.02828581c-.1492937-1.15814692-.3637047-2.10886454-.641645-2.84429569-.2811167-.74014545-.6845272-1.46929087-1.2134078-2.19372198-.9974085-1.36243335-2.2822867-2.41529418-3.8514581-3.16801111-1.5612302-.74800262-3.2479305-1.12200393-5.0569247-1.12200393zm-2.85087311 2.72172383c.64164501-1.43629075 1.56123021-2.15600756 2.76510861-2.15758718.7321741-.00156325 1.3102899.22315183 1.7375238.67101054.4240574.44943015.7559975 1.16600409.9926438 2.15286469.1159408.60814499.200117 1.30900459.2445874 2.1072931.0444705.79828852.0698822 1.90772098.0714704 3.32515452l-6.76750135.01100004c-.00471188-2.63686639.31293414-4.67501639.95616734-6.10973571z" fill="url(#f)" mask="url(#k)" transform="translate(93.876522 308.466831)"/></g></svg>