<svg height="600" viewBox="0 0 160 600" width="160" xmlns="http://www.w3.org/2000/svg" xmlns:xlink="http://www.w3.org/1999/xlink"><mask id="a" fill="#fff"><path d="m0 0h80.6v63.7h-80.6z" fill="#fff" fill-rule="evenodd"/></mask><path d="m75.7919818 60.0920569c-.5342242 0-1.2344912-.1037014-2.1008007-.3139847-.8663096-.2074027-1.7687154-.48538-2.7072175-.8310511l-.2165774-4.2992856h.2165774c.4475933 1.0370136.9601598 1.9444005 1.5376995 2.7221607s1.1810687 1.3783639 1.8091432 1.8032514c.6266306.4263278 1.2445981.6394917 1.8510148.6394917.4909088 0 .8807481-.1454699 1.169518-.4335293.2887698-.286619.4331547-.6625364.4331547-1.121991 0-.3183056-.0649732-.591962-.1949196-.8224094-.1299464-.2304475-.3436361-.4349696-.6381814-.6150067-.2959891-.1800371-.6973792-.3629548-1.2027265-.5516336l-1.0612292-.3888801c-.9240636-.329828-1.667646-.6740588-2.2307472-1.0269315-.5631012-.3514324-.9745983-.7359916-1.2344912-1.1536776-.2598928-.4176861-.3898393-.8944243-.3898393-1.427334 0-.6625365.2021389-1.2645805.6064167-1.8046917.4042778-.5401113.9601598-.9649988 1.667646-1.2732223.7074861-.3096638 1.5016033-.4652158 2.3823513-.4652158.5631013 0 1.1478602.0518507 1.754277.1512312.6064167.1008207 1.2994643.2606937 2.079143.4752979l.2165774 3.5431297h-.2165774c-.3032084-.7345513-.6814969-1.3970877-1.1363094-1.9876094-.4548126-.5905216-.9356144-1.0542971-1.4409617-1.3942071-.5053472-.3370294-.9818175-.5055441-1.4294108-.5055441-.2743313 0-.527005.0648133-.7580209.1929997-.2310158.1296267-.4158286.3053429-.5515504.5300292-.1386095.223246-.2064704.4637755-.2064704.7244692 0 .8627377.6786091 1.5180727 2.0358275 1.9645646l1.4727263.4752979c1.1550794.3759174 1.992512.82529 2.5122978 1.349558.5197857.5271486.7796786 1.1709612.7796786 1.9343184 0 .7503945-.2050266 1.4201325-.6165237 2.0106541-.411497.5905216-.9818175 1.0542972-1.7109614 1.3913266-.7305877.33991-1.5564695.5084247-2.4805331.5084247zm-10.2657686-6.9782373c0-.7057453-.0101069-1.2559387-.0317647-1.6520202-.0216577-.3975219-.0620855-.7460737-.1198395-1.048536-.1155079-.4897009-.2786629-.8468944-.4865772-1.0687001-.2093581-.223246-.4952403-.3341488-.8562026-.3341488-.5919782 0-1.0467908.3557532-1.3644376 1.0687001-.3176469.7129468-.4764703 1.7240351-.4764703 3.034705zm-1.6243305 6.9782373c-1.0684485 0-2.0387152-.2405296-2.912244-.7230289-.8735289-.4824994-1.5608011-1.1493568-2.0574853-1.9991318-.498128-.8483347-.7479139-1.7859678-.7479139-2.8085785 0-1.0658195.2598928-2.0452212.7796786-2.9382051.5197857-.8929839 1.2316035-1.5987293 2.1340093-2.1172361s1.8943303-.7777602 2.9772173-.7777602c.8951865 0 1.7297314.1872386 2.5021908.5617157.7710155.3759174 1.4034215.9001854 1.8943303 1.5771248.2598929.3615145.4591441.7244693.5963098 1.0917449.1371657.3658353.2411228.8396929.3133153 1.4143713h-7.1687119c.0144385 1.3538789.3205346 2.3635268.9211759 3.0260633.5977536.6625364 1.4972717.9923644 2.6956667.9923644.7652401 0 1.4193038-.1483506 1.9607473-.4436114.5414435-.2938205 1.03524-.7734393 1.4828333-1.4359758l.1949196.0864178c-.2310159.6207679-.450481 1.1162299-.6598391 1.4907071-.2093582.3759174-.4663633.7503945-.7695717 1.1234314-.5053473.6049246-1.111764 1.0701404-1.8192501 1.3942071-.7074862.3240668-1.4799456.48538-2.3173782.48538zm-12.2553929-5.5509033c.4764703 0 .8186626-.1987609 1.0280207-.5962828.2093582-.3946413.3147592-1.0542972.3147592-1.976087 0-.9938047-.1198395-1.7355575-.3580747-2.2252584-.2382351-.4882605-.6020851-.7331109-1.0929939-.7331109-.4634756 0-.8027802.2030818-1.0179138.6135663-.2165774.4119249-.3263099 1.0571778-.3263099 1.9343184 0 1.0226107.1169518 1.7758858.3479677 2.2583852.229572.4824994.5991974.7244692 1.1045447.7244692zm.6930477 8.7699663c.6352937 0 1.2012826-.0864178 1.6994106-.2578131.498128-.1728356.8836358-.4148054 1.159411-.7244692.2743314-.3096638.4100532-.6668574.4100532-1.0687001 0-.5055442-.2122458-.8944242-.6381814-1.1680806-.4259355-.2722161-1.0280207-.4104846-1.8076993-.4104846l-1.169518.0432089c-.6641706.0302463-1.0612292.0432089-1.1911756.0432089-.2887699 0-.5674328-.010082-.8345449-.0316865-.2671122-.0230447-.5587697-.0547313-.8764166-.0964999-.0866309 0-.181925.0633731-.2815506.1929998-.1010694.1296267-.1877004.2894996-.2598929.4752979-.0721924.1872386-.1082887.3672756-.1082887.5401112 0 .4752979.1645989.9001854.498128 1.2746626.3320854.3744771.7941172.6668573 1.3860954.8757003.5905343.2074027 1.2633681.3125444 2.0141698.3125444zm-1.1911757.3888801c-.9832614 0-1.8336886-.0864178-2.5556133-.2592534-.7219246-.1728356-1.2778066-.417686-1.6676459-.7345513-.3898394-.3168653-.584759-.6913424-.584759-1.1234314 0-.403283.1905881-.7777602.5732082-1.1234314.38262-.3442309.9428336-.6466932 1.6791967-.9073869-.766684-.1728356-1.3499991-.4464919-1.7542769-.8195288-.4042778-.3759174-.6064167-.835372-.6064167-1.384125 0-.5761187.2021389-1.1090285.6064167-1.5987293.4042778-.4882606 1.0395715-.9649988 1.9058811-1.4258937-.680053-.2304475-1.1955072-.5516336-1.5492503-.9606779-.3537431-.4104845-.5298927-.9045063-.5298927-1.4806249 0-.5185068.1949196-1.0038868.584759-1.4575802.3883954-.4536935.938502-.8324915 1.6459882-1.1349538.4028339-.1872386.8013363-.3211862 1.1911756-.3989622.3898394-.0792163.8879674-.1339476 1.4943841-.1627535v-.4104845c0-.6913424.1082887-1.2919461.3248661-1.8046917.2165774-.5098651.527005-.9073869.9312828-1.1868045.4028339-.2808578.8735288-.4220069 1.4077531-.4220069.3609623 0 .6887161.0806566.9847052.2376489.2959891.1584327.5298927.3744772.7045984.6481335.173262.2750967.2598929.577559.2598929.9073869 0 .3024623-.0693047.5804396-.2064704.8310512-.1371657.2534922-.3205346.4551337-.5515505.6049246-.2310159.1526714-.4851333.2275669-.7594647.2275669-.2440105 0-.4649195-.0504104-.6598391-.1512312-.1949197-.0993805-.4071655-.2664549-.6381814-.4969023-.2165774-.2304475-.3797324-.3802383-.4880211-.4536935-.1082887-.0720148-.2194651-.1065819-.334973-.1065819-.2598929 0-.4475933.1065819-.5631013.3226264-.1155079.2174848-.1747057.5703575-.1747057 1.0600584v.1929997h.4779141c.4475933.014403.9312828.1022611 1.4510685.2592534.5197858.1584326 1.0034753.3672757 1.4510686.6279693.4187163.2578131.7421385.5645963.9745983.9160287.2310159.3528727.3465238.7244692.3465238 1.1133493 0 .5761187-.2209089 1.1090284-.661283 1.5987293-.440374.4897009-1.0395715.8757004-1.7975924 1.1565582-.7580208.2808579-1.5911219.4205666-2.500747.4205666-.4331548 0-.8533149-.0331268-1.2561489-.0979401-.4057216-.0633731-.8446518-.1685147-1.3211221-.3111041-.1732619.1425894-.2959891.2722161-.3681816.3874398-.0736363.1152237-.1082886.2592534-.1082886.432089 0 .2880593.0822994.5185068.248342.6913424.1660427.1742759.4302671.2967011.7912295.3672756.3609623.0720149.8590903.1094626 1.494384.1094626.3306415 0 .8229941-.0230448 1.4712824-.0648134.7219247-.0302462 1.2056142-.0446492 1.4525124-.0446492.7652402 0 1.4510686.1339476 2.0574853.4004025s1.0785554.6366111 1.41786 1.111909.5096788 1.0154092.5096788 1.6203337c0 .7921632-.3003206 1.5166324-.8995181 2.1719674-.5991974.655335-1.41786 1.1695209-2.4574315 1.543998s-2.1874317.5617157-3.4435806.5617157zm-19.3634631-4.1048455c.5486627-.0273656.9356144-.1008207 1.159411-.2160445.2237966-.1152237.3754008-.3370294.4548125-.6697379.0794117-.3298279.1198395-.8857824.1198395-1.6635426v-3.5431298c0-.6610962-.028877-1.1479164-.0866309-1.4575802-.057754-.3096638-.173262-.5789993-.3465239-.8094467-.1443849-.2030818-.3248661-.3514324-.5414435-.4436114-.2180212-.0936193-.5067911-.1541117-.8663096-.184358l-.0433154-.2146042c.9529405-.2174848 1.868341-.4508128 2.7505329-.704305.8807481-.2506116 1.8697849-.5717978 2.9656665-.9606779v2.0524227c.5067911-.5185068.9644913-.9246704 1.3759884-1.2199312.411497-.2967011.8186625-.5084247 1.2243842-.6380514.4042778-.1296267.8518711-.1944401 1.341336-.1944401.4909088 0 .9312828.0792163 1.3211221.237649.3912832.1598729.6872723.3816786.8894112.6697379.1877004.2304475.316203.5199471.3898393.864178.0721925.3456712.1068449.8065661.1068449 1.3826848v5.5969928c-.0129947.6178872.0086631 1.0658195.066417 1.3380356.0563101.2750966.1718181.4623352.3465239.5617156.1732619.1008208.4678071.1728356.8879673.2160445v.2174848h-6.1507981v-.2174848c.316203-.0432089.5443312-.1195446.6814969-.2261265.1371657-.1080223.2310159-.2995817.2815506-.5717978.0505347-.2750967.0678609-.7143871.0548663-1.3178714v-4.083241c0-.8497751-.0158824-1.4316549-.0433155-1.7398784-.0303208-.3096638-.095294-.5588351-.1949196-.7460737-.086631-.1569923-.2165774-.2880593-.3898394-.3888801-.1747057-.1008207-.3609623-.1512311-.564545-.1512311-.5183419 0-1.0597854.2520519-1.6243305.7561557v6.3531486c-.0129947.6034843.0043315 1.0427747.0548663 1.3178714.0505347.2722161.1443849.4637755.2815506.5717978.1371657.1065819.3652938.1829176.6829407.2261265v.2174848h-6.5853967zm-6.9940061-.9722002c.4042778 0 .7219247-.1440297.9529406-.4306487.2310159-.2894996.3465238-.6855812.3465238-1.189685v-3.3486897c-.6641707.2174848-1.1810687.4464919-1.5492503.6913423-.3681816.2462908-.6280744.5444322-.7796786.8973049-.1516042.3528726-.2266844.8094467-.2266844 1.3711624 0 .6481335.1082887 1.1450358.3248661 1.490707s.5255612.5185068.9312828.5185068zm-2.5989287 1.4691026c-.6064167 0-1.1420848-.1008208-1.6026727-.3024623-.4620318-.2016415-.8229942-.4824994-1.082887-.8425735-.2598929-.3600742-.3898393-.7705588-.3898393-1.2300134 0-.4335293.0967379-.810887.2916575-1.136394.1949197-.3226265.5197858-.6322903.9745983-.9275511s1.0857747-.6092455 1.8957741-.9390734c.9818176-.4335293 2.252405-.8728198 3.8117622-1.3178714v-1.1248717c0-.733111-.0216577-1.2847446-.0649732-1.6520203-.0433155-.3672756-.1227272-.6380514-.2382351-.810887-.2310159-.3456712-.5573259-.5185068-.9745983-.5185068-.3176469 0-.6107483.0763357-.8778604.2261266-.2671121.1526714-.4649195.364395-.5948659.6394917-.1010695.1857983-.1703742.3730368-.2064705.5602754-.0360962.1872386-.0967379.626529-.1833688 1.3178714-.086631.6769395-.3364169 1.2170507-.747914 1.6203338-.411497.4047233-.9269512.6049246-1.5478064.6049246-.4490372 0-.8128872-.1397088-1.0944378-.422007-.2815506-.2794175-.421604-.6438126-.421604-1.0903045 0-.460895.1617111-.8886631.4865772-1.2847446.3248661-.3975219.8201064-.7734393 1.4842771-1.1349538.8229941-.4608949 1.8004801-.8425735 2.9339018-1.1450358s2.155667-.4536935 3.0652921-.4536935c.4331548 0 .8085556.0475298 1.1262024.1411491.3176469.092179.5991975.247731.8446519.4637755.3176468.2448504.5371119.5473127.6598391.9073869s.1848127.849775.1848127 1.4705429v4.9675831c0 .4176861.010107.7172678.0317647.8973048.0216578.1800371.0620855.3341489.1198395.4637756.0563101.1440296.1588234.2563728.3032084.3355891.1429411.077776.3104276.1195446.498128.1195446.1299464 0 .2555613-.0187239.3782885-.0547313s.2858822-.1123431.4880211-.2275668l.1299464.1512311c-.7508016.6193276-1.4048654 1.0629389-1.9607474 1.3293938-.5558819.2650146-1.101657.3989622-1.6344374.3989622-.6064167 0-1.0872185-.1656341-1.4409616-.4969024-.3537431-.3312682-.6020851-.849775-.7464701-1.5555203-.5197857.7201483-1.0872185 1.242976-1.7008545 1.5670427-.6136359.3240668-1.3456675.48538-2.1975386.48538zm-13.86095338-7.6911841c1.01069451 0 1.74272608-.2650146 2.19753868-.7993647.4548125-.5329097.6814968-1.3884459.6814968-2.5709295 0-1.1090284-.2223528-1.9588034-.669946-2.5493251-.2165774-.286619-.4952404-.4969023-.83454494-.626529-.33930459-.1296267-.79844867-.1944401-1.37454454-.1944401h-.60786056v6.7405884zm-8.33101052 7.1942817c.47502642-.0273656 2.27406266-.0864178 2.50507855-.1728356.22957204-.0849775.4187163-.2304474.56310123-.4320889.1140641-.1584327.19780736-.3269474.24834208-.5069845.05053473-.1800371.08663096-.4464919.1082887-.7993646s.03320854-.8757004.03320854-1.5670428v-7.0214461c0-.6913424-.0115508-1.2141701-.03320854-1.5670428-.02165774-.3514324-.05775397-.6178873-.1082887-.7979243-.05053472-.1800371-.13427798-.3499921-.24834208-.5084248-.14438493-.2016415-.33352919-.3456712-.56310123-.432089-.23101589-.0864178-2.03005213-.1425893-2.50507855-.1728356v-.2160445h7.50801641c1.58823424 0 2.84727079.0763358 3.77855369.2275669.9312828.1497909 1.7513892.4061637 2.4588753.7662378.6208552.3168653 1.1103201.7316707 1.4727263 1.242976.3595185.5113054.5414435 1.0470957.5414435 1.6088114 0 .7936035-.3291976 1.451819-.9861491 1.9775273-.6569514.5257083-1.5839027.8742601-2.7822976 1.0470957.5342243.0864178.9659352.2131639 1.2980205.378798.3320854.1656341.6352937.4133651.911069.7460737.2728875.3298279.5847589.8123273.9312828 1.4460578l1.2344911 2.354885c.3754008.7057454.6786092 1.2141701.9096251 1.5238339.229572.3096638.4836895.5213874.7580209.6366111.2743313.1152237.6641707.19444 1.1695179.2376489v.2174848h-6.3457177c-.6222991-1.4705428-1.1160955-2.6155787-1.4842771-3.4365478-.3681816-.8195288-.6973792-1.4820652-.9847052-1.9876094-.3320854-.6193275-.6757215-1.0614986-1.02946458-1.3279535-.35374308-.2664548-.76812783-.4004024-1.24604195-.4004024h-.38983931v3.4567119c0 .6913424.01155079 1.2098492.03320853 1.5555204.02165774.3471115.05775397.6121261.1082887.7993647.05053472.1872385.13283413.3600741.24834208.5185068.15882342.2016415.35085538.3471114.57465202.4320889.22379665.0864178.57465203.14547 1.04967845.1728356v.2174848h-9.73731974zm47.0434982-21.1925249c.4909088-.0273656.8403203-.0993805 1.0496784-.2160445.2093582-.1137834.3508554-.3370294.4230479-.6697379.0721925-.329828.1082887-.8843422.1082887-1.6621024v-8.8794288c0-.6481335-.028877-1.1277523-.086631-1.4374161-.0577539-.3096638-.1732619-.5804395-.3465238-.810887-.1443849-.2146042-.3248661-.3701562-.5414435-.4637755s-.5053472-.1483506-.8663096-.1613132l-.0433155-.237649c.9529406-.2030818 1.9953998-.4508128 3.1288215-.7460736 1.1348656-.2952609 1.9968436-.5516337 2.5888218-.7662379v13.5027811c0 .761917.0360962 1.3135506.1082887 1.6520203s.2136897.5660366.4230479.67982c.2093581.116664.5587696.1886789 1.0496784.2160445v.2174848h-6.9954499zm-7.4286047 0c.4909088-.0273656.8403203-.0993805 1.0496785-.2160445.2093581-.1137834.3508553-.3370294.4230478-.6697379.0721925-.329828.1082887-.8843422.1082887-1.6621024v-8.8794288c0-.6481335-.028877-1.1277523-.086631-1.4374161-.0577539-.3096638-.1732619-.5804395-.3465238-.810887-.1443849-.2146042-.3248661-.3701562-.5414435-.4637755s-.5053472-.1483506-.8663096-.1613132l-.0433155-.237649c.9529406-.2030818 1.9953998-.4508128 3.1288215-.7460736 1.1348656-.2952609 1.9968436-.5516337 2.5888218-.7662379v13.5027811c0 .761917.0360962 1.3135506.1082887 1.6520203s.2136897.5660366.4230479.67982c.2093581.116664.5587696.1886789 1.0496784.2160445v.2174848h-6.9954499zm-8.5114917-5.5509033-2.2307472-5.3593438-1.992512 5.3593438zm-9.399459 5.5509033c.5919782-.0576119 1.1839565-.315425 1.7759347-.7777602.5919782-.4608949 1.1507479-1.0874239 1.6791967-1.8781468.5255612-.7921632.977486-1.7081918 1.3528868-2.7452054l2.1874317-5.7669478c-.2310159-.432089-.5125665-.8065661-.8446518-1.1248717.5053472-.2290072 1.0973255-.6366111 1.7759346-1.2199313.6786092-.5833201 1.3139029-1.242976 1.9058811-1.976087.4331548 1.1810433.8085556 2.1532435 1.1262025 2.9166007l2.7938484 6.7175436c.8085556 1.8882289 1.4120846 3.2061004 1.8076993 3.9536143.3970586.7503946.7623525 1.2458566 1.0944378 1.4907071.3320853.2448504.7941171.3831189 1.3860953.4104845v.2174848h-8.728069v-.2174848c.5197857-.0273656.9067373-.1397088 1.159411-.3341488.2512297-.1944401.3782885-.4868203.3782885-.8742601 0-.5473127-.3032084-1.5353562-.9096251-2.9598096l-.4764703-1.1234314h-4.3748634c-.1877004.5329098-.3248661.9966853-.411497 1.3927669-.086631.3960816-.1299465.8036855-.1299465 1.2199312 0 .7936035.1877005 1.4258937.5631013 1.9011916s.9024058.7345513 1.581015.7777602v.2174848h-6.6922416zm50.6357953-22.4153368c-.5342242 0-1.2344912-.1037013-2.1008007-.3125443-.8663096-.2088431-1.7687154-.4868203-2.7072175-.8324915l-.2165774-4.2978452h.2165774c.4475933 1.0355733.9601598 1.9429602 1.5376995 2.7207204s1.1810688 1.3798042 1.8091432 1.8046917 1.2445981.6380514 1.8510148.6380514c.4909088 0 .8807481-.14547 1.169518-.4335293.2887698-.286619.4331547-.6610962.4331547-1.1219911 0-.3168653-.0649732-.5919619-.1949196-.8224094s-.3436361-.4364099-.6381814-.616447c-.2959891-.180037-.6973792-.3615144-1.2027265-.548753l-1.0612292-.3903204c-.9240636-.3298279-1.667646-.6726185-2.2307472-1.0254912s-.9745983-.7374319-1.2344912-1.1565582c-.2598928-.41768603-.3898393-.89298393-.3898393-1.42589369 0-.66253646.2021389-1.26458046.6064167-1.8046917.4042778-.54011125.9601598-.96355846 1.667646-1.27322224.7074861-.30966378 1.5016033-.46521582 2.3823513-.46521582.5631013 0 1.1478602.05041038 1.754277.15267145.6064167.09938046 1.2994643.2578131 2.079143.47385759l.2165774 3.54312977h-.2165774c-.3032084-.7345513-.6814969-1.39708776-1.1363094-1.98760938-.4548126-.58908133-.9356144-1.05429715-1.4409617-1.39276686-.5053472-.33846972-.9818175-.50698443-1.4294108-.50698443-.2743313 0-.527005.06481335-.7580209.19299976-.2310158.12962669-.4158286.30678318-.5515504.53002916-.1386095.22324598-.2064704.46377553-.2064704.72302892 0 .86417799.6786091 1.51951297 2.0358275 1.96744523l1.4727263.4738576c1.1550794.37591742 1.992512.82528998 2.5122978 1.34955794.5197857.5271486.7796786 1.1724015.7796786 1.9343184 0 .7503946-.2064705 1.4186922-.6165237 2.0106541-.411497.5905217-.9818175 1.0542972-1.7109614 1.3913266-.7305877.33991-1.5564695.5084247-2.4805331.5084247zm-11.0454472 0c-.5342243 0-1.2344912-.1037013-2.1008008-.3125443-.8663095-.2088431-1.7687154-.4868203-2.7072174-.8324915l-.2165774-4.2978452h.2165774c.4475933 1.0355733.9601598 1.9429602 1.5376995 2.7207204s1.1810687 1.3798042 1.8091432 1.8046917c.6280744.4248875 1.2445981.6380514 1.8510148.6380514.4909088 0 .8807481-.14547 1.1695179-.4335293.2887699-.286619.4331548-.6610962.4331548-1.1219911 0-.3168653-.0649732-.5919619-.1949196-.8224094-.1299465-.2304475-.3436362-.4364099-.6381814-.616447-.2959891-.180037-.6973792-.3615144-1.2027265-.548753l-1.0612292-.3903204c-.9240636-.3298279-1.667646-.6726185-2.2307472-1.0254912-.5631013-.3528727-.9745983-.7374319-1.2344912-1.1565582-.2598929-.41768603-.3898393-.89298393-.3898393-1.42589369 0-.66253646.2021389-1.26458046.6064167-1.8046917.4042778-.54011125.9601598-.96355846 1.667646-1.27322224.7074861-.30966378 1.5016032-.46521582 2.3823513-.46521582.5631013 0 1.1478602.05041038 1.7542769.15267145.6064167.09938046 1.2994644.2578131 2.079143.47385759l.2165774 3.54312977h-.2165774c-.3032083-.7345513-.6814968-1.39708776-1.1363094-1.98760938-.4548125-.58908133-.9356143-1.05429715-1.4409616-1.39276686-.5053472-.33846972-.9818175-.50698443-1.4294108-.50698443-.2743314 0-.527005.06481335-.7580209.19299976-.2310159.12962669-.4158286.30678318-.5515504.53002916-.1386095.22324598-.2064705.46377553-.2064705.72302892 0 .86417799.6786092 1.51951297 2.0358276 1.96744523l1.4727263.4738576c1.1550794.37591742 1.992512.82528998 2.5122978 1.34955794.5197857.5271486.7796786 1.1724015.7796786 1.9343184 0 .7503946-.2064705 1.4186922-.6165237 2.0106541-.411497.5905217-.9818175 1.0542972-1.7109614 1.3913266-.7305878.33991-1.5564696.5084247-2.4805331.5084247zm-12.3665694-.2794175c.5919783 0 1.0323523-.3168653 1.3211222-.9520361.1443849-.3024623.2598928-.8526556.3465238-1.6520203.086631-.8008049.1299464-1.7168336.1299464-2.7552875 0-2.57669067-.2165774-4.18262144-.6497322-4.81779226-.2887698-.41768603-.6786091-.62508875-1.1695179-.62508875-.5919782 0-1.0323522.31542497-1.3211221.95059579-.1443849.31542497-.2598929.86993918-.3465238 1.66210234-.086631.79360346-.1299465 1.7211545-.1299465 2.78841428 0 2.5622878.2165774 4.1466141.6497322 4.7515387.2887699.432089.6786092.6495738 1.1695179.6495738zm-.0216577.2794175c-1.0973255 0-2.1051323-.2520519-3.0205327-.7547154-.9182882-.5055441-1.6402129-1.189685-2.165774-2.0524227-.5284489-.8656183-.7912294-1.8234156-.7912294-2.8733919 0-1.05285681.2627805-2.01065409.7912294-2.87483208.5255611-.86417799 1.2474858-1.5483189 2.165774-2.05098243.9154004-.50554413 1.9232072-.75759604 3.0205327-.75759604.7796786 0 1.4987156.11810433 2.155667.35575327.6569515.23764895 1.2806944.602044 1.8726726 1.09174487.6641707.56171569 1.159411 1.19544622 1.4842771 1.90119158.3248661.70718565.4865772 1.51231148.4865772 2.41969833 0 1.0226107-.2671121 1.9616841-.8013364 2.8201009-.5342242.8569765-1.2604804 1.5339159-2.1758809 2.029378-.9182881.4983426-1.9246511.7460736-3.0219766.7460736zm-16.7630905-.4969023c.5486628-.0273657.9356144-.0993805 1.159411-.2160445.2237967-.1137834.3754008-.3384697.4548126-.669738.0779678-.3312682.1183956-.8843421.1183956-1.6621023v-3.54312975c0-.66253646-.028877-1.14935673-.086631-1.45902051-.0577539-.30966378-.1732619-.57899925-.3465238-.80944672-.1443849-.20308183-.3248661-.34999209-.5414435-.44361137-.2165774-.09505958-.5053472-.15555204-.8663096-.18435797l-.0433155-.2146042c1.169518-.27509666 2.0791431-.50842472 2.7288752-.70286477.6497322-.19444004 1.5882343-.5141859 2.8155062-.96211816v3.30548082c.4331548-1.15223733.9096251-1.99048998 1.4294108-2.51619825.5197858-.52570828 1.1262025-.78928257 1.8192501-.78928257.3609624 0 .6930477.08353721.9962561.24917132.3032083.16419382.5414435.39320099.7147054.67982002.1732619.28805933.2598929.60636489.2598929.95059579 0 .3456712-.0721925.65533498-.2165774.92899134-.144385.27365636-.3465239.48970086-.6064168.64957379-.2598928.15699234-.5414434.23764895-.8446518.23764895-.1877004 0-.3710693-.03312682-.5515504-.09938047-.1804812-.06481335-.3364169-.15267145-.4663634-.26933547-.0866309-.07201484-.1689303-.15411175-.2497859-.24773103-.0779679-.09361928-.2050266-.26357429-.3782885-.50842472-.115508-.15843263-.2266844-.26933547-.3349731-.33414882s-.2209089-.09649988-.3364168-.09649988c-.2743314 0-.4981281.14979086-.67139.45225315-.1155079.20308183-.1992512.41048455-.2483421.62796934-.0505347.2146042-.0866309.50266353-.1097325.8627377-.0202139.36007416-.0317647.87281977-.0317647 1.53535624v2.7005562c0 .7777602.0389839 1.3308341.1198395 1.6621023.0794117.3312683.2310159.5559546.4533687.669738.2252405.116664.6107482.1886788 1.159411.2160445v.2174848h-7.2986583zm-5.8909052.4969023c-1.05401 0-1.9953997-.2376489-2.8270569-.7129468-.8302134-.4738576-1.4828332-1.1291926-1.9593035-1.9645646-.4764703-.8368124-.7147054-1.7802067-.7147054-2.830183 0-1.08022245.2671121-2.06826596.8013363-2.96124988.5342243-.89298392 1.2676997-1.59728899 2.1989825-2.11723608.9312828-.51850679 1.9520843-.77776019 3.0638483-.77776019.8374326 0 1.6026727.15987293 2.2957204.4752979.6930476.31686526 1.2417104.74895425 1.6459882 1.29770728.4042778.54731273.6064167 1.14503584.6064167 1.79172903 0 .36007417-.0750802.6884618-.2266843.98372262-.1530481.29526081-.3652939.52570827-.6396253.69134239-.2743314.16563413-.5775397.24773103-.9096251.24773103-.3465238 0-.6569514-.0820969-.9312828-.24773103-.2743313-.16563412-.4909087-.39032039-.6497321-.66973794-.1588235-.28085785-.2382352-.602044-.2382352-.96211817 0-.15699233.0144385-.31686526.0433155-.47529789.028877-.15699234.086631-.36727565.1732619-.62508875.057754-.20308183.1010695-.37447713.1299465-.51994709.0288769-.14258937.0433154-.28085785.0433154-.41048455 0-.37447713-.1270587-.68414091-.3782885-.92899134-.2541175-.24341013-.5674328-.36583535-.9428336-.36583535-.4331548 0-.8273256.18003709-1.1810687.54011125s-.6352937.84545413-.8446519 1.45613991c-.2093581.61356638-.3133153 1.29482669-.3133153 2.04234065 0 .84977503.1516042 1.6001696.4548126 2.2468628.3032083.6481335.7363631 1.1493567 1.2994643 1.5022294.5631013.3528727 1.2128335.5285889 1.9491966.5285889.6208552 0 1.1911757-.1181044 1.7109614-.3557533.5197858-.237649 1.0323523-.6092455 1.5376996-1.1133493l.2598928.1296267c-.6208552 1.3826848-1.3832076 2.4124969-2.2841696 3.0894363-.9038496.6783797-1.9607473 1.0154091-3.1735808 1.0154091zm-13.1895634-6.04780561-2.2307472-5.35934384-1.99251203 5.35934384zm-9.399459 5.55090331c.59197821-.0576119 1.18395643-.3168653 1.77593465-.7777602.59197822-.4594546 1.1507479-1.087424 1.67919675-1.8795871.52556114-.7907229.97748598-1.7067516 1.3528868-2.7437652l2.1874317-5.76838805c-.2310159-.43064869-.5125665-.80512582-.84465184-1.12343138.50534724-.22900717 1.09732544-.63661112 1.77593464-1.22137156.6786092-.58187985 1.3139029-1.24153572 1.9058811-1.97608701.4331548 1.18248355.8085556 2.15324349 1.1262025 2.91804102l2.7938484 6.71898387c.8085556 1.88534831 1.4106407 3.20321971 1.8091432 3.95217401.3970585.7489543.7609085 1.2458566 1.0929939 1.490707.3320853.2448505.7941171.3831189 1.3860953.4104846v.2174848h-8.7280691v-.2174848c.5197858-.0273657.9067374-.1397088 1.1579672-.3341488.2526736-.1944401.3797324-.4868203.3797324-.8757004 0-.5473127-.3032084-1.5339159-.9096251-2.9583693l-.4764703-1.1248717h-4.37486339c-.18770041.53435-.32486609.9981256-.41149705 1.3942072-.08663096.3960815-.12994644.8036855-.12994644 1.2199312 0 .7936035.18770041 1.4258937.56310123 1.9011916s.90240582.7345513 1.58101495.7777602v.2174848h-6.6922415z" fill="#c6c0be" fill-rule="evenodd" mask="url(#a)" transform="translate(40 310)"/></svg>