<svg height="600" viewBox="0 0 160 600" width="160" xmlns="http://www.w3.org/2000/svg" xmlns:xlink="http://www.w3.org/1999/xlink"><mask id="a" fill="#fff"><path d="m0-.00036h86.57472v46.8216h-86.57472z" fill="#fff" fill-rule="evenodd"/></mask><path d="m80.61432 37.39944c0-3.132-.312-5.4948-.9336-7.0872-.2748-.678-.6876-1.2096-1.2372-1.5936-.5484-.384-1.1712-.576-1.8672-.576s-1.3188.192-1.8672.576c-.5496.384-.9528.9156-1.2096 1.5936-.6228 1.5756-.9336 3.9-.9336 6.9768s.3108 5.412.9336 7.0056c.2568.6768.66 1.2072 1.2096 1.5924.5484.3852 1.1796.5772 1.8948.5772.696 0 1.3188-.192 1.8672-.5772.5496-.3852.9528-.9156 1.2096-1.5924.3108-.8064.5448-1.7904.7008-2.9532.1548-1.1628.2328-2.4768.2328-3.942zm5.9604.0264c0 1.686-.4488 3.2508-1.3452 4.698-.8976 1.4472-2.1156 2.592-3.654 3.4332-1.5372.8424-3.2052 1.2648-4.9992 1.2648-1.1904 0-2.3352-.198-3.4344-.5916-1.098-.3936-2.1144-.9744-3.048-1.7436-2.3268-1.8684-3.4884-4.2672-3.4884-7.1976 0-1.446.2964-2.778.8916-3.996s1.4604-2.2752 2.5968-3.1728c1.9404-1.5564 4.1016-2.3352 6.4824-2.3352 2.436 0 4.6056.7788 6.51 2.3352 1.1724.9516 2.0472 2.028 2.6244 3.228.576 1.1988.864 2.5584.864 4.0776zm-22.1124-9.5856c-.2748.1092-.6276.1872-1.0572.2328-.4308.0468-1.0488.0696-1.854.0696h-9.258c-.9888 0-1.7076-.018-2.1552-.0552-.45-.0372-.8064-.1104-1.0728-.2196-.2652-.1104-.5352-.294-.81-.5496l-.7956 6.3996h.2736c.348-.8424.87-1.6476 1.566-2.4168s1.47-1.4148 2.3208-1.9368c.852-.522 1.6716-.8376 2.4588-.948v13.3512c0 .8964-.0132 1.5648-.0408 2.0052-.0276.4392-.078.774-.1512 1.002-.0732.2292-.192.444-.3576.6456-.2196.2568-.4932.4392-.8232.5496-.33.1092-.8424.1824-1.5384.2196v.2748h11.2344v-.2748c-.696-.0372-1.2084-.1104-1.5372-.2196-.33-.1104-.6048-.2928-.8256-.5496-.1644-.1824-.2832-.3936-.3564-.6312-.0732-.2388-.1236-.582-.1512-1.0308s-.0408-1.1124-.0408-1.9908v-13.3512c.7872.1104 1.6164.4308 2.4852.9612.87.5316 1.644 1.182 2.322 1.9512.6768.7692 1.1628 1.566 1.4556 2.3892h.2748l-.7416-6.3996c-.2748.2376-.5496.4116-.8244.522zm-43.2276.3024h-.3576v.2736c.1044.0072.1788.0204.2736.0288.03-.0072.0528-.0216.084-.0288zm0 0h-.3576v.2736c.1044.0072.1788.0204.2736.0288.03-.0072.0528-.0216.084-.0288zm12.0312 5.136c0-1.1712-.1236-2.1048-.3708-2.802-.2472-.696-.6408-1.2036-1.1808-1.524-.5412-.3204-1.2504-.4812-2.1288-.4812h-.7428v9.8064h.6876c.9336 0 1.6704-.1596 2.2104-.48s.93-.8424 1.1676-1.566.3576-1.7076.3576-2.9532zm4.7112-2.6916c.7044.7872 1.0572 1.7124 1.0572 2.7744 0 .8424-.2436 1.62-.7272 2.3352-.486.714-1.1592 1.29-2.0196 1.7292-.8616.4224-1.7952.7236-2.802.9072s-2.2896.2748-3.846.2748h-.7968v3.1596c0 .8784.0144 1.5372.042 1.9776.0276.4392.078.7824.1512 1.0296s.192.4632.3564.6456c.2208.2568.4944.4392.8244.5496.33.1092.8424.1824 1.5384.2196v.2748h-10.878v-.2748c.6048-.0372 1.0524-.1104 1.3464-.2196.2916-.1104.5304-.2928.714-.5496.1464-.2016.252-.4164.3156-.6456.0636-.228.1104-.5676.1368-1.0164.0276-.4488.042-1.1124.042-1.9908v-8.928c0-.8796-.0144-1.542-.042-1.992-.0264-.4476-.0732-.7872-.1368-1.0164s-.1692-.444-.3156-.6456c-.1836-.2556-.4224-.4392-.714-.5496-.2424-.09-.618-.15-1.0728-.1908.03-.0072.0528-.0216.084-.0288v-.2736h9.0372c1.794 0 3.3504.21 4.6692.6312s2.3304 1.026 3.036 1.8132zm-17.1-2.4444h-6.5928v.2736c.678.2388 1.1808.5412 1.5108.9072s.6132.9156.8508 1.6476c.4764 1.5204.7152 3.7632.7152 6.7296v2.4996c0 1.008-.0552 1.782-.1656 2.322-.1092.54-.3204 1.0392-.6312 1.4976-.3852.6036-.93 1.0668-1.6344 1.386-.7056.3216-1.5252.4812-2.4588.4812-.8796 0-1.6668-.1596-2.3616-.4812-.696-.3192-1.2-.7548-1.512-1.3044-.2376-.4392-.4032-.9984-.4944-1.6752s-.1368-1.7304-.1368-3.1596v-6.4272c0-.7512.0084-1.3776.0276-1.8816.018-.504.0588-.8748.1236-1.1124.0636-.2388.1692-.4584.3156-.66.1644-.2556.3804-.4392.6456-.5496.2652-.1092.6912-.1824 1.278-.2196v-.2736h-10.3572v.2736c.6048.0372 1.0536.1104 1.3464.2196.2928.1104.5316.294.714.5496.1464.2016.252.4164.3168.6456.0636.2292.1092.5688.1368 1.0164.0276.45.0408 1.1124.0408 1.992v7.2792c0 .9888.06 1.7988.1788 2.4312.1188.6312.3204 1.1628.6048 1.5936.2832.4308.6732.81 1.1676 1.1388 1.5012 1.026 3.5604 1.5396 6.18 1.5396 1.044 0 1.9596-.0972 2.7468-.2892s1.4832-.4896 2.088-.8928c.5496-.366.984-.7824 1.3044-1.2492s.5496-1.0356.6876-1.704c.1368-.6672.2052-1.4964.2052-2.4864v-2.1144c0-3.0036.2568-5.292.7692-6.8676.2928-.8784.6504-1.5288 1.0716-1.95.4032-.402.9384-.6708 1.5924-.8232-.0948-.0084-.1692-.0216-.2736-.0288zm63.5112-13.1436c-.5316.8052-1.1808 1.5552-1.95 2.2512-.8616.7704-1.7448 1.3608-2.6508 1.7724-.9072.4116-1.7988.618-2.6784.618-.4212 0-.7512-.0732-.9888-.2196-.2388-.1464-.4032-.3888-.4944-.7284-.0924-.3384-.1368-.828-.1368-1.4688v-6.4836c1.2252 0 2.2788.3624 3.1584 1.0848.8784.7248 1.4736 1.7352 1.7856 3.036h.2748v-8.4612h-.2748c-.0732.7512-.3252 1.4196-.756 2.0052-.4308.5868-1.002 1.0584-1.716 1.416-.7152.3564-1.5396.5628-2.472.6168v-8.46h.768c1.8864 0 3.5304.5076 4.9308 1.524 1.4016 1.0164 2.5224 2.5044 3.3648 4.464h.2748l-1.1256-6.318h-16.1796v.2748c.6036.0372 1.0476.1104 1.332.2196.2844.1104.5268.294.7284.5496.1464.2016.2556.4164.3288.6456s.12.5592.138.9888c.018.4308.0276 1.104.0276 2.0196v8.9268c0 .9168-.0096 1.5888-.0276 2.0196s-.0648.7596-.138.9888-.1824.444-.3288.6456c-.2016.2568-.444.4392-.7284.5484-.2844.1104-.7284.1836-1.332.2208v.2748h17.2776l1.2372-7.8012h-.2748c-.3852 1.08-.8436 2.0232-1.374 2.8296zm-27.9096-13.0764c.366.1104.6408.234.8244.3708s.3576.3528.522.6456c.3852.6228.5772 1.4832.5772 2.5824 0 .6228-.0456 1.1724-.138 1.6476-.0912.4776-.2652 1.044-.522 1.704-.2556.6588-.678 1.6392-1.2636 2.9388l-1.29 2.8848-3.1596-6.8952c-.4212-.8784-.7608-1.6116-1.0164-2.1984-.2568-.5856-.4212-1.0104-.4944-1.2768-.0732-.2652-.1092-.5268-.1092-.7824 0-.4764.1272-.8424.384-1.0992.2556-.2556.6684-.4296 1.236-.522v-.2748h-10.5204v.2748c.5676.1284 1.0572.3348 1.4688.618.4116.2844.8112.714 1.1952 1.2912.3852.5772.8424 1.4052 1.374 2.4864l7.0872 14.5584 5.4108-11.3724c1.1172-2.3256 2.1516-4.0836 3.1044-5.274.9516-1.1904 1.9404-1.9596 2.9664-2.3076v-.2748h-7.6368zm-25.0512 10.7136-2.8296-6.8124-2.5272 6.8124zm9.2016 6.5376c.4212.3108 1.008.4848 1.758.522v.2748h-11.07v-.2748c.6588-.0372 1.1484-.1788 1.47-.426.3204-.2472.48-.618.48-1.1124 0-.696-.384-1.9512-1.1532-3.7632l-.6048-1.4292h-5.5488c-.2376.678-.4116 1.2684-.5208 1.7724-.1104.504-.1656 1.0212-.1656 1.5516 0 1.008.2376 1.8132.714 2.418.4764.6036 1.1448.9336 2.0052.9888v.2748h-8.4876v-.2748c.75-.0732 1.5012-.4032 2.2524-.9888s1.4604-1.3824 2.1288-2.3904c.6684-1.0068 1.2408-2.1696 1.7172-3.4884l2.7744-7.3344c-.2928-.5496-.6504-1.0248-1.0716-1.428.6408-.2928 1.3908-.8112 2.2524-1.5528.8604-.7416 1.6668-1.5792 2.4168-2.514.5496 1.5024 1.026 2.7384 1.4292 3.7092l3.5436 8.5428c1.0248 2.3988 1.7904 4.0752 2.2932 5.0268.504.9528.966 1.584 1.3872 1.896zm-25.1616-7.9668c.732.8424 1.098 1.86 1.098 3.0492 0 1.1364-.2976 2.166-.8916 3.0912-.5952.9252-1.4148 1.6524-2.4588 2.1828-1.044.5316-2.1984.7968-3.4608.7968-.7152 0-1.5852-.0684-2.61-.2052-1.026-.138-2.1252-.3348-3.2964-.5916-.33-.0732-.6-.1272-.81-.1644-.2112-.0372-.39-.0552-.5364-.0552-.2748 0-.48.0504-.618.1512-.1368.1008-.2328.27-.288.5088h-.2748l-.2748-8.4888h.2748c.3108 1.044.7644 2.0736 1.3596 3.0912.5952 1.0164 1.3056 1.9812 2.1288 2.898.8244.9156 1.5936 1.5612 2.3076 1.9356.714.3756 1.5288.564 2.4444.564.6228 0 1.1676-.12 1.6344-.3576.468-.2376.8292-.5676 1.086-.9888.2556-.4212.384-.906.384-1.4556 0-.7872-.3072-1.4736-.9204-2.0604-.6132-.5856-1.6068-1.1448-2.9808-1.6764l-2.6916-1.0428c-1.74-.696-3.0036-1.4472-3.7908-2.2524-.7872-.8064-1.1808-1.7592-1.1808-2.8572 0-1.1172.3108-2.1336.9336-3.0492s1.4784-1.6344 2.568-2.1564 2.3028-.7824 3.6396-.7824c.5676 0 1.1364.0408 1.704.1236s1.392.252 2.472.5076c.5124.1284.924.192 1.236.192.2016 0 .348-.0408.4392-.1236.0924-.0816.1656-.2424.2208-.48h.2748l.3012 6.8388h-.2748c-.4572-1.3908-1.026-2.5908-1.7028-3.5976-.678-1.0068-1.4328-1.776-2.2668-2.3076-.8328-.5304-1.698-.7968-2.5956-.7968-.5676 0-1.0704.1104-1.5108.33-.4392.2196-.7824.5316-1.0296.9336-.2472.4032-.3708.8616-.3708 1.374 0 .4212.0864.81.2604 1.1664.174.3576.408.6552.7008.894.3108.2556.7692.54 1.374.8508.6036.312 1.272.6048 2.0052.8796l2.5548.9612c1.5552.6048 2.7012 1.3284 3.4332 2.1696z" fill="#c6c0be" fill-rule="evenodd" mask="url(#a)" transform="translate(37 188)"/></svg>