<svg height="600" viewBox="0 0 160 600" width="160" xmlns="http://www.w3.org/2000/svg"><g fill="none" fill-rule="evenodd"><g fill="#cf913f" transform="translate(22 308)"><path d="m6.4291939 10.4600739c-.48148148.2066385-.96768337.3091569-1.45860566.3091569-.7741467 0-1.46961995-.1361572-2.0895667-.4100734-.6167998-.2739162-1.13919147-.65195251-1.56402808-1.13250721-.4248366-.4805547-.75054466-1.04440554-.97712418-1.69315438s-.33986928-1.34715501-.33986928-2.09842218c0-.76888752.11328976-1.48171032.33986928-2.14007025.22657952-.65835994.55228758-1.23342373.97712418-1.72358952.42483661-.48856394.94722828-.87460955 1.56402808-1.15333127.61994675-.27872173 1.31542-.41808259 2.0895667-.41808259.51924473 0 1.02275478.08009245 1.5073832.2386755.48777535.15858305.92519971.39085115 1.31699346.69840616.39179375.30915686.71592835.68719322.97083031 1.13891463.25490196.45172142.41067538.97232234.46732026 1.55699722h-2.12418301c-.13217139-.57666563-.38707335-1.00916486-.76470588-1.29749768-.37763253-.28673097-.83551198-.43249923-1.37363834-.43249923-.50036311 0-.92519971.09931464-1.27450981.29634207-.34931009.19702742-.63253449.4613325-.8496732.79291525-.21713871.33158274-.37605907.70801725-.47361414 1.13090538-.10070201.42448999-.14947954.86179476-.14947954 1.31191433 0 .43249923.04877753.85378551.14947954 1.262257.09755507.4084715.25647543.77529491.47361414 1.10207211.21713871.32677719.50036311.58948043.8496732.78650785.3493101.19702743.7741467.29474022 1.27450981.29474022.73638344 0 1.30440571-.18901818 1.70564028-.56865639.40123456-.37963821.63568143-.93067427.70176712-1.65150631h-2.23747276v-1.68674699h4.24836601v5.56482338h-1.41612201l-.22657952-1.1677479c-.39651416.52060092-.83551198.8826188-1.31699346 1.0892573"/><path d="m23.7160722.71794872v1.85822021h-5.5259328v2.15384615h5.0731743v1.71744596h-5.0731743v2.46354952h5.6431939v1.85822024h-7.9444444v-10.05128208z"/><path d="m28.8888889 2.57616893v-1.85822021h8.6666667v1.85822021h-3.1703704v8.19306187h-2.3259259v-8.19306187z"/><path d="m59.8271833.71794872v1.85822021h-5.5259328v2.15384615h5.0715457v1.71744596h-5.0715457v2.46354952h5.6431939v1.85822024h-7.9444444v-10.05128208z"/><path d="m71.3737663 6.88386124-1.3037249-3.68828557h-.0289717l-1.3471824 3.68828557zm-.1303725-6.16591252 3.8677173 10.05128208h-2.3611907l-.7822349-2.23831074h-3.8677173l-.8112067 2.23831074h-2.2887615l3.9111748-10.05128208z"/><path d="m84.8038188 5.26495726c.5058427 0 .8863992-.1126194 1.1416697-.33785822.2537044-.22523881.3805566-.59125188.3805566-1.09803921 0-.48801743-.1268522-.84308139-.3805566-1.06362773-.2552705-.21898218-.635827-.33003743-1.1416697-.33003743h-2.4242862v2.82956259zm.7893025-4.54700854c.45103 0 .8566438.07351544 1.2184074.21741802.3617637.14703089.6718468.34567901.9302494.59907268.2584026.25339366.4557282.54745545.5919769.88062119.1362486.33316575.205156.69135803.205156 1.076141 0 .59125188-.1252861 1.10273169-.3742923 1.53443942-.2490061.43170772-.6546199.76018099-1.2184074.9854198v.02815486c.2724973.0750796.4980123.19082732.676545.34411485.1785327.15485168.3241778.33942238.4369353.54901961.1111914.21272554.1941935.44422099.245874.69761466.0532466.25339366.0877003.50678733.1064932.76018099.0093964.15954416.0172268.34724317.0266233.56309704.0093964.21585386.0266233.4364002.0516805.66163901.0219251.22523881.061077.43952855.1111914.63974075.0516806.2033406.1299844.3738339.2317793.5146082h-2.2112998c-.122154-.3190883-.1973256-.6991788-.225515-1.14027152-.0281894-.44109268-.0704734-.86341546-.1268522-1.26696833-.0751717-.52555723-.2349115-.9103402-.4792194-1.15434892-.2443079-.24400871-.6436574-.36601307-1.1996145-.36601307h-2.2112998v3.92760184h-2.2128659v-10.05128208z"/><path d="m97.5786579.71794872v8.19306184h4.9768981v1.85822024h-7.2222227v-10.05128208z"/><path d="m106.888889.71794872h2.601689l2.468649 3.96983409 2.453866-3.96983409h2.586907l-3.917316 6.19406737v3.85721471h-2.320826v-3.91352441z"/><path d="m25.8737663 24.1140257-1.3037249-3.6872952h-.0289717l-1.3471824 3.6872952zm-.1303725-6.1653078 3.8677173 10.0512821h-2.3611907l-.7822349-2.2370947h-3.8677173l-.8112067 2.2370947h-2.2887615l3.9111748-10.0512821z"/><path d="m41.5706767 20.2230231c-.1333426-.2162496-.2964912-.4052677-.4941521-.5686563-.1976608-.1649905-.4219901-.2915366-.6714192-.382842-.2494292-.0913053-.5098395-.137759-.7827996-.137759-.500427 0-.9224172.0993147-1.2722455.2963421-.3466908.1970274-.6290634.4613325-.8471178.7929152-.2149169.3315828-.3733593.7080173-.4721897 1.1325073-.0988304.4228881-.1474612.8601929-.1474612 1.3119143 0 .4308974.0486308.8521837.1474612 1.2606552s.2572728.7752949.4721897 1.1020721c.2180544.328379.500427.5894804.8471178.7865078.3498283.1970275.7718185.2947402 1.2722455.2947402.6761255 0 1.2063585-.211444 1.5891302-.6327303.3796343-.42449.6118073-.9819334.6980878-1.6723304h2.1460318c-.0564746.6423415-.2039358 1.2238127-.4376776 1.7444136-.2368792.5189991-.5459203.9595075-.9318295 1.326331-.3859093.3636197-.8377054.6423414-1.3553885.8345633s-1.0887033.2883328-1.7083542.2883328c-.7718185 0-1.4667688-.1361572-2.0832823-.4100733-.6165135-.2739162-1.1357654-.6503507-1.5593243-1.1325073-.4235588-.4805547-.7482873-1.0444055-.9757542-1.6947562-.2243293-.647147-.3372783-1.3455532-.3372783-2.0952185 0-.7704894.112949-1.4833122.3372783-2.1416721.2274669-.6583599.5521954-1.2334237.9757542-1.7235895.4235589-.488564.9428108-.8746096 1.5593243-1.1517294.6165135-.2803236 1.3114638-.4196845 2.0832823-.4196845.553764 0 1.0792908.0832962 1.5734428.2466848.4941521.1633886.9365358.4004622 1.3271512.7128228.3906155.3123605.7137752.6984061.9679106 1.1613405.2541353.4613325.4125777.9883408.4784646 1.5842286h-2.1460317c-.0360809-.2594995-.1207927-.4965731-.2525666-.7128228"/><path d="m56.7373434 20.2230231c-.1317739-.2162496-.2949225-.4052677-.4925834-.5686563-.1992295-.1649905-.4235588-.2915366-.6714192-.382842-.2494292-.0913053-.5114082-.137759-.7843684-.137759-.4988582 0-.9224171.0993147-1.2706767.2963421-.3482595.1970274-.6306321.4613325-.8471178.7929152-.2164856.3315828-.3733593.7080173-.4737584 1.1325073-.0972617.4228881-.1474613.8601929-.1474613 1.3119143 0 .4308974.0501996.8521837.1474613 1.2606552.1003991.4084715.2572728.7752949.4737584 1.1020721.2164857.328379.4988583.5894804.8471178.7865078.3482596.1970275.7718185.2947402 1.2706767.2947402.6776943 0 1.2063585-.211444 1.5891303-.6327303.381203-.42449.613376-.9819334.6980878-1.6723304h2.1460317c-.0564745.6423415-.202367 1.2238127-.4376775 1.7444136-.2353105.5189991-.5459204.9595075-.9318296 1.326331-.3859092.3636197-.8377054.6423414-1.3553885.8345633-.517683.1922219-1.0871345.2883328-1.7083542.2883328-.7718184 0-1.4667687-.1361572-2.0817135-.4100733-.6180823-.2739162-1.1373341-.6503507-1.5593242-1.1325073-.4251277-.4805547-.7498562-1.0444055-.9757542-1.6947562-.2258981-.647147-.3388472-1.3455532-.3388472-2.0952185 0-.7704894.1129491-1.4833122.3388472-2.1416721.225898-.6583599.5506265-1.2334237.9757542-1.7235895.4219901-.488564.9412419-.8746096 1.5593242-1.1517294.6149448-.2803236 1.3098951-.4196845 2.0817135-.4196845.5553328 0 1.0792909.0832962 1.5750116.2466848.4925833.1633886.9349671.4004622 1.3255825.7128228.3906154.3123605.7137752.6984061.9679105 1.1613405.2541354.4613325.4141465.9883408.4800334 1.5842286h-2.1460317c-.0376497-.2594995-.1223615-.4965731-.2541353-.7128228"/><path d="m72.8271833 17.9487179v1.8582203h-5.5259328v2.1538461h5.0731744v1.717446h-5.0731744v2.4619853h5.6431939v1.8597844h-7.9444444v-10.0512821z"/><path d="m81.1019974 25.2320049c.1233666.2402774.2899916.4341011.498273.5830731.205077.1505738.4486059.2594995.7273824.3315827.2771744.0720832.5655639.1089257.8651686.1089257.2018726 0 .4165626-.0160184.6488764-.0512591.2307116-.032037.4454016-.0977128.6472743-.1938237.2018726-.096111.371702-.2274626.5062838-.3972586.1345818-.1665923.2018726-.3812401.2018726-.6407396 0-.2787217-.0897211-.5045824-.2675613-.6775821s-.410154-.3171661-.7001457-.4324992c-.2883895-.1153332-.615231-.2162497-.9789222-.3027495-.3668956-.0864998-.7353933-.1826108-1.1119018-.2883328-.3845194-.096111-.7578236-.2130459-1.1247192-.3524068-.3636912-.1393609-.6905326-.3219716-.9789222-.541425-.2899916-.2210551-.5223054-.4965731-.7001456-.8281559-.1778402-.3315827-.2675614-.7336468-.2675614-1.2045904 0-.5286102.1137536-.986739.3396588-1.3775902.2259051-.3876474.5223054-.7128228.8859966-.9723223.3668956-.2594995.7786517-.4517214 1.2416771-.5766656.4614233-.1249443.9228465-.1874164 1.3842697-.1874164.5383271 0 1.0542239.0592684 1.5508948.181009.4934665.1185368.9340616.3139624 1.318581.583073.3829172.2691106.6889305.6119063.9148356 1.0299889.2259051.4196844.3396588.9258687.3396588 1.5217565h-2.1917604c-.0208281-.307555-.0849147-.562249-.195464-.7640819-.1105493-.201833-.2563462-.360416-.4405951-.4757492-.1826467-.1153331-.390928-.1970274-.6264461-.2450829-.2355181-.0480554-.4934665-.0720832-.7722431-.0720832-.1826467 0-.3636912.0192222-.5463379.0576666-.1842488.0384444-.3492717.105722-.498273.201833-.1490012.0961109-.2723679.2162496-.3684977.360416-.0945277.1441664-.1425926.3267772-.1425926.5478323 0 .201833.0368498.3652216.1153558.4901658.0769039.1249443.2275073.2402774.4534124.3459994s.5383271.2114441.937266.3171661c.3989388.105722.9196421.2402774 1.5653142.403666.1922597.0384443.4582189.1089257.7994798.2098422s.6793176.2611014 1.015772.4821565c.3364544.2210552.6280483.5173972.8731794.8858225.2451311.371629.3684977.8441744.3684977 1.4208401 0 .4709436-.0929255.9082483-.2739701 1.3119143-.1826467.4036659-.4550145.752869-.8155014 1.0444055-.3588848.2947403-.8074907.5222028-1.3410113.6855914s-1.1519559.2450829-1.8521016.2450829c-.5687682 0-1.1183104-.0688795-1.6518311-.2082404-.5335206-.1393608-1.0045568-.3588141-1.4131086-.6583599-.4085518-.2963421-.7321889-.6759803-.9741157-1.1373128-.2403246-.4613325-.3540783-1.0091649-.3444653-1.6434971h2.1917604c0 .3459994.0624844.6391378.1874532.8794151"/><path d="m94.8242145 25.2320049c.1249689.2402774.2915941.4341011.4982734.5830731.2050772.1505738.4486063.2594995.727383.3315827.2787768.0720832.5671666.1089257.8651693.1089257.2018728 0 .4181651-.0160184.648877-.0512591.2307118-.032037.4470041-.0977128.6488769-.1938237.2018728-.096111.3701002-.2274626.5046821-.3972586.1345818-.1665923.2018728-.3812401.2018728-.6407396 0-.2787217-.0881191-.5045824-.2659594-.6775821-.1794426-.1729997-.4117565-.3171661-.7001463-.4324992-.2883897-.1153332-.6152315-.2162497-.9805251-.3027495-.3652937-.0864998-.7353939-.1826108-1.1103006-.2883328-.3845197-.096111-.7594263-.2130459-1.12472-.3524068s-.6921354-.3219716-.9805252-.541425c-.2883897-.2210551-.5207037-.4965731-.7001462-.8281559-.1778404-.3315827-.2659595-.7336468-.2659595-1.2045904 0-.5286102.1137538-.986739.3380569-1.3775902.2259053-.3876474.5223059-.7128228.8875996-.9723223s.7786523-.4517214 1.2416781-.5766656c.4598214-.1249443.921245-.1874164 1.3826686-.1874164.5383276 0 1.0542248.0592684 1.550896.181009.493467.1185368.9340624.3139624 1.3185821.583073s.688931.6119063.914836 1.0299889c.227508.4196844.339659.9258687.339659 1.5217565h-2.1917617c-.019226-.307555-.0849148-.562249-.193862-.7640819-.1121516-.201833-.2579486-.360416-.4405955-.4757492-.1826468-.1153331-.3925305-.1970274-.6264466-.2450829-.2371205-.0480554-.4934669-.0720832-.7722437-.0720832-.1826468 0-.3652937.0192222-.5479405.0576666s-.3476699.105722-.4966712.201833c-.1506036.0961109-.2723681.2162496-.3684981.360416-.0961299.1441664-.1441948.3267772-.1441948.5478323 0 .201833.0384519.3652216.1153559.4901658.0769039.1249443.2275074.2402774.4534127.3459994.2275075.105722.5383276.2114441.9388689.3171661.397337.105722.9196429.2402774 1.5637133.403666.1922599.0384443.4598215.1089257.8010827.2098422s.6793181.2611014 1.0157728.4821565c.3364548.2210552.6280488.5173972.8715778.8858225.246734.371629.368498.8441744.368498 1.4208401 0 .4709436-.091323.9082483-.27397 1.3119143-.182647.4036659-.453413.752869-.815502 1.0444055-.3588853.2947403-.8074916.5222028-1.3410126.6855914-.5335211.1633886-1.1503547.2450829-1.8521031.2450829-.5671665 0-1.1167092-.0688795-1.6502303-.2082404-.533521-.1393608-1.0045576-.3588141-1.4131098-.6583599-.4101543-.2963421-.7337917-.6759803-.9741165-1.1373128s-.3556807-1.0091649-.3460677-1.6434971h2.1917622c0 .3459994.0624844.6391378.1874533.8794151"/></g><path d="m23.362805 288.5h118.27439" opacity=".604678" stroke="#c78c43" stroke-linecap="square"/></g></svg>