<svg id="Layer_1" data-name="Layer 1" xmlns="http://www.w3.org/2000/svg" xmlns:xlink="http://www.w3.org/1999/xlink" viewBox="0 0 300 250"><defs><style>.cls-1{fill:none;}.cls-2{clip-path:url(#clip-path);}.cls-3{fill:#221e1f;}.cls-4{clip-path:url(#clip-path-2);}.cls-5{clip-path:url(#clip-path-4);}.cls-6{clip-path:url(#clip-path-5);}</style><clipPath id="clip-path"><rect class="cls-1" width="300" height="250"/></clipPath><clipPath id="clip-path-2"><rect class="cls-1" x="320" width="300" height="250"/></clipPath><clipPath id="clip-path-4"><rect class="cls-1" x="498.32" y="90.72" width="87.28" height="86.76"/></clipPath><clipPath id="clip-path-5"><rect class="cls-1" x="-32448" y="-32517" width="65535" height="65535"/></clipPath></defs><g class="cls-2"><path class="cls-3" d="M27.5,64V50.79H21.67V47H38v3.78H32.06V64Z"/><path class="cls-3" d="M43.09,64.33c-3.94,0-6.58-2.59-6.58-6.34s2.64-6.34,6.58-6.34,6.59,2.62,6.59,6.34S47,64.33,43.09,64.33Zm0-3.29c1.51,0,2.19-1.24,2.19-3s-.68-3.05-2.19-3.05S40.91,56.18,40.91,58,41.56,61,43.09,61Z"/><path class="cls-3" d="M51.83,55H50.21V52.3l.89-.14c1.22-.19,1.6-.83,1.89-1.94l.41-1.56h2.75V52h3.13v3H56.15v4.39c0,1,.48,1.43,1.37,1.43a4.81,4.81,0,0,0,1.87-.4v2.83a5.64,5.64,0,0,1-3.62,1.08c-2,0-3.94-.84-3.94-3.67Z"/><path class="cls-3" d="M72.31,60.47c0,.62.27.89.73.89a2.4,2.4,0,0,0,1-.19v2.32a4.57,4.57,0,0,1-2.73.79,3,3,0,0,1-3-2.13,4.09,4.09,0,0,1-4,2.13c-2.35,0-3.88-1.22-3.88-3.27,0-2.32,1.67-3.32,4.29-3.77L68,56.67v-.19c0-1-.46-1.59-1.51-1.59a1.63,1.63,0,0,0-1.65,1.51l-4-.27c.37-2.64,2.34-4.48,6-4.48,3.18,0,5.53,1.38,5.53,4.72ZM68,58.8l-1.78.32c-1,.22-1.67.54-1.67,1.33,0,.62.48,1,1.21,1A2.26,2.26,0,0,0,68,59Z"/><path class="cls-3" d="M79.64,47V64H75.27V47Z"/><path class="cls-3" d="M86.39,47V64H82V47Z"/><path class="cls-3" d="M90.7,68.32l1.73-4.15L87.52,52h4.59L94.78,59h.11L97.61,52h4.29L95,68.32Z"/><path class="cls-3" d="M112.26,64h-4.37V52h4.37v1.81a4.1,4.1,0,0,1,3.88-2.13c3.29,0,4.35,2.29,4.35,4.8V64h-4.38v-6.4c0-1.64-.45-2.51-1.78-2.51-1.48,0-2.07,1.19-2.07,3Z"/><path class="cls-3" d="M128.66,64.33c-3.94,0-6.58-2.59-6.58-6.34s2.64-6.34,6.58-6.34,6.58,2.62,6.58,6.34S132.57,64.33,128.66,64.33Zm0-3.29c1.51,0,2.18-1.24,2.18-3s-.67-3.05-2.18-3.05-2.19,1.24-2.19,3.05S127.12,61,128.66,61Z"/><path class="cls-3" d="M137.4,55h-1.62V52.3l.89-.14c1.21-.19,1.59-.83,1.89-1.94l.4-1.56h2.75V52h3.13v3h-3.13v4.39c0,1,.49,1.43,1.38,1.43a4.76,4.76,0,0,0,1.86-.4v2.83a5.63,5.63,0,0,1-3.61,1.08c-2,0-3.94-.84-3.94-3.67Z"/><path class="cls-3" d="M33.44,85.26c0,.62.27.89.73.89a2.58,2.58,0,0,0,1-.19v2.32a4.64,4.64,0,0,1-2.73.78,3,3,0,0,1-3-2.13,4.09,4.09,0,0,1-4,2.13c-2.35,0-3.88-1.21-3.88-3.26,0-2.32,1.67-3.32,4.28-3.78l3.38-.57v-.19c0-1-.46-1.59-1.51-1.59A1.63,1.63,0,0,0,26,81.18l-4-.27c.38-2.64,2.35-4.47,6-4.47,3.18,0,5.53,1.37,5.53,4.72Zm-4.29-1.68-1.78.33c-1.06.21-1.68.54-1.68,1.32,0,.62.49,1,1.22,1a2.25,2.25,0,0,0,2.24-2.48Z"/><path class="cls-3" d="M48.25,83.58h.1l2.16-6.82h3.94l-3.8,12H46.36L44.6,82h-.1l-1.76,6.8H38.45l-3.8-12H39l2.16,6.82h.11L43,76.76h3.48Z"/><path class="cls-3" d="M60,88.79H55.58v-17H60v9.12l4.13-4.15h5.13l-5,4.72,5.13,7.31H64.46L61,83.91,60,85Z"/><path class="cls-3" d="M82.69,83.58h.11L85,76.76H88.9l-3.81,12H80.81L79.05,82h-.11l-1.75,6.8H72.9l-3.8-12h4.34l2.16,6.82h.11l1.75-6.82h3.48Z"/><path class="cls-3" d="M101.28,85.26c0,.62.27.89.73.89a2.58,2.58,0,0,0,1-.19v2.32a4.62,4.62,0,0,1-2.73.78,3,3,0,0,1-3-2.13,4.12,4.12,0,0,1-4,2.13c-2.34,0-3.88-1.21-3.88-3.26,0-2.32,1.67-3.32,4.29-3.78L97,81.45v-.19c0-1-.46-1.59-1.51-1.59a1.63,1.63,0,0,0-1.65,1.51l-4-.27c.37-2.64,2.34-4.47,6-4.47,3.18,0,5.53,1.37,5.53,4.72ZM97,83.58l-1.78.33c-1,.21-1.67.54-1.67,1.32,0,.62.48,1,1.21,1A2.25,2.25,0,0,0,97,83.77Z"/><path class="cls-3" d="M113.31,81a3.89,3.89,0,0,0-2.08-.51c-1.62,0-2.61.75-2.61,2.78v5.5h-4.37v-12h4.37v2.13a3.49,3.49,0,0,1,3.29-2.45,2.9,2.9,0,0,1,1.67.45Z"/><path class="cls-3" d="M123.56,86.74a4,4,0,0,1-3.94,2.38c-3.56,0-5.34-2.78-5.34-6.34s1.78-6.34,5.34-6.34a4,4,0,0,1,3.94,2.4v-7h4.37v17h-4.37Zm0-4c0-1.72-.94-2.86-2.4-2.86-1.73,0-2.48,1.22-2.48,3s.75,3,2.48,3c1.46,0,2.4-1.13,2.4-2.88Z"/><path class="cls-3" d="M34.54,109.21h.11l2.16-6.82h3.94l-3.81,12H32.65l-1.75-6.8h-.11L29,114.42H24.75l-3.8-12h4.34l2.16,6.82h.11l1.75-6.82h3.48Z"/><path class="cls-3" d="M41.85,97.42h4.43v3.83H41.85Zm4.4,5v12H41.88v-12Z"/><path class="cls-3" d="M49.05,105.41H47.44v-2.7l.89-.13c1.21-.19,1.59-.84,1.88-2l.41-1.56h2.75v3.32H56.5v3H53.37v4.4c0,1,.49,1.43,1.38,1.43a4.8,4.8,0,0,0,1.86-.41v2.83A5.64,5.64,0,0,1,53,114.74c-2,0-3.94-.83-3.94-3.67Z"/><path class="cls-3" d="M62.65,114.42H58.28v-17h4.37v6.78a4.12,4.12,0,0,1,3.89-2.14c3.29,0,4.34,2.3,4.34,4.81v7.55H66.51V108c0-1.65-.46-2.51-1.78-2.51-1.49,0-2.08,1.18-2.08,3Z"/><path class="cls-3" d="M31.14,140.2H22.29v-17h8.29c4.37,0,6.34,1.83,6.34,4.69a3.39,3.39,0,0,1-3,3.48,4,4,0,0,1,3.53,4.16C37.43,138.48,35.11,140.2,31.14,140.2ZM26.75,130H30c1.57,0,2.19-.7,2.19-1.51s-.62-1.59-2.19-1.59H26.75Zm0,3.43v3.16h3.67c1.59,0,2.29-.65,2.29-1.57s-.7-1.59-2.32-1.59Z"/><path class="cls-3" d="M39.26,133.46V123.21h4.56v9.49c0,2.59.81,4,3.16,4s3.15-1.38,3.15-4v-9.49h4.59v10.25c0,5-3.37,7.07-7.74,7.07S39.26,138.42,39.26,133.46Z"/><path class="cls-3" d="M65.13,122.88c5.21,0,8,3.32,8.31,7.56l-4.4.16c-.27-1.89-1.29-3.64-3.93-3.64s-4,1.86-4,4.75,1.46,4.74,4,4.74,3.66-1.75,3.93-3.64l4.4.19c-.32,4.24-3.1,7.53-8.31,7.53a8.83,8.83,0,0,1,0-17.65Z"/><path class="cls-3" d="M86,140.2l-4.72-6.77-1.48,1.62v5.15H75.22v-17h4.59v6.88l6.09-6.88h5.26l-6.55,7.23,6.88,9.76Z"/><path class="cls-3" d="M92.54,135.56h4.64v4.64H92.54Z"/></g></svg>