<svg id="Layer_1" data-name="Layer 1" xmlns="http://www.w3.org/2000/svg" xmlns:xlink="http://www.w3.org/1999/xlink" viewBox="0 0 300 250"><defs><style>.cls-1{fill:none;}.cls-2{clip-path:url(#clip-path);}.cls-3{fill:#221e1f;}.cls-4{fill:#fff;}.cls-5{clip-path:url(#clip-path-2);}.cls-6{clip-path:url(#clip-path-4);}.cls-7{clip-path:url(#clip-path-5);}</style><clipPath id="clip-path"><rect class="cls-1" width="300" height="250"/></clipPath><clipPath id="clip-path-2"><rect class="cls-1" x="320" width="300" height="250"/></clipPath><clipPath id="clip-path-4"><rect class="cls-1" x="498.32" y="90.72" width="87.28" height="86.76"/></clipPath><clipPath id="clip-path-5"><rect class="cls-1" x="-32448" y="-32517" width="65535" height="65535"/></clipPath></defs><g class="cls-2"><path class="cls-3" d="M202.57,79.29v-.91a2.84,2.84,0,0,1-1.68-.69,2.06,2.06,0,0,1-.65-1.59l1.34,0a1.23,1.23,0,0,0,1,1.18V75.81l-.5-.08A1.75,1.75,0,0,1,200.4,74c0-1.14.84-1.88,2.17-1.95v-.78h.73V72a2.12,2.12,0,0,1,2.14,2.18l-1.3,0a1.09,1.09,0,0,0-.84-1.06v1.4l.44.08c1.25.22,1.83.81,1.83,1.82a1.62,1.62,0,0,1-.65,1.38,2.8,2.8,0,0,1-1.62.54v.89Zm0-4.84V73.12c-.5,0-.78.29-.78.71S202.13,74.36,202.57,74.45Zm.73,1.49v1.34c.52,0,.87-.3.87-.7S203.82,76,203.3,75.94Z"/><path class="cls-3" d="M215.27,78.92H217v2.5h-1.69v2.76h-2.92V81.42h-6.14V78.69l5.48-6.86h3.58Zm-6.53,0h3.61V74.43Z"/><path class="cls-3" d="M217.85,81.12h3.05v3.06h-3.05Z"/><path class="cls-3" d="M230.71,74.43h-5.43c0,.28-.06.63-.12,1.08s-.12.79-.18,1a3.42,3.42,0,0,1,2.34-.74A4,4,0,0,1,230.53,77a4.39,4.39,0,0,1,1.08,3,4.05,4.05,0,0,1-1.33,3.18,4.88,4.88,0,0,1-3.36,1.18c-3.19,0-4.94-1.79-4.84-4.59l2.86.21a2,2,0,1,0,3.91,0,1.86,1.86,0,0,0-1.91-2,2,2,0,0,0-1.8,1l-2.86-.21c.13-.85.31-1.94.49-3.34s.29-2.6.31-3.62h7.63Z"/><path class="cls-3" d="M241.89,82.75a5.63,5.63,0,0,1-8,0A6.9,6.9,0,0,1,232.4,78a6.82,6.82,0,0,1,1.49-4.72,5.58,5.58,0,0,1,8,0A6.82,6.82,0,0,1,243.38,78,6.9,6.9,0,0,1,241.89,82.75Zm-4-8.77c-1.65,0-2.36,1.3-2.36,4s.71,4,2.36,4,2.35-1.29,2.35-4S239.53,74,237.89,74Z"/><rect class="cls-4" x="192.45" y="47.84" width="59.51" height="16.55"/><path class="cls-3" d="M202.44,59.72a3.22,3.22,0,0,1-.3-1.44c0-.82-.42-1.08-1.15-1.08h-1.46v2.52h-1.72V52.46h3.5c1.88,0,2.81.89,2.81,2.27a1.78,1.78,0,0,1-1.57,1.86A1.47,1.47,0,0,1,203.84,58c.06.53.1.91.14,1.14a.88.88,0,0,0,.24.54ZM201,55.85c.91,0,1.36-.28,1.36-1s-.45-1-1.36-1h-1.51v2Z"/><path class="cls-3" d="M210.67,59.72h-5.61V52.46h5.51V53.9h-3.79v1.43h2.94v1.42h-2.94v1.53h3.89Z"/><path class="cls-3" d="M216.61,59.41a3.83,3.83,0,0,1-1.82.45,3.83,3.83,0,0,1-2.65-6.49,3.87,3.87,0,0,1,5.3,0,3.59,3.59,0,0,1,1.09,2.72,3.73,3.73,0,0,1-1,2.57l.62.73-1,.76Zm-1-1.19-.73-.86.93-.77.7.82a2.87,2.87,0,0,0,.27-1.32,2,2,0,1,0-2,2.26A2.18,2.18,0,0,0,215.58,58.22Z"/><path class="cls-3" d="M220.26,59.16a2.7,2.7,0,0,1-.94-2.3v-4.4h1.74v4.15c0,1.15.42,1.78,1.48,1.78s1.49-.61,1.49-1.77V52.46h1.74v4.4a2.72,2.72,0,0,1-.93,2.3,3.72,3.72,0,0,1-2.3.7A3.66,3.66,0,0,1,220.26,59.16Z"/><path class="cls-3" d="M232.49,59.72h-5.61V52.46h5.5V53.9H228.6v1.43h2.94v1.42H228.6v1.53h3.89Z"/><path class="cls-3" d="M234.67,57.08c.05,1,.83,1.41,1.72,1.41s1.25-.31,1.25-.78-.42-.6-1.06-.73l-1.36-.24a2.09,2.09,0,0,1-2-2.1c0-1.43,1.13-2.32,2.88-2.32,2,0,3.05,1,3.08,2.59L237.6,55a1.32,1.32,0,0,0-1.48-1.27c-.74,0-1.15.3-1.15.8s.33.56.85.67l1.36.24c1.48.26,2.17,1,2.17,2.19a1.9,1.9,0,0,1-.87,1.7,3.71,3.71,0,0,1-2.09.57,3.89,3.89,0,0,1-2.39-.7,2.36,2.36,0,0,1-.94-2Z"/><path class="cls-3" d="M242.18,59.72V53.9h-2.53V52.46h6.83V53.9h-2.56v5.82Z"/></g></svg>