<?xml version="1.0" encoding="UTF-8"?><svg id="Layer_2" xmlns="http://www.w3.org/2000/svg" xmlns:xlink="http://www.w3.org/1999/xlink" viewBox="0 0 77.59 39.53"><defs><style>.cls-1,.cls-2{fill:none;}.cls-3{clip-path:url(#clippath);}.cls-4{fill:#fff;}.cls-5{fill:#ff3008;}.cls-6{fill:#ce2e19;}.cls-7{fill:#c5e8e9;}.cls-8{fill:#10322c;}.cls-9{fill:#221f20;}.cls-10{fill:#27346b;}.cls-11{clip-path:url(#clippath-1);}.cls-2{stroke:#27346b;stroke-miterlimit:10;stroke-width:1.21px;}</style><clipPath id="clippath"><ellipse class="cls-1" cx="38.8" cy="19.77" rx="38.19" ry="19.16"/></clipPath><clipPath id="clippath-1"><ellipse class="cls-2" cx="38.8" cy="19.77" rx="38.19" ry="19.16"/></clipPath></defs><g id="Layer_3"><g><g><path class="cls-4" d="M32.93,33.36c-1.35-10.85-1.09-21.52,.8-32.44C15.09,2.17,.7,10.2,.7,19.91c0,1.82,.5,3.57,1.44,5.24,6.69,4.43,16.88,7.27,30.46,8.19,.11,0,.22,.01,.32,.02Z"/><path class="cls-4" d="M2.5,25.73c-.05-.08-.09-.15-.14-.23,.05,.08,.09,.15,.14,.23Z"/><path class="cls-5" d="M32.93,33.36c2.17,.14,4.41,.24,6.75,.28,.46,0,.92,0,1.37-.01,.14,0,.29,0,.43,0-1.39-10.97-1.13-21.75,.79-32.79-1.13-.05-2.27-.08-3.43-.08-1.73,0-3.44,.06-5.11,.17-1.89,10.92-2.15,21.59-.8,32.44Z"/><path class="cls-7" d="M42.42,38.84c16.98-.8,30.72-7.18,33.88-15.45-7.13,6.13-19.51,9.95-34.82,10.23,.22,1.74,.48,3.48,.79,5.23,.05,0,.1,0,.16,0Z"/><path class="cls-7" d="M2.13,25.14c.07,.12,.15,.24,.23,.36-.07-.12-.14-.23-.21-.35,0,0-.01,0-.02-.01Z"/><path class="cls-7" d="M2.57,25.84s-.05-.07-.07-.11c.02,.04,.05,.07,.07,.11Z"/><path class="cls-7" d="M33.73,38.76c-.31-1.81-.58-3.6-.8-5.4-.11,0-.22-.01-.32-.02-13.59-.92-23.77-3.76-30.46-8.19,.07,.12,.14,.23,.21,.35,.05,.08,.09,.15,.14,.23,.02,.04,.05,.07,.07,.11,4.55,6.83,16.55,11.94,31.16,12.92Z"/><path class="cls-6" d="M39.68,33.64c-2.34-.04-4.59-.14-6.75-.28,.22,1.79,.49,3.59,.8,5.4,1.66,.11,3.35,.17,5.06,.17,.96,0,1.91-.02,2.85-.06,.21,0,.42-.02,.62-.02-.3-1.75-.57-3.49-.79-5.23-.14,0-.28,0-.43,0-.45,0-.91,.01-1.37,.01Z"/></g><g><path class="cls-4" d="M41.48,33.62c14.51-.26,26.4-3.72,33.67-9.3H40.7c.13,3.09,.39,6.19,.78,9.3Z"/><path class="cls-4" d="M42.27,.83c-.87,5.03-1.4,10.01-1.59,14.97h35.42C72.6,7.74,58.98,1.57,42.27,.83Z"/><path class="cls-4" d="M42.42,38.84c-.05,0-.1,0-.16,0-.21,0-.41,.02-.62,.02-.94,.03-1.89,.06-2.85,.06-1.72,0-3.41-.06-5.06-.17-14.61-.97-26.62-6.09-31.16-12.92,4.97,7.68,19.33,13.23,36.27,13.23,18.05,0,33.16-6.3,37.13-14.75h-.08c-3.79,7.81-17.13,13.75-33.47,14.52Z"/><path class="cls-5" d="M40.68,15.8H1.36s-1.05,2.06-.9,4.19,1.12,4.33,1.12,4.33H40.7c-.12-2.84-.12-5.68-.02-8.52Z"/><path class="cls-5" d="M75.15,24.32h.74c.15-.31,.29-.62,.41-.93-.37,.32-.75,.63-1.15,.93Z"/><path class="cls-5" d="M76.1,15.8H40.68c-.11,2.84-.1,5.68,.02,8.52h34.45c.4-.3,.78-.61,1.15-.93-.12,.31-.26,.62-.41,.93h.08c.66-1.42,1.02-2.89,1.02-4.41,0-1.41-.3-2.79-.88-4.11Z"/></g><path class="cls-9" d="M76.58,18.62c-.57-6.35-12.09-9.1-17.29-10.38,5.37,1.23,17.02,3.77,17.67,10.38,0,0-.38,0-.38,0h0Z"/><path class="cls-10" d="M38.8,39.37C17.48,39.37,.14,30.58,.14,19.77S17.48,.16,38.8,.16s38.66,8.8,38.66,19.61-17.34,19.61-38.66,19.61Zm0-38.32C17.99,1.05,1.07,9.45,1.07,19.77s16.92,18.71,37.72,18.71,37.72-8.4,37.72-18.71S59.6,1.05,38.8,1.05Z"/><g class="cls-3"><g><path class="cls-10" d="M26.07,6.43c-3.16-1.83-11.48-3.26-16.74-1.52-2.71,.9-5.65,2.57-8.42,4.5,12.55-3.58,16.36-3.23,25.16-2.98Z"/><path class="cls-10" d="M-1.36,11.09c-8.61,6.68-13.23,16.43-3.07,7.76C6.36,9.65,18.09,8.04,26.07,7.03c-9.06,0-13.73-.02-27.43,4.06Z"/></g></g><g><g class="cls-11"><polygon class="cls-8" points="38.96 33.68 38.96 33.68 38.96 33.68 38.96 33.68"/><path class="cls-10" d="M70.9,31.24c9.69-6.44,16.36-14.61,4.14-7.28-13.32,7.99-26.65,9.48-32.7,9.71,6.71,.89,13.66,.84,28.57-2.43Z"/><path class="cls-10" d="M52.38,35.11c-4.64,.22-5.61,.24-9.8-.42,3.22,2.2,10.73,3.74,16.46,2.3,2.96-.74,6.22-2.29,9.32-4.14-6.6,1.37-11.63,2.06-15.98,2.26Z"/></g><ellipse class="cls-2" cx="38.8" cy="19.77" rx="38.19" ry="19.16"/></g></g></g></svg>