<?xml version="1.0" encoding="UTF-8"?><svg id="Layer_2" xmlns="http://www.w3.org/2000/svg" viewBox="0 0 377.53 23.68"><defs><style>.cls-1{fill:red;}</style></defs><g id="Layer_3"><g><path class="cls-1" d="M0,.64H16.96V6.4H6.08v3.84H14.4v5.44H6.08v7.36H0V.64Z"/><path class="cls-1" d="M31.06,0c7.17,0,12.48,5.28,12.48,11.84s-5.31,11.84-12.48,11.84-12.48-5.28-12.48-11.84S23.89,0,31.06,0Zm0,18.08c3.49,0,6.24-2.72,6.24-6.24s-2.75-6.24-6.24-6.24-6.24,2.75-6.24,6.24,2.72,6.24,6.24,6.24Z"/><path class="cls-1" d="M47.18,.64h10.56c4.77,0,8.16,3.36,8.16,7.68,0,2.43-.93,4-1.92,4.99-.54,.58-1.18,1.06-1.92,1.41l4.64,8.32h-6.4l-3.68-7.04h-3.36v7.04h-6.08V.64Zm10.24,9.92c1.44,0,2.4-.96,2.4-2.24s-.96-2.24-2.4-2.24h-4.16v4.48h4.16Z"/><path class="cls-1" d="M82.86,.64h6.72l8.48,22.4h-6.56l-1.6-4.8h-7.36l-1.6,4.8h-6.56L82.86,.64Zm5.44,12.64l-2.02-6.4h-.13l-2.02,6.4h4.16Z"/><path class="cls-1" d="M128.46,19.36c-.7,.8-1.54,1.54-2.5,2.18-1.63,1.12-4.06,2.14-7.26,2.14-7.17,0-12.48-5.28-12.48-11.84S111.54,0,118.7,0c3.2,0,5.57,1.06,7.2,2.18,.93,.64,1.73,1.34,2.4,2.14l-3.68,4.16c-.48-.54-1.02-1.02-1.63-1.44-1.06-.74-2.5-1.44-4.29-1.44-3.52,0-6.24,2.75-6.24,6.24s2.72,6.24,6.24,6.24c1.79,0,3.23-.7,4.35-1.44,.64-.42,1.22-.9,1.73-1.44l3.68,4.16Z"/><path class="cls-1" d="M131.32,.64h6.08V8.8h8.16V.64h6.08V23.04h-6.08V14.56h-8.16v8.48h-6.08V.64Z"/><path class="cls-1" d="M162.43,.64h6.72l8.48,22.4h-6.56l-1.6-4.8h-7.36l-1.6,4.8h-6.56L162.43,.64Zm5.44,12.64l-2.02-6.4h-.13l-2.02,6.4h4.16Z"/><path class="cls-1" d="M179.92,.64h5.28l9.6,12.32V.64h6.08V23.04h-5.28l-9.6-12.32v12.32h-6.08V.64Z"/><path class="cls-1" d="M226.76,19.36c-.7,.8-1.54,1.54-2.5,2.18-1.63,1.12-4.06,2.14-7.26,2.14-7.17,0-12.48-5.28-12.48-11.84s5.31-11.84,12.48-11.84c3.2,0,5.57,1.06,7.2,2.18,.93,.64,1.73,1.34,2.4,2.14l-3.68,4.16c-.48-.54-1.02-1.02-1.63-1.44-1.06-.74-2.5-1.44-4.29-1.44-3.52,0-6.24,2.75-6.24,6.24s2.72,6.24,6.24,6.24c1.79,0,3.23-.7,4.35-1.44,.64-.42,1.22-.9,1.73-1.44l3.68,4.16Z"/><path class="cls-1" d="M229.62,.64h17.12V6.08h-11.04v3.2h8.48v5.12h-8.48v3.2h11.36v5.44h-17.44V.64Z"/><path class="cls-1" d="M262.26,6.08h-6.24V.64h18.56V6.08h-6.24V23.04h-6.08V6.08Z"/><path class="cls-1" d="M288.44,0c7.17,0,12.48,5.28,12.48,11.84s-5.31,11.84-12.48,11.84-12.48-5.28-12.48-11.84,5.31-11.84,12.48-11.84Zm0,18.08c3.49,0,6.24-2.72,6.24-6.24s-2.75-6.24-6.24-6.24-6.24,2.75-6.24,6.24,2.72,6.24,6.24,6.24Z"/><path class="cls-1" d="M309.24,.64h6.56l3.52,13.12h.16l4-13.12h5.44l4,13.12h.16l3.52-13.12h6.56l-7.36,22.4h-5.44l-4.1-13.44h-.13l-4.1,13.44h-5.44l-7.36-22.4Z"/><path class="cls-1" d="M345.56,.64h6.08V23.04h-6.08V.64Z"/><path class="cls-1" d="M356.57,.64h5.28l9.6,12.32V.64h6.08V23.04h-5.28l-9.6-12.32v12.32h-6.08V.64Z"/></g></g></svg>