<?xml version="1.0" encoding="utf-8"?>
<!-- Generator: Adobe Illustrator 26.5.0, SVG Export Plug-In . SVG Version: 6.00 Build 0)  -->
<svg version="1.1" id="Layer_3" xmlns="http://www.w3.org/2000/svg" xmlns:xlink="http://www.w3.org/1999/xlink" x="0px" y="0px"
	 viewBox="0 0 1140 180" style="enable-background:new 0 0 1140 180;" xml:space="preserve">
<style type="text/css">
	.st0{fill:#273B6B;}
</style>
<g>
	<path class="st0" d="M339,134.1h1.1l2.9,3.7l2.9-3.7h1.1v7.7h-1.2v-5.7l-2.8,3.6l-2.8-3.6v5.7H339L339,134.1L339,134.1z"/>
	<path class="st0" d="M349.5,134.2c0.3,0,0.7,0.3,0.7,0.7s-0.3,0.7-0.7,0.7s-0.7-0.3-0.7-0.7S349.2,134.2,349.5,134.2z M349,136.5
		h1.1v5.3H349V136.5z"/>
	<path class="st0" d="M351.7,136.5h1.1v0.8c0.1-0.2,0.2-0.3,0.4-0.4c0.3-0.2,0.7-0.4,1.2-0.4c1.2,0,2.1,0.9,2.1,2.3v3.1h-1.1v-3.1
		c0-0.8-0.5-1.3-1.2-1.3c-0.8,0-1.4,0.6-1.4,1.5v2.9h-1.1V136.5L351.7,136.5z"/>
	<path class="st0" d="M362.8,136.4c1.5,0,2.8,1.2,2.8,2.8s-1.2,2.8-2.8,2.8s-2.8-1.2-2.8-2.8S361.2,136.4,362.8,136.4z M364.4,139.1
		c0-1-0.7-1.7-1.6-1.7s-1.6,0.7-1.6,1.7s0.7,1.7,1.6,1.7S364.4,140.1,364.4,139.1z"/>
	<path class="st0" d="M366.7,136.5h1.1v0.7c0.1-0.1,0.2-0.3,0.4-0.4c0.3-0.2,0.7-0.4,1.2-0.4h0.3v1.1l-0.1,0c-0.1,0-0.2,0-0.3,0
		c-0.8,0-1.4,0.7-1.4,1.6v2.7h-1.1L366.7,136.5L366.7,136.5z"/>
	<path class="st0" d="M374.5,141c-0.1,0.2-0.2,0.3-0.4,0.4c-0.3,0.2-0.8,0.4-1.4,0.4c-1.3,0-2.5-1.1-2.5-2.8s1.2-2.8,2.5-2.8
		c0.6,0,1.1,0.2,1.4,0.4c0.2,0.1,0.3,0.3,0.4,0.4v-3.2h1.1v7.7h-1.1V141z M374.5,139.1c0-1-0.7-1.7-1.6-1.7s-1.6,0.7-1.6,1.7
		s0.7,1.7,1.6,1.7S374.5,140.1,374.5,139.1z"/>
	<path class="st0" d="M381.9,140.9c-0.1,0.2-0.3,0.4-0.5,0.5c-0.4,0.2-0.9,0.5-1.7,0.5c-1.5,0-2.8-1.2-2.8-2.8s1.2-2.8,2.7-2.8
		s2.6,1.1,2.6,2.6c0,0.2,0,0.3,0,0.4l0,0.1h-4.1c0.1,0.7,0.8,1.3,1.6,1.3c0.5,0,0.9-0.2,1.1-0.4c0.1-0.1,0.3-0.2,0.4-0.4
		L381.9,140.9L381.9,140.9z M381,138.6c-0.2-0.7-0.6-1.2-1.4-1.2c-0.8,0-1.3,0.5-1.5,1.2H381z"/>
	<path class="st0" d="M383.4,136.5h1.1v0.7c0.1-0.1,0.2-0.3,0.4-0.4c0.3-0.2,0.7-0.4,1.2-0.4h0.3v1.1l-0.1,0c-0.1,0-0.2,0-0.3,0
		c-0.8,0-1.4,0.7-1.4,1.6v2.7h-1.1L383.4,136.5L383.4,136.5z"/>
	<path class="st0" d="M389.8,139.9c0.1,0.2,0.3,0.3,0.5,0.4c0.3,0.2,0.8,0.4,1.5,0.4c1,0,1.5-0.5,1.5-1.2c0-1.7-4.1-0.7-4.1-3.5
		c0-1.1,0.8-1.9,2-2.1v-1.1h1.1v1.1c0.6,0.1,1.1,0.3,1.4,0.6c0.2,0.1,0.4,0.3,0.5,0.4l-0.8,0.8c-0.1-0.1-0.2-0.2-0.4-0.4
		c-0.3-0.2-0.7-0.4-1.2-0.4c-0.9,0-1.4,0.5-1.4,1c0,1.7,4.1,0.7,4.1,3.5c0,1.2-0.9,2-2.1,2.2v1.1h-1.1v-1.1
		c-0.8-0.1-1.3-0.4-1.7-0.6c-0.2-0.1-0.4-0.3-0.5-0.5L389.8,139.9L389.8,139.9z"/>
	<path class="st0" d="M400.5,140.6v1.2h-5.2c0-3.5,4-3.6,4-5.4c0-0.7-0.5-1.2-1.4-1.2c-0.6,0-1,0.3-1.2,0.5
		c-0.1,0.1-0.2,0.3-0.3,0.5l-1-0.4c0.1-0.3,0.3-0.6,0.5-0.9c0.4-0.4,1-0.9,2-0.9c1.5,0,2.6,1,2.6,2.4c0,2.3-2.9,2.6-3.7,4.3
		L400.5,140.6L400.5,140.6z"/>
	<path class="st0" d="M401.7,137.9c0-2.5,1.4-4,3.2-4s3.2,1.4,3.2,4s-1.4,4-3.2,4S401.7,140.4,401.7,137.9z M404.9,135
		c-1,0-2,0.9-2,2.9s0.9,2.9,2,2.9s2-0.9,2-2.9S406,135,404.9,135z"/>
	<path class="st0" d="M409.2,141.1c0-0.4,0.3-0.7,0.7-0.7s0.7,0.3,0.7,0.7s-0.3,0.7-0.7,0.7S409.2,141.5,409.2,141.1z"/>
	<path class="st0" d="M413.6,134.1h1.3l2.4,6.2l2.4-6.2h1.3l-3,7.7h-1.3L413.6,134.1L413.6,134.1z"/>
	<path class="st0" d="M422.2,134.2c0.3,0,0.7,0.3,0.7,0.7s-0.3,0.7-0.7,0.7s-0.7-0.3-0.7-0.7S421.8,134.2,422.2,134.2z M421.6,136.5
		h1.1v5.3h-1.1V136.5z"/>
	<path class="st0" d="M424.5,140.2c0.1,0.1,0.2,0.3,0.4,0.4c0.2,0.2,0.6,0.4,1,0.4c0.6,0,0.9-0.3,0.9-0.7c0-0.9-2.8-0.4-2.8-2.3
		c0-0.8,0.7-1.5,1.9-1.5c0.6,0,1.1,0.2,1.4,0.4c0.2,0.1,0.3,0.2,0.5,0.4l-0.7,0.7c-0.1-0.1-0.2-0.1-0.3-0.2
		c-0.2-0.1-0.5-0.2-0.9-0.2c-0.6,0-0.8,0.3-0.8,0.6c0,0.9,2.8,0.4,2.8,2.3c0,0.9-0.8,1.6-2,1.6c-0.7,0-1.2-0.2-1.6-0.5
		c-0.2-0.1-0.4-0.3-0.5-0.5L424.5,140.2L424.5,140.2z"/>
	<path class="st0" d="M429.7,134.2c0.3,0,0.7,0.3,0.7,0.7s-0.3,0.7-0.7,0.7s-0.7-0.3-0.7-0.7S429.4,134.2,429.7,134.2z M429.2,136.5
		h1.1v5.3h-1.1V136.5z"/>
	<path class="st0" d="M432.4,137.5h-1v-1h0.6c0.3,0,0.5-0.2,0.5-0.6v-1.2h1v1.8h1.2v1h-1.2v2.5c0,0.6,0.2,0.8,0.8,0.8
		c0.2,0,0.3,0,0.4-0.1l0.2-0.1v1l-0.2,0.1c-0.1,0-0.3,0.1-0.6,0.1c-1.1,0-1.6-0.6-1.6-1.8L432.4,137.5L432.4,137.5z"/>
	<path class="st0" d="M438.6,134.1h1.1v7.7h-1.1V134.1z"/>
	<path class="st0" d="M443.7,136.4c1.5,0,2.8,1.2,2.8,2.8s-1.2,2.8-2.8,2.8s-2.8-1.2-2.8-2.8S442.1,136.4,443.7,136.4z M445.3,139.1
		c0-1-0.7-1.7-1.6-1.7s-1.6,0.7-1.6,1.7s0.7,1.7,1.6,1.7S445.3,140.1,445.3,139.1z"/>
	<path class="st0" d="M447.6,136.5h1.1v0.8c0.1-0.2,0.2-0.3,0.4-0.4c0.3-0.2,0.7-0.4,1.2-0.4c1.2,0,2.1,0.9,2.1,2.3v3.1h-1.1v-3.1
		c0-0.8-0.5-1.3-1.2-1.3c-0.8,0-1.4,0.6-1.4,1.5v2.9h-1.1V136.5L447.6,136.5z"/>
	<path class="st0" d="M458,141c-0.1,0.2-0.2,0.3-0.4,0.4c-0.3,0.2-0.8,0.4-1.4,0.4c-1.3,0-2.5-1.1-2.5-2.8s1.2-2.8,2.5-2.8
		c0.6,0,1.1,0.2,1.4,0.4c0.2,0.1,0.3,0.3,0.4,0.4v-3.2h1.1v7.7H458V141z M458,139.1c0-1-0.7-1.7-1.6-1.7s-1.6,0.7-1.6,1.7
		s0.7,1.7,1.6,1.7S458,140.1,458,139.1z"/>
	<path class="st0" d="M463.1,136.4c1.5,0,2.8,1.2,2.8,2.8s-1.2,2.8-2.8,2.8s-2.8-1.2-2.8-2.8S461.6,136.4,463.1,136.4z M464.8,139.1
		c0-1-0.7-1.7-1.6-1.7s-1.6,0.7-1.6,1.7s0.7,1.7,1.6,1.7S464.8,140.1,464.8,139.1z"/>
	<path class="st0" d="M467.1,136.5h1.1v0.8c0.1-0.2,0.2-0.3,0.4-0.4c0.3-0.2,0.7-0.4,1.2-0.4c1.2,0,2.1,0.9,2.1,2.3v3.1h-1.1v-3.1
		c0-0.8-0.5-1.3-1.2-1.3c-0.8,0-1.4,0.6-1.4,1.5v2.9h-1.1V136.5L467.1,136.5z"/>
	<path class="st0" d="M478.1,140.8c-0.2,0.2-0.4,0.4-0.6,0.6c-0.4,0.3-0.9,0.6-1.7,0.6c-1.5,0-2.8-1.2-2.8-2.8s1.2-2.8,2.8-2.8
		c0.8,0,1.3,0.3,1.7,0.5c0.2,0.1,0.4,0.3,0.5,0.5l-0.8,0.7c-0.1-0.1-0.2-0.2-0.4-0.4c-0.2-0.2-0.6-0.4-1.1-0.4
		c-0.9,0-1.6,0.7-1.6,1.7s0.7,1.7,1.6,1.7c0.5,0,0.8-0.2,1.1-0.4c0.1-0.1,0.3-0.2,0.4-0.4L478.1,140.8L478.1,140.8z"/>
	<path class="st0" d="M482.2,141c-0.1,0.2-0.2,0.3-0.4,0.4c-0.3,0.2-0.7,0.4-1.3,0.4c-1.1,0-1.8-0.7-1.8-1.5c0-0.9,0.6-1.5,1.5-1.6
		l1.9-0.3c0-0.6-0.4-1-1.1-1c-0.4,0-0.8,0.2-1,0.4c-0.1,0.1-0.3,0.2-0.4,0.4l-0.7-0.7c0.1-0.2,0.3-0.4,0.5-0.5
		c0.4-0.2,0.9-0.5,1.6-0.5c1.3,0,2.2,0.9,2.2,2v3.4h-1.1L482.2,141L482.2,141z M482.2,139.2l-1.5,0.3c-0.6,0.1-0.8,0.4-0.8,0.7
		c0,0.4,0.3,0.7,0.9,0.7c0.8,0,1.5-0.7,1.5-1.5V139.2L482.2,139.2z"/>
	<path class="st0" d="M484.9,134.1h1.1v7.7h-1.1V134.1z"/>
	<path class="st0" d="M487.7,134.1h1.1v7.7h-1.1V134.1z"/>
	<path class="st0" d="M491,134.2c0.3,0,0.7,0.3,0.7,0.7s-0.3,0.7-0.7,0.7s-0.7-0.3-0.7-0.7S490.6,134.2,491,134.2z M490.4,136.5h1.1
		v5.3h-1.1V136.5z"/>
	<path class="st0" d="M493.1,136.5h1.1v0.8c0.1-0.2,0.2-0.3,0.4-0.4c0.3-0.2,0.7-0.4,1.2-0.4c1.2,0,2.1,0.9,2.1,2.3v3.1h-1.1v-3.1
		c0-0.8-0.5-1.3-1.2-1.3c-0.8,0-1.4,0.6-1.4,1.5v2.9h-1.1V136.5L493.1,136.5z"/>
	<path class="st0" d="M500.1,142.2c0.1,0.1,0.2,0.3,0.4,0.4c0.2,0.2,0.6,0.4,1.1,0.4c1,0,1.6-0.6,1.6-1.7v-0.5
		c-0.1,0.1-0.2,0.3-0.4,0.4c-0.3,0.2-0.7,0.4-1.3,0.4c-1.3,0-2.4-1.1-2.4-2.6s1.1-2.6,2.4-2.6c0.6,0,1,0.2,1.3,0.4
		c0.2,0.1,0.3,0.3,0.4,0.4v-0.7h1.1v4.8c0,1.6-1.2,2.8-2.8,2.8c-0.8,0-1.3-0.3-1.7-0.6c-0.2-0.2-0.4-0.3-0.6-0.6L500.1,142.2
		L500.1,142.2z M503.2,139c0-0.9-0.7-1.6-1.5-1.6s-1.5,0.7-1.5,1.6s0.7,1.6,1.5,1.6S503.2,139.9,503.2,139z"/>
	<path class="st0" d="M505.6,141.1c0-0.4,0.3-0.7,0.7-0.7s0.7,0.3,0.7,0.7s-0.3,0.7-0.7,0.7S505.6,141.5,505.6,141.1z"/>
	<path class="st0" d="M513,140.8c-0.2,0.2-0.3,0.4-0.6,0.6c-0.4,0.3-0.9,0.6-1.7,0.6c-1.5,0-2.8-1.2-2.8-2.8s1.2-2.8,2.8-2.8
		c0.8,0,1.3,0.3,1.7,0.5c0.2,0.1,0.4,0.3,0.5,0.5l-0.8,0.7c-0.1-0.1-0.2-0.2-0.4-0.4c-0.2-0.2-0.6-0.4-1.1-0.4
		c-0.9,0-1.6,0.7-1.6,1.7s0.7,1.7,1.6,1.7c0.5,0,0.8-0.2,1.1-0.4c0.1-0.1,0.3-0.2,0.4-0.4L513,140.8L513,140.8z"/>
	<path class="st0" d="M516.3,136.4c1.5,0,2.8,1.2,2.8,2.8s-1.2,2.8-2.8,2.8s-2.8-1.2-2.8-2.8S514.8,136.4,516.3,136.4z M518,139.1
		c0-1-0.7-1.7-1.7-1.7s-1.7,0.7-1.7,1.7s0.7,1.7,1.7,1.7S518,140.1,518,139.1z"/>
	<path class="st0" d="M520.3,136.5h1.1v0.8c0.1-0.2,0.2-0.3,0.3-0.4c0.2-0.2,0.6-0.4,1.2-0.4s1,0.2,1.2,0.4c0.2,0.1,0.3,0.3,0.4,0.4
		c0.1-0.2,0.2-0.3,0.4-0.4c0.3-0.2,0.8-0.4,1.4-0.4c1,0,1.9,0.9,1.9,2.2v3.1h-1.1v-3.1c0-0.8-0.5-1.2-1.1-1.2
		c-0.7,0-1.3,0.6-1.3,1.4v2.9h-1.1v-3.1c0-0.8-0.5-1.2-1.1-1.2c-0.7,0-1.3,0.6-1.3,1.4v2.9h-1.1V136.5L520.3,136.5z"/>
	<path class="st0" d="M532.6,137.5h-0.8v-1h0.8v-0.8c0-1.2,0.6-1.8,1.7-1.8c0.2,0,0.5,0,0.6,0.1c0.1,0,0.2,0.1,0.2,0.1v1l-0.2-0.1
		c-0.1,0-0.3-0.1-0.4-0.1c-0.5,0-0.8,0.3-0.8,0.8v0.7h1.3v1h-1.3v4.2h-1.1L532.6,137.5L532.6,137.5z"/>
	<path class="st0" d="M538.5,136.4c1.5,0,2.8,1.2,2.8,2.8s-1.2,2.8-2.8,2.8s-2.8-1.2-2.8-2.8S536.9,136.4,538.5,136.4z M540.1,139.1
		c0-1-0.7-1.7-1.7-1.7s-1.7,0.7-1.7,1.7s0.7,1.7,1.7,1.7S540.1,140.1,540.1,139.1z"/>
	<path class="st0" d="M542.4,136.5h1.1v0.7c0.1-0.1,0.2-0.3,0.4-0.4c0.3-0.2,0.7-0.4,1.2-0.4h0.3v1.1l-0.1,0c-0.1,0-0.2,0-0.3,0
		c-0.8,0-1.4,0.7-1.4,1.6v2.7h-1.1L542.4,136.5L542.4,136.5z"/>
	<path class="st0" d="M548.8,137.5H548v-1h0.8v-0.8c0-1.2,0.6-1.8,1.7-1.8c0.2,0,0.5,0,0.6,0.1c0.1,0,0.2,0.1,0.2,0.1v1l-0.2-0.1
		c-0.1,0-0.3-0.1-0.4-0.1c-0.5,0-0.8,0.3-0.8,0.8v0.7h1.3v1h-1.3v4.2h-1.1L548.8,137.5L548.8,137.5z"/>
	<path class="st0" d="M552.3,136.5h1.1v3.1c0,0.8,0.5,1.3,1.2,1.3c0.8,0,1.4-0.6,1.4-1.5v-2.9h1.1v5.3H556V141
		c-0.1,0.2-0.2,0.3-0.4,0.4c-0.3,0.2-0.7,0.4-1.2,0.4c-1.2,0-2.1-0.9-2.1-2.3V136.5L552.3,136.5z"/>
	<path class="st0" d="M558.7,134.1h1.1v7.7h-1.1V134.1z"/>
	<path class="st0" d="M561.5,134.1h1.1v7.7h-1.1V134.1z"/>
	<path class="st0" d="M568.3,135.2H566v-1.2h5.8v1.2h-2.3v6.6h-1.2V135.2z"/>
	<path class="st0" d="M576.8,139.6c0.1-0.1,0.2-0.3,0.2-0.4c0.1-0.3,0.2-0.7,0.2-1.1h1c0,0.7-0.2,1.2-0.4,1.7
		c-0.1,0.2-0.2,0.5-0.3,0.7c0.1,0.1,0.2,0.2,0.2,0.2c0.2,0.1,0.4,0.2,0.6,0.2c0.1,0,0.2,0,0.2,0l0.1,0v1l-0.1,0c-0.1,0-0.2,0-0.4,0
		c-0.4,0-0.7-0.2-1-0.4c-0.1-0.1-0.2-0.2-0.3-0.4c-0.2,0.1-0.3,0.3-0.5,0.4c-0.4,0.2-0.9,0.4-1.5,0.4c-1.4,0-2.2-0.9-2.2-2
		c0-0.8,0.3-1.3,0.7-1.7c0.2-0.2,0.5-0.4,0.8-0.5c-0.2-0.2-0.4-0.4-0.5-0.6c-0.3-0.4-0.5-0.9-0.5-1.4c0-1,0.8-1.8,1.9-1.8
		s1.9,0.8,1.9,1.7c0,0.6-0.3,1.1-0.7,1.5c-0.2,0.2-0.4,0.4-0.7,0.6L576.8,139.6L576.8,139.6z M574.6,138.4c-0.2,0.1-0.3,0.3-0.5,0.4
		c-0.2,0.3-0.5,0.6-0.5,1.1c0,0.6,0.5,1,1.2,1c0.4,0,0.8-0.1,1-0.3c0.1-0.1,0.2-0.2,0.4-0.3L574.6,138.4z M575.2,136.6
		c0.2-0.3,0.4-0.6,0.4-0.9c0-0.4-0.3-0.8-0.8-0.8c-0.6,0-0.9,0.3-0.9,0.8c0,0.3,0.2,0.6,0.4,0.9c0.1,0.1,0.3,0.3,0.4,0.5
		C575,136.9,575.1,136.8,575.2,136.6L575.2,136.6z"/>
	<path class="st0" d="M586.7,140.3c-0.2,0.3-0.5,0.5-0.8,0.8c-0.5,0.4-1.3,0.8-2.4,0.8c-2.3,0-4.1-1.8-4.1-4s1.8-4,4.1-4
		c1.1,0,1.8,0.4,2.3,0.8c0.3,0.2,0.6,0.5,0.8,0.7l-0.8,0.8c-0.2-0.2-0.3-0.4-0.6-0.6c-0.4-0.3-1-0.6-1.8-0.6c-1.6,0-2.9,1.3-2.9,2.9
		s1.3,2.9,2.9,2.9c0.8,0,1.4-0.3,1.8-0.6c0.2-0.2,0.5-0.4,0.6-0.6L586.7,140.3L586.7,140.3z"/>
	<path class="st0" d="M588,140.2c0.1,0.1,0.2,0.3,0.4,0.4c0.2,0.2,0.6,0.4,1,0.4c0.6,0,0.9-0.3,0.9-0.7c0-0.9-2.8-0.4-2.8-2.3
		c0-0.8,0.7-1.5,1.9-1.5c0.6,0,1.1,0.2,1.4,0.4c0.2,0.1,0.3,0.2,0.5,0.4l-0.7,0.7c-0.1-0.1-0.2-0.1-0.3-0.2
		c-0.2-0.1-0.5-0.2-0.8-0.2c-0.6,0-0.8,0.3-0.8,0.6c0,0.9,2.8,0.4,2.8,2.3c0,0.9-0.8,1.6-2,1.6c-0.7,0-1.2-0.2-1.6-0.5
		c-0.2-0.1-0.4-0.3-0.5-0.5L588,140.2L588,140.2z"/>
	<path class="st0" d="M592.3,141.1c0-0.4,0.3-0.7,0.7-0.7s0.7,0.3,0.7,0.7s-0.3,0.7-0.7,0.7S592.3,141.5,592.3,141.1z"/>
	<path class="st0" d="M348.5,147.9h1.1l4.2,5.7v-5.7h1.2v7.7H354l-4.2-5.7v5.7h-1.2L348.5,147.9L348.5,147.9z"/>
	<path class="st0" d="M357.3,153.7c0.1,0.2,0.3,0.3,0.5,0.4c0.3,0.2,0.8,0.4,1.5,0.4c1,0,1.5-0.5,1.5-1.2c0-1.7-4.1-0.7-4.1-3.5
		c0-1.2,1-2.1,2.6-2.1c0.8,0,1.4,0.2,1.8,0.5c0.2,0.1,0.5,0.3,0.6,0.5l-0.8,0.8c-0.1-0.1-0.2-0.2-0.4-0.4c-0.3-0.2-0.7-0.4-1.2-0.4
		c-0.9,0-1.4,0.5-1.4,1c0,1.7,4.1,0.7,4.1,3.5c0,1.2-1,2.2-2.8,2.2c-0.9,0-1.6-0.3-2.1-0.6c-0.3-0.2-0.5-0.4-0.7-0.6L357.3,153.7
		L357.3,153.7z"/>
	<path class="st0" d="M362.5,147.9h1.3l1.9,5.8l1.8-5.8h1.2l1.8,5.8l1.9-5.8h1.3l-2.5,7.7h-1.2l-1.8-5.8l-1.8,5.8H365L362.5,147.9
		L362.5,147.9z"/>
	<path class="st0" d="M378.3,149.1H376v-1.2h5.8v1.2h-2.3v6.6h-1.2V149.1z"/>
	<path class="st0" d="M383.1,147.9h3.1c1.5,0,2.6,1.1,2.6,2.5s-1.1,2.5-2.6,2.5h-1.9v2.8h-1.2V147.9z M386.2,151.8
		c0.8,0,1.4-0.6,1.4-1.4s-0.6-1.4-1.4-1.4h-1.9v2.8L386.2,151.8L386.2,151.8z"/>
	<path class="st0" d="M392.6,147.8h1l-3.3,10.1h-1L392.6,147.8z"/>
	<path class="st0" d="M394.2,151.8c0-2.5,1.4-4,3.2-4s3.2,1.4,3.2,4s-1.4,4-3.2,4S394.2,154.3,394.2,151.8z M397.4,148.9
		c-1,0-2,0.9-2,2.9s0.9,2.9,2,2.9s2-0.9,2-2.9S398.4,148.9,397.4,148.9z"/>
	<path class="st0" d="M406.7,154.4v1.2h-5.2c0-3.5,4-3.6,4-5.4c0-0.7-0.5-1.2-1.4-1.2c-0.6,0-1,0.3-1.2,0.5
		c-0.1,0.1-0.2,0.3-0.3,0.5l-1-0.4c0.1-0.3,0.3-0.6,0.5-0.9c0.4-0.4,1-0.9,2-0.9c1.5,0,2.6,1,2.6,2.4c0,2.3-2.9,2.6-3.7,4.3
		L406.7,154.4L406.7,154.4z"/>
	<path class="st0" d="M407.9,151.8c0-2.5,1.4-4,3.2-4s3.2,1.4,3.2,4s-1.4,4-3.2,4S407.9,154.3,407.9,151.8z M411.1,148.9
		c-1,0-2,0.9-2,2.9s0.9,2.9,2,2.9s2-0.9,2-2.9S412.2,148.9,411.1,148.9z"/>
	<path class="st0" d="M418.2,147.9h1.3l-1.8,2.7l0.1,0c0.1,0,0.2,0,0.4,0c1.5,0,2.6,1.1,2.6,2.6s-1.2,2.6-2.8,2.6s-2.8-1.1-2.8-2.6
		c0-0.4,0.1-0.9,0.3-1.2c0.1-0.2,0.2-0.4,0.3-0.5L418.2,147.9z M418.2,154.6c0.9,0,1.5-0.7,1.5-1.5s-0.7-1.5-1.5-1.5
		s-1.5,0.7-1.5,1.5S417.3,154.6,418.2,154.6z"/>
	<path class="st0" d="M427,154.4v1.2h-5.2c0-3.5,4-3.6,4-5.4c0-0.7-0.5-1.2-1.4-1.2c-0.6,0-1,0.3-1.2,0.5c-0.1,0.1-0.2,0.3-0.3,0.5
		l-1-0.4c0.1-0.3,0.3-0.6,0.5-0.9c0.4-0.4,1-0.9,2-0.9c1.5,0,2.6,1,2.6,2.4c0,2.3-2.9,2.6-3.7,4.3L427,154.4L427,154.4z"/>
	<path class="st0" d="M428.1,155c0-0.4,0.3-0.7,0.7-0.7s0.7,0.3,0.7,0.7s-0.3,0.7-0.7,0.7S428.1,155.4,428.1,155z"/>
	<path class="st0" d="M435.5,147.9h1.3l3.1,7.7h-1.3l-0.8-2h-3.4l-0.8,2h-1.3L435.5,147.9z M437.4,152.5l-1.3-3.2l-1.3,3.2H437.4
		L437.4,152.5z"/>
	<path class="st0" d="M447.6,154.2c-0.2,0.3-0.5,0.5-0.8,0.8c-0.5,0.4-1.3,0.8-2.4,0.8c-2.3,0-4.1-1.8-4.1-4s1.8-4,4.1-4
		c1.1,0,1.8,0.4,2.4,0.8c0.3,0.2,0.6,0.5,0.8,0.7l-0.8,0.8c-0.1-0.2-0.4-0.4-0.6-0.6c-0.4-0.3-1-0.6-1.8-0.6c-1.6,0-2.9,1.3-2.9,2.9
		s1.3,2.9,2.9,2.9c0.8,0,1.4-0.3,1.8-0.6c0.2-0.2,0.5-0.4,0.6-0.6L447.6,154.2L447.6,154.2z"/>
	<path class="st0" d="M450.5,149.1h-2.3v-1.2h5.8v1.2h-2.3v6.6h-1.2V149.1z"/>
	<path class="st0" d="M458.8,149.1h-2.3v-1.2h5.8v1.2H460v6.6h-1.2V149.1z"/>
	<path class="st0" d="M463.6,147.9h3.1c1.5,0,2.6,1.1,2.6,2.5s-1.1,2.5-2.6,2.5h-1.9v2.8h-1.2V147.9z M466.7,151.8
		c0.8,0,1.4-0.6,1.4-1.4s-0.6-1.4-1.4-1.4h-1.9v2.8L466.7,151.8L466.7,151.8z"/>
	<path class="st0" d="M477.3,154.4v1.2h-5.2c0-3.5,4-3.6,4-5.4c0-0.7-0.5-1.2-1.4-1.2c-0.6,0-1,0.3-1.2,0.5
		c-0.1,0.1-0.2,0.3-0.3,0.5l-1-0.4c0.1-0.3,0.3-0.6,0.5-0.9c0.4-0.4,1-0.9,2-0.9c1.5,0,2.6,1,2.6,2.4c0,2.3-2.9,2.6-3.7,4.3
		L477.3,154.4L477.3,154.4z"/>
	<path class="st0" d="M483.5,154.4v1.2h-5.2c0-3.5,4-3.6,4-5.4c0-0.7-0.5-1.2-1.4-1.2c-0.6,0-1,0.3-1.2,0.5
		c-0.1,0.1-0.2,0.3-0.3,0.5l-1-0.4c0.1-0.3,0.3-0.6,0.5-0.9c0.4-0.4,1-0.9,2-0.9c1.5,0,2.6,1,2.6,2.4c0,2.3-2.9,2.6-3.7,4.3
		L483.5,154.4L483.5,154.4z"/>
	<path class="st0" d="M487.4,147.8h1l-3.3,10.1h-1L487.4,147.8z"/>
	<path class="st0" d="M489,151.8c0-2.5,1.4-4,3.2-4s3.2,1.4,3.2,4s-1.4,4-3.2,4S489,154.3,489,151.8z M492.1,148.9c-1,0-2,0.9-2,2.9
		s0.9,2.9,2,2.9s2-0.9,2-2.9S493.2,148.9,492.1,148.9z"/>
	<path class="st0" d="M497.7,149.7h-1.4v-0.8c1-0.1,1.4-0.5,1.6-1h0.9v7.7h-1.2L497.7,149.7L497.7,149.7z"/>
	<path class="st0" d="M501.3,153.7c0.1,0.2,0.3,0.3,0.5,0.4c0.3,0.2,0.8,0.4,1.4,0.4c1,0,1.6-0.6,1.6-1.5s-0.6-1.5-1.6-1.5
		c-0.5,0-0.8,0.2-1.1,0.4c-0.1,0.1-0.3,0.2-0.4,0.4l-0.9-0.1l0.3-4.4h4.4v1.2h-3.3l-0.1,1.9c0.1-0.1,0.2-0.1,0.4-0.2
		c0.2-0.1,0.5-0.2,1-0.2c1.5,0,2.6,1.1,2.6,2.6s-1.1,2.6-2.8,2.6c-0.9,0-1.6-0.3-2-0.6c-0.3-0.2-0.5-0.4-0.7-0.6L501.3,153.7
		L501.3,153.7z"/>
	<path class="st0" d="M511.8,154.4v1.2h-5.2c0-3.5,4-3.6,4-5.4c0-0.7-0.5-1.2-1.4-1.2c-0.6,0-1,0.3-1.2,0.5
		c-0.1,0.1-0.2,0.3-0.3,0.5l-1-0.4c0.1-0.3,0.3-0.6,0.5-0.9c0.4-0.4,1-0.9,2-0.9c1.5,0,2.6,1,2.6,2.4c0,2.3-2.9,2.6-3.7,4.3
		L511.8,154.4L511.8,154.4z"/>
	<path class="st0" d="M514.2,149.7h-1.4v-0.8c1-0.1,1.4-0.5,1.7-1h0.9v7.7h-1.2L514.2,149.7L514.2,149.7z"/>
	<path class="st0" d="M517,155c0-0.4,0.3-0.7,0.7-0.7s0.7,0.3,0.7,0.7s-0.3,0.7-0.7,0.7S517,155.4,517,155z"/>
	<path class="st0" d="M522.4,153.7c0.1,0.2,0.3,0.3,0.5,0.4c0.3,0.2,0.8,0.4,1.5,0.4c1,0,1.5-0.5,1.5-1.2c0-1.7-4.1-0.7-4.1-3.5
		c0-1.2,1-2.1,2.6-2.1c0.8,0,1.4,0.2,1.8,0.5c0.2,0.1,0.5,0.3,0.6,0.5l-0.8,0.8c-0.1-0.1-0.2-0.2-0.4-0.4c-0.3-0.2-0.7-0.4-1.2-0.4
		c-0.9,0-1.4,0.5-1.4,1c0,1.7,4.1,0.7,4.1,3.5c0,1.2-1,2.2-2.8,2.2c-0.9,0-1.6-0.3-2.1-0.6c-0.3-0.2-0.5-0.4-0.7-0.6L522.4,153.7
		L522.4,153.7z"/>
	<path class="st0" d="M530.7,147.9h1.3l3.1,7.7h-1.3l-0.8-2h-3.4l-0.8,2h-1.3L530.7,147.9z M532.6,152.5l-1.3-3.2l-1.3,3.2H532.6z"
		/>
	<path class="st0" d="M539.7,149.1h-2.3v-1.2h5.8v1.2h-2.3v6.6h-1.2V149.1z"/>
	<path class="st0" d="M549,154.4v1.2h-5.2c0-3.5,4-3.6,4-5.4c0-0.7-0.5-1.2-1.4-1.2c-0.6,0-1,0.3-1.2,0.5c-0.1,0.1-0.2,0.3-0.3,0.5
		l-1-0.4c0.1-0.3,0.3-0.6,0.5-0.9c0.4-0.4,1-0.9,2-0.9c1.5,0,2.6,1,2.6,2.4c0,2.3-2.9,2.6-3.7,4.3L549,154.4L549,154.4z"/>
	<path class="st0" d="M555.2,154.4v1.2H550c0-3.5,4-3.6,4-5.4c0-0.7-0.5-1.2-1.4-1.2c-0.6,0-1,0.3-1.2,0.5c-0.1,0.1-0.2,0.3-0.3,0.5
		l-1-0.4c0.1-0.3,0.3-0.6,0.5-0.9c0.4-0.4,1-0.9,2-0.9c1.5,0,2.6,1,2.6,2.4c0,2.3-2.9,2.6-3.7,4.3L555.2,154.4L555.2,154.4z"/>
	<path class="st0" d="M559.1,147.8h1l-3.3,10.1h-1L559.1,147.8z"/>
	<path class="st0" d="M561.8,149.7h-1.4v-0.8c1-0.1,1.4-0.5,1.7-1h0.9v7.7h-1.2V149.7z"/>
	<path class="st0" d="M565.9,149.7h-1.4v-0.8c1-0.1,1.4-0.5,1.7-1h0.9v7.7h-1.2L565.9,149.7L565.9,149.7z"/>
	<path class="st0" d="M571.8,152.9l-0.1,0c-0.1,0-0.2,0-0.4,0c-1.5,0-2.6-1.2-2.6-2.6s1.2-2.6,2.8-2.6s2.8,1.2,2.8,2.6
		c0,0.4-0.1,0.9-0.3,1.2c-0.1,0.2-0.2,0.4-0.3,0.5l-2.3,3.5h-1.3L571.8,152.9L571.8,152.9z M571.5,151.9c0.9,0,1.5-0.7,1.5-1.5
		s-0.7-1.5-1.5-1.5s-1.5,0.7-1.5,1.5S570.6,151.9,571.5,151.9z"/>
	<path class="st0" d="M575.3,151.8c0-2.5,1.4-4,3.2-4s3.2,1.4,3.2,4s-1.4,4-3.2,4S575.3,154.3,575.3,151.8z M578.5,148.9
		c-1,0-2,0.9-2,2.9s0.9,2.9,2,2.9s2-0.9,2-2.9S579.5,148.9,578.5,148.9z"/>
	<path class="st0" d="M582.8,155c0-0.4,0.3-0.7,0.7-0.7s0.7,0.3,0.7,0.7s-0.3,0.7-0.7,0.7S582.8,155.4,582.8,155z"/>
</g>
</svg>
