<?xml version="1.0" encoding="utf-8"?>
<!-- Generator: Adobe Illustrator 26.5.0, SVG Export Plug-In . SVG Version: 6.00 Build 0)  -->
<svg version="1.1" id="Layer_3" xmlns="http://www.w3.org/2000/svg" xmlns:xlink="http://www.w3.org/1999/xlink" x="0px" y="0px"
	 viewBox="0 0 1140 180" style="enable-background:new 0 0 1140 180;" xml:space="preserve">
<style type="text/css">
	.st0{fill:#27346B;}
</style>
<g>
	<g>
		<path class="st0" d="M514.8,42.3c-12.3,0-23.6,1.5-23.6,1.5v37.6c0,5,2,8.6,5.8,10.8l17.8,10.3l17.8-10.3
			c3.8-2.2,5.8-5.8,5.8-10.8V43.8C538.4,43.8,527.1,42.3,514.8,42.3z M536.9,81.4v0.2c0,0.4,0,0.6,0,0.9c-0.3,3.8-1.9,6.6-5,8.3
			l-17,9.8l-17-9.8c-3.1-1.8-4.7-4.5-5-8.3l0,0c0-0.3,0-0.5,0-0.9v-5.9l0,0V65.2l0,0V45.2c0,0,10.7-1.3,22.1-1.3s22.1,1.3,22.1,1.3
			V81.4L536.9,81.4z"/>
		<path class="st0" d="M494.3,46.5v19.6l20.6,11.9l20.6-11.9V46.5c0,0-10.2-1.2-20.6-1.2S494.3,46.5,494.3,46.5L494.3,46.5z
			 M522.4,50.3h3.1v9.5h6.2v2.7h-7.4c0,0-1-1.2-2-2.3L522.4,50.3L522.4,50.3z M520.8,54.5c0,1.6-0.7,2.9-1.8,3.6
			c0.4,0.5,3.6,4.4,3.6,4.4h-3.9l-3-3.6h-1.5v3.6h-3.1v-8.2h3.1v1.9h1.9c1,0,1.6-0.6,1.6-1.6c0-1.1-0.6-1.7-1.8-1.7h-6.6v9.6h-2.9
			l-4.3-6.8h0v6.8h-3V50.3h2.9l4.2,6.8h0.1v-6.8h9.9C519,50.3,520.8,51.9,520.8,54.5L520.8,54.5z"/>
		<polygon class="st0" points="494.3,72.9 494.3,76.6 514.8,88.4 535.4,76.6 535.4,72.9 514.8,84.8 		"/>
		<path class="st0" d="M494.5,83.5c0.4,2.7,1.8,4.8,4.1,6.1l16.3,9.4l16.3-9.4c2.3-1.3,3.7-3.3,4.1-6.1l-20.4,11.8L494.5,83.5
			L494.5,83.5z"/>
	</g>
	<g>
		<path class="st0" d="M559,50.9c3.1,0,5.5,2.4,5.5,5.3s-2.4,5.3-5.5,5.3s-5.5-2.4-5.5-5.3S555.9,50.9,559,50.9z M559,59.4
			c1.8,0,3.2-1.4,3.2-3.2s-1.5-3.2-3.2-3.2s-3.2,1.4-3.2,3.2S557.2,59.4,559,59.4z"/>
		<path class="st0" d="M566.7,51.1h7.4v2h-5.3v2.4h4.1v2h-4.1v3.7h-2.2V51.1L566.7,51.1z"/>
		<path class="st0" d="M576.1,51.1h7.4v2h-5.3v2.4h4.1v2h-4.1v3.7h-2.2V51.1L576.1,51.1z"/>
		<path class="st0" d="M585.4,51.1h2.2v10.1h-2.2V51.1z"/>
		<path class="st0" d="M599.6,59.4c-0.3,0.4-0.7,0.7-1.1,1c-0.7,0.5-1.8,1-3.2,1c-3.1,0-5.5-2.4-5.5-5.3s2.4-5.3,5.5-5.3
			c1.4,0,2.5,0.5,3.2,1c0.4,0.3,0.8,0.6,1.1,1l-1.5,1.4c-0.2-0.3-0.5-0.5-0.7-0.7c-0.5-0.4-1.2-0.7-2.1-0.7c-1.8,0-3.2,1.4-3.2,3.2
			s1.5,3.2,3.2,3.2c0.9,0,1.7-0.4,2.2-0.7c0.3-0.2,0.5-0.5,0.7-0.7L599.6,59.4L599.6,59.4z"/>
		<path class="st0" d="M601.5,51.1h2.2v10.1h-2.2V51.1z"/>
		<path class="st0" d="M609.1,51.1h2.5l3.9,10.1h-2.3l-0.9-2.3h-3.9l-0.9,2.3h-2.3L609.1,51.1L609.1,51.1z M611.6,56.9l-1.2-3.3
			h-0.1l-1.2,3.3H611.6z"/>
		<path class="st0" d="M617.1,51.1h2.2v8.1h4.7v2h-6.9L617.1,51.1L617.1,51.1z"/>
		<path class="st0" d="M554.2,65.7h3.7c3.1,0,5.3,2.2,5.3,5.1s-2.2,5.1-5.3,5.1h-3.7C554.2,75.8,554.2,65.7,554.2,65.7z M557.9,73.8
			c1.8,0,3.1-1.3,3.1-3s-1.3-3-3.1-3h-1.5v6.1L557.9,73.8L557.9,73.8z"/>
		<path class="st0" d="M565.4,65.7h7.5v2h-5.3v1.9h4.2v1.9h-4.2v2.2h5.5v2h-7.7L565.4,65.7L565.4,65.7z"/>
		<path class="st0" d="M575.4,65.7h2.2v8.1h4.7v2h-6.9L575.4,65.7L575.4,65.7z"/>
		<path class="st0" d="M583.9,65.7h2.2v10.1h-2.2V65.7z"/>
		<path class="st0" d="M587.7,65.7h2.3l2.6,7.4h0.1l2.6-7.4h2.3l-3.8,10.1h-2.5L587.7,65.7L587.7,65.7z"/>
		<path class="st0" d="M599.4,65.7h7.5v2h-5.3v1.9h4.2v1.9h-4.2v2.2h5.5v2h-7.7L599.4,65.7L599.4,65.7z"/>
		<path class="st0" d="M609.3,65.7h4.5c2.2,0,3.5,1.4,3.5,3.4c0,1.2-0.4,1.9-0.9,2.4c-0.2,0.3-0.5,0.5-0.9,0.6l2.1,3.8h-2.4
			l-1.8-3.3h-2v3.3h-2.2L609.3,65.7L609.3,65.7z M613.7,70.5c0.8,0,1.4-0.6,1.4-1.4s-0.6-1.4-1.4-1.4h-2.2v2.8L613.7,70.5
			L613.7,70.5z"/>
		<path class="st0" d="M621.9,72.2l-3.8-6.5h2.5l2.4,4.3h0.1l2.3-4.3h2.5l-3.8,6.5v3.6h-2.2V72.2z"/>
		<path class="st0" d="M632.7,65.7h4.3c2.2,0,3.6,1.4,3.6,3.4s-1.5,3.4-3.6,3.4h-2.1v3.3h-2.2L632.7,65.7L632.7,65.7z M636.8,70.5
			c0.9,0,1.5-0.6,1.5-1.4s-0.6-1.4-1.5-1.4h-2v2.8L636.8,70.5L636.8,70.5z"/>
		<path class="st0" d="M644.7,65.7h2.5l3.9,10.1h-2.3l-0.9-2.3H644l-0.9,2.3h-2.3L644.7,65.7L644.7,65.7z M647.1,71.5l-1.2-3.3h-0.1
			l-1.2,3.3H647.1z"/>
		<path class="st0" d="M652.6,65.7h4.5c2.2,0,3.5,1.4,3.5,3.4c0,1.2-0.4,1.9-0.9,2.4c-0.2,0.3-0.5,0.5-0.9,0.6l2.1,3.8h-2.4
			l-1.8-3.3h-2v3.3h-2.2L652.6,65.7L652.6,65.7z M657,70.5c0.8,0,1.4-0.6,1.4-1.4s-0.6-1.4-1.4-1.4h-2.2v2.8L657,70.5L657,70.5z"/>
		<path class="st0" d="M664.9,67.7H662v-2h8v2h-2.9v8.1h-2.2V67.7z"/>
		<path class="st0" d="M671.7,65.7h2l4.9,6.3v-6.3h2.2v10.1h-2l-4.9-6.3v6.3h-2.2V65.7z"/>
		<path class="st0" d="M683.5,65.7h7.5v2h-5.3v1.9h4.2v1.9h-4.2v2.2h5.5v2h-7.7L683.5,65.7L683.5,65.7z"/>
		<path class="st0" d="M693.5,65.7h4.5c2.2,0,3.5,1.4,3.5,3.4c0,1.2-0.4,1.9-0.9,2.4c-0.2,0.3-0.5,0.5-0.9,0.6l2.1,3.8h-2.4
			l-1.8-3.3h-2v3.3h-2.2L693.5,65.7L693.5,65.7z M697.9,70.5c0.8,0,1.4-0.6,1.4-1.4s-0.6-1.4-1.4-1.4h-2.2v2.8L697.9,70.5
			L697.9,70.5z"/>
		<path class="st0" d="M559,80.1c3.1,0,5.5,2.4,5.5,5.3s-2.4,5.3-5.5,5.3s-5.5-2.4-5.5-5.3S555.9,80.1,559,80.1z M559,88.6
			c1.8,0,3.2-1.4,3.2-3.2s-1.5-3.2-3.2-3.2s-3.2,1.4-3.2,3.2S557.2,88.6,559,88.6z"/>
		<path class="st0" d="M566.7,80.3h7.4v2h-5.3v2.4h4.1v2h-4.1v3.7h-2.2V80.3L566.7,80.3z"/>
		<path class="st0" d="M581.4,82.3h-2.9v-2h8v2h-2.9v8.1h-2.2C581.4,90.4,581.4,82.3,581.4,82.3z"/>
		<path class="st0" d="M588.2,80.3h2.2v4h4.3v-4h2.2v10.1h-2.2v-4.1h-4.3v4.1h-2.2V80.3z"/>
		<path class="st0" d="M599.7,80.3h7.5v2h-5.3v1.9h4.2v1.9h-4.2v2.2h5.5v2h-7.7L599.7,80.3L599.7,80.3z"/>
		<path class="st0" d="M612.8,80.3h2l4.9,6.3v-6.3h2.2v10.1h-2l-4.9-6.3v6.3h-2.2V80.3z"/>
		<path class="st0" d="M624.7,80.3h4.5c2.2,0,3.5,1.4,3.5,3.4c0,1.2-0.4,1.9-0.9,2.4c-0.2,0.3-0.5,0.5-0.9,0.6l2.1,3.8h-2.4
			l-1.8-3.3h-2v3.3h-2.2L624.7,80.3L624.7,80.3z M629.1,85.1c0.8,0,1.4-0.6,1.4-1.4s-0.6-1.4-1.4-1.4h-2.2v2.8L629.1,85.1
			L629.1,85.1z"/>
		<path class="st0" d="M635.2,80.3h2.2v8.1h4.7v2h-6.9L635.2,80.3L635.2,80.3z"/>
	</g>
</g>
</svg>
