<svg id="Layer_1" data-name="Layer 1" xmlns="http://www.w3.org/2000/svg" xmlns:xlink="http://www.w3.org/1999/xlink" viewBox="0 0 320 50"><defs><style>.cls-1,.cls-3{fill:none;}.cls-2{clip-path:url(#clip-path);}.cls-3{stroke:#fff;stroke-width:0.9px;}.cls-4{fill:#fff;}</style><clipPath id="clip-path"><rect class="cls-1" width="320" height="50"/></clipPath></defs><title>cta</title><g class="cls-2"><g class="cls-2"><g id="cta"><rect class="cls-3" x="190.45" y="16.16" width="119.1" height="18.8"/><path class="cls-4" d="M196.36,22.89V25.5h2.58v.62h-2.58v3.11h-.67v-7h3.93v.63Z"/><path class="cls-4" d="M201.94,22.26h.67v7h-.67Z"/><path class="cls-4" d="M210.6,22.26v7h-.69l-3.57-5.81v5.81h-.67v-7h.7l3.56,5.79V22.26Z"/><path class="cls-4" d="M213.67,22.26h2.63c2,0,3.12,1.52,3.12,3.5s-1.14,3.47-3.12,3.47h-2.63Zm2.63,6.34c1.59,0,2.45-1.23,2.45-2.84s-.86-2.87-2.45-2.87h-2V28.6Z"/><path class="cls-4" d="M230.27,22.26,227.61,26v3.27H227V26l-2.62-3.7h.78l2.18,3,2.18-3Z"/><path class="cls-4" d="M231.5,25.76A3.52,3.52,0,1,1,235,29.33,3.52,3.52,0,0,1,231.5,25.76Zm6.37,0A2.86,2.86,0,1,0,235,28.7,2.89,2.89,0,0,0,237.87,25.76Z"/><path class="cls-4" d="M241,26.88V22.26h.67v4.62a1.82,1.82,0,0,0,3.64,0V22.26H246v4.62a2.49,2.49,0,0,1-5,0Z"/><path class="cls-4" d="M251.6,26.5l1.93,2.73h-.81l-1.91-2.73h-1.17v2.73H249v-7h2.59a1.92,1.92,0,0,1,2,2.12A1.92,1.92,0,0,1,251.6,26.5Zm-2-.62h1.76a1.36,1.36,0,0,0,1.51-1.5,1.32,1.32,0,0,0-1.33-1.49h-1.94Z"/><path class="cls-4" d="M259.31,27.17h1.41a1.05,1.05,0,0,0,1.14.93c.63,0,1.05-.33,1.05-.82s-.29-.66-.89-.84l-.85-.25c-1.52-.4-1.8-1.32-1.8-2a2.2,2.2,0,0,1,2.41-2.07,2.12,2.12,0,0,1,2.33,2.12H262.7a1,1,0,0,0-1.91-.08c0,.17,0,.54.78.74l.78.22c1,.29,2,.85,2,2a2.23,2.23,0,0,1-2.5,2.11A2.26,2.26,0,0,1,259.31,27.17Z"/><path class="cls-4" d="M271.15,23.5h-1.92v5.73h-1.41V23.5H265.9V22.26h5.25Z"/><path class="cls-4" d="M272.61,25.75a3.55,3.55,0,1,1,3.55,3.57A3.54,3.54,0,0,1,272.61,25.75Zm5.68,0A2.14,2.14,0,1,0,276.16,28,2.15,2.15,0,0,0,278.29,25.75Z"/><path class="cls-4" d="M283.87,26.73h-.47v2.5H282v-7h2.78a2.15,2.15,0,0,1,2.29,2.27,2,2,0,0,1-1.69,2.13l1.81,2.57h-1.65Zm-.47-1.13h1.12a1.05,1.05,0,1,0,.11-2.1H283.4Z"/><path class="cls-4" d="M293.9,28v1.25h-4.46v-7h4.37V23.5h-3v1.66h2.6v1.27h-2.6V28Z"/><path class="cls-4" d="M304.77,25.24v1.1l-5.09,1.95V27.2l3.7-1.41-3.7-1.4V23.3Z"/></g></g></g></svg>