<svg id="Layer_1" data-name="Layer 1" xmlns="http://www.w3.org/2000/svg" viewBox="0 0 728 90"><defs><style>.cls-1{fill:#fff;}</style></defs><path class="cls-1" d="M412.92,39.64c-.34,0-.65-.06-1-.06-1.07,0-1.52.28-1.52,1.26v.29h2.5v4.32h-2.5V56h-5.34V45.45h-1.79V41.13h1.79v-.54c0-3.23,1.66-5,6-5a14.13,14.13,0,0,1,1.85.14Z"/><path class="cls-1" d="M421.15,56.29c-4.52,0-7.64-3.14-7.64-7.75s3.12-7.75,7.64-7.75,7.62,3.14,7.62,7.75S425.68,56.29,421.15,56.29Zm0-4.29c1.44,0,2.36-1.15,2.36-3.46s-.92-3.45-2.36-3.45-2.38,1.18-2.38,3.45S419.69,52,421.15,52Z"/><path class="cls-1" d="M440.43,46.13a7.27,7.27,0,0,0-1.35-.12,3,3,0,0,0-3.29,3V56h-5.34V41.13h5.34v1.74A4.33,4.33,0,0,1,439.44,41a8.91,8.91,0,0,1,1,.06Z"/><path class="cls-1" d="M461.92,56h-5.34V54.58a5.28,5.28,0,0,1-4,1.71c-3,0-5.05-2.1-5.05-5.36v-9.8h5.33v8.51c0,1.21.54,2,1.75,2a1.91,1.91,0,0,0,1.93-2.14V41.13h5.34Z"/><path class="cls-1" d="M465.18,50.62a9.36,9.36,0,0,0,5.2,1.83c1,0,1.74-.26,1.74-.85s-.76-.78-3.17-1.2-5.09-1.13-5.09-4.39,2.92-5.22,6.75-5.22a10.27,10.27,0,0,1,6.51,2.08l-2.24,3.26a6.91,6.91,0,0,0-4.19-1.55c-.87,0-1.46.25-1.46.79s.76.73,2.5,1c2.81.5,5.65,1.23,5.65,4.58s-3.21,5.28-7.28,5.28c-2.44,0-5.45-.76-6.91-2Z"/><path class="cls-1" d="M485.11,45.45h-1.8V41.13h1.8V37.19h5.25v3.94h2.75v4.32h-2.75V50.2c0,1.18.56,1.43,1.63,1.43a10,10,0,0,0,1.21-.08v4.32a17.67,17.67,0,0,1-2.95.23c-3.49,0-5.14-1.24-5.14-4.3Z"/><path class="cls-1" d="M501.74,56.29c-4.53,0-7.64-3.14-7.64-7.75s3.11-7.75,7.64-7.75,7.61,3.14,7.61,7.75S506.26,56.29,501.74,56.29Zm0-4.29c1.43,0,2.36-1.15,2.36-3.46s-.93-3.45-2.36-3.45-2.39,1.18-2.39,3.45S500.28,52,501.74,52Z"/><path class="cls-1" d="M518,56.29c-4.52,0-7.64-3.14-7.64-7.75s3.12-7.75,7.64-7.75,7.61,3.14,7.61,7.75S522.47,56.29,518,56.29ZM518,52c1.43,0,2.36-1.15,2.36-3.46s-.93-3.45-2.36-3.45-2.39,1.18-2.39,3.45S516.49,52,518,52Z"/></svg>