<svg id="Layer_2" data-name="Layer 2" xmlns="http://www.w3.org/2000/svg" viewBox="0 0 320 50"><defs><style>.cls-1{fill:#fff;}.cls-2{fill:#ff3008;}</style></defs><path class="cls-1" d="M49.15,24.1h-.93V22.92h.93v-.87a1.74,1.74,0,0,1,1.86-2,2.2,2.2,0,0,1,.67.1l.26.09v1.18l-.19-.09a1.42,1.42,0,0,0-.49-.1c-.58,0-.87.31-.87.94v.74h1.43V24.1H50.39v4.78H49.15Z"/><path class="cls-1" d="M55.48,22.8a3.11,3.11,0,1,1-3.1,3.1A3.07,3.07,0,0,1,55.48,22.8Zm1.87,3.1a1.87,1.87,0,1,0-1.87,1.93A1.84,1.84,0,0,0,57.35,25.9Z"/><path class="cls-1" d="M59.65,22.92h1.24v.81a4,4,0,0,1,.46-.46,2.12,2.12,0,0,1,1.34-.47H63v1.3l-.16,0a1.57,1.57,0,0,0-.33,0,1.7,1.7,0,0,0-1.62,1.8v3H59.65Z"/><path class="cls-1" d="M65.24,30.13l.21.09a1.51,1.51,0,0,0,.54.09A1.13,1.13,0,0,0,67,29.5l.25-.62-2.42-6h1.36l1.68,4.41,1.68-4.41H71l-2.6,6.65c-.5,1.25-1.18,1.92-2.18,1.92a2.3,2.3,0,0,1-.67-.09l-.26-.1Z"/><path class="cls-1" d="M74.37,22.8a3.11,3.11,0,1,1-3.1,3.1A3.07,3.07,0,0,1,74.37,22.8Zm1.86,3.1a1.86,1.86,0,1,0-1.86,1.93A1.83,1.83,0,0,0,76.23,25.9Z"/><path class="cls-1" d="M78.54,22.92h1.24V26.4a1.32,1.32,0,0,0,1.36,1.43,1.59,1.59,0,0,0,1.62-1.68V22.92H84v6H82.76V28a2.79,2.79,0,0,1-.47.5,2.16,2.16,0,0,1-1.39.5,2.35,2.35,0,0,1-2.36-2.61Z"/><path class="cls-1" d="M91.21,28a2.47,2.47,0,0,1-.47.5,2.4,2.4,0,0,1-1.46.5,1.83,1.83,0,0,1-2-1.74A1.87,1.87,0,0,1,89,25.41L91.21,25A1.14,1.14,0,0,0,90,23.92a2,2,0,0,0-1.13.4,2.72,2.72,0,0,0-.43.4l-.8-.8a2.42,2.42,0,0,1,.59-.56A2.93,2.93,0,0,1,90,22.8a2.3,2.3,0,0,1,2.48,2.29v3.79H91.21Zm0-2-1.74.31c-.63.11-.93.42-.93.8s.36.81,1,.81a1.69,1.69,0,0,0,1.68-1.74Z"/><path class="cls-1" d="M93.88,22.92h1.24v.87a2.42,2.42,0,0,1,.46-.5A2.25,2.25,0,0,1,97,22.8a2.35,2.35,0,0,1,2.36,2.61v3.47H98.1V25.41A1.31,1.31,0,0,0,96.74,24a1.58,1.58,0,0,0-1.62,1.67v3.23H93.88Z"/><path class="cls-1" d="M105.25,28a1.93,1.93,0,0,1-.49.5,2.55,2.55,0,0,1-1.56.5,2.94,2.94,0,0,1-2.79-3.11,2.93,2.93,0,0,1,2.79-3.1,2.62,2.62,0,0,1,1.56.49,1.93,1.93,0,0,1,.49.5v-3.6h1.24v8.69h-1.24Zm0-2.11a1.8,1.8,0,1,0-1.8,1.93A1.82,1.82,0,0,0,105.25,25.9Z"/><path class="cls-1" d="M110.59,26.77a2.12,2.12,0,0,0,.53.5,2.61,2.61,0,0,0,1.59.49c1.13,0,1.73-.62,1.73-1.42s-.6-1.37-1.73-1.37h-.94v-1.3h.94c.94,0,1.42-.49,1.42-1.18s-.48-1.18-1.42-1.18a2.51,2.51,0,0,0-1.38.43,2.6,2.6,0,0,0-.49.44l-.93-.94a4.15,4.15,0,0,1,.72-.58,3.89,3.89,0,0,1,2.08-.6c1.73,0,2.79,1.06,2.79,2.3a1.94,1.94,0,0,1-.66,1.51,2.53,2.53,0,0,1-.64.42,3.1,3.1,0,0,1,.8.44,2.12,2.12,0,0,1,.81,1.67c0,1.44-1.18,2.61-3.1,2.61a4,4,0,0,1-2.29-.65,3.26,3.26,0,0,1-.76-.66Z"/><path class="cls-1" d="M119.29,22.92h1.24v.87a1.92,1.92,0,0,1,.4-.5,2,2,0,0,1,1.34-.49,2.24,2.24,0,0,1,1.42.49,2.68,2.68,0,0,1,.45.5,1.8,1.8,0,0,1,.46-.5,2.62,2.62,0,0,1,1.59-.49,2.3,2.3,0,0,1,2.17,2.54v3.54h-1.24V25.34A1.23,1.23,0,0,0,125.88,24a1.46,1.46,0,0,0-1.43,1.61v3.29h-1.24V25.34A1.23,1.23,0,0,0,122,24a1.46,1.46,0,0,0-1.43,1.61v3.29h-1.24Z"/><path class="cls-1" d="M133.27,28a2.47,2.47,0,0,1-.47.5,2.4,2.4,0,0,1-1.46.5,1.83,1.83,0,0,1-2-1.74,1.87,1.87,0,0,1,1.74-1.86l2.17-.38A1.14,1.14,0,0,0,132,23.92a2,2,0,0,0-1.13.4,2.72,2.72,0,0,0-.43.4l-.8-.8a2.42,2.42,0,0,1,.59-.56A2.93,2.93,0,0,1,132,22.8a2.3,2.3,0,0,1,2.48,2.29v3.79h-1.24Zm0-2-1.74.31c-.63.11-.93.42-.93.8s.36.81,1,.81a1.69,1.69,0,0,0,1.68-1.74Z"/><path class="cls-1" d="M136.44,24.1h-1.12V22.92H136c.39,0,.56-.19.56-.68V20.93h1.12v2h1.37V24.1h-1.37v2.8q0,.93.87.93a1.32,1.32,0,0,0,.48-.09l.2-.1v1.18l-.26.1a2.25,2.25,0,0,1-.67.09,1.74,1.74,0,0,1-1.86-2Z"/><path class="cls-1" d="M145.57,27.89a2.4,2.4,0,0,1-.62.56A3.43,3.43,0,0,1,143,29,3.11,3.11,0,0,1,143,22.8a2.83,2.83,0,0,1,2.92,2.92,2.45,2.45,0,0,1,0,.44l0,.18h-4.6a1.85,1.85,0,0,0,1.87,1.49,2.27,2.27,0,0,0,1.26-.4,2.09,2.09,0,0,0,.48-.41Zm-1-2.61A1.6,1.6,0,0,0,143,23.92a1.73,1.73,0,0,0-1.74,1.36Z"/><path class="cls-1" d="M147.19,27.08a1.81,1.81,0,0,0,.42.41,1.94,1.94,0,0,0,1.13.4c.7,0,1.06-.36,1.06-.75,0-1-3.17-.48-3.17-2.6,0-.94.82-1.74,2.17-1.74a3.17,3.17,0,0,1,1.59.41,2,2,0,0,1,.52.39l-.8.81a2.41,2.41,0,0,0-.35-.25,2,2,0,0,0-1-.24c-.63,0-.93.3-.93.62,0,1,3.17.49,3.17,2.6,0,1-.86,1.87-2.3,1.87a3,3,0,0,1-1.76-.56,2.48,2.48,0,0,1-.6-.56Z"/><path class="cls-2" d="M160.21,25h1.9v-1.9h1.29V25h1.9v1.4h-1.9v1.9h-1.29v-1.9h-1.9Z"/><path class="cls-2" d="M170.5,26.81a2,2,0,0,0,.48.43,2.45,2.45,0,0,0,1.37.41c.89,0,1.28-.39,1.28-.89,0-1.33-3.91-.74-3.91-3.47,0-1.23,1.06-2.29,2.85-2.29a3.86,3.86,0,0,1,2,.53,3.56,3.56,0,0,1,.66.53l-1.12,1.12a2.5,2.5,0,0,0-.39-.34,1.93,1.93,0,0,0-1.06-.33c-.85,0-1.18.33-1.18.78,0,1.33,3.92.74,3.92,3.47,0,1.28-1.12,2.4-3,2.4a4.25,4.25,0,0,1-2.27-.61,2.89,2.89,0,0,1-.75-.62Z"/><path class="cls-2" d="M181,21a4.08,4.08,0,1,1-4.25,4.08A4.13,4.13,0,0,1,181,21Zm0,6.6a2.52,2.52,0,1,0-2.51-2.52A2.51,2.51,0,0,0,181,27.6Z"/><path class="cls-2" d="M190.24,21.17h1.51l2.68,3.35,2.69-3.35h1.51V29H197V23.85L194.43,27l-2.51-3.13V29h-1.68Z"/><path class="cls-2" d="M201.14,21.17h1.68v4.58a1.74,1.74,0,1,0,3.47,0V21.17H208v4.58a3.42,3.42,0,0,1-6.83,0Z"/><path class="cls-2" d="M217.58,27.6a4.2,4.2,0,0,1-.84.78,4.34,4.34,0,0,1-2.51.78,4.08,4.08,0,1,1,0-8.16,4.26,4.26,0,0,1,2.47.78,4.41,4.41,0,0,1,.83.78l-1.12,1.12a3.77,3.77,0,0,0-.57-.56,2.64,2.64,0,0,0-1.61-.56,2.52,2.52,0,1,0,0,5,2.8,2.8,0,0,0,1.66-.56,2.53,2.53,0,0,0,.57-.56Z"/><path class="cls-2" d="M219.37,21.17h1.68v3.07h3.35V21.17h1.68V29H224.4V25.81h-3.35V29h-1.68Z"/><path class="cls-2" d="M231.56,21.17h1.51l2.69,3.35,2.68-3.35H240V29h-1.68V23.85L235.76,27l-2.52-3.13V29h-1.68Z"/><path class="cls-2" d="M246.27,21A4.08,4.08,0,1,1,242,25.08,4.14,4.14,0,0,1,246.27,21Zm0,6.6a2.52,2.52,0,1,0-2.52-2.52A2.51,2.51,0,0,0,246.27,27.6Z"/><path class="cls-2" d="M252.59,21.17h3.46a2.52,2.52,0,0,1,2.74,2.62,2.49,2.49,0,0,1-.67,1.83,2.13,2.13,0,0,1-.67.47l1.62,2.9h-1.84l-1.4-2.57h-1.57V29h-1.67ZM256,24.86a1.07,1.07,0,0,0,0-2.13h-1.74v2.13Z"/><path class="cls-2" d="M261,21.17h5.81v1.56h-4.13v1.51H266v1.51h-3.24v1.68H267V29H261Z"/><path class="cls-2" d="M268.91,21.17h1.79l-.28,5.42h-1.23Zm.9,6.15a.9.9,0,0,1,0,1.79.9.9,0,1,1,0-1.79Z"/></svg>