<svg id="Layer_2" data-name="Layer 2" xmlns="http://www.w3.org/2000/svg" viewBox="0 0 320 50"><defs><style>.cls-1{fill:#fff;}</style></defs><path class="cls-1" d="M135.22,30.19h2.48v.53h-1.93v.9h1.53v.52h-1.53v1h2v.53h-2.53Z"/><path class="cls-1" d="M138.32,31.29h.5v.35a.89.89,0,0,1,.19-.2.87.87,0,0,1,.56-.2,1,1,0,0,1,1,1.05V33.7H140V32.29a.53.53,0,0,0-.55-.57.64.64,0,0,0-.65.67V33.7h-.5Z"/><path class="cls-1" d="M141.42,31.77H141v-.48h.28c.15,0,.22-.07.22-.27v-.53h.46v.8h.54v.48h-.54v1.12c0,.25.11.38.34.38a.94.94,0,0,0,.2,0l.08-.05v.48l-.11,0a.88.88,0,0,1-.26,0,.7.7,0,0,1-.76-.8Z"/><path class="cls-1" d="M143.15,31.29h.5v.33a1.07,1.07,0,0,1,.18-.19.89.89,0,0,1,.54-.19h.13v.53h-.07l-.13,0a.68.68,0,0,0-.65.73V33.7h-.5Z"/><path class="cls-1" d="M145.22,30.24a.3.3,0,0,1,.3.3.29.29,0,0,1-.3.3.3.3,0,0,1-.3-.3A.31.31,0,0,1,145.22,30.24ZM145,31.29h.5V33.7H145Z"/><path class="cls-1" d="M148.33,33.29a1.1,1.1,0,0,1-.25.23,1.37,1.37,0,0,1-.78.22,1.25,1.25,0,0,1,0-2.5,1.14,1.14,0,0,1,1.18,1.18c0,.07,0,.13,0,.18v.07h-1.86a.75.75,0,0,0,.75.6.94.94,0,0,0,.52-.16,1,1,0,0,0,.18-.17Zm-.4-1a.66.66,0,0,0-.66-.55.7.7,0,0,0-.7.55Z"/><path class="cls-1" d="M149.1,33a.65.65,0,0,0,.17.16.76.76,0,0,0,.45.16c.28,0,.43-.14.43-.3,0-.4-1.28-.19-1.28-1.05,0-.37.33-.7.88-.7a1.29,1.29,0,0,1,.64.17.83.83,0,0,1,.21.16l-.33.32a.85.85,0,0,0-.14-.1.78.78,0,0,0-.38-.1c-.26,0-.38.13-.38.25,0,.4,1.28.2,1.28,1.05,0,.41-.35.75-.93.75a1.15,1.15,0,0,1-.71-.22,1.31,1.31,0,0,1-.24-.23Z"/><path class="cls-1" d="M154.35,33.24a1.23,1.23,0,0,1-.26.25,1.28,1.28,0,0,1-.77.25,1.25,1.25,0,1,1,0-2.5,1.29,1.29,0,0,1,.76.24.91.91,0,0,1,.24.24L154,32a.81.81,0,0,0-.16-.16.84.84,0,0,0-.49-.16.78.78,0,0,0,0,1.55.75.75,0,0,0,.5-.18l.18-.17Z"/><path class="cls-1" d="M154.85,30.19h.5V33.7h-.5Z"/><path class="cls-1" d="M157.17,31.24a1.25,1.25,0,1,1-1.25,1.25A1.25,1.25,0,0,1,157.17,31.24Zm.75,1.25a.75.75,0,1,0-1.5,0,.75.75,0,1,0,1.5,0Z"/><path class="cls-1" d="M159.07,33a.85.85,0,0,0,.17.16.79.79,0,0,0,.46.16c.28,0,.42-.14.42-.3,0-.4-1.27-.19-1.27-1.05a.77.77,0,0,1,.87-.7,1.26,1.26,0,0,1,.64.17.58.58,0,0,1,.21.16l-.32.32-.14-.1a.86.86,0,0,0-.39-.1c-.25,0-.37.13-.37.25,0,.4,1.27.2,1.27,1.05,0,.41-.34.75-.92.75a1.15,1.15,0,0,1-.71-.22.88.88,0,0,1-.24-.23Z"/><path class="cls-1" d="M163.27,33.29a.93.93,0,0,1-.25.23,1.31,1.31,0,0,1-.77.22,1.25,1.25,0,0,1,0-2.5,1.15,1.15,0,0,1,1.18,1.18.9.9,0,0,1,0,.18v.07h-1.85a.75.75,0,0,0,.75.6.91.91,0,0,0,.51-.16.77.77,0,0,0,.19-.17Zm-.4-1a.64.64,0,0,0-.65-.55.7.7,0,0,0-.7.55Z"/><path class="cls-1" d="M165.45,31h-.63v-.35a.83.83,0,0,0,.75-.48H166V33.7h-.55Z"/><path class="cls-1" d="M166.77,31.94c0-1.14.65-1.8,1.45-1.8s1.45.66,1.45,1.8-.65,1.8-1.45,1.8S166.77,33.09,166.77,31.94Zm1.45-1.3c-.47,0-.9.43-.9,1.3s.43,1.3.9,1.3.9-.42.9-1.3S168.7,30.64,168.22,30.64Z"/><path class="cls-1" d="M171.45,30.14h.45l-1.5,4.61H170Z"/><path class="cls-1" d="M172.17,31.94c0-1.14.65-1.8,1.45-1.8s1.45.66,1.45,1.8-.65,1.8-1.45,1.8S172.17,33.09,172.17,31.94Zm1.45-1.3c-.47,0-.9.43-.9,1.3s.43,1.3.9,1.3.9-.42.9-1.3S174.1,30.64,173.62,30.64Z"/><path class="cls-1" d="M176.85,30.19h.6l-.8,1.23h0l.17,0a1.18,1.18,0,1,1-1.3,1.18,1.3,1.3,0,0,1,.13-.54c0-.08.08-.16.12-.24Zm0,3.05a.68.68,0,1,0-.7-.67A.68.68,0,0,0,176.82,33.24Z"/><path class="cls-1" d="M179.8,30.14h.45l-1.5,4.61h-.45Z"/><path class="cls-1" d="M182.77,33.17v.53h-2.35c0-1.58,1.8-1.63,1.8-2.48,0-.33-.22-.55-.62-.55a.69.69,0,0,0-.54.24,1.09,1.09,0,0,0-.14.23l-.45-.2a1.2,1.2,0,0,1,.22-.4,1.11,1.11,0,0,1,.91-.4,1.09,1.09,0,0,1,1.17,1.08c0,1-1.3,1.17-1.7,2Z"/><path class="cls-1" d="M183.32,31.94c0-1.14.65-1.8,1.45-1.8s1.45.66,1.45,1.8-.65,1.8-1.45,1.8S183.32,33.09,183.32,31.94Zm1.45-1.3c-.47,0-.9.43-.9,1.3s.43,1.3.9,1.3.91-.42.91-1.3S185.25,30.64,184.77,30.64Z"/><path class="cls-1" d="M189,33.17v.53h-2.35c0-1.58,1.8-1.63,1.8-2.48,0-.33-.22-.55-.62-.55a.69.69,0,0,0-.54.24,1.09,1.09,0,0,0-.14.23l-.45-.2a1.2,1.2,0,0,1,.22-.4,1.11,1.11,0,0,1,.91-.4A1.09,1.09,0,0,1,189,31.22c0,1-1.3,1.17-1.7,2Z"/><path class="cls-1" d="M190.1,31h-.63v-.35a.83.83,0,0,0,.75-.48h.43V33.7h-.55Z"/><path class="cls-1" d="M78.21,39.54h-1.1v-.35h2.58v.35h-1.1V42.7h-.38Z"/><path class="cls-1" d="M81.81,42.24a1,1,0,0,1-.25.25,1.24,1.24,0,0,1-.75.25,1.25,1.25,0,0,1,0-2.5,1.14,1.14,0,0,1,1.15,1.2.39.39,0,0,1,0,.13v0H80a.88.88,0,0,0,.85.8,1,1,0,0,0,.58-.2l.2-.2Zm-.22-.92a.82.82,0,0,0-.8-.75.87.87,0,0,0-.83.75Z"/><path class="cls-1" d="M82.46,40.29h.35v.33a1.21,1.21,0,0,1,.2-.19,1,1,0,0,1,.6-.19h.1v.35h-.15a.74.74,0,0,0-.75.78V42.7h-.35Z"/><path class="cls-1" d="M84.09,40.29h.35v.3a.64.64,0,0,1,.16-.17.77.77,0,0,1,.51-.18.88.88,0,0,1,.61.22.87.87,0,0,1,.17.21.72.72,0,0,1,.18-.21,1,1,0,0,1,.65-.22.92.92,0,0,1,.92,1V42.7h-.35V41.27c0-.46-.24-.7-.6-.7s-.65.3-.65.8V42.7h-.35V41.27c0-.46-.25-.7-.6-.7s-.65.3-.65.8V42.7h-.35Z"/><path class="cls-1" d="M88.36,42.07a1.29,1.29,0,0,0,.16.17.69.69,0,0,0,.47.18c.35,0,.52-.18.52-.4,0-.55-1.3-.28-1.3-1.1a.74.74,0,0,1,.8-.68,1.11,1.11,0,0,1,.58.17,1,1,0,0,1,.2.16l-.25.25-.13-.13a.73.73,0,0,0-.4-.12.41.41,0,0,0-.45.35c0,.52,1.3.25,1.3,1.1,0,.4-.33.72-.87.72a1.11,1.11,0,0,1-.67-.21.7.7,0,0,1-.21-.21Z"/><path class="cls-1" d="M92.79,42.37a1.14,1.14,0,0,1-.19.19,1,1,0,0,1-.59.18.78.78,0,0,1-.85-.7c0-.4.25-.65.7-.72l.93-.15a.57.57,0,0,0-.6-.6.87.87,0,0,0-.5.17c-.06.06-.12.11-.18.18l-.22-.23a1,1,0,0,1,.23-.22,1.07,1.07,0,0,1,.67-.23.91.91,0,0,1,1,.93V42.7h-.35Zm0-.9-.83.15c-.3.05-.45.2-.45.42s.18.38.5.38a.75.75,0,0,0,.78-.8Z"/><path class="cls-1" d="M93.84,40.29h.35v.35a.89.89,0,0,1,.19-.2.93.93,0,0,1,.58-.2,1,1,0,0,1,1,1V42.7h-.35V41.27a.64.64,0,0,0-.65-.7.74.74,0,0,0-.75.8V42.7h-.35Z"/><path class="cls-1" d="M98.46,42.34a.64.64,0,0,1-.2.2,1,1,0,0,1-.62.2,1.25,1.25,0,0,1,0-2.5,1,1,0,0,1,.62.2,1,1,0,0,1,.2.2V39.19h.35V42.7h-.35Zm0-.85a.89.89,0,0,0-.82-.92.93.93,0,0,0,0,1.85A.89.89,0,0,0,98.46,41.49Z"/><path class="cls-1" d="M102.51,42.24a1,1,0,0,1-.26.25,1.24,1.24,0,1,1-.74-2.25,1.18,1.18,0,0,1,.72.24,1.48,1.48,0,0,1,.26.24l-.25.25a1.21,1.21,0,0,0-.19-.2.83.83,0,0,0-.54-.2.93.93,0,0,0,0,1.85.94.94,0,0,0,.56-.2,1.19,1.19,0,0,0,.19-.2Z"/><path class="cls-1" d="M102.74,41.49A1.23,1.23,0,1,1,104,42.74,1.23,1.23,0,0,1,102.74,41.49Zm2.1,0a.88.88,0,1,0-.88.93A.9.9,0,0,0,104.84,41.49Z"/><path class="cls-1" d="M105.71,40.29h.35v.35a1.19,1.19,0,0,1,.19-.2,1,1,0,0,1,.59-.2,1,1,0,0,1,1,1V42.7h-.35V41.27a.64.64,0,0,0-.65-.7.75.75,0,0,0-.75.8V42.7h-.35Z"/><path class="cls-1" d="M110.34,42.34a.8.8,0,0,1-.21.2,1,1,0,0,1-.62.2,1.25,1.25,0,0,1,0-2.5,1,1,0,0,1,.62.2,1.34,1.34,0,0,1,.21.2V39.19h.35V42.7h-.35Zm0-.85a.9.9,0,0,0-.83-.92.93.93,0,0,0,0,1.85A.9.9,0,0,0,110.34,41.49Z"/><path class="cls-1" d="M111.59,39.27a.22.22,0,0,1,.22.22.23.23,0,1,1-.22-.22Zm-.18,1h.35V42.7h-.35Z"/><path class="cls-1" d="M112.66,40.62h-.45v-.33h.28c.13,0,.2-.08.2-.25v-.55H113v.8h.53v.33H113V42c0,.26.13.38.33.38a.56.56,0,0,0,.23,0,.25.25,0,0,0,.09,0v.33l-.1,0a.78.78,0,0,1-.24,0,.62.62,0,0,1-.66-.7Z"/><path class="cls-1" d="M114.34,39.27a.22.22,0,0,1,.22.22.23.23,0,1,1-.22-.22Zm-.18,1h.35V42.7h-.35Z"/><path class="cls-1" d="M115,41.49a1.23,1.23,0,1,1,1.22,1.25A1.23,1.23,0,0,1,115,41.49Zm2.1,0a.88.88,0,1,0-.88.93A.9.9,0,0,0,117.14,41.49Z"/><path class="cls-1" d="M118,40.29h.35v.35a1.19,1.19,0,0,1,.19-.2,1,1,0,0,1,.59-.2,1,1,0,0,1,1,1V42.7h-.35V41.27a.64.64,0,0,0-.66-.7.75.75,0,0,0-.75.8V42.7H118Z"/><path class="cls-1" d="M120.84,42.07a.85.85,0,0,0,.16.17.65.65,0,0,0,.46.18c.36,0,.53-.18.53-.4,0-.55-1.3-.28-1.3-1.1a.74.74,0,0,1,.8-.68,1.07,1.07,0,0,1,.57.17.64.64,0,0,1,.2.16l-.25.25a.53.53,0,0,0-.13-.13.69.69,0,0,0-.39-.12c-.28,0-.45.17-.45.35,0,.52,1.3.25,1.3,1.1,0,.4-.33.72-.88.72a1.06,1.06,0,0,1-.66-.21.53.53,0,0,1-.21-.21Z"/><path class="cls-1" d="M125.27,42.37a1.14,1.14,0,0,1-.19.19,1,1,0,0,1-.59.18.78.78,0,0,1-.85-.7c0-.4.24-.65.7-.72l.93-.15a.57.57,0,0,0-.6-.6.87.87,0,0,0-.5.17,1.53,1.53,0,0,0-.18.18l-.23-.23a1.26,1.26,0,0,1,.24-.22,1.07,1.07,0,0,1,.67-.23.91.91,0,0,1,1,.93V42.7h-.35Zm0-.9-.83.15c-.3.05-.45.2-.45.42s.18.38.5.38a.75.75,0,0,0,.78-.8Z"/><path class="cls-1" d="M126.31,40.29h.35v.35a1.06,1.06,0,0,1,.83-.4,1.25,1.25,0,0,1,0,2.5,1,1,0,0,1-.62-.2.67.67,0,0,1-.21-.2v1.41h-.35Zm2,1.2a.86.86,0,0,0-.83-.92.93.93,0,0,0,0,1.85A.86.86,0,0,0,128.32,41.49Z"/><path class="cls-1" d="M129.19,40.29h.35v.35a1,1,0,0,1,.2-.2,1,1,0,0,1,.62-.2,1.25,1.25,0,0,1,0,2.5,1,1,0,0,1-.62-.2.64.64,0,0,1-.2-.2v1.41h-.35Zm2,1.2a.86.86,0,0,0-.83-.92.93.93,0,0,0,0,1.85A.86.86,0,0,0,131.19,41.49Z"/><path class="cls-1" d="M132.09,39.19h.35V42.7h-.35Z"/><path class="cls-1" d="M133,43.37l.08,0,.17,0c.22,0,.35-.12.45-.37l.12-.35-1-2.41h.37l.78,2,.77-2h.38L134,43.05c-.2.5-.41.7-.75.7a.69.69,0,0,1-.22,0l-.08,0Z"/><path class="cls-1" d="M135.44,42.24a.24.24,0,0,1,.25.25.23.23,0,0,1-.25.25.23.23,0,0,1-.25-.25A.23.23,0,0,1,135.44,42.24Z"/><path class="cls-1" d="M138.21,39.19h.35L140,42.7h-.4l-.4-1h-1.66l-.4,1h-.4Zm.85,2.18-.67-1.65-.68,1.65Z"/><path class="cls-1" d="M143.47,42a1.63,1.63,0,0,1-.38.36,1.69,1.69,0,0,1-1.08.36,1.8,1.8,0,1,1,1.08-3.23,1.71,1.71,0,0,1,.35.36l-.25.22a1.64,1.64,0,0,0-.29-.3A1.45,1.45,0,1,0,142,42.4a1.54,1.54,0,0,0,1.21-.61Z"/><path class="cls-1" d="M144.76,39.54h-1.1v-.35h2.58v.35h-1.1V42.7h-.38Z"/><path class="cls-1" d="M147.56,39.19h1.33a1.1,1.1,0,1,1,0,2.2h-.95V42.7h-.38ZM148.89,41a.75.75,0,0,0,0-1.5h-.95V41Z"/><path class="cls-1" d="M152.47,42.24a1,1,0,0,1-.26.25,1.21,1.21,0,0,1-.74.25,1.25,1.25,0,0,1,0-2.5,1.14,1.14,0,0,1,1.15,1.2c0,.06,0,.1,0,.13v0h-2a.88.88,0,0,0,.86.8.92.92,0,0,0,.57-.2,1,1,0,0,0,.2-.2Zm-.23-.92a.81.81,0,0,0-.8-.75.87.87,0,0,0-.83.75Z"/><path class="cls-1" d="M153.11,40.29h.35v.33a1.21,1.21,0,0,1,.2-.19,1,1,0,0,1,.6-.19h.1v.35h-.15a.74.74,0,0,0-.75.78V42.7h-.35Z"/><path class="cls-1" d="M154.74,40.29h.35v.3a.64.64,0,0,1,.16-.17.77.77,0,0,1,.51-.18.88.88,0,0,1,.61.22.68.68,0,0,1,.17.21.76.76,0,0,1,.19-.21,1,1,0,0,1,.64-.22.92.92,0,0,1,.92,1V42.7h-.35V41.27c0-.46-.24-.7-.6-.7a.71.71,0,0,0-.65.8V42.7h-.35V41.27c0-.46-.25-.7-.6-.7s-.65.3-.65.8V42.7h-.35Z"/><path class="cls-1" d="M159.16,39.27a.23.23,0,1,1-.22.22A.22.22,0,0,1,159.16,39.27Zm-.17,1h.35V42.7H159Z"/><path class="cls-1" d="M160.24,40.62h-.45v-.33h.27c.14,0,.2-.08.2-.25v-.55h.33v.8h.52v.33h-.52V42c0,.26.12.38.32.38a.53.53,0,0,0,.23,0l.1,0v.33l-.1,0a.83.83,0,0,1-.24,0,.61.61,0,0,1-.66-.7Z"/><path class="cls-1" d="M162.81,39.19h.33L165.29,42V39.19h.38V42.7h-.33l-2.15-2.83V42.7h-.38Z"/><path class="cls-1" d="M166.31,41.49a1.23,1.23,0,1,1,1.23,1.25A1.23,1.23,0,0,1,166.31,41.49Zm2.11,0a.88.88,0,1,0-.88.93A.9.9,0,0,0,168.42,41.49Z"/><path class="cls-1" d="M169.41,42.24a.23.23,0,0,1,.25.25.23.23,0,0,1-.25.25.23.23,0,0,1-.25-.25A.24.24,0,0,1,169.41,42.24Z"/><path class="cls-1" d="M171.84,39.54h-1.1v-.35h2.58v.35h-1.11V42.7h-.37Z"/><path class="cls-1" d="M173.84,39.19h1.32a1.1,1.1,0,1,1,0,2.2h-.95V42.7h-.37ZM175.16,41a.75.75,0,1,0,0-1.5h-.95V41Z"/><path class="cls-1" d="M179.72,42.34v.36h-2.26c0-1.48,1.88-1.53,1.88-2.53a.67.67,0,0,0-.75-.68.71.71,0,0,0-.61.3.83.83,0,0,0-.14.3l-.33-.15a1.36,1.36,0,0,1,.2-.4,1.05,1.05,0,0,1,.88-.4,1,1,0,0,1,1.13,1c0,1.07-1.53,1.25-1.83,2.17Z"/><path class="cls-1" d="M180.76,39.89h-.65v-.22a.86.86,0,0,0,.6-.25.51.51,0,0,0,.15-.23h.28V42.7h-.38Z"/><path class="cls-1" d="M183.07,39.14h.32l-1.5,4.61h-.33Z"/><path class="cls-1" d="M183.59,40.94c0-1.12.68-1.8,1.4-1.8s1.4.68,1.4,1.8-.67,1.8-1.39,1.8S183.59,42.07,183.59,40.94Zm2.43,0c0-.95-.51-1.45-1-1.45s-1,.5-1,1.45.5,1.46,1,1.46S186,41.89,186,40.94Z"/><path class="cls-1" d="M186.89,40.94c0-1.12.68-1.8,1.4-1.8s1.4.68,1.4,1.8-.67,1.8-1.39,1.8S186.89,42.07,186.89,40.94Zm2.43,0c0-.95-.51-1.45-1-1.45s-1,.5-1,1.45.5,1.46,1,1.46S189.32,41.89,189.32,40.94Z"/><path class="cls-1" d="M191.69,39.54h-1.8v-.35h2.2v.35l-1.55,3.16h-.4Z"/><path class="cls-1" d="M193.49,39.19h.38l-.83,1.3.1,0a1,1,0,0,1,.28,0,1.15,1.15,0,1,1-1.23,1.15,1.3,1.3,0,0,1,.12-.53,1.59,1.59,0,0,1,.13-.22Zm-.1,3.21a.81.81,0,1,0-.83-.81A.78.78,0,0,0,193.39,42.4Z"/><path class="cls-1" d="M195.36,41a1.1,1.1,0,0,1,.31-.2.94.94,0,0,1-.23-.16.77.77,0,0,1-.23-.56,1,1,0,0,1,2.06,0,.77.77,0,0,1-.23.56.89.89,0,0,1-.22.16,1.21,1.21,0,0,1,.3.2.89.89,0,0,1,.3.68,1.19,1.19,0,0,1-2.36,0A.89.89,0,0,1,195.36,41Zm.88,1.41a.75.75,0,0,0,.8-.73.8.8,0,0,0-1.6,0A.75.75,0,0,0,196.24,42.4Zm0-1.76a.58.58,0,1,0-.65-.57A.59.59,0,0,0,196.24,40.64Z"/><path class="cls-1" d="M198.14,42.24a.24.24,0,0,1,.25.25.23.23,0,0,1-.25.25.23.23,0,0,1-.25-.25A.23.23,0,0,1,198.14,42.24Z"/><path class="cls-1" d="M200,42a1,1,0,0,0,.23.22,1.26,1.26,0,0,0,.73.22c.52,0,.8-.28.8-.66,0-.89-1.91-.4-1.91-1.65a1,1,0,0,1,1.13-1,1.35,1.35,0,0,1,.77.23,1.38,1.38,0,0,1,.26.22l-.25.25a1.12,1.12,0,0,0-.2-.17,1,1,0,0,0-.58-.18c-.48,0-.75.29-.75.6,0,.9,1.9.41,1.9,1.65,0,.58-.42,1-1.17,1a1.61,1.61,0,0,1-.9-.25,1.2,1.2,0,0,1-.28-.27Z"/><path class="cls-1" d="M203.79,39.19h.35l1.45,3.51h-.4l-.4-1h-1.65l-.4,1h-.4Zm.85,2.18L204,39.72l-.68,1.65Z"/><path class="cls-1" d="M206.91,39.19h.38v3.15h1.8v.36h-2.18Z"/><path class="cls-1" d="M209.66,39.27a.23.23,0,1,1-.22.22A.22.22,0,0,1,209.66,39.27Zm-.17,1h.35V42.7h-.35Z"/><path class="cls-1" d="M212.57,42.24a1.27,1.27,0,0,1-.27.25,1.2,1.2,0,0,1-.73.25,1.25,1.25,0,0,1,0-2.5,1.23,1.23,0,0,1,.72.24,1.42,1.42,0,0,1,.25.24l-.25.25a.89.89,0,0,0-.72-.4.93.93,0,0,0,0,1.85.91.91,0,0,0,.55-.2,1.26,1.26,0,0,0,.2-.2Z"/><path class="cls-1" d="M215,42.24a1,1,0,0,1-.25.25,1.24,1.24,0,0,1-.75.25,1.25,1.25,0,0,1,0-2.5,1.14,1.14,0,0,1,1.15,1.2.39.39,0,0,1,0,.13v0h-2a.86.86,0,0,0,.85.8,1,1,0,0,0,.58-.2,1.89,1.89,0,0,0,.2-.2Zm-.22-.92a.82.82,0,0,0-.8-.75.85.85,0,0,0-.83.75Z"/><path class="cls-1" d="M215.64,40.29H216v.35a1.19,1.19,0,0,1,.19-.2,1,1,0,0,1,.59-.2,1,1,0,0,1,1,1V42.7h-.35V41.27a.64.64,0,0,0-.65-.7.75.75,0,0,0-.75.8V42.7h-.35Z"/><path class="cls-1" d="M220.47,42.24a1.27,1.27,0,0,1-.27.25,1.2,1.2,0,0,1-.73.25,1.25,1.25,0,1,1,.72-2.26,1.42,1.42,0,0,1,.25.24l-.25.25a.89.89,0,0,0-.72-.4.93.93,0,0,0,0,1.85.91.91,0,0,0,.55-.2,1.26,1.26,0,0,0,.2-.2Z"/><path class="cls-1" d="M222.89,42.24a1,1,0,0,1-.25.25,1.24,1.24,0,0,1-.75.25,1.25,1.25,0,0,1,0-2.5,1.14,1.14,0,0,1,1.15,1.2.39.39,0,0,1,0,.13v0h-2a.88.88,0,0,0,.85.8,1,1,0,0,0,.58-.2,1.89,1.89,0,0,0,.2-.2Zm-.22-.92a.82.82,0,0,0-.8-.75.87.87,0,0,0-.83.75Z"/><path class="cls-1" d="M224.62,39.19h.32L227.09,42V39.19h.38V42.7h-.33L225,39.87V42.7h-.37Z"/><path class="cls-1" d="M228.12,41.49a1.23,1.23,0,1,1,1.22,1.25A1.23,1.23,0,0,1,228.12,41.49Zm2.1,0a.88.88,0,1,0-.88.93A.9.9,0,0,0,230.22,41.49Z"/><path class="cls-1" d="M231.22,42.24a.24.24,0,0,1,.25.25.23.23,0,0,1-.25.25.23.23,0,0,1-.25-.25A.23.23,0,0,1,231.22,42.24Z"/><path class="cls-1" d="M233.64,39.54h-1.1v-.35h2.58v.35H234V42.7h-.38Z"/><path class="cls-1" d="M237.57,42.34v.36h-2.25c0-1.48,1.87-1.53,1.87-2.53a.67.67,0,0,0-.75-.68.72.72,0,0,0-.61.3,1,1,0,0,0-.14.3l-.32-.15a1.16,1.16,0,0,1,.2-.4,1.14,1.14,0,0,1,2,.63c0,1.07-1.53,1.25-1.83,2.17Z"/><path class="cls-1" d="M238.62,39.89H238v-.22a.88.88,0,0,0,.6-.25.76.76,0,0,0,.15-.23H239V42.7h-.37Z"/><path class="cls-1" d="M240.92,39.14h.32l-1.5,4.61h-.32Z"/><path class="cls-1" d="M243.09,39.54h-1.8v-.35h2.2v.35l-1.55,3.16h-.4Z"/><path class="cls-1" d="M244.37,39.89h-.65v-.22a.88.88,0,0,0,.6-.25.76.76,0,0,0,.15-.23h.27V42.7h-.37Z"/><path class="cls-1" d="M247.62,42.34v.36h-2.25c0-1.48,1.87-1.53,1.87-2.53a.67.67,0,0,0-.75-.68.72.72,0,0,0-.61.3,1,1,0,0,0-.14.3l-.32-.15a1.16,1.16,0,0,1,.2-.4,1.14,1.14,0,0,1,2,.63c0,1.07-1.53,1.25-1.83,2.17Z"/><path class="cls-1" d="M248.34,42.24a.23.23,0,0,1,.25.25.23.23,0,0,1-.25.25.23.23,0,0,1-.25-.25A.24.24,0,0,1,248.34,42.24Z"/></svg>