<svg id="Layer_2" data-name="Layer 2" xmlns="http://www.w3.org/2000/svg" viewBox="0 0 320 50"><defs><style>.cls-1{fill:#fff;}</style></defs><path class="cls-1" d="M305.82,19l-1.89,1.27.91,1.68a.27.27,0,0,1,0,.31l-2.24,2.09V23.05l1.27-1.1L303,20.47a.22.22,0,0,1,.1-.3l2.7-1.22h0m.73,3a.34.34,0,0,1-.08.39l-5.22,4.7c-.05,0-.05.06-.05.06l4.66-2.64v.66a2.35,2.35,0,0,1-.35,1.29,1.91,1.91,0,0,1-.71.67L300,29.9l-4.85-2.8a2.07,2.07,0,0,1-.71-.67,2.35,2.35,0,0,1-.35-1.29v-.66l4.66,2.64s0,0,0-.06l-5.23-4.7a.32.32,0,0,1-.07-.39l.84-1.63-1.82-1.24v6a3.8,3.8,0,0,0,1.89,3.41L300,31.83l5.68-3.28a3.78,3.78,0,0,0,1.9-3.41v-6l-1.82,1.24Zm1-6.75V12H292.38v3.23a9.22,9.22,0,0,1,3.6,1.44,5,5,0,0,0-3.6,0,16.22,16.22,0,0,1,2.63.79l-1,.79s.71-.07,1.58-.08c1.34,0,3,.14,3,1l.77-.88a.62.62,0,0,0,.17-.54c-.13-.5-.86-1.24-2.93-2a15.9,15.9,0,0,0-2.64-.58V13.66h11.82v1.49a15.82,15.82,0,0,0-2.63.58c-2.08.72-2.8,1.46-2.93,2a.59.59,0,0,0,.16.54l.77.88c0-.83,1.71-1,3-1,.87,0,1.59.08,1.59.08l-1-.79a15.82,15.82,0,0,1,2.63-.79,5,5,0,0,0-3.6,0,9.22,9.22,0,0,1,3.6-1.44m-5.77,4.64-.31,1.72a.09.09,0,0,0,.12.1l1.09-.27-.6-.1.2-1.51,1.19-.56,0,0-1.58.5a.19.19,0,0,0-.13.14m-7.68-.9L296,20.23l-.9,1.68a.25.25,0,0,0,.05.31l2.23,2.09V23.05L296.09,22l.78-1.48a.21.21,0,0,0-.1-.3L294.07,19h0m4.26,2.72a.09.09,0,0,0,.11-.1l-.31-1.72a.17.17,0,0,0-.12-.14l-1.58-.5s0,0,0,0l1.18.56.2,1.51-.59.1Zm2.33-12.46h-.41v.54h.37c.24,0,.36-.11.36-.27S300.88,9.22,300.67,9.22ZM295,10V9.27l-.43.71Zm8.15-.73a.48.48,0,0,0-.54.48.54.54,0,0,0,1.07,0A.48.48,0,0,0,303.19,9.25Zm-10.81-.91v2.78h15.15V8.34Zm3.37,2.39H295v-.32h-.7l-.2.32h-.82l1.35-2h1.08Zm2.75,0-.12-1.38L298,10.73h-.71l-.38-1.37-.1,1.37h-.71l.19-2h1.08l.31,1.1.31-1.1H299l.19,2Zm2.32-.52h-.56v.52h-.72v-2h1.39a.7.7,0,0,1,.79.74C301.72,9.9,301.42,10.21,300.82,10.21Zm2.37.59c-.81,0-1.31-.48-1.31-1.08s.5-1.06,1.31-1.06,1.3.45,1.3,1.06A1.16,1.16,0,0,1,303.19,10.8Zm3.39-.07h-1.84v-2h.72v1.42h1.12ZM291.77,34h-.55l-.09.29h-.41l.6-1.61h.35l.6,1.61h-.41Zm-.1-.31-.17-.54-.18.54Zm2.46.6h-.38V34l0-.83-.4.87h-.25l-.4-.87,0,.83v.36h-.38V32.7h.49l.37.8.37-.8h.5Zm1.52-1.06c0,.31-.24.52-.62.52h-.26v.54h-.39V32.7H295A.56.56,0,0,1,295.65,33.25Zm-.39,0A.22.22,0,0,0,295,33h-.26v.45H295C295.19,33.46,295.26,33.38,295.26,33.25Zm1.26,1.09a.72.72,0,0,1-.71-.8v-.06a.71.71,0,1,1,1.41,0v.06A.71.71,0,0,1,296.52,34.34Zm0-1.35c-.21,0-.32.17-.32.49v.06c0,.31.11.49.32.49s.31-.18.31-.49v-.06C296.83,33.16,296.72,33,296.52,33Zm2,1v.3h-1.06V32.7h.38V34Zm.69-.87c0-.28.26-.46.62-.46s.6.2.6.5H300c0-.12-.07-.2-.23-.2s-.23.07-.23.16.12.15.3.21c.35.11.54.26.54.53s-.23.46-.59.46-.67-.17-.67-.55h.38c0,.18.1.25.29.25s.21-.07.21-.16,0-.15-.29-.23S299.18,33.43,299.18,33.14Zm2.68-.13h-.48v1.3H301V33h-.47V32.7h1.34Zm.94,1h-.54l-.1.29h-.41l.6-1.61h.35l.6,1.61h-.41Zm-.1-.31-.17-.54-.18.54Zm1.84-.7h-.49v1.3h-.38V33h-.47V32.7h1.34Zm.55,0v.33h.61v.29h-.61V34h.72v.3h-1.1V32.7h1.1V33Zm2.11,1.33a.71.71,0,0,1-.7-.8v-.06a.71.71,0,1,1,1.4,0v.06A.71.71,0,0,1,307.2,34.34Zm0-1.35c-.21,0-.32.17-.32.49v.06c0,.31.11.49.32.49s.31-.18.31-.49v-.06C307.51,33.16,307.4,33,307.2,33Zm1.29,0v.36h.62v.31h-.62v.63h-.38V32.7h1.07V33Zm-16,2.12a1.78,1.78,0,0,0-1.77,2v.15a1.78,1.78,0,1,0,3.53,0v-.15A1.78,1.78,0,0,0,292.49,35.13Zm.79,2.16c0,.78-.28,1.22-.79,1.22s-.79-.44-.79-1.22v-.16c0-.79.27-1.21.79-1.21s.79.42.79,1.21Zm4.61-.88c0-.8-.59-1.22-1.53-1.22h-1.58v4h1V37.82h.55l.71,1.41h1v0l-.85-1.63A1.13,1.13,0,0,0,297.89,36.41Zm-1.54.63h-.61V36h.62a.5.5,0,0,1,.57.54C296.93,36.84,296.74,37,296.35,37Zm2.2,2.19h.95v-4h-.95Zm3.29-1.48h.69v.61a.86.86,0,0,1-.58.16c-.59,0-.87-.4-.87-1.2V37.1c0-.81.3-1.2.78-1.2a.62.62,0,0,1,.7.62h.92a1.44,1.44,0,0,0-1.65-1.39c-1,0-1.72.71-1.72,2v.21a1.74,1.74,0,0,0,1.78,2,2.14,2.14,0,0,0,1.6-.56V37.06h-1.65Zm2.31,1.48h1v-4h-1Zm4.07-4v1.68l.09.94-1.54-2.62h-1v4h1V37.57l-.09-1,1.54,2.61h1v-4Z"/></svg>