<svg xmlns="http://www.w3.org/2000/svg" viewBox="0 0 496.15 341.84"><defs><style>.cls-1{fill:#d0d3d3;}.cls-2{fill:#e4e7e7;}.cls-3{fill:#fff;}.cls-4{fill:#9d9da2;}.cls-5{fill:#404042;}.cls-6{fill:#ffe05d;}.cls-7{fill:#ffd900;}.cls-8{fill:none;}</style></defs><title>shed-centered</title><g id="Layer_2" data-name="Layer 2"><g id="Layer_1-2" data-name="Layer 1"><rect class="cls-1" y="78.89" width="24.48" height="262.95"/><polygon class="cls-2" points="247.24 12.52 21.86 78.89 0 78.89 247.24 2.32 496.15 78.89 473.87 78.89 247.24 12.52"/><rect class="cls-1" x="471.66" y="78.89" width="24.48" height="262.95"/><polygon class="cls-3" points="247.29 10.91 247.29 10.88 247.24 10.9 247.18 10.88 247.18 10.91 17.37 78.89 17.37 94.81 22.81 93.4 22.81 341.84 247.18 341.84 247.29 341.84 471.66 341.84 471.66 93.4 477.1 94.81 477.1 78.89 247.29 10.91"/><rect class="cls-4" x="70.21" y="127.86" width="354.27" height="213.98"/><polygon class="cls-5" points="360.29 341.84 424.48 341.84 424.48 143.47 360.29 341.84"/><rect class="cls-6" x="59.75" y="125.14" width="376.55" height="76.17"/><path class="cls-7" d="M70.16,137.38H425.91c2.18,0,3.1-.61,3.1-1.36s-.92-1.36-3.1-1.36H70.16c-2.19,0-3.12.6-3.12,1.36s.93,1.36,3.12,1.36"/><path class="cls-7" d="M70.16,148.26H425.91c2.18,0,3.1-.6,3.1-1.36s-.92-1.36-3.1-1.36H70.16c-2.19,0-3.12.6-3.12,1.36s.93,1.36,3.12,1.36"/><path class="cls-7" d="M70.16,159.14H425.91c2.18,0,3.1-.6,3.1-1.36s-.92-1.36-3.1-1.36H70.16c-2.19,0-3.12.61-3.12,1.36s.93,1.36,3.12,1.36"/><path class="cls-7" d="M70.16,170H425.91c2.18,0,3.1-.6,3.1-1.36s-.92-1.36-3.1-1.36H70.16c-2.19,0-3.12.61-3.12,1.36S68,170,70.16,170"/><path class="cls-7" d="M70.16,180.9H425.91c2.18,0,3.1-.6,3.1-1.36s-.92-1.36-3.1-1.36H70.16c-2.19,0-3.12.61-3.12,1.36s.93,1.36,3.12,1.36"/><path class="cls-7" d="M70.16,191.79H425.91c2.18,0,3.1-.61,3.1-1.37s-.92-1.35-3.1-1.35H70.16c-2.19,0-3.12.6-3.12,1.35s.93,1.37,3.12,1.37"/><rect class="cls-8" x="225.42" width="270.72" height="341.84"/><path class="cls-1" d="M180.62,111.17v-6.36h3.17a3.56,3.56,0,0,0,.91,2.57,2.74,2.74,0,0,0,2,.83,2,2,0,0,0,1.45-.6,1.93,1.93,0,0,0,.58-1.4,2,2,0,0,0-.57-1.44,8.32,8.32,0,0,0-2.11-1.33,16.22,16.22,0,0,1-4.39-2.76,4.39,4.39,0,0,1-1.16-3.22A4.78,4.78,0,0,1,182,93.67a5.1,5.1,0,0,1,3.47-1.34,4,4,0,0,1,3.45,1.73V92.51h3.15v5.68h-3.15a3.13,3.13,0,0,0-.91-2,2.46,2.46,0,0,0-1.76-.72,2.09,2.09,0,0,0-1.31.41,1.31,1.31,0,0,0-.54,1.09,1.65,1.65,0,0,0,.44,1.09,8.73,8.73,0,0,0,2.59,1.47,22.25,22.25,0,0,1,3.18,1.66,5.41,5.41,0,0,1,1.74,1.94,5.63,5.63,0,0,1,.65,2.74,5.21,5.21,0,0,1-1.61,4.16,5.61,5.61,0,0,1-3.81,1.4,4.4,4.4,0,0,1-3.78-1.82v1.59Z"/><path class="cls-1" d="M198,111.17V108h2.8V95.67H198V100h-3.21v-7.5h16.92V100h-3.17V95.67h-2.88V108h2.8v3.15Z"/><path class="cls-1" d="M223.55,92.22a10.22,10.22,0,0,1,7.6,2.79,9.74,9.74,0,0,1,0,13.61,10.3,10.3,0,0,1-7.6,2.78q-5,0-7.68-2.86a9.51,9.51,0,0,1-2.68-6.73A9.28,9.28,0,0,1,215.94,95,10.19,10.19,0,0,1,223.55,92.22Zm0,3.41a4.76,4.76,0,0,0-3.64,1.61,6.67,6.67,0,0,0-1.49,4.72,6.38,6.38,0,0,0,1.47,4.4,4.73,4.73,0,0,0,3.66,1.65,4.79,4.79,0,0,0,3.65-1.62,6.61,6.61,0,0,0,1.5-4.66,6.54,6.54,0,0,0-1.43-4.41A4.65,4.65,0,0,0,223.55,95.63Z"/><path class="cls-1" d="M255.37,108v3.15h-5.68L245.47,103h-2.13v5h2.33v3.15h-9.75V108h2.56V95.67h-2.56V92.51h11.26q3.16,0,4.58,1.61a5.39,5.39,0,0,1,1.4,3.63,4.86,4.86,0,0,1-3.24,4.64l3,5.63Zm-12-8H245c2.06,0,3.09-.74,3.09-2.2a1.92,1.92,0,0,0-.71-1.63,3.17,3.17,0,0,0-1.94-.53h-2.1Z"/><path class="cls-1" d="M274.52,108v3.15h-9.17V108h2.39l-.89-3.21H262L261,108h2.49v3.15h-8.26V108h2.31l3.63-12.35h-2.48V92.51h12.18v3.16h-2.51L272.3,108Zm-8.43-5.94-1.56-5.62-1.68,5.62Z"/><path class="cls-1" d="M287.12,104.91v-3.15h8.75a10.12,10.12,0,0,1-1.23,5.37,8.36,8.36,0,0,1-3.57,3.13,11.83,11.83,0,0,1-5.25,1.14q-5.06,0-7.76-2.71a9.35,9.35,0,0,1-2.7-6.88,9.66,9.66,0,0,1,1.34-5.12,8.6,8.6,0,0,1,3.61-3.34,10.78,10.78,0,0,1,4.92-1.13A8.66,8.66,0,0,1,291.08,94V92.51h3.16v6.63h-3.16a4.63,4.63,0,0,0-2-2.64,5.65,5.65,0,0,0-3.17-1,5.19,5.19,0,0,0-3.8,1.58,5.92,5.92,0,0,0-1.57,4.36,6.82,6.82,0,0,0,1.6,4.87,5.18,5.18,0,0,0,3.89,1.67,4.62,4.62,0,0,0,2.8-.82,4.22,4.22,0,0,0,1.55-2.28Z"/><path class="cls-1" d="M298.05,111.17V108h2.24V95.67h-2.24V92.51H314.5v5.92h-3.57V95.67h-5.78V100h4.67v3.15h-4.67V108h5.78v-2.79h3.57v5.94Z"/><path class="cls-1" d="M180,84.93V82.12h2.22v-11H180V68.3h7l6.12,10.37V71.11h-2.16V68.3h7.46v2.81H196V85.05h-3.7l-7.18-12.33v9.4h2.1v2.81Z"/><path class="cls-1" d="M215.46,82.12v2.81h-8.18V82.12h2.13l-.79-2.86h-4.31l-.89,2.86h2.23v2.81h-7.37V82.12h2.06l3.24-11h-2.21V68.3h10.85v2.81H210l3.49,11Zm-7.52-5.3-1.38-5-1.5,5Z"/><path class="cls-1" d="M218.34,84.93V82.12h2.5v-11h-2.5V75h-2.86V68.3h15.08V75h-2.83V71.11h-2.57v11h2.5v2.81Z"/><path class="cls-1" d="M231.83,84.93V82.12h2.53v-11h-2.53V68.3h9.4v2.81h-2.55v11h2.55v2.81Z"/><path class="cls-1" d="M252.19,68A9.13,9.13,0,0,1,259,70.52a8.67,8.67,0,0,1,0,12.13,9.14,9.14,0,0,1-6.77,2.48,9,9,0,0,1-6.85-2.55,8.5,8.5,0,0,1-2.39-6,8.29,8.29,0,0,1,2.46-6A9.1,9.1,0,0,1,252.19,68Zm0,3A4.26,4.26,0,0,0,249,72.51a5.93,5.93,0,0,0-1.34,4.2,5.64,5.64,0,0,0,1.32,3.92,4.18,4.18,0,0,0,3.26,1.48,4.31,4.31,0,0,0,3.26-1.45,6.93,6.93,0,0,0,.06-8.08A4.15,4.15,0,0,0,252.19,71.07Z"/><path class="cls-1" d="M263.31,84.93V82.12h2.23v-11h-2.23V68.3h7l6.11,10.37V71.11h-2.16V68.3h7.46v2.81h-2.33V85.05h-3.71L268.5,72.72v9.4h2.09v2.81Z"/><path class="cls-1" d="M298.8,82.12v2.81h-8.18V82.12h2.13L292,79.26h-4.32l-.88,2.86H289v2.81h-7.36V82.12h2.05l3.24-11H284.7V68.3h10.86v2.81h-2.24l3.49,11Zm-7.52-5.3-1.39-5-1.49,5Z"/><path class="cls-1" d="M299.45,84.93V82.12h2.38v-11h-2.38V68.3h9.14v2.81h-2.43v11h4.91V77h3.25v8Z"/></g></g></svg>