<?xml version="1.0" encoding="utf-8"?>
<!-- Generator: Adobe Illustrator 22.1.0, SVG Export Plug-In . SVG Version: 6.00 Build 0)  -->
<svg version="1.1" id="Layer_1" xmlns="http://www.w3.org/2000/svg" xmlns:xlink="http://www.w3.org/1999/xlink" x="0px" y="0px"
	 viewBox="0 0 175 28.4" style="enable-background:new 0 0 175 28.4;" xml:space="preserve">
<style type="text/css">
	.st0{fill:#231F20;}
</style>
<title>text1</title>
<g id="Layer_2_1_">
	<g id="Layer_1-2">
		<path class="st0" d="M0,11.8v-2h1.7V2.2H0v-2h10.4v3.6H8.1V2.2H4.6v2.7h2.5v2H4.7v3h1.8v2H0z"/>
		<path class="st0" d="M23,9.8v2h-3.6l-2.6-5h-1.3v3.1H17v2h-6v-2h1.5V2.2h-1.5v-2h7c1.3,0,2.2,0.4,2.8,1c0.6,0.6,0.8,1.4,0.8,2.2
			c0,1.3-0.8,2.5-2,2.9l1.9,3.5L23,9.8z M15.5,4.8h1.1c1.3,0,1.9-0.4,1.9-1.3c0-0.4-0.1-0.8-0.4-1c-0.4-0.3-0.8-0.4-1.2-0.4h-1.3
			V4.8z"/>
		<path class="st0" d="M23.5,11.8v-2h1.4V2.2h-1.4v-2h10.2v3.7h-2.2V2.2h-3.6v2.7h2.9v2h-2.9v3h3.6V8.1h2.2v3.7H23.5z"/>
		<path class="st0" d="M34.8,11.8v-2h1.4V2.2h-1.4v-2H45v3.7h-2.2V2.2h-3.6v2.7h2.9v2h-2.9v3h3.6V8.1h2.2v3.7H34.8z"/>
		<path class="st0" d="M53,11.9l-3.4-9.7h-1.4v-2h5.9v2h-1.5l2,5.8l2-5.8H55v-2h5.1v2h-1.4l-3.3,9.7L53,11.9L53,11.9z"/>
		<path class="st0" d="M60.7,11.8v-2h1.4V2.2h-1.4v-2h10.2v3.7h-2.2V2.2h-3.6v2.7h2.9v2h-2.9v3h3.6V8.1h2.2v3.7H60.7z"/>
		<path class="st0" d="M72,11.8v-2h1.5V2.2H72v-2h5.6v2h-1.2v2.5h3.2V2.2h-1.2v-2h5.5v2h-1.5v7.7h1.5v2h-5.5v-2h1.2V6.7h-3.2v3.2
			h1.2v2H72z"/>
		<path class="st0" d="M84.8,11.8v-2h1.8V2.2h-1.8v-2h6.6v2h-1.8v7.7h1.8v2H84.8z"/>
		<path class="st0" d="M102.1,0.2h2v4.1h-2c-0.6-1.5-1.5-2.2-2.9-2.2c-1-0.1-2,0.4-2.6,1.1C96.1,4,95.7,5,95.8,6
			c-0.1,1,0.3,2,0.9,2.7c0.6,0.7,1.5,1.1,2.3,1.1c0.8,0,1.5-0.3,2-0.8c0.6-0.6,1.1-1.3,1.2-2.2l2.2,1.1c-0.8,2.7-2.8,4-5.7,4
			c-2.1,0-3.6-0.6-4.7-1.7S92.5,7.6,92.5,6c-0.1-1.1,0.2-2.2,0.8-3.2c0.5-0.9,1.3-1.6,2.2-2c1-0.5,2-0.7,3.1-0.7
			c1.3-0.1,2.5,0.4,3.4,1.1L102.1,0.2L102.1,0.2z"/>
		<path class="st0" d="M105.4,11.8v-2h1.7V2.2h-1.7v-2h6.4v2h-1.7v7.7h3.4V6.2h2.2v5.5H105.4z"/>
		<path class="st0" d="M116.6,11.8v-2h1.4V2.2h-1.4v-2h10.2v3.7h-2.2V2.2h-3.6v2.7h2.9v2h-2.9v3h3.6V8.1h2.2v3.7H116.6z"/>
		<path class="st0" d="M132.2,11.8v-2h1.5V2.2h-1.5v-2h5.6v2h-1.2v2.5h3.2V2.2h-1.2v-2h5.5v2h-1.4v7.7h1.5v2h-5.5v-2h1.2V6.7h-3.2
			v3.2h1.2v2H132.2z"/>
		<path class="st0" d="M144.9,11.8v-2h1.8V2.2h-1.8v-2h6.5v2h-1.8v7.7h1.8v2H144.9z"/>
		<path class="st0" d="M164.3,9.8v2h-3.6l-2.6-5h-1.3v3.1h1.5v2h-6v-2h1.5V2.2h-1.6v-2h7c1.3,0,2.2,0.4,2.8,1s0.8,1.4,0.8,2.2
			c0,1.3-0.8,2.5-2,2.9l1.9,3.5L164.3,9.8z M156.8,4.8h1.1c1.3,0,1.9-0.4,1.9-1.3c0-0.4-0.1-0.8-0.4-1c-0.4-0.2-0.8-0.4-1.2-0.4
			h-1.3V4.8z"/>
		<path class="st0" d="M164.8,11.8v-2h1.4V2.2h-1.4v-2H175v3.7h-2.2V2.2h-3.6v2.7h2.9v2h-2.9v3h3.6V8.1h2.2v3.7H164.8z"/>
		<path class="st0" d="M14.4,28.3l-2.7-9.5h-1.3v-1.3h4.1v1.3h-1.3l2,6.9l2-7h-1.3v-1.3h4.9v1.3h-1.3l2,7l2-7h-1.3v-1.3h3.9v1.3
			h-1.3l-2.7,9.5h-1.5l-2.4-8.4l-2.4,8.4L14.4,28.3z"/>
		<path class="st0" d="M27.7,26.9v-8h-1.2v-1.3h4.1v1.3h-1.3v3h4.6v-3.1h-1.3v-1.3h4.1v1.3h-1.3v8h1.2v1.3h-4v-1.3h1.3v-3.6h-4.6
			v3.6h1.3v1.3h-4.1v-1.3H27.7z"/>
		<path class="st0" d="M39,26.9v-8h-1.3v-1.3h8.8v3.2h-1.3v-1.9h-4.6V22h4v1.3h-4v3.5h4.6v-2h1.3v3.3h-8.9v-1.3H39z"/>
		<path class="st0" d="M48.6,26.9v-8H47v-1.3h3.6l4.7,8.3v-7h-1.5v-1.3h4.3v1.3h-1.5v9.4H55l-5.1-9.1v7.6h1.5v1.3h-4.3v-1.3
			L48.6,26.9L48.6,26.9z"/>
		<path class="st0" d="M64.9,26.9v-3.5l-3.2-4.5h-1.3v-1.3h4.4v1.3h-1.3l2.4,3.3l2.2-3.3h-1.3v-1.3H71v1.3h-1.4l-2.9,4.5v3.5H68v1.3
			h-4.5v-1.3H64.9z"/>
		<path class="st0" d="M70.4,22.8c-0.1-1.5,0.5-2.9,1.5-3.9c1.1-1.1,2.5-1.6,3.9-1.5c1.5-0.1,2.9,0.5,4,1.5c1.1,1.1,1.6,2.5,1.5,3.9
			c0.1,1.5-0.5,2.9-1.6,4c-1.1,1.1-2.5,1.6-4,1.5c-1,0-2-0.2-2.9-0.7c-0.8-0.5-1.5-1.2-2-2C70.6,24.7,70.4,23.8,70.4,22.8z
			 M72.1,22.8c-0.1,1.1,0.4,2.1,1.1,2.9c0.7,0.8,1.7,1.2,2.7,1.2c1.1,0,2-0.4,2.7-1.2c0.7-0.8,1.1-1.8,1.1-2.9
			c0-1.1-0.4-2.1-1.1-2.9c-0.7-0.8-1.7-1.2-2.7-1.2c-1,0-2,0.4-2.7,1.2C72.5,20.7,72.1,21.7,72.1,22.8L72.1,22.8z"/>
		<path class="st0" d="M85.3,18.9v5.3c0,0.6,0,1.1,0.1,1.8c0.1,0.4,0.4,0.6,0.6,0.8c0.4,0.2,0.8,0.4,1.3,0.4c0.5,0,1-0.1,1.5-0.3
			c0.4-0.1,0.6-0.4,0.7-0.8c0.1-0.6,0.2-1.1,0.1-1.8v-5.4h-1.3v-1.4h4.1v1.3h-1.3v5.5c0,0.6,0,1.1-0.1,1.6c-0.1,0.4-0.3,0.8-0.5,1.1
			c-0.3,0.4-0.7,0.7-1.2,0.9c-0.6,0.2-1.2,0.4-1.9,0.4c-0.7,0-1.3-0.1-2-0.3c-0.5-0.1-0.9-0.4-1.2-0.8c-0.3-0.4-0.4-0.7-0.6-1.1
			c-0.1-0.6-0.1-1.2-0.1-1.8v-5.4h-1.3v-1.3h4.2v1.3H85.3z"/>
		<path class="st0" d="M98.4,26.9v-8h-1.3v-1.3h3.6l2.8,7.3l2.8-7.3h3.7v1.3h-1.3v8h1.3v1.3h-4v-1.3h1.3v-8l-3.6,9.5h-0.3l-3.6-9.5
			v8h1.2v1.3h-3.8v-1.3L98.4,26.9z"/>
		<path class="st0" d="M111.2,22.8c-0.1-1.5,0.5-2.9,1.5-3.9c1.1-1.1,2.5-1.6,3.9-1.5c1.5-0.1,2.9,0.5,4,1.5
			c1.1,1.1,1.6,2.5,1.5,3.9c0.1,1.5-0.5,2.9-1.6,4c-1.1,1.1-2.5,1.6-4,1.5c-1,0-2-0.2-2.9-0.7c-0.8-0.5-1.5-1.2-2-2
			C111.5,24.7,111.2,23.8,111.2,22.8z M113,22.8c0,1.1,0.4,2.1,1.1,2.9c0.7,0.8,1.7,1.2,2.7,1.2s2-0.4,2.7-1.2
			c0.7-0.8,1.1-1.8,1.1-2.9c0-1.1-0.4-2.1-1.1-2.9c-0.7-0.8-1.7-1.2-2.7-1.2c-1,0-2,0.4-2.7,1.2C113.4,20.7,113,21.7,113,22.8
			L113,22.8z"/>
		<path class="st0" d="M126.8,28.3l-3.6-9.5h-1.3v-1.3h4.2v1.3h-1.3l2.7,7.2l2.7-7.2H129v-1.3h4.1v1.3h-1.3l-3.5,9.5L126.8,28.3z"/>
		<path class="st0" d="M134.9,26.9v-8h-1.4v-1.3h8.8v3.2H141v-1.9h-4.6V22h3.9v1.3h-3.9v3.5h4.6v-2h1.3v3.3h-8.8v-1.3H134.9z"/>
		<path class="st0" d="M148.4,26.9v-8h-1.1v-1.3h3.9v1.3H150v8h1.1v1.3h-3.9v-1.3H148.4z"/>
		<path class="st0" d="M153.3,26.9v-8h-1.5v-1.3h3.6l4.7,8.3v-7h-1.5v-1.3h4.3v1.3h-1.5v9.4h-1.7l-5.1-9.1v7.6h1.5v1.3h-4.3v-1.3
			L153.3,26.9L153.3,26.9z"/>
		<path class="st0" d="M164.3,28.2v-1.9h1.9v1.9H164.3z M165.7,25.2h-0.8l-0.4-4.5v-3.2h1.5v3.2L165.7,25.2z"/>
	</g>
</g>
</svg>
