<?xml version="1.0" encoding="UTF-8"?><svg id="Layer_2" xmlns="http://www.w3.org/2000/svg" xmlns:xlink="http://www.w3.org/1999/xlink" viewBox="0 0 320 480"><defs><style>.cls-1{fill:none;}.cls-2{clip-path:url(#clippath);}.cls-3{fill:#fff;}.cls-4{fill:#f19816;}</style><clipPath id="clippath"><rect class="cls-1" width="320" height="480"/></clipPath></defs><g id="Layer_1-2"><g class="cls-2"><g><rect class="cls-3" x="89.25" y="350.81" width="141.5" height="44.79"/><g><path class="cls-4" d="M108.61,371.35l-1.5,2.87c-.2,.39-.46,.81-1.22,.81s-.95-.39-1.18-.81l-1.51-2.87h-.01v5.9c0,.52-.39,.76-.88,.76s-.87-.24-.87-.76v-7.12c0-1.07,.64-1.49,1.33-1.49,.64,0,1.11,.38,1.37,.91l1.79,3.49,1.76-3.49c.28-.56,.7-.91,1.32-.91,.69,0,1.36,.42,1.36,1.49v7.12c0,.52-.39,.76-.88,.76s-.87-.24-.87-.76v-5.9h-.01Z"/><path class="cls-4" d="M119.17,376.24c.5,0,.7,.35,.7,.81s-.2,.84-.7,.84h-5.39c-.49,0-.87-.24-.87-.76v-7.59c0-.52,.38-.76,.87-.76h5.25c.52,0,.71,.36,.71,.83s-.2,.81-.71,.81h-4.3v2.02h3.29c.52,0,.71,.35,.71,.81s-.2,.81-.71,.81h-3.29v2.17h4.44Z"/><path class="cls-4" d="M129.47,377.24c0,.55-.42,.76-.91,.76s-.91-.21-.91-.76v-3.18h-4.1v3.18c0,.55-.43,.76-.91,.76-.5,0-.91-.21-.91-.76v-7.8c0-.53,.41-.77,.91-.77,.48,0,.91,.24,.91,.77v2.98h4.1v-2.98c0-.53,.41-.77,.91-.77s.91,.24,.91,.77v7.8Z"/><path class="cls-4" d="M137.27,374.27l2.14,2.13c.98,.97-.35,2.23-1.3,1.2l-2.77-2.96c-.8-.85-.39-1.78,.43-1.78h.62c.87,0,1.18-.38,1.18-1.29s-.31-1.16-1.19-1.16h-2.56v6.84c0,.53-.42,.74-.91,.74s-.91-.21-.91-.74v-7.72c0-.5,.34-.76,.84-.76h3.56c2.17,0,3,.62,3,2.79,0,1.54-.39,2.33-2.11,2.66v.04Z"/><path class="cls-4" d="M151.23,376.24c.5,0,.7,.35,.7,.81s-.2,.84-.7,.84h-5.39c-.49,0-.87-.24-.87-.76v-7.59c0-.52,.38-.76,.87-.76h5.25c.52,0,.71,.36,.71,.83s-.2,.81-.71,.81h-4.3v2.02h3.29c.52,0,.71,.35,.71,.81s-.2,.81-.71,.81h-3.29v2.17h4.44Z"/><path class="cls-4" d="M159.06,374.27l2.14,2.13c.98,.97-.35,2.23-1.3,1.2l-2.77-2.96c-.8-.85-.39-1.78,.43-1.78h.62c.87,0,1.18-.38,1.18-1.29s-.31-1.16-1.19-1.16h-2.56v6.84c0,.53-.42,.74-.91,.74s-.91-.21-.91-.74v-7.72c0-.5,.34-.76,.84-.76h3.56c2.17,0,3,.62,3,2.79,0,1.54-.39,2.33-2.12,2.66v.04Z"/><path class="cls-4" d="M165.22,373.98v3.17c0,.53-.42,.74-.91,.74s-.91-.21-.91-.74v-7.61c0-.52,.38-.76,.87-.76h5.39c.52,0,.71,.36,.71,.83s-.2,.81-.71,.81h-4.44v1.93h3.57c.52,0,.7,.35,.7,.81s-.18,.81-.7,.81h-3.57Z"/><path class="cls-4" d="M177.25,375.52h-3.99l-.76,1.82c-.46,1.11-2.37,.74-1.79-.55l3.25-7.24c.29-.66,.77-.91,1.3-.91,.62,0,1.04,.34,1.3,.91l3.26,7.24c.56,1.26-1.33,1.65-1.79,.56l-.78-1.83Zm-2.1-4.54l-1.23,2.94h2.66l-1.23-2.94h-.2Z"/><path class="cls-4" d="M189.49,377.24c0,.55-.42,.76-.91,.76s-.91-.21-.91-.76v-3.18h-4.1v3.18c0,.55-.43,.76-.91,.76-.5,0-.91-.21-.91-.76v-7.8c0-.53,.41-.77,.91-.77,.48,0,.91,.24,.91,.77v2.98h4.1v-2.98c0-.53,.41-.77,.91-.77s.91,.24,.91,.77v7.8Z"/><path class="cls-4" d="M197.27,374.27l2.14,2.13c.98,.97-.35,2.23-1.3,1.2l-2.77-2.96c-.8-.85-.39-1.78,.43-1.78h.62c.87,0,1.18-.38,1.18-1.29s-.31-1.16-1.19-1.16h-2.56v6.84c0,.53-.42,.74-.91,.74s-.91-.21-.91-.74v-7.72c0-.5,.34-.76,.84-.76h3.56c2.17,0,3,.62,3,2.79,0,1.54-.39,2.33-2.12,2.66v.04Z"/><path class="cls-4" d="M207.87,376.24c.5,0,.7,.35,.7,.81s-.2,.84-.7,.84h-5.39c-.49,0-.87-.24-.87-.76v-7.59c0-.52,.38-.76,.87-.76h5.25c.52,0,.71,.36,.71,.83s-.2,.81-.71,.81h-4.3v2.02h3.29c.52,0,.71,.35,.71,.81s-.2,.81-.71,.81h-3.29v2.17h4.44Z"/><path class="cls-4" d="M213.13,369.54l3.63,5.86h.06v-5.97c0-.52,.38-.76,.85-.76,.5,0,.84,.24,.84,.76v7.12c0,1.06-.67,1.48-1.25,1.48-.81,0-1.15-.43-1.44-.9l-3.66-5.87h-.03v5.98c0,.52-.39,.76-.87,.76-.52,0-.84-.24-.84-.76v-7.12c0-1.07,.64-1.47,1.23-1.47,.81,0,1.18,.41,1.47,.88Z"/></g></g></g></g></svg>