<?xml version="1.0" encoding="utf-8"?>
<!-- Generator: Adobe Illustrator 23.0.4, SVG Export Plug-In . SVG Version: 6.00 Build 0)  -->
<svg version="1.1" id="Layer_1" xmlns="http://www.w3.org/2000/svg" xmlns:xlink="http://www.w3.org/1999/xlink" x="0px" y="0px"
	 viewBox="0 0 320 50" style="enable-background:new 0 0 320 50;" xml:space="preserve">
<style type="text/css">
	.st0{fill:#FFFFFF;}
</style>
<title>320 x 50 3</title>
<path class="st0" d="M231.2,26.2v3.7h-0.7l-0.1-0.8c-0.4,0.7-1.2,1-2,0.9c-1.3,0-2.1-0.6-2.1-1.8s0.8-1.8,2.2-1.8
	c0.6,0,1.2,0.1,1.8,0.3v-0.5c0-0.7-0.5-1.4-1.2-1.4c-0.1,0-0.2,0-0.3,0c-0.6,0-1.2,0.2-1.7,0.5l-0.5-0.7c0.7-0.4,1.4-0.7,2.2-0.6
	c1.1-0.1,2.2,0.7,2.3,1.8C231.2,26,231.2,26.1,231.2,26.2z M230.3,27.9v-0.3c-0.5-0.2-1.1-0.3-1.6-0.3c-1,0-1.5,0.3-1.5,1
	s0.5,1,1.4,1S230.3,28.6,230.3,27.9L230.3,27.9z"/>
<path class="st0" d="M233.1,21.4h0.9v8.5h-0.9V21.4z"/>
<path class="st0" d="M236,21.4h0.9v8.5H236V21.4z"/>
</svg>
