<?xml version="1.0" encoding="utf-8"?>
<!-- Generator: Adobe Illustrator 23.0.4, SVG Export Plug-In . SVG Version: 6.00 Build 0)  -->
<svg version="1.1" id="Layer_1" xmlns="http://www.w3.org/2000/svg" xmlns:xlink="http://www.w3.org/1999/xlink" x="0px" y="0px"
	 viewBox="0 0 320 50" style="enable-background:new 0 0 320 50;" xml:space="preserve">
<style type="text/css">
	.st0{fill:#FFFFFF;}
</style>
<title>320 x 50 3</title>
<path class="st0" d="M200.9,27.1c0-1.7,1.3-3,2.9-3.1s3,1.3,3.1,2.9s-1.3,3-2.9,3.1c0,0,0,0-0.1,0c-1.6,0.1-2.9-1.1-3-2.7
	C200.9,27.2,200.9,27.2,200.9,27.1z M206,27.1c0.1-1.1-0.8-2.1-1.9-2.1c-0.1,0-0.2,0-0.2,0c-1.1,0-2.1,0.9-2.1,2v0.1
	c-0.1,1.2,0.8,2.2,2,2.3c1.2,0.1,2.2-0.8,2.3-2C206,27.3,206,27.2,206,27.1z"/>
<path class="st0" d="M209.6,23.3v0.9h2.2V25h-2.2v4.9h-0.9V25h-1.1v-0.8h1.1v-1c-0.1-1,0.6-1.9,1.6-2c0.1,0,0.2,0,0.3,0
	c0.6,0,1.1,0.2,1.5,0.5l-0.4,0.7c-0.3-0.3-0.7-0.4-1.1-0.5c-0.6-0.1-1.1,0.4-1.2,1C209.6,23.1,209.6,23.2,209.6,23.3z"/>
</svg>
