<?xml version="1.0" encoding="utf-8"?>
<!-- Generator: Adobe Illustrator 23.0.4, SVG Export Plug-In . SVG Version: 6.00 Build 0)  -->
<svg version="1.1" id="Layer_1" xmlns="http://www.w3.org/2000/svg" xmlns:xlink="http://www.w3.org/1999/xlink" x="0px" y="0px"
	 viewBox="0 0 336 280" style="enable-background:new 0 0 336 280;" xml:space="preserve">
<style type="text/css">
	.st0{fill:#FFFFFF;}
</style>
<title>336 x 280 3</title>
<path class="st0" d="M251.7,131.3c0-0.5,0.4-0.9,0.9-0.9h0.1c0.5-0.1,0.9,0.3,1,0.8v0.1c-0.2,0.5-0.7,0.8-1.2,0.7
	C252.1,131.9,251.8,131.6,251.7,131.3L251.7,131.3z M252,134h1.3v8.5H252V134z"/>
<path class="st0" d="M261.8,142.2c-0.7,0.4-1.4,0.5-2.2,0.5c-1.9,0-2.9-1-2.9-3v-4.4h-1.6v-1c1.4,0,1.9-0.8,1.9-2.6h1v2.4h3.3v1.2
	H258v4.3c0,1.4,0.5,1.9,1.7,1.9c0.6,0,1.1-0.1,1.6-0.5L261.8,142.2z"/>
</svg>
