<?xml version="1.0" encoding="utf-8"?>
<!-- Generator: Adobe Illustrator 23.0.4, SVG Export Plug-In . SVG Version: 6.00 Build 0)  -->
<svg version="1.1" id="Layer_1" xmlns="http://www.w3.org/2000/svg" xmlns:xlink="http://www.w3.org/1999/xlink" x="0px" y="0px"
	 viewBox="0 0 336 280" style="enable-background:new 0 0 336 280;" xml:space="preserve">
<style type="text/css">
	.st0{fill:#FFFFFF;}
</style>
<title>336 x 280 3</title>
<path class="st0" d="M139.7,142.2c-0.7,0.4-1.4,0.5-2.2,0.5c-1.9,0-2.9-1-2.9-3v-4.4H133v-1c1.4,0,1.9-0.8,1.9-2.6h1v2.4h3.3v1.2
	H136v4.3c0,1.4,0.4,1.9,1.7,1.9c0.6,0,1.1-0.1,1.6-0.5L139.7,142.2z"/>
<path class="st0" d="M141.5,129.8h1.3v5.5c0.7-0.9,1.8-1.5,3-1.4c1.8-0.1,3.3,1.3,3.4,3.1c0,0.2,0,0.3,0,0.5v5h-1.3v-4.8
	c0-1.6-0.8-2.6-2.3-2.6c-1.5-0.1-2.8,1.1-2.8,2.6c0,0.1,0,0.1,0,0.2v4.6h-1.3L141.5,129.8z"/>
<path class="st0" d="M159.9,138.8h-7c0.1,1.5,1.4,2.7,2.9,2.7c1,0.1,2-0.4,2.5-1.3l1.1,0.5c-0.8,1.3-2.2,2.1-3.8,2
	c-2.4,0-4.4-2-4.3-4.5c0-2.4,2-4.4,4.5-4.3c2.4,0,4.1,1.8,4.1,4.4C159.9,138.5,159.9,138.8,159.9,138.8z M158.6,137.6
	c0-1.4-1.2-2.5-2.6-2.5c-0.1,0-0.1,0-0.2,0c-1.5-0.1-2.9,1-3,2.5H158.6z"/>
</svg>
