<?xml version="1.0" encoding="utf-8"?>
<!-- Generator: Adobe Illustrator 23.0.4, SVG Export Plug-In . SVG Version: 6.00 Build 0)  -->
<svg version="1.1" id="Layer_1" xmlns="http://www.w3.org/2000/svg" xmlns:xlink="http://www.w3.org/1999/xlink" x="0px" y="0px"
	 viewBox="0 0 336 280" style="enable-background:new 0 0 336 280;" xml:space="preserve">
<style type="text/css">
	.st0{fill:#FFFFFF;}
</style>
<title>336 x 280 3</title>
<path class="st0" d="M274.8,137v5.5h-1l-0.2-1.2c-0.7,1-1.8,1.5-3,1.4c-2,0-3.2-1-3.2-2.7s1.2-2.6,3.3-2.6c0.9,0,1.9,0.1,2.7,0.5
	v-0.7c0-1.1-0.8-2-1.9-2.1c-0.1,0-0.2,0-0.3,0c-0.9,0-1.8,0.3-2.6,0.8l-0.7-1c1-0.7,2.1-1,3.3-1C273.4,133.9,274.8,135.1,274.8,137z
	 M273.5,139.5V139c-0.8-0.3-1.6-0.5-2.4-0.5c-1.5,0-2.3,0.5-2.3,1.5s0.7,1.5,2.2,1.5S273.5,140.6,273.5,139.5L273.5,139.5z"/>
<path class="st0" d="M277.7,129.8h1.3v12.7h-1.3L277.7,129.8z"/>
<path class="st0" d="M282,129.8h1.3v12.7H282V129.8z"/>
</svg>
