<?xml version="1.0" encoding="utf-8"?>
<!-- Generator: Adobe Illustrator 23.0.4, SVG Export Plug-In . SVG Version: 6.00 Build 0)  -->
<svg version="1.1" id="Layer_1" xmlns="http://www.w3.org/2000/svg" xmlns:xlink="http://www.w3.org/1999/xlink" x="0px" y="0px"
	 viewBox="0 0 336 280" style="enable-background:new 0 0 336 280;" xml:space="preserve">
<style type="text/css">
	.st0{fill:#323E60;}
	.st1{fill:#FFFFFF;}
	.st2{fill:#7BB6DE;}
	.st3{clip-path:url(#SVGID_2_);}
	.st4{clip-path:url(#SVGID_4_);}
	.st5{clip-path:url(#SVGID_6_);}
</style>
<title>336 x 280 4</title>
<rect y="-0.5" class="st0" width="336" height="280"/>
<path class="st1" d="M99.4,152.1v2.5h-9v-11.4h-1c-1.5-0.2-2.9,1-3,2.5c0,0.1,0,0.3,0,0.4c-0.1,1.5,1,2.8,2.5,2.9l-0.5,2.4
	c-2.7-0.2-4.8-2.6-4.6-5.3c0-3.3,2.2-5.3,5.8-5.3H93v11.3L99.4,152.1z"/>
<path class="st1" d="M110,150.6h-7.2c0.1,1.2,1.2,2,2.4,1.9c0.9,0.1,1.7-0.3,2.1-1.1l2.3,1c-1.5,2.4-4.7,3-7,1.5
	c-1.4-0.9-2.3-2.5-2.3-4.2c-0.1-2.7,2-4.9,4.7-4.9c0.1,0,0.2,0,0.4,0c2.8,0,4.7,2,4.7,5C110,150.2,110,150.6,110,150.6z
	 M107.6,148.7c-0.1-1.1-1.1-1.9-2.2-1.8c0,0,0,0,0,0c-1.1-0.1-2.2,0.6-2.4,1.8H107.6z"/>
<path class="st1" d="M119,154.2c-0.9,0.4-1.8,0.6-2.7,0.6c-2.5,0-3.7-1.2-3.7-3.7v-3.9h-1.7v-1.9c1.4-0.1,2.2-1,2.3-2.9h2v2.6h3.2
	v2.2h-3.2v3.7c0,1.2,0.4,1.6,1.5,1.6c0.6,0,1.1-0.2,1.6-0.5L119,154.2z"/>
<path class="st1" d="M133.1,154.2c-0.9,0.4-1.8,0.6-2.7,0.6c-2.5,0-3.7-1.2-3.7-3.7v-3.9H125v-1.9c1.4-0.1,2.2-1,2.3-2.9h2v2.6h3.2
	v2.2h-3.2v3.7c0,1.2,0.4,1.6,1.5,1.6c0.6,0,1.1-0.2,1.6-0.5L133.1,154.2z"/>
<path class="st1" d="M134.3,142c0-0.9,0.7-1.6,1.6-1.6s1.6,0.7,1.6,1.6c0,0.8-0.7,1.5-1.5,1.5c0,0-0.1,0-0.1,0
	c-0.8,0-1.5-0.6-1.5-1.4C134.3,142.1,134.3,142,134.3,142z M134.6,145h2.5v9.6h-2.5V145z"/>
<path class="st1" d="M155,148.7v5.8h-2.5v-5.3c0-1.4-0.6-2.1-1.7-2.1c-1.1,0-2.1,0.9-2.1,2c0,0.1,0,0.2,0,0.3v5.1h-2.6v-5.3
	c0-1.4-0.6-2.1-1.7-2.1c-1.1,0-2.1,0.8-2.1,2c0,0.1,0,0.2,0,0.3v5.1h-2.6V145h2l0.3,1.3c0.7-1,1.9-1.6,3.1-1.5
	c1.2-0.1,2.3,0.6,2.9,1.7c0.8-1.1,2.1-1.7,3.5-1.7C153.6,144.8,155,146.3,155,148.7z"/>
<path class="st1" d="M166.6,150.6h-7.2c0.1,1.2,1.2,2,2.4,1.9c0.9,0.1,1.7-0.3,2.1-1.1l2.3,1c-1.5,2.4-4.7,3-7,1.5
	c-1.4-0.9-2.3-2.5-2.3-4.2c-0.1-2.7,2.1-4.9,4.7-4.9c0.1,0,0.3,0,0.4,0c2.8,0,4.7,2,4.7,5C166.7,150.2,166.6,150.6,166.6,150.6z
	 M164.2,148.7c-0.1-1.1-1.1-1.9-2.2-1.8c0,0,0,0,0,0c-1.1-0.1-2.2,0.6-2.4,1.8H164.2z"/>
<path class="st1" d="M177.1,145h3.3v2.2h-3.3v7.4h-2.6v-7.4h-1.7V145h1.7v-1c-0.2-1.9,1.2-3.6,3.2-3.8c0.2,0,0.4,0,0.6,0
	c1,0,2,0.3,2.8,0.9l-0.9,2c-0.4-0.4-1-0.6-1.6-0.6c-0.8-0.1-1.5,0.5-1.6,1.3c0,0.1,0,0.2,0,0.3V145z"/>
<path class="st1" d="M189.8,148.7v5.9h-1.9l-0.4-1.2c-0.8,1-2,1.6-3.3,1.5c-2.2,0-3.5-1.1-3.5-3s1.4-2.9,3.7-2.9
	c0.9,0,1.9,0.1,2.8,0.5v-0.4c0.1-1-0.6-1.8-1.6-1.9c-0.1,0-0.3,0-0.4,0c-0.9,0-1.8,0.2-2.6,0.8l-1.3-1.8c1.2-0.8,2.6-1.2,4.1-1.2
	C188.1,144.8,189.8,146.3,189.8,148.7z M187.3,151v-0.2c-0.6-0.2-1.3-0.3-2-0.4c-1.2,0-1.9,0.4-1.9,1.2s0.6,1.2,1.7,1.2
	C186.2,152.9,187.2,152.1,187.3,151C187.3,151,187.3,151,187.3,151z"/>
<path class="st1" d="M192.2,140.4h2.6v14.1h-2.6V140.4z"/>
<path class="st1" d="M197.5,140.4h2.5v14.1h-2.6L197.5,140.4z"/>
<path class="st1" d="M216,148.7v5.9h-1.8l-0.4-1.2c-0.8,1-2,1.6-3.3,1.5c-2.2,0-3.5-1.1-3.5-3s1.4-2.9,3.7-2.9
	c0.9,0,1.9,0.1,2.8,0.5v-0.4c0.1-1-0.6-1.8-1.6-1.9c-0.1,0-0.3,0-0.4,0c-0.9,0-1.8,0.2-2.6,0.8l-1.3-1.8c1.2-0.8,2.6-1.2,4.1-1.2
	C214.3,144.8,216,146.3,216,148.7z M213.5,151v-0.2c-0.6-0.2-1.3-0.3-2-0.4c-1.3,0-1.9,0.4-1.9,1.2s0.6,1.2,1.7,1.2
	C212.4,152.9,213.4,152.1,213.5,151C213.5,151,213.5,151,213.5,151z"/>
<path class="st1" d="M232,145l-3.3,9.6h-2.3l-1.8-5.8l-0.2-0.9l-0.1,0.9l-1.7,5.8h-2.3l-3.4-9.6h2.7l1.8,5.8l0.2,1.1l0.2-1.1
	l1.7-5.8h2.1l1.7,5.8l0.1,1.1l0.2-1.1l1.8-5.8H232z"/>
<path class="st1" d="M241.2,148.7v5.9h-1.8l-0.3-1.2c-0.8,1-2,1.6-3.3,1.5c-2.2,0-3.5-1.1-3.5-3s1.4-2.9,3.7-2.9
	c0.9,0,1.9,0.1,2.8,0.5v-0.4c0.1-1-0.6-1.8-1.6-1.9c-0.1,0-0.3,0-0.4,0c-0.9,0-1.8,0.2-2.6,0.8l-1.4-1.8c1.2-0.8,2.6-1.2,4.1-1.2
	C239.5,144.8,241.2,146.3,241.2,148.7z M238.7,151v-0.2c-0.6-0.2-1.3-0.3-2-0.4c-1.3,0-1.9,0.4-1.9,1.2s0.6,1.2,1.7,1.2
	C237.6,152.9,238.6,152.1,238.7,151C238.7,151,238.7,151,238.7,151z"/>
<path class="st1" d="M232.6,158.1l1.8-1.5c1.2,2,3.3,3.2,5.5,3.2c2.5,0,4.1-1.2,5.3-3.9l0.8-1.7L242,145h2.9l2.4,6.2l0.1,1l0.1-1
	l1.9-4.6c0.4-0.9,0.7-1.8,0.7-2.7c0-1.2-1.4-1.5-1.4-1.5l1-2.2c0,0,3.1,0.8,3.1,3.5c-0.1,1.3-0.4,2.5-1,3.7l-4.1,9.4
	c-1.6,3.7-4.1,5.4-7.8,5.4C237.1,162.2,234.3,160.6,232.6,158.1z"/>
<path class="st2" d="M108,184h118c10.2,0,18.5,8.3,18.5,18.5l0,0c0,10.2-8.3,18.5-18.5,18.5H108c-10.2,0-18.5-8.3-18.5-18.5l0,0
	C89.5,192.3,97.8,184,108,184z"/>
<path class="st1" d="M135.7,204.4v1.9H129V196h2v8.4L135.7,204.4z"/>
<path class="st1" d="M143.6,203.3h-5.4c0.1,0.9,0.9,1.5,1.8,1.4c0.6,0.1,1.3-0.3,1.6-0.8l1.7,0.8c-1.1,1.8-3.4,2.3-5.1,1.3
	c-1.8-1.1-2.3-3.4-1.3-5.1c0.7-1.1,1.9-1.8,3.2-1.8c1.9,0,3.5,1.5,3.5,3.4c0,0.1,0,0.2,0,0.4C143.6,203.1,143.6,203.3,143.6,203.3z
	 M141.8,201.9c-0.1-0.8-0.8-1.4-1.7-1.3c0,0,0,0,0,0c-0.9-0.1-1.6,0.5-1.8,1.3H141.8z"/>
<path class="st1" d="M151.2,201.9v4.4h-1.4l-0.3-0.9c-0.6,0.8-1.5,1.2-2.5,1.1c-1.6,0-2.6-0.8-2.6-2.3s1-2.2,2.8-2.2
	c0.7,0,1.4,0.1,2.1,0.3V202c0.1-0.7-0.5-1.3-1.2-1.4c-0.1,0-0.2,0-0.3,0c-0.7,0-1.4,0.2-1.9,0.6l-1-1.3c0.9-0.6,2-0.9,3.1-0.9
	C149.9,199,151.2,200.1,151.2,201.9z M149.3,203.7v-0.2c-0.5-0.2-1-0.3-1.5-0.3c-0.9,0-1.4,0.3-1.4,0.9s0.4,0.9,1.3,0.9
	C148.5,205.1,149.2,204.5,149.3,203.7C149.3,203.7,149.3,203.7,149.3,203.7L149.3,203.7z"/>
<path class="st1" d="M153,199.2h1.5l0.3,1.3c0.4-1,1.4-1.5,2.4-1.4c0.1,0,0.3,0,0.4,0l-0.1,1.9h-0.3c-1.6,0-2.3,0.7-2.3,2.6v2.7H153
	V199.2z"/>
<path class="st1" d="M158.8,199.2h1.5l0.2,1c0.6-0.8,1.5-1.3,2.5-1.2c1.5-0.1,2.7,1.1,2.8,2.6c0,0.1,0,0.3,0,0.4v4.3h-1.9v-3.9
	c0-1-0.5-1.6-1.4-1.6c-0.9-0.1-1.7,0.6-1.7,1.5c0,0.1,0,0.1,0,0.2v3.8h-1.9L158.8,199.2z"/>
<path class="st1" d="M182.7,202v4.3h-1.9v-3.9c0-1-0.4-1.6-1.3-1.6c-0.8,0-1.6,0.6-1.6,1.5c0,0.1,0,0.2,0,0.3v3.8h-1.9v-3.9
	c0-1-0.4-1.6-1.3-1.6c-0.8,0-1.6,0.6-1.6,1.5c0,0.1,0,0.2,0,0.3v3.8h-1.9v-7.1h1.5l0.3,1c0.5-0.8,1.4-1.2,2.3-1.1
	c0.9-0.1,1.8,0.4,2.1,1.2c0.6-0.8,1.6-1.3,2.6-1.2C181.7,199,182.7,200.1,182.7,202z"/>
<path class="st1" d="M184.1,202.8c0-2,1.6-3.7,3.6-3.8c0.1,0,0.2,0,0.2,0c2-0.1,3.7,1.4,3.9,3.4c0,0.1,0,0.2,0,0.3
	c0,2.1-1.7,3.9-3.9,3.9C185.8,206.6,184.1,204.9,184.1,202.8L184.1,202.8z M190,202.8c0.1-1-0.7-1.9-1.7-2c-0.1,0-0.2,0-0.3,0
	c-1.1,0-2,0.9-2,2s0.9,2,2,2S190,203.9,190,202.8z"/>
<path class="st1" d="M193.4,199.2h1.5l0.3,1.3c0.4-1,1.4-1.5,2.4-1.4c0.1,0,0.3,0,0.4,0l-0.1,1.9h-0.3c-1.6,0-2.3,0.7-2.3,2.6v2.7
	h-1.9V199.2z"/>
<path class="st1" d="M205.7,203.3h-5.4c0.1,0.9,0.9,1.5,1.8,1.4c0.6,0.1,1.3-0.3,1.6-0.8l1.7,0.8c-1.1,1.8-3.4,2.3-5.1,1.3
	c-1.8-1.1-2.3-3.4-1.3-5.1c0.7-1.1,1.9-1.8,3.2-1.8c1.9,0,3.5,1.5,3.5,3.4c0,0.1,0,0.2,0,0.4C205.8,203.1,205.7,203.3,205.7,203.3z
	 M203.9,201.9c-0.1-0.8-0.8-1.4-1.7-1.3c0,0,0,0,0,0c-0.9-0.1-1.6,0.5-1.8,1.3H203.9z"/>
<rect x="117.2" y="74.2" class="st1" width="3.4" height="17"/>
<g>
	<defs>
		<rect id="SVGID_1_" x="78.1" y="58.1" width="171.9" height="57.4"/>
	</defs>
	<clipPath id="SVGID_2_">
		<use xlink:href="#SVGID_1_"  style="overflow:visible;"/>
	</clipPath>
	<g class="st3">
		<path class="st1" d="M135.2,91.6c-4.9,0-9.1-3.4-9.1-8.9s4.2-8.8,9.1-8.8c2.1,0,4.2,0.6,5.9,1.7v3.1c-1.5-1.4-3.5-2.1-5.5-2.1
			c-3.4,0-5.9,2.3-5.9,6.1s2.5,6.1,5.9,6.1c2,0,4-0.7,5.5-2.1v3.1C139.4,91,137.3,91.6,135.2,91.6"/>
	</g>
</g>
<polygon class="st1" points="154.3,76.9 154.3,91.2 150.9,91.2 150.9,76.9 145.1,76.9 145.1,74.2 160.1,74.2 160.1,76.9 "/>
<g>
	<defs>
		<rect id="SVGID_3_" x="78.1" y="58.1" width="171.9" height="57.4"/>
	</defs>
	<clipPath id="SVGID_4_">
		<use xlink:href="#SVGID_3_"  style="overflow:visible;"/>
	</clipPath>
	<g class="st4">
		<path class="st1" d="M172.2,76.5c-3.4,0-5.6,2.6-5.6,6.2s2.2,6.3,5.6,6.3s5.6-2.6,5.6-6.2S175.6,76.5,172.2,76.5 M172.2,91.7
			c-5-0.1-8.9-4.2-8.8-9.2c0.1-5,4.2-8.9,9.2-8.8c4.9,0.1,8.8,4.1,8.8,9c0.1,4.9-3.9,9-8.8,9C172.5,91.8,172.4,91.8,172.2,91.7"/>
		<path class="st1" d="M190.3,82h2.7c2.1,0,2.9-1.1,2.9-2.6s-0.8-2.7-2.9-2.7h-2.7L190.3,82z M199,91.4c-2,0-3.7-0.9-4.9-3.3
			l-1.8-3.6h-2v6.8h-3.4v-17h6.7c4,0,5.7,2.4,5.7,5.1c0.1,2.3-1.5,4.4-3.7,4.8l1.7,2.9c0.9,1.5,1.6,2,2.8,2c0.3,0,0.7,0,1-0.1v2.2
			C200.4,91.3,199.7,91.4,199,91.4"/>
	</g>
</g>
<rect x="207" y="74.2" class="st1" width="3.4" height="17"/>
<g>
	<defs>
		<rect id="SVGID_5_" x="78.1" y="58.1" width="171.9" height="57.4"/>
	</defs>
	<clipPath id="SVGID_6_">
		<use xlink:href="#SVGID_5_"  style="overflow:visible;"/>
	</clipPath>
	<g class="st5">
		<path class="st1" d="M85.7,73.7c-1,0.3-2,0.3-3-0.1c-0.9-0.4-1.5-1.1-1.8-1.9c-0.3-0.8-0.2-1.8,0.2-2.6c0.4-0.7,1.1-1.1,1.9-1
			c1,0.2,2,0.6,2.7,1.2c0.9,0.7,1.8,1.5,2.5,2.4c0.2,0.2,0.4,0.5,0.6,0.8C87.8,73,86.7,73.4,85.7,73.7 M159,60.7
			c-9.9-2.7-20.2-3.3-30.4-1.7c-10.1,1.6-19.9,4.5-29.3,8.6c-2.4,1-4.6,2-7,3.1c-0.3,0.2-0.6,0.3-0.9,0.5c-0.3-0.4-0.7-0.8-1-1.2
			c-0.9-1-1.9-2-3-2.8c-1.2-0.9-2.6-1.5-4.2-1.7c-0.9-0.1-1.8,0.1-2.5,0.5c-0.8,0.4-1.4,1.1-1.8,1.8c-0.8,1.5-0.9,3.2-0.3,4.8
			c0.6,1.5,1.8,2.7,3.3,3.4c1.4,0.5,3,0.6,4.5,0.1c1.4-0.4,2.7-0.9,4-1.6c0.7,1.1,1.4,2.2,2.1,3.4l8,12.9l0,0
			c0.1,0.2,0.3,0.4,0.5,0.5c0.7,0.4,1.7,0.2,2.1-0.6c0,0,0,0,0,0l9.6-16.2c0.1-0.1,0.1-0.2,0.1-0.4h-3.7L101.6,87l-6.8-10.7
			c-0.7-1.1-1.4-2.2-2.1-3.2l0.6-0.3c2.2-1,4.5-2.1,6.8-3.1c9.1-4.2,18.8-7.2,28.7-9c9.9-1.7,20.1-1.3,29.8,1.3
			c0.3,0.1,0.7-0.1,0.8-0.4C159.5,61.1,159.3,60.8,159,60.7"/>
		<path class="st1" d="M247.3,95.8c-0.2,0.8-0.9,1.4-1.7,1.5c-1,0-2-0.3-2.8-0.9c-1-0.7-1.9-1.5-2.6-2.3c-0.3-0.4-0.6-0.8-0.9-1.1
			c0.7-0.4,1.4-0.7,2.1-0.9c1-0.4,2.1-0.5,3.2-0.4c0.9,0.2,1.8,0.7,2.3,1.5C247.4,93.9,247.5,94.9,247.3,95.8 M249.1,91.8
			c-0.9-1.4-2.4-2.4-4-2.6c-1.5-0.2-3,0-4.4,0.6c-1,0.4-1.9,0.8-2.8,1.3c-0.7-1-1.3-2-1.9-3l-8.2-13.3l0,0c-0.5-0.7-1.4-1-2.2-0.5
			c-0.2,0.1-0.4,0.3-0.5,0.5L215.5,91c-0.1,0.1-0.1,0.2-0.1,0.4h3.6l7.6-12.8l7,11c0.6,0.9,1.2,1.9,1.9,2.9
			c-0.6,0.3-1.2,0.6-1.8,0.9c-2.3,1.1-4.7,2.3-7,3.6c-9.1,5-18,10.4-27.8,13.5c-9.8,3.1-20.2,4.3-30.4,3.6c-0.4,0-0.7,0.3-0.7,0.6
			c0,0.4,0.3,0.7,0.6,0.7c10.5,0.9,21-0.2,31.1-3.3c10.1-3.1,19.2-8.4,28.3-13.2c2.3-1.2,4.6-2.3,6.9-3.4c0.8-0.3,1.5-0.7,2.2-1.1
			c0.4,0.6,0.9,1.2,1.4,1.7c0.9,1.1,2,2,3.2,2.8c1.3,0.9,3,1.4,4.6,1.2c0.9-0.1,1.8-0.5,2.4-1.2c0.6-0.6,1.1-1.4,1.4-2.2
			C250.3,94.9,250,93.2,249.1,91.8"/>
		<path class="st1" d="M149.3,101.4h-0.8v1.5h0.8c0.6,0,0.9-0.3,0.9-0.8S149.9,101.4,149.3,101.4 M148.5,100.7h0.7
			c0.5,0,0.7-0.3,0.7-0.6s-0.2-0.6-0.7-0.6h-0.7V100.7z M149.5,103.6h-1.9v-4.8h1.9c1,0,1.4,0.6,1.4,1.3c0,0.4-0.2,0.7-0.5,0.9
			c0.5,0.2,0.8,0.7,0.8,1.2C151.2,103,150.7,103.6,149.5,103.6"/>
		<path class="st1" d="M155.3,103.7c-1.4,0.1-2.6-0.9-2.7-2.3s0.9-2.6,2.3-2.7c0.1,0,0.3,0,0.4,0c0.6,0,1.2,0.2,1.7,0.5v0.9
			c-0.4-0.4-1-0.6-1.6-0.6c-0.9,0-1.7,0.8-1.7,1.7s0.8,1.7,1.7,1.7l0,0c0.6,0,1.1-0.2,1.6-0.6v0.9
			C156.5,103.6,155.9,103.8,155.3,103.7"/>
		<path class="st1" d="M159.1,104.7l-0.2-0.2c0.3-0.2,0.5-0.5,0.5-0.8h-0.5v-1h1v0.8C160,104,159.6,104.5,159.1,104.7"/>
		<path class="st1" d="M166.8,103.7c-1.4,0.1-2.6-0.9-2.7-2.3s0.9-2.6,2.3-2.7c0.1,0,0.3,0,0.4,0c0.6,0,1.2,0.2,1.7,0.5v0.9
			c-0.4-0.4-1-0.6-1.6-0.6c-0.9,0-1.7,0.8-1.7,1.7s0.8,1.7,1.7,1.7c0.6,0,1.1-0.2,1.6-0.6v0.9C168,103.6,167.4,103.8,166.8,103.7"/>
	</g>
</g>
<path class="st1" d="M172.4,100l-0.7,1.8h1.4L172.4,100z M173.8,103.6l-0.5-1.2h-2l-0.5,1.2H170l2-4.8h0.8l2.1,4.8H173.8z"/>
<polygon class="st1" points="179.9,103.6 177.3,100.4 177.3,103.6 176.5,103.6 176.5,98.8 177.1,98.8 179.7,102 179.7,98.8 
	180.5,98.8 180.5,103.6 "/>
<path class="st1" d="M184.6,100l-0.7,1.8h1.4L184.6,100z M186.1,103.6l-0.5-1.2h-2l-0.5,1.2h-1l2-4.8h0.9l2.1,4.8H186.1z"/>
<path class="st1" d="M190.4,99.6h-0.7v3.2h0.7c1.3,0,1.8-0.7,1.8-1.6S191.7,99.6,190.4,99.6 M190.4,103.6h-1.7v-4.8h1.7
	c1.9,0,2.7,1.1,2.7,2.4S192.3,103.6,190.4,103.6"/>
<path class="st1" d="M196.6,100l-0.7,1.8h1.4L196.6,100z M198.1,103.6l-0.5-1.2h-1.9l-0.5,1.2h-1l2.1-4.8h0.8l2,4.8H198.1z"/>
</svg>
