<?xml version="1.0" encoding="utf-8"?>
<!-- Generator: Adobe Illustrator 24.0.3, SVG Export Plug-In . SVG Version: 6.00 Build 0)  -->
<svg version="1.1" id="Layer_1" xmlns="http://www.w3.org/2000/svg" xmlns:xlink="http://www.w3.org/1999/xlink" x="0px" y="0px"
	 viewBox="0 0 320 50" style="enable-background:new 0 0 320 50;" xml:space="preserve">
<style type="text/css">
	.st0{fill:#F57D20;}
	.st1{fill:#FFFFFF;}
</style>
<path d="M23.8,38.3l-0.7-0.4v0.8h-0.5v-0.8l-0.7,0.4l-0.2-0.4l0.7-0.4l-0.7-0.4l0.2-0.4l0.7,0.4v-0.8h0.5v0.8l0.7-0.4l0.2,0.4
	l-0.7,0.4l0.7,0.4L23.8,38.3z"/>
<path d="M26.5,36.9v3.8h-0.7v-3.8h-1.2v-0.6h3.1v0.6H26.5z"/>
<path d="M28.4,39.4c0,0.5,0.3,0.9,0.8,0.9c0.3,0,0.6-0.1,0.8-0.3l0.4,0.4c-0.3,0.3-0.7,0.5-1.2,0.5c-0.8,0-1.4-0.4-1.4-1.6
	c0-1,0.5-1.6,1.3-1.6s1.4,0.6,1.4,1.5v0.3H28.4z M29.7,38.5c-0.2-0.3-0.6-0.5-0.9-0.3c-0.1,0.1-0.3,0.2-0.3,0.3
	c-0.1,0.1-0.1,0.3-0.1,0.4h1.4C29.8,38.8,29.8,38.6,29.7,38.5z"/>
<path d="M33,38.3c-0.1-0.1-0.3-0.2-0.5-0.2c-0.4,0-0.6,0.3-0.6,0.7c0,0,0,0,0,0v1.9h-0.6v-3.2h0.6V38c0.2-0.2,0.5-0.4,0.8-0.4
	c0.3,0,0.6,0.1,0.8,0.3L33,38.3z"/>
<path d="M37.9,40.8v-1.9c0-0.5-0.3-0.7-0.6-0.7c-0.3,0-0.6,0.2-0.7,0.6c0,0,0,0.1,0,0.1v2h-0.6v-2c0-0.5-0.3-0.7-0.6-0.7
	c-0.3,0-0.6,0.2-0.7,0.6c0,0,0,0.1,0,0.1v1.9H34v-3.2h0.6v0.3c0.2-0.2,0.5-0.4,0.8-0.4c0.4,0,0.7,0.2,0.9,0.5c0.2-0.3,0.6-0.5,1-0.5
	c0.3,0,0.6,0.1,0.8,0.3c0.2,0.2,0.3,0.6,0.3,0.9v2L37.9,40.8z"/>
<path d="M40.5,40.8c-0.5,0-1-0.1-1.3-0.5l0.4-0.4c0.2,0.2,0.6,0.4,0.9,0.3c0.4,0,0.7-0.1,0.7-0.4s-0.1-0.3-0.4-0.4h-0.5
	c-0.6-0.1-0.9-0.3-0.9-0.9s0.5-1,1.2-1c0.4,0,0.8,0.1,1.2,0.4l-0.4,0.4c-0.2-0.2-0.5-0.2-0.8-0.2c-0.4,0-0.6,0.2-0.6,0.4
	s0.1,0.3,0.4,0.4h0.4c0.7,0.1,1,0.3,1,0.9S41.3,40.8,40.5,40.8z"/>
<path d="M45.8,40.8v-0.3c-0.2,0.2-0.5,0.4-0.8,0.3c-0.3,0-0.6-0.1-0.9-0.3c-0.2-0.2-0.3-0.4-0.2-0.7c0-0.5,0.4-0.9,1.1-0.9h0.8v-0.2
	c0-0.4-0.2-0.6-0.7-0.6c-0.3,0-0.5,0.1-0.7,0.3L44,38c0.3-0.3,0.7-0.5,1.1-0.5c0.9,0,1.3,0.4,1.3,1.1v2.1L45.8,40.8z M45.8,39.4
	h-0.7c-0.4,0-0.6,0.2-0.6,0.5s0.2,0.5,0.6,0.5c0.2,0,0.4,0,0.6-0.2c0.1-0.1,0.2-0.3,0.1-0.5L45.8,39.4z"/>
<path d="M49.4,40.8v-1.9c0-0.5-0.3-0.7-0.6-0.7c-0.3,0-0.6,0.3-0.7,0.6c0,0,0,0.1,0,0.1v1.9h-0.6v-3.2h0.6v0.3
	c0.2-0.2,0.5-0.4,0.8-0.4c0.3,0,0.6,0.1,0.8,0.3c0.2,0.2,0.3,0.6,0.3,0.9v2L49.4,40.8z"/>
<path d="M52.8,40.8v-0.3c-0.2,0.3-0.5,0.4-0.8,0.4c-0.3,0-0.6-0.1-0.8-0.3c-0.3-0.4-0.4-0.9-0.4-1.3c-0.1-0.5,0.1-1,0.4-1.3
	c0.2-0.2,0.5-0.3,0.8-0.3c0.3,0,0.6,0.1,0.8,0.4v-1.6h0.6v4.5L52.8,40.8z M52.1,38.1c-0.6,0-0.7,0.5-0.7,1s0.1,1.1,0.7,1.1
	s0.7-0.5,0.7-1.1S52.7,38.1,52.1,38.1z"/>
<path d="M57.2,40.8c-0.7,0-1.4-0.4-1.4-1.6s0.7-1.6,1.4-1.6c0.4,0,0.7,0.2,1,0.4l-0.4,0.4c-0.1-0.2-0.4-0.3-0.6-0.3
	c-0.2,0-0.5,0.1-0.6,0.3c-0.2,0.2-0.2,0.5-0.2,0.8c0,0.3,0,0.5,0.2,0.8c0.1,0.2,0.4,0.3,0.6,0.3c0.2,0,0.5-0.1,0.6-0.3l0.4,0.4
	C58,40.7,57.6,40.8,57.2,40.8z"/>
<path d="M61,40.4c-0.3,0.3-0.6,0.4-1,0.4c-0.4,0-0.7-0.1-0.9-0.4c-0.5-0.8-0.5-1.7,0-2.5c0.2-0.3,0.6-0.4,0.9-0.4
	c0.4,0,0.7,0.1,1,0.4C61.5,38.8,61.5,39.7,61,40.4L61,40.4z M60.5,38.3c-0.1-0.1-0.3-0.2-0.5-0.2c-0.2,0-0.3,0.1-0.5,0.2
	c-0.2,0.3-0.3,0.6-0.2,0.9c0,0.3,0,0.6,0.2,0.9c0.1,0.1,0.3,0.2,0.5,0.2c0.2,0,0.3-0.1,0.5-0.2c0.2-0.3,0.3-0.6,0.2-0.9
	C60.8,38.9,60.7,38.6,60.5,38.3L60.5,38.3z"/>
<path d="M64.2,40.8v-1.9c0-0.5-0.3-0.7-0.6-0.7c-0.3,0-0.6,0.2-0.7,0.6c0,0,0,0.1,0,0.1v1.9h-0.6v-3.2h0.6v0.3
	c0.2-0.2,0.5-0.4,0.8-0.4c0.3,0,0.6,0.1,0.8,0.3c0.2,0.2,0.3,0.6,0.3,0.9v2L64.2,40.8z"/>
<path d="M67.6,40.8v-0.3c-0.2,0.3-0.5,0.4-0.8,0.4c-0.3,0-0.6-0.1-0.8-0.3c-0.3-0.4-0.4-0.9-0.4-1.3c-0.1-0.5,0.1-1,0.3-1.3
	c0.2-0.2,0.5-0.3,0.8-0.3c0.3,0,0.6,0.1,0.8,0.4v-1.6h0.6v4.5L67.6,40.8z M67,38.1c-0.6,0-0.7,0.5-0.7,1s0.1,1.1,0.7,1.1
	s0.7-0.5,0.7-1.1S67.5,38.1,67,38.1z"/>
<path d="M69.3,37v-0.7h0.7V37H69.3z M69.3,40.8v-3.2h0.6v3.2L69.3,40.8z"/>
<path d="M71.9,40.8c-0.5,0-0.8-0.3-0.9-0.8c0,0,0-0.1,0-0.1v-1.8h-0.4v-0.5H71v-0.9h0.6v0.9h0.6v0.5h-0.6v1.8c0,0.2,0.1,0.3,0.3,0.4
	c0,0,0.1,0,0.1,0h0.3v0.5L71.9,40.8z"/>
<path d="M73.1,37v-0.7h0.7V37H73.1z M73.1,40.8v-3.2h0.6v3.2L73.1,40.8z"/>
<path d="M76.8,40.4c-0.5,0.5-1.4,0.5-1.9,0c-0.5-0.8-0.5-1.7,0-2.5c0.5-0.5,1.4-0.5,1.9,0C77.3,38.7,77.3,39.7,76.8,40.4z
	 M76.4,38.3c-0.1-0.1-0.3-0.2-0.5-0.2c-0.2,0-0.3,0.1-0.5,0.2c-0.2,0.3-0.3,0.6-0.2,0.9c0,0.3,0,0.6,0.2,0.9
	c0.1,0.1,0.3,0.2,0.5,0.2c0.2,0,0.3-0.1,0.5-0.2c0.2-0.3,0.3-0.6,0.2-0.9C76.6,38.9,76.5,38.6,76.4,38.3z"/>
<path d="M80,40.8v-1.9c0-0.5-0.3-0.7-0.6-0.7c-0.3,0-0.6,0.3-0.7,0.6c0,0,0,0.1,0,0.1v1.9h-0.6v-3.2h0.6v0.3
	c0.2-0.2,0.5-0.4,0.8-0.4c0.3,0,0.6,0.1,0.8,0.3c0.2,0.2,0.3,0.6,0.3,0.9v2L80,40.8z"/>
<path d="M82.7,40.8c-0.5,0-1-0.1-1.3-0.5l0.4-0.4c0.2,0.2,0.6,0.4,0.9,0.3c0.4,0,0.7-0.1,0.7-0.4s-0.1-0.3-0.4-0.4h-0.5
	c-0.6-0.1-0.9-0.3-0.9-0.9s0.5-1,1.2-1c0.4,0,0.8,0.1,1.2,0.4l-0.4,0.4c-0.2-0.2-0.5-0.2-0.8-0.2c-0.4,0-0.6,0.2-0.6,0.4
	s0.1,0.3,0.4,0.4H83c0.7,0.1,1,0.3,1,0.9S83.4,40.8,82.7,40.8z"/>
<path d="M88,40.8v-0.3c-0.2,0.2-0.5,0.4-0.8,0.3c-0.3,0-0.6-0.1-0.8-0.3c-0.2-0.2-0.3-0.4-0.2-0.7c0-0.5,0.4-0.9,1.1-0.9H88v-0.2
	c0-0.4-0.2-0.6-0.7-0.6c-0.3,0-0.5,0.1-0.7,0.3L86.2,38c0.3-0.3,0.7-0.5,1.1-0.5c0.9,0,1.3,0.4,1.3,1.1v2.1H88z M88,39.4h-0.7
	c-0.4,0-0.6,0.2-0.6,0.5s0.2,0.5,0.6,0.5c0.2,0,0.4-0.1,0.6-0.2C88,40,88,39.8,88,39.6L88,39.4z"/>
<path d="M91.8,40.5c-0.2,0.2-0.5,0.3-0.8,0.3c-0.3,0-0.6-0.1-0.8-0.4v1.6h-0.6v-4.4h0.6V38c0.2-0.3,0.5-0.4,0.8-0.4
	c0.3,0,0.6,0.1,0.8,0.3c0.3,0.4,0.4,0.9,0.4,1.3C92.2,39.7,92.1,40.2,91.8,40.5z M90.9,38.1c-0.6,0-0.7,0.5-0.7,1s0.1,1.1,0.7,1.1
	s0.7-0.5,0.7-1.1S91.4,38.1,90.9,38.1z"/>
<path d="M95.3,40.5c-0.2,0.2-0.5,0.3-0.8,0.3c-0.3,0-0.6-0.1-0.8-0.4v1.6H93v-4.4h0.6V38c0.2-0.3,0.5-0.4,0.8-0.4
	c0.3,0,0.6,0.1,0.8,0.3c0.3,0.4,0.4,0.9,0.4,1.3C95.7,39.7,95.5,40.2,95.3,40.5z M94.3,38.1c-0.6,0-0.7,0.5-0.7,1s0.1,1.1,0.7,1.1
	s0.7-0.5,0.7-1.1S94.9,38.1,94.3,38.1z"/>
<path d="M97.3,40.8c-0.4,0-0.8-0.3-0.9-0.7c0,0,0-0.1,0-0.1v-3.6h0.6v3.5c0,0.2,0.1,0.4,0.3,0.4h0.3v0.5L97.3,40.8z"/>
<path d="M99.2,41.4c0,0.1-0.1,0.3-0.2,0.4c-0.2,0.2-0.4,0.2-0.7,0.2h-0.3v-0.6h0.2c0.3,0,0.4-0.1,0.4-0.3l0.2-0.5l-1.1-3h0.7
	l0.8,2.2l0.7-2.2h0.7L99.2,41.4z"/>
<path class="st0" d="M13.9,8.3h94.1c3.8,0,6.9,3.1,6.9,6.9c0,0,0,0,0,0v2.6c0,3.8-3.1,6.9-6.9,6.9l0,0H13.9c-3.8,0-6.9-3.1-6.9-6.9
	c0,0,0,0,0,0v-2.6C7,11.4,10.1,8.3,13.9,8.3z"/>
<path class="st1" d="M14.4,11.3h2.9c1.8,0,2.8,1,2.8,3.1c0,1.5-0.5,2.4-1.3,2.8l1.4,4.7h-1.9l-1.2-4.3h-0.8v4.3h-1.9V11.3z
	 M17.1,16.1c0.7,0,1-0.5,1-1.7s-0.3-1.6-1-1.6h-0.8v3.3H17.1z"/>
<path class="st1" d="M21.6,11.3h4.8v1.6h-3v2.7h2.4v1.6h-2.4v3h3v1.6h-4.9V11.3z"/>
<path class="st1" d="M31.3,21.9C31.1,22,31,22,30.8,22c-1.7,0-2.9-0.9-2.9-2.8v-5.3c-0.1-1.5,1.1-2.7,2.6-2.8c0.1,0,0.3,0,0.4,0
	c1.6,0,2.9,0.9,2.9,2.7v5.3c0,0.7-0.2,1.4-0.6,1.9l1,0.7l-1.2,1.5L31.3,21.9z M31.8,19.2v-5.4c0-0.6-0.4-1-1-1c0,0-0.1,0-0.1,0
	c-0.6,0-1,0.4-1,1c0,0,0,0.1,0,0.1v5.4c0,0.6,0.5,1.1,1.1,1.1C31.4,20.3,31.9,19.9,31.8,19.2C31.9,19.3,31.9,19.3,31.8,19.2
	L31.8,19.2z"/>
<path class="st1" d="M35.2,19.3v-8h1.9v7.9c-0.1,0.5,0.3,1.1,0.8,1.1c0.1,0,0.1,0,0.2,0c0.7,0,1-0.5,1-1.1v-7.9h1.8v8
	c0,1.5-1.1,2.7-2.6,2.7c-0.1,0-0.2,0-0.3,0c-1.4,0.2-2.6-0.8-2.8-2.1C35.2,19.7,35.2,19.5,35.2,19.3z"/>
<path class="st1" d="M42.6,11.3h4.8v1.6h-3v2.7h2.4v1.6h-2.4v3h3v1.6h-4.8V11.3z"/>
<path class="st1" d="M48.4,19h1.8c0.1,0.7,0.3,1.5,1,1.5s0.9-0.6,0.9-1.1c-0.1-0.7-0.4-1.3-1-1.7l-1-1.1c-0.9-0.7-1.4-1.7-1.5-2.9
	c-0.1-1.4,1-2.5,2.3-2.6c0.1,0,0.2,0,0.3,0c1.3,0,2.4,0.7,2.5,2.9l-1.6,0c-0.1-0.8-0.3-1.4-1-1.4s-0.8,0.4-0.8,1s0.6,1.1,1.1,1.6
	l1,1c0.9,0.7,1.5,1.8,1.5,3c0.1,1.4-1,2.7-2.4,2.8c-0.1,0-0.2,0-0.3,0C49.5,22,48.5,20.9,48.4,19z"/>
<path class="st1" d="M56.7,12.9h-2v-1.6h5.9v1.6h-2v9h-1.9V12.9z"/>
<path class="st1" d="M66,11.2h2.6l2,10.6h-1.8l-0.5-2.6h-2.2l-0.5,2.6h-1.7L66,11.2z M68,17.8l-0.8-4.4l0,0l-0.8,4.4H68z"/>
<path class="st1" d="M77.8,21.9c-0.2,0-0.4,0.1-0.6,0.1c-1.7,0-2.9-0.9-2.9-2.8v-5.3c-0.1-1.5,1.1-2.7,2.6-2.8c0.1,0,0.3,0,0.4,0
	c1.4-0.2,2.8,0.8,3,2.2c0,0.2,0,0.3,0,0.5v5.3c0,0.7-0.2,1.4-0.7,1.9l1,0.7l-1.2,1.5L77.8,21.9z M78.3,19.2v-5.4c0-0.6-0.4-1-1-1
	c0,0-0.1,0-0.1,0c-0.6,0-1,0.4-1,1c0,0,0,0.1,0,0.1v5.4c0,0.6,0.5,1.1,1.1,1.1C77.8,20.3,78.3,19.9,78.3,19.2L78.3,19.2z"/>
<path class="st1" d="M81.6,19.3v-8h1.9v7.9c-0.1,0.5,0.3,1.1,0.8,1.1c0.1,0,0.1,0,0.2,0c0.7,0,1-0.5,1-1.1v-7.9h1.8v8
	c0,1.5-1.1,2.7-2.6,2.7c-0.1,0-0.2,0-0.3,0c-1.4,0.2-2.6-0.8-2.8-2.1C81.6,19.7,81.6,19.5,81.6,19.3z"/>
<path class="st1" d="M88.9,19.2v-5.3c-0.1-1.5,1.1-2.7,2.6-2.8c0.1,0,0.3,0,0.4,0c1.4-0.2,2.7,0.9,2.9,2.3c0,0.1,0,0.3,0,0.4v5.3
	c0.1,1.5-1,2.8-2.5,2.8c-0.2,0-0.3,0-0.5,0c-1.4,0.2-2.7-0.8-2.9-2.2C88.9,19.6,88.9,19.4,88.9,19.2z M92.9,19.2v-5.4
	c0-0.6-0.5-1-1-1s-1,0.5-1,1v5.4c0,0.6,0.5,1,1,1S92.9,19.8,92.9,19.2z"/>
<path class="st1" d="M97.7,12.9h-2v-1.6h5.9v1.6h-2v9h-1.9V12.9z"/>
<path class="st1" d="M102.9,11.3h4.8v1.6h-3v2.7h2.4v1.6h-2.4v3h3v1.6h-4.8L102.9,11.3z"/>
</svg>
