<?xml version="1.0" encoding="utf-8"?>
<!-- Generator: Adobe Illustrator 16.0.0, SVG Export Plug-In . SVG Version: 6.00 Build 0)  -->
<!DOCTYPE svg PUBLIC "-//W3C//DTD SVG 1.1//EN" "http://www.w3.org/Graphics/SVG/1.1/DTD/svg11.dtd">
<svg version="1.1" id="Layer_1" xmlns="http://www.w3.org/2000/svg" xmlns:xlink="http://www.w3.org/1999/xlink" x="0px" y="0px"
	 width="158px" height="100px" viewBox="0 0 158 100" enable-background="new 0 0 158 100" xml:space="preserve">
<rect opacity="0.7" fill="#FDD761" width="158" height="100"/>
<g>
	<path fill="#1F1F1F" d="M56.921,38.98l2.137-5.34h2.027l-3.372,8.388h-1.584l-3.372-8.388h2.028L56.921,38.98z"/>
	<path fill="#1F1F1F" d="M62.381,33.641h1.872v8.388h-1.872V33.641z"/>
	<path fill="#1F1F1F" d="M68.579,35.314c-0.181,0.148-0.271,0.344-0.271,0.588s0.11,0.438,0.33,0.582
		c0.22,0.145,0.728,0.314,1.524,0.51c0.795,0.196,1.413,0.49,1.854,0.883c0.439,0.392,0.66,0.964,0.66,1.716
		s-0.282,1.361-0.846,1.83c-0.564,0.468-1.307,0.701-2.227,0.701c-1.328,0-2.523-0.491-3.588-1.476l1.115-1.368
		c0.904,0.792,1.74,1.188,2.509,1.188c0.344,0,0.614-0.074,0.81-0.223c0.196-0.147,0.295-0.348,0.295-0.6s-0.104-0.452-0.313-0.6
		c-0.209-0.148-0.62-0.298-1.236-0.45c-0.977-0.232-1.689-0.534-2.142-0.906s-0.679-0.956-0.679-1.752s0.287-1.41,0.858-1.842
		s1.286-0.648,2.142-0.648c0.561,0,1.121,0.097,1.681,0.288c0.56,0.192,1.048,0.464,1.464,0.816l-0.948,1.368
		c-0.728-0.553-1.479-0.828-2.256-0.828C69.005,35.093,68.759,35.167,68.579,35.314z"/>
	<path fill="#1F1F1F" d="M74.573,33.641h1.871v8.388h-1.871V33.641z"/>
	<path fill="#1F1F1F" d="M82.36,35.261v6.768h-1.872v-6.768h-2.376v-1.62h6.624v1.62H82.36z"/>
	<path fill="#1F1F1F" d="M92.093,39.862c0.312,0.389,0.731,0.582,1.26,0.582c0.527,0,0.945-0.193,1.254-0.582
		c0.308-0.388,0.462-0.918,0.462-1.59v-4.632h1.872v4.692c0,1.216-0.336,2.149-1.008,2.802s-1.532,0.978-2.58,0.978
		c-1.049,0-1.91-0.328-2.586-0.983c-0.676-0.656-1.014-1.588-1.014-2.796v-4.692h1.871v4.632
		C91.624,38.944,91.78,39.475,92.093,39.862z"/>
	<path fill="#1F1F1F" d="M101.146,35.314c-0.18,0.148-0.27,0.344-0.27,0.588s0.109,0.438,0.33,0.582
		c0.22,0.145,0.728,0.314,1.523,0.51c0.797,0.196,1.414,0.49,1.854,0.883c0.44,0.392,0.659,0.964,0.659,1.716
		s-0.281,1.361-0.846,1.83c-0.563,0.468-1.306,0.701-2.226,0.701c-1.328,0-2.524-0.491-3.588-1.476L99.7,39.28
		c0.904,0.792,1.74,1.188,2.508,1.188c0.344,0,0.613-0.074,0.811-0.223c0.195-0.147,0.293-0.348,0.293-0.6s-0.104-0.452-0.312-0.6
		c-0.208-0.148-0.62-0.298-1.236-0.45c-0.976-0.232-1.69-0.534-2.142-0.906c-0.452-0.372-0.678-0.956-0.678-1.752
		s0.285-1.41,0.857-1.842s1.286-0.648,2.143-0.648c0.56,0,1.119,0.097,1.68,0.288c0.56,0.192,1.048,0.464,1.464,0.816l-0.948,1.368
		c-0.729-0.553-1.48-0.828-2.256-0.828C101.571,35.093,101.325,35.167,101.146,35.314z"/>
</g>
<g>
	<path fill="#1F1F1F" d="M20.676,58.71h1.871v8.388h-1.871V58.71z"/>
	<path fill="#1F1F1F" d="M30.779,58.71h1.871v8.388h-1.871l-3.996-5.256v5.256h-1.872V58.71h1.752l4.116,5.4V58.71z"/>
	<path fill="#1F1F1F" d="M38.482,67.098V58.71h1.872v6.72h3.576v1.668H38.482z"/>
	<path fill="#1F1F1F" d="M52.426,65.939c-0.848,0.828-1.891,1.242-3.131,1.242s-2.285-0.414-3.133-1.242
		c-0.848-0.827-1.271-1.857-1.271-3.09c0-1.231,0.424-2.262,1.271-3.09s1.893-1.242,3.133-1.242s2.283,0.414,3.131,1.242
		s1.273,1.858,1.273,3.09C53.699,64.082,53.273,65.112,52.426,65.939z M51.791,62.855c0-0.747-0.24-1.386-0.721-1.913
		c-0.48-0.528-1.07-0.793-1.77-0.793c-0.701,0-1.291,0.265-1.77,0.793c-0.48,0.527-0.721,1.166-0.721,1.913
		c0,0.749,0.24,1.385,0.721,1.908c0.479,0.524,1.068,0.786,1.77,0.786c0.699,0,1.289-0.262,1.77-0.786
		C51.551,64.24,51.791,63.604,51.791,62.855z"/>
	<path fill="#1F1F1F" d="M57.473,60.384c-0.18,0.148-0.27,0.344-0.27,0.588s0.109,0.438,0.33,0.582
		c0.221,0.145,0.729,0.314,1.523,0.51c0.797,0.196,1.414,0.49,1.854,0.883c0.441,0.392,0.66,0.964,0.66,1.716
		s-0.281,1.361-0.846,1.83c-0.564,0.468-1.307,0.701-2.227,0.701c-1.326,0-2.523-0.491-3.588-1.476l1.117-1.368
		c0.904,0.792,1.74,1.188,2.508,1.188c0.344,0,0.613-0.074,0.811-0.223c0.195-0.147,0.293-0.348,0.293-0.6s-0.104-0.452-0.313-0.6
		c-0.207-0.148-0.619-0.298-1.234-0.45c-0.977-0.232-1.691-0.534-2.143-0.906c-0.453-0.372-0.678-0.956-0.678-1.752
		s0.285-1.41,0.857-1.842s1.285-0.648,2.143-0.648c0.559,0,1.119,0.097,1.68,0.288c0.561,0.192,1.047,0.464,1.463,0.816
		l-0.947,1.368c-0.729-0.553-1.48-0.828-2.256-0.828C57.898,60.162,57.652,60.236,57.473,60.384z"/>
	<path fill="#1F1F1F" d="M72.91,67.098l-0.781-1.812h-3.516l-0.779,1.812h-1.992l3.625-8.388h1.811l3.625,8.388H72.91z
		 M70.377,61.206l-1.055,2.436h2.1L70.377,61.206z"/>
	<path fill="#1F1F1F" d="M82.043,58.71h1.871v8.388h-1.871l-3.996-5.256v5.256h-1.873V58.71h1.752l4.117,5.4V58.71z"/>
	<path fill="#1F1F1F" d="M91.727,62.826h1.883v2.976c-0.832,0.929-1.984,1.392-3.455,1.392c-1.232,0-2.268-0.407-3.104-1.224
		c-0.836-0.815-1.254-1.846-1.254-3.09s0.426-2.282,1.279-3.114c0.852-0.832,1.879-1.248,3.084-1.248
		c1.203,0,2.25,0.396,3.137,1.188l-0.971,1.404c-0.377-0.328-0.723-0.555-1.039-0.679s-0.658-0.186-1.025-0.186
		c-0.713,0-1.313,0.242-1.801,0.726c-0.488,0.484-0.73,1.122-0.73,1.914s0.232,1.427,0.701,1.902s1.025,0.714,1.674,0.714
		s1.188-0.124,1.621-0.372V62.826z"/>
	<path fill="#1F1F1F" d="M101.627,58.71v1.668h-4.176v1.728h3.756v1.597h-3.756v1.74h4.307v1.655h-6.18V58.71H101.627z"/>
	<path fill="#1F1F1F" d="M103.727,67.098V58.71h1.871v6.72h3.576v1.668H103.727z"/>
	<path fill="#1F1F1F" d="M116.891,58.71v1.668h-4.176v1.728h3.756v1.597h-3.756v1.74h4.307v1.655h-6.18V58.71H116.891z"/>
	<path fill="#1F1F1F" d="M120.951,60.384c-0.18,0.148-0.27,0.344-0.27,0.588s0.109,0.438,0.33,0.582
		c0.221,0.145,0.729,0.314,1.523,0.51c0.797,0.196,1.414,0.49,1.854,0.883c0.441,0.392,0.66,0.964,0.66,1.716
		s-0.281,1.361-0.846,1.83c-0.564,0.468-1.307,0.701-2.227,0.701c-1.326,0-2.523-0.491-3.588-1.476l1.117-1.368
		c0.904,0.792,1.74,1.188,2.508,1.188c0.344,0,0.613-0.074,0.811-0.223c0.195-0.147,0.293-0.348,0.293-0.6s-0.104-0.452-0.313-0.6
		c-0.207-0.148-0.619-0.298-1.234-0.45c-0.977-0.232-1.691-0.534-2.143-0.906c-0.453-0.372-0.678-0.956-0.678-1.752
		s0.285-1.41,0.857-1.842s1.285-0.648,2.143-0.648c0.559,0,1.119,0.097,1.68,0.288c0.561,0.192,1.047,0.464,1.463,0.816
		l-0.947,1.368c-0.729-0.553-1.48-0.828-2.256-0.828C121.377,60.162,121.131,60.236,120.951,60.384z"/>
	<polygon fill="#1F1F1F" points="133.5,59.102 137.283,62.884 133.5,66.666 	"/>
</g>
</svg>
