<?xml version="1.0" encoding="utf-8"?>
<!-- Generator: Adobe Illustrator 16.0.0, SVG Export Plug-In . SVG Version: 6.00 Build 0)  -->
<!DOCTYPE svg PUBLIC "-//W3C//DTD SVG 1.1//EN" "http://www.w3.org/Graphics/SVG/1.1/DTD/svg11.dtd">
<svg version="1.1" id="Layer_1" xmlns="http://www.w3.org/2000/svg" xmlns:xlink="http://www.w3.org/1999/xlink" x="0px" y="0px"
	 width="132px" height="36px" viewBox="0 0 132 36" enable-background="new 0 0 132 36" xml:space="preserve">
<g>
	<path fill="#1F1F1F" d="M10.355,14.663V0.386h2.334v14.277H10.355z"/>
	<path fill="#1F1F1F" d="M28.354,14.663h-2.861L18.471,3.286h-0.078l0.049,0.635c0.092,1.211,0.137,2.317,0.137,3.32v7.422h-2.119
		V0.386h2.832l7.002,11.318h0.059c-0.013-0.149-0.039-0.694-0.078-1.636s-0.059-1.675-0.059-2.202v-7.48h2.139V14.663z"/>
	<path fill="#1F1F1F" d="M38.197,2.183c-1.341,0-2.396,0.476-3.164,1.426c-0.768,0.95-1.152,2.263-1.152,3.936
		c0,1.751,0.37,3.076,1.109,3.975c0.738,0.898,1.808,1.348,3.207,1.348c0.605,0,1.191-0.06,1.758-0.181s1.156-0.275,1.768-0.464
		v2.002c-1.119,0.423-2.389,0.635-3.809,0.635c-2.09,0-3.694-0.634-4.814-1.899c-1.119-1.266-1.68-3.078-1.68-5.435
		c0-1.484,0.272-2.783,0.816-3.896c0.543-1.113,1.329-1.966,2.357-2.559c1.029-0.593,2.236-0.889,3.623-0.889
		c1.459,0,2.807,0.306,4.043,0.918l-0.84,1.943c-0.481-0.228-0.99-0.429-1.527-0.601S38.79,2.183,38.197,2.183z"/>
	<path fill="#1F1F1F" d="M47.133,8.96v5.703h-2.334V0.386h4.033c1.843,0,3.207,0.345,4.092,1.035
		c0.886,0.69,1.328,1.731,1.328,3.125c0,1.777-0.924,3.044-2.773,3.799l4.033,6.318h-2.656L49.438,8.96H47.133z M47.133,7.026h1.621
		c1.088,0,1.875-0.202,2.363-0.605s0.732-1.003,0.732-1.797c0-0.808-0.264-1.387-0.791-1.738s-1.321-0.527-2.383-0.527h-1.543V7.026
		z"/>
	<path fill="#1F1F1F" d="M65.658,14.663h-8.076V0.386h8.076v1.973h-5.742v3.887h5.381v1.953h-5.381v4.482h5.742V14.663z"/>
	<path fill="#1F1F1F" d="M80.355,7.388c0,2.356-0.654,4.159-1.963,5.405s-3.193,1.87-5.654,1.87h-3.994V0.386h4.414
		c2.272,0,4.04,0.612,5.303,1.836C79.725,3.445,80.355,5.168,80.355,7.388z M77.895,7.466c0-3.418-1.598-5.127-4.795-5.127h-2.021
		V12.7h1.66C76.176,12.7,77.895,10.955,77.895,7.466z"/>
	<path fill="#1F1F1F" d="M83.422,14.663V0.386h2.334v14.277H83.422z"/>
	<path fill="#1F1F1F" d="M89.525,0.386h4.238c1.967,0,3.388,0.286,4.264,0.859c0.875,0.573,1.313,1.478,1.313,2.715
		c0,0.833-0.215,1.526-0.645,2.08s-1.048,0.901-1.855,1.045v0.098c1.003,0.188,1.74,0.562,2.213,1.118
		c0.472,0.557,0.707,1.311,0.707,2.261c0,1.282-0.447,2.286-1.342,3.013c-0.896,0.727-2.141,1.089-3.736,1.089h-5.156V0.386z
		 M91.859,6.284h2.246c0.977,0,1.689-0.155,2.139-0.464s0.674-0.835,0.674-1.577c0-0.671-0.242-1.155-0.727-1.455
		c-0.485-0.3-1.256-0.449-2.311-0.449h-2.021V6.284z M91.859,8.179V12.7h2.48c0.977,0,1.715-0.187,2.213-0.562
		s0.746-0.965,0.746-1.772c0-0.742-0.254-1.292-0.762-1.65s-1.279-0.537-2.314-0.537H91.859z"/>
	<path fill="#1F1F1F" d="M102.729,14.663V0.386h2.334v12.275h6.045v2.002H102.729z"/>
	<path fill="#1F1F1F" d="M121.645,14.663h-8.076V0.386h8.076v1.973h-5.742v3.887h5.381v1.953h-5.381v4.482h5.742V14.663z"/>
	<path fill="#1F1F1F" d="M29.09,25.265c-1.256,0-2.246,0.418-2.973,1.254s-1.09,1.98-1.09,3.434c0,1.495,0.35,2.649,1.051,3.465
		c0.699,0.815,1.699,1.223,2.996,1.223c0.797,0,1.705-0.144,2.727-0.43v1.164c-0.793,0.297-1.77,0.445-2.93,0.445
		c-1.684,0-2.98-0.511-3.895-1.531s-1.371-2.472-1.371-4.352c0-1.177,0.219-2.208,0.66-3.094c0.439-0.886,1.074-1.567,1.906-2.047
		c0.83-0.479,1.809-0.719,2.934-0.719c1.197,0,2.244,0.219,3.141,0.656l-0.563,1.141C30.818,25.468,29.953,25.265,29.09,25.265z"/>
	<path fill="#1F1F1F" d="M45.807,29.937c0,1.828-0.463,3.266-1.387,4.313c-0.925,1.047-2.21,1.57-3.855,1.57
		c-1.683,0-2.98-0.515-3.895-1.543s-1.371-2.48-1.371-4.355c0-1.859,0.458-3.301,1.375-4.324c0.916-1.023,2.219-1.535,3.906-1.535
		c1.641,0,2.922,0.521,3.844,1.563S45.807,28.104,45.807,29.937z M36.705,29.937c0,1.547,0.329,2.72,0.988,3.52
		c0.658,0.8,1.615,1.199,2.871,1.199c1.266,0,2.221-0.398,2.867-1.195c0.646-0.797,0.969-1.972,0.969-3.523
		c0-1.536-0.322-2.702-0.965-3.496c-0.644-0.794-1.596-1.191-2.855-1.191c-1.266,0-2.229,0.399-2.887,1.199
		C37.034,27.248,36.705,28.41,36.705,29.937z"/>
	<path fill="#1F1F1F" d="M55.008,35.663l-3.875-10.125H51.07c0.073,0.802,0.109,1.755,0.109,2.859v7.266h-1.227V24.241h2
		l3.617,9.422h0.063l3.648-9.422h1.984v11.422h-1.328v-7.359c0-0.844,0.037-1.761,0.109-2.75h-0.063l-3.906,10.109H55.008z"/>
	<path fill="#1F1F1F" d="M67.326,35.663h-1.328V24.241h6.367v1.18h-5.039v4.18h4.734v1.18h-4.734V35.663z"/>
	<path fill="#1F1F1F" d="M85.771,29.937c0,1.828-0.462,3.266-1.387,4.313s-2.21,1.57-3.855,1.57c-1.683,0-2.98-0.515-3.895-1.543
		s-1.371-2.48-1.371-4.355c0-1.859,0.458-3.301,1.375-4.324s2.219-1.535,3.906-1.535c1.641,0,2.922,0.521,3.844,1.563
		S85.771,28.104,85.771,29.937z M76.669,29.937c0,1.547,0.329,2.72,0.988,3.52s1.616,1.199,2.871,1.199
		c1.266,0,2.222-0.398,2.867-1.195s0.969-1.972,0.969-3.523c0-1.536-0.321-2.702-0.965-3.496s-1.595-1.191-2.855-1.191
		c-1.266,0-2.228,0.399-2.887,1.199S76.669,28.41,76.669,29.937z"/>
	<path fill="#1F1F1F" d="M91.246,30.913v4.75h-1.328V24.241h3.133c1.4,0,2.436,0.269,3.105,0.805
		c0.668,0.536,1.004,1.344,1.004,2.422c0,1.511-0.766,2.531-2.297,3.063l3.102,5.133h-1.57l-2.766-4.75H91.246z M91.246,29.772h1.82
		c0.938,0,1.625-0.187,2.063-0.559s0.656-0.931,0.656-1.676c0-0.755-0.223-1.3-0.668-1.633s-1.16-0.5-2.145-0.5h-1.727V29.772z"/>
	<path fill="#1F1F1F" d="M104.924,35.663h-1.328V25.421h-3.617v-1.18h8.563v1.18h-3.617V35.663z"/>
</g>
</svg>
