<?xml version="1.0" encoding="utf-8"?>
<!-- Generator: Adobe Illustrator 25.2.3, SVG Export Plug-In . SVG Version: 6.00 Build 0)  -->
<svg version="1.1" id="Layer_1" xmlns="http://www.w3.org/2000/svg" xmlns:xlink="http://www.w3.org/1999/xlink" x="0px" y="0px"
	 viewBox="0 0 144 36" style="enable-background:new 0 0 144 36;" xml:space="preserve">
<style type="text/css">
	.st0{fill:#76AAA7;}
	.st1{fill:#FFFFFF;}
</style>
<g id="Layer_2_1_">
	<g id="Layer_1-2">
		<g id="Overlays">
			<rect class="st0" width="144" height="36"/>
			<g>
				<path class="st1" d="M26.5,13.7h2v7.6h3.9v1.9h-6L26.5,13.7z"/>
				<path class="st1" d="M33.8,13.7h6.5v1.9h-4.4v1.8H40v1.9h-4.1v1.9h4.6v2h-6.7V13.7z"/>
				<path class="st1" d="M45.4,13.7h1.7l4.1,9.5h-2.4l-0.8-2h-3.7l-0.8,2h-2.3L45.4,13.7z M46.2,16.5l-1.2,3h2.3L46.2,16.5z"/>
				<path class="st1" d="M52.4,13.7h3.7c1.9,0,3.6,0.7,3.6,2.9c0.1,1.3-0.8,2.4-2,2.6l2.4,4h-2.6l-2-3.8h-1v3.8h-2.1V13.7z
					 M54.5,17.7h1.2c0.8,0,1.8,0,1.8-1.1s-0.8-1.1-1.6-1.1h-1.4V17.7z"/>
				<path class="st1" d="M61.2,13.7H64l4,6.6l0,0v-6.6h2.1v9.5h-2.6l-4.2-6.8l0,0v6.8h-2.1V13.7z"/>
				<path class="st1" d="M76.3,13.7h3.2l2.2,6.2l0,0l2.2-6.2h3.2v9.5H85v-7.3l0,0l-2.5,7.3h-1.6l-2.4-7.3l0,0v7.3h-2.1L76.3,13.7z"
					/>
				<path class="st1" d="M93.8,13.5c2.8,0.1,5,2.3,4.9,5.1s-2.3,5-5.1,4.9c-2.7-0.1-4.9-2.3-4.9-5c-0.1-2.6,2-4.9,4.6-5H93.8z
					 M93.8,21.5c1.7,0,3.1-1.3,3.1-3c0-1.7-1.3-3.1-3-3.1c-1.7,0-3.1,1.3-3.1,3v0.1c-0.1,1.6,1.1,3,2.7,3.1
					C93.5,21.5,93.7,21.5,93.8,21.5z"/>
				<path class="st1" d="M100.4,13.7h3.7c2,0,3.6,0.7,3.6,2.9c0.1,1.3-0.8,2.4-2,2.6l2.4,4h-2.6l-2-3.8h-1v3.8h-2L100.4,13.7z
					 M102.5,17.7h1.2c0.8,0,1.8,0,1.8-1.1s-0.9-1.1-1.6-1.1h-1.4V17.7z"/>
				<path class="st1" d="M109.3,13.7h6.5v1.9h-4.3v1.8h4.1v1.9h-4.1v1.9h4.6v2h-6.7L109.3,13.7L109.3,13.7z"/>
			</g>
		</g>
	</g>
</g>
</svg>
