<?xml version="1.0" encoding="utf-8"?>
<!-- Generator: Adobe Illustrator 25.2.3, SVG Export Plug-In . SVG Version: 6.00 Build 0)  -->
<svg version="1.1" id="Layer_1" xmlns="http://www.w3.org/2000/svg" xmlns:xlink="http://www.w3.org/1999/xlink" x="0px" y="0px"
	 viewBox="0 0 970 90" style="enable-background:new 0 0 970 90;" xml:space="preserve">
<style type="text/css">
	.st0{fill:#064854;}
	.st1{fill:#FFFFFF;}
</style>
<g id="Overlays">
	<rect x="356" y="7" class="st0" width="606" height="76"/>
	<path class="st1" d="M383.8,36.1c-0.4-0.1-0.9-0.2-1.3-0.1c-0.5,0-0.9,0-1.4,0c0-0.3-0.1-0.6-0.1-0.9c0-0.3,0-0.6,0-0.8
		c-0.1-0.3,0-0.5,0.3-0.6c0.1,0,0.3,0,0.4,0c1,0,1.9,0,2.9,0s1.9,0,2.9,0.1c0,0.2,0,0.4,0.1,0.6s0,0.4,0,0.6c0,1-0.1,2-0.4,3
		c-0.2,0.9-0.6,1.7-1.2,2.5c-0.5,0.7-1.2,1.3-2,1.7c-0.9,0.4-1.9,0.7-2.9,0.6c-1,0-2-0.2-2.9-0.6c-0.8-0.4-1.5-1-2.1-1.7
		s-1.1-1.5-1.3-2.4c-0.3-1-0.4-2-0.4-3c0-1.1,0.1-2.2,0.4-3.3c0.2-1,0.6-1.9,1.2-2.8c0.5-0.8,1.3-1.5,2.2-2c1-0.5,2.1-0.8,3.2-0.7
		c0.5,0,1.1,0.1,1.6,0.1c0.5,0.1,1.1,0.3,1.5,0.5c0.5,0.2,0.9,0.6,1.2,1c0.4,0.4,0.6,0.9,0.7,1.5c-0.4,0.3-0.8,0.6-1.3,0.8
		c-0.5,0.2-1,0.4-1.5,0.5c-0.2-0.4-0.6-0.8-1-1c-0.5-0.2-0.9-0.3-1.4-0.2c-0.6,0-1.2,0.1-1.6,0.5c-0.4,0.3-0.8,0.7-1.1,1.2
		c-0.3,0.5-0.5,1-0.6,1.6c-0.1,0.5-0.2,1.1-0.2,1.6c0,0.6,0.1,1.2,0.1,1.7c0.1,0.6,0.3,1.2,0.5,1.7s0.6,0.9,1,1.3
		c0.5,0.4,1.1,0.5,1.7,0.5c0.9,0.1,1.7-0.3,2.3-0.9c0.5-0.7,0.8-1.5,0.8-2.4c0,0,0-0.1-0.1-0.1L383.8,36.1z"/>
	<path class="st1" d="M397.5,42.5c-1,0-2.1,0-3.2,0.1s-2.1,0-3.2-0.2c-0.1-1.1-0.2-2.2-0.2-3.3c0-1.2,0-2.4,0-3.6s0-2.4,0.1-3.6
		s0.1-2.3,0.1-3.4v-1.9c0.3,0,0.6,0,0.9-0.1h8.1h1.1c0,0.5,0.1,1,0.1,1.4v0.7c0,0.2,0,0.4,0,0.7l-0.6,0.1c-0.2,0-0.4,0-0.6,0
		c-0.9,0-1.9,0-2.8,0s-1.9,0-2.8,0.2c0,0.2,0,0.3,0,0.5v0.5V33c0.8,0.1,1.6,0.1,2.5,0.1c0.8,0,1.7-0.1,2.7-0.1c0,0,0,0,0.1,0.2
		s0,0.2,0.1,0.3l-0.1,2c0,0.1-0.1,0.2-0.1,0.2c-0.1,0-0.2,0.1-0.3,0.1H399h-2.4c-0.7,0-1.3,0-2,0v1.3v2.2c0.4,0.2,0.9,0.3,1.3,0.3
		c0.6,0,1.2,0,1.9,0l2-0.1c0.6,0,1.1,0,1.7,0c0,0.3,0.1,0.5,0.1,0.8s0,0.5,0,0.8s0,0.5,0,0.8l-0.1,0.7L397.5,42.5z"/>
	<path class="st1" d="M407.5,42.4c0-0.4-0.1-0.8-0.1-1.3c0-1.9,0-3.8,0-5.7s0-3.8-0.2-5.7c-0.7,0-1.3,0-2-0.1c-0.7,0-1.3-0.1-2-0.1
		c0-0.4-0.1-0.7-0.1-1s0-0.7,0-1c0-0.2,0-0.3,0-0.5s0-0.3,0.1-0.5c1.3-0.1,2.7-0.1,4-0.1h4c0.6,0,1.1,0,1.7,0s1.1,0.1,1.7,0.1
		c0.1,0.4,0.2,0.7,0.2,1.1s0,0.8,0,1.1v0.7h-1c-0.5,0-1.1,0-1.6,0s-1.1,0-1.6,0c-0.1,1-0.1,2.1-0.1,3.2c0,1.1,0,2.1,0.1,3.2
		s0,2.1,0,3.2c0,1-0.1,2.1-0.2,3.1c-0.4,0.1-0.7,0.1-1.1,0.1h-1.1L407.5,42.4z"/>
	<path class="st1" d="M426.5,42.4c0-0.4-0.1-0.9-0.1-1.3c0-1.9,0-3.8,0-5.7s0-3.8-0.2-5.7c-0.7,0-1.3,0-2-0.1c-0.7,0-1.3-0.1-2-0.1
		c0-0.4-0.1-0.7-0.1-1s0-0.7,0-1c0-0.2,0-0.3,0-0.5s0-0.3,0.1-0.5c1.3-0.1,2.7-0.1,4-0.1h4c0.6,0,1.1,0,1.7,0s1.1,0.1,1.7,0.1
		c0.1,0.4,0.2,0.7,0.2,1.1s0,0.8,0,1.1v0.7h-1c-0.6,0-1.1,0-1.6,0s-1.1,0-1.6,0c-0.1,1-0.1,2.1-0.1,3.2c0,1.1,0,2.1,0.1,3.2
		s0,2.1,0,3.2c0,1-0.1,2.1-0.2,3.1c-0.4,0.1-0.7,0.1-1.1,0.1h-1.1L426.5,42.4z"/>
	<path class="st1" d="M440.1,41c0,0.3,0,0.7-0.1,1c0,0.2-0.1,0.3-0.3,0.4c-0.2,0.1-0.4,0.1-0.6,0.1h-1h-0.6c-0.2,0-0.4,0-0.6-0.1
		c0-0.3-0.1-0.6-0.1-0.9s0-0.6,0-0.9v-2.8c0-0.9,0-1.8,0-2.8s-0.1-1.9-0.1-2.8s0-1.9,0-2.8s0.1-1.8,0.2-2.8c0.3,0,0.5-0.1,0.8-0.1
		h2.1c0.3,0,0.4,0.1,0.4,0.1c0,1,0,2.1,0,3.2s0,2.2,0,3.2h0.6c0.2,0,0.4,0,0.5,0h2.3h1.4c0.1-0.6,0.1-1.3,0.1-1.9v-2
		c0-0.4,0-0.8,0-1.2c0-0.4,0-0.8,0-1.2c0.1-0.1,0.3-0.1,0.4-0.1h0.4h1.1c0.4,0,0.8,0,1.1,0.1V28v12.8c0,0.3,0,0.5,0,0.8
		s0,0.5-0.1,0.8c-0.3,0-0.5,0.1-0.8,0.1H446c-0.2,0-0.5,0-0.7,0c-0.1-1.1-0.2-2.1-0.1-3.2c0.1-1.1,0.1-2.1,0-3.2
		c-0.4,0-0.8-0.1-1.2-0.1h-1.2h-1.2h-1.2c0,0.5-0.1,1-0.1,1.5s0,1,0,1.5L440.1,41z"/>
	<path class="st1" d="M459.1,42.5c-1,0-2.1,0-3.2,0.1s-2.1,0-3.2-0.2c-0.1-1.1-0.2-2.2-0.2-3.3c0-1.2,0-2.4,0-3.6s0-2.4,0.1-3.6
		s0.1-2.3,0.1-3.4v-1.9c0.3,0,0.6,0,0.9-0.1h8.1h1.1c0.1,0.5,0.1,0.9,0.1,1.4v0.7c0,0.2,0,0.4,0,0.7l-0.6,0.1c-0.2,0-0.4,0-0.6,0
		c-0.9,0-1.9,0-2.8,0s-1.9,0-2.8,0.2c0,0.2,0,0.3,0,0.5v0.5V33c0.8,0.1,1.6,0.1,2.5,0.1c0.8,0,1.7-0.1,2.7-0.1c0,0,0,0,0.1,0.2
		s0,0.2,0.1,0.3l-0.1,2c0,0.1-0.1,0.2-0.1,0.2c-0.1,0-0.2,0.1-0.3,0.1h-0.4H458c-0.7,0-1.3,0-2,0v1.3v2.2c0.4,0.2,0.9,0.3,1.3,0.3
		c0.6,0,1.2,0,1.9,0l2-0.1c0.6,0,1.1,0,1.7,0c0,0.3,0.1,0.5,0.1,0.8s0,0.5,0,0.8s0,0.5,0,0.8l-0.1,0.7L459.1,42.5z"/>
	<path class="st1" d="M481.1,42.5c-0.3,0-0.6,0-0.9-0.1c-0.2-0.7-0.3-1.3-0.5-2s-0.3-1.3-0.5-2h-1.6c-0.9,0-1.7,0-2.6,0.1
		c-0.2,1.3-0.6,2.5-0.9,3.8h-0.8h-1.5h-0.5l-0.5-0.1c0.2-1.3,0.5-2.6,0.8-3.9s0.7-2.7,1.1-4s0.8-2.7,1.1-4s0.7-2.6,1-3.9h0.8h0.8
		h1.9c0.6,0,1.3,0,2,0c0.1,0.4,0.3,1,0.5,1.9s0.4,1.8,0.7,2.8s0.5,2.1,0.7,3.3s0.5,2.2,0.7,3.2s0.4,1.9,0.5,2.6
		c0.1,0.5,0.2,1,0.2,1.5v0.6L481.1,42.5z M477,35.5h1c0.3,0,0.7,0,1-0.1c0-0.5-0.1-1-0.2-1.5l-0.3-1.5c0-0.2-0.1-0.4-0.1-0.6
		c0-0.3-0.1-0.5-0.1-0.8c-0.1-0.2-0.1-0.5-0.2-0.7s-0.2-0.3-0.4-0.3h-0.2h-0.2c-0.1,0.5-0.2,0.9-0.3,1.4l-0.4,1.4
		c-0.1,0.4-0.2,0.9-0.3,1.3c-0.1,0.5-0.2,0.9-0.2,1.4c0.1,0,0.3,0,0.4,0L477,35.5L477,35.5z"/>
	<path class="st1" d="M486.6,42.4c-0.1-0.7-0.2-1.4-0.2-2.1c0-0.7,0-1.4,0-2.2s0-1.5,0-2.2s0-1.4,0-2.1s0-1.1,0-1.8s0-1.3,0-1.9
		s0-1.3,0-1.9s0.1-1.1,0.2-1.7c0.2-0.1,0.5-0.1,0.7-0.1h0.7c0.7,0,1.4,0,2.1,0s1.5,0,2.3,0c0.7,0,1.5,0.1,2.2,0.3
		c0.7,0.1,1.3,0.4,1.9,0.8s1,0.9,1.3,1.5c0.4,0.7,0.5,1.6,0.5,2.4s-0.2,1.6-0.5,2.3s-0.8,1.2-1.4,1.7s-1.3,0.8-2,1
		c-0.8,0.2-1.5,0.4-2.3,0.4h-1c-0.3,0-0.7,0-1,0c0,0.5,0,1-0.1,1.5s0,1,0,1.5s0,0.8,0,1.2s0,0.8-0.1,1.2c-0.3,0.1-0.6,0.1-0.9,0.1
		h-1.7C487.1,42.5,486.8,42.5,486.6,42.4z M490,33.8c0.1,0,0.2,0.1,0.3,0.1h1.4c0.5,0,1-0.1,1.5-0.2c0.4-0.1,0.8-0.4,1.1-0.7
		c0.3-0.4,0.5-0.9,0.5-1.4c0.1-0.8-0.4-1.6-1.1-2c-0.4-0.2-0.7-0.3-1.1-0.3c-0.4-0.1-0.9-0.1-1.3-0.1h-0.4c-0.1,0-0.3,0-0.4,0
		s-0.3,0.1-0.4,0.1s-0.2,0.2-0.1,0.3c0,0.5,0,0.9,0,1.4s0,0.9,0,1.4c0,0.2,0,0.5,0,0.8C489.9,33.3,490,33.5,490,33.8z"/>
	<path class="st1" d="M501.6,42.4c-0.1-0.7-0.2-1.3-0.2-2.1s0-1.4,0-2.2s0-1.5,0-2.2s0-1.4,0-2.1s0-1.1,0-1.8s0-1.3,0-1.9
		s0-1.3,0-1.9s0.1-1.1,0.2-1.7c0.2-0.1,0.5-0.1,0.7-0.1h0.7c0.7,0,1.4,0,2.1,0s1.5,0,2.3,0c0.7,0,1.5,0.1,2.2,0.3
		c0.7,0.1,1.3,0.4,1.9,0.8s1,0.9,1.3,1.5c0.7,1.5,0.7,3.2,0,4.7c-0.3,0.7-0.8,1.2-1.4,1.7s-1.3,0.8-2,1c-0.8,0.2-1.5,0.4-2.3,0.4h-1
		c-0.3,0-0.7,0-1,0c0,0.5,0,1-0.1,1.5s0,1,0,1.5s0,0.8,0,1.2s0,0.8-0.1,1.2c-0.3,0.1-0.6,0.1-0.9,0.1h-1.7
		C502.1,42.5,501.8,42.5,501.6,42.4z M505,33.8c0.1,0,0.2,0.1,0.3,0.1h1.4c0.5,0,1-0.1,1.5-0.2c0.4-0.1,0.8-0.4,1.1-0.7
		c0.3-0.4,0.5-0.9,0.5-1.4c0.1-0.8-0.4-1.6-1.1-2c-0.4-0.2-0.8-0.3-1.1-0.3c-0.4-0.1-0.8-0.1-1.3-0.1h-0.4c-0.1,0-0.3,0-0.4,0
		s-0.3,0-0.4,0.1c-0.1,0-0.2,0.2-0.1,0.3c0,0.5,0,0.9,0,1.4s0,0.9,0,1.4c0,0.2,0,0.5,0,0.8C504.9,33.3,504.9,33.5,505,33.8z"/>
	<path class="st1" d="M518.8,42.3c-0.3,0.1-0.7,0.2-1,0.2s-0.5,0-0.8,0s-0.5-0.1-0.8-0.2c-0.1-0.3-0.2-0.5-0.3-0.8
		c0-0.3-0.1-0.6-0.1-0.9c0-0.4,0.1-0.8,0.3-1.1c0.3-0.2,0.7-0.3,1.1-0.3c0.3,0,0.5,0,0.8,0.1c0.2,0,0.5,0.1,0.8,0.2
		c0.2,0.5,0.4,1,0.3,1.5c0,0.2,0,0.5-0.1,0.7C519.1,41.9,519,42.1,518.8,42.3z"/>
	<path class="st1" d="M374,63.2c0.1-0.2,0.2-0.3,0.2-0.5c0.1-0.3,0.3-0.5,0.5-0.8s0.4-0.5,0.7-0.6c0.3-0.2,0.7-0.2,1,0
		c0.1,0.4,0.3,0.7,0.6,1c0.2,0.3,0.5,0.5,0.9,0.8c0.3,0.2,0.6,0.4,1,0.5s0.7,0.2,1.1,0.2c0.5,0,1.1-0.1,1.5-0.5
		c0.3-0.3,0.5-0.8,0.5-1.2c0-0.5-0.2-1-0.5-1.3c-0.4-0.4-0.9-0.7-1.4-0.9c-0.5-0.3-1.1-0.5-1.8-0.8c-0.6-0.3-1.2-0.6-1.8-1
		c-0.5-0.4-1-0.8-1.4-1.4c-0.4-0.6-0.6-1.3-0.5-2.1c0-0.7,0.1-1.4,0.5-2c0.3-0.5,0.7-1,1.2-1.4s1.1-0.6,1.7-0.8s1.2-0.3,1.9-0.3
		c0.6,0,1.2,0.1,1.8,0.2c0.6,0.1,1.1,0.4,1.6,0.7s0.9,0.7,1.2,1.2c0.3,0.5,0.5,1.1,0.5,1.7l-0.4,0.2l-0.7,0.3
		c-0.3,0.1-0.5,0.2-0.8,0.3c-0.1,0.1-0.3,0.1-0.5,0.1c-0.3-0.5-0.7-1-1.2-1.3s-1-0.5-1.6-0.5c-0.5-0.1-0.9,0.1-1.3,0.4
		c-0.3,0.3-0.4,0.6-0.4,1s0.2,0.9,0.5,1.2c0.4,0.4,0.9,0.6,1.4,0.9c0.5,0.3,1.1,0.5,1.8,0.8c0.6,0.3,1.2,0.6,1.8,1
		c0.6,0.4,1,0.9,1.4,1.5c0.4,0.7,0.6,1.4,0.5,2.2c0,0.7-0.1,1.3-0.4,1.9c-0.2,0.6-0.6,1.1-1.1,1.5c-0.5,0.5-1.1,0.8-1.7,1
		c-0.7,0.2-1.5,0.4-2.2,0.3c-0.9,0-1.9-0.2-2.7-0.5c-0.7-0.3-1.3-0.7-1.8-1.2c-0.4-0.4-0.7-0.8-1-1.2
		C374.3,63.6,374.2,63.4,374,63.2z"/>
	<path class="st1" d="M391.6,66.4c0-0.4-0.1-0.9-0.1-1.3c0-1.9,0-3.8,0-5.7s0-3.8-0.1-5.7c-0.7,0-1.3,0-2-0.1c-0.7,0-1.3-0.1-2-0.1
		c0-0.4-0.1-0.7-0.1-1s0-0.7,0-1c0-0.2,0-0.3,0-0.5s0-0.3,0.1-0.5c1.3-0.1,2.7-0.1,4-0.1h4c0.6,0,1.1,0,1.7,0s1.1,0.1,1.7,0.2
		c0.1,0.4,0.2,0.7,0.1,1.1c0,0.4,0,0.8,0,1.1v0.7h-1c-0.5,0-1.1,0-1.6,0s-1.1,0-1.6,0c-0.1,1-0.1,2.1,0,3.2s0,2.1,0.1,3.2
		s0,2.1,0,3.2c0,1-0.1,2.1-0.2,3.1c-0.4,0.1-0.7,0.1-1.1,0.1h-1.1L391.6,66.4z"/>
	<path class="st1" d="M410.8,66.5c-0.3,0-0.6,0-0.9-0.1c-0.2-0.7-0.3-1.3-0.5-2s-0.3-1.3-0.5-2h-1.6c-0.9,0-1.7,0-2.6,0.1
		c-0.2,1.3-0.6,2.6-0.9,3.8H403h-1.5H401l-0.5-0.1c0.2-1.3,0.5-2.6,0.8-3.9s0.7-2.7,1.1-4s0.8-2.7,1.1-4s0.7-2.6,1-3.9h0.8
		c0.3,0,0.5,0,0.8,0h2c0.6,0,1.3,0,2,0c0.1,0.4,0.3,1,0.5,1.9s0.4,1.8,0.7,2.8s0.5,2.2,0.7,3.3s0.5,2.2,0.7,3.2s0.4,1.9,0.5,2.6
		c0.1,0.5,0.2,1,0.2,1.5v0.6L410.8,66.5z M406.6,59.5h1c0.3,0,0.7,0,1-0.1c0-0.5-0.1-1-0.2-1.5l-0.3-1.5c0-0.2-0.1-0.4-0.1-0.6
		c0-0.3-0.1-0.5-0.1-0.8c-0.1-0.2-0.1-0.5-0.2-0.7s-0.2-0.3-0.4-0.3H407h-0.2c-0.1,0.5-0.2,0.9-0.3,1.4l-0.4,1.3
		c-0.1,0.4-0.2,0.9-0.3,1.3c-0.1,0.5-0.2,0.9-0.2,1.4c0.1,0,0.2,0,0.4,0L406.6,59.5L406.6,59.5z"/>
	<path class="st1" d="M419,60.8c0-0.4-0.1-0.9-0.3-1.3c-0.2-0.5-0.5-1.1-0.8-1.7s-0.6-1.3-1-1.9l-1.1-2c-0.4-0.7-0.7-1.3-1-1.8
		c-0.2-0.5-0.5-1-0.6-1.5l0.4-0.1h0.4h1.2c0.4,0,0.8,0,1.2,0c0.5,1,1.1,1.9,1.6,2.9s1,2,1.4,3h0.2c0.6-0.9,1.2-1.9,1.7-3
		s1.1-2,1.7-3h0.5h2c0.1,0,0.3,0,0.4,0s0.3,0.1,0.4,0.1c-0.2,0.4-0.4,0.8-0.6,1.2c-0.3,0.5-0.6,1.1-1,1.7s-0.8,1.3-1.2,2
		s-0.8,1.3-1.1,1.9s-0.6,1.1-0.9,1.6c-0.2,0.3-0.3,0.6-0.3,1v3.2c0,0.5,0,1.1,0,1.6s0,1.1,0,1.6c-0.4,0.1-0.7,0.1-1.1,0.1H420
		c-0.3,0-0.6,0-0.9-0.1c-0.1-0.4-0.1-0.8-0.1-1.2L419,60.8L419,60.8z"/>
	<path class="st1" d="M434.4,63.2l0.2-0.5c0.1-0.3,0.3-0.5,0.5-0.8s0.4-0.5,0.7-0.6c0.3-0.2,0.7-0.2,1,0c0.1,0.4,0.3,0.7,0.6,1
		c0.2,0.3,0.5,0.5,0.9,0.8c0.3,0.2,0.6,0.4,1,0.5s0.7,0.2,1.1,0.2c0.5,0,1.1-0.1,1.5-0.5c0.3-0.3,0.5-0.8,0.5-1.2
		c0-0.5-0.2-1-0.5-1.3c-0.4-0.4-0.9-0.7-1.4-0.9c-0.5-0.3-1.1-0.5-1.8-0.8c-0.6-0.3-1.2-0.6-1.8-1c-0.5-0.4-1-0.8-1.4-1.4
		c-0.4-0.6-0.6-1.3-0.5-2.1c0-0.7,0.1-1.4,0.5-2c0.3-0.5,0.7-1,1.2-1.4s1.1-0.6,1.7-0.8s1.2-0.3,1.9-0.3c0.6,0,1.2,0.1,1.8,0.2
		c0.6,0.1,1.1,0.4,1.6,0.7s0.9,0.7,1.2,1.2c0.3,0.5,0.5,1.1,0.5,1.7l-0.4,0.2l-0.7,0.3c-0.3,0.1-0.5,0.2-0.8,0.3
		c-0.1,0.1-0.3,0.1-0.5,0.1c-0.3-0.5-0.7-1-1.2-1.3s-1-0.5-1.6-0.5c-0.5,0-0.9,0.1-1.3,0.4c-0.2,0.3-0.4,0.6-0.4,1s0.2,0.9,0.5,1.2
		c0.4,0.4,0.9,0.6,1.4,0.9c0.5,0.3,1.1,0.5,1.8,0.8c0.6,0.3,1.2,0.6,1.8,1c0.6,0.4,1,0.9,1.4,1.5c0.4,0.7,0.6,1.4,0.5,2.2
		c0,0.7-0.1,1.3-0.4,1.9c-0.2,0.6-0.6,1.1-1.1,1.5c-0.5,0.5-1.1,0.8-1.7,1c-0.7,0.2-1.5,0.4-2.2,0.3c-0.9,0-1.9-0.2-2.7-0.5
		c-0.7-0.3-1.3-0.7-1.8-1.2c-0.4-0.4-0.7-0.8-1-1.2C434.7,63.6,434.6,63.4,434.4,63.2z"/>
	<path class="st1" d="M458.1,66.5c-0.3,0-0.6,0-0.9-0.1c-0.2-0.7-0.3-1.3-0.5-2s-0.3-1.3-0.5-2h-1.6c-0.9,0-1.7,0-2.6,0.1
		c-0.2,1.3-0.6,2.6-0.9,3.8h-0.8h-1.5h-0.5l-0.5-0.1c0.2-1.3,0.4-2.6,0.8-3.9c0.3-1.3,0.7-2.7,1.1-4s0.8-2.7,1.1-4s0.7-2.6,1-3.9
		h0.8h0.8h2c0.6,0,1.3,0,2,0c0.1,0.4,0.3,1,0.5,1.9s0.4,1.8,0.7,2.8s0.5,2.2,0.7,3.3s0.5,2.2,0.7,3.2s0.4,1.9,0.5,2.6
		c0.1,0.5,0.2,1,0.2,1.5v0.6L458.1,66.5z M454,59.5h1c0.3,0,0.7,0,1-0.1c0-0.5-0.1-1-0.2-1.5l-0.3-1.5c0-0.2-0.1-0.4-0.1-0.6
		c0-0.3-0.1-0.5-0.1-0.8c-0.1-0.2-0.1-0.5-0.2-0.7s-0.2-0.3-0.4-0.3h-0.2h-0.2c-0.1,0.5-0.2,0.9-0.3,1.4l-0.4,1.3
		c-0.1,0.4-0.2,0.9-0.3,1.3c-0.1,0.5-0.2,0.9-0.2,1.4c0.1,0,0.2,0,0.4,0L454,59.5L454,59.5z"/>
	<path class="st1" d="M472.3,60.5h-0.8h-2.7c-0.6,0-1.3,0-1.9,0c0,1,0,1.9,0,2.9s0,2-0.2,2.9c-0.4,0-0.8,0.1-1.2,0.1h-1l-1-0.1
		c-0.1-0.6-0.1-1.2-0.1-1.8v-5.7c0-1.4,0-2.8,0-4.2s0-2.8,0.1-4.2c1.3-0.1,2.6-0.1,3.9-0.1h3.9c0.5,0,1.1,0,1.6,0s1,0,1.6,0.1
		c0,0.3,0,0.7,0.1,1s0,0.7,0,1v0.9c-0.4,0-0.8,0.1-1.2,0.1c-1,0-2.1,0-3.1,0s-2.1,0-3.1,0.1c0,0.5,0,0.9-0.1,1.3c0,0.5,0,0.9,0,1.4
		v1.2c0.3,0,0.5,0.1,0.8,0.1s0.6,0,0.9,0h1.8c0.6,0,1.2,0,1.8,0.1c0,0.5,0.1,1,0.1,1.5L472.3,60.5z"/>
	<path class="st1" d="M484.2,66.5c-1,0-2.1,0-3.3,0.1c-1.1,0.1-2.1,0-3.2-0.2c-0.1-1.1-0.2-2.2-0.2-3.3c0-1.2,0-2.4,0-3.6
		s0-2.4,0.1-3.6s0.1-2.3,0.1-3.4v-1.9c0.3,0,0.6,0,0.9-0.1h8.1h1.1c0,0.5,0.1,1,0.1,1.4v0.7c0,0.2,0,0.4,0,0.7l-0.6,0.1
		c-0.2,0-0.4,0-0.6,0c-0.9,0-1.9,0-2.8,0s-1.9,0-2.8,0.2c0,0.2,0,0.3,0,0.5v0.5V57c0.8,0.1,1.6,0.1,2.5,0.1c0.8,0,1.7-0.1,2.7-0.1
		c0,0,0.1,0,0.1,0.2s0,0.2,0.1,0.3l-0.1,2c0,0.1-0.1,0.2-0.1,0.2c-0.1,0-0.2,0.1-0.3,0.1h-0.4H483c-0.7,0-1.3,0-2,0v1.3v2.3
		c0.4,0.2,0.9,0.3,1.3,0.3c0.6,0,1.2,0,1.9,0l2-0.1c0.6,0,1.1,0,1.7,0c0,0.3,0.1,0.5,0.1,0.8s0,0.5,0,0.8s0,0.5,0,0.8
		c0,0.2-0.1,0.5-0.1,0.7L484.2,66.5z"/>
	<path class="st1" d="M493.8,66.3c-0.3,0.1-0.7,0.2-1,0.2s-0.5,0-0.8,0s-0.5-0.1-0.8-0.2c-0.1-0.3-0.2-0.5-0.3-0.8
		c0-0.3-0.1-0.6-0.1-0.9c-0.1-0.4,0.1-0.8,0.3-1.1c0.3-0.2,0.7-0.3,1.1-0.3c0.3,0,0.5,0,0.8,0.1c0.3,0,0.5,0.1,0.8,0.2
		c0.2,0.5,0.4,1,0.4,1.5c0,0.2,0,0.5-0.1,0.7C494,65.9,493.9,66.1,493.8,66.3z"/>
	<path class="st1" d="M512.8,57.8c0.7,0.4,1.3,0.8,1.7,1.4c0.5,0.6,0.7,1.3,0.7,2.1s-0.1,1.7-0.5,2.5c-0.3,0.6-0.7,1.1-1.2,1.5
		s-1.2,0.7-1.8,0.8c-0.7,0.2-1.4,0.3-2.2,0.3c-0.8,0.1-1.5,0.1-2.3,0.1s-1.5,0-2.2,0h-0.6c-0.1,0-0.3,0-0.4-0.1s-0.2-0.2-0.2-0.3
		c-0.1-0.2-0.1-0.4-0.1-0.6V51.4c0-0.3,0.2-0.6,0.5-0.7c0.4-0.2,0.8-0.2,1.2-0.2c0.5,0,1,0,1.4,0c0.5,0,0.9,0.1,1.2,0.1
		c0.7,0,1.5,0,2.2,0.1s1.4,0.2,2,0.5c0.6,0.3,1.1,0.7,1.5,1.2c0.4,0.7,0.6,1.4,0.6,2.2c0,0.6-0.1,1.2-0.4,1.7
		c-0.3,0.5-0.6,1-1.1,1.3V57.8z M507,63.6c0,0.1,0.1,0.1,0.2,0.2c0.1,0,0.2,0,0.2,0c0.4,0,0.9,0,1.4,0s0.9-0.1,1.4-0.2
		c0.4-0.1,0.8-0.4,1.1-0.7c0.3-0.4,0.5-0.9,0.4-1.4c0-0.4-0.1-0.9-0.5-1.1c-0.3-0.3-0.7-0.5-1.1-0.6c-0.5-0.1-0.9-0.2-1.4-0.2h-1.2
		c-0.1,0-0.3,0-0.4,0.1S507,60,507,60.1c0,0.6,0,1.2,0,1.8S507,63,507,63.6z M508.8,56.7c0.3,0,0.6,0,0.9-0.1s0.5-0.1,0.8-0.3
		c0.2-0.1,0.4-0.3,0.5-0.5c0.1-0.3,0.2-0.6,0.2-0.9c0-0.4-0.1-0.7-0.3-1c-0.2-0.3-0.5-0.5-0.8-0.6c-0.3-0.2-0.7-0.3-1-0.3
		c-0.4,0-0.7-0.1-1.1,0c-0.2,0-0.5,0-0.7,0s-0.2,0.2-0.2,0.5s0,0.7,0,1s0,0.7,0,1v0.8c0,0.1,0.1,0.1,0.2,0.2h0.2L508.8,56.7z"/>
	<path class="st1" d="M525.1,66.5c-1,0-2.1,0-3.3,0.1c-1.1,0.1-2.1,0-3.2-0.2c-0.1-1.1-0.2-2.2-0.2-3.3c0-1.2,0-2.4,0-3.6
		s0-2.4,0.1-3.6s0.1-2.3,0.1-3.4v-1.9c0.3,0,0.6,0,1-0.1h8.1h1.1c0,0.5,0.1,1,0.1,1.4v0.7c0,0.2,0,0.4,0,0.7l-0.6,0.1
		c-0.2,0-0.4,0-0.6,0c-1,0-1.9,0-2.8,0c-0.9,0-1.9,0-2.8,0.2c0,0.2,0,0.3,0,0.5v0.5V57c0.8,0.1,1.6,0.1,2.5,0.1
		c0.8,0,1.7-0.1,2.7-0.1c0,0,0.1,0,0.1,0.2s0,0.2,0.1,0.3l-0.2,2c0,0.1-0.1,0.2-0.1,0.2c-0.1,0-0.2,0.1-0.3,0.1h-0.4h-2.4
		c-0.7,0-1.3,0-2,0v1.3v2.3c0.4,0.2,0.9,0.3,1.3,0.3c0.6,0,1.2,0,1.9,0l2-0.1c0.6,0,1.1,0,1.7,0c0,0.3,0.1,0.5,0.1,0.8s0,0.5,0,0.8
		s0,0.5,0,0.8c0,0.2-0.1,0.5-0.1,0.7L525.1,66.5z"/>
	<path class="st1" d="M547.1,66.5c-0.2-0.3-0.4-0.7-0.6-1.1c-0.3-0.5-0.5-1.1-0.8-1.8s-0.5-1.2-0.7-1.8s-0.4-1-0.5-1.3
		c-0.3-0.1-0.6-0.2-0.8-0.2h-1.4c-0.2,0-0.4,0-0.6,0c0,0.2-0.1,0.5,0,0.7v0.7c0,0.7,0,1.5,0.1,2.2c0,0.7,0,1.5-0.1,2.2
		c-0.4,0.1-0.8,0.1-1.2,0.1s-0.8,0-1.1,0h-1c-0.1-0.4-0.2-0.8-0.2-1.2c0-0.7-0.1-1.5-0.1-2.4s0-2,0-3.1s0-2.2,0-3.2s0-1.9,0-2.7
		s0-1.3,0-1.7s0-0.5,0-0.8s0-0.5,0.1-0.8c0.5-0.1,1-0.1,1.6-0.1h1.6h1.9c0.7,0,1.3,0.1,2,0.2c0.6,0.1,1.2,0.2,1.8,0.5
		c0.6,0.2,1.1,0.5,1.5,0.9s0.8,0.9,1,1.4c0.3,0.7,0.4,1.4,0.4,2.1c0,0.5,0,0.9-0.2,1.4c-0.1,0.4-0.3,0.8-0.5,1.1
		c-0.2,0.4-0.5,0.7-0.7,1c-0.3,0.3-0.6,0.6-1,0.9c0.1,0.6,0.4,1.1,0.6,1.6c0.3,0.5,0.5,1.1,0.8,1.6s0.5,1.1,0.7,1.6s0.3,1,0.4,1.6
		c-0.1,0-0.2,0.1-0.3,0.1h-0.3L547.1,66.5z M541.7,57.6c0.1,0.1,0.1,0.1,0.2,0.2c0.1,0,0.2,0,0.3,0c0.4,0,0.9,0,1.4,0s1-0.1,1.4-0.2
		c0.4-0.1,0.8-0.3,1.1-0.7s0.5-0.9,0.5-1.4s-0.1-0.9-0.4-1.3c-0.3-0.3-0.7-0.5-1.1-0.6c-0.4-0.1-0.9-0.2-1.4-0.2h-1.4
		c-0.1,0-0.3,0-0.4,0.1c-0.1,0-0.2,0.1-0.2,0.2c0,0.1-0.1,0.2,0,0.3c0,0.1,0,0.3,0,0.4s0,0.6,0,0.9s0,0.6,0,0.9L541.7,57.6z"/>
	<path class="st1" d="M560.2,66.5c-1,0-2.1,0-3.3,0.1c-1.1,0.1-2.1,0-3.2-0.2c-0.1-1.1-0.2-2.2-0.2-3.3c0-1.2,0-2.4,0-3.6
		s0-2.4,0.1-3.6s0-2.3,0-3.4v-1.9c0.3,0,0.6,0,1-0.1h8.1h1.1c0,0.5,0.1,1,0.1,1.4v0.7c0,0.2,0,0.4,0,0.7l-0.6,0.1
		c-0.2,0-0.4,0-0.6,0c-1,0-1.9,0-2.8,0c-0.9,0-1.9,0-2.8,0.2c0,0.2,0,0.3,0,0.5v0.5V57c0.8,0.1,1.6,0.1,2.5,0.1
		c0.8,0,1.7-0.1,2.7-0.1c0,0,0.1,0,0.1,0.2s0,0.2,0.1,0.3l-0.2,2c0,0.1-0.1,0.2-0.1,0.2c-0.1,0-0.2,0.1-0.3,0.1h-0.4H559
		c-0.7,0-1.3,0-1.9,0v1.3v2.3c0.4,0.2,0.9,0.3,1.3,0.3c0.6,0,1.2,0,1.9,0l2-0.1c0.6,0,1.1,0,1.7,0c0,0.3,0.1,0.5,0.1,0.8
		s0,0.5,0,0.8s0,0.5,0,0.8c0,0.2-0.1,0.5-0.1,0.7L560.2,66.5z"/>
	<path class="st1" d="M579.6,66.4h-1.1c-0.4,0-0.7,0-1.1-0.1c-0.4-1.2-0.8-2.4-1.2-3.6c-0.4-1.2-0.7-2.5-0.9-3.7h-0.1
		c-0.4,1.2-0.9,2.5-1.3,3.7c-0.4,1.2-0.8,2.4-1.2,3.7l-1,0.1c-0.3,0-0.7,0-1,0h-1c-0.3,0-0.7-0.1-1-0.2c-0.1-0.6-0.2-1.3-0.4-2.1
		s-0.3-1.7-0.5-2.7s-0.3-1.9-0.5-2.9s-0.3-2-0.4-2.9s-0.2-1.8-0.3-2.6s-0.1-1.5-0.1-2v-0.5c0.2,0,0.4,0,0.6,0h1.7c0.3,0,0.7,0,1,0
		c0.2,1.7,0.5,3.4,0.7,5.2s0.5,3.5,0.6,5.2h0.2c0.2-1,0.5-2,0.9-2.9s0.7-1.9,1.1-2.8c0.3-0.2,0.6-0.3,0.9-0.3c0.3,0,0.6,0,0.9,0
		c0.3,0,0.7,0,1,0s0.7,0.1,1,0.1c0.3,1,0.7,2.1,1,3.1c0.4,1,0.7,2.1,0.9,3.2h0.2c0.2-1.8,0.4-3.5,0.6-5.3s0.4-3.5,0.5-5.3
		c0.2-0.1,0.4-0.1,0.6-0.1h1.7c0.4,0,0.7,0,1.1,0.1c-0.1,1.3-0.2,2.6-0.3,3.9s-0.3,2.6-0.5,4s-0.4,2.6-0.5,4s-0.4,2.6-0.5,3.9
		L579.6,66.4z"/>
	<path class="st1" d="M596.1,66.5c-0.3,0-0.6,0-0.8-0.1c-0.2-0.7-0.3-1.3-0.5-2s-0.3-1.3-0.5-2h-1.6c-0.9,0-1.7,0-2.6,0.1
		c-0.3,1.3-0.6,2.6-0.9,3.8h-0.8h-1.5h-0.5l-0.5-0.1c0.2-1.3,0.5-2.6,0.8-3.9s0.7-2.7,1.1-4s0.8-2.7,1.2-4s0.7-2.6,1-3.9h0.8h0.8h2
		c0.6,0,1.3,0,1.9,0c0.1,0.4,0.3,1,0.5,1.9l0.7,2.8c0.2,1.1,0.5,2.2,0.7,3.3s0.5,2.2,0.7,3.2s0.4,1.9,0.5,2.6c0.1,0.5,0.2,1,0.2,1.5
		v0.6L596.1,66.5z M591.9,59.5h1c0.3,0,0.7,0,1-0.1c0-0.5-0.1-1-0.2-1.5l-0.3-1.5c0-0.2-0.1-0.4-0.1-0.6c0-0.3-0.1-0.5-0.2-0.8
		c-0.1-0.2-0.1-0.5-0.2-0.7c-0.1-0.2-0.2-0.3-0.4-0.3h-0.2h-0.2c-0.1,0.5-0.2,0.9-0.3,1.4l-0.4,1.3c-0.1,0.4-0.2,0.9-0.3,1.3
		c-0.1,0.5-0.2,0.9-0.2,1.4h0.4L591.9,59.5L591.9,59.5z"/>
	<path class="st1" d="M610.4,66.5c-0.2-0.3-0.5-0.7-0.6-1.1c-0.2-0.5-0.5-1.1-0.8-1.8s-0.5-1.2-0.7-1.8s-0.4-1-0.5-1.3
		c-0.3-0.1-0.6-0.2-0.8-0.2h-1.4c-0.2,0-0.4,0-0.6,0c0,0.2,0,0.5,0,0.7v0.7c0,0.7,0,1.5,0.1,2.2c0,0.7,0,1.5-0.1,2.2
		c-0.4,0.1-0.8,0.1-1.2,0.1s-0.8,0-1.1,0h-1c-0.1-0.4-0.2-0.8-0.2-1.2c-0.1-0.7-0.1-1.5-0.1-2.4c0-1,0-2,0-3.1s0-2.2,0-3.2
		s0-1.9,0-2.7s0-1.3,0-1.7s0-0.5,0-0.8s0-0.5,0.1-0.8c0.5-0.1,1-0.1,1.6-0.1h1.6h1.9c0.7,0,1.3,0.1,2,0.2c0.6,0.1,1.2,0.2,1.8,0.5
		c0.6,0.2,1.1,0.5,1.5,0.9s0.8,0.9,1,1.4c0.3,0.7,0.4,1.4,0.4,2.1c0,0.5,0,0.9-0.2,1.4c-0.1,0.4-0.2,0.8-0.4,1.1
		c-0.2,0.4-0.5,0.7-0.8,1s-0.6,0.6-1,0.9c0.2,0.6,0.4,1.1,0.6,1.6c0.3,0.5,0.5,1.1,0.8,1.6s0.5,1.1,0.7,1.6s0.3,1,0.4,1.6
		c-0.1,0-0.2,0.1-0.3,0.1h-0.3L610.4,66.5z M604.9,57.6c0.1,0.1,0.1,0.1,0.2,0.2c0.1,0,0.2,0,0.3,0c0.4,0,0.9,0,1.4,0s1-0.1,1.4-0.2
		c0.4-0.1,0.8-0.3,1.1-0.7s0.5-0.9,0.5-1.4s-0.1-0.9-0.4-1.3c-0.3-0.3-0.7-0.5-1.1-0.6c-0.4-0.1-0.9-0.2-1.4-0.2h-1.4
		c-0.1,0-0.3,0-0.4,0.1c-0.1,0-0.2,0.1-0.2,0.2c0,0.1-0.1,0.2,0,0.3c0,0.1,0,0.3,0,0.4s0,0.6,0,0.9s0,0.6,0,0.9L604.9,57.6z"/>
	<path class="st1" d="M616.9,65.4v-7.2c0-0.6,0-1.2-0.1-1.9s-0.1-1.3-0.1-2c0-0.6,0-1.3,0.1-1.9c0.1-0.6,0.2-1.2,0.4-1.8h3.2
		c1.3,0,2.7,0.1,4,0.4c1.1,0.2,2,0.7,2.9,1.4c0.8,0.7,1.4,1.7,1.7,2.7c0.4,1.4,0.6,2.8,0.6,4.2c0,1-0.1,1.9-0.4,2.9
		c-0.2,0.7-0.6,1.4-1.1,2c-0.5,0.5-1.1,1-1.7,1.3c-0.7,0.3-1.4,0.6-2.2,0.8c-0.8,0.2-1.6,0.3-2.5,0.3s-1.7,0.1-2.6,0.1H618
		c-0.4,0-0.7,0-1.1-0.1V65.4z M620.6,63.3c0.2,0.1,0.4,0.1,0.5,0.1h0.5c1.2,0.1,2.5-0.3,3.3-1.2c0.8-1,1.2-2.2,1.1-3.4
		c0-0.8-0.1-1.6-0.3-2.4c-0.1-0.6-0.4-1.1-0.8-1.5c-0.4-0.4-1-0.7-1.5-0.8c-0.7-0.2-1.5-0.3-2.3-0.2h-0.3c-0.1,0-0.2,0-0.3,0
		c-0.1,1.5-0.2,2.9-0.1,4.4c0,1.5,0.1,2.9,0.1,4.4C620.5,62.8,620.5,63,620.6,63.3L620.6,63.3z"/>
	<path class="st1" d="M639.6,66.5c-1,0-2.1,0-3.2,0.1c-1.1,0.1-2.1,0-3.2-0.2c-0.1-1.1-0.2-2.2-0.2-3.3c0-1.2,0-2.4,0-3.6
		s0-2.4,0.1-3.6s0.1-2.3,0.1-3.4v-1.9c0.3,0,0.6,0,0.9-0.1h8.1h1.1c0,0.5,0.1,1,0.1,1.4v0.7c0,0.2,0,0.4,0,0.7l-0.6,0.1
		c-0.2,0-0.4,0-0.6,0c-0.9,0-1.9,0-2.8,0c-0.9,0-1.9,0-2.8,0.2c0,0.2,0,0.3,0,0.5v0.5V57c0.8,0.1,1.6,0.1,2.5,0.1
		c0.8,0,1.7-0.1,2.7-0.1c0,0,0.1,0,0.1,0.2s0,0.2,0.1,0.3l-0.1,2c0,0.1-0.1,0.2-0.1,0.2c-0.1,0-0.2,0.1-0.3,0.1h-0.4h-2.4
		c-0.7,0-1.3,0-2,0v1.3v2.3c0.4,0.2,0.9,0.3,1.3,0.3c0.6,0,1.2,0,1.9,0l2-0.1c0.6,0,1.1,0,1.7,0c0,0.3,0.1,0.5,0.1,0.8s0,0.5,0,0.8
		s0,0.5,0,0.8l-0.1,0.7L639.6,66.5z"/>
	<path class="st1" d="M646.8,65.4v-7.2c0-0.6,0-1.2-0.1-1.9s-0.1-1.3-0.1-2c0-0.6,0-1.3,0.1-1.9c0-0.6,0.2-1.2,0.4-1.8h3.2
		c1.3,0,2.7,0.1,4,0.4c1.1,0.2,2,0.7,2.8,1.4s1.4,1.6,1.7,2.7c0.4,1.4,0.6,2.8,0.6,4.2c0,1-0.1,1.9-0.4,2.9c-0.2,0.7-0.6,1.4-1.1,2
		c-0.5,0.5-1.1,1-1.7,1.3c-0.7,0.3-1.4,0.6-2.2,0.8c-0.8,0.2-1.6,0.3-2.5,0.3s-1.8,0.1-2.6,0.1h-1.1c-0.4,0-0.7,0-1.1-0.1
		L646.8,65.4z M650.5,63.3c0.2,0.1,0.4,0.1,0.5,0.1h0.5c1.2,0.1,2.5-0.3,3.4-1.2c0.8-1,1.2-2.2,1.1-3.4c0-0.8-0.1-1.6-0.3-2.4
		c-0.1-0.6-0.4-1.1-0.8-1.5c-0.4-0.4-0.9-0.7-1.5-0.8c-0.7-0.2-1.5-0.3-2.3-0.2h-0.3c-0.1,0-0.2,0-0.3,0c-0.1,1.5-0.2,2.9-0.1,4.4
		c0,1.5,0.1,2.9,0.1,4.4C650.4,62.8,650.4,63,650.5,63.3z"/>
	<path class="st1" d="M665.4,66.3c-0.3,0.1-0.7,0.2-1,0.2s-0.5,0-0.8,0s-0.5-0.1-0.8-0.2c-0.1-0.3-0.2-0.5-0.3-0.8
		c0-0.3-0.1-0.6-0.1-0.9c-0.1-0.4,0.1-0.8,0.3-1.1c0.3-0.2,0.7-0.3,1.1-0.3c0.3,0,0.5,0,0.8,0.1c0.3,0,0.5,0.1,0.8,0.2
		c0.2,0.5,0.4,1,0.3,1.5c0,0.2,0,0.5-0.1,0.7C665.6,65.9,665.5,66.1,665.4,66.3z"/>
</g>
</svg>
