<?xml version="1.0" encoding="utf-8"?>
<!-- Generator: Adobe Illustrator 24.2.3, SVG Export Plug-In . SVG Version: 6.00 Build 0)  -->
<svg version="1.1" id="Layer_3" xmlns="http://www.w3.org/2000/svg" xmlns:xlink="http://www.w3.org/1999/xlink" x="0px" y="0px"
	 viewBox="0 0 728 90" style="enable-background:new 0 0 728 90;" xml:space="preserve">
<style type="text/css">
	.st0{enable-background:new    ;}
	.st1{fill:#FFFFFF;}
</style>
<g class="st0">
	<path class="st1" d="M648.6,35.7h-8.8l-0.1,3.4c0.5-0.2,1.1-0.3,2-0.3c1.1,0,2.2,0.2,3.1,0.5c0.9,0.3,1.7,0.8,2.4,1.5
		c0.7,0.6,1.2,1.4,1.6,2.3c0.4,0.9,0.6,1.9,0.6,3.1c0,1.3-0.2,2.4-0.6,3.4c-0.4,1-1,1.8-1.8,2.5s-1.6,1.2-2.7,1.6
		c-1,0.4-2.2,0.5-3.4,0.5c-1.9,0-3.5-0.5-4.8-1.4c-1.3-0.9-2.2-2.4-2.7-4.3l4.9-1.1c0.1,0.8,0.5,1.4,1,1.9c0.5,0.5,1.2,0.7,2,0.7
		c1,0,1.8-0.3,2.4-0.9c0.6-0.6,0.9-1.4,0.9-2.4c0-0.7-0.2-1.3-0.5-1.8s-0.7-0.8-1.2-1.1c-0.5-0.3-1-0.5-1.6-0.6
		c-0.6-0.1-1.2-0.2-1.8-0.2c-0.8,0-1.6,0.1-2.3,0.2c-0.8,0.1-1.5,0.3-2.3,0.6l0.3-12.2h13.4V35.7z"/>
	<path class="st1" d="M652.9,42.6c0-1.3,0.1-2.7,0.4-4c0.2-1.4,0.7-2.6,1.3-3.7c0.6-1.1,1.5-2,2.5-2.7c1.1-0.7,2.4-1,4.1-1
		c1.6,0,3,0.3,4.1,1c1.1,0.7,1.9,1.6,2.5,2.7s1,2.3,1.3,3.7c0.2,1.4,0.4,2.7,0.4,4s-0.1,2.7-0.4,4c-0.2,1.4-0.7,2.6-1.3,3.7
		c-0.6,1.1-1.5,2-2.5,2.7c-1.1,0.7-2.4,1-4.1,1c-1.7,0-3-0.3-4.1-1c-1.1-0.7-1.9-1.6-2.5-2.7c-0.6-1.1-1-2.3-1.3-3.7
		C653,45.3,652.9,43.9,652.9,42.6z M657.6,42.6c0,0.6,0,1.3,0.1,2.1c0.1,0.8,0.2,1.6,0.4,2.4c0.2,0.8,0.6,1.4,1,1.9
		c0.5,0.5,1.1,0.8,2,0.8c0.8,0,1.5-0.3,2-0.8c0.5-0.5,0.8-1.2,1.1-1.9c0.2-0.8,0.4-1.5,0.4-2.4c0.1-0.8,0.1-1.5,0.1-2.1
		s0-1.3-0.1-2.1c-0.1-0.8-0.2-1.6-0.4-2.4c-0.2-0.8-0.6-1.4-1.1-1.9c-0.5-0.5-1.1-0.8-2-0.8c-0.9,0-1.5,0.3-2,0.8
		c-0.5,0.5-0.8,1.2-1,1.9c-0.2,0.8-0.4,1.5-0.4,2.4C657.6,41.3,657.6,42,657.6,42.6z"/>
</g>
</svg>
