<?xml version="1.0" encoding="utf-8"?>
<!-- Generator: Adobe Illustrator 25.4.1, SVG Export Plug-In . SVG Version: 6.00 Build 0)  -->
<svg version="1.1" id="Layer_1" xmlns="http://www.w3.org/2000/svg" xmlns:xlink="http://www.w3.org/1999/xlink" x="0px" y="0px"
	 viewBox="0 0 300 600" style="enable-background:new 0 0 300 600;" xml:space="preserve">
<style type="text/css">
	.st0{fill:#FFFFFF;}
</style>
<g>
	<g>
		<path class="st0" d="M47.2,121.7h-9.9v-6.3h27v6.3h-9.9v27.5h-7.2V121.7z"/>
		<path class="st0" d="M68,117.3c0-2.1,1.7-3.8,3.8-3.8s3.8,1.7,3.8,3.8s-1.7,3.8-3.8,3.8l0,0C69.7,121.1,68,119.4,68,117.3z
			 M68.7,124.7h6.4v24.5h-6.4L68.7,124.7z"/>
		<path class="st0" d="M111.9,133.8c0-2.3-1-3.9-3.7-3.9c-2,0.1-3.9,1.1-5.1,2.8v16.5h-6.5v-15.5c0-2.3-1-3.9-3.7-3.9
			c-2,0.1-3.9,1.2-5,2.9v16.5h-6.5v-24.5H88v3.2c2-2.4,4.9-3.8,8-3.8c3.6,0,5.9,1.7,6.8,4.5c1.9-2.8,5.1-4.4,8.4-4.5
			c4.5,0,7.2,2.4,7.2,7.4v17.7h-6.5L111.9,133.8z"/>
		<path class="st0" d="M135.8,124.1c7.3,0,12.3,5.5,12.3,13.5v1.4h-18.2c0.4,3.1,2.9,5.7,7.1,5.7c2.4,0,4.7-0.9,6.5-2.4l2.8,4.2
			c-2.4,2.2-6.3,3.4-10.1,3.4c-7.4,0-13.1-5-13.1-12.9c-0.2-6.9,5.2-12.6,12.1-12.8C135.4,124.1,135.6,124.1,135.8,124.1z
			 M129.8,134.7h12.1c-0.1-3.1-2.8-5.6-5.9-5.4c0,0-0.1,0-0.1,0C132.7,129.1,130,131.5,129.8,134.7L129.8,134.7z"/>
		<path class="st0" d="M167,143.1v-12.8h-4.1v-5.6h4.1V118h6.5v6.7h5v5.6h-5v11c0,1.5,0.8,2.7,2.2,2.7c0.8,0,1.6-0.2,2.2-0.7
			l1.4,4.9c-1,0.9-2.7,1.6-5.4,1.6C169.4,149.8,167,147.5,167,143.1z"/>
		<path class="st0" d="M181.3,137c0-6.9,4.9-12.8,12.9-12.8s13,5.9,13,12.8s-4.9,12.9-13,12.9S181.3,143.9,181.3,137z M200.5,137
			c0-3.8-2.3-7.1-6.3-7.1s-6.2,3.2-6.2,7.1s2.2,7.1,6.2,7.1S200.5,140.8,200.5,137z"/>
	</g>
</g>
</svg>
