<?xml version="1.0" encoding="utf-8"?>
<!-- Generator: Adobe Illustrator 25.4.1, SVG Export Plug-In . SVG Version: 6.00 Build 0)  -->
<svg version="1.1" id="Layer_1" xmlns="http://www.w3.org/2000/svg" xmlns:xlink="http://www.w3.org/1999/xlink" x="0px" y="0px"
	 viewBox="0 0 49.9 34.4" style="enable-background:new 0 0 49.9 34.4;" xml:space="preserve">
<style type="text/css">
	.st0{fill:#CDFFFF;}
</style>
<g id="Layer_2_00000055669652098735868860000015181456228910592949_">
	<g id="Layer_1-2">
		<path class="st0" d="M9.9,6.3H0V0h27v6.3h-9.9v27.5H9.9V6.3z"/>
		<path class="st0" d="M37.6,8.7c7.3,0,12.3,5.5,12.3,13.5v1.4H31.7c0.4,3.1,2.9,5.7,7,5.7c2.4,0,4.7-0.9,6.5-2.4l2.9,4.1
			c-2.4,2.2-6.3,3.4-10.1,3.4c-7.5,0-13.1-5-13.1-12.9c-0.2-6.9,5.2-12.6,12.1-12.8C37.2,8.7,37.4,8.7,37.6,8.7z M31.6,19.3h12
			c-0.1-3.1-2.8-5.6-5.9-5.4c0,0-0.1,0-0.1,0C34.5,13.7,31.8,16.1,31.6,19.3L31.6,19.3z"/>
	</g>
</g>
</svg>
