<?xml version="1.0" encoding="utf-8"?>
<!-- Generator: Adobe Illustrator 25.4.1, SVG Export Plug-In . SVG Version: 6.00 Build 0)  -->
<svg version="1.1" id="Layer_1" xmlns="http://www.w3.org/2000/svg" xmlns:xlink="http://www.w3.org/1999/xlink" x="0px" y="0px"
	 viewBox="0 0 124 45.7" style="enable-background:new 0 0 124 45.7;" xml:space="preserve">
<style type="text/css">
	.st0{fill:#CDBBFF;}
</style>
<g id="Layer_2_00000046318274997142409890000001266147216774059677_">
	<g id="Layer_1-2">
		<path class="st0" d="M12.7,10.7c7.3,0,12.3,5.5,12.3,13.5v1.4H6.7c0.4,3.1,2.9,5.7,7,5.7c2.4,0,4.7-0.9,6.5-2.4l2.9,4.2
			c-2.4,2.2-6.3,3.4-10.1,3.4C5.6,36.4,0,31.4,0,23.5c-0.2-6.9,5.2-12.6,12.1-12.8C12.3,10.7,12.5,10.7,12.7,10.7z M6.7,21.2h12
			c-0.1-3.1-2.8-5.6-5.9-5.4c0,0-0.1,0-0.1,0C9.6,15.7,6.9,18.1,6.7,21.2L6.7,21.2z"/>
		<path class="st0" d="M46.1,21c0-3.4-1.8-4.6-4.5-4.6c-2.2,0-4.3,1.1-5.6,2.9v16.5h-6.4V11.3H36v3.2c2.2-2.5,5.3-3.8,8.6-3.8
			c5.4,0,8,3,8,7.8v17.3h-6.4V21z"/>
		<path class="st0" d="M65.4,36.4c0,5.6-2.8,9.3-8.7,9.3c-0.9,0-1.9-0.1-2.8-0.2l0.4-5.3c0.5,0.1,0.9,0.1,1.4,0.2
			c1.9,0,3.2-1.2,3.2-3.9V11.3h6.4V36.4z M58.3,3.8C58.3,1.7,60,0,62.2,0C64.3,0,66,1.7,66,3.9c0,2.1-1.7,3.8-3.8,3.8
			C60,7.7,58.3,6,58.3,3.8z"/>
		<path class="st0" d="M70.2,23.5c0-6.9,4.9-12.8,12.9-12.8s13,5.9,13,12.8s-4.9,12.9-13,12.9S70.2,30.5,70.2,23.5z M89.4,23.5
			c0-3.8-2.3-7.1-6.3-7.1s-6.2,3.3-6.2,7.1s2.2,7.1,6.2,7.1S89.4,27.4,89.4,23.5z"/>
		<path class="st0" d="M103,40c1.7,0,2.8-0.5,3.4-1.8l0.9-2.1l-9.9-24.9h6.9l6.4,17l6.4-17h7l-11.5,28.5c-1.8,4.6-5.1,5.8-9.3,5.9
			c-1.1,0-2.1-0.1-3.2-0.3l1-5.8C101.7,39.8,102.3,40,103,40z"/>
	</g>
</g>
</svg>
