<?xml version="1.0" encoding="utf-8"?>
<!-- Generator: Adobe Illustrator 25.4.1, SVG Export Plug-In . SVG Version: 6.00 Build 0)  -->
<svg version="1.1" id="Layer_1" xmlns="http://www.w3.org/2000/svg" xmlns:xlink="http://www.w3.org/1999/xlink" x="0px" y="0px"
	 viewBox="0 0 110.8 36.4" style="enable-background:new 0 0 110.8 36.4;" xml:space="preserve">
<style type="text/css">
	.st0{fill:#CDFFFF;}
</style>
<g id="Layer_2_00000014604533307564627340000007351694387310607515_">
	<g id="Layer_1-2">
		<path class="st0" d="M9.9,8.3H0V2h27v6.3h-9.9v27.5H9.9V8.3z"/>
		<path class="st0" d="M30.8,3.8c0-2.1,1.7-3.8,3.9-3.8c2.1,0,3.8,1.7,3.8,3.9c0,2.1-1.7,3.8-3.8,3.8C32.5,7.7,30.8,6,30.8,3.8z
			 M31.4,11.3h6.4v24.5h-6.4V11.3z"/>
		<path class="st0" d="M74.6,20.3c0-2.3-1-3.9-3.7-3.9c-2,0.1-3.9,1.1-5.1,2.8v16.5h-6.5V20.3c0-2.3-1-3.9-3.7-3.9
			c-2,0.1-3.9,1.2-5.1,2.9v16.5h-6.4V11.3h6.4v3.2c2-2.4,4.9-3.7,8-3.8c3.6,0,5.9,1.7,6.8,4.5c1.9-2.8,5.1-4.4,8.4-4.5
			c4.5,0,7.2,2.4,7.2,7.4v17.7h-6.5V20.3z"/>
		<path class="st0" d="M98.5,10.7c7.3,0,12.3,5.5,12.3,13.5v1.4H92.6c0.4,3.1,2.9,5.7,7,5.7c2.4,0,4.7-0.9,6.5-2.4L109,33
			c-2.4,2.2-6.3,3.4-10.1,3.4c-7.4,0-13.1-5-13.1-12.9c-0.2-6.9,5.2-12.6,12.1-12.8C98.1,10.7,98.3,10.7,98.5,10.7z M92.5,21.2h12.1
			c-0.1-3.1-2.8-5.6-5.9-5.4c0,0,0,0-0.1,0C95.5,15.7,92.8,18.1,92.5,21.2L92.5,21.2z"/>
	</g>
</g>
</svg>
