<?xml version="1.0" encoding="utf-8"?>
<!-- Generator: Adobe Illustrator 25.4.1, SVG Export Plug-In . SVG Version: 6.00 Build 0)  -->
<svg version="1.1" id="Layer_1" xmlns="http://www.w3.org/2000/svg" xmlns:xlink="http://www.w3.org/1999/xlink" x="0px" y="0px"
	 viewBox="0 0 300 600" style="enable-background:new 0 0 300 600;" xml:space="preserve">
<style type="text/css">
	.st0{clip-path:url(#SVGID_00000178914706885038314350000001089342800677767101_);}
	.st1{fill:#FFFFFF;}
	.st2{fill:#80919E;}
</style>
<g>
	<g>
		<g>
			<defs>
				<rect id="SVGID_1_" y="0" width="300" height="600"/>
			</defs>
			<clipPath id="SVGID_00000080204051071200742000000008660815852081644419_">
				<use xlink:href="#SVGID_1_"  style="overflow:visible;"/>
			</clipPath>
			<g style="clip-path:url(#SVGID_00000080204051071200742000000008660815852081644419_);">
				<path class="st1" d="M53.8,250C44,250,36,258,36,267.8c0,9.8,8,17.8,17.8,17.8h105.3c9.8,0,17.8-8,17.8-17.8
					c0-9.8-8-17.8-17.8-17.8H53.8z"/>
			</g>
		</g>
		<path class="st2" d="M55,262h5.4c2,0,3.7,1.7,3.7,3.7s-1.7,3.7-3.7,3.7c0,0,0,0,0,0h-2.9v4.1H55V262z M60.1,264.1h-2.6v3.2h2.6
			c0.9,0,1.6-0.7,1.6-1.6C61.7,264.8,61,264.1,60.1,264.1C60.1,264.1,60.1,264.1,60.1,264.1z"/>
		<path class="st2" d="M65.8,262H68v11.5h-2.2L65.8,262z"/>
		<path class="st2" d="M75.2,272.7c-0.7,0.7-1.7,1.1-2.7,1.1c-1.5,0.1-2.8-1.1-2.9-2.7c0,0,0,0,0-0.1c0-1.5,1.2-2.7,2.6-2.7
			c0.1,0,0.2,0,0.3,0c1-0.1,2,0.3,2.7,1v-1.2c0-0.9-0.7-1.4-1.8-1.4c-0.9,0-1.8,0.4-2.4,1l-0.9-1.5c1-0.9,2.3-1.3,3.7-1.3
			c1.9,0,3.7,0.8,3.7,3.2v5.4h-2.2V272.7z M75.2,270.5c-0.5-0.5-1.1-0.8-1.8-0.7c-0.9,0-1.6,0.5-1.6,1.3s0.7,1.2,1.6,1.2
			c0.7,0,1.3-0.2,1.8-0.7V270.5z"/>
		<path class="st2" d="M85.2,268.5c0.1-0.7-0.4-1.4-1.1-1.5c-0.1,0-0.3,0-0.4,0c-0.8,0-1.5,0.4-1.9,1v5.6h-2.2v-8.4h2.2v1.1
			c0.7-0.8,1.8-1.3,2.9-1.3c1.3-0.2,2.5,0.8,2.7,2.1c0,0.2,0,0.4,0,0.6v5.9h-2.2V268.5z"/>
		<path class="st2" d="M94.7,275c0.5,0.1,0.9-0.2,1.2-0.6l0.3-0.7l-3.4-8.5h2.3l2.2,5.8l2.2-5.8h2.4l-3.9,9.7
			c-0.5,1.3-1.8,2.2-3.2,2c-0.4,0-0.7,0-1.1-0.1l0.3-2C94.2,274.9,94.5,275,94.7,275z"/>
		<path class="st2" d="M102.3,269.4c0-2.4,1.9-4.4,4.4-4.4c2.4,0,4.4,1.9,4.4,4.4s-1.9,4.4-4.4,4.4c0,0,0,0,0,0
			c-2.3,0.1-4.3-1.7-4.4-4C102.3,269.6,102.3,269.5,102.3,269.4z M108.9,269.4c-0.2-1.2-1.2-2-2.4-1.9s-2,1.2-1.9,2.4
			c0.1,1.1,1.1,1.9,2.1,1.9c1.2,0,2.2-1,2.2-2.2C108.9,269.5,108.9,269.4,108.9,269.4z"/>
		<path class="st2" d="M118.4,272.5c-0.8,0.8-1.8,1.3-2.9,1.3c-1.3,0.2-2.5-0.7-2.7-2c0-0.2,0-0.4,0-0.6v-5.9h2.2v5.1
			c-0.1,0.7,0.4,1.4,1.1,1.5c0.1,0,0.3,0,0.4,0c0.8,0,1.5-0.4,1.9-1v-5.7h2.2v8.4h-2.2L118.4,272.5z"/>
		<path class="st2" d="M122.8,265.2h2.2v1.1c0.7-0.8,1.6-1.3,2.7-1.3v2.1c-0.2,0-0.4-0.1-0.6-0.1c-0.8,0-1.5,0.4-2.1,1v5.5h-2.2
			L122.8,265.2z"/>
		<path class="st2" d="M133.9,271.5v-4.4h-1.4v-1.9h1.4v-2.3h2.2v2.3h1.7v1.9h-1.7v3.8c0,0.5,0.3,0.9,0.8,0.9c0.3,0,0.5-0.1,0.8-0.2
			l0.5,1.7c-0.5,0.4-1.2,0.6-1.8,0.5c-1.1,0.2-2.2-0.6-2.4-1.8C133.9,271.8,133.9,271.6,133.9,271.5z"/>
		<path class="st2" d="M139.3,265.2h2.2v1.1c0.7-0.8,1.6-1.3,2.7-1.3v2.1c-0.2,0-0.4-0.1-0.6-0.1c-0.8,0-1.5,0.4-2.1,1v5.5h-2.2
			V265.2z"/>
		<path class="st2" d="M145.3,262.6c0-0.7,0.6-1.3,1.3-1.3c0.7,0.1,1.3,0.7,1.2,1.4c-0.1,0.6-0.6,1.1-1.2,1.2
			C145.9,263.9,145.3,263.4,145.3,262.6z M145.6,265.2h2.2v8.4h-2.2V265.2z"/>
		<path class="st2" d="M149.9,276.7v-11.5h2.2v1c0.6-0.8,1.6-1.2,2.6-1.2c2.1,0,3.7,1.6,3.7,4.4s-1.6,4.4-3.7,4.4
			c-1,0-2-0.5-2.6-1.3v4.3L149.9,276.7z M154,266.9c-0.7,0-1.4,0.4-1.9,1v3c0.4,0.6,1.1,1,1.9,1c1.3-0.2,2.3-1.4,2.1-2.7
			C156,268,155.1,267.2,154,266.9L154,266.9z"/>
	</g>
</g>
</svg>
