<?xml version="1.0" encoding="utf-8"?>
<!-- Generator: Adobe Illustrator 25.4.1, SVG Export Plug-In . SVG Version: 6.00 Build 0)  -->
<svg version="1.1" id="Layer_1" xmlns="http://www.w3.org/2000/svg" xmlns:xlink="http://www.w3.org/1999/xlink" x="0px" y="0px"
	 viewBox="0 0 300 600" style="enable-background:new 0 0 300 600;" xml:space="preserve">
<style type="text/css">
	.st0{clip-path:url(#SVGID_00000180336163930977766520000003262094181709607048_);}
	.st1{fill:#FFFFFF;}
</style>
<g>
	<g>
		<g>
			<defs>
				<rect id="SVGID_1_" x="135.9" y="507" width="128.1" height="57"/>
			</defs>
			<clipPath id="SVGID_00000015326567162012985510000015826969663007891616_">
				<use xlink:href="#SVGID_1_"  style="overflow:visible;"/>
			</clipPath>
			<g style="clip-path:url(#SVGID_00000015326567162012985510000015826969663007891616_);">
				<path class="st1" d="M148.8,507.6h6.1v56h-6.1V507.6z M257.4,507.6h-7.1v56h7.5c4.2,0,6.3-2,6.3-6.2v-43.9
					C264.1,509.4,262.1,507.6,257.4,507.6 M258.4,555.9c0,1.3-0.4,1.9-1.4,1.9h-0.6v-44.5h0.6c1.1,0,1.4,0.4,1.4,2V555.9z
					 M135.9,563.7h6.1v-25l4.8-3.9v-7.4l-4.8,3.9v-18h4.8v-5.7h-11L135.9,563.7z M195.9,507.6h-7.2v56h7.5c4.2,0,6.3-2,6.3-6.2
					v-43.9C202.5,509.4,200.5,507.6,195.9,507.6 M196.8,555.9c0,1.3-0.4,1.9-1.4,1.9h-0.6v-44.5h0.6c1.1,0,1.4,0.4,1.4,2V555.9z
					 M164.2,507c-4.8,0-7.1,2.9-7.1,9.3V556c0,5.6,2.2,8,6.8,8c2.3,0.1,4.5-0.9,6-2.7c0.8-1,1.1-2.4,1.1-4.8V515
					C171,509.8,168.7,507.1,164.2,507 M165.3,556.5c0,1.4-0.3,1.9-1.1,1.9s-1.2-0.5-1.2-1.9V515c0-1.6,0.3-2,1.2-2s1.1,0.4,1.1,2.1
					V556.5z M242.8,540l-3.9-32.4h-6.4V558l-8.6-50.3h-1.7l-7.5,50.2h-3.7v-50.3h-6.3v56.1h14.9l3.6-30.4l4.8,30.4h10.2v-28.1
					l3.4,28.1h6.7v-56.1h-5.4L242.8,540z M184.3,537.5c1.4-0.8,2.4-2.9,2.4-5.1v-18.6c0-3.9-2.4-6.1-6.7-6.1h-6.9v56h6v-23.3h0.5
					c0.7,0,1.1,0.2,1.1,0.5v22.7h6.1v-20.9C186.9,539.8,186.1,538.3,184.3,537.5 M180.8,533.3c0,1.3-0.2,1.6-1,1.6
					c-0.2,0-0.5,0-0.7-0.1v-21.4h0.5c1,0,1.2,0.3,1.2,1.8L180.8,533.3z"/>
			</g>
		</g>
	</g>
</g>
</svg>
