<svg id="Layer_1" data-name="Layer 1" xmlns="http://www.w3.org/2000/svg" xmlns:xlink="http://www.w3.org/1999/xlink" viewBox="0 0 300 250"><defs><style>.cls-1{fill:none;}.cls-2{clip-path:url(#clip-path);}.cls-3{fill:#221e1f;}.cls-4{fill:#fff;}.cls-5{clip-path:url(#clip-path-2);}.cls-6{clip-path:url(#clip-path-4);}.cls-7{clip-path:url(#clip-path-5);}</style><clipPath id="clip-path"><rect class="cls-1" width="300" height="250"/></clipPath><clipPath id="clip-path-2"><rect class="cls-1" x="320" width="300" height="250"/></clipPath><clipPath id="clip-path-4"><rect class="cls-1" x="498.32" y="90.72" width="87.28" height="86.76"/></clipPath><clipPath id="clip-path-5"><rect class="cls-1" x="-32448" y="-32517" width="65535" height="65535"/></clipPath></defs><g class="cls-2"><path class="cls-3" d="M202,77.28V76.6a2.18,2.18,0,0,1-1.26-.52,1.55,1.55,0,0,1-.49-1.19l1,0a.9.9,0,0,0,.74.88V74.67l-.38-.06a1.31,1.31,0,0,1-1.25-1.33c0-.85.63-1.41,1.63-1.47v-.58h.55v.59a1.6,1.6,0,0,1,1.61,1.64l-1,0a.81.81,0,0,0-.63-.79v1l.33.06c.94.17,1.37.61,1.37,1.37a1.22,1.22,0,0,1-.48,1,2.25,2.25,0,0,1-1.22.41v.66Zm0-3.63v-1c-.38,0-.58.22-.58.53S201.66,73.58,202,73.65Zm.55,1.12v1c.39,0,.65-.22.65-.52S202.93,74.83,202.54,74.77Z"/><path class="cls-3" d="M212.3,76.84h1.26v1.87H212.3v2.07h-2.19V78.71H205.5v-2l4.11-5.15h2.69Zm-4.9,0h2.71V73.47Z"/><path class="cls-3" d="M214.06,78.27A2.24,2.24,0,0,1,215.81,76a2.09,2.09,0,0,1-1.45-2.11,2.17,2.17,0,0,1,1-1.88,4.82,4.82,0,0,1,5,0,2.17,2.17,0,0,1,1,1.88A2.09,2.09,0,0,1,219.82,76a2.24,2.24,0,0,1,1.75,2.25c0,1.65-1.39,2.69-3.76,2.69S214.06,79.92,214.06,78.27Zm2.25-.24c0,.81.56,1.25,1.5,1.25s1.51-.44,1.51-1.25-.55-1.22-1.51-1.22S216.31,77.25,216.31,78Zm.22-3.9a1.13,1.13,0,0,0,1.28,1.14c.78,0,1.31-.42,1.31-1.14A1.15,1.15,0,0,0,217.81,73,1.13,1.13,0,0,0,216.53,74.13Z"/><path class="cls-3" d="M222.34,78.49h2.3v2.29h-2.3Z"/><path class="cls-3" d="M232,73.47h-4.08c0,.21,0,.47-.09.81s-.09.59-.13.78a2.54,2.54,0,0,1,1.75-.56,3,3,0,0,1,2.41.93,3.27,3.27,0,0,1,.81,2.26,3.06,3.06,0,0,1-1,2.39,3.63,3.63,0,0,1-2.51.88c-2.4,0-3.71-1.34-3.64-3.44l2.15.16a1.47,1.47,0,1,0,2.93,0,1.39,1.39,0,0,0-1.43-1.51,1.47,1.47,0,0,0-1.35.72l-2.15-.16c.1-.64.23-1.46.37-2.5a25.9,25.9,0,0,0,.23-2.73H232Z"/><path class="cls-3" d="M240.38,79.71a4.22,4.22,0,0,1-6,0,6.2,6.2,0,0,1,0-7.11,4.2,4.2,0,0,1,6,0,6.2,6.2,0,0,1,0,7.11Zm-3-6.58c-1.24,0-1.77,1-1.77,3s.53,3,1.77,3,1.77-1,1.77-3S238.62,73.13,237.38,73.13Z"/><rect class="cls-4" x="192.45" y="47.84" width="59.51" height="16.55"/><path class="cls-3" d="M202.44,59.72a3.22,3.22,0,0,1-.3-1.44c0-.82-.42-1.08-1.15-1.08h-1.46v2.52h-1.72V52.46h3.5c1.88,0,2.81.89,2.81,2.27a1.78,1.78,0,0,1-1.57,1.86A1.47,1.47,0,0,1,203.84,58c.06.53.1.91.14,1.14a.88.88,0,0,0,.24.54ZM201,55.85c.91,0,1.36-.28,1.36-1s-.45-1-1.36-1h-1.51v2Z"/><path class="cls-3" d="M210.67,59.72h-5.61V52.46h5.51V53.9h-3.79v1.43h2.94v1.42h-2.94v1.53h3.89Z"/><path class="cls-3" d="M216.61,59.41a3.83,3.83,0,0,1-1.82.45,3.83,3.83,0,0,1-2.65-6.49,3.87,3.87,0,0,1,5.3,0,3.59,3.59,0,0,1,1.09,2.72,3.73,3.73,0,0,1-1,2.57l.62.73-1,.76Zm-1-1.19-.73-.86.93-.77.7.82a2.87,2.87,0,0,0,.27-1.32,2,2,0,1,0-2,2.26A2.18,2.18,0,0,0,215.58,58.22Z"/><path class="cls-3" d="M220.26,59.16a2.7,2.7,0,0,1-.94-2.3v-4.4h1.74v4.15c0,1.15.42,1.78,1.48,1.78s1.49-.61,1.49-1.77V52.46h1.74v4.4a2.72,2.72,0,0,1-.93,2.3,3.72,3.72,0,0,1-2.3.7A3.66,3.66,0,0,1,220.26,59.16Z"/><path class="cls-3" d="M232.49,59.72h-5.61V52.46h5.5V53.9H228.6v1.43h2.94v1.42H228.6v1.53h3.89Z"/><path class="cls-3" d="M234.67,57.08c.05,1,.83,1.41,1.72,1.41s1.25-.31,1.25-.78-.42-.6-1.06-.73l-1.36-.24a2.09,2.09,0,0,1-2-2.1c0-1.43,1.13-2.32,2.88-2.32,2,0,3.05,1,3.08,2.59L237.6,55a1.32,1.32,0,0,0-1.48-1.27c-.74,0-1.15.3-1.15.8s.33.56.85.67l1.36.24c1.48.26,2.17,1,2.17,2.19a1.9,1.9,0,0,1-.87,1.7,3.71,3.71,0,0,1-2.09.57,3.89,3.89,0,0,1-2.39-.7,2.36,2.36,0,0,1-.94-2Z"/><path class="cls-3" d="M242.18,59.72V53.9h-2.53V52.46h6.83V53.9h-2.56v5.82Z"/></g></svg>