<svg id="_Layer_" data-name="&lt;Layer&gt;" xmlns="http://www.w3.org/2000/svg" xmlns:xlink="http://www.w3.org/1999/xlink" viewBox="0 0 780 275"><defs><style>.cls-1{fill:none;}.cls-2{fill:#fff;}.cls-3{clip-path:url(#clip-path);}.cls-4{clip-path:url(#clip-path-2);}.cls-5{fill:#8cd600;}.cls-6{clip-path:url(#clip-path-3);}.cls-7{fill:#00b7c6;}</style><clipPath id="clip-path"><rect class="cls-1" y="-299.78" width="780" height="275"/></clipPath><clipPath id="clip-path-2"><rect class="cls-1" x="208.62" y="-299.78" width="571.38" height="275"/></clipPath><clipPath id="clip-path-3"><rect class="cls-1" x="130.52" y="-299.78" width="649.48" height="275"/></clipPath></defs><path class="cls-2" d="M47.88,72.72l3.35-2.27a5.24,5.24,0,0,0,4.4,2.82c1.77,0,3-.86,3-2.23,0-1.18-.74-1.73-2.64-3l-1-.66c-2.66-1.73-4-3.44-4-6.2,0-3.16,2.17-5.83,6.58-5.83A6.93,6.93,0,0,1,63.35,58l-3,2.6A3.47,3.47,0,0,0,57.4,59a1.94,1.94,0,0,0-2.17,2c0,1,.59,1.7,2.17,2.69l1,.66C61.24,66.17,63,67.69,63,70.73,63,74.92,59.79,77,55.63,77A8.72,8.72,0,0,1,47.88,72.72Z"/><path class="cls-2" d="M68.59,54.33h4.09l-2,11.44a4.68,4.68,0,0,1,4.18-2.54c2.89,0,4.62,2.45,4,6.17l-.62,3.47c-.09.56.09.78.56.78h.93l-.53,3.07H77.83c-2.82,0-4.22-1-3.69-4l.56-3.23c.31-1.77-.41-2.66-1.86-2.66-1.65,0-2.48.8-2.82,2.69l-1.28,7.17H64.65Z"/><path class="cls-2" d="M81.45,70.67c0-4.78,2.92-7.44,6.27-7.44A4.46,4.46,0,0,1,92,65.62l.28-2.11h4.1l-1.65,9.36c-.09.56.1.78.56.78h.93l-.53,3.07H94.1c-3,0-3.38-.78-3.59-1.83l0-.16A4.19,4.19,0,0,1,86.63,77C83.78,77,81.45,74.55,81.45,70.67Zm9.74-.81c0-1.86-.9-3.07-2.54-3.07-1.8,0-2.92,1.46-2.92,3.69,0,1.86.93,3,2.54,3S91.19,72,91.19,69.86Z"/><path class="cls-2" d="M101.51,76.72H97.42l3.94-22.39h4.09l-2,11.41a24.1,24.1,0,0,1-.74,3l5-5.24h4.65L107,69l1.92,3.88c.34.68.56.78,1,.78h1l-.53,3.07h-1.49c-2.33,0-2.91-.81-3.81-2.64l-1.31-2.64-1.58,1.4Z"/><path class="cls-2" d="M120.3,73.65a4.74,4.74,0,0,0,3.13-1.12l2.48,2.6A8.23,8.23,0,0,1,120.27,77c-4.81,0-7.48-2.91-7.48-6.79a6.79,6.79,0,0,1,7.1-7c4.69,0,6.73,3,7,7.41l-9.8,1C117.48,73,118.56,73.65,120.3,73.65Zm2.08-4.84a2.27,2.27,0,0,0-2.45-2.33c-1.74,0-2.83.93-3,2.92Z"/><path class="cls-2" d="M135.36,72.9,137,63.51h4.1l-1.65,9.36c-.09.56.1.78.56.78h.93l-.52,3.07h-1.55C135.89,76.72,134.8,76,135.36,72.9Zm2-14.23a2.46,2.46,0,0,1,2.51-2.51,2.53,2.53,0,1,1-2.51,2.51Z"/><path class="cls-2" d="M143.64,66.89l.59-3.38h1.92l1.21-6.89h4.06l-1.21,6.89h3.2l-.59,3.38h-3.2l-.87,5c-.24,1.33.13,1.64.78,1.64a2.84,2.84,0,0,0,1.43-.46l1.3,2.88a5.15,5.15,0,0,1-3.44,1c-2.61,0-4.84-1.17-4.13-5.24l.87-4.86Z"/><path class="cls-2" d="M161.18,70.82l1.28-7.31h4.12l-1.27,7.19c-.31,1.77.4,2.67,1.86,2.67,1.64,0,2.48-.81,2.82-2.7l1.27-7.16h4.09l-1.64,9.36c-.09.56.09.78.56.78h.93l-.53,3.07h-1.55c-3,0-3.44-.81-3.59-1.9l0-.21A4.85,4.85,0,0,1,165.15,77C162.27,77,160.53,74.55,161.18,70.82Z"/><path class="cls-2" d="M178.89,63.51H183l-.44,1.92a4.66,4.66,0,0,1,3.88-2.2c3,0,5.33,2.45,5.33,6.32,0,4.59-2.94,7.44-6.26,7.44a4.65,4.65,0,0,1-4.43-2.57l-1.55,8.87h-4.1Zm8.58,6.26c0-1.86-1-3-2.69-3-1.83,0-3.07,1.49-3.07,3.6,0,1.86,1,3.07,2.7,3.07C186.3,73.46,187.47,72,187.47,69.77Z"/><path class="cls-2" d="M200.09,70.67c0-4.78,2.91-7.44,6.26-7.44a4.46,4.46,0,0,1,4.25,2.39l.28-2.11H215l-1.64,9.36c-.09.56.09.78.56.78h.93l-.53,3.07h-1.55c-3,0-3.38-.78-3.6-1.83l0-.16A4.17,4.17,0,0,1,205.27,77C202.41,77,200.09,74.55,200.09,70.67Zm9.73-.81c0-1.86-.89-3.07-2.54-3.07-1.8,0-2.91,1.46-2.91,3.69,0,1.86.93,3,2.54,3S209.82,72,209.82,69.86Z"/><path class="cls-2" d="M223.28,72.9l3.25-18.57h4.09l-3.25,18.54c-.09.56.09.78.56.78h1.18l-.53,3.07h-1.8C223.8,76.72,222.72,76,223.28,72.9Z"/><path class="cls-2" d="M231.34,72.9,233,63.51h4.09l-1.64,9.36c-.09.56.09.78.56.78h.93l-.53,3.07h-1.55C231.86,76.72,230.78,76,231.34,72.9Zm2-14.23a2.46,2.46,0,0,1,2.51-2.51,2.53,2.53,0,1,1-2.51,2.51Z"/><path class="cls-2" d="M239.61,66.89l.59-3.38h1.92l1.21-6.89h4.07l-1.21,6.89h3.19l-.59,3.38H245.6l-.87,5c-.25,1.33.12,1.64.77,1.64a2.84,2.84,0,0,0,1.43-.46l1.3,2.88a5.15,5.15,0,0,1-3.44,1c-2.6,0-4.83-1.17-4.12-5.24l.87-4.86Z"/><path class="cls-2" d="M250.84,66.89l.58-3.38h1.93l1.21-6.89h4.06l-1.21,6.89h3.19L260,66.89h-3.19l-.87,5c-.25,1.33.13,1.64.78,1.64a2.8,2.8,0,0,0,1.42-.46l1.31,2.88A5.2,5.2,0,0,1,256,77c-2.6,0-4.83-1.17-4.12-5.24l.87-4.86Z"/><path class="cls-2" d="M262,72.9l3.25-18.57h4.09l-3.25,18.54c-.09.56.09.78.56.78h1.17l-.52,3.07h-1.8C262.52,76.72,261.44,76,262,72.9Z"/><path class="cls-2" d="M277.65,73.65a4.74,4.74,0,0,0,3.13-1.12l2.48,2.6A8.21,8.21,0,0,1,277.62,77c-4.81,0-7.47-2.91-7.47-6.79a6.79,6.79,0,0,1,7.1-7c4.68,0,6.73,3,6.94,7.41l-9.79,1C274.83,73,275.91,73.65,277.65,73.65Zm2.08-4.84a2.27,2.27,0,0,0-2.45-2.33c-1.74,0-2.82.93-3,2.92Z"/><path class="cls-2" d="M285.52,74.33a2.52,2.52,0,1,1,5,0,2.52,2.52,0,1,1-5,0Z"/><path class="cls-2" d="M50.33,146.25h3.42l1.08,6.35c.21,1.28.36,3.3.36,3.3a23.55,23.55,0,0,1,1.54-3.08L61,146.1h.34l1.78,6.52c.33,1.21.67,3.28.67,3.28a27.34,27.34,0,0,1,1.27-3.08l3.47-6.57h3.37l-8.81,16.51h-.31l-2.12-7.7a26.26,26.26,0,0,1-.5-2.84,26,26,0,0,1-1.38,2.64l-5.05,7.9h-.31Z"/><path class="cls-2" d="M73.77,145.24H77l-1.57,8.88a3.65,3.65,0,0,1,3.25-2c2.24,0,3.59,1.9,3.08,4.79l-.48,2.7c-.07.43.07.6.44.6h.72L82,162.61h-1c-2.19,0-3.27-.75-2.86-3.08l.43-2.5c.24-1.37-.31-2.07-1.44-2.07s-1.93.62-2.19,2.09l-1,5.56H70.72Z"/><path class="cls-2" d="M89.66,160.23a3.69,3.69,0,0,0,2.43-.87l1.92,2a6.34,6.34,0,0,1-4.38,1.45c-3.73,0-5.8-2.26-5.8-5.27a5.27,5.27,0,0,1,5.51-5.42c3.64,0,5.23,2.36,5.39,5.75l-7.6.82A2.36,2.36,0,0,0,89.66,160.23Zm1.61-3.75a1.76,1.76,0,0,0-1.9-1.81A2.2,2.2,0,0,0,87,156.93Z"/><path class="cls-2" d="M97.55,152.36h3.18l-.41,2c1-1.75,2.05-2.19,3.15-2.19a2.89,2.89,0,0,1,1.54.41l-1.2,2.91a2.4,2.4,0,0,0-1.32-.33c-1.4,0-2.36.57-2.77,2.93l-.79,4.55H95.75Z"/><path class="cls-2" d="M111.18,160.23a3.69,3.69,0,0,0,2.43-.87l1.92,2a6.34,6.34,0,0,1-4.38,1.45c-3.73,0-5.8-2.26-5.8-5.27a5.27,5.27,0,0,1,5.51-5.42c3.64,0,5.23,2.36,5.39,5.75l-7.6.82A2.36,2.36,0,0,0,111.18,160.23Zm1.61-3.75a1.76,1.76,0,0,0-1.9-1.81,2.2,2.2,0,0,0-2.36,2.26Z"/><path class="cls-2" d="M128.65,149.14h-4.59l.5-2.89H137l-.51,2.89H132l-2.38,13.47h-3.32Z"/><path class="cls-2" d="M133.88,157.63a5.4,5.4,0,0,1,5.7-5.49,5.17,5.17,0,0,1,5.41,5.22,5.38,5.38,0,0,1-5.7,5.47A5.2,5.2,0,0,1,133.88,157.63Zm7.84-.29a2.19,2.19,0,0,0-2.24-2.45c-1.44,0-2.33,1.13-2.33,2.79a2.2,2.2,0,0,0,2.24,2.45C140.83,160.13,141.72,159,141.72,157.34Z"/><path class="cls-2" d="M148,152.36h3.18L150.8,154a3.45,3.45,0,0,1,3.15-1.88,2.74,2.74,0,0,1,2.69,1.93,3.94,3.94,0,0,1,3.54-1.93c2.26,0,3.49,1.9,3,4.79l-.49,2.7c-.07.43.08.6.44.6h.72l-.41,2.38h-1.2c-2.31,0-3.15-.53-2.72-3L160,157c.25-1.37-.12-2.07-1.17-2.07-1.21,0-1.76.62-2,2.09l-1,5.56H152.6l1-5.58c.24-1.37-.12-2.07-1.2-2.07s-1.79.62-2,2.09l-1,5.56h-3.17Z"/><path class="cls-2" d="M165.26,157.63a5.41,5.41,0,0,1,5.71-5.49,5.17,5.17,0,0,1,5.41,5.22,5.39,5.39,0,0,1-5.7,5.47A5.2,5.2,0,0,1,165.26,157.63Zm7.85-.29a2.2,2.2,0,0,0-2.24-2.45c-1.44,0-2.33,1.13-2.33,2.79a2.19,2.19,0,0,0,2.23,2.45C172.22,160.13,173.11,159,173.11,157.34Z"/><path class="cls-2" d="M179.37,152.36h3.17l-.4,2c1-1.75,2-2.19,3.15-2.19a3,3,0,0,1,1.54.41l-1.21,2.91a2.38,2.38,0,0,0-1.32-.33c-1.39,0-2.36.57-2.77,2.93l-.79,4.55h-3.18Z"/><path class="cls-2" d="M188.49,152.36h3.18l-.41,2c1-1.75,2-2.19,3.15-2.19a2.92,2.92,0,0,1,1.54.41l-1.2,2.91a2.44,2.44,0,0,0-1.33-.33c-1.39,0-2.35.57-2.76,2.93l-.8,4.55h-3.17Z"/><path class="cls-2" d="M196.27,157.63a5.4,5.4,0,0,1,5.7-5.49,5.17,5.17,0,0,1,5.41,5.22,5.38,5.38,0,0,1-5.7,5.47A5.2,5.2,0,0,1,196.27,157.63Zm7.84-.29a2.19,2.19,0,0,0-2.24-2.45c-1.44,0-2.33,1.13-2.33,2.79a2.2,2.2,0,0,0,2.24,2.45C203.22,160.13,204.11,159,204.11,157.34Z"/><path class="cls-2" d="M208.37,152.36h3.32l.87,2.94c.24.86.48,2.19.48,2.19a19.66,19.66,0,0,1,1.11-2.19l2-3.2h.24l1.32,3.2a12.8,12.8,0,0,1,.63,2.19s.58-1.38,1-2.19l1.54-2.94h3.27l-6,10.52H218l-1.64-4.1a14.64,14.64,0,0,1-.52-2,10.78,10.78,0,0,1-.92,1.88L212,162.88h-.27Z"/><path class="cls-2" d="M223.56,160.71l2.19-1.54a2.49,2.49,0,0,0,2.26,1.18c1,0,1.23-.29,1.23-.63s-.41-.48-1.92-1.18-2.34-1.49-2.34-3.1c0-2.14,1.64-3.3,3.85-3.3a4.6,4.6,0,0,1,3.59,1.52l-2.07,1.73a1.79,1.79,0,0,0-1.52-.82c-.55,0-.94.24-.94.63s.41.58,1.47,1c1.73.75,2.89,1.42,2.89,3.37s-1.45,3.23-4.31,3.23A5,5,0,0,1,223.56,160.71Z"/><path class="cls-2" d="M239.16,157.92c0-3.71,2.26-5.78,4.86-5.78a3.47,3.47,0,0,1,3.3,1.86l.21-1.64h3.18l-1.28,7.27c-.07.43.08.6.44.6h.72l-.41,2.38H249c-2.31,0-2.63-.6-2.79-1.42l0-.12a3.24,3.24,0,0,1-3,1.76C241,162.83,239.16,160.93,239.16,157.92Zm7.55-.63c0-1.44-.69-2.38-2-2.38s-2.26,1.13-2.26,2.86c0,1.45.72,2.31,2,2.31S246.71,158.93,246.71,157.29Z"/><path class="cls-2" d="M253.36,152.36h3.18l-.41,2c1-1.75,2-2.19,3.15-2.19a2.92,2.92,0,0,1,1.54.41l-1.2,2.91a2.44,2.44,0,0,0-1.33-.33c-1.39,0-2.35.57-2.76,2.93l-.8,4.55h-3.17Z"/><path class="cls-2" d="M267,160.23a3.65,3.65,0,0,0,2.43-.87l1.93,2a6.38,6.38,0,0,1-4.38,1.45c-3.73,0-5.8-2.26-5.8-5.27a5.27,5.27,0,0,1,5.51-5.42c3.63,0,5.22,2.36,5.39,5.75l-7.6.82A2.35,2.35,0,0,0,267,160.23Zm1.62-3.75a1.77,1.77,0,0,0-1.91-1.81,2.2,2.2,0,0,0-2.35,2.26Z"/><path class="cls-2" d="M281.33,146.08h.24l6.14,8.9,9.53-8.9h.28l-2.91,16.53h-3.15l1.08-6.13c.2-1.11.65-3,.65-3a20.73,20.73,0,0,1-2.07,2.43l-3.82,3.64H287l-2.55-3.64c-.65-.91-1.47-2.43-1.47-2.43s-.16,1.88-.36,3l-1.08,6.13h-3.15Z"/><path class="cls-2" d="M297.7,157.92c0-3.71,2.26-5.78,4.86-5.78a3.47,3.47,0,0,1,3.3,1.86l.21-1.64h3.18L308,159.63c-.07.43.08.6.44.6h.72l-.41,2.38h-1.2c-2.31,0-2.63-.6-2.79-1.42l0-.12a3.24,3.24,0,0,1-3,1.76C299.5,162.83,297.7,160.93,297.7,157.92Zm7.55-.63c0-1.44-.69-2.38-2-2.38S301,156,301,157.77c0,1.45.72,2.31,2,2.31S305.25,158.93,305.25,157.29Z"/><path class="cls-2" d="M310.5,157.92c0-3.71,2.32-5.78,5-5.78a3.64,3.64,0,0,1,3.36,1.74l1.52-8.64h3.18L321,159.63c-.07.43.07.6.43.6h.73l-.41,2.38h-1.21c-2.31,0-2.67-.62-2.79-1.47l0-.17a3.32,3.32,0,0,1-3.11,1.86C312.36,162.83,310.5,160.93,310.5,157.92Zm7.8-.63c0-1.44-.77-2.38-2.09-2.38s-2.38,1.13-2.38,2.86a2,2,0,0,0,2.09,2.31C317.34,160.08,318.3,158.93,318.3,157.29Z"/><path class="cls-2" d="M329.69,160.23a3.69,3.69,0,0,0,2.43-.87l1.92,2a6.34,6.34,0,0,1-4.38,1.45c-3.73,0-5.8-2.26-5.8-5.27a5.27,5.27,0,0,1,5.51-5.42c3.64,0,5.23,2.36,5.39,5.75l-7.6.82A2.36,2.36,0,0,0,329.69,160.23Zm1.61-3.75a1.76,1.76,0,0,0-1.9-1.81,2.2,2.2,0,0,0-2.36,2.26Z"/><path class="cls-2" d="M335.8,160.76a2,2,0,1,1,1.95,2A2,2,0,0,1,335.8,160.76Z"/><path class="cls-2" d="M48.35,128.56l2.1-1.16a4,4,0,0,0,3.75,2.29c1.66,0,2.84-.89,2.84-2.24s-1-2-2.74-2.84l-1.08-.48c-2.39-1.06-3.83-2.26-3.83-4.79s1.88-4.16,4.6-4.16a4.82,4.82,0,0,1,4.62,2.57l-2,1.23A2.73,2.73,0,0,0,54,117.39a1.91,1.91,0,0,0-2.12,1.9c0,1.23.7,1.78,2.36,2.5l1.06.49c2.79,1.22,4.28,2.52,4.28,5.14,0,2.87-2.24,4.53-5.32,4.53A6.19,6.19,0,0,1,48.35,128.56Z"/><path class="cls-2" d="M62.63,128.32v-4.65H61.11v-2h1.52v-5.27h2.43v5.27h2.69v2H65.06v4.69c0,1.16.38,1.5,1,1.5a1.76,1.76,0,0,0,1.2-.49L68.43,131a3.59,3.59,0,0,1-2.6,1C63.93,132,62.63,131,62.63,128.32Z"/><path class="cls-2" d="M74.45,123.43a3.31,3.31,0,0,0-2.65,1.2l-1.4-1.42a5,5,0,0,1,4.24-1.8c2.43,0,4.26,1.37,4.26,4.35v6H76.47l.07-1.44A3.51,3.51,0,0,1,73.36,132c-2,0-3.63-.94-3.63-3.2,0-2.1,1.68-3,4-3h2.77C76.47,124.1,75.74,123.43,74.45,123.43Zm-.58,4c-1.06,0-1.76.39-1.76,1.28S72.79,130,74,130c1.42,0,2.43-.7,2.43-1.8v-.8Z"/><path class="cls-2" d="M84.41,130.82l-4.14-9.19H83l2.11,5.05a11.84,11.84,0,0,1,.58,2.09,11.11,11.11,0,0,1,.56-2.09l2.16-5.05h2.53l-6.62,15.2h-2.5Z"/><path class="cls-2" d="M97,129.86l1.66-1.16a3.12,3.12,0,0,0,2.72,1.3c1.22,0,1.78-.41,1.78-1.08s-.75-.94-2.46-1.42c-1.49-.41-3-1.11-3-3.11s1.61-3,3.61-3a4.56,4.56,0,0,1,3.51,1.52l-1.42,1.39a2.74,2.74,0,0,0-2.09-1c-.92,0-1.42.34-1.42.94,0,.77.62.94,2.21,1.35s3.32,1,3.32,3.18c0,1.73-1.06,3.15-3.92,3.15A5.16,5.16,0,0,1,97,129.86Z"/><path class="cls-2" d="M111.73,123.43a3.34,3.34,0,0,0-2.65,1.2l-1.39-1.42a5,5,0,0,1,4.23-1.8c2.43,0,4.26,1.37,4.26,4.35v6h-2.43l.07-1.44a3.49,3.49,0,0,1-3.17,1.66c-2,0-3.64-.94-3.64-3.2,0-2.1,1.69-3,4-3h2.77C113.75,124.1,113,123.43,111.73,123.43Zm-.58,4c-1.06,0-1.75.39-1.75,1.28s.67,1.32,1.92,1.32c1.42,0,2.43-.7,2.43-1.8v-.8Z"/><path class="cls-2" d="M119.72,123.67h-1.66v-2h1.66v-4c0-2.43,1.18-3.58,3.25-3.58a3.42,3.42,0,0,1,2.86,1.25l-1.44,1.54a1.42,1.42,0,0,0-1.18-.6c-.62,0-1.06.36-1.06,1.37v4h2.72v2h-2.72v8.06h-2.43Z"/><path class="cls-2" d="M131.88,129.9a4.1,4.1,0,0,0,2.86-1.08l1.42,1.49A5.67,5.67,0,0,1,131.9,132c-3.47,0-5.7-2.24-5.7-5.27a5.23,5.23,0,0,1,5.39-5.27c3.44,0,5.39,2.55,5.22,6.09h-8.14A2.92,2.92,0,0,0,131.88,129.9Zm2.47-4.09a2.57,2.57,0,0,0-2.74-2.38,2.79,2.79,0,0,0-2.94,2.38Z"/><path class="cls-2" d="M138.4,130.22a1.65,1.65,0,0,1,3.3,0,1.65,1.65,0,1,1-3.3,0Z"/><path class="cls-2" d="M153.39,117.61h-4.86v-2.24h12.25v2.24h-4.86v14.12h-2.53Z"/><path class="cls-2" d="M159.87,127.64v-6h2.43v5.82c0,1.44.67,2.29,2.09,2.29a2.41,2.41,0,0,0,2.58-2.63v-5.48h2.43v10.1H167l.05-1.85a3.63,3.63,0,0,1-3.4,2.07C161.41,132,159.87,130.38,159.87,127.64Z"/><path class="cls-2" d="M172.24,121.63h2.46l-.08,1.87a3.84,3.84,0,0,1,3.59-2.09c2.6,0,4.69,2.19,4.69,5.24s-2.12,5.3-4.74,5.3A3.71,3.71,0,0,1,174.7,130v6.83h-2.46Zm8.16,5a2.81,2.81,0,0,0-2.86-3.08,3.13,3.13,0,0,0,0,6.24C179.29,129.81,180.4,128.56,180.4,126.65Z"/><path class="cls-2" d="M190.44,129.9a4.1,4.1,0,0,0,2.86-1.08l1.42,1.49a5.67,5.67,0,0,1-4.26,1.64c-3.46,0-5.7-2.24-5.7-5.27a5.24,5.24,0,0,1,5.39-5.27c3.44,0,5.39,2.55,5.22,6.09h-8.13A2.91,2.91,0,0,0,190.44,129.9Zm2.48-4.09a2.58,2.58,0,0,0-2.75-2.38,2.77,2.77,0,0,0-2.93,2.38Z"/><path class="cls-2" d="M197.8,114.36h2.43v17.37H197.8Z"/><path class="cls-2" d="M202.67,126.68a5.45,5.45,0,1,1,5.46,5.27A5.28,5.28,0,0,1,202.67,126.68Zm8.39,0a3,3,0,1,0-5.89,0,3,3,0,1,0,5.89,0Z"/><path class="cls-2" d="M216.07,131.68a1.55,1.55,0,0,1-1-1.49,1.65,1.65,0,0,1,3.3,0,3,3,0,0,1-.51,1.49l-1.42,2.77h-1.27Z"/><path class="cls-2" d="M226.42,115.2h.27l7.82,9.14,7.75-9.14h.26v16.53h-2.43v-8.49c0-.92.1-2.36.1-2.36a19.39,19.39,0,0,1-1.47,2l-4.12,5h-.28l-4.12-5c-.62-.74-1.44-2-1.44-2s.09,1.44.09,2.36v8.49h-2.43Z"/><path class="cls-2" d="M244.76,128.56l2.1-1.16a4,4,0,0,0,3.75,2.29c1.66,0,2.84-.89,2.84-2.24s-1-2-2.74-2.84l-1.08-.48c-2.39-1.06-3.83-2.26-3.83-4.79s1.88-4.16,4.6-4.16a4.82,4.82,0,0,1,4.62,2.57L253,119a2.73,2.73,0,0,0-2.62-1.59,1.91,1.91,0,0,0-2.12,1.9c0,1.23.7,1.78,2.36,2.5l1.06.49c2.79,1.22,4.28,2.52,4.28,5.14,0,2.87-2.24,4.53-5.32,4.53A6.19,6.19,0,0,1,244.76,128.56Z"/><path class="cls-2" d="M258,130.22a1.65,1.65,0,0,1,3.3,0,1.65,1.65,0,1,1-3.3,0Z"/><path class="cls-2" d="M49.2,205.75l.34-1.92H51l.48-1.85h2l-.48,1.85h1.35l.48-1.85h2l-.47,1.85h1.1L57,205.75H55.75l-.36,1.46h1.33l-.34,1.92H54.92l-.48,1.92h-2l.48-1.92H51.61l-.47,1.92h-2l.47-1.92H48.59l.34-1.92h1.2l.36-1.46Zm3.25,0-.36,1.46h1.34l.37-1.46Z"/><path class="cls-2" d="M58.83,200.83h2.64l1.31,4.84a31,31,0,0,1,.57,3.27s.82-2,1.48-3.14l2.87-5h2.7l-7.62,13h-.26Z"/><path class="cls-2" d="M69.6,211.41l1-5.76h2.51l-1,5.74c-.06.34.06.47.34.47H73l-.32,1.88h-1C69.93,213.74,69.26,213.33,69.6,211.41Zm1.24-8.72a1.51,1.51,0,0,1,1.54-1.54A1.53,1.53,0,0,1,74,202.69a1.56,1.56,0,0,1-3.11,0Z"/><path class="cls-2" d="M73.8,212.24,75.53,211a2,2,0,0,0,1.79.93c.76,0,1-.23,1-.5s-.33-.38-1.52-.93a2.58,2.58,0,0,1-1.85-2.45c0-1.69,1.3-2.6,3-2.6a3.58,3.58,0,0,1,2.83,1.2L79.16,208a1.39,1.39,0,0,0-1.2-.64c-.43,0-.74.19-.74.49s.33.46,1.16.82c1.37.59,2.28,1.12,2.28,2.66s-1.14,2.54-3.4,2.54A3.91,3.91,0,0,1,73.8,212.24Z"/><path class="cls-2" d="M82.39,211.41l1-5.76h2.51l-1,5.74c-.06.34.06.47.34.47h.57l-.32,1.88h-.95C82.71,213.74,82.05,213.33,82.39,211.41Zm1.24-8.72a1.51,1.51,0,0,1,1.53-1.54,1.53,1.53,0,0,1,1.58,1.54,1.56,1.56,0,0,1-3.11,0Z"/><path class="cls-2" d="M87.46,207.72l.36-2.07H89l.74-4.22h2.49l-.74,4.22h2l-.36,2.07h-2l-.53,3.06c-.15.82.07,1,.47,1a1.75,1.75,0,0,0,.88-.29l.79,1.77a3.15,3.15,0,0,1-2.1.64c-1.6,0-3-.72-2.53-3.21l.53-3Z"/><path class="cls-2" d="M96.3,200.69h.19l4.84,7,7.53-7h.22l-2.3,13.05H104.3l.85-4.84c.15-.87.51-2.36.51-2.36a16.88,16.88,0,0,1-1.63,1.92l-3,2.87h-.21l-2-2.87a21.05,21.05,0,0,1-1.16-1.92s-.13,1.49-.29,2.36l-.85,4.84H94Z"/><path class="cls-2" d="M108.8,211.29l2-1.38a3.24,3.24,0,0,0,2.7,1.72c1.08,0,1.84-.53,1.84-1.36s-.45-1.07-1.61-1.83l-.61-.4c-1.63-1.06-2.43-2.1-2.43-3.8,0-1.93,1.33-3.57,4-3.57a4.24,4.24,0,0,1,3.51,1.62l-1.86,1.59a2.15,2.15,0,0,0-1.79-1,1.18,1.18,0,0,0-1.33,1.21c0,.65.36,1.05,1.33,1.65l.63.4c1.73,1.1,2.79,2,2.79,3.9,0,2.56-2,3.83-4.5,3.83A5.34,5.34,0,0,1,108.8,211.29Z"/><path class="cls-2" d="M128.92,213.74h-2.74l-1.71-3.23a5.52,5.52,0,0,1-.58,0h-1.33l-.57,3.21h-2.61l2.28-12.91h2.87c3.33,0,5.28,1.69,5.28,4.59a4.47,4.47,0,0,1-2.94,4.45Zm-5-5.45c2,0,3.21-.89,3.21-2.87,0-1.69-1-2.33-2.86-2.33h-.42l-.91,5.2Z"/><path class="cls-2" d="M135.21,211.86a3,3,0,0,0,1.92-.68l1.52,1.6a5.06,5.06,0,0,1-3.46,1.13c-2.94,0-4.58-1.78-4.58-4.16a4.16,4.16,0,0,1,4.35-4.27c2.87,0,4.13,1.86,4.26,4.54l-6,.65A1.85,1.85,0,0,0,135.21,211.86Zm1.27-3a1.39,1.39,0,0,0-1.5-1.43,1.74,1.74,0,0,0-1.86,1.79Z"/><path class="cls-2" d="M139.79,212.24l1.73-1.21a2,2,0,0,0,1.78.93c.76,0,1-.23,1-.5s-.32-.38-1.52-.93a2.58,2.58,0,0,1-1.84-2.45c0-1.69,1.29-2.6,3-2.6a3.61,3.61,0,0,1,2.83,1.2L145.15,208a1.4,1.4,0,0,0-1.2-.64c-.44,0-.74.19-.74.49s.32.46,1.16.82c1.37.59,2.28,1.12,2.28,2.66s-1.14,2.54-3.4,2.54A3.89,3.89,0,0,1,139.79,212.24Z"/><path class="cls-2" d="M149.29,205.65h2.51l-.27,1.18a2.84,2.84,0,0,1,2.38-1.35c1.82,0,3.26,1.5,3.26,3.88,0,2.81-1.8,4.55-3.83,4.55a2.86,2.86,0,0,1-2.72-1.57l-1,5.43h-2.51Zm5.26,3.84a1.61,1.61,0,0,0-1.65-1.83,2,2,0,0,0-1.88,2.21c0,1.14.61,1.88,1.65,1.88S154.55,210.86,154.55,209.49Z"/><path class="cls-2" d="M158.41,209.81a4.26,4.26,0,0,1,4.5-4.33,4.09,4.09,0,0,1,4.28,4.12,4.26,4.26,0,0,1-4.51,4.31A4.1,4.1,0,0,1,158.41,209.81Zm6.19-.23a1.73,1.73,0,0,0-1.76-1.93c-1.14,0-1.85.89-1.85,2.2a1.74,1.74,0,0,0,1.77,1.94C163.9,211.79,164.6,210.89,164.6,209.58Z"/><path class="cls-2" d="M169.54,205.65h2.51l-.3,1.46a2.92,2.92,0,0,1,2.62-1.63c1.77,0,2.83,1.5,2.43,3.78l-.38,2.13c-.06.34.06.47.34.47h.57l-.32,1.88h-.95c-1.82,0-2.49-.41-2.15-2.33l.36-2.07c.19-1.09-.24-1.64-1.14-1.64s-1.52.5-1.73,1.66l-.77,4.38h-2.51Z"/><path class="cls-2" d="M178.06,212.24l1.72-1.21a2,2,0,0,0,1.79.93c.76,0,1-.23,1-.5s-.32-.38-1.52-.93a2.58,2.58,0,0,1-1.84-2.45c0-1.69,1.29-2.6,3-2.6a3.61,3.61,0,0,1,2.83,1.2L183.41,208a1.38,1.38,0,0,0-1.19-.64c-.44,0-.75.19-.75.49s.33.46,1.16.82c1.37.59,2.28,1.12,2.28,2.66s-1.14,2.54-3.4,2.54A3.88,3.88,0,0,1,178.06,212.24Z"/><path class="cls-2" d="M186.64,211.41l1-5.76h2.51l-1,5.74c-.06.34.06.47.34.47h.57l-.32,1.88h-1C187,213.74,186.3,213.33,186.64,211.41Zm1.24-8.72a1.51,1.51,0,0,1,1.54-1.54,1.53,1.53,0,0,1,1.57,1.54,1.56,1.56,0,0,1-3.11,0Z"/><path class="cls-2" d="M194,212.24l-.19,1.5h-2.51L193.67,200h2.51l-1.18,6.7a2.76,2.76,0,0,1,2.3-1.25c1.82,0,3.27,1.5,3.27,3.88,0,2.81-1.81,4.55-3.84,4.55A2.89,2.89,0,0,1,194,212.24Zm4-2.75a1.62,1.62,0,0,0-1.66-1.83,2,2,0,0,0-1.88,2.21c0,1.14.61,1.88,1.66,1.88S198,210.86,198,209.49Z"/><path class="cls-2" d="M202,211.41,204,200h2.51l-2,11.36c-.05.34.06.47.35.47h.72l-.32,1.88H204.1C202.28,213.74,201.61,213.33,202,211.41Z"/><path class="cls-2" d="M206.06,216.4l1.65-1.59a2.53,2.53,0,0,0,2.09,1,2,2,0,0,0,2.09-1.94l.23-1.25a2.91,2.91,0,0,1-2.51,1.25c-1.76,0-2.83-1.5-2.43-3.78l.78-4.48h2.53l-.78,4.41c-.19,1.08.25,1.63,1.14,1.63s1.52-.49,1.73-1.65l.78-4.39h2.5l-1.5,8.55c-.47,2.68-2.24,3.76-4.63,3.76A4.49,4.49,0,0,1,206.06,216.4Z"/><g class="cls-3"><image width="4896" height="3264" transform="translate(-155.64 -393.78) scale(0.12)" xlink:href="../Links/AF3A0004.jpg"/></g><g class="cls-4"><polygon class="cls-5" points="882 -453.78 155.82 -453.78 882 297.52 882 -453.78"/></g><g class="cls-6"><polygon class="cls-7" points="870.88 198.52 9.52 198.52 870.88 -692.64 870.88 198.52"/></g></svg>