<svg id="_Layer_" data-name="&lt;Layer&gt;" xmlns="http://www.w3.org/2000/svg" xmlns:xlink="http://www.w3.org/1999/xlink" viewBox="0 0 780 275"><defs><style>.cls-1{fill:none;}.cls-2{fill:#fff;}.cls-3{clip-path:url(#clip-path);}.cls-4{clip-path:url(#clip-path-2);}.cls-5{fill:#8cd600;}.cls-6{clip-path:url(#clip-path-3);}.cls-7{fill:#00b7c6;}</style><clipPath id="clip-path"><rect class="cls-1" y="302.86" width="780" height="275"/></clipPath><clipPath id="clip-path-2"><rect class="cls-1" x="208.62" y="302.86" width="571.38" height="275"/></clipPath><clipPath id="clip-path-3"><rect class="cls-1" x="130.52" y="302.86" width="649.48" height="275"/></clipPath></defs><path class="cls-2" d="M390.44,165.14c0-4.78,2.91-7.45,6.26-7.45a4.48,4.48,0,0,1,4.25,2.39l.28-2.11h4.09l-1.64,9.37c-.09.55.09.77.56.77h.93l-.53,3.07h-1.55c-3,0-3.38-.77-3.6-1.83l0-.15a4.17,4.17,0,0,1-3.84,2.26C392.76,171.46,390.44,169,390.44,165.14Zm9.73-.81c0-1.86-.9-3.07-2.54-3.07-1.8,0-2.91,1.46-2.91,3.69,0,1.86.93,3,2.54,3S400.17,166.44,400.17,164.33Z"/><path class="cls-2" d="M408.73,158h4.09l-.49,2.39a4.76,4.76,0,0,1,4.27-2.67c2.89,0,4.62,2.45,4,6.17l-.62,3.48c-.09.55.1.77.56.77h.93l-.53,3.07h-1.55c-3,0-4.06-.68-3.5-3.81l.59-3.38c.31-1.77-.4-2.67-1.86-2.67-1.64,0-2.48.81-2.82,2.7l-1.27,7.16h-4.1Z"/><path class="cls-2" d="M423.21,165.14c0-4.78,3-7.45,6.41-7.45a4.7,4.7,0,0,1,4.34,2.24l2-11.13H440l-3.25,18.54c-.1.55.09.77.55.77h.93l-.52,3.07h-1.55c-3,0-3.45-.8-3.6-1.89l0-.22a4.28,4.28,0,0,1-4,2.39C425.59,171.46,423.21,169,423.21,165.14Zm10-.81c0-1.86-1-3.07-2.7-3.07-1.89,0-3.07,1.46-3.07,3.69,0,1.86,1,3,2.7,3C432,167.93,433.25,166.44,433.25,164.33Z"/><path class="cls-2" d="M445.49,168.73l2.82-2a3.24,3.24,0,0,0,2.92,1.52c1.24,0,1.58-.38,1.58-.81s-.53-.62-2.48-1.52-3-1.92-3-4c0-2.76,2.11-4.25,5-4.25a5.9,5.9,0,0,1,4.62,2l-2.66,2.23a2.28,2.28,0,0,0-2-1c-.71,0-1.21.31-1.21.8s.53.75,1.9,1.33c2.23,1,3.72,1.84,3.72,4.35s-1.86,4.15-5.55,4.15A6.39,6.39,0,0,1,445.49,168.73Z"/><path class="cls-2" d="M459,161.35l.59-3.38h1.92l1.21-6.88h4.06L465.52,158h3.2l-.59,3.38h-3.2l-.87,5c-.24,1.34.13,1.65.78,1.65a2.74,2.74,0,0,0,1.43-.47l1.3,2.89a5.23,5.23,0,0,1-3.44,1.05c-2.61,0-4.84-1.18-4.13-5.24l.87-4.87Z"/><path class="cls-2" d="M470,167.37l1.65-9.4h4.09l-1.64,9.37c-.1.55.09.77.55.77h.93l-.52,3.07h-1.55C470.48,171.18,469.4,170.5,470,167.37Zm2-14.23a2.46,2.46,0,0,1,2.51-2.51,2.53,2.53,0,1,1-2.51,2.51Z"/><path class="cls-2" d="M478,167.37l3.26-18.57h4.09l-3.26,18.54c-.09.55.1.77.56.77h1.18l-.53,3.07h-1.79C478.54,171.18,477.45,170.5,478,167.37Z"/><path class="cls-2" d="M486.07,167.37l3.26-18.57h4.09l-3.26,18.54c-.09.55.1.77.56.77h1.18l-.53,3.07h-1.79C486.6,171.18,485.51,170.5,486.07,167.37Z"/><path class="cls-2" d="M499.31,168.73l2.82-2a3.21,3.21,0,0,0,2.91,1.52c1.24,0,1.59-.38,1.59-.81s-.53-.62-2.48-1.52c-1.8-.84-3-1.92-3-4,0-2.76,2.11-4.25,5-4.25a5.9,5.9,0,0,1,4.62,2l-2.67,2.23a2.26,2.26,0,0,0-1.95-1c-.71,0-1.21.31-1.21.8s.53.75,1.89,1.33c2.23,1,3.72,1.84,3.72,4.35s-1.86,4.15-5.55,4.15A6.36,6.36,0,0,1,499.31,168.73Z"/><path class="cls-2" d="M516.42,148.8h4.09l-2,11.44a4.67,4.67,0,0,1,4.18-2.55c2.89,0,4.62,2.45,4,6.17l-.62,3.48c-.09.55.1.77.56.77h.93l-.53,3.07h-1.33c-2.82,0-4.22-1-3.69-4l.56-3.22c.31-1.77-.4-2.67-1.86-2.67-1.65,0-2.48.81-2.82,2.7l-1.27,7.16h-4.1Z"/><path class="cls-2" d="M529.28,165.14c0-4.78,2.92-7.45,6.27-7.45a4.48,4.48,0,0,1,4.25,2.39l.27-2.11h4.1l-1.65,9.37c-.09.55.1.77.56.77H544l-.53,3.07h-1.54c-3,0-3.38-.77-3.6-1.83l0-.15a4.19,4.19,0,0,1-3.85,2.26C531.61,171.46,529.28,169,529.28,165.14Zm9.74-.81c0-1.86-.9-3.07-2.54-3.07-1.8,0-2.92,1.46-2.92,3.69,0,1.86.93,3,2.55,3S539,166.44,539,164.33Z"/><path class="cls-2" d="M549.34,171.18h-4.09l3.94-22.38h4.09l-2,11.41a25.77,25.77,0,0,1-.75,3l5-5.24h4.65l-5.36,5.49,1.92,3.88c.34.68.56.77,1.06.77h1l-.53,3.07h-1.49c-2.32,0-2.91-.8-3.81-2.63l-1.3-2.64-1.59,1.4Z"/><path class="cls-2" d="M568.13,168.11a4.8,4.8,0,0,0,3.13-1.11l2.48,2.6a8.23,8.23,0,0,1-5.64,1.86c-4.81,0-7.48-2.91-7.48-6.79a6.8,6.8,0,0,1,7.11-7c4.68,0,6.72,3,6.94,7.41l-9.8,1.06C565.31,167.43,566.39,168.11,568.13,168.11Zm2.08-4.83a2.27,2.27,0,0,0-2.45-2.33c-1.74,0-2.83.93-3,2.91Z"/><path class="cls-2" d="M583.19,167.37l1.65-9.4h4.09l-1.65,9.37c-.09.55.1.77.56.77h.93l-.52,3.07H586.7C583.72,171.18,582.63,170.5,583.19,167.37Zm2-14.23a2.46,2.46,0,0,1,2.51-2.51,2.53,2.53,0,1,1-2.51,2.51Z"/><path class="cls-2" d="M591.47,161.35l.59-3.38H594l1.21-6.88h4.06L598,158h3.2l-.59,3.38h-3.2l-.87,5c-.24,1.34.13,1.65.78,1.65a2.74,2.74,0,0,0,1.43-.47l1.3,2.89a5.2,5.2,0,0,1-3.44,1.05c-2.61,0-4.84-1.18-4.13-5.24l.87-4.87Z"/><path class="cls-2" d="M609,165.29l1.28-7.32h4.12l-1.27,7.2c-.31,1.76.4,2.66,1.86,2.66,1.64,0,2.48-.8,2.82-2.69l1.27-7.17h4.09l-1.64,9.37c-.09.55.09.77.56.77H623l-.53,3.07H621c-3,0-3.44-.8-3.6-1.89l0-.22a4.84,4.84,0,0,1-4.34,2.39C610.1,171.46,608.36,169,609,165.29Z"/><path class="cls-2" d="M626.72,158h4.09l-.44,1.93a4.65,4.65,0,0,1,3.88-2.21c3,0,5.33,2.45,5.33,6.33,0,4.59-2.94,7.44-6.26,7.44a4.66,4.66,0,0,1-4.43-2.57l-1.55,8.87h-4.1Zm8.58,6.27c0-1.86-1-3-2.69-3-1.83,0-3.07,1.49-3.07,3.6,0,1.86,1,3.07,2.69,3.07C634.13,167.93,635.3,166.47,635.3,164.24Z"/><path class="cls-2" d="M647.92,165.14c0-4.78,2.91-7.45,6.26-7.45a4.48,4.48,0,0,1,4.25,2.39l.28-2.11h4.09l-1.64,9.37c-.09.55.09.77.56.77h.93l-.53,3.07h-1.55c-3,0-3.38-.77-3.6-1.83l0-.15a4.17,4.17,0,0,1-3.84,2.26C650.24,171.46,647.92,169,647.92,165.14Zm9.73-.81c0-1.86-.89-3.07-2.54-3.07-1.8,0-2.91,1.46-2.91,3.69,0,1.86.93,3,2.54,3S657.65,166.44,657.65,164.33Z"/><path class="cls-2" d="M671.11,167.37l3.25-18.57h4.1l-3.26,18.54c-.09.55.09.77.56.77h1.18l-.53,3.07h-1.8C671.63,171.18,670.55,170.5,671.11,167.37Z"/><path class="cls-2" d="M679.17,167.37l1.64-9.4h4.09l-1.64,9.37c-.09.55.09.77.56.77h.93l-.53,3.07h-1.55C679.69,171.18,678.61,170.5,679.17,167.37Zm2-14.23a2.46,2.46,0,0,1,2.51-2.51,2.53,2.53,0,1,1-2.51,2.51Z"/><path class="cls-2" d="M687.44,161.35,688,158H690l1.21-6.88h4.07L694,158h3.19l-.59,3.38h-3.19l-.87,5c-.25,1.34.12,1.65.77,1.65a2.74,2.74,0,0,0,1.43-.47l1.3,2.89a5.2,5.2,0,0,1-3.44,1.05c-2.6,0-4.84-1.18-4.12-5.24l.87-4.87Z"/><path class="cls-2" d="M698.67,161.35l.58-3.38h1.93l1.21-6.88h4.06L705.24,158h3.19l-.59,3.38h-3.19l-.87,5c-.25,1.34.12,1.65.78,1.65a2.7,2.7,0,0,0,1.42-.47l1.3,2.89a5.2,5.2,0,0,1-3.44,1.05c-2.6,0-4.83-1.18-4.12-5.24l.87-4.87Z"/><path class="cls-2" d="M709.82,167.37l3.26-18.57h4.09l-3.25,18.54c-.1.55.09.77.56.77h1.17l-.52,3.07h-1.8C710.35,171.18,709.27,170.5,709.82,167.37Z"/><path class="cls-2" d="M725.48,168.11a4.8,4.8,0,0,0,3.13-1.11l2.48,2.6a8.21,8.21,0,0,1-5.64,1.86c-4.81,0-7.47-2.91-7.47-6.79a6.79,6.79,0,0,1,7.1-7c4.68,0,6.73,3,6.94,7.41l-9.79,1.06C722.66,167.43,723.74,168.11,725.48,168.11Zm2.08-4.83a2.27,2.27,0,0,0-2.45-2.33c-1.74,0-2.82.93-3,2.91Z"/><path class="cls-2" d="M733.35,168.79a2.52,2.52,0,1,1,2.51,2.58A2.52,2.52,0,0,1,733.35,168.79Z"/><g class="cls-3"><image width="4896" height="3264" transform="translate(-155.64 208.85) scale(0.12)" xlink:href="../Links/AF3A0004.jpg"/></g><g class="cls-4"><polygon class="cls-5" points="882 148.86 155.82 148.86 882 900.16 882 148.86"/></g><g class="cls-6"><polygon class="cls-7" points="870.88 801.16 9.52 801.16 870.88 -90 870.88 801.16"/></g></svg>