<svg id="_Layer_" data-name="&lt;Layer&gt;" xmlns="http://www.w3.org/2000/svg" xmlns:xlink="http://www.w3.org/1999/xlink" viewBox="0 0 780 275"><defs><style>.cls-1{fill:none;}.cls-2{clip-path:url(#clip-path);}.cls-3{fill:#fff;}.cls-4{clip-path:url(#clip-path-2);}.cls-5{fill:#00b7c6;}.cls-6{clip-path:url(#clip-path-3);}</style><clipPath id="clip-path"><rect class="cls-1" x="0.86" y="-296.85" width="780" height="275.3" transform="translate(781.72 -318.39) rotate(-180)"/></clipPath><clipPath id="clip-path-2"><rect class="cls-1" x="130.52" y="599.55" width="649.48" height="275"/></clipPath><clipPath id="clip-path-3"><rect class="cls-1" x="850.29" y="-296.7" width="432" height="432"/></clipPath><image id="image" width="1440" height="1440" xlink:href="../Links/cae5bd08b11f3f8ab7b709dd1afaea41ed58cb16b02ba9e2304bac345c9cc674.jpg"/></defs><g class="cls-2"><use transform="matrix(-0.54, 0, 0, 0.54, 782.41, -532.4)" xlink:href="#image"/></g><path class="cls-3" d="M507.23,107.31h4.5l2.41,6.79a33.08,33.08,0,0,1,1,4.18,29.43,29.43,0,0,1,2.23-4.18l4.71-6.79h4.62l-9.92,14.17-1.21,6.91h-4.25l1.18-6.73Z"/><path class="cls-3" d="M522.17,122c0-4.28,3.26-7.07,7.35-7.07a6.67,6.67,0,0,1,7,6.72c0,4.28-3.26,7-7.35,7A6.7,6.7,0,0,1,522.17,122Zm10.11-.38c0-1.92-1.12-3.16-2.88-3.16s-3,1.46-3,3.6c0,1.92,1.11,3.16,2.88,3.16S532.28,123.74,532.28,121.6Z"/><path class="cls-3" d="M539,122.5l1.28-7.31h4.12l-1.27,7.19c-.31,1.77.4,2.66,1.86,2.66,1.64,0,2.48-.8,2.82-2.69l1.27-7.16h4.09l-1.64,9.36c-.09.56.09.77.56.77H553l-.53,3.07h-1.55c-3,0-3.44-.8-3.59-1.89l0-.22a4.84,4.84,0,0,1-4.34,2.39C540.09,128.67,538.35,126.22,539,122.5Z"/><path class="cls-3" d="M561.35,121.91c0-4.15,3.14-7,7.29-7a6.47,6.47,0,0,1,5.55,2.63l-3,2.36a2.92,2.92,0,0,0-2.57-1.43c-1.83,0-3,1.46-3,3.44s.87,3.23,2.7,3.23a3.65,3.65,0,0,0,2.51-1l2.36,2.69a6.56,6.56,0,0,1-4.87,1.83C564.24,128.67,561.35,126,561.35,121.91Z"/><path class="cls-3" d="M575.24,122.35c0-4.78,2.92-7.44,6.27-7.44a4.47,4.47,0,0,1,4.24,2.38l.28-2.1h4.1l-1.65,9.36c-.09.56.09.77.56.77H590l-.53,3.07h-1.55c-3,0-3.38-.77-3.59-1.83l0-.15a4.19,4.19,0,0,1-3.85,2.26C577.57,128.67,575.24,126.22,575.24,122.35Zm9.74-.81c0-1.86-.9-3.07-2.54-3.07-1.8,0-2.92,1.46-2.92,3.69,0,1.86.93,3,2.54,3S585,123.65,585,121.54Z"/><path class="cls-3" d="M593.53,115.19h4.1l-.5,2.38a4.78,4.78,0,0,1,4.28-2.66c2.88,0,4.62,2.45,4,6.17l-.62,3.47c-.1.56.09.77.55.77h.94l-.53,3.07h-1.55c-3,0-4.06-.68-3.51-3.81l.59-3.38c.31-1.77-.4-2.67-1.86-2.67-1.64,0-2.48.81-2.82,2.7l-1.27,7.16h-4.09Z"/><path class="cls-3" d="M613.5,125.94l2.82-2a3.21,3.21,0,0,0,2.91,1.52c1.24,0,1.58-.37,1.58-.81s-.52-.62-2.48-1.52c-1.8-.83-3-1.92-3-4,0-2.76,2.11-4.24,5-4.24a5.92,5.92,0,0,1,4.62,2l-2.67,2.23a2.27,2.27,0,0,0-2-1c-.72,0-1.21.31-1.21.8s.52.75,1.89,1.34c2.23,1,3.72,1.83,3.72,4.34s-1.86,4.15-5.55,4.15A6.34,6.34,0,0,1,613.5,125.94Z"/><path class="cls-3" d="M627,118.56l.59-3.37h1.92l1.21-6.89h4.06l-1.21,6.89h3.2l-.59,3.37h-3.2l-.86,5c-.25,1.33.12,1.64.77,1.64a2.74,2.74,0,0,0,1.43-.47l1.3,2.89a5.15,5.15,0,0,1-3.44,1c-2.61,0-4.84-1.18-4.13-5.24l.87-4.87Z"/><path class="cls-3" d="M637.8,122.35c0-4.78,2.91-7.44,6.26-7.44a4.47,4.47,0,0,1,4.25,2.38l.28-2.1h4.09L651,124.55c-.09.56.09.77.56.77h.93l-.53,3.07h-1.55c-3,0-3.38-.77-3.6-1.83l0-.15a4.17,4.17,0,0,1-3.84,2.26C640.13,128.67,637.8,126.22,637.8,122.35Zm9.74-.81c0-1.86-.9-3.07-2.55-3.07s-2.91,1.46-2.91,3.69c0,1.86.93,3,2.54,3S647.54,123.65,647.54,121.54Z"/><path class="cls-3" d="M652.93,132.73l2.7-2.6a4.12,4.12,0,0,0,3.41,1.7c1.83,0,3-1,3.41-3.16l.37-2a4.77,4.77,0,0,1-4.09,2c-2.89,0-4.62-2.45-4-6.17l1.27-7.31h4.12l-1.27,7.19c-.31,1.77.4,2.66,1.86,2.66,1.64,0,2.48-.8,2.82-2.69l1.27-7.16h4.1l-2.45,13.95c-.78,4.37-3.66,6.14-7.57,6.14A7.3,7.3,0,0,1,652.93,132.73Z"/><path class="cls-3" d="M675.84,125.94l2.82-2a3.21,3.21,0,0,0,2.91,1.52c1.24,0,1.58-.37,1.58-.81s-.52-.62-2.48-1.52c-1.8-.83-3-1.92-3-4,0-2.76,2.1-4.24,5-4.24a5.92,5.92,0,0,1,4.62,2l-2.67,2.23a2.27,2.27,0,0,0-2-1c-.72,0-1.21.31-1.21.8s.52.75,1.89,1.34c2.23,1,3.72,1.83,3.72,4.34s-1.86,4.15-5.55,4.15A6.34,6.34,0,0,1,675.84,125.94Z"/><path class="cls-3" d="M689.07,122.35c0-4.78,2.92-7.44,6.27-7.44a4.45,4.45,0,0,1,4.24,2.38l.28-2.1H704l-1.65,9.36c-.09.56.1.77.56.77h.93l-.53,3.07h-1.55c-3,0-3.38-.77-3.59-1.83l0-.15a4.19,4.19,0,0,1-3.85,2.26C691.4,128.67,689.07,126.22,689.07,122.35Zm9.74-.81c0-1.86-.9-3.07-2.54-3.07-1.8,0-2.92,1.46-2.92,3.69,0,1.86.93,3,2.55,3S698.81,123.65,698.81,121.54Z"/><path class="cls-3" d="M706.09,118.56l.59-3.37h2.17l.84-4.72c.56-3.13,2.11-4.87,5.24-4.87a4.73,4.73,0,0,1,3.87,1.68l-2.38,2.7a1.45,1.45,0,0,0-1.31-.72c-.68,0-1.17.31-1.36,1.31l-.81,4.62h3.41l-.58,3.37h-3.42l-2.26,12.84c-.56,3.23-1.8,3.57-4.56,3.57h-2.14l.59-3.07h1.24c.47,0,.72-.13.84-.78l2.2-12.56Z"/><path class="cls-3" d="M724.69,125.32a4.74,4.74,0,0,0,3.13-1.11l2.49,2.6a8.25,8.25,0,0,1-5.65,1.86c-4.8,0-7.47-2.91-7.47-6.79a6.79,6.79,0,0,1,7.1-7c4.68,0,6.73,3,7,7.41l-9.8,1.05C721.87,124.64,723,125.32,724.69,125.32Zm2.08-4.83a2.26,2.26,0,0,0-2.45-2.33c-1.73,0-2.82.93-3,2.92Z"/><g class="cls-4"><polygon class="cls-5" points="870.88 1097.85 9.52 1097.85 870.88 206.69 870.88 1097.85"/></g><g class="cls-6"><use transform="translate(660.38 -401.01) scale(0.45)" xlink:href="#image"/></g></svg>