<?xml version="1.0" encoding="utf-8"?>
<!-- Generator: Adobe Illustrator 25.3.1, SVG Export Plug-In . SVG Version: 6.00 Build 0)  -->
<svg version="1.1" id="Layer_1" xmlns="http://www.w3.org/2000/svg" xmlns:xlink="http://www.w3.org/1999/xlink" x="0px" y="0px"
	 viewBox="0 0 320 50" style="enable-background:new 0 0 320 50;" xml:space="preserve">
<style type="text/css">
	.st0{fill:#FFFFFF;}
</style>
<path class="st0" d="M21.9,13.8h2.8v2.6c-0.8,0.9-1.9,1.4-3,1.4c-2,0.1-3.7-1.4-3.8-3.5s1.4-3.7,3.5-3.8c0.1,0,0.3,0,0.4,0
	c1.1,0,2.2,0.5,3,1.4l-1,1c-0.1-0.2-0.3-0.4-0.5-0.5c-0.4-0.3-0.9-0.5-1.4-0.5c-1.2-0.1-2.3,0.9-2.4,2.1c-0.1,1.2,0.9,2.3,2.1,2.4
	c0.1,0,0.2,0,0.3,0c0.4,0,0.8-0.1,1.1-0.3c0.1-0.1,0.3-0.2,0.4-0.3V15H22L21.9,13.8z"/>
<path class="st0" d="M30.2,17c-0.2,0.2-0.3,0.3-0.5,0.4c-0.5,0.3-1,0.4-1.6,0.4c-1.4,0.1-2.6-1-2.7-2.4s1-2.6,2.4-2.7
	c0.1,0,0.2,0,0.3,0c1.3,0,2.4,1.1,2.5,2.4c0,0.1,0,0.3,0,0.4v0.2h-3.6c0.2,0.5,0.7,0.9,1.3,0.9c0.4,0,0.7-0.1,1-0.3
	c0.1-0.1,0.2-0.2,0.3-0.3L30.2,17z M29.1,14.8c-0.2-0.6-0.8-1-1.4-0.8c-0.4,0.1-0.7,0.4-0.8,0.8H29.1z"/>
<path class="st0" d="M31.7,14.1h-0.9v-1.2h0.5c0.4,0,0.5-0.2,0.5-0.6v-0.9h1.2v1.5h1.1v1.2h-1.1v1.6c0,0.3,0.2,0.7,0.5,0.7
	c0,0,0.1,0,0.1,0c0.1,0,0.3,0,0.4,0l0.2,0v1.2L34,17.7c-0.2,0-0.4,0.1-0.6,0.1c-0.9,0-1.6-0.6-1.7-1.5c0-0.1,0-0.2,0-0.2V14.1z"/>
<path class="st0" d="M37.7,15.7c0.1,0.1,0.3,0.3,0.4,0.4c0.3,0.2,0.7,0.4,1.1,0.4c0.8,0,1.2-0.5,1.2-1.1c0-0.6-0.5-1.1-1.1-1.1
	c0,0-0.1,0-0.1,0c-0.3,0-0.6,0.1-0.9,0.3c-0.1,0.1-0.2,0.2-0.3,0.3l-1-0.1l0.2-4.1h4.2v1.4h-3v1.2c0.1-0.1,0.2-0.1,0.3-0.1
	c0.2-0.1,0.5-0.1,0.7-0.1c1.3,0,2.3,0.9,2.4,2.2c0,0,0,0.1,0,0.1c0,1.3-1.1,2.4-2.5,2.4c-0.1,0-0.1,0-0.2,0c-0.7,0-1.4-0.2-2-0.5
	c-0.2-0.1-0.5-0.3-0.7-0.5L37.7,15.7z"/>
<path class="st0" d="M42.7,14.2c0-2.2,1.4-3.6,3-3.6s3,1.4,3,3.6s-1.4,3.6-3,3.6S42.7,16.4,42.7,14.2z M47.2,14.2
	c0-1.5-0.8-2.2-1.5-2.2s-1.5,0.8-1.5,2.2s0.8,2.2,1.5,2.2S47.2,15.7,47.2,14.2z"/>
<path class="st0" d="M51,10.5c0.9,0,1.6,0.8,1.6,1.7c0,0.9-0.8,1.6-1.7,1.6c-0.9,0-1.6-0.8-1.6-1.6C49.3,11.3,50.1,10.5,51,10.5
	C51,10.5,51,10.5,51,10.5z M54.7,10.7h1.2l-4.4,7h-1.2L54.7,10.7z M51,12.9c0.4,0,0.7-0.3,0.7-0.7c0-0.4-0.3-0.7-0.7-0.7
	c-0.4,0-0.7,0.3-0.7,0.7C50.3,12.5,50.6,12.9,51,12.9C51,12.9,51,12.9,51,12.9z M55.2,14.5c0.9,0,1.6,0.8,1.6,1.7
	c0,0.9-0.8,1.6-1.7,1.6c-0.9,0-1.6-0.8-1.6-1.6C53.5,15.2,54.2,14.5,55.2,14.5C55.1,14.5,55.2,14.5,55.2,14.5L55.2,14.5z M55.9,16.2
	c0-0.4-0.3-0.7-0.7-0.7c-0.4,0-0.7,0.3-0.7,0.7c0,0.4,0.3,0.7,0.7,0.7C55.5,16.9,55.8,16.6,55.9,16.2C55.9,16.2,55.9,16.2,55.9,16.2
	L55.9,16.2z"/>
<path class="st0" d="M61.8,12.7c1.4,0,2.5,1.2,2.5,2.6c0,1.4-1.2,2.5-2.6,2.5c-1.4,0-2.5-1.2-2.5-2.6C59.2,13.8,60.4,12.7,61.8,12.7
	C61.8,12.7,61.8,12.7,61.8,12.7z M63.1,15.2c0-0.7-0.6-1.2-1.3-1.2s-1.2,0.6-1.2,1.3c0,0.7,0.6,1.2,1.2,1.2
	C62.5,16.5,63.1,16,63.1,15.2C63.1,15.2,63.1,15.2,63.1,15.2z"/>
<path class="st0" d="M65.5,14.1h-0.8v-1.2h0.8v-0.3c-0.1-0.9,0.5-1.7,1.4-1.8c0.1,0,0.2,0,0.3,0c0.2,0,0.4,0,0.6,0.1l0.2,0.1v1.2
	l-0.1-0.1c-0.1,0-0.2,0-0.3,0c-0.3,0-0.6,0.2-0.7,0.6c0,0,0,0.1,0,0.1v0.1h1.8v-0.5c-0.1-0.9,0.5-1.7,1.4-1.8c0.1,0,0.2,0,0.3,0
	c0.2,0,0.4,0,0.6,0.1l0.3,0.1V12l-0.2-0.1c-0.1,0-0.3-0.1-0.4-0.1c-0.3,0-0.6,0.2-0.7,0.6c0,0,0,0.1,0,0.1v0.3h1.1v1.2H70v3.5h-1.3
	v-3.6h-1.8v3.6h-1.3V14.1z"/>
<path class="st0" d="M76.5,17.1L76.5,17.1c-0.1,0.1-0.2,0.2-0.4,0.4c-0.3,0.2-0.7,0.4-1.1,0.4c-0.8,0.1-1.4-0.5-1.5-1.3
	c0,0,0-0.1,0-0.1c0-0.8,0.6-1.5,1.4-1.6l1.6-0.3c-0.1-0.4-0.4-0.7-0.8-0.6c-0.3,0-0.6,0.1-0.8,0.3c-0.1,0.1-0.2,0.2-0.3,0.3
	l-0.8-0.8c0.1-0.2,0.3-0.3,0.5-0.5c0.4-0.3,1-0.5,1.5-0.5c1.1-0.1,2,0.8,2.1,1.9c0,0,0,0,0,0v3h-1.4V17.1z M76.5,15.5l-1.1,0.2
	c-0.3,0.1-0.6,0.2-0.6,0.5c0,0.2,0.2,0.5,0.6,0.5c0.6,0,1-0.4,1-1c0,0,0-0.1,0-0.1L76.5,15.5z"/>
<path class="st0" d="M79,12.8h1.3v0.7h0.1c0.1-0.1,0.2-0.3,0.4-0.4c0.3-0.3,0.7-0.4,1.1-0.4c1,0,1.8,0.9,1.8,1.9c0,0,0,0.1,0,0.1
	v2.9h-1.4v-2.7c0.1-0.5-0.3-0.9-0.7-0.9c-0.1,0-0.1,0-0.2,0c-0.6,0-1,0.4-1.1,0.9c0,0.1,0,0.1,0,0.2v2.6H79V12.8z"/>
<path class="st0" d="M88.2,17L88.2,17c-0.1,0.2-0.2,0.3-0.4,0.4c-0.3,0.3-0.7,0.4-1.2,0.4c-1.3-0.1-2.3-1.2-2.2-2.5c0,0,0,0,0,0
	c-0.1-1.3,0.9-2.4,2.2-2.5c0.4,0,0.8,0.1,1.2,0.4c0.1,0.1,0.3,0.2,0.4,0.4l0,0v-2.8h1.3v7h-1.3V17z M88.2,15.2
	c0-0.7-0.6-1.2-1.3-1.2c-0.7,0-1.2,0.6-1.2,1.3s0.6,1.2,1.3,1.2c0,0,0,0,0,0C87.7,16.5,88.3,16,88.2,15.2
	C88.3,15.3,88.3,15.2,88.2,15.2L88.2,15.2z"/>
<path class="st0" d="M93.2,15.7c0.1,0.1,0.3,0.3,0.4,0.4c0.4,0.2,0.8,0.4,1.2,0.4c0.8,0,1.2-0.4,1.2-0.8c0-1.2-3.5-0.7-3.5-3.1
	c0-1,0.7-1.7,1.8-2V9.7h1.3v0.9c0.7,0.1,1.3,0.4,1.8,0.9l-1,1c-0.1-0.1-0.2-0.2-0.3-0.3c-0.3-0.2-0.6-0.3-1-0.3c-0.8,0-1,0.3-1,0.7
	c0,1.2,3.5,0.7,3.5,3.1c-0.1,1.1-0.8,1.9-1.9,2.1v0.9h-1.3v-0.9c-0.6-0.1-1.1-0.3-1.6-0.6c-0.2-0.1-0.4-0.3-0.5-0.5L93.2,15.7z"/>
<path class="st0" d="M98.1,14.2c0-2.2,1.4-3.6,3-3.6s3,1.4,3,3.6s-1.4,3.6-3,3.6S98.1,16.4,98.1,14.2z M102.6,14.2
	c0-1.5-0.8-2.2-1.5-2.2s-1.5,0.8-1.5,2.2s0.8,2.2,1.5,2.2S102.6,15.7,102.6,14.2z"/>
<path class="st0" d="M110.5,17L110.5,17c-0.1,0.2-0.2,0.3-0.4,0.4c-0.3,0.3-0.7,0.4-1.2,0.4c-1.3-0.1-2.3-1.2-2.2-2.5c0,0,0,0,0,0
	c-0.1-1.3,0.9-2.4,2.2-2.5c0.4,0,0.8,0.1,1.2,0.4c0.1,0.1,0.3,0.2,0.4,0.4l0,0v-2.8h1.3v7h-1.3V17z M110.5,15.2
	c0-0.7-0.6-1.2-1.3-1.2c-0.7,0-1.2,0.6-1.2,1.3c0,0.7,0.6,1.2,1.2,1.2c0.7,0,1.3-0.5,1.3-1.2C110.5,15.3,110.5,15.3,110.5,15.2
	L110.5,15.2z"/>
<path class="st0" d="M117.4,17c-0.2,0.2-0.3,0.3-0.5,0.4c-0.5,0.3-1,0.4-1.6,0.4c-1.4,0.1-2.6-1-2.7-2.4s1-2.6,2.4-2.7
	c0.1,0,0.2,0,0.3,0c1.3,0,2.4,1.1,2.4,2.4c0,0.1,0,0.3,0,0.4v0.2h-3.6c0.2,0.5,0.7,0.9,1.3,0.9c0.4,0,0.7-0.1,1-0.3
	c0.1-0.1,0.2-0.2,0.3-0.3L117.4,17z M116.3,14.8c-0.2-0.6-0.8-1-1.4-0.8c-0.4,0.1-0.7,0.4-0.8,0.8H116.3z"/>
<path class="st0" d="M118.5,10.7h1.3v7h-1.3V10.7z"/>
<path class="st0" d="M121.7,10.6c0.4,0,0.8,0.3,0.8,0.8c0,0.4-0.4,0.8-0.8,0.8c-0.4,0-0.8-0.3-0.8-0.8
	C120.9,11,121.3,10.6,121.7,10.6z M121,12.8h1.3v4.9H121V12.8z"/>
<path class="st0" d="M122.8,12.8h1.4l1.1,3.3l0,0l1.1-3.3h1.5l-1.8,4.9h-1.5L122.8,12.8z"/>
<path class="st0" d="M132.8,17c-0.2,0.2-0.3,0.3-0.5,0.4c-0.5,0.3-1,0.4-1.6,0.4c-1.4,0.1-2.6-1-2.7-2.4s1-2.6,2.4-2.7
	c0.1,0,0.2,0,0.3,0c1.3,0,2.4,1.1,2.4,2.4c0,0.1,0,0.3,0,0.4v0.2h-3.6c0.2,0.5,0.7,0.9,1.3,0.9c0.4,0,0.7-0.1,1-0.3
	c0.1-0.1,0.2-0.2,0.3-0.3L132.8,17z M131.7,14.8c-0.2-0.6-0.8-1-1.4-0.8c-0.4,0.1-0.7,0.4-0.8,0.8H131.7z"/>
<path class="st0" d="M133.9,12.8h1.4v0.7h0.1c0.1-0.1,0.2-0.3,0.4-0.4c0.3-0.3,0.7-0.4,1.1-0.4h0.1v1.4h-0.1h-0.3
	c-0.6,0-1.2,0.5-1.2,1.2c0,0,0,0.1,0,0.1v2.3h-1.4L133.9,12.8z"/>
<path class="st0" d="M137.4,18.4l0.2,0c0.1,0,0.3,0.1,0.4,0c0.4,0,0.7-0.2,0.9-0.6l0.1-0.2l-1.9-4.8h1.4l1.1,3.2h0.1l1.1-3.2h1.4
	l-2,5.3c-0.4,1.1-1,1.7-1.9,1.7c-0.2,0-0.4,0-0.6-0.1l-0.3-0.1L137.4,18.4z"/>
<path class="st0" d="M35.1,24.7c1.4,0,2.5,1.2,2.5,2.6c0,1.4-1.2,2.5-2.6,2.5c-1.4,0-2.5-1.2-2.5-2.6C32.5,25.8,33.7,24.7,35.1,24.7
	C35.1,24.7,35.1,24.7,35.1,24.7z M36.3,27.2c0-0.7-0.6-1.2-1.3-1.2c-0.7,0-1.2,0.6-1.2,1.3c0,0.7,0.6,1.2,1.2,1.2
	C35.8,28.5,36.4,28,36.3,27.2C36.4,27.2,36.4,27.2,36.3,27.2z"/>
<path class="st0" d="M38.5,24.8h1.3v0.7l0,0c0.1-0.1,0.2-0.3,0.4-0.4c0.3-0.3,0.7-0.4,1.1-0.4c1,0,1.8,0.9,1.8,1.9c0,0,0,0.1,0,0.1
	v3h-1.3v-2.7c0.1-0.5-0.3-0.9-0.7-0.9c-0.1,0-0.1,0-0.2,0c-0.6,0-1,0.4-1,1c0,0,0,0.1,0,0.1v2.6h-1.4V24.8z"/>
<path class="st0" d="M45.7,30.4l0.2,0c0.1,0,0.3,0.1,0.4,0c0.4,0,0.7-0.2,0.8-0.6l0.1-0.2l-1.9-4.8h1.5l1.1,3.2l0,0l1.2-3.2h1.5
	l-2,5.3c-0.4,1.1-1,1.7-1.9,1.7c-0.2,0-0.4,0-0.6-0.1l-0.3-0.1V30.4z"/>
<path class="st0" d="M53.2,24.7c1.4,0,2.5,1.2,2.5,2.6c0,1.4-1.2,2.5-2.6,2.5c-1.4,0-2.5-1.2-2.5-2.6C50.6,25.8,51.7,24.7,53.2,24.7
	C53.1,24.7,53.1,24.7,53.2,24.7z M54.4,27.2c0-0.7-0.6-1.2-1.3-1.2c-0.7,0-1.2,0.6-1.2,1.3c0,0.7,0.6,1.2,1.2,1.2
	C53.8,28.5,54.4,28,54.4,27.2C54.4,27.2,54.4,27.2,54.4,27.2z"/>
<path class="st0" d="M56.5,24.8h1.4v2.7c-0.1,0.5,0.3,0.9,0.7,0.9c0.1,0,0.1,0,0.2,0c0.6,0,1-0.4,1.1-0.9c0-0.1,0-0.1,0-0.2v-2.6
	h1.3v4.9h-1.4V29h0c-0.1,0.1-0.2,0.3-0.4,0.4c-0.3,0.3-0.7,0.4-1.1,0.4c-1,0-1.8-0.9-1.8-1.9c0,0,0-0.1,0-0.1V24.8z"/>
<path class="st0" d="M62.3,24.8h1.3v0.7h0c0.1-0.1,0.2-0.3,0.4-0.4c0.3-0.3,0.7-0.4,1.1-0.4h0.1v1.4h-0.1h-0.3
	c-0.6,0-1.2,0.5-1.2,1.2c0,0,0,0.1,0,0.1v2.3h-1.4V24.8z"/>
<path class="st0" d="M67.9,26.1h-0.8v-1.2h0.8v-0.5c-0.1-0.9,0.5-1.7,1.4-1.8c0.1,0,0.2,0,0.3,0c0.2,0,0.4,0,0.6,0.1l0.2,0.1V24
	h-0.1c-0.1,0-0.2-0.1-0.3,0c-0.3,0-0.6,0.2-0.7,0.6c0,0,0,0.1,0,0.1V25h3.1v4.8h-1.3v-3.6h-1.8v3.5h-1.3V26.1z M71.7,22.6
	c0.4,0,0.8,0.3,0.8,0.8c0,0.4-0.4,0.8-0.8,0.8c-0.4,0-0.8-0.3-0.8-0.8C71,23,71.3,22.6,71.7,22.6z"/>
<path class="st0" d="M73.6,24.8h1.3v0.7l0,0c0.1-0.1,0.2-0.3,0.4-0.4c0.3-0.3,0.7-0.4,1.1-0.4h0.1v1.4h-0.1H76
	c-0.6,0-1.2,0.5-1.2,1.2c0,0,0,0.1,0,0.1v2.3h-1.3V24.8z"/>
<path class="st0" d="M77.4,28c0.1,0.1,0.2,0.2,0.3,0.3c0.3,0.2,0.6,0.3,1,0.3c0.4,0,0.6-0.1,0.6-0.4c0-0.5-2.5-0.5-2.5-2
	c0-0.8,0.7-1.5,2-1.5c0.5,0,1,0.1,1.4,0.4c0.2,0.1,0.3,0.2,0.5,0.4L80,26.3c-0.1-0.1-0.2-0.1-0.3-0.2c-0.2-0.1-0.5-0.2-0.8-0.2
	c-0.3,0-0.5,0.1-0.5,0.3c0,0.5,2.5,0.5,2.5,2c0,0.8-0.7,1.5-2,1.5c-0.6,0-1.1-0.2-1.6-0.5c-0.2-0.1-0.4-0.3-0.5-0.5L77.4,28z"/>
<path class="st0" d="M81.9,26.1h-0.8v-1.2h0.4c0.4,0,0.6-0.2,0.6-0.6v-0.9h1.2v1.5h1.1v1.2h-1.1v1.6c0,0.3,0.2,0.7,0.5,0.7
	c0,0,0.1,0,0.1,0c0.1,0,0.3,0,0.4,0l0.2,0v1.2l-0.3,0.1c-0.2,0-0.4,0.1-0.6,0.1c-0.9,0-1.6-0.6-1.7-1.5c0-0.1,0-0.2,0-0.2V26.1z"/>
<path class="st0" d="M91.8,28.3v1.4h-5c0-3.3,3.4-3.3,3.4-4.8c0-0.5-0.4-0.9-0.9-0.9c0,0,0,0-0.1,0c-0.4,0-0.7,0.2-0.9,0.4
	c-0.1,0.1-0.2,0.3-0.3,0.4l-1.2-0.6c0.1-0.3,0.3-0.6,0.5-0.8c0.5-0.6,1.2-0.9,2-0.8c1.2-0.1,2.3,0.8,2.4,2c0,0.1,0,0.1,0,0.2
	c0,2-2.2,2.3-3,3.5L91.8,28.3z"/>
<path class="st0" d="M97,24.7c1.4,0,2.5,1.2,2.5,2.6c0,1.4-1.2,2.5-2.6,2.5c-1.4,0-2.5-1.2-2.5-2.6C94.4,25.8,95.6,24.7,97,24.7
	C97,24.7,97,24.7,97,24.7z M98.2,27.2c0-0.7-0.6-1.2-1.3-1.2c-0.7,0-1.2,0.6-1.2,1.3c0,0.7,0.6,1.2,1.2,1.2
	C97.7,28.5,98.2,27.9,98.2,27.2C98.2,27.2,98.2,27.2,98.2,27.2L98.2,27.2z"/>
<path class="st0" d="M100.3,24.8h1.3v0.7l0,0c0.1-0.1,0.2-0.3,0.4-0.4c0.3-0.3,0.7-0.4,1.1-0.4h0.1v1.4h-0.1h-0.3
	c-0.6,0-1.2,0.5-1.2,1.2c0,0,0,0.1,0,0.1v2.3h-1.3L100.3,24.8z"/>
<path class="st0" d="M107.3,29L107.3,29c-0.1,0.2-0.2,0.3-0.4,0.4c-0.3,0.3-0.7,0.4-1.2,0.4c-1.3-0.1-2.3-1.2-2.2-2.5c0,0,0,0,0,0
	c-0.1-1.3,0.9-2.4,2.2-2.5c0.4,0,0.8,0.1,1.2,0.4c0.1,0.1,0.3,0.2,0.4,0.4l0,0v-2.8h1.3v7h-1.3V29z M107.4,27.2
	c0-0.7-0.6-1.2-1.3-1.2c-0.7,0-1.2,0.6-1.2,1.3c0,0.7,0.6,1.2,1.2,1.2C106.8,28.6,107.4,28,107.4,27.2
	C107.4,27.3,107.4,27.2,107.4,27.2L107.4,27.2z"/>
<path class="st0" d="M114.2,29c-0.2,0.2-0.3,0.3-0.5,0.4c-0.5,0.3-1,0.4-1.6,0.4c-1.4,0.1-2.6-1-2.7-2.4c-0.1-1.4,1-2.6,2.4-2.7
	c0.1,0,0.2,0,0.3,0c1.3,0,2.4,1.1,2.4,2.4c0,0.1,0,0.3,0,0.4v0.2H111c0.2,0.5,0.7,0.9,1.3,0.9c0.4,0,0.7-0.1,1-0.3
	c0.1-0.1,0.2-0.2,0.3-0.3L114.2,29z M113.2,26.8c-0.2-0.6-0.8-1-1.4-0.8c-0.4,0.1-0.7,0.4-0.8,0.8H113.2z"/>
<path class="st0" d="M115.3,24.8h1.3v0.7l0,0c0.1-0.1,0.2-0.3,0.4-0.4c0.3-0.3,0.7-0.4,1.1-0.4h0.1v1.4h-0.1h-0.3
	c-0.6,0-1.2,0.5-1.2,1.2c0,0,0,0.1,0,0.1v2.3h-1.3L115.3,24.8z"/>
<path class="st0" d="M119.2,28c0.1,0.1,0.2,0.2,0.3,0.3c0.3,0.2,0.6,0.3,1,0.3c0.4,0,0.6-0.1,0.6-0.4c0-0.5-2.5-0.5-2.5-2
	c0-0.8,0.7-1.5,1.9-1.5c0.5,0,1,0.1,1.4,0.4c0.2,0.1,0.3,0.2,0.5,0.4l-0.8,0.9c-0.1-0.1-0.2-0.1-0.3-0.2c-0.2-0.1-0.5-0.2-0.8-0.2
	c-0.3,0-0.5,0.1-0.5,0.3c0,0.5,2.5,0.5,2.5,2c0,0.8-0.7,1.5-2,1.5c-0.6,0-1.1-0.2-1.6-0.5c-0.2-0.1-0.4-0.3-0.5-0.5L119.2,28z"/>
<path class="st0" d="M123.8,28.2c0.4,0,0.8,0.4,0.8,0.8s-0.4,0.8-0.8,0.8S123,29.4,123,29C123,28.5,123.4,28.2,123.8,28.2
	C123.8,28.2,123.8,28.2,123.8,28.2z"/>
<path class="st0" d="M125.7,23.4l-0.7-0.1l0.2-0.5l0.6,0.3l-0.1-0.7h0.6l-0.1,0.7l0.6-0.3l0.2,0.5l-0.7,0.1l0.5,0.5l-0.5,0.4
	l-0.4-0.6l-0.4,0.6l-0.5-0.4L125.7,23.4z"/>
<path class="st0" d="M47.4,38.4l-0.8-0.2l0.2-0.5l0.8,0.3l-0.1-0.9H48V38l0.8-0.3l0.2,0.5l-0.8,0.2l0.6,0.7l-0.4,0.3l-0.5-0.8
	l-0.5,0.8l-0.4-0.3L47.4,38.4z"/>
<path class="st0" d="M49.8,37.1h0.7l2.7,3.6v-3.6H54V42h-0.7l-2.7-3.6V42h-0.8V37.1z"/>
<path class="st0" d="M58.2,41.5c-0.1,0.1-0.2,0.2-0.3,0.3c-0.3,0.2-0.7,0.3-1.1,0.3c-1,0-1.8-0.8-1.8-1.8s0.8-1.8,1.8-1.8
	c0.9,0,1.6,0.7,1.6,1.5c0,0,0,0.1,0,0.1c0,0.1,0,0.2,0,0.3v0.1h-2.7c0.1,0.5,0.5,0.8,1,0.8c0.3,0,0.5-0.1,0.7-0.2
	c0.1-0.1,0.2-0.1,0.3-0.2L58.2,41.5z M57.6,40c-0.1-0.5-0.5-0.8-0.9-0.8c-0.5,0-0.9,0.3-1,0.8H57.6z"/>
<path class="st0" d="M58.7,38.7h0.8l0.8,2.3l0.8-2.3h0.6l0.7,2.3l0.8-2.3h0.8L62.7,42H62l-0.7-2.2L60.5,42h-0.7L58.7,38.7z"/>
<path class="st0" d="M68.7,41.4c-0.1,0.1-0.2,0.2-0.4,0.3c-0.3,0.2-0.7,0.3-1.1,0.3c-1,0-1.8-0.8-1.8-1.8s0.8-1.8,1.8-1.8
	c0.4,0,0.7,0.1,1.1,0.3c0.1,0.1,0.2,0.2,0.3,0.3l-0.5,0.5c-0.1-0.1-0.1-0.2-0.2-0.2c-0.2-0.1-0.4-0.2-0.7-0.2c-0.6,0.1-1,0.6-1,1.2
	c0,0.5,0.5,0.9,1,1c0.3,0,0.5-0.1,0.7-0.2c0.1-0.1,0.2-0.2,0.2-0.2L68.7,41.4z"/>
<path class="st0" d="M69.4,38.7h0.7v2c0,0.4,0.3,0.8,0.7,0.8c0,0,0.1,0,0.1,0c0.5,0,0.9-0.4,0.9-0.9c0,0,0,0,0-0.1v-1.9h0.7V42h-0.7
	v-0.5c-0.1,0.1-0.2,0.2-0.3,0.3c-0.2,0.2-0.5,0.3-0.8,0.3c-0.7,0-1.3-0.6-1.3-1.3c0-0.1,0-0.1,0-0.2V38.7z"/>
<path class="st0" d="M73.6,41c0.1,0.1,0.2,0.2,0.2,0.2c0.2,0.1,0.4,0.2,0.6,0.2c0.4,0,0.6-0.2,0.6-0.4c0-0.6-1.8-0.3-1.8-1.5
	c0-0.5,0.5-1,1.2-1c0.3,0,0.6,0.1,0.9,0.2c0.1,0.1,0.2,0.1,0.3,0.2l-0.4,0.5c-0.1-0.1-0.1-0.1-0.2-0.1c-0.2-0.1-0.4-0.1-0.5-0.1
	c-0.4,0-0.5,0.2-0.5,0.3c0,0.6,1.8,0.3,1.8,1.5c0,0.6-0.5,1-1.3,1c-0.4,0-0.7-0.1-1-0.3c-0.1-0.1-0.2-0.2-0.3-0.3L73.6,41z"/>
<path class="st0" d="M76.8,39.3h-0.6v-0.7h0.4c0.2,0,0.3-0.1,0.3-0.4v-0.7h0.6v1.1h0.8v0.7h-0.8v1.6c0,0.3,0.2,0.5,0.5,0.5
	c0.1,0,0.2,0,0.3,0h0.1V42l-0.1,0.1c-0.1,0-0.3,0.1-0.4,0c-0.6,0-1-0.4-1-1c0,0,0-0.1,0-0.1L76.8,39.3z"/>
<path class="st0" d="M80.7,38.6c1,0,1.8,0.8,1.8,1.8s-0.8,1.8-1.8,1.8s-1.8-0.8-1.8-1.8C78.9,39.4,79.7,38.6,80.7,38.6
	C80.7,38.6,80.7,38.6,80.7,38.6z M81.7,40.3c0-0.6-0.5-1.1-1-1.1c-0.6,0-1.1,0.5-1.1,1c0,0,0,0,0,0c0,0.6,0.5,1.1,1,1.1
	C81.2,41.4,81.7,40.9,81.7,40.3C81.7,40.3,81.7,40.3,81.7,40.3z"/>
<path class="st0" d="M83.2,38.7h0.7v0.5c0.1-0.1,0.1-0.2,0.2-0.3c0.2-0.2,0.5-0.3,0.8-0.3c0.3,0,0.6,0.1,0.8,0.3
	c0.1,0.1,0.2,0.2,0.2,0.3c0.1-0.1,0.2-0.2,0.3-0.3c0.3-0.2,0.6-0.3,0.9-0.3c0.7,0,1.3,0.7,1.2,1.4c0,0,0,0,0,0v2h-0.7v-2
	c0-0.4-0.2-0.7-0.6-0.8c0,0,0,0-0.1,0c-0.5,0-0.8,0.4-0.8,0.8c0,0,0,0.1,0,0.1V42h-0.7v-2c0-0.4-0.2-0.7-0.6-0.8c0,0-0.1,0-0.1,0
	c-0.5,0-0.8,0.4-0.8,0.8c0,0,0,0.1,0,0.1V42h-0.7L83.2,38.7z"/>
<path class="st0" d="M92.3,41.5c-0.1,0.1-0.2,0.2-0.3,0.3c-0.3,0.2-0.7,0.3-1.1,0.3c-1,0-1.8-0.8-1.8-1.8s0.8-1.8,1.8-1.8
	c0.9,0,1.6,0.7,1.6,1.5c0,0,0,0.1,0,0.1c0,0.1,0,0.2,0,0.3v0.1h-2.7c0.1,0.5,0.5,0.8,1,0.8c0.3,0,0.5-0.1,0.7-0.2
	c0.1-0.1,0.2-0.1,0.3-0.2L92.3,41.5z M91.7,40c-0.1-0.4-0.5-0.8-0.9-0.8c-0.5,0-0.9,0.3-1,0.8H91.7z"/>
<path class="st0" d="M93.2,38.7h0.7v0.5c0.1-0.1,0.2-0.2,0.3-0.3c0.2-0.2,0.5-0.3,0.8-0.3h0.2v0.7H95h-0.2c-0.5,0-0.9,0.5-0.9,1V42
	h-0.7L93.2,38.7z"/>
<path class="st0" d="M95.8,41c0.1,0.1,0.1,0.2,0.2,0.2c0.2,0.1,0.4,0.2,0.6,0.2c0.4,0,0.6-0.2,0.6-0.4c0-0.6-1.8-0.3-1.8-1.5
	c0-0.5,0.5-1,1.2-1c0.3,0,0.6,0.1,0.9,0.2c0.1,0,0.2,0.1,0.4,0.2l-0.5,0.5c-0.1-0.1-0.1-0.1-0.2-0.1c-0.2-0.1-0.4-0.1-0.5-0.1
	c-0.4,0-0.5,0.2-0.5,0.3c0,0.6,1.8,0.3,1.8,1.5c0,0.6-0.5,1-1.3,1c-0.4,0-0.7-0.1-1-0.3c-0.1-0.1-0.2-0.2-0.3-0.3L95.8,41z"/>
<path class="st0" d="M101.8,38.6c1,0,1.8,0.8,1.8,1.8s-0.8,1.8-1.8,1.8s-1.8-0.8-1.8-1.8C100,39.4,100.8,38.6,101.8,38.6
	C101.7,38.6,101.7,38.6,101.8,38.6z M102.8,40.3c0-0.6-0.5-1.1-1-1.1c-0.6,0-1.1,0.5-1.1,1c0,0,0,0,0,0c0,0.6,0.5,1.1,1,1.1
	C102.3,41.4,102.7,40.9,102.8,40.3C102.8,40.3,102.8,40.3,102.8,40.3z"/>
<path class="st0" d="M104.3,38.7h0.7v0.5c0.1-0.1,0.2-0.2,0.3-0.3c0.2-0.2,0.5-0.3,0.8-0.3c0.7,0,1.3,0.6,1.3,1.3c0,0.1,0,0.1,0,0.2
	v2h-0.7v-2c0-0.4-0.3-0.8-0.7-0.8c0,0-0.1,0-0.1,0c-0.5,0-0.9,0.4-0.9,0.9c0,0,0,0.1,0,0.1V42h-0.7L104.3,38.7z"/>
<path class="st0" d="M108.3,37.1h0.7V42h-0.7V37.1z"/>
<path class="st0" d="M109.8,42.7l0.1,0.1c0.1,0,0.2,0,0.3,0c0.3,0,0.5-0.2,0.6-0.5L111,42l-1.4-3.4h0.8l0.9,2.5l1-2.5h0.8l-1.5,3.8
	c-0.3,0.7-0.7,1.1-1.2,1.1c-0.1,0-0.3,0-0.4,0h-0.1V42.7z"/>
</svg>
