<?xml version="1.0" encoding="utf-8"?>
<!-- Generator: Adobe Illustrator 16.0.0, SVG Export Plug-In . SVG Version: 6.00 Build 0)  -->
<!DOCTYPE svg PUBLIC "-//W3C//DTD SVG 1.1//EN" "http://www.w3.org/Graphics/SVG/1.1/DTD/svg11.dtd">
<svg version="1.1" id="Layer_1" xmlns="http://www.w3.org/2000/svg" xmlns:xlink="http://www.w3.org/1999/xlink" x="0px" y="0px"
	 width="300px" height="250px" viewBox="0 0 300 250" enable-background="new 0 0 300 250" xml:space="preserve">
<rect fill="#B3DDD2" width="300" height="250"/>
<rect x="220" y="6" fill="#BA9663" width="80" height="170"/>
<polygon fill="#FFFFFF" points="120.53,0 19.265,101.265 125.995,207.994 299.999,33.99 299.999,0 "/>
<polygon points="0,0 0,81.705 21.693,103.397 125.091,0 "/>
<polygon points="125.8,208.219 167.581,250 299.999,250 299.999,165.98 234.02,100 "/>
<g enable-background="new    ">
	<path fill="#BA9663" d="M177.476,200.633c0.522,0,0.522,0.505,0.522,0.505v0.702c0,0,0,0.505-0.504,0.505h-4.632v3.694h3.425
		c0.521,0,0.521,0.504,0.521,0.504v0.703c0,0,0,0.505-0.504,0.505h-3.442v3.784h4.613c0.522,0,0.522,0.505,0.522,0.505v0.702
		c0,0,0,0.505-0.504,0.505h-6.38v-12.614H177.476z"/>
	<path fill="#BA9663" d="M183.652,200.633c0.199,0,0.361,0,0.541,0.307l2.072,3.82l2.055-3.82c0.162-0.307,0.342-0.307,0.541-0.307
		h0.793c0.378,0,0.774,0,0.449,0.576l-2.865,5.28l3.424,6.182c0.325,0.576-0.071,0.576-0.449,0.576h-0.793
		c-0.199,0-0.379,0-0.541-0.307l-2.667-4.793l-2.613,4.793c-0.181,0.307-0.343,0.307-0.54,0.307h-0.793
		c-0.379,0-0.775,0-0.451-0.576l3.441-6.29l-2.847-5.172c-0.324-0.576,0.072-0.576,0.45-0.576H183.652z"/>
</g>
<g enable-background="new    ">
	<path fill="#BA9663" d="M199.253,200.633c2.685,0,3.767,1.64,3.767,3.91v0.45c0,2.271-1.082,3.893-3.767,3.893h-1.28v3.839
		c0,0.522-0.504,0.522-0.504,0.522h-0.721c0,0-0.523,0-0.523-0.522v-12.092H199.253z M197.973,207.192h1.28
		c1.226,0,2.019-0.577,2.019-2.199v-0.45c0-1.64-0.793-2.234-2.019-2.234h-1.28V207.192z"/>
</g>
<g enable-background="new    ">
	<path fill="#BA9663" d="M208.891,200.633c0,0,0.523,0,0.523,0.522v10.38H213c0.541,0,0.541,0.505,0.541,0.505v0.685
		c0,0,0,0.522-0.541,0.522h-5.334v-12.092c0-0.522,0.504-0.522,0.504-0.522H208.891z"/>
</g>
<g enable-background="new    ">
	<path fill="#BA9663" d="M224.745,204.615v4.667c0,2.289-1.046,4.091-3.73,4.091s-3.749-1.802-3.749-4.091v-4.667
		c0-2.289,1.064-4.108,3.749-4.108S224.745,202.326,224.745,204.615z M219.014,204.615v4.667c0,1.658,0.775,2.379,2.001,2.379
		s1.982-0.721,1.982-2.379v-4.667c0-1.658-0.757-2.396-1.982-2.396S219.014,202.957,219.014,204.615z"/>
	<path fill="#BA9663" d="M232.327,200.633c2.685,0,3.767,1.441,3.767,3.748c0,2-0.758,2.991-2.181,3.568l1.298,2.739
		c0.324,0.559,0.612,0.847,0.937,0.847h0.271c0.522,0,0.522,0.541,0.522,0.541v0.63c0,0,0,0.541-0.522,0.541h-0.379
		c-1.081,0-1.676-0.559-2.469-1.946l-1.405-3.063h-1.262v4.487c0,0.522-0.505,0.522-0.505,0.522h-0.721c0,0-0.522,0-0.522-0.522
		v-12.092H232.327z M230.903,206.525h1.424c1.441,0,2.019-0.721,2.019-2.181c0-1.64-0.793-2.019-2.019-2.019h-1.424V206.525z"/>
	<path fill="#BA9663" d="M247.262,200.633c0.523,0,0.523,0.505,0.523,0.505v0.702c0,0,0,0.505-0.506,0.505h-4.631v3.694h3.424
		c0.523,0,0.523,0.504,0.523,0.504v0.703c0,0,0,0.505-0.505,0.505h-3.442v3.784h4.613c0.523,0,0.523,0.505,0.523,0.505v0.702
		c0,0,0,0.505-0.506,0.505H240.9v-12.614H247.262z"/>
</g>
<g enable-background="new    ">
	<path fill="#BA9663" d="M265.832,207.457c0,0.087-0.033,0.164-0.101,0.231l-4.685,4.684c-0.066,0.067-0.145,0.101-0.231,0.101
		s-0.164-0.033-0.231-0.101l-0.502-0.502c-0.067-0.067-0.101-0.145-0.101-0.231s0.033-0.164,0.101-0.231l3.95-3.95l-3.95-3.951
		c-0.067-0.066-0.101-0.144-0.101-0.23c0-0.088,0.033-0.164,0.101-0.231l0.502-0.503c0.067-0.066,0.145-0.101,0.231-0.101
		s0.165,0.034,0.231,0.101l4.685,4.685C265.799,207.293,265.832,207.37,265.832,207.457z M269.691,207.457
		c0,0.087-0.033,0.164-0.1,0.231l-4.685,4.684c-0.067,0.067-0.145,0.101-0.231,0.101c-0.088,0-0.164-0.033-0.23-0.101l-0.504-0.502
		c-0.066-0.067-0.1-0.145-0.1-0.231s0.033-0.164,0.1-0.231l3.951-3.95l-3.951-3.951c-0.066-0.066-0.1-0.144-0.1-0.23
		c0-0.088,0.033-0.164,0.1-0.231l0.504-0.503c0.066-0.066,0.143-0.101,0.23-0.101c0.087,0,0.164,0.034,0.231,0.101l4.685,4.685
		C269.658,207.293,269.691,207.37,269.691,207.457z"/>
</g>
<rect x="159.855" y="194.385" fill="none" stroke="#FFFFFF" stroke-width="0.77" width="120.105" height="25.407"/>
<g>
	<g>
		<defs>
			<rect id="SVGID_1_" width="300" height="250"/>
		</defs>
		<clipPath id="SVGID_2_">
			<use xlink:href="#SVGID_1_"  overflow="visible"/>
		</clipPath>
		<path clip-path="url(#SVGID_2_)" fill="#BA9663" d="M151.869,100.07c0.004-2.249,0.688-4.039,2.063-5.476
			c1.387-1.435,3.045-2.138,5.084-2.142c2.017,0.004,3.674,0.72,5.086,2.196c1.401,1.48,2.092,3.244,2.097,5.389
			c-0.005,2.158-0.69,3.917-2.08,5.379c-1.4,1.46-3.039,2.17-5.021,2.174c-1.756-0.002-3.277-0.553-4.637-1.678
			C152.727,104.469,151.877,102.572,151.869,100.07 M168.553,90.683c-2.628-2.558-5.822-3.859-9.482-3.853
			c-2.426,0-4.698,0.59-6.797,1.764c-2.098,1.173-3.755,2.774-4.956,4.782c-1.201,2.01-1.805,4.225-1.802,6.613
			c-0.004,3.561,1.298,6.681,3.865,9.266c2.564,2.594,5.837,3.909,9.698,3.909h0.022c3.705,0.003,6.907-1.277,9.5-3.805
			c2.604-2.521,3.92-5.653,3.916-9.287C172.521,96.401,171.189,93.237,168.553,90.683"/>
	</g>
</g>
<polygon fill="#BA9663" points="191.324,86.856 191.324,103.036 180.547,86.84 173.497,86.84 173.497,113.163 179.813,113.163 
	179.771,95.968 191.236,113.17 197.529,113.17 197.529,86.842 "/>
<polygon fill="#BA9663" points="82.026,113.164 96.714,113.164 96.714,108.029 88.597,108.029 88.597,102.313 96.714,102.313 
	96.714,97.337 88.597,97.337 88.597,91.736 96.714,91.736 96.714,86.831 82.026,86.831 "/>
<g>
	<defs>
		<rect id="SVGID_3_" width="300" height="250"/>
	</defs>
	<clipPath id="SVGID_4_">
		<use xlink:href="#SVGID_3_"  overflow="visible"/>
	</clipPath>
	<path clip-path="url(#SVGID_4_)" fill="#BA9663" d="M103.959,100.071c0.003-2.25,0.688-4.039,2.061-5.475
		c1.388-1.437,3.047-2.139,5.086-2.143c2.014,0.004,3.674,0.721,5.085,2.197c1.402,1.479,2.09,3.243,2.094,5.388
		c-0.004,2.157-0.688,3.917-2.078,5.38c-1.401,1.459-3.038,2.169-5.021,2.173c-1.755-0.003-3.277-0.554-4.636-1.679
		C104.816,104.469,103.966,102.573,103.959,100.071 M120.644,90.685c-2.628-2.557-5.824-3.858-9.484-3.854
		c-2.424,0-4.697,0.59-6.796,1.765c-2.095,1.171-3.758,2.774-4.955,4.782c-1.201,2.01-1.804,4.224-1.803,6.612
		c-0.004,3.56,1.297,6.68,3.866,9.266c2.565,2.594,5.838,3.908,9.698,3.908h0.024c3.702,0.004,6.904-1.276,9.5-3.805
		c2.602-2.52,3.919-5.651,3.915-9.286C124.612,96.401,123.278,93.239,120.644,90.685"/>
</g>
<g>
	<defs>
		<rect id="SVGID_5_" width="300" height="250"/>
	</defs>
	<clipPath id="SVGID_6_">
		<use xlink:href="#SVGID_5_"  overflow="visible"/>
	</clipPath>
	<path clip-path="url(#SVGID_6_)" fill="#BA9663" d="M81.056,98.253l-0.815,0.002H67.855v4.918h6.48
		c-0.341,0.82-0.822,1.567-1.463,2.249c-1.386,1.458-3.007,2.167-4.967,2.172c-1.737-0.002-3.242-0.554-4.586-1.679
		c-1.716-1.441-2.557-3.335-2.563-5.837c0.002-2.248,0.677-4.038,2.037-5.473c1.374-1.434,3.015-2.136,5.032-2.141
		c1.994,0.005,3.634,0.721,5.031,2.197c0.203,0.216,0.387,0.44,0.559,0.669l4.205-4.246c-0.121-0.128-0.232-0.262-0.36-0.386
		c-2.6-2.555-5.761-3.856-9.383-3.852c-2.397,0-4.646,0.591-6.722,1.764c-2.074,1.171-3.718,2.771-4.903,4.778
		c-1.188,2.01-1.784,4.223-1.782,6.609c-0.006,3.559,1.284,6.677,3.824,9.26c2.537,2.593,5.774,3.907,9.594,3.907h0.023
		c3.663,0.003,6.831-1.277,9.398-3.803c2.575-2.519,3.878-5.648,3.875-9.281C81.184,99.455,81.132,98.85,81.056,98.253"/>
</g>
<g>
	<defs>
		<rect id="SVGID_7_" width="300" height="250"/>
	</defs>
	<clipPath id="SVGID_8_">
		<use xlink:href="#SVGID_7_"  overflow="visible"/>
	</clipPath>
	<path clip-path="url(#SVGID_8_)" fill="#BA9663" d="M144.163,104.965c-0.125,0.153-0.253,0.305-0.393,0.452
		c-1.4,1.459-3.038,2.169-5.02,2.173c-1.756-0.002-3.277-0.553-4.636-1.678c-1.734-1.443-2.584-3.339-2.592-5.842
		c0.004-2.249,0.688-4.039,2.062-5.475c1.387-1.436,3.047-2.138,5.086-2.143c2.014,0.005,3.673,0.722,5.085,2.197
		c0.148,0.157,0.284,0.318,0.417,0.482l3.242-5.152c-2.471-2.084-5.39-3.152-8.692-3.149c-2.423,0-4.696,0.591-6.795,1.766
		c-2.096,1.171-3.758,2.773-4.955,4.781c-1.202,2.011-1.804,4.225-1.803,6.613c-0.004,3.56,1.297,6.68,3.865,9.265
		c2.566,2.594,5.839,3.908,9.699,3.908h0.023c3.343,0.004,6.274-1.049,8.723-3.113L144.163,104.965z"/>
</g>
<g>
	<g>
		<defs>
			<rect id="SVGID_9_" width="300" height="250"/>
		</defs>
		<clipPath id="SVGID_10_">
			<use xlink:href="#SVGID_9_"  overflow="visible"/>
		</clipPath>
		<rect clip-path="url(#SVGID_10_)" fill="none" stroke="#000000" stroke-width="0.25" width="300" height="250"/>
	</g>
</g>
</svg>
