<?xml version="1.0" encoding="utf-8"?>
<!-- Generator: Adobe Illustrator 16.0.0, SVG Export Plug-In . SVG Version: 6.00 Build 0)  -->
<!DOCTYPE svg PUBLIC "-//W3C//DTD SVG 1.1//EN" "http://www.w3.org/Graphics/SVG/1.1/DTD/svg11.dtd">
<svg version="1.1" id="Layer_1" xmlns="http://www.w3.org/2000/svg" xmlns:xlink="http://www.w3.org/1999/xlink" x="0px" y="0px"
	 width="300px" height="250px" viewBox="0 0 300 250" enable-background="new 0 0 300 250" xml:space="preserve">
<rect width="300" height="250"/>
<g>
	<defs>
		<rect id="SVGID_1_" width="300" height="250"/>
	</defs>
	<clipPath id="SVGID_2_">
		<use xlink:href="#SVGID_1_"  overflow="visible"/>
	</clipPath>
	<path clip-path="url(#SVGID_2_)" fill="#BA9663" d="M22.086,125.636c4.766,0,7.001-1.583,7.001-4.964
		c0-3.253-2.193-5.092-5.946-5.092h-3.753v1.454h3.289c2.192,0,3.627,0.514,4.344,1.584c0.379,0.471,0.548,1.07,0.548,1.84
		c0,2.44-1.982,3.766-5.735,3.766h-4.007v-4.194h1.561v2.654h2.446c2.825,0,4.216-0.728,4.216-2.226
		c0-1.284-1.138-1.926-3.373-1.926h-4.85v-4.493h5.314c4.596,0,7.464,2.397,7.464,6.633c0,4.452-2.741,6.462-8.519,6.462h-4.217
		v-1.498H22.086z M14.96,111.042h7.464c4.849,0,8.307,1.626,9.994,4.665c0.717,1.412,1.097,2.995,1.097,4.75
		c0,5.264-2.699,8.388-7.76,9.287l4.597,8.688h-1.729l-5.271-9.885l1.138-0.129c4.766-0.515,7.506-3.338,7.506-7.96
		c0-5.092-3.458-7.874-9.572-7.874h-5.946v25.806H14.96V111.042z M26.683,141l-5.778-10.998H19.43V141h-7.338v-29.958h1.518v28.417
		h4.259v-10.955l3.922-0.043l5.82,10.998h4.849l-4.681-8.944l1.392-0.556L34.991,141H26.683z"/>
</g>
<path fill="#BA9663" d="M67.422,136.592v1.541H54.097v-10.187h12.82v-4.279h-9.91v-9.715h10.205v1.541h-8.687v6.633h9.909v7.361
	H55.616v7.104H67.422z M65.441,125.038v1.539H54.097v-15.449h16.109v7.317H60.085v-1.54h8.603v-4.237H55.616v12.37H65.441z
	 M70.417,133.639V141H51.229v-29.872h1.519v28.331h16.151v-4.279H57.007v-4.109h1.518v2.568H70.417z"/>
<g>
	<defs>
		<rect id="SVGID_3_" width="300" height="250"/>
	</defs>
	<clipPath id="SVGID_4_">
		<use xlink:href="#SVGID_3_"  overflow="visible"/>
	</clipPath>
	<path clip-path="url(#SVGID_4_)" fill="#BA9663" d="M91.884,127.733v10.699H90.45v-12.197h7.085c3.921,0,5.819-1.712,5.819-5.306
		c0-3.382-1.813-5.35-4.723-5.35H93.36v-1.541h5.271c2.404,0,4.47,1.113,5.482,3.167c0.506,1.027,0.759,2.268,0.759,3.724
		c0,4.45-2.446,6.804-7.337,6.804H91.884z M94.836,130.687v10.313h-7.295V111h1.56v28.416h4.175v-10.313h5.186
		c1.898,0,3.458-0.429,4.766-1.326c2.024-1.241,3.078-3.767,3.078-7.061c0-5.308-2.952-8.132-8.392-8.132h-6.03v10.656h5.398
		c2.192,0,3.036-0.685,3.036-2.524c0-1.499-0.717-2.226-2.193-2.226H94.92v3.466l-1.56,0.043v-5.007h4.765
		c2.319,0,3.627,1.37,3.627,3.724c0,2.738-1.477,4.108-4.47,4.108H90.45V111h7.464c6.115,0,9.868,3.594,9.868,9.715
		c0,6.333-3.416,9.971-9.32,9.971H94.836z"/>
	<path clip-path="url(#SVGID_4_)" fill="#BA9663" d="M137.094,141c-4.132,0-7.211-1.069-9.277-3.209
		c-2.024-2.056-3.079-5.094-3.079-8.688v-18.017h7.169v18.017c0,3.253,1.561,4.622,4.976,4.622c3.332,0,5.145-1.669,5.145-4.622
		v-18.017h4.344v18.017c0,2.269-0.591,4.407-1.729,5.949c-1.518,2.096-3.923,3.081-7.633,3.081c-4.386,0-6.831-1.199-8.307-3.98
		c-0.76-1.368-1.139-3.038-1.139-5.05v-15.279h1.518v15.279c0,4.836,2.741,7.489,7.928,7.489s7.843-2.653,7.843-7.489v-16.476
		h-1.307v16.476c0,3.767-2.488,6.162-6.663,6.162c-4.217,0-6.452-2.182-6.452-6.162v-16.476h-4.175v16.476
		c0,6.805,3.711,10.356,10.838,10.356c3.711,0,6.242-0.898,7.97-2.739c1.73-1.84,2.657-4.493,2.657-7.617v-18.017h1.518v18.017
		c0,3.595-1.096,6.59-3.12,8.688C144.095,139.931,141.1,141,137.094,141"/>
	<path clip-path="url(#SVGID_4_)" fill="#BA9663" d="M178.847,128.247c2.235,0,3.712,1.369,3.712,3.595
		c0,0.685-0.127,1.284-0.38,1.754c-0.59,1.241-1.688,1.84-3.332,1.84h-7.042v-4.364h1.518v2.823h5.524
		c1.476,0,2.192-0.684,2.192-2.053c0-1.327-0.717-2.012-2.192-2.012h-8.434v6.762h9.066c0.843,0,1.603-0.214,2.319-0.642
		c1.476-0.899,2.192-2.184,2.192-3.938c0-3.123-1.813-5.092-4.639-5.092h-10.374v-1.541h10.374c2.699,0,4.47-2.096,4.47-5.049
		c0-0.857-0.211-1.67-0.59-2.397c-0.843-1.455-2.361-2.354-3.753-2.354h-7.633v-1.54h7.633c1.138,0,2.193,0.256,3.079,0.77
		c1.771,1.069,2.824,3.124,2.824,5.521c0,2.696-1.139,4.749-3.036,5.819l1.097,0.813c1.391,1.241,2.066,2.91,2.066,5.049
		c0,1.712-0.633,3.21-1.855,4.451c-1.308,1.156-2.699,1.713-4.175,1.713h-10.542v-9.929H178.847z M188.292,131.713
		c0,5.82-3.711,9.244-9.825,9.244h-12.397v-29.743h1.519v28.202h10.879c5.355,0,8.308-2.696,8.308-7.703
		c0-2.054-0.253-3.381-0.759-4.022l-0.801-0.941l-0.549-0.557l0.465-0.471l0.421-0.685c0.717-1.327,1.055-2.782,1.055-4.451
		c0-5.092-2.911-7.788-8.14-7.788h-8.054v9.8h8.434c1.392,0,2.065-0.685,2.065-2.012c0-1.498-0.842-2.311-2.065-2.311h-5.524v2.996
		h-1.518v-4.494h7.042c0.844,0,1.771,0.3,2.319,0.813c0.844,0.814,1.266,1.798,1.266,2.996c0,2.268-1.35,3.553-3.585,3.553h-9.909
		v-12.882h9.74c5.945,0,9.403,3.381,9.403,9.329c0,2.183-0.505,4.066-1.475,5.563C187.744,127.648,188.292,129.488,188.292,131.713"
		/>
</g>
<path fill="#BA9663" d="M219.123,136.591v1.584h-8.308V111h1.519v25.591H219.123z M221.991,133.811V141H205.08v-30h4.344v27.175
	h-1.561V112.54h-1.265v26.919h13.874v-4.108h-6.874v-1.54H221.991z"/>
<polygon fill="#BA9663" points="245.946,111.043 245.946,141 238.651,141 238.651,111.043 243.079,111.043 243.079,138.132 
	241.561,138.132 241.561,112.584 240.169,112.584 240.169,139.459 244.428,139.459 244.428,111.043 "/>
<g>
	<defs>
		<rect id="SVGID_5_" width="300" height="250"/>
	</defs>
	<clipPath id="SVGID_6_">
		<use xlink:href="#SVGID_5_"  overflow="visible"/>
	</clipPath>
	<path clip-path="url(#SVGID_6_)" fill="#BA9663" d="M287.233,137.319c-3.754,2.611-6.537,3.681-9.867,3.681
		c-2.616,0-5.062-0.685-7.296-2.012c-4.513-2.696-7.422-7.66-7.422-12.924c0-2.654,0.675-5.135,2.023-7.489
		c2.657-4.622,7.339-7.404,12.694-7.404c3.71,0,7.252,1.413,9.951,3.851l0.59,0.6l-1.053,1.112l-0.338-0.342l-0.253-0.214
		c-2.404-2.268-5.567-3.509-8.897-3.509c-2.363,0-4.555,0.599-6.579,1.797c-4.091,2.397-6.621,6.804-6.621,11.598
		c0,2.396,0.59,4.622,1.771,6.676c2.361,4.109,6.705,6.676,11.429,6.676c2.867,0,5.271-0.854,8.349-2.91l-2.361-3.552
		c-2.403,1.541-4.006,2.14-5.987,2.14c-1.519,0-2.953-0.428-4.344-1.24c-2.741-1.669-4.513-4.75-4.513-7.789
		c0-1.584,0.422-3.082,1.223-4.493c1.645-2.868,4.386-4.494,7.634-4.494c1.854,0,3.584,0.556,5.145,1.626
		c0.084,0.086,0.168,0.128,0.295,0.171l0.928-1.07l-0.337-0.299c-1.982-1.327-3.965-1.969-6.03-1.969
		c-2.742,0-5.355,1.07-7.338,3.124c-1.983,2.011-3.036,4.622-3.036,7.404c0,2.78,1.053,5.435,3.036,7.445
		c1.982,2.013,4.596,3.125,7.338,3.125c1.981,0,3.794-0.557,5.523-1.712l0.844,1.284c-1.982,1.284-4.09,1.925-6.367,1.925
		c-3.164,0-6.158-1.282-8.393-3.552c-2.235-2.268-3.5-5.307-3.5-8.516c0-3.21,1.265-6.163,3.5-8.559
		c2.319-2.268,5.229-3.51,8.393-3.51c2.572,0,4.891,0.771,6.873,2.312c0.548,0.342,0.927,0.641,1.138,0.855l0.465,0.471
		l-2.825,3.381l-0.632-0.47c-0.212-0.214-0.466-0.429-0.76-0.6c-1.224-0.898-2.656-1.369-4.259-1.369
		c-1.308,0-2.489,0.342-3.627,0.984c-2.277,1.326-3.711,3.723-3.711,6.505c0,1.284,0.337,2.481,1.054,3.637
		c1.35,2.311,3.753,3.809,6.284,3.809c1.813,0,3.12-0.513,5.776-2.268l0.675-0.428l4.006,6.12L287.233,137.319z"/>
</g>
<g>
	<defs>
		<rect id="SVGID_7_" width="300" height="250"/>
	</defs>
	<clipPath id="SVGID_8_">
		<use xlink:href="#SVGID_7_"  overflow="visible"/>
	</clipPath>
	<rect clip-path="url(#SVGID_8_)" fill="none" stroke="#000000" stroke-width="0.25" width="300" height="250"/>
</g>
</svg>
