<?xml version="1.0" encoding="UTF-8"?><svg id="Layer_3" xmlns="http://www.w3.org/2000/svg" xmlns:xlink="http://www.w3.org/1999/xlink" viewBox="0 0 600 150"><defs><style>.cls-1{fill:none;}.cls-2{clip-path:url(#clippath);}.cls-3{fill:#ecfbfb;}.cls-4{fill:#ff3008;}.cls-5{fill:#27346b;}.cls-6{fill:#c6e6f5;fill-rule:evenodd;}</style><clipPath id="clippath"><rect class="cls-1" x="314.38" y="8.47" width="284.81" height="133.93"/></clipPath></defs><rect class="cls-3" x="-.03" y="-.98" width="600.41" height="144.08"/><g class="cls-2"><polygon class="cls-6" points="499.79 52.65 496.48 46.28 491.95 46.28 488.65 52.65 488.65 65.61 482.84 65.61 482.84 45.3 476.29 45.3 475.72 45.3 474.55 45.3 474.55 69.17 468.38 69.17 468.38 56.07 465.37 56.07 465.37 54.86 463.13 54.86 462.57 54.86 460.85 54.86 460.85 56.07 457.84 56.07 457.84 70.63 456.02 70.63 456.02 48.69 445.48 48.69 445.48 70.63 443.41 70.63 443.41 44.55 440.09 42.87 439.25 42.87 439.25 41.45 432.91 41.45 432.91 42.87 432.33 42.87 429.16 44.55 429.16 66.98 427.36 66.98 427.36 58 421.69 53.89 413.72 53.89 413.72 71.57 411.51 71.57 411.51 59.63 398.94 59.63 398.94 63.86 396.33 63.86 396.33 51.92 386.14 51.92 386.14 71.04 382.57 71.04 378.32 71.04 378.32 93.65 378.32 88.09 368.13 88.09 368.13 112.92 364.34 112.92 364.34 106.41 355.54 106.41 355.54 137.13 352.02 137.13 352.02 128 341.82 128 341.82 136.64 341.82 202.84 338.5 202.84 335.84 202.84 335.84 193.73 328.49 193.73 328.49 207.17 324.7 207.17 324.7 181.43 311.43 178.64 311.43 211.7 309.27 211.7 309.27 188.77 307.47 188.77 307.47 187.91 302.48 187.91 302.48 188.77 300.69 188.77 300.69 203.67 298.25 203.67 298.25 188.77 290.9 188.77 290.9 201.95 289.66 201.95 289.66 184.9 286.02 184.9 286.02 183.7 279.76 183.7 279.76 184.9 277.24 184.9 277.24 201.4 275 201.4 275 191.64 273.6 190.48 264.77 190.48 264.05 191.64 261.34 191.64 261.34 201.4 258.26 201.4 258.26 176.82 256.56 176.82 256.56 175.93 251.17 175.93 249.77 176.82 247.71 176.82 247.71 178.39 242.62 178.39 242.62 187.49 229.9 187.49 229.9 198.58 227.74 198.58 227.74 181.74 212.63 181.74 212.63 194.5 210.5 194.5 210.5 190.53 200.31 190.53 200.31 194.42 199.01 194.42 199.01 180.57 188.82 180.57 188.82 206.56 186.21 206.56 186.21 185.25 176.02 185.25 176.02 189.48 171.52 189.48 171.52 176.34 171.52 174.01 171.52 172.13 165.66 172.13 165.66 174.01 158.01 174.01 158.01 197.9 154.21 197.9 154.21 193.52 143.65 193.52 143.65 197.86 141.89 197.86 141.89 179.68 139.72 177.09 128.5 180.74 128.5 202.98 126.63 202.98 126.63 193.73 116.47 193.73 116.47 202.98 114.58 202.98 114.58 190.64 109.53 185.12 101.3 185.12 101.3 288.05 833.12 267.81 833.12 71.57 831.24 71.57 831.24 57.43 821.05 57.43 821.05 63.86 818.45 63.86 818.45 51.92 808.25 51.92 808.25 71.04 805.93 71.04 805.93 65.48 777.8 65.48 777.8 73.35 774.01 73.35 774.01 57.58 765.21 57.58 761.69 66.69 761.69 51.54 756.86 51.54 756.86 64.88 755.14 64.88 753.54 62.06 752.97 62.06 752.97 73.08 750.88 73.08 750.88 57.09 741.64 57.09 741.64 62.84 739.74 62.84 739.74 44.79 727.11 41.99 727.11 75.05 725.71 75.05 725.71 52.12 723.91 52.12 723.91 51.27 717.52 51.27 717.52 52.12 715.73 52.12 715.73 67.03 713.29 67.03 713.29 60 713.02 60 709.64 61.94 709.64 48.26 708.14 48.26 708.14 47.06 706.93 47.06 706.93 44.74 703.48 44.74 703.48 47.06 702.51 47.06 702.51 48.26 700.63 48.26 700.63 64.03 694.83 64.03 694.83 55 693.42 55 693.42 53.84 689.96 53.84 689.24 55 686.53 55 686.53 68.04 682.93 68.04 682.93 48.85 681.23 48.85 681.23 44.42 673.28 44.42 671.88 48.85 669.82 48.85 669.82 70.63 663.78 70.63 663.78 50.85 653.24 50.85 653.24 70.63 649.68 70.63 649.68 45.1 647.95 45.1 644.51 41.82 641.06 45.1 638.85 45.1 638.85 70.63 632.61 70.63 632.61 53.89 622.42 53.89 621.12 43.93 610.93 43.93 610.93 69.91 608.32 69.91 608.32 48.61 603.34 48.61 603.34 50.13 598.84 50.13 598.73 53.06 592.31 53.06 592.31 50.85 591.07 50.85 591.07 49.32 579.69 49.32 579.69 50.85 578.42 50.85 578.42 65.46 573.41 65.46 573.41 45.1 569.88 45.1 569.88 43.89 565.86 43.89 565.86 45.1 562.33 45.1 562.33 67.43 560.19 63.98 560.19 47.24 559.12 47.24 559.12 46.04 552.3 46.04 552.3 47.24 550 47.24 548.7 36.54 538.51 36.54 538.51 64.83 535.9 64.83 535.9 48.61 525.71 48.61 522.94 53.89 520.56 53.89 519.4 57.09 501.03 57.09 499.79 58.05 499.79 52.65 499.79 52.65"/></g><g><polygon class="cls-4" points="423 83.95 443.56 155.41 448.29 155.41 423 78.78 397.71 155.41 402.44 155.41 423 83.95"/><rect class="cls-5" x="385.89" y="138.19" width="75.91" height="3.66"/></g></svg>