<?xml version="1.0" encoding="UTF-8"?><svg id="Layer_2" xmlns="http://www.w3.org/2000/svg" viewBox="0 0 240.87 14.06"><defs><style>.cls-1{fill:#27346b;}</style></defs><g id="Layer_3"><g><path class="cls-1" d="M0,.38H10.07V3.8H3.61v2.28h4.94v3.23H3.61v4.37H0V.38Z"/><path class="cls-1" d="M18.52,0c4.25,0,7.41,3.13,7.41,7.03s-3.15,7.03-7.41,7.03-7.41-3.13-7.41-7.03S14.26,0,18.52,0Zm0,10.73c2.07,0,3.7-1.62,3.7-3.71s-1.63-3.7-3.7-3.7-3.71,1.63-3.71,3.7,1.62,3.71,3.71,3.71Z"/><path class="cls-1" d="M28.16,.38h6.27c2.83,0,4.84,1.99,4.84,4.56,0,1.44-.55,2.37-1.14,2.96-.32,.34-.7,.63-1.14,.84l2.75,4.94h-3.8l-2.18-4.18h-2v4.18h-3.61V.38Zm6.08,5.89c.86,0,1.42-.57,1.42-1.33s-.57-1.33-1.42-1.33h-2.47v2.66h2.47Z"/><path class="cls-1" d="M48.97,8.93L44.22,.38h3.99l2.53,5.22h.08L53.34,.38h3.99l-4.75,8.55v4.75h-3.61v-4.75Z"/><path class="cls-1" d="M64.48,0c4.25,0,7.41,3.13,7.41,7.03s-3.15,7.03-7.41,7.03-7.41-3.13-7.41-7.03,3.15-7.03,7.41-7.03Zm0,10.73c2.07,0,3.7-1.62,3.7-3.71s-1.63-3.7-3.7-3.7-3.71,1.63-3.71,3.7,1.62,3.71,3.71,3.71Z"/><path class="cls-1" d="M73.99,.38h3.61v7.79c0,1.52,1.04,2.56,2.47,2.56s2.47-1.04,2.47-2.56V.38h3.61v7.79c0,3.42-2.49,5.89-6.08,5.89s-6.08-2.47-6.08-5.89V.38Z"/><path class="cls-1" d="M96.7,.38h3.99l5.03,13.3h-3.89l-.95-2.85h-4.37l-.95,2.85h-3.89L96.7,.38Zm3.23,7.5l-1.2-3.8h-.08l-1.2,3.8h2.47Z"/><path class="cls-1" d="M107.15,.38h3.13l5.7,7.31V.38h3.61V13.68h-3.13l-5.7-7.31v7.31h-3.61V.38Z"/><path class="cls-1" d="M122.63,.38h4.94c4.27,0,7.22,2.94,7.22,6.65s-2.94,6.65-7.22,6.65h-4.94V.38Zm4.94,10.07c2.07,0,3.51-1.44,3.51-3.42s-1.44-3.42-3.51-3.42h-1.33v6.84h1.33Z"/><path class="cls-1" d="M142.01,9.69c.21,.21,.46,.4,.72,.57,.46,.29,1.12,.57,1.94,.57,1.14,0,1.71-.57,1.71-1.23s-.57-1.24-1.71-1.24h-1.33v-2.94h1.33c.97,0,1.42-.47,1.42-1.14s-.46-1.14-1.42-1.14c-.67,0-1.22,.25-1.6,.53-.23,.15-.42,.32-.59,.51l-2.09-2.18c.34-.36,.76-.7,1.23-.99,.82-.51,2-1.01,3.51-1.01,2.94,0,4.75,1.8,4.75,3.8,0,1.12-.55,1.8-1.14,2.24-.32,.25-.7,.46-1.14,.61,.49,.17,.93,.4,1.33,.7,.67,.51,1.33,1.33,1.33,2.62,0,2.18-1.9,4.08-5.22,4.08-1.62,0-2.89-.53-3.78-1.08-.51-.32-.95-.7-1.35-1.1l2.09-2.18Z"/><path class="cls-1" d="M156.64,.38h10.07V3.8h-6.46v2.28h4.94v3.23h-4.94v4.37h-3.61V.38Z"/><path class="cls-1" d="M168.67,.38h6.27c2.83,0,4.84,1.99,4.84,4.56,0,1.44-.55,2.37-1.14,2.96-.32,.34-.7,.63-1.14,.84l2.75,4.94h-3.8l-2.18-4.18h-2v4.18h-3.61V.38Zm6.08,5.89c.86,0,1.42-.57,1.42-1.33s-.57-1.33-1.42-1.33h-2.47v2.66h2.47Z"/><path class="cls-1" d="M182.25,.38h3.61V13.68h-3.61V.38Z"/><path class="cls-1" d="M188.86,.38h10.16V3.61h-6.55v1.9h5.03v3.04h-5.03v1.9h6.74v3.23h-10.35V.38Z"/><path class="cls-1" d="M201.65,.38h3.13l5.7,7.31V.38h3.61V13.68h-3.13l-5.7-7.31v7.31h-3.61V.38Z"/><path class="cls-1" d="M217.13,.38h4.94c4.27,0,7.22,2.94,7.22,6.65s-2.94,6.65-7.22,6.65h-4.94V.38Zm4.94,10.07c2.07,0,3.51-1.44,3.51-3.42s-1.44-3.42-3.51-3.42h-1.33v6.84h1.33Z"/><path class="cls-1" d="M232.41,9.5c.23,.27,.49,.51,.78,.72,.51,.36,1.22,.7,2.07,.7,1.14,0,1.71-.55,1.71-1.14,0-1.8-6.27-1.04-6.27-5.7,0-2.09,1.9-4.08,5.03-4.08,1.62,0,2.77,.47,3.53,.95,.44,.29,.82,.59,1.12,.95l-2.09,2.28c-.17-.19-.36-.36-.59-.51-.38-.29-.93-.53-1.6-.53-1.06,0-1.52,.47-1.52,.95,0,1.8,6.27,1.04,6.27,5.7,0,2.28-1.98,4.27-5.22,4.27-1.82,0-3.12-.55-4.01-1.14-.51-.32-.95-.7-1.31-1.14l2.09-2.28Z"/></g></g></svg>