<?xml version="1.0" encoding="utf-8"?>
<!-- Generator: Adobe Illustrator 26.5.0, SVG Export Plug-In . SVG Version: 6.00 Build 0)  -->
<svg version="1.1" id="Layer_3" xmlns="http://www.w3.org/2000/svg" xmlns:xlink="http://www.w3.org/1999/xlink" x="0px" y="0px"
	 viewBox="0 0 600 150" style="enable-background:new 0 0 600 150;" xml:space="preserve">
<style type="text/css">
	.st0{fill:#27346B;}
</style>
<g>
	<path class="st0" d="M70.6,34h2.2v4.8c0,0.9,0.6,1.6,1.5,1.6s1.5-0.6,1.5-1.6V34H78v4.8c0,2.1-1.5,3.6-3.7,3.6s-3.7-1.5-3.7-3.6V34
		z"/>
	<path class="st0" d="M80.5,39.6c0.1,0.2,0.3,0.3,0.5,0.4c0.3,0.2,0.8,0.4,1.3,0.4c0.7,0,1.1-0.3,1.1-0.7c0-1.1-3.8-0.6-3.8-3.5
		c0-1.3,1.2-2.5,3.1-2.5c1,0,1.7,0.3,2.2,0.6c0.3,0.2,0.5,0.4,0.7,0.6l-1.3,1.4c-0.1-0.1-0.2-0.2-0.4-0.3c-0.2-0.2-0.6-0.3-1-0.3
		c-0.7,0-0.9,0.3-0.9,0.6c0,1.1,3.8,0.6,3.8,3.5c0,1.4-1.2,2.6-3.2,2.6c-1.1,0-1.9-0.3-2.5-0.7c-0.3-0.2-0.6-0.4-0.8-0.7L80.5,39.6
		L80.5,39.6z"/>
	<path class="st0" d="M87,34h6.2v2h-4v1.2h3.1V39h-3.1v1.2h4.1v2H87C87,42.1,87,34,87,34z"/>
	<path class="st0" d="M105,40.8c-0.3,0.3-0.6,0.6-0.9,0.8c-0.6,0.4-1.5,0.8-2.7,0.8c-2.6,0-4.6-1.9-4.6-4.3s1.9-4.3,4.6-4.3
		c1.2,0,2,0.4,2.6,0.8c0.3,0.2,0.6,0.5,0.9,0.8l-1.3,1.5c-0.2-0.2-0.4-0.4-0.6-0.5c-0.4-0.3-0.9-0.5-1.6-0.5c-1.3,0-2.3,1-2.3,2.3
		s1,2.3,2.3,2.3c0.7,0,1.2-0.3,1.6-0.5c0.2-0.2,0.4-0.3,0.6-0.5L105,40.8L105,40.8z"/>
	<path class="st0" d="M110.1,33.7c2.6,0,4.6,1.9,4.6,4.3s-1.9,4.3-4.6,4.3s-4.6-1.9-4.6-4.3S107.4,33.7,110.1,33.7z M110.1,40.3
		c1.3,0,2.3-1,2.3-2.3s-1-2.3-2.3-2.3s-2.3,1-2.3,2.3S108.8,40.3,110.1,40.3z"/>
	<path class="st0" d="M116,34h3c2.6,0,4.4,1.8,4.4,4.1s-1.8,4.1-4.4,4.1h-3C116,42.1,116,34,116,34z M119.1,40.2
		c1.3,0,2.2-0.9,2.2-2.1s-0.9-2.1-2.2-2.1h-0.8v4.2C118.2,40.2,119.1,40.2,119.1,40.2z"/>
	<path class="st0" d="M124.9,34h6.2v2h-4v1.2h3.1V39h-3.1v1.2h4.1v2h-6.4C124.9,42.1,124.9,34,124.9,34z"/>
</g>
</svg>
