<?xml version="1.0" encoding="UTF-8"?><svg id="Layer_2" xmlns="http://www.w3.org/2000/svg" viewBox="0 0 230.32 14.06"><defs><style>.cls-1{fill:#27346b;}</style></defs><g id="Layer_3"><g><path class="cls-1" d="M5.03,.38h3.99l5.03,13.3h-3.89l-.95-2.85H4.84l-.95,2.85H0L5.03,.38Zm3.23,7.5l-1.2-3.8h-.08l-1.2,3.8h2.47Z"/><path class="cls-1" d="M19.66,.38h3.61V5.22h4.84V.38h3.61V13.68h-3.61v-5.03h-4.84v5.03h-3.61V.38Z"/><path class="cls-1" d="M41.38,0c4.25,0,7.41,3.13,7.41,7.03s-3.15,7.03-7.41,7.03-7.41-3.13-7.41-7.03,3.15-7.03,7.41-7.03Zm0,10.73c2.07,0,3.7-1.62,3.7-3.71s-1.63-3.7-3.7-3.7-3.71,1.63-3.71,3.7,1.62,3.71,3.71,3.71Z"/><path class="cls-1" d="M51.02,.38h3.61V10.26h5.79v3.42h-9.4V.38Z"/><path class="cls-1" d="M62.08,.38h3.61V13.68h-3.61V.38Z"/><path class="cls-1" d="M68.69,.38h4.94c4.27,0,7.22,2.94,7.22,6.65s-2.94,6.65-7.22,6.65h-4.94V.38Zm4.94,10.07c2.07,0,3.51-1.44,3.51-3.42s-1.44-3.42-3.51-3.42h-1.33v6.84h1.33Z"/><path class="cls-1" d="M85.98,.38h3.99l5.03,13.3h-3.89l-.95-2.85h-4.37l-.95,2.85h-3.89L85.98,.38Zm3.23,7.5l-1.2-3.8h-.08l-1.2,3.8h2.47Z"/><path class="cls-1" d="M98.35,8.93L93.6,.38h3.99l2.53,5.22h.08l2.53-5.22h3.99l-4.75,8.55v4.75h-3.61v-4.75Z"/><path class="cls-1" d="M114.79,3.61h-3.7V.38h11.02V3.61h-3.7V13.68h-3.61V3.61Z"/><path class="cls-1" d="M130.41,0c4.25,0,7.41,3.13,7.41,7.03s-3.15,7.03-7.41,7.03-7.41-3.13-7.41-7.03,3.15-7.03,7.41-7.03Zm0,10.73c2.07,0,3.7-1.62,3.7-3.71s-1.63-3.7-3.7-3.7-3.71,1.63-3.71,3.7,1.62,3.71,3.71,3.71Z"/><path class="cls-1" d="M144.28,.38h3.61V10.26h5.79v3.42h-9.4V.38Z"/><path class="cls-1" d="M162.05,0c4.25,0,7.41,3.13,7.41,7.03s-3.15,7.03-7.41,7.03-7.41-3.13-7.41-7.03,3.15-7.03,7.41-7.03Zm0,10.73c2.07,0,3.7-1.62,3.7-3.71s-1.63-3.7-3.7-3.7-3.71,1.63-3.71,3.7,1.62,3.71,3.71,3.71Z"/><path class="cls-1" d="M171.7,.38h3.13l5.7,7.31V.38h3.61V13.68h-3.13l-5.7-7.31v7.31h-3.61V.38Z"/><path class="cls-1" d="M187.18,.38h4.94c4.27,0,7.22,2.94,7.22,6.65s-2.94,6.65-7.22,6.65h-4.94V.38Zm4.94,10.07c2.07,0,3.51-1.44,3.51-3.42s-1.44-3.42-3.51-3.42h-1.33v6.84h1.33Z"/><path class="cls-1" d="M208.23,0c4.25,0,7.41,3.13,7.41,7.03s-3.15,7.03-7.41,7.03-7.41-3.13-7.41-7.03,3.15-7.03,7.41-7.03Zm0,10.73c2.07,0,3.7-1.62,3.7-3.71s-1.63-3.7-3.7-3.7-3.71,1.63-3.71,3.7,1.62,3.71,3.71,3.71Z"/><path class="cls-1" d="M217.87,.38h3.13l5.7,7.31V.38h3.61V13.68h-3.13l-5.7-7.31v7.31h-3.61V.38Z"/></g></g></svg>