<?xml version="1.0" encoding="UTF-8"?><svg id="Layer_2" xmlns="http://www.w3.org/2000/svg" viewBox="0 0 120.03 28.69"><defs><style>.cls-1{fill:#fff;}.cls-2{fill:#ff3008;}</style></defs><g id="Layer_3"><g><rect class="cls-2" x="0" y="0" width="120.03" height="28.69" rx="13.58" ry="13.58"/><g><path class="cls-1" d="M22.5,9.74c2.89,0,5.04,2.13,5.04,4.78s-2.15,4.78-5.04,4.78-5.04-2.13-5.04-4.78,2.15-4.78,5.04-4.78Zm0,7.3c1.41,0,2.52-1.1,2.52-2.52s-1.11-2.52-2.52-2.52-2.52,1.11-2.52,2.52,1.1,2.52,2.52,2.52Z"/><path class="cls-1" d="M29.09,10h4.26c1.93,0,3.3,1.36,3.3,3.1,0,.98-.38,1.62-.78,2.02-.22,.23-.48,.43-.78,.57l1.87,3.36h-2.58l-1.49-2.84h-1.36v2.84h-2.46V10Zm4.14,4.01c.58,0,.97-.39,.97-.91s-.39-.9-.97-.9h-1.68v1.81h1.68Z"/><path class="cls-1" d="M38.36,10h3.36c2.91,0,4.91,2,4.91,4.52s-2,4.52-4.91,4.52h-3.36V10Zm3.36,6.85c1.41,0,2.39-.98,2.39-2.33s-.98-2.33-2.39-2.33h-.91v4.65h.91Z"/><path class="cls-1" d="M48.19,10h6.91v2.2h-4.46v1.29h3.42v2.07h-3.42v1.29h4.59v2.2h-7.04V10Z"/><path class="cls-1" d="M56.91,10h4.26c1.93,0,3.3,1.36,3.3,3.1,0,.98-.38,1.62-.78,2.02-.22,.23-.48,.43-.78,.57l1.87,3.36h-2.58l-1.49-2.84h-1.36v2.84h-2.46V10Zm4.14,4.01c.58,0,.97-.39,.97-.91s-.39-.9-.97-.9h-1.68v1.81h1.68Z"/><path class="cls-1" d="M69,10h2.13l3.88,4.98v-4.98h2.46v9.05h-2.13l-3.88-4.98v4.98h-2.46V10Z"/><path class="cls-1" d="M84.06,9.74c2.89,0,5.04,2.13,5.04,4.78s-2.15,4.78-5.04,4.78-5.04-2.13-5.04-4.78,2.15-4.78,5.04-4.78Zm0,7.3c1.41,0,2.52-1.1,2.52-2.52s-1.11-2.52-2.52-2.52-2.52,1.11-2.52,2.52,1.1,2.52,2.52,2.52Z"/><path class="cls-1" d="M89.38,10h2.65l1.42,5.3h.06l1.62-5.3h2.2l1.62,5.3h.07l1.42-5.3h2.65l-2.97,9.05h-2.2l-1.65-5.43h-.05l-1.65,5.43h-2.2l-2.97-9.05Z"/></g></g></g></svg>