<?xml version="1.0" encoding="utf-8"?>
<!-- Generator: Adobe Illustrator 26.5.0, SVG Export Plug-In . SVG Version: 6.00 Build 0)  -->
<svg version="1.1" id="Layer_3" xmlns="http://www.w3.org/2000/svg" xmlns:xlink="http://www.w3.org/1999/xlink" x="0px" y="0px"
	 viewBox="0 0 600 150" style="enable-background:new 0 0 600 150;" xml:space="preserve">
<style type="text/css">
	.st0{fill:#273B6B;}
</style>
<g>
	<path class="st0" d="M78.4,111.4h0.9l2.4,3.1l2.4-3.1h0.9v6.4h-1v-4.7l-2.3,3l-2.3-3v4.7h-1L78.4,111.4L78.4,111.4z"/>
	<path class="st0" d="M87.1,111.5c0.3,0,0.6,0.2,0.6,0.6s-0.3,0.6-0.6,0.6s-0.6-0.2-0.6-0.6S86.8,111.5,87.1,111.5z M86.6,113.4h0.9
		v4.4h-0.9V113.4z"/>
	<path class="st0" d="M88.9,113.4h0.9v0.6c0.1-0.1,0.2-0.2,0.3-0.4c0.2-0.2,0.6-0.4,1-0.4c1,0,1.7,0.7,1.7,1.9v2.6H92v-2.6
		c0-0.7-0.4-1.1-1-1.1c-0.7,0-1.2,0.5-1.2,1.2v2.4h-0.9L88.9,113.4L88.9,113.4z"/>
	<path class="st0" d="M98.1,113.3c1.3,0,2.3,1,2.3,2.3s-1,2.3-2.3,2.3s-2.3-1-2.3-2.3S96.8,113.3,98.1,113.3z M99.4,115.6
		c0-0.8-0.6-1.4-1.4-1.4s-1.4,0.6-1.4,1.4s0.6,1.4,1.4,1.4S99.4,116.4,99.4,115.6z"/>
	<path class="st0" d="M101.3,113.4h0.9v0.6c0.1-0.1,0.2-0.2,0.3-0.3c0.2-0.2,0.5-0.3,1-0.3h0.2v1l-0.1,0c-0.1,0-0.2,0-0.2,0
		c-0.6,0-1.2,0.6-1.2,1.3v2.2h-0.9V113.4L101.3,113.4z"/>
	<path class="st0" d="M107.8,117.2c-0.1,0.1-0.2,0.2-0.3,0.4c-0.2,0.2-0.6,0.4-1.2,0.4c-1.1,0-2.1-1-2.1-2.3s0.9-2.3,2.1-2.3
		c0.5,0,0.9,0.2,1.2,0.4c0.2,0.1,0.3,0.2,0.3,0.4v-2.6h0.9v6.4h-0.9V117.2L107.8,117.2z M107.8,115.6c0-0.8-0.6-1.4-1.3-1.4
		s-1.3,0.6-1.3,1.4s0.6,1.4,1.3,1.4S107.8,116.4,107.8,115.6z"/>
	<path class="st0" d="M113.9,117.1c-0.1,0.2-0.3,0.3-0.5,0.4c-0.3,0.2-0.8,0.4-1.4,0.4c-1.3,0-2.3-1-2.3-2.3s1-2.3,2.2-2.3
		s2.1,0.9,2.1,2.1c0,0.1,0,0.2,0,0.3l0,0.1h-3.4c0.1,0.6,0.6,1.1,1.4,1.1c0.4,0,0.7-0.2,0.9-0.3c0.1-0.1,0.2-0.2,0.3-0.3
		L113.9,117.1L113.9,117.1z M113.1,115.1c-0.1-0.6-0.5-1-1.2-1c-0.7,0-1.1,0.4-1.3,1H113.1L113.1,115.1z"/>
	<path class="st0" d="M115.1,113.4h0.9v0.6c0.1-0.1,0.2-0.2,0.3-0.3c0.2-0.2,0.5-0.3,1-0.3h0.2v1l-0.1,0c-0.1,0-0.2,0-0.2,0
		c-0.6,0-1.2,0.6-1.2,1.3v2.2h-0.9V113.4L115.1,113.4z"/>
	<path class="st0" d="M120.4,116.2c0.1,0.1,0.2,0.2,0.4,0.4c0.3,0.2,0.7,0.4,1.2,0.4c0.8,0,1.3-0.4,1.3-1c0-1.4-3.4-0.6-3.4-2.9
		c0-0.9,0.7-1.6,1.7-1.7v-0.9h0.9v0.9c0.5,0.1,0.9,0.3,1.2,0.5c0.2,0.1,0.3,0.2,0.4,0.3l-0.7,0.7c-0.1-0.1-0.2-0.2-0.3-0.3
		c-0.2-0.2-0.6-0.3-1-0.3c-0.8,0-1.2,0.4-1.2,0.9c0,1.4,3.4,0.6,3.4,2.9c0,1-0.7,1.7-1.8,1.8v0.9h-0.9v-0.9
		c-0.7-0.1-1.1-0.3-1.4-0.5c-0.2-0.1-0.3-0.2-0.5-0.4L120.4,116.2L120.4,116.2z"/>
	<path class="st0" d="M129.2,116.8v1H125c0-2.9,3.3-2.9,3.3-4.5c0-0.6-0.4-1-1.1-1c-0.5,0-0.8,0.2-1,0.4c-0.1,0.1-0.2,0.3-0.2,0.4
		l-0.8-0.4c0.1-0.3,0.2-0.5,0.4-0.7c0.3-0.4,0.8-0.7,1.7-0.7c1.3,0,2.1,0.9,2.1,2c0,1.9-2.4,2.1-3.1,3.6L129.2,116.8L129.2,116.8z"
		/>
	<path class="st0" d="M130.2,114.6c0-2.1,1.2-3.3,2.6-3.3s2.6,1.2,2.6,3.3s-1.2,3.3-2.6,3.3S130.2,116.7,130.2,114.6z M132.9,112.2
		c-0.9,0-1.6,0.8-1.6,2.4s0.8,2.4,1.6,2.4s1.6-0.8,1.6-2.4S133.8,112.2,132.9,112.2z"/>
	<path class="st0" d="M136.4,117.3c0-0.3,0.3-0.6,0.6-0.6s0.6,0.3,0.6,0.6s-0.3,0.6-0.6,0.6S136.4,117.6,136.4,117.3z"/>
	<path class="st0" d="M140.1,111.4h1.1l2,5.1l2-5.1h1.1l-2.5,6.4h-1.1L140.1,111.4L140.1,111.4z"/>
	<path class="st0" d="M147.2,111.5c0.3,0,0.6,0.2,0.6,0.6s-0.3,0.6-0.6,0.6s-0.6-0.2-0.6-0.6S146.9,111.5,147.2,111.5z M146.7,113.4
		h0.9v4.4h-0.9V113.4z"/>
	<path class="st0" d="M149.1,116.5c0.1,0.1,0.2,0.2,0.3,0.3c0.2,0.2,0.5,0.3,0.8,0.3c0.5,0,0.8-0.3,0.8-0.6c0-0.7-2.3-0.3-2.3-1.9
		c0-0.7,0.6-1.3,1.6-1.3c0.5,0,0.9,0.2,1.2,0.3c0.1,0.1,0.3,0.2,0.4,0.3l-0.6,0.6c-0.1-0.1-0.2-0.1-0.2-0.2
		c-0.2-0.1-0.4-0.2-0.7-0.2c-0.5,0-0.7,0.2-0.7,0.5c0,0.7,2.3,0.4,2.3,1.9c0,0.7-0.6,1.4-1.7,1.4c-0.6,0-1-0.2-1.3-0.4
		c-0.2-0.1-0.3-0.2-0.4-0.4L149.1,116.5L149.1,116.5z"/>
	<path class="st0" d="M153.4,111.5c0.3,0,0.6,0.2,0.6,0.6s-0.3,0.6-0.6,0.6s-0.6-0.2-0.6-0.6S153.1,111.5,153.4,111.5z M152.9,113.4
		h0.9v4.4h-0.9V113.4z"/>
	<path class="st0" d="M155.6,114.3h-0.8v-0.9h0.5c0.3,0,0.4-0.1,0.4-0.5v-1h0.8v1.5h1v0.9h-1v2.1c0,0.5,0.2,0.7,0.6,0.7
		c0.1,0,0.2,0,0.4-0.1l0.1-0.1v0.9l-0.2,0.1c-0.1,0-0.3,0.1-0.5,0.1c-0.9,0-1.4-0.5-1.4-1.5L155.6,114.3L155.6,114.3z"/>
	<path class="st0" d="M160.7,111.4h0.9v6.4h-0.9V111.4z"/>
	<path class="st0" d="M164.9,113.3c1.3,0,2.3,1,2.3,2.3s-1,2.3-2.3,2.3s-2.3-1-2.3-2.3S163.7,113.3,164.9,113.3z M166.3,115.6
		c0-0.8-0.6-1.4-1.4-1.4s-1.4,0.6-1.4,1.4s0.6,1.4,1.4,1.4S166.3,116.4,166.3,115.6z"/>
	<path class="st0" d="M168.2,113.4h0.9v0.6c0.1-0.1,0.2-0.2,0.3-0.4c0.2-0.2,0.6-0.4,1-0.4c1,0,1.7,0.7,1.7,1.9v2.6h-0.9v-2.6
		c0-0.7-0.4-1.1-1-1.1c-0.7,0-1.2,0.5-1.2,1.2v2.4h-0.9L168.2,113.4L168.2,113.4z"/>
	<path class="st0" d="M176.8,117.2c-0.1,0.1-0.2,0.2-0.4,0.4c-0.2,0.2-0.6,0.4-1.1,0.4c-1.1,0-2.1-1-2.1-2.3s1-2.3,2.1-2.3
		c0.5,0,0.9,0.2,1.1,0.4c0.1,0.1,0.3,0.2,0.4,0.4v-2.6h0.9v6.4h-0.9V117.2L176.8,117.2z M176.8,115.6c0-0.8-0.6-1.4-1.3-1.4
		s-1.3,0.6-1.3,1.4s0.6,1.4,1.3,1.4S176.8,116.4,176.8,115.6z"/>
	<path class="st0" d="M181,113.3c1.3,0,2.3,1,2.3,2.3s-1,2.3-2.3,2.3s-2.3-1-2.3-2.3S179.7,113.3,181,113.3z M182.4,115.6
		c0-0.8-0.6-1.4-1.4-1.4s-1.4,0.6-1.4,1.4s0.6,1.4,1.4,1.4S182.4,116.4,182.4,115.6z"/>
	<path class="st0" d="M184.3,113.4h0.9v0.6c0.1-0.1,0.2-0.2,0.3-0.4c0.2-0.2,0.6-0.4,1-0.4c1,0,1.7,0.7,1.7,1.9v2.6h-0.9v-2.6
		c0-0.7-0.4-1.1-1-1.1c-0.7,0-1.2,0.5-1.2,1.2v2.4h-0.9L184.3,113.4L184.3,113.4z"/>
	<path class="st0" d="M193.4,117c-0.1,0.2-0.3,0.3-0.5,0.4c-0.3,0.2-0.8,0.5-1.4,0.5c-1.3,0-2.3-1-2.3-2.3s1-2.3,2.3-2.3
		c0.6,0,1.1,0.2,1.4,0.4c0.2,0.1,0.3,0.3,0.4,0.4l-0.6,0.6c-0.1-0.1-0.2-0.2-0.3-0.3c-0.2-0.2-0.5-0.3-0.9-0.3
		c-0.8,0-1.4,0.6-1.4,1.4s0.6,1.4,1.4,1.4c0.4,0,0.7-0.2,0.9-0.3c0.1-0.1,0.2-0.2,0.3-0.3L193.4,117L193.4,117z"/>
	<path class="st0" d="M196.8,117.2c-0.1,0.1-0.2,0.2-0.3,0.4c-0.2,0.2-0.6,0.4-1.1,0.4c-0.9,0-1.5-0.6-1.5-1.3
		c0-0.7,0.5-1.2,1.3-1.4l1.6-0.3c0-0.5-0.4-0.8-0.9-0.8c-0.4,0-0.6,0.2-0.8,0.3c-0.1,0.1-0.2,0.2-0.3,0.3l-0.6-0.6
		c0.1-0.2,0.3-0.3,0.4-0.4c0.3-0.2,0.7-0.4,1.3-0.4c1.1,0,1.8,0.7,1.8,1.7v2.8h-0.9V117.2L196.8,117.2z M196.8,115.7l-1.3,0.2
		c-0.5,0.1-0.7,0.3-0.7,0.6c0,0.3,0.3,0.6,0.7,0.6c0.7,0,1.2-0.6,1.2-1.3L196.8,115.7L196.8,115.7z"/>
	<path class="st0" d="M199,111.4h0.9v6.4H199V111.4z"/>
	<path class="st0" d="M201.3,111.4h0.9v6.4h-0.9V111.4z"/>
	<path class="st0" d="M204,111.5c0.3,0,0.6,0.2,0.6,0.6s-0.3,0.6-0.6,0.6s-0.6-0.2-0.6-0.6S203.7,111.5,204,111.5z M203.6,113.4h0.9
		v4.4h-0.9V113.4z"/>
	<path class="st0" d="M205.8,113.4h0.9v0.6c0.1-0.1,0.2-0.2,0.3-0.4c0.2-0.2,0.6-0.4,1-0.4c1,0,1.7,0.7,1.7,1.9v2.6h-0.9v-2.6
		c0-0.7-0.4-1.1-1-1.1c-0.7,0-1.2,0.5-1.2,1.2v2.4h-0.9L205.8,113.4L205.8,113.4z"/>
	<path class="st0" d="M211.6,118.2c0.1,0.1,0.2,0.2,0.3,0.3c0.2,0.2,0.5,0.3,0.9,0.3c0.8,0,1.4-0.5,1.4-1.4V117
		c-0.1,0.1-0.2,0.2-0.4,0.3c-0.2,0.2-0.6,0.3-1.1,0.3c-1.1,0-2-0.9-2-2.2s0.9-2.2,2-2.2c0.5,0,0.8,0.2,1.1,0.3
		c0.1,0.1,0.2,0.2,0.4,0.3v-0.6h0.9v4c0,1.3-0.9,2.3-2.3,2.3c-0.6,0-1.1-0.2-1.4-0.5c-0.2-0.1-0.3-0.3-0.5-0.5L211.6,118.2
		L211.6,118.2z M214.2,115.5c0-0.8-0.6-1.3-1.2-1.3s-1.2,0.5-1.2,1.3s0.5,1.3,1.2,1.3S214.2,116.3,214.2,115.5z"/>
	<path class="st0" d="M216.1,117.3c0-0.3,0.3-0.6,0.6-0.6s0.6,0.3,0.6,0.6s-0.3,0.6-0.6,0.6S216.1,117.6,216.1,117.3z"/>
	<path class="st0" d="M222.2,117c-0.1,0.2-0.3,0.3-0.5,0.4c-0.3,0.2-0.8,0.5-1.4,0.5c-1.3,0-2.3-1-2.3-2.3s1-2.3,2.3-2.3
		c0.6,0,1.1,0.2,1.4,0.4c0.2,0.1,0.3,0.3,0.4,0.4l-0.6,0.6c-0.1-0.1-0.2-0.2-0.3-0.3c-0.2-0.2-0.5-0.3-0.9-0.3
		c-0.8,0-1.4,0.6-1.4,1.4s0.6,1.4,1.4,1.4c0.4,0,0.7-0.2,0.9-0.3c0.1-0.1,0.2-0.2,0.3-0.3L222.2,117L222.2,117z"/>
	<path class="st0" d="M225,113.3c1.3,0,2.3,1,2.3,2.3s-1,2.3-2.3,2.3s-2.3-1-2.3-2.3S223.7,113.3,225,113.3z M226.4,115.6
		c0-0.8-0.6-1.4-1.4-1.4s-1.4,0.6-1.4,1.4s0.6,1.4,1.4,1.4S226.4,116.4,226.4,115.6z"/>
	<path class="st0" d="M228.3,113.4h0.9v0.6c0.1-0.1,0.2-0.2,0.3-0.4c0.2-0.2,0.5-0.4,1-0.4s0.8,0.2,1,0.4c0.1,0.1,0.2,0.2,0.3,0.4
		c0.1-0.1,0.2-0.2,0.3-0.4c0.2-0.2,0.6-0.4,1.2-0.4c0.9,0,1.6,0.7,1.6,1.9v2.6H234v-2.6c0-0.7-0.4-1-0.9-1c-0.6,0-1.1,0.4-1.1,1.2
		v2.4h-0.9v-2.6c0-0.7-0.4-1-0.9-1c-0.6,0-1.1,0.4-1.1,1.2v2.4h-0.9L228.3,113.4L228.3,113.4z"/>
	<path class="st0" d="M238.4,114.3h-0.7v-0.9h0.7v-0.6c0-1,0.5-1.5,1.4-1.5c0.2,0,0.4,0,0.5,0.1c0.1,0,0.1,0,0.2,0.1v0.9l-0.1-0.1
		c-0.1,0-0.2-0.1-0.4-0.1c-0.4,0-0.6,0.2-0.6,0.7v0.6h1.1v0.9h-1.1v3.5h-0.9L238.4,114.3L238.4,114.3z"/>
	<path class="st0" d="M243.3,113.3c1.3,0,2.3,1,2.3,2.3s-1,2.3-2.3,2.3s-2.3-1-2.3-2.3S242,113.3,243.3,113.3z M244.6,115.6
		c0-0.8-0.6-1.4-1.4-1.4s-1.4,0.6-1.4,1.4s0.6,1.4,1.4,1.4S244.6,116.4,244.6,115.6z"/>
	<path class="st0" d="M246.6,113.4h0.9v0.6c0.1-0.1,0.2-0.2,0.3-0.3c0.2-0.2,0.5-0.3,1-0.3h0.2v1l-0.1,0c-0.1,0-0.1,0-0.2,0
		c-0.6,0-1.2,0.6-1.2,1.3v2.2h-0.9V113.4L246.6,113.4z"/>
	<path class="st0" d="M251.9,114.3h-0.7v-0.9h0.7v-0.6c0-1,0.5-1.5,1.4-1.5c0.2,0,0.4,0,0.5,0.1c0.1,0,0.1,0,0.2,0.1v0.9l-0.1-0.1
		c-0.1,0-0.2-0.1-0.4-0.1c-0.4,0-0.6,0.2-0.6,0.7v0.6h1.1v0.9h-1.1v3.5h-0.9L251.9,114.3L251.9,114.3z"/>
	<path class="st0" d="M254.7,113.4h0.9v2.6c0,0.7,0.4,1.1,1,1.1c0.7,0,1.2-0.5,1.2-1.2v-2.4h0.9v4.4h-0.9v-0.6
		c-0.1,0.1-0.2,0.2-0.4,0.4c-0.2,0.2-0.5,0.4-1,0.4c-1,0-1.7-0.7-1.7-1.9L254.7,113.4L254.7,113.4z"/>
	<path class="st0" d="M260.1,111.4h0.9v6.4h-0.9V111.4z"/>
	<path class="st0" d="M262.3,111.4h0.9v6.4h-0.9V111.4z"/>
	<path class="st0" d="M267.9,112.4H266v-1h4.8v1h-1.9v5.4h-1C267.9,117.8,267.9,112.4,267.9,112.4z"/>
	<path class="st0" d="M275,116c0.1-0.1,0.1-0.2,0.2-0.4c0.1-0.2,0.2-0.6,0.2-0.9h0.8c0,0.6-0.1,1-0.3,1.4c-0.1,0.2-0.2,0.4-0.3,0.6
		c0.1,0.1,0.1,0.2,0.2,0.2c0.1,0.1,0.3,0.2,0.5,0.2c0.1,0,0.1,0,0.2,0l0.1,0v0.8l-0.1,0c-0.1,0-0.2,0-0.3,0c-0.4,0-0.6-0.2-0.8-0.3
		c-0.1-0.1-0.2-0.2-0.3-0.3c-0.1,0.1-0.3,0.2-0.5,0.3c-0.3,0.2-0.7,0.3-1.3,0.3c-1.1,0-1.9-0.7-1.9-1.6c0-0.6,0.3-1.1,0.6-1.4
		c0.2-0.2,0.4-0.3,0.6-0.4c-0.2-0.2-0.3-0.3-0.5-0.5c-0.2-0.3-0.5-0.7-0.5-1.2c0-0.8,0.6-1.5,1.6-1.5s1.5,0.7,1.5,1.4
		c0,0.5-0.3,0.9-0.6,1.2c-0.2,0.2-0.4,0.3-0.6,0.5L275,116L275,116z M273.2,115c-0.1,0.1-0.3,0.2-0.4,0.3c-0.2,0.2-0.4,0.5-0.4,0.9
		c0,0.5,0.4,0.9,1,0.9c0.4,0,0.6-0.1,0.8-0.2c0.1-0.1,0.2-0.2,0.3-0.2L273.2,115L273.2,115z M273.7,113.6c0.2-0.2,0.4-0.5,0.4-0.8
		c0-0.4-0.3-0.6-0.7-0.6c-0.5,0-0.7,0.3-0.7,0.6c0,0.2,0.2,0.5,0.3,0.8c0.1,0.1,0.2,0.2,0.4,0.4
		C273.5,113.8,273.6,113.7,273.7,113.6L273.7,113.6z"/>
	<path class="st0" d="M283.2,116.6c-0.2,0.2-0.4,0.4-0.7,0.6c-0.5,0.3-1.1,0.6-2,0.6c-1.9,0-3.4-1.5-3.4-3.3s1.5-3.3,3.4-3.3
		c0.9,0,1.5,0.3,2,0.6c0.2,0.2,0.5,0.4,0.6,0.6l-0.6,0.6c-0.1-0.2-0.3-0.3-0.5-0.5c-0.3-0.2-0.8-0.5-1.5-0.5c-1.3,0-2.4,1.1-2.4,2.4
		s1,2.4,2.4,2.4c0.6,0,1.1-0.2,1.5-0.5c0.2-0.2,0.4-0.3,0.5-0.5L283.2,116.6L283.2,116.6z"/>
	<path class="st0" d="M284.2,116.5c0.1,0.1,0.2,0.2,0.3,0.3c0.2,0.2,0.5,0.3,0.8,0.3c0.5,0,0.8-0.3,0.8-0.6c0-0.7-2.3-0.3-2.3-1.9
		c0-0.7,0.6-1.3,1.6-1.3c0.5,0,0.9,0.2,1.2,0.3c0.1,0.1,0.3,0.2,0.4,0.3l-0.6,0.6c-0.1-0.1-0.2-0.1-0.2-0.2
		c-0.2-0.1-0.4-0.2-0.7-0.2c-0.5,0-0.7,0.2-0.7,0.5c0,0.7,2.3,0.4,2.3,1.9c0,0.7-0.6,1.4-1.7,1.4c-0.6,0-1-0.2-1.3-0.4
		c-0.2-0.1-0.3-0.2-0.4-0.4L284.2,116.5L284.2,116.5z"/>
	<path class="st0" d="M287.8,117.3c0-0.3,0.3-0.6,0.6-0.6s0.6,0.3,0.6,0.6s-0.3,0.6-0.6,0.6S287.8,117.6,287.8,117.3z"/>
	<path class="st0" d="M86.3,122h0.9l3.5,4.7V122h1v6.4h-0.9l-3.5-4.7v4.7h-1V122z"/>
	<path class="st0" d="M93.6,126.9c0.1,0.1,0.2,0.2,0.4,0.4c0.3,0.2,0.7,0.4,1.2,0.4c0.8,0,1.3-0.4,1.3-1c0-1.4-3.4-0.6-3.4-2.9
		c0-1,0.8-1.8,2.2-1.8c0.7,0,1.2,0.2,1.5,0.4c0.2,0.1,0.4,0.2,0.5,0.4l-0.7,0.7c-0.1-0.1-0.2-0.2-0.3-0.3c-0.2-0.2-0.6-0.3-1-0.3
		c-0.8,0-1.2,0.4-1.2,0.9c0,1.4,3.4,0.6,3.4,2.9c0,1-0.9,1.9-2.3,1.9c-0.8,0-1.3-0.2-1.7-0.5c-0.2-0.1-0.4-0.3-0.6-0.5L93.6,126.9
		L93.6,126.9z"/>
	<path class="st0" d="M97.8,122h1.1l1.6,4.8l1.5-4.8h1l1.5,4.8l1.6-4.8h1.1l-2.1,6.4h-1l-1.5-4.8l-1.5,4.8h-1L97.8,122L97.8,122z"/>
	<path class="st0" d="M110.9,123H109v-1h4.8v1h-1.9v5.4h-1C110.9,128.4,110.9,123,110.9,123z"/>
	<path class="st0" d="M114.9,122h2.6c1.2,0,2.1,0.9,2.1,2.1s-0.9,2.1-2.1,2.1h-1.6v2.3h-1V122z M117.4,125.2c0.6,0,1.1-0.5,1.1-1.1
		s-0.5-1.1-1.1-1.1h-1.6v2.3L117.4,125.2L117.4,125.2z"/>
	<path class="st0" d="M122.7,121.9h0.8l-2.7,8.4H120C120,130.3,122.7,121.9,122.7,121.9z"/>
	<path class="st0" d="M124,125.2c0-2.1,1.2-3.3,2.6-3.3s2.6,1.2,2.6,3.3s-1.2,3.3-2.6,3.3S124,127.3,124,125.2z M126.7,122.8
		c-0.9,0-1.6,0.8-1.6,2.4s0.8,2.4,1.6,2.4s1.6-0.8,1.6-2.4S127.5,122.8,126.7,122.8z"/>
	<path class="st0" d="M134.4,127.4v1h-4.3c0-2.9,3.3-2.9,3.3-4.5c0-0.6-0.4-1-1.1-1c-0.5,0-0.8,0.2-1,0.4c-0.1,0.1-0.2,0.3-0.2,0.4
		l-0.8-0.4c0.1-0.3,0.2-0.5,0.4-0.7c0.3-0.4,0.8-0.7,1.6-0.7c1.3,0,2.1,0.9,2.1,2c0,1.9-2.4,2.1-3.1,3.6L134.4,127.4L134.4,127.4z"
		/>
	<path class="st0" d="M135.4,125.2c0-2.1,1.2-3.3,2.6-3.3s2.6,1.2,2.6,3.3s-1.2,3.3-2.6,3.3S135.4,127.3,135.4,125.2z M138,122.8
		c-0.9,0-1.6,0.8-1.6,2.4s0.8,2.4,1.6,2.4s1.6-0.8,1.6-2.4S138.9,122.8,138,122.8z"/>
	<path class="st0" d="M143.9,122h1.1l-1.5,2.2l0.1,0c0.1,0,0.2,0,0.3,0c1.2,0,2.2,1,2.2,2.1s-1,2.1-2.3,2.1s-2.3-1-2.3-2.1
		c0-0.4,0.1-0.7,0.2-1c0.1-0.2,0.1-0.3,0.2-0.4L143.9,122L143.9,122z M143.8,127.6c0.7,0,1.3-0.6,1.3-1.2s-0.6-1.2-1.3-1.2
		s-1.3,0.6-1.3,1.2S143.1,127.6,143.8,127.6z"/>
	<path class="st0" d="M151.1,127.4v1h-4.3c0-2.9,3.3-2.9,3.3-4.5c0-0.6-0.4-1-1.1-1c-0.5,0-0.8,0.2-1,0.4c-0.1,0.1-0.2,0.3-0.2,0.4
		l-0.8-0.4c0.1-0.3,0.2-0.5,0.4-0.7c0.3-0.4,0.8-0.7,1.7-0.7c1.3,0,2.1,0.9,2.1,2c0,1.9-2.4,2.1-3.1,3.6L151.1,127.4L151.1,127.4z"
		/>
	<path class="st0" d="M152,127.9c0-0.3,0.3-0.6,0.6-0.6s0.6,0.3,0.6,0.6s-0.3,0.6-0.6,0.6S152,128.2,152,127.9z"/>
	<path class="st0" d="M158.2,122h1.1l2.6,6.4h-1.1l-0.6-1.6h-2.8l-0.6,1.6h-1.1L158.2,122L158.2,122z M159.8,125.9l-1.1-2.6
		l-1.1,2.6H159.8L159.8,125.9z"/>
	<path class="st0" d="M168.2,127.2c-0.2,0.2-0.4,0.4-0.7,0.6c-0.4,0.3-1.1,0.6-2,0.6c-1.9,0-3.4-1.5-3.4-3.3s1.5-3.3,3.4-3.3
		c0.9,0,1.5,0.3,1.9,0.6c0.2,0.2,0.5,0.4,0.6,0.6l-0.6,0.6c-0.1-0.2-0.3-0.3-0.5-0.5c-0.3-0.2-0.8-0.5-1.5-0.5
		c-1.3,0-2.4,1.1-2.4,2.4s1.1,2.4,2.4,2.4c0.6,0,1.1-0.2,1.5-0.5c0.2-0.2,0.4-0.3,0.5-0.5L168.2,127.2L168.2,127.2z"/>
	<path class="st0" d="M170.6,123h-1.9v-1h4.8v1h-1.9v5.4h-1C170.6,128.4,170.6,123,170.6,123z"/>
	<path class="st0" d="M177.4,123h-1.9v-1h4.8v1h-1.9v5.4h-1C177.4,128.4,177.4,123,177.4,123z"/>
	<path class="st0" d="M181.4,122h2.6c1.2,0,2.1,0.9,2.1,2.1s-0.9,2.1-2.1,2.1h-1.6v2.3h-1V122z M183.9,125.2c0.6,0,1.1-0.5,1.1-1.1
		s-0.5-1.1-1.1-1.1h-1.6v2.3L183.9,125.2L183.9,125.2z"/>
	<path class="st0" d="M192.7,127.4v1h-4.3c0-2.9,3.3-2.9,3.3-4.5c0-0.6-0.4-1-1.1-1c-0.5,0-0.8,0.2-1,0.4c-0.1,0.1-0.2,0.3-0.2,0.4
		l-0.8-0.4c0.1-0.3,0.2-0.5,0.4-0.7c0.3-0.4,0.8-0.7,1.6-0.7c1.3,0,2.1,0.9,2.1,2c0,1.9-2.4,2.1-3.1,3.6L192.7,127.4L192.7,127.4z"
		/>
	<path class="st0" d="M197.8,127.4v1h-4.3c0-2.9,3.3-2.9,3.3-4.5c0-0.6-0.4-1-1.1-1c-0.5,0-0.8,0.2-1,0.4c-0.1,0.1-0.2,0.3-0.2,0.4
		l-0.8-0.4c0.1-0.3,0.2-0.5,0.4-0.7c0.3-0.4,0.8-0.7,1.7-0.7c1.3,0,2.1,0.9,2.1,2c0,1.9-2.4,2.1-3.1,3.6L197.8,127.4L197.8,127.4z"
		/>
	<path class="st0" d="M201,121.9h0.8l-2.7,8.4h-0.8C198.3,130.3,201,121.9,201,121.9z"/>
	<path class="st0" d="M202.4,125.2c0-2.1,1.2-3.3,2.6-3.3s2.6,1.2,2.6,3.3s-1.2,3.3-2.6,3.3S202.4,127.3,202.4,125.2z M205,122.8
		c-0.9,0-1.6,0.8-1.6,2.4s0.8,2.4,1.6,2.4s1.6-0.8,1.6-2.4S205.9,122.8,205,122.8z"/>
	<path class="st0" d="M209.6,123.5h-1.1v-0.6c0.8-0.1,1.1-0.4,1.4-0.9h0.8v6.4h-1L209.6,123.5L209.6,123.5z"/>
	<path class="st0" d="M212.6,126.9c0.1,0.1,0.2,0.2,0.4,0.4c0.2,0.2,0.6,0.4,1.2,0.4c0.8,0,1.3-0.5,1.3-1.2s-0.5-1.2-1.3-1.2
		c-0.4,0-0.7,0.2-0.9,0.3c-0.1,0.1-0.2,0.2-0.3,0.3l-0.7-0.1l0.2-3.6h3.6v1h-2.7l-0.1,1.6c0.1-0.1,0.2-0.1,0.3-0.2
		c0.2-0.1,0.4-0.2,0.8-0.2c1.2,0,2.1,0.9,2.1,2.1s-0.9,2.1-2.3,2.1c-0.8,0-1.3-0.2-1.7-0.5c-0.2-0.1-0.4-0.3-0.6-0.5L212.6,126.9
		L212.6,126.9z"/>
	<path class="st0" d="M221.3,127.4v1H217c0-2.9,3.3-2.9,3.3-4.5c0-0.6-0.4-1-1.1-1c-0.5,0-0.8,0.2-1,0.4c-0.1,0.1-0.2,0.3-0.2,0.4
		l-0.8-0.4c0.1-0.3,0.2-0.5,0.4-0.7c0.3-0.4,0.8-0.7,1.7-0.7c1.3,0,2.1,0.9,2.1,2c0,1.9-2.4,2.1-3.1,3.6L221.3,127.4L221.3,127.4z"
		/>
	<path class="st0" d="M223.2,123.5h-1.1v-0.6c0.8-0.1,1.1-0.4,1.4-0.9h0.8v6.4h-1L223.2,123.5L223.2,123.5z"/>
	<path class="st0" d="M225.6,127.9c0-0.3,0.3-0.6,0.6-0.6s0.6,0.3,0.6,0.6s-0.3,0.6-0.6,0.6S225.6,128.2,225.6,127.9z"/>
	<path class="st0" d="M230,126.9c0.1,0.1,0.2,0.2,0.4,0.4c0.3,0.2,0.7,0.4,1.2,0.4c0.8,0,1.3-0.4,1.3-1c0-1.4-3.4-0.6-3.4-2.9
		c0-1,0.8-1.8,2.2-1.8c0.6,0,1.1,0.2,1.5,0.4c0.2,0.1,0.4,0.2,0.5,0.4l-0.7,0.7c-0.1-0.1-0.2-0.2-0.3-0.3c-0.2-0.2-0.6-0.3-1-0.3
		c-0.8,0-1.2,0.4-1.2,0.9c0,1.4,3.4,0.6,3.4,2.9c0,1-0.9,1.9-2.3,1.9c-0.8,0-1.4-0.2-1.7-0.5c-0.2-0.1-0.4-0.3-0.6-0.5L230,126.9
		L230,126.9z"/>
	<path class="st0" d="M236.9,122h1.1l2.6,6.4h-1.1l-0.6-1.6H236l-0.6,1.6h-1.1L236.9,122L236.9,122z M238.5,125.9l-1.1-2.6l-1.1,2.6
		H238.5L238.5,125.9z"/>
	<path class="st0" d="M244.3,123h-1.9v-1h4.8v1h-1.9v5.4h-1C244.3,128.4,244.3,123,244.3,123z"/>
	<path class="st0" d="M252,127.4v1h-4.3c0-2.9,3.3-2.9,3.3-4.5c0-0.6-0.4-1-1.1-1c-0.5,0-0.8,0.2-1,0.4c-0.1,0.1-0.2,0.3-0.2,0.4
		l-0.8-0.4c0.1-0.3,0.2-0.5,0.4-0.7c0.3-0.4,0.8-0.7,1.7-0.7c1.3,0,2.1,0.9,2.1,2c0,1.9-2.4,2.1-3.1,3.6L252,127.4L252,127.4z"/>
	<path class="st0" d="M257.1,127.4v1h-4.3c0-2.9,3.3-2.9,3.3-4.5c0-0.6-0.4-1-1.1-1c-0.5,0-0.8,0.2-1,0.4c-0.1,0.1-0.2,0.3-0.2,0.4
		l-0.8-0.4c0.1-0.3,0.2-0.5,0.4-0.7c0.3-0.4,0.8-0.7,1.7-0.7c1.3,0,2.1,0.9,2.1,2c0,1.9-2.4,2.1-3.1,3.6L257.1,127.4L257.1,127.4z"
		/>
	<path class="st0" d="M260.3,121.9h0.8l-2.7,8.4h-0.8C257.6,130.3,260.3,121.9,260.3,121.9z"/>
	<path class="st0" d="M262.6,123.5h-1.1v-0.6c0.8-0.1,1.1-0.4,1.4-0.9h0.8v6.4h-1L262.6,123.5L262.6,123.5z"/>
	<path class="st0" d="M266,123.5h-1.1v-0.6c0.8-0.1,1.1-0.4,1.4-0.9h0.8v6.4h-1L266,123.5L266,123.5z"/>
	<path class="st0" d="M270.9,126.2l-0.1,0c-0.1,0-0.2,0-0.3,0c-1.2,0-2.2-1-2.2-2.1s1-2.1,2.3-2.1s2.3,1,2.3,2.1
		c0,0.4-0.1,0.7-0.2,1c-0.1,0.2-0.1,0.3-0.2,0.4l-1.9,2.9h-1.1L270.9,126.2L270.9,126.2z M270.6,125.3c0.7,0,1.3-0.6,1.3-1.2
		s-0.5-1.2-1.3-1.2s-1.3,0.6-1.3,1.2S269.8,125.3,270.6,125.3z"/>
	<path class="st0" d="M273.7,125.2c0-2.1,1.2-3.3,2.6-3.3s2.6,1.2,2.6,3.3s-1.2,3.3-2.6,3.3S273.7,127.3,273.7,125.2z M276.4,122.8
		c-0.9,0-1.6,0.8-1.6,2.4s0.8,2.4,1.6,2.4s1.6-0.8,1.6-2.4S277.3,122.8,276.4,122.8z"/>
	<path class="st0" d="M279.9,127.9c0-0.3,0.3-0.6,0.6-0.6s0.6,0.3,0.6,0.6s-0.3,0.6-0.6,0.6S279.9,128.2,279.9,127.9z"/>
</g>
</svg>
