<?xml version="1.0" encoding="UTF-8"?><svg id="Layer_2" xmlns="http://www.w3.org/2000/svg" viewBox="0 0 159.43 18.37"><defs><style>.cls-1{fill:#ff3008;}</style></defs><g id="Layer_3"><g><path class="cls-1" d="M46.98,2.65c3.83,0,6.72,2.89,6.72,6.54s-2.89,6.53-6.72,6.53h-4.52c-.19,0-.34-.15-.34-.34V2.99c0-.19,.15-.34,.34-.34h4.52Zm-2.05,2.52V13.2h2.05c2.15,0,3.92-1.77,3.92-4.01s-1.68-4.01-3.92-4.01h-2.05Z"/><path class="cls-1" d="M63.58,2.37c4.01,0,7.1,3.08,7.1,6.81s-3.08,6.81-7.1,6.81-7.1-3.08-7.1-6.81,3.08-6.81,7.1-6.81m0,11.11c2.33,0,4.31-1.87,4.31-4.29s-1.98-4.29-4.31-4.29-4.29,1.87-4.29,4.29,1.96,4.29,4.29,4.29"/><path class="cls-1" d="M80.45,2.37c4.01,0,7.1,3.08,7.1,6.81s-3.08,6.81-7.1,6.81-7.1-3.08-7.1-6.81,3.08-6.81,7.1-6.81m0,11.11c2.33,0,4.31-1.87,4.31-4.29s-1.98-4.29-4.31-4.29-4.29,1.87-4.29,4.29,1.96,4.29,4.29,4.29"/><path class="cls-1" d="M91.25,2.99c0-.19,.15-.34,.34-.34h5.45c2.61,0,4.48,1.9,4.48,4.29,0,2.8-2.33,3.83-2.33,3.83l2.51,4.44c.13,.23-.04,.51-.29,.51h-2.21c-.12,0-.24-.07-.3-.18l-2.42-4.4h-2.43v4.24c0,.19-.15,.34-.34,.34h-2.12c-.19,0-.34-.15-.34-.34V2.99Zm5.7,2.18h-2.89v3.45h2.89c1.03,0,1.77-.75,1.77-1.68,0-1.03-.75-1.77-1.77-1.77"/><path class="cls-1" d="M110.86,2.71c3.83,0,6.72,2.89,6.72,6.54s-2.89,6.53-6.72,6.53h-4.52c-.19,0-.34-.15-.34-.34V3.05c0-.19,.15-.34,.34-.34h4.52Zm-2.05,2.52V13.26h2.05c2.15,0,3.92-1.77,3.92-4.01s-1.68-4.01-3.92-4.01h-2.05Z"/><path class="cls-1" d="M123.6,12.62l-1.04,2.86c-.05,.13-.18,.22-.32,.22h-2.25c-.24,0-.4-.24-.32-.46l4.87-12.39c.05-.13,.18-.22,.32-.22h2.53c.14,0,.26,.09,.32,.22l4.87,12.39c.09,.22-.08,.46-.32,.46h-2.25c-.14,0-.27-.09-.32-.22l-1.04-2.86h-5.04Zm2.52-6.72l-1.59,4.29h3.17l-1.59-4.29Z"/><path class="cls-1" d="M135.19,6.18c0-2.05,1.77-3.83,4.57-3.83,2.22,0,3.56,1.04,4.06,1.53,.13,.13,.14,.34,.01,.48l-1.26,1.26c-.13,.13-.33,.13-.46,.02-.35-.32-1.11-.85-2.17-.85-1.12,0-1.95,.65-1.95,1.4,0,2.43,6.62,1.03,6.62,5.69,0,2.33-1.77,4.11-4.95,4.11-2.57,0-4.16-1.33-4.72-1.9-.13-.13-.13-.35,0-.48l1.21-1.21c.13-.13,.34-.13,.47,0,.42,.4,1.41,1.16,2.86,1.16s2.32-.75,2.32-1.68c0-2.43-6.62-1.03-6.62-5.69"/><path class="cls-1" d="M156.63,2.97V7.86h-5.6V2.97c0-.19-.15-.34-.34-.34h-2.12c-.19,0-.34,.15-.34,.34V15.36c0,.19,.15,.34,.34,.34h2.12c.19,0,.34-.15,.34-.34v-4.98h5.6v4.98c0,.19,.15,.34,.34,.34h2.12c.19,0,.34-.15,.34-.34V2.97c0-.19-.15-.34-.34-.34h-2.12c-.19,0-.34,.15-.34,.34"/><path class="cls-1" d="M31.07,4.35c-1.42-2.69-4.24-4.35-7.27-4.35H.79C.09,0-.26,.85,.23,1.35L5.25,6.39c.44,.45,1.04,.7,1.67,.7H23.14c.98,0,1.86,.66,2.07,1.62,.3,1.36-.73,2.57-2.03,2.57H12c-.7,0-1.05,.85-.56,1.35l5.01,5.04c.44,.45,1.04,.7,1.67,.7h5.06c6.58,0,11.56-7.04,7.88-14.02"/></g></g></svg>