<?xml version="1.0" encoding="utf-8"?>
<!-- Generator: Adobe Illustrator 25.4.1, SVG Export Plug-In . SVG Version: 6.00 Build 0)  -->
<svg version="1.1" id="Layer_1" xmlns="http://www.w3.org/2000/svg" xmlns:xlink="http://www.w3.org/1999/xlink" x="0px" y="0px"
	 viewBox="0 0 970 250" style="enable-background:new 0 0 970 250;" xml:space="preserve">
<style type="text/css">
	.st0{fill:#FFFFFF;}
</style>
<g>
	<g>
		<path class="st0" d="M296.8,116.6h-11.1v-7.1H316v7.1h-11.1v30.9h-8.1V116.6z"/>
		<path class="st0" d="M320.3,111.6c0-2.4,1.9-4.3,4.3-4.3s4.3,1.9,4.3,4.3c0,2.4-1.9,4.3-4.3,4.3c0,0,0,0,0,0
			C322.2,115.9,320.3,114,320.3,111.6z M321,120h7.2v27.5H321V120z"/>
		<path class="st0" d="M369.5,130.1c0-2.6-1.1-4.4-4.1-4.4c-2.3,0.1-4.4,1.3-5.7,3.2v18.6h-7.3v-17.4c0-2.6-1.1-4.4-4.1-4.4
			c-2.3,0.1-4.4,1.3-5.7,3.2v18.5h-7.2V120h7.2v3.6c2.2-2.7,5.5-4.2,9-4.3c4,0,6.6,1.9,7.6,5c2.2-3.1,5.7-5,9.5-5
			c5.1,0,8.1,2.7,8.1,8.3v19.9h-7.3L369.5,130.1z"/>
		<path class="st0" d="M396.4,119.3c8.2,0,13.8,6.2,13.8,15.1v1.6h-20.4c0.5,3.5,3.2,6.4,7.9,6.4c2.7,0,5.3-1,7.4-2.7l3.2,4.7
			c-2.7,2.5-7.1,3.8-11.3,3.8c-8.4,0-14.7-5.6-14.7-14.5C382.2,125.7,388,119.3,396.4,119.3z M389.6,131.1h13.6
			c-0.1-3.5-3.1-6.2-6.6-6.1c0,0-0.1,0-0.1,0C392.9,125,389.9,127.6,389.6,131.1L389.6,131.1z"/>
		<path class="st0" d="M431.4,140.7v-14.4h-4.6V120h4.6v-7.5h7.3v7.5h5.6v6.3h-5.6v12.4c0,1.7,0.9,3,2.5,3c0.9,0,1.8-0.3,2.5-0.8
			l1.5,5.5c-1.1,1-3,1.8-6,1.8C434.2,148.2,431.4,145.6,431.4,140.7z"/>
		<path class="st0" d="M447.5,133.7c0-7.8,5.5-14.4,14.5-14.4s14.6,6.6,14.6,14.4s-5.5,14.5-14.6,14.5S447.5,141.6,447.5,133.7z
			 M469.1,133.7c0-4.3-2.6-8-7.1-8s-7,3.7-7,8s2.5,8,7,8S469.1,138,469.1,133.7z"/>
	</g>
</g>
</svg>
