<?xml version="1.0" encoding="utf-8"?>
<!-- Generator: Adobe Illustrator 25.4.1, SVG Export Plug-In . SVG Version: 6.00 Build 0)  -->
<svg version="1.1" id="Layer_1" xmlns="http://www.w3.org/2000/svg" xmlns:xlink="http://www.w3.org/1999/xlink" x="0px" y="0px"
	 viewBox="0 0 56 38.7" style="enable-background:new 0 0 56 38.7;" xml:space="preserve">
<style type="text/css">
	.st0{fill:#CDFFFF;}
</style>
<g id="Layer_2_00000076600238581764291710000013222997593185755295_">
	<g id="Layer_1-2">
		<path class="st0" d="M11.1,7.1H0V0h30.3v7.1h-11V38h-8.2V7.1z"/>
		<path class="st0" d="M42.3,9.8C50.5,9.8,56,16,56,25v1.6H35.6c0.5,3.5,3.2,6.4,7.9,6.4c2.7,0,5.3-1,7.3-2.7l3.2,4.7
			c-2.7,2.5-7.1,3.8-11.3,3.8C34.3,38.7,28,33,28,24.2C28,16.2,33.9,9.8,42.3,9.8z M35.5,21.6H49c-0.1-3.5-3.1-6.3-6.6-6.1
			c-0.1,0-0.1,0-0.2,0C38.7,15.5,35.8,18.2,35.5,21.6z"/>
	</g>
</g>
</svg>
