<?xml version="1.0" encoding="utf-8"?>
<!-- Generator: Adobe Illustrator 25.4.1, SVG Export Plug-In . SVG Version: 6.00 Build 0)  -->
<svg version="1.1" id="Layer_1" xmlns="http://www.w3.org/2000/svg" xmlns:xlink="http://www.w3.org/1999/xlink" x="0px" y="0px"
	 viewBox="0 0 970 250" style="enable-background:new 0 0 970 250;" xml:space="preserve">
<style type="text/css">
	.st0{fill:#FFFFFF;}
</style>
<g>
	<g>
		<path class="st0" d="M268.1,55h8.1v38h-8.1V55z"/>
		<path class="st0" d="M285,86.2V71.8h-4.6v-6.3h4.6V58h7.3v7.5h5.6v6.3h-5.6v12.4c0,1.7,0.9,3,2.5,3c0.9,0,1.8-0.2,2.5-0.8l1.5,5.5
			c-1.1,1-3,1.8-6,1.8C287.7,93.7,285,91.1,285,86.2z"/>
		<path class="st0" d="M302.5,68.3c2.1-1.2,3.7-3.1,4.4-5.4c-0.3,0.2-0.7,0.2-1.1,0.2c-2.2,0-3.9-1.8-3.9-3.9c0-0.1,0-0.1,0-0.2
			c0-2.5,2-4.5,4.5-4.6c2.7,0,5.1,2.1,5.1,5.8c-0.1,4.3-2.3,8.2-5.9,10.6L302.5,68.3z"/>
		<path class="st0" d="M316.4,84.3c2.7,2.3,6,3.6,9.5,3.8c3.1,0,4.6-1.1,4.6-2.8c0-1.9-2.4-2.6-5.5-3.2c-4.7-0.9-10.8-2-10.8-8.6
			c0-4.6,4-8.7,11.3-8.7c4-0.1,7.9,1.3,11.1,3.8l-2.9,5c-2.2-2.1-5.1-3.2-8.1-3.2c-2.6,0-4.3,1-4.3,2.6s2.2,2.3,5.2,3
			c4.7,0.9,11,2.2,11,9c0,5-4.3,8.8-11.9,8.8c-4.8,0-9.4-1.6-12.3-4.3L316.4,84.3z"/>
	</g>
</g>
</svg>
