<?xml version="1.0" encoding="utf-8"?>
<!-- Generator: Adobe Illustrator 25.4.1, SVG Export Plug-In . SVG Version: 6.00 Build 0)  -->
<svg version="1.1" id="Layer_1" xmlns="http://www.w3.org/2000/svg" xmlns:xlink="http://www.w3.org/1999/xlink" x="0px" y="0px"
	 viewBox="0 0 139.3 51.4" style="enable-background:new 0 0 139.3 51.4;" xml:space="preserve">
<style type="text/css">
	.st0{fill:#CDBBFF;}
</style>
<g id="Layer_2_00000139981580122468563180000009525490982747125122_">
	<g id="Layer_1-2">
		<path class="st0" d="M14.2,12C22.4,12,28,18.2,28,27.2v1.6H7.6c0.4,3.5,3.2,6.4,7.9,6.4c2.7,0,5.3-1,7.4-2.7l3.2,4.7
			c-2.7,2.5-7,3.8-11.3,3.8C6.3,40.9,0,35.3,0,26.4C0,18.5,5.9,12,14.2,12z M7.5,23.9H21c-0.1-3.5-3.1-6.3-6.6-6.1
			c-0.1,0-0.1,0-0.2,0C10.7,17.7,7.7,20.4,7.5,23.9z"/>
		<path class="st0" d="M51.8,23.6c0-3.8-2-5.1-5.1-5.1c-2.5,0-4.8,1.2-6.3,3.2v18.5h-7.2V12.7h7.2v3.6c2.4-2.8,5.9-4.3,9.6-4.3
			c6,0,9,3.4,9,8.8v19.4h-7.3V23.6z"/>
		<path class="st0" d="M73.5,41c0,6.3-3.2,10.4-9.8,10.4c-1.1,0-2.1-0.1-3.1-0.3l0.4-6c0.5,0.1,1.1,0.2,1.6,0.2
			c2.1,0,3.6-1.3,3.6-4.4V12.7h7.2L73.5,41z M65.5,4.4C65.5,2,67.4,0,69.8,0c2.4,0,4.3,1.9,4.3,4.3s-1.9,4.3-4.3,4.3
			C67.4,8.7,65.5,6.7,65.5,4.4L65.5,4.4z"/>
		<path class="st0" d="M78.9,26.4c0-7.8,5.5-14.4,14.5-14.4S108,18.6,108,26.4s-5.5,14.5-14.6,14.5S78.9,34.3,78.9,26.4z
			 M100.5,26.4c0-4.3-2.6-8-7.1-8s-7,3.7-7,8s2.5,8,7,8S100.5,30.8,100.5,26.4z"/>
		<path class="st0" d="M115.7,44.9c1.9,0,3.1-0.5,3.8-2l1-2.3l-11.1-27.9h7.7l7.2,19.1l7.2-19.1h7.8l-12.9,32
			c-2,5.2-5.7,6.6-10.4,6.7c-1.2,0-2.4-0.2-3.6-0.4l1.1-6.5C114.2,44.8,115,44.9,115.7,44.9z"/>
	</g>
</g>
</svg>
