<?xml version="1.0" encoding="utf-8"?>
<!-- Generator: Adobe Illustrator 25.4.1, SVG Export Plug-In . SVG Version: 6.00 Build 0)  -->
<svg version="1.1" id="Layer_1" xmlns="http://www.w3.org/2000/svg" xmlns:xlink="http://www.w3.org/1999/xlink" x="0px" y="0px"
	 viewBox="0 0 124.5 40.9" style="enable-background:new 0 0 124.5 40.9;" xml:space="preserve">
<style type="text/css">
	.st0{fill:#CDFFFF;}
</style>
<g id="Layer_2_00000052825399319988725970000001704312257461861013_">
	<g id="Layer_1-2">
		<path class="st0" d="M11.1,9.3H0V2.2h30.3v7.1h-11v30.9h-8.2V9.3z"/>
		<path class="st0" d="M34.6,4.3c0-2.4,1.9-4.3,4.3-4.3c2.4,0,4.3,1.9,4.3,4.3s-1.9,4.3-4.3,4.3C36.5,8.6,34.6,6.7,34.6,4.3z
			 M35.3,12.7h7.2v27.5h-7.2V12.7z"/>
		<path class="st0" d="M83.8,22.8c0-2.6-1.1-4.4-4.1-4.4c-2.3,0.1-4.4,1.3-5.7,3.2v18.6h-7.3V22.8c0-2.6-1.1-4.4-4.1-4.4
			c-2.3,0.1-4.4,1.3-5.6,3.2v18.5h-7.3V12.7H57v3.6c2.2-2.7,5.5-4.2,9-4.3c4,0,6.6,1.9,7.6,5c2.2-3.1,5.7-5,9.5-5
			c5.1,0,8.1,2.7,8.1,8.3v19.9h-7.3V22.8z"/>
		<path class="st0" d="M110.7,12c8.2,0,13.8,6.1,13.8,15.1v1.6h-20.5c0.5,3.5,3.2,6.4,7.9,6.4c2.7,0,5.3-1,7.3-2.7l3.2,4.7
			c-2.7,2.5-7.1,3.8-11.3,3.8c-8.4,0-14.7-5.6-14.7-14.5C96.5,18.5,102.3,12,110.7,12z M104,23.9h13.5c-0.1-3.5-3.1-6.2-6.6-6.1
			c0,0-0.1,0-0.1,0C107.2,17.7,104.3,20.4,104,23.9z"/>
	</g>
</g>
</svg>
