<?xml version="1.0" encoding="utf-8"?>
<!-- Generator: Adobe Illustrator 25.4.1, SVG Export Plug-In . SVG Version: 6.00 Build 0)  -->
<svg version="1.1" id="Layer_1" xmlns="http://www.w3.org/2000/svg" xmlns:xlink="http://www.w3.org/1999/xlink" x="0px" y="0px"
	 viewBox="0 0 189.2 48.5" style="enable-background:new 0 0 189.2 48.5;" xml:space="preserve">
<style type="text/css">
	.st0{fill:#CDFFFF;}
</style>
<g id="Layer_2_00000070829297771994261470000014926780564271313591_">
	<g id="Layer_1-2">
		<path class="st0" d="M14.2,9.8C22.4,9.8,28,16,28,25v1.6H7.6c0.4,3.4,3.2,6.3,7.9,6.3c2.7,0,5.3-1,7.4-2.7l3.2,4.7
			c-2.7,2.5-7,3.8-11.3,3.8C6.3,38.7,0,33,0,24.2C0,16.2,5.9,9.8,14.2,9.8z M7.5,21.6H21c-0.1-3.5-3.1-6.3-6.6-6.1
			c-0.1,0-0.1,0-0.2,0C10.7,15.5,7.7,18.1,7.5,21.6z"/>
		<path class="st0" d="M44,28.7L37.7,38h-8l9.7-14.1l-9.2-13.4h8.1L44,19l5.6-8.5h8.1l-9.2,13.4L58.4,38h-8.1L44,28.7z"/>
		<path class="st0" d="M62,48.5v-38h7.2V14c2-2.7,5.2-4.2,8.5-4.2c7.1,0,12.2,5.2,12.2,14.4s-5.1,14.5-12.2,14.5
			c-3.3,0-6.5-1.5-8.5-4.2v14L62,48.5z M75.4,16.2c-2.4,0.1-4.7,1.2-6.2,3.1v9.7c1.5,1.9,3.8,3,6.2,3.1c4.2,0,7-3.2,7-8
			S79.6,16.2,75.4,16.2z"/>
		<path class="st0" d="M95.3,0h7.2v38h-7.2V0z"/>
		<path class="st0" d="M107.9,24.2c0-7.8,5.5-14.4,14.5-14.4S137,16.4,137,24.2s-5.5,14.5-14.6,14.5S107.9,32.1,107.9,24.2z
			 M129.5,24.2c0-4.3-2.6-8-7.1-8s-7,3.7-7,8s2.5,8,7,8S129.5,28.5,129.5,24.2z"/>
		<path class="st0" d="M142.4,10.5h7.2v3.8c2.1-2.7,5.3-4.3,8.8-4.4v7.1c-0.7-0.2-1.3-0.2-2-0.2c-2.4,0-5.6,1.4-6.8,3.1V38h-7.2
			L142.4,10.5z"/>
		<path class="st0" d="M175.4,9.8c8.2,0,13.8,6.2,13.8,15.1v1.6h-20.4c0.4,3.5,3.2,6.4,7.9,6.4c2.7,0,5.3-1,7.4-2.7l3.2,4.7
			c-2.7,2.5-7.1,3.8-11.3,3.8c-8.4,0-14.7-5.6-14.7-14.5C161.1,16.2,167,9.8,175.4,9.8z M168.6,21.6h13.6c-0.1-3.5-3.1-6.3-6.6-6.1
			c-0.1,0-0.1,0-0.2,0C171.8,15.5,168.9,18.1,168.6,21.6z"/>
	</g>
</g>
</svg>
