<?xml version="1.0" encoding="utf-8"?>
<!-- Generator: Adobe Illustrator 25.4.1, SVG Export Plug-In . SVG Version: 6.00 Build 0)  -->
<svg version="1.1" id="Layer_1" xmlns="http://www.w3.org/2000/svg" xmlns:xlink="http://www.w3.org/1999/xlink" x="0px" y="0px"
	 viewBox="0 0 970 250" style="enable-background:new 0 0 970 250;" xml:space="preserve">
<style type="text/css">
	.st0{clip-path:url(#SVGID_00000065053462013211007320000012591294499751576982_);}
	.st1{fill:#FFFFFF;}
	.st2{fill:#80919E;}
</style>
<g>
	<g>
		<g>
			<defs>
				<rect id="SVGID_1_" y="0" width="970" height="250"/>
			</defs>
			<clipPath id="SVGID_00000170979812393888849920000009209453250644447362_">
				<use xlink:href="#SVGID_1_"  style="overflow:visible;"/>
			</clipPath>
			<g style="clip-path:url(#SVGID_00000170979812393888849920000009209453250644447362_);">
				<path class="st1" d="M427.2,109c-10.8,0-19.5,8.8-19.5,19.5c0,10.8,8.7,19.5,19.5,19.5h115.6c10.8,0,19.5-8.7,19.5-19.5
					c0-10.8-8.7-19.5-19.5-19.5c0,0,0,0,0,0H427.2z"/>
			</g>
		</g>
		<path class="st2" d="M428.5,122.2h5.9c2.2-0.1,4.2,1.6,4.3,3.9c0.1,2.2-1.6,4.2-3.9,4.3c-0.1,0-0.3,0-0.4,0h-3.2v4.5h-2.7
			L428.5,122.2z M434.1,124.5h-2.9v3.5h2.9c1,0.1,1.8-0.6,1.9-1.6c0.1-1-0.6-1.8-1.6-1.9C434.3,124.5,434.2,124.5,434.1,124.5
			L434.1,124.5z"/>
		<path class="st2" d="M440.3,122.2h2.4v12.7h-2.4V122.2z"/>
		<path class="st2" d="M450.7,133.9c-0.8,0.8-1.8,1.2-2.9,1.2c-1.7,0.1-3.1-1.2-3.2-2.9c0,0,0,0,0-0.1c0-1.6,1.3-2.9,2.9-2.9
			c0.1,0,0.2,0,0.3,0c1.1-0.1,2.2,0.3,2.9,1.1V129c0-0.9-0.8-1.5-2-1.5c-1,0-1.9,0.4-2.7,1l-0.9-1.6c1.1-1,2.5-1.5,4-1.4
			c2.1,0,4,0.8,4,3.5v5.9h-2.4L450.7,133.9z M450.7,131.5c-0.5-0.6-1.2-0.8-1.9-0.8c-1,0-1.7,0.5-1.7,1.4s0.8,1.4,1.7,1.4
			c0.7,0,1.4-0.2,1.9-0.8V131.5z"/>
		<path class="st2" d="M461.7,129.3c0.1-0.8-0.4-1.6-1.2-1.7c-0.2,0-0.3,0-0.5,0c-0.8,0-1.6,0.4-2.1,1.1v6.2h-2.4v-9.2h2.4v1.2
			c0.8-0.9,2-1.4,3.2-1.4c1.5-0.2,2.8,0.8,3,2.3c0,0.2,0,0.4,0,0.6v6.5h-2.4L461.7,129.3z"/>
		<path class="st2" d="M472.1,136.4c0.5,0.1,1-0.2,1.3-0.7l0.3-0.8l-3.7-9.3h2.6l2.4,6.4l2.4-6.4h2.6l-4.3,10.7
			c-0.5,1.5-1.9,2.4-3.5,2.2c-0.4,0-0.8,0-1.2-0.1l0.4-2.2C471.6,136.4,471.9,136.4,472.1,136.4z"/>
		<path class="st2" d="M480.5,130.2c0-2.7,2.1-4.9,4.8-4.9c2.7,0,4.9,2.1,4.9,4.8c0,2.7-2.1,4.9-4.8,4.9c0,0,0,0,0,0
			c-2.6,0.1-4.7-1.9-4.8-4.4C480.5,130.5,480.5,130.4,480.5,130.2z M487.7,130.2c-0.2-1.3-1.4-2.2-2.7-2c-1.3,0.2-2.2,1.4-2,2.7
			c0.2,1.2,1.2,2.1,2.3,2.1c1.3,0,2.4-1.1,2.4-2.5C487.7,130.4,487.7,130.3,487.7,130.2z"/>
		<path class="st2" d="M498.2,133.7c-0.8,0.9-2,1.4-3.2,1.4c-1.4,0.2-2.8-0.8-3-2.2c0-0.2,0-0.4,0-0.7v-6.5h2.4v5.6
			c-0.1,0.8,0.4,1.6,1.2,1.7c0.2,0,0.3,0,0.5,0c0.8,0,1.6-0.4,2.1-1v-6.2h2.4v9.2h-2.4L498.2,133.7z"/>
		<path class="st2" d="M503,125.7h2.4v1.3c0.7-0.9,1.8-1.4,2.9-1.5v2.3c-0.2,0-0.4-0.1-0.7-0.1c-0.9,0-1.7,0.4-2.3,1v6.1H503V125.7z
			"/>
		<path class="st2" d="M515.2,132.6v-4.8h-1.5v-2.1h1.5v-2.5h2.4v2.5h1.9v2.1h-1.9v4.1c0,0.6,0.3,1,0.8,1c0.3,0,0.6-0.1,0.8-0.3
			l0.5,1.8c-0.6,0.4-1.3,0.6-2,0.6c-1.3,0.2-2.4-0.7-2.6-1.9C515.1,132.9,515.1,132.7,515.2,132.6z"/>
		<path class="st2" d="M521.1,125.7h2.4v1.3c0.7-0.9,1.8-1.4,2.9-1.5v2.3c-0.2,0-0.4-0.1-0.7-0.1c-0.9,0-1.7,0.4-2.3,1v6.1h-2.4
			V125.7z"/>
		<path class="st2" d="M527.7,122.9c0-0.8,0.7-1.4,1.5-1.4c0.8,0.1,1.4,0.8,1.3,1.6c-0.1,0.7-0.6,1.3-1.3,1.3
			C528.4,124.3,527.7,123.7,527.7,122.9z M528,125.7h2.4v9.2H528L528,125.7z"/>
		<path class="st2" d="M532.8,138.3v-12.7h2.4v1.2c0.7-0.9,1.7-1.4,2.8-1.4c2.4,0,4.1,1.7,4.1,4.8s-1.7,4.8-4.1,4.8
			c-1.1,0-2.2-0.5-2.8-1.4v4.7H532.8z M537.2,127.6c-0.8,0-1.6,0.4-2.1,1v3.2c0.5,0.6,1.3,1,2.1,1c1.5-0.2,2.5-1.6,2.3-3.1
			C539.3,128.6,538.4,127.7,537.2,127.6L537.2,127.6z"/>
	</g>
</g>
</svg>
