<?xml version="1.0" encoding="utf-8"?>
<!-- Generator: Adobe Illustrator 25.4.1, SVG Export Plug-In . SVG Version: 6.00 Build 0)  -->
<svg version="1.1" id="Layer_1" xmlns="http://www.w3.org/2000/svg" xmlns:xlink="http://www.w3.org/1999/xlink" x="0px" y="0px"
	 viewBox="0 0 970 250" style="enable-background:new 0 0 970 250;" xml:space="preserve">
<style type="text/css">
	.st0{clip-path:url(#SVGID_00000085244946741692561940000001734339051147786386_);}
	.st1{fill:#FFFFFF;}
</style>
<g>
	<g>
		<g>
			<defs>
				<rect id="SVGID_1_" x="795.5" y="152.4" width="138.5" height="61.6"/>
			</defs>
			<clipPath id="SVGID_00000174571124898608320770000013921043303958609031_">
				<use xlink:href="#SVGID_1_"  style="overflow:visible;"/>
			</clipPath>
			<g style="clip-path:url(#SVGID_00000174571124898608320770000013921043303958609031_);">
				<path class="st1" d="M809.5,153.1h6.6v60.5h-6.6V153.1z M926.9,153.1h-7.7v60.5h8c4.5,0,6.8-2.2,6.8-6.7v-47.5
					C934.2,155,932,153.1,926.9,153.1 M928,205.2c0,1.4-0.4,2.1-1.5,2.1h-0.7v-48.1h0.7c1.2,0,1.5,0.4,1.5,2.2V205.2z M795.5,213.7
					h6.7v-27.1l5.2-4.2v-8l-5.2,4.2v-19.4h5.2v-6.1h-11.9L795.5,213.7z M860.4,153.1h-7.7v60.5h8.1c4.5,0,6.8-2.2,6.8-6.7v-47.5
					C867.6,155,865.4,153.1,860.4,153.1 M861.4,205.2c0,1.4-0.4,2.1-1.5,2.1h-0.6v-48.1h0.6c1.2,0,1.5,0.4,1.5,2.2V205.2z
					 M826.1,152.4c-5.2,0-7.7,3.1-7.7,10.1v42.8c0,6.1,2.3,8.7,7.3,8.7c2.5,0.1,4.9-1,6.5-2.9c0.9-1,1.2-2.6,1.2-5.1V161
					C833.4,155.4,830.9,152.5,826.1,152.4 M827.3,205.9c0,1.5-0.3,2.1-1.2,2.1s-1.3-0.6-1.3-2v-45c0-1.7,0.3-2.2,1.3-2.2
					s1.2,0.4,1.2,2.3V205.9z M911.1,188.1l-4.3-35h-6.9v54.4l-9.3-54.4h-1.8l-8.1,54.3h-4v-54.3h-6.8v60.6h16.1l4-32.9l5.2,32.9h11
					v-30.4l3.7,30.4h7.3v-60.6h-5.9L911.1,188.1z M847.9,185.3c1.5-0.9,2.6-3.1,2.6-5.5v-20.2c0-4.2-2.6-6.6-7.2-6.6h-7.4v60.5h6.5
					v-25.1h0.6c0.7,0,1.2,0.2,1.2,0.6v24.6h6.6V191C850.6,187.8,849.8,186.2,847.9,185.3 M844.1,180.8c0,1.4-0.2,1.7-1,1.7
					c-0.2,0-0.5,0-0.7-0.1v-23.1h0.6c1,0,1.3,0.3,1.3,1.9L844.1,180.8z"/>
			</g>
		</g>
	</g>
</g>
</svg>
