<svg id="Layer_1" data-name="Layer 1" xmlns="http://www.w3.org/2000/svg" xmlns:xlink="http://www.w3.org/1999/xlink" viewBox="0 0 970 250"><defs><style>.cls-1,.cls-4{fill:none;}.cls-2{clip-path:url(#clip-path);}.cls-3{fill:#009970;}.cls-4{stroke:#b2b2b2;stroke-width:0.75px;}</style><clipPath id="clip-path"><rect class="cls-1" width="970" height="250"/></clipPath></defs><g class="cls-2"><path class="cls-3" d="M38.46,83.39c-2.92-4.19-4.34-9.58-4.34-16.19s1.42-12,4.34-16.11A13.36,13.36,0,0,1,50,44.84c4.75,0,8.52,2.06,11.43,6.25s4.4,9.51,4.4,16.11-1.49,12-4.4,16.19S54.71,89.57,50,89.57A13.45,13.45,0,0,1,38.46,83.39ZM40,52.58c-2.49,3.76-3.69,8.66-3.69,14.62S37.53,78.07,40,81.83s5.82,5.68,9.94,5.68,7.38-1.92,9.87-5.68,3.76-8.66,3.76-14.63-1.28-10.86-3.76-14.62S54.08,46.9,50,46.9,42.5,48.81,40,52.58Z"/><path class="cls-3" d="M71.75,85.31a1.92,1.92,0,1,1-1.84,1.92A1.94,1.94,0,0,1,71.75,85.31Z"/><path class="cls-3" d="M82.4,86a11.63,11.63,0,0,1-4-8.88c0-5.32,3.69-9.94,9.37-11.57a10.37,10.37,0,0,1-7.46-9.8,10,10,0,0,1,3.48-7.6,12.66,12.66,0,0,1,9.09-3.26c3.76,0,6.82,1.06,9.09,3.26a10,10,0,0,1,3.48,7.6A10.37,10.37,0,0,1,98,65.5c5.68,1.63,9.44,6.25,9.44,11.57A11.44,11.44,0,0,1,103.28,86a15.09,15.09,0,0,1-10.44,3.62A15.09,15.09,0,0,1,82.4,86Zm19.39-1.49a9.59,9.59,0,0,0,0-14.77,14.36,14.36,0,0,0-17.9,0,9.72,9.72,0,0,0,0,14.77,14.4,14.4,0,0,0,17.9,0ZM100.44,62a8.33,8.33,0,0,0,2.84-6.25,8.19,8.19,0,0,0-2.84-6.18,10.7,10.7,0,0,0-7.6-2.69,10.83,10.83,0,0,0-7.6,2.69A8.19,8.19,0,0,0,82.4,55.7,8.33,8.33,0,0,0,85.24,62a10.8,10.8,0,0,0,7.6,2.63A10.67,10.67,0,0,0,100.44,62Z"/><path class="cls-3" d="M126.85,59.75A8.74,8.74,0,0,1,114.5,47.39a8.74,8.74,0,0,1,12.35,12.36Zm-6.18.5A6.71,6.71,0,1,0,114,53.57,6.69,6.69,0,0,0,120.67,60.25ZM144.1,45.41h2.13L117.19,89h-2.13ZM146.73,87a8.12,8.12,0,0,1-6.11,2.56,8.74,8.74,0,0,1-8.73-8.74,8.12,8.12,0,0,1,2.56-6.1,8.42,8.42,0,0,1,6.17-2.56,8.72,8.72,0,0,1,8.66,8.66A8.42,8.42,0,0,1,146.73,87Zm-6.11-12.85a6.71,6.71,0,1,0,6.68,6.67A6.68,6.68,0,0,0,140.62,74.16Z"/><path class="cls-3" d="M156.31,85.31a1.92,1.92,0,1,1-1.84,1.92A1.94,1.94,0,0,1,156.31,85.31Z"/><path class="cls-3" d="M211.2,83.18V69.26H199.12V67.35h14.13V83.68c-4,4.75-9.65,5.89-14.76,5.89a18.51,18.51,0,0,1-13.78-6c-3.76-4-5.68-9.51-5.68-16.4s1.92-12.42,5.68-16.4a18.55,18.55,0,0,1,14-6,20.32,20.32,0,0,1,12.92,4.33v2.7A18.33,18.33,0,0,0,198.7,47a16.1,16.1,0,0,0-12.5,5.39c-3.26,3.55-4.9,8.52-4.9,14.84s1.64,11.29,4.9,14.91a16,16,0,0,0,12.29,5.33C203.81,87.44,207.43,86.37,211.2,83.18Z"/><path class="cls-3" d="M223.41,89V45.41h14.41c8.24,0,13.77,4.19,13.77,11.85,0,6.89-4.4,10.94-11.21,11.72l13.41,20h-2.55L237.82,69.12H225.61V89Zm2.2-21.94h12.07c7.31,0,11.71-3.55,11.71-9.8s-4.4-9.72-11.71-9.72H225.61Z"/><path class="cls-3" d="M288.73,45.41v2.13H264.44V65.43h22v2.13h-22V86.87h24.29V89H262.24V45.41Z"/><path class="cls-3" d="M323.23,73.81H302.92l-6,15.19h-2.2l17.47-43.59h1.91L331.54,89h-2.2Zm-19.45-2.13h18.6l-9.3-23.22Z"/><path class="cls-3" d="M332.25,45.41h35.21v2.13H350.92V89h-2.2V47.54H332.25Z"/><path class="cls-3" d="M393.45,89h-2.2V45.41h2.2Z"/><path class="cls-3" d="M436.83,89h-1.21L407.36,48.89V89h-2.13V45.41h2.13L434.7,84V45.41h2.13Z"/><path class="cls-3" d="M488.66,73.81H468.35l-6,15.19h-2.2l17.46-43.59h1.92L497,89h-2.2ZM469.2,71.68h18.61L478.5,48.46Z"/><path class="cls-3" d="M520.32,45.41h2.2V86.87h24.71V89H520.32Z"/><path class="cls-3" d="M558.17,89H556V45.41h2.21Z"/><path class="cls-3" d="M599.06,83.18V69.26H587V67.35h14.13V83.68c-4,4.75-9.66,5.89-14.77,5.89a18.48,18.48,0,0,1-13.77-6c-3.76-4-5.68-9.51-5.68-16.4s1.92-12.42,5.68-16.4a18.53,18.53,0,0,1,14-6,20.34,20.34,0,0,1,12.92,4.33v2.7A18.33,18.33,0,0,0,586.57,47a16.07,16.07,0,0,0-12.5,5.39c-3.27,3.55-4.9,8.52-4.9,14.84s1.63,11.29,4.9,14.91a16,16,0,0,0,12.28,5.33C591.68,87.44,595.3,86.37,599.06,83.18Z"/><path class="cls-3" d="M645.49,45.41V89h-2.2V67.56H613.47V89h-2.2V45.41h2.2v20h29.82v-20Z"/><path class="cls-3" d="M653.59,45.41H688.8v2.13H672.26V89h-2.2V47.54H653.59Z"/><path class="cls-3" d="M64.8,138.21c0,7.39-5.19,11.79-14,11.79H36.89V106.41H49.53c8.8,0,13.63,4,13.63,11.07,0,3.06-.78,5.33-2.41,6.82a12.71,12.71,0,0,1-5.33,3A10.65,10.65,0,0,1,64.8,138.21ZM49.53,126.5c7.31,0,11.43-3,11.43-9s-4.12-9-11.43-9H39.09v18ZM39.09,147.87H51.23c7.39,0,11.36-3.91,11.36-9.66s-4-9.72-11.36-9.72H39.09Z"/><path class="cls-3" d="M99.8,106.41v2.13H75.52v17.89h22v2.13h-22v19.31H99.8V150H73.31V106.41Z"/><path class="cls-3" d="M136.43,106.41v2.13H112.15v17.89h22v2.13h-22v19.31h24.28V150H110V106.41Z"/><path class="cls-3" d="M146.58,150V106.41H161c8.23,0,13.77,4.19,13.77,11.85,0,6.89-4.4,10.94-11.22,11.72L177,150h-2.55L161,130.12H148.79V150Zm2.21-21.94h12.07c7.31,0,11.71-3.55,11.71-9.8s-4.4-9.72-11.71-9.72H148.79Z"/><path class="cls-3" d="M184.71,146.31a1.92,1.92,0,1,1-1.84,1.92A1.94,1.94,0,0,1,184.71,146.31Z"/><path class="cls-3" d="M242.22,150H241l-28.25-40.11V150h-2.13V106.41h2.13L240.09,145V106.41h2.13Z"/><path class="cls-3" d="M283.4,144.46a17.95,17.95,0,0,1-27,0C252.8,140.34,251,135,251,128.2s1.85-12.14,5.47-16.18a17.81,17.81,0,0,1,27,0c3.62,4,5.47,9.44,5.47,16.18S287,140.34,283.4,144.46Zm-1.49-30.81a15.52,15.52,0,0,0-24,0c-3.12,3.76-4.68,8.59-4.68,14.55s1.56,10.87,4.68,14.63a15.64,15.64,0,0,0,24,0c3.12-3.76,4.69-8.66,4.69-14.63S285,117.41,281.91,113.65Z"/><path class="cls-3" d="M291.71,106.41h35.21v2.13H310.38V150h-2.2V108.54H291.71Z"/><path class="cls-3" d="M347.51,143.25a18,18,0,0,0,13.42,5.19c6.75,0,10.86-3.69,10.86-9.09a7,7,0,0,0-2.05-5.4,24.76,24.76,0,0,0-6.39-3.9l-6.47-2.84a36.87,36.87,0,0,1-6-3.62c-2.06-1.49-3.05-3.84-3.05-7,0-3.62,1.27-6.25,3.83-8a15,15,0,0,1,8.8-2.7,20.34,20.34,0,0,1,11.93,3.69v2.7A17.17,17.17,0,0,0,360.43,108c-5.68,0-10.43,2.91-10.43,8.59,0,4.61,3.41,6.74,8.23,8.8l6.68,2.91c6.25,2.84,9.09,5.68,9.09,11.08a10.15,10.15,0,0,1-3.7,8.09,14.21,14.21,0,0,1-9.37,3.13c-5.89,0-10.58-1.85-13.42-4.47Z"/><path class="cls-3" d="M412.48,144.46a17.95,17.95,0,0,1-27,0C381.88,140.34,380,135,380,128.2s1.85-12.14,5.47-16.18a17.81,17.81,0,0,1,27,0c3.62,4,5.46,9.44,5.46,16.18S416.1,140.34,412.48,144.46ZM411,113.65a15.52,15.52,0,0,0-24,0c-3.13,3.76-4.69,8.59-4.69,14.55s1.56,10.87,4.69,14.63a15.64,15.64,0,0,0,24,0c3.12-3.76,4.68-8.66,4.68-14.63S414.11,117.41,411,113.65Z"/><path class="cls-3" d="M471.48,144.18V130.26H459.41v-1.91h14.13v16.33c-4.05,4.75-9.66,5.89-14.77,5.89a18.47,18.47,0,0,1-13.77-6c-3.77-4-5.68-9.51-5.68-16.4s1.91-12.42,5.68-16.4a18.51,18.51,0,0,1,14-6,20.32,20.32,0,0,1,12.92,4.33v2.7A18.31,18.31,0,0,0,459,108a16.06,16.06,0,0,0-12.49,5.39c-3.27,3.55-4.9,8.52-4.9,14.84s1.63,11.29,4.9,14.91a16,16,0,0,0,12.28,5.33C464.09,148.44,467.71,147.37,471.48,144.18Z"/><path class="cls-3" d="M513.15,144.46a17.95,17.95,0,0,1-27,0c-3.62-4.12-5.46-9.51-5.46-16.26s1.84-12.14,5.46-16.18a17.81,17.81,0,0,1,27,0c3.62,4,5.47,9.44,5.47,16.18S516.77,140.34,513.15,144.46Zm-1.49-30.81a15.51,15.51,0,0,0-24,0c-3.13,3.76-4.69,8.59-4.69,14.55s1.56,10.87,4.69,14.63a15.63,15.63,0,0,0,24,0c3.13-3.76,4.69-8.66,4.69-14.63S514.79,117.41,511.66,113.65Z"/><path class="cls-3" d="M557,144.46a17.95,17.95,0,0,1-27,0c-3.62-4.12-5.47-9.51-5.47-16.26s1.85-12.14,5.47-16.18a17.81,17.81,0,0,1,27,0c3.62,4,5.47,9.44,5.47,16.18S560.65,140.34,557,144.46Zm-1.49-30.81a15.52,15.52,0,0,0-24,0c-3.12,3.76-4.68,8.59-4.68,14.55s1.56,10.87,4.68,14.63a15.64,15.64,0,0,0,24,0c3.13-3.76,4.69-8.66,4.69-14.63S558.67,117.41,555.54,113.65Z"/><path class="cls-3" d="M571.23,106.41h12.71c6.25,0,11.36,2,15.27,6s5.89,9.23,5.89,15.83-2,11.93-5.89,15.91-9,5.89-15.27,5.89H571.23Zm12.85,41.46c5.61,0,10.16-1.77,13.56-5.4s5.19-8.37,5.19-14.27-1.71-10.65-5.19-14.27-7.95-5.39-13.56-5.39H573.43v39.33Z"/><path class="cls-3" d="M39.09,211h-2.2V167.41h2.2Z"/><path class="cls-3" d="M82.47,211h-1.2L53,170.89V211H50.88V167.41H53L80.34,206V167.41h2.13Z"/><path class="cls-3" d="M134.37,195.81h-20.3L108,211h-2.2l17.47-43.59h1.91L142.68,211h-2.2Zm-19.45-2.13h18.6l-9.3-23.22Z"/><path class="cls-3" d="M162.35,167.41h35.21v2.13H181V211h-2.2V169.54H162.35Z"/><path class="cls-3" d="M232.14,167.41v2.13H207.86v17.89h22v2.13h-22v19.31h24.28V211H205.66V167.41Z"/><path class="cls-3" d="M242.29,211V167.41h14.42c8.23,0,13.77,4.19,13.77,11.85,0,6.89-4.4,10.94-11.22,11.72l13.42,20h-2.56l-13.41-19.88H244.49V211Zm2.2-21.94h12.07c7.32,0,11.72-3.55,11.72-9.8s-4.4-9.72-11.72-9.72H244.49Z"/><path class="cls-3" d="M300.87,200.71,283.26,172V211h-2.13V167.41H283l18,29.53,18.1-29.53h1.64V211h-2.13V172l-17.54,28.76Z"/><path class="cls-3" d="M348.22,167.41h12.71c6.25,0,11.36,2,15.27,6s5.89,9.23,5.89,15.83-2,11.93-5.89,15.91-9,5.89-15.27,5.89H348.22Zm12.85,41.46c5.61,0,10.16-1.78,13.56-5.4s5.19-8.37,5.19-14.27-1.71-10.65-5.19-14.27-7.95-5.39-13.56-5.39H350.42v39.33Z"/><path class="cls-3" d="M417.31,167.41v2.13H393v17.89h22v2.13H393v19.31h24.29V211H390.82V167.41Z"/><path class="cls-3" d="M429.66,191.19V211h-2.2V167.41H442.3c8.3,0,13.84,4.19,13.84,11.85,0,7.88-5.54,11.93-13.84,11.93Zm24.28-11.93c0-6.24-4.4-9.72-11.71-9.72H429.66v19.52h12.57C449.54,189.06,453.94,185.51,453.94,179.26Z"/><path class="cls-3" d="M494,205.46a17.95,17.95,0,0,1-27,0c-3.62-4.12-5.46-9.51-5.46-16.26S463.38,177.06,467,173a17.81,17.81,0,0,1,27,0c3.62,4,5.47,9.44,5.47,16.18S497.6,201.34,494,205.46Zm-1.49-30.81a15.51,15.51,0,0,0-24,0c-3.13,3.76-4.69,8.59-4.69,14.55s1.56,10.87,4.69,14.63a15.63,15.63,0,0,0,24,0c3.13-3.76,4.69-8.66,4.69-14.63S495.62,178.41,492.49,174.65Z"/><path class="cls-3" d="M504.92,204.25a18,18,0,0,0,13.42,5.19c6.74,0,10.86-3.69,10.86-9.09a7,7,0,0,0-2.06-5.4,24.76,24.76,0,0,0-6.39-3.9l-6.46-2.84a36.05,36.05,0,0,1-6-3.62c-2.06-1.49-3.06-3.84-3.06-7,0-3.62,1.28-6.25,3.84-8a15,15,0,0,1,8.8-2.7,20.36,20.36,0,0,1,11.93,3.69v2.7A17.18,17.18,0,0,0,517.84,169c-5.68,0-10.44,2.91-10.44,8.59,0,4.61,3.41,6.74,8.24,8.8l6.67,2.91c6.25,2.84,9.09,5.68,9.09,11.08a10.17,10.17,0,0,1-3.69,8.09,14.23,14.23,0,0,1-9.37,3.13c-5.89,0-10.58-1.85-13.42-4.48Z"/><path class="cls-3" d="M542.62,211h-2.2V167.41h2.2Z"/><path class="cls-3" d="M550.71,167.41h35.22v2.13H569.39V211h-2.21V169.54H550.71Z"/><path class="cls-3" d="M587,207.31a1.92,1.92,0,1,1-1.84,1.91A1.94,1.94,0,0,1,587,207.31Z"/><g class="cls-2"><rect class="cls-4" x="0.38" y="0.38" width="969.25" height="249.25"/></g></g></svg>