<?xml version="1.0" encoding="utf-8"?>
<!-- Generator: Adobe Illustrator 26.0.1, SVG Export Plug-In . SVG Version: 6.00 Build 0)  -->
<svg version="1.1" id="Layer_1" xmlns="http://www.w3.org/2000/svg" xmlns:xlink="http://www.w3.org/1999/xlink" x="0px" y="0px"
	 viewBox="0 0 728 90" style="enable-background:new 0 0 728 90;" xml:space="preserve">
<style type="text/css">
	.st0{fill:#FFFFFF;}
</style>
<g>
	<path class="st0" d="M322.7,25.2c-0.6-0.7-1.5-1.8-1.5-1.8c0.1,0.8,0.2,1.6,0.2,2.4v9H319V18.2h0.3l9,9.7c0.6,0.7,1.5,1.8,1.5,1.8
		s-0.2-1.4-0.2-2.4v-9h2.3v16.5h-0.3L322.7,25.2z"/>
	<path class="st0" d="M335.8,29V18.4h2.5v10.4c0,2.6,1.3,3.8,3.7,3.8s3.7-1.2,3.7-3.8V18.4h2.5V29c0,4-2.7,6-6.2,6
		S335.8,33,335.8,29z"/>
	<path class="st0" d="M363.3,34.7h-2.9l-2.9-4.3c-0.5,0.1-0.9,0.1-1.4,0.1h-1.5v4.2H352V18.4h4.1c4.5,0,7,2.4,7,6.1
		c0.2,2.3-1.2,4.3-3.3,5.2L363.3,34.7z M356,28.3c3.2,0,4.5-1.4,4.5-3.8s-1.3-3.9-4.5-3.9h-1.4v7.7L356,28.3z"/>
	<path class="st0" d="M364.7,31.6l2.1-1.1c0.7,1.4,2.2,2.3,3.7,2.3c1.7,0,2.8-0.9,2.8-2.2s-1-2-2.7-2.8l-1.1-0.5
		c-2.4-1.1-3.8-2.3-3.8-4.8s1.9-4.1,4.6-4.1c1.9-0.1,3.7,0.9,4.6,2.6l-2,1.2c-0.5-1-1.5-1.6-2.6-1.6c-1-0.1-2,0.7-2.1,1.7
		c0,0.1,0,0.1,0,0.2c0,1.2,0.7,1.8,2.4,2.5l1,0.5c2.8,1.2,4.3,2.5,4.3,5.1c0,2.9-2.2,4.5-5.3,4.5C368.1,35.1,365.8,33.8,364.7,31.6z
		"/>
	<path class="st0" d="M378.8,18.4h2.5v16.3h-2.5V18.4z"/>
	<path class="st0" d="M388.9,25.2c-0.6-0.7-1.5-1.8-1.5-1.8c0.1,0.8,0.2,1.6,0.2,2.4v9h-2.4V18.2h0.3l9,9.7c0.6,0.7,1.5,1.8,1.5,1.8
		s-0.2-1.4-0.2-2.4v-9h2.4v16.5h-0.3L388.9,25.2z"/>
	<path class="st0" d="M401.2,26.6c-0.2-4.5,3.3-8.2,7.8-8.4c0.2,0,0.4,0,0.6,0c2.2-0.2,4.3,0.6,5.8,2.2l-1.7,1.7
		c-1.1-1.1-2.5-1.7-4.1-1.6c-3.2,0-5.8,2.5-5.8,5.6c0,0.1,0,0.3,0,0.4c-0.2,3.2,2.3,5.9,5.5,6.1c0.2,0,0.4,0,0.5,0
		c1.4,0,2.8-0.3,4-1.1v-2.9h-4.4v-2.2h6.7v6.4c-1.8,1.4-4,2.2-6.3,2.1C404.8,35,401.2,31.4,401.2,26.6z"/>
	<path class="st0" d="M424.8,18.4h4.1c4.5,0,7,2.4,7,6.2s-2.5,6.2-7,6.2h-1.6v3.9h-2.5V18.4z M428.8,28.6c3.2,0,4.5-1.5,4.5-4
		s-1.3-4-4.5-4h-1.5v8H428.8z"/>
	<path class="st0" d="M449.9,34.7H447l-2.9-4.3c-0.5,0.1-0.9,0.1-1.4,0.1h-1.5v4.2h-2.5V18.4h4.1c4.5,0,7,2.4,7,6.1
		c0.1,2.2-1.2,4.3-3.3,5.2L449.9,34.7z M442.6,28.3c3.2,0,4.5-1.4,4.5-3.8s-1.4-3.9-4.5-3.9h-1.4v7.7H442.6z"/>
	<path class="st0" d="M452,26.6c0.2-4.6,4.1-8.3,8.7-8.1c4.4,0.2,8,3.7,8.1,8.1c-0.2,4.6-4.1,8.3-8.7,8.1
		C455.7,34.5,452.2,31,452,26.6z M466.2,26.6c0.2-3.2-2.3-6-5.5-6.2c-3.2-0.2-6,2.3-6.2,5.5c0,0.2,0,0.5,0,0.7
		c-0.2,3.2,2.3,6,5.5,6.2c3.2,0.2,6-2.3,6.2-5.5C466.2,27,466.2,26.8,466.2,26.6z"/>
	<path class="st0" d="M471.8,18.4H482v2.2h-7.6v6.5h6.9v2.3h-6.9v5.3h-2.5L471.8,18.4z"/>
	<path class="st0" d="M484.5,18.4h10.4v2.2H487V27h7v2.2h-6.9v3.3h8.2v2.2h-10.7V18.4z"/>
	<path class="st0" d="M496.9,31.6l2.1-1.1c0.7,1.4,2.2,2.3,3.8,2.3c1.7,0,2.8-0.9,2.8-2.2s-1-2-2.7-2.8l-1.1-0.5
		c-2.4-1.1-3.8-2.3-3.8-4.8s1.9-4.1,4.6-4.1c1.9-0.1,3.7,0.9,4.6,2.6l-2,1.2c-0.5-1-1.5-1.6-2.6-1.6c-1-0.1-2,0.7-2.1,1.7
		c0,0.1,0,0.1,0,0.2c0,1.2,0.7,1.8,2.4,2.5l1.1,0.5c2.8,1.2,4.3,2.5,4.3,5.1c0,2.9-2.2,4.5-5.3,4.5C500.3,35.1,498,33.8,496.9,31.6z
		"/>
	<path class="st0" d="M509.7,31.6l2.1-1.1c0.7,1.4,2.2,2.3,3.7,2.3c1.7,0,2.8-0.9,2.8-2.2s-1-2-2.7-2.8l-1.1-0.5
		c-2.4-1.1-3.8-2.3-3.8-4.8s1.9-4.1,4.6-4.1c1.9-0.1,3.7,0.9,4.6,2.6l-2,1.2c-0.5-1-1.5-1.6-2.6-1.6c-1-0.1-2,0.7-2.1,1.7
		c0,0.1,0,0.1,0,0.2c0,1.2,0.7,1.8,2.3,2.5l1,0.5c2.8,1.2,4.3,2.5,4.3,5.1c0,2.9-2.2,4.5-5.3,4.5C513.1,35.1,510.8,33.8,509.7,31.6z
		"/>
	<path class="st0" d="M523.8,18.4h2.5v16.3h-2.5V18.4z"/>
	<path class="st0" d="M529.4,26.6c0.2-4.6,4.1-8.3,8.7-8.1c4.4,0.2,8,3.7,8.1,8.1c-0.2,4.6-4.1,8.3-8.7,8.1
		C533.1,34.5,529.5,31,529.4,26.6z M543.6,26.6c0.2-3.2-2.3-6-5.5-6.2c-3.2-0.2-6,2.3-6.2,5.5c0,0.2,0,0.5,0,0.7
		c-0.2,3.2,2.3,6,5.5,6.2c3.2,0.2,6-2.3,6.2-5.5C543.6,27,543.6,26.8,543.6,26.6z"/>
	<path class="st0" d="M553,25.2c-0.7-0.7-1.5-1.8-1.5-1.8c0.1,0.8,0.2,1.6,0.2,2.4v9h-2.3V18.2h0.3l9,9.7c0.6,0.7,1.5,1.8,1.5,1.8
		s-0.2-1.4-0.2-2.4v-9h2.3v16.5H562L553,25.2z"/>
	<path class="st0" d="M571.5,18.2h0.3l7.2,16.5h-2.6l-0.9-2.3h-7.5l-0.9,2.3h-2.5L571.5,18.2z M574.4,30.3l-2-5.1
		c-0.3-0.8-0.6-1.6-0.8-2.4c-0.2,0.8-0.5,1.6-0.8,2.4l-2,5.1H574.4z"/>
	<path class="st0" d="M581.1,18.4h2.5v14.1h7.5v2.2h-10.1V18.4z"/>
	<path class="st0" d="M592.7,31.6l2.1-1.1c0.7,1.4,2.2,2.3,3.7,2.3c1.7,0,2.8-0.9,2.8-2.2s-1-2-2.7-2.8l-1.1-0.5
		c-2.4-1.1-3.8-2.3-3.8-4.8s1.9-4.1,4.6-4.1c1.9-0.1,3.7,0.9,4.6,2.6l-2,1.2c-0.5-1-1.5-1.6-2.6-1.6c-1-0.1-2,0.7-2.1,1.7
		c0,0.1,0,0.1,0,0.2c0,1.2,0.7,1.8,2.3,2.5l1,0.5c2.8,1.2,4.3,2.5,4.3,5.1c0,2.9-2.2,4.5-5.3,4.5C596.1,35.1,593.8,33.8,592.7,31.6z
		"/>
	<path class="st0" d="M610.5,18.4h3.5l2.4,6.6c0.4,1.1,0.9,3,0.9,3c0.3-1,0.6-2,1-3l3.1-6.7h0.3L625,25c0.4,1,0.7,1.9,1,3
		c0,0,0.5-1.8,0.9-3l2.4-6.5h3.3l-5.9,16.5h-0.3l-3.7-7.9c-0.3-0.8-0.6-1.6-0.9-2.4c0,0-0.5,1.5-0.9,2.4l-3.8,7.9h-0.3L610.5,18.4z"
		/>
	<path class="st0" d="M637.3,18.3h0.3l7.5,16.5h-3.5l-0.8-1.8h-6.6l-0.8,1.8h-3.2L637.3,18.3z M639.5,30.1l-1.2-2.8
		c-0.5-1.1-1-2.9-1-2.9c-0.3,1-0.6,2-1,2.9l-1.2,2.8H639.5z"/>
	<path class="st0" d="M651.8,27.1c-0.7-0.7-1.3-1.5-1.9-2.2c0.1,1,0.2,2,0.2,3v6.8h-3.2V18.3h0.3l8.2,7.7c0.7,0.7,1.3,1.5,1.9,2.2
		c0,0-0.2-1.9-0.2-3v-6.8h3.1v16.5H660L651.8,27.1z"/>
	<path class="st0" d="M667.1,21.4h-4.7v-3h12.7v3h-4.7v13.4h-3.4L667.1,21.4z"/>
	<path class="st0" d="M677.1,18.4h10.8v3h-7.4v5.2h6.5v2.9h-6.5v2.4h7.8v2.9h-11.1V18.4z"/>
	<path class="st0" d="M691.3,18.4h5c5,0,8.6,3.3,8.6,8.2s-3.5,8.2-8.6,8.2h-5V18.4z M696.1,31.8c3.6,0,5.3-2.2,5.3-5.2
		s-1.7-5.2-5.3-5.2h-1.5v10.4L696.1,31.8z"/>
</g>
</svg>
