<?xml version="1.0" encoding="utf-8"?>
<!-- Generator: Adobe Illustrator 26.0.1, SVG Export Plug-In . SVG Version: 6.00 Build 0)  -->
<svg version="1.1" id="Layer_1" xmlns="http://www.w3.org/2000/svg" xmlns:xlink="http://www.w3.org/1999/xlink" x="0px" y="0px"
	 viewBox="0 0 728 90" style="enable-background:new 0 0 728 90;" xml:space="preserve">
<style type="text/css">
	.st0{fill:#FFFFFF;}
</style>
<g>
	<path class="st0" d="M415.1,32.4c-0.6-0.7-1.5-1.8-1.5-1.8c0.1,0.8,0.2,1.6,0.2,2.3v9h-2.4V25.4h0.3l9,9.7c0.6,0.7,1.5,1.8,1.5,1.8
		s-0.2-1.4-0.2-2.3v-9h2.4v16.5h-0.3L415.1,32.4z"/>
	<path class="st0" d="M428.2,36.2V25.6h2.5V36c0,2.6,1.3,3.8,3.7,3.8s3.7-1.2,3.7-3.8V25.6h2.5v10.6c0,4-2.7,6-6.2,6
		S428.2,40.1,428.2,36.2z"/>
	<path class="st0" d="M455.7,41.9h-2.9l-2.9-4.3c-0.5,0.1-0.9,0.1-1.4,0.1h-1.5v4.2h-2.5V25.6h4.1c4.5,0,7,2.4,7,6.1
		c0.1,2.2-1.2,4.3-3.3,5.2L455.7,41.9z M448.4,35.5c3.2,0,4.5-1.4,4.5-3.8s-1.4-3.9-4.5-3.9h-1.4v7.7H448.4z"/>
	<path class="st0" d="M457.1,38.7l2.1-1.2c0.7,1.4,2.2,2.3,3.7,2.3c1.7,0,2.8-0.9,2.8-2.2s-1-2-2.7-2.8l-1.1-0.5
		c-2.4-1.1-3.8-2.3-3.8-4.8s1.9-4.1,4.6-4.1c1.9-0.1,3.7,0.9,4.6,2.6l-2,1.2c-0.5-1-1.5-1.6-2.6-1.6c-1-0.1-2,0.6-2.1,1.7
		c0,0.1,0,0.1,0,0.2c0,1.2,0.7,1.8,2.4,2.5l1,0.5c2.8,1.2,4.3,2.5,4.3,5.1c0,2.9-2.2,4.5-5.3,4.5C460.5,42.3,458.2,40.9,457.1,38.7z
		"/>
	<path class="st0" d="M471.2,25.6h2.5v16.3h-2.5V25.6z"/>
	<path class="st0" d="M481.3,32.4c-0.6-0.7-1.5-1.8-1.5-1.8c0.1,0.8,0.2,1.6,0.2,2.3v9h-2.4V25.4h0.3l9,9.7c0.6,0.7,1.5,1.8,1.5,1.8
		s-0.2-1.4-0.2-2.3v-9h2.4v16.5h-0.3L481.3,32.4z"/>
	<path class="st0" d="M493.6,33.7c-0.2-4.5,3.3-8.2,7.8-8.4c0.2,0,0.4,0,0.6,0c2.2-0.2,4.3,0.6,5.8,2.2l-1.7,1.7
		c-1.1-1.1-2.5-1.7-4.1-1.6c-3.2,0-5.8,2.5-5.8,5.7c0,0.1,0,0.3,0,0.4c-0.1,3.2,2.3,6,5.6,6.1c0.2,0,0.4,0,0.5,0
		c1.4,0,2.8-0.3,4-1.1v-2.9H502v-2.2h6.7V40c-1.8,1.4-4.1,2.2-6.4,2.1C497.2,42.1,493.6,38.6,493.6,33.7z"/>
	<path class="st0" d="M516.4,33.7c-0.1-4.5,3.5-8.3,8-8.4c0.1,0,0.2,0,0.3,0c2.6-0.2,5.1,1.1,6.5,3.2l-1.9,1.4
		c-1-1.5-2.8-2.4-4.6-2.4c-3.2-0.1-5.8,2.5-5.8,5.6c0,0.1,0,0.3,0,0.4c-0.2,3.2,2.2,5.9,5.4,6.1c0.1,0,0.2,0,0.4,0
		c2,0.1,3.8-0.9,4.8-2.6l2,1.4c-1.5,2.3-4.1,3.6-6.8,3.5c-4.5,0.1-8.3-3.5-8.4-8.1C516.4,33.9,516.4,33.8,516.4,33.7z"/>
	<path class="st0" d="M539.7,25.4h0.3l7.2,16.5h-2.6l-0.9-2.3h-7.5l-0.9,2.3h-2.5L539.7,25.4z M542.7,37.5l-2-5.1
		c-0.3-0.8-0.6-1.6-0.8-2.4c-0.2,0.8-0.5,1.6-0.8,2.4l-2,5.1H542.7z"/>
	<path class="st0" d="M560.6,41.9h-2.9l-2.9-4.3c-0.5,0.1-0.9,0.1-1.4,0.1h-1.5v4.2h-2.5V25.6h4.1c4.5,0,7,2.4,7,6.1
		c0.1,2.3-1.2,4.3-3.3,5.2L560.6,41.9z M553.3,35.5c3.2,0,4.5-1.4,4.5-3.8s-1.3-3.9-4.5-3.9h-1.4v7.7H553.3z"/>
	<path class="st0" d="M563.6,25.6H574v2.2h-7.8v6.3h6.9v2.2h-6.9v3.3h8.2v2.2h-10.7L563.6,25.6z"/>
	<path class="st0" d="M577.2,25.6h10.4v2.2h-7.8v6.3h6.9v2.2h-6.9v3.3h8.2v2.2h-10.7V25.6z"/>
	<path class="st0" d="M602.1,41.9h-2.9l-2.9-4.3c-0.5,0.1-0.9,0.1-1.4,0.1h-1.5v4.2h-2.5V25.6h4.1c4.5,0,7,2.4,7,6.1
		c0.1,2.3-1.2,4.3-3.3,5.2L602.1,41.9z M594.8,35.5c3.2,0,4.5-1.4,4.5-3.8s-1.3-3.9-4.5-3.9h-1.4v7.7H594.8z"/>
	<path class="st0" d="M603.5,38.7l2.1-1.2c0.7,1.4,2.2,2.3,3.8,2.3c1.7,0,2.8-0.9,2.8-2.2s-1-2-2.7-2.8l-1.1-0.5
		c-2.4-1.1-3.8-2.3-3.8-4.8s1.9-4.1,4.6-4.1c1.9-0.1,3.7,0.9,4.6,2.6l-2,1.2c-0.5-1-1.5-1.7-2.6-1.6c-1-0.1-2,0.7-2.1,1.7
		c0,0.1,0,0.1,0,0.2c0,1.2,0.7,1.8,2.3,2.5l1.1,0.5c2.8,1.2,4.3,2.5,4.3,5.1c0,2.9-2.2,4.5-5.3,4.5
		C606.9,42.3,604.6,40.9,603.5,38.7z"/>
</g>
</svg>
