<?xml version="1.0" encoding="utf-8"?>
<!-- Generator: Adobe Illustrator 26.0.1, SVG Export Plug-In . SVG Version: 6.00 Build 0)  -->
<svg version="1.1" id="Layer_1" xmlns="http://www.w3.org/2000/svg" xmlns:xlink="http://www.w3.org/1999/xlink" x="0px" y="0px"
	 viewBox="0 0 728 90" style="enable-background:new 0 0 728 90;" xml:space="preserve">
<style type="text/css">
	.st0{fill:#FFFFFF;}
</style>
<g>
	<path class="st0" d="M372.9,36.7h3.5l2.4,6.5c0.4,1.1,0.9,3,0.9,3c0.3-1,0.6-2,1-3l3.1-6.7h0.3l3.2,6.7c0.4,1,0.7,1.9,1,3
		c0,0,0.5-1.8,0.9-3l2.4-6.5h3.3l-5.9,16.5h-0.3l-3.7-7.9c-0.4-0.8-0.7-1.6-0.9-2.4c0,0-0.5,1.5-0.9,2.4l-3.8,7.9h-0.3L372.9,36.7z"
		/>
	<path class="st0" d="M396.8,36.7h3.4v8.3h7v-8.3h3.4V53h-3.4v-5h-7v5h-3.4V36.7z"/>
	<path class="st0" d="M413.3,44.9c0-4.7,3.7-8.5,8.4-8.5c4.7,0,8.5,3.7,8.5,8.4c0,4.7-3.7,8.5-8.4,8.5c0,0-0.1,0-0.1,0
		c-4.6,0.1-8.3-3.5-8.4-8.1C413.3,45.1,413.3,45,413.3,44.9z M426.7,44.9c0-3-2-5.4-5-5.4s-5,2.3-5,5.4s2,5.4,5,5.4
		S426.7,47.9,426.7,44.9z"/>
	<path class="st0" d="M433.2,40.2c-1-0.5-1.4-1.6-0.9-2.6c0.3-0.7,1-1.1,1.7-1.1c1.1,0,2,0.8,2,1.9c0,0,0,0,0,0
		c0,0.7-0.3,1.5-0.7,2.1l-1.5,2.5h-1.6L433.2,40.2z"/>
	<path class="st0" d="M438.9,36.7h5c5,0,8.6,3.3,8.6,8.2s-3.5,8.1-8.6,8.1h-5L438.9,36.7z M443.7,50.1c3.6,0,5.3-2.2,5.3-5.2
		s-1.7-5.2-5.3-5.2h-1.5v10.4H443.7z"/>
	<path class="st0" d="M460.2,36.7h3.4v8.3h7v-8.3h3.4V53h-3.4v-5h-7v5h-3.4V36.7z"/>
	<path class="st0" d="M483,36.6h0.3l7.4,16.4h-3.5l-0.8-1.8h-6.6L479,53h-3.2L483,36.6z M485.2,48.4l-1.2-2.8c-0.5-1.2-1-2.9-1-2.9
		c-0.3,1-0.6,2-1,2.9l-1.2,2.8L485.2,48.4z"/>
	<path class="st0" d="M489.4,36.7h3.6l2.8,6.3c0.5,1.2,0.9,2.4,1.3,3.7c0.3-1.3,0.8-2.5,1.2-3.7l2.7-6.3h3.3l-7.2,16.5h-0.3
		L489.4,36.7z"/>
	<path class="st0" d="M506.2,36.7H517v3h-7.4v5.2h6.6v2.9h-6.6v2.3h7.8v3h-11.1V36.7z"/>
	<path class="st0" d="M529.1,39.7h-4.7v-3h12.7v3h-4.7V53h-3.4V39.7z"/>
	<path class="st0" d="M539.1,36.7h3.4v8.3h7v-8.3h3.4V53h-3.4v-5h-7v5h-3.4V36.7z"/>
	<path class="st0" d="M555.6,44.9c0-4.7,3.7-8.5,8.4-8.5c4.7,0,8.5,3.7,8.5,8.4s-3.7,8.5-8.4,8.5c0,0-0.1,0-0.1,0
		c-4.6,0.1-8.3-3.5-8.4-8.1C555.6,45.1,555.6,45,555.6,44.9z M569,44.9c0-3-2-5.4-5-5.4s-5,2.3-5,5.4s2,5.4,5,5.4S569,47.9,569,44.9
		L569,44.9z"/>
	<path class="st0" d="M575.2,47.1V36.7h3.4v10.2c0,2.4,1,3.3,3.3,3.3s3.2-0.9,3.2-3.3V36.7h3.4v10.4c0,4.1-2.9,6.1-6.6,6.1
		S575.2,51.3,575.2,47.1z"/>
	<path class="st0" d="M591,44.9c-0.2-4.4,3.2-8.2,7.6-8.4c0.2,0,0.5,0,0.7,0c2.7,0,4.6,0.7,5.9,2.3L603,41c-0.9-1-2.3-1.6-3.7-1.5
		c-3,0-4.9,2.3-4.9,5.3c-0.2,2.8,2,5.2,4.8,5.4c0.2,0,0.4,0,0.6,0c1.1,0,2.2-0.2,3.2-0.6v-2.4h-3.9v-3h7v7.1c-1.8,1.3-4,1.9-6.3,1.9
		C594.5,53.2,591,49.7,591,44.9z"/>
	<path class="st0" d="M609.3,36.7h3.4v8.3h7v-8.3h3.3V53h-3.4v-5h-7v5h-3.4L609.3,36.7z"/>
	<path class="st0" d="M629.7,39.7h-4.7v-3h12.7v3h-4.7V53h-3.4V39.7z"/>
	<path class="st0" d="M642.7,43.7h1.1c2,0,2.7-1.1,2.7-2.3c0-1.1-0.9-2-2-2c-1.1,0-2.1,0.6-2.5,1.6l-2.6-1.5
		c0.9-1.9,2.6-2.9,5.1-2.9c3.4,0,5.3,2.4,5.3,4.9c0.2,2.4-1.7,4.5-4.1,4.7v1.4h-3L642.7,43.7z M642.1,51.1c0-1.1,0.9-2,2-2
		s2,0.9,2,2s-0.9,2-2,2S642.1,52.2,642.1,51.1z"/>
</g>
</svg>
