<?xml version="1.0" encoding="utf-8"?>
<!-- Generator: Adobe Illustrator 26.0.1, SVG Export Plug-In . SVG Version: 6.00 Build 0)  -->
<svg version="1.1" id="Layer_1" xmlns="http://www.w3.org/2000/svg" xmlns:xlink="http://www.w3.org/1999/xlink" x="0px" y="0px"
	 viewBox="0 0 728 90" style="enable-background:new 0 0 728 90;" xml:space="preserve">
<style type="text/css">
	.st0{fill:#FFFFFF;}
</style>
<g>
	<path class="st0" d="M448.5,25.6c0-1.1,0.9-2,2-2s2,0.9,2,2s-0.9,2-2,2S448.5,26.7,448.5,25.6z"/>
	<path class="st0" d="M458.7,17.4h8.4v1.8h-6.3v5.4h5.7v1.9h-5.7V31h-2.1L458.7,17.4z"/>
	<path class="st0" d="M469.1,17.4h2.1V31h-2.1V17.4z"/>
	<path class="st0" d="M477.5,23.6l-3.8-6.1h2.3l2,3.3c0.2,0.4,0.5,0.9,0.6,1.4c0.2-0.5,0.4-0.9,0.6-1.4l2-3.3h2.3l-3.7,6.1l4.6,7.4
		h-2.3l-2.8-4.5c-0.3-0.4-0.5-0.9-0.7-1.4c-0.2,0.5-0.4,0.9-0.6,1.4l-2.8,4.5H473L477.5,23.6z"/>
	<path class="st0" d="M486.2,17.4h8.6v1.8h-6.5v5.2h5.7v1.8h-5.8v2.8h6.8V31h-8.9L486.2,17.4z"/>
	<path class="st0" d="M497.3,17.4h3.7c4.3,0,7.2,2.7,7.2,6.8S505.4,31,501,31h-3.7V17.4z M500.9,29.1c3.5,0,5.2-2,5.2-4.9
		s-1.6-4.9-5.2-4.9h-1.5v9.8H500.9z"/>
	<path class="st0" d="M513.4,28.3l1.7-1c0.6,1.2,1.8,1.9,3.1,1.9c1.4,0,2.3-0.7,2.3-1.9s-0.8-1.7-2.3-2.3l-0.9-0.4
		c-2-0.9-3.2-1.9-3.2-4c0-1.9,1.6-3.5,3.5-3.5c0.1,0,0.2,0,0.3,0c1.6-0.1,3.1,0.7,3.8,2.1l-1.7,1c-0.4-0.8-1.2-1.4-2.2-1.3
		c-0.9-0.1-1.6,0.5-1.7,1.4c0,0.1,0,0.1,0,0.2c0,1,0.6,1.5,2,2.1l0.9,0.4c2.3,1,3.5,2.1,3.5,4.2c0,2.4-1.8,3.7-4.4,3.7
		C516.3,31.2,514.4,30.1,513.4,28.3z"/>
	<path class="st0" d="M524.9,17.4h2.1v7.3h6.5v-7.3h2.1V31h-2.1v-4.4H527V31h-2.1L524.9,17.4z"/>
	<path class="st0" d="M538.7,17.4h2.1V31h-2.1V17.4z"/>
	<path class="st0" d="M543.8,17.4h8.4v1.8h-6.3v5.4h5.7v1.9h-5.7V31h-2.1V17.4z"/>
	<path class="st0" d="M557.6,19.3h-4v-1.8h10.1v1.8h-4V31h-2.1L557.6,19.3z"/>
	<path class="st0" d="M564.2,28.3l1.7-1c0.6,1.2,1.8,1.9,3.1,1.9c1.4,0,2.3-0.7,2.3-1.9s-0.8-1.7-2.3-2.3l-0.9-0.4
		c-2-0.9-3.2-1.9-3.2-4c0-1.9,1.6-3.5,3.5-3.5c0.1,0,0.2,0,0.3,0c1.6-0.1,3.1,0.7,3.8,2.1l-1.7,1c-0.4-0.8-1.2-1.4-2.2-1.3
		c-0.9-0.1-1.6,0.5-1.7,1.4c0,0.1,0,0.1,0,0.2c0,1,0.6,1.5,2,2.1l0.9,0.4c2.3,1,3.5,2.1,3.5,4.2c0,2.4-1.8,3.7-4.4,3.7
		C567.1,31.2,565.1,30.1,564.2,28.3z"/>
</g>
</svg>
