<?xml version="1.0" encoding="utf-8"?>
<!-- Generator: Adobe Illustrator 26.0.1, SVG Export Plug-In . SVG Version: 6.00 Build 0)  -->
<svg version="1.1" id="Layer_1" xmlns="http://www.w3.org/2000/svg" xmlns:xlink="http://www.w3.org/1999/xlink" x="0px" y="0px"
	 viewBox="0 0 728 90" style="enable-background:new 0 0 728 90;" xml:space="preserve">
<style type="text/css">
	.st0{clip-path:url(#SVGID_00000065792519761480498500000018085514393560346515_);}
	.st1{fill:#FFFFFF;}
	.st2{fill:#FF6C7C;}
</style>
<g>
	<g>
		<defs>
			<rect id="SVGID_1_" y="0" width="728" height="90"/>
		</defs>
		<clipPath id="SVGID_00000168100991031297137050000008010400375776190601_">
			<use xlink:href="#SVGID_1_"  style="overflow:visible;"/>
		</clipPath>
		<g style="clip-path:url(#SVGID_00000168100991031297137050000008010400375776190601_);">
			<path class="st1" d="M459.3,45.6h104.4c3.1,0,5.6,2.5,5.6,5.6v15.3c0,3.1-2.5,5.6-5.6,5.6H459.3c-3.1,0-5.6-2.5-5.6-5.6V51.2
				C453.7,48.1,456.2,45.6,459.3,45.6z"/>
		</g>
	</g>
	<path class="st2" d="M465,53.7h2.2v8.6h4.9v1.9H465V53.7z"/>
	<path class="st2" d="M473.5,53.7h7.1v1.9h-4.9V59h4.3v1.8h-4.3v1.5h5.1v1.9h-7.3L473.5,53.7z"/>
	<path class="st2" d="M486.8,53.7h0.2l4.9,10.6h-2.3l-0.5-1.2h-4.4l-0.5,1.2h-2.1L486.8,53.7z M488.2,61.3l-0.8-1.8
		c-0.3-0.7-0.6-1.9-0.6-1.9s-0.3,1.1-0.6,1.9l-0.8,1.8H488.2z"/>
	<path class="st2" d="M501.1,64.3h-2.5l-1.8-2.7c-0.2,0-0.4,0-0.6,0h-0.8v2.6h-2.2V53.7h3c3,0,4.8,1.4,4.8,4
		c0.1,1.4-0.8,2.7-2.1,3.2L501.1,64.3z M496.1,59.8c1.8,0,2.6-0.6,2.6-2s-0.8-2.1-2.6-2.1h-0.7v4.1L496.1,59.8z"/>
	<path class="st2" d="M506,59.4c-0.5-0.5-0.9-0.9-1.3-1.4c0.1,0.6,0.1,1.3,0.2,1.9v4.4h-2.1V53.7h0.2l5.4,5c0.5,0.5,0.9,0.9,1.3,1.4
		c0,0-0.1-1.2-0.1-1.9v-4.4h2.1v10.6h-0.2L506,59.4z"/>
	<path class="st2" d="M517,53.6h0.2l5.3,5.7l5.2-5.7h0.2v10.6h-2.1v-3.9c0-0.7,0.1-1.8,0.1-1.8s-0.7,0.9-1.2,1.5l-2.1,2.3h-0.2
		l-2.1-2.3c-0.5-0.6-1.2-1.5-1.2-1.5s0.1,1.1,0.1,1.8v3.9H517V53.6z"/>
	<path class="st2" d="M529.8,59c-0.1-3.1,2.3-5.6,5.4-5.7c3.1-0.1,5.6,2.3,5.7,5.4c0.1,3.1-2.3,5.6-5.4,5.7c-0.1,0-0.1,0-0.2,0
		c-3,0.1-5.5-2.2-5.6-5.2C529.8,59.1,529.8,59.1,529.8,59z M538.6,59c-0.1-1.8-1.7-3.2-3.5-3.1c-1.8,0.1-3.2,1.7-3.1,3.5
		c0.1,1.7,1.5,3.1,3.3,3.1c1.8,0,3.3-1.4,3.3-3.3C538.6,59.1,538.6,59.1,538.6,59L538.6,59z"/>
	<path class="st2" d="M550.7,64.3h-2.6l-1.8-2.7c-0.2,0-0.4,0-0.6,0H545v2.6h-2.2V53.7h3c3,0,4.8,1.4,4.8,4c0.1,1.4-0.8,2.8-2.1,3.2
		L550.7,64.3z M545.7,59.8c1.8,0,2.6-0.6,2.6-2s-0.8-2.1-2.6-2.1H545v4.1L545.7,59.8z"/>
	<path class="st2" d="M552.5,53.7h7.1v1.9h-4.9V59h4.3v1.8h-4.3v1.5h5.1v1.9h-7.3L552.5,53.7z"/>
</g>
</svg>
