<svg xmlns="http://www.w3.org/2000/svg" viewBox="0 0 70.39 58.28"><defs><style>.cls-1{fill:#fff;}.cls-2{fill:none;}.cls-3{fill:#979899;}.cls-4{fill:#f48220;}</style></defs><title>logo618-728x90</title><g id="Layer_2" data-name="Layer 2"><g id="Layer_1-2" data-name="Layer 1"><path class="cls-1" d="M0,55.41H0a2.81,2.81,0,0,1,2.82-2.89A2.87,2.87,0,0,1,5,53.4l-.43.46a2.4,2.4,0,0,0-1.75-.77A2.19,2.19,0,0,0,.65,55.38v0a2.2,2.2,0,0,0,2.16,2.3,2.41,2.41,0,0,0,1.8-.81L5,57.3a2.92,2.92,0,0,1-2.23,1A2.79,2.79,0,0,1,0,55.41Z"/><path class="cls-1" d="M10.3,52.57h.59l2.54,5.61h-.68l-.65-1.47h-3L8.4,58.18H7.76Zm1.55,3.57L10.59,53.3,9.31,56.14Z"/><path class="cls-1" d="M16.64,52.61H19a2.15,2.15,0,0,1,1.58.56,1.53,1.53,0,0,1,.43,1.09v0a1.63,1.63,0,0,1-1.51,1.63l1.71,2.27h-.77L18.86,56H17.27v2.16h-.63ZM19,55.45c.84,0,1.44-.43,1.44-1.15h0c0-.69-.53-1.1-1.43-1.1H17.27v2.26Z"/><path class="cls-1" d="M24.51,52.61h.59l3.51,4.47V52.61h.62v5.57h-.51l-3.6-4.57v4.57h-.61Z"/><path class="cls-1" d="M35,52.57h.59l2.54,5.61h-.68l-.65-1.47h-3l-.66,1.47h-.64Zm1.55,3.57L35.27,53.3,34,56.14Z"/><path class="cls-1" d="M41.32,52.61h2.4a2.15,2.15,0,0,1,1.58.56,1.53,1.53,0,0,1,.43,1.09v0a1.63,1.63,0,0,1-1.51,1.63l1.71,2.27h-.77L43.54,56H42v2.16h-.63Zm2.34,2.84c.84,0,1.44-.43,1.44-1.15h0c0-.69-.53-1.1-1.43-1.1H42v2.26Z"/><path class="cls-1" d="M48.55,52.61h.7l2,4.8,2-4.8h.68l-2.4,5.61H51Z"/><path class="cls-1" d="M56.54,55.41h0a2.83,2.83,0,0,1,2.86-2.89,2.8,2.8,0,0,1,2.83,2.87v0a2.85,2.85,0,1,1-5.69,0Zm5,0h0a2.23,2.23,0,0,0-2.2-2.31,2.19,2.19,0,0,0-2.18,2.29v0a2.22,2.22,0,0,0,2.2,2.3A2.19,2.19,0,0,0,61.58,55.41Z"/><path class="cls-1" d="M65.67,52.61h.59l3.51,4.47V52.61h.62v5.57h-.5l-3.6-4.57v4.57h-.62Z"/><circle class="cls-2" cx="55.86" cy="9.97" r="5.8"/><circle class="cls-2" cx="55.86" cy="29.55" r="9.61"/><path class="cls-3" d="M65.47,29.55a9.61,9.61,0,0,1-19.22,0H42.08a13.79,13.79,0,1,0,27.57,0Z"/><path class="cls-4" d="M55.86,19.94a9.62,9.62,0,0,1,9.61,9.61h4.18a13.81,13.81,0,0,0-7.2-12.11,9.92,9.92,0,0,1-13.17,0,13.79,13.79,0,0,0-7.2,12.11h4.17A9.62,9.62,0,0,1,55.86,19.94Z"/><path class="cls-1" d="M55.86,0a10,10,0,1,0,10,10A10,10,0,0,0,55.86,0Zm0,4.17A5.8,5.8,0,1,1,50.07,10,5.8,5.8,0,0,1,55.86,4.17Z"/><polygon class="cls-3" points="30.32 4.19 34.69 4.19 34.69 29.55 38.86 29.55 38.86 0.02 30.32 0.02 30.32 4.19"/><rect class="cls-4" x="34.68" y="29.55" width="4.17" height="13.73"/><path class="cls-4" d="M24.19,0,5,19.82v0a.47.47,0,0,0-.1.1l3,2.89c.17-.18.35-.35.53-.51l6.32-6.53,12.53-13Z"/><path class="cls-3" d="M14.78,15.79h0L8.46,22.32A9.61,9.61,0,0,1,24.4,29.55h4.16A13.78,13.78,0,0,0,14.78,15.79Z"/><path class="cls-1" d="M24.4,29.55h0A9.62,9.62,0,1,1,7.93,22.83l-3-2.89a13.78,13.78,0,1,0,23.63,9.62H24.4Z"/></g></g></svg>