<svg xmlns="http://www.w3.org/2000/svg" viewBox="0 0 89.83 10.14"><defs><style>.cls-1{fill:#f5811f;}</style></defs><title>t2-728x90</title><g id="Layer_2" data-name="Layer 2"><g id="Layer_1-2" data-name="Layer 1"><path class="cls-1" d="M3.59,10.14A3.45,3.45,0,0,1,1,9.13c-1-1-1-2-1-4.06S0,2,1,1A3.45,3.45,0,0,1,3.59,0,3.44,3.44,0,0,1,7.14,3.07H5.6a2,2,0,0,0-2-1.73A1.94,1.94,0,0,0,2.12,2c-.51.53-.61,1.14-.61,3.11s.1,2.58.61,3.11a1.94,1.94,0,0,0,1.47.62,2,2,0,0,0,2-1.73H7.14A3.44,3.44,0,0,1,3.59,10.14Z"/><path class="cls-1" d="M14.82,9.13a3.48,3.48,0,0,1-2.58,1,3.46,3.46,0,0,1-2.58-1c-1-1-1-2-1-4.06S8.68,2,9.66,1a3.46,3.46,0,0,1,2.58-1,3.48,3.48,0,0,1,2.58,1c1,1,1,2,1,4.06S15.8,8.15,14.82,9.13ZM13.72,2a2,2,0,0,0-1.48-.62A2,2,0,0,0,10.75,2c-.49.53-.58,1.14-.58,3.11s.09,2.56.58,3.1a2,2,0,0,0,1.49.63,2,2,0,0,0,1.48-.63c.51-.52.59-1.12.59-3.1S14.23,2.48,13.72,2Z"/><path class="cls-1" d="M25.34,10.06V3.39L23.05,8.25H21.93L19.57,3.39v6.67H18.06V.08h1.51l2.92,6.21L25.34.08h1.52v10Z"/><path class="cls-1" d="M29.44,10.06V.08H31v10Z"/><path class="cls-1" d="M39.68,10.06,35.07,3v7H33.56V.08h1.38l4.61,7v-7h1.52v10Z"/><path class="cls-1" d="M49.63,9a3.65,3.65,0,0,1-2.74,1.13,3.45,3.45,0,0,1-2.58-1c-1-1-1-2-1-4.06s0-3.08,1-4.06a3.45,3.45,0,0,1,2.58-1A3.49,3.49,0,0,1,50.5,3.08H49A2.12,2.12,0,0,0,45.4,2c-.49.53-.59,1.14-.59,3.11s.1,2.58.59,3.11a2,2,0,0,0,1.49.62,2.13,2.13,0,0,0,1.64-.72A2.26,2.26,0,0,0,49,6.51V6H46.89V4.67h3.64V6.19A3.75,3.75,0,0,1,49.63,9Z"/><path class="cls-1" d="M58.76,10.14a4.56,4.56,0,0,1-3.53-1.31l1-1a3.36,3.36,0,0,0,2.57,1c1.31,0,2.06-.56,2.06-1.54a1.29,1.29,0,0,0-.4-1,2,2,0,0,0-1.09-.42l-1.18-.17a3.37,3.37,0,0,1-1.87-.8,2.48,2.48,0,0,1-.74-1.92C55.57,1.18,56.83,0,58.9,0A4.18,4.18,0,0,1,62,1.13l-1,1a3,3,0,0,0-2.2-.77C57.67,1.32,57,2,57,2.87a1.15,1.15,0,0,0,.36.93,1.94,1.94,0,0,0,1.09.44l1.19.19a3.25,3.25,0,0,1,1.85.74,2.66,2.66,0,0,1,.81,2C62.34,9.05,60.86,10.14,58.76,10.14Z"/><path class="cls-1" d="M70.17,9.13a3.79,3.79,0,0,1-5.15,0c-1-1-1-2-1-4.06S64,2,65,1a3.79,3.79,0,0,1,5.15,0c1,1,1,2,1,4.06S71.15,8.15,70.17,9.13ZM69.08,2a2.09,2.09,0,0,0-3,0c-.49.53-.59,1.14-.59,3.11s.1,2.56.59,3.1a2.07,2.07,0,0,0,3,0c.5-.52.59-1.12.59-3.1S69.58,2.48,69.08,2Z"/><path class="cls-1" d="M79.08,9.13a3.8,3.8,0,0,1-5.16,0c-1-1-1-2-1-4.06s0-3.08,1-4.06a3.8,3.8,0,0,1,5.16,0c1,1,1,2,1,4.06S80.06,8.15,79.08,9.13ZM78,2a2.09,2.09,0,0,0-3,0c-.49.53-.59,1.14-.59,3.11s.1,2.56.59,3.1a2.07,2.07,0,0,0,3,0c.51-.52.59-1.12.59-3.1S78.49,2.48,78,2Z"/><path class="cls-1" d="M88.44,10.06,83.83,3v7H82.32V.08h1.39l4.6,7v-7h1.52v10Z"/></g></g></svg>