<svg xmlns="http://www.w3.org/2000/svg" viewBox="0 0 149.1 10.14"><defs><style>.cls-1{fill:#fff;}</style></defs><title>t2b-728x90</title><g id="Layer_2" data-name="Layer 2"><g id="Layer_1-2" data-name="Layer 1"><path class="cls-1" d="M4.26,1.44v8.62H2.75V1.44H0V.08H7V1.44Z"/><path class="cls-1" d="M14.24,9.13a3.45,3.45,0,0,1-2.58,1,3.44,3.44,0,0,1-2.57-1c-1-1-1-2-1-4.06S8.11,2,9.09,1a3.44,3.44,0,0,1,2.57-1,3.45,3.45,0,0,1,2.58,1c1,1,1,2,1,4.06S15.22,8.15,14.24,9.13ZM13.15,2a2.09,2.09,0,0,0-3,0c-.49.53-.59,1.14-.59,3.11s.1,2.56.59,3.1a2.07,2.07,0,0,0,3,0c.5-.52.59-1.12.59-3.1S13.65,2.48,13.15,2Z"/><path class="cls-1" d="M27,10.06,22.36,3v7H20.85V.08h1.38l4.61,7v-7h1.51v10Z"/><path class="cls-1" d="M31,10.06V.08h6.37V1.44H32.47V4.36h4.14V5.7H32.47v3h4.86v1.36Z"/><path class="cls-1" d="M47.54,10.06H46.22l-2-7-2,7H40.85l-2.6-10h1.59l1.74,7.13,2-7.13H44.8l2,7.13L48.54.08h1.6Z"/><path class="cls-1" d="M63.09,10.06H61.77l-2-7-2,7H56.41L53.8.08h1.6l1.73,7.13,2-7.13h1.22l2,7.13L64.1.08h1.59Z"/><path class="cls-1" d="M67.14,10.06V.08h6.38V1.44H68.66V4.36H72.8V5.7H68.66v3h4.86v1.36Z"/><path class="cls-1" d="M78.23,10.14A4.56,4.56,0,0,1,74.7,8.83l1-1a3.34,3.34,0,0,0,2.56,1c1.32,0,2.06-.56,2.06-1.54a1.28,1.28,0,0,0-.39-1,2,2,0,0,0-1.09-.42l-1.18-.17a3.43,3.43,0,0,1-1.88-.8A2.48,2.48,0,0,1,75,2.91C75,1.18,76.3,0,78.37,0a4.17,4.17,0,0,1,3.1,1.13l-1,1a3,3,0,0,0-2.2-.77c-1.18,0-1.81.64-1.81,1.55a1.16,1.16,0,0,0,.37.93A1.91,1.91,0,0,0,78,4.24l1.19.19A3.28,3.28,0,0,1,81,5.17a2.66,2.66,0,0,1,.81,2C81.82,9.05,80.33,10.14,78.23,10.14Z"/><path class="cls-1" d="M87.22,1.44v8.62H85.71V1.44H83V.08h7V1.44Z"/><path class="cls-1" d="M99,10.06V3.39l-2.3,4.86H95.55L93.2,3.39v6.67H91.69V.08H93.2l2.91,6.21L99,.08h1.51v10Z"/><path class="cls-1" d="M103.07,10.06V.08h1.51v10Z"/><path class="cls-1" d="M113.3,10.06l-4.6-7v7h-1.52V.08h1.39l4.61,7v-7h1.51v10Z"/><path class="cls-1" d="M119.94,10.14a4.56,4.56,0,0,1-3.53-1.31l1-1a3.36,3.36,0,0,0,2.57,1c1.31,0,2.06-.56,2.06-1.54a1.29,1.29,0,0,0-.4-1,2,2,0,0,0-1.09-.42l-1.17-.17a3.37,3.37,0,0,1-1.88-.8,2.48,2.48,0,0,1-.74-1.92C116.75,1.18,118,0,120.08,0a4.14,4.14,0,0,1,3.09,1.13l-1,1a3,3,0,0,0-2.2-.77c-1.17,0-1.8.64-1.8,1.55a1.15,1.15,0,0,0,.36.93,1.94,1.94,0,0,0,1.09.44l1.19.19a3.25,3.25,0,0,1,1.85.74,2.67,2.67,0,0,1,.82,2C123.53,9.05,122,10.14,119.94,10.14Z"/><path class="cls-1" d="M128.93,1.44v8.62h-1.52V1.44h-2.74V.08h7V1.44Z"/><path class="cls-1" d="M133.39,10.06V.08h6.37V1.44H134.9V4.36h4.15V5.7H134.9v3h4.86v1.36Z"/><path class="cls-1" d="M147.34,10.06l-2.1-4.2h-1.89v4.2h-1.52V.08h3.87A2.85,2.85,0,0,1,148.79,3a2.62,2.62,0,0,1-2,2.65l2.29,4.41Zm-1.75-8.62h-2.24V4.57h2.24A1.52,1.52,0,0,0,147.28,3,1.53,1.53,0,0,0,145.59,1.44Z"/></g></g></svg>