<svg id="Layer_1" data-name="Layer 1" xmlns="http://www.w3.org/2000/svg" xmlns:xlink="http://www.w3.org/1999/xlink" viewBox="0 0 300 600"><defs><style>.cls-1{fill:none;}.cls-2{clip-path:url(#clip-path);}.cls-3{fill:#221e1f;}.cls-4{clip-path:url(#clip-path-2);}.cls-5{clip-path:url(#clip-path-4);}.cls-6{clip-path:url(#clip-path-5);}.cls-7{clip-path:url(#clip-path-6);}.cls-8{clip-path:url(#clip-path-8);}.cls-9{clip-path:url(#clip-path-9);}.cls-10{clip-path:url(#clip-path-10);}.cls-11{clip-path:url(#clip-path-12);}.cls-12{clip-path:url(#clip-path-13);}.cls-13{clip-path:url(#clip-path-14);}.cls-14{clip-path:url(#clip-path-16);}.cls-15{clip-path:url(#clip-path-17);}.cls-16{clip-path:url(#clip-path-18);}.cls-17{clip-path:url(#clip-path-20);}.cls-18{clip-path:url(#clip-path-21);}.cls-19{clip-path:url(#clip-path-22);}.cls-20{clip-path:url(#clip-path-24);}.cls-21{clip-path:url(#clip-path-25);}.cls-22{clip-path:url(#clip-path-26);}.cls-23{clip-path:url(#clip-path-28);}.cls-24{clip-path:url(#clip-path-29);}.cls-25{clip-path:url(#clip-path-30);}.cls-26{clip-path:url(#clip-path-32);}.cls-27{clip-path:url(#clip-path-33);}.cls-28{clip-path:url(#clip-path-34);}.cls-29{clip-path:url(#clip-path-35);}.cls-30{clip-path:url(#clip-path-36);}.cls-31{clip-path:url(#clip-path-37);}.cls-32{clip-path:url(#clip-path-38);}.cls-33{clip-path:url(#clip-path-39);}.cls-34{clip-path:url(#clip-path-40);}.cls-35{clip-path:url(#clip-path-41);}.cls-36{clip-path:url(#clip-path-42);}</style><clipPath id="clip-path"><rect class="cls-1" width="300" height="600"/></clipPath><clipPath id="clip-path-2"><rect class="cls-1" x="320" width="300" height="600"/></clipPath><clipPath id="clip-path-4"><rect class="cls-1" x="400.85" y="364.8" width="138.3" height="137.47"/></clipPath><clipPath id="clip-path-5"><rect class="cls-1" x="-32448" y="-32167" width="65535" height="65535"/></clipPath><clipPath id="clip-path-6"><rect class="cls-1" x="640" width="300" height="600"/></clipPath><clipPath id="clip-path-8"><rect class="cls-1" x="720.85" y="364.8" width="138.3" height="137.47"/></clipPath><clipPath id="clip-path-9"><rect class="cls-1" x="-32128" y="-32167" width="65535" height="65535"/></clipPath><clipPath id="clip-path-10"><rect class="cls-1" x="960" width="300" height="600"/></clipPath><clipPath id="clip-path-12"><rect class="cls-1" x="1040.85" y="364.8" width="138.3" height="137.47"/></clipPath><clipPath id="clip-path-13"><rect class="cls-1" x="-31808" y="-32167" width="65535" height="65535"/></clipPath><clipPath id="clip-path-14"><rect class="cls-1" x="1280" width="300" height="600"/></clipPath><clipPath id="clip-path-16"><rect class="cls-1" x="1360.85" y="364.8" width="138.3" height="137.47"/></clipPath><clipPath id="clip-path-17"><rect class="cls-1" x="-31488" y="-32167" width="65535" height="65535"/></clipPath><clipPath id="clip-path-18"><rect class="cls-1" x="1600" width="300" height="600"/></clipPath><clipPath id="clip-path-20"><rect class="cls-1" x="1680.85" y="364.8" width="138.3" height="137.47"/></clipPath><clipPath id="clip-path-21"><rect class="cls-1" x="-31168" y="-32167" width="65535" height="65535"/></clipPath><clipPath id="clip-path-22"><rect class="cls-1" x="1920" width="300" height="600"/></clipPath><clipPath id="clip-path-24"><rect class="cls-1" x="2000.85" y="364.8" width="138.3" height="137.47"/></clipPath><clipPath id="clip-path-25"><rect class="cls-1" x="-30848" y="-32167" width="65535" height="65535"/></clipPath><clipPath id="clip-path-26"><rect class="cls-1" x="2240" width="300" height="600"/></clipPath><clipPath id="clip-path-28"><rect class="cls-1" x="2320.85" y="364.8" width="138.3" height="137.47"/></clipPath><clipPath id="clip-path-29"><rect class="cls-1" x="-30528" y="-32167" width="65535" height="65535"/></clipPath><clipPath id="clip-path-30"><rect class="cls-1" x="2560" width="300" height="600"/></clipPath><clipPath id="clip-path-32"><rect class="cls-1" x="2640.85" y="364.8" width="138.3" height="137.47"/></clipPath><clipPath id="clip-path-33"><rect class="cls-1" x="-30208" y="-32167" width="65535" height="65535"/></clipPath><clipPath id="clip-path-34"><rect class="cls-1" x="2880" width="300" height="600"/></clipPath><clipPath id="clip-path-35"><rect class="cls-1" x="2960.85" y="364.8" width="138.3" height="137.47"/></clipPath><clipPath id="clip-path-36"><rect class="cls-1" x="-29888" y="-32167" width="65535" height="65535"/></clipPath><clipPath id="clip-path-37"><rect class="cls-1" x="3200" width="300" height="600"/></clipPath><clipPath id="clip-path-38"><rect class="cls-1" x="3280.85" y="364.8" width="138.3" height="137.47"/></clipPath><clipPath id="clip-path-39"><rect class="cls-1" x="-29568" y="-32167" width="65535" height="65535"/></clipPath><clipPath id="clip-path-40"><rect class="cls-1" x="3520" width="300" height="600"/></clipPath><clipPath id="clip-path-41"><rect class="cls-1" x="3600.85" y="364.8" width="138.3" height="137.47"/></clipPath><clipPath id="clip-path-42"><rect class="cls-1" x="-29248" y="-32167" width="65535" height="65535"/></clipPath></defs><g class="cls-2"><path class="cls-3" d="M47.84,176.65H45.52v-3.86l1.27-.19c1.74-.27,2.28-1.2,2.71-2.78l.57-2.24H54v4.75h4.47v4.32H54v6.28c0,1.47.69,2,2,2a7,7,0,0,0,2.66-.58v4A8.12,8.12,0,0,1,53.47,190c-2.89,0-5.63-1.19-5.63-5.24Z"/><path class="cls-3" d="M67.27,189.53H61v-24.3h6.24v9.68a5.9,5.9,0,0,1,5.56-3c4.71,0,6.21,3.28,6.21,6.87v10.8H72.79v-9.14c0-2.35-.66-3.59-2.55-3.59-2.12,0-3,1.7-3,4.28Z"/><path class="cls-3" d="M98.32,184.48c0,.88.39,1.27,1,1.27a3.58,3.58,0,0,0,1.39-.27v3.32a6.62,6.62,0,0,1-3.89,1.12,4.24,4.24,0,0,1-4.36-3c-1,2-3,3-5.71,3-3.36,0-5.56-1.74-5.56-4.67,0-3.32,2.4-4.75,6.14-5.4l4.82-.81v-.27c0-1.43-.66-2.28-2.16-2.28a2.32,2.32,0,0,0-2.35,2.16l-5.79-.38c.54-3.78,3.36-6.41,8.52-6.41,4.56,0,7.91,2,7.91,6.75Zm-6.13-2.39-2.55.46c-1.5.31-2.39.77-2.39,1.89,0,.89.7,1.46,1.74,1.46a3.22,3.22,0,0,0,3.2-3.54Z"/><path class="cls-3" d="M103,176.65h-2.31v-3.86l1.27-.19c1.74-.27,2.28-1.2,2.7-2.78l.58-2.24h3.94v4.75h4.47v4.32H109.2v6.28c0,1.47.69,2,2,2a7,7,0,0,0,2.67-.58v4a8.14,8.14,0,0,1-5.17,1.54c-2.9,0-5.64-1.19-5.64-5.24Z"/><path class="cls-3" d="M123.77,176.65h-2.31v-3.86l1.27-.19c1.74-.27,2.28-1.2,2.7-2.78l.58-2.24h3.93v4.75h4.48v4.32h-4.48v6.28c0,1.47.7,2,2,2a7,7,0,0,0,2.66-.58v4A8.1,8.1,0,0,1,129.4,190c-2.89,0-5.63-1.19-5.63-5.24Z"/><path class="cls-3" d="M143.21,189.53H137v-24.3h6.25v9.68a5.9,5.9,0,0,1,5.56-3c4.7,0,6.21,3.28,6.21,6.87v10.8h-6.25v-9.14c0-2.35-.66-3.59-2.55-3.59-2.12,0-3,1.7-3,4.28Z"/><path class="cls-3" d="M158.13,165.23h6.33v5.48h-6.33Zm6.29,7.1v17.2h-6.25v-17.2Z"/><path class="cls-3" d="M174.06,189.53h-6.25v-17.2h6.25v2.58a5.9,5.9,0,0,1,5.56-3c4.7,0,6.21,3.28,6.21,6.87v10.8h-6.25v-9.14c0-2.35-.66-3.59-2.55-3.59-2.12,0-3,1.7-3,4.28Z"/><path class="cls-3" d="M196.9,183.63a12.85,12.85,0,0,1-3.75-.5,1,1,0,0,0-.34.81c0,.58.42,1,1.46,1h7.14c3.89,0,5.86,2,5.86,4.94,0,4.28-5.21,6.25-10.8,6.25-4.9,0-9.14-1-9.14-4.21,0-1.5,1.35-2.7,3.28-2.85a3.53,3.53,0,0,1-2.47-3.36c0-1.66,1.08-2.93,2.93-3.63a5,5,0,0,1-2.47-4.35c0-3.67,3.47-5.91,8.3-5.91a10.87,10.87,0,0,1,5.51,1.39,6.39,6.39,0,0,1,4.82-2.66v4.71a11.29,11.29,0,0,0-2.5.27,4.71,4.71,0,0,1,.54,2.2C205.27,181.39,201.76,183.63,196.9,183.63Zm-.39,9.29c2.89,0,5-.57,5-1.62,0-.73-.54-1-1.58-1h-6.32a1,1,0,0,0-1.16,1C192.46,192.58,194.19,192.92,196.51,192.92ZM197,175.3c-1,0-1.81,1-1.81,2.47s.77,2.5,1.81,2.5,1.82-1,1.82-2.5S198,175.3,197,175.3Z"/><path class="cls-3" d="M208.81,182.9h6.64v6.63h-6.64Z"/></g></svg>