<svg id="Layer_1" data-name="Layer 1" xmlns="http://www.w3.org/2000/svg" xmlns:xlink="http://www.w3.org/1999/xlink" viewBox="0 0 300 600"><defs><style>.cls-1{fill:none;}.cls-2{clip-path:url(#clip-path);}.cls-3{fill:#221e1f;}.cls-4{clip-path:url(#clip-path-2);}.cls-5{clip-path:url(#clip-path-4);}.cls-6{clip-path:url(#clip-path-5);}.cls-7{clip-path:url(#clip-path-6);}.cls-8{clip-path:url(#clip-path-8);}.cls-9{clip-path:url(#clip-path-9);}.cls-10{clip-path:url(#clip-path-10);}.cls-11{clip-path:url(#clip-path-12);}.cls-12{clip-path:url(#clip-path-13);}.cls-13{clip-path:url(#clip-path-14);}.cls-14{clip-path:url(#clip-path-16);}.cls-15{clip-path:url(#clip-path-17);}.cls-16{clip-path:url(#clip-path-18);}.cls-17{clip-path:url(#clip-path-20);}.cls-18{clip-path:url(#clip-path-21);}.cls-19{clip-path:url(#clip-path-22);}.cls-20{clip-path:url(#clip-path-24);}.cls-21{clip-path:url(#clip-path-25);}.cls-22{clip-path:url(#clip-path-26);}.cls-23{clip-path:url(#clip-path-28);}.cls-24{clip-path:url(#clip-path-29);}.cls-25{clip-path:url(#clip-path-30);}.cls-26{clip-path:url(#clip-path-32);}.cls-27{clip-path:url(#clip-path-33);}.cls-28{clip-path:url(#clip-path-34);}.cls-29{clip-path:url(#clip-path-35);}.cls-30{clip-path:url(#clip-path-36);}.cls-31{clip-path:url(#clip-path-37);}.cls-32{clip-path:url(#clip-path-38);}.cls-33{clip-path:url(#clip-path-39);}.cls-34{clip-path:url(#clip-path-40);}.cls-35{clip-path:url(#clip-path-41);}.cls-36{clip-path:url(#clip-path-42);}</style><clipPath id="clip-path"><rect class="cls-1" width="300" height="600"/></clipPath><clipPath id="clip-path-2"><rect class="cls-1" x="320" width="300" height="600"/></clipPath><clipPath id="clip-path-4"><rect class="cls-1" x="400.85" y="364.8" width="138.3" height="137.47"/></clipPath><clipPath id="clip-path-5"><rect class="cls-1" x="-32448" y="-32167" width="65535" height="65535"/></clipPath><clipPath id="clip-path-6"><rect class="cls-1" x="640" width="300" height="600"/></clipPath><clipPath id="clip-path-8"><rect class="cls-1" x="720.85" y="364.8" width="138.3" height="137.47"/></clipPath><clipPath id="clip-path-9"><rect class="cls-1" x="-32128" y="-32167" width="65535" height="65535"/></clipPath><clipPath id="clip-path-10"><rect class="cls-1" x="960" width="300" height="600"/></clipPath><clipPath id="clip-path-12"><rect class="cls-1" x="1040.85" y="364.8" width="138.3" height="137.47"/></clipPath><clipPath id="clip-path-13"><rect class="cls-1" x="-31808" y="-32167" width="65535" height="65535"/></clipPath><clipPath id="clip-path-14"><rect class="cls-1" x="1280" width="300" height="600"/></clipPath><clipPath id="clip-path-16"><rect class="cls-1" x="1360.85" y="364.8" width="138.3" height="137.47"/></clipPath><clipPath id="clip-path-17"><rect class="cls-1" x="-31488" y="-32167" width="65535" height="65535"/></clipPath><clipPath id="clip-path-18"><rect class="cls-1" x="1600" width="300" height="600"/></clipPath><clipPath id="clip-path-20"><rect class="cls-1" x="1680.85" y="364.8" width="138.3" height="137.47"/></clipPath><clipPath id="clip-path-21"><rect class="cls-1" x="-31168" y="-32167" width="65535" height="65535"/></clipPath><clipPath id="clip-path-22"><rect class="cls-1" x="1920" width="300" height="600"/></clipPath><clipPath id="clip-path-24"><rect class="cls-1" x="2000.85" y="364.8" width="138.3" height="137.47"/></clipPath><clipPath id="clip-path-25"><rect class="cls-1" x="-30848" y="-32167" width="65535" height="65535"/></clipPath><clipPath id="clip-path-26"><rect class="cls-1" x="2240" width="300" height="600"/></clipPath><clipPath id="clip-path-28"><rect class="cls-1" x="2320.85" y="364.8" width="138.3" height="137.47"/></clipPath><clipPath id="clip-path-29"><rect class="cls-1" x="-30528" y="-32167" width="65535" height="65535"/></clipPath><clipPath id="clip-path-30"><rect class="cls-1" x="2560" width="300" height="600"/></clipPath><clipPath id="clip-path-32"><rect class="cls-1" x="2640.85" y="364.8" width="138.3" height="137.47"/></clipPath><clipPath id="clip-path-33"><rect class="cls-1" x="-30208" y="-32167" width="65535" height="65535"/></clipPath><clipPath id="clip-path-34"><rect class="cls-1" x="2880" width="300" height="600"/></clipPath><clipPath id="clip-path-35"><rect class="cls-1" x="2960.85" y="364.8" width="138.3" height="137.47"/></clipPath><clipPath id="clip-path-36"><rect class="cls-1" x="-29888" y="-32167" width="65535" height="65535"/></clipPath><clipPath id="clip-path-37"><rect class="cls-1" x="3200" width="300" height="600"/></clipPath><clipPath id="clip-path-38"><rect class="cls-1" x="3280.85" y="364.8" width="138.3" height="137.47"/></clipPath><clipPath id="clip-path-39"><rect class="cls-1" x="-29568" y="-32167" width="65535" height="65535"/></clipPath><clipPath id="clip-path-40"><rect class="cls-1" x="3520" width="300" height="600"/></clipPath><clipPath id="clip-path-41"><rect class="cls-1" x="3600.85" y="364.8" width="138.3" height="137.47"/></clipPath><clipPath id="clip-path-42"><rect class="cls-1" x="-29248" y="-32167" width="65535" height="65535"/></clipPath></defs><g class="cls-2"><path class="cls-3" d="M70.06,131.33c4.74,0,6.13,3.28,6.13,6.87V149H69.94v-9.14c0-2.35-.42-3.59-2.32-3.59-2.08,0-2.77,1.7-2.77,4.28V149H58.6v-9.14c0-2.35-.46-3.59-2.35-3.59-2,0-2.78,1.7-2.78,4.28V149H47.22V131.8h6.25v2.58a5.59,5.59,0,0,1,5.36-3c3.05,0,4.63,1.39,5.36,3.4A6.24,6.24,0,0,1,70.06,131.33Z"/><path class="cls-3" d="M87.87,149.46c-5.63,0-9.41-3.7-9.41-9.06s3.78-9.07,9.41-9.07,9.41,3.75,9.41,9.07S93.46,149.46,87.87,149.46Zm0-4.7C90,144.76,91,143,91,140.4S90,136,87.87,136s-3.12,1.78-3.12,4.36S85.67,144.76,87.87,144.76Z"/><path class="cls-3" d="M106,149H99.75V131.8H106v2.58a5.88,5.88,0,0,1,5.55-3c4.71,0,6.21,3.28,6.21,6.87V149h-6.25v-9.14c0-2.35-.65-3.59-2.54-3.59-2.13,0-3,1.7-3,4.28Z"/><path class="cls-3" d="M138.09,143.33c-.89,3.94-4.05,6.13-8.61,6.13-5.51,0-9.45-3.31-9.45-8.79a9.07,9.07,0,0,1,9.38-9.34c5.74,0,8.79,3.94,8.79,8.61v1.73H126.13a3.26,3.26,0,0,0,3.58,3.13,3.21,3.21,0,0,0,3.36-1.93Zm-5.83-4.67a2.82,2.82,0,0,0-2.93-2.85,3,3,0,0,0-3.13,2.85Z"/><path class="cls-3" d="M143.17,155.17l2.47-5.94-7-17.43h6.56L149,141.87h.15l3.9-10.07h6.13l-9.87,23.37Z"/><path class="cls-3" d="M166,136.12V131.8h2.47v-.74c0-4.47,2.78-6.82,6.91-6.82,3.24,0,5.48,1.62,6.17,4.47l-3.82,1.2a1.76,1.76,0,0,0-1.66-1.2c-1,0-1.43.85-1.43,1.93v1.16H179v4.32H174.6V149h-6.17V136.12Z"/><path class="cls-3" d="M188.84,149.46c-5.64,0-9.42-3.7-9.42-9.06s3.78-9.07,9.42-9.07,9.41,3.75,9.41,9.07S194.43,149.46,188.84,149.46Zm0-4.7c2.16,0,3.12-1.78,3.12-4.36s-1-4.36-3.12-4.36-3.13,1.78-3.13,4.36S186.64,144.76,188.84,144.76Z"/><path class="cls-3" d="M213.67,137.89a5.55,5.55,0,0,0-3-.73c-2.31,0-3.74,1.08-3.74,4V149h-6.25V131.8H207v3a5,5,0,0,1,4.71-3.52,4.08,4.08,0,0,1,2.39.66Z"/></g></svg>