<?xml version="1.0" encoding="utf-8"?>
<!-- Generator: Adobe Illustrator 25.4.1, SVG Export Plug-In . SVG Version: 6.00 Build 0)  -->
<svg version="1.1" id="Layer_1" xmlns="http://www.w3.org/2000/svg" xmlns:xlink="http://www.w3.org/1999/xlink" x="0px" y="0px"
	 viewBox="0 0 300 600" style="enable-background:new 0 0 300 600;" xml:space="preserve">
<style type="text/css">
	.st0{clip-path:url(#SVGID_00000155124455696077491430000012596888264606427829_);}
	.st1{clip-path:url(#SVGID_00000019642473245695027520000017117586324812818338_);}
	.st2{fill:#221E1F;}
	.st3{fill:#FFFFFF;}
	.st4{clip-path:url(#SVGID_00000002361556960280597910000009351396732453789607_);}
</style>
<g>
	<defs>
		<rect id="SVGID_1_" y="0" width="300" height="600"/>
	</defs>
	<clipPath id="SVGID_00000121252434660225818150000009907194159792824196_">
		<use xlink:href="#SVGID_1_"  style="overflow:visible;"/>
	</clipPath>
	<g style="clip-path:url(#SVGID_00000121252434660225818150000009907194159792824196_);">
		<g>
			<defs>
				<rect id="SVGID_00000031921923670726560660000018217805107159713977_" y="0" width="300" height="600"/>
			</defs>
			<clipPath id="SVGID_00000055684603736617222190000011287025879392299910_">
				<use xlink:href="#SVGID_00000031921923670726560660000018217805107159713977_"  style="overflow:visible;"/>
			</clipPath>
			<g style="clip-path:url(#SVGID_00000055684603736617222190000011287025879392299910_);">
				<rect y="502.3" class="st2" width="300" height="97.7"/>
			</g>
		</g>
		<g>
			<path class="st3" d="M82.1,561.1v-1.2h1.4v-1c-0.2-1.6,1-3,2.5-3.2c0.2,0,0.3,0,0.5,0c1.3-0.1,2.6,0.8,2.8,2.1l-1.2,0.4
				c-0.2-0.7-0.8-1.2-1.6-1.2c-1,0-1.4,0.7-1.4,1.8v1.2h2.6v1.2h-2.6v7.8h-1.7v-7.8H82.1z"/>
			<path class="st3" d="M94.5,561.6c-0.4-0.3-0.9-0.4-1.4-0.4c-1.3,0-2.3,1.2-2.3,2.9v4.8h-1.7v-9.1h1.7v1.8c0.3-1.2,1.4-2,2.6-2.1
				c0.5,0,0.9,0.1,1.3,0.4L94.5,561.6z"/>
			<path class="st3" d="M95.9,555.9h1.8v2h-1.8V555.9z M97.6,559.9v9.1h-1.7v-9.1H97.6z"/>
			<path class="st3" d="M108.3,565.9c-0.4,2-2.2,3.5-4.2,3.3c-2.4,0.1-4.5-1.7-4.7-4.2c0-0.2,0-0.3,0-0.5c-0.2-2.5,1.8-4.7,4.3-4.9
				c0.1,0,0.2,0,0.3,0c2.9,0,4.4,2,4.4,4.5v0.7h-7.2c0,1.7,1.3,3,3,3c1.3,0.1,2.5-0.8,2.8-2.1L108.3,565.9z M106.6,563.7
				c0.1-1.4-1-2.7-2.4-2.8c-0.1,0-0.1,0-0.2,0c-1.5,0.1-2.7,1.3-2.8,2.8H106.6z"/>
			<path class="st3" d="M111.9,568.9h-1.7v-9.1h1.7v1.6c0.5-1.2,1.7-1.9,3-1.9c2.4,0,3.3,1.6,3.3,3.7v5.6h-1.7v-5.5
				c0-1.5-0.7-2.5-2.2-2.5c-1.4,0-2.5,1.2-2.5,2.6c0,0.1,0,0.1,0,0.2L111.9,568.9z"/>
			<path class="st3" d="M127.3,567c-0.5,1.3-1.8,2.2-3.3,2.1c-2.7,0-4.1-2.1-4.1-4.8s1.4-4.8,4.1-4.8c1.4,0,2.7,0.8,3.3,2.2v-5.9
				h1.7v13.1h-1.7V567z M127.3,564.1c0.2-1.6-1-3-2.6-3.1c-0.1,0-0.2,0-0.3,0c-1.8,0-2.8,1.3-2.8,3.4s1,3.4,2.8,3.4
				c1.6,0,2.9-1.2,2.9-2.8c0-0.1,0-0.2,0-0.3V564.1z"/>
			<path class="st3" d="M138.2,572.2h-3.4v-12.6h3.4v1.6c0.5-1.2,1.7-1.9,3.1-1.8c2.7,0,4.1,2.2,4.1,4.9s-1.4,4.9-4.1,4.9
				c-1.3,0.1-2.5-0.6-3.1-1.8V572.2z M138.2,564.4c0,1.3,0.7,2.2,1.9,2.2c1.3,0,1.9-0.9,1.9-2.3s-0.6-2.3-1.9-2.3
				c-1.1,0-1.9,0.9-1.9,2.2V564.4z"/>
			<path class="st3" d="M155.3,566.2c0,0.5,0.2,0.7,0.6,0.7c0.3,0,0.5,0,0.7-0.2v1.8c-0.6,0.4-1.3,0.6-2.1,0.6
				c-1.1,0.1-2.1-0.6-2.4-1.6c-0.6,1.1-1.8,1.8-3.1,1.6c-1.8,0-3-0.9-3-2.5c0-1.8,1.3-2.5,3.3-2.9l2.6-0.4v-0.2
				c0-0.8-0.4-1.2-1.2-1.2c-0.7,0-1.2,0.5-1.3,1.2l-3.1-0.2c0.3-2,1.8-3.4,4.6-3.4c2.5,0,4.2,1.1,4.2,3.6L155.3,566.2z M152,564.9
				l-1.4,0.2c-0.8,0.2-1.3,0.4-1.3,1s0.4,0.8,0.9,0.8c1,0,1.7-0.8,1.7-1.7c0-0.1,0-0.1,0-0.2V564.9z"/>
			<path class="st3" d="M158.6,572.2l1.3-3.2l-3.8-9.4h3.5l2.1,5.4h0.1l2.1-5.4h3.3l-5.3,12.6H158.6z"/>
			<path class="st3" d="M171,561.1v-1.2h1.4v-1c-0.2-1.6,1-3,2.5-3.2c0.2,0,0.3,0,0.5,0c1.3-0.1,2.6,0.8,2.8,2.1l-1.2,0.4
				c-0.2-0.7-0.8-1.2-1.6-1.2c-1,0-1.4,0.7-1.4,1.8v1.2h2.6v1.2h-2.6v7.8h-1.7v-7.8H171z"/>
			<path class="st3" d="M183.4,561.6c-0.4-0.3-0.9-0.4-1.4-0.4c-1.3,0-2.3,1.2-2.3,2.9v4.8H178v-9.1h1.7v1.8c0.3-1.2,1.4-2,2.6-2.1
				c0.5,0,0.9,0.1,1.3,0.4L183.4,561.6z"/>
			<path class="st3" d="M184.8,555.9h1.8v2h-1.8V555.9z M186.6,559.9v9.1h-1.7v-9.1H186.6z"/>
			<path class="st3" d="M197.2,565.9c-0.4,2-2.2,3.5-4.2,3.3c-2.4,0.1-4.5-1.7-4.7-4.2c0-0.2,0-0.3,0-0.5c-0.2-2.5,1.8-4.7,4.3-4.9
				c0.1,0,0.2,0,0.3,0c2.9,0,4.4,2,4.4,4.5v0.7h-7.2c0,1.7,1.3,3,3,3c1.3,0.1,2.5-0.8,2.8-2.1L197.2,565.9z M195.5,563.7
				c0.1-1.4-1-2.7-2.4-2.8c-0.1,0-0.1,0-0.2,0c-1.5,0.1-2.7,1.3-2.8,2.8H195.5z"/>
			<path class="st3" d="M200.8,568.9h-1.7v-9.1h1.7v1.6c0.5-1.2,1.7-1.9,3-1.9c2.4,0,3.3,1.6,3.3,3.7v5.6h-1.7v-5.5
				c0-1.5-0.7-2.5-2.1-2.5c-1.4,0-2.5,1.2-2.5,2.6c0,0.1,0,0.1,0,0.2L200.8,568.9z"/>
			<path class="st3" d="M216.2,567c-0.5,1.3-1.8,2.2-3.3,2.1c-2.7,0-4.1-2.1-4.1-4.8s1.5-4.8,4.1-4.8c1.4,0,2.7,0.8,3.3,2.2v-5.9
				h1.7v13.1h-1.7L216.2,567z M216.2,564.1c0.2-1.6-1-3-2.6-3.1c-0.1,0-0.2,0-0.3,0c-1.8,0-2.8,1.3-2.8,3.4s1,3.4,2.8,3.4
				c1.6,0,2.9-1.2,2.9-2.8c0-0.1,0-0.2,0-0.3V564.1z"/>
		</g>
		<g>
			<defs>
				<rect id="SVGID_00000033343007528187201390000008354787198016650112_" x="95.6" y="518" width="116.9" height="26.8"/>
			</defs>
			<clipPath id="SVGID_00000013178350496385830450000009685838791233083050_">
				<use xlink:href="#SVGID_00000033343007528187201390000008354787198016650112_"  style="overflow:visible;"/>
			</clipPath>
			<g style="clip-path:url(#SVGID_00000013178350496385830450000009685838791233083050_);">
				<path class="st3" d="M119.7,537.2c0-3.7-2.4-5.7-5.4-6.3c2.7-0.3,4.7-2.6,4.6-5.3c0-4.3-3-7.1-9.7-7.1H96.6v25.8h13.5
					C116.2,544.3,119.7,541.7,119.7,537.2 M108.9,533.9c2.5,0,3.5,1,3.5,2.4s-1.1,2.4-3.5,2.4h-5.6v-4.8H108.9z M103.4,524h5
					c2.4,0,3.3,1.1,3.3,2.4s-1,2.3-3.3,2.3h-5V524z"/>
				<path class="st3" d="M134.1,544.8c6.7,0,11.8-3.2,11.8-10.7v-15.6h-7v14.4c0,3.9-1.2,6-4.8,6s-4.8-2.1-4.8-6v-14.4h-7V534
					C122.3,541.5,127.4,544.7,134.1,544.8"/>
				<path class="st3" d="M148.5,531.4c0,7.9,5.7,13.4,13.3,13.4c8,0,12.2-5,12.7-11.4l-6.7-0.3c-0.4,2.9-2,5.5-6,5.5
					c-3.8,0-6.1-2.8-6.1-7.2s2.2-7.2,6.1-7.2c4,0,5.6,2.7,6,5.5l6.7-0.2c-0.5-6.4-4.7-11.5-12.7-11.5
					C154.2,518,148.5,523.4,148.5,531.4"/>
				<polygon class="st3" points="202.1,544.3 191.6,529.5 201.6,518.5 193.6,518.5 184.2,528.9 184.2,518.5 177.2,518.5 
					177.2,544.3 184.2,544.3 184.2,536.5 186.5,534 193.7,544.3 				"/>
				<path class="st3" d="M207.1,522.6H206v-3.1h-1.4v-0.9h3.8v0.9h-1.4L207.1,522.6z M211.5,522.6h-0.8l-0.8-2.8l0,0v2.8h-1v-4.1
					h1.6l0.7,2.7l0,0l0.7-2.7h1.5v4.1h-1.1v-2.8l0,0L211.5,522.6z"/>
			</g>
		</g>
	</g>
</g>
</svg>
