<?xml version="1.0" encoding="utf-8"?>
<!-- Generator: Adobe Illustrator 26.0.1, SVG Export Plug-In . SVG Version: 6.00 Build 0)  -->
<svg version="1.1" id="Layer_1" xmlns="http://www.w3.org/2000/svg" xmlns:xlink="http://www.w3.org/1999/xlink" x="0px" y="0px"
	 viewBox="0 0 300 250" style="enable-background:new 0 0 300 250;" xml:space="preserve">
<style type="text/css">
	.st0{fill:#FFFFFF;}
</style>
<g>
	<g>
		<g>
			<path class="st0" d="M158.3,136.5c0-0.9,0.8-1.7,1.7-1.7s1.7,0.8,1.7,1.7s-0.8,1.7-1.7,1.7S158.3,137.4,158.3,136.5z"/>
			<path class="st0" d="M167.3,129.5h7.2v1.6h-5.4v4.6h4.9v1.6h-4.9v3.7h-1.8L167.3,129.5z"/>
			<path class="st0" d="M176.4,129.5h1.8v11.6h-1.8V129.5z"/>
			<path class="st0" d="M183.8,134.8l-3.2-5.2h2l1.8,2.8c0.2,0.4,0.4,0.8,0.6,1.2c0.1-0.4,0.3-0.8,0.5-1.2l1.7-2.8h1.9l-3.2,5.2
				l3.9,6.3h-2l-2.4-3.9c-0.2-0.4-0.4-0.8-0.6-1.2c-0.1,0.4-0.3,0.8-0.5,1.2l-2.4,3.9h-1.9L183.8,134.8z"/>
			<path class="st0" d="M191.4,129.5h7.4v1.6h-5.6v4.5h4.9v1.5h-4.9v2.4h5.8v1.6h-7.6V129.5z"/>
			<path class="st0" d="M201,129.5h3.2c3.7,0,6.2,2.3,6.2,5.8s-2.4,5.8-6.2,5.8H201V129.5z M204.1,139.5c3,0,4.4-1.7,4.4-4.2
				s-1.4-4.2-4.4-4.2h-1.3v8.4H204.1z"/>
			<path class="st0" d="M215.2,138.8l1.5-0.8c0.5,1,1.5,1.6,2.6,1.6c1.2,0,2-0.6,2-1.6s-0.7-1.4-1.9-2l-0.8-0.3
				c-1.7-0.7-2.7-1.6-2.7-3.4c0-1.7,1.4-3,3-3c0.1,0,0.1,0,0.2,0c1.4-0.1,2.6,0.6,3.3,1.8l-1.4,0.9c-0.3-0.7-1.1-1.2-1.9-1.1
				c-0.7-0.1-1.4,0.5-1.5,1.2c0,0,0,0.1,0,0.1c0,0.9,0.5,1.3,1.7,1.8l0.7,0.3c2,0.9,3,1.8,3,3.6c0,2-1.6,3.2-3.8,3.2
				C217.6,141.3,216,140.4,215.2,138.8z"/>
			<path class="st0" d="M225.2,129.5h1.8v6.2h5.6v-6.2h1.8v11.6h-1.8v-3.7H227v3.7h-1.8L225.2,129.5z"/>
			<path class="st0" d="M237.1,129.5h1.8v11.6h-1.8V129.5z"/>
			<path class="st0" d="M241.7,129.5h7.2v1.6h-5.4v4.6h4.9v1.6h-4.9v3.7h-1.8V129.5z"/>
			<path class="st0" d="M253.7,131.1h-3.4v-1.6h8.7v1.6h-3.4v10h-1.8L253.7,131.1z"/>
			<path class="st0" d="M259.5,138.8l1.5-0.8c0.5,1,1.5,1.6,2.6,1.6c1.2,0,2-0.6,2-1.6s-0.7-1.4-1.9-2l-0.8-0.3
				c-1.7-0.7-2.7-1.6-2.7-3.4c0-1.7,1.4-3,3-3c0.1,0,0.1,0,0.2,0c1.4-0.1,2.6,0.6,3.3,1.8l-1.4,0.9c-0.3-0.7-1.1-1.2-1.9-1.1
				c-0.7-0.1-1.4,0.5-1.5,1.2c0,0,0,0.1,0,0.1c0,0.9,0.5,1.3,1.7,1.8l0.8,0.3c2,0.9,3,1.8,3,3.6c0,2-1.6,3.2-3.8,3.2
				C261.9,141.3,260.3,140.4,259.5,138.8z"/>
		</g>
	</g>
</g>
</svg>
