<?xml version="1.0" encoding="utf-8"?>
<!-- Generator: Adobe Illustrator 26.0.1, SVG Export Plug-In . SVG Version: 6.00 Build 0)  -->
<svg version="1.1" id="Layer_1" xmlns="http://www.w3.org/2000/svg" xmlns:xlink="http://www.w3.org/1999/xlink" x="0px" y="0px"
	 viewBox="0 0 300 250" style="enable-background:new 0 0 300 250;" xml:space="preserve">
<style type="text/css">
	.st0{fill:#FFFFFF;}
</style>
<g>
	<g>
		<path class="st0" d="M151,168.6h2.9c3.2,0,5,1.7,5,4.4s-1.8,4.4-5,4.4h-1.1v2.8H151V168.6z M153.8,175.9c2.3,0,3.2-1.1,3.2-2.8
			s-0.9-2.8-3.2-2.8h-1v5.6L153.8,175.9z"/>
		<path class="st0" d="M168.9,180.2h-2.1l-2.1-3c-0.3,0-0.6,0.1-1,0.1h-1.1v3h-1.8v-11.6h2.9c3.2,0,5,1.7,5,4.3
			c0.1,1.6-0.8,3.1-2.3,3.7L168.9,180.2z M163.7,175.7c2.3,0,3.2-1,3.2-2.7s-1-2.7-3.2-2.7h-1v5.5H163.7z"/>
		<path class="st0" d="M170.4,174.4c0-3.3,2.6-6,5.9-6.1c3.3,0,6,2.6,6.1,5.9c0,3.3-2.6,6-5.9,6.1c0,0,0,0-0.1,0
			c-3.2,0.1-5.9-2.4-6-5.7C170.4,174.6,170.4,174.5,170.4,174.4z M180.4,174.4c-0.1-2.3-2-4-4.3-3.9c-2.3,0.1-4,2-3.9,4.3
			c0.1,2.2,1.9,3.9,4.1,3.9c2.3,0,4.1-1.8,4.1-4C180.4,174.6,180.4,174.5,180.4,174.4z"/>
		<path class="st0" d="M184.4,168.6h7.2v1.6h-5.4v4.6h4.9v1.6h-4.9v3.7h-1.8V168.6z"/>
		<path class="st0" d="M193.5,168.6h7.3v1.6h-5.5v4.5h4.9v1.6h-4.9v2.4h5.8v1.6h-7.6V168.6z"/>
		<path class="st0" d="M202.3,178l1.5-0.8c0.5,1,1.5,1.7,2.6,1.6c1.2,0,2-0.6,2-1.6s-0.7-1.4-1.9-2l-0.8-0.3
			c-1.7-0.8-2.7-1.6-2.7-3.4c0-1.7,1.4-3,3-3c0.1,0,0.1,0,0.2,0c1.4-0.1,2.6,0.6,3.3,1.8l-1.4,0.9c-0.3-0.7-1.1-1.2-1.9-1.1
			c-0.7-0.1-1.4,0.5-1.5,1.2c0,0,0,0.1,0,0.1c0,0.9,0.5,1.3,1.7,1.8l0.8,0.3c2,0.9,3,1.8,3,3.6c0,2-1.6,3.2-3.8,3.2
			C204.7,180.5,203.1,179.6,202.3,178z"/>
		<path class="st0" d="M211.4,178l1.5-0.8c0.5,1,1.5,1.7,2.6,1.6c1.2,0,2-0.6,2-1.6s-0.7-1.4-1.9-2l-0.8-0.3
			c-1.7-0.8-2.7-1.6-2.7-3.4c0-1.7,1.4-3,3-3c0.1,0,0.1,0,0.2,0c1.4-0.1,2.6,0.6,3.3,1.8l-1.4,0.9c-0.3-0.7-1.1-1.2-1.9-1.1
			c-0.7-0.1-1.4,0.5-1.5,1.2c0,0,0,0.1,0,0.1c0,0.9,0.5,1.3,1.7,1.8l0.7,0.3c2,0.9,3,1.8,3,3.6c0,2-1.6,3.2-3.8,3.2
			C213.8,180.5,212.2,179.6,211.4,178z"/>
		<path class="st0" d="M221.5,168.6h1.8v11.6h-1.8V168.6z"/>
		<path class="st0" d="M225.4,174.4c0-3.3,2.6-6,5.9-6.1c3.3,0,6,2.6,6.1,5.9c0,3.3-2.6,6-5.9,6.1c0,0,0,0-0.1,0
			c-3.2,0.1-5.9-2.4-6-5.7C225.4,174.6,225.4,174.5,225.4,174.4z M235.5,174.4c-0.1-2.3-2-4-4.3-3.9c-2.3,0.1-4,2-3.9,4.3
			c0.1,2.2,1.9,3.9,4.1,3.9c2.3,0,4.1-1.8,4.1-4C235.5,174.6,235.5,174.5,235.5,174.4z"/>
		<path class="st0" d="M242.2,173.4c-0.4-0.5-1.1-1.3-1.1-1.3c0.1,0.6,0.1,1.1,0.1,1.7v6.4h-1.7v-11.7h0.2l6.4,6.9
			c0.4,0.5,1.1,1.3,1.1,1.3s-0.1-1-0.1-1.7v-6.4h1.7v11.7h-0.2L242.2,173.4z"/>
		<path class="st0" d="M255.3,168.5h0.2l5.1,11.7h-1.9l-0.7-1.6h-5.3l-0.7,1.6h-1.7L255.3,168.5z M257.4,177.1l-1.4-3.6
			c-0.2-0.6-0.4-1.1-0.6-1.7c-0.2,0.6-0.3,1.2-0.6,1.7l-1.4,3.6H257.4z"/>
		<path class="st0" d="M262.2,168.6h1.8v10h5.3v1.6h-7.1L262.2,168.6z"/>
		<path class="st0" d="M270.4,178l1.5-0.8c0.5,1,1.5,1.7,2.6,1.6c1.2,0,2-0.6,2-1.6s-0.7-1.4-1.9-2l-0.8-0.3
			c-1.7-0.8-2.7-1.6-2.7-3.4c0-1.7,1.4-3,3-3c0.1,0,0.1,0,0.2,0c1.4-0.1,2.6,0.6,3.3,1.8l-1.4,0.9c-0.3-0.7-1.1-1.2-1.9-1.1
			c-0.7-0.1-1.4,0.5-1.5,1.2c0,0,0,0.1,0,0.1c0,0.9,0.5,1.3,1.7,1.8l0.7,0.3c2,0.9,3,1.8,3,3.6c0,2-1.6,3.2-3.8,3.2
			C272.8,180.5,271.2,179.6,270.4,178z"/>
	</g>
</g>
</svg>
