<?xml version="1.0" encoding="utf-8"?>
<!-- Generator: Adobe Illustrator 26.0.1, SVG Export Plug-In . SVG Version: 6.00 Build 0)  -->
<svg version="1.1" id="Layer_1" xmlns="http://www.w3.org/2000/svg" xmlns:xlink="http://www.w3.org/1999/xlink" x="0px" y="0px"
	 viewBox="0 0 300 250" style="enable-background:new 0 0 300 250;" xml:space="preserve">
<style type="text/css">
	.st0{fill:#FFFFFF;}
</style>
<g>
	<g>
		<path class="st0" d="M161.3,200.4h2.5l1.7,4.6c0.3,0.8,0.6,2.1,0.6,2.1c0.2-0.7,0.4-1.4,0.7-2.1l2.2-4.7h0.2l2.3,4.7
			c0.3,0.7,0.5,1.4,0.7,2.1c0,0,0.3-1.3,0.6-2.1l1.7-4.6h2.3l-4.2,11.7h-0.2l-2.6-5.6c-0.3-0.6-0.6-1.7-0.6-1.7s-0.4,1.1-0.7,1.7
			l-2.7,5.6h-0.2L161.3,200.4z"/>
		<path class="st0" d="M178.2,200.4h2.4v5.9h5v-5.9h2.4V212h-2.4v-3.5h-5v3.5h-2.4V200.4z"/>
		<path class="st0" d="M189.9,206.2c0-3.3,2.6-6,5.9-6.1c3.3,0,6,2.6,6.1,5.9c0,3.3-2.6,6-5.9,6.1c0,0,0,0-0.1,0
			c-3.2,0.1-5.9-2.5-6-5.7C189.9,206.4,189.9,206.3,189.9,206.2z M199.4,206.2c-0.1-1.9-1.9-3.4-3.8-3.3c-1.9,0.1-3.4,1.9-3.3,3.8
			c0.1,1.8,1.7,3.3,3.5,3.3c2,0,3.5-1.6,3.5-3.6C199.5,206.4,199.5,206.3,199.4,206.2z"/>
		<path class="st0" d="M204.1,202.9c-0.5-0.2-0.8-0.7-0.8-1.2c0-0.8,0.6-1.4,1.4-1.4c0.8,0,1.4,0.6,1.4,1.4c0,0.5-0.2,1-0.5,1.5
			l-1,1.7h-1.1L204.1,202.9z"/>
		<path class="st0" d="M208.1,200.4h3.6c3.6,0,6.1,2.4,6.1,5.8s-2.5,5.8-6.1,5.8h-3.6V200.4z M211.6,209.9c2,0,3.7-1.7,3.7-3.7
			s-1.7-3.7-3.7-3.7h-1.1v7.4H211.6z"/>
		<path class="st0" d="M223.2,200.4h2.4v5.9h5v-5.9h2.4V212h-2.4v-3.5h-5v3.5h-2.4V200.4z"/>
		<path class="st0" d="M239.4,200.3h0.2l5.3,11.7h-2.5l-0.5-1.3h-4.7l-0.6,1.3h-2.3L239.4,200.3z M241,208.7l-0.8-2
			c-0.3-0.8-0.7-2.1-0.7-2.1c-0.2,0.7-0.4,1.4-0.7,2.1l-0.8,2H241z"/>
		<path class="st0" d="M244,200.4h2.6l2,4.4c0.3,0.9,0.6,1.7,0.9,2.6c0.2-0.9,0.5-1.8,0.9-2.6l1.9-4.4h2.3l-5.1,11.7h-0.2L244,200.4
			z"/>
		<path class="st0" d="M256,200.4h7.6v2.1h-5.3v3.7h4.6v2h-4.6v1.7h5.5v2.1H256V200.4z"/>
	</g>
</g>
</svg>
