<?xml version="1.0" encoding="utf-8"?>
<!-- Generator: Adobe Illustrator 26.0.1, SVG Export Plug-In . SVG Version: 6.00 Build 0)  -->
<svg version="1.1" id="Layer_1" xmlns="http://www.w3.org/2000/svg" xmlns:xlink="http://www.w3.org/1999/xlink" x="0px" y="0px"
	 viewBox="0 0 300 250" style="enable-background:new 0 0 300 250;" xml:space="preserve">
<style type="text/css">
	.st0{fill:#FFFFFF;}
</style>
<g>
	<g>
		<path class="st0" d="M179.3,202h-3.4v-1.6h8.6v1.6h-3.4v10h-1.8V202z"/>
		<path class="st0" d="M189,200.3h0.2l5,11.7h-1.9l-0.7-1.6h-5.3l-0.7,1.6H184L189,200.3z M191.1,208.9l-1.4-3.6
			c-0.2-0.6-0.4-1.1-0.6-1.7c-0.2,0.6-0.3,1.2-0.6,1.7l-1.5,3.6H191.1z"/>
		<path class="st0" d="M198.4,205.3l3.7-4.9h2l-4.1,5.4l4.6,6.1h-2.2l-3.6-4.8l-1.2,1.5v3.3h-1.8v-11.6h1.8v4.8
			c0,0.6-0.1,1.1-0.1,1.7C197.7,206.4,198,205.8,198.4,205.3z"/>
		<path class="st0" d="M206.2,200.4h7.3v1.6H208v4.5h4.9v1.6H208v2.4h5.8v1.6h-7.6L206.2,200.4z"/>
		<path class="st0" d="M219.3,206.2c0-3.3,2.6-6,5.9-6.1c3.3,0,6,2.6,6.1,5.9c0,3.3-2.6,6-5.9,6.1c0,0,0,0-0.1,0
			c-3.2,0.1-5.9-2.4-6-5.7C219.3,206.4,219.3,206.3,219.3,206.2z M229.3,206.2c-0.1-2.3-2-4-4.3-3.9s-4,2-3.9,4.3
			c0.1,2.2,1.9,3.9,4.1,3.9c2.3,0,4.1-1.8,4.1-4.1C229.3,206.4,229.3,206.3,229.3,206.2z"/>
		<path class="st0" d="M233.4,200.4h7.2v1.6h-5.4v4.6h4.9v1.6h-4.9v3.8h-1.8V200.4z"/>
		<path class="st0" d="M242.4,200.4h7.2v1.6h-5.4v4.6h4.9v1.6h-4.9v3.8h-1.8V200.4z"/>
	</g>
</g>
</svg>
