<?xml version="1.0" encoding="utf-8"?>
<!-- Generator: Adobe Illustrator 26.0.1, SVG Export Plug-In . SVG Version: 6.00 Build 0)  -->
<svg version="1.1" id="Layer_1" xmlns="http://www.w3.org/2000/svg" xmlns:xlink="http://www.w3.org/1999/xlink" x="0px" y="0px"
	 viewBox="0 0 300 250" style="enable-background:new 0 0 300 250;" xml:space="preserve">
<style type="text/css">
	.st0{fill:#FFFFFF;}
</style>
<g>
	<g>
		<path class="st0" d="M182.6,157.4c-0.5-0.5-1.1-1.3-1.1-1.3c0.1,0.6,0.1,1.1,0.1,1.7v6.4H180v-11.7h0.2l6.4,6.9
			c0.4,0.5,1.1,1.3,1.1,1.3s-0.1-1-0.1-1.7v-6.4h1.7v11.7H189L182.6,157.4z"/>
		<path class="st0" d="M191.9,160.1v-7.5h1.8v7.4c0,1.9,0.9,2.7,2.6,2.7s2.6-0.8,2.6-2.7v-7.4h1.8v7.5c0,2.8-1.9,4.2-4.4,4.2
			S191.9,162.9,191.9,160.1z"/>
		<path class="st0" d="M211.4,164.2h-2.1l-2.1-3c-0.3,0-0.6,0.1-1,0.1h-1.1v3h-1.8v-11.6h2.9c3.2,0,5,1.7,5,4.3
			c0.1,1.6-0.8,3.1-2.3,3.7L211.4,164.2z M206.2,159.7c2.3,0,3.2-1,3.2-2.7s-1-2.7-3.2-2.7h-1v5.5H206.2z"/>
		<path class="st0" d="M212.5,162l1.5-0.8c0.5,1,1.5,1.7,2.6,1.6c1.2,0,2-0.6,2-1.6s-0.7-1.4-1.9-2l-0.8-0.3
			c-1.7-0.8-2.7-1.6-2.7-3.4c0-1.7,1.4-3,3-3c0.1,0,0.1,0,0.2,0c1.4-0.1,2.6,0.6,3.3,1.8l-1.4,0.9c-0.3-0.7-1.1-1.2-1.9-1.1
			c-0.7-0.1-1.4,0.5-1.5,1.2c0,0,0,0.1,0,0.1c0,0.9,0.5,1.3,1.7,1.8l0.7,0.3c2,0.9,3,1.8,3,3.6c0,2-1.6,3.2-3.8,3.2
			C214.9,164.5,213.2,163.6,212.5,162z"/>
		<path class="st0" d="M222.5,152.6h1.8v11.6h-1.8V152.6z"/>
		<path class="st0" d="M229.7,157.4c-0.5-0.5-1.1-1.3-1.1-1.3c0.1,0.6,0.1,1.1,0.1,1.7v6.4H227v-11.7h0.2l6.4,6.9
			c0.4,0.5,1.1,1.3,1.1,1.3s-0.1-1-0.1-1.7v-6.4h1.7v11.7H236L229.7,157.4z"/>
		<path class="st0" d="M238.4,158.4c-0.1-3.2,2.4-5.8,5.5-5.9c0.1,0,0.3,0,0.4,0c1.5-0.1,3,0.5,4.1,1.5l-1.2,1.2
			c-0.7-0.8-1.8-1.2-2.9-1.1c-2.2,0-4.1,1.8-4.1,4c0,0.1,0,0.2,0,0.3c-0.1,2.3,1.7,4.2,3.9,4.3c0.1,0,0.3,0,0.4,0c1,0,2-0.2,2.9-0.8
			v-2h-3.1v-1.6h4.8v4.5c-1.3,1-2.9,1.5-4.5,1.5c-3.2,0.2-6-2.3-6.1-5.5C238.4,158.8,238.4,158.6,238.4,158.4z"/>
	</g>
</g>
</svg>
