<?xml version="1.0" encoding="utf-8"?>
<!-- Generator: Adobe Illustrator 26.0.3, SVG Export Plug-In . SVG Version: 6.00 Build 0)  -->
<svg version="1.1" id="Layer_1" xmlns="http://www.w3.org/2000/svg" xmlns:xlink="http://www.w3.org/1999/xlink" x="0px" y="0px"
	 viewBox="0 0 970 250" style="enable-background:new 0 0 970 250;" xml:space="preserve">
<style type="text/css">
	.st0{fill:#FFFFFF;}
	.st1{fill:#CDFFFF;}
</style>
<g>
	<g>
		<path class="st0" d="M56.7,79.3c-2.3,2.4-5.6,3.8-9,3.6c-4.5,0-9.8-3-9.8-9.4c0-6.6,5.3-9,9.8-9c3.7,0,7.1,1.2,9,3.5v-3.9
			c0-2.9-2.5-4.7-6.2-4.7c-3.1,0-6,1.2-8.2,3.3l-2.8-5c3.4-2.9,7.8-4.5,12.4-4.5c6.4,0,12.3,2.6,12.3,10.7v18.3h-7.4V79.3z
			 M56.7,71.9c-1.2-1.6-3.6-2.4-6-2.4c-2.9,0-5.3,1.5-5.3,4.3s2.4,4.2,5.3,4.2c2.4,0,4.7-0.8,6-2.5V71.9z"/>
		<path class="st0" d="M90.5,65.1c0-3.9-2-5.3-5.2-5.3c-2.6,0-4.9,1.3-6.4,3.3v19h-7.4V54h7.4v3.7c2.5-2.8,6.1-4.4,9.9-4.4
			c6.2,0,9.2,3.5,9.2,9v19.9h-7.4V65.1z"/>
		<path class="st0" d="M124.7,78.6c-2.1,2.7-5.3,4.3-8.7,4.3c-7.1,0-12.5-5.4-12.5-14.8c0-9.2,5.3-14.9,12.5-14.9
			c3.4,0,6.7,1.6,8.7,4.3V43.2h7.5v39h-7.5L124.7,78.6z M124.7,63.1c-1.5-2-3.9-3.2-6.4-3.2c-4.2,0-7.1,3.3-7.1,8.2s2.9,8.2,7.1,8.2
			c2.5,0,4.9-1.2,6.4-3.2V63.1z"/>
		<path class="st1" d="M163.1,56v26.2h-8.3v-39h8.6l18.1,25.3V43.2h8.3v39h-8L163.1,56z"/>
		<path class="st1" d="M196,75.5l18.4-25H196v-7.3h29.3v6.7l-18.4,25h18.8v7.3H196V75.5z"/>
		<path class="st1" d="M231.6,56.8c2.1-1.2,3.8-3.2,4.5-5.6c-0.3,0.2-0.7,0.2-1.1,0.2c-2.2,0-4-1.8-4-4c0-0.1,0-0.1,0-0.2
			c0-2.5,2-4.6,4.6-4.7c2.8,0,5.3,2.2,5.3,6c-0.1,4.4-2.4,8.4-6,10.9L231.6,56.8z"/>
		<path class="st1" d="M245.9,73.3c2.7,2.3,6.2,3.7,9.8,3.9c3.2,0,4.7-1.1,4.7-2.9c0-2-2.5-2.7-5.7-3.3c-4.9-0.9-11.1-2.1-11.1-8.8
			c0-4.7,4.1-8.9,11.6-8.9c4.1-0.1,8.2,1.3,11.4,3.9l-3,5.1c-2.3-2.1-5.3-3.3-8.4-3.3c-2.7,0-4.4,1-4.4,2.6s2.2,2.4,5.4,3
			c4.9,0.9,11.4,2.2,11.4,9.2c0,5.2-4.4,9.1-12.2,9.1c-4.9,0-9.6-1.6-12.6-4.4L245.9,73.3z"/>
		<path class="st1" d="M288,43.2h7.4v39H288V43.2z"/>
		<path class="st1" d="M319.8,79.3c-2.3,2.4-5.6,3.8-9,3.6c-4.5,0-9.8-3-9.8-9.4c0-6.6,5.3-9,9.8-9c3.7,0,7.1,1.2,9,3.5v-3.9
			c0-2.9-2.5-4.7-6.2-4.7c-3.1,0-6,1.2-8.2,3.3l-2.8-5c3.4-2.9,7.8-4.5,12.4-4.5c6.4,0,12.3,2.6,12.3,10.7v18.3h-7.4V79.3z
			 M319.8,71.9c-1.2-1.6-3.6-2.4-6-2.4c-2.9,0-5.3,1.5-5.3,4.3s2.4,4.2,5.3,4.2c2.4,0,4.7-0.8,6-2.5V71.9z"/>
		<path class="st1" d="M334.6,54h7.4v3.9c2.2-2.7,5.5-4.4,9-4.5v7.3c-0.7-0.2-1.4-0.2-2-0.2c-2.5,0-5.7,1.4-7,3.2v18.6h-7.4
			L334.6,54z"/>
		<path class="st1" d="M358.4,84.1c2.3,2.5,5.3,3.5,8.8,3.5s7.8-1.6,7.8-7.1v-2.9c-2.1,2.8-5.3,4.4-8.7,4.4c-7.1,0-12.5-5-12.5-14.4
			c0-9.2,5.3-14.4,12.5-14.4c3.4,0,6.7,1.6,8.7,4.4V54h7.5v26.3c0,10.8-8.3,13.4-15.3,13.4c-4.9,0-8.6-1.1-12.2-4.2L358.4,84.1z
			 M375,63.1c-1.5-2-3.9-3.2-6.4-3.2c-4.2,0-7.1,2.9-7.1,7.8s2.9,7.8,7.1,7.8c2.5,0,4.9-1.2,6.4-3.2L375,63.1z"/>
		<path class="st1" d="M402.6,53.2c8.4,0,14.2,6.3,14.2,15.6v1.6h-21c0.5,3.6,3.3,6.6,8.1,6.6c2.8,0,5.4-1,7.5-2.8l3.3,4.8
			c-2.8,2.6-7.3,3.9-11.6,3.9c-8.6,0-15.1-5.8-15.1-14.9C388,59.9,394,53.2,402.6,53.2z M395.6,65.4h13.9c-0.1-3.6-3.2-6.4-6.8-6.3
			c-0.1,0-0.1,0-0.2,0C399,59.1,396,61.8,395.6,65.4L395.6,65.4z"/>
		<path class="st1" d="M423,73.3c2.7,2.3,6.2,3.7,9.8,3.9c3.2,0,4.7-1.1,4.7-2.9c0-2-2.5-2.7-5.7-3.3c-4.9-0.9-11.1-2.1-11.1-8.8
			c0-4.7,4.2-8.9,11.6-8.9c4.1-0.1,8.2,1.3,11.4,3.9l-3,5.1c-2.3-2.1-5.3-3.3-8.4-3.3c-2.7,0-4.5,1-4.5,2.6s2.2,2.4,5.4,3
			c4.9,0.9,11.4,2.2,11.4,9.2c0,5.2-4.4,9.1-12.2,9.1c-4.9,0-9.6-1.6-12.6-4.4L423,73.3z"/>
		<path class="st1" d="M451.5,75.2V60.5h-4.7V54h4.7v-7.8h7.5V54h5.7v6.5H459v12.7c0,1.8,0.9,3.1,2.6,3.1c0.9,0,1.8-0.3,2.6-0.8
			l1.6,5.6c-1.1,1-3.1,1.8-6.2,1.8C454.4,82.9,451.5,80.2,451.5,75.2z"/>
	</g>
</g>
</svg>
