<?xml version="1.0" encoding="utf-8"?>
<!-- Generator: Adobe Illustrator 26.0.3, SVG Export Plug-In . SVG Version: 6.00 Build 0)  -->
<svg version="1.1" id="Layer_1" xmlns="http://www.w3.org/2000/svg" xmlns:xlink="http://www.w3.org/1999/xlink" x="0px" y="0px"
	 viewBox="0 0 970 250" style="enable-background:new 0 0 970 250;" xml:space="preserve">
<style type="text/css">
	.st0{fill:#FFFFFF;}
	.st1{clip-path:url(#SVGID_00000103265045227410791730000006912715019149989302_);}
</style>
<g>
	<g>
		<path class="st0" d="M823.9,187.8l-4.2-6.7h-3.3v6.7h-2.6v-17.5h7.4c3.3,0,5.6,2.1,5.6,5.4c0.1,2.6-1.8,4.8-4.3,5.1l4.5,7
			L823.9,187.8z M820.9,172.7h-4.4v6.1h4.4c1.7,0.1,3.1-1.2,3.2-2.9c0.1-1.7-1.2-3.1-2.9-3.2C821.1,172.7,821,172.7,820.9,172.7z"/>
		<path class="st0" d="M828.4,181.5c-0.2-3.5,2.5-6.4,5.9-6.6c0.2,0,0.3,0,0.5,0c4,0,6.4,3,6.4,6.6s-2.4,6.7-6.4,6.7
			S828.4,185.2,828.4,181.5z M838.7,181.5c0-2.4-1.4-4.5-3.9-4.5s-3.9,2.1-3.9,4.5s1.4,4.6,3.9,4.6S838.7,183.9,838.7,181.5z"/>
		<path class="st0" d="M852.7,187.8v-1.7c-1.2,1.3-2.8,2-4.5,2c-2.7,0-4-1.4-4-4v-8.9h2.4v8.1c0,2.1,1,2.7,2.7,2.7
			c1.4,0,2.7-0.7,3.5-1.8v-9.1h2.3v12.6L852.7,187.8z"/>
		<path class="st0" d="M859.2,185v-7.8h-2.1v-2.1h2.1v-3.4h2.4v3.4h2.6v2.1h-2.6v7.3c0,0.9,0.4,1.5,1.2,1.5c0.5,0,0.9-0.2,1.3-0.5
			l0.6,1.8c-0.7,0.6-1.6,0.9-2.5,0.8C860.3,188.2,859.2,187,859.2,185z"/>
		<path class="st0" d="M872.3,174.9c3.8,0,6.2,3,6.2,6.8v0.6h-10c0.1,2.3,2,4,4.3,3.9c1.4,0,2.7-0.5,3.8-1.5l1.1,1.6
			c-1.4,1.3-3.2,2-5.1,1.9c-3.7,0.1-6.7-2.9-6.7-6.5S868.7,174.9,872.3,174.9L872.3,174.9z M868.5,180.6h7.7c0-2.1-1.6-3.7-3.7-3.8
			c-0.1,0-0.1,0-0.2,0C870.2,176.8,868.5,178.5,868.5,180.6L868.5,180.6z"/>
		<path class="st0" d="M881.5,187.8v-17.5h2.4v6.6c0.9-1.3,2.5-2.1,4.1-2.1c3.3,0,5.6,2.6,5.6,6.6s-2.3,6.6-5.6,6.6
			c-1.6,0-3.2-0.8-4.1-2.1v1.8L881.5,187.8z M883.8,184.2c0.8,1.1,2.1,1.8,3.5,1.8c2.3,0,3.8-1.9,3.8-4.5s-1.5-4.6-3.8-4.6
			c-1.4,0-2.7,0.7-3.5,1.9V184.2z"/>
		<path class="st0" d="M905.1,187.8v-1.7c-1.2,1.3-2.8,2-4.5,2c-2.7,0-4-1.4-4-4v-8.9h2.4v8.1c0,2.1,1,2.7,2.7,2.7
			c1.4,0,2.7-0.7,3.5-1.8v-9.1h2.4v12.6L905.1,187.8z"/>
		<path class="st0" d="M911.2,187.8v-12.6h2.4v1.9c1-1.3,2.5-2.2,4.1-2.2v2.4c-0.3-0.1-0.5-0.1-0.8-0.1c-1.3,0.1-2.5,0.7-3.3,1.8
			v8.8L911.2,187.8z"/>
		<path class="st0" d="M928.6,187.8v-8.1c0-2.1-1.1-2.8-2.7-2.8c-1.4,0-2.7,0.7-3.5,1.8v9h-2.4v-12.6h2.4v1.8
			c1.1-1.3,2.8-2.1,4.5-2.1c2.7,0,4,1.4,4,4.1v8.9L928.6,187.8z"/>
		<path class="st0" d="M818.1,211.6v-15.2h-5.4v-2.3h13.4v2.3h-5.4v15.2H818.1z"/>
		<path class="st0" d="M826.7,211.6V199h2.3v1.9c1-1.3,2.5-2.2,4.1-2.2v2.4c-0.3-0.1-0.5-0.1-0.8-0.1c-1.3,0.1-2.5,0.8-3.3,1.8v8.8
			L826.7,211.6z"/>
		<path class="st0" d="M843.3,211.6v-1.4c-1.1,1.1-2.6,1.8-4.1,1.7c-2.3,0.1-4.3-1.7-4.4-4c0-0.1,0-0.1,0-0.2c0-2.9,2.3-4.1,4.4-4.1
			c1.6-0.1,3.1,0.5,4.1,1.7v-2.1c0-1.6-1.3-2.5-3.1-2.5c-1.4,0-2.8,0.6-3.8,1.7l-1-1.6c1.4-1.4,3.2-2.1,5.2-2.1
			c2.8,0,5.1,1.2,5.1,4.4v8.5L843.3,211.6z M843.3,206.7c-0.8-1-2-1.5-3.2-1.4c-1.4-0.2-2.7,0.7-2.9,2.1c-0.2,1.4,0.7,2.7,2.1,2.9
			c0.3,0.1,0.6,0.1,0.9,0c1.2,0.1,2.5-0.5,3.2-1.4V206.7z"/>
		<path class="st0" d="M855.1,198.6c1.9-0.1,3.6,0.7,4.7,2.2l-1.6,1.4c-0.7-1-1.8-1.6-3.1-1.6c-2.5,0-4.1,1.9-4.1,4.5
			s1.6,4.6,4.1,4.6c1.2,0,2.4-0.6,3.1-1.6l1.6,1.4c-1.1,1.5-2.9,2.3-4.7,2.2c-3.7-0.1-6.5-3.2-6.4-6.9
			C848.9,201.6,851.6,198.8,855.1,198.6L855.1,198.6z"/>
		<path class="st0" d="M870.9,211.6l-4.2-5.4l-1.9,1.9v3.5h-2.3v-17.5h2.3v11.2l6.1-6.4h3l-5.4,5.7l5.5,6.9H870.9z"/>
		<g>
			<defs>
				<rect id="SVGID_1_" width="970" height="250"/>
			</defs>
			<clipPath id="SVGID_00000074433441541581424600000012436950490731197058_">
				<use xlink:href="#SVGID_1_"  style="overflow:visible;"/>
			</clipPath>
			<g style="clip-path:url(#SVGID_00000074433441541581424600000012436950490731197058_);">
				<path class="st0" d="M790.3,191.9c-4.7,6.5-9.3,13-14,19.5l-0.2,0.2c-0.3,0.4-0.6,0.4-0.9,0c-1-1.4-2-2.8-3-4.2
					c-3.5-4.9-7.1-9.9-10.7-14.8c-1.6-2.1-2.8-4.6-3.5-7.1c-0.3-1.4-0.5-2.8-0.5-4.2c-0.1-9.1,6.5-16.9,15.4-18.3
					c9.8-1.5,19.1,5.2,20.7,15C794.5,182.9,793.3,187.9,790.3,191.9 M794.8,177.2c-1.8-8.9-9.4-15.4-18.5-15.8
					c-10.9-0.3-20,8.3-20.3,19.2c0,0.9,0,1.8,0.1,2.6c0.4,3.6,1.7,7,3.9,9.8c5,6.8,9.9,13.7,14.9,20.5c0.5,0.7,1,0.7,1.5,0
					c1.5-2,2.9-4,4.3-5.9c3.7-5.1,7.5-10.2,11.1-15.4c2.3-3.3,3.5-7.1,3.5-11.1C795.2,179.8,795.1,178.5,794.8,177.2"/>
				<path class="st0" d="M775.6,193.2c-6.7,0-12.1-5.5-12-12.1c0-6.7,5.5-12.1,12.1-12c6.7,0,12.1,5.5,12,12.1c0,0,0,0,0,0
					C787.6,187.8,782.2,193.2,775.6,193.2 M793.6,178.1c-1.7-9.9-11.1-16.6-21.1-14.9c-8.8,1.5-15.3,9.2-15.2,18.2
					c0,1.4,0.2,2.8,0.5,4.2c0.7,2.6,1.9,5,3.5,7.1c3.6,4.9,7.1,9.9,10.7,14.8c1,1.4,2,2.8,3,4.2c0.3,0.4,0.6,0.4,0.9,0l0.2-0.2
					c4.7-6.5,9.3-13,14-19.5C793.2,187.9,794.4,182.9,793.6,178.1"/>
				<path class="st0" d="M775.6,191.8c-5.9,0-10.8-4.8-10.8-10.8c0-5.9,4.8-10.8,10.8-10.8c5.9,0,10.8,4.8,10.8,10.8c0,0,0,0,0,0
					C786.4,187,781.5,191.8,775.6,191.8 M775.6,169c-6.7,0-12.1,5.4-12.1,12.1c0,6.7,5.4,12.1,12.1,12.1c6.7,0,12.1-5.4,12.1-12
					C787.7,174.5,782.3,169,775.6,169"/>
			</g>
		</g>
	</g>
</g>
</svg>
