<?xml version="1.0" encoding="utf-8"?>
<!-- Generator: Adobe Illustrator 26.0.3, SVG Export Plug-In . SVG Version: 6.00 Build 0)  -->
<svg version="1.1" id="Layer_1" xmlns="http://www.w3.org/2000/svg" xmlns:xlink="http://www.w3.org/1999/xlink" x="0px" y="0px"
	 viewBox="0 0 970 250" style="enable-background:new 0 0 970 250;" xml:space="preserve">
<style type="text/css">
	.st0{fill:#FFFFFF;}
	.st1{clip-path:url(#SVGID_00000057833498287542131290000013650787255779934894_);}
</style>
<g>
	<g>
		<path class="st0" d="M778,187.8v-17.5h2.6v15.2h7.9v2.3L778,187.8z"/>
		<path class="st0" d="M799.7,187.8v-1.7c-1.2,1.3-2.8,2-4.5,2c-2.7,0-4-1.4-4-4v-8.9h2.4v8.1c0,2.1,1,2.7,2.7,2.7
			c1.4,0,2.7-0.7,3.5-1.8v-9.1h2.3v12.6L799.7,187.8z"/>
		<path class="st0" d="M813.9,187.8l-3.5-4.9l-3.6,4.9h-2.7l4.7-6.5l-4.5-6.2h2.7l3.3,4.6l3.2-4.6h2.7l-4.5,6.2l4.8,6.5H813.9z"/>
		<path class="st0" d="M834,187.8v-8.4c0-1.5-0.7-2.4-2.2-2.4c-1.3,0.1-2.4,0.7-3.1,1.8v9.1h-2.4v-8.4c0-1.5-0.6-2.4-2.2-2.4
			c-1.3,0.1-2.4,0.8-3.1,1.8v9h-2.4v-12.6h2.4v1.8c1-1.3,2.5-2,4.1-2.1c1.6-0.1,3,0.9,3.4,2.4c1-1.4,2.5-2.3,4.3-2.4
			c2.3,0,3.6,1.3,3.6,3.8v9.1L834,187.8z"/>
		<path class="st0" d="M839.3,181.5c-0.2-3.5,2.5-6.4,5.9-6.6c0.2,0,0.3,0,0.5,0c4,0,6.4,3,6.4,6.6s-2.4,6.7-6.4,6.7
			S839.3,185.2,839.3,181.5z M849.6,181.5c0-2.4-1.4-4.5-3.9-4.5s-3.9,2.1-3.9,4.5s1.4,4.6,3.9,4.6S849.6,183.9,849.6,181.5z"/>
		<path class="st0" d="M855.1,187.8v-12.6h2.3v1.9c1-1.3,2.5-2.2,4.1-2.2v2.4c-0.3-0.1-0.5-0.1-0.8-0.1c-1.3,0.1-2.5,0.8-3.3,1.8
			v8.8L855.1,187.8z"/>
		<path class="st0" d="M869.5,174.9c3.8,0,6.2,3,6.2,6.8v0.6h-10c0.1,2.3,2,4,4.3,3.9c1.4,0,2.7-0.5,3.8-1.5l1.1,1.6
			c-1.4,1.3-3.2,2-5.1,1.9c-3.7,0.1-6.7-2.9-6.7-6.5S865.8,174.9,869.5,174.9L869.5,174.9z M865.6,180.6h7.7c0-2.1-1.6-3.8-3.7-3.8
			c0,0-0.1,0-0.1,0C867.4,176.8,865.7,178.5,865.6,180.6L865.6,180.6z"/>
		<path class="st0" d="M897.7,187.8V180H888v7.8h-2.6v-17.4h2.6v7.3h9.7v-7.3h2.6v17.5H897.7z"/>
		<path class="st0" d="M912.7,187.8v-1.7c-1.2,1.3-2.8,2-4.5,2c-2.7,0-4-1.4-4-4v-8.9h2.4v8.1c0,2.1,1,2.7,2.7,2.7
			c1.4,0,2.7-0.7,3.5-1.8v-9.1h2.3v12.6L912.7,187.8z"/>
		<path class="st0" d="M919.2,185v-7.8h-2.1v-2.1h2.1v-3.4h2.4v3.4h2.6v2.1h-2.6v7.3c0,0.9,0.4,1.5,1.2,1.5c0.5,0,0.9-0.2,1.3-0.5
			l0.6,1.8c-0.7,0.6-1.6,0.9-2.5,0.8C920.3,188.2,919.2,187,919.2,185z"/>
		<path class="st0" d="M926.4,190.3c0.9-0.6,1.5-1.4,1.8-2.4c0,0-0.3,0.1-0.4,0.1c-0.8,0-1.4-0.6-1.4-1.4c0,0,0-0.1,0-0.1
			c0-0.9,0.7-1.6,1.6-1.6c0,0,0,0,0,0c1.1,0,1.9,1,1.9,2c0,0,0,0.1,0,0.1c-0.1,1.7-0.9,3.3-2.3,4.2L926.4,190.3z"/>
		<path class="st0" d="M788.5,211.6l-6.2-7.6l-1.7,1.9v5.7H778v-17.5h2.6v8.7l7.3-8.7h3.2l-7.2,8.3l7.8,9.2H788.5z"/>
		<path class="st0" d="M798.7,198.6c3.8,0,6.2,2.9,6.2,6.8v0.6h-10c0.1,2.3,2,4,4.3,3.9c1.4,0,2.7-0.5,3.8-1.5l1.1,1.5
			c-1.4,1.3-3.2,1.9-5.1,1.9c-3.7-0.1-6.6-3.1-6.5-6.8C792.5,201.6,795.2,198.8,798.7,198.6L798.7,198.6z M794.8,204.3h7.7
			c0-2.1-1.6-3.8-3.7-3.8c0,0-0.1,0-0.1,0C796.6,200.6,794.9,202.3,794.8,204.3L794.8,204.3z"/>
		<path class="st0" d="M810.2,216.4h-2.4V199h2.4v1.8c1-1.3,2.5-2.1,4.1-2.1c3.3,0,5.6,2.5,5.6,6.6s-2.3,6.6-5.6,6.6
			c-1.7,0-3.2-0.8-4.1-2.1V216.4z M813.7,200.7c-1.4,0-2.7,0.7-3.5,1.9v5.4c0.8,1.1,2.1,1.8,3.5,1.9c2.3,0,3.8-1.9,3.8-4.6
			S816,200.7,813.7,200.7L813.7,200.7z"/>
		<path class="st0" d="M822.9,211.6v-17.5h2.4v17.5H822.9z"/>
		<path class="st0" d="M834.6,198.6c3.8,0,6.2,2.9,6.2,6.8v0.6h-10c0.1,2.3,2,4,4.3,3.9c1.4,0,2.7-0.5,3.8-1.5l1.1,1.6
			c-1.4,1.3-3.2,1.9-5.1,1.9c-3.7-0.1-6.6-3.1-6.5-6.8C828.3,201.7,831.1,198.8,834.6,198.6L834.6,198.6z M830.7,204.3h7.7
			c0-2.1-1.7-3.8-3.7-3.8c0,0-0.1,0-0.1,0C832.5,200.6,830.8,202.3,830.7,204.3L830.7,204.3z"/>
		<path class="st0" d="M843.7,211.6V199h2.4v1.9c1-1.3,2.5-2.2,4.1-2.2v2.4c-0.3-0.1-0.5-0.1-0.8-0.1c-1.3,0.1-2.5,0.8-3.3,1.8v8.8
			L843.7,211.6z"/>
		<path class="st0" d="M863.6,211.6v-15.2h-5.4v-2.3h13.4v2.3h-5.4v15.2H863.6z"/>
		<path class="st0" d="M872.2,211.6V199h2.4v1.9c1-1.3,2.5-2.2,4.1-2.2v2.4c-0.3-0.1-0.5-0.1-0.8-0.1c-1.3,0.1-2.5,0.8-3.3,1.8v8.8
			L872.2,211.6z"/>
		<path class="st0" d="M888.9,211.6v-1.4c-1.1,1.1-2.6,1.8-4.1,1.7c-2.3,0.1-4.3-1.7-4.4-4c0-0.1,0-0.1,0-0.2c0-2.9,2.3-4.1,4.4-4.1
			c1.6-0.1,3.1,0.5,4.1,1.7v-2.1c0-1.6-1.3-2.5-3.1-2.5c-1.4,0-2.8,0.6-3.8,1.7l-1-1.6c1.4-1.4,3.2-2.1,5.2-2.1
			c2.8,0,5.1,1.2,5.1,4.4v8.5L888.9,211.6z M888.9,206.7c-0.8-1-2-1.5-3.2-1.4c-1.4-0.2-2.7,0.7-2.9,2.1c-0.2,1.4,0.7,2.7,2.1,2.9
			c0.3,0.1,0.6,0.1,0.9,0c1.2,0.1,2.5-0.5,3.2-1.4V206.7z"/>
		<path class="st0" d="M900.7,198.6c1.9-0.1,3.6,0.7,4.7,2.2l-1.6,1.4c-0.7-1-1.8-1.6-3.1-1.6c-2.5,0-4.1,1.9-4.1,4.5
			s1.6,4.6,4.1,4.6c1.2,0,2.4-0.6,3.1-1.6l1.6,1.4c-1.1,1.5-2.9,2.3-4.7,2.2c-3.7-0.1-6.5-3.2-6.4-6.9
			C894.4,201.6,897.2,198.8,900.7,198.6L900.7,198.6z"/>
		<path class="st0" d="M916.5,211.6l-4.2-5.4l-1.9,1.9v3.5H908v-17.5h2.3v11.2l6.1-6.4h3l-5.4,5.7l5.5,6.9H916.5z"/>
		<g>
			<defs>
				<rect id="SVGID_1_" width="970" height="250"/>
			</defs>
			<clipPath id="SVGID_00000138533254002197424180000016308844251702313629_">
				<use xlink:href="#SVGID_1_"  style="overflow:visible;"/>
			</clipPath>
			<g style="clip-path:url(#SVGID_00000138533254002197424180000016308844251702313629_);">
				<path class="st0" d="M754.5,191.9c-4.7,6.5-9.3,13-14,19.5l-0.2,0.2c-0.3,0.4-0.6,0.4-0.9,0c-1-1.4-2-2.8-3-4.2
					c-3.5-4.9-7.1-9.9-10.7-14.8c-1.6-2.1-2.8-4.6-3.5-7.1c-0.3-1.4-0.5-2.8-0.5-4.2c-0.1-9.1,6.5-16.9,15.5-18.3
					c9.8-1.5,19.1,5.2,20.7,15C758.7,182.9,757.5,187.9,754.5,191.9 M759.1,177.2c-1.8-8.9-9.4-15.4-18.5-15.8
					c-10.9-0.3-20,8.3-20.3,19.2c0,0.9,0,1.7,0.1,2.6c0.4,3.5,1.7,6.9,3.9,9.7c5,6.8,9.9,13.7,14.9,20.5c0.5,0.7,1,0.7,1.5,0
					c1.5-2,2.9-4,4.3-5.9c3.7-5.1,7.5-10.2,11.1-15.4c2.3-3.3,3.5-7.1,3.5-11.1C759.4,179.7,759.3,178.4,759.1,177.2"/>
				<path class="st0" d="M739.8,193.2c-6.7,0-12.1-5.4-12.1-12.1c0-6.7,5.4-12.1,12.1-12.1c6.7,0,12.1,5.4,12.1,12.1c0,0,0,0,0,0.1
					C751.9,187.8,746.5,193.2,739.8,193.2 M757.8,178.1c-1.7-9.8-10.9-16.5-20.7-15c-9,1.4-15.6,9.2-15.5,18.3
					c0,1.4,0.2,2.8,0.5,4.2c0.7,2.6,1.9,5,3.5,7.1c3.6,4.9,7.2,9.9,10.7,14.8c1,1.4,2,2.8,3,4.2c0.3,0.4,0.6,0.4,0.9,0l0.2-0.2
					c4.7-6.5,9.3-13,14-19.5C757.4,187.9,758.6,182.9,757.8,178.1"/>
				<path class="st0" d="M739.8,191.8c-5.9,0-10.8-4.8-10.8-10.8s4.8-10.8,10.8-10.8s10.8,4.8,10.8,10.8c0,0,0,0,0,0
					C750.6,187,745.8,191.8,739.8,191.8 M739.8,169c-6.7,0-12.1,5.4-12.1,12.1c0,6.7,5.4,12.1,12.1,12.1c6.7,0,12.1-5.4,12.1-12
					C751.9,174.5,746.5,169,739.8,169"/>
			</g>
		</g>
	</g>
</g>
</svg>
