<?xml version="1.0" encoding="utf-8"?>
<!-- Generator: Adobe Illustrator 23.0.0, SVG Export Plug-In . SVG Version: 6.00 Build 0)  -->
<svg version="1.1" id="Layer_1" xmlns="http://www.w3.org/2000/svg" xmlns:xlink="http://www.w3.org/1999/xlink" x="0px" y="0px"
	 viewBox="0 0 468 60" style="enable-background:new 0 0 468 60;" xml:space="preserve">
<style type="text/css">
	.st0{fill:#768961;}
</style>
<g>
	<path class="st0" d="M246.22,22.11v11.7h6.82v2.13H244V22.11H246.22z"/>
	<path class="st0" d="M255.82,24.23c0.25-0.22,0.54-0.33,0.85-0.33c0.3,0,0.58,0.11,0.83,0.33s0.37,0.49,0.37,0.81
		s-0.12,0.58-0.37,0.8s-0.52,0.32-0.83,0.32c-0.32,0-0.6-0.11-0.85-0.32s-0.38-0.48-0.38-0.8S255.56,24.45,255.82,24.23z
		 M257.66,27.91v8.04h-2.13v-8.04H257.66z"/>
	<path class="st0" d="M268.53,27.91l-4.41,8.25h-0.09l-4.62-8.25h2.53l2.2,4.6l2.01-4.6C266.15,27.91,268.53,27.91,268.53,27.91z"/>
	<path class="st0" d="M275.73,33.7l0.97,1.58c-0.43,0.27-0.89,0.48-1.39,0.64c-0.49,0.16-0.97,0.24-1.42,0.24
		c-0.92,0-1.73-0.18-2.4-0.55s-1.2-0.87-1.56-1.52s-0.54-1.39-0.54-2.22c0-0.79,0.2-1.51,0.61-2.17c0.41-0.66,0.96-1.18,1.65-1.57
		c0.7-0.39,1.46-0.58,2.28-0.58c1.09,0,2,0.32,2.72,0.96s1.2,1.54,1.44,2.71l-6.19,2.09c0.22,0.33,0.5,0.58,0.86,0.76
		s0.75,0.27,1.18,0.27C274.52,34.33,275.12,34.12,275.73,33.7z M272.11,29.92c-0.42,0.47-0.64,1.08-0.64,1.82
		c0,0.14,0.01,0.25,0.02,0.32l4.22-1.5c-0.17-0.39-0.41-0.72-0.72-0.97c-0.32-0.25-0.73-0.38-1.24-0.38
		C273.08,29.22,272.53,29.45,272.11,29.92z"/>
	<path class="st0" d="M298.56,28.21c0.46,0.44,0.71,1.03,0.73,1.75v5.99h-2.11v-5.17c-0.03-0.43-0.12-0.76-0.29-1
		c-0.16-0.23-0.44-0.36-0.82-0.39c-0.66,0-1.19,0.29-1.6,0.88c-0.41,0.59-0.62,1.28-0.63,2.06v3.61h-2.15v-5.17
		c-0.03-0.42-0.12-0.75-0.29-0.99s-0.45-0.37-0.84-0.4c-0.43,0-0.81,0.14-1.14,0.42s-0.59,0.65-0.77,1.1s-0.28,0.93-0.28,1.42v3.61
		h-2.13v-8.04h1.92l0.17,1.41c0.3-0.57,0.72-1.01,1.24-1.31s1.11-0.46,1.79-0.46c0.65,0,1.19,0.14,1.62,0.43
		c0.44,0.29,0.73,0.69,0.87,1.23c0.33-0.52,0.75-0.92,1.25-1.22c0.51-0.29,1.03-0.44,1.58-0.44
		C297.47,27.55,298.09,27.77,298.56,28.21z"/>
	<path class="st0" d="M309.95,27.91v8.04h-1.92l-0.13-1.44c-0.28,0.54-0.69,0.98-1.23,1.3s-1.17,0.48-1.86,0.48
		c-0.73,0-1.35-0.22-1.83-0.67c-0.49-0.45-0.74-1.03-0.75-1.74v-5.97h2.13v5.21c0.04,0.89,0.48,1.34,1.31,1.35
		c0.62,0,1.14-0.28,1.55-0.85c0.41-0.57,0.62-1.29,0.62-2.15v-3.55h2.11V27.91z"/>
	<path class="st0" d="M313.55,35.78c-0.55-0.22-1-0.54-1.36-0.94l0.89-1.2c0.67,0.66,1.35,0.99,2.05,0.99
		c0.38,0,0.69-0.07,0.94-0.22s0.37-0.36,0.37-0.66s-0.13-0.53-0.38-0.68s-0.54-0.28-0.85-0.37c-0.31-0.1-0.51-0.16-0.6-0.18
		c-0.7-0.21-1.22-0.53-1.56-0.94s-0.51-0.9-0.51-1.45c0-0.44,0.11-0.86,0.33-1.24c0.22-0.39,0.56-0.7,1.01-0.94s1-0.36,1.64-0.36
		c0.61,0,1.14,0.07,1.59,0.21c0.45,0.14,0.87,0.36,1.26,0.67l-0.82,1.27c-0.23-0.22-0.5-0.39-0.83-0.51
		c-0.32-0.13-0.62-0.19-0.88-0.19c-0.33,0-0.6,0.08-0.82,0.23s-0.32,0.35-0.32,0.59c-0.01,0.29,0.09,0.51,0.32,0.66
		s0.59,0.3,1.1,0.47c0.21,0.06,0.35,0.11,0.42,0.13c0.63,0.2,1.13,0.48,1.48,0.85c0.35,0.36,0.53,0.83,0.53,1.42
		c0,0.79-0.28,1.44-0.84,1.97c-0.56,0.53-1.37,0.79-2.42,0.79C314.68,36.12,314.1,36,313.55,35.78z"/>
	<path class="st0" d="M321.21,24.23c0.25-0.22,0.54-0.33,0.85-0.33c0.3,0,0.58,0.11,0.83,0.33s0.37,0.49,0.37,0.81
		s-0.12,0.58-0.37,0.8s-0.52,0.32-0.83,0.32c-0.32,0-0.6-0.11-0.85-0.32s-0.38-0.48-0.38-0.8S320.96,24.45,321.21,24.23z
		 M323.06,27.91v8.04h-2.13v-8.04H323.06z"/>
	<path class="st0" d="M331.33,35.9c-0.51,0.17-1.03,0.26-1.55,0.26c-0.89,0-1.67-0.17-2.35-0.51s-1.2-0.83-1.57-1.47
		s-0.55-1.39-0.55-2.25c0-0.85,0.2-1.59,0.59-2.23s0.92-1.13,1.57-1.47s1.35-0.51,2.1-0.51c1.27,0,2.31,0.34,3.14,1.03l-1.06,1.39
		c-0.24-0.19-0.52-0.35-0.85-0.48s-0.67-0.2-1.04-0.2c-0.65,0-1.19,0.24-1.64,0.71c-0.45,0.48-0.67,1.07-0.67,1.78
		c0,0.71,0.24,1.3,0.71,1.78s1.08,0.71,1.81,0.71c0.63,0,1.17-0.18,1.6-0.53l1.06,1.33C332.28,35.5,331.84,35.73,331.33,35.9z"/>
</g>
</svg>
