<?xml version="1.0" encoding="utf-8"?>
<!-- Generator: Adobe Illustrator 23.0.0, SVG Export Plug-In . SVG Version: 6.00 Build 0)  -->
<svg version="1.1" id="Layer_1" xmlns="http://www.w3.org/2000/svg" xmlns:xlink="http://www.w3.org/1999/xlink" x="0px" y="0px"
	 viewBox="0 0 468 60" style="enable-background:new 0 0 468 60;" xml:space="preserve">
<style type="text/css">
	.st0{fill:#BB8C54;}
</style>
<g>
	<path class="st0" d="M139.8,36.54c-0.47,0.87-1.11,1.53-1.94,2s-1.78,0.72-2.86,0.76v-2.26c0.97-0.05,1.74-0.38,2.31-0.97
		c0.57-0.59,0.85-1.48,0.85-2.67V21.72h2.34v11.74C140.5,34.65,140.27,35.67,139.8,36.54z"/>
	<path class="st0" d="M143.95,29.66c0.41-0.69,0.97-1.24,1.69-1.63s1.54-0.59,2.46-0.59s1.74,0.2,2.45,0.59s1.26,0.93,1.65,1.62
		s0.58,1.46,0.58,2.31s-0.19,1.62-0.58,2.31s-0.94,1.23-1.65,1.63c-0.71,0.4-1.54,0.6-2.47,0.6c-0.91,0-1.72-0.18-2.44-0.55
		s-1.28-0.89-1.69-1.58c-0.41-0.69-0.61-1.49-0.61-2.41C143.34,31.12,143.54,30.35,143.95,29.66z M146.3,33.89
		c0.47,0.51,1.05,0.77,1.74,0.77c0.72,0,1.31-0.25,1.77-0.76s0.69-1.15,0.69-1.92s-0.23-1.42-0.69-1.93s-1.05-0.77-1.77-0.77
		c-0.69,0-1.27,0.26-1.74,0.79s-0.7,1.16-0.7,1.91C145.6,32.74,145.83,33.38,146.3,33.89z"/>
	<path class="st0" d="M155.44,23.95c0.27-0.23,0.57-0.35,0.9-0.35c0.32,0,0.61,0.12,0.87,0.35s0.39,0.52,0.39,0.85
		s-0.13,0.61-0.39,0.84s-0.55,0.34-0.87,0.34c-0.33,0-0.63-0.11-0.9-0.34s-0.4-0.51-0.4-0.84
		C155.04,24.47,155.17,24.18,155.44,23.95z M157.38,27.82v8.46h-2.24v-8.46H157.38z"/>
	<path class="st0" d="M167.95,28.17c0.53,0.47,0.8,1.08,0.81,1.83v6.28h-2.24V30.8c-0.03-0.44-0.16-0.79-0.39-1.04
		s-0.58-0.39-1.05-0.4c-0.69,0-1.26,0.3-1.71,0.89c-0.45,0.59-0.67,1.35-0.67,2.27v3.76h-2.24v-8.46h2.02l0.16,1.5
		c0.31-0.59,0.75-1.04,1.33-1.37s1.25-0.49,2.01-0.49C166.77,27.46,167.42,27.7,167.95,28.17z"/>
	<path class="st0" d="M186.38,27.82v8.46h-2.02l-0.14-1.52c-0.29,0.57-0.73,1.03-1.3,1.37s-1.23,0.51-1.96,0.51
		c-0.77,0-1.42-0.24-1.93-0.71c-0.51-0.47-0.78-1.08-0.79-1.83v-6.28h2.24v5.48c0.04,0.93,0.5,1.41,1.38,1.42
		c0.65,0,1.2-0.3,1.63-0.9c0.43-0.6,0.65-1.35,0.65-2.26v-3.74C184.14,27.82,186.38,27.82,186.38,27.82z"/>
	<path class="st0" d="M190.17,36.11c-0.58-0.23-1.06-0.56-1.43-0.99l0.94-1.26c0.71,0.69,1.43,1.04,2.16,1.04
		c0.4,0,0.73-0.08,0.99-0.23c0.26-0.15,0.39-0.38,0.39-0.69c0-0.32-0.13-0.56-0.4-0.72c-0.27-0.16-0.56-0.29-0.89-0.39
		s-0.54-0.16-0.63-0.19c-0.73-0.23-1.28-0.56-1.64-0.99c-0.36-0.43-0.54-0.94-0.54-1.53c0-0.47,0.12-0.9,0.35-1.31
		c0.23-0.41,0.59-0.74,1.06-0.99s1.05-0.38,1.73-0.38c0.64,0,1.2,0.07,1.67,0.22s0.92,0.38,1.33,0.7l-0.86,1.34
		c-0.24-0.23-0.53-0.41-0.87-0.54c-0.34-0.13-0.65-0.2-0.93-0.2c-0.35,0-0.63,0.08-0.86,0.24s-0.34,0.37-0.34,0.62
		c-0.01,0.31,0.1,0.54,0.34,0.69c0.24,0.15,0.63,0.32,1.16,0.49c0.23,0.07,0.37,0.11,0.44,0.14c0.67,0.21,1.19,0.51,1.56,0.89
		c0.37,0.38,0.56,0.88,0.56,1.49c0,0.83-0.3,1.52-0.89,2.07s-1.44,0.83-2.55,0.83C191.37,36.46,190.75,36.34,190.17,36.11z"/>
	<path class="st0" d="M205.08,29.78h-1.44V27.8h1.44v-3.32c0-1.19,0.3-2.11,0.9-2.78c0.6-0.67,1.46-1,2.58-1
		c0.33,0,0.69,0.05,1.08,0.15s0.72,0.24,1,0.43l-0.94,1.62c-0.23-0.24-0.53-0.36-0.9-0.36c-0.99,0-1.48,0.67-1.48,2v3.26h2.64v1.98
		h-2.64v6.5h-2.24V29.78z"/>
	<path class="st0" d="M211.77,29.66c0.41-0.69,0.97-1.24,1.69-1.63s1.54-0.59,2.46-0.59s1.74,0.2,2.45,0.59s1.26,0.93,1.65,1.62
		s0.58,1.46,0.58,2.31s-0.19,1.62-0.58,2.31s-0.94,1.23-1.65,1.63c-0.71,0.4-1.54,0.6-2.47,0.6c-0.91,0-1.72-0.18-2.44-0.55
		s-1.28-0.89-1.69-1.58c-0.41-0.69-0.61-1.49-0.61-2.41C211.16,31.12,211.36,30.35,211.77,29.66z M214.12,33.89
		c0.47,0.51,1.05,0.77,1.74,0.77c0.72,0,1.31-0.25,1.77-0.76s0.69-1.15,0.69-1.92s-0.23-1.42-0.69-1.93s-1.05-0.77-1.77-0.77
		c-0.69,0-1.27,0.26-1.74,0.79s-0.7,1.16-0.7,1.91C213.42,32.74,213.65,33.38,214.12,33.89z"/>
	<path class="st0" d="M226.1,28.56c0.41-0.36,0.84-0.64,1.27-0.83c0.43-0.19,0.8-0.29,1.09-0.29l-0.1,2.24
		c-0.61-0.05-1.16,0.06-1.64,0.33s-0.85,0.65-1.12,1.12c-0.27,0.47-0.4,0.98-0.4,1.51v3.64h-2.24v-8.46h2.02l0.16,1.96
		C225.37,29.33,225.69,28.92,226.1,28.56z"/>
	<path class="st0" d="M230.11,28.66c0.25-0.24,0.53-0.36,0.85-0.36c0.29,0,0.56,0.12,0.81,0.36s0.37,0.53,0.37,0.86
		c0,0.35-0.12,0.64-0.37,0.87c-0.25,0.23-0.52,0.35-0.81,0.35c-0.32,0-0.6-0.11-0.85-0.34s-0.37-0.52-0.37-0.88
		C229.74,29.19,229.86,28.9,230.11,28.66z M230.11,34.2c0.25-0.24,0.53-0.36,0.85-0.36c0.29,0,0.56,0.12,0.81,0.36
		s0.37,0.53,0.37,0.86c0,0.35-0.12,0.64-0.37,0.87s-0.52,0.35-0.81,0.35c-0.32,0-0.6-0.11-0.85-0.34s-0.37-0.52-0.37-0.88
		C229.74,34.73,229.86,34.44,230.11,34.2z"/>
</g>
</svg>
