<?xml version="1.0" encoding="utf-8"?>
<!-- Generator: Adobe Illustrator 23.0.0, SVG Export Plug-In . SVG Version: 6.00 Build 0)  -->
<svg version="1.1" id="Layer_1" xmlns="http://www.w3.org/2000/svg" xmlns:xlink="http://www.w3.org/1999/xlink" x="0px" y="0px"
	 viewBox="0 0 468 60" style="enable-background:new 0 0 468 60;" xml:space="preserve">
<style type="text/css">
	.st0{fill:#768961;}
</style>
<g>
	<path class="st0" d="M128.43,35.23c-0.72,0.27-1.5,0.4-2.35,0.4c-1.43,0-2.68-0.31-3.75-0.94c-1.07-0.63-1.89-1.47-2.47-2.53
		S119,29.95,119,28.68c0-1.38,0.29-2.62,0.86-3.71s1.38-1.94,2.41-2.56s2.21-0.92,3.52-0.92c0.81,0,1.56,0.11,2.25,0.32
		c0.69,0.22,1.3,0.49,1.83,0.82L129,24.7c-1.03-0.72-2.07-1.08-3.13-1.08c-0.81,0-1.57,0.22-2.27,0.66s-1.26,1.03-1.68,1.79
		c-0.42,0.75-0.63,1.58-0.63,2.48c0,0.95,0.19,1.8,0.58,2.55s0.94,1.34,1.65,1.77s1.54,0.64,2.48,0.64c0.67,0,1.28-0.1,1.81-0.3
		c0.54-0.2,0.99-0.46,1.36-0.78l0.93,1.98C129.71,34.69,129.15,34.97,128.43,35.23z"/>
	<path class="st0" d="M132.54,29.19c0.39-0.66,0.92-1.17,1.61-1.55c0.68-0.37,1.46-0.56,2.34-0.56s1.65,0.19,2.33,0.56
		c0.68,0.37,1.2,0.89,1.57,1.54c0.37,0.65,0.55,1.38,0.55,2.2c0,0.82-0.18,1.54-0.55,2.19s-0.89,1.17-1.57,1.55
		s-1.46,0.57-2.35,0.57c-0.86,0-1.63-0.17-2.32-0.52c-0.68-0.35-1.22-0.85-1.61-1.5s-0.58-1.42-0.58-2.29
		C131.96,30.58,132.15,29.85,132.54,29.19z M134.77,33.21c0.44,0.49,0.99,0.73,1.65,0.73c0.68,0,1.25-0.24,1.68-0.72
		c0.44-0.48,0.66-1.09,0.66-1.82s-0.22-1.35-0.66-1.83c-0.44-0.49-1-0.73-1.68-0.73c-0.66,0-1.21,0.25-1.65,0.75
		c-0.44,0.5-0.67,1.11-0.67,1.81C134.11,32.12,134.33,32.72,134.77,33.21z"/>
	<path class="st0" d="M155.47,27.75c0.46,0.44,0.71,1.03,0.73,1.75v5.99h-2.11v-5.17c-0.03-0.43-0.12-0.76-0.29-1
		c-0.16-0.23-0.44-0.36-0.82-0.39c-0.66,0-1.19,0.29-1.6,0.88c-0.41,0.59-0.62,1.28-0.63,2.06v3.61h-2.15v-5.17
		c-0.03-0.42-0.12-0.75-0.29-0.99s-0.45-0.37-0.84-0.4c-0.43,0-0.81,0.14-1.14,0.42s-0.59,0.65-0.77,1.1s-0.28,0.93-0.28,1.42v3.61
		h-2.13v-8.04h1.92l0.17,1.41c0.3-0.57,0.72-1.01,1.24-1.31s1.11-0.46,1.79-0.46c0.65,0,1.19,0.14,1.62,0.43
		c0.44,0.29,0.73,0.69,0.87,1.23c0.33-0.52,0.75-0.92,1.25-1.22c0.51-0.29,1.03-0.44,1.58-0.44
		C154.38,27.08,155.01,27.31,155.47,27.75z"/>
	<path class="st0" d="M166.44,27.62c0.61,0.35,1.08,0.86,1.42,1.52s0.51,1.42,0.51,2.3c0,0.86-0.19,1.62-0.56,2.26
		c-0.37,0.65-0.89,1.14-1.56,1.48s-1.42,0.51-2.25,0.51c-0.53,0-1.04-0.11-1.54-0.32c-0.49-0.21-0.9-0.51-1.22-0.87v4.85h-2.13
		V27.29h1.84l0.19,1.2c0.42-0.43,0.9-0.77,1.45-1.03c0.55-0.25,1.15-0.38,1.8-0.38C165.16,27.08,165.83,27.26,166.44,27.62z
		 M164.89,33.67c0.4-0.22,0.72-0.52,0.96-0.9s0.36-0.81,0.36-1.29c0-0.75-0.24-1.37-0.71-1.85c-0.48-0.49-1.06-0.73-1.76-0.73
		c-0.62,0-1.14,0.15-1.57,0.46c-0.42,0.3-0.73,0.73-0.92,1.27v1.62c0.13,0.52,0.4,0.94,0.83,1.27c0.42,0.33,0.93,0.49,1.51,0.49
		C164.06,34,164.5,33.89,164.89,33.67z"/>
	<path class="st0" d="M172.75,20.66v14.82h-2.13V20.66H172.75z"/>
	<path class="st0" d="M175.96,23.77c0.25-0.22,0.54-0.33,0.85-0.33c0.3,0,0.58,0.11,0.83,0.33s0.37,0.49,0.37,0.81
		s-0.12,0.58-0.37,0.8s-0.52,0.32-0.83,0.32c-0.32,0-0.6-0.11-0.85-0.32s-0.38-0.48-0.38-0.8S175.71,23.99,175.96,23.77z
		 M177.8,27.44v8.04h-2.13v-8.04C175.67,27.44,177.8,27.44,177.8,27.44z"/>
	<path class="st0" d="M193.03,27.75c0.46,0.44,0.71,1.03,0.73,1.75v5.99h-2.11v-5.17c-0.03-0.43-0.12-0.76-0.29-1
		c-0.16-0.23-0.44-0.36-0.82-0.39c-0.66,0-1.19,0.29-1.6,0.88c-0.41,0.59-0.62,1.28-0.63,2.06v3.61h-2.15v-5.17
		c-0.03-0.42-0.12-0.75-0.29-0.99s-0.45-0.37-0.84-0.4c-0.43,0-0.81,0.14-1.14,0.42s-0.59,0.65-0.77,1.1s-0.28,0.93-0.28,1.42v3.61
		h-2.13v-8.04h1.92l0.17,1.41c0.3-0.57,0.72-1.01,1.24-1.31s1.11-0.46,1.79-0.46c0.65,0,1.19,0.14,1.62,0.43
		c0.44,0.29,0.73,0.69,0.87,1.23c0.33-0.52,0.75-0.92,1.25-1.22c0.51-0.29,1.03-0.44,1.58-0.44
		C191.95,27.08,192.57,27.31,193.03,27.75z"/>
	<path class="st0" d="M202.37,33.24l0.97,1.58c-0.43,0.27-0.89,0.48-1.39,0.64c-0.49,0.16-0.97,0.24-1.42,0.24
		c-0.92,0-1.73-0.18-2.4-0.55s-1.2-0.87-1.56-1.52s-0.54-1.39-0.54-2.22c0-0.79,0.2-1.51,0.61-2.17s0.96-1.18,1.65-1.57
		c0.7-0.39,1.46-0.58,2.28-0.58c1.09,0,2,0.32,2.72,0.96s1.2,1.54,1.44,2.71l-6.19,2.09c0.22,0.33,0.5,0.58,0.86,0.76
		s0.75,0.27,1.18,0.27C201.16,33.87,201.76,33.66,202.37,33.24z M198.75,29.46c-0.42,0.47-0.64,1.08-0.64,1.82
		c0,0.14,0.01,0.25,0.02,0.32l4.22-1.5c-0.17-0.39-0.41-0.72-0.72-0.97c-0.32-0.25-0.73-0.38-1.24-0.38
		C199.72,28.76,199.18,28.99,198.75,29.46z"/>
	<path class="st0" d="M213.93,27.78c0.5,0.45,0.76,1.03,0.77,1.74v5.97h-2.13v-5.21c-0.03-0.42-0.15-0.75-0.37-0.99
		s-0.55-0.37-1-0.38c-0.66,0-1.2,0.28-1.62,0.85c-0.42,0.56-0.64,1.28-0.64,2.16v3.57h-2.13v-8.04h1.92l0.15,1.42
		c0.29-0.56,0.71-0.99,1.26-1.3c0.55-0.31,1.19-0.47,1.91-0.47C212.81,27.1,213.43,27.33,213.93,27.78z"/>
	<path class="st0" d="M220.54,23.91v3.53h2.09v1.67h-2.09v6.37h-2.13v-6.37h-1.39v-1.67h1.39v-3.53H220.54z"/>
	<path class="st0" d="M233.13,27.44v8.04H231v-1.16c-0.29,0.34-0.68,0.66-1.18,0.94s-1.07,0.43-1.73,0.43
		c-0.77,0-1.46-0.16-2.07-0.48s-1.09-0.8-1.44-1.43s-0.53-1.4-0.53-2.3c0-0.87,0.18-1.64,0.55-2.31s0.86-1.18,1.47-1.54
		s1.29-0.54,2.02-0.54c1.3,0,2.28,0.48,2.93,1.44l0.15-1.08h1.96V27.44z M230.16,33.5c0.4-0.3,0.68-0.72,0.85-1.26v-1.75
		c-0.15-0.49-0.45-0.89-0.88-1.2c-0.44-0.3-0.94-0.46-1.51-0.46c-0.67,0-1.24,0.24-1.71,0.71s-0.7,1.08-0.7,1.81
		c0,0.48,0.11,0.92,0.34,1.31s0.53,0.7,0.91,0.93s0.79,0.34,1.23,0.34C229.27,33.94,229.76,33.79,230.16,33.5z"/>
	<path class="st0" d="M239.06,28.15c0.39-0.34,0.79-0.6,1.21-0.79c0.41-0.18,0.76-0.28,1.04-0.28l-0.1,2.13
		c-0.58-0.05-1.1,0.05-1.56,0.31s-0.81,0.61-1.06,1.06c-0.25,0.45-0.38,0.93-0.38,1.43v3.46h-2.13v-8.04H238l0.15,1.86
		C238.36,28.88,238.67,28.49,239.06,28.15z"/>
	<path class="st0" d="M251.43,27.44l-5.19,11.89h-2.09l1.88-4.2l-3.72-7.7h2.39l2.39,5.32l2.39-5.32h1.95V27.44z"/>
	<path class="st0" d="M262.24,28.15c0.39-0.34,0.79-0.6,1.21-0.79c0.41-0.18,0.76-0.28,1.04-0.28l-0.1,2.13
		c-0.58-0.05-1.1,0.05-1.56,0.31s-0.81,0.61-1.06,1.06c-0.25,0.45-0.38,0.93-0.38,1.43v3.46h-2.13v-8.04h1.92l0.15,1.86
		C261.54,28.88,261.85,28.49,262.24,28.15z"/>
	<path class="st0" d="M271.99,33.24l0.97,1.58c-0.43,0.27-0.89,0.48-1.39,0.64c-0.49,0.16-0.97,0.24-1.42,0.24
		c-0.92,0-1.73-0.18-2.4-0.55s-1.2-0.87-1.56-1.52s-0.54-1.39-0.54-2.22c0-0.79,0.2-1.51,0.61-2.17c0.41-0.66,0.96-1.18,1.65-1.57
		c0.7-0.39,1.46-0.58,2.28-0.58c1.09,0,2,0.32,2.72,0.96s1.2,1.54,1.44,2.71l-6.19,2.09c0.22,0.33,0.5,0.58,0.86,0.76
		s0.75,0.27,1.18,0.27C270.78,33.87,271.38,33.66,271.99,33.24z M268.37,29.46c-0.42,0.47-0.64,1.08-0.64,1.82
		c0,0.14,0.01,0.25,0.02,0.32l4.22-1.5c-0.17-0.39-0.41-0.72-0.72-0.97c-0.32-0.25-0.73-0.38-1.24-0.38
		C269.34,28.76,268.79,28.99,268.37,29.46z"/>
	<path class="st0" d="M277.13,29.31h-1.37v-1.88h1.37v-3.15c0-1.13,0.29-2.01,0.86-2.64c0.57-0.63,1.39-0.95,2.45-0.95
		c0.32,0,0.66,0.05,1.03,0.14s0.68,0.23,0.95,0.41l-0.89,1.54c-0.21-0.23-0.5-0.34-0.85-0.34c-0.94,0-1.41,0.63-1.41,1.9v3.1h2.51
		v1.88h-2.51v6.17h-2.13L277.13,29.31L277.13,29.31z"/>
	<path class="st0" d="M287.05,28.15c0.39-0.34,0.79-0.6,1.21-0.79c0.41-0.18,0.76-0.28,1.04-0.28l-0.1,2.13
		c-0.58-0.05-1.1,0.05-1.56,0.31s-0.81,0.61-1.06,1.06c-0.25,0.45-0.38,0.93-0.38,1.43v3.46h-2.13v-8.04h1.92l0.15,1.86
		C286.36,28.88,286.66,28.49,287.05,28.15z"/>
	<path class="st0" d="M296.8,33.24l0.97,1.58c-0.43,0.27-0.89,0.48-1.39,0.64c-0.49,0.16-0.97,0.24-1.42,0.24
		c-0.92,0-1.73-0.18-2.4-0.55s-1.2-0.87-1.56-1.52s-0.54-1.39-0.54-2.22c0-0.79,0.2-1.51,0.61-2.17c0.41-0.66,0.96-1.18,1.65-1.57
		c0.7-0.39,1.46-0.58,2.28-0.58c1.09,0,2,0.32,2.72,0.96s1.2,1.54,1.44,2.71l-6.19,2.09c0.22,0.33,0.5,0.58,0.86,0.76
		s0.75,0.27,1.18,0.27C295.59,33.87,296.19,33.66,296.8,33.24z M293.18,29.46c-0.42,0.47-0.64,1.08-0.64,1.82
		c0,0.14,0.01,0.25,0.02,0.32l4.22-1.5c-0.17-0.39-0.41-0.72-0.72-0.97c-0.32-0.25-0.73-0.38-1.24-0.38
		C294.15,28.76,293.61,28.99,293.18,29.46z"/>
	<path class="st0" d="M301.9,35.32c-0.55-0.22-1-0.54-1.36-0.94l0.89-1.2c0.67,0.66,1.35,0.99,2.05,0.99c0.38,0,0.69-0.07,0.94-0.22
		s0.37-0.36,0.37-0.66s-0.13-0.53-0.38-0.68s-0.54-0.28-0.85-0.37c-0.31-0.1-0.51-0.16-0.6-0.18c-0.7-0.21-1.22-0.53-1.56-0.94
		s-0.51-0.9-0.51-1.45c0-0.44,0.11-0.86,0.33-1.24c0.22-0.39,0.56-0.7,1.01-0.94s1-0.36,1.64-0.36c0.61,0,1.14,0.07,1.59,0.21
		c0.45,0.14,0.87,0.36,1.26,0.67l-0.82,1.27c-0.23-0.22-0.5-0.39-0.83-0.51c-0.32-0.13-0.62-0.19-0.88-0.19
		c-0.33,0-0.6,0.08-0.82,0.23s-0.32,0.35-0.32,0.59c-0.01,0.29,0.09,0.51,0.32,0.66s0.59,0.3,1.1,0.47
		c0.21,0.06,0.35,0.11,0.42,0.13c0.63,0.2,1.13,0.48,1.48,0.85c0.35,0.36,0.53,0.83,0.53,1.42c0,0.79-0.28,1.44-0.84,1.97
		c-0.56,0.53-1.37,0.79-2.42,0.79C303.04,35.65,302.45,35.54,301.9,35.32z"/>
	<path class="st0" d="M316.4,27.78c0.5,0.45,0.76,1.03,0.77,1.74v5.97h-2.13v-5.21c-0.03-0.42-0.15-0.75-0.37-0.99
		s-0.55-0.37-1-0.38c-0.66,0-1.2,0.29-1.62,0.86c-0.42,0.57-0.64,1.29-0.64,2.15v3.57h-2.13V20.66h2.09v8.15
		c0.3-0.52,0.73-0.93,1.26-1.24s1.17-0.47,1.89-0.47C315.27,27.1,315.9,27.33,316.4,27.78z"/>
	<path class="st0" d="M332.4,27.75c0.46,0.44,0.71,1.03,0.73,1.75v5.99h-2.11v-5.17c-0.03-0.43-0.12-0.76-0.29-1
		c-0.16-0.23-0.44-0.36-0.82-0.39c-0.66,0-1.19,0.29-1.6,0.88c-0.41,0.59-0.62,1.28-0.63,2.06v3.61h-2.15v-5.17
		c-0.03-0.42-0.12-0.75-0.29-0.99s-0.45-0.37-0.84-0.4c-0.43,0-0.81,0.14-1.14,0.42s-0.59,0.65-0.77,1.1s-0.28,0.93-0.28,1.42v3.61
		h-2.13v-8.04H322l0.17,1.41c0.3-0.57,0.72-1.01,1.24-1.31s1.11-0.46,1.79-0.46c0.65,0,1.19,0.14,1.62,0.43
		c0.44,0.29,0.73,0.69,0.87,1.23c0.33-0.52,0.75-0.92,1.25-1.22c0.51-0.29,1.03-0.44,1.58-0.44
		C331.31,27.08,331.93,27.31,332.4,27.75z"/>
	<path class="st0" d="M341.73,33.24l0.97,1.58c-0.43,0.27-0.89,0.48-1.39,0.64c-0.49,0.16-0.97,0.24-1.42,0.24
		c-0.92,0-1.73-0.18-2.4-0.55s-1.2-0.87-1.56-1.52s-0.54-1.39-0.54-2.22c0-0.79,0.2-1.51,0.61-2.17c0.41-0.66,0.96-1.18,1.65-1.57
		c0.7-0.39,1.46-0.58,2.28-0.58c1.09,0,2,0.32,2.72,0.96s1.2,1.54,1.44,2.71l-6.19,2.09c0.22,0.33,0.5,0.58,0.86,0.76
		s0.75,0.27,1.18,0.27C340.52,33.87,341.13,33.66,341.73,33.24z M338.11,29.46c-0.42,0.47-0.64,1.08-0.64,1.82
		c0,0.14,0.01,0.25,0.02,0.32l4.22-1.5c-0.17-0.39-0.41-0.72-0.72-0.97c-0.32-0.25-0.73-0.38-1.24-0.38
		C339.09,28.76,338.54,28.99,338.11,29.46z"/>
	<path class="st0" d="M353.29,27.78c0.5,0.45,0.76,1.03,0.77,1.74v5.97h-2.13v-5.21c-0.03-0.42-0.15-0.75-0.37-0.99
		s-0.55-0.37-1-0.38c-0.66,0-1.2,0.28-1.62,0.85c-0.42,0.56-0.64,1.28-0.64,2.16v3.57h-2.13v-8.04h1.92l0.15,1.42
		c0.29-0.56,0.71-0.99,1.26-1.3c0.55-0.31,1.19-0.47,1.91-0.47C352.17,27.1,352.79,27.33,353.29,27.78z"/>
	<path class="st0" d="M359.9,23.91v3.53h2.09v1.67h-2.09v6.37h-2.13v-6.37h-1.39v-1.67h1.39v-3.53H359.9z"/>
	<path class="st0" d="M364.73,35.32c-0.55-0.22-1-0.54-1.36-0.94l0.89-1.2c0.67,0.66,1.35,0.99,2.05,0.99
		c0.38,0,0.69-0.07,0.94-0.22s0.37-0.36,0.37-0.66s-0.13-0.53-0.38-0.68s-0.54-0.28-0.85-0.37c-0.31-0.1-0.51-0.16-0.6-0.18
		c-0.7-0.21-1.22-0.53-1.56-0.94s-0.51-0.9-0.51-1.45c0-0.44,0.11-0.86,0.33-1.24c0.22-0.39,0.56-0.7,1.01-0.94s1-0.36,1.64-0.36
		c0.61,0,1.14,0.07,1.59,0.21c0.45,0.14,0.87,0.36,1.26,0.67l-0.82,1.27c-0.23-0.22-0.5-0.39-0.83-0.51
		c-0.32-0.13-0.62-0.19-0.88-0.19c-0.33,0-0.6,0.08-0.82,0.23s-0.32,0.35-0.32,0.59c-0.01,0.29,0.09,0.51,0.32,0.66
		s0.59,0.3,1.1,0.47c0.21,0.06,0.35,0.11,0.42,0.13c0.63,0.2,1.13,0.48,1.48,0.85c0.35,0.36,0.53,0.83,0.53,1.42
		c0,0.79-0.28,1.44-0.84,1.97c-0.56,0.53-1.37,0.79-2.42,0.79C365.87,35.65,365.28,35.54,364.73,35.32z"/>
</g>
</svg>
