<?xml version="1.0" encoding="utf-8"?>
<!-- Generator: Adobe Illustrator 23.0.0, SVG Export Plug-In . SVG Version: 6.00 Build 0)  -->
<svg version="1.1" id="Layer_1" xmlns="http://www.w3.org/2000/svg" xmlns:xlink="http://www.w3.org/1999/xlink" x="0px" y="0px"
	 viewBox="0 0 468 60" style="enable-background:new 0 0 468 60;" xml:space="preserve">
<style type="text/css">
	.st0{fill:#768961;}
</style>
<g>
	<path class="st0" d="M126.41,14.61c0.84,0.74,1.26,1.78,1.26,3.1c0,0.76-0.15,1.46-0.45,2.11c-0.3,0.65-0.78,1.19-1.45,1.6
		s-1.52,0.62-2.57,0.62h-1.89v4.55h-2.11v-13.1h3.71C124.4,13.49,125.57,13.87,126.41,14.61z M124.6,19.66
		c0.35-0.25,0.61-0.55,0.76-0.9s0.22-0.69,0.22-1.02c0-0.55-0.18-1.06-0.53-1.53c-0.35-0.47-0.95-0.7-1.79-0.7h-1.94v4.52h1.89
		C123.78,20.03,124.24,19.9,124.6,19.66z"/>
	<path class="st0" d="M131.81,12.56V26.6h-2.02V12.56H131.81z"/>
	<path class="st0" d="M141.9,18.98v7.61h-1.82l-0.13-1.37c-0.26,0.52-0.65,0.93-1.17,1.23c-0.52,0.31-1.1,0.46-1.76,0.46
		c-0.7,0-1.28-0.21-1.74-0.64s-0.7-0.97-0.71-1.65v-5.65h2.02v4.93c0.04,0.84,0.45,1.27,1.24,1.28c0.59,0,1.08-0.27,1.47-0.81
		c0.39-0.54,0.58-1.22,0.58-2.03v-3.37L141.9,18.98L141.9,18.98z"/>
	<path class="st0" d="M145.31,26.44c-0.52-0.21-0.95-0.51-1.29-0.89l0.85-1.13c0.64,0.62,1.28,0.94,1.94,0.94
		c0.36,0,0.66-0.07,0.89-0.21s0.35-0.34,0.35-0.62c0-0.29-0.12-0.5-0.36-0.65c-0.24-0.14-0.51-0.26-0.8-0.35
		c-0.29-0.09-0.48-0.15-0.57-0.17c-0.66-0.2-1.15-0.5-1.48-0.89s-0.49-0.85-0.49-1.38c0-0.42,0.11-0.81,0.32-1.18
		s0.53-0.66,0.95-0.89c0.43-0.23,0.95-0.34,1.56-0.34c0.58,0,1.08,0.07,1.5,0.2s0.83,0.34,1.2,0.63l-0.77,1.21
		c-0.22-0.2-0.48-0.37-0.78-0.49c-0.31-0.12-0.58-0.18-0.84-0.18c-0.31,0-0.57,0.07-0.77,0.22c-0.2,0.14-0.31,0.33-0.31,0.56
		c-0.01,0.28,0.09,0.48,0.31,0.62c0.22,0.14,0.56,0.29,1.04,0.44c0.2,0.06,0.34,0.1,0.4,0.13c0.6,0.19,1.07,0.46,1.4,0.8
		s0.5,0.79,0.5,1.34c0,0.74-0.27,1.37-0.8,1.86s-1.3,0.75-2.29,0.75C146.39,26.76,145.84,26.65,145.31,26.44z"/>
	<path class="st0" d="M166.04,18.98v7.61h-2.02v-1.1c-0.28,0.32-0.65,0.62-1.12,0.89c-0.47,0.27-1.01,0.41-1.64,0.41
		c-0.73,0-1.39-0.15-1.96-0.46c-0.58-0.31-1.03-0.76-1.37-1.36s-0.5-1.33-0.5-2.18c0-0.83,0.17-1.56,0.52-2.19
		c0.35-0.63,0.81-1.12,1.39-1.46c0.58-0.34,1.22-0.51,1.92-0.51c1.24,0,2.16,0.46,2.77,1.37l0.14-1.03h1.87V18.98z M163.22,24.72
		c0.38-0.28,0.64-0.68,0.8-1.2v-1.66c-0.14-0.47-0.42-0.85-0.84-1.13s-0.89-0.43-1.43-0.43c-0.64,0-1.18,0.22-1.62,0.67
		s-0.67,1.02-0.67,1.72c0,0.46,0.11,0.87,0.32,1.24s0.5,0.67,0.86,0.88c0.36,0.22,0.75,0.32,1.17,0.32
		C162.38,25.14,162.85,25,163.22,24.72z"/>
	<path class="st0" d="M179.66,26.55c-0.49,0.16-0.98,0.24-1.47,0.24c-0.84,0-1.58-0.16-2.22-0.49c-0.64-0.32-1.14-0.79-1.48-1.39
		c-0.35-0.61-0.52-1.32-0.52-2.13c0-0.8,0.19-1.51,0.56-2.11c0.37-0.61,0.87-1.07,1.48-1.4s1.28-0.49,1.99-0.49
		c1.2,0,2.19,0.32,2.97,0.97l-1.01,1.31c-0.23-0.18-0.5-0.33-0.8-0.46c-0.31-0.13-0.63-0.19-0.98-0.19c-0.61,0-1.13,0.22-1.56,0.67
		s-0.64,1.01-0.64,1.68s0.22,1.23,0.67,1.68s1.02,0.67,1.72,0.67c0.6,0,1.1-0.17,1.51-0.5l1.01,1.26
		C180.55,26.17,180.14,26.39,179.66,26.55z"/>
	<path class="st0" d="M189.7,19.3c0.47,0.43,0.72,0.97,0.73,1.65v5.65h-2.02v-4.93c-0.02-0.4-0.14-0.71-0.35-0.94
		c-0.21-0.23-0.53-0.35-0.95-0.36c-0.62,0-1.14,0.27-1.54,0.81s-0.6,1.22-0.6,2.03v3.38h-2.02V12.56h1.98v7.72
		c0.29-0.49,0.69-0.88,1.2-1.18c0.51-0.29,1.11-0.44,1.79-0.44C188.64,18.66,189.23,18.87,189.7,19.3z"/>
	<path class="st0" d="M201.18,18.98v7.61h-2.02v-1.1c-0.28,0.32-0.65,0.62-1.12,0.89c-0.47,0.27-1.01,0.41-1.64,0.41
		c-0.73,0-1.39-0.15-1.96-0.46c-0.58-0.31-1.03-0.76-1.37-1.36s-0.5-1.33-0.5-2.18c0-0.83,0.17-1.56,0.52-2.19
		c0.35-0.63,0.81-1.12,1.39-1.46c0.58-0.34,1.22-0.51,1.92-0.51c1.24,0,2.16,0.46,2.77,1.37l0.14-1.03h1.87V18.98z M198.36,24.72
		c0.38-0.28,0.64-0.68,0.8-1.2v-1.66c-0.14-0.47-0.42-0.85-0.84-1.13s-0.89-0.43-1.43-0.43c-0.64,0-1.18,0.22-1.62,0.67
		s-0.67,1.02-0.67,1.72c0,0.46,0.11,0.87,0.32,1.24s0.5,0.67,0.86,0.88c0.36,0.22,0.75,0.32,1.17,0.32
		C197.52,25.14,197.98,25,198.36,24.72z"/>
	<path class="st0" d="M206.79,19.65c0.37-0.32,0.75-0.57,1.14-0.75c0.39-0.17,0.72-0.26,0.98-0.26l-0.09,2.02
		c-0.55-0.05-1.04,0.05-1.48,0.3c-0.43,0.25-0.77,0.58-1.01,1.01s-0.36,0.88-0.36,1.36v3.28h-2.02V19h1.82l0.14,1.76
		C206.13,20.34,206.42,19.97,206.79,19.65z"/>
	<path class="st0" d="M211.26,15.5c0.24-0.21,0.51-0.32,0.81-0.32c0.29,0,0.55,0.11,0.78,0.32s0.35,0.46,0.35,0.76
		c0,0.3-0.12,0.55-0.35,0.76s-0.5,0.31-0.78,0.31c-0.3,0-0.57-0.1-0.81-0.31c-0.24-0.2-0.36-0.46-0.36-0.76
		S211.02,15.71,211.26,15.5z M213,18.98v7.61h-2.02v-7.61H213z"/>
	<path class="st0" d="M218.53,15.64v3.35h1.98v1.58h-1.98v6.03h-2.02v-6.03h-1.31v-1.58h1.31v-3.35
		C216.51,15.64,218.53,15.64,218.53,15.64z"/>
	<path class="st0" d="M230.01,18.98l-4.91,11.27h-1.98l1.78-3.98l-3.53-7.29h2.27l2.27,5.04l2.27-5.04H230.01z"/>
	<path class="st0" d="M240.25,19.65c0.37-0.32,0.75-0.57,1.14-0.75c0.39-0.17,0.72-0.26,0.98-0.26l-0.09,2.02
		c-0.55-0.05-1.04,0.05-1.48,0.3c-0.43,0.25-0.77,0.58-1.01,1.01s-0.36,0.88-0.36,1.36v3.28h-2.02V19h1.82l0.14,1.76
		C239.59,20.34,239.88,19.97,240.25,19.65z"/>
	<path class="st0" d="M252.21,18.98v7.61h-2.02v-1.1c-0.28,0.32-0.65,0.62-1.12,0.89c-0.47,0.27-1.01,0.41-1.64,0.41
		c-0.73,0-1.39-0.15-1.96-0.46c-0.58-0.31-1.03-0.76-1.37-1.36s-0.5-1.33-0.5-2.18c0-0.83,0.17-1.56,0.52-2.19
		c0.35-0.63,0.81-1.12,1.39-1.46c0.58-0.34,1.22-0.51,1.92-0.51c1.24,0,2.16,0.46,2.77,1.37l0.14-1.03h1.87V18.98z M249.39,24.72
		c0.38-0.28,0.64-0.68,0.8-1.2v-1.66c-0.14-0.47-0.42-0.85-0.84-1.13s-0.89-0.43-1.43-0.43c-0.64,0-1.18,0.22-1.62,0.67
		s-0.67,1.02-0.67,1.72c0,0.46,0.11,0.87,0.32,1.24s0.5,0.67,0.86,0.88c0.36,0.22,0.75,0.32,1.17,0.32
		C248.55,25.14,249.01,25,249.39,24.72z"/>
	<path class="st0" d="M263.19,18.97h2.38v1.78h-2.38v5.85h-2.02v-5.85h-3.49v5.85h-2.02v-5.85h-1.3v-1.78h1.3v-2.99
		c0-1.07,0.27-1.9,0.81-2.5s1.31-0.9,2.32-0.9c0.3,0,0.62,0.05,0.97,0.14s0.65,0.22,0.9,0.39l-0.85,1.46
		c-0.2-0.22-0.47-0.32-0.81-0.32c-0.89,0-1.33,0.6-1.33,1.8v2.93h3.49v-2.99c0-1.07,0.27-1.9,0.81-2.5s1.31-0.9,2.32-0.9
		c0.3,0,0.62,0.05,0.97,0.14s0.65,0.22,0.9,0.39l-0.85,1.46c-0.2-0.22-0.47-0.32-0.81-0.32c-0.89,0-1.33,0.6-1.33,1.8v2.91H263.19z
		 M269.74,12.56V26.6h-2.02V12.56H269.74z"/>
	<path class="st0" d="M277.89,24.47l0.92,1.49c-0.41,0.25-0.85,0.45-1.31,0.6c-0.47,0.15-0.92,0.23-1.35,0.23
		c-0.88,0-1.64-0.17-2.28-0.52c-0.64-0.35-1.13-0.83-1.48-1.44c-0.34-0.61-0.51-1.31-0.51-2.11c0-0.74,0.19-1.43,0.58-2.05
		s0.91-1.12,1.57-1.49c0.66-0.37,1.38-0.55,2.16-0.55c1.03,0,1.89,0.3,2.57,0.91s1.14,1.46,1.37,2.56l-5.87,1.98
		c0.2,0.31,0.47,0.55,0.81,0.72c0.33,0.17,0.71,0.25,1.12,0.25C276.74,25.07,277.32,24.87,277.89,24.47z M274.46,20.89
		c-0.4,0.44-0.6,1.02-0.6,1.73c0,0.13,0.01,0.23,0.02,0.31l4-1.42c-0.16-0.37-0.38-0.68-0.68-0.92s-0.69-0.36-1.17-0.36
		C275.38,20.23,274.86,20.45,274.46,20.89z"/>
	<path class="st0" d="M290.62,15.64v3.35h1.98v1.58h-1.98v6.03h-2.02v-6.03h-1.31v-1.58h1.31v-3.35
		C288.6,15.64,290.62,15.64,290.62,15.64z"/>
	<path class="st0" d="M294.49,20.64c0.37-0.62,0.87-1.11,1.52-1.47c0.65-0.35,1.39-0.53,2.21-0.53s1.56,0.18,2.21,0.53
		c0.64,0.35,1.14,0.84,1.49,1.46c0.35,0.62,0.52,1.31,0.52,2.08s-0.17,1.46-0.52,2.08c-0.35,0.62-0.84,1.11-1.49,1.47
		c-0.64,0.36-1.38,0.54-2.22,0.54c-0.82,0-1.55-0.17-2.2-0.5c-0.65-0.33-1.16-0.8-1.52-1.42s-0.55-1.34-0.55-2.17
		C293.95,21.95,294.13,21.26,294.49,20.64z M296.61,24.45c0.42,0.46,0.94,0.69,1.57,0.69c0.65,0,1.18-0.23,1.59-0.68
		s0.62-1.03,0.62-1.73c0-0.7-0.21-1.27-0.62-1.74c-0.41-0.46-0.95-0.69-1.59-0.69c-0.62,0-1.15,0.24-1.57,0.71s-0.63,1.05-0.63,1.72
		C295.98,23.41,296.19,23.98,296.61,24.45z"/>
	<path class="st0" d="M320.87,18.98l-3.47,8.06l-2.45-5.15l-2.23,5.15l-3.51-8.06h1.98l1.76,4.05l1.28-2.92l-0.52-1.13h1.75
		l1.8,4.18l1.64-4.18H320.87z"/>
	<path class="st0" d="M322.8,15.5c0.24-0.21,0.51-0.32,0.81-0.32c0.29,0,0.55,0.11,0.78,0.32s0.35,0.46,0.35,0.76
		c0,0.3-0.12,0.55-0.35,0.76s-0.5,0.31-0.78,0.31c-0.3,0-0.57-0.1-0.81-0.31c-0.24-0.2-0.36-0.46-0.36-0.76S322.56,15.71,322.8,15.5
		z M324.55,18.98v7.61h-2.02v-7.61H324.55z"/>
	<path class="st0" d="M334.06,19.3c0.47,0.43,0.72,0.97,0.73,1.65v5.65h-2.02v-4.93c-0.02-0.4-0.14-0.71-0.35-0.94
		c-0.21-0.23-0.53-0.35-0.95-0.36c-0.62,0-1.14,0.27-1.54,0.8s-0.6,1.21-0.6,2.04v3.38h-2.02v-7.61h1.82l0.14,1.35
		c0.28-0.53,0.68-0.94,1.2-1.23c0.52-0.29,1.13-0.44,1.81-0.44C332.99,18.66,333.58,18.87,334.06,19.3z"/>
</g>
</svg>
