<?xml version="1.0" encoding="utf-8"?>
<!-- Generator: Adobe Illustrator 23.0.0, SVG Export Plug-In . SVG Version: 6.00 Build 0)  -->
<svg version="1.1" id="Layer_1" xmlns="http://www.w3.org/2000/svg" xmlns:xlink="http://www.w3.org/1999/xlink" x="0px" y="0px"
	 viewBox="0 0 468 60" style="enable-background:new 0 0 468 60;" xml:space="preserve">
<style type="text/css">
	.st0{fill:#BB8C54;}
</style>
<g>
	<path class="st0" d="M122.51,40.87c0.37-0.62,0.87-1.11,1.52-1.47c0.65-0.35,1.39-0.53,2.21-0.53s1.56,0.18,2.21,0.53
		c0.64,0.35,1.14,0.84,1.49,1.46s0.52,1.31,0.52,2.08c0,0.77-0.17,1.46-0.52,2.08c-0.35,0.62-0.84,1.11-1.49,1.47
		c-0.64,0.36-1.38,0.54-2.22,0.54c-0.82,0-1.55-0.17-2.2-0.5c-0.65-0.33-1.16-0.8-1.52-1.42s-0.55-1.34-0.55-2.17
		C121.96,42.19,122.14,41.5,122.51,40.87z M124.62,44.68c0.42,0.46,0.94,0.69,1.57,0.69c0.65,0,1.18-0.23,1.59-0.68
		c0.41-0.45,0.62-1.03,0.62-1.73s-0.21-1.27-0.62-1.74c-0.41-0.46-0.95-0.69-1.59-0.69c-0.62,0-1.15,0.24-1.57,0.71
		s-0.63,1.05-0.63,1.72C123.99,43.64,124.2,44.22,124.62,44.68z"/>
	<path class="st0" d="M139.91,39.22v7.61h-1.82l-0.13-1.37c-0.26,0.52-0.65,0.93-1.17,1.23c-0.52,0.31-1.1,0.46-1.76,0.46
		c-0.7,0-1.28-0.21-1.74-0.64s-0.7-0.97-0.71-1.65v-5.65h2.02v4.93c0.04,0.84,0.45,1.27,1.24,1.28c0.59,0,1.08-0.27,1.47-0.81
		s0.58-1.22,0.58-2.03v-3.37h2.02V39.22z"/>
	<path class="st0" d="M145.52,39.88c0.37-0.32,0.75-0.57,1.14-0.75c0.39-0.17,0.72-0.26,0.98-0.26l-0.09,2.02
		c-0.55-0.05-1.04,0.05-1.48,0.3c-0.43,0.25-0.77,0.58-1.01,1.01s-0.36,0.88-0.36,1.36v3.28h-2.02v-7.61h1.82l0.14,1.76
		C144.86,40.57,145.15,40.21,145.52,39.88z"/>
	<path class="st0" d="M163.84,33.73v2.02h-5.85v3.69h5.09v2h-5.09v5.4h-2.11v-13.1L163.84,33.73L163.84,33.73z"/>
	<path class="st0" d="M173.11,39.22v7.61h-1.82l-0.13-1.37c-0.26,0.52-0.65,0.93-1.17,1.23c-0.52,0.31-1.1,0.46-1.76,0.46
		c-0.7,0-1.28-0.21-1.74-0.64s-0.7-0.97-0.71-1.65v-5.65h2.02v4.93c0.04,0.84,0.45,1.27,1.24,1.28c0.59,0,1.08-0.27,1.47-0.81
		s0.58-1.22,0.58-2.03v-3.37h2.02V39.22z"/>
	<path class="st0" d="M176.53,46.68c-0.52-0.21-0.95-0.51-1.29-0.89l0.85-1.13c0.64,0.62,1.28,0.94,1.94,0.94
		c0.36,0,0.66-0.07,0.89-0.21s0.35-0.34,0.35-0.62c0-0.29-0.12-0.5-0.36-0.65c-0.24-0.14-0.51-0.26-0.8-0.35
		c-0.29-0.09-0.48-0.15-0.57-0.17c-0.66-0.2-1.15-0.5-1.48-0.89s-0.49-0.85-0.49-1.38c0-0.42,0.11-0.81,0.32-1.18
		s0.53-0.66,0.95-0.89c0.43-0.23,0.95-0.34,1.56-0.34c0.58,0,1.08,0.07,1.5,0.2s0.83,0.34,1.2,0.63l-0.77,1.21
		c-0.22-0.2-0.48-0.37-0.78-0.49c-0.31-0.12-0.58-0.18-0.84-0.18c-0.31,0-0.57,0.07-0.77,0.22c-0.2,0.14-0.31,0.33-0.31,0.56
		c-0.01,0.28,0.09,0.48,0.31,0.62s0.56,0.29,1.04,0.44c0.2,0.06,0.34,0.1,0.4,0.13c0.6,0.19,1.07,0.46,1.4,0.8s0.5,0.79,0.5,1.34
		c0,0.74-0.27,1.37-0.8,1.86s-1.3,0.75-2.29,0.75C177.6,46.99,177.05,46.89,176.53,46.68z"/>
	<path class="st0" d="M183.79,35.73c0.24-0.21,0.51-0.32,0.81-0.32c0.29,0,0.55,0.11,0.78,0.32s0.35,0.46,0.35,0.76
		s-0.12,0.55-0.35,0.76s-0.5,0.31-0.78,0.31c-0.3,0-0.57-0.1-0.81-0.31c-0.24-0.2-0.36-0.46-0.36-0.76S183.55,35.94,183.79,35.73z
		 M185.54,39.22v7.61h-2.02v-7.61H185.54z"/>
	<path class="st0" d="M188.22,40.87c0.37-0.62,0.87-1.11,1.52-1.47c0.65-0.35,1.39-0.53,2.21-0.53s1.56,0.18,2.21,0.53
		c0.64,0.35,1.14,0.84,1.49,1.46s0.52,1.31,0.52,2.08c0,0.77-0.17,1.46-0.52,2.08c-0.35,0.62-0.84,1.11-1.49,1.47
		c-0.64,0.36-1.38,0.54-2.22,0.54c-0.82,0-1.55-0.17-2.2-0.5s-1.16-0.8-1.52-1.42s-0.55-1.34-0.55-2.17
		C187.68,42.19,187.86,41.5,188.22,40.87z M190.34,44.68c0.42,0.46,0.94,0.69,1.57,0.69c0.65,0,1.18-0.23,1.59-0.68
		s0.62-1.03,0.62-1.73s-0.21-1.27-0.62-1.74c-0.41-0.46-0.95-0.69-1.59-0.69c-0.62,0-1.15,0.24-1.57,0.71s-0.63,1.05-0.63,1.72
		C189.71,43.64,189.92,44.22,190.34,44.68z"/>
	<path class="st0" d="M205.04,39.53c0.47,0.43,0.72,0.97,0.73,1.65v5.65h-2.02V41.9c-0.02-0.4-0.14-0.71-0.35-0.94
		s-0.53-0.35-0.95-0.36c-0.62,0-1.14,0.27-1.54,0.8s-0.6,1.21-0.6,2.04v3.38h-2.02v-7.61h1.82l0.14,1.35
		c0.28-0.53,0.68-0.94,1.2-1.23s1.13-0.44,1.81-0.44C203.97,38.89,204.56,39.1,205.04,39.53z"/>
	<path class="st0" d="M225.39,47.41l-3.1-7.81l-3.47,7.85l-5.24-13.64h2.45l3.06,8.75l2.18-5.58L220,33.8h2.07l3.37,8.5l2.81-8.5
		h2.25L225.39,47.41z"/>
	<path class="st0" d="M238.87,39.22v7.61h-2.02v-1.1c-0.28,0.32-0.65,0.62-1.12,0.89s-1.01,0.41-1.64,0.41
		c-0.73,0-1.39-0.15-1.96-0.46c-0.58-0.31-1.03-0.76-1.37-1.36c-0.34-0.6-0.5-1.33-0.5-2.18c0-0.83,0.17-1.56,0.52-2.19
		c0.35-0.63,0.81-1.12,1.39-1.46s1.22-0.51,1.92-0.51c1.24,0,2.16,0.46,2.77,1.37l0.14-1.03L238.87,39.22L238.87,39.22z
		 M236.05,44.95c0.38-0.28,0.64-0.68,0.8-1.2V42.1c-0.14-0.47-0.42-0.85-0.84-1.13s-0.89-0.43-1.43-0.43
		c-0.64,0-1.18,0.22-1.62,0.67c-0.44,0.45-0.67,1.02-0.67,1.72c0,0.46,0.11,0.87,0.32,1.24s0.5,0.67,0.86,0.88
		c0.36,0.22,0.75,0.32,1.17,0.32C235.21,45.37,235.67,45.23,236.05,44.95z"/>
	<path class="st0" d="M244.41,35.87v3.35h1.98v1.58h-1.98v6.03h-2.02V40.8h-1.31v-1.58h1.31v-3.35H244.41z"/>
	<path class="st0" d="M253.75,44.71l0.92,1.49c-0.41,0.25-0.85,0.45-1.31,0.6c-0.47,0.15-0.92,0.23-1.35,0.23
		c-0.88,0-1.64-0.17-2.28-0.52c-0.64-0.35-1.13-0.83-1.48-1.44c-0.34-0.61-0.51-1.31-0.51-2.11c0-0.74,0.19-1.43,0.58-2.05
		s0.91-1.12,1.57-1.49c0.66-0.37,1.38-0.55,2.16-0.55c1.03,0,1.89,0.3,2.57,0.91c0.68,0.61,1.14,1.46,1.37,2.56l-5.87,1.98
		c0.2,0.31,0.47,0.55,0.81,0.72c0.33,0.17,0.71,0.25,1.12,0.25C252.61,45.3,253.18,45.1,253.75,44.71z M250.32,41.12
		c-0.4,0.44-0.6,1.02-0.6,1.73c0,0.13,0.01,0.23,0.02,0.31l4-1.42c-0.16-0.37-0.38-0.68-0.68-0.92c-0.3-0.24-0.69-0.36-1.17-0.36
		C251.24,40.46,250.73,40.68,250.32,41.12z"/>
	<path class="st0" d="M260.79,39.88c0.37-0.32,0.75-0.57,1.14-0.75c0.39-0.17,0.72-0.26,0.98-0.26l-0.09,2.02
		c-0.55-0.05-1.04,0.05-1.48,0.3c-0.43,0.25-0.77,0.58-1.01,1.01s-0.36,0.88-0.36,1.36v3.28h-2.02v-7.61h1.82l0.14,1.76
		C260.13,40.57,260.42,40.21,260.79,39.88z"/>
	<path class="st0" d="M279.12,33.73v2.02h-5.85v3.69h5.09v2h-5.09v5.4h-2.11v-13.1L279.12,33.73L279.12,33.73z"/>
	<path class="st0" d="M285.94,44.71l0.92,1.49c-0.41,0.25-0.85,0.45-1.31,0.6c-0.47,0.15-0.92,0.23-1.35,0.23
		c-0.88,0-1.64-0.17-2.28-0.52c-0.64-0.35-1.13-0.83-1.48-1.44c-0.34-0.61-0.51-1.31-0.51-2.11c0-0.74,0.19-1.43,0.58-2.05
		s0.91-1.12,1.57-1.49c0.66-0.37,1.38-0.55,2.16-0.55c1.03,0,1.89,0.3,2.57,0.91s1.14,1.46,1.37,2.56l-5.87,1.98
		c0.2,0.31,0.47,0.55,0.81,0.72c0.33,0.17,0.71,0.25,1.12,0.25C284.79,45.3,285.36,45.1,285.94,44.71z M282.51,41.12
		c-0.4,0.44-0.6,1.02-0.6,1.73c0,0.13,0.01,0.23,0.02,0.31l4-1.42c-0.16-0.37-0.38-0.68-0.68-0.92c-0.3-0.24-0.69-0.36-1.17-0.36
		C283.43,40.46,282.91,40.68,282.51,41.12z"/>
	<path class="st0" d="M298.12,39.22v7.61h-2.02v-1.1c-0.28,0.32-0.65,0.62-1.12,0.89s-1.01,0.41-1.64,0.41
		c-0.73,0-1.39-0.15-1.96-0.46c-0.58-0.31-1.03-0.76-1.37-1.36c-0.34-0.6-0.5-1.33-0.5-2.18c0-0.83,0.17-1.56,0.52-2.19
		c0.35-0.63,0.81-1.12,1.39-1.46c0.58-0.34,1.22-0.51,1.92-0.51c1.24,0,2.16,0.46,2.77,1.37l0.14-1.03L298.12,39.22L298.12,39.22z
		 M295.31,44.95c0.38-0.28,0.64-0.68,0.8-1.2V42.1c-0.14-0.47-0.42-0.85-0.84-1.13s-0.89-0.43-1.43-0.43
		c-0.64,0-1.18,0.22-1.62,0.67c-0.44,0.45-0.67,1.02-0.67,1.72c0,0.46,0.11,0.87,0.32,1.24s0.5,0.67,0.86,0.88
		c0.36,0.22,0.75,0.32,1.17,0.32C294.46,45.37,294.93,45.23,295.31,44.95z"/>
	<path class="st0" d="M303.67,35.87v3.35h1.98v1.58h-1.98v6.03h-2.02V40.8h-1.31v-1.58h1.31v-3.35H303.67z"/>
	<path class="st0" d="M314.95,39.22v7.61h-1.82L313,45.46c-0.26,0.52-0.65,0.93-1.17,1.23c-0.52,0.31-1.1,0.46-1.76,0.46
		c-0.7,0-1.28-0.21-1.74-0.64s-0.7-0.97-0.71-1.65v-5.65h2.02v4.93c0.04,0.84,0.45,1.27,1.24,1.28c0.59,0,1.08-0.27,1.47-0.81
		s0.58-1.22,0.58-2.03v-3.37h2.02V39.22z"/>
	<path class="st0" d="M320.57,39.88c0.37-0.32,0.75-0.57,1.14-0.75c0.39-0.17,0.72-0.26,0.98-0.26l-0.09,2.02
		c-0.55-0.05-1.04,0.05-1.48,0.3c-0.43,0.25-0.77,0.58-1.01,1.01s-0.36,0.88-0.36,1.36v3.28h-2.02v-7.61h1.82l0.14,1.76
		C319.91,40.57,320.2,40.21,320.57,39.88z"/>
	<path class="st0" d="M329.8,44.71l0.92,1.49c-0.41,0.25-0.85,0.45-1.31,0.6c-0.47,0.15-0.92,0.23-1.35,0.23
		c-0.88,0-1.64-0.17-2.28-0.52c-0.64-0.35-1.13-0.83-1.48-1.44c-0.34-0.61-0.51-1.31-0.51-2.11c0-0.74,0.19-1.43,0.58-2.05
		s0.91-1.12,1.57-1.49c0.66-0.37,1.38-0.55,2.16-0.55c1.03,0,1.89,0.3,2.57,0.91s1.14,1.46,1.37,2.56l-5.87,1.98
		c0.2,0.31,0.47,0.55,0.81,0.72c0.33,0.17,0.71,0.25,1.12,0.25C328.66,45.3,329.23,45.1,329.8,44.71z M326.37,41.12
		c-0.4,0.44-0.6,1.02-0.6,1.73c0,0.13,0.01,0.23,0.02,0.31l4-1.42c-0.16-0.37-0.38-0.68-0.68-0.92c-0.3-0.24-0.69-0.36-1.17-0.36
		C327.29,40.46,326.78,40.68,326.37,41.12z"/>
</g>
</svg>
