<?xml version="1.0" encoding="utf-8"?>
<!-- Generator: Adobe Illustrator 25.3.1, SVG Export Plug-In . SVG Version: 6.00 Build 0)  -->
<svg version="1.1" id="Layer_1" xmlns="http://www.w3.org/2000/svg" xmlns:xlink="http://www.w3.org/1999/xlink" x="0px" y="0px"
	 viewBox="0 0 728 90" style="enable-background:new 0 0 728 90;" xml:space="preserve">
<style type="text/css">
	.st0{fill:#FFFFFF;}
	.st1{fill:#FF3008;}
	.st2{clip-path:url(#SVGID_2_);}
	.st3{clip-path:url(#SVGID_4_);}
</style>
<polygon class="st0" points="728,90 590.6,90 539.5,0 728,0 "/>
<path class="st1" d="M620.5,21.1c2.9-0.1,5.4,2.1,5.5,5.1c0.1,2.9-2.1,5.4-5.1,5.5c-0.2,0-0.3,0-0.5,0h-3.7c-0.1,0-0.3-0.1-0.3-0.3
	c0,0,0,0,0,0V21.4c0-0.1,0.1-0.3,0.3-0.3c0,0,0,0,0,0H620.5z M618.8,23.2v6.5h1.7c1.8,0,3.2-1.5,3.2-3.3c0,0,0,0,0,0
	c0-1.8-1.3-3.2-3.1-3.3c0,0-0.1,0-0.1,0H618.8z"/>
<path class="st1" d="M634,20.9c3.1,0.1,5.4,2.7,5.3,5.8s-2.7,5.4-5.8,5.3c-3-0.1-5.3-2.6-5.3-5.5C628.3,23.3,630.8,20.9,634,20.9
	C634,20.9,634,20.9,634,20.9 M634,29.9c1.9,0,3.5-1.6,3.5-3.5s-1.6-3.5-3.5-3.5c-1.9,0-3.5,1.6-3.5,3.5c0,0,0,0,0,0
	C630.5,28.4,632.1,29.9,634,29.9C634,29.9,634,29.9,634,29.9"/>
<path class="st1" d="M647.7,20.9c3.1,0.1,5.4,2.7,5.3,5.8s-2.7,5.4-5.8,5.3c-3-0.1-5.3-2.6-5.3-5.5C642,23.3,644.5,20.9,647.7,20.9
	C647.6,20.9,647.6,20.9,647.7,20.9 M647.7,29.9c1.9,0,3.5-1.6,3.5-3.5c0-1.9-1.6-3.5-3.5-3.5c-1.9,0-3.5,1.6-3.5,3.5c0,0,0,0,0,0
	C644.2,28.4,645.7,29.9,647.7,29.9"/>
<path class="st1" d="M656.4,21.4c0-0.2,0.1-0.3,0.3-0.3l0,0h4.4c1.9-0.1,3.6,1.4,3.6,3.3c0,0.1,0,0.1,0,0.2c0,1.3-0.7,2.5-1.9,3.1
	l2,3.6c0.1,0.1,0,0.3-0.1,0.4c0,0-0.1,0-0.1,0h-1.8c-0.1,0-0.2,0-0.2-0.1l-2-3.6h-2v3.4c0,0.2-0.1,0.3-0.3,0.3h-1.7
	c-0.2,0-0.3-0.1-0.3-0.3L656.4,21.4z M661.1,23.2h-2.3V26h2.3c0.8,0,1.4-0.5,1.4-1.3c0,0,0,0,0-0.1c0-0.8-0.6-1.4-1.3-1.4
	C661.1,23.2,661.1,23.2,661.1,23.2"/>
<path class="st1" d="M672.4,21.2c2.9-0.1,5.4,2.1,5.5,5.1s-2.1,5.4-5.1,5.5c-0.2,0-0.3,0-0.5,0h-3.7c-0.2,0-0.3-0.1-0.3-0.3V21.5
	c0-0.2,0.1-0.3,0.3-0.3l0,0L672.4,21.2z M670.7,23.2v6.5h1.7c1.8,0,3.2-1.5,3.2-3.3c0-1.8-1.3-3.2-3.1-3.3c0,0-0.1,0-0.1,0H670.7z"
	/>
<path class="st1" d="M682.7,29.2l-0.8,2.3c0,0.1-0.1,0.2-0.3,0.2h-1.8c-0.1,0-0.3-0.1-0.3-0.3c0,0,0-0.1,0-0.1l4-10.1
	c0-0.1,0.1-0.2,0.3-0.2h2c0.1,0,0.2,0.1,0.2,0.2l4,10.1c0.1,0.1,0,0.3-0.2,0.4c0,0-0.1,0-0.1,0h-1.9c-0.1,0-0.2-0.1-0.3-0.2
	l-0.8-2.3H682.7z M684.7,23.8l-1.3,3.5h2.6L684.7,23.8z"/>
<path class="st1" d="M692.1,24c0-1.7,1.4-3.1,3.7-3.1c1.2,0,2.4,0.4,3.3,1.2c0.1,0.1,0.1,0.3,0,0.4l-1,1c-0.1,0.1-0.3,0.1-0.4,0
	c-0.5-0.4-1.1-0.7-1.8-0.7c-0.9,0-1.6,0.5-1.6,1.1c0,2,5.4,0.8,5.4,4.6c0,1.9-1.4,3.3-4,3.3c-1.4,0-2.8-0.5-3.8-1.5
	c-0.1-0.1-0.1-0.3,0-0.4l1-1c0.1-0.1,0.3-0.1,0.4,0c0.6,0.6,1.4,0.9,2.3,1c1.1,0,1.9-0.6,1.9-1.4C697.5,26.6,692.2,27.7,692.1,24"/>
<path class="st1" d="M709.5,21.4v4H705v-4c0-0.1-0.1-0.3-0.3-0.3l0,0H703c-0.1,0-0.3,0.1-0.3,0.3c0,0,0,0,0,0v10.1
	c0,0.1,0.1,0.3,0.3,0.3c0,0,0,0,0,0h1.7c0.1,0,0.3-0.1,0.3-0.3c0,0,0,0,0,0v-4h4.5v4c0,0.2,0.1,0.3,0.3,0.3h1.7
	c0.2,0,0.3-0.1,0.3-0.3V21.4c0-0.2-0.1-0.3-0.3-0.3h-1.7C709.6,21.1,709.5,21.2,709.5,21.4"/>
<path class="st1" d="M607.6,22.5c-1.2-2.2-3.4-3.5-5.9-3.5H583c-0.4,0-0.6,0.3-0.6,0.7c0,0.2,0.1,0.3,0.2,0.4l4.1,4.1
	c0.4,0.4,0.8,0.6,1.4,0.6h13.2c0.9,0,1.7,0.8,1.7,1.7c0,0.9-0.8,1.7-1.7,1.7c0,0,0,0,0,0h-9c-0.4,0-0.6,0.3-0.6,0.6
	c0,0.2,0.1,0.3,0.2,0.4l4.1,4.1c0.4,0.4,0.9,0.6,1.4,0.6h4.1c4.2,0,7.5-3.5,7.5-7.6C608.6,25,608.3,23.7,607.6,22.5"/>
<g>
	<defs>
		<rect id="SVGID_1_" x="635" y="38.1" width="79.9" height="37.5"/>
	</defs>
	<clipPath id="SVGID_2_">
		<use xlink:href="#SVGID_1_"  style="overflow:visible;"/>
	</clipPath>
	<g class="st2">
		<g>
			<defs>
				<rect id="SVGID_3_" x="635" y="38.1" width="79.9" height="37.5"/>
			</defs>
			<clipPath id="SVGID_4_">
				<use xlink:href="#SVGID_3_"  style="overflow:visible;"/>
			</clipPath>
			<g class="st3">
				<path d="M654.9,57.1L654.9,57.1l-1.6,0.7l-0.3,2l0.8,0.1l-1.4,0.4c-0.1,0-0.1,0-0.1-0.1c0,0,0,0,0-0.1l0.4-2.3
					c0-0.1,0.1-0.2,0.2-0.2L654.9,57.1z M650.2,49.8h7.8v2c-1.2,0.1-2.4,0.4-3.5,0.8c-2.8,1-3.7,1.9-3.9,2.6c-0.1,0.3,0,0.5,0.2,0.7
					l1,1.2c0-1.1,2.3-1.3,4-1.3c1.2,0,2.1,0.1,2.1,0.1l-1.3-1c1.1-0.5,2.3-0.8,3.5-1.1c-1.5-0.6-3.2-0.6-4.8,0
					c0.6-0.7,3.2-1.6,4.8-1.9v-4.3h-10L650.2,49.8z M650.2,73.8l7.5-4.3c1.6-0.9,2.6-2.6,2.5-4.5v-8l-2.4,1.6l1.1,2.1
					c0.1,0.2,0,0.4-0.1,0.5l-6.9,6.2c-0.1,0-0.1,0.1-0.1,0.1l6.2-3.5V65c0,0.6-0.1,1.2-0.5,1.7c-0.3,0.4-0.6,0.7-1,0.9l-6.4,3.7
					L650.2,73.8z M655.5,58.5l2.5-1.7l0,0l-3.6,1.6c-0.1,0.1-0.2,0.2-0.1,0.4c0,0,0,0,0,0l1,2l-1.7,1.5v1.7l3-2.8
					c0.1-0.1,0.1-0.3,0.1-0.4L655.5,58.5z"/>
				<path d="M647.7,57.8c0.1,0,0.1,0.1,0.2,0.2l0.4,2.3c0,0.1,0,0.1-0.1,0.1c0,0,0,0-0.1,0l-1.4-0.4l0.8-0.1l-0.3-2l-1.6-0.7l0,0
					L647.7,57.8z M650.2,47.5h-10v4.3c1.6,0.3,4.2,1.2,4.8,1.9c-1.5-0.6-3.2-0.6-4.8,0c1.2,0.3,2.4,0.6,3.5,1.1l-1.3,1
					c0,0,1-0.1,2.1-0.1c1.8,0,4,0.2,4,1.3l1-1.2c0.2-0.2,0.3-0.5,0.2-0.7c-0.2-0.7-1.1-1.7-3.9-2.6c-1.1-0.4-2.3-0.6-3.5-0.8v-2h7.8
					L650.2,47.5z M650.2,71.3l-6.4-3.7c-0.4-0.2-0.7-0.5-1-0.9c-0.3-0.5-0.5-1.1-0.5-1.7v-0.9l6.2,3.5c0,0,0,0-0.1-0.1l-6.9-6.2
					c-0.1-0.1-0.2-0.3-0.1-0.5l1.1-2.2l-2.4-1.6v8c-0.1,1.9,0.9,3.6,2.5,4.5l7.5,4.3L650.2,71.3z M643.8,60.7
					c-0.1,0.1-0.1,0.3,0.1,0.4l3,2.8v-1.7l-1.7-1.5l1-2c0.1-0.1,0-0.3-0.1-0.4c0,0,0,0,0,0l-3.6-1.6l0,0l2.6,1.7L643.8,60.7z"/>
				<path d="M651.2,43.9h-0.5v0.7h0.5c0.3,0,0.5-0.1,0.5-0.4S651.5,43.9,651.2,43.9"/>
				<polygon points="643.7,44.9 643.7,43.9 643.2,44.9 				"/>
				<path d="M654.5,43.9c-0.4,0-0.7,0.2-0.7,0.6c0,0,0,0,0,0.1c0,0.4,0.3,0.7,0.7,0.7c0.4,0,0.7-0.3,0.7-0.7
					C655.2,44.2,655,43.9,654.5,43.9C654.6,43.9,654.6,43.9,654.5,43.9"/>
				<path d="M640.2,46.4h20.1v-3.7h-20.1V46.4z M644.7,45.9h-0.9v-0.4h-0.9l-0.3,0.4h-1.1l1.8-2.7h1.4L644.7,45.9z M648.3,45.9
					l-0.2-1.9l-0.5,1.8h-1l-0.5-1.8l-0.1,1.8h-0.9l0.3-2.7h1.4l0.4,1.5l0.4-1.5h1.4l0.3,2.7H648.3z M651.4,45.2h-0.7v0.7h-1v-2.7
					h1.8c0.5-0.1,1,0.3,1,0.8c0,0.1,0,0.1,0,0.2C652.6,44.8,652.2,45.2,651.4,45.2 M654.5,46c-0.8,0.1-1.6-0.5-1.7-1.3
					c0,0,0-0.1,0-0.1c0-0.8,0.7-1.4,1.7-1.4s1.7,0.6,1.7,1.4c0,0.8-0.8,1.5-1.6,1.5C654.6,46,654.6,46,654.5,46 M659,45.9h-2.4v-2.7
					h0.9v1.9h1.5L659,45.9z"/>
				<path d="M667.8,51h-1.4l-0.2,0.8h-1l1.5-4.1h0.9l1.5,4.1h-1L667.8,51z M667.6,50.2l-0.4-1.4l-0.4,1.4H667.6z"/>
				<polygon points="673.8,51.8 672.8,51.8 672.8,50.8 672.9,48.8 671.9,50.9 671.3,50.9 670.3,48.8 670.4,50.8 670.4,51.8 
					669.4,51.8 669.4,47.7 670.7,47.7 671.6,49.7 672.5,47.7 673.8,47.7 				"/>
				<path d="M677.6,49.1c0,0.8-0.6,1.3-1.6,1.3h-0.7v1.4h-1v-4.1h1.6c0.8-0.1,1.5,0.5,1.6,1.2C677.6,49,677.6,49,677.6,49.1
					 M676.6,49.1c0-0.3-0.2-0.6-0.5-0.6c0,0-0.1,0-0.1,0h-0.7v1.1h0.7C676.4,49.6,676.6,49.4,676.6,49.1"/>
				<path d="M679.8,51.8c-1,0-1.8-0.8-1.8-1.8c0-0.1,0-0.1,0-0.2v-0.2c-0.1-1,0.6-1.9,1.5-2s1.9,0.6,2,1.5c0,0.2,0,0.3,0,0.5v0.2
					c0.1,1-0.6,1.9-1.6,2C679.9,51.8,679.9,51.8,679.8,51.8 M679.8,48.4c-0.5,0-0.8,0.4-0.8,1.2v0.2c0,0.8,0.3,1.2,0.8,1.2
					s0.8-0.4,0.8-1.2v-0.2C680.6,48.8,680.3,48.4,679.8,48.4"/>
				<polygon points="684.8,51 684.8,51.8 682.1,51.8 682.1,47.7 683.1,47.7 683.1,51 				"/>
				<path d="M686.5,48.8c0-0.7,0.7-1.2,1.5-1.2s1.5,0.5,1.5,1.3h-1c0-0.3-0.2-0.5-0.6-0.5s-0.6,0.2-0.6,0.4s0.3,0.4,0.8,0.5
					c0.9,0.3,1.4,0.7,1.4,1.3s-0.6,1.2-1.5,1.2s-1.7-0.4-1.7-1.4h1c0,0.5,0.3,0.6,0.7,0.6s0.5-0.2,0.5-0.4s-0.1-0.4-0.7-0.6
					S686.5,49.5,686.5,48.8"/>
				<polygon points="693.3,48.5 692.1,48.5 692.1,51.8 691.1,51.8 691.1,48.5 689.9,48.5 689.9,47.7 693.3,47.7 				"/>
				<path d="M695.7,51h-1.4l-0.2,0.8h-1l1.5-4.1h0.9l1.5,4.1h-1L695.7,51z M695.4,50.2l-0.4-1.4l-0.4,1.4L695.4,50.2z"/>
				<polygon points="700.1,48.5 698.8,48.5 698.8,51.8 697.9,51.8 697.9,48.5 696.7,48.5 696.7,47.7 700.1,47.7 				"/>
				<polygon points="701.5,48.5 701.5,49.3 703,49.3 703,50 701.5,50 701.5,51 703.3,51 703.3,51.8 700.5,51.8 700.5,47.7 
					703.3,47.7 703.3,48.5 				"/>
				<path d="M706.8,51.8c-1,0-1.8-0.8-1.8-1.8c0-0.1,0-0.1,0-0.2v-0.2c-0.1-1,0.6-1.9,1.5-2s1.9,0.6,2,1.5c0,0.2,0,0.3,0,0.5v0.2
					c0.1,1-0.6,1.9-1.6,2C706.9,51.8,706.9,51.8,706.8,51.8 M706.8,48.4c-0.5,0-0.8,0.4-0.8,1.2v0.2c0,0.8,0.3,1.2,0.8,1.2
					s0.8-0.4,0.8-1.2v-0.2C707.6,48.8,707.3,48.4,706.8,48.4"/>
				<polygon points="710,48.5 710,49.4 711.6,49.4 711.6,50.2 710,50.2 710,51.8 709.1,51.8 709.1,47.7 711.8,47.7 711.8,48.5 				
					"/>
				<path d="M669.6,53.8c-2.6,0-4.5,1.9-4.5,5.1v0.4c0,3.2,1.8,5.1,4.5,5.1s4.4-1.9,4.4-5.1v-0.4C674.1,55.8,672.2,53.8,669.6,53.8
					 M671.6,59.3c0,2-0.7,3.1-2,3.1s-2-1.1-2-3.1v-0.4c0-2,0.7-3.1,2-3.1s2,1.1,2,3.1V59.3z"/>
				<path d="M683.3,57.1c0-2-1.5-3.1-3.8-3.1h-4v10.2h2.4v-3.6h1.4l1.8,3.6h2.6v-0.1l-2.1-4.1C682.7,59.5,683.4,58.4,683.3,57.1
					 M679.4,58.7h-1.5v-2.8h1.6c0.8,0,1.4,0.6,1.4,1.4C680.8,58,680.2,58.7,679.4,58.7"/>
				<rect x="684.9" y="54" width="2.4" height="10.2"/>
				<path d="M693.3,60.4h1.7V62c-0.4,0.3-0.9,0.5-1.5,0.4c-1.5,0-2.2-1-2.2-3v-0.6c0-2,0.7-3,2-3c0.8-0.1,1.6,0.5,1.7,1.3
					c0,0.1,0,0.1,0,0.2h2.3c-0.2-2.1-1.4-3.5-4.2-3.5c-2.6,0-4.4,1.8-4.4,5v0.5c0,3.2,1.8,5,4.5,5c1.5,0.1,2.9-0.4,4-1.4v-4.3h-4.2
					V60.4z"/>
				<rect x="699.1" y="54" width="2.4" height="10.2"/>
				<polygon points="709.4,54 709.4,58.2 709.6,60.6 705.7,54 703.3,54 703.3,64.2 705.7,64.2 705.7,60 705.5,57.6 709.4,64.2 
					711.8,64.2 711.8,54 				"/>
			</g>
		</g>
	</g>
</g>
</svg>
