<?xml version="1.0" encoding="utf-8"?>
<!-- Generator: Adobe Illustrator 23.0.0, SVG Export Plug-In . SVG Version: 6.00 Build 0)  -->
<svg version="1.1" id="Layer_1" xmlns="http://www.w3.org/2000/svg" xmlns:xlink="http://www.w3.org/1999/xlink" x="0px" y="0px"
	 viewBox="0 0 300 250" style="enable-background:new 0 0 300 250;" xml:space="preserve">
<style type="text/css">
	.st0{fill:#F07F2B;}
</style>
<g id="copy2">
	<g>
		<path class="st0" d="M54,126.5c-0.6-0.8-1.3-1.4-2.2-2c-0.1-0.1-0.2-0.1-0.3-0.2c0.8-0.5,1.5-1.1,2.1-1.9c1.1-1.5,1.6-3.3,1.6-5.3
			c0-1.7-0.3-3.3-1-4.6c-0.7-1.3-1.6-2.3-2.7-3.2c-1.1-0.8-2.4-1.4-3.9-1.8c-1.4-0.4-2.9-0.6-4.5-0.6c-1.5,0-2.9,0.2-4.2,0.5
			c-1.4,0.3-2.6,0.8-3.7,1.5c-1.1,0.7-2.1,1.6-2.9,2.7c-0.8,1.1-1.4,2.4-1.8,4l-0.3,1l9.7,2l0.2-0.9c0.2-0.7,0.5-1.2,1.1-1.6
			c0.5-0.4,1.2-0.7,2-0.7c0.9,0,1.7,0.2,2.3,0.7s0.8,1,0.8,1.7c0,0.6-0.1,1-0.3,1.3s-0.5,0.6-0.8,0.8c-0.4,0.2-0.9,0.4-1.4,0.4
			c-0.6,0.1-1.2,0.1-1.8,0.1h-3.3v8.1h2.6c0.7,0,1.5,0,2.3,0.1c0.7,0,1.3,0.2,1.8,0.4c0.4,0.2,0.8,0.4,1.1,0.8
			c0.2,0.3,0.4,0.8,0.4,1.5c0,1-0.3,1.8-0.8,2.4c-0.5,0.6-1.4,0.9-2.6,0.9c-1.2,0-2.1-0.3-2.7-0.8c-0.6-0.5-1-1.3-1.2-2.2l-0.2-1
			l-9.3,2.2l0.2,1c0.7,3.2,2.3,5.6,4.6,7.1s5,2.2,8.1,2.2c1.7,0,3.3-0.2,4.8-0.6c1.6-0.4,2.9-1.1,4.1-2c1.2-0.9,2.1-2.1,2.8-3.4
			c0.7-1.4,1.1-3,1.1-4.8c0-1.1-0.2-2.1-0.5-3C55.1,128.1,54.6,127.2,54,126.5z"/>
		<path class="st0" d="M81.6,113.1c-1-1.8-2.4-3.2-4.1-4.4c-1.7-1.1-4-1.7-6.6-1.7s-4.9,0.6-6.6,1.7c-1.7,1.1-3.1,2.6-4.1,4.4
			c-1,1.7-1.6,3.7-2,5.8c-0.4,2.1-0.5,4.1-0.5,6.1s0.2,4.1,0.5,6.1c0.4,2.1,1.1,4.1,2,5.8c1,1.8,2.4,3.2,4.1,4.4
			c1.7,1.1,4,1.7,6.6,1.7s4.9-0.6,6.6-1.7c1.7-1.1,3.1-2.6,4.1-4.4c1-1.7,1.6-3.7,2-5.8s0.5-4.1,0.5-6.1s-0.2-4.1-0.5-6.1
			C83.2,116.8,82.6,114.8,81.6,113.1z M74.5,131.3c-0.3,1-0.8,1.8-1.4,2.4c-0.5,0.6-1.2,0.8-2.2,0.8s-1.7-0.3-2.2-0.8
			c-0.6-0.7-1-1.5-1.3-2.5s-0.5-2.1-0.6-3.3s-0.1-2.2-0.1-3s0-1.9,0.1-3s0.3-2.2,0.6-3.3c0.3-1,0.7-1.8,1.3-2.5
			c0.5-0.6,1.2-0.8,2.2-0.8c0.9,0,1.7,0.3,2.2,0.8c0.6,0.7,1.1,1.5,1.4,2.4c0.3,1,0.5,2.1,0.6,3.2c0.1,1.2,0.1,2.2,0.1,3
			s0,1.9-0.1,3C75,129.2,74.8,130.3,74.5,131.3z"/>
		<path class="st0" d="M109.1,113.1c-1-1.8-2.4-3.2-4.1-4.4c-1.7-1.1-4-1.7-6.6-1.7s-4.9,0.6-6.6,1.7s-3.1,2.6-4.1,4.4
			c-1,1.7-1.6,3.7-2,5.8c-0.4,2.1-0.5,4.1-0.5,6.1s0.2,4.1,0.5,6.1c0.4,2.1,1.1,4.1,2,5.8c1,1.8,2.4,3.2,4.1,4.4
			c1.7,1.1,4,1.7,6.6,1.7s4.9-0.6,6.6-1.7c1.7-1.1,3.1-2.6,4.1-4.4c1-1.7,1.6-3.7,2-5.8s0.5-4.1,0.5-6.1s-0.2-4.1-0.5-6.1
			C110.7,116.8,110,114.8,109.1,113.1z M102,131.3c-0.3,1-0.8,1.8-1.4,2.4c-0.5,0.6-1.2,0.8-2.2,0.8s-1.7-0.3-2.2-0.8
			c-0.6-0.7-1-1.5-1.3-2.5s-0.5-2.1-0.6-3.3s-0.1-2.2-0.1-3s0-1.9,0.1-3s0.3-2.2,0.6-3.3c0.3-1,0.7-1.8,1.3-2.5
			c0.5-0.6,1.2-0.8,2.2-0.8c0.9,0,1.7,0.3,2.2,0.8c0.6,0.7,1.1,1.5,1.4,2.4c0.3,1,0.5,2.1,0.6,3.2c0.1,1.2,0.1,2.2,0.1,3
			s0,1.9-0.1,3C102.5,129.2,102.3,130.3,102,131.3z"/>
		<polygon class="st0" points="131.6,123.4 131.6,113.6 123.7,113.6 123.7,123.4 113.9,123.4 113.9,131.3 123.7,131.3 123.7,141.1 
			131.6,141.1 131.6,131.3 141.3,131.3 141.3,123.4 		"/>
	</g>
</g>
</svg>
