<?xml version="1.0" encoding="utf-8"?>
<!-- Generator: Adobe Illustrator 23.0.0, SVG Export Plug-In . SVG Version: 6.00 Build 0)  -->
<svg version="1.1" id="Layer_1" xmlns="http://www.w3.org/2000/svg" xmlns:xlink="http://www.w3.org/1999/xlink" x="0px" y="0px"
	 viewBox="0 0 300 250" style="enable-background:new 0 0 300 250;" xml:space="preserve">
<style type="text/css">
	.st0{fill:#F07F2B;}
</style>
<g id="copy3">
	<g>
		<path class="st0" d="M42.8,139.4l-2.7-0.8v-4.3c0.9,0.1,2.2,0.4,3.1,1.2l0.2,0.2l3.2-3.9l-0.2-0.2c-1.5-1.2-3.8-1.9-6.3-1.9v-2.1
			h-2.5v2.1c-3.4,0.5-6.8,2.7-6.8,6.7c0,3,1.5,4.8,4.8,5.8l2,0.6v4.6c-1.7-0.2-3-0.7-3.8-1.7l-0.2-0.2l-3.5,4l0.2,0.2
			c2.2,2,5.1,2.5,7.3,2.5v2.1h2.5v-2.1c3.5-0.4,7.2-2.5,7.2-7C47.3,142.3,45.7,140.2,42.8,139.4z M42.1,145.4c0,1.1-1.1,1.7-2,1.9
			v-3.8l0.2,0.1C41.4,144,42.1,144.3,42.1,145.4z M35.9,136.1c0-0.8,0.5-1.4,1.7-1.7v3.5C37,137.8,35.9,137.5,35.9,136.1z"/>
		<polygon class="st0" points="49.2,136.1 52.1,139.4 56.1,135.8 56.1,151.7 61,151.7 61,130 56.4,130 		"/>
		<polygon class="st0" points="66.4,134.6 76.7,134.6 68,151.7 73.8,151.7 82.4,134.3 82.4,130 66.4,130 		"/>
		<circle class="st0" cx="87.7" cy="148.9" r="3"/>
		<path class="st0" d="M105.6,142.2c1.5-1.3,2.9-2.9,2.9-5.9c0-4.1-2.7-6.6-7.1-6.6c-4.6,0-7.5,2.5-7.7,6.7l0,0.2l5,0.4l0-0.2
			c0.1-1.5,1.1-2.5,2.5-2.5c1.2,0,2.4,0.7,2.4,2.1c0,1.1-0.9,1.9-1.7,2.7l-8.5,7.6v5.1h15.3v-4.5h-9L105.6,142.2z"/>
		<path class="st0" d="M118.8,137c-0.7,0-1.2,0-1.6,0.2l0.1-2.7h8.4V130h-13.3l-0.3,12.3l0.3-0.1c1.5-0.5,3-0.8,4.3-0.8
			c2.1,0,4.6,0.6,4.6,3.3c0,1.8-1.2,2.9-2.9,2.9c-1.4,0-2.4-0.9-2.7-2.3l0-0.3l-5.2,1.2l0.1,0.2c0.9,3.6,3.6,5.6,7.4,5.6
			c5,0,8.3-3.2,8.3-7.8C126.4,139.9,123.3,137,118.8,137z"/>
		<polygon class="st0" points="127.3,152.2 131.1,153.4 140.3,129.5 136.4,128.3 		"/>
		<path class="st0" d="M150.1,136.3c-1.8,0-3.2,0.8-3.9,1.7v-9.5h-5v23.2h5v-7.5c0-2.5,0.7-3.5,2.5-3.5c1.9,0,2.1,1.6,2.1,3.6v7.4h5
			v-8.3C155.8,139.7,155.1,136.3,150.1,136.3z"/>
		<path class="st0" d="M166.3,136.3c-4.8,0-8.3,3.3-8.3,7.9c0,4.6,3.5,7.9,8.3,7.9s8.3-3.3,8.3-7.9
			C174.6,139.6,171.1,136.3,166.3,136.3z M166.3,147.6c-2.1,0-3.3-1.3-3.3-3.4c0-2.1,1.3-3.4,3.3-3.4s3.3,1.3,3.3,3.4
			C169.6,146.3,168.3,147.6,166.3,147.6z"/>
		<path class="st0" d="M186.3,144.2c0,2.5-0.7,3.5-2.5,3.5c-1.9,0-2.1-1.6-2.1-3.6v-7.4h-5v8.3c0,3.7,0.7,7.2,5.6,7.2
			c1.9,0,3.3-0.9,4.1-1.9v1.5h4.8v-15.1h-5V144.2z"/>
		<path class="st0" d="M204.5,136.4c-0.4-0.1-0.9-0.2-1.6-0.2c-1.7,0-3,0.7-4,2.2v-1.8h-5v15.1h5v-6.3c0-3.1,0.6-4.6,3.6-4.6
			c0.6,0,1.2,0.1,1.9,0.3l0.3,0.1v-4.6L204.5,136.4z"/>
	</g>
</g>
</svg>
