<?xml version="1.0" encoding="utf-8"?>
<!-- Generator: Adobe Illustrator 23.0.0, SVG Export Plug-In . SVG Version: 6.00 Build 0)  -->
<svg version="1.1" id="Layer_1" xmlns="http://www.w3.org/2000/svg" xmlns:xlink="http://www.w3.org/1999/xlink" x="0px" y="0px"
	 viewBox="0 0 300 250" style="enable-background:new 0 0 300 250;" xml:space="preserve">
<style type="text/css">
	.st0{fill:#1992C7;}
</style>
<g>
	<path class="st0" d="M197.8,219.6l-0.7-2.4h-3.6l-0.7,2.4h-2.3l3.5-10h2.6l3.5,10H197.8z M196.6,215.5c-0.7-2.2-1-3.4-1.1-3.7
		c-0.1-0.3-0.1-0.5-0.2-0.7c-0.2,0.6-0.6,2-1.3,4.3H196.6z"/>
	<path class="st0" d="M205.4,219.8c-0.9,0-1.6-0.3-2.1-1h-0.1c0.1,0.6,0.1,1,0.1,1.1v3.1h-2.1v-11h1.7l0.3,1h0.1
		c0.5-0.8,1.2-1.1,2.2-1.1c0.9,0,1.6,0.3,2.1,1s0.8,1.7,0.8,2.9c0,0.8-0.1,1.5-0.4,2.1c-0.2,0.6-0.6,1.1-1,1.4
		S206,219.8,205.4,219.8z M204.8,213.5c-0.5,0-0.9,0.2-1.1,0.5c-0.2,0.3-0.4,0.8-0.4,1.6v0.2c0,0.8,0.1,1.4,0.4,1.8
		c0.2,0.4,0.6,0.5,1.2,0.5c0.9,0,1.4-0.8,1.4-2.3c0-0.8-0.1-1.3-0.3-1.7C205.6,213.7,205.3,213.5,204.8,213.5z"/>
	<path class="st0" d="M214.2,219.8c-0.9,0-1.6-0.3-2.1-1H212c0.1,0.6,0.1,1,0.1,1.1v3.1H210v-11h1.7l0.3,1h0.1
		c0.5-0.8,1.2-1.1,2.2-1.1c0.9,0,1.6,0.3,2.1,1s0.8,1.7,0.8,2.9c0,0.8-0.1,1.5-0.4,2.1c-0.2,0.6-0.6,1.1-1,1.4
		S214.8,219.8,214.2,219.8z M213.6,213.5c-0.5,0-0.9,0.2-1.1,0.5c-0.2,0.3-0.4,0.8-0.4,1.6v0.2c0,0.8,0.1,1.4,0.4,1.8
		c0.2,0.4,0.6,0.5,1.2,0.5c0.9,0,1.4-0.8,1.4-2.3c0-0.8-0.1-1.3-0.3-1.7C214.5,213.7,214.1,213.5,213.6,213.5z"/>
	<path class="st0" d="M221,219.6h-2.1V209h2.1V219.6z"/>
	<path class="st0" d="M222.1,212h2.3l1.4,4.3c0.1,0.4,0.2,0.8,0.3,1.3h0c0-0.5,0.1-0.9,0.3-1.3l1.4-4.3h2.2l-3.2,8.6
		c-0.3,0.8-0.7,1.4-1.3,1.8c-0.5,0.4-1.2,0.6-1.9,0.6c-0.4,0-0.7,0-1.1-0.1v-1.7c0.3,0.1,0.5,0.1,0.8,0.1c0.4,0,0.7-0.1,1-0.3
		c0.3-0.2,0.5-0.6,0.6-1l0.1-0.4L222.1,212z"/>
	<path class="st0" d="M243.8,219.6h-2.7l-4.3-7.6h-0.1c0.1,1.3,0.1,2.3,0.1,2.9v4.7h-1.9v-10h2.7l4.3,7.5h0
		c-0.1-1.3-0.1-2.2-0.1-2.8v-4.7h1.9V219.6z"/>
	<path class="st0" d="M253.1,215.8c0,1.2-0.3,2.2-1,2.9s-1.6,1.1-2.7,1.1c-0.7,0-1.4-0.2-1.9-0.5c-0.6-0.3-1-0.8-1.3-1.4
		s-0.5-1.3-0.5-2.1c0-1.2,0.3-2.2,1-2.9s1.6-1,2.7-1c0.7,0,1.4,0.2,1.9,0.5s1,0.8,1.3,1.4S253.1,215,253.1,215.8z M247.8,215.8
		c0,0.8,0.1,1.3,0.4,1.7c0.2,0.4,0.7,0.6,1.2,0.6c0.6,0,1-0.2,1.2-0.6c0.2-0.4,0.4-1,0.4-1.7c0-0.8-0.1-1.3-0.4-1.7
		s-0.6-0.6-1.2-0.6c-0.6,0-1,0.2-1.2,0.6C247.9,214.5,247.8,215,247.8,215.8z"/>
	<path class="st0" d="M261.1,219.6l-0.6-2.7l-0.8-3.4h0l-1.4,6H256l-2.2-7.6h2.1l0.9,3.4c0.1,0.6,0.3,1.4,0.4,2.5h0
		c0-0.3,0.1-0.9,0.2-1.6l0.1-0.6l0.9-3.7h2.3l0.9,3.7c0,0.1,0,0.2,0.1,0.4c0,0.2,0.1,0.4,0.1,0.6c0,0.2,0.1,0.4,0.1,0.6
		c0,0.2,0,0.4,0.1,0.5h0c0-0.3,0.1-0.8,0.2-1.3c0.1-0.6,0.2-1,0.2-1.2l0.9-3.4h2l-2.2,7.6H261.1z"/>
</g>
<path class="st0" d="M278,201c2.2,0,4,1.8,4,4v20c0,2.2-1.8,4-4,4H178c-2.2,0-4-1.8-4-4v-20c0-2.2,1.8-4,4-4H278 M278,200H178
	c-2.8,0-5,2.3-5,5v20c0,2.8,2.3,5,5,5h100c2.8,0,5-2.3,5-5v-20C283,202.3,280.8,200,278,200L278,200z"/>
</svg>
