<?xml version="1.0" encoding="utf-8"?>
<!-- Generator: Adobe Illustrator 25.4.1, SVG Export Plug-In . SVG Version: 6.00 Build 0)  -->
<svg version="1.1" id="Layer_1" xmlns="http://www.w3.org/2000/svg" xmlns:xlink="http://www.w3.org/1999/xlink" x="0px" y="0px"
	 viewBox="0 0 300 250" style="enable-background:new 0 0 300 250;" xml:space="preserve">
<style type="text/css">
	.st0{fill:#FFFFFF;}
</style>
<path class="st0" d="M152.1,157.1c-0.4-1.6-0.6-3.3-0.6-5v-3.3c0-2.4-0.3-3-1.5-3h-0.4v11.4h-6.4v-27.5h8.7c3.8,0,6.3,2,6.3,7
	c0,4.3-0.9,6-4.4,6.4c3.3,0.2,3.9,2.9,3.9,7.2c0,2.5,0.5,5.8,1.2,6.9L152.1,157.1z M150.2,133.7h-0.5v7.3h0.9c0.9,0,1.1-0.8,1.1-3.7
	S151.6,133.7,150.2,133.7z"/>
</svg>
