<?xml version="1.0" encoding="utf-8"?>
<!-- Generator: Adobe Illustrator 25.4.1, SVG Export Plug-In . SVG Version: 6.00 Build 0)  -->
<svg version="1.1" id="Layer_1" xmlns="http://www.w3.org/2000/svg" xmlns:xlink="http://www.w3.org/1999/xlink" x="0px" y="0px"
	 viewBox="0 0 300 250" style="enable-background:new 0 0 300 250;" xml:space="preserve">
<style type="text/css">
	.st0{fill:#FFFFFF;}
	.st1{clip-path:url(#SVGID_00000180356093316428829760000011857261889015639428_);}
	.st2{fill:#EF0C0C;}
	.st3{clip-path:url(#SVGID_00000090985735861603525130000008192461793919081881_);}
</style>
<g>
	<polygon class="st0" points="38.9,69.4 37.3,77.3 43.7,77.3 38.4,102.9 47.8,102.9 53.1,77.2 59.5,77.2 61.1,69.3 	"/>
	<g>
		<defs>
			<rect id="SVGID_1_" y="0" width="300" height="250"/>
		</defs>
		<clipPath id="SVGID_00000005249874232376263490000001830370366532660885_">
			<use xlink:href="#SVGID_1_"  style="overflow:visible;"/>
		</clipPath>
		<g style="clip-path:url(#SVGID_00000005249874232376263490000001830370366532660885_);">
			<path class="st0" d="M70.7,76h1.1c2.1,0,3.3,0.6,2.8,3.4c-0.7,3.2-2.4,4-4,4h-1.3L70.7,76z M65.1,102.9L68,89.5h1.7
				c1.7,0,2.5,0.5,1.9,3.4c-0.3,1.6-0.5,3.3-0.9,5c-0.5,1.6-0.6,3.2-0.3,4.8h10v-0.5c-0.4-0.2-0.7-0.6-0.8-1c-0.1-1.3,0-2.7,0.4-4
				l0.6-2.8c0.6-1.9,0.7-3.9,0.3-5.8c-0.7-1.6-2.2-2.6-3.9-2.6c3.4-0.4,6.1-2.5,7.3-8.1s-1-8.7-7.4-8.7H62.8l-7,33.6L65.1,102.9z"/>
			<path class="st2" d="M253.5,76h1.1c2.1,0,3.4,0.6,2.8,3.4c-0.7,3.2-2.4,4-4,4H252L253.5,76z M248,102.9l2.9-13.4h1.7
				c1.6,0,2.5,0.5,1.9,3.4c-0.3,1.6-0.5,3.3-0.9,5c-0.5,1.6-0.6,3.2-0.3,4.8h10v-0.5c-0.4-0.2-0.7-0.6-0.8-1c-0.1-1.3,0-2.7,0.4-4
				l0.6-2.8c0.6-1.9,0.7-3.9,0.3-5.8c-0.7-1.6-2.2-2.6-3.9-2.6c3.4-0.4,6.1-2.5,7.3-8.1s-1-8.7-7.4-8.7h-14.2l-7,33.6L248,102.9z"/>
		</g>
	</g>
	<path class="st0" d="M99.8,76.6L99,90.4h-4.2L99.8,76.6z M90.2,102.9l2-5.2h6.3v5.2h9.7l-1-33.5l-11.8-0.1l-14.8,33.6L90.2,102.9z"
		/>
	<g>
		<defs>
			<rect id="SVGID_00000085208108414669334240000004304837185247964863_" y="0" width="300" height="250"/>
		</defs>
		<clipPath id="SVGID_00000054245028089773922000000010575936042618340489_">
			<use xlink:href="#SVGID_00000085208108414669334240000004304837185247964863_"  style="overflow:visible;"/>
		</clipPath>
		<g style="clip-path:url(#SVGID_00000054245028089773922000000010575936042618340489_);">
			<path class="st0" d="M124.9,76.1h1.4c2.9,0,2.9,1.8,2.2,5.2l-2,9.8c-0.5,2.6-1.4,5.2-3.8,5.2h-1.9L124.9,76.1z M123.6,102.9
				c9.8,0,12-9.6,13.5-16.8c1.6-8,1.7-9.7,0.8-12.4s-3.3-4.3-7.5-4.3h-13.5l-7,33.5H123.6z"/>
			<path class="st2" d="M176.3,76.1h1.4c2.9,0,2.9,1.8,2.2,5.2l-2,9.8c-0.5,2.6-1.4,5.2-3.8,5.2h-1.9L176.3,76.1z M175.1,102.9
				c9.8,0,12-9.6,13.5-16.8c1.6-8,1.7-9.7,0.8-12.4s-3.3-4.3-7.5-4.3h-13.5l-7,33.5H175.1z"/>
			<path class="st2" d="M206.1,79.7l-2.6,12.6v0.1c-0.5,1.9-1.4,3.6-3.2,3.7c-1.5-0.3-1.8-1.4-1.5-3.4l2.6-12.8c0,0,0,0,0-0.1
				c0.6-1.9,1.4-3.5,3.2-3.7C206.2,76.5,206.4,77.7,206.1,79.7L206.1,79.7z M215.3,73.7c-0.9-2.7-3.3-4.3-7.5-4.3H204
				c-6.9,0-10,4.7-11.8,10c-0.7,2.2-1.3,4.5-1.8,6.8c-0.6,2.7-1.1,5.4-1.4,8.2c-0.1,1.4,0.1,2.9,0.6,4.3c0.9,2.7,3.3,4.3,7.5,4.3
				h3.8c6.8,0,10-4.7,11.8-10c0.7-2.2,1.3-4.5,1.8-6.8c0.6-2.7,1.1-5.4,1.4-8.1C216,76.6,215.8,75.1,215.3,73.7"/>
			<path class="st2" d="M231.6,79.7L229,92.3v0.1c-0.5,1.9-1.4,3.6-3.2,3.7c-1.5-0.3-1.8-1.4-1.5-3.4l2.6-12.8c0,0,0,0,0-0.1
				c0.5-1.9,1.4-3.5,3.2-3.7C231.6,76.5,231.9,77.7,231.6,79.7L231.6,79.7z M240.8,73.7c-0.9-2.7-3.3-4.3-7.5-4.3h-3.8
				c-6.8,0-10,4.7-11.8,10c-0.7,2.2-1.3,4.5-1.8,6.8c-0.6,2.7-1.1,5.4-1.4,8.2c-0.1,1.4,0.1,2.9,0.6,4.3c0.9,2.7,3.3,4.3,7.5,4.3
				h3.8c6.9,0,10-4.7,11.8-10c0.7-2.2,1.3-4.4,1.7-6.7c0.6-2.7,1.1-5.4,1.4-8.2C241.5,76.6,241.3,75.1,240.8,73.7"/>
		</g>
	</g>
	<polygon class="st0" points="156.1,102.8 157.6,95.2 146.4,95.3 147.6,89.4 157.7,89.4 159.2,82 149.1,82.1 150.2,76.9 161,76.9 
		162.6,69.3 142.4,69.4 135.4,102.9 	"/>
	<polygon class="st0" points="262.4,111.3 259.7,124.5 32.6,124.5 35.3,111.3 	"/>
</g>
</svg>
