<?xml version="1.0" encoding="utf-8"?>
<!-- Generator: Adobe Illustrator 25.4.1, SVG Export Plug-In . SVG Version: 6.00 Build 0)  -->
<svg version="1.1" id="Layer_1" xmlns="http://www.w3.org/2000/svg" xmlns:xlink="http://www.w3.org/1999/xlink" x="0px" y="0px"
	 viewBox="0 0 300 250" style="enable-background:new 0 0 300 250;" xml:space="preserve">
<style type="text/css">
	.st0{clip-path:url(#SVGID_00000072992612151612989130000013563495952223726748_);}
	.st1{fill:#FFFFFF;}
</style>
<g>
	<defs>
		<rect id="SVGID_1_" y="0" width="300" height="250"/>
	</defs>
	<clipPath id="SVGID_00000087414501654921591110000003679306853110569379_">
		<use xlink:href="#SVGID_1_"  style="overflow:visible;"/>
	</clipPath>
	<g style="clip-path:url(#SVGID_00000087414501654921591110000003679306853110569379_);">
		<path class="st1" d="M29.8,120.6l-0.6-4.1H26l-0.6,4.1h-5.6l4.9-27.5h6l5.7,27.5L29.8,120.6z M28,107.8c-0.1-1.3-0.4-4-0.6-6.7
			c-0.1,2.7-0.4,5.5-0.5,6.7c-0.2,2.1-0.4,4.6-0.4,4.6h2C28.5,112.4,28.3,109.8,28,107.8z"/>
		<path class="st1" d="M47.2,120.6c0,0-2.6-8.1-3.2-10.2c-0.5-1.4-0.8-2.9-1.1-4.4c0.2,3.7,0.2,4.3,0.2,7.5v7h-5.8V93.1H43
			c0,0,2.4,8,2.9,9.8c0.4,1.2,0.7,2.4,0.9,3.7c-0.1-2.7-0.2-5.3-0.2-8.1v-5.4h5.8v27.4H47.2z"/>
		<path class="st1" d="M61.5,120.6h-7V93.1H61c5.7,0,8.9,2.2,8.9,14.6C69.9,118.1,66.5,120.6,61.5,120.6z M61.4,98h-0.5v17.4h0.5
			c1.2,0,1.9-0.8,1.9-8C63.3,98.5,62.8,98,61.4,98z"/>
		<path class="st1" d="M81.9,120.6h-7V93.1h6.5c5.7,0,8.9,2.2,8.9,14.6C90.3,118.1,86.9,120.6,81.9,120.6z M81.8,98h-0.5v17.4h0.5
			c1.2,0,1.9-0.8,1.9-8C83.7,98.5,83.1,98,81.8,98z"/>
		<path class="st1" d="M91.8,120.6V93.1h6.4v27.4H91.8z"/>
		<path class="st1" d="M107.1,121.2c-4.1,0-7-1.8-7-7.1c0-1.2,0.2-2.3,0.4-3.4l5.8-0.2c-0.2,1.1-0.2,2.3-0.2,3.4
			c0,2.2,0.2,2.8,1.1,2.8s0.9-0.5,0.9-2.4c0-3.6-0.6-4.5-2.9-5.7l-1.8-0.9c-2.8-1.4-3.4-4.7-3.4-7.9c0-4.7,2.6-7.1,6.9-7.1
			s6.8,2.1,6.8,6.2c0,0.9-0.1,1.7-0.3,2.6l-5.6,0.4c0.1-0.9,0.2-1.8,0.2-2.7c0-1.6-0.1-2-0.9-2s-0.9,0.5-0.9,1.8
			c0,2.5,0.7,3.5,2.2,4.3l1.8,0.9c3.3,1.7,4.3,4.3,4.3,9.2S112,121.2,107.1,121.2z"/>
		<path class="st1" d="M123.3,121.2c-5,0-7.6-2.4-7.6-13.3c0-11.7,2.2-15.2,7.7-15.2c4.5,0,6.8,2.5,6.8,6.9c0,1.4-0.1,2.9-0.3,4.3
			l-5.9,0.2c0.2-1.2,0.2-2.3,0.2-3.5c0-2.4,0-3.1-0.9-3.1s-1.1,0.6-1.1,9.7c0,8.3,0.1,8.8,1.2,8.8s1-1.4,1-3.9
			c0-1.2-0.1-2.4-0.2-3.6l6,0.1c0.2,1.5,0.3,2.9,0.2,4.4C130.5,118.2,127.7,121.2,123.3,121.2z"/>
		<path class="st1" d="M139.1,121.2c-5,0-7.6-2.8-7.6-14.3c0-11,2.4-14.1,7.6-14.1s7.8,2.8,7.8,14.1
			C146.9,118.6,143.9,121.2,139.1,121.2z M139.2,97.4c-0.9,0-1.1,0.5-1.1,9.4c0,8.4,0.1,9.2,1.1,9.2s1.1-0.8,1.1-9.2
			C140.3,97.9,140,97.4,139.2,97.4L139.2,97.4z"/>
		<path class="st1" d="M156,121.2c-5.1,0-7.5-2.4-7.5-6.3V93.1h6.4v20.6c0,1.6,0.1,2.2,1.1,2.2s1-0.6,1-2.2V93.1h6.4v21.8
			C163.4,118.5,161.2,121.2,156,121.2z"/>
		<path class="st1" d="M175.4,120.6c0,0-2.6-8.1-3.2-10.2c-0.5-1.4-0.8-2.9-1.1-4.4c0.2,3.7,0.2,4.3,0.2,7.5v7h-5.8V93.1h5.7
			c0,0,2.4,8,2.9,9.8c0.4,1.2,0.7,2.4,0.9,3.7c-0.1-2.7-0.2-5.3-0.2-8.1v-5.4h5.8v27.4H175.4z"/>
		<path class="st1" d="M192.3,98v22.5h-6.4V98H182v-4.9h14.3V98H192.3z"/>
		<path class="st1" d="M204.4,121.2c-4.1,0-7-1.8-7-7.1c0-1.2,0.2-2.3,0.4-3.4l5.8-0.2c-0.2,1.1-0.2,2.3-0.2,3.4
			c0,2.2,0.2,2.8,1.1,2.8c0.8,0,0.9-0.5,0.9-2.4c0-3.6-0.6-4.5-2.9-5.7l-1.8-0.9c-2.8-1.4-3.4-4.7-3.4-7.9c0-4.7,2.6-7.1,6.9-7.1
			s6.8,2.1,6.8,6.2c0,0.9-0.1,1.7-0.3,2.6l-5.6,0.4c0.1-0.9,0.2-1.8,0.2-2.7c0-1.6-0.1-2-0.9-2s-0.9,0.5-0.9,1.8
			c0,2.5,0.7,3.5,2.2,4.3l1.9,0.9c3.3,1.7,4.3,4.3,4.3,9.2S209.3,121.2,204.4,121.2z"/>
	</g>
</g>
</svg>
