<?xml version="1.0" encoding="utf-8"?>
<!-- Generator: Adobe Illustrator 25.4.1, SVG Export Plug-In . SVG Version: 6.00 Build 0)  -->
<svg version="1.1" id="Layer_1" xmlns="http://www.w3.org/2000/svg" xmlns:xlink="http://www.w3.org/1999/xlink" x="0px" y="0px"
	 viewBox="0 0 300 250" style="enable-background:new 0 0 300 250;" xml:space="preserve">
<style type="text/css">
	.st0{fill:#FFFFFF;}
</style>
<path class="st0" d="M27.9,121.1c-5,0-7.6-2.3-7.6-13.2c0-11.7,2.2-15.2,7.7-15.2c4.5,0,6.8,2.5,6.8,6.9c0,1.4-0.1,2.9-0.3,4.3
	l-5.9,0.1c0.2-1.2,0.2-2.3,0.2-3.5c0-2.4,0-3.2-0.9-3.2s-1.1,0.7-1.1,9.7c0,8.3,0.1,8.8,1.2,8.8s1-1.4,1-3.9c0-1.2-0.1-2.4-0.2-3.6
	l6,0.1c0.2,1.5,0.3,2.9,0.2,4.4C35.1,118.2,32.4,121.1,27.9,121.1z"/>
</svg>
