<svg xmlns="http://www.w3.org/2000/svg" viewBox="0 0 109 19"><defs><style>.cls-1{fill:#010101;}.cls-2{fill:#fff;}</style></defs><title>cta468</title><g id="Layer_2" data-name="Layer 2"><g id="Layer_1-2" data-name="Layer 1"><rect class="cls-1" width="109" height="19"/><path class="cls-2" d="M7.21,13.53V10.79H8.57A1.55,1.55,0,0,0,9,11.9a1.15,1.15,0,0,0,.84.36.84.84,0,0,0,.62-.26.83.83,0,0,0,.26-.6.85.85,0,0,0-.25-.63,4,4,0,0,0-.91-.57A6.87,6.87,0,0,1,7.64,9a1.9,1.9,0,0,1-.5-1.38A2.07,2.07,0,0,1,7.8,6a2.24,2.24,0,0,1,1.49-.58,1.72,1.72,0,0,1,1.49.75V5.5h1.36V7.94H10.78a1.31,1.31,0,0,0-.39-.87,1.06,1.06,0,0,0-.76-.31.92.92,0,0,0-.57.17.58.58,0,0,0-.23.47A.72.72,0,0,0,9,7.87a3.76,3.76,0,0,0,1.12.63,10.84,10.84,0,0,1,1.37.72,2.43,2.43,0,0,1,.75.84,2.48,2.48,0,0,1,.28,1.18,2.22,2.22,0,0,1-.7,1.79,2.42,2.42,0,0,1-1.64.6,1.91,1.91,0,0,1-1.63-.78v.68Z"/><path class="cls-2" d="M14.67,13.53V12.17h1.21V6.85H14.67V8.73H13.29V5.5h7.29V8.73H19.22V6.85H18v5.32h1.21v1.36Z"/><path class="cls-2" d="M25.69,5.37A4.43,4.43,0,0,1,29,6.57,4,4,0,0,1,30.16,9.5,4,4,0,0,1,29,12.43a4.39,4.39,0,0,1-3.27,1.2,4.33,4.33,0,0,1-3.31-1.23,4.1,4.1,0,0,1-1.15-2.9,4,4,0,0,1,1.18-2.93A4.43,4.43,0,0,1,25.69,5.37Zm0,1.47a2.08,2.08,0,0,0-1.57.69,2.92,2.92,0,0,0-.64,2,2.72,2.72,0,0,0,.64,1.9,2,2,0,0,0,1.57.71,2.07,2.07,0,0,0,1.58-.7,2.84,2.84,0,0,0,.64-2,2.81,2.81,0,0,0-.62-1.9A2,2,0,0,0,25.69,6.84Z"/><path class="cls-2" d="M39.4,12.17v1.36H37L35.14,10h-.92v2.16h1v1.36H31V12.17h1.1V6.85H31V5.5h4.85a2.49,2.49,0,0,1,2,.69,2.28,2.28,0,0,1,.61,1.56,2.1,2.1,0,0,1-1.4,2l1.31,2.42ZM34.22,8.73h.71c.89,0,1.33-.31,1.33-1a.84.84,0,0,0-.3-.7,1.38,1.38,0,0,0-.84-.23h-.9Z"/><path class="cls-2" d="M39.77,13.53V12.17h1V6.85h-1V5.5h7.08V8H45.32V6.85H42.83V8.71h2v1.36h-2v2.1h2.49V11h1.53v2.56Z"/><path class="cls-2" d="M50.55,13.53V12.17h1.07V6.85H50.55V5.5h3.37l3,5V6.85H55.83V5.5h3.61V6.85H58.31v6.74H56.52l-3.47-6v4.54h1v1.36Z"/><path class="cls-2" d="M64.65,5.37a4.39,4.39,0,0,1,3.27,1.2,4,4,0,0,1,1.2,2.93,4,4,0,0,1-1.2,2.93,4.42,4.42,0,0,1-3.27,1.2,4.32,4.32,0,0,1-3.31-1.23,4.11,4.11,0,0,1-1.16-2.9,4,4,0,0,1,1.19-2.93A4.41,4.41,0,0,1,64.65,5.37Zm0,1.47a2.06,2.06,0,0,0-1.57.69,2.88,2.88,0,0,0-.64,2,2.76,2.76,0,0,0,.63,1.9,2.11,2.11,0,0,0,3.15,0,2.84,2.84,0,0,0,.65-2,2.86,2.86,0,0,0-.62-1.9A2,2,0,0,0,64.65,6.84Z"/><path class="cls-2" d="M72,13.58,69.66,6.85h-.85V5.5h3.62V6.85H71.6l1.3,3.86,1.23-3.86H73.4V5.5h2.89V6.85h-.75l1.32,3.86,1.27-3.86h-.81V5.5h3.22V6.85h-.87l-2.22,6.73H76L74.68,9.92l-1.19,3.66Z"/><path class="cls-2" d="M81.67,13.53V11.6H83.6v1.93Zm.53-2.8-.49-3V5.5h1.78V7.7l-.45,3Z"/><polygon class="cls-2" points="94.67 9.5 94.67 5.35 98.26 7.42 101.86 9.5 98.26 11.58 94.67 13.65 94.67 9.5"/></g></g></svg>