<?xml version="1.0" encoding="UTF-8"?><svg id="Layer_2" xmlns="http://www.w3.org/2000/svg" xmlns:xlink="http://www.w3.org/1999/xlink" viewBox="0 0 300 600"><defs><style>.cls-1{fill:none;}.cls-2{clip-path:url(#clippath);}.cls-3{fill:#fff;}.cls-4{clip-path:url(#clippath-1);}.cls-5{clip-path:url(#clippath-2);}</style><clipPath id="clippath"><rect class="cls-1" width="300" height="600"/></clipPath><clipPath id="clippath-1"><rect class="cls-1" width="300" height="600"/></clipPath><clipPath id="clippath-2"><rect class="cls-1" width="300" height="600"/></clipPath></defs><g id="Layer_1-2"><g class="cls-2"><g class="cls-4"><g class="cls-5"><path class="cls-3" d="M246.22,563.68c-.1,.08-.17,.21-.17,.39v9.11c0,.35,.25,.51,.57,.51,.31,0,.57-.16,.57-.47v-9.19c0-.31-.26-.47-.57-.47-.16,0-.3,.04-.4,.12m-34,9.39c0-.28-.12-.51-.53-.51h-6.71v-11.94s0-.05,0-.07v-.02s0-.03-.01-.04v-.02s-.01-.02-.02-.03v-.02s-.02-.02-.02-.03v-.02s-.03-.02-.03-.03v-.02l-.04-.02s0,0-.01-.01c0,0-.02-.02-.03-.02h-.01s-.03-.03-.05-.04c-.02-.01-.05-.02-.07-.03h-.01s-.05-.02-.07-.03h-.02s-.05-.01-.08-.02h-.02s-.05,0-.07,0h-.02s-.05,0-.07,0h-.02s-.05,0-.08,.01h0s-.05,.01-.08,.02h-.01s-.05,.02-.08,.03c-.02,0-.04,.02-.06,.03h0s-.03,.02-.04,.03h-.01s-.03,.03-.04,.04h0s-.03,.04-.04,.05h0s-.02,.03-.03,.05v.02s-.02,.03-.02,.04v.02s-.01,.03-.02,.05v.02s0,.05,0,.07v12.43c0,.31,.21,.51,.51,.51h7.43c.41,0,.53-.2,.53-.49m9.35-5h-6.37v-1.49s0-.1,0-.14c0-.01,0-.03,0-.04,0-.03,0-.07,0-.1,0-.01,0-.03,0-.04,0-.03,0-.07,.01-.1v-.03s.02-.08,.03-.12h0c.03-.14,.07-.26,.12-.38h0s.04-.08,.06-.12c.05-.09,.1-.17,.17-.24h0c.1-.12,.21-.22,.35-.31h0c.09-.06,.19-.12,.3-.17h.01c.11-.05,.23-.1,.36-.14h0c.06-.02,.13-.04,.19-.05h.02c.14-.04,.29-.06,.45-.09h.03c.08-.01,.16-.02,.24-.03h0c.09,0,.18-.02,.27-.02h0c.09,0,.18,0,.27-.01,0,0,.02,0,.03,0,.1,0,.2,0,.3,0,.09,0,.18,0,.27,0h0c.08,0,.16,0,.24,0,.01,0,.02,0,.03,0,.07,0,.13,0,.2,.01h.04c.07,0,.13,.01,.19,.02h.02c.14,.02,.28,.04,.4,.06,.06,.01,.12,.02,.17,.04,.01,0,.02,0,.03,0,.04,.01,.09,.02,.13,.03,.01,0,.02,0,.04,.01,.04,.01,.08,.03,.12,.04h.03s.08,.04,.12,.06h.01s.09,.04,.13,.07h0s.08,.04,.11,.06l.03,.02s.05,.03,.08,.05c.01,0,.02,.02,.03,.02,.02,.02,.04,.03,.07,.05l.03,.02s.04,.04,.06,.06l.02,.02s.05,.05,.08,.08c.03,.04,.06,.08,.09,.12l.02,.02s.05,.08,.07,.12v.02s.05,.08,.07,.12h0c.02,.06,.03,.1,.05,.15,0,0,0,.02,0,.03,.01,.05,.02,.09,.04,.14v.02s.02,.09,.02,.14v.03c0,.05,.01,.1,.02,.16v.03c0,.05,0,.11,0,.17v1.61Zm1.14,.07s0-.04,0-.07v-1.49c0-2.2-1.04-3.1-4.21-3.1h0c-.1,0-.2,0-.3,0h-.29s-.07,.01-.1,.01c-.06,0-.12,0-.19,0-.03,0-.06,0-.1,0l-.18,.02s-.06,0-.09,0c-.06,0-.12,.01-.18,.02h-.07c-.07,.02-.14,.03-.2,.04h-.04c-.17,.03-.32,.07-.47,.1h0c-.07,.02-.14,.04-.2,.06h-.03c-.06,.03-.11,.04-.16,.06h-.04s-.1,.05-.14,.07l-.04,.02s-.09,.04-.14,.06c-.01,0-.03,.01-.04,.02-.04,.02-.09,.04-.13,.07l-.03,.02s-.09,.05-.13,.08c0,0-.02,.01-.03,.02-.04,.03-.09,.06-.13,.09h-.01c-.54,.42-.85,1.02-.95,1.83v.02c-.01,.07-.02,.15-.02,.23,0,.02,0,.04,0,.06,0,.09,0,.18,0,.27v3.57c0,2.33,1.12,3.53,4.59,3.53,1.47,0,2.92-.14,3.43-.31,.03,0,.06-.02,.09-.03h.01s.05-.03,.07-.04h0s.08-.06,.11-.09c.04-.05,.06-.09,.07-.14h0s0-.05,.01-.07h0s0-.05,0-.07h0c0-.38-.16-.52-.39-.52-.05,0-.13,0-.23,.02h0s-.07,0-.11,.01h0s-.08,.01-.12,.02h0c-.06,0-.12,.02-.18,.02-.02,0-.04,0-.07,0-.02,0-.04,0-.06,0-.04,0-.09,.01-.13,.02-.01,0-.03,0-.04,0-.05,0-.1,.01-.15,.02h-.03l-.15,.02h-.03c-.05,.01-.11,.02-.17,.02h-.04c-.06,.01-.12,.02-.18,.02h-.03c-.06,0-.12,.01-.18,.02h-.02c-.07,0-.13,.01-.2,.02h-.04c-.07,0-.13,.01-.2,.02-.01,0-.02,0-.04,0-.07,0-.14,0-.21,.01h-.28c-.07,.01-.15,.02-.22,.02-.01,0-.03,0-.04,0-.08,0-.15,0-.23,0-.1,0-.2,0-.29,0h-.08c-.07,0-.14,0-.21-.01-.02,0-.05,0-.07,0-.09,0-.17-.01-.26-.02-.01,0-.03,0-.04,0-.07,0-.13-.02-.2-.03-.02,0-.05,0-.07-.01-.06-.01-.13-.02-.19-.03h-.04c-.07-.02-.14-.04-.21-.06-.02,0-.03-.01-.05-.01-.05-.01-.1-.03-.15-.04-.02,0-.04-.01-.05-.02-.06-.02-.12-.04-.18-.07-.06-.02-.11-.05-.17-.07-.01,0-.03-.01-.05-.02-.04-.02-.08-.04-.12-.06l-.04-.02s-.1-.06-.14-.09c0,0-.02-.01-.02-.02-.04-.03-.07-.05-.1-.08-.01-.01-.02-.02-.04-.03-.03-.03-.07-.06-.1-.09l-.02-.02s-.07-.07-.1-.11l-.02-.03s-.05-.06-.07-.09l-.02-.04s-.06-.09-.08-.13c-.03-.05-.05-.1-.07-.15v-.03s-.05-.1-.07-.14h0c-.04-.12-.07-.25-.09-.37,0-.03,0-.06-.01-.08-.01-.08-.02-.17-.03-.25,0-.1-.01-.2-.01-.31v-1.16h6.65s.07,0,.1,0c.01,0,.03,0,.04,0,.02,0,.03,0,.05,0,.02,0,.03,0,.05-.01h.03s.04-.02,.06-.02h.02s.04-.02,.06-.03h.01s.04-.03,.06-.04h0s.04-.03,.06-.04h0s.04-.03,.05-.05c.02-.02,.04-.04,.06-.06h0s.03-.05,.05-.07h0s.03-.05,.04-.08v-.02s.03-.04,.03-.07v-.02s.02-.04,.03-.07v-.03s.02-.04,.02-.06c0-.01,0-.03,0-.04,0-.02,0-.04,0-.06v-.05s0-.03,0-.05m9.8,2.81c0,1.57-.59,1.86-3.29,1.86-.08,0-.15,0-.23,0-.57,0-1.03-.04-1.41-.11-.02,0-.04,0-.05-.01-.61-.13-.98-.35-1.18-.72h0c-.04-.08-.08-.16-.11-.26v-.03s-.04-.1-.05-.15c-.02-.09-.04-.19-.05-.3,0-.06-.01-.13-.01-.2,0-.06,0-.13,0-.2,0-.05,0-.1,0-.15v-.19s.02-.09,.02-.13h0c.01-.1,.03-.19,.04-.28h0c.01-.05,.02-.09,.03-.13h0c.02-.08,.05-.16,.09-.23,.02-.04,.04-.07,.06-.11h0c.04-.07,.1-.13,.15-.19h0s.06-.06,.09-.08h0c.07-.05,.14-.1,.22-.14h.02s.08-.05,.12-.06h.01s.09-.04,.14-.06h0s.1-.03,.15-.04h.03s.1-.03,.15-.04h.01c.06-.01,.12-.02,.18-.03h.03c.05-.01,.11-.02,.16-.02,.02,0,.03,0,.05,0,.06,0,.13-.01,.19-.02h.02c.07,0,.15-.01,.22-.02,.02,0,.04,0,.06,0,.06,0,.12,0,.18,0,.02,0,.05,0,.07,0,.08,0,.17,0,.26,0h3.55v2.06Zm.93,1.46c.15-.38,.21-.87,.21-1.5v-4.54c0-.08,0-.15,0-.23v-.08c0-.07-.01-.14-.02-.21v-.03c0-.08-.02-.16-.03-.23v-.04c-.02-.07-.03-.14-.04-.2h0c-.02-.09-.04-.16-.06-.23h0c-.02-.07-.05-.14-.07-.2h0c-.06-.13-.12-.25-.2-.36-.03-.04-.05-.07-.08-.11h0s-.06-.07-.09-.1c-.03-.03-.07-.07-.1-.1h0s-.07-.06-.11-.09h0s-.08-.06-.12-.08h0s-.08-.05-.13-.08h0s-.09-.05-.14-.07c-.05-.02-.1-.04-.15-.06h0c-.05-.02-.1-.04-.16-.06h0c-.05-.02-.11-.04-.17-.05h0c-.06-.02-.12-.03-.18-.05h0c-.06-.02-.12-.03-.19-.04h0c-.07-.01-.13-.03-.2-.04h0c-.07-.01-.14-.02-.21-.03h0c-.07,0-.15-.02-.23-.03h0c-.08,0-.16-.02-.24-.02-.09,0-.19-.01-.28-.02h-.01c-.09,0-.18,0-.27-.01h-.04c-.09,0-.18,0-.27,0h-.06c-.11,0-.21,0-.33,0h0c-.14,0-.27,0-.4,0-.04,0-.07,0-.1,0-.11,0-.21,0-.31,0-.02,0-.05,0-.07,0-.27,0-.52,.02-.76,.03-.3,.02-.58,.04-.83,.06h-.15l-.04,.02c-.07,0-.13,.01-.19,.02-.02,0-.05,0-.07,0h-.08s-.07,.02-.1,.02c-.02,0-.04,0-.05,0-.04,0-.08,0-.11,.01h-.03c-.08,.02-.16,.03-.21,.04h0s-.06,.01-.08,.02c-.24,.06-.39,.24-.39,.53,0,.03,0,.07,0,.1v.03s.02,.04,.02,.06v.02s.03,.04,.04,.06c0,.01,.01,.02,.02,.03l.02,.03s.02,.02,.03,.03h0s.06,.06,.1,.07h.01s.05,.02,.08,.03c.02,0,.05,0,.07,0,.04,0,.08,0,.12,0h0s.08,0,.13-.01c.15-.01,.32-.04,.52-.07,.58-.08,1.4-.2,2.7-.2,.33,0,.63,0,.9,.02h.01c.18,.01,.34,.03,.49,.05h.02c.15,.02,.29,.05,.41,.08h.02c.12,.03,.24,.07,.34,.11h.02c.1,.05,.2,.09,.28,.14h.02c.08,.06,.15,.12,.22,.18l.02,.02c.06,.06,.12,.13,.16,.2,0,0,.01,.02,.02,.02,.02,.04,.04,.08,.06,.11,.11,.24,.16,.53,.16,.88v1.67h-3.53c-.1,0-.2,0-.29,0-.03,0-.06,0-.09,0-.06,0-.12,0-.18,0-.04,0-.07,0-.1,0-.05,0-.11,0-.16,0h-.1s-.1,.01-.15,.02c-.04,0-.07,0-.1,0-.05,0-.09,0-.13,.01-.03,0-.07,0-.1,.01-.04,0-.08,0-.12,.01h-.1s-.08,.02-.12,.03h-.09s-.07,.03-.11,.03l-.09,.02s-.07,.02-.1,.02c-.03,0-.05,.01-.08,.02-.03,0-.07,.02-.1,.03-.03,0-.05,.01-.08,.02-.03,0-.06,.02-.09,.03-.02,0-.05,.02-.07,.02-.03,.01-.06,.02-.09,.03-.02,0-.04,.02-.06,.02-.03,.01-.06,.03-.09,.04-.02,0-.04,.02-.06,.03-.03,.01-.06,.03-.09,.05-.01,0-.03,.01-.04,.02-.08,.05-.16,.1-.23,.16l-.03,.03s-.05,.04-.07,.06l-.04,.04s-.04,.04-.06,.06l-.04,.04s-.03,.04-.05,.06c-.01,.02-.02,.03-.03,.05-.01,.02-.03,.04-.04,.06-.01,.02-.02,.03-.03,.05-.01,.02-.02,.04-.04,.06,0,.02-.02,.04-.03,.05l-.03,.07s-.02,.04-.02,.06c-.01,.02-.02,.05-.03,.07,0,.02-.01,.04-.02,.06,0,.02-.02,.05-.03,.07,0,.02-.01,.04-.02,.06,0,.03-.01,.05-.02,.08,0,.02-.01,.04-.02,.07,0,.03-.01,.06-.02,.08,0,.02,0,.05-.01,.07v.09s-.02,.05-.03,.07c0,.03,0,.07-.01,.1,0,.02,0,.04,0,.07,0,.04,0,.08-.01,.12,0,.02,0,.04,0,.06,0,.06,0,.12-.01,.18,0,.13,0,.26,0,.4,0,.07,0,.14,0,.2,0,.05,0,.09,0,.14,0,.02,0,.04,0,.06,.02,.38,.07,.71,.17,.98h0c.04,.12,.09,.23,.15,.34v.02s.04,.05,.06,.07v.02c.06,.07,.12,.14,.17,.2l.02,.02s.04,.04,.06,.06h.01s.08,.08,.12,.11l.03,.02s.04,.03,.06,.04l.04,.02s.08,.05,.12,.07l.04,.02s.05,.02,.07,.03c.02,0,.03,.02,.05,.02,.02,.01,.05,.02,.07,.03l.07,.03s.07,.03,.12,.04c.02,0,.04,.01,.07,.02,.03,0,.05,.02,.08,.02l.08,.02s.07,.02,.11,.03c.04,0,.07,.02,.11,.02h.08s.07,.03,.1,.03c.02,0,.05,0,.08,.01,.06,0,.11,.02,.17,.02h.07l.13,.02s.05,0,.08,0c.05,0,.11,.01,.16,.02h.06c.07,0,.13,.01,.2,.02,.02,0,.05,0,.08,0h.17s.04,.01,.07,.01c.08,0,.16,0,.24,0,.02,0,.04,0,.06,0,.07,0,.13,0,.2,0,.03,0,.05,0,.08,0,.09,0,.18,0,.27,0,.1,0,.19,0,.28,0h.28s.05,0,.08,0c.18,0,.35,0,.51-.01h.25s.05-.01,.07-.02c.15,0,.3-.02,.44-.03h.06c.05-.01,.1-.02,.15-.02,.02,0,.04,0,.06,0,.13-.02,.25-.04,.37-.06,.02,0,.03,0,.05-.01l.13-.03h.05c.11-.04,.21-.07,.31-.1h.04s.07-.04,.1-.05c.01,0,.03-.01,.04-.02,.04-.02,.09-.04,.13-.06h0s.08-.04,.12-.07l.03-.02s.06-.03,.08-.05l.03-.02c.07-.05,.14-.1,.2-.16,0,0,.02-.02,.03-.03,.02-.02,.04-.05,.06-.07,0-.01,.02-.02,.03-.03,.05-.06,.1-.14,.15-.21,0-.01,.01-.02,.02-.03,.02-.03,.03-.06,.05-.09,0-.01,.01-.02,.02-.03,.02-.04,.04-.08,.05-.13m3.81-6.33c0-1.04,1-1.63,2.86-1.63,.05,0,.09,0,.14,0,.02,0,.04,0,.07,0,.05,0,.09,0,.14,0h.08s.09,0,.13,0c.02,0,.05,0,.07,0h.13s.03,.01,.05,.01c.15,.01,.3,.03,.44,.04h.05l.12,.02s.03,0,.05,0c.04,0,.08,.01,.12,.02h.02c.26,.04,.49,.08,.67,.11h.04s.07,.02,.1,.02h.02s.05,0,.07,.01h.03s.03,0,.05,0h.02s.04,0,.06,0h0c.06,0,.12,0,.18-.03h0s.09-.04,.13-.07h0s.04-.04,.05-.06h0s.03-.05,.04-.07h0s.02-.05,.03-.08h0s.01-.07,.02-.1v-.02s0-.07,0-.11c0-.28-.14-.35-.47-.45-.49-.15-1.43-.27-2.51-.27h0c-.08,0-.16,0-.24,0-.03,0-.05,0-.08,0-.05,0-.1,0-.15,0-.03,0-.07,0-.1,0-.04,0-.08,0-.13,0-.04,0-.07,0-.11,0-.04,0-.07,0-.11,0-.04,0-.08,0-.11,0h-.1s-.08,.02-.12,.02c-.03,0-.06,0-.08,.01-.04,0-.08,.01-.12,.02-.02,0-.05,0-.07,.01-.04,0-.09,.01-.13,.02-.02,0-.04,0-.05,0-.05,0-.09,.02-.14,.03h-.03c-.4,.09-.76,.21-1.06,.36-.36,.18-.65,.42-.86,.71v.02s-.06,.07-.08,.1c0,0-.01,.02-.02,.03-.02,.03-.04,.06-.06,.1l-.02,.04s-.03,.06-.04,.1c0,.01-.01,.03-.02,.04l-.04,.1s-.01,.03-.02,.05c-.01,.03-.02,.06-.03,.1,0,.02-.01,.04-.01,.06,0,.03-.01,.07-.02,.1v.06s-.02,.07-.03,.1c0,.02,0,.04,0,.06,0,.04,0,.08,0,.12v.05c0,.06,0,.12,0,.18,0,3.84,6.51,2,6.51,4.96,0,1.1-.88,1.73-2.98,1.73-.1,0-.2,0-.29,0h-.09c-.07,0-.14,0-.21-.01-.03,0-.05,0-.08,0-.08,0-.16-.01-.24-.02-.04,0-.07,0-.11-.01h-.12l-.13-.03s-.04,0-.06,0c-.11-.01-.21-.03-.3-.05-.74-.12-1.23-.28-1.55-.31h0s-.07,0-.1,0c-.2,0-.47,.08-.47,.49,0,.03,0,.06,0,.09h0s.01,.08,.03,.11v.03s.02,.02,.03,.03c0,.01,.01,.02,.02,.03,0,.01,.01,.02,.02,.03,0,0,.02,.02,.03,.03l.03,.02s.02,.02,.04,.03l.03,.02s.04,.02,.05,.03h.02s.06,.04,.09,.05c.02,0,.04,.01,.06,.02h.03l.04,.02,.11,.03h0s.05,.02,.08,.02h.03s.05,.02,.08,.03c.01,0,.03,0,.04,.01,.03,0,.06,.01,.09,.02,.02,0,.04,0,.06,.01,.04,0,.08,.02,.12,.03,.04,0,.07,.02,.11,.02h.07s.07,.03,.11,.03c.02,0,.05,0,.08,.01,.04,0,.08,.01,.12,.02h.08s.09,.02,.14,.03c.02,0,.05,0,.07,0,.07,0,.14,.02,.22,.03h0c.08,.01,.16,.02,.24,.02,.02,0,.05,0,.07,0,.06,0,.12,.01,.18,.01h.09c.06,.01,.12,.01,.18,.02,.03,0,.07,0,.1,0,.07,0,.13,0,.2,0,.03,0,.06,0,.09,0,.1,0,.2,0,.3,0s.2,0,.3,0h.1c.07,0,.13,0,.19-.01,.04,0,.07,0,.11,0,.06,0,.11,0,.17-.01,.04,0,.07,0,.11,0,.05,0,.1,0,.16-.01,.04,0,.07,0,.11-.01l.15-.02s.07,0,.1-.01c.05,0,.1-.02,.15-.02,.03,0,.06,0,.09-.01,.05,0,.1-.02,.15-.03l.07-.02c.15-.03,.28-.06,.41-.1,.02,0,.04-.01,.06-.02,.04-.01,.09-.03,.13-.04,.02,0,.05-.02,.07-.03,.04-.01,.07-.03,.11-.04,.02-.01,.05-.02,.07-.03,.03-.01,.07-.03,.1-.04,.02-.01,.04-.02,.07-.03,.03-.02,.06-.03,.09-.05,.02-.01,.04-.02,.06-.03,.03-.02,.06-.03,.09-.05,.02-.01,.04-.02,.05-.03,.03-.02,.06-.04,.09-.06,.01-.01,.03-.02,.04-.03,.04-.03,.09-.06,.12-.1h0s.07-.06,.1-.09l.03-.03s.04-.05,.07-.07c0-.01,.02-.02,.03-.04,.02-.02,.04-.04,.06-.07l.03-.04s.03-.05,.05-.07c0-.01,.02-.02,.03-.04,.02-.02,.03-.05,.05-.08l.02-.03s.03-.06,.05-.09v-.02c.05-.08,.09-.16,.12-.25v-.02s.03-.07,.04-.1v-.04s.03-.06,.03-.1v-.04s.02-.06,.03-.1v-.04s.02-.07,.02-.1c0-.01,0-.02,0-.04,0-.04,0-.08,0-.12v-.02c0-.05,0-.1,0-.15,0-3.94-6.51-2.37-6.51-5.02m10.2-5.17c0-.45-.37-.82-.82-.82s-.84,.37-.84,.82c0,.04,0,.07,0,.11v.03s.02,.06,.03,.09h0s.02,.08,.04,.11v.02s.04,.06,.06,.09h0s.04,.06,.07,.09h0c.09,.11,.22,.19,.36,.24h0s.05,.02,.08,.02h.01s.04,.01,.07,.02c0,0,.02,0,.02,0,.02,0,.04,0,.06,0h.03c.45,0,.82-.37,.82-.82m11.72,12.27v-5.65c0-.11,0-.22,0-.32v-.04c0-.09,0-.17,0-.26,0-.03,0-.05,0-.08,0-.07,0-.14-.01-.2v-.09c-.01-.06-.02-.12-.02-.18v-.09c-.01-.05-.02-.11-.03-.16,0-.03,0-.06-.01-.09,0-.05-.01-.1-.02-.15,0-.03-.01-.06-.01-.09,0-.05-.02-.09-.03-.14v-.08c-.03-.05-.04-.1-.05-.15,0-.02,0-.04-.01-.05-.02-.06-.04-.12-.05-.18,0-.03-.02-.05-.03-.08-.01-.03-.02-.07-.04-.1-.01-.03-.02-.05-.04-.08-.01-.03-.02-.06-.04-.08-.01-.03-.03-.05-.04-.08-.01-.02-.02-.05-.04-.07-.01-.03-.03-.05-.04-.08-.01-.02-.03-.04-.04-.06-.02-.02-.03-.05-.05-.07-.01-.02-.03-.04-.04-.05-.02-.02-.04-.05-.06-.07-.01-.01-.03-.03-.04-.04-.02-.02-.04-.05-.07-.07-.01-.01-.02-.02-.03-.03-.09-.08-.19-.16-.3-.23h-.02s-.07-.05-.1-.07c-.01,0-.03-.01-.04-.02-.03-.02-.07-.03-.1-.05l-.05-.02s-.07-.03-.11-.04c-.02,0-.03-.01-.05-.02-.04-.01-.08-.03-.12-.04-.01,0-.03,0-.04-.01-.04-.01-.08-.02-.13-.03h-.04s-.1-.03-.15-.04h0c-.3-.06-.63-.1-1-.12h0c-.07,0-.15,0-.23-.01h0c-.07,0-.15,0-.23,0h0c-.07,0-.15,0-.23,0-.01,0-.03,0-.05,0h-.2c-.09,0-.18,0-.27,0h0c-.12,0-.23,0-.34,0-.04,0-.07,0-.1,0-.08,0-.15,0-.23,0h-.12c-.07,0-.13,0-.2,0-.04,0-.08,0-.11,0-.07,0-.13,0-.19,0-.03,0-.07,0-.1,0-.07,0-.15,.01-.22,.02-.02,0-.04,0-.06,0-.09,0-.17,.02-.26,.03-.02,0-.04,0-.06,0-.06,0-.12,.02-.18,.03-.03,0-.05,0-.08,.02-.05,0-.1,.02-.15,.03-.03,0-.05,.01-.08,.02-.05,.01-.09,.02-.13,.04l-.07,.02s-.09,.03-.14,.05c-.02,0-.03,.01-.05,.02-.06,.02-.12,.05-.18,.08h-.01c-.05,.03-.1,.06-.15,.09-.01,0-.03,.02-.04,.03-.04,.02-.07,.05-.1,.07-.02,.01-.03,.02-.05,.04-.03,.03-.06,.05-.09,.08-.01,.01-.03,.03-.04,.04-.03,.03-.06,.06-.09,.09-.01,.01-.02,.02-.03,.04-.05,.06-.09,.12-.13,.18-.02,.03-.04,.06-.06,.09-.01,.02-.02,.04-.03,.06-.01,.03-.03,.06-.04,.08,0,.02-.02,.04-.03,.06-.01,.03-.03,.06-.04,.09,0,.02-.02,.04-.02,.07-.01,.04-.03,.08-.04,.12v.05c-.03,.06-.05,.12-.06,.18,0,.02,0,.05-.02,.07,0,.04-.02,.08-.03,.12v.08s-.03,.08-.04,.13c0,.03,0,.06-.01,.09,0,.05-.01,.1-.02,.15v.07c-.02,.08-.03,.15-.03,.24,0,.02,0,.04,0,.06,0,.06,0,.13-.01,.19,0,.03,0,.06,0,.1,0,.06,0,.12,0,.18,0,.03,0,.07,0,.1,0,.06,0,.13,0,.2,0,.03,0,.06,0,.09,0,.1,0,.2,0,.3v5.65c0,.35,.25,.51,.57,.51h0c.31,0,.57-.16,.57-.47v-5.74c0-2.74,.49-3.04,3.14-3.04,1.37,0,2.24,.11,2.71,.82h0c.07,.11,.14,.24,.19,.38h0s.02,.08,.04,.11v.02c.04,.1,.07,.21,.09,.33v.04s.02,.06,.03,.1c0,.02,0,.05,.01,.07,0,.03,0,.06,.01,.09,0,.03,0,.06,.01,.09,0,.03,0,.06,.01,.08,0,.06,.01,.12,.02,.18,0,.02,0,.05,0,.07,0,.04,0,.09,0,.13v.08s0,.1,0,.15c0,.02,0,.05,0,.07,0,.07,0,.15,0,.23v5.74c0,.31,.27,.47,.57,.47s.57-.16,.57-.51m11.12-6.57c0,.08,0,.16,0,.24v.03c0,.15-.01,.29-.02,.43,0,.01,0,.02,0,.03-.01,.13-.03,.24-.06,.35v.03c-.04,.11-.07,.2-.11,.29v.03s-.06,.08-.08,.12c-.02,.03-.05,.06-.07,.09l-.02,.03s-.04,.04-.06,.06l-.03,.03s-.04,.04-.07,.06l-.03,.02s-.07,.05-.11,.07c-.04,.02-.08,.04-.12,.06l-.04,.02s-.06,.03-.09,.04l-.05,.02s-.07,.02-.1,.03l-.05,.02c-.05,.01-.11,.03-.17,.04h0c-.06,.01-.12,.03-.18,.04-.02,0-.04,0-.06,.01-.04,0-.09,.01-.14,.02h-.07s-.1,.02-.15,.03c-.02,0-.05,0-.07,0-.08,0-.15,.01-.24,.02-.08,0-.17,.01-.26,.01-.03,0-.06,0-.08,0-.06,0-.13,0-.19,0h-.1c-.07,0-.14,0-.21,0-.03,0-.06,0-.09,0-.1,0-.21,0-.32,0-.08,0-.15,0-.22,0h-.07s-.09,0-.14,0c-.03,0-.05,0-.08,0-.04,0-.08,0-.12,0-.03,0-.05,0-.08,0-.04,0-.09,0-.13,0-.03,0-.07,0-.1,0h-.13s-.06,0-.08-.01c-.03,0-.06,0-.09,0h-.16s-.06-.02-.08-.02h-.06c-.06-.01-.12-.02-.17-.03-.01,0-.03,0-.04,0-.03,0-.05,0-.08-.01h-.05l-.08-.02h-.05s-.05-.02-.08-.03h-.03c-.06-.02-.11-.04-.17-.06-.06-.02-.11-.04-.16-.06,0,0-.02,0-.02-.01-.05-.02-.09-.05-.14-.07-.09-.05-.16-.12-.23-.19-.01-.01-.02-.02-.03-.03-.03-.04-.06-.08-.09-.12v-.02c-.06-.07-.09-.15-.12-.24,0-.02-.01-.04-.02-.06-.08-.27-.11-.61-.11-1.03v-.37c0-.05,0-.1,0-.15,0-.02,0-.04,0-.06,0-.03,0-.05,0-.08,0-.03,0-.07,0-.1v-.04s.01-.08,.02-.12h0s.01-.09,.02-.13h0s.02-.08,.02-.12h0c.09-.38,.26-.65,.55-.85,.48-.32,1.27-.42,2.53-.42,.15,0,.3,0,.44,0h0c.07,0,.13,0,.2,0h.02c.26,0,.5,.02,.73,.03,.01,0,.02,0,.03,0,.05,0,.1,0,.15,0h.18l.03,.02c.15,.01,.29,.03,.43,.04h.06s.07,.01,.11,.02c.02,0,.04,0,.07,0,.04,0,.07,0,.11,.01,.02,0,.05,0,.07,0,.08,.01,.17,.02,.25,.03h0c.08,.01,.16,.02,.25,.04h0c.12,.02,.25,.04,.38,.06v1.88Zm-6.67,6.13h3.82c.1,0,.2,0,.3,0,.03,0,.06,0,.09,0,.07,0,.14,0,.2,0h.08c.08,0,.15,.01,.23,.01,.01,0,.02,0,.03,0,.08,0,.16,.01,.24,.02h.07c.06,.01,.11,.02,.17,.02,.02,0,.05,0,.07,0,.06,0,.11,.01,.17,.02h.04c.07,.02,.13,.03,.19,.04,.02,0,.03,0,.05,.01,.05,0,.09,.02,.14,.03,.02,0,.04,0,.05,.01,.04,.01,.08,.02,.12,.03h.04c.05,.03,.1,.04,.15,.06h.03s.07,.04,.11,.06l.04,.02s.06,.03,.09,.05l.03,.02s.08,.04,.11,.07h.01s.06,.05,.09,.07l.03,.02s.04,.04,.06,.06c0,0,.02,.02,.03,.03,.03,.03,.05,.06,.07,.08,.02,.03,.05,.06,.07,.1l.02,.03s.03,.06,.04,.08v.02s.05,.07,.06,.11v.02s.03,.07,.04,.1v.03s.03,.07,.03,.11h0c0,.06,.01,.1,.02,.15v.02s0,.08,.01,.12v.03s0,.1,0,.15c0,.08,0,.16,0,.23v.02c0,.07-.02,.14-.03,.21v.03c-.02,.07-.03,.13-.05,.19v.02c-.04,.12-.09,.24-.15,.34v.02s-.07,.09-.11,.14l-.02,.02s-.07,.08-.11,.12l-.02,.02s-.09,.08-.14,.11c-.04,.03-.07,.05-.11,.07h0s-.08,.05-.12,.07c-.58,.29-1.46,.39-2.72,.39-.13,0-.26,0-.38,0h-.02c-.12,0-.23,0-.35-.01h-.04c-.11,0-.22-.01-.32-.02h-.02c-.21-.02-.41-.04-.59-.06h-.03c-.09-.02-.17-.03-.25-.05h-.04c-.08-.02-.15-.04-.23-.06h-.03c-.07-.03-.15-.05-.22-.07h0s-.09-.03-.13-.05c-.01,0-.03-.01-.04-.02-.03-.01-.06-.02-.08-.03l-.05-.02s-.05-.02-.07-.03c-.02,0-.03-.02-.05-.02-.02-.01-.04-.02-.06-.04l-.04-.03s-.04-.03-.06-.04c-.01,0-.03-.02-.04-.03-.02-.02-.04-.03-.05-.04-.01-.01-.02-.02-.03-.03-.02-.02-.04-.03-.05-.05l-.03-.03s-.05-.05-.07-.08h0s-.04-.06-.06-.09c0-.01-.01-.02-.02-.03-.01-.02-.02-.04-.04-.06,0-.01-.01-.02-.02-.04-.01-.02-.02-.04-.03-.06,0-.01-.01-.03-.02-.04,0-.02-.02-.04-.02-.06v-.05s-.03-.04-.03-.07c0-.01,0-.03-.01-.05,0-.02,0-.05-.01-.07v-.05s-.01-.06-.01-.08c0-.01,0-.03,0-.04,0-.04,0-.09,0-.13v-2.12Zm7.85-5.46c0-.14,.01-.29,.01-.44v-4.63c0-.26-.31-.45-.61-.45s-.57,.18-.57,.45v1.55c-1.18-.2-2.1-.26-3.49-.26h0c-.08,0-.16,0-.24,0-.07,0-.14,0-.2,0-.07,0-.14,0-.21,0-.08,0-.15,0-.23,0-.02,0-.04,0-.05,0-.08,0-.16,0-.24,.01-.07,0-.14,0-.21,.01-.11,0-.21,.02-.31,.03h-.04c-.09,.01-.18,.03-.27,.04h-.08c-.06,.02-.12,.03-.18,.04-.02,0-.03,0-.05,.01-.04,0-.09,.02-.13,.03h-.05c-.11,.04-.22,.07-.32,.1-.02,0-.03,0-.04,.01-.04,.01-.07,.03-.11,.04-.01,0-.03,.01-.04,.02-.09,.04-.18,.08-.26,.13-.01,0-.02,.01-.03,.02-.03,.02-.06,.04-.09,.06l-.03,.02c-.08,.05-.15,.11-.21,.17l-.02,.02s-.05,.05-.07,.07l-.02,.02c-.06,.07-.11,.14-.16,.22l-.02,.02s-.04,.06-.06,.1v.02c-.06,.08-.1,.17-.13,.27v.02s-.04,.08-.05,.13v.02c-.04,.1-.06,.21-.08,.33v.02c-.01,.05-.02,.11-.03,.16v.02c-.02,.13-.03,.26-.04,.4h0c0,.08,0,.15,0,.22h0c0,.08,0,.16,0,.24v8.27c0,.12,0,.23,.01,.34v.05s.01,.08,.02,.12c0,.02,0,.04,0,.06,0,.04,.01,.07,.02,.1,0,.02,0,.05,.01,.07,0,.03,.01,.06,.02,.09,0,.02,.01,.05,.02,.07,0,.03,.02,.06,.03,.09,0,.02,.01,.05,.02,.07,.01,.03,.02,.05,.03,.08,0,.02,.02,.05,.03,.07,.01,.02,.02,.05,.04,.07,.01,.02,.02,.04,.03,.07,.01,.02,.03,.05,.04,.07,.01,.02,.03,.04,.04,.06,.01,.02,.03,.04,.04,.06,.01,.02,.03,.04,.05,.06,.02,.02,.03,.04,.05,.06,.02,.02,.03,.04,.05,.06,.02,.02,.03,.04,.05,.05,.02,.02,.04,.04,.06,.06,.02,.02,.04,.03,.06,.05,.02,.02,.04,.04,.07,.05,.02,.01,.04,.03,.06,.04,.02,.02,.05,.03,.08,.05,.02,.01,.04,.03,.06,.04,.03,.02,.06,.04,.09,.05,.02,.01,.03,.02,.05,.03,.05,.03,.1,.05,.15,.08h0c.05,.02,.1,.05,.15,.07l.06,.02s.07,.03,.11,.04c.02,0,.05,.02,.07,.02,.03,.01,.07,.02,.1,.03,.03,0,.05,.02,.08,.02,.03,.01,.07,.02,.11,.03,.03,0,.06,.01,.08,.02,.04,0,.07,.02,.11,.02l.09,.02s.07,.01,.11,.02c.03,0,.06,.01,.1,.02,.04,0,.08,.01,.12,.02,.03,0,.07,.01,.1,.01,.04,0,.08,.01,.12,.02h.1s.09,.02,.13,.03c.04,0,.07,0,.11,.01h.14s.07,.02,.11,.02c.05,0,.1,0,.15,.01,.04,0,.07,0,.11,0,.05,0,.1,0,.15,0,.04,0,.07,0,.11,0h.47s.06,.01,.1,.01c.1,0,.2,0,.3,0h0c.11,0,.23,0,.34,0,.03,0,.07,0,.1,0,.08,0,.15,0,.23,0,.04,0,.07,0,.11,0,.07,0,.14,0,.21,0,.03,0,.07,0,.1,0,.08,0,.15,0,.23-.02,.02,0,.05,0,.07,0,.2-.01,.38-.03,.56-.06h.05c.07-.02,.14-.03,.21-.04h.05c.07-.02,.14-.03,.2-.05h.04c.08-.02,.15-.04,.22-.06h0c.16-.04,.3-.09,.44-.14h.01c.06-.03,.12-.05,.18-.08h.02c.06-.04,.11-.07,.17-.09h.01c.18-.11,.33-.22,.47-.35,.09-.08,.17-.17,.24-.27l.02-.02s.04-.06,.06-.09c0-.01,.01-.02,.02-.03,.02-.03,.04-.06,.05-.09v-.03c.05-.06,.07-.12,.1-.19v-.03s.04-.06,.05-.09l.02-.07s.02-.06,.02-.08c0-.03,.02-.05,.02-.08,0-.03,.01-.05,.02-.08,0-.04,.02-.07,.02-.11v-.08s.03-.1,.04-.14v-.07s.02-.08,.02-.12c0-.02,0-.05,0-.07,0-.05,0-.09,0-.14,0-.02,0-.04,0-.07,0-.07,0-.14,0-.21,0-2.04-.96-2.74-4.51-2.74h-3.88v-2.16h.06c.63,.18,1.47,.31,3.25,.31,.11,0,.22,0,.33,0,.03,0,.07,0,.1,0,.07,0,.14,0,.21,0,.04,0,.08,0,.12,0h.18s.08,0,.12-.01h.16s.08-.01,.12-.02c.05,0,.1,0,.15-.01,.04,0,.08,0,.12-.01,.05,0,.1,0,.14-.01,.04,0,.07,0,.11-.01,.05,0,.09-.01,.13-.02,.04,0,.07,0,.11-.01,.04,0,.08-.01,.13-.02,.03,0,.07-.01,.1-.02,.04,0,.08-.01,.12-.02,.03,0,.06-.01,.09-.02,.04,0,.08-.02,.11-.03,.03,0,.06-.01,.09-.02,.04-.01,.07-.02,.1-.03,.03,0,.06-.02,.08-.02,.03-.01,.07-.02,.1-.03,.03,0,.05-.02,.08-.03,.03-.01,.06-.03,.1-.04,.02-.01,.05-.02,.07-.03,.03-.01,.06-.03,.09-.05,.02-.01,.04-.02,.06-.03,.03-.02,.06-.04,.1-.06,.01,0,.03-.02,.04-.03,.05-.03,.09-.06,.13-.09,.04-.03,.08-.06,.11-.09l.03-.03s.05-.05,.07-.07c.01-.01,.02-.02,.03-.04,.02-.02,.04-.05,.06-.07,.01-.01,.02-.03,.03-.04,.02-.02,.04-.05,.05-.07l.03-.05s.03-.05,.05-.08l.03-.05s.03-.06,.04-.08c0-.02,.01-.03,.02-.05,.01-.03,.03-.06,.04-.09,0-.02,.01-.04,.02-.05,.01-.03,.02-.07,.03-.1l.02-.05s.02-.07,.03-.11c0-.02,0-.03,.01-.05,0-.04,.02-.08,.03-.12v-.05s.02-.09,.03-.13c0-.01,0-.03,0-.04,0-.05,.01-.1,.02-.16v-.03c0-.06,.01-.13,.02-.19h0"/><path class="cls-3" d="M190.44,559.75c-.79,0-1.4,.34-1.4,1.17v.9c-.64-.12-1.62-.21-2.57-.21-3.88,0-5.32,.36-5.32,3.76v8.94c0,3.07,1.69,3.59,5.37,3.59,3.95,0,5.42-.74,5.42-3.88,0-2.57-1-3.64-4.4-3.64h-3.64v-1.02c.69,.12,1.54,.12,2.57,.12,3.9,0,5.32-.62,5.32-3.85v-4.71c0-.83-.62-1.17-1.35-1.17m-3.98,7.13c-2.31,0-2.57-.09-2.57-1.31v-.09c0-1.05,.67-1.26,2.57-1.26,.83,0,1.86,.07,2.57,.17v.98c0,1.21-.29,1.52-2.57,1.52m.07,8.44c-1.71,0-2.64-.21-2.64-1v-1.47h3.07c1.57,0,2.26,.26,2.26,1.28,0,.95-.86,1.19-2.69,1.19m-11.93-13.72c-4.28,0-4.73,.45-4.73,1.66,0,.76,.31,1.33,1.17,1.33,1.19,0,1.5-.28,3.45-.28,1.45,0,1.88,.24,1.88,.98v.95h-3.11c-3.5,0-4.09,1.14-4.09,3.76,0,3.23,1.12,3.73,5.09,3.73,3.71,0,5.04-.5,5.04-3.64v-4.47c0-2.9-1-4.02-4.68-4.02m-.45,9.48c-1.71,0-2.19-.28-2.19-1.16,0-1,.33-1.16,1.78-1.16h2.54v1.47c0,.64-.57,.86-2.14,.86m-11.77-9.48c-1.48,0-2.71,.33-3.47,.74-.81-.43-1.9-.74-3.42-.74-3.71,0-4.9,.59-4.9,5.02v5.71c0,.88,.67,1.24,1.47,1.24s1.45-.36,1.45-1.24v-5.44c0-2.16,.26-2.5,1.97-2.5,1.59,0,1.97,.33,1.97,1.95v5.99c0,.88,.67,1.24,1.47,1.24s1.48-.36,1.48-1.24v-5.71c0-1.9,.33-2.24,1.97-2.24s1.97,.33,1.97,2.5v5.44c0,.88,.64,1.24,1.45,1.24s1.47-.36,1.47-1.24v-5.71c0-4.42-1.19-5.02-4.9-5.02m-18.33,0c-4.28,0-4.73,.45-4.73,1.66,0,.76,.31,1.33,1.17,1.33,1.19,0,1.5-.28,3.45-.28,1.45,0,1.88,.24,1.88,.98v.95h-3.11c-3.49,0-4.09,1.14-4.09,3.76,0,3.23,1.12,3.73,5.09,3.73,3.71,0,5.04-.5,5.04-3.64v-4.47c0-2.9-1-4.02-4.68-4.02m-.38,9.48c-1.71,0-2.19-.28-2.19-1.16,0-1,.33-1.16,1.78-1.16h2.54v1.47c0,.64-.57,.86-2.14,.86"/></g></g></g></g></svg>