<svg xmlns="http://www.w3.org/2000/svg" viewBox="0 0 132.81 7.79"><title>t-black-160</title><g id="Layer_2" data-name="Layer 2"><g id="Layer_1-2" data-name="Layer 1"><path d="M0,.14H2.71a2.53,2.53,0,0,1,1,.17,1.85,1.85,0,0,1,.64.43,1.83,1.83,0,0,1,.36.62,2.15,2.15,0,0,1,.11.71,2.15,2.15,0,0,1-.11.71,1.83,1.83,0,0,1-.36.62,1.85,1.85,0,0,1-.64.43,2.54,2.54,0,0,1-1,.16H1.32V6.15H0ZM1.32,3h1a2,2,0,0,0,.43,0,.86.86,0,0,0,.37-.13.68.68,0,0,0,.26-.27,1,1,0,0,0,.1-.46,1,1,0,0,0-.1-.46.78.78,0,0,0-.26-.28,1,1,0,0,0-.37-.13,3,3,0,0,0-.43,0h-1Z"/><path d="M5.44.14H6.63v6H5.44Z"/><path d="M7.45,3.14a1.45,1.45,0,0,1,.21-.7A1.35,1.35,0,0,1,8.13,2a2.12,2.12,0,0,1,.64-.24,4.28,4.28,0,0,1,.72-.07,5.16,5.16,0,0,1,.67.05,2.05,2.05,0,0,1,.61.18,1,1,0,0,1,.45.38,1,1,0,0,1,.18.63V5.18a5,5,0,0,0,0,.56,1.35,1.35,0,0,0,.12.41H10.34a1.6,1.6,0,0,1-.05-.21.76.76,0,0,1,0-.21,1.64,1.64,0,0,1-.68.41,2.61,2.61,0,0,1-.79.12,1.85,1.85,0,0,1-.58-.08,1.31,1.31,0,0,1-.47-.24,1,1,0,0,1-.31-.4A1.31,1.31,0,0,1,7.31,5a1.35,1.35,0,0,1,.13-.61A1,1,0,0,1,7.78,4a1.56,1.56,0,0,1,.47-.22l.54-.11.53-.07a2.66,2.66,0,0,0,.45-.07.79.79,0,0,0,.32-.15.34.34,0,0,0,.12-.28.57.57,0,0,0-.07-.31A.44.44,0,0,0,10,2.59a.68.68,0,0,0-.25-.09l-.3,0a.92.92,0,0,0-.55.15.73.73,0,0,0-.24.51ZM10.21,4a.57.57,0,0,1-.19.1l-.25.07-.27,0-.29,0L9,4.34a.82.82,0,0,0-.23.11.58.58,0,0,0-.15.19.64.64,0,0,0,0,.54.44.44,0,0,0,.16.17A.69.69,0,0,0,9,5.44a1.27,1.27,0,0,0,.28,0,1.05,1.05,0,0,0,.55-.11.83.83,0,0,0,.28-.28,1.06,1.06,0,0,0,.12-.34c0-.11,0-.2,0-.27Z"/><path d="M12.25,1.8h1.13v.6h0A1.46,1.46,0,0,1,14,1.86a1.65,1.65,0,0,1,.74-.18,2.11,2.11,0,0,1,.78.13,1.23,1.23,0,0,1,.49.36,1.48,1.48,0,0,1,.25.57,4,4,0,0,1,.07.73V6.15h-1.2V3.69a1.42,1.42,0,0,0-.17-.8.64.64,0,0,0-.59-.27.84.84,0,0,0-.71.29,1.68,1.68,0,0,0-.22,1V6.15H12.25Z"/><path d="M17.16,1.8h1.13v.6h0a1.46,1.46,0,0,1,.59-.54,1.65,1.65,0,0,1,.74-.18,2.11,2.11,0,0,1,.78.13,1.23,1.23,0,0,1,.49.36,1.48,1.48,0,0,1,.25.57,4,4,0,0,1,.07.73V6.15H20V3.69a1.42,1.42,0,0,0-.17-.8.64.64,0,0,0-.59-.27.84.84,0,0,0-.71.29,1.68,1.68,0,0,0-.22,1V6.15H17.16Z"/><path d="M23.3,1.13H22.1v-1h1.2Zm-1.2.67h1.2V6.15H22.1Z"/><path d="M24.15,1.8h1.14v.6h0a1.52,1.52,0,0,1,.59-.54,1.65,1.65,0,0,1,.74-.18,2.21,2.21,0,0,1,.79.13,1.27,1.27,0,0,1,.48.36,1.48,1.48,0,0,1,.25.57,3.29,3.29,0,0,1,.07.73V6.15H27V3.69a1.51,1.51,0,0,0-.17-.8.67.67,0,0,0-.6-.27.82.82,0,0,0-.7.29,1.6,1.6,0,0,0-.22,1V6.15h-1.2Z"/><path d="M33.24,5.87a2.77,2.77,0,0,1,0,.39,1.7,1.7,0,0,1-.11.43,1.57,1.57,0,0,1-.24.41,1.38,1.38,0,0,1-.4.35,2,2,0,0,1-.61.25,3.6,3.6,0,0,1-.86.09,2.46,2.46,0,0,1-.65-.08,2.16,2.16,0,0,1-.61-.24A1.57,1.57,0,0,1,29.28,7a1.24,1.24,0,0,1-.21-.63h1.2a.64.64,0,0,0,.32.46,1.13,1.13,0,0,0,.56.14.87.87,0,0,0,.73-.31,1.2,1.2,0,0,0,.23-.77V5.35h0a1.18,1.18,0,0,1-.55.51,1.78,1.78,0,0,1-.75.16A1.93,1.93,0,0,1,30,5.85a1.59,1.59,0,0,1-.58-.47,1.81,1.81,0,0,1-.33-.7,3,3,0,0,1-.11-.85A2.74,2.74,0,0,1,29.05,3a2.06,2.06,0,0,1,.36-.69,1.72,1.72,0,0,1,1.39-.65,1.65,1.65,0,0,1,.75.16,1.33,1.33,0,0,1,.54.54h0V1.8h1.13Zm-2.15-.75a.93.93,0,0,0,.45-.1,1,1,0,0,0,.32-.27A1.21,1.21,0,0,0,32,4.37a1.33,1.33,0,0,0,.07-.45,2.84,2.84,0,0,0,0-.51A1.49,1.49,0,0,0,31.89,3a.82.82,0,0,0-.32-.29,1,1,0,0,0-.48-.11.83.83,0,0,0-.43.1,1,1,0,0,0-.31.28,1,1,0,0,0-.17.39,1.78,1.78,0,0,0-.06.47,2.4,2.4,0,0,0,.05.46,1.11,1.11,0,0,0,.16.42,1,1,0,0,0,.3.3A.83.83,0,0,0,31.09,5.12Z"/><path d="M36.5.14h4.23V1.25H37.82V2.64h2.52v1H37.82V6.15H36.5Z"/><path d="M41.29,1.8h1.13v.81h0a1.48,1.48,0,0,1,.23-.38A1.32,1.32,0,0,1,43,1.94a1.41,1.41,0,0,1,.39-.19,1.35,1.35,0,0,1,.44-.07,1.17,1.17,0,0,1,.26,0V2.83l-.2,0h-.23a1.36,1.36,0,0,0-.56.11.88.88,0,0,0-.36.3,1.27,1.27,0,0,0-.2.44,2.51,2.51,0,0,0-.06.55v2H41.29Z"/><path d="M44.43,3.14a1.45,1.45,0,0,1,.21-.7A1.44,1.44,0,0,1,45.11,2a2.23,2.23,0,0,1,.64-.24,4.4,4.4,0,0,1,.73-.07,5,5,0,0,1,.66.05,2,2,0,0,1,.61.18,1.14,1.14,0,0,1,.46.38,1,1,0,0,1,.17.63V5.18a4.92,4.92,0,0,0,0,.56,1,1,0,0,0,.12.41H47.33a.83.83,0,0,1-.06-.21l0-.21a1.6,1.6,0,0,1-.67.41,2.66,2.66,0,0,1-.79.12,1.81,1.81,0,0,1-.58-.08,1.23,1.23,0,0,1-.47-.24,1.05,1.05,0,0,1-.32-.4A1.46,1.46,0,0,1,44.3,5a1.35,1.35,0,0,1,.12-.61A1,1,0,0,1,44.76,4a1.51,1.51,0,0,1,.48-.22l.54-.11.53-.07a2.66,2.66,0,0,0,.45-.07.82.82,0,0,0,.31-.15.34.34,0,0,0,.12-.28.68.68,0,0,0-.06-.31A.46.46,0,0,0,47,2.59a.63.63,0,0,0-.24-.09l-.3,0a.9.9,0,0,0-.55.15.66.66,0,0,0-.24.51ZM47.19,4a.49.49,0,0,1-.19.1l-.24.07-.28,0-.28,0-.27.07a.76.76,0,0,0-.22.11.49.49,0,0,0-.16.19.64.64,0,0,0,0,.54.44.44,0,0,0,.16.17.85.85,0,0,0,.24.09,1.23,1.23,0,0,0,.27,0,1.05,1.05,0,0,0,.55-.11,1,1,0,0,0,.29-.28.85.85,0,0,0,.11-.34c0-.11,0-.2,0-.27Z"/><path d="M49.27,1.8h1.12v.59h0A1.65,1.65,0,0,1,51,1.87a1.45,1.45,0,0,1,.76-.19,1.72,1.72,0,0,1,.75.17A1.08,1.08,0,0,1,53,2.4a1.92,1.92,0,0,1,.52-.5,1.38,1.38,0,0,1,.79-.22,2.2,2.2,0,0,1,.64.09,1.26,1.26,0,0,1,.5.26,1.32,1.32,0,0,1,.33.49,1.94,1.94,0,0,1,.12.72V6.15h-1.2V3.68c0-.14,0-.28,0-.41a.9.9,0,0,0-.09-.34.54.54,0,0,0-.23-.22.76.76,0,0,0-.4-.09.79.79,0,0,0-.4.1.67.67,0,0,0-.25.25,1,1,0,0,0-.12.36,2.55,2.55,0,0,0,0,.39V6.15H52V3.71c0-.13,0-.25,0-.38A1,1,0,0,0,51.91,3a.49.49,0,0,0-.21-.26.83.83,0,0,0-.43-.1,1.24,1.24,0,0,0-.23,0,.73.73,0,0,0-.26.14.84.84,0,0,0-.23.31,1.23,1.23,0,0,0-.09.51V6.15H49.27Z"/><path d="M57.76,4.26a1.24,1.24,0,0,0,.29.84,1.05,1.05,0,0,0,.78.26,1.08,1.08,0,0,0,.62-.18.75.75,0,0,0,.32-.38h1a2.07,2.07,0,0,1-.77,1.12,2.25,2.25,0,0,1-1.27.34,2.43,2.43,0,0,1-.92-.16,1.94,1.94,0,0,1-.7-.48,2,2,0,0,1-.44-.72A2.73,2.73,0,0,1,56.56,4a2.67,2.67,0,0,1,.16-.91,2.21,2.21,0,0,1,.46-.73,2.2,2.2,0,0,1,1.6-.66,2,2,0,0,1,1,.22,1.89,1.89,0,0,1,.68.57,2.52,2.52,0,0,1,.38.83,2.78,2.78,0,0,1,.08,1Zm1.94-.75a1.38,1.38,0,0,0-.3-.69.82.82,0,0,0-.65-.24.94.94,0,0,0-.47.1.83.83,0,0,0-.31.24.87.87,0,0,0-.16.3,1.1,1.1,0,0,0-.05.29Z"/><path d="M66.49,6.15H65.27l-.78-2.92h0l-.74,2.92H62.5L61.12,1.8h1.26l.8,3h0l.72-2.95h1.16l.74,2.94h0l.8-2.94h1.22Z"/><path d="M68.15,4a2.59,2.59,0,0,1,.16-1,2.2,2.2,0,0,1,.45-.72,2.12,2.12,0,0,1,.71-.46,2.6,2.6,0,0,1,1.85,0,1.94,1.94,0,0,1,.71.46,2.07,2.07,0,0,1,.46.72,2.59,2.59,0,0,1,.16,1,2.58,2.58,0,0,1-.16.94,2.07,2.07,0,0,1-.46.72,1.94,1.94,0,0,1-.71.46,2.75,2.75,0,0,1-1.85,0,2.12,2.12,0,0,1-.71-.46,2.2,2.2,0,0,1-.45-.72A2.58,2.58,0,0,1,68.15,4Zm1.19,0a2.94,2.94,0,0,0,0,.51,1.57,1.57,0,0,0,.18.44,1,1,0,0,0,.32.32,1.07,1.07,0,0,0,.51.11,1.06,1.06,0,0,0,.5-.11.92.92,0,0,0,.33-.32,1.3,1.3,0,0,0,.17-.44,2.21,2.21,0,0,0,0-.51,2.24,2.24,0,0,0,0-.52A1.3,1.3,0,0,0,71.23,3a.92.92,0,0,0-.33-.32,1,1,0,0,0-.5-.12,1,1,0,0,0-.51.12,1,1,0,0,0-.32.32,1.57,1.57,0,0,0-.18.44A3,3,0,0,0,69.34,4Z"/><path d="M73.34,1.8h1.13v.81h0A1.51,1.51,0,0,1,75,1.94a1.62,1.62,0,0,1,.4-.19,1.35,1.35,0,0,1,.44-.07,1.17,1.17,0,0,1,.26,0V2.83l-.2,0h-.23a1.33,1.33,0,0,0-.56.11.88.88,0,0,0-.36.3,1.11,1.11,0,0,0-.2.44,2.51,2.51,0,0,0-.06.55v2H73.34Z"/><path d="M76.64.14h1.2V3.36l1.5-1.56h1.41L79.11,3.4l1.83,2.75H79.49L78.3,4.2l-.46.45v1.5h-1.2Z"/><path d="M87.66,2.16a1.06,1.06,0,0,0-.15-.42,1.5,1.5,0,0,0-.29-.33,1.41,1.41,0,0,0-.4-.22,1.5,1.5,0,0,0-.47-.08,1.57,1.57,0,0,0-.75.17,1.51,1.51,0,0,0-.51.46,2.15,2.15,0,0,0-.28.66,3.31,3.31,0,0,0-.09.77,3.06,3.06,0,0,0,.09.74,2,2,0,0,0,.28.64A1.51,1.51,0,0,0,85.6,5a1.57,1.57,0,0,0,.75.17,1.25,1.25,0,0,0,1-.37,1.79,1.79,0,0,0,.41-1H89a2.94,2.94,0,0,1-.26,1,2.4,2.4,0,0,1-1.36,1.27,3,3,0,0,1-1,.17A2.89,2.89,0,0,1,85.11,6a2.71,2.71,0,0,1-.93-.66,3,3,0,0,1-.58-1,3.76,3.76,0,0,1-.2-1.22,3.84,3.84,0,0,1,.2-1.24,3,3,0,0,1,.58-1,2.76,2.76,0,0,1,.93-.68A3,3,0,0,1,86.35,0a3.19,3.19,0,0,1,.94.14,2.72,2.72,0,0,1,.79.42,2.4,2.4,0,0,1,.58.68,2.37,2.37,0,0,1,.28.92Z"/><path d="M89.55,4a2.59,2.59,0,0,1,.16-1,1.91,1.91,0,0,1,.45-.72,2,2,0,0,1,.71-.46,2.43,2.43,0,0,1,.92-.17,2.52,2.52,0,0,1,.93.17,2,2,0,0,1,.71.46,2.07,2.07,0,0,1,.46.72A2.83,2.83,0,0,1,94,4a2.81,2.81,0,0,1-.15.94,2.07,2.07,0,0,1-.46.72,2,2,0,0,1-.71.46,2.52,2.52,0,0,1-.93.16,2.43,2.43,0,0,1-.92-.16,2,2,0,0,1-.71-.46,1.91,1.91,0,0,1-.45-.72A2.58,2.58,0,0,1,89.55,4Zm1.19,0a2.94,2.94,0,0,0,.05.51,1.3,1.3,0,0,0,.17.44.92.92,0,0,0,.33.32,1.06,1.06,0,0,0,.5.11,1.13,1.13,0,0,0,.51-.11.92.92,0,0,0,.33-.32,1.3,1.3,0,0,0,.17-.44,2.94,2.94,0,0,0,0-.51,3,3,0,0,0,0-.52A1.3,1.3,0,0,0,92.63,3a.92.92,0,0,0-.33-.32,1,1,0,0,0-.51-.12,1,1,0,0,0-.5.12A.92.92,0,0,0,91,3a1.3,1.3,0,0,0-.17.44A3,3,0,0,0,90.74,4Z"/><path d="M94.73,1.8h1.14v.6h0a1.52,1.52,0,0,1,.59-.54,1.65,1.65,0,0,1,.74-.18,2.21,2.21,0,0,1,.79.13,1.27,1.27,0,0,1,.48.36,1.48,1.48,0,0,1,.25.57,3.29,3.29,0,0,1,.07.73V6.15H97.62V3.69a1.41,1.41,0,0,0-.18-.8.64.64,0,0,0-.59-.27.82.82,0,0,0-.7.29,1.6,1.6,0,0,0-.22,1V6.15h-1.2Z"/><path d="M100.57,4.73a.74.74,0,0,0,.08.34.7.7,0,0,0,.2.22.81.81,0,0,0,.3.13,1.19,1.19,0,0,0,.33,0,1.23,1.23,0,0,0,.27,0,.69.69,0,0,0,.25-.1.44.44,0,0,0,.19-.17.42.42,0,0,0,.08-.26.29.29,0,0,0-.1-.23.73.73,0,0,0-.26-.17,2.72,2.72,0,0,0-.43-.14c-.16,0-.35-.09-.57-.13l-.51-.14a1.63,1.63,0,0,1-.44-.21,1.08,1.08,0,0,1-.31-.33.9.9,0,0,1-.12-.48,1.31,1.31,0,0,1,.17-.69,1.26,1.26,0,0,1,.43-.43,2.2,2.2,0,0,1,.61-.22,3.85,3.85,0,0,1,.69-.06,3.08,3.08,0,0,1,.68.07,1.62,1.62,0,0,1,.59.23,1.26,1.26,0,0,1,.44.42,1.47,1.47,0,0,1,.2.67h-1.13A.55.55,0,0,0,102,2.6a1.22,1.22,0,0,0-.56-.12h-.22a.73.73,0,0,0-.21.06.48.48,0,0,0-.16.12.28.28,0,0,0-.07.21.31.31,0,0,0,.12.26.79.79,0,0,0,.3.17,3.52,3.52,0,0,0,.44.11l.49.11.51.14a1.53,1.53,0,0,1,.44.23.92.92,0,0,1,.31.34,1,1,0,0,1,.12.51,1.42,1.42,0,0,1-.17.72,1.56,1.56,0,0,1-.45.47,2.14,2.14,0,0,1-.64.25,3.45,3.45,0,0,1-.72.07,3.57,3.57,0,0,1-.74-.07,2,2,0,0,1-.65-.26,1.59,1.59,0,0,1-.46-.47,1.49,1.49,0,0,1-.2-.73Z"/><path d="M108.16,6.15H107V5.54h0a1.41,1.41,0,0,1-.59.55,1.63,1.63,0,0,1-.74.17,1.92,1.92,0,0,1-.78-.13,1.07,1.07,0,0,1-.49-.36,1.52,1.52,0,0,1-.25-.56,4.14,4.14,0,0,1-.07-.74V1.8h1.2V4.25a1.48,1.48,0,0,0,.17.81.65.65,0,0,0,.59.26.82.82,0,0,0,.71-.29,1.64,1.64,0,0,0,.22-1V1.8h1.19Z"/><path d="M109,.14h1.19v6H109Z"/><path d="M112.59,1.8h.88v.8h-.88V4.75a.6.6,0,0,0,.1.4.6.6,0,0,0,.41.1,2.22,2.22,0,0,0,.37,0v.93l-.34,0h-.36a4.39,4.39,0,0,1-.53,0,1.36,1.36,0,0,1-.43-.15.77.77,0,0,1-.3-.32,1,1,0,0,1-.11-.53V2.6h-.72V1.8h.72V.5h1.19Z"/><path d="M113.91,3.14a1.45,1.45,0,0,1,.21-.7,1.35,1.35,0,0,1,.47-.45,2.23,2.23,0,0,1,.64-.24,4.39,4.39,0,0,1,.72-.07,5.16,5.16,0,0,1,.67.05,2,2,0,0,1,.61.18,1.14,1.14,0,0,1,.46.38,1.09,1.09,0,0,1,.17.63V5.18a3.36,3.36,0,0,0,0,.56,1.14,1.14,0,0,0,.11.41H116.8a1.6,1.6,0,0,1,0-.21.76.76,0,0,1,0-.21,1.67,1.67,0,0,1-.67.41,2.71,2.71,0,0,1-.79.12,1.77,1.77,0,0,1-.58-.08,1.23,1.23,0,0,1-.47-.24,1.05,1.05,0,0,1-.32-.4,1.31,1.31,0,0,1-.11-.58,1.35,1.35,0,0,1,.12-.61,1,1,0,0,1,.34-.38,1.56,1.56,0,0,1,.47-.22l.55-.11.53-.07a3,3,0,0,0,.45-.07.82.82,0,0,0,.31-.15.34.34,0,0,0,.12-.28.68.68,0,0,0-.06-.31.55.55,0,0,0-.17-.17.62.62,0,0,0-.25-.09l-.29,0a1,1,0,0,0-.56.15.73.73,0,0,0-.24.51Zm2.76.88a.49.49,0,0,1-.19.1l-.24.07-.28,0-.28,0-.27.07a.65.65,0,0,0-.22.11.49.49,0,0,0-.16.19.64.64,0,0,0,0,.54.44.44,0,0,0,.16.17.79.79,0,0,0,.23.09,1.32,1.32,0,0,0,.28,0,1.05,1.05,0,0,0,.55-.11.83.83,0,0,0,.28-.28.87.87,0,0,0,.12-.34c0-.11,0-.2,0-.27Z"/><path d="M120.23,1.8h.87v.8h-.87V4.75a.55.55,0,0,0,.1.4.55.55,0,0,0,.4.1,2.13,2.13,0,0,0,.37,0v.93l-.34,0h-.36a4.22,4.22,0,0,1-.52,0,1.43,1.43,0,0,1-.44-.15.77.77,0,0,1-.3-.32,1.13,1.13,0,0,1-.11-.53V2.6h-.72V1.8H119V.5h1.2Z"/><path d="M122.82,1.13h-1.19v-1h1.19Zm-1.19.67h1.19V6.15h-1.19Z"/><path d="M123.55,4a2.59,2.59,0,0,1,.16-1,1.91,1.91,0,0,1,.45-.72,2,2,0,0,1,.71-.46,2.43,2.43,0,0,1,.92-.17,2.52,2.52,0,0,1,.93.17,2,2,0,0,1,.71.46,2.07,2.07,0,0,1,.46.72A2.83,2.83,0,0,1,128,4a2.81,2.81,0,0,1-.15.94,2.07,2.07,0,0,1-.46.72,2,2,0,0,1-.71.46,2.52,2.52,0,0,1-.93.16,2.43,2.43,0,0,1-.92-.16,2,2,0,0,1-.71-.46,1.91,1.91,0,0,1-.45-.72A2.58,2.58,0,0,1,123.55,4Zm1.19,0a2.94,2.94,0,0,0,.05.51,1.3,1.3,0,0,0,.17.44.92.92,0,0,0,.33.32,1.06,1.06,0,0,0,.5.11,1.13,1.13,0,0,0,.51-.11.92.92,0,0,0,.33-.32,1.3,1.3,0,0,0,.17-.44,2.94,2.94,0,0,0,0-.51,3,3,0,0,0,0-.52,1.3,1.3,0,0,0-.17-.44.92.92,0,0,0-.33-.32,1,1,0,0,0-.51-.12,1,1,0,0,0-.5.12A.92.92,0,0,0,125,3a1.3,1.3,0,0,0-.17.44A3,3,0,0,0,124.74,4Z"/><path d="M128.73,1.8h1.14v.6h0a1.52,1.52,0,0,1,.59-.54,1.65,1.65,0,0,1,.74-.18,2.21,2.21,0,0,1,.79.13,1.27,1.27,0,0,1,.48.36,1.48,1.48,0,0,1,.25.57,3.29,3.29,0,0,1,.07.73V6.15h-1.19V3.69a1.41,1.41,0,0,0-.18-.8.64.64,0,0,0-.59-.27.82.82,0,0,0-.7.29,1.6,1.6,0,0,0-.22,1V6.15h-1.2Z"/></g></g></svg>