<svg xmlns="http://www.w3.org/2000/svg" viewBox="0 0 128.54 77.8"><defs><style>.cls-1{fill:#fff;}</style></defs><title>t-white-160</title><g id="Layer_2" data-name="Layer 2"><g id="Layer_1-2" data-name="Layer 1"><path class="cls-1" d="M12.25,5.72A4,4,0,0,0,8.08,2.39C4.5,2.39,3,5.55,3,8.76s1.5,6.37,5.08,6.37c2.6,0,4-1.94,4.26-4.38H15.2a6.85,6.85,0,0,1-7.12,6.77c-5,0-8-4-8-8.76S3.07,0,8.08,0c3.77,0,6.75,2.11,7.1,5.72Z"/><path class="cls-1" d="M16.72,11.06c0-3.7,2.22-6.38,6.11-6.38S29,7.36,29,11.06s-2.23,6.39-6.12,6.39S16.72,14.78,16.72,11.06Zm9.56,0c0-2.09-1.06-4.27-3.45-4.27S19.39,9,19.39,11.06s1.05,4.28,3.44,4.28S26.28,13.16,26.28,11.06Z"/><path class="cls-1" d="M31,5h2.53V6.7h.07a4,4,0,0,1,3.72-2,3.44,3.44,0,0,1,3.4,2,4.37,4.37,0,0,1,3.79-2c2.55,0,4.05,1.13,4.05,4.08v8.36H45.85V10.05c0-1.92-.11-3.26-2.2-3.26-1.8,0-2.57,1.2-2.57,3.24v7.09H38.41V9.35c0-1.67-.52-2.56-2.14-2.56-1.38,0-2.64,1.13-2.64,3.14v7.19H31Z"/><path class="cls-1" d="M51.1,5h2.53V6.7h.07a4,4,0,0,1,3.72-2,3.44,3.44,0,0,1,3.4,2,4.37,4.37,0,0,1,3.79-2c2.55,0,4,1.13,4,4.08v8.36H66V10.05c0-1.92-.11-3.26-2.2-3.26C62,6.79,61.21,8,61.21,10v7.09H58.54V9.35c0-1.67-.51-2.56-2.13-2.56-1.38,0-2.64,1.13-2.64,3.14v7.19H51.1Z"/><path class="cls-1" d="M81.89,17.12H79.27V15.44h0a4.07,4.07,0,0,1-3.44,2c-3.16,0-4.52-1.59-4.52-4.75V5h2.67v7.43c0,2.13.87,2.9,2.32,2.9,2.22,0,3-1.43,3-3.3V5h2.67Z"/><path class="cls-1" d="M84.49,5H87V6.79l0,0a4.34,4.34,0,0,1,3.78-2.16c2.62,0,4.28,1.41,4.28,4.13v8.31H92.45V9.51c0-1.9-.79-2.72-2.36-2.72A3,3,0,0,0,87.16,10v7.14H84.49Z"/><path class="cls-1" d="M97.79.4h2.67V2.93H97.79Zm0,4.61h2.67V17.12H97.79Z"/><path class="cls-1" d="M101.91,5h2V1.38h2.67V5H109V7H106.6v6.47c0,1.1.09,1.66,1.28,1.66A4.79,4.79,0,0,0,109,15V17.1c-.59,0-1.15.14-1.74.14-2.78,0-3.3-1.08-3.34-3.09V7h-2Z"/><path class="cls-1" d="M109.38,5h2.93l3.16,9h0l3.07-9h2.78l-4.71,12.77c-.86,2.18-1.49,4.14-4.28,4.14a11.35,11.35,0,0,1-1.85-.14V19.53a7.78,7.78,0,0,0,1.26.17c1.24,0,1.55-.66,1.88-1.69l.3-.93Z"/><path class="cls-1" d="M8.76,37.17A2.56,2.56,0,0,0,6,34.89c-1.39,0-3.33.73-3.33,4.41,0,2,.89,4.14,3.21,4.14a2.88,2.88,0,0,0,2.88-2.76h2.67c-.49,3.14-2.44,4.87-5.55,4.87C2.08,45.55,0,42.86,0,39.3s2-6.51,6-6.51c2.81,0,5.2,1.4,5.46,4.38Z"/><path class="cls-1" d="M12.81,39.16c0-3.7,2.22-6.37,6.11-6.37S25,35.46,25,39.16s-2.23,6.39-6.12,6.39S12.81,42.88,12.81,39.16Zm9.56,0c0-2.09-1.06-4.27-3.45-4.27s-3.44,2.18-3.44,4.27,1.05,4.28,3.44,4.28S22.37,41.26,22.37,39.16Z"/><path class="cls-1" d="M27.05,33.11h2.53v1.78l0,0a4.35,4.35,0,0,1,3.77-2.15c2.63,0,4.29,1.4,4.29,4.12v8.31H35V37.61c0-1.9-.8-2.72-2.36-2.72a3,3,0,0,0-2.93,3.19v7.14H27.05Z"/><path class="cls-1" d="M42.29,41.33c.14,1.55,1.31,2.11,2.74,2.11,1,0,2.77-.21,2.7-1.59s-2-1.57-4-2-3.89-1.13-3.89-3.59c0-2.64,2.86-3.46,5.06-3.46,2.48,0,4.73,1,5.06,3.72H47.21c-.23-1.26-1.29-1.62-2.46-1.62-.77,0-2.2.19-2.2,1.24,0,1.32,2,1.5,3.93,1.95s3.92,1.15,3.92,3.54c0,2.88-2.91,3.93-5.41,3.93-3.05,0-5.32-1.36-5.37-4.22Z"/><path class="cls-1" d="M62.85,45.22H60.23V43.54h0a4.06,4.06,0,0,1-3.44,2c-3.16,0-4.52-1.59-4.52-4.75V33.11h2.67v7.43c0,2.13.87,2.9,2.32,2.9,2.22,0,3-1.43,3-3.3v-7h2.67Z"/><path class="cls-1" d="M65.52,28.5h2.67V45.22H65.52Z"/><path class="cls-1" d="M69.64,33.11h2V29.48h2.67v3.63h2.41v2H74.33v6.47c0,1.1.09,1.66,1.28,1.66a4.79,4.79,0,0,0,1.13-.09V45.2c-.59,0-1.15.14-1.73.14-2.79,0-3.31-1.08-3.35-3.09V35.1h-2Z"/><path class="cls-1" d="M88.59,42.53c0,.65.14.91.63.91a4.32,4.32,0,0,0,.66,0v1.85a6.73,6.73,0,0,1-1.69.3c-1.08,0-1.85-.37-2.06-1.47a6.19,6.19,0,0,1-4.19,1.47c-2.18,0-4.15-1.17-4.15-3.54,0-3,2.41-3.51,4.66-3.77,1.92-.35,3.63-.14,3.63-1.71,0-1.38-1.43-1.64-2.5-1.64-1.5,0-2.56.61-2.67,1.92H78.24c.18-3.11,2.83-4,5.5-4,2.37,0,4.85,1,4.85,3.51Zm-2.67-3.37c-.82.54-2.11.51-3.28.72s-2.18.61-2.18,2c0,1.19,1.52,1.54,2.46,1.54,1.17,0,3-.61,3-2.29Z"/><path class="cls-1" d="M90,33.11h2V29.48H94.7v3.63h2.41v2H94.7v6.47c0,1.1.09,1.66,1.29,1.66a4.71,4.71,0,0,0,1.12-.09V45.2c-.58,0-1.15.14-1.73.14-2.79,0-3.3-1.08-3.35-3.09V35.1H90Z"/><path class="cls-1" d="M98.89,28.5h2.67V31H98.89Zm0,4.61h2.67V45.22H98.89Z"/><path class="cls-1" d="M103.67,39.16c0-3.7,2.22-6.37,6.11-6.37s6.11,2.67,6.11,6.37-2.22,6.39-6.11,6.39S103.67,42.88,103.67,39.16Zm9.55,0c0-2.09-1-4.27-3.44-4.27s-3.44,2.18-3.44,4.27,1,4.28,3.44,4.28S113.22,41.26,113.22,39.16Z"/><path class="cls-1" d="M117.9,33.11h2.53v1.78l0,0a4.35,4.35,0,0,1,3.77-2.15c2.63,0,4.29,1.4,4.29,4.12v8.31h-2.67V37.61c-.05-1.9-.8-2.72-2.37-2.72a3,3,0,0,0-2.93,3.19v7.14H117.9Z"/><path class="cls-1" d="M.66,56.6H3.33v2.53H.66Zm0,4.61H3.33V73.32H.66Z"/><path class="cls-1" d="M8,69.44c.14,1.54,1.31,2.1,2.74,2.1,1,0,2.76-.21,2.69-1.59s-2-1.57-4-2S5.6,66.81,5.6,64.35c0-2.64,2.85-3.46,5.06-3.46,2.48,0,4.73,1,5.05,3.72H12.93C12.69,63.35,11.64,63,10.47,63c-.77,0-2.2.19-2.2,1.25,0,1.31,2,1.49,3.93,1.94s3.91,1.15,3.91,3.54c0,2.88-2.9,3.93-5.41,3.93-3,0-5.31-1.36-5.36-4.21Z"/><path class="cls-1" d="M24.24,61.21h2.53V63l0,0a4.35,4.35,0,0,1,3.77-2.15c2.63,0,4.29,1.4,4.29,4.12v8.31H32.2V65.71c-.05-1.9-.8-2.72-2.37-2.72a3,3,0,0,0-2.92,3.19v7.14H24.24Z"/><path class="cls-1" d="M36.91,67.26c0-3.7,2.22-6.37,6.11-6.37s6.11,2.67,6.11,6.37S46.91,73.65,43,73.65,36.91,71,36.91,67.26Zm9.55,0C46.46,65.17,45.41,63,43,63s-3.44,2.18-3.44,4.27,1.05,4.28,3.44,4.28S46.46,69.37,46.46,67.26Z"/><path class="cls-1" d="M50,61.21h2.84l2.36,9h0l2.27-9h2.69l2.18,9h0l2.46-9h2.72l-3.8,12.11H61.12l-2.25-9h0l-2.23,9H53.79Z"/><path class="cls-1" d="M74.84,67.26c0-3.7,2.23-6.37,6.11-6.37s6.12,2.67,6.12,6.37S84.84,73.65,81,73.65,74.84,71,74.84,67.26Zm9.56,0C84.4,65.17,83.34,63,81,63s-3.44,2.18-3.44,4.27,1,4.28,3.44,4.28S84.4,69.37,84.4,67.26Z"/><path class="cls-1" d="M89.15,61.21h2.53v1.64h0a4,4,0,0,1,3.74-2c3.82,0,5.67,2.9,5.67,6.44,0,3.25-1.64,6.32-5.22,6.32a4.69,4.69,0,0,1-4-1.9h-.05v6H89.15Zm6,1.78c-2.25,0-3.39,1.71-3.39,4.29s1.24,4.26,3.39,4.26c2.44,0,3.35-2.15,3.35-4.26S97.32,63,95.12,63Z"/><path class="cls-1" d="M105.24,68c0,1.9,1,3.58,3.25,3.58a2.8,2.8,0,0,0,3-2H114a5.29,5.29,0,0,1-5.48,4.12c-3.79,0-5.92-2.65-5.92-6.37,0-3.44,2.24-6.39,5.85-6.39,3.82,0,6.16,3.44,5.72,7.07Zm6.23-1.76a3.12,3.12,0,1,0-6.23,0Z"/><path class="cls-1" d="M115.94,61.21h2.53V63l0,0a4.35,4.35,0,0,1,3.78-2.15c2.62,0,4.28,1.4,4.28,4.12v8.31H123.9V65.71c-.05-1.9-.8-2.72-2.36-2.72a3,3,0,0,0-2.93,3.19v7.14h-2.67Z"/></g></g></svg>