<?xml version="1.0" encoding="utf-8"?>
<!-- Generator: Adobe Illustrator 16.0.0, SVG Export Plug-In . SVG Version: 6.00 Build 0)  -->
<!DOCTYPE svg PUBLIC "-//W3C//DTD SVG 1.1//EN" "http://www.w3.org/Graphics/SVG/1.1/DTD/svg11.dtd">
<svg version="1.1" id="logo_x5F_trans_x5F_BW_x5F_2017_x5F_html5_x5F_banner_xA0_Image_1_"
	 xmlns="http://www.w3.org/2000/svg" xmlns:xlink="http://www.w3.org/1999/xlink" x="0px" y="0px" width="144px" height="28px"
	 viewBox="0 0 144 28" enable-background="new 0 0 144 28" xml:space="preserve">
<g>
	<path fill="#1F1F1F" d="M0,0.766h26.545c2.409-0.006,4.759,0.291,7.035,1.091c0.774,0.272,1.522,0.603,2.27,0.966
		c-0.181,0.729-0.374,1.44-0.652,2.125c-0.584,1.435-1.414,2.715-2.435,3.874c-1.5,1.704-3.288,3.043-5.271,4.132
		c-0.288,0.158-0.581,0.307-0.873,0.457c-0.083,0.042-0.165,0.071-0.161,0.191c0.004,0.106,0.081,0.13,0.151,0.171
		c0.787,0.461,1.589,0.897,2.354,1.391c1.27,0.818,2.421,1.789,3.46,2.887c1.252,1.324,2.271,2.805,2.981,4.489
		c0.301,0.716,0.508,1.462,0.702,2.213c0.016,0.06,0.01,0.125,0.017,0.213c-0.432,0.194-0.859,0.394-1.293,0.58
		c-1.815,0.774-3.711,1.25-5.668,1.481c-0.687,0.082-1.379,0.134-2.07,0.171c-0.601,0.032-1.204,0.041-1.806,0.032
		c0,0-25.268,0-25.286,0c0-4.66,0-9.364,0-14.023c0.108,0.002,0.22-0.009,0.326,0.009c0.719,0.122,1.438,0.239,2.154,0.377
		c1.443,0.279,2.856,0.676,4.259,1.109c0.132,0.041,0.236,0.093,0.305,0.239c0.857,1.822,2.111,3.34,3.618,4.656
		c1.606,1.403,3.409,2.504,5.36,3.358c2.682,1.176,5.491,1.841,8.413,2.011c1.248,0.072,2.498,0.057,3.746-0.072
		c1.465-0.153,2.902-0.436,4.305-0.879c0.283-0.091,0.56-0.197,0.863-0.306c-0.188-0.408-0.344-0.789-0.535-1.149
		c-0.414-0.783-0.894-1.521-1.448-2.219c-0.869-1.09-1.844-2.07-2.925-2.941c-1.917-1.545-4.072-2.657-6.404-3.435
		c-1.517-0.505-3.065-0.88-4.644-1.13c-0.938-0.148-1.88-0.246-2.83-0.273c-0.775-0.022-1.55-0.001-2.321,0.095
		c-0.326,0.041-0.654,0.076-1.021,0.197c0.154,0.053,0.255,0.091,0.358,0.122c1.661,0.498,3.289,1.089,4.894,1.746
		c2.299,0.938,4.538,2.004,6.674,3.276c1.004,0.599,1.993,1.219,2.934,1.914c0.069,0.051,0.136,0.104,0.204,0.157
		c-0.011,0.02-0.022,0.037-0.033,0.057c-0.093-0.045-0.188-0.087-0.279-0.134c-0.817-0.427-1.623-0.873-2.452-1.274
		c-2.285-1.104-4.65-2.013-7.05-2.834c-3.28-1.121-6.608-2.079-9.98-2.881c-1.4-0.333-2.813-0.618-4.224-0.901
		C1.515,11.953,0.755,11.852,0,11.729C0,8.074,0,4.42,0,0.766z M19.208,11.239c0.097,0.029,0.128,0.042,0.16,0.048
		c1.397,0.272,2.771,0.635,4.109,1.124c0.118,0.043,0.213,0.019,0.313-0.027c0.704-0.323,1.42-0.622,2.108-0.974
		c1.759-0.901,3.343-2.047,4.712-3.478c0.96-1.002,1.765-2.114,2.349-3.378c0.086-0.187,0.16-0.379,0.239-0.568
		c-0.054-0.031-0.076-0.048-0.101-0.057c-0.188-0.069-0.376-0.141-0.566-0.203c-2.002-0.655-4.061-0.949-6.162-0.967
		c-0.337-0.003-0.675,0.009-1.012,0.03c-0.609,0.038-1.221,0.066-1.827,0.137c-1.306,0.153-2.589,0.422-3.85,0.799
		c-1.367,0.408-2.681,0.943-3.934,1.628c-1.312,0.717-2.514,1.588-3.63,2.576C11.149,8.784,10.3,9.75,9.577,10.822
		c-0.146,0.217-0.283,0.441-0.444,0.692c0.109-0.007,0.173-0.004,0.234-0.017c1.107-0.226,2.217-0.435,3.341-0.565
		c0.981-0.113,1.964-0.155,2.95-0.122c0.178,0.006,0.341-0.009,0.508-0.06c1.702-0.518,3.383-1.095,5.022-1.784
		c1.605-0.674,3.19-1.396,4.784-2.096c0.058-0.025,0.12-0.042,0.18-0.062c0.009,0.019,0.017,0.038,0.025,0.056
		C24.051,8.591,21.695,9.962,19.208,11.239z"/>
	<path fill="#FFFFFF" d="M0,11.729c0.755,0.124,1.515,0.225,2.265,0.375c1.412,0.284,2.824,0.568,4.224,0.901
		c3.372,0.803,6.7,1.759,9.98,2.881c2.399,0.821,4.765,1.729,7.05,2.834c0.829,0.401,1.635,0.849,2.452,1.274
		c0.091,0.047,0.186,0.089,0.279,0.134c0.011-0.019,0.022-0.038,0.033-0.056c-0.068-0.053-0.135-0.106-0.204-0.158
		c-0.94-0.695-1.93-1.316-2.934-1.914c-2.136-1.273-4.375-2.338-6.674-3.277c-1.604-0.656-3.232-1.247-4.894-1.745
		c-0.104-0.031-0.205-0.069-0.358-0.122c0.367-0.122,0.696-0.156,1.021-0.197c0.771-0.096,1.546-0.117,2.321-0.095
		c0.949,0.027,1.892,0.125,2.83,0.273c1.579,0.25,3.127,0.625,4.644,1.13c2.333,0.776,4.487,1.889,6.404,3.434
		c1.081,0.871,2.056,1.854,2.925,2.942c0.555,0.696,1.035,1.435,1.448,2.218c0.191,0.362,0.347,0.742,0.535,1.15
		c-0.304,0.107-0.581,0.214-0.863,0.305c-1.403,0.444-2.84,0.727-4.305,0.879c-1.248,0.129-2.498,0.146-3.746,0.073
		c-2.921-0.17-5.731-0.835-8.413-2.011c-1.951-0.855-3.753-1.955-5.36-3.359c-1.506-1.314-2.76-2.834-3.618-4.656
		c-0.069-0.146-0.173-0.197-0.305-0.238c-1.403-0.433-2.816-0.83-4.259-1.109c-0.716-0.138-1.435-0.256-2.154-0.377
		C0.22,13.199,0.108,13.21,0,13.208C0,12.715,0,12.222,0,11.729z"/>
	<path fill="#1F1F1F" d="M144,23.158h-5.07c0,0-1.531-3.477-1.586-3.586h-8.476l-1.295,3.586h-4.968l7.545-18.103h5.529
		C136.291,6.399,144,23.158,144,23.158z M132.967,9.432l-2.81,6.943h5.806L132.967,9.432z"/>
	<path fill="#1F1F1F" d="M59.77,3.96l-6.475,9.01l8.417,9.65l0.001-17.562h13.67v3.283h-8.979v3.826h8.554v3.292h-8.561v4.417h9.153
		v3.281H55.897l-7.943-9.048c0,0,0.016,8.958,0.016,9.048h-4.94V3.96c1.625,0,3.261,0,4.926,0c0,0-0.003,8.902-0.003,8.892
		l6.248-8.892H59.77z"/>
	<path fill="#1F1F1F" d="M122.141,9.7c-0.615-0.242-1.184-0.49-1.769-0.689c-0.742-0.253-1.49-0.501-2.25-0.688
		c-0.817-0.201-1.66-0.264-2.502-0.195c-0.565,0.047-1.121,0.154-1.618,0.46c-0.426,0.262-0.656,0.63-0.611,1.138
		c0.034,0.398,0.262,0.694,0.572,0.925c0.48,0.358,1.023,0.598,1.581,0.805c0.864,0.319,1.735,0.618,2.599,0.943
		c1.002,0.379,1.967,0.831,2.828,1.483c0.771,0.586,1.381,1.3,1.723,2.218c0.168,0.445,0.293,0.905,0.285,1.387
		c-0.006,0.466,0.004,0.936-0.063,1.393c-0.12,0.82-0.479,1.544-1.008,2.186c-0.842,1.019-1.952,1.6-3.193,1.961
		c-0.667,0.193-1.352,0.299-2.047,0.346c-1.523,0.104-3.031,0.012-4.504-0.398c-0.622-0.174-1.225-0.42-1.826-0.658
		c-0.398-0.157-0.773-0.369-1.165-0.545c-0.153-0.068-0.216-0.164-0.215-0.336c0.007-1.078,0.003-2.156,0.004-3.231
		c0-0.056-0.003-0.111,0.009-0.164c0.027-0.125,0.106-0.165,0.223-0.103c0.146,0.08,0.281,0.172,0.423,0.256
		c0.957,0.574,1.933,1.105,2.993,1.467c1.024,0.347,2.078,0.486,3.154,0.438c0.491-0.021,0.981-0.095,1.441-0.291
		c0.382-0.162,0.697-0.399,0.863-0.794c0.277-0.657,0.08-1.31-0.526-1.765c-0.451-0.339-0.963-0.557-1.485-0.75
		c-0.916-0.339-1.84-0.653-2.754-0.996c-1.021-0.382-2.006-0.836-2.859-1.529c-1.195-0.969-1.84-2.21-1.867-3.766
		c-0.016-0.762,0.093-1.49,0.426-2.18c0.479-0.993,1.246-1.698,2.199-2.219c0.867-0.474,1.805-0.735,2.777-0.88
		c0.897-0.135,1.801-0.149,2.705-0.096c0.984,0.058,1.955,0.224,2.908,0.491c0.828,0.231,1.635,0.517,2.432,0.837
		c0.041,0.017,0.082,0.04,0.121,0.059C122.141,7.37,122.141,8.518,122.141,9.7z"/>
	<path fill="#1F1F1F" d="M81.749,15.459v4.417h9.176v3.281H77.082c0-6.025,0-12.065,0-18.099h10.292v3.28h-5.585v3.829h8.523v3.292
		H81.749z"/>
	<path fill="#1F1F1F" d="M101.438,8.339c0,4.949,0,9.917,0,14.819h-4.685L96.747,8.339H89.92V5.055c6.107,0,12.205,0,18.323,0
		c0,1.084,0,2.164,0,3.284C108.242,8.339,103.725,8.339,101.438,8.339z"/>
	<path fill="#FFFFFF" d="M19.208,11.239c2.487-1.277,4.843-2.648,6.971-4.375c-0.008-0.021-0.017-0.038-0.025-0.056
		c-0.06,0.021-0.122,0.037-0.18,0.062c-1.594,0.7-3.179,1.421-4.784,2.096c-1.639,0.689-3.32,1.266-5.022,1.784
		c-0.167,0.051-0.33,0.066-0.508,0.06c-0.985-0.033-1.969,0.009-2.95,0.122c-1.124,0.13-2.234,0.339-3.341,0.565
		c-0.061,0.013-0.125,0.009-0.234,0.017c0.161-0.251,0.298-0.475,0.444-0.692c0.723-1.072,1.572-2.037,2.539-2.893
		c1.117-0.988,2.319-1.858,3.63-2.576c1.253-0.685,2.567-1.22,3.934-1.628c1.26-0.376,2.544-0.646,3.85-0.799
		c0.606-0.071,1.217-0.099,1.827-0.137c0.337-0.021,0.675-0.034,1.012-0.03c2.102,0.018,4.16,0.313,6.162,0.967
		c0.19,0.062,0.378,0.134,0.566,0.203c0.025,0.009,0.047,0.026,0.101,0.057c-0.079,0.188-0.153,0.381-0.239,0.568
		c-0.584,1.264-1.389,2.375-2.349,3.378c-1.37,1.43-2.953,2.577-4.712,3.478c-0.688,0.353-1.404,0.651-2.108,0.974
		c-0.1,0.046-0.195,0.07-0.313,0.027c-1.338-0.489-2.712-0.851-4.109-1.124C19.336,11.281,19.305,11.269,19.208,11.239z"/>
</g>
</svg>
