<?xml version="1.0" encoding="utf-8"?>
<!-- Generator: Adobe Illustrator 16.0.0, SVG Export Plug-In . SVG Version: 6.00 Build 0)  -->
<!DOCTYPE svg PUBLIC "-//W3C//DTD SVG 1.1//EN" "http://www.w3.org/Graphics/SVG/1.1/DTD/svg11.dtd">
<svg version="1.1" id="Layer_1" xmlns="http://www.w3.org/2000/svg" xmlns:xlink="http://www.w3.org/1999/xlink" x="0px" y="0px"
	 width="132px" height="36px" viewBox="0 0 132 36" enable-background="new 0 0 132 36" xml:space="preserve">
<g>
	<path fill="#1F1F1F" d="M10.355,14.663V0.386h2.334v14.277H10.355z"/>
	<path fill="#1F1F1F" d="M28.354,14.663h-2.861L18.471,3.286h-0.078l0.049,0.635c0.091,1.211,0.137,2.318,0.137,3.32v7.422h-2.119
		V0.386h2.832l7.002,11.318h0.059c-0.013-0.15-0.039-0.695-0.078-1.636s-0.059-1.675-0.059-2.202v-7.48h2.139V14.663z"/>
	<path fill="#1F1F1F" d="M38.197,2.183c-1.341,0-2.396,0.475-3.164,1.426s-1.152,2.262-1.152,3.936c0,1.751,0.37,3.076,1.108,3.975
		s1.808,1.348,3.208,1.348c0.605,0,1.191-0.06,1.758-0.181s1.156-0.275,1.768-0.464v2.002c-1.12,0.423-2.389,0.635-3.809,0.635
		c-2.09,0-3.695-0.633-4.814-1.899s-1.68-3.078-1.68-5.435c0-1.484,0.272-2.783,0.815-3.896s1.33-1.966,2.358-2.559
		s2.236-0.889,3.623-0.889c1.458,0,2.806,0.306,4.043,0.918l-0.84,1.943c-0.482-0.228-0.991-0.428-1.528-0.601
		S38.79,2.183,38.197,2.183z"/>
	<path fill="#1F1F1F" d="M47.133,8.96v5.703h-2.334V0.386h4.033c1.842,0,3.207,0.345,4.092,1.035s1.328,1.732,1.328,3.125
		c0,1.777-0.924,3.043-2.773,3.799l4.033,6.318h-2.656L49.438,8.96H47.133z M47.133,7.026h1.621c1.087,0,1.875-0.202,2.363-0.605
		s0.732-1.002,0.732-1.797c0-0.807-0.264-1.387-0.791-1.738s-1.322-0.527-2.383-0.527h-1.543V7.026z"/>
	<path fill="#1F1F1F" d="M65.658,14.663h-8.076V0.386h8.076v1.973h-5.742v3.887h5.381v1.953h-5.381v4.482h5.742V14.663z"/>
	<path fill="#1F1F1F" d="M80.355,7.388c0,2.357-0.654,4.159-1.963,5.405s-3.193,1.87-5.654,1.87h-3.994V0.386h4.414
		c2.272,0,4.04,0.612,5.303,1.836S80.355,5.167,80.355,7.388z M77.895,7.466c0-3.418-1.598-5.127-4.795-5.127h-2.021V12.7h1.66
		C76.176,12.7,77.895,10.956,77.895,7.466z"/>
	<path fill="#1F1F1F" d="M83.422,14.663V0.386h2.334v14.277H83.422z"/>
	<path fill="#1F1F1F" d="M89.525,0.386h4.238c1.966,0,3.387,0.287,4.263,0.859S99.34,2.723,99.34,3.96
		c0,0.833-0.215,1.527-0.645,2.08s-1.048,0.902-1.855,1.045v0.098c1.002,0.189,1.74,0.562,2.212,1.118s0.708,1.31,0.708,2.261
		c0,1.283-0.448,2.287-1.343,3.013s-2.14,1.089-3.735,1.089h-5.156V0.386z M91.859,6.284h2.246c0.977,0,1.689-0.155,2.139-0.464
		s0.674-0.835,0.674-1.577c0-0.67-0.243-1.156-0.728-1.455s-1.255-0.449-2.31-0.449h-2.021V6.284z M91.859,8.179V12.7h2.48
		c0.977,0,1.714-0.187,2.212-0.562s0.747-0.965,0.747-1.772c0-0.742-0.254-1.292-0.762-1.65s-1.279-0.537-2.314-0.537H91.859z"/>
	<path fill="#1F1F1F" d="M102.729,14.663V0.386h2.334v12.275h6.045v2.002H102.729z"/>
	<path fill="#1F1F1F" d="M121.645,14.663h-8.076V0.386h8.076v1.973h-5.742v3.887h5.381v1.953h-5.381v4.482h5.742V14.663z"/>
	<path fill="#1F1F1F" d="M24.289,25.265c-1.255,0-2.246,0.418-2.973,1.254s-1.09,1.98-1.09,3.434c0,1.495,0.35,2.65,1.051,3.465
		c0.7,0.815,1.699,1.223,2.996,1.223c0.797,0,1.706-0.143,2.727-0.43v1.164c-0.792,0.297-1.769,0.445-2.93,0.445
		c-1.683,0-2.98-0.51-3.895-1.531c-0.914-1.021-1.371-2.471-1.371-4.352c0-1.177,0.22-2.208,0.66-3.094
		c0.44-0.885,1.075-1.567,1.906-2.047c0.831-0.479,1.809-0.719,2.934-0.719c1.198,0,2.245,0.219,3.141,0.656l-0.563,1.141
		C26.018,25.468,25.153,25.265,24.289,25.265z"/>
	<path fill="#1F1F1F" d="M42.606,29.937c0,1.828-0.462,3.266-1.387,4.313c-0.925,1.047-2.21,1.57-3.855,1.57
		c-1.683,0-2.98-0.514-3.895-1.543c-0.914-1.028-1.371-2.48-1.371-4.355c0-1.859,0.458-3.301,1.375-4.324
		c0.917-1.023,2.219-1.535,3.906-1.535c1.641,0,2.922,0.521,3.844,1.563C42.145,26.666,42.606,28.104,42.606,29.937z M33.504,29.937
		c0,1.547,0.329,2.72,0.988,3.52c0.659,0.8,1.616,1.199,2.871,1.199c1.266,0,2.221-0.398,2.867-1.195
		c0.646-0.797,0.969-1.971,0.969-3.523c0-1.536-0.322-2.702-0.965-3.496c-0.644-0.794-1.595-1.191-2.855-1.191
		c-1.266,0-2.228,0.4-2.887,1.199C33.833,27.248,33.504,28.411,33.504,29.937z"/>
	<path fill="#1F1F1F" d="M53.407,35.663l-3.875-10.125H49.47c0.073,0.802,0.109,1.755,0.109,2.859v7.266h-1.227V24.241h2
		l3.617,9.422h0.063l3.648-9.422h1.984v11.422h-1.328v-7.359c0-0.844,0.036-1.76,0.109-2.75h-0.063l-3.906,10.109H53.407z"/>
	<path fill="#1F1F1F" d="M67.326,35.663h-1.328V24.241h6.367v1.18h-5.039v4.18h4.734v1.18h-4.734V35.663z"/>
	<path fill="#1F1F1F" d="M87.37,29.937c0,1.828-0.462,3.266-1.387,4.313c-0.925,1.047-2.21,1.57-3.855,1.57
		c-1.683,0-2.98-0.514-3.895-1.543c-0.914-1.028-1.371-2.48-1.371-4.355c0-1.859,0.458-3.301,1.375-4.324
		c0.917-1.023,2.219-1.535,3.906-1.535c1.641,0,2.922,0.521,3.844,1.563C86.909,26.666,87.37,28.104,87.37,29.937z M78.268,29.937
		c0,1.547,0.329,2.72,0.988,3.52c0.659,0.8,1.616,1.199,2.871,1.199c1.266,0,2.221-0.398,2.867-1.195
		c0.646-0.797,0.969-1.971,0.969-3.523c0-1.536-0.322-2.702-0.965-3.496c-0.644-0.794-1.595-1.191-2.855-1.191
		c-1.266,0-2.228,0.4-2.887,1.199C78.597,27.248,78.268,28.411,78.268,29.937z"/>
	<path fill="#1F1F1F" d="M94.445,30.913v4.75h-1.328V24.241h3.133c1.401,0,2.436,0.269,3.105,0.805
		c0.669,0.537,1.004,1.344,1.004,2.422c0,1.511-0.766,2.531-2.297,3.063l3.102,5.133h-1.57l-2.766-4.75H94.445z M94.445,29.772h1.82
		c0.938,0,1.625-0.186,2.063-0.559c0.438-0.372,0.656-0.931,0.656-1.676c0-0.755-0.223-1.299-0.668-1.633
		c-0.445-0.333-1.16-0.5-2.145-0.5h-1.727V29.772z"/>
	<path fill="#1F1F1F" d="M109.723,35.663h-1.328V25.421h-3.617v-1.18h8.563v1.18h-3.617V35.663z"/>
</g>
</svg>
