<?xml version="1.0" encoding="UTF-8"?>
<svg id="Layer_2" data-name="Layer 2" xmlns="http://www.w3.org/2000/svg" xmlns:xlink="http://www.w3.org/1999/xlink" viewBox="0 0 300 250">
  <defs>
    <style>
      .cls-1 {
        fill: none;
      }

      .cls-1, .cls-2 {
        stroke-width: 0px;
      }

      .cls-3 {
        clip-path: url(#clippath-1);
      }

      .cls-4 {
        clip-path: url(#clippath);
      }

      .cls-2 {
        fill: #fff;
      }
    </style>
    <clipPath id="clippath">
      <rect class="cls-1" width="300" height="250"/>
    </clipPath>
    <clipPath id="clippath-1">
      <rect class="cls-1" width="300" height="250"/>
    </clipPath>
  </defs>
  <g id="Layer_1-2" data-name="Layer 1">
    <g class="cls-4">
      <g class="cls-3">
        <g>
          <path class="cls-2" d="M29.9,34.78v4.6c0,.87-.7,1.22-1.52,1.22s-1.52-.34-1.52-1.22v-12.67c0-.83.56-1.24,1.41-1.24h6.12c3.64,0,5.02,1.01,5.02,4.58,0,2.83-.87,4.74-5.02,4.74h-4.48ZM29.9,32.16h4.48c1.45,0,1.97-.6,1.97-2.09s-.52-1.91-1.99-1.91h-4.46v4Z"/>
          <path class="cls-2" d="M43.16,24.77c.91,0,1.67.74,1.67,1.63s-.75,1.61-1.67,1.61-1.62-.71-1.62-1.61.7-1.63,1.62-1.63ZM44.61,39.4c0,.85-.66,1.2-1.45,1.2s-1.45-.34-1.45-1.2v-9.22c0-.85.66-1.22,1.45-1.22s1.45.37,1.45,1.22v9.22Z"/>
          <path class="cls-2" d="M55.56,35.65v-5.5c0-.85.63-1.2,1.43-1.2s1.45.34,1.45,1.2v5.63c0,4.28-1.08,4.85-5.3,4.85s-5.28-.57-5.28-4.85v-5.63c0-.85.63-1.2,1.45-1.2s1.45.34,1.45,1.2v5.5c0,2.09.21,2.44,2.37,2.44s2.42-.34,2.42-2.44ZM51.62,26.68c-.33-.23-.47-.53-.47-.81,0-.57.56-1.1,1.2-1.1.31,0,.59.12.89.41l1.57,1.56c.21.21.31.46.31.67,0,.46-.42.83-.96.83-.23,0-.47-.07-.7-.23l-1.83-1.33Z"/>
          <path class="cls-2" d="M71.99,31.56c-1.57,0-1.88.21-1.88,1.75v6.09c0,.85-.63,1.2-1.43,1.2s-1.48-.34-1.48-1.2v-6.32c0-3.52,1.15-4.16,4.83-4.16,2.39,0,3,.55,3,1.42,0,.78-.45,1.31-1.27,1.31-.47,0-.89-.09-1.78-.09Z"/>
          <path class="cls-2" d="M86.53,39.03c0,.69-.21,1.06-.99,1.26-.47.14-1.97.34-3.82.34-4.2,0-5.56-1.01-5.56-4.35v-2.99c0-3.52,1.52-4.39,5.46-4.39s5.09.97,5.09,4.32v1.31c0,.99-.38,1.33-1.24,1.33h-6.4v.58c0,1.2.84,1.66,2.53,1.66,1.27,0,2.84-.21,3.71-.21s1.22.25,1.22,1.13ZM79.07,33.6h4.78v-.51c0-1.36-.52-1.7-2.39-1.7-1.76,0-2.39.3-2.39,1.7v.51Z"/>
          <path class="cls-2" d="M92.68,39.4c0,.85-.66,1.2-1.48,1.2s-1.48-.34-1.48-1.2v-13.18c0-.85.68-1.22,1.48-1.22s1.48.37,1.48,1.22v13.18Z"/>
          <path class="cls-2" d="M96.06,30.5c0-1.03.89-1.59,4.41-1.59,4.34,0,5.42.67,5.42,3.79v4.35c0,3.04-1.38,3.59-5.42,3.59s-5.07-.55-5.07-3.66c0-2.55.63-3.59,4.93-3.59h2.67v-.46c0-1.13-.45-1.4-2.2-1.4s-2.81.28-3.49.28c-.91,0-1.24-.51-1.24-1.31ZM103,35.72h-2.84c-1.62,0-1.92.28-1.92,1.17,0,.97.35,1.24,2.32,1.24s2.44-.23,2.44-.87v-1.54Z"/>
          <path class="cls-2" d="M113.18,36.66l-2.96,3.31c-.42.46-.75.62-1.2.62-.7,0-1.31-.57-1.31-1.29,0-.25.07-.6.3-.85l3.38-3.82-3.05-3.43c-.26-.3-.38-.69-.38-.94,0-.74.66-1.29,1.38-1.29.42,0,.77.16,1.08.51l2.77,3.1,2.77-3.1c.21-.25.73-.51,1.06-.51.68,0,1.36.55,1.36,1.29,0,.28-.09.62-.38.94l-3.03,3.4,3.4,3.77c.28.32.3.62.3.85,0,.74-.66,1.33-1.38,1.33-.35,0-.73-.16-1.13-.6l-3-3.31Z"/>
          <path class="cls-2" d="M129.25,33.9v5.5c0,.85-.66,1.2-1.45,1.2s-1.45-.34-1.45-1.2v-5.63c0-4.28,1.06-4.85,5.3-4.85s5.37.57,5.37,4.85v5.63c0,.85-.66,1.2-1.45,1.2s-1.43-.34-1.43-1.2v-5.5c0-2.09-.33-2.44-2.49-2.44s-2.39.34-2.39,2.44Z"/>
          <path class="cls-2" d="M150.53,39.03c0,.69-.21,1.06-.98,1.26-.47.14-1.97.34-3.82.34-4.2,0-5.56-1.01-5.56-4.35v-2.99c0-3.52,1.52-4.39,5.46-4.39s5.09.97,5.09,4.32v1.31c0,.99-.38,1.33-1.24,1.33h-6.4v.58c0,1.2.84,1.66,2.53,1.66,1.27,0,2.84-.21,3.71-.21s1.22.25,1.22,1.13ZM143.07,33.6h4.78v-.51c0-1.36-.52-1.7-2.39-1.7-1.76,0-2.39.3-2.39,1.7v.51Z"/>
          <path class="cls-2" d="M156.68,39.4c0,.85-.66,1.2-1.48,1.2s-1.48-.34-1.48-1.2v-13.18c0-.85.68-1.22,1.48-1.22s1.48.37,1.48,1.22v13.18Z"/>
          <path class="cls-2" d="M162.92,39.4c0,.85-.66,1.2-1.48,1.2s-1.48-.34-1.48-1.2v-13.18c0-.85.68-1.22,1.48-1.22s1.48.37,1.48,1.22v13.18Z"/>
          <path class="cls-2" d="M166.3,30.5c0-1.03.89-1.59,4.41-1.59,4.34,0,5.42.67,5.42,3.79v4.35c0,3.04-1.38,3.59-5.42,3.59s-5.07-.55-5.07-3.66c0-2.55.63-3.59,4.93-3.59h2.67v-.46c0-1.13-.45-1.4-2.2-1.4s-2.81.28-3.49.28c-.91,0-1.24-.51-1.24-1.31ZM173.24,35.72h-2.84c-1.62,0-1.92.28-1.92,1.17,0,.97.35,1.24,2.32,1.24s2.44-.23,2.44-.87v-1.54Z"/>
          <path class="cls-2" d="M189.64,36.94l2.86-6.9c.75-1.82,3.75-1.22,2.79.9l-3.75,8.21c-.49,1.08-1.13,1.49-2.02,1.49-1.03,0-1.71-.55-2.13-1.49l-3.61-8.21c-.89-2.05,2.06-2.76,2.79-.92l2.74,6.92h.33Z"/>
          <path class="cls-2" d="M198.95,24.77c.91,0,1.67.74,1.67,1.63s-.75,1.61-1.67,1.61-1.62-.71-1.62-1.61.7-1.63,1.62-1.63ZM200.41,39.4c0,.85-.66,1.2-1.45,1.2s-1.45-.34-1.45-1.2v-9.22c0-.85.66-1.22,1.45-1.22s1.45.37,1.45,1.22v9.22Z"/>
          <path class="cls-2" d="M208.05,38.09c.7,0,1.1-.07,1.59-.07.77,0,1.1.39,1.1,1.13,0,1.06-.52,1.49-3.14,1.49-2.23,0-3.33-.6-3.33-3.17v-5.7h-1.15c-.82,0-1.13-.55-1.13-1.31s.31-1.31,1.13-1.31h1.15v-1.82c0-.83.66-1.17,1.43-1.17.82,0,1.48.34,1.48,1.17v1.82h2.42c.82,0,1.06.58,1.06,1.31s-.23,1.31-1.06,1.31h-2.42v5.47c0,.64.4.85.87.85Z"/>
          <path class="cls-2" d="M212.68,30.5c0-1.03.89-1.59,4.41-1.59,4.34,0,5.42.67,5.42,3.79v4.35c0,3.04-1.38,3.59-5.42,3.59s-5.07-.55-5.07-3.66c0-2.55.63-3.59,4.93-3.59h2.67v-.46c0-1.13-.45-1.4-2.2-1.4s-2.81.28-3.49.28c-.91,0-1.24-.51-1.24-1.31ZM219.62,35.72h-2.84c-1.62,0-1.92.28-1.92,1.17,0,.97.35,1.24,2.32,1.24s2.44-.23,2.44-.87v-1.54Z"/>
          <path class="cls-2" d="M226.66,37.03c1.01,0,1.81.8,1.81,1.79s-.8,1.77-1.81,1.77-1.78-.74-1.78-1.77.75-1.79,1.78-1.79Z"/>
        </g>
      </g>
    </g>
  </g>
</svg>