<?xml version="1.0" encoding="UTF-8"?>
<svg id="Layer_2" data-name="Layer 2" xmlns="http://www.w3.org/2000/svg" xmlns:xlink="http://www.w3.org/1999/xlink" viewBox="0 0 300 250">
  <defs>
    <style>
      .cls-1 {
        fill: #000;
      }

      .cls-1, .cls-2 {
        stroke-width: 0px;
      }

      .cls-2 {
        fill: none;
      }

      .cls-3 {
        clip-path: url(#clippath);
      }
    </style>
    <clipPath id="clippath">
      <rect class="cls-2" width="300" height="250"/>
    </clipPath>
  </defs>
  <g id="Layer_1-2" data-name="Layer 1">
    <g class="cls-3">
      <g>
        <path class="cls-1" d="M34.72,35.96c0-1.98-1.08-2.53-3.88-2.95-2.85-.42-4.92-1.17-4.92-3.96s1.77-3.83,5.3-3.83c1.71,0,3.28.15,3.68.26.36.09.52.31.52.57,0,.37-.27.57-.58.57-.36,0-1.86-.26-3.68-.26-2.58,0-3.88.77-3.88,2.64s1.73,2.51,4.09,2.86c3.28.48,4.71,1.19,4.71,4.03,0,3.19-2.06,4.07-5.66,4.07-1.86,0-3.46-.15-4.08-.37-.38-.13-.45-.31-.45-.53,0-.44.25-.55.56-.55.54,0,1.93.35,4.13.35,2.63,0,4.15-.66,4.15-2.9Z"/>
        <path class="cls-1" d="M47.76,39.12c0,.2-.04.4-.43.51-.56.18-2.16.33-3.77.33-3.82,0-5.05-1.3-5.05-3.81v-3.85c0-2.53,1.53-3.43,4.89-3.43s4.62.97,4.62,3.34v1.61c0,.68-.34,1.03-.94,1.03h-7.32v1.25c0,1.8.99,2.77,3.82,2.77,1.8,0,3.39-.31,3.75-.31.25,0,.43.15.43.55ZM39.77,33.82h7v-1.74c0-1.34-.67-2.18-3.41-2.18s-3.59.81-3.59,2.31v1.61Z"/>
        <path class="cls-1" d="M52.38,39.37c0,.33-.29.51-.63.51-.36,0-.63-.18-.63-.55v-6.75c0-2.77,1.03-3.7,4.06-3.7.81,0,1.68.04,2.04.13.36.09.47.29.47.55,0,.4-.27.51-.58.51-.43,0-.94-.11-1.98-.11-2.24,0-2.76.64-2.76,2.79v6.62Z"/>
        <path class="cls-1" d="M62.18,38.93l-3.95-9.15c-.34-.79.99-1.14,1.32-.35l3.82,9.26h.38l3.82-9.26c.34-.79,1.66-.44,1.32.35l-3.95,9.15c-.25.57-.72,1.03-1.39,1.03s-1.12-.46-1.37-1.03Z"/>
        <path class="cls-1" d="M71.79,25.22c.49,0,.9.4.9.88s-.4.88-.9.88-.92-.4-.92-.88.4-.88.92-.88ZM72.42,39.37c0,.33-.29.51-.63.51-.36,0-.63-.18-.63-.55v-9.81c0-.37.27-.55.63-.55.34,0,.63.18.63.51v9.9Z"/>
        <path class="cls-1" d="M75.78,32.59c0-2.49,1.14-3.72,4.98-3.72,1.66,0,2.72.15,3.1.26.38.11.52.29.52.55,0,.37-.27.53-.56.53-.36,0-1.59-.26-3.1-.26-2.85,0-3.68.95-3.68,2.57v3.74c0,1.8.99,2.62,3.7,2.62,1.62,0,2.78-.33,3.23-.33.25,0,.54.09.54.53,0,.26-.11.42-.43.53-.45.15-1.86.35-3.57.35-3.59,0-4.74-1.23-4.74-3.76v-3.61Z"/>
        <path class="cls-1" d="M87.47,25.22c.49,0,.9.4.9.88s-.4.88-.9.88-.92-.4-.92-.88.4-.88.92-.88ZM88.1,39.37c0,.33-.29.51-.63.51-.36,0-.63-.18-.63-.55v-9.81c0-.37.27-.55.63-.55.34,0,.63.18.63.51v9.9Z"/>
        <path class="cls-1" d="M96.36,28.87c3.84,0,5.14,1.1,5.14,5.65s-1.37,5.43-5.14,5.43-5.12-.88-5.12-5.43,1.28-5.65,5.12-5.65ZM96.36,38.93c2.9,0,3.88-.59,3.88-4.44s-1.01-4.58-3.88-4.58-3.86.62-3.86,4.58.94,4.44,3.86,4.44Z"/>
        <path class="cls-1" d="M104.82,37.96c.56,0,1.01.44,1.01.95,0,.57-.45.99-1.01.99s-.99-.42-.99-.99c0-.51.45-.95.99-.95Z"/>
      </g>
    </g>
  </g>
</svg>