<?xml version="1.0" encoding="utf-8"?>
<!-- Generator: Adobe Illustrator 25.2.1, SVG Export Plug-In . SVG Version: 6.00 Build 0)  -->
<svg version="1.1" id="Layer_1" xmlns="http://www.w3.org/2000/svg" xmlns:xlink="http://www.w3.org/1999/xlink" x="0px" y="0px"
	 viewBox="0 0 728 90" style="enable-background:new 0 0 728 90;" xml:space="preserve">
<style type="text/css">
	.st0{fill:#FFFFFF;}
</style>
<g>
	<rect x="602.2" y="45" width="37" height="37"/>
	<g>
		<path class="st0" d="M606.7,58.5v-7.3h4.7v1.1h-3.4v2.2h3.2v1.1h-3.2v3H606.7z"/>
		<path class="st0" d="M613.8,58.5h-1.2v-7.3h1.2V58.5z"/>
		<path class="st0" d="M621.3,58.5h-1l-3.7-5.3v5.3h-1.2v-7.3h1.2l3.5,5.1v-5.1h1.2V58.5z"/>
		<path class="st0" d="M622.9,51.2h2.5c2.1,0,3.5,1.4,3.5,3.6s-1.4,3.6-3.5,3.6h-2.5V51.2z M625.3,57.4c1.5,0,2.4-1,2.4-2.5
			c0-1.6-0.8-2.6-2.4-2.6h-1.2v5.1H625.3z"/>
	</g>
	<g>
		<path class="st0" d="M609.6,67.7c-2,0-3.4-1.6-3.4-3.8c0-2.2,1.4-3.8,3.4-3.8c2,0,3.4,1.6,3.4,3.8C613,66.1,611.6,67.7,609.6,67.7
			z M609.6,61.3c-1.3,0-2.1,1.1-2.1,2.7s0.8,2.7,2.1,2.7c1.3,0,2.1-1.1,2.1-2.7S610.9,61.3,609.6,61.3z"/>
		<path class="st0" d="M614.1,64.7v-4.4h1.2v4.2c0,1.4,0.6,2.1,1.7,2.1c1.1,0,1.7-0.7,1.7-2.1v-4.2h1.2v4.4c0,2-1.2,3-2.9,3
			C615.3,67.7,614.1,66.6,614.1,64.7z"/>
		<path class="st0" d="M621,60.3h6.1v1.1h-2.4v6.2h-1.2v-6.2H621V60.3z"/>
	</g>
	<g>
		<path class="st0" d="M610.1,75.1l-2.3-3.5v5.1h-1.2v-7.3h1.2l2.4,3.8l2.4-3.8h1.1v7.3h-1.2v-5.1L610.1,75.1L610.1,75.1z"/>
		<path class="st0" d="M618.2,76.8c-2,0-3.4-1.6-3.4-3.8c0-2.2,1.4-3.8,3.4-3.8c2,0,3.4,1.6,3.4,3.8
			C621.6,75.2,620.2,76.8,618.2,76.8z M618.2,70.3c-1.3,0-2.1,1.1-2.1,2.7s0.8,2.7,2.1,2.7c1.3,0,2.1-1.1,2.1-2.7
			S619.5,70.3,618.2,70.3z"/>
		<path class="st0" d="M622.8,69.4h2.8c1.5,0,2.5,0.8,2.5,2.2c0,1.2-0.7,1.9-1.9,2.1l2.1,3H627l-2-3H624v3h-1.2V69.4z M624,72.7h1.6
			c0.8,0,1.3-0.4,1.3-1.1s-0.5-1.1-1.3-1.1H624V72.7z"/>
		<path class="st0" d="M634.2,69.4v1.1h-3.5v1.9h3.2v1.1h-3.2v2.1h3.5v1.1h-4.8v-7.3H634.2z"/>
	</g>
</g>
</svg>
