<?xml version="1.0" encoding="utf-8"?>
<!-- Generator: Adobe Illustrator 23.0.3, SVG Export Plug-In . SVG Version: 6.00 Build 0)  -->
<svg version="1.1" id="Layer_1" xmlns="http://www.w3.org/2000/svg" xmlns:xlink="http://www.w3.org/1999/xlink" x="0px" y="0px"
	 viewBox="0 0 300 250" style="enable-background:new 0 0 300 250;" xml:space="preserve">
<style type="text/css">
	.st0{fill:#2158F5;}
	.st1{fill:#FFFFFF;}
</style>
<path class="st0" d="M162,170H25c-2.8,0-5-2.3-5-5v-24c0-2.8,2.3-5,5-5h137c2.8,0,5,2.3,5,5v24C167,167.8,164.8,170,162,170z"/>
<g>
	<path class="st1" d="M41.8,159.2V148h7.4v2h-5v2.8h4.3v2h-4.3v4.5H41.8z"/>
	<path class="st1" d="M51.6,147.4c0.8,0,1.5,0.6,1.5,1.4c0,0.8-0.7,1.3-1.5,1.3c-0.9,0-1.5-0.5-1.5-1.3
		C50.1,148,50.8,147.4,51.6,147.4z M50.4,159.2V151h2.4v8.2H50.4z"/>
	<path class="st1" d="M54.4,151h2.4v1.1c0.7-1,1.6-1.3,2.5-1.3c2.3,0,2.9,1.8,2.9,3.9v4.5h-2.4v-4.4c0-1.1-0.4-2-1.5-2
		s-1.6,0.9-1.6,2v4.4h-2.4V151z"/>
	<path class="st1" d="M72.2,147.6v11.6h-2.4V158c-0.6,0.8-1.4,1.4-2.6,1.4c-2.5,0-4-1.9-4-4.3c0-2.3,1.4-4.2,4-4.2
		c1.1,0,2.1,0.5,2.6,1.3v-4.5H72.2z M67.7,157.4c1.2,0,2.1-0.8,2.1-2.2c0-1.5-0.9-2.4-2.2-2.4c-1.3,0-2,1.1-2,2.3
		C65.6,156.4,66.4,157.4,67.7,157.4z"/>
	<path class="st1" d="M81.2,150.8c2.4,0,4.5,1.7,4.5,4.3c0,2.6-2.1,4.3-4.5,4.3c-2.4,0-4.5-1.7-4.5-4.3
		C76.7,152.5,78.8,150.8,81.2,150.8z M81.2,157.3c1.2,0,2.2-1,2.2-2.2c0-1.3-1-2.2-2.2-2.2c-1.2,0-2.2,0.9-2.2,2.2
		C79,156.4,80,157.3,81.2,157.3z"/>
	<path class="st1" d="M94.5,159.2h-2.4v-1.1c-0.7,1-1.6,1.3-2.5,1.3c-2.3,0-2.9-1.8-2.9-3.9V151h2.4v4.4c0,1.1,0.4,2,1.5,2
		s1.6-0.9,1.6-2V151h2.4V159.2z"/>
	<path class="st1" d="M99.1,151h2.3v1.9h-2.3v3.8c0,0.4,0.1,0.7,0.6,0.7c0.5,0,0.6-0.4,0.6-0.8c0-0.2-0.1-0.6-0.1-0.7h1.9
		c0.1,0.3,0.2,0.7,0.2,1c0,1.2-0.8,2.4-2.7,2.4c-1.4,0-2.8-0.5-2.8-2.9v-3.6h-1.2V151h1.4l0.4-2h1.8V151z"/>
	<path class="st1" d="M113.9,154.8v4.4h-2.4v-4.4c0-1.1-0.3-2-1.4-2c-1,0-1.4,0.9-1.4,2v4.4h-2.4V151h2.4v1.1
		c0.5-0.8,1.3-1.3,2.2-1.3c1.2,0,2.1,0.5,2.5,1.4c0.6-1.2,1.8-1.4,2.6-1.4c2.3,0,2.9,1.8,2.9,3.9v4.5h-2.4v-4.4c0-1.1-0.3-2-1.4-2
		C114.2,152.8,113.9,153.7,113.9,154.8z"/>
	<path class="st1" d="M124.5,150.8c2.4,0,4.5,1.7,4.5,4.3c0,2.6-2.1,4.3-4.5,4.3c-2.4,0-4.5-1.7-4.5-4.3
		C120,152.5,122.1,150.8,124.5,150.8z M124.5,157.3c1.2,0,2.2-1,2.2-2.2c0-1.3-1-2.2-2.2-2.2c-1.2,0-2.2,0.9-2.2,2.2
		C122.3,156.4,123.3,157.3,124.5,157.3z"/>
	<path class="st1" d="M132.4,152.8c0.3-1.5,1.5-2,2.3-2c0.3,0,0.4,0,0.6,0.1v2.4c-0.3-0.1-0.8-0.1-1-0.1c-0.9,0-1.8,0.5-1.8,1.6v4.5
		H130V151h2.3V152.8z"/>
	<path class="st1" d="M143.9,157.8c-1.2,1.3-2.7,1.6-3.8,1.6c-3,0-4.7-1.9-4.7-4.2c0-2.4,1.9-4.3,4.5-4.3c2.3,0,4.5,1.6,4.5,4.8
		h-6.6c0,1,1,1.8,2.5,1.8c0.8,0,1.7-0.4,2.3-1L143.9,157.8z M137.8,154.2h4.1c-0.2-1.1-1.2-1.5-2-1.5
		C139.1,152.7,138.1,153.1,137.8,154.2z"/>
</g>
</svg>
