<?xml version="1.0" encoding="utf-8"?>
<!-- Generator: Adobe Illustrator 23.0.3, SVG Export Plug-In . SVG Version: 6.00 Build 0)  -->
<svg version="1.1" id="Layer_1" xmlns="http://www.w3.org/2000/svg" xmlns:xlink="http://www.w3.org/1999/xlink" x="0px" y="0px"
	 viewBox="0 0 300 250" style="enable-background:new 0 0 300 250;" xml:space="preserve">
<g>
	<path d="M26.8,228.6c0.9,0,1.5,0.3,2.1,0.7l-0.4,0.7c-0.4-0.3-1.1-0.5-1.7-0.5c-1.6,0-2.5,1.1-2.5,2.4c0,1.3,0.9,2.4,2.5,2.4
		c0.6,0,1.3-0.2,1.7-0.5l0.4,0.7c-0.5,0.4-1.2,0.7-2.1,0.7c-2.1,0-3.4-1.5-3.4-3.3C23.4,230.1,24.7,228.6,26.8,228.6z"/>
	<path d="M30.4,233.7l-0.5,1.3H29l2.4-6.3h1l2.4,6.3H34l-0.5-1.3H30.4z M33.2,232.9l-1.3-3.4l-1.3,3.4H33.2z"/>
	<path d="M35.6,235v-6.3h2.6c1.2,0,1.9,0.9,1.9,2c0,0.9-0.5,1.7-1.5,1.9c0.1,0.7,0.5,1.8,1.2,1.8c0.3,0,0.6-0.1,0.7-0.3l0.3,0.6
		c-0.3,0.3-0.7,0.4-1.1,0.4c-1.5,0-1.9-1.7-2-2.5h-1.3v2.4H35.6z M38.1,231.9c0.7,0,1.2-0.5,1.2-1.2c0-0.7-0.4-1.2-1.2-1.2h-1.5v2.5
		H38.1z"/>
	<path d="M45.6,235h-4v-6.3h4v0.7h-3.1v2.1h2.7v0.7h-2.7v2h3.1V235z"/>
	<path d="M49,233.3c0.1,0.5,0.7,1,1.5,1c0.8,0,1.3-0.4,1.3-1c0-0.5-0.4-0.8-0.9-1L50,232c-1.2-0.4-1.5-1.1-1.5-1.7
		c0-1.1,1-1.7,2-1.7c1.1,0,1.9,0.6,2.1,1.5l-0.8,0.2c-0.2-0.6-0.6-0.9-1.3-0.9c-0.6,0-1.1,0.3-1.1,0.9c0,0.3,0.1,0.6,0.8,0.9l1,0.4
		c1,0.3,1.5,1,1.5,1.7c0,1.1-0.9,1.8-2.2,1.8c-1.3,0-2.1-0.7-2.3-1.6L49,233.3z"/>
	<path d="M54.3,233c0,1,0.4,1.3,0.9,1.3c0.5,0,1.5-0.3,1.5-1.7v-2.1h0.9v4.5h-0.9v-0.9c-0.2,0.6-0.8,1-1.5,1c-1,0-1.7-0.6-1.7-2.1
		v-2.5h0.9V233z"/>
	<path d="M61.2,235.1c-0.6,0-1.2-0.2-1.6-0.8v2.7h-0.9v-6.5h0.9v0.7c0.4-0.6,1-0.8,1.6-0.8c1.4,0,2.2,1.1,2.2,2.4
		C63.4,234,62.6,235.1,61.2,235.1z M61.1,234.3c0.9,0,1.5-0.7,1.5-1.6c0-0.9-0.5-1.6-1.5-1.6c-0.9,0-1.5,0.7-1.5,1.6
		C59.6,233.6,60.2,234.3,61.1,234.3z"/>
	<path d="M68.4,234.2c-0.6,0.7-1.3,0.8-2,0.8c-1.6,0-2.5-1.1-2.5-2.3c0-1.3,1-2.4,2.4-2.4c1.2,0,2.3,0.8,2.3,2.4h-3.9
		c0,0.9,0.7,1.5,1.7,1.5c0.5,0,1-0.2,1.5-0.6L68.4,234.2z M64.8,232.1h2.9c-0.2-0.8-0.9-1-1.4-1C65.8,231.1,65.1,231.3,64.8,232.1z"
		/>
	<path d="M70.2,231.5c0.2-0.7,0.7-1.1,1.2-1.1c0.2,0,0.3,0,0.4,0.1v0.9c-0.1-0.1-0.3-0.1-0.5-0.1c-0.3,0-1.1,0.1-1.1,2.1v1.7h-0.9
		v-4.5h0.9V231.5z"/>
	<path d="M74.5,235v-6.3H77c1.2,0,1.9,0.9,1.9,2s-0.7,1.9-1.9,1.9h-1.6v2.4H74.5z M76.8,231.9c0.7,0,1.2-0.5,1.2-1.2
		c0-0.7-0.4-1.2-1.2-1.2h-1.4v2.5H76.8z"/>
	<path d="M80.7,233.6c0,0.5,0.2,0.7,0.5,0.7c0.3,0,0.6-0.2,0.6-0.5c0-0.1,0-0.2-0.1-0.4c0.3,0,0.5,0,0.8,0c0.1,0.2,0.1,0.5,0.1,0.5
		c0,0.6-0.5,1.1-1.3,1.1c-0.7,0-1.4-0.4-1.4-1.5v-2.4h-0.7v-0.7h0.7l0.2-1.3h0.7v1.3h1.4v0.7h-1.4V233.6z"/>
	<path d="M86.1,230.5h1l-2.8,6.5h-0.8l0.8-2.2l-1.9-4.4h1l1.4,3.4L86.1,230.5z"/>
	<path d="M93.6,235h-3.8v-6.3h0.9v5.6h2.9V235z"/>
	<path d="M95,233.6c0,0.5,0.2,0.7,0.5,0.7c0.3,0,0.6-0.2,0.6-0.5c0-0.1,0-0.2-0.1-0.4c0.3,0,0.5,0,0.8,0c0.1,0.2,0.1,0.5,0.1,0.5
		c0,0.6-0.5,1.1-1.3,1.1c-0.7,0-1.4-0.4-1.4-1.5v-2.4h-0.7v-0.7h0.7l0.2-1.3H95v1.3h1.4v0.7H95V233.6z"/>
	<path d="M99.3,230.4c0.6,0,1.2,0.2,1.6,0.8v-2.7h0.9v6.5h-0.9v-0.7c-0.4,0.6-1,0.8-1.6,0.8c-1.4,0-2.2-1.1-2.2-2.4
		C97.1,231.4,98,230.4,99.3,230.4z M99.4,231.1c-0.9,0-1.5,0.7-1.5,1.6c0,0.9,0.5,1.6,1.5,1.6c0.9,0,1.5-0.7,1.5-1.6
		C101,231.8,100.3,231.1,99.4,231.1z"/>
	<path d="M105.6,232.4c0,1.9,0.9,3.3,1.3,4l-0.6,0.3c-0.5-0.5-1.7-2.1-1.7-4.3c0-2.2,1.2-3.8,1.7-4.3l0.6,0.3
		C106.6,229.1,105.6,230.5,105.6,232.4z"/>
	<path d="M112.2,228.7v0.7h-2.1v5.6h-0.9v-5.6h-2.1v-0.7H112.2z"/>
	<path d="M112.8,231.5c0.2-0.7,0.7-1.1,1.2-1.1c0.2,0,0.3,0,0.4,0.1v0.9c-0.1-0.1-0.3-0.1-0.5-0.1c-0.3,0-1.1,0.1-1.1,2.1v1.7H112
		v-4.5h0.9V231.5z"/>
	<path d="M115.8,233c0,1,0.4,1.3,0.9,1.3c0.5,0,1.5-0.3,1.5-1.7v-2.1h0.9v4.5h-0.9v-0.9c-0.2,0.6-0.8,1-1.5,1c-1,0-1.7-0.6-1.7-2.1
		v-2.5h0.9V233z"/>
	<path d="M122.2,231.6c-0.1-0.4-0.4-0.5-0.7-0.5c-0.4,0-0.7,0.3-0.7,0.6c0,0.3,0.3,0.5,0.5,0.5l0.7,0.2c0.9,0.3,1.1,0.8,1.1,1.3
		c0,0.9-0.8,1.4-1.6,1.4c-0.8,0-1.5-0.4-1.7-1.2l0.8-0.2c0.1,0.4,0.5,0.6,1,0.6c0.5,0,0.8-0.3,0.8-0.6c0-0.3-0.3-0.5-0.6-0.6
		l-0.6-0.2c-0.7-0.2-1.1-0.6-1.1-1.2c0-0.8,0.6-1.3,1.5-1.3c0.6,0,1.3,0.3,1.5,1.1L122.2,231.6z"/>
	<path d="M125,233.6c0,0.5,0.2,0.7,0.5,0.7c0.3,0,0.6-0.2,0.6-0.5c0-0.1,0-0.2-0.1-0.4c0.3,0,0.5,0,0.8,0c0.1,0.2,0.1,0.5,0.1,0.5
		c0,0.6-0.5,1.1-1.3,1.1c-0.7,0-1.4-0.4-1.4-1.5v-2.4h-0.7v-0.7h0.7l0.2-1.3h0.7v1.3h1.4v0.7H125V233.6z"/>
	<path d="M131.6,234.2c-0.6,0.7-1.3,0.8-2,0.8c-1.6,0-2.5-1.1-2.5-2.3c0-1.3,1-2.4,2.4-2.4c1.2,0,2.3,0.8,2.3,2.4h-3.9
		c0,0.9,0.7,1.5,1.7,1.5c0.5,0,1-0.2,1.5-0.6L131.6,234.2z M128,232.1h2.9c-0.2-0.8-0.9-1-1.4-1C129,231.1,128.3,231.3,128,232.1z"
		/>
	<path d="M136.7,234.2c-0.6,0.7-1.3,0.8-2,0.8c-1.6,0-2.5-1.1-2.5-2.3c0-1.3,1-2.4,2.4-2.4c1.2,0,2.3,0.8,2.3,2.4H133
		c0,0.9,0.7,1.5,1.7,1.5c0.5,0,1-0.2,1.5-0.6L136.7,234.2z M133.1,232.1h2.9c-0.2-0.8-0.9-1-1.4-1
		C134.1,231.1,133.4,231.3,133.1,232.1z"/>
	<path d="M137.4,228.1c0.5,0.5,1.7,2.1,1.7,4.3c0,2.3-1.2,3.8-1.7,4.3l-0.6-0.3c0.4-0.6,1.3-2,1.3-4c0-2-0.9-3.3-1.3-4L137.4,228.1z
		"/>
	<path d="M142.6,233.7l-0.5,1.3h-0.9l2.4-6.3h1l2.4,6.3h-0.9l-0.5-1.3H142.6z M145.4,232.9l-1.3-3.4l-1.3,3.4H145.4z"/>
	<path d="M151,231.7c1,0.1,1.5,0.8,1.5,1.6c0,1-0.8,1.7-2.1,1.7h-2.5v-6.3h2.2c1.2,0,2.1,0.6,2.1,1.6
		C152.2,230.9,151.8,231.5,151,231.7z M149.7,231.4c1.1,0,1.5-0.6,1.5-1.1c0-0.6-0.5-0.9-1.2-0.9h-1.3v2H149.7z M148.7,232.1v2.1
		h1.6c0.7,0,1.2-0.4,1.2-1c0-0.6-0.5-1.1-1.6-1.1H148.7z"/>
	<path d="M154.4,230.3v4.7h-0.9v-6.3h0.7l3.5,4.7v-4.7h0.9v6.3h-0.7L154.4,230.3z"/>
	<path d="M163.9,232.8c-1.2,0-2.2-0.8-2.2-2.1c0-1.2,0.9-2.1,2.3-2.1c1.6,0,2.5,1.3,2.5,3.1c0,1.9-0.9,3.4-2.7,3.4
		c-0.8,0-1.4-0.3-1.8-0.7l0.6-0.5c0.2,0.3,0.7,0.4,1.2,0.4c1.1,0,1.8-1.1,1.8-2.5C165.3,232.5,164.5,232.8,163.9,232.8z M164,229.3
		c-0.8,0-1.4,0.5-1.4,1.3s0.7,1.3,1.4,1.3s1.5-0.5,1.5-1.3S164.8,229.3,164,229.3z"/>
	<path d="M166.8,229.6l2.1-1h0.4v6.3h-0.9v-5.3l-1.4,0.6L166.8,229.6z"/>
	<path d="M175.1,235.1c-1.7,0-2.7-1.5-2.7-3.3c0-1.8,1-3.3,2.7-3.3s2.7,1.5,2.7,3.3C177.8,233.6,176.8,235.1,175.1,235.1z
		 M175.1,229.3c-1.1,0-1.8,1.1-1.8,2.5s0.7,2.5,1.8,2.5c1.1,0,1.9-1.1,1.9-2.5S176.2,229.3,175.1,229.3z"/>
	<path d="M181.2,235.1c-1.7,0-2.7-1.5-2.7-3.3c0-1.8,1-3.3,2.7-3.3c1.7,0,2.7,1.5,2.7,3.3C183.9,233.6,182.9,235.1,181.2,235.1z
		 M181.2,229.3c-1.1,0-1.8,1.1-1.8,2.5s0.7,2.5,1.8,2.5s1.9-1.1,1.9-2.5S182.3,229.3,181.2,229.3z"/>
	<path d="M187.2,230.9c1.2,0,2.2,0.8,2.2,2.1c0,1.2-0.9,2.1-2.3,2.1c-1.6,0-2.6-1.3-2.6-3.1c0-1.9,0.9-3.4,2.7-3.4
		c0.8,0,1.4,0.3,1.8,0.7l-0.6,0.5c-0.2-0.3-0.7-0.4-1.2-0.4c-1,0-1.8,0.9-1.8,2.4C186,231.1,186.6,230.9,187.2,230.9z M187.1,234.3
		c0.8,0,1.4-0.5,1.4-1.3s-0.7-1.3-1.4-1.3s-1.5,0.5-1.5,1.3S186.3,234.3,187.1,234.3z"/>
	<path d="M194.8,230.9c1.2,0,2.2,0.8,2.2,2.1c0,1.2-0.9,2.1-2.3,2.1c-1.6,0-2.6-1.3-2.6-3.1c0-1.9,0.9-3.4,2.7-3.4
		c0.8,0,1.4,0.3,1.8,0.7l-0.6,0.5c-0.2-0.3-0.7-0.4-1.2-0.4c-1,0-1.8,0.9-1.8,2.4C193.5,231.1,194.2,230.9,194.8,230.9z
		 M194.7,234.3c0.8,0,1.4-0.5,1.4-1.3s-0.7-1.3-1.4-1.3s-1.5,0.5-1.5,1.3S193.9,234.3,194.7,234.3z"/>
	<path d="M197.4,228.7h4.5v0.6l-3.2,5.7h-1l3.2-5.6h-3.6V228.7z"/>
	<path d="M204.9,235.1c-1.7,0-2.7-1.5-2.7-3.3c0-1.8,1-3.3,2.7-3.3c1.7,0,2.7,1.5,2.7,3.3C207.7,233.6,206.6,235.1,204.9,235.1z
		 M204.9,229.3c-1.1,0-1.8,1.1-1.8,2.5s0.7,2.5,1.8,2.5s1.9-1.1,1.9-2.5S206.1,229.3,204.9,229.3z"/>
	<path d="M213.2,235.1c-1.7,0-2.7-1.5-2.7-3.3c0-1.8,1-3.3,2.7-3.3s2.7,1.5,2.7,3.3C215.9,233.6,214.9,235.1,213.2,235.1z
		 M213.2,229.3c-1.1,0-1.8,1.1-1.8,2.5s0.7,2.5,1.8,2.5c1.1,0,1.9-1.1,1.9-2.5S214.3,229.3,213.2,229.3z"/>
	<path d="M219.2,230.9c1.2,0,2.2,0.8,2.2,2.1c0,1.2-0.9,2.1-2.3,2.1c-1.6,0-2.6-1.3-2.6-3.1c0-1.9,0.9-3.4,2.7-3.4
		c0.8,0,1.4,0.3,1.8,0.7l-0.6,0.5c-0.2-0.3-0.7-0.4-1.2-0.4c-1,0-1.8,0.9-1.8,2.4C217.9,231.1,218.6,230.9,219.2,230.9z
		 M219.1,234.3c0.8,0,1.4-0.5,1.4-1.3s-0.7-1.3-1.4-1.3s-1.5,0.5-1.5,1.3S218.3,234.3,219.1,234.3z"/>
	<path d="M224.7,235.1c-1.7,0-2.7-1.5-2.7-3.3c0-1.8,1-3.3,2.7-3.3c1.7,0,2.7,1.5,2.7,3.3C227.4,233.6,226.4,235.1,224.7,235.1z
		 M224.7,229.3c-1.1,0-1.8,1.1-1.8,2.5s0.7,2.5,1.8,2.5s1.9-1.1,1.9-2.5S225.9,229.3,224.7,229.3z"/>
	<path d="M231,233.7l-0.5,1.3h-0.9l2.4-6.3h1l2.4,6.3h-0.9l-0.5-1.3H231z M233.8,232.9l-1.3-3.4l-1.3,3.4H233.8z"/>
	<path d="M236.2,235v-6.3h4v0.7h-3.1v2.1h2.7v0.7h-2.7v2.7H236.2z"/>
	<path d="M241.4,233.3c0.1,0.5,0.7,1,1.5,1c0.8,0,1.3-0.4,1.3-1c0-0.5-0.4-0.8-0.9-1l-0.9-0.3c-1.2-0.4-1.5-1.1-1.5-1.7
		c0-1.1,1-1.7,2-1.7c1.1,0,1.9,0.6,2.1,1.5l-0.8,0.2c-0.2-0.6-0.6-0.9-1.3-0.9c-0.6,0-1.1,0.3-1.1,0.9c0,0.3,0.1,0.6,0.8,0.9l1,0.4
		c1,0.3,1.5,1,1.5,1.7c0,1.1-0.9,1.8-2.2,1.8c-1.3,0-2.1-0.7-2.3-1.6L241.4,233.3z"/>
	<path d="M249.9,235h-3.8v-6.3h0.9v5.6h2.9V235z"/>
	<path d="M253.4,234.3c0.3,0,1.3,0,1.4,0h1.8v0.7h-4.5l-0.1-0.6l2.6-2.4c0.5-0.4,0.9-0.9,0.9-1.5c0-0.8-0.5-1.2-1.3-1.2
		c-1.1,0-1.3,0.6-1.3,1h-0.9c0-0.7,0.5-1.8,2.2-1.8c1.3,0,2.2,0.8,2.2,2c0,1-0.6,1.6-1.2,2.1L253.4,234.3L253.4,234.3z"/>
	<path d="M261,232.9c0-0.7-0.6-1.3-1.4-1.3c-0.2,0-0.6,0-0.9,0.3l-0.4-0.5l2.1-2h-2.9v-0.7h4.2v0.6l-1.9,1.8c1.1,0,2.1,0.7,2.1,1.9
		c0,1.2-0.9,2.2-2.5,2.2c-1.1,0-1.8-0.4-2.2-0.7l0.5-0.6c0.6,0.4,1,0.5,1.7,0.5C260.4,234.3,261,233.5,261,232.9z"/>
	<path d="M263,233.8c0.3,0.3,1.1,0.5,1.6,0.5c1.1,0,1.6-0.7,1.6-1.4c0-0.6-0.5-1.3-1.5-1.3c-0.5,0-1.1,0.2-1.5,0.5l-0.6-0.3l0.2-3.1
		h3.8v0.7h-3l-0.2,1.9c0.3-0.3,0.8-0.5,1.4-0.5c1.4,0,2.2,1,2.2,2.1c0,1.3-0.9,2.2-2.5,2.2c-0.9,0-1.7-0.4-2.1-0.7L263,233.8z"/>
	<path d="M269.1,234.3c0.3,0,1.3,0,1.4,0h1.8v0.7h-4.5l-0.1-0.6l2.6-2.4c0.5-0.4,0.9-0.9,0.9-1.5c0-0.8-0.5-1.2-1.3-1.2
		c-1.1,0-1.3,0.6-1.3,1h-0.9c0-0.7,0.5-1.8,2.2-1.8c1.3,0,2.2,0.8,2.2,2c0,1-0.6,1.6-1.2,2.1L269.1,234.3L269.1,234.3z"/>
	<path d="M274.3,234.3c0.3,0,1.3,0,1.4,0h1.8v0.7H273l-0.1-0.6l2.6-2.4c0.5-0.4,0.9-0.9,0.9-1.5c0-0.8-0.5-1.2-1.3-1.2
		c-1.1,0-1.3,0.6-1.3,1h-0.9c0-0.7,0.5-1.8,2.2-1.8c1.3,0,2.2,0.8,2.2,2c0,1-0.6,1.6-1.2,2.1L274.3,234.3L274.3,234.3z"/>
	<path d="M280.8,230.9c1.2,0,2.2,0.8,2.2,2.1c0,1.2-0.9,2.1-2.3,2.1c-1.6,0-2.6-1.3-2.6-3.1c0-1.9,0.9-3.4,2.7-3.4
		c0.8,0,1.4,0.3,1.8,0.7l-0.6,0.5c-0.2-0.3-0.7-0.4-1.2-0.4c-1,0-1.8,0.9-1.8,2.4C279.5,231.1,280.2,230.9,280.8,230.9z
		 M280.7,234.3c0.8,0,1.4-0.5,1.4-1.3s-0.7-1.3-1.4-1.3s-1.5,0.5-1.5,1.3S279.9,234.3,280.7,234.3z"/>
</g>
</svg>
