<?xml version="1.0" encoding="UTF-8"?><svg xmlns="http://www.w3.org/2000/svg" viewBox="0 0 300 600"><defs><style>.d{fill:#fff;}.e{fill:none;stroke:#fff;stroke-miterlimit:10;stroke-width:2.15px;}</style></defs><g id="a"/><g id="b"><g><path class="d" d="M69.38,76.58c.95,.95,1.98,1.72,3.1,2.41,1.98,1.29,4.64,2.32,7.65,2.32,3.87,0,6.45-2.58,6.45-5.59s-2.58-5.59-6.45-5.59c-1.98,0-3.44,.69-4.47,1.29-.6,.43-1.12,.86-1.55,1.29l-13.33-2.58,2.58-34.4h40.42v15.91h-22.79l-.86,6.45c.69-.34,1.46-.6,2.32-.86,1.46-.43,3.44-.86,5.85-.86,10.75,0,19.35,8.51,19.35,19.78,0,12.04-9.46,21.5-24.51,21.5-8.26,0-14.36-2.41-18.4-4.9-2.41-1.46-4.47-3.18-6.11-4.99l10.75-11.18Z"/><path class="d" d="M110.93,65.83c0-19.35,12.47-31.82,27.09-31.82s27.09,12.47,27.09,31.82-12.47,31.82-27.09,31.82-27.09-12.47-27.09-31.82Zm34.83,0c0-10.75-3.87-14.62-7.74-14.62s-7.74,3.87-7.74,14.62,3.87,14.62,7.74,14.62,7.74-3.87,7.74-14.62Z"/><path class="d" d="M182.9,34.44c9.03,0,16.34,6.88,16.34,15.48s-7.31,15.48-16.34,15.48-16.34-6.88-16.34-15.48,7.31-15.48,16.34-15.48Zm32.25,1.29h15.48l-37.84,60.2h-15.48l37.84-60.2Zm-32.25,18.49c2.67,0,4.3-2.15,4.3-4.3s-1.63-4.3-4.3-4.3-4.3,2.15-4.3,4.3,1.63,4.3,4.3,4.3Zm42.14,12.04c9.03,0,16.34,6.88,16.34,15.48s-7.31,15.48-16.34,15.48-16.34-6.88-16.34-15.48,7.31-15.48,16.34-15.48Zm0,19.78c2.67,0,4.3-2.15,4.3-4.3s-1.63-4.3-4.3-4.3-4.3,2.15-4.3,4.3,1.63,4.3,4.3,4.3Z"/><path class="e" d="M94.32,103.49c19.69,0,33.97,14.19,33.97,31.82s-14.28,31.82-33.97,31.82-33.97-14.19-33.97-31.82,14.28-31.82,33.97-31.82Zm0,46.44c8.26,0,14.62-6.36,14.62-14.62s-6.36-14.62-14.62-14.62-14.62,6.36-14.62,14.62,6.36,14.62,14.62,14.62Z"/><path class="e" d="M136.25,105.21h47.73v16.77h-28.38v9.03h21.5v15.48h-21.5v18.92h-19.35v-60.2Z"/><path class="e" d="M191.06,105.21h47.73v16.77h-28.38v9.03h21.5v15.48h-21.5v18.92h-19.35v-60.2Z"/></g></g><g id="c"/></svg>