<?xml version="1.0" encoding="UTF-8"?><svg xmlns="http://www.w3.org/2000/svg" viewBox="0 0 300 600"><defs><style>.d{fill:#fff;}.e{fill:none;stroke:#fff;stroke-miterlimit:10;stroke-width:1.8px;}</style></defs><g id="a"/><g id="b"><g><g><path class="d" d="M53.46,136.32h4.08l5.44,6.76v-6.76h4.71v14.13h-4.08l-5.44-6.76v6.76h-4.71v-14.13Z"/><path class="d" d="M78.06,135.92c4.79,0,8.27,3.33,8.27,7.47s-3.47,7.47-8.27,7.47-8.27-3.33-8.27-7.47,3.48-7.47,8.27-7.47Zm0,10.9c2.01,0,3.56-1.49,3.56-3.43s-1.55-3.43-3.56-3.43-3.56,1.49-3.56,3.43,1.55,3.43,3.56,3.43Z"/><path class="d" d="M86.22,136.32h5.03l1.99,7.77h.11l2.3-7.77h3.77l2.3,7.77h.11l1.99-7.77h5.02l-4.82,14.13h-4.08l-2.37-7.47h-.08l-2.37,7.47h-4.08l-4.82-14.13Z"/><path class="d" d="M113.74,136.32h5.86c4.61,0,7.96,3.25,7.96,7.06s-3.35,7.06-7.96,7.06h-5.86v-14.13Zm5.76,10.29c2.01,0,3.35-1.29,3.35-3.23s-1.34-3.23-3.35-3.23h-1.05v6.46h1.05Z"/><path class="d" d="M129.64,136.32h11.62v3.73h-6.91v1.72h5.23v3.23h-5.23v1.72h7.12v3.73h-11.83v-14.13Z"/><path class="d" d="M143.67,136.32h4.71v9.89h6.07v4.24h-10.78v-14.13Z"/><path class="d" d="M156.22,136.32h4.71v14.13h-4.71v-14.13Z"/><path class="d" d="M162.08,136.32h5.02l2.62,9.58h.1l2.62-9.58h5.03l-5.03,14.13h-5.34l-5.02-14.13Z"/><path class="d" d="M178.62,136.32h11.62v3.73h-6.91v1.72h5.23v3.23h-5.23v1.72h7.12v3.73h-11.83v-14.13Z"/><path class="d" d="M192.64,136.32h7.22c3.24,0,5.55,2.22,5.55,5.04,0,1.47-.59,2.46-1.15,3.11-.36,.38-.73,.69-1.15,.93l2.83,5.04h-4.92l-2.09-4.04h-1.57v4.04h-4.71v-14.13Zm6.7,6.26c.84,0,1.36-.5,1.36-1.21s-.52-1.21-1.36-1.21h-1.99v2.42h1.99Z"/><path class="d" d="M207.71,136.32h4.71v14.13h-4.71v-14.13Z"/><path class="d" d="M215.35,136.32h4.08l5.44,6.76v-6.76h4.71v14.13h-4.08l-5.44-6.76v6.76h-4.71v-14.13Z"/><path class="d" d="M239.73,142.58h6.8v5.45c-.48,.52-1.05,.99-1.7,1.41-1.11,.71-2.74,1.41-4.9,1.41-4.79,0-8.27-3.33-8.27-7.47s3.47-7.47,8.27-7.47c2.16,0,3.73,.67,4.79,1.37,.63,.4,1.15,.85,1.59,1.35l-2.83,2.93c-.25-.3-.54-.57-.9-.81-.59-.4-1.47-.81-2.55-.81-2.09,0-3.66,1.49-3.66,3.43s1.55,3.43,3.56,3.43c.77,0,1.34-.14,1.74-.3,.23-.08,.42-.18,.57-.3v-1.11h-2.51v-2.52Z"/></g><g><path class="e" d="M63.01,175.67h11.39l11.1,13.72,11.1-13.72h11.39v38.41h-12.81v-20.58l-9.68,11.8-9.68-11.8v20.58h-12.81v-38.41Z"/><path class="e" d="M136.61,174.57c13.04,0,22.49,9.05,22.49,20.3s-9.45,20.3-22.49,20.3-22.49-9.05-22.49-20.3,9.45-20.3,22.49-20.3Zm0,29.63c5.47,0,9.68-4.06,9.68-9.33s-4.21-9.33-9.68-9.33-9.68,4.06-9.68,9.33,4.21,9.33,9.68,9.33Z"/><path class="e" d="M165.21,175.67h19.64c8.82,0,15.09,6.04,15.09,13.72,0,4.01-1.59,6.69-3.13,8.45-.97,1.04-1.99,1.87-3.13,2.52l7.69,13.72h-13.38l-5.69-10.98h-4.27v10.98h-12.81v-38.41Zm18.22,17.01c2.28,0,3.7-1.37,3.7-3.29s-1.42-3.29-3.7-3.29h-5.41v6.58h5.41Z"/><path class="e" d="M206.82,175.67h31.6v10.15h-18.79v4.66h14.23v8.78h-14.23v4.66h19.36v10.15h-32.17v-38.41Z"/><path class="d" d="M30.79,232.91h-10.53v-11.25H54.13v11.25h-10.53v27.16h-12.81v-27.16Z"/><path class="d" d="M77.87,220.56c13.04,0,22.49,9.05,22.49,20.3s-9.45,20.3-22.49,20.3-22.49-9.05-22.49-20.3,9.45-20.3,22.49-20.3Zm0,29.63c5.46,0,9.68-4.06,9.68-9.33s-4.21-9.33-9.68-9.33-9.68,4.06-9.68,9.33,4.21,9.33,9.68,9.33Z"/><path class="d" d="M125.07,246.35l-14.23-24.69h13.95l6.55,14.54h.29l6.55-14.54h13.95l-14.23,24.69v13.72h-12.81v-13.72Z"/><path class="d" d="M172.71,220.56c13.04,0,22.49,9.05,22.49,20.3s-9.45,20.3-22.49,20.3-22.49-9.05-22.49-20.3,9.45-20.3,22.49-20.3Zm0,29.63c5.47,0,9.68-4.06,9.68-9.33s-4.21-9.33-9.68-9.33-9.68,4.06-9.68,9.33,4.21,9.33,9.68,9.33Z"/><path class="d" d="M199.75,221.66h12.81v22.23c0,3.35,2.79,6.04,5.98,6.04s5.98-2.69,5.98-6.04v-22.23h12.81v22.23c0,9.88-7.63,17.29-18.79,17.29s-18.79-7.41-18.79-17.29v-22.23Z"/><path class="d" d="M243.59,221.66h19.64c8.82,0,15.09,6.04,15.09,13.72,0,4.01-1.59,6.69-3.13,8.45-.97,1.04-1.99,1.87-3.13,2.52l7.69,13.72h-13.38l-5.69-10.98h-4.27v10.98h-12.81v-38.41Zm18.22,17.01c2.28,0,3.7-1.37,3.7-3.29s-1.42-3.29-3.7-3.29h-5.41v6.58h5.41Z"/><path class="d" d="M64.12,267.65h15.94c12.52,0,21.63,8.84,21.63,19.21s-9.11,19.21-21.63,19.21h-15.94v-38.41Zm15.66,27.99c5.47,0,9.11-3.51,9.11-8.78s-3.64-8.78-9.11-8.78h-2.85v17.56h2.85Z"/><path class="d" d="M127.43,266.55c13.04,0,22.49,9.05,22.49,20.3s-9.45,20.3-22.49,20.3-22.49-9.05-22.49-20.3,9.45-20.3,22.49-20.3Zm0,29.63c5.47,0,9.68-4.06,9.68-9.33s-4.21-9.33-9.68-9.33-9.68,4.06-9.68,9.33,4.21,9.33,9.68,9.33Z"/><path class="d" d="M175.82,266.55c13.04,0,22.49,9.05,22.49,20.3s-9.45,20.3-22.49,20.3-22.49-9.05-22.49-20.3,9.45-20.3,22.49-20.3Zm0,29.63c5.46,0,9.68-4.06,9.68-9.33s-4.21-9.33-9.68-9.33-9.68,4.06-9.68,9.33,4.21,9.33,9.68,9.33Z"/><path class="d" d="M202.86,267.65h19.64c8.82,0,15.09,6.04,15.09,13.72,0,4.01-1.59,6.7-3.13,8.45-.97,1.04-1.99,1.87-3.13,2.52l7.69,13.72h-13.38l-5.69-10.97h-4.27v10.97h-12.81v-38.41Zm18.22,17.01c2.28,0,3.7-1.37,3.7-3.29s-1.42-3.29-3.7-3.29h-5.41v6.58h5.41Z"/></g></g></g><g id="c"/></svg>