<?xml version="1.0" encoding="UTF-8"?><svg xmlns="http://www.w3.org/2000/svg" viewBox="0 0 166.15 37.63"><defs><style>.d{fill:#fcdacc;}.e{fill:#ff3008;}</style></defs><g id="a"/><g id="b"><g id="c"><g><rect class="d" x="0" y="0" width="166.15" height="37.63" rx="18.82" ry="18.82"/><g><path class="e" d="M38.66,13.55c3.28,0,5.76,2.5,5.76,5.54s-2.49,5.54-5.76,5.54-5.76-2.5-5.76-5.54,2.49-5.54,5.76-5.54Zm0,8.95c1.9,0,3.41-1.52,3.41-3.41s-1.52-3.41-3.41-3.41-3.41,1.52-3.41,3.41,1.52,3.41,3.41,3.41Z"/><path class="e" d="M46.61,13.77h4.7c2.28,0,3.72,1.44,3.72,3.56,0,1.21-.44,2-.91,2.47-.26,.27-.56,.49-.91,.64l2.2,3.94h-2.5l-1.9-3.49h-2.12v3.49h-2.28V13.77Zm4.63,5.01c.85,0,1.44-.59,1.44-1.44s-.59-1.44-1.44-1.44h-2.35v2.88h2.35Z"/><path class="e" d="M57.44,13.77h3.87c3.26,0,5.61,2.35,5.61,5.31s-2.35,5.31-5.61,5.31h-3.87V13.77Zm3.87,8.49c1.9,0,3.26-1.36,3.26-3.19s-1.37-3.19-3.26-3.19h-1.59v6.37h1.59Z"/><path class="e" d="M69.11,13.77h7.89v2.12h-5.61v2.05h4.4v2.05h-4.4v2.27h5.76v2.12h-8.04V13.77Z"/><path class="e" d="M79.44,13.77h4.7c2.27,0,3.72,1.44,3.72,3.56,0,1.21-.44,2-.91,2.47-.26,.27-.56,.49-.91,.64l2.2,3.94h-2.5l-1.9-3.49h-2.12v3.49h-2.27V13.77Zm4.63,5.01c.85,0,1.44-.59,1.44-1.44s-.59-1.44-1.44-1.44h-2.35v2.88h2.35Z"/><path class="e" d="M93.62,13.77h2.05l5.16,6.6v-6.6h2.28v10.62h-2.05l-5.16-6.6v6.6h-2.28V13.77Z"/><path class="e" d="M111.04,13.55c3.28,0,5.76,2.5,5.76,5.54s-2.49,5.54-5.76,5.54-5.76-2.5-5.76-5.54,2.49-5.54,5.76-5.54Zm0,8.95c1.9,0,3.41-1.52,3.41-3.41s-1.52-3.41-3.41-3.41-3.41,1.52-3.41,3.41,1.52,3.41,3.41,3.41Z"/><path class="e" d="M117.48,13.77h2.35l2.2,7.13h.08l2.2-7.13h2.12l2.2,7.13h.08l2.2-7.13h2.35l-3.49,10.62h-2.2l-2.15-6.9h-.09l-2.15,6.9h-2.2l-3.49-10.62Z"/></g></g></g></g></svg>