<?xml version="1.0" encoding="UTF-8"?><svg xmlns="http://www.w3.org/2000/svg" viewBox="0 0 300 600"><defs><style>.d{fill:#fff;}</style></defs><g id="a"/><g id="b"><g><path class="d" d="M95.55,322.56l-1-.24,.16-.44,.96,.32-.08-1.04h.48l-.08,1.04,.96-.32,.16,.44-1,.24,.68,.84-.36,.28-.6-.88-.6,.88-.36-.28,.68-.84Z"/><path class="d" d="M99.53,321.72h-1.76l.12-.56h4.12l-.12,.56h-1.76l-1.06,5.04h-.6l1.06-5.04Z"/><path class="d" d="M105.93,326.78s-.05,.02-.08,.03c-.06,.02-.14,.02-.22,.02-.26,0-.46-.14-.59-.3-.08-.09-.15-.19-.21-.3-.12,.11-.26,.22-.41,.3-.26,.15-.63,.3-1.11,.3-.86,0-1.44-.52-1.44-1.32,0-.58,.36-1.01,.73-1.31,.22-.18,.46-.33,.73-.46-.1-.14-.19-.3-.27-.46-.14-.28-.26-.62-.26-.94,0-.7,.64-1.27,1.36-1.27s1.24,.48,1.24,1.11c0,.48-.34,.91-.69,1.19-.2,.18-.43,.33-.69,.46l.98,1.59c.09-.11,.18-.24,.26-.38,.14-.25,.29-.6,.36-1.02h.52c-.1,.57-.31,1.02-.5,1.34-.11,.18-.23,.35-.37,.5,.05,.09,.1,.16,.16,.22,.1,.12,.22,.22,.38,.22,.07,0,.13,0,.18-.02l.07-.02-.11,.5Zm-2.36-2.67c-.22,.13-.42,.26-.59,.41-.3,.26-.59,.59-.59,1,0,.45,.28,.8,.92,.8,.38,0,.68-.12,.9-.24,.14-.07,.25-.15,.35-.24l-.99-1.73Zm.74-1c.26-.22,.54-.52,.54-.86s-.3-.65-.7-.65c-.52,0-.84,.35-.84,.76,0,.25,.12,.52,.24,.74,.07,.13,.15,.26,.24,.38,.2-.1,.38-.22,.53-.36Z"/><path class="d" d="M111.82,325.91c-.18,.17-.38,.33-.61,.46-.38,.23-.94,.46-1.6,.46-1.54,0-2.61-1.17-2.61-2.6,0-1.78,1.54-3.16,3.2-3.16,1.58,0,2.21,1.21,2.21,1.21l-.48,.34c-.1-.18-.24-.35-.41-.5-.29-.25-.74-.5-1.39-.5-1.31,0-2.53,1.14-2.53,2.6,0,1.15,.85,2.04,2.07,2.04,.55,0,1.01-.19,1.33-.39,.18-.12,.35-.25,.5-.4l.31,.42Z"/><path class="d" d="M112.91,325.65s.29,.66,1.03,.66c.51,0,.82-.27,.82-.65,0-.7-1.73-.66-1.73-1.69,0-.61,.56-1.14,1.35-1.14,.92,0,1.29,.67,1.29,.65l-.48,.35s-.21-.48-.86-.48c-.44,0-.74,.28-.74,.57,0,.68,1.73,.58,1.73,1.68,0,.68-.58,1.23-1.44,1.23-1.13,0-1.46-.84-1.46-.83l.48-.35Z"/><path class="d" d="M120.22,326.28c-.09,.1-.19,.2-.31,.28-.22,.15-.53,.28-.94,.28-.78,0-1.24-.5-1.24-1.08s.46-1.06,1.22-1.18l1.69-.26c0-.06,.02-.1,.02-.14,0-.46-.32-.82-.89-.82-.31,0-.58,.1-.76,.22-.1,.06-.21,.14-.3,.22l-.29-.4c.12-.1,.25-.19,.38-.28,.25-.14,.58-.28,1-.28,.8,0,1.39,.49,1.39,1.29,0,.12,0,.25-.04,.38l-.47,2.24h-.56l.1-.48Zm.31-1.46l-1.41,.23c-.63,.1-.84,.4-.84,.71s.27,.56,.72,.56c.78,0,1.29-.51,1.46-1.18l.07-.32Z"/><path class="d" d="M122.74,322.92h.56l-.1,.53c.09-.11,.2-.22,.34-.3,.22-.15,.55-.3,.97-.3,.94,0,1.63,.7,1.63,1.76,0,1.3-1.07,2.24-2.07,2.24-.57,0-.9-.22-1.12-.44-.13-.13-.22-.27-.29-.44l-.53,2.48h-.56l1.18-5.52Zm2.83,1.68c0-.69-.47-1.24-1.15-1.24-.74,0-1.54,.72-1.54,1.64,0,.76,.5,1.32,1.17,1.32,.77,0,1.51-.73,1.51-1.72Z"/><path class="d" d="M127.5,322.92h.56l-.1,.53c.09-.11,.2-.22,.33-.3,.22-.15,.55-.3,.97-.3,.94,0,1.63,.7,1.63,1.76,0,1.3-1.07,2.24-2.07,2.24-.57,0-.9-.22-1.12-.44-.13-.13-.22-.27-.29-.44l-.53,2.48h-.56l1.18-5.52Zm2.83,1.68c0-.69-.47-1.24-1.15-1.24-.74,0-1.54,.72-1.54,1.64,0,.76,.5,1.32,1.17,1.32,.77,0,1.51-.73,1.51-1.72Z"/><path class="d" d="M132.67,321.16h.56l-1.18,5.6h-.56l1.18-5.6Z"/><path class="d" d="M132.76,327.82l.11,.05c.07,.02,.16,.05,.28,.05,.36,0,.59-.19,.82-.6l.32-.56-.72-3.84h.58l.58,3.09,1.9-3.09h.62l-2.69,4.4c-.49,.78-.83,1.12-1.44,1.12-.15,0-.26-.02-.35-.05l-.12-.05,.11-.52Z"/><path class="d" d="M136.87,326.47c0-.25,.2-.43,.43-.43,.21,0,.37,.15,.37,.37,0,.23-.2,.43-.43,.43-.22,0-.37-.15-.37-.37Z"/><path class="d" d="M140.72,325.4c.09,.17,.2,.31,.33,.44,.25,.22,.62,.44,1.22,.44,.77,0,1.28-.47,1.28-1.08,0-1.12-2.52-.86-2.52-2.52,0-.81,.74-1.6,1.88-1.6,.63,0,1.07,.22,1.35,.44,.17,.14,.3,.28,.41,.44l-.48,.38c-.07-.13-.18-.24-.3-.34-.22-.18-.54-.35-1.02-.35-.74,0-1.24,.5-1.24,1.04,0,1.11,2.52,.89,2.52,2.52,0,.89-.78,1.64-1.92,1.64-.74,0-1.24-.26-1.56-.52-.18-.15-.34-.32-.45-.52l.49-.4Z"/><path class="d" d="M148.17,326.23c-.12,.11-.26,.22-.41,.3-.26,.15-.63,.3-1.09,.3-1.04,0-1.74-.8-1.74-1.8,0-1.28,1.1-2.2,2.14-2.2,.96,0,1.66,.7,1.66,1.64,0,.15-.02,.29-.04,.39l-.03,.17h-3.19c0,.77,.57,1.28,1.28,1.28,.34,0,.62-.12,.82-.24,.12-.07,.22-.15,.32-.25l.28,.4Zm0-1.67v-.02s0-.02,0-.05c0-.52-.42-1.13-1.17-1.13-.67,0-1.33,.56-1.46,1.2h2.61Z"/><path class="d" d="M152.66,326.23c-.12,.11-.26,.22-.41,.3-.26,.15-.63,.3-1.09,.3-1.04,0-1.74-.8-1.74-1.8,0-1.28,1.1-2.2,2.14-2.2,.96,0,1.66,.7,1.66,1.64,0,.15-.02,.29-.04,.39l-.03,.17h-3.19c0,.77,.57,1.28,1.28,1.28,.34,0,.62-.12,.82-.24,.12-.07,.22-.15,.32-.25l.28,.4Zm0-1.67v-.02s0-.02,0-.05c0-.52-.42-1.13-1.17-1.13-.67,0-1.33,.56-1.46,1.2h2.61Z"/><path class="d" d="M157.94,326.28c-.09,.1-.19,.2-.31,.28-.22,.15-.53,.28-.94,.28-.78,0-1.24-.5-1.24-1.08s.46-1.06,1.22-1.18l1.69-.26c0-.06,.02-.1,.02-.14,0-.46-.32-.82-.89-.82-.31,0-.58,.1-.76,.22-.1,.06-.21,.14-.29,.22l-.29-.4c.12-.1,.25-.19,.38-.28,.25-.14,.58-.28,1-.28,.8,0,1.39,.49,1.39,1.29,0,.12,0,.25-.04,.38l-.47,2.24h-.56l.1-.48Zm.31-1.46l-1.41,.23c-.63,.1-.84,.4-.84,.71s.27,.56,.72,.56c.78,0,1.29-.51,1.46-1.18l.07-.32Z"/><path class="d" d="M160.46,322.92h.56l-.1,.53c.09-.11,.2-.22,.33-.3,.22-.15,.55-.3,.97-.3,.94,0,1.63,.7,1.63,1.76,0,1.3-1.07,2.24-2.07,2.24-.57,0-.9-.22-1.12-.44-.13-.13-.22-.27-.29-.44l-.53,2.48h-.56l1.18-5.52Zm2.83,1.68c0-.69-.47-1.24-1.15-1.24-.74,0-1.54,.72-1.54,1.64,0,.76,.5,1.32,1.17,1.32,.77,0,1.51-.73,1.51-1.72Z"/><path class="d" d="M165.22,322.92h.56l-.1,.53c.09-.11,.2-.22,.33-.3,.22-.15,.55-.3,.97-.3,.94,0,1.63,.7,1.63,1.76,0,1.3-1.07,2.24-2.07,2.24-.57,0-.9-.22-1.12-.44-.13-.13-.22-.27-.29-.44l-.53,2.48h-.56l1.17-5.52Zm2.83,1.68c0-.69-.47-1.24-1.15-1.24-.74,0-1.54,.72-1.54,1.64,0,.76,.5,1.32,1.18,1.32,.77,0,1.51-.73,1.51-1.72Z"/><path class="d" d="M171.74,323.44h-.6l.11-.52h.6l.15-.72c.15-.73,.5-1.12,1.19-1.12,.18,0,.33,.05,.46,.09,.06,.02,.12,.05,.17,.08l-.11,.52s-.1-.06-.15-.08c-.1-.04-.23-.09-.4-.09-.28,0-.5,.14-.59,.6l-.15,.72h.92l-.11,.52h-.92l-.7,3.32h-.56l.7-3.32Z"/><path class="d" d="M173.52,325.04c0-1.26,1-2.2,2.18-2.2,1.06,0,1.78,.8,1.78,1.8,0,1.26-1,2.2-2.18,2.2-1.06,0-1.78-.8-1.78-1.8Zm3.41-.4c0-.7-.52-1.28-1.26-1.28-.84,0-1.58,.7-1.58,1.68,0,.7,.52,1.28,1.26,1.28,.84,0,1.58-.7,1.58-1.68Z"/><path class="d" d="M178.9,322.92h.56l-.1,.45c.09-.1,.2-.18,.33-.26,.22-.13,.53-.26,.91-.26h.31l-.12,.56h-.37c-.52,0-1.14,.37-1.33,1.24l-.45,2.12h-.56l.81-3.84Z"/><path class="d" d="M185.46,326.23c-.1,.11-.21,.22-.34,.3-.22,.15-.54,.3-.96,.3-.94,0-1.63-.7-1.63-1.76,0-1.3,1.07-2.24,2.07-2.24,.55,0,.9,.22,1.12,.44,.13,.14,.22,.28,.29,.44l.54-2.56h.56l-1.18,5.6h-.56l.1-.53Zm.31-1.55c0-.76-.5-1.32-1.18-1.32-.77,0-1.51,.73-1.51,1.72,0,.69,.47,1.24,1.15,1.24,.74,0,1.54-.72,1.54-1.64Z"/><path class="d" d="M190.57,326.23c-.12,.11-.26,.22-.41,.3-.26,.15-.63,.3-1.09,.3-1.04,0-1.74-.8-1.74-1.8,0-1.28,1.1-2.2,2.14-2.2,.96,0,1.65,.7,1.65,1.64,0,.15-.02,.29-.04,.39l-.03,.17h-3.19c0,.77,.57,1.28,1.28,1.28,.34,0,.62-.12,.82-.24,.12-.07,.22-.15,.32-.25l.28,.4Zm0-1.67v-.02s0-.02,0-.05c0-.52-.42-1.13-1.17-1.13-.67,0-1.33,.56-1.46,1.2h2.61Z"/><path class="d" d="M192.7,323.44h-.72l.11-.52h.44c.21,0,.34-.14,.4-.4l.19-.88h.52l-.27,1.28h.84l-.11,.52h-.84l-.47,2.2c-.02,.07-.02,.14-.02,.2,0,.31,.2,.48,.55,.48,.12,0,.2,0,.29-.03l.13-.03-.12,.53-.11,.03c-.07,.02-.16,.02-.26,.02-.7,0-1.03-.39-1.03-.94,0-.12,.02-.22,.04-.34l.46-2.11Z"/><path class="d" d="M196.98,326.28c-.09,.1-.19,.2-.31,.28-.22,.15-.53,.28-.94,.28-.78,0-1.24-.5-1.24-1.08s.46-1.06,1.22-1.18l1.69-.26c0-.06,.02-.1,.02-.14,0-.46-.32-.82-.89-.82-.31,0-.58,.1-.76,.22-.1,.06-.21,.14-.3,.22l-.29-.4c.12-.1,.25-.19,.38-.28,.25-.14,.58-.28,1-.28,.8,0,1.39,.49,1.39,1.29,0,.12,0,.25-.04,.38l-.47,2.24h-.56l.1-.48Zm.31-1.46l-1.41,.23c-.63,.1-.84,.4-.84,.71s.27,.56,.72,.56c.78,0,1.29-.51,1.46-1.18l.07-.32Z"/><path class="d" d="M199.5,322.92h.56l-.82,3.84h-.56l.81-3.84Zm.18-1.25c0-.23,.2-.39,.4-.39,.18,0,.32,.14,.32,.33,0,.23-.2,.39-.39,.39s-.33-.14-.33-.33Z"/><path class="d" d="M201.74,321.16h.56l-1.18,5.6h-.56l1.18-5.6Z"/><path class="d" d="M202.69,325.65s.29,.66,1.03,.66c.51,0,.82-.27,.82-.65,0-.7-1.73-.66-1.73-1.69,0-.61,.56-1.14,1.35-1.14,.92,0,1.29,.67,1.29,.65l-.48,.35s-.22-.48-.86-.48c-.44,0-.74,.28-.74,.57,0,.68,1.73,.58,1.73,1.68,0,.68-.58,1.23-1.44,1.23-1.13,0-1.46-.84-1.46-.83l.48-.35Z"/></g></g><g id="c"/></svg>