<?xml version="1.0" encoding="utf-8"?>
<!-- Generator: Adobe Illustrator 22.1.0, SVG Export Plug-In . SVG Version: 6.00 Build 0)  -->
<svg version="1.1" id="Layer_1" xmlns="http://www.w3.org/2000/svg" xmlns:xlink="http://www.w3.org/1999/xlink" x="0px" y="0px"
	 viewBox="0 0 160 600" style="enable-background:new 0 0 160 600;" xml:space="preserve">
<style type="text/css">
	.st0{fill:#FFFFFF;}
	.st1{fill:none;stroke:#FFFFFF;stroke-width:0.1701;stroke-miterlimit:10;}
	.st2{fill:#6A6191;}
</style>
<g>
	<path class="st0" d="M83.9,213.1c2.4-2.1,4.2-6.5,4.2-8.9c0-2.2-3.6-3-7.1-3c-3.5,0-7.1,0.8-7.1,3c0,2.3,2.1,6.7,4.6,8.8
		c-7.5,1.8-13.2,11.2-13.2,19.2c0,4.8,7.9,10,15.8,10c7.8,0,15.8-5.1,15.8-10C96.8,224.3,91.2,215.1,83.9,213.1L83.9,213.1z
		 M75.5,204.1c0-0.5,1.9-1.4,5.5-1.4c3.6,0,5.5,1,5.5,1.4c0,2.8-2.9,8.5-5.2,8.5C79,212.7,75.5,207,75.5,204.1L75.5,204.1z
		 M81,240.5c-6.9,0-14.2-4.9-14.2-8.4c0-8.1,6.6-17.9,14.2-17.9c7.6,0,14.2,9.8,14.2,17.9C95.2,235.6,87.9,240.5,81,240.5L81,240.5z
		"/>
	<path class="st1" d="M83.9,213.1c2.4-2.1,4.2-6.5,4.2-8.9c0-2.2-3.6-3-7.1-3c-3.5,0-7.1,0.8-7.1,3c0,2.3,2.1,6.7,4.6,8.8
		c-7.5,1.8-13.2,11.2-13.2,19.2c0,4.8,7.9,10,15.8,10c7.8,0,15.8-5.1,15.8-10C96.8,224.3,91.2,215.1,83.9,213.1L83.9,213.1z
		 M75.5,204.1c0-0.5,1.9-1.4,5.5-1.4c3.6,0,5.5,1,5.5,1.4c0,2.8-2.9,8.5-5.2,8.5C79,212.7,75.5,207,75.5,204.1L75.5,204.1z
		 M81,240.5c-6.9,0-14.2-4.9-14.2-8.4c0-8.1,6.6-17.9,14.2-17.9c7.6,0,14.2,9.8,14.2,17.9C95.2,235.6,87.9,240.5,81,240.5L81,240.5z
		"/>
	<polygon class="st2" points="18,184.3 18,285 141.2,285 141.2,184.3 18,184.3 	"/>
	<g>
		<path class="st0" d="M60.5,255.8h2.2V266h-2.2V255.8z"/>
	</g>
	<g>
		<path class="st0" d="M64.5,260.2c0,0,0-0.8,0-1.3h2l0.1,1.1c0.2-0.3,0.8-1.2,2.3-1.2c1.4,0,2,0.8,2.2,1.3c0.2,0.4,0.2,0.8,0.2,2.1
			v3.8H69v-4.4c0-0.3,0-0.5-0.1-0.8c-0.2-0.3-0.5-0.6-1-0.6c-0.4,0-0.9,0.2-1.1,0.5c-0.1,0.2-0.3,0.5-0.3,1.1v4.1h-2.1V260.2z"/>
		<path class="st0" d="M74.1,258.9l1.6,4.8l1.6-4.8h2l-2.5,7.1h-2.3l-2.6-7.1H74.1z"/>
	</g>
	<g>
		<path class="st0" d="M81.9,263c0,0.5,0,1.9,1.4,1.9c0.5,0,1-0.2,1.2-1h1.9c0,0.3-0.1,0.9-0.7,1.5c-0.5,0.5-1.4,0.8-2.5,0.8
			c-0.6,0-1.8-0.1-2.5-0.9c-0.6-0.7-0.9-1.6-0.9-2.8c0-1.1,0.3-2.5,1.5-3.3c0.5-0.4,1.2-0.6,2-0.6c1,0,2.2,0.4,2.9,1.7
			c0.5,1,0.4,2,0.4,2.6H81.9z M84.5,261.7c0-0.3,0-1.6-1.2-1.6c-0.9,0-1.3,0.8-1.3,1.6H84.5z"/>
		<path class="st0" d="M89.5,263.9c0,0.4,0.3,1,1.2,1c0.7,0,1.1-0.4,1.1-0.8c0-0.3-0.2-0.6-1-0.8l-1.3-0.4c-0.6-0.2-1.8-0.5-1.8-2
			c0-1.4,1.3-2.2,3.1-2.2c1.5,0,2.6,0.7,2.7,2.1h-1.9c-0.1-0.8-0.7-0.8-1-0.8c-0.6,0-1,0.3-1,0.7c0,0.5,0.3,0.6,1,0.7l1.3,0.4
			c1.3,0.4,1.9,1,1.9,2c0,1.2-1.1,2.4-3.3,2.4c-0.9,0-1.8-0.2-2.4-0.9c-0.5-0.5-0.5-1.1-0.5-1.4H89.5z"/>
		<path class="st0" d="M99.2,265.9c-0.7,0.2-1.3,0.2-1.6,0.2c-2.1,0-2.1-1.3-2.1-1.9v-3.9h-1.4V259h1.4v-1.4l2.1-0.8v2.1h1.7v1.4
			h-1.7v3.2c0,0.6,0,1.1,0.9,1.1c0.3,0,0.4,0,0.7,0V265.9z"/>
	</g>
	<g>
		<path class="st0" d="M79.6,243c-10.3,0-17-5.2-17-13.2c0-6.6,5.7-13.6,11.5-16.6c-1.7-2.5-2.8-6.4-2.8-7.9c0-4.4,5.2-4.4,8.3-4.4
			s8.3,0,8.3,4.4c0,1.6-1.1,5.5-2.8,7.9c5.8,3,11.5,10,11.5,16.6C96.6,237.8,89.9,243,79.6,243z M79.6,213.8
			c-5.8,0-14.8,8.5-14.8,15.9c0,8.1,7.6,11,14.8,11c7.1,0,14.8-2.9,14.8-11C94.4,222.4,85.4,213.8,79.6,213.8z M79.6,203.1
			c-5.1,0-6.1,0.8-6.1,2.2c0,1.3,1.2,5.2,2.7,7c2.4-0.8,4.5-0.8,6.9,0c1.5-1.9,2.7-5.7,2.7-7C85.7,203.9,84.7,203.1,79.6,203.1z"/>
	</g>
	<path class="st0" d="M75.4,228.9c0,1.2,0.2,2,0.9,2.7c0.3,0.2,1.2,1.1,2.8,1v1.7H80v-1.7c0.6,0,1.5-0.1,2.4-0.7
		c0.7-0.5,1.4-1.4,1.4-2.7c0-2.4-1.8-3-3.7-3.5v-3c0.7,0.1,1.3,0.3,1.3,1.6h2.3c0-0.6,0-1.5-0.9-2.3c-0.8-0.8-1.8-1-2.7-1v-1.4h-0.9
		v1.4c-0.6,0.1-1.8,0.2-2.8,1.2c-0.7,0.8-0.9,1.6-0.9,2.2c0,2.3,1.7,3,3.5,3.5v3c-0.4,0-1.5-0.2-1.4-1.9H75.4L75.4,228.9z
		 M79.2,225.3c-0.7-0.2-1.3-0.4-1.3-1.4c0-0.7,0.4-1.3,1.3-1.3V225.3L79.2,225.3z M80,227.9c1,0.3,1.4,0.7,1.4,1.4
		c0,0.9-0.7,1.4-1.4,1.4V227.9L80,227.9z"/>
</g>
</svg>
