<?xml version="1.0" encoding="utf-8"?>
<!-- Generator: Adobe Illustrator 22.1.0, SVG Export Plug-In . SVG Version: 6.00 Build 0)  -->
<svg version="1.1" id="Layer_1" xmlns="http://www.w3.org/2000/svg" xmlns:xlink="http://www.w3.org/1999/xlink" x="0px" y="0px"
	 viewBox="0 0 160 600" style="enable-background:new 0 0 160 600;" xml:space="preserve">
<style type="text/css">
	.st0{fill:#8B608F;}
	.st1{fill:#FFFFFF;}
</style>
<g>
	<polygon class="st0" points="18,292.7 18,393.4 141.2,393.4 141.2,292.7 18,292.7 	"/>
	<g>
		<g>
			<path class="st1" d="M38.7,361.6h3.8c0.6,0,1.7,0,2.5,0.5c0.9,0.6,1.1,1.6,1.1,2.2c0,0.4-0.1,1-0.6,1.5c-0.1,0.1-0.6,0.5-1.1,0.7
				v0c1.5,0.3,2.1,1.4,2.1,2.5c0,1.2-0.7,2-1.5,2.4c-0.8,0.4-2.2,0.4-2.5,0.4h-3.8V361.6z M40.8,365.7h1.5c0.6,0,1.7,0,1.7-1.3
				c0-1.3-1.1-1.3-1.8-1.3h-1.5V365.7z M40.8,370.1h1.5c1,0,2.1,0,2.1-1.4c0-1.4-1.3-1.4-2.3-1.4h-1.2V370.1z"/>
			<path class="st1" d="M50,364.7v4.2c0,0.6,0,1.6,1.1,1.6c1.3,0,1.3-1,1.3-2.2v-3.6h2.1v4.7c0,1.5,0,1.7,0,1.9c0,0.2,0,0.3,0.1,0.5
				h-2l-0.1-0.9c-0.2,0.3-0.7,1.1-2.1,1.1c-1,0-1.7-0.4-2.1-1c-0.5-0.6-0.5-1.6-0.5-1.9v-4.4H50z"/>
			<path class="st1" d="M56.5,361.6h2.2v1.8h-2.2V361.6z M56.5,364.7h2.1v7.1h-2.1V364.7z"/>
			<path class="st1" d="M60.4,361.6h2.1v10.1h-2.1V361.6z"/>
			<path class="st1" d="M69,361.6h2.1v9c0,0.4,0,0.9,0.1,1.1H69l-0.1-1c-0.1,0.3-0.3,0.5-0.7,0.8c-0.5,0.3-1.1,0.4-1.4,0.4
				c-1.9,0-3-1.3-3-3.5c0-2.3,1.3-3.8,3.1-3.8c1.3,0,1.8,0.7,2,1V361.6z M67.4,370.5c0.6,0,1.1-0.4,1.3-0.8c0.3-0.6,0.3-1.3,0.3-1.7
				c0-1.4-0.6-2.1-1.5-2.1c-1.4,0-1.5,1.7-1.5,2.4C66,369.5,66.4,370.5,67.4,370.5z"/>
			<path class="st1" d="M78.1,364.7l1.3,5.3l1.5-5.3h2.3l1.5,5.3l1.4-5.3h2.1l-2.4,7.1h-2.3l-1.5-5.2l-1.5,5.2h-2.3l-2.3-7.1H78.1z"
				/>
		</g>
		<g>
			<path class="st1" d="M90.6,368.7c0,0.5,0,1.9,1.4,1.9c0.5,0,1-0.2,1.2-1h1.9c0,0.3-0.1,0.9-0.7,1.5c-0.5,0.5-1.4,0.8-2.5,0.8
				c-0.6,0-1.8-0.1-2.5-0.9c-0.6-0.7-0.9-1.6-0.9-2.8c0-1.1,0.3-2.5,1.5-3.3c0.5-0.4,1.2-0.6,2-0.6c1,0,2.2,0.4,2.9,1.7
				c0.5,1,0.4,2,0.4,2.6H90.6z M93.2,367.4c0-0.3,0-1.6-1.2-1.6c-0.9,0-1.3,0.8-1.3,1.6H93.2z"/>
			<path class="st1" d="M101,371.7c-0.1-0.4-0.1-0.8-0.1-1c-0.8,1.1-1.7,1.1-2.1,1.1c-1,0-1.5-0.3-1.8-0.6c-0.4-0.4-0.6-1-0.6-1.6
				s0.2-1.6,1.5-2.2c0.9-0.4,2.1-0.4,2.8-0.4c0-0.5,0-0.7-0.1-0.9c-0.2-0.5-0.7-0.6-0.9-0.6c-0.3,0-0.6,0.1-0.8,0.4
				c-0.2,0.2-0.2,0.5-0.2,0.6h-2c0-0.4,0.1-1.1,0.8-1.7c0.6-0.5,1.5-0.6,2.1-0.6c0.6,0,1.8,0.1,2.5,0.9c0.5,0.6,0.5,1.4,0.5,1.7
				l0,2.8c0,0.6,0,1.2,0.2,1.8H101z M98.4,369.6c0,0.5,0.3,1,1,1c0.4,0,0.7-0.2,0.9-0.4c0.4-0.4,0.4-1,0.4-1.8
				C99.4,368.3,98.4,368.7,98.4,369.6z"/>
			<path class="st1" d="M104.5,361.6h2.1v10.1h-2.1V361.6z"/>
			<path class="st1" d="M112.6,371.6c-0.7,0.2-1.3,0.2-1.6,0.2c-2.1,0-2.1-1.3-2.1-1.9v-3.9h-1.4v-1.4h1.4v-1.4l2.1-0.8v2.1h1.7v1.4
				h-1.7v3.2c0,0.6,0,1,0.9,1c0.3,0,0.4,0,0.7,0V371.6z"/>
			<path class="st1" d="M113.9,361.6h2.1v4c0.2-0.3,0.8-1.1,2-1.1c1.1,0,1.7,0.5,2.1,1c0.3,0.4,0.5,1,0.5,1.9v4.3h-2.1v-4.2
				c0-0.4,0-1.5-1.2-1.5c-0.6,0-1.3,0.3-1.3,1.4l0,4.3h-2.1V361.6z"/>
		</g>
	</g>
	<path class="st1" d="M65.6,343.5l8-13c0.3,0.1,0.6,0.2,1,0.2c0.8,0,1.4-0.3,1.9-0.8l5.1,3.4c-0.2,0.4-0.3,1-0.2,1.5
		c0.2,1.1,1.1,2,2.2,2.2c0.1,0,0.3,0,0.4,0c0.8,0,1.5-0.4,2-0.9c0.5-0.6,0.7-1.4,0.6-2.1c0-0.4-0.2-0.8-0.5-1.2l6.5-10.1
		c0.1,0,0.3,0.1,0.4,0.1c0.1,0,0.3,0,0.4,0c0.8,0,1.5-0.4,2-0.9c0.5-0.6,0.7-1.4,0.6-2.1c-0.2-1.1-1.1-2-2.2-2.2
		c-0.9-0.1-1.9,0.2-2.4,0.9c-0.5,0.6-0.7,1.4-0.6,2.1c0.1,0.5,0.3,1,0.7,1.4l-6.4,10c-0.2-0.1-0.5-0.2-0.7-0.2
		c-0.7-0.1-1.4,0.1-2,0.5l-5.3-3.5c0-0.2,0.1-0.4,0.1-0.6c0-1.5-1.2-2.6-2.7-2.6s-2.7,1.2-2.7,2.6c0,0.7,0.2,1.3,0.6,1.7l-7.2,11.7
		v-29.4h-2.7v34.2h34.6v-2.7H65.6L65.6,343.5z M94.5,320.9c-0.3,0.4-0.8,0.5-1.2,0.4c-0.5-0.1-1-0.5-1.1-1.1c0-0.2,0-0.4,0-0.5
		c0-0.2,0.1-0.4,0.3-0.5c0.2-0.2,0.4-0.4,0.7-0.4c0.1,0,0.2,0,0.3,0c0.1,0,0.1,0,0.2,0c0,0,0.1,0,0.1,0c0.5,0.1,0.9,0.5,1,1l0,0
		C94.8,320.2,94.7,320.6,94.5,320.9L94.5,320.9z M84.2,332.9c0,0,0.1,0,0.1,0c0.5,0.1,0.9,0.5,1,1l0,0c0,0.4,0,0.8-0.3,1.1
		c-0.3,0.4-0.8,0.5-1.2,0.4c-0.5-0.1-1-0.5-1.1-1.1c0-0.2,0-0.4,0-0.5c0-0.2,0.1-0.4,0.3-0.5c0.2-0.2,0.4-0.4,0.7-0.4
		c0.1,0,0.2,0,0.3,0C84.1,332.9,84.1,332.9,84.2,332.9L84.2,332.9z M73.2,327.9c0-0.7,0.6-1.3,1.3-1.3c0.6,0,1.2,0.4,1.3,1.1
		c0,0.1,0,0.1,0,0.2c0,0.4-0.2,0.8-0.5,1c-0.2,0.2-0.5,0.3-0.8,0.3c0,0-0.1,0-0.2,0c-0.5-0.1-0.9-0.4-1-0.9
		C73.3,328.2,73.2,328.1,73.2,327.9L73.2,327.9z"/>
</g>
</svg>
