<?xml version="1.0" encoding="utf-8"?>
<!-- Generator: Adobe Illustrator 22.1.0, SVG Export Plug-In . SVG Version: 6.00 Build 0)  -->
<svg version="1.1" id="Layer_1" xmlns="http://www.w3.org/2000/svg" xmlns:xlink="http://www.w3.org/1999/xlink" x="0px" y="0px"
	 viewBox="0 0 160 600" style="enable-background:new 0 0 160 600;" xml:space="preserve">
<style type="text/css">
	.st0{fill:#B78CAE;}
	.st1{fill:#FFFFFF;}
</style>
<g>
	<polygon class="st0" points="18,401 18,501.7 141.2,501.7 141.2,401 18,401 	"/>
	<g>
		<path class="st1" d="M32.4,469.9v6.2c0,1.1,0.1,2.5,2.2,2.5c0.4,0,1.4,0,2-0.9c0.2-0.3,0.3-0.7,0.3-1.7v-6.1H39v6.3
			c0,3-2.4,4-4.4,4c-1,0-2.9-0.2-3.8-1.8c-0.5-0.8-0.5-1.6-0.5-2.5v-6.1H32.4z"/>
		<path class="st1" d="M42.4,478c0,0.4,0.3,1,1.2,1c0.7,0,1.1-0.4,1.1-0.8c0-0.3-0.2-0.6-1-0.8l-1.3-0.3c-0.6-0.2-1.8-0.5-1.8-2
			c0-1.4,1.3-2.2,3.1-2.2c1.5,0,2.6,0.7,2.7,2.1h-1.9c-0.1-0.8-0.7-0.8-1-0.8c-0.6,0-1,0.3-1,0.7c0,0.5,0.4,0.6,1,0.7l1.3,0.4
			c1.3,0.3,1.9,1,1.9,2c0,1.2-1.1,2.4-3.3,2.4c-0.9,0-1.8-0.2-2.4-0.9c-0.5-0.5-0.5-1.1-0.5-1.4H42.4z"/>
		<path class="st1" d="M49.7,477c0,0.5,0,1.9,1.4,1.9c0.5,0,1-0.2,1.2-1h1.9c0,0.3-0.1,0.9-0.7,1.5c-0.5,0.5-1.4,0.8-2.5,0.8
			c-0.6,0-1.8-0.1-2.5-0.9c-0.6-0.7-0.9-1.6-0.9-2.8c0-1.1,0.3-2.5,1.5-3.3c0.5-0.4,1.2-0.6,2-0.6c1,0,2.2,0.4,2.9,1.7
			c0.5,1,0.4,2,0.4,2.6H49.7z M52.3,475.7c0-0.3,0-1.6-1.2-1.6c-0.9,0-1.3,0.8-1.3,1.6H52.3z"/>
		<path class="st1" d="M61.2,472.9l1.6,4.9l1.6-4.9h2.1l-2.7,6.9l-0.9,2.8h-2.1l0.9-2.7l-2.7-7.1H61.2z"/>
	</g>
	<g>
		<path class="st1" d="M70.5,472.8c2.6,0,3.7,1.7,3.7,3.7c0,2-1.1,3.8-3.7,3.8c-2,0-3.6-1.2-3.6-3.7
			C66.8,474.8,67.7,472.8,70.5,472.8z M70.5,478.8c0.9,0,1.5-0.5,1.5-2.4c0-0.9-0.2-2.2-1.6-2.2c-1.5,0-1.5,1.8-1.5,2.4
			C69,478.1,69.5,478.8,70.5,478.8z"/>
		<path class="st1" d="M77.7,472.9v4.2c0,0.6,0,1.6,1.1,1.6c1.3,0,1.3-1,1.3-2.2v-3.6h2.1v4.7c0,1.5,0,1.7,0,1.9
			c0,0.2,0,0.3,0.1,0.5h-2l-0.1-0.9c-0.2,0.3-0.7,1.1-2.1,1.1c-1,0-1.7-0.4-2.1-1c-0.5-0.6-0.5-1.6-0.5-1.9v-4.4H77.7z"/>
		<path class="st1" d="M84.3,474.7c0-0.3-0.1-1.4-0.1-1.8h1.9l0,1.4c0.3-0.6,0.7-1.5,2.4-1.4v1.9c-2.1-0.2-2.2,0.9-2.2,1.8v3.5h-2.1
			V474.7z"/>
		<path class="st1" d="M95.1,478c0,0.4,0.3,1,1.2,1c0.7,0,1.1-0.4,1.1-0.8c0-0.3-0.2-0.6-1-0.8l-1.3-0.3c-0.6-0.2-1.8-0.5-1.8-2
			c0-1.4,1.3-2.2,3.1-2.2c1.5,0,2.6,0.7,2.7,2.1h-1.9c-0.1-0.8-0.7-0.8-1-0.8c-0.6,0-1,0.3-1,0.7c0,0.5,0.4,0.6,1,0.7l1.3,0.4
			c1.3,0.3,1.9,1,1.9,2c0,1.2-1.1,2.4-3.3,2.4c-0.9,0-1.8-0.2-2.4-0.9c-0.5-0.5-0.5-1.1-0.5-1.4H95.1z"/>
		<path class="st1" d="M102.6,472.9v4.2c0,0.6,0,1.6,1.1,1.6c1.3,0,1.3-1,1.3-2.2v-3.6h2.1v4.7c0,1.5,0,1.7,0,1.9
			c0,0.2,0,0.3,0.1,0.5h-2l-0.1-0.9c-0.2,0.3-0.7,1.1-2.1,1.1c-1,0-1.7-0.4-2.1-1c-0.5-0.6-0.5-1.6-0.5-1.9v-4.4H102.6z"/>
		<path class="st1" d="M111.1,472.9l0.1,1c0.6-1.1,1.8-1.1,2.2-1.1c1.8,0,2.9,1.4,2.9,3.5c0,2-1,3.8-3.1,3.8c-1.3,0-1.8-0.7-2-0.9
			v3.5h-2.1v-9.8H111.1z M114.2,476.4c0-0.8-0.2-2.3-1.4-2.3c-0.7,0-1.6,0.5-1.6,2.4c0,0.4,0,2.2,1.5,2.2
			C113.6,478.7,114.2,477.8,114.2,476.4z"/>
		<path class="st1" d="M119.4,477c0,0.5,0,1.9,1.4,1.9c0.5,0,1-0.2,1.2-1h1.9c0,0.3-0.1,0.9-0.7,1.5c-0.5,0.5-1.4,0.8-2.5,0.8
			c-0.6,0-1.8-0.1-2.5-0.9c-0.6-0.7-0.9-1.6-0.9-2.8c0-1.1,0.3-2.5,1.5-3.3c0.5-0.4,1.2-0.6,2-0.6c1,0,2.2,0.4,2.9,1.7
			c0.5,1,0.4,2,0.4,2.6H119.4z M122,475.7c0-0.3,0-1.6-1.2-1.6c-0.9,0-1.3,0.8-1.3,1.6H122z"/>
		<path class="st1" d="M125.5,474.7c0-0.3-0.1-1.4-0.1-1.8h1.9l0,1.4c0.3-0.6,0.7-1.5,2.4-1.4v1.9c-2.1-0.2-2.2,0.9-2.2,1.8v3.5
			h-2.1V474.7z"/>
	</g>
	<g>
		<path class="st1" d="M103,436.7c0,0.4,0,0.8-0.1,1.1c-2.3,1.4-4.7,2.5-7.1,3.5l0,0c0,0-0.1,0-0.3,0.1c-8.2,3.2-16.9,4.5-23.8,4.9
			c-3.7-1-6.7-2.2-9.2-3.4c-2.5-1.2-4.3-2.4-5.8-3.3c-0.4-1-0.6-2.1-0.6-3.1c0-2.3,1-4.1,2.8-5.5c1.8-1.4,4.4-2.4,7.6-3.1
			c1.2-2.1,2.7-3.7,4.4-4.1c2.1-0.5,4.8,0.8,7.2,3c0.5,0,1,0,1.6,0c0.3,0,0.7,0,1,0c2.9-3.8,7.5-6.3,10.3-5.4
			c1.1,0.3,2.2,1.3,3.1,2.6c0.9,1.3,1.6,3,2,4.8C100.5,430.4,103,432.9,103,436.7L103,436.7z M98.1,435.4c0-0.9-0.5-1.8-1.4-2.5
			c0,1.3-0.2,2.5-0.5,3.7c-0.3,0.8-0.6,1.6-0.9,2.3C97,438,98.1,436.8,98.1,435.4L98.1,435.4z M94.3,435.2c1.4-4.7-1-11.3-3.7-12.1
			c-2.5-0.8-7.8,2.9-9.5,7.3c0.4,0.6,0.8,1.3,1,2c0.3,0.7,0.5,1.4,0.7,2.1c0.3,1.3,0.4,4.8-0.9,7.8c0.1,0.2,0.2,0.3,0.2,0.5
			c2.2-0.2,4.5-0.6,6.6-1.2c1-0.6,1.8-1.1,2-1.2C92.3,439.4,93.6,437.7,94.3,435.2L94.3,435.2z M80.1,441.2c0.8-1.6,1.1-3.8,0.5-6.3
			c-1.1-4.8-6.5-9.2-9.2-8.6c-2.7,0.6-5.6,7-4.5,11.8c0.2,1,0.6,2,1,2.8c2.8,0.9,6.7,1.9,10.8,2.1C79.5,442.1,80,441.4,80.1,441.2
			L80.1,441.2z M65.1,439.4c-0.1-0.2-0.1-0.5-0.2-0.8c-0.5-2.3-0.3-4.9,0.3-7.2c-2.5,1-4.1,2.4-4.1,4
			C61.2,437.1,62.7,438.4,65.1,439.4L65.1,439.4z"/>
		<path class="st1" d="M102.5,439.9c-1,2.9-3.3,5.8-6.7,8c-8.2,0.8-14.8,0.4-20.3-0.6C86,446.4,92.9,444.5,102.5,439.9L102.5,439.9z
			"/>
		<path class="st1" d="M68.6,447.7c6.7,1.9,14.5,2.8,23.3,2.3c-3.4,1.5-7.6,2.4-12.2,2.4c-6.4,0-12-1.8-16.1-4.5
			C65.4,447.8,67.1,447.8,68.6,447.7L68.6,447.7z"/>
		<path class="st1" d="M65.5,446.7c-0.6,0-1.2,0-1.8,0c-0.6,0-1.1,0-1.6,0c-1.1-0.9-2.1-1.9-3-2.9C61,444.9,63.2,445.8,65.5,446.7
			L65.5,446.7z"/>
	</g>
</g>
</svg>
