<?xml version="1.0" encoding="utf-8"?>
<!-- Generator: Adobe Illustrator 22.1.0, SVG Export Plug-In . SVG Version: 6.00 Build 0)  -->
<svg version="1.1" id="Layer_1" xmlns="http://www.w3.org/2000/svg" xmlns:xlink="http://www.w3.org/1999/xlink" x="0px" y="0px"
	 viewBox="0 0 124 27.1" style="enable-background:new 0 0 124 27.1;" xml:space="preserve">
<style type="text/css">
	.st0{fill:#D1AE56;}
	.st1{fill:#382E5F;}
</style>
<g>
	<rect class="st0" width="124" height="27.1"/>
	<g>
		<g>
			<path class="st1" d="M15.2,14.9c0,0.3,0,1.4,1.3,1.4c0.8,0,1.4-0.4,1.4-1c0-0.6-0.4-0.8-1.4-1c-1.7-0.4-2.7-0.9-2.7-2.2
				c0-1.2,0.8-2.2,2.9-2.2c0.7,0,1.6,0.2,2.2,0.8c0.4,0.5,0.4,1.1,0.4,1.3h-1.5c0-0.3-0.1-1.1-1.2-1.1c-0.7,0-1.2,0.4-1.2,1
				c0,0.7,0.5,0.8,1.6,1c1.2,0.3,2.5,0.6,2.5,2c0,1.3-1.1,2.3-3.1,2.3c-2.8,0-2.8-1.8-2.8-2.5H15.2z"/>
			<path class="st1" d="M20.7,9.9h4.8v1.2h-3.3v1.7h3.1V14h-3.1V16h3.4v1.2h-4.9V9.9z"/>
			<path class="st1" d="M30.8,12.3c0-0.3-0.1-1.3-1.2-1.3c-1.1,0-1.6,1.2-1.6,2.7c0,0.4,0,2.5,1.5,2.5c0.6,0,1.3-0.4,1.3-1.4h1.6
				c0,0.4-0.1,1.1-0.6,1.7c-0.6,0.7-1.4,0.8-2.1,0.8c-2.5,0-3.3-1.8-3.3-3.6c0-2.3,1.3-3.8,3.3-3.8c1.6,0,2.7,1,2.7,2.4H30.8z"/>
			<path class="st1" d="M35,10v4.4c0,0.8,0.1,1.8,1.6,1.8c0.3,0,1,0,1.4-0.6c0.1-0.2,0.2-0.5,0.2-1.2V10h1.5v4.5
				c0,2.1-1.7,2.8-3.2,2.8c-0.7,0-2-0.2-2.7-1.2c-0.3-0.5-0.4-1.1-0.4-1.8V10H35z"/>
			<path class="st1" d="M41.1,9.9h2.8c0.8,0,1.6,0,2.2,0.5c0.4,0.4,0.6,0.9,0.6,1.4c0,1.3-1.2,1.7-1.5,1.8c1.1,0.1,1.2,0.7,1.3,1.7
				c0.1,0.8,0.2,1.2,0.2,1.4c0.1,0.3,0.1,0.4,0.2,0.5h-1.7c-0.1-0.4-0.3-2.2-0.4-2.5c-0.1-0.4-0.5-0.4-0.8-0.4h-1.4v2.9h-1.6V9.9z
				 M42.6,13.1h1.2c0.2,0,0.5,0,0.8-0.2c0.1-0.1,0.4-0.3,0.4-0.8c0-0.5-0.2-0.7-0.4-0.8c-0.2-0.2-0.5-0.2-1-0.2h-1V13.1z"/>
			<path class="st1" d="M47.9,9.9h4.8v1.2h-3.3v1.7h3.1V14h-3.1V16h3.4v1.2h-4.9V9.9z"/>
		</g>
		<g>
			<path class="st1" d="M56.5,10l1.5,3.3l1.5-3.3h1.6l-2.4,4.6v2.6h-1.5v-2.6L54.7,10H56.5z"/>
		</g>
		<g>
			<path class="st1" d="M64.4,9.8c0.8,0,1.8,0.2,2.5,1c0.8,0.9,0.9,2,0.9,2.7c0,1-0.3,2.2-0.9,2.8c-0.8,0.9-2,1-2.6,1
				c-1,0-1.9-0.3-2.6-1c-0.8-0.8-0.9-2-0.9-2.7C60.9,11.7,61.8,9.8,64.4,9.8z M63.1,15.6c0.2,0.3,0.6,0.6,1.3,0.6
				c0.6,0,1.1-0.2,1.3-0.7c0.2-0.4,0.5-0.9,0.5-2.1c0-0.4,0-0.8-0.2-1.3c-0.3-0.9-0.9-1.3-1.6-1.3c-0.6,0-1,0.2-1.3,0.6
				c-0.4,0.5-0.5,1.3-0.5,2.1C62.5,14.3,62.6,15.1,63.1,15.6z"/>
			<path class="st1" d="M70.5,10v4.4c0,0.8,0.1,1.8,1.6,1.8c0.3,0,1,0,1.4-0.6c0.1-0.2,0.2-0.5,0.2-1.2V10h1.5v4.5
				c0,2.1-1.7,2.8-3.2,2.8c-0.7,0-2-0.2-2.7-1.2C69,15.5,69,14.9,69,14.3V10H70.5z"/>
			<path class="st1" d="M76.6,9.9h2.8c0.8,0,1.6,0,2.2,0.5c0.5,0.4,0.6,0.9,0.6,1.4c0,1.3-1.2,1.7-1.5,1.8c1.1,0.1,1.2,0.7,1.3,1.7
				c0.1,0.8,0.2,1.2,0.2,1.4c0.1,0.3,0.1,0.4,0.2,0.5h-1.7c-0.1-0.4-0.3-2.2-0.4-2.5c-0.1-0.4-0.5-0.4-0.8-0.4h-1.4v2.9h-1.6V9.9z
				 M78.2,13.1h1.2c0.2,0,0.5,0,0.8-0.2c0.1-0.1,0.4-0.3,0.4-0.8c0-0.5-0.2-0.7-0.4-0.8c-0.2-0.2-0.5-0.2-1-0.2h-1V13.1z"/>
			<path class="st1" d="M87.4,14.9c0,0.3,0,1.4,1.3,1.4c0.8,0,1.4-0.4,1.4-1c0-0.6-0.4-0.8-1.4-1c-1.7-0.4-2.7-0.9-2.7-2.2
				c0-1.2,0.8-2.2,2.9-2.2c0.7,0,1.6,0.2,2.2,0.8c0.4,0.5,0.4,1.1,0.4,1.3H90c0-0.3-0.1-1.1-1.2-1.1c-0.7,0-1.2,0.4-1.2,1
				c0,0.7,0.5,0.8,1.6,1c1.2,0.3,2.5,0.6,2.5,2c0,1.3-1.1,2.3-3.1,2.3c-2.8,0-2.8-1.8-2.8-2.5H87.4z"/>
			<path class="st1" d="M92.9,9.9h4.8v1.2h-3.3v1.7h3.1V14h-3.1V16h3.4v1.2h-4.9V9.9z"/>
			<path class="st1" d="M102.8,9.9l2.5,7.2h-1.6l-0.5-1.6h-2.9l-0.5,1.6h-1.5l2.6-7.2H102.8z M102.8,14.4l-1-3.1l-1.1,3.1H102.8z"/>
		</g>
		<g>
			<path class="st1" d="M106.7,11.1h-2.1V9.9h5.9v1.2h-2.1v6h-1.6V11.1z"/>
		</g>
	</g>
</g>
</svg>
