<?xml version="1.0" encoding="utf-8"?>
<!-- Generator: Adobe Illustrator 22.1.0, SVG Export Plug-In . SVG Version: 6.00 Build 0)  -->
<svg version="1.1" id="Layer_1" xmlns="http://www.w3.org/2000/svg" xmlns:xlink="http://www.w3.org/1999/xlink" x="0px" y="0px"
	 viewBox="0 0 160 600" style="enable-background:new 0 0 160 600;" xml:space="preserve">
<style type="text/css">
	.st0{fill:#D1AE56;}
</style>
<path class="st0" d="M82.4,157.5c0.1-0.1,0.3-0.1,0.5-0.1c3,1.4,4.6,4.6,4.6,7.8c0,0.3-0.1,0.5-0.4,0.5H72.2c-0.3,0-0.5-0.2-0.5-0.5
	c-0.1-3.2,1.7-6.5,4.6-7.9c0.2-0.1,0.4-0.1,0.5,0.1C78.5,158.8,80.7,158.8,82.4,157.5L82.4,157.5z M79.6,147c2.6,0,4.6,2.4,4.6,5
	s-1.9,5-4.6,5c-2.7,0-4.6-2.4-4.6-5S76.9,147,79.6,147L79.6,147z"/>
</svg>
