<?xml version="1.0" encoding="utf-8"?>
<!-- Generator: Adobe Illustrator 22.1.0, SVG Export Plug-In . SVG Version: 6.00 Build 0)  -->
<svg version="1.1" id="Layer_1" xmlns="http://www.w3.org/2000/svg" xmlns:xlink="http://www.w3.org/1999/xlink" x="0px" y="0px"
	 viewBox="0 0 160 600" style="enable-background:new 0 0 160 600;" xml:space="preserve">
<style type="text/css">
	.st0{fill:none;}
	.st1{fill:#9892AC;}
</style>
<g>
	<path class="st0" d="M64.5,89c-0.3,0.6-0.5,1.4-0.8,2.2l81.5,82.3c0.5-1,0.9-1.9,1.3-3L65.2,88.5C64.9,88.6,64.6,88.8,64.5,89z"/>
	<path class="st0" d="M62.5,95l81.1,81.9c0.5-0.9,1-1.9,1.4-2.9L63.5,91.7C63.2,92.7,62.9,93.9,62.5,95z"/>
	<path class="st0" d="M65.6,88.3l81.1,82c0.4-1,0.8-2,1.2-3.1L69,87.4C67.6,87.7,66.4,87.9,65.6,88.3z"/>
	<path class="st0" d="M10.6,135.5l43.7,44.1c1-0.5,1.9-1,2.8-1.5l-44.6-45.1C11.8,133.9,11.1,134.7,10.6,135.5z"/>
	<path class="st0" d="M93.8,107l55.3,55.9c0.3-1.1,0.6-2.3,0.8-3.5l-50.4-50.9C97.8,108.1,95.8,107.7,93.8,107z"/>
	<path class="st0" d="M60.4,99.9c-0.3,0.3-0.6,0.5-0.9,0.5c-0.6,0-1.4-0.4-2.2-0.9l82.9,83.8c0.4-0.9,0.9-1.9,1.4-2.9L61,98.9
		C60.8,99.3,60.6,99.6,60.4,99.9z"/>
	<path class="st0" d="M61.2,98.5l80.7,81.5c0.5-0.9,1-1.9,1.5-2.8l-81-81.8C62,96.5,61.6,97.6,61.2,98.5z"/>
	<path class="st0" d="M9.4,137.8c-0.1,0.3-0.2,0.7-0.3,1l42.2,42.6c0.1-0.1,0.2-0.2,0.3-0.2c0.8-0.5,1.6-1,2.3-1.4l-43.6-44
		C10,136.5,9.7,137.2,9.4,137.8z"/>
	<path class="st0" d="M85.6,99.3L73.4,86.9c-1.4,0.1-2.7,0.2-3.9,0.4l78.5,79.3c0.4-1.1,0.7-2.2,1-3.3L93,106.8
		C88.2,105.1,84,102.5,85.6,99.3z"/>
	<path class="st0" d="M87.2,96L78,86.7c-1.4,0-2.8,0.1-4.1,0.2l11.9,12C86.3,98,86.8,97,87.2,96z"/>
	<path class="st0" d="M15.3,130.5L61,176.6c1.2-0.4,2.3-0.7,3.4-0.9l-46.6-47.1C16.9,129.2,16.1,129.8,15.3,130.5z"/>
	<path class="st0" d="M8.7,148.3l36.7,37.1c0.8-0.5,1.7-1.1,2.6-1.7l-39.6-40C8.4,145.2,8.5,146.7,8.7,148.3z"/>
	<path class="st0" d="M8.5,143.2l39.9,40.3c0.8-0.5,1.7-1.1,2.6-1.7L9,139.3C8.7,140.5,8.5,141.8,8.5,143.2z"/>
	<path class="st0" d="M89,88l-0.5-0.5c-0.9-0.3-2.7-0.6-5-0.7l5.2,5.2C89.1,90.2,89.3,88.8,89,88z"/>
	<path class="st0" d="M88.5,92.4l-5.6-5.7c-0.9,0-1.8-0.1-2.8-0.1c-0.5,0-1,0-1.5,0l8.8,8.9C87.8,94.5,88.2,93.4,88.5,92.4z"/>
	<path class="st0" d="M12.8,132.8L57.5,178c1.1-0.5,2.1-0.9,3.1-1.2l-45.6-46C14.2,131.4,13.5,132.1,12.8,132.8z"/>
	<path class="st0" d="M23.8,124.4l50.8,51.3c0.7,0.2,1.3,0.5,1.9,0.7c1.6,0.5,3.6,1.5,5.6,2.6l-55.8-56.4
		C25.6,123.2,24.7,123.8,23.8,124.4z"/>
	<path class="st0" d="M38.2,109.6l87.5,88.4c0.1,0,0.2,0,0.3,0c0.6,0,1.3-0.2,2.2-0.5c0.3-0.1,0.6-0.2,0.9-0.4l-88.9-89.8
		C39.4,108.2,38.8,109,38.2,109.6z"/>
	<path class="st0" d="M35.9,112.1l82.7,83.5c0.3-0.2,0.5-0.3,0.8-0.4c0.3-0.2,0.6-0.2,0.9-0.2c1.8,0,2.7,2.3,4.9,2.9l-87.1-88
		C37.2,110.7,36.5,111.3,35.9,112.1z"/>
	<path class="st0" d="M33.6,114.7l82.1,82.9c0.9-0.6,1.7-1.3,2.5-1.8l-82.6-83.4C35,113,34.4,113.7,33.6,114.7z"/>
	<path class="st0" d="M31.5,117.4l62.7,63.3c0.2-0.1,0.4-0.1,0.6-0.1c0.1,0,0.3,0,0.6,0c1,0.3,0.6,0.7,0.8,2.2l16,16.2
		c1.2,0,2.2-0.5,3.2-1.1l-82-82.8C32.8,115.7,32.2,116.5,31.5,117.4z"/>
	<path class="st0" d="M29.9,119.4c-0.2,0.2-0.4,0.5-0.6,0.7l61.9,62.6c0.9-0.5,1.7-1.3,2.5-1.8l-62.5-63.2
		C30.8,118.3,30.4,118.8,29.9,119.4z"/>
	<path class="st0" d="M51,96c-0.4,0-0.9,0.2-1.3,0.6c0,0,0,0,0,0l89.2,90.1c0.4-1,0.8-2,1.3-3L55.6,98.3C54,97.2,52.3,96,51,96z"/>
	<path class="st0" d="M26.7,122.4l56.7,57.3c2.6,1.4,4.9,2.8,6.1,3.2c0.1,0,0.4,0.2,0.6,0.2c0.3,0,0.5-0.1,0.7-0.2L29,120.4
		C28.4,121.1,27.6,121.7,26.7,122.4z"/>
	<path class="st0" d="M18.1,128.4l46.8,47.2c1.4-0.3,2.7-0.4,3.8-0.5l-48-48.5C19.8,127.2,18.9,127.8,18.1,128.4z"/>
	<path class="st0" d="M40.5,107l89.1,90c1.3-0.4,2.5-0.6,3.5-0.8l-90.6-91.5C41.8,105.6,41.1,106.4,40.5,107z"/>
	<path class="st0" d="M47.4,99.3l90.4,91.3c0.2-1.1,0.5-2.3,0.9-3.4L49.4,97C48.7,97.8,48,98.5,47.4,99.3z"/>
	<path class="st0" d="M45.1,101.9l91.9,92.9c0.3-0.4,0.4-1,0.5-1.8c0-0.6,0.1-1.3,0.2-1.9L47.1,99.6
		C46.4,100.4,45.8,101.2,45.1,101.9z"/>
	<path class="st0" d="M20.9,126.4L69.1,175c0.5,0,1,0,1.4,0c1.3,0,2.3,0.2,3.3,0.5l-50.3-50.8C22.7,125.2,21.8,125.8,20.9,126.4z"/>
	<path class="st0" d="M42.9,104.5l90.8,91.7c1.4-0.2,2.5-0.4,3.2-1.1l-91.9-92.9C44.1,103,43.5,103.8,42.9,104.5z"/>
	<path class="st0" d="M105,108.5l45.6,46c0.1-1.3,0.2-2.7,0.2-4.1L106.8,106C106.3,107.2,105.7,108,105,108.5z"/>
	<path class="st0" d="M118.8,88.8l-7.1-7.2c-0.5,0.6-0.9,1.7-1.2,3.1l10.4,10.5C120.3,93.2,119.6,91,118.8,88.8z"/>
	<path class="st0" d="M23.2,187.3l5.2,5.3c0,0,0.1,0,0.1,0c1.3,0,2.5-0.1,3.8-0.4l-9.1-9.2C23.6,184.4,23.4,186,23.2,187.3z"/>
	<path class="st0" d="M116,212.6l6.9,7c0.1,0,0.1,0,0.2,0c0.4,0,0.9,0,1.5-0.2c0.6-0.2,1.2-0.4,1.8-0.7L115,207.3
		C115,208.8,115.3,210.8,116,212.6z"/>
	<path class="st0" d="M115,206.7l11.7,11.8c1-0.5,1.8-1.1,2.5-1.8L116.6,204C115.7,204.2,115.2,205.3,115,206.7z"/>
	<path class="st0" d="M109.8,89l13.8,14c-0.8-1.8-1.6-3.5-2-5c-0.2-0.6-0.3-1.2-0.5-1.9l-10.7-10.8C110.2,86.3,110,87.6,109.8,89z"
		/>
	<path class="st0" d="M22.5,181.7C22.5,181.8,22.5,181.8,22.5,181.7l10.2,10.4c1-0.3,2-0.6,3.2-1.1l-19.2-19.4
		C19.2,176.6,21.5,180.4,22.5,181.7z"/>
	<path class="st0" d="M113.3,81c-0.1,0-0.3,0-0.4,0c-0.3,0-0.6,0.1-0.8,0.3l6.4,6.5C117.1,84.5,115.4,81.6,113.3,81z"/>
	<path class="st0" d="M122.4,205.3c-1.3,0-2.8-0.2-4.3-1c-0.3-0.1-0.7-0.2-0.9-0.3l12.3,12.4c0.7-0.8,1.3-1.7,1.7-2.6l-8.5-8.6
		C122.6,205.3,122.5,205.3,122.4,205.3z"/>
	<path class="st0" d="M106.1,195.9c2.2,2,4,2.9,5.5,3l-15.3-15.4C96.9,185.6,98.9,189.3,106.1,195.9z"/>
	<path class="st0" d="M130.3,204.9c-0.4-0.3-1.2-0.5-1.8-0.5c-0.4,0-0.7,0-1.1,0.1l4.7,4.7C132,207.4,131.4,205.7,130.3,204.9z"/>
	<path class="st0" d="M109.3,93.3l26,26.2c-3.2-3.9-5.7-6.6-6.1-7.1c-0.8-1-3.1-4.6-5-8.4l-14.4-14.6
		C109.6,90.7,109.5,92,109.3,93.3z"/>
	<path class="st0" d="M26.3,192.3c0.5,0.1,1,0.2,1.5,0.3l-4.7-4.7C22.9,189.9,23,191.6,26.3,192.3z"/>
	<path class="st0" d="M123.2,205.2l8.2,8.2c0.5-1.2,0.7-2.4,0.7-3.6l-5.2-5.2C125.8,204.8,124.6,205.1,123.2,205.2z"/>
	<path class="st0" d="M122.3,219.5l-5.9-6C117.7,216.5,119.7,219.1,122.3,219.5z"/>
	<path class="st0" d="M107,105.6l43.8,44.2c0,0,0,0,0,0c0-1.6-0.2-3.2-0.6-5L108,102.3C107.7,103.6,107.4,104.7,107,105.6z"/>
	<path class="st0" d="M16.2,170.5l20.1,20.3c0.9-0.4,1.8-0.9,2.8-1.5l-26.4-26.6C13.8,165.4,15,168.1,16.2,170.5z"/>
	<path class="st0" d="M12.4,161.7l27.1,27.4c0.8-0.5,1.7-1,2.7-1.6l-31.9-32.2C10.8,157.4,11.6,159.6,12.4,161.7z"/>
	<path class="st0" d="M108.1,101.9l41.8,42.2c-0.7-2.4-1.7-4.8-3-7.3l-38.2-38.6C108.6,99.5,108.3,100.7,108.1,101.9z"/>
	<path class="st0" d="M108.8,97.7l37.5,37.9c-2.5-4.7-5.7-9.3-8.7-13.1l-28.3-28.6C109.1,95.1,109,96.4,108.8,97.7z"/>
	<path class="st0" d="M10,154.5l32.5,32.8c0.8-0.5,1.7-1.1,2.6-1.7L8.8,149C9.1,150.8,9.5,152.6,10,154.5z"/>
	<path class="st0" d="M104.5,108.8c-0.1,0-0.4,0.2-0.9,0.2c-0.8,0-2-0.1-3.4-0.4l49.8,50.3c0.2-1.2,0.4-2.5,0.5-3.8l-45.9-46.4
		C104.6,108.7,104.5,108.8,104.5,108.8z"/>
	<path class="st1" d="M9,139.3l42,42.4c0.1-0.1,0.2-0.1,0.3-0.2L9.1,138.9C9.1,139,9,139.2,9,139.3z"/>
	<path class="st1" d="M26.4,122.6L82.2,179c0.4,0.2,0.8,0.5,1.2,0.7l-56.7-57.3C26.6,122.5,26.5,122.5,26.4,122.6z"/>
	<path class="st1" d="M8.5,143.7l39.6,40c0.1-0.1,0.2-0.1,0.3-0.2L8.5,143.2C8.5,143.3,8.5,143.5,8.5,143.7z"/>
	<path class="st1" d="M29,120.4l61.8,62.4c0.1,0,0.3-0.1,0.4-0.2l-61.9-62.6C29.2,120.2,29.1,120.3,29,120.4z"/>
	<path class="st1" d="M23.5,124.6l50.3,50.8c0.3,0.1,0.5,0.2,0.8,0.3l-50.8-51.3C23.7,124.5,23.6,124.6,23.5,124.6z"/>
	<path class="st1" d="M96.3,183.5l15.3,15.4c0.1,0,0.3,0,0.4,0c0.1,0,0.1,0,0.2,0l-16-16.2C96.2,183,96.2,183.2,96.3,183.5z"/>
	<path class="st1" d="M10.2,155.2l31.9,32.2c0.1-0.1,0.2-0.1,0.3-0.2L10,154.5C10.1,154.7,10.1,155,10.2,155.2z"/>
	<path class="st1" d="M12.7,162.7l26.4,26.6c0.1-0.1,0.2-0.1,0.4-0.2l-27.1-27.4C12.5,162.1,12.6,162.4,12.7,162.7z"/>
	<path class="st1" d="M17.7,128.6l46.6,47.1c0.2,0,0.3-0.1,0.5-0.1l-46.8-47.2C18,128.4,17.8,128.5,17.7,128.6z"/>
	<path class="st1" d="M12.5,133.1l44.6,45.1c0.1-0.1,0.3-0.1,0.4-0.2l-44.7-45.2C12.7,132.9,12.6,133,12.5,133.1z"/>
	<path class="st1" d="M15,130.7l45.6,46c0.1-0.1,0.3-0.1,0.4-0.1l-45.7-46.2C15.2,130.6,15.1,130.6,15,130.7z"/>
	<path class="st1" d="M16.7,171.6L35.9,191c0.1-0.1,0.3-0.1,0.4-0.2l-20.1-20.3C16.3,170.9,16.5,171.2,16.7,171.6z"/>
	<path class="st1" d="M8.8,149l36.3,36.6c0.1-0.1,0.2-0.2,0.3-0.2L8.7,148.3C8.8,148.5,8.8,148.8,8.8,149z"/>
	<path class="st1" d="M10.4,135.8l43.6,44c0.1-0.1,0.2-0.1,0.4-0.2l-43.7-44.1C10.5,135.6,10.5,135.7,10.4,135.8z"/>
	<path class="st1" d="M23.1,183l9.1,9.2c0.2,0,0.3-0.1,0.5-0.1l-10.2-10.3C22.8,182.2,23,182.6,23.1,183z"/>
	<path class="st1" d="M20.6,126.6l48,48.5c0.2,0,0.4,0,0.5,0l-48.2-48.7C20.8,126.4,20.7,126.5,20.6,126.6z"/>
	<path class="st1" d="M23.1,187.8l4.7,4.7c0.2,0,0.4,0,0.6,0l-5.2-5.3C23.1,187.5,23.1,187.7,23.1,187.8z"/>
	<path class="st1" d="M37.9,109.8l87.1,88c0.2,0.1,0.4,0.1,0.7,0.1l-87.5-88.4C38.1,109.7,38,109.8,37.9,109.8z"/>
	<path class="st1" d="M99.5,108.5l50.4,50.9c0-0.2,0.1-0.3,0.1-0.5l-49.8-50.3C100,108.6,99.8,108.5,99.5,108.5z"/>
	<path class="st1" d="M93,106.8l56.1,56.6c0-0.1,0.1-0.3,0.1-0.4L93.8,107C93.6,106.9,93.3,106.8,93,106.8z"/>
	<path class="st1" d="M104.6,108.7l45.9,46.4c0-0.2,0-0.3,0-0.5l-45.6-46C104.9,108.6,104.7,108.6,104.6,108.7z"/>
	<path class="st1" d="M106.8,106l43.9,44.4c0-0.2,0-0.4,0-0.6L107,105.6C106.9,105.8,106.9,105.9,106.8,106z"/>
	<path class="st1" d="M88.6,92l-5.2-5.2c-0.2,0-0.4,0-0.6,0l5.6,5.7C88.6,92.3,88.6,92.1,88.6,92z"/>
	<path class="st1" d="M31.2,117.7l62.5,63.2c0.1-0.1,0.3-0.1,0.4-0.2l-62.7-63.3C31.4,117.5,31.3,117.6,31.2,117.7z"/>
	<path class="st1" d="M87.4,95.6l-8.8-8.9c-0.2,0-0.4,0-0.6,0l9.2,9.3C87.2,95.9,87.3,95.7,87.4,95.6z"/>
	<path class="st1" d="M88.5,87.5C88.5,87.5,88.4,87.5,88.5,87.5L89,88C88.9,87.7,88.7,87.6,88.5,87.5z"/>
	<path class="st1" d="M109.8,89.5l14.4,14.6c-0.2-0.4-0.4-0.7-0.5-1.1l-13.8-14C109.8,89.1,109.8,89.3,109.8,89.5z"/>
	<path class="st1" d="M118.5,87.9l-6.4-6.5c-0.1,0.1-0.2,0.2-0.3,0.3l7.1,7.2C118.7,88.5,118.6,88.2,118.5,87.9z"/>
	<path class="st1" d="M110.5,84.8c0,0.2-0.1,0.3-0.1,0.5L121.1,96c-0.1-0.3-0.2-0.5-0.2-0.8L110.5,84.8z"/>
	<path class="st1" d="M108,102.3l42.1,42.5c-0.1-0.3-0.1-0.5-0.2-0.8l-41.8-42.2C108.1,102,108,102.2,108,102.3z"/>
	<path class="st1" d="M109.3,93.8l28.3,28.6c-0.8-1-1.5-2-2.3-2.9l-26-26.2C109.3,93.5,109.3,93.7,109.3,93.8z"/>
	<path class="st1" d="M108.7,98.2l38.2,38.6c-0.2-0.4-0.4-0.8-0.6-1.2l-37.5-37.9C108.8,97.9,108.8,98,108.7,98.2z"/>
	<path class="st1" d="M85.7,99.2c0-0.1,0.1-0.2,0.1-0.2l-11.9-12c-0.2,0-0.4,0-0.5,0l12.2,12.4C85.6,99.2,85.6,99.2,85.7,99.2z"/>
	<path class="st1" d="M42.6,104.8l90.6,91.5c0.2,0,0.3-0.1,0.5-0.1l-90.8-91.7C42.8,104.6,42.7,104.7,42.6,104.8z"/>
	<path class="st1" d="M44.9,102.2l91.9,92.9c0.1-0.1,0.2-0.2,0.3-0.3l-91.9-92.9C45,102,45,102.1,44.9,102.2z"/>
	<path class="st1" d="M47.1,99.6l90.5,91.5c0-0.2,0-0.3,0.1-0.5L47.4,99.3C47.3,99.4,47.2,99.5,47.1,99.6z"/>
	<path class="st1" d="M40.3,107.3l88.9,89.8c0.1,0,0.3-0.1,0.4-0.1l-89.1-90C40.5,107.1,40.4,107.2,40.3,107.3z"/>
	<path class="st1" d="M69,87.4l78.9,79.7c0-0.1,0.1-0.3,0.1-0.4L69.5,87.4C69.3,87.4,69.2,87.4,69,87.4z"/>
	<path class="st1" d="M33.4,115l82,82.8c0.1-0.1,0.2-0.1,0.3-0.2l-82.1-82.9C33.5,114.8,33.5,114.9,33.4,115z"/>
	<path class="st1" d="M35.6,112.4l82.6,83.4c0.1-0.1,0.2-0.2,0.3-0.2l-82.7-83.5C35.8,112.2,35.7,112.3,35.6,112.4z"/>
	<path class="st1" d="M62.4,95.4l81,81.8c0.1-0.1,0.1-0.2,0.2-0.4L62.5,95C62.5,95.1,62.4,95.3,62.4,95.4z"/>
	<path class="st1" d="M49.4,97l89.3,90.2c0-0.1,0.1-0.3,0.1-0.4L49.7,96.7C49.6,96.8,49.5,96.9,49.4,97z"/>
	<path class="st1" d="M65.2,88.5l81.3,82.2c0.1-0.1,0.1-0.3,0.2-0.4l-81.1-82C65.4,88.3,65.3,88.4,65.2,88.5z"/>
	<path class="st1" d="M63.5,91.7L145,174c0.1-0.1,0.1-0.3,0.2-0.4L63.7,91.3C63.6,91.4,63.6,91.5,63.5,91.7z"/>
	<path class="st1" d="M61,98.9l80.7,81.5c0.1-0.1,0.1-0.2,0.2-0.4L61.2,98.5C61.1,98.7,61.1,98.8,61,98.9z"/>
	<path class="st1" d="M55.6,98.3l84.5,85.3c0.1-0.1,0.1-0.3,0.2-0.4L57.3,99.5C56.8,99.2,56.2,98.8,55.6,98.3z"/>
	<path class="st1" d="M127.4,204.6c-0.2,0-0.3,0-0.5,0.1l5.2,5.2c0-0.2,0-0.4,0-0.6L127.4,204.6z"/>
	<path class="st1" d="M122.7,205.3l8.5,8.6c0.1-0.1,0.1-0.3,0.2-0.4l-8.2-8.2C123.1,205.2,122.9,205.2,122.7,205.3z"/>
	<path class="st1" d="M116.4,213.6l5.9,6c0.2,0,0.4,0.1,0.6,0.1l-6.9-7C116.1,212.9,116.3,213.3,116.4,213.6z"/>
	<path class="st1" d="M117,204c-0.1,0-0.2,0-0.3,0l12.6,12.7c0.1-0.1,0.2-0.2,0.3-0.3L117.2,204C117.1,204,117,204,117,204z"/>
	<path class="st1" d="M115,207.3l11.4,11.5c0.1-0.1,0.2-0.1,0.4-0.2L115,206.7C115,206.9,115,207.1,115,207.3z"/>
</g>
</svg>
