<?xml version="1.0" encoding="utf-8"?>
<!-- Generator: Adobe Illustrator 22.1.0, SVG Export Plug-In . SVG Version: 6.00 Build 0)  -->
<svg version="1.1" id="Layer_1" xmlns="http://www.w3.org/2000/svg" xmlns:xlink="http://www.w3.org/1999/xlink" x="0px" y="0px"
	 viewBox="0 0 160 600" style="enable-background:new 0 0 160 600;" xml:space="preserve">
<style type="text/css">
	.st0{fill:#D1AE56;}
	.st1{fill:#FFFFFF;}
</style>
<g>
	<path class="st0" d="M26.5,337.8h21.8l-0.2-1.4l-1.9-0.3c-2.2-0.1-3.3-0.5-3.3-1.2v-33.1l-17.3,3.4l-0.2,1.2l6.5,0.7V335
		c0,0.7-1,1.1-3,1.2l-2.1,0.3L26.5,337.8z"/>
	<path class="st0" d="M64.4,313.2c1.1,0,2-0.4,2.7-1.1c0.7-0.7,1-1.6,1-2.5s-0.3-1.8-1-2.5c-0.7-0.7-1.6-1.1-2.7-1.1
		c-1.1,0-2,0.4-2.6,1.1c-0.7,0.7-1,1.5-1,2.5s0.3,1.8,1,2.5C62.5,312.8,63.3,313.2,64.4,313.2L64.4,313.2z M59.1,334.7h11.2
		l-0.1-0.7l-0.4,0c-0.9-0.1-1.5-0.2-1.7-0.3c-0.2-0.1-0.3-0.2-0.3-0.4v-17.8l-8.8,2.5l0,0.6l0.9,0.2c0.8,0.2,1.3,0.5,1.5,0.9
		c0.2,0.4,0.3,1.2,0.3,2.5v11.2c0,0.3-0.1,0.4-0.4,0.5c-0.2,0.1-0.7,0.2-1.3,0.2l-0.6,0L59.1,334.7z M70.6,334.7h11l-0.1-0.7l-0.7,0
		c-1.1-0.1-1.7-0.3-1.7-0.7v-13.2c0.9-0.6,1.9-0.9,2.9-0.9c1.1,0,1.9,0.3,2.5,0.9c0.6,0.6,0.9,1.6,0.9,3.2v9.9
		c0,0.2-0.1,0.4-0.2,0.5c-0.2,0.1-0.6,0.2-1.2,0.2l-0.7,0l-0.1,0.7h11.1l-0.1-0.7l-0.5,0c-1.4-0.2-2.1-0.4-2.1-0.7v-11.2
		c0-2.4-0.5-4.1-1.4-5.1c-1-1-2.2-1.5-3.5-1.5c-1.9,0-4.4,1.2-7.4,3.7h-0.1l0.1-3.7l-8.9,2.5l0,0.6l0.9,0.2c0.8,0.2,1.3,0.5,1.5,0.9
		c0.2,0.4,0.3,1.2,0.3,2.5v11.2c0,0.3-0.1,0.4-0.4,0.5c-0.2,0.1-0.7,0.2-1.3,0.2l-0.6,0L70.6,334.7z"/>
	<path class="st0" d="M108.5,342.9h8l18.4-42.9l-0.1-1.3h-28.1l-1.7,14.1h1.3l0.7-1.6c0.3-1.3,0.8-2.3,1.4-2.9
		c0.6-0.6,1.7-1.1,3.3-1.4c1.6-0.3,4-0.5,7.2-0.5h11.3l-0.1,0.1L108.5,342.9z"/>
	<path class="st0" d="M20,362.5l1.2,3.7c0.3,0.9,0.5,1.5,0.4,1.9c-0.1,0.3-0.4,0.5-1.1,0.6l-0.6,0.1l-0.1,0.5h9.4l-0.1-0.5l-0.7-0.1
		c-0.6-0.1-1-0.3-1.4-0.7c-0.4-0.4-0.8-1.2-1.2-2.3l-5.1-14.2h-0.7c-0.2,0.5-0.7,1-1.3,1.5c-0.6,0.5-1.3,0.8-1.8,0.9l0.2,1l-3.2,8.9
		c-0.8,2.1-1.4,3.5-1.7,3.9c-0.4,0.5-1,0.8-1.8,0.9l-0.5,0.1l-0.1,0.5h6.2l-0.1-0.5l-0.6-0.1c-0.3,0-0.5-0.1-0.7-0.1
		c-0.6-0.1-1-0.4-1.1-0.9c0-0.4,0.2-1.5,0.9-3.3l0.6-1.8H20z M15.5,361.8l2.1-6.1h0.1l2.1,6.1H15.5z M37.9,369.6l5.7-1.4l0.1-0.3
		l-0.8-0.2c-0.4-0.1-0.7-0.3-0.8-0.5c-0.1-0.2-0.2-0.7-0.2-1.4V357h-5.8l0.1,0.5l0.4,0c0.6,0,0.9,0.1,1.1,0.1
		c0.2,0.1,0.2,0.2,0.2,0.3v8.5c-0.7,0.4-1.3,0.6-1.8,0.6c-0.7,0-1.3-0.2-1.7-0.6c-0.4-0.4-0.5-1.1-0.5-2l0.1-7.4h-5.9l0.1,0.5l0.4,0
		c0.9,0.1,1.4,0.2,1.4,0.4l-0.1,7.3c-0.1,1.5,0.2,2.6,0.9,3.3c0.7,0.7,1.4,1,2.2,1c1.3,0,3-0.8,4.8-2.4H38L37.9,369.6z M49,369.5
		c1.8,0,3.1-0.4,4-1.2c0.9-0.8,1.4-1.8,1.4-2.9c0-0.6-0.1-1.1-0.3-1.5c-0.2-0.4-0.5-0.8-1-1.1c-0.5-0.3-0.9-0.6-1.2-0.7
		c-0.3-0.2-0.8-0.4-1.5-0.6c-0.6-0.2-1-0.4-1.2-0.5c-0.2-0.1-0.5-0.3-0.9-0.5c-0.3-0.2-0.6-0.4-0.7-0.6c-0.1-0.2-0.2-0.5-0.2-0.8
		c0-0.6,0.2-1,0.5-1.3c0.4-0.3,0.8-0.5,1.4-0.5c0.5,0,1.1,0.1,1.6,0.4l2.1,3.1l0.7,0l-0.1-3.9l-1.4,0.2c-0.9-0.3-1.8-0.4-2.9-0.4
		c-1.5,0-2.7,0.4-3.6,1.1c-0.9,0.7-1.4,1.7-1.4,2.9c0,1,0.3,1.8,1,2.4c0.6,0.6,1.6,1.1,2.9,1.6c0.4,0.2,0.7,0.3,0.8,0.3
		c0.1,0,0.3,0.1,0.7,0.3c0.3,0.1,0.5,0.3,0.7,0.3c0.1,0.1,0.2,0.2,0.4,0.4c0.2,0.2,0.3,0.3,0.4,0.5c0.1,0.2,0.1,0.4,0.1,0.6
		c0,0.6-0.2,1.1-0.6,1.4c-0.4,0.4-0.9,0.5-1.6,0.5c-0.7,0-1.2-0.2-1.7-0.5c-0.4-0.3-0.9-0.9-1.4-1.6l-0.7-1.5l-0.8-0.1l0.1,3.5
		C45.7,369.3,47.2,369.5,49,369.5L49,369.5z M60.8,369.5c1.6,0,3.2-0.8,4.6-2.4l-0.1-0.4c-0.6,0.5-1.4,0.7-2.2,0.7
		c-0.8,0-1.3-0.2-1.7-0.7c-0.4-0.4-0.5-1.2-0.5-2.2l0.1-5.8h3.9l0.4-1.7H61l0-3.2l-0.6,0l-2.3,1.7l-2.5,1.9l-0.7,1.4l2.2,0.1
		l-0.1,6.5C57,368.1,58.3,369.5,60.8,369.5L60.8,369.5z M65.8,369.2h7.5l-0.1-0.5l-0.5,0c-0.9-0.1-1.4-0.2-1.4-0.5v-6
		c0.6-1.9,1.3-2.9,2-3.1c0.4,1.1,1.1,1.7,2.1,1.7c0.5,0,1-0.2,1.3-0.6c0.4-0.4,0.5-0.8,0.5-1.3c0-0.7-0.2-1.2-0.6-1.6
		c-0.4-0.4-0.9-0.6-1.6-0.6c-1.5,0-2.8,1.4-3.7,4.1h-0.1l0.1-4.1l-5.8,1.6l0,0.4l0.6,0.1c0.5,0.1,0.8,0.3,1,0.6
		c0.1,0.2,0.2,0.8,0.2,1.6v7.3c0,0.2-0.1,0.3-0.2,0.3c-0.2,0.1-0.4,0.1-0.9,0.1l-0.4,0L65.8,369.2z M87.6,369.5
		c1.1,0,2.3-0.9,3.7-2.6l-0.3-0.3c-0.5,0.6-0.9,0.9-1.2,0.9c-0.7,0-1-0.5-1-1.5l0.2-4.9c0.1-1.6-0.3-2.7-1-3.4
		c-0.7-0.7-1.9-1.1-3.5-1.1c-1.5,0-3,0.3-4.4,1c-1.4,0.7-2.2,1.5-2.2,2.5c0,0.5,0.2,0.8,0.5,1.1c0.4,0.3,0.8,0.4,1.3,0.4
		c0.5,0,1-0.2,1.3-0.5c0.4-0.3,0.5-0.7,0.5-1.1c0-0.3-0.1-0.7-0.4-1.1c-0.3-0.4-0.4-0.6-0.4-0.6c0-0.4,0.5-0.6,1.5-0.6
		c0.9,0,1.6,0.3,2.1,0.9c0.5,0.6,0.7,1.4,0.7,2.4l0,0.8c-2.6,0.7-4.4,1.4-5.5,2.1c-1.1,0.7-1.6,1.6-1.6,2.7c0,0.8,0.3,1.5,0.9,2
		c0.6,0.5,1.3,0.8,2.1,0.8c0.7,0,1.4-0.2,2-0.7c0.6-0.4,1.3-1.1,2-2l0.1,0c0.1,0.8,0.4,1.5,0.8,2C86.3,369.3,86.9,369.5,87.6,369.5
		L87.6,369.5z M83.4,367.1c-0.5,0-0.9-0.2-1.2-0.5c-0.3-0.3-0.4-0.8-0.4-1.3c0-0.7,0.2-1.3,0.7-1.8c0.5-0.5,1.4-0.9,2.6-1.2
		l-0.2,3.9C84.4,366.9,83.9,367.1,83.4,367.1L83.4,367.1z M91.6,369.2h7.1l-0.1-0.5l-0.3,0c-0.8-0.1-1.1-0.2-1.1-0.4v-17.9l-5.7,1.5
		l-0.1,0.3l0.7,0.3c0.4,0.1,0.7,0.3,0.8,0.5s0.2,0.7,0.2,1.3v13.8c0,0.2-0.1,0.3-0.2,0.3c-0.1,0.1-0.4,0.1-0.8,0.1l-0.4,0
		L91.6,369.2z M103.2,355.2c0.7,0,1.3-0.2,1.7-0.7c0.4-0.5,0.7-1,0.7-1.6c0-0.6-0.2-1.2-0.7-1.6c-0.4-0.5-1-0.7-1.7-0.7
		c-0.7,0-1.3,0.2-1.7,0.7c-0.4,0.5-0.7,1-0.7,1.6c0,0.6,0.2,1.2,0.7,1.6C102,354.9,102.5,355.2,103.2,355.2L103.2,355.2z
		 M99.8,369.2h7.3l-0.1-0.5l-0.3,0c-0.6-0.1-1-0.1-1.1-0.2c-0.1,0-0.2-0.1-0.2-0.3v-11.6l-5.7,1.6l0,0.4l0.6,0.1
		c0.5,0.1,0.8,0.3,1,0.6c0.1,0.2,0.2,0.8,0.2,1.6v7.3c0,0.2-0.1,0.3-0.2,0.3c-0.2,0.1-0.4,0.1-0.9,0.1l-0.4,0L99.8,369.2z
		 M117.9,369.5c1.1,0,2.3-0.9,3.7-2.6l-0.3-0.3c-0.5,0.6-0.9,0.9-1.2,0.9c-0.7,0-1-0.5-1-1.5l0.2-4.9c0.1-1.6-0.3-2.7-1-3.4
		c-0.7-0.7-1.9-1.1-3.5-1.1c-1.5,0-3,0.3-4.4,1c-1.4,0.7-2.2,1.5-2.2,2.5c0,0.5,0.2,0.8,0.5,1.1c0.4,0.3,0.8,0.4,1.3,0.4
		c0.5,0,1-0.2,1.3-0.5c0.3-0.3,0.5-0.7,0.5-1.1c0-0.3-0.1-0.7-0.4-1.1c-0.3-0.4-0.4-0.6-0.4-0.6c0-0.4,0.5-0.6,1.5-0.6
		c0.9,0,1.6,0.3,2.1,0.9c0.5,0.6,0.7,1.4,0.7,2.4l0,0.8c-2.6,0.7-4.4,1.4-5.5,2.1c-1.1,0.7-1.6,1.6-1.6,2.7c0,0.8,0.3,1.5,0.9,2
		c0.6,0.5,1.3,0.8,2.1,0.8c0.7,0,1.4-0.2,2-0.7c0.6-0.4,1.3-1.1,2-2l0.1,0c0.1,0.8,0.4,1.5,0.8,2
		C116.6,369.3,117.2,369.5,117.9,369.5L117.9,369.5z M113.6,367.1c-0.5,0-0.9-0.2-1.2-0.5c-0.3-0.3-0.4-0.8-0.4-1.3
		c0-0.7,0.2-1.3,0.7-1.8c0.5-0.5,1.4-0.9,2.6-1.2l-0.2,3.9C114.7,366.9,114.2,367.1,113.6,367.1L113.6,367.1z M121.9,369.2h7.2
		l-0.1-0.5l-0.4,0c-0.7-0.1-1.1-0.2-1.1-0.4v-8.6c0.6-0.4,1.2-0.6,1.9-0.6c0.7,0,1.3,0.2,1.6,0.6c0.4,0.4,0.6,1.1,0.6,2.1v6.4
		c0,0.1,0,0.3-0.2,0.3c-0.1,0.1-0.4,0.1-0.8,0.1l-0.4,0l-0.1,0.5h7.2l-0.1-0.5l-0.3,0c-0.9-0.1-1.4-0.3-1.4-0.5v-7.3
		c0-1.6-0.3-2.7-0.9-3.3c-0.7-0.7-1.4-1-2.3-1c-1.3,0-2.9,0.8-4.8,2.4h-0.1l0.1-2.4l-5.8,1.6l0,0.4l0.6,0.1c0.5,0.1,0.8,0.3,1,0.6
		c0.1,0.2,0.2,0.8,0.2,1.6v7.3c0,0.2-0.1,0.3-0.2,0.3c-0.2,0.1-0.4,0.1-0.9,0.1l-0.4,0L121.9,369.2z M142.7,369.5
		c1.8,0,3.1-0.4,4-1.2c0.9-0.8,1.4-1.8,1.4-2.9c0-0.6-0.1-1.1-0.3-1.5c-0.2-0.4-0.5-0.8-1-1.1c-0.5-0.3-0.9-0.6-1.2-0.7
		c-0.3-0.2-0.8-0.4-1.5-0.6c-0.6-0.2-1-0.4-1.2-0.5c-0.2-0.1-0.5-0.3-0.9-0.5c-0.3-0.2-0.6-0.4-0.7-0.6c-0.1-0.2-0.2-0.5-0.2-0.8
		c0-0.6,0.2-1,0.5-1.3c0.3-0.3,0.8-0.5,1.4-0.5c0.5,0,1.1,0.1,1.6,0.4l2.1,3.1l0.7,0l-0.1-3.9l-1.4,0.2c-0.9-0.3-1.8-0.4-2.9-0.4
		c-1.5,0-2.7,0.4-3.6,1.1c-0.9,0.7-1.4,1.7-1.4,2.9c0,1,0.3,1.8,1,2.4c0.6,0.6,1.6,1.1,2.9,1.6c0.4,0.2,0.7,0.3,0.8,0.3
		c0.1,0,0.3,0.1,0.7,0.3c0.3,0.1,0.5,0.3,0.7,0.3c0.1,0.1,0.2,0.2,0.4,0.4c0.2,0.2,0.3,0.3,0.4,0.5c0.1,0.2,0.1,0.4,0.1,0.6
		c0,0.6-0.2,1.1-0.6,1.4c-0.4,0.4-0.9,0.5-1.6,0.5c-0.7,0-1.2-0.2-1.7-0.5c-0.4-0.3-0.9-0.9-1.4-1.6l-0.7-1.5l-0.8-0.1l0.1,3.5
		C139.4,369.3,140.9,369.5,142.7,369.5L142.7,369.5z"/>
	<g>
		<path class="st0" d="M64.6,283.4c1.1,0,2.7,0.3,3.8,1.5c1.1,1.3,1.4,3,1.4,4.1c0,1.6-0.5,3.2-1.4,4.2c-1.2,1.3-2.9,1.5-3.8,1.5
			c-1.4,0-2.8-0.4-3.8-1.5c-1.2-1.3-1.3-3-1.3-4C59.4,286.4,60.7,283.4,64.6,283.4z M62.7,292.2c0.3,0.4,0.9,0.9,2,0.9
			c0.9,0,1.6-0.3,2-1c0.4-0.5,0.7-1.4,0.7-3.1c0-0.5,0-1.3-0.3-1.9c-0.4-1.3-1.4-1.9-2.5-1.9c-0.9,0-1.6,0.4-2,0.9
			c-0.6,0.7-0.8,1.9-0.8,3.1C61.9,290.2,62,291.3,62.7,292.2z"/>
		<path class="st0" d="M71.6,283.7H75l4,8.5v-8.5h2.2v10.8H78l-4.2-9v9h-2.2V283.7z"/>
		<path class="st0" d="M83.4,283.7h2.4v8.9h4.6v1.8h-7V283.7z"/>
		<path class="st0" d="M93.7,283.7l2.2,4.9l2.3-4.9h2.4l-3.6,6.8v3.9h-2.3v-4l-3.6-6.8H93.7z"/>
	</g>
	<g>
		<g>
			<path class="st1" d="M43.8,391l1.6,6.4l1.8-6.4h2.7l1.8,6.4l1.7-6.4h2.5l-2.9,8.5h-2.7l-1.7-6.3l-1.8,6.3h-2.7l-2.8-8.5H43.8z"/>
			<path class="st1" d="M57.2,387.4h2.6v2.2h-2.6V387.4z M57.2,391h2.5v8.5h-2.5V391z"/>
			<path class="st1" d="M62.1,387.4h2.5v12.1h-2.5V387.4z"/>
			<path class="st1" d="M66.9,387.4h2.5v12.1h-2.5V387.4z"/>
			<path class="st1" d="M76.5,393.1c0-0.4-0.1-1.6-0.1-2.1h2.3l0.1,1.6c0.3-0.7,0.9-1.7,2.9-1.6v2.2c-2.5-0.2-2.7,1.1-2.7,2.1v4.2
				h-2.5V393.1z"/>
		</g>
		<g>
			<path class="st1" d="M84.7,395.9c0,0.6,0,2.3,1.7,2.3c0.6,0,1.2-0.2,1.5-1.2h2.3c0,0.4-0.1,1.1-0.8,1.8c-0.6,0.7-1.7,1-3,1
				c-0.7,0-2.1-0.1-3-1.1c-0.8-0.8-1.1-1.9-1.1-3.3c0-1.4,0.3-3,1.8-4c0.7-0.4,1.5-0.7,2.4-0.7c1.2,0,2.6,0.5,3.4,2
				c0.6,1.2,0.5,2.4,0.5,3.1H84.7z M87.9,394.3c0-0.4,0-1.9-1.5-1.9c-1.1,0-1.5,0.9-1.6,1.9H87.9z"/>
			<path class="st1" d="M97.2,399.4c-0.8,0.2-1.5,0.3-1.9,0.3c-2.5,0-2.5-1.6-2.5-2.3v-4.6h-1.6v-1.6h1.6v-1.7l2.5-0.9v2.6h2v1.6h-2
				v3.8c0,0.8,0,1.3,1.1,1.3c0.4,0,0.5,0,0.8,0V399.4z"/>
			<path class="st1" d="M98.8,387.4h2.6v2.2h-2.6V387.4z M98.9,391h2.5v8.5h-2.5V391z"/>
			<path class="st1" d="M103.7,393.1c0-0.4-0.1-1.6-0.1-2.1h2.3l0,1.6c0.3-0.7,0.9-1.7,2.9-1.6v2.2c-2.5-0.2-2.7,1.1-2.7,2.1v4.2
				h-2.5V393.1z"/>
		</g>
		<g>
			<path class="st1" d="M111.9,395.9c0,0.6,0,2.3,1.7,2.3c0.6,0,1.2-0.2,1.5-1.2h2.3c0,0.4-0.1,1.1-0.8,1.8c-0.6,0.7-1.7,1-3,1
				c-0.7,0-2.1-0.1-3-1.1c-0.8-0.8-1.1-1.9-1.1-3.3c0-1.4,0.3-3,1.8-4c0.7-0.4,1.5-0.7,2.4-0.7c1.2,0,2.6,0.5,3.4,2
				c0.6,1.2,0.5,2.4,0.5,3.1H111.9z M115,394.3c0-0.4,0-1.9-1.5-1.9c-1.1,0-1.5,0.9-1.6,1.9H115z"/>
		</g>
		<g>
			<path class="st1" d="M39.7,412.5h-1.3v-1.8h1.3v-1.2c0-1.5,0.5-2.7,2.9-2.7c0.2,0,0.7,0,1.3,0.1v1.7c-0.3,0-0.3,0-0.5,0
				c-1.3,0-1.3,0.7-1.3,1.1v1h1.6v1.8h-1.6v6.7h-2.5V412.5z M44.9,407.1h2.6v2.2h-2.6V407.1z M45,410.8h2.5v8.5H45V410.8z"/>
		</g>
		<g>
			<path class="st1" d="M49.9,412.3c0,0,0-1-0.1-1.5h2.4l0.1,1.3c0.2-0.4,0.9-1.5,2.7-1.5c1.7,0,2.4,1,2.6,1.6
				c0.2,0.5,0.2,1,0.2,2.5v4.6h-2.5V414c0-0.4,0-0.7-0.1-0.9c-0.2-0.4-0.6-0.7-1.2-0.7c-0.5,0-1,0.3-1.3,0.7
				c-0.2,0.2-0.3,0.6-0.3,1.3v5h-2.5V412.3z"/>
			<path class="st1" d="M65.3,419.2c-0.1-0.5-0.1-0.9-0.1-1.2c-0.9,1.4-2.1,1.4-2.5,1.4c-1.2,0-1.8-0.4-2.1-0.7
				c-0.5-0.5-0.7-1.2-0.7-1.9c0-0.7,0.2-1.9,1.8-2.6c1-0.5,2.5-0.5,3.4-0.5c0-0.6,0-0.8-0.1-1.1c-0.2-0.6-0.9-0.7-1.1-0.7
				c-0.4,0-0.7,0.2-0.9,0.5c-0.2,0.3-0.2,0.6-0.2,0.8h-2.4c0-0.5,0.1-1.4,1-2c0.8-0.6,1.8-0.7,2.6-0.7c0.7,0,2.2,0.1,3,1.1
				c0.6,0.7,0.6,1.7,0.6,2.1l0,3.4c0,0.7,0.1,1.4,0.2,2.1H65.3z M62.3,416.6c0,0.6,0.4,1.2,1.2,1.2c0.5,0,0.8-0.2,1.1-0.5
				c0.4-0.5,0.5-1.2,0.5-2.1C63.4,415.1,62.3,415.6,62.3,416.6z"/>
			<path class="st1" d="M69.8,412.3c0,0,0-1-0.1-1.5h2.4l0.1,1.3c0.2-0.4,0.9-1.5,2.7-1.5c1.7,0,2.4,1,2.6,1.6
				c0.2,0.5,0.2,1,0.2,2.5v4.6h-2.5V414c0-0.4,0-0.7-0.1-0.9c-0.2-0.4-0.6-0.7-1.2-0.7c-0.5,0-1,0.3-1.3,0.7
				c-0.2,0.2-0.3,0.6-0.3,1.3v5h-2.5V412.3z"/>
			<path class="st1" d="M84.6,413.8c0-0.3-0.1-1.6-1.1-1.6c-1.2,0-1.3,1.8-1.3,2.7c0,0.5,0.1,2,0.6,2.6c0.2,0.3,0.5,0.3,0.7,0.3
				c0.3,0,1-0.1,1.1-1.6h2.4c0,0.7-0.1,1.7-1.1,2.5c-0.6,0.5-1.4,0.8-2.4,0.8c-1.1,0-2.1-0.3-2.9-1.1c-0.7-0.9-1.1-2-1.1-3.3
				c0-3.9,2.8-4.4,4-4.4c1.6,0,3.4,0.9,3.5,3.2H84.6z"/>
			<path class="st1" d="M88.6,407.1h2.6v2.2h-2.6V407.1z M88.7,410.8h2.5v8.5h-2.5V410.8z"/>
			<path class="st1" d="M98.6,419.2c-0.1-0.5-0.1-0.9-0.1-1.2c-0.9,1.4-2.1,1.4-2.5,1.4c-1.2,0-1.8-0.4-2.1-0.7
				c-0.5-0.5-0.7-1.2-0.7-1.9c0-0.7,0.2-1.9,1.8-2.6c1-0.5,2.5-0.5,3.4-0.5c0-0.6,0-0.8-0.1-1.1c-0.2-0.6-0.9-0.7-1.1-0.7
				c-0.4,0-0.7,0.2-0.9,0.5c-0.2,0.3-0.2,0.6-0.2,0.8h-2.4c0-0.5,0.1-1.4,1-2c0.8-0.6,1.8-0.7,2.6-0.7c0.7,0,2.2,0.1,3,1.1
				c0.6,0.7,0.6,1.7,0.6,2.1l0,3.4c0,0.7,0,1.4,0.2,2.1H98.6z M95.5,416.6c0,0.6,0.4,1.2,1.2,1.2c0.5,0,0.8-0.2,1.1-0.5
				c0.4-0.5,0.5-1.2,0.5-2.1C96.7,415.1,95.5,415.6,95.5,416.6z"/>
			<path class="st1" d="M103,407.1h2.5v12.1H103V407.1z"/>
			<path class="st1" d="M107.8,407.1h2.5v12.1h-2.5V407.1z"/>
			<path class="st1" d="M114.5,410.8l1.9,5.9l1.9-5.9h2.5l-3.2,8.3l-1,3.4H114l1.1-3.2l-3.3-8.5H114.5z"/>
		</g>
		<g>
			<path class="st1" d="M52.8,436.5c0,0.5,0.4,1.2,1.4,1.2c0.9,0,1.3-0.5,1.3-1c0-0.4-0.2-0.7-1.2-1l-1.5-0.4
				c-0.7-0.2-2.1-0.6-2.1-2.3c0-1.6,1.5-2.6,3.7-2.6c1.7,0,3.1,0.8,3.2,2.5h-2.3c-0.1-0.9-0.8-1-1.2-1c-0.7,0-1.2,0.3-1.2,0.8
				c0,0.6,0.4,0.7,1.2,0.9l1.5,0.4c1.5,0.4,2.3,1.2,2.3,2.4c0,1.5-1.3,2.9-3.9,2.9c-1.1,0-2.1-0.2-2.9-1c-0.6-0.6-0.6-1.3-0.6-1.7
				H52.8z"/>
			<path class="st1" d="M61.7,435.4c0,0.6,0,2.3,1.7,2.3c0.6,0,1.2-0.2,1.5-1.2h2.3c0,0.4-0.1,1.1-0.8,1.8c-0.6,0.7-1.7,1-3,1
				c-0.7,0-2.1-0.1-3-1.1c-0.8-0.8-1.1-1.9-1.1-3.3c0-1.4,0.3-3,1.8-4c0.7-0.4,1.5-0.7,2.4-0.7c1.2,0,2.6,0.5,3.4,2
				c0.6,1.2,0.5,2.4,0.5,3.1H61.7z M64.8,433.8c0-0.4,0-1.9-1.5-1.9c-1.1,0-1.5,0.9-1.6,1.9H64.8z"/>
			<path class="st1" d="M73.6,433.5c0-0.3-0.1-1.6-1.1-1.6c-1.2,0-1.3,1.8-1.3,2.7c0,0.5,0.1,2,0.6,2.6c0.2,0.3,0.5,0.3,0.7,0.3
				c0.3,0,1-0.1,1.1-1.6h2.4c0,0.7-0.1,1.7-1.1,2.5c-0.6,0.5-1.4,0.8-2.4,0.8c-1.1,0-2.1-0.3-2.9-1.1c-0.7-0.9-1.1-2-1.1-3.3
				c0-3.9,2.8-4.4,4-4.4c1.6,0,3.4,0.9,3.5,3.2H73.6z"/>
			<path class="st1" d="M80.1,430.5v5c0,0.7,0,1.9,1.3,1.9c1.6,0,1.6-1.2,1.6-2.6v-4.3h2.5v5.6c0,1.8,0,2,0,2.3c0,0.2,0,0.4,0.1,0.6
				h-2.4l-0.1-1.1c-0.3,0.4-0.9,1.3-2.5,1.3c-1.1,0-2.1-0.5-2.5-1.1c-0.6-0.7-0.6-1.9-0.6-2.3v-5.3H80.1z"/>
			<path class="st1" d="M88.1,432.6c0-0.4-0.1-1.6-0.1-2.1h2.3l0,1.6c0.3-0.7,0.9-1.7,2.9-1.6v2.2c-2.5-0.2-2.7,1.1-2.7,2.1v4.2
				h-2.5V432.6z"/>
		</g>
		<g>
			<path class="st1" d="M96.3,435.4c0,0.6,0,2.3,1.7,2.3c0.6,0,1.2-0.2,1.5-1.2h2.3c0,0.4-0.1,1.1-0.8,1.8c-0.6,0.7-1.7,1-3,1
				c-0.7,0-2.1-0.1-3-1.1c-0.8-0.8-1.1-1.9-1.1-3.3c0-1.4,0.3-3,1.8-4c0.7-0.4,1.5-0.7,2.4-0.7c1.2,0,2.6,0.5,3.4,2
				c0.6,1.2,0.5,2.4,0.5,3.1H96.3z M99.4,433.8c0-0.4,0-1.9-1.5-1.9c-1.1,0-1.5,0.9-1.6,1.9H99.4z"/>
			<path class="st1" d="M105,435.7l-0.3-8.8h2.2l-0.2,8.8H105z M104.8,436.7h2.1v2.2h-2.1V436.7z"/>
		</g>
	</g>
</g>
</svg>
