<?xml version="1.0" encoding="utf-8"?>
<!-- Generator: Adobe Illustrator 22.1.0, SVG Export Plug-In . SVG Version: 6.00 Build 0)  -->
<svg version="1.1" id="Layer_1" xmlns="http://www.w3.org/2000/svg" xmlns:xlink="http://www.w3.org/1999/xlink" x="0px" y="0px"
	 viewBox="0 0 99.5 50.2" style="enable-background:new 0 0 99.5 50.2;" xml:space="preserve">
<style type="text/css">
	.st0{fill:#FFFFFF;}
</style>
<title>logo</title>
<g id="Layer_2_1_">
	<g id="Layer_1-2">
		<polygon class="st0" points="17.3,6.8 22.1,11.9 12.9,20.6 10.4,18.1 3.6,24.5 6.2,27.2 4.9,28.4 0,23.2 17.3,6.8 		"/>
		<polygon class="st0" points="27.1,37.1 22.2,31.9 31.5,23.1 34,25.7 41.1,19 38.5,16.3 39.8,15.1 44.8,20.4 27.1,37.1 		"/>
		<polygon class="st0" points="7,27.6 12.1,22.8 20.6,31.8 18.2,34 24.9,41 27.5,38.6 28.4,39.5 23,44.6 7,27.6 		"/>
		<polygon class="st0" points="37.5,17 32,22.1 23.4,13 25.9,10.6 19.3,3.7 16.7,6.2 15.8,5.2 21.3,0 37.4,17 37.5,17 		"/>
		<path class="st0" d="M97.7,34.4l0.3,0.3v7.3c-0.1,0.6,0,1.1,0.3,1.6c0.3,0.3,0.7,0.4,1.1,0.4h0.1v0.9h-5.4v-0.9h0.1
			c0.4,0,0.7-0.1,1-0.4c0.2-0.5,0.3-1.1,0.3-1.6v-5.1l-1.2-0.7v-0.3L97.7,34.4L97.7,34.4z"/>
		<path class="st0" d="M95.2,30.4c0.1-0.8,0.7-1.5,1.5-1.5c0.4,0,0.8,0.2,1.1,0.5c0.3,0.3,0.5,0.7,0.4,1.1c0,0.8-0.6,1.5-1.4,1.5
			c0,0,0,0-0.1,0c-0.4,0-0.7-0.2-1-0.5C95.5,31.2,95.3,30.8,95.2,30.4L95.2,30.4z"/>
		<path class="st0" d="M91.5,43.8c-0.3,0.3-0.7,0.5-1.2,0.7c-0.5,0.2-1,0.2-1.4,0.2c-0.7,0.1-1.5-0.2-2-0.7
			c-0.5-0.7-0.7-1.6-0.6-2.5v-5.7h-1.5v-0.6l3.4-3h0.6v2.4H91v1.1h-2.2v5.3c-0.1,0.6,0,1.3,0.2,1.9c0.2,0.3,0.6,0.4,0.9,0.4
			c0.2,0,0.4,0,0.5-0.1c0.2-0.1,0.4-0.1,0.6-0.2L91.5,43.8L91.5,43.8z"/>
		<path class="st0" d="M80.4,34.4l0.3,0.3v7.3c-0.1,0.6,0,1.1,0.3,1.6c0.3,0.3,0.7,0.4,1.1,0.4h0.1v0.9h-5.4v-0.9h0.1
			c0.4,0,0.7-0.1,1-0.4c0.2-0.5,0.3-1.1,0.3-1.6v-5.1L77,36.2v-0.3L80.4,34.4L80.4,34.4z"/>
		<path class="st0" d="M77.9,30.4c0-0.8,0.6-1.5,1.5-1.5c0.4,0,0.8,0.2,1.1,0.5c0.3,0.3,0.4,0.7,0.4,1.1c0,0.8-0.7,1.5-1.5,1.5
			c-0.4,0-0.8-0.2-1.1-0.5C78.1,31.1,77.9,30.8,77.9,30.4z"/>
		<path class="st0" d="M69.8,37.7c0.1-0.5-0.1-1.1-0.4-1.5c-0.4-0.3-0.9-0.5-1.3-0.4v-0.9l4.2-0.2v7.6c0,1.1,0.1,2,1.4,1.7v1h-3.9
			v-1.3c-0.6,0.4-1.3,0.7-2,0.9c-0.5,0.2-1.1,0.3-1.7,0.3c-0.9,0.1-1.7-0.2-2.3-0.9c-0.5-1-0.8-2.1-0.7-3.2v-3c0-0.5-0.1-1-0.3-1.5
			c-0.3-0.3-0.7-0.5-1.2-0.5v-0.9l4-0.2V41c-0.1,0.7,0.1,1.4,0.3,2c0.3,0.4,0.8,0.6,1.3,0.5c0.4,0,0.7-0.1,1.1-0.2
			c0.5-0.2,0.9-0.4,1.4-0.7V37.7z"/>
		<path class="st0" d="M58.1,47.3c-0.1,0.6,0,1.1,0.3,1.7c0.3,0.3,0.7,0.4,1,0.4h0.1v0.8H54v-0.8h0.3c0.4,0,0.8-0.1,1-0.4
			c0.2-0.5,0.3-1.1,0.3-1.7v-3.6c-0.4,0.3-0.9,0.5-1.4,0.7c-0.4,0.1-0.8,0.2-1.2,0.2v-1.2c0.2,0,0.3,0,0.5,0c0.3,0,0.7-0.1,1-0.2
			c0.4-0.1,0.8-0.3,1.1-0.5v-5c0-0.7-0.2-1.3-0.6-1.8c-0.5-0.4-1.1-0.7-1.7-0.6H53v-1h0.2c0.6,0,1.1,0.1,1.7,0.2
			c0.5,0.1,1,0.3,1.4,0.6l1.1-0.6h0.7L58.1,47.3L58.1,47.3z M53,44.7h-0.4c-1.3,0.1-2.6-0.4-3.5-1.3c-0.9-0.9-1.4-2.2-1.4-3.5
			c0-3,2.3-5.4,5.3-5.5v1c-0.7,0-1.4,0.4-1.8,1c-0.5,0.8-0.8,1.7-0.8,2.7c-0.1,1.1,0.2,2.3,0.8,3.2c0.4,0.6,1,1,1.7,1.1V44.7z"/>
		<path class="st0" d="M44.7,42.9c-0.6,0.6-1.3,1-2,1.4c-0.6,0.3-1.3,0.5-2,0.5h-0.1V43c0.4,0.2,0.8,0.3,1.3,0.3
			c0.4,0,0.8-0.1,1.2-0.2c0.5-0.2,0.9-0.4,1.3-0.7L44.7,42.9L44.7,42.9z M40.5,34.5h0.4c1,0,1.9,0.3,2.7,1c0.7,0.8,1.1,1.8,1.1,2.8
			h-4.1v-1h1.6c0-0.5-0.2-1.1-0.5-1.5c-0.3-0.3-0.7-0.5-1.1-0.5h-0.1V34.5L40.5,34.5z M40.5,44.8c-1.2,0-2.4-0.5-3.2-1.4
			C36.5,42.5,36,41.3,36,40c0-0.9,0.2-1.7,0.5-2.5c0.4-0.8,0.9-1.5,1.6-2c0.4-0.3,0.8-0.6,1.3-0.7c0.3-0.1,0.7-0.2,1-0.2v0.8
			c-0.4,0-0.8,0.2-1,0.5c-0.3,0.4-0.5,0.9-0.6,1.5h1.6v1h-1.8c0,0.2,0,0.3,0,0.4s0,0.3,0,0.5c-0.1,1,0.3,2,0.9,2.8
			c0.3,0.3,0.6,0.6,1,0.8L40.5,44.8L40.5,44.8z"/>
	</g>
</g>
</svg>
