<svg xmlns="http://www.w3.org/2000/svg" viewBox="0 0 68.39 64"><defs><style>.cls-1{fill:#fdd800;}.cls-2{fill:#010101;}</style></defs><title>logo</title><g id="Layer_2" data-name="Layer 2"><g id="Layer_1-2" data-name="Layer 1"><g id="NS_LOGO" data-name="NS LOGO"><rect class="cls-1" x="1.98" y="1.98" width="64.42" height="60.06"/><path class="cls-2" d="M68.36,64H0L0,0,68.39,0ZM2,62l64.42,0L66.42,2,2,2Z"/><path class="cls-2" d="M34.27,51.54a1.28,1.28,0,0,0-.79-.22h-.86V53.1h.68c.84,0,1.26-.3,1.26-.9A.78.78,0,0,0,34.27,51.54Zm6.32,2.4h1.32l-.64-2.3ZM24.78,51.3A2,2,0,0,0,23.3,52a2.73,2.73,0,0,0-.61,1.93,2.59,2.59,0,0,0,.6,1.8,1.93,1.93,0,0,0,1.5.68,2,2,0,0,0,1.49-.66,3.17,3.17,0,0,0,0-3.71A1.9,1.9,0,0,0,24.78,51.3ZM4.17,48V59.63l60,0V48Zm7.61,9.17a2.3,2.3,0,0,1-1.56.57A1.81,1.81,0,0,1,8.68,57v.65H7.39V55H8.68a1.46,1.46,0,0,0,.37,1.05,1.12,1.12,0,0,0,.8.34.81.81,0,0,0,.59-.24.79.79,0,0,0,.24-.57.8.8,0,0,0-.24-.59,3.41,3.41,0,0,0-.86-.55,6.63,6.63,0,0,1-1.8-1.12A1.81,1.81,0,0,1,7.33,52,2,2,0,0,1,8,50.49a2.1,2.1,0,0,1,1.42-.55,1.62,1.62,0,0,1,1.41.71V50h1.29v2.32H10.78a1.29,1.29,0,0,0-.37-.83,1,1,0,0,0-.72-.29.85.85,0,0,0-.54.17.53.53,0,0,0-.22.44.68.68,0,0,0,.18.45,3.65,3.65,0,0,0,1.06.6,8.79,8.79,0,0,1,1.3.68,2.19,2.19,0,0,1,.71.79,2.31,2.31,0,0,1,.26,1.12A2.13,2.13,0,0,1,11.79,57.17Zm8.15-4.08H18.64V51.31H17.46v5H18.6v1.29H14.33V56.36h1.15v-5H14.33v1.78H13V50h6.91Zm8,3.52a4.19,4.19,0,0,1-3.1,1.14,4.1,4.1,0,0,1-3.14-1.17,3.88,3.88,0,0,1-1.1-2.75A3.8,3.8,0,0,1,21.67,51a4.17,4.17,0,0,1,3.11-1.14A4.18,4.18,0,0,1,27.89,51a4,4,0,0,1,0,5.56Zm17.48,1.05H41.61V56.37h1l-.36-1.31h-2l-.4,1.31h1v1.29H35.21l-1.72-3.34h-.87v2h1v1.29h-4V56.36h1v-5h-1V50h4.6a2.37,2.37,0,0,1,1.87.65,2.18,2.18,0,0,1,.57,1.48,2,2,0,0,1-1.32,1.9l1.24,2.3h1.88l1.49-5h-1V50h5v1.29h-1l1.6,5h.91Zm8-1.65a3.43,3.43,0,0,1-1.46,1.28,4.82,4.82,0,0,1-2.14.46,4.28,4.28,0,0,1-3.17-1.11,3.82,3.82,0,0,1-1.1-2.81A4,4,0,0,1,46,51.74a3.52,3.52,0,0,1,1.48-1.37,4.44,4.44,0,0,1,2-.46,3.52,3.52,0,0,1,2.39.75V50h1.29v2.71H51.87a1.9,1.9,0,0,0-.81-1.08,2.32,2.32,0,0,0-1.29-.39,2.1,2.1,0,0,0-1.55.65,2.41,2.41,0,0,0-.64,1.78,2.76,2.76,0,0,0,.65,2,2.11,2.11,0,0,0,1.59.68A1.88,1.88,0,0,0,51,56a1.71,1.71,0,0,0,.63-.93H50.26V53.81h3.57A4.15,4.15,0,0,1,53.33,56ZM61,52.46H59.59V51.33H57.23v1.76h1.91v1.29H57.23v2h2.36V55.24H61v2.43H54.33V56.37h.91v-5h-.91V50H61Z"/><path class="cls-2" d="M4.43,45.85V44.6h1V39.66h-1V38.41H7.56l2.74,4.64V39.67h-1V38.41h3.34v1.26h-1v6.24H10L6.76,40.39V44.6h.94v1.26Z"/><path class="cls-2" d="M20.23,44.6v1.26H16.56V44.6h1l-.35-1.28H15.23l-.4,1.28h1v1.26h-3.3V44.6h.92l1.45-4.93h-1V38.41h4.86v1.26h-1l1.56,4.93Zm-3.37-2.37L16.24,40l-.67,2.24Z"/><path class="cls-2" d="M21.51,45.86V44.6h1.12V39.67H21.51v1.73H20.23v-3H27v3H25.72V39.67H24.56V44.6h1.12v1.26Z"/><path class="cls-2" d="M27.66,45.86V44.61h1.13V39.68H27.66V38.42h4.21v1.26H30.73v4.93h1.14v1.26Z"/><path class="cls-2" d="M36.46,38.3a4.08,4.08,0,0,1,3,1.12,3.89,3.89,0,0,1,0,5.43,4.1,4.1,0,0,1-3,1.11,4,4,0,0,1-3.07-1.15,3.8,3.8,0,0,1-1.07-2.68,3.72,3.72,0,0,1,1.1-2.71A4.08,4.08,0,0,1,36.46,38.3Zm0,1.36A1.91,1.91,0,0,0,35,40.3a2.68,2.68,0,0,0-.6,1.88A2.55,2.55,0,0,0,35,43.95a1.89,1.89,0,0,0,1.46.66A1.91,1.91,0,0,0,37.91,44a3.08,3.08,0,0,0,0-3.62A1.86,1.86,0,0,0,36.46,39.66Z"/><path class="cls-2" d="M40.83,45.87V44.61h1V39.68h-1V38.42H44l2.74,4.64V39.68h-1V38.42h3.34v1.26H48v6.24H46.37L43.16,40.4v4.21h.94v1.26Z"/><path class="cls-2" d="M56.6,44.62v1.26H52.94V44.62h1l-.35-1.28H51.61l-.4,1.28h1v1.26h-3.3V44.62h.92l1.45-4.93h-1V38.43h4.86v1.26h-1l1.56,4.93Zm-3.37-2.37L52.62,40l-.67,2.24Z"/><path class="cls-2" d="M57.29,45.88V44.62h1.06V39.69H57.3V38.43h4.09v1.26H60.3v4.93h2.2v-2.3H64v3.56Z"/></g></g></g></svg>