<svg xmlns="http://www.w3.org/2000/svg" viewBox="0 0 252.12 16.76"><defs><style>.cls-1{fill:#231f20;}</style></defs><title>t1300</title><g id="Layer_2" data-name="Layer 2"><g id="Layer_1-2" data-name="Layer 1"><path class="cls-1" d="M10.28,11.09V8.33h7.64A8.91,8.91,0,0,1,16.85,13a7.33,7.33,0,0,1-3.12,2.73,10.25,10.25,0,0,1-4.59,1q-4.41,0-6.78-2.37A8.17,8.17,0,0,1,0,8.38,8.47,8.47,0,0,1,1.17,3.91,7.6,7.6,0,0,1,4.32,1,9.64,9.64,0,0,1,8.63,0a7.51,7.51,0,0,1,5.1,1.59V.26H16.5V6.05H13.73A4,4,0,0,0,12,3.74a5,5,0,0,0-2.76-.85A4.5,4.5,0,0,0,5.93,4.27,5.19,5.19,0,0,0,4.56,8.09,5.89,5.89,0,0,0,6,12.33a4.51,4.51,0,0,0,3.4,1.46,4.06,4.06,0,0,0,2.45-.71,3.68,3.68,0,0,0,1.35-2Z"/><path class="cls-1" d="M19.88,16.56V13.8h1.95V3H19.88V.26H34.24V5.43H31.13V3H26.08V6.77h4.07V9.53H26.08V13.8h5.05V11.37h3.11v5.19Z"/><path class="cls-1" d="M38.91,16.56V13.8h2.45V3H38.91v3.8h-2.8V.26H50.89V6.81H48.13V3H45.61V13.8h2.44v2.76Z"/><path class="cls-1" d="M74.18,13.8v2.76h-8V13.8h2.08L67.48,11H63.25l-.87,2.8h2.18v2.76H57.34V13.8h2L62.53,3H60.37V.26H71V3H68.82L72.24,13.8ZM66.81,8.61,65.45,3.7,64,8.61Z"/><path class="cls-1" d="M80.62,16.56V13.8H83V3H80.62V.26H95.21v5H92.1V3H87.2V6.79h3.52V9.54H87.2V13.8h2.51v2.76Z"/><path class="cls-1" d="M113.71,13.8v2.76h-5l-3.68-7.14H103.2V13.8h2v2.76H96.72V13.8H99V3H96.72V.26h9.83a5,5,0,0,1,4,1.4,4.67,4.67,0,0,1,1.23,3.17A4.24,4.24,0,0,1,109,8.88l2.65,4.92Zm-10.51-7h1.45q2.7,0,2.7-1.92a1.68,1.68,0,0,0-.62-1.42A2.74,2.74,0,0,0,105,3H103.2Z"/><path class="cls-1" d="M115.18,16.56V13.8h2V3h-2V.26h14.37V5.43h-3.12V3h-5.05V6.77h4.08V9.53h-4.08V13.8h5.05V11.37h3.12v5.19Z"/><path class="cls-1" d="M132,16.56V13.8h2V3h-2V.26h14.36V5.43h-3.11V3h-5.05V6.77h4.07V9.53h-4.07V13.8h5.05V11.37h3.11v5.19Z"/><path class="cls-1" d="M153.66,16.56V13.8h2.1V3h-2.1V.26h8.17l3.58,9.55L169,.26h8.33V3h-2.11V13.8h2.11v2.76h-8.2V13.8h2V3h-.38l-5.05,13.55h-1.76L158.8,3h-.39V13.8h2.14v2.76Z"/><path class="cls-1" d="M188.2,0a8.92,8.92,0,0,1,6.64,2.44,8.11,8.11,0,0,1,2.42,5.94,8.1,8.1,0,0,1-2.43,5.95,8.93,8.93,0,0,1-6.63,2.43,8.77,8.77,0,0,1-6.71-2.5,8.3,8.3,0,0,1-2.35-5.88,8.17,8.17,0,0,1,2.41-5.94A8.91,8.91,0,0,1,188.2,0Zm0,3A4.2,4.2,0,0,0,185,4.38a5.88,5.88,0,0,0-1.31,4.13A5.54,5.54,0,0,0,185,12.35a4.13,4.13,0,0,0,3.2,1.44,4.21,4.21,0,0,0,3.19-1.41,5.79,5.79,0,0,0,1.31-4.07,5.8,5.8,0,0,0-1.25-3.86A4.08,4.08,0,0,0,188.2,3Z"/><path class="cls-1" d="M199.08,16.56V13.8h2.17V3h-2.17V.26h6.84l6,10.16V3H209.8V.26h7.31V3h-2.28V16.68h-3.64l-7-12.09V13.8h2.05v2.76Z"/><path class="cls-1" d="M221.55,16.56V13.8H224V3h-2.45v3.8h-2.8V.26h14.78V6.81h-2.77V3h-2.51V13.8h2.44v2.76Z"/><path class="cls-1" d="M235.35,16.56V13.8h2V3h-2V.26h7.88V3h-1.71V6.59H246V3h-1.65V.26h7.81V3h-2V13.8h2v2.76h-7.81V13.8H246V9.35h-4.44V13.8h1.71v2.76Z"/></g></g></svg>