<svg xmlns="http://www.w3.org/2000/svg" viewBox="0 0 200.35 45.62"><defs><style>.cls-1{fill:#231f20;}</style></defs><title>t2300</title><g id="Layer_2" data-name="Layer 2"><g id="Layer_1-2" data-name="Layer 1"><path class="cls-1" d="M6.11,16.72,2,2.3H0v-2H6.23v2H4.28L7.37,13l3-10.66H8.39v-2h7.49v2H14l3,10.66L20,2.3H18v-2h6v2H22.1L18,16.72H15.7L12,3.83,8.38,16.72Z"/><path class="cls-1" d="M27.26,14.52V2.3H25.41v-2h6.24v2H29.73V7h7.08V2.3H34.9v-2h6.24v2H39.28V14.52h1.86v2H34.9v-2h1.91V9H29.73v5.52h1.92v2H25.41v-2Z"/><path class="cls-1" d="M45,14.52V2.3H42.87v-2H56.42V5.17h-2V2.3h-7V7.15H53.5v2H47.44v5.33h7v-3h2v5H42.87v-2Z"/><path class="cls-1" d="M60.48,14.52V2.3H58.15v-2h5.56l7.15,12.67V2.3h-2.3v-2h6.69v2h-2.4V16.72H70.32L62.5,2.81V14.52h2.33v2H58.15v-2Z"/><path class="cls-1" d="M87.89,14.52V9.14L83,2.3h-2v-2h6.7v2h-2l3.6,5,3.29-5h-2v-2H97v2H94.88L90.35,9.14v5.38h2.23v2H85.7v-2Z"/><path class="cls-1" d="M97.56,8.33a8.17,8.17,0,0,1,2.32-5.94A8.07,8.07,0,0,1,105.93,0a8.27,8.27,0,0,1,6.13,2.39,8.15,8.15,0,0,1,2.36,6,8.18,8.18,0,0,1-2.4,6,8.36,8.36,0,0,1-6.13,2.39,8.66,8.66,0,0,1-4.35-1.13,7.27,7.27,0,0,1-3-3.16A9.27,9.27,0,0,1,97.56,8.33Zm2.68,0a6.67,6.67,0,0,0,1.57,4.5,5.21,5.21,0,0,0,4.13,1.82,5.28,5.28,0,0,0,4.16-1.86,6.47,6.47,0,0,0,1.63-4.43A6.23,6.23,0,0,0,110.07,4a5.41,5.41,0,0,0-4.17-1.8,5.2,5.2,0,0,0-4.07,1.77A6.35,6.35,0,0,0,100.24,8.34Z"/><path class="cls-1" d="M120.14,2.3v8.15a11.91,11.91,0,0,0,.19,2.63,2.15,2.15,0,0,0,1,1.23,3.54,3.54,0,0,0,2,.51,4.52,4.52,0,0,0,2.23-.44,2.13,2.13,0,0,0,1-1.18,9.22,9.22,0,0,0,.25-2.63V2.3h-1.88v-2h6.37v2h-2v8.52a16.24,16.24,0,0,1-.14,2.5,4.14,4.14,0,0,1-.79,1.63,4.52,4.52,0,0,1-1.82,1.36,7.12,7.12,0,0,1-2.85.51,8.55,8.55,0,0,1-3.08-.48,4.12,4.12,0,0,1-1.85-1.27,4.28,4.28,0,0,1-.83-1.7,13.62,13.62,0,0,1-.2-2.8V2.3h-2v-2h6.41v2Z"/><path class="cls-1" d="M140.13,14.52V2.3h-2.24v-2h6.62a13.72,13.72,0,0,1,3.3.32,3.64,3.64,0,0,1,2,1.36,4.11,4.11,0,0,1,.8,2.58c0,2.16-1.12,3.51-3.36,4.07l2.88,5.93h2v2H148.6l-3.71-7.62h-2.3v5.58h2.09v2h-6.79v-2Zm2.46-7.62h1.92a8.56,8.56,0,0,0,2.06-.18A2,2,0,0,0,147.65,6a2.42,2.42,0,0,0,.42-1.49,2.17,2.17,0,0,0-.42-1.35,1.87,1.87,0,0,0-1.06-.7,9.76,9.76,0,0,0-1.91-.14h-2.09Z"/><path class="cls-1" d="M155.62,14.52V2.3h-2.11v-2h13.54V5.17h-2V2.3h-7V7.15h6.06v2h-6.06v5.33h7v-3h2v5H153.51v-2Z"/><path class="cls-1" d="M171.12,14.52V2.3h-2.34v-2h5.57l7.15,12.67V2.3h-2.31v-2h6.69v2h-2.4V16.72H181L173.13,2.81V14.52h2.33v2h-6.68v-2Z"/><path class="cls-1" d="M192.52,14.52V2.3h-3.36V6.46h-2V.26h13.2v6.2h-2V2.3H195V14.52h2.12v2h-6.67v-2Z"/><path class="cls-1" d="M12.74,39.63H6.87L5.62,43.32h2v2H1.18v-2h2L7.6,30.9h-2V29.06H14V30.9h-2l4.56,12.42h1.82v2H11.93v-2h2Zm-.61-1.91L10,30.9H9.74L7.48,37.72Z"/><path class="cls-1" d="M25,45.36V39.44h2v1.44c1,1.78,2.25,2.66,3.83,2.66a3,3,0,0,0,2-.74,2.46,2.46,0,0,0,.83-1.93A2,2,0,0,0,33,39.2a8,8,0,0,0-2.57-1,18.31,18.31,0,0,1-3.24-1.11,4,4,0,0,1-1.68-1.49,4.09,4.09,0,0,1-.63-2.29A4.19,4.19,0,0,1,26.26,30a5,5,0,0,1,3.43-1.22,5.89,5.89,0,0,1,3.64,1.27V29h2v4.94h-2V32.78a4,4,0,0,0-3.46-1.88,3,3,0,0,0-2.05.61,1.92,1.92,0,0,0-.35,2.63,2.19,2.19,0,0,0,.92.73,18.16,18.16,0,0,0,2.22.66,17.77,17.77,0,0,1,3.13,1,4.32,4.32,0,0,1,1.67,1.63,4.83,4.83,0,0,1,.7,2.61,4.51,4.51,0,0,1-1.47,3.45A5.18,5.18,0,0,1,31,45.62,5.82,5.82,0,0,1,27,44v1.35Z"/><path class="cls-1" d="M42.69,43.32V31.1H39.33v4.16h-2v-6.2H50.52v6.2h-2V31.1H45.15V43.32h2.12v2H40.61v-2Z"/><path class="cls-1" d="M52.27,37.13a8.21,8.21,0,0,1,2.32-5.94,8.08,8.08,0,0,1,6-2.39,8.27,8.27,0,0,1,6.13,2.39,8.16,8.16,0,0,1,2.37,6,8.18,8.18,0,0,1-2.41,6,8.35,8.35,0,0,1-6.12,2.39,8.72,8.72,0,0,1-4.36-1.13,7.27,7.27,0,0,1-3-3.16A9.43,9.43,0,0,1,52.27,37.13Zm2.69,0a6.62,6.62,0,0,0,1.57,4.5,5.18,5.18,0,0,0,4.12,1.82,5.27,5.27,0,0,0,4.16-1.86,6.47,6.47,0,0,0,1.63-4.43,6.23,6.23,0,0,0-1.66-4.4A5.41,5.41,0,0,0,60.62,31a5.21,5.21,0,0,0-4.08,1.77A6.34,6.34,0,0,0,55,37.14Z"/><path class="cls-1" d="M72.7,43.32V31.1H70.46v-2h6.62a13.62,13.62,0,0,1,3.29.32,3.67,3.67,0,0,1,2,1.36,4.11,4.11,0,0,1,.79,2.58c0,2.16-1.12,3.51-3.36,4.07l2.88,5.93h2v2H81.16l-3.71-7.62H75.16v5.58h2.08v2H70.46v-2Zm2.46-7.62h1.92a8.61,8.61,0,0,0,2.06-.18,2,2,0,0,0,1.08-.74,2.42,2.42,0,0,0,.42-1.49,2.12,2.12,0,0,0-.43-1.35,1.81,1.81,0,0,0-1-.7,9.88,9.88,0,0,0-1.92-.14H75.16Z"/><path class="cls-1" d="M97.22,39.63H91.35L90.1,43.32h2v2H85.66v-2h2L92.08,30.9h-2V29.06h8.34V30.9h-2L101,43.32h1.82v2H96.41v-2h2Zm-.61-1.91L94.44,30.9h-.22L92,37.72Z"/><path class="cls-1" d="M114.36,37.5h5.93c0,.21,0,.39,0,.56a7.07,7.07,0,0,1-2.25,5.49,8.43,8.43,0,0,1-5.94,2.07c-2.94,0-5.14-.84-6.58-2.52a8.78,8.78,0,0,1-2.17-5.94,8.45,8.45,0,0,1,2.21-6,7.81,7.81,0,0,1,6-2.38,8.22,8.22,0,0,1,5.71,2.07V29.06h2.08v5.35H117.3A6.14,6.14,0,0,0,111.81,31a5.27,5.27,0,0,0-4.22,1.8A6.48,6.48,0,0,0,106,37.12a6.13,6.13,0,0,0,1.77,4.63,6.11,6.11,0,0,0,7.71.63,4.1,4.1,0,0,0,1.78-2.85h-2.94Z"/><path class="cls-1" d="M124.11,43.32V31.1H122v-2h13.55V34h-2V31.1h-7V36h6.06v2h-6.06v5.33h7v-3h2v5H122v-2Z"/><path class="cls-1" d="M147.14,31.1v8.15a11.91,11.91,0,0,0,.19,2.63,2.15,2.15,0,0,0,1,1.23,3.54,3.54,0,0,0,2,.51,4.52,4.52,0,0,0,2.23-.44,2.13,2.13,0,0,0,1-1.18,9.27,9.27,0,0,0,.25-2.63V31.1h-1.88v-2h6.37v2h-2v8.52a16.24,16.24,0,0,1-.14,2.5,4,4,0,0,1-.79,1.63,4.52,4.52,0,0,1-1.82,1.36,7.12,7.12,0,0,1-2.85.51,8.55,8.55,0,0,1-3.08-.48,4.12,4.12,0,0,1-1.85-1.27,4.28,4.28,0,0,1-.83-1.7,14.38,14.38,0,0,1-.2-2.8V31.1h-2v-2h6.41v2Z"/><path class="cls-1" d="M161.92,43.32V31.1h-2.33v-2h5.57l7.15,12.67V31.1H170v-2h6.69v2h-2.4V45.52h-2.53l-7.82-13.91V43.32h2.33v2h-6.68v-2Z"/><path class="cls-1" d="M180,43.32V31.1h-1.76v-2h6v2h-1.76V43.32h1.76v2h-6v-2Z"/><path class="cls-1" d="M191.16,43.32V31.1h-3.37v4.16h-2v-6.2H199v6.2h-2V31.1h-3.35V43.32h2.12v2h-6.67v-2Z"/></g></g></svg>