<svg xmlns="http://www.w3.org/2000/svg" viewBox="0 0 300 250"><defs><style>.cls-1{fill:#fff;}</style></defs><g id="Layer_2" data-name="Layer 2"><path class="cls-1" d="M23.46,57.37h7.13c3.45,0,5.63,2.18,5.63,5.4a5.09,5.09,0,0,1-1.38,3.75,4.06,4.06,0,0,1-1.38,1l3.34,6H33l-2.87-5.29H26.91v5.29H23.46Zm7,7.59a2.19,2.19,0,1,0,0-4.37H26.91V65Z"/><path class="cls-1" d="M49,71.86a6.34,6.34,0,0,1-1.24.92,7.32,7.32,0,0,1-3.59.92A5.87,5.87,0,1,1,44,62a5.64,5.64,0,0,1,5.64,5.63,9.65,9.65,0,0,1-.07,1l0,.39H41.4a2.9,2.9,0,0,0,3,2,4,4,0,0,0,2.23-.62,3,3,0,0,0,.76-.65Zm-2.53-5.18a2.62,2.62,0,0,0-5.06,0Z"/><path class="cls-1" d="M52.67,69.67a3.67,3.67,0,0,0,.81.65,4,4,0,0,0,2.18.62c1,0,1.38-.35,1.38-.81,0-1.26-5.75-1-5.75-4.71,0-1.84,1.61-3.45,4.48-3.45a6.39,6.39,0,0,1,3.27.87,5.9,5.9,0,0,1,1.1.85l-1.84,2a3.83,3.83,0,0,0-.66-.46,3.75,3.75,0,0,0-1.87-.46c-.8,0-1.15.34-1.15.69,0,1.26,5.75,1,5.75,4.71,0,1.93-1.61,3.57-4.71,3.57a6.59,6.59,0,0,1-3.59-1,5.71,5.71,0,0,1-1.24-1Z"/><path class="cls-1" d="M63.37,65.3h-2V62.43h1c.85,0,1.26-.46,1.26-1.38V59h2.76v3.45H69V65.3H66.47v3.8A1.42,1.42,0,0,0,68,70.71a3.32,3.32,0,0,0,.9-.12,2,2,0,0,0,.37-.11v2.87l-.6.19a6.52,6.52,0,0,1-1.47.16c-2.3,0-3.79-1.47-3.79-4.14Z"/><path class="cls-1" d="M77.74,72.09h-.12a4.61,4.61,0,0,1-.85.8,4,4,0,0,1-2.48.81,3.21,3.21,0,0,1-3.45-3.22,3.64,3.64,0,0,1,3.33-3.61l3.57-.65a1.81,1.81,0,0,0-2-1.49,3,3,0,0,0-1.86.64,4,4,0,0,0-.67.62l-1.83-1.84a6.1,6.1,0,0,1,1.17-1.08A5.93,5.93,0,0,1,76,62a4.52,4.52,0,0,1,4.83,4.48v7h-3.1Zm0-3.68-2.53.46c-.81.16-1.27.57-1.27,1.15s.46,1.15,1.38,1.15a2.39,2.39,0,0,0,2.42-2.53Z"/><path class="cls-1" d="M83.83,62.2h3.11v6.32A2,2,0,0,0,89,70.71a2.39,2.39,0,0,0,2.41-2.53v-6h3.11V73.47H91.42V71.86h-.11a5.69,5.69,0,0,1-.85.92A3.9,3.9,0,0,1,88,73.7c-2.3,0-4.14-1.84-4.14-4.72Z"/><path class="cls-1" d="M97.52,62.2h3.1v1.61h.12a5.31,5.31,0,0,1,.85-.92,3.83,3.83,0,0,1,2.48-.92h.23V65.3l-.25,0a4.53,4.53,0,0,0-.78-.07,2.7,2.7,0,0,0-2.65,3v5.29h-3.1Z"/><path class="cls-1" d="M112.58,72.09h-.11a5,5,0,0,1-.85.8,4,4,0,0,1-2.49.81,3.21,3.21,0,0,1-3.45-3.22A3.65,3.65,0,0,1,109,66.87l3.56-.65a1.8,1.8,0,0,0-2-1.49,3,3,0,0,0-1.86.64,3.33,3.33,0,0,0-.67.62l-1.84-1.84a6.1,6.1,0,0,1,1.17-1.08,6,6,0,0,1,3.43-1.1,4.53,4.53,0,0,1,4.83,4.48v7h-3.11Zm0-3.68-2.53.46c-.8.16-1.26.57-1.26,1.15s.46,1.15,1.38,1.15a2.39,2.39,0,0,0,2.41-2.53Z"/><path class="cls-1" d="M118.68,62.2h3.1v1.61h.12a5.31,5.31,0,0,1,.85-.92,3.83,3.83,0,0,1,2.48-.92c2.3,0,4.14,1.84,4.14,4.71v6.79h-3.1V67.14A2,2,0,0,0,124.2,65a2.39,2.39,0,0,0-2.42,2.53v6h-3.1Z"/><path class="cls-1" d="M133.05,65.3h-2V62.43h1c.86,0,1.27-.46,1.27-1.38V59h2.76v3.45h2.53V65.3h-2.53v3.8a1.42,1.42,0,0,0,1.49,1.61,3.32,3.32,0,0,0,.9-.12,2,2,0,0,0,.37-.11v2.87l-.6.19a6.52,6.52,0,0,1-1.47.16c-2.3,0-3.8-1.47-3.8-4.14Z"/><path class="cls-1" d="M142,69.67a3.67,3.67,0,0,0,.81.65,4,4,0,0,0,2.18.62c1,0,1.38-.35,1.38-.81,0-1.26-5.75-1-5.75-4.71,0-1.84,1.61-3.45,4.49-3.45a6.32,6.32,0,0,1,3.26.87,6,6,0,0,1,1.11.85l-1.84,2a4.37,4.37,0,0,0-.67-.46,3.73,3.73,0,0,0-1.86-.46c-.81,0-1.15.34-1.15.69,0,1.26,5.75,1,5.75,4.71,0,1.93-1.61,3.57-4.72,3.57a6.53,6.53,0,0,1-3.58-1,5.54,5.54,0,0,1-1.25-1Z"/><path class="cls-1" d="M163,72.09h-.11a5,5,0,0,1-.85.8,4,4,0,0,1-2.49.81,3.21,3.21,0,0,1-3.45-3.22,3.65,3.65,0,0,1,3.34-3.61l3.56-.65A1.8,1.8,0,0,0,161,64.73a3,3,0,0,0-1.87.64,3.56,3.56,0,0,0-.66.62l-1.84-1.84a6.1,6.1,0,0,1,1.17-1.08,6,6,0,0,1,3.43-1.1,4.53,4.53,0,0,1,4.83,4.48v7H163Zm0-3.68-2.53.46c-.8.16-1.26.57-1.26,1.15s.46,1.15,1.38,1.15A2.39,2.39,0,0,0,163,68.64Z"/><path class="cls-1" d="M169.05,62.2h3.1v1.61h.12a5.31,5.31,0,0,1,.85-.92A3.83,3.83,0,0,1,175.6,62c2.3,0,4.14,1.84,4.14,4.71v6.79h-3.1V67.14A2,2,0,0,0,174.57,65a2.39,2.39,0,0,0-2.42,2.53v6h-3.1Z"/><path class="cls-1" d="M190.78,71.86h-.11a4.24,4.24,0,0,1-.88.92,4.4,4.4,0,0,1-2.69.92c-2.67,0-5.06-2.42-5.06-5.87S184.43,62,187.1,62a4.4,4.4,0,0,1,2.69.92,4,4,0,0,1,.88.92h.11V57.37h3.11v16.1h-3.11Zm.12-4a2.88,2.88,0,1,0-2.88,3A2.88,2.88,0,0,0,190.9,67.83Z"/><path class="cls-1" d="M22.89,88.2H26v1.61h.11a4.1,4.1,0,0,1,.74-.92A3.47,3.47,0,0,1,29.21,88a3.79,3.79,0,0,1,3.33,2h.12a4.07,4.07,0,0,1,.94-1,4.4,4.4,0,0,1,2.74-1c2.21,0,3.91,1.72,3.91,4.48v7H37.14V92.91a1.7,1.7,0,0,0-1.84-2,2.13,2.13,0,0,0-2.18,2.3v6.21H30V92.91a1.7,1.7,0,0,0-1.84-2A2.13,2.13,0,0,0,26,93.26v6.21h-3.1Z"/><path class="cls-1" d="M48.53,88a5.87,5.87,0,1,1-6,5.86A5.91,5.91,0,0,1,48.53,88Zm2.87,5.86a2.87,2.87,0,1,0-2.87,3A2.87,2.87,0,0,0,51.4,93.83Z"/><path class="cls-1" d="M56.81,88.2h3.11v1.61H60a5.31,5.31,0,0,1,.85-.92A3.83,3.83,0,0,1,63.36,88h.23V91.3l-.25,0a4.53,4.53,0,0,0-.78-.07,2.7,2.7,0,0,0-2.64,3v5.29H56.81Z"/><path class="cls-1" d="M75.44,97.86a6.34,6.34,0,0,1-1.24.92,7.32,7.32,0,0,1-3.59.92A5.87,5.87,0,1,1,70.49,88a5.64,5.64,0,0,1,5.64,5.63,9.65,9.65,0,0,1-.07,1L76,95H67.85a2.89,2.89,0,0,0,3,2,4,4,0,0,0,2.23-.62,3,3,0,0,0,.76-.65Zm-2.53-5.18a2.62,2.62,0,0,0-5.06,0Z"/><path class="cls-1" d="M79,96l2.65,1.49-3.22,4.95-1.84-1Z"/><path class="cls-1" d="M96.83,97.86h-.12a4.31,4.31,0,0,1-3.56,1.84c-2.67,0-5.06-2.42-5.06-5.87S90.48,88,93.15,88a4.42,4.42,0,0,1,2.69.92,4.2,4.2,0,0,1,.87.92h.12V83.37h3.1v16.1h-3.1Zm.11-4a2.88,2.88,0,1,0-2.87,3A2.87,2.87,0,0,0,96.94,93.83Z"/><path class="cls-1" d="M113.16,97.86a6.34,6.34,0,0,1-1.24.92,7.32,7.32,0,0,1-3.59.92A5.87,5.87,0,1,1,108.21,88a5.64,5.64,0,0,1,5.64,5.63,9.65,9.65,0,0,1-.07,1l0,.39h-8.16a2.89,2.89,0,0,0,3,2,4,4,0,0,0,2.23-.62,3,3,0,0,0,.76-.65Zm-2.53-5.18a2.62,2.62,0,0,0-5.06,0Z"/><path class="cls-1" d="M116.26,83.37h3.11v16.1h-3.11Z"/><path class="cls-1" d="M124,83.26A1.76,1.76,0,0,1,125.81,85,1.78,1.78,0,0,1,124,86.7,1.76,1.76,0,0,1,122.24,85,1.78,1.78,0,0,1,124,83.26Zm-1.57,4.94h3.11V99.47h-3.11Z"/><path class="cls-1" d="M127,88.2h3.33l2.6,7.59H133l2.6-7.59h3.34l-4.26,11.27h-3.45Z"/><path class="cls-1" d="M150.42,97.86a6.13,6.13,0,0,1-1.25.92,7.25,7.25,0,0,1-3.58.92A5.87,5.87,0,1,1,145.47,88a5.64,5.64,0,0,1,5.64,5.63,9.65,9.65,0,0,1-.07,1l0,.39h-8.16a2.89,2.89,0,0,0,3,2,4,4,0,0,0,2.23-.62,3,3,0,0,0,.76-.65Zm-2.53-5.18a2.62,2.62,0,0,0-5.06,0Z"/><path class="cls-1" d="M153.41,88.2h3.1v1.61h.12a5.31,5.31,0,0,1,.85-.92A3.83,3.83,0,0,1,160,88h.23V91.3l-.25,0a4.53,4.53,0,0,0-.78-.07,2.7,2.7,0,0,0-2.65,3v5.29h-3.1Z"/><path class="cls-1" d="M172,97.86a6.13,6.13,0,0,1-1.25.92,7.25,7.25,0,0,1-3.58.92A5.87,5.87,0,1,1,167.09,88a5.64,5.64,0,0,1,5.64,5.63,9.65,9.65,0,0,1-.07,1l0,.39h-8.16a2.89,2.89,0,0,0,3,2,4,4,0,0,0,2.23-.62,3,3,0,0,0,.76-.65Zm-2.53-5.18a2.62,2.62,0,0,0-5.06,0Z"/><path class="cls-1" d="M183.08,97.86H183a4.31,4.31,0,0,1-3.56,1.84c-2.67,0-5.06-2.42-5.06-5.87S176.73,88,179.4,88a4.42,4.42,0,0,1,2.69.92,4.2,4.2,0,0,1,.87.92h.12V83.37h3.1v16.1h-3.1Zm.11-4a2.88,2.88,0,1,0-2.87,3A2.87,2.87,0,0,0,183.19,93.83Z"/><path class="cls-1" d="M23.81,117.3h-2v-2.87h1c.85,0,1.26-.46,1.26-1.38V111h2.76v3.45h2.53v2.87H26.91v3.8a1.42,1.42,0,0,0,1.49,1.61,3.32,3.32,0,0,0,.9-.12,2,2,0,0,0,.37-.11v2.87c-.18.07-.39.12-.6.19a6.52,6.52,0,0,1-1.47.16c-2.3,0-3.79-1.47-3.79-4.14Z"/><path class="cls-1" d="M37.14,114a5.87,5.87,0,1,1-6,5.86A5.91,5.91,0,0,1,37.14,114ZM40,119.83a2.88,2.88,0,1,0-2.88,3A2.88,2.88,0,0,0,40,119.83Z"/><path class="cls-1" d="M49.11,127.08a1.89,1.89,0,0,0,.36.11,3.44,3.44,0,0,0,.9.12,2,2,0,0,0,2-1.38l.23-.58L48.19,114.2h3.33l2.64,7.47h.12l2.53-7.47h3.33l-4.6,12.19c-.94,2.55-2.27,3.91-4.36,3.91a6,6,0,0,1-1.48-.17c-.2-.06-.41-.11-.59-.18Z"/><path class="cls-1" d="M66.81,114a5.87,5.87,0,1,1-6,5.86A5.91,5.91,0,0,1,66.81,114Zm2.88,5.86a2.88,2.88,0,1,0-2.88,3A2.88,2.88,0,0,0,69.69,119.83Z"/><path class="cls-1" d="M75.1,114.2h3.1v6.32a2,2,0,0,0,2.07,2.19,2.39,2.39,0,0,0,2.41-2.53v-6h3.11v11.27H82.68v-1.61h-.11a5.69,5.69,0,0,1-.85.92,3.9,3.9,0,0,1-2.49.92c-2.29,0-4.13-1.84-4.13-4.72Z"/><path class="cls-1" d="M88.78,114.2h3.1v1.61H92a5.31,5.31,0,0,1,.85-.92,3.83,3.83,0,0,1,2.48-.92h.23v3.33l-.25,0a4.53,4.53,0,0,0-.78-.07,2.7,2.7,0,0,0-2.65,3v5.29h-3.1Z"/><path class="cls-1" d="M109.94,123.86h-.12a4.31,4.31,0,0,1-3.56,1.84c-2.67,0-5.06-2.42-5.06-5.87s2.39-5.86,5.06-5.86a4.42,4.42,0,0,1,2.69.92,4.2,4.2,0,0,1,.87.92h.12v-6.44H113v16.1h-3.1Zm.11-4a2.88,2.88,0,1,0-2.87,3A2.87,2.87,0,0,0,110.05,119.83Z"/><path class="cls-1" d="M121.44,114a5.87,5.87,0,1,1-6,5.86A5.91,5.91,0,0,1,121.44,114Zm2.87,5.86a2.88,2.88,0,1,0-2.87,3A2.87,2.87,0,0,0,124.31,119.83Z"/><path class="cls-1" d="M135,114a5.87,5.87,0,1,1-6,5.86A5.91,5.91,0,0,1,135,114Zm2.87,5.86a2.88,2.88,0,1,0-2.87,3A2.87,2.87,0,0,0,137.88,119.83Z"/><path class="cls-1" d="M143.29,114.2h3.1v1.61h.12a5.31,5.31,0,0,1,.85-.92,3.83,3.83,0,0,1,2.48-.92h.23v3.33l-.25,0a4.53,4.53,0,0,0-.78-.07,2.7,2.7,0,0,0-2.65,3v5.29h-3.1Z"/></g></svg>