<svg viewBox="0 0 60.56 19" xmlns="http://www.w3.org/2000/svg"><path d="m60.56 9.5a9.5 9.5 0 0 0 -8.74-9.5h-42.32a9.5 9.5 0 0 0 0 19h42.32a9.5 9.5 0 0 0 8.74-9.5z" fill="#3ab9e0"/><g fill="#fff"><path d="m13.56 8a1.43 1.43 0 0 0 -1.46 1.5 1.41 1.41 0 0 0 1.44 1.5 1.27 1.27 0 0 0 1.3-.82l.81.31a2.21 2.21 0 0 1 -2.12 1.33 2.25 2.25 0 0 1 -2.3-2.33 2.26 2.26 0 0 1 2.33-2.32 2.19 2.19 0 0 1 2.06 1.28l-.81.31a1.29 1.29 0 0 0 -1.25-.76z"/><path d="m19.47 11v.81h-2.95v-4.56h.87v3.75z"/><path d="m23.22 10.79h-2l-.38 1h-.93l1.83-4.51h1l1.84 4.51h-.95zm-.29-.79-.68-1.75-.06-.21-.05.21-.68 1.75z"/><path d="m25.24 7.25h.88v4.51h-.88z"/><path d="m27.29 7.25h.71l1.73 2.51 1.74-2.51h.72v4.51h-.84v-3l-1.45 2.14h-.32l-1.44-2.1v3h-.85z"/><path d="m39.15 9.5a2.27 2.27 0 0 1 -2.44 2.26h-1.63v-4.51h1.64a2.26 2.26 0 0 1 2.43 2.25zm-.88 0a1.41 1.41 0 0 0 -1.55-1.45h-.78v2.95h.77a1.43 1.43 0 0 0 1.56-1.5z"/><path d="m43.19 11v.77h-3.1v-4.52h3.07v.75h-2.22v1.12h2.06v.73h-2.1v1.15z"/><path d="m47.05 10.79h-2.05l-.38 1h-.92l1.83-4.51h1l1.83 4.51h-.94zm-.29-.79-.68-1.75-.08-.18v.21l-.7 1.72z"/><path d="m52 11v.81h-2.92v-4.56h.92v3.75z"/></g></svg>