<?xml version="1.0" encoding="utf-8"?>
<!-- Generator: Adobe Illustrator 23.0.4, SVG Export Plug-In . SVG Version: 6.00 Build 0)  -->
<svg version="1.1" id="Layer_1" xmlns="http://www.w3.org/2000/svg" xmlns:xlink="http://www.w3.org/1999/xlink" x="0px" y="0px"
	 viewBox="0 0 320 100" style="enable-background:new 0 0 320 100;" xml:space="preserve">
<style type="text/css">
	.st0{fill:#FFFFFF;}
</style>
<path class="st0" d="M110.9,52.1h-2.5l-0.5,1.2h-1.1l2.2-5.5h1.2l2.2,5.5h-1.2L110.9,52.1z M110.6,51.2l-0.8-2.1l-0.1-0.3l-0.1,0.3
	l-0.8,2.1H110.6z"/>
<path class="st0" d="M114.5,47.8h0.9l2.9,3.8v-3.8h1v5.5h-0.9l-2.9-3.8v3.8h-1V47.8z"/>
<path class="st0" d="M127.1,50.6c0,1.6-1.3,2.8-3,2.8h-2v-5.5h2C125.9,47.8,127.1,49,127.1,50.6z M126,50.6c0-1.1-0.8-1.8-1.9-1.8
	h-1v3.5h0.9C125.3,52.3,126,51.6,126,50.6z"/>
<path class="st0" d="M137.2,51.8c0,1-0.8,1.6-1.9,1.6H133v-5.5h2.2c1.2,0,1.9,0.6,1.9,1.5c0,0.6-0.3,1-0.8,1.2
	C136.8,50.6,137.2,51.1,137.2,51.8L137.2,51.8z M134,48.7v1.4h1.1c0.6,0,0.9-0.3,0.9-0.7s-0.3-0.7-0.9-0.7H134z M136.1,51.7
	c0-0.5-0.4-0.7-1-0.7H134v1.4h1.2C135.8,52.4,136.1,52.1,136.1,51.7L136.1,51.7z"/>
<path class="st0" d="M143.2,52.4v0.9h-3.8v-5.5h3.8v0.9h-2.7v1.4h2.6V51h-2.6v1.4L143.2,52.4z"/>
<path class="st0" d="M150.4,51.5h-1v1.8h-1.1v-5.5h2.1c1.3,0,2.2,0.7,2.2,1.9c0,0.8-0.5,1.4-1.2,1.7l1.3,2h-1.3L150.4,51.5z
	 M149.4,50.5h1.1c0.7,0,1.1-0.3,1.1-0.9s-0.4-0.9-1.1-0.9h-1.1V50.5z"/>
<path class="st0" d="M158.6,52.4v0.9h-3.8v-5.5h3.8v0.9h-2.7v1.4h2.6V51h-2.6v1.4L158.6,52.4z"/>
<path class="st0" d="M160.5,47.8h1.1l1.2,4v0.3l0.1-0.3l1.1-4h1l1.1,4v0.3v-0.3l1.2-4h1.1l-1.7,5.5h-1.1l-1.1-4.1v-0.3v0.3l-1.1,4.1
	h-1.1L160.5,47.8z"/>
<path class="st0" d="M173.2,52.1h-2.5l-0.5,1.2h-1.1l2.2-5.5h1.2l2.2,5.5h-1.2L173.2,52.1z M172.8,51.2l-0.8-2.1l-0.1-0.3l-0.1,0.3
	l-0.8,2.1H172.8z"/>
<path class="st0" d="M178.9,51.5h-1v1.8h-1.1v-5.5h2.1c1.3,0,2.2,0.7,2.2,1.9c0,0.8-0.5,1.4-1.2,1.7l1.3,2H180L178.9,51.5z
	 M177.9,50.5h1.1c0.7,0,1.1-0.3,1.1-0.9s-0.4-0.9-1.1-0.9h-1.1V50.5z"/>
<path class="st0" d="M188.3,50.6c0,1.6-1.3,2.8-3,2.8h-2v-5.5h2C187,47.8,188.3,49,188.3,50.6z M187.2,50.6c0-1.1-0.8-1.8-1.9-1.8
	h-1v3.5h0.9C186.4,52.3,187.2,51.6,187.2,50.6z"/>
<path class="st0" d="M194.4,52.4v0.9h-3.8v-5.5h3.8v0.9h-2.7v1.4h2.6V51h-2.6v1.4L194.4,52.4z"/>
<path class="st0" d="M201.7,50.6c0,1.6-1.3,2.8-3,2.8h-2v-5.5h2C200.5,47.8,201.7,49,201.7,50.6z M200.7,50.6c0-1.1-0.8-1.8-1.9-1.8
	h-1v3.5h0.9C199.9,52.3,200.7,51.6,200.7,50.6z"/>
<path class="st0" d="M240.3,44.9h1.4v6.9h-1.4V44.9z"/>
<path class="st0" d="M247.6,51.9c-2,0-3.7-1.4-3.7-3.6s1.7-3.6,3.7-3.6c0.9,0,1.8,0.3,2.4,0.7v1.3c-0.5-0.5-1.3-0.8-2.2-0.8
	c-1.4,0-2.4,0.9-2.4,2.5c0,1.5,1,2.5,2.4,2.5c0.9,0,1.7-0.4,2.2-0.8v1.3C249.4,51.7,248.5,51.9,247.6,51.9"/>
<path class="st0" d="M255.3,46v5.8h-1.4V46h-2.3v-1.1h6V46H255.3z"/>
<path class="st0" d="M262.6,45.8c-1.4,0-2.3,1-2.3,2.5s0.9,2.5,2.3,2.5c1.3,0,2.2-1,2.2-2.5C264.8,46.9,263.9,45.8,262.6,45.8
	 M262.6,52c-2.1,0-3.7-1.5-3.7-3.6s1.6-3.6,3.7-3.6s3.7,1.5,3.7,3.6S264.7,52,262.6,52"/>
<path class="st0" d="M269.9,48.1h1.1c0.9,0,1.2-0.5,1.2-1.1s-0.3-1.1-1.2-1.1h-1.1V48.1z M273.4,51.9c-0.8,0-1.5-0.4-2-1.3l-0.7-1.5
	h-0.8v2.7h-1.4v-6.9h2.7c1.6,0,2.3,1,2.3,2.1c0,1-0.5,1.7-1.5,1.9l0.7,1.2c0.3,0.6,0.7,0.8,1.1,0.8c0.1,0,0.3,0,0.4-0.1v0.9
	C273.9,51.8,273.6,51.9,273.4,51.9"/>
<path class="st0" d="M276.6,44.9h1.4v6.9h-1.4V44.9z"/>
<path class="st0" d="M227.6,44.7c-0.4,0.1-0.9,0.1-1.2,0s-0.6-0.4-0.7-0.8c-0.1-0.3-0.1-0.8,0.1-1c0.2-0.3,0.4-0.4,0.8-0.4
	c0.3,0,0.7,0.2,1.1,0.5s0.7,0.6,1,1c0.1,0.1,0.2,0.2,0.2,0.3C228.4,44.4,228,44.6,227.6,44.7 M257.2,39.5c-4-1.1-8.2-1.3-12.3-0.7
	s-8,1.9-11.8,3.5c-1,0.4-1.9,0.8-2.8,1.2c-0.1,0.1-0.3,0.1-0.4,0.2c-0.1-0.2-0.3-0.3-0.4-0.5c-0.4-0.4-0.7-0.8-1.2-1.1
	s-1-0.6-1.7-0.7c-0.3,0-0.7,0-1,0.2s-0.6,0.4-0.7,0.7c-0.3,0.6-0.3,1.3-0.1,1.9s0.7,1.1,1.3,1.4c0.6,0.2,1.3,0.2,1.8,0.1
	c0.6-0.2,1.1-0.4,1.6-0.7c0.3,0.4,0.6,0.9,0.9,1.4l3.2,5.2c0.1,0.1,0.1,0.2,0.2,0.2c0.3,0.2,0.7,0.1,0.9-0.2l3.9-6.6
	c0,0,0-0.1,0.1-0.1h-1.4l-3.1,5.2l-2.7-4.3c-0.3-0.4-0.5-0.9-0.8-1.3c0.1,0,0.2-0.1,0.3-0.1c0.9-0.4,1.8-0.9,2.8-1.3
	c3.7-1.6,7.6-3,11.6-3.6c4-0.7,8.1-0.5,12,0.5c0.1,0,0.3,0,0.3-0.2C257.4,39.6,257.3,39.5,257.2,39.5"/>
<path class="st0" d="M292.9,53.6c-0.1,0.4-0.4,0.6-0.7,0.6s-0.7-0.1-1.1-0.4s-0.7-0.6-1.1-0.9c-0.1-0.1-0.3-0.3-0.4-0.5
	c0.3-0.1,0.6-0.3,0.9-0.4c0.5-0.2,0.9-0.2,1.3-0.2c0.4,0.1,0.7,0.3,0.9,0.6C292.9,52.9,293,53.3,292.9,53.6 M293.6,52
	c-0.4-0.6-1-1-1.6-1.1c-0.7-0.1-1.3,0.1-1.8,0.2c-0.4,0.1-0.8,0.3-1.1,0.5c-0.3-0.4-0.5-0.8-0.8-1.2L285,45
	c-0.1-0.1-0.1-0.2-0.2-0.2c-0.3-0.2-0.7-0.1-0.9,0.2l-3.9,6.6c0,0,0,0.1-0.1,0.1h1.4l3.1-5.2l2.8,4.4c0.2,0.4,0.5,0.8,0.8,1.2
	c-0.2,0.1-0.5,0.3-0.7,0.4c-0.9,0.5-1.9,0.9-2.8,1.4c-3.7,2-7.3,4.2-11.2,5.5s-8.1,1.7-12.3,1.4c-0.1,0-0.3,0.1-0.3,0.2
	s0.1,0.3,0.2,0.3c4.2,0.3,8.5,0,12.6-1.3c4.1-1.2,7.7-3.4,11.4-5.3c0.9-0.5,1.9-0.9,2.8-1.4c0.3-0.1,0.6-0.3,0.9-0.4
	c0.2,0.2,0.4,0.5,0.6,0.7c0.4,0.4,0.8,0.8,1.3,1.1s1.1,0.6,1.8,0.5c0.4,0,0.7-0.2,1-0.5s0.5-0.6,0.5-0.9
	C294.1,53.3,294,52.6,293.6,52"/>
<path class="st0" d="M253.3,55.9H253v0.6h0.3c0.2,0,0.3-0.1,0.3-0.3S253.5,55.9,253.3,55.9 M253,55.6h0.3c0.2,0,0.3-0.1,0.3-0.3
	c0-0.1-0.1-0.3-0.3-0.3H253V55.6z M253.4,56.8h-0.8v-1.9h0.8c0.4,0,0.6,0.2,0.6,0.5c0,0.1-0.1,0.3-0.2,0.4c0.2,0.1,0.3,0.3,0.3,0.5
	C254,56.5,253.8,56.8,253.4,56.8"/>
<path class="st0" d="M255.7,56.8c-0.6,0-1-0.4-1-1s0.5-1,1-1c0.3,0,0.5,0.1,0.7,0.2v0.4c-0.2-0.1-0.4-0.2-0.6-0.2
	c-0.4,0-0.7,0.3-0.7,0.7s0.3,0.7,0.7,0.7c0.3,0,0.5-0.1,0.6-0.2v0.4C256.2,56.8,256,56.8,255.7,56.8"/>
<path class="st0" d="M257.2,57.2c0.1-0.2,0.1-0.3,0.1-0.4h-0.2v-0.4h0.4v0.3C257.6,57,257.4,57.2,257.2,57.2"/>
<path class="st0" d="M260.4,56.8c-0.6,0-1-0.4-1-1s0.5-1,1-1c0.3,0,0.5,0.1,0.7,0.2v0.4c-0.2-0.1-0.4-0.2-0.6-0.2
	c-0.4,0-0.7,0.3-0.7,0.7s0.3,0.7,0.7,0.7c0.3,0,0.5-0.1,0.6-0.2v0.4C260.9,56.8,260.6,56.8,260.4,56.8"/>
<path class="st0" d="M262.6,55.3l-0.3,0.7h0.6L262.6,55.3z M263.2,56.8l-0.2-0.5h-0.8l-0.2,0.5h-0.4l0.8-1.9h0.3l0.8,1.9H263.2z"/>
<path class="st0" d="M265.6,56.8l-1-1.3v1.3h-0.3v-1.9h0.2l1.1,1.2v-1.2h0.3v1.9H265.6z"/>
<path class="st0" d="M267.6,55.3l-0.3,0.7h0.6L267.6,55.3z M268.1,56.8l-0.2-0.5h-0.8l-0.2,0.5h-0.4l0.8-1.9h0.3l0.8,1.9H268.1z"/>
<path class="st0" d="M269.9,55.2h-0.3v1.3h0.3c0.5,0,0.7-0.3,0.7-0.7S270.4,55.2,269.9,55.2 M269.9,56.8h-0.7v-1.9h0.7
	c0.8,0,1.1,0.4,1.1,1S270.7,56.8,269.9,56.8"/>
<path class="st0" d="M272.4,55.3l-0.3,0.7h0.6L272.4,55.3z M273,56.8l-0.2-0.5H272l-0.2,0.5h-0.4l0.8-1.9h0.3l0.8,1.9H273z"/>
</svg>
