<svg enable-background="new 0 0 320 100" viewBox="0 0 320 100" xmlns="http://www.w3.org/2000/svg" xmlns:xlink="http://www.w3.org/1999/xlink"><clipPath id="a"><path d="m0 0h320v100h-320z"/></clipPath><g clip-path="url(#a)"><path d="m-8-2h149.5v106h-149.5z" fill="#3ab9e0"/><g fill="#fff"><g enable-background="new"><path d="m24.5 28.9v6.3h-1.6l-.2-1.4c-.8 1-2 1.6-3.6 1.6-3.1 0-5.5-2.3-5.5-5.6 0-3.2 2.4-5.6 5.7-5.6 2.4 0 4.1 1.1 5 3l-2.6 1c-.5-.9-1.3-1.4-2.4-1.4-1.7 0-2.9 1.2-2.9 3s1.2 3 2.9 3c1.3 0 2.2-.7 2.6-1.8h-2.8v-2.2h5.4z"/><path d="m33.9 32.8v2.4h-7.7v-10.9h7.6v2.4h-4.8v1.8h4.6v2.3h-4.6v1.9h4.9z"/><path d="m44 26.9h-3.4v8.3h-2.7v-8.3h-3.4v-2.6h9.5z"/><path d="m56.4 33.3h-4.3l-.7 2h-3l4.2-10.9h3.2l4.2 10.9h-3zm-.9-2.4-1.2-3.3-.1-.6-.1.6-1.2 3.3z"/></g><g enable-background="new"><path d="m17.9 51.8v1.4h-2v-1.5c-2.1-.5-2.6-2.6-2.6-2.6l2.3-.7s.2 1.2 1.3 1.2c.6 0 1-.3 1-.8s-.4-.8-1.1-1l-.9-.3c-1.6-.5-2.4-1.5-2.4-2.8 0-1.5.9-2.6 2.4-2.9v-1.4h2v1.5c2.1.5 2.5 2.3 2.5 2.3l-2.3.8s-.1-1-1.2-1c-.5 0-.9.3-.9.7 0 .5.4.7 1.2 1l1 .3c1.5.5 2.3 1.5 2.3 2.8.1 1.7-.9 2.7-2.6 3z"/><path d="m25.7 44.1h-4.4v-2.4h7.5v2c-1.9 2.9-3.2 5.8-3.9 8.6h-2.9c.8-2.8 2-5.5 3.7-8.2z"/><path d="m37 48.8c0 2.1-1.6 3.6-3.8 3.6-2 0-3.3-1-3.8-2.7l2.4-.7c.2.7.6 1.1 1.2 1.1.7 0 1.2-.5 1.2-1.2 0-.8-.4-1.3-1.1-1.3-.5 0-.8.2-1 .7l-2.4-.7.5-5.9h6.2v2.3h-4l-.2 1.9c.4-.3 1-.5 1.6-.5 1.9-.1 3.2 1.4 3.2 3.4z"/><path d="m42 49.4 2.4-.7s.2 1.4 1.5 1.4c.7 0 1.2-.4 1.2-1s-.4-.9-1.3-1.2l-1.1-.3c-1.8-.5-2.7-1.6-2.7-3.2 0-2 1.4-3.3 3.7-3.3 3.3 0 3.9 2.6 3.9 2.6l-2.4.9s-.2-1.2-1.4-1.2c-.6 0-1.1.3-1.1.9s.4.9 1.4 1.2l1.2.4c1.7.5 2.6 1.6 2.6 3.1 0 2.1-1.6 3.4-4 3.4-3.3 0-3.9-3-3.9-3z"/><path d="m59.9 45.3c0 2.4-1.7 4-4.4 4h-1.4v3h-2.7v-11h4.2c2.6 0 4.3 1.5 4.3 4zm-2.8 0c0-.9-.6-1.4-1.6-1.4h-1.4v2.8h1.4c1 0 1.6-.5 1.6-1.4z"/><path d="m66.9 50.3h-4.3l-.7 2h-3l4.2-10.9h3.2l4.2 10.9h-3zm-.8-2.4-1.2-3.3-.1-.6-.1.6-1.2 3.3z"/><path d="m81.1 43.7c-1.7 0-2.9 1.2-2.9 3s1.2 3 2.9 3c1.3 0 2.2-.6 2.7-1.8l2.6 1c-.8 2-2.7 3.3-5.2 3.3-3.2 0-5.7-2.3-5.7-5.6 0-3.2 2.4-5.6 5.7-5.6 2.5 0 4.2 1.3 5.1 3.3l-2.6 1c-.6-1-1.4-1.6-2.6-1.6z"/><path d="m91.6 49h-1.3v3.3h-2.7v-11h4.3c2.8 0 4.4 1.5 4.4 3.8 0 1.5-.8 2.7-2.1 3.3l2.3 3.8h-3.2zm-1.3-2.6h1.5c1 0 1.6-.5 1.6-1.3s-.6-1.3-1.6-1.3h-1.6v2.6z"/><path d="m105.2 49.8v2.4h-7.7v-10.9h7.6v2.4h-4.9v1.8h4.6v2.3h-4.6v1.9h5z"/><path d="m116.7 46.8c0 3.2-2.5 5.4-6 5.4h-4.1v-10.9h4.1c3.5 0 6 2.3 6 5.5zm-2.8 0c0-1.8-1.2-2.9-3.1-2.9h-1.4v5.7h1.3c1.9 0 3.2-1.1 3.2-2.8z"/><path d="m118.1 41.3h2.8v10.9h-2.8z"/><path d="m131.5 43.9h-3.4v8.3h-2.7v-8.3h-3.4v-2.6h9.6v2.6z"/></g><g enable-background="new"><path d="m22 68.7c0 2.1-1.6 3.6-3.9 3.6h-2.6v-7.3h2.6c2.3 0 3.9 1.6 3.9 3.7zm-1.4 0c0-1.4-1-2.3-2.5-2.3h-1.3v4.6h1.2c1.6 0 2.6-1 2.6-2.3z"/><path d="m28 70.2h-3.8c.1.7.5 1 1.3 1 .5 0 .9-.2 1.1-.6l1.2.5c-.5.8-1.3 1.2-2.3 1.2-1.5 0-2.6-1.1-2.6-2.6s1.1-2.6 2.7-2.6c1.5 0 2.5 1.1 2.5 2.6-.1.3-.1.5-.1.5zm-1.3-1c0-.5-.5-.9-1.2-.9s-1.1.3-1.3.9z"/><path d="m29 64.8h1.3v7.4h-1.3z"/><path d="m35.3 72.1s-.5.3-1.4.3c-1.3 0-1.9-.6-1.9-2v-2h-1v-1c.7-.1 1.1-.5 1.2-1.5h1v1.3h1.8v1.1h-1.7v1.9c0 .6.2.8.8.8.5 0 .8-.3.8-.3z"/><path d="m40.4 69.2v3.1h-1l-.2-.7c-.3.5-.9.8-1.7.8-1.2 0-1.8-.6-1.8-1.6s.7-1.5 1.9-1.5c.7 0 1.2.1 1.5.2v-.2c0-.6-.4-1-1-1-.8 0-1.4.4-1.4.4l-.7-.9s.8-.6 2.2-.6c1.3-.1 2.2.7 2.2 2zm-1.4 1.2v-.1c-.2-.1-.6-.2-1.1-.2-.7 0-1 .2-1 .6s.3.6.9.6c.7.1 1.2-.3 1.2-.9z"/><path d="m50.5 65v7.2h-1.4v-3h-3.5v3h-1.4v-7.2h1.4v3h3.5v-3z"/><path d="m51.6 69.8c0-1.5 1.2-2.6 2.7-2.6 1.6 0 2.7 1.1 2.7 2.6s-1.2 2.6-2.7 2.6c-1.6 0-2.7-1.1-2.7-2.6zm4.1 0c0-.8-.5-1.4-1.4-1.4-.8 0-1.4.6-1.4 1.4s.6 1.4 1.4 1.4 1.4-.6 1.4-1.4z"/><path d="m61.8 72.1s-.5.3-1.4.3c-1.3 0-1.9-.6-1.9-2v-2h-.9v-1c.7-.1 1.1-.5 1.2-1.5h1v1.3h1.7v1.1h-1.7v1.9c0 .6.2.8.8.8.5 0 .8-.3.8-.3z"/><path d="m67.1 70.2h-3.8c.1.7.5 1 1.3 1 .5 0 .9-.2 1.1-.6l1.2.5c-.5.8-1.3 1.2-2.3 1.2-1.5 0-2.6-1.1-2.6-2.6s1.1-2.6 2.7-2.6c1.5 0 2.5 1.1 2.5 2.6-.1.3-.1.5-.1.5zm-1.3-1c0-.5-.5-.9-1.2-.9s-1.1.3-1.3.9z"/><path d="m68.1 64.8h1.3v7.4h-1.3z"/><path d="m70.3 71.1 1.2-.3s.1.6.8.6c.4 0 .7-.2.7-.5s-.2-.5-.7-.6l-.5-.1c-.9-.2-1.4-.7-1.4-1.5 0-.9.7-1.5 1.9-1.5 1.6 0 1.9 1.1 1.9 1.1l-1.2.3s-.1-.5-.7-.5c-.4 0-.6.2-.6.5s.2.5.7.6l.5.1c.9.2 1.4.7 1.4 1.5 0 1-.8 1.6-2 1.6-1.7 0-2-1.3-2-1.3z"/><path d="m83.2 69.8c0 1.5-1 2.6-2.4 2.6-.8 0-1.3-.3-1.7-.8l-.2.7h-1v-7.4h1.3v3c.4-.4.9-.7 1.6-.7 1.4-.1 2.4 1 2.4 2.6zm-1.4 0c0-.8-.5-1.4-1.3-1.4s-1.4.6-1.4 1.4.5 1.4 1.3 1.4 1.4-.6 1.4-1.4z"/><path d="m83.4 74.3.4-1.1s.3.2.6.2.5-.1.6-.5l.3-.7-2.2-4.9h1.5l1.3 3.2.1.5.1-.5 1.3-3.2h1.6l-2.6 5.9c-.4 1-.9 1.4-1.9 1.4-.7 0-1.1-.3-1.1-.3z"/><path d="m92.5 65h1.1l2.8 4 2.8-4h1.1v7.2h-1.3v-4.8l-2.3 3.4h-.5l-2.3-3.4v4.8h-1.4z"/><path d="m106 69.2v3.1h-1l-.2-.7c-.3.5-.9.8-1.7.8-1.2 0-1.8-.6-1.8-1.6s.7-1.5 1.9-1.5c.7 0 1.2.1 1.5.2v-.2c0-.6-.4-1-1-1-.8 0-1.4.4-1.4.4l-.7-.9s.8-.6 2.2-.6c1.3-.1 2.2.7 2.2 2zm-1.3 1.2v-.1c-.2-.1-.6-.2-1.1-.2-.7 0-1 .2-1 .6s.3.6.9.6c.7.1 1.2-.3 1.2-.9z"/><path d="m107.2 67.3h1l.2.9c.2-.6.9-1 1.7-1h.3l-.1 1.3h-.2c-1.2 0-1.6.5-1.6 1.8v1.9h-1.3z"/><path d="m111.2 67.3h1l.2.9c.2-.6.9-1 1.7-1h.3l-.1 1.3h-.2c-1.2 0-1.6.5-1.6 1.8v1.9h-1.3z"/><path d="m115 65.7c0-.5.3-.8.8-.8s.8.3.8.8-.3.8-.8.8-.8-.4-.8-.8zm.2 1.6h1.3v5h-1.3z"/><path d="m117.5 69.8c0-1.5 1.2-2.6 2.7-2.6 1.6 0 2.7 1.1 2.7 2.6s-1.2 2.6-2.7 2.6c-1.6 0-2.7-1.1-2.7-2.6zm4.1 0c0-.8-.5-1.4-1.4-1.4-.8 0-1.4.6-1.4 1.4s.6 1.4 1.4 1.4 1.4-.6 1.4-1.4z"/><path d="m127.7 72.1s-.5.3-1.4.3c-1.3 0-1.9-.6-1.9-2v-2h-.9v-1c.8-.1 1.1-.5 1.2-1.5h1v1.3h1.7v1.1h-1.7v1.9c0 .6.2.8.8.8.5 0 .8-.3.8-.3z"/><path d="m131.8 72.1s-.5.3-1.4.3c-1.3 0-1.9-.6-1.9-2v-2h-.9v-1c.8-.1 1.1-.5 1.2-1.5h1v1.3h1.7v1.1h-1.7v1.9c0 .6.2.8.8.8.5 0 .8-.3.8-.3z"/></g><g enable-background="new"><path d="m14.7 78.2h.6l1.8 4.3.1.2.1-.2 1.8-4.3h.6l-2.2 5.1h-.6z"/><path d="m20.2 78.7c0-.2.2-.4.4-.4s.4.2.4.4-.2.4-.4.4c-.3 0-.4-.2-.4-.4zm.1 1.1h.5v3.5h-.5z"/><path d="m21.7 81.5c0-1 .8-1.8 1.8-1.8.7 0 1.2.3 1.5.9l-.5.2c-.2-.4-.6-.6-1-.6-.7 0-1.2.6-1.2 1.3 0 .8.5 1.3 1.2 1.3.5 0 .9-.2 1.1-.6l.5.2c-.3.6-.8.9-1.6.9-1 .1-1.8-.7-1.8-1.8z"/><path d="m28.1 83.1s-.3.2-.9.2c-.8 0-1.2-.4-1.2-1.3v-1.8h-.7v-.4c.6 0 .8-.3.8-1.1h.4v1h1.4v.5h-1.4v1.8c0 .6.2.8.7.8.4 0 .7-.2.7-.2z"/><path d="m28.4 81.5c0-1 .8-1.8 1.9-1.8s1.8.7 1.8 1.8c0 1-.8 1.8-1.8 1.8-1.2.1-1.9-.7-1.9-1.8zm3.1 0c0-.8-.5-1.3-1.3-1.3s-1.3.6-1.3 1.3c0 .8.5 1.3 1.3 1.3s1.3-.5 1.3-1.3z"/><path d="m32.9 79.8h.4l.1.7c.2-.5.7-.8 1.3-.8h.2v.6h-.1c-.9 0-1.3.5-1.3 1.5v1.5h-.5v-3.5z"/><path d="m35.4 78.7c0-.2.2-.4.4-.4s.4.2.4.4-.2.4-.4.4-.4-.2-.4-.4zm.2 1.1h.5v3.5h-.5z"/><path d="m40 81v2.3h-.4l-.1-.5c-.2.4-.6.6-1.2.6-.8 0-1.3-.4-1.3-1.1s.5-1.1 1.4-1.1c.6 0 1 .1 1.1.2v-.3c0-.5-.3-.9-.9-.9s-1.1.3-1.1.3l-.3-.4s.5-.4 1.4-.4 1.4.5 1.4 1.3zm-.5 1v-.2c-.2-.1-.5-.2-1-.2-.6 0-.9.2-.9.6s.3.6.9.6c.6.1 1-.3 1-.8z"/><path d="m42.7 80.7c0-1.5 1.1-2.6 2.6-2.6s2.6 1.1 2.6 2.6-1.1 2.6-2.6 2.6c-1.5.1-2.6-1-2.6-2.6zm4.6 0c0-1.2-.8-2.1-2-2.1s-2 .9-2 2.1.8 2.1 2 2.1 2-.9 2-2.1z"/><path d="m48.7 81.5c0-1 .8-1.8 1.8-1.8.7 0 1.2.3 1.5.9l-.5.2c-.2-.4-.6-.6-1-.6-.7 0-1.2.6-1.2 1.3 0 .8.5 1.3 1.2 1.3.5 0 .9-.2 1.1-.6l.5.2c-.3.6-.8.9-1.6.9-1 .1-1.8-.7-1.8-1.8z"/><path d="m56 81.7h-2.9c.1.7.5 1.1 1.2 1.1.5 0 .8-.2 1-.5l.5.2c-.3.6-.8.8-1.5.8-1 0-1.7-.8-1.7-1.8s.7-1.8 1.8-1.8c1 0 1.7.7 1.7 1.8-.1.1-.1.2-.1.2zm-.5-.4c0-.6-.5-1-1.1-1-.7 0-1.1.4-1.2 1z"/><path d="m59.6 81v2.3h-.4l-.1-.5c-.2.4-.6.6-1.2.6-.8 0-1.3-.4-1.3-1.1s.5-1.1 1.4-1.1c.6 0 1 .1 1.1.2v-.3c0-.5-.3-.9-.9-.9s-1.1.3-1.1.3l-.3-.4s.5-.4 1.4-.4c.8 0 1.4.5 1.4 1.3zm-.6 1v-.2c-.2-.1-.5-.2-1-.2-.6 0-.9.2-.9.6s.3.6.9.6c.6.1 1-.3 1-.8z"/><path d="m60.7 79.8h.4l.1.6c.2-.4.7-.6 1.3-.6.9 0 1.4.6 1.4 1.5v2.1h-.5v-2c0-.7-.3-1-.9-1-.7 0-1.2.5-1.2 1.1v1.9h-.5v-3.6z"/><path d="m70.4 79.9c0 1-.7 1.7-1.9 1.7h-1.2v1.7h-.6v-5.1h1.8c1.2 0 1.9.7 1.9 1.7zm-.5 0c0-.7-.5-1.2-1.3-1.2h-1.2v2.4h1.2c.8 0 1.3-.5 1.3-1.2z"/><path d="m71 81.5c0-1 .8-1.8 1.9-1.8s1.8.7 1.8 1.8c0 1-.8 1.8-1.8 1.8-1.1.1-1.9-.7-1.9-1.8zm3.1 0c0-.8-.5-1.3-1.3-1.3s-1.3.6-1.3 1.3c0 .8.5 1.3 1.3 1.3s1.3-.5 1.3-1.3z"/><path d="m75.5 78.7c0-.2.2-.4.4-.4s.4.2.4.4-.2.4-.4.4-.4-.2-.4-.4zm.1 1.1h.5v3.5h-.5z"/><path d="m77.3 79.8h.4l.1.6c.2-.4.7-.6 1.3-.6.9 0 1.4.6 1.4 1.5v2.1h-.5v-2c0-.7-.3-1-.9-1-.7 0-1.2.5-1.2 1.1v1.9h-.5v-3.6z"/><path d="m83.8 83.1s-.3.2-.9.2c-.8 0-1.2-.4-1.2-1.3v-1.8h-.7v-.4c.6 0 .8-.3.8-1.1h.4v1h1.4v.5h-1.4v1.8c0 .6.2.8.7.8.4 0 .7-.2.7-.2z"/><path d="m87.5 81.7h-2.9c.1.7.5 1.1 1.2 1.1.5 0 .8-.2 1-.5l.5.2c-.3.6-.8.8-1.5.8-1 0-1.7-.8-1.7-1.8s.7-1.8 1.8-1.8c1 0 1.7.7 1.7 1.8-.1.1-.1.2-.1.2zm-.5-.4c0-.6-.5-1-1.1-1-.7 0-1.1.4-1.2 1z"/><path d="m93.4 83.3-1.3-1.8h-1.3v1.8h-.6v-5.1h1.8c1.1 0 1.9.6 1.9 1.6 0 .8-.5 1.4-1.3 1.6l1.5 1.9zm-2.6-2.4h1.3c.8 0 1.3-.4 1.3-1.1s-.5-1.1-1.3-1.1h-1.3z"/><path d="m97.9 81.7h-2.9c.1.7.5 1.1 1.2 1.1.5 0 .8-.2 1-.5l.5.2c-.3.6-.8.8-1.5.8-1 0-1.7-.8-1.7-1.8s.7-1.8 1.8-1.8c1 0 1.7.7 1.7 1.8-.1.1-.1.2-.1.2zm-.5-.4c0-.6-.5-1-1.1-1-.7 0-1.1.4-1.2 1z"/><path d="m98.5 82.5.5-.2s.1.5.7.5c.4 0 .7-.2.7-.5s-.2-.4-.6-.5l-.4-.1c-.6-.1-.9-.5-.9-1 0-.6.5-1 1.2-1 .9 0 1.1.7 1.1.7l-.5.2s-.1-.4-.7-.4c-.4 0-.6.2-.6.5s.2.4.6.5l.5.1c.6.1.8.5.8 1 0 .6-.5 1-1.2 1-1 .1-1.2-.8-1.2-.8z"/><path d="m101.6 81.5c0-1 .8-1.8 1.9-1.8s1.8.7 1.8 1.8c0 1-.8 1.8-1.8 1.8-1.1.1-1.9-.7-1.9-1.8zm3.2 0c0-.8-.5-1.3-1.3-1.3s-1.3.6-1.3 1.3c0 .8.5 1.3 1.3 1.3s1.3-.5 1.3-1.3z"/><path d="m106.2 79.8h.4l.1.7c.2-.5.7-.8 1.3-.8h.2v.6h-.2c-.9 0-1.3.5-1.3 1.5v1.5h-.5z"/><path d="m111.2 83.1s-.3.2-.9.2c-.8 0-1.2-.4-1.2-1.3v-1.8h-.7v-.4c.6 0 .8-.3.8-1.1h.4v1h1.4v.5h-1.4v1.8c0 .6.2.8.7.8.4 0 .7-.2.7-.2z"/></g></g></g></svg>