<svg xmlns="http://www.w3.org/2000/svg" viewBox="0 0 181.06 65.43"><defs><style>.cls-1{fill:#fff;}</style></defs><title>t2</title><g id="Layer_2" data-name="Layer 2"><g id="Layer_1-2" data-name="Layer 1"><path class="cls-1" d="M23.58,15.2H17.83a.58.58,0,0,1-.59-.59V.82a.58.58,0,0,1,.59-.61h1.11a.59.59,0,0,1,.63.61V12.45a.55.55,0,0,0,.57.61h3.44a.53.53,0,0,1,.59.61v.94A.57.57,0,0,1,23.58,15.2Z"/><path class="cls-1" d="M34.54,14.61a.59.59,0,0,1-.61.59H28.35a.6.6,0,0,1-.61-.59V.82a.72.72,0,0,1,.61-.61h5.58a.53.53,0,0,1,.59.61v.94a.52.52,0,0,1-.56.59h-3.3c-.42,0-.61.3-.61.69V5.69a.58.58,0,0,0,.61.59h2.79a.56.56,0,0,1,.59.61v.94a.6.6,0,0,1-.59.59H30.64a.59.59,0,0,0-.57.63v3.4a.54.54,0,0,0,.57.61h3.29a.66.66,0,0,1,.61.63Z"/><path class="cls-1" d="M45,2.54h-1.7a.61.61,0,0,0-.61.61V14.61a.62.62,0,0,1-.61.59H41a.6.6,0,0,1-.59-.59V3.13a.69.69,0,0,0-.61-.59h-1.7a.62.62,0,0,1-.59-.61V.8a.62.62,0,0,1,.59-.59h7a.57.57,0,0,1,.59.59V2A.57.57,0,0,1,45,2.54Z"/><path class="cls-1" d="M60.16,8.78A3.31,3.31,0,0,0,60,10v4.62a.63.63,0,0,1-.61.61H58.23a.6.6,0,0,1-.61-.59V10a2.82,2.82,0,0,0-.21-1.19L54.47.84c-.12-.34,0-.63.38-.63h1.39A.78.78,0,0,1,57,.8L58.63,6c.13.38.27.38.4,0L60.71.8a.76.76,0,0,1,.78-.59h1.32c.4,0,.52.23.38.61Z"/><path class="cls-1" d="M74.06,14a3.84,3.84,0,0,1-3.25,1.45A3.78,3.78,0,0,1,67.58,14a5.55,5.55,0,0,1-.86-3.54V5a5.66,5.66,0,0,1,.86-3.57A3.74,3.74,0,0,1,70.81,0a3.83,3.83,0,0,1,3.25,1.43A5.77,5.77,0,0,1,74.93,5v5.44A5.56,5.56,0,0,1,74.06,14ZM72.57,5c0-2.14-.46-2.88-1.76-2.88S69.05,2.9,69.05,5v5.37c0,2.13.42,2.86,1.76,2.86s1.76-.73,1.76-2.86Z"/><path class="cls-1" d="M86.29,14.11a3.68,3.68,0,0,1-3.09,1.32,3.8,3.8,0,0,1-3.11-1.32c-.65-.9-.86-1.83-.86-3.72V.82a.6.6,0,0,1,.59-.61h1.11a.56.56,0,0,1,.61.61v9.93c0,1.79.48,2.52,1.66,2.52s1.64-.71,1.64-2.52V.82a.58.58,0,0,1,.61-.61h1.09a.61.61,0,0,1,.61.63v9.53C87.15,12.3,86.94,13.29,86.29,14.11Z"/><path class="cls-1" d="M99.2,15.2H98a.74.74,0,0,1-.79-.61l-1.6-4.93c-.15-.42-.32-.59-.78-.59h-.21a.53.53,0,0,0-.61.59v4.95a.57.57,0,0,1-.58.59H92.23a.55.55,0,0,1-.57-.59V.82a.62.62,0,0,1,.59-.61h3.07c2.79,0,4.28,1.49,4.28,4.28a4.17,4.17,0,0,1-1.53,3.64c-.36.25-.44.39-.34.75l1.87,5.71A.43.43,0,0,1,99.2,15.2ZM94.83,2.35h-.25A.62.62,0,0,0,94,3V6.32a.61.61,0,0,0,.61.61h.25c1.77,0,2.38-.61,2.38-2.31S96.6,2.35,94.83,2.35Z"/><path class="cls-1" d="M113.65,15.43a4.23,4.23,0,0,1-4.47-3.8.65.65,0,0,1,.54-.59l.84-.25a2.29,2.29,0,0,1,.42-.08c.23,0,.38.12.47.48.35,1.37,1.13,2.08,2.2,2.08a1.62,1.62,0,0,0,1.7-1.7c0-1-.46-1.55-2.2-2.94l-1.52-1.2a4.71,4.71,0,0,1-2.1-3.76A3.64,3.64,0,0,1,113.46,0a4.15,4.15,0,0,1,4.07,3.36.58.58,0,0,1-.46.55l-1,.31-.25,0c-.25,0-.4-.14-.5-.46-.38-1.09-1-1.64-1.83-1.64A1.46,1.46,0,0,0,112,3.67c0,.82.44,1.5,1.55,2.38l1,.82c1.68,1.32,3.24,2.37,3.24,4.76S116.11,15.43,113.65,15.43Z"/><path class="cls-1" d="M128.45,14.61a.59.59,0,0,1-.6.59h-5.59a.61.61,0,0,1-.61-.59V.82a.72.72,0,0,1,.61-.61h5.59c.39,0,.58.21.58.61v.94a.52.52,0,0,1-.56.59h-3.3c-.42,0-.61.3-.61.69V5.69a.58.58,0,0,0,.61.59h2.79a.56.56,0,0,1,.59.61v.94a.6.6,0,0,1-.59.59h-2.81a.59.59,0,0,0-.57.63v3.4a.54.54,0,0,0,.57.61h3.3a.66.66,0,0,1,.6.63Z"/><path class="cls-1" d="M140.26,15.2h-1.14a.88.88,0,0,1-.84-.61L135,6.78c-.13-.29-.25-.27-.25,0v7.81a.59.59,0,0,1-.61.61H133a.56.56,0,0,1-.58-.59V.82A.55.55,0,0,1,133,.21h1.14A.94.94,0,0,1,135,.8l3.27,7.83c.13.29.25.27.25,0V.82a.6.6,0,0,1,.59-.61h1.14a.55.55,0,0,1,.6.59V14.61A.63.63,0,0,1,140.26,15.2Z"/><path class="cls-1" d="M149.22,15.43a4.23,4.23,0,0,1-4.47-3.8.65.65,0,0,1,.55-.59l.84-.25a2.15,2.15,0,0,1,.42-.08c.23,0,.38.12.46.48.36,1.37,1.13,2.08,2.2,2.08a1.62,1.62,0,0,0,1.7-1.7c0-1-.46-1.55-2.2-2.94l-1.51-1.2a4.69,4.69,0,0,1-2.1-3.76A3.64,3.64,0,0,1,149,0a4.17,4.17,0,0,1,4.08,3.36.59.59,0,0,1-.46.55l-1.05.31a1.38,1.38,0,0,1-.26,0c-.25,0-.39-.14-.5-.46-.38-1.09-1-1.64-1.83-1.64a1.46,1.46,0,0,0-1.49,1.51c0,.82.44,1.5,1.56,2.38l1,.82c1.68,1.32,3.23,2.37,3.23,4.76S151.68,15.43,149.22,15.43Z"/><path class="cls-1" d="M164,14.61a.59.59,0,0,1-.61.59h-5.59a.6.6,0,0,1-.6-.59V.82a.71.71,0,0,1,.6-.61h5.59a.53.53,0,0,1,.59.61v.94a.53.53,0,0,1-.57.59h-3.3c-.42,0-.6.3-.6.69V5.69a.58.58,0,0,0,.6.59h2.8a.55.55,0,0,1,.58.61v.94a.6.6,0,0,1-.58.59h-2.82a.59.59,0,0,0-.56.63v3.4a.54.54,0,0,0,.56.61h3.3a.67.67,0,0,1,.61.63Z"/><path class="cls-1" d="M7.35,39a3.87,3.87,0,0,1-3.26,1.45A3.79,3.79,0,0,1,.86,39,5.55,5.55,0,0,1,0,35.44V30a5.66,5.66,0,0,1,.86-3.57A3.75,3.75,0,0,1,4.09,25a3.85,3.85,0,0,1,3.26,1.43A5.78,5.78,0,0,1,8.21,30v5.44A5.56,5.56,0,0,1,7.35,39ZM5.86,30c0-2.14-.46-2.88-1.77-2.88S2.33,27.9,2.33,30v5.37c0,2.13.42,2.86,1.76,2.86s1.77-.73,1.77-2.86Z"/><path class="cls-1" d="M18.86,27.35H15.52A.64.64,0,0,0,15,28v2.71a.62.62,0,0,0,.57.59h2.85a.69.69,0,0,1,.61.65v.9a.71.71,0,0,1-.61.59H15.52a.65.65,0,0,0-.59.61v5.56a.71.71,0,0,1-.61.61H13.21a.75.75,0,0,1-.59-.61V25.82a.59.59,0,0,1,.59-.61h5.65a.59.59,0,0,1,.61.61v.94A.64.64,0,0,1,18.86,27.35Z"/><path class="cls-1" d="M36.64,40.2H35.53a.67.67,0,0,1-.71-.61l-.42-2a.75.75,0,0,0-.74-.63h-2a.81.81,0,0,0-.7.63l-.39,2a.73.73,0,0,1-.72.59H28.77a.46.46,0,0,1-.46-.61L31,25.78a.63.63,0,0,1,.7-.57h2a.69.69,0,0,1,.74.61l2.77,13.77A.49.49,0,0,1,36.64,40.2ZM32.78,28.74c0-.15-.21-.19-.23,0l-1,5.5c-.08.36.19.54.53.54h1.19c.38,0,.57-.18.51-.58Z"/><path class="cls-1" d="M44.5,40.2H41.39a.56.56,0,0,1-.55-.61V25.82a.64.64,0,0,1,.55-.61H44.5c2.94,0,4.34,1.51,4.34,4.68V35.5C48.84,38.71,47.44,40.2,44.5,40.2Zm2-9.66c0-2.37-.58-3.19-2.2-3.19h-.59a.54.54,0,0,0-.57.57v9.66a.51.51,0,0,0,.51.48h.65c1.62,0,2.2-.84,2.2-3.17Z"/><path class="cls-1" d="M58.38,39.61a.68.68,0,0,1-.72.59H56a.69.69,0,0,1-.74-.61l-3-13.77c-.06-.34.08-.61.44-.61H54a.75.75,0,0,1,.75.61l2,10.22c0,.19.17.17.21,0l1.78-10.2a.74.74,0,0,1,.7-.61h1.15a.48.48,0,0,1,.51.61Z"/><path class="cls-1" d="M71.57,39.61a.6.6,0,0,1-.61.59H65.37a.61.61,0,0,1-.61-.59V25.82a.72.72,0,0,1,.61-.61H71c.4,0,.58.21.58.61v.94a.52.52,0,0,1-.56.59h-3.3c-.42,0-.61.3-.61.69v2.65a.58.58,0,0,0,.61.59h2.79a.56.56,0,0,1,.59.61v.94a.6.6,0,0,1-.59.59H67.66a.59.59,0,0,0-.57.63v3.4a.54.54,0,0,0,.57.61H71a.67.67,0,0,1,.61.63Z"/><path class="cls-1" d="M83.37,40.2H82.23a.88.88,0,0,1-.84-.61l-3.25-7.81c-.13-.29-.25-.27-.25,0v7.81a.58.58,0,0,1-.61.61H76.15a.56.56,0,0,1-.59-.59V25.82a.56.56,0,0,1,.59-.61h1.13a.93.93,0,0,1,.84.59l3.27,7.83c.13.29.26.27.26,0V25.82a.59.59,0,0,1,.58-.61h1.14a.56.56,0,0,1,.61.59V39.61A.64.64,0,0,1,83.37,40.2Z"/><path class="cls-1" d="M95.09,27.54h-1.7a.61.61,0,0,0-.61.61V39.61a.62.62,0,0,1-.61.59H91a.6.6,0,0,1-.58-.59V28.13a.69.69,0,0,0-.61-.59h-1.7a.62.62,0,0,1-.59-.61V25.8a.61.61,0,0,1,.59-.59h7a.57.57,0,0,1,.58.59V27A.57.57,0,0,1,95.09,27.54Z"/><path class="cls-1" d="M106.19,39.11a3.65,3.65,0,0,1-3.08,1.32A3.79,3.79,0,0,1,100,39.11c-.65-.9-.86-1.83-.86-3.72V25.82a.6.6,0,0,1,.59-.61h1.11a.56.56,0,0,1,.61.61v9.93c0,1.79.48,2.52,1.66,2.52s1.64-.71,1.64-2.52V25.82a.58.58,0,0,1,.6-.61h1.1a.62.62,0,0,1,.61.63v9.53C107.06,37.3,106.85,38.29,106.19,39.11Z"/><path class="cls-1" d="M119.11,40.2h-1.24a.76.76,0,0,1-.8-.61l-1.59-4.93c-.15-.42-.32-.59-.78-.59h-.21a.53.53,0,0,0-.61.59v5a.57.57,0,0,1-.59.59h-1.15a.55.55,0,0,1-.57-.59V25.82a.62.62,0,0,1,.59-.61h3.07c2.79,0,4.28,1.49,4.28,4.28A4.2,4.2,0,0,1,118,33.13c-.36.25-.45.39-.34.75l1.87,5.71A.44.44,0,0,1,119.11,40.2Zm-4.37-12.85h-.25a.61.61,0,0,0-.61.61v3.36a.61.61,0,0,0,.61.61h.25c1.77,0,2.37-.61,2.37-2.31S116.51,27.35,114.74,27.35Z"/><path class="cls-1" d="M130.43,39.61a.59.59,0,0,1-.61.59h-5.59a.6.6,0,0,1-.6-.59V25.82a.71.71,0,0,1,.6-.61h5.59a.53.53,0,0,1,.59.61v.94a.53.53,0,0,1-.57.59h-3.3c-.42,0-.6.3-.6.69v2.65a.58.58,0,0,0,.6.59h2.8a.55.55,0,0,1,.58.61v.94a.6.6,0,0,1-.58.59h-2.82a.59.59,0,0,0-.56.63v3.4a.54.54,0,0,0,.56.61h3.3a.67.67,0,0,1,.61.63Z"/><path class="cls-1" d="M147.1,27.54h-1.7a.61.61,0,0,0-.61.61V39.61a.62.62,0,0,1-.61.59h-1.13a.6.6,0,0,1-.59-.59V28.13a.69.69,0,0,0-.61-.59h-1.7a.62.62,0,0,1-.59-.61V25.8a.62.62,0,0,1,.59-.59h6.95a.57.57,0,0,1,.59.59V27A.57.57,0,0,1,147.1,27.54Z"/><path class="cls-1" d="M158,40.2h-1.11a.67.67,0,0,1-.71-.61l-.42-2a.75.75,0,0,0-.74-.63h-2a.81.81,0,0,0-.7.63l-.39,2a.73.73,0,0,1-.72.59h-1.09a.46.46,0,0,1-.46-.61l2.66-13.81a.63.63,0,0,1,.7-.57h2a.69.69,0,0,1,.74.61l2.77,13.77A.49.49,0,0,1,158,40.2Zm-3.86-11.46c0-.15-.21-.19-.23,0l-1,5.5c-.08.36.19.54.53.54h1.19c.38,0,.57-.18.51-.58Z"/><path class="cls-1" d="M170.29,40.2h-1.35a.76.76,0,0,1-.82-.61L166,33.73c0-.14-.27-.21-.44-.21-.35,0-1,.89-1,2.36v3.73a.59.59,0,0,1-.61.59h-1.11a.6.6,0,0,1-.59-.59V25.8a.6.6,0,0,1,.59-.59h1.11a.58.58,0,0,1,.61.61v5c0,.23.21.21.32,0l2.71-5a1,1,0,0,1,.94-.61h1.28c.36,0,.4.36.25.61l-2.45,4.24a1.21,1.21,0,0,0-.15,1.18l3.19,8.35C170.77,39.91,170.62,40.2,170.29,40.2Z"/><path class="cls-1" d="M181.06,39.61a.59.59,0,0,1-.61.59h-5.59a.6.6,0,0,1-.6-.59V25.82a.71.71,0,0,1,.6-.61h5.59a.53.53,0,0,1,.59.61v.94a.53.53,0,0,1-.57.59h-3.3c-.42,0-.6.3-.6.69v2.65a.58.58,0,0,0,.6.59H180a.55.55,0,0,1,.58.61v.94a.6.6,0,0,1-.58.59h-2.82a.59.59,0,0,0-.56.63v3.4a.54.54,0,0,0,.56.61h3.3a.67.67,0,0,1,.61.63Z"/><path class="cls-1" d="M33.67,64a3.85,3.85,0,0,1-3.25,1.45A3.8,3.8,0,0,1,27.18,64a5.55,5.55,0,0,1-.86-3.54V55a5.73,5.73,0,0,1,.86-3.57A3.77,3.77,0,0,1,30.42,50a3.85,3.85,0,0,1,3.25,1.43A5.78,5.78,0,0,1,34.53,55v5.44A5.56,5.56,0,0,1,33.67,64ZM32.18,55c0-2.14-.46-2.88-1.76-2.88s-1.77.74-1.77,2.88v5.37c0,2.13.42,2.86,1.77,2.86s1.76-.73,1.76-2.86Z"/><path class="cls-1" d="M44.07,64.61a.68.68,0,0,1-.72.59H41.69a.69.69,0,0,1-.73-.61L38,50.82c-.06-.34.08-.61.44-.61h1.2a.76.76,0,0,1,.75.61l2,10.22c0,.19.17.17.21,0l1.78-10.2a.74.74,0,0,1,.7-.61h1.15a.47.47,0,0,1,.5.61Z"/><path class="cls-1" d="M57.25,64.61a.59.59,0,0,1-.6.59H51.06a.61.61,0,0,1-.61-.59V50.82a.72.72,0,0,1,.61-.61h5.59c.39,0,.58.21.58.61v.94a.52.52,0,0,1-.56.59h-3.3c-.42,0-.61.3-.61.69v2.65a.58.58,0,0,0,.61.59h2.79a.56.56,0,0,1,.59.61v.94a.6.6,0,0,1-.59.59H53.35a.59.59,0,0,0-.57.63v3.4a.54.54,0,0,0,.57.61h3.3a.66.66,0,0,1,.6.63Z"/><path class="cls-1" d="M68.78,65.2H67.54a.74.74,0,0,1-.79-.61l-1.6-4.93c-.15-.42-.31-.59-.78-.59h-.21a.53.53,0,0,0-.6.59v5a.58.58,0,0,1-.59.59H61.81a.54.54,0,0,1-.56-.59V50.82a.61.61,0,0,1,.58-.61H64.9c2.79,0,4.28,1.49,4.28,4.28a4.17,4.17,0,0,1-1.53,3.64c-.36.25-.44.39-.34.75l1.87,5.71A.43.43,0,0,1,68.78,65.2ZM64.42,52.35h-.26a.61.61,0,0,0-.6.61v3.36a.6.6,0,0,0,.6.61h.26c1.76,0,2.37-.61,2.37-2.31S66.18,52.35,64.42,52.35Z"/><path class="cls-1" d="M86,52.54h-1.7a.61.61,0,0,0-.61.61V64.61a.62.62,0,0,1-.61.59H81.93a.6.6,0,0,1-.59-.59V53.13a.68.68,0,0,0-.61-.59H79a.62.62,0,0,1-.59-.61V50.8a.62.62,0,0,1,.59-.59h7a.57.57,0,0,1,.59.59V52A.57.57,0,0,1,86,52.54Z"/><path class="cls-1" d="M97.47,65.2H96.34a.64.64,0,0,1-.59-.59V59.24a.66.66,0,0,0-.61-.63H93a.64.64,0,0,0-.59.65v5.35a.68.68,0,0,1-.61.59H90.73a.65.65,0,0,1-.59-.59V50.82a.62.62,0,0,1,.59-.61h1.11a.69.69,0,0,1,.61.61v5a.66.66,0,0,0,.59.61h2.1a.77.77,0,0,0,.61-.61v-5a.67.67,0,0,1,.59-.61h1.15a.7.7,0,0,1,.59.59V64.61A.73.73,0,0,1,97.47,65.2Z"/><path class="cls-1" d="M109.5,64.61a.59.59,0,0,1-.61.59h-5.58a.6.6,0,0,1-.61-.59V50.82a.72.72,0,0,1,.61-.61h5.58a.53.53,0,0,1,.59.61v.94a.53.53,0,0,1-.57.59h-3.29c-.42,0-.61.3-.61.69v2.65a.58.58,0,0,0,.61.59h2.79a.56.56,0,0,1,.59.61v.94a.6.6,0,0,1-.59.59H105.6a.59.59,0,0,0-.57.63v3.4a.54.54,0,0,0,.57.61h3.29a.66.66,0,0,1,.61.63Z"/><path class="cls-1" d="M127.23,65.2H126a.75.75,0,0,1-.8-.61l-1.6-4.93c-.14-.42-.31-.59-.77-.59h-.21a.53.53,0,0,0-.61.59v5a.57.57,0,0,1-.59.59h-1.16a.54.54,0,0,1-.56-.59V50.82a.62.62,0,0,1,.59-.61h3.06c2.79,0,4.28,1.49,4.28,4.28a4.17,4.17,0,0,1-1.53,3.64c-.36.25-.44.39-.33.75l1.86,5.71A.43.43,0,0,1,127.23,65.2Zm-4.37-12.85h-.25A.61.61,0,0,0,122,53v3.36a.61.61,0,0,0,.61.61h.25c1.76,0,2.37-.61,2.37-2.31S124.62,52.35,122.86,52.35Z"/><path class="cls-1" d="M138.54,64.61a.59.59,0,0,1-.6.59h-5.59a.61.61,0,0,1-.61-.59V50.82a.72.72,0,0,1,.61-.61h5.59c.39,0,.58.21.58.61v.94a.52.52,0,0,1-.56.59h-3.3c-.42,0-.61.3-.61.69v2.65a.58.58,0,0,0,.61.59h2.79a.56.56,0,0,1,.59.61v.94a.6.6,0,0,1-.59.59h-2.81a.59.59,0,0,0-.57.63v3.4a.54.54,0,0,0,.57.61h3.3a.66.66,0,0,1,.6.63Z"/><path class="cls-1" d="M146.27,65.43a4.23,4.23,0,0,1-4.47-3.8.65.65,0,0,1,.55-.59l.84-.25a2,2,0,0,1,.42-.08c.23,0,.37.12.46.48.36,1.37,1.13,2.08,2.2,2.08a1.62,1.62,0,0,0,1.7-1.7c0-1-.46-1.55-2.2-2.94l-1.51-1.2a4.69,4.69,0,0,1-2.1-3.76A3.64,3.64,0,0,1,146.08,50a4.17,4.17,0,0,1,4.08,3.36.59.59,0,0,1-.46.55l-1,.31a1.38,1.38,0,0,1-.26,0c-.25,0-.4-.14-.5-.46-.38-1.09-1-1.64-1.83-1.64a1.46,1.46,0,0,0-1.49,1.51c0,.82.44,1.5,1.56,2.38l1,.82c1.68,1.32,3.24,2.37,3.24,4.76S148.73,65.43,146.27,65.43Z"/><path class="cls-1" d="M160.76,52.54h-1.7a.61.61,0,0,0-.61.61V64.61a.62.62,0,0,1-.61.59h-1.13a.6.6,0,0,1-.59-.59V53.13a.68.68,0,0,0-.61-.59h-1.7a.62.62,0,0,1-.59-.61V50.8a.62.62,0,0,1,.59-.59h6.95a.57.57,0,0,1,.59.59V52A.57.57,0,0,1,160.76,52.54Z"/></g></g></svg>