<svg id="Layer_1" data-name="Layer 1" xmlns="http://www.w3.org/2000/svg" viewBox="0 0 300 600"><path d="M82.51,243.64c.76,1.46,2,1.34,2,2.18,0,.57-.52.77-1.12.77H76.78c-.6,0-1.12-.2-1.12-.77,0-.89,1.37-.72,2.09-2.26a10.82,10.82,0,0,0,.45-4v-6.37c0-2.7-1.21-4.95-4.2-4.95a4.77,4.77,0,0,0-3.38,1.33c-1.49,1.53-2,3.83-2,10a11.84,11.84,0,0,0,.4,3.95c.61,1.54,2.14,1.45,2.14,2.34,0,.57-.48.77-1.13.77H63.4c-.6,0-1.09-.2-1.09-.77,0-1,1.61-.76,2.22-2.58a13.64,13.64,0,0,0,.32-3.71V222.64c0-2.3-.4-2.66-3.06-2.66h-5c-.44,0-.57.2-.57.52v19.07a10.2,10.2,0,0,0,.49,4.07c.72,1.46,2,1.34,2,2.18,0,.57-.48.77-1.08.77h-6.9c-.6,0-1.13-.2-1.13-.77,0-.84,1.33-.76,2-2.09a10.25,10.25,0,0,0,.52-4.16V220.5c0-.32-.12-.52-.52-.52a8.73,8.73,0,0,0-4.27.65c-2.83,1.49-2.18,4.71-3.79,4.71-.81,0-1.13-.44-1.13-1.21,0-.4,0-1.41.08-2.5s0-2,.12-2.94.44-1.17,1.65-1.17,3.39.28,6.94.28h6a44,44,0,0,0,7-.28c1.89-.32,2.78-1.05,3.54-1.05.53,0,.89.33.89,1.09v11.09c0,.08,0,.16.12.16s.12-.08.2-.2a7.76,7.76,0,0,1,6.49-3.51,6.34,6.34,0,0,1,5.29,2.5c.84,1.21,1.29,2.7,1.29,5.48v6.45A10.23,10.23,0,0,0,82.51,243.64Z"/><path d="M105.65,242.23c0,1.13-3.07,4.8-8.43,4.8-6.17,0-9.79-4.84-9.79-10.36,0-5.88,4.19-11.57,10.44-11.57a7.91,7.91,0,0,1,8.22,7.54c0,2.46-1.21,2.82-3.18,2.86H92c-.28,0-.44.12-.44.4v.21c0,4.23,2.42,8,6.69,8,4,0,5.56-2.74,6.53-2.74A.82.82,0,0,1,105.65,242.23Zm-14-9c0,.21.08.25.32.25h6.57c2.34,0,3.39-.49,3.39-2.34a4.28,4.28,0,0,0-4.48-4.07c-3.22,0-5.28,2.74-5.76,5.72A3.46,3.46,0,0,0,91.7,233.24Z"/></svg>