<svg id="Layer_1" data-name="Layer 1" xmlns="http://www.w3.org/2000/svg" viewBox="0 0 300 600"><path d="M48.12,340.39c.73,1.41,2.06,1.33,2.06,2.18,0,.56-.53.76-1.13.76H42.32c-.61,0-1.09-.2-1.09-.76,0-.85,1.41-.89,2.05-2.18a10.12,10.12,0,0,0,.49-4.11v-15.8c0-1.74,0-2.66-.41-3.31a2.3,2.3,0,0,0-1.33-.84c-.56-.21-1-.41-1-.81s.16-.73,1.13-.93A18.64,18.64,0,0,0,46,313.42a2,2,0,0,1,.77-.2c.48,0,.85.32.85,1v22A10.23,10.23,0,0,0,48.12,340.39Z"/><path d="M73.84,332.69c0,6.05-4.23,11.09-10.24,11.09S53.32,339.55,53.32,333c0-6.08,4.27-11.12,10.4-11.12C70.13,321.85,73.84,326.6,73.84,332.69Zm-10.68-8.83c-3.55,0-5.73,3.15-5.73,7.62,0,5.57,2.62,10.2,6.57,10.2s5.73-3.87,5.73-7.82C69.73,329.23,67.67,323.86,63.16,323.86Z"/><path d="M96.62,337.37a6,6,0,0,0,.28,2.34c.6,1.08,2.42.88,2.42,1.77,0,.4-.21.73-1.13.93a22.3,22.3,0,0,0-3.63,1.13,2.09,2.09,0,0,1-.93.24c-.52,0-.84-.28-.84-1v-2.18a.29.29,0,0,0-.25-.32c-.08,0-.16,0-.28.16a8.69,8.69,0,0,1-6.61,3.39c-3.87,0-8.26-2.94-8.26-9.92,0-6,3.62-12,9.63-12a9.79,9.79,0,0,1,5.32,1.61.53.53,0,0,0,.28.12c.13,0,.17-.08.17-.2v-3.83a4.08,4.08,0,0,0-.45-2.42c-.76-1-2.26-.76-2.26-1.65,0-.4.17-.69,1.13-.89a20.08,20.08,0,0,0,3.67-1.13,2.46,2.46,0,0,1,.89-.24c.48,0,.85.32.85,1Zm-3.83-4.76c0-5.56-2.38-8.71-5.77-8.71-4.23,0-5.68,4.52-5.68,8.51,0,4.76,2.33,8.51,5.84,8.51S92.79,337.61,92.79,332.61Z"/><path d="M118.54,325.56c-.2,0-.6,0-.6,0a7.16,7.16,0,0,1,1,3.71c0,4.31-3.11,7.41-7.7,7.74-1.7.12-3.47,0-3.47,1.33,0,.8.81,1.16,2.82,1.37,1.7.16,3.87.16,5.89.44,2.86.44,4.51,2.06,4.51,4.35,0,4.4-4.47,6.66-10.36,6.66-3.54,0-6.29-.73-7.74-2a3.9,3.9,0,0,1-1.53-3,3.49,3.49,0,0,1,3.15-3.47c.6,0,1,.28,1,.68s-.68,1-.68,2.26c0,2.62,3.34,3.55,6.37,3.55,3.75,0,6.57-1.41,6.57-3.51,0-1.45-1.17-2.05-3.51-2.25-1.85-.17-4.39-.17-6.25-.53-2.42-.44-3.59-1.81-3.59-3.3a3.75,3.75,0,0,1,2.54-3.23c.12,0,.12-.08.12-.12s0-.08-.12-.12a7.13,7.13,0,0,1-4.15-6.57,7.74,7.74,0,0,1,8-7.66c3.63,0,5.24,1.93,6.17,1.93,1.21,0,.85-2,2.62-2a1.53,1.53,0,0,1,1.65,1.69C121.2,324.87,120.24,325.56,118.54,325.56Zm-11.77,3.06c0,2.54,1.17,6.33,4.36,6.33,2.5,0,3.79-2.26,3.79-4.92s-1.29-6.21-4.36-6.21C108.1,323.82,106.77,326,106.77,328.62Z"/><path d="M142.29,339c0,1.13-3.07,4.8-8.43,4.8-6.17,0-9.79-4.84-9.79-10.36,0-5.89,4.19-11.57,10.44-11.57a7.91,7.91,0,0,1,8.22,7.54c0,2.46-1.21,2.82-3.18,2.86H128.62c-.28,0-.44.12-.44.4v.2c0,4.24,2.42,8,6.69,8,3.95,0,5.56-2.75,6.53-2.75A.82.82,0,0,1,142.29,339Zm-13.95-9c0,.2.08.24.32.24h6.57c2.34,0,3.39-.48,3.39-2.34a4.29,4.29,0,0,0-4.48-4.07c-3.22,0-5.28,2.74-5.76,5.73A3.46,3.46,0,0,0,128.34,330Z"/></svg>