<svg id="Layer_1" data-name="Layer 1" xmlns="http://www.w3.org/2000/svg" viewBox="0 0 300 600"><path d="M142.65,391c0,.53-.48.73-1,.73h-2.7a2.54,2.54,0,0,1-2.46-1.45c-.72-1.17-1.73-4.12-2.82-6.7-1.29-3.06-2.66-4.91-5.16-5.44a11.49,11.49,0,0,0-2.18-.16,14,14,0,0,0-1.61.08c-.32,0-.44.2-.44.53v6.08c0,2.82.28,3.71.56,4.28.65,1.29,2,1.08,2,2,0,.57-.53.77-1.13.77h-6.89c-.61,0-1.09-.2-1.09-.77s1.29-.89,2-2c.33-.57.57-1.46.57-4.28V368.81c0-2.66,0-3.43-1.13-4.07-.53-.32-1.21-.45-1.21-1.09,0-.4.4-.73,1.09-.73h3.59c2,0,4.27,0,6.2,0,2.83,0,6,.25,8,1.94a6.17,6.17,0,0,1,2.13,4.88,7,7,0,0,1-.64,3,7.5,7.5,0,0,1-5.93,3.91c-.24,0-.32.12-.32.24s.08.2.32.24c2.86.41,4,2.14,5.85,6.49,2,4.8,2.62,5.85,3.55,6.41C142.13,390.3,142.65,390.46,142.65,391Zm-8.18-20.76c0-4.35-2.82-5.2-6.94-5.2h-2.45c-.57,0-.81.2-.81.69v9.63c0,.32.2.57.64.57h2.46C130.84,375.91,134.47,374.62,134.47,370.22Z"/><path d="M162.24,387.35c0,1.13-3.06,4.8-8.42,4.8-6.17,0-9.8-4.84-9.8-10.36,0-5.88,4.19-11.57,10.44-11.57a7.92,7.92,0,0,1,8.23,7.54c0,2.46-1.21,2.82-3.19,2.86H148.58c-.29,0-.45.12-.45.4v.21c0,4.23,2.42,8,6.7,8,3.95,0,5.56-2.74,6.53-2.74A.81.81,0,0,1,162.24,387.35Zm-14-9c0,.21.09.25.33.25h6.57c2.34,0,3.38-.49,3.38-2.34a4.28,4.28,0,0,0-4.47-4.07c-3.23,0-5.28,2.74-5.76,5.72A2.79,2.79,0,0,0,148.29,378.36Z"/><path d="M179.86,388.16a3.81,3.81,0,0,1-1.45,2.26,7,7,0,0,1-4.6,1.73,5.16,5.16,0,0,1-4.39-2.14,8.07,8.07,0,0,1-1.13-4.79c0-3.55.28-7.18.28-11.17,0-.28-.12-.4-.4-.4h-2.54c-.28,0-.45-.16-.45-.49v-1.29a.48.48,0,0,1,.41-.48c1.77-.48,2.66-1.05,3.14-1.85a10.85,10.85,0,0,0,.93-3.23c.08-.32.2-.48.52-.48h1.66c.32,0,.48.16.48.44v4.19c0,.73.16.93.89.93s1.13,0,2-.08,2-.2,2.82-.2,1.29.2,1.29.72a7,7,0,0,1-.12.77c-.16,1-.68,1.25-1.73,1.25-.73,0-1.61-.12-2.58-.16-.81,0-1.45,0-2.18,0a.42.42,0,0,0-.48.48c0,.53-.12,5-.12,6.17,0,1.49,0,2.82.16,4.68.28,3.18,1.61,4.07,3.18,4.07,2.1,0,2.87-1.58,3.63-1.58A.69.69,0,0,1,179.86,388.16Z"/><path d="M204.81,389.89c0,.49-.28.77-1.09.93A24.67,24.67,0,0,0,200,392a2.2,2.2,0,0,1-.84.2c-.57,0-.89-.32-.89-1.09v-2.5a.11.11,0,0,0-.12-.12c-.08,0-.12.08-.2.2a7.74,7.74,0,0,1-6.53,3.51,6.23,6.23,0,0,1-5-2.26c-1.13-1.37-1.49-3.26-1.49-5.68v-6.77c0-1.74,0-2.66-.41-3.27-.64-1-2.29-.72-2.29-1.77,0-.41.28-.69,1.08-.85a19.93,19.93,0,0,0,3.63-1.09,2.29,2.29,0,0,1,.93-.24c.52,0,.89.32.89,1v12.86c0,2.78,1.29,5,4.19,5a4.79,4.79,0,0,0,3.39-1.37c1.49-1.49,2-3.75,2-9.92,0-1.94,0-3-.4-3.63-.69-1-2.3-.72-2.3-1.69,0-.44.2-.73,1.09-.93a19.66,19.66,0,0,0,3.79-1.17,2,2,0,0,1,.76-.2c.53,0,.89.36.89,1.09v13.67c0,1.73,0,2.66.4,3.3C203.08,389.13,204.81,389,204.81,389.89Z"/><path d="M222.83,372.92c0,1-.32,1.86-1.37,1.86s-1.49-.89-2.7-.89a2.72,2.72,0,0,0-2.3,1.41c-1,1.45-1.65,3.35-1.65,9.35a10.35,10.35,0,0,0,.48,4.11c.73,1.46,2.06,1.29,2.06,2.18,0,.57-.49.77-1.13.77h-6.65c-.65,0-1.13-.2-1.13-.77,0-.84,1.45-.8,2.09-2.26a11.37,11.37,0,0,0,.45-4v-7.21c0-1.74-.16-2.7-.53-3.23-.72-1-2.29-.88-2.29-1.77,0-.45.24-.73,1.08-.89a14.13,14.13,0,0,0,3.31-1.09,2.45,2.45,0,0,1,1-.24c.6,0,.92.4.92,1.13v3.18c0,.09,0,.17.09.17s.12-.13.16-.21c.84-1.73,3-4.27,5.6-4.27A2.46,2.46,0,0,1,222.83,372.92Z"/><path d="M244.6,384.61c0,2.1.12,3.63.6,4.4.69,1,2,1.21,2,1.93s-.53.77-1.13.77h-6.77c-.61,0-1.13-.2-1.13-.77,0-.8,1.37-.84,2-2.09a10.47,10.47,0,0,0,.53-4.24v-6.29c0-3.5-1.86-5-4.24-5A4.92,4.92,0,0,0,233,374.7c-1.53,1.53-1.9,3.7-1.9,9.91,0,2.06.12,3.55.57,4.32.68,1.17,2,1.29,2,2s-.48.77-1.09.77h-6.69c-.6,0-1.09-.2-1.09-.77,0-.84,1.46-.89,2.06-2.18a11.41,11.41,0,0,0,.48-4.15v-7.86a4.56,4.56,0,0,0-.4-2.54c-.64-1-2.34-.76-2.34-1.65,0-.44.2-.73,1.13-.93a17.4,17.4,0,0,0,3.75-1.21,2,2,0,0,1,.77-.2c.52,0,.88.36.88,1.13v2.38c0,.12,0,.2.12.2s.12-.08.21-.2a7.82,7.82,0,0,1,6.53-3.51,6.45,6.45,0,0,1,5.28,2.5c.88,1.21,1.37,2.66,1.37,5.48Z"/></svg>