<svg id="Layer_1" data-name="Layer 1" xmlns="http://www.w3.org/2000/svg" viewBox="0 0 300 600"><path d="M64.93,366.88c0,.76.08,1.57.08,2.37,0,.65-.24,1.21-1.13,1.21-1.65,0-1-3.26-3.87-4.75-1.21-.61-2.33-.61-4.23-.61-.44,0-.52.2-.52.52v19.07a10.76,10.76,0,0,0,.44,4c.73,1.5,2.1,1.42,2.1,2.26,0,.57-.53.77-1.13.77h-6.9c-.6,0-1.08-.2-1.08-.77,0-1,1.45-.72,2.13-2.34a12.47,12.47,0,0,0,.37-3.91V365.62c0-.28-.09-.52-.53-.52-2.38,0-3.31.08-4.55.81-2.42,1.41-1.86,4.55-3.51,4.55-.69,0-1.09-.36-1.09-1.21s0-1.65.08-2.37,0-1.94.08-3.07c0-.81.48-1.17,1.69-1.17s3.35.28,6.9.28h6c3.59,0,5.73-.28,6.94-.28,1,0,1.57.2,1.65,1.17S64.89,365.87,64.93,366.88Z"/><path d="M81.42,389.25a.64.64,0,0,1,.68.64,3.06,3.06,0,0,1-3,2.26c-1.33,0-2.82-.81-3.06-3.18,0-.08,0-.21-.08-.21s-.08.05-.17.17a7.64,7.64,0,0,1-6.45,3.22c-3.91,0-6.28-2.42-6.28-5.2a5.22,5.22,0,0,1,2.5-4.39c2.09-1.41,4.59-1.86,6.81-2.91,1.61-.72,3.38-1.89,3.38-4.07a3.21,3.21,0,0,0-3.5-3.3c-2.42,0-3.67,1.57-4.68,3-.81,1.13-.93,1.85-1.81,1.85s-1.13-.92-1.13-2a5.41,5.41,0,0,1,.68-2.94c1.09-1.41,4.36-2,6.66-2,5.16,0,7.82,2.9,7.82,6.89,0,3.15-.13,6.86-.13,10.08,0,1.41.49,2.06,1.3,2.06Zm-5.69-8.91c0-.08,0-.16-.12-.16s-.12,0-.28.16c-1.41,1.09-4.07,1.77-6,3.06a4,4,0,0,0-2,3.35,3,3,0,0,0,3.22,3.06A4.9,4.9,0,0,0,74.89,387c.8-1.69.84-3.47.84-5.93Z"/><path d="M106.13,391c0,.49-.36.73-1.09.73H98.43c-.81,0-1.13-.24-1.13-.65,0-.8,1.17-.68,1.17-1.61a3.5,3.5,0,0,0-.93-1.85l-3.34-4.48c-.12-.16-.16-.24-.28-.24s-.21.12-.29.24L92,385.58c-.85,1.29-1.65,2.58-1.65,3.35,0,1.33,1.73,1,1.73,2,0,.49-.44.77-1.17.77H85.21c-.73,0-1.21-.24-1.21-.73s.64-.8,1.33-1.25a15,15,0,0,0,3.51-3.59c.76-1,2.33-3.06,3.58-4.75.12-.16.17-.24.17-.32a.58.58,0,0,0-.17-.37l-3.26-4.27a16.27,16.27,0,0,0-3.43-3.67c-.88-.6-1.69-.64-1.69-1.33,0-.52.36-.77,1.09-.77h6.49c.8,0,1.13.25,1.13.73,0,.69-1.09.73-1.09,1.49a4.1,4.1,0,0,0,1,2l3.22,4.35c.12.16.2.28.28.28s.16-.08.29-.24c.92-1.37,2-3,2.7-4.19a3.33,3.33,0,0,0,.6-1.61c0-1.21-1.69-1.13-1.69-2,0-.56.36-.77,1.13-.77h5.68c.73,0,1.21.21,1.21.73s-.69.81-1.33,1.25a13.59,13.59,0,0,0-3.51,3.59L97.66,381a.59.59,0,0,0-.12.29.53.53,0,0,0,.12.28l3.31,4.35a14.91,14.91,0,0,0,3.35,3.63C105.24,390.26,106.13,390.3,106.13,391Z"/></svg>