<svg id="Layer_1" data-name="Layer 1" xmlns="http://www.w3.org/2000/svg" viewBox="0 0 300 600"><defs><style>.cls-1{fill:#e24621;}</style></defs><path class="cls-1" d="M133.78,219.94c0,1.05-.24,1.69-1.09,1.69-1.24,0-2.05-2.78-4.43-2.78-3.06,0-3.31,4.36-3.31,7,0,.28.13.4.41.4.72,0,1.65,0,2.62,0s2-.24,2.9-.24c.4,0,1.13,0,1.13.64a5.66,5.66,0,0,1-.12.81c-.2,1.17-.81,1.25-1.78,1.25-.76,0-1.57-.08-2.53-.12-.77,0-1.46,0-2.1,0-.4,0-.53.12-.53.48v10.52a11,11,0,0,0,.49,4.11c.64,1.46,2,1.29,2,2.18,0,.57-.52.77-1.12.77h-6.66c-.64,0-1.12-.2-1.12-.77,0-.93,1.45-.72,2.13-2.34a11.77,11.77,0,0,0,.41-3.95V228.85c0-.24-.13-.32-.41-.32h-2.5c-.28,0-.48-.12-.48-.45v-1.37c0-.32.16-.44.48-.44h2.5c.32,0,.45-.12.45-.4.36-7.74,6-9.4,9-9.4a4.42,4.42,0,0,1,2.58.69A3.54,3.54,0,0,1,133.78,219.94Z"/><path class="cls-1" d="M151.92,244.13a.64.64,0,0,1,.69.64,3.06,3.06,0,0,1-3,2.26c-1.34,0-2.83-.81-3.07-3.18,0-.08,0-.21-.08-.21s-.08.05-.16.17a7.64,7.64,0,0,1-6.45,3.22c-3.91,0-6.29-2.42-6.29-5.2a5.24,5.24,0,0,1,2.5-4.39c2.1-1.41,4.6-1.86,6.81-2.91,1.62-.72,3.39-1.89,3.39-4.07a3.21,3.21,0,0,0-3.51-3.3c-2.42,0-3.67,1.57-4.67,3-.81,1.13-.93,1.85-1.82,1.85s-1.13-.92-1.13-2a5.32,5.32,0,0,1,.69-2.94c1.09-1.41,4.35-2,6.65-2,5.16,0,7.82,2.9,7.82,6.89,0,3.15-.12,6.86-.12,10.08,0,1.41.48,2.06,1.29,2.06Zm-5.68-8.91c0-.08,0-.16-.12-.16s-.12,0-.28.16c-1.41,1.09-4.08,1.77-6,3.06a4.05,4.05,0,0,0-2,3.35,3,3,0,0,0,3.23,3.06,4.89,4.89,0,0,0,4.35-2.86c.81-1.69.85-3.47.85-5.93Z"/><path class="cls-1" d="M156.48,239.45c.92,0,1.37,1.25,2.25,2.5,1.05,1.45,2.5,3,5,3s4.07-1.57,4.07-3.38c0-5.28-11.65-2.74-11.65-9.92,0-3.91,3.63-6.53,8.07-6.53a8.84,8.84,0,0,1,4.79,1.17,3.67,3.67,0,0,1,1.29,3.06c0,.93,0,2.34-1.21,2.34-1,0-1-.84-1.89-2.09a4.73,4.73,0,0,0-4-2.38c-1.69,0-3.51,1.13-3.51,3,0,2.5,3,3.06,5.93,4.07s5.76,2.34,5.76,6S168,247,163,247c-2.83,0-5.45-.93-6.49-2-.85-.85-1.09-2.62-1.09-3.87C155.39,240.3,155.55,239.45,156.48,239.45Z"/><path class="cls-1" d="M188.69,243a3.81,3.81,0,0,1-1.45,2.26,7,7,0,0,1-4.6,1.73,5.14,5.14,0,0,1-4.39-2.14,8.07,8.07,0,0,1-1.13-4.79c0-3.55.28-7.18.28-11.17,0-.28-.12-.4-.4-.4h-2.54c-.29,0-.45-.16-.45-.49v-1.29a.47.47,0,0,1,.41-.48c1.77-.48,2.66-1.05,3.14-1.85a11.16,11.16,0,0,0,.93-3.23c.08-.32.2-.48.52-.48h1.65c.33,0,.49.16.49.44v4.19c0,.73.16.93.88.93s1.13,0,2.06-.08,2-.2,2.82-.2,1.29.2,1.29.72a7,7,0,0,1-.12.77c-.16,1-.68,1.25-1.73,1.25-.73,0-1.61-.12-2.58-.16-.81,0-1.45,0-2.18,0a.42.42,0,0,0-.48.48c0,.53-.12,5-.12,6.17,0,1.49,0,2.82.16,4.68.28,3.18,1.61,4.07,3.18,4.07,2.1,0,2.86-1.58,3.63-1.58A.7.7,0,0,1,188.69,243Z"/><path class="cls-1" d="M209.41,242.23c0,1.13-3.07,4.8-8.43,4.8-6.17,0-9.79-4.84-9.79-10.36,0-5.88,4.19-11.57,10.44-11.57a7.91,7.91,0,0,1,8.22,7.54c0,2.46-1.21,2.82-3.18,2.86H195.74c-.28,0-.44.12-.44.4v.21c0,4.23,2.42,8,6.69,8,3.95,0,5.56-2.74,6.53-2.74A.82.82,0,0,1,209.41,242.23Zm-13.95-9c0,.21.08.25.32.25h6.57c2.34,0,3.39-.49,3.39-2.34a4.28,4.28,0,0,0-4.48-4.07c-3.22,0-5.28,2.74-5.76,5.72A3.46,3.46,0,0,0,195.46,233.24Z"/><path class="cls-1" d="M214.16,239.45c.93,0,1.37,1.25,2.26,2.5,1.05,1.45,2.5,3,5,3s4.07-1.57,4.07-3.38c0-5.28-11.65-2.74-11.65-9.92,0-3.91,3.63-6.53,8.06-6.53a8.88,8.88,0,0,1,4.8,1.17,3.67,3.67,0,0,1,1.29,3.06c0,.93,0,2.34-1.21,2.34-1,0-1.05-.84-1.89-2.09a4.73,4.73,0,0,0-4-2.38c-1.69,0-3.5,1.13-3.5,3,0,2.5,3,3.06,5.92,4.07s5.77,2.34,5.77,6-3.39,6.73-8.43,6.73c-2.82,0-5.44-.93-6.49-2-.85-.85-1.09-2.62-1.09-3.87C213.07,240.3,213.23,239.45,214.16,239.45Z"/><path class="cls-1" d="M246.37,243a3.76,3.76,0,0,1-1.45,2.26,7,7,0,0,1-4.6,1.73,5.16,5.16,0,0,1-4.39-2.14,8.07,8.07,0,0,1-1.13-4.79c0-3.55.28-7.18.28-11.17,0-.28-.12-.4-.4-.4h-2.54c-.28,0-.44-.16-.44-.49v-1.29a.47.47,0,0,1,.4-.48c1.77-.48,2.66-1.05,3.14-1.85a10.85,10.85,0,0,0,.93-3.23c.08-.32.2-.48.53-.48h1.65c.32,0,.48.16.48.44v4.19c0,.73.16.93.89.93s1.13,0,2.06-.08,2-.2,2.82-.2,1.29.2,1.29.72a7,7,0,0,1-.12.77c-.17,1-.69,1.25-1.74,1.25-.72,0-1.61-.12-2.58-.16-.8,0-1.45,0-2.17,0a.43.43,0,0,0-.49.48c0,.53-.12,5-.12,6.17,0,1.49,0,2.82.16,4.68.28,3.18,1.61,4.07,3.19,4.07,2.09,0,2.86-1.58,3.63-1.58A.69.69,0,0,1,246.37,243Z"/></svg>