<?xml version="1.0" encoding="utf-8"?>
<!-- Generator: Adobe Illustrator 25.3.1, SVG Export Plug-In . SVG Version: 6.00 Build 0)  -->
<svg version="1.1" id="Layer_1" xmlns="http://www.w3.org/2000/svg" xmlns:xlink="http://www.w3.org/1999/xlink" x="0px" y="0px"
	 viewBox="0 0 970 250" style="enable-background:new 0 0 970 250;" xml:space="preserve">
<style type="text/css">
	.st0{fill:#FFFFFF;}
</style>
<path class="st0" d="M510.6,103.3h-3.1v-4.5h1.6c1.3,0,2-0.7,2-2.2v-3.2h4.3v5.4h4v4.5h-4v5.9c-0.2,1.2,0.7,2.3,1.9,2.5
	c0.1,0,0.3,0,0.4,0c0.5,0,0.9-0.1,1.4-0.2c0.2,0,0.4-0.1,0.6-0.2v4.5c-0.3,0.1-0.6,0.2-0.9,0.3c-0.8,0.2-1.5,0.3-2.3,0.2
	c-3.6,0-5.9-2.3-5.9-6.5L510.6,103.3z"/>
<path class="st0" d="M531.5,98.1c5.1,0.1,9.1,4.3,9,9.3c-0.1,5.1-4.3,9.1-9.3,9c-5-0.1-9-4.2-9-9.2C522.2,102.1,526.4,98,531.5,98.1
	C531.5,98.1,531.5,98.1,531.5,98.1z M536,107.3c-0.1-2.5-2.2-4.4-4.7-4.3s-4.4,2.2-4.3,4.7c0.1,2.4,2.1,4.3,4.5,4.3
	c2.5,0,4.5-2,4.5-4.5C536,107.4,536,107.3,536,107.3z"/>
<path class="st0" d="M564.6,113.6h-0.2c-0.4,0.5-0.8,1-1.4,1.4c-1.2,0.9-2.7,1.4-4.2,1.4c-4.2,0-7.9-3.8-7.9-9.2s3.7-9.2,7.9-9.2
	c1.5,0,3,0.5,4.2,1.4c0.5,0.4,1,0.9,1.4,1.4h0.2V90.9h4.9v25.2h-4.9V113.6z M564.8,107.3c-0.1-2.5-2.2-4.4-4.7-4.3s-4.4,2.2-4.3,4.7
	c0.1,2.4,2.1,4.3,4.5,4.3c2.5,0,4.5-2,4.5-4.5C564.8,107.4,564.8,107.3,564.8,107.3z"/>
<path class="st0" d="M576.8,90.7c1.5,0,2.7,1.2,2.8,2.7c-0.1,1.5-1.3,2.7-2.8,2.7c-1.5,0-2.7-1.2-2.8-2.7
	C574,91.9,575.3,90.7,576.8,90.7z M574.3,98.4h4.9v17.6h-4.9V98.4z"/>
<path class="st0" d="M583.9,98.4h4.9v2.6h0.2c0.4-0.5,0.8-1,1.3-1.4c1.1-0.9,2.5-1.4,3.9-1.4c3.6,0,6.5,2.9,6.5,7.4v10.6h-4.9v-9.9
	c0-2.2-1.2-3.4-3.2-3.4c-2.1,0-3.8,1.6-3.8,3.7c0,0.1,0,0.2,0,0.3v9.4h-4.9V98.4z"/>
<path class="st0" d="M605.3,98.4h4.9v2.6h0.2c0.4-0.5,0.8-1,1.3-1.4c1.1-0.9,2.5-1.4,3.9-1.4c3.6,0,6.5,2.9,6.5,7.4v10.6h-4.9v-9.9
	c0-2.2-1.2-3.4-3.2-3.4c-2.1,0-3.8,1.6-3.8,3.7c0,0.1,0,0.2,0,0.3v9.4h-4.9V98.4z"/>
<path class="st0" d="M642.6,113.6c-0.6,0.6-1.2,1.1-1.9,1.4c-1.7,1-3.7,1.5-5.6,1.4c-5.1,0-9.2-4-9.3-9.1c0-5.1,4-9.2,9.1-9.3l0,0
	c4.9,0,8.8,4,8.8,8.8c0,0.7-0.1,1.2-0.1,1.6l-0.1,0.6h-12.8c0.7,2,2.6,3.2,4.7,3.1c1.2,0,2.5-0.3,3.5-1c0.4-0.3,0.8-0.6,1.2-1
	L642.6,113.6z M638.6,105.5c-0.6-2.2-2.8-3.5-5-2.9c-1.4,0.4-2.6,1.5-2.9,2.9H638.6z"/>
<path class="st0" d="M647.2,98.4h4.8v2.6h0.2c0.4-0.5,0.8-1,1.3-1.4c1.1-0.9,2.5-1.4,3.9-1.4h0.4v5.2l-0.4-0.1
	c-0.4-0.1-0.8-0.1-1.2-0.1c-2.3,0-4.1,1.8-4.1,4.7v8.3h-4.8V98.4z"/>
<path class="st0" d="M498.7,153.9h-0.2c-0.4,0.5-0.8,0.9-1.3,1.3c-1.1,0.8-2.5,1.3-3.9,1.3c-3.2,0-5.4-2.2-5.4-5s1.9-5.1,5.2-5.6
	l5.6-1c-0.2-1.5-1.6-2.5-3.1-2.3c-1.1,0-2.1,0.3-2.9,1c-0.4,0.3-0.7,0.6-1,1l-2.9-2.9c1.8-2.1,4.4-3.4,7.2-3.4c4.5,0,7.5,3.1,7.5,7
	v11h-4.9L498.7,153.9z M498.7,148.2l-4,0.7c-1.3,0.2-2,0.9-2,1.8c0,1.1,0.7,1.8,2.2,1.8c2.1,0,3.8-1.6,3.8-3.7c0-0.1,0-0.2,0-0.3
	L498.7,148.2z"/>
<path class="st0" d="M508.2,138.4h4.9v2.6h0.2c0.4-0.5,0.8-1,1.3-1.4c1.1-0.9,2.5-1.4,3.9-1.4c3.6,0,6.5,2.9,6.5,7.4v10.6h-4.8v-9.9
	c0-2.2-1.2-3.4-3.2-3.4c-2.1,0-3.8,1.6-3.8,3.7c0,0.1,0,0.2,0,0.3v9.4h-4.9V138.4z"/>
<path class="st0" d="M542.2,153.6H542c-0.4,0.5-0.8,1-1.4,1.4c-1.2,0.9-2.7,1.4-4.2,1.4c-4.2,0-7.9-3.8-7.9-9.2s3.7-9.2,7.9-9.2
	c2.2,0,4.3,1.1,5.6,2.9h0.2v-10.1h4.9v25.2h-4.9L542.2,153.6z M542.4,147.3c-0.1-2.5-2.2-4.4-4.7-4.3s-4.4,2.2-4.3,4.7
	c0.1,2.4,2.1,4.3,4.5,4.3c2.5,0,4.5-2,4.5-4.5C542.4,147.4,542.4,147.3,542.4,147.3z"/>
<path class="st0" d="M569.4,153.9h-0.2c-0.4,0.5-0.8,0.9-1.3,1.3c-1.1,0.8-2.5,1.3-3.9,1.3c-3.2,0-5.4-2.2-5.4-5s1.9-5.1,5.2-5.6
	l5.6-1c-0.2-1.5-1.6-2.5-3.1-2.3c-1.1,0-2.1,0.3-2.9,1c-0.4,0.3-0.7,0.6-1,1l-2.9-2.9c1.8-2.1,4.4-3.4,7.2-3.4c4.5,0,7.6,3.1,7.6,7
	v11h-4.9L569.4,153.9z M569.4,148.2l-4,0.7c-1.3,0.2-2,0.9-2,1.8c0,1.1,0.7,1.8,2.2,1.8c2.1,0,3.8-1.6,3.8-3.7c0-0.1,0-0.2,0-0.3
	L569.4,148.2z"/>
<path class="st0" d="M587.6,150.1c0.4,0.4,0.8,0.7,1.2,1c1,0.7,2.2,1,3.4,1c1.6,0,2.2-0.5,2.2-1.3c0-2-9-1.6-9-7.4
	c0-2.9,2.5-5.4,7-5.4c1.8,0,3.6,0.5,5.1,1.4c0.6,0.4,1.2,0.8,1.7,1.3l-2.9,3.1c-0.3-0.3-0.6-0.5-1-0.7c-0.9-0.5-1.9-0.7-2.9-0.7
	c-1.3,0-1.8,0.5-1.8,1.1c0,2,9,1.6,9,7.4c0,3-2.5,5.6-7.4,5.6c-2,0-3.9-0.5-5.6-1.6c-0.7-0.4-1.4-1-1.9-1.6L587.6,150.1z"/>
<path class="st0" d="M603,130.9h4.9V141h0.2c0.4-0.5,0.8-1,1.3-1.4c1.1-0.9,2.5-1.4,3.9-1.4c3.6,0,6.5,2.9,6.5,7.4v10.6h-4.9v-9.9
	c0-2.2-1.2-3.4-3.2-3.4c-2.1,0-3.8,1.6-3.8,3.7c0,0.1,0,0.2,0,0.3v9.4H603V130.9z"/>
<path class="st0" d="M632.8,138.1c5.1,0.1,9.1,4.3,9,9.4c-0.1,5.1-4.3,9.1-9.4,9c-5-0.1-9-4.2-9-9.2
	C623.4,142.1,627.6,138,632.8,138.1C632.7,138.1,632.7,138.1,632.8,138.1z M637.2,147.3c-0.1-2.5-2.2-4.4-4.7-4.3s-4.4,2.2-4.3,4.7
	c0.1,2.4,2.1,4.3,4.5,4.3c2.5,0,4.5-2,4.5-4.5C637.3,147.4,637.3,147.3,637.2,147.3L637.2,147.3z"/>
<path class="st0" d="M643.2,138.4h5.2l3.2,10.4h0.2l3.4-10.4h4l3.4,10.4h0.2l3.2-10.4h5.2l-6.2,17.6h-4.4l-3.3-10.3h-0.2l-3.3,10.3
	h-4.4L643.2,138.4z"/>
<path class="st0" d="M674,150.7c1.6,0,2.9,1.3,2.9,2.9s-1.3,2.9-2.9,2.9c-1.6,0-2.9-1.3-2.9-2.9C671.1,152,672.4,150.7,674,150.7
	C673.9,150.7,674,150.7,674,150.7z"/>
</svg>
