<svg id="Layer_1" data-name="Layer 1" xmlns="http://www.w3.org/2000/svg" viewBox="0 0 970 250"><defs><style>.cls-1{fill:#fff;}</style></defs><path class="cls-1" d="M476.45,204.12a7.38,7.38,0,0,0,1.55,1.37,7.78,7.78,0,0,0,4.39,1.33c2.88,0,4.14-1.26,4.14-2.88,0-4.28-12.6-2.38-12.6-11.16,0-4,3.42-7.38,9.18-7.38a12.16,12.16,0,0,1,6.34,1.73,11.33,11.33,0,0,1,2.12,1.69l-3.6,3.6a9.32,9.32,0,0,0-1.26-1.08,6.22,6.22,0,0,0-3.42-1.08c-2.74,0-3.78,1.08-3.78,2.52,0,4.28,12.6,2.38,12.6,11.16,0,4.14-3.6,7.74-9.54,7.74a13.61,13.61,0,0,1-7.31-2,9.75,9.75,0,0,1-2.41-2Z"/><path class="cls-1" d="M497,198.36h-3.06v-4.5h1.62c1.33,0,2-.72,2-2.16v-3.24h4.32v5.4h4v4.5h-4v5.94a2.23,2.23,0,0,0,2.34,2.52,5.18,5.18,0,0,0,1.4-.18,3,3,0,0,0,.58-.18V211c-.29.11-.61.18-.94.29a10.13,10.13,0,0,1-2.3.25c-3.6,0-5.94-2.3-5.94-6.48Z"/><path class="cls-1" d="M525.41,208.62a9.14,9.14,0,0,1-1.94,1.44,11.44,11.44,0,0,1-5.62,1.44,9.18,9.18,0,1,1-.18-18.36,8.83,8.83,0,0,1,8.82,8.82,13.25,13.25,0,0,1-.11,1.55l-.07.61H513.53a4.53,4.53,0,0,0,4.68,3.06,6.19,6.19,0,0,0,3.49-1,4.52,4.52,0,0,0,1.19-1Zm-4-8.1a4.09,4.09,0,0,0-7.92,0Z"/><path class="cls-1" d="M540,209h-.18a7.56,7.56,0,0,1-1.33,1.26,6.3,6.3,0,0,1-3.89,1.26c-3.24,0-5.4-2.16-5.4-5s1.94-5.08,5.22-5.65l5.58-1a2.82,2.82,0,0,0-3.06-2.34,4.67,4.67,0,0,0-2.92,1,5.67,5.67,0,0,0-1,1l-2.88-2.88a9.09,9.09,0,0,1,1.84-1.69,9.25,9.25,0,0,1,5.36-1.73c4.5,0,7.56,3.1,7.56,7v11H540Zm0-5.76-4,.72c-1.26.25-2,.9-2,1.8,0,1.12.72,1.8,2.16,1.8a3.74,3.74,0,0,0,3.78-4Z"/><path class="cls-1" d="M549.71,185.94h4.86V200.7l6.3-7.2h5.76l-6.48,7.38L567,211.14h-5.58l-4.5-6.84-2.34,2.7v4.14h-4.86Z"/><path class="cls-1" d="M572.75,193.5H578L582,205.38h.14l4.07-11.88h5.22l-6.66,17.64h-5.4Z"/><path class="cls-1" d="M594.71,205.2a5.65,5.65,0,0,0,1.26,1,6.22,6.22,0,0,0,3.42,1c1.62,0,2.16-.54,2.16-1.26,0-2-9-1.62-9-7.38,0-2.88,2.52-5.4,7-5.4a9.87,9.87,0,0,1,5.11,1.37,8.06,8.06,0,0,1,1.73,1.33l-2.88,3.06a6.54,6.54,0,0,0-1-.72,5.77,5.77,0,0,0-2.92-.72c-1.26,0-1.8.54-1.8,1.08,0,2,9,1.62,9,7.38,0,3-2.52,5.58-7.38,5.58a10.24,10.24,0,0,1-5.61-1.62,8.67,8.67,0,0,1-1.95-1.62Z"/><path class="cls-1" d="M619.55,204.12a7.38,7.38,0,0,0,1.55,1.37,7.78,7.78,0,0,0,4.39,1.33c2.88,0,4.14-1.26,4.14-2.88,0-4.28-12.6-2.38-12.6-11.16,0-4,3.42-7.38,9.18-7.38a12.1,12.1,0,0,1,6.33,1.73,11.09,11.09,0,0,1,2.13,1.69l-3.6,3.6a9.32,9.32,0,0,0-1.26-1.08,6.22,6.22,0,0,0-3.42-1.08c-2.74,0-3.78,1.08-3.78,2.52,0,4.28,12.6,2.38,12.6,11.16,0,4.14-3.6,7.74-9.54,7.74a13.61,13.61,0,0,1-7.31-2,9.75,9.75,0,0,1-2.41-2Z"/><path class="cls-1" d="M640.07,198.36H637v-4.5h1.62c1.33,0,2-.72,2-2.16v-3.24h4.32v5.4h4v4.5h-4v5.94a2.23,2.23,0,0,0,2.34,2.52,5.18,5.18,0,0,0,1.4-.18,3,3,0,0,0,.58-.18V211c-.29.11-.61.18-.94.29a10.13,10.13,0,0,1-2.3.25c-3.6,0-5.94-2.3-5.94-6.48Z"/><path class="cls-1" d="M668.51,208.62a9,9,0,0,1-2,1.44A11.36,11.36,0,0,1,661,211.5a9.18,9.18,0,1,1-.18-18.36,8.83,8.83,0,0,1,8.82,8.82,13.25,13.25,0,0,1-.11,1.55l-.07.61H656.63a4.53,4.53,0,0,0,4.68,3.06,6.19,6.19,0,0,0,3.49-1,4.69,4.69,0,0,0,1.19-1Zm-4-8.1a4.09,4.09,0,0,0-7.92,0Z"/><path class="cls-1" d="M683.09,209h-.18a7.56,7.56,0,0,1-1.33,1.26,6.3,6.3,0,0,1-3.89,1.26c-3.24,0-5.4-2.16-5.4-5s1.94-5.08,5.22-5.65l5.58-1a2.82,2.82,0,0,0-3.06-2.34,4.67,4.67,0,0,0-2.92,1,5.67,5.67,0,0,0-1,1l-2.88-2.88a9.09,9.09,0,0,1,1.84-1.69,9.25,9.25,0,0,1,5.36-1.73c4.5,0,7.56,3.1,7.56,7v11h-4.86Zm0-5.76-4,.72c-1.26.25-2,.9-2,1.8,0,1.12.72,1.8,2.16,1.8a3.74,3.74,0,0,0,3.78-4Z"/><path class="cls-1" d="M692.81,185.94h4.86V200.7l6.3-7.2h5.76l-6.48,7.38,6.84,10.26h-5.58L700,204.3l-2.34,2.7v4.14h-4.86Z"/><path class="cls-1" d="M714.23,205.74a2.88,2.88,0,1,1-2.88,2.88A2.84,2.84,0,0,1,714.23,205.74Z"/></svg>