<svg id="Layer_1" data-name="Layer 1" xmlns="http://www.w3.org/2000/svg" viewBox="0 0 970 250"><defs><style>.cls-1{fill:#fff;}</style></defs><path class="cls-1" d="M131.17,55h8.68v8.21a12.11,12.11,0,0,1-2.42,2.11,12.29,12.29,0,0,1-7,2.08,11.33,11.33,0,1,1,0-22.64,11.54,11.54,0,0,1,9.15,4.35l-3.1,3.1a8.92,8.92,0,0,0-1.58-1.55,7.27,7.27,0,0,0-4.47-1.55,7,7,0,0,0,0,14,7.13,7.13,0,0,0,3.57-.84,5.18,5.18,0,0,0,1.24-.87V58.75h-4Z"/><path class="cls-1" d="M156.9,64.79A7.55,7.55,0,0,1,155.22,66a9.78,9.78,0,0,1-4.83,1.24,7.91,7.91,0,1,1-.16-15.81,7.61,7.61,0,0,1,7.6,7.6,12.42,12.42,0,0,1-.09,1.33l-.07.53h-11a3.9,3.9,0,0,0,4,2.63,5.42,5.42,0,0,0,3-.83,4.12,4.12,0,0,0,1-.87Zm-3.41-7a3.52,3.52,0,0,0-6.82,0Z"/><path class="cls-1" d="M161.55,56h-2.64V52.08h1.4c1.14,0,1.7-.62,1.7-1.86V47.43h3.72v4.65h3.41V56h-3.41v5.11a1.92,1.92,0,0,0,2,2.17,4.76,4.76,0,0,0,1.21-.15,1.88,1.88,0,0,0,.49-.16v3.88c-.24.09-.52.15-.8.25a8.91,8.91,0,0,1-2,.21c-3.1,0-5.11-2-5.11-5.58Z"/><path class="cls-1" d="M180.15,60.92a7.93,7.93,0,0,0,1.27,1.18,5.83,5.83,0,0,0,3.38,1.14c2.48,0,3.87-1.39,3.87-3.25s-1.36-3.26-3.72-3.26a4.15,4.15,0,0,0-2.66.87,4.53,4.53,0,0,0-.9.84L178.13,58l.78-12.71h13.17V49.6h-9.14l-.16,3.88a2.73,2.73,0,0,1,.84-.38,6.19,6.19,0,0,1,2.26-.4c4.5,0,7.6,3.07,7.6,7.29s-3.26,7.44-8.22,7.44a11.31,11.31,0,0,1-6.14-1.71,9.35,9.35,0,0,1-2.07-1.7Z"/><path class="cls-1" d="M195.65,56.11c0-7,4.34-11.32,9.3-11.32s9.3,4.35,9.3,11.32-4.34,11.32-9.3,11.32S195.65,63.09,195.65,56.11Zm13.95,0c0-4.65-2.33-7-4.65-7s-4.65,2.32-4.65,7,2.32,7,4.65,7S209.6,60.76,209.6,56.11Z"/><path class="cls-1" d="M221.38,44.79a5.12,5.12,0,1,1-5.27,5.12A5.16,5.16,0,0,1,221.38,44.79Zm11.31.47h3.88L222.93,67h-3.88Zm-11.31,6.82a2.17,2.17,0,1,0-2.17-2.17A2.12,2.12,0,0,0,221.38,52.08Zm12.86,5.12A5.12,5.12,0,1,1,229,62.31,5.16,5.16,0,0,1,234.24,57.2Zm2.18,5.11a2.18,2.18,0,1,0-2.18,2.17A2.13,2.13,0,0,0,236.42,62.31Z"/><path class="cls-1" d="M254.86,51.46a7.91,7.91,0,1,1-8.07,7.91A8,8,0,0,1,254.86,51.46Zm3.87,7.91a3.88,3.88,0,1,0-3.87,4A3.87,3.87,0,0,0,258.73,59.37Z"/><path class="cls-1" d="M266.33,56H264V52.08h2.33v-.93c0-3.6,2-5.58,5.11-5.58a6.54,6.54,0,0,1,1.77.25c.25.09.5.15.71.22v3.87a3.45,3.45,0,0,1-.4-.15,2.85,2.85,0,0,0-1-.16,1.93,1.93,0,0,0-2,2.17v.31h5.58V50.53c0-3.6,2-5.58,5.12-5.58a8,8,0,0,1,2,.25c.28.09.56.15.81.21v3.88a4.51,4.51,0,0,1-.5-.15,4.27,4.27,0,0,0-1.21-.16,1.92,1.92,0,0,0-2,2.17v.93h3.41V56h-3.41V67h-4.19V56h-5.58V67h-4.18Z"/><path class="cls-1" d="M104.82,101.1h-.16a6.19,6.19,0,0,1-1.14,1.09,5.39,5.39,0,0,1-3.35,1.08,4.32,4.32,0,0,1-4.65-4.34c0-2.48,1.67-4.37,4.49-4.86l4.81-.87a2.43,2.43,0,0,0-2.64-2,4,4,0,0,0-2.51.87,4.82,4.82,0,0,0-.9.84l-2.48-2.48A7.92,7.92,0,0,1,97.87,89a8.07,8.07,0,0,1,4.62-1.49c3.88,0,6.52,2.67,6.52,6.05V103h-4.19Zm0-5-3.41.62c-1.09.22-1.71.78-1.71,1.55,0,1,.62,1.55,1.86,1.55a3.22,3.22,0,0,0,3.26-3.41Z"/><path class="cls-1" d="M112.41,87.77h4.19v2.17h.15a7.52,7.52,0,0,1,1.15-1.24,5.18,5.18,0,0,1,3.35-1.24c3.1,0,5.58,2.48,5.58,6.36V103h-4.18V94.44a2.64,2.64,0,0,0-2.8-3,3.22,3.22,0,0,0-3.25,3.41V103h-4.19Z"/><path class="cls-1" d="M141.09,100.79h-.16a5.48,5.48,0,0,1-1.17,1.24,6,6,0,0,1-3.63,1.24c-3.6,0-6.82-3.25-6.82-7.9s3.22-7.91,6.82-7.91a6,6,0,0,1,3.63,1.24,5.7,5.7,0,0,1,1.17,1.24h.16V81.26h4.18V103h-4.18Zm.15-5.42a3.88,3.88,0,1,0-3.87,4A3.87,3.87,0,0,0,141.24,95.37Z"/><path class="cls-1" d="M156.43,96.92a6.69,6.69,0,0,0,5.12,2.32c2.48,0,3.56-1.08,3.56-2.48,0-3.69-10.85-2-10.85-9.61,0-3.1,2.14-5.24,5.74-6.2V78.16h4V81a10.18,10.18,0,0,1,5.42,2.79l-3.1,3.1a8,8,0,0,0-1.08-.93,5.4,5.4,0,0,0-3-.93c-2.35,0-3.25.93-3.25,2.17,0,3.69,10.85,2,10.85,9.61,0,3.23-2.48,5.77-5.89,6.51v2.79h-4v-2.79a12.18,12.18,0,0,1-5-1.86,8.5,8.5,0,0,1-1.64-1.39Z"/><path class="cls-1" d="M171.78,92.11c0-7,4.34-11.32,9.3-11.32s9.3,4.35,9.3,11.32-4.34,11.32-9.3,11.32S171.78,99.09,171.78,92.11Zm13.95,0c0-4.65-2.33-7-4.65-7s-4.65,2.32-4.65,7,2.32,7,4.65,7S185.73,96.76,185.73,92.11Z"/><path class="cls-1" d="M210.06,100.79h-.15a5.53,5.53,0,0,1-1.18,1.24,6,6,0,0,1-3.63,1.24c-3.6,0-6.82-3.25-6.82-7.9s3.22-7.91,6.82-7.91a6,6,0,0,1,3.63,1.24,5.75,5.75,0,0,1,1.18,1.24h.15V81.26h4.19V103h-4.19Zm.16-5.42a3.88,3.88,0,1,0-3.88,4A3.88,3.88,0,0,0,210.22,95.37Z"/><path class="cls-1" d="M231.45,100.79a7.48,7.48,0,0,1-1.67,1.24,9.85,9.85,0,0,1-4.84,1.24,7.91,7.91,0,1,1-.15-15.81,7.61,7.61,0,0,1,7.59,7.6,12.42,12.42,0,0,1-.09,1.33l-.06.53h-11a3.91,3.91,0,0,0,4,2.63,5.39,5.39,0,0,0,3-.83,4.12,4.12,0,0,0,1-.87Zm-3.41-7a3.52,3.52,0,0,0-6.82,0Z"/><path class="cls-1" d="M235,81.26h4.19V103H235Z"/><path class="cls-1" d="M244.87,81.1a2.38,2.38,0,0,1,2.39,2.33,2.41,2.41,0,0,1-2.42,2.33,2.38,2.38,0,0,1-2.39-2.33A2.41,2.41,0,0,1,244.87,81.1Zm-2.11,6.67H247V103h-4.19Z"/><path class="cls-1" d="M248.19,87.77h4.49L256.19,98h.12l3.51-10.23h4.49L258.58,103h-4.66Z"/><path class="cls-1" d="M279.19,100.79a7.48,7.48,0,0,1-1.67,1.24,9.85,9.85,0,0,1-4.84,1.24,7.91,7.91,0,1,1-.16-15.81,7.61,7.61,0,0,1,7.6,7.6,12.42,12.42,0,0,1-.09,1.33l-.06.53H269a3.91,3.91,0,0,0,4,2.63,5.42,5.42,0,0,0,3-.83,4.12,4.12,0,0,0,1-.87Zm-3.41-7a3.52,3.52,0,0,0-6.82,0Z"/><path class="cls-1" d="M282.6,87.77h4.19v2.17h.15a7.11,7.11,0,0,1,1.15-1.24,5.16,5.16,0,0,1,3.35-1.24h.31V92l-.34-.07a7.61,7.61,0,0,0-1.06-.09c-2,0-3.56,1.55-3.56,4V103H282.6Z"/><path class="cls-1" d="M293.45,105.13a1.88,1.88,0,0,0,.49.16,4.82,4.82,0,0,0,1.21.15,2.7,2.7,0,0,0,2.64-1.86l.31-.77-5.89-15h4.49l3.57,10.08h.15l3.41-10.08h4.5l-6.2,16.43c-1.27,3.45-3.07,5.27-5.89,5.27a8.91,8.91,0,0,1-2-.21c-.27-.1-.55-.16-.8-.25Z"/><path class="cls-1" d="M128.38,123.46a7.91,7.91,0,1,1-8.06,7.91A8,8,0,0,1,128.38,123.46Zm3.87,7.91a3.88,3.88,0,1,0-3.87,4A3.87,3.87,0,0,0,132.25,131.37Z"/><path class="cls-1" d="M138.92,123.77h4.18v2.17h.16a7.11,7.11,0,0,1,1.15-1.24,5.15,5.15,0,0,1,3.34-1.24c3.1,0,5.58,2.48,5.58,6.36V139h-4.18v-8.52a2.64,2.64,0,0,0-2.79-3,3.23,3.23,0,0,0-3.26,3.41V139h-4.18Z"/><path class="cls-1" d="M161.08,141.13a2,2,0,0,0,.5.16,4.7,4.7,0,0,0,1.21.15,2.69,2.69,0,0,0,2.63-1.86l.31-.77-5.89-15h4.5l3.56,10.08h.16l3.41-10.08H176l-6.2,16.43c-1.27,3.45-3.07,5.27-5.89,5.27a8.82,8.82,0,0,1-2-.21c-.28-.1-.56-.16-.81-.25Z"/><path class="cls-1" d="M184.33,123.46a7.91,7.91,0,1,1-8.06,7.91A8,8,0,0,1,184.33,123.46Zm3.88,7.91a3.88,3.88,0,1,0-3.88,4A3.88,3.88,0,0,0,188.21,131.37Z"/><path class="cls-1" d="M194.87,123.77h4.19v8.53a2.63,2.63,0,0,0,2.79,2.94,3.21,3.21,0,0,0,3.25-3.41v-8.06h4.19V139H205.1v-2.17H205A6.77,6.77,0,0,1,203.8,138a5.23,5.23,0,0,1-3.35,1.24c-3.1,0-5.58-2.48-5.58-6.35Z"/><path class="cls-1" d="M212.7,123.77h4.18v2.17H217a7.46,7.46,0,0,1,1.14-1.24,5.18,5.18,0,0,1,3.35-1.24h.31V128l-.34-.07a7.58,7.58,0,0,0-1.05-.09c-2,0-3.57,1.55-3.57,4V139H212.7Z"/><path class="cls-1" d="M230.06,128h-2.33v-3.88h2.33v-1.55c0-3.6,2-5.58,5.11-5.58a6.54,6.54,0,0,1,1.77.25c.25.09.5.15.71.21v3.88a3.45,3.45,0,0,1-.4-.15,2.85,2.85,0,0,0-1-.16,1.93,1.93,0,0,0-2,2.17v.93H244V139h-4.19V128h-5.58v11h-4.18Zm11.87-10.86a2.38,2.38,0,0,1,2.39,2.33,2.41,2.41,0,0,1-2.42,2.33,2.38,2.38,0,0,1-2.39-2.33A2.41,2.41,0,0,1,241.93,117.1Z"/><path class="cls-1" d="M247.57,123.77h4.19v2.17h.15a7.11,7.11,0,0,1,1.15-1.24,5.16,5.16,0,0,1,3.35-1.24h.31V128l-.34-.07a7.61,7.61,0,0,0-1.06-.09c-2,0-3.56,1.55-3.56,4V139h-4.19Z"/><path class="cls-1" d="M259.66,133.85a4.91,4.91,0,0,0,1.09.87,5.37,5.37,0,0,0,2.94.83c1.39,0,1.86-.46,1.86-1.08,0-1.71-7.75-1.4-7.75-6.36,0-2.48,2.17-4.65,6-4.65a8.48,8.48,0,0,1,4.41,1.18,7.16,7.16,0,0,1,1.49,1.15l-2.48,2.63a5.9,5.9,0,0,0-.9-.62,5,5,0,0,0-2.52-.62c-1.08,0-1.55.47-1.55.93,0,1.71,7.76,1.4,7.76,6.36,0,2.6-2.17,4.8-6.36,4.8a8.92,8.92,0,0,1-4.84-1.39,7.18,7.18,0,0,1-1.67-1.4Z"/><path class="cls-1" d="M273.45,128h-2.63v-3.88h1.39c1.15,0,1.71-.62,1.71-1.86v-2.79h3.72v4.65h3.41V128h-3.41v5.11a1.92,1.92,0,0,0,2,2.17,4.68,4.68,0,0,0,1.2-.15,1.83,1.83,0,0,0,.5-.16v3.88c-.25.09-.53.15-.81.25a8.82,8.82,0,0,1-2,.21c-3.1,0-5.12-2-5.12-5.58Z"/><path class="cls-1" d="M154.21,170.62V175H138.87c0-10.23,10.54-10.23,10.54-15a2.84,2.84,0,0,0-3.1-2.79,3.8,3.8,0,0,0-2.85,1.33,4.93,4.93,0,0,0-.87,1.3l-3.72-1.86a8.57,8.57,0,0,1,1.61-2.54,8,8,0,0,1,6.14-2.58c4.65,0,7.59,3,7.59,6.83,0,6.17-6.82,7.16-9.3,11Z"/><path class="cls-1" d="M170.18,159.46a7.91,7.91,0,1,1-8.06,7.91A8,8,0,0,1,170.18,159.46Zm3.87,7.91a3.88,3.88,0,1,0-3.87,4A3.87,3.87,0,0,0,174.05,167.37Z"/><path class="cls-1" d="M180.72,159.77h4.18v2.17h.16a7.11,7.11,0,0,1,1.15-1.24,5.15,5.15,0,0,1,3.34-1.24h.31V164l-.34-.07a7.58,7.58,0,0,0-1.05-.09c-2,0-3.57,1.55-3.57,4V175h-4.18Z"/><path class="cls-1" d="M202.42,172.79h-.16a5.32,5.32,0,0,1-1.18,1.24,5.91,5.91,0,0,1-3.62,1.24c-3.6,0-6.82-3.25-6.82-7.9s3.22-7.91,6.82-7.91a5.91,5.91,0,0,1,3.62,1.24,5.52,5.52,0,0,1,1.18,1.24h.16v-8.68h4.18V175h-4.18Zm.15-5.42a3.88,3.88,0,1,0-3.87,4A3.87,3.87,0,0,0,202.57,167.37Z"/><path class="cls-1" d="M223.81,172.79a7.55,7.55,0,0,1-1.68,1.24,9.78,9.78,0,0,1-4.83,1.24,7.91,7.91,0,1,1-.16-15.81,7.61,7.61,0,0,1,7.6,7.6,12.42,12.42,0,0,1-.09,1.33l-.07.53h-11a3.9,3.9,0,0,0,4,2.63,5.42,5.42,0,0,0,3-.83,4.12,4.12,0,0,0,1-.87Zm-3.41-7a3.52,3.52,0,0,0-6.82,0Z"/><path class="cls-1" d="M227.22,159.77h4.18v2.17h.16a7.46,7.46,0,0,1,1.14-1.24,5.2,5.2,0,0,1,3.35-1.24h.31V164l-.34-.07a7.58,7.58,0,0,0-1.05-.09c-2,0-3.57,1.55-3.57,4V175h-4.18Z"/><path class="cls-1" d="M239.31,169.85a5.09,5.09,0,0,0,1.08.87,5.4,5.4,0,0,0,3,.83c1.39,0,1.86-.46,1.86-1.08,0-1.71-7.75-1.4-7.75-6.36,0-2.48,2.17-4.65,6-4.65a8.44,8.44,0,0,1,4.4,1.18,6.9,6.9,0,0,1,1.49,1.15l-2.48,2.63a5.9,5.9,0,0,0-.9-.62,5,5,0,0,0-2.51-.62c-1.08,0-1.55.47-1.55.93,0,1.71,7.75,1.4,7.75,6.36,0,2.6-2.17,4.8-6.35,4.8a8.92,8.92,0,0,1-4.84-1.39,7.18,7.18,0,0,1-1.67-1.4Z"/><path class="cls-1" d="M253.57,170.31a2.48,2.48,0,1,1-2.49,2.48A2.45,2.45,0,0,1,253.57,170.31Z"/><path class="cls-1" d="M259.19,155.43l-2.07-.36.54-1.72,2,.81-.28-2.17h1.81l-.27,2.17,2-.81.54,1.72-2.08.36,1.54,1.62-1.45,1.09-1.17-1.9-1.18,1.9-1.44-1.09Z"/><path class="cls-1" d="M128.21,206.11l-1.68-.42.35-1.05,1.62.63-.15-1.75h1.13l-.14,1.75,1.61-.63.35,1.05-1.68.42,1.12,1.4-.84.7-1-1.54-1,1.54-.84-.7Z"/><path class="cls-1" d="M133.1,203.52h1.4l5.39,7.21v-7.21h1.55v9.81H140l-5.39-7.22v7.22H133.1Z"/><path class="cls-1" d="M149.75,212.21a3.07,3.07,0,0,1-.7.63,3.83,3.83,0,0,1-2.17.63,3.51,3.51,0,0,1-.07-7,3.19,3.19,0,0,1,3.29,3.29c0,.21,0,.38,0,.51l0,.2h-5.18a2.06,2.06,0,0,0,2.1,1.68,2.64,2.64,0,0,0,1.43-.45,2.59,2.59,0,0,0,.53-.47Zm-1.12-3a1.81,1.81,0,0,0-1.82-1.54,2,2,0,0,0-2,1.54Z"/><path class="cls-1" d="M150.78,206.6h1.54l1.54,4.56,1.47-4.56h1.26l1.48,4.56,1.54-4.56h1.54l-2.38,6.73h-1.34L156,208.84l-1.47,4.49h-1.33Z"/><path class="cls-1" d="M170.85,212.07a4,4,0,0,1-.73.7,3.6,3.6,0,0,1-2.14.7,3.51,3.51,0,1,1,0-7,3.56,3.56,0,0,1,2.11.67,3.35,3.35,0,0,1,.69.66l-1,.91a2,2,0,0,0-.47-.44,2.24,2.24,0,0,0-1.35-.47,2.18,2.18,0,0,0,0,4.35,2.16,2.16,0,0,0,1.38-.49,4.7,4.7,0,0,0,.51-.49Z"/><path class="cls-1" d="M172.16,206.6h1.4v3.92a1.49,1.49,0,0,0,1.54,1.62,1.79,1.79,0,0,0,1.82-1.9V206.6h1.4v6.73h-1.4v-1a2.8,2.8,0,0,1-.53.56,2.43,2.43,0,0,1-1.57.56,2.65,2.65,0,0,1-2.66-2.95Z"/><path class="cls-1" d="M180.55,211.29a2.1,2.1,0,0,0,.47.47,2.2,2.2,0,0,0,1.28.45c.78,0,1.19-.41,1.19-.84,0-1.13-3.57-.55-3.57-3,0-1,.92-2,2.45-2a3.6,3.6,0,0,1,1.79.46,2.54,2.54,0,0,1,.59.45l-.91.91a3.29,3.29,0,0,0-.39-.28,2.23,2.23,0,0,0-1.08-.28c-.72,0-1.05.35-1.05.7,0,1.12,3.57.56,3.57,3,0,1.12-1,2.1-2.59,2.1a3.33,3.33,0,0,1-2-.63,3.44,3.44,0,0,1-.68-.63Z"/><path class="cls-1" d="M187,207.93h-1.26V206.6h.77c.44,0,.63-.21.63-.77v-1.47h1.26v2.24H190v1.33h-1.54v3.15c0,.71.32,1.06,1,1.06a1.74,1.74,0,0,0,.55-.1l.22-.11v1.33l-.29.11a2.85,2.85,0,0,1-.76.1c-1.34,0-2.1-.77-2.1-2.25Z"/><path class="cls-1" d="M194.8,206.46a3.51,3.51,0,1,1-3.5,3.5A3.47,3.47,0,0,1,194.8,206.46Zm2.1,3.5a2.1,2.1,0,1,0-2.1,2.18A2.07,2.07,0,0,0,196.9,210Z"/><path class="cls-1" d="M199.82,206.6h1.4v1a2.18,2.18,0,0,1,.45-.56,2.21,2.21,0,0,1,1.51-.56,2.45,2.45,0,0,1,1.6.56,2.7,2.7,0,0,1,.51.56,2.06,2.06,0,0,1,.51-.56,3,3,0,0,1,1.8-.56,2.6,2.6,0,0,1,2.45,2.87v4h-1.4v-4a1.39,1.39,0,0,0-1.4-1.54,1.64,1.64,0,0,0-1.61,1.82v3.72h-1.4v-4a1.39,1.39,0,0,0-1.41-1.54,1.64,1.64,0,0,0-1.61,1.82v3.72h-1.4Z"/><path class="cls-1" d="M217.94,212.21a3.07,3.07,0,0,1-.7.63,3.83,3.83,0,0,1-2.17.63,3.51,3.51,0,0,1-.07-7,3.18,3.18,0,0,1,3.29,3.29c0,.21,0,.38,0,.51l0,.2H213a2.07,2.07,0,0,0,2.1,1.68,2.64,2.64,0,0,0,1.43-.45,2.16,2.16,0,0,0,.53-.47Zm-1.12-3a1.8,1.8,0,0,0-1.82-1.54,2,2,0,0,0-2,1.54Z"/><path class="cls-1" d="M219.81,206.6h1.4v.91a4.18,4.18,0,0,1,.52-.51,2.4,2.4,0,0,1,1.52-.54h.35v1.47l-.19,0a1.84,1.84,0,0,0-.37,0,1.92,1.92,0,0,0-1.83,2v3.44h-1.4Z"/><path class="cls-1" d="M225.12,211.29a2,2,0,0,0,.48.47,2.2,2.2,0,0,0,1.27.45c.79,0,1.19-.41,1.19-.84,0-1.13-3.57-.55-3.57-3,0-1,.92-2,2.45-2a3.6,3.6,0,0,1,1.79.46,2.35,2.35,0,0,1,.59.45l-.91.91A3.29,3.29,0,0,0,228,208a2.2,2.2,0,0,0-1.08-.28c-.71,0-1.05.35-1.05.7,0,1.12,3.57.56,3.57,3,0,1.12-1,2.1-2.59,2.1a3.33,3.33,0,0,1-2-.63,3.37,3.37,0,0,1-.67-.63Z"/><path class="cls-1" d="M236.92,206.46a3.51,3.51,0,1,1-3.5,3.5A3.47,3.47,0,0,1,236.92,206.46ZM239,210a2.11,2.11,0,1,0-2.11,2.18A2.08,2.08,0,0,0,239,210Z"/><path class="cls-1" d="M242,206.6h1.4v1a2.57,2.57,0,0,1,2.1-1.12,2.65,2.65,0,0,1,2.66,2.94v3.93h-1.4V209.4a1.48,1.48,0,0,0-1.54-1.61,1.78,1.78,0,0,0-1.82,1.89v3.65H242Z"/><path class="cls-1" d="M250.12,203.52h1.4v9.81h-1.4Z"/><path class="cls-1" d="M253.12,214.73l.24.11a1.55,1.55,0,0,0,.6.1,1.27,1.27,0,0,0,1.19-.91l.28-.7-2.73-6.73h1.54l1.89,5,1.89-5h1.54l-2.94,7.5c-.56,1.41-1.33,2.17-2.45,2.17a2.54,2.54,0,0,1-.76-.1l-.29-.11Z"/></svg>