<?xml version="1.0" encoding="utf-8"?>
<!-- Generator: Adobe Illustrator 25.3.1, SVG Export Plug-In . SVG Version: 6.00 Build 0)  -->
<svg version="1.1" id="Layer_1" xmlns="http://www.w3.org/2000/svg" xmlns:xlink="http://www.w3.org/1999/xlink" x="0px" y="0px"
	 viewBox="0 0 970 250" style="enable-background:new 0 0 970 250;" xml:space="preserve">
<style type="text/css">
	.st0{fill:#FFFFFF;}
</style>
<path class="st0" d="M99.6,95.9h-7.2v-5h19.8v5H105v20.2h-5.4L99.6,95.9z"/>
<path class="st0" d="M114.7,90.9h4.9V101h0.2c0.4-0.5,0.8-1,1.3-1.4c1.1-1,2.5-1.5,3.9-1.5c3.6,0,6.5,2.9,6.5,7.4v10.6h-4.9v-9.9
	c0-2.2-1.2-3.4-3.2-3.4c-2.1,0-3.8,1.6-3.8,3.7c0,0.1,0,0.2,0,0.3v9.4h-4.9L114.7,90.9z"/>
<path class="st0" d="M138.6,90.7c1.5,0,2.7,1.2,2.8,2.7c0,1.5-1.2,2.8-2.7,2.9c-1.5,0-2.8-1.2-2.9-2.7c0-1.5,1.2-2.8,2.7-2.9
	C138.5,90.7,138.5,90.7,138.6,90.7z M136.1,98.4h4.9v17.6h-4.9L136.1,98.4z"/>
<path class="st0" d="M146.7,110.1c0.4,0.4,0.8,0.7,1.3,1c1,0.7,2.2,1,3.4,1c1.6,0,2.2-0.5,2.2-1.3c0-2-9-1.6-9-7.4
	c0-2.9,2.5-5.4,7-5.4c1.8,0,3.6,0.5,5.1,1.4c0.6,0.4,1.2,0.8,1.7,1.3l-2.9,3.1c-0.3-0.3-0.6-0.5-1-0.7c-0.9-0.5-1.9-0.7-2.9-0.7
	c-1.3,0-1.8,0.5-1.8,1.1c0,2,9,1.6,9,7.4c0,3-2.5,5.6-7.4,5.6c-2,0-3.9-0.5-5.6-1.6c-0.7-0.4-1.4-1-2-1.6L146.7,110.1z"/>
<path class="st0" d="M182.6,90.3c7.8,0,13.7,5.9,13.7,13.1c-0.3,7.6-6.6,13.4-14.2,13.2c-7.2-0.3-12.9-6-13.2-13.2
	C168.9,96.3,174.8,90.3,182.6,90.3z M182.6,111.6c4.5,0,8.1-3.6,8.1-8.1s-3.6-8.1-8.1-8.1c-4.5,0-8.1,3.6-8.1,8.1
	C174.4,107.9,178,111.6,182.6,111.6C182.5,111.6,182.5,111.6,182.6,111.6z"/>
<path class="st0" d="M200.2,98.4h4.9v2.6h0.2c0.4-0.5,0.8-1,1.3-1.4c1.1-0.9,2.5-1.4,3.9-1.4h0.4v5.2l-0.4-0.1
	c-0.4-0.1-0.8-0.1-1.2-0.1c-2.3,0-4.1,1.8-4.1,4.7v8.3h-4.9V98.4z"/>
<path class="st0" d="M216.3,90.7c1.5,0,2.7,1.2,2.8,2.7c-0.1,1.5-1.3,2.7-2.8,2.7c-1.5,0.1-2.8-1-2.9-2.5c-0.1-1.5,1-2.8,2.5-2.9
	C216.1,90.7,216.2,90.7,216.3,90.7L216.3,90.7z M213.9,98.4h4.9v17.6h-4.9V98.4z"/>
<path class="st0" d="M226.1,117c0.4,0.4,0.8,0.8,1.3,1.1c1,0.7,2.2,1.1,3.4,1.1c2.5,0.1,4.6-2,4.7-4.5c0-0.1,0-0.2,0-0.4v-1.4h-0.2
	c-0.4,0.5-0.8,1-1.3,1.4c-1.2,0.9-2.6,1.5-4.1,1.4c-3.9,0-7.6-3.6-7.6-8.8s3.6-8.8,7.6-8.8c1.5,0,2.9,0.5,4.1,1.4
	c0.5,0.4,0.9,0.9,1.3,1.4h0.2v-2.5h4.9v15.8c0.1,5-3.8,9.2-8.9,9.4c-0.2,0-0.4,0-0.7,0c-2.1,0-4.1-0.6-5.8-1.8
	c-0.7-0.5-1.4-1.1-1.9-1.8L226.1,117z M235.5,106.9c-0.1-2.3-2-4.1-4.3-4s-4.1,2-4,4.3c0.1,2.2,1.9,4,4.1,4c2.3,0,4.1-1.8,4.1-4.1
	C235.5,107.1,235.5,107,235.5,106.9L235.5,106.9z"/>
<path class="st0" d="M247.5,90.7c1.5,0,2.7,1.2,2.8,2.7c-0.1,1.5-1.3,2.7-2.8,2.7c-1.5,0.1-2.8-1-2.9-2.5c-0.1-1.5,1-2.8,2.5-2.9
	C247.2,90.7,247.3,90.7,247.5,90.7L247.5,90.7z M245,98.4h4.9v17.6H245V98.4z"/>
<path class="st0" d="M254.6,98.4h4.9v2.6h0.2c0.4-0.5,0.8-1,1.3-1.4c1.1-0.9,2.5-1.4,3.9-1.4c3.6,0,6.5,2.9,6.5,7.4v10.6h-4.9v-9.9
	c0-2.2-1.2-3.4-3.2-3.4c-2.1,0-3.8,1.6-3.8,3.7c0,0.1,0,0.2,0,0.3v9.4h-4.9L254.6,98.4z"/>
<path class="st0" d="M276.9,110.7l4.1,2.3l-5,7.7l-2.9-1.6L276.9,110.7z"/>
<path class="st0" d="M79.1,143.3H76v-4.5h1.6c1.3,0,2-0.7,2-2.2v-3.2h4.3v5.4h4v4.5h-4v5.9c-0.2,1.2,0.7,2.3,1.9,2.5
	c0.1,0,0.3,0,0.4,0c0.5,0,1-0.1,1.4-0.2c0.2,0,0.4-0.1,0.6-0.2v4.5c-0.3,0.1-0.6,0.2-0.9,0.3c-0.8,0.2-1.5,0.3-2.3,0.2
	c-3.6,0-5.9-2.3-5.9-6.5L79.1,143.3z"/>
<path class="st0" d="M92,138.4h4.8v2.6H97c0.4-0.5,0.8-1,1.3-1.4c1.1-0.9,2.5-1.4,3.9-1.4h0.4v5.2l-0.4-0.1
	c-0.4-0.1-0.8-0.1-1.2-0.1c-2.3,0-4.1,1.8-4.1,4.7v8.3H92V138.4z"/>
<path class="st0" d="M121.2,153.6c-0.6,0.6-1.2,1-1.9,1.4c-1.7,1-3.7,1.5-5.6,1.4c-5.1,0-9.2-4-9.3-9.1s4-9.2,9.1-9.3l0,0
	c4.9,0,8.8,4,8.8,8.8c0,0.5,0,1-0.1,1.6l-0.1,0.6h-12.8c0.7,2,2.6,3.2,4.7,3.1c1.2,0,2.5-0.3,3.5-1c0.4-0.3,0.8-0.6,1.2-1
	L121.2,153.6z M117.2,145.5c-0.6-2.2-2.8-3.5-5-2.9c-1.4,0.4-2.6,1.5-2.9,2.9H117.2z"/>
<path class="st0" d="M135.8,153.9h-0.2c-0.4,0.5-0.8,0.9-1.3,1.3c-1.1,0.8-2.5,1.3-3.9,1.3c-3.2,0-5.4-2.2-5.4-5s2-5.1,5.2-5.6
	l5.6-1c-0.2-1.5-1.6-2.5-3.1-2.3c-1.1,0-2.1,0.3-2.9,1c-0.4,0.3-0.7,0.6-1.1,1l-2.9-2.9c0.5-0.6,1.2-1.2,1.8-1.7
	c1.6-1.1,3.4-1.7,5.4-1.7c4.5,0,7.6,3.1,7.6,7v11h-4.9L135.8,153.9z M135.8,148.2l-4,0.7c-1.3,0.2-2,0.9-2,1.8
	c0,1.1,0.7,1.8,2.2,1.8c2.1,0,3.8-1.6,3.8-3.7c0-0.1,0-0.2,0-0.3L135.8,148.2z"/>
<path class="st0" d="M146.4,143.3h-3.1v-4.5h1.6c1.3,0,2-0.7,2-2.2v-3.2h4.3v5.4h4v4.5h-4v5.9c-0.2,1.2,0.7,2.3,1.9,2.5
	c0.1,0,0.3,0,0.4,0c0.5,0,1-0.1,1.4-0.2c0.2,0,0.4-0.1,0.6-0.2v4.5c-0.3,0.1-0.6,0.2-0.9,0.3c-0.8,0.2-1.5,0.3-2.3,0.2
	c-3.6,0-5.9-2.3-5.9-6.5L146.4,143.3z"/>
<path class="st0" d="M165.1,158.6c0.2,0.1,0.4,0.1,0.6,0.2c0.5,0.1,0.9,0.2,1.4,0.2c1.4,0,2.6-0.8,3.1-2.2l0.4-0.9l-6.8-17.5h5.2
	l4.1,11.7h0.2l4-11.7h5.2l-7.2,19.1c-1.5,4-3.6,6.1-6.8,6.1c-0.8,0-1.5-0.1-2.3-0.2c-0.3-0.1-0.6-0.2-0.9-0.3L165.1,158.6z"/>
<path class="st0" d="M192.8,138.1c5.1,0.1,9.1,4.3,9,9.4s-4.3,9.1-9.4,9c-5-0.1-9-4.2-9-9.2C183.5,142.1,187.7,138,192.8,138.1
	C192.8,138.1,192.8,138.1,192.8,138.1z M197.3,147.3c-0.1-2.5-2.2-4.4-4.7-4.3s-4.4,2.2-4.3,4.7c0.1,2.4,2.1,4.3,4.5,4.3
	c2.5,0,4.5-2,4.5-4.5C197.3,147.4,197.3,147.3,197.3,147.3L197.3,147.3z"/>
<path class="st0" d="M205.8,138.4h4.9v9.9c0,2.2,1.2,3.4,3.2,3.4c2.1,0,3.8-1.6,3.8-3.7c0-0.1,0-0.2,0-0.3v-9.4h4.9V156h-4.9v-2.5
	h-0.2c-0.4,0.5-0.8,1-1.3,1.4c-1.1,0.9-2.5,1.4-3.9,1.4c-3.6,0-6.5-2.9-6.5-7.4L205.8,138.4z"/>
<path class="st0" d="M227.2,138.4h4.9v2.6h0.2c0.4-0.5,0.8-1,1.3-1.4c1.1-0.9,2.5-1.4,3.9-1.4h0.4v5.2l-0.4-0.1
	c-0.4-0.1-0.8-0.1-1.2-0.1c-2.3,0-4.1,1.8-4.1,4.7v8.3h-4.9V138.4z"/>
<path class="st0" d="M242,150.1c0.4,0.4,0.8,0.7,1.3,1c1,0.7,2.2,1,3.4,1c1.6,0,2.2-0.5,2.2-1.3c0-2-9-1.6-9-7.4
	c0-2.9,2.5-5.4,7-5.4c1.8,0,3.6,0.5,5.1,1.4c0.6,0.4,1.2,0.8,1.7,1.3l-2.9,3.1c-0.3-0.3-0.6-0.5-1-0.7c-0.9-0.5-1.9-0.7-2.9-0.7
	c-1.3,0-1.8,0.5-1.8,1.1c0,2,9,1.6,9,7.4c0,3-2.5,5.6-7.4,5.6c-2,0-3.9-0.5-5.6-1.6c-0.7-0.4-1.4-1-2-1.6L242,150.1z"/>
<path class="st0" d="M273.1,153.6c-0.6,0.6-1.2,1-1.9,1.4c-1.7,1-3.7,1.5-5.6,1.4c-5.1,0-9.2-4-9.3-9.1c0-5.1,4-9.2,9.1-9.3
	c4.9,0,8.8,4,8.8,8.8c0,0.5,0,1-0.1,1.6l-0.1,0.6h-12.8c0.7,2,2.6,3.2,4.7,3.1c1.2,0,2.5-0.3,3.5-1c0.5-0.3,0.9-0.6,1.2-1
	L273.1,153.6z M269.1,145.5c-0.6-2.2-2.8-3.5-5-2.9c-1.4,0.4-2.6,1.5-2.9,2.9H269.1z"/>
<path class="st0" d="M278,130.9h4.9v25.2H278V130.9z"/>
<path class="st0" d="M288.8,143.3H286v-4.5h2.7V137c0-4.2,2.3-6.5,5.9-6.5c0.8,0,1.5,0.1,2.3,0.3c0.3,0.1,0.6,0.2,0.9,0.3v4.5
	c-0.2,0-0.4-0.1-0.6-0.2c-0.5-0.1-0.9-0.2-1.4-0.2c-1.2-0.1-2.3,0.9-2.4,2.1c0,0.1,0,0.3,0,0.4v1.1h4v4.5h-4v12.8h-4.9L288.8,143.3z
	"/>
</svg>
