<svg id="Layer_1" data-name="Layer 1" xmlns="http://www.w3.org/2000/svg" viewBox="0 0 728 90"><path d="M267.82,74.35c0,.41-.37.56-.78.56H265A2,2,0,0,1,263,73.79c-.57-.91-1.35-3.2-2.19-5.2-1-2.38-2.07-3.82-4-4.22a8.41,8.41,0,0,0-1.69-.13,11.26,11.26,0,0,0-1.25.06.35.35,0,0,0-.35.41v4.73c0,2.19.22,2.87.44,3.31.5,1,1.54.85,1.54,1.57,0,.44-.41.59-.88.59H249.3c-.47,0-.85-.15-.85-.59s1-.69,1.54-1.57c.25-.44.43-1.12.43-3.31V57.14c0-2.07,0-2.66-.87-3.16-.41-.26-.94-.35-.94-.85,0-.31.31-.56.84-.56h2.79l4.82,0c2.19,0,4.66.18,6.19,1.5a4.75,4.75,0,0,1,1.66,3.78,5.29,5.29,0,0,1-.5,2.35,5.82,5.82,0,0,1-4.6,3c-.18,0-.25.09-.25.19s.07.15.25.18c2.23.32,3.13,1.66,4.54,5,1.57,3.73,2,4.54,2.75,5C267.42,73.82,267.82,73.94,267.82,74.35Zm-6.35-16.12c0-3.38-2.19-4-5.38-4h-1.91c-.44,0-.63.16-.63.54v7.48c0,.25.16.43.5.43H256C258.65,62.64,261.47,61.64,261.47,58.23Z"/><path d="M283,71.53c0,.88-2.37,3.73-6.54,3.73-4.78,0-7.6-3.76-7.6-8.05,0-4.57,3.25-9,8.1-9a6.14,6.14,0,0,1,6.39,5.85c0,1.91-.94,2.19-2.47,2.23h-8.49c-.21,0-.34.09-.34.31v.16c0,3.28,1.88,6.22,5.2,6.22,3.06,0,4.31-2.13,5.07-2.13A.63.63,0,0,1,283,71.53Zm-10.82-7c0,.16.06.19.25.19h5.1c1.81,0,2.63-.37,2.63-1.81a3.34,3.34,0,0,0-3.48-3.17c-2.5,0-4.1,2.13-4.47,4.45A2.81,2.81,0,0,0,272.21,64.55Z"/><path d="M296.71,72.16a2.89,2.89,0,0,1-1.13,1.75A5.38,5.38,0,0,1,292,75.26a4,4,0,0,1-3.42-1.66,6.38,6.38,0,0,1-.87-3.73c0-2.75.22-5.57.22-8.67,0-.21-.1-.31-.32-.31h-2c-.22,0-.34-.12-.34-.37v-1a.36.36,0,0,1,.31-.37,3.68,3.68,0,0,0,2.44-1.44,8.5,8.5,0,0,0,.72-2.5c.07-.25.16-.38.41-.38h1.28c.25,0,.38.13.38.34v3.26c0,.56.12.72.69.72s.87,0,1.59-.06,1.54-.16,2.19-.16,1,.16,1,.56c0,.16-.07.38-.1.6-.12.75-.53,1-1.34,1-.57,0-1.26-.1-2-.13s-1.12,0-1.69,0a.33.33,0,0,0-.37.38c0,.4-.1,3.85-.1,4.79,0,1.15,0,2.19.13,3.63.22,2.47,1.25,3.16,2.47,3.16,1.63,0,2.22-1.22,2.82-1.22A.53.53,0,0,1,296.71,72.16Z"/><path d="M316.08,73.5c0,.38-.22.6-.84.72a19,19,0,0,0-2.88.88,1.84,1.84,0,0,1-.66.16c-.44,0-.69-.25-.69-.85V72.47a.08.08,0,0,0-.09-.09c-.06,0-.1.06-.16.15a6,6,0,0,1-5.07,2.73,4.87,4.87,0,0,1-3.91-1.76,6.69,6.69,0,0,1-1.16-4.41V63.83a5,5,0,0,0-.31-2.53c-.5-.78-1.79-.56-1.79-1.38,0-.31.22-.53.85-.66a16.7,16.7,0,0,0,2.82-.84,1.68,1.68,0,0,1,.72-.19c.4,0,.68.25.68.81V69c0,2.16,1,3.85,3.26,3.85a3.7,3.7,0,0,0,2.63-1.07c1.16-1.15,1.53-2.91,1.53-7.69,0-1.51,0-2.35-.31-2.82-.53-.78-1.78-.56-1.78-1.32,0-.34.15-.56.84-.72a15.9,15.9,0,0,0,2.94-.9,1.46,1.46,0,0,1,.6-.16c.4,0,.69.28.69.84V69.65a5.24,5.24,0,0,0,.31,2.57C314.74,72.91,316.08,72.78,316.08,73.5Z"/><path d="M330.07,60.33c0,.75-.25,1.44-1.06,1.44s-1.16-.69-2.1-.69a2.1,2.1,0,0,0-1.78,1.09c-.75,1.13-1.29,2.6-1.29,7.27a8.06,8.06,0,0,0,.38,3.19c.56,1.12,1.59,1,1.59,1.69,0,.44-.37.59-.87.59h-5.17c-.5,0-.87-.15-.87-.59,0-.66,1.12-.63,1.63-1.76a9,9,0,0,0,.34-3.12V63.83a4.77,4.77,0,0,0-.41-2.5c-.56-.81-1.78-.69-1.78-1.38,0-.34.19-.56.84-.69a11.07,11.07,0,0,0,2.57-.84,1.8,1.8,0,0,1,.75-.19c.47,0,.72.31.72.88v2.47c0,.06,0,.13.06.13s.1-.1.13-.16c.66-1.35,2.35-3.32,4.35-3.32A1.91,1.91,0,0,1,330.07,60.33Z"/><path d="M347,69.4a7.45,7.45,0,0,0,.47,3.42c.53.81,1.53.93,1.53,1.5s-.4.59-.87.59h-5.26c-.47,0-.88-.15-.88-.59,0-.63,1.07-.66,1.57-1.63a8.25,8.25,0,0,0,.41-3.29V64.52c0-2.72-1.44-3.91-3.29-3.91a3.77,3.77,0,0,0-2.69,1.1c-1.19,1.18-1.47,2.87-1.47,7.69a7.89,7.89,0,0,0,.43,3.35c.54.91,1.54,1,1.54,1.57s-.38.59-.85.59h-5.19c-.47,0-.85-.15-.85-.59,0-.66,1.13-.69,1.6-1.69a8.88,8.88,0,0,0,.38-3.23V63.3a3.51,3.51,0,0,0-.32-2c-.5-.75-1.81-.59-1.81-1.28,0-.35.15-.57.87-.72a14,14,0,0,0,2.91-.94,1.46,1.46,0,0,1,.6-.16c.41,0,.69.28.69.88V61c0,.1,0,.16.09.16s.09-.06.16-.16a6.08,6.08,0,0,1,5.07-2.72,5,5,0,0,1,4.1,1.94A6.6,6.6,0,0,1,347,64.43Z"/></svg>