<svg id="Layer_1" data-name="Layer 1" xmlns="http://www.w3.org/2000/svg" viewBox="0 0 728 90"><path d="M131.66,59.14c0,.69-.91.66-1.72,1.6a11.75,11.75,0,0,0-1.63,3c-.78,1.81-3.22,7.85-4.32,10.45-1,2.44-2.25,4.88-4.35,6.1a4.76,4.76,0,0,1-2.35.69,2.24,2.24,0,0,1-2.47-2.38c0-.78.31-1.53,1.06-1.53.91,0,1.13,1.31,2.63,1.31s2.38-1.65,3-2.87a.74.74,0,0,0,.09-.32.94.94,0,0,0-.06-.28L117,63.14a7.27,7.27,0,0,0-1.6-3c-.53-.41-1.22-.41-1.22-1,0-.38.28-.59,1-.59h5.1c.5,0,.82.21.82.56,0,.75-1.47.59-1.47,1.85a5.34,5.34,0,0,0,.5,1.94l3.22,8c.06.15.06.18.13.18s.09,0,.15-.18l2.22-5.64a12.74,12.74,0,0,0,1.16-3.88c0-1.69-1.53-1.37-1.53-2.22,0-.41.37-.59.94-.59h4.35C131.31,58.58,131.66,58.73,131.66,59.14Z"/><path d="M148.31,66.65c0,4.69-3.29,8.61-7.95,8.61s-8-3.29-8-8.39c0-4.73,3.31-8.64,8.07-8.64C145.43,58.23,148.31,61.92,148.31,66.65ZM140,59.8c-2.75,0-4.44,2.44-4.44,5.91,0,4.32,2,7.92,5.1,7.92s4.44-3,4.44-6.07C145.11,64,143.52,59.8,140,59.8Z"/><path d="M168.12,73.5c0,.38-.22.6-.85.72a19,19,0,0,0-2.88.88,1.84,1.84,0,0,1-.66.16c-.43,0-.68-.25-.68-.85V72.47c0-.06,0-.09-.1-.09s-.09.06-.15.15a6,6,0,0,1-5.07,2.73,4.87,4.87,0,0,1-3.92-1.76,6.74,6.74,0,0,1-1.15-4.41V63.83a4.87,4.87,0,0,0-.32-2.53c-.5-.78-1.78-.56-1.78-1.38,0-.31.22-.53.84-.66a16.14,16.14,0,0,0,2.82-.84,1.68,1.68,0,0,1,.72-.19c.41,0,.69.25.69.81V69c0,2.16,1,3.85,3.25,3.85a3.7,3.7,0,0,0,2.63-1.07c1.16-1.15,1.54-2.91,1.54-7.69,0-1.51,0-2.35-.32-2.82-.53-.78-1.78-.56-1.78-1.32,0-.34.16-.56.85-.72a16.15,16.15,0,0,0,2.94-.9,1.42,1.42,0,0,1,.59-.16c.41,0,.69.28.69.84V69.65a5.24,5.24,0,0,0,.31,2.57C166.77,72.91,168.12,72.78,168.12,73.5Z"/><path d="M182.11,60.33c0,.75-.25,1.44-1.07,1.44s-1.16-.69-2.1-.69a2.12,2.12,0,0,0-1.78,1.09c-.75,1.13-1.28,2.6-1.28,7.27a8.1,8.1,0,0,0,.37,3.19c.57,1.12,1.6,1,1.6,1.69,0,.44-.38.59-.88.59h-5.16c-.5,0-.88-.15-.88-.59,0-.66,1.13-.63,1.63-1.76a9,9,0,0,0,.34-3.12V63.83a4.8,4.8,0,0,0-.4-2.5c-.57-.81-1.79-.69-1.79-1.38,0-.34.19-.56.85-.69a11.22,11.22,0,0,0,2.57-.84,1.8,1.8,0,0,1,.75-.19c.47,0,.72.31.72.88v2.47c0,.06,0,.13.06.13s.09-.1.12-.16c.66-1.35,2.35-3.32,4.35-3.32A1.92,1.92,0,0,1,182.11,60.33Z"/></svg>