<svg id="Layer_1" data-name="Layer 1" xmlns="http://www.w3.org/2000/svg" viewBox="0 0 728 90"><path d="M247.67,23.09a8.28,8.28,0,0,0-1.75,3.16l-4,11.08a.33.33,0,0,1-.37.25h-1.85a.33.33,0,0,1-.35-.22l-4.22-12.43c0-.09-.06-.12-.09-.12s-.1,0-.13.12l-4.6,12.36a.38.38,0,0,1-.41.29h-1.81c-.28,0-.41-.07-.47-.29l-3.47-11.64a7.27,7.27,0,0,0-1.35-2.85c-.56-.56-1.44-.56-1.44-1.18s.41-.6,1-.6h5.13c.54,0,.85.19.85.56,0,.79-1.44.5-1.44,2a7.61,7.61,0,0,0,.41,2.06l2.37,8.05c0,.09.07.15.13.15s.09-.06.12-.15L234.62,21a.31.31,0,0,1,.34-.22h1.69c.22,0,.29.06.35.22l4.32,12.68c0,.09.06.18.12.18s.1-.09.13-.18c.31-.85,1.25-3.57,1.94-5.64a15.64,15.64,0,0,0,1-4.13c0-1.78-1.6-1.47-1.6-2.35,0-.4.41-.56,1-.56h4.42c.65,0,.94.19.94.56C249.27,22.18,248.51,22.21,247.67,23.09Z"/><path d="M263.91,35.45a.5.5,0,0,1,.53.5,2.41,2.41,0,0,1-4.72-.72c0-.06,0-.16-.06-.16s-.07,0-.13.13a5.93,5.93,0,0,1-5,2.5c-3,0-4.88-1.88-4.88-4a4.08,4.08,0,0,1,1.94-3.41c1.63-1.09,3.57-1.44,5.29-2.25,1.25-.56,2.63-1.47,2.63-3.16a2.49,2.49,0,0,0-2.72-2.57c-1.88,0-2.85,1.22-3.63,2.32-.63.87-.72,1.44-1.41,1.44s-.88-.72-.88-1.53a4.25,4.25,0,0,1,.53-2.29c.85-1.09,3.38-1.53,5.17-1.53,4,0,6.07,2.25,6.07,5.35,0,2.44-.09,5.32-.09,7.82,0,1.1.37,1.6,1,1.6Zm-4.41-6.92c0-.06,0-.12-.09-.12s-.1,0-.22.12c-1.1.85-3.16,1.38-4.67,2.38a3.14,3.14,0,0,0-1.56,2.6,2.31,2.31,0,0,0,2.5,2.38,3.81,3.81,0,0,0,3.38-2.23,10.22,10.22,0,0,0,.66-4.6Z"/><path d="M282.63,21.58c0,.69-.91.66-1.72,1.6a11.93,11.93,0,0,0-1.63,3C278.5,28,276.06,34,275,36.61c-1,2.44-2.25,4.88-4.35,6.1a4.76,4.76,0,0,1-2.35.69A2.24,2.24,0,0,1,265.79,41c0-.78.31-1.53,1.06-1.53.91,0,1.13,1.31,2.63,1.31s2.38-1.66,3-2.88a.71.71,0,0,0,.09-.31.88.88,0,0,0-.06-.28l-4.6-11.74a7.2,7.2,0,0,0-1.6-3c-.53-.41-1.22-.41-1.22-1,0-.38.28-.6,1-.6h5.1c.5,0,.82.22.82.56,0,.75-1.47.6-1.47,1.85a5.29,5.29,0,0,0,.5,1.94l3.22,8c.06.16.06.19.13.19s.09,0,.15-.19l2.22-5.63a12.82,12.82,0,0,0,1.16-3.88c0-1.69-1.53-1.38-1.53-2.22,0-.41.37-.6.94-.6h4.35C282.28,21,282.63,21.18,282.63,21.58Z"/></svg>