<svg id="Layer_1" data-name="Layer 1" xmlns="http://www.w3.org/2000/svg" viewBox="0 0 728 90"><path d="M301.91,34.6a2.93,2.93,0,0,1-1.13,1.76,5.42,5.42,0,0,1-3.57,1.34A4,4,0,0,1,293.8,36a6.25,6.25,0,0,1-.88-3.72c0-2.76.22-5.57.22-8.67,0-.22-.09-.31-.31-.31h-2c-.22,0-.35-.13-.35-.38V22c0-.19.1-.31.32-.38a3.69,3.69,0,0,0,2.44-1.44,8.72,8.72,0,0,0,.72-2.5c.06-.25.15-.37.4-.37h1.29c.25,0,.37.12.37.34v3.25c0,.57.13.72.69.72s.88,0,1.6-.06,1.53-.15,2.19-.15,1,.15,1,.56c0,.15-.06.37-.09.59-.13.75-.54,1-1.35,1-.56,0-1.25-.09-2-.12s-1.13,0-1.69,0a.33.33,0,0,0-.38.37c0,.41-.09,3.85-.09,4.79,0,1.16,0,2.19.12,3.63.22,2.47,1.25,3.16,2.48,3.16,1.62,0,2.22-1.22,2.81-1.22A.54.54,0,0,1,301.91,34.6Z"/><path d="M319.78,29.1c0,4.69-3.29,8.6-7.95,8.6s-8-3.28-8-8.39c0-4.72,3.31-8.63,8.07-8.63C316.9,20.68,319.78,24.37,319.78,29.1Zm-8.3-6.86c-2.75,0-4.44,2.44-4.44,5.92,0,4.32,2,7.91,5.1,7.91s4.44-3,4.44-6.07C316.58,26.4,315,22.24,311.48,22.24Z"/></svg>