<?xml version="1.0" encoding="UTF-8"?>
<svg id="Layer_2" data-name="Layer 2" xmlns="http://www.w3.org/2000/svg" xmlns:xlink="http://www.w3.org/1999/xlink" viewBox="0 0 500 1000">
  <defs>
    <style>
      .cls-1 {
        fill: #000;
      }

      .cls-1, .cls-2 {
        stroke-width: 0px;
      }

      .cls-2 {
        fill: none;
      }

      .cls-3 {
        clip-path: url(#clippath);
      }
    </style>
    <clipPath id="clippath">
      <rect class="cls-2" width="500" height="1000"/>
    </clipPath>
  </defs>
  <g id="Layer_1-2" data-name="Layer 1">
    <g class="cls-3">
      <g>
        <path class="cls-1" d="M67.02,346.91l8.33-14.62c.61-1.07,1.36-1.81,2.46-1.81,1.32,0,2.1.9,2.1,2.06v25.46c0,.73-.66,1.03-1.32,1.03s-1.32-.3-1.32-1.03v-23.82h-.09l-8.42,14.53c-.39.69-1.01,1.2-1.89,1.2-.92,0-1.49-.52-1.89-1.2l-8.42-14.53h-.09v23.82c0,.73-.66,1.03-1.32,1.03s-1.32-.3-1.32-1.03v-25.46c0-1.16.79-2.06,2.1-2.06,1.1,0,1.93.73,2.54,1.81l8.33,14.62h.18Z"/>
        <path class="cls-1" d="M96.23,337.54c7.5,0,10.04,2.15,10.04,11.05s-2.67,10.62-10.04,10.62-10-1.72-10-10.62,2.5-11.05,10-11.05ZM96.23,357.19c5.66,0,7.59-1.16,7.59-8.69s-1.97-8.94-7.59-8.94-7.54,1.2-7.54,8.94,1.84,8.69,7.54,8.69Z"/>
        <path class="cls-1" d="M112.32,331c0-.73.57-1.03,1.27-1.03.61,0,1.27.26,1.27,1.03v8.47h.09c1.27-1.2,3.16-1.94,7.5-1.94,7.63,0,9.95,2.15,9.95,11.05s-2.54,10.62-10.04,10.62-10.04-1.72-10.04-10.62v-17.59ZM122.37,357.19c5.7,0,7.59-1.29,7.59-8.69s-2.02-8.94-7.63-8.94-7.5,1.16-7.5,8.94,1.84,8.69,7.54,8.69Z"/>
        <path class="cls-1" d="M139.78,330.4c.96,0,1.75.77,1.75,1.72s-.79,1.72-1.75,1.72-1.8-.77-1.8-1.72.79-1.72,1.8-1.72ZM141.01,358.05c0,.65-.57.99-1.23.99-.7,0-1.23-.34-1.23-1.07v-19.18c0-.73.53-1.08,1.23-1.08.66,0,1.23.34,1.23.99v19.35Z"/>
        <path class="cls-1" d="M151.01,358.01c0,.73-.66,1.03-1.27,1.03-.7,0-1.27-.3-1.27-1.03v-27c0-.73.57-1.03,1.27-1.03.61,0,1.27.26,1.27,1.03v27Z"/>
        <path class="cls-1" d="M159.56,330.4c.96,0,1.75.77,1.75,1.72s-.79,1.72-1.75,1.72-1.8-.77-1.8-1.72.79-1.72,1.8-1.72ZM160.79,358.05c0,.65-.57.99-1.23.99-.7,0-1.23-.34-1.23-1.07v-19.18c0-.73.53-1.08,1.23-1.08.66,0,1.23.34,1.23.99v19.35Z"/>
        <path class="cls-1" d="M172.41,337.97h6.67c.75,0,.96.43.96,1.03s-.22.99-1.05.99h-6.58v14.19c0,2.11,1.1,2.92,3.42,2.92,1.1,0,2.89-.26,3.42-.26s.96.26.96.99c0,.52-.22.86-.83,1.03-.61.17-2.59.34-3.99.34-3.46,0-5.44-1.12-5.44-4.95v-14.28h-4.21c-.7,0-.92-.39-.92-.99s.22-1.03.92-1.03h4.21v-4.73c0-.73.53-1.08,1.23-1.08.66,0,1.23.34,1.23.99v4.82Z"/>
        <path class="cls-1" d="M184.43,339.17c0-.6.31-.99.83-1.12.79-.17,3.86-.52,7.72-.52,7.06,0,9.03,1.46,9.03,6.15v9.5c0,5.25-2.19,6.02-9.6,6.02s-8.99-1.25-8.99-5.98,1.49-6.32,8.55-6.32h7.59v-3.53c0-2.97-1.75-3.83-6.8-3.83-4.34,0-6.23.6-7.46.6-.44,0-.88-.34-.88-.99ZM199.56,348.93h-7.63c-5,0-6.05,1.07-6.05,4.08,0,3.18,1.32,4.17,6.62,4.17,5.79,0,7.06-.6,7.06-3.91v-4.34ZM187.89,331.95c-1.27-.86.31-2.84,1.8-1.59l3.77,3.14c.88.73-.17,2.15-1.4,1.29l-4.17-2.84Z"/>
        <path class="cls-1" d="M210.39,355.3c1.1,0,1.97.86,1.97,1.85,0,1.12-.88,1.93-1.97,1.93s-1.93-.82-1.93-1.93c0-.99.88-1.85,1.93-1.85Z"/>
      </g>
    </g>
  </g>
</svg>