<?xml version="1.0" encoding="UTF-8"?>
<svg id="Layer_2" data-name="Layer 2" xmlns="http://www.w3.org/2000/svg" xmlns:xlink="http://www.w3.org/1999/xlink" viewBox="0 0 500 1000">
  <defs>
    <style>
      .cls-1 {
        fill: none;
      }

      .cls-1, .cls-2 {
        stroke-width: 0px;
      }

      .cls-3 {
        clip-path: url(#clippath-1);
      }

      .cls-4 {
        clip-path: url(#clippath);
      }

      .cls-2 {
        fill: #fff;
      }
    </style>
    <clipPath id="clippath">
      <rect class="cls-1" width="500" height="1000"/>
    </clipPath>
    <clipPath id="clippath-1">
      <rect class="cls-1" width="500" height="1000"/>
    </clipPath>
  </defs>
  <g id="Layer_1-2" data-name="Layer 1">
    <g class="cls-4">
      <g class="cls-3">
        <g>
          <path class="cls-2" d="M59.17,88.28v8.6c0,1.63-1.32,2.28-2.85,2.28s-2.85-.65-2.85-2.28v-23.69c0-1.55,1.05-2.32,2.63-2.32h11.45c6.8,0,9.38,1.89,9.38,8.56,0,5.29-1.62,8.86-9.38,8.86h-8.38ZM59.17,83.37h8.38c2.72,0,3.68-1.12,3.68-3.91s-.96-3.57-3.73-3.57h-8.33v7.48Z"/>
          <path class="cls-2" d="M83.95,69.57c1.71,0,3.11,1.38,3.11,3.05s-1.4,3.01-3.11,3.01-3.03-1.33-3.03-3.01,1.32-3.05,3.03-3.05ZM86.67,96.92c0,1.59-1.23,2.24-2.72,2.24s-2.72-.65-2.72-2.24v-17.24c0-1.59,1.23-2.28,2.72-2.28s2.72.69,2.72,2.28v17.24Z"/>
          <path class="cls-2" d="M107.15,89.91v-10.28c0-1.59,1.18-2.24,2.67-2.24s2.72.65,2.72,2.24v10.53c0,8-2.02,9.07-9.91,9.07s-9.87-1.08-9.87-9.07v-10.53c0-1.59,1.18-2.24,2.72-2.24s2.72.65,2.72,2.24v10.28c0,3.91.39,4.56,4.43,4.56s4.52-.65,4.52-4.56ZM99.78,73.14c-.61-.43-.88-.99-.88-1.5,0-1.08,1.05-2.06,2.24-2.06.57,0,1.1.22,1.67.77l2.94,2.92c.39.39.57.86.57,1.25,0,.86-.79,1.55-1.8,1.55-.44,0-.88-.13-1.32-.43l-3.42-2.49Z"/>
          <path class="cls-2" d="M137.85,82.26c-2.94,0-3.51.39-3.51,3.27v11.39c0,1.59-1.18,2.24-2.68,2.24s-2.76-.65-2.76-2.24v-11.82c0-6.58,2.15-7.78,9.03-7.78,4.47,0,5.61,1.03,5.61,2.67,0,1.46-.83,2.45-2.37,2.45-.88,0-1.67-.17-3.33-.17Z"/>
          <path class="cls-2" d="M165,96.23c0,1.29-.39,1.98-1.84,2.37-.88.26-3.68.65-7.15.65-7.85,0-10.39-1.89-10.39-8.13v-5.59c0-6.58,2.85-8.21,10.22-8.21s9.52,1.81,9.52,8.08v2.45c0,1.85-.7,2.49-2.32,2.49h-11.97v1.07c0,2.24,1.58,3.1,4.74,3.1,2.37,0,5.31-.39,6.93-.39s2.28.47,2.28,2.11ZM151.05,86.08h8.95v-.95c0-2.54-.96-3.18-4.47-3.18-3.29,0-4.47.56-4.47,3.18v.95Z"/>
          <path class="cls-2" d="M176.49,96.92c0,1.59-1.23,2.24-2.76,2.24s-2.76-.65-2.76-2.24v-24.64c0-1.59,1.27-2.28,2.76-2.28s2.76.69,2.76,2.28v24.64Z"/>
          <path class="cls-2" d="M182.81,80.28c0-1.94,1.67-2.97,8.24-2.97,8.11,0,10.13,1.25,10.13,7.09v8.13c0,5.68-2.59,6.71-10.13,6.71s-9.47-1.03-9.47-6.84c0-4.77,1.18-6.71,9.21-6.71h5v-.86c0-2.11-.83-2.62-4.12-2.62s-5.26.52-6.53.52c-1.71,0-2.32-.95-2.32-2.45ZM195.79,90.04h-5.31c-3.03,0-3.6.52-3.6,2.19,0,1.81.66,2.32,4.34,2.32s4.56-.43,4.56-1.63v-2.88Z"/>
          <path class="cls-2" d="M214.82,91.8l-5.53,6.19c-.79.86-1.4,1.16-2.24,1.16-1.32,0-2.46-1.08-2.46-2.41,0-.47.13-1.12.57-1.59l6.31-7.14-5.7-6.41c-.48-.56-.7-1.29-.7-1.76,0-1.38,1.23-2.41,2.59-2.41.79,0,1.45.3,2.02.95l5.17,5.81,5.17-5.81c.4-.47,1.36-.95,1.97-.95,1.27,0,2.54,1.03,2.54,2.41,0,.52-.18,1.16-.7,1.76l-5.66,6.36,6.36,7.05c.53.6.57,1.16.57,1.59,0,1.38-1.23,2.49-2.59,2.49-.66,0-1.36-.3-2.1-1.12l-5.61-6.19Z"/>
        </g>
      </g>
    </g>
  </g>
</svg>