<?xml version="1.0" encoding="UTF-8"?>
<svg id="Layer_2" data-name="Layer 2" xmlns="http://www.w3.org/2000/svg" xmlns:xlink="http://www.w3.org/1999/xlink" viewBox="0 0 500 1000">
  <defs>
    <style>
      .cls-1 {
        fill: #000;
      }

      .cls-1, .cls-2, .cls-3 {
        stroke-width: 0px;
      }

      .cls-2 {
        fill: none;
      }

      .cls-4 {
        clip-path: url(#clippath-1);
      }

      .cls-5 {
        clip-path: url(#clippath);
      }

      .cls-3 {
        fill: #4d4d4d;
      }
    </style>
    <clipPath id="clippath">
      <rect class="cls-2" width="500" height="1000"/>
    </clipPath>
    <clipPath id="clippath-1">
      <rect class="cls-2" width="500" height="1000"/>
    </clipPath>
  </defs>
  <g id="Layer_1-2" data-name="Layer 1">
    <g class="cls-5">
      <g class="cls-4">
        <path class="cls-3" d="M332.2,869.9c2.17,0,2.73-.52,6.28-.52,2.64,0,3.42.43,3.42,1.78v1.73h-5.68c-6.37,0-7.45,2.08-7.45,6.85,0,5.89,2.04,6.8,9.27,6.8,6.76,0,9.19-.91,9.19-6.63v-8.15c0-5.29-1.82-7.32-8.54-7.32-7.8,0-8.63.82-8.63,3.03,0,1.39.56,2.43,2.12,2.43M341.91,880.18c0,1.17-1.04,1.56-3.9,1.56-3.12,0-3.99-.52-3.99-2.12,0-1.82.61-2.12,3.25-2.12h4.64v2.68ZM372.11,869.51c3.12,0,3.6.61,3.6,4.55v9.93c0,1.6,1.17,2.25,2.64,2.25s2.69-.65,2.69-2.25v-10.4c0-8.06-2.17-9.14-8.93-9.14-2.69,0-4.94.61-6.33,1.34-1.47-.78-3.47-1.34-6.24-1.34-6.76,0-8.93,1.08-8.93,9.14v10.4c0,1.6,1.21,2.25,2.69,2.25s2.64-.65,2.64-2.25v-9.93c0-3.94.48-4.55,3.6-4.55,2.9,0,3.6.61,3.6,3.55v10.92c0,1.6,1.21,2.25,2.69,2.25s2.69-.65,2.69-2.25v-10.4c0-3.47.61-4.08,3.6-4.08M387.88,869.9c2.17,0,2.73-.52,6.28-.52,2.64,0,3.42.43,3.42,1.78v1.73h-5.68c-6.37,0-7.45,2.08-7.45,6.85,0,5.89,2.04,6.8,9.27,6.8,6.76,0,9.19-.91,9.19-6.63v-8.15c0-5.29-1.82-7.32-8.54-7.32-7.8,0-8.62.82-8.62,3.03,0,1.39.56,2.43,2.12,2.43M397.46,880.18c0,1.17-1.04,1.56-3.9,1.56-3.12,0-3.99-.52-3.99-2.12,0-1.82.61-2.12,3.25-2.12h4.64v2.68ZM420.69,864.83c-1.17-.22-2.95-.39-4.68-.39-7.07,0-9.71.65-9.71,6.85v16.3c0,5.59,3.08,6.54,9.79,6.54,7.2,0,9.88-1.34,9.88-7.06,0-4.68-1.82-6.63-8.02-6.63h-6.63v-1.86c1.26.21,2.82.21,4.68.21,7.11,0,9.71-1.13,9.71-7.02v-8.58c0-1.52-1.13-2.12-2.47-2.12-1.43,0-2.56.61-2.56,2.12v1.65ZM416.01,874.07c-4.2,0-4.68-.17-4.68-2.38v-.17c0-1.91,1.21-2.3,4.68-2.3,1.52,0,3.38.13,4.68.3v1.78c0,2.21-.52,2.77-4.68,2.77M411.32,884.94h5.59c2.86,0,4.12.48,4.12,2.34,0,1.73-1.56,2.17-4.9,2.17-3.12,0-4.81-.39-4.81-1.82v-2.69Z"/>
        <path class="cls-1" d="M330.95,927.01h11.93c.73,0,.94.4.94.91s-.22.87-.94.87h-13.2c-.54,0-.91-.36-.91-.91v-22.08c0-.62.54-.87,1.12-.87.51,0,1.05.22,1.05.87v21.21Z"/>
        <path class="cls-1" d="M349.11,919.03h11.31v-2.86c0-2.21-1.09-3.59-5.51-3.59s-5.8,1.34-5.8,3.81v2.65ZM362.02,927.77c0,.33-.07.65-.69.83-.91.29-3.48.54-6.09.54-6.16,0-8.16-2.14-8.16-6.27v-6.35c0-4.17,2.46-5.66,7.9-5.66s7.47,1.6,7.47,5.51v2.65c0,1.12-.54,1.7-1.52,1.7h-11.82v2.07c0,2.97,1.6,4.57,6.16,4.57,2.9,0,5.48-.51,6.06-.51.4,0,.69.25.69.91"/>
        <path class="cls-1" d="M379.85,920.48h-6.31c-4.13,0-5,.91-5,3.45,0,2.68,1.09,3.52,5.47,3.52,4.79,0,5.84-.51,5.84-3.3v-3.66ZM367.34,912.25c0-.51.25-.83.69-.94.65-.15,3.19-.44,6.38-.44,5.84,0,7.47,1.23,7.47,5.19v8.01c0,4.42-1.81,5.07-7.94,5.07s-7.43-1.05-7.43-5.04,1.23-5.33,7.07-5.33h6.27v-2.97c0-2.5-1.45-3.23-5.62-3.23-3.59,0-5.15.51-6.16.51-.36,0-.72-.29-.72-.84"/>
        <path class="cls-1" d="M397.8,924.36c0-5.26-11.57-1.99-11.57-8.81,0-3.26,2.65-4.68,7.43-4.68,1.92,0,3.59.22,4.46.47.58.18.83.29.83.8,0,.72-.47.94-.87.94-.58,0-2.39-.51-4.75-.51-3.3,0-5.07,1.05-5.07,2.9,0,4.71,11.57,1.92,11.57,8.92,0,3.04-2.18,4.75-7.62,4.75-3.12,0-5.11-.54-5.69-.76-.51-.18-.69-.43-.69-.87,0-.73.47-.87.83-.87.87,0,2.61.8,5.84.8,3.73,0,5.29-1.12,5.29-3.08"/>
        <path class="cls-1" d="M405.95,928.17c0,.54-.47.83-1.02.83-.58,0-1.01-.29-1.01-.91v-16.17c0-.62.43-.91,1.01-.91.54,0,1.02.29,1.02.83v16.32ZM404.94,904.85c.8,0,1.45.65,1.45,1.45s-.65,1.45-1.45,1.45-1.49-.65-1.49-1.45.65-1.45,1.49-1.45"/>
        <path class="cls-1" d="M414,917.98v10.19c0,.54-.47.83-1.02.83-.58,0-1.01-.29-1.01-.91v-10.04c0-6.45,1.49-7.18,7.61-7.18,5.77,0,7.61.72,7.61,7.18v10.04c0,.62-.47.91-1.02.91s-1.02-.29-1.02-.83v-10.19c0-4.86-1.6-5.4-5.58-5.4-4.71,0-5.58.54-5.58,5.4"/>
        <path class="cls-1" d="M435.1,931.07c0,2.39,2.1,3.08,6.49,3.08s6.38-.76,6.38-3.59c0-2.32-1.2-3.26-6.09-3.26h-6.78v3.77ZM446.95,916.42v-3.33c-1.96-.29-3.52-.51-6.24-.51-4.46,0-5.62.76-5.62,3.66v.65c0,3.19.98,3.63,5.73,3.63,5.48,0,6.13-.72,6.13-4.1M446.95,908.59c0-.47.47-.8,1.01-.8s1.09.33,1.09.8v8.23c0,4.42-1.85,5.4-8.09,5.4-3.15,0-4.64-.22-5.77-.54h-.11v3.84h6.89c6.31,0,8.01,1.23,8.01,4.86,0,4.46-2.61,5.48-8.45,5.48s-8.48-1.05-8.48-4.82v-14.69c0-4.53,1.78-5.47,7.69-5.47,2.46,0,4.1.11,6.2.47v-2.76Z"/>
      </g>
    </g>
  </g>
</svg>