<?xml version="1.0" encoding="utf-8"?>
<!-- Generator: Adobe Illustrator 26.0.1, SVG Export Plug-In . SVG Version: 6.00 Build 0)  -->
<svg version="1.1" id="Layer_1" xmlns="http://www.w3.org/2000/svg" xmlns:xlink="http://www.w3.org/1999/xlink" x="0px" y="0px"
	 viewBox="0 0 320 50" style="enable-background:new 0 0 320 50;" xml:space="preserve">
<style type="text/css">
	.st0{fill:#FFFFFF;}
</style>
<g>
	<path class="st0" d="M156,28.3h-2.7v-1.2h6.8v1.2h-2.7v7.8H156V28.3z"/>
	<path class="st0" d="M163.6,27h0.2l4,9.2h-1.5l-0.5-1.3h-4.2l-0.5,1.3h-1.4L163.6,27z M165.3,33.7l-1.1-2.8
		c-0.2-0.4-0.3-0.9-0.4-1.4c-0.1,0.5-0.3,0.9-0.4,1.4l-1.1,2.8H165.3z"/>
	<path class="st0" d="M171.1,31l3-3.9h1.6l-3.2,4.3l3.5,4.8h-1.7l-2.8-3.8l-1,1.2v2.6h-1.4v-9.1h1.4v3.8c0,0.4,0,0.9-0.1,1.3
		C170.6,31.8,170.8,31.4,171.1,31z"/>
	<path class="st0" d="M177.3,27.1h5.7v1.2h-4.4v3.5h3.9v1.2h-3.9V35h4.6v1.2h-6L177.3,27.1z"/>
	<path class="st0" d="M187.5,31.6c0-2.6,2.1-4.7,4.7-4.7s4.7,2.1,4.7,4.7s-2.1,4.7-4.7,4.7c0,0,0,0,0,0c-2.5,0.1-4.6-1.9-4.7-4.5
		C187.5,31.8,187.5,31.7,187.5,31.6z M195.5,31.6c0.1-1.8-1.3-3.3-3.1-3.4c-1.8-0.1-3.3,1.3-3.4,3.1c0,0.1,0,0.2,0,0.4
		c-0.1,1.8,1.3,3.3,3.1,3.4c1.8,0.1,3.3-1.3,3.4-3.1C195.5,31.9,195.5,31.8,195.5,31.6z"/>
	<path class="st0" d="M198.6,27.1h5.7v1.2h-4.2V32h3.9v1.3h-3.9v2.9h-1.4V27.1z"/>
	<path class="st0" d="M205.8,27.1h5.7v1.2h-4.2V32h3.8v1.3h-3.9v2.9h-1.4L205.8,27.1z"/>
	<path class="st0" d="M219.2,27h0.2l4,9.2h-1.5l-0.5-1.3h-4.2l-0.5,1.3h-1.4L219.2,27z M220.8,33.7l-1.1-2.8
		c-0.2-0.4-0.3-0.9-0.4-1.4c-0.1,0.5-0.3,0.9-0.4,1.4l-1.1,2.8H220.8z"/>
	<path class="st0" d="M225.6,28.3h-2.7v-1.2h6.8v1.2H227v7.8h-1.4L225.6,28.3z"/>
	<path class="st0" d="M240.4,36.2h-1.6l-1.6-2.4c-0.3,0-0.5,0-0.8,0h-0.9v2.3h-1.4v-9.1h2.3c2.5,0,3.9,1.3,3.9,3.4
		c0.1,1.3-0.7,2.4-1.8,2.9L240.4,36.2z M236.3,32.6c1.8,0,2.5-0.8,2.5-2.1s-0.8-2.1-2.5-2.1h-0.8v4.3H236.3z"/>
	<path class="st0" d="M244.3,33.3l-3.4-6.2h1.6l2.1,3.8c0.2,0.4,0.4,0.9,0.5,1.3c0,0,0.3-0.8,0.6-1.3l2-3.8h1.5l-3.3,6.1v3h-1.4
		L244.3,33.3z"/>
	<path class="st0" d="M250.3,27h0.1l4.4,5.1l4.3-5.1h0.1v9.2h-1.4v-4.7c0-0.5,0.1-1.3,0.1-1.3c-0.3,0.4-0.5,0.7-0.8,1.1l-2.3,2.7
		h-0.2l-2.3-2.8c-0.4-0.4-0.8-1.1-0.8-1.1s0.1,0.8,0.1,1.3v4.7h-1.4V27z"/>
	<path class="st0" d="M264.4,27h0.2l4,9.2h-1.5l-0.5-1.3h-4.2l-0.5,1.3h-1.4L264.4,27z M266.1,33.7l-1.1-2.8
		c-0.2-0.5-0.5-1.4-0.5-1.4c-0.1,0.5-0.3,0.9-0.4,1.4l-1.1,2.8H266.1z"/>
	<path class="st0" d="M271.9,30.9c-0.4-0.4-0.9-1-0.9-1s0.1,0.8,0.1,1.3v5h-1.3V27h0.2l5,5.4c0.3,0.4,0.8,1,0.8,1s-0.1-0.8-0.1-1.3
		v-5h1.3v9.2h-0.2L271.9,30.9z"/>
</g>
</svg>
