<?xml version="1.0" encoding="utf-8"?>
<!-- Generator: Adobe Illustrator 26.0.1, SVG Export Plug-In . SVG Version: 6.00 Build 0)  -->
<svg version="1.1" id="Layer_1" xmlns="http://www.w3.org/2000/svg" xmlns:xlink="http://www.w3.org/1999/xlink" x="0px" y="0px"
	 viewBox="0 0 320 50" style="enable-background:new 0 0 320 50;" xml:space="preserve">
<style type="text/css">
	.st0{fill:#FFFFFF;}
</style>
<g>
	<path class="st0" d="M153.1,37.3c0-0.6,0.5-1.1,1.1-1.1c0.6,0,1.1,0.5,1.1,1.1c0,0.6-0.5,1.1-1.1,1.1
		C153.6,38.4,153.1,37.9,153.1,37.3C153,37.3,153,37.3,153.1,37.3z"/>
	<path class="st0" d="M158.2,36.5c-0.1-2,1.5-3.7,3.5-3.8c0.1,0,0.2,0,0.2,0c1-0.1,1.9,0.3,2.6,1l-0.8,0.8c-0.5-0.5-1.1-0.8-1.8-0.7
		c-1.4,0-2.6,1.1-2.6,2.5c0,0.1,0,0.1,0,0.2c-0.1,1.5,1.1,2.7,2.5,2.8c0.1,0,0.2,0,0.2,0c0.6,0,1.3-0.1,1.8-0.5v-1.3h-2v-1h3v2.9
		c-0.8,0.6-1.8,1-2.9,0.9c-2,0.1-3.8-1.5-3.8-3.6C158.2,36.7,158.2,36.6,158.2,36.5z"/>
	<path class="st0" d="M166.6,32.9h4.7v1h-3.5v2.8h3.1v1h-3.1v1.5h3.7v1h-4.8L166.6,32.9z"/>
	<path class="st0" d="M174.4,35.9c-0.3-0.3-0.7-0.8-0.7-0.8s0.1,0.6,0.1,1.1v4.1h-1.1v-7.4h0.1l4.1,4.4c0.3,0.3,0.7,0.8,0.7,0.8
		s-0.1-0.7-0.1-1.1v-4h1.1v7.4h-0.1L174.4,35.9z"/>
	<path class="st0" d="M180.3,37.6v-4.8h1.1v4.7c0,1.2,0.6,1.7,1.6,1.7c0.8,0.1,1.6-0.5,1.7-1.3c0-0.1,0-0.3,0-0.4v-4.7h1.1v4.8
		c0,1.5-1.3,2.8-2.8,2.8S180.3,39.2,180.3,37.6L180.3,37.6z"/>
	<path class="st0" d="M187.6,32.9h1.1v7.4h-1.1V32.9z"/>
	<path class="st0" d="M192.1,35.9c-0.3-0.3-0.7-0.8-0.7-0.8c0,0.4,0.1,0.7,0.1,1.1v4.1h-1.1v-7.4h0.1l4.1,4.4
		c0.3,0.3,0.7,0.8,0.7,0.8s-0.1-0.7-0.1-1.1v-4h1.1v7.4h-0.1L192.1,35.9z"/>
	<path class="st0" d="M198.1,32.9h4.7v1h-3.5v2.8h3.1v1h-3.1v1.5h3.7v1h-4.8L198.1,32.9z"/>
	<path class="st0" d="M206.1,36.5c0-2,1.6-3.7,3.6-3.8c0.1,0,0.1,0,0.2,0c1.2-0.1,2.3,0.5,2.9,1.5l-0.9,0.6
		c-0.4-0.7-1.2-1.1-2.1-1.1c-1.5,0.1-2.7,1.4-2.6,2.9c0.1,1.4,1.2,2.5,2.6,2.6c0.9,0,1.7-0.4,2.2-1.2l0.9,0.6
		c-0.7,1-1.8,1.6-3.1,1.6c-2,0-3.7-1.6-3.8-3.6C206.1,36.6,206.1,36.6,206.1,36.5z"/>
	<path class="st0" d="M216.6,32.8h0.1l3.3,7.4h-1.2l-0.4-1H215l-0.4,1h-1.1L216.6,32.8z M217.9,38.2l-0.9-2.3
		c-0.2-0.4-0.4-1.1-0.4-1.1c-0.1,0.4-0.2,0.7-0.4,1.1l-0.9,2.3H217.9z"/>
	<path class="st0" d="M226.1,40.2h-1.3l-1.3-1.9c-0.2,0-0.4,0-0.6,0h-0.7v1.9H221v-7.3h1.8c2,0,3.2,1.1,3.2,2.8c0.1,1-0.5,2-1.5,2.3
		L226.1,40.2z M222.8,37.3c1.5,0,2-0.6,2-1.7s-0.6-1.7-2-1.7h-0.6v3.5H222.8z"/>
	<path class="st0" d="M227.4,32.9h4.7v1h-3.5v2.8h3.1v1h-3.1v1.5h3.7v1h-4.8L227.4,32.9z"/>
	<path class="st0" d="M233.5,32.9h4.7v1h-3.5v2.8h3.1v1h-3.1v1.5h3.7v1h-4.8L233.5,32.9z"/>
	<path class="st0" d="M244.8,40.2h-1.3l-1.3-1.9c-0.2,0-0.4,0-0.6,0h-0.7v1.9h-1.1v-7.3h1.8c2,0,3.2,1.1,3.2,2.8
		c0.1,1-0.5,2-1.5,2.3L244.8,40.2z M241.5,37.3c1.5,0,2-0.6,2-1.7s-0.6-1.7-2-1.7h-0.6v3.5H241.5z"/>
	<path class="st0" d="M248.3,32.9h1.9c2,0,3.2,1.1,3.2,2.8s-1.1,2.8-3.2,2.8h-0.7v1.8h-1.1L248.3,32.9z M250.1,37.5
		c1.4,0,2-0.7,2-1.8s-0.6-1.8-2-1.8h-0.7v3.6H250.1z"/>
	<path class="st0" d="M256.6,32.8h0.1l3.2,7.4h-1.2l-0.4-1h-3.4l-0.4,1h-1.1L256.6,32.8z M257.9,38.2l-0.9-2.3
		c-0.1-0.4-0.3-0.7-0.4-1.1c-0.1,0.4-0.2,0.7-0.4,1.1l-0.9,2.3H257.9z"/>
	<path class="st0" d="M261.8,33.9h-2.2v-1h5.5v1h-2.2v6.3h-1.1V33.9z"/>
	<path class="st0" d="M266.1,32.9h1.1v4h3.5v-4h1.1v7.4h-1.1v-2.4h-3.5v2.4h-1.1V32.9z"/>
	<path class="st0" d="M273,38.8l0.9-0.5c0.3,0.6,1,1,1.7,1c0.7,0,1.3-0.4,1.3-1s-0.4-0.9-1.2-1.3l-0.5-0.2c-1.1-0.5-1.7-1-1.7-2.2
		c0-1,0.9-1.9,1.9-1.9c0,0,0.1,0,0.1,0c0.9-0.1,1.7,0.4,2.1,1.2l-0.9,0.5c-0.2-0.5-0.7-0.7-1.2-0.7c-0.5-0.1-0.9,0.3-0.9,0.7
		c0,0,0,0.1,0,0.1c0,0.5,0.3,0.8,1.1,1.1l0.5,0.2c1.3,0.6,1.9,1.1,1.9,2.3s-1,2-2.4,2C274.6,40.3,273.5,39.8,273,38.8z"/>
</g>
</svg>
