<?xml version="1.0" encoding="utf-8"?>
<!-- Generator: Adobe Illustrator 26.0.1, SVG Export Plug-In . SVG Version: 6.00 Build 0)  -->
<svg version="1.1" id="Layer_1" xmlns="http://www.w3.org/2000/svg" xmlns:xlink="http://www.w3.org/1999/xlink" x="0px" y="0px"
	 viewBox="0 0 320 50" style="enable-background:new 0 0 320 50;" xml:space="preserve">
<style type="text/css">
	.st0{fill:#FFFFFF;}
</style>
<g>
	<path class="st0" d="M194.2,9.5c-0.3-0.3-0.7-0.9-0.7-0.9c0,0.4,0.1,0.7,0.1,1.1V14h-1.1V6.2h0.2l4.2,4.6c0.3,0.3,0.7,0.9,0.7,0.9
		s-0.1-0.7-0.1-1.1V6.3h1.1v7.8h-0.1L194.2,9.5z"/>
	<path class="st0" d="M200.4,11.3v-5h1.2v4.9c0,1,0.8,1.7,1.7,1.7c1,0,1.7-0.8,1.7-1.7c0,0,0,0,0,0V6.3h1.2v5
		c-0.1,1.6-1.5,2.9-3.1,2.8C201.7,14,200.5,12.8,200.4,11.3z"/>
	<path class="st0" d="M213.5,14h-1.4l-1.4-2c-0.2,0-0.4,0-0.6,0.1h-0.7v2h-1.2V6.3h1.9c2.1,0,3.3,1.1,3.3,2.9
		c0.1,1.1-0.5,2.1-1.5,2.4L213.5,14z M210,11c1.5,0,2.1-0.7,2.1-1.8s-0.6-1.8-2.1-1.8h-0.7V11H210z"/>
	<path class="st0" d="M214.2,12.5l1-0.6c0.3,0.7,1,1.1,1.8,1.1c0.8,0,1.3-0.4,1.3-1.1s-0.4-1-1.3-1.3l-0.5-0.2
		c-1.1-0.5-1.8-1.1-1.8-2.2c0-1.1,0.9-2,2-2c0.1,0,0.1,0,0.2,0c0.9,0,1.7,0.5,2.1,1.2L218.1,8c-0.2-0.5-0.7-0.8-1.2-0.8
		c-0.5-0.1-0.9,0.3-1,0.8c0,0,0,0.1,0,0.1c0,0.6,0.3,0.8,1.1,1.2l0.5,0.2c1.3,0.6,2,1.2,2,2.4s-1.1,2.1-2.5,2.1
		C215.8,14.2,214.7,13.6,214.2,12.5z"/>
	<path class="st0" d="M221,6.3h1.2V14H221V6.3z"/>
	<path class="st0" d="M225.8,9.5c-0.3-0.3-0.7-0.9-0.7-0.9c0,0.4,0.1,0.7,0.1,1.1V14H224V6.2h0.2l4.2,4.6c0.3,0.3,0.7,0.9,0.7,0.9
		S229,11,229,10.6V6.3h1.1v7.8H230L225.8,9.5z"/>
	<path class="st0" d="M231.7,10.2c-0.1-2.1,1.6-3.9,3.7-4c0.1,0,0.2,0,0.3,0c1-0.1,2,0.3,2.7,1L237.6,8c-0.5-0.5-1.2-0.8-1.9-0.8
		c-1.5,0-2.7,1.2-2.7,2.7c0,0.1,0,0.1,0,0.2c-0.1,1.5,1.1,2.8,2.6,2.9c0.1,0,0.2,0,0.2,0c0.7,0,1.3-0.1,1.9-0.5v-1.3h-2.1v-1.1h3.2
		v3c-0.9,0.7-1.9,1-3,1c-2.1,0.1-4-1.5-4.1-3.6C231.7,10.4,231.7,10.3,231.7,10.2z"/>
</g>
</svg>
