<?xml version="1.0" encoding="utf-8"?>
<!-- Generator: Adobe Illustrator 26.0.1, SVG Export Plug-In . SVG Version: 6.00 Build 0)  -->
<svg version="1.1" id="Layer_1" xmlns="http://www.w3.org/2000/svg" xmlns:xlink="http://www.w3.org/1999/xlink" x="0px" y="0px"
	 viewBox="0 0 320 50" style="enable-background:new 0 0 320 50;" xml:space="preserve">
<style type="text/css">
	.st0{clip-path:url(#SVGID_00000085218028728559382050000015226572736207839139_);}
	.st1{fill:#FFFFFF;}
	.st2{fill:#FF6C7C;}
</style>
<g>
	<g>
		<defs>
			<rect id="SVGID_1_" y="0" width="320" height="50"/>
		</defs>
		<clipPath id="SVGID_00000026130557912882832740000005174277176195733174_">
			<use xlink:href="#SVGID_1_"  style="overflow:visible;"/>
		</clipPath>
		<g style="clip-path:url(#SVGID_00000026130557912882832740000005174277176195733174_);">
			<path class="st1" d="M186.1,29.2h58c1.7,0,3.1,1.4,3.1,3.1v8.5c0,1.7-1.4,3.1-3.1,3.1h-58c-1.7,0-3.1-1.4-3.1-3.1v-8.5
				C182.9,30.6,184.3,29.2,186.1,29.2z"/>
		</g>
	</g>
	<path class="st2" d="M188.7,33.7h1.3v4.8h2.7v1.1h-3.9L188.7,33.7z"/>
	<path class="st2" d="M193.6,33.7h3.9v1.1h-2.7v1.8h2.4v1h-2.4v0.8h2.8v1.1h-4.1L193.6,33.7z"/>
	<path class="st2" d="M201.1,33.7h0.1l2.7,5.9h-1.3l-0.3-0.7h-2.4l-0.3,0.7h-1.2L201.1,33.7z M201.9,37.9l-0.4-1
		c-0.1-0.3-0.3-0.7-0.4-1c0,0-0.2,0.6-0.4,1l-0.4,1H201.9z"/>
	<path class="st2" d="M209.2,39.6h-1.4l-1-1.5c-0.1,0-0.2,0-0.4,0H206v1.5h-1.2v-5.8h1.6c1.7,0,2.7,0.8,2.7,2.2
		c0.1,0.8-0.4,1.5-1.1,1.8L209.2,39.6z M206.4,37.1c1,0,1.4-0.3,1.4-1.1s-0.4-1.2-1.4-1.2H206v2.3L206.4,37.1z"/>
	<path class="st2" d="M212.1,36.8c-0.3-0.3-0.5-0.5-0.7-0.8c0,0,0.1,0.6,0.1,1.1v2.5h-1.1v-5.9h0.1l3,2.8c0.2,0.3,0.5,0.5,0.7,0.8
		c0,0-0.1-0.7-0.1-1.1v-2.4h1.1v5.9h-0.1L212.1,36.8z"/>
	<path class="st2" d="M218.2,33.7h0.1l2.9,3.2l2.9-3.2h0.1v5.9h-1.2v-2.2c0-0.4,0.1-1,0.1-1s-0.4,0.5-0.6,0.8l-1.2,1.3h-0.1
		l-1.2-1.3c-0.3-0.3-0.6-0.8-0.6-0.8s0,0.6,0,1v2.2h-1.2L218.2,33.7z"/>
	<path class="st2" d="M225.4,36.6c0-1.7,1.3-3.1,3-3.2s3.1,1.3,3.2,3c0,1.7-1.3,3.1-3,3.2c0,0-0.1,0-0.1,0
		C226.9,39.7,225.5,38.4,225.4,36.6C225.4,36.7,225.4,36.7,225.4,36.6z M230.3,36.6c-0.1-1-0.9-1.8-1.9-1.7s-1.8,0.9-1.7,1.9
		c0.1,1,0.9,1.7,1.8,1.7c1,0,1.8-0.8,1.8-1.8C230.3,36.7,230.3,36.7,230.3,36.6z"/>
	<path class="st2" d="M237.2,39.6h-1.4l-1-1.5h-0.4H234v1.5h-1.2v-5.8h1.6c1.7,0,2.7,0.8,2.7,2.2c0.1,0.8-0.4,1.5-1.1,1.8
		L237.2,39.6z M234.4,37.1c1,0,1.4-0.3,1.4-1.1s-0.5-1.2-1.4-1.2H234v2.3L234.4,37.1z"/>
	<path class="st2" d="M238.3,33.7h3.9v1.1h-2.7v1.8h2.4v1h-2.4v0.8h2.8v1.1h-4.1L238.3,33.7z"/>
</g>
</svg>
