<svg id="Layer_1" data-name="Layer 1" xmlns="http://www.w3.org/2000/svg" viewBox="0 0 128.01 199.73"><defs><style>.cls-1{fill:#fff;}.cls-2{fill:#b7ab89;}.cls-3{fill:#b1a181;}.cls-4{fill:#bc8524;}.cls-5{fill:#741818;}.cls-6{fill:#9d2223;}.cls-7{fill:#42445a;}.cls-8{fill:#020200;}.cls-9{fill:#36383c;}.cls-10{fill:#df2421;}.cls-11{fill:#0c74b0;}.cls-12{fill:#ada081;}.cls-13{fill:#985f3f;}.cls-14{fill:#24292b;}.cls-15{fill:#474648;}.cls-16{fill:#ebf7fc;}.cls-17{fill:#111313;}.cls-18{fill:#cc2023;}.cls-19{fill:#40445b;}</style></defs><path class="cls-1" d="M80.25,146.75s6.7.87,10.5,3.12,7.17,5.54,7.83,9.55.39,6.6-1.62,10-7.41,8.19-7.41,8.19,4.19-2.92,8-2.75,6.52,1.54,7.72,4.32a10.55,10.55,0,0,1,.3,6.94c-.39,1.2-2.74,2.95-7.79,4a127.57,127.57,0,0,1-13.66,1.67c-1.26.1-13.49-.6-13.49-.6s-3.34-20.32-1.78-29.08,11.36-15.36,11.36-15.36"/><path class="cls-2" d="M70.84,191c1.44.09,12.15.68,13.3.59h.11a121.41,121.41,0,0,0,13.53-1.66c4.72-1,7.24-2.62,7.64-3.84a10.33,10.33,0,0,0-.29-6.8c-1.13-2.61-3.67-4-7.55-4.2s-7.87,2.69-7.91,2.72l-.25-.32c.06,0,5.4-4.77,7.37-8.14,1.88-3.21,2.28-5.71,1.59-9.9-.76-4.65-5.17-7.89-7.73-9.41C87.14,148,81,147.06,80.3,147a35.78,35.78,0,0,0-5,4.34c-2.39,2.48-5.41,6.38-6.21,10.85-1.46,8.21,1.45,26.94,1.76,28.85m27-.68A117.9,117.9,0,0,1,84.28,192h-.11c-1.25.1-13-.57-13.51-.6H70.5l0-.15c0-.21-3.33-20.47-1.78-29.15.82-4.57,3.89-8.54,6.32-11.07a35.67,35.67,0,0,1,5.13-4.42l.06,0h.07c.07,0,6.79.89,10.58,3.14,2.62,1.55,7.14,4.87,7.92,9.68.71,4.3.29,6.87-1.64,10.17a37.85,37.85,0,0,1-6,6.94,13.35,13.35,0,0,1,6.49-1.79c4,.18,6.7,1.67,7.89,4.43a10.76,10.76,0,0,1,.31,7.09c-.41,1.23-2.73,3-7.94,4.1"/><path class="cls-3" d="M80.22,147.09a39.15,39.15,0,0,1,6.06,1.3,19.29,19.29,0,0,1,4.4,1.83,20.62,20.62,0,0,1,4.63,3.68,11.39,11.39,0,0,1,2.77,4.77,17.48,17.48,0,0,1,.41,2.69,13.48,13.48,0,0,1,0,2.46,14.79,14.79,0,0,1-4,8.32,56.67,56.67,0,0,1-5.12,5.16l-.1.09c-.34.3.1.75.45.5-.07.05,0,0,0,0l.31-.2c.35-.22.7-.42,1.05-.61a16.58,16.58,0,0,1,3.43-1.43,10.53,10.53,0,0,1,4.18-.3,9.7,9.7,0,0,1,3.53,1.06,6.09,6.09,0,0,1,2.28,2.17,9.86,9.86,0,0,1,.66,7.56,2.3,2.3,0,0,1-.37.57,4.9,4.9,0,0,1-.84.74,11.23,11.23,0,0,1-2.86,1.42,26.36,26.36,0,0,1-4.3,1.11c-2.71.5-5.46.83-8.21,1.1-1.06.11-2.13.2-3.19.29l-1,.08-.33,0H84c-1.29,0-2.58-.06-3.86-.12-3.1-.13-6.2-.3-9.3-.47h-.19l.31.27c-.29-1.75-.53-3.51-.76-5.26-.51-3.82-.93-7.66-1.2-11.51-.13-2-.22-4-.23-6.05a40.68,40.68,0,0,1,.28-5.29,20.34,20.34,0,0,1,5.44-10.7,35,35,0,0,1,5.83-5.24l.08-.05s-.09.06,0,0c.35-.24,0-.84-.31-.6a32.61,32.61,0,0,0-5,4.34c-2.91,3-5.51,6.63-6.39,10.78a29.2,29.2,0,0,0-.5,5.11c-.05,2,0,4,.12,6,.22,4,.63,8,1.13,12,.28,2.16.53,4.34.92,6.49,0,0,0,.06,0,.09a.34.34,0,0,0,.3.27l2.8.15c1.89.11,3.79.2,5.68.29,1.51.07,3,.16,4.53.17.43,0,.86,0,1.29-.07l2.84-.25c2.78-.26,5.55-.57,8.3-1a21.72,21.72,0,0,0,7.84-2.47,5.3,5.3,0,0,0,1.75-1.54,3.17,3.17,0,0,0,.37-.87,10.27,10.27,0,0,0,.3-1.73c.27-2.73-.4-5.76-2.56-7.6a8,8,0,0,0-3.15-1.58,12,12,0,0,0-4.22-.41,15.65,15.65,0,0,0-6.66,2.52l-.42.28.45.5a56.92,56.92,0,0,0,4.62-4.57c2.18-2.41,4.11-5.15,4.67-8.43A16.1,16.1,0,0,0,99,159.8a11.23,11.23,0,0,0-2.17-5.15,18.44,18.44,0,0,0-4.39-4.11,19.34,19.34,0,0,0-4.66-2.38,39.28,39.28,0,0,0-7.35-1.73h-.14c-.43-.06-.48.61,0,.67"/><path class="cls-2" d="M80.14,146.66a.25.25,0,0,0,0,.15.12.12,0,0,0,.12.08h0a.18.18,0,0,0,.07-.15.17.17,0,0,0,0-.12H80.2l-.06,0m.58.3a39.34,39.34,0,0,1,5.61,1.24,19.65,19.65,0,0,1,4.46,1.85,21.05,21.05,0,0,1,4.67,3.72,11.56,11.56,0,0,1,2.81,4.85,17.72,17.72,0,0,1,.42,2.73,14.79,14.79,0,0,1,0,2.48c-.22,2.78-1.53,5.54-4,8.44a52,52,0,0,1-3.76,3.91l.86-.44c.84-.82,1.66-1.67,2.45-2.55,1.84-2,4-4.83,4.62-8.33a16.19,16.19,0,0,0-.09-5,11.24,11.24,0,0,0-2.13-5.07,18.35,18.35,0,0,0-4.34-4.06,18.93,18.93,0,0,0-4.61-2.35,39.3,39.3,0,0,0-7-1.67v0a.52.52,0,0,1,0,.25m8.91,30.47.17.19,1-.89c-.3.17-.6.36-.9.55l-.23.15m-19.2,13.21.29,0c-.27-1.69-.49-3.35-.68-4.76-.56-4.25-1-8-1.19-11.53-.16-2.24-.23-4.22-.24-6.06a41.75,41.75,0,0,1,.28-5.31c.48-3.65,2.33-7.28,5.49-10.81a34.62,34.62,0,0,1,5.53-5,.48.48,0,0,1-.14-.2l0,0a33.11,33.11,0,0,0-4.57,4c-3.46,3.56-5.59,7.16-6.33,10.69a28.39,28.39,0,0,0-.5,5.07c0,1.79,0,3.7.12,6,.19,3.59.56,7.51,1.13,12l.12.94c.2,1.66.42,3.37.71,5m0,.3,0,.19v.1a.14.14,0,0,0,.13.1l.29,0Zm13.64.32h0l.32,0,1-.08c1.08-.09,2.15-.18,3.19-.29,2.43-.24,5.3-.56,8.2-1.09a27.08,27.08,0,0,0,4.26-1.1,11.26,11.26,0,0,0,2.81-1.4,4.55,4.55,0,0,0,.81-.71,2.26,2.26,0,0,0,.34-.51,9.73,9.73,0,0,0-.65-7.39,6,6,0,0,0-2.21-2.1,9.1,9.1,0,0,0-3.46-1,10.21,10.21,0,0,0-4.1.29,16.89,16.89,0,0,0-3.39,1.41l-1,.6-.31.2,0,0-.14.12,0,0a.57.57,0,0,1-.61-.2.49.49,0,0,1-.05-.54l0,0,.27-.21A54.59,54.59,0,0,0,94.4,172c2.43-2.83,3.71-5.51,3.92-8.21a15.13,15.13,0,0,0,0-2.42,16.69,16.69,0,0,0-.42-2.66A11.23,11.23,0,0,0,95.17,154a20.81,20.81,0,0,0-4.59-3.64,18.77,18.77,0,0,0-4.36-1.81,40,40,0,0,0-5.84-1.27,35.06,35.06,0,0,0-5.71,5.14c-3.1,3.47-4.91,7-5.38,10.6a39.19,39.19,0,0,0-.28,5.26c0,1.83.08,3.8.23,6,.24,3.49.63,7.26,1.19,11.49.19,1.44.42,3.12.7,4.84,2.69.15,5.86.32,9.06.47l.89,0c1,.05,2,.1,3,.07Zm-12.88.11,2.21.12c2.23.12,4,.21,5.68.28l.75,0c1.23.06,2.52.12,3.77.13.38,0,.76,0,1.13-.06h.14l2.84-.25c3.36-.31,5.92-.63,8.29-1a21.52,21.52,0,0,0,7.77-2.44,5.31,5.31,0,0,0,1.69-1.48,2.66,2.66,0,0,0,.33-.82,10.58,10.58,0,0,0,.31-1.69,8.56,8.56,0,0,0-2.5-7.43,7.84,7.84,0,0,0-3.08-1.54,12,12,0,0,0-4.14-.4,13.21,13.21,0,0,0-4.4,1.28l-.71.69a16.5,16.5,0,0,1,3.24-1.32,10.59,10.59,0,0,1,4.25-.31,9.77,9.77,0,0,1,3.61,1.09,6.33,6.33,0,0,1,2.35,2.24,8.74,8.74,0,0,1,1.15,4.39,8.83,8.83,0,0,1-.47,3.34,2.63,2.63,0,0,1-.41.63,5.39,5.39,0,0,1-.88.78,11.65,11.65,0,0,1-2.9,1.44,26.59,26.59,0,0,1-4.33,1.12c-2.91.53-5.8.85-8.23,1.1l-3.2.29-1,.08h-.14l-.22,0H84c-1,0-2,0-3-.07l-.89-.05c-3.17-.14-6.3-.31-9-.46h0ZM98,190.63c-.65.14-1.29.25-1.91.35-2.38.4-5,.72-8.32,1-.94.09-1.89.17-2.84.24l-.15,0a11.13,11.13,0,0,1-1.16.05c-1.27,0-2.55-.06-3.79-.12l-.75,0-5.68-.29-2.8-.15a.55.55,0,0,1-.49-.44v-.09c-.34-1.83-.58-3.72-.81-5.55l-.11-.94c-.57-4.48-.94-8.41-1.14-12-.12-2.32-.16-4.24-.12-6a28.45,28.45,0,0,1,.51-5.14c.76-3.61,2.92-7.27,6.43-10.88a32.47,32.47,0,0,1,5-4.28.43.43,0,0,1,.23-.14.41.41,0,0,1,.36,0A39.14,39.14,0,0,1,87.83,148a19.21,19.21,0,0,1,4.71,2.4A18.71,18.71,0,0,1,97,154.53a11.68,11.68,0,0,1,2.21,5.24,17,17,0,0,1,.09,5.15c-.62,3.61-2.85,6.46-4.72,8.54-.57.62-1.15,1.24-1.74,1.84a12.71,12.71,0,0,1,3.58-.9,12.1,12.1,0,0,1,4.29.41,8.09,8.09,0,0,1,3.22,1.62,8.89,8.89,0,0,1,2.64,7.77,11.72,11.72,0,0,1-.31,1.76,3.25,3.25,0,0,1-.39.93,5.73,5.73,0,0,1-1.81,1.6,18.43,18.43,0,0,1-6,2.14"/><path class="cls-2" d="M92,181.31a5.85,5.85,0,0,1,3.42,1.14,5.73,5.73,0,0,1,2.16,3.69,9.37,9.37,0,0,1-.13,3.42c-.09.42.55.64.64.21a8.67,8.67,0,0,0-.54-5.85,6.29,6.29,0,0,0-3.31-2.87,6.61,6.61,0,0,0-2.2-.42c-.43,0-.48.67,0,.68"/><path class="cls-2" d="M92,180.83a.18.18,0,0,0-.12.16c0,.12.08.12.11.12a6,6,0,0,1,3.53,1.19,5.83,5.83,0,0,1,2.25,3.81,9.5,9.5,0,0,1-.14,3.49.15.15,0,0,0,.06.15.17.17,0,0,0,.15.05s0,0,0-.07a8.36,8.36,0,0,0-.53-5.71,6,6,0,0,0-3.2-2.78,6.29,6.29,0,0,0-2.13-.41h0m5.91,9.36a.57.57,0,0,1-.49-.14.53.53,0,0,1-.17-.53,9.39,9.39,0,0,0,.13-3.35,5.54,5.54,0,0,0-2.09-3.56A5.76,5.76,0,0,0,92,181.5a.48.48,0,0,1-.5-.51.54.54,0,0,1,.55-.56,6.81,6.81,0,0,1,2.26.43,6.43,6.43,0,0,1,3.41,3,8.74,8.74,0,0,1,.56,6,.45.45,0,0,1-.3.36h-.06"/><path class="cls-2" d="M97.79,178.22a4.76,4.76,0,0,1,4,.51,7.17,7.17,0,0,1,2.59,4,16.79,16.79,0,0,1,.64,3.79.35.35,0,0,0,.31.36c.17,0,.38-.13.36-.32-.22-3.47-1.33-8.37-5.39-9.14a6,6,0,0,0-2.66.16c-.41.12-.28.78.14.66"/><path class="cls-2" d="M98.17,177.93a4.87,4.87,0,0,1,3.74.63,7.24,7.24,0,0,1,2.67,4.09,17.75,17.75,0,0,1,.65,3.84.15.15,0,0,0,.13.17.24.24,0,0,0,.12,0,.09.09,0,0,0,0-.05c-.2-3-1.14-8.19-5.24-9a5.64,5.64,0,0,0-2.56.15.15.15,0,0,0-.1.2c0,.11.1.09.13.08l.43-.1m7.29,9.12h-.13a.55.55,0,0,1-.5-.55,17,17,0,0,0-.63-3.75,6.85,6.85,0,0,0-2.51-3.87,4.62,4.62,0,0,0-3.85-.48.49.49,0,0,1-.62-.35.55.55,0,0,1,.38-.69,6,6,0,0,1,2.74-.16c4.37.82,5.36,6.19,5.56,9.32a.46.46,0,0,1-.14.36.63.63,0,0,1-.3.16"/><path class="cls-1" d="M41.32,171.08c.74.94,2.9,3,2.51,4.29s-.26,10.3-11.8,12.79C11.55,192.59,1,173.56.55,170.9c-.32-2.11,6.3,4.17,20.05,3.38,8.72-.5,14.52-2.55,16.5-4.22Z"/><path class="cls-2" d="M.88,170.8v0c.23,1.54,3.88,8.38,10.64,13.05A25.3,25.3,0,0,0,32,187.83c9.95-2.14,11-9.13,11.39-11.76.06-.36.1-.63.15-.8.27-.86-1.08-2.4-1.88-3.32-.19-.21-.36-.4-.49-.57l-4-.95c-2.22,1.76-8.13,3.71-16.56,4.19a38.79,38.79,0,0,1-17.88-3.16,9.92,9.92,0,0,0-1.86-.66m30.84,17.77a25.86,25.86,0,0,1-20.58-4.12C4.27,179.72.49,172.79.21,171a.69.69,0,0,1,.21-.69c.4-.32,1.08,0,2.57.57a37.45,37.45,0,0,0,17.59,3.11c8.45-.48,14.27-2.42,16.3-4.13l.13-.11,4.5,1.08.08.09c.13.18.32.39.54.64,1,1.16,2.39,2.74,2,4a6.85,6.85,0,0,0-.13.71c-.37,2.49-1.52,10.08-11.92,12.32l-.38.08"/><path class="cls-4" d="M20.72,184.73c.6-.91-1.58-2.62-3.85-4.1s-4.64-2.71-4.42-2.68A22.1,22.1,0,0,0,17.69,179c3.46.06,7-1.05,4.71-3a6.11,6.11,0,0,0-4.37-1.7c-11,.37-16.79-4.69-17.29-3.94s4.61,10.68,10.77,13.45c4.06,1.82,8,2.67,9.21.85"/><path class="cls-4" d="M20.72,184.73a2,2,0,0,1-.89.73,3.34,3.34,0,0,1-1.12.27,8.58,8.58,0,0,1-2.32-.15,24.12,24.12,0,0,1-4.46-1.35,13.62,13.62,0,0,1-4-2.48,24.65,24.65,0,0,1-3.22-3.4A32.84,32.84,0,0,1,2.1,174.5,21.66,21.66,0,0,1,1,172.42a9.9,9.9,0,0,1-.45-1.11,3.24,3.24,0,0,1-.15-.63.86.86,0,0,1,0-.22.5.5,0,0,1,.2-.33.59.59,0,0,1,.31-.08l.21,0a3.83,3.83,0,0,1,.6.2l.55.24,1.05.49c.7.32,1.4.62,2.12.9A31,31,0,0,0,14.37,174c.77.06,1.53.09,2.3.1h1.15a7.08,7.08,0,0,1,1.21,0,6,6,0,0,1,3.26,1.52l.22.21.22.19a2.48,2.48,0,0,1,.41.49,1.31,1.31,0,0,1,.23.66,1,1,0,0,1-.23.69,2.48,2.48,0,0,1-1,.72,9.34,9.34,0,0,1-2.31.54,15.38,15.38,0,0,1-2.35.07,12.88,12.88,0,0,1-2.32-.36c-.76-.18-1.5-.42-2.24-.66l-.27-.08-.13,0h0s0,0,0,0,0-.22,0-.16l0,0,.48.3,1,.6c1.32.81,2.65,1.62,3.91,2.52a18,18,0,0,1,1.82,1.44,5.78,5.78,0,0,1,.77.87,1.92,1.92,0,0,1,.25.52.7.7,0,0,1,0,.29.62.62,0,0,1-.09.27m0,0a.62.62,0,0,0,.09-.27.7.7,0,0,0,0-.29,1.47,1.47,0,0,0-.25-.52,6.24,6.24,0,0,0-.77-.86,19.07,19.07,0,0,0-1.83-1.42c-1.28-.87-2.61-1.66-4-2.42l-1-.56-.51-.3-.08-.06c0,.06-.08-.15.06-.19h.09l.15,0L13,178c.74.22,1.48.44,2.23.6a12.5,12.5,0,0,0,2.27.3,14.59,14.59,0,0,0,2.29-.13,8.11,8.11,0,0,0,2.19-.56,2,2,0,0,0,.84-.59.62.62,0,0,0,0-.8,1.82,1.82,0,0,0-.35-.39l-.22-.18L22,176a7,7,0,0,0-.92-.61,5.58,5.58,0,0,0-2.08-.67,6.15,6.15,0,0,0-1.11,0c-.39,0-.79,0-1.18,0q-1.17,0-2.34-.09a31.38,31.38,0,0,1-9.11-2.12c-.73-.29-1.44-.6-2.15-.93L2,171.08l-.52-.23a2.87,2.87,0,0,0-.49-.17H.92s0,0,0,0,.07-.1.06-.09v.07a2.12,2.12,0,0,0,.12.5,9.1,9.1,0,0,0,.41,1.05c.31.69.67,1.37,1,2a32.28,32.28,0,0,0,2.54,3.84,25.55,25.55,0,0,0,3.1,3.39A16.64,16.64,0,0,0,10,182.87a10.6,10.6,0,0,0,1,.59c.33.18.68.33,1,.5.7.32,1.41.62,2.14.88a15.33,15.33,0,0,0,2.22.66,8,8,0,0,0,2.29.21,3.38,3.38,0,0,0,1.13-.26,2.08,2.08,0,0,0,.89-.72"/><path class="cls-2" d="M.88,170.8v0c.23,1.54,3.88,8.38,10.64,13.05A25.3,25.3,0,0,0,32,187.83c9.95-2.14,11-9.13,11.39-11.76.06-.36.1-.63.15-.8.27-.86-1.08-2.4-1.88-3.32-.19-.21-.36-.4-.49-.57l-4-.95c-2.22,1.76-8.13,3.71-16.56,4.19a38.79,38.79,0,0,1-17.88-3.16,9.92,9.92,0,0,0-1.86-.66m30.84,17.77a25.86,25.86,0,0,1-20.58-4.12C4.27,179.72.49,172.79.21,171a.69.69,0,0,1,.21-.69c.4-.32,1.08,0,2.57.57a37.45,37.45,0,0,0,17.59,3.11c8.45-.48,14.27-2.42,16.3-4.13l.13-.11,4.5,1.08.08.09c.13.18.32.39.54.64,1,1.16,2.39,2.74,2,4a6.85,6.85,0,0,0-.13.71c-.37,2.49-1.52,10.08-11.92,12.32l-.38.08"/><path class="cls-2" d="M1.13,171.06c.5,1.88,4.09,8.25,10.5,12.68a25.09,25.09,0,0,0,19.91,4l.37-.08c9.82-2.12,10.86-9,11.25-11.6a5.54,5.54,0,0,1,.15-.83c.23-.75-1.12-2.29-1.84-3.12-.17-.19-.32-.37-.45-.53l-3.79-.91c-2.12,1.62-7.7,3.66-16.6,4.17a38.92,38.92,0,0,1-18-3.18c-.53-.21-1.16-.47-1.53-.58m30.48,17.05a25.44,25.44,0,0,1-20.2-4.05C4.6,179.36.92,172.44.68,170.88v-.06l0-.22H.88a9.25,9.25,0,0,1,1.93.67,38.51,38.51,0,0,0,17.8,3.15c6-.34,13.43-1.76,16.45-4.14l.07-.06,4.11,1,0,0,.49.56c1.12,1.29,2.19,2.62,1.92,3.5a6.8,6.8,0,0,0-.14.78c-.4,2.67-1.47,9.75-11.55,11.93l-.39.08M.71,170.34a.38.38,0,0,0-.17.08s-.19.14-.13.5c.27,1.82,4,8.67,10.84,13.37a25.74,25.74,0,0,0,20.81,4c10.27-2.22,11.4-9.7,11.77-12.16a5.31,5.31,0,0,1,.13-.73c.34-1.11-1-2.65-2-3.77l-.55-.64,0,0-4.34-1.05L37,170c-2,1.73-7.92,3.7-16.42,4.18A37.73,37.73,0,0,1,2.92,171a5.43,5.43,0,0,0-2.21-.68m31.05,18.43A26.11,26.11,0,0,1,11,184.62C4.11,179.85.3,172.84,0,171a.87.87,0,0,1,.28-.88c.49-.38,1.2-.09,2.77.55a37.39,37.39,0,0,0,17.5,3.1c8.4-.49,14.18-2.41,16.18-4.09l.21-.18,4.67,1.12.11.15.54.63c1,1.19,2.46,2.82,2.06,4.14a4.9,4.9,0,0,0-.12.68c-.38,2.53-1.54,10.21-12.08,12.49l-.38.08"/><path class="cls-2" d="M117.44,38.61l-.12.62.23-.19a.13.13,0,0,0,0-.16l-.13-.27m-5.17,4.48.24.17,4.58-3.84-.12-.23v0Zm-.31.26-.09.08a.09.09,0,0,0,0,.08.19.19,0,0,0,.07.14l.09.06Z"/><path class="cls-5" d="M87,90.81a21.6,21.6,0,0,1,6,2.83c1.6,1.11,3.53,3,4,4.8s-8.72,3-8.72,3Z"/><path class="cls-6" d="M88.58,101.07c2.9-.4,7.38-1.34,8-2.33a.26.26,0,0,0,.06-.21c-.47-1.74-2.38-3.57-3.88-4.62a21.72,21.72,0,0,0-5.39-2.63Zm3.14.15c-1.63.33-3.06.52-3.39.57l-.34,0L86.62,90.35l.49.13a21.66,21.66,0,0,1,6.07,2.88c1.67,1.16,3.64,3.08,4.15,5a.88.88,0,0,1-.15.76c-.62.94-3.23,1.65-5.46,2.11"/><path class="cls-1" d="M88.37,88s2,10.93,2.31,13.48a234.37,234.37,0,0,1,1.63,30.3c-.39,16-9.29,29.59-11,33.28-4.8,10.05-10.37,27.25-28.13,23.7-18-3.6-21.43-17.76-23-25.55-1.15-5.66-1.56-18.62,1.5-27.84,3.72-11.21,25.91-54.93,25.91-54.93s7.79-7.41,14-5.3,7.19,2.17,10.62,4.54C84.89,81.55,88.37,88,88.37,88"/><path class="cls-2" d="M57.68,80.51c-.7,1.38-22.25,43.93-25.88,54.87-3,9.1-2.68,21.93-1.49,27.74,1,4.7,2.26,9.68,5.32,14.28,3.88,5.82,9.78,9.57,17.54,11.12,7,1.4,12.68-.3,17.39-5.18,4.07-4.22,6.69-10,9-15.12.53-1.17,1-2.26,1.52-3.3.26-.55.68-1.32,1.22-2.3,3.08-5.62,9.48-17.32,9.81-30.9a230.53,230.53,0,0,0-1.63-30.26C90.19,99,88.3,88.67,88.18,88c-.25-.46-3.57-6.42-6.16-8.22-2.79-1.93-3.92-2.31-7.67-3.55l-2.9-1c-5.85-2-13.29,4.78-13.77,5.23M61.37,189a20.65,20.65,0,0,1-8.27-.11c-7.87-1.58-13.86-5.37-17.8-11.29-3.1-4.65-4.42-9.68-5.38-14.42-1.19-5.85-1.54-18.78,1.5-27.94,3.69-11.1,25.7-54.52,25.92-55l0,0,0,0c.33-.31,7.95-7.48,14.2-5.35,1.12.39,2.06.7,2.89,1,3.8,1.26,4.94,1.64,7.77,3.6s6.16,8.13,6.31,8.39v.06c0,.11,2,11,2.3,13.49a232.75,232.75,0,0,1,1.64,30.32c-.33,13.68-6.77,25.43-9.87,31.08-.53,1-1,1.74-1.21,2.28-.49,1-1,2.13-1.51,3.29C76.26,176.46,71.51,187,61.37,189"/><path class="cls-2" d="M57.79,80.6c-.89,1.76-22.25,43.94-25.86,54.83-3,9.07-2.67,21.87-1.49,27.66,1,4.69,2.26,9.66,5.3,14.23,3.86,5.8,9.74,9.52,17.46,11.06,6.94,1.39,12.59-.29,17.26-5.14,4.05-4.2,6.67-10,9-15.08.53-1.16,1-2.26,1.52-3.3.27-.56.69-1.33,1.22-2.3,3.08-5.62,9.48-17.3,9.8-30.84a230.47,230.47,0,0,0-1.63-30.25c-.28-2.42-2.14-12.57-2.29-13.4-.32-.58-3.57-6.4-6.11-8.16C79.17,78,78,77.62,74.3,76.38l-2.9-1c-5.71-2-13,4.62-13.61,5.19m3.62,108.56a20.83,20.83,0,0,1-8.34-.12c-7.91-1.58-13.93-5.4-17.89-11.34-3.11-4.67-4.43-9.72-5.4-14.47-1.19-5.87-1.54-18.83,1.51-28C35,124.1,57,80.68,57.22,80.24l0,0,0,0c.32-.31,8-7.53,14.33-5.38l2.9,1c3.71,1.23,5,1.64,7.8,3.62s6.2,8.17,6.35,8.43l0,0v0c.09.45,2,11,2.31,13.5a233.24,233.24,0,0,1,1.64,30.34c-.33,13.71-6.78,25.49-9.88,31.15-.53,1-1,1.73-1.21,2.27-.49,1-1,2.13-1.51,3.29-3.67,8.11-8.44,18.65-18.64,20.72"/><path class="cls-2" d="M58,80.72c-1.12,2.2-22.25,43.94-25.84,54.77-3,9-2.66,21.79-1.48,27.56.95,4.67,2.24,9.62,5.27,14.16,3.83,5.75,9.66,9.44,17.33,11,6.87,1.37,12.45-.29,17.08-5.09,4-4.17,6.63-9.94,8.93-15,.53-1.17,1-2.27,1.52-3.3.27-.57.69-1.34,1.23-2.32,3.07-5.6,9.45-17.25,9.77-30.75a232.09,232.09,0,0,0-1.62-30.21c-.29-2.38-2.06-12.1-2.29-13.36-.43-.77-3.57-6.36-6-8.07-2.74-1.9-3.86-2.27-7.58-3.5l-2.9-1c-2.34-.8-5.21-.25-8.56,1.63A27.84,27.84,0,0,0,58,80.72m3.35,108a20.61,20.61,0,0,1-8.15-.12c-7.78-1.56-13.69-5.31-17.58-11.15-3.07-4.6-4.37-9.59-5.33-14.3-1.19-5.81-1.53-18.66,1.49-27.76,3.62-10.92,25-53.07,25.88-54.86v0l0,0c.8-.74,8-7.2,13.81-5.23,1.13.39,2.11.71,2.89,1,3.76,1.25,4.9,1.62,7.69,3.56,2.57,1.78,5.81,7.57,6.17,8.22l0,0v0c.21,1.12,2,11,2.3,13.42a232.51,232.51,0,0,1,1.63,30.27c-.33,13.6-6.74,25.3-9.82,30.93-.53,1-1,1.74-1.22,2.3-.49,1-1,2.13-1.51,3.29-2.32,5.12-5,10.92-9,15.14a17.61,17.61,0,0,1-9.29,5.32M57.41,80.31v0c-.23.44-22.25,43.87-25.92,55-3,9.15-2.7,22.06-1.51,27.91,1,4.73,2.28,9.75,5.38,14.4,3.93,5.9,9.9,9.69,17.76,11.26a21,21,0,0,0,8.26.12c10.1-2.06,14.76-12.35,18.5-20.61.52-1.16,1-2.25,1.51-3.29.26-.55.68-1.31,1.21-2.27,3.09-5.66,9.53-17.41,9.86-31.07a233.12,233.12,0,0,0-1.63-30.31c-.31-2.57-2.29-13.38-2.31-13.49v0c-.14-.27-3.52-6.46-6.28-8.37s-4.07-2.37-7.76-3.59l-2.89-1c-6.22-2.12-13.82,5-14.14,5.33Zm4,109.05a21.4,21.4,0,0,1-8.42-.12c-8-1.59-14-5.44-18-11.43-3.13-4.7-4.46-9.77-5.43-14.54-1.2-5.89-1.55-18.9,1.51-28.12,3.69-11.1,25.72-54.56,25.94-55l0-.08.07-.07c.33-.31,8.1-7.61,14.54-5.42,1.13.39,2.11.71,2.89,1,3.73,1.24,5,1.65,7.85,3.64s6.27,8.24,6.41,8.51l0,.07,0,.09c0,.11,2,10.93,2.31,13.51a232.16,232.16,0,0,1,1.63,30.37c-.33,13.76-6.79,25.56-9.9,31.24-.53,1-1,1.72-1.2,2.26-.5,1-1,2.12-1.51,3.28-1.85,4.1-4,8.74-6.89,12.66-3.42,4.57-7.31,7.25-11.89,8.18"/><path class="cls-4" d="M48.94,131.32c2.7-5.48,4.68-14.39-.3-18.5s-14.12,14.91-14.12,14.91-6,14.44-1.41,17.31,11.8-5.55,15.83-13.72"/><path class="cls-4" d="M46.59,112.63h0c-2,.43-4.64,3.19-7.67,8-2.32,3.66-4,7.23-4.06,7.26a56.22,56.22,0,0,0-2.41,7.52c-.82,3.51-1.34,8,.88,9.37a3.77,3.77,0,0,0,3.11.33c4.29-1.22,9.35-8.07,12.23-13.92l.31.15-.31-.15a26.29,26.29,0,0,0,2.7-9.64c.17-2.63-.21-6.23-2.9-8.45a2,2,0,0,0-1.84-.45M36.13,145.85a4.24,4.24,0,0,1-3.2-.52c-4.8-3,1-17.13,1.28-17.73s7-14.49,12.19-15.62a2.73,2.73,0,0,1,2.46.58c2.31,1.9,3.39,5,3.15,9a27.11,27.11,0,0,1-2.77,9.9c-3,6.17-8.14,13-12.66,14.27l-.45.11"/><path class="cls-4" d="M54.58,130.65s-4.89,8.08-1.28,10.83,9.82.62,13.14-4.52,4.55-11.57.5-13.07c-4.37-1.61-8.86,1.47-12.36,6.76"/><path class="cls-4" d="M54.87,130.83c-.15.25-4.66,7.88-1.36,10.39a6.16,6.16,0,0,0,4.94,1,12,12,0,0,0,7.7-5.45c2.48-3.85,3.55-7.94,2.73-10.41a3.31,3.31,0,0,0-2.06-2.16c-3.86-1.43-8.22,1-11.95,6.62m4,12-.25.05a6.92,6.92,0,0,1-5.47-1.15c-1.61-1.22-1.89-3.58-.83-6.82a23.78,23.78,0,0,1,2-4.45h0c3.93-5.93,8.57-8.44,12.75-6.9a4,4,0,0,1,2.47,2.58c.88,2.66-.21,7-2.8,11a12.78,12.78,0,0,1-7.9,5.71"/><path class="cls-7" d="M89.05,109.12a3.4,3.4,0,0,1-.46.07c-1.83.18-3.54-1.1-4.35-3.26l1.05-.4c.64,1.7,1.86,2.67,3.19,2.54,3-.29,3.42-4,3.26-5.93-.25-3-2.18-6-3.89-6.11a2.81,2.81,0,0,0-2.54,1.59l-1-.46A3.94,3.94,0,0,1,87.9,94.9c2.5.1,4.69,3.85,5,7.15.26,3-.84,6.47-3.81,7.07"/><path class="cls-1" d="M75.56,118.11c-.46-3.66,2.51-6.12,4.39-7.22a25.33,25.33,0,0,1,17.19-2.1c4.25,1.21,6.37,3.43,6.83,6,.27,1.54.4,5.09-5.27,8-4.29,2.22-11.06,2.68-15,1.89-2.27-.45-7.49-1.77-8.11-6.65"/><path class="cls-8" d="M75.56,118.11l.45-.06c.41,3.23,3,5.34,7.75,6.27,4,.79,10.57.31,14.73-1.85,3.81-2,5.55-4.58,5-7.55-.46-2.65-2.71-4.62-6.5-5.69-5.53-1.57-13-.15-16.84,2-1.41.82-4.63,3.12-4.17,6.77ZM93.8,125a28,28,0,0,1-10.22.22c-3.54-.7-7.89-2.48-8.46-7-.18-1.4-.09-4.93,4.61-7.67a25.56,25.56,0,0,1,17.54-2.14c5.23,1.48,6.77,4.3,7.14,6.41.41,2.36-.2,5.75-5.5,8.5A19.81,19.81,0,0,1,93.8,125"/><path class="cls-9" d="M80.49,121.6s-.07,0-.07-.11.21-5.71.21-5.71a.15.15,0,0,1,.1-.1l2.12-.44s.13,0,.11.07,0,2.14,0,2.14l1.25-.27.07-2.11s0-.09.1-.11l2.13-.45s.11,0,.11.07-.18,5.74-.18,5.74a.13.13,0,0,1-.11.1l-2.13.44s-.11,0-.09-.08,0-2.07,0-2.07l-1.25.24s-.08,2-.09,2.07a.16.16,0,0,1-.12.13l-2.16.45"/><path class="cls-9" d="M87,120.26l2.18-.41a.18.18,0,0,0,.09-.13c0-.1.07-2.22.07-2.22l.67-.13a.33.33,0,0,1,.29.18l.78,1.79a.06.06,0,0,0,.08.06l2.28-.45s0,0,0-.12-.21-.11-.24-.19-.55-1.6-.55-1.6a.72.72,0,0,0-.35-.39,3.68,3.68,0,0,0-.87-.2,1.67,1.67,0,0,0,1.22-1.67,1.24,1.24,0,0,0-1.51-1.19c-.69.1-3.9.78-3.9.78s-.09,0-.07.11-.19,5.71-.19,5.71Z"/><path class="cls-1" d="M89.38,116.61l0-1.21.51-.1a.38.38,0,0,1,.46.36.85.85,0,0,1-.31.79,3.17,3.17,0,0,1-.7.16"/><path class="cls-9" d="M92.48,113.35l1.9,5.33a.28.28,0,0,0,.11,0l2.49-.5,2.48-6.32s0-.08-.1-.06l-2.37.5-1.19,3.52-.94-3s-.08-.1-.16-.07-2.09.46-2.16.47a.07.07,0,0,0-.06.07"/><path class="cls-10" d="M79.31,121.7s.12-1.12.11-1.25a.77.77,0,0,0-.11-.38,3.94,3.94,0,0,1-1.12-2.23,4.63,4.63,0,0,1,.29-2.2A6.37,6.37,0,0,1,80.81,113a15.5,15.5,0,0,1,2.91-1.44A29,29,0,0,1,88,110.42a28.06,28.06,0,0,1,5-.45,23.68,23.68,0,0,1,3.75.42,20.31,20.31,0,0,1,2.35.75c.18.08.3-.17.18-.24a15.06,15.06,0,0,0-2.33-.92,20.73,20.73,0,0,0-3.83-.64,24.93,24.93,0,0,0-5.24.3,31.59,31.59,0,0,0-4.42,1A16.8,16.8,0,0,0,80,112.24a7.56,7.56,0,0,0-2.9,3.12A5.09,5.09,0,0,0,77,119a6.58,6.58,0,0,0,2.19,2.75.08.08,0,0,0,.14,0"/><path class="cls-11" d="M80.69,122.32a.11.11,0,0,0-.11.19,11.25,11.25,0,0,0,2,.77,17.1,17.1,0,0,0,3.66.65,29.61,29.61,0,0,0,5.51-.28A21.24,21.24,0,0,0,98,121.9c1.26-.66,3.45-1.78,4.26-3.68a5.3,5.3,0,0,0,.37-3.67,5.47,5.47,0,0,0-1.88-2.68c-.12-.09-.17-.05-.22,0s-.3.79-.35.94a.58.58,0,0,0,.06.48,6,6,0,0,1,.56.75,3.63,3.63,0,0,1,.49,2.14,4.7,4.7,0,0,1-.82,2.43,7.18,7.18,0,0,1-2.8,2.3,21,21,0,0,1-6,2,28.87,28.87,0,0,1-5.29.48,22,22,0,0,1-3.63-.42c-.27-.06-2-.64-2-.64"/><path class="cls-7" d="M88.56,111.6a2.11,2.11,0,0,0,2.09-1.55,3.5,3.5,0,0,0-.61-2.66,2,2,0,0,0-2.11-.8A2.33,2.33,0,0,0,86.35,108c-.15.41.49.62.64.22a1.17,1.17,0,0,1,.05-.11l0-.07.1-.17a1.76,1.76,0,0,1,.67-.57,1.36,1.36,0,0,1,1.59.4,2.9,2.9,0,0,1,.58,2.07,1.17,1.17,0,0,1-.28.63,1.41,1.41,0,0,1-.21.19l-.09.06-.14.07-.16.07c-.09,0,0,0,0,0l-.09,0a1.22,1.22,0,0,1-.26.06l-.18,0h0c-.43,0-.48.68,0,.67"/><path class="cls-1" d="M40.14,161.49C40.48,161,47,153.55,55,150.93c15.52-5.06,20.92,1.63,23.44,4.94,5.87,7.72-.28,24.41-4.43,29.07"/><path class="cls-2" d="M74.16,185.07l-.3-.26c1.86-2.09,4.5-7.14,5.93-13.3.89-3.88,1.89-11-1.51-15.52-2.27-3-7.58-10-23.22-4.87-7.8,2.55-14.27,9.75-14.76,10.48l-.33-.22c.5-.74,7.06-8,15-10.63,15.9-5.2,21.34,1.95,23.66,5,3.49,4.6,2.49,11.9,1.57,15.85-1.23,5.34-3.7,10.88-6,13.47"/><path class="cls-12" d="M40.42,161.68a.76.76,0,0,1,.11-.14l.09-.11.05-.06,0-.05c.23-.27.48-.53.72-.79.8-.84,1.63-1.64,2.49-2.41a36.39,36.39,0,0,1,8.17-5.64,30,30,0,0,1,5.28-1.9,33.18,33.18,0,0,1,4.94-1,19.82,19.82,0,0,1,7.48.41,14,14,0,0,1,4.87,2.37,17.28,17.28,0,0,1,2.93,2.93,13.49,13.49,0,0,1,1.39,2,12.14,12.14,0,0,1,1.21,3.52,23.79,23.79,0,0,1-.08,8.33,40.4,40.4,0,0,1-2.34,8.29,29.31,29.31,0,0,1-3.23,6.24c-.24.33-.5.67-.75,1s.16.83.45.51a22.62,22.62,0,0,0,3.37-5.6,42,42,0,0,0,2.74-8.15,29.56,29.56,0,0,0,.77-8.74,13.38,13.38,0,0,0-2.49-7.15A21.5,21.5,0,0,0,76,152.63a14.62,14.62,0,0,0-4.55-2.79,18.25,18.25,0,0,0-7-1.07,33.91,33.91,0,0,0-10.1,2,31.45,31.45,0,0,0-9.17,5.36,37.93,37.93,0,0,0-5,4.73,4.35,4.35,0,0,0-.33.42c-.25.36.32.73.56.37"/><path class="cls-2" d="M59.65,149.83q1.35-.27,2.64-.42a20.06,20.06,0,0,1,7.56.41,14.11,14.11,0,0,1,4.93,2.42,16.55,16.55,0,0,1,3,3,13.55,13.55,0,0,1,1.42,2.05,12.69,12.69,0,0,1,1.23,3.58,23.79,23.79,0,0,1-.09,8.4A41,41,0,0,1,78,177.56a29.25,29.25,0,0,1-3.26,6.29c-.27.37-.53.71-.76,1a.17.17,0,0,0,0,.25c.07.06.1,0,.13,0a22.16,22.16,0,0,0,3.34-5.54,42.15,42.15,0,0,0,2.73-8.12,29,29,0,0,0,.76-8.68,13.1,13.1,0,0,0-2.45-7,20.06,20.06,0,0,0-2.61-2.91A14.24,14.24,0,0,0,71.38,150,17.71,17.71,0,0,0,64.47,149a33.57,33.57,0,0,0-10,2,31.14,31.14,0,0,0-9.12,5.33,38,38,0,0,0-5,4.71l-.06.08a1.92,1.92,0,0,0-.26.32.13.13,0,0,0,0,.18l.11,0a.16.16,0,0,0,.08-.06l.12-.15.05-.06h0l.26-.3h0c.18-.21.38-.42.61-.66.76-.81,1.6-1.62,2.5-2.42A36.45,36.45,0,0,1,52,152.31a28.61,28.61,0,0,1,5.32-1.92c.8-.22,1.58-.4,2.33-.56m14.46,35.66a.46.46,0,0,1-.41-.12.56.56,0,0,1-.06-.81c.22-.25.48-.58.74-.94a29.35,29.35,0,0,0,3.21-6.2,40.44,40.44,0,0,0,2.32-8.25,23.48,23.48,0,0,0,.09-8.26,11.07,11.07,0,0,0-2.57-5.46,16.17,16.17,0,0,0-2.89-2.9,13.59,13.59,0,0,0-4.8-2.34,19.65,19.65,0,0,0-7.41-.41,33.46,33.46,0,0,0-4.91,1,29.51,29.51,0,0,0-5.24,1.89,36.1,36.1,0,0,0-8.13,5.61c-.89.79-1.72,1.6-2.47,2.39-.28.29-.51.55-.72.79l0,0h0l0,.07-.09.1-.1.13a.53.53,0,0,1-.74.14.51.51,0,0,1-.15-.73,3.51,3.51,0,0,1,.29-.36l.06-.08a38.75,38.75,0,0,1,5-4.76,31.44,31.44,0,0,1,9.24-5.39,33.68,33.68,0,0,1,10.16-2,18.08,18.08,0,0,1,7.06,1.08,14.88,14.88,0,0,1,4.61,2.82,20.23,20.23,0,0,1,2.66,3,13.48,13.48,0,0,1,2.53,7.25,29.14,29.14,0,0,1-.78,8.8,42,42,0,0,1-2.75,8.19,22.77,22.77,0,0,1-3.4,5.65.5.5,0,0,1-.28.16"/><path class="cls-1" d="M66.85,184.17c1-.92,13.34-8.14,19.82,1.22a8.1,8.1,0,0,1,.52,8s-6.61,6.6-24.94,5.71c-1.32-.06-4.62-1.85-4.39-5.15s.68-6.82.68-6.82"/><path class="cls-2" d="M76,198.41a56.94,56.94,0,0,1-13.75.9,5.61,5.61,0,0,1-3.35-1.86,4.76,4.76,0,0,1-1.23-3.51c.23-3.27.68-6.79.69-6.83l.39,0s-.46,3.55-.68,6.81a4.33,4.33,0,0,0,1.13,3.21,5.19,5.19,0,0,0,3.07,1.73c5.2.26,12.75,0,19.23-2.49A17.8,17.8,0,0,0,87,193.28a8,8,0,0,0-.52-7.78,10.24,10.24,0,0,0-7.61-4.59c-5.44-.57-11.16,2.7-11.91,3.41l-.27-.29c.8-.76,6.56-4.11,12.22-3.51a10.6,10.6,0,0,1,7.9,4.76,8.4,8.4,0,0,1,.53,8.22l0,0a17.29,17.29,0,0,1-5.67,3.23A34,34,0,0,1,76,198.41"/><path class="cls-2" d="M67.08,184.42l.14-.12.09-.06.07-.05.65-.41a21.3,21.3,0,0,1,2-1,20,20,0,0,1,6-1.68,11.3,11.3,0,0,1,6.76,1.17c2.63,1.46,4.85,4.22,4.9,7.31a8.48,8.48,0,0,1-.65,3.38l-.08.17,0,.08c0,.07,0,0,0,0l0,0,0-.05-.12.11a9.29,9.29,0,0,1-.77.6l-.13.1-.07.05c-.05,0-.07,0,0,0l-.35.23c-.28.18-.57.35-.86.51a26.52,26.52,0,0,1-5.45,2.28A43,43,0,0,1,70,198.7a57.33,57.33,0,0,1-6.15.13,7.61,7.61,0,0,1-2.19-.19,5.41,5.41,0,0,1-1.6-.87,4.93,4.93,0,0,1-1.38-1.63,4.32,4.32,0,0,1-.43-2.37c.14-1.89.33-3.77.55-5.65l.12-1c.06-.43-.62-.48-.67,0q-.24,1.88-.42,3.75c-.11,1.08-.24,2.16-.27,3.25a4.76,4.76,0,0,0,.55,2.4,6,6,0,0,0,3.18,2.72,6.64,6.64,0,0,0,2.08.26c1.12,0,2.25,0,3.37,0a49.24,49.24,0,0,0,10.62-1.25,31.25,31.25,0,0,0,6.62-2.35A16.61,16.61,0,0,0,87,194a2.37,2.37,0,0,0,.38-.33,1.81,1.81,0,0,0,.29-.59,8.09,8.09,0,0,0,.44-1.45,8.36,8.36,0,0,0-.31-4.75,10.24,10.24,0,0,0-3-4,11,11,0,0,0-7-2.58,18.42,18.42,0,0,0-6.76,1.26A19.51,19.51,0,0,0,67,183.63a3.47,3.47,0,0,0-.38.29c-.32.3.13.8.45.5"/><path class="cls-2" d="M58.52,187a.14.14,0,0,0-.12.13c-.14,1.11-.28,2.34-.42,3.74l-.06.6c-.09.86-.18,1.76-.21,2.63a4.6,4.6,0,0,0,.54,2.31A5.84,5.84,0,0,0,61.32,199a5.74,5.74,0,0,0,1.81.25h.2c1.14,0,2.28,0,3.37,0a48.71,48.71,0,0,0,10.57-1.25,30,30,0,0,0,6.58-2.33,16.35,16.35,0,0,0,3.06-1.91l.08-.06a2.26,2.26,0,0,0,.28-.25,1.44,1.44,0,0,0,.22-.43l0-.11a8.9,8.9,0,0,0,.43-1.41,8.18,8.18,0,0,0-.31-4.64A10.17,10.17,0,0,0,84.76,183a10.68,10.68,0,0,0-6.85-2.53,18,18,0,0,0-6.69,1.25,18.76,18.76,0,0,0-4.09,2l0,0a3,3,0,0,0-.34.25.16.16,0,0,0,0,.21.12.12,0,0,0,.18,0l.16-.13.09-.07.08-.06h0l.66-.41a22.73,22.73,0,0,1,2-1,20.44,20.44,0,0,1,6-1.7,11.54,11.54,0,0,1,6.88,1.2,9.19,9.19,0,0,1,5,7.48,8.57,8.57,0,0,1-.67,3.46.61.61,0,0,0,0,.12.27.27,0,0,1-.1.2.19.19,0,0,1-.07.06l0,0a8.5,8.5,0,0,1-.78.62l-.14.1,0,0-.06,0h0l-.36.23c-.27.18-.56.36-.86.53a27.22,27.22,0,0,1-5.5,2.29A43.49,43.49,0,0,1,70,198.9a59.35,59.35,0,0,1-6.18.13h-.44a6.14,6.14,0,0,1-1.81-.2,5.71,5.71,0,0,1-1.65-.9,5.28,5.28,0,0,1-1.44-1.7,4.49,4.49,0,0,1-.44-2.47c.12-1.71.3-3.56.54-5.66l.12-1s0-.1-.1-.12h-.06M76,198.77a50.58,50.58,0,0,1-9.26.95c-1.1,0-2.24,0-3.39,0h-.2a5.9,5.9,0,0,1-1.93-.28,6.12,6.12,0,0,1-3.29-2.8,4.94,4.94,0,0,1-.58-2.51c0-.89.12-1.79.21-2.66l.06-.6c.14-1.41.27-2.63.42-3.75a.53.53,0,0,1,.62-.47.49.49,0,0,1,.45.56c0,.32-.08.65-.12,1-.25,2.09-.43,3.94-.55,5.64a4.14,4.14,0,0,0,.41,2.26,4.65,4.65,0,0,0,1.32,1.56,5.32,5.32,0,0,0,1.54.84,5.82,5.82,0,0,0,1.68.18h.45A58.52,58.52,0,0,0,70,198.5a42.14,42.14,0,0,0,9.16-1.62,26.34,26.34,0,0,0,5.41-2.26l.85-.51.24-.16.21-.14.14-.1c.3-.22.54-.41.75-.59l0,0v0l0,0a1.22,1.22,0,0,0,.07-.17,8.08,8.08,0,0,0,.64-3.29,8.81,8.81,0,0,0-4.79-7.14,11.16,11.16,0,0,0-6.65-1.16,20.34,20.34,0,0,0-5.92,1.67,19.57,19.57,0,0,0-2,1c-.23.13-.43.25-.62.38h0l-.06.05-.09.06-.13.11a.51.51,0,0,1-.74,0,.53.53,0,0,1,0-.76,2.71,2.71,0,0,1,.39-.3l0,0a19.14,19.14,0,0,1,4.18-2.07,18.42,18.42,0,0,1,6.84-1.28,11.29,11.29,0,0,1,7.1,2.63,10.5,10.5,0,0,1,3,4,8.93,8.93,0,0,1-.12,6.34l0,.1a1.6,1.6,0,0,1-.3.56,2.89,2.89,0,0,1-.32.29l-.08.06a17.11,17.11,0,0,1-3.13,2,30.85,30.85,0,0,1-6.67,2.36l-1.39.31"/><path class="cls-2" d="M82.67,196.2l-.66-.12a9.74,9.74,0,0,0-2.5-9.1c-1.54-1.51-3.32-2.14-4.21-1.95l-.13-.67c1.44-.29,3.51.86,4.82,2.14s3.65,4.51,2.68,9.7"/><path class="cls-2" d="M82.23,195.92l.28.05a10.14,10.14,0,0,0-2.66-9.33c-1.21-1.19-3.09-2.26-4.45-2.11l.06.27a6.27,6.27,0,0,1,4.19,2,9.87,9.87,0,0,1,2.58,9.08m.6.51-1.06-.19,0-.2c.9-4.79-1.14-7.64-2.44-8.92s-3.18-2.07-4-1.9l-.19,0-.22-1,.2,0c1.5-.31,3.65.87,5,2.19s3.73,4.6,2.74,9.88Z"/><path class="cls-2" d="M78.15,88.61a13.57,13.57,0,0,1-4.59-.72c-1.54-.67-2.82-1.48-4.14-5.14-1-2.61-1.37-8.35-1.38-8.6l.67-.05c0,.06.43,5.9,1.35,8.42,1.33,3.68,2.62,4.25,3.77,4.75a13.19,13.19,0,0,0,4.29.67Z"/><path class="cls-13" d="M79.31,33.53a17.45,17.45,0,0,0,5.8-6.05c2.41-4.48.14-7.82,1.17-14,.29-1.75-2.5-8.4-5.69-9.6s-9.26-1-11.79.53-4.56,5.09-7.41,10.12C58.7,19.26,55.5,25,55.25,26s15.93-2.42,24.06,7.58"/><path class="cls-2" d="M55.67,25.78c.36,0,1,0,1.73,0,4.69-.08,15.59-.28,22,7.31a17.25,17.25,0,0,0,5.43-5.77c1.34-2.49,1.18-4.67,1-7.19a26.1,26.1,0,0,1,.13-6.72c.27-1.59-2.46-8.09-5.47-9.23S71.4,3.25,69,4.69s-4.46,5-7.25,9.93l0,.06c-3.32,5.86-5.51,9.91-6,11.1M79.24,34l-.19-.22c-6.15-7.57-17-7.37-21.63-7.29-1.78,0-2.21,0-2.42-.24a.39.39,0,0,1-.07-.36c.28-1.05,4-7.66,6.16-11.51l0-.06c2.84-5,4.9-8.64,7.5-10.18s8.78-1.81,12.08-.56,6.2,8.15,5.9,10a25.76,25.76,0,0,0-.13,6.56c.19,2.63.36,4.89-1.07,7.56a17.62,17.62,0,0,1-5.92,6.18Z"/><path class="cls-4" d="M52.72,26.89S57.46,14.09,63.6,7.76C70,1.16,77.85-.93,84.87,1.08c6,1.71,7.11,4,7.78,5.15s2.34,7-.2,8.17c-4.22,1.87-8.69-2.71-8.69-2.71a41.75,41.75,0,0,1-5.23-5.25c-2.06-2.63-6.12-2.63-8-1.82-1.66.73-4.21,1.86-6,7.24-.48,1.45-.46,11.15-1.45,11.2-3.56.15-10.41,3.83-10.41,3.83"/><path class="cls-4" d="M75.86,1.06A23.32,23.32,0,0,0,63.84,8c-5.12,5.29-9.31,15.26-10.48,18.19,1.91-1,6.77-3.3,9.68-3.46.41-.53.64-4.29.78-6.55a29.07,29.07,0,0,1,.44-4.42C66.09,6.2,68.8,5,70.43,4.31c2.09-.91,6.27-.76,8.37,1.92A42,42,0,0,0,84,11.43l0,0a13.34,13.34,0,0,0,2.7,2c2.08,1.15,4,1.36,5.62.63a1.78,1.78,0,0,0,.94-1.17c.67-2-.42-5.68-.9-6.52l-.07-.12C91.64,5.14,90.43,3,84.77,1.4a18.69,18.69,0,0,0-8.91-.34M52.09,27.62l.31-.84c.05-.13,4.84-12.94,11-19.26S77.47-1.39,85,.75c5.92,1.69,7.22,4,7.92,5.2l.06.11c.49.85,1.74,4.7,1,7.07a2.5,2.5,0,0,1-1.32,1.58A6.87,6.87,0,0,1,86.36,14a14,14,0,0,1-2.83-2.1,42.32,42.32,0,0,1-5.26-5.29c-2-2.62-6-2.41-7.57-1.72s-4.07,1.77-5.8,7a29.6,29.6,0,0,0-.4,4.24c-.38,6.16-.66,7.16-1.36,7.18-3.44.15-10.19,3.77-10.26,3.8Z"/><path class="cls-13" d="M49,43.5a23.32,23.32,0,0,1,.28-9.32c.85-3.61.77-9.36-.43-12.67-2-5.48-9.31-7.71-3.51-13.77,1.75-1.83-4.28,1-6.75,2.24S30,15.23,27.51,20.74s-3.4,9-2.5,14.46,2.81,14.36,9.47,20.3,16.08,6.76,16.08,6.76Z"/><path class="cls-2" d="M45.1,7.53a43.89,43.89,0,0,0-6.33,2.76c-3,1.53-8.66,5.48-11,10.59-2.44,5.44-3.38,8.79-2.48,14.27,1,5.9,3,14.41,9.36,20.1,5.73,5.12,13.64,6.39,15.49,6.62L48.7,43.55A23.48,23.48,0,0,1,49,34.11c.89-3.8.7-9.4-.41-12.49a15.42,15.42,0,0,0-3-4.53c-2.33-2.73-4.52-5.3-.47-9.56m5.83,55.1-.4,0c-.09,0-9.61-.88-16.28-6.83s-8.59-14.5-9.58-20.5c-.92-5.61.09-9.2,2.54-14.65,2.36-5.28,8.19-9.35,11.25-10.93,1-.51,2.69-1.33,4.2-2,2.67-1.13,3.06-1,3.27-.71s-.14.79-.32,1c-3.66,3.82-1.84,6,.47,8.67a15.75,15.75,0,0,1,3.12,4.74c1.15,3.2,1.35,9,.44,12.87a23.25,23.25,0,0,0-.28,9.17v0Z"/><path class="cls-1" d="M77.79,91.63s8.67-.23,14.23-1.8c5.38-1.52,12.26-4,17.28-7.22s9.81-7.45,11.69-10,3.79-6,4.2-9.35a18.26,18.26,0,0,0-1.54-10.8c-2-4.19-3.63-7.11-6.61-8.9s-7.8-1.9-11.94-1.93S94.88,41.74,91,41s-6.37-2.4-7.89-4.49-3.74-5.56-5.51-7.82-4-4.63-6.59-5.63a15.58,15.58,0,0,0-8-1.21,20.41,20.41,0,0,0-7.42,2.6c-5.94,3.5-8.64,10-8.64,10s3.12-8.26,2.94-9.1-2.78,2.13-3.5,4.2c-1.1,3.17-1.4,8.13-1.85,10.19s1.14-10.48.25-11.61-3,4.33-3.28,7.43A33.53,33.53,0,0,0,43,48.15c1.48,4.06,4.81,13,6.12,16.19S54.54,77,56.86,81.94"/><path class="cls-2" d="M89.87,90.54a83.84,83.84,0,0,1-12.08,1.29v-.4c.09,0,8.71-.25,14.19-1.79,3.2-.91,11.28-3.41,17.22-7.2,4.65-3,9.66-7.25,11.64-10,1.36-1.85,3.71-5.52,4.16-9.26a18.12,18.12,0,0,0-1.52-10.69c-2-4.4-3.69-7.11-6.53-8.81-3.06-1.84-8.35-1.88-11.84-1.9h-2.18A73.18,73.18,0,0,1,91,41.19c-3.61-.7-6.31-2.24-8-4.58-.58-.8-1.27-1.8-2-2.87-1.14-1.66-2.43-3.55-3.52-4.93C76,26.92,73.71,24.29,71,23.24A15.41,15.41,0,0,0,63.07,22a20.53,20.53,0,0,0-7.35,2.57c-5.81,3.42-8.53,9.88-8.56,10l-.36-.15c1.18-3.14,3-8.32,2.93-9-.46.1-2.47,2.34-3.12,4.21a39.33,39.33,0,0,0-1.39,7.21c-.16,1.2-.3,2.24-.46,3,0,.21-.09.41-.29.38s-.23,0,0-2.5c.24-2.83.75-8.73.22-9.4-.07-.09-.12-.09-.16-.07-.95.28-2.58,5-2.77,7.38a33.62,33.62,0,0,0,1.45,12.48C44.58,51.9,48,60.94,49.32,64.26c1.27,3.14,5.32,12.46,7.72,17.6l-.36.17c-2.4-5.15-6.46-14.48-7.73-17.62C47.6,61.09,44.21,52,42.82,48.22a34,34,0,0,1-1.48-12.65c.21-2.69,1.91-7.39,3-7.73A.51.51,0,0,1,45,28c.46.58.35,3.51.09,6.93a31.72,31.72,0,0,1,1.16-5.45C46.86,27.71,49,25,49.79,25a.35.35,0,0,1,.33.3c.12.57-1,3.92-1.94,6.46a22.22,22.22,0,0,1,7.34-7.53A20.62,20.62,0,0,1,63,21.65a15.76,15.76,0,0,1,8.08,1.22c2.84,1.08,5.17,3.77,6.68,5.69,1.09,1.4,2.38,3.29,3.53,5,.72,1.06,1.4,2.06,2,2.86,1.64,2.26,4.25,3.74,7.77,4.42a70.91,70.91,0,0,0,11.86.61h2.18c4.68,0,9.13.2,12,2s4.61,4.51,6.69,9a18.55,18.55,0,0,1,1.56,10.91c-.47,3.82-2.86,7.56-4.24,9.45-2,2.79-7,7-11.75,10-6,3.82-14.11,6.34-17.32,7.25-.7.19-1.44.37-2.21.52"/><path class="cls-2" d="M77.76,92a73.11,73.11,0,0,0,11.72-1.2,58.1,58.1,0,0,0,8.16-2.37,66.58,66.58,0,0,0,8.78-3.75,52.27,52.27,0,0,0,8.13-5.38,41.81,41.81,0,0,0,6.21-5.83,24.18,24.18,0,0,0,2.29-3.38A20.93,20.93,0,0,0,125,65.71a18,18,0,0,0,.71-4.25,19.22,19.22,0,0,0-.18-4.15,26,26,0,0,0-3.44-8.7,14,14,0,0,0-5-5.45c-2.47-1.39-5.48-1.66-8.25-1.8s-5.78-.07-8.67-.09a56.06,56.06,0,0,1-8.59-.52,13,13,0,0,1-7.33-3.49,22.88,22.88,0,0,1-2.21-3c-.86-1.25-1.71-2.51-2.59-3.75a26.74,26.74,0,0,0-6-6.54,13.76,13.76,0,0,0-3.92-1.83,15.64,15.64,0,0,0-4.23-.78A18.63,18.63,0,0,0,56,23.82a22.31,22.31,0,0,0-9,9.76c-.13.26-.26.52-.37.79l.64.22c.83-2.2,1.64-4.42,2.35-6.66.18-.57.36-1.15.5-1.73.07-.31.22-.75,0-1.05-.67-1.18-2.79,1.93-3,2.33a14.78,14.78,0,0,0-2,5.89c-.34,2-.5,4-.88,6a3.13,3.13,0,0,0-.1.44c0-.14.69,0,.62,0v0c0-.33,0-.66.07-1,.1-1.24.21-2.48.31-3.72.1-1.42.2-2.84.23-4.27a16.46,16.46,0,0,0,0-1.72,3,3,0,0,0-.2-1.07.71.71,0,0,0-1-.35,3.14,3.14,0,0,0-1.1,1.39,18.68,18.68,0,0,0-1.76,5.35,26,26,0,0,0-.11,6.23,28.15,28.15,0,0,0,1.45,7.5c1.32,3.68,2.72,7.34,4.11,11,1.13,3,2.29,5.91,3.54,8.82q2.51,5.85,5.12,11.64c.36.8.73,1.61,1.1,2.41.19.39.79.09.61-.31-1.7-3.65-3.32-7.34-4.93-11C51,67.89,49.75,65,48.61,62.11Q46.47,56.58,44.42,51a43.69,43.69,0,0,1-1.82-5.46,34.44,34.44,0,0,1-.8-7.3,18.93,18.93,0,0,1,.67-5.6,18.66,18.66,0,0,1,1-2.62,4.1,4.1,0,0,1,1-1.6.55.55,0,0,1,.13-.08s0,0,0,0,0,0,0,0l0,.07a.39.39,0,0,1,0,.13,5.93,5.93,0,0,1,.12,1.19c0,1.29,0,2.59-.12,3.88s-.21,2.73-.32,4.09a14.8,14.8,0,0,0-.16,2.2c0,.43.53.56.7.13a8.37,8.37,0,0,0,.3-1.66c.3-2.12.52-4.25,1-6.35a14,14,0,0,1,.85-2.9,11.72,11.72,0,0,1,1.58-2.42,8,8,0,0,1,.8-.85,3.55,3.55,0,0,1,.31-.23c.14-.09.13,0,0-.1s-.09-.08-.07-.07,0,0,0,0,0,.15,0,.22a4.09,4.09,0,0,1-.12.54,77.05,77.05,0,0,1-2.56,7.55l-.23.6c-.15.41.48.62.64.22a19.69,19.69,0,0,1,1.43-2.68,23.6,23.6,0,0,1,4.51-5.35,19.24,19.24,0,0,1,7.81-4,14.81,14.81,0,0,1,4.82-.47,16.82,16.82,0,0,1,4.21,1,12.19,12.19,0,0,1,3.79,2.12A22.16,22.16,0,0,1,77,28.42c1.8,2.23,3.35,4.65,5,7a16,16,0,0,0,2.2,2.73,11.64,11.64,0,0,0,3.08,2,22.12,22.12,0,0,0,8.12,1.64c2.85.16,5.72.14,8.57.14a52.17,52.17,0,0,1,8.66.47,12.65,12.65,0,0,1,3.85,1.18,10.5,10.5,0,0,1,2.83,2.21A25.86,25.86,0,0,1,123.5,53,17.94,17.94,0,0,1,125,61.59a16.78,16.78,0,0,1-.76,4.22,21.12,21.12,0,0,1-2,4.28A22.69,22.69,0,0,1,120,73.27,33,33,0,0,1,117.34,76a59.32,59.32,0,0,1-7.71,6,63.24,63.24,0,0,1-16.77,7.25,60.19,60.19,0,0,1-14.07,2l-1,0c-.43,0-.48.68,0,.67"/><path class="cls-2" d="M49.65,25.27l0,.16,0,0,.08-.07,0,0a.2.2,0,0,0-.11-.09m-2.72,9,.25.09c.25-.65.5-1.33.76-2.05-.25.45-.5.91-.73,1.38-.1.2-.2.39-.28.58m-1.35-2c0,1-.11,1.88-.17,2.73.14-1,.3-2,.51-3a13.18,13.18,0,0,1,.86-2.94,11.64,11.64,0,0,1,1.61-2.47,6.87,6.87,0,0,1,.82-.86l.16-.14,0-.08v-.06a.09.09,0,0,0,0-.05l0-.06,0-.1h.06a.29.29,0,0,1,.1,0l.19,0,0,.1h0l.13,0v.28l-.14.06-.06,0c0,.15-.07.3-.11.46a53.78,53.78,0,0,1-1.71,5.26c.21-.34.42-.67.64-1,.3-.87.61-1.76.89-2.66.2-.61.37-1.16.5-1.71L50,26a1.24,1.24,0,0,0,0-.78c-.08-.15-.16-.17-.23-.17-.53,0-1.66,1.25-2.49,2.51a12.89,12.89,0,0,0-1.72,4.66M44.46,39.6l.18,0c0-.24,0-.49,0-.74,0-.44.07-.88.11-1.32-.09.63-.19,1.26-.3,1.88,0,.05,0,.11,0,.16m-.12.25a.13.13,0,0,1,0,.06.09.09,0,0,0,0,.05.18.18,0,0,0,0-.11Zm0,.14a.16.16,0,0,0,.14.12.14.14,0,0,0,.14-.08,1.35,1.35,0,0,0-.28,0m.08-12.1a.47.47,0,0,0-.15.06,2.91,2.91,0,0,0-1,1.29,18.35,18.35,0,0,0-1.74,5.3,25.3,25.3,0,0,0-.11,6.19,27.75,27.75,0,0,0,1.44,7.45c1.33,3.69,2.74,7.4,4.1,11,1.27,3.32,2.42,6.2,3.54,8.81,1.79,4.17,3.46,8,5.12,11.64l1.1,2.4a.12.12,0,0,0,.17.06s.13-.08.08-.2c-1.62-3.46-3.14-6.92-4.93-11-1.33-3.06-2.51-5.81-3.62-8.66-1.51-3.88-3-7.79-4.2-11.1l-.3-.81a36.91,36.91,0,0,1-1.52-4.67,34,34,0,0,1-.81-7.35,18.85,18.85,0,0,1,1.64-8.31l.07-.13a3.91,3.91,0,0,1,1-1.54l.06-.05,0,0,.13-.12,0,0,0,0,.07.11.07,0v.09s0,0,0,.05v0a.43.43,0,0,1,0,.11v0A5.78,5.78,0,0,1,45,29.74c0,1.27,0,2.52-.12,3.9,0,.48-.07,1-.11,1.43.08-.58.16-1.16.26-1.74.07-.37.13-.75.21-1.13s0-.86,0-1.29,0-1.09,0-1.7v0a2.74,2.74,0,0,0-.18-1,.58.58,0,0,0-.32-.3.53.53,0,0,0-.25,0M77.78,91.5a.17.17,0,0,0-.12.17c0,.1.07.1.1.1a73,73,0,0,0,11.68-1.2,57.41,57.41,0,0,0,8.13-2.36,65.72,65.72,0,0,0,8.75-3.73,51.27,51.27,0,0,0,8.11-5.37,40.8,40.8,0,0,0,6.18-5.8A23.8,23.8,0,0,0,122.88,70a20.8,20.8,0,0,0,1.92-4.32,17.56,17.56,0,0,0,.7-4.2,19,19,0,0,0-.17-4.11,26.14,26.14,0,0,0-3.42-8.63,13.77,13.77,0,0,0-5-5.38c-2.47-1.39-5.51-1.64-8.16-1.77-2-.1-4.05-.09-6-.09h-2.63a55.85,55.85,0,0,1-8.62-.53,13.1,13.1,0,0,1-7.45-3.55A18.94,18.94,0,0,1,82.2,35c-.12-.19-.24-.37-.37-.55l-.64-.94c-.63-.92-1.28-1.88-1.94-2.8a26.83,26.83,0,0,0-5.92-6.5,13,13,0,0,0-3.86-1.8,15,15,0,0,0-4.18-.77A18.41,18.41,0,0,0,56.12,24a20.91,20.91,0,0,0-7.19,6.71c-.14.41-.28.8-.42,1.19l.05-.09a23.54,23.54,0,0,1,4.55-5.4,19.48,19.48,0,0,1,7.89-4,15,15,0,0,1,4.89-.48,17.3,17.3,0,0,1,4.26,1A12.33,12.33,0,0,1,74,25a23.33,23.33,0,0,1,3.14,3.28c1.36,1.69,2.6,3.51,3.8,5.27l1.18,1.74.08.11A15.7,15.7,0,0,0,84.29,38a11.59,11.59,0,0,0,3,2,22.19,22.19,0,0,0,8.05,1.62c2.47.14,5,.14,7.41.14h1.47a52.29,52.29,0,0,1,8.37.47,12.79,12.79,0,0,1,3.92,1.2,10.79,10.79,0,0,1,2.87,2.25,26.32,26.32,0,0,1,4.27,7.2,18.11,18.11,0,0,1,1.53,8.73,17.17,17.17,0,0,1-.77,4.27,20.82,20.82,0,0,1-2,4.32,21.84,21.84,0,0,1-2.25,3.21,29.51,29.51,0,0,1-2.7,2.75,59.16,59.16,0,0,1-7.73,6,62.28,62.28,0,0,1-16.83,7.27,61.31,61.31,0,0,1-14.11,2l-1,0h0m12.06-.6-.33.06a73.71,73.71,0,0,1-11.74,1.21.48.48,0,0,1-.51-.48.57.57,0,0,1,.54-.59l1,0a61,61,0,0,0,14-2,62.09,62.09,0,0,0,16.72-7.22,59.25,59.25,0,0,0,7.68-6,28.85,28.85,0,0,0,2.67-2.72A21.78,21.78,0,0,0,122.08,70a20.79,20.79,0,0,0,2-4.24,16.46,16.46,0,0,0,.75-4.18A17.7,17.7,0,0,0,123.32,53a26,26,0,0,0-4.2-7.09,10.24,10.24,0,0,0-2.77-2.17,12.85,12.85,0,0,0-3.8-1.16,51.29,51.29,0,0,0-8.3-.46h-1.47c-2.44,0-5,0-7.43-.14a22.39,22.39,0,0,1-8.19-1.66A12,12,0,0,1,84,38.3a15,15,0,0,1-2.14-2.65l-.08-.12c-.4-.57-.8-1.16-1.19-1.74-1.19-1.75-2.43-3.57-3.78-5.24a22.49,22.49,0,0,0-3.08-3.22A12,12,0,0,0,70,23.25a16.36,16.36,0,0,0-4.16-.95,14.76,14.76,0,0,0-4.76.46,19.2,19.2,0,0,0-7.73,3.95A23,23,0,0,0,48.9,32a18.59,18.59,0,0,0-1.41,2.64l-.07.18h0a.54.54,0,0,1-.61.13.49.49,0,0,1-.33-.45l0,0,.08-.19.22-.6.37-1a65.3,65.3,0,0,0,2.17-6.46c-.17.17-.35.37-.55.61a10.93,10.93,0,0,0-1.55,2.38,13.72,13.72,0,0,0-.84,2.85c-.31,1.49-.51,3-.71,4.5-.08.61-.16,1.23-.25,1.84,0,.13,0,.26-.05.4a5.08,5.08,0,0,1-.26,1.3.56.56,0,0,1-.59.39.6.6,0,0,1-.49-.57,9.48,9.48,0,0,1,.09-1.6c0-.22.05-.43.07-.64.12-1.45.23-2.76.32-4.08s.16-2.62.12-3.87a5.84,5.84,0,0,0-.1-1.08,4.25,4.25,0,0,0-.78,1.3l-.06.14a18.19,18.19,0,0,0-1,2.6A19.2,19.2,0,0,0,42,38.25a34.47,34.47,0,0,0,.81,7.26,36.63,36.63,0,0,0,1.5,4.62l.3.81c1.23,3.31,2.69,7.22,4.2,11.1,1.1,2.84,2.29,5.59,3.61,8.64,1.79,4.11,3.31,7.56,4.93,11a.53.53,0,0,1-.27.71.51.51,0,0,1-.7-.24l-1.1-2.41c-1.66-3.66-3.34-7.47-5.12-11.64C49,65.51,47.87,62.62,46.6,59.3c-1.36-3.58-2.77-7.29-4.1-11A28,28,0,0,1,41,40.76a25.64,25.64,0,0,1,.12-6.29,18.73,18.73,0,0,1,1.77-5.4,3.36,3.36,0,0,1,1.18-1.48.93.93,0,0,1,.71-.06.9.9,0,0,1,.55.5,3.1,3.1,0,0,1,.23,1.11v0c0,.4,0,.81,0,1.17a11.19,11.19,0,0,1,1.34-3c.42-.63,1.87-2.71,2.83-2.68a.65.65,0,0,1,.57.36,1.49,1.49,0,0,1,0,1.08l0,.12c-.13.57-.3,1.12-.5,1.74s-.31,1-.46,1.42a20.72,20.72,0,0,1,6.55-5.76,18.88,18.88,0,0,1,9.37-2.46,15.83,15.83,0,0,1,4.29.79,13.48,13.48,0,0,1,4,1.86,27,27,0,0,1,6,6.59c.66.93,1.31,1.88,2,2.81.21.31.43.62.64.94l.37.54a17.82,17.82,0,0,0,1.82,2.4,12.77,12.77,0,0,0,7.22,3.43,54.9,54.9,0,0,0,8.56.52h2.63c2,0,4,0,6,.09,2.7.13,5.79.39,8.33,1.83a14,14,0,0,1,5.11,5.52,26.51,26.51,0,0,1,3.47,8.77,18.65,18.65,0,0,1,.17,4.2,17.92,17.92,0,0,1-.71,4.29,20.79,20.79,0,0,1-2,4.39,23.25,23.25,0,0,1-2.31,3.4,40.62,40.62,0,0,1-6.24,5.86,51.73,51.73,0,0,1-8.16,5.41,65.73,65.73,0,0,1-8.8,3.75,60.85,60.85,0,0,1-7.87,2.32"/><path class="cls-14" d="M85.52,64.55c-1.68-2.39-1.92-7.62,1-12.19C91,45.13,97.93,41.62,103.21,39.85c10.39-3.51,18.38-.83,22,4.13s3.52,12.35-2.66,18.21c-6.66,6.3-14.28,8.11-21.81,8.74-7.19.61-12.4-2.36-15.24-6.38"/><path class="cls-7" d="M85.8,64.36c3.18,4.49,8.62,6.77,14.93,6.23s14.59-2,21.61-8.65c4.6-4.36,7.2-11.54,2.62-17.76a14,14,0,0,0-8.28-5.11,24.9,24.9,0,0,0-13.36,1.1c-7.42,2.5-13,6.66-16.57,12.36C84,56.91,84.12,62,85.8,64.36M107,70.42a53.14,53.14,0,0,1-6.17.85c-6.56.55-12.22-1.83-15.54-6.52-1.81-2.56-2-8,.93-12.57,3.65-5.85,9.35-10.1,16.92-12.65a25.65,25.65,0,0,1,13.73-1.12,14.69,14.69,0,0,1,8.68,5.37c3.47,4.72,4,12.32-2.71,18.65a31.58,31.58,0,0,1-15.84,8"/><path class="cls-15" d="M114.85,53.21c-5.2,4-20.55,7.93-24.7,3.27s4.36-12.91,10.22-15.57,17.47-4,20.19.19-1,8.52-5.71,12.11"/><path class="cls-7" d="M106.25,39.43a28.1,28.1,0,0,0-5.74,1.78c-4.51,2-10.13,7.19-11,11.29a4.09,4.09,0,0,0,.89,3.75c4,4.5,19.15.57,24.24-3.31,5.94-4.52,7.79-8.34,5.64-11.66-1.83-2.82-8.31-3-14-1.85M103,58.27c-5.37,1.09-10.77,1-13.07-1.57a4.7,4.7,0,0,1-1.05-4.34c1-4.76,7.26-9.89,11.38-11.76a32.91,32.91,0,0,1,11.4-2.51c4.65-.17,7.92.83,9.21,2.82,2.38,3.68.49,7.79-5.79,12.57-2.47,1.88-7.26,3.81-12.08,4.79"/><path class="cls-16" d="M63.53,50.68c.42,2.83,1.49,8.13,5.35,8s4.68-4.84,4.14-8.29-2.25-7.73-5.75-7.56c-4.17.2-3.74,7.85-3.74,7.85"/><path class="cls-2" d="M63.76,50.66c.77,5.26,2.49,7.88,5.11,7.79a3.55,3.55,0,0,0,2.71-1.3c1.4-1.71,1.53-4.69,1.21-6.72-.57-3.67-2.32-7.53-5.51-7.38a2.7,2.7,0,0,0-1.93.93c-1.79,2-1.6,6.44-1.59,6.68m5.89,8.15a4.65,4.65,0,0,1-.76.09c-2.9.1-4.77-2.65-5.58-8.18v0c0-.2-.25-4.86,1.7-7a3.14,3.14,0,0,1,2.25-1.08c3.49-.17,5.37,3.9,6,7.76.35,2.23.19,5.25-1.32,7.07a3.8,3.8,0,0,1-2.27,1.38"/><path class="cls-8" d="M65.74,50.42c.18,2.37,1,5.12,2.82,5.09s2.61-1.82,2.16-5.3c-.29-2.2-1.35-5.06-3.07-4.71-1.55.32-2.1,2.37-1.91,4.92"/><path class="cls-8" d="M67.72,45.83c-1.23.25-1.84,2-1.64,4.56.18,2.4,1,4.81,2.47,4.78a1.6,1.6,0,0,0,1.25-.56c.65-.76.85-2.26.58-4.35-.21-1.62-.84-3.55-1.78-4.22a1.11,1.11,0,0,0-.88-.21m1.33,10a2.54,2.54,0,0,1-.49.05c-2,0-3-2.88-3.16-5.4l.34,0-.34,0c-.23-3,.57-4.94,2.19-5.27a1.75,1.75,0,0,1,1.4.32c1.18.84,1.85,3,2.06,4.68.3,2.32,0,4-.74,4.88a2.18,2.18,0,0,1-1.26.74"/><path class="cls-1" d="M69.92,55.07c-.82.17-1.65-1.35-1.62-2.2s-.07-2,1-2.32c.89-.29,1.45.87,1.55,1.9s.17,2.4-.94,2.62"/><path class="cls-1" d="M69.48,50.85l-.07,0c-.68.22-.74.79-.76,1.7,0,.11,0,.21,0,.31a2.58,2.58,0,0,0,.78,1.69.54.54,0,0,0,.43.17c.73-.15.8-1,.67-2.26a2.28,2.28,0,0,0-.68-1.56.46.46,0,0,0-.36-.07M70,55.4a1.14,1.14,0,0,1-1-.32,3.17,3.17,0,0,1-1-2.23v-.3c0-.82,0-1.94,1.24-2.33a1.14,1.14,0,0,1,1,.14,2.9,2.9,0,0,1,1,2.06c.09.87.27,2.68-1.22,3"/><path class="cls-16" d="M72.76,43.09c.46,3.47,2,8.48,5.12,8.5s5.18-4,4.29-9.12-3.53-7.85-5.9-7.53-4.15,3.43-3.51,8.15"/><path class="cls-2" d="M73,43.06c.42,3.08,1.92,8.29,4.91,8.31a3.42,3.42,0,0,0,2.67-1.32C82,48.4,82.48,45.58,82,42.51c-.89-5.21-3.52-7.64-5.65-7.35-2.8.38-3.8,4.35-3.32,7.9m5.66,8.69a3.84,3.84,0,0,1-.76.07c-3.08,0-4.81-4.7-5.35-8.7-.68-5.1,1.34-8.09,3.71-8.41,3.1-.42,5.44,3.57,6.16,7.72.55,3.2,0,6.16-1.5,7.91a4,4,0,0,1-2.26,1.41"/><path class="cls-8" d="M74.1,44.11c.3,2.86,1.85,5.13,3.12,5s2.49-1.5,2.1-5.6c-.29-3-1.82-5-3.37-4.65s-2.21,1.9-1.85,5.22"/><path class="cls-8" d="M74.43,44.08c.29,2.71,1.75,4.8,2.77,4.72a1.49,1.49,0,0,0,1-.56c.48-.58,1-1.85.73-4.67a5.86,5.86,0,0,0-1.76-4A1.47,1.47,0,0,0,76,39.22c-.88.17-2,.87-1.58,4.86m3.08,5.36-.26,0c-1.55.11-3.18-2.37-3.49-5.33-.23-2.17-.26-5.11,2.12-5.6a2.15,2.15,0,0,1,1.74.44,6.39,6.39,0,0,1,2,4.51c.24,2.45-.06,4.19-.88,5.17a2.22,2.22,0,0,1-1.26.77"/><path class="cls-1" d="M76.55,47.07c.23,1.14.9,2,1.47,1.87s1.1-.61.94-2.17c-.1-1-.79-1.91-1.45-1.78-.86.18-1.21.84-1,2.08"/><path class="cls-1" d="M77.58,45.32c-.47.1-1,.37-.7,1.68.21,1.06.78,1.67,1.07,1.61.56-.11.78-.72.67-1.8a2,2,0,0,0-.68-1.37.46.46,0,0,0-.36-.12m.5,4c-.77.16-1.59-.78-1.86-2.14-.38-1.85.6-2.34,1.22-2.47a1.14,1.14,0,0,1,.9.23,2.71,2.71,0,0,1,1,1.85c.19,1.85-.55,2.4-1.21,2.53"/><path class="cls-14" d="M55.66,38.78a20,20,0,0,0-2.21,5.39c-.43,1.29-2.84,2.59-3.44-.44a9.57,9.57,0,0,1,1.7-6.68c1-1.47,3.3-3.9,5.26-4s2.24,1.15,1.76,2.11a30.55,30.55,0,0,1-3.07,3.66"/><path class="cls-17" d="M55.79,33.71A11.71,11.71,0,0,0,52,37.25a9.39,9.39,0,0,0-1.64,6.42c.14.69.46,1.53,1.18,1.58a1.85,1.85,0,0,0,1.61-1.18l.27-.85a16.2,16.2,0,0,1,2-4.63l0,0a28.23,28.23,0,0,0,3-3.59,1.2,1.2,0,0,0,0-1.16c-.23-.35-.74-.5-1.47-.45a3.14,3.14,0,0,0-1.2.36m-3.31,12a2,2,0,0,1-1,.22c-.53,0-1.45-.35-1.8-2.12a9.86,9.86,0,0,1,1.75-6.94c.29-.41,2.93-4,5.52-4.19a2.09,2.09,0,0,1,2.07.76,1.8,1.8,0,0,1,0,1.84A28,28,0,0,1,55.92,39,16.27,16.27,0,0,0,54,43.41l-.27.87a2.61,2.61,0,0,1-1.29,1.42"/><path class="cls-14" d="M68.7,27.48c-1.38.19-3-.35-3.07-1.36A2.54,2.54,0,0,1,68,23.53a12.94,12.94,0,0,1,7.14.56c1.94.62,2.26,3.38.48,3.21a47.49,47.49,0,0,0-6.89.18"/><path class="cls-17" d="M73.71,24A12.32,12.32,0,0,0,68,23.86,2.21,2.21,0,0,0,66,26.1a.76.76,0,0,0,.33.55,3.31,3.31,0,0,0,2.35.49h0a47.13,47.13,0,0,1,7-.17.64.64,0,0,0,.78-.52,2,2,0,0,0-1.39-2L73.71,24M67,27.71a3,3,0,0,1-1.13-.54,1.43,1.43,0,0,1-.57-1,2.85,2.85,0,0,1,2.61-2.94,13.28,13.28,0,0,1,7.3.56,2.62,2.62,0,0,1,1.85,2.83,1.29,1.29,0,0,1-1.5,1.05,47.42,47.42,0,0,0-6.82.17,4.59,4.59,0,0,1-1.74-.1"/><path class="cls-4" d="M52.38,64.69s-.63-5.76-2.1-8.18-9.94-5.45-13.42-6.74S28.24,44.48,27,40.29c-1.58-5.55,1.06-15,9.06-19.63,2.76-1.57,16-6.95,16-11.43s-5.83-4.48-6.91-4.34C42.05,5.33,35.9,8.37,33,12c-5,6.32-9.32,14.75-8.13,24.9,1.52,12.89,7.93,18.85,10.52,21.38s11.9,7.36,17,6.45"/><path class="cls-4" d="M44.78,5.31c-3.1.63-8.74,3.42-11.47,6.86-6.34,8-9,16.27-8.06,24.65,1.46,12.46,7.6,18.43,10.22,21l.19.2C38,60.31,47,65.05,52,64.4c-.15-1.23-.79-5.71-2-7.72-1.33-2.19-9-5-12.63-6.37l-.62-.22a19.83,19.83,0,0,1-5.9-3.73,13.77,13.77,0,0,1-4.12-6,16.81,16.81,0,0,1,1-10.41,19.17,19.17,0,0,1,8.27-9.61c.52-.3,1.4-.73,2.51-1.26,4.32-2.1,13.3-6.45,13.35-9.89a3.31,3.31,0,0,0-1.1-2.64C49,5.09,46,5.14,45.28,5.23l-.5.08m8,59.65-.31.06c-5,.92-14.46-3.82-17.25-6.54L35,58.29c-2.68-2.61-8.93-8.7-10.43-21.4-1-8.56,1.76-17,8.21-25.14C35.77,8,42.12,5,45.18,4.56c.78-.11,4.07-.16,6,1.51a4,4,0,0,1,1.32,3.16c-.06,3.85-8.61,8-13.72,10.48-1.1.54-2,1-2.48,1.25-5.18,3-11.16,11.29-8.9,19.24,1.18,4.15,6.34,8,9.61,9.25l.61.23c4,1.49,11.52,4.26,13,6.65s2.12,8.08,2.14,8.32Z"/><path class="cls-18" d="M88.64,98.58a74.85,74.85,0,0,1-13.71-4.85,47.88,47.88,0,0,1-10.8-7.15C61.59,84.06,56,79.35,56,79.35l-1.51,5.26s6.7,8.07,10.73,11.3,13.22,9.55,22.2,10.21c6.5.48,7.06-.65,7.06-.65L96.81,99a25.22,25.22,0,0,1-8.17-.44"/><path class="cls-6" d="M54.88,84.53c.9,1.07,6.9,8.18,10.57,11.12,10.87,8.7,19.6,10,22,10.13,5.48.4,6.6-.36,6.74-.48l2.11-5.88a26.37,26.37,0,0,1-7.74-.51A75.49,75.49,0,0,1,74.79,94a48.79,48.79,0,0,1-10.9-7.22c-2.11-2.09-6.37-5.75-7.69-6.87ZM93.3,106.35a23.31,23.31,0,0,1-5.89.11,34,34,0,0,1-13.09-4.18A60.26,60.26,0,0,1,65,96.17C61,93,54.31,84.9,54.25,84.82l-.12-.14,1.71-5.92.4.33c.06,0,5.61,4.75,8.13,7.25a47.38,47.38,0,0,0,10.71,7.08,73.23,73.23,0,0,0,13.64,4.83,25.49,25.49,0,0,0,8,.44l.56-.09-2.52,7c-.08.16-.38.5-1.5.73"/><path class="cls-2" d="M64.12,96.45h0l0,0v0l0,0m0,.08a.17.17,0,0,0,0,0c.06.1.11.09.13.09a.25.25,0,0,0,.2-.17l0-.09-.1.06a.15.15,0,0,0-.1,0l-.11,0a.22.22,0,0,1-.07.09"/><path class="cls-7" d="M89.05,109.12a3.4,3.4,0,0,1-.46.07,3.89,3.89,0,0,1-3.38-1.54l.87-.71a2.72,2.72,0,0,0,2.4,1.13c3-.29,3.42-4,3.26-5.93-.25-3-2.18-6-3.89-6.11l.05-1.13c2.5.1,4.69,3.85,5,7.15.26,3-.84,6.47-3.81,7.07"/><path class="cls-19" d="M72.78,78.47a13.31,13.31,0,0,1,4.58-2.28,12.94,12.94,0,0,1,3.92-.49,12,12,0,0,1,3.91.92,15.58,15.58,0,0,1,2.35,1.26,14,14,0,0,1,3.79,3.65A33.82,33.82,0,0,0,87,78.91c-.75-.36-1.5-.67-2.26-1l-.58-.18-.29-.1-.29-.07L83,77.46l-.59-.11A10.72,10.72,0,0,0,80,77.16c-.4,0-.8,0-1.21,0s-.8.07-1.2.14a32.65,32.65,0,0,0-4.85,1.12"/></svg>