<svg id="Layer_1" data-name="Layer 1" xmlns="http://www.w3.org/2000/svg" viewBox="0 0 142.61 196.86"><defs><style>.cls-1{fill:#fff;}.cls-2{fill:#b7ab89;}.cls-3{fill:#b1a181;}.cls-4{fill:#bc8524;}.cls-5{fill:#741818;}.cls-6{fill:#9d2223;}.cls-7{fill:#42445a;}.cls-8{fill:#020200;}.cls-9{fill:#36383c;}.cls-10{fill:#df2421;}.cls-11{fill:#0c74b0;}.cls-12{fill:#ada081;}.cls-13{fill:#985f3f;}.cls-14{fill:#24292b;}.cls-15{fill:#474648;}.cls-16{fill:#ebf7fc;}.cls-17{fill:#111313;}.cls-18{fill:#cc2023;}.cls-19{fill:#751a1a;}.cls-20{fill:#f196aa;}.cls-21{fill:#973f68;}.cls-22{fill:none;stroke:#b7aa89;stroke-miterlimit:10;stroke-width:0.71px;}</style></defs><path class="cls-1" d="M82.71,145.74s6.53,1.74,10,4.46,6.39,6.44,6.52,10.49-.48,6.6-2.92,9.74-8.41,7.16-8.41,7.16,4.53-2.35,8.33-1.68,6.26,2.38,7.09,5.29a10.48,10.48,0,0,1-.61,6.92c-.55,1.13-3.1,2.56-8.24,2.92a129.32,129.32,0,0,1-13.76-.13c-1.26-.07-13.3-2.36-13.3-2.36s-.66-20.58,2-29.06,13.27-13.75,13.27-13.75"/><path class="cls-2" d="M67.6,188.39c1.42.27,12,2.26,13.12,2.32h.1a119.84,119.84,0,0,0,13.64.12c4.8-.33,7.51-1.65,8.07-2.81a10.35,10.35,0,0,0,.6-6.78c-.78-2.74-3.11-4.47-6.94-5.14-3.68-.66-8.15,1.63-8.2,1.65l-.2-.34c.06,0,6-4,8.37-7.11s3-5.36,2.87-9.61c-.15-4.71-4.1-8.5-6.44-10.34-3.21-2.52-9.14-4.2-9.86-4.4a35.84,35.84,0,0,0-5.53,3.64c-2.7,2.15-6.2,5.63-7.57,10-2.53,8-2.08,26.9-2,28.84m26.89,2.85a121.12,121.12,0,0,1-13.69-.13h-.11c-1.25-.07-12.83-2.27-13.32-2.36l-.15,0v-.16c0-.2-.63-20.72,2-29.13,1.41-4.42,5-8,7.71-10.14a35,35,0,0,1,5.66-3.72l.06,0,.08,0c.06,0,6.61,1.78,10.07,4.5,2.4,1.88,6.44,5.76,6.6,10.64.13,4.35-.61,6.84-3,9.86a38.16,38.16,0,0,1-6.88,6.09,13.5,13.5,0,0,1,6.67-.93c4,.71,6.43,2.54,7.25,5.43a10.79,10.79,0,0,1-.62,7.07c-.56,1.16-3.1,2.66-8.4,3"/><path class="cls-3" d="M82.64,146.08a38.89,38.89,0,0,1,5.83,2.08,19.32,19.32,0,0,1,4.13,2.39,20.7,20.7,0,0,1,4.11,4.25,11.35,11.35,0,0,1,2.12,5.09,16.48,16.48,0,0,1,.06,2.72,14.26,14.26,0,0,1-.29,2.44,14.78,14.78,0,0,1-5,7.73,53.78,53.78,0,0,1-5.75,4.45l-.11.08c-.37.25,0,.75.38.56l0,0,.35-.16c.36-.17.73-.33,1.11-.47a17.17,17.17,0,0,1,3.59-1,10.35,10.35,0,0,1,4.18.25,9.45,9.45,0,0,1,3.36,1.51,6.14,6.14,0,0,1,2,2.45,8.59,8.59,0,0,1,.55,4.4,8.77,8.77,0,0,1-.88,3.18,2.59,2.59,0,0,1-.44.52,5,5,0,0,1-.94.63,11.77,11.77,0,0,1-3,1,27.25,27.25,0,0,1-4.41.54c-2.76.14-5.53.1-8.29,0l-3.2-.12-1-.06h-.33c-.12,0,.05,0,0,0h-.09c-1.28-.14-2.55-.4-3.81-.62-3.06-.54-6.11-1.11-9.16-1.69l-.18,0,.27.31c-.06-1.77-.07-3.54-.07-5.31,0-3.86.07-7.72.32-11.57q.18-3,.55-6a40.15,40.15,0,0,1,1-5.21,20.34,20.34,0,0,1,6.79-9.9,34.48,34.48,0,0,1,6.47-4.43l.08-.05,0,0c.38-.19.16-.83-.23-.63A33.58,33.58,0,0,0,77,149.06c-3.27,2.6-6.32,5.86-7.73,9.87a27.39,27.39,0,0,0-1.16,5c-.31,2-.52,4-.67,6-.31,4-.43,8-.45,12,0,2.17,0,4.37.07,6.54v.1a.35.35,0,0,0,.27.31l2.75.51c1.87.35,3.73.7,5.6,1,1.49.27,3,.55,4.47.76.43.05.86.07,1.29.09.94.05,1.89.1,2.84.13,2.79.11,5.58.16,8.37.06a21.63,21.63,0,0,0,8.09-1.42,5.48,5.48,0,0,0,1.94-1.3,2.91,2.91,0,0,0,.47-.82,9.82,9.82,0,0,0,.53-1.67c.63-2.68.36-5.77-1.55-7.87a8.1,8.1,0,0,0-2.92-2,12,12,0,0,0-4.12-.95,15.6,15.6,0,0,0-6.93,1.62l-.46.23.38.56a58.27,58.27,0,0,0,5.18-3.93c2.48-2.12,4.75-4.58,5.73-7.76a16.21,16.21,0,0,0,.58-5.05,11.51,11.51,0,0,0-1.48-5.4,18.52,18.52,0,0,0-3.82-4.64,19.34,19.34,0,0,0-4.31-3,39.28,39.28,0,0,0-7.06-2.67l-.14,0c-.42-.11-.55.56-.13.67"/><path class="cls-2" d="M82.61,145.64a.16.16,0,0,0,0,.15.12.12,0,0,0,.1.09h0a.16.16,0,0,0,.09-.14.25.25,0,0,0,0-.13h-.11l-.07,0m.54.37a38.77,38.77,0,0,1,5.4,2,18.91,18.91,0,0,1,4.17,2.41,21.1,21.1,0,0,1,4.15,4.29A11.47,11.47,0,0,1,99,159.86a17.14,17.14,0,0,1,.07,2.76,14.39,14.39,0,0,1-.3,2.47c-.58,2.73-2.24,5.29-5.08,7.84a52,52,0,0,1-4.24,3.39c.3-.12.61-.22.91-.32.94-.71,1.86-1.45,2.76-2.21,2.09-1.79,4.63-4.27,5.67-7.66a16.32,16.32,0,0,0,.57-5,11.09,11.09,0,0,0-1.46-5.3,18.15,18.15,0,0,0-3.77-4.59,19.1,19.1,0,0,0-4.27-2.94,38.48,38.48,0,0,0-6.66-2.56v0a.61.61,0,0,1-.07.24M88,177.38l.15.21c.36-.24.71-.49,1.07-.75l-1,.42-.25.12M67.24,188l.29.05c0-1.71,0-3.38,0-4.81,0-4.28.1-8.07.32-11.58.14-2.24.32-4.22.56-6a38.48,38.48,0,0,1,1-5.23c1-3.55,3.26-6.91,6.85-10a35,35,0,0,1,6.14-4.27.47.47,0,0,1-.11-.21s0,0,0,0a33.35,33.35,0,0,0-5.06,3.37c-3.9,3.08-6.48,6.37-7.68,9.77a29.22,29.22,0,0,0-1.15,5c-.28,1.77-.49,3.66-.66,6-.28,3.58-.43,7.51-.45,12v.95c0,1.67,0,3.39,0,5.09m0,.3a1.21,1.21,0,0,0,0,.19v.1a.15.15,0,0,0,.11.12l.29.06Zm13.48,2.1h0l.33,0,1,0,3.2.13c2.44.07,5.33.13,8.27,0a26.62,26.62,0,0,0,4.38-.53,11.26,11.26,0,0,0,3-1,4.84,4.84,0,0,0,.9-.6,2.67,2.67,0,0,0,.4-.46,8.71,8.71,0,0,0,.86-3.11,8.51,8.51,0,0,0-.54-4.3,6,6,0,0,0-1.92-2.37,9.27,9.27,0,0,0-3.29-1.48,10.41,10.41,0,0,0-4.1-.25,17.34,17.34,0,0,0-3.55,1c-.38.15-.75.31-1.1.47l-.34.15,0,0-.15.1,0,0a.56.56,0,0,1-.57-.27.48.48,0,0,1,0-.55l0-.05.29-.16a54.2,54.2,0,0,0,5.73-4.44c2.78-2.48,4.4-5,5-7.62a13.71,13.71,0,0,0,.29-2.4,16.33,16.33,0,0,0-.06-2.7,11.31,11.31,0,0,0-2.08-5,20.57,20.57,0,0,0-4.07-4.21,18.82,18.82,0,0,0-4.09-2.36,38.42,38.42,0,0,0-5.62-2,34.18,34.18,0,0,0-6.33,4.35c-3.53,3-5.79,6.33-6.73,9.8a40.71,40.71,0,0,0-1,5.18c-.23,1.82-.41,3.78-.56,6-.22,3.5-.32,7.28-.32,11.55,0,1.45,0,3.15.06,4.89,2.66.5,5.77,1.08,8.93,1.64l.87.16c1,.18,1.94.36,2.92.46ZM68,188.8l2.18.41,5.59,1,.74.13c1.22.22,2.48.45,3.73.62.37,0,.75.07,1.12.09h.15l2.84.12c3.37.13,6,.15,8.35.06a21.82,21.82,0,0,0,8-1.4,5.34,5.34,0,0,0,1.87-1.25,2.76,2.76,0,0,0,.44-.77,9.55,9.55,0,0,0,.52-1.64,8.52,8.52,0,0,0-1.51-7.69,7.8,7.8,0,0,0-2.84-1.93,11.85,11.85,0,0,0-4.06-.93,13.19,13.19,0,0,0-4.53.69l-.79.59a16.8,16.8,0,0,1,3.38-.89,10.65,10.65,0,0,1,4.26.26,9.62,9.62,0,0,1,3.43,1.54,6.35,6.35,0,0,1,2,2.53,8.77,8.77,0,0,1,.57,4.51,8.87,8.87,0,0,1-.91,3.25,2.55,2.55,0,0,1-.48.57,5.26,5.26,0,0,1-1,.65,11.63,11.63,0,0,1-3.07,1,25,25,0,0,1-4.44.54c-3,.16-5.86.1-8.3,0-1,0-2.13-.07-3.21-.13l-1-.05h-.14l-.23,0h-.08c-1-.1-2-.28-3-.46l-.87-.16c-3.13-.55-6.21-1.13-8.85-1.63v.29Zm26.66,2.77c-.66.05-1.31.08-1.94.1-2.42.09-5,.07-8.39-.06-.93,0-1.89-.08-2.85-.13h-.14a11.59,11.59,0,0,1-1.16-.1c-1.25-.17-2.52-.4-3.74-.62l-.74-.13-5.6-1-2.75-.52a.54.54,0,0,1-.43-.49v-.1c-.1-1.86-.08-3.76-.07-5.61v-.94c0-4.52.16-8.46.44-12.05.18-2.32.39-4.22.67-6a28.43,28.43,0,0,1,1.17-5c1.22-3.48,3.85-6.83,7.8-10a32.73,32.73,0,0,1,5.48-3.59.47.47,0,0,1,.25-.11.46.46,0,0,1,.36,0A39.38,39.38,0,0,1,90.06,148a19.52,19.52,0,0,1,4.36,3,18.79,18.79,0,0,1,3.85,4.7,11.46,11.46,0,0,1,1.5,5.49,16.47,16.47,0,0,1-.58,5.11c-1.08,3.5-3.66,6-5.79,7.85-.65.55-1.3,1.08-2,1.6a13,13,0,0,1,3.68-.43,12.11,12.11,0,0,1,4.19,1,8.14,8.14,0,0,1,3,2,8.94,8.94,0,0,1,1.6,8.05,11.81,11.81,0,0,1-.54,1.71,3.33,3.33,0,0,1-.51.87,5.57,5.57,0,0,1-2,1.35,18.45,18.45,0,0,1-6.22,1.34"/><path class="cls-2" d="M89.81,181.53a5.89,5.89,0,0,1,3.24,1.59,5.67,5.67,0,0,1,1.66,3.93,9.4,9.4,0,0,1-.57,3.37c-.14.41.46.71.6.3a8.59,8.59,0,0,0,.23-5.87,6.23,6.23,0,0,0-2.91-3.28,6.3,6.3,0,0,0-2.12-.7c-.43-.06-.56.6-.13.66"/><path class="cls-2" d="M89.88,181.06c-.11,0-.13.14-.13.14s.06.13.09.14A6,6,0,0,1,93.18,183a5.89,5.89,0,0,1,1.73,4.08,9.4,9.4,0,0,1-.59,3.44.14.14,0,0,0,0,.16.17.17,0,0,0,.14.07s0,0,0-.06a8.32,8.32,0,0,0,.23-5.74,6.17,6.17,0,0,0-4.87-3.85h0m4.64,10.06a.57.57,0,0,1-.46-.21.53.53,0,0,1-.11-.55,9,9,0,0,0,.56-3.3,5.49,5.49,0,0,0-1.6-3.8,5.72,5.72,0,0,0-3.13-1.53.5.5,0,0,1-.43-.58.55.55,0,0,1,.62-.48,6.66,6.66,0,0,1,2.19.73,6.41,6.41,0,0,1,3,3.38,8.72,8.72,0,0,1-.22,6,.47.47,0,0,1-.35.32h-.06"/><path class="cls-2" d="M96,179.24a4.74,4.74,0,0,1,3.91,1,7.14,7.14,0,0,1,2,4.28,17.71,17.71,0,0,1,.14,3.85.35.35,0,0,0,.26.39.33.33,0,0,0,.4-.26c.23-3.48-.23-8.48-4.16-9.77a5.93,5.93,0,0,0-2.65-.19c-.42.06-.38.74,0,.68"/><path class="cls-2" d="M96.41,179a4.85,4.85,0,0,1,3.62,1.12,7.21,7.21,0,0,1,2.12,4.4,17.53,17.53,0,0,1,.14,3.89c0,.06,0,.17.1.19a.18.18,0,0,0,.13,0,.05.05,0,0,0,0,0c.21-3,0-8.27-4-9.57a5.69,5.69,0,0,0-2.56-.18.14.14,0,0,0-.12.18c0,.11.09.1.11.1l.45,0m6,10h-.14a.55.55,0,0,1-.42-.61,16.72,16.72,0,0,0-.14-3.8,6.8,6.8,0,0,0-2-4.16,4.63,4.63,0,0,0-3.75-1,.49.49,0,0,1-.57-.43.56.56,0,0,1,.47-.64,6.2,6.2,0,0,1,2.74.2c4.22,1.39,4.5,6.85,4.29,10a.49.49,0,0,1-.19.34.59.59,0,0,1-.31.12"/><path class="cls-1" d="M40.94,164.78c.6,1,2.48,3.36,1.92,4.58s-1.6,10.19-13.36,11.15C8.62,182.22.59,162,.54,159.29c-.05-2.14,5.7,5,19.43,6,8.72.65,14.74-.63,16.91-2Z"/><path class="cls-2" d="M.87,159.23v.05c0,1.55,2.76,8.82,8.85,14.32a25.29,25.29,0,0,0,19.75,6.57c10.14-.83,12.1-7.62,12.83-10.17a5.33,5.33,0,0,1,.26-.78c.37-.81-.77-2.51-1.44-3.53-.16-.24-.3-.45-.41-.63l-3.79-1.46c-2.43,1.45-8.55,2.61-17,2a38.59,38.59,0,0,1-17.31-5.47,10.11,10.11,0,0,0-1.77-.89m28.27,21.65A25.9,25.9,0,0,1,9.27,174.1c-6.19-5.59-9-12.95-9.07-14.81a.68.68,0,0,1,.29-.66c.45-.26,1.08.11,2.48.91a37.69,37.69,0,0,0,17,5.38c8.44.62,14.47-.55,16.7-2l.14-.09,4.33,1.66.06.1c.11.19.27.43.45.71.85,1.27,2,3,1.49,4.18a5.47,5.47,0,0,0-.22.68c-.7,2.43-2.82,9.8-13.43,10.67l-.38,0"/><path class="cls-4" d="M18.73,175.63c.71-.83-1.22-2.81-3.28-4.56s-4.25-3.3-4-3.25a21.58,21.58,0,0,0,5,1.76c3.43.51,7.1-.13,5.05-2.32a6,6,0,0,0-4.1-2.25c-10.92-1.07-16-6.85-16.63-6.16S4,170,9.71,173.58c3.79,2.34,7.58,3.7,9,2"/><path class="cls-4" d="M18.73,175.63a2.11,2.11,0,0,1-1,.61,3.79,3.79,0,0,1-1.16.12,9.32,9.32,0,0,1-2.27-.45A24.2,24.2,0,0,1,10.09,174a13.43,13.43,0,0,1-3.61-3,25.61,25.61,0,0,1-2.75-3.79,35.55,35.55,0,0,1-2.13-4.17c-.3-.72-.58-1.45-.81-2.2a9,9,0,0,1-.3-1.16,2.56,2.56,0,0,1-.07-.64,1,1,0,0,1,0-.22.48.48,0,0,1,.24-.3.55.55,0,0,1,.32,0l.2,0a3,3,0,0,1,.57.28l.51.3,1,.62c.66.41,1.31.81,2,1.18a30.25,30.25,0,0,0,4.17,1.92,32.09,32.09,0,0,0,4.4,1.28c.75.16,1.51.29,2.27.4l1.14.14a8.45,8.45,0,0,1,1.19.2,6.13,6.13,0,0,1,3,1.94l.19.23c0,.06.13.15.19.23a2.86,2.86,0,0,1,.35.53,1.4,1.4,0,0,1,.14.69,1,1,0,0,1-.32.65,2.5,2.5,0,0,1-1.13.58,9,9,0,0,1-2.36.23,15.33,15.33,0,0,1-2.34-.23,12.61,12.61,0,0,1-2.25-.66c-.73-.28-1.43-.62-2.13-1l-.26-.11-.13-.05h0c.13,0,.08-.22.08-.15l0,0,.44.37.91.72c1.21,1,2.41,1.94,3.55,3A18.14,18.14,0,0,1,18,173.57a5.59,5.59,0,0,1,.65,1,1.62,1.62,0,0,1,.18.55.7.7,0,0,1,0,.29.64.64,0,0,1-.13.26m0,0a.71.71,0,0,0,.13-.26.93.93,0,0,0,0-.29,1.52,1.52,0,0,0-.19-.54,5.23,5.23,0,0,0-.65-1,16.92,16.92,0,0,0-1.63-1.65c-1.15-1-2.37-2-3.61-2.91l-.94-.69c-.15-.12-.31-.23-.46-.36l-.07-.07s-.07-.16.08-.18h.09l.15.05.27.12c.71.31,1.41.63,2.14.89a12.22,12.22,0,0,0,2.21.59,14.49,14.49,0,0,0,2.28.17,8.33,8.33,0,0,0,2.24-.26,2.3,2.3,0,0,0,.92-.48.63.63,0,0,0,.06-.8,1.91,1.91,0,0,0-.29-.43l-.19-.21-.19-.21a6.46,6.46,0,0,0-.84-.73,5.6,5.6,0,0,0-2-.94l-.54-.11c-.18,0-.36,0-.56-.06L16,165.18c-.78-.11-1.55-.24-2.32-.4a29.7,29.7,0,0,1-4.5-1.32,31.49,31.49,0,0,1-4.25-2c-.68-.38-1.35-.79-2-1.21l-1-.62q-.24-.16-.48-.3a2.56,2.56,0,0,0-.46-.24l-.08,0H1c.05,0,.08-.09.07-.08a.56.56,0,0,0,0,.07,3.36,3.36,0,0,0,.05.51c.07.36.16.72.27,1.09.22.73.49,1.45.78,2.16a32.31,32.31,0,0,0,2,4.14,25.71,25.71,0,0,0,2.63,3.77,15.39,15.39,0,0,0,1.6,1.63c.29.26.59.49.9.72s.63.42,1,.63c.65.41,1.32.8,2,1.16a18.08,18.08,0,0,0,2.11.94,8.33,8.33,0,0,0,2.26.51,3.39,3.39,0,0,0,1.14-.12,2,2,0,0,0,1-.59"/><path class="cls-2" d="M.87,159.23v.05c0,1.55,2.76,8.82,8.85,14.32a25.29,25.29,0,0,0,19.75,6.57c10.14-.83,12.1-7.62,12.83-10.17a5.33,5.33,0,0,1,.26-.78c.37-.81-.77-2.51-1.44-3.53-.16-.24-.3-.45-.41-.63l-3.79-1.46c-2.43,1.45-8.55,2.61-17,2a38.59,38.59,0,0,1-17.31-5.47,10.11,10.11,0,0,0-1.77-.89m28.27,21.65A25.9,25.9,0,0,1,9.27,174.1c-6.19-5.59-9-12.95-9.07-14.81a.68.68,0,0,1,.29-.66c.45-.26,1.08.11,2.48.91a37.69,37.69,0,0,0,17,5.38c8.44.62,14.47-.55,16.7-2l.14-.09,4.33,1.66.06.1c.11.19.27.43.45.71.85,1.27,2,3,1.49,4.18a5.47,5.47,0,0,0-.22.68c-.7,2.43-2.82,9.8-13.43,10.67l-.38,0"/><path class="cls-2" d="M1.09,159.51c.26,1.94,3,8.72,8.76,14A25.09,25.09,0,0,0,29.07,180l.38,0c10-.82,11.94-7.52,12.66-10,.11-.36.18-.62.26-.8.33-.71-.81-2.42-1.42-3.34l-.38-.58-3.64-1.4c-2.31,1.33-8.1,2.62-17,2a39,39,0,0,1-17.4-5.49c-.5-.29-1.09-.63-1.45-.79m28,20.89a25.4,25.4,0,0,1-19.5-6.65C3.45,168.2.71,160.86.68,159.28V159l.22,0a9.16,9.16,0,0,1,1.82.92A38.48,38.48,0,0,0,20,165.39c6,.45,13.55,0,16.86-2l.08-.05,3.94,1.52,0,0c.11.19.25.4.4.63.95,1.42,1.84,2.88,1.46,3.72a5.84,5.84,0,0,0-.25.75c-.74,2.59-2.73,9.48-13,10.32l-.39,0M.78,158.75a.35.35,0,0,0-.18.05c-.06,0-.21.13-.2.49,0,1.83,2.86,9.12,9,14.67a25.8,25.8,0,0,0,20.11,6.69c10.47-.86,12.56-8.13,13.25-10.52a6,6,0,0,1,.23-.71c.48-1.06-.65-2.75-1.47-4-.18-.27-.35-.52-.46-.72l0,0-4.16-1.6-.06,0c-2.26,1.45-8.34,2.63-16.82,2a37.73,37.73,0,0,1-17.12-5.4,5.42,5.42,0,0,0-2.09-1m28.37,22.32a26.08,26.08,0,0,1-20-6.82C2.9,168.62,0,161.18,0,159.3a.88.88,0,0,1,.39-.84c.54-.32,1.21.06,2.68.9A37.32,37.32,0,0,0,20,164.72c8.4.62,14.38-.53,16.58-1.94l.23-.15,4.48,1.72.1.16c.11.19.27.44.45.7.87,1.31,2.07,3.12,1.5,4.37-.05.11-.12.37-.21.66-.7,2.45-2.86,9.92-13.6,10.8l-.39,0"/><path class="cls-2" d="M133.7,43.39l-.2.59.25-.16a.13.13,0,0,0,0-.15l-.09-.28M128,47.15l.21.19,5.05-3.2-.09-.25v0Zm-.34.21-.1.07a.12.12,0,0,0-.06.08.18.18,0,0,0,.06.14.3.3,0,0,0,.08.08Z"/><path class="cls-5" d="M96.72,91.16a21.58,21.58,0,0,1,5.55,3.59c1.45,1.31,3.11,3.42,3.35,5.28s-9,1.85-9,1.85Z"/><path class="cls-6" d="M96.93,101.54c2.93,0,7.49-.37,8.28-1.26a.23.23,0,0,0,.08-.2c-.23-1.79-1.89-3.85-3.24-5.08a21.37,21.37,0,0,0-5-3.32Zm3.09.56c-1.65.11-3.09.12-3.43.12h-.34l.14-11.56.46.19a21.69,21.69,0,0,1,5.65,3.65C104,95.87,105.71,98,106,100a.92.92,0,0,1-.24.73c-.75.85-3.42,1.22-5.7,1.38"/><path class="cls-1" d="M98.44,88.51S99,99.6,99,102.17a231.57,231.57,0,0,1-2.33,30.25C94.15,148.25,83.55,160.55,81.32,164c-6.07,9.33-13.83,25.66-31,19.83C33,177.89,31.41,163.4,30.86,155.47c-.4-5.77.88-18.67,5.12-27.41C41.13,117.43,68.84,77,68.84,77s8.69-6.34,14.56-3.43,6.85,3.09,9.93,5.89c2.49,2.25,5.11,9.06,5.11,9.06"/><path class="cls-2" d="M69,77.13c-.87,1.27-27.79,40.64-32.82,51-4.18,8.62-5.52,21.39-5.1,27.3.33,4.79,1,9.9,3.41,14.85,3.09,6.29,8.45,10.77,15.94,13.32,6.75,2.3,12.61,1.36,17.92-2.87,4.58-3.65,7.93-9.05,10.89-13.81.68-1.09,1.31-2.11,1.94-3.07.33-.52.85-1.23,1.51-2.12,3.78-5.18,11.67-15.94,13.76-29.36a231.9,231.9,0,0,0,2.34-30.22c0-2.47-.5-13-.53-13.62-.19-.48-2.7-6.83-5-9-2.51-2.27-3.58-2.79-7.14-4.52l-2.75-1.34c-5.54-2.74-13.79,3-14.33,3.4M58.47,185.19A20.81,20.81,0,0,1,50.29,184c-7.6-2.59-13-7.14-16.18-13.52-2.46-5-3.11-10.17-3.45-15-.42-6,.93-18.82,5.14-27.5,5.1-10.53,32.6-50.7,32.87-51.11l0,0,0,0c.36-.27,8.85-6.38,14.77-3.45l2.74,1.34c3.6,1.74,4.69,2.26,7.24,4.58s5,8.86,5.15,9.14v.06c0,.11.57,11.13.53,13.68a231,231,0,0,1-2.34,30.27C94.71,146,86.79,156.78,83,162c-.66.89-1.17,1.6-1.5,2.1-.62,1-1.26,2-1.93,3.06-4.68,7.54-10.76,17.33-21.09,18.05"/><path class="cls-2" d="M69.08,77.23c-1.11,1.62-27.8,40.66-32.8,51-4.17,8.6-5.5,21.33-5.08,27.23.33,4.78,1,9.87,3.39,14.8C37.66,176.49,43,181,50.46,183.49c6.7,2.28,12.51,1.35,17.78-2.84,4.56-3.64,7.91-9,10.87-13.79.67-1.08,1.31-2.11,1.93-3.07.34-.52.86-1.23,1.51-2.12,3.79-5.17,11.65-15.91,13.74-29.3a231.65,231.65,0,0,0,2.34-30.2c0-2.44-.49-12.74-.53-13.59-.24-.62-2.71-6.81-5-8.88-2.5-2.27-3.57-2.78-7.11-4.5-.78-.38-1.69-.81-2.75-1.34-5.41-2.68-13.48,2.88-14.17,3.37M58.5,185.33a20.84,20.84,0,0,1-8.26-1.2c-7.63-2.6-13.1-7.17-16.25-13.59-2.48-5-3.13-10.21-3.47-15-.42-6,.93-18.86,5.15-27.57C40.78,117.38,68.28,77.2,68.56,76.8l0,0,0,0c.36-.26,8.92-6.42,14.91-3.46,1.06.53,2,1,2.74,1.34,3.52,1.7,4.71,2.28,7.27,4.61s5.08,8.91,5.19,9.19l0,0v0c0,.46.57,11.14.53,13.69A233,233,0,0,1,97,132.47c-2.12,13.55-10,24.39-13.86,29.6-.65.88-1.17,1.59-1.49,2.09-.62,1-1.26,2-1.93,3.06-4.7,7.57-10.8,17.39-21.18,18.11"/><path class="cls-2" d="M69.22,77.37c-1.39,2-27.78,40.66-32.76,50.93-4.15,8.56-5.48,21.25-5.07,27.13.34,4.75,1,9.82,3.38,14.73,3,6.2,8.35,10.62,15.75,13.14,6.63,2.26,12.39,1.34,17.6-2.81,4.53-3.61,7.87-9,10.82-13.73.67-1.09,1.31-2.11,1.93-3.08.35-.52.87-1.23,1.52-2.13C86.17,156.4,94,145.68,96.1,132.34a232.41,232.41,0,0,0,2.33-30.17c0-2.39-.46-12.26-.52-13.55-.33-.81-2.72-6.76-4.94-8.78-2.47-2.24-3.53-2.75-7.06-4.46L83.16,74c-2.21-1.1-5.13-.93-8.69.5a28.05,28.05,0,0,0-5.25,2.83M58.46,184.86a20.58,20.58,0,0,1-8.07-1.18c-7.5-2.56-12.88-7.05-16-13.35-2.44-5-3.09-10.08-3.42-14.87-.42-5.92.92-18.7,5.1-27.34,5-10.34,31.68-49.35,32.82-51l0,0,0,0c.89-.63,8.89-6.09,14.37-3.38L86.08,75c3.57,1.73,4.65,2.25,7.16,4.53,2.31,2.1,4.77,8.26,5.05,9v.06c.06,1.14.56,11.18.52,13.6a229.79,229.79,0,0,1-2.33,30.23c-2.1,13.43-10,24.21-13.78,29.38-.65.9-1.17,1.6-1.5,2.12-.63,1-1.26,2-1.93,3.06-3,4.78-6.33,10.18-10.92,13.84a17.66,17.66,0,0,1-9.9,4.06m10.27-108v0c-.28.4-27.78,40.59-32.87,51.09-4.2,8.68-5.55,21.53-5.13,27.48.34,4.82,1,10,3.45,15,3.12,6.37,8.55,10.91,16.13,13.49a21,21,0,0,0,8.18,1.2c10.29-.72,16.24-10.32,21-18,.67-1.07,1.3-2.09,1.93-3.06.33-.5.84-1.21,1.49-2.09,3.81-5.21,11.73-16,13.83-29.52a230.72,230.72,0,0,0,2.34-30.26c0-2.58-.52-13.57-.52-13.68v0c-.11-.28-2.65-6.86-5.14-9.12s-3.72-2.88-7.22-4.57c-.75-.36-1.67-.8-2.75-1.34-5.88-2.91-14.35,3.18-14.71,3.44ZM58.51,185.53a21.31,21.31,0,0,1-8.33-1.21c-7.69-2.62-13.19-7.23-16.37-13.69-2.49-5.07-3.15-10.26-3.49-15.13-.42-6,.94-18.93,5.17-27.67,5.11-10.53,32.63-50.74,32.9-51.15l.06-.07.07-.06c.37-.26,9-6.49,15.12-3.47l2.74,1.33c3.54,1.72,4.73,2.29,7.31,4.64s5.14,9,5.25,9.27l0,.08v.08c0,.11.56,11.11.53,13.7a233.5,233.5,0,0,1-2.34,30.32C95,146.1,87.08,157,83.26,162.18c-.65.89-1.16,1.59-1.49,2.09-.62,1-1.25,2-1.92,3-2.37,3.82-5.06,8.15-8.49,11.66-4,4.08-8.19,6.23-12.85,6.55"/><path class="cls-4" d="M53.68,126.36c3.4-5.09,6.52-13.66,2.12-18.38s-15.95,12.93-15.95,12.93-7.86,13.54-3.65,17,12.42-4,17.48-11.54"/><path class="cls-4" d="M53.79,107.52h0c-2,.17-5,2.56-8.64,6.91a79.35,79.35,0,0,0-5,6.67,55.56,55.56,0,0,0-3.38,7.14c-1.27,3.37-2.36,7.74-.35,9.4a3.75,3.75,0,0,0,3,.73c4.42-.65,10.33-6.78,13.95-12.2l.28.19-.28-.19a26.53,26.53,0,0,0,3.93-9.2c.51-2.59.61-6.21-1.77-8.76a2.07,2.07,0,0,0-1.77-.69m-14.7,31.57a4.26,4.26,0,0,1-3.11-.93c-4.37-3.6,3.26-16.85,3.58-17.42s8.85-13.44,14.13-13.89a2.72,2.72,0,0,1,2.36.9c2,2.18,2.71,5.42,2,9.35a27.19,27.19,0,0,1-4,9.44c-3.82,5.73-9.76,11.81-14.41,12.5a3.8,3.8,0,0,1-.46.05"/><path class="cls-4" d="M59.36,126.43s-5.9,7.37-2.68,10.57,9.66,1.9,13.61-2.77,6-10.87,2.21-12.89c-4.12-2.17-9,.31-13.14,5.09"/><path class="cls-4" d="M59.62,126.65c-.17.22-5.64,7.2-2.7,10.12a6.21,6.21,0,0,0,4.77,1.65A12,12,0,0,0,70,134c3-3.49,4.55-7.4,4-10a3.29,3.29,0,0,0-1.75-2.41c-3.64-1.92-8.28-.09-12.72,5M62,139.08h-.27a6.89,6.89,0,0,1-5.27-1.85c-1.43-1.41-1.4-3.79.07-6.87a24.45,24.45,0,0,1,2.59-4.15h0c4.66-5.36,9.6-7.25,13.54-5.17a4,4,0,0,1,2.11,2.88c.53,2.76-1.12,6.89-4.21,10.53A12.77,12.77,0,0,1,62,139.08"/><path class="cls-7" d="M96.35,109.58a2.44,2.44,0,0,1-.47,0c-1.84-.06-3.37-1.55-3.89-3.8l1.1-.26c.41,1.77,1.49,2.89,2.83,2.94,3,.09,3.91-3.53,4-5.45.15-3-1.37-6.29-3-6.57a2.78,2.78,0,0,0-2.73,1.25l-1-.59a3.92,3.92,0,0,1,3.88-1.77c2.47.42,4.14,4.43,4,7.73-.15,3.06-1.68,6.3-4.7,6.51"/><path class="cls-1" d="M81.8,116.74c0-3.7,3.28-5.74,5.3-6.59a25.26,25.26,0,0,1,17.31.17c4.06,1.74,5.87,4.22,6,6.88.06,1.56-.26,5.1-6.27,7.27-4.54,1.65-11.32,1.22-15.15-.08-2.2-.74-7.19-2.74-7.17-7.65"/><path class="cls-8" d="M81.8,116.74h.45c0,3.25,2.3,5.68,6.87,7.22,3.83,1.3,10.43,1.69,14.85.09,4-1.46,6.1-3.82,6-6.83-.11-2.69-2.09-4.93-5.71-6.49-5.28-2.27-12.91-1.85-17-.16-1.5.63-5,2.49-5,6.17ZM99,125.92a28.06,28.06,0,0,1-10.16-1.1c-3.42-1.16-7.5-3.5-7.48-8.09,0-1.4.56-4.89,5.57-7a25.57,25.57,0,0,1,17.67.16c5,2.15,6.16,5.15,6.25,7.29.1,2.39-1,5.68-6.57,7.71a19.56,19.56,0,0,1-5.28,1"/><path class="cls-9" d="M86.23,120.84s-.07,0-.06-.11,1-5.64,1-5.64a.15.15,0,0,1,.11-.09l2.16-.16s.14,0,.11.08-.33,2.12-.33,2.12l1.27-.11.34-2.07s0-.09.11-.1l2.17-.17s.12,0,.11.08-.93,5.67-.93,5.67a.14.14,0,0,1-.13.09l-2.16.15s-.12,0-.09-.09.33-2,.33-2l-1.27.08s-.34,2-.36,2a.19.19,0,0,1-.14.12l-2.2.16"/><path class="cls-9" d="M92.87,120.36l2.21-.12a.15.15,0,0,0,.11-.12c0-.09.36-2.19.36-2.19l.68,0a.33.33,0,0,1,.26.21c.05.19.54,1.88.54,1.88s0,.08.07.07l2.32-.15s0,0,0-.13-.19-.13-.21-.21-.33-1.66-.33-1.66a.78.78,0,0,0-.3-.44,4.38,4.38,0,0,0-.84-.3s1.39-.23,1.43-1.5a1.25,1.25,0,0,0-1.35-1.38c-.69,0-4,.26-4,.26s-.09,0-.08.1-.93,5.65-.93,5.65Z"/><path class="cls-1" d="M95.7,117.05l.2-1.19.51,0a.39.39,0,0,1,.42.43.88.88,0,0,1-.42.74,3.36,3.36,0,0,1-.71.06"/><path class="cls-9" d="M99.19,114.22l1.19,5.54s.07.06.11.06l2.53-.17,3.28-5.94s0-.08-.09-.07l-2.41.18-1.65,3.34-.53-3.09s-.08-.11-.15-.09-2.14.18-2.2.18a.09.09,0,0,0-.08.06"/><path class="cls-10" d="M85.05,120.79s.26-1.1.27-1.23a.72.72,0,0,0-.06-.39,3.94,3.94,0,0,1-.82-2.36,4.57,4.57,0,0,1,.58-2.14,6.36,6.36,0,0,1,2.65-2.33,16.82,16.82,0,0,1,3.08-1,29.88,29.88,0,0,1,4.35-.56,29.1,29.1,0,0,1,5,.2,23.16,23.16,0,0,1,3.66.91,20.62,20.62,0,0,1,2.23,1c.17.11.33-.13.22-.21a16.19,16.19,0,0,0-2.2-1.21,19,19,0,0,0-3.71-1.13,24.67,24.67,0,0,0-5.23-.4,32.63,32.63,0,0,0-4.52.46A17.06,17.06,0,0,0,87,111.5a7.49,7.49,0,0,0-3.28,2.71,5.09,5.09,0,0,0-.63,3.59,6.52,6.52,0,0,0,1.82,3,.08.08,0,0,0,.14,0"/><path class="cls-11" d="M86.33,121.58c-.12,0-.21.1-.13.17a12.32,12.32,0,0,0,1.92,1,18.32,18.32,0,0,0,3.55,1.11,30.27,30.27,0,0,0,5.5.45,21,21,0,0,0,6.37-.93c1.33-.49,3.65-1.32,4.71-3.09a5.24,5.24,0,0,0,.84-3.59,5.48,5.48,0,0,0-1.51-2.91c-.11-.1-.17-.06-.22,0s-.4.74-.48.88a.54.54,0,0,0,0,.48c.06.14.34.53.45.82a3.61,3.61,0,0,1,.21,2.18,4.65,4.65,0,0,1-1.14,2.31,7.07,7.07,0,0,1-3.07,1.91,20.56,20.56,0,0,1-6.25,1.15,28.4,28.4,0,0,1-5.31-.22,23.26,23.26,0,0,1-3.55-.88c-.26-.1-1.9-.9-1.9-.9"/><path class="cls-7" d="M95.54,112a2.11,2.11,0,0,0,2.27-1.26,3.52,3.52,0,0,0-.26-2.73,2,2,0,0,0-2-1.06,2.35,2.35,0,0,0-1.76,1.21c-.2.39.41.68.61.3l.06-.1c0,.08,0,0,0-.06a1,1,0,0,1,.13-.16,1.54,1.54,0,0,1,.73-.47,1.35,1.35,0,0,1,1.53.59,2.89,2.89,0,0,1,.3,2.13,1.28,1.28,0,0,1-.36.6l-.24.16-.09,0-.15,0-.17,0c-.09,0,.05,0,0,0l-.09,0-.26,0h-.18c-.1,0,.09,0,0,0-.43,0-.57.61-.13.66"/><path class="cls-1" d="M41,155.12c.41-.47,7.82-7,16.11-8.52,16.05-3,20.53,4.34,22.6,8,4.81,8.42-3.47,24.16-8.19,28.24"/><path class="cls-2" d="M71.67,183l-.26-.3c2.11-1.83,5.39-6.49,7.61-12.42,1.39-3.73,3.32-10.71.53-15.58-1.86-3.26-6.21-10.88-22.39-7.86-8.06,1.51-15.41,7.8-16,8.47l-.3-.27c.58-.67,8.05-7.06,16.22-8.59,16.45-3.07,20.91,4.72,22.81,8,2.86,5,.91,12.13-.51,15.92-1.92,5.13-5.1,10.3-7.72,12.58"/><path class="cls-12" d="M41.27,155.35l.13-.13.1-.1.06-.05,0,0c.27-.24.55-.47.83-.7.89-.72,1.82-1.41,2.78-2.06A36.66,36.66,0,0,1,54,147.75a30.39,30.39,0,0,1,5.49-1.2,35.07,35.07,0,0,1,5-.32,20,20,0,0,1,7.37,1.39,14.08,14.08,0,0,1,4.52,3A16.87,16.87,0,0,1,79,153.89a13.3,13.3,0,0,1,1.12,2.19,12.35,12.35,0,0,1,.74,3.65A23.83,23.83,0,0,1,79.64,168a40.76,40.76,0,0,1-3.4,7.92,28.75,28.75,0,0,1-4,5.76c-.28.3-.58.6-.87.86s.05.84.38.55a22.38,22.38,0,0,0,4.08-5.1,42.23,42.23,0,0,0,3.78-7.73,29.33,29.33,0,0,0,1.9-8.56A13.41,13.41,0,0,0,80,154.27,20.59,20.59,0,0,0,77.73,151a14.61,14.61,0,0,0-4.15-3.35,18.09,18.09,0,0,0-6.79-2,33.46,33.46,0,0,0-10.27.69,31.66,31.66,0,0,0-9.8,4.11,38.07,38.07,0,0,0-5.57,4,4.38,4.38,0,0,0-.39.36.34.34,0,0,0,.51.45"/><path class="cls-2" d="M61.89,146.11c.91-.06,1.8-.09,2.66-.08a20.38,20.38,0,0,1,7.44,1.4,14.1,14.1,0,0,1,4.58,3,16.84,16.84,0,0,1,2.55,3.32A13,13,0,0,1,80.26,156a12.6,12.6,0,0,1,.75,3.71A23.86,23.86,0,0,1,79.83,168a40.83,40.83,0,0,1-3.42,8,28.85,28.85,0,0,1-4,5.8c-.31.33-.61.63-.88.87a.19.19,0,0,0,0,.25.08.08,0,0,0,.13,0,22,22,0,0,0,4-5.06,41.81,41.81,0,0,0,3.76-7.69,28.6,28.6,0,0,0,1.89-8.5,13.09,13.09,0,0,0-1.51-7.3,19.74,19.74,0,0,0-2.21-3.23,14.56,14.56,0,0,0-4.08-3.31,17.84,17.84,0,0,0-6.72-1.94,33.28,33.28,0,0,0-10.21.68,31.35,31.35,0,0,0-9.74,4.09,38,38,0,0,0-5.54,4l-.07.06-.3.28a.12.12,0,0,0,0,.19.14.14,0,0,0,.1,0,.12.12,0,0,0,.09,0h0l.13-.13.06-.05h0l.3-.26h0l.69-.58c.86-.7,1.8-1.39,2.79-2.07A36,36,0,0,1,54,147.57a29.67,29.67,0,0,1,5.52-1.22c.83-.1,1.62-.19,2.39-.24m9.68,37.24a.5.5,0,0,1-.4-.17.57.57,0,0,1,0-.81c.26-.23.55-.52.85-.84a28.55,28.55,0,0,0,4-5.73,40.33,40.33,0,0,0,3.38-7.88,23.25,23.25,0,0,0,1.16-8.17,12.11,12.11,0,0,0-.72-3.6A12.62,12.62,0,0,0,78.78,154a16.78,16.78,0,0,0-2.48-3.25,13.83,13.83,0,0,0-4.46-2.95,19.61,19.61,0,0,0-7.29-1.37,33.8,33.8,0,0,0-5,.32,28.81,28.81,0,0,0-5.45,1.19,35.94,35.94,0,0,0-8.79,4.5c-1,.67-1.92,1.36-2.77,2.05-.31.25-.57.48-.81.69l0,0,0,0,0,.05-.1.09-.12.12a.54.54,0,0,1-.81-.71,3.4,3.4,0,0,1,.34-.32l.07-.06a37.07,37.07,0,0,1,5.6-4.07,31.44,31.44,0,0,1,9.86-4.14,33.73,33.73,0,0,1,10.33-.69,18.1,18.1,0,0,1,6.87,2,14.83,14.83,0,0,1,4.2,3.39,21.15,21.15,0,0,1,2.25,3.29,13.59,13.59,0,0,1,1.56,7.52,29.42,29.42,0,0,1-1.92,8.62,41.33,41.33,0,0,1-3.8,7.76,22.21,22.21,0,0,1-4.11,5.15.51.51,0,0,1-.29.13"/><path class="cls-1" d="M64.54,181.1c1.09-.79,14.29-6.34,19.5,3.79a8.1,8.1,0,0,1-.54,8s-7.42,5.68-25.47,2.41c-1.3-.24-4.33-2.44-3.68-5.69S55.92,183,55.92,183"/><path class="cls-2" d="M71.74,196.41A56.64,56.64,0,0,1,58,195.5a5.54,5.54,0,0,1-3.08-2.28,4.69,4.69,0,0,1-.76-3.63c.65-3.22,1.56-6.66,1.57-6.69l.38.1s-.92,3.46-1.56,6.66a4.3,4.3,0,0,0,.7,3.34,5.17,5.17,0,0,0,2.82,2.11c5.11.93,12.63,1.69,19.39,0a17.72,17.72,0,0,0,5.9-2.39,8,8,0,0,0,.5-7.78,10.26,10.26,0,0,0-7-5.55c-5.32-1.27-11.41,1.22-12.25,1.83l-.23-.33c.89-.64,7-3.21,12.58-1.88a10.59,10.59,0,0,1,7.2,5.75,8.39,8.39,0,0,1-.55,8.22l0,0a17.08,17.08,0,0,1-6,2.46,34.92,34.92,0,0,1-5.84.89"/><path class="cls-2" d="M64.73,181.37l.16-.1.1-.05.07,0,.7-.32a21.68,21.68,0,0,1,2.14-.76,20.33,20.33,0,0,1,6.14-.89,11.45,11.45,0,0,1,6.56,2c2.41,1.79,4.25,4.82,3.9,7.89a8.34,8.34,0,0,1-1.09,3.26l-.09.16,0,.07c0,.07,0,0,0,0s0,0,0,0l.06-.05-.14.09a8.85,8.85,0,0,1-.84.5l-.15.08-.07,0,0,0-.37.18c-.3.15-.61.28-.92.4a26.29,26.29,0,0,1-5.7,1.55,43.57,43.57,0,0,1-9.34.42,60,60,0,0,1-6.12-.68,7.46,7.46,0,0,1-2.15-.48A5.34,5.34,0,0,1,56,193.68a4.83,4.83,0,0,1-1.15-1.79,4.36,4.36,0,0,1-.12-2.4c.38-1.86.82-3.7,1.29-5.53l.24-.94c.11-.43-.55-.56-.66-.14-.33,1.22-.62,2.44-.91,3.66-.24,1.06-.51,2.12-.69,3.19a4.75,4.75,0,0,0,.23,2.45A6,6,0,0,0,57,195.29a6.64,6.64,0,0,0,2,.54c1.11.18,2.22.34,3.34.46a49,49,0,0,0,10.69.15A31.05,31.05,0,0,0,80,195a16.93,16.93,0,0,0,3.33-1.51,3.71,3.71,0,0,0,.41-.28,2.08,2.08,0,0,0,.38-.55,9.52,9.52,0,0,0,.62-1.38A8.37,8.37,0,0,0,85,186.5a10.39,10.39,0,0,0-2.41-4.32A11,11,0,0,0,76,178.71a18.5,18.5,0,0,0-6.87.37,18.82,18.82,0,0,0-4.37,1.5,2.52,2.52,0,0,0-.42.24c-.35.25,0,.81.38.55"/><path class="cls-2" d="M55.91,182.83a.12.12,0,0,0-.13.1c-.29,1.09-.59,2.28-.9,3.66-.05.19-.1.39-.14.59-.2.84-.41,1.72-.55,2.58a4.46,4.46,0,0,0,.22,2.35,5.78,5.78,0,0,0,2.71,3,5.55,5.55,0,0,0,1.76.49l.2,0c1.13.19,2.25.34,3.33.47a49,49,0,0,0,10.65.14,30.37,30.37,0,0,0,6.82-1.45,17.26,17.26,0,0,0,3.29-1.5l.08,0a1.86,1.86,0,0,0,.31-.21,1.36,1.36,0,0,0,.28-.4l0-.1a7.74,7.74,0,0,0,.61-1.34,8.09,8.09,0,0,0,.3-4.65,10.24,10.24,0,0,0-2.35-4.23,10.74,10.74,0,0,0-6.47-3.4,18.1,18.1,0,0,0-6.79.36,19.15,19.15,0,0,0-4.33,1.48l0,0a2.22,2.22,0,0,0-.37.21.14.14,0,0,0,0,.2.12.12,0,0,0,.18,0l.17-.11.1,0L65,181h0l.7-.32c.67-.28,1.38-.53,2.16-.77a20.32,20.32,0,0,1,6.21-.89,11.5,11.5,0,0,1,6.67,2.08,9.24,9.24,0,0,1,4,8.07,8.59,8.59,0,0,1-1.12,3.34l-.07.12a.26.26,0,0,1-.11.19l-.09.05,0,0a9.64,9.64,0,0,1-.85.5l-.16.09,0,0-.07,0h0l-.38.18c-.29.14-.6.28-.92.41a26.63,26.63,0,0,1-5.75,1.56,43.14,43.14,0,0,1-9.38.41,61.12,61.12,0,0,1-6.14-.67l-.44-.06a5.91,5.91,0,0,1-1.76-.44,5.62,5.62,0,0,1-1.53-1.11,5.12,5.12,0,0,1-1.2-1.86,4.58,4.58,0,0,1-.12-2.51c.34-1.68.76-3.49,1.28-5.54.08-.32.16-.63.25-.94a.11.11,0,0,0-.09-.14.11.11,0,0,0-.06,0m15.77,13.93a51.06,51.06,0,0,1-9.31-.27c-1.09-.12-2.22-.28-3.35-.47l-.2,0a6.07,6.07,0,0,1-1.88-.52,6.18,6.18,0,0,1-2.9-3.22,5,5,0,0,1-.25-2.56c.15-.87.36-1.75.56-2.61,0-.19.09-.39.14-.58.32-1.38.62-2.58.9-3.67a.55.55,0,0,1,.69-.38.49.49,0,0,1,.36.62l-.24.94c-.52,2-.94,3.84-1.28,5.52a4.12,4.12,0,0,0,.1,2.3,5.29,5.29,0,0,0,2.53,2.74,5.55,5.55,0,0,0,1.64.4l.45.07a60.7,60.7,0,0,0,6.1.67,42.37,42.37,0,0,0,9.3-.42,25.8,25.8,0,0,0,5.66-1.53c.31-.13.62-.26.9-.4l.27-.12.22-.12.15-.08a9,9,0,0,0,.82-.48l0,0h0l0,0,.09-.16a8.2,8.2,0,0,0,1.06-3.18,8.82,8.82,0,0,0-3.82-7.71,11.18,11.18,0,0,0-6.44-2,19.92,19.92,0,0,0-6.09.89,18.08,18.08,0,0,0-2.12.75c-.24.1-.45.2-.65.3h0l-.08,0-.09,0a.42.42,0,0,0-.14.09h0a.52.52,0,0,1-.73-.13.54.54,0,0,1,.12-.76,3.5,3.5,0,0,1,.42-.24h0a19,19,0,0,1,4.42-1.51,18.71,18.71,0,0,1,6.94-.38,11.31,11.31,0,0,1,6.7,3.53,10.62,10.62,0,0,1,2.45,4.41,8.59,8.59,0,0,1-.31,4.87,9,9,0,0,1-.64,1.41l0,.09a1.85,1.85,0,0,1-.37.51,2.9,2.9,0,0,1-.36.25l-.08,0A16.91,16.91,0,0,1,80,195.16a30.5,30.5,0,0,1-6.91,1.47l-1.42.13"/><path class="cls-2" d="M70.92,196.26l-.64-.22c.82-2.45.73-4.47-.26-6-1.62-2.51-5.16-2.91-5.2-2.92l.07-.67c.16,0,3.9.43,5.7,3.22,1.1,1.71,1.22,3.93.33,6.59"/><path class="cls-2" d="M70.53,195.92l.26.09c.8-2.52.68-4.61-.37-6.23-1.54-2.39-4.55-3-5.35-3.11l0,.28c.78.13,3.7.73,5.15,3,1,1.55,1.11,3.56.34,6m.51.59-1-.34.06-.19c.8-2.39.72-4.35-.24-5.84-1.56-2.42-5-2.82-5-2.82l-.19,0,.11-1.07.19,0c.17,0,4,.45,5.84,3.31,1.14,1.77,1.26,4,.36,6.76Z"/><path class="cls-2" d="M78.65,195.09l-.64-.21c1.54-4.72-.14-7.88-1.28-9.34-1.33-1.71-3-2.56-3.92-2.5l0-.67c1.47-.1,3.37,1.31,4.5,2.75s3,4.95,1.39,10"/><path class="cls-2" d="M78.26,194.75l.27.09a10.13,10.13,0,0,0-1.43-9.6c-1-1.33-2.76-2.64-4.13-2.67l0,.28a6.22,6.22,0,0,1,3.89,2.56,9.88,9.88,0,0,1,1.38,9.34m.52.59-1-.33.06-.19c1.52-4.64-.13-7.73-1.25-9.16-1.24-1.59-2.88-2.48-3.75-2.42l-.2,0-.07-1.07.2,0c1.53-.1,3.51,1.34,4.67,2.83s3.09,5.05,1.42,10.15Z"/><path class="cls-2" d="M88.22,87.83a13.81,13.81,0,0,1-4.46-1.32c-1.44-.86-2.6-1.83-3.43-5.63-.6-2.72-.27-8.46-.25-8.71l.67,0c0,.06-.34,5.9.24,8.52.84,3.83,2.05,4.56,3.12,5.2a13.38,13.38,0,0,0,4.17,1.23Z"/><path class="cls-13" d="M96.56,33.37a17.38,17.38,0,0,0,6.54-5.25c3-4.12,1.16-7.73,3-13.73.52-1.7-1.38-8.65-4.38-10.26S92.64,2,89.94,3.12s-5.19,4.45-8.67,9.06c-3.29,4.35-7.21,9.65-7.58,10.53s16.11-.32,22.87,10.66"/><path class="cls-2" d="M74.13,22.6c.35.08,1,.15,1.72.23,4.65.53,15.49,1.76,20.84,10.11a17.15,17.15,0,0,0,6.13-5c1.66-2.3,1.78-4.47,1.92-7a26.35,26.35,0,0,1,1-6.64c.47-1.55-1.39-8.35-4.22-9.86s-8.87-2.11-11.47-1S85,7.81,81.58,12.33l0,.05c-4.06,5.38-6.76,9.11-7.41,10.22M96.42,33.8l-.15-.25c-5.11-8.3-15.89-9.53-20.5-10-1.77-.2-2.19-.26-2.36-.55a.4.4,0,0,1,0-.37c.42-1,5-7.07,7.62-10.6l0-.06C84.52,7.32,87,4,89.8,2.81s9-.65,12.06,1,5.08,8.89,4.54,10.66a25.64,25.64,0,0,0-1,6.48c-.15,2.63-.28,4.9-2,7.35a17.5,17.5,0,0,1-6.68,5.36Z"/><path class="cls-4" d="M71.06,23.32S77.43,11.25,84.34,5.76C91.53.06,99.6-1,106.3,1.92c5.7,2.47,6.53,4.88,7,6.12s1.39,7.29-1.27,8.08c-4.43,1.3-8.26-3.83-8.26-3.83a40.58,40.58,0,0,1-4.5-5.88C97.62,3.53,93.59,3,91.66,3.56c-1.75.51-4.42,1.3-6.88,6.4-.67,1.38-1.91,11-2.9,10.91-3.55-.31-10.82,2.45-10.82,2.45"/><path class="cls-4" d="M97.37.73A23.33,23.33,0,0,0,84.55,6C78.79,10.6,73.33,19.94,71.79,22.7c2-.72,7.14-2.4,10-2.17.47-.48,1.19-4.17,1.63-6.4a29.73,29.73,0,0,1,1-4.32C87,4.55,89.86,3.73,91.56,3.24c2.2-.63,6.33.07,8.06,3a40.66,40.66,0,0,0,4.45,5.82l0,0a13,13,0,0,0,2.42,2.34c1.91,1.41,3.75,1.87,5.48,1.36a1.77,1.77,0,0,0,1.09-1c.93-1.93.32-5.69,0-6.59l0-.12c-.49-1.22-1.42-3.48-6.81-5.82a18.72,18.72,0,0,0-8.8-1.5M70.34,24l.42-.79C70.82,23,77.25,11,84.13,5.5c7-5.57,15.16-7,22.31-3.89,5.64,2.45,6.63,4.88,7.17,6.18l0,.13c.37.9,1.11,4.88,0,7.13a2.44,2.44,0,0,1-1.51,1.39A6.89,6.89,0,0,1,106.09,15a13.77,13.77,0,0,1-2.53-2.46A42.32,42.32,0,0,1,99,6.58c-1.69-2.86-5.64-3.17-7.28-2.69s-4.26,1.23-6.67,6.22a32.74,32.74,0,0,0-1,4.15c-1.18,6.06-1.59,7-2.28,7-3.43-.31-10.6,2.4-10.67,2.43Z"/><path class="cls-13" d="M65.24,39.3a23.18,23.18,0,0,1,1.49-9.2c1.31-3.47,2-9.19,1.23-12.62-1.24-5.69-8.23-8.86-1.69-14.11,2-1.58-4.37.41-7,1.34S50,8.78,46.87,13.93s-4.54,8.45-4.37,14,.91,14.6,6.74,21.36S64.3,58.1,64.3,58.1Z"/><path class="cls-2" d="M66,3.13A43.41,43.41,0,0,0,59.4,5c-3.16,1.13-9.3,4.31-12.24,9.08-3.13,5.07-4.5,8.27-4.32,13.82.18,6,1.08,14.68,6.65,21.15,5,5.82,12.69,8.12,14.5,8.59L64.9,39.3A23.5,23.5,0,0,1,66.41,30a26,26,0,0,0,1.22-12.43,15.18,15.18,0,0,0-2.38-4.88c-2-3-3.79-5.85.78-9.54M64.62,58.51l-.39-.08c-.09,0-9.42-2.13-15.25-8.91S42.35,34,42.16,28c-.18-5.68,1.29-9.11,4.42-14.2,3-4.92,9.35-8.2,12.59-9.35,1-.38,2.84-1,4.42-1.41,2.8-.77,3.17-.59,3.34-.28s-.25.77-.45.93c-4.13,3.31-2.6,5.67-.66,8.66a15.87,15.87,0,0,1,2.47,5.11c.72,3.31.17,9.06-1.24,12.81a23.11,23.11,0,0,0-1.48,9.06v0Z"/><path class="cls-1" d="M87.46,90.78s8.63.89,14.35.06c5.53-.8,12.68-2.38,18.07-4.9s10.7-6.1,12.9-8.39,4.54-5.46,5.38-8.73A18.2,18.2,0,0,0,138,57.91c-1.38-4.4-2.66-7.52-5.38-9.69s-7.49-2.9-11.59-3.47-10.15-1.21-13.88-2.45-6-3.22-7.23-5.49-3-6-4.45-8.47-3.35-5.11-5.8-6.44A15.47,15.47,0,0,0,82,19.66a20.41,20.41,0,0,0-7.7,1.61c-6.34,2.69-9.87,8.82-9.87,8.82s4.17-7.78,4.11-8.63-3,1.74-4,3.7C63,28.16,62,33,61.3,35s2.49-10.24,1.77-11.47-3.59,3.89-4.23,6.93a33.7,33.7,0,0,0-.19,12.64c.94,4.22,3.09,13.49,4,16.85S66.32,73.2,68,78.44"/><path class="cls-2" d="M99.59,91.27A82.41,82.41,0,0,1,87.44,91l0-.39c.09,0,8.67.88,14.3.07,3.29-.48,11.63-1.91,18-4.89,5-2.33,10.52-5.93,12.84-8.35,1.59-1.66,4.39-5,5.33-8.64a18,18,0,0,0-.12-10.8c-1.45-4.63-2.72-7.53-5.32-9.59-2.79-2.23-8-3-11.49-3.43l-2.16-.29a72.13,72.13,0,0,1-11.75-2.17c-3.5-1.17-6-3-7.34-5.59-.48-.87-1-1.95-1.61-3.1-.91-1.8-1.94-3.84-2.84-5.36-1.22-2.06-3.13-5-5.72-6.37A15.48,15.48,0,0,0,82,19.86a20.3,20.3,0,0,0-7.62,1.59c-6.2,2.63-9.74,8.68-9.78,8.74L64.21,30c1.58-3,4.07-7.86,4.08-8.51-.47,0-2.76,2-3.65,3.76a39.86,39.86,0,0,0-2.32,7c-.31,1.17-.59,2.18-.83,2.87-.08.2-.15.39-.35.33s-.22-.06.31-2.47c.61-2.78,1.88-8.56,1.45-9.3-.06-.1-.11-.1-.16-.09-1,.16-3.2,4.58-3.71,7a33.62,33.62,0,0,0-.18,12.56c.88,4,3,13.37,4,16.84.85,3.28,3.65,13,5.35,18.46l-.37.12C66.08,73.08,63.28,63.3,62.42,60c-.9-3.47-3.08-12.88-4-16.85a33.85,33.85,0,0,1,.19-12.73c.56-2.64,2.86-7.08,4-7.27a.52.52,0,0,1,.56.28c.37.63-.12,3.52-.82,6.88a30.58,30.58,0,0,1,1.87-5.26c.86-1.71,3.36-4.12,4.11-4a.34.34,0,0,1,.28.34c0,.58-1.52,3.75-2.76,6.16a22.1,22.1,0,0,1,8.26-6.52A20.68,20.68,0,0,1,82,19.46a15.9,15.9,0,0,1,7.86,2.26c2.67,1.45,4.63,4.42,5.87,6.52.91,1.53,1.94,3.58,2.86,5.38.58,1.15,1.12,2.23,1.59,3.1,1.33,2.45,3.73,4.26,7.13,5.39a71.73,71.73,0,0,0,11.68,2.16l2.15.29c4.64.64,9,1.39,11.69,3.51s4,5.08,5.45,9.78a18.44,18.44,0,0,1,.13,11c-1,3.73-3.82,7.12-5.44,8.81-2.39,2.5-7.84,6-13,8.44-6.43,3-14.81,4.44-18.12,4.92-.71.1-1.47.18-2.25.23"/><path class="cls-2" d="M87.4,91.11a72.2,72.2,0,0,0,11.76.33,58.29,58.29,0,0,0,8.41-1.28,68.08,68.08,0,0,0,9.19-2.57,51.83,51.83,0,0,0,8.76-4.28,40.39,40.39,0,0,0,6.92-5,23.74,23.74,0,0,0,2.71-3,20.91,20.91,0,0,0,2.5-4.06A20.63,20.63,0,0,0,139.27,63,26.12,26.12,0,0,0,137,53.9a14,14,0,0,0-4.28-6.06c-2.26-1.7-5.21-2.36-7.94-2.86s-5.72-.82-8.58-1.22a56.31,56.31,0,0,1-8.45-1.64,13,13,0,0,1-6.82-4.42,23.61,23.61,0,0,1-1.8-3.23c-.69-1.35-1.37-2.71-2.07-4A27,27,0,0,0,92,23.15a13.49,13.49,0,0,0-3.64-2.32,15.71,15.71,0,0,0-4.1-1.32,18.43,18.43,0,0,0-9.51,1.2A22.22,22.22,0,0,0,64.55,29.2c-.16.25-.33.49-.47.74l.6.3c1.11-2.07,2.2-4.16,3.2-6.3.26-.54.51-1.08.72-1.64.11-.3.32-.72.18-1-.51-1.26-3,1.55-3.33,1.91a14.87,14.87,0,0,0-2.71,5.58c-.6,1.95-1,3.94-1.66,5.88a3,3,0,0,0-.16.42c0-.13.68.1.61.13s0,.09,0,0c.06-.32.12-.64.19-1,.26-1.22.53-2.43.79-3.65.29-1.39.57-2.79.79-4.2.08-.57.15-1.14.19-1.71a2.86,2.86,0,0,0-.07-1.09.7.7,0,0,0-.93-.48,3.1,3.1,0,0,0-1.27,1.24,18.43,18.43,0,0,0-2.45,5.07,26.22,26.22,0,0,0-.92,6.17,28.21,28.21,0,0,0,.46,7.62C59.15,47,60.05,50.8,61,54.6c.73,3.09,1.5,6.16,2.36,9.21Q65,69.93,66.87,76c.26.84.52,1.69.79,2.53.13.41.76.19.63-.22-1.21-3.85-2.33-7.72-3.44-11.59-.86-3-1.72-6-2.46-9-.94-3.85-1.83-7.7-2.71-11.55a43.66,43.66,0,0,1-1.09-5.65,34,34,0,0,1,.16-7.34,19.05,19.05,0,0,1,1.39-5.47,19.51,19.51,0,0,1,1.3-2.48,4.24,4.24,0,0,1,1.2-1.46l.14-.05s0,0,0,0,0-.05,0,0l0,.07a.37.37,0,0,1,0,.14,5.92,5.92,0,0,1,0,1.19c-.13,1.28-.38,2.56-.63,3.83s-.56,2.68-.85,4a14.67,14.67,0,0,0-.45,2.17c0,.42.45.62.67.22a8.18,8.18,0,0,0,.52-1.61c.58-2.06,1.07-4.15,1.78-6.17a13.67,13.67,0,0,1,1.23-2.76,11.28,11.28,0,0,1,1.88-2.2,7,7,0,0,1,.9-.73l.33-.2c.17-.07.14,0,0-.1s-.08-.08-.06-.07,0-.05,0,0a1.29,1.29,0,0,0-.05.21c0,.17-.12.34-.19.53a77.55,77.55,0,0,1-3.53,7.14l-.3.57c-.21.39.39.68.6.3a18.71,18.71,0,0,1,1.77-2.46,23,23,0,0,1,5.17-4.72,19.27,19.27,0,0,1,8.26-2.94,14.63,14.63,0,0,1,4.85.17,16.25,16.25,0,0,1,4,1.5,12.16,12.16,0,0,1,3.49,2.59A23.57,23.57,0,0,1,94.92,28c1.49,2.44,2.71,5,4,7.59a15.71,15.71,0,0,0,1.82,3A11.49,11.49,0,0,0,103.55,41a22.19,22.19,0,0,0,7.84,2.68c2.81.54,5.65.88,8.48,1.26a53.51,53.51,0,0,1,8.52,1.59,12.72,12.72,0,0,1,3.67,1.68,10.52,10.52,0,0,1,2.51,2.56,26,26,0,0,1,3.27,7.63,17.93,17.93,0,0,1,.36,8.76,16.67,16.67,0,0,1-1.3,4.09,21.5,21.5,0,0,1-2.54,4,23,23,0,0,1-2.63,2.87,31.29,31.29,0,0,1-3,2.35,57.73,57.73,0,0,1-8.42,4.93,63.2,63.2,0,0,1-17.57,5,59.85,59.85,0,0,1-14.22.16c-.32,0-.65,0-1-.09s-.57.62-.13.67"/><path class="cls-2" d="M68.23,21.31l-.06.15h0l.09-.06,0,0a.19.19,0,0,0-.1-.1m-3.87,8.55.24.12c.33-.61.67-1.26,1-1.93-.31.41-.62.83-.91,1.26-.12.2-.24.37-.35.55M63.29,27.7c-.17.94-.36,1.85-.53,2.68.27-1,.55-1.94.89-2.89a13.91,13.91,0,0,1,1.24-2.8,11.48,11.48,0,0,1,1.91-2.23,7.13,7.13,0,0,1,.94-.76l.17-.11,0-.08s0,0,0-.06,0,0,0,0a.09.09,0,0,1,0-.06l0-.09.06,0a.25.25,0,0,1,.11,0l.18.06,0,.1h0l.12.07,0,.28-.14,0-.07,0c-.05.14-.11.29-.17.44-.69,1.7-1.53,3.37-2.38,5,.25-.31.5-.61.76-.9.42-.83.83-1.67,1.23-2.53.27-.58.52-1.1.72-1.63l0-.12a1.19,1.19,0,0,0,.14-.78c-.06-.15-.14-.18-.21-.19-.53-.09-1.8,1-2.79,2.17a12.53,12.53,0,0,0-2.31,4.39m-2.08,7.14.18,0c0-.24.09-.48.14-.72.1-.44.19-.87.29-1.3-.17.61-.35,1.23-.55,1.83l-.06.15m-.14.23a.13.13,0,0,0,0,.06v0a.14.14,0,0,0,.06-.1Zm0,.14a.15.15,0,0,0,.11.14.14.14,0,0,0,.15-.06,1.29,1.29,0,0,0-.26-.08m1.65-12-.16,0a3,3,0,0,0-1.16,1.15,18.65,18.65,0,0,0-2.43,5,25.77,25.77,0,0,0-.91,6.12,27.8,27.8,0,0,0,.46,7.57c.83,3.84,1.75,7.7,2.63,11.43C62,58,62.74,61,63.51,63.76c1.22,4.37,2.39,8.36,3.56,12.2.28,1,.54,1.78.78,2.53a.1.1,0,0,0,.15.07.13.13,0,0,0,.1-.17C67,74.74,65.9,71.11,64.66,66.8c-.92-3.2-1.73-6.09-2.46-9.06-1-4-1.93-8.11-2.71-11.55-.07-.28-.13-.56-.2-.85a36.57,36.57,0,0,1-.89-4.82,34.18,34.18,0,0,1,.15-7.39,18.37,18.37,0,0,1,2.72-8l.08-.13a4,4,0,0,1,1.19-1.4l.07,0,0,0,.15-.1,0,0,0,0,.05.11.06,0v.1s0,0,0,0,0,0,0,0a.75.75,0,0,1,0,.11v0a6.5,6.5,0,0,1,0,1.23A38.47,38.47,0,0,1,62.35,29c-.09.47-.19.93-.28,1.41.15-.57.31-1.14.48-1.7.11-.36.23-.73.35-1.09s.15-.85.21-1.28.15-1.07.19-1.69v0a2.64,2.64,0,0,0-.06-1,.54.54,0,0,0-.28-.34.47.47,0,0,0-.24,0M87.48,90.64c-.11,0-.14.12-.15.16s.06.11.09.11a71.52,71.52,0,0,0,11.73.33A55.66,55.66,0,0,0,107.53,90a66.42,66.42,0,0,0,9.16-2.55,50.9,50.9,0,0,0,8.73-4.27,40.28,40.28,0,0,0,6.89-4.94,23.86,23.86,0,0,0,2.68-3,21.5,21.5,0,0,0,2.48-4,18.12,18.12,0,0,0,1.24-4.08,18.93,18.93,0,0,0,.36-4.09,26,26,0,0,0-2.26-9,13.68,13.68,0,0,0-4.22-6c-2.26-1.7-5.24-2.35-7.86-2.82-2-.36-4-.62-6-.88L116.16,44a57.68,57.68,0,0,1-8.47-1.65,13.11,13.11,0,0,1-6.93-4.49,19.1,19.1,0,0,1-1.52-2.67c-.1-.2-.2-.39-.29-.59l-.52-1c-.51-1-1-2-1.56-3a26.91,26.91,0,0,0-5-7.21A13.47,13.47,0,0,0,88.26,21a15.42,15.42,0,0,0-4-1.31,18.55,18.55,0,0,0-9.41,1.19,21,21,0,0,0-8,5.72l-.57,1.13.07-.09a23.2,23.2,0,0,1,5.21-4.76,19.64,19.64,0,0,1,8.35-3,15.3,15.3,0,0,1,4.91.17,16.55,16.55,0,0,1,4.09,1.52,12.38,12.38,0,0,1,3.54,2.63,23.2,23.2,0,0,1,2.69,3.66c1.13,1.85,2.12,3.82,3.08,5.72.31.63.63,1.25,1,1.88l.06.12a15.29,15.29,0,0,0,1.73,2.84,11.56,11.56,0,0,0,2.75,2.36,22.1,22.1,0,0,0,7.76,2.66c2.43.46,4.92.79,7.33,1.1l1.46.2a50.88,50.88,0,0,1,8.24,1.55A13.06,13.06,0,0,1,132.17,48a10.56,10.56,0,0,1,2.56,2.6,26.42,26.42,0,0,1,3.3,7.69,18.31,18.31,0,0,1,.37,8.86,17.24,17.24,0,0,1-1.32,4.14,21.25,21.25,0,0,1-2.57,4,23.38,23.38,0,0,1-2.64,2.88,32.24,32.24,0,0,1-3,2.38,59.59,59.59,0,0,1-8.46,4.94,62,62,0,0,1-17.62,5,60.7,60.7,0,0,1-14.26.17l-1-.09h0m12,1-.33,0a73.48,73.48,0,0,1-11.8-.33.48.48,0,0,1-.44-.55.55.55,0,0,1,.61-.51l1,.09a61,61,0,0,0,14.17-.17,61.71,61.71,0,0,0,17.51-5,58.83,58.83,0,0,0,8.4-4.92,30.24,30.24,0,0,0,3-2.34,22,22,0,0,0,2.6-2.84,21,21,0,0,0,2.52-3.95,16.85,16.85,0,0,0,1.29-4,17.87,17.87,0,0,0-.36-8.66,26.1,26.1,0,0,0-3.24-7.58,10.35,10.35,0,0,0-2.47-2.51,12.56,12.56,0,0,0-3.61-1.65,50.91,50.91,0,0,0-8.17-1.54L118.7,45c-2.41-.32-4.91-.65-7.35-1.11a22.49,22.49,0,0,1-7.9-2.71,11.93,11.93,0,0,1-2.84-2.45,14.85,14.85,0,0,1-1.78-2.91l-.07-.12-1-1.88c-1-1.9-1.94-3.86-3.06-5.69a22.44,22.44,0,0,0-2.64-3.6A12.14,12.14,0,0,0,88.68,22a16.69,16.69,0,0,0-4-1.48,14.52,14.52,0,0,0-4.78-.16,19,19,0,0,0-8.18,2.91,22.6,22.6,0,0,0-5.12,4.67,17.57,17.57,0,0,0-1.75,2.44l-.09.16h0a.55.55,0,0,1-.62.05.49.49,0,0,1-.27-.49l0,0,.1-.18.3-.57.5-.94a65.39,65.39,0,0,0,3-6.12c-.2.15-.4.32-.63.53a11.29,11.29,0,0,0-1.84,2.15A13.85,13.85,0,0,0,64,27.63c-.5,1.43-.9,2.92-1.29,4.36-.16.6-.32,1.2-.49,1.79,0,.13-.07.26-.1.39a5.35,5.35,0,0,1-.43,1.26.55.55,0,0,1-.64.31.61.61,0,0,1-.4-.63A8.61,8.61,0,0,1,61,33.53c.06-.21.11-.42.15-.62.32-1.42.6-2.71.85-4s.5-2.57.63-3.81a6.9,6.9,0,0,0,0-1.09,4.45,4.45,0,0,0-1,1.19l-.08.13a18.46,18.46,0,0,0-2.66,7.86,34.65,34.65,0,0,0-.15,7.3,36.13,36.13,0,0,0,.89,4.77c.06.29.13.57.19.85.79,3.44,1.72,7.51,2.71,11.55.73,3,1.55,5.84,2.46,9,1.24,4.31,2.3,7.93,3.44,11.58a.52.52,0,0,1-.36.67.5.5,0,0,1-.65-.33c-.24-.76-.5-1.58-.78-2.53-1.17-3.85-2.34-7.84-3.56-12.21-.77-2.75-1.55-5.76-2.37-9.22-.88-3.73-1.8-7.59-2.63-11.43a28.23,28.23,0,0,1-.47-7.68,25.72,25.72,0,0,1,.94-6.22,18.71,18.71,0,0,1,2.46-5.12,3.32,3.32,0,0,1,1.37-1.31.89.89,0,0,1,.7,0,1,1,0,0,1,.49.57,3.12,3.12,0,0,1,.08,1.13v0c0,.41-.07.81-.12,1.17a10.84,10.84,0,0,1,1.72-2.77c.5-.58,2.21-2.46,3.16-2.3a.66.66,0,0,1,.51.43,1.51,1.51,0,0,1-.14,1.07l0,.12c-.21.54-.45,1.07-.73,1.66l-.64,1.35a20.85,20.85,0,0,1,7.25-4.86,18.92,18.92,0,0,1,9.61-1.21,15.74,15.74,0,0,1,4.15,1.34A13.81,13.81,0,0,1,92.13,23a27.06,27.06,0,0,1,5.09,7.32c.53,1,1.06,2,1.56,3l.52,1,.29.59a19.14,19.14,0,0,0,1.49,2.61,12.68,12.68,0,0,0,6.72,4.35,55.08,55.08,0,0,0,8.41,1.63l2.62.35c2,.26,4,.52,6,.88,2.66.48,5.69,1.14,8,2.89a14.1,14.1,0,0,1,4.35,6.15A26.54,26.54,0,0,1,139.47,63a19.23,19.23,0,0,1-.38,4.18,17.84,17.84,0,0,1-1.26,4.16,21.44,21.44,0,0,1-2.52,4.1,24,24,0,0,1-2.73,3.07,41.28,41.28,0,0,1-7,5,52,52,0,0,1-8.8,4.3,67.28,67.28,0,0,1-9.22,2.57,58.49,58.49,0,0,1-8.1,1.27"/><path class="cls-14" d="M98.67,64.94c-1.36-2.59-.91-7.81,2.52-12,5.43-6.58,12.77-9.15,18.24-10.22,10.76-2.12,18.32,1.58,21.29,7s1.88,12.7-5,17.7c-7.42,5.38-15.21,6.17-22.76,5.82-7.21-.34-12-4-14.27-8.31"/><path class="cls-7" d="M99,64.78c2.56,4.87,7.66,7.84,14,8.13s14.72-.08,22.55-5.76c5.13-3.72,8.64-10.5,4.92-17.26a14,14,0,0,0-7.55-6.15,25,25,0,0,0-13.39-.66c-7.68,1.51-13.75,4.91-18,10.1-3.28,4-3.84,9-2.48,11.6m20.18,8.77a52.11,52.11,0,0,1-6.23,0c-6.57-.31-11.87-3.41-14.55-8.5-1.46-2.77-.9-8.14,2.56-12.34,4.39-5.31,10.59-8.79,18.43-10.33a25.61,25.61,0,0,1,13.75.69A14.66,14.66,0,0,1,141,49.56c2.83,5.14,2.34,12.74-5.12,18.14a31.57,31.57,0,0,1-16.75,5.85"/><path class="cls-15" d="M129.22,57.52c-5.67,3.25-21.4,5.18-24.91,0s6-12.24,12.17-14.11,17.83-1.7,20,2.82-2.11,8.33-7.25,11.27"/><path class="cls-7" d="M122.5,42.74a28.15,28.15,0,0,0-5.93,1c-4.73,1.44-11,5.81-12.38,9.76a4.08,4.08,0,0,0,.4,3.84c3.38,5,18.91,3.06,24.46-.12,6.48-3.71,8.81-7.26,7.11-10.83-1.44-3-7.84-4.07-13.66-3.66M116.78,61c-5.46.39-10.81-.39-12.75-3.25a4.75,4.75,0,0,1-.48-4.44c1.62-4.59,8.49-8.86,12.83-10.18a32.84,32.84,0,0,1,11.63-1c4.63.43,7.74,1.86,8.76,4,1.88,4-.54,7.78-7.38,11.71-2.7,1.54-7.7,2.82-12.61,3.16"/><path class="cls-16" d="M78.67,48.32c0,2.85.42,8.25,4.26,8.62s5.27-4.18,5.19-7.67-1.22-8-4.71-8.26c-4.16-.34-4.74,7.31-4.74,7.31"/><path class="cls-2" d="M78.9,48.32c.08,5.32,1.44,8.14,4,8.39a3.53,3.53,0,0,0,2.86-.94c1.62-1.5,2.13-4.44,2.08-6.5-.09-3.71-1.32-7.77-4.5-8a2.7,2.7,0,0,0-2,.67c-2,1.73-2.43,6.18-2.45,6.41m4.78,8.85a4,4,0,0,1-.77,0c-2.88-.27-4.38-3.25-4.46-8.84v0c0-.2.39-4.84,2.61-6.74a3.17,3.17,0,0,1,2.37-.77c3.47.29,4.82,4.56,4.91,8.47.06,2.26-.5,5.24-2.23,6.84a3.83,3.83,0,0,1-2.43,1.07"/><path class="cls-8" d="M80.9,48.34c-.13,2.38.36,5.22,2.13,5.41s2.82-1.46,2.83-5c0-2.23-.68-5.2-2.42-5.08-1.59.11-2.4,2.08-2.54,4.63"/><path class="cls-8" d="M83.46,44.05c-1.25.09-2.08,1.7-2.22,4.31-.13,2.4.38,4.9,1.82,5.06A1.61,1.61,0,0,0,84.38,53c.74-.67,1.14-2.13,1.14-4.24,0-1.63-.37-3.63-1.22-4.42a1.07,1.07,0,0,0-.84-.32m0,10.05a2.69,2.69,0,0,1-.49,0c-2-.22-2.57-3.25-2.43-5.77l.34,0-.34,0c.17-3,1.21-4.83,2.85-4.94a1.7,1.7,0,0,1,1.35.5c1.06,1,1.44,3.26,1.43,4.91,0,2.34-.46,3.93-1.36,4.74a2.28,2.28,0,0,1-1.35.57"/><path class="cls-1" d="M84.43,53.5c-.83.06-1.46-1.56-1.31-2.4s.18-2,1.3-2.17c.92-.16,1.32,1,1.29,2.09s-.14,2.4-1.28,2.48"/><path class="cls-1" d="M84.55,49.26h-.07c-.7.13-.84.68-1,1.58a2.87,2.87,0,0,1,0,.31A2.57,2.57,0,0,0,84,52.94a.53.53,0,0,0,.41.22c.75,0,.93-.89,1-2.15a2.25,2.25,0,0,0-.47-1.63.47.47,0,0,0-.35-.12m-.1,4.58a1.15,1.15,0,0,1-1-.45A3.2,3.2,0,0,1,82.79,51c0-.09,0-.19,0-.29.12-.81.29-1.92,1.52-2.15a1.19,1.19,0,0,1,1,.26A2.92,2.92,0,0,1,86.05,51c0,.88-.08,2.7-1.6,2.81"/><path class="cls-16" d="M88.81,42c0,3.51.93,8.68,4,9.1s5.66-3.25,5.45-8.48-2.48-8.25-4.87-8.24S88.8,37.23,88.81,42"/><path class="cls-2" d="M89,42c0,3.11.81,8.47,3.78,8.88a3.42,3.42,0,0,0,2.82-1c1.6-1.46,2.49-4.18,2.36-7.29-.2-5.28-2.49-8-4.64-8C90.54,34.6,89,38.41,89,42m4.47,9.35a3.25,3.25,0,0,1-.76,0c-3-.42-4.15-5.28-4.16-9.32,0-5.14,2.38-7.84,4.77-7.85,3.13,0,4.93,4.25,5.09,8.46.13,3.24-.81,6.1-2.51,7.64a4,4,0,0,1-2.43,1.1"/><path class="cls-8" d="M90,43.18c-.08,2.87,1.16,5.32,2.44,5.39s2.66-1.16,2.81-5.28c.1-3-1.16-5.16-2.74-5s-2.43,1.6-2.51,4.94"/><path class="cls-8" d="M90.34,43.19c-.06,2.73,1.11,5,2.13,5.05a1.49,1.49,0,0,0,1.12-.43c.55-.5,1.23-1.7,1.33-4.53a5.79,5.79,0,0,0-1.22-4.23,1.47,1.47,0,0,0-1.15-.47c-.9.06-2.1.61-2.21,4.61m2.36,5.72a2.43,2.43,0,0,1-.27,0c-1.54-.08-2.84-2.76-2.76-5.74,0-2.18.41-5.1,2.83-5.27a2.18,2.18,0,0,1,1.67.66A6.39,6.39,0,0,1,95.6,43.3c-.09,2.46-.61,4.15-1.56,5a2.22,2.22,0,0,1-1.34.6"/><path class="cls-1" d="M92.05,46.43c.08,1.16.63,2.09,1.21,2s1.17-.46,1.22-2c0-1-.53-2-1.21-2-.87.06-1.31.67-1.22,1.93"/><path class="cls-1" d="M93.3,44.84c-.47,0-1,.24-.91,1.57.07,1.07.56,1.75.85,1.73.57,0,.87-.61.9-1.7a2.06,2.06,0,0,0-.5-1.45.45.45,0,0,0-.34-.15m0,4c-.79,0-1.48-1-1.58-2.37-.13-1.89.91-2.24,1.54-2.29a1.12,1.12,0,0,1,.86.35,2.7,2.7,0,0,1,.71,2c-.06,1.86-.87,2.31-1.53,2.36"/><path class="cls-14" d="M72.43,35.49a20.09,20.09,0,0,0-2.9,5.06c-.6,1.22-3.16,2.19-3.35-.89a9.56,9.56,0,0,1,2.55-6.4c1.24-1.33,3.79-3.44,5.75-3.32s2.07,1.43,1.47,2.32a30.56,30.56,0,0,1-3.52,3.23"/><path class="cls-17" d="M73.22,30.48a11.7,11.7,0,0,0-4.24,3,9.26,9.26,0,0,0-2.46,6.15c0,.71.24,1.58,1,1.72a1.85,1.85,0,0,0,1.75-1c.11-.23.23-.51.37-.81a16.51,16.51,0,0,1,2.58-4.33l0,0a28.92,28.92,0,0,0,3.45-3.16,1.21,1.21,0,0,0,.18-1.16c-.19-.37-.67-.59-1.39-.63a3.15,3.15,0,0,0-1.24.2M68.37,41.94a2,2,0,0,1-1,.08c-.51-.1-1.38-.54-1.5-2.34A9.89,9.89,0,0,1,68.48,33c.35-.37,3.43-3.59,6-3.43a2.09,2.09,0,0,1,2,1,1.82,1.82,0,0,1-.22,1.83,30.51,30.51,0,0,1-3.57,3.29,15.78,15.78,0,0,0-2.44,4.13c-.14.31-.27.59-.39.83a2.66,2.66,0,0,1-1.46,1.24"/><path class="cls-14" d="M86.83,26c-1.39,0-2.93-.73-2.87-1.75A2.53,2.53,0,0,1,86.62,22a12.94,12.94,0,0,1,7,1.48c1.83.86,1.8,3.65.05,3.25A48.86,48.86,0,0,0,86.83,26"/><path class="cls-17" d="M92.25,23.21a12.32,12.32,0,0,0-5.62-.9,2.21,2.21,0,0,0-2.33,2,.81.81,0,0,0,.25.59,3.31,3.31,0,0,0,2.27.79h0a49.3,49.3,0,0,1,6.92.74A.63.63,0,0,0,94.6,26a2,2,0,0,0-1.12-2.21c-.41-.19-.82-.38-1.23-.55M85.11,26a3.08,3.08,0,0,1-1-.68,1.43,1.43,0,0,1-.43-1.1,2.85,2.85,0,0,1,3-2.57,13.28,13.28,0,0,1,7.17,1.51,2.64,2.64,0,0,1,1.47,3,1.3,1.3,0,0,1-1.63.85,48.48,48.48,0,0,0-6.79-.72A4.65,4.65,0,0,1,85.11,26"/><path class="cls-4" d="M65.79,60.74s.13-5.78-1-8.38-9.15-6.7-12.43-8.43-7.86-6.37-8.49-10.68C43,27.54,46.87,18.46,55.4,15c2.94-1.2,16.73-4.81,17.39-9.24S67.6.52,66.51.53C63.3.55,56.8,2.76,53.5,6c-5.8,5.61-11.17,13.4-11.31,23.62-.18,13,5.4,19.73,7.64,22.57s10.84,8.86,16,8.6"/><path class="cls-4" d="M66,.89c-3.16.22-9.12,2.25-12.28,5.3-7.32,7.08-11.09,15-11.2,23.38-.17,12.54,5.13,19.27,7.39,22.14l.17.22c2,2.6,10.31,8.47,15.36,8.48,0-1.24,0-5.76-1-7.91-1-2.35-8.24-6.14-11.7-8l-.58-.3a19.72,19.72,0,0,1-5.36-4.47,13.69,13.69,0,0,1-3.31-6.46,16.8,16.8,0,0,1,2.3-10.19,19.15,19.15,0,0,1,9.45-8.45c.56-.23,1.49-.54,2.66-.93,4.55-1.51,14-4.65,14.52-8a3.33,3.33,0,0,0-.74-2.77c-1.48-1.69-4.53-2.05-5.2-2l-.5,0m.11,60.18H65.8c-5.12.25-13.83-5.67-16.24-8.73l-.17-.22c-2.31-2.93-7.71-9.79-7.54-22.57.12-8.62,4-16.65,11.41-23.85C56.72,2.37,63.41.21,66.5.19c.79,0,4.06.37,5.72,2.28a4,4,0,0,1,.9,3.31c-.56,3.81-9.58,6.8-15,8.6-1.16.38-2.07.69-2.61.91C50,17.55,43,25,44.19,33.2c.63,4.27,5.24,8.8,8.32,10.43l.58.31c3.79,2,10.87,5.72,12,8.28s1,8.29,1,8.53Z"/><path class="cls-18" d="M97.32,99.08a75,75,0,0,1-13-6.6A47.86,47.86,0,0,1,74.58,84c-2.19-2.83-7.09-8.23-7.09-8.23l-2.19,5s5.59,8.88,9.16,12.61,11.86,11.2,20.68,13c6.38,1.32,7.08.28,7.08.28l3.14-6.1a25.16,25.16,0,0,1-8-1.5"/><path class="cls-6" d="M65.68,80.74c.75,1.18,5.77,9,9,12.41,9.64,10,18.12,12.43,20.5,12.92,5.37,1.11,6.58.5,6.74.4l2.86-5.56a26.33,26.33,0,0,1-7.6-1.52,74.12,74.12,0,0,1-13-6.62,48.82,48.82,0,0,1-9.87-8.58c-1.81-2.35-5.56-6.53-6.72-7.82Zm35.24,26.65a23,23,0,0,1-5.85-.66,34.11,34.11,0,0,1-12.43-5.85,60.52,60.52,0,0,1-8.42-7.27C70.66,89.91,65.07,81,65,81l-.09-.15,2.47-5.66.35.39c.05,0,4.94,5.44,7.11,8.25a48,48,0,0,0,9.69,8.42,73.89,73.89,0,0,0,12.89,6.56,25.09,25.09,0,0,0,7.92,1.48h.56l-3.41,6.62c-.09.15-.44.45-1.58.53"/><path class="cls-2" d="M73.29,93.77h0s0,0,0,0h0l0,0m-.05.07,0,.06c0,.1.1.1.11.1a.24.24,0,0,0,.22-.14l0-.08-.11,0h0a.16.16,0,0,0-.1-.06c-.05,0-.09,0-.11,0a.18.18,0,0,1-.08.07"/><path class="cls-7" d="M96.35,109.58a2.44,2.44,0,0,1-.47,0,3.86,3.86,0,0,1-3.15-2l1-.59a2.73,2.73,0,0,0,2.23,1.44c3,.09,3.91-3.53,4-5.45.15-3-1.37-6.29-3-6.57l.19-1.11c2.47.42,4.14,4.43,4,7.73-.15,3.06-1.68,6.3-4.7,6.51"/><path class="cls-19" d="M106.56,76.47s-4.56,7.35-9.1,8.78c-3.1,1-5.88.83-8.54-2.3s-5.34-9-5.34-9,3.76,3.57,7.33,4.4c6.8,1.58,15.65-1.85,15.65-1.85"/><path class="cls-2" d="M84.44,75.05a42.39,42.39,0,0,0,4.7,7.72c2.24,2.64,4.7,3.29,8.2,2.18s7.11-5.94,8.44-7.87a41.76,41.76,0,0,1-4.4,1.21,25.41,25.41,0,0,1-10.51.33,17.55,17.55,0,0,1-6.43-3.57m14.31,10a7.13,7.13,0,0,1-1.17.49c-4.77,1.51-7.26-.5-8.88-2.41C86,80,83.41,74.27,83.3,74l-.6-1.32,1.07,1s3.74,3.51,7.17,4.31c6.63,1.55,15.4-1.8,15.49-1.84l.91-.35-.51.82A38.68,38.68,0,0,1,104,80.53a18.15,18.15,0,0,1-5.2,4.52"/><path class="cls-20" d="M92.84,81.23a15.11,15.11,0,0,1,4.25,3.52,7.79,7.79,0,0,1-4.86,0,10.25,10.25,0,0,1-4.68-4.42c-.16-.26,2.91-.32,5.29.89"/><path class="cls-21" d="M88,80.5a9.54,9.54,0,0,0,4.31,4,7.37,7.37,0,0,0,4.26.1,14.42,14.42,0,0,0-3.84-3.08,10.27,10.27,0,0,0-4.73-1m9.59,4.41-.37.13a8.07,8.07,0,0,1-5.07,0c-1.75-.67-3.34-2.17-4.85-4.57a.32.32,0,0,1,0-.4c.36-.42,3.47-.22,5.63.88a15.31,15.31,0,0,1,4.37,3.62Z"/><path class="cls-2" d="M81.36,74.71a6.53,6.53,0,0,1-1-1.73,4,4,0,0,1-.27-1,2,2,0,0,1,.08-1,1.11,1.11,0,0,1,.34-.46,1.09,1.09,0,0,1,.23-.14,1.7,1.7,0,0,1,.24-.09,2,2,0,0,1,1,0,3.4,3.4,0,0,1,1.74,1A4.84,4.84,0,0,0,82,70.71a1.65,1.65,0,0,0-.77.12,1.49,1.49,0,0,0-.31.17.65.65,0,0,0-.17.25,1,1,0,0,0-.08.35,1.87,1.87,0,0,0,0,.41,5.59,5.59,0,0,0,.15.88c.14.6.33,1.2.52,1.82"/><polygon class="cls-1" points="95.91 33.9 91.84 33.08 87.69 37.88 85.27 37.45 82.6 37.37 80.09 39.14 77.23 43.47 77.07 51.29 80.99 58.07 84.6 57.95 91.02 55.17 97.26 50.35 100.34 44.32 99.82 40.48 95.91 33.9"/><path class="cls-22" d="M87.5,49.71a9.26,9.26,0,0,1-.91,5,3.58,3.58,0,0,1-2.65,1.86,3.36,3.36,0,0,1-2.12-.37,4.81,4.81,0,0,1-.74-.5,9.57,9.57,0,0,1-2.55-3.94"/><path class="cls-22" d="M98.12,44.15A9,9,0,0,1,96.81,49,3.55,3.55,0,0,1,94,50.65,3.39,3.39,0,0,1,92,50.08a4.6,4.6,0,0,1-.7-.57,8.16,8.16,0,0,1-1.75-2.79"/></svg>