<svg id="Layer_1" data-name="Layer 1" xmlns="http://www.w3.org/2000/svg" xmlns:xlink="http://www.w3.org/1999/xlink" viewBox="0 0 970 250"><defs><style>.cls-1,.cls-4{fill:none;}.cls-2{clip-path:url(#clip-path);}.cls-3{fill:#009970;}.cls-4{stroke:#b2b2b2;stroke-width:0.75px;}</style><clipPath id="clip-path"><rect class="cls-1" width="970" height="250"/></clipPath></defs><g class="cls-2"><path class="cls-3" d="M37.87,84.53V33.68H54.68c9.61,0,16.07,4.89,16.07,13.83,0,8-5.14,12.75-13.08,13.66L73.32,84.53h-3L54.68,61.34H40.44V84.53Zm2.57-25.59H54.52c8.53,0,13.66-4.14,13.66-11.43S63.05,36.17,54.52,36.17H40.44Z"/><path class="cls-3" d="M114.06,33.68v2.49H85.74V57h25.67v2.49H85.74V82h28.32v2.49H83.17V33.68Z"/><path class="cls-3" d="M148.92,72.52,128.38,39V84.53H125.9V33.68h2.15l21,34.45L170.2,33.68h1.9V84.53h-2.48V39L149.17,72.52Z"/><path class="cls-3" d="M216.74,33.68v2.49H188.42V57h25.67v2.49H188.42V82h28.32v2.49H185.85V33.68Z"/><path class="cls-3" d="M251.6,72.52,231.06,39V84.53h-2.48V33.68h2.15l21,34.45,21.12-34.45h1.91V84.53H272.3V39L251.85,72.52Z"/><path class="cls-3" d="M321.08,70.78c0,8.61-6.05,13.75-16.32,13.75H288.53V33.68h14.74c10.27,0,15.9,4.72,15.9,12.92,0,3.56-.91,6.21-2.81,7.95a14.83,14.83,0,0,1-6.22,3.56A12.42,12.42,0,0,1,321.08,70.78ZM303.27,57.12c8.53,0,13.33-3.48,13.33-10.44s-4.8-10.51-13.33-10.51H291.1V57.12ZM291.1,82h14.16c8.61,0,13.25-4.55,13.25-11.26s-4.64-11.34-13.25-11.34H291.1Z"/><path class="cls-3" d="M361.9,33.68v2.49H333.58V57h25.67v2.49H333.58V82H361.9v2.49H331V33.68Z"/><path class="cls-3" d="M373.74,84.53V33.68h16.81c9.6,0,16.06,4.89,16.06,13.83,0,8-5.13,12.75-13.08,13.66l15.65,23.36h-3L390.55,61.34H376.31V84.53Zm2.57-25.59h14.07c8.53,0,13.67-4.14,13.67-11.43s-5.14-11.34-13.67-11.34H376.31Z"/><path class="cls-3" d="M63.21,101.43l12.84,46.13L88.8,101.43h2.57L77.21,152.28H75l-12.83-46-12.76,46H47.15L33,101.43h2.56l12.76,46.13,12.75-46.13Z"/><path class="cls-3" d="M140.14,101.43v50.85h-2.57v-25H102.79v25h-2.56V101.43h2.56v23.36h34.78V101.43Z"/><path class="cls-3" d="M184.77,101.43v2.49H156.45v20.87h25.67v2.48H156.45v22.52h28.32v2.49H153.89V101.43Z"/><path class="cls-3" d="M233.46,152.28h-1.4l-33-46.79v46.79h-2.49V101.43h2.49l31.88,45v-45h2.48Z"/><path class="cls-3" d="M268.16,152.28h-2.57V101.43h2.57Z"/><path class="cls-3" d="M318.75,152.28h-1.4l-33-46.79v46.79H281.9V101.43h2.49l31.88,45v-45h2.48Z"/><path class="cls-3" d="M328.19,101.43h41.08v2.49H350v48.36h-2.56V103.92H328.19Z"/><path class="cls-3" d="M409.59,101.43v2.49H381.27v20.87h25.67v2.48H381.27v22.52h28.32v2.49H378.71V101.43Z"/><path class="cls-3" d="M421.43,152.28V101.43h16.82c9.6,0,16.06,4.89,16.06,13.83,0,8-5.13,12.76-13.08,13.67l15.65,23.35h-3l-15.65-23.19H424v23.19ZM424,126.69h14.08c8.53,0,13.66-4.14,13.66-11.43s-5.13-11.34-13.66-11.34H424Z"/><path class="cls-3" d="M497.62,101.43v2.49H469.3v20.87H495v2.48H469.3v22.52h28.32v2.49H466.73V101.43Z"/><path class="cls-3" d="M505.65,144.41a21,21,0,0,0,15.65,6.05c7.87,0,12.67-4.31,12.67-10.6a8.13,8.13,0,0,0-2.4-6.3,28.48,28.48,0,0,0-7.45-4.55l-7.54-3.31a42.91,42.91,0,0,1-7-4.23c-2.4-1.74-3.56-4.47-3.56-8.19,0-4.23,1.49-7.29,4.47-9.36a17.54,17.54,0,0,1,10.27-3.15,23.67,23.67,0,0,1,13.91,4.31v3.14a20,20,0,0,0-13.91-5c-6.62,0-12.17,3.39-12.17,10,0,5.38,4,7.86,9.6,10.26l7.79,3.4c7.28,3.31,10.6,6.62,10.6,12.92a11.86,11.86,0,0,1-4.31,9.44,16.59,16.59,0,0,1-10.93,3.64c-6.87,0-12.34-2.15-15.65-5.22Z"/><path class="cls-3" d="M542.75,101.43h41.07v2.49H564.53v48.36H562V103.92H542.75Z"/><path class="cls-3" d="M63.21,169.19l12.84,46.12L88.8,169.19h2.57L77.21,220H75l-12.83-46L49.38,220H47.15L33,169.19h2.56l12.76,46.12,12.75-46.12Z"/><path class="cls-3" d="M125.65,202.31H102l-7,17.72H92.36l20.37-50.84H115L135.34,220h-2.57ZM103,199.82h21.7l-10.85-27.07Z"/><path class="cls-3" d="M140.39,212.16A21,21,0,0,0,156,218.21c7.87,0,12.67-4.31,12.67-10.6a8.11,8.11,0,0,0-2.4-6.29,28.29,28.29,0,0,0-7.46-4.56l-7.53-3.31a43.53,43.53,0,0,1-7-4.22c-2.4-1.74-3.56-4.48-3.56-8.2,0-4.23,1.49-7.29,4.47-9.36a17.54,17.54,0,0,1,10.27-3.15,23.74,23.74,0,0,1,13.91,4.31V176a20,20,0,0,0-13.91-5c-6.63,0-12.17,3.39-12.17,10,0,5.38,4,7.86,9.6,10.27l7.79,3.39c7.28,3.31,10.6,6.63,10.6,12.92a11.86,11.86,0,0,1-4.31,9.44A16.59,16.59,0,0,1,156,220.69c-6.87,0-12.34-2.15-15.65-5.21Z"/><path class="cls-3" d="M202.66,220h-2.57V169.19h2.57Z"/><path class="cls-3" d="M253.25,220h-1.4l-33-46.79V220H216.4V169.19h2.49l31.88,45v-45h2.48Z"/><path class="cls-3" d="M262.69,169.19h41.08v2.48h-19.3V220H281.9V171.67H262.69Z"/><path class="cls-3" d="M344.09,169.19v2.48H315.77v20.87h25.67V195H315.77v22.53h28.32V220H313.21V169.19Z"/><path class="cls-3" d="M355.93,220V169.19h16.81c9.61,0,16.07,4.88,16.07,13.82,0,8-5.14,12.76-13.08,13.67L391.38,220h-3l-15.66-23.19H358.5V220Zm2.57-25.59h14.08c8.53,0,13.66-4.14,13.66-11.43s-5.13-11.34-13.66-11.34H358.5Z"/><path class="cls-3" d="M432.12,169.19v2.48H403.8v20.87h25.67V195H403.8v22.53h28.32V220H401.23V169.19Z"/><path class="cls-3" d="M440.15,212.16a21,21,0,0,0,15.65,6.05c7.87,0,12.67-4.31,12.67-10.6a8.11,8.11,0,0,0-2.4-6.29,28.29,28.29,0,0,0-7.46-4.56l-7.53-3.31a43.53,43.53,0,0,1-7-4.22c-2.4-1.74-3.56-4.48-3.56-8.2,0-4.23,1.49-7.29,4.47-9.36a17.54,17.54,0,0,1,10.27-3.15,23.74,23.74,0,0,1,13.91,4.31V176a20,20,0,0,0-13.91-5c-6.63,0-12.17,3.39-12.17,10,0,5.38,4,7.86,9.6,10.27l7.79,3.39c7.28,3.31,10.6,6.63,10.6,12.92a11.86,11.86,0,0,1-4.31,9.44,16.59,16.59,0,0,1-10.93,3.64c-6.87,0-12.34-2.15-15.65-5.21Z"/><path class="cls-3" d="M476.25,169.19h41.08v2.48H498V220h-2.57V171.67H476.25Z"/><path class="cls-3" d="M529.33,220h-2.57V169.19h2.57Z"/><path class="cls-3" d="M579.93,220h-1.41l-33-46.79V220h-2.48V169.19h2.48l31.88,45v-45h2.49Z"/><path class="cls-3" d="M627.62,213.24V197H613.55v-2.24H630v19c-4.72,5.55-11.27,6.87-17.23,6.87a21.59,21.59,0,0,1-16.06-6.95c-4.39-4.72-6.63-11.1-6.63-19.13s2.24-14.49,6.63-19.13a21.57,21.57,0,0,1,16.31-7,23.75,23.75,0,0,1,15.07,5v3.15A21.36,21.36,0,0,0,613.05,171a18.78,18.78,0,0,0-14.58,6.29c-3.8,4.14-5.71,9.94-5.71,17.31s1.91,13.16,5.71,17.39a18.71,18.71,0,0,0,14.33,6.21C619,218.21,623.24,217,627.62,213.24Z"/><path class="cls-3" d="M660.33,189.47a11.25,11.25,0,0,0,2.82-7.62c0-6.54-4.14-10.93-11.76-10.93-5.72,0-10.85,3.73-14.41,7.79v-3.07c3.06-3.64,8.45-7.12,14.41-7.12,9.19,0,14.24,5.39,14.24,13.33a12.75,12.75,0,0,1-2.81,8.12c-1.91,2.4-3.81,4.64-5.8,6.87-2.57,2.9-3.56,4.64-3.64,7.21h-2.32c.25-3.4,1.57-5.63,4.14-8.61Zm-8.2,26.25A2.24,2.24,0,1,1,650,218,2.28,2.28,0,0,1,652.13,215.72Z"/><g class="cls-2"><rect class="cls-4" x="0.38" y="0.38" width="969.25" height="249.25"/></g></g></svg>