<?xml version="1.0" encoding="utf-8"?>
<!-- Generator: Adobe Illustrator 25.2.1, SVG Export Plug-In . SVG Version: 6.00 Build 0)  -->
<svg version="1.1" id="Layer_1" xmlns="http://www.w3.org/2000/svg" xmlns:xlink="http://www.w3.org/1999/xlink" x="0px" y="0px"
	 viewBox="0 0 970 250" style="enable-background:new 0 0 970 250;" xml:space="preserve">
<style type="text/css">
	.st0{fill:#009970;}
</style>
<g>
	<path class="st0" d="M79.6,78.3l9.2-37.6h11.5l-14.6,56H75l-9.8-37l-9.8,36.9H44.7l-14.6-56h11.8L51,78.3l9.8-37.6h9.1L79.6,78.3z"
		/>
	<path class="st0" d="M153.8,96.7H142l-5-13.5h-21l-4.9,13.5H99.4l21.4-56h11.6L153.8,96.7z M133.3,73.3l-6.8-18.6l-6.8,18.6H133.3z
		"/>
	<path class="st0" d="M192.7,40.7h14l-23.2,26.8l24.1,29.2h-14.3l-21-25.3v25.3h-11.6v-56h11.7v24.1L192.7,40.7z"/>
	<path class="st0" d="M251.9,50.9h-26.5v12.2h24.1v9.9h-24.1v13.3h26.5v10.3h-38v-56h38V50.9z"/>
	<path class="st0" d="M279.5,74.2V40.7h11.7V73c0,9.6,4.2,14.1,11.6,14.1s11.6-4.6,11.6-14.1V40.7H326v33.4
		c0,15.4-9.1,23.4-23.2,23.4C288.9,97.6,279.5,89.6,279.5,74.2z"/>
	<path class="st0" d="M347.5,96.7h-11.6v-56h22.8c11.9,0,19.7,6.4,19.7,18.3s-7.8,18.2-19.7,18.2h-11.2V96.7z M358,50.7h-10.5v16.7
		H358c6.1,0,8.9-3.5,8.9-8.3C366.9,53.9,364.1,50.6,358,50.7L358,50.7z"/>
	<path class="st0" d="M82,115.8l-20.3,34.7v21.2H50.1v-21.2L30,115.8h12.7l13.6,23.7l13.5-23.7L82,115.8z"/>
	<path class="st0" d="M108.2,172.7c-15.6,0-26.4-12.2-26.4-28.9s10.8-28.9,26.4-28.9s26.5,12.1,26.5,28.9S123.8,172.7,108.2,172.7z
		 M108.2,125.3c-8.8,0-14.6,7.6-14.6,18.5s5.8,18.5,14.6,18.5c9,0,14.8-7.6,14.8-18.5S117.2,125.3,108.2,125.3z"/>
	<path class="st0" d="M142,149.3v-33.4h11.7v32.3c0,9.6,4.2,14.1,11.6,14.1s11.6-4.6,11.6-14.1v-32.3h11.7v33.4
		c0,15.4-9.1,23.4-23.2,23.4C151.4,172.7,142,164.7,142,149.3z"/>
	<path class="st0" d="M210,171.8h-11.6v-56h23.1c11.8,0,19.6,6.2,19.6,17.8c0,9-4.8,14.6-12.8,16.5l14.8,21.7h-13.1l-13.9-20.9H210
		V171.8z M220.8,141.4c5.8,0,8.8-3.1,8.8-7.8s-3-7.8-8.8-7.8H210v15.6H220.8z"/>
	<path class="st0" d="M280.5,135.7v36.1h-11.4v-56H280l17,26.4l16.9-26.4h10.7v56H313v-36.1l-16,24.1h-0.4L280.5,135.7z"/>
	<path class="st0" d="M358.8,172.7c-15.6,0-26.4-12.2-26.4-28.9s10.8-28.9,26.4-28.9s26.5,12.1,26.5,28.9S374.4,172.7,358.8,172.7z
		 M358.8,125.3c-8.8,0-14.6,7.6-14.6,18.5s5.8,18.5,14.6,18.5c9,0,14.8-7.6,14.8-18.5S367.8,125.3,358.8,125.3z"/>
	<path class="st0" d="M431.1,171.8l-26.4-37.3v37.3h-11.2v-56h10.9l24.7,35.4v-35.3h11.2v56L431.1,171.8z"/>
	<path class="st0" d="M489,126.1h-26.5v12.2h24v9.9h-24v13.3H489v10.3h-38v-56h38V126.1z"/>
	<path class="st0" d="M545.7,115.8l-20.3,34.7v21.2h-11.6v-21.2l-20.1-34.7h12.7l13.6,23.7l13.5-23.7L545.7,115.8z"/>
</g>
</svg>
