<?xml version="1.0" encoding="utf-8"?>
<!-- Generator: Adobe Illustrator 24.0.3, SVG Export Plug-In . SVG Version: 6.00 Build 0)  -->
<svg version="1.1" id="Layer_1" xmlns="http://www.w3.org/2000/svg" xmlns:xlink="http://www.w3.org/1999/xlink" x="0px" y="0px"
	 viewBox="0 0 300 600" style="enable-background:new 0 0 300 600;" xml:space="preserve">
<style type="text/css">
	.st0{clip-path:url(#SVGID_2_);}
	.st1{clip-path:url(#SVGID_4_);}
	.st2{clip-path:url(#SVGID_6_);}
	.st3{fill:#F57D20;}
	.st4{fill:#FFFFFF;}
</style>
<title>cta</title>
<g>
	<g id="Layer_1_1_">
		<g>
			<defs>
				<rect id="SVGID_1_" width="300" height="600"/>
			</defs>
			<clipPath id="SVGID_2_">
				<use xlink:href="#SVGID_1_"  style="overflow:visible;"/>
			</clipPath>
			<g class="st0">
				<g>
					<defs>
						<rect id="SVGID_3_" width="300" height="600"/>
					</defs>
					<clipPath id="SVGID_4_">
						<use xlink:href="#SVGID_3_"  style="overflow:visible;"/>
					</clipPath>
					<g class="st1">
						<g id="cta">
							<g>
								<defs>
									<rect id="SVGID_5_" width="300" height="600"/>
								</defs>
								<clipPath id="SVGID_6_">
									<use xlink:href="#SVGID_5_"  style="overflow:visible;"/>
								</clipPath>
								<g class="st2">
									<path class="st3" d="M92.4,464h115.1c7.3,0,13.3,6,13.3,13.3v32.5c0,7.3-6,13.3-13.3,13.3h0H92.4c-7.3,0-13.3-6-13.3-13.3
										l0,0v-32.5C79.2,469.9,85.1,464,92.4,464z"/>
								</g>
							</g>
							<path class="st4" d="M106.2,469.7h5.5c3.3,0,5.3,1.9,5.3,5.9c0,2.9-1,4.6-2.5,5.3l2.7,9h-3.7l-2.2-8.2h-1.5v8.3h-3.6V469.7z
								 M111.4,479.1c1.3,0,2-1,2-3.2c0-2-0.6-3.1-2-3.1h-1.6v6.3H111.4z"/>
							<path class="st4" d="M119.9,469.7h9.3v3h-5.7v5.3h4.5v3.1h-4.6v5.9h5.8v3.1h-9.3L119.9,469.7z"/>
							<path class="st4" d="M138.6,490.1c-0.4,0.1-0.7,0.1-1.1,0.1c-3.4,0-5.6-1.7-5.6-5.3v-10.2c0-3.5,2.4-5.3,5.6-5.3
								s5.6,1.6,5.6,5.2v10.2c0.1,1.3-0.4,2.5-1.2,3.5l2,1.3l-2.2,2.8L138.6,490.1z M139.5,485v-10.4c0.1-1.1-0.8-2-1.8-2
								c-0.1,0-0.2,0-0.3,0c-1-0.1-1.9,0.7-2,1.7c0,0.1,0,0.2,0,0.3V485c0,1.1,0.9,2,2,2S139.5,486.1,139.5,485L139.5,485z"/>
							<path class="st4" d="M146,485.1v-15.3h3.6v15.2c0,1.5,0.9,2.2,2,2.2c1.3,0,1.9-0.9,1.9-2.2v-15.2h3.4V485
								c0,3.4-2.4,5.3-5.6,5.3S146,488.6,146,485.1z"/>
							<path class="st4" d="M160.1,469.7h9.3v3h-5.7v5.3h4.6v3.1h-4.6v5.9h5.8v3.1h-9.3V469.7z"/>
							<path class="st4" d="M171.4,484.6l3.4-0.1c0.1,1.4,0.5,2.8,2,2.8c1.3,0,1.7-1.1,1.7-2.1s-0.7-2.1-1.9-3.2l-2-2.1
								c-1.7-1.7-2.8-3.3-2.8-5.5c-0.2-2.6,1.9-4.9,4.5-5.1c0.2,0,0.4,0,0.6,0c2.5,0,4.7,1.3,4.9,5.5l-3.1,0.1
								c-0.2-1.6-0.6-2.7-1.9-2.7c-1.1,0-1.6,0.8-1.6,1.9s1.1,2.2,2.1,3.1l1.9,1.9c1.9,1.8,2.9,3.6,2.9,5.8c0.2,2.7-1.9,5-4.6,5.2
								c-0.2,0-0.4,0-0.5,0C173.5,490.2,171.6,488.1,171.4,484.6z"/>
							<path class="st4" d="M187.1,472.8h-3.8v-3h11.2v3h-3.8V490h-3.6V472.8z"/>
							<path class="st4" d="M111.9,495.4h4.9l3.9,20.3h-3.6l-0.9-4.9H112l-0.9,4.9h-3.3L111.9,495.4z M115.6,507.9l-1.4-8.4h-0.1
								l-1.5,8.4H115.6z"/>
							<path class="st4" d="M134.5,515.9c-0.4,0.1-0.7,0.1-1.1,0.1c-3.4,0-5.7-1.7-5.7-5.3v-10.2c0-3.5,2.4-5.3,5.7-5.3
								s5.6,1.6,5.6,5.2v10.2c0.1,1.3-0.4,2.5-1.2,3.5l2,1.3l-2.2,2.8L134.5,515.9z M135.4,510.7v-10.4c0.1-1.1-0.8-2-1.8-2
								c-0.1,0-0.2,0-0.3,0c-1-0.1-1.9,0.7-2,1.7c0,0.1,0,0.2,0,0.3v10.4c0,1.1,0.9,2,2,2S135.4,511.8,135.4,510.7L135.4,510.7z"/>
							<path class="st4" d="M141.9,510.8v-15.4h3.6v15.2c-0.2,1.1,0.6,2,1.6,2.2c0.1,0,0.2,0,0.4,0c1.3,0,1.9-0.9,1.9-2.2v-15.2h3.4
								v15.2c0,3.4-2.4,5.3-5.6,5.3S141.9,514.4,141.9,510.8z"/>
							<path class="st4" d="M155.8,510.6v-10.2c0-3.5,2.4-5.3,5.6-5.3s5.6,1.6,5.6,5.2v10.2c0,3.7-2.5,5.4-5.6,5.4
								C158,516,155.8,514.3,155.8,510.6z M163.4,510.7v-10.4c0-1.1-0.9-2-2-2s-2,0.9-2,2v10.4c0,1.1,0.9,2,2,2
								S163.4,511.8,163.4,510.7z"/>
							<path class="st4" d="M172.7,498.5h-3.8v-3h11.2v3h-3.8v17.2h-3.6L172.7,498.5z"/>
							<path class="st4" d="M182.6,495.5h9.3v3h-5.7v5.2h4.6v3.1h-4.6v5.8h5.8v3.1h-9.3L182.6,495.5z"/>
						</g>
					</g>
				</g>
			</g>
		</g>
	</g>
</g>
</svg>
