<?xml version="1.0" encoding="utf-8"?>
<!-- Generator: Adobe Illustrator 24.0.3, SVG Export Plug-In . SVG Version: 6.00 Build 0)  -->
<svg version="1.1" id="Layer_1" xmlns="http://www.w3.org/2000/svg" xmlns:xlink="http://www.w3.org/1999/xlink" x="0px" y="0px"
	 viewBox="0 0 300 600" style="enable-background:new 0 0 300 600;" xml:space="preserve">
<style type="text/css">
	.st0{clip-path:url(#SVGID_2_);}
	.st1{clip-path:url(#SVGID_4_);}
	.st2{clip-path:url(#SVGID_6_);}
	.st3{fill:#F57D20;}
	.st4{fill:#FFFFFF;}
</style>
<title>slide2_AU</title>
<g>
	<g id="Layer_1_1_">
		<g>
			<defs>
				<rect id="SVGID_1_" width="300" height="600"/>
			</defs>
			<clipPath id="SVGID_2_">
				<use xlink:href="#SVGID_1_"  style="overflow:visible;"/>
			</clipPath>
			<g class="st0">
				<g>
					<defs>
						<rect id="SVGID_3_" width="300" height="600"/>
					</defs>
					<clipPath id="SVGID_4_">
						<use xlink:href="#SVGID_3_"  style="overflow:visible;"/>
					</clipPath>
					<g class="st1">
						<g id="_1">
							<g>
								<defs>
									<rect id="SVGID_5_" width="300" height="600"/>
								</defs>
								<clipPath id="SVGID_6_">
									<use xlink:href="#SVGID_5_"  style="overflow:visible;"/>
								</clipPath>
								<g class="st2">
									<path class="st3" d="M19.4,111.6c3.5,0,6.4-2.9,6.4-6.4s-2.9-6.4-6.4-6.4c-3.5,0-6.4,2.9-6.4,6.4c0,3.5,2.8,6.4,6.3,6.4
										C19.4,111.6,19.4,111.6,19.4,111.6"/>
								</g>
							</g>
							<path class="st3" d="M37.9,73.4h10.6c5,0,7.9,2.7,7.9,8.4c0,4.4-1.9,7-4.6,7.7v0.2c3.1,0.7,4.8,3.4,4.8,7.5
								c0,6.4-3.2,9.2-7.8,9.2H37.9V73.4z M46.8,87.3c2.1,0,3.4-1.5,3.4-4.8c0-3.1-1.2-4.4-3-4.4H44v9.2L46.8,87.3z M47.2,101.6
								c2,0,3.1-1.8,3.1-4.8c0-3.3-1.3-4.7-3.5-4.7H44v9.5L47.2,101.6z"/>
							<path class="st3" d="M60.7,73.4h16.1v4.9h-10v8.5h7.9v5h-7.9v9.5h10v5H60.7V73.4z"/>
							<path class="st3" d="M79.3,97.6l5.8-0.2c0.2,2.3,0.9,4.6,3.4,4.6c2.2,0,2.9-1.8,2.9-3.5c0-1.8-1.2-3.4-3.2-5.3l-3.5-3.4
								c-3-2.7-4.9-5.4-4.9-8.9c0-4.4,3-8.2,8.9-8.2c4.3,0,8.1,2.1,8.4,8.9l-5.5,0.2c-0.3-2.6-1-4.4-3.3-4.4c-1.8,0-2.8,1.3-2.8,3.1
								s1.9,3.5,3.6,5.1l3.3,3.1c3.3,3,5.1,5.8,5.1,9.5c0,4.8-3.3,8.5-9,8.5S79.6,103.3,79.3,97.6z"/>
							<path class="st3" d="M105.8,78.3h-6.7v-4.9h19.5v4.9H112v28h-6.3L105.8,78.3z"/>
							<path class="st3" d="M129.1,73.4h6.2v33h-6.2V73.4z"/>
							<path class="st3" d="M140,73.4h6.4l7.8,19h0.1v-19h5.5v33h-5.6l-8.7-21.2h-0.1v21.1H140V73.4z"/>
							<path class="st3" d="M37.5,136.9v-17.4c0-5.3,4.2-8.3,9.8-8.3c5.2,0,9,2.9,9,7.7v3.7h-5.6v-3.1c0.1-1.7-1.2-3.1-2.9-3.2
								c-0.2,0-0.3,0-0.5,0c-2.4,0-3.5,1.4-3.5,3.4v16.9c-0.2,1.7,1.1,3.3,2.8,3.4c0.2,0,0.5,0,0.7,0c1.6,0.2,3.1-1,3.3-2.6
								c0-0.2,0-0.3,0-0.5v-3.1h5.6v3.4c0,4.9-3.8,7.9-9.1,7.9C41.5,145.1,37.5,142.4,37.5,136.9z"/>
							<path class="st3" d="M60.3,111.7h6.2v28h10v5H60.3V111.7z"/>
							<path class="st3" d="M86.1,111.7h8.5l6.9,33h-6.3l-1.6-8h-7.3l-1.6,8H79L86.1,111.7z M92.6,132l-2.5-13.7h-0.2L87.3,132H92.6
								z"/>
							<path class="st3" d="M103.5,136l5.8-0.2c0.2,2.3,0.9,4.6,3.4,4.6c2.2,0,2.9-1.8,2.9-3.5c0-1.9-1.2-3.4-3.3-5.3l-3.5-3.4
								c-3-2.7-4.9-5.4-4.9-8.9c0-4.4,3-8.2,8.9-8.2c4.3,0,8.1,2.1,8.4,8.9l-5.5,0.2c-0.3-2.6-1-4.4-3.2-4.4c-1.8,0-2.8,1.3-2.8,3.1
								s1.9,3.5,3.6,5.1l3.2,3.1c3.3,3,5.1,5.8,5.1,9.5c0,4.8-3.3,8.5-9,8.5S103.8,141.7,103.5,136z"/>
							<path class="st3" d="M124.3,136l5.8-0.2c0.2,2.3,0.9,4.6,3.4,4.6c2.2,0,2.9-1.8,2.9-3.5c0-1.9-1.2-3.4-3.3-5.3l-3.5-3.4
								c-3-2.7-4.9-5.4-4.9-8.9c0-4.4,3-8.2,8.9-8.2c4.3,0,8.1,2.1,8.4,8.9l-5.5,0.2c-0.3-2.6-1-4.4-3.3-4.4c-1.8,0-2.8,1.3-2.8,3.1
								s1.9,3.5,3.6,5.1l3.3,3.1c3.2,3,5.1,5.8,5.1,9.5c0,4.8-3.4,8.5-9,8.5S124.6,141.7,124.3,136z"/>
							<path class="st4" d="M37.8,151.7h9.5c5.6,0,8.2,3.5,8.2,9.4c0,6.3-2.6,10.1-8.4,10.1h-3.3v11.7h-6L37.8,151.7z M46.2,166.7
								c2.3,0,3.4-1.8,3.4-5.4c0-3.2-1-5-3.3-5h-2.6v10.4L46.2,166.7z"/>
							<path class="st4" d="M59.3,151.7h15.5v4.7h-9.6v8.1h7.7v4.7h-7.7v9.1h9.6v4.7H59.3V151.7z"/>
							<path class="st4" d="M78.7,151.7h9.2c5.6,0,8.9,2.9,8.9,9.1c0,4.5-1.6,7.1-4.1,8.2l4.5,14h-6.2l-3.7-12.7h-2.5v12.7h-6
								L78.7,151.7z M87.4,166.2c2.1,0,3.3-1.5,3.3-4.9c0-3-1-4.9-3.4-4.9h-2.7v9.8H87.4z"/>
							<path class="st4" d="M100.8,151.7h15.5v4.7h-9.6v8.3h7.7v4.8h-7.7v13.6h-5.9V151.7z"/>
							<path class="st4" d="M119,175.2v-15.7c0-5.4,4.1-8.3,9.4-8.3s9.4,2.6,9.4,8.1v15.8c0,5.7-4.2,8.4-9.5,8.4
								C122.8,183.5,119,180.9,119,175.2z M131.8,175.3v-16.1c0-1.9-1.3-3.1-3.4-3.1c-1.6-0.2-3.1,1-3.3,2.7c0,0.2,0,0.4,0,0.6v16
								c0,1.9,1.5,3.4,3.3,3.4C130.3,178.6,131.8,177.1,131.8,175.3L131.8,175.3z"/>
							<path class="st4" d="M142,151.7h9.2c5.6,0,8.9,2.9,8.9,9.1c0,4.5-1.6,7.1-4.1,8.2l4.5,14h-6.2l-3.7-12.7H148v12.7h-6V151.7z
								 M150.7,166.2c2.1,0,3.3-1.5,3.3-4.9c0-3-1-4.9-3.4-4.9H148v9.8H150.7z"/>
							<path class="st4" d="M164.1,151.7h7.6l4.1,12.7h0.1l4.2-12.7h7.2v31.3h-5.3v-22.7h-0.1l-4.1,13.3h-4.1l-4.2-13.2h-0.1v22.7
								h-5.3L164.1,151.7z"/>
							<path class="st4" d="M197.4,151.7h8.2l6.6,31.4h-6l-1.6-7.6h-7l-1.5,7.6h-5.6L197.4,151.7z M203.6,171l-2.4-13H201l-2.5,13
								H203.6z"/>
							<path class="st4" d="M215.4,151.7h6.2l7.5,18.1h0.1v-18.1h5.3v31.3h-5.4l-8.3-20.1h-0.1v20.1h-5.3L215.4,151.7z"/>
							<path class="st4" d="M238.6,175.6v-16.5c0-5,4.1-7.9,9.4-7.9c5,0,8.7,2.7,8.7,7.3v3.5h-5.4v-2.9c0-1.9-1.2-3-3.3-3
								c-2.3,0-3.3,1.3-3.3,3.2v16.1c0,2.1,1.2,3.3,3.4,3.3s3.2-1.2,3.2-2.9v-2.9h5.4v3.2c0,4.7-3.7,7.5-8.7,7.5
								C242.5,183.5,238.6,180.9,238.6,175.6z"/>
							<path class="st4" d="M260.5,151.7h15.5v4.7h-9.6v8.1h7.6v4.7h-7.6v9.1h9.6v4.7h-15.6V151.7z"/>
						</g>
					</g>
				</g>
			</g>
		</g>
	</g>
</g>
</svg>
