<?xml version="1.0" encoding="utf-8"?>
<!-- Generator: Adobe Illustrator 24.0.3, SVG Export Plug-In . SVG Version: 6.00 Build 0)  -->
<svg version="1.1" id="Layer_1" xmlns="http://www.w3.org/2000/svg" xmlns:xlink="http://www.w3.org/1999/xlink" x="0px" y="0px"
	 viewBox="0 0 300 600" style="enable-background:new 0 0 300 600;" xml:space="preserve">
<style type="text/css">
	.st0{clip-path:url(#SVGID_2_);}
	.st1{clip-path:url(#SVGID_4_);}
	.st2{clip-path:url(#SVGID_6_);}
	.st3{fill:#F57D20;}
	.st4{fill:#FFFFFF;}
</style>
<title>slide3_AU</title>
<g>
	<g id="Layer_1_1_">
		<g>
			<defs>
				<rect id="SVGID_1_" width="300" height="600"/>
			</defs>
			<clipPath id="SVGID_2_">
				<use xlink:href="#SVGID_1_"  style="overflow:visible;"/>
			</clipPath>
			<g class="st0">
				<g>
					<defs>
						<rect id="SVGID_3_" width="300" height="600"/>
					</defs>
					<clipPath id="SVGID_4_">
						<use xlink:href="#SVGID_3_"  style="overflow:visible;"/>
					</clipPath>
					<g class="st1">
						<g id="_2">
							<g>
								<defs>
									<rect id="SVGID_5_" width="300" height="600"/>
								</defs>
								<clipPath id="SVGID_6_">
									<use xlink:href="#SVGID_5_"  style="overflow:visible;"/>
								</clipPath>
								<g class="st2">
									<path class="st3" d="M19.4,264c3.5,0,6.4-2.9,6.4-6.4s-2.9-6.4-6.4-6.4c-3.5,0-6.4,2.9-6.4,6.4c0,3.5,2.8,6.4,6.3,6.4
										C19.4,264,19.4,264,19.4,264"/>
								</g>
							</g>
							<path class="st3" d="M37.9,220.8H44v28h10v5H37.9V220.8z"/>
							<path class="st3" d="M57.6,220.8h6.2v33h-6.2V220.8z"/>
							<path class="st3" d="M68,245.8v-17.3c0-5.2,4.2-8.3,9.7-8.3c5.2,0,9.4,2.7,9.4,7.5v3.5h-5.7v-3.1c0-1.9-1.5-3-3.6-3
								c-1.8-0.2-3.3,1.1-3.5,2.9c0,0.2,0,0.4,0,0.6v17c-0.2,1.8,1.1,3.3,2.9,3.5c0.2,0,0.4,0,0.6,0c2.4,0,3.3-1.3,3.3-3.1v-5.3
								h-3.8v-4.4h9.9v10c0,4.9-3.6,7.9-9.3,7.9S68,251.4,68,245.8z"/>
							<path class="st3" d="M91.4,220.8h6.2v13.6h6.8v-13.6h6.2v33h-6.2v-14.1h-6.8v14.1h-6.2V220.8z"/>
							<path class="st3" d="M120.5,225.7h-6.7v-4.9h19.5v4.9h-6.6v28h-6.3L120.5,225.7z"/>
							<path class="st3" d="M135.3,220.8h6.2l2.9,20.8h0.1l3.4-20.8h6l3.2,20.7h0.1l2.9-20.7h5.5l-5.5,33.1h-5.8l-3.6-22h-0.2
								l-3.7,22h-5.9L135.3,220.8z"/>
							<path class="st3" d="M168.6,220.8h16.1v4.9h-10v8.5h7.9v5h-7.9v9.5h10v5h-16.1V220.8z"/>
							<path class="st3" d="M188.7,220.8h6.2v33h-6.2V220.8z"/>
							<path class="st3" d="M199.1,245.8v-17.3c0-5.2,4.2-8.3,9.7-8.3c5.2,0,9.4,2.7,9.4,7.5v3.5h-5.7v-3.1c0-1.9-1.5-3-3.6-3
								c-1.8-0.2-3.3,1.1-3.5,2.9c0,0.2,0,0.4,0,0.6v17c-0.2,1.8,1.1,3.3,2.9,3.5c0.2,0,0.4,0,0.6,0c2.4,0,3.3-1.3,3.3-3.1v-5.3
								h-3.9v-4.4h9.9v10c0,4.9-3.6,7.9-9.3,7.9S199.1,251.4,199.1,245.8z"/>
							<path class="st3" d="M222.5,220.8h6.2v13.6h6.8v-13.6h6.2v33h-6.2v-14.1h-6.8v14.1h-6.2L222.5,220.8z"/>
							<path class="st3" d="M251.6,225.7h-6.7v-4.9h19.5v4.9h-6.6v28h-6.3V225.7z"/>
							<path class="st4" d="M37.1,283.4c-0.1-4,2.1-7.7,5.6-9.5c-1.4-2.4-2.9-5-2.9-7.7c0-4,2.5-7.6,8-7.6c4.8,0,7.5,2.9,7.5,7.2
								c0,3.8-2.2,7.3-5.5,9.1c0.2,0.5,3.6,5.6,3.8,6.1c0.4-1.5,0.8-3,1-4.5l4.6,0.5c-0.5,3.1-1.5,6.1-2.9,8.9
								c0.3,0.6,3.7,5.6,3.9,6.3h-6.6l-1.7-2.7c-1.7,2.1-4.3,3.3-7,3.3C39.8,292.7,37.1,288.9,37.1,283.4z M49.9,285.7
								c-0.3-0.7-4.5-7.2-4.8-7.9c-1.6,1.1-2.1,3-2.1,5.1c0,2.4,1,4.9,3.5,4.9C47.8,287.7,49.2,287,49.9,285.7z M50.3,265.8
								c0-1.8-0.9-3.1-2.4-3.1c-1.7,0-2.4,1.5-2.4,3s0.8,3.2,2.1,5.5C49.4,270,50.4,268,50.3,265.8L50.3,265.8z"/>
							<path class="st4" d="M70.2,284.3v-17.4c0-5.3,4.2-8.3,9.8-8.3c5.2,0,9,2.9,9,7.7v3.7h-5.6v-3.1c0.1-1.7-1.2-3.1-2.9-3.2
								c-0.2,0-0.3,0-0.5,0c-2.4,0-3.5,1.4-3.5,3.4V284c-0.2,1.7,1.1,3.3,2.8,3.5c0.2,0,0.5,0,0.7,0c1.6,0.2,3.1-1,3.3-2.6
								c0-0.2,0-0.3,0-0.5v-3.1H89v3.4c0,5-3.8,7.9-9.1,7.9C74.2,292.6,70.2,289.8,70.2,284.3z"/>
							<path class="st4" d="M92.6,283.9v-16.6c0-5.7,4.2-8.7,9.8-8.7c5.4,0,9.8,2.7,9.8,8.5v16.6c0,6-4.3,8.8-9.8,8.8
								C96.6,292.6,92.6,289.8,92.6,283.9z M105.9,284v-17c0-2-1.3-3.3-3.5-3.3c-1.7-0.2-3.3,1-3.4,2.8c0,0.2,0,0.4,0,0.6V284
								c0,1.9,1.6,3.5,3.5,3.5S105.9,285.9,105.9,284L105.9,284L105.9,284z"/>
							<path class="st4" d="M116.4,259.1h7.8l4.2,13.4h0.1l4.4-13.4h7.5v33H135v-23.9h-0.1l-4.2,14h-4.2l-4.4-14h-0.1v23.9h-5.5
								L116.4,259.1z"/>
							<path class="st4" d="M145.1,259.1h9.9c5.8,0,8.5,3.6,8.5,9.9c0,6.6-2.7,10.7-8.7,10.7h-3.4v12.4h-6.2L145.1,259.1z
								 M153.9,275c2.4,0,3.6-1.9,3.6-5.7c0-3.4-1-5.2-3.4-5.2h-2.7v11H153.9z"/>
							<path class="st4" d="M171.3,259.1h8.5l6.9,33h-6.3l-1.6-8h-7.2l-1.6,8h-5.8L171.3,259.1z M177.7,279.4l-2.5-13.7h-0.1
								l-2.6,13.7H177.7z"/>
							<path class="st4" d="M189.1,284.3v-17.4c0-5.3,4.2-8.3,9.8-8.3c5.2,0,9,2.9,9,7.7v3.7h-5.6v-3.1c0.1-1.7-1.2-3.1-2.9-3.2
								c-0.2,0-0.3,0-0.5,0c-2.4,0-3.5,1.4-3.5,3.4V284c-0.2,1.7,1.1,3.3,2.8,3.5c0.2,0,0.5,0,0.7,0c1.6,0.2,3.1-1,3.3-2.6
								c0-0.2,0-0.3,0-0.5v-3.1h5.6v3.4c0,5-3.8,7.9-9.1,7.9C193.2,292.6,189.1,289.8,189.1,284.3z"/>
							<path class="st4" d="M216.6,264.1h-6.7v-5h19.6v5h-6.6v28h-6.3V264.1z"/>
						</g>
					</g>
				</g>
			</g>
		</g>
	</g>
</g>
</svg>
