<?xml version="1.0" encoding="utf-8"?>
<!-- Generator: Adobe Illustrator 24.0.3, SVG Export Plug-In . SVG Version: 6.00 Build 0)  -->
<svg version="1.1" id="Layer_1" xmlns="http://www.w3.org/2000/svg" xmlns:xlink="http://www.w3.org/1999/xlink" x="0px" y="0px"
	 viewBox="0 0 300 600" style="enable-background:new 0 0 300 600;" xml:space="preserve">
<style type="text/css">
	.st0{clip-path:url(#SVGID_2_);}
	.st1{clip-path:url(#SVGID_4_);}
	.st2{clip-path:url(#SVGID_6_);}
	.st3{fill:#F57D20;}
	.st4{fill:#FFFFFF;}
</style>
<title>slide5_AU</title>
<g>
	<g id="Layer_1_1_">
		<g>
			<defs>
				<rect id="SVGID_1_" width="300" height="600"/>
			</defs>
			<clipPath id="SVGID_2_">
				<use xlink:href="#SVGID_1_"  style="overflow:visible;"/>
			</clipPath>
			<g class="st0">
				<g>
					<defs>
						<rect id="SVGID_3_" width="300" height="600"/>
					</defs>
					<clipPath id="SVGID_4_">
						<use xlink:href="#SVGID_3_"  style="overflow:visible;"/>
					</clipPath>
					<g class="st1">
						<g id="_4">
							<g>
								<defs>
									<rect id="SVGID_5_" width="300" height="600"/>
								</defs>
								<clipPath id="SVGID_6_">
									<use xlink:href="#SVGID_5_"  style="overflow:visible;"/>
								</clipPath>
								<g class="st2">
									<path class="st3" d="M19.4,439.2c3.5,0,6.4-2.9,6.4-6.4s-2.9-6.4-6.4-6.4c-3.5,0-6.4,2.9-6.4,6.4
										C13,436.3,15.8,439.2,19.4,439.2C19.4,439.2,19.4,439.2,19.4,439.2"/>
								</g>
							</g>
							<path class="st3" d="M122.1,421.7v-6.1c-0.1-2.3,1.6-4.2,3.9-4.4c0.2,0,0.4,0,0.5,0c2.5,0,4.5,1.5,4.5,4.3v6.2
								c0,2.3-1.9,4.2-4.1,4.2c-0.1,0-0.2,0-0.3,0C124.1,425.9,122.1,424.4,122.1,421.7z M128,421.8v-6.5c0.1-0.7-0.5-1.4-1.3-1.4
								c0,0-0.1,0-0.1,0c-0.7,0-1.3,0.5-1.4,1.3c0,0.1,0,0.1,0,0.2v6.5c0,0.8,0.6,1.4,1.4,1.4C127.3,423.2,128,422.6,128,421.8
								C128,421.8,128,421.8,128,421.8z M137.2,411.6h2.5l-11,28.1h-2.5L137.2,411.6z M134.5,436v-6c-0.1-2.4,1.7-4.4,4-4.5
								c0.2,0,0.3,0,0.5,0c2.3-0.2,4.3,1.6,4.5,3.9c0,0.2,0,0.3,0,0.5v6.1c0,2.4-2,4.2-4.3,4.2c-0.1,0-0.1,0-0.2,0
								C136.5,440.1,134.5,438.6,134.5,436z M140.3,436.1v-6.5c0.1-0.7-0.5-1.4-1.2-1.4c-0.1,0-0.1,0-0.2,0c-0.7,0-1.3,0.5-1.3,1.2
								c0,0.1,0,0.1,0,0.2v6.4c0,0.8,0.4,1.5,1.3,1.5c0.7,0,1.3-0.5,1.4-1.3C140.3,436.1,140.3,436.1,140.3,436.1L140.3,436.1z"/>
							<path class="st3" d="M145.2,415.2l0.7-1l-1-0.6l0.4-0.6l0.9,0.5v-1.1h0.7v1.1l1-0.6l0.4,0.6l-1,0.6l0.7,1l-0.6,0.4l-0.7-1
								l-0.7,1L145.2,415.2z"/>
							<path class="st3" d="M37.6,443.9v-2.4h6.6v2.6c0,2.3,1,3.8,3.1,3.8s3.2-1.3,3.2-6.5s-2.3-6.2-4.3-6.2h-2.9V429h3
								c2.5,0,3.8-1.5,3.8-6.2c0-4.4-1.3-5.7-3.1-5.7c-2,0-2.8,1.6-2.8,3.8v2.4h-6.5V421c0-6.3,3.5-10,9.9-10
								c5.8,0,9.4,3.8,9.4,10.8c0,4.6-1.4,8.7-5.1,10v0.3c3.9,1.3,5.7,5.1,5.7,9.7c0,8.5-4.9,12.1-10.1,12.1
								C40.2,453.7,37.6,449.4,37.6,443.9z"/>
							<path class="st3" d="M62,444.7h6.6v8.5H62V444.7z"/>
							<path class="st3" d="M73.4,445.1v-3.3h6.7v2.8c0,1.9,1,3.1,2.9,3.1c2.1,0,3.1-1.5,3.1-3.4v-9.9c-1.4,1.8-3.5,2.8-5.7,2.7
								c-4.7,0-7.4-2.8-7.4-7.2v-9.9c0-5.5,4.1-9.1,10.2-9.1s10.2,3.8,10.2,9.4v23c0,6.3-4.2,10.2-10.2,10.2S73.4,450.3,73.4,445.1z
								 M86.1,428.8v-8.8c0.1-1.7-1.1-3.2-2.8-3.3c-1.7-0.1-3.2,1.1-3.3,2.8c0,0.2,0,0.4,0,0.6v9.3c-0.1,1.5,1,2.8,2.5,2.9
								c0.1,0,0.2,0,0.4,0C84.7,432.1,86.2,430.6,86.1,428.8C86.2,428.8,86.2,428.8,86.1,428.8z"/>
							<path class="st3" d="M98.2,445.1v-3.3h6.7v2.8c0,1.9,1,3.1,2.9,3.1c2.1,0,3.1-1.5,3.1-3.4v-9.9c-1.4,1.8-3.5,2.8-5.7,2.7
								c-4.7,0-7.4-2.8-7.4-7.2v-9.9c0-5.5,4.1-9.1,10.2-9.1s10.2,3.8,10.2,9.4v23c0,6.3-4.2,10.2-10.2,10.2S98.2,450.3,98.2,445.1z
								 M111,428.8v-8.8c0.1-1.7-1.2-3.2-2.9-3.3c-1.7-0.1-3.2,1.2-3.3,2.9c0,0.2,0,0.3,0,0.5v9.3c-0.1,1.5,1,2.8,2.5,2.9
								c0.1,0,0.2,0,0.4,0C109.6,432.2,111,430.7,111,428.8C111,428.8,111,428.8,111,428.8z"/>
							<path class="st4" d="M36.5,467.4v-5.6c0-1.7,1.5-2.7,3.3-2.7s3.1,0.9,3.1,2.5v1.2H41v-1c-0.1-0.6-0.7-1.1-1.3-1
								c-0.5,0.1-0.9,0.5-1,1v5.5c0,0.6,0.4,1.1,1,1.1c0.1,0,0.2,0,0.2,0c0.5,0.1,1.1-0.3,1.1-0.9c0,0,0-0.1,0-0.1v-1h1.9v1.1
								c0,1.6-1.3,2.5-3.1,2.5S36.5,469.2,36.5,467.4z"/>
							<path class="st4" d="M44.1,467.3v-5.3c0-1.8,1.4-2.8,3.3-2.8s3.3,0.9,3.3,2.7v5.3c0,1.9-1.5,2.9-3.3,2.9
								S44.1,469.2,44.1,467.3z M48.7,467.3v-5.5c0-0.6-0.5-1-1.2-1c-0.5-0.1-1.1,0.3-1.2,0.8c0,0.1,0,0.2,0,0.3v5.4
								c0.1,0.7,0.6,1.1,1.3,1.1C48.1,468.3,48.6,467.8,48.7,467.3z"/>
							<path class="st4" d="M52.2,459.3h2.7l1.5,4.3l0,0l1.5-4.3h2.6v10.6h-1.8v-7.7l0,0l-1.4,4.5h-1.5l-1.5-4.5l0,0v7.7h-1.9V459.3
								z"/>
							<path class="st4" d="M62,459.3h3.4c2,0,2.9,1.2,2.9,3.2s-0.9,3.4-3,3.4h-1.2v4H62V459.3z M65,464.4c0.8,0,1.2-0.6,1.2-1.9
								s-0.3-1.7-1.2-1.7h-0.9v3.5H65z"/>
							<path class="st4" d="M70.9,459.3h2.9l2.3,10.6H74l-0.6-2.6H71l-0.5,2.6h-2L70.9,459.3z M73.1,465.8l-0.9-4.4h-0.1l-0.9,4.4
								H73.1z"/>
							<path class="st4" d="M77.3,459.3h3.2c2,0,3.1,1,3.1,3.1c0,1.5-0.6,2.4-1.5,2.8l1.6,4.7h-2.2l-1.3-4.3h-0.9v4.3h-2.1V459.3z
								 M80.4,464.2c0.8,0,1.2-0.5,1.2-1.7c0-1-0.4-1.6-1.2-1.6h-0.9v3.3H80.4z"/>
							<path class="st4" d="M85.1,459.3h2.1v10.6h-2.1V459.3z"/>
							<path class="st4" d="M88.5,467.1l2-0.1c0.1,0.7,0.3,1.5,1.2,1.5c0.6,0,1-0.4,1-1c0,0,0-0.1,0-0.1c0-0.6-0.4-1.1-1.1-1.7
								l-1.2-1.1c-1-0.7-1.6-1.7-1.7-2.9c0-1.4,1-2.6,3-2.6c1.5-0.1,2.8,0.9,2.9,2.4c0,0.2,0,0.3,0,0.5l-1.9,0.1
								c-0.1-0.8-0.3-1.4-1.1-1.4c-0.5-0.1-0.9,0.3-1,0.8c0,0.1,0,0.1,0,0.2c0,0.6,0.6,1.1,1.2,1.6l1.1,1c1,0.7,1.6,1.8,1.7,3
								c0,1.5-1.2,2.8-2.8,2.7c-0.1,0-0.2,0-0.3,0c-1.6,0.1-3-1.1-3.1-2.7C88.5,467.2,88.5,467.2,88.5,467.1z"/>
							<path class="st4" d="M95.9,467.3v-5.3c0-1.8,1.4-2.8,3.3-2.8s3.3,0.9,3.3,2.7v5.3c0,1.9-1.5,2.9-3.3,2.9
								S95.9,469.2,95.9,467.3z M100.4,467.3v-5.5c0-0.6-0.5-1-1.2-1c-0.5-0.1-1.1,0.2-1.2,0.8c0,0.1,0,0.2,0,0.3v5.4
								c0.1,0.7,0.6,1.1,1.3,1.1C99.9,468.3,100.3,467.9,100.4,467.3L100.4,467.3z"/>
							<path class="st4" d="M104,459.3h2.2l2.7,6.1l0,0v-6.1h1.9v10.6h-1.9l-2.9-6.8l0,0v6.8H104V459.3z"/>
							<path class="st4" d="M114.8,459.3h3.2c2,0,3.1,1,3.1,3.1c0,1.5-0.6,2.4-1.5,2.8l1.6,4.7h-2.2l-1.3-4.3h-0.9v4.3h-2.1
								L114.8,459.3z M117.9,464.2c0.8,0,1.2-0.5,1.2-1.7c0-1-0.4-1.6-1.2-1.6h-0.9v3.3H117.9z"/>
							<path class="st4" d="M124.6,459.3h2.9l2.3,10.6h-2.1l-0.6-2.6h-2.5l-0.5,2.6h-2L124.6,459.3z M126.8,465.8l-0.9-4.4l0,0
								l-0.9,4.4H126.8z"/>
							<path class="st4" d="M132.1,460.9h-2.3v-1.6h6.7v1.6h-2.2v9h-2.1V460.9z"/>
							<path class="st4" d="M137.6,459.3h5.5v1.6h-3.4v2.7h2.7v1.6h-2.7v3.1h3.4v1.6h-5.5V459.3z"/>
							<path class="st4" d="M154.8,422.3v-7.6c0-2.6,2.4-4,5.6-4s5.5,1.2,5.5,3.9v7.6c0,2.7-2.5,4-5.6,4
								C157,426.2,154.8,425,154.8,422.3z M162.3,422.3v-7.8c0-0.9-0.8-1.5-2-1.5s-2,0.6-2,1.5v7.7c0,0.9,0.7,1.6,2,1.6
								S162.3,423.2,162.3,422.3L162.3,422.3z"/>
							<path class="st4" d="M168.2,410.9h3.6l4.4,8.7h0.1v-8.7h3.1V426h-3.2l-4.9-9.7h-0.1v9.7h-3.1V410.9z"/>
							<path class="st4" d="M186.2,410.9h6c2.8,0,4.5,1.2,4.5,3.8c0.2,1.7-1,3.2-2.6,3.5v0.1c1.7,0.2,2.9,1.7,2.7,3.4
								c0,2.9-1.8,4.2-4.4,4.2h-6.1L186.2,410.9z M191.2,417.3c1.2,0,1.9-0.7,1.9-2.2s-0.7-2-1.7-2h-1.8v4.2L191.2,417.3z
								 M191.4,423.8c1.1,0,1.8-0.8,1.8-2.2s-0.8-2.1-2-2.1h-1.6v4.4H191.4z"/>
							<path class="st4" d="M198.9,422.3v-7.6c0-2.6,2.4-4,5.6-4s5.5,1.2,5.5,3.9v7.6c0,2.7-2.5,4-5.6,4
								C201.1,426.2,198.9,425,198.9,422.3z M206.4,422.3v-7.8c0-0.9-0.8-1.5-2-1.5s-1.9,0.6-1.9,1.5v7.7c0,0.9,0.7,1.6,2,1.6
								S206.4,423.2,206.4,422.3L206.4,422.3z"/>
							<path class="st4" d="M215.4,410.9h4.8l3.9,15.1h-3.5l-0.9-3.7h-4.1l-0.9,3.7h-3.3L215.4,410.9z M219.1,420.2l-1.4-6.2h-0.1
								l-1.5,6.3L219.1,420.2z"/>
							<path class="st4" d="M227.8,413.2h-3.8v-2.3h11.1v2.3h-3.7V426h-3.6L227.8,413.2z"/>
							<path class="st4" d="M155,429.2h5.6c3.3,0,4.8,1.7,4.8,4.5s-1.5,4.9-4.9,4.9h-2v5.6H155V429.2z M160,436.4c1.3,0,2-0.9,2-2.6
								c0-1.5-0.6-2.4-1.9-2.4h-1.5v5L160,436.4z"/>
							<path class="st4" d="M169.8,429.2h4.8l3.9,15.1h-3.5l-0.9-3.7h-4.1l-0.9,3.7h-3.3L169.8,429.2z M173.4,438.5l-1.4-6.3h-0.1
								l-1.5,6.3H173.4z"/>
							<path class="st4" d="M179.9,440.7v-8c0-2.4,2.4-3.8,5.5-3.8c2.9,0,5.1,1.3,5.1,3.5v1.7h-3.2v-1.4c0-0.9-0.7-1.5-1.9-1.5
								c-1.4,0-2,0.6-2,1.5v7.7c0,1,0.7,1.6,2,1.6s1.9-0.6,1.9-1.4v-1.4h3.2v1.6c0,2.3-2.1,3.6-5.1,3.6
								C182.2,444.5,179.9,443.2,179.9,440.7z"/>
							<path class="st4" d="M192.8,429.2h3.5v6.8l4.1-6.9h3.5l-3.6,5.9l3.7,9.2h-3.8l-2.5-7l-1.4,2v5h-3.5V429.2z"/>
							<path class="st4" d="M209.2,429.2h4.8l3.9,15.1h-3.6l-0.9-3.7h-4.1l-0.9,3.7h-3.3L209.2,429.2z M212.8,438.5l-1.4-6.3h-0.1
								l-1.5,6.3H212.8z"/>
							<path class="st4" d="M219.3,440.6v-7.9c0-2.4,2.4-3.8,5.5-3.8c2.9,0,5.3,1.2,5.3,3.4v1.6h-3.2v-1.4c0-0.9-0.8-1.4-2-1.4
								c-1.3,0-2,0.7-2,1.6v7.8c0,1,0.7,1.6,2,1.6s1.9-0.6,1.9-1.4v-2.4h-2.2v-2h5.6v4.6c0,2.3-2,3.6-5.3,3.6
								S219.3,443.2,219.3,440.6z"/>
							<path class="st4" d="M232.5,429.2h9.1v2.3H236v3.9h4.5v2.3H236v4.4h5.7v2.3h-9.2V429.2z"/>
							<path class="st4" d="M243,440.3l3.3-0.1c0.1,1,0.5,2.1,2,2.1c0.8,0.1,1.5-0.5,1.6-1.3c0-0.1,0-0.2,0-0.3
								c0-0.9-0.7-1.6-1.8-2.4l-2-1.6c-1.7-1.2-2.8-2.5-2.8-4.1c0-2,1.7-3.8,5-3.8c2.4,0,4.6,1,4.8,4.1l-3.1,0.1
								c-0.2-1.2-0.6-2-1.8-2c-0.8-0.1-1.5,0.4-1.6,1.2c0,0.1,0,0.1,0,0.2c0,0.8,1.1,1.6,2,2.4l1.9,1.4c1.8,1.4,2.9,2.7,2.9,4.3
								c0,2.2-1.9,3.9-5.1,3.9S243.2,442.9,243,440.3z"/>
							<path class="st4" d="M154.8,466.4v-7.6c0-2.6,2.4-4,5.6-4s5.5,1.2,5.5,3.9v7.6c0,2.7-2.5,4-5.6,4
								C157,470.4,154.8,469.1,154.8,466.4z M162.3,466.4v-7.8c0-0.9-0.8-1.5-2-1.5s-2,0.6-2,1.5v7.7c0,0.9,0.7,1.6,2,1.6
								S162.3,467.4,162.3,466.4L162.3,466.4z"/>
							<path class="st4" d="M168.2,455.1h5.4c3.3,0,5.2,1.4,5.2,4.4c0,2.2-1,3.4-2.4,4l2.6,6.7h-3.7l-2.2-6.1h-1.5v6.1h-3.5V455.1z
								 M173.4,462.1c1.2,0,1.9-0.7,1.9-2.4c0-1.5-0.6-2.4-2-2.4h-1.6v4.7H173.4z"/>
							<path class="st4" d="M185.3,455.1h5.4c3.3,0,5.2,1.4,5.2,4.4c0,2.2-0.9,3.4-2.4,4l2.6,6.7h-3.7l-2.2-6.1h-1.5v6.1h-3.5V455.1
								z M190.4,462.1c1.3,0,2-0.7,2-2.4c0-1.5-0.6-2.4-2-2.4h-1.6v4.7H190.4z"/>
							<path class="st4" d="M198.3,455.1h9.1v2.3h-5.6v3.9h4.5v2.3h-4.5v4.4h5.7v2.3h-9.2V455.1z"/>
							<path class="st4" d="M209.7,455.1h5.6c3.3,0,4.8,1.7,4.8,4.5c0,3-1.5,4.9-4.9,4.9h-1.9v5.6h-3.5V455.1z M214.7,462.4
								c1.3,0,2-0.9,2-2.6c0-1.5-0.6-2.4-2-2.4h-1.5v5L214.7,462.4z"/>
							<path class="st4" d="M222.1,466.4v-7.6c0-2.6,2.4-4,5.6-4s5.5,1.2,5.5,3.9v7.6c0,2.7-2.4,4-5.6,4
								C224.4,470.4,222.1,469.1,222.1,466.4z M229.6,466.4v-7.8c0-0.9-0.8-1.5-2-1.5s-2,0.6-2,1.5v7.7c0,0.9,0.7,1.6,2,1.6
								S229.6,467.4,229.6,466.4L229.6,466.4z"/>
							<path class="st4" d="M234.5,455.1h3.5l1.6,9.5h0.1l1.9-9.5h3.4l1.8,9.5h0.1l1.6-9.5h3.1l-3.1,15.2h-3.3l-2-10.1h-0.1
								l-2.1,10.1h-3.4L234.5,455.1z"/>
							<path class="st4" d="M253.4,455.1h9.1v2.3h-5.6v3.9h4.5v2.3h-4.5v4.4h5.7v2.3h-9.2V455.1z"/>
							<path class="st4" d="M264.7,455.1h5.4c3.3,0,5.2,1.4,5.2,4.4c0,2.2-1,3.4-2.4,4l2.7,6.7h-3.7l-2.2-6.1h-1.5v6.1h-3.5
								L264.7,455.1z M269.8,462.1c1.3,0,2-0.7,2-2.4c0-1.5-0.6-2.4-2-2.4h-1.6v4.7H269.8z"/>
						</g>
					</g>
				</g>
			</g>
		</g>
	</g>
</g>
</svg>
