<svg id="Layer_1" data-name="Layer 1" xmlns="http://www.w3.org/2000/svg" xmlns:xlink="http://www.w3.org/1999/xlink" viewBox="0 0 300 600"><defs><style>.cls-1{fill:none;}.cls-2{clip-path:url(#clip-path);}.cls-3{fill:#fff;}.cls-4{fill:#f57d20;}</style><clipPath id="clip-path"><rect class="cls-1" width="300" height="600"/></clipPath></defs><title>Artboard 1</title><g class="cls-2"><path class="cls-3" d="M53.85,203.89c0-.49.46-.85,1.07-.85h5.49c.61,0,1.07.36,1.07.85v40.83c0,.49-.46.85-1.07.85H54.92c-.61,0-1.07-.36-1.07-.85Zm16,15.49V210A1.83,1.83,0,0,0,68,208.51H65.67a1,1,0,0,1-1.06-.85v-3.77c0-.49.45-.85,1.06-.85H70a9.05,9.05,0,0,1,5.34,1.76,5.41,5.41,0,0,1,2.21,4.32v10.26a5.51,5.51,0,0,1-2.14,4.26A8.42,8.42,0,0,1,72.54,225l6.64,19.51c.15.55-.23,1.09-1,1.09H72.54a1.2,1.2,0,0,1-1.07-.67l-6.86-20.41v-2.68a1,1,0,0,1,1.06-.85h2.22A2,2,0,0,0,69.87,219.38Z"/><path class="cls-3" d="M85.51,245.57c-.61,0-1.07-.36-1.07-.85V203.89c0-.49.46-.85,1.07-.85h16.93c.61,0,1.07.36,1.07.85v3.77a1,1,0,0,1-1.07.85H92.07V221h8.24a1,1,0,0,1,1.06.85v3.77c0,.49-.45.85-1.06.85H92.07V240.1h10.37a1,1,0,0,1,1.07.85v3.77c0,.49-.46.85-1.07.85Z"/><path class="cls-3" d="M105.87,245.57c-.68,0-1.22-.42-1.06-1l7.78-35.24c.23-.91,2-.91,2.13,0,.46,3.16.69,4.8,2,12.7l-2.06,11.36h2.74a1.07,1.07,0,0,1,1.07.79l.61,3.71c.08.54-.38,1-1.07,1h-4.35l-1.06,6a1,1,0,0,1-1.07.73Zm14.42-20L117.16,204c-.07-.54.38-1,1.07-1h3.28c.46,0,1.07.36,1.07.73l4.5,20.41,4.58,20.42c.15.55-.39,1-1.07,1h-5.65a1.07,1.07,0,0,1-1.06-.73Z"/><path class="cls-3" d="M147.83,245.57c-.61,0-1.07-.36-1.07-.85V241a1.08,1.08,0,0,1,.92-.85,1.79,1.79,0,0,0,1.67-1.52v-7a3.58,3.58,0,0,0-1.9-3l-6.56-3.46c-3.82-2-7.56-4.26-7.56-8.33v-7.65a5.2,5.2,0,0,1,2.29-4.32A8.15,8.15,0,0,1,141,203h1.6c.61,0,1.07.36,1.07.85v3.77a1,1,0,0,1-.91.85c-.92.12-1.76.85-1.76,1.52v5.77a3.38,3.38,0,0,0,1.83,3l6.41,3.28c4.12,2.12,7.78,4.43,7.78,8.63v8.81a5.25,5.25,0,0,1-2.21,4.25,8.74,8.74,0,0,1-5.42,1.82Zm-5.19-5.47c.53.06,1,.43,1,.85v3.77c0,.49-.46.85-1.07.85H141a8.15,8.15,0,0,1-5.34-1.76,5.18,5.18,0,0,1-2.29-4.31v-5.23c0-.49.46-.85,1.07-.85h5.5c.61,0,1.06.36,1.06.85v4.31A1.68,1.68,0,0,0,142.64,240.1Zm5-31.53a1.08,1.08,0,0,1-.92-.85v-3.83c0-.49.46-.85,1.07-.85h1.52a8.74,8.74,0,0,1,5.42,1.82,5.27,5.27,0,0,1,2.21,4.26v5.22c0,.49-.46.85-1.07.85h-5.49c-.61,0-1.07-.36-1.07-.85V210C149.35,209.36,148.59,208.69,147.68,208.57Z"/><path class="cls-3" d="M169.42,203h1.52c.61,0,1.07.36,1.07.85v3.83a1.08,1.08,0,0,1-.92.85c-.91.12-1.67.79-1.67,1.46v28.55a1.79,1.79,0,0,0,1.67,1.52,1.08,1.08,0,0,1,.92.85v3.77c0,.49-.46.85-1.07.85h-1.52a8.74,8.74,0,0,1-5.42-1.82,5.25,5.25,0,0,1-2.21-4.25V209.12a5.27,5.27,0,0,1,2.21-4.26A8.74,8.74,0,0,1,169.42,203Zm8.39,7c0-.67-.84-1.4-1.76-1.52a1.06,1.06,0,0,1-.91-.85v-3.77c0-.49.45-.85,1.06-.85h1.61a8.15,8.15,0,0,1,5.34,1.76,5.19,5.19,0,0,1,2.28,4.32V239.5a5.17,5.17,0,0,1-2.21,4.25,8.06,8.06,0,0,1-5.41,1.82H176.2c-.61,0-1.06-.36-1.06-.85V241c0-.42.45-.79,1-.85a1.68,1.68,0,0,0,1.68-1.52Z"/><path class="cls-3" d="M193.06,245.57c-.61,0-1.06-.36-1.06-.85v-29c0-.91,1.67-1.16,2.05-.31l5,12.46.53,6.74v10.15c0,.49-.45.85-1.06.85Zm24.41-1.15c.23.61-.23,1.15-1,1.15h-5.34a1.2,1.2,0,0,1-1-.54l-17.62-40.84c-.23-.6.23-1.15,1-1.15h5.34a1.19,1.19,0,0,1,1,.55Zm.54-11.3c0,.91-1.68,1.15-2.06.3l-5-12.4-.53-5V203.89c0-.49.46-.85,1.07-.85h5.49c.61,0,1.07.36,1.07.85Z"/><path class="cls-3" d="M238.22,245.57c-.61,0-1.07-.36-1.07-.85V241a1.08,1.08,0,0,1,.92-.85,1.8,1.8,0,0,0,1.68-1.52v-7a3.59,3.59,0,0,0-1.91-3l-6.56-3.46c-3.82-2-7.55-4.26-7.55-8.33v-7.65A5.17,5.17,0,0,1,226,204.8a8.12,8.12,0,0,1,5.34-1.76H233c.61,0,1.07.36,1.07.85v3.77a1,1,0,0,1-.92.85c-.92.12-1.75.85-1.75,1.52v5.77a3.38,3.38,0,0,0,1.83,3l6.4,3.28c4.12,2.12,7.78,4.43,7.78,8.63v8.81a5.25,5.25,0,0,1-2.21,4.25,8.73,8.73,0,0,1-5.41,1.82ZM233,240.1c.54.06,1,.43,1,.85v3.77c0,.49-.46.85-1.07.85h-1.6a8.12,8.12,0,0,1-5.34-1.76,5.15,5.15,0,0,1-2.29-4.31v-5.23c0-.49.46-.85,1.07-.85h5.49c.61,0,1.07.36,1.07.85v4.31A1.67,1.67,0,0,0,233,240.1Zm5-31.53a1.08,1.08,0,0,1-.92-.85v-3.83c0-.49.46-.85,1.07-.85h1.53a8.73,8.73,0,0,1,5.41,1.82,5.27,5.27,0,0,1,2.21,4.26v5.22c0,.49-.45.85-1.06.85h-5.5c-.61,0-1.06-.36-1.06-.85V210C239.75,209.36,239,208.69,238.07,208.57Z"/><path class="cls-3" d="M44.09,297.09a1,1,0,0,1-1.07-.85V260H36.46c-.61,0-1.07-.36-1.07-.85V255.4a1,1,0,0,1,1.07-.85H57.21a1,1,0,0,1,1.06.85v3.77c0,.49-.45.85-1.06.85H50.65v36.22a1,1,0,0,1-1.07.85Z"/><path class="cls-3" d="M68,254.55h1.52a1,1,0,0,1,1.07.85v3.83a1.06,1.06,0,0,1-.91.85c-.92.12-1.68.79-1.68,1.46V290.1a1.79,1.79,0,0,0,1.68,1.52,1.06,1.06,0,0,1,.91.85v3.77a1,1,0,0,1-1.07.85H68a8.71,8.71,0,0,1-5.42-1.83A5.25,5.25,0,0,1,60.41,291V260.63a5.25,5.25,0,0,1,2.21-4.25A8.71,8.71,0,0,1,68,254.55Zm8.39,7c0-.67-.84-1.4-1.76-1.52a1.06,1.06,0,0,1-.91-.85V255.4a1,1,0,0,1,1.07-.85h1.6a8.11,8.11,0,0,1,5.34,1.77,5.18,5.18,0,0,1,2.29,4.31V291a5.18,5.18,0,0,1-2.22,4.25,8,8,0,0,1-5.41,1.83h-1.6a1,1,0,0,1-1.07-.85v-3.77c0-.43.46-.79,1-.85a1.68,1.68,0,0,0,1.68-1.52Z"/><path class="cls-3" d="M107.55,291.62a1.07,1.07,0,0,1,.92.85v3.77a1,1,0,0,1-1.07.85h-1.53a8.88,8.88,0,0,1-5.18-1.64A5.55,5.55,0,0,1,98.25,291V260.63a5.55,5.55,0,0,1,2.13-4.19,8.4,8.4,0,0,1,5.49-1.89h1.53a1,1,0,0,1,1.07.85v3.83a1.07,1.07,0,0,1-.92.85c-.91.12-1.68.79-1.68,1.46V290.1A1.8,1.8,0,0,0,107.55,291.62Zm5-31.6a1.07,1.07,0,0,1-.92-.85V255.4a1,1,0,0,1,1.07-.85h1.6a8.45,8.45,0,0,1,5.5,1.89,5.55,5.55,0,0,1,2.13,4.19v5.23a1,1,0,0,1-1.07.85h-5.49a1,1,0,0,1-1.07-.85v-4.32C114.26,260.87,113.43,260.14,112.51,260Zm.15,37.07a1,1,0,0,1-1.07-.85v-3.77a.94.94,0,0,1,.92-.85c.92-.12,1.75-.79,1.75-1.52v-4.31a1,1,0,0,1,1.07-.86h5.49a1,1,0,0,1,1.07.86V291a5.47,5.47,0,0,1-2.36,4.38,8.84,8.84,0,0,1-5.27,1.7Z"/><path class="cls-3" d="M132.8,254.55a1,1,0,0,1,1.07.85v40.84a1,1,0,0,1-1.07.85h-5.49a1,1,0,0,1-1.07-.85V255.4a1,1,0,0,1,1.07-.85Zm10.53,42.54a1,1,0,0,1-1.07-.85V278h-4.2a1,1,0,0,1-1.06-.85v-3.77c0-.49.45-.85,1.06-.85h4.2V255.4a1,1,0,0,1,1.07-.85h5.49a1,1,0,0,1,1.07.85v40.84a1,1,0,0,1-1.07.85Z"/><path class="cls-3" d="M164.08,254.55h1.52a1,1,0,0,1,1.07.85v3.83a1.07,1.07,0,0,1-.92.85c-.91.12-1.67.79-1.67,1.46V290.1a1.79,1.79,0,0,0,1.67,1.52,1.07,1.07,0,0,1,.92.85v3.77a1,1,0,0,1-1.07.85h-1.52a8.69,8.69,0,0,1-5.42-1.83,5.25,5.25,0,0,1-2.21-4.25V260.63a5.25,5.25,0,0,1,2.21-4.25A8.69,8.69,0,0,1,164.08,254.55Zm8.39,7c0-.67-.84-1.4-1.76-1.52a1.05,1.05,0,0,1-.91-.85V255.4c0-.48.45-.85,1.07-.85h1.6a8.11,8.11,0,0,1,5.34,1.77,5.17,5.17,0,0,1,2.28,4.31V291a5.17,5.17,0,0,1-2.21,4.25,8,8,0,0,1-5.41,1.83h-1.6c-.62,0-1.07-.37-1.07-.85v-3.77c0-.43.45-.79,1-.85a1.68,1.68,0,0,0,1.68-1.52Z"/><path class="cls-3" d="M193.37,254.55h1.52a1,1,0,0,1,1.07.85v3.83a1.06,1.06,0,0,1-.91.85c-.92.12-1.68.79-1.68,1.46V290.1a1.79,1.79,0,0,0,1.68,1.52,1.06,1.06,0,0,1,.91.85v3.77a1,1,0,0,1-1.07.85h-1.52a8.71,8.71,0,0,1-5.42-1.83,5.25,5.25,0,0,1-2.21-4.25V260.63a5.25,5.25,0,0,1,2.21-4.25A8.71,8.71,0,0,1,193.37,254.55Zm8.39,7c0-.67-.84-1.4-1.75-1.52a1.07,1.07,0,0,1-.92-.85V255.4a1,1,0,0,1,1.07-.85h1.6a8.11,8.11,0,0,1,5.34,1.77,5.18,5.18,0,0,1,2.29,4.31V291a5.2,5.2,0,0,1-2.21,4.25,8,8,0,0,1-5.42,1.83h-1.6a1,1,0,0,1-1.07-.85v-3.77c0-.43.46-.79,1-.85a1.68,1.68,0,0,0,1.68-1.52Z"/><path class="cls-3" d="M228.76,297.09a1,1,0,0,1-1.06-.85v-3.77a1.05,1.05,0,0,1,.91-.85,1.79,1.79,0,0,0,1.68-1.52v-7.05a3.61,3.61,0,0,0-1.91-3l-6.56-3.46c-3.81-2-7.55-4.25-7.55-8.32v-7.66a5.15,5.15,0,0,1,2.29-4.31,8.11,8.11,0,0,1,5.34-1.77h1.6a1,1,0,0,1,1.07.85v3.77a1,1,0,0,1-.92.85c-.91.12-1.75.85-1.75,1.52v5.77a3.37,3.37,0,0,0,1.83,3l6.41,3.28c4.12,2.13,7.78,4.44,7.78,8.63V291a5.28,5.28,0,0,1-2.21,4.25,8.73,8.73,0,0,1-5.42,1.83Zm-5.18-5.47c.53.06,1,.42,1,.85v3.77a1,1,0,0,1-1.07.85h-1.6a8.11,8.11,0,0,1-5.34-1.77,5.15,5.15,0,0,1-2.29-4.31v-5.22a1,1,0,0,1,1.07-.86h5.49a1,1,0,0,1,1.07.86v4.31A1.67,1.67,0,0,0,223.58,291.62Zm5-31.54a1.05,1.05,0,0,1-.91-.85V255.4a1,1,0,0,1,1.06-.85h1.53a8.73,8.73,0,0,1,5.42,1.83,5.28,5.28,0,0,1,2.21,4.25v5.23a1,1,0,0,1-1.07.85h-5.49a1,1,0,0,1-1.07-.85v-4.32C230.29,260.87,229.53,260.2,228.61,260.08Z"/><path class="cls-3" d="M244.71,297.09a1,1,0,0,1-1.07-.85V255.4a1,1,0,0,1,1.07-.85h16.93a1,1,0,0,1,1.07.85v3.77c0,.49-.46.85-1.07.85H251.27v12.46h8.23c.61,0,1.07.36,1.07.85v3.77a1,1,0,0,1-1.07.85h-8.23v13.67h10.37c.61,0,1.07.36,1.07.85v3.77a1,1,0,0,1-1.07.85Z"/><path class="cls-3" d="M50.8,348.6c-.61,0-1.07-.36-1.07-.85V320.1c0-.91,1.68-1.09,2.06-.24l4.88,12.52v15.37c0,.49-.46.85-1.07.85Zm14-6.08a1.26,1.26,0,0,1-1-.6L50.11,307.16c-.23-.61.23-1.09,1-1.09h5a1.24,1.24,0,0,1,1,.61l10,25.76h.77l4.5-11.55c.38-.91,2.06-.66,2.06.25v10.75l-4,10a1.26,1.26,0,0,1-1,.6Zm13.88,6.08c-.61,0-1.07-.36-1.07-.85V306.92c0-.49.46-.85,1.07-.85h4.81c.61,0,1.06.36,1.06.85v40.83c0,.49-.45.85-1.06.85Z"/><path class="cls-3" d="M92.91,348.6c-.61,0-1.07-.36-1.07-.85V306.92c0-.49.46-.85,1.07-.85h16.93c.61,0,1.07.36,1.07.85v3.77a1,1,0,0,1-1.07.85H99.47V324h8.23a1,1,0,0,1,1.07.85v3.77c0,.49-.46.85-1.07.85H99.47v13.67h10.37a1,1,0,0,1,1.07.85v3.77c0,.49-.46.85-1.07.85Z"/><path class="cls-3" d="M115.56,306.92c0-.49.46-.85,1.07-.85h5.49c.61,0,1.07.36,1.07.85v40.83c0,.49-.46.85-1.07.85h-5.49c-.61,0-1.07-.36-1.07-.85Zm16,15.49v-9.35a1.83,1.83,0,0,0-1.91-1.52h-2.29a1,1,0,0,1-1.06-.85v-3.77c0-.49.45-.85,1.06-.85h4.28a9.05,9.05,0,0,1,5.34,1.76,5.36,5.36,0,0,1,2.21,4.31v10.27a5.51,5.51,0,0,1-2.14,4.26,8.42,8.42,0,0,1-2.82,1.33l6.64,19.51c.15.54-.23,1.09-1,1.09h-5.64a1.2,1.2,0,0,1-1.07-.67l-6.86-20.41v-2.68a1,1,0,0,1,1.06-.85h2.22A2,2,0,0,0,131.58,322.41Z"/><path class="cls-3" d="M154.62,343.13a1.08,1.08,0,0,1,.91.85v3.77c0,.49-.46.85-1.07.85h-1.52a8.91,8.91,0,0,1-5.19-1.64,5.55,5.55,0,0,1-2.44-4.44V312.14a5.56,5.56,0,0,1,2.14-4.19,8.45,8.45,0,0,1,5.49-1.88h1.52c.61,0,1.07.36,1.07.85v3.83a1.08,1.08,0,0,1-.91.85c-.92.12-1.68.79-1.68,1.46v28.55A1.79,1.79,0,0,0,154.62,343.13Zm5-31.59a1.08,1.08,0,0,1-.92-.85v-3.77c0-.49.46-.85,1.07-.85h1.6a8.45,8.45,0,0,1,5.49,1.88,5.56,5.56,0,0,1,2.14,4.19v5.23c0,.49-.46.85-1.07.85H162.4c-.61,0-1.07-.36-1.07-.85v-4.31C161.33,312.39,160.49,311.66,159.58,311.54Zm.15,37.06c-.61,0-1.07-.36-1.07-.85V344a.94.94,0,0,1,.92-.85c.91-.12,1.75-.79,1.75-1.52V337.3c0-.49.46-.85,1.07-.85h5.49c.61,0,1.07.36,1.07.85v5.22a5.42,5.42,0,0,1-2.37,4.38,8.81,8.81,0,0,1-5.26,1.7Z"/><path class="cls-3" d="M182.61,343.13c.54.06,1,.43,1,.85v3.77c0,.49-.45.85-1.06.85h-1.61a8.73,8.73,0,0,1-5.41-1.82,5.27,5.27,0,0,1-2.21-4.26v-35.6c0-.49.45-.85,1.06-.85h5.5c.61,0,1.06.36,1.06.85v34.69A1.75,1.75,0,0,0,182.61,343.13Zm5.19,5.47c-.61,0-1.07-.36-1.07-.85V344a1.08,1.08,0,0,1,.92-.85c.84-.12,1.67-.73,1.67-1.46V306.92c0-.49.46-.85,1.07-.85h5.49c.61,0,1.07.36,1.07.85v35.6a5.19,5.19,0,0,1-2.21,4.26,8.07,8.07,0,0,1-5.42,1.82Z"/><path class="cls-3" d="M204.05,306.92c0-.49.45-.85,1.07-.85h5.49c.61,0,1.06.36,1.06.85v40.83c0,.49-.45.85-1.06.85h-5.49c-.62,0-1.07-.36-1.07-.85Zm16,15.49v-9.35a1.83,1.83,0,0,0-1.91-1.52h-2.29a1,1,0,0,1-1.07-.85v-3.77c0-.49.46-.85,1.07-.85h4.27a9,9,0,0,1,5.34,1.76,5.36,5.36,0,0,1,2.21,4.31v10.27a5.5,5.5,0,0,1-2.13,4.26,8.42,8.42,0,0,1-2.82,1.33l6.63,19.51c.15.54-.23,1.09-1,1.09h-5.64a1.2,1.2,0,0,1-1.07-.67l-6.87-20.41v-2.68a1,1,0,0,1,1.07-.85h2.21A2,2,0,0,0,220.07,322.41Z"/><path class="cls-3" d="M239.21,348.6c-.61,0-1.07-.36-1.07-.85V329.4c-3-7.41-5.95-14.83-9-22.24-.23-.61.23-1.09,1-1.09h5.34a1.26,1.26,0,0,1,1,.61l9.3,23v18.05c0,.49-.46.85-1.07.85ZM248.37,323a1.13,1.13,0,0,1-2,0l-2.29-5.59,3.66-10.69c.08-.37.62-.61,1.07-.61h5c.76,0,1.22.48,1,1.09Z"/><g class="cls-2"><path class="cls-3" d="M126.92,129.13h12.23a3,3,0,0,1,3.23,2.92v12.89a3,3,0,0,1-3.23,2.91H108.22a3,3,0,0,1-3.23-2.91V131.63l45.94-82.77a4.29,4.29,0,0,1,3-1.66h12.93c2.53,0,4.15,2.08,3,4.16Zm24.93-25.37L168.7,73.4c1.62-2.7,6.23-1.87,6.23,1.25v54.48h12.24a3,3,0,0,1,3.23,2.92v12.89a3,3,0,0,1-3.23,2.91H174.93v21.21A3,3,0,0,1,171.7,172H155.08a3,3,0,0,1-3.23-2.92Z"/></g><polygon class="cls-4" points="91.29 181.08 64.16 181.08 64.16 36.9 91.29 36.9 91.29 45.89 73.15 45.89 73.15 172.09 91.29 172.09 91.29 181.08"/><polygon class="cls-4" points="235.84 181.08 208.71 181.08 208.71 172.09 226.85 172.09 226.85 45.89 208.71 45.89 208.71 36.9 235.84 36.9 235.84 181.08"/></g></svg>