<?xml version="1.0" encoding="utf-8"?>
<!-- Generator: Adobe Illustrator 26.0.3, SVG Export Plug-In . SVG Version: 6.00 Build 0)  -->
<svg version="1.1" id="Layer_1" xmlns="http://www.w3.org/2000/svg" xmlns:xlink="http://www.w3.org/1999/xlink" x="0px" y="0px"
	 viewBox="0 0 300 600" style="enable-background:new 0 0 300 600;" xml:space="preserve">
<style type="text/css">
	.st0{fill:#FFFFFF;}
</style>
<g>
	<g>
		<path class="st0" d="M41.1,62.8c0,6.6-2,9.9-6,9.9h-9.9c-0.8,0-1.3-0.2-1.5-0.7c-0.2-0.5-0.3-1.1-0.2-1.7V38.4
			c0-1.6,0.6-2.4,1.8-2.4h9.9c1.9-0.1,3.7,0.9,4.5,2.7c0.8,2.1,1.1,4.3,1,6.5c0,4.3-1,7.1-3,8.3C40,54.5,41.1,57.5,41.1,62.8z
			 M34.2,46.5c0-0.9-0.1-1.8-0.3-2.7c-0.3-0.8-1.1-1.4-2-1.3h-1.1c-0.4,0-0.7,0.1-0.8,0.2c-0.1,0.3-0.2,0.6-0.1,0.8v5.8
			c0,0.7,0.3,1.1,0.9,1.1h1c0.9,0.1,1.8-0.4,2.1-1.3C34.1,48.3,34.2,47.4,34.2,46.5z M34.5,61.6c0.1-1.3-0.1-2.6-0.7-3.8
			c-0.5-0.6-1.2-0.9-2-0.9h-1.1c-0.4,0-0.7,0.1-0.8,0.3c-0.1,0.2-0.1,0.5-0.1,0.8v7c0,0.7,0.3,1.1,0.9,1.1h1c1,0.1,2-0.5,2.4-1.4
			C34.5,63.7,34.6,62.7,34.5,61.6z"/>
		<path class="st0" d="M60.6,62.2c0,3.5-0.5,6.1-1.5,7.7c-1.4,2.1-3.8,3.2-7.4,3.2s-5.8-0.9-7.1-2.8c-1.1-1.6-1.6-4.2-1.6-7.9V38.4
			c-0.1-0.6,0.1-1.2,0.3-1.8c0.4-0.4,1-0.7,1.6-0.6h2.9c0.7,0,1.2,0.2,1.4,0.6c0.2,0.5,0.3,1.1,0.2,1.6v25.1c0,1.9,0.8,2.9,2.4,2.9
			s2.3-1,2.3-2.9v-25c-0.1-0.6,0.1-1.2,0.3-1.8c0.2-0.3,0.7-0.5,1.4-0.5h3c0.9,0,1.4,0.3,1.6,0.8c0.1,0.5,0.2,1,0.1,1.5L60.6,62.2z"
			/>
		<path class="st0" d="M69.7,70.4c0.1,0.6-0.1,1.2-0.3,1.8c-0.2,0.4-0.7,0.5-1.5,0.5h-2.7c-0.5,0.1-1-0.1-1.5-0.4
			c-0.4-0.6-0.6-1.3-0.5-2V38.5c0-1.7,0.6-2.5,1.8-2.5h3c1.2,0,1.7,0.8,1.7,2.5L69.7,70.4z"/>
		<path class="st0" d="M86.2,70.3c0,1.6-0.7,2.4-2,2.4h-9.9c-0.8,0-1.3-0.2-1.5-0.6c-0.2-0.6-0.3-1.2-0.3-1.8V38.4
			c0-1.6,0.6-2.4,1.8-2.4h2.9c0.6-0.1,1.2,0.2,1.5,0.6c0.2,0.5,0.3,1.1,0.2,1.7V65c0,0.8,0.3,1.2,0.9,1.2h4.5c1.2,0,1.8,0.8,1.8,2.3
			L86.2,70.3z"/>
		<path class="st0" d="M100.1,40.2c0,1.3-0.3,2-1,2.2c-0.2,0.1-0.5,0.1-0.7,0.1h-2.8c-0.5,0-0.7,0.4-0.7,1.1v26.7
			c0.1,0.7-0.1,1.3-0.3,1.9c-0.2,0.3-0.7,0.5-1.4,0.5h-2.9c-1,0-1.6-0.3-1.7-1.1c-0.1-0.4-0.1-0.8-0.1-1.2V43.6
			c0-0.7-0.2-1.1-0.7-1.1h-2.8c-0.4,0-0.9-0.1-1.2-0.3c-0.4-0.6-0.5-1.2-0.4-1.9v-1.9c0-1.2,0.2-2,0.7-2.2C84.2,36,84.6,36,85,36
			h13.4c1.2,0,1.8,0.7,1.8,2.2L100.1,40.2z"/>
		<path class="st0" d="M123.2,40.3c0,1.5-0.6,2.2-1.7,2.2h-5.1c-0.5,0-0.8,0.1-0.9,0.4c-0.1,0.4-0.1,0.7-0.1,1.1v5
			c0,0.7,0.2,1,0.7,1h3.1c0.7,0,1.2,0.2,1.4,0.6c0.2,0.5,0.3,1.1,0.2,1.6v1.9c0,1.6-0.6,2.4-1.7,2.4h-2.7c-0.5,0-0.8,0.1-0.9,0.3
			c-0.1,0.4-0.1,0.7-0.1,1.1v12.5c0,1.5-0.5,2.3-1.6,2.3h-3.1c-0.9,0-1.4-0.3-1.6-0.9c-0.1-0.4-0.2-0.9-0.2-1.4V38.5
			c0-1.3,0.2-2,0.7-2.3c0.4-0.2,0.7-0.2,1.1-0.2h10.4c1.3,0,1.9,0.8,1.9,2.4L123.2,40.3z"/>
		<path class="st0" d="M142.4,71.9c0,0.5-0.3,0.8-1,0.8h-4.3c-0.8,0-1.3-0.5-1.5-1.6l-2.2-13.2c-0.1-0.3-0.3-0.5-0.7-0.5H132
			c-0.4,0-0.6,0.2-0.6,0.5v12.5c0,1.5-0.6,2.3-1.8,2.3h-3c-0.9,0-1.4-0.3-1.6-0.8c-0.1-0.5-0.2-1-0.2-1.6V38.5
			c0-1.7,0.6-2.5,1.9-2.5h7.9c5,0,7.5,3.8,7.5,11.3c0,3.8-1,6.6-3,8.2l3.2,15.6C142.3,71.4,142.4,71.7,142.4,71.9z M135.7,46.5
			c0-2.7-0.6-4-1.9-4h-1.8c-0.5,0-0.7,0.2-0.7,0.8v6.7c0,0.7,0.2,1,0.5,1h1.8C135.1,50.9,135.7,49.4,135.7,46.5z"/>
		<path class="st0" d="M161.3,54.3c0,6.8-0.4,11.3-1.1,13.6c-1.2,3.6-3.8,5.3-7.7,5.3s-6.6-1.8-7.8-5.3c-0.7-2.2-1.1-6.7-1.1-13.6
			s0.4-11.3,1.1-13.4c1.2-3.5,3.8-5.2,7.8-5.2c4,0,6.6,1.7,7.7,5.2C160.9,43,161.3,47.5,161.3,54.3z M154.9,54.3
			c0.1-3.2,0-6.3-0.4-9.5c-0.3-1.5-1-2.2-2.1-2.2s-1.9,0.8-2.1,2.2c-0.3,3.2-0.4,6.3-0.3,9.5c-0.1,3.2,0,6.4,0.4,9.6
			c0.3,1.6,1,2.3,2.1,2.3c1.1,0,1.8-0.8,2.1-2.3C154.8,60.7,154.9,57.5,154.9,54.3z"/>
		<path class="st0" d="M186.4,70.3c0,1.2-0.2,1.9-0.6,2.2c-0.4,0.2-0.8,0.2-1.2,0.2h-2.9c-0.6,0.1-1.1-0.2-1.5-0.6
			c-0.2-0.5-0.3-1.1-0.3-1.7V55.5c0-0.9-0.1-1.3-0.2-1.3s-0.3,0.4-0.5,1.2L177,66.2c-0.1,1-1,1.8-2,1.7c-1,0.1-1.9-0.7-2-1.7
			l-2.2-10.9c-0.2-0.8-0.4-1.2-0.5-1.2s-0.2,0.4-0.2,1.3v14.9c0,0.6,0,1.2-0.3,1.7c-0.2,0.4-0.7,0.6-1.5,0.6h-2.9
			c-1,0-1.6-0.3-1.7-0.9c-0.1-0.5-0.1-1-0.1-1.4V38.3c-0.1-0.6,0.1-1.2,0.3-1.8c0.4-0.4,0.9-0.5,1.4-0.5h3c0.6-0.1,1.2,0,1.8,0.3
			c0.4,0.4,0.6,0.9,0.7,1.4l3.7,13.2c0.1,0.3,0.2,0.5,0.4,0.5s0.4-0.2,0.5-0.5l3.7-13.2c0.1-0.5,0.3-1,0.7-1.4
			c0.5-0.2,1.2-0.3,1.8-0.3h3c0.7,0,1.2,0.2,1.4,0.5c0.3,0.6,0.4,1.2,0.3,1.8L186.4,70.3z"/>
	</g>
</g>
</svg>
