<?xml version="1.0" encoding="utf-8"?>
<!-- Generator: Adobe Illustrator 26.0.3, SVG Export Plug-In . SVG Version: 6.00 Build 0)  -->
<svg version="1.1" id="Layer_1" xmlns="http://www.w3.org/2000/svg" xmlns:xlink="http://www.w3.org/1999/xlink" x="0px" y="0px"
	 viewBox="0 0 300 600" style="enable-background:new 0 0 300 600;" xml:space="preserve">
<style type="text/css">
	.st0{fill:#FFFFFF;}
</style>
<g>
	<g>
		<path class="st0" d="M40.6,101.3c0,6.8-0.4,11.3-1.1,13.6c-1.2,3.6-3.8,5.3-7.7,5.3s-6.6-1.8-7.8-5.3c-0.7-2.2-1.1-6.7-1.1-13.6
			c0-6.8,0.4-11.3,1.1-13.4c1.2-3.5,3.8-5.2,7.8-5.2s6.6,1.7,7.7,5.2C40.3,90,40.6,94.5,40.6,101.3z M34.2,101.3
			c0.1-3.2,0-6.3-0.3-9.5c-0.3-1.5-1-2.2-2.1-2.2s-1.9,0.8-2.1,2.2c-0.3,3.2-0.4,6.3-0.3,9.5c-0.1,3.2,0,6.4,0.4,9.6
			c0.3,1.6,1,2.3,2.1,2.3c1.1,0,1.8-0.8,2.1-2.3C34.2,107.7,34.3,104.5,34.2,101.3z"/>
		<path class="st0" d="M57.2,87.3c0,1.5-0.6,2.2-1.7,2.2h-5c-0.5,0-0.8,0.1-0.9,0.4c-0.1,0.4-0.1,0.7-0.1,1.1v5c0,0.7,0.2,1,0.7,1
			h3.1c0.7,0,1.2,0.2,1.4,0.6c0.2,0.5,0.3,1.1,0.2,1.6v1.9c0,1.6-0.6,2.4-1.7,2.4h-2.7c-0.5,0-0.8,0.1-0.9,0.3
			c-0.1,0.4-0.1,0.7-0.1,1.1v12.5c0,1.5-0.5,2.3-1.6,2.3h-3.1c-0.9,0-1.4-0.3-1.6-0.9c-0.1-0.4-0.2-0.9-0.2-1.4V85.5
			c0-1.3,0.2-2,0.7-2.3c0.4-0.2,0.7-0.2,1.1-0.2h10.4c1.3,0,1.9,0.8,1.9,2.4V87.3z"/>
		<path class="st0" d="M83.4,84.9l-6.1,20.7v11.7c0.1,0.7,0,1.3-0.4,1.9c-0.4,0.3-0.9,0.5-1.4,0.4h-2.9c-0.8,0-1.3-0.2-1.5-0.6
			c-0.2-0.6-0.4-1.2-0.3-1.8v-11.7l-6-20.7c-0.4-1.3,0-1.9,1-1.9h3.7c0.8,0,1.2,0.4,1.4,1.3l2.8,12c0.1,0.4,0.2,0.6,0.4,0.6
			s0.3-0.2,0.4-0.6l2.8-12c0.2-0.9,0.7-1.3,1.4-1.3h3.7C83.5,83,83.8,83.6,83.4,84.9z"/>
		<path class="st0" d="M102.2,101.3c0,6.8-0.4,11.3-1.1,13.6c-1.2,3.6-3.8,5.3-7.7,5.3c-4,0-6.6-1.8-7.8-5.3
			c-0.7-2.2-1.1-6.7-1.1-13.6c0-6.8,0.4-11.3,1.1-13.4c1.2-3.5,3.8-5.2,7.8-5.2c4,0,6.6,1.7,7.7,5.2
			C101.9,90,102.3,94.5,102.2,101.3z M95.8,101.3c0.1-3.2,0-6.3-0.3-9.5c-0.3-1.5-1-2.2-2.1-2.2s-1.9,0.8-2.1,2.2
			c-0.3,3.1-0.4,6.3-0.3,9.5c-0.1,3.2,0,6.4,0.3,9.6c0.3,1.6,1,2.3,2.1,2.3c1.1,0,1.8-0.8,2.1-2.3C95.8,107.7,95.9,104.5,95.8,101.3
			z"/>
		<path class="st0" d="M122,109.2c0,3.5-0.5,6.1-1.5,7.7c-1.4,2.1-3.9,3.2-7.4,3.2c-3.5,0-5.8-0.9-7.1-2.8c-1.1-1.6-1.6-4.2-1.6-7.9
			V85.4c-0.1-0.6,0.1-1.2,0.3-1.8c0.4-0.5,1-0.7,1.6-0.6h2.9c0.7,0,1.2,0.2,1.4,0.6c0.2,0.5,0.3,1.1,0.2,1.6v25.1
			c0,1.9,0.8,2.8,2.4,2.8s2.3-1,2.3-2.9v-25c-0.1-0.6,0.1-1.2,0.3-1.8c0.4-0.4,0.9-0.5,1.4-0.5h3c0.9,0,1.4,0.3,1.6,0.8
			c0.1,0.5,0.2,1,0.1,1.4L122,109.2z"/>
		<path class="st0" d="M142.1,118.9c0,0.5-0.3,0.8-1,0.8h-4.3c-0.8,0-1.3-0.5-1.5-1.6l-2.3-13.2c-0.1-0.3-0.3-0.5-0.7-0.5h-0.8
			c-0.4,0-0.6,0.2-0.6,0.5v12.5c0,1.5-0.6,2.3-1.8,2.3h-3c-0.9,0-1.4-0.3-1.6-0.8c-0.1-0.5-0.2-1-0.2-1.6V85.5
			c0-1.7,0.6-2.5,1.9-2.5h7.9c5,0,7.5,3.8,7.5,11.3c0,3.8-1,6.6-2.9,8.2l3.2,15.6C142,118.4,142.1,118.7,142.1,118.9z M135.4,93.5
			c0-2.7-0.6-4-1.9-4h-1.8c-0.5,0-0.7,0.2-0.7,0.8v6.7c0,0.7,0.2,1,0.5,1h1.8C134.8,97.9,135.4,96.4,135.4,93.5z"/>
		<path class="st0" d="M169.6,84.5l-5.4,33.7c-0.2,1-0.7,1.5-1.5,1.5h-5.8c-0.8,0-1.3-0.5-1.5-1.5l-5.4-33.7c-0.1-1,0.2-1.5,1-1.5
			h4.2c0.8,0,1.3,0.6,1.5,1.8l2.6,20.9c0.1,0.5,0.2,0.8,0.5,0.8s0.4-0.3,0.5-0.8l2.6-20.9c0.2-1.2,0.7-1.8,1.5-1.8h4.2
			C169.4,83,169.7,83.5,169.6,84.5z"/>
		<path class="st0" d="M188,101.3c0,6.8-0.4,11.3-1.1,13.6c-1.2,3.6-3.8,5.3-7.7,5.3c-4,0-6.6-1.8-7.8-5.3
			c-0.7-2.2-1.1-6.7-1.1-13.6c0-6.8,0.4-11.3,1.1-13.4c1.2-3.5,3.8-5.2,7.8-5.2c4,0,6.6,1.7,7.7,5.2C187.6,90,188,94.5,188,101.3z
			 M181.6,101.3c0.1-3.2,0-6.3-0.4-9.5c-0.3-1.5-1-2.2-2.1-2.2s-1.9,0.8-2.1,2.2c-0.3,3.2-0.4,6.3-0.3,9.5c-0.1,3.2,0,6.4,0.4,9.6
			c0.3,1.6,1,2.3,2.1,2.3s1.8-0.8,2.1-2.3C181.6,107.7,181.7,104.5,181.6,101.3L181.6,101.3z"/>
		<path class="st0" d="M204.1,117.3c0,1.6-0.7,2.4-2,2.4h-9.8c-0.8,0-1.3-0.2-1.5-0.6c-0.2-0.6-0.4-1.2-0.3-1.8V85.4
			c0-1.6,0.6-2.4,1.8-2.4h2.9c0.8,0,1.3,0.2,1.5,0.6c0.2,0.5,0.3,1.1,0.3,1.7V112c0,0.8,0.3,1.2,0.9,1.2h4.5c1.2,0,1.9,0.8,1.9,2.3
			L204.1,117.3z"/>
		<path class="st0" d="M221.1,84.5l-5.4,33.7c-0.2,1-0.7,1.5-1.5,1.5h-5.8c-0.8,0-1.3-0.5-1.5-1.5l-5.4-33.7c-0.1-1,0.2-1.5,1-1.5
			h4.2c0.8,0,1.3,0.6,1.5,1.8l2.6,20.9c0.1,0.5,0.2,0.8,0.5,0.8s0.4-0.3,0.5-0.8l2.6-20.9c0.2-1.2,0.7-1.8,1.5-1.8h4.2
			C220.9,83,221.2,83.5,221.1,84.5z"/>
		<path class="st0" d="M239.5,101.3c0,6.8-0.4,11.3-1.1,13.6c-1.2,3.6-3.8,5.3-7.7,5.3c-4,0-6.6-1.8-7.8-5.3
			c-0.7-2.2-1.1-6.7-1.1-13.6c0-6.8,0.4-11.3,1.1-13.4c1.2-3.5,3.8-5.2,7.8-5.2c4,0,6.6,1.7,7.7,5.2
			C239.2,90,239.5,94.5,239.5,101.3z M233.1,101.3c0.1-3.2,0-6.3-0.4-9.5c-0.3-1.5-1-2.2-2.1-2.2s-1.9,0.8-2.1,2.2
			c-0.3,3.2-0.4,6.3-0.3,9.5c-0.1,3.2,0,6.4,0.4,9.6c0.3,1.6,1,2.3,2.1,2.3c1.1,0,1.8-0.8,2.1-2.3
			C233.1,107.7,233.2,104.5,233.1,101.3z"/>
	</g>
</g>
</svg>
