<?xml version="1.0" encoding="utf-8"?>
<!-- Generator: Adobe Illustrator 26.0.3, SVG Export Plug-In . SVG Version: 6.00 Build 0)  -->
<svg version="1.1" id="Layer_1" xmlns="http://www.w3.org/2000/svg" xmlns:xlink="http://www.w3.org/1999/xlink" x="0px" y="0px"
	 viewBox="0 0 300 600" style="enable-background:new 0 0 300 600;" xml:space="preserve">
<style type="text/css">
	.st0{fill:#FFFFFF;}
</style>
<g>
	<g>
		<path class="st0" d="M41.1,156.8c0,6.6-2,9.9-6,9.9h-9.9c-0.8,0-1.3-0.2-1.5-0.7c-0.2-0.5-0.3-1.1-0.2-1.7v-31.9
			c0-1.6,0.6-2.4,1.8-2.4h9.9c1.9-0.1,3.7,0.9,4.5,2.7c0.8,2.1,1.1,4.3,1,6.6c0,4.3-1,7.1-3,8.3C40,148.4,41.1,151.5,41.1,156.8z
			 M34.2,140.5c0-0.9-0.1-1.8-0.3-2.7c-0.3-0.8-1.1-1.4-2-1.3h-1.1c-0.4,0-0.7,0.1-0.8,0.2c-0.1,0.3-0.2,0.6-0.1,0.9v5.8
			c0,0.7,0.3,1.1,0.9,1.1h1c0.9,0.1,1.8-0.4,2.1-1.3C34.1,142.3,34.2,141.4,34.2,140.5z M34.5,155.6c0.1-1.3-0.1-2.6-0.7-3.8
			c-0.5-0.6-1.2-0.9-2-0.9h-1.1c-0.4,0-0.7,0.1-0.8,0.3c-0.1,0.2-0.1,0.5-0.1,0.8v7c0,0.7,0.3,1.1,0.9,1.1h1c1,0.1,2-0.5,2.4-1.4
			C34.5,157.7,34.6,156.7,34.5,155.6z"/>
		<path class="st0" d="M60.5,148.3c0,6.8-0.4,11.3-1.1,13.6c-1.2,3.6-3.8,5.3-7.7,5.3c-4,0-6.6-1.8-7.8-5.3
			c-0.7-2.2-1.1-6.7-1.1-13.6c0-6.8,0.4-11.3,1.1-13.4c1.2-3.5,3.8-5.2,7.8-5.2s6.6,1.7,7.7,5.2C60.1,137,60.5,141.5,60.5,148.3z
			 M54.1,148.3c0.1-3.2,0-6.3-0.3-9.5c-0.3-1.5-1-2.2-2.1-2.2s-1.9,0.8-2.1,2.2c-0.3,3.1-0.4,6.3-0.3,9.5c-0.1,3.2,0,6.4,0.3,9.6
			c0.3,1.6,1,2.3,2.1,2.3c1.1,0,1.8-0.8,2.1-2.3C54,154.7,54.1,151.5,54.1,148.3z"/>
		<path class="st0" d="M80.5,165.9c0,0.5-0.3,0.8-1,0.8h-4.3c-0.8,0-1.3-0.5-1.5-1.6l-2.3-13.2c0-0.3-0.3-0.5-0.7-0.5H70
			c-0.4,0-0.6,0.2-0.6,0.5v12.5c0,1.5-0.6,2.3-1.8,2.3h-3c-0.9,0-1.4-0.3-1.6-0.8c-0.2-0.5-0.2-1-0.2-1.6v-31.9
			c0-1.6,0.6-2.5,1.9-2.5h7.9c5,0,7.5,3.8,7.5,11.3c0,3.8-1,6.6-3,8.2l3.2,15.6C80.4,165.4,80.4,165.7,80.5,165.9z M73.8,140.5
			c0-2.7-0.6-4-1.9-4h-1.8c-0.5,0-0.7,0.2-0.7,0.8v6.7c0,0.7,0.2,1,0.5,1h1.8C73.1,144.9,73.8,143.4,73.8,140.5z"/>
		<path class="st0" d="M99.3,148.3c0,6.8-0.4,11.3-1.1,13.6c-1.2,3.6-3.8,5.3-7.7,5.3c-4,0-6.6-1.8-7.8-5.3
			c-0.7-2.2-1.1-6.7-1.1-13.6c0-6.8,0.4-11.3,1.1-13.4c1.2-3.5,3.8-5.2,7.8-5.2c4,0,6.6,1.7,7.7,5.2C98.9,137,99.3,141.5,99.3,148.3
			z M92.8,148.3c0.1-3.2,0-6.3-0.3-9.5c-0.3-1.5-0.9-2.2-2.1-2.2s-1.9,0.8-2.1,2.2c-0.3,3.2-0.4,6.3-0.3,9.5c-0.1,3.2,0,6.4,0.3,9.6
			c0.3,1.6,1,2.3,2.1,2.3c1.1,0,1.8-0.8,2.1-2.3C92.8,154.7,92.9,151.5,92.8,148.3z"/>
		<path class="st0" d="M120.3,164.2c0.1,0.7-0.1,1.5-0.5,2.1c-0.4,0.3-0.9,0.4-1.4,0.4h-2.5c-0.5,0-1-0.1-1.4-0.3
			c-0.4-0.4-0.6-0.9-0.8-1.4l-4.6-13.7c-0.2-0.5-0.4-0.8-0.6-0.8s-0.3,0.4-0.3,1v12.7c0,1.6-0.6,2.4-1.7,2.4h-2.8
			c-1.3,0-2-0.8-2-2.5v-31.7c-0.1-0.7,0.1-1.5,0.5-2.1c0.4-0.3,0.9-0.4,1.4-0.4h2.5c0.5,0,1,0.1,1.4,0.3c0.4,0.4,0.6,0.9,0.8,1.4
			l4.6,13.6c0.2,0.5,0.4,0.8,0.6,0.8s0.3-0.4,0.3-1v-12.7c0-1.6,0.6-2.4,1.7-2.4h2.9c1.3,0,2,0.8,2,2.5V164.2z"/>
		<path class="st0" d="M145.4,160.8c0,3.9-2,5.9-5.9,5.9h-8.2c-0.5,0.1-1.1-0.1-1.5-0.5c-0.3-0.5-0.4-1.2-0.4-1.8v-1.9
			c0-1.1,0.2-1.8,0.6-2.1c0.4-0.2,0.8-0.3,1.2-0.2h5.7c0.7,0.1,1.4-0.4,1.5-1.1c0-0.1,0-0.2,0-0.4c0-0.4-0.1-0.9-0.3-1.2l-6.2-11.7
			c-1.6-2.8-2.4-5.9-2.5-9.1c0-2.4,0.6-4.2,1.7-5.2s2.8-1.5,5.1-1.4h6.3c1,0,1.5,0.7,1.5,2v2.4c0,1.4-0.6,2.1-1.7,2.1h-4.9
			c-1.1,0-1.7,0.5-1.7,1.6c0,0.6,0.2,1.2,0.5,1.7l5.9,10.8C144.2,154.7,145.3,158.1,145.4,160.8z"/>
		<path class="st0" d="M162.8,134.2c0,1.3-0.3,2-1,2.2c-0.2,0.1-0.5,0.1-0.7,0.1h-2.8c-0.5,0-0.7,0.4-0.7,1.1v26.7
			c0.1,0.7-0.1,1.3-0.3,1.9c-0.2,0.3-0.7,0.5-1.4,0.5h-2.9c-1,0-1.6-0.4-1.7-1.1c-0.1-0.4-0.1-0.8-0.1-1.2v-26.8
			c0-0.7-0.2-1.1-0.7-1.1h-2.8c-0.4,0-0.9-0.1-1.2-0.3c-0.4-0.6-0.5-1.2-0.4-1.9v-1.9c0-1.2,0.2-1.9,0.7-2.2
			c0.4-0.2,0.7-0.2,1.1-0.2H161c1.2,0,1.8,0.7,1.8,2.2L162.8,134.2z"/>
		<path class="st0" d="M179.3,164.3c0,1.6-0.6,2.4-1.9,2.4h-11.2c-0.9,0-1.4-0.2-1.6-0.7c-0.2-0.5-0.3-1.1-0.2-1.7v-31.9
			c0-1.6,0.6-2.4,1.9-2.4h10.9c0.5,0,0.9,0.1,1.3,0.3c0.3,0.3,0.5,0.9,0.5,1.9v2c0,1.2-0.3,1.9-0.8,2.1c-0.3,0.1-0.7,0.2-1,0.2h-5.4
			c-0.5,0-0.8,0.1-0.9,0.4c-0.1,0.3-0.1,0.6-0.1,0.8v5.1c0,0.3,0,0.7,0.1,1c0.1,0.1,0.4,0.2,0.8,0.2h2.7c1.1,0,1.6,0.6,1.6,1.9v2.8
			c0,1.2-0.5,1.8-1.6,1.8h-2.7c-0.3,0-0.6,0-0.8,0.2c-0.1,0.2-0.2,0.4-0.2,0.6v7.7c0,0.8,0.4,1.2,1.1,1.2h5.5c1.3,0,2,0.8,2,2.4
			L179.3,164.3z"/>
		<path class="st0" d="M195.9,164.3c0,1.6-0.6,2.4-1.9,2.4h-11.2c-0.9,0-1.4-0.2-1.6-0.7c-0.2-0.5-0.3-1.1-0.2-1.7v-31.9
			c0-1.6,0.6-2.4,1.9-2.4h10.9c0.5,0,0.9,0.1,1.3,0.3c0.3,0.3,0.5,0.9,0.5,1.9v2c0,1.2-0.3,1.9-0.8,2.1c-0.3,0.1-0.7,0.2-1,0.2h-5.4
			c-0.5,0-0.8,0.1-0.9,0.4c-0.1,0.3-0.1,0.6-0.1,0.8v5.1c0,0.3,0,0.7,0.1,1c0.1,0.1,0.4,0.2,0.8,0.2h2.8c1.1,0,1.6,0.6,1.6,1.9v2.8
			c0,1.2-0.5,1.8-1.6,1.8h-2.7c-0.3,0-0.6,0-0.8,0.2c-0.1,0.2-0.2,0.4-0.2,0.6v7.7c-0.1,0.6,0.3,1.1,0.9,1.2c0.1,0,0.2,0,0.3,0h5.4
			c1.3,0,2,0.8,2,2.4L195.9,164.3z"/>
		<path class="st0" d="M211.1,164.3c0,1.6-0.7,2.4-2,2.4h-9.8c-0.8,0-1.3-0.2-1.5-0.6c-0.2-0.6-0.4-1.2-0.3-1.8v-31.9
			c0-1.6,0.6-2.4,1.8-2.4h2.9c0.8,0,1.3,0.2,1.5,0.6c0.2,0.5,0.3,1.1,0.3,1.7V159c0,0.8,0.3,1.2,0.9,1.2h4.5c1.2,0,1.9,0.8,1.9,2.3
			L211.1,164.3z"/>
	</g>
</g>
</svg>
