<?xml version="1.0" encoding="utf-8"?>
<!-- Generator: Adobe Illustrator 26.0.3, SVG Export Plug-In . SVG Version: 6.00 Build 0)  -->
<svg version="1.1" id="Layer_1" xmlns="http://www.w3.org/2000/svg" xmlns:xlink="http://www.w3.org/1999/xlink" x="0px" y="0px"
	 viewBox="0 0 300 600" style="enable-background:new 0 0 300 600;" xml:space="preserve">
<style type="text/css">
	.st0{fill:#FFFFFF;}
</style>
<g>
	<path class="st0" d="M37.8,87.4c0.1,0.6-0.1,1.2-0.4,1.7c-0.4,0.3-0.9,0.4-1.4,0.4h-4.2c-1-0.1-1.8,0.6-1.9,1.6
		c-0.3,3.4-0.4,6.9-0.3,10.3c0,5.2,0,7.4-0.1,6.8c0.2,3.3,1,5,2.2,5H36c1.2,0,1.8,0.6,1.8,1.9v2.6c0,1.3-0.6,2-1.7,2h-6.6
		c-2.8,0-4.6-1.1-5.4-3.3s-1.2-7-1.2-14.3c0-11.5-0.1-14-0.2-7.6c-0.1-2.7,0.3-5.4,1.2-7.9c0.8-2.2,2.9-3.7,5.2-3.6h6.8
		c1.2,0,1.7,0.6,1.7,1.9V87.4z"/>
	<path class="st0" d="M56.8,109.2c0,3.5-0.5,6.1-1.5,7.7c-1.4,2.1-3.9,3.2-7.4,3.2c-3.5,0-5.8-0.9-7.1-2.8c-1.1-1.6-1.6-4.2-1.6-7.9
		V85.4c-0.1-0.6,0.1-1.2,0.3-1.8c0.4-0.5,1-0.7,1.6-0.6h2.9c0.7,0,1.2,0.2,1.4,0.6c0.2,0.5,0.3,1.1,0.2,1.6v25.1
		c0,1.9,0.8,2.8,2.4,2.8s2.3-1,2.3-2.9v-25c-0.1-0.6,0.1-1.2,0.3-1.8c0.4-0.4,0.9-0.6,1.4-0.5h3c0.9,0,1.4,0.3,1.6,0.8
		c0.1,0.5,0.2,1,0.1,1.4L56.8,109.2z"/>
	<path class="st0" d="M75,87.2c0,1.3-0.3,2-1,2.2c-0.2,0.1-0.5,0.1-0.7,0.1h-2.8c-0.5,0-0.7,0.4-0.7,1.1v26.7
		c0.1,0.7-0.1,1.3-0.3,1.9c-0.2,0.3-0.7,0.5-1.4,0.5h-2.9c-1,0-1.6-0.3-1.7-1.1c-0.1-0.4-0.1-0.8-0.1-1.2V90.6
		c0-0.7-0.2-1.1-0.7-1.1h-2.8c-0.4,0-0.9-0.1-1.2-0.3c-0.4-0.6-0.5-1.2-0.4-1.9v-1.9c0-1.2,0.2-2,0.7-2.2c0.4-0.2,0.7-0.2,1.1-0.2
		h13.4c1.2,0,1.8,0.7,1.8,2.2L75,87.2z"/>
	<path class="st0" d="M92.3,87.2c0,1.3-0.3,2-1,2.2c-0.2,0.1-0.5,0.1-0.7,0.1h-2.8c-0.5,0-0.7,0.4-0.7,1.1v26.7
		c0.1,0.7-0.1,1.3-0.3,1.9c-0.2,0.3-0.7,0.5-1.4,0.5h-2.9c-1,0-1.6-0.3-1.7-1.1c-0.1-0.4-0.1-0.8-0.1-1.2V90.6
		c0-0.7-0.2-1.1-0.7-1.1H77c-0.4,0-0.9-0.1-1.2-0.3c-0.4-0.6-0.5-1.2-0.4-1.9v-1.9c0-1.2,0.2-2,0.7-2.2c0.4-0.2,0.7-0.2,1.1-0.2
		h13.4c1.2,0,1.8,0.7,1.8,2.2V87.2z"/>
	<path class="st0" d="M100.4,117.4c0.1,0.6-0.1,1.2-0.3,1.8c-0.2,0.4-0.7,0.5-1.5,0.5h-2.7c-0.5,0.1-1-0.1-1.4-0.4
		c-0.4-0.6-0.6-1.3-0.5-2V85.5c0-1.7,0.6-2.5,1.8-2.5h3c1.2,0,1.7,0.8,1.7,2.5L100.4,117.4z"/>
	<path class="st0" d="M121.9,117.2c0.1,0.7-0.1,1.5-0.5,2.1c-0.4,0.3-0.9,0.4-1.4,0.4h-2.5c-0.5,0-1,0-1.4-0.3
		c-0.4-0.4-0.6-0.9-0.8-1.4l-4.6-13.7c-0.2-0.5-0.4-0.8-0.6-0.8s-0.3,0.3-0.3,1v12.7c0,1.6-0.6,2.4-1.7,2.4h-2.8c-1.3,0-2-0.8-2-2.5
		V85.4c-0.1-0.7,0.1-1.5,0.5-2.1c0.4-0.3,0.9-0.4,1.4-0.3h2.5c0.5,0,1,0.1,1.4,0.3c0.4,0.4,0.6,0.9,0.8,1.4l4.6,13.6
		c0.2,0.5,0.4,0.8,0.6,0.8s0.3-0.3,0.3-1V85.4c0-1.6,0.6-2.4,1.7-2.4h2.9c1.3,0,2,0.8,2,2.5L121.9,117.2z"/>
	<path class="st0" d="M142.1,108.9c0,3.9-0.5,6.5-1.4,8c-1.2,1.9-3.6,2.8-7.1,2.8c-4.3,0-7.1-1.5-8.2-4.4c-0.8-2-1.2-6.6-1.1-13.8
		c0-7.2,0.3-11.8,0.8-13.8c0.8-3.1,2.6-4.7,5.5-4.7h7.4c0.8,0,1.3,0.2,1.5,0.5c0.3,0.6,0.4,1.2,0.4,1.8V87c0,1.6-0.6,2.4-1.7,2.4
		h-3.9c-0.8-0.1-1.6,0.1-2.4,0.5c-0.5,0.4-0.8,1.5-0.9,3.2c-0.1,1.3-0.1,4.2-0.1,8.5v8c0,2.3,1,3.5,2.9,3.5c1.8,0,2.6-1,2.6-2.9
		v-5.4c0-1-0.2-1.4-0.7-1.4h-1.6c-0.7,0-1-0.6-1-1.7v-2.5c-0.1-0.6,0.1-1.2,0.3-1.7c0.5-0.5,1.1-0.7,1.8-0.5h5.2
		c1.1,0,1.7,0.8,1.7,2.4L142.1,108.9z"/>
	<path class="st0" d="M166.6,117.3c0,1.6-0.6,2.4-1.9,2.4h-11.2c-0.9,0-1.4-0.2-1.6-0.7c-0.2-0.5-0.3-1.1-0.2-1.7V85.4
		c0-1.6,0.6-2.4,1.9-2.4h10.9c0.5,0,0.9,0.1,1.3,0.3c0.3,0.3,0.5,0.9,0.5,1.8v2c0,1.2-0.3,1.9-0.8,2.2c-0.3,0.1-0.7,0.2-1,0.2H159
		c-0.5,0-0.8,0.1-0.9,0.4c-0.1,0.3-0.1,0.6-0.1,0.8v5.1c0,0.3,0,0.7,0.1,1c0.1,0.1,0.4,0.2,0.8,0.2h2.7c1.1,0,1.6,0.6,1.6,1.9v2.8
		c0,1.2-0.5,1.8-1.6,1.8H159c-0.3,0-0.6,0-0.8,0.2c-0.1,0.2-0.2,0.4-0.2,0.7v7.7c0,0.8,0.4,1.2,1.1,1.2h5.5c1.3,0,2,0.8,2,2.4
		L166.6,117.3z"/>
	<path class="st0" d="M186,101.3c0.1,4-0.1,7.9-0.5,11.8c-0.4,2.6-1.1,4.4-2.1,5.3c-0.9,0.8-2.3,1.2-4.4,1.2h-8.9
		c-0.9,0-1.5-0.2-1.7-0.7c-0.2-0.5-0.2-1.1-0.2-1.7V85.5c0-1.7,0.6-2.5,1.8-2.5h9.4c2.6-0.2,5,1.6,5.6,4.1
		C185.7,89.3,186,94.1,186,101.3z M179.4,101.8c0-4.5,0-7.3-0.1-8.6c-0.1-1.7-0.4-2.8-0.8-3.2c-0.6-0.4-1.4-0.6-2.1-0.5
		c-0.5-0.1-1,0-1.5,0.3c-0.2,0.2-0.4,0.6-0.4,1.4v20.6c0,0.7,0.1,1.1,0.3,1.2c0.5,0.2,1.1,0.3,1.7,0.2c0.7,0.1,1.4-0.1,2-0.5
		c0.6-0.9,0.8-1.9,0.8-3C179.4,108.4,179.4,105.8,179.4,101.8L179.4,101.8z"/>
	<path class="st0" d="M205.7,108.9c0,3.9-0.5,6.5-1.4,8c-1.2,1.9-3.6,2.8-7.1,2.8c-4.3,0-7.1-1.5-8.2-4.4c-0.8-2-1.2-6.6-1.1-13.8
		c0-7.2,0.3-11.8,0.8-13.8c0.8-3.1,2.6-4.7,5.4-4.7h7.5c0.8,0,1.3,0.2,1.5,0.5c0.3,0.6,0.4,1.2,0.4,1.8V87c0,1.6-0.6,2.4-1.7,2.4
		h-3.9c-0.8-0.1-1.6,0.1-2.4,0.5c-0.5,0.4-0.8,1.5-0.9,3.2c-0.1,1.3-0.1,4.2-0.1,8.5v8c0,2.3,1,3.5,2.9,3.5c1.8,0,2.7-1,2.7-2.9
		v-5.4c0-1-0.2-1.4-0.7-1.4h-1.6c-0.7,0-1-0.6-1-1.7v-2.5c-0.1-0.6,0.1-1.2,0.3-1.7c0.4-0.5,1.1-0.7,1.7-0.6h5.2
		c1.1,0,1.7,0.8,1.7,2.4L205.7,108.9z"/>
	<path class="st0" d="M222.9,117.3c0,1.6-0.6,2.4-1.9,2.4h-11.2c-0.9,0-1.4-0.2-1.6-0.7c-0.2-0.5-0.3-1.1-0.2-1.7V85.4
		c0-1.6,0.6-2.4,1.9-2.4h10.9c0.4,0,0.9,0.1,1.3,0.3c0.3,0.3,0.5,0.9,0.5,1.8v2c0,1.2-0.3,1.9-0.8,2.2c-0.3,0.1-0.7,0.2-1,0.2h-5.4
		c-0.5,0-0.8,0.1-0.9,0.4c-0.1,0.3-0.1,0.6-0.1,0.8v5.1c0,0.3,0,0.7,0.1,1c0.1,0.1,0.4,0.2,0.8,0.2h2.7c1.1,0,1.6,0.6,1.6,1.9v2.8
		c0,1.2-0.5,1.8-1.6,1.8h-2.7c-0.3,0-0.6,0-0.8,0.2c-0.1,0.2-0.2,0.4-0.2,0.7v7.7c-0.1,0.6,0.3,1.1,0.9,1.2c0.1,0,0.2,0,0.3,0h5.4
		c1.3,0,2,0.8,2,2.4V117.3z"/>
	<path class="st0" d="M239.4,113.8c0,3.9-2,5.9-5.9,5.9h-8.2c-0.5,0.1-1.1-0.1-1.5-0.5c-0.3-0.5-0.4-1.2-0.4-1.8v-1.9
		c0-1.2,0.2-1.8,0.6-2.1c0.4-0.2,0.8-0.3,1.2-0.2h5.7c0.7,0.1,1.4-0.4,1.5-1.1c0-0.1,0-0.2,0-0.4c0-0.4-0.1-0.9-0.3-1.2l-6.2-11.7
		c-1.6-2.8-2.4-5.9-2.5-9.1c0-2.4,0.6-4.2,1.7-5.2c1.1-1,2.8-1.5,5.1-1.5h6.3c1,0,1.5,0.7,1.5,2v2.4c0,1.4-0.6,2.1-1.7,2.1h-4.9
		c-1.1,0-1.7,0.5-1.7,1.6c0,0.6,0.2,1.2,0.5,1.7l5.9,10.8C238.3,107.7,239.4,111.1,239.4,113.8z"/>
</g>
</svg>
