<?xml version="1.0" encoding="utf-8"?>
<!-- Generator: Adobe Illustrator 26.0.3, SVG Export Plug-In . SVG Version: 6.00 Build 0)  -->
<svg version="1.1" id="Layer_1" xmlns="http://www.w3.org/2000/svg" xmlns:xlink="http://www.w3.org/1999/xlink" x="0px" y="0px"
	 viewBox="0 0 300 600" style="enable-background:new 0 0 300 600;" xml:space="preserve">
<style type="text/css">
	.st0{fill:#FFFFFF;}
</style>
<g>
	<g>
		<path class="st0" d="M37.6,181.3c0,1.5-0.6,2.2-1.7,2.2h-5c-0.5,0-0.8,0.1-0.9,0.4c-0.1,0.4-0.1,0.7-0.1,1.1v5c0,0.7,0.2,1,0.7,1
			h3.1c0.7,0,1.2,0.2,1.4,0.6c0.2,0.5,0.3,1.1,0.2,1.6v1.9c0,1.6-0.6,2.4-1.7,2.4h-2.8c-0.5,0-0.8,0.1-0.9,0.4
			c-0.1,0.4-0.1,0.7-0.1,1.1v12.5c0,1.5-0.5,2.3-1.6,2.3h-3.1c-0.9,0-1.4-0.3-1.6-0.9c-0.1-0.4-0.2-0.9-0.2-1.4v-31.9
			c0-1.3,0.2-2,0.7-2.3c0.4-0.2,0.7-0.2,1.1-0.2h10.5c1.3,0,1.9,0.8,1.9,2.4V181.3z"/>
		<path class="st0" d="M56.4,195.3c0,6.8-0.4,11.3-1.1,13.6c-1.2,3.6-3.8,5.3-7.7,5.3c-4,0-6.6-1.8-7.8-5.3
			c-0.7-2.2-1.1-6.7-1.1-13.6c0-6.8,0.4-11.3,1.1-13.4c1.2-3.5,3.8-5.2,7.8-5.2c4,0,6.6,1.7,7.7,5.2C56.1,184,56.4,188.5,56.4,195.3
			z M50,195.3c0.1-3.2,0-6.3-0.3-9.5c-0.3-1.5-1-2.2-2.1-2.2s-1.8,0.8-2.1,2.2c-0.3,3.2-0.4,6.3-0.3,9.5c-0.1,3.2,0,6.4,0.3,9.6
			c0.3,1.6,1,2.3,2.1,2.3s1.8-0.8,2.1-2.3C50,201.7,50.1,198.5,50,195.3L50,195.3z"/>
		<path class="st0" d="M76.4,212.9c0,0.5-0.3,0.8-1,0.8h-4.3c-0.8,0-1.3-0.5-1.5-1.6l-2.2-13.2c-0.1-0.3-0.3-0.5-0.7-0.5h-0.8
			c-0.4,0-0.6,0.2-0.6,0.5v12.5c0,1.5-0.6,2.3-1.8,2.3h-3c-0.8,0-1.4-0.3-1.6-0.8c-0.1-0.5-0.2-1-0.2-1.6v-31.9
			c0-1.6,0.6-2.5,1.9-2.5h7.9c5,0,7.5,3.8,7.5,11.3c0,3.8-1,6.6-3,8.2l3.2,15.6C76.3,212.4,76.4,212.7,76.4,212.9z M69.7,187.5
			c0-2.7-0.6-4-1.9-4h-1.8c-0.5,0-0.7,0.2-0.7,0.8v6.7c0,0.7,0.2,1,0.5,1h1.8C69,191.9,69.7,190.4,69.7,187.5z"/>
		<path class="st0" d="M103.2,195.3c0.1,4-0.1,7.9-0.5,11.8c-0.4,2.6-1.1,4.4-2.1,5.3c-0.9,0.8-2.3,1.2-4.3,1.2h-8.9
			c-0.9,0-1.5-0.2-1.7-0.7c-0.2-0.5-0.2-1.1-0.2-1.7v-31.9c0-1.6,0.6-2.5,1.8-2.5h9.4c2.6-0.2,5,1.6,5.6,4.1
			C102.8,183.3,103.2,188.1,103.2,195.3z M96.6,195.9c0-4.5,0-7.3-0.1-8.6c-0.1-1.7-0.4-2.8-0.8-3.2c-0.6-0.4-1.4-0.6-2.2-0.5
			c-0.5-0.1-1,0-1.5,0.3c-0.2,0.2-0.3,0.6-0.3,1.4v20.6c0,0.7,0.1,1.1,0.3,1.2c0.5,0.2,1.1,0.3,1.7,0.2c0.7,0.1,1.4-0.1,2-0.5
			c0.6-0.9,0.8-1.9,0.8-3C96.6,202.4,96.6,199.8,96.6,195.9z"/>
		<path class="st0" d="M122.8,195.3c0,6.8-0.4,11.3-1.1,13.6c-1.2,3.6-3.8,5.3-7.7,5.3c-4,0-6.6-1.8-7.8-5.3
			c-0.7-2.2-1.1-6.7-1.1-13.6c0-6.8,0.4-11.3,1.1-13.4c1.2-3.5,3.8-5.2,7.8-5.2c4,0,6.6,1.7,7.7,5.2
			C122.4,184,122.8,188.5,122.8,195.3z M116.3,195.3c0.1-3.2,0-6.3-0.3-9.5c-0.3-1.5-1-2.2-2.1-2.2s-1.9,0.8-2.1,2.2
			c-0.3,3.2-0.4,6.3-0.3,9.5c-0.1,3.2,0,6.4,0.3,9.6c0.3,1.6,1,2.3,2.1,2.3c1.1,0,1.8-0.8,2.1-2.3
			C116.3,201.7,116.4,198.5,116.3,195.3z"/>
		<path class="st0" d="M142.5,203.2c0,3.5-0.5,6.1-1.5,7.7c-1.4,2.1-3.9,3.2-7.4,3.2c-3.5,0-5.8-0.9-7.1-2.8
			c-1.1-1.6-1.6-4.2-1.6-7.9v-24.1c0-0.6,0.1-1.2,0.3-1.8c0.4-0.5,1-0.7,1.6-0.6h2.9c0.6-0.1,1.1,0.2,1.4,0.6
			c0.2,0.5,0.3,1.1,0.2,1.6v25.1c0,1.9,0.8,2.9,2.4,2.9s2.3-1,2.3-2.9v-25c-0.1-0.6,0.1-1.2,0.3-1.8c0.2-0.3,0.7-0.5,1.4-0.5h3
			c0.9,0,1.4,0.3,1.6,0.8c0.1,0.5,0.2,1,0.1,1.4L142.5,203.2z"/>
		<path class="st0" d="M162.7,203.8c0,6.6-2,9.9-6,9.9h-9.9c-0.8,0-1.3-0.2-1.5-0.7c-0.2-0.5-0.3-1.1-0.2-1.7v-31.9
			c0-1.6,0.6-2.4,1.8-2.4h9.9c1.9-0.1,3.7,0.9,4.5,2.7c0.8,2.1,1.1,4.3,1,6.6c0,4.3-1,7.1-2.9,8.3
			C161.6,195.4,162.7,198.5,162.7,203.8z M155.8,187.5c0-0.9-0.1-1.8-0.3-2.7c-0.3-0.8-1.1-1.4-2-1.3h-1.1c-0.4,0-0.7,0.1-0.8,0.2
			c-0.1,0.3-0.2,0.6-0.1,0.9v5.8c0,0.7,0.3,1.1,0.9,1.1h1.1c0.9,0.1,1.8-0.4,2.1-1.3C155.8,189.3,155.8,188.4,155.8,187.5z
			 M156.1,202.6c0.1-1.3-0.1-2.6-0.7-3.8c-0.5-0.6-1.2-0.9-2-0.9h-1.1c-0.4,0-0.7,0.1-0.8,0.3c-0.1,0.2-0.1,0.5-0.1,0.8v7
			c0,0.7,0.3,1.1,0.9,1.1h1.1c1,0.1,2-0.5,2.4-1.4C156.1,204.7,156.2,203.7,156.1,202.6z"/>
		<path class="st0" d="M178.6,211.3c0,1.6-0.7,2.4-2.1,2.4h-9.8c-0.8,0-1.3-0.2-1.5-0.6c-0.2-0.6-0.3-1.2-0.3-1.8v-31.9
			c0-1.6,0.6-2.4,1.8-2.4h2.9c0.8,0,1.3,0.2,1.5,0.6c0.2,0.5,0.3,1.1,0.3,1.7V206c0,0.8,0.3,1.2,0.9,1.2h4.5c1.2,0,1.9,0.8,1.9,2.3
			L178.6,211.3z"/>
		<path class="st0" d="M195.1,211.3c0,1.6-0.6,2.4-1.9,2.4H182c-0.9,0-1.4-0.2-1.6-0.7c-0.2-0.5-0.3-1.1-0.2-1.7v-31.9
			c0-1.6,0.6-2.4,1.9-2.4h10.9c0.5,0,0.9,0.1,1.3,0.3c0.3,0.3,0.5,0.9,0.5,1.9v2c0,1.2-0.3,1.9-0.8,2.1c-0.3,0.1-0.7,0.2-1,0.2h-5.4
			c-0.5,0-0.8,0.1-0.9,0.4c-0.1,0.3-0.1,0.6-0.1,0.8v5.1c0,0.3,0,0.7,0.1,1c0.1,0.1,0.4,0.2,0.9,0.2h2.7c1.1,0,1.6,0.6,1.6,1.9v2.8
			c0,1.2-0.5,1.8-1.6,1.8h-2.7c-0.3,0-0.6,0-0.8,0.2c-0.1,0.2-0.2,0.4-0.2,0.6v7.7c-0.1,0.6,0.3,1.1,0.9,1.2c0.1,0,0.2,0,0.3,0h5.4
			c1.3,0,2,0.8,2,2.4L195.1,211.3z"/>
	</g>
</g>
</svg>
