<?xml version="1.0" encoding="utf-8"?>
<!-- Generator: Adobe Illustrator 26.0.3, SVG Export Plug-In . SVG Version: 6.00 Build 0)  -->
<svg version="1.1" id="Layer_1" xmlns="http://www.w3.org/2000/svg" xmlns:xlink="http://www.w3.org/1999/xlink" x="0px" y="0px"
	 viewBox="0 0 300 600" style="enable-background:new 0 0 300 600;" xml:space="preserve">
<style type="text/css">
	.st0{fill:#FFFFFF;}
</style>
<g>
	<g>
		<path class="st0" d="M41,165.9c0,0.5-0.3,0.8-1,0.8h-4.3c-0.8,0-1.3-0.5-1.5-1.6L32,151.9c-0.1-0.3-0.4-0.5-0.7-0.5h-0.8
			c-0.4,0-0.6,0.2-0.6,0.5v12.5c0,1.5-0.6,2.3-1.8,2.3h-2.9c-0.9,0-1.4-0.3-1.6-0.8c-0.1-0.5-0.2-1-0.2-1.6v-31.9
			c0-1.6,0.6-2.5,1.9-2.5h7.9c5,0,7.5,3.8,7.5,11.3c0,3.8-1,6.6-3,8.2l3.2,15.6C41,165.4,41,165.7,41,165.9z M34.3,140.5
			c0-2.7-0.6-4-1.9-4h-1.8c-0.5,0-0.7,0.2-0.7,0.8v6.7c0,0.7,0.2,1,0.5,1h1.8C33.7,144.9,34.3,143.4,34.3,140.5z"/>
		<path class="st0" d="M57.7,164.3c0,1.6-0.6,2.4-1.8,2.4H44.6c-0.9,0-1.4-0.2-1.6-0.7c-0.2-0.5-0.3-1.1-0.2-1.7v-31.9
			c0-1.6,0.6-2.4,1.9-2.4h10.9c0.5,0,0.9,0.1,1.3,0.3c0.3,0.3,0.5,0.9,0.5,1.9v2c0,1.2-0.3,1.9-0.8,2.1c-0.3,0.1-0.7,0.2-1,0.2h-5.3
			c-0.5,0-0.8,0.1-0.9,0.4c-0.1,0.3-0.1,0.6-0.1,0.8v5.1c0,0.3,0,0.7,0.2,1c0.1,0.1,0.4,0.2,0.8,0.2h2.7c1,0,1.6,0.6,1.6,1.9v2.8
			c0,1.2-0.5,1.8-1.6,1.8h-2.7c-0.3,0-0.6,0-0.8,0.2c-0.1,0.2-0.2,0.4-0.2,0.6v7.7c-0.1,0.6,0.3,1.1,0.9,1.2c0.1,0,0.2,0,0.3,0h5.5
			c1.3,0,2,0.8,2,2.4L57.7,164.3z"/>
		<path class="st0" d="M77.7,131.5l-5.4,33.7c-0.2,1-0.7,1.5-1.5,1.5h-5.8c-0.8,0-1.3-0.5-1.5-1.5L58,131.5c-0.1-1,0.2-1.5,1-1.5
			h4.2c0.8,0,1.3,0.6,1.5,1.8l2.6,20.9c0.1,0.5,0.2,0.8,0.5,0.8s0.4-0.3,0.5-0.8l2.7-20.9c0.2-1.2,0.7-1.8,1.5-1.8h4.2
			C77.5,130,77.9,130.5,77.7,131.5z"/>
		<path class="st0" d="M94.2,164.3c0,1.6-0.6,2.4-1.8,2.4H81.2c-0.9,0-1.4-0.2-1.6-0.7c-0.2-0.5-0.3-1.1-0.2-1.7v-31.9
			c0-1.6,0.6-2.4,1.9-2.4H92c0.5,0,0.9,0.1,1.3,0.3c0.3,0.3,0.5,0.9,0.5,1.9v2c0,1.2-0.3,1.9-0.8,2.1c-0.3,0.1-0.7,0.2-1,0.2h-5.3
			c-0.5,0-0.8,0.1-0.9,0.4c-0.1,0.3-0.1,0.6-0.1,0.8v5.1c0,0.3,0,0.7,0.2,1c0.1,0.1,0.4,0.2,0.8,0.2h2.7c1,0,1.6,0.6,1.6,1.9v2.8
			c0,1.2-0.5,1.8-1.6,1.8h-2.7c-0.3,0-0.6,0-0.8,0.2c-0.1,0.2-0.2,0.4-0.2,0.6v7.7c-0.1,0.6,0.3,1.1,0.9,1.2c0.1,0,0.2,0,0.3,0h5.4
			c1.3,0,2,0.8,2,2.4L94.2,164.3z"/>
		<path class="st0" d="M113.4,165.9c0,0.5-0.3,0.8-1,0.8h-4.3c-0.8,0-1.3-0.5-1.5-1.6l-2.3-13.2c0-0.3-0.3-0.5-0.7-0.5H103
			c-0.4,0-0.6,0.2-0.6,0.5v12.5c0,1.5-0.6,2.3-1.8,2.3h-3c-0.9,0-1.4-0.3-1.6-0.8c-0.1-0.5-0.2-1-0.2-1.6v-31.9
			c0-1.6,0.6-2.5,1.9-2.5h7.9c5,0,7.5,3.8,7.5,11.3c0,3.8-1,6.6-3,8.2l3.2,15.6C113.3,165.4,113.4,165.7,113.4,165.9z M106.7,140.5
			c0-2.7-0.6-4-1.9-4h-1.8c-0.5,0-0.7,0.2-0.7,0.8v6.7c0,0.7,0.2,1,0.5,1h1.8C106.1,144.9,106.7,143.4,106.7,140.5z"/>
		<path class="st0" d="M130,160.8c0,3.9-2,5.9-5.9,5.9H116c-0.8,0-1.2-0.2-1.5-0.5c-0.3-0.5-0.4-1.2-0.3-1.8v-1.9
			c0-1.1,0.2-1.8,0.6-2.1c0.4-0.2,0.8-0.3,1.2-0.2h5.7c0.7,0.1,1.4-0.4,1.5-1.1c0-0.1,0-0.2,0-0.4c0-0.4-0.1-0.9-0.3-1.2l-6.2-11.7
			c-1.6-2.8-2.4-5.9-2.5-9.1c0-2.4,0.6-4.2,1.7-5.2c1.1-1,2.8-1.5,5.1-1.4h6.3c1,0,1.5,0.7,1.5,2v2.4c0,1.4-0.6,2.1-1.7,2.1H122
			c-1.1,0-1.7,0.5-1.7,1.6c0,0.6,0.2,1.2,0.5,1.7l5.9,10.9C128.9,154.7,130,158.1,130,160.8z"/>
		<path class="st0" d="M138.2,164.4c0,0.6-0.1,1.2-0.3,1.8c-0.2,0.4-0.8,0.5-1.5,0.5h-2.7c-0.5,0.1-1-0.1-1.5-0.4
			c-0.4-0.6-0.6-1.3-0.5-2v-31.8c0-1.6,0.6-2.5,1.8-2.5h2.9c1.1,0,1.7,0.8,1.7,2.5L138.2,164.4z"/>
		<path class="st0" d="M158.8,156.8c0,6.6-2,9.9-6,9.9h-9.9c-0.8,0-1.3-0.2-1.5-0.7c-0.2-0.5-0.3-1.1-0.2-1.7v-31.9
			c0-1.6,0.6-2.4,1.8-2.4h9.9c1.9-0.1,3.7,0.9,4.5,2.7c0.8,2.1,1.1,4.3,1,6.6c0,4.3-1,7.1-3,8.3
			C157.6,148.4,158.8,151.5,158.8,156.8z M151.8,140.5c0-0.9-0.1-1.8-0.3-2.7c-0.3-0.8-1.1-1.4-2-1.3h-1c-0.4,0-0.7,0.1-0.8,0.2
			c-0.1,0.3-0.2,0.6-0.1,0.9v5.8c0,0.7,0.3,1.1,0.9,1.1h1c0.9,0.1,1.8-0.5,2.1-1.3C151.8,142.3,151.9,141.4,151.8,140.5z
			 M152.2,155.6c0.1-1.3-0.1-2.6-0.7-3.8c-0.5-0.6-1.2-0.9-2-0.9h-1c-0.4,0-0.7,0.1-0.8,0.3c-0.1,0.2-0.1,0.5-0.1,0.8v7
			c0,0.7,0.3,1.1,0.9,1.1h1c1,0.1,2-0.5,2.4-1.4C152.2,157.7,152.3,156.7,152.2,155.6L152.2,155.6z"/>
		<path class="st0" d="M174.6,164.3c0,1.6-0.7,2.4-2,2.4h-9.8c-0.8,0-1.3-0.2-1.5-0.6c-0.2-0.6-0.4-1.2-0.3-1.8v-31.9
			c0-1.6,0.6-2.4,1.8-2.4h2.9c0.8,0,1.3,0.2,1.5,0.6c0.2,0.5,0.3,1.1,0.3,1.7V159c0,0.8,0.3,1.2,0.9,1.2h4.5c1.2,0,1.9,0.8,1.9,2.3
			L174.6,164.3z"/>
		<path class="st0" d="M191.2,164.3c0,1.6-0.6,2.4-1.9,2.4h-11.2c-0.9,0-1.4-0.2-1.6-0.7c-0.2-0.5-0.3-1.1-0.2-1.7v-31.9
			c0-1.6,0.6-2.4,1.9-2.4H189c0.5,0,0.9,0.1,1.3,0.3c0.3,0.3,0.5,0.9,0.5,1.9v2c0,1.2-0.3,1.9-0.8,2.1c-0.3,0.1-0.7,0.2-1,0.2h-5.4
			c-0.5,0-0.8,0.1-0.9,0.4c-0.1,0.3-0.1,0.6-0.1,0.8v5.1c0,0.3,0,0.7,0.1,1c0.1,0.1,0.4,0.2,0.9,0.2h2.7c1.1,0,1.6,0.6,1.6,1.9v2.8
			c0,1.2-0.5,1.8-1.6,1.8h-2.7c-0.3,0-0.6,0-0.8,0.2c-0.1,0.2-0.2,0.4-0.2,0.6v7.7c0,0.8,0.4,1.2,1.1,1.2h5.4c1.3,0,2,0.8,2,2.4
			L191.2,164.3z"/>
	</g>
</g>
</svg>
