<?xml version="1.0" encoding="utf-8"?>
<!-- Generator: Adobe Illustrator 26.0.3, SVG Export Plug-In . SVG Version: 6.00 Build 0)  -->
<svg version="1.1" id="Layer_1" xmlns="http://www.w3.org/2000/svg" xmlns:xlink="http://www.w3.org/1999/xlink" x="0px" y="0px"
	 viewBox="0 0 300 600" style="enable-background:new 0 0 300 600;" xml:space="preserve">
<style type="text/css">
	.st0{fill:#FFFFFF;}
	.st1{clip-path:url(#SVGID_00000139994989128513591170000006891818529269069735_);}
	.st2{clip-path:url(#SVGID_00000161595923817607734610000008823361468672124093_);}
</style>
<g>
	<polygon class="st0" points="176.6,528 176,530.9 178.3,530.9 176.4,540.4 179.8,540.3 181.8,530.9 184.2,530.9 184.8,528 	"/>
	<g>
		<defs>
			<rect id="SVGID_1_" x="146.4" y="527.1" width="129.3" height="13.3"/>
		</defs>
		<clipPath id="SVGID_00000028324216104508121570000018034043184788012468_">
			<use xlink:href="#SVGID_1_"  style="overflow:visible;"/>
		</clipPath>
		<g style="clip-path:url(#SVGID_00000028324216104508121570000018034043184788012468_);">
			<path class="st0" d="M185.4,528h5.2c2.4,0,3.2,1.2,2.7,3.2s-1.4,2.8-2.7,3l0,0c0.6,0,1.2,0.4,1.4,1c0.1,0.7,0.1,1.4-0.1,2.1
				l-0.2,1c-0.1,0.5-0.2,1-0.1,1.5c0,0.2,0.1,0.3,0.3,0.4v0.2h-3.7c-0.1-0.6-0.1-1.2,0.1-1.8c0.1-0.6,0.2-1.2,0.3-1.8
				c0.2-1.1-0.1-1.2-0.7-1.2h-0.6l-1,4.9h-3.5L185.4,528z M187.8,533.2h0.5c0.6,0,1.2-0.3,1.5-1.5c0.2-1-0.2-1.3-1-1.2h-0.4
				L187.8,533.2z"/>
			<path class="st0" d="M199,530.6L199,530.6l-0.3,5.1h-1.6L199,530.6z M197.4,527.9l-5.5,12.4h3.6l0.7-1.9h2.3v1.9h3.6l-0.4-12.4
				L197.4,527.9z"/>
			<polygon class="st0" points="210.8,527.8 209.3,535.4 209.2,535.4 209,527.8 205.3,527.8 202.7,540.2 205.9,540.2 207.4,532.6 
				207.5,532.6 207.8,540.2 211.5,540.2 214.1,527.8 			"/>
			<path class="st0" d="M219.6,530.8c0.1-0.5,0-1-0.6-1c-0.5,0-0.9,0.4-1,0.9c-0.5,2.5,4.9,1.2,4,5.6c-0.6,2.9-2.2,4-5.4,4
				c-2.6,0-3.9-0.9-3.4-3.6l0.1-0.3h3.4l-0.1,0.6c-0.1,0.6,0,1.1,0.6,1.1s1-0.6,1.1-1.1c0.2-0.8-0.1-1-0.5-1.2s-1-0.5-1.5-0.8
				c-1.7-0.9-2.2-1.6-1.8-3.4c0.2-1.3,0.9-2.5,2-3.2c0.9-0.5,1.9-0.8,3-0.8c3.5,0,3.7,1.7,3.3,3.8h-3.2L219.6,530.8z"/>
			<path class="st0" d="M224.8,527.7h5c1.5,0,2.4,0.6,2.8,1.6s0.3,1.6-0.3,4.6c-0.6,2.7-1.4,6.2-5,6.2h-5L224.8,527.7z M226.2,537.6
				h0.7c0.9,0,1.2-1,1.4-1.9l0.7-3.6c0.3-1.2,0.3-1.9-0.8-1.9h-0.5L226.2,537.6z"/>
			<polygon class="st0" points="234.6,527.7 232,540.1 235.5,540 238,527.7 			"/>
			<polygon class="st0" points="239.2,527.7 236.6,540 244.2,540 244.8,537.2 240.7,537.2 241.1,535.1 244.8,535 245.4,532.3 
				241.7,532.4 242.1,530.5 246.1,530.4 246.6,527.6 			"/>
			<path class="st0" d="M252,530.7c0.1-0.5,0-1-0.6-1c-0.5,0-0.9,0.4-1,0.9c-0.5,2.5,4.9,1.2,4,5.6c-0.6,2.9-2.2,4-5.4,4
				c-2.6,0-3.9-0.9-3.4-3.6l0.1-0.3h3.4l-0.1,0.6c-0.1,0.6,0,1.1,0.6,1.1s1-0.6,1.1-1.1c0.2-0.8-0.1-1-0.5-1.2s-1-0.5-1.6-0.8
				c-1.7-0.9-2.2-1.6-1.8-3.4c0.2-1.3,0.9-2.5,2-3.2c0.9-0.5,1.9-0.8,3-0.8c3.5,0,3.7,1.7,3.3,3.8h-3.2L252,530.7z"/>
			<polygon class="st0" points="257.1,527.6 264.6,527.5 264,530.3 260,530.4 259.6,532.3 263.4,532.2 262.8,535 259.1,535 
				258.6,537.1 262.8,537.1 262.2,539.9 254.6,540 			"/>
			<polygon class="st0" points="265.8,527.5 269.3,527.5 267.3,537.1 271.1,537.1 270.5,539.9 263.2,539.9 			"/>
			<path class="st0" d="M274.4,536.8c0.7,0,1.3,0.5,1.4,1.2c0,0.1,0,0.3,0,0.4c-0.2,0.9-1,1.6-2,1.7c-0.7,0-1.3-0.5-1.4-1.2
				c0-0.1,0-0.3,0-0.4C272.6,537.5,273.4,536.9,274.4,536.8 M274.2,537.3c-0.7,0-1.3,0.5-1.4,1.2c-0.2,0.7,0.2,1.2,0.9,1.2
				c0.7,0,1.3-0.5,1.4-1.2C275.3,537.7,274.9,537.3,274.2,537.3 M273.8,538.7L273.8,538.7l-0.2,0.7h-0.4l0.4-1.7h0.7
				c0.4,0,0.7,0.1,0.6,0.5c0,0.3-0.3,0.5-0.5,0.5l0.3,0.7h-0.5L273.8,538.7z M274.1,538.3c0.2,0,0.2-0.1,0.3-0.2s0-0.2-0.2-0.2h-0.3
				l-0.1,0.3H274.1z"/>
			<polygon class="st0" points="270.3,534.1 270.9,534.1 270.6,535 271.5,535 271.3,535.3 269.8,535.3 			"/>
			<polygon class="st0" points="272.2,534.4 271.6,534.4 271.7,534.1 273.5,534.1 273.4,534.4 272.8,534.4 272.5,535.3 271.9,535.3 
							"/>
			<path class="st0" d="M273.8,534.1h0.9c0.4,0,0.8,0.1,0.8,0.5s-0.5,0.7-1.2,0.7h-1L273.8,534.1z M274.1,535h0.3
				c0.4,0,0.5-0.2,0.5-0.4s-0.1-0.2-0.4-0.2h-0.2L274.1,535z"/>
			<path class="st0" d="M166.5,527.1c-3.5,0-6.4,2.9-6.4,6.4c0,1.2,0.4,2.4,1,3.5l4.5-4.5h-2.9v-2.3l7-0.1l0.1,6.8h-2.4v-2.7
				l-4.5,4.5c2.9,1.9,6.9,1.1,8.8-1.8c1.9-2.9,1.1-6.9-1.8-8.8C169,527.4,167.8,527,166.5,527.1"/>
			<path class="st0" d="M152.7,527.1c-3.5,0-6.4,2.9-6.4,6.4c0,1.2,0.4,2.5,1.1,3.5l4.6-4.5h-2.9v-2.3h7l0.1,6.8h-2.5v-2.7l-4.5,4.5
				c2.9,1.9,6.9,1.1,8.8-1.8c1.9-2.9,1.1-6.9-1.8-8.8C155.2,527.5,154,527.1,152.7,527.1"/>
		</g>
	</g>
	<polygon class="st0" points="175.4,543.4 172.9,555.5 267.2,555.5 269.7,543.4 	"/>
	<g>
		<defs>
			<rect id="SVGID_00000041993293890228412040000000644936582846670271_" width="300" height="600"/>
		</defs>
		<clipPath id="SVGID_00000152964032431001323340000002783278855323447703_">
			<use xlink:href="#SVGID_00000041993293890228412040000000644936582846670271_"  style="overflow:visible;"/>
		</clipPath>
		<g style="clip-path:url(#SVGID_00000152964032431001323340000002783278855323447703_);">
			<path d="M255.3,552l0.3-1.3h-1.3L254,552H255.3z M251.1,552l0.3-1.4l0.4-0.6l0.3,2h1.4l-0.6-3.1l1.7-2.5h-1.4l-1.4,2.2l0,0
				l0.5-2.2H251l-1.2,5.6H251.1z M250.1,548.3l0.1-0.5c0.2-1.1-0.3-1.6-1.4-1.6c-1.1-0.1-2,0.7-2.1,1.8l-0.5,2.3
				c-0.2,1.2,0.1,1.8,1.3,1.8c1.1,0.2,2.1-0.6,2.3-1.6l0.1-0.7h-1.3l-0.1,0.5c-0.1,0.3-0.2,0.8-0.7,0.8s-0.4-0.2-0.4-0.5l0.6-2.8
				c0.1-0.4,0.2-0.6,0.6-0.6c0.2,0,0.4,0.2,0.3,0.7l-0.1,0.4L250.1,548.3z M244.4,550h-0.8l0.9-2.5l0,0L244.4,550z M242.9,552.1
				l0.4-1.1h1v1.1h1.3v-5.6H244l-2.5,5.5L242.9,552.1z M239.8,552.1c1,0.1,1.9-0.6,2.1-1.6c0.1-0.7,0.1-1-0.4-1.3l0,0
				c0.5-0.2,0.8-0.7,0.9-1.2c0.2-1.1-0.5-1.5-1.5-1.5h-1.7l-1.2,5.5L239.8,552.1z M240.2,547.5c0.5,0,0.9,0,0.7,0.5s-0.4,0.6-1,0.7
				L240.2,547.5z M239.7,549.7c0.6,0,0.9,0,0.8,0.7s-0.4,0.7-1.1,0.7L239.7,549.7z M234,549.9h0.4c0.3,0,0.4,0.2,0.3,0.6
				s-0.2,0.8-0.2,1.3c0,0.1,0,0.2,0,0.3h1.4V552c0-0.1-0.1-0.1-0.1-0.2c0-0.4,0.2-1.3,0.3-1.8c0.1-0.3-0.1-0.6-0.4-0.7
				c0,0,0,0-0.1,0l0,0c0.5-0.2,0.9-0.7,1-1.3c0.2-1.1-0.2-1.5-1.3-1.5h-1.9l-1.2,5.5h1.3L234,549.9z M234.5,547.5
				c0.6,0,0.9,0,0.8,0.7c-0.1,0.3-0.2,0.7-0.6,0.7h-0.4L234.5,547.5z M228.4,550.5c-0.2,1.2,0.3,1.7,1.4,1.7c1,0.1,2-0.7,2.1-1.7
				l0.9-4.1h-1.3l-0.9,4.2c0,0.3-0.3,0.5-0.6,0.5c-0.4,0-0.4-0.2-0.4-0.5l0.9-4.2h-1.3L228.4,550.5z M228.4,548
				c0.2-1.1-0.3-1.7-1.4-1.7c-1-0.1-2,0.6-2.1,1.7l-0.5,2.3c-0.3,1.3,0.1,1.9,1.4,1.9s1.9-0.7,2.2-1.9L228.4,548z M226.6,550.4
				c-0.1,0.3-0.2,0.8-0.6,0.8s-0.4-0.5-0.3-0.8l0.5-2.3c0.1-0.3,0.2-0.8,0.6-0.8s0.4,0.4,0.3,0.8L226.6,550.4z M222.6,546.5h-1.3
				l0.6,3.3l-0.5,2.4h1.3l0.5-2.4l2.1-3.3H224l-1.1,1.8l0,0L222.6,546.5z M215.8,547.6h1l-1,4.5h1.3l1-4.5h1.1l0.2-1.1H216
				L215.8,547.6z M215.7,548c0.2-1.1-0.3-1.7-1.4-1.7c-1-0.1-2,0.6-2.1,1.7l-0.5,2.3c-0.3,1.3,0.1,1.9,1.4,1.9s1.9-0.7,2.2-1.9
				L215.7,548z M213.9,550.4c-0.1,0.3-0.2,0.8-0.6,0.8s-0.4-0.5-0.3-0.8l0.5-2.3c0.1-0.3,0.2-0.8,0.6-0.8s0.4,0.4,0.3,0.8
				L213.9,550.4z M210.8,552l0.6-3h-1.8l-0.2,1h0.5l-0.1,0.4c-0.1,0.4-0.2,0.7-0.6,0.7s-0.4-0.2-0.4-0.5l0.6-2.8
				c0.1-0.4,0.2-0.6,0.6-0.6s0.4,0.2,0.3,0.7l-0.1,0.3h1.3l0.1-0.4c0.2-1.1-0.3-1.6-1.4-1.6c-1.1-0.1-2,0.7-2.1,1.8l-0.5,2.3
				c-0.2,1,0,1.8,1.1,1.8c0.5,0,1-0.2,1.3-0.6l0,0l-0.1,0.5L210.8,552z M205.1,552l0.2-1.1h-1.8l0.3-1.2h1.6l0.2-1.1h-1.6l0.2-1h1.7
				l0.2-1.1h-3L202,552H205.1z M200.6,552l2.4-5.6h-1.3l-1.5,3.9l0,0l0.1-3.9h-1.3v5.6H200.6z M197.1,548.7c0.7,0,1.3-0.5,1.4-1.1
				l0.3-1.2h-1.2l-0.2,1.2h0.6c0,0.4-0.4,0.7-0.8,0.7L197.1,548.7z M196,552l0.2-1.1h-1.8l0.2-1.2h1.6l0.2-1.1h-1.6l0.2-1h1.7
				l0.2-1.1h-3l-1.2,5.6H196z M191.7,546.4h-1.3l-1.4,4l0,0l0.4-4h-1.3l-0.3,5.7h1.5l1.3-4l0,0l-0.4,4h1.5l2.1-5.6h-1.2l-1.2,3.9
				l0,0L191.7,546.4z"/>
		</g>
	</g>
</g>
</svg>
