<?xml version="1.0" encoding="utf-8"?>
<!-- Generator: Adobe Illustrator 22.1.0, SVG Export Plug-In . SVG Version: 6.00 Build 0)  -->
<svg version="1.1" id="Layer_1" xmlns="http://www.w3.org/2000/svg" xmlns:xlink="http://www.w3.org/1999/xlink" x="0px" y="0px"
	 viewBox="0 0 300 600" style="enable-background:new 0 0 300 600;" xml:space="preserve">
<style type="text/css">
	.st0{fill:#594F77;}
	.st1{fill:#FFFFFF;}
</style>
<g>
	<polygon class="st0" points="16,84.4 16,176.3 282,176.3 282,84.4 16,84.4 	"/>
	<g>
		<path class="st1" d="M89.5,110.8h-26c-1.3,0-2.4,1.1-2.4,2.4v0v9v25.2c0,1.3,1.1,2.4,2.4,2.4h26c1.3,0,2.4-1.1,2.4-2.4v-25.2v-9v0
			C91.9,111.9,90.8,110.8,89.5,110.8L89.5,110.8z M62.6,113.3c0-0.4,0.4-0.8,0.8-0.8h26c0.4,0,0.8,0.4,0.8,0.8v9
			c0,0.4-0.4,0.8-0.8,0.8h-26c-0.4,0-0.8-0.4-0.8-0.8V113.3L62.6,113.3z M89.5,148.3h-26c-0.4,0-0.8-0.4-0.8-0.8v-22.9
			c0.3,0.1,0.5,0.1,0.8,0.1h26c0.3,0,0.6-0.1,0.8-0.1v22.9C90.3,147.9,89.9,148.3,89.5,148.3L89.5,148.3z"/>
		<path class="st1" d="M66.7,121.4h19.5c0.9,0,1.6-0.7,1.6-1.6v-4.1c0-0.9-0.7-1.6-1.6-1.6H66.7c-0.9,0-1.6,0.7-1.6,1.6v4.1
			C65.1,120.7,65.8,121.4,66.7,121.4L66.7,121.4z M66.7,115.7h19.5l0,4.1H66.7V115.7L66.7,115.7z"/>
		<path class="st1" d="M70,126.3h-3.3c-0.9,0-1.6,0.7-1.6,1.6v2.4c0,0.9,0.7,1.6,1.6,1.6H70c0.9,0,1.6-0.7,1.6-1.6v-2.4
			C71.6,127,70.8,126.3,70,126.3L70,126.3z M66.7,130.4v-2.4H70l0,2.4H66.7L66.7,130.4z"/>
		<path class="st1" d="M78.1,126.3h-3.3c-0.9,0-1.6,0.7-1.6,1.6v2.4c0,0.9,0.7,1.6,1.6,1.6h3.3c0.9,0,1.6-0.7,1.6-1.6v-2.4
			C79.7,127,79,126.3,78.1,126.3L78.1,126.3z M74.8,130.4v-2.4h3.3l0,2.4H74.8L74.8,130.4z"/>
		<path class="st1" d="M86.2,126.3H83c-0.9,0-1.6,0.7-1.6,1.6v2.4c0,0.9,0.7,1.6,1.6,1.6h3.3c0.9,0,1.6-0.7,1.6-1.6v-2.4
			C87.9,127,87.1,126.3,86.2,126.3L86.2,126.3z M83,130.4v-2.4h3.3l0,2.4H83L83,130.4z"/>
		<path class="st1" d="M70,133.6h-3.3c-0.9,0-1.6,0.7-1.6,1.6v2.4c0,0.9,0.7,1.6,1.6,1.6H70c0.9,0,1.6-0.7,1.6-1.6v-2.4
			C71.6,134.4,70.8,133.6,70,133.6L70,133.6z M66.7,137.7v-2.4H70l0,2.4H66.7L66.7,137.7z"/>
		<path class="st1" d="M78.1,133.6h-3.3c-0.9,0-1.6,0.7-1.6,1.6v2.4c0,0.9,0.7,1.6,1.6,1.6h3.3c0.9,0,1.6-0.7,1.6-1.6v-2.4
			C79.7,134.4,79,133.6,78.1,133.6L78.1,133.6z M74.8,137.7v-2.4h3.3l0,2.4H74.8L74.8,137.7z"/>
		<path class="st1" d="M86.2,133.6H83c-0.9,0-1.6,0.7-1.6,1.6v2.4c0,0.9,0.7,1.6,1.6,1.6h3.3c0.9,0,1.6-0.7,1.6-1.6v-2.4
			C87.9,134.4,87.1,133.6,86.2,133.6L86.2,133.6z M83,137.7v-2.4h3.3l0,2.4H83L83,137.7z"/>
		<path class="st1" d="M78.1,141h-3.3c-0.9,0-1.6,0.7-1.6,1.6v2.4c0,0.9,0.7,1.6,1.6,1.6h3.3c0.9,0,1.6-0.7,1.6-1.6v-2.4
			C79.7,141.7,79,141,78.1,141L78.1,141z M74.8,145v-2.4h3.3l0,2.4H74.8L74.8,145z"/>
		<path class="st1" d="M70,141h-3.3c-0.9,0-1.6,0.7-1.6,1.6v2.4c0,0.9,0.7,1.6,1.6,1.6H70c0.9,0,1.6-0.7,1.6-1.6v-2.4
			C71.6,141.7,70.8,141,70,141L70,141z M66.7,145v-2.4H70l0,2.4H66.7L66.7,145z"/>
		<path class="st1" d="M86.2,141H83c-0.9,0-1.6,0.7-1.6,1.6v2.4c0,0.9,0.7,1.6,1.6,1.6h3.3c0.9,0,1.6-0.7,1.6-1.6v-2.4
			C87.9,141.7,87.1,141,86.2,141L86.2,141z M83,145v-2.4h3.3l0,2.4H83L83,145z"/>
	</g>
	<g>
		<g>
			<path class="st1" d="M119.2,123.6h4c1.9,0,3.4,0.1,4.5,1.4c0.7,0.8,0.8,1.8,0.8,2.4c0,1.5-0.6,2.8-1.6,3.4
				c-0.9,0.6-2.3,0.6-2.9,0.6H122v5h-2.8V123.6z M121.9,129.4h1.1c0.9,0,2.6,0,2.6-2c0-1.8-1.5-1.8-2.3-1.8h-1.4V129.4z"/>
			<path class="st1" d="M134.8,136.5c-0.1-0.6-0.1-1-0.1-1.2c-1,1.4-2.2,1.4-2.7,1.4c-1.3,0-1.9-0.4-2.3-0.7c-0.5-0.5-0.8-1.3-0.8-2
				c0-0.7,0.3-2,1.9-2.8c1.1-0.5,2.7-0.5,3.6-0.5c0-0.6,0-0.9-0.1-1.2c-0.2-0.7-0.9-0.8-1.2-0.8c-0.4,0-0.8,0.2-1,0.5
				c-0.2,0.3-0.2,0.6-0.2,0.8h-2.6c0-0.5,0.1-1.4,1-2.1c0.8-0.6,1.9-0.7,2.7-0.7c0.8,0,2.3,0.1,3.2,1.2c0.6,0.7,0.6,1.8,0.6,2.2
				l0,3.6c0,0.8,0.1,1.5,0.2,2.3H134.8z M131.5,133.7c0,0.6,0.4,1.3,1.3,1.3c0.5,0,0.9-0.2,1.1-0.5c0.5-0.6,0.5-1.3,0.5-2.2
				C132.8,132.1,131.5,132.6,131.5,133.7z"/>
		</g>
		<g>
			<path class="st1" d="M140.9,127.5l2,6.3l2-6.3h2.6l-3.4,8.9l-1.1,3.6h-2.7l1.1-3.4l-3.5-9.1H140.9z"/>
			<path class="st1" d="M153.9,123.6h2.6v12.9h-2.6V123.6z"/>
			<path class="st1" d="M160.9,132.6c0,0.6,0,2.4,1.8,2.4c0.7,0,1.3-0.3,1.6-1.3h2.4c0,0.4-0.1,1.2-0.9,2c-0.7,0.7-1.8,1.1-3.2,1.1
				c-0.8,0-2.2-0.1-3.2-1.1c-0.8-0.9-1.2-2.1-1.2-3.5c0-1.5,0.4-3.2,1.9-4.3c0.7-0.5,1.6-0.8,2.5-0.8c1.3,0,2.8,0.5,3.6,2.2
				c0.6,1.2,0.6,2.6,0.5,3.3H160.9z M164.3,131c0-0.4,0-2-1.6-2c-1.2,0-1.6,1-1.7,2H164.3z"/>
			<path class="st1" d="M170.6,133.9c0,0.6,0.4,1.2,1.5,1.2c0.9,0,1.4-0.5,1.4-1.1c0-0.4-0.2-0.7-1.3-1l-1.6-0.4
				c-0.7-0.2-2.3-0.7-2.3-2.5c0-1.8,1.6-2.8,4-2.8c1.9,0,3.4,0.9,3.4,2.7h-2.4c-0.1-1-0.9-1.1-1.3-1.1c-0.7,0-1.3,0.3-1.3,0.9
				c0,0.6,0.4,0.7,1.2,0.9l1.6,0.4c1.6,0.4,2.4,1.3,2.4,2.5c0,1.6-1.3,3.1-4.1,3.1c-1.2,0-2.3-0.2-3.1-1.1c-0.6-0.6-0.6-1.3-0.7-1.8
				H170.6z"/>
			<path class="st1" d="M179.5,133.9c0,0.6,0.4,1.2,1.5,1.2c0.9,0,1.4-0.5,1.4-1.1c0-0.4-0.2-0.7-1.3-1l-1.6-0.4
				c-0.7-0.2-2.3-0.7-2.3-2.5c0-1.8,1.6-2.8,4-2.8c1.9,0,3.4,0.9,3.4,2.7h-2.4c-0.1-1-0.9-1.1-1.3-1.1c-0.7,0-1.3,0.3-1.3,0.9
				c0,0.6,0.4,0.7,1.2,0.9l1.6,0.4c1.6,0.4,2.4,1.3,2.4,2.5c0,1.6-1.3,3.1-4.1,3.1c-1.2,0-2.3-0.2-3.1-1.1c-0.6-0.6-0.6-1.3-0.7-1.8
				H179.5z"/>
			<path class="st1" d="M196.9,136.4c-0.9,0.2-1.6,0.3-2.1,0.3c-2.7,0-2.7-1.7-2.7-2.4v-5h-1.7v-1.8h1.7v-1.8l2.6-1v2.7h2.1v1.8
				h-2.1v4.1c0,0.8,0,1.3,1.2,1.3c0.4,0,0.6,0,0.9-0.1V136.4z"/>
			<path class="st1" d="M203.9,136.5c-0.1-0.6-0.1-1-0.1-1.2c-1,1.4-2.2,1.4-2.7,1.4c-1.3,0-1.9-0.4-2.3-0.7c-0.5-0.5-0.8-1.3-0.8-2
				c0-0.7,0.3-2,1.9-2.8c1.1-0.5,2.7-0.5,3.6-0.5c0-0.6,0-0.9-0.1-1.2c-0.2-0.7-0.9-0.8-1.2-0.8c-0.4,0-0.8,0.2-1,0.5
				c-0.2,0.3-0.2,0.6-0.2,0.8h-2.6c0-0.5,0.1-1.4,1-2.1c0.8-0.6,1.9-0.7,2.7-0.7c0.8,0,2.3,0.1,3.2,1.2c0.6,0.7,0.6,1.8,0.6,2.2
				l0,3.6c0,0.8,0.1,1.5,0.2,2.3H203.9z M200.7,133.7c0,0.6,0.4,1.3,1.3,1.3c0.5,0,0.9-0.2,1.1-0.5c0.5-0.6,0.5-1.3,0.5-2.2
				C201.9,132.1,200.7,132.6,200.7,133.7z"/>
			<path class="st1" d="M210.7,127.5l1.7,2.9l1.8-2.9h2.8l-2.9,4.4l3,4.6h-3.1l-1.8-3.3l-1.8,3.3h-2.8l3-4.8l-2.9-4.2H210.7z"/>
		</g>
	</g>
</g>
</svg>
