<?xml version="1.0" encoding="utf-8"?>
<!-- Generator: Adobe Illustrator 22.1.0, SVG Export Plug-In . SVG Version: 6.00 Build 0)  -->
<svg version="1.1" id="Layer_1" xmlns="http://www.w3.org/2000/svg" xmlns:xlink="http://www.w3.org/1999/xlink" x="0px" y="0px"
	 viewBox="0 0 300 600" style="enable-background:new 0 0 300 600;" xml:space="preserve">
<style type="text/css">
	.st0{fill:#8B608F;}
	.st1{fill:#FFFFFF;}
</style>
<g>
	<polygon class="st0" points="16,287.3 16,379.2 282,379.2 282,287.3 16,287.3 	"/>
	<path class="st1" d="M59.1,348.8l8.7-14.1c0.3,0.1,0.6,0.2,1,0.2c0.8,0,1.6-0.3,2.1-0.9l5.5,3.7c-0.2,0.5-0.3,1.1-0.2,1.6
		c0.2,1.2,1.2,2.2,2.4,2.4c0.1,0,0.3,0,0.4,0c0.8,0,1.7-0.4,2.2-1c0.5-0.6,0.8-1.5,0.7-2.3c0-0.4-0.2-0.9-0.5-1.3l7-11
		c0.1,0,0.3,0.1,0.4,0.1c0.1,0,0.3,0,0.4,0c0.8,0,1.7-0.4,2.2-1c0.5-0.6,0.8-1.5,0.7-2.3c-0.2-1.2-1.2-2.2-2.4-2.4
		c-1-0.1-2,0.2-2.6,1c-0.5,0.6-0.8,1.5-0.7,2.3c0.1,0.6,0.3,1.1,0.7,1.5l-7,10.8c-0.2-0.1-0.5-0.2-0.7-0.2c-0.8-0.1-1.6,0.1-2.2,0.5
		l-5.7-3.8c0-0.2,0.1-0.4,0.1-0.7c0-1.6-1.3-2.9-2.9-2.9c-1.6,0-2.9,1.3-2.9,2.9c0,0.7,0.2,1.4,0.7,1.8l-7.8,12.7v-31.9h-2.9v37
		h37.5v-2.9H59.1L59.1,348.8z M90.3,324.4c-0.3,0.4-0.8,0.5-1.3,0.5c-0.6-0.1-1.1-0.6-1.2-1.2c0-0.2,0-0.4,0-0.5
		c0-0.2,0.1-0.4,0.3-0.6c0.2-0.2,0.4-0.4,0.7-0.4c0.1,0,0.2,0,0.3,0c0.1,0,0.1,0,0.2,0c0,0,0.1,0,0.1,0c0.5,0.1,0.9,0.6,1,1.1l0,0
		C90.7,323.7,90.6,324.1,90.3,324.4L90.3,324.4z M79.2,337.5c0,0,0.1,0,0.1,0c0.5,0.1,0.9,0.6,1,1.1l0,0c0,0.4,0,0.8-0.3,1.2
		c-0.3,0.4-0.8,0.5-1.3,0.5c-0.6-0.1-1.1-0.6-1.2-1.2c0-0.2,0-0.4,0-0.5c0-0.2,0.1-0.4,0.3-0.6c0.2-0.2,0.4-0.4,0.7-0.4
		c0.1,0,0.2,0,0.3,0C79.1,337.5,79.1,337.5,79.2,337.5L79.2,337.5z M67.3,332c0-0.8,0.6-1.4,1.4-1.4c0.7,0,1.3,0.5,1.4,1.2
		c0,0.1,0,0.1,0,0.2c0,0.5-0.2,0.9-0.6,1.1c-0.2,0.2-0.5,0.3-0.8,0.3c0,0-0.1,0-0.2,0c-0.5-0.1-1-0.4-1.1-0.9
		C67.4,332.4,67.3,332.2,67.3,332L67.3,332z"/>
	<g>
		<g>
			<path class="st1" d="M119.2,326.8h4.8c0.8,0,2.2,0,3.2,0.6c1.2,0.8,1.4,2,1.4,2.8c0,0.5-0.1,1.3-0.8,1.9
				c-0.1,0.1-0.7,0.7-1.5,0.9v0c2,0.4,2.7,1.8,2.7,3.1c0,1.5-0.9,2.5-1.9,3c-1,0.5-2.8,0.5-3.3,0.5h-4.8V326.8z M121.8,332.1h1.9
				c0.8,0,2.2,0,2.2-1.7c0-1.6-1.4-1.6-2.3-1.6h-1.9V332.1z M121.8,337.6h1.9c1.3,0,2.7,0,2.7-1.7c0-1.8-1.7-1.8-3-1.8h-1.6V337.6z"
				/>
			<path class="st1" d="M133.6,330.7v5.4c0,0.8,0,2,1.4,2c1.7,0,1.7-1.3,1.7-2.8v-4.6h2.7v6c0,1.9,0.1,2.2,0.1,2.4
				c0,0.3,0,0.4,0.1,0.7H137l-0.1-1.2c-0.3,0.4-0.9,1.4-2.7,1.4c-1.2,0-2.2-0.6-2.7-1.2c-0.6-0.7-0.6-2-0.6-2.4v-5.6H133.6z"/>
			<path class="st1" d="M141.9,326.8h2.8v2.3h-2.8V326.8z M142,330.7h2.6v9H142V330.7z"/>
			<path class="st1" d="M146.9,326.8h2.6v12.9h-2.6V326.8z"/>
			<path class="st1" d="M157.9,326.8h2.7v11.4c0,0.5,0,1.1,0.1,1.5h-2.7l-0.1-1.3c-0.2,0.3-0.4,0.7-0.9,1c-0.7,0.4-1.4,0.5-1.8,0.5
				c-2.4,0-3.8-1.7-3.8-4.5c0-3,1.6-4.8,4-4.8c1.6,0,2.3,0.9,2.5,1.2V326.8z M155.8,338.2c0.8,0,1.4-0.5,1.7-1
				c0.4-0.8,0.4-1.7,0.4-2.1c0-1.8-0.8-2.7-2-2.7c-1.8,0-2,2.1-2,3C154,336.8,154.5,338.2,155.8,338.2z"/>
			<path class="st1" d="M169.5,330.7l1.7,6.8l1.9-6.8h2.9l1.9,6.8l1.8-6.8h2.6l-3.1,9h-2.9l-1.9-6.7l-1.9,6.7h-2.9l-2.9-9H169.5z"/>
		</g>
		<g>
			<path class="st1" d="M185.4,335.9c0,0.6,0,2.4,1.8,2.4c0.7,0,1.3-0.2,1.6-1.3h2.4c0,0.4-0.1,1.2-0.9,2c-0.7,0.7-1.8,1.1-3.2,1.1
				c-0.8,0-2.2-0.1-3.2-1.1c-0.8-0.9-1.2-2.1-1.2-3.5c0-1.5,0.4-3.2,1.9-4.3c0.7-0.5,1.6-0.8,2.5-0.8c1.3,0,2.8,0.5,3.6,2.2
				c0.6,1.2,0.6,2.6,0.5,3.3H185.4z M188.8,334.2c0-0.4,0-2-1.6-2c-1.2,0-1.6,1-1.7,2H188.8z"/>
			<path class="st1" d="M198.6,339.7c-0.1-0.6-0.1-1-0.1-1.2c-1,1.4-2.2,1.4-2.7,1.4c-1.3,0-1.9-0.4-2.3-0.7c-0.5-0.5-0.8-1.3-0.8-2
				s0.3-2,1.9-2.8c1.1-0.5,2.7-0.5,3.6-0.5c0-0.6,0-0.9-0.1-1.2c-0.2-0.7-0.9-0.8-1.2-0.8c-0.4,0-0.8,0.2-1,0.5
				c-0.2,0.3-0.2,0.6-0.2,0.8h-2.6c0-0.5,0.1-1.4,1-2.1c0.8-0.6,1.9-0.7,2.7-0.7c0.8,0,2.3,0.1,3.2,1.2c0.6,0.7,0.6,1.8,0.6,2.2
				l0,3.6c0,0.8,0.1,1.5,0.2,2.3H198.6z M195.4,336.9c0,0.6,0.4,1.3,1.3,1.3c0.5,0,0.9-0.2,1.1-0.5c0.5-0.6,0.5-1.3,0.5-2.2
				C196.6,335.3,195.4,335.9,195.4,336.9z"/>
			<path class="st1" d="M203.2,326.8h2.6v12.9h-2.6V326.8z"/>
			<path class="st1" d="M213.4,339.6c-0.9,0.2-1.6,0.3-2.1,0.3c-2.7,0-2.7-1.7-2.7-2.4v-5H207v-1.8h1.7V329l2.6-1v2.7h2.1v1.8h-2.1
				v4.1c0,0.8,0,1.3,1.2,1.3c0.4,0,0.6,0,0.9-0.1V339.6z"/>
			<path class="st1" d="M215.1,326.8h2.6v5.1c0.3-0.4,1-1.4,2.6-1.4c1.3,0,2.2,0.7,2.6,1.2c0.3,0.4,0.6,1.3,0.6,2.4v5.5H221v-5.4
				c0-0.5,0-2-1.5-2c-0.8,0-1.7,0.4-1.7,1.8l0,5.5h-2.7V326.8z"/>
		</g>
	</g>
</g>
</svg>
