<?xml version="1.0" encoding="utf-8"?>
<!-- Generator: Adobe Illustrator 22.1.0, SVG Export Plug-In . SVG Version: 6.00 Build 0)  -->
<svg version="1.1" id="Layer_1" xmlns="http://www.w3.org/2000/svg" xmlns:xlink="http://www.w3.org/1999/xlink" x="0px" y="0px"
	 viewBox="0 0 300 600" style="enable-background:new 0 0 300 600;" xml:space="preserve">
<style type="text/css">
	.st0{fill:#B78CAE;}
	.st1{fill:#FFFFFF;}
</style>
<g>
	<polygon class="st0" points="16,388.7 16,480.6 282,480.6 282,388.7 16,388.7 	"/>
	<g>
		<path class="st1" d="M98,434.5c0,0.4,0,0.8-0.1,1.1c-2.3,1.4-4.7,2.5-7.1,3.5l0,0c0,0-0.1,0-0.3,0.1c-8.2,3.2-16.9,4.5-23.8,4.9
			c-3.7-1-6.7-2.2-9.2-3.4c-2.5-1.2-4.3-2.4-5.8-3.3c-0.4-1-0.6-2.1-0.6-3.1c0-2.3,1-4.1,2.8-5.5c1.8-1.4,4.4-2.4,7.6-3.1
			c1.2-2.1,2.7-3.7,4.4-4.1c2.1-0.5,4.8,0.8,7.2,3c0.5,0,1,0,1.6,0c0.3,0,0.7,0,1,0c2.9-3.8,7.5-6.3,10.3-5.4
			c1.1,0.3,2.2,1.3,3.1,2.6c0.9,1.3,1.6,3,2,4.8C95.5,428.2,98,430.7,98,434.5L98,434.5z M93.1,433.2c0-0.9-0.5-1.8-1.4-2.5
			c0,1.3-0.2,2.5-0.5,3.7c-0.3,0.8-0.6,1.6-0.9,2.3C92,435.8,93.1,434.6,93.1,433.2L93.1,433.2z M89.3,433c1.4-4.7-1-11.3-3.7-12.1
			c-2.5-0.8-7.8,2.9-9.5,7.3c0.4,0.6,0.8,1.3,1,2c0.3,0.7,0.5,1.4,0.7,2.1c0.3,1.3,0.4,4.8-0.9,7.8c0.1,0.2,0.2,0.3,0.2,0.5
			c2.2-0.2,4.5-0.6,6.6-1.2c1-0.6,1.8-1.1,2-1.2C87.3,437.2,88.6,435.5,89.3,433L89.3,433z M75.1,439c0.8-1.6,1.1-3.8,0.5-6.3
			c-1.1-4.8-6.5-9.2-9.2-8.6c-2.7,0.6-5.6,7-4.5,11.8c0.2,1,0.6,2,1,2.8c2.8,0.9,6.7,1.9,10.8,2.1C74.5,439.9,75,439.2,75.1,439
			L75.1,439z M60.1,437.2c-0.1-0.2-0.1-0.5-0.2-0.8c-0.5-2.3-0.3-4.9,0.3-7.2c-2.5,1-4.1,2.4-4.1,4
			C56.2,434.9,57.7,436.2,60.1,437.2L60.1,437.2z"/>
		<path class="st1" d="M97.5,437.7c-1,2.9-3.3,5.8-6.7,8c-8.2,0.8-14.8,0.4-20.3-0.6C81,444.2,87.9,442.3,97.5,437.7L97.5,437.7z"/>
		<path class="st1" d="M63.6,445.5c6.7,1.9,14.5,2.8,23.3,2.3c-3.4,1.5-7.6,2.4-12.2,2.4c-6.4,0-12-1.8-16.1-4.5
			C60.4,445.6,62.1,445.6,63.6,445.5L63.6,445.5z"/>
		<path class="st1" d="M60.5,444.5c-0.6,0-1.2,0-1.8,0c-0.6,0-1.1,0-1.6,0c-1.1-0.9-2.1-1.9-3-2.9C56,442.7,58.2,443.6,60.5,444.5
			L60.5,444.5z"/>
	</g>
	<g>
		<g>
			<path class="st1" d="M121.9,428.5v7.9c0,1.4,0.1,3.2,2.8,3.2c0.4,0,1.8,0,2.5-1.1c0.3-0.4,0.4-0.9,0.4-2.2v-7.7h2.7v8.1
				c0,3.8-3.1,5.1-5.7,5.1c-1.3,0-3.6-0.3-4.9-2.2c-0.6-1-0.7-2-0.7-3.2v-7.7H121.9z"/>
			<path class="st1" d="M134.8,438.8c0,0.6,0.4,1.2,1.5,1.2c0.9,0,1.4-0.5,1.4-1.1c0-0.4-0.2-0.7-1.3-1l-1.6-0.4
				c-0.7-0.2-2.3-0.7-2.3-2.5c0-1.8,1.6-2.8,4-2.8c1.9,0,3.4,0.9,3.4,2.7h-2.4c-0.1-1-0.9-1.1-1.3-1.1c-0.7,0-1.3,0.3-1.3,0.9
				c0,0.6,0.4,0.7,1.2,0.9l1.6,0.4c1.6,0.4,2.4,1.3,2.4,2.5c0,1.6-1.3,3.1-4.1,3.1c-1.2,0-2.3-0.3-3.1-1.1c-0.6-0.6-0.6-1.3-0.7-1.8
				H134.8z"/>
			<path class="st1" d="M144,437.5c0,0.6,0,2.4,1.8,2.4c0.7,0,1.3-0.2,1.6-1.3h2.4c0,0.4-0.1,1.2-0.9,2c-0.7,0.7-1.8,1.1-3.2,1.1
				c-0.8,0-2.2-0.1-3.2-1.1c-0.8-0.9-1.2-2.1-1.2-3.5c0-1.5,0.4-3.2,1.9-4.3c0.7-0.5,1.6-0.8,2.5-0.8c1.3,0,2.8,0.5,3.6,2.2
				c0.6,1.2,0.6,2.6,0.5,3.3H144z M147.4,435.9c0-0.4,0-2-1.6-2c-1.2,0-1.6,1-1.7,2H147.4z"/>
			<path class="st1" d="M158.7,432.4l2,6.3l2-6.3h2.6l-3.4,8.9l-1.1,3.6h-2.7l1.1-3.4l-3.5-9.1H158.7z"/>
		</g>
		<g>
			<path class="st1" d="M170.6,432.1c3.3,0,4.7,2.2,4.7,4.7c0,2.5-1.5,4.8-4.7,4.8c-2.6,0-4.6-1.6-4.6-4.8
				C165.9,434.8,167,432.1,170.6,432.1z M170.6,439.9c1.2,0,1.9-0.7,1.9-3.1c0-1.2-0.2-2.9-2-2.9c-1.9,0-1.9,2.2-1.9,3.1
				C168.7,439,169.3,439.9,170.6,439.9z"/>
			<path class="st1" d="M179.9,432.4v5.4c0,0.8,0,2,1.4,2c1.7,0,1.7-1.3,1.7-2.8v-4.6h2.7v6c0,1.9,0.1,2.2,0.1,2.4
				c0,0.3,0,0.4,0.1,0.7h-2.6l-0.1-1.2c-0.3,0.4-0.9,1.4-2.7,1.4c-1.2,0-2.2-0.6-2.7-1.2c-0.6-0.7-0.6-2-0.6-2.4v-5.6H179.9z"/>
			<path class="st1" d="M188.2,434.6c0-0.4-0.1-1.7-0.1-2.3h2.5l0.1,1.7c0.3-0.8,0.9-1.9,3.1-1.8v2.4c-2.7-0.3-2.8,1.1-2.8,2.3v4.5
				h-2.6V434.6z"/>
			<path class="st1" d="M201.9,438.8c0,0.6,0.4,1.2,1.5,1.2c0.9,0,1.4-0.5,1.4-1.1c0-0.4-0.2-0.7-1.3-1l-1.6-0.4
				c-0.7-0.2-2.3-0.7-2.3-2.5c0-1.8,1.6-2.8,4-2.8c1.9,0,3.4,0.9,3.4,2.7h-2.4c-0.1-1-0.9-1.1-1.3-1.1c-0.7,0-1.3,0.3-1.3,0.9
				c0,0.6,0.4,0.7,1.2,0.9l1.6,0.4c1.6,0.4,2.4,1.3,2.4,2.5c0,1.6-1.3,3.1-4.1,3.1c-1.2,0-2.3-0.3-3.1-1.1c-0.6-0.6-0.6-1.3-0.7-1.8
				H201.9z"/>
			<path class="st1" d="M211.6,432.4v5.4c0,0.8,0,2,1.4,2c1.7,0,1.7-1.3,1.7-2.8v-4.6h2.7v6c0,1.9,0.1,2.2,0.1,2.4
				c0,0.3,0,0.4,0.1,0.7H215l-0.1-1.2c-0.3,0.4-0.9,1.4-2.7,1.4c-1.2,0-2.2-0.6-2.7-1.2c-0.6-0.7-0.6-2-0.6-2.4v-5.6H211.6z"/>
			<path class="st1" d="M222.4,432.4l0.1,1.3c0.8-1.4,2.3-1.5,2.8-1.5c2.3,0,3.8,1.8,3.8,4.5c0,2.6-1.3,4.8-3.9,4.8
				c-1.6,0-2.3-0.9-2.5-1.2v4.5h-2.7v-12.5H222.4z M226.3,436.8c0-1.1-0.3-2.9-1.8-2.9c-0.9,0-2.1,0.6-2.1,3.1c0,0.5,0,2.8,2,2.8
				C225.6,439.8,226.3,438.6,226.3,436.8z"/>
			<path class="st1" d="M233,437.5c0,0.6,0,2.4,1.8,2.4c0.7,0,1.3-0.2,1.6-1.3h2.4c0,0.4-0.1,1.2-0.9,2c-0.7,0.7-1.8,1.1-3.2,1.1
				c-0.8,0-2.2-0.1-3.2-1.1c-0.8-0.9-1.2-2.1-1.2-3.5c0-1.5,0.4-3.2,1.9-4.3c0.7-0.5,1.6-0.8,2.5-0.8c1.3,0,2.8,0.5,3.6,2.2
				c0.6,1.2,0.6,2.6,0.5,3.3H233z M236.3,435.9c0-0.4,0-2-1.6-2c-1.2,0-1.6,1-1.7,2H236.3z"/>
			<path class="st1" d="M240.8,434.6c0-0.4-0.1-1.7-0.1-2.3h2.5l0.1,1.7c0.3-0.8,0.9-1.9,3.1-1.8v2.4c-2.7-0.3-2.8,1.1-2.8,2.3v4.5
				h-2.6V434.6z"/>
		</g>
	</g>
</g>
</svg>
