<?xml version="1.0" encoding="utf-8"?>
<!-- Generator: Adobe Illustrator 22.1.0, SVG Export Plug-In . SVG Version: 6.00 Build 0)  -->
<svg version="1.1" id="Layer_1" xmlns="http://www.w3.org/2000/svg" xmlns:xlink="http://www.w3.org/1999/xlink" x="0px" y="0px"
	 viewBox="0 0 166 34" style="enable-background:new 0 0 166 34;" xml:space="preserve">
<style type="text/css">
	.st0{fill:#D1AE56;}
	.st1{fill:#382E5F;}
</style>
<g>
	<rect y="0.9" class="st0" width="166" height="32.3"/>
	<g>
		<g>
			<path class="st1" d="M21.2,18.7c0,0.4,0,1.8,1.7,1.8c1.1,0,1.8-0.5,1.8-1.3c0-0.8-0.6-1-1.8-1.3c-2.3-0.6-3.5-1.2-3.5-2.9
				c0-1.6,1.1-3,3.8-3c1,0,2.2,0.2,2.9,1.1c0.5,0.7,0.5,1.5,0.5,1.8h-2c0-0.3-0.1-1.5-1.5-1.5c-1,0-1.6,0.5-1.6,1.3
				c0,0.9,0.7,1,2.1,1.4c1.7,0.4,3.3,0.8,3.3,2.7c0,1.7-1.4,3.1-4.1,3.1c-3.7,0-3.7-2.4-3.7-3.3H21.2z"/>
			<path class="st1" d="M28.4,12.2h6.4v1.6h-4.3V16h4.1v1.6h-4.1v2.6h4.5v1.6h-6.5V12.2z"/>
			<path class="st1" d="M41.8,15.3c0-0.3-0.2-1.7-1.5-1.7c-1.5,0-2.2,1.6-2.2,3.6c0,0.6,0,3.3,2,3.3c0.9,0,1.7-0.5,1.7-1.8h2.2
				c0,0.6-0.1,1.5-0.9,2.2c-0.8,0.9-1.9,1.1-2.8,1.1c-3.3,0-4.4-2.4-4.4-4.8c0-3,1.7-5,4.4-5c2.1,0,3.6,1.3,3.6,3.2H41.8z"/>
			<path class="st1" d="M47.3,12.2V18c0,1,0.1,2.4,2.1,2.4c0.3,0,1.3,0,1.8-0.8c0.2-0.3,0.3-0.7,0.3-1.6v-5.7h2v6
				c0,2.8-2.3,3.8-4.2,3.8c-1,0-2.7-0.2-3.6-1.7c-0.5-0.7-0.5-1.5-0.5-2.4v-5.7H47.3z"/>
			<path class="st1" d="M55.4,12.2H59c1.1,0,2.1,0,2.9,0.6c0.6,0.5,0.8,1.2,0.8,1.8c0,1.8-1.5,2.2-2,2.3c1.4,0.1,1.5,1,1.7,2.2
				c0.1,1.1,0.2,1.6,0.3,1.8c0.1,0.4,0.2,0.5,0.3,0.7h-2.3c-0.1-0.5-0.4-2.9-0.5-3.3c-0.2-0.5-0.7-0.5-1-0.5h-1.8v3.9h-2.1V12.2z
				 M57.4,16.4H59c0.2,0,0.7,0,1-0.3c0.1-0.1,0.5-0.4,0.5-1.1c0-0.6-0.3-1-0.5-1.1c-0.3-0.2-0.7-0.2-1.3-0.2h-1.4V16.4z"/>
			<path class="st1" d="M64.4,12.2h6.4v1.6h-4.3V16h4.1v1.6h-4.1v2.6h4.5v1.6h-6.5V12.2z"/>
		</g>
		<g>
			<path class="st1" d="M75.8,12.2l2,4.3l2-4.3h2.1l-3.2,6v3.5h-2v-3.5l-3.2-6H75.8z"/>
		</g>
		<g>
			<path class="st1" d="M86.1,12c1,0,2.4,0.2,3.4,1.3c1,1.2,1.2,2.7,1.2,3.6c0,1.4-0.4,2.9-1.2,3.7c-1.1,1.2-2.6,1.4-3.4,1.4
				c-1.3,0-2.5-0.4-3.4-1.3c-1-1.1-1.2-2.7-1.2-3.6C81.5,14.6,82.7,12,86.1,12z M84.4,19.7c0.3,0.4,0.8,0.8,1.7,0.8
				c0.8,0,1.4-0.3,1.8-0.9c0.3-0.5,0.6-1.2,0.6-2.7c0-0.5,0-1.1-0.2-1.7c-0.4-1.2-1.2-1.7-2.2-1.7c-0.8,0-1.4,0.3-1.8,0.8
				c-0.5,0.7-0.7,1.7-0.7,2.8C83.7,18,83.8,19,84.4,19.7z"/>
			<path class="st1" d="M94.3,12.2V18c0,1,0.1,2.4,2.1,2.4c0.3,0,1.3,0,1.8-0.8c0.2-0.3,0.3-0.7,0.3-1.6v-5.7h2v6
				c0,2.8-2.3,3.8-4.2,3.8c-1,0-2.7-0.2-3.6-1.7c-0.5-0.7-0.5-1.5-0.5-2.4v-5.7H94.3z"/>
			<path class="st1" d="M102.3,12.2h3.7c1.1,0,2.1,0,2.9,0.6c0.6,0.5,0.8,1.2,0.8,1.8c0,1.8-1.5,2.2-2,2.3c1.4,0.1,1.5,1,1.7,2.2
				c0.1,1.1,0.2,1.6,0.3,1.8c0.1,0.4,0.2,0.5,0.3,0.7h-2.3c-0.1-0.5-0.4-2.9-0.5-3.3c-0.2-0.5-0.7-0.5-1-0.5h-1.8v3.9h-2.1V12.2z
				 M104.4,16.4h1.7c0.2,0,0.7,0,1-0.3c0.1-0.1,0.5-0.4,0.5-1.1c0-0.6-0.3-1-0.5-1.1c-0.3-0.2-0.7-0.2-1.3-0.2h-1.4V16.4z"/>
			<path class="st1" d="M116.6,18.7c0,0.4,0,1.8,1.7,1.8c1.1,0,1.8-0.5,1.8-1.3c0-0.8-0.6-1-1.8-1.3c-2.3-0.6-3.5-1.2-3.5-2.9
				c0-1.6,1.1-3,3.8-3c1,0,2.2,0.2,2.9,1.1c0.5,0.7,0.5,1.5,0.5,1.8h-2c0-0.3-0.1-1.5-1.5-1.5c-1,0-1.6,0.5-1.6,1.3
				c0,0.9,0.7,1,2.1,1.4c1.7,0.4,3.3,0.8,3.3,2.7c0,1.7-1.4,3.1-4.1,3.1c-3.7,0-3.7-2.4-3.7-3.3H116.6z"/>
			<path class="st1" d="M123.8,12.2h6.4v1.6h-4.3V16h4.1v1.6h-4.1v2.6h4.5v1.6h-6.5V12.2z"/>
			<path class="st1" d="M136.9,12.2l3.3,9.5h-2.1l-0.7-2.1h-3.8l-0.7,2.1h-2l3.4-9.5H136.9z M136.9,18.1l-1.3-4.1l-1.4,4.1H136.9z"
				/>
		</g>
		<g>
			<path class="st1" d="M142,13.8h-2.8v-1.6h7.7v1.6h-2.8v8H142V13.8z"/>
		</g>
	</g>
</g>
</svg>
