<?xml version="1.0" encoding="utf-8"?>
<!-- Generator: Adobe Illustrator 22.1.0, SVG Export Plug-In . SVG Version: 6.00 Build 0)  -->
<svg version="1.1" id="Layer_1" xmlns="http://www.w3.org/2000/svg" xmlns:xlink="http://www.w3.org/1999/xlink" x="0px" y="0px"
	 viewBox="0 0 300 600" style="enable-background:new 0 0 300 600;" xml:space="preserve">
<style type="text/css">
	.st0{fill:#FFFFFF;}
</style>
<path class="st0" d="M96.9,111.6c0.2-0.2,0.5-0.2,0.7-0.1c4.6,2.2,7.3,7.2,7.3,12.2c0,0.4-0.2,0.8-0.6,0.8H81.1
	c-0.4,0-0.7-0.3-0.7-0.7c-0.1-5,2.6-10.1,7.3-12.3c0.3-0.1,0.6-0.1,0.7,0.1C91,113.6,94.4,113.6,96.9,111.6L96.9,111.6z M92.7,95.3
	c4.1,0,7.2,3.7,7.2,7.8c0,4-3,7.8-7.2,7.8c-4.2,0-7.3-3.7-7.3-7.8C85.4,99,88.4,95.3,92.7,95.3L92.7,95.3z"/>
</svg>
