<?xml version="1.0" encoding="utf-8"?>
<!-- Generator: Adobe Illustrator 22.1.0, SVG Export Plug-In . SVG Version: 6.00 Build 0)  -->
<svg version="1.1" id="Layer_1" xmlns="http://www.w3.org/2000/svg" xmlns:xlink="http://www.w3.org/1999/xlink" x="0px" y="0px"
	 viewBox="0 0 300 600" style="enable-background:new 0 0 300 600;" xml:space="preserve">
<style type="text/css">
	.st0{fill:none;}
	.st1{fill:#9892AC;}
</style>
<g>
	<path class="st0" d="M127.6,50.5c-0.4,0.9-0.8,2-1.2,3.2L245.4,174c0.7-1.4,1.3-2.8,2-4.3l-118.8-120
		C128.1,49.9,127.7,50.2,127.6,50.5z"/>
	<path class="st0" d="M124.6,59.1l118.4,119.6c0.7-1.4,1.4-2.8,2.1-4.2l-119-120.2C125.7,55.9,125.2,57.5,124.6,59.1z"/>
	<path class="st0" d="M129.1,49.4l118.5,119.7c0.6-1.5,1.2-3,1.7-4.6L134.1,48.1C132,48.5,130.3,48.9,129.1,49.4z"/>
	<path class="st0" d="M48.8,118.4l63.8,64.5c1.4-0.8,2.8-1.5,4.1-2.1l-65.2-65.9C50.5,116,49.6,117.1,48.8,118.4z"/>
	<path class="st0" d="M170.4,76.8l80.8,81.7c0.4-1.7,0.8-3.4,1.1-5.2l-73.6-74.4C176.2,78.4,173.2,77.7,170.4,76.8z"/>
	<path class="st0" d="M121.6,66.4c-0.4,0.5-0.9,0.7-1.3,0.7c-0.9,0-2-0.5-3.2-1.3l121.2,122.4c0.7-1.4,1.4-2.8,2.1-4.2L122.4,64.9
		C122.2,65.5,121.9,66,121.6,66.4z"/>
	<path class="st0" d="M122.7,64.3l117.9,119.1c0.7-1.3,1.4-2.7,2.2-4.1L124.4,59.8C123.9,61.4,123.3,63,122.7,64.3z"/>
	<path class="st0" d="M47.1,121.8c-0.2,0.5-0.3,1-0.5,1.5l61.6,62.3c0.2-0.1,0.3-0.2,0.5-0.3c1.1-0.8,2.3-1.4,3.4-2.1l-63.6-64.3
		C47.9,119.8,47.4,120.8,47.1,121.8z"/>
	<path class="st0" d="M158.4,65.5l-17.9-18.1c-2,0.2-3.9,0.4-5.6,0.6l114.7,115.9c0.5-1.6,1-3.2,1.5-4.8l-81.9-82.7
		C162.1,73.9,156.1,70.2,158.4,65.5z"/>
	<path class="st0" d="M160.7,60.6l-13.4-13.6c-2,0-4,0.1-6,0.3l17.4,17.6C159.4,63.5,160.1,62.1,160.7,60.6z"/>
	<path class="st0" d="M55.7,111l66.8,67.4c1.7-0.6,3.4-1,4.9-1.4l-68.1-68.8C58,109.2,56.8,110.1,55.7,111z"/>
	<path class="st0" d="M46.1,137.1l53.6,54.2c1.2-0.8,2.5-1.6,3.8-2.5l-57.8-58.4C45.6,132.5,45.8,134.7,46.1,137.1z"/>
	<path class="st0" d="M45.7,129.5l58.3,58.9c1.2-0.8,2.4-1.6,3.8-2.5l-61.3-61.9C46,125.7,45.8,127.6,45.7,129.5z"/>
	<path class="st0" d="M163.3,49l-0.8-0.8c-1.3-0.5-4-0.8-7.2-1l7.5,7.6C163.5,52.2,163.8,50.1,163.3,49z"/>
	<path class="st0" d="M162.6,55.4l-8.2-8.3c-1.3-0.1-2.7-0.1-4.1-0.1c-0.7,0-1.5,0-2.2,0l12.9,13C161.6,58.5,162.2,56.9,162.6,55.4z
		"/>
	<path class="st0" d="M52,114.4l65.4,66c1.6-0.7,3-1.3,4.5-1.8l-66.6-67.3C54.1,112.4,53,113.4,52,114.4z"/>
	<path class="st0" d="M68.1,102.1l74.2,75c1,0.3,1.9,0.7,2.8,1c2.4,0.7,5.3,2.2,8.2,3.8L71.8,99.5C70.7,100.4,69.4,101.3,68.1,102.1
		z"/>
	<path class="st0" d="M89.1,80.5L217,209.6c0.2,0,0.3,0,0.5,0c0.9,0,1.9-0.2,3.2-0.7c0.5-0.2,0.9-0.4,1.4-0.5L92.2,77.2
		C90.9,78.5,89.9,79.6,89.1,80.5z"/>
	<path class="st0" d="M85.7,84.1l120.8,122c0.4-0.2,0.8-0.4,1.2-0.6c0.4-0.2,0.9-0.2,1.3-0.2c2.6,0,3.9,3.4,7.1,4.2L88.7,80.9
		C87.6,82.1,86.7,83,85.7,84.1z"/>
	<path class="st0" d="M82.4,88l119.9,121.1c1.3-0.9,2.5-1.9,3.6-2.6L85.3,84.6C84.5,85.5,83.6,86.6,82.4,88z"/>
	<path class="st0" d="M79.3,91.9l91.6,92.5c0.3-0.1,0.6-0.2,0.9-0.2c0.2,0,0.4,0,0.9,0c1.4,0.4,0.9,1.1,1.2,3.1l23.4,23.6
		c1.7-0.1,3.3-0.7,4.6-1.6L82.1,88.4C81.3,89.4,80.4,90.6,79.3,91.9z"/>
	<path class="st0" d="M77,94.9c-0.3,0.3-0.6,0.7-0.9,1l90.5,91.4c1.3-0.7,2.4-1.9,3.7-2.6L78.9,92.4C78.3,93.2,77.7,94,77,94.9z"/>
	<path class="st0" d="M107.8,60.6c-0.6,0-1.3,0.2-1.9,0.9c0,0,0,0,0,0l130.2,131.6c0.5-1.5,1.2-2.9,1.9-4.4L114.5,64
		C112.2,62.4,109.7,60.6,107.8,60.6z"/>
	<path class="st0" d="M72.3,99.2l82.9,83.7c3.8,2.1,7.2,4.1,8.9,4.6c0.2,0,0.6,0.2,0.9,0.2c0.4,0,0.7-0.1,1.1-0.2L75.7,96.3
		C74.7,97.3,73.6,98.2,72.3,99.2z"/>
	<path class="st0" d="M59.7,107.9l68.3,69c2.1-0.4,3.9-0.7,5.5-0.8l-70.1-70.8C62.2,106.2,60.9,107,59.7,107.9z"/>
	<path class="st0" d="M92.5,76.8l130.2,131.5c1.9-0.6,3.6-0.9,5.1-1.1L95.5,73.5C94.4,74.7,93.4,75.8,92.5,76.8z"/>
	<path class="st0" d="M102.6,65.4l132,133.3c0.3-1.7,0.7-3.3,1.3-5L105.5,62C104.4,63.3,103.5,64.4,102.6,65.4z"/>
	<path class="st0" d="M99.2,69.2l134.3,135.7c0.4-0.6,0.6-1.5,0.7-2.6c0-0.9,0.1-1.9,0.2-2.8L102.2,65.9
		C101.1,67.1,100.1,68.2,99.2,69.2z"/>
	<path class="st0" d="M63.9,105l70.4,71.1c0.8,0,1.5-0.1,2.1-0.1c1.8,0,3.4,0.3,4.8,0.7l-73.5-74.3C66.4,103.3,65.2,104.1,63.9,105z
		"/>
	<path class="st0" d="M95.9,73l132.6,134c2.1-0.3,3.7-0.6,4.6-1.6L98.9,69.7C97.8,70.9,96.8,72,95.9,73z"/>
	<path class="st0" d="M186.7,78.9l66.6,67.3c0.2-1.9,0.2-4,0.3-6.1l-64.2-64.8C188.6,77,187.8,78.2,186.7,78.9z"/>
	<path class="st0" d="M206.9,50.1l-10.4-10.5c-0.7,0.9-1.3,2.5-1.7,4.6l15.1,15.3C209.1,56.6,208.1,53.3,206.9,50.1z"/>
	<path class="st0" d="M67.2,194.1l7.6,7.7c0.1,0,0.1,0,0.2,0c1.9,0,3.7-0.2,5.5-0.6l-13.3-13.5C67.8,189.8,67.5,192.1,67.2,194.1z"
		/>
	<path class="st0" d="M202.8,231l10.1,10.2c0.1,0,0.2,0,0.3,0c0.6,0,1.3,0,2.1-0.2c0.9-0.3,1.8-0.6,2.6-1l-16.6-16.8
		C201.3,225.5,201.8,228.3,202.8,231z"/>
	<path class="st0" d="M201.4,222.4l17.1,17.3c1.4-0.7,2.6-1.6,3.6-2.7l-18.4-18.6C202.3,218.7,201.6,220.3,201.4,222.4z"/>
	<path class="st0" d="M193.8,50.4L214,70.7c-1.2-2.6-2.3-5.1-2.9-7.3c-0.2-0.8-0.5-1.7-0.8-2.7l-15.6-15.8
		C194.3,46.5,194,48.4,193.8,50.4z"/>
	<path class="st0" d="M66.2,185.9c0,0,0,0.1,0.1,0.1l14.9,15c1.5-0.4,3-0.9,4.6-1.7l-28-28.3C61.4,178.3,64.7,183.9,66.2,185.9z"/>
	<path class="st0" d="M198.8,38.7c-0.2,0-0.4,0-0.6,0c-0.5,0-0.9,0.2-1.2,0.5l9.4,9.5C204.4,43.8,201.9,39.6,198.8,38.7z"/>
	<path class="st0" d="M212.1,220.3c-1.9,0-4.1-0.2-6.2-1.4c-0.5-0.2-1-0.3-1.4-0.4l18,18.2c1.1-1.2,1.9-2.5,2.5-3.8l-12.4-12.6
		C212.4,220.3,212.3,220.3,212.1,220.3z"/>
	<path class="st0" d="M188.3,206.7c3.2,3,5.8,4.2,8,4.3L174,188.5C174.8,191.6,177.7,197,188.3,206.7z"/>
	<path class="st0" d="M223.7,219.8c-0.6-0.5-1.7-0.7-2.6-0.7c-0.5,0-1.1,0.1-1.7,0.1l6.8,6.9C226.2,223.4,225.2,221,223.7,219.8z"/>
	<path class="st0" d="M193,56.7l38,38.3c-4.6-5.7-8.3-9.6-8.9-10.4c-1.2-1.5-4.5-6.8-7.3-12.3l-21.1-21.3
		C193.5,52.9,193.3,54.8,193,56.7z"/>
	<path class="st0" d="M71.8,201.4c0.7,0.2,1.4,0.3,2.2,0.4l-6.9-6.9C66.7,197.8,66.9,200.3,71.8,201.4z"/>
	<path class="st0" d="M213.3,220.2l11.9,12c0.7-1.7,1-3.5,1.1-5.2l-7.6-7.6C217.1,219.7,215.3,220.1,213.3,220.2z"/>
	<path class="st0" d="M212,241.1l-8.6-8.7C205.2,236.7,208.2,240.5,212,241.1z"/>
	<path class="st0" d="M189.6,74.7l63.9,64.6c0,0,0,0,0,0c0-2.3-0.3-4.7-0.9-7.3l-61.5-62.1C190.7,71.7,190.2,73.3,189.6,74.7z"/>
	<path class="st0" d="M56.9,169.4l29.4,29.7c1.3-0.6,2.6-1.3,4.1-2.1l-38.5-38.9C53.5,162.1,55.2,165.9,56.9,169.4z"/>
	<path class="st0" d="M51.4,156.7l39.6,40c1.2-0.7,2.5-1.5,3.9-2.4l-46.6-47.1C49.1,150.4,50.2,153.6,51.4,156.7z"/>
	<path class="st0" d="M191.2,69.2l61.1,61.7c-1-3.5-2.5-7.1-4.3-10.7l-55.8-56.4C191.9,65.7,191.6,67.5,191.2,69.2z"/>
	<path class="st0" d="M192.3,63.1l54.8,55.4c-3.7-6.8-8.4-13.6-12.8-19.2L193,57.5C192.7,59.4,192.5,61.3,192.3,63.1z"/>
	<path class="st0" d="M47.9,146.1L95.4,194c1.2-0.8,2.5-1.6,3.8-2.4l-53-53.5C46.6,140.7,47.2,143.4,47.9,146.1z"/>
	<path class="st0" d="M185.9,79.3c-0.2,0-0.6,0.2-1.3,0.2c-1.2,0-2.9-0.2-4.9-0.5l72.8,73.5c0.3-1.8,0.5-3.7,0.7-5.6l-67.1-67.7
		C186.1,79.2,186,79.3,185.9,79.3z"/>
	<path class="st1" d="M46.4,123.9l61.3,61.9c0.2-0.1,0.3-0.2,0.5-0.3l-61.6-62.3C46.6,123.5,46.5,123.7,46.4,123.9z"/>
	<path class="st1" d="M71.8,99.5l81.5,82.3c0.6,0.3,1.2,0.7,1.8,1L72.3,99.2C72.1,99.3,72,99.4,71.8,99.5z"/>
	<path class="st1" d="M45.7,130.3l57.8,58.4c0.2-0.1,0.3-0.2,0.5-0.3l-58.3-58.9C45.7,129.8,45.7,130.1,45.7,130.3z"/>
	<path class="st1" d="M75.7,96.3l90.3,91.2c0.2-0.1,0.4-0.2,0.6-0.3L76.1,95.9C76,96,75.8,96.2,75.7,96.3z"/>
	<path class="st1" d="M67.6,102.5l73.5,74.3c0.4,0.1,0.8,0.2,1.2,0.4l-74.2-75C68,102.3,67.8,102.4,67.6,102.5z"/>
	<path class="st1" d="M174,188.5l22.3,22.5c0.2,0,0.4,0,0.6,0c0.1,0,0.2,0,0.3,0l-23.4-23.6C173.8,187.7,173.9,188.1,174,188.5z"/>
	<path class="st1" d="M48.2,147.2l46.6,47.1c0.2-0.1,0.3-0.2,0.5-0.3l-47.5-47.9C48,146.4,48.1,146.8,48.2,147.2z"/>
	<path class="st1" d="M51.9,158.1L90.4,197c0.2-0.1,0.3-0.2,0.5-0.3l-39.6-40C51.6,157.2,51.7,157.6,51.9,158.1z"/>
	<path class="st1" d="M59.2,108.3l68.1,68.8c0.2-0.1,0.5-0.1,0.7-0.1l-68.3-69C59.5,108,59.4,108.2,59.2,108.3z"/>
	<path class="st1" d="M51.6,114.8l65.2,65.9c0.2-0.1,0.4-0.2,0.6-0.3l-65.4-66C51.8,114.6,51.7,114.7,51.6,114.8z"/>
	<path class="st1" d="M55.2,111.4l66.6,67.3c0.2-0.1,0.4-0.1,0.6-0.2L55.7,111C55.5,111.1,55.4,111.3,55.2,111.4z"/>
	<path class="st1" d="M57.7,171.1l28,28.3c0.2-0.1,0.4-0.2,0.6-0.3l-29.4-29.7C57.2,170,57.5,170.6,57.7,171.1z"/>
	<path class="st1" d="M46.2,138l53,53.5c0.2-0.1,0.3-0.2,0.5-0.3l-53.6-54.2C46.1,137.4,46.2,137.7,46.2,138z"/>
	<path class="st1" d="M48.5,118.9l63.6,64.3c0.2-0.1,0.4-0.2,0.5-0.3l-63.8-64.5C48.7,118.5,48.6,118.7,48.5,118.9z"/>
	<path class="st1" d="M67.1,187.7l13.3,13.5c0.2-0.1,0.4-0.1,0.7-0.2l-14.9-15C66.6,186.6,66.9,187.1,67.1,187.7z"/>
	<path class="st1" d="M63.4,105.3l70.1,70.8c0.3,0,0.5,0,0.8-0.1L63.9,105C63.7,105.1,63.6,105.2,63.4,105.3z"/>
	<path class="st1" d="M67.1,194.8l6.9,6.9c0.3,0,0.6,0.1,0.9,0.1l-7.6-7.7C67.1,194.3,67.1,194.6,67.1,194.8z"/>
	<path class="st1" d="M88.7,80.9L216,209.5c0.3,0.1,0.6,0.1,1,0.2L89.1,80.5C89,80.6,88.9,80.7,88.7,80.9z"/>
	<path class="st1" d="M178.7,78.9l73.6,74.4c0-0.2,0.1-0.5,0.1-0.7L179.7,79C179.4,79,179.1,78.9,178.7,78.9z"/>
	<path class="st1" d="M169.2,76.4l81.9,82.7c0.1-0.2,0.1-0.4,0.2-0.7l-80.8-81.7C170,76.6,169.6,76.5,169.2,76.4z"/>
	<path class="st1" d="M186.2,79.2l67.1,67.7c0-0.3,0-0.5,0.1-0.8l-66.6-67.3C186.5,79,186.3,79.1,186.2,79.2z"/>
	<path class="st1" d="M189.4,75.3l64.2,64.8c0-0.3,0-0.5,0-0.8l-63.9-64.6C189.5,74.9,189.5,75.1,189.4,75.3z"/>
	<path class="st1" d="M162.8,54.8l-7.5-7.6c-0.3,0-0.6,0-0.9,0l8.2,8.3C162.7,55.2,162.7,55,162.8,54.8z"/>
	<path class="st1" d="M78.9,92.4l91.4,92.3c0.2-0.1,0.4-0.2,0.6-0.3L79.3,91.9C79.2,92.1,79,92.3,78.9,92.4z"/>
	<path class="st1" d="M160.9,60.1l-12.9-13c-0.3,0-0.5,0-0.8,0l13.4,13.6C160.8,60.5,160.9,60.3,160.9,60.1z"/>
	<path class="st1" d="M162.5,48.2C162.5,48.2,162.5,48.2,162.5,48.2l0.7,0.8C163.1,48.6,162.9,48.3,162.5,48.2z"/>
	<path class="st1" d="M193.7,51.1l21.1,21.3c-0.3-0.5-0.5-1.1-0.8-1.6l-20.2-20.4C193.8,50.6,193.7,50.8,193.7,51.1z"/>
	<path class="st1" d="M206.4,48.8l-9.4-9.5c-0.1,0.1-0.3,0.3-0.4,0.4l10.4,10.5C206.7,49.7,206.5,49.2,206.4,48.8z"/>
	<path class="st1" d="M194.8,44.2c-0.1,0.2-0.1,0.4-0.1,0.7l15.6,15.8c-0.1-0.4-0.2-0.8-0.3-1.2L194.8,44.2z"/>
	<path class="st1" d="M191.1,69.9l61.5,62.1c-0.1-0.4-0.2-0.7-0.3-1.1l-61.1-61.7C191.2,69.4,191.1,69.7,191.1,69.9z"/>
	<path class="st1" d="M193,57.5l41.4,41.8c-1.1-1.5-2.3-2.9-3.3-4.2l-38-38.3C193,57,193,57.2,193,57.5z"/>
	<path class="st1" d="M192.2,63.8l55.8,56.4c-0.3-0.6-0.6-1.2-0.9-1.8l-54.8-55.4C192.2,63.4,192.2,63.6,192.2,63.8z"/>
	<path class="st1" d="M158.5,65.3c0.1-0.1,0.1-0.2,0.2-0.4l-17.4-17.6c-0.3,0-0.5,0-0.8,0.1l17.9,18.1
		C158.4,65.4,158.4,65.3,158.5,65.3z"/>
	<path class="st1" d="M95.5,73.5l132.3,133.6c0.2,0,0.5-0.1,0.7-0.1L95.9,73C95.8,73.2,95.7,73.3,95.5,73.5z"/>
	<path class="st1" d="M98.9,69.7l134.3,135.7c0.1-0.1,0.3-0.3,0.4-0.5L99.2,69.2C99.1,69.4,99,69.5,98.9,69.7z"/>
	<path class="st1" d="M102.2,65.9l132.3,133.6c0-0.2,0.1-0.5,0.1-0.7l-132-133.3C102.4,65.6,102.3,65.7,102.2,65.9z"/>
	<path class="st1" d="M92.2,77.2l129.9,131.3c0.2-0.1,0.4-0.1,0.6-0.2L92.5,76.8C92.4,76.9,92.3,77.1,92.2,77.2z"/>
	<path class="st1" d="M134.1,48.1l115.2,116.4c0.1-0.2,0.1-0.4,0.2-0.6L134.9,48C134.6,48,134.4,48.1,134.1,48.1z"/>
	<path class="st1" d="M82.1,88.4l119.7,121c0.2-0.1,0.3-0.2,0.5-0.3L82.4,88C82.3,88.1,82.2,88.3,82.1,88.4z"/>
	<path class="st1" d="M85.3,84.6L206,206.4c0.2-0.1,0.3-0.2,0.5-0.3L85.7,84.1C85.6,84.3,85.4,84.4,85.3,84.6z"/>
	<path class="st1" d="M124.4,59.8l118.3,119.5c0.1-0.2,0.2-0.4,0.3-0.5L124.6,59.1C124.6,59.4,124.5,59.6,124.4,59.8z"/>
	<path class="st1" d="M105.5,62l130.4,131.7c0.1-0.2,0.1-0.4,0.2-0.6L105.8,61.6C105.7,61.8,105.6,61.9,105.5,62z"/>
	<path class="st1" d="M128.6,49.6l118.8,120c0.1-0.2,0.2-0.4,0.2-0.6L129.1,49.4C128.9,49.4,128.7,49.5,128.6,49.6z"/>
	<path class="st1" d="M126.2,54.3l119,120.2c0.1-0.2,0.2-0.4,0.3-0.6L126.4,53.7C126.3,53.9,126.2,54.1,126.2,54.3z"/>
	<path class="st1" d="M122.4,64.9L240.3,184c0.1-0.2,0.2-0.4,0.3-0.5L122.7,64.3C122.6,64.5,122.5,64.7,122.4,64.9z"/>
	<path class="st1" d="M114.5,64L238,188.7c0.1-0.2,0.2-0.4,0.3-0.6L117.1,65.8C116.3,65.3,115.4,64.7,114.5,64z"/>
	<path class="st1" d="M219.5,219.3c-0.2,0-0.5,0.1-0.7,0.1l7.6,7.6c0-0.3,0-0.6,0-0.9L219.5,219.3z"/>
	<path class="st1" d="M212.5,220.3l12.4,12.6c0.1-0.2,0.2-0.4,0.3-0.6l-11.9-12C213.1,220.2,212.8,220.2,212.5,220.3z"/>
	<path class="st1" d="M203.4,232.4l8.6,8.7c0.3,0.1,0.6,0.1,0.9,0.1L202.8,231C203,231.5,203.2,232,203.4,232.4z"/>
	<path class="st1" d="M204.2,218.4c-0.2,0-0.3,0-0.5,0.1l18.4,18.6c0.1-0.1,0.3-0.3,0.4-0.4l-18-18.2
		C204.4,218.4,204.3,218.4,204.2,218.4z"/>
	<path class="st1" d="M201.3,223.2l16.6,16.8c0.2-0.1,0.4-0.2,0.5-0.3l-17.1-17.3C201.4,222.7,201.4,223,201.3,223.2z"/>
</g>
</svg>
