<?xml version="1.0" encoding="utf-8"?>
<!-- Generator: Adobe Illustrator 22.1.0, SVG Export Plug-In . SVG Version: 6.00 Build 0)  -->
<svg version="1.1" id="Layer_1" xmlns="http://www.w3.org/2000/svg" xmlns:xlink="http://www.w3.org/1999/xlink" x="0px" y="0px"
	 viewBox="0 0 300 600" style="enable-background:new 0 0 300 600;" xml:space="preserve">
<style type="text/css">
	.st0{fill:#D1AE56;}
	.st1{fill:#FFFFFF;}
</style>
<g>
	<path class="st0" d="M89.2,369.3h26.4l-0.3-1.7l-2.4-0.3c-2.7-0.2-4-0.6-4-1.4v-40.1L88,330l-0.3,1.5l7.9,0.8v33.6
		c0,0.8-1.2,1.3-3.6,1.5l-2.5,0.3L89.2,369.3z"/>
	<path class="st0" d="M135.2,339.5c1.3,0,2.4-0.4,3.2-1.3c0.8-0.9,1.2-1.9,1.2-3.1c0-1.2-0.4-2.2-1.2-3c-0.8-0.9-1.9-1.3-3.2-1.3
		c-1.3,0-2.4,0.4-3.2,1.3c-0.8,0.9-1.2,1.9-1.2,3c0,1.2,0.4,2.2,1.2,3.1S133.8,339.5,135.2,339.5L135.2,339.5z M128.8,365.5h13.5
		l-0.2-0.9l-0.5-0.1c-1.1-0.1-1.8-0.2-2.1-0.3c-0.3-0.1-0.4-0.2-0.4-0.5v-21.6l-10.6,3l-0.1,0.7l1,0.3c0.9,0.3,1.5,0.6,1.8,1.1
		c0.3,0.5,0.4,1.5,0.4,3v13.5c0,0.3-0.1,0.5-0.4,0.6c-0.3,0.1-0.8,0.2-1.6,0.3l-0.7,0.1L128.8,365.5z M142.7,365.5H156l-0.1-0.9
		l-0.8-0.1c-1.3-0.1-2-0.4-2-0.8v-15.9c1.1-0.7,2.3-1,3.6-1c1.3,0,2.4,0.4,3,1.1c0.7,0.7,1,2,1,3.8v12c0,0.3-0.1,0.5-0.3,0.6
		c-0.2,0.1-0.7,0.2-1.5,0.3l-0.8,0.1l-0.2,0.9h13.4l-0.2-0.9l-0.6-0.1c-1.7-0.2-2.5-0.5-2.5-0.9v-13.6c0-2.9-0.6-5-1.8-6.1
		c-1.2-1.2-2.6-1.9-4.2-1.9c-2.3,0-5.3,1.5-9,4.5h-0.1l0.1-4.4l-10.7,3l-0.1,0.7l1,0.3c0.9,0.3,1.5,0.6,1.8,1.1
		c0.3,0.5,0.4,1.5,0.4,3v13.5c0,0.3-0.1,0.5-0.4,0.6c-0.3,0.1-0.8,0.2-1.6,0.3l-0.7,0.1L142.7,365.5z"/>
	<path class="st0" d="M181.4,375.5h9.7l22.3-51.9l-0.2-1.5h-34l-2.1,17h1.6l0.8-1.9c0.4-1.6,0.9-2.8,1.7-3.5c0.7-0.7,2.1-1.3,4-1.7
		c1.9-0.4,4.8-0.6,8.7-0.6h13.7l-0.1,0.2L181.4,375.5z"/>
	<path class="st0" d="M77.9,399.1l1.5,4.4c0.4,1.1,0.6,1.8,0.5,2.3c-0.1,0.4-0.5,0.7-1.3,0.7l-0.8,0.1l-0.1,0.6h11.4l-0.1-0.6
		l-0.9-0.1c-0.7-0.1-1.2-0.3-1.7-0.8c-0.4-0.5-0.9-1.4-1.4-2.8l-6.1-17.2h-0.8c-0.3,0.6-0.8,1.3-1.6,1.8c-0.8,0.6-1.5,0.9-2.2,1.1
		l0.3,1.2l-3.9,10.8c-1,2.6-1.7,4.2-2.1,4.8c-0.4,0.6-1.2,1-2.2,1.1l-0.6,0.1l-0.1,0.6h7.5l-0.1-0.6l-0.7-0.1
		c-0.3,0-0.6-0.1-0.8-0.1c-0.8-0.2-1.2-0.5-1.3-1c0-0.5,0.3-1.8,1-4l0.8-2.2H77.9z M72.4,398.3L75,391h0.1l2.5,7.3H72.4z
		 M99.6,407.8l6.9-1.7l0.1-0.4l-0.9-0.2c-0.5-0.1-0.8-0.3-1-0.6c-0.1-0.3-0.2-0.8-0.2-1.6v-10.7h-7.1l0.1,0.6l0.5,0
		c0.7,0,1.1,0.1,1.3,0.2c0.2,0.1,0.3,0.2,0.3,0.4V404c-0.8,0.4-1.5,0.7-2.1,0.7c-0.9,0-1.6-0.2-2-0.7c-0.4-0.5-0.7-1.3-0.6-2.4
		l0.1-9h-7.2l0.1,0.6l0.5,0c1.1,0.1,1.7,0.3,1.7,0.5l-0.1,8.8c-0.1,1.8,0.3,3.2,1.1,4c0.9,0.8,1.8,1.2,2.6,1.2c1.6,0,3.6-1,5.8-2.9
		h0.1L99.6,407.8z M112.9,407.7c2.1,0,3.7-0.5,4.9-1.4c1.1-1,1.7-2.1,1.7-3.6c0-0.7-0.1-1.3-0.4-1.8s-0.6-1-1.2-1.4
		c-0.6-0.4-1-0.7-1.4-0.9c-0.4-0.2-1-0.5-1.8-0.8c-0.7-0.2-1.1-0.4-1.4-0.6c-0.3-0.1-0.6-0.3-1-0.6c-0.4-0.2-0.7-0.5-0.8-0.8
		c-0.2-0.3-0.2-0.6-0.2-1c0-0.7,0.2-1.2,0.6-1.6c0.4-0.4,1-0.6,1.7-0.6c0.6,0,1.3,0.2,1.9,0.5l2.5,3.8l0.9,0l-0.2-4.8l-1.6,0.3
		c-1.1-0.4-2.2-0.5-3.5-0.5c-1.8,0-3.3,0.4-4.4,1.3c-1.1,0.9-1.7,2.1-1.7,3.6c0,1.2,0.4,2.2,1.2,2.9c0.8,0.7,1.9,1.3,3.5,1.9
		c0.5,0.2,0.8,0.3,1,0.4c0.1,0.1,0.4,0.2,0.8,0.4c0.4,0.2,0.7,0.3,0.8,0.4c0.1,0.1,0.3,0.3,0.5,0.5c0.2,0.2,0.4,0.4,0.4,0.6
		c0.1,0.2,0.1,0.4,0.1,0.7c0,0.7-0.2,1.3-0.7,1.7c-0.5,0.4-1.1,0.6-1.9,0.6c-0.8,0-1.5-0.2-2-0.6c-0.5-0.4-1.1-1-1.7-2l-0.9-1.9
		l-0.9-0.1l0.1,4.3C109,407.4,110.8,407.7,112.9,407.7L112.9,407.7z M127.2,407.6c2,0,3.8-1,5.6-2.9l-0.1-0.4
		c-0.8,0.6-1.7,0.9-2.7,0.9c-0.9,0-1.6-0.3-2-0.8c-0.4-0.5-0.6-1.4-0.6-2.7l0.1-7h4.7l0.4-2.1h-5.1l0-3.9l-0.7,0l-2.7,2.1l-3,2.2
		l-0.9,1.7l2.7,0.1l-0.1,7.9C122.7,406,124.2,407.6,127.2,407.6L127.2,407.6z M133.3,407.2h9.1l-0.1-0.6l-0.6,0
		c-1.1-0.1-1.7-0.3-1.7-0.6v-7.3c0.7-2.3,1.5-3.5,2.5-3.8c0.5,1.4,1.3,2.1,2.6,2.1c0.6,0,1.2-0.2,1.6-0.7c0.4-0.5,0.7-1,0.7-1.6
		c0-0.8-0.2-1.5-0.7-2c-0.5-0.5-1.1-0.7-1.9-0.7c-1.9,0-3.4,1.7-4.5,5h-0.1l0.1-5l-7,1.9l0,0.4l0.7,0.2c0.6,0.2,1,0.4,1.2,0.7
		c0.2,0.3,0.3,1,0.3,2v8.8c0,0.2-0.1,0.3-0.3,0.4c-0.2,0.1-0.5,0.1-1.1,0.2l-0.4,0L133.3,407.2z M159.7,407.7c1.3,0,2.8-1,4.5-3.1
		l-0.3-0.4c-0.6,0.7-1.1,1-1.4,1c-0.8,0-1.2-0.6-1.2-1.8l0.3-5.9c0.1-1.9-0.3-3.3-1.2-4.2c-0.9-0.9-2.3-1.3-4.2-1.3
		c-1.8,0-3.6,0.4-5.4,1.3c-1.8,0.8-2.6,1.8-2.6,3c0,0.6,0.2,1,0.6,1.3c0.4,0.3,0.9,0.5,1.6,0.5c0.6,0,1.2-0.2,1.6-0.6
		c0.4-0.4,0.6-0.9,0.6-1.4c0-0.4-0.2-0.8-0.5-1.3c-0.4-0.5-0.5-0.7-0.5-0.8c0-0.4,0.6-0.7,1.8-0.7c1.1,0,1.9,0.4,2.5,1.1
		c0.6,0.8,0.9,1.7,0.8,2.9l0,0.9c-3.1,0.8-5.3,1.7-6.6,2.6c-1.3,0.9-2,2-2,3.3c0,1,0.4,1.8,1.1,2.4c0.7,0.7,1.6,1,2.6,1
		c0.9,0,1.7-0.3,2.4-0.8c0.7-0.5,1.5-1.3,2.5-2.4l0.1,0c0.1,1,0.4,1.8,1,2.4C158.1,407.4,158.8,407.7,159.7,407.7L159.7,407.7z
		 M154.5,404.8c-0.6,0-1.1-0.2-1.4-0.6c-0.3-0.4-0.5-0.9-0.5-1.6c0-0.8,0.3-1.6,0.9-2.1c0.6-0.6,1.6-1.1,3.1-1.5l-0.2,4.7
		C155.8,404.4,155.2,404.8,154.5,404.8L154.5,404.8z M164.5,407.2h8.5l-0.1-0.6l-0.4,0c-0.9-0.1-1.4-0.3-1.4-0.5v-21.6l-6.9,1.9
		l-0.1,0.4l0.9,0.4c0.5,0.2,0.8,0.4,1,0.6c0.1,0.3,0.2,0.8,0.2,1.6v16.7c0,0.2-0.1,0.3-0.2,0.4c-0.1,0.1-0.5,0.1-1,0.2l-0.5,0
		L164.5,407.2z M178.6,390.3c0.9,0,1.6-0.3,2.1-0.9c0.5-0.6,0.8-1.2,0.8-2s-0.3-1.4-0.8-2c-0.5-0.6-1.2-0.8-2.1-0.8
		c-0.8,0-1.5,0.3-2.1,0.8c-0.5,0.6-0.8,1.2-0.8,2s0.3,1.4,0.8,2C177,390,177.7,390.3,178.6,390.3L178.6,390.3z M174.4,407.2h8.8
		l-0.1-0.6l-0.3,0c-0.7-0.1-1.2-0.2-1.3-0.2c-0.2-0.1-0.3-0.2-0.3-0.3v-14l-6.9,1.9l0,0.4l0.7,0.2c0.6,0.2,1,0.4,1.2,0.7
		c0.2,0.3,0.3,1,0.3,2v8.8c0,0.2-0.1,0.3-0.3,0.4c-0.2,0.1-0.5,0.1-1.1,0.2l-0.5,0L174.4,407.2z M196.3,407.7c1.3,0,2.8-1,4.5-3.1
		l-0.3-0.4c-0.6,0.7-1.1,1-1.4,1c-0.8,0-1.2-0.6-1.2-1.8l0.3-5.9c0.1-1.9-0.3-3.3-1.2-4.2c-0.9-0.9-2.3-1.3-4.2-1.3
		c-1.8,0-3.6,0.4-5.4,1.3c-1.8,0.8-2.6,1.8-2.6,3c0,0.6,0.2,1,0.6,1.3c0.4,0.3,0.9,0.5,1.6,0.5c0.6,0,1.2-0.2,1.6-0.6
		c0.4-0.4,0.6-0.9,0.6-1.4c0-0.4-0.2-0.8-0.5-1.3c-0.4-0.5-0.5-0.7-0.5-0.8c0-0.4,0.6-0.7,1.8-0.7c1.1,0,1.9,0.4,2.5,1.1
		c0.6,0.8,0.9,1.7,0.8,2.9l0,0.9c-3.1,0.8-5.3,1.7-6.6,2.6s-2,2-2,3.3c0,1,0.4,1.8,1.1,2.4c0.7,0.7,1.6,1,2.6,1
		c0.9,0,1.7-0.3,2.4-0.8c0.7-0.5,1.5-1.3,2.5-2.4l0.1,0c0.1,1,0.4,1.8,1,2.4C194.8,407.4,195.5,407.7,196.3,407.7L196.3,407.7z
		 M191.2,404.8c-0.6,0-1.1-0.2-1.4-0.6c-0.3-0.4-0.5-0.9-0.5-1.6c0-0.8,0.3-1.6,0.9-2.1c0.6-0.6,1.6-1.1,3.1-1.5l-0.2,4.7
		C192.4,404.4,191.8,404.8,191.2,404.8L191.2,404.8z M201.2,407.2h8.7l-0.1-0.6l-0.5,0c-0.9-0.1-1.3-0.2-1.3-0.5v-10.3
		c0.7-0.4,1.5-0.7,2.3-0.7c0.9,0,1.5,0.2,2,0.7c0.4,0.5,0.7,1.3,0.7,2.5v7.8c0,0.2-0.1,0.3-0.2,0.4c-0.1,0.1-0.4,0.1-1,0.2l-0.5,0
		l-0.1,0.6h8.7l-0.1-0.6l-0.4,0c-1.1-0.2-1.6-0.3-1.6-0.6v-8.8c0-1.9-0.4-3.2-1.1-4c-0.8-0.8-1.7-1.2-2.7-1.2c-1.5,0-3.5,1-5.8,2.9
		h-0.1l0.1-2.9l-7,1.9l0,0.4l0.7,0.2c0.6,0.2,1,0.4,1.2,0.7c0.2,0.3,0.3,1,0.3,2v8.8c0,0.2-0.1,0.3-0.3,0.4
		c-0.2,0.1-0.5,0.1-1.1,0.2l-0.5,0L201.2,407.2z M226.3,407.7c2.1,0,3.7-0.5,4.9-1.4c1.1-1,1.7-2.1,1.7-3.6c0-0.7-0.1-1.3-0.4-1.8
		s-0.6-1-1.2-1.4c-0.6-0.4-1-0.7-1.4-0.9c-0.4-0.2-1-0.5-1.8-0.8c-0.7-0.2-1.2-0.4-1.4-0.6c-0.3-0.1-0.6-0.3-1-0.6
		c-0.4-0.2-0.7-0.5-0.8-0.8c-0.2-0.3-0.2-0.6-0.2-1c0-0.7,0.2-1.2,0.6-1.6c0.4-0.4,1-0.6,1.7-0.6c0.6,0,1.3,0.2,1.9,0.5l2.5,3.8
		l0.9,0l-0.2-4.8l-1.6,0.3c-1.1-0.4-2.2-0.5-3.5-0.5c-1.8,0-3.3,0.4-4.4,1.3c-1.1,0.9-1.7,2.1-1.7,3.6c0,1.2,0.4,2.2,1.2,2.9
		c0.8,0.7,1.9,1.3,3.5,1.9c0.5,0.2,0.8,0.3,1,0.4c0.1,0.1,0.4,0.2,0.8,0.4c0.4,0.2,0.7,0.3,0.8,0.4c0.1,0.1,0.3,0.3,0.5,0.5
		c0.2,0.2,0.4,0.4,0.4,0.6c0.1,0.2,0.1,0.4,0.1,0.7c0,0.7-0.2,1.3-0.7,1.7c-0.5,0.4-1.1,0.6-1.9,0.6c-0.8,0-1.5-0.2-2-0.6
		c-0.5-0.4-1.1-1-1.7-2l-0.9-1.9l-0.9-0.1l0.1,4.3C222.4,407.4,224.2,407.7,226.3,407.7L226.3,407.7z"/>
	<path class="st0" d="M117.3,301.1c0,1.7,0.3,4.7,2.2,6.8c1.7,1.7,4.1,2.5,6.5,2.5c1.5,0,4.5-0.3,6.5-2.6c1.5-1.7,2.3-4.5,2.3-7.1
		c0-1.8-0.4-4.6-2.3-6.9c-1.8-2-4.5-2.5-6.4-2.5C119.5,291.3,117.3,296.2,117.3,301.1L117.3,301.1z M121.4,300.9
		c0-2.1,0.3-4,1.3-5.3c0.7-0.9,1.9-1.5,3.4-1.5c1.9,0,3.4,1,4.2,3.2c0.4,1.1,0.5,2.4,0.5,3.3c0,2.9-0.6,4.3-1.2,5.2
		c-0.7,1.1-1.8,1.7-3.4,1.7c-1.8,0-2.8-0.7-3.3-1.5C121.7,304.6,121.4,302.7,121.4,300.9L121.4,300.9z M138,309.9h3.7v-15.1
		l7.1,15.1h5.4v-18.2h-3.6V306l-6.8-14.4H138V309.9z M157.8,309.9h11.8v-3.1h-7.8v-15.1h-4V309.9z M167.3,291.8l6.2,11.5v6.7h3.9
		v-6.6l6.2-11.5h-4l-3.8,8.3l-3.8-8.3H167.3z"/>
	<g>
		<g>
			<g>
				<path class="st1" d="M107.2,439.1l1.9,7.7l2.2-7.7h3.3l2.1,7.7l2-7.7h3l-3.5,10.2h-3.2l-2.1-7.5l-2.1,7.5h-3.3l-3.3-10.2H107.2z
					"/>
				<path class="st1" d="M123.3,434.7h3.2v2.6h-3.2V434.7z M123.4,439.1h3v10.2h-3V439.1z"/>
				<path class="st1" d="M129.2,434.7h3v14.6h-3V434.7z"/>
				<path class="st1" d="M135,434.7h3v14.6h-3V434.7z"/>
				<path class="st1" d="M146.6,441.6c0-0.5-0.1-2-0.1-2.5h2.8l0.1,2c0.4-0.9,1-2.1,3.5-2v2.7c-3-0.3-3.2,1.3-3.2,2.5v5h-3V441.6z"
					/>
			</g>
			<g>
				<path class="st1" d="M156.4,444.9c0,0.7,0,2.7,2.1,2.7c0.7,0,1.5-0.3,1.8-1.4h2.7c0,0.5-0.1,1.4-1,2.2c-0.7,0.8-2.1,1.2-3.6,1.2
					c-0.9,0-2.5-0.2-3.6-1.3c-0.9-1-1.3-2.3-1.3-4c0-1.7,0.4-3.6,2.1-4.8c0.8-0.5,1.8-0.8,2.9-0.8c1.5,0,3.2,0.6,4.1,2.5
					c0.7,1.4,0.6,2.9,0.6,3.7H156.4z M160.2,443.1c0-0.5,0-2.3-1.8-2.3c-1.3,0-1.9,1.1-1.9,2.3H160.2z"/>
				<path class="st1" d="M171.4,449.1c-1,0.3-1.8,0.3-2.3,0.3c-3,0-3-1.9-3-2.7v-5.6h-2v-2h2v-2l3-1.1v3.1h2.4v2h-2.4v4.6
					c0,0.9,0,1.5,1.4,1.5c0.4,0,0.6,0,1-0.1V449.1z"/>
				<path class="st1" d="M173.4,434.7h3.2v2.6h-3.2V434.7z M173.5,439.1h3v10.2h-3V439.1z"/>
				<path class="st1" d="M179.3,441.6c0-0.5-0.1-2-0.1-2.5h2.8l0.1,2c0.4-0.9,1-2.1,3.5-2v2.7c-3-0.3-3.2,1.3-3.2,2.5v5h-3V441.6z"
					/>
			</g>
			<g>
				<path class="st1" d="M189.1,444.9c0,0.7,0,2.7,2.1,2.7c0.7,0,1.5-0.3,1.8-1.4h2.7c0,0.5-0.1,1.4-1,2.2c-0.7,0.8-2.1,1.2-3.6,1.2
					c-0.9,0-2.5-0.2-3.6-1.3c-0.9-1-1.3-2.3-1.3-4c0-1.7,0.4-3.6,2.1-4.8c0.8-0.5,1.8-0.8,2.9-0.8c1.5,0,3.2,0.6,4.1,2.5
					c0.7,1.4,0.6,2.9,0.6,3.7H189.1z M192.9,443.1c0-0.5,0-2.3-1.8-2.3c-1.3,0-1.9,1.1-1.9,2.3H192.9z"/>
			</g>
		</g>
		<g>
			<g>
				<g>
					<path class="st1" d="M64.8,465h-1.5v-2.1h1.5v-1.4c0-1.8,0.6-3.2,3.5-3.2c0.2,0,0.8,0,1.6,0.1v2.1c-0.3,0-0.4-0.1-0.6-0.1
						c-1.5,0-1.5,0.8-1.5,1.3v1.2h1.9v2.1h-1.9v8.1h-3V465z M71.1,458.5h3.2v2.6h-3.2V458.5z M71.2,462.8h3V473h-3V462.8z"/>
				</g>
				<g>
					<path class="st1" d="M77.1,464.6c0,0,0-1.1-0.1-1.9h2.9l0.1,1.5c0.3-0.5,1.1-1.8,3.3-1.8c2,0,2.8,1.2,3.1,1.9
						c0.2,0.6,0.3,1.1,0.3,3v5.5h-3v-6.3c0-0.4,0-0.8-0.2-1.1c-0.2-0.4-0.7-0.9-1.5-0.9c-0.6,0-1.2,0.3-1.6,0.8
						c-0.2,0.3-0.4,0.8-0.4,1.6v6h-3V464.6z"/>
					<path class="st1" d="M95.7,473c-0.1-0.6-0.1-1.1-0.1-1.4c-1.1,1.6-2.5,1.6-3,1.6c-1.5,0-2.1-0.4-2.5-0.8
						c-0.6-0.6-0.9-1.4-0.9-2.2c0-0.8,0.3-2.3,2.2-3.2c1.3-0.6,3-0.6,4-0.6c0-0.7,0-1-0.1-1.4c-0.3-0.7-1-0.8-1.3-0.8
						c-0.4,0-0.9,0.2-1.1,0.6c-0.2,0.3-0.2,0.7-0.2,0.9h-2.9c0-0.5,0.1-1.6,1.1-2.4c0.9-0.7,2.1-0.8,3.1-0.8c0.8,0,2.6,0.1,3.6,1.3
						c0.7,0.8,0.7,2,0.7,2.5l0,4.1c0,0.9,0.1,1.7,0.2,2.6H95.7z M92,469.9c0,0.7,0.5,1.5,1.5,1.5c0.5,0,1-0.3,1.3-0.6
						c0.5-0.6,0.6-1.4,0.6-2.5C93.4,468.1,92,468.7,92,469.9z"/>
					<path class="st1" d="M101,464.6c0,0,0-1.1-0.1-1.9h2.9l0.1,1.5c0.3-0.5,1.1-1.8,3.3-1.8c2,0,2.8,1.2,3.1,1.9
						c0.2,0.6,0.3,1.1,0.3,3v5.5h-3v-6.3c0-0.4,0-0.8-0.2-1.1c-0.2-0.4-0.7-0.9-1.5-0.9c-0.6,0-1.2,0.3-1.6,0.8
						c-0.2,0.3-0.4,0.8-0.4,1.6v6h-3V464.6z"/>
					<path class="st1" d="M118.9,466.4c0-0.4-0.2-1.9-1.3-1.9c-1.4,0-1.6,2.1-1.6,3.2c0,0.6,0.1,2.4,0.7,3.1
						c0.3,0.3,0.6,0.3,0.8,0.3c0.3,0,1.3-0.1,1.4-2h2.9c0,0.8-0.1,2-1.3,3c-0.7,0.6-1.6,0.9-2.9,0.9c-1.4,0-2.5-0.3-3.5-1.4
						c-0.9-1-1.3-2.4-1.3-4c0-4.6,3.4-5.3,4.8-5.3c1.9,0,4.1,1,4.2,3.8H118.9z"/>
					<path class="st1" d="M123.7,458.5h3.2v2.6h-3.2V458.5z M123.8,462.8h3V473h-3V462.8z"/>
					<path class="st1" d="M135.7,473c-0.1-0.6-0.1-1.1-0.1-1.4c-1.1,1.6-2.5,1.6-3,1.6c-1.5,0-2.1-0.4-2.5-0.8
						c-0.6-0.6-0.9-1.4-0.9-2.2c0-0.8,0.3-2.3,2.2-3.2c1.3-0.6,3-0.6,4-0.6c0-0.7,0-1-0.1-1.4c-0.3-0.7-1-0.8-1.3-0.8
						c-0.4,0-0.9,0.2-1.1,0.6c-0.2,0.3-0.2,0.7-0.2,0.9h-2.9c0-0.5,0.1-1.6,1.1-2.4c0.9-0.7,2.1-0.8,3.1-0.8c0.8,0,2.6,0.1,3.6,1.3
						c0.7,0.8,0.7,2,0.7,2.5l0,4.1c0,0.9,0.1,1.7,0.2,2.6H135.7z M132,469.9c0,0.7,0.5,1.5,1.5,1.5c0.5,0,1-0.3,1.3-0.6
						c0.5-0.6,0.6-1.4,0.6-2.5C133.4,468.1,132,468.7,132,469.9z"/>
					<path class="st1" d="M141,458.4h3V473h-3V458.4z"/>
					<path class="st1" d="M146.8,458.4h3V473h-3V458.4z"/>
					<path class="st1" d="M154.8,462.8l2.2,7.1l2.3-7.1h3l-3.9,10l-1.2,4.1h-3l1.3-3.8l-3.9-10.2H154.8z"/>
				</g>
			</g>
			<g>
				<g>
					<path class="st1" d="M171.6,470.1c0,0.6,0.4,1.4,1.7,1.4c1.1,0,1.6-0.6,1.6-1.2c0-0.5-0.2-0.8-1.4-1.1l-1.9-0.5
						c-0.8-0.2-2.6-0.7-2.6-2.8c0-2,1.8-3.2,4.5-3.2c2.1,0,3.8,1,3.9,3h-2.7c-0.1-1.1-1-1.2-1.5-1.2c-0.8,0-1.4,0.4-1.4,1
						c0,0.7,0.5,0.8,1.4,1.1l1.8,0.5c1.9,0.5,2.7,1.5,2.7,2.8c0,1.8-1.5,3.5-4.7,3.5c-1.3,0-2.6-0.3-3.5-1.2c-0.7-0.7-0.7-1.5-0.7-2
						H171.6z"/>
					<path class="st1" d="M182.2,468.7c0,0.7,0,2.7,2.1,2.7c0.7,0,1.5-0.3,1.8-1.4h2.7c0,0.5-0.1,1.4-1,2.2
						c-0.7,0.8-2.1,1.2-3.6,1.2c-0.9,0-2.5-0.2-3.6-1.3c-0.9-1-1.3-2.3-1.3-4c0-1.7,0.4-3.6,2.1-4.8c0.8-0.5,1.8-0.8,2.9-0.8
						c1.5,0,3.2,0.6,4.1,2.5c0.7,1.4,0.6,2.9,0.6,3.7H182.2z M186,466.8c0-0.5,0-2.3-1.8-2.3c-1.3,0-1.9,1.1-1.9,2.3H186z"/>
					<path class="st1" d="M196.6,466.4c0-0.4-0.2-1.9-1.3-1.9c-1.4,0-1.6,2.1-1.6,3.2c0,0.6,0.1,2.4,0.7,3.1
						c0.3,0.3,0.6,0.3,0.8,0.3c0.3,0,1.3-0.1,1.4-2h2.9c0,0.8-0.1,2-1.3,3c-0.7,0.6-1.6,0.9-2.9,0.9c-1.4,0-2.5-0.3-3.5-1.4
						c-0.9-1-1.3-2.4-1.3-4c0-4.6,3.4-5.3,4.8-5.3c1.9,0,4.1,1,4.2,3.8H196.6z"/>
					<path class="st1" d="M204.4,462.8v6.1c0,0.9,0,2.2,1.6,2.2c1.9,0,1.9-1.4,1.9-3.2v-5.1h3.1v6.7c0,2.2,0.1,2.5,0.1,2.7
						c0,0.3,0,0.5,0.1,0.7h-2.9l-0.1-1.4c-0.3,0.4-1.1,1.6-3,1.6c-1.4,0-2.5-0.6-3.1-1.4c-0.7-0.8-0.7-2.2-0.7-2.7v-6.3H204.4z"/>
					<path class="st1" d="M214,465.3c0-0.5-0.1-2-0.1-2.5h2.8l0.1,2c0.4-0.9,1-2.1,3.5-2v2.7c-3-0.3-3.2,1.3-3.2,2.5v5h-3V465.3z"/>
				</g>
				<g>
					<path class="st1" d="M223.9,468.7c0,0.7,0,2.7,2.1,2.7c0.7,0,1.5-0.3,1.8-1.4h2.7c0,0.5-0.1,1.4-1,2.2
						c-0.7,0.8-2.1,1.2-3.6,1.2c-0.9,0-2.5-0.2-3.6-1.3c-0.9-1-1.3-2.3-1.3-4c0-1.7,0.4-3.6,2.1-4.8c0.8-0.5,1.8-0.8,2.9-0.8
						c1.5,0,3.2,0.6,4.1,2.5c0.7,1.4,0.6,2.9,0.6,3.7H223.9z M227.7,466.8c0-0.5,0-2.3-1.8-2.3c-1.3,0-1.9,1.1-1.9,2.3H227.7z"/>
					<path class="st1" d="M234.4,469l-0.4-10.6h2.7l-0.3,10.6H234.4z M234.2,470.3h2.6v2.7h-2.6V470.3z"/>
				</g>
			</g>
		</g>
	</g>
</g>
</svg>
