<?xml version="1.0" encoding="utf-8"?>
<!-- Generator: Adobe Illustrator 22.1.0, SVG Export Plug-In . SVG Version: 6.00 Build 0)  -->
<svg version="1.1" id="Layer_1" xmlns="http://www.w3.org/2000/svg" xmlns:xlink="http://www.w3.org/1999/xlink" x="0px" y="0px"
	 viewBox="0 0 300 600" style="enable-background:new 0 0 300 600;" xml:space="preserve">
<style type="text/css">
	.st0{fill:#FFFFFF;}
	.st1{fill:#B78CAE;}
</style>
<g>
	<g>
		<path class="st0" d="M88.9,158.3h8.6c4,0,7.4,0.3,9.7,3.1c1.5,1.8,1.7,3.8,1.7,5.2c0,3.2-1.4,6-3.6,7.4c-2,1.3-4.9,1.3-6.3,1.3H95
			v10.9h-6.1V158.3z M94.8,170.8h2.4c1.9,0,5.5,0,5.5-4.2c0-3.8-3.2-3.8-4.9-3.8h-3V170.8z"/>
		<path class="st0" d="M111.6,158.2h5.7v27.9h-5.7V158.2z"/>
		<path class="st0" d="M127.1,166.6v11.6c0,1.7,0,4.3,3.1,4.3c3.7,0,3.7-2.7,3.7-6.1v-9.8h5.9v12.9c0.1,4.2,0.1,4.7,0.1,5.2
			c0,0.5,0.1,0.9,0.2,1.4h-5.6l-0.2-2.6c-0.6,0.8-2,3.1-5.8,3.1c-2.6,0-4.8-1.2-5.9-2.6c-1.3-1.6-1.3-4.3-1.3-5.3v-12.1H127.1z"/>
		<path class="st0" d="M148.2,180.5c0.1,1.2,0.8,2.7,3.2,2.7c2,0,3-1.2,3-2.3c0-0.9-0.5-1.6-2.7-2.2l-3.6-1
			c-1.6-0.5-4.9-1.4-4.9-5.4c0-3.8,3.5-6.1,8.5-6.1c4,0,7.3,1.9,7.4,5.8H154c-0.2-2.2-1.9-2.3-2.8-2.3c-1.5,0-2.7,0.7-2.7,1.9
			c0,1.3,1,1.6,2.7,2l3.5,1c3.6,1,5.2,2.8,5.2,5.4c0,3.4-2.9,6.7-9,6.7c-2.5,0-4.9-0.5-6.7-2.4c-1.3-1.4-1.4-2.9-1.4-3.8H148.2z"/>
		<path class="st0" d="M176.4,180.5c0.1,1.2,0.8,2.7,3.2,2.7c2,0,3-1.2,3-2.3c0-0.9-0.5-1.6-2.7-2.2l-3.6-1
			c-1.6-0.5-4.9-1.4-4.9-5.4c0-3.8,3.5-6.1,8.5-6.1c4,0,7.3,1.9,7.4,5.8h-5.2c-0.2-2.2-1.9-2.3-2.8-2.3c-1.5,0-2.7,0.7-2.7,1.9
			c0,1.3,1,1.6,2.7,2l3.5,1c3.6,1,5.2,2.8,5.2,5.4c0,3.4-2.9,6.7-9,6.7c-2.5,0-4.9-0.5-6.7-2.4c-1.3-1.4-1.4-2.9-1.4-3.8H176.4z"/>
		<path class="st0" d="M200.1,166.2c7.1,0,10.1,4.8,10.1,10.2c0,5.5-3.2,10.4-10.2,10.4c-5.6,0-10-3.4-10-10.3
			C190,171.8,192.4,166.2,200.1,166.2z M200.2,182.9c2.5,0,4.2-1.5,4.2-6.7c0-2.6-0.5-6.2-4.3-6.2c-4.2,0-4.2,4.8-4.2,6.6
			C195.9,181,197.3,182.9,200.2,182.9z"/>
	</g>
	<g>
		<path class="st1" d="M50.3,209.7c0-1.2-0.1-2.4-0.2-3.7h5.5l0.2,2.5c0.6-0.8,2.1-2.9,6-2.9c4.5,0,5.8,2.7,6.1,3.7
			c1.6-3.1,4.2-3.6,6.3-3.6c3.9,0,5.5,2.4,5.9,3.1c1,1.7,1,4.1,1,5.8v11h-5.8v-11.5c0-2.1-0.3-4.4-3.3-4.4c-3.4,0-3.5,3.2-3.5,6.1
			v9.8h-5.8V214c0-1.5,0-4.3-3.2-4.3c-3.6,0-3.6,3.1-3.6,4.4v11.5h-5.8V209.7z"/>
		<path class="st1" d="M91.2,206.1v11.6c0,1.7,0,4.3,3.1,4.3c3.7,0,3.7-2.7,3.7-6.1v-9.8h5.9v12.9c0.1,4.2,0.1,4.7,0.1,5.2
			c0,0.5,0.1,0.9,0.2,1.4h-5.6l-0.2-2.6c-0.6,0.8-2,3.1-5.8,3.1c-2.6,0-4.8-1.2-5.9-2.6c-1.3-1.6-1.3-4.3-1.3-5.3v-12.1H91.2z"/>
	</g>
	<g>
		<path class="st1" d="M118.6,213c-0.1-0.7-0.3-3.6-2.5-3.6c-2.7,0-3,4.1-3,6.2c0,1.1,0.1,4.6,1.4,6c0.5,0.6,1.1,0.7,1.5,0.7
			c0.6,0,2.4-0.3,2.6-3.7h5.6c-0.1,1.5-0.3,3.9-2.5,5.8c-1.4,1.2-3.1,1.8-5.6,1.8c-2.6,0-4.9-0.6-6.6-2.6c-1.7-2-2.5-4.6-2.5-7.7
			c0-8.9,6.5-10.1,9.1-10.1c3.6,0,7.9,2,8,7.3H118.6z"/>
		<path class="st1" d="M127.3,197.7h5.7v11c0.7-0.9,2.1-2.9,5.6-2.9c2.9,0,4.7,1.4,5.7,2.6c0.7,1,1.3,2.7,1.3,5.3v11.9h-5.7v-11.7
			c0-1.1,0-4.2-3.2-4.2c-1.6,0-3.7,0.9-3.7,4l0,11.9h-5.8V197.7z"/>
	</g>
	<g>
		<path class="st1" d="M160.1,209.7c0-1.2-0.1-2.4-0.2-3.7h5.5l0.2,2.5c0.6-0.8,2.1-2.9,6-2.9c4.5,0,5.8,2.7,6.1,3.7
			c1.6-3.1,4.2-3.6,6.3-3.6c3.9,0,5.5,2.4,5.9,3.1c1,1.7,1,4.1,1,5.8v11h-5.8v-11.5c0-2.1-0.3-4.4-3.3-4.4c-3.4,0-3.5,3.2-3.5,6.1
			v9.8h-5.8V214c0-1.5,0-4.3-3.2-4.3c-3.6,0-3.6,3.1-3.6,4.4v11.5h-5.8V209.7z"/>
		<path class="st1" d="M204.7,205.6c7.1,0,10.1,4.8,10.1,10.2c0,5.5-3.2,10.4-10.2,10.4c-5.6,0-10-3.4-10-10.3
			C194.6,211.3,197,205.6,204.7,205.6z M204.8,222.3c2.5,0,4.2-1.5,4.2-6.7c0-2.6-0.5-6.2-4.3-6.2c-4.2,0-4.2,4.8-4.2,6.6
			C200.5,220.4,202,222.3,204.8,222.3z"/>
		<path class="st1" d="M218.2,210.8c0-0.9-0.2-3.7-0.3-4.9h5.4l0.1,3.7c0.7-1.7,2-4,6.6-3.8v5.1c-5.8-0.5-6.1,2.4-6.1,4.9v9.6h-5.7
			V210.8z"/>
		<path class="st1" d="M236.9,217.3c0,1.3,0,5.2,4,5.2c1.4,0,2.9-0.5,3.4-2.7h5.2c-0.1,0.9-0.3,2.6-1.9,4.2c-1.4,1.5-4,2.3-6.8,2.3
			c-1.7,0-4.8-0.3-6.9-2.4c-1.8-1.9-2.5-4.5-2.5-7.6c0-3.2,0.8-7,4.1-9.2c1.5-1,3.4-1.6,5.5-1.6c2.8,0,6.1,1.1,7.9,4.7
			c1.3,2.7,1.2,5.5,1.2,7.1H236.9z M244.1,213.7c0-0.9-0.1-4.4-3.4-4.4c-2.5,0-3.6,2.1-3.7,4.4H244.1z"/>
	</g>
</g>
</svg>
