<?xml version="1.0" encoding="utf-8"?>
<!-- Generator: Adobe Illustrator 22.1.0, SVG Export Plug-In . SVG Version: 6.00 Build 0)  -->
<svg version="1.1" id="Layer_1" xmlns="http://www.w3.org/2000/svg" xmlns:xlink="http://www.w3.org/1999/xlink" x="0px" y="0px"
	 viewBox="0 0 300 600" style="enable-background:new 0 0 300 600;" xml:space="preserve">
<style type="text/css">
	.st0{fill:#FFFFFF;}
</style>
<g>
	<g>
		<path class="st0" d="M83.2,40.5h3.3V53H93v2.6h-9.8V40.5z"/>
		<path class="st0" d="M97.2,51.1c0,0.7,0,2.8,2.2,2.8c0.8,0,1.5-0.3,1.8-1.5h2.8c0,0.5-0.1,1.4-1,2.3c-0.8,0.8-2.2,1.2-3.7,1.2
			c-0.9,0-2.6-0.2-3.7-1.3c-1-1-1.4-2.4-1.4-4.1c0-1.7,0.4-3.8,2.2-5c0.8-0.5,1.8-0.9,3-0.9c1.5,0,3.3,0.6,4.3,2.6
			c0.7,1.4,0.7,3,0.6,3.9H97.2z M101.2,49.2c0-0.5,0-2.4-1.8-2.4c-1.4,0-1.9,1.1-2,2.4H101.2z"/>
		<path class="st0" d="M112.7,55.6c-0.1-0.6-0.1-1.1-0.1-1.4c-1.2,1.7-2.6,1.7-3.2,1.7c-1.5,0-2.2-0.4-2.6-0.8
			c-0.6-0.6-0.9-1.5-0.9-2.3s0.3-2.4,2.2-3.3c1.3-0.6,3.2-0.6,4.2-0.6c0-0.7,0-1-0.1-1.4c-0.3-0.8-1.1-0.9-1.4-0.9
			c-0.4,0-0.9,0.2-1.2,0.6c-0.2,0.4-0.2,0.7-0.2,0.9h-3c0-0.6,0.1-1.7,1.2-2.5c1-0.7,2.2-0.9,3.2-0.9c0.9,0,2.7,0.1,3.8,1.4
			c0.7,0.9,0.7,2.1,0.7,2.6l0,4.2c0,0.9,0.1,1.8,0.3,2.7H112.7z M108.9,52.3c0,0.7,0.5,1.5,1.5,1.5c0.6,0,1-0.3,1.3-0.6
			c0.5-0.7,0.6-1.5,0.6-2.6C110.3,50.5,108.9,51.1,108.9,52.3z"/>
		<path class="st0" d="M118,47.6c0-0.5-0.1-2-0.1-2.6h2.9l0.1,2c0.4-0.9,1.1-2.2,3.6-2v2.8c-3.1-0.3-3.3,1.3-3.3,2.6v5.2H118V47.6z"
			/>
	</g>
	<g>
		<path class="st0" d="M125.3,46.9c0,0,0-1.2-0.1-1.9h3l0.1,1.6c0.3-0.5,1.1-1.8,3.4-1.8c2.1,0,2.9,1.3,3.2,2
			c0.2,0.6,0.3,1.2,0.3,3.2v5.7h-3.2V49c0-0.4,0-0.8-0.2-1.2c-0.2-0.5-0.7-0.9-1.5-0.9c-0.7,0-1.3,0.3-1.6,0.8
			c-0.2,0.3-0.4,0.8-0.4,1.6v6.2h-3.1V46.9z"/>
		<path class="st0" d="M144,40.5h3.1v6c0.4-0.5,1.1-1.6,3.1-1.6c1.6,0,2.6,0.8,3.1,1.4c0.4,0.5,0.7,1.5,0.7,2.9v6.4h-3.1v-6.3
			c0-0.6,0-2.3-1.7-2.3c-0.9,0-2,0.5-2,2.2l0,6.5H144V40.5z"/>
		<path class="st0" d="M161.6,44.8c3.8,0,5.5,2.6,5.5,5.5c0,3-1.7,5.6-5.5,5.6c-3,0-5.4-1.9-5.4-5.6
			C156.2,47.9,157.5,44.8,161.6,44.8z M161.7,53.8c1.4,0,2.3-0.8,2.3-3.6c0-1.4-0.3-3.3-2.3-3.3c-2.3,0-2.3,2.6-2.3,3.6
			C159.4,52.8,160.2,53.8,161.7,53.8z"/>
	</g>
	<g>
		<path class="st0" d="M171.1,45l1.9,8l2.2-8h3.4l2.2,8l2.1-8h3.1l-3.6,10.6H179l-2.2-7.8l-2.2,7.8h-3.4L167.8,45H171.1z"/>
	</g>
	<g>
		<path class="st0" d="M199.6,55.5c-1,0.3-1.9,0.3-2.4,0.3c-3.1,0-3.1-2-3.1-2.8v-5.8h-2v-2h2V43l3.1-1.1v3.2h2.5v2h-2.5v4.8
			c0,1,0,1.6,1.4,1.6c0.5,0,0.7,0,1-0.1V55.5z"/>
		<path class="st0" d="M206.1,44.8c3.8,0,5.5,2.6,5.5,5.5c0,3-1.7,5.6-5.5,5.6c-3,0-5.4-1.9-5.4-5.6C200.7,47.9,202,44.8,206.1,44.8
			z M206.2,53.8c1.4,0,2.3-0.8,2.3-3.6c0-1.4-0.3-3.3-2.3-3.3c-2.3,0-2.3,2.6-2.3,3.6C203.8,52.8,204.6,53.8,206.2,53.8z"/>
	</g>
	<g>
		<path class="st0" d="M214.2,45h2.6v2.8h-2.6V45z M214.2,52.8h2.6v2.8h-2.6V52.8z"/>
	</g>
</g>
</svg>
