<?xml version="1.0" encoding="utf-8"?>
<!-- Generator: Adobe Illustrator 22.1.0, SVG Export Plug-In . SVG Version: 6.00 Build 0)  -->
<svg version="1.1" id="Layer_1" xmlns="http://www.w3.org/2000/svg" xmlns:xlink="http://www.w3.org/1999/xlink" x="0px" y="0px"
	 viewBox="0 0 300 600" style="enable-background:new 0 0 300 600;" xml:space="preserve">
<style type="text/css">
	.st0{fill:#FFFFFF;}
</style>
<g>
	<polygon class="st0" points="106.7,517.1 113,523.8 100.9,535.3 97.7,531.9 88.7,540.4 92,543.9 90.4,545.4 84,538.6 106.7,517.1 	
		"/>
	<polygon class="st0" points="119.5,556.9 113.1,550.1 125.3,538.5 128.6,542 137.8,533.2 134.4,529.7 136.1,528.1 142.7,535 
		119.5,556.9 	"/>
	<polygon class="st0" points="93.1,544.5 99.8,538.1 111,549.9 107.9,552.8 116.6,562 120,558.9 121.1,560.1 114.1,566.7 
		93.1,544.5 	"/>
	<polygon class="st0" points="133.1,530.6 125.8,537.2 114.6,525.4 117.9,522.2 109.3,513.2 105.9,516.4 104.7,515.1 111.9,508.3 
		133,530.5 133.1,530.6 	"/>
	<path class="st0" d="M212.1,553.3l0.4,0.3v9.5c0,1.1,0.1,1.8,0.4,2.1c0.2,0.3,0.7,0.5,1.4,0.5h0.1v1.1h-7v-1.1h0.1
		c0.7,0,1.1-0.2,1.4-0.5c0.2-0.3,0.4-1,0.4-2.1v-6.6l-1.5-0.9v-0.4L212.1,553.3L212.1,553.3z"/>
	<path class="st0" d="M208.8,548.1c0-0.5,0.2-0.9,0.6-1.4c0.4-0.4,0.9-0.6,1.4-0.6c0.5,0,1,0.2,1.4,0.6c0.4,0.4,0.6,0.8,0.6,1.4
		c0,0.6-0.2,1-0.6,1.4c-0.4,0.4-0.8,0.6-1.4,0.6c-0.5,0-1-0.2-1.4-0.6C209,549,208.8,548.6,208.8,548.1L208.8,548.1z"/>
	<path class="st0" d="M203.8,565.6c-0.5,0.4-1,0.7-1.5,0.9c-0.6,0.2-1.2,0.3-1.9,0.3c-1.3,0-2.1-0.3-2.7-0.9
		c-0.5-0.6-0.8-1.7-0.8-3.3v-7.5h-1.9v-0.7l4.5-3.9h0.8v3.1h2.9v1.5h-2.9v7c0,1.3,0.1,2.1,0.3,2.5c0.2,0.3,0.6,0.5,1.2,0.5
		c0.2,0,0.4,0,0.7-0.1c0.3-0.1,0.5-0.2,0.8-0.3L203.8,565.6L203.8,565.6z"/>
	<path class="st0" d="M189.4,553.3l0.4,0.3v9.5c0,1.1,0.1,1.8,0.4,2.1c0.2,0.3,0.7,0.5,1.4,0.5h0.1v1.1h-7v-1.1h0.1
		c0.7,0,1.1-0.2,1.4-0.5c0.2-0.3,0.4-1,0.4-2.1v-6.6l-1.5-0.9v-0.4L189.4,553.3L189.4,553.3z"/>
	<path class="st0" d="M186.1,548.1c0-0.5,0.2-0.9,0.6-1.4c0.4-0.4,0.9-0.6,1.4-0.6c0.5,0,1,0.2,1.4,0.6c0.4,0.4,0.6,0.8,0.6,1.4
		c0,0.6-0.2,1-0.6,1.4c-0.4,0.4-0.8,0.6-1.4,0.6c-0.5,0-1-0.2-1.4-0.6C186.3,549,186.1,548.6,186.1,548.1L186.1,548.1z"/>
	<path class="st0" d="M175.4,557.6c0-1-0.2-1.7-0.5-2c-0.3-0.4-0.9-0.6-1.8-0.6v-1.1l5.5-0.3v9.9c0,1.5,0.1,2.7,1.8,2.2l0,1.2
		l-5.1,0v-1.6c-1,0.6-1.9,1-2.6,1.2c-0.8,0.3-1.5,0.4-2.2,0.4c-1.4,0-2.4-0.4-3-1.2c-0.6-0.8-0.9-2.2-0.9-4.2v-4
		c0-0.9-0.1-1.6-0.4-1.9c-0.3-0.4-0.8-0.6-1.5-0.7v-1.1l5.3-0.3v8.4c0,1.3,0.2,2.2,0.5,2.6c0.3,0.5,0.8,0.7,1.6,0.7
		c0.4,0,0.9-0.1,1.4-0.3c0.5-0.2,1.1-0.5,1.8-0.9V557.6L175.4,557.6z"/>
	<path class="st0" d="M160.1,570.3c0,1.1,0.1,1.8,0.4,2.1c0.2,0.3,0.7,0.5,1.4,0.5h0.1v1.1h-7.3v-1.1h0.3c0.7,0,1.2-0.1,1.4-0.4
		c0.2-0.3,0.4-1,0.4-2.2v-4.6c-0.6,0.4-1.2,0.7-1.8,0.9c-0.5,0.2-1,0.2-1.6,0.3v-1.6c0.2,0,0.4,0.1,0.6,0.1c0.4,0,0.8-0.1,1.3-0.2
		c0.5-0.2,1-0.4,1.5-0.7l0,0v-6.6c0-1-0.3-1.8-0.8-2.3c-0.5-0.6-1.3-0.8-2.3-0.8c-0.1,0-0.2,0-0.3,0v-1.3c0.1,0,0.2,0,0.3,0
		c0.8,0,1.5,0.1,2.2,0.3c0.7,0.2,1.3,0.5,1.9,0.8l1.4-0.8h0.9V570.3L160.1,570.3z M153.5,566.8c-0.2,0-0.3,0-0.5,0
		c-1.9,0-3.4-0.6-4.6-1.7c-1.2-1.2-1.8-2.7-1.8-4.5c0-2,0.7-3.7,2.1-5.1c1.3-1.3,2.9-2,4.8-2.1v1.3c-1,0.1-1.8,0.5-2.4,1.3
		c-0.6,0.9-1,2-1,3.5c0,1.8,0.4,3.2,1.1,4.2c0.6,0.9,1.4,1.4,2.3,1.5V566.8L153.5,566.8z"/>
	<path class="st0" d="M142.5,564.5c-0.9,0.8-1.8,1.4-2.7,1.8c-0.9,0.4-1.8,0.6-2.6,0.6h-0.1v-2.3c0.5,0.2,1,0.4,1.6,0.4
		c0.5,0,1-0.1,1.5-0.3c0.5-0.2,1.1-0.5,1.7-0.9L142.5,564.5L142.5,564.5L142.5,564.5z M137.1,553.5c0.2,0,0.3,0,0.5,0
		c1.4,0,2.6,0.5,3.5,1.4c0.9,0.9,1.4,2.2,1.5,3.7h-5.4v-1.3h2.1l0,0c0-0.8-0.2-1.5-0.6-2c-0.4-0.5-0.8-0.7-1.4-0.7c0,0-0.1,0-0.1,0
		V553.5L137.1,553.5z M137.1,566.9c-1.7,0-3-0.6-4.2-1.8c-1.1-1.2-1.7-2.7-1.7-4.5c0-1.2,0.2-2.2,0.7-3.2c0.5-1,1.2-1.9,2.1-2.6
		c0.5-0.4,1.1-0.7,1.7-1c0.4-0.2,0.9-0.3,1.4-0.3v1.1c-0.5,0-1,0.3-1.4,0.7c-0.4,0.5-0.7,1.1-0.8,2h2.1v1.3h-2.3c0,0.2,0,0.4,0,0.6
		c0,0.2,0,0.4,0,0.7c0,1.5,0.4,2.8,1.1,3.7c0.4,0.5,0.8,0.8,1.3,1.1V566.9L137.1,566.9z"/>
</g>
</svg>
