<?xml version="1.0" encoding="utf-8"?>
<!-- Generator: Adobe Illustrator 26.0.3, SVG Export Plug-In . SVG Version: 6.00 Build 0)  -->
<svg version="1.1" id="Layer_1" xmlns="http://www.w3.org/2000/svg" xmlns:xlink="http://www.w3.org/1999/xlink" x="0px" y="0px"
	 viewBox="0 0 300 250" style="enable-background:new 0 0 300 250;" xml:space="preserve">
<style type="text/css">
	.st0{fill:#CEFFFF;}
</style>
<g>
	<g>
		<path class="st0" d="M40.1,90.5c-0.2-4.8,3.6-8.8,8.4-9c0.2,0,0.4,0,0.7,0c2.6-0.1,5.2,1,6.8,3.1l-3,2.8c-0.8-1.2-2.2-1.9-3.6-1.8
			c-2.7,0-4.7,2-4.7,5s1.9,5,4.7,5c1.4,0,2.8-0.7,3.6-1.9l3,2.8c-1.6,2.1-4.1,3.3-6.8,3.1c-4.8,0.2-8.9-3.6-9.1-8.4
			C40.1,90.9,40.1,90.7,40.1,90.5z M69.3,99.1v-1.8c-1.4,1.5-3.4,2.3-5.4,2.2c-3.1,0.1-5.8-2.3-5.9-5.4c0-0.1,0-0.2,0-0.3
			c0-4,3.2-5.5,5.9-5.5c2-0.1,4,0.6,5.4,2.1v-2.2c0-1.7-1.5-2.9-3.8-2.9c-1.8,0-3.6,0.7-4.9,2l-1.8-3.2c2.1-1.8,4.7-2.8,7.5-2.7
			c3.9,0,7.5,1.6,7.5,6.5v11.1H69.3z M69.3,94.9v-2.1c-0.9-1-2.2-1.6-3.6-1.5c-1.8,0-3.2,1-3.2,2.6s1.5,2.6,3.2,2.6
			C67,96.5,68.3,96,69.3,94.9z M76.8,96.8l2-3.3c1.7,1.4,3.7,2.3,5.9,2.4c2,0,2.9-0.7,2.9-1.8c0-2.8-10.2-0.5-10.2-7.2
			c0-2.9,2.5-5.4,7-5.4c2.5,0,4.9,0.8,6.9,2.3L89.5,87c-1.4-1.3-3.2-2-5.1-2c-1.6,0-2.7,0.7-2.7,1.7c0,2.5,10.2,0.4,10.2,7.3
			c0,3.2-2.7,5.5-7.5,5.5C81.6,99.5,78.9,98.6,76.8,96.8z M96.1,94.8v-8.9h-2.8v-3.9h2.8v-4.7h4.5v4.7h3.5v3.9h-3.5v7.7
			c0,1.1,0.6,1.9,1.6,1.9c0.6,0,1.1-0.2,1.6-0.5l1,3.4c-1.1,0.8-2.4,1.2-3.8,1.1C97.8,99.5,96.1,97.8,96.1,94.8z M115.2,90.5
			c0-5,4-9.1,9-9.2c5,0,9.1,4,9.2,9s-4,9.1-9,9.2c0,0-0.1,0-0.1,0c-4.8,0.2-8.9-3.5-9.1-8.3C115.2,90.9,115.2,90.7,115.2,90.5z
			 M128.7,90.5c0-2.7-1.6-5-4.4-5s-4.4,2.3-4.4,5s1.6,5,4.4,5S128.7,93.2,128.7,90.5z M137.8,99.1V85.8h-2.8v-3.9h2.8v-0.7
			c0-3.9,2.3-6.2,5.8-6.2c1.7-0.1,3.3,0.5,4.5,1.6l-1.7,2.7c-0.5-0.5-1.2-0.7-1.9-0.7c-1.3,0-2.1,0.8-2.1,2.5v0.7h3.5v3.9h-3.5v13.2
			L137.8,99.1z M149.4,99.1V85.8h-2.8v-3.9h2.8v-0.7c0-3.9,2.3-6.2,5.8-6.2c1.7-0.1,3.3,0.5,4.5,1.6l-1.7,2.7
			c-0.5-0.5-1.2-0.7-1.9-0.7c-1.3,0-2.1,0.8-2.1,2.5v0.7h3.5v3.9h-3.5v13.2L149.4,99.1z M157.8,96.6c0-1.6,1.3-2.9,2.9-2.9
			c1.6,0,2.9,1.3,2.9,2.9c0,1.6-1.3,2.9-2.9,2.9c0,0,0,0,0,0C159.1,99.4,157.8,98.1,157.8,96.6z"/>
	</g>
</g>
</svg>
