<?xml version="1.0" encoding="utf-8"?>
<!-- Generator: Adobe Illustrator 26.0.3, SVG Export Plug-In . SVG Version: 6.00 Build 0)  -->
<svg version="1.1" id="Layer_1" xmlns="http://www.w3.org/2000/svg" xmlns:xlink="http://www.w3.org/1999/xlink" x="0px" y="0px"
	 viewBox="0 0 300 250" style="enable-background:new 0 0 300 250;" xml:space="preserve">
<style type="text/css">
	.st0{fill:#70005B;}
</style>
<g>
	<g>
		<path class="st0" d="M41.7,93.7c1.7,1.4,3.7,2.2,5.9,2.3c2,0,2.9-0.7,2.9-1.7s-1.5-1.6-3.4-2c-3-0.6-6.8-1.3-6.8-5.4
			c0-2.9,2.5-5.4,7-5.4c2.5,0,5,0.8,6.9,2.3l-1.8,3.1c-1.4-1.3-3.2-2-5.1-2c-1.6,0-2.7,0.6-2.7,1.6S46,88,48,88.4
			c2.9,0.6,6.9,1.3,6.9,5.6c0,3.1-2.7,5.5-7.4,5.5c-2.8,0.1-5.5-0.9-7.7-2.7L41.7,93.7z"/>
		<path class="st0" d="M57.1,90.5c-0.2-4.8,3.6-8.8,8.3-9c0.2,0,0.4,0,0.7,0c5,0,9,4,9,9s-4,9-9,9c-4.8,0.2-8.8-3.6-9-8.4
			C57.1,90.9,57.1,90.7,57.1,90.5z M70.5,90.5c0-2.7-1.6-5-4.4-5s-4.4,2.3-4.4,5s1.6,5,4.4,5C68.9,95.5,70.5,93.2,70.5,90.5z"/>
		<path class="st0" d="M88.9,97.3c-1.4,1.5-3.4,2.3-5.4,2.2c-3.1,0.2-5.8-2.3-6-5.4c0-0.1,0-0.2,0-0.3c0-4,3.2-5.5,6-5.5
			c2-0.1,4,0.6,5.4,2.1v-2.4c0-1.7-1.5-2.9-3.8-2.9c-1.9,0-3.7,0.7-5,2l-1.7-3c2.1-1.8,4.8-2.7,7.5-2.7c3.9,0,7.5,1.6,7.5,6.5v11.1
			h-4.5V97.3z M88.9,92.8c-0.9-1-2.2-1.6-3.6-1.5c-1.8,0-3.2,0.9-3.2,2.6s1.4,2.5,3.2,2.5c1.4,0.1,2.7-0.5,3.6-1.5V92.8z"/>
		<path class="st0" d="M104.4,92.4l-2.1,2.2v4.4h-4.5V75.4h4.5v14.2l6.5-7.6h5.5l-6.8,7.8l7,9.4H109L104.4,92.4z"/>
		<path class="st0" d="M125.5,76.7c0-1.5,1.2-2.7,2.7-2.7c1.5,0,2.7,1.2,2.7,2.7c0,1.5-1.2,2.7-2.7,2.7
			C126.7,79.4,125.5,78.2,125.5,76.7z M125.9,81.9h4.5v17.1h-4.5V81.9z"/>
		<path class="st0" d="M135.8,94.8v-8.9H133v-3.9h2.8v-4.7h4.5v4.7h3.5v3.9h-3.5v7.7c0,1.1,0.6,1.9,1.6,1.9c0.6,0,1.1-0.2,1.6-0.5
			l1,3.4c-1.1,0.8-2.4,1.2-3.8,1.1C137.5,99.5,135.8,97.8,135.8,94.8z"/>
		<path class="st0" d="M167.6,96.9c-1.5,1.7-3.7,2.6-6,2.6c-3.8,0-5.5-2.1-5.5-5.4V81.9h4.5v10.4c0,2.4,1.2,3.2,3.2,3.2
			c1.5,0,3-0.8,3.9-2V81.9h4.5v17.1h-4.5L167.6,96.9z"/>
		<path class="st0" d="M176.6,105.6V81.9h4.5v2.2c1.3-1.6,3.2-2.6,5.3-2.6c4.4,0,7.6,3.3,7.6,9s-3.2,9-7.6,9c-2.1,0-4-1-5.3-2.6v8.7
			L176.6,105.6z M185,85.5c-1.5,0-3,0.8-3.9,2v6.1c0.9,1.2,2.3,1.9,3.9,2c2.6,0,4.3-2,4.3-5S187.6,85.5,185,85.5z"/>
		<path class="st0" d="M199.5,93.7c1.6,0,2.9,1.3,2.9,2.9c0,1.6-1.3,2.9-2.9,2.9c-1.6,0-2.9-1.3-2.9-2.9
			C196.7,95,197.9,93.7,199.5,93.7z"/>
	</g>
</g>
</svg>
