<svg xmlns="http://www.w3.org/2000/svg" viewBox="0 0 30.14 21.59"><defs><style>.cls-1{fill:#ffda00;}</style></defs><title>Asset1</title><g id="Layer_2" data-name="Layer 2"><g id="Layer_1-2" data-name="Layer 1"><path class="cls-1" d="M26,5.69,26.3,4h1.52ZM5.8,20.27V8H24.52v2.2h-9.7a.66.66,0,0,0-.66.65v6.59a.67.67,0,0,0,.66.66h9.7v2.19ZM3.72,3.83,4,5.41,2.33,3.83ZM25.47,1.32l-1,5.27H5.59l-1-5.27Zm-.95,15.44h-9V11.49h9ZM30.1,3.06a.68.68,0,0,0-.62-.42H26.56L26.91.78a.63.63,0,0,0-.14-.54A.66.66,0,0,0,26.26,0H3.78a.69.69,0,0,0-.51.24.7.7,0,0,0-.14.54l.34,1.73H.66a.65.65,0,0,0-.61.41.66.66,0,0,0,.16.73l4.27,4V20.93a.65.65,0,0,0,.66.66h20a.66.66,0,0,0,.66-.66V7.62l4.09-3.84a.67.67,0,0,0,.17-.72"/></g></g></svg>