<svg id="Layer_1" data-name="Layer 1" xmlns="http://www.w3.org/2000/svg" viewBox="0 0 300 250"><defs><style>.cls-1{fill:#fff;}</style></defs><rect class="cls-1" x="27.76" y="21.52" width="66.31" height="29.46"/><path d="M37.9,38.68C38,40.4,39.37,41,40.9,41c1.29,0,2.12-.46,2.12-1.22s-.81-.94-1.86-1.14l-2.51-.43c-2.25-.42-3.83-1.69-3.83-4.09,0-2.8,2.19-4.48,5.62-4.48,3.8,0,5.86,1.86,5.92,4.92L43,34.61c-.11-1.42-1.13-2.07-2.55-2.07-1.23,0-1.93.48-1.93,1.24s.53.88,1.38,1l2.6.46c2.88.5,4.2,2,4.2,4.26,0,2.93-2.54,4.39-5.75,4.39-3.74,0-6.4-1.81-6.4-5.13Z"/><path d="M59.19,43.66H48.35V29.89H59V33H52V35.2h5.4v3H52V40.6h7.19Z"/><path d="M69.77,37.52V29.89h3.41V43.66h-3l-5.95-8.15v8.15H60.85V29.89h3.54Z"/><path d="M75.28,29.89h5.44c4.57,0,7.39,2.58,7.39,6.89s-2.82,6.88-7.39,6.88H75.28Zm5.18,10.84c2.4,0,3.82-1.44,3.82-4s-1.42-3.93-3.82-3.93H79v7.91Z"/></svg>