<svg id="Layer_1" data-name="Layer 1" xmlns="http://www.w3.org/2000/svg" viewBox="0 0 300 250"><defs><style>.cls-1{fill:#fff;}</style></defs><rect class="cls-1" x="27.76" y="54.18" width="108.47" height="29.46"/><path d="M43.83,76.21a5.74,5.74,0,0,1-.57-2.64c-.11-1.57-.79-1.92-2-1.92H38.76v4.56H35.11V62.45h7c3.56,0,5.33,1.68,5.33,4.37a3.34,3.34,0,0,1-2.93,3.54A2.71,2.71,0,0,1,46.86,73c.2,2.06.27,2.67.72,3.17ZM41.4,68.78c1.57,0,2.36-.39,2.36-1.66,0-1.11-.79-1.7-2.36-1.7H38.76v3.36Z"/><path d="M59.87,76.21H49V62.45H59.67v3.06h-7v2.25h5.4v3h-5.4v2.38h7.19Z"/><path d="M72.94,74.2l1.13,1.34-2,1.57-1.15-1.38a7.47,7.47,0,0,1-3.26.75,7.15,7.15,0,1,1,7.15-7.15A7,7,0,0,1,72.94,74.2Zm-5.29-8.74c-2,0-3.32,1.53-3.32,3.87s1.29,3.93,3.32,3.93a4,4,0,0,0,1.07-.11l-1.31-1.57L69.35,70l1.27,1.53a5.34,5.34,0,0,0,.4-2.16C71,67,69.68,65.46,67.65,65.46Z"/><path d="M76.2,70.75v-8.3h3.69v7.69c0,2.1.66,3.21,2.56,3.21S85,72.24,85,70.14V62.45h3.72v8.3c0,4-2.73,5.73-6.27,5.73S76.2,74.77,76.2,70.75Z"/><path d="M101.55,76.21H90.71V62.45h10.64v3.06h-7v2.25h5.4v3h-5.4v2.38h7.19Z"/><path d="M106,71.23c.13,1.73,1.46,2.32,3,2.32,1.29,0,2.12-.46,2.12-1.23s-.81-.94-1.85-1.13l-2.52-.44c-2.25-.41-3.82-1.68-3.82-4.09,0-2.79,2.18-4.47,5.61-4.47,3.81,0,5.86,1.85,5.93,4.91l-3.41.07c-.11-1.42-1.14-2.08-2.56-2.08-1.22,0-1.92.48-1.92,1.25s.52.87,1.38,1l2.6.46c2.88.51,4.19,2,4.19,4.26,0,2.93-2.53,4.4-5.75,4.4-3.73,0-6.4-1.82-6.4-5.14Z"/><path d="M120,76.21V65.51H115.3V62.45h13.2v3.06h-4.79v10.7Z"/></svg>