<svg id="Layer_1" data-name="Layer 1" xmlns="http://www.w3.org/2000/svg" viewBox="0 0 300 250"><defs><style>.cls-1{fill:#fff;}</style></defs><rect class="cls-1" x="27.76" y="86.83" width="73.5" height="29.46"/><path d="M37.9,103.79c.14,1.72,1.47,2.31,3,2.31,1.29,0,2.12-.46,2.12-1.22s-.81-.94-1.86-1.14l-2.51-.43c-2.25-.42-3.83-1.69-3.83-4.09,0-2.8,2.19-4.48,5.62-4.48,3.8,0,5.86,1.86,5.92,4.92L43,99.72c-.11-1.42-1.13-2.07-2.55-2.07-1.23,0-1.93.48-1.93,1.24s.53.88,1.38,1l2.6.46c2.88.5,4.2,2,4.2,4.26,0,2.93-2.54,4.39-5.75,4.39-3.74,0-6.4-1.81-6.4-5.13Z"/><path d="M52.05,108.77h-3.7V95h6.06c3.6,0,5.7,1.69,5.7,4.72s-2.1,4.74-5.7,4.74H52.05Zm2.18-7.28c1.66,0,2.3-.59,2.3-1.75S55.89,98,54.23,98H52.05v3.52Z"/><path d="M65,95v10.71h6.82v3.06H61.31V95Z"/><path d="M77.16,95v13.77H73.44V95Z"/><path d="M83.48,108.77V98.06H78.76V95H92v3.06H87.17v10.71Z"/></svg>