<svg id="Layer_1" data-name="Layer 1" xmlns="http://www.w3.org/2000/svg" viewBox="0 0 300 250"><path d="M41.66,130.42c2.68,0,3.47,1.86,3.47,3.89v6.12H41.59v-5.18c0-1.33-.24-2-1.31-2s-1.57,1-1.57,2.42v4.79H35.17v-5.18c0-1.33-.27-2-1.34-2s-1.57,1-1.57,2.42v4.79H28.72v-9.75h3.54v1.47a3.17,3.17,0,0,1,3-1.73,2.88,2.88,0,0,1,3,1.92A3.55,3.55,0,0,1,41.66,130.42Z"/><path d="M51.76,140.69a5.14,5.14,0,1,1,0-10.27,5.14,5.14,0,1,1,0,10.27Zm0-2.66c1.22,0,1.77-1,1.77-2.47s-.55-2.47-1.77-2.47-1.77,1-1.77,2.47S50.51,138,51.76,138Z"/><path d="M62,140.43H58.49v-9.75H62v1.47a3.34,3.34,0,0,1,3.15-1.73c2.66,0,3.51,1.86,3.51,3.89v6.12H65.15v-5.18c0-1.33-.37-2-1.44-2s-1.68,1-1.68,2.42Z"/><path d="M80.21,137.22c-.5,2.23-2.29,3.47-4.87,3.47-3.13,0-5.35-1.88-5.35-5a5.14,5.14,0,0,1,5.31-5.29,4.66,4.66,0,0,1,5,4.87v1H73.44a1.85,1.85,0,0,0,2,1.77,1.82,1.82,0,0,0,1.9-1.1Zm-3.3-2.65A1.59,1.59,0,0,0,75.25,133a1.67,1.67,0,0,0-1.77,1.61Z"/><path d="M83.3,143.92l1.39-3.36-4-9.88h3.71l2.17,5.71h.08l2.21-5.71h3.47l-5.59,13.24Z"/><path d="M38.73,155.71h.09l1.74-5.53h3.19l-3.08,9.75H37.2l-1.42-5.51h-.09l-1.42,5.51H30.8l-3.09-9.75h3.52L33,155.71h.09l1.42-5.53h2.82Z"/><path d="M44.65,146.16h3.59v3.1H44.65Zm3.57,4v9.75H44.68v-9.75Z"/><path d="M50.49,152.63H49.18v-2.19l.72-.11c1-.15,1.29-.67,1.53-1.57l.33-1.27H54v2.69h2.53v2.45H54v3.56c0,.83.39,1.16,1.11,1.16a3.94,3.94,0,0,0,1.51-.33v2.29a4.57,4.57,0,0,1-2.93.88c-1.64,0-3.19-.68-3.19-3Z"/><path d="M61.5,159.93H58V146.16H61.5v5.48a3.35,3.35,0,0,1,3.15-1.72c2.67,0,3.52,1.86,3.52,3.89v6.12H64.63v-5.18c0-1.34-.37-2-1.44-2s-1.69,1-1.69,2.43Z"/><path d="M86.85,149.92c2.69,0,3.48,1.86,3.48,3.89v6.12H86.79v-5.18c0-1.34-.24-2-1.31-2s-1.57,1-1.57,2.43v4.79H80.37v-5.18c0-1.34-.27-2-1.34-2s-1.57,1-1.57,2.43v4.79H73.92v-9.75h3.54v1.46a3.16,3.16,0,0,1,3-1.72,2.88,2.88,0,0,1,3,1.92A3.54,3.54,0,0,1,86.85,149.92Z"/><path d="M101.26,157.06c0,.51.22.72.59.72a2,2,0,0,0,.79-.15v1.88a3.75,3.75,0,0,1-2.21.63A2.41,2.41,0,0,1,98,158.42a3.32,3.32,0,0,1-3.23,1.72c-1.9,0-3.15-1-3.15-2.64,0-1.88,1.36-2.69,3.47-3.06l2.74-.46v-.15c0-.81-.38-1.29-1.23-1.29a1.31,1.31,0,0,0-1.33,1.22L92,153.54c.31-2.14,1.9-3.62,4.83-3.62,2.58,0,4.48,1.11,4.48,3.82Zm-3.47-1.35-1.45.26c-.85.18-1.35.44-1.35,1.07s.39.83,1,.83a1.83,1.83,0,0,0,1.82-2Z"/><path d="M104,152.63h-1.31v-2.19l.72-.11c1-.15,1.29-.67,1.53-1.57l.32-1.27h2.23v2.69h2.54v2.45h-2.54v3.56c0,.83.4,1.16,1.12,1.16a3.93,3.93,0,0,0,1.5-.33v2.29a4.54,4.54,0,0,1-2.92.88c-1.64,0-3.19-.68-3.19-3Z"/><path d="M121.19,156.71c-.5,2.23-2.29,3.48-4.87,3.48-3.12,0-5.35-1.88-5.35-5a5.13,5.13,0,0,1,5.31-5.29,4.66,4.66,0,0,1,5,4.87v1h-6.84a1.85,1.85,0,0,0,2,1.77,1.81,1.81,0,0,0,1.9-1.09Zm-3.3-2.64a1.6,1.6,0,0,0-1.66-1.62,1.67,1.67,0,0,0-1.77,1.62Z"/><path d="M125.09,156.71c.13.81.78,1.27,1.85,1.27.79,0,1.2-.28,1.2-.68s-.21-.63-.89-.74l-1.44-.22c-2.36-.37-3.61-1.13-3.61-3.12s1.68-3.3,4.41-3.3,4.48,1.24,4.68,3.28l-2.91.08c-.13-.7-.74-1.13-1.83-1.13-.68,0-1.07.26-1.07.7s.26.5.59.54l1.9.33c2.18.35,3.45,1.33,3.45,3.23,0,2.06-1.75,3.24-4.52,3.24s-4.7-1.07-4.9-3.43Z"/></svg>