<?xml version="1.0" encoding="UTF-8"?><svg xmlns="http://www.w3.org/2000/svg" viewBox="0 0 300 600"><defs><style>.e{fill:none;stroke:#fff;stroke-miterlimit:10;stroke-width:1.39px;}</style></defs><g id="a"/><g id="b"/><g id="c"/><g id="d"><g><path class="e" d="M106.95,244.36h-8.76l2.04-9.71h28.17l-2.04,9.71h-8.76l-4.97,23.44h-10.65l4.97-23.44Z"/><path class="e" d="M148.78,233.7c10.75,0,17.52,7.43,17.52,16.33,0,10.37-8.76,18.7-20.12,18.7-10.75,0-17.52-7.43-17.52-16.33,0-10.37,8.76-18.7,20.12-18.7Zm-2.13,25.57c4.97,0,9-3.88,9-9,0-3.79-3.03-7.1-7.34-7.1-4.97,0-9,3.88-9,9,0,3.79,3.03,7.1,7.34,7.1Z"/><path class="e" d="M187.95,234.65h10.65l-4.92,23.2h13.73l-2.08,9.94h-24.38l7.01-33.14Z"/><path class="e" d="M228.42,234.65h12.07l5.07,33.14h-10.89l-.57-6.39h-9.71l-3.22,6.39h-11.84l19.08-33.14Zm5.11,19.41l-.62-9.23h-.24l-4.59,9.23h5.45Z"/></g></g></svg>