<?xml version="1.0" encoding="UTF-8"?><svg xmlns="http://www.w3.org/2000/svg" viewBox="0 0 300 600"><defs><style>.e{fill:#fff;}</style></defs><g id="a"/><g id="b"/><g id="c"/><g id="d"><g><path class="e" d="M28.66,214.03l-7.34-21.31h10.89l2.79,12.55h.24l8.1-12.55h12.31l-16.33,21.31-2.51,11.84h-10.65l2.51-11.84Z"/><path class="e" d="M71.41,191.78c10.75,0,17.52,7.43,17.52,16.33,0,10.37-8.76,18.7-20.12,18.7-10.75,0-17.52-7.43-17.52-16.33,0-10.37,8.76-18.7,20.12-18.7Zm-2.13,25.57c4.97,0,9-3.88,9-9,0-3.79-3.03-7.1-7.34-7.1-4.97,0-9,3.88-9,9,0,3.79,3.03,7.1,7.34,7.1Z"/><path class="e" d="M96.36,192.73h10.65l-3.93,18.66c-.05,.24-.14,.76-.14,1.14,0,2.6,1.51,4.59,4.36,4.59s4.92-2.04,5.49-4.69l4.17-19.7h10.65l-4.4,20.79c-1.66,7.86-8.33,13.3-16.57,13.3-9.04,0-14.44-5.78-14.44-13.35,0-1.47,.19-2.13,.38-3.08l3.79-17.66Z"/><path class="e" d="M133.97,192.73h14.77c6.87,0,11.6,4.83,11.6,10.89,0,4.03-1.8,6.82-3.65,8.67-1.09,1.04-2.27,1.89-3.65,2.6l3.5,10.98h-10.23l-2.84-9.47h-3.88l-1.99,9.47h-10.65l7.01-33.14Zm12.55,14.68c1.85,0,3.17-1.37,3.17-3.12,0-1.66-.95-2.56-2.84-2.56h-4.12l-1.23,5.68h5.02Z"/><path class="e" d="M174.75,192.73h10.65l.62,18.23h.24l9.09-18.23h8.52l1.33,18.23h.24l8.38-18.23h12.07l-17.9,33.14h-9.47l-1.66-17.52h-.19l-9.04,17.52h-9l-3.88-33.14Z"/><path class="e" d="M235.43,192.73h12.07l5.07,33.14h-10.89l-.57-6.39h-9.71l-3.22,6.39h-11.84l19.08-33.14Zm5.11,19.41l-.62-9.23h-.24l-4.59,9.23h5.45Z"/><path class="e" d="M261.9,214.03l-7.34-21.31h10.89l2.79,12.55h.24l8.1-12.55h12.31l-16.33,21.31-2.51,11.84h-10.65l2.51-11.84Z"/></g></g></svg>