<svg xmlns="http://www.w3.org/2000/svg" xmlns:xlink="http://www.w3.org/1999/xlink" viewBox="0 0 300 600"><defs><style>.cls-1{fill:none;}.cls-2{clip-path:url(#clip-path);}.cls-3{fill:#da290b;}.cls-4{fill:#fff;}.cls-5{fill:#bcbec0;}.cls-6{fill:#231f20;}.cls-7{fill:#eb2227;}.cls-8{fill:#f47b30;}.cls-9{fill:#ffc216;}</style><clipPath id="clip-path"><rect class="cls-1" x="-462.21" y="308.26" width="337.5" height="311.59"/></clipPath></defs><g id="Background"><g class="cls-2"><g id="_Clip_Group_Background" data-name="&lt;Clip Group&gt; Background"><path class="cls-3" d="M76.57,406.18a59.7,59.7,0,0,0-3.93-6.44c-2.11-2.15-7-20.1-8.64-24.41s-12.85-22.26-14.53-23.7-5.48-3.23-7.59-5.38-8.42-15.08-12-18.67-8.85-3.95-12.22-5-6.53,3.95-6.53,3.95H4.81c-1.26,0-6.32,9.69-8,10.77s-7.8-.72-9.48,0c-1.06.45-9.21,8.72-15.53,15.24C-32.17,350-36,348-38,348.24a69.51,69.51,0,0,1-11.4,0l-10.3-8.67c-9.77-.54-12.48-8.14-17.91-6s-20.61.55-21.7,3.26c-.5,1.25-5.27,3.89-10.54,6.52-6.13-3.7-13.45-8-14.45-8.29-1.68-.42-7.79.63-9.48,0s-6.74-6.32-8-6.32h-6.32s-4.64-2.67-6.53-2.32c-3.37.64-8.64.85-12.22,2.95s-9.9,9.69-12,11-5.9,2.31-7.59,3.16-12.85,11.37-14.53,13.9c0,0-3.26,2.71-8.34,6.5-6.45-.35-14,3.08-20,6.45l-.42-9.15-2.7-2.4-1.21.06v0l-2.69.13-1.18.06-2.6.12.12,2.54.58,12.56.1,2.18a19.36,19.36,0,0,1-3.87.81l-.56-11.93-2.7-2.4-1.2,0v0l-3.88.18-2.48,2.67.57,12.2-2.1.06-.56-12.16-2.7-2.41-1.21.06v0l-3.87.18-2.48,2.67.54,11.67q-2.11,0-4.14-.15l2.37-15.48-3.79.18-1.33,8.7-2.2-8.54h0l-2,.1H-277l-1.39,8.71-2.14-8.55-3.78.18,3.39,13.59a20.42,20.42,0,0,1-2.07-.5,19.92,19.92,0,0,0-5.68-.53l-.34-7.3,3.66-9.09-3.78.17-2,4.88-2.41-4.67-3.79.17,4.5,8.72.34,7.33c-.69.05-1.41.13-2.14.21l-.05-1.09-5.24.24-.65-14-3.79.18.75,16-1.44.26-.12-2.62-5.24.25-.65-14-3.79.17.74,15.77c-1.25-.24-2.37-.43-3.29-.57-.19,0-.41,0-.6,0l.48-.52-.59-12.55-2.7-2.41-1.2.06v0l-3.88.18-2.48,2.67.58,12.55.67.59-3.09.44-.81-17.34-3.78.18.32,7-2.91.14-.33-7-3.78.17L-341,371l.62,13.14-2.58,2a78.83,78.83,0,0,0-11.11,1.59c-12.45,2.86-27,36.91-27,36.91l-.12.33c-6.63,6.73-13.93,14.36-15,15.49-1.91,2-7.69,16.81-10.08,23.33s-5.52,7.78-5.52,7.78c-18.72,4.08-20.16,12.68-24.72,9.42s-36.28-2-36.28-2l-20.67,21.16s-12.78,2.91-22.07,7-27.07,24.76-27.07,24.76c-1,28-3,151.52-3,151.52H95.49V416.17A146.47,146.47,0,0,0,76.57,406.18Zm-310-43.63.46,10-.47.29-2.21.1-.48-10.28Zm-14,4.1.48,10.27-2.69.13-.48-10.28Zm-12.35.57.48,10.28-2.7.13-.48-10.28Zm-15.73,4.17,1,6.2-1.45-.13ZM-321.8,365l.48,10.28-2.69.13-.48-10.28Zm-15.38,6.39,2.91-.14.32,6.74c-.92-.92-2.18,2.42-3.28,1.32Z"/></g></g></g><g id="Layer_1" data-name="Layer 1"><path class="cls-4" d="M14.2,571.85h.32L17,575.17l2.48-3.32h.32v5.6h-.4v-4.84l-2.4,3.2-2.4-3.2v4.84h-.4Z"/><path class="cls-4" d="M21.6,572a.28.28,0,1,1-.28.28A.27.27,0,0,1,21.6,572Zm-.2,1.64h.36v3.84H21.4Z"/><path class="cls-4" d="M23.16,573.61h.36v.68a1.53,1.53,0,0,1,.31-.37,1.45,1.45,0,0,1,1-.39,1.56,1.56,0,0,1,1.56,1.64v2.28H26v-2.28a1.19,1.19,0,0,0-1.2-1.28,1.34,1.34,0,0,0-1.32,1.4v2.16h-.36Z"/><path class="cls-4" d="M29,575.53a1.92,1.92,0,1,1,1.92,2A2,2,0,0,1,29,575.53Zm3.48,0A1.56,1.56,0,1,0,31,577.17,1.61,1.61,0,0,0,32.52,575.53Z"/><path class="cls-4" d="M34,573.61h.36v.68a1.37,1.37,0,0,1,.32-.37,1.49,1.49,0,0,1,1-.39h.16v.36h-.16a1.35,1.35,0,0,0-1.36,1.4v2.16H34Z"/><path class="cls-4" d="M39.56,576.69a1.87,1.87,0,0,1-.36.43,1.65,1.65,0,0,1-1.12.41,2,2,0,0,1,0-4,1.61,1.61,0,0,1,1.12.43,2,2,0,0,1,.36.41v-2.52h.36v5.6h-.36Zm0-1.16a1.47,1.47,0,1,0-1.48,1.64A1.54,1.54,0,0,0,39.56,575.53Z"/><path class="cls-4" d="M44.44,576.73a2.11,2.11,0,0,1-.39.4,1.79,1.79,0,0,1-1.13.4,2,2,0,0,1-1.88-2,1.9,1.9,0,0,1,1.84-2,1.85,1.85,0,0,1,1.76,2v.16H41.4a1.57,1.57,0,0,0,1.52,1.48,1.46,1.46,0,0,0,.93-.34,1.13,1.13,0,0,0,.31-.34Zm-.16-1.4a1.42,1.42,0,0,0-1.4-1.44,1.55,1.55,0,0,0-1.48,1.44Z"/><path class="cls-4" d="M45.72,573.61h.36v.68a1.37,1.37,0,0,1,.32-.37,1.49,1.49,0,0,1,1-.39h.16v.36h-.16a1.35,1.35,0,0,0-1.36,1.4v2.16h-.36Z"/><path class="cls-4" d="M49.8,576.41a1.41,1.41,0,0,0,.37.36,2,2,0,0,0,1.19.36c1,0,1.43-.48,1.43-1.16,0-1.52-3.11-.8-3.11-2.72a1.53,1.53,0,0,1,1.52-1.46V571h.39v.81a2.21,2.21,0,0,1,1.08.36,2.77,2.77,0,0,1,.36.31l-.28.28a1.78,1.78,0,0,0-.32-.28,2,2,0,0,0-1-.28c-.87,0-1.35.48-1.35,1.08,0,1.52,3.11.8,3.11,2.72a1.56,1.56,0,0,1-1.6,1.54v.82H51.2v-.81a2.34,2.34,0,0,1-1.27-.44,1.92,1.92,0,0,1-.41-.39Z"/><path class="cls-4" d="M57.55,577.05v.4H54c0-2.21,3.11-2.39,3.11-4.08a1.22,1.22,0,0,0-1.35-1.2,1.27,1.27,0,0,0-1.08.51,1.13,1.13,0,0,0-.24.49l-.36-.16a1.54,1.54,0,0,1,.31-.61,1.62,1.62,0,0,1,1.37-.63,1.64,1.64,0,0,1,1.75,1.6c0,1.8-2.72,2.07-3.07,3.68Z"/><path class="cls-4" d="M58.56,574.65c0-1.8,1.07-2.88,2.16-2.88s2.15,1.08,2.15,2.88-1.07,2.88-2.15,2.88S58.56,576.45,58.56,574.65Zm3.91,0c0-1.6-.88-2.48-1.75-2.48s-1.76.88-1.76,2.48.88,2.48,1.76,2.48S62.47,576.25,62.47,574.65Z"/><path class="cls-4" d="M64.2,576.93a.28.28,0,1,1-.28.28A.27.27,0,0,1,64.2,576.93Z"/><path class="cls-4" d="M72.23,576.33a2.79,2.79,0,0,1-.59.6,2.72,2.72,0,0,1-1.72.6,2.88,2.88,0,0,1,0-5.76,2.81,2.81,0,0,1,1.71.6,3.53,3.53,0,0,1,.56.6l-.28.24a2.66,2.66,0,0,0-.49-.52,2.45,2.45,0,0,0-1.5-.52,2.48,2.48,0,1,0,1.52,4.44,2.29,2.29,0,0,0,.51-.52Z"/><path class="cls-4" d="M72.92,575.53a1.92,1.92,0,1,1,1.92,2A2,2,0,0,1,72.92,575.53Zm3.48,0a1.56,1.56,0,1,0-1.56,1.64A1.61,1.61,0,0,0,76.4,575.53Z"/><path class="cls-4" d="M77.84,573.61h.36v.64a1.83,1.83,0,0,1,.26-.36,1.24,1.24,0,0,1,.9-.36,1.39,1.39,0,0,1,1,.44,1.76,1.76,0,0,1,.29.44,2.09,2.09,0,0,1,.29-.44,1.4,1.4,0,0,1,1-.44,1.49,1.49,0,0,1,1.44,1.64v2.28H83v-2.28A1.14,1.14,0,0,0,82,573.89a1.24,1.24,0,0,0-1.16,1.4v2.16h-.36v-2.28c0-.8-.47-1.28-1.07-1.28a1.24,1.24,0,0,0-1.16,1.4v2.16h-.36Z"/><path class="cls-4" d="M84.72,573.61h.36v.76a1.69,1.69,0,0,1,.35-.41,1.65,1.65,0,0,1,1.13-.43,2,2,0,0,1,0,4,1.7,1.7,0,0,1-1.13-.41,1.61,1.61,0,0,1-.35-.43v2.44h-.36ZM88,575.53a1.47,1.47,0,1,0-1.44,1.64A1.54,1.54,0,0,0,88,575.53Z"/><path class="cls-4" d="M92.55,576.73a1.79,1.79,0,0,1-.38.4,1.82,1.82,0,0,1-1.14.4,2,2,0,0,1-1.87-2,1.9,1.9,0,0,1,1.83-2,1.85,1.85,0,0,1,1.76,2v.16H89.52A1.56,1.56,0,0,0,91,577.17a1.49,1.49,0,0,0,.94-.34,1.1,1.1,0,0,0,.3-.34Zm-.16-1.4a1.41,1.41,0,0,0-1.4-1.44,1.54,1.54,0,0,0-1.47,1.44Z"/><path class="cls-4" d="M94.16,574H93.4v-.36h.52a.29.29,0,0,0,.28-.32v-1h.32v1.28h.87V574h-.87v2.52c0,.45.24.68.6.68a1.25,1.25,0,0,0,.36,0,1.07,1.07,0,0,0,.15-.07v.36l-.15.06a1,1,0,0,1-.36.06c-.61,0-1-.36-1-1Z"/><path class="cls-4" d="M96.88,572a.28.28,0,1,1-.28.28A.27.27,0,0,1,96.88,572Zm-.2,1.64H97v3.84h-.36Z"/><path class="cls-4" d="M98.75,574H98v-.36h.52c.16,0,.27-.12.27-.32v-1h.33v1.28H100V574h-.87v2.52c0,.45.24.68.59.68a1.27,1.27,0,0,0,.37,0,1.07,1.07,0,0,0,.15-.07v.36l-.15.06a1,1,0,0,1-.37.06.91.91,0,0,1-1-1Z"/><path class="cls-4" d="M101.48,572a.28.28,0,1,1-.28.28A.27.27,0,0,1,101.48,572Zm-.2,1.64h.36v3.84h-.36Z"/><path class="cls-4" d="M102.75,575.53a1.92,1.92,0,1,1,1.92,2A2,2,0,0,1,102.75,575.53Zm3.48,0a1.56,1.56,0,1,0-1.56,1.64A1.61,1.61,0,0,0,106.23,575.53Z"/><path class="cls-4" d="M107.68,573.61H108v.68a1.53,1.53,0,0,1,.31-.37,1.4,1.4,0,0,1,1-.39,1.56,1.56,0,0,1,1.56,1.64v2.28h-.36v-2.28a1.19,1.19,0,0,0-1.2-1.28,1.34,1.34,0,0,0-1.31,1.4v2.16h-.36Z"/><path class="cls-4" d="M117,576.73a1.79,1.79,0,0,1-.38.4,1.82,1.82,0,0,1-1.14.4,2,2,0,0,1,0-4,1.82,1.82,0,0,1,1.14.4,1.79,1.79,0,0,1,.38.4l-.28.24a1.18,1.18,0,0,0-.3-.33,1.49,1.49,0,0,0-.94-.35,1.64,1.64,0,0,0,0,3.28,1.49,1.49,0,0,0,.94-.34,1.1,1.1,0,0,0,.3-.34Z"/><path class="cls-4" d="M118,571.85h.35v5.6H118Z"/><path class="cls-4" d="M119.47,575.53a1.92,1.92,0,1,1,1.92,2A2,2,0,0,1,119.47,575.53Zm3.48,0a1.56,1.56,0,1,0-1.56,1.64A1.61,1.61,0,0,0,123,575.53Z"/><path class="cls-4" d="M124.31,576.61a2.54,2.54,0,0,0,.29.28,1.25,1.25,0,0,0,.79.28c.64,0,1-.35,1-.8,0-1-2.2-.52-2.2-1.8a1.17,1.17,0,0,1,1.24-1,1.68,1.68,0,0,1,.89.28,2.12,2.12,0,0,1,.31.28l-.28.28a1.29,1.29,0,0,0-.23-.24,1.11,1.11,0,0,0-.69-.24c-.56,0-.88.33-.88.68,0,.93,2.2.47,2.2,1.8a1.22,1.22,0,0,1-1.36,1.16,1.72,1.72,0,0,1-1-.32,1.35,1.35,0,0,1-.35-.32Z"/><path class="cls-4" d="M131,576.73a1.79,1.79,0,0,1-.38.4,1.82,1.82,0,0,1-1.14.4,2,2,0,0,1-1.88-2,1.91,1.91,0,0,1,1.84-2,1.85,1.85,0,0,1,1.76,2v.16h-3.24a1.57,1.57,0,0,0,1.52,1.48,1.49,1.49,0,0,0,.94-.34,1.1,1.1,0,0,0,.3-.34Zm-.16-1.4a1.42,1.42,0,0,0-1.4-1.44,1.55,1.55,0,0,0-1.48,1.44Z"/><path class="cls-4" d="M132.15,576.61a2.54,2.54,0,0,0,.29.28,1.25,1.25,0,0,0,.79.28c.64,0,1-.35,1-.8,0-1-2.2-.52-2.2-1.8a1.17,1.17,0,0,1,1.24-1,1.68,1.68,0,0,1,.89.28,2.12,2.12,0,0,1,.31.28l-.28.28a1.29,1.29,0,0,0-.23-.24,1.11,1.11,0,0,0-.69-.24c-.56,0-.88.33-.88.68,0,.93,2.2.47,2.2,1.8a1.22,1.22,0,0,1-1.36,1.16,1.72,1.72,0,0,1-1-.32,1.35,1.35,0,0,1-.35-.32Z"/><path class="cls-4" d="M140.51,577.05v.4H137c0-2.21,3.12-2.39,3.12-4.08a1.23,1.23,0,0,0-1.36-1.2,1.29,1.29,0,0,0-1.08.51,1.4,1.4,0,0,0-.24.49l-.36-.16a1.7,1.7,0,0,1,.32-.61,1.61,1.61,0,0,1,1.36-.63,1.65,1.65,0,0,1,1.76,1.6c0,1.8-2.72,2.07-3.08,3.68Z"/><path class="cls-4" d="M144,575.21l-.19.08a1.79,1.79,0,1,1,1.31-1.72,2.06,2.06,0,0,1-.2.86,1.6,1.6,0,0,1-.2.34L143,577.45h-.44Zm-.72-.24a1.4,1.4,0,1,0-1.44-1.4A1.38,1.38,0,0,0,143.27,575Z"/><path class="cls-4" d="M148,571.77h.4L146,579.13h-.4Z"/><path class="cls-4" d="M149.19,576.41a2,2,0,0,0,.36.36,1.74,1.74,0,0,0,1.08.36,1.39,1.39,0,0,0,1.48-1.4,1.37,1.37,0,0,0-1.4-1.4,1.5,1.5,0,0,0-1,.35,1.18,1.18,0,0,0-.3.33h-.32l.2-3.16h2.84v.4h-2.48l-.12,2.12a1.48,1.48,0,0,1,.32-.21,1.61,1.61,0,0,1,.84-.23,1.8,1.8,0,1,1-.08,3.6,2.15,2.15,0,0,1-1.29-.41,2,2,0,0,1-.43-.43Z"/><path class="cls-4" d="M155.39,571.77h.4l-2.44,7.36H153Z"/><path class="cls-4" d="M159.71,577.05v.4h-3.52c0-2.21,3.12-2.39,3.12-4.08a1.23,1.23,0,0,0-1.36-1.2,1.27,1.27,0,0,0-1.08.51,1.4,1.4,0,0,0-.24.49l-.36-.16a1.85,1.85,0,0,1,.31-.61,1.78,1.78,0,0,1,3.13,1c0,1.8-2.73,2.07-3.08,3.68Z"/><path class="cls-4" d="M164.11,577.05v.4h-3.52c0-2.21,3.12-2.39,3.12-4.08a1.23,1.23,0,0,0-1.36-1.2,1.27,1.27,0,0,0-1.08.51,1.4,1.4,0,0,0-.24.49l-.36-.16a1.7,1.7,0,0,1,.32-.61,1.61,1.61,0,0,1,1.36-.63,1.65,1.65,0,0,1,1.76,1.6c0,1.8-2.73,2.07-3.08,3.68Z"/><path class="cls-4" d="M165.39,576.93a.28.28,0,1,1-.28.28A.27.27,0,0,1,165.39,576.93Z"/><path class="cls-4" d="M169.35,571.85h.44l2,5,2-5h.44l-2.2,5.6h-.4Z"/><path class="cls-4" d="M175.11,572a.28.28,0,1,1-.28.28A.27.27,0,0,1,175.11,572Zm-.2,1.64h.36v3.84h-.36Z"/><path class="cls-4" d="M176.59,576.61a2.54,2.54,0,0,0,.29.28,1.23,1.23,0,0,0,.79.28c.64,0,1-.35,1-.8,0-1-2.2-.52-2.2-1.8a1.16,1.16,0,0,1,1.24-1,1.71,1.71,0,0,1,.89.28,2.12,2.12,0,0,1,.31.28l-.28.28a1.29,1.29,0,0,0-.23-.24,1.11,1.11,0,0,0-.69-.24c-.57,0-.88.33-.88.68,0,.93,2.2.47,2.2,1.8a1.22,1.22,0,0,1-1.36,1.16,1.69,1.69,0,0,1-1-.32,1.59,1.59,0,0,1-.36-.32Z"/><path class="cls-4" d="M180.35,572a.28.28,0,1,1-.28.28A.27.27,0,0,1,180.35,572Zm-.2,1.64h.36v3.84h-.36Z"/><path class="cls-4" d="M182.23,574h-.76v-.36H182a.29.29,0,0,0,.28-.32v-1h.32v1.28h.88V574h-.88v2.52c0,.45.24.68.6.68a1.32,1.32,0,0,0,.37,0,1.07,1.07,0,0,0,.15-.07v.36l-.15.06a1,1,0,0,1-.37.06c-.61,0-1-.36-1-1Z"/><path class="cls-4" d="M185.63,573.61h.4l1.08,3.24,1-3.24h.32l1,3.28,1.08-3.28h.4l-1.28,3.84h-.36l-1-3.24-1,3.24h-.36Z"/><path class="cls-4" d="M191.31,573.61h.4l1.08,3.24,1-3.24h.32l1,3.28,1.08-3.28h.4l-1.28,3.84H195l-1-3.24-1,3.24h-.36Z"/><path class="cls-4" d="M197,573.61h.4l1.08,3.24,1-3.24h.32l1,3.28,1.08-3.28h.4l-1.28,3.84h-.36l-1-3.24-1,3.24h-.36Z"/><path class="cls-4" d="M203,576.93a.28.28,0,1,1-.28.28A.27.27,0,0,1,203,576.93Z"/><path class="cls-4" d="M204.67,571.85h1.64a2.8,2.8,0,1,1,0,5.6h-1.64Zm1.64,5.2a2.4,2.4,0,1,0,0-4.8h-1.24v4.8Z"/><path class="cls-4" d="M212.75,576.77a1.52,1.52,0,0,1-.33.39,1.6,1.6,0,0,1-1.07.37,1.18,1.18,0,0,1-1.28-1.08c0-.61.43-1,1.16-1.16l1.52-.24a1,1,0,0,0-1.08-1.16,1.46,1.46,0,0,0-.83.28,1.94,1.94,0,0,0-.29.28l-.24-.24a1.56,1.56,0,0,1,.35-.33,1.66,1.66,0,0,1,1-.35,1.41,1.41,0,0,1,1.44,1.52v2.4h-.36Zm0-1.36-1.44.24c-.61.1-.88.39-.88.8a.83.83,0,0,0,.92.72,1.37,1.37,0,0,0,1.4-1.4Z"/><path class="cls-4" d="M214.35,576.61a1.92,1.92,0,0,0,.29.28,1.23,1.23,0,0,0,.79.28c.64,0,1-.35,1-.8,0-1-2.2-.52-2.2-1.8a1.16,1.16,0,0,1,1.24-1,1.71,1.71,0,0,1,.89.28,2.12,2.12,0,0,1,.31.28l-.28.28a1.29,1.29,0,0,0-.23-.24,1.11,1.11,0,0,0-.69-.24c-.57,0-.88.33-.88.68,0,.93,2.2.47,2.2,1.8a1.22,1.22,0,0,1-1.36,1.16,1.73,1.73,0,0,1-1-.32,1.78,1.78,0,0,1-.35-.32Z"/><path class="cls-4" d="M217.91,571.85h.36v2.44a1.79,1.79,0,0,1,.31-.37,1.45,1.45,0,0,1,1-.39,1.56,1.56,0,0,1,1.56,1.64v2.28h-.36v-2.28a1.19,1.19,0,0,0-1.2-1.28,1.34,1.34,0,0,0-1.32,1.4v2.16h-.36Z"/><path class="cls-4" d="M225.71,577.05v.4h-3.52c0-2.21,3.12-2.39,3.12-4.08a1.23,1.23,0,0,0-1.36-1.2,1.27,1.27,0,0,0-1.08.51,1.4,1.4,0,0,0-.24.49l-.36-.16a1.68,1.68,0,0,1,.31-.61,1.78,1.78,0,0,1,3.13,1c0,1.8-2.73,2.07-3.08,3.68Z"/><path class="cls-4" d="M227.07,571.85h.4v5.2h3v.4h-3.4Z"/><path class="cls-4" d="M233.11,571.85h.4l2.32,5.6h-.44l-.68-1.64h-2.8l-.68,1.64h-.44Zm1.44,3.56-1.24-3-1.24,3Z"/><path class="cls-4" d="M236.79,576.93a.28.28,0,1,1-.28.28A.27.27,0,0,1,236.79,576.93Z"/><path class="cls-4" d="M241.39,576.73a1.64,1.64,0,0,1-.39.4,1.79,1.79,0,0,1-1.13.4,2,2,0,0,1,0-4,1.79,1.79,0,0,1,1.13.4,1.64,1.64,0,0,1,.39.4l-.28.24a1.22,1.22,0,0,0-.31-.33,1.44,1.44,0,0,0-.93-.35,1.64,1.64,0,0,0,0,3.28,1.44,1.44,0,0,0,.93-.34,1.13,1.13,0,0,0,.31-.34Z"/><path class="cls-4" d="M242,575.53a1.92,1.92,0,1,1,1.92,2A2,2,0,0,1,242,575.53Zm3.48,0a1.56,1.56,0,1,0-1.56,1.64A1.61,1.61,0,0,0,245.51,575.53Z"/><path class="cls-4" d="M247,573.61h.36v.64a1.83,1.83,0,0,1,.26-.36,1.27,1.27,0,0,1,.9-.36,1.37,1.37,0,0,1,1,.44,1.81,1.81,0,0,1,.3.44A1.76,1.76,0,0,1,250,574a1.38,1.38,0,0,1,1-.44,1.49,1.49,0,0,1,1.44,1.64v2.28h-.36v-2.28a1.14,1.14,0,0,0-1.08-1.28,1.24,1.24,0,0,0-1.16,1.4v2.16h-.36v-2.28a1.14,1.14,0,0,0-1.08-1.28,1.24,1.24,0,0,0-1.16,1.4v2.16H247Z"/><path class="cls-4" d="M255.63,574H255v-.36h.64v-.8c0-.68.35-1,1-1a1.35,1.35,0,0,1,.37.07l.15,0v.36l-.15,0a1.35,1.35,0,0,0-.37-.07c-.36,0-.6.24-.6.68v.8h1V574h-1v3.48h-.36Z"/><path class="cls-4" d="M257.59,575.53a1.92,1.92,0,1,1,1.92,2A2,2,0,0,1,257.59,575.53Zm3.48,0a1.56,1.56,0,1,0-1.56,1.64A1.61,1.61,0,0,0,261.07,575.53Z"/><path class="cls-4" d="M262.51,573.61h.36v.68a1.37,1.37,0,0,1,.32-.37,1.49,1.49,0,0,1,1-.39h.16v.36h-.16a1.35,1.35,0,0,0-1.36,1.4v2.16h-.36Z"/><path class="cls-4" d="M267.71,572.25h-1.84v-.4H270v.4h-1.84v5.2h-.4Z"/><path class="cls-4" d="M273.71,576.29a2.75,2.75,0,0,0,.2-.42,3.6,3.6,0,0,0,.2-1.14h.35a3.53,3.53,0,0,1-.26,1.34,3.33,3.33,0,0,1-.25.5,1.6,1.6,0,0,0,.22.28.71.71,0,0,0,.5.28h.16l.07,0v.36l-.07,0-.16,0a1,1,0,0,1-.69-.32,1.69,1.69,0,0,1-.27-.32,2,2,0,0,1-.41.35,2.21,2.21,0,0,1-1.15.33,1.37,1.37,0,0,1-1.48-1.36,1.74,1.74,0,0,1,.56-1.19,2.76,2.76,0,0,1,.56-.45,2.92,2.92,0,0,1-.44-.5,1.85,1.85,0,0,1-.44-1.06,1.18,1.18,0,0,1,1.24-1.2,1.12,1.12,0,0,1,1.2,1.16,1.72,1.72,0,0,1-.55,1.14,2.92,2.92,0,0,1-.53.46ZM272,574.77a2.49,2.49,0,0,0-.48.42,1.48,1.48,0,0,0-.48,1c0,.61.39,1,1.12,1a1.76,1.76,0,0,0,1-.29,1.64,1.64,0,0,0,.33-.31Zm.53-.89a1.54,1.54,0,0,0,.47-1,.77.77,0,0,0-.84-.8.83.83,0,0,0-.88.84,1.57,1.57,0,0,0,.4.88,3.25,3.25,0,0,0,.4.44A2.92,2.92,0,0,0,272.52,573.88Z"/><path class="cls-4" d="M280.62,576.33a2.79,2.79,0,0,1-.59.6,2.72,2.72,0,0,1-1.72.6,2.88,2.88,0,0,1,0-5.76,2.81,2.81,0,0,1,1.71.6,3.53,3.53,0,0,1,.56.6l-.28.24a2.66,2.66,0,0,0-.49-.52,2.45,2.45,0,0,0-1.5-.52,2.48,2.48,0,0,0,0,5,2.4,2.4,0,0,0,1.52-.52,2.29,2.29,0,0,0,.51-.52Z"/><path class="cls-4" d="M281.59,576.61a1.54,1.54,0,0,0,.29.28,1.21,1.21,0,0,0,.79.28c.64,0,1-.35,1-.8,0-1-2.2-.52-2.2-1.8a1.16,1.16,0,0,1,1.24-1,1.67,1.67,0,0,1,.88.28,2.21,2.21,0,0,1,.32.28l-.28.28a1.81,1.81,0,0,0-.24-.24,1.11,1.11,0,0,0-.68-.24c-.57,0-.88.33-.88.68,0,.93,2.2.47,2.2,1.8a1.22,1.22,0,0,1-1.36,1.16,1.73,1.73,0,0,1-1-.32,1.35,1.35,0,0,1-.35-.32Z"/><path class="cls-4" d="M285.23,576.93a.28.28,0,1,1-.28.28A.27.27,0,0,1,285.23,576.93Z"/><path class="cls-4" d="M8.66,582.25H9l3.72,4.84v-4.84h.4v5.6h-.32L9.06,583v4.84h-.4Z"/><path class="cls-4" d="M14.62,586.81a1.31,1.31,0,0,0,.38.36,1.9,1.9,0,0,0,1.18.36c1,0,1.44-.48,1.44-1.16,0-1.52-3.12-.8-3.12-2.72a1.58,1.58,0,0,1,1.76-1.48,2.24,2.24,0,0,1,1.19.35,1.7,1.7,0,0,1,.41.33l-.28.28a1.73,1.73,0,0,0-1.32-.56c-.88,0-1.36.48-1.36,1.08,0,1.52,3.12.8,3.12,2.72a1.62,1.62,0,0,1-1.84,1.56,2.36,2.36,0,0,1-1.39-.42,2,2,0,0,1-.45-.42Z"/><path class="cls-4" d="M18.5,582.25h.44l1.56,5,1.6-5h.4l1.6,5,1.55-5h.44l-1.79,5.6h-.4l-1.6-5-1.6,5h-.4Z"/><path class="cls-4" d="M28.54,582.25h2a1.72,1.72,0,1,1,0,3.44h-1.6v2.16h-.4Zm2,3a1.32,1.32,0,1,0,0-2.64h-1.6v2.64Z"/><path class="cls-4" d="M36.34,587.13a1.84,1.84,0,0,1-.39.4,1.79,1.79,0,0,1-1.13.4,2,2,0,0,1-1.88-2,1.91,1.91,0,0,1,1.84-2,1.85,1.85,0,0,1,1.76,2v.16H33.3a1.57,1.57,0,0,0,1.52,1.48,1.52,1.52,0,0,0,.93-.33,1.3,1.3,0,0,0,.31-.35Zm-.16-1.4a1.42,1.42,0,0,0-1.4-1.44,1.55,1.55,0,0,0-1.48,1.44Z"/><path class="cls-4" d="M37.62,584H38v.68a1.37,1.37,0,0,1,.32-.37,1.49,1.49,0,0,1,1-.39h.16v.36h-.16a1.35,1.35,0,0,0-1.36,1.4v2.16h-.36Z"/><path class="cls-4" d="M40.3,584h.36v.64a1.83,1.83,0,0,1,.26-.36,1.25,1.25,0,0,1,.9-.36,1.39,1.39,0,0,1,1,.44,2.14,2.14,0,0,1,.3.44,1.72,1.72,0,0,1,.28-.44,1.41,1.41,0,0,1,1-.44,1.49,1.49,0,0,1,1.43,1.64v2.28H45.5v-2.28a1.14,1.14,0,0,0-1.08-1.28,1.24,1.24,0,0,0-1.16,1.4v2.16H42.9v-2.28a1.14,1.14,0,0,0-1.08-1.28,1.24,1.24,0,0,0-1.16,1.4v2.16H40.3Z"/><path class="cls-4" d="M47.42,582.37a.28.28,0,1,1-.28.28A.27.27,0,0,1,47.42,582.37Zm-.2,1.64h.36v3.84h-.36Z"/><path class="cls-4" d="M49.3,584.37h-.76V584h.52a.29.29,0,0,0,.28-.32v-1h.32V584h.88v.36h-.88v2.52c0,.45.24.68.6.68a1,1,0,0,0,.36-.06l.16-.06v.36l-.16.07a1.25,1.25,0,0,1-.36,0c-.61,0-1-.36-1-1Z"/><path class="cls-4" d="M53.58,582.25h.32l3.71,4.84v-4.84H58v5.6h-.32L54,583v4.84h-.4Z"/><path class="cls-4" d="M59.3,585.93a1.92,1.92,0,1,1,1.92,2A2,2,0,0,1,59.3,585.93Zm3.48,0a1.56,1.56,0,1,0-1.56,1.64A1.61,1.61,0,0,0,62.78,585.93Z"/><path class="cls-4" d="M64.34,587.33a.28.28,0,1,1-.28.28A.27.27,0,0,1,64.34,587.33Z"/><path class="cls-4" d="M68.5,582.65H66.66v-.4h4.07v.4H68.89v5.2H68.5Z"/><path class="cls-4" d="M71.78,582.25h2a1.72,1.72,0,1,1,0,3.44h-1.6v2.16h-.39Zm2,3a1.32,1.32,0,1,0,0-2.64h-1.6v2.64Z"/><path class="cls-4" d="M78.45,582.17h.4l-2.43,7.36H76Z"/><path class="cls-4" d="M79.38,585.05c0-1.8,1.07-2.88,2.15-2.88s2.16,1.08,2.16,2.88-1.07,2.88-2.16,2.88S79.38,586.85,79.38,585.05Zm3.91,0c0-1.6-.88-2.48-1.76-2.48s-1.75.88-1.75,2.48.88,2.48,1.75,2.48S83.29,586.65,83.29,585.05Z"/><path class="cls-4" d="M85.62,583a1.43,1.43,0,0,1-.26.23,1.47,1.47,0,0,1-.82.21v-.32a1.18,1.18,0,0,0,.86-.41,2.34,2.34,0,0,0,.3-.43H86v5.6h-.39Z"/><path class="cls-4" d="M90.09,582.65h-3v-.4h3.47v.4L88,587.85h-.43Z"/><path class="cls-4" d="M92.89,582.25h.44l-1.4,2.24.2-.08a1.67,1.67,0,0,1,.52-.08,1.8,1.8,0,1,1-1.84,1.8,2,2,0,0,1,.2-.85,2.91,2.91,0,0,1,.2-.35Zm-.24,5.28a1.4,1.4,0,1,0-1.44-1.4A1.38,1.38,0,0,0,92.65,587.53Z"/><path class="cls-4" d="M97.89,582.65h-3v-.4h3.47v.4l-2.56,5.2h-.44Z"/><path class="cls-4" d="M98.65,587.33a.28.28,0,1,1-.28.28A.27.27,0,0,1,98.65,587.33Z"/><path class="cls-4" d="M104.89,582.25h.4l2.32,5.6h-.44l-.68-1.64h-2.8l-.68,1.64h-.44Zm1.44,3.56-1.24-3-1.24,3Z"/><path class="cls-4" d="M113.25,586.73a2.8,2.8,0,0,1-.59.6,2.73,2.73,0,0,1-1.73.6,2.88,2.88,0,0,1,0-5.76,2.76,2.76,0,0,1,1.71.6,3.23,3.23,0,0,1,.57.6l-.28.24a3,3,0,0,0-.49-.52,2.49,2.49,0,0,0-1.51-.52,2.48,2.48,0,1,0,1.53,4.44,2.29,2.29,0,0,0,.51-.52Z"/><path class="cls-4" d="M115.61,582.65h-1.84v-.4h4.08v.4H116v5.2h-.4Z"/><path class="cls-4" d="M120.25,582.25h2a1.72,1.72,0,1,1,0,3.44h-1.6v2.16h-.4Zm2,3a1.32,1.32,0,1,0,0-2.64h-1.6v2.64Z"/><path class="cls-4" d="M128.05,587.13a1.79,1.79,0,0,1-.38.4,1.82,1.82,0,0,1-1.14.4,2,2,0,0,1-1.88-2,1.91,1.91,0,0,1,1.84-2,1.85,1.85,0,0,1,1.76,2v.16H125a1.57,1.57,0,0,0,1.52,1.48,1.55,1.55,0,0,0,.94-.33,1.27,1.27,0,0,0,.3-.35Zm-.16-1.4a1.42,1.42,0,0,0-1.4-1.44,1.55,1.55,0,0,0-1.48,1.44Z"/><path class="cls-4" d="M129.33,584h.36v.68a1.58,1.58,0,0,1,.32-.37,1.51,1.51,0,0,1,1-.39h.16v.36h-.16a1.35,1.35,0,0,0-1.36,1.4v2.16h-.36Z"/><path class="cls-4" d="M132,584h.36v.64a1.54,1.54,0,0,1,.27-.36,1.23,1.23,0,0,1,.89-.36,1.4,1.4,0,0,1,1,.44,2.09,2.09,0,0,1,.29.44,1.76,1.76,0,0,1,.29-.44,1.38,1.38,0,0,1,1-.44,1.49,1.49,0,0,1,1.44,1.64v2.28h-.36v-2.28a1.14,1.14,0,0,0-1.08-1.28,1.24,1.24,0,0,0-1.16,1.4v2.16h-.36v-2.28a1.14,1.14,0,0,0-1.08-1.28,1.24,1.24,0,0,0-1.16,1.4v2.16H132Z"/><path class="cls-4" d="M139.13,582.37a.28.28,0,1,1-.28.28A.27.27,0,0,1,139.13,582.37Zm-.2,1.64h.36v3.84h-.36Z"/><path class="cls-4" d="M141,584.37h-.76V584h.52a.29.29,0,0,0,.28-.32v-1h.32V584h.88v.36h-.88v2.52c0,.45.24.68.6.68a1,1,0,0,0,.37-.06l.15-.06v.36l-.15.07a1.32,1.32,0,0,1-.37,0c-.61,0-1-.36-1-1Z"/><path class="cls-4" d="M145.29,582.25h.32l3.72,4.84v-4.84h.4v5.6h-.32L145.69,583v4.84h-.4Z"/><path class="cls-4" d="M151,585.93a1.92,1.92,0,1,1,1.92,2A2,2,0,0,1,151,585.93Zm3.48,0a1.56,1.56,0,1,0-1.56,1.64A1.61,1.61,0,0,0,154.49,585.93Z"/><path class="cls-4" d="M156.05,587.33a.28.28,0,1,1-.28.28A.27.27,0,0,1,156.05,587.33Z"/><path class="cls-4" d="M160.21,582.65h-1.84v-.4h4.08v.4h-1.84v5.2h-.4Z"/><path class="cls-4" d="M163.49,582.25h2a1.72,1.72,0,1,1,0,3.44h-1.6v2.16h-.4Zm2,3a1.32,1.32,0,1,0,0-2.64h-1.6v2.64Z"/><path class="cls-4" d="M173,587.45v.4h-3.52c0-2.21,3.12-2.39,3.12-4.08a1.23,1.23,0,0,0-1.36-1.2,1.27,1.27,0,0,0-1.08.51,1.4,1.4,0,0,0-.24.49l-.36-.16a1.68,1.68,0,0,1,.31-.61,1.78,1.78,0,0,1,3.13,1c0,1.8-2.73,2.07-3.08,3.68Z"/><path class="cls-4" d="M177.41,587.45v.4h-3.52c0-2.21,3.12-2.39,3.12-4.08a1.23,1.23,0,0,0-1.36-1.2,1.27,1.27,0,0,0-1.08.51,1.4,1.4,0,0,0-.24.49l-.36-.16a1.68,1.68,0,0,1,.31-.61,1.78,1.78,0,0,1,3.13,1c0,1.8-2.73,2.07-3.08,3.68Z"/><path class="cls-4" d="M180.33,582.17h.4l-2.44,7.36h-.4Z"/><path class="cls-4" d="M181.25,585.05c0-1.8,1.07-2.88,2.16-2.88s2.16,1.08,2.16,2.88-1.07,2.88-2.16,2.88S181.25,586.85,181.25,585.05Zm3.92,0c0-1.6-.89-2.48-1.76-2.48s-1.76.88-1.76,2.48.89,2.48,1.76,2.48S185.17,586.65,185.17,585.05Z"/><path class="cls-4" d="M186.61,585.05c0-1.8,1.07-2.88,2.16-2.88s2.16,1.08,2.16,2.88-1.07,2.88-2.16,2.88S186.61,586.85,186.61,585.05Zm3.92,0c0-1.6-.89-2.48-1.76-2.48s-1.76.88-1.76,2.48.89,2.48,1.76,2.48S190.53,586.65,190.53,585.05Z"/><path class="cls-4" d="M192.25,586.81a1.54,1.54,0,0,0,.36.36,1.74,1.74,0,0,0,1.08.36,1.39,1.39,0,0,0,1.48-1.4,1.37,1.37,0,0,0-1.4-1.4,1.48,1.48,0,0,0-1,.35,1,1,0,0,0-.3.33h-.32l.2-3.16h2.84v.4h-2.48l-.12,2.12a1.41,1.41,0,0,1,.31-.21,1.65,1.65,0,0,1,.85-.23,1.8,1.8,0,1,1-.08,3.6,2.11,2.11,0,0,1-1.3-.42,1.68,1.68,0,0,1-.42-.42Z"/><path class="cls-4" d="M196.81,586.81a1.54,1.54,0,0,0,.36.36,1.74,1.74,0,0,0,1.08.36,1.39,1.39,0,0,0,1.48-1.4,1.37,1.37,0,0,0-1.4-1.4,1.48,1.48,0,0,0-1,.35,1,1,0,0,0-.3.33h-.32l.2-3.16h2.84v.4h-2.48l-.12,2.12a1.41,1.41,0,0,1,.31-.21,1.65,1.65,0,0,1,.85-.23,1.8,1.8,0,1,1-.08,3.6,2.11,2.11,0,0,1-1.3-.42,1.68,1.68,0,0,1-.42-.42Z"/><path class="cls-4" d="M203.09,582.25h.44l-1.4,2.24.19-.08a1.74,1.74,0,0,1,.53-.08,1.8,1.8,0,1,1-1.84,1.8,2,2,0,0,1,.2-.85,2.91,2.91,0,0,1,.2-.35Zm-.24,5.28a1.4,1.4,0,1,0-1.44-1.4A1.38,1.38,0,0,0,202.85,587.53Z"/><path class="cls-4" d="M205.93,587.33a.28.28,0,1,1-.28.28A.27.27,0,0,1,205.93,587.33Z"/><path class="cls-4" d="M209,586.81a1.41,1.41,0,0,0,.37.36,2,2,0,0,0,1.19.36c1,0,1.44-.48,1.44-1.16,0-1.52-3.12-.8-3.12-2.72a1.58,1.58,0,0,1,1.76-1.48,2.24,2.24,0,0,1,1.19.35,1.91,1.91,0,0,1,.41.33l-.28.28a1.73,1.73,0,0,0-1.32-.56c-.88,0-1.36.48-1.36,1.08,0,1.52,3.12.8,3.12,2.72a1.62,1.62,0,0,1-1.84,1.56,2.36,2.36,0,0,1-1.39-.42,2,2,0,0,1-.45-.42Z"/><path class="cls-4" d="M215.29,582.25h.4l2.32,5.6h-.44l-.68-1.64h-2.8l-.68,1.64H213Zm1.44,3.56-1.24-3-1.24,3Z"/><path class="cls-4" d="M220.41,582.25h.4v5.2h3v.4h-3.4Z"/><path class="cls-4" d="M224.89,582.37a.28.28,0,1,1-.28.28A.27.27,0,0,1,224.89,582.37Zm-.2,1.64h.36v3.84h-.36Z"/><path class="cls-4" d="M229.57,587.13a2.11,2.11,0,0,1-.39.4,1.79,1.79,0,0,1-1.13.4,2,2,0,0,1,0-4,1.79,1.79,0,0,1,1.13.4,2.11,2.11,0,0,1,.39.4l-.28.24a1.22,1.22,0,0,0-.31-.33,1.46,1.46,0,0,0-.93-.35,1.64,1.64,0,0,0,0,3.28,1.52,1.52,0,0,0,.93-.33,1.3,1.3,0,0,0,.31-.35Z"/><path class="cls-4" d="M233.61,587.13a1.84,1.84,0,0,1-.39.4,1.79,1.79,0,0,1-1.13.4,2,2,0,0,1-1.88-2,1.91,1.91,0,0,1,1.84-2,1.85,1.85,0,0,1,1.76,2v.16h-3.24a1.57,1.57,0,0,0,1.52,1.48,1.52,1.52,0,0,0,.93-.33,1.3,1.3,0,0,0,.31-.35Zm-.16-1.4a1.42,1.42,0,0,0-1.4-1.44,1.55,1.55,0,0,0-1.48,1.44Z"/><path class="cls-4" d="M234.89,584h.36v.68a1.53,1.53,0,0,1,.31-.37,1.45,1.45,0,0,1,1-.39,1.56,1.56,0,0,1,1.56,1.64v2.28h-.36v-2.28a1.19,1.19,0,0,0-1.2-1.28,1.34,1.34,0,0,0-1.32,1.4v2.16h-.36Z"/><path class="cls-4" d="M242.57,587.13a2.11,2.11,0,0,1-.39.4,1.79,1.79,0,0,1-1.13.4,2,2,0,0,1,0-4,1.79,1.79,0,0,1,1.13.4,2.11,2.11,0,0,1,.39.4l-.28.24a1.22,1.22,0,0,0-.31-.33,1.46,1.46,0,0,0-.93-.35,1.64,1.64,0,0,0,0,3.28,1.52,1.52,0,0,0,.93-.33,1.3,1.3,0,0,0,.31-.35Z"/><path class="cls-4" d="M246.61,587.13a1.84,1.84,0,0,1-.39.4,1.79,1.79,0,0,1-1.13.4,2,2,0,0,1-1.88-2,1.91,1.91,0,0,1,1.84-2,1.85,1.85,0,0,1,1.76,2v.16h-3.24a1.57,1.57,0,0,0,1.52,1.48,1.52,1.52,0,0,0,.93-.33,1.3,1.3,0,0,0,.31-.35Zm-.16-1.4a1.42,1.42,0,0,0-1.4-1.44,1.55,1.55,0,0,0-1.48,1.44Z"/><path class="cls-4" d="M249.69,582.25H250l3.72,4.84v-4.84h.4v5.6h-.32L250.09,583v4.84h-.4Z"/><path class="cls-4" d="M255.41,585.93a1.92,1.92,0,1,1,1.92,2A2,2,0,0,1,255.41,585.93Zm3.48,0a1.56,1.56,0,1,0-1.56,1.64A1.61,1.61,0,0,0,258.89,585.93Z"/><path class="cls-4" d="M260.45,587.33a.28.28,0,1,1-.28.28A.27.27,0,0,1,260.45,587.33Z"/><path class="cls-4" d="M264.61,582.65h-1.84v-.4h4.08v.4H265v5.2h-.4Z"/><path class="cls-4" d="M270.93,587.45v.4h-3.52c0-2.21,3.12-2.39,3.12-4.08a1.23,1.23,0,0,0-1.36-1.2,1.27,1.27,0,0,0-1.08.51,1.4,1.4,0,0,0-.24.49l-.36-.16a1.68,1.68,0,0,1,.31-.61,1.78,1.78,0,0,1,3.13,1c0,1.8-2.73,2.07-3.08,3.68Z"/><path class="cls-4" d="M275.33,587.45v.4h-3.52c0-2.21,3.12-2.39,3.12-4.08a1.23,1.23,0,0,0-1.36-1.2,1.27,1.27,0,0,0-1.08.51,1.4,1.4,0,0,0-.24.49l-.36-.16a1.68,1.68,0,0,1,.31-.61,1.78,1.78,0,0,1,3.13,1c0,1.8-2.73,2.07-3.08,3.68Z"/><path class="cls-4" d="M278.25,582.17h.4l-2.44,7.36h-.4Z"/><path class="cls-4" d="M278.81,586.09l2.8-3.84h.48v3.92h.72v.4h-.72v1.28h-.4v-1.28h-2.88Zm2.88.08v-3.4l-2.48,3.4Z"/><path class="cls-4" d="M283.49,586.81a1.41,1.41,0,0,0,.37.36,1.74,1.74,0,0,0,1.11.36,1.22,1.22,0,1,0,0-2.4h-.52v-.4H285a1.09,1.09,0,1,0,0-2.16,1.68,1.68,0,0,0-1,.32,1.74,1.74,0,0,0-.34.32l-.28-.32a2.07,2.07,0,0,1,.41-.36,2.15,2.15,0,0,1,1.19-.36,1.54,1.54,0,0,1,1.64,1.48,1.15,1.15,0,0,1-.47,1,1.24,1.24,0,0,1-.45.25,1.91,1.91,0,0,1,.56.31,1.37,1.37,0,0,1,.56,1.13,1.72,1.72,0,0,1-1.84,1.6,2.14,2.14,0,0,1-1.33-.42,1.72,1.72,0,0,1-.43-.42Z"/><path class="cls-4" d="M288.69,583a1,1,0,0,1-.26.23,1.47,1.47,0,0,1-.82.21v-.32a1.18,1.18,0,0,0,.86-.41,2.34,2.34,0,0,0,.3-.43h.32v5.6h-.4Z"/><path class="cls-4" d="M290.77,587.33a.28.28,0,1,1-.28.28A.27.27,0,0,1,290.77,587.33Z"/><path class="cls-5" d="M140.12,511.26c0,4.82,0,12.11,0,12.46v20l0,8.84a4.86,4.86,0,0,1-4.87,4.68l-67.39,0v-.1A25.3,25.3,0,0,1,70,506.59l65.4,0a4.71,4.71,0,0,1,4.7,4.7"/><path class="cls-6" d="M138.17,511.26a2.75,2.75,0,0,0-2.75-2.75l-65.4,0a23.35,23.35,0,0,0-.21,46.7h0l65.44,0a2.92,2.92,0,0,0,2.92-2.81l0-8.76V523.64c0-.24,0-5.83,0-12.38"/><path class="cls-7" d="M136.22,511.26a.75.75,0,0,0-.24-.56.77.77,0,0,0-.56-.24l-56,0a23.36,23.36,0,0,1,0,42.82l55.9,0a1,1,0,0,0,1-.93l0-8.69V523.58c0-.37,0-5.71,0-12.32"/><path class="cls-8" d="M70,547.71c-8,0-14.94-3.24-18.62-8a20.18,20.18,0,0,0,37.24,0c-3.68,4.79-10.65,8-18.62,8"/><path class="cls-8" d="M51.34,524.11c3.68-4.79,10.64-8,18.62-8s14.94,3.24,18.62,8a20.18,20.18,0,0,0-37.24,0"/><path class="cls-4" d="M91.33,531.9A21.38,21.38,0,1,0,70,553.27,21.4,21.4,0,0,0,91.33,531.9m-40,7.78c3.68,4.79,10.64,8,18.62,8s14.94-3.24,18.62-8a20.18,20.18,0,0,1-37.24,0m37.24-15.57c-3.68-4.79-10.65-8-18.62-8s-14.94,3.24-18.62,8a20.18,20.18,0,0,1,37.24,0m1.53,7H80.86v1.21h9.27C89.8,540.19,80.88,546.5,70,546.5s-19.84-6.31-20.17-14.16h6.85v-1.21H49.8c.56-7.7,9.39-13.83,20.16-13.83s19.6,6.13,20.15,13.83"/><polygon class="cls-4" points="60.71 531.02 60.71 540 57.69 540 57.69 523.37 61.16 523.37 63.21 532.39 63.21 523.37 66.31 523.37 66.31 540 62.71 540 60.71 531.02"/><path class="cls-4" d="M75.31,536.93c0,2.22-.92,3.07-2.85,3.07H67.52V523.37h4.94c1.93,0,2.85.85,2.85,3.06v1.88c0,1.94-.56,2.78-1.86,3,1.3.21,1.86,1.08,1.86,3Zm-3.37-10.5a.55.55,0,0,0-.51-.61h-.57v4.28h.54a.55.55,0,0,0,.54-.58Zm0,6.76a.56.56,0,0,0-.54-.59h-.54v4.95h.57a.55.55,0,0,0,.51-.62Z"/><polygon class="cls-4" points="76.45 523.37 79.8 523.37 79.8 537.41 82.22 537.41 82.22 540 76.45 540 76.45 523.37"/><path class="cls-4" d="M114.76,550.91c-10.26,0-16.12-1.65-18.17-5.08a5.17,5.17,0,0,1-.63-2.11V523.61s0-.17,0-.43v-1a3.53,3.53,0,0,1,0-.48c.55-4.28,6.94-8.52,18.77-8.52s18.23,4.24,18.77,8.52a15.72,15.72,0,0,1,0,1.92v20.11a5.07,5.07,0,0,1-.62,2.11c-2.06,3.43-7.92,5.08-18.18,5.08"/><path class="cls-4" d="M130.72,549.38c.14,0,.27,0,.27-.18s-.13-.17-.24-.17h-.24v.35Zm-.21.63h-.17v-1.12h.43c.27,0,.4.1.4.32a.3.3,0,0,1-.29.31l.32.49H131l-.3-.48h-.2Zm.22.27a.79.79,0,0,0,.79-.82.79.79,0,1,0-1.58,0,.79.79,0,0,0,.79.82m-1-.82a1,1,0,1,1,1,1,1,1,0,0,1-1-1"/><path class="cls-9" d="M114.7,549.75c11,0,16.58-1.93,17.58-5.62.17-.68-.38-.88-.93-.88H98.05c-.55,0-1.1.2-.94.88,1,3.69,6.58,5.62,17.59,5.62"/><path class="cls-9" d="M114.71,514.32c-11,0-16.88,3.78-17.59,7.58a.89.89,0,0,0,.93,1.18h33.31a.88.88,0,0,0,.93-1.18c-.7-3.8-6.57-7.58-17.58-7.58"/><path class="cls-7" d="M128.93,526.46l-.7-1.11A1.09,1.09,0,0,0,127,525a.76.76,0,0,0-.47,1.05l1.38,2.25a.84.84,0,0,1,.15.46v1.63c0,.46.55.68.94.68s.93-.22.93-.68v-1.63a.64.64,0,0,1,.15-.45l1.38-2.26A.77.77,0,0,0,131,525a1.08,1.08,0,0,0-1.2.33l-.71,1.11c-.05.09-.12.09-.18,0m-4.23,7.66c-.28.17,0,.53.22.52s1.26-.91.86-1.8a.67.67,0,0,0-.6-.4.64.64,0,0,0-.65.63.58.58,0,0,0,.34.58c.08,0,.06.09,0,.13a.71.71,0,0,1-.22.34m3.73,7.28a3.29,3.29,0,0,1-2.48-.76,1,1,0,0,1-.09-1.28.92.92,0,0,1,1.31-.34,1.53,1.53,0,0,0,1,.25.65.65,0,0,0,.65-.72c0-.37-.32-.5-.57-.55l-.53-.11a2.37,2.37,0,0,1-2.06-2.16,3,3,0,0,1,3.16-3.24h0a2.59,2.59,0,0,1,2.17.76,1,1,0,0,1,.08,1.27.9.9,0,0,1-1.3.34,1.33,1.33,0,0,0-.88-.25.56.56,0,0,0-.59.61c0,.3.33.45.54.51l.6.15a2.54,2.54,0,0,1,2.1,2.46,2.81,2.81,0,0,1-3.14,3.06m-4.33-7.06-1.76,2.14a.59.59,0,0,0-.08.75c.31.42,1.71,2,1.71,2a1.14,1.14,0,0,1,0,1.73c-1,.84-1.51.12-1.51.12l-2.28-2.76s-.23-.22-.23.19v1.88c0,.67-.73,1-1.23,1s-1.23-.32-1.23-1v-7c0-.67.73-1,1.23-1s1.23.31,1.23,1v1.87c0,.23.15.24.25.11l2-2.46a1.1,1.1,0,0,1,1.7-.13,1,1,0,0,1,.17,1.47m-23.66,7a2.22,2.22,0,0,0,2.43-2.51v-5.46c0-.67-.73-1-1.23-1s-1.23.32-1.23,1v5c0,.79-.46,1-.66.41a.88.88,0,0,0-1.27-.41,1,1,0,0,0-.5,1.19,2.3,2.3,0,0,0,2.45,1.76m6.77-3.23h-.82a.1.1,0,0,1-.1-.15l.4-1.3c0-.19.21-.21.26,0l.4,1.3c0,.12,0,.15-.14.15m.81,2,.12.4a1.29,1.29,0,0,0,1.36.83,1.06,1.06,0,0,0,.87-1.29l-2.09-6.74c-.19-.67-1-.86-1.46-.88s-1.27.23-1.46.88l-2.09,6.74a1.07,1.07,0,0,0,.87,1.29,1.29,1.29,0,0,0,1.36-.83l.13-.4c0-.13.08-.15.19-.15h2c.14,0,.16,0,.19.15m4.72-3.17c0,1.19.46,2.26,1.76,2.26a1.55,1.55,0,0,0,.84-.25,1,1,0,0,1,1.38.35,1,1,0,0,1-.09,1.35,3,3,0,0,1-2.25.8c-2.46,0-4.17-1.85-4.17-4.52s1.71-4.52,4.17-4.52a2.84,2.84,0,0,1,2.25.79,1,1,0,0,1,.09,1.35,1,1,0,0,1-1.38.35,1.5,1.5,0,0,0-.84-.25c-1.3,0-1.76,1.09-1.76,2.29Zm-12.65-8.14c-.12,0-.22,0-.22.19v1.39c0,.46-.56.68-.94.68s-.94-.22-.94-.68v-4.77c0-.46.56-.67.94-.67s.94.21.94.67v1.28a.18.18,0,0,0,.2.19h1c.13,0,.21-.05.21-.19v-1.28c0-.46.55-.67.94-.67s.93.21.93.67v4.77c0,.46-.55.68-.93.68s-.94-.22-.94-.68V529c0-.15-.1-.19-.22-.19Zm18.81,0a.79.79,0,1,1,0-1.57h1.32c.47,0,.76.18.76.63v1.7c0,1-1.24,1.51-2.62,1.51a2.9,2.9,0,0,1-3.16-3.15,3,3,0,0,1,3.18-3.12,3.27,3.27,0,0,1,2.2.65.7.7,0,0,1,.07,1,.79.79,0,0,1-1.06.24,2.16,2.16,0,0,0-1.11-.27c-1,0-1.34.74-1.34,1.56s.43,1.51,1.18,1.51.83-.19.8-.51c0-.12,0-.14-.24-.14m4.88-1.29a.65.65,0,0,0,.68-.66c0-.41-.13-.67-.71-.67-.22,0-.27,0-.34.14v1.08c0,.11.13.11.37.11m1.72.88c-.09.06-.08.11,0,.17l1,1.33c.27.35,0,.83-.33,1.05a1.05,1.05,0,0,1-1.25-.12l-1.3-1.69c-.08-.09-.18,0-.18.06v1.25c0,.45-.55.64-.92.64s-.92-.19-.92-.64v-4.83c0-.44.48-.67.92-.67h1.73a1.92,1.92,0,0,1,2.07,1.81,1.88,1.88,0,0,1-.8,1.64m-19.35,2.7c1.12,0,2.41-.73,2.41-1.77v-3.79c0-.45-.55-.64-.92-.64s-.92.19-.92.64V529c0,.25-.3.4-.57.4s-.57-.15-.57-.4v-3.42c0-.45-.55-.64-.92-.64s-.92.19-.92.64v3.79c0,1,1.28,1.77,2.41,1.77m4.88-2.52v1.8c0,.41-.56.69-1,.69s-1-.22-1-.69v-4.83c0-.46.57-.72,1-.72a1.22,1.22,0,0,1,1,.57l1.51,1.9c.12.15.29.17.29,0v-1.79c0-.46.56-.72,1-.72s.94.26.94.72v4.83c0,.47-.56.69-.94.69a1,1,0,0,1-1-.5l-1.6-2c-.09-.1-.26-.13-.26,0"/><path class="cls-4" d="M160,517.4v3a4.3,4.3,0,0,1-.56,2.56,2.47,2.47,0,0,1-2,.7,2.42,2.42,0,0,1-2-.7,4.25,4.25,0,0,1-.56-2.56v-3a4.26,4.26,0,0,1,.56-2.55,3.24,3.24,0,0,1,4,0A4.26,4.26,0,0,1,160,517.4Zm-1.88-.41a2.81,2.81,0,0,0-.15-1.16.66.66,0,0,0-1.06,0,2.85,2.85,0,0,0-.15,1.15v3.78a2.79,2.79,0,0,0,.15,1.15.66.66,0,0,0,1.06,0,2.76,2.76,0,0,0,.15-1.14Z"/><path class="cls-4" d="M161.56,514.3h3.82v1.41h-1.94v2.38h1.83v1.41h-1.83v4h-1.88Z"/><path class="cls-4" d="M166.64,514.3h3.83v1.41h-1.95v2.38h1.83v1.41h-1.83v4h-1.88Z"/><path class="cls-4" d="M171.76,514.3h1.9v9.15h-1.9Z"/><path class="cls-4" d="M180.17,516.83v.35h-1.83V517a3,3,0,0,0-.14-1.15.49.49,0,0,0-.48-.27.5.5,0,0,0-.49.27,3,3,0,0,0-.14,1.15v3.78a2.76,2.76,0,0,0,.15,1.14.57.57,0,0,0,1,0,2.69,2.69,0,0,0,.13-1v-.51h1.83v.5a3.17,3.17,0,0,1-.53,2.09,3.21,3.21,0,0,1-3.87-.1,4.25,4.25,0,0,1-.56-2.56v-3a4.24,4.24,0,0,1,.56-2.55,2.49,2.49,0,0,1,2-.69,2.45,2.45,0,0,1,1.86.59A3.17,3.17,0,0,1,180.17,516.83Z"/><path class="cls-4" d="M181.57,514.3h1.89v9.15h-1.89Z"/><path class="cls-4" d="M186.21,514.3h2.42l1.52,9.15h-1.83l-.24-1.92h-1.59l-.32,1.92H184.5Zm1.14,1.58-.62,4.24h1.16l-.49-4.24Z"/><path class="cls-4" d="M191.16,514.3H193V522h2.18v1.41h-4.06Z"/><path class="cls-4" d="M204.21,517.4v3a4.21,4.21,0,0,1-.57,2.56,3.19,3.19,0,0,1-4,0,4.25,4.25,0,0,1-.56-2.56v-3a4.26,4.26,0,0,1,.56-2.55,3.24,3.24,0,0,1,4,0A4.26,4.26,0,0,1,204.21,517.4Zm-1.88-.41a2.81,2.81,0,0,0-.15-1.16.66.66,0,0,0-1.06,0A2.85,2.85,0,0,0,201,517v3.78a2.79,2.79,0,0,0,.15,1.15.66.66,0,0,0,1.06,0,2.76,2.76,0,0,0,.15-1.14Z"/><path class="cls-4" d="M205.73,514.3h2.47l1.35,7.74h.13l-.14-7.74h1.54v9.15h-2.49l-1.34-7.75h-.12l.12,7.75h-1.52Z"/><path class="cls-4" d="M212.46,519.4h2.6v1.72h-2.6Z"/><path class="cls-4" d="M216.44,514.3h1.81a5.86,5.86,0,0,1,1.61.17,1.93,1.93,0,0,1,.9.57,2.21,2.21,0,0,1,.5,1,7.48,7.48,0,0,1,.15,1.7V520a7.58,7.58,0,0,1-.15,1.71,2.3,2.3,0,0,1-.5,1,2,2,0,0,1-.9.55,5.54,5.54,0,0,1-1.61.17h-1.81Zm1.91,1.41V522h.17a1.15,1.15,0,0,0,.79-.21,1.08,1.08,0,0,0,.22-.76v-4.39a1.09,1.09,0,0,0-.22-.76,1.15,1.15,0,0,0-.79-.21Z"/><path class="cls-4" d="M222.93,514.3h3.76v1.41h-1.87V518h1.73v1.41h-1.73V522h2v1.41h-3.92Z"/><path class="cls-4" d="M228.16,514.3h2.58l.82,6.57h.1l.93-6.57h2.55v9.15h-1.57v-7.51h-.11l-1.07,7.51H230.7l-.94-7.51h-.13v7.51h-1.47Z"/><path class="cls-4" d="M237.83,514.3h2.42l1.52,9.15h-1.83l-.24-1.92h-1.59l-.32,1.92h-1.67Zm1.14,1.58-.62,4.24h1.17l-.5-4.24Z"/><path class="cls-4" d="M242.78,514.3h2.47l1.36,7.74h.12l-.13-7.74h1.53v9.15h-2.49l-1.33-7.75h-.13l.13,7.75h-1.53Z"/><path class="cls-4" d="M249.68,514.3h1.82a5.73,5.73,0,0,1,1.6.17,1.93,1.93,0,0,1,.9.57,2.11,2.11,0,0,1,.5,1,7.48,7.48,0,0,1,.15,1.7V520a7.58,7.58,0,0,1-.15,1.71,2.2,2.2,0,0,1-.5,1,1.88,1.88,0,0,1-.9.55,5.46,5.46,0,0,1-1.6.17h-1.82Zm1.91,1.41V522h.17a1.13,1.13,0,0,0,.79-.21,1,1,0,0,0,.22-.76v-4.39a1,1,0,0,0-.22-.76,1.13,1.13,0,0,0-.79-.21Z"/><path class="cls-4" d="M155,527.8h1.82a5.78,5.78,0,0,1,1.6.17,1.93,1.93,0,0,1,.9.57,2.11,2.11,0,0,1,.5,1,7.48,7.48,0,0,1,.15,1.7v2.29a7.58,7.58,0,0,1-.15,1.71,2.2,2.2,0,0,1-.5,1,1.88,1.88,0,0,1-.9.55,5.51,5.51,0,0,1-1.6.17H155Zm1.91,1.41v6.33H157a1.13,1.13,0,0,0,.79-.21,1,1,0,0,0,.22-.76v-4.39a1,1,0,0,0-.22-.76,1.13,1.13,0,0,0-.79-.21Z"/><path class="cls-4" d="M161.45,527.8h3.75v1.41h-1.87v2.25h1.74v1.41h-1.74v2.67h2V537h-3.91Z"/><path class="cls-4" d="M166.67,527.8h1.89v7.74h2.17V537h-4.06Z"/><path class="cls-4" d="M171.62,527.8h1.89V537h-1.89Z"/><path class="cls-4" d="M174.54,527.8h1.85l.81,6.8h.13l.79-6.8h1.59L178.2,537h-2Z"/><path class="cls-4" d="M180.7,527.8h3.75v1.41h-1.87v2.25h1.74v1.41h-1.74v2.67h2V537H180.7Z"/><path class="cls-4" d="M185.92,527.8h2.29a3,3,0,0,1,1.93.49,2,2,0,0,1,.59,1.63v.39a2.17,2.17,0,0,1-.42,1.46,2.26,2.26,0,0,1-1.4.62,1.94,1.94,0,0,1,1.42.59,2.82,2.82,0,0,1,.4,1.73V537h-1.89v-2.81a1.36,1.36,0,0,0-.18-.87,1.17,1.17,0,0,0-.77-.18h-.2V537h-1.77Zm1.77,1.36v2.58h.17a1,1,0,0,0,.76-.23,1.19,1.19,0,0,0,.21-.81v-.49a1.21,1.21,0,0,0-.21-.82,1,1,0,0,0-.76-.23Z"/><path class="cls-4" d="M191.53,527.8h1.91l.8,3.85h.09l.76-3.85h1.68l-1.71,5.47V537h-1.88v-3.68Z"/><path class="cls-4" d="M200.72,527.8h2a3.17,3.17,0,0,1,2.14.57,2.53,2.53,0,0,1,.62,1.92v.6a2.63,2.63,0,0,1-.59,1.89,2.53,2.53,0,0,1-1.85.6h-.52V537h-1.77Zm1.77,1.36V532h.17a.86.86,0,0,0,.71-.25,1.58,1.58,0,0,0,.2-.92v-.54a1.49,1.49,0,0,0-.2-.9.86.86,0,0,0-.71-.26Z"/><path class="cls-4" d="M207.42,527.8h2.43l1.51,9.15h-1.83l-.24-1.92H207.7l-.32,1.92h-1.66Zm1.14,1.58-.62,4.24h1.17l-.5-4.24Z"/><path class="cls-4" d="M212.37,527.8h2.29a3,3,0,0,1,1.94.49,2,2,0,0,1,.58,1.63v.39a2.17,2.17,0,0,1-.42,1.46,2.26,2.26,0,0,1-1.4.62,1.94,1.94,0,0,1,1.42.59,2.82,2.82,0,0,1,.4,1.73V537h-1.89v-2.81a1.36,1.36,0,0,0-.18-.87,1.15,1.15,0,0,0-.76-.18h-.21V537h-1.77Zm1.77,1.36v2.58h.17a1,1,0,0,0,.76-.23,1.19,1.19,0,0,0,.21-.81v-.49a1.21,1.21,0,0,0-.21-.82,1,1,0,0,0-.76-.23Z"/><path class="cls-4" d="M218.16,527.8h4.77v1.41h-1.42V537h-1.94v-7.74h-1.41Z"/><path class="cls-4" d="M224,527.8h2.47l1.36,7.74H228l-.13-7.74h1.53V537h-2.49l-1.33-7.75h-.13l.13,7.75H224Z"/><path class="cls-4" d="M230.9,527.8h3.75v1.41h-1.86v2.25h1.73v1.41h-1.73v2.67h2V537H230.9Z"/><path class="cls-4" d="M236.12,527.8h2.29a3,3,0,0,1,1.94.49,2,2,0,0,1,.58,1.63v.39a2.17,2.17,0,0,1-.42,1.46,2.26,2.26,0,0,1-1.4.62,1.94,1.94,0,0,1,1.42.59,2.82,2.82,0,0,1,.4,1.73V537h-1.88v-2.81a1.34,1.34,0,0,0-.19-.87,1.15,1.15,0,0,0-.76-.18h-.21V537h-1.77Zm1.77,1.36v2.58h.17a1,1,0,0,0,.76-.23,1.19,1.19,0,0,0,.21-.81v-.49a1.21,1.21,0,0,0-.21-.82,1,1,0,0,0-.76-.23Z"/><path class="cls-4" d="M160,544.4v3a4.3,4.3,0,0,1-.56,2.56,2.47,2.47,0,0,1-2,.7,2.42,2.42,0,0,1-2-.7,4.25,4.25,0,0,1-.56-2.56v-3a4.26,4.26,0,0,1,.56-2.55,3.24,3.24,0,0,1,4,0A4.26,4.26,0,0,1,160,544.4Zm-1.88-.41a2.81,2.81,0,0,0-.15-1.16.66.66,0,0,0-1.06,0,2.85,2.85,0,0,0-.15,1.15v3.78a2.79,2.79,0,0,0,.15,1.15.66.66,0,0,0,1.06,0,2.76,2.76,0,0,0,.15-1.14Z"/><path class="cls-4" d="M161.56,541.3h3.82v1.41h-1.94v2.38h1.83v1.41h-1.83v4h-1.88Z"/><path class="cls-4" d="M169.23,541.3H174v1.41h-1.41v7.74h-2v-7.74h-1.4Z"/><path class="cls-4" d="M175.06,541.3H177v3.62h1.29V541.3h1.89v9.15h-1.89v-4.12H177v4.12h-1.89Z"/><path class="cls-4" d="M181.67,541.3h3.76v1.41h-1.87V545h1.73v1.41h-1.73V549h2v1.41h-3.92Z"/><path class="cls-4" d="M190,541.3h2.47l1.36,7.74h.12l-.14-7.74h1.54v9.15h-2.49l-1.33-7.75h-.13l.13,7.75H190Z"/><path class="cls-4" d="M196.85,541.3h2.29a3,3,0,0,1,1.93.49,2.05,2.05,0,0,1,.59,1.63v.39a2.06,2.06,0,0,1-.35,1.25,1.7,1.7,0,0,1-1,.63,1.76,1.76,0,0,1,1.14.6,1.86,1.86,0,0,1,.4,1.23v.81a2.05,2.05,0,0,1-.59,1.63,3,3,0,0,1-1.94.49h-2.43Zm1.77,1.35v2.4h.16a1.09,1.09,0,0,0,.77-.21,1.08,1.08,0,0,0,.21-.76v-.47a1.05,1.05,0,0,0-.21-.75,1.09,1.09,0,0,0-.77-.21Zm0,3.71v2.77h.2a1.22,1.22,0,0,0,.87-.24,1.25,1.25,0,0,0,.24-.88v-.53a.92.92,0,0,0-1.11-1.12Z"/><path class="cls-4" d="M203.12,541.3H205V549h2.17v1.41h-4Z"/></g></svg>