<?xml version="1.0" encoding="UTF-8"?><svg id="a" xmlns="http://www.w3.org/2000/svg" viewBox="0 0 300 600"><defs><style>.b{fill:#fff;}</style></defs><path class="b" d="M102.84,46.17c5.51,0,9.68,4.17,9.68,9.42s-4.17,9.42-9.68,9.42h-6.51c-.27,0-.49-.22-.49-.49v-17.86c0-.27,.22-.49,.49-.49h6.51Zm-2.96,3.63v11.57h2.96c3.09,0,5.65-2.56,5.65-5.78s-2.42-5.78-5.65-5.78h-2.96Z"/><path class="b" d="M126.75,45.77c5.78,0,10.22,4.44,10.22,9.82s-4.44,9.82-10.22,9.82-10.22-4.44-10.22-9.82,4.44-9.82,10.22-9.82m0,16.01c3.36,0,6.22-2.69,6.22-6.19s-2.86-6.19-6.22-6.19-6.18,2.69-6.18,6.19,2.82,6.19,6.18,6.19"/><path class="b" d="M151.06,45.77c5.78,0,10.22,4.44,10.22,9.82s-4.44,9.82-10.22,9.82-10.22-4.44-10.22-9.82,4.44-9.82,10.22-9.82m0,16.01c3.36,0,6.22-2.69,6.22-6.19s-2.86-6.19-6.22-6.19-6.18,2.69-6.18,6.19,2.82,6.19,6.18,6.19"/><path class="b" d="M166.62,46.66c0-.27,.22-.49,.49-.49h7.85c3.77,0,6.46,2.74,6.46,6.19,0,4.04-3.36,5.51-3.36,5.51l3.62,6.4c.18,.33-.05,.73-.42,.73h-3.18c-.18,0-.34-.1-.43-.25l-3.49-6.34h-3.5v6.1c0,.27-.22,.49-.49,.49h-3.06c-.27,0-.49-.22-.49-.49v-17.86Zm8.21,3.14h-4.17v4.98h4.17c1.48,0,2.56-1.08,2.56-2.42,0-1.48-1.08-2.56-2.56-2.56"/><path class="b" d="M194.88,46.26c5.51,0,9.68,4.17,9.68,9.42s-4.17,9.42-9.68,9.42h-6.51c-.27,0-.49-.22-.49-.49v-17.86c0-.27,.22-.49,.49-.49h6.51Zm-2.96,3.63v11.57h2.96c3.09,0,5.65-2.56,5.65-5.78s-2.42-5.78-5.65-5.78h-2.96Z"/><path class="b" d="M213.23,60.54l-1.5,4.12c-.07,.19-.25,.32-.46,.32h-3.25c-.34,0-.58-.35-.45-.67l7.01-17.86c.07-.19,.25-.31,.45-.31h3.64c.2,0,.38,.12,.45,.31l7.01,17.86c.13,.32-.11,.67-.45,.67h-3.25c-.21,0-.39-.13-.46-.32l-1.5-4.12h-7.26Zm3.63-9.68l-2.29,6.19h4.57l-2.29-6.19Z"/><path class="b" d="M229.93,51.26c0-2.96,2.56-5.51,6.59-5.51,3.2,0,5.13,1.5,5.86,2.2,.19,.18,.2,.49,.01,.69l-1.82,1.81c-.18,.18-.47,.19-.66,.02-.51-.45-1.6-1.23-3.12-1.23-1.61,0-2.81,.94-2.81,2.02,0,3.5,9.54,1.48,9.54,8.2,0,3.36-2.56,5.92-7.13,5.92-3.71,0-6-1.92-6.8-2.73-.19-.19-.18-.5,0-.69l1.74-1.74c.19-.19,.49-.19,.68-.01,.6,.58,2.03,1.68,4.11,1.68s3.35-1.08,3.35-2.42c0-3.5-9.53-1.48-9.53-8.2"/><path class="b" d="M260.82,46.64v7.04h-8.07v-7.04c0-.27-.22-.49-.49-.49h-3.06c-.27,0-.49,.22-.49,.49v17.86c0,.27,.22,.49,.49,.49h3.06c.27,0,.49-.22,.49-.49v-7.18h8.07v7.18c0,.27,.22,.49,.49,.49h3.06c.27,0,.49-.22,.49-.49v-17.86c0-.27-.22-.49-.49-.49h-3.06c-.27,0-.49,.22-.49,.49"/><path class="b" d="M79.91,48.62c-2.04-3.88-6.1-6.26-10.47-6.26H36.28c-1.01,0-1.52,1.23-.8,1.95l7.22,7.26c.64,.64,1.51,1,2.41,1h23.38c1.41,0,2.68,.95,2.99,2.33,.43,1.96-1.05,3.7-2.92,3.7h-16.12c-1.01,0-1.52,1.23-.8,1.95l7.22,7.26c.64,.64,1.51,1,2.41,1h7.29c9.48,0,16.65-10.14,11.36-20.2"/></svg>