<svg id="Layer_1" data-name="Layer 1" xmlns="http://www.w3.org/2000/svg" xmlns:xlink="http://www.w3.org/1999/xlink" viewBox="0 0 300 250"><defs><style>.cls-1,.cls-8{fill:none;}.cls-2{clip-path:url(#clip-path);}.cls-3{fill:#221e1f;}.cls-4{clip-path:url(#clip-path-2);}.cls-5{clip-path:url(#clip-path-4);}.cls-6{clip-path:url(#clip-path-5);}.cls-7{clip-path:url(#clip-path-6);}.cls-8{stroke:#221e1f;stroke-width:2.77px;}.cls-9{clip-path:url(#clip-path-7);}.cls-10{clip-path:url(#clip-path-8);}.cls-11{clip-path:url(#clip-path-10);}.cls-12{clip-path:url(#clip-path-11);}</style><clipPath id="clip-path"><rect class="cls-1" width="300" height="250"/></clipPath><clipPath id="clip-path-2"><rect class="cls-1" x="320" width="300" height="250"/></clipPath><clipPath id="clip-path-4"><rect class="cls-1" x="498.32" y="90.72" width="87.28" height="86.76"/></clipPath><clipPath id="clip-path-5"><rect class="cls-1" x="-32448" y="-32517" width="65535" height="65535"/></clipPath><clipPath id="clip-path-6"><rect class="cls-1" x="345.89" y="29.51" width="104.02" height="127.27" rx="26.2"/></clipPath><clipPath id="clip-path-7"><polygon class="cls-1" points="439.62 131.66 472.55 154.32 475.62 151.49 473.2 149.65 447.45 130.04 439.62 131.66"/></clipPath><clipPath id="clip-path-8"><rect class="cls-1" x="640" width="300" height="250"/></clipPath><clipPath id="clip-path-10"><rect class="cls-1" x="818.32" y="90.72" width="87.28" height="86.76"/></clipPath><clipPath id="clip-path-11"><rect class="cls-1" x="-32128" y="-32517" width="65535" height="65535"/></clipPath></defs><g class="cls-2"><path class="cls-3" d="M29.49,142.14h-4V121.71h5.25v8.46a4.83,4.83,0,0,1,4.77-2.88c4.25,0,6.42,3.37,6.42,7.62s-2.17,7.62-6.52,7.62a5.23,5.23,0,0,1-5-2.88Zm1.2-7.13c0,2.11,1.14,3.47,2.92,3.47,2,0,3-1.46,3-3.57s-.94-3.54-3-3.54c-1.78,0-2.92,1.37-2.92,3.44Z"/><path class="cls-3" d="M58.37,137.38c-.75,3.3-3.41,5.15-7.24,5.15-4.64,0-8-2.79-8-7.39a7.63,7.63,0,0,1,7.89-7.85c4.83,0,7.39,3.31,7.39,7.23V136H48.31a2.75,2.75,0,0,0,3,2.63A2.71,2.71,0,0,0,54.15,137Zm-4.9-3.93a2.37,2.37,0,0,0-2.47-2.4,2.48,2.48,0,0,0-2.63,2.4Z"/><path class="cls-3" d="M61.12,131.31H59.18v-3.24l1.07-.17c1.46-.22,1.91-1,2.27-2.33l.48-1.88h3.31v4h3.77v3.63H66.31v5.29c0,1.23.59,1.72,1.66,1.72a5.79,5.79,0,0,0,2.24-.49v3.41a6.83,6.83,0,0,1-4.35,1.29c-2.43,0-4.74-1-4.74-4.41Z"/><path class="cls-3" d="M87.08,135.88h.13l2.59-8.2h4.74L90,142.14H84.8L82.7,134h-.13l-2.11,8.17H75.3l-4.57-14.46H76l2.59,8.2h.13l2.11-8.2H85Z"/><path class="cls-3" d="M110.3,137.38c-.74,3.3-3.4,5.15-7.23,5.15-4.64,0-7.95-2.79-7.95-7.39a7.63,7.63,0,0,1,7.88-7.85c4.84,0,7.4,3.31,7.4,7.23V136H100.25a2.75,2.75,0,0,0,3,2.63,2.71,2.71,0,0,0,2.83-1.62Zm-4.89-3.93a2.37,2.37,0,0,0-2.47-2.4,2.48,2.48,0,0,0-2.63,2.4Z"/><path class="cls-3" d="M127,137.38c-.75,3.3-3.41,5.15-7.24,5.15-4.64,0-7.95-2.79-7.95-7.39a7.63,7.63,0,0,1,7.89-7.85c4.83,0,7.39,3.31,7.39,7.23V136H116.89a2.75,2.75,0,0,0,3,2.63,2.71,2.71,0,0,0,2.82-1.62Zm-4.9-3.93a2.37,2.37,0,0,0-2.47-2.4,2.47,2.47,0,0,0-2.62,2.4Z"/><path class="cls-3" d="M134.44,142.14h-5.25V127.68h5.25v2.17a5,5,0,0,1,4.67-2.56c4,0,5.23,2.75,5.23,5.77v9.08h-5.26v-7.68c0-2-.55-3-2.14-3-1.79,0-2.5,1.43-2.5,3.6Z"/><path class="cls-3" d="M160,133.94a14,14,0,0,0-1.5.06v-3.92a12,12,0,0,0,1.56.06,2.15,2.15,0,0,0,2.34-2.14,2.07,2.07,0,0,0-2.31-2.24c-1.78,0-2.69,1.46-2.69,3.38l-5.29-.23c0-4.22,3-7.59,8.15-7.59,4.83,0,7.59,2.46,7.59,6.1a4.3,4.3,0,0,1-3.67,4.38,4.61,4.61,0,0,1,4.19,4.76c0,3.83-3.25,6-8,6-5.35,0-8.5-2.88-8.5-7.42l5.42.16c.07,1.94,1.27,2.82,3.08,2.82,1.27,0,2.37-.65,2.37-2C162.76,134.65,161.59,133.94,160,133.94Z"/><path class="cls-3" d="M174.8,131.31v-3.63h2.07v-.62c0-3.76,2.34-5.74,5.81-5.74,2.73,0,4.61,1.36,5.19,3.76l-3.21,1a1.47,1.47,0,0,0-1.39-1c-.88,0-1.21.71-1.21,1.62v1h3.67v3.63h-3.67v10.83h-5.19V131.31Z"/><path class="cls-3" d="M197.8,132.8a4.68,4.68,0,0,0-2.5-.61c-2,0-3.15.9-3.15,3.34v6.61H186.9V127.68h5.25v2.56a4.21,4.21,0,0,1,4-3,3.45,3.45,0,0,1,2,.55Z"/><path class="cls-3" d="M199.71,121.71H205v4.6h-5.32Zm5.29,6v14.46h-5.25V127.68Z"/><path class="cls-3" d="M222.26,137.38c-.75,3.3-3.41,5.15-7.23,5.15-4.64,0-7.95-2.79-7.95-7.39a7.62,7.62,0,0,1,7.88-7.85c4.83,0,7.4,3.31,7.4,7.23V136H212.2a2.75,2.75,0,0,0,3,2.63A2.69,2.69,0,0,0,218,137Zm-4.9-3.93a2.37,2.37,0,0,0-2.46-2.4,2.47,2.47,0,0,0-2.63,2.4Z"/><path class="cls-3" d="M229.75,142.14H224.5V127.68h5.25v2.17a5,5,0,0,1,4.68-2.56c3.95,0,5.22,2.75,5.22,5.77v9.08h-5.26v-7.68c0-2-.55-3-2.14-3-1.78,0-2.5,1.43-2.5,3.6Z"/><path class="cls-3" d="M252.72,139.68a4.77,4.77,0,0,1-4.73,2.85c-4.29,0-6.43-3.34-6.43-7.62s2.14-7.62,6.43-7.62a4.76,4.76,0,0,1,4.73,2.88v-8.46H258v20.43h-5.26Zm0-4.87c0-2.07-1.13-3.44-2.88-3.44-2.08,0-3,1.46-3,3.54s.91,3.57,3,3.57c1.75,0,2.88-1.36,2.88-3.47Z"/><path class="cls-3" d="M264.37,137.38c.19,1.2,1.17,1.88,2.76,1.88,1.16,0,1.78-.42,1.78-1s-.32-.94-1.33-1.1l-2.14-.33c-3.5-.55-5.35-1.68-5.35-4.63s2.5-4.9,6.55-4.9,6.65,1.85,6.94,4.86l-4.31.13c-.2-1-1.1-1.68-2.73-1.68-1,0-1.59.39-1.59,1s.39.75.88.82l2.82.48c3.25.52,5.13,2,5.13,4.8,0,3.05-2.6,4.8-6.72,4.8s-7-1.59-7.26-5.09Z"/><path class="cls-3" d="M275.34,136.56h5.58v5.58h-5.58Z"/></g><g class="cls-4"><g class="cls-7"><line class="cls-8" x1="591.79" y1="-150.01" x2="203.24" y2="206.04"/><line class="cls-8" x1="551.28" y1="-194.22" x2="162.72" y2="161.83"/><line class="cls-8" x1="632.31" y1="-105.79" x2="243.75" y2="250.26"/><line class="cls-8" x1="612.05" y1="-127.9" x2="223.49" y2="228.15"/><line class="cls-8" x1="571.54" y1="-172.11" x2="182.98" y2="183.93"/><line class="cls-8" x1="677.89" y1="-56.04" x2="289.34" y2="300"/><line class="cls-8" x1="652.57" y1="-83.68" x2="264.01" y2="272.37"/><line class="cls-8" x1="601.92" y1="-138.95" x2="213.36" y2="217.1"/><line class="cls-8" x1="561.41" y1="-183.17" x2="172.85" y2="172.88"/><line class="cls-8" x1="642.44" y1="-94.73" x2="253.88" y2="261.31"/><line class="cls-8" x1="622.18" y1="-116.84" x2="233.62" y2="239.21"/><line class="cls-8" x1="581.66" y1="-161.06" x2="193.11" y2="194.99"/><line class="cls-8" x1="688.02" y1="-44.99" x2="299.46" y2="311.06"/><line class="cls-8" x1="662.7" y1="-72.63" x2="274.14" y2="283.42"/><line class="cls-8" x1="596.86" y1="-144.48" x2="208.3" y2="211.57"/><line class="cls-8" x1="556.34" y1="-188.7" x2="167.78" y2="167.35"/><line class="cls-8" x1="637.38" y1="-100.26" x2="248.82" y2="255.79"/><line class="cls-8" x1="617.12" y1="-122.37" x2="228.56" y2="233.68"/><line class="cls-8" x1="576.6" y1="-166.59" x2="188.04" y2="189.46"/><line class="cls-8" x1="682.96" y1="-50.52" x2="294.4" y2="305.53"/><line class="cls-8" x1="657.64" y1="-78.15" x2="269.08" y2="277.9"/><line class="cls-8" x1="606.99" y1="-133.42" x2="218.43" y2="222.62"/><line class="cls-8" x1="566.47" y1="-177.64" x2="177.91" y2="178.41"/><line class="cls-8" x1="672.83" y1="-61.57" x2="284.27" y2="294.48"/><line class="cls-8" x1="647.51" y1="-89.21" x2="258.95" y2="266.84"/><line class="cls-8" x1="546.21" y1="-199.75" x2="157.65" y2="156.3"/><line class="cls-8" x1="627.25" y1="-111.32" x2="238.69" y2="244.73"/><line class="cls-8" x1="586.73" y1="-155.53" x2="198.17" y2="200.52"/><line class="cls-8" x1="667.76" y1="-67.1" x2="279.21" y2="288.95"/></g><g class="cls-9"><line class="cls-8" x1="591.79" y1="-150.01" x2="203.24" y2="206.04"/><line class="cls-8" x1="551.28" y1="-194.22" x2="162.72" y2="161.83"/><line class="cls-8" x1="632.31" y1="-105.79" x2="243.75" y2="250.26"/><line class="cls-8" x1="612.05" y1="-127.9" x2="223.49" y2="228.15"/><line class="cls-8" x1="571.54" y1="-172.11" x2="182.98" y2="183.93"/><line class="cls-8" x1="677.89" y1="-56.04" x2="289.34" y2="300"/><line class="cls-8" x1="652.57" y1="-83.68" x2="264.01" y2="272.37"/><line class="cls-8" x1="601.92" y1="-138.95" x2="213.36" y2="217.1"/><line class="cls-8" x1="561.41" y1="-183.17" x2="172.85" y2="172.88"/><line class="cls-8" x1="642.44" y1="-94.74" x2="253.88" y2="261.31"/><line class="cls-8" x1="622.18" y1="-116.84" x2="233.62" y2="239.21"/><line class="cls-8" x1="581.66" y1="-161.06" x2="193.11" y2="194.99"/><line class="cls-8" x1="688.02" y1="-44.99" x2="299.46" y2="311.06"/><line class="cls-8" x1="662.7" y1="-72.63" x2="274.14" y2="283.42"/><line class="cls-8" x1="596.86" y1="-144.48" x2="208.3" y2="211.57"/><line class="cls-8" x1="556.34" y1="-188.7" x2="167.78" y2="167.35"/><line class="cls-8" x1="637.38" y1="-100.26" x2="248.82" y2="255.79"/><line class="cls-8" x1="617.12" y1="-122.37" x2="228.56" y2="233.68"/><line class="cls-8" x1="576.6" y1="-166.59" x2="188.04" y2="189.46"/><line class="cls-8" x1="682.96" y1="-50.52" x2="294.4" y2="305.53"/><line class="cls-8" x1="657.64" y1="-78.15" x2="269.08" y2="277.9"/><line class="cls-8" x1="606.99" y1="-133.42" x2="218.43" y2="222.62"/><line class="cls-8" x1="566.47" y1="-177.64" x2="177.91" y2="178.41"/><line class="cls-8" x1="672.83" y1="-61.57" x2="284.27" y2="294.48"/><line class="cls-8" x1="647.51" y1="-89.21" x2="258.95" y2="266.84"/><line class="cls-8" x1="546.21" y1="-199.75" x2="157.65" y2="156.3"/><line class="cls-8" x1="627.25" y1="-111.32" x2="238.69" y2="244.73"/><line class="cls-8" x1="586.73" y1="-155.53" x2="198.17" y2="200.52"/><line class="cls-8" x1="667.76" y1="-67.1" x2="279.21" y2="288.95"/></g></g></svg>