<svg id="Layer_1" data-name="Layer 1" xmlns="http://www.w3.org/2000/svg" viewBox="0 0 300 250"><defs><style>.cls-1{fill:#eab8b9;}</style></defs><path class="cls-1" d="M22.22,231a2.5,2.5,0,0,1-.18-.94.74.74,0,0,0-.83-.79H20V231h-.57V226.7h1.74c1.09,0,1.61.5,1.61,1.26a1,1,0,0,1-1,1.07.93.93,0,0,1,.81.93c.06.62.08.87.22,1Zm-1.1-2.2c.73,0,1.06-.27,1.06-.8s-.33-.81-1.06-.81H20v1.61Z"/><path class="cls-1" d="M26.19,230a1.33,1.33,0,0,1-1.39,1.08,1.46,1.46,0,0,1-1.53-1.53,1.52,1.52,0,0,1,1.51-1.61,1.37,1.37,0,0,1,1.43,1.48v.23H23.84a1,1,0,0,0,1,1,.85.85,0,0,0,.91-.7Zm-.56-.72a.85.85,0,0,0-.85-.91,1,1,0,0,0-.93.91Z"/><path class="cls-1" d="M29,230.37a1.12,1.12,0,0,1-1.07.7,1.59,1.59,0,0,1,0-3.14,1.11,1.11,0,0,1,1.07.71V226.7h.56V231H29Zm0-1a.93.93,0,0,0-.95-1c-.59,0-.91.43-.91,1.11s.32,1.12.91,1.12a.94.94,0,0,0,.95-1Z"/><path class="cls-1" d="M33.44,231H31.61V226.7h1.75c1.06,0,1.5.46,1.5,1.14a.93.93,0,0,1-.81.92,1,1,0,0,1,.93,1.05C35,230.55,34.44,231,33.44,231Zm-1.26-2.44h1.2c.62,0,.89-.27.89-.68s-.27-.69-.89-.69h-1.2Zm0,.46v1.49h1.24c.64,0,1-.28,1-.74s-.34-.75-1-.75Z"/><path class="cls-1" d="M35.59,226.7h.59v.64h-.59Zm.58,1.31v3H35.6v-3Z"/><path class="cls-1" d="M38.71,228.58a.81.81,0,0,0-.46-.12c-.43,0-.75.38-.75.95V231h-.56v-3h.56v.61a.94.94,0,0,1,.85-.69.61.61,0,0,1,.42.14Z"/><path class="cls-1" d="M41.36,230.37a1.11,1.11,0,0,1-1.07.7,1.59,1.59,0,0,1,0-3.14,1.1,1.1,0,0,1,1.07.71V226.7h.57V231h-.57Zm0-1a.93.93,0,0,0-.95-1c-.58,0-.91.43-.91,1.11s.33,1.12.91,1.12a.94.94,0,0,0,.95-1Z"/><path class="cls-1" d="M45.33,231l-1.72-4.29h.61l1.45,3.61h0l1.41-3.61h.6L46,231Z"/><path class="cls-1" d="M50.56,230a1.33,1.33,0,0,1-1.39,1.08,1.46,1.46,0,0,1-1.53-1.53,1.51,1.51,0,0,1,1.5-1.61,1.37,1.37,0,0,1,1.43,1.48v.23H48.2a1,1,0,0,0,1,1,.86.86,0,0,0,.91-.7Zm-.57-.72a.85.85,0,0,0-.85-.91,1,1,0,0,0-.92.91Z"/><path class="cls-1" d="M51.72,231h-.56v-3h.56v.53a1.06,1.06,0,0,1,1-.61c.77,0,1.09.52,1.09,1.21V231h-.57v-1.8c0-.5-.24-.81-.71-.81a.82.82,0,0,0-.8.9Z"/><path class="cls-1" d="M54.63,228.42h-.45v-.31l.19,0c.28-.05.34-.19.41-.48l.09-.41h.32V228H56v.41h-.84v1.8c0,.27.11.39.37.39a1.26,1.26,0,0,0,.56-.17v.38a1.21,1.21,0,0,1-.77.25c-.42,0-.72-.2-.72-.78Z"/><path class="cls-1" d="M58.61,228h.57v3h-.57v-.53a1,1,0,0,1-1,.61c-.78,0-1.06-.51-1.06-1.21V228h.56v1.8c0,.5.22.82.69.82a.82.82,0,0,0,.78-.91Z"/><path class="cls-1" d="M61.73,228.58a.86.86,0,0,0-.46-.12c-.43,0-.75.38-.75.95V231H60v-3h.57v.61a.93.93,0,0,1,.84-.69.61.61,0,0,1,.42.14Z"/><path class="cls-1" d="M64.87,230a1.33,1.33,0,0,1-1.39,1.08A1.46,1.46,0,0,1,62,229.54a1.52,1.52,0,0,1,1.51-1.61,1.36,1.36,0,0,1,1.42,1.48v.23H62.52a1,1,0,0,0,1,1,.85.85,0,0,0,.91-.7Zm-.56-.72a.85.85,0,0,0-.85-.91,1,1,0,0,0-.93.91Z"/><path class="cls-1" d="M65.73,230a.77.77,0,0,0,.88.7c.4,0,.69-.14.69-.44s-.2-.37-.57-.44l-.5-.09c-.56-.09-.89-.33-.89-.84s.46-.91,1.14-.91,1.26.37,1.31,1.06l-.46,0c-.06-.45-.34-.66-.85-.66s-.62.17-.62.44.15.36.46.41l.56.09c.6.1,1,.33,1,.87s-.52.91-1.22.91A1.2,1.2,0,0,1,65.25,230Z"/><path class="cls-1" d="M70.26,226.7v3.8h2.39V231h-3V226.7Z"/><path class="cls-1" d="M73.19,226.7h.58v.64h-.58Zm.58,1.31v3H73.2v-3Z"/><path class="cls-1" d="M78,227.93c.78,0,1,.54,1,1.21V231H78.5v-1.8c0-.5-.2-.81-.66-.81a.81.81,0,0,0-.76.9V231h-.56v-1.8c0-.5-.21-.81-.66-.81a.81.81,0,0,0-.76.9V231h-.56v-3h.56v.53a1,1,0,0,1,1-.61.93.93,0,0,1,1,.65A1.07,1.07,0,0,1,78,227.93Z"/><path class="cls-1" d="M79.8,226.7h.58v.64H79.8Zm.57,1.31v3h-.56v-3Z"/><path class="cls-1" d="M81.24,228.42h-.45v-.31l.2,0c.27-.05.34-.19.4-.48l.09-.41h.32V228h.84v.41H81.8v1.8c0,.27.11.39.37.39a1.26,1.26,0,0,0,.56-.17v.38a1.2,1.2,0,0,1-.76.25c-.43,0-.73-.2-.73-.78Z"/><path class="cls-1" d="M86,230a1.32,1.32,0,0,1-1.39,1.08A1.46,1.46,0,0,1,83,229.54a1.52,1.52,0,0,1,1.51-1.61A1.37,1.37,0,0,1,86,229.41v.23H83.6a1,1,0,0,0,1,1,.85.85,0,0,0,.91-.7Zm-.56-.72a.85.85,0,0,0-.85-.91,1,1,0,0,0-.93.91Z"/><path class="cls-1" d="M88.79,230.37a1.12,1.12,0,0,1-1.07.7,1.59,1.59,0,0,1,0-3.14,1.11,1.11,0,0,1,1.07.71V226.7h.56V231h-.56Zm0-1a.93.93,0,0,0-1-1c-.59,0-.91.43-.91,1.11s.32,1.12.91,1.12a.94.94,0,0,0,1-1Z"/><path class="cls-1" d="M90,230.31h.68V231H90Z"/></svg>