<svg id="Layer_1" data-name="Layer 1" xmlns="http://www.w3.org/2000/svg" xmlns:xlink="http://www.w3.org/1999/xlink" viewBox="0 0 300 250"><defs><style>.cls-1{fill:none;}.cls-2{clip-path:url(#clip-path);}.cls-3{clip-path:url(#clip-path-3);}.cls-4{clip-path:url(#clip-path-4);}.cls-5{clip-path:url(#clip-path-5);}.cls-6{fill:#fff;}.cls-7{fill:#221e1f;}</style><clipPath id="clip-path"><rect class="cls-1" x="-320" width="300" height="250"/></clipPath><clipPath id="clip-path-3"><rect class="cls-1" x="-141.68" y="90.72" width="87.28" height="86.76"/></clipPath><clipPath id="clip-path-4"><rect class="cls-1" x="-33088" y="-32517" width="65535" height="65535"/></clipPath><clipPath id="clip-path-5"><rect class="cls-1" width="300" height="250"/></clipPath></defs><g class="cls-5"><g class="cls-5"><rect class="cls-6" x="19" y="28" width="84.61" height="36.87"/><path class="cls-7" d="M80.83,51.87V41.44H83c3.18,0,5,2,5,5.19s-1.85,5.24-5,5.24Zm-4.07,3.21h6.53a9.15,9.15,0,0,0,6.52-2.25,8,8,0,0,0,2.44-6.18,7.94,7.94,0,0,0-2.44-6.17,9.15,9.15,0,0,0-6.52-2.25H76.76ZM63.15,38.23H59.24V55.08H63V44.33L70.8,55.08H74V38.23H70.32V48.34ZM57.08,51.74h-9V48.18h6.82V44.89H48.06V41.57h8.78V38.23H44.08V55.08h13ZM27.31,49.09a5.51,5.51,0,0,0,2.17,4.68A9,9,0,0,0,35,55.4a8.62,8.62,0,0,0,4.87-1.34,4.39,4.39,0,0,0,2-3.93c0-2.75-1.61-4.46-5-5.08l-3.16-.56c-1.2-.24-2-.59-2-1.55,0-1.15,1-1.85,2.68-1.85,1.92,0,3.31,1,3.42,2.94l3.75-.1c-.08-3.72-2.57-6-7.14-6-4.07,0-6.69,2.06-6.69,5.38,0,2.86,1.9,4.35,4.57,4.86l3.16.56c1.47.3,2.46.59,2.46,1.69S36.81,52.22,35,52.22c-2.06,0-3.85-.94-4-3.27Z"/></g></g></svg>