<?xml version="1.0" encoding="utf-8"?>
<!-- Generator: Adobe Illustrator 25.2.1, SVG Export Plug-In . SVG Version: 6.00 Build 0)  -->
<svg version="1.1" id="Layer_1" xmlns="http://www.w3.org/2000/svg" xmlns:xlink="http://www.w3.org/1999/xlink" x="0px" y="0px"
	 viewBox="0 0 300 600" style="enable-background:new 0 0 300 600;" xml:space="preserve">
<style type="text/css">
	.st0{fill:#009970;}
</style>
<g>
	<g>
		<path class="st0" d="M67.6,73.1l8.5-34.7h10.6L73.2,90h-9.8l-9.1-34l-9.1,34h-9.8L22,38.4h10.8l8.4,34.7l9.1-34.7h8.4L67.6,73.1z"
			/>
		<path class="st0" d="M136.1,90h-10.9l-4.6-12.4h-19.3L96.7,90H85.9l19.7-51.6h10.7L136.1,90z M117.2,68.5l-6.3-17.1l-6.3,17.1
			H117.2z"/>
		<path class="st0" d="M171.9,38.4h12.9l-21.4,24.7L185.6,90h-13.2l-19.3-23.4V90h-10.8V38.4H153v22.2L171.9,38.4z"/>
		<path class="st0" d="M226.5,47.8H202V59h22.2v9.2H202v12.3h24.4V90h-35V38.4h35L226.5,47.8z"/>
		<path class="st0" d="M25.2,136.2v-30.8H36v29.7c0,8.8,3.9,13,10.7,13s10.7-4.2,10.7-13v-29.7H68v30.8c0,14.2-8.4,21.6-21.4,21.6
			C33.8,157.8,25.2,150.4,25.2,136.2z"/>
		<path class="st0" d="M87.9,157H77.2v-51.6h21c10.9,0,18.2,5.9,18.2,16.9s-7.2,16.8-18.2,16.8H87.9V157z M97.5,114.6h-9.7v15.4h9.7
			c5.6,0,8.2-3.2,8.2-7.7C105.8,117.6,103.2,114.5,97.5,114.6L97.5,114.6z"/>
		<path class="st0" d="M69.9,172.4l-18.7,32V224H40.5v-19.6l-18.6-32h11.7l12.5,21.8l12.4-21.8H69.9z"/>
		<path class="st0" d="M94,224.8c-14.4,0-24.4-11.2-24.4-26.6s10-26.6,24.4-26.6s24.4,11.2,24.4,26.6S108.4,224.8,94,224.8z
			 M94,181.1c-8.1,0-13.4,7-13.4,17s5.4,17.1,13.4,17.1c8.3,0,13.6-7,13.6-17.1S102.3,181.1,94,181.1z"/>
		<path class="st0" d="M125.2,203.2v-30.8h10.8v29.7c0,8.8,3.9,13,10.7,13s10.7-4.2,10.7-13v-29.7H168v30.8
			c0,14.2-8.4,21.6-21.4,21.6C133.8,224.8,125.2,217.4,125.2,203.2z"/>
		<path class="st0" d="M187.8,224h-10.7v-51.6h21.3c10.8,0,18.1,5.7,18.1,16.4c0,8.3-4.4,13.4-11.8,15.2l13.6,20h-12.1l-12.8-19.2
			h-5.6L187.8,224z M197.7,195.9c5.4,0,8.1-2.9,8.1-7.1s-2.8-7.2-8.1-7.2h-9.9v14.3L197.7,195.9z"/>
		<path class="st0" d="M36.5,257.7V291H26v-51.6h10l15.6,24.4l15.5-24.4H77V291H66.4v-33.3l-14.7,22.2h-0.3L36.5,257.7z"/>
		<path class="st0" d="M108.6,291.8c-14.4,0-24.4-11.2-24.4-26.6s10-26.6,24.4-26.6s24.4,11.2,24.4,26.6S123,291.8,108.6,291.8z
			 M108.6,248.1c-8.1,0-13.4,7-13.4,17.1c0,10.1,5.4,17,13.4,17c8.3,0,13.6-7,13.6-17S116.9,248.1,108.6,248.1L108.6,248.1z"/>
		<path class="st0" d="M175.2,291l-24.4-34.4V291h-10.3v-51.6h10.1l22.8,32.6v-32.6h10.3V291H175.2z"/>
		<path class="st0" d="M228.6,248.8h-24.4V260h22.2v9.2h-22.2v12.3h24.4v9.6h-35v-51.6h35V248.8z"/>
		<path class="st0" d="M280.9,239.4l-18.7,32V291h-10.7v-19.6l-18.6-32h11.7l12.5,21.8l12.4-21.8H280.9z"/>
	</g>
</g>
</svg>
