<svg id="Layer_1" data-name="Layer 1" xmlns="http://www.w3.org/2000/svg" xmlns:xlink="http://www.w3.org/1999/xlink" viewBox="0 0 300 600"><defs><style>.cls-1{fill:none;}.cls-2{clip-path:url(#clip-path);}.cls-3{fill:#009970;}</style><clipPath id="clip-path"><rect class="cls-1" width="300" height="600"/></clipPath></defs><g class="cls-2"><path class="cls-3" d="M34.45,85l6.62,24.29L47.61,85h2.3l-7.69,28.25H40.11L33.44,89.18l-6.63,24.06H24.74L17,85h2.35l6.53,24.29L32.52,85Z"/><path class="cls-3" d="M69.82,104H57.31l-3.64,9.29H51.33L62.51,85h2.16l11.18,28.25H73.5Zm-11.68-2.12H69L63.57,88Z"/><path class="cls-3" d="M101.61,113.24H100L82.79,88.72v24.52H80.54V85h2.25l16.56,23.56V85h2.26Z"/><path class="cls-3" d="M106.67,85h23v2.16H119.32v26.09H117V87.15h-10.3Z"/><path class="cls-3" d="M142.73,85h23v2.16H155.38v26.09H153V87.15h-10.3Z"/><path class="cls-3" d="M189.1,109.6a11.86,11.86,0,0,1-17.85,0,15.44,15.44,0,0,1-3.54-10.48,15.45,15.45,0,0,1,3.54-10.49,11.86,11.86,0,0,1,17.85,0,15.28,15.28,0,0,1,3.59,10.49A15.27,15.27,0,0,1,189.1,109.6Zm-1.61-19.36a9,9,0,0,0-7.32-3.45,8.91,8.91,0,0,0-7.26,3.45,13.48,13.48,0,0,0-2.81,8.88,13.47,13.47,0,0,0,2.81,8.87,8.91,8.91,0,0,0,7.26,3.45,9,9,0,0,0,7.32-3.45,13.47,13.47,0,0,0,2.8-8.87A13.48,13.48,0,0,0,187.49,90.24Z"/><path class="cls-3" d="M17.79,147.13a12.29,12.29,0,0,0,8.75,3.36c4,0,6.62-2,6.62-5.29,0-2.81-1.61-4-5.06-5.47L24,138a17.23,17.23,0,0,1-4.19-2.49,5.74,5.74,0,0,1-1.93-4.74,6.15,6.15,0,0,1,2.58-5.38,10.22,10.22,0,0,1,6-1.79A13.64,13.64,0,0,1,34.31,126v2.62a11.81,11.81,0,0,0-7.87-2.85c-3.49,0-6.3,1.66-6.3,5,0,2.76,1.93,4,4.92,5.15l4.37,1.84c4.1,1.8,6,3.82,6,7.45a6.61,6.61,0,0,1-2.53,5.43,9.79,9.79,0,0,1-6.39,2.07,13.59,13.59,0,0,1-8.75-2.8Z"/><path class="cls-3" d="M63.66,124v28.25H61.31V138.76H43.42v13.48H41.07V124h2.35V136.6H61.31V124Z"/><path class="cls-3" d="M73.27,152.24H70.92V124h2.35Z"/><path class="cls-3" d="M80.54,152.24V124H96.92v2.16h-14v10.77h13.3V139H82.88v13.2Z"/><path class="cls-3" d="M100.09,124h23v2.16H112.74v26.09h-2.35V126.15h-10.3Z"/><path class="cls-3" d="M155.93,124h2.53l-10.3,16.2v12.05h-2.35V140.19L135.55,124h2.58l8.92,14Z"/><path class="cls-3" d="M181.46,148.6a11.26,11.26,0,0,1-8.92,4.05,11.4,11.4,0,0,1-8.93-4.05,17.3,17.3,0,0,1,0-21,11.4,11.4,0,0,1,8.93-4,11.26,11.26,0,0,1,8.92,4,17.11,17.11,0,0,1,0,21Zm-1.61-19.36a9.43,9.43,0,0,0-14.58,0,15.42,15.42,0,0,0,0,17.75,9.43,9.43,0,0,0,14.58,0,15.42,15.42,0,0,0,0-17.75Z"/><path class="cls-3" d="M193,149.8c-2.07-1.93-3.13-4.83-3.13-8.69V124h2.34v16.79c0,6.58,3.64,9.71,8.47,9.71a8.21,8.21,0,0,0,6.07-2.39c1.61-1.61,2.44-4,2.44-7.32V124h2.35v17.12q0,5.79-3.18,8.69a11.77,11.77,0,0,1-15.36,0Z"/><path class="cls-3" d="M218.26,124H228c5.52,0,9.11,2.76,9.11,7.91,0,4.56-2.8,7.18-7.22,7.73l8.56,12.61h-2.72l-8.42-12.47h-6.71v12.47h-2.35Zm2.35,13.71h7.31c4.28,0,6.9-2.16,6.9-5.8s-2.62-5.79-6.9-5.79h-7.31Z"/><path class="cls-3" d="M22,191.24H19.63V163H22Z"/><path class="cls-3" d="M50.32,191.24H48.75L31.5,166.72v24.52H29.25V163H31.5l16.56,23.56V163h2.26Z"/><path class="cls-3" d="M66.14,191.24,55,163h2.44l9.75,25L77,163h2.4L68.26,191.24Z"/><path class="cls-3" d="M101.65,163v2.16H86.43V175.6h13.8v2.16H86.43v11.32h15.22v2.16H84.13V163Z"/><path class="cls-3" d="M106,186.13a12.25,12.25,0,0,0,8.74,3.36c4,0,6.62-2,6.62-5.29,0-2.81-1.61-4-5.06-5.47L112.14,177a17.23,17.23,0,0,1-4.19-2.49,5.77,5.77,0,0,1-1.93-4.74,6.17,6.17,0,0,1,2.58-5.38,10.22,10.22,0,0,1,6-1.79,13.64,13.64,0,0,1,7.91,2.39v2.62a11.81,11.81,0,0,0-7.87-2.85c-3.49,0-6.3,1.66-6.3,5,0,2.76,1.93,4,4.93,5.15l4.37,1.84c4.09,1.8,6,3.82,6,7.45a6.61,6.61,0,0,1-2.53,5.43,9.79,9.79,0,0,1-6.39,2.07,13.56,13.56,0,0,1-8.74-2.8Z"/><path class="cls-3" d="M127,163h23v2.16H139.6v26.09h-2.34V165.15H127Z"/><path class="cls-3" d="M168,184.75l-10.67-17.3v23.79H155V163h2.07l11,17.94,11-17.94h1.93v28.25h-2.3V167.45l-10.63,17.3Z"/><path class="cls-3" d="M205.84,163v2.16H190.62V175.6h13.8v2.16h-13.8v11.32h15.22v2.16H188.32V163Z"/><path class="cls-3" d="M233.08,191.24h-1.57l-17.25-24.52v24.52H212V163h2.25l16.56,23.56V163h2.26Z"/><path class="cls-3" d="M238.13,163h23v2.16H250.78v26.09h-2.34V165.15H238.13Z"/><path class="cls-3" d="M264.35,186.13a12.28,12.28,0,0,0,8.74,3.36c4.05,0,6.63-2,6.63-5.29,0-2.81-1.61-4-5.06-5.47L270.52,177a17,17,0,0,1-4.19-2.49,5.74,5.74,0,0,1-1.93-4.74,6.16,6.16,0,0,1,2.57-5.38,10.28,10.28,0,0,1,6-1.79,13.64,13.64,0,0,1,7.91,2.39v2.62a11.81,11.81,0,0,0-7.87-2.85c-3.49,0-6.3,1.66-6.3,5,0,2.76,1.93,4,4.92,5.15L276,176.7c4.1,1.8,6,3.82,6,7.45a6.61,6.61,0,0,1-2.53,5.43,9.8,9.8,0,0,1-6.4,2.07,13.58,13.58,0,0,1-8.74-2.8Z"/><path class="cls-3" d="M22,230.24H19.63V202H22Z"/><path class="cls-3" d="M50.32,230.24H48.75L31.5,205.72v24.52H29.25V202H31.5l16.56,23.56V202h2.26Z"/><path class="cls-3" d="M55.38,202h23v2.16H68v26.09H65.68V204.15H55.38Z"/><path class="cls-3" d="M101.75,226.6a11.86,11.86,0,0,1-17.85,0,17.26,17.26,0,0,1,0-21,11.86,11.86,0,0,1,17.85,0,17.14,17.14,0,0,1,0,21Zm-1.61-19.36a9,9,0,0,0-7.32-3.45,8.94,8.94,0,0,0-7.27,3.45,15.47,15.47,0,0,0,0,17.75,8.94,8.94,0,0,0,7.27,3.45,9,9,0,0,0,7.32-3.45,15.47,15.47,0,0,0,0-17.75Z"/><path class="cls-3" d="M118.67,202h23v2.16H131.32v26.09H129V204.15H118.67Z"/><path class="cls-3" d="M169.32,202v28.25H167V216.76H149.08v13.48h-2.35V202h2.35V214.6H167V202Z"/><path class="cls-3" d="M194.11,202v2.16H178.88V214.6h13.81v2.16H178.88v11.32h15.23v2.16H176.58V202Z"/><path class="cls-3" d="M19.63,269.24V241H36v2.16H22v10.77h13.3V256H22v13.2Z"/><path class="cls-3" d="M56.25,260H43.74l-3.64,9.29H37.76L48.94,241H51.1l11.18,28.25H59.93Zm-11.68-2.12H55.42L50,244Z"/><path class="cls-3" d="M65.13,264.13a12.25,12.25,0,0,0,8.74,3.36c4,0,6.62-2,6.62-5.29,0-2.81-1.61-4-5.06-5.47L71.29,255a17,17,0,0,1-4.18-2.49,5.74,5.74,0,0,1-1.94-4.74,6.17,6.17,0,0,1,2.58-5.38,10.25,10.25,0,0,1,6-1.79A13.64,13.64,0,0,1,81.64,243v2.62a11.8,11.8,0,0,0-7.86-2.85c-3.5,0-6.31,1.66-6.31,5,0,2.76,1.94,4,4.93,5.15l4.37,1.84c4.09,1.8,6,3.82,6,7.45a6.61,6.61,0,0,1-2.53,5.43,9.79,9.79,0,0,1-6.39,2.07,13.56,13.56,0,0,1-8.74-2.8Z"/><path class="cls-3" d="M86.1,241h23v2.16H98.75v26.09H96.41V243.15H86.1Z"/><path class="cls-3" d="M124.33,241h2.34v26.09H142v2.16H124.33Z"/><path class="cls-3" d="M163.38,260H150.87l-3.63,9.29h-2.35L156.07,241h2.16l11.18,28.25h-2.35Zm-11.68-2.12h10.86L157.13,244Z"/><path class="cls-3" d="M195.17,269.24h-1.56l-17.26-24.52v24.52H174.1V241h2.25l16.57,23.56V241h2.25Z"/><path class="cls-3" d="M220,241v2.16H204.74V253.6h13.8v2.16h-13.8v11.32H220v2.16H202.44V241Z"/><path class="cls-3" d="M236.06,252.17a5.93,5.93,0,0,0,1.48-4c0-3.31-2.08-5.42-5.94-5.42-3.27,0-6.07,2-8,4.18V244.4a11.14,11.14,0,0,1,8.14-3.82c5.15,0,8.14,3,8.14,7.63a7,7,0,0,1-1.56,4.47c-1.06,1.33-2.12,2.57-3.22,3.77-1.47,1.61-1.93,2.62-2,3.91h-2.21c.14-2.07.92-3.31,2.44-5.11Zm-4.18,13.66a1.79,1.79,0,0,1,1.74,1.8,1.73,1.73,0,1,1-3.45,0A1.79,1.79,0,0,1,231.88,265.83Z"/></g></svg>