<svg id="Layer_1" data-name="Layer 1" xmlns="http://www.w3.org/2000/svg" xmlns:xlink="http://www.w3.org/1999/xlink" viewBox="0 0 300 600"><defs><style>.cls-1{fill:none;}.cls-2{clip-path:url(#clip-path);}.cls-3{fill:#009970;}</style><clipPath id="clip-path"><rect class="cls-1" width="300" height="600"/></clipPath></defs><g class="cls-2"><path class="cls-3" d="M63.59,62.7,71.34,31H81L68.73,78.12h-9L51.46,47.05,43.18,78.12h-9L21.92,31h9.9L39.49,62.7,47.78,31h7.68Z"/><path class="cls-3" d="M126.13,78.12h-10l-4.22-11.35H94.28L90.14,78.12H80.32L98.35,31h9.74ZM108.86,58.48l-5.75-15.65L97.35,58.48Z"/><path class="cls-3" d="M158.81,31h11.82L151.06,53.57l20.26,24.55h-12L141.62,56.79V78.12H131.8V31h9.82V51.27Z"/><path class="cls-3" d="M208.69,39.6H186.36V49.89h20.26v8.36H186.36v11.2h22.33v8.67h-32V31h32Z"/><path class="cls-3" d="M24.84,120.38V92.21h9.82v27.17c0,8.06,3.53,11.89,9.74,11.89s9.75-3.83,9.75-11.89V92.21H64v28.17c0,13-7.67,19.72-19.57,19.72C32.74,140.1,24.84,133.34,24.84,120.38Z"/><path class="cls-3" d="M82.08,139.33H72.33V92.21H91.52c10,0,16.57,5.37,16.57,15.43S101.49,123,91.52,123H82.08Zm8.82-38.75H82.08v14H90.9c5.15,0,7.52-2.92,7.52-7C98.42,103.34,96.05,100.58,90.9,100.58Z"/><path class="cls-3" d="M65.66,153.42,48.55,182.65v17.88H38.8V182.65l-17-29.23H32.51l11.43,20,11.36-20Z"/><path class="cls-3" d="M87.68,201.3C74.56,201.3,65.43,191,65.43,177s9.13-24.33,22.25-24.33S110,162.86,110,177,100.8,201.3,87.68,201.3Zm0-39.9c-7.36,0-12.28,6.37-12.28,15.58s4.92,15.57,12.28,15.57c7.6,0,12.43-6.37,12.43-15.57S95.28,161.4,87.68,161.4Z"/><path class="cls-3" d="M116.15,181.58V153.42H126v27.16c0,8.06,3.53,11.9,9.75,11.9s9.74-3.84,9.74-11.9V153.42h9.83v28.16c0,13-7.68,19.72-19.57,19.72C124.05,201.3,116.15,194.55,116.15,181.58Z"/><path class="cls-3" d="M173.39,200.53h-9.74V153.42h19.41c9.9,0,16.5,5.22,16.5,15,0,7.6-4.07,12.28-10.74,13.89l12.43,18.26H190.2L178.53,183h-5.14Zm9.06-25.63c4.91,0,7.44-2.61,7.44-6.52s-2.53-6.6-7.44-6.6h-9.06V174.9Z"/><path class="cls-3" d="M35.12,231.35v30.39H25.53V214.62h9.13l14.27,22.26,14.2-22.26h9v47.12H62.44V231.35L49,251.61H48.7Z"/><path class="cls-3" d="M101,262.51c-13.12,0-22.25-10.29-22.25-24.33s9.13-24.32,22.25-24.32,22.34,10.2,22.34,24.32S114.16,262.51,101,262.51Zm0-39.91c-7.36,0-12.27,6.37-12.27,15.58s4.91,15.58,12.27,15.58c7.6,0,12.44-6.37,12.44-15.58S108.63,222.6,101,222.6Z"/><path class="cls-3" d="M161.88,261.74l-22.25-31.39v31.39h-9.44V214.62h9.21l20.8,29.78V214.62h9.43v47.12Z"/><path class="cls-3" d="M210.69,223.22H188.36V233.5h20.26v8.36H188.36v11.21h22.33v8.67h-32V214.62h32Z"/><path class="cls-3" d="M258.41,214.62,241.3,243.86v17.88h-9.74V243.86l-17-29.24h10.66l11.44,19.95,11.35-19.95Z"/></g></svg>