<svg id="Layer_1" data-name="Layer 1" xmlns="http://www.w3.org/2000/svg" xmlns:xlink="http://www.w3.org/1999/xlink" viewBox="0 0 300 600"><defs><style>.cls-1{fill:none;}.cls-2{clip-path:url(#clip-path);}.cls-3{fill:#009970;}</style><clipPath id="clip-path"><rect class="cls-1" width="300" height="600"/></clipPath></defs><g class="cls-2"><path class="cls-3" d="M33.92,300.14l2.46-9h2.78l-3.7,12.72H32.6L30.34,295l-2.27,8.85H25.21l-3.69-12.72h2.86l2.46,9,2.24-9h2.6Z"/><path class="cls-3" d="M42.88,289a1.75,1.75,0,1,1,1.77-1.75A1.78,1.78,0,0,1,42.88,289Zm1.43,14.81H41.45V291.12h2.86Z"/><path class="cls-3" d="M52.24,303.84H49.38V293.5H46.8v-2.38h2.58v-3.41h2.86v3.41h2.87v2.38H52.24Z"/><path class="cls-3" d="M57.63,285.22h2.86v7.1a4.52,4.52,0,0,1,3.44-1.49c2.86,0,4.49,1.89,4.49,4.73v8.28H65.56v-7.79c0-1.58-.77-2.61-2.41-2.61a2.69,2.69,0,0,0-2.66,2v8.37H57.63Z"/><path class="cls-3" d="M81.28,293.9l7-7.65H92l-7.93,8.42,8.19,9.17H88.5l-7.22-8v8h-3V286.25h3Z"/><path class="cls-3" d="M95.91,289a1.75,1.75,0,1,1,1.78-1.75A1.78,1.78,0,0,1,95.91,289Zm1.43,14.81H94.48V291.12h2.86Z"/><path class="cls-3" d="M112,300.14l2.46-9h2.78l-3.7,12.72h-2.86L108.46,295l-2.27,8.85h-2.86l-3.69-12.72h2.86l2.46,9,2.24-9h2.6Z"/><path class="cls-3" d="M121,289a1.75,1.75,0,1,1,1.77-1.75A1.78,1.78,0,0,1,121,289Zm1.43,14.81h-2.86V291.12h2.86Z"/><path class="cls-3" d="M142.88,286.25l3.32,12.95,3.18-12.95h2.86l-4.52,17.59H145l-3.32-12.58-3.38,12.58h-2.72L131,286.25h2.92l3.18,12.95,3.35-12.95Z"/><path class="cls-3" d="M159.23,304.12c-3.7,0-6.3-2.55-6.3-6.53s2.46-6.76,5.84-6.76,5.36,2.5,5.36,6.25v1h-8.4a3.61,3.61,0,0,0,3.9,3.55,5.9,5.9,0,0,0,3.64-1.17V303A6.75,6.75,0,0,1,159.23,304.12Zm-3.35-8.19h5.53a2.58,2.58,0,0,0-2.61-2.69A3,3,0,0,0,155.88,295.93Z"/><path class="cls-3" d="M173.89,295.7c0-1.43-1.14-2.26-2.92-2.26a6.24,6.24,0,0,0-3.52,1.12v-2.64a7.59,7.59,0,0,1,4-1.09c3.3,0,5.16,1.78,5.16,4.67v8.34h-2.75v-.72a5.15,5.15,0,0,1-3.12.95c-2.64,0-4.76-1.61-4.76-4.16s2.15-4.09,5-4.09a5.93,5.93,0,0,1,2.92.77Zm0,3.7a2.72,2.72,0,0,0-2.58-1.29c-1.31,0-2.63.57-2.63,1.8s1.32,1.84,2.63,1.84a2.72,2.72,0,0,0,2.58-1.29Z"/><path class="cls-3" d="M182.88,303.84H180V285.22h2.86Z"/><path class="cls-3" d="M190.82,303.84H188V293.5h-2.58v-2.38H188v-3.41h2.87v3.41h2.86v2.38h-2.86Z"/><path class="cls-3" d="M196.2,285.22h2.86v7.1a4.52,4.52,0,0,1,3.44-1.49c2.86,0,4.5,1.89,4.5,4.73v8.28h-2.87v-7.79c0-1.58-.77-2.61-2.4-2.61a2.7,2.7,0,0,0-2.67,2v8.37H196.2Z"/><path class="cls-3" d="M31.34,330.12l-5.47-8.53v12.32H23V316.32h2.78l5.69,9.17,5.68-9.17h2.66v17.59H36.84V321.59l-5.39,8.53Z"/><path class="cls-3" d="M50.53,325.77c0-1.43-1.15-2.26-2.93-2.26a6.26,6.26,0,0,0-3.52,1.12V322a7.6,7.6,0,0,1,4-1.09c3.29,0,5.16,1.78,5.16,4.67v8.34H50.53v-.72a5.16,5.16,0,0,1-3.13.94c-2.63,0-4.75-1.6-4.75-4.15s2.15-4.09,5-4.09a6,6,0,0,1,2.93.77Zm0,3.7A2.73,2.73,0,0,0,48,328.18c-1.32,0-2.64.57-2.64,1.8s1.32,1.83,2.64,1.83a2.74,2.74,0,0,0,2.58-1.28Z"/><path class="cls-3" d="M56.65,321.19h2.87v1.2A4.48,4.48,0,0,1,63,320.9c2.87,0,4.5,1.89,4.5,4.73v8.28H64.59v-7.79c0-1.58-.78-2.61-2.41-2.61a2.69,2.69,0,0,0-2.66,2v8.37H56.65Z"/><path class="cls-3" d="M77.87,325.77c0-1.43-1.14-2.26-2.92-2.26a6.26,6.26,0,0,0-3.52,1.12V322a7.6,7.6,0,0,1,4-1.09c3.29,0,5.15,1.78,5.15,4.67v8.34H77.87v-.72a5.13,5.13,0,0,1-3.12.94c-2.63,0-4.75-1.6-4.75-4.15s2.14-4.09,5-4.09a5.93,5.93,0,0,1,2.92.77Zm0,3.7a2.7,2.7,0,0,0-2.57-1.29c-1.32,0-2.64.57-2.64,1.8s1.32,1.83,2.64,1.83a2.71,2.71,0,0,0,2.57-1.28Z"/><path class="cls-3" d="M92.19,332.65A4.35,4.35,0,0,1,89,334c-3.69,0-5.87-3.09-5.87-6.53s2.18-6.53,5.87-6.53a4.32,4.32,0,0,1,3.21,1.32v-1h2.87v11.66c0,4.52-3.38,6.21-6.53,6.21A7.9,7.9,0,0,1,84.29,338v-3a5.88,5.88,0,0,0,4.24,1.6,3.39,3.39,0,0,0,3.66-3.49Zm0-7.71a3.2,3.2,0,0,0-2.72-1.52c-2.2,0-3.47,1.69-3.47,4s1.27,4,3.47,4a3.2,3.2,0,0,0,2.72-1.52Z"/><path class="cls-3" d="M104,334.19c-3.7,0-6.3-2.55-6.3-6.53s2.46-6.76,5.84-6.76,5.36,2.49,5.36,6.25v1h-8.4a3.61,3.61,0,0,0,3.9,3.55,5.85,5.85,0,0,0,3.64-1.18v2.53A6.75,6.75,0,0,1,104,334.19ZM100.67,326h5.52a2.56,2.56,0,0,0-2.6-2.69A3,3,0,0,0,100.67,326Z"/><path class="cls-3" d="M119.88,332.82a4.28,4.28,0,0,1-3.23,1.37c-3.7,0-5.9-2.95-5.9-6.64s2.2-6.65,5.9-6.65a4.25,4.25,0,0,1,3.23,1.38v-7h2.87v18.62h-2.87Zm0-7.68a3.09,3.09,0,0,0-2.75-1.69c-2.17,0-3.52,1.75-3.52,4.1s1.35,4.09,3.52,4.09a3.07,3.07,0,0,0,2.75-1.69Z"/><path class="cls-3" d="M132.8,333.91V316.32H144V319h-8.25v5.21h7.71v2.6h-7.71v7.14Z"/><path class="cls-3" d="M157,333.91H154.1V332.7a4.46,4.46,0,0,1-3.4,1.49c-2.9,0-4.47-1.89-4.47-4.72v-8.28h2.86V329c0,1.57.77,2.61,2.38,2.61a2.66,2.66,0,0,0,2.63-2v-8.36H157Z"/><path class="cls-3" d="M160.52,321.19h2.86v1.2a4.52,4.52,0,0,1,3.44-1.49c2.86,0,4.49,1.89,4.49,4.73v8.28h-2.86v-7.79c0-1.58-.77-2.61-2.41-2.61a2.69,2.69,0,0,0-2.66,2v8.37h-2.86Z"/><path class="cls-3" d="M182.94,332.82a4.29,4.29,0,0,1-3.24,1.37c-3.69,0-5.9-2.95-5.9-6.64s2.21-6.65,5.9-6.65a4.26,4.26,0,0,1,3.24,1.38v-7h2.86v18.62h-2.86Zm0-7.68a3.09,3.09,0,0,0-2.75-1.69c-2.18,0-3.52,1.75-3.52,4.1s1.34,4.09,3.52,4.09a3.07,3.07,0,0,0,2.75-1.69Z"/><path class="cls-3" d="M188.78,330a6.52,6.52,0,0,0,4.3,1.86c1.23,0,2.2-.42,2.2-1.34s-.63-1.15-1.69-1.49l-1.37-.43c-2.18-.69-3.44-1.66-3.44-3.84s2.06-3.81,4.78-3.81a6.9,6.9,0,0,1,3.81,1.12v2.89a5.75,5.75,0,0,0-3.81-1.63c-1.14,0-2,.49-2,1.32s.49,1.11,1.63,1.46l1.66.51c2.12.69,3.24,1.81,3.24,3.76,0,2.43-2.18,3.86-5,3.86a6.94,6.94,0,0,1-4.27-1.32Z"/><path class="cls-3" d="M202,330.15a2,2,0,1,1-1.94,2A1.94,1.94,0,0,1,202,330.15Z"/></g></svg>