<svg xmlns="http://www.w3.org/2000/svg" xmlns:xlink="http://www.w3.org/1999/xlink" viewBox="0 0 77.32 51.19"><defs><style>.cls-1{fill:none;}.cls-2{clip-path:url(#clip-path);}.cls-3{fill:#fff;}</style><clipPath id="clip-path" transform="translate(-0.73 -2.54)"><rect class="cls-1" width="44" height="20"/></clipPath></defs><title>text3-option1</title><g id="Layer_2" data-name="Layer 2"><g id="Layer_1-2" data-name="Layer 1"><g class="cls-2"><path class="cls-3" d="M.73,2.66H2.31V7A1.57,1.57,0,0,0,4,8.75,1.56,1.56,0,0,0,5.7,7V2.66H7.28v4.4c0,1.83-1,3.07-3.26,3.07S.73,8.88.73,7.07Z" transform="translate(-0.73 -2.54)"/><path class="cls-3" d="M8.73,2.66h3.44A2.29,2.29,0,0,1,14.63,5a2.28,2.28,0,0,1-2.46,2.34H10.3V10H8.73ZM12,4H10.3V6H12a1,1,0,1,0,0-2Z" transform="translate(-0.73 -2.54)"/><path class="cls-3" d="M20.11,4H18V2.66h5.86V4H21.68v6H20.11Z" transform="translate(-0.73 -2.54)"/><path class="cls-3" d="M28,2.54a3.69,3.69,0,0,1,3.84,3.8A3.69,3.69,0,0,1,28,10.13a3.68,3.68,0,0,1-3.83-3.79A3.68,3.68,0,0,1,28,2.54Zm0,1.39a2.22,2.22,0,0,0-2.22,2.41,2.23,2.23,0,1,0,4.45,0A2.22,2.22,0,0,0,28,3.93Z" transform="translate(-0.73 -2.54)"/></g><path class="cls-3" d="M18.14,37.41A6.31,6.31,0,0,1,13.45,39,7.28,7.28,0,0,1,10,38.19a6.11,6.11,0,0,0-2.69-.68,9.34,9.34,0,0,0-4,1.33L2.16,36.39c2.69-1.19,4.29-3,4.29-4.93a4.07,4.07,0,0,0-.48-2H1.28V27.38H4.51l0,0C3.35,26,2.2,24.59,2.2,22.38c0-3.91,3.7-6.8,7.82-6.8,3.26,0,5.84,1.36,7.14,3.88l-2.72,1.63a4.44,4.44,0,0,0-4.08-2.68c-2.42,0-4.49,1.53-4.49,4a6.33,6.33,0,0,0,1.8,4.12l.61.81h5.07v2.11h-4a6.52,6.52,0,0,1,.13,1.22A5.16,5.16,0,0,1,7,35a6,6,0,0,1,1.77-.28,5.86,5.86,0,0,1,2.58.68,5.18,5.18,0,0,0,2.25.62,4.2,4.2,0,0,0,3.16-1.33Z" transform="translate(-0.73 -2.54)"/><path class="cls-3" d="M30.32,33.16H19.54V30.37l9.52-14.45h4.65V30.17h3.13v3H33.71V38.6H30.32Zm-7.42-3h7.42V19Z" transform="translate(-0.73 -2.54)"/><path class="cls-3" d="M48.3,15.58c6.29,0,8.87,6.09,8.87,11.7S54.59,39,48.3,39s-8.87-6.12-8.87-11.73S42,15.58,48.3,15.58Zm0,3c-4,0-5.4,4.25-5.4,8.67S44.29,36,48.3,36s5.41-4.28,5.41-8.7S52.31,18.61,48.3,18.61Z" transform="translate(-0.73 -2.54)"/><path class="cls-3" d="M69.18,15.58c6.29,0,8.87,6.09,8.87,11.7S75.47,39,69.18,39,60.3,32.89,60.3,27.28,62.89,15.58,69.18,15.58Zm0,3c-4,0-5.41,4.25-5.41,8.67S65.16,36,69.18,36s5.4-4.28,5.4-8.7S73.19,18.61,69.18,18.61Z" transform="translate(-0.73 -2.54)"/><path class="cls-3" d="M1.11,49.94a3.67,3.67,0,0,1,3.76-3.8,3.3,3.3,0,0,1,2.91,1.55l-.93.5a2.32,2.32,0,0,0-2-1.07,2.82,2.82,0,0,0,0,5.63,2.34,2.34,0,0,0,2-1.06l.93.49a3.32,3.32,0,0,1-2.91,1.55A3.67,3.67,0,0,1,1.11,49.94Z" transform="translate(-0.73 -2.54)"/><path class="cls-3" d="M13.49,52.08H9.9L9.3,53.6H8.09L11,46.26h1.37L15.3,53.6H14.09Zm-3.28-1h3l-1.48-3.88Z" transform="translate(-0.73 -2.54)"/><path class="cls-3" d="M16.23,51.72a3.1,3.1,0,0,0,2.31,1c1.19,0,1.61-.6,1.61-1.13,0-.77-.84-1-1.77-1.23-1.18-.31-2.54-.65-2.54-2.15,0-1.21,1.06-2.09,2.59-2.09a3.58,3.58,0,0,1,2.67,1l-.63.81a2.88,2.88,0,0,0-2.13-.86c-.81,0-1.37.42-1.37,1s.79.86,1.7,1.1c1.2.31,2.6.69,2.6,2.25,0,1.14-.79,2.21-2.77,2.21a3.78,3.78,0,0,1-2.9-1.16Z" transform="translate(-0.73 -2.54)"/><path class="cls-3" d="M27.7,50.32H23.65V53.6h-1.1V46.26h1.1v3.08H27.7V46.26h1.11V53.6H27.7Z" transform="translate(-0.73 -2.54)"/><path class="cls-3" d="M30.43,46.26h3.45a1.86,1.86,0,0,1,2.06,1.87,1.66,1.66,0,0,1-1.27,1.69,1.81,1.81,0,0,1,1.42,1.8,1.92,1.92,0,0,1-2.13,2H30.43Zm3.24,3.12a1.08,1.08,0,1,0,0-2.15H31.53v2.15Zm0,3.25A1.1,1.1,0,0,0,35,51.48a1.12,1.12,0,0,0-1.23-1.14H31.53v2.29Z" transform="translate(-0.73 -2.54)"/><path class="cls-3" d="M42.09,52.08H38.5l-.6,1.52H36.69l2.92-7.34H41L43.9,53.6H42.69Zm-3.28-1h3l-1.48-3.88Z" transform="translate(-0.73 -2.54)"/><path class="cls-3" d="M44.08,49.94a3.67,3.67,0,0,1,3.76-3.8,3.31,3.31,0,0,1,2.92,1.55l-.93.5a2.34,2.34,0,0,0-2-1.07,2.82,2.82,0,0,0,0,5.63,2.36,2.36,0,0,0,2-1.06l.93.49a3.32,3.32,0,0,1-2.92,1.55A3.67,3.67,0,0,1,44.08,49.94Z" transform="translate(-0.73 -2.54)"/><path class="cls-3" d="M53.65,50.41l-.69.78V53.6h-1.1V46.26H53V49.9L56,46.26h1.36l-3,3.48,3.27,3.86H56.27Z" transform="translate(-0.73 -2.54)"/></g></g></svg>