<svg xmlns="http://www.w3.org/2000/svg" xmlns:xlink="http://www.w3.org/1999/xlink" viewBox="0 0 110.22 50.66"><defs><style>.cls-1{fill:none;}.cls-2{clip-path:url(#clip-path);}.cls-3{fill:#fff;}</style><clipPath id="clip-path" transform="translate(0 -2.54)"><rect class="cls-1" x="0.12" width="22" height="20"/></clipPath></defs><title>text4-option2</title><g id="Layer_2" data-name="Layer 2"><g id="Layer_1-2" data-name="Layer 1"><g class="cls-2"><path class="cls-3" d="M4.32,2.54a3.69,3.69,0,0,1,3.84,3.8,3.69,3.69,0,0,1-3.84,3.79A3.68,3.68,0,0,1,.49,6.34,3.69,3.69,0,0,1,4.32,2.54Zm0,1.39A2.22,2.22,0,0,0,2.1,6.34a2.23,2.23,0,1,0,4.45,0A2.22,2.22,0,0,0,4.32,3.93Z" transform="translate(0 -2.54)"/><path class="cls-3" d="M12,7.37H10.82V10H9.26V2.66h3.43A2.28,2.28,0,0,1,15.15,5a2.11,2.11,0,0,1-1.6,2.18L15.2,10H13.4ZM12.46,4H10.82V6h1.64a1,1,0,1,0,0-2Z" transform="translate(0 -2.54)"/></g><path class="cls-3" d="M4.82,47.53,3.3,53.2H2.13L0,45.86H1.26l1.52,5.89,1.6-5.89h.89l1.6,5.89,1.52-5.89H9.62L7.53,53.2H6.35Z" transform="translate(0 -2.54)"/><path class="cls-3" d="M14.7,51.68H11.1l-.59,1.52H9.3l2.91-7.34h1.38l2.92,7.34H15.29Zm-3.28-1h3L12.9,46.82Z" transform="translate(0 -2.54)"/><path class="cls-3" d="M19.86,50.37H18.48V53.2h-1.1V45.86h3.1a2.19,2.19,0,0,1,2.35,2.26A2,2,0,0,1,21,50.26l1.88,2.94H21.61Zm.47-3.54H18.48V49.4h1.85a1.29,1.29,0,1,0,0-2.57Z" transform="translate(0 -2.54)"/><path class="cls-3" d="M26.66,50.37H25.28V53.2h-1.1V45.86h3.09a2.19,2.19,0,0,1,2.36,2.26,2,2,0,0,1-1.83,2.14l1.88,2.94H28.41Zm.47-3.54H25.28V49.4h1.85a1.29,1.29,0,1,0,0-2.57Z" transform="translate(0 -2.54)"/><path class="cls-3" d="M35.62,51.68H32l-.59,1.52H30.22l2.92-7.34h1.37l2.92,7.34H36.22Zm-3.28-1h3l-1.48-3.88Z" transform="translate(0 -2.54)"/><path class="cls-3" d="M39.41,47.57V53.2h-1.1V45.86h1.13l4,5.5v-5.5h1.1V53.2H43.47Z" transform="translate(0 -2.54)"/><path class="cls-3" d="M48,46.83H45.68v-1h5.64v1H49.05V53.2H48Z" transform="translate(0 -2.54)"/><path class="cls-3" d="M54.57,50.13,51.7,45.86H53l2.16,3.28,2.13-3.28h1.28l-2.87,4.27V53.2h-1.1Z" transform="translate(0 -2.54)"/><path class="cls-3" d="M1.9,33.49a8.26,8.26,0,0,0,6.33,2.89c3.12,0,5-1.49,5-3.87s-2-3.57-5.33-3.57c-.92,0-2.11,0-2.45,0V25.88c.37,0,1.56,0,2.45,0,2.75,0,5-1,5-3.36S10.71,19,8,19a7.89,7.89,0,0,0-5.91,2.62L.31,19.52a10.2,10.2,0,0,1,8-3.54c4.62,0,8,2.28,8,6.09,0,3.16-2.68,4.83-4.93,5.23a5.73,5.73,0,0,1,5.27,5.55c0,3.8-3.16,6.56-8.29,6.56-3.94,0-6.87-1.67-8.33-3.71Z" transform="translate(0 -2.54)"/><path class="cls-3" d="M36.14,29.51,27.27,16.32h3.91l6.66,10.14,6.6-10.14h3.94L39.54,29.51V39h-3.4Z" transform="translate(0 -2.54)"/><path class="cls-3" d="M51.1,16.32H66.33v3H54.5V26H66.09v3H54.5V36H66.33v3H51.1Z" transform="translate(0 -2.54)"/><path class="cls-3" d="M84.93,34.31H73.81L72,39H68.24l9-22.68H81.5L90.5,39H86.77Zm-10.13-3h9.14l-4.59-12Z" transform="translate(0 -2.54)"/><path class="cls-3" d="M100.88,30.26H96.63V39h-3.4V16.32h9.55c4.32,0,7.27,2.79,7.27,7a6.32,6.32,0,0,1-5.64,6.63L110.22,39h-3.94Zm1.46-10.94H96.63v8h5.71a4,4,0,1,0,0-7.95Z" transform="translate(0 -2.54)"/></g></g></svg>