<?xml version="1.0" encoding="utf-8"?>
<!-- Generator: Adobe Illustrator 25.2.1, SVG Export Plug-In . SVG Version: 6.00 Build 0)  -->
<svg version="1.1" id="Layer_1" xmlns="http://www.w3.org/2000/svg" xmlns:xlink="http://www.w3.org/1999/xlink" x="0px" y="0px"
	 viewBox="0 0 300 250" style="enable-background:new 0 0 300 250;" xml:space="preserve">
<style type="text/css">
	.st0{clip-path:url(#SVGID_2_);}
	.st1{fill:#009970;}
</style>
<g>
	<defs>
		<rect id="SVGID_1_" width="300" height="250"/>
	</defs>
	<clipPath id="SVGID_2_">
		<use xlink:href="#SVGID_1_"  style="overflow:visible;"/>
	</clipPath>
	<g class="st0">
		<path class="st1" d="M16.5,41.4c-1.9-2.9-2.8-6.3-2.7-9.8c-0.1-3.5,0.8-6.9,2.7-9.8c1.5-2.4,4.2-3.8,7.1-3.8c2.8,0,5.5,1.4,7,3.8
			c1.9,2.9,2.8,6.3,2.7,9.8c0.1,3.5-0.8,6.9-2.7,9.8c-1.5,2.4-4.2,3.8-7,3.8C20.7,45.2,18,43.8,16.5,41.4z M18,23.3
			c-1.4,2.5-2.1,5.4-2,8.3c-0.1,2.9,0.6,5.8,2,8.3c1.7,3,5.6,4.1,8.6,2.4c1-0.6,1.8-1.4,2.4-2.4c1.4-2.5,2.1-5.4,2-8.3
			c0.1-2.9-0.6-5.8-2-8.3c-1.7-3-5.5-4.2-8.5-2.5C19.4,21.4,18.6,22.2,18,23.3z"/>
		<path class="st1" d="M36.9,41.6c0.9,0,1.6,0.8,1.6,1.7c0,0.9-0.7,1.6-1.6,1.6s-1.6-0.7-1.6-1.6C35.3,42.4,36,41.6,36.9,41.6z"/>
		<path class="st1" d="M43.9,43c-1.6-1.3-2.5-3.4-2.5-5.5c0-3.3,2.3-6.1,5.5-6.8c-2.6-0.8-4.4-3.2-4.4-5.9c0-1.8,0.8-3.6,2.2-4.8
			c1.5-1.4,3.5-2.1,5.6-2c2.1-0.1,4.1,0.6,5.6,2c1.4,1.2,2.3,2.9,2.2,4.8c0,2.7-1.8,5.1-4.4,5.9c3.2,0.8,5.4,3.6,5.5,6.8
			c0,2.1-0.9,4.1-2.5,5.4c-1.8,1.5-4,2.2-6.4,2.2C48,45.2,45.7,44.5,43.9,43z M55.1,41.6c2.3-1.9,2.6-5.3,0.7-7.6
			c-0.2-0.2-0.4-0.5-0.7-0.7c-1.3-1.2-3.1-1.8-4.9-1.7c-1.8-0.1-3.5,0.5-4.9,1.7c-2.3,2-2.5,5.4-0.6,7.7c0.2,0.2,0.4,0.4,0.6,0.6
			c1.4,1.1,3.1,1.7,4.9,1.7C52,43.3,53.8,42.7,55.1,41.6L55.1,41.6z M56,24.8c0-2.8-2.3-5-5.7-5s-5.7,2.1-5.7,5s2.4,4.9,5.7,4.9
			S56,27.6,56,24.8z"/>
		<path class="st1" d="M71,27.3c-1,1-2.4,1.6-3.8,1.6c-1.5,0-2.9-0.5-3.9-1.6c-1-1-1.6-2.4-1.6-3.8c0-3,2.5-5.5,5.5-5.5
			c1.4,0,2.8,0.6,3.8,1.6c1.1,1,1.6,2.4,1.6,3.9C72.6,24.9,72.1,26.3,71,27.3z M67.2,27.2c2,0,3.7-1.6,3.7-3.6c0,0,0,0,0,0
			c0-2-1.6-3.7-3.7-3.7s-3.7,1.6-3.7,3.7S65.1,27.1,67.2,27.2C67.1,27.2,67.2,27.2,67.2,27.2z M81.1,18.4H83L65.9,44.8H64L81.1,18.4
			z M83.6,43.6c-1,1-2.4,1.6-3.8,1.6c-1.5,0-2.9-0.6-3.9-1.6c-1-1-1.6-2.4-1.6-3.9c0-1.4,0.6-2.8,1.6-3.8c1-1,2.4-1.6,3.9-1.6
			c3,0,5.4,2.4,5.4,5.4C85.2,41.1,84.7,42.5,83.6,43.6L83.6,43.6z M79.8,36c-2,0-3.7,1.6-3.7,3.6c0,0,0,0,0,0
			c-0.1,2,1.5,3.8,3.5,3.9s3.8-1.5,3.9-3.5c0-0.1,0-0.3,0-0.4C83.5,37.6,81.8,36,79.8,36C79.8,36,79.8,36,79.8,36z"/>
		<path class="st1" d="M89.9,41.6c0.9,0,1.6,0.8,1.6,1.7c0,0.9-0.7,1.6-1.6,1.6s-1.6-0.7-1.6-1.6C88.3,42.4,89,41.6,89.9,41.6z"/>
	</g>
</g>
</svg>
