<?xml version="1.0" encoding="utf-8"?>
<!-- Generator: Adobe Illustrator 25.2.1, SVG Export Plug-In . SVG Version: 6.00 Build 0)  -->
<svg version="1.1" id="Layer_1" xmlns="http://www.w3.org/2000/svg" xmlns:xlink="http://www.w3.org/1999/xlink" x="0px" y="0px"
	 viewBox="0 0 300 250" style="enable-background:new 0 0 300 250;" xml:space="preserve">
<style type="text/css">
	.st0{clip-path:url(#SVGID_2_);}
	.st1{clip-path:url(#SVGID_4_);enable-background:new    ;}
	.st2{fill:#FFFFFF;}
	.st3{clip-path:url(#SVGID_6_);enable-background:new    ;}
	.st4{clip-path:url(#SVGID_8_);enable-background:new    ;}
	.st5{clip-path:url(#SVGID_10_);enable-background:new    ;}
	.st6{clip-path:url(#SVGID_12_);enable-background:new    ;}
</style>
<g>
	<g>
		<defs>
			<rect id="SVGID_1_" width="300" height="250"/>
		</defs>
		<clipPath id="SVGID_2_">
			<use xlink:href="#SVGID_1_"  style="overflow:visible;"/>
		</clipPath>
		<rect x="160.1" y="198.2" class="st0" width="43.8" height="43.8"/>
	</g>
	<g>
		<defs>
			<rect id="SVGID_3_" width="300" height="250"/>
		</defs>
		<clipPath id="SVGID_4_">
			<use xlink:href="#SVGID_3_"  style="overflow:visible;"/>
		</clipPath>
		<g class="st1">
			<path class="st2" d="M166.5,214v-8.3h5.3v1.2h-3.9v2.5h3.6v1.2h-3.6v3.4L166.5,214L166.5,214z"/>
			<path class="st2" d="M174.6,214h-1.4v-8.3h1.4V214z"/>
			<path class="st2" d="M183.1,214H182l-4.2-6v6h-1.4v-8.3h1.3l4,5.8v-5.8h1.4V214z"/>
		</g>
	</g>
	<g>
		<defs>
			<rect id="SVGID_5_" width="300" height="250"/>
		</defs>
		<clipPath id="SVGID_6_">
			<use xlink:href="#SVGID_5_"  style="overflow:visible;"/>
		</clipPath>
		<g class="st3">
			<path class="st2" d="M185,205.7h2.8c2.4,0,4,1.6,4,4.2s-1.6,4.2-4,4.2H185V205.7z M187.7,212.8c1.7,0,2.7-1.1,2.7-2.9
				c0-1.8-0.9-2.9-2.7-2.9h-1.3v5.8L187.7,212.8L187.7,212.8z"/>
		</g>
	</g>
	<g>
		<defs>
			<rect id="SVGID_7_" width="300" height="250"/>
		</defs>
		<clipPath id="SVGID_8_">
			<use xlink:href="#SVGID_7_"  style="overflow:visible;"/>
		</clipPath>
		<g class="st4">
			<path class="st2" d="M169.9,225c-2.2,0-3.8-1.8-3.8-4.3s1.6-4.3,3.8-4.3s3.8,1.8,3.8,4.3C173.7,223.1,172.1,225,169.9,225z
				 M169.9,217.7c-1.5,0-2.4,1.3-2.4,3s0.9,3,2.4,3c1.4,0,2.4-1.3,2.4-3S171.3,217.7,169.9,217.7z"/>
			<path class="st2" d="M175,221.5v-5h1.4v4.8c0,1.6,0.7,2.3,1.9,2.3c1.3,0,1.9-0.8,1.9-2.3v-4.8h1.4v5c0,2.3-1.3,3.4-3.3,3.4
				S175,223.8,175,221.5z"/>
		</g>
	</g>
	<g>
		<defs>
			<rect id="SVGID_9_" width="300" height="250"/>
		</defs>
		<clipPath id="SVGID_10_">
			<use xlink:href="#SVGID_9_"  style="overflow:visible;"/>
		</clipPath>
		<g class="st5">
			<path class="st2" d="M182.8,216.5h6.9v1.2H187v7.1h-1.4v-7.1h-2.8V216.5z"/>
		</g>
	</g>
	<g>
		<defs>
			<rect id="SVGID_11_" width="300" height="250"/>
		</defs>
		<clipPath id="SVGID_12_">
			<use xlink:href="#SVGID_11_"  style="overflow:visible;"/>
		</clipPath>
		<g class="st6">
			<path class="st2" d="M170.5,233.9l-2.6-4v5.8h-1.4v-8.3h1.3l2.7,4.3l2.7-4.3h1.3v8.3h-1.4v-5.8L170.5,233.9L170.5,233.9z"/>
			<path class="st2" d="M179.7,235.8c-2.2,0-3.8-1.8-3.8-4.3s1.6-4.3,3.8-4.3s3.8,1.8,3.8,4.3S181.9,235.8,179.7,235.8z
				 M179.7,228.5c-1.5,0-2.4,1.3-2.4,3s0.9,3,2.4,3c1.4,0,2.4-1.3,2.4-3S181.1,228.5,179.7,228.5z"/>
			<path class="st2" d="M184.9,227.3h3.2c1.7,0,2.8,0.9,2.8,2.5c0,1.4-0.8,2.2-2.1,2.4l2.4,3.4h-1.6l-2.3-3.4h-1v3.4h-1.4
				L184.9,227.3L184.9,227.3z M186.3,231.1h1.8c0.9,0,1.5-0.5,1.5-1.3s-0.5-1.3-1.5-1.3h-1.8V231.1z"/>
			<path class="st2" d="M197.8,227.3v1.2h-4v2.2h3.7v1.2h-3.7v2.4h4v1.3h-5.4v-8.3L197.8,227.3L197.8,227.3z"/>
		</g>
	</g>
</g>
</svg>
