<?xml version="1.0" encoding="UTF-8"?><svg id="Layer_2" xmlns="http://www.w3.org/2000/svg" xmlns:xlink="http://www.w3.org/1999/xlink" viewBox="0 0 42.8 21.81"><defs><style>.cls-1,.cls-2{fill:none;}.cls-3{clip-path:url(#clippath);}.cls-4{fill:#fff;}.cls-5{fill:#ff3008;}.cls-6{fill:#ce2e19;}.cls-7{fill:#c5e8e9;}.cls-8{fill:#10322c;}.cls-9{fill:#221f20;}.cls-10{fill:#27346b;}.cls-11{clip-path:url(#clippath-1);}.cls-2{stroke:#27346b;stroke-miterlimit:10;stroke-width:.67px;}</style><clipPath id="clippath"><ellipse class="cls-1" cx="21.4" cy="10.9" rx="21.07" ry="10.57"/></clipPath><clipPath id="clippath-1"><ellipse class="cls-2" cx="21.4" cy="10.9" rx="21.07" ry="10.57"/></clipPath></defs><g id="Layer_3"><g><g><path class="cls-4" d="M18.17,18.4c-.74-5.98-.6-11.87,.44-17.9C8.32,1.2,.39,5.63,.39,10.98c0,1,.28,1.97,.8,2.89,3.69,2.44,9.31,4.01,16.8,4.52,.06,0,.12,0,.18,.01Z"/><path class="cls-4" d="M1.38,14.19s-.05-.08-.08-.13c.03,.04,.05,.08,.08,.13Z"/><path class="cls-5" d="M18.17,18.4c1.2,.08,2.43,.13,3.72,.15,.25,0,.5,0,.76,0,.08,0,.16,0,.24,0-.77-6.05-.62-12,.44-18.09-.62-.03-1.25-.04-1.89-.04-.96,0-1.9,.03-2.82,.09-1.04,6.02-1.19,11.91-.44,17.9Z"/><path class="cls-7" d="M23.4,21.43c9.37-.44,16.95-3.96,18.69-8.52-3.93,3.38-10.77,5.49-19.21,5.64,.12,.96,.27,1.92,.43,2.88,.03,0,.06,0,.09,0Z"/><path class="cls-7" d="M1.18,13.87c.04,.07,.08,.13,.12,.2-.04-.06-.08-.13-.11-.19,0,0,0,0,0,0Z"/><path class="cls-7" d="M1.42,14.26s-.03-.04-.04-.06c.01,.02,.03,.04,.04,.06Z"/><path class="cls-7" d="M18.61,21.38c-.17-1-.32-1.99-.44-2.98-.06,0-.12,0-.18-.01-7.49-.51-13.11-2.08-16.8-4.52,.04,.07,.08,.13,.11,.19,.03,.04,.05,.08,.08,.13,.01,.02,.03,.04,.04,.06,2.51,3.77,9.13,6.59,17.19,7.13Z"/><path class="cls-6" d="M21.89,18.56c-1.29-.02-2.53-.08-3.72-.15,.12,.99,.27,1.98,.44,2.98,.91,.06,1.85,.09,2.79,.09,.53,0,1.05-.01,1.57-.03,.11,0,.23,0,.34-.01-.17-.96-.31-1.92-.43-2.88-.08,0-.16,0-.24,0-.25,0-.5,0-.76,0Z"/></g><g><path class="cls-4" d="M22.88,18.55c8.01-.15,14.56-2.05,18.57-5.13H22.45c.07,1.71,.21,3.42,.43,5.13Z"/><path class="cls-4" d="M23.32,.46c-.48,2.77-.77,5.52-.88,8.26h19.54C40.05,4.27,32.54,.87,23.32,.46Z"/><path class="cls-4" d="M23.4,21.43s-.06,0-.09,0c-.11,0-.23,0-.34,.01-.52,.02-1.04,.03-1.57,.03-.95,0-1.88-.03-2.79-.09-8.06-.54-14.68-3.36-17.19-7.13,2.74,4.24,10.66,7.3,20.01,7.3,9.95,0,18.29-3.47,20.48-8.14h-.04c-2.09,4.31-9.45,7.59-18.46,8.01Z"/><path class="cls-5" d="M22.44,8.72H.75s-.58,1.14-.49,2.31c.08,1.17,.62,2.39,.62,2.39H22.45c-.07-1.57-.07-3.13,0-4.7Z"/><path class="cls-5" d="M41.46,13.41h.41c.08-.17,.16-.34,.23-.51-.2,.17-.42,.34-.63,.51Z"/><path class="cls-5" d="M41.98,8.72H22.44c-.06,1.57-.06,3.13,0,4.7h19c.22-.17,.43-.34,.63-.51-.07,.17-.14,.34-.23,.51h.04c.37-.78,.56-1.59,.56-2.43,0-.78-.17-1.54-.49-2.27Z"/></g><path class="cls-9" d="M42.25,10.27c-.44-3.61-6.56-4.95-9.54-5.73,3.09,.75,9.24,1.96,9.75,5.73,0,0-.21,0-.21,0h0Z"/><path class="cls-10" d="M21.4,21.72C9.64,21.72,.08,16.87,.08,10.9S9.64,.09,21.4,.09s21.32,4.85,21.32,10.82-9.57,10.82-21.32,10.82ZM21.4,.58C9.93,.58,.59,5.21,.59,10.9s9.34,10.32,20.81,10.32,20.81-4.63,20.81-10.32S32.88,.58,21.4,.58Z"/><g class="cls-3"><g><path class="cls-10" d="M14.38,3.55c-1.74-1.01-6.34-1.8-9.24-.84-1.5,.49-3.12,1.42-4.64,2.48,6.93-1.97,9.03-1.78,13.88-1.65Z"/><path class="cls-10" d="M-.75,6.12c-4.75,3.69-7.3,9.07-1.7,4.28C3.51,5.32,9.98,4.43,14.38,3.88c-5,0-7.57-.01-15.13,2.24Z"/></g></g><g><g class="cls-11"><polygon class="cls-8" points="21.49 18.58 21.49 18.58 21.49 18.58 21.49 18.58"/><path class="cls-10" d="M39.11,17.23c5.35-3.55,9.03-8.06,2.28-4.01-7.35,4.41-14.7,5.23-18.04,5.35,3.7,.49,7.53,.46,15.76-1.34Z"/><path class="cls-10" d="M28.89,19.37c-2.56,.12-3.09,.13-5.41-.23,1.78,1.21,5.92,2.06,9.08,1.27,1.63-.41,3.43-1.26,5.14-2.28-3.64,.75-6.42,1.14-8.81,1.25Z"/></g><ellipse class="cls-2" cx="21.4" cy="10.9" rx="21.07" ry="10.57"/></g></g></g></svg>