<?xml version="1.0" encoding="utf-8"?>
<!-- Generator: Adobe Illustrator 26.5.0, SVG Export Plug-In . SVG Version: 6.00 Build 0)  -->
<svg version="1.1" id="Layer_3" xmlns="http://www.w3.org/2000/svg" xmlns:xlink="http://www.w3.org/1999/xlink" x="0px" y="0px"
	 viewBox="0 0 300 250" style="enable-background:new 0 0 300 250;" xml:space="preserve">
<style type="text/css">
	.st0{clip-path:url(#SVGID_00000044164147097222685480000002414358598545295026_);}
	.st1{clip-path:url(#SVGID_00000150103552199914395250000013400870654168507559_);}
	.st2{fill:#273479;}
	.st3{fill:#FFFFFF;}
	.st4{fill:#FF3008;}
	.st5{fill:#27346B;}
	.st6{fill:#FBF6FA;}
	.st7{fill:#E01E28;}
	.st8{fill:none;stroke:#FF3008;stroke-width:0.24;stroke-miterlimit:10;}
	.st9{fill-rule:evenodd;clip-rule:evenodd;fill:#FFFFFF;}
	.st10{fill:#D71924;}
</style>
<g>
	<g>
		<defs>
			<rect id="SVGID_1_" x="15.5" y="134.4" width="144.4" height="92.3"/>
		</defs>
		<clipPath id="SVGID_00000028316258442488733500000011617068545292245907_">
			<use xlink:href="#SVGID_1_"  style="overflow:visible;"/>
		</clipPath>
		<g style="clip-path:url(#SVGID_00000028316258442488733500000011617068545292245907_);">
			<g>
				<defs>
					<rect id="SVGID_00000176033823741630652000000006119121081357090692_" x="23.5" y="134.1" width="136.4" height="92.1"/>
				</defs>
				<clipPath id="SVGID_00000003103691786043434180000012413144120361224066_">
					<use xlink:href="#SVGID_00000176033823741630652000000006119121081357090692_"  style="overflow:visible;"/>
				</clipPath>
				<g style="clip-path:url(#SVGID_00000003103691786043434180000012413144120361224066_);">
					<g>
						<g>
							<g>
								<path class="st2" d="M203.6,202.3v-0.4h-9.2v-6.3c3.3-1.2,6.2-2.6,8.8-4v-0.9c-2.6,1.4-5.6,2.8-8.8,4v-1
									c3.3-1.3,6.2-2.6,8.8-4.1v-0.9c-7.2,4-16.9,7.7-29.5,9.3c-0.3-0.3-0.8-0.5-1.3-0.5s-0.9,0.2-1.3,0.5
									c-19.4-2.4-32-9.9-39.2-15.9c-8.1-6.7-11.3-12.9-11.4-13l-0.7,0.3c0,0,1.1,2.1,3.6,5.2v1.2c-2.5-3.1-3.6-5.2-3.6-5.2
									l-0.7,0.3c0,0,1.3,2.5,4.3,6.1v24.8h-2v0.4h2v1.5h-2v1.6h82.1v-1.6h-1.1v-1.5L203.6,202.3L203.6,202.3z M194.2,201.9H189
									v-4.5c1.8-0.5,3.5-1.1,5.2-1.7V201.9z M134.4,187.1c1.6,1.1,3.3,2.2,5.2,3.4v11.4h-5.2V187.1z M134.2,201.9H129v-19.1
									c0.6,0.5,1.2,1,1.8,1.5c1,0.9,2.2,1.8,3.4,2.6V201.9z M183.4,198c-1.7,0.4-3.5,0.7-5.4,1.1v-0.9c1.9-0.3,3.7-0.7,5.4-1.1
									V198L183.4,198z M183.6,197.1c1.8-0.4,3.5-0.9,5.2-1.4v0.9c-1.6,0.5-3.4,0.9-5.2,1.4V197.1L183.6,197.1z M177.8,199.1
									c-1.1,0.2-2.2,0.3-3.4,0.5c0,0,0,0,0,0c0-0.3-0.1-0.5-0.2-0.8c1.2-0.2,2.4-0.3,3.6-0.5V199.1z M170.5,199.6
									c-1.1-0.1-2.2-0.3-3.3-0.5v-0.9c1.1,0.2,2.3,0.4,3.5,0.5C170.6,199,170.5,199.3,170.5,199.6
									C170.5,199.6,170.5,199.6,170.5,199.6z M166.9,199.1c-1.9-0.3-3.7-0.7-5.4-1.1v-0.9c1.7,0.4,3.5,0.8,5.4,1.1V199.1
									L166.9,199.1z M161.3,198c-1.8-0.4-3.5-0.9-5.2-1.4v-0.9c1.6,0.5,3.4,1,5.2,1.4V198L161.3,198z M156,196.6
									c-1.8-0.5-3.5-1.1-5.2-1.7v-1c1.6,0.6,3.4,1.2,5.2,1.8V196.6L156,196.6z M150.6,194.7c-1.9-0.7-3.6-1.4-5.2-2.2v-1
									c1.6,0.8,3.4,1.5,5.2,2.2V194.7L150.6,194.7z M145.1,192.4c-1.9-0.9-3.6-1.8-5.2-2.8v-1.1c1.6,0.9,3.4,1.9,5.2,2.8V192.4z
									 M139.7,189.5c-1.9-1.1-3.7-2.3-5.2-3.4V185c1.6,1.1,3.3,2.3,5.2,3.4V189.5z M139.9,190.5c1.6,0.9,3.4,1.8,5.2,2.7v8.6h-5.2
									V190.5z M145.3,193.3c1.6,0.8,3.4,1.5,5.2,2.2v6.3h-5.2V193.3L145.3,193.3z M150.8,195.6c1.6,0.6,3.4,1.2,5.2,1.7v4.5h-5.2
									V195.6z M156.2,197.4c1.6,0.5,3.4,0.9,5.2,1.3v3.1h-5.2V197.4z M161.6,198.8c1.7,0.4,3.5,0.7,5.4,1v2h-5.4V198.8z
									 M167.2,199.9c1.1,0.2,2.3,0.4,3.5,0.5c0.1,0.3,0.4,0.6,0.7,0.8h-0.7v0.7h-3.5V199.9z M173.5,201.2c0.3-0.2,0.5-0.5,0.7-0.8
									c1.2-0.1,2.4-0.3,3.6-0.5v2h-3.6v-0.7H173.5L173.5,201.2z M178,199.8c1.9-0.3,3.7-0.6,5.4-1v3.1H178V199.8z M183.6,198.7
									c1.8-0.4,3.5-0.9,5.2-1.3v4.4h-5.2V198.7z M194.2,194.8c-1.6,0.6-3.4,1.2-5.2,1.7v-0.9c1.8-0.6,3.5-1.1,5.2-1.8V194.8
									L194.2,194.8z M134.2,184.9v1.1c-1.1-0.8-2-1.5-2.9-2.3c-0.8-0.7-1.6-1.3-2.3-2v-1.2c0.8,0.7,1.6,1.5,2.5,2.2
									C132.3,183.4,133.2,184.1,134.2,184.9z M123.7,175c1.3,1.6,2.9,3.4,5,5.3v1.2c-2.1-1.9-3.7-3.7-5-5.3L123.7,175L123.7,175z
									 M123.7,177.4c1.3,1.6,3,3.3,5,5.1v19.4h-5L123.7,177.4L123.7,177.4z M124.1,203.7h-0.4v-1.5h0.4V203.7z M125.9,203.7h-1.4
									v-1.5h1.4V203.7z M127.8,203.7h-1.4v-1.5h1.4V203.7z M128.1,203.7v-1.5h0.6v1.5H128.1z M129.6,203.7h-0.6v-1.5h0.6V203.7z
									 M131.4,203.7h-1.4v-1.5h1.4V203.7z M133.2,203.7h-1.4v-1.5h1.4V203.7z M133.5,203.7v-1.5h0.6v1.5H133.5z M135,203.7h-0.6
									v-1.5h0.6V203.7z M136.8,203.7h-1.4v-1.5h1.4V203.7z M138.6,203.7h-1.4v-1.5h1.4V203.7z M139,203.7v-1.5h0.7v1.5H139z
									 M140.4,203.7h-0.6v-1.5h0.6V203.7z M142.2,203.7h-1.4v-1.5h1.4V203.7z M144,203.7h-1.4v-1.5h1.4V203.7z M144.4,203.7v-1.5
									h0.7v1.5H144.4z M145.8,203.7h-0.5v-1.5h0.5V203.7z M147.7,203.7h-1.4v-1.5h1.4V203.7z M149.5,203.7H148v-1.5h1.4V203.7z
									 M149.8,203.7v-1.5h0.7v1.5H149.8z M151.3,203.7h-0.5v-1.5h0.5V203.7z M153.1,203.7h-1.4v-1.5h1.4V203.7z M154.9,203.7h-1.4
									v-1.5h1.4V203.7z M155.3,203.7v-1.5h0.6v1.5H155.3z M156.7,203.7h-0.6v-1.5h0.6V203.7z M158.5,203.7h-1.4v-1.5h1.4V203.7z
									 M160.3,203.7h-1.4v-1.5h1.4V203.7z M160.7,203.7v-1.5h0.6v1.5H160.7z M162.1,203.7h-0.6v-1.5h0.6V203.7z M163.9,203.7h-1.4
									v-1.5h1.4V203.7z M165.8,203.7h-1.4v-1.5h1.4V203.7z M166.1,203.7v-1.5h0.8v1.5H166.1z M167.7,203.7h-0.6v-1.5h0.6V203.7z
									 M169.5,203.7h-1.4v-1.5h1.4V203.7z M169.9,202.2h0.7v1.5h-0.7V202.2z M174.9,203.7h-0.8v-1.5h0.8V203.7z M176.7,203.7h-1.4
									v-1.5h1.4V203.7z M177.1,203.7v-1.5h0.6v1.5H177.1z M178.5,203.7H178v-1.5h0.6V203.7z M180.3,203.7h-1.4v-1.5h1.4V203.7z
									 M182.2,203.7h-1.4v-1.5h1.4V203.7z M182.5,203.7v-1.5h0.8v1.5H182.5z M184,203.7h-0.4v-1.5h0.4V203.7z M185.8,203.7h-1.4
									v-1.5h1.4V203.7z M187.6,203.7h-1.4v-1.5h1.4V203.7z M187.9,203.7v-1.5h0.8v1.5H187.9z M189.4,203.7h-0.5v-1.5h0.5V203.7z
									 M191.2,203.7h-1.4v-1.5h1.4V203.7z M193,203.7h-1.4v-1.5h1.4V203.7z M193.4,203.7v-1.5h0.7v1.5H193.4z M194.8,203.7h-0.5
									v-1.5h0.5V203.7z M196.6,203.7h-1.4v-1.5h1.4V203.7z M198.4,203.7H197v-1.5h1.4V203.7z M200.3,203.7h-1.4v-1.5h1.4V203.7z
									 M202.1,203.7h-1.4v-1.5h1.4V203.7z"/>
								<circle class="st3" cx="172.4" cy="199.6" r="1.1"/>
							</g>
							<path class="st2" d="M-38,202.3v1.5h-1v1.6h82.1v-1.6h-2v-1.5h2v-0.4h-2v-24.8c3-3.5,4.3-6,4.3-6.1l-0.7-0.3
								c0,0-1.1,2.2-3.6,5.2v-1.2c2.5-3,3.5-5.1,3.5-5.2l-0.7-0.3c0,0.1-3.3,6.3-11.4,13c-7.2,6-19.8,13.4-39.2,15.9
								c-0.3-0.3-0.8-0.5-1.3-0.5s-0.9,0.2-1.3,0.5c-12.6-1.6-22.3-5.3-29.5-9.3v0.9c2.6,1.4,5.6,2.8,8.8,4.1v1
								c-3.3-1.2-6.2-2.6-8.8-4v0.9c2.6,1.4,5.6,2.8,8.8,4v6.3H-39v0.4L-38,202.3L-38,202.3z M-29.6,195.6c1.6,0.6,3.4,1.2,5.2,1.7
								v4.5h-5.2V195.6z M30.1,201.9h-5.2v-11.4c1.9-1.1,3.7-2.2,5.2-3.4V201.9z M30.3,186.9c1.3-0.9,2.4-1.8,3.5-2.6
								c0.6-0.5,1.2-1,1.8-1.5v19.1h-5.2V186.9z M-18.9,197.1c1.7,0.4,3.5,0.8,5.4,1.1v0.9c-1.9-0.3-3.7-0.6-5.4-1.1V197.1
								L-18.9,197.1z M-19.1,198c-1.8-0.4-3.5-0.9-5.2-1.4v-0.9c1.6,0.5,3.4,1,5.2,1.4V198L-19.1,198z M-13.3,198.2
								c1.2,0.2,2.4,0.4,3.6,0.5c-0.1,0.2-0.2,0.5-0.2,0.8c0,0,0,0,0,0c-1.2-0.1-2.3-0.3-3.4-0.5V198.2z M-6,199.6
								c0-0.3-0.1-0.6-0.2-0.8c1.2-0.1,2.3-0.3,3.5-0.5v0.9C-3.7,199.3-4.8,199.4-6,199.6C-6,199.6-6,199.6-6,199.6z M-2.4,198.2
								c1.9-0.3,3.7-0.7,5.4-1.1v0.9c-1.7,0.4-3.5,0.7-5.4,1.1V198.2L-2.4,198.2z M3.2,197.1c1.8-0.4,3.5-0.9,5.2-1.4v0.9
								c-1.7,0.5-3.4,0.9-5.2,1.4L3.2,197.1L3.2,197.1z M8.6,195.6c1.8-0.6,3.5-1.1,5.2-1.8v1c-1.6,0.6-3.4,1.2-5.2,1.7V195.6
								L8.6,195.6z M14,193.7c1.9-0.7,3.6-1.5,5.2-2.2v1c-1.6,0.8-3.4,1.5-5.2,2.2L14,193.7L14,193.7z M19.4,191.4
								c1.9-0.9,3.6-1.8,5.2-2.8v1.1c-1.6,0.9-3.4,1.9-5.2,2.8V191.4z M24.9,188.5c1.9-1.1,3.7-2.3,5.2-3.4v1.1
								c-1.6,1.1-3.3,2.3-5.2,3.4V188.5z M24.7,201.8h-5.2v-8.6c1.9-0.9,3.6-1.8,5.2-2.7V201.8L24.7,201.8z M19.2,201.8H14v-6.3
								c1.9-0.7,3.6-1.4,5.2-2.2V201.8L19.2,201.8z M13.7,201.8H8.6v-4.5c1.8-0.5,3.5-1.1,5.2-1.7V201.8z M8.4,201.8H3.2v-3.1
								c1.8-0.4,3.5-0.9,5.2-1.3L8.4,201.8L8.4,201.8z M3,201.8h-5.4v-2c1.9-0.3,3.7-0.6,5.4-1L3,201.8L3,201.8z M-2.6,201.8h-3.5
								v-0.7h-0.7c0.3-0.2,0.6-0.5,0.7-0.8c1.2-0.1,2.3-0.3,3.5-0.5C-2.6,199.9-2.6,201.8-2.6,201.8z M-9.7,201.2v0.7h-3.6v-2
								c1.2,0.2,2.4,0.4,3.6,0.5c0.1,0.3,0.4,0.6,0.7,0.8H-9.7L-9.7,201.2z M-13.5,201.8h-5.4v-3.1c1.7,0.4,3.5,0.7,5.4,1
								C-13.5,199.8-13.5,201.8-13.5,201.8z M-19.1,201.8h-5.2v-4.4c1.6,0.5,3.4,0.9,5.2,1.3V201.8z M-29.6,193.8
								c1.6,0.6,3.4,1.2,5.2,1.8v0.9c-1.8-0.5-3.5-1.1-5.2-1.7V193.8L-29.6,193.8z M33.1,182.7c0.9-0.8,1.8-1.5,2.5-2.2v1.2
								c-0.7,0.7-1.5,1.3-2.3,2c-0.9,0.7-1.9,1.5-2.9,2.3v-1.1C31.3,184.1,32.2,183.4,33.1,182.7z M40.8,176.2c-1.3,1.6-3,3.4-5,5.3
								v-1.2c2-1.9,3.7-3.8,5-5.3V176.2L40.8,176.2z M40.8,201.8h-5v-19.4c2-1.8,3.7-3.6,5-5.1V201.8L40.8,201.8z M40.4,202.2h0.4
								v1.5h-0.4V202.2z M38.6,202.2h1.5v1.5h-1.5V202.2z M36.8,202.2h1.5v1.5h-1.5V202.2z M35.8,203.7v-1.5h0.6v1.5H35.8z
								 M35,202.2h0.6v1.5H35V202.2z M33.2,202.2h1.5v1.5h-1.5V202.2z M31.4,202.2h1.4v1.5h-1.5C31.3,203.7,31.3,202.2,31.4,202.2z
								 M30.4,203.7v-1.5H31v1.5H30.4z M29.5,202.2h0.6v1.5h-0.6V202.2z M27.7,202.2h1.5v1.5h-1.5V202.2z M25.9,202.2h1.5v1.5h-1.5
								V202.2z M24.9,203.7v-1.5h0.7v1.5H24.9z M24.1,202.2h0.6v1.5h-0.6V202.2z M22.3,202.2h1.5v1.5h-1.5V202.2z M20.5,202.2h1.5
								v1.5h-1.5V202.2z M19.4,203.7v-1.5h0.7v1.5H19.4z M18.7,202.2h0.5v1.5h-0.5V202.2z M16.9,202.2h1.5v1.5h-1.5V202.2z
								 M15.1,202.2h1.5v1.5h-1.4C15.1,203.7,15.1,202.2,15.1,202.2z M14,203.7v-1.5h0.7v1.5H14z M13.3,202.2h0.5v1.5h-0.5V202.2z
								 M11.4,202.2h1.4v1.5h-1.4V202.2z M9.6,202.2h1.4v1.5H9.6V202.2z M8.6,203.7v-1.5h0.6v1.5H8.6z M7.8,202.2h0.6v1.5H7.8
								C7.8,203.7,7.8,202.2,7.8,202.2z M6,202.2h1.5v1.5H6C6,203.7,6,202.2,6,202.2z M4.2,202.2h1.4v1.5H4.2V202.2z M3.2,203.7
								v-1.5h0.6v1.5H3.2z M2.4,202.2H3v1.5H2.4V202.2z M0.6,202.2H2v1.5H0.6L0.6,202.2L0.6,202.2z M-1.2,202.2h1.4v1.5h-1.4
								L-1.2,202.2L-1.2,202.2z M-2.4,203.7v-1.5h0.8v1.5H-2.4z M-3.2,202.2h0.6v1.5h-0.6V202.2z M-5,202.2h1.5v1.5H-5V202.2z
								 M-5.4,203.7h-0.7v-1.5h0.7C-5.4,202.2-5.4,203.7-5.4,203.7z M-10.4,202.2h0.8v1.5h-0.8V202.2z M-12.2,202.2h1.4v1.5h-1.4
								V202.2z M-13.2,203.7v-1.5h0.6v1.5H-13.2z M-14,202.2h0.6v1.5H-14V202.2z M-15.8,202.2h1.4v1.5h-1.4V202.2z M-17.6,202.2h1.5
								v1.5h-1.5V202.2z M-18.8,203.7v-1.5h0.8v1.5H-18.8z M-19.4,202.2h0.4v1.5h-0.4V202.2z M-21.3,202.2h1.5v1.5h-1.5V202.2z
								 M-23.1,202.2h1.5v1.5h-1.5V202.2z M-24.2,203.7v-1.5h0.8v1.5H-24.2z M-24.9,202.2h0.5v1.5h-0.5V202.2z M-26.7,202.2h1.5v1.5
								h-1.5V202.2z M-28.5,202.2h1.5v1.5h-1.5V202.2z M-29.6,203.7v-1.5h0.7v1.5H-29.6z M-30.3,202.2h0.5v1.5h-0.5V202.2z
								 M-32.1,202.2h1.5v1.5h-1.5V202.2z M-33.9,202.2h1.5v1.5h-1.5V202.2z M-35.7,202.2h1.5v1.5h-1.5V202.2z M-37.6,202.2h1.5v1.5
								h-1.5V202.2z"/>
						</g>
						<g>
							<g>
								<g>
									
										<rect x="63.6" y="164.9" transform="matrix(0.7071 -0.7071 0.7071 0.7071 -97.3596 95.2067)" class="st2" width="5.3" height="0.4"/>
									
										<rect x="66" y="162.5" transform="matrix(0.7071 -0.7071 0.7071 0.7071 -97.3479 95.2118)" class="st2" width="0.4" height="5.3"/>
								</g>
								<g>
									
										<rect x="59.9" y="164.9" transform="matrix(0.7071 -0.7071 0.7071 0.7071 -98.449 92.5758)" class="st2" width="5.3" height="0.4"/>
									
										<rect x="62.3" y="162.5" transform="matrix(0.7071 -0.7071 0.7071 0.7071 -98.4479 92.577)" class="st2" width="0.4" height="5.3"/>
								</g>
								<g>
									
										<rect x="56.1" y="164.9" transform="matrix(0.7071 -0.7071 0.7071 0.7071 -99.5384 89.9449)" class="st2" width="5.3" height="0.4"/>
									
										<rect x="58.6" y="162.5" transform="matrix(0.7071 -0.7071 0.7071 0.7071 -99.5279 89.9505)" class="st2" width="0.4" height="5.3"/>
								</g>
							</g>
							<g>
								<g>
									
										<rect x="74.8" y="164.9" transform="matrix(0.7071 -0.7071 0.7071 0.7071 -94.0667 103.1524)" class="st2" width="5.3" height="0.4"/>
									
										<rect x="77.3" y="162.5" transform="matrix(0.7071 -0.7071 0.7071 0.7071 -94.0579 103.1588)" class="st2" width="0.4" height="5.3"/>
								</g>
								<g>
									
										<rect x="71.1" y="164.9" transform="matrix(0.7071 -0.7071 0.7071 0.7071 -95.1531 100.5286)" class="st2" width="5.3" height="0.4"/>
									
										<rect x="73.6" y="162.5" transform="matrix(0.7071 -0.7071 0.7071 0.7071 -95.155 100.5311)" class="st2" width="0.4" height="5.3"/>
								</g>
								<g>
									
										<rect x="67.4" y="164.9" transform="matrix(0.7071 -0.7071 0.7071 0.7071 -96.2454 97.8907)" class="st2" width="5.3" height="0.4"/>
									
										<rect x="69.8" y="162.5" transform="matrix(0.7071 -0.7071 0.7071 0.7071 -96.2379 97.8975)" class="st2" width="0.4" height="5.3"/>
								</g>
							</g>
							<g>
								<g>
									
										<rect x="92.1" y="162.5" transform="matrix(0.7071 -0.7071 0.7071 0.7071 -89.7348 113.6167)" class="st2" width="0.4" height="5.3"/>
									
										<rect x="89.6" y="164.9" transform="matrix(0.7071 -0.7071 0.7071 0.7071 -89.7258 113.623)" class="st2" width="5.3" height="0.4"/>
								</g>
								<g>
									
										<rect x="95.8" y="162.4" transform="matrix(0.7071 -0.7071 0.7071 0.7071 -88.6316 116.247)" class="st2" width="0.4" height="5.3"/>
									
										<rect x="93.4" y="164.9" transform="matrix(0.7071 -0.7071 0.7071 0.7071 -88.639 116.26)" class="st2" width="5.3" height="0.4"/>
								</g>
								<g>
									
										<rect x="99.5" y="162.5" transform="matrix(0.7071 -0.7071 0.7071 0.7071 -87.5495 118.8802)" class="st2" width="0.4" height="5.3"/>
									
										<rect x="97.1" y="164.9" transform="matrix(0.7071 -0.7071 0.7071 0.7071 -87.5492 118.89)" class="st2" width="5.3" height="0.4"/>
								</g>
							</g>
							<g>
								<g>
									
										<rect x="103.3" y="162.5" transform="matrix(0.7071 -0.7071 0.7071 0.7071 -86.4347 121.5738)" class="st2" width="0.4" height="5.3"/>
									
										<rect x="100.9" y="164.9" transform="matrix(0.7071 -0.7071 0.7071 0.7071 -86.4329 121.5829)" class="st2" width="5.3" height="0.4"/>
								</g>
								<g>
									
										<rect x="107" y="162.5" transform="matrix(0.7071 -0.7071 0.7071 0.7071 -85.3456 124.204)" class="st2" width="0.4" height="5.3"/>
									
										<rect x="104.6" y="164.9" transform="matrix(0.7071 -0.7071 0.7071 0.7071 -85.3431 124.213)" class="st2" width="5.3" height="0.4"/>
								</g>
								<g>
									
										<rect x="110.8" y="162.5" transform="matrix(0.7071 -0.7071 0.7071 0.7071 -84.2565 126.8343)" class="st2" width="0.4" height="5.3"/>
									
										<rect x="108.3" y="164.9" transform="matrix(0.7071 -0.7071 0.7071 0.7071 -84.2534 126.8429)" class="st2" width="5.3" height="0.4"/>
								</g>
							</g>
							<g>
								<g>
									
										<rect x="81" y="162.5" transform="matrix(0.7071 -0.7071 0.7071 0.7071 -92.9829 105.7632)" class="st2" width="0.4" height="5.3"/>
									
										<rect x="78.5" y="164.9" transform="matrix(0.7071 -0.7071 0.7071 0.7071 -92.9823 105.7729)" class="st2" width="5.3" height="0.4"/>
								</g>
								<g>
									
										<rect x="84.7" y="162.5" transform="matrix(0.7071 -0.7071 0.7071 0.7071 -91.8938 108.3935)" class="st2" width="0.4" height="5.3"/>
									
										<rect x="82.2" y="164.9" transform="matrix(0.7071 -0.7071 0.7071 0.7071 -91.8926 108.403)" class="st2" width="5.3" height="0.4"/>
								</g>
								<g>
									
										<rect x="88.4" y="162.5" transform="matrix(0.7071 -0.7071 0.7071 0.7071 -90.8047 111.0238)" class="st2" width="0.4" height="5.3"/>
									
										<rect x="86" y="164.9" transform="matrix(0.7071 -0.7071 0.7071 0.7071 -90.8028 111.0329)" class="st2" width="5.3" height="0.4"/>
								</g>
							</g>
							<rect x="57.9" y="162.7" class="st2" width="48.8" height="0.8"/>
							<rect x="57.9" y="166.7" class="st2" width="48.8" height="0.8"/>
						</g>
						<polygon class="st4" points="51.3,142.9 46.4,157.6 56.2,157.6 						"/>
						<polygon class="st4" points="54.9,151.8 55.1,151.8 59,151.8 59.2,151.8 59.2,153.2 58.8,153.2 58.8,208.2 55.3,208.2 
							55.3,153.2 54.9,153.2 						"/>
						<polygon class="st4" points="57,146.4 55.3,151.9 58.8,151.9 						"/>
						<rect x="45.9" y="156.7" class="st4" width="10.5" height="51.4"/>
						<g>
							<rect x="47.9" y="174.1" class="st3" width="6.5" height="3.4"/>
							<g>
								<rect x="52.7" y="174.4" class="st2" width="1.5" height="2.8"/>
								<rect x="50.5" y="174.4" class="st2" width="1.5" height="2.8"/>
								<rect x="48.3" y="174.4" class="st2" width="1.5" height="2.8"/>
							</g>
						</g>
						<g>
							<rect x="47.9" y="184.5" class="st3" width="6.5" height="3.4"/>
							<g>
								<rect x="52.7" y="184.8" class="st2" width="1.5" height="2.8"/>
								<rect x="50.5" y="184.8" class="st2" width="1.5" height="2.8"/>
								<rect x="48.3" y="184.8" class="st2" width="1.5" height="2.8"/>
							</g>
						</g>
						<polygon class="st3" points="51.3,150.1 53.6,152.1 53.6,157 49,157 49,152.1 						"/>
						<g>
							<rect x="49.7" y="154.3" class="st2" width="1.5" height="2.1"/>
							<rect x="49.7" y="152.5" class="st2" width="1.5" height="1.5"/>
						</g>
						<g>
							<rect x="51.5" y="154.3" class="st2" width="1.5" height="2.1"/>
							<rect x="51.5" y="152.5" class="st2" width="1.5" height="1.5"/>
						</g>
						<polygon class="st4" points="43.2,151.8 43.4,151.8 47.3,151.8 47.5,151.8 47.5,153.2 47,153.2 47,208.2 43.6,208.2 
							43.6,153.2 43.2,153.2 						"/>
						<g>
							<rect x="43.4" y="160.6" class="st2" width="15.6" height="0.6"/>
							<g>
								<rect x="43.4" y="169.5" class="st2" width="15.6" height="0.6"/>
								<rect x="43.4" y="172.1" class="st2" width="15.6" height="0.6"/>
							</g>
							<g>
								<rect x="43.4" y="180.1" class="st2" width="15.6" height="0.6"/>
								<rect x="43.4" y="182.6" class="st2" width="15.6" height="0.6"/>
							</g>
							<g>
								<rect x="43.4" y="190.6" class="st2" width="15.6" height="0.6"/>
								<rect x="43.4" y="193.2" class="st2" width="15.6" height="0.6"/>
							</g>
						</g>
						<rect x="41.7" y="201.9" class="st5" width="19" height="14.1"/>
						<polygon class="st4" points="45.3,146.4 43.6,151.9 47,151.9 						"/>
						<g>
							<rect x="47.9" y="162.5" class="st3" width="6.5" height="5.7"/>
							<rect x="48.4" y="164.8" class="st2" width="1.5" height="3.1"/>
							<rect x="50.4" y="164.8" class="st2" width="1.5" height="3.1"/>
							<rect x="52.5" y="164.8" class="st2" width="1.5" height="3.1"/>
							<rect x="48.4" y="162.9" class="st2" width="1.5" height="1.5"/>
							<rect x="50.4" y="162.9" class="st2" width="1.5" height="1.5"/>
							<rect x="52.5" y="162.9" class="st2" width="1.5" height="1.5"/>
						</g>
						<g>
							<rect x="47.9" y="195" class="st3" width="6.5" height="5.7"/>
							<rect x="48.4" y="197.3" class="st2" width="1.5" height="3.1"/>
							<rect x="50.4" y="197.3" class="st2" width="1.5" height="3.1"/>
							<rect x="52.5" y="197.3" class="st2" width="1.5" height="3.1"/>
							<rect x="48.4" y="195.4" class="st2" width="1.5" height="1.5"/>
							<rect x="50.4" y="195.4" class="st2" width="1.5" height="1.5"/>
							<rect x="52.5" y="195.4" class="st2" width="1.5" height="1.5"/>
						</g>
						<path class="st2" d="M58.6,203.8v1.6h47.4v-1.6h-2.7v-1.5h2.7v-0.4H58.6v0.4h2.7v1.5H58.6z M101.5,202.2h1.4v1.5h-1.4V202.2z
							 M99.7,202.2h1.4v1.5h-1.4V202.2z M97.9,202.2h1.4v1.5h-1.4V202.2z M96,202.2h1.4v1.5H96V202.2z M94.2,202.2h1.4v1.5h-1.4
							V202.2z M92.4,202.2h1.4v1.5h-1.4V202.2z M90.6,202.2h1.4v1.5h-1.4V202.2z M88.8,202.2h1.4v1.5h-1.4V202.2z M87,202.2h1.4v1.5
							H87V202.2z M85.2,202.2h1.4v1.5h-1.4V202.2z M83.4,202.2h1.4v1.5h-1.4V202.2z M81.6,202.2H83v1.5h-1.4V202.2z M79.8,202.2h1.4
							v1.5h-1.4V202.2z M77.9,202.2h1.4v1.5h-1.4V202.2z M76.1,202.2h1.4v1.5h-1.4V202.2z M74.3,202.2h1.4v1.5h-1.4V202.2z
							 M72.5,202.2H74v1.5h-1.4V202.2z M70.7,202.2h1.4v1.5h-1.4V202.2z M68.9,202.2h1.4v1.5h-1.4V202.2z M67.1,202.2h1.4v1.5h-1.4
							V202.2z M65.3,202.2h1.4v1.5h-1.4V202.2z M63.5,202.2h1.5v1.5h-1.5V202.2z M61.7,202.2h1.5v1.5h-1.5V202.2z"/>
						
							<rect x="56.1" y="208" transform="matrix(0.9317 -0.3633 0.3633 0.9317 -71.2299 37.9112)" class="st2" width="18.2" height="0.6"/>
						
							<rect x="98.3" y="199.2" transform="matrix(0.3633 -0.9317 0.9317 0.3633 -131.3141 224.5417)" class="st2" width="0.6" height="18.2"/>
						<polygon class="st4" points="113.5,142.9 108.7,157.6 118.4,157.6 						"/>
						<polygon class="st4" points="117.2,151.8 117.4,151.8 121.2,151.8 121.5,151.8 121.5,153.2 121,153.2 121,208.2 117.6,208.2 
							117.6,153.2 117.2,153.2 						"/>
						<polygon class="st4" points="119.3,146.4 117.6,151.9 121,151.9 						"/>
						<rect x="108.2" y="156.7" class="st4" width="10.5" height="51.4"/>
						<g>
							<rect x="110.2" y="174.1" class="st3" width="6.5" height="3.4"/>
							<g>
								<rect x="114.9" y="174.4" class="st2" width="1.5" height="2.8"/>
								<rect x="112.7" y="174.4" class="st2" width="1.5" height="2.8"/>
								<rect x="110.6" y="174.4" class="st2" width="1.5" height="2.8"/>
							</g>
						</g>
						<g>
							<rect x="110.2" y="184.5" class="st3" width="6.5" height="3.4"/>
							<g>
								<rect x="114.9" y="184.8" class="st2" width="1.5" height="2.8"/>
								<rect x="112.7" y="184.8" class="st2" width="1.5" height="2.8"/>
								<rect x="110.6" y="184.8" class="st2" width="1.5" height="2.8"/>
							</g>
						</g>
						<polygon class="st3" points="113.5,150.1 115.9,152.1 115.9,157 111.2,157 111.2,152.1 						"/>
						<g>
							<rect x="111.9" y="154.3" class="st2" width="1.5" height="2.1"/>
							<rect x="111.9" y="152.5" class="st2" width="1.5" height="1.5"/>
						</g>
						<g>
							<rect x="113.8" y="154.3" class="st2" width="1.5" height="2.1"/>
							<rect x="113.8" y="152.5" class="st2" width="1.5" height="1.5"/>
						</g>
						<polygon class="st4" points="105.4,151.8 105.7,151.8 109.5,151.8 109.8,151.8 109.8,153.2 109.3,153.2 109.3,208.2 
							105.9,208.2 105.9,153.2 105.4,153.2 						"/>
						<g>
							<rect x="105.6" y="160.6" class="st2" width="15.6" height="0.6"/>
							<g>
								<rect x="105.6" y="169.5" class="st2" width="15.6" height="0.6"/>
								<rect x="105.6" y="172.1" class="st2" width="15.6" height="0.6"/>
							</g>
							<g>
								<rect x="105.6" y="180.1" class="st2" width="15.6" height="0.6"/>
								<rect x="105.6" y="182.6" class="st2" width="15.6" height="0.6"/>
							</g>
							<g>
								<rect x="105.6" y="190.6" class="st2" width="15.6" height="0.6"/>
								<rect x="105.6" y="193.2" class="st2" width="15.6" height="0.6"/>
							</g>
						</g>
						<polygon class="st4" points="107.6,146.4 105.9,151.9 109.3,151.9 						"/>
						<g>
							<rect x="110.2" y="162.5" class="st3" width="6.5" height="5.7"/>
							<rect x="110.6" y="164.8" class="st2" width="1.5" height="3.1"/>
							<rect x="112.7" y="164.8" class="st2" width="1.5" height="3.1"/>
							<rect x="114.7" y="164.8" class="st2" width="1.5" height="3.1"/>
							<rect x="110.6" y="162.9" class="st2" width="1.5" height="1.5"/>
							<rect x="112.7" y="162.9" class="st2" width="1.5" height="1.5"/>
							<rect x="114.7" y="162.9" class="st2" width="1.5" height="1.5"/>
						</g>
						<g>
							<rect x="110.2" y="195" class="st3" width="6.5" height="5.7"/>
							<rect x="110.6" y="197.3" class="st2" width="1.5" height="3.1"/>
							<rect x="112.7" y="197.3" class="st2" width="1.5" height="3.1"/>
							<rect x="114.7" y="197.3" class="st2" width="1.5" height="3.1"/>
							<rect x="110.6" y="195.4" class="st2" width="1.5" height="1.5"/>
							<rect x="112.7" y="195.4" class="st2" width="1.5" height="1.5"/>
							<rect x="114.7" y="195.4" class="st2" width="1.5" height="1.5"/>
						</g>
						<rect x="103.8" y="201.9" class="st5" width="19" height="14.1"/>
					</g>
				</g>
			</g>
		</g>
	</g>
	<g>
		<g>
			<rect x="8.8" y="158.2" class="st5" width="18.1" height="71.7"/>
			<path class="st6" d="M11.3,163.9c-0.3,0-0.6,0.3-0.6,0.6v63.6h1.1v-63.6C11.9,164.2,11.6,163.9,11.3,163.9L11.3,163.9z"/>
			<path class="st6" d="M13.5,163.9c-0.3,0-0.6,0.3-0.6,0.6v63.6H14v-63.6C14,164.2,13.8,163.9,13.5,163.9L13.5,163.9z"/>
			<path class="st6" d="M15.7,163.9c-0.3,0-0.6,0.3-0.6,0.6v63.6h1.1v-63.6C16.2,164.2,15.9,163.9,15.7,163.9L15.7,163.9z"/>
			<path class="st6" d="M17.8,163.9c-0.3,0-0.5,0.3-0.5,0.6v63.6h1.1v-63.6C18.4,164.2,18.1,163.9,17.8,163.9L17.8,163.9z"/>
			<path class="st6" d="M20,163.9c-0.3,0-0.5,0.3-0.5,0.6v63.6h1.1v-63.6C20.6,164.2,20.3,163.9,20,163.9L20,163.9z"/>
			<path class="st6" d="M22.2,163.9c-0.3,0-0.5,0.3-0.5,0.6v63.6h1.1v-63.6C22.7,164.2,22.5,163.9,22.2,163.9L22.2,163.9z"/>
			<path class="st6" d="M24.4,163.9c-0.3,0-0.5,0.3-0.5,0.6v63.6h1.1v-63.6C24.9,164.2,24.7,163.9,24.4,163.9L24.4,163.9z"/>
			<g>
				<rect x="8.8" y="173.5" class="st4" width="18.1" height="0.9"/>
				<rect x="8.8" y="176" class="st4" width="18.1" height="0.9"/>
			</g>
			<g>
				<rect x="8.8" y="186.6" class="st4" width="18.1" height="0.9"/>
				<rect x="8.8" y="189.1" class="st4" width="18.1" height="0.9"/>
			</g>
			<g>
				<rect x="8.8" y="199.8" class="st4" width="18.1" height="0.9"/>
				<rect x="8.8" y="202.2" class="st4" width="18.1" height="0.9"/>
			</g>
			<g>
				<rect x="8.8" y="212.9" class="st7" width="18.1" height="0.9"/>
				<rect x="8.8" y="215.4" class="st7" width="18.1" height="0.9"/>
			</g>
		</g>
		<g>
			<rect x="8.8" y="136" class="st5" width="18.1" height="6.4"/>
			<g>
				<path class="st6" d="M11.3,137.1c-0.3,0-0.6,0.3-0.6,0.6v4.8h1.1v-4.8C11.9,137.3,11.6,137.1,11.3,137.1L11.3,137.1z"/>
				<path class="st6" d="M13.2,137.1c-0.3,0-0.6,0.3-0.6,0.6v4.8h1.1v-4.8C13.7,137.3,13.5,137.1,13.2,137.1L13.2,137.1z"/>
				<path class="st6" d="M15,137.1c-0.3,0-0.6,0.3-0.6,0.6v4.8h1.1v-4.8C15.6,137.3,15.3,137.1,15,137.1L15,137.1z"/>
				<path class="st6" d="M16.9,137.1c-0.3,0-0.5,0.3-0.5,0.6v4.8h1.1v-4.8C17.5,137.3,17.2,137.1,16.9,137.1L16.9,137.1z"/>
				<path class="st6" d="M18.8,137.1c-0.3,0-0.5,0.3-0.5,0.6v4.8h1.1v-4.8C19.3,137.3,19.1,137.1,18.8,137.1L18.8,137.1z"/>
				<path class="st6" d="M20.6,137.1c-0.3,0-0.5,0.3-0.5,0.6v4.8h1.1v-4.8C21.2,137.3,20.9,137.1,20.6,137.1L20.6,137.1z"/>
				<path class="st6" d="M22.5,137.1c-0.3,0-0.5,0.3-0.5,0.6v4.8H23v-4.8C23,137.3,22.8,137.1,22.5,137.1L22.5,137.1z"/>
				<path class="st6" d="M24.4,137.1c-0.3,0-0.5,0.3-0.5,0.6v4.8h1.1v-4.8C24.9,137.3,24.7,137.1,24.4,137.1L24.4,137.1z"/>
			</g>
		</g>
		<g>
			<rect x="13.1" y="120.2" class="st5" width="9.6" height="5.6"/>
			<path class="st6" d="M15.2,121.9c-0.2,0-0.4,0.2-0.4,0.5v3.5h0.9v-3.5C15.6,122.1,15.4,121.9,15.2,121.9z"/>
			<path class="st6" d="M17,121.9c-0.2,0-0.5,0.2-0.5,0.5v3.5h0.9v-3.5C17.4,122.1,17.2,121.9,17,121.9z"/>
			<path class="st6" d="M18.7,121.9c-0.2,0-0.5,0.2-0.5,0.5v3.5h0.9v-3.5C19.2,122.1,19,121.9,18.7,121.9z"/>
			<path class="st6" d="M20.5,121.9c-0.2,0-0.5,0.2-0.5,0.5v3.5H21v-3.5C21,122.1,20.8,121.9,20.5,121.9z"/>
		</g>
		<g>
			<rect x="6.9" y="141.1" class="st4" width="21.8" height="20.8"/>
			<g>
				<rect x="8.2" y="143.2" class="st6" width="1.1" height="14.5"/>
				<rect x="10.7" y="141.9" class="st6" width="14.4" height="0.7"/>
				<rect x="26.4" y="141.9" class="st6" width="1.1" height="0.7"/>
				<rect x="8.2" y="141.8" class="st6" width="1.1" height="0.7"/>
				<rect x="8.2" y="158.6" class="st6" width="1.1" height="2.5"/>
				<rect x="26.5" y="143.2" class="st6" width="1.1" height="14.5"/>
				<rect x="26.5" y="158.6" class="st6" width="1.1" height="2.5"/>
			</g>
			<g>
				<rect x="10.6" y="143.2" class="st4" width="14.4" height="14.4"/>
				<circle class="st5" cx="17.8" cy="150.4" r="5.8"/>
				<circle class="st3" cx="17.8" cy="150.4" r="5.1"/>
				<path class="st4" d="M17.8,146.9c-1.9,0-3.5,1.6-3.5,3.5s1.6,3.5,3.5,3.5s3.5-1.6,3.5-3.5S19.8,146.9,17.8,146.9z M17.8,153.7
					c-1.8,0-3.3-1.5-3.3-3.3s1.5-3.3,3.3-3.3s3.3,1.5,3.3,3.3S19.7,153.7,17.8,153.7z"/>
				<polyline class="st8" points="17.7,148.2 17.7,150.8 18.9,151.8 				"/>
			</g>
			<g>
				<path class="st6" d="M11.3,158.5c-0.3,0-0.6,0.2-0.6,0.6v1.5c0,0.3,0.2,0.6,0.6,0.6s0.6-0.2,0.6-0.6v-1.5
					C11.9,158.8,11.6,158.5,11.3,158.5z"/>
				<path class="st6" d="M12.9,158.5c-0.3,0-0.6,0.2-0.6,0.6v1.5c0,0.3,0.2,0.6,0.6,0.6s0.6-0.2,0.6-0.6v-1.5
					C13.5,158.8,13.2,158.5,12.9,158.5z"/>
				<path class="st6" d="M14.6,158.5c-0.3,0-0.6,0.2-0.6,0.6v1.5c0,0.3,0.2,0.6,0.6,0.6s0.6-0.2,0.6-0.6v-1.5
					C15.1,158.8,14.9,158.5,14.6,158.5z"/>
				<path class="st6" d="M16.2,158.5c-0.3,0-0.6,0.2-0.6,0.6v1.5c0,0.3,0.2,0.6,0.6,0.6c0.3,0,0.5-0.2,0.5-0.6v-1.5
					C16.8,158.8,16.5,158.5,16.2,158.5z"/>
				<path class="st6" d="M17.8,158.5c-0.3,0-0.5,0.2-0.5,0.6v1.5c0,0.3,0.2,0.6,0.5,0.6s0.5-0.2,0.5-0.6v-1.5
					C18.4,158.8,18.1,158.5,17.8,158.5z"/>
				<path class="st6" d="M19.5,158.5c-0.3,0-0.5,0.2-0.5,0.6v1.5c0,0.3,0.2,0.6,0.5,0.6s0.5-0.2,0.5-0.6v-1.5
					C20,158.8,19.8,158.5,19.5,158.5z"/>
				<path class="st6" d="M21.1,158.5c-0.3,0-0.5,0.2-0.5,0.6v1.5c0,0.3,0.2,0.6,0.5,0.6s0.5-0.2,0.5-0.6v-1.5
					C21.6,158.8,21.4,158.5,21.1,158.5z"/>
				<path class="st6" d="M22.7,158.5c-0.3,0-0.5,0.2-0.5,0.6v1.5c0,0.3,0.2,0.6,0.5,0.6s0.5-0.2,0.5-0.6v-1.5
					C23.3,158.8,23,158.5,22.7,158.5z"/>
				<path class="st6" d="M24.4,158.5c-0.3,0-0.5,0.2-0.5,0.6v1.5c0,0.3,0.2,0.6,0.5,0.6s0.5-0.2,0.5-0.6v-1.5
					C24.9,158.8,24.7,158.5,24.4,158.5z"/>
			</g>
		</g>
		<path class="st4" d="M26.5,133.6h-1c-1-1.1-2.4-3.4-2.8-7h0.5v-1H12.5v1H13c-0.4,3.6-1.9,5.8-2.8,7h-2v2.6h19.3v-2.6H26.5
			L26.5,133.6z"/>
		<path class="st4" d="M22.4,119.4c-2.1-4.1-4.5-19.6-4.5-19.6s-2.4,15.5-4.5,19.6l-0.5,0h-0.3v1h10.6v-1h-0.3L22.4,119.4
			L22.4,119.4z"/>
	</g>
	<g>
		<g>
			<path class="st5" d="M87.2,150.9c-2.7,0-4.8,2.1-4.8,4.7v6.5c0,2.6,2.2,3.7,4.8,3.7s4.8-1.1,4.8-3.7v-6.5
				C92,153,89.9,150.9,87.2,150.9z"/>
			<path class="st3" d="M84.9,168.7c0.7-0.4,1.2-1.1,1-2.4l2.7-0.1c-0.2,0-0.1,1-0.1,1.1c0.1,0.5,0.4,1,0.8,1.2
				c0.1,0,0.1,0.1,0.2,0.1C89.5,168.6,87.6,170,84.9,168.7L84.9,168.7z"/>
			<g>
				<path class="st3" d="M90.9,163.4c0-0.9-0.6-0.8-0.8-0.7c-0.2-2.1-1.3-2.2-2.8-2.2c-1.5,0-2.8-0.1-3,2.2
					c-0.2-0.1-0.8-0.3-0.8,0.7c0,0.9,0.6,1,0.9,1c0.2,1.7,0.8,3.4,2.8,3.4c2.1,0,2.8-1.8,2.9-3.4C90.4,164.3,90.9,164.2,90.9,163.4
					L90.9,163.4z"/>
				<path class="st5" d="M87.3,160c-1.6,0-3-0.1-3,2.7c0,1.9,0.5,4.4,2.9,4.5c2.5,0,3-2.6,3-4.4C90.1,160.1,88.9,160,87.3,160z
					 M87.2,166.8c-2.2-0.1-2.6-2.3-2.6-4.1c0-2.6,1.3-2.5,2.7-2.5c1.5,0,2.6,0.1,2.6,2.5C89.9,164.4,89.5,166.8,87.2,166.8
					L87.2,166.8z"/>
			</g>
			<path class="st2" d="M83.3,163.1h7.8c0,0-0.2-4.3-3.9-4.3S83.3,163.1,83.3,163.1z"/>
		</g>
		<g>
			<path class="st5" d="M83.3,210.4C83.3,210.4,83.3,210.4,83.3,210.4l-2.1,0.8c0,0-1.2,0.4-1,0.9h6.1l0-1.5L83.3,210.4L83.3,210.4z
				"/>
			<path class="st5" d="M92.3,185h-10c0,0-1.1,5.5,0.6,17.3c0,0,0.6,5.8,0.5,7.6l3.2,0.1c0-1.2,0.1-5.5,0.2-10.6
				c0,0,0.1-4.6,0.5-8.8c0.4,4.2,0.5,8.8,0.5,8.8c0.1,5.2,0.1,9.4,0.2,10.6l3.2-0.1c-0.2-1.8,0.5-7.6,0.5-7.6
				C93.4,190.6,92.2,185,92.3,185L92.3,185z"/>
			<path class="st5" d="M93.3,211.1l-2.1-0.8c0,0,0,0,0,0l-3.1,0.1l0,1.5h6.1C94.5,211.5,93.3,211.1,93.3,211.1L93.3,211.1z"/>
		</g>
		<g>
			<g>
				<path class="st4" d="M81.1,190.5c0.2,0.1,0.3,0.3,0.4,0.4c0.1,0,0.3,0,0.3-0.1c0.1-0.1,0-0.2,0-0.3c-0.3-0.6-0.9-1.6-1.7-1.6
					c-0.2,0-1.4,0.5-1.4,0.5c0.1,0.3,0,0.9,0,0.9c-0.1,1.2,0.8,2.2,0.8,2.2c0.2,0.2,0.6,0.5,0.8,0.6c0.2,0.1,0.5,0.2,0.8,0.2
					s0.5-0.2,0.6-0.4c0.1-0.2,0-0.4-0.1-0.6s-0.2-0.4-0.4-0.6c-0.1-0.2-0.9-1.3-0.5-1.3C80.9,190.3,81,190.4,81.1,190.5L81.1,190.5z
					"/>
				<path class="st4" d="M81,170.7c0,0-5.5,8.7-2.4,18.9l2.5-0.4c0,0-2.9-10,1.4-14.5L81,170.7z"/>
				<path class="st5" d="M78,187c0.2,0.9,0.4,1.7,0.6,2.6l2.5-0.4c0,0-0.3-1-0.6-2.5C80.6,186.7,78,187,78,187z"/>
			</g>
			<g>
				<path class="st4" d="M93.5,190.5c-0.2,0.1-0.3,0.3-0.4,0.4c-0.1,0-0.3,0-0.3-0.1c-0.1-0.1,0-0.2,0-0.3c0.3-0.6,0.9-1.6,1.7-1.6
					c0.2,0,1.4,0.5,1.4,0.5c-0.1,0.3,0,0.9,0,0.9c0.1,1.2-0.8,2.2-0.8,2.2c-0.2,0.2-0.6,0.5-0.8,0.6c-0.2,0.1-0.5,0.2-0.8,0.2
					s-0.5-0.2-0.6-0.4c-0.1-0.2,0-0.4,0.1-0.6s0.2-0.4,0.4-0.6c0.1-0.2,0.9-1.3,0.5-1.3C93.7,190.3,93.6,190.4,93.5,190.5
					L93.5,190.5z"/>
				<path class="st4" d="M93.4,170.7c0,0,5.7,8.7,2.5,18.9l-2.5-0.4c0,0,2.7-10-1.6-14.5C91.9,174.8,93.4,170.7,93.4,170.7z"/>
				<path class="st5" d="M94,186.7c-0.2,1.5-0.5,2.5-0.5,2.5l2.5,0.4c0.3-0.9,0.5-1.7,0.6-2.6L94,186.7L94,186.7z"/>
			</g>
			<g>
				<g>
					<path class="st4" d="M92.1,180.5l1.1,7.9l-4.7,0.9h-2.2l-5-0.9l1.3-7.9l-1.5-9.9c0.5-0.6,1.2-0.9,1.8-1.2l2.2-1h4.3l2.2,1
						c0.1,0.1,1.4,0.6,1.8,1.2L92.1,180.5L92.1,180.5z"/>
					<polygon class="st3" points="92.2,181.8 92.1,180.5 82.5,180.5 82.3,181.8 					"/>
					<rect x="87.1" y="168.5" class="st3" width="0.4" height="20.8"/>
				</g>
				<path class="st2" d="M85.1,168.5c0,0,0.5,0.5,2.2,0.5s2.1-0.5,2.1-0.5l-0.5-0.7c0,0-1.4,0.8-3.3,0L85.1,168.5L85.1,168.5z"/>
				<g>
					<path class="st3" d="M88.3,170.1c0,0.1-0.1,0.3-0.3,0.3s-0.3-0.1-0.3-0.3s0.1-0.3,0.3-0.3S88.3,169.9,88.3,170.1z"/>
					<path class="st3" d="M88.3,171.4c0,0.1-0.1,0.3-0.3,0.3s-0.3-0.1-0.3-0.3s0.1-0.3,0.3-0.3S88.3,171.3,88.3,171.4z"/>
					<path class="st3" d="M88.3,172.8c0,0.1-0.1,0.3-0.3,0.3s-0.3-0.1-0.3-0.3s0.1-0.3,0.3-0.3S88.3,172.6,88.3,172.8z"/>
					<path class="st3" d="M88.3,174.2c0,0.1-0.1,0.3-0.3,0.3s-0.3-0.1-0.3-0.3s0.1-0.3,0.3-0.3S88.3,174,88.3,174.2z"/>
					<path class="st3" d="M88.3,175.5c0,0.1-0.1,0.3-0.3,0.3s-0.3-0.1-0.3-0.3s0.1-0.3,0.3-0.3S88.3,175.4,88.3,175.5z"/>
					<path class="st3" d="M88.3,176.9c0,0.1-0.1,0.3-0.3,0.3s-0.3-0.1-0.3-0.3s0.1-0.3,0.3-0.3S88.3,176.7,88.3,176.9z"/>
					<path class="st3" d="M88.3,178.3c0,0.1-0.1,0.3-0.3,0.3s-0.3-0.1-0.3-0.3s0.1-0.3,0.3-0.3S88.3,178.1,88.3,178.3z"/>
					<path class="st3" d="M88.3,179.6c0,0.1-0.1,0.3-0.3,0.3s-0.3-0.1-0.3-0.3s0.1-0.3,0.3-0.3S88.3,179.5,88.3,179.6z"/>
				</g>
				<path class="st5" d="M86.2,180.4h2.1c0.2,0,0.4,0.2,0.4,0.4v0.7c0,0.2-0.2,0.4-0.4,0.4h-2.1c-0.2,0-0.4-0.2-0.4-0.4v-0.7
					C85.8,180.6,86,180.4,86.2,180.4z"/>
			</g>
		</g>
	</g>
	<g>
		<path class="st2" d="M276.9,170.4c0,0,2.7-3.6,9-3.6s9,3.6,9,3.6l-0.8,0.6h-16.4L276.9,170.4z"/>
		<path class="st4" d="M277.7,170.9v3.7h16.4v-3.7c0,0-2.5-3.3-8.2-3.3S277.7,170.9,277.7,170.9L277.7,170.9z"/>
		<g>
			<rect x="277.1" y="174" class="st4" width="17.6" height="39.6"/>
			<polygon class="st3" points="278.7,176 278.7,213.6 279.1,213.6 279.1,176.3 292.7,176.3 292.7,213.6 293,213.6 293,176 			"/>
			<g>
				<rect x="283.5" y="186.6" class="st3" width="4.7" height="4.1"/>
				<rect x="283.5" y="195.9" class="st3" width="4.7" height="4.1"/>
				<rect x="281" y="191.3" class="st3" width="2.1" height="4.1"/>
				<rect x="283.5" y="191.3" class="st3" width="4.7" height="4.1"/>
				<rect x="281" y="186.6" class="st3" width="2.1" height="4.1"/>
				<rect x="281" y="182" class="st3" width="2.1" height="4.1"/>
				<rect x="283.5" y="205.1" class="st3" width="4.7" height="3.4"/>
				<rect x="283.5" y="200.5" class="st3" width="4.7" height="4.1"/>
				<rect x="283.5" y="182" class="st3" width="4.7" height="4.1"/>
				<rect x="283.5" y="178.1" class="st3" width="4.7" height="3.4"/>
				<rect x="288.7" y="178.1" class="st3" width="2.1" height="3.4"/>
				<rect x="281" y="195.9" class="st3" width="2.1" height="4.1"/>
				<rect x="288.7" y="182" class="st3" width="2.1" height="4.1"/>
				<rect x="281" y="178.1" class="st3" width="2.1" height="3.4"/>
				<rect x="288.7" y="205.1" class="st3" width="2.1" height="3.4"/>
				<rect x="281" y="205.1" class="st3" width="2.1" height="3.4"/>
				<rect x="288.7" y="186.6" class="st3" width="2.1" height="4.1"/>
				<rect x="288.7" y="200.5" class="st3" width="2.1" height="4.1"/>
				<rect x="281" y="200.5" class="st3" width="2.1" height="4.1"/>
				<rect x="288.7" y="195.9" class="st3" width="2.1" height="4.1"/>
				<rect x="288.7" y="191.3" class="st3" width="2.1" height="4.1"/>
			</g>
		</g>
		<path class="st9" d="M285.9,169.4c0.1,0,0.2,0.1,0.2,0.2v0.4c0.1,0,0.1,0,0.2-0.1c0-0.1,0.1-0.1,0.1-0.1c0.1,0,0.1,0,0.1,0.1
			c0,0,0,0,0.1,0c0-0.1,0.1-0.1,0.1-0.1c0.1,0,0.1,0,0.1,0.1h0c0,0,0,0,0.1,0c0-0.1,0.1-0.1,0.1-0.1c0.1,0,0.1,0.1,0.1,0.1
			c0,0,0,0,0.1,0c0-0.1,0.1-0.1,0.1-0.1c0.1,0,0.1,0.1,0.1,0.1c0,0,0,0,0,0.1c0,0,0,0,0,0c0,0,0.1-0.1,0.1-0.1
			c0.1,0,0.1,0.1,0.1,0.1c0,0.1,0,0.1,0,0.1c0,0,0,0,0,0.1c0,0,0,0,0.1,0c0.1,0,0.1,0.1,0.1,0.1c0,0.1,0,0.1-0.1,0.1c0,0,0,0,0,0.1
			c0.1,0,0.1,0.1,0.1,0.1c0,0.1-0.1,0.1-0.1,0.1c0,0,0,0.1,0,0.1c0,0,0.1,0.1,0.1,0.1c0,0.1-0.1,0.1-0.1,0.1c0,0,0,0,0,0
			c-0.2,0.4-0.3,0.8-0.5,1.1c0,0.1-0.2,0.2-0.3,0.1c-0.7-0.2-1.8-0.2-2.5,0c-0.1,0.1-0.3,0-0.3-0.1c-0.2-0.4-0.3-0.8-0.5-1.1
			c0,0,0,0,0,0c-0.1,0-0.1-0.1-0.1-0.1c0-0.1,0-0.1,0.1-0.1c0,0,0-0.1,0-0.1c-0.1,0-0.1-0.1-0.1-0.1c0-0.1,0-0.1,0.1-0.1
			c0,0,0,0,0-0.1c-0.1,0-0.1-0.1-0.1-0.1c0-0.1,0.1-0.1,0.1-0.1c0,0,0,0,0,0c0,0,0,0,0-0.1c0,0,0-0.1,0-0.1c0-0.1,0.1-0.1,0.1-0.1
			c0,0,0.1,0,0.1,0.1c0,0,0,0,0,0c0,0,0,0,0-0.1c0-0.1,0.1-0.1,0.1-0.1c0.1,0,0.1,0,0.1,0.1c0,0,0,0,0.1,0c0-0.1,0.1-0.1,0.1-0.1
			c0.1,0,0.1,0.1,0.1,0.1c0,0,0,0,0.1,0h0c0-0.1,0.1-0.1,0.1-0.1c0.1,0,0.1,0.1,0.1,0.1c0,0,0,0,0.1,0c0-0.1,0.1-0.1,0.1-0.1
			c0.1,0,0.1,0.1,0.1,0.1c0.1,0,0.1,0,0.2,0.1v-0.4c0-0.1,0.1-0.2,0.2-0.2v-0.1c0,0,0-0.1,0-0.1h-0.1v0c0,0,0,0.1-0.1,0.1l0,0
			c0,0-0.1-0.1-0.1-0.1V169c0,0,0.1-0.1,0.1-0.1c0,0,0.1,0,0.1,0.1h0c0,0,0,0,0-0.1v0c0,0,0-0.1,0-0.1c0,0-0.1,0-0.1-0.1
			c0,0,0-0.1,0.1-0.1h0.2c0,0,0.1,0,0.1,0.1c0,0,0,0.1-0.1,0.1c0,0,0,0,0,0.1v0c0,0,0,0.1,0,0.1h0c0,0,0-0.1,0.1-0.1
			c0,0,0.1,0,0.1,0.1v0.1c0,0,0,0.1-0.1,0.1c0,0-0.1,0-0.1-0.1v0h-0.1c0,0,0,0,0,0.1L285.9,169.4L285.9,169.4L285.9,169.4z
			 M284.7,171.3L284.7,171.3c0-0.3,0.2-0.3,0.3-0.1c0,0,0,0,0.1,0.1c0,0,0.1,0,0.1,0.1c0,0,0,0.1,0,0.2c0,0.1-0.1,0.1-0.1,0
			c0,0,0-0.1-0.1-0.1c0,0,0,0.1,0,0.2c0,0,0,0.1,0.1,0.1c0,0.1,0.1,0.1,0.1,0.1c0.1,0,0.2,0,0.4,0c0.1,0,0.1-0.1,0.1-0.1v-0.2
			c0,0,0-0.1-0.1-0.1l0,0c0,0,0,0,0,0c0,0,0,0,0,0c0,0.1,0,0.1-0.1,0.1c-0.1,0-0.1-0.1-0.1-0.1l0-0.4c0,0,0-0.1,0-0.1h0
			c0.1,0,0.1,0.1,0.1,0.1v0c0,0,0,0.1,0,0.1h0c0,0,0.1,0,0.1-0.1v-0.1c0,0,0-0.1-0.1-0.1h-0.1c-0.1,0-0.1-0.1-0.1-0.1s0-0.1,0.1-0.1
			c0.1,0,0.1,0,0.1-0.1v-0.3c-0.3-0.1-0.6-0.2-0.9-0.2c-0.3,0-0.5,0.1-0.6,0.1c-0.1,0.1-0.2,0.3-0.1,0.5c0,0.1,0.1,0.2,0.1,0.4
			c0.1,0,0.2,0.1,0.2,0.2c0.1,0.1,0.1,0.4,0.1,0.4c0,0,0,0,0,0l0.1,0.2c0,0,0.1,0,0.1,0c0,0,0.1,0,0.1,0c0,0,0.1,0,0.1-0.1
			c0-0.1,0-0.1,0-0.2c0-0.1,0-0.2-0.1-0.2c0,0,0,0,0,0.1c0,0.1-0.1,0.1-0.1,0c0,0,0-0.1,0-0.2C284.6,171.4,284.6,171.4,284.7,171.3
			C284.7,171.4,284.7,171.3,284.7,171.3L284.7,171.3L284.7,171.3z M287,171.3L287,171.3C287,171.3,287,171.4,287,171.3
			c0.1,0.1,0.1,0.1,0.1,0.2c0,0.1,0,0.1,0,0.2c0,0.1-0.1,0.1-0.1,0c0,0,0-0.1,0-0.1c0,0-0.1,0.1-0.1,0.2c0,0.1,0,0.1,0,0.2
			c0,0,0,0.1,0.1,0.1c0,0,0.1,0,0.1,0c0,0,0.1,0,0.1,0l0.1-0.2c0,0,0,0,0,0c0-0.1,0-0.3,0.1-0.4c0-0.1,0.1-0.1,0.2-0.2
			c0.1-0.1,0.1-0.3,0.1-0.4c0-0.2,0-0.4-0.1-0.5c-0.1-0.1-0.3-0.2-0.6-0.1c-0.2,0-0.5,0.1-0.9,0.2v0.3c0,0.1,0,0.1,0.1,0.1
			c0.1,0,0.1,0.1,0.1,0.1s0,0.1-0.1,0.1H286c0,0-0.1,0-0.1,0.1v0.1c0,0,0,0.1,0.1,0.1h0c0,0,0,0,0-0.1v0c0-0.1,0-0.1,0.1-0.1h0
			c0,0,0,0,0,0.1l0,0.4c0,0.1,0,0.1-0.1,0.1c0,0-0.1,0-0.1-0.1c0,0,0,0,0,0c0,0,0,0,0,0l0,0c0,0-0.1,0-0.1,0.1v0.2
			c0,0.1,0.1,0.1,0.1,0.1c0.1,0,0.2,0,0.4,0c0.1,0,0.1,0,0.1-0.1c0,0,0-0.1,0.1-0.1c0-0.1,0-0.2,0-0.2s0,0-0.1,0.1
			c0,0.1-0.1,0.1-0.1,0c0-0.1,0-0.1,0-0.2c0,0,0.1-0.1,0.1-0.1c0,0,0,0,0.1-0.1C286.7,171,287,171,287,171.3L287,171.3z"/>
	</g>
	<g>
		<path class="st2" d="M217.8,204.6c0,0,0.5,2.7-1.3,2.7h-61.1c0,0-1,0-1-1.2v-1.9h53.2v1.8L217.8,204.6L217.8,204.6z"/>
		<g>
			<rect x="205.3" y="183.5" class="st2" width="10.4" height="21.5"/>
			<g>
				<rect x="205.3" y="202.9" class="st7" width="10.4" height="2"/>
				<rect x="205.3" y="202.6" class="st2" width="10.4" height="0.6"/>
			</g>
			<rect x="205.3" y="200.7" class="st7" width="10.4" height="2"/>
			<rect x="212.7" y="183.5" class="st3" width="0.5" height="21.5"/>
		</g>
		<g>
			<rect x="158.1" y="182.9" class="st7" width="10.1" height="12.4"/>
			<g>
				<path class="st3" d="M159.9,186.1h6.7c0.4,0,0.6,0.3,0.6,0.6v5.4c0,0.4-0.3,0.6-0.6,0.6h-6.7c-0.4,0-0.6-0.3-0.6-0.6v-5.4
					C159.3,186.4,159.6,186.1,159.9,186.1z"/>
				<path class="st2" d="M160.7,187.7c0-0.4,0.3-0.6,0.6-0.6h5.9v-0.3c0-0.4-0.3-0.6-0.6-0.6h-6.7c-0.4,0-0.6,0.3-0.6,0.6v5.4
					c0,0.4,0.3,0.6,0.6,0.6h0.8L160.7,187.7L160.7,187.7z"/>
				<path class="st2" d="M166.2,192.9l0.3-1.9c0.1-0.5-0.1-0.9-0.4-0.9h-1.5c-0.3,0-0.6,0.4-0.7,0.9l-0.3,1.9H166.2L166.2,192.9z"/>
				<path class="st2" d="M161.2,191.4c-0.8,0-1.5,0.6-1.6,1.4c0.1,0,0.2,0.1,0.3,0.1h0.1c0.1-0.6,0.6-1.1,1.2-1.1s1.1,0.5,1.2,1.1
					h0.4C162.8,192.1,162.1,191.4,161.2,191.4L161.2,191.4z"/>
			</g>
		</g>
		<path class="st2" d="M154.6,199.2c0,0-0.9-0.1-0.9,0.9v4.7c0,0,0,0.9,0.9,0.9V199.2z"/>
		<g>
			<g>
				<path class="st2" d="M184.9,176.6l0.4-1.3c0.2-0.6-0.1-1-0.6-1h-2.6c-0.5,0-1.1,0.4-1.2,1l-0.4,1.3H184.9L184.9,176.6z"/>
				<path class="st2" d="M194.4,176.6l0.4-1.3c0.2-0.6-0.1-1-0.6-1h-2.6c-0.5,0-1.1,0.4-1.2,1l-0.4,1.3H194.4L194.4,176.6z"/>
				<path class="st2" d="M203.9,176.6l0.4-1.3c0.2-0.6-0.1-1-0.6-1h-2.6c-0.5,0-1.1,0.4-1.2,1l-0.4,1.3H203.9L203.9,176.6z"/>
				<path class="st2" d="M213.5,176.6l0.4-1.3c0.2-0.6-0.1-1-0.6-1h-2.6c-0.5,0-1.1,0.4-1.2,1l-0.4,1.3H213.5L213.5,176.6z"/>
			</g>
			<path class="st4" d="M178.7,172.9v-7h-17.4c-1.8,0-3.2,1.6-3.2,3.5v16.3h59.8v-12.8L178.7,172.9L178.7,172.9z M182.6,176.5h-3.9
				v-2.8h3.9V176.5z M187,176.5H183v-2.8h3.9V176.5z M192.2,176.5h-3.9v-2.8h3.9V176.5z M196.6,176.5h-4v-2.8h4V176.5z M201.8,176.5
				h-3.9v-2.8h3.9V176.5z M206.2,176.5h-4v-2.8h4V176.5z M211.4,176.5h-3.9v-2.8h3.9V176.5z M215.8,176.5h-4v-2.8h4V176.5z"/>
			<g>
				<path class="st3" d="M176.7,169.1h-7c-0.4,0-0.7,0.3-0.7,0.7v0.9h8.3v-0.9C177.4,169.4,177.1,169.1,176.7,169.1z M166.9,169.1
					h-5.3c-0.4,0-2.3,0.4-2.3,2.4v4.4c0,0.4,0.3,0.7,0.7,0.7h7c0.4,0,0.7-0.3,0.7-0.7v-6.1C167.6,169.4,167.3,169.1,166.9,169.1
					L166.9,169.1z M169.1,175.8c0,0.4,0.3,0.7,0.7,0.7h7c0.4,0,0.7-0.3,0.7-0.7v-4.5h-8.3V175.8z"/>
				<g>
					<path class="st2" d="M160.8,172.5c0-2,2-2.4,2.3-2.4h4.5v-0.3c0-0.4-0.3-0.7-0.7-0.7h-5.3c-0.4,0-2.3,0.4-2.3,2.4v4.4
						c0,0.4,0.3,0.7,0.7,0.7h0.8V172.5L160.8,172.5z"/>
					<path class="st2" d="M170.5,172.4h6.9v-0.6h-6.9v-0.4h-1.4v4.7c0.1,0.3,0.3,0.6,0.6,0.6h0.8L170.5,172.4L170.5,172.4z"/>
					<path class="st2" d="M169.1,170.7h1.5c0.1-0.3,0.3-0.6,0.7-0.6h6.2v-0.3c0-0.4-0.3-0.7-0.7-0.7h-7c-0.4,0-0.7,0.3-0.7,0.7
						L169.1,170.7C169.1,170.6,169.1,170.7,169.1,170.7L169.1,170.7z"/>
				</g>
				<path class="st2" d="M166.3,176.6l0.4-1.3c0.2-0.6-0.1-1-0.6-1h-2.6c-0.5,0-1.1,0.4-1.2,1l-0.4,1.3H166.3L166.3,176.6z"/>
				<path class="st2" d="M176.1,176.6l0.4-1.3c0.2-0.6-0.1-1-0.6-1h-2.6c-0.5,0-1.1,0.4-1.2,1l-0.4,1.3H176.1L176.1,176.6z"/>
			</g>
			<path class="st3" d="M216.1,178.1h-56.4c-0.1,0-0.3,0.1-0.3,0.3s0.1,0.3,0.3,0.3h56.4c0.1,0,0.3-0.1,0.3-0.3
				S216.2,178.1,216.1,178.1z"/>
			<path class="st3" d="M216.1,182.2h-56.4c-0.1,0-0.3,0.1-0.3,0.3s0.1,0.3,0.3,0.3h56.4c0.1,0,0.3-0.1,0.3-0.3
				S216.2,182.2,216.1,182.2z"/>
		</g>
		<polygon class="st3" points="156.8,206.1 207.2,206.1 207.2,197 159.3,197 		"/>
		<path class="st2" d="M154.3,199v-1.7c0,0,5.1-4.5,13.6-3.9L154.3,199z"/>
		<path class="st4" d="M208.5,204.6V185h-40.6v8.4c-9,0.1-13.6,5.3-13.6,5.3v7.3h3.3c0,0,0-0.1,0-0.1c0-3.3,2.5-5.9,5.5-5.9
			s5.5,2.7,5.5,5.9c0,0,0,0.1,0,0.1h27.1c0,0,0-0.1,0-0.1c0-3.3,2.4-5.9,5.5-5.9s5.5,2.6,5.5,5.9c0,0,0,0.1,0,0.1h9.9
			c0.6,0,1.1-0.6,1.1-1.2v-0.3L208.5,204.6L208.5,204.6z"/>
		<g>
			<rect x="158.1" y="183.6" class="st2" width="59.8" height="1.3"/>
			<g>
				<ellipse class="st4" cx="163.1" cy="206" rx="4.6" ry="5"/>
				<ellipse class="st3" cx="163.1" cy="206" rx="2.5" ry="2.7"/>
				<ellipse class="st10" cx="163.1" cy="206" rx="1.3" ry="1.4"/>
			</g>
			<g>
				<path class="st4" d="M205.8,206c0,2.8-2.1,5-4.6,5s-4.6-2.2-4.6-5s2.1-5,4.6-5S205.8,203.3,205.8,206z"/>
				<ellipse class="st3" cx="201.2" cy="206" rx="2.5" ry="2.7"/>
				<ellipse class="st10" cx="201.2" cy="206" rx="1.3" ry="1.4"/>
			</g>
			<g>
				<path class="st3" d="M178.9,192.7c0,0.4,0.3,0.7,0.7,0.7h7c0.4,0,0.7-0.3,0.7-0.7v-4.5h-8.3V192.7z M176.7,186h-7
					c-0.4,0-0.7,0.3-0.7,0.7v6.1c0,0.4,0.3,0.7,0.7,0.7h7c0.4,0,0.7-0.3,0.7-0.7v-6.1C177.4,186.3,177.1,186,176.7,186z M186.5,186
					h-7c-0.4,0-0.7,0.3-0.7,0.7v0.9h8.3v-0.9C187.2,186.3,186.9,186,186.5,186z M206,186h-7c-0.4,0-0.7,0.3-0.7,0.7v0.9h8.3v-0.9
					C206.7,186.3,206.4,186,206,186z M198.4,192.7c0,0.4,0.3,0.7,0.7,0.7h7c0.4,0,0.7-0.3,0.7-0.7v-4.5h-8.3V192.7z M196.3,186h-7
					c-0.4,0-0.7,0.3-0.7,0.7v6.1c0,0.4,0.3,0.7,0.7,0.7h7c0.4,0,0.7-0.3,0.7-0.7v-6.1C196.9,186.3,196.6,186,196.3,186z"/>
				<g>
					<path class="st2" d="M181,187h6.2v-0.3c0-0.4-0.3-0.7-0.7-0.7h-7c-0.4,0-0.7,0.3-0.7,0.7v0.9h1.5
						C180.4,187.2,180.6,187,181,187L181,187z"/>
					<path class="st2" d="M200.5,187h6.2v-0.3c0-0.4-0.3-0.7-0.7-0.7h-7c-0.4,0-0.7,0.3-0.7,0.7v0.9h1.5
						C199.9,187.2,200.2,187,200.5,187L200.5,187z"/>
					<path class="st2" d="M170.5,187.7c0-0.4,0.3-0.7,0.7-0.7h6.2v-0.3c0-0.4-0.3-0.7-0.7-0.7h-7c-0.4,0-0.7,0.3-0.7,0.7v6.1
						c0,0.4,0.3,0.7,0.7,0.7h0.8L170.5,187.7L170.5,187.7z"/>
					<path class="st2" d="M199.9,189.2h6.9v-0.6h-6.9v-0.4h-1.5v4.5c0,0.4,0.3,0.7,0.7,0.7h0.8L199.9,189.2L199.9,189.2z"/>
					<path class="st2" d="M180.3,189.2h6.9v-0.6h-6.9v-0.4h-1.5v4.5c0,0.4,0.3,0.7,0.7,0.7h0.8L180.3,189.2L180.3,189.2z"/>
					<path class="st2" d="M190.1,187.7c0-0.4,0.3-0.7,0.7-0.7h6.2v-0.3c0-0.4-0.3-0.7-0.7-0.7h-7c-0.4,0-0.7,0.3-0.7,0.7v6.1
						c0,0.4,0.3,0.7,0.7,0.7h0.8L190.1,187.7L190.1,187.7z"/>
				</g>
				<path class="st2" d="M176,193.5l0.6-2.1c0.2-0.6-0.1-1-0.6-1h-2.6c-0.5,0-1.1,0.4-1.2,1l-0.6,2.1H176L176,193.5z"/>
				<path class="st2" d="M185.7,193.5l0.6-2.1c0.2-0.6-0.1-1-0.6-1h-2.6c-0.5,0-1.1,0.4-1.2,1l-0.6,2.1H185.7L185.7,193.5z"/>
				<path class="st2" d="M195.7,193.5l0.6-2.1c0.2-0.6-0.1-1-0.6-1h-2.6c-0.5,0-1.1,0.4-1.2,1l-0.6,2.1H195.7L195.7,193.5z"/>
				<path class="st2" d="M205.3,193.5l0.6-2.1c0.2-0.6-0.1-1-0.6-1h-2.6c-0.5,0-1.1,0.4-1.2,1l-0.6,2.1H205.3L205.3,193.5z"/>
			</g>
			<path class="st3" d="M207,196.5h-36.5c-0.1,0-0.3,0.1-0.3,0.3s0.1,0.3,0.3,0.3H207c0.1,0,0.3-0.1,0.3-0.3S207.1,196.5,207,196.5z
				"/>
			<path class="st3" d="M193.4,202.4h-22.9c-0.2,0-0.3,0.1-0.3,0.3s0.1,0.3,0.3,0.3h22.9c0.2,0,0.3-0.1,0.3-0.3
				S193.6,202.4,193.4,202.4z"/>
			<path class="st3" d="M168.2,195.2h-1c-0.3,0-0.5,0.2-0.5,0.5s0.2,0.5,0.5,0.5h1c0.3,0,0.5-0.2,0.5-0.5S168.4,195.2,168.2,195.2z"
				/>
		</g>
	</g>
	<rect x="-2.9" y="211.1" class="st5" width="304.9" height="39.7"/>
	<g>
		<path class="st3" d="M22.1,216.7c-6,0-11.5,0.7-11.5,0.7v18.4c0,2.4,1,4.2,2.8,5.3l8.7,5l8.7-5c1.8-1.1,2.8-2.8,2.8-5.3v-18.4
			C33.6,217.4,28.1,216.7,22.1,216.7z M32.9,235.8v0.1c0,0.2,0,0.3,0,0.4c-0.1,1.9-1,3.2-2.4,4.1l-8.3,4.8l-8.3-4.8
			c-1.5-0.9-2.3-2.2-2.4-4.1l0,0c0-0.2,0-0.3,0-0.4V233l0,0v-5.1l0,0v-9.8c0,0,5.2-0.6,10.8-0.6s10.8,0.6,10.8,0.6V235.8z"/>
		<path class="st3" d="M12.1,218.7v9.6l10,5.8l10-5.8v-9.6c0,0-5-0.6-10-0.6S12.1,218.7,12.1,218.7L12.1,218.7z M25.8,220.6h1.5v4.6
			h3v1.3h-3.6c0,0-0.5-0.6-1-1.1L25.8,220.6L25.8,220.6z M25,222.6c0,0.8-0.3,1.4-0.9,1.8c0.2,0.2,1.8,2.1,1.8,2.1H24l-1.4-1.8h-0.7
			v1.8h-1.5v-4h1.5v0.9h0.9c0.5,0,0.8-0.3,0.8-0.8c0-0.6-0.3-0.8-0.9-0.8h-3.2v4.7H18l-2.1-3.3h0v3.3h-1.4v-6h1.4l2,3.3h0v-3.3h4.8
			C24.2,220.6,25,221.4,25,222.6L25,222.6z"/>
		<polygon class="st3" points="12.1,231.6 12.1,233.4 22.1,239.2 32.1,233.4 32.1,231.6 22.1,237.4 		"/>
		<path class="st3" d="M12.1,236.8c0.2,1.3,0.9,2.3,2,3l8,4.6l8-4.6c1.1-0.6,1.8-1.6,2-3l-10,5.8L12.1,236.8L12.1,236.8z"/>
	</g>
	<g>
		<path class="st3" d="M165.2,220.3h0.5l2,2.7l2-2.7h0.5v4.9h-0.5v-4l-2,2.6l-2-2.6v4h-0.5V220.3z"/>
		<path class="st3" d="M171.7,220.4c0.2,0,0.3,0.1,0.3,0.3s-0.1,0.3-0.3,0.3s-0.3-0.1-0.3-0.3S171.5,220.4,171.7,220.4z
			 M171.5,221.9h0.5v3.4h-0.5V221.9z"/>
		<path class="st3" d="M173.1,221.9h0.5v0.5c0.1-0.1,0.2-0.2,0.3-0.3c0.2-0.1,0.4-0.3,0.8-0.3c0.8,0,1.4,0.6,1.4,1.4v2h-0.5v-2
			c0-0.6-0.4-1-0.9-1c-0.6,0-1.1,0.4-1.1,1.1v1.9h-0.5L173.1,221.9L173.1,221.9z"/>
		<path class="st3" d="M178.4,223.5c0-1,0.8-1.8,1.7-1.8s1.7,0.8,1.7,1.8s-0.8,1.8-1.7,1.8S178.4,224.5,178.4,223.5z M181.3,223.5
			c0-0.7-0.6-1.3-1.2-1.3s-1.2,0.6-1.2,1.3s0.6,1.3,1.2,1.3S181.3,224.3,181.3,223.5z"/>
		<path class="st3" d="M182.7,221.9h0.5v0.5c0.1-0.1,0.2-0.2,0.3-0.3c0.2-0.1,0.5-0.3,0.9-0.3h0.1v0.5h-0.2c-0.6,0-1.1,0.4-1.1,1.1
			v1.9h-0.5V221.9L182.7,221.9z"/>
		<path class="st3" d="M187.6,224.7c-0.1,0.1-0.2,0.2-0.3,0.3c-0.2,0.1-0.5,0.3-0.9,0.3c-0.9,0-1.6-0.7-1.6-1.8s0.7-1.8,1.6-1.8
			c0.4,0,0.7,0.1,0.9,0.3c0.1,0.1,0.2,0.2,0.3,0.3v-2h0.5v4.9h-0.5V224.7L187.6,224.7z M187.6,223.5c0-0.7-0.6-1.3-1.2-1.3
			c-0.6,0-1.2,0.5-1.2,1.3s0.5,1.3,1.2,1.3C187,224.8,187.6,224.3,187.6,223.5z"/>
		<path class="st3" d="M192.1,224.6c-0.1,0.1-0.2,0.2-0.4,0.4c-0.2,0.2-0.6,0.4-1,0.4c-0.9,0-1.7-0.8-1.7-1.8s0.8-1.8,1.6-1.8
			c0.9,0,1.6,0.7,1.6,1.7c0,0.1,0,0.1,0,0.2v0.1h-2.8c0,0.6,0.6,1.1,1.2,1.1c0.4,0,0.6-0.1,0.8-0.3c0.1-0.1,0.2-0.2,0.3-0.3
			L192.1,224.6L192.1,224.6z M191.7,223.3c-0.1-0.6-0.5-1.1-1.1-1.1s-1.1,0.5-1.2,1.1H191.7z"/>
		<path class="st3" d="M193.1,221.9h0.5v0.5c0.1-0.1,0.2-0.2,0.3-0.3c0.2-0.1,0.5-0.3,0.9-0.3h0.1v0.5h-0.2c-0.6,0-1.1,0.4-1.1,1.1
			v1.9h-0.5V221.9L193.1,221.9z"/>
		<path class="st3" d="M196.9,224.2c0.1,0.1,0.2,0.2,0.3,0.3c0.2,0.2,0.6,0.3,1,0.3c0.7,0,1.1-0.4,1.1-0.9c0-1.2-2.7-0.6-2.7-2.3
			c0-0.6,0.5-1.2,1.3-1.3v-0.7h0.5v0.7c0.4,0.1,0.7,0.2,0.9,0.3c0.1,0.1,0.2,0.2,0.3,0.3l-0.4,0.4c-0.1-0.1-0.2-0.2-0.3-0.2
			c-0.2-0.1-0.4-0.2-0.8-0.2c-0.7,0-1.1,0.4-1.1,0.8c0,1.3,2.7,0.6,2.7,2.3c0,0.7-0.5,1.3-1.4,1.4v0.7H198v-0.7
			c-0.5-0.1-0.8-0.2-1.1-0.4c-0.1-0.1-0.3-0.2-0.4-0.3L196.9,224.2L196.9,224.2z"/>
		<path class="st3" d="M203.7,224.7v0.5h-3.1c0-2.1,2.6-2.1,2.6-3.5c0-0.6-0.4-0.9-1.1-0.9c-0.4,0-0.7,0.2-0.9,0.4
			c-0.1,0.1-0.1,0.3-0.2,0.4l-0.5-0.2c0.1-0.2,0.1-0.4,0.3-0.6c0.2-0.3,0.6-0.6,1.2-0.6c0.9,0,1.6,0.6,1.6,1.4
			c0,1.5-2.1,1.8-2.6,3.1L203.7,224.7L203.7,224.7z"/>
		<path class="st3" d="M204.5,222.8c0-1.6,0.9-2.5,2-2.5s2,0.9,2,2.5s-0.9,2.5-1.9,2.5S204.5,224.3,204.5,222.8L204.5,222.8z
			 M207.9,222.8c0-1.3-0.7-2-1.4-2s-1.4,0.7-1.4,2s0.7,2,1.4,2S207.9,224.1,207.9,222.8L207.9,222.8z"/>
		<path class="st3" d="M209.6,224.6c0.2,0,0.4,0.1,0.4,0.4s-0.1,0.4-0.4,0.4s-0.4-0.1-0.4-0.4S209.4,224.6,209.6,224.6z"/>
		<path class="st3" d="M212,220.3h0.6l1.6,4.2l1.6-4.2h0.6l-1.9,4.9h-0.5L212,220.3L212,220.3z"/>
		<path class="st3" d="M217.2,220.4c0.2,0,0.3,0.1,0.3,0.3s-0.1,0.3-0.3,0.3s-0.3-0.1-0.3-0.3S217,220.4,217.2,220.4z M217,221.9
			h0.5v3.4H217V221.9z"/>
		<path class="st3" d="M218.6,224.4c0.1,0.1,0.1,0.2,0.2,0.2c0.1,0.1,0.4,0.2,0.6,0.2c0.5,0,0.7-0.2,0.7-0.6c0-0.8-1.8-0.4-1.8-1.5
			c0-0.5,0.4-0.9,1.1-0.9c0.4,0,0.6,0.1,0.8,0.2c0.1,0.1,0.2,0.1,0.3,0.2l-0.4,0.4c-0.1-0.1-0.1-0.1-0.2-0.2
			c-0.1-0.1-0.3-0.2-0.6-0.2c-0.4,0-0.6,0.2-0.6,0.5c0,0.7,1.8,0.4,1.8,1.5c0,0.6-0.5,1-1.2,1c-0.4,0-0.7-0.1-0.9-0.3
			c-0.1-0.1-0.2-0.2-0.3-0.3L218.6,224.4L218.6,224.4z"/>
		<path class="st3" d="M221.8,220.4c0.2,0,0.3,0.1,0.3,0.3s-0.1,0.3-0.3,0.3s-0.3-0.1-0.3-0.3S221.7,220.4,221.8,220.4z
			 M221.6,221.9h0.5v3.4h-0.5V221.9z"/>
		<path class="st3" d="M223.5,222.3h-0.6v-0.5h0.4c0.2,0,0.3-0.1,0.3-0.4v-0.8h0.5v1.1h0.7v0.5H224v2c0,0.4,0.2,0.5,0.5,0.5
			c0.1,0,0.2,0,0.3-0.1c0.1,0,0.1,0,0.1-0.1v0.5c0,0-0.1,0-0.1,0.1c-0.1,0-0.2,0.1-0.3,0.1c-0.6,0-0.9-0.3-0.9-1L223.5,222.3
			L223.5,222.3z"/>
		<path class="st3" d="M227.2,220.3h0.5v4.9h-0.5V220.3z"/>
		<path class="st3" d="M228.6,223.5c0-1,0.8-1.8,1.7-1.8s1.7,0.8,1.7,1.8s-0.8,1.8-1.7,1.8S228.6,224.5,228.6,223.5z M231.6,223.5
			c0-0.7-0.6-1.3-1.2-1.3s-1.2,0.6-1.2,1.3s0.6,1.3,1.2,1.3S231.6,224.3,231.6,223.5z"/>
		<path class="st3" d="M232.9,221.9h0.5v0.5c0.1-0.1,0.2-0.2,0.3-0.3c0.2-0.1,0.4-0.3,0.8-0.3c0.8,0,1.4,0.6,1.4,1.4v2h-0.5v-2
			c0-0.6-0.4-1-0.9-1c-0.6,0-1.1,0.4-1.1,1.1v1.9h-0.5L232.9,221.9L232.9,221.9z"/>
		<path class="st3" d="M239.6,224.7c-0.1,0.1-0.2,0.2-0.3,0.3c-0.2,0.1-0.5,0.3-0.9,0.3c-0.9,0-1.6-0.7-1.6-1.8s0.7-1.8,1.6-1.8
			c0.4,0,0.7,0.1,0.9,0.3c0.1,0.1,0.2,0.2,0.3,0.3v-2h0.5v4.9h-0.5V224.7L239.6,224.7z M239.6,223.5c0-0.7-0.6-1.3-1.2-1.3
			c-0.6,0-1.2,0.5-1.2,1.3s0.5,1.3,1.2,1.3C239,224.8,239.6,224.3,239.6,223.5z"/>
		<path class="st3" d="M240.9,223.5c0-1,0.8-1.8,1.7-1.8s1.7,0.8,1.7,1.8s-0.8,1.8-1.7,1.8S240.9,224.5,240.9,223.5z M243.9,223.5
			c0-0.7-0.6-1.3-1.2-1.3s-1.2,0.6-1.2,1.3s0.6,1.3,1.2,1.3S243.9,224.3,243.9,223.5z"/>
		<path class="st3" d="M245.2,221.9h0.5v0.5c0.1-0.1,0.2-0.2,0.3-0.3c0.2-0.1,0.4-0.3,0.8-0.3c0.8,0,1.4,0.6,1.4,1.4v2h-0.5v-2
			c0-0.6-0.4-1-0.9-1c-0.6,0-1.1,0.4-1.1,1.1v1.9h-0.5L245.2,221.9L245.2,221.9z"/>
		<path class="st3" d="M252.1,224.6c-0.1,0.1-0.2,0.2-0.4,0.4c-0.2,0.2-0.6,0.4-1,0.4c-0.9,0-1.7-0.8-1.7-1.8s0.8-1.8,1.7-1.8
			c0.4,0,0.8,0.2,1,0.3c0.1,0.1,0.2,0.2,0.4,0.3l-0.4,0.4c-0.1-0.1-0.2-0.2-0.3-0.3c-0.2-0.1-0.4-0.3-0.8-0.3
			c-0.6,0-1.2,0.6-1.2,1.3s0.6,1.3,1.2,1.3c0.3,0,0.6-0.1,0.8-0.3c0.1-0.1,0.2-0.2,0.3-0.3L252.1,224.6L252.1,224.6z"/>
		<path class="st3" d="M254.9,224.8c-0.1,0.1-0.2,0.2-0.3,0.3c-0.2,0.1-0.5,0.3-0.8,0.3c-0.7,0-1.2-0.5-1.2-1c0-0.6,0.3-0.9,1-1
			l1.3-0.2c0-0.5-0.3-0.8-0.8-0.8c-0.3,0-0.5,0.1-0.7,0.2c-0.1,0.1-0.2,0.1-0.2,0.2l-0.3-0.3c0.1-0.1,0.2-0.2,0.3-0.3
			c0.2-0.2,0.5-0.3,0.9-0.3c0.8,0,1.3,0.6,1.3,1.3v2.1h-0.5L254.9,224.8L254.9,224.8z M254.9,223.5l-1.2,0.2
			c-0.4,0.1-0.6,0.3-0.6,0.6c0,0.3,0.2,0.5,0.7,0.5c0.6,0,1.1-0.4,1.1-1.1L254.9,223.5L254.9,223.5z"/>
		<path class="st3" d="M256.6,220.3h0.5v4.9h-0.5V220.3z"/>
		<path class="st3" d="M258.3,220.3h0.5v4.9h-0.5V220.3z"/>
		<path class="st3" d="M260.2,220.4c0.2,0,0.3,0.1,0.3,0.3s-0.1,0.3-0.3,0.3s-0.3-0.1-0.3-0.3S260,220.4,260.2,220.4z M259.9,221.9
			h0.5v3.4h-0.5V221.9z"/>
		<path class="st3" d="M261.5,221.9h0.5v0.5c0.1-0.1,0.2-0.2,0.3-0.3c0.2-0.1,0.5-0.3,0.8-0.3c0.8,0,1.4,0.6,1.4,1.4v2H264v-2
			c0-0.6-0.4-1-0.9-1c-0.6,0-1,0.4-1,1.1v1.9h-0.5L261.5,221.9L261.5,221.9z"/>
		<path class="st3" d="M265.8,225.7c0.1,0.1,0.2,0.2,0.3,0.3c0.2,0.1,0.5,0.3,0.8,0.3c0.6,0,1.2-0.5,1.2-1.2v-0.4
			c-0.1,0.1-0.1,0.2-0.3,0.3c-0.2,0.1-0.5,0.3-0.9,0.3c-0.9,0-1.6-0.7-1.6-1.7s0.7-1.7,1.6-1.7c0.4,0,0.7,0.1,0.9,0.3
			c0.1,0.1,0.2,0.2,0.3,0.3v-0.5h0.5v3.1c0,0.9-0.7,1.7-1.6,1.7c-0.5,0-0.8-0.2-1.1-0.4c-0.1-0.1-0.2-0.2-0.3-0.4L265.8,225.7
			L265.8,225.7z M268,223.5c0-0.7-0.5-1.2-1.1-1.2c-0.6,0-1.1,0.5-1.1,1.2s0.5,1.2,1.1,1.2C267.5,224.7,268,224.2,268,223.5z"/>
		<path class="st3" d="M269.8,224.6c0.2,0,0.4,0.1,0.4,0.4s-0.1,0.4-0.4,0.4s-0.4-0.1-0.4-0.4S269.6,224.6,269.8,224.6z"/>
		<path class="st3" d="M274,224.6c-0.1,0.1-0.2,0.2-0.4,0.4c-0.2,0.2-0.6,0.4-1,0.4c-0.9,0-1.7-0.8-1.7-1.8s0.8-1.8,1.7-1.8
			c0.4,0,0.8,0.2,1,0.3c0.1,0.1,0.2,0.2,0.4,0.3l-0.4,0.4c-0.1-0.1-0.2-0.2-0.3-0.3c-0.2-0.1-0.4-0.3-0.8-0.3
			c-0.6,0-1.2,0.6-1.2,1.3s0.6,1.3,1.2,1.3c0.3,0,0.6-0.1,0.8-0.3c0.1-0.1,0.2-0.2,0.3-0.3L274,224.6L274,224.6z"/>
		<path class="st3" d="M274.4,223.5c0-1,0.8-1.8,1.7-1.8s1.7,0.8,1.7,1.8s-0.8,1.8-1.7,1.8S274.4,224.5,274.4,223.5z M277.4,223.5
			c0-0.7-0.6-1.3-1.2-1.3s-1.2,0.6-1.2,1.3s0.6,1.3,1.2,1.3S277.4,224.3,277.4,223.5z"/>
		<path class="st3" d="M278.7,221.9h0.5v0.4c0.1-0.1,0.1-0.2,0.2-0.2c0.2-0.1,0.4-0.2,0.7-0.2c0.4,0,0.7,0.1,0.9,0.3
			c0.1,0.1,0.2,0.2,0.2,0.3c0.1-0.1,0.1-0.2,0.3-0.3c0.2-0.1,0.5-0.3,0.9-0.3c0.7,0,1.3,0.5,1.3,1.4v2h-0.5v-2c0-0.6-0.3-1-0.8-1
			s-0.9,0.4-0.9,1.1v1.9H281v-2c0-0.6-0.3-1-0.8-1s-0.9,0.4-0.9,1.1v1.9h-0.5L278.7,221.9L278.7,221.9z"/>
		<path class="st3" d="M165.2,230.3h-0.5v-0.5h0.5v-0.6c0-0.6,0.4-1,0.9-1c0.1,0,0.3,0,0.4,0.1c0.1,0,0.1,0,0.1,0.1v0.5l-0.1-0.1
			c-0.1,0-0.2-0.1-0.3-0.1c-0.3,0-0.5,0.2-0.5,0.5v0.6h0.8v0.5h-0.8v2.9h-0.5L165.2,230.3L165.2,230.3z"/>
		<path class="st3" d="M167,231.5c0-1,0.8-1.8,1.7-1.8s1.7,0.8,1.7,1.8s-0.8,1.8-1.7,1.8S167,232.5,167,231.5z M170,231.5
			c0-0.7-0.6-1.3-1.2-1.3s-1.2,0.6-1.2,1.3s0.6,1.3,1.2,1.3S170,232.3,170,231.5z"/>
		<path class="st3" d="M171.3,229.9h0.5v0.5c0.1-0.1,0.2-0.2,0.3-0.3c0.2-0.1,0.5-0.3,0.9-0.3h0.1v0.5h-0.2c-0.6,0-1.1,0.4-1.1,1.1
			v1.9h-0.5V229.9L171.3,229.9z"/>
		<path class="st3" d="M175.2,230.3h-0.5v-0.5h0.5v-0.6c0-0.6,0.4-1,0.9-1c0.1,0,0.3,0,0.4,0.1c0.1,0,0.1,0,0.1,0.1v0.5l-0.1-0.1
			c-0.1,0-0.2-0.1-0.3-0.1c-0.3,0-0.5,0.2-0.5,0.5v0.6h0.8v0.5h-0.8v2.9h-0.5L175.2,230.3L175.2,230.3z"/>
		<path class="st3" d="M177.3,229.9h0.5v2c0,0.6,0.4,1,0.9,1c0.6,0,1-0.4,1-1.1v-1.9h0.5v3.4h-0.5v-0.5c-0.1,0.1-0.2,0.2-0.3,0.3
			c-0.2,0.1-0.5,0.3-0.8,0.3c-0.8,0-1.4-0.6-1.4-1.5V229.9z"/>
		<path class="st3" d="M181.4,228.3h0.5v4.9h-0.5V228.3z"/>
		<path class="st3" d="M183.1,228.3h0.5v4.9h-0.5V228.3z"/>
		<path class="st3" d="M187.4,228.8h-1.5v-0.5h3.6v0.5h-1.5v4.4h-0.5L187.4,228.8L187.4,228.8z"/>
		<path class="st3" d="M192.7,232c0.1-0.1,0.1-0.2,0.1-0.3c0.1-0.2,0.2-0.5,0.2-0.9h0.5c0,0.5-0.1,0.9-0.2,1.1
			c-0.1,0.2-0.1,0.3-0.2,0.4c0.1,0.1,0.1,0.1,0.2,0.2c0.1,0.1,0.2,0.2,0.4,0.2c0.1,0,0.1,0,0.1,0l0.1,0v0.5l-0.1,0c0,0-0.1,0-0.2,0
			c-0.2,0-0.4-0.1-0.6-0.3c-0.1-0.1-0.1-0.2-0.2-0.3c-0.1,0.1-0.2,0.2-0.3,0.3c-0.2,0.1-0.5,0.3-1,0.3c-0.8,0-1.4-0.6-1.4-1.2
			c0-0.4,0.2-0.8,0.5-1c0.1-0.1,0.3-0.3,0.5-0.4c-0.1-0.1-0.3-0.3-0.4-0.4c-0.2-0.3-0.4-0.6-0.4-0.9c0-0.6,0.5-1.1,1.1-1.1
			s1.1,0.5,1.1,1.1c0,0.4-0.2,0.7-0.5,1c-0.1,0.1-0.3,0.3-0.5,0.4L192.7,232L192.7,232z M191.3,230.9c-0.1,0.1-0.3,0.2-0.4,0.4
			c-0.2,0.2-0.4,0.5-0.4,0.8c0,0.4,0.4,0.7,0.9,0.7c0.3,0,0.6-0.1,0.7-0.2c0.1-0.1,0.2-0.1,0.2-0.2L191.3,230.9L191.3,230.9z
			 M191.7,230c0.2-0.2,0.4-0.4,0.4-0.7c0-0.4-0.3-0.6-0.7-0.6s-0.7,0.3-0.7,0.6c0,0.2,0.1,0.5,0.3,0.7c0.1,0.1,0.2,0.2,0.3,0.4
			C191.5,230.2,191.6,230.2,191.7,230L191.7,230z"/>
		<path class="st3" d="M198.9,232.3c-0.1,0.2-0.3,0.4-0.5,0.5c-0.3,0.2-0.8,0.5-1.5,0.5c-1.4,0-2.5-1.1-2.5-2.5s1.1-2.5,2.5-2.5
			c0.7,0,1.2,0.3,1.5,0.5c0.2,0.1,0.4,0.3,0.5,0.5l-0.4,0.3c-0.1-0.2-0.2-0.3-0.4-0.4c-0.3-0.2-0.7-0.4-1.2-0.4c-1.1,0-2,0.9-2,2
			s0.9,2,2,2c0.6,0,1-0.2,1.3-0.4c0.2-0.1,0.3-0.3,0.4-0.4L198.9,232.3L198.9,232.3z"/>
		<path class="st3" d="M199.8,232.4c0.1,0.1,0.1,0.2,0.2,0.2c0.1,0.1,0.4,0.2,0.6,0.2c0.5,0,0.7-0.2,0.7-0.6c0-0.8-1.8-0.4-1.8-1.5
			c0-0.5,0.4-0.9,1.1-0.9c0.4,0,0.6,0.1,0.8,0.2c0.1,0.1,0.2,0.1,0.3,0.2l-0.4,0.4c-0.1-0.1-0.1-0.1-0.2-0.2
			c-0.1-0.1-0.3-0.2-0.6-0.2c-0.4,0-0.6,0.2-0.6,0.5c0,0.7,1.8,0.4,1.8,1.5c0,0.6-0.5,1-1.2,1c-0.4,0-0.7-0.1-0.9-0.3
			c-0.1-0.1-0.2-0.2-0.3-0.3L199.8,232.4L199.8,232.4z"/>
		<path class="st3" d="M202.9,232.6c0.2,0,0.4,0.1,0.4,0.4s-0.1,0.4-0.4,0.4s-0.4-0.1-0.4-0.4S202.7,232.6,202.9,232.6z"/>
		<path class="st3" d="M205.9,228.3h0.5l3,4v-4h0.5v4.9h-0.5l-3-4v4h-0.5V228.3z"/>
		<path class="st3" d="M211.2,232.2c0.1,0.1,0.2,0.2,0.3,0.3c0.2,0.2,0.6,0.3,1,0.3c0.7,0,1.1-0.4,1.1-0.9c0-1.2-2.7-0.6-2.7-2.3
			c0-0.7,0.6-1.3,1.6-1.3c0.5,0,0.8,0.1,1.1,0.3c0.1,0.1,0.3,0.2,0.4,0.3l-0.4,0.4c-0.1-0.1-0.2-0.2-0.3-0.2
			c-0.2-0.1-0.4-0.2-0.8-0.2c-0.7,0-1.1,0.4-1.1,0.8c0,1.3,2.7,0.6,2.7,2.3c0,0.8-0.6,1.4-1.6,1.4c-0.6,0-1-0.2-1.2-0.4
			c-0.2-0.1-0.3-0.2-0.4-0.4L211.2,232.2L211.2,232.2z"/>
		<path class="st3" d="M214.6,228.3h0.6l1.3,4.1l1.3-4.1h0.5l1.3,4.1l1.3-4.1h0.6l-1.6,4.9h-0.5l-1.3-4.1l-1.3,4.1h-0.5L214.6,228.3
			L214.6,228.3z"/>
		<path class="st3" d="M224.6,228.8h-1.5v-0.5h3.6v0.5h-1.5v4.4h-0.5L224.6,228.8L224.6,228.8z"/>
		<path class="st3" d="M227.6,228.3h1.9c0.9,0,1.6,0.7,1.6,1.5s-0.7,1.5-1.6,1.5h-1.3v1.8h-0.5V228.3z M229.4,230.9
			c0.6,0,1.1-0.4,1.1-1.1s-0.4-1.1-1.1-1.1h-1.3v2.1H229.4z"/>
		<path class="st3" d="M233.5,228.2h0.5l-2.1,6.4h-0.5L233.5,228.2z"/>
		<path class="st3" d="M234.4,230.8c0-1.6,0.9-2.5,2-2.5s2,0.9,2,2.5s-0.9,2.5-1.9,2.5S234.4,232.3,234.4,230.8L234.4,230.8z
			 M237.8,230.8c0-1.3-0.7-2-1.4-2s-1.4,0.7-1.4,2s0.7,2,1.4,2S237.8,232.1,237.8,230.8L237.8,230.8z"/>
		<path class="st3" d="M242.1,232.7v0.5H239c0-2.1,2.6-2.1,2.6-3.5c0-0.6-0.4-0.9-1.1-0.9c-0.4,0-0.7,0.2-0.9,0.4
			c-0.1,0.1-0.1,0.3-0.2,0.4l-0.5-0.2c0.1-0.2,0.1-0.4,0.3-0.6c0.2-0.3,0.6-0.6,1.2-0.6c0.9,0,1.6,0.6,1.6,1.4
			c0,1.5-2.1,1.8-2.6,3.1L242.1,232.7L242.1,232.7z"/>
		<path class="st3" d="M243,230.8c0-1.6,0.9-2.5,2-2.5s2,0.9,2,2.5s-0.9,2.5-1.9,2.5S243,232.3,243,230.8L243,230.8z M246.4,230.8
			c0-1.3-0.7-2-1.4-2s-1.4,0.7-1.4,2s0.7,2,1.4,2S246.4,232.1,246.4,230.8L246.4,230.8z"/>
		<path class="st3" d="M249.5,228.3h0.5l-1.2,1.8l0.1,0c0.1,0,0.2,0,0.4,0c0.9,0,1.6,0.7,1.6,1.6s-0.7,1.6-1.7,1.6s-1.7-0.7-1.7-1.6
			c0-0.3,0.1-0.6,0.2-0.8c0.1-0.1,0.1-0.2,0.2-0.3L249.5,228.3L249.5,228.3z M249.4,232.8c0.7,0,1.2-0.4,1.2-1.1s-0.5-1.1-1.2-1.1
			s-1.2,0.4-1.2,1.1S248.7,232.8,249.4,232.8z"/>
		<path class="st3" d="M254.9,232.7v0.5h-3.1c0-2.1,2.6-2.1,2.6-3.5c0-0.6-0.4-0.9-1.1-0.9c-0.4,0-0.7,0.2-0.9,0.4
			c-0.1,0.1-0.1,0.3-0.2,0.4l-0.5-0.2c0.1-0.2,0.1-0.4,0.3-0.6c0.2-0.3,0.6-0.6,1.2-0.6c0.9,0,1.6,0.6,1.6,1.4
			c0,1.5-2.1,1.8-2.6,3.1L254.9,232.7L254.9,232.7z"/>
		<path class="st3" d="M256,232.6c0.2,0,0.4,0.1,0.4,0.4s-0.1,0.4-0.4,0.4s-0.4-0.1-0.4-0.4S255.8,232.6,256,232.6z"/>
		<path class="st3" d="M166.6,236.3h0.5l2,4.9h-0.6l-0.6-1.4h-2.3l-0.6,1.4h-0.6L166.6,236.3L166.6,236.3z M167.8,239.4l-0.9-2.3
			l-0.9,2.3H167.8L167.8,239.4z"/>
		<path class="st3" d="M174.1,240.3c-0.1,0.2-0.3,0.4-0.5,0.5c-0.3,0.2-0.8,0.5-1.5,0.5c-1.4,0-2.5-1.1-2.5-2.5s1.1-2.5,2.5-2.5
			c0.7,0,1.2,0.3,1.5,0.5c0.2,0.1,0.4,0.3,0.5,0.5l-0.4,0.3c-0.1-0.2-0.2-0.3-0.4-0.4c-0.3-0.2-0.7-0.4-1.2-0.4c-1.1,0-2,0.9-2,2
			s0.9,2,2,2c0.6,0,1-0.2,1.3-0.4c0.2-0.1,0.3-0.3,0.4-0.4L174.1,240.3L174.1,240.3z"/>
		<path class="st3" d="M176.1,236.8h-1.5v-0.5h3.6v0.5h-1.5v4.4h-0.5L176.1,236.8L176.1,236.8z"/>
		<path class="st3" d="M181.2,236.8h-1.5v-0.5h3.6v0.5h-1.5v4.4h-0.5L181.2,236.8L181.2,236.8z"/>
		<path class="st3" d="M184.2,236.3h1.9c0.9,0,1.6,0.7,1.6,1.5s-0.7,1.5-1.6,1.5h-1.3v1.8h-0.5V236.3z M186,238.9
			c0.6,0,1.1-0.4,1.1-1.1s-0.4-1.1-1.1-1.1h-1.3v2.1H186z"/>
		<path class="st3" d="M192.7,240.7v0.5h-3.1c0-2.1,2.6-2.1,2.6-3.5c0-0.6-0.4-0.9-1.1-0.9c-0.4,0-0.7,0.2-0.9,0.4
			c-0.1,0.1-0.1,0.3-0.2,0.4l-0.5-0.2c0.1-0.2,0.1-0.4,0.3-0.6c0.2-0.3,0.6-0.6,1.2-0.6c0.9,0,1.6,0.6,1.6,1.4
			c0,1.5-2.1,1.8-2.6,3.1L192.7,240.7L192.7,240.7z"/>
		<path class="st3" d="M196.5,240.7v0.5h-3.1c0-2.1,2.6-2.1,2.6-3.5c0-0.6-0.4-0.9-1.1-0.9c-0.4,0-0.7,0.2-0.9,0.4
			c-0.1,0.1-0.1,0.3-0.2,0.4l-0.5-0.2c0.1-0.2,0.1-0.4,0.3-0.6c0.2-0.3,0.6-0.6,1.2-0.6c0.9,0,1.6,0.6,1.6,1.4
			c0,1.5-2.1,1.8-2.6,3.1L196.5,240.7L196.5,240.7z"/>
		<path class="st3" d="M199.1,236.2h0.5l-2.1,6.4h-0.5L199.1,236.2z"/>
		<path class="st3" d="M199.9,238.8c0-1.6,0.9-2.5,2-2.5s2,0.9,2,2.5s-0.9,2.5-1.9,2.5S199.9,240.3,199.9,238.8L199.9,238.8z
			 M203.3,238.8c0-1.3-0.7-2-1.4-2s-1.4,0.7-1.4,2s0.7,2,1.4,2S203.3,240.1,203.3,238.8L203.3,238.8z"/>
		<path class="st3" d="M205.5,237.3h-0.9V237c0.4,0,0.7-0.2,0.8-0.3c0.1-0.1,0.2-0.2,0.2-0.3h0.4v4.9h-0.5L205.5,237.3L205.5,237.3z
			"/>
		<path class="st3" d="M207.6,240.2c0.1,0.1,0.2,0.2,0.3,0.3c0.2,0.1,0.5,0.3,0.9,0.3c0.7,0,1.2-0.4,1.2-1.1s-0.4-1.1-1.1-1.1
			c-0.4,0-0.6,0.1-0.8,0.3c-0.1,0.1-0.2,0.2-0.3,0.3h-0.4l0.2-2.8h2.6v0.5h-2.2l-0.1,1.5c0.1-0.1,0.2-0.1,0.2-0.1
			c0.2-0.1,0.4-0.1,0.7-0.1c0.9,0,1.6,0.7,1.6,1.6s-0.7,1.6-1.7,1.6c-0.6,0-0.9-0.2-1.2-0.4c-0.1-0.1-0.3-0.2-0.4-0.4L207.6,240.2
			L207.6,240.2z"/>
		<path class="st3" d="M214.2,240.7v0.5h-3.1c0-2.1,2.6-2.1,2.6-3.5c0-0.6-0.4-0.9-1.1-0.9c-0.4,0-0.7,0.2-0.9,0.4
			c-0.1,0.1-0.1,0.3-0.2,0.4l-0.5-0.2c0.1-0.2,0.1-0.4,0.3-0.6c0.2-0.3,0.6-0.6,1.2-0.6c0.9,0,1.6,0.6,1.6,1.4
			c0,1.5-2.1,1.8-2.6,3.1L214.2,240.7L214.2,240.7z"/>
		<path class="st3" d="M215.9,237.3h-0.9V237c0.4,0,0.7-0.2,0.8-0.3c0.1-0.1,0.2-0.2,0.2-0.3h0.4v4.9h-0.5L215.9,237.3L215.9,237.3z
			"/>
		<path class="st3" d="M217.9,240.6c0.2,0,0.4,0.1,0.4,0.4s-0.1,0.4-0.4,0.4s-0.4-0.1-0.4-0.4S217.6,240.6,217.9,240.6z"/>
		<path class="st3" d="M220.7,240.2c0.1,0.1,0.2,0.2,0.3,0.3c0.2,0.2,0.6,0.3,1,0.3c0.7,0,1.1-0.4,1.1-0.9c0-1.2-2.7-0.6-2.7-2.3
			c0-0.7,0.6-1.3,1.6-1.3c0.5,0,0.8,0.1,1.1,0.3c0.1,0.1,0.3,0.2,0.4,0.3l-0.4,0.4c-0.1-0.1-0.2-0.2-0.3-0.2
			c-0.2-0.1-0.4-0.2-0.8-0.2c-0.7,0-1.1,0.4-1.1,0.8c0,1.3,2.7,0.6,2.7,2.3c0,0.8-0.6,1.4-1.6,1.4c-0.6,0-1-0.2-1.2-0.4
			c-0.2-0.1-0.3-0.2-0.4-0.4L220.7,240.2L220.7,240.2z"/>
		<path class="st3" d="M226.2,236.3h0.5l2,4.9h-0.6l-0.6-1.4h-2.3l-0.6,1.4h-0.6L226.2,236.3L226.2,236.3z M227.4,239.4l-0.9-2.3
			l-0.9,2.3H227.4L227.4,239.4z"/>
		<path class="st3" d="M231.8,236.8h-1.5v-0.5h3.6v0.5h-1.5v4.4h-0.5L231.8,236.8L231.8,236.8z"/>
		<path class="st3" d="M237.4,240.7v0.5h-3.1c0-2.1,2.6-2.1,2.6-3.5c0-0.6-0.4-0.9-1.1-0.9c-0.4,0-0.7,0.2-0.9,0.4
			c-0.1,0.1-0.1,0.3-0.2,0.4l-0.5-0.2c0.1-0.2,0.1-0.4,0.3-0.6c0.2-0.3,0.6-0.6,1.2-0.6c0.9,0,1.6,0.6,1.6,1.4
			c0,1.5-2.1,1.8-2.6,3.1L237.4,240.7L237.4,240.7z"/>
		<path class="st3" d="M241.3,240.7v0.5h-3.1c0-2.1,2.6-2.1,2.6-3.5c0-0.6-0.4-0.9-1.1-0.9c-0.4,0-0.7,0.2-0.9,0.4
			c-0.1,0.1-0.1,0.3-0.2,0.4l-0.5-0.2c0.1-0.2,0.1-0.4,0.3-0.6c0.2-0.3,0.6-0.6,1.2-0.6c0.9,0,1.6,0.6,1.6,1.4
			c0,1.5-2.1,1.8-2.6,3.1L241.3,240.7L241.3,240.7z"/>
		<path class="st3" d="M243.8,236.2h0.5l-2.1,6.4h-0.5L243.8,236.2z"/>
		<path class="st3" d="M245.4,237.3h-0.9V237c0.4,0,0.7-0.2,0.8-0.3c0.1-0.1,0.2-0.2,0.2-0.3h0.4v4.9h-0.5L245.4,237.3L245.4,237.3z
			"/>
		<path class="st3" d="M247.9,237.3H247V237c0.4,0,0.7-0.2,0.8-0.3c0.1-0.1,0.2-0.2,0.2-0.3h0.4v4.9h-0.5L247.9,237.3L247.9,237.3z"
			/>
		<path class="st3" d="M251.7,239.4c0,0-0.1,0-0.1,0c-0.1,0-0.2,0-0.4,0c-0.9,0-1.6-0.7-1.6-1.6s0.7-1.6,1.7-1.6s1.7,0.7,1.7,1.6
			c0,0.3-0.1,0.6-0.2,0.8c-0.1,0.1-0.1,0.2-0.2,0.3l-1.5,2.3h-0.5L251.7,239.4L251.7,239.4z M251.2,239c0.7,0,1.2-0.4,1.2-1.1
			s-0.5-1.1-1.2-1.1s-1.2,0.4-1.2,1.1S250.5,239,251.2,239z"/>
		<path class="st3" d="M253.7,238.8c0-1.6,0.9-2.5,2-2.5c1,0,2,0.9,2,2.5s-1,2.5-1.9,2.5S253.7,240.3,253.7,238.8L253.7,238.8z
			 M257.1,238.8c0-1.3-0.7-2-1.4-2s-1.4,0.7-1.4,2s0.7,2,1.4,2C256.4,240.8,257.1,240.1,257.1,238.8L257.1,238.8z"/>
		<path class="st3" d="M258.8,240.6c0.2,0,0.4,0.1,0.4,0.4s-0.1,0.4-0.4,0.4s-0.4-0.1-0.4-0.4S258.5,240.6,258.8,240.6z"/>
	</g>
	<g>
		<path class="st3" d="M44.4,224.3c1.5,0,2.7,1.2,2.7,2.6s-1.2,2.6-2.7,2.6s-2.7-1.2-2.7-2.6S42.9,224.3,44.4,224.3z M44.4,228.5
			c0.9,0,1.6-0.7,1.6-1.6s-0.7-1.6-1.6-1.6s-1.6,0.7-1.6,1.6S43.5,228.5,44.4,228.5z"/>
		<path class="st3" d="M48.3,224.4H52v1h-2.6v1.2h2v1h-2v1.8h-1.1V224.4L48.3,224.4z"/>
		<path class="st3" d="M53.1,224.4h3.6v1h-2.6v1.2h2v1h-2v1.8h-1.1L53.1,224.4L53.1,224.4z"/>
		<path class="st3" d="M57.8,224.4h1.1v4.9h-1.1V224.4z"/>
		<path class="st3" d="M64.9,228.5c-0.2,0.2-0.3,0.4-0.5,0.5c-0.4,0.2-0.9,0.5-1.6,0.5c-1.5,0-2.7-1.2-2.7-2.6s1.2-2.6,2.7-2.6
			c0.7,0,1.2,0.2,1.6,0.5c0.2,0.1,0.4,0.3,0.5,0.5l-0.7,0.7c-0.1-0.1-0.2-0.2-0.4-0.4c-0.2-0.2-0.6-0.4-1-0.4
			c-0.9,0-1.6,0.7-1.6,1.6s0.7,1.6,1.6,1.6c0.5,0,0.8-0.2,1-0.4c0.1-0.1,0.3-0.2,0.4-0.4L64.9,228.5L64.9,228.5z"/>
		<path class="st3" d="M66,224.4H67v4.9H66V224.4z"/>
		<path class="st3" d="M69.8,224.4H71l1.9,4.9h-1.1l-0.4-1.1h-1.9l-0.4,1.1h-1.1L69.8,224.4L69.8,224.4z M71,227.3l-0.6-1.6h0
			l-0.6,1.6H71L71,227.3z"/>
		<path class="st3" d="M73.9,224.4h1.1v4h2.3v1h-3.4V224.4L73.9,224.4z"/>
		<path class="st3" d="M79.8,224.4h1.8c1.5,0,2.6,1.1,2.6,2.5s-1.1,2.5-2.6,2.5h-1.8V224.4L79.8,224.4z M81.6,228.4
			c0.9,0,1.5-0.6,1.5-1.5s-0.6-1.5-1.5-1.5h-0.7v3L81.6,228.4L81.6,228.4z"/>
		<path class="st3" d="M85.4,224.4h3.7v1h-2.6v0.9h2.1v0.9h-2.1v1.1h2.7v1h-3.7V224.4L85.4,224.4z"/>
		<path class="st3" d="M90.4,224.4h1.1v4h2.3v1h-3.4V224.4L90.4,224.4z"/>
		<path class="st3" d="M94.8,224.4h1.1v4.9h-1.1V224.4z"/>
		<path class="st3" d="M96.8,224.4h1.1l1.3,3.6h0l1.3-3.6h1.1l-1.8,4.9h-1.2L96.8,224.4L96.8,224.4z"/>
		<path class="st3" d="M102.6,224.4h3.7v1h-2.6v0.9h2.1v0.9h-2.1v1.1h2.7v1h-3.7V224.4L102.6,224.4z"/>
		<path class="st3" d="M107.6,224.4h2.2c1.1,0,1.7,0.7,1.7,1.7c0,0.6-0.2,0.9-0.4,1.1c-0.1,0.1-0.3,0.2-0.4,0.3l1,1.8h-1.2l-0.9-1.6
			h-1v1.6h-1.1L107.6,224.4L107.6,224.4z M109.8,226.7c0.4,0,0.7-0.3,0.7-0.7s-0.3-0.7-0.7-0.7h-1.1v1.3H109.8z"/>
		<path class="st3" d="M113.9,227.6l-1.9-3.2h1.2l1.2,2.1h0l1.2-2.1h1.2l-1.9,3.2v1.8h-1.1L113.9,227.6L113.9,227.6z"/>
		<path class="st3" d="M42,231.5h2.1c1,0,1.8,0.7,1.8,1.7s-0.7,1.7-1.8,1.7h-1v1.6H42L42,231.5L42,231.5z M44.1,233.9
			c0.4,0,0.7-0.3,0.7-0.7s-0.3-0.7-0.7-0.7h-1v1.3H44.1z"/>
		<path class="st3" d="M48.1,231.5h1.2l1.9,4.9h-1.1l-0.4-1.1h-1.9l-0.4,1.1h-1.1L48.1,231.5L48.1,231.5z M49.3,234.4l-0.6-1.6h0
			l-0.6,1.6H49.3L49.3,234.4z"/>
		<path class="st3" d="M52.2,231.5h2.2c1.1,0,1.7,0.7,1.7,1.7c0,0.6-0.2,0.9-0.4,1.1c-0.1,0.1-0.3,0.2-0.4,0.3l1,1.8h-1.2l-0.9-1.6
			h-1v1.6h-1.1V231.5z M54.3,233.9c0.4,0,0.7-0.3,0.7-0.7s-0.3-0.7-0.7-0.7h-1.1v1.3H54.3z"/>
		<path class="st3" d="M58.3,232.5h-1.4v-1h3.9v1h-1.4v4h-1.1L58.3,232.5L58.3,232.5z"/>
		<path class="st3" d="M61.8,231.5h1l2.4,3.1v-3.1h1.1v4.9h-0.9l-2.4-3.1v3.1h-1.1V231.5z"/>
		<path class="st3" d="M67.7,231.5h3.7v1h-2.6v0.9h2.1v0.9h-2.1v1.1h2.7v1h-3.7V231.5L67.7,231.5z"/>
		<path class="st3" d="M72.8,231.5H75c1.1,0,1.7,0.7,1.7,1.7c0,0.6-0.2,0.9-0.4,1.1c-0.1,0.1-0.3,0.2-0.4,0.3l1,1.8h-1.2l-0.9-1.6
			h-1v1.6h-1.1L72.8,231.5L72.8,231.5z M74.9,233.9c0.4,0,0.7-0.3,0.7-0.7s-0.3-0.7-0.7-0.7h-1.1v1.3H74.9z"/>
		<path class="st3" d="M81.8,231.4c1.5,0,2.7,1.2,2.7,2.6s-1.2,2.6-2.7,2.6s-2.7-1.2-2.7-2.6S80.3,231.4,81.8,231.4z M81.8,235.6
			c0.9,0,1.6-0.7,1.6-1.6s-0.7-1.6-1.6-1.6s-1.6,0.7-1.6,1.6S81,235.6,81.8,235.6z"/>
		<path class="st3" d="M85.8,231.5h3.6v1h-2.6v1.2h2v1h-2v1.8h-1.1V231.5L85.8,231.5z"/>
		<path class="st3" d="M92.9,232.5h-1.4v-1h3.9v1H94v4h-1.1L92.9,232.5L92.9,232.5z"/>
		<path class="st3" d="M96.4,231.5h1.1v1.9h2.1v-1.9h1.1v4.9h-1.1v-2h-2.1v2h-1.1V231.5z"/>
		<path class="st3" d="M102.2,231.5h3.7v1h-2.6v0.9h2.1v0.9h-2.1v1.1h2.7v1h-3.7V231.5L102.2,231.5z"/>
		<path class="st3" d="M108.6,231.5h0.9l2.4,3.1v-3.1h1.1v4.9H112l-2.4-3.1v3.1h-1.1V231.5z"/>
		<path class="st3" d="M114.6,231.5h2.2c1.1,0,1.7,0.7,1.7,1.7c0,0.6-0.2,0.9-0.4,1.1c-0.1,0.1-0.3,0.2-0.4,0.3l1,1.8h-1.2l-0.9-1.6
			h-1v1.6h-1.1L114.6,231.5L114.6,231.5z M116.7,233.9c0.4,0,0.7-0.3,0.7-0.7s-0.3-0.7-0.7-0.7h-1.1v1.3H116.7z"/>
		<path class="st3" d="M119.8,231.5h1.1v4h2.3v1h-3.4V231.5L119.8,231.5z"/>
	</g>
</g>
</svg>
