<?xml version="1.0" encoding="UTF-8"?><svg id="Layer_2" xmlns="http://www.w3.org/2000/svg" viewBox="0 0 143.4 16.52"><defs><style>.cls-1{fill:#ff3008;}</style></defs><g id="Layer_3"><g><path class="cls-1" d="M42.26,2.38c3.44,0,6.05,2.6,6.05,5.88s-2.6,5.88-6.05,5.88h-4.06c-.17,0-.3-.14-.3-.3V2.69c0-.17,.14-.3,.3-.3h4.06Zm-1.85,2.27v7.22h1.85c1.93,0,3.53-1.6,3.53-3.61s-1.51-3.61-3.53-3.61h-1.85Z"/><path class="cls-1" d="M57.19,2.13c3.61,0,6.38,2.77,6.38,6.13s-2.77,6.13-6.38,6.13-6.38-2.77-6.38-6.13,2.77-6.13,6.38-6.13m0,9.99c2.1,0,3.88-1.68,3.88-3.86s-1.78-3.86-3.88-3.86-3.86,1.68-3.86,3.86,1.76,3.86,3.86,3.86"/><path class="cls-1" d="M72.36,2.13c3.61,0,6.38,2.77,6.38,6.13s-2.77,6.13-6.38,6.13-6.38-2.77-6.38-6.13,2.77-6.13,6.38-6.13m0,9.99c2.1,0,3.88-1.68,3.88-3.86s-1.78-3.86-3.88-3.86-3.86,1.68-3.86,3.86,1.76,3.86,3.86,3.86"/><path class="cls-1" d="M82.08,2.69c0-.17,.14-.3,.31-.3h4.9c2.35,0,4.03,1.71,4.03,3.86,0,2.52-2.1,3.44-2.1,3.44l2.26,4c.12,.2-.03,.45-.26,.45h-1.99c-.11,0-.21-.06-.27-.16l-2.18-3.96h-2.18v3.81c0,.17-.14,.3-.3,.3h-1.91c-.17,0-.31-.14-.31-.3V2.69Zm5.12,1.96h-2.6v3.11h2.6c.92,0,1.6-.67,1.6-1.51,0-.92-.67-1.6-1.6-1.6"/><path class="cls-1" d="M99.71,2.44c3.44,0,6.05,2.6,6.05,5.88s-2.6,5.88-6.05,5.88h-4.06c-.17,0-.3-.14-.3-.3V2.74c0-.17,.14-.31,.3-.31h4.06Zm-1.85,2.27v7.22h1.85c1.93,0,3.53-1.6,3.53-3.61s-1.51-3.61-3.53-3.61h-1.85Z"/><path class="cls-1" d="M111.17,11.35l-.94,2.57c-.04,.12-.16,.2-.29,.2h-2.03c-.21,0-.36-.22-.28-.42l4.38-11.15c.05-.12,.16-.19,.28-.19h2.27c.13,0,.24,.08,.28,.19l4.38,11.15c.08,.2-.07,.42-.28,.42h-2.03c-.13,0-.24-.08-.29-.2l-.93-2.57h-4.53Zm2.27-6.05l-1.43,3.86h2.85l-1.43-3.86Z"/><path class="cls-1" d="M121.6,5.56c0-1.85,1.6-3.44,4.11-3.44,2,0,3.2,.94,3.66,1.38,.12,.12,.12,.31,0,.43l-1.13,1.13c-.11,.11-.3,.12-.42,.01-.32-.28-1-.77-1.95-.77-1.01,0-1.76,.59-1.76,1.26,0,2.18,5.96,.92,5.96,5.12,0,2.1-1.6,3.69-4.45,3.69-2.32,0-3.75-1.2-4.25-1.71-.12-.12-.12-.31,0-.43l1.09-1.09c.12-.12,.3-.12,.42,0,.38,.36,1.27,1.05,2.57,1.05s2.09-.67,2.09-1.51c0-2.18-5.95-.92-5.95-5.12"/><path class="cls-1" d="M140.88,2.67V7.07h-5.04V2.67c0-.17-.14-.3-.3-.3h-1.91c-.17,0-.3,.14-.3,.3V13.82c0,.17,.14,.3,.3,.3h1.91c.17,0,.3-.14,.3-.3v-4.48h5.04v4.48c0,.17,.14,.3,.3,.3h1.91c.17,0,.3-.14,.3-.3V2.67c0-.17-.14-.3-.3-.3h-1.91c-.17,0-.3,.14-.3,.3"/><path class="cls-1" d="M27.95,3.91c-1.27-2.42-3.81-3.91-6.53-3.91H.71C.08,0-.24,.77,.21,1.22L4.72,5.75c.4,.4,.94,.63,1.5,.63h14.6c.88,0,1.67,.59,1.86,1.46,.27,1.22-.65,2.31-1.82,2.31H10.8c-.63,0-.95,.77-.5,1.22l4.51,4.53c.4,.4,.94,.63,1.5,.63h4.55c5.92,0,10.4-6.33,7.09-12.61"/></g></g></svg>