<?xml version="1.0" encoding="UTF-8"?>
<svg id="Layer_2" data-name="Layer 2" xmlns="http://www.w3.org/2000/svg" xmlns:xlink="http://www.w3.org/1999/xlink" viewBox="0 0 970 250">
  <defs>
    <style>
      .cls-1 {
        fill: none;
      }

      .cls-1, .cls-2 {
        stroke-width: 0px;
      }

      .cls-3 {
        clip-path: url(#clippath-1);
      }

      .cls-4 {
        clip-path: url(#clippath);
      }

      .cls-2 {
        fill: #fff;
      }
    </style>
    <clipPath id="clippath">
      <rect class="cls-1" width="970" height="250"/>
    </clipPath>
    <clipPath id="clippath-1">
      <rect class="cls-1" width="970" height="250"/>
    </clipPath>
  </defs>
  <g id="Layer_1-2" data-name="Layer 1">
    <g class="cls-4">
      <g class="cls-3">
        <g>
          <path class="cls-2" d="M70.71,194.47c-1.66,0-3.34-.2-3.34-1.15,0-.47.27-.85.72-.85.71,0,1.86.28,2.62.28,1.39,0,2.11-.31,2.11-1.18,0-2.07-5.39.34-5.39-3.87,0-1.87,1.18-2.74,3.9-2.74,1.64,0,2.98.21,2.98,1.03,0,.51-.34.82-.79.82-.68,0-1.6-.2-2.33-.2-1.33,0-1.93.4-1.93,1.06,0,2.13,5.37-.24,5.37,3.76,0,1.99-1.09,3.02-3.93,3.02Z"/>
          <path class="cls-2" d="M78.04,189.93v1.87c0,.62.27,1.05,1.4,1.05.71,0,1.11-.14,1.67-.14.51,0,.69.31.69.78,0,.44-.2.68-.61.79-.2.06-.79.18-1.83.18-2.41,0-3.09-.85-3.09-2.59v-1.98c0-2.03.78-2.65,3.2-2.65,2.17,0,2.32.35,2.32.99,0,.45-.16.74-.67.74s-.92-.13-1.7-.13c-1.09,0-1.4.34-1.4,1.09Z"/>
          <path class="cls-2" d="M85.92,187.24c2.54,0,3.42.69,3.42,3.69s-.88,3.54-3.42,3.54-3.4-.54-3.4-3.54.84-3.69,3.4-3.69ZM85.92,192.9c1.28,0,1.66-.16,1.66-2s-.38-2.08-1.66-2.08-1.64.18-1.64,2.08.34,2,1.64,2Z"/>
          <path class="cls-2" d="M91.01,190.77c0-3.02.88-3.53,3.4-3.53s3.39.51,3.39,3.53-.81,3.7-3.39,3.7c-.48,0-1.21-.1-1.57-.18h-.04v1.81c0,.54-.42.74-.91.74s-.88-.2-.88-.74v-5.33ZM94.41,188.81c-1.18,0-1.64.14-1.64,1.99s.37,2.1,1.64,2.1,1.64-.2,1.64-2.1-.34-1.99-1.64-1.99Z"/>
          <path class="cls-2" d="M102.39,188.87c-.95,0-1.13.13-1.13,1.08v3.76c0,.52-.38.74-.86.74s-.89-.21-.89-.74v-3.9c0-2.17.69-2.57,2.92-2.57,1.45,0,1.81.34,1.81.88,0,.48-.27.81-.77.81-.28,0-.54-.06-1.08-.06Z"/>
          <path class="cls-2" d="M106.23,184.69c.55,0,1.01.45,1.01,1.01s-.45.99-1.01.99-.98-.44-.98-.99.43-1.01.98-1.01ZM107.11,193.7c0,.52-.4.74-.88.74s-.88-.21-.88-.74v-5.68c0-.53.4-.75.88-.75s.88.23.88.75v5.68Z"/>
          <path class="cls-2" d="M111.73,192.9c.43,0,.67-.04.96-.04.47,0,.67.24.67.7,0,.65-.31.92-1.9.92-1.35,0-2.01-.37-2.01-1.96v-3.52h-.69c-.5,0-.68-.34-.68-.81s.18-.81.68-.81h.69v-1.12c0-.51.4-.72.87-.72.5,0,.89.21.89.72v1.12h1.46c.5,0,.64.35.64.81s-.14.81-.64.81h-1.46v3.37c0,.4.24.52.52.52Z"/>
          <path class="cls-2" d="M120.52,193.48c0,.43-.13.65-.6.78-.28.09-1.19.21-2.31.21-2.54,0-3.36-.62-3.36-2.68v-1.84c0-2.17.92-2.71,3.3-2.71s3.08.6,3.08,2.67v.81c0,.61-.23.82-.75.82h-3.87v.35c0,.74.51,1.02,1.53,1.02.76,0,1.71-.13,2.24-.13s.74.16.74.69ZM116.01,190.13h2.89v-.31c0-.84-.31-1.05-1.45-1.05-1.06,0-1.45.18-1.45,1.05v.31Z"/>
          <path class="cls-2" d="M128.88,187.24c2.54,0,3.42.69,3.42,3.69s-.88,3.54-3.42,3.54-3.4-.54-3.4-3.54.84-3.69,3.4-3.69ZM128.88,192.9c1.28,0,1.66-.16,1.66-2s-.38-2.08-1.66-2.08-1.64.18-1.64,2.08.34,2,1.64,2Z"/>
          <path class="cls-2" d="M136.89,188.87c-.95,0-1.13.13-1.13,1.08v3.76c0,.52-.38.74-.86.74s-.89-.21-.89-.74v-3.9c0-2.17.69-2.57,2.92-2.57,1.45,0,1.81.34,1.81.88,0,.48-.27.81-.77.81-.28,0-.54-.06-1.08-.06Z"/>
          <path class="cls-2" d="M139.48,188.22c0-.64.54-.98,2.67-.98,2.62,0,3.27.41,3.27,2.34v2.68c0,1.87-.84,2.21-3.27,2.21s-3.06-.34-3.06-2.25c0-1.57.38-2.21,2.98-2.21h1.62v-.28c0-.69-.27-.86-1.33-.86s-1.7.17-2.11.17c-.55,0-.75-.31-.75-.81ZM143.68,191.44h-1.72c-.98,0-1.16.17-1.16.72,0,.6.21.77,1.4.77s1.47-.14,1.47-.54v-.95Z"/>
        </g>
        <path class="cls-2" d="M163,214H50v-48.84h113v48.84ZM51.42,212.58h110.17v-46.01H51.42v46.01Z"/>
      </g>
    </g>
  </g>
</svg>