<?xml version="1.0" encoding="UTF-8"?><svg id="Layer_3" xmlns="http://www.w3.org/2000/svg" xmlns:xlink="http://www.w3.org/1999/xlink" viewBox="0 0 1200 180"><defs><style>.cls-1{fill:none;}.cls-2{clip-path:url(#clippath);}.cls-3{fill:#ecfbfb;}.cls-4{fill:#ff3008;}.cls-5{fill:#27346b;}.cls-6{fill:#c6e6f5;fill-rule:evenodd;}</style><clipPath id="clippath"><rect class="cls-1" x="705.51" y="-.8" width="494.95" height="170.52"/></clipPath></defs><rect class="cls-3" x="-3.51" y="-2.19" width="1205.05" height="172.74"/><g class="cls-2"><polygon class="cls-6" points="941.57 55.45 937.36 47.34 931.59 47.34 927.39 55.45 927.39 71.95 919.99 71.95 919.99 46.09 911.65 46.09 910.93 46.09 909.43 46.09 909.43 76.48 901.59 76.48 901.59 59.81 897.76 59.81 897.76 58.27 894.9 58.27 894.18 58.27 891.99 58.27 891.99 59.81 888.16 59.81 888.16 78.34 885.85 78.34 885.85 50.41 872.42 50.41 872.42 78.34 869.79 78.34 869.79 45.13 865.57 43 864.49 43 864.49 41.19 856.43 41.19 856.43 43 855.69 43 851.65 45.13 851.65 73.7 849.36 73.7 849.36 62.26 842.14 57.03 831.99 57.03 831.99 79.54 829.18 79.54 829.18 64.34 813.18 64.34 813.18 69.72 809.86 69.72 809.86 54.53 796.88 54.53 796.88 78.86 792.33 78.86 786.92 78.86 786.92 107.64 786.92 100.57 773.95 100.57 773.95 132.18 769.12 132.18 769.12 123.9 757.92 123.9 757.92 163.01 753.43 163.01 753.43 151.38 740.46 151.38 740.46 162.38 740.46 246.66 736.22 246.66 732.84 246.66 732.84 235.07 723.48 235.07 723.48 252.17 718.65 252.17 718.65 219.41 701.76 215.85 701.76 257.94 699.01 257.94 699.01 228.75 696.72 228.75 696.72 227.66 690.37 227.66 690.37 228.75 688.09 228.75 688.09 247.73 684.98 247.73 684.98 228.75 675.63 228.75 675.63 245.53 674.04 245.53 674.04 223.83 669.41 223.83 669.41 222.3 661.43 222.3 661.43 223.83 658.23 223.83 658.23 244.83 655.38 244.83 655.38 232.41 653.59 230.93 642.35 230.93 641.43 232.41 637.98 232.41 637.98 244.83 634.06 244.83 634.06 213.54 631.9 213.54 631.9 212.4 625.03 212.4 623.25 213.54 620.63 213.54 620.63 215.54 614.15 215.54 614.15 227.12 597.96 227.12 597.96 241.24 595.2 241.24 595.2 219.8 575.98 219.8 575.98 236.05 573.26 236.05 573.26 231 560.28 231 560.28 235.94 558.63 235.94 558.63 218.32 545.65 218.32 545.65 251.4 542.33 251.4 542.33 224.28 529.36 224.28 529.36 229.66 523.63 229.66 523.63 212.93 523.63 209.97 523.63 207.57 516.17 207.57 516.17 209.97 506.42 209.97 506.42 240.38 501.6 240.38 501.6 234.8 488.15 234.8 488.15 240.32 485.9 240.32 485.9 217.17 483.15 213.88 468.85 218.54 468.85 246.85 466.48 246.85 466.48 235.07 453.54 235.07 453.54 246.85 451.13 246.85 451.13 231.13 444.7 224.11 434.23 224.11 434.23 355.16 1365.96 329.39 1365.96 79.54 1363.57 79.54 1363.57 61.54 1350.6 61.54 1350.6 69.72 1347.28 69.72 1347.28 54.53 1334.3 54.53 1334.3 78.86 1331.35 78.86 1331.35 71.79 1295.53 71.79 1295.53 81.81 1290.7 81.81 1290.7 61.73 1279.5 61.73 1275.01 73.32 1275.01 54.04 1268.87 54.04 1268.87 71.02 1266.68 71.02 1264.64 67.44 1263.92 67.44 1263.92 81.47 1261.25 81.47 1261.25 61.11 1249.48 61.11 1249.48 68.42 1247.07 68.42 1247.07 45.44 1231 41.88 1231 83.97 1229.21 83.97 1229.21 54.78 1226.91 54.78 1226.91 53.69 1218.78 53.69 1218.78 54.78 1216.51 54.78 1216.51 73.76 1213.4 73.76 1213.4 64.81 1213.05 64.81 1208.75 67.27 1208.75 49.86 1206.83 49.86 1206.83 48.33 1205.3 48.33 1205.3 45.38 1200.91 45.38 1200.91 48.33 1199.67 48.33 1199.67 49.86 1197.28 49.86 1197.28 69.93 1189.89 69.93 1189.89 58.44 1188.1 58.44 1188.1 56.96 1183.69 56.96 1182.77 58.44 1179.33 58.44 1179.33 75.04 1174.74 75.04 1174.74 50.61 1172.58 50.61 1172.58 44.97 1162.45 44.97 1160.68 50.61 1158.05 50.61 1158.05 78.34 1150.37 78.34 1150.37 53.16 1136.94 53.16 1136.94 78.34 1132.41 78.34 1132.41 45.84 1130.21 45.84 1125.82 41.66 1121.43 45.84 1118.62 45.84 1118.62 78.34 1110.68 78.34 1110.68 57.03 1097.71 57.03 1096.05 44.35 1083.07 44.35 1083.07 77.43 1079.75 77.43 1079.75 50.31 1073.41 50.31 1073.41 52.25 1067.68 52.25 1067.54 55.97 1059.36 55.97 1059.36 53.16 1057.79 53.16 1057.79 51.21 1043.3 51.21 1043.3 53.16 1041.69 53.16 1041.69 71.75 1035.3 71.75 1035.3 45.84 1030.8 45.84 1030.8 44.3 1025.69 44.3 1025.69 45.84 1021.19 45.84 1021.19 74.26 1018.48 69.87 1018.48 48.57 1017.11 48.57 1017.11 47.03 1008.42 47.03 1008.42 48.57 1005.5 48.57 1003.84 34.94 990.87 34.94 990.87 70.95 987.55 70.95 987.55 50.31 974.57 50.31 971.05 57.03 968.01 57.03 966.54 61.11 943.15 61.11 941.57 62.32 941.57 55.45 941.57 55.45"/></g><g><polygon class="cls-4" points="861.86 99.64 886.51 185.32 892.18 185.32 861.86 93.44 831.54 185.32 837.21 185.32 861.86 99.64"/><rect class="cls-5" x="817.37" y="164.67" width="91.01" height="4.39"/></g></svg>