<?xml version="1.0" encoding="UTF-8"?><svg id="Layer_3" xmlns="http://www.w3.org/2000/svg" xmlns:xlink="http://www.w3.org/1999/xlink" viewBox="0 0 1200 180"><defs><style>.cls-1,.cls-2{fill:none;}.cls-3{clip-path:url(#clippath);}.cls-2{stroke:#ff3008;stroke-miterlimit:10;stroke-width:.4px;}.cls-4,.cls-5{fill:#fff;}.cls-6{fill:#fbf6fa;}.cls-7{fill:#ff3008;}.cls-8{fill:#27346b;}.cls-9{fill:#273479;}.cls-10{clip-path:url(#clippath-2);}.cls-5{fill-rule:evenodd;}</style><clipPath id="clippath"><rect class="cls-1" x="925.81" y="11.6" width="284.73" height="194.05"/></clipPath><clipPath id="clippath-2"><polygon class="cls-1" points="941.07 191.23 888.32 191.23 890.11 4.43 942.86 4.43 941.07 191.23"/></clipPath></defs><g class="cls-3"><g><g><path class="cls-9" d="M1302.44,155.15v-.83h-19.32v-13.31c6.86-2.57,13.05-5.41,18.6-8.37v-1.79c-5.53,2.98-11.72,5.86-18.6,8.47v-2.06c6.88-2.66,13.07-5.59,18.6-8.62v-1.8c-15.26,8.47-35.7,16.24-62.15,19.54-.72-.63-1.66-1.01-2.69-1.01s-1.95,.37-2.67,.99c-40.84-5.13-67.34-20.9-82.53-33.46-17.03-14.08-23.91-27.25-23.98-27.39l-1.41,.72c.04,.08,2.33,4.47,7.49,10.88v2.58c-5.28-6.49-7.62-10.96-7.66-11.04l-1.41,.72c.04,.08,2.79,5.36,9.06,12.79v52.13h-4.29v.83h4.29v3.15h-4.29v3.33h172.94v-3.33h-2.2v-3.15h2.2Zm-19.79-.83h-10.86v-9.51c3.79-1.12,7.41-2.34,10.86-3.62v13.13Zm-125.87-31.17c3.31,2.34,6.98,4.72,11.03,7.06v24.11h-11.03v-31.17Zm-.47,31.17h-11.03v-40.33c1.19,1.07,2.45,2.15,3.76,3.24,2.19,1.81,4.61,3.69,7.27,5.59v31.51Zm103.67-8.06c-3.64,.82-7.43,1.56-11.35,2.2v-1.81c3.93-.67,7.71-1.43,11.35-2.28v1.89Zm.47-2c3.77-.89,7.39-1.87,10.86-2.92v1.97c-3.47,1.03-7.09,1.98-10.86,2.85v-1.89Zm-12.3,4.28c-2.34,.38-4.72,.72-7.16,1.02,0-.02,0-.04,0-.06,0-.59-.12-1.14-.34-1.65,2.56-.33,5.06-.7,7.5-1.11v1.8Zm-15.37,1c-2.38-.3-4.71-.63-7-1v-1.8c2.4,.4,4.85,.77,7.35,1.09-.23,.51-.35,1.07-.35,1.67,0,.01,0,.03,0,.04Zm-7.47-1.08c-3.93-.64-7.71-1.38-11.35-2.2v-1.89c3.64,.85,7.43,1.62,11.35,2.28v1.81Zm-11.82-2.31c-3.77-.86-7.39-1.82-10.86-2.85v-1.97c3.47,1.05,7.09,2.03,10.86,2.93v1.89Zm-11.34-2.99c-3.8-1.14-7.42-2.36-10.86-3.66v-2.05c3.45,1.32,7.07,2.57,10.86,3.74v1.97Zm-11.34-3.84c-3.89-1.48-7.57-3.04-11.03-4.66v-2.14c3.46,1.65,7.13,3.24,11.03,4.75v2.06Zm-11.5-4.88c-3.96-1.87-7.63-3.81-11.03-5.79v-2.24c3.4,2,7.07,3.97,11.03,5.88v2.15Zm-11.5-6.06c-4.07-2.38-7.74-4.8-11.03-7.17v-2.34c3.29,2.4,6.96,4.85,11.03,7.27v2.24Zm.47,2.1c3.41,1.95,7.08,3.87,11.03,5.71v18.13h-11.03v-23.84Zm11.5,5.93c3.46,1.6,7.14,3.15,11.03,4.61v13.31h-11.03v-17.91Zm11.5,4.78c3.45,1.28,7.07,2.5,10.86,3.62v9.51h-10.86v-13.13Zm11.34,3.76c3.48,1.02,7.1,1.96,10.86,2.82v6.55h-10.86v-9.37Zm11.34,2.93c3.65,.82,7.43,1.55,11.35,2.18v4.26h-11.35v-6.44Zm11.82,2.26c2.4,.38,4.85,.73,7.36,1.03,.32,.71,.83,1.31,1.47,1.74h-1.45v1.41h-7.38v-4.18Zm13.38,2.77c.63-.42,1.14-1.02,1.46-1.72,2.57-.31,5.08-.66,7.53-1.06v4.18h-7.54v-1.41h-1.45Zm9.47-2.85c3.92-.64,7.71-1.37,11.35-2.18v6.44h-11.35v-4.26Zm11.82-2.29c3.77-.86,7.39-1.8,10.86-2.82v9.37h-10.86v-6.55Zm22.2-8.27c-3.45,1.3-7.07,2.52-10.86,3.66v-1.97c3.8-1.16,7.42-2.42,10.86-3.74v2.05Zm-126.35-20.98v2.34c-2.24-1.63-4.3-3.24-6.19-4.8-1.71-1.42-3.32-2.82-4.83-4.21v-2.45c1.66,1.54,3.43,3.1,5.33,4.67,1.75,1.45,3.64,2.94,5.69,4.45Zm-22.04-20.81c2.73,3.34,6.22,7.19,10.54,11.25v2.45c-4.32-4-7.8-7.81-10.54-11.12v-2.58Zm0,5.03c2.82,3.29,6.31,6.98,10.54,10.81v40.76h-10.54v-51.57Zm.85,55.56h-.85v-3.15h.85v3.15Zm3.82,0h-3.05v-3.15h3.05v3.15Zm3.82,0h-3.05v-3.15h3.05v3.15Zm.76,0v-3.15h1.29v3.15h-1.29Zm3.05,0h-1.29v-3.15h1.29v3.15Zm3.82,0h-3.05v-3.15h3.05v3.15Zm3.82,0h-3.05v-3.15h3.05v3.15Zm.76,0v-3.15h1.34v3.15h-1.34Zm3.05,0h-1.24v-3.15h1.24v3.15Zm3.82,0h-3.05v-3.15h3.05v3.15Zm3.82,0h-3.05v-3.15h3.05v3.15Zm.76,0v-3.15h1.39v3.15h-1.39Zm3.05,0h-1.19v-3.15h1.19v3.15Zm3.82,0h-3.05v-3.15h3.05v3.15Zm3.82,0h-3.05v-3.15h3.05v3.15Zm.76,0v-3.15h1.44v3.15h-1.44Zm3.05,0h-1.14v-3.15h1.14v3.15Zm3.82,0h-3.05v-3.15h3.05v3.15Zm3.82,0h-3.05v-3.15h3.05v3.15Zm.76,0v-3.15h1.49v3.15h-1.49Zm3.05,0h-1.09v-3.15h1.09v3.15Zm3.82,0h-3.05v-3.15h3.05v3.15Zm3.82,0h-3.05v-3.15h3.05v3.15Zm.76,0v-3.15h1.38v3.15h-1.38Zm3.05,0h-1.2v-3.15h1.2v3.15Zm3.82,0h-3.05v-3.15h3.05v3.15Zm3.82,0h-3.05v-3.15h3.05v3.15Zm.76,0v-3.15h1.27v3.15h-1.27Zm3.05,0h-1.31v-3.15h1.31v3.15Zm3.82,0h-3.05v-3.15h3.05v3.15Zm3.82,0h-3.05v-3.15h3.05v3.15Zm.76,0v-3.15h1.64v3.15h-1.64Zm3.36,0h-1.24v-3.15h1.24v3.15Zm3.82,0h-3.05v-3.15h3.05v3.15Zm.76-3.15h1.55v3.15h-1.55v-3.15Zm10.62,3.15h-1.61v-3.15h1.61v3.15Zm3.82,0h-3.05v-3.15h3.05v3.15Zm.76,0v-3.15h1.35v3.15h-1.35Zm3.05,0h-1.23v-3.15h1.23v3.15Zm3.82,0h-3.05v-3.15h3.05v3.15Zm3.82,0h-3.05v-3.15h3.05v3.15Zm.76,0v-3.15h1.72v3.15h-1.72Zm3.05,0h-.86v-3.15h.86v3.15Zm3.82,0h-3.05v-3.15h3.05v3.15Zm3.82,0h-3.05v-3.15h3.05v3.15Zm.76,0v-3.15h1.61v3.15h-1.61Zm3.05,0h-.97v-3.15h.97v3.15Zm3.82,0h-3.05v-3.15h3.05v3.15Zm3.82,0h-3.05v-3.15h3.05v3.15Zm.76,0v-3.15h1.5v3.15h-1.5Zm3.05,0h-1.08v-3.15h1.08v3.15Zm3.82,0h-3.05v-3.15h3.05v3.15Zm3.82,0h-3.05v-3.15h3.05v3.15Zm3.82,0h-3.05v-3.15h3.05v3.15Zm3.82,0h-3.05v-3.15h3.05v3.15Z"/><g><path class="cls-9" d="M793.62,155.15v3.15h-2.2v3.33h172.94v-3.33h-4.29v-3.15h4.29v-.83h-4.29v-52.13c6.27-7.43,9.02-12.71,9.06-12.79l-1.41-.72c-.04,.08-2.37,4.55-7.66,11.04v-2.58c5.16-6.41,7.45-10.8,7.49-10.88l-1.41-.72c-.07,.13-6.95,13.31-23.98,27.39-15.19,12.55-41.68,28.32-82.53,33.46-.72-.62-1.65-.99-2.67-.99s-1.97,.38-2.69,1.01c-26.45-3.31-46.89-11.07-62.15-19.54v1.8c5.53,3.03,11.72,5.96,18.6,8.62v2.06c-6.88-2.61-13.06-5.49-18.6-8.47v1.79c5.55,2.95,11.74,5.79,18.6,8.37v13.31h-19.32v.83h2.2Zm17.59-13.96c3.45,1.28,7.07,2.5,10.86,3.62v9.51h-10.86v-13.13Zm125.87,13.13h-11.03v-24.11c4.05-2.34,7.72-4.71,11.03-7.06v31.17Zm.47-31.51c2.66-1.9,5.08-3.78,7.27-5.59,1.31-1.09,2.56-2.17,3.76-3.24v40.33h-11.03v-31.51Zm-103.67,21.56c3.64,.85,7.42,1.62,11.35,2.28v1.81c-3.93-.64-7.71-1.38-11.35-2.2v-1.89Zm-.47,1.78c-3.77-.86-7.39-1.82-10.86-2.85v-1.97c3.47,1.05,7.09,2.03,10.86,2.92v1.89Zm12.3,.58c2.45,.41,4.95,.78,7.5,1.11-.22,.5-.34,1.06-.34,1.65,0,.02,0,.04,0,.06-2.44-.3-4.83-.64-7.16-1.02v-1.8Zm15.37,2.76c0-.59-.13-1.16-.35-1.67,2.5-.33,4.95-.69,7.35-1.09v1.8c-2.28,.37-4.62,.7-7,1,0-.01,0-.03,0-.04Zm7.47-2.84c3.93-.67,7.71-1.43,11.35-2.28v1.89c-3.64,.82-7.43,1.56-11.35,2.2v-1.81Zm11.82-2.39c3.77-.89,7.39-1.87,10.86-2.93v1.97c-3.47,1.03-7.09,1.98-10.86,2.85v-1.89Zm11.34-3.07c3.8-1.16,7.42-2.42,10.86-3.74v2.05c-3.45,1.29-7.07,2.52-10.86,3.66v-1.97Zm11.34-3.92c3.9-1.51,7.57-3.1,11.03-4.75v2.14c-3.46,1.62-7.13,3.18-11.03,4.66v-2.06Zm11.5-4.97c3.96-1.9,7.63-3.88,11.03-5.88v2.24c-3.4,1.97-7.07,3.92-11.03,5.79v-2.15Zm11.5-6.16c4.07-2.42,7.74-4.87,11.03-7.27v2.34c-3.29,2.37-6.96,4.79-11.03,7.17v-2.24Zm-.47,28.18h-11.03v-18.13c3.95-1.84,7.62-3.76,11.03-5.71v23.84Zm-11.5,0h-11.03v-13.31c3.89-1.46,7.56-3,11.03-4.61v17.91Zm-11.5,0h-10.86v-9.51c3.79-1.12,7.41-2.34,10.86-3.62v13.13Zm-11.34,0h-10.86v-6.55c3.77-.86,7.39-1.8,10.86-2.82v9.37Zm-11.34,0h-11.35v-4.26c3.92-.64,7.71-1.37,11.35-2.18v6.44Zm-11.82,0h-7.38v-1.41h-1.45c.64-.43,1.15-1.03,1.47-1.74,2.5-.31,4.96-.65,7.36-1.03v4.18Zm-14.83-1.41v1.41h-7.54v-4.18c2.46,.39,4.97,.74,7.53,1.06,.32,.7,.83,1.29,1.46,1.72h-1.45Zm-8.01,1.41h-11.35v-6.44c3.64,.82,7.43,1.55,11.35,2.18v4.26Zm-11.82,0h-10.86v-9.37c3.48,1.02,7.1,1.96,10.86,2.82v6.55Zm-22.2-16.87c3.45,1.32,7.07,2.57,10.86,3.74v1.97c-3.8-1.14-7.42-2.36-10.86-3.66v-2.05Zm132.04-23.37c1.9-1.57,3.68-3.14,5.33-4.67v2.45c-1.51,1.39-3.12,2.79-4.83,4.21-1.89,1.56-3.95,3.17-6.19,4.8v-2.34c2.05-1.51,3.95-3,5.69-4.45Zm16.35-13.78c-2.74,3.32-6.23,7.12-10.54,11.12v-2.45c4.33-4.05,7.81-7.9,10.54-11.25v2.58Zm0,54.03h-10.54v-40.76c4.23-3.83,7.73-7.52,10.54-10.81v51.57Zm-.85,.83h.85v3.15h-.85v-3.15Zm-3.82,0h3.05v3.15h-3.05v-3.15Zm-3.82,0h3.05v3.15h-3.05v-3.15Zm-2.06,3.15v-3.15h1.29v3.15h-1.29Zm-1.76-3.15h1.29v3.15h-1.29v-3.15Zm-3.82,0h3.05v3.15h-3.05v-3.15Zm-3.82,0h3.05v3.15h-3.05v-3.15Zm-2.11,3.15v-3.15h1.34v3.15h-1.34Zm-1.71-3.15h1.24v3.15h-1.24v-3.15Zm-3.82,0h3.05v3.15h-3.05v-3.15Zm-3.82,0h3.05v3.15h-3.05v-3.15Zm-2.16,3.15v-3.15h1.39v3.15h-1.39Zm-1.66-3.15h1.19v3.15h-1.19v-3.15Zm-3.82,0h3.05v3.15h-3.05v-3.15Zm-3.82,0h3.05v3.15h-3.05v-3.15Zm-2.21,3.15v-3.15h1.44v3.15h-1.44Zm-1.61-3.15h1.14v3.15h-1.14v-3.15Zm-3.82,0h3.05v3.15h-3.05v-3.15Zm-3.82,0h3.05v3.15h-3.05v-3.15Zm-2.26,3.15v-3.15h1.49v3.15h-1.49Zm-1.56-3.15h1.09v3.15h-1.09v-3.15Zm-3.82,0h3.05v3.15h-3.05v-3.15Zm-3.82,0h3.05v3.15h-3.05v-3.15Zm-2.14,3.15v-3.15h1.38v3.15h-1.38Zm-1.67-3.15h1.2v3.15h-1.2v-3.15Zm-3.82,0h3.05v3.15h-3.05v-3.15Zm-3.82,0h3.05v3.15h-3.05v-3.15Zm-2.03,3.15v-3.15h1.27v3.15h-1.27Zm-1.79-3.15h1.31v3.15h-1.31v-3.15Zm-3.82,0h3.05v3.15h-3.05v-3.15Zm-3.82,0h3.05v3.15h-3.05v-3.15Zm-2.4,3.15v-3.15h1.64v3.15h-1.64Zm-1.72-3.15h1.24v3.15h-1.24v-3.15Zm-3.82,0h3.05v3.15h-3.05v-3.15Zm-.76,3.15h-1.55v-3.15h1.55v3.15Zm-10.62-3.15h1.61v3.15h-1.61v-3.15Zm-3.82,0h3.05v3.15h-3.05v-3.15Zm-2.11,3.15v-3.15h1.35v3.15h-1.35Zm-1.7-3.15h1.23v3.15h-1.23v-3.15Zm-3.82,0h3.05v3.15h-3.05v-3.15Zm-3.82,0h3.05v3.15h-3.05v-3.15Zm-2.49,3.15v-3.15h1.72v3.15h-1.72Zm-1.33-3.15h.86v3.15h-.86v-3.15Zm-3.82,0h3.05v3.15h-3.05v-3.15Zm-3.82,0h3.05v3.15h-3.05v-3.15Zm-2.37,3.15v-3.15h1.61v3.15h-1.61Zm-1.44-3.15h.97v3.15h-.97v-3.15Zm-3.82,0h3.05v3.15h-3.05v-3.15Zm-3.82,0h3.05v3.15h-3.05v-3.15Zm-2.26,3.15v-3.15h1.5v3.15h-1.5Zm-1.56-3.15h1.08v3.15h-1.08v-3.15Zm-3.82,0h3.05v3.15h-3.05v-3.15Zm-3.82,0h3.05v3.15h-3.05v-3.15Zm-3.82,0h3.05v3.15h-3.05v-3.15Zm-3.82,0h3.05v3.15h-3.05v-3.15Z"/><circle class="cls-4" cx="856.97" cy="149.49" r="2.21"/></g></g><g><g><g><rect class="cls-9" x="1012.73" y="71.31" width=".89" height="11.24" transform="translate(351.13 -693.88) rotate(45)"/><rect class="cls-9" x="1012.73" y="71.31" width=".89" height="11.24" transform="translate(242.34 738.94) rotate(-45)"/></g><g><rect class="cls-9" x="1004.89" y="71.31" width=".89" height="11.24" transform="translate(348.84 -688.34) rotate(45)"/><rect class="cls-9" x="1004.89" y="71.31" width=".89" height="11.24" transform="translate(240.06 733.42) rotate(-45)"/></g><g><rect class="cls-9" x="997.06" y="71.31" width=".89" height="11.24" transform="translate(346.54 -682.8) rotate(45)"/><rect class="cls-9" x="997.06" y="71.31" width=".89" height="11.24" transform="translate(237.75 727.86) rotate(-45)"/></g></g><g><g><rect class="cls-9" x="1036.41" y="71.31" width=".89" height="11.24" transform="translate(358.07 -710.62) rotate(45)"/><rect class="cls-9" x="1036.41" y="71.31" width=".89" height="11.24" transform="translate(249.28 755.68) rotate(-45)"/></g><g><rect class="cls-9" x="1028.58" y="71.31" width=".89" height="11.24" transform="translate(355.79 -705.1) rotate(45)"/><rect class="cls-9" x="1028.58" y="71.31" width=".89" height="11.24" transform="translate(247 750.16) rotate(-45)"/></g><g><rect class="cls-9" x="1020.74" y="71.31" width=".89" height="11.24" transform="translate(353.48 -699.54) rotate(45)"/><rect class="cls-9" x="1020.74" y="71.31" width=".89" height="11.24" transform="translate(244.68 744.6) rotate(-45)"/></g></g><g><g><rect class="cls-9" x="1067.59" y="71.31" width=".89" height="11.24" transform="translate(1877.66 -623.87) rotate(135)"/><rect class="cls-9" x="1067.59" y="71.31" width=".89" height="11.24" transform="translate(1768.87 886.52) rotate(-135)"/></g><g><rect class="cls-9" x="1075.42" y="71.31" width=".89" height="11.24" transform="translate(1891.02 -629.43) rotate(135)"/><rect class="cls-9" x="1075.42" y="71.31" width=".89" height="11.24" transform="translate(1782.25 892.06) rotate(-135)"/></g><g><rect class="cls-9" x="1083.26" y="71.31" width=".89" height="11.24" transform="translate(1904.41 -634.95) rotate(135)"/><rect class="cls-9" x="1083.26" y="71.31" width=".89" height="11.24" transform="translate(1795.62 897.6) rotate(-135)"/></g></g><g><g><rect class="cls-9" x="1091.29" y="71.31" width=".89" height="11.24" transform="translate(1918.12 -640.63) rotate(135)"/><rect class="cls-9" x="1091.29" y="71.31" width=".89" height="11.24" transform="translate(1809.34 903.28) rotate(-135)"/></g><g><rect class="cls-9" x="1099.12" y="71.31" width=".89" height="11.24" transform="translate(1931.48 -646.19) rotate(135)"/><rect class="cls-9" x="1099.12" y="71.31" width=".89" height="11.24" transform="translate(1822.71 908.82) rotate(-135)"/></g><g><rect class="cls-9" x="1106.96" y="71.31" width=".89" height="11.24" transform="translate(1944.88 -651.71) rotate(135)"/><rect class="cls-9" x="1106.96" y="71.31" width=".89" height="11.24" transform="translate(1836.08 914.36) rotate(-135)"/></g></g><g><g><rect class="cls-9" x="1044.19" y="71.31" width=".89" height="11.24" transform="translate(1837.72 -607.32) rotate(135)"/><rect class="cls-9" x="1044.19" y="71.31" width=".89" height="11.24" transform="translate(1728.91 869.99) rotate(-135)"/></g><g><rect class="cls-9" x="1052.02" y="71.31" width=".89" height="11.24" transform="translate(1851.09 -612.86) rotate(135)"/><rect class="cls-9" x="1052.02" y="71.31" width=".89" height="11.24" transform="translate(1742.3 875.52) rotate(-135)"/></g><g><rect class="cls-9" x="1059.86" y="71.31" width=".89" height="11.24" transform="translate(1864.47 -618.4) rotate(135)"/><rect class="cls-9" x="1059.86" y="71.31" width=".89" height="11.24" transform="translate(1755.68 881.06) rotate(-135)"/></g></g><rect class="cls-9" x="995.53" y="71.91" width="102.79" height="1.76"/><rect class="cls-9" x="995.53" y="80.32" width="102.79" height="1.76"/></g><polygon class="cls-7" points="981.65 30.08 971.4 61.13 991.9 61.13 981.65 30.08"/><polygon class="cls-7" points="989.27 48.95 989.75 48.95 997.89 48.95 998.37 48.95 998.37 51.75 997.44 51.75 997.44 167.64 990.2 167.64 990.2 51.75 989.27 51.75 989.27 48.95"/><polygon class="cls-7" points="993.79 37.53 990.18 49.14 997.41 49.14 993.79 37.53"/><rect class="cls-7" x="970.4" y="59.27" width="22.12" height="108.37" transform="translate(1962.92 226.91) rotate(180)"/><g><rect class="cls-4" x="974.64" y="95.76" width="13.65" height="7.27" transform="translate(1962.92 198.79) rotate(180)"/><g><rect class="cls-9" x="984.56" y="96.4" width="3.07" height="5.85" transform="translate(1972.2 198.65) rotate(180)"/><rect class="cls-9" x="979.96" y="96.4" width="3.07" height="5.85" transform="translate(1963 198.65) rotate(180)"/><rect class="cls-9" x="975.36" y="96.4" width="3.07" height="5.85" transform="translate(1953.8 198.65) rotate(180)"/></g></g><g><rect class="cls-4" x="974.64" y="117.75" width="13.65" height="7.27" transform="translate(1962.92 242.76) rotate(180)"/><g><rect class="cls-9" x="984.56" y="118.39" width="3.07" height="5.85" transform="translate(1972.2 242.62) rotate(180)"/><rect class="cls-9" x="979.96" y="118.39" width="3.07" height="5.85" transform="translate(1963 242.62) rotate(180)"/><rect class="cls-9" x="975.36" y="118.39" width="3.07" height="5.85" transform="translate(1953.8 242.62) rotate(180)"/></g></g><polygon class="cls-4" points="981.65 45.25 986.54 49.49 986.54 59.82 976.76 59.82 976.76 49.49 981.65 45.25"/><g><rect class="cls-9" x="978.22" y="54.14" width="3.17" height="4.52"/><rect class="cls-9" x="978.22" y="50.26" width="3.17" height="3.09"/></g><g><rect class="cls-9" x="982.13" y="54.14" width="3.17" height="4.52"/><rect class="cls-9" x="982.13" y="50.26" width="3.17" height="3.09"/></g><polygon class="cls-7" points="964.56 48.95 965.04 48.95 973.18 48.95 973.66 48.95 973.66 51.75 972.73 51.75 972.73 167.64 965.49 167.64 965.49 51.75 964.56 51.75 964.56 48.95"/><g><rect class="cls-9" x="965.02" y="67.52" width="32.87" height="1.26" transform="translate(1962.92 136.3) rotate(180)"/><g><rect class="cls-9" x="965.02" y="86.06" width="32.87" height="1.26" transform="translate(1962.92 173.37) rotate(180)"/><rect class="cls-9" x="965.02" y="91.53" width="32.87" height="1.26" transform="translate(1962.92 184.32) rotate(180)"/></g><g><rect class="cls-9" x="965.02" y="108.38" width="32.87" height="1.26" transform="translate(1962.92 218.02) rotate(180)"/><rect class="cls-9" x="965.02" y="113.86" width="32.87" height="1.26" transform="translate(1962.92 228.98) rotate(180)"/></g><g><rect class="cls-9" x="965.02" y="130.71" width="32.87" height="1.26" transform="translate(1962.92 262.68) rotate(180)"/><rect class="cls-9" x="965.02" y="136.19" width="32.87" height="1.26" transform="translate(1962.92 273.63) rotate(180)"/></g></g><rect class="cls-8" x="961.46" y="154.32" width="40" height="29.59" transform="translate(1962.92 338.23) rotate(180)"/><polygon class="cls-7" points="969.08 37.53 965.47 49.14 972.7 49.14 969.08 37.53"/><g><rect class="cls-4" x="974.64" y="71.39" width="13.65" height="12.03" transform="translate(1962.92 154.8) rotate(180)"/><rect class="cls-9" x="975.58" y="76.19" width="3.22" height="6.45" transform="translate(1954.38 158.82) rotate(180)"/><rect class="cls-9" x="979.86" y="76.19" width="3.22" height="6.45" transform="translate(1962.94 158.82) rotate(180)"/><rect class="cls-9" x="984.14" y="76.19" width="3.22" height="6.45" transform="translate(1971.51 158.82) rotate(180)"/><rect class="cls-9" x="975.58" y="72.15" width="3.22" height="3.16" transform="translate(1954.38 147.45) rotate(180)"/><rect class="cls-9" x="979.86" y="72.15" width="3.22" height="3.16" transform="translate(1962.94 147.45) rotate(180)"/><rect class="cls-9" x="984.14" y="72.15" width="3.22" height="3.16" transform="translate(1971.51 147.45) rotate(180)"/></g><g><rect class="cls-4" x="974.64" y="139.97" width="13.65" height="12.03" transform="translate(1962.92 291.97) rotate(180)"/><rect class="cls-9" x="975.58" y="144.77" width="3.22" height="6.45" transform="translate(1954.38 295.98) rotate(180)"/><rect class="cls-9" x="979.86" y="144.77" width="3.22" height="6.45" transform="translate(1962.94 295.98) rotate(180)"/><rect class="cls-9" x="984.14" y="144.77" width="3.22" height="6.45" transform="translate(1971.51 295.98) rotate(180)"/><rect class="cls-9" x="975.58" y="140.73" width="3.22" height="3.16" transform="translate(1954.38 284.62) rotate(180)"/><rect class="cls-9" x="979.86" y="140.73" width="3.22" height="3.16" transform="translate(1962.94 284.62) rotate(180)"/><rect class="cls-9" x="984.14" y="140.73" width="3.22" height="3.16" transform="translate(1971.51 284.62) rotate(180)"/></g><path class="cls-9" d="M997.03,158.31v3.27h99.78v-3.27h-5.62v-3.15h5.62v-.83h-99.78v.83h5.62v3.15h-5.62Zm90.35-3.15h3.05v3.15h-3.05v-3.15Zm-3.82,0h3.05v3.15h-3.05v-3.15Zm-3.82,0h3.05v3.15h-3.05v-3.15Zm-3.82,0h3.05v3.15h-3.05v-3.15Zm-3.82,0h3.05v3.15h-3.05v-3.15Zm-3.82,0h3.05v3.15h-3.05v-3.15Zm-3.82,0h3.05v3.15h-3.05v-3.15Zm-3.82,0h3.05v3.15h-3.05v-3.15Zm-3.82,0h3.05v3.15h-3.05v-3.15Zm-3.82,0h3.05v3.15h-3.05v-3.15Zm-3.82,0h3.05v3.15h-3.05v-3.15Zm-3.82,0h3.05v3.15h-3.05v-3.15Zm-3.82,0h3.05v3.15h-3.05v-3.15Zm-3.82,0h3.05v3.15h-3.05v-3.15Zm-3.82,0h3.05v3.15h-3.05v-3.15Zm-3.82,0h3.05v3.15h-3.05v-3.15Zm-3.82,0h3.05v3.15h-3.05v-3.15Zm-3.82,0h3.05v3.15h-3.05v-3.15Zm-3.82,0h3.05v3.15h-3.05v-3.15Zm-3.82,0h3.05v3.15h-3.05v-3.15Zm-3.82,0h3.05v3.15h-3.05v-3.15Zm-3.82,0h3.05v3.15h-3.05v-3.15Zm-3.82,0h3.05v3.15h-3.05v-3.15Z"/><rect class="cls-9" x="991.78" y="167.31" width="38.33" height="1.32" transform="translate(8.05 378.75) rotate(-21.3)"/><rect class="cls-9" x="1062.24" y="167.31" width="38.33" height="1.32" transform="translate(2027.9 717.33) rotate(-158.7)"/><polygon class="cls-7" points="1112.8 30.08 1102.55 61.13 1123.05 61.13 1112.8 30.08"/><polygon class="cls-7" points="1120.42 48.95 1120.9 48.95 1129.04 48.95 1129.52 48.95 1129.52 51.75 1128.59 51.75 1128.59 167.64 1121.35 167.64 1121.35 51.75 1120.42 51.75 1120.42 48.95"/><polygon class="cls-7" points="1124.94 37.53 1121.33 49.14 1128.56 49.14 1124.94 37.53"/><rect class="cls-7" x="1101.55" y="59.27" width="22.12" height="108.37" transform="translate(2225.22 226.91) rotate(180)"/><g><rect class="cls-4" x="1105.79" y="95.76" width="13.65" height="7.27" transform="translate(2225.22 198.79) rotate(180)"/><g><rect class="cls-9" x="1115.71" y="96.4" width="3.07" height="5.85" transform="translate(2234.5 198.65) rotate(180)"/><rect class="cls-9" x="1111.11" y="96.4" width="3.07" height="5.85" transform="translate(2225.3 198.65) rotate(180)"/><rect class="cls-9" x="1106.51" y="96.4" width="3.07" height="5.85" transform="translate(2216.1 198.65) rotate(180)"/></g></g><g><rect class="cls-4" x="1105.79" y="117.75" width="13.65" height="7.27" transform="translate(2225.22 242.76) rotate(180)"/><g><rect class="cls-9" x="1115.71" y="118.39" width="3.07" height="5.85" transform="translate(2234.5 242.62) rotate(180)"/><rect class="cls-9" x="1111.11" y="118.39" width="3.07" height="5.85" transform="translate(2225.3 242.62) rotate(180)"/><rect class="cls-9" x="1106.51" y="118.39" width="3.07" height="5.85" transform="translate(2216.1 242.62) rotate(180)"/></g></g><polygon class="cls-4" points="1112.8 45.25 1117.69 49.49 1117.69 59.82 1107.91 59.82 1107.91 49.49 1112.8 45.25"/><g><rect class="cls-9" x="1109.37" y="54.14" width="3.17" height="4.52"/><rect class="cls-9" x="1109.37" y="50.26" width="3.17" height="3.09"/></g><g><rect class="cls-9" x="1113.28" y="54.14" width="3.17" height="4.52"/><rect class="cls-9" x="1113.28" y="50.26" width="3.17" height="3.09"/></g><polygon class="cls-7" points="1095.71 48.95 1096.19 48.95 1104.33 48.95 1104.81 48.95 1104.81 51.75 1103.88 51.75 1103.88 167.64 1096.64 167.64 1096.64 51.75 1095.71 51.75 1095.71 48.95"/><g><rect class="cls-9" x="1096.18" y="67.52" width="32.87" height="1.26" transform="translate(2225.22 136.3) rotate(180)"/><g><rect class="cls-9" x="1096.18" y="86.06" width="32.87" height="1.26" transform="translate(2225.22 173.37) rotate(180)"/><rect class="cls-9" x="1096.18" y="91.53" width="32.87" height="1.26" transform="translate(2225.22 184.32) rotate(180)"/></g><g><rect class="cls-9" x="1096.18" y="108.38" width="32.87" height="1.26" transform="translate(2225.22 218.02) rotate(180)"/><rect class="cls-9" x="1096.18" y="113.86" width="32.87" height="1.26" transform="translate(2225.22 228.98) rotate(180)"/></g><g><rect class="cls-9" x="1096.18" y="130.71" width="32.87" height="1.26" transform="translate(2225.22 262.68) rotate(180)"/><rect class="cls-9" x="1096.18" y="136.19" width="32.87" height="1.26" transform="translate(2225.22 273.63) rotate(180)"/></g></g><polygon class="cls-7" points="1100.23 37.53 1096.62 49.14 1103.85 49.14 1100.23 37.53"/><g><rect class="cls-4" x="1105.79" y="71.39" width="13.65" height="12.03" transform="translate(2225.22 154.8) rotate(180)"/><rect class="cls-9" x="1106.73" y="76.19" width="3.22" height="6.45" transform="translate(2216.68 158.82) rotate(180)"/><rect class="cls-9" x="1111.01" y="76.19" width="3.22" height="6.45" transform="translate(2225.24 158.82) rotate(180)"/><rect class="cls-9" x="1115.29" y="76.19" width="3.22" height="6.45" transform="translate(2233.81 158.82) rotate(180)"/><rect class="cls-9" x="1106.73" y="72.15" width="3.22" height="3.16" transform="translate(2216.68 147.45) rotate(180)"/><rect class="cls-9" x="1111.01" y="72.15" width="3.22" height="3.16" transform="translate(2225.24 147.45) rotate(180)"/><rect class="cls-9" x="1115.29" y="72.15" width="3.22" height="3.16" transform="translate(2233.81 147.45) rotate(180)"/></g><g><rect class="cls-4" x="1105.79" y="139.97" width="13.65" height="12.03" transform="translate(2225.22 291.97) rotate(180)"/><rect class="cls-9" x="1106.73" y="144.77" width="3.22" height="6.45" transform="translate(2216.68 295.98) rotate(180)"/><rect class="cls-9" x="1111.01" y="144.77" width="3.22" height="6.45" transform="translate(2225.24 295.98) rotate(180)"/><rect class="cls-9" x="1115.29" y="144.77" width="3.22" height="6.45" transform="translate(2233.81 295.98) rotate(180)"/><rect class="cls-9" x="1106.73" y="140.73" width="3.22" height="3.16" transform="translate(2216.68 284.62) rotate(180)"/><rect class="cls-9" x="1111.01" y="140.73" width="3.22" height="3.16" transform="translate(2225.24 284.62) rotate(180)"/><rect class="cls-9" x="1115.29" y="140.73" width="3.22" height="3.16" transform="translate(2233.81 284.62) rotate(180)"/></g><rect class="cls-8" x="1092.39" y="154.32" width="40" height="29.59"/></g></g><g class="cls-10"><g><g><rect class="cls-8" x="900.25" y="103.06" width="30.2" height="119.52"/><path class="cls-6" d="M904.47,112.46c-.5,0-.91,.43-.91,.95v106h1.82V113.41c0-.52-.41-.95-.91-.95Z"/><path class="cls-6" d="M908.1,112.46c-.5,0-.91,.43-.91,.95v106h1.82V113.41c0-.52-.41-.95-.91-.95Z"/><path class="cls-6" d="M911.72,112.46c-.5,0-.91,.43-.91,.95v106h1.82V113.41c0-.52-.41-.95-.91-.95Z"/><path class="cls-6" d="M915.35,112.46c-.5,0-.91,.43-.91,.95v106h1.82V113.41c0-.52-.41-.95-.91-.95Z"/><path class="cls-6" d="M918.98,112.46c-.5,0-.91,.43-.91,.95v106h1.82V113.41c0-.52-.41-.95-.91-.95Z"/><path class="cls-6" d="M922.6,112.46c-.5,0-.91,.43-.91,.95v106h1.82V113.41c0-.52-.41-.95-.91-.95Z"/><path class="cls-6" d="M926.23,112.46c-.5,0-.91,.43-.91,.95v106h1.82V113.41c0-.52-.41-.95-.91-.95Z"/><g><rect class="cls-7" x="900.25" y="128.51" width="30.2" height="1.47"/><rect class="cls-7" x="900.25" y="132.6" width="30.2" height="1.47"/></g><g><rect class="cls-7" x="900.25" y="150.38" width="30.2" height="1.47"/><rect class="cls-7" x="900.25" y="154.47" width="30.2" height="1.47"/></g><g><rect class="cls-7" x="900.25" y="172.25" width="30.2" height="1.47"/><rect class="cls-7" x="900.25" y="176.35" width="30.2" height="1.47"/></g></g><g><rect class="cls-8" x="900.25" y="65.97" width="30.2" height="10.68"/><g><path class="cls-6" d="M904.47,67.73c-.5,0-.91,.43-.91,.95v7.96h1.82v-7.96c0-.52-.41-.95-.91-.95Z"/><path class="cls-6" d="M907.58,67.73c-.5,0-.91,.43-.91,.95v7.96h1.82v-7.96c0-.52-.41-.95-.91-.95Z"/><path class="cls-6" d="M910.69,67.73c-.5,0-.91,.43-.91,.95v7.96h1.82v-7.96c0-.52-.41-.95-.91-.95Z"/><path class="cls-6" d="M913.8,67.73c-.5,0-.91,.43-.91,.95v7.96h1.82v-7.96c0-.52-.41-.95-.91-.95Z"/><path class="cls-6" d="M916.9,67.73c-.5,0-.91,.43-.91,.95v7.96h1.82v-7.96c0-.52-.41-.95-.91-.95Z"/><path class="cls-6" d="M920.01,67.73c-.5,0-.91,.43-.91,.95v7.96h1.82v-7.96c0-.52-.41-.95-.91-.95Z"/><path class="cls-6" d="M923.12,67.73c-.5,0-.91,.43-.91,.95v7.96h1.82v-7.96c0-.52-.41-.95-.91-.95Z"/><path class="cls-6" d="M926.23,67.73c-.5,0-.91,.43-.91,.95v7.96h1.82v-7.96c0-.52-.41-.95-.91-.95Z"/></g></g><g><rect class="cls-8" x="907.38" y="39.74" width="15.93" height="9.27"/><path class="cls-6" d="M910.88,42.42c-.41,0-.75,.35-.75,.78v5.8h1.5v-5.8c0-.43-.34-.78-.75-.78Z"/><path class="cls-6" d="M913.86,42.42c-.41,0-.75,.35-.75,.78v5.8h1.5v-5.8c0-.43-.34-.78-.75-.78Z"/><path class="cls-6" d="M916.84,42.42c-.41,0-.75,.35-.75,.78v5.8h1.5v-5.8c0-.43-.34-.78-.75-.78Z"/><path class="cls-6" d="M919.82,42.42c-.41,0-.75,.35-.75,.78v5.8h1.5v-5.8c0-.43-.34-.78-.75-.78Z"/></g><g><rect class="cls-7" x="897.2" y="74.53" width="36.3" height="34.58"/><g><rect class="cls-6" x="899.22" y="77.91" width="1.77" height="24.18"/><rect class="cls-6" x="914.76" y="64.34" width="1.17" height="23.96" transform="translate(991.67 -839.03) rotate(90)"/><rect class="cls-6" x="929.96" y="75.39" width="1.17" height="1.87" transform="translate(1006.87 -854.22) rotate(90)"/><rect class="cls-6" x="899.57" y="75.39" width="1.17" height="1.87" transform="translate(976.47 -823.83) rotate(90)"/><rect class="cls-6" x="899.22" y="103.61" width="1.77" height="4.2"/><rect class="cls-6" x="929.71" y="77.91" width="1.77" height="24.18" transform="translate(1861.19 180.01) rotate(180)"/><rect class="cls-6" x="929.71" y="103.61" width="1.77" height="4.2" transform="translate(1861.19 211.42) rotate(180)"/></g><g><rect class="cls-7" x="903.37" y="77.96" width="23.96" height="23.96"/><circle class="cls-8" cx="915.35" cy="89.93" r="9.61"/><circle class="cls-4" cx="915.35" cy="89.93" r="8.59"/><path class="cls-7" d="M915.35,84.16c-3.19,0-5.78,2.59-5.78,5.78s2.59,5.78,5.78,5.78,5.78-2.59,5.78-5.78-2.59-5.78-5.78-5.78Zm0,11.29c-3.05,0-5.51-2.47-5.51-5.51s2.47-5.51,5.51-5.51,5.51,2.47,5.51,5.51-2.47,5.51-5.51,5.51Z"/><polyline class="cls-2" points="915.09 86.4 915.09 90.7 917.18 92.24"/></g><g><path class="cls-6" d="M904.47,103.54c-.5,0-.91,.41-.91,.91v2.45c0,.5,.41,.91,.91,.91s.91-.41,.91-.91v-2.45c0-.5-.41-.91-.91-.91Z"/><path class="cls-6" d="M907.19,103.54c-.5,0-.91,.41-.91,.91v2.45c0,.5,.41,.91,.91,.91s.91-.41,.91-.91v-2.45c0-.5-.41-.91-.91-.91Z"/><path class="cls-6" d="M909.91,103.54c-.5,0-.91,.41-.91,.91v2.45c0,.5,.41,.91,.91,.91s.91-.41,.91-.91v-2.45c0-.5-.41-.91-.91-.91Z"/><path class="cls-6" d="M912.63,103.54c-.5,0-.91,.41-.91,.91v2.45c0,.5,.41,.91,.91,.91s.91-.41,.91-.91v-2.45c0-.5-.41-.91-.91-.91Z"/><path class="cls-6" d="M915.35,103.54c-.5,0-.91,.41-.91,.91v2.45c0,.5,.41,.91,.91,.91s.91-.41,.91-.91v-2.45c0-.5-.41-.91-.91-.91Z"/><path class="cls-6" d="M918.07,103.54c-.5,0-.91,.41-.91,.91v2.45c0,.5,.41,.91,.91,.91s.91-.41,.91-.91v-2.45c0-.5-.41-.91-.91-.91Z"/><path class="cls-6" d="M920.79,103.54c-.5,0-.91,.41-.91,.91v2.45c0,.5,.41,.91,.91,.91s.91-.41,.91-.91v-2.45c0-.5-.41-.91-.91-.91Z"/><path class="cls-6" d="M923.51,103.54c-.5,0-.91,.41-.91,.91v2.45c0,.5,.41,.91,.91,.91s.91-.41,.91-.91v-2.45c0-.5-.41-.91-.91-.91Z"/><path class="cls-6" d="M926.23,103.54c-.5,0-.91,.41-.91,.91v2.45c0,.5,.41,.91,.91,.91s.91-.41,.91-.91v-2.45c0-.5-.41-.91-.91-.91Z"/></g></g><path class="cls-7" d="M929.69,61.9h-1.59c-1.62-1.91-4.04-5.68-4.72-11.62h.79v-1.71h-17.66v1.71h.79c-.68,5.94-3.1,9.71-4.72,11.62h-3.37v4.4h32.23v-4.4h-1.78Z"/><path class="cls-7" d="M922.86,38.36c-3.52-6.82-7.51-32.65-7.51-32.65,0,0-3.99,25.83-7.51,32.65l-.83,.06h-.49v1.71h17.66v-1.71h-.49l-.83-.06Z"/></g></g><g><g><path class="cls-8" d="M1052.84,38.57c-5.7,0-10.36,4.51-10.36,10.03v13.83c0,5.51,4.66,7.85,10.36,7.85s10.36-2.33,10.36-7.85v-13.83c0-5.51-4.66-10.03-10.36-10.03Z"/><path class="cls-4" d="M1047.99,76.83c1.4-.89,2.53-2.44,2.12-5.11,0,0,5.72-.11,5.73-.11-.45,0-.2,2.06-.17,2.27,.19,1.16,.92,2.05,1.67,2.57,.12,.09,.25,.16,.37,.23,0,0-4.07,2.85-9.73,.14Z"/><g><path class="cls-4" d="M1060.85,65.36c.02-2-1.25-1.68-1.77-1.46-.4-4.46-2.9-4.63-6.06-4.66-3.2-.03-5.96-.17-6.33,4.68-.52-.23-1.77-.57-1.79,1.43-.02,1.88,1.23,2.14,1.87,2.15,.39,3.59,1.83,7.17,6.01,7.27,4.47,.05,5.89-3.77,6.25-7.29,.66-.02,1.81-.32,1.82-2.11Z"/><path class="cls-8" d="M1053.01,58.18c-3.45-.04-6.38-.2-6.38,5.88,0,4.19,1.02,9.52,6.13,9.64,5.44,.06,6.36-5.63,6.36-9.51,0-5.78-2.67-5.97-6.12-6.01Zm-.24,14.57c-4.71-.11-5.65-4.91-5.65-8.67,0-5.47,2.7-5.32,5.88-5.29,3.18,.03,5.64,.21,5.64,5.41,0,3.49-.85,8.61-5.86,8.56Z"/></g><path class="cls-9" d="M1044.49,64.81h16.7s-.52-9.23-8.46-9.23-8.24,9.23-8.24,9.23Z"/></g><g><path class="cls-8" d="M1044.4,166.07s0-.02,0-.03l-4.45,1.68s-2.53,.74-2.15,1.84h13.13l.03-3.24-6.57-.25Z"/><path class="cls-8" d="M1063.67,111.85h-21.45s-2.4,11.87,1.34,37.15c0,0,1.37,12.4,.99,16.22l6.97,.31c.03-2.69,.14-11.74,.34-22.78,0,0,.24-9.8,1.08-18.86,.83,9.07,1.08,18.86,1.08,18.86,.2,11.05,.31,20.11,.34,22.79l6.97-.31c-.38-3.82,.99-16.23,.99-16.23,3.75-25.27,1.34-37.15,1.34-37.15Z"/><path class="cls-8" d="M1065.94,167.73l-4.45-1.68s0,.02,.01,.03l-6.57,.25,.03,3.24h13.13c.38-1.1-2.15-1.84-2.15-1.84Z"/></g><g><g><path class="cls-7" d="M1039.67,123.45c.31,.3,.61,.71,.9,.82,.25,.1,.58,.03,.7-.21,.11-.21,.01-.47-.09-.69-.58-1.21-1.98-3.45-3.56-3.33-.34,.02-2.96,1.09-2.98,1.03,.23,.68,.07,1.98,.07,1.98-.19,2.61,1.68,4.66,1.68,4.66,.39,.47,1.26,1.09,1.7,1.33,.51,.28,1.09,.47,1.66,.41,.58-.06,1.15-.41,1.35-.95,.17-.45,.07-.97-.15-1.4-.22-.43-.54-.8-.83-1.18-.3-.39-2.04-2.73-1.06-2.79,.21-.01,.41,.13,.6,.31Z"/><path class="cls-7" d="M1039.55,81.09s-11.86,18.55-5.06,40.59l5.28-.82s-6.21-21.46,3.05-31.07l-3.26-8.7Z"/><path class="cls-8" d="M1033.14,116.13c.33,1.82,.77,3.67,1.35,5.55l5.28-.82s-.63-2.17-1.19-5.43l-5.44,.7Z"/></g><g><path class="cls-7" d="M1066.34,123.45c-.31,.3-.61,.71-.9,.82-.25,.1-.58,.03-.7-.21-.11-.21-.01-.47,.09-.69,.58-1.21,1.98-3.45,3.56-3.33,.34,.02,2.96,1.09,2.98,1.03-.23,.68-.07,1.98-.07,1.98,.19,2.61-1.68,4.66-1.68,4.66-.39,.47-1.26,1.09-1.7,1.33-.51,.28-1.09,.47-1.66,.41-.58-.06-1.15-.41-1.35-.95-.17-.45-.07-.97,.15-1.4,.22-.43,.54-.8,.83-1.18,.3-.39,2.04-2.73,1.06-2.79-.21-.01-.41,.13-.6,.31Z"/><path class="cls-7" d="M1066.13,81.09s12.2,18.57,5.4,40.61l-5.28-.82s5.88-21.48-3.39-31.09l3.26-8.7Z"/><path class="cls-8" d="M1067.35,115.44c-.51,3.27-1.11,5.44-1.11,5.44l5.28,.82c.57-1.86,1.01-3.7,1.33-5.5l-5.5-.77Z"/></g><g><g><path class="cls-7" d="M1063.28,102.21l2.31,16.82-10.15,1.84h-4.73l-10.63-1.84,2.74-16.82-3.27-21.12c1.01-1.25,2.49-1.84,3.94-2.54l4.74-2.23h9.21l4.74,2.23c.28,.12,2.93,1.29,3.94,2.54l-2.84,21.12Z"/><polygon class="cls-4" points="1063.65 104.87 1063.28 102.21 1042.82 102.21 1042.39 104.87 1063.65 104.87"/><rect class="cls-4" x="1052.56" y="76.32" width=".84" height="44.55"/></g><path class="cls-9" d="M1048.24,76.32s1.14,1.08,4.77,1.08,4.44-1.08,4.44-1.08l-1.08-1.42s-3,1.77-6.98,0l-1.15,1.42Z"/><g><path class="cls-4" d="M1055.1,79.75c0,.33-.27,.6-.6,.6s-.6-.27-.6-.6,.27-.6,.6-.6,.6,.27,.6,.6Z"/><path class="cls-4" d="M1055.1,82.67c0,.33-.27,.6-.6,.6s-.6-.27-.6-.6,.27-.6,.6-.6,.6,.27,.6,.6Z"/><path class="cls-4" d="M1055.1,85.6c0,.33-.27,.6-.6,.6s-.6-.27-.6-.6,.27-.6,.6-.6,.6,.27,.6,.6Z"/><path class="cls-4" d="M1055.1,88.53c0,.33-.27,.6-.6,.6s-.6-.27-.6-.6,.27-.6,.6-.6,.6,.27,.6,.6Z"/><path class="cls-4" d="M1055.1,91.45c0,.33-.27,.6-.6,.6s-.6-.27-.6-.6,.27-.6,.6-.6,.6,.27,.6,.6Z"/><path class="cls-4" d="M1055.1,94.38c0,.33-.27,.6-.6,.6s-.6-.27-.6-.6,.27-.6,.6-.6,.6,.27,.6,.6Z"/><path class="cls-4" d="M1055.1,97.31c0,.33-.27,.6-.6,.6s-.6-.27-.6-.6,.27-.6,.6-.6,.6,.27,.6,.6Z"/><path class="cls-4" d="M1055.1,100.23c0,.33-.27,.6-.6,.6s-.6-.27-.6-.6,.27-.6,.6-.6,.6,.27,.6,.6Z"/></g><rect class="cls-8" x="1049.82" y="101.97" width="6.23" height="3.18" rx=".86" ry=".86"/></g></g></g><g><path class="cls-9" d="M1145.13,73.19s6.16-8.17,20.43-8.17,20.39,8.17,20.39,8.17l-1.84,1.24h-37.14l-1.84-1.24Z"/><path class="cls-7" d="M1146.97,74.43v8.46h37.14v-8.46s-5.57-7.43-18.55-7.43-18.59,7.43-18.59,7.43Z"/><g><rect class="cls-7" x="1145.59" y="81.36" width="39.9" height="89.95"/><polygon class="cls-4" points="1149.3 85.92 1149.3 171.3 1150.06 171.3 1150.06 86.66 1181.02 86.66 1181.02 171.3 1181.78 171.3 1181.78 85.92 1149.3 85.92"/><g><rect class="cls-4" x="1160.18" y="110.1" width="10.73" height="9.38"/><rect class="cls-4" x="1160.18" y="131.12" width="10.73" height="9.38"/><rect class="cls-4" x="1154.36" y="120.61" width="4.69" height="9.38"/><rect class="cls-4" x="1160.18" y="120.61" width="10.73" height="9.38"/><rect class="cls-4" x="1154.36" y="110.1" width="4.69" height="9.38"/><rect class="cls-4" x="1154.36" y="99.59" width="4.69" height="9.38"/><rect class="cls-4" x="1160.18" y="152.13" width="10.73" height="7.84"/><rect class="cls-4" x="1160.18" y="141.63" width="10.73" height="9.38"/><rect class="cls-4" x="1160.18" y="99.59" width="10.73" height="9.38"/><rect class="cls-4" x="1160.18" y="90.63" width="10.73" height="7.84"/><rect class="cls-4" x="1172.03" y="90.63" width="4.69" height="7.84"/><rect class="cls-4" x="1154.36" y="131.12" width="4.69" height="9.38"/><rect class="cls-4" x="1172.03" y="99.59" width="4.69" height="9.38"/><rect class="cls-4" x="1154.36" y="90.63" width="4.69" height="7.84"/><rect class="cls-4" x="1172.03" y="152.13" width="4.69" height="7.84"/><rect class="cls-4" x="1154.36" y="152.13" width="4.69" height="7.84"/><rect class="cls-4" x="1172.03" y="110.1" width="4.69" height="9.38"/><rect class="cls-4" x="1172.03" y="141.63" width="4.69" height="9.38"/><rect class="cls-4" x="1154.36" y="141.63" width="4.69" height="9.38"/><rect class="cls-4" x="1172.03" y="131.12" width="4.69" height="9.38"/><rect class="cls-4" x="1172.03" y="120.61" width="4.69" height="9.38"/></g></g><path class="cls-5" d="M1165.57,70.89c.25,.07,.43,.3,.43,.57v1.01c.14-.05,.27-.09,.4-.13,.01-.18,.16-.33,.34-.33,.13,0,.24,.07,.3,.17,.06-.01,.11-.02,.16-.03,.02-.17,.17-.31,.34-.31,.15,0,.28,.1,.33,.23h.02s.09,0,.13,0c.03-.16,.17-.28,.34-.28,.18,0,.33,.14,.34,.32,.05,0,.1,.02,.14,.03,.05-.13,.18-.23,.32-.23,.19,0,.35,.16,.35,.35,0,.04,0,.08-.02,.12,.04,.02,.08,.04,.11,.07,.06-.08,.16-.14,.27-.14,.19,0,.35,.16,.35,.35,0,.11-.04,.2-.12,.26,.02,.03,.05,.07,.07,.11,.04-.02,.08-.02,.13-.02,.19,0,.35,.16,.35,.35,0,.16-.1,.29-.25,.34,0,.05,.01,.1,.01,.15,.15,.04,.27,.17,.27,.34,0,.19-.15,.34-.33,.35-.01,.05-.02,.11-.04,.16,.09,.06,.15,.17,.15,.29,0,.19-.15,.35-.34,.35,0,0-.02,0-.03,0-.37,.86-.73,1.73-1.08,2.6-.12,.3-.45,.45-.76,.34-1.54-.55-4.14-.55-5.67,0-.3,.11-.64-.04-.76-.34-.36-.87-.71-1.73-1.09-2.59,0,0-.02,0-.03,0-.19,0-.35-.16-.35-.35,0-.12,.06-.22,.15-.29-.01-.06-.03-.11-.04-.16-.18,0-.33-.16-.33-.35,0-.17,.11-.31,.27-.34,0-.05,0-.1,.01-.15-.15-.04-.25-.18-.25-.34,0-.19,.15-.35,.34-.35,.04,0,.09,0,.12,.02,.02-.04,.05-.07,.07-.11-.07-.06-.12-.16-.12-.26,0-.19,.15-.35,.34-.35,.11,0,.21,.05,.27,.14,.04-.02,.07-.05,.11-.07-.01-.04-.02-.07-.02-.11,0-.19,.15-.35,.35-.35,.15,0,.27,.09,.32,.23,.05-.01,.09-.02,.14-.03,.01-.18,.16-.33,.34-.32,.16,0,.3,.12,.34,.27,.04,0,.09,0,.13,0h.02c.05-.13,.18-.23,.33-.23,.18,0,.32,.13,.34,.3,.05,0,.11,.02,.16,.03,.06-.1,.17-.17,.3-.17,.18,0,.33,.15,.35,.33,.13,.04,.26,.08,.4,.12v-1.01c0-.27,.18-.5,.43-.57v-.23c0-.07-.05-.12-.12-.12h-.14s0,.07,0,.07c0,.1-.1,.17-.2,.15h0c-.1-.02-.17-.11-.16-.21l.03-.35c0-.1,.1-.17,.2-.15,.08,.01,.14,.07,.16,.15h.12c.07,0,.12-.05,.12-.12v-.04c0-.06-.05-.11-.11-.12-.09,0-.16-.09-.16-.18,0-.1,.08-.18,.18-.18h.49c.1,0,.18,.08,.18,.18,0,.09-.07,.17-.16,.18-.06,0-.11,.06-.11,.12v.04c0,.07,.05,.12,.12,.12h.12c.02-.07,.08-.13,.16-.15,.1-.02,.19,.05,.2,.15l.03,.35c0,.1-.06,.2-.16,.21-.1,.02-.19-.05-.2-.15v-.07s-.15,0-.15,0c-.07,0-.12,.05-.12,.12v.23h0Zm-2.75,4.44h0c-.03-.64,.52-.74,.73-.13,.02,.06,.07,.1,.13,.1,.11,.01,.25,.07,.29,.17,.04,.1,.04,.26,.03,.37-.02,.21-.14,.27-.24,.09-.03-.06-.08-.15-.15-.1-.08,.06-.11,.34-.03,.51,.05,.1,.11,.17,.15,.26,.06,.12,.18,.18,.31,.17,.27-.04,.54-.06,.83-.08,.16,0,.28-.14,.28-.3v-.39c0-.08-.07-.15-.15-.15h0s-.06,.01-.09,.04c-.02,.03-.03,.05-.03,.09,0,.18-.08,.21-.19,.21-.14,0-.24-.11-.25-.25l-.06-.92c0-.06,.05-.11,.11-.11h.1c.14,0,.25,.12,.25,.25v.06c0,.06,.06,.11,.12,.11h.04c.08,0,.15-.07,.15-.15v-.35c0-.08-.07-.15-.15-.15h-.33c-.14,0-.25-.11-.25-.25,0-.13,.11-.25,.25-.24,.17,0,.15-.1,.15-.23v-.71c-.75-.28-1.4-.41-1.93-.43-.64-.03-1.1,.1-1.38,.33-.3,.25-.43,.64-.33,1.17,.05,.25,.14,.53,.28,.83,.2,.06,.39,.19,.51,.37,.2,.32,.2,.82,.32,.99,0,0,.01,.02,.02,.03l.27,.41c.05,.07,.13,.1,.2,.07,.07-.02,.14-.04,.22-.06,.08-.02,.14-.1,.13-.18,0-.13,.04-.25,.05-.38,.02-.19-.11-.44-.21-.46-.08-.02-.09,.09-.1,.15-.03,.21-.16,.2-.25,0-.05-.1-.11-.25-.1-.36,0-.11,.11-.21,.21-.26,.06-.03,.09-.08,.09-.15h0Zm5.19,0h0c0,.06,.03,.12,.09,.15,.1,.05,.21,.15,.21,.26,0,.11-.05,.26-.1,.36-.1,.19-.23,.2-.25,0,0-.06-.02-.17-.1-.15-.1,.02-.22,.27-.21,.46,.01,.14,.06,.25,.05,.38,0,.09,.05,.16,.13,.18,.07,.02,.15,.04,.22,.06,.08,.02,.16,0,.2-.07l.27-.41s.01-.02,.02-.03c.12-.17,.12-.67,.32-.99,.12-.19,.3-.31,.51-.37,.14-.31,.23-.58,.28-.83,.1-.53-.03-.92-.34-1.17-.28-.23-.74-.36-1.38-.33-.53,.02-1.18,.16-1.93,.43v.71c0,.13-.02,.23,.15,.23,.14,0,.25,.11,.25,.25,0,.14-.11,.25-.25,.25h-.34c-.08,0-.15,.07-.15,.15v.35c0,.08,.07,.15,.15,.15h.04c.06,0,.12-.05,.12-.12v-.06c0-.14,.12-.25,.26-.25h.1c.06,0,.12,.05,.11,.11l-.06,.92c0,.14-.11,.25-.25,.25-.11,0-.2-.04-.19-.21,0-.03-.01-.06-.03-.09-.02-.02-.05-.04-.09-.04h0c-.08,0-.15,.07-.15,.15v.39c0,.16,.13,.29,.29,.3,.29,.01,.56,.04,.83,.08,.13,.02,.25-.05,.31-.17,.04-.09,.1-.17,.15-.26,.08-.17,.05-.45-.03-.51-.07-.05-.12,.05-.15,.1-.1,.18-.22,.13-.24-.09-.01-.11,0-.27,.03-.37,.04-.1,.17-.16,.29-.17,.06,0,.11-.05,.13-.11,.21-.61,.75-.51,.73,.13Z"/></g><rect class="cls-8" x="-3.38" y="168.93" width="1204.45" height="13.7"/></svg>