<?xml version="1.0" encoding="UTF-8"?><svg id="Layer_2" xmlns="http://www.w3.org/2000/svg" viewBox="0 0 294.58 62.42"><defs><style>.cls-1{fill:#fff;}.cls-2{fill:#27346b;}</style></defs><g id="Layer_3"><g><rect class="cls-2" width="294.58" height="62.42"/><g><path class="cls-1" d="M32.91,47c-1.34-.15-3.59-.17-6.75-.09-3.16,.09-5.47,.1-6.93,.04,0-.5,.02-1.33,.07-2.51,.04-1.18,.05-2.09,.02-2.73,0-.17-.02-.47-.07-.87-.04-.41-.05-.73-.02-.96,0-.15,.01-.43,.04-.85,.03-.42,.03-.74,0-.94,0-.23-.02-.55-.07-.96s-.07-.73-.07-.96c0-.17,.03-.73,.09-1.66,0-.23-.01-.55-.04-.96-.03-.41-.04-.73-.04-.96,0-.55,0-1.35,.02-2.4,.01-1.05,.02-1.82,.02-2.32,0-.26,0-.63-.02-1.12s-.02-.84-.02-1.07c.06-.99,.09-1.72,.09-2.19-.06-3.24-.06-5.45,0-6.64,.41-.12,.86-.18,1.36-.2,.5-.01,1.08,0,1.77,.02,.68,.03,1.14,.04,1.38,.04v6.65c.03,1.54,.04,3.86,.04,6.95,0,.93,.01,1.63,.04,2.1,.03,.26,.04,.63,.04,1.12v1.07c.15,.93,.22,1.82,.22,2.67,0,.35-.03,.96-.09,1.84-.03,.41-.02,1.05,.04,1.92,.09,.93,.15,1.43,.17,1.49,.17,.03,1.28,.04,3.32,.04,3,0,4.78,.03,5.33,.09,.38,1.72,.39,3.18,.04,4.37Z"/><path class="cls-1" d="M53.06,40.22c-.15,.52-.23,.96-.26,1.31,0,.09,0,.19,.02,.31,.01,.12,.02,.19,.02,.22,0,.06-.03,.15-.09,.28-.06,.13-.1,.24-.13,.33-.29,.9-.83,1.68-1.62,2.32-.09,.09-.18,.17-.28,.24-.1,.07-.22,.15-.35,.22-.13,.07-.23,.14-.28,.2-.41,.29-.73,.5-.96,.61-.47,.2-1.18,.47-2.14,.79l-.61,.13c-.67,.17-1.31,.2-1.92,.09l-.66-.13c-.09-.03-.2-.04-.35-.04h-.31c-.47-.12-.96-.35-1.49-.7-1.57-.93-2.7-2.01-3.37-3.23-.5-.82-.76-1.63-.79-2.45-.03-.12-.03-.25,0-.39,.03-.15,.03-.28,0-.39,0-.15,0-.29-.02-.44-.02-.15-.04-.31-.07-.5-.03-.19-.04-.34-.04-.46-.06-.15-.06-.52,0-1.14,.06-.61,.09-.99,.09-1.14,0-.17,0-.42-.02-.74-.01-.32-.02-.55-.02-.7,0-.09,0-.22,.02-.39s.02-.31,.02-.39c-.06-1.08-.07-1.89-.04-2.45,.06-1.17,.09-2.03,.09-2.58-.06-.61-.04-2.3,.04-5.07,0-.06,0-.15-.02-.26-.01-.12-.02-.19-.02-.22,0-.96,.03-1.54,.09-1.75l.26-.83c.06-.23,.15-.46,.28-.68,.13-.22,.23-.38,.31-.48,.07-.1,.21-.25,.42-.46,.2-.2,.33-.35,.39-.44,.15-.17,.28-.32,.39-.44s.28-.23,.48-.35c.2-.12,.35-.2,.44-.24,.09-.04,.28-.13,.59-.26,.31-.13,.49-.21,.55-.24,.09-.03,.25-.1,.5-.22,.25-.12,.44-.2,.59-.26,.23-.09,1.14-.23,2.71-.44,.79-.06,1.43,.02,1.92,.22,.15,.03,.77,.31,1.88,.83,.26,.15,.6,.36,1,.66,.41,.23,.66,.41,.74,.52,.09,.09,.25,.35,.48,.79,.2,.32,.6,1.17,1.18,2.54,.15,.82,.22,2.02,.24,3.61,.01,1.59,.04,2.54,.07,2.86,.06,.93,.07,1.63,.04,2.1-.03,.35-.03,.85,0,1.49,.03,.64,.04,1.05,.04,1.22v1.4c.15,2.01,.13,3.89-.04,5.64Zm-4.72-12.68c0-.2,0-.53-.02-.98-.02-.45-.02-.81-.02-1.07,0-1.43-.01-2.2-.04-2.32-.15-.5-.45-.95-.92-1.36-.03,0-.07,0-.13-.02-.06-.01-.12-.03-.17-.04s-.1-.04-.13-.07l-.48-.31c-.35-.15-.66-.22-.92-.22-.61,0-1.43,.19-2.45,.57l-.48,.53-.31,.35c-.03,.09-.07,.22-.11,.39-.04,.17-.1,.32-.15,.44,.03,.58,.01,2.54-.04,5.86-.06,3.21-.04,5.61,.04,7.21,.03,.44,.04,1.04,.04,1.79,0,.87,.03,1.41,.09,1.62,.2,.5,.32,.79,.35,.87,0,.12,.01,.19,.04,.22,0,.03,.02,.07,.07,.13,.04,.06,.07,.12,.07,.17,.09,.09,.2,.22,.35,.39,.15,.17,.28,.32,.39,.44,.12,.12,.25,.2,.39,.26,.26,.12,.79,.17,1.57,.17,.93-.03,1.69-.36,2.27-1.01,.06-.06,.1-.12,.13-.17,.03-.06,.06-.1,.09-.13l.35-.57c.2-.82,.26-1.44,.17-1.88,.09-.17,.13-.32,.13-.44,.15-1.22,.16-2.48,.04-3.76l-.17-3.72c-.03-.7-.04-1.82-.04-3.37Z"/><path class="cls-1" d="M70.77,46.6c-.64-1.4-1.47-3.37-2.49-5.9-.12-.23-.27-.62-.46-1.16-.19-.54-.33-.9-.42-1.07l-.48-1.44c-.26-.61-.74-1.65-1.42-3.1-.69-1.46-1.2-2.64-1.55-3.54,0-.12-.08-.36-.24-.74-.16-.38-.28-.57-.37-.57-.17-.03-.26,.15-.26,.52,0,.52,.01,.8,.04,.83,0,.09,0,.35-.02,.79-.01,.44-.02,.74-.02,.92,.06,2.74,.09,4.92,.09,6.56,.09,2.22,.13,3.37,.13,3.45,.03,.23,.01,.58-.04,1.05-.06,.47-.09,.79-.09,.96-.03,.09-.04,.26-.04,.52v.53c-.03,.15-.06,.22-.09,.22,.09,.12,.12,.29,.09,.53s-.03,.45,0,.66c-1.34,.44-2.88,.45-4.63,.04-.06-.26-.07-.79-.02-1.6s.07-1.35,.07-1.64l-.13-1.66v-4.72c0-1.25,.01-2.2,.04-2.84,.03-.64,.04-1.61,.04-2.91s.01-2.27,.04-2.91c.06-1.22,.06-3.1,0-5.64-.06-2.54-.06-4.44,0-5.73,1.92-.23,3.38-.29,4.37-.17,.12,.2,.25,.52,.42,.94,.16,.42,.28,.72,.37,.9l.83,1.75c.06,.12,.22,.51,.48,1.18,.26,.67,.48,1.18,.66,1.53,.23,.5,.36,.77,.39,.83,.03,.09,.19,.54,.48,1.36,.32,.67,.77,1.74,1.36,3.21,.58,1.47,1.05,2.57,1.4,3.3,.03,.06,.12,.23,.26,.52,.15,.29,.25,.53,.31,.7l.66,1.18c.06,0,.12-.01,.2-.04,.07-.03,.14-.03,.2,0,.06-.23,.1-.6,.13-1.12,.03-.51,.06-.88,.09-1.11,.09-.67,.1-1.65,.04-2.93-.03-.29-.04-1.59-.04-3.89v-6.34c0-1.17,.03-1.81,.09-1.92,1.81-.23,3.28-.22,4.42,.04,0,.47,.01,1.44,.04,2.91,.03,1.47,.01,2.44-.04,2.91-.09,2.33-.13,5.71-.13,10.14-.03,.5-.02,1.19,.02,2.08,.04,.89,.07,1.52,.07,1.9-.06,.47-.09,.8-.09,1.01,.06,.73,.12,2.54,.17,5.42,0,2.01,.01,3.15,.04,3.41-2.25,.17-3.89,.15-4.94-.09Z"/><path class="cls-1" d="M97.65,34.54s-.02,.09-.04,.2c-.03,.1-.04,.18-.04,.24-.03,.32-.01,.8,.04,1.44,.09,.67,.04,1.78-.13,3.32-.03,.06-.02,.09,.04,.11s.09,.05,.09,.11c-.03,.9-.26,1.81-.7,2.71-.03,.15-.12,.29-.26,.44-.47,.96-.87,1.59-1.22,1.88-.03,.06-.09,.1-.18,.13l-.04,.04c-.09,.06-.19,.16-.31,.31-.12,.15-.22,.25-.31,.31-.35,.26-.71,.45-1.09,.57-.38,.15-1.2,.25-2.45,.31-4.52,.23-7.5,.31-8.96,.22-.23-1.95-.26-4.68-.09-8.18,.03-.41,.03-.99,0-1.75s-.04-1.33-.04-1.71c0-1.31,.03-2.16,.09-2.54,0-.03-.03-.06-.09-.09-.06-.03-.07-.07-.04-.13-.06-.85-.06-1.78,0-2.8,0-.29-.01-.77-.04-1.42-.03-.66-.04-1.16-.04-1.51,.06-1.34,.09-2.13,.09-2.36-.06-1.02-.09-3.53-.09-7.52,1.92-.12,4.68-.09,8.26,.09,.2,0,.48,.03,.83,.09,.35,.06,.58,.09,.7,.09,.09,.03,.47,.09,1.14,.17h.26l.53,.26,.48,.26c.73,.38,1.31,.77,1.75,1.18,.52,.55,.95,1.41,1.27,2.58,.06,.15,.2,.66,.44,1.53,.09,.5,.1,1.24,.04,2.23,0,2.33,.04,3.86,.13,4.59-.03,.03-.04,.13-.04,.31-.03,.26-.03,.64,0,1.14,.03,.5,.04,.82,.04,.96v2.19Zm-4.68-1.44c-.06-3.67-.06-6.15,0-7.43,.06-1.08,.06-1.78,0-2.1-.21-1.02-.66-1.7-1.36-2.05-.58-.35-1.28-.5-2.1-.44l-1.27,.09c-.79,0-1.22,.06-1.31,.17-.06,.06-.09,.18-.09,.35s0,.34,.02,.5c.01,.16,0,.31-.02,.46-.03,.47-.04,1.09-.02,1.88,.01,.79,.02,1.4,.02,1.84-.06,.5-.09,1.11-.09,1.86v1.33c0,1.37,.01,2.39,.04,3.06v2.14c.03,.5,.04,1.27,.04,2.32v2.19c.06,.88,.07,1.56,.04,2.05v.83s.04,.02,.04,.07,.01,.09,.04,.15c.2,.09,.54,.13,1,.13,1.08,.06,1.89,.03,2.45-.09,1.08-.2,1.81-.57,2.19-1.09l.13-.66c.17-.52,.26-1.08,.26-1.66,.06-.35,.06-.68,0-1.01-.03-1.25-.04-2.88-.04-4.9Z"/><path class="cls-1" d="M117.72,40.22c-.15,.52-.23,.96-.26,1.31,0,.09,0,.19,.02,.31,.01,.12,.02,.19,.02,.22,0,.06-.03,.15-.09,.28-.06,.13-.1,.24-.13,.33-.29,.9-.83,1.68-1.62,2.32-.09,.09-.18,.17-.28,.24-.1,.07-.22,.15-.35,.22-.13,.07-.23,.14-.28,.2-.41,.29-.73,.5-.96,.61-.47,.2-1.18,.47-2.14,.79l-.61,.13c-.67,.17-1.31,.2-1.92,.09l-.66-.13c-.09-.03-.2-.04-.35-.04h-.31c-.47-.12-.96-.35-1.49-.7-1.57-.93-2.7-2.01-3.37-3.23-.5-.82-.76-1.63-.79-2.45-.03-.12-.03-.25,0-.39,.03-.15,.03-.28,0-.39,0-.15,0-.29-.02-.44-.02-.15-.04-.31-.07-.5-.03-.19-.04-.34-.04-.46-.06-.15-.06-.52,0-1.14,.06-.61,.09-.99,.09-1.14,0-.17,0-.42-.02-.74-.01-.32-.02-.55-.02-.7,0-.09,0-.22,.02-.39s.02-.31,.02-.39c-.06-1.08-.07-1.89-.04-2.45,.06-1.17,.09-2.03,.09-2.58-.06-.61-.04-2.3,.04-5.07,0-.06,0-.15-.02-.26-.01-.12-.02-.19-.02-.22,0-.96,.03-1.54,.09-1.75l.26-.83c.06-.23,.15-.46,.28-.68,.13-.22,.23-.38,.31-.48,.07-.1,.21-.25,.42-.46,.2-.2,.33-.35,.39-.44,.15-.17,.28-.32,.39-.44s.28-.23,.48-.35c.2-.12,.35-.2,.44-.24,.09-.04,.28-.13,.59-.26,.31-.13,.49-.21,.55-.24,.09-.03,.25-.1,.5-.22,.25-.12,.44-.2,.59-.26,.23-.09,1.14-.23,2.71-.44,.79-.06,1.43,.02,1.92,.22,.15,.03,.77,.31,1.88,.83,.26,.15,.6,.36,1,.66,.41,.23,.66,.41,.74,.52,.09,.09,.25,.35,.48,.79,.2,.32,.6,1.17,1.18,2.54,.15,.82,.22,2.02,.24,3.61,.01,1.59,.04,2.54,.07,2.86,.06,.93,.07,1.63,.04,2.1-.03,.35-.03,.85,0,1.49,.03,.64,.04,1.05,.04,1.22v1.4c.15,2.01,.13,3.89-.04,5.64Zm-4.72-12.68c0-.2,0-.53-.02-.98-.02-.45-.02-.81-.02-1.07,0-1.43-.01-2.2-.04-2.32-.15-.5-.45-.95-.92-1.36-.03,0-.07,0-.13-.02-.06-.01-.12-.03-.17-.04s-.1-.04-.13-.07l-.48-.31c-.35-.15-.66-.22-.92-.22-.61,0-1.43,.19-2.45,.57l-.48,.53-.31,.35c-.03,.09-.07,.22-.11,.39-.04,.17-.1,.32-.15,.44,.03,.58,.01,2.54-.04,5.86-.06,3.21-.04,5.61,.04,7.21,.03,.44,.04,1.04,.04,1.79,0,.87,.03,1.41,.09,1.62,.2,.5,.32,.79,.35,.87,0,.12,.01,.19,.04,.22,0,.03,.02,.07,.07,.13,.04,.06,.07,.12,.07,.17,.09,.09,.2,.22,.35,.39,.15,.17,.28,.32,.39,.44,.12,.12,.25,.2,.39,.26,.26,.12,.79,.17,1.57,.17,.93-.03,1.69-.36,2.27-1.01,.06-.06,.1-.12,.13-.17,.03-.06,.06-.1,.09-.13l.35-.57c.2-.82,.26-1.44,.17-1.88,.09-.17,.13-.32,.13-.44,.15-1.22,.16-2.48,.04-3.76l-.17-3.72c-.03-.7-.04-1.82-.04-3.37Z"/><path class="cls-1" d="M135.42,46.6c-.64-1.4-1.47-3.37-2.49-5.9-.12-.23-.27-.62-.46-1.16-.19-.54-.33-.9-.42-1.07l-.48-1.44c-.26-.61-.74-1.65-1.42-3.1-.69-1.46-1.2-2.64-1.55-3.54,0-.12-.08-.36-.24-.74-.16-.38-.28-.57-.37-.57-.17-.03-.26,.15-.26,.52,0,.52,.01,.8,.04,.83,0,.09,0,.35-.02,.79-.01,.44-.02,.74-.02,.92,.06,2.74,.09,4.92,.09,6.56,.09,2.22,.13,3.37,.13,3.45,.03,.23,.01,.58-.04,1.05-.06,.47-.09,.79-.09,.96-.03,.09-.04,.26-.04,.52v.53c-.03,.15-.06,.22-.09,.22,.09,.12,.12,.29,.09,.53s-.03,.45,0,.66c-1.34,.44-2.88,.45-4.63,.04-.06-.26-.07-.79-.02-1.6s.07-1.35,.07-1.64l-.13-1.66v-4.72c0-1.25,.01-2.2,.04-2.84,.03-.64,.04-1.61,.04-2.91s.01-2.27,.04-2.91c.06-1.22,.06-3.1,0-5.64-.06-2.54-.06-4.44,0-5.73,1.92-.23,3.38-.29,4.37-.17,.12,.2,.25,.52,.42,.94,.16,.42,.28,.72,.37,.9l.83,1.75c.06,.12,.22,.51,.48,1.18,.26,.67,.48,1.18,.66,1.53,.23,.5,.36,.77,.39,.83,.03,.09,.19,.54,.48,1.36,.32,.67,.77,1.74,1.36,3.21,.58,1.47,1.05,2.57,1.4,3.3,.03,.06,.12,.23,.26,.52,.15,.29,.25,.53,.31,.7l.66,1.18c.06,0,.12-.01,.2-.04,.07-.03,.14-.03,.2,0,.06-.23,.1-.6,.13-1.12,.03-.51,.06-.88,.09-1.11,.09-.67,.1-1.65,.04-2.93-.03-.29-.04-1.59-.04-3.89v-6.34c0-1.17,.03-1.81,.09-1.92,1.81-.23,3.28-.22,4.42,.04,0,.47,.01,1.44,.04,2.91,.03,1.47,.01,2.44-.04,2.91-.09,2.33-.13,5.71-.13,10.14-.03,.5-.02,1.19,.02,2.08,.04,.89,.07,1.52,.07,1.9-.06,.47-.09,.8-.09,1.01,.06,.73,.12,2.54,.17,5.42,0,2.01,.01,3.15,.04,3.41-2.25,.17-3.89,.15-4.94-.09Z"/><path class="cls-1" d="M161.43,41.18c-.09,.61-.35,1.3-.79,2.05-.26,.58-.5,.98-.7,1.18-.2,.29-.66,.64-1.36,1.05-.15,.12-.38,.28-.7,.5-.32,.22-.55,.39-.7,.5-.09,.03-.42,.12-.98,.26-.57,.15-1.01,.25-1.33,.31-.15,.03-.9,0-2.27-.09-.03,0-.15,0-.37,.02s-.34,0-.37-.02c-1.52-.15-2.65-.55-3.41-1.22-.06,0-.09-.03-.09-.09l.04-.09c-.09-.03-.31-.19-.66-.48-.09-.26-.15-.39-.17-.39h-.18c-.12-.12-.28-.33-.48-.66-.67-.93-1.06-2.01-1.18-3.24-.15-2.16-.15-4.31,0-6.47,.03-.26,0-.66-.07-1.18-.07-.52-.11-.83-.11-.92-.03-.82-.01-2.01,.04-3.58l.13-3.19c0-1.54,.06-2.59,.17-3.15l.35-1.4c.15-.55,.39-1.11,.74-1.66,.15-.15,.23-.22,.26-.22-.03-.09-.03-.17,0-.26,.09-.12,.44-.36,1.05-.74,.12-.06,.31-.15,.57-.26,.26-.12,.45-.22,.57-.31,.06-.03,.29-.15,.7-.37,.41-.22,.71-.36,.92-.42,.38-.12,1.11-.15,2.19-.09h.79c.55,.03,.98,.07,1.27,.13,.12,.03,.37,.07,.76,.11,.39,.04,.69,.11,.9,.2l.7,.22,.48,.44,1.27,1.18c.09,.12,.23,.32,.44,.61,.2,.29,.36,.54,.48,.74,.38,.64,.64,1.46,.79,2.45,.06,.47,.09,1.16,.09,2.08v1.68c-1.98,.26-3.5,.26-4.55,0,.03-.73,.05-1.39,.07-1.99,.01-.6-.08-1.16-.28-1.68-.2-.52-.52-.92-.96-1.18-.47-.35-1.11-.5-1.92-.44-1.22,.03-2.19,.5-2.88,1.4-.38,.76-.47,2.25-.26,4.46,.03,.26,.03,.62,0,1.07-.03,.45-.04,.76-.04,.94-.03,.29-.03,.69,0,1.2,.03,.51,.04,.84,.04,.98,0,.26-.01,.63-.04,1.09-.03,.47-.04,.8-.04,1,0,.18,0,.37,.02,.57,.01,.21,.02,.39,.02,.57v.15s0,.09,.02,.15,.02,.12,.02,.17v.85c0,.45,.03,.81,.09,1.07-.06,.2-.09,.56-.09,1.07s-.01,.93-.04,1.25c-.06,.5,0,.83,.17,1.01,.03,.79,.41,1.4,1.14,1.84,.12,.03,.45,.15,1.01,.35,.73,.15,1.54,.06,2.45-.26l.79-.44,.35-.22c.03-.06,.06-.15,.09-.28s.06-.23,.09-.28c.2-.35,.32-.61,.35-.79,.03-.06,.03-.12,0-.2-.03-.07-.04-.12-.04-.15l.17-.92c0-.2-.03-.77-.09-1.71,.84-.35,2.4-.39,4.68-.13v2.1c0,1.2-.03,1.91-.09,2.14Z"/><path class="cls-1" d="M179.23,46.78c-.12-.55-.3-1.36-.55-2.4-.25-1.05-.42-1.82-.5-2.32-.23-.82-.35-1.24-.35-1.27-.76-.06-1.87-.05-3.34,.02-1.47,.07-2.47,.11-2.99,.11-.09,.09-.23,.57-.44,1.44l-.35,1.53c-.09,.32-.2,.82-.33,1.49-.13,.67-.25,1.17-.37,1.49-1.72,.15-3.28,.16-4.68,.04,.15-.79,.36-2.02,.66-3.69s.53-2.94,.7-3.78l.35-1.4c.17-.67,.37-1.69,.59-3.06,.22-1.37,.42-2.4,.59-3.1l.39-1.44,.26-1.44c.09-.41,.39-1.91,.92-4.5,.06-.23,.14-.55,.24-.96,.1-.41,.19-.78,.26-1.12,.07-.33,.12-.63,.15-.9,.5-2.8,.82-4.4,.96-4.81,1.46-.23,3.48-.23,6.08,0,.12,.73,.32,1.79,.61,3.19l.18,.61s.04,.32,.13,.87c.09,.55,.22,1.06,.39,1.53,.12,.41,.35,1.4,.7,2.97,.09,.32,.2,.93,.35,1.81,.15,.89,.29,1.57,.44,2.03,.17,.55,.37,1.42,.59,2.6s.4,2.05,.55,2.6c.09,.35,.17,.87,.26,1.55,.09,.68,.19,1.2,.31,1.55,.03,.15,.1,.39,.22,.72s.2,.59,.26,.76c.26,1.14,.47,2.19,.61,3.15l.17,.66c.03,.06,.04,.13,.04,.22v.22c0,.06,.02,.12,.07,.17,.04,.06,.07,.1,.07,.13v.44c.03,.12,.07,.26,.11,.42s.08,.29,.11,.39c.03,.1,.06,.21,.09,.33,.06,.47,.09,.82,.09,1.05-1.95,.15-3.48,.17-4.59,.09Zm-3.54-16.61c0-.09-.03-.22-.09-.39-.06-.17-.1-.32-.13-.44l-.26-.92c-.17-.76-.32-1.31-.44-1.66v-.26c-.09,0-.16-.04-.22-.13-.06-.09-.15-.12-.26-.09-.06,.12-.11,.32-.15,.61s-.08,.51-.11,.66l-.39,1.79c-.06,.23-.12,.57-.2,1-.07,.44-.15,.84-.22,1.2-.07,.37-.15,.72-.24,1.07l-.31,1.22-.09,.61c0,.06-.08,.31-.24,.77-.16,.45-.21,.81-.15,1.07,.17,.03,1.69,0,4.55-.09,.06-.09,.06-.32,0-.7-.03-.12-.16-.86-.39-2.23-.23-1.37-.45-2.4-.66-3.1Z"/><path class="cls-1" d="M202.53,47c-1.34-.15-3.59-.17-6.75-.09-3.16,.09-5.47,.1-6.93,.04,0-.5,.02-1.33,.07-2.51,.04-1.18,.05-2.09,.02-2.73,0-.17-.02-.47-.07-.87-.04-.41-.05-.73-.02-.96,0-.15,.01-.43,.04-.85,.03-.42,.03-.74,0-.94,0-.23-.02-.55-.07-.96s-.07-.73-.07-.96c0-.17,.03-.73,.09-1.66,0-.23-.01-.55-.04-.96-.03-.41-.04-.73-.04-.96,0-.55,0-1.35,.02-2.4,.01-1.05,.02-1.82,.02-2.32,0-.26,0-.63-.02-1.12s-.02-.84-.02-1.07c.06-.99,.09-1.72,.09-2.19-.06-3.24-.06-5.45,0-6.64,.41-.12,.86-.18,1.36-.2,.5-.01,1.08,0,1.77,.02,.68,.03,1.14,.04,1.38,.04v6.65c.03,1.54,.04,3.86,.04,6.95,0,.93,.01,1.63,.04,2.1,.03,.26,.04,.63,.04,1.12v1.07c.15,.93,.22,1.82,.22,2.67,0,.35-.03,.96-.09,1.84-.03,.41-.02,1.05,.04,1.92,.09,.93,.15,1.43,.17,1.49,.17,.03,1.28,.04,3.32,.04,3,0,4.78,.03,5.33,.09,.38,1.72,.39,3.18,.04,4.37Z"/><path class="cls-1" d="M221.55,47c-1.34-.15-3.59-.17-6.75-.09-3.16,.09-5.47,.1-6.93,.04,0-.5,.02-1.33,.07-2.51,.04-1.18,.05-2.09,.02-2.73,0-.17-.02-.47-.07-.87-.04-.41-.05-.73-.02-.96,0-.15,.01-.43,.04-.85,.03-.42,.03-.74,0-.94,0-.23-.02-.55-.07-.96s-.07-.73-.07-.96c0-.17,.03-.73,.09-1.66,0-.23-.01-.55-.04-.96-.03-.41-.04-.73-.04-.96,0-.55,0-1.35,.02-2.4,.01-1.05,.02-1.82,.02-2.32,0-.26,0-.63-.02-1.12s-.02-.84-.02-1.07c.06-.99,.09-1.72,.09-2.19-.06-3.24-.06-5.45,0-6.64,.41-.12,.86-.18,1.36-.2,.5-.01,1.08,0,1.77,.02,.68,.03,1.14,.04,1.38,.04v6.65c.03,1.54,.04,3.86,.04,6.95,0,.93,.01,1.63,.04,2.1,.03,.26,.04,.63,.04,1.12v1.07c.15,.93,.22,1.82,.22,2.67,0,.35-.03,.96-.09,1.84-.03,.41-.02,1.05,.04,1.92,.09,.93,.15,1.43,.17,1.49,.17,.03,1.28,.04,3.32,.04,3,0,4.78,.03,5.33,.09,.38,1.72,.39,3.18,.04,4.37Z"/><path class="cls-1" d="M227.05,16.92c.76-.09,2.1-.13,4.02-.13,.03,0,.12,0,.26-.02,.15-.01,.23,0,.26,.07,.03,.76,.04,1.94,.02,3.54s0,2.87,.02,3.8v5.55c0,.15,.01,.36,.04,.63s.05,.52,.07,.72c.01,.2,.02,.39,.02,.57,0,.03-.03,.07-.09,.13-.03,.03-.04,.07-.04,.13,0,.09,0,.23,.02,.44,.01,.21,.02,.37,.02,.48v2.54c-.03,1.31,0,3.27,.11,5.88,.1,2.61,.12,4.57,.07,5.88-.12-.12-.31-.15-.57-.09-.23,0-.56,.02-.98,.07s-.69,.07-.81,.07c-.23,0-.47,0-.72-.02-.25-.01-.53-.04-.85-.07-.32-.03-.58-.04-.79-.04,.03-.47,.02-1.17-.02-2.1-.04-.93-.07-1.6-.07-2.01,0-.15,.01-.38,.04-.7,.03-.32,.04-.57,.04-.74,0-.35,.01-1.08,.04-2.19,.03-1.11,.01-1.86-.04-2.27-.06-.38-.09-.92-.09-1.62v-1.31c-.09-2.07-.1-5.19-.04-9.36,.03-.41,.03-.98,0-1.73s-.04-1.23-.04-1.46v-3.19c0-.15,.01-.39,.04-.74s.04-.58,.04-.7Z"/><path class="cls-1" d="M250.35,46.6c-.64-1.4-1.47-3.37-2.49-5.9-.12-.23-.27-.62-.46-1.16-.19-.54-.33-.9-.42-1.07l-.48-1.44c-.26-.61-.74-1.65-1.42-3.1-.69-1.46-1.2-2.64-1.55-3.54,0-.12-.08-.36-.24-.74-.16-.38-.28-.57-.37-.57-.17-.03-.26,.15-.26,.52,0,.52,.01,.8,.04,.83,0,.09,0,.35-.02,.79-.01,.44-.02,.74-.02,.92,.06,2.74,.09,4.92,.09,6.56,.09,2.22,.13,3.37,.13,3.45,.03,.23,.01,.58-.04,1.05-.06,.47-.09,.79-.09,.96-.03,.09-.04,.26-.04,.52v.53c-.03,.15-.06,.22-.09,.22,.09,.12,.12,.29,.09,.53s-.03,.45,0,.66c-1.34,.44-2.88,.45-4.63,.04-.06-.26-.07-.79-.02-1.6s.07-1.35,.07-1.64l-.13-1.66v-4.72c0-1.25,.01-2.2,.04-2.84,.03-.64,.04-1.61,.04-2.91s.01-2.27,.04-2.91c.06-1.22,.06-3.1,0-5.64-.06-2.54-.06-4.44,0-5.73,1.92-.23,3.38-.29,4.37-.17,.12,.2,.25,.52,.42,.94,.16,.42,.28,.72,.37,.9l.83,1.75c.06,.12,.22,.51,.48,1.18,.26,.67,.48,1.18,.66,1.53,.23,.5,.36,.77,.39,.83,.03,.09,.19,.54,.48,1.36,.32,.67,.77,1.74,1.36,3.21,.58,1.47,1.05,2.57,1.4,3.3,.03,.06,.12,.23,.26,.52,.15,.29,.25,.53,.31,.7l.66,1.18c.06,0,.12-.01,.2-.04,.07-.03,.14-.03,.2,0,.06-.23,.1-.6,.13-1.12,.03-.51,.06-.88,.09-1.11,.09-.67,.1-1.65,.04-2.93-.03-.29-.04-1.59-.04-3.89v-6.34c0-1.17,.03-1.81,.09-1.92,1.81-.23,3.28-.22,4.42,.04,0,.47,.01,1.44,.04,2.91,.03,1.47,.01,2.44-.04,2.91-.09,2.33-.13,5.71-.13,10.14-.03,.5-.02,1.19,.02,2.08,.04,.89,.07,1.52,.07,1.9-.06,.47-.09,.8-.09,1.01,.06,.73,.12,2.54,.17,5.42,0,2.01,.01,3.15,.04,3.41-2.25,.17-3.89,.15-4.94-.09Z"/><path class="cls-1" d="M276.32,24.92c-.09,.88-.12,1.36-.09,1.44-1.25,.09-2.81,.04-4.68-.13,.2-1.54,.09-2.77-.35-3.67-.26-.58-.54-.96-.83-1.14-.64-.5-1.35-.66-2.14-.48-.12,.03-.3,.09-.55,.2-.25,.1-.42,.17-.5,.2-.06,.03-.16,.07-.31,.13-.15,.06-.26,.1-.35,.13l-.48,.39c-.5,.35-.79,.85-.88,1.49-.03,.38-.02,1.02,.02,1.92,.04,.9,.04,1.57-.02,2.01-.06,.5-.06,1.49,0,2.97,0,.12-.01,.29-.04,.52-.03,.23-.04,.41-.04,.52,.06,.41,.09,.73,.09,.96,0,.12,0,.28-.02,.5-.02,.22-.02,.39-.02,.5-.06,2.59-.04,4.39,.04,5.38,.2,1.31,.35,2.07,.44,2.27l.13,.35c.06,.12,.2,.26,.42,.42,.22,.16,.34,.27,.37,.33,1.08,.29,1.88,.38,2.4,.26,.64-.23,1.19-.5,1.66-.79l.31-.31c.64-.73,.89-1.91,.74-3.54-.03-.17-.04-.6-.04-1.29s-.07-1.17-.22-1.46c-.2,.06-.63,.08-1.29,.07-.66-.01-1.07-.02-1.25-.02-.15-1.78-.06-3.16,.26-4.15h2.32c.29-.03,.68-.02,1.16,.02,.48,.04,.84,.07,1.07,.07h.92c.99,0,1.56-.01,1.71-.04,.06,.7,.04,1.65-.04,2.84-.09,1.2-.13,2.04-.13,2.54,0,.58,.03,1.43,.09,2.54,0,1.2,.01,2.08,.04,2.67v.68c0,.25,.01,.44,.04,.59,0,.12,.03,.21,.09,.26v1.62c0,.09-.01,.25-.04,.48s-.04,.41-.04,.52c0,.52-.03,.86-.09,1.01l.17,.13c-.38,.12-.86,.16-1.44,.13-.17-.03-.4-.08-.68-.15-.28-.07-.46-.11-.55-.11l-.22-.92c-.03-.09-.06-.2-.09-.33-.03-.13-.06-.24-.09-.33-.03-.09-.07-.13-.13-.13-.12-.03-.2-.01-.24,.04-.04,.06-.08,.16-.11,.31-.15,.09-.23,.19-.26,.31l-1.44,.66c-.61,.35-1.15,.58-1.62,.7-.35,.09-.93,.13-1.75,.13-.7,.06-1.28,.03-1.75-.09-.15-.06-.31-.15-.48-.26-.09-.03-.22-.07-.39-.11-.17-.04-.33-.09-.46-.13-.13-.04-.24-.09-.33-.15-.29-.17-.74-.57-1.36-1.18-.09-.09-.37-.44-.83-1.05-.82-1.05-1.27-2-1.35-2.84-.06-.12-.08-.36-.07-.74,.01-.38,.02-.63,.02-.74,0-.06-.02-.13-.04-.22-.03-.09-.04-.15-.04-.18v-1.11c0-.51-.01-.9-.04-1.16,0-.53,.01-.92,.04-1.18,0-.12,0-.29-.02-.52s-.02-.39-.02-.48c0-4.2-.02-6.57-.04-7.12-.12-1.05-.16-2.11-.13-3.19,.06-1.69,.15-2.74,.26-3.15,.06-.18,.15-.28,.26-.31,0-.35,.2-.84,.61-1.49,.47-.79,1.01-1.34,1.62-1.66,.12-.12,.32-.23,.61-.35s.51-.23,.66-.35c.2-.17,.64-.38,1.31-.61,1.34-.2,2.74-.29,4.2-.26,.2,.09,.48,.18,.83,.26,.35,.09,.58,.15,.7,.17,.35,.09,.71,.22,1.09,.39,.53,.23,1.05,.64,1.57,1.22l.48,.66c.35,.38,.7,1.05,1.05,2.01,.52,1.28,.73,2.52,.61,3.72Z"/></g></g></g></svg>