<?xml version="1.0" encoding="UTF-8"?><svg id="Layer_2" xmlns="http://www.w3.org/2000/svg" viewBox="0 0 319.36 42.61"><defs><style>.cls-1{fill:none;stroke:#27346b;stroke-miterlimit:10;stroke-width:2.33px;}</style></defs><g id="Layer_3"><g><path class="cls-1" d="M11.5,13.41H1.43L3.77,2.25H36.16l-2.34,11.16h-10.07l-5.72,26.94H5.79L11.5,13.41Z"/><path class="cls-1" d="M59.38,1.16c12.36,0,20.14,8.55,20.14,18.78,0,11.92-10.07,21.5-23.13,21.5-12.36,0-20.14-8.55-20.14-18.78,0-11.92,10.07-21.5,23.13-21.5Zm-2.45,29.39c5.71,0,10.34-4.46,10.34-10.34,0-4.35-3.48-8.16-8.44-8.16-5.71,0-10.34,4.46-10.34,10.34,0,4.35,3.48,8.16,8.44,8.16Z"/><path class="cls-1" d="M108.37,13.41h-10.07l2.34-11.16h32.38l-2.34,11.16h-10.07l-5.72,26.94h-12.25l5.71-26.94Z"/><path class="cls-1" d="M138.4,2.25h12.25l-2.83,13.33h11.43l2.83-13.33h12.25l-8.05,38.1h-12.25l2.94-13.88h-11.43l-2.94,13.88h-12.25L138.4,2.25Z"/><path class="cls-1" d="M183.47,2.25h30.21l-2.12,10.07h-17.96l-.98,4.63h13.61l-1.85,8.71h-13.61l-.98,4.63h18.51l-2.12,10.07h-30.75L183.47,2.25Z"/><path class="cls-1" d="M234.63,2.25h12.25l-4.52,21.44c-.05,.27-.16,.87-.16,1.31,0,2.99,1.74,5.28,5.01,5.28s5.66-2.34,6.31-5.39l4.79-22.64h12.25l-5.06,23.89c-1.91,9.04-9.58,15.29-19.05,15.29-10.4,0-16.6-6.64-16.6-15.35,0-1.69,.22-2.45,.44-3.54l4.35-20.3Z"/><path class="cls-1" d="M279.23,2.25h12.25l-2.78,13.06,13.39-13.06h14.42l-16.93,16.6,8.82,21.5h-13.55l-5.12-12.46-4.57,4.25-1.74,8.22h-12.25l8.06-38.1Z"/></g></g></svg>