<?xml version="1.0" encoding="UTF-8"?><svg id="Layer_2" xmlns="http://www.w3.org/2000/svg" viewBox="0 0 404.19 23.68"><defs><style>.cls-1{fill:#27346b;}</style></defs><g id="Layer_3"><g><path class="cls-1" d="M0,.64H16.96V6.4H6.08v3.84H14.4v5.44H6.08v7.36H0V.64Z"/><path class="cls-1" d="M31.06,0c7.17,0,12.48,5.28,12.48,11.84s-5.31,11.84-12.48,11.84-12.48-5.28-12.48-11.84S23.89,0,31.06,0Zm0,18.08c3.49,0,6.24-2.72,6.24-6.24s-2.75-6.24-6.24-6.24-6.24,2.75-6.24,6.24,2.72,6.24,6.24,6.24Z"/><path class="cls-1" d="M47.18,.64h10.56c4.77,0,8.16,3.36,8.16,7.68,0,2.43-.93,4-1.92,4.99-.54,.58-1.18,1.06-1.92,1.41l4.64,8.32h-6.4l-3.68-7.04h-3.36v7.04h-6.08V.64Zm10.24,9.92c1.44,0,2.4-.96,2.4-2.24s-.96-2.24-2.4-2.24h-4.16v4.48h4.16Z"/><path class="cls-1" d="M82.22,15.04L74.22,.64h6.72l4.26,8.8h.13L89.58,.64h6.72l-8,14.4v8h-6.08v-8Z"/><path class="cls-1" d="M108.19,0c7.17,0,12.48,5.28,12.48,11.84s-5.31,11.84-12.48,11.84-12.48-5.28-12.48-11.84S101.03,0,108.19,0Zm0,18.08c3.49,0,6.24-2.72,6.24-6.24s-2.75-6.24-6.24-6.24-6.24,2.75-6.24,6.24,2.72,6.24,6.24,6.24Z"/><path class="cls-1" d="M124.1,.64h6.08V13.76c0,2.56,1.76,4.32,4.16,4.32s4.16-1.76,4.16-4.32V.64h6.08V13.76c0,5.76-4.19,9.92-10.24,9.92s-10.24-4.16-10.24-9.92V.64Z"/><path class="cls-1" d="M162.34,.64h6.72l8.48,22.4h-6.56l-1.6-4.8h-7.36l-1.6,4.8h-6.56L162.34,.64Zm5.44,12.64l-2.02-6.4h-.13l-2.02,6.4h4.16Z"/><path class="cls-1" d="M179.83,.64h5.28l9.6,12.32V.64h6.08V23.04h-5.28l-9.6-12.32v12.32h-6.08V.64Z"/><path class="cls-1" d="M205.78,.64h8.32c7.2,0,12.16,4.96,12.16,11.2s-4.96,11.2-12.16,11.2h-8.32V.64Zm8.32,16.96c3.49,0,5.92-2.43,5.92-5.76s-2.43-5.76-5.92-5.76h-2.24v11.52h2.24Z"/><path class="cls-1" d="M238.42,16.32c.35,.35,.77,.67,1.22,.96,.77,.48,1.89,.96,3.26,.96,1.92,0,2.88-.96,2.88-2.08s-.96-2.08-2.88-2.08h-2.24v-4.96h2.24c1.63,0,2.4-.8,2.4-1.92s-.77-1.92-2.4-1.92c-1.12,0-2.05,.42-2.69,.9-.38,.26-.7,.54-.99,.86l-3.52-3.68c.58-.61,1.28-1.18,2.08-1.66,1.38-.86,3.36-1.7,5.92-1.7,4.96,0,8,3.04,8,6.4,0,1.89-.93,3.04-1.92,3.78-.54,.42-1.18,.77-1.92,1.02,.83,.29,1.57,.67,2.24,1.18,1.12,.86,2.24,2.24,2.24,4.42,0,3.68-3.2,6.88-8.8,6.88-2.72,0-4.86-.9-6.37-1.82-.86-.54-1.6-1.18-2.27-1.86l3.52-3.68Z"/><path class="cls-1" d="M263.06,.64h16.96V6.4h-10.88v3.84h8.32v5.44h-8.32v7.36h-6.08V.64Z"/><path class="cls-1" d="M283.19,.64h10.56c4.77,0,8.16,3.36,8.16,7.68,0,2.43-.93,4-1.92,4.99-.54,.58-1.18,1.06-1.92,1.41l4.64,8.32h-6.4l-3.68-7.04h-3.36v7.04h-6.08V.64Zm10.24,9.92c1.44,0,2.4-.96,2.4-2.24s-.96-2.24-2.4-2.24h-4.16v4.48h4.16Z"/><path class="cls-1" d="M305.95,.64h6.08V23.04h-6.08V.64Z"/><path class="cls-1" d="M316.95,.64h17.12V6.08h-11.04v3.2h8.48v5.12h-8.48v3.2h11.36v5.44h-17.44V.64Z"/><path class="cls-1" d="M338.38,.64h5.28l9.6,12.32V.64h6.08V23.04h-5.28l-9.6-12.32v12.32h-6.08V.64Z"/><path class="cls-1" d="M364.33,.64h8.32c7.2,0,12.16,4.96,12.16,11.2s-4.96,11.2-12.16,11.2h-8.32V.64Zm8.32,16.96c3.49,0,5.92-2.43,5.92-5.76s-2.43-5.76-5.92-5.76h-2.24v11.52h2.24Z"/><path class="cls-1" d="M389.95,16c.38,.45,.83,.86,1.31,1.22,.86,.61,2.05,1.18,3.49,1.18,1.92,0,2.88-.93,2.88-1.92,0-3.04-10.56-1.76-10.56-9.6,0-3.52,3.2-6.88,8.48-6.88,2.72,0,4.67,.8,5.95,1.6,.74,.48,1.38,.99,1.89,1.6l-3.52,3.84c-.29-.32-.61-.61-.99-.86-.64-.48-1.57-.9-2.69-.9-1.79,0-2.56,.8-2.56,1.6,0,3.04,10.56,1.76,10.56,9.6,0,3.84-3.33,7.2-8.8,7.2-3.07,0-5.25-.93-6.75-1.92-.86-.54-1.6-1.18-2.21-1.92l3.52-3.84Z"/></g></g></svg>