<?xml version="1.0" encoding="UTF-8"?><svg id="Layer_2" xmlns="http://www.w3.org/2000/svg" viewBox="0 0 386.39 23.68"><defs><style>.cls-1{fill:#27346b;}</style></defs><g id="Layer_3"><g><path class="cls-1" d="M8.48,.64h6.72l8.48,22.4h-6.56l-1.6-4.8h-7.36l-1.6,4.8H0L8.48,.64Zm5.44,12.64l-2.02-6.4h-.13l-2.02,6.4h4.16Z"/><path class="cls-1" d="M33.12,.64h6.08V8.8h8.16V.64h6.08V23.04h-6.08V14.56h-8.16v8.48h-6.08V.64Z"/><path class="cls-1" d="M69.57,0c7.17,0,12.48,5.28,12.48,11.84s-5.31,11.84-12.48,11.84-12.48-5.28-12.48-11.84S62.4,0,69.57,0Zm0,18.08c3.49,0,6.24-2.72,6.24-6.24s-2.75-6.24-6.24-6.24-6.24,2.75-6.24,6.24,2.72,6.24,6.24,6.24Z"/><path class="cls-1" d="M85.7,.64h6.08V17.28h9.76v5.76h-15.84V.64Z"/><path class="cls-1" d="M104.19,.64h6.08V23.04h-6.08V.64Z"/><path class="cls-1" d="M115.2,.64h8.32c7.2,0,12.16,4.96,12.16,11.2s-4.96,11.2-12.16,11.2h-8.32V.64Zm8.32,16.96c3.49,0,5.92-2.43,5.92-5.76s-2.43-5.76-5.92-5.76h-2.24v11.52h2.24Z"/><path class="cls-1" d="M144.18,.64h6.72l8.48,22.4h-6.56l-1.6-4.8h-7.36l-1.6,4.8h-6.56L144.18,.64Zm5.44,12.64l-2.02-6.4h-.13l-2.02,6.4h4.16Z"/><path class="cls-1" d="M164.86,15.04L156.86,.64h6.72l4.26,8.8h.13l4.26-8.8h6.72l-8,14.4v8h-6.08v-8Z"/><path class="cls-1" d="M192.54,6.08h-6.24V.64h18.56V6.08h-6.24V23.04h-6.08V6.08Z"/><path class="cls-1" d="M218.71,0c7.17,0,12.48,5.28,12.48,11.84s-5.31,11.84-12.48,11.84-12.48-5.28-12.48-11.84,5.31-11.84,12.48-11.84Zm0,18.08c3.49,0,6.24-2.72,6.24-6.24s-2.75-6.24-6.24-6.24-6.24,2.75-6.24,6.24,2.72,6.24,6.24,6.24Z"/><path class="cls-1" d="M242.08,.64h6.08V17.28h9.76v5.76h-15.84V.64Z"/><path class="cls-1" d="M271.89,0c7.17,0,12.48,5.28,12.48,11.84s-5.31,11.84-12.48,11.84-12.48-5.28-12.48-11.84,5.31-11.84,12.48-11.84Zm0,18.08c3.49,0,6.24-2.72,6.24-6.24s-2.75-6.24-6.24-6.24-6.24,2.75-6.24,6.24,2.72,6.24,6.24,6.24Z"/><path class="cls-1" d="M288.02,.64h5.28l9.6,12.32V.64h6.08V23.04h-5.28l-9.6-12.32v12.32h-6.08V.64Z"/><path class="cls-1" d="M313.98,.64h8.32c7.2,0,12.16,4.96,12.16,11.2s-4.96,11.2-12.16,11.2h-8.32V.64Zm8.32,16.96c3.49,0,5.92-2.43,5.92-5.76s-2.43-5.76-5.92-5.76h-2.24v11.52h2.24Z"/><path class="cls-1" d="M349.3,0c7.17,0,12.48,5.28,12.48,11.84s-5.31,11.84-12.48,11.84-12.48-5.28-12.48-11.84,5.31-11.84,12.48-11.84Zm0,18.08c3.49,0,6.24-2.72,6.24-6.24s-2.75-6.24-6.24-6.24-6.24,2.75-6.24,6.24,2.72,6.24,6.24,6.24Z"/><path class="cls-1" d="M365.43,.64h5.28l9.6,12.32V.64h6.08V23.04h-5.28l-9.6-12.32v12.32h-6.08V.64Z"/></g></g></svg>