<?xml version="1.0" encoding="UTF-8"?><svg id="Layer_2" xmlns="http://www.w3.org/2000/svg" viewBox="0 0 172.66 83.83"><defs><style>.cls-1{fill:#ff3008;}</style></defs><g id="Layer_3"><g><path class="cls-1" d="M7.15,64.18c5.63,0,9.89,4.26,9.89,9.62s-4.26,9.62-9.89,9.62H.48c-.26,0-.48-.21-.48-.48v-18.22c0-.27,.22-.48,.48-.48l6.67-.06Zm-3.02,3.71v11.82h3.02c3.22-.04,5.8-2.69,5.75-5.91,.08-3.18-2.42-5.82-5.6-5.91-.05,0-.1,0-.16,0h-3.02Z"/><path class="cls-1" d="M31.58,63.77c5.91,0,10.44,4.53,10.44,10.03s-4.53,10.03-10.44,10.03-10.45-4.54-10.45-10.03,4.53-10.01,10.45-10.01m0,16.33c3.49,0,6.32-2.83,6.32-6.32s-2.83-6.32-6.32-6.32-6.32,2.83-6.32,6.32c0,3.49,2.83,6.32,6.32,6.32"/><path class="cls-1" d="M56.41,63.77c5.91,0,10.45,4.53,10.45,10.03s-4.53,10.03-10.45,10.03-10.44-4.54-10.44-10.03,4.53-10.01,10.44-10.01m0,16.33c3.49,0,6.32-2.83,6.33-6.32,0-3.49-2.82-6.32-6.32-6.33-3.49,0-6.32,2.83-6.33,6.32h0c0,3.49,2.83,6.32,6.32,6.33"/><path class="cls-1" d="M72.32,64.68c0-.26,.21-.48,.48-.48h8.02c3.84,0,6.59,2.81,6.59,6.33,.02,2.38-1.31,4.56-3.43,5.63l3.7,6.54c.15,.22,.09,.52-.13,.66-.09,.06-.19,.09-.3,.08h-3.25c-.18,0-.35-.1-.44-.26l-3.57-6.47h-3.57v6.23c0,.27-.22,.48-.48,.48h-3.13c-.26,0-.48-.21-.48-.48l-.02-18.26Zm8.38,3.21h-4.26v5.08h4.26c1.38,.06,2.55-1,2.61-2.38,0-.03,0-.06,0-.09,.05-1.39-1.04-2.57-2.44-2.61-.06,0-.12,0-.18,0"/><path class="cls-1" d="M101.2,64.27c5.64,0,9.9,4.26,9.9,9.62s-4.26,9.62-9.9,9.62h-6.66c-.26,0-.48-.21-.48-.48v-18.28c0-.27,.21-.48,.48-.48h6.66Zm-3.04,3.71v11.82h3.04c3.22-.04,5.8-2.69,5.76-5.91,.08-3.18-2.42-5.82-5.6-5.91-.05,0-.1,0-.16,0h-3.04Z"/><path class="cls-1" d="M119.94,78.86l-1.53,4.21c-.07,.21-.26,.34-.48,.33h-3.3c-.26,.02-.5-.17-.52-.43,0-.09,0-.17,.04-.25l7.17-18.23c.07-.2,.27-.33,.48-.32h3.72c.21-.01,.41,.12,.48,.32l7.17,18.23c.11,.24,0,.53-.23,.64-.08,.04-.16,.05-.25,.04h-3.32c-.22,.01-.41-.12-.48-.33l-1.53-4.21h-7.41Zm3.71-9.89l-2.34,6.33h4.67l-2.34-6.33Z"/><path class="cls-1" d="M137,69.38c0-3.03,2.61-5.64,6.74-5.64,2.21-.05,4.35,.75,5.98,2.25,.19,.2,.19,.51,0,.71l-1.86,1.85c-.19,.19-.49,.19-.68,0,0,0,0,0,0,0-.87-.79-2.01-1.24-3.18-1.26-1.65,0-2.88,.96-2.88,2.06,0,3.57,9.75,1.51,9.75,8.38,0,3.43-2.61,6.04-7.29,6.04-2.6,.03-5.1-.97-6.95-2.79-.19-.2-.19-.51,0-.71l1.78-1.77c.18-.19,.49-.2,.68-.01h.01c1.13,1.1,2.63,1.71,4.2,1.73,2.06,0,3.42-1.1,3.42-2.48,0-3.57-9.75-1.51-9.75-8.38"/><path class="cls-1" d="M168.56,64.66v7.19h-8.25v-7.19c0-.26-.21-.48-.48-.48h-3.15c-.27,0-.48,.22-.48,.48v18.23c0,.26,.21,.48,.48,.48h3.13c.26,0,.48-.21,.48-.48v-7.34h8.25v7.34c0,.26,.21,.48,.48,.48h3.16c.26,0,.48-.21,.48-.48v-18.23c0-.26-.22-.48-.48-.48h-3.13c-.26,0-.49,.2-.49,.47h0"/><path class="cls-1" d="M117.94,10.48C114.49,4.01,107.75-.02,100.42,0H44.93c-1.06,.01-1.91,.89-1.89,1.95,0,.49,.2,.96,.55,1.32l12.09,12.16c1.07,1.07,2.52,1.68,4.03,1.68h39.12c2.78-.2,5.19,1.89,5.39,4.67,.2,2.78-1.89,5.19-4.67,5.39-.2,.01-.41,.02-.61,0h-26.99c-1.06,.01-1.91,.88-1.9,1.94,0,.49,.2,.97,.55,1.32l12.09,12.16c1.07,1.07,2.52,1.68,4.03,1.68h12.19c15.87,0,27.87-16.96,19.01-33.8"/></g></g></svg>