<?xml version="1.0" encoding="UTF-8"?><svg id="Layer_2" xmlns="http://www.w3.org/2000/svg" viewBox="0 0 121.66 121.66"><defs><style>.cls-1{fill:#fff;}.cls-2{fill:#ff3008;}.cls-3{fill:#27346b;}</style></defs><g id="Layer_3"><g><g><path class="cls-2" d="M60.17,101.66c-22.57-.37-40.64-19.03-40.27-41.6,.37-22.57,19.03-40.64,41.6-40.27,22.57,.37,40.64,19.03,40.27,41.6-.37,22.57-19.03,40.64-41.6,40.27Zm1.31-80.35c-21.73-.35-39.7,17.04-40.05,38.77-.35,21.73,17.04,39.7,38.77,40.05,21.73,.35,39.7-17.04,40.05-38.77,.35-21.73-17.04-39.7-38.77-40.05Z"/><g><rect class="cls-2" x="51.33" y="22.66" width=".53" height="30.81" transform="translate(-10.57 22.36) rotate(-22.24)"/><polygon class="cls-2" points="55.18 53.67 36.53 29.14 36.95 28.82 55.6 53.35 55.18 53.67"/><rect class="cls-2" x="41.28" y="30.34" width=".53" height="30.81" transform="translate(-20.06 50.58) rotate(-52.24)"/><rect class="cls-2" x="38.09" y="35.85" width=".53" height="30.81" transform="translate(-23.75 66.8) rotate(-67.24)"/><rect class="cls-2" x="36.42" y="42" width=".53" height="30.81" transform="translate(-25.15 86.01) rotate(-82.24)"/><polygon class="cls-2" points="51.99 62.11 21.43 65.99 21.36 65.46 51.93 61.58 51.99 62.11"/><rect class="cls-2" x="22.91" y="69.68" width="30.81" height=".53" transform="translate(-23.62 19.7) rotate(-22.24)"/><polygon class="cls-2" points="29.38 85.01 29.06 84.59 53.59 65.94 53.91 66.36 29.38 85.01"/><rect class="cls-2" x="30.58" y="79.73" width="30.81" height=".53" transform="translate(-45.41 67.31) rotate(-52.21)"/><rect class="cls-2" x="36.1" y="82.92" width="30.81" height=".53" transform="translate(-45.13 98.5) rotate(-67.24)"/><rect class="cls-2" x="42.25" y="84.59" width="30.81" height=".53" transform="translate(-34.18 130.57) rotate(-82.27)"/><polygon class="cls-2" points="66.24 100.12 65.71 100.18 61.83 69.62 62.35 69.55 66.24 100.12"/><rect class="cls-2" x="69.93" y="67.82" width=".53" height="30.81" transform="translate(-26.28 32.75) rotate(-22.24)"/><polygon class="cls-2" points="84.83 92.48 66.18 67.95 66.61 67.63 85.25 92.16 84.83 92.48"/><rect class="cls-2" x="79.97" y="60.15" width=".53" height="30.81" transform="translate(-28.63 92.72) rotate(-52.24)"/><rect class="cls-2" x="83.17" y="54.63" width=".53" height="30.81" transform="translate(-13.43 119.88) rotate(-67.24)"/><rect class="cls-2" x="84.83" y="48.48" width=".53" height="30.81" transform="translate(10.31 139.58) rotate(-82.24)"/><polygon class="cls-2" points="100.43 55.83 69.86 59.72 69.79 59.19 100.36 55.31 100.43 55.83"/><rect class="cls-2" x="68.06" y="51.09" width="30.81" height=".53" transform="translate(-13.23 35.41) rotate(-22.24)"/><polygon class="cls-2" points="68.19 55.36 67.87 54.93 92.4 36.29 92.72 36.71 68.19 55.36"/><rect class="cls-2" x="60.39" y="41.04" width="30.81" height=".53" transform="translate(-3.29 75.89) rotate(-52.21)"/><rect class="cls-2" x="54.88" y="37.84" width="30.82" height=".53" transform="translate(7.95 88.17) rotate(-67.24)"/><rect class="cls-2" x="48.72" y="36.18" width="30.81" height=".53" transform="translate(19.39 95.09) rotate(-82.27)"/><polygon class="cls-2" points="59.96 51.68 59.43 51.75 55.55 21.18 56.08 21.11 59.96 51.68"/></g></g><path class="cls-2" d="M60.83,5.48C30.32,5.48,5.59,30.22,5.59,60.72s24.73,55.24,55.24,55.24,55.24-24.73,55.24-55.24S91.34,5.48,60.83,5.48Zm0,108.04c-29.16,0-52.8-23.64-52.8-52.8S31.67,7.93,60.83,7.93s52.8,23.64,52.8,52.8-23.64,52.8-52.8,52.8Z"/><g><circle class="cls-3" cx="61.04" cy="3.13" r="3.13"/><circle class="cls-3" cx="46.1" cy="5.04" r="3.13" transform="translate(-.22 2.87) rotate(-3.56)"/><path class="cls-3" d="M34.87,9.19c.86,1.49,.35,3.41-1.14,4.27-1.49,.86-3.41,.35-4.27-1.14-.86-1.49-.35-3.41,1.14-4.27,1.49-.86,3.41-.35,4.27,1.14Z"/><path class="cls-3" d="M22.39,17.67c1.22,1.22,1.22,3.2,0,4.42-1.22,1.22-3.2,1.22-4.42,0-1.22-1.22-1.22-3.2,0-4.42,1.22-1.22,3.2-1.22,4.42,0Z"/><path class="cls-3" d="M12.52,29.09c1.49,.86,2.01,2.77,1.14,4.27-.86,1.49-2.77,2.01-4.27,1.14-1.49-.86-2.01-2.77-1.14-4.27,.86-1.49,2.77-2.01,4.27-1.14Z"/><circle class="cls-3" cx="5.15" cy="45.69" r="3.13" transform="translate(-7.26 1.42) rotate(-9.23)"/><circle class="cls-3" cx="3.13" cy="60.62" r="3.13"/><path class="cls-3" d="M4.23,72.54c1.67-.45,3.38,.54,3.83,2.21,.45,1.67-.54,3.38-2.21,3.83s-3.38-.54-3.83-2.21c-.45-1.67,.54-3.38,2.21-3.83Z"/><circle class="cls-3" cx="10.75" cy="89.5" r="3.13" transform="translate(-59.04 32.45) rotate(-43.88)"/><circle class="cls-3" cx="19.88" cy="101.49" r="3.13"/><path class="cls-3" d="M29.09,109.14c.86-1.49,2.77-2.01,4.27-1.14,1.49,.86,2.01,2.77,1.14,4.27-.86,1.49-2.77,2.01-4.27,1.14-1.49-.86-2.01-2.77-1.14-4.27Z"/><circle class="cls-3" cx="45.69" cy="116.52" r="3.13" transform="translate(-20.04 10.01) rotate(-10.27)"/><circle class="cls-3" cx="60.62" cy="118.54" r="3.13"/><circle class="cls-3" cx="75.56" cy="116.62" r="3.13" transform="translate(-8.75 6.16) rotate(-4.41)"/><path class="cls-3" d="M86.8,112.47c-.86-1.49-.35-3.41,1.14-4.27,1.49-.86,3.41-.35,4.27,1.14,.86,1.49,.35,3.41-1.14,4.27-1.49,.86-3.41,.35-4.27-1.14Z"/><path class="cls-3" d="M99.28,103.99c-1.22-1.22-1.22-3.2,0-4.42,1.22-1.22,3.2-1.22,4.42,0,1.22,1.22,1.22,3.2,0,4.42-1.22,1.22-3.2,1.22-4.42,0Z"/><path class="cls-3" d="M109.14,92.57c-1.49-.86-2.01-2.77-1.14-4.27,.86-1.49,2.77-2.01,4.27-1.14,1.49,.86,2.01,2.77,1.14,4.27-.86,1.49-2.77,2.01-4.27,1.14Z"/><circle class="cls-3" cx="116.52" cy="75.97" r="3.13" transform="translate(35.18 188.81) rotate(-87.32)"/><circle class="cls-3" cx="118.54" cy="61.04" r="3.13"/><circle class="cls-3" cx="116.62" cy="46.1" r="3.13" transform="translate(69.88 162.47) rotate(-89.68)"/><path class="cls-3" d="M112.47,34.87c-1.49,.86-3.41,.35-4.27-1.14-.86-1.49-.35-3.41,1.14-4.27,1.49-.86,3.41-.35,4.27,1.14,.86,1.49,.35,3.41-1.14,4.27Z"/><circle class="cls-3" cx="101.78" cy="20.18" r="3.13"/><path class="cls-3" d="M92.57,12.52c-.86,1.49-2.77,2.01-4.27,1.14-1.49-.86-2.01-2.77-1.14-4.27,.86-1.49,2.77-2.01,4.27-1.14,1.49,.86,2.01,2.77,1.14,4.27Z"/><path class="cls-3" d="M78.99,5.95c-.45,1.67-2.16,2.66-3.83,2.21-1.67-.45-2.66-2.16-2.21-3.83,.45-1.67,2.16-2.66,3.83-2.21s2.66,2.16,2.21,3.83Z"/></g><g><circle class="cls-3" cx="60.83" cy="60.72" r="10.37" transform="translate(-.1 121.35) rotate(-89.81)"/><circle class="cls-1" cx="60.83" cy="60.72" r="7.55" transform="translate(-.12 121.32) rotate(-89.78)"/><circle class="cls-2" cx="60.83" cy="60.72" r="3.2"/></g></g></g></svg>