<?xml version="1.0" encoding="utf-8"?>
<!-- Generator: Adobe Illustrator 26.0.3, SVG Export Plug-In . SVG Version: 6.00 Build 0)  -->
<svg version="1.1" id="Layer_1" xmlns="http://www.w3.org/2000/svg" xmlns:xlink="http://www.w3.org/1999/xlink" x="0px" y="0px"
	 viewBox="0 0 300 250" style="enable-background:new 0 0 300 250;" xml:space="preserve">
<style type="text/css">
	.st0{fill:#FFFFFF;}
</style>
<g>
	<g>
		<path class="st0" d="M45.1,31.9h-5.4v-3.5h14.8v3.5h-5.4V47h-4L45.1,31.9z"/>
		<path class="st0" d="M60.4,33.2c4,0,6.7,3,6.7,7.4v0.8h-10c0.3,1.9,2,3.3,3.9,3.1c1.3,0,2.6-0.5,3.6-1.3l1.6,2.3
			c-1.6,1.3-3.5,1.9-5.5,1.9c-3.8,0.2-7-2.7-7.2-6.4c0-0.2,0-0.4,0-0.6c-0.1-3.8,2.9-6.9,6.6-7C60.2,33.2,60.3,33.2,60.4,33.2z
			 M57,39h6.6c-0.1-1.7-1.5-3.1-3.2-3c0,0-0.1,0-0.1,0C58.6,36,57.1,37.3,57,39z"/>
		<path class="st0" d="M88.7,43.8h-8.3L79.2,47h-4.3l7.2-18.6h5L94.2,47h-4.3L88.7,43.8z M81.5,40.4h6.2l-3.1-8.5L81.5,40.4z"/>
		<path class="st0" d="M104.9,38.9c0.2-1.2-0.6-2.3-1.8-2.5c-0.2,0-0.4,0-0.7,0c-1.2,0-2.4,0.6-3.1,1.6v9h-3.5V33.5h3.5v1.8
			c1.2-1.3,2.9-2.1,4.7-2.1c3,0,4.4,1.7,4.4,4.3V47h-3.5V38.9z"/>
		<path class="st0" d="M120,45.6c-1.1,1.2-2.7,1.8-4.3,1.7c-2.5,0.1-4.6-1.8-4.7-4.3c0-0.1,0-0.1,0-0.2c0-3.2,2.5-4.3,4.7-4.3
			c1.6-0.1,3.2,0.5,4.3,1.6v-1.9c0-1.4-1.2-2.3-3-2.3c-1.5,0-2.9,0.6-3.9,1.6l-1.3-2.4c1.6-1.4,3.7-2.2,5.9-2.1
			c3.1,0,5.9,1.2,5.9,5.1V47H120V45.6z M120,42.1c-0.7-0.8-1.8-1.2-2.8-1.2c-1.4,0-2.5,0.7-2.5,2s1.1,2,2.5,2
			c1.1,0.1,2.1-0.4,2.8-1.2V42.1z"/>
		<path class="st0" d="M136.2,45.3c-1.2,1.3-2.9,2-4.7,2c-3,0-4.3-1.6-4.3-4.2v-9.5h3.5v8.2c-0.2,1.2,0.6,2.3,1.8,2.5
			c0.2,0,0.5,0,0.7,0c1.2,0,2.3-0.6,3.1-1.5v-9.1h3.5V47h-3.5V45.3z"/>
		<path class="st0" d="M150,29.5c0-1.2,1-2.1,2.1-2.1c1.2,0.1,2,1.1,2,2.3c-0.1,1.1-0.9,1.9-2,2C151,31.6,150,30.6,150,29.5z
			 M150.4,33.5h3.5V47h-3.5V33.5z"/>
		<path class="st0" d="M157.7,42.8c1.3,1.1,2.9,1.8,4.6,1.8c1.5,0,2.3-0.5,2.3-1.4s-1.2-1.2-2.6-1.6c-2.3-0.4-5.3-1-5.3-4.2
			c0-2.3,2-4.2,5.5-4.2c2,0,3.9,0.6,5.4,1.8l-1.4,2.4c-1.1-1-2.5-1.6-4-1.6c-1.3,0-2.1,0.5-2.1,1.2s1.1,1.1,2.6,1.5
			c2.3,0.4,5.4,1,5.4,4.4c0,2.5-2.1,4.3-5.8,4.3c-2.2,0-4.3-0.7-6-2.1L157.7,42.8z"/>
	</g>
</g>
</svg>
