<?xml version="1.0" encoding="utf-8"?>
<!-- Generator: Adobe Illustrator 26.0.3, SVG Export Plug-In . SVG Version: 6.00 Build 0)  -->
<svg version="1.1" id="Layer_1" xmlns="http://www.w3.org/2000/svg" xmlns:xlink="http://www.w3.org/1999/xlink" x="0px" y="0px"
	 viewBox="0 0 300 250" style="enable-background:new 0 0 300 250;" xml:space="preserve">
<style type="text/css">
	.st0{fill:#FFC7AE;}
</style>
<g>
	<g>
		<path class="st0" d="M44.8,84.7v12.5h-4V78.6h4.1l8.6,12v-12h4v18.6h-3.9L44.8,84.7z"/>
		<path class="st0" d="M60.5,94l8.8-11.9h-8.8v-3.5h14v3.2l-8.8,11.9h9v3.5H60.5V94z"/>
		<path class="st0" d="M77.4,85.1c1-0.6,1.8-1.5,2.2-2.7c-0.2,0.1-0.3,0.1-0.5,0.1c-1.1,0-1.9-0.9-1.9-1.9c0,0,0-0.1,0-0.1
			c0-1.2,1-2.2,2.2-2.2c1.4,0,2.5,1.2,2.5,2.6c0,0.1,0,0.1,0,0.2c-0.1,2.1-1.1,4-2.9,5.2L77.4,85.1z"/>
		<path class="st0" d="M84.2,93c1.3,1.1,2.9,1.8,4.7,1.8c1.5,0,2.2-0.5,2.2-1.4s-1.2-1.3-2.7-1.6c-2.3-0.4-5.3-1-5.3-4.2
			c0-2.2,2-4.2,5.5-4.2c2,0,3.9,0.6,5.4,1.8l-1.4,2.4c-1.1-1-2.5-1.6-4-1.6c-1.3,0-2.1,0.5-2.1,1.2s1,1.2,2.6,1.4
			c2.3,0.4,5.4,1.1,5.4,4.4c0,2.4-2.1,4.3-5.8,4.3c-2.2,0.1-4.3-0.7-6-2.1L84.2,93z"/>
		<path class="st0" d="M113.2,78.3c3.1-0.1,6,1.4,7.7,4.1l-3.3,1.8c-1-1.5-2.6-2.3-4.4-2.3c-3.4,0.2-5.9,3.1-5.8,6.4
			c0.2,3.1,2.7,5.6,5.8,5.8c1.5,0,2.9-0.5,4-1.4v-2.3h-5v-3.4h8.9V94c-2,2.3-4.9,3.6-7.9,3.5c-5.4,0-9.9-3.8-9.9-9.6
			S107.7,78.3,113.2,78.3z"/>
		<path class="st0" d="M124.1,83.7h3.5v1.8c1.1-1.3,2.6-2.1,4.3-2.1v3.4c-0.3-0.1-0.7-0.1-1-0.1c-1.3,0-2.5,0.6-3.3,1.5v8.9h-3.5
			L124.1,83.7z"/>
		<path class="st0" d="M140.2,83.4c4,0,6.7,3,6.7,7.4v0.8h-10c0.3,1.9,2,3.3,3.9,3.1c1.3,0,2.6-0.5,3.6-1.3l1.5,2.3
			c-1.6,1.3-3.5,1.9-5.5,1.9c-3.9,0.1-7.1-3-7.2-6.9C133.2,86.7,136.3,83.5,140.2,83.4L140.2,83.4z M136.9,89.2h6.6
			c-0.1-1.7-1.5-3.1-3.3-3c0,0,0,0-0.1,0C138.5,86.1,137.1,87.5,136.9,89.2z"/>
		<path class="st0" d="M157.6,95.8c-1.1,1.2-2.7,1.8-4.3,1.7c-2.5,0.1-4.6-1.8-4.7-4.3c0-0.1,0-0.1,0-0.2c0-3.1,2.5-4.3,4.7-4.3
			c1.6-0.1,3.2,0.5,4.3,1.7v-1.9c0-1.4-1.2-2.2-2.9-2.2c-1.5,0-2.9,0.6-3.9,1.6l-1.3-2.4c1.6-1.4,3.7-2.2,5.9-2.1
			c3.1,0,5.9,1.2,5.9,5.1v8.7h-3.5L157.6,95.8z M157.6,92.3c-0.7-0.8-1.8-1.2-2.8-1.2c-1.4,0-2.5,0.7-2.5,2s1.1,2,2.5,2
			c1.1,0.1,2.1-0.3,2.8-1.1V92.3z"/>
		<path class="st0" d="M165.4,93.8v-7h-2.2v-3.1h2.2v-3.7h3.6v3.7h2.7v3.1h-2.7v6.1c0,0.8,0.4,1.5,1.2,1.5c0.4,0,0.9-0.1,1.2-0.4
			l0.8,2.7c-0.8,0.6-1.9,0.9-2.9,0.9C166.7,97.5,165.4,96.2,165.4,93.8z"/>
		<path class="st0" d="M192.1,84.4l-3.2,12.8h-4.2l-5.3-18.6h4.4L187,92l3.5-13.4h3.1l3.5,13.4l3.2-13.4h4.5l-5.3,18.6h-4.2
			L192.1,84.4z"/>
		<path class="st0" d="M213.6,95.8c-1.1,1.2-2.7,1.8-4.3,1.7c-2.5,0.1-4.6-1.8-4.7-4.3c0-0.1,0-0.1,0-0.2c0-3.1,2.5-4.3,4.7-4.3
			c1.6-0.1,3.2,0.5,4.3,1.7v-1.9c0-1.4-1.2-2.2-2.9-2.2c-1.5,0-2.9,0.6-3.9,1.6l-1.3-2.4c1.6-1.4,3.7-2.2,5.9-2.1
			c3.1,0,5.9,1.2,5.9,5.1v8.7h-3.5V95.8z M213.6,92.3c-0.7-0.8-1.8-1.2-2.8-1.2c-1.4,0-2.5,0.7-2.5,2s1.1,2,2.5,2
			c1.1,0.1,2.1-0.3,2.8-1.1V92.3z"/>
		<path class="st0" d="M220.6,78.6h3.5v18.6h-3.5V78.6z"/>
		<path class="st0" d="M232.8,92l-1.6,1.7v3.4h-3.5V78.6h3.5v11.1l5.1-6h4.3l-5.3,6.1l5.5,7.3h-4.4L232.8,92z"/>
		<path class="st0" d="M243,93c1.3,1.1,2.9,1.8,4.6,1.8c1.5,0,2.3-0.5,2.3-1.4s-1.2-1.3-2.7-1.6c-2.3-0.4-5.3-1-5.3-4.2
			c0-2.2,2-4.2,5.5-4.2c2,0,3.9,0.6,5.4,1.8l-1.4,2.4c-1.1-1-2.5-1.6-4-1.6c-1.3,0-2.1,0.5-2.1,1.2s1.1,1.2,2.6,1.4
			c2.3,0.4,5.4,1.1,5.4,4.4c0,2.4-2.1,4.3-5.8,4.3c-2.2,0.1-4.3-0.7-6-2.1L243,93z"/>
		<path class="st0" d="M257.7,93c1.2,0,2.3,1,2.3,2.2s-1,2.3-2.2,2.3c-1.2,0-2.3-1-2.3-2.2c0,0,0,0,0,0C255.4,94,256.4,93,257.7,93z
			"/>
	</g>
</g>
</svg>
