<?xml version="1.0" encoding="utf-8"?>
<!-- Generator: Adobe Illustrator 26.0.3, SVG Export Plug-In . SVG Version: 6.00 Build 0)  -->
<svg version="1.1" id="Layer_1" xmlns="http://www.w3.org/2000/svg" xmlns:xlink="http://www.w3.org/1999/xlink" x="0px" y="0px"
	 viewBox="0 0 300 250" style="enable-background:new 0 0 300 250;" xml:space="preserve">
<style type="text/css">
	.st0{fill:#CDFFFF;}
</style>
<g>
	<g>
		<path class="st0" d="M46.8,100.8h-6.9v-4.4h18.9v4.4h-6.9v19.2h-5.1V100.8z"/>
		<path class="st0" d="M61.4,97.7c0-1.5,1.2-2.7,2.7-2.7c1.5,0,2.7,1.2,2.7,2.7c0,1.5-1.2,2.7-2.7,2.7
			C62.6,100.4,61.4,99.2,61.4,97.7z M61.9,102.9h4.5v17.2h-4.5L61.9,102.9z"/>
		<path class="st0" d="M92.2,109.2c0-1.6-0.7-2.7-2.6-2.7c-1.4,0.1-2.7,0.8-3.6,2v11.6h-4.5v-10.8c0-1.6-0.7-2.7-2.6-2.7
			c-1.4,0.1-2.7,0.8-3.6,2V120h-4.5v-17.1h4.5v2.2c1.4-1.7,3.4-2.6,5.6-2.7c2.5,0,4.1,1.2,4.8,3.1c1.3-1.9,3.5-3.1,5.9-3.1
			c3.2,0,5,1.7,5,5.2v12.4h-4.5V109.2z"/>
		<path class="st0" d="M108.9,102.5c5.1,0,8.6,3.8,8.6,9.4v1h-12.8c0.3,2.4,2.5,4.2,4.9,4c1.7,0,3.3-0.6,4.6-1.7l2,2.9
			c-2,1.6-4.5,2.5-7.1,2.4c-5.2,0-9.2-3.5-9.2-9c-0.2-4.8,3.6-8.8,8.4-9C108.6,102.5,108.8,102.5,108.9,102.5z M104.7,109.9h8.4
			c-0.1-2.2-2-3.9-4.2-3.8c0,0,0,0,0,0C106.7,106,104.9,107.7,104.7,109.9z"/>
	</g>
</g>
</svg>
