<?xml version="1.0" encoding="utf-8"?>
<!-- Generator: Adobe Illustrator 26.0.3, SVG Export Plug-In . SVG Version: 6.00 Build 0)  -->
<svg version="1.1" id="Layer_1" xmlns="http://www.w3.org/2000/svg" xmlns:xlink="http://www.w3.org/1999/xlink" x="0px" y="0px"
	 viewBox="0 0 300 250" style="enable-background:new 0 0 300 250;" xml:space="preserve">
<style type="text/css">
	.st0{fill:#C1E8A0;}
</style>
<g>
	<g>
		<path class="st0" d="M39.9,68.3c-0.1-3.8,2.9-6.9,6.6-7c0.2,0,0.3,0,0.5,0c3.9,0,7.1,3.2,7.1,7.1c0,3.9-3.2,7.1-7.1,7.1
			c-3.8,0.2-6.9-2.8-7.1-6.5C39.9,68.7,39.9,68.5,39.9,68.3z M50.5,68.3c0-2.1-1.2-3.9-3.5-3.9s-3.4,1.8-3.4,3.9s1.2,3.9,3.4,3.9
			S50.5,70.5,50.5,68.3z M57.6,75.1V64.7h-2.2v-3.1h2.2v-0.6c0-3,1.8-4.8,4.5-4.8c1.3-0.1,2.6,0.4,3.5,1.3l-1.3,2.1
			c-0.4-0.4-0.9-0.5-1.5-0.5c-1,0-1.7,0.6-1.7,1.9v0.6h2.7v3.1h-2.7v10.4H57.6z M66.7,75.1V64.7h-2.2v-3.1h2.2v-0.6
			c0-3,1.8-4.8,4.5-4.8c1.3-0.1,2.6,0.4,3.5,1.3l-1.3,2.1c-0.4-0.4-0.9-0.5-1.5-0.5c-1,0-1.7,0.6-1.7,1.9v0.6H73v3.1h-2.8v10.4H66.7
			z M90.2,75.1v-1.4c-1.1,1.2-2.6,1.8-4.2,1.8c-2.5,0.1-4.5-1.8-4.7-4.2c0-0.1,0-0.1,0-0.2c0-3.2,2.5-4.3,4.7-4.3
			c1.6-0.1,3.1,0.5,4.3,1.6v-1.7c0-1.4-1.2-2.2-2.9-2.2c-1.4,0-2.8,0.6-3.9,1.6L82,63.4c1.6-1.4,3.7-2.2,5.9-2.1
			c3.1,0,5.9,1.2,5.9,5.1v8.7H90.2z M90.2,71.9v-1.7c-0.7-0.8-1.8-1.2-2.8-1.2c-1.4,0-2.5,0.8-2.5,2s1.1,2,2.5,2
			C88.5,73.1,89.5,72.6,90.2,71.9z M103.6,65.9c0-5.9,4.5-9.6,9.9-9.6c3.1-0.1,6,1.5,7.7,4.2l-3.2,1.7c-1-1.5-2.6-2.4-4.4-2.4
			c-3.4,0.2-5.9,3.1-5.8,6.4c0.2,3.1,2.7,5.6,5.8,5.8c1.4,0,2.8-0.5,3.9-1.4v-2.2h-4.9v-3.4h8.9V72c-2,2.3-4.9,3.5-7.9,3.5
			C108.1,75.4,103.6,71.7,103.6,65.9L103.6,65.9z M124.5,75.1V61.6h3.5v1.8c1.1-1.3,2.6-2.1,4.3-2.1v3.5c-0.3-0.1-0.7-0.1-1-0.1
			c-1.3,0-2.5,0.6-3.3,1.5v8.9L124.5,75.1z M133.6,68.4c-0.1-3.8,2.9-6.9,6.7-7c0.1,0,0.2,0,0.3,0c4,0,6.7,3,6.7,7.4v0.8h-10
			c0.3,1.9,2,3.2,3.9,3c1.3,0,2.6-0.5,3.6-1.3l1.6,2.3c-1.6,1.3-3.5,1.9-5.5,1.9c-3.8,0.2-7-2.6-7.2-6.4
			C133.6,68.9,133.6,68.6,133.6,68.4L133.6,68.4z M140.6,64.2c-1.7-0.1-3.2,1.2-3.3,2.9h6.6c-0.1-1.7-1.5-3-3.2-2.9
			C140.7,64.2,140.7,64.2,140.6,64.2L140.6,64.2z M158,75.1v-1.4c-1.1,1.2-2.6,1.8-4.3,1.8c-2.5,0.1-4.5-1.8-4.7-4.3
			c0-0.1,0-0.1,0-0.2c0-3.2,2.5-4.3,4.6-4.3c1.6-0.1,3.1,0.5,4.3,1.6v-1.7c0-1.4-1.2-2.2-3-2.2c-1.4,0-2.8,0.6-3.9,1.6l-1.4-2.5
			c1.6-1.4,3.7-2.2,5.9-2.1c3.1,0,5.9,1.2,5.9,5.1v8.7L158,75.1z M158,71.9v-1.7c-0.7-0.8-1.8-1.3-2.8-1.2c-1.4,0-2.5,0.8-2.5,2
			s1.1,2,2.5,2C156.2,73.1,157.3,72.6,158,71.9z M165.8,71.7v-7h-2.2v-3.1h2.2V58h3.5v3.7h2.7v3.1h-2.7v6c0,0.9,0.4,1.5,1.2,1.5
			c0.4,0,0.9-0.1,1.2-0.4l0.8,2.7c-0.8,0.6-1.9,1-2.9,0.9C167.1,75.4,165.8,74.2,165.8,71.7L165.8,71.7z M195.9,75.1l-3.2-12.8
			l-3.2,12.8h-4.2l-5.3-18.6h4.4l3.3,13.4l3.5-13.4h3.1l3.5,13.4l3.3-13.4h4.4l-5.3,18.6H195.9z M214.1,75.1v-1.4
			c-1.1,1.2-2.6,1.8-4.3,1.8c-2.5,0.1-4.5-1.8-4.7-4.3c0-0.1,0-0.1,0-0.2c0-3.2,2.5-4.3,4.6-4.3c1.6-0.1,3.1,0.5,4.3,1.6v-1.7
			c0-1.4-1.2-2.2-2.9-2.2c-1.4,0-2.8,0.6-3.9,1.6l-1.4-2.5c1.6-1.4,3.7-2.2,5.9-2.1c3.1,0,5.9,1.2,5.9,5.1v8.7L214.1,75.1z
			 M214.1,71.9v-1.7c-0.7-0.8-1.8-1.3-2.8-1.2c-1.4,0-2.5,0.8-2.5,2s1.1,2,2.5,2C212.4,73.1,213.4,72.6,214.1,71.9L214.1,71.9z
			 M221.2,75.1V56.5h3.5v18.6H221.2z M237,75.1l-3.6-5.2l-1.6,1.7v3.4h-3.5V56.5h3.5v11.1l5.1-6h4.3l-5.3,6.1l5.5,7.3L237,75.1z
			 M242.7,73.1c0-1.2,1.1-2.2,2.3-2.2c1.2,0,2.2,1.1,2.2,2.3c0,1.2-1,2.2-2.2,2.2C243.7,75.4,242.7,74.4,242.7,73.1L242.7,73.1z"/>
	</g>
</g>
</svg>
