<?xml version="1.0" encoding="utf-8"?>
<!-- Generator: Adobe Illustrator 26.0.3, SVG Export Plug-In . SVG Version: 6.00 Build 0)  -->
<svg version="1.1" id="Layer_1" xmlns="http://www.w3.org/2000/svg" xmlns:xlink="http://www.w3.org/1999/xlink" x="0px" y="0px"
	 viewBox="0 0 300 250" style="enable-background:new 0 0 300 250;" xml:space="preserve">
<style type="text/css">
	.st0{fill:#FFFFFF;}
	.st1{fill:#CDFFFF;}
</style>
<g>
	<g>
		<path class="st0" d="M48.8,48.6c-1.1,1.2-2.7,1.8-4.3,1.7c-2.5,0.1-4.6-1.8-4.7-4.3c0-0.1,0-0.1,0-0.2c0-3.2,2.5-4.3,4.7-4.3
			c1.6-0.1,3.1,0.5,4.3,1.6v-1.9c0-1.4-1.2-2.3-3-2.3c-1.4,0-2.8,0.6-3.9,1.6l-1.3-2.4c1.6-1.4,3.7-2.2,5.9-2.1
			c3.1,0,5.9,1.2,5.9,5.1V50h-3.6V48.6z M48.8,45.1c-0.7-0.8-1.8-1.2-2.8-1.2c-1.4,0-2.5,0.7-2.5,2s1.1,2,2.5,2
			c1.1,0.1,2.1-0.4,2.8-1.2L48.8,45.1z"/>
		<path class="st0" d="M65,41.9c0-1.9-1-2.5-2.5-2.5c-1.2,0-2.4,0.6-3.1,1.6v9h-3.5V36.5h3.5v1.8c1.2-1.3,2.9-2.1,4.7-2.1
			c2.9,0,4.4,1.7,4.4,4.3V50H65V41.9z"/>
		<path class="st0" d="M81.2,48.3c-1,1.3-2.5,2.1-4.2,2.1c-3.4,0-6-2.6-6-7s2.5-7.1,6-7.1c1.6,0,3.2,0.8,4.2,2.1v-6.9h3.6V50h-3.6
			V48.3z M81.2,40.9c-0.7-1-1.9-1.5-3.1-1.5c-2,0-3.4,1.6-3.4,3.9s1.4,3.9,3.4,3.9c1.2,0,2.3-0.6,3.1-1.5V40.9z"/>
		<path class="st1" d="M99.5,37.5V50h-4V31.4h4.1l8.6,12v-12h4V50h-3.8L99.5,37.5z"/>
		<path class="st1" d="M115.2,46.8l8.8-11.9h-8.8v-3.5h13.9v3.2l-8.8,11.9h9V50h-14.2V46.8z"/>
		<path class="st1" d="M132.1,37.9c1-0.6,1.8-1.5,2.1-2.6c-0.2,0.1-0.3,0.1-0.5,0.1c-1.1,0-1.9-0.9-1.9-1.9c0,0,0-0.1,0-0.1
			c0-1.2,1-2.2,2.2-2.2c1.4,0,2.5,1.2,2.5,2.6c0,0.1,0,0.1,0,0.2c-0.1,2.1-1.1,4-2.9,5.2L132.1,37.9z"/>
		<path class="st1" d="M138.9,45.8c1.3,1.1,2.9,1.8,4.6,1.8c1.5,0,2.2-0.5,2.2-1.4s-1.2-1.3-2.7-1.6c-2.3-0.4-5.3-1-5.3-4.2
			c0-2.3,2-4.2,5.5-4.2c2,0,3.9,0.6,5.4,1.8l-1.4,2.4c-1.1-1-2.5-1.6-4-1.6c-1.3,0-2.1,0.5-2.1,1.2s1.1,1.1,2.6,1.5
			c2.3,0.4,5.4,1,5.4,4.4c0,2.5-2.1,4.3-5.8,4.3c-2.2,0-4.3-0.7-6-2.1L138.9,45.8z"/>
		<path class="st1" d="M159,31.4h3.5V50H159V31.4z"/>
		<path class="st1" d="M174.1,48.6c-1.1,1.2-2.7,1.8-4.3,1.7c-2.5,0.1-4.6-1.8-4.7-4.3c0-0.1,0-0.1,0-0.2c0-3.2,2.5-4.3,4.7-4.3
			c1.6-0.1,3.1,0.5,4.3,1.6v-1.9c0-1.4-1.2-2.3-3-2.3c-1.5,0-2.9,0.6-3.9,1.6l-1.3-2.4c1.6-1.4,3.7-2.2,5.9-2.1
			c3.1,0,5.9,1.2,5.9,5.1V50h-3.5L174.1,48.6z M174.1,45.1c-0.7-0.8-1.8-1.2-2.8-1.2c-1.4,0-2.5,0.7-2.5,2s1.1,2,2.5,2
			c1.1,0.1,2.1-0.4,2.8-1.2V45.1z"/>
		<path class="st1" d="M181.1,36.5h3.5v1.8c1.1-1.3,2.6-2.1,4.3-2.1v3.5c-0.3-0.1-0.7-0.1-1-0.1c-1.3,0-2.5,0.6-3.3,1.5V50h-3.5
			L181.1,36.5z"/>
		<path class="st1" d="M192.5,50.9c1.1,1.2,2.6,1.8,4.2,1.7c1.7,0,3.7-0.8,3.7-3.4v-1.4c-1,1.3-2.5,2.1-4.1,2.1
			c-3.4,0-5.9-2.4-5.9-6.8s2.5-6.9,5.9-6.9c1.6,0,3.2,0.8,4.1,2.1v-1.7h3.6v12.5c0,5.1-4,6.4-7.3,6.4c-2.1,0.1-4.2-0.6-5.8-2
			L192.5,50.9z M200.4,40.9c-0.7-0.9-1.8-1.5-3-1.5c-2,0-3.4,1.4-3.4,3.7s1.4,3.7,3.4,3.7c1.2,0,2.3-0.6,3-1.5V40.9z"/>
		<path class="st1" d="M213.6,36.2c4,0,6.7,3,6.7,7.4v0.8h-10c0.3,1.9,2,3.3,3.9,3.1c1.3,0,2.6-0.5,3.6-1.3l1.6,2.3
			c-1.6,1.3-3.5,1.9-5.5,1.9c-3.8,0.2-7-2.7-7.2-6.4c0-0.2,0-0.4,0-0.7c-0.1-3.8,2.9-6.9,6.6-7C213.3,36.2,213.4,36.2,213.6,36.2z
			 M210.2,42h6.6c-0.1-1.7-1.5-3.1-3.2-3c0,0-0.1,0-0.1,0C211.8,39,210.4,40.3,210.2,42z"/>
		<path class="st1" d="M223.2,45.8c1.3,1.1,2.9,1.8,4.6,1.8c1.5,0,2.3-0.5,2.3-1.4s-1.1-1.2-2.7-1.6c-2.3-0.4-5.3-1-5.3-4.2
			c0-2.3,2-4.2,5.5-4.2c2,0,3.9,0.6,5.4,1.8l-1.4,2.4c-1.1-1-2.5-1.6-4-1.6c-1.3,0-2.1,0.5-2.1,1.2s1.1,1.1,2.6,1.5
			c2.3,0.4,5.4,1,5.4,4.4c0,2.5-2.1,4.3-5.8,4.3c-2.2,0.1-4.3-0.7-6-2.1L223.2,45.8z"/>
		<path class="st1" d="M236.8,46.7v-7h-2.2v-3.1h2.2v-3.7h3.6v3.7h2.7v3.1h-2.7v6.1c0,0.8,0.4,1.5,1.2,1.5c0.4,0,0.9-0.1,1.2-0.4
			l0.8,2.7c-0.9,0.6-1.9,1-3,0.9C238.2,50.3,236.8,49,236.8,46.7z"/>
	</g>
</g>
</svg>
