<?xml version="1.0" encoding="utf-8"?>
<!-- Generator: Adobe Illustrator 26.0.3, SVG Export Plug-In . SVG Version: 6.00 Build 0)  -->
<svg version="1.1" id="Layer_1" xmlns="http://www.w3.org/2000/svg" xmlns:xlink="http://www.w3.org/1999/xlink" x="0px" y="0px"
	 viewBox="0 0 300 250" style="enable-background:new 0 0 300 250;" xml:space="preserve">
<style type="text/css">
	.st0{clip-path:url(#SVGID_00000165922100229430757620000000334496260426263734_);}
	.st1{fill:#FFFFFF;}
	.st2{fill:#80919E;}
</style>
<g>
	<g>
		<g>
			<defs>
				<rect id="SVGID_1_" width="300" height="250"/>
			</defs>
			<clipPath id="SVGID_00000014622394787728500300000007789886358794775471_">
				<use xlink:href="#SVGID_1_"  style="overflow:visible;"/>
			</clipPath>
			<g style="clip-path:url(#SVGID_00000014622394787728500300000007789886358794775471_);">
				<path class="st1" d="M53,134.1c-7.7-0.5-14.3,5.4-14.8,13.1s5.4,14.3,13.1,14.8c0.6,0,1.1,0,1.7,0h65
					c7.7,0.5,14.3-5.4,14.8-13.1s-5.4-14.3-13.1-14.8c-0.6,0-1.1,0-1.7,0H53z"/>
			</g>
		</g>
		<path class="st2" d="M52,142.5h4.7c1.8-0.1,3.3,1.3,3.4,3.1c0.1,1.8-1.3,3.3-3.1,3.4c-0.1,0-0.2,0-0.4,0h-2.6v3.6H52V142.5z
			 M56.4,144.3h-2.3v2.8h2.3c0.8,0.1,1.4-0.5,1.5-1.3c0.1-0.8-0.5-1.4-1.3-1.5C56.6,144.3,56.5,144.3,56.4,144.3L56.4,144.3z"/>
		<path class="st2" d="M61.4,142.5h1.9v10.1h-1.9V142.5z"/>
		<path class="st2" d="M69.7,151.8c-0.6,0.6-1.4,1-2.3,0.9c-1.3,0.1-2.5-1-2.5-2.3c0,0,0-0.1,0-0.1c0-1.3,1-2.3,2.3-2.4
			c0.1,0,0.2,0,0.3,0c0.9-0.1,1.7,0.3,2.3,0.9v-1c0-0.7-0.6-1.2-1.6-1.2c-0.8,0-1.6,0.3-2.1,0.9l-0.7-1.3c0.9-0.8,2-1.2,3.2-1.1
			c1.7,0,3.2,0.7,3.2,2.8v4.7h-1.9V151.8z M69.7,149.9c-0.4-0.4-1-0.7-1.6-0.6c-0.8,0-1.4,0.4-1.4,1.1s0.6,1.1,1.4,1.1
			c0.6,0,1.2-0.2,1.6-0.6V149.9z"/>
		<path class="st2" d="M78.4,148.2c0-1-0.5-1.4-1.3-1.4c-0.7,0-1.3,0.3-1.7,0.9v4.9h-1.9v-7.3h1.9v1c0.6-0.8,1.6-1.2,2.6-1.2
			c1.2-0.1,2.2,0.7,2.4,1.8c0,0.2,0,0.3,0,0.5v5.2h-1.9V148.2z"/>
		<path class="st2" d="M88.3,145.8v6.8h-2.1v-10.1h2.2l4.7,6.5v-6.6h2.2v10.1h-2.1L88.3,145.8z"/>
		<path class="st2" d="M96.7,148.9c0-2.1,1.7-3.9,3.8-3.9c2.1,0,3.9,1.7,3.9,3.8c0,2.1-1.7,3.9-3.8,3.9c0,0,0,0,0,0
			c-2,0.1-3.8-1.5-3.9-3.5C96.7,149.1,96.7,149,96.7,148.9z M102.5,148.9c-0.1-1-1.1-1.8-2.1-1.6s-1.8,1.1-1.6,2.1
			c0.1,0.9,0.9,1.6,1.9,1.6c1.1,0,1.9-0.9,1.9-2C102.5,149,102.5,149,102.5,148.9z"/>
		<path class="st2" d="M110.8,147.6l-1.6,5h-2.1l-2.2-7.3h2l1.4,4.9l1.6-4.9h1.7l1.6,4.9l1.4-4.9h2l-2.2,7.3h-2L110.8,147.6z"/>
		<path class="st2" d="M118,150.3c0.7,0,1.2,0.6,1.2,1.2c0,0.7-0.6,1.2-1.2,1.2c-0.7,0-1.2-0.6-1.2-1.2l0,0
			C116.8,150.9,117.3,150.3,118,150.3z"/>
	</g>
</g>
</svg>
