<svg id="Layer_1" data-name="Layer 1" xmlns="http://www.w3.org/2000/svg" xmlns:xlink="http://www.w3.org/1999/xlink" viewBox="0 0 300 250"><defs><style>.cls-1{fill:none;}.cls-2{clip-path:url(#clip-path);}.cls-3{fill:#009970;}</style><clipPath id="clip-path"><rect class="cls-1" width="300" height="250"/></clipPath></defs><g class="cls-2"><path class="cls-3" d="M12.91,50.89h1.23V64.58h8v1.14H12.91Z"/><path class="cls-3" d="M34.05,63.81a6.25,6.25,0,0,1-9.38,0,8.15,8.15,0,0,1-1.86-5.51,8.15,8.15,0,0,1,1.86-5.51,6.25,6.25,0,0,1,9.38,0,8.06,8.06,0,0,1,1.88,5.51A8.06,8.06,0,0,1,34.05,63.81ZM33.2,53.64a5,5,0,0,0-7.66,0,7.09,7.09,0,0,0-1.47,4.66A7.07,7.07,0,0,0,25.54,63a5,5,0,0,0,7.66,0,7.07,7.07,0,0,0,1.47-4.66A7.09,7.09,0,0,0,33.2,53.64Z"/><path class="cls-3" d="M49,63.81a5.93,5.93,0,0,1-4.68,2.12,6,6,0,0,1-4.69-2.12,8.15,8.15,0,0,1-1.86-5.51,8.15,8.15,0,0,1,1.86-5.51,6,6,0,0,1,4.69-2.12A5.93,5.93,0,0,1,49,52.79a8,8,0,0,1,1.89,5.51A8,8,0,0,1,49,63.81Zm-.84-10.17a5,5,0,0,0-7.66,0A7.09,7.09,0,0,0,39,58.3,7.07,7.07,0,0,0,40.45,63a5,5,0,0,0,7.66,0,7.07,7.07,0,0,0,1.47-4.66A7.09,7.09,0,0,0,48.11,53.64Z"/><path class="cls-3" d="M54.71,57.65l7.48-6.76h1.62L55.89,58,64,65.72H62.39l-7.68-7.2v7.2H53.47V50.89h1.24Z"/><path class="cls-3" d="M67.27,65.72H66V50.89h1.23Z"/><path class="cls-3" d="M81.81,65.72H81L71.93,52.84V65.72H70.75V50.89h1.18l8.7,12.36V50.89h1.18Z"/><path class="cls-3" d="M95.2,63.47V59.24H91.45v-1h4.88v5.66a6.41,6.41,0,0,1-5.09,2.07,6.29,6.29,0,0,1-4.81-2.05A7.89,7.89,0,0,1,84.5,58.3a7.69,7.69,0,0,1,2-5.58,6.49,6.49,0,0,1,4.9-2,6.89,6.89,0,0,1,4.35,1.42v1.38a6.25,6.25,0,0,0-4.35-1.64,5.28,5.28,0,0,0-4.06,1.74,6.82,6.82,0,0,0-1.57,4.73,6.91,6.91,0,0,0,1.55,4.76,5.06,5.06,0,0,0,4,1.74A5.57,5.57,0,0,0,95.2,63.47Z"/><path class="cls-3" d="M12.91,88.53V73.7h8.6v1.14H14.14v5.65h7V81.6h-7v6.93Z"/><path class="cls-3" d="M34.31,86.62a5.91,5.91,0,0,1-4.68,2.13,6,6,0,0,1-4.69-2.13,9.08,9.08,0,0,1,0-11,6,6,0,0,1,4.69-2.13,5.91,5.91,0,0,1,4.68,2.13,9,9,0,0,1,0,11Zm-.84-10.17a5,5,0,0,0-7.66,0,8.14,8.14,0,0,0,0,9.33,5,5,0,0,0,7.66,0,8.14,8.14,0,0,0,0-9.33Z"/><path class="cls-3" d="M38.86,73.7H44c2.9,0,4.78,1.45,4.78,4.16,0,2.39-1.47,3.76-3.79,4l4.49,6.62H48L43.62,82H40.09v6.54H38.86Zm1.23,7.2h3.84c2.25,0,3.62-1.14,3.62-3s-1.37-3-3.62-3H40.09Z"/><path class="cls-3" d="M64.3,85.13,58.69,76V88.53H57.48V73.7h1.09l5.77,9.42,5.8-9.42h1V88.53H70V76l-5.58,9.09Z"/><path class="cls-3" d="M85.07,86.62a5.91,5.91,0,0,1-4.68,2.13,6,6,0,0,1-4.69-2.13,9.08,9.08,0,0,1,0-11,6,6,0,0,1,4.69-2.13,5.91,5.91,0,0,1,4.68,2.13,9,9,0,0,1,0,11Zm-.84-10.17a5,5,0,0,0-7.66,0,8.14,8.14,0,0,0,0,9.33,5,5,0,0,0,7.66,0,8.14,8.14,0,0,0,0-9.33Z"/><path class="cls-3" d="M89.59,73.7h5.12c2.9,0,4.79,1.45,4.79,4.16,0,2.39-1.48,3.76-3.79,4l4.49,6.62H98.77L94.35,82H90.83v6.54H89.59Zm1.24,7.2h3.84c2.24,0,3.62-1.14,3.62-3s-1.38-3-3.62-3H90.83Z"/><path class="cls-3" d="M111.63,73.7v1.14h-8v5.48h7.25v1.13h-7.25v6h8v1.13h-9.21V73.7Z"/><path class="cls-3" d="M22.74,107.26c0,2.61-1.84,4.09-4.83,4.09h-5V96.52h4.54c3,0,4.73,1.4,4.73,3.84a3.25,3.25,0,0,1-2.44,3.31A3.55,3.55,0,0,1,22.74,107.26Zm-5.29-4.08c2.25,0,3.53-.94,3.53-2.78s-1.28-2.77-3.53-2.77H14.12v5.55Zm-3.33,7.06H18c2.32,0,3.53-1.19,3.53-3s-1.21-3-3.53-3H14.12Z"/><path class="cls-3" d="M33.49,106.47H26.92L25,111.35H23.78l5.87-14.83h1.14l5.87,14.83H35.42Zm-6.13-1.11h5.7l-2.85-7.25Z"/><path class="cls-3" d="M38.71,96.52h1.23v13.69H48v1.14H38.71Z"/><path class="cls-3" d="M59.29,106.47H52.72l-1.9,4.88H49.58l5.87-14.83h1.14l5.87,14.83H61.23Zm-6.13-1.11h5.7L56,98.11Z"/><path class="cls-3" d="M75.58,111.35h-.82L65.7,98.47v12.88H64.51V96.52H65.7l8.69,12.36V96.52h1.19Z"/><path class="cls-3" d="M80.22,98.35A6.77,6.77,0,0,1,89,97.58v1.35a5.8,5.8,0,0,0-4-1.47,5.09,5.09,0,0,0-3.94,1.74,8,8,0,0,0,0,9.47A5.11,5.11,0,0,0,85,110.4a5.82,5.82,0,0,0,4-1.49v1.37a6.77,6.77,0,0,1-8.82-.77,8.92,8.92,0,0,1,0-11.16Z"/><path class="cls-3" d="M100.8,96.52v1.13h-8v5.48h7.24v1.14H92.81v5.94h8v1.14H91.6V96.52Z"/><path class="cls-3" d="M12.91,134.16V119.33h8.6v1.14H14.14v5.65h7v1.11h-7v6.93Z"/><path class="cls-3" d="M23.76,119.33h5.12c2.9,0,4.78,1.45,4.78,4.16,0,2.39-1.47,3.76-3.79,4.05l4.49,6.62H32.93l-4.42-6.54H25v6.54H23.76Zm1.23,7.2h3.84c2.25,0,3.62-1.14,3.62-3s-1.37-3-3.62-3H25Z"/><path class="cls-3" d="M46.8,132.25a5.91,5.91,0,0,1-4.68,2.13,6,6,0,0,1-4.69-2.13,9.08,9.08,0,0,1,0-11,6,6,0,0,1,4.69-2.13,5.91,5.91,0,0,1,4.68,2.13,9,9,0,0,1,0,11ZM46,122.08a5,5,0,0,0-7.66,0,8.14,8.14,0,0,0,0,9.33,5,5,0,0,0,7.66,0,8.14,8.14,0,0,0,0-9.33Z"/><path class="cls-3" d="M58.13,130.76l-5.6-9.09v12.49H51.32V119.33h1.09l5.77,9.42,5.8-9.42h1v14.83H63.79V121.67l-5.58,9.09Z"/><path class="cls-3" d="M83.43,119.33h1.33l-5.41,8.5v6.33H78.12v-6.33l-5.39-8.5h1.35l4.69,7.37Z"/><path class="cls-3" d="M96.16,132.25a5.91,5.91,0,0,1-4.68,2.13,6,6,0,0,1-4.69-2.13,9.08,9.08,0,0,1,0-11,6,6,0,0,1,4.69-2.13,5.91,5.91,0,0,1,4.68,2.13,9,9,0,0,1,0,11Zm-.84-10.17a5,5,0,0,0-7.66,0,8.14,8.14,0,0,0,0,9.33,5,5,0,0,0,7.66,0,8.14,8.14,0,0,0,0-9.33Z"/><path class="cls-3" d="M102.08,132.88a6,6,0,0,1-1.64-4.56v-9h1.23v8.82c0,3.45,1.91,5.09,4.45,5.09a4.34,4.34,0,0,0,3.19-1.25,5.26,5.26,0,0,0,1.28-3.84v-8.82h1.23v9a5.86,5.86,0,0,1-1.67,4.56,6.18,6.18,0,0,1-8.07,0Z"/><path class="cls-3" d="M115.13,119.33h5.12c2.9,0,4.79,1.45,4.79,4.16,0,2.39-1.48,3.76-3.8,4.05l4.5,6.62h-1.43l-4.42-6.54h-3.53v6.54h-1.23Zm1.23,7.2h3.84c2.25,0,3.63-1.14,3.63-3s-1.38-3-3.63-3h-3.84Z"/><path class="cls-3" d="M14.14,157H12.91V142.15h1.23Z"/><path class="cls-3" d="M28.68,157h-.82L18.8,144.1V157H17.62V142.15H18.8l8.7,12.36V142.15h1.18Z"/><path class="cls-3" d="M36.61,157l-5.85-14.83H32l5.12,13.14,5.17-13.14h1.26L37.72,157Z"/><path class="cls-3" d="M54.87,142.15v1.13h-8v5.48h7.24v1.14H46.88v5.94h8V157h-9.2V142.15Z"/><path class="cls-3" d="M56.86,154.3a6.42,6.42,0,0,0,4.59,1.76c2.12,0,3.47-1.06,3.47-2.78,0-1.47-.84-2.1-2.65-2.87l-2.18-.92a8.71,8.71,0,0,1-2.19-1.31,3,3,0,0,1-1-2.48,3.25,3.25,0,0,1,1.35-2.83,5.36,5.36,0,0,1,3.14-.94,7.23,7.23,0,0,1,4.16,1.25v1.38a6.23,6.23,0,0,0-4.13-1.5c-1.84,0-3.31.87-3.31,2.61,0,1.45,1,2.1,2.58,2.71l2.3,1c2.15.95,3.16,2,3.16,3.92a3.47,3.47,0,0,1-1.33,2.85,5.14,5.14,0,0,1-3.35,1.08,7.08,7.08,0,0,1-4.59-1.47Z"/><path class="cls-3" d="M67.56,142.15H79.64v1.13H74.2V157H73v-13.7H67.56Z"/><path class="cls-3" d="M88.6,153.57,83,144.49V157H81.79V142.15h1.09l5.77,9.42,5.8-9.42h1V157H94.25V144.49l-5.58,9.08Z"/><path class="cls-3" d="M108.2,142.15v1.13h-8v5.48h7.25v1.14H100.2v5.94h8V157H99V142.15Z"/><path class="cls-3" d="M121.7,157h-.82l-9.06-12.88V157h-1.18V142.15h1.18l8.7,12.36V142.15h1.18Z"/><path class="cls-3" d="M123.85,142.15h12.08v1.13H130.5V157h-1.24v-13.7h-5.41Z"/><path class="cls-3" d="M137.29,154.3a6.42,6.42,0,0,0,4.59,1.76c2.12,0,3.48-1.06,3.48-2.78,0-1.47-.85-2.1-2.66-2.87l-2.18-.92a8.71,8.71,0,0,1-2.19-1.31,3,3,0,0,1-1-2.48,3.25,3.25,0,0,1,1.35-2.83,5.36,5.36,0,0,1,3.14-.94,7.23,7.23,0,0,1,4.16,1.25v1.38a6.23,6.23,0,0,0-4.13-1.5c-1.84,0-3.31.87-3.31,2.61,0,1.45,1,2.1,2.58,2.71l2.3,1c2.15.95,3.16,2,3.16,3.92a3.47,3.47,0,0,1-1.33,2.85,5.14,5.14,0,0,1-3.35,1.08,7.08,7.08,0,0,1-4.59-1.47Z"/><path class="cls-3" d="M154.46,148a3.12,3.12,0,0,0,.78-2.08c0-1.74-1.09-2.85-3.12-2.85a5.91,5.91,0,0,0-4.23,2.2v-1.36a5.89,5.89,0,0,1,4.28-2c2.7,0,4.27,1.59,4.27,4a3.61,3.61,0,0,1-.82,2.34c-.55.7-1.11,1.35-1.69,2a3.08,3.08,0,0,0-1,2.06h-1.16a4.34,4.34,0,0,1,1.28-2.69Zm-2.19,7.17a.93.93,0,0,1,.91.94.91.91,0,1,1-1.81,0A.93.93,0,0,1,152.27,155.19Z"/></g></svg>