<svg xmlns="http://www.w3.org/2000/svg" viewBox="0 0 83.84 41.42"><defs><style>.cls-1{fill:#a5714e;}</style></defs><title>t1-ch-200x200</title><g id="Layer_2" data-name="Layer 2"><g id="Layer_2-2" data-name="Layer 2"><path class="cls-1" d="M7.54,16.84c0,.68-.14,1-.64,1.22a6.86,6.86,0,0,1-2.5.24A4.45,4.45,0,0,0,4,17.12c.92,0,1.72,0,2,0s.34-.08.34-.3V14.9h-4A7.07,7.07,0,0,1,1,18.44a4.37,4.37,0,0,0-.94-1,7.29,7.29,0,0,0,1-4.3V8.8H7.54ZM5.08,6.54H8.42V7.68H.14V6.54H3.68V5.24H1V4.16H3.68V3H.46V1.84H3.68V.06h1.4V1.84H8.14V3H5.08v1.2H7.64V5.24H5.08Zm1.18,7.3V12.42H2.38v.76c0,.22,0,.42,0,.66ZM2.38,9.94v1.4H6.26V9.94Zm16,.62H17v3.1H13.6v3c0,.78-.14,1.14-.66,1.36a7.36,7.36,0,0,1-2.44.24A5.39,5.39,0,0,0,10.06,17c.82,0,1.62,0,1.86,0s.3-.08.3-.3v-3H9.3V12.42h2.92V10.56H8.44V9.24h3.78V7.52H9.36V6.28H17v3h1.3Zm-.66-9.24a48.92,48.92,0,0,1-8.8,1.46,4.27,4.27,0,0,0-.4-1.06A50.84,50.84,0,0,0,16.64.3ZM10.2,6.2A10.65,10.65,0,0,0,9,3.56l1.08-.42a10.32,10.32,0,0,1,1.22,2.58Zm2.44-.36A13.16,13.16,0,0,0,11.82,3L13,2.8a11.58,11.58,0,0,1,.88,2.72Zm1,3.4h2.16V7.52H13.6Zm2.16,1.32H13.6v1.86h2.16Zm-1-5.12a18.11,18.11,0,0,0,1.42-3l1.26.38C17,3.86,16.4,5,15.92,5.82Z"/><path class="cls-1" d="M28.66,4.44h-6.5V3.22h3.28A17.66,17.66,0,0,0,23.88.6L25,0a20.85,20.85,0,0,1,1.7,2.7l-.92.52h2.86Zm-5.9,4.18h5.32V9.8H22.76Zm5.36,8.56H24v.94H22.76v-6.7h5.36Zm0-10.06H22.78V5.94H28.1ZM24,12.64V16h2.84V12.64Zm9.76-2c-1.28,0-1.76-.3-1.88-1.28A17.71,17.71,0,0,1,29.22,11,8.68,8.68,0,0,0,28.34,10a22.14,22.14,0,0,0,3.54-2.18V3h1.38v3.6A18.33,18.33,0,0,0,37.56.7l1.26.4a21.41,21.41,0,0,1-5.56,7.2v.48c0,.5.1.6.7.6h2c.54,0,.64-.32.7-2.28a4.2,4.2,0,0,0,1.22.54c-.14,2.38-.52,3-1.78,3ZM28.54,7.42a11.58,11.58,0,0,0,1.38-3.56l1.16.42A13.64,13.64,0,0,1,29.68,8ZM39.1,16.6h1.08v1.2H28.62V16.6H29.9V11.7h9.2Zm-8,0h1.5V12.88H31.1ZM35,3.22a13.86,13.86,0,0,0-3.14-2.16l.82-.84A13.26,13.26,0,0,1,35.82,2.3Zm-1.28,9.66V16.6h1.54V12.88Zm2.62,0V16.6h1.54V12.88Zm1.82-8.94a14.67,14.67,0,0,1,2.09,3.9L39,8.3a15.15,15.15,0,0,0-2-4Z"/><path class="cls-1" d="M62,8.78V10.1H53.68c-.06.54-.14,1.06-.24,1.54H61.7v1.3H53.08c-.94,2.74-3.08,4.44-8.32,5.34A5.09,5.09,0,0,0,44,16.94c4.62-.66,6.58-1.94,7.48-4H44.74v-1.3h7.14a11.76,11.76,0,0,0,.26-1.54H44.3V8.78h8V7.1H46.1V5.8h6.22V4.18H45V2.84h4.22A11.1,11.1,0,0,0,47.68.52L49,0a9.82,9.82,0,0,1,1.76,2.52L50,2.84h5.26A22.39,22.39,0,0,0,57,0L58.5.46a27.38,27.38,0,0,1-1.6,2.38h4.26V4.18H53.8V5.8h6.4V7.1H53.8V8.78Zm-8.18,4.38a50.17,50.17,0,0,1,8.16,4l-.7,1.28a47.46,47.46,0,0,0-8.1-4.14Z"/><path class="cls-1" d="M72.3,15a21.33,21.33,0,0,1-5.18,3,8.84,8.84,0,0,0-1.06-1.06,17.68,17.68,0,0,0,4.88-2.44Zm11.54-7.4V8.84H66.28V7.62h8.1a7.82,7.82,0,0,0-.6-.9l1.12-.38H68.54V.8h13.1V6.34h-6.5A8.68,8.68,0,0,1,76,7.62Zm-8,6.34V16.9c0,.74-.18,1.06-.76,1.24a10.42,10.42,0,0,1-2.9.2,5.35,5.35,0,0,0-.42-1.2c1,0,2,0,2.26,0s.34-.1.34-.32V14H69V9.88H81.26V14ZM70,3.06H80.18V1.82H70Zm0,2.26H80.18V4H70Zm.48,7.54h9.34V11H70.44Zm8,1.7a28.52,28.52,0,0,1,5.3,2.52l-1,1a28.31,28.31,0,0,0-5.24-2.64Z"/><path class="cls-1" d="M5.94,36.46C4,37.26,2,38,.48,38.64L0,37.18c.66-.22,1.46-.5,2.34-.82V29.3H.24V27.92h2.1V23.3H3.72v4.62h1.9V29.3H3.72v6.56l1.94-.72Zm11.8-6.52a22.7,22.7,0,0,1-2.8,6.74c.48,1.92,1.06,3,1.74,3,.38,0,.58-1,.66-3.28a3.2,3.2,0,0,0,1.1.76c-.22,3-.64,3.92-1.94,3.92-1.12,0-2-1.12-2.58-3a14.64,14.64,0,0,1-3.34,3.14,5.59,5.59,0,0,0-1-1,13.38,13.38,0,0,0,3.94-3.78,54.6,54.6,0,0,1-1-9H7.84v2.68h3.82s0,.42,0,.6c-.06,4.56-.14,6.16-.52,6.66a1.26,1.26,0,0,1-1,.56,13.24,13.24,0,0,1-1.8,0A3.37,3.37,0,0,0,8,36.74c.68.06,1.3.06,1.56.06s.4,0,.48-.2.3-1.58.36-5.16H7.84v.88c0,2.8-.34,6.6-2.48,9.08a5,5,0,0,0-1.1-.94c2-2.3,2.2-5.58,2.2-8.16V26.12h6q-.06-1.5-.06-3.06h1.42c0,1,0,2.08,0,3.06h2.68a14.6,14.6,0,0,0-2.3-2.28l1-.64a12.1,12.1,0,0,1,2.39,2.24l-1,.68h1.46V27.5H13.9a64.12,64.12,0,0,0,.64,7.2,20.36,20.36,0,0,0,1.82-5Z"/><path class="cls-1" d="M31.78,27.44v2.7h6.48v7c0,.86-.2,1.3-.84,1.56a12.51,12.51,0,0,1-3.5.26,5.67,5.67,0,0,0-.52-1.48c1.36,0,2.56,0,2.9,0s.46-.12.46-.4V31.6h-5v9.7h-1.5V31.6H25.6V39H24.12V30.14h6.16v-2.7h-8.1V26H30.7a24.74,24.74,0,0,0-1.32-2.62l1.42-.44a17.11,17.11,0,0,1,1.56,3l-.26.1H40v1.46Z"/><path class="cls-1" d="M49.8,28a22.63,22.63,0,0,1-1.62,2.46V41.3h-1.4V32.14a20.72,20.72,0,0,1-2.24,2.18,12.79,12.79,0,0,0-.78-1.42,18.88,18.88,0,0,0,4.78-5.4Zm-.18-4.32a19.3,19.3,0,0,1-4.78,4.76,7.87,7.87,0,0,0-.78-1.22,14.47,14.47,0,0,0,4.16-4.08Zm6.74,8.72V34h4.7v1.26h-4.7v1.7H62v1.32H56.36v3.08H54.9V38.24H49.52V36.92H54.9v-1.7H50.4V34h4.5V32.4H50.68V31.14H54.9v-1.7H49.82v-1.3H54.9v-1.7H50.76V25.18H54.9v-2.1h1.46v2.1h4.42v3h1.46v1.3H60.78v3Zm0-4.26h3v-1.7h-3Zm0,3h3v-1.7h-3Z"/><path class="cls-1" d="M83.8,27.7s0,.56,0,.76c-.22,8.38-.4,11.16-1.08,12a1.58,1.58,0,0,1-1.34.74,13.8,13.8,0,0,1-2.42,0,4,4,0,0,0-.42-1.4c1,.08,1.84.1,2.22.1a.76.76,0,0,0,.72-.32c.46-.58.7-3.22.9-10.48H79.5c-.24,5.32-1.16,9.68-4.68,12.32a5.05,5.05,0,0,0-1.1-1.06,10.4,10.4,0,0,0,.88-.7c-3,.36-6.14.7-8.38.94L66,39.3c1.2-.1,2.7-.24,4.34-.4V37.18H66.56V36h3.78V34.82H66.6V28.88h3.74V27.62H66V26.46h4.32V25.14c-1.28.1-2.58.18-3.76.22a4.43,4.43,0,0,0-.36-1.1,62.49,62.49,0,0,0,8.62-1l.74,1.14a38.22,38.22,0,0,1-3.9.58v1.46h4.24v1.16H71.68v1.26h3.88v5.94H71.68V36H75.6v1.14H71.68v1.58c1.3-.12,2.66-.26,4-.42v.1c1.74-2.36,2.26-5.58,2.44-9.34H75.78V27.7h2.38c0-1.4,0-2.86,0-4.38h1.4c0,1.5,0,3,0,4.38Zm-16,3.64h2.52V29.9H67.82Zm2.52,2.44V32.32H67.82v1.46Zm1.34-3.88v1.44H74.3V29.9Zm2.62,2.42H71.68v1.46H74.3Z"/></g></g></svg>