<svg xmlns="http://www.w3.org/2000/svg" viewBox="0 0 120.66 49.95"><defs><style>.cls-1{fill:#a5714e;}</style></defs><title>t2-en-200</title><g id="Layer_2" data-name="Layer 2"><g id="Layer_1-2" data-name="Layer 1"><path class="cls-1" d="M9.42.26h1.5V10.51H9.42Z"/><path class="cls-1" d="M22.19.26V10.68L14.62,2.81v7.7h-.57V.09L21.61,8V.26Z"/><path class="cls-1" d="M37,.84H33.87v9.67h-1.5V.84H29.23V.26H37Z"/><path class="cls-1" d="M48.24,10.51H46.73V5.57H41.22v4.94H39.71V.26h1.51V5h5.51V.26h1.51Z"/><path class="cls-1" d="M52.79.84V5h3.75v.58H52.79V9.93h4.49v.58h-6V.26h6V.84Z"/><path class="cls-1" d="M73,10.51h-1.5V5.57H66v4.94H64.45V.26H66V5h5.52V.26H73Z"/><path class="cls-1" d="M77.53.84V5h3.76v.58H77.53V9.93H82v.58H76V.26h6V.84Z"/><path class="cls-1" d="M89.9,7.49h-4l-1.24,3H84.1L88.41,0l4.31,10.51H91.13Zm-3.74-.57h3.5L87.91,2.64Z"/><path class="cls-1" d="M97.26,6l5.42,4.52h-.86l-5-4.16v4.16H95.32V.26h2.87c2,0,3.74.83,3.74,2.87S100.24,6,98.19,6Zm.55-.58c1.79,0,2.53-.76,2.53-2.28S99.6.84,97.81.84h-1V5.41Z"/><path class="cls-1" d="M111.85.84h-3.14v9.67h-1.5V.84h-3.14V.26h7.78Z"/><path class="cls-1" d="M5.51,30.33a5.32,5.32,0,1,1,0-10.64,5.32,5.32,0,1,1,0,10.64ZM9.38,25c0-2.78-1.55-4.75-3.87-4.75s-3.88,2-3.88,4.75,1.55,4.74,3.88,4.74S9.38,27.81,9.38,25Z"/><path class="cls-1" d="M15.23,20.46v4.16H19v.57H15.23v4.94h-1.5V19.89h6v.57Z"/><path class="cls-1" d="M35,21.31a5.24,5.24,0,0,0-3.13-1C29.53,20.26,28,22.17,28,25s1.55,4.74,3.86,4.74a5.05,5.05,0,0,0,3.42-1.37v.94a5.75,5.75,0,0,1-3.43,1,5.32,5.32,0,1,1,0-10.64,6.9,6.9,0,0,1,3.15.73Z"/><path class="cls-1" d="M42.78,30.33a5.32,5.32,0,1,1,0-10.64,5.32,5.32,0,1,1,0,10.64ZM46.65,25c0-2.78-1.55-4.75-3.87-4.75s-3.88,2-3.88,4.75,1.55,4.74,3.88,4.74S46.65,27.81,46.65,25Z"/><path class="cls-1" d="M59.13,30.2a1.75,1.75,0,0,0-.8-.18,1.31,1.31,0,0,0-.36,0,6.22,6.22,0,0,1-1.8.27A5.32,5.32,0,1,1,61.67,25,5.11,5.11,0,0,1,59,29.65a1.79,1.79,0,0,1,.65.17l3.87,1.71H62.11ZM60.05,25c0-2.78-1.56-4.75-3.88-4.75s-3.88,2-3.88,4.75,1.56,4.74,3.88,4.74S60.05,27.81,60.05,25Z"/><path class="cls-1" d="M71.87,26a4.48,4.48,0,0,1-1.1,3.5,3.53,3.53,0,0,1-2.53.83,4.18,4.18,0,0,1-2.74-.82c-1-.9-1.28-2.11-1.28-4.17V19.89h1.51V25.6c0,1.81.07,2.68.58,3.34a2.27,2.27,0,0,0,1.93.79,3,3,0,0,0,2.1-.66A4.06,4.06,0,0,0,71.28,26V19.89h.59Z"/><path class="cls-1" d="M74.84,19.89h1.5V30.13h-1.5Z"/><path class="cls-1" d="M86.91,20.46H83.77v9.67h-1.5V20.46H79.14v-.57h7.77Z"/><path class="cls-1" d="M89.62,19.89h1.51v9.67h4v.57H89.62Z"/><path class="cls-1" d="M102.84,27.11h-4l-1.24,3H97l4.31-10.51,4.31,10.51h-1.59Zm-3.74-.57h3.5l-1.75-4.28Z"/><path class="cls-1" d="M120.66,30.13h-1.55l-1.19-7.22-4,7.39-4.17-7.4-1.19,7.23H108l1.72-10.42,4.72,8.46,4.52-8.46Z"/><path class="cls-1" d="M12.73,40.08H9.59v9.67H8.09V40.08H5v-.57h7.78Z"/><path class="cls-1" d="M19.37,50a5.32,5.32,0,1,1,0-10.63,5.32,5.32,0,1,1,0,10.63Zm3.88-5.32c0-2.78-1.56-4.74-3.88-4.74s-3.87,2-3.87,4.74,1.55,4.75,3.87,4.75S23.25,47.43,23.25,44.63Z"/><path class="cls-1" d="M27.72,39.51l2.93,7.63,3.07-7.8,3.37,7.86,2.82-7.69h.58l-3.8,10.42L33.26,42l-3.1,7.93-4-10.42Z"/><path class="cls-1" d="M51.25,39.51V49.93l-7.57-7.87v7.69h-.57V39.34l7.56,7.86V39.51Z"/><path class="cls-1" d="M66.93,40.94a5.26,5.26,0,0,0-3.13-1c-2.33,0-3.87,1.91-3.87,4.74s1.54,4.75,3.86,4.75A5,5,0,0,0,67.2,48v1a5.78,5.78,0,0,1-3.42,1,5.32,5.32,0,1,1,0-10.63,6.92,6.92,0,0,1,3.15.72Z"/><path class="cls-1" d="M71.69,40.08v4.16h3.76v.57H71.69v4.37h4.49v.57h-6V39.51h6v.57Z"/><path class="cls-1" d="M87.16,39.51V49.93l-7.57-7.87v7.69H79V39.34l7.56,7.86V39.51Z"/><path class="cls-1" d="M97.64,40.08H94.5v9.67H93V40.08H89.86v-.57h7.78Z"/><path class="cls-1" d="M102.28,45.24l5.43,4.51h-.86l-5-4.15v4.15h-1.51V39.51h2.88c2,0,3.74.82,3.74,2.87s-1.7,2.86-3.74,2.86Zm.56-.58c1.79,0,2.53-.77,2.53-2.28s-.74-2.3-2.53-2.3h-1v4.58Z"/><path class="cls-1" d="M111.5,40.08v4.16h3.75v.57H111.5v4.37H116v.57h-6V39.51h6v.57Z"/></g></g></svg>