<svg xmlns="http://www.w3.org/2000/svg" viewBox="0 0 101.28 64.32"><defs><style>.cls-1{fill:#a5714e;}</style></defs><title>t3-ch-200x200</title><g id="Layer_2" data-name="Layer 2"><g id="Layer_2-2" data-name="Layer 2"><path class="cls-1" d="M33.46,9.62a17.6,17.6,0,0,1-2.32,6.3,8.25,8.25,0,0,0-.72-1.46A15.74,15.74,0,0,0,32.48,9.3ZM35,8.14v10.2H33.68V8.14H30.76V6.74h2.92V.1H35V6.76h2.46V8.14ZM31.94,5.88a38.63,38.63,0,0,0-1.08-4.22L32,1.4a34.89,34.89,0,0,1,1.12,4.2Zm4.14,3.44c.36.52,1.72,3,2,3.6l-1,1.1c-.34-1-1.4-3.36-1.8-4.14ZM38,1.84C37.48,3.22,36.84,5,36.32,6l-1-.34A31.18,31.18,0,0,0,36.72,1.4Zm9.8,14.94c0,.72-.14,1.08-.68,1.3a7.57,7.57,0,0,1-2.58.22,4.78,4.78,0,0,0-.42-1.24c.9,0,1.72,0,2,0s.32-.08.32-.3v-1.7H40.2a7.34,7.34,0,0,1-1.44,3.5,4.81,4.81,0,0,0-1-1A8.17,8.17,0,0,0,39,12.5V8.82H47.8ZM49,6.5V7.64H37.86V6.5h4.72V5.14h-4V4.06h4V2.84h-4.5V1.7h4.5V.08H44V1.7h4.72V2.84H44V4.06H48.4V5.14H44V6.5ZM46.4,14V12.54h-6c0,.46,0,1-.06,1.48Zm-6-4v1.48h6V10Z"/><path class="cls-1" d="M70.74,8.78V10.1H62.4c-.06.54-.14,1.06-.24,1.54h8.26v1.3H61.8c-.94,2.74-3.08,4.44-8.32,5.34a5.09,5.09,0,0,0-.78-1.34c4.62-.66,6.58-1.94,7.48-4H53.46v-1.3H60.6a11.76,11.76,0,0,0,.26-1.54H53V8.78h8V7.1H54.82V5.8H61V4.18H53.72V2.84h4.22A11.1,11.1,0,0,0,56.4.52L57.68,0a9.82,9.82,0,0,1,1.76,2.52l-.72.32H64A22.39,22.39,0,0,0,65.7,0l1.52.46a27.38,27.38,0,0,1-1.6,2.38h4.26V4.18H62.52V5.8h6.4V7.1h-6.4V8.78Zm-8.18,4.38a50.17,50.17,0,0,1,8.16,4L70,18.4a47.46,47.46,0,0,0-8.1-4.14Z"/><path class="cls-1" d="M.08,38.72c4.6-4,6.72-6.94,6.72-9.46a2.58,2.58,0,0,0-2.7-2.9,4.11,4.11,0,0,0-3,1.7L0,27a5.61,5.61,0,0,1,4.32-2.16A4,4,0,0,1,8.58,29.2c0,2.92-2.3,5.9-5.74,9.16.76-.06,1.66-.14,2.4-.14H9.3V39.8H.08Z"/><path class="cls-1" d="M31.54,40.06a10.89,10.89,0,0,1-3.34-1.68A6.11,6.11,0,0,1,24,40.06c-2.66,0-4.46-1.7-4.46-4.06,0-2,1.38-3.2,2.88-4.24a7.79,7.79,0,0,1-1-3.42,3.31,3.31,0,0,1,3.38-3.48,2.7,2.7,0,0,1,2.88,2.9c0,1.92-1.68,3.16-3.3,4.34a17.87,17.87,0,0,0,3.72,4.14,12.51,12.51,0,0,0,2.08-4.34h1.68a15.8,15.8,0,0,1-2.56,5.24A8.9,8.9,0,0,0,32,38.54ZM24.18,38.6A4.37,4.37,0,0,0,27,37.42,22.3,22.3,0,0,1,23.12,33c-1,.84-1.84,1.72-1.84,2.86A2.7,2.7,0,0,0,24.18,38.6Zm-.48-7.7c1.34-.9,2.5-1.8,2.5-3.1,0-.86-.4-1.62-1.4-1.62A1.89,1.89,0,0,0,23,28.3,6.11,6.11,0,0,0,23.7,30.9Z"/><path class="cls-1" d="M41.44,38.06l.92-1.2A4.85,4.85,0,0,0,46,38.54a2.7,2.7,0,0,0,3-2.72c0-1.76-1.18-2.94-4.56-2.94v-1.4c3,0,4.06-1.22,4.06-2.8A2.29,2.29,0,0,0,46,26.32a4.57,4.57,0,0,0-3,1.46l-1-1.16a5.87,5.87,0,0,1,4.1-1.76c2.46,0,4.26,1.32,4.26,3.68a3.65,3.65,0,0,1-2.62,3.54v.08a3.77,3.77,0,0,1,3.12,3.72c0,2.62-2.1,4.18-4.7,4.18A6.07,6.07,0,0,1,41.44,38.06Z"/><path class="cls-1" d="M75.1,25.86c0,.84,0,1.82-.08,2.84.76,4.8,2.32,9.16,4.8,11.32a6.47,6.47,0,0,0-1,1.08c-2-1.88-3.32-4.94-4.24-8.54a20.08,20.08,0,0,1-3.68,8.72,4.27,4.27,0,0,0-1.16-.86c.14-.18.28-.36.42-.56H62.44V24.22h8.22v1.3H67.84V29H70.5v5.76H67.84v3.8H70.7v.54c3-4.62,3-10,3-13.24V23.44H75.1Zm-11.2-.34V29h2.62V25.52Zm5.24,4.88H63.9v3h5.24ZM63.9,38.56h2.6v-3.8H63.9Z"/><path class="cls-1" d="M101.28,39.42v1.34H83.66V39.42h8V36.78h-6.2V35.46h6.2v-2.1h1.5v2.1h6.34v1.32H93.18v2.64ZM85.34,28.34H83.9V24.82h8c-.22-.5-.52-1.08-.78-1.54l1.42-.42a16.75,16.75,0,0,1,1,2H101v3.52H99.5V26.2H85.34ZM98.46,34a11.74,11.74,0,0,0-1.14-1.28c-9.48.74-10.42.8-11,1.06a13.2,13.2,0,0,0-.44-1.36,3.34,3.34,0,0,0,1.36-.72A22.67,22.67,0,0,0,90,29.26h-4V28H99.1v1.3H91.88a28.53,28.53,0,0,1-3.38,2.9l7.72-.54c-.54-.5-1.1-1-1.62-1.4l1.1-.7a28,28,0,0,1,3.92,3.62Z"/><path class="cls-1" d="M15.8,47.16a26.6,26.6,0,0,1-5.86,8.5,11.11,11.11,0,0,0-1.32-1.2,20.82,20.82,0,0,0,5.56-7.8Zm5.62,9.5a62,62,0,0,1,4.48,6.72l-1.48.82c-.28-.56-.66-1.2-1.08-1.92C13,63,11.88,63.06,11.1,63.34a9.22,9.22,0,0,0-.58-1.58c.54-.12,1.12-.78,1.88-1.72a44.6,44.6,0,0,0,5-7.88l1.66.7a52.48,52.48,0,0,1-5.86,8.58l9.24-.52c-.78-1.24-1.68-2.54-2.48-3.6Zm.42-10.08a14.53,14.53,0,0,0,5.3,7.7A7.85,7.85,0,0,0,26,55.66a16.68,16.68,0,0,1-5.26-7.58H17v-1.5Z"/><path class="cls-1" d="M48.24,47.76v3.66H46.82V49.06h-14v2.36H31.5V47.76h7.8a14.66,14.66,0,0,0-.76-1.48l1.56-.36A13.33,13.33,0,0,1,41,47.76Zm-.84,15c0,.72-.14,1.06-.7,1.28A8.8,8.8,0,0,1,44,64.3a4,4,0,0,0-.42-1.22c1,0,1.8,0,2,0s.34-.1.34-.3V58.7H40.46v1.76l2.46-.1c-.24-.34-.48-.68-.74-1l1-.4a14.53,14.53,0,0,1,1.92,3l-1.08.5a5,5,0,0,0-.42-.9c-3.16.16-6.42.32-8.72.4l-.1-1.28,4.24-.14V58.7H33.74v5.62h-1.4V58.7h-.8V57.42h.8v-.68h1.4v.68h5.32V56.14H34.24V50.28H45.46v5.86h-5v1.28H47.4ZM35.58,52.7h3.48V51.36H35.58Zm3.48,2.38V53.72H35.58v1.36Zm5-3.72h-3.6V52.7h3.6Zm0,2.36h-3.6v1.36h3.6Z"/><path class="cls-1" d="M59,46.58a29.89,29.89,0,0,1-2,4.28V64.3H55.46V53.18a19.83,19.83,0,0,1-2,2.38,8.08,8.08,0,0,0-.86-1.48,22.27,22.27,0,0,0,4.94-7.94ZM71,62.24v1.42H58.12V62.24H63.9V57.18H59.3v-1.4h4.6v-4.4H58.64V50H70.7v1.42H65.38v4.4H70.1v1.4H65.38v5.06ZM64.42,49.78a15.76,15.76,0,0,0-1.64-3.3l1.34-.5a17.38,17.38,0,0,1,1.74,3.24Z"/><path class="cls-1" d="M77,52.3H75.5V48.16h7.74a16,16,0,0,0-.88-1.76L83.8,46A21.58,21.58,0,0,1,85,48.16H92.2V52.3H90.66V49.56H77ZM89.5,62.58c1.1,0,1.3-.46,1.44-2.84a3.9,3.9,0,0,0,1.46.6c-.24,2.9-.72,3.7-2.8,3.7H85.12c-2.34,0-3-.54-3-2.46V57.92H75.9V56.48h6.24V53.54c-1.64.28-3.32.52-4.9.7A5.75,5.75,0,0,0,76.78,53,52.72,52.72,0,0,0,88,50.64l1.18,1.18a34.74,34.74,0,0,1-5.52,1.46v3.2h7.58v1.44H83.7v3.66c0,.82.26,1,1.5,1Z"/></g></g></svg>