<?xml version="1.0" encoding="UTF-8"?>
<svg id="Layer_1" data-name="Layer 1" xmlns="http://www.w3.org/2000/svg" viewBox="0 0 970 250">
  <defs>
    <style>
      .cls-1 {
        fill: #171d21;
        stroke-width: 0px;
      }
    </style>
  </defs>
  <path class="cls-1" d="M45.37,83.95h-.29c-.27.73-.65,1.45-1.15,2.18-.5.69-1.09,1.3-1.78,1.84-.76.57-1.57.99-2.41,1.26-.99.31-2.06.46-3.21.46-2.98,0-5.39-.97-7.23-2.93-1.84-1.95-2.75-4.72-2.75-8.32v-19.04h6.25v18.12c0,4.7,2.05,7.05,6.14,7.05.84,0,1.62-.11,2.35-.34.65-.15,1.34-.46,2.06-.92.54-.34,1.03-.88,1.49-1.61.34-.65.52-1.4.52-2.24v-20.07h6.25v29.59h-6.25v-5.05ZM58.93,89v-29.59h6.25v5.05h.29c.27-.73.67-1.47,1.2-2.24.5-.73,1.07-1.34,1.72-1.84.69-.54,1.49-.94,2.41-1.2.99-.31,2.06-.46,3.21-.46,2.98,0,5.39.98,7.23,2.92,1.84,1.95,2.75,4.72,2.75,8.32v19.04h-6.25v-18.12c0-4.7-2.05-7.05-6.14-7.05-.73,0-1.51.1-2.35.29-.69.23-1.38.55-2.06.98-.57.34-1.05.88-1.43,1.61-.38.61-.57,1.36-.57,2.24v20.07h-6.25ZM109.04,89h-6.31c-2.49,0-4.3-.65-5.45-1.95-1.19-1.34-1.78-3.04-1.78-5.1v-28.22h-5.05v-4.76h10.9v35.27h7.69v4.76ZM128.17,89.69c-2.22,0-4.17-.36-5.85-1.09-1.72-.73-3.19-1.76-4.42-3.1-1.26-1.38-2.2-3-2.81-4.88-.65-1.95-.97-4.09-.97-6.42s.32-4.47.97-6.42c.61-1.87,1.55-3.5,2.81-4.87,1.22-1.34,2.69-2.37,4.42-3.1,1.68-.73,3.63-1.09,5.85-1.09s4.19.36,5.91,1.09c1.76.76,3.23,1.8,4.42,3.1,1.19,1.3,2.1,2.92,2.75,4.87.65,1.95.98,4.09.98,6.42s-.32,4.47-.98,6.42c-.65,1.95-1.57,3.57-2.75,4.88-1.18,1.3-2.66,2.33-4.42,3.1-1.72.73-3.69,1.09-5.91,1.09ZM128.17,84.76c2.29,0,4.13-.71,5.51-2.12,1.34-1.41,2.01-3.48,2.01-6.19v-4.47c0-2.71-.67-4.8-2.01-6.25-1.38-1.38-3.21-2.06-5.51-2.06s-4.11.69-5.45,2.06c-1.38,1.41-2.07,3.5-2.07,6.25v4.47c0,2.75.69,4.82,2.07,6.19,1.3,1.41,3.12,2.12,5.45,2.12ZM171.28,89c-1.8,0-3.13-.46-4.01-1.38-.96-.96-1.51-2.16-1.66-3.61h-.29c-.57,1.84-1.61,3.23-3.1,4.19-1.57.99-3.5,1.49-5.79,1.49-3.02,0-5.43-.8-7.23-2.41-1.8-1.57-2.7-3.75-2.7-6.54s1.07-5.03,3.21-6.6c2.14-1.49,5.39-2.24,9.75-2.24h5.68v-2.29c0-4.01-2.12-6.02-6.37-6.02-1.91,0-3.46.36-4.65,1.09-1.15.69-2.14,1.68-2.98,2.98l-3.73-3.04c.88-1.61,2.29-3,4.24-4.19,2.03-1.15,4.59-1.72,7.68-1.72,3.75,0,6.69.9,8.83,2.7s3.21,4.4,3.21,7.8v14.85h3.73v4.93h-3.84ZM158.2,85.1c2.03,0,3.69-.46,4.99-1.38,1.3-.92,1.95-2.1,1.95-3.56v-4.3h-5.56c-4.51,0-6.77,1.36-6.77,4.07v1.15c0,1.38.48,2.37,1.43,2.98.99.69,2.31,1.03,3.96,1.03ZM179.97,89v-29.59h6.25v5.05h.29c.27-.73.67-1.47,1.21-2.24.5-.73,1.07-1.34,1.72-1.84.69-.54,1.49-.94,2.41-1.2.99-.31,2.07-.46,3.21-.46,2.98,0,5.39.98,7.23,2.92,1.84,1.95,2.75,4.72,2.75,8.32v19.04h-6.25v-18.12c0-4.7-2.05-7.05-6.14-7.05-.73,0-1.51.1-2.35.29-.69.23-1.38.55-2.07.98-.57.34-1.05.88-1.43,1.61-.38.61-.57,1.36-.57,2.24v20.07h-6.25ZM247.45,59.41h6.31l-14.34,35.33c-.73,1.84-1.72,3.27-2.98,4.3-1.22.96-3.02,1.43-5.39,1.43h-4.99v-5.05h7l2.69-6.83-11.93-29.19h6.54l4.7,12.39,3.67,10.15h.34l3.67-10.15,4.7-12.39ZM269.76,89.69c-2.22,0-4.17-.36-5.85-1.09-1.72-.73-3.19-1.76-4.42-3.1-1.26-1.38-2.2-3-2.81-4.88-.65-1.95-.97-4.09-.97-6.42s.32-4.47.97-6.42c.61-1.87,1.55-3.5,2.81-4.87,1.22-1.34,2.7-2.37,4.42-3.1,1.68-.73,3.63-1.09,5.85-1.09s4.19.36,5.91,1.09c1.76.76,3.23,1.8,4.42,3.1,1.18,1.3,2.1,2.92,2.75,4.87.65,1.95.98,4.09.98,6.42s-.32,4.47-.98,6.42c-.65,1.95-1.57,3.57-2.75,4.88-1.19,1.3-2.66,2.33-4.42,3.1-1.72.73-3.69,1.09-5.91,1.09ZM269.76,84.76c2.29,0,4.13-.71,5.51-2.12,1.34-1.41,2.01-3.48,2.01-6.19v-4.47c0-2.71-.67-4.8-2.01-6.25-1.38-1.38-3.21-2.06-5.51-2.06s-4.11.69-5.45,2.06c-1.38,1.41-2.06,3.5-2.06,6.25v4.47c0,2.75.69,4.82,2.06,6.19,1.3,1.41,3.12,2.12,5.45,2.12ZM307.99,83.95h-.29c-.27.73-.65,1.45-1.15,2.18-.5.69-1.09,1.3-1.78,1.84-.76.57-1.57.99-2.41,1.26-.99.31-2.07.46-3.21.46-2.98,0-5.39-.97-7.23-2.93-1.84-1.95-2.75-4.72-2.75-8.32v-19.04h6.25v18.12c0,4.7,2.04,7.05,6.14,7.05.84,0,1.62-.11,2.35-.34.65-.15,1.34-.46,2.06-.92.54-.34,1.03-.88,1.49-1.61.34-.65.52-1.4.52-2.24v-20.07h6.25v29.59h-6.25v-5.05ZM321.1,83.95h7.86v-19.5h-7.86v-5.05h14.11v7.86h.35c.3-1.15.69-2.14,1.15-2.98.46-.88,1.09-1.72,1.89-2.52.73-.65,1.66-1.22,2.81-1.72,1.15-.42,2.45-.63,3.9-.63h3.56v5.96h-5.85c-2.29,0-4.17.67-5.62,2.01-1.45,1.38-2.18,3.21-2.18,5.51v11.07h10.73v5.05h-24.83v-5.05Z"/>
</svg>