<?xml version="1.0" encoding="UTF-8"?>
<svg id="Layer_1" data-name="Layer 1" xmlns="http://www.w3.org/2000/svg" viewBox="0 0 970 250">
  <defs>
    <style>
      .cls-1 {
        fill: #171d21;
        stroke-width: 0px;
      }
    </style>
  </defs>
  <path class="cls-1" d="M26.84,109.56h6.25v17.9h.29c.27-.73.67-1.47,1.2-2.24.5-.73,1.07-1.34,1.72-1.84.69-.54,1.49-.94,2.41-1.2.99-.31,2.06-.46,3.21-.46,2.98,0,5.39.97,7.23,2.92,1.84,1.95,2.75,4.72,2.75,8.32v19.04h-6.25v-18.12c0-4.7-2.05-7.05-6.14-7.05-.73,0-1.51.1-2.35.29-.69.23-1.38.55-2.06.97-.57.34-1.05.88-1.43,1.61-.38.61-.57,1.36-.57,2.24v20.07h-6.25v-42.44ZM71.32,152.69c-2.22,0-4.17-.36-5.85-1.09-1.72-.73-3.19-1.76-4.42-3.1-1.26-1.38-2.2-3-2.81-4.88-.65-1.95-.98-4.09-.98-6.42s.33-4.47.98-6.42c.61-1.87,1.55-3.5,2.81-4.88,1.22-1.34,2.7-2.37,4.42-3.1,1.68-.73,3.63-1.09,5.85-1.09s4.19.36,5.91,1.09c1.76.76,3.23,1.8,4.42,3.1,1.19,1.3,2.1,2.92,2.75,4.88.65,1.95.97,4.09.97,6.42s-.33,4.47-.97,6.42c-.65,1.95-1.57,3.57-2.75,4.88-1.19,1.3-2.66,2.33-4.42,3.1-1.72.73-3.69,1.09-5.91,1.09ZM71.32,147.76c2.29,0,4.13-.71,5.51-2.12,1.34-1.42,2.01-3.48,2.01-6.19v-4.47c0-2.71-.67-4.8-2.01-6.25-1.38-1.38-3.21-2.06-5.51-2.06s-4.11.69-5.45,2.06c-1.38,1.41-2.06,3.5-2.06,6.25v4.47c0,2.75.69,4.82,2.06,6.19,1.3,1.41,3.12,2.12,5.45,2.12ZM88.79,152v-29.59h5.33v3.84h.29c.38-1.22,1.05-2.31,2.01-3.27.38-.38.97-.69,1.78-.92.8-.23,1.61-.34,2.41-.34,1.84,0,3.19.44,4.07,1.32.92.92,1.49,2.08,1.72,3.5h.23c.46-1.34,1.22-2.5,2.29-3.5.5-.46,1.09-.78,1.78-.98.73-.23,1.68-.34,2.87-.34s2.26.21,3.21.63c.99.42,1.72,1.01,2.18,1.78.5.84.84,1.82,1.03,2.93.19,1.07.29,2.45.29,4.13v20.82h-5.33v-20.02c0-1.95-.27-3.35-.8-4.19-.31-.42-.75-.73-1.32-.92-.57-.23-1.17-.34-1.78-.34-.5,0-1.03.1-1.61.29-.53.15-.97.38-1.32.69-.69.61-1.03,1.61-1.03,2.98v21.51h-5.33v-20.02c0-1.34-.06-2.27-.17-2.81-.08-.57-.23-1.07-.46-1.49-.57-.76-1.61-1.15-3.1-1.15-.54,0-1.09.1-1.66.29-.54.15-.96.38-1.26.69-.65.65-.98,1.64-.98,2.98v21.51h-5.33ZM138.38,152.69c-2.33,0-4.36-.36-6.08-1.09-1.84-.76-3.35-1.8-4.53-3.1-1.26-1.38-2.2-3-2.81-4.88-.65-1.95-.97-4.07-.97-6.37,0-2.41.34-4.55,1.03-6.42.61-1.84,1.55-3.48,2.81-4.93,1.22-1.34,2.68-2.37,4.36-3.1,1.68-.73,3.59-1.09,5.74-1.09s3.98.34,5.62,1.03c1.72.76,3.15,1.78,4.3,3.04,1.22,1.34,2.14,2.89,2.75,4.65.61,1.72.92,3.71.92,5.96v2.35h-21.22v.97c0,2.33.73,4.23,2.18,5.68,1.41,1.49,3.42,2.24,6.02,2.24,1.95,0,3.59-.42,4.93-1.26,1.34-.8,2.43-1.89,3.27-3.27l3.9,3.44c-.96,1.65-2.47,3.1-4.53,4.36-2.03,1.19-4.59,1.78-7.69,1.78ZM137.92,126.48c-1.15,0-2.16.19-3.04.57-.99.42-1.8.96-2.41,1.61-.69.73-1.22,1.57-1.61,2.52-.38.92-.57,1.97-.57,3.15v.4h14.85v-.57c0-2.33-.65-4.21-1.95-5.62-1.3-1.38-3.06-2.06-5.28-2.06ZM189.8,152h-6.31c-2.49,0-4.3-.65-5.45-1.95-1.18-1.34-1.78-3.04-1.78-5.1v-28.22h-5.05v-4.76h10.9v35.27h7.69v4.76ZM208.94,152.69c-2.22,0-4.17-.36-5.85-1.09-1.72-.73-3.19-1.76-4.42-3.1-1.26-1.38-2.2-3-2.81-4.88-.65-1.95-.97-4.09-.97-6.42s.32-4.47.97-6.42c.61-1.87,1.55-3.5,2.81-4.88,1.22-1.34,2.7-2.37,4.42-3.1,1.68-.73,3.63-1.09,5.85-1.09s4.19.36,5.91,1.09c1.76.76,3.23,1.8,4.42,3.1,1.19,1.3,2.1,2.92,2.75,4.88.65,1.95.98,4.09.98,6.42s-.33,4.47-.98,6.42c-.65,1.95-1.57,3.57-2.75,4.88-1.19,1.3-2.66,2.33-4.42,3.1-1.72.73-3.69,1.09-5.91,1.09ZM208.94,147.76c2.29,0,4.13-.71,5.51-2.12,1.34-1.42,2.01-3.48,2.01-6.19v-4.47c0-2.71-.67-4.8-2.01-6.25-1.38-1.38-3.21-2.06-5.51-2.06s-4.11.69-5.45,2.06c-1.38,1.41-2.06,3.5-2.06,6.25v4.47c0,2.75.69,4.82,2.06,6.19,1.3,1.41,3.12,2.12,5.45,2.12ZM252.04,152c-1.8,0-3.13-.46-4.01-1.38-.96-.96-1.51-2.16-1.66-3.61h-.29c-.57,1.84-1.61,3.23-3.1,4.19-1.57.99-3.5,1.49-5.79,1.49-3.02,0-5.43-.8-7.23-2.41-1.8-1.57-2.7-3.75-2.7-6.54s1.07-5.03,3.21-6.6c2.14-1.49,5.39-2.24,9.75-2.24h5.68v-2.29c0-4.01-2.12-6.02-6.37-6.02-1.91,0-3.46.36-4.64,1.09-1.15.69-2.14,1.68-2.98,2.98l-3.73-3.04c.88-1.61,2.29-3,4.24-4.19,2.03-1.15,4.59-1.72,7.69-1.72,3.75,0,6.69.9,8.83,2.7,2.14,1.8,3.21,4.4,3.21,7.8v14.85h3.73v4.93h-3.84ZM238.96,148.1c2.03,0,3.69-.46,4.99-1.38,1.3-.92,1.95-2.1,1.95-3.56v-4.3h-5.56c-4.51,0-6.77,1.36-6.77,4.07v1.15c0,1.38.48,2.37,1.43,2.98.99.69,2.31,1.03,3.96,1.03ZM260.73,152v-29.59h6.25v5.05h.29c.27-.73.67-1.47,1.2-2.24.5-.73,1.07-1.34,1.72-1.84.69-.54,1.49-.94,2.41-1.2,1-.31,2.07-.46,3.21-.46,2.98,0,5.39.97,7.23,2.92,1.83,1.95,2.75,4.72,2.75,8.32v19.04h-6.25v-18.12c0-4.7-2.04-7.05-6.14-7.05-.73,0-1.51.1-2.35.29-.69.23-1.38.55-2.07.97-.57.34-1.05.88-1.43,1.61-.38.61-.57,1.36-.57,2.24v20.07h-6.25Z"/>
</svg>