<?xml version="1.0" encoding="UTF-8"?>
<svg id="Layer_2" data-name="Layer 2" xmlns="http://www.w3.org/2000/svg" viewBox="0 0 170.9 31.9">
  <defs>
    <style>
      .cls-1 {
        fill: #fff;
        stroke-width: 0px;
      }
    </style>
  </defs>
  <g id="Layer_1-2" data-name="Layer 1">
    <path class="cls-1" d="M154.95,31.9H15.95C7.16,31.9,0,24.75,0,15.95S7.16,0,15.95,0h139c8.79,0,15.95,7.16,15.95,15.95s-7.16,15.95-15.95,15.95ZM15.95,1.5C7.98,1.5,1.5,7.98,1.5,15.95s6.48,14.45,14.45,14.45h139c7.97,0,14.45-6.48,14.45-14.45s-6.48-14.45-14.45-14.45H15.95Z"/>
    <path class="cls-1" d="M17.92,15.14l-1.41.15c-.04-.14-.11-.28-.21-.4-.1-.13-.23-.23-.39-.3-.16-.08-.37-.11-.61-.11-.32,0-.59.07-.81.21-.22.14-.32.32-.32.54,0,.19.07.35.21.46.14.12.38.22.72.29l1.12.24c.62.13,1.08.35,1.38.63.3.29.46.67.46,1.14,0,.41-.12.78-.36,1.09-.24.31-.56.56-.98.73-.42.18-.9.26-1.45.26-.8,0-1.45-.17-1.93-.5-.49-.34-.78-.81-.87-1.41l1.5-.14c.07.29.21.52.43.67.22.15.51.23.86.23s.66-.07.88-.23c.22-.15.34-.34.34-.56,0-.19-.07-.34-.22-.46-.14-.12-.36-.22-.66-.28l-1.12-.24c-.63-.13-1.09-.35-1.39-.66-.3-.31-.45-.71-.45-1.18,0-.4.11-.75.33-1.05.22-.3.54-.53.93-.69.4-.16.86-.25,1.38-.25.77,0,1.37.16,1.81.49.44.33.72.77.82,1.33ZM22.23,20.08c-.66,0-1.22-.14-1.7-.41-.47-.28-.84-.66-1.1-1.17-.26-.51-.38-1.1-.38-1.78s.13-1.26.38-1.77c.26-.51.62-.91,1.08-1.19.46-.29,1.01-.43,1.63-.43.4,0,.78.07,1.14.2.36.13.68.33.95.6.28.27.5.61.66,1.03.16.42.24.91.24,1.48v.47h-5.37v-1.04h3.89c0-.29-.07-.56-.19-.79-.12-.23-.3-.42-.52-.55-.22-.13-.48-.2-.78-.2-.32,0-.59.08-.83.23-.24.15-.42.35-.56.6-.13.24-.2.51-.2.81v.91c0,.38.07.71.21.98.14.27.33.48.58.62.25.14.54.21.88.21.22,0,.43-.03.61-.09.18-.07.34-.16.47-.29.13-.12.23-.28.3-.46l1.44.16c-.09.38-.26.71-.52,1-.25.28-.58.5-.97.66-.39.15-.85.23-1.36.23ZM29.34,20.08c-.66,0-1.22-.14-1.7-.41-.47-.28-.84-.66-1.1-1.17-.26-.51-.38-1.1-.38-1.78s.13-1.26.38-1.77c.26-.51.62-.91,1.08-1.19.46-.29,1.01-.43,1.63-.43.4,0,.78.07,1.14.2.36.13.68.33.95.6.28.27.5.61.66,1.03.16.42.24.91.24,1.48v.47h-5.37v-1.04h3.89c0-.29-.07-.56-.19-.79-.12-.23-.3-.42-.52-.55-.22-.13-.48-.2-.78-.2-.32,0-.59.08-.83.23-.24.15-.42.35-.56.6-.13.24-.2.51-.2.81v.91c0,.38.07.71.21.98.14.27.33.48.58.62.25.14.54.21.88.21.22,0,.43-.03.61-.09.18-.07.34-.16.47-.29.13-.12.23-.28.3-.46l1.44.16c-.09.38-.26.71-.52,1-.25.28-.58.5-.97.66-.39.15-.85.23-1.36.23ZM38.07,16.12v3.84h-1.54v-8.73h1.51v3.29h.08c.15-.37.39-.66.71-.87.32-.22.74-.32,1.24-.32.46,0,.85.1,1.19.29.34.19.6.47.78.84.19.37.28.81.28,1.34v4.17h-1.54v-3.93c0-.44-.11-.78-.34-1.03-.22-.25-.54-.37-.95-.37-.27,0-.52.06-.73.18-.21.12-.38.29-.5.51-.12.22-.18.49-.18.81ZM46.75,20.08c-.64,0-1.19-.14-1.66-.42-.47-.28-.83-.67-1.09-1.18-.25-.51-.38-1.1-.38-1.77s.13-1.27.38-1.78c.26-.51.62-.9,1.09-1.18.47-.28,1.02-.42,1.66-.42s1.19.14,1.66.42.83.68,1.09,1.18c.26.51.39,1.1.39,1.78s-.13,1.27-.39,1.77c-.26.51-.62.9-1.09,1.18-.47.28-1.02.42-1.66.42ZM46.76,18.84c.35,0,.64-.1.87-.29.23-.19.41-.45.52-.78.12-.32.18-.68.18-1.08s-.06-.76-.18-1.09c-.11-.33-.29-.59-.52-.78-.23-.19-.52-.29-.87-.29s-.65.1-.89.29c-.23.19-.41.45-.52.78-.11.32-.17.69-.17,1.09s.06.76.17,1.08c.12.32.29.58.52.78.24.19.53.29.89.29ZM52.36,19.95l-1.85-6.54h1.57l1.15,4.6h.06l1.18-4.6h1.56l1.18,4.58h.06l1.13-4.58h1.58l-1.85,6.54h-1.61l-1.23-4.42h-.09l-1.23,4.42h-1.61ZM64.02,19.95v-6.54h1.47v1.11h.08c.14-.38.36-.67.68-.88.32-.21.69-.32,1.13-.32s.82.11,1.12.32c.31.21.52.5.65.87h.07c.14-.36.39-.65.73-.87.35-.22.76-.33,1.23-.33.6,0,1.09.19,1.47.57s.57.94.57,1.67v4.39h-1.55v-4.15c0-.41-.11-.7-.32-.89-.22-.19-.48-.29-.79-.29-.37,0-.66.12-.87.35-.21.23-.31.53-.31.9v4.08h-1.51v-4.22c0-.34-.1-.61-.31-.81-.2-.2-.47-.3-.79-.3-.22,0-.42.06-.6.17-.18.11-.33.27-.43.47-.11.2-.16.44-.16.71v3.98h-1.54ZM78.97,17.2v-3.79h1.54v6.54h-1.5v-1.16h-.07c-.15.37-.39.67-.73.9-.34.23-.75.35-1.24.35-.43,0-.81-.1-1.14-.29-.33-.19-.58-.47-.77-.84-.18-.37-.28-.82-.28-1.34v-4.17h1.54v3.93c0,.41.11.74.34.99.23.24.52.37.89.37.23,0,.45-.06.66-.17.21-.11.39-.28.52-.49.14-.22.21-.5.21-.83ZM84.95,20.08c-.65,0-1.21-.14-1.68-.43-.47-.29-.82-.68-1.08-1.19-.25-.51-.38-1.09-.38-1.76s.13-1.25.38-1.76c.26-.51.62-.91,1.08-1.19.47-.29,1.02-.43,1.66-.43.53,0,1,.1,1.41.29.41.19.74.47.99.82.24.35.38.76.42,1.24h-1.47c-.06-.32-.2-.58-.43-.79-.22-.21-.52-.32-.89-.32-.31,0-.59.09-.83.26-.24.17-.43.41-.56.72-.13.32-.2.69-.2,1.13s.07.83.2,1.15c.13.32.31.56.55.74.24.17.52.26.84.26.23,0,.43-.04.61-.13.18-.09.33-.21.46-.38.12-.16.21-.37.25-.6h1.47c-.04.46-.17.87-.41,1.23-.24.35-.56.63-.96.84-.41.2-.88.3-1.43.3ZM90.56,16.12v3.84h-1.54v-8.73h1.51v3.29h.08c.15-.37.39-.66.71-.87.32-.22.74-.32,1.24-.32.45,0,.85.1,1.19.29.34.19.6.47.78.84.19.37.28.81.28,1.34v4.17h-1.54v-3.93c0-.44-.11-.78-.34-1.03-.22-.25-.54-.37-.95-.37-.27,0-.52.06-.73.18-.21.12-.38.29-.5.51-.12.22-.18.49-.18.81ZM100.32,22.41c-.21,0-.4-.02-.58-.05-.18-.03-.32-.07-.42-.11l.36-1.2c.22.07.43.1.6.09.18,0,.33-.06.46-.17.14-.11.25-.28.35-.53l.13-.35-2.37-6.68h1.64l1.51,4.94h.07l1.51-4.94h1.64l-2.62,7.34c-.12.35-.28.64-.49.89-.2.25-.45.44-.74.57-.29.13-.64.2-1.04.2ZM108.9,20.08c-.64,0-1.19-.14-1.66-.42-.47-.28-.83-.67-1.09-1.18-.26-.51-.38-1.1-.38-1.77s.13-1.27.38-1.78c.26-.51.62-.9,1.09-1.18.47-.28,1.02-.42,1.66-.42s1.19.14,1.66.42c.47.28.83.68,1.09,1.18.26.51.39,1.1.39,1.78s-.13,1.27-.39,1.77c-.26.51-.62.9-1.09,1.18-.47.28-1.02.42-1.66.42ZM108.91,18.84c.35,0,.64-.1.87-.29.23-.19.41-.45.52-.78.12-.32.17-.68.17-1.08s-.06-.76-.17-1.09c-.11-.33-.29-.59-.52-.78-.23-.19-.52-.29-.87-.29s-.65.1-.89.29c-.23.19-.41.45-.52.78-.11.32-.17.69-.17,1.09s.06.76.17,1.08c.12.32.29.58.52.78.24.19.53.29.89.29ZM117.52,17.2v-3.79h1.54v6.54h-1.5v-1.16h-.07c-.15.37-.39.67-.73.9-.34.23-.75.35-1.24.35-.43,0-.81-.1-1.14-.29-.33-.19-.58-.47-.77-.84-.18-.37-.28-.82-.28-1.34v-4.17h1.54v3.93c0,.41.11.74.34.99.23.24.53.37.89.37.23,0,.45-.06.66-.17.21-.11.39-.28.52-.49.14-.22.21-.5.21-.83ZM122.13,11.22v.87c0,.25-.05.51-.15.78-.09.27-.22.52-.39.77-.16.24-.35.45-.56.62l-.72-.46c.16-.24.29-.49.41-.76.12-.28.17-.59.17-.93v-.88h1.23ZM124.93,11.22v8.73h-1.54v-8.73h1.54ZM128.06,11.22v8.73h-1.54v-8.73h1.54ZM137.8,15.14l-1.41.15c-.04-.14-.11-.28-.21-.4-.1-.13-.23-.23-.39-.3-.16-.08-.37-.11-.6-.11-.32,0-.59.07-.81.21-.22.14-.32.32-.32.54,0,.19.07.35.21.46.15.12.38.22.72.29l1.12.24c.62.13,1.08.35,1.38.63.3.29.46.67.46,1.14,0,.41-.12.78-.36,1.09-.24.31-.56.56-.98.73-.42.18-.9.26-1.45.26-.8,0-1.45-.17-1.93-.5-.49-.34-.78-.81-.87-1.41l1.5-.14c.07.29.21.52.43.67.22.15.51.23.87.23s.66-.07.88-.23c.22-.15.34-.34.34-.56,0-.19-.07-.34-.22-.46-.14-.12-.36-.22-.66-.28l-1.12-.24c-.63-.13-1.09-.35-1.39-.66-.3-.31-.45-.71-.45-1.18,0-.4.11-.75.33-1.05.22-.3.54-.53.93-.69.4-.16.86-.25,1.38-.25.77,0,1.37.16,1.81.49.44.33.72.77.82,1.33ZM141.1,20.08c-.42,0-.79-.07-1.12-.22-.33-.15-.59-.37-.78-.66-.19-.29-.29-.65-.29-1.08,0-.37.07-.67.2-.92.14-.24.32-.43.56-.58.24-.15.5-.26.8-.33.3-.08.61-.13.92-.17.38-.04.7-.07.93-.11.24-.03.41-.09.52-.15.11-.07.17-.18.17-.33v-.03c0-.32-.1-.57-.29-.75-.19-.18-.46-.26-.82-.26-.38,0-.68.08-.9.25-.22.17-.37.36-.44.58l-1.44-.21c.11-.4.3-.73.56-1,.26-.27.58-.47.96-.6.38-.14.79-.21,1.25-.21.32,0,.63.04.94.11.31.07.6.2.86.37.26.17.47.4.62.69.16.29.24.65.24,1.09v4.38h-1.48v-.9h-.05c-.09.18-.23.35-.4.51-.17.16-.38.28-.63.38-.25.09-.55.14-.89.14ZM141.5,18.95c.31,0,.58-.06.81-.18.23-.12.4-.29.52-.49.12-.21.19-.43.19-.67v-.77s-.13.08-.25.11c-.11.04-.24.06-.38.09-.14.03-.28.05-.42.07-.14.02-.26.04-.36.05-.23.03-.44.08-.62.15-.18.07-.32.17-.43.3-.1.12-.16.29-.16.49,0,.28.1.5.31.64.21.14.47.22.79.22ZM151.71,13.41l-2.33,6.54h-1.7l-2.33-6.54h1.65l1.5,4.86h.07l1.51-4.86h1.64ZM155.46,20.08c-.66,0-1.22-.14-1.7-.41-.47-.28-.84-.66-1.1-1.17-.26-.51-.38-1.1-.38-1.78s.13-1.26.38-1.77c.26-.51.62-.91,1.08-1.19.46-.29,1.01-.43,1.63-.43.4,0,.78.07,1.14.2.36.13.68.33.95.6.28.27.5.61.66,1.03.16.42.24.91.24,1.48v.47h-5.37v-1.04h3.89c0-.29-.07-.56-.19-.79-.12-.23-.3-.42-.52-.55-.22-.13-.48-.2-.78-.2-.32,0-.59.08-.83.23-.24.15-.43.35-.56.6-.13.24-.2.51-.2.81v.91c0,.38.07.71.21.98.14.27.33.48.58.62.25.14.54.21.88.21.22,0,.43-.03.61-.09.18-.07.34-.16.47-.29.13-.12.24-.28.3-.46l1.44.16c-.09.38-.26.71-.52,1-.25.28-.58.5-.97.66-.4.15-.85.23-1.35.23Z"/>
  </g>
</svg>