<?xml version="1.0" encoding="utf-8"?>
<!-- Generator: Adobe Illustrator 23.0.3, SVG Export Plug-In . SVG Version: 6.00 Build 0)  -->
<svg version="1.1" id="Layer_1" xmlns="http://www.w3.org/2000/svg" xmlns:xlink="http://www.w3.org/1999/xlink" x="0px" y="0px"
	 viewBox="0 0 120 600" style="enable-background:new 0 0 120 600;" xml:space="preserve">
<style type="text/css">
	.st0{fill:#BB8C54;}
	.st1{fill:#FFFFFF;}
</style>
<rect x="13" y="441" class="st0" width="94" height="70.5"/>
<g>
	<path class="st1" d="M31.8,463.9l-2.2-3.5h-0.2h-1.5v3.5h-1.6v-10h2.9c1.2,0,2,0.3,2.7,0.9c0.6,0.5,1.1,1.4,1.1,2.4
		c0,0.6-0.1,1.2-0.4,1.7c-0.2,0.5-0.6,1-1.3,1.3l2.5,4h-1.8V463.9z M27.8,458.8h1.5c0.6,0,1.1-0.2,1.4-0.5c0.3-0.3,0.4-0.7,0.4-1.2
		c0-0.2-0.1-0.5-0.2-0.7c-0.1-0.2-0.3-0.5-0.5-0.6c-0.3-0.2-0.6-0.3-1.1-0.3h-1.5V458.8z"/>
	<path class="st1" d="M38.5,455.1c-0.5,0-0.9,0.1-1.2,0.3c-0.3,0.2-0.4,0.5-0.4,1c0,0.4,0.2,0.7,0.5,1c0.3,0.2,0.9,0.5,1.5,0.7
		c0.5,0.2,1,0.4,1.3,0.6c0.3,0.2,0.6,0.5,0.9,1s0.3,0.9,0.3,1.5c0,0.5-0.1,1.1-0.4,1.5s-0.6,0.7-1.2,1.1c-0.5,0.3-1.1,0.4-1.8,0.4
		c-0.6,0-1.2-0.1-1.8-0.3c-0.6-0.2-1.1-0.4-1.6-0.7l0.7-1.3c0.3,0.2,0.7,0.4,1.2,0.6c0.4,0.2,0.9,0.2,1.3,0.2c0.5,0,1-0.1,1.3-0.3
		c0.3-0.2,0.5-0.6,0.5-1.1c0-0.4-0.1-0.7-0.4-1c-0.3-0.2-0.7-0.5-1.3-0.7c-0.5-0.2-1.1-0.4-1.4-0.6c-0.3-0.2-0.7-0.5-1-0.9
		c-0.3-0.4-0.4-0.9-0.4-1.4c0-0.9,0.3-1.5,0.9-2s1.3-0.7,2.2-0.9c0.6,0,1.3,0.1,1.7,0.2c0.5,0.1,1,0.3,1.4,0.6l-0.6,1.3
		C39.9,455.4,39.2,455.1,38.5,455.1z"/>
	<path class="st1" d="M51.8,453.8l-4.5,10.6l-4.5-10.6h1.9l2.7,6.6l2.6-6.6H51.8z"/>
	<path class="st1" d="M59.3,454.7c0.6,0.5,1,1.4,1,2.4c0,0.5-0.1,1.2-0.3,1.6c-0.2,0.5-0.6,1-1.1,1.3c-0.5,0.3-1.2,0.4-2,0.4h-1.5
		v3.5h-1.6v-10h2.9C57.6,453.8,58.6,454,59.3,454.7z M57.9,458.5c0.3-0.2,0.4-0.4,0.5-0.6c0.1-0.3,0.2-0.5,0.2-0.7
		c0-0.4-0.1-0.9-0.4-1.2c-0.3-0.3-0.7-0.5-1.4-0.5h-1.5v3.5h1.5C57.2,458.8,57.5,458.7,57.9,458.5z"/>
	<path class="st1" d="M72.7,453.8v1.6h-4.5v2.9h4v1.5h-4v4.2h-1.6v-10.1H72.7z"/>
	<path class="st1" d="M74.8,456.3c0.4-0.7,1.1-1.4,1.9-1.9c0.7-0.4,1.6-0.7,2.6-0.7s1.8,0.2,2.6,0.7c0.7,0.4,1.4,1.1,1.9,1.9
		c0.4,0.7,0.7,1.6,0.7,2.6s-0.2,1.8-0.7,2.6c-0.4,0.7-1.1,1.4-1.9,1.9c-0.7,0.4-1.7,0.6-2.6,0.6c-1,0-1.8-0.2-2.6-0.6
		c-0.7-0.4-1.4-1.1-1.9-1.8c-0.4-0.7-0.7-1.6-0.7-2.6C74.1,457.9,74.3,457,74.8,456.3z M76.2,460.7c0.3,0.5,0.7,1,1.3,1.3
		c0.5,0.3,1.2,0.5,1.8,0.5c0.6,0,1.2-0.1,1.7-0.4c0.5-0.3,1-0.7,1.3-1.3s0.4-1.2,0.4-1.8c0-0.6-0.1-1.3-0.4-1.8
		c-0.3-0.5-0.7-1-1.3-1.3c-0.5-0.3-1.2-0.5-1.8-0.5c-0.6,0-1.3,0.2-1.8,0.5c-0.5,0.3-1,0.7-1.3,1.3s-0.4,1.2-0.4,1.8
		C75.8,459.5,75.9,460.1,76.2,460.7z"/>
	<path class="st1" d="M92.2,463.9l-2.2-3.5h-0.2h-1.5v3.5h-1.6v-10h2.9c1.2,0,2,0.3,2.7,0.9s1.1,1.4,1.1,2.4c0,0.6-0.1,1.2-0.4,1.7
		c-0.2,0.5-0.6,1-1.3,1.3l2.5,4h-1.8V463.9z M88.2,458.8h1.5c0.6,0,1.1-0.2,1.4-0.5c0.3-0.3,0.4-0.7,0.4-1.2c0-0.2-0.1-0.5-0.2-0.7
		c-0.1-0.2-0.3-0.5-0.5-0.6c-0.3-0.2-0.6-0.3-1.1-0.3h-1.5V458.8z"/>
	<path class="st1" d="M19.7,472h2.9c1.3,0,2.4,0.2,3.1,0.7c0.9,0.5,1.4,1.2,1.8,1.9c0.4,0.7,0.5,1.6,0.5,2.6s-0.2,1.8-0.6,2.6
		c-0.4,0.7-1.1,1.3-1.8,1.7c-0.7,0.4-1.6,0.6-2.6,0.6h-3.3L19.7,472L19.7,472z M22.7,480.5c0.7,0,1.4-0.1,1.9-0.4s1-0.6,1.3-1.2
		c0.3-0.5,0.4-1.2,0.4-1.9c0-0.7-0.2-1.5-0.5-2s-0.7-1-1.3-1.2c-0.5-0.2-1.1-0.4-1.6-0.4h-1.7v7.2H22.7z"/>
	<path class="st1" d="M31.9,472v10.1h-1.6V472H31.9z"/>
	<path class="st1" d="M37.7,473.3c-0.5,0-0.9,0.1-1.2,0.3c-0.3,0.2-0.4,0.5-0.4,1c0,0.4,0.2,0.7,0.5,1c0.3,0.2,0.9,0.5,1.5,0.7
		c0.5,0.2,1,0.4,1.3,0.6c0.3,0.2,0.6,0.5,0.9,1s0.3,0.9,0.3,1.5c0,0.5-0.1,1.1-0.4,1.5c-0.3,0.4-0.6,0.7-1.2,1.1
		c-0.5,0.2-1.1,0.4-1.8,0.4c-0.6,0-1.2-0.1-1.8-0.3c-0.6-0.2-1.1-0.4-1.6-0.7l0.7-1.3c0.3,0.2,0.7,0.4,1.2,0.6
		c0.4,0.2,0.9,0.2,1.3,0.2c0.5,0,1-0.1,1.3-0.3s0.5-0.6,0.5-1.1s-0.1-0.7-0.4-1c-0.3-0.2-0.7-0.5-1.3-0.7c-0.5-0.2-1.1-0.4-1.4-0.6
		c-0.4-0.2-0.7-0.5-1-0.9c-0.3-0.4-0.4-0.9-0.4-1.4c0-0.9,0.3-1.5,0.9-2c0.5-0.5,1.3-0.7,2.2-0.9c0.6,0,1.3,0.1,1.7,0.2
		c0.5,0.1,1,0.3,1.4,0.6l-0.6,1.3C39.1,473.6,38.3,473.3,37.7,473.3z"/>
	<path class="st1" d="M49,481.9c-0.5,0.2-1.1,0.3-1.7,0.3c-1.1,0-1.9-0.2-2.8-0.6c-0.7-0.4-1.4-1.1-1.8-1.8
		c-0.4-0.7-0.6-1.6-0.6-2.6s0.2-1.9,0.6-2.7c0.4-0.7,1-1.4,1.8-1.8c0.7-0.4,1.6-0.6,2.6-0.6c0.6,0,1.2,0.1,1.6,0.2s1,0.3,1.4,0.6
		l-0.6,1.5c-0.7-0.5-1.5-0.7-2.2-0.7c-0.6,0-1.2,0.1-1.7,0.4c-0.5,0.3-1,0.7-1.3,1.3s-0.4,1.2-0.4,1.8c0,0.7,0.1,1.3,0.4,1.8
		c0.3,0.5,0.6,1,1.2,1.3c0.5,0.3,1.2,0.4,1.8,0.4c0.5,0,1-0.1,1.3-0.2c0.4-0.1,0.7-0.3,1-0.5l0.6,1.5C50,481.5,49.5,481.7,49,481.9z
		"/>
	<path class="st1" d="M52.4,474.4c0.4-0.7,1.1-1.4,1.9-1.9c0.7-0.4,1.6-0.7,2.6-0.7c1,0,1.8,0.2,2.6,0.7c0.7,0.4,1.4,1.1,1.9,1.9
		c0.5,0.9,0.7,1.6,0.7,2.6s-0.2,1.8-0.7,2.6c-0.5,0.7-1.1,1.4-1.9,1.9c-0.9,0.5-1.7,0.6-2.6,0.6c-1,0-1.8-0.2-2.6-0.6
		s-1.4-1.1-1.9-1.8c-0.4-0.7-0.7-1.6-0.7-2.6C51.8,476,52,475.2,52.4,474.4z M53.9,478.8c0.3,0.5,0.7,1,1.3,1.3
		c0.5,0.3,1.2,0.5,1.8,0.5c0.6,0,1.2-0.2,1.7-0.4c0.5-0.2,1-0.7,1.3-1.3c0.3-0.5,0.4-1.2,0.4-1.8c0-0.6-0.1-1.3-0.4-1.8
		c-0.3-0.5-0.7-1-1.3-1.3c-0.5-0.3-1.2-0.5-1.8-0.5c-0.6,0-1.3,0.2-1.8,0.5c-0.5,0.3-1,0.7-1.3,1.3s-0.4,1.2-0.4,1.8
		C53.4,477.7,53.6,478.3,53.9,478.8z"/>
	<path class="st1" d="M66,479.5c0.2,0.3,0.5,0.6,0.9,0.7s0.7,0.3,1.2,0.3c0.4,0,0.9-0.1,1.2-0.3c0.3-0.2,0.6-0.4,0.9-0.7
		c0.2-0.3,0.3-0.7,0.3-1.1V472H72v6.5c0,0.7-0.2,1.4-0.5,1.9c-0.3,0.5-0.9,1-1.4,1.3c-0.6,0.3-1.3,0.4-2,0.4c-0.7,0-1.4-0.1-2-0.4
		c-0.6-0.3-1.1-0.7-1.4-1.3c-0.3-0.5-0.5-1.2-0.5-1.9V472h1.6v6.4C65.8,478.8,65.8,479.1,66,479.5z"/>
	<path class="st1" d="M83.5,472v10.5l0,0l-7.3-7.1v6.7h-1.6v-10.5h0.1l7.3,7.2V472H83.5z"/>
	<path class="st1" d="M92.3,472v1.6h-2.6v8.5h-1.6v-8.5h-2.6V472H92.3z"/>
	<path class="st1" d="M97.4,473.3c-0.5,0-0.9,0.1-1.2,0.3c-0.3,0.2-0.4,0.5-0.4,1c0,0.4,0.2,0.7,0.5,1c0.3,0.2,0.9,0.5,1.5,0.7
		c0.5,0.2,1,0.4,1.3,0.6c0.3,0.2,0.6,0.5,0.9,1c0.2,0.4,0.3,0.9,0.3,1.5c0,0.5-0.1,1.1-0.4,1.5c-0.3,0.4-0.6,0.7-1.2,1.1
		c-0.5,0.2-1.1,0.4-1.8,0.4c-0.6,0-1.2-0.1-1.8-0.3c-0.6-0.2-1.1-0.4-1.6-0.7l0.7-1.3c0.3,0.2,0.7,0.4,1.2,0.6
		c0.4,0.2,0.9,0.2,1.3,0.2c0.5,0,1-0.1,1.3-0.3s0.5-0.6,0.5-1.1s-0.1-0.7-0.4-1c-0.3-0.2-0.7-0.5-1.3-0.7c-0.5-0.2-1.1-0.4-1.4-0.6
		c-0.4-0.2-0.7-0.5-1-0.9c-0.3-0.4-0.4-0.9-0.4-1.4c0-0.9,0.3-1.5,0.9-2c0.5-0.5,1.3-0.7,2.2-0.9c0.6,0,1.3,0.1,1.7,0.2
		c0.5,0.1,1,0.3,1.4,0.6l-0.6,1.3C98.8,473.6,98,473.3,97.4,473.3z"/>
</g>
<g>
	<path class="st1" d="M55.7,501.8l4.3-5.6H45.5v-1.6H60l-4.3-5.6l0.7-0.7l9.2,6.2H68l-4.3-5.6l0.7-0.7l10.5,6.9v0.2l-10.5,6.9
		l-0.7-0.7L68,496h-2.4l-9.2,6.2L55.7,501.8z"/>
</g>
</svg>
