<?xml version="1.0" encoding="utf-8"?>
<!-- Generator: Adobe Illustrator 23.0.3, SVG Export Plug-In . SVG Version: 6.00 Build 0)  -->
<svg version="1.1" id="Layer_1" xmlns="http://www.w3.org/2000/svg" xmlns:xlink="http://www.w3.org/1999/xlink" x="0px" y="0px"
	 viewBox="0 0 120 600" style="enable-background:new 0 0 120 600;" xml:space="preserve">
<style type="text/css">
	.st0{fill:#768961;}
</style>
<g>
	<path class="st0" d="M42.6,359.4v1.6H38v2.9h4v1.6h-4v4.2h-1.6v-10.2H42.6z"/>
	<path class="st0" d="M44.6,361.9c0.5-0.8,1.1-1.4,1.9-1.9c0.8-0.5,1.7-0.7,2.6-0.7c0.9,0,1.8,0.2,2.6,0.7c0.8,0.5,1.4,1.1,1.9,1.9
		s0.7,1.7,0.7,2.6c0,0.9-0.2,1.8-0.7,2.6c-0.5,0.8-1.1,1.4-1.9,1.9s-1.7,0.7-2.6,0.7c-0.9,0-1.8-0.2-2.6-0.7
		c-0.8-0.5-1.4-1.1-1.9-1.9c-0.5-0.8-0.7-1.7-0.7-2.6C43.9,363.6,44.2,362.7,44.6,361.9z M46.1,366.4c0.3,0.6,0.7,1,1.3,1.3
		c0.5,0.3,1.1,0.5,1.8,0.5c0.6,0,1.2-0.2,1.8-0.5c0.5-0.3,1-0.8,1.3-1.3c0.3-0.6,0.5-1.2,0.5-1.8c0-0.7-0.2-1.3-0.5-1.8
		s-0.7-1-1.3-1.3c-0.5-0.3-1.1-0.5-1.8-0.5c-0.7,0-1.2,0.2-1.8,0.5c-0.5,0.3-1,0.8-1.3,1.3c-0.3,0.6-0.5,1.2-0.5,1.8
		C45.6,365.2,45.8,365.8,46.1,366.4z"/>
	<path class="st0" d="M62.1,369.6l-2.3-3.5h-0.2h-1.5v3.5h-1.6v-10.2h2.9c1.1,0,2.1,0.3,2.7,0.9c0.7,0.6,1,1.4,1,2.4
		c0,0.6-0.1,1.2-0.4,1.7c-0.3,0.5-0.7,0.9-1.3,1.2l2.5,3.9H62.1z M58.2,364.5h1.5c0.7,0,1.1-0.2,1.4-0.5c0.3-0.4,0.4-0.8,0.4-1.2
		c0-0.3-0.1-0.5-0.2-0.8c-0.1-0.3-0.3-0.5-0.6-0.7c-0.3-0.2-0.6-0.3-1.1-0.3h-1.5V364.5z"/>
	<path class="st0" d="M71.1,367.2h-3.7l-1,2.4h-1.6l4.5-10.6h0.1l4.5,10.6h-1.9L71.1,367.2z M70.6,365.8l-1.3-3.2l-1.3,3.2H70.6z"/>
	<path class="st0" d="M78.7,360.8c-0.5,0-0.9,0.1-1.2,0.3c-0.3,0.2-0.4,0.5-0.4,0.9c0,0.4,0.2,0.7,0.6,1c0.4,0.3,0.9,0.5,1.5,0.8
		c0.5,0.2,0.9,0.4,1.3,0.6s0.7,0.5,0.9,0.9c0.2,0.4,0.4,0.9,0.4,1.5c0,0.5-0.1,1-0.4,1.5s-0.7,0.8-1.2,1c-0.5,0.3-1.1,0.4-1.8,0.4
		c-0.6,0-1.2-0.1-1.8-0.3c-0.6-0.2-1.1-0.5-1.6-0.8l0.7-1.3c0.3,0.3,0.8,0.5,1.2,0.7c0.5,0.2,0.9,0.3,1.3,0.3c0.5,0,0.9-0.1,1.3-0.4
		c0.4-0.2,0.6-0.6,0.6-1.1c0-0.4-0.2-0.7-0.5-1c-0.3-0.3-0.7-0.5-1.3-0.7c-0.6-0.2-1.1-0.4-1.4-0.6c-0.4-0.2-0.7-0.5-1-0.9
		s-0.4-0.9-0.4-1.4c0-0.8,0.3-1.5,0.8-2c0.6-0.5,1.3-0.8,2.2-0.8c0.7,0,1.3,0.1,1.8,0.2c0.5,0.2,1,0.4,1.4,0.7l-0.6,1.2
		C80.2,361,79.4,360.8,78.7,360.8z"/>
	<path class="st0" d="M83.7,371.3h-1.3l0.4-1c0.4-1.1,0.7-1.8,0.7-2h1.4L83.7,371.3z"/>
	<path class="st0" d="M17.4,381.8c-0.5,0-0.9,0.1-1.2,0.3c-0.3,0.2-0.4,0.5-0.4,0.9c0,0.4,0.2,0.7,0.6,1c0.4,0.3,0.9,0.5,1.5,0.8
		c0.5,0.2,0.9,0.4,1.3,0.6s0.7,0.5,0.9,0.9c0.2,0.4,0.3,0.9,0.3,1.5c0,0.5-0.1,1-0.4,1.5c-0.3,0.4-0.7,0.8-1.2,1
		c-0.5,0.3-1.1,0.4-1.8,0.4c-0.6,0-1.2-0.1-1.8-0.3c-0.6-0.2-1.1-0.5-1.6-0.8l0.7-1.3c0.3,0.3,0.8,0.5,1.2,0.7s0.9,0.3,1.3,0.3
		c0.5,0,0.9-0.1,1.3-0.4c0.4-0.2,0.6-0.6,0.6-1.1c0-0.4-0.2-0.7-0.5-1c-0.3-0.3-0.7-0.5-1.3-0.7c-0.6-0.2-1.1-0.4-1.4-0.6
		c-0.4-0.2-0.7-0.5-1-0.9s-0.4-0.9-0.4-1.4c0-0.8,0.3-1.5,0.8-2c0.6-0.5,1.3-0.8,2.2-0.8c0.7,0,1.3,0.1,1.8,0.2
		c0.5,0.2,1,0.4,1.4,0.7l-0.6,1.2C18.8,382,18.1,381.8,17.4,381.8z"/>
	<path class="st0" d="M28.6,380.4v1.6h-2.6v8.6h-1.6V382h-2.6v-1.6H28.6z"/>
	<path class="st0" d="M30.3,382.9c0.5-0.8,1.1-1.4,1.9-1.9c0.8-0.5,1.7-0.7,2.6-0.7c0.9,0,1.8,0.2,2.6,0.7c0.8,0.5,1.4,1.1,1.9,1.9
		s0.7,1.7,0.7,2.6c0,0.9-0.2,1.8-0.7,2.6c-0.5,0.8-1.1,1.4-1.9,1.9s-1.7,0.7-2.6,0.7c-0.9,0-1.8-0.2-2.6-0.7
		c-0.8-0.5-1.4-1.1-1.9-1.9c-0.5-0.8-0.7-1.7-0.7-2.6C29.6,384.6,29.8,383.7,30.3,382.9z M31.8,387.4c0.3,0.6,0.7,1,1.3,1.3
		c0.5,0.3,1.1,0.5,1.8,0.5c0.6,0,1.2-0.2,1.8-0.5c0.5-0.3,1-0.8,1.3-1.3c0.3-0.6,0.5-1.2,0.5-1.8c0-0.7-0.2-1.3-0.5-1.8
		s-0.7-1-1.3-1.3c-0.5-0.3-1.1-0.5-1.8-0.5c-0.7,0-1.2,0.2-1.8,0.5c-0.5,0.3-1,0.8-1.3,1.3c-0.3,0.6-0.5,1.2-0.5,1.8
		C31.3,386.2,31.4,386.8,31.8,387.4z"/>
	<path class="st0" d="M49.7,391.1l-2.4-6.1l-2.7,6.1l-4.1-10.6h1.9l2.4,6.8l1.7-4.3l-1-2.5h1.6l2.6,6.6l2.2-6.6h1.8L49.7,391.1z"/>
	<path class="st0" d="M61.8,386.3c0.3,0.4,0.5,0.9,0.5,1.4c0,1-0.3,1.7-1,2.2c-0.7,0.5-1.5,0.7-2.5,0.7h-3.2v-10.2h2.8
		c1.1,0,1.9,0.2,2.5,0.7s0.9,1.1,0.9,1.9c0,0.5-0.1,1-0.3,1.4c-0.2,0.4-0.6,0.7-1,0.9C61,385.5,61.5,385.8,61.8,386.3z M57.3,384.8
		h1.4c0.5,0,0.8-0.1,1.1-0.4c0.2-0.3,0.4-0.6,0.4-1c0-0.4-0.1-0.8-0.4-1S59,382,58.5,382h-1.2V384.8z M60.1,388.7
		c0.3-0.2,0.5-0.6,0.5-1c0-0.5-0.2-0.8-0.6-1c-0.4-0.2-0.8-0.3-1.4-0.3h-1.4v2.8h1.5C59.3,389.1,59.7,389,60.1,388.7z"/>
	<path class="st0" d="M70,390.6l-2.3-3.5h-0.2h-1.5v3.5h-1.6v-10.2h2.9c1.1,0,2.1,0.3,2.7,0.9c0.7,0.6,1,1.4,1,2.4
		c0,0.6-0.1,1.2-0.4,1.7c-0.3,0.5-0.7,0.9-1.3,1.2l2.5,3.9H70z M66.1,385.5h1.5c0.7,0,1.1-0.2,1.4-0.5c0.3-0.4,0.4-0.8,0.4-1.2
		c0-0.3-0.1-0.5-0.2-0.8c-0.1-0.3-0.3-0.5-0.6-0.7c-0.3-0.2-0.6-0.3-1.1-0.3h-1.5V385.5z"/>
	<path class="st0" d="M75.5,380.4v10.2h-1.6v-10.2H75.5z"/>
	<path class="st0" d="M78.3,380.4h2.9c1.3,0,2.3,0.3,3.2,0.8c0.8,0.5,1.4,1.2,1.8,1.9c0.4,0.8,0.6,1.6,0.6,2.5c0,1-0.2,1.9-0.7,2.6
		s-1.1,1.3-1.9,1.7c-0.8,0.4-1.6,0.6-2.5,0.6h-3.4V380.4z M81.4,389c0.7,0,1.4-0.1,1.9-0.4s1-0.7,1.3-1.2s0.5-1.2,0.5-1.9
		c0-0.8-0.2-1.5-0.5-2c-0.3-0.5-0.8-0.9-1.3-1.2s-1.1-0.4-1.6-0.4h-1.7v7.1H81.4z"/>
	<path class="st0" d="M95.6,390.4c-0.7,0.2-1.3,0.3-1.9,0.3c-1.1,0-2-0.2-2.8-0.6c-0.8-0.4-1.4-1-1.9-1.8s-0.7-1.6-0.7-2.6
		c0-1.1,0.2-2.1,0.7-3c0.5-0.8,1.1-1.4,1.9-1.9s1.7-0.6,2.6-0.6c0.6,0,1.1,0.1,1.7,0.2c0.5,0.1,1,0.3,1.4,0.5l-0.5,1.5
		c-0.3-0.2-0.7-0.3-1.1-0.4c-0.5-0.1-0.9-0.2-1.2-0.2c-1.2,0-2.1,0.3-2.8,1c-0.7,0.6-1,1.5-1,2.7c0,0.7,0.2,1.3,0.5,1.8
		s0.8,0.9,1.3,1.2c0.6,0.3,1.2,0.4,1.9,0.4c0.3,0,0.6,0,0.9-0.1c0.3-0.1,0.5-0.1,0.8-0.3v-1.7h-1.9v-1.6H97v4.2
		C96.7,389.9,96.2,390.2,95.6,390.4z"/>
	<path class="st0" d="M106.3,380.4v1.6h-5.1v2.7h4.6v1.6h-4.6v2.8h5.3v1.6h-7v-10.2H106.3z"/>
</g>
</svg>
