<?xml version="1.0" encoding="utf-8"?>
<!-- Generator: Adobe Illustrator 23.0.3, SVG Export Plug-In . SVG Version: 6.00 Build 0)  -->
<svg version="1.1" id="Layer_1" xmlns="http://www.w3.org/2000/svg" xmlns:xlink="http://www.w3.org/1999/xlink" x="0px" y="0px"
	 viewBox="0 0 120 600" style="enable-background:new 0 0 120 600;" xml:space="preserve">
<style type="text/css">
	.st0{fill:#BB8C54;}
</style>
<g>
	<path class="st0" d="M37.7,175.3h-4.9c-0.4,0.1-0.8,0.1-1.2,0.1c-1,0-1.9-0.2-2.8-0.7s-1.5-1.2-2-2c-0.5-0.8-0.8-1.8-0.8-2.8
		c0-1,0.2-1.9,0.8-2.8c0.5-0.9,1.2-1.5,2-2c0.9-0.5,1.8-0.8,2.8-0.8c1,0,1.9,0.3,2.8,0.8c0.9,0.5,1.5,1.2,2,2.1
		c0.5,0.9,0.8,1.8,0.8,2.8c0,0.7-0.1,1.4-0.4,2c-0.3,0.6-0.6,1.2-1.1,1.7h2V175.3z M28.3,171.8c0.3,0.6,0.8,1.1,1.4,1.4
		c0.6,0.3,1.2,0.5,1.9,0.5c0.7,0,1.3-0.2,1.9-0.5c0.6-0.3,1-0.8,1.4-1.4c0.3-0.6,0.5-1.2,0.5-1.9c0-0.7-0.2-1.3-0.5-1.9
		s-0.8-1.1-1.4-1.4c-0.6-0.4-1.2-0.5-1.9-0.5c-0.7,0-1.3,0.2-1.9,0.5c-0.6,0.4-1,0.8-1.4,1.4s-0.5,1.2-0.5,1.9
		C27.8,170.5,28,171.2,28.3,171.8z"/>
	<path class="st0" d="M42,172.5c0.2,0.4,0.5,0.6,0.9,0.9c0.4,0.2,0.8,0.3,1.2,0.3c0.5,0,0.9-0.1,1.3-0.3c0.4-0.2,0.7-0.5,0.9-0.9
		c0.2-0.4,0.3-0.8,0.3-1.2v-7h1.7v7c0,0.8-0.2,1.5-0.6,2.1c-0.4,0.6-0.9,1.1-1.5,1.4c-0.6,0.3-1.4,0.5-2.1,0.5
		c-0.8,0-1.5-0.2-2.1-0.5c-0.6-0.3-1.2-0.8-1.5-1.4c-0.4-0.6-0.6-1.3-0.6-2.1v-7h1.7v7C41.6,171.8,41.7,172.2,42,172.5z"/>
	<path class="st0" d="M58.4,164.4v1.7h-5.5v2.9h4.9v1.7h-4.9v3h5.7v1.7h-7.5v-10.9H58.4z"/>
	<path class="st0" d="M68.3,164.4v1.7h-5.5v2.9h4.9v1.7h-4.9v3h5.7v1.7H61v-10.9H68.3z"/>
	<path class="st0" d="M80.5,164.4v11.3h0l-7.9-7.6l0,7.2h-1.8V164H71l7.8,7.7l0-7.4H80.5z"/>
	<path class="st0" d="M82.5,166.5c0.2-0.2,0.3-0.4,0.5-0.7s0.2-0.6,0.2-0.9c0-0.1,0-0.2,0-0.3l1.3-0.1c0,0.1,0,0.2,0,0.3
		c0,0.4-0.1,0.8-0.3,1.2c-0.2,0.4-0.5,0.7-0.8,0.9L82.5,166.5z"/>
	<path class="st0" d="M89.6,165.9c-0.5,0-1,0.1-1.3,0.4c-0.3,0.2-0.5,0.6-0.5,1c0,0.4,0.2,0.8,0.6,1c0.4,0.3,0.9,0.5,1.7,0.8
		c0.5,0.2,1,0.4,1.4,0.7s0.7,0.6,1,1s0.4,1,0.4,1.6c0,0.6-0.1,1.1-0.4,1.6c-0.3,0.5-0.7,0.8-1.3,1.1c-0.6,0.3-1.2,0.4-2,0.4
		c-0.7,0-1.3-0.1-2-0.3s-1.2-0.5-1.7-0.8l0.8-1.4c0.4,0.3,0.8,0.5,1.3,0.7c0.5,0.2,1,0.3,1.4,0.3c0.5,0,1-0.1,1.4-0.4
		c0.4-0.3,0.6-0.6,0.6-1.2c0-0.4-0.2-0.8-0.5-1.1c-0.3-0.3-0.8-0.5-1.4-0.8c-0.6-0.2-1.1-0.5-1.5-0.7s-0.8-0.5-1.1-0.9
		c-0.3-0.4-0.4-0.9-0.4-1.5c0-0.9,0.3-1.6,0.9-2.2c0.6-0.5,1.4-0.8,2.4-0.9c0.7,0,1.4,0.1,1.9,0.2s1.1,0.4,1.5,0.7l-0.7,1.3
		C91.2,166.1,90.4,165.9,89.6,165.9z"/>
	<path class="st0" d="M30,191.6c0.3,0.4,0.5,1,0.5,1.5c0,1.1-0.4,1.8-1.1,2.4c-0.7,0.5-1.6,0.8-2.6,0.8h-3.4v-10.9h3
		c1.1,0,2,0.2,2.7,0.7c0.6,0.5,0.9,1.1,0.9,2c0,0.6-0.1,1.1-0.4,1.5s-0.6,0.7-1,1C29.2,190.8,29.6,191.2,30,191.6z M25.1,190h1.5
		c0.5,0,0.9-0.1,1.1-0.4c0.3-0.3,0.4-0.7,0.4-1.1c0-0.5-0.2-0.8-0.5-1.1c-0.3-0.2-0.7-0.4-1.3-0.4h-1.3V190z M28.1,194.3
		c0.4-0.3,0.6-0.6,0.6-1.1c0-0.5-0.2-0.9-0.6-1.1c-0.4-0.2-0.9-0.3-1.5-0.3h-1.5v3h1.6C27.3,194.7,27.8,194.5,28.1,194.3z"/>
	<path class="st0" d="M34.6,185.4v10.9h-1.8v-10.9H34.6z"/>
	<path class="st0" d="M43.6,196.3l-2.5-3.8h-0.2h-1.6v3.8h-1.8v-10.9h3.1c1.2,0,2.2,0.3,2.9,0.9c0.7,0.6,1.1,1.5,1.1,2.6
		c0,0.7-0.1,1.3-0.4,1.9c-0.3,0.6-0.7,1-1.3,1.3l2.7,4.2H43.6z M39.3,190.8h1.6c0.7,0,1.2-0.2,1.5-0.6c0.3-0.4,0.5-0.8,0.5-1.3
		c0-0.3-0.1-0.6-0.2-0.8c-0.1-0.3-0.3-0.5-0.6-0.7c-0.3-0.2-0.7-0.3-1.1-0.3h-1.6V190.8z"/>
	<path class="st0" d="M54,185.4v1.7h-2.8v9.2h-1.7v-9.2h-2.7v-1.7H54z"/>
	<path class="st0" d="M65.1,196.3h-1.8v-4.6H58v4.6h-1.8v-10.9H58v4.6h5.4v-4.6h1.8V196.3z"/>
	<path class="st0" d="M68.1,185.4h3.1c1.4,0,2.5,0.3,3.4,0.8s1.5,1.2,2,2.1s0.6,1.8,0.6,2.7c0,1.1-0.2,2-0.7,2.8
		c-0.5,0.8-1.2,1.4-2,1.9c-0.8,0.4-1.7,0.7-2.7,0.7h-3.6V185.4z M71.4,194.6c0.8,0,1.5-0.1,2.1-0.4c0.6-0.3,1.1-0.7,1.4-1.3
		s0.5-1.2,0.5-2c0-0.9-0.2-1.6-0.5-2.2c-0.4-0.6-0.8-1-1.4-1.3s-1.1-0.4-1.7-0.4h-1.8v7.6H71.4z"/>
	<path class="st0" d="M84.5,193.7h-4l-1.1,2.6h-1.7l4.8-11.4h0.1l4.8,11.4h-2L84.5,193.7z M83.9,192.2l-1.4-3.5l-1.4,3.5H83.9z"/>
	<path class="st0" d="M96.6,185.4l-4.1,7.4v3.5h-1.7v-3.5l-4-7.4h2.1l2.8,5.4l2.8-5.4H96.6z"/>
</g>
</svg>
