<?xml version="1.0" encoding="utf-8"?>
<!-- Generator: Adobe Illustrator 23.0.3, SVG Export Plug-In . SVG Version: 6.00 Build 0)  -->
<svg version="1.1" id="Layer_1" xmlns="http://www.w3.org/2000/svg" xmlns:xlink="http://www.w3.org/1999/xlink" x="0px" y="0px"
	 viewBox="0 0 120 600" style="enable-background:new 0 0 120 600;" xml:space="preserve">
<style type="text/css">
	.st0{fill:#768961;}
</style>
<g>
	<path class="st0" d="M24.5,225v9.9h5.7v1.8h-7.6V225H24.5z"/>
	<path class="st0" d="M32.6,226.8c0.2-0.2,0.5-0.3,0.7-0.3c0.3,0,0.5,0.1,0.7,0.3s0.3,0.4,0.3,0.7s-0.1,0.5-0.3,0.7
		c-0.2,0.2-0.4,0.3-0.7,0.3c-0.3,0-0.5-0.1-0.7-0.3c-0.2-0.2-0.3-0.4-0.3-0.7S32.4,227,32.6,226.8z M34.2,229.9v6.8h-1.8v-6.8H34.2z
		"/>
	<path class="st0" d="M43.3,229.9l-3.7,6.9h-0.1l-3.9-6.9h2.1l1.9,3.9l1.7-3.9H43.3z"/>
	<path class="st0" d="M49.4,234.8l0.8,1.3c-0.4,0.2-0.8,0.4-1.2,0.5s-0.8,0.2-1.2,0.2c-0.8,0-1.5-0.2-2-0.5c-0.6-0.3-1-0.7-1.3-1.3
		c-0.3-0.5-0.5-1.2-0.5-1.9c0-0.7,0.2-1.3,0.5-1.8c0.3-0.6,0.8-1,1.4-1.3c0.6-0.3,1.2-0.5,1.9-0.5c0.9,0,1.7,0.3,2.3,0.8
		c0.6,0.5,1,1.3,1.2,2.3l-5.2,1.8c0.2,0.3,0.4,0.5,0.7,0.6s0.6,0.2,1,0.2C48.3,235.3,48.9,235.1,49.4,234.8z M46.3,231.6
		c-0.4,0.4-0.5,0.9-0.5,1.5c0,0.1,0,0.2,0,0.3l3.6-1.3c-0.1-0.3-0.3-0.6-0.6-0.8c-0.3-0.2-0.6-0.3-1-0.3
		C47.1,231,46.7,231.2,46.3,231.6z"/>
	<path class="st0" d="M68.6,230.1c0.4,0.4,0.6,0.9,0.6,1.5v5h-1.8v-4.4c0-0.4-0.1-0.6-0.2-0.8s-0.4-0.3-0.7-0.3
		c-0.6,0-1,0.2-1.3,0.7c-0.3,0.5-0.5,1.1-0.5,1.7v3h-1.8v-4.4c0-0.4-0.1-0.6-0.2-0.8s-0.4-0.3-0.7-0.3c-0.4,0-0.7,0.1-1,0.4
		c-0.3,0.2-0.5,0.5-0.6,0.9c-0.2,0.4-0.2,0.8-0.2,1.2v3h-1.8v-6.8h1.6l0.1,1.2c0.3-0.5,0.6-0.8,1-1.1c0.4-0.3,0.9-0.4,1.5-0.4
		c0.5,0,1,0.1,1.4,0.4c0.4,0.2,0.6,0.6,0.7,1c0.3-0.4,0.6-0.8,1.1-1c0.4-0.2,0.9-0.4,1.3-0.4C67.7,229.6,68.2,229.8,68.6,230.1z"/>
	<path class="st0" d="M78.2,229.9v6.8h-1.6l-0.1-1.2c-0.2,0.5-0.6,0.8-1,1.1c-0.5,0.3-1,0.4-1.6,0.4c-0.6,0-1.1-0.2-1.5-0.6
		c-0.4-0.4-0.6-0.9-0.6-1.5v-5h1.8v4.4c0,0.7,0.4,1.1,1.1,1.1c0.5,0,1-0.2,1.3-0.7c0.3-0.5,0.5-1.1,0.5-1.8v-3H78.2z"/>
	<path class="st0" d="M81.2,236.5c-0.5-0.2-0.8-0.5-1.1-0.8l0.8-1c0.6,0.6,1.1,0.8,1.7,0.8c0.3,0,0.6-0.1,0.8-0.2
		c0.2-0.1,0.3-0.3,0.3-0.6c0-0.3-0.1-0.4-0.3-0.6c-0.2-0.1-0.5-0.2-0.7-0.3c-0.3-0.1-0.4-0.1-0.5-0.2c-0.6-0.2-1-0.4-1.3-0.8
		s-0.4-0.8-0.4-1.2c0-0.4,0.1-0.7,0.3-1s0.5-0.6,0.8-0.8c0.4-0.2,0.8-0.3,1.4-0.3c0.5,0,1,0.1,1.3,0.2c0.4,0.1,0.7,0.3,1.1,0.6
		l-0.7,1.1c-0.2-0.2-0.4-0.3-0.7-0.4c-0.3-0.1-0.5-0.2-0.7-0.2c-0.3,0-0.5,0.1-0.7,0.2s-0.3,0.3-0.3,0.5c0,0.2,0.1,0.4,0.3,0.6
		s0.5,0.3,0.9,0.4c0.2,0.1,0.3,0.1,0.4,0.1c0.5,0.2,0.9,0.4,1.2,0.7c0.3,0.3,0.4,0.7,0.4,1.2c0,0.7-0.2,1.2-0.7,1.7
		c-0.5,0.4-1.2,0.7-2,0.7C82.2,236.8,81.7,236.7,81.2,236.5z"/>
	<path class="st0" d="M87.7,226.8c0.2-0.2,0.5-0.3,0.7-0.3c0.3,0,0.5,0.1,0.7,0.3s0.3,0.4,0.3,0.7s-0.1,0.5-0.3,0.7
		c-0.2,0.2-0.4,0.3-0.7,0.3c-0.3,0-0.5-0.1-0.7-0.3c-0.2-0.2-0.3-0.4-0.3-0.7S87.5,227,87.7,226.8z M89.2,229.9v6.8h-1.8v-6.8H89.2z
		"/>
	<path class="st0" d="M96.2,236.6c-0.4,0.1-0.9,0.2-1.3,0.2c-0.7,0-1.4-0.1-2-0.4c-0.6-0.3-1-0.7-1.3-1.2c-0.3-0.5-0.5-1.2-0.5-1.9
		c0-0.7,0.2-1.3,0.5-1.9c0.3-0.5,0.8-1,1.3-1.2c0.5-0.3,1.1-0.4,1.8-0.4c1.1,0,1.9,0.3,2.6,0.9l-0.9,1.2c-0.2-0.2-0.4-0.3-0.7-0.4
		c-0.3-0.1-0.6-0.2-0.9-0.2c-0.5,0-1,0.2-1.4,0.6c-0.4,0.4-0.6,0.9-0.6,1.5c0,0.6,0.2,1.1,0.6,1.5c0.4,0.4,0.9,0.6,1.5,0.6
		c0.5,0,1-0.1,1.3-0.4l0.9,1.1C97,236.3,96.6,236.5,96.2,236.6z"/>
</g>
</svg>
