<?xml version="1.0" encoding="utf-8"?>
<!-- Generator: Adobe Illustrator 23.0.3, SVG Export Plug-In . SVG Version: 6.00 Build 0)  -->
<svg version="1.1" id="Layer_1" xmlns="http://www.w3.org/2000/svg" xmlns:xlink="http://www.w3.org/1999/xlink" x="0px" y="0px"
	 viewBox="0 0 120 600" style="enable-background:new 0 0 120 600;" xml:space="preserve">
<style type="text/css">
	.st0{fill:#768961;}
</style>
<g>
	<path class="st0" d="M17.6,270.5c-0.6,0.2-1.2,0.3-1.9,0.3c-1.1,0-2.1-0.2-3-0.7c-0.8-0.5-1.5-1.2-2-2s-0.7-1.8-0.7-2.8
		c0-1.1,0.2-2.1,0.7-2.9s1.1-1.5,1.9-2c0.8-0.5,1.7-0.7,2.8-0.7c0.6,0,1.2,0.1,1.8,0.3c0.5,0.2,1,0.4,1.4,0.6l-0.7,1.6
		c-0.8-0.6-1.6-0.9-2.5-0.9c-0.6,0-1.2,0.2-1.8,0.5c-0.6,0.3-1,0.8-1.3,1.4c-0.3,0.6-0.5,1.2-0.5,2c0,0.8,0.2,1.4,0.5,2
		c0.3,0.6,0.7,1.1,1.3,1.4s1.2,0.5,2,0.5c0.5,0,1-0.1,1.4-0.2c0.4-0.2,0.8-0.4,1.1-0.6l0.7,1.6C18.6,270.1,18.2,270.3,17.6,270.5z"
		/>
	<path class="st0" d="M20.4,265.7c0.3-0.5,0.7-0.9,1.3-1.2s1.2-0.4,1.8-0.4c0.7,0,1.3,0.1,1.8,0.4c0.5,0.3,0.9,0.7,1.2,1.2
		c0.3,0.5,0.4,1.1,0.4,1.7c0,0.6-0.1,1.2-0.4,1.7c-0.3,0.5-0.7,0.9-1.2,1.2c-0.5,0.3-1.2,0.5-1.9,0.5c-0.7,0-1.3-0.1-1.8-0.4
		c-0.5-0.3-1-0.7-1.3-1.2c-0.3-0.5-0.5-1.1-0.5-1.8C20,266.8,20.1,266.3,20.4,265.7z M22.2,268.9c0.3,0.4,0.8,0.6,1.3,0.6
		c0.5,0,1-0.2,1.3-0.6c0.3-0.4,0.5-0.9,0.5-1.4s-0.2-1.1-0.5-1.4c-0.3-0.4-0.8-0.6-1.3-0.6c-0.5,0-1,0.2-1.3,0.6
		c-0.4,0.4-0.5,0.9-0.5,1.4C21.7,268,21.9,268.5,22.2,268.9z"/>
	<path class="st0" d="M38.1,264.6c0.4,0.4,0.6,0.8,0.6,1.4v4.7h-1.7v-4.1c0-0.3-0.1-0.6-0.2-0.8c-0.1-0.2-0.3-0.3-0.6-0.3
		c-0.5,0-0.9,0.2-1.3,0.7s-0.5,1-0.5,1.6v2.8h-1.7v-4.1c0-0.3-0.1-0.6-0.2-0.8c-0.1-0.2-0.4-0.3-0.7-0.3c-0.3,0-0.6,0.1-0.9,0.3
		c-0.3,0.2-0.5,0.5-0.6,0.9c-0.1,0.4-0.2,0.7-0.2,1.1v2.8h-1.7v-6.3h1.5l0.1,1.1c0.2-0.4,0.6-0.8,1-1c0.4-0.2,0.9-0.4,1.4-0.4
		c0.5,0,0.9,0.1,1.3,0.3c0.3,0.2,0.6,0.5,0.7,1c0.3-0.4,0.6-0.7,1-1c0.4-0.2,0.8-0.3,1.2-0.3C37.3,264.1,37.8,264.2,38.1,264.6z"/>
	<path class="st0" d="M46.4,264.5c0.5,0.3,0.9,0.7,1.1,1.2c0.3,0.5,0.4,1.1,0.4,1.8c0,0.7-0.1,1.3-0.4,1.8s-0.7,0.9-1.2,1.2
		c-0.5,0.3-1.1,0.4-1.8,0.4c-0.4,0-0.8-0.1-1.2-0.3s-0.7-0.4-1-0.7v3.8h-1.7v-9.5h1.5l0.1,0.9c0.3-0.3,0.7-0.6,1.1-0.8
		c0.4-0.2,0.9-0.3,1.4-0.3C45.4,264.1,45.9,264.2,46.4,264.5z M45.2,269.3c0.3-0.2,0.6-0.4,0.8-0.7c0.2-0.3,0.3-0.6,0.3-1
		c0-0.6-0.2-1.1-0.6-1.5c-0.4-0.4-0.8-0.6-1.4-0.6c-0.5,0-0.9,0.1-1.2,0.4c-0.3,0.2-0.6,0.6-0.7,1v1.3c0.1,0.4,0.3,0.7,0.7,1
		c0.3,0.3,0.7,0.4,1.2,0.4C44.5,269.5,44.9,269.4,45.2,269.3z"/>
	<path class="st0" d="M51,259v11.7h-1.7V259H51z"/>
	<path class="st0" d="M53.1,261.5c0.2-0.2,0.4-0.3,0.7-0.3c0.2,0,0.5,0.1,0.7,0.3s0.3,0.4,0.3,0.6c0,0.3-0.1,0.5-0.3,0.6
		c-0.2,0.2-0.4,0.3-0.7,0.3c-0.3,0-0.5-0.1-0.7-0.3c-0.2-0.2-0.3-0.4-0.3-0.6C52.8,261.8,52.9,261.6,53.1,261.5z M54.6,264.4v6.3
		h-1.7v-6.3H54.6z"/>
	<path class="st0" d="M66.2,264.6c0.4,0.4,0.6,0.8,0.6,1.4v4.7h-1.7v-4.1c0-0.3-0.1-0.6-0.2-0.8c-0.1-0.2-0.3-0.3-0.6-0.3
		c-0.5,0-0.9,0.2-1.3,0.7s-0.5,1-0.5,1.6v2.8h-1.7v-4.1c0-0.3-0.1-0.6-0.2-0.8c-0.1-0.2-0.4-0.3-0.7-0.3c-0.3,0-0.6,0.1-0.9,0.3
		c-0.3,0.2-0.5,0.5-0.6,0.9c-0.1,0.4-0.2,0.7-0.2,1.1v2.8h-1.7v-6.3H58l0.1,1.1c0.2-0.4,0.6-0.8,1-1c0.4-0.2,0.9-0.4,1.4-0.4
		c0.5,0,0.9,0.1,1.3,0.3c0.3,0.2,0.6,0.5,0.7,1c0.3-0.4,0.6-0.7,1-1c0.4-0.2,0.8-0.3,1.2-0.3C65.3,264.1,65.8,264.2,66.2,264.6z"/>
	<path class="st0" d="M73.1,268.9l0.8,1.2c-0.3,0.2-0.7,0.4-1.1,0.5c-0.4,0.1-0.8,0.2-1.1,0.2c-0.7,0-1.4-0.1-1.9-0.4
		c-0.5-0.3-0.9-0.7-1.2-1.2c-0.3-0.5-0.4-1.1-0.4-1.8c0-0.6,0.2-1.2,0.5-1.7c0.3-0.5,0.8-0.9,1.3-1.2c0.5-0.3,1.1-0.5,1.8-0.5
		c0.9,0,1.6,0.3,2.1,0.8c0.6,0.5,0.9,1.2,1.1,2.1l-4.9,1.7c0.2,0.3,0.4,0.5,0.7,0.6c0.3,0.1,0.6,0.2,0.9,0.2
		C72.2,269.4,72.7,269.3,73.1,268.9z M70.3,265.9c-0.3,0.4-0.5,0.8-0.5,1.4c0,0.1,0,0.2,0,0.3l3.3-1.2c-0.1-0.3-0.3-0.6-0.6-0.8
		s-0.6-0.3-1-0.3C71.1,265.4,70.6,265.6,70.3,265.9z"/>
	<path class="st0" d="M81.9,264.6c0.4,0.4,0.6,0.8,0.6,1.4v4.7h-1.7v-4.1c0-0.3-0.1-0.6-0.3-0.8c-0.2-0.2-0.4-0.3-0.8-0.3
		c-0.5,0-0.9,0.2-1.3,0.7c-0.3,0.4-0.5,1-0.5,1.7v2.8h-1.7v-6.3h1.5l0.1,1.1c0.2-0.4,0.6-0.8,1-1c0.4-0.2,0.9-0.4,1.5-0.4
		C81,264.1,81.5,264.3,81.9,264.6z"/>
	<path class="st0" d="M86.7,261.6v2.8h1.6v1.3h-1.6v5H85v-5h-1.1v-1.3H85v-2.8H86.7z"/>
	<path class="st0" d="M96.2,264.4v6.3h-1.7v-0.9c-0.2,0.3-0.5,0.5-0.9,0.7c-0.4,0.2-0.8,0.3-1.4,0.3c-0.6,0-1.2-0.1-1.6-0.4
		c-0.5-0.3-0.9-0.6-1.1-1.1s-0.4-1.1-0.4-1.8c0-0.7,0.1-1.3,0.4-1.8c0.3-0.5,0.7-0.9,1.2-1.2c0.5-0.3,1-0.4,1.6-0.4
		c1,0,1.8,0.4,2.3,1.1l0.1-0.9H96.2z M93.9,269.1c0.3-0.2,0.5-0.6,0.7-1v-1.4c-0.1-0.4-0.4-0.7-0.7-0.9c-0.3-0.2-0.7-0.4-1.2-0.4
		c-0.5,0-1,0.2-1.4,0.6s-0.6,0.9-0.6,1.4c0,0.4,0.1,0.7,0.3,1c0.2,0.3,0.4,0.6,0.7,0.7c0.3,0.2,0.6,0.3,1,0.3
		C93.2,269.5,93.5,269.4,93.9,269.1z"/>
	<path class="st0" d="M100.5,264.9c0.3-0.3,0.6-0.5,1-0.6c0.3-0.1,0.6-0.2,0.8-0.2l-0.1,1.7c-0.5,0-0.9,0-1.2,0.2
		c-0.4,0.2-0.6,0.5-0.8,0.8c-0.2,0.4-0.3,0.7-0.3,1.1v2.7h-1.7v-6.3h1.5l0.1,1.5C99.9,265.5,100.2,265.2,100.5,264.9z"/>
	<path class="st0" d="M109.8,264.4l-4.1,9.4h-1.7l1.5-3.3l-2.9-6.1h1.9l1.9,4.2l1.9-4.2H109.8z"/>
	<path class="st0" d="M20.9,284.9c0.3-0.3,0.6-0.5,1-0.6c0.3-0.1,0.6-0.2,0.8-0.2l-0.1,1.7c-0.5,0-0.9,0-1.2,0.2s-0.6,0.5-0.8,0.8
		c-0.2,0.4-0.3,0.7-0.3,1.1v2.7h-1.7v-6.3H20l0.1,1.5C20.3,285.5,20.6,285.2,20.9,284.9z"/>
	<path class="st0" d="M28.2,288.9l0.8,1.2c-0.3,0.2-0.7,0.4-1.1,0.5s-0.8,0.2-1.1,0.2c-0.7,0-1.4-0.1-1.9-0.4
		c-0.5-0.3-0.9-0.7-1.2-1.2c-0.3-0.5-0.4-1.1-0.4-1.8c0-0.6,0.2-1.2,0.5-1.7c0.3-0.5,0.8-0.9,1.3-1.2c0.5-0.3,1.1-0.5,1.8-0.5
		c0.9,0,1.6,0.3,2.1,0.8c0.6,0.5,1,1.2,1.1,2.1l-4.9,1.7c0.2,0.3,0.4,0.5,0.7,0.6c0.3,0.1,0.6,0.2,0.9,0.2
		C27.2,289.4,27.7,289.3,28.2,288.9z M25.3,285.9c-0.3,0.4-0.5,0.8-0.5,1.4c0,0.1,0,0.2,0,0.3l3.3-1.2c-0.1-0.3-0.3-0.6-0.6-0.8
		c-0.3-0.2-0.6-0.3-1-0.3C26.1,285.4,25.7,285.6,25.3,285.9z"/>
	<path class="st0" d="M31.8,285.8h-1.1v-1.5h1.1v-2.5c0-0.9,0.2-1.6,0.7-2.1c0.5-0.5,1.1-0.8,1.9-0.8c0.3,0,0.5,0,0.8,0.1
		s0.5,0.2,0.8,0.3l-0.7,1.2c-0.2-0.2-0.4-0.3-0.7-0.3c-0.7,0-1.1,0.5-1.1,1.5v2.4h2v1.5h-2v4.9h-1.7V285.8z"/>
	<path class="st0" d="M39.3,284.9c0.3-0.3,0.6-0.5,1-0.6c0.3-0.1,0.6-0.2,0.8-0.2l-0.1,1.7c-0.5,0-0.9,0-1.2,0.2s-0.6,0.5-0.8,0.8
		c-0.2,0.4-0.3,0.7-0.3,1.1v2.7h-1.7v-6.3h1.5l0.1,1.5C38.7,285.5,39,285.2,39.3,284.9z"/>
	<path class="st0" d="M46.6,288.9l0.8,1.2c-0.3,0.2-0.7,0.4-1.1,0.5s-0.8,0.2-1.1,0.2c-0.7,0-1.4-0.1-1.9-0.4
		c-0.5-0.3-0.9-0.7-1.2-1.2c-0.3-0.5-0.4-1.1-0.4-1.8c0-0.6,0.2-1.2,0.5-1.7c0.3-0.5,0.8-0.9,1.3-1.2c0.5-0.3,1.1-0.5,1.8-0.5
		c0.9,0,1.6,0.3,2.1,0.8c0.6,0.5,1,1.2,1.1,2.1l-4.9,1.7c0.2,0.3,0.4,0.5,0.7,0.6c0.3,0.1,0.6,0.2,0.9,0.2
		C45.6,289.4,46.1,289.3,46.6,288.9z M43.7,285.9c-0.3,0.4-0.5,0.8-0.5,1.4c0,0.1,0,0.2,0,0.3l3.3-1.2c-0.1-0.3-0.3-0.6-0.6-0.8
		c-0.3-0.2-0.6-0.3-1-0.3C44.5,285.4,44,285.6,43.7,285.9z"/>
	<path class="st0" d="M50.2,290.6c-0.4-0.2-0.8-0.4-1.1-0.7l0.7-0.9c0.5,0.5,1.1,0.8,1.6,0.8c0.3,0,0.5-0.1,0.7-0.2
		c0.2-0.1,0.3-0.3,0.3-0.5c0-0.2-0.1-0.4-0.3-0.5c-0.2-0.1-0.4-0.2-0.7-0.3c-0.2-0.1-0.4-0.1-0.5-0.1c-0.6-0.2-1-0.4-1.2-0.7
		s-0.4-0.7-0.4-1.1c0-0.3,0.1-0.7,0.3-1s0.4-0.6,0.8-0.7c0.4-0.2,0.8-0.3,1.3-0.3c0.5,0,0.9,0.1,1.3,0.2c0.4,0.1,0.7,0.3,1,0.5
		l-0.6,1c-0.2-0.2-0.4-0.3-0.7-0.4c-0.3-0.1-0.5-0.2-0.7-0.2c-0.3,0-0.5,0.1-0.6,0.2c-0.2,0.1-0.3,0.3-0.3,0.5
		c0,0.2,0.1,0.4,0.3,0.5c0.2,0.1,0.5,0.2,0.9,0.4c0.2,0,0.3,0.1,0.3,0.1c0.5,0.2,0.9,0.4,1.2,0.7c0.3,0.3,0.4,0.7,0.4,1.1
		c0,0.6-0.2,1.1-0.7,1.6c-0.4,0.4-1.1,0.6-1.9,0.6C51.1,290.8,50.6,290.7,50.2,290.6z"/>
	<path class="st0" d="M61.2,284.6c0.4,0.4,0.6,0.8,0.6,1.4v4.7h-1.7v-4.1c0-0.3-0.1-0.6-0.3-0.8c-0.2-0.2-0.4-0.3-0.8-0.3
		c-0.5,0-0.9,0.2-1.3,0.7c-0.3,0.4-0.5,1-0.5,1.7v2.8h-1.7V279h1.7v6.4c0.2-0.4,0.6-0.7,1-1c0.4-0.2,0.9-0.4,1.5-0.4
		C60.3,284.1,60.8,284.3,61.2,284.6z"/>
	<path class="st0" d="M73.4,284.6c0.4,0.4,0.6,0.8,0.6,1.4v4.7h-1.7v-4.1c0-0.3-0.1-0.6-0.2-0.8c-0.1-0.2-0.3-0.3-0.6-0.3
		c-0.5,0-0.9,0.2-1.3,0.7s-0.5,1-0.5,1.6v2.8H68v-4.1c0-0.3-0.1-0.6-0.2-0.8c-0.1-0.2-0.4-0.3-0.7-0.3c-0.3,0-0.6,0.1-0.9,0.3
		c-0.3,0.2-0.5,0.5-0.6,0.9c-0.1,0.4-0.2,0.7-0.2,1.1v2.8h-1.7v-6.3h1.5l0.1,1.1c0.2-0.4,0.6-0.8,1-1c0.4-0.2,0.9-0.4,1.4-0.4
		c0.5,0,0.9,0.1,1.3,0.3c0.3,0.2,0.6,0.5,0.7,1c0.3-0.4,0.6-0.7,1-1c0.4-0.2,0.8-0.3,1.2-0.3C72.6,284.1,73.1,284.2,73.4,284.6z"/>
	<path class="st0" d="M80.4,288.9l0.8,1.2c-0.3,0.2-0.7,0.4-1.1,0.5c-0.4,0.1-0.8,0.2-1.1,0.2c-0.7,0-1.4-0.1-1.9-0.4
		c-0.5-0.3-0.9-0.7-1.2-1.2c-0.3-0.5-0.4-1.1-0.4-1.8c0-0.6,0.2-1.2,0.5-1.7c0.3-0.5,0.8-0.9,1.3-1.2c0.5-0.3,1.1-0.5,1.8-0.5
		c0.9,0,1.6,0.3,2.1,0.8c0.6,0.5,0.9,1.2,1.1,2.1l-4.9,1.7c0.2,0.3,0.4,0.5,0.7,0.6c0.3,0.1,0.6,0.2,0.9,0.2
		C79.5,289.4,79.9,289.3,80.4,288.9z M77.6,285.9c-0.3,0.4-0.5,0.8-0.5,1.4c0,0.1,0,0.2,0,0.3l3.3-1.2c-0.1-0.3-0.3-0.6-0.6-0.8
		s-0.6-0.3-1-0.3C78.3,285.4,77.9,285.6,77.6,285.9z"/>
	<path class="st0" d="M89.1,284.6c0.4,0.4,0.6,0.8,0.6,1.4v4.7h-1.7v-4.1c0-0.3-0.1-0.6-0.3-0.8c-0.2-0.2-0.4-0.3-0.8-0.3
		c-0.5,0-0.9,0.2-1.3,0.7c-0.3,0.4-0.5,1-0.5,1.7v2.8h-1.7v-6.3H85l0.1,1.1c0.2-0.4,0.6-0.8,1-1c0.4-0.2,0.9-0.4,1.5-0.4
		C88.2,284.1,88.7,284.3,89.1,284.6z"/>
	<path class="st0" d="M93.9,281.6v2.8h1.6v1.3h-1.6v5h-1.7v-5h-1.1v-1.3h1.1v-2.8H93.9z"/>
	<path class="st0" d="M97.3,290.6c-0.4-0.2-0.8-0.4-1.1-0.7l0.7-0.9c0.5,0.5,1.1,0.8,1.6,0.8c0.3,0,0.5-0.1,0.7-0.2
		c0.2-0.1,0.3-0.3,0.3-0.5c0-0.2-0.1-0.4-0.3-0.5s-0.4-0.2-0.7-0.3s-0.4-0.1-0.5-0.1c-0.5-0.2-1-0.4-1.2-0.7
		c-0.3-0.3-0.4-0.7-0.4-1.1c0-0.3,0.1-0.7,0.3-1s0.4-0.6,0.8-0.7c0.4-0.2,0.8-0.3,1.3-0.3c0.5,0,0.9,0.1,1.3,0.2
		c0.4,0.1,0.7,0.3,1,0.5l-0.6,1c-0.2-0.2-0.4-0.3-0.7-0.4c-0.3-0.1-0.5-0.2-0.7-0.2c-0.3,0-0.5,0.1-0.6,0.2s-0.3,0.3-0.3,0.5
		c0,0.2,0.1,0.4,0.3,0.5c0.2,0.1,0.5,0.2,0.9,0.4c0.2,0,0.3,0.1,0.3,0.1c0.5,0.2,0.9,0.4,1.2,0.7s0.4,0.7,0.4,1.1
		c0,0.6-0.2,1.1-0.7,1.6c-0.4,0.4-1.1,0.6-1.9,0.6C98.2,290.8,97.8,290.7,97.3,290.6z"/>
</g>
</svg>
