<?xml version="1.0" encoding="utf-8"?>
<!-- Generator: Adobe Illustrator 23.0.3, SVG Export Plug-In . SVG Version: 6.00 Build 0)  -->
<svg version="1.1" id="Layer_1" xmlns="http://www.w3.org/2000/svg" xmlns:xlink="http://www.w3.org/1999/xlink" x="0px" y="0px"
	 viewBox="0 0 120 600" style="enable-background:new 0 0 120 600;" xml:space="preserve">
<style type="text/css">
	.st0{fill:#BB8C54;}
</style>
<g>
	<path class="st0" d="M22.3,185.3c-0.4,0.8-1,1.4-1.7,1.8c-0.7,0.4-1.6,0.6-2.6,0.7v-2c0.9,0,1.6-0.3,2.1-0.9s0.8-1.3,0.8-2.4v-10.5
		h2.1v10.6C22.9,183.6,22.7,184.5,22.3,185.3z"/>
	<path class="st0" d="M26,179.1c0.4-0.6,0.9-1.1,1.5-1.5s1.4-0.5,2.2-0.5s1.6,0.2,2.2,0.5c0.6,0.4,1.1,0.8,1.5,1.5s0.5,1.3,0.5,2.1
		c0,0.8-0.2,1.5-0.5,2.1c-0.3,0.6-0.8,1.1-1.5,1.5c-0.6,0.4-1.4,0.5-2.2,0.5c-0.8,0-1.5-0.2-2.2-0.5c-0.6-0.3-1.2-0.8-1.5-1.4
		c-0.4-0.6-0.5-1.3-0.5-2.2C25.4,180.4,25.6,179.7,26,179.1z M28.1,182.9c0.4,0.5,0.9,0.7,1.6,0.7c0.6,0,1.2-0.2,1.6-0.7
		s0.6-1,0.6-1.7c0-0.7-0.2-1.3-0.6-1.7s-0.9-0.7-1.6-0.7c-0.6,0-1.1,0.2-1.6,0.7s-0.6,1-0.6,1.7C27.5,181.8,27.7,182.4,28.1,182.9z"
		/>
	<path class="st0" d="M36.3,173.9c0.2-0.2,0.5-0.3,0.8-0.3c0.3,0,0.5,0.1,0.8,0.3c0.2,0.2,0.4,0.5,0.4,0.8c0,0.3-0.1,0.6-0.4,0.8
		c-0.2,0.2-0.5,0.3-0.8,0.3c-0.3,0-0.6-0.1-0.8-0.3c-0.2-0.2-0.4-0.5-0.4-0.8C36,174.4,36.1,174.1,36.3,173.9z M38.1,177.4v7.6h-2
		v-7.6H38.1z"/>
	<path class="st0" d="M47.6,177.7c0.5,0.4,0.7,1,0.7,1.6v5.7h-2v-4.9c0-0.4-0.1-0.7-0.4-0.9c-0.2-0.2-0.5-0.3-0.9-0.4
		c-0.6,0-1.1,0.3-1.5,0.8c-0.4,0.5-0.6,1.2-0.6,2v3.4h-2v-7.6h1.8l0.1,1.3c0.3-0.5,0.7-0.9,1.2-1.2c0.5-0.3,1.1-0.4,1.8-0.4
		C46.5,177.1,47.1,177.3,47.6,177.7z"/>
	<path class="st0" d="M64.2,177.4v7.6h-1.8l-0.1-1.4c-0.3,0.5-0.7,0.9-1.2,1.2c-0.5,0.3-1.1,0.5-1.8,0.5c-0.7,0-1.3-0.2-1.7-0.6
		c-0.5-0.4-0.7-1-0.7-1.6v-5.7h2v4.9c0,0.8,0.5,1.3,1.2,1.3c0.6,0,1.1-0.3,1.5-0.8s0.6-1.2,0.6-2v-3.4H64.2z"/>
	<path class="st0" d="M67.6,184.9c-0.5-0.2-1-0.5-1.3-0.9l0.8-1.1c0.6,0.6,1.3,0.9,1.9,0.9c0.4,0,0.7-0.1,0.9-0.2
		c0.2-0.1,0.4-0.3,0.4-0.6c0-0.3-0.1-0.5-0.4-0.6c-0.2-0.1-0.5-0.3-0.8-0.4c-0.3-0.1-0.5-0.1-0.6-0.2c-0.7-0.2-1.2-0.5-1.5-0.9
		c-0.3-0.4-0.5-0.8-0.5-1.4c0-0.4,0.1-0.8,0.3-1.2c0.2-0.4,0.5-0.7,1-0.9c0.4-0.2,0.9-0.3,1.6-0.3c0.6,0,1.1,0.1,1.5,0.2
		c0.4,0.1,0.8,0.3,1.2,0.6l-0.8,1.2c-0.2-0.2-0.5-0.4-0.8-0.5c-0.3-0.1-0.6-0.2-0.8-0.2c-0.3,0-0.6,0.1-0.8,0.2s-0.3,0.3-0.3,0.6
		c0,0.3,0.1,0.5,0.3,0.6c0.2,0.1,0.6,0.3,1,0.4c0.2,0.1,0.3,0.1,0.4,0.1c0.6,0.2,1.1,0.5,1.4,0.8c0.3,0.3,0.5,0.8,0.5,1.3
		c0,0.7-0.3,1.4-0.8,1.9c-0.5,0.5-1.3,0.7-2.3,0.7C68.7,185.2,68.1,185.1,67.6,184.9z"/>
	<path class="st0" d="M81,179.2h-1.3v-1.8H81v-3c0-1.1,0.3-1.9,0.8-2.5c0.5-0.6,1.3-0.9,2.3-0.9c0.3,0,0.6,0,1,0.1
		c0.3,0.1,0.6,0.2,0.9,0.4l-0.8,1.5c-0.2-0.2-0.5-0.3-0.8-0.3c-0.9,0-1.3,0.6-1.3,1.8v2.9h2.4v1.8H83v5.9h-2V179.2z"/>
	<path class="st0" d="M87,179.1c0.4-0.6,0.9-1.1,1.5-1.5c0.6-0.4,1.4-0.5,2.2-0.5s1.6,0.2,2.2,0.5c0.6,0.4,1.1,0.8,1.5,1.5
		c0.3,0.6,0.5,1.3,0.5,2.1c0,0.8-0.2,1.5-0.5,2.1c-0.3,0.6-0.8,1.1-1.5,1.5c-0.6,0.4-1.4,0.5-2.2,0.5c-0.8,0-1.5-0.2-2.2-0.5
		c-0.6-0.3-1.2-0.8-1.5-1.4c-0.4-0.6-0.5-1.3-0.5-2.2C86.5,180.4,86.7,179.7,87,179.1z M89.2,182.9c0.4,0.5,0.9,0.7,1.6,0.7
		c0.6,0,1.2-0.2,1.6-0.7s0.6-1,0.6-1.7c0-0.7-0.2-1.3-0.6-1.7s-0.9-0.7-1.6-0.7c-0.6,0-1.1,0.2-1.6,0.7s-0.6,1-0.6,1.7
		C88.5,181.8,88.7,182.4,89.2,182.9z"/>
	<path class="st0" d="M99.9,178.1c0.4-0.3,0.8-0.6,1.1-0.7c0.4-0.2,0.7-0.3,1-0.3l-0.1,2c-0.6,0-1,0.1-1.5,0.3c-0.4,0.2-0.8,0.6-1,1
		c-0.2,0.4-0.4,0.9-0.4,1.4v3.3h-2v-7.6h1.8l0.1,1.8C99.3,178.8,99.6,178.4,99.9,178.1z"/>
</g>
</svg>
