<?xml version="1.0" encoding="utf-8"?>
<!-- Generator: Adobe Illustrator 23.0.3, SVG Export Plug-In . SVG Version: 6.00 Build 0)  -->
<svg version="1.1" id="Layer_1" xmlns="http://www.w3.org/2000/svg" xmlns:xlink="http://www.w3.org/1999/xlink" x="0px" y="0px"
	 viewBox="0 0 120 600" style="enable-background:new 0 0 120 600;" xml:space="preserve">
<style type="text/css">
	.st0{fill:#768961;}
</style>
<g>
	<path class="st0" d="M43.5,172.2c0.9,0.8,1.3,1.9,1.3,3.3c0,0.8-0.2,1.5-0.5,2.2c-0.3,0.7-0.8,1.3-1.5,1.7
		c-0.7,0.4-1.6,0.7-2.7,0.7h-1.9v4.2h-2.6V171h4C41.4,171,42.6,171.4,43.5,172.2z M41.4,177.1c0.3-0.2,0.5-0.5,0.6-0.8
		c0.1-0.3,0.2-0.6,0.2-0.9c0-0.5-0.1-0.9-0.4-1.4c-0.3-0.4-0.8-0.7-1.6-0.7h-1.9v4h1.9C40.7,177.5,41.1,177.4,41.4,177.1z"/>
	<path class="st0" d="M49.3,170v14.2h-2.5V170H49.3z"/>
	<path class="st0" d="M59.8,176.3v7.9h-2.3l-0.2-1.3c-0.3,0.5-0.7,0.9-1.2,1.2s-1.1,0.4-1.8,0.4c-0.7,0-1.3-0.2-1.8-0.7
		c-0.5-0.4-0.7-1-0.7-1.7v-5.9h2.5v5c0,0.8,0.4,1.2,1.1,1.2c0.6,0,1-0.3,1.3-0.8c0.3-0.5,0.5-1.2,0.5-2.1v-3.2H59.8z"/>
	<path class="st0" d="M63.1,184c-0.6-0.2-1-0.5-1.4-1l1-1.4c0.7,0.6,1.4,1,2,1c0.3,0,0.6-0.1,0.8-0.2c0.2-0.1,0.3-0.3,0.3-0.5
		c0-0.2-0.1-0.4-0.3-0.5s-0.5-0.2-0.8-0.3s-0.5-0.1-0.6-0.2c-0.7-0.2-1.2-0.5-1.5-1c-0.3-0.4-0.5-0.9-0.5-1.5c0-0.4,0.1-0.8,0.3-1.2
		c0.2-0.4,0.6-0.7,1-1c0.5-0.3,1-0.4,1.7-0.4c0.6,0,1.2,0.1,1.7,0.2s0.9,0.3,1.3,0.6l-1,1.5c-0.2-0.2-0.5-0.4-0.8-0.5
		s-0.6-0.2-0.8-0.2c-0.3,0-0.5,0.1-0.7,0.2c-0.2,0.1-0.3,0.3-0.3,0.4c0,0.3,0.1,0.4,0.3,0.6s0.6,0.3,1,0.4c0.1,0,0.1,0,0.2,0.1
		c0.1,0,0.2,0,0.2,0.1c1.2,0.4,1.9,1.2,1.9,2.2c0,0.5-0.1,1-0.4,1.4c-0.3,0.4-0.6,0.8-1.1,1s-1.1,0.4-1.9,0.4
		C64.3,184.4,63.7,184.3,63.1,184z"/>
	<path class="st0" d="M84.7,176.3v7.9h-2.5v-1c-0.8,0.8-1.6,1.2-2.6,1.2c-1.2,0-2.1-0.3-2.8-1c-0.7-0.7-1.1-1.7-1.1-3.1
		c0-0.9,0.2-1.6,0.5-2.3c0.4-0.7,0.8-1.2,1.4-1.5c0.6-0.4,1.2-0.5,1.9-0.5c0.7,0,1.2,0.1,1.7,0.3s0.8,0.5,1.1,0.9l0.2-0.8H84.7z
		 M82.2,181.2v-1.9c-0.1-0.4-0.4-0.7-0.7-0.9c-0.4-0.2-0.8-0.3-1.3-0.3c-0.6,0-1,0.2-1.4,0.6c-0.4,0.4-0.6,0.9-0.6,1.5
		c0,0.4,0.1,0.8,0.3,1.1c0.2,0.3,0.4,0.6,0.8,0.8c0.3,0.2,0.7,0.3,1,0.3C81.2,182.4,81.8,182,82.2,181.2z"/>
	<path class="st0" d="M36.9,205.2c-0.5,0.2-1,0.3-1.5,0.3c-1.4,0-2.5-0.4-3.2-1.1c-0.8-0.7-1.2-1.8-1.2-3.1c0-0.8,0.2-1.6,0.6-2.2
		c0.4-0.6,0.9-1.1,1.5-1.4c0.6-0.3,1.3-0.5,2.1-0.5c1.3,0,2.4,0.3,3.2,1l-1.2,1.6c-0.5-0.4-1.1-0.6-1.7-0.6c-0.5,0-1,0.2-1.3,0.6
		s-0.5,0.9-0.5,1.5s0.2,1.1,0.6,1.5c0.4,0.4,0.9,0.6,1.5,0.6c0.6,0,1-0.1,1.4-0.5l1.3,1.6C37.9,204.8,37.4,205,36.9,205.2z"/>
	<path class="st0" d="M47.5,197.6c0.5,0.4,0.8,1,0.8,1.7v5.9h-2.5v-5c0-0.8-0.4-1.2-1.2-1.2c-0.6,0-1,0.3-1.4,0.8s-0.5,1.2-0.5,2.1
		v3.2h-2.5V191h2.5v7.6c0.3-0.5,0.7-0.9,1.2-1.2c0.5-0.3,1.1-0.4,1.8-0.4C46.4,197,47,197.2,47.5,197.6z"/>
	<path class="st0" d="M59.3,197.3v7.9h-2.5v-1c-0.8,0.8-1.6,1.2-2.6,1.2c-1.2,0-2.1-0.3-2.8-1c-0.7-0.7-1.1-1.7-1.1-3.1
		c0-0.9,0.2-1.6,0.5-2.3c0.4-0.7,0.8-1.2,1.4-1.5c0.6-0.4,1.2-0.5,1.9-0.5c0.7,0,1.2,0.1,1.7,0.3c0.4,0.2,0.8,0.5,1.1,0.9l0.2-0.8
		H59.3z M56.8,202.2v-1.9c-0.1-0.4-0.4-0.7-0.7-0.9c-0.4-0.2-0.8-0.3-1.3-0.3c-0.6,0-1,0.2-1.4,0.6c-0.4,0.4-0.6,0.9-0.6,1.5
		c0,0.4,0.1,0.8,0.3,1.1c0.2,0.3,0.4,0.6,0.8,0.8s0.7,0.3,1,0.3C55.8,203.4,56.4,203,56.8,202.2z"/>
	<path class="st0" d="M65.3,198c0.4-0.3,0.8-0.6,1.2-0.8s0.7-0.3,0.9-0.3l-0.1,2.5c-0.1,0-0.2,0-0.3,0c-0.5,0-0.9,0.1-1.3,0.4
		c-0.4,0.3-0.7,0.6-0.9,1s-0.3,0.8-0.3,1.3v3.1h-2.5v-7.9h2.3l0.2,1.8C64.6,198.7,64.9,198.3,65.3,198z"/>
	<path class="st0" d="M69.7,193.6c0.3-0.2,0.6-0.4,1-0.4c0.3,0,0.7,0.1,0.9,0.4c0.3,0.2,0.4,0.5,0.4,0.9c0,0.4-0.1,0.7-0.4,0.9
		c-0.3,0.2-0.6,0.4-0.9,0.4c-0.4,0-0.7-0.1-1-0.4c-0.3-0.2-0.4-0.5-0.4-0.9C69.2,194.2,69.4,193.9,69.7,193.6z M71.8,197.3v7.9h-2.5
		v-7.9H71.8z"/>
	<path class="st0" d="M77.7,193.9v3.4h1.9v2h-1.9v5.9h-2.5v-5.9h-1.2v-2h1.2v-3.4H77.7z"/>
	<path class="st0" d="M89.6,197.3L84.6,209h-2.4l1.9-4.2l-3.6-7.5h2.8l2.1,4.6l2.1-4.6H89.6z"/>
	<path class="st0" d="M29.7,219c0.4-0.3,0.8-0.6,1.2-0.8s0.7-0.3,0.9-0.3l-0.1,2.5c-0.1,0-0.2,0-0.3,0c-0.5,0-0.9,0.1-1.3,0.4
		c-0.4,0.3-0.7,0.6-0.9,1s-0.3,0.8-0.3,1.3v3.1h-2.5v-7.9h2.3l0.2,1.8C29,219.7,29.3,219.3,29.7,219z"/>
	<path class="st0" d="M41.9,218.3v7.9h-2.5v-1c-0.8,0.8-1.6,1.2-2.6,1.2c-1.2,0-2.1-0.3-2.8-1c-0.7-0.7-1.1-1.7-1.1-3.1
		c0-0.9,0.2-1.6,0.5-2.3c0.4-0.7,0.8-1.2,1.4-1.5c0.6-0.4,1.2-0.5,1.9-0.5c0.7,0,1.2,0.1,1.7,0.3c0.4,0.2,0.8,0.5,1.1,0.9l0.2-0.8
		H41.9z M39.4,223.2v-1.9c-0.1-0.4-0.4-0.7-0.7-0.9c-0.4-0.2-0.8-0.3-1.3-0.3c-0.6,0-1,0.2-1.4,0.6c-0.4,0.4-0.6,0.9-0.6,1.5
		c0,0.4,0.1,0.8,0.3,1.1c0.2,0.3,0.4,0.6,0.8,0.8s0.7,0.3,1,0.3C38.4,224.4,39,224,39.4,223.2z"/>
	<path class="st0" d="M53.4,218.3h2.4v2.2h-2.4v5.7h-2.5v-5.7h-3.1v5.7h-2.5v-5.7H44v-2.2h1.3v-2.7c0-1.1,0.3-1.9,0.9-2.5
		c0.6-0.6,1.5-1,2.6-1c0.4,0,0.7,0.1,1.2,0.2c0.4,0.1,0.8,0.3,1.1,0.5l-1.1,1.8c-0.2-0.3-0.5-0.4-0.9-0.4s-0.7,0.1-0.9,0.4
		s-0.3,0.6-0.3,1.1v2.7h3.1v-2.7c0-1.1,0.3-1.9,0.9-2.5c0.6-0.6,1.5-1,2.6-1c0.4,0,0.7,0.1,1.2,0.2c0.4,0.1,0.8,0.3,1.1,0.5
		l-1.1,1.8c-0.2-0.3-0.5-0.4-0.9-0.4c-0.4,0-0.7,0.1-0.9,0.4c-0.2,0.3-0.3,0.6-0.3,1.1V218.3z M60.5,212v14.2H58V212H60.5z"/>
	<path class="st0" d="M68.6,223.8l1.1,1.9c-0.4,0.2-0.9,0.4-1.4,0.6c-0.5,0.1-0.9,0.2-1.4,0.2c-0.9,0-1.7-0.2-2.4-0.5
		c-0.7-0.4-1.2-0.9-1.5-1.5c-0.3-0.6-0.5-1.4-0.5-2.2c0-0.8,0.2-1.5,0.6-2.1c0.4-0.6,1-1.2,1.6-1.5c0.7-0.4,1.5-0.6,2.3-0.6
		c1.1,0,2.1,0.3,2.8,1c0.7,0.7,1.2,1.6,1.4,2.8l-5.8,1.8c0.4,0.4,0.9,0.7,1.6,0.7C67.5,224.3,68.1,224.1,68.6,223.8z M65.5,220.5
		c-0.3,0.4-0.5,0.9-0.5,1.5v0.2l3.5-1.2c-0.3-0.7-0.8-1.1-1.6-1.1C66.3,219.9,65.8,220.1,65.5,220.5z"/>
	<path class="st0" d="M82.2,214.9v3.4h1.9v2h-1.9v5.9h-2.5v-5.9h-1.2v-2h1.2v-3.4H82.2z"/>
	<path class="st0" d="M86,220c0.4-0.6,0.9-1.1,1.6-1.5c0.7-0.4,1.5-0.5,2.3-0.5s1.6,0.2,2.3,0.5s1.2,0.9,1.5,1.5
		c0.4,0.6,0.5,1.4,0.5,2.2c0,0.8-0.2,1.5-0.5,2.2c-0.4,0.6-0.9,1.2-1.5,1.5s-1.4,0.5-2.3,0.5c-0.9,0-1.7-0.2-2.3-0.5
		c-0.7-0.3-1.2-0.8-1.6-1.5c-0.4-0.6-0.6-1.4-0.6-2.3C85.4,221.4,85.6,220.6,86,220z M88.5,223.7c0.4,0.4,0.8,0.6,1.4,0.6
		c0.6,0,1-0.2,1.4-0.6c0.4-0.4,0.5-0.9,0.5-1.6c0-0.6-0.2-1.2-0.5-1.6c-0.4-0.4-0.8-0.6-1.4-0.6c-0.6,0-1,0.2-1.4,0.6
		c-0.4,0.4-0.5,0.9-0.5,1.6C87.9,222.8,88.1,223.3,88.5,223.7z"/>
	<path class="st0" d="M35.8,247.8l-3.1-7.8l-3.7,7.9L23.7,234h3.1l2.6,7.7l2-5.1l-1-2.6h2.6l3,7.4l2.3-7.4H41L35.8,247.8z"/>
	<path class="st0" d="M45.9,234v13.2h-2.6V234H45.9z"/>
	<path class="st0" d="M61.2,234v13.8h-0.1l-9.3-8.4l0.1,7.8h-2.6v-13.8h0.1l9.3,8.5l-0.1-8H61.2z"/>
	<path class="st0" d="M70,241c0.4-0.6,0.9-1.1,1.6-1.5c0.7-0.4,1.5-0.5,2.3-0.5s1.6,0.2,2.3,0.5c0.7,0.4,1.2,0.9,1.5,1.5
		c0.4,0.6,0.5,1.4,0.5,2.2c0,0.8-0.2,1.5-0.5,2.2c-0.4,0.6-0.9,1.2-1.5,1.5s-1.4,0.5-2.3,0.5c-0.9,0-1.7-0.2-2.3-0.5
		c-0.7-0.3-1.2-0.8-1.6-1.5c-0.4-0.6-0.6-1.4-0.6-2.3C69.4,242.4,69.6,241.6,70,241z M72.5,244.7c0.4,0.4,0.8,0.6,1.4,0.6
		c0.6,0,1-0.2,1.4-0.6c0.4-0.4,0.5-0.9,0.5-1.6c0-0.6-0.2-1.2-0.5-1.6c-0.4-0.4-0.8-0.6-1.4-0.6c-0.6,0-1,0.2-1.4,0.6
		c-0.4,0.4-0.5,0.9-0.5,1.6S72.2,244.3,72.5,244.7z"/>
	<path class="st0" d="M88.3,239.3v7.9H86l-0.2-1.3c-0.3,0.5-0.7,0.9-1.2,1.2c-0.5,0.3-1.1,0.4-1.8,0.4c-0.7,0-1.3-0.2-1.8-0.7
		c-0.5-0.4-0.7-1-0.7-1.7v-5.9h2.5v5c0,0.8,0.4,1.2,1.1,1.2c0.6,0,1-0.3,1.3-0.8s0.5-1.2,0.5-2.1v-3.2H88.3z"/>
	<path class="st0" d="M94.2,240c0.4-0.3,0.8-0.6,1.2-0.8c0.4-0.2,0.7-0.3,0.9-0.3l-0.1,2.5c-0.1,0-0.2,0-0.3,0
		c-0.5,0-0.9,0.1-1.3,0.4c-0.4,0.3-0.7,0.6-0.9,1s-0.3,0.8-0.3,1.3v3.1h-2.5v-7.9h2.3l0.2,1.8C93.5,240.7,93.8,240.3,94.2,240z"/>
</g>
</svg>
