<svg xmlns="http://www.w3.org/2000/svg" viewBox="0 0 235.6 14.66"><defs><style>.cls-1{fill:#231f20;}</style></defs><title>ns5-t2</title><g id="Layer_2" data-name="Layer 2"><g id="Layer_1-2" data-name="Layer 1"><path class="cls-1" d="M.12,14.49V9.63H2.54a2.73,2.73,0,0,0,.7,2,2.11,2.11,0,0,0,1.5.63,1.5,1.5,0,0,0,1.1-.45,1.48,1.48,0,0,0,.46-1.08,1.5,1.5,0,0,0-.45-1.1,6.09,6.09,0,0,0-1.61-1A12.64,12.64,0,0,1,.88,6.47,3.39,3.39,0,0,1,0,4,3.64,3.64,0,0,1,1.17,1.11a3.88,3.88,0,0,1,2.65-1A3,3,0,0,1,6.46,1.41V.22H8.87V4.56H6.46A2.49,2.49,0,0,0,5.77,3a1.9,1.9,0,0,0-1.35-.55,1.62,1.62,0,0,0-1,.32A1,1,0,0,0,3,3.61a1.29,1.29,0,0,0,.34.83,6.66,6.66,0,0,0,2,1.12A16.13,16.13,0,0,1,7.75,6.84,4.15,4.15,0,0,1,9.09,8.32a4.39,4.39,0,0,1,.49,2.09A4,4,0,0,1,8.35,13.6a4.3,4.3,0,0,1-2.92,1.06,3.36,3.36,0,0,1-2.89-1.39v1.22Z"/><path class="cls-1" d="M13.37,14.49V12.08h2.14V2.63H13.37V6H10.92V.22H23.85V6H21.43V2.63h-2.2v9.45h2.14v2.41Z"/><path class="cls-1" d="M32.93,0a7.8,7.8,0,0,1,5.8,2.13,7.08,7.08,0,0,1,2.12,5.2,7.12,7.12,0,0,1-2.12,5.21,7.87,7.87,0,0,1-5.8,2.12,7.67,7.67,0,0,1-5.88-2.19A7.26,7.26,0,0,1,25,7.33a7.08,7.08,0,0,1,2.11-5.19A7.77,7.77,0,0,1,32.93,0Zm0,2.6a3.66,3.66,0,0,0-2.79,1.23A5.14,5.14,0,0,0,29,7.44a4.82,4.82,0,0,0,1.13,3.37,3.74,3.74,0,0,0,5.58,0,5,5,0,0,0,1.15-3.56A5,5,0,0,0,35.77,3.9,3.58,3.58,0,0,0,32.93,2.6Z"/><path class="cls-1" d="M57.25,12.08v2.41H52.9L49.68,8.24H48.05v3.84h1.78v2.41H42.38V12.08h2V2.63h-2V.22H51a4.41,4.41,0,0,1,3.5,1.23,4.08,4.08,0,0,1,1.08,2.77,3.71,3.71,0,0,1-2.48,3.55l2.32,4.31ZM48.05,6h1.27c1.57,0,2.36-.56,2.36-1.68A1.48,1.48,0,0,0,51.14,3a2.41,2.41,0,0,0-1.48-.41H48.05Z"/><path class="cls-1" d="M71.89,12.08v2.41h-7V12.08H66.7L66,9.63H62.32l-.76,2.45h1.91v2.41H57.16V12.08h1.76L61.7,2.63H59.8V.22h9.31V2.63H67.19l3,9.45ZM65.44,7.54l-1.19-4.3L63,7.54Z"/><path class="cls-1" d="M81.52,9.7V7.29H88.2a7.82,7.82,0,0,1-.93,4.11,6.46,6.46,0,0,1-2.73,2.39,9.06,9.06,0,0,1-4,.87,8,8,0,0,1-5.93-2.07,7.11,7.11,0,0,1-2.06-5.26,7.43,7.43,0,0,1,1-3.91A6.67,6.67,0,0,1,76.31.86,8.37,8.37,0,0,1,80.07,0a6.56,6.56,0,0,1,4.47,1.39V.22H87V5.29H84.54a3.54,3.54,0,0,0-1.5-2,4.38,4.38,0,0,0-2.42-.74,3.93,3.93,0,0,0-2.91,1.21,4.54,4.54,0,0,0-1.2,3.33,5.15,5.15,0,0,0,1.23,3.72,4,4,0,0,0,3,1.28,3.5,3.5,0,0,0,2.14-.63A3.15,3.15,0,0,0,84,9.7Z"/><path class="cls-1" d="M89.88,14.49V12.08h1.71V2.63H89.88V.22h12.57V4.75H99.72V2.63H95.3v3.3h3.57V8.34H95.3v3.74h4.42V10h2.73v4.54Z"/><path class="cls-1" d="M109,14.49V12.08h1.85V2.63H109V.22h7.15l3.13,8.36L122.44.22h7.29V2.63h-1.84v9.45h1.84v2.41h-7.18V12.08h1.73V2.63h-.34l-4.42,11.86H118L113.51,2.63h-.34v9.45H115v2.41Z"/><path class="cls-1" d="M145,12.08v2.41h-7V12.08h1.82l-.67-2.45h-3.71l-.76,2.45h1.91v2.41h-6.31V12.08H132l2.78-9.45h-1.9V.22h9.31V2.63H140.3l3,9.45Zm-6.45-4.54-1.19-4.3-1.28,4.3Z"/><path class="cls-1" d="M145.47,14.49V12.08h2.17V2.63h-2.17V.22h6.76a17.64,17.64,0,0,1,3.44.27,6.13,6.13,0,0,1,2.49,1.16,6.29,6.29,0,0,1,1.9,2.4,7.64,7.64,0,0,1,.72,3.34,8.2,8.2,0,0,1-.5,2.84A6.7,6.7,0,0,1,159,12.4a5.42,5.42,0,0,1-1.78,1.31,6.92,6.92,0,0,1-1.9.63,17.27,17.27,0,0,1-2.68.15Zm5.87-2.41h.89a6.46,6.46,0,0,0,2.57-.42,3.24,3.24,0,0,0,1.52-1.48,5.89,5.89,0,0,0,.58-2.78,6.16,6.16,0,0,0-.58-2.77,3.21,3.21,0,0,0-1.57-1.56,6.29,6.29,0,0,0-2.52-.44h-.89Z"/><path class="cls-1" d="M162.51,14.49V12.08h1.72V2.63h-1.72V.22h12.58V4.75h-2.73V2.63h-4.42v3.3h3.57V8.34h-3.57v3.74h4.42V10h2.73v4.54Z"/><path class="cls-1" d="M181.77,14.49V12.08h1.71V2.63h-1.71V.22h12.57V4.75h-2.72V2.63H187.2v3.3h3.56V8.34H187.2v3.74h4.42V10h2.72v4.54Z"/><path class="cls-1" d="M209.76,12.08v2.41h-7V12.08h1.83l-.68-2.45h-3.7l-.76,2.45h1.91v2.41H195V12.08h1.76l2.78-9.45h-1.9V.22H207V2.63h-1.92l3,9.45Zm-6.44-4.54-1.19-4.3-1.29,4.3Z"/><path class="cls-1" d="M210.74,14.49V9.63h2.42a2.73,2.73,0,0,0,.7,2,2.08,2.08,0,0,0,1.49.63,1.54,1.54,0,0,0,1.56-1.53,1.53,1.53,0,0,0-.44-1.1,6.09,6.09,0,0,0-1.61-1,12.64,12.64,0,0,1-3.36-2.11A3.39,3.39,0,0,1,210.62,4a3.64,3.64,0,0,1,1.17-2.89,3.86,3.86,0,0,1,2.65-1,3,3,0,0,1,2.64,1.33V.22h2.41V4.56h-2.41a2.44,2.44,0,0,0-.7-1.55A1.86,1.86,0,0,0,215,2.46a1.6,1.6,0,0,0-1,.32,1,1,0,0,0-.41.83,1.24,1.24,0,0,0,.34.83,6.38,6.38,0,0,0,2,1.12,17.2,17.2,0,0,1,2.43,1.28,4.12,4.12,0,0,1,1.33,1.48,4.27,4.27,0,0,1,.49,2.09A4,4,0,0,1,219,13.6a4.3,4.3,0,0,1-2.91,1.06,3.36,3.36,0,0,1-2.89-1.39v1.22Z"/><path class="cls-1" d="M224.45,14.49V12.08h2V8.22l-3.87-5.59h-1.74V.22H228V2.63h-1.41l2.1,3.48,2.12-3.48h-1.47V.22h6.28V2.63h-1.75l-3.69,5.59v3.86h2v2.41Z"/></g></g></svg>