<svg xmlns="http://www.w3.org/2000/svg" viewBox="0 0 266.29 46.4"><defs><style>.cls-1{fill:#231f20;}</style></defs><title>text1</title><g id="Layer_2" data-name="Layer 2"><g id="Layer_1-2" data-name="Layer 1"><path class="cls-1" d="M0,17.88v-3H2.52V3.25H0v-3H15.76V5.71H12.39V3.25H7.1V7.33h3.81v3H7.1v4.61H9.81v3Z"/><path class="cls-1" d="M35,14.91v3H29.59l-4-7.71h-2v4.73h2.2v3H16.6v-3H19V3.25H16.6v-3H27.22q3,0,4.32,1.51a5.06,5.06,0,0,1,1.32,3.42,4.58,4.58,0,0,1-3.05,4.38l2.86,5.32ZM23.6,7.37h1.57q2.91,0,2.91-2.08a1.8,1.8,0,0,0-.66-1.53,3,3,0,0,0-1.83-.51h-2Z"/><path class="cls-1" d="M35.77,17.88v-3h2.11V3.25H35.77v-3H51.28V5.86H47.92V3.25H42.46V7.32h4.4v3h-4.4v4.62h5.46V12.28h3.37v5.61Z"/><path class="cls-1" d="M53.06,17.88v-3h2.11V3.25H53.06v-3H68.57V5.86H65.21V3.25H59.75V7.32h4.4v3h-4.4v4.62h5.46V12.28h3.37v5.61Z"/><path class="cls-1" d="M80.67,18,75.44,3.25h-2.1v-3h9v3H80l3,8.82,3-8.82H83.73v-3h7.8v3H89.38L84.33,18Z"/><path class="cls-1" d="M92.33,17.88v-3h2.11V3.25H92.33v-3h15.52V5.86h-3.37V3.25H99V7.32h4.4v3H99v4.62h5.46V12.28h3.37v5.61Z"/><path class="cls-1" d="M109.56,17.88v-3h2.2V3.25h-2.2v-3h8.5v3h-1.85V7.11H121V3.25h-1.78v-3h8.44v3h-2.2V14.91h2.2v3h-8.44v-3H121V10.1h-4.8v4.81h1.85v3Z"/><path class="cls-1" d="M129,17.88v-3h2.67V3.25H129v-3H139v3h-2.7V14.91H139v3Z"/><path class="cls-1" d="M155.35.28h3v6.2h-3Q154.08,3.14,151,3.14a4.58,4.58,0,0,0-3.9,1.76,6.82,6.82,0,0,0-1.32,4.21,6.06,6.06,0,0,0,1.4,4.16,4.54,4.54,0,0,0,3.56,1.59,4.48,4.48,0,0,0,3.1-1.2,6.12,6.12,0,0,0,1.8-3.34L159.06,12q-2,6.13-8.69,6.13-4.75,0-7.16-2.56a9,9,0,0,1-2.41-6.47A9.29,9.29,0,0,1,142,4.2a8.07,8.07,0,0,1,3.37-3.14A10.27,10.27,0,0,1,150.07,0a8.37,8.37,0,0,1,5.28,1.65Z"/><path class="cls-1" d="M160.47,17.88v-3H163V3.25h-2.52v-3h9.67v3h-2.57V14.91h5.2V9.47h3.43v8.42Z"/><path class="cls-1" d="M177.36,17.88v-3h2.11V3.25h-2.11v-3h15.52V5.86h-3.37V3.25h-5.46V7.32h4.4v3h-4.4v4.62h5.46V12.28h3.37v5.61Z"/><path class="cls-1" d="M201.06,17.88v-3h2.2V3.25h-2.2v-3h8.5v3h-1.85V7.11h4.8V3.25h-1.78v-3h8.44v3H217V14.91h2.2v3h-8.44v-3h1.78V10.1h-4.8v4.81h1.85v3Z"/><path class="cls-1" d="M220.53,17.88v-3h2.67V3.25h-2.67v-3h9.95v3h-2.7V14.91h2.7v3Z"/><path class="cls-1" d="M250,14.91v3H244.6l-4-7.71h-2v4.73h2.2v3h-9.2v-3H234V3.25h-2.42v-3h10.62q3,0,4.32,1.51a5.06,5.06,0,0,1,1.32,3.42,4.58,4.58,0,0,1-3.05,4.38l2.86,5.32ZM238.61,7.37h1.57q2.91,0,2.91-2.08a1.8,1.8,0,0,0-.66-1.53,3,3,0,0,0-1.83-.51h-2Z"/><path class="cls-1" d="M250.78,17.88v-3h2.11V3.25h-2.11v-3h15.52V5.86h-3.37V3.25h-5.45V7.32h4.4v3h-4.4v4.62h5.45V12.28h3.37v5.61Z"/><path class="cls-1" d="M26.83,46.31,23,32.86H21.13V31h5.81v1.9H25.12L28,42.8l2.77-9.95H29V31h7v1.9H34.15l2.78,9.95,2.82-9.95H37.94V31h5.6v1.9H41.75l-3.8,13.46H35.77l-3.42-12-3.4,12Z"/><path class="cls-1" d="M45.84,44.26V32.86H44.12V31h5.81v1.9H48.14v4.35h6.61V32.86H53V31h5.82v1.9H57v11.4h1.74v1.9H53v-1.9h1.78V39.11H48.14v5.15h1.79v1.9H44.12v-1.9Z"/><path class="cls-1" d="M61.94,44.26V32.86H60V31H72.61v4.58H70.73V32.86H64.24v4.53h5.65v1.9H64.24v5h6.49V41.49h1.88v4.67H60v-1.9Z"/><path class="cls-1" d="M75.64,44.26V32.86H73.47V31h5.19l6.67,11.82V32.86H83.17V31h6.24v1.9H87.17V46.31H84.82l-7.3-13V44.26H79.7v1.9H73.47v-1.9Z"/><path class="cls-1" d="M99,44.26v-5l-4.53-6.38H92.61V31h6.25v1.9H96.94l3.36,4.7,3.07-4.7h-1.91V31h6.06v1.9h-2l-4.22,6.38v5h2.08v1.9H96.95v-1.9Z"/><path class="cls-1" d="M106.73,38.49a7.64,7.64,0,0,1,2.16-5.54,7.51,7.51,0,0,1,5.64-2.23,7.69,7.69,0,0,1,5.72,2.23,7.62,7.62,0,0,1,2.21,5.58,7.61,7.61,0,0,1-2.25,5.65,7.78,7.78,0,0,1-5.71,2.22,8.07,8.07,0,0,1-4.06-1.05,6.75,6.75,0,0,1-2.78-2.94A8.75,8.75,0,0,1,106.73,38.49Zm2.5,0a6.19,6.19,0,0,0,1.46,4.2,4.84,4.84,0,0,0,3.85,1.69,4.93,4.93,0,0,0,3.88-1.73,6.07,6.07,0,0,0,1.52-4.14,5.84,5.84,0,0,0-1.55-4.1,5.06,5.06,0,0,0-3.89-1.68,4.87,4.87,0,0,0-3.8,1.65A5.94,5.94,0,0,0,109.24,38.5Z"/><path class="cls-1" d="M128,32.86v7.61a11.08,11.08,0,0,0,.18,2.45,2,2,0,0,0,.9,1.15,3.32,3.32,0,0,0,1.86.47,4.27,4.27,0,0,0,2.08-.41,2,2,0,0,0,1-1.1,8.68,8.68,0,0,0,.24-2.45V32.86h-1.76V31h5.95v1.9h-1.9V40.8a14,14,0,0,1-.14,2.33,3.68,3.68,0,0,1-.74,1.52A4.14,4.14,0,0,1,134,45.92a6.64,6.64,0,0,1-2.66.48,8.06,8.06,0,0,1-2.87-.44,3.9,3.9,0,0,1-1.73-1.19,4,4,0,0,1-.77-1.58,12.92,12.92,0,0,1-.19-2.61V32.86h-1.88V31h6v1.9Z"/><path class="cls-1" d="M146.68,44.26V32.86h-1.83V31h5.2l4,10.42,4-10.42h5.26v1.9h-1.84v11.4h1.84v1.9h-5.73v-1.9h1.81V32.86L154.2,46.31h-.45l-5.19-13.46v11.4h1.67v1.9h-5.38v-1.9Z"/><path class="cls-1" d="M165,38.49a7.64,7.64,0,0,1,2.16-5.54,7.51,7.51,0,0,1,5.64-2.23,7.69,7.69,0,0,1,5.72,2.23,7.62,7.62,0,0,1,2.21,5.58,7.61,7.61,0,0,1-2.25,5.65,7.78,7.78,0,0,1-5.71,2.22,8.07,8.07,0,0,1-4.06-1.05,6.75,6.75,0,0,1-2.78-2.94A8.75,8.75,0,0,1,165,38.49Zm2.5,0A6.19,6.19,0,0,0,169,42.7a4.84,4.84,0,0,0,3.85,1.69,4.93,4.93,0,0,0,3.88-1.73,6.07,6.07,0,0,0,1.52-4.14,5.84,5.84,0,0,0-1.55-4.1,5.06,5.06,0,0,0-3.89-1.68,4.87,4.87,0,0,0-3.8,1.65A5.94,5.94,0,0,0,167.52,38.5Z"/><path class="cls-1" d="M187.25,46.31l-5.11-13.46h-1.88V31h6v1.9H184.5l3.87,10.21,3.77-10.21h-1.77V31h5.84v1.9h-1.85l-5,13.46Z"/><path class="cls-1" d="M198.73,44.26V32.86h-2V31H209.4v4.58h-1.88V32.86H201v4.53h5.65v1.9H201v5h6.49V41.49h1.88v4.67H196.76v-1.9Z"/><path class="cls-1" d="M218.09,44.26V32.86h-1.64V31H222v1.9h-1.64v11.4H222v1.9h-5.57v-1.9Z"/><path class="cls-1" d="M225,44.26V32.86h-2.18V31H228l6.67,11.82V32.86h-2.15V31h6.24v1.9h-2.24V46.31h-2.36l-7.3-13V44.26h2.18v1.9h-6.23v-1.9Z"/><path class="cls-1" d="M240.77,46.16V43.47h2.69v2.69ZM242.66,42h-1.12L241,35.58V31h2.21v4.62Z"/></g></g></svg>