<svg id="Layer_1" data-name="Layer 1" xmlns="http://www.w3.org/2000/svg" viewBox="0 0 300 600"><defs><style>.cls-1{fill:#fff;}</style></defs><path class="cls-1" d="M29.42,396.91H32v8.59a3.31,3.31,0,0,0,.74,2.28,2.91,2.91,0,0,0,2.26.81,2.91,2.91,0,0,0,2.24-.8A3.17,3.17,0,0,0,38,405.5v-8.59h2.51v8.64a5.76,5.76,0,0,1-.67,2.86,4.46,4.46,0,0,1-1.93,1.84,6.58,6.58,0,0,1-2.93.62,6.47,6.47,0,0,1-2.91-.62,4.43,4.43,0,0,1-1.92-1.84,5.76,5.76,0,0,1-.68-2.86Z"/><path class="cls-1" d="M45.55,408.7a2,2,0,0,0,1.24.35,1.81,1.81,0,0,0,1.12-.31,1,1,0,0,0,.42-.81.82.82,0,0,0-.3-.72,2.63,2.63,0,0,0-.75-.33l-1.73-.47a4.44,4.44,0,0,1-1.94-1,2.34,2.34,0,0,1-.72-1.77,2.69,2.69,0,0,1,1-2.19,4.2,4.2,0,0,1,2.73-.84,4.42,4.42,0,0,1,2.76.83,2.63,2.63,0,0,1,1.07,2.21H48.12a1.08,1.08,0,0,0-.4-.89,1.66,1.66,0,0,0-1-.32,1.57,1.57,0,0,0-1,.28.93.93,0,0,0-.36.76.76.76,0,0,0,.31.69,3.52,3.52,0,0,0,1,.38l1.84.47a3.23,3.23,0,0,1,1.76,1.07,2.88,2.88,0,0,1-.51,4,5.51,5.51,0,0,1-5.85,0,2.86,2.86,0,0,1-1.14-2.32h2.4A1.25,1.25,0,0,0,45.55,408.7Z"/><path class="cls-1" d="M58.24,408.61a1.68,1.68,0,0,0,.69-.91h2.32A3.52,3.52,0,0,1,59.82,410a4.78,4.78,0,0,1-2.89.86,4.22,4.22,0,0,1-3.28-1.34,5.32,5.32,0,0,1-1.24-3.77A5.48,5.48,0,0,1,53.65,402,4.24,4.24,0,0,1,57,400.57a4.09,4.09,0,0,1,3.17,1.26,4.75,4.75,0,0,1,1.16,3.38,6.43,6.43,0,0,1-.09,1.12H54.81v.1a2.76,2.76,0,0,0,.57,1.88A2,2,0,0,0,57,409,2.25,2.25,0,0,0,58.24,408.61ZM55.4,403a2.51,2.51,0,0,0-.59,1.62h4.1v0a2.17,2.17,0,0,0-.55-1.58,1.9,1.9,0,0,0-1.45-.58A2,2,0,0,0,55.4,403Z"/><path class="cls-1" d="M76.67,408.92v1.76a4,4,0,0,1-1.21.15,2,2,0,0,1-1.31-.39,1.67,1.67,0,0,1-.59-1.14,2.58,2.58,0,0,1-1.19,1.16,4.29,4.29,0,0,1-1.91.41,3.32,3.32,0,0,1-2.32-.8,3.17,3.17,0,0,1,0-4.36,3.82,3.82,0,0,1,2.38-.9l1.92-.15a1.56,1.56,0,0,0,.67-.21.79.79,0,0,0,.26-.7,1.14,1.14,0,0,0-.42-1,1.84,1.84,0,0,0-1.16-.32,2.21,2.21,0,0,0-1.36.38,1.52,1.52,0,0,0-.63,1.06H67.4a3.43,3.43,0,0,1,1.42-2.45,5.08,5.08,0,0,1,3.05-.88,4.08,4.08,0,0,1,3,1,3.58,3.58,0,0,1,1,2.67v4a1.09,1.09,0,0,0,.11.54.46.46,0,0,0,.44.18Zm-3.25-2.72-2.28.17a1.67,1.67,0,0,0-1.08.41,1.22,1.22,0,0,0-.36.92,1.14,1.14,0,0,0,.4.94,1.62,1.62,0,0,0,1.06.33,2.21,2.21,0,0,0,1.63-.65,2.31,2.31,0,0,0,.63-1.67Z"/><path class="cls-1" d="M78.78,400.76H81l.19,1.39A2.88,2.88,0,0,1,82.44,401a3.86,3.86,0,0,1,1.8-.44,3.33,3.33,0,0,1,2.55,1,4.15,4.15,0,0,1,.9,2.92v6.23H85.28v-6a2.53,2.53,0,0,0-.43-1.52,1.54,1.54,0,0,0-1.37-.61,2,2,0,0,0-1.74.76,3.16,3.16,0,0,0-.54,1.88v5.47H78.78Z"/><path class="cls-1" d="M101.94,407.3H97.31l-1.09,3.38H93.56l4.64-13.77H101l4.79,13.77H103Zm-.64-2-1.66-5.34L98,405.27Z"/><path class="cls-1" d="M109.12,406.39a2.15,2.15,0,0,0,.74,1.76,3.14,3.14,0,0,0,2,.59,2.78,2.78,0,0,0,1.73-.49,1.57,1.57,0,0,0,.64-1.31,1.55,1.55,0,0,0-.42-1.17,3.11,3.11,0,0,0-1.29-.64l-2-.55q-3.56-1-3.55-3.85a3.7,3.7,0,0,1,.6-2.1,4,4,0,0,1,1.7-1.41,6.22,6.22,0,0,1,2.58-.5,6.14,6.14,0,0,1,2.53.49,4.07,4.07,0,0,1,1.73,1.43,3.75,3.75,0,0,1,.62,2.16h-2.5a1.81,1.81,0,0,0-.66-1.43,2.62,2.62,0,0,0-1.72-.52,2.49,2.49,0,0,0-1.58.46,1.52,1.52,0,0,0-.58,1.26,1.29,1.29,0,0,0,.42,1,3.7,3.7,0,0,0,1.42.65l2,.57a4.78,4.78,0,0,1,2.62,1.51,3.88,3.88,0,0,1,.8,2.5,3.64,3.64,0,0,1-.66,2.16,4.3,4.3,0,0,1-1.83,1.43,6.58,6.58,0,0,1-2.62.49,6.45,6.45,0,0,1-2.82-.57,4.28,4.28,0,0,1-1.82-1.58,4.46,4.46,0,0,1-.62-2.35Z"/><path class="cls-1" d="M119.48,410.68V396.91H122v13.77Z"/><path class="cls-1" d="M132.27,407.3h-4.64l-1.08,3.38h-2.66l4.63-13.77h2.8l4.79,13.77h-2.8Zm-.65-2L130,399.93l-1.69,5.34Z"/><path class="cls-1" d="M137.78,396.91h2.52V408.4h5.78v2.28h-8.3Z"/><path class="cls-1" d="M165.16,396.91v13.77h-2.47V407c0-2.74.05-4.66.17-5.76l-3,9.27h-2.38l-3-9.33c.11,1.31.17,3.24.17,5.82v3.66h-2.47V396.91h3l3.5,10.73,3.49-10.73Z"/><path class="cls-1" d="M173.54,408.61a1.66,1.66,0,0,0,.7-.91h2.32a3.52,3.52,0,0,1-1.43,2.31,4.78,4.78,0,0,1-2.89.86,4.22,4.22,0,0,1-3.28-1.34,5.32,5.32,0,0,1-1.24-3.77A5.48,5.48,0,0,1,169,402a4.24,4.24,0,0,1,3.34-1.38,4.09,4.09,0,0,1,3.17,1.26,4.75,4.75,0,0,1,1.16,3.38,6.43,6.43,0,0,1-.09,1.12h-6.42v.1a2.76,2.76,0,0,0,.56,1.88,2,2,0,0,0,1.6.64A2.2,2.2,0,0,0,173.54,408.61ZM170.71,403a2.51,2.51,0,0,0-.59,1.62h4.1v0a2.17,2.17,0,0,0-.55-1.58,1.9,1.9,0,0,0-1.45-.58A2,2,0,0,0,170.71,403Z"/><path class="cls-1" d="M192.23,401.54a3.82,3.82,0,0,1,.87,2.64v6.5h-2.41v-6.06c0-1.37-.53-2.05-1.6-2.05a1.62,1.62,0,0,0-1.37.63,2.66,2.66,0,0,0-.49,1.71v5.77h-2.41v-6c0-1.41-.53-2.11-1.6-2.11a1.62,1.62,0,0,0-1.35.62,2.56,2.56,0,0,0-.49,1.66v5.83H179v-9.92h2.11l.19,1.22a2.54,2.54,0,0,1,1.11-1,3.44,3.44,0,0,1,1.58-.37,3,3,0,0,1,1.72.51,2.55,2.55,0,0,1,1,1.32,3.09,3.09,0,0,1,1.24-1.34,3.58,3.58,0,0,1,1.86-.49A3.1,3.1,0,0,1,192.23,401.54Z"/><path class="cls-1" d="M203.62,401.27a4,4,0,0,1,1.45,1.8,6.86,6.86,0,0,1,.5,2.69,6.53,6.53,0,0,1-.53,2.72,4.1,4.1,0,0,1-1.5,1.77,4,4,0,0,1-2.25.62,3.6,3.6,0,0,1-1.78-.41,2.77,2.77,0,0,1-1.16-1.11l-.15,1.33h-2.15V396.43h2.41v5.76a2.88,2.88,0,0,1,1.2-1.14,4,4,0,0,1,4,.22Zm-1.17,6.79a4.43,4.43,0,0,0,0-4.62,2,2,0,0,0-1.65-.81,2.08,2.08,0,0,0-1.66.73,3.07,3.07,0,0,0-.68,2v.82a3.11,3.11,0,0,0,.69,2,2.1,2.1,0,0,0,1.65.74A2,2,0,0,0,202.45,408.06Z"/><path class="cls-1" d="M213.08,408.61a1.66,1.66,0,0,0,.7-.91h2.31a3.47,3.47,0,0,1-1.42,2.31,4.8,4.8,0,0,1-2.89.86,4.21,4.21,0,0,1-3.28-1.34,5.32,5.32,0,0,1-1.24-3.77A5.48,5.48,0,0,1,208.5,402a4.24,4.24,0,0,1,3.34-1.38,4.09,4.09,0,0,1,3.17,1.26,4.8,4.8,0,0,1,1.16,3.38,6.43,6.43,0,0,1-.09,1.12h-6.43v.1a2.76,2.76,0,0,0,.57,1.88,2,2,0,0,0,1.6.64A2.22,2.22,0,0,0,213.08,408.61ZM210.25,403a2.57,2.57,0,0,0-.6,1.62h4.11v0a2.22,2.22,0,0,0-.55-1.58,1.9,1.9,0,0,0-1.45-.58A2,2,0,0,0,210.25,403Z"/><path class="cls-1" d="M224.07,400.73v2.14a3.6,3.6,0,0,0-.64-.05,2.16,2.16,0,0,0-1.93.79,3.51,3.51,0,0,0-.54,2v5h-2.43v-9.92h2.12l.21,1.33a2,2,0,0,1,.92-1,2.94,2.94,0,0,1,1.48-.38A5.32,5.32,0,0,1,224.07,400.73Z"/></svg>