<svg id="Layer_1" data-name="Layer 1" xmlns="http://www.w3.org/2000/svg" viewBox="0 0 300 600"><defs><style>.cls-1{fill:#fff;}</style></defs><path class="cls-1" d="M30.31,311.2V289.47h4.95V311.2Z"/><path class="cls-1" d="M54.05,293.7H48.26v17.5h-5V293.7H37.53v-4.23H54.05Z"/><path class="cls-1" d="M61.93,294.31a8.94,8.94,0,0,1,3.55-3.82,10.5,10.5,0,0,1,5.32-1.32,10.66,10.66,0,0,1,4.61.95,7.92,7.92,0,0,1,3.19,2.66,8.74,8.74,0,0,1,1.47,4H74.73a3.57,3.57,0,0,0-1.3-2.47,4.29,4.29,0,0,0-2.72-.85,4,4,0,0,0-3.64,1.81,9.12,9.12,0,0,0-1.18,5,9.21,9.21,0,0,0,1.18,5,4,4,0,0,0,3.64,1.83,4.26,4.26,0,0,0,2.73-.86,3.58,3.58,0,0,0,1.29-2.47h5.34a8.29,8.29,0,0,1-4.77,6.68,10.31,10.31,0,0,1-4.5,1,10.5,10.5,0,0,1-5.32-1.32,9,9,0,0,1-3.55-3.83,15,15,0,0,1,0-12Z"/><path class="cls-1" d="M83.05,294.33a8.87,8.87,0,0,1,3.49-3.84,10.78,10.78,0,0,1,10.34,0,8.87,8.87,0,0,1,3.49,3.84,13.34,13.34,0,0,1,1.25,6,13.49,13.49,0,0,1-1.25,6,8.9,8.9,0,0,1-3.49,3.83,10.05,10.05,0,0,1-5.18,1.32,9.94,9.94,0,0,1-5.17-1.32,8.88,8.88,0,0,1-3.48-3.85,13.49,13.49,0,0,1-1.25-6A13.34,13.34,0,0,1,83.05,294.33Zm5.23,11.06a4.17,4.17,0,0,0,6.86,0,8.75,8.75,0,0,0,1.26-5.07,8.64,8.64,0,0,0-1.26-5,4.19,4.19,0,0,0-6.88,0,10.83,10.83,0,0,0,0,10.1Z"/><path class="cls-1" d="M126.32,289.47V311.2h-4.8v-4.7q0-6.18.24-9l-3.87,13.34h-4.67l-3.81-13.4q.27,3.27.27,9v4.7h-4.83V289.47h6.24l4.53,15.74,4.49-15.74Z"/><path class="cls-1" d="M130.63,289.47h14.63v4.23h-9.71v4.67h6.83v4h-6.83V307h9.71v4.25H130.63Z"/><path class="cls-1" d="M151.83,304.34a2.8,2.8,0,0,0,.94,2.32,4.1,4.1,0,0,0,2.65.77,3.51,3.51,0,0,0,2.2-.63,2,2,0,0,0,.83-1.65,1.86,1.86,0,0,0-.56-1.44,4,4,0,0,0-1.66-.81l-3.3-.9a7.77,7.77,0,0,1-4.24-2.46,6,6,0,0,1-1.27-3.77,6.17,6.17,0,0,1,1-3.48,6.36,6.36,0,0,1,2.8-2.31,10.31,10.31,0,0,1,4.24-.81,9.92,9.92,0,0,1,4.11.81,6.46,6.46,0,0,1,2.79,2.28,6,6,0,0,1,1,3.42h-4.85a2.17,2.17,0,0,0-.82-1.79,3.45,3.45,0,0,0-2.18-.64,3.24,3.24,0,0,0-2,.57,1.94,1.94,0,0,0-.77,1.65,1.54,1.54,0,0,0,.5,1.16,4,4,0,0,0,1.75.81l3.27.93q5.52,1.53,5.51,6.51a5.84,5.84,0,0,1-1.09,3.56,6.92,6.92,0,0,1-3,2.3,11,11,0,0,1-4.27.79,10.74,10.74,0,0,1-4.57-.9,6.69,6.69,0,0,1-2.94-2.51,7,7,0,0,1-1-3.78Z"/></svg>