<svg id="Layer_1" data-name="Layer 1" xmlns="http://www.w3.org/2000/svg" viewBox="0 0 300 600"><defs><style>.cls-1{fill:#fff;}</style></defs><path class="cls-1" d="M57.32,259,53,280.74H46.32l-.66-2.61c-.62-2.39-1.14-4.46-1.55-6.19s-.8-3.65-1.18-5.77q-.6,3.3-1.22,6.09c-.4,1.86-.9,3.91-1.48,6.17l-.57,2.31H33L28.6,259H34L36.48,275,39,264.38,40.29,259h5.13l.33,1.26q2.88,11.39,3.68,14.72l2.34-16Z"/><path class="cls-1" d="M59.89,259h4.92v8.72h8V259h5v21.73h-5v-9.11h-8v9.11H59.89Z"/><path class="cls-1" d="M82.07,259H96.7v4.23H87v4.67h6.83v4H87v4.58H96.7v4.26H82.07Z"/><path class="cls-1" d="M118,259v21.73h-4.88l-8.36-13.52v13.52H99.85V259h4.86l8.36,13.64V259Z"/></svg>