<svg id="Layer_1" data-name="Layer 1" xmlns="http://www.w3.org/2000/svg" viewBox="0 0 300 600"><defs><style>.cls-1{fill:#fff;}</style></defs><path class="cls-1" d="M44.79,324.16H39v17.5H34v-17.5H28.27v-4.23H44.79Z"/><path class="cls-1" d="M47.2,324.79A8.87,8.87,0,0,1,50.69,321,10.78,10.78,0,0,1,61,321a8.89,8.89,0,0,1,3.5,3.84,15.18,15.18,0,0,1,0,12,8.87,8.87,0,0,1-3.5,3.83,10.8,10.8,0,0,1-10.35,0,8.88,8.88,0,0,1-3.48-3.85,15.14,15.14,0,0,1,0-12Zm5.23,11.06a4.17,4.17,0,0,0,6.86,0,8.75,8.75,0,0,0,1.26-5.07,8.66,8.66,0,0,0-1.26-5,4.18,4.18,0,0,0-6.87,0,10.79,10.79,0,0,0,0,10.1Z"/><path class="cls-1" d="M78.78,334.8a2.8,2.8,0,0,0,.94,2.32,4.13,4.13,0,0,0,2.66.77,3.55,3.55,0,0,0,2.2-.63,2,2,0,0,0,.82-1.65,1.85,1.85,0,0,0-.55-1.44,4,4,0,0,0-1.67-.81l-3.29-.9A7.73,7.73,0,0,1,75.65,330a6,6,0,0,1-1.28-3.77,6.17,6.17,0,0,1,1-3.48,6.36,6.36,0,0,1,2.8-2.31,10.36,10.36,0,0,1,4.25-.81,9.9,9.9,0,0,1,4.1.81,6.46,6.46,0,0,1,2.79,2.28,6,6,0,0,1,1,3.42H85.43a2.15,2.15,0,0,0-.82-1.79,3.44,3.44,0,0,0-2.17-.64,3.27,3.27,0,0,0-2,.57,1.93,1.93,0,0,0-.76,1.65,1.56,1.56,0,0,0,.49,1.17,4.07,4.07,0,0,0,1.76.81l3.26.92q5.52,1.53,5.52,6.51a5.89,5.89,0,0,1-1.1,3.57,6.87,6.87,0,0,1-3,2.29,11,11,0,0,1-4.28.79,10.77,10.77,0,0,1-4.57-.9,6.65,6.65,0,0,1-2.93-2.51,7,7,0,0,1-1-3.78Z"/><path class="cls-1" d="M93.7,319.93h14.63v4.23H98.62v4.67h6.83v4H98.62v4.59h9.71v4.25H93.7Z"/><path class="cls-1" d="M111.45,324.77A8.88,8.88,0,0,1,115,321a10.47,10.47,0,0,1,5.32-1.32,10.62,10.62,0,0,1,4.6.95,8,8,0,0,1,3.2,2.66,8.84,8.84,0,0,1,1.46,4h-5.33a3.59,3.59,0,0,0-1.31-2.48,4.26,4.26,0,0,0-2.71-.85,4,4,0,0,0-3.64,1.81,9.12,9.12,0,0,0-1.18,5,9.21,9.21,0,0,0,1.18,5,4,4,0,0,0,3.64,1.83,4.26,4.26,0,0,0,2.73-.86,3.58,3.58,0,0,0,1.29-2.47h5.33a8.25,8.25,0,0,1-4.76,6.68,10.31,10.31,0,0,1-4.5,1,10.47,10.47,0,0,1-5.32-1.32,8.85,8.85,0,0,1-3.55-3.83,15,15,0,0,1,0-12Z"/><path class="cls-1" d="M131.89,319.93h5v13.4a4.33,4.33,0,0,0,1.08,3.13,4,4,0,0,0,3,1.13,3.93,3.93,0,0,0,3-1.11,4.41,4.41,0,0,0,1.05-3.15v-13.4h4.92v13.46a9.11,9.11,0,0,1-1.13,4.66,7.2,7.2,0,0,1-3.16,2.92,11.68,11.68,0,0,1-9.41,0,7.31,7.31,0,0,1-3.18-2.92,9,9,0,0,1-1.14-4.66Z"/><path class="cls-1" d="M170,331.13a6.43,6.43,0,0,1-2.88,2.44l3.75,8.09h-5.25l-3.17-7.31h-3.81v7.31h-4.92V319.93H163a8.47,8.47,0,0,1,5.93,2,6.83,6.83,0,0,1,2.13,5.27A7.21,7.21,0,0,1,170,331.13Zm-5.16-1.52a2.66,2.66,0,0,0,1-2.24,2.75,2.75,0,0,0-1-2.31,4.23,4.23,0,0,0-2.66-.75h-3.54v6.05h3.54A4.23,4.23,0,0,0,164.83,329.61Z"/><path class="cls-1" d="M174,341.66V319.93H179v21.73Z"/><path class="cls-1" d="M197.74,324.16H192v17.5h-5v-17.5h-5.75v-4.23h16.51Z"/><path class="cls-1" d="M203.65,319.93l4.26,8.3,4.1-8.3h6l-7.56,13.7v8h-5v-8l-7.62-13.7Z"/></svg>