<svg id="Layer_1" data-name="Layer 1" xmlns="http://www.w3.org/2000/svg" viewBox="0 0 300 600"><defs><style>.cls-1{fill:#007cc3;}.cls-2{fill:#bcbec0;}.cls-3{fill:#00285e;}</style></defs><path class="cls-1" d="M187.74,537.4h7.46l9.49,22.67h-8.17l-1.19-3h-7.88l-1.16,3h-8Zm5.72,14.31-2.05-5.47-2.06,5.47Z"/><path class="cls-1" d="M228.89,537.56h7.52v22.51h-7.52Z"/><path class="cls-1" d="M247.47,537.4h7.46l9.49,22.67h-8.17l-1.19-3h-7.88l-1.15,3h-8Zm5.73,14.31-2.06-5.47-2.06,5.47Z"/><polygon class="cls-1" points="284.11 553.64 273.4 553.64 273.4 537.56 265.88 537.56 265.88 560.07 281.57 560.07 284.11 553.64"/><path class="cls-1" d="M205.16,556.69l4-4.79a12.88,12.88,0,0,0,7.88,2.64c1.35,0,1.93-.36,1.93-1v-.06c0-.64-.71-1-3.12-1.48-5.05-1-9.48-2.48-9.48-7.23v-.07c0-4.27,3.34-7.59,9.55-7.59,4.34,0,7.55,1,10.16,3.09l-3.67,5.08a11.82,11.82,0,0,0-6.75-2.22c-1.13,0-1.64.39-1.64.93v.07c0,.61.61,1,3,1.45,5.75,1.06,9.61,2.73,9.61,7.26v.07c0,4.72-3.89,7.62-9.93,7.62C212.13,560.49,208,559.2,205.16,556.69Z"/><path class="cls-2" d="M253.07,510.35c2.76,3.54,3.83,7.09,2.6,10-2.68,6.29-15.37,6.9-28.34,1.37s-21.3-15.12-18.62-21.42c1.14-2.65,4-4.28,8-4.88-6.36.16-11.16,2.19-12.8,6-3.14,7.35,6.53,18.52,21.59,24.95s29.81,5.68,32.95-1.67C260.2,520.6,258,515.33,253.07,510.35Z"/><polygon class="cls-3" points="240.34 492.01 238.7 496.98 235.33 496.24 235.34 492.01 230.86 492.01 215.6 501.87 220.98 513.61 231.21 510.68 240.09 516.81 245.9 515.85 250.01 507.07 240.34 492.01"/><polygon class="cls-3" points="242.34 520.89 244 521.18 245.27 517.67 241.84 518.25 242.34 520.89"/><path class="cls-3" d="M184.53,573h-1.37l-.31,1h-.93l1.42-4.31h1l1.48,4.31h-1Zm-.21-.7-.47-1.53-.47,1.53Z"/><path class="cls-3" d="M186,569.72h.89v2.68a1,1,0,0,0,.22.66.86.86,0,0,0,.66.23.82.82,0,0,0,.64-.23.89.89,0,0,0,.22-.66v-2.68h.89v2.69a1.78,1.78,0,0,1-.22.91,1.43,1.43,0,0,1-.62.57,1.92,1.92,0,0,1-.92.2,2,2,0,0,1-.93-.2,1.46,1.46,0,0,1-.61-.57,1.78,1.78,0,0,1-.22-.91Z"/><path class="cls-3" d="M191,572.68a.6.6,0,0,0,.21.5.85.85,0,0,0,.58.17.72.72,0,0,0,.48-.14.43.43,0,0,0,.18-.36.45.45,0,0,0-.12-.33.86.86,0,0,0-.36-.18l-.65-.18c-.73-.2-1.1-.61-1.1-1.22a1.25,1.25,0,0,1,.19-.67,1.3,1.3,0,0,1,.55-.45,1.92,1.92,0,0,1,.83-.16,1.84,1.84,0,0,1,.8.16,1.17,1.17,0,0,1,.55.45,1.25,1.25,0,0,1,.19.67h-.88a.49.49,0,0,0-.18-.4.78.78,0,0,0-.48-.14.68.68,0,0,0-.44.13.43.43,0,0,0-.17.36.34.34,0,0,0,.12.27.88.88,0,0,0,.39.18l.64.18a1.62,1.62,0,0,1,.83.48,1.25,1.25,0,0,1,.25.8,1.13,1.13,0,0,1-.21.69,1.25,1.25,0,0,1-.58.45,2.29,2.29,0,0,1-1.73,0,1.36,1.36,0,0,1-.58-.5,1.41,1.41,0,0,1-.2-.74Z"/><path class="cls-3" d="M196.9,570.49h-1.18V574h-.89v-3.54h-1.17v-.77h3.24Z"/><path class="cls-3" d="M200.54,571.91a1.22,1.22,0,0,1-.59.48l.77,1.64h-.94l-.68-1.5h-.84V574h-.89v-4.31h1.8a1.88,1.88,0,0,1,.86.18,1.22,1.22,0,0,1,.53.5,1.38,1.38,0,0,1,.19.74A1.36,1.36,0,0,1,200.54,571.91Zm-.93-.27a.6.6,0,0,0,.2-.48.6.6,0,0,0-.2-.49.88.88,0,0,0-.57-.16h-.78v1.3H199A.88.88,0,0,0,199.61,571.64Z"/><path class="cls-3" d="M203.66,573H202.3l-.32,1h-.93l1.42-4.31h1L205,574h-1Zm-.21-.7-.46-1.53-.48,1.53Z"/><path class="cls-3" d="M205.36,569.72h.88v3.51H208v.8h-2.68Z"/><path class="cls-3" d="M208.52,574v-4.31h.89V574Z"/><path class="cls-3" d="M212.48,573h-1.37l-.32,1h-.92l1.42-4.31h1l1.48,4.31h-1Zm-.21-.7-.47-1.53-.48,1.53Z"/><path class="cls-3" d="M217.71,569.72V574h-.88l-1.75-2.82V574h-.87v-4.31h.87l1.75,2.84v-2.84Z"/><path class="cls-3" d="M221.24,572.68a.6.6,0,0,0,.21.5.85.85,0,0,0,.58.17.72.72,0,0,0,.48-.14.43.43,0,0,0,.18-.36.45.45,0,0,0-.12-.33.86.86,0,0,0-.36-.18l-.64-.18c-.74-.2-1.11-.61-1.11-1.22a1.18,1.18,0,0,1,.2-.67,1.21,1.21,0,0,1,.54-.45,2,2,0,0,1,.83-.16,1.84,1.84,0,0,1,.8.16,1.17,1.17,0,0,1,.55.45,1.25,1.25,0,0,1,.19.67h-.88a.49.49,0,0,0-.18-.4.78.78,0,0,0-.48-.14.68.68,0,0,0-.44.13.43.43,0,0,0-.17.36.34.34,0,0,0,.12.27.88.88,0,0,0,.39.18l.64.18a1.62,1.62,0,0,1,.83.48,1.25,1.25,0,0,1,.25.8,1.13,1.13,0,0,1-.21.69,1.25,1.25,0,0,1-.58.45,2.29,2.29,0,0,1-1.73,0,1.36,1.36,0,0,1-.58-.5,1.41,1.41,0,0,1-.2-.74Z"/><path class="cls-3" d="M224.29,569.72h2.89v.77h-2v1h1.42v.72h-1.42v1h2V574h-2.89Z"/><path class="cls-3" d="M227.74,570.68a1.84,1.84,0,0,1,.7-.76,2.22,2.22,0,0,1,1.94-.07,1.46,1.46,0,0,1,.62.53,1.71,1.71,0,0,1,.29.79h-1a.84.84,0,0,0-.28-.54.93.93,0,0,0-.58-.18.85.85,0,0,0-.77.37,1.85,1.85,0,0,0-.26,1,1.91,1.91,0,0,0,.26,1.06.85.85,0,0,0,.77.38.92.92,0,0,0,.58-.19.84.84,0,0,0,.28-.54h1a1.75,1.75,0,0,1-.29.79,1.51,1.51,0,0,1-.64.53,1.93,1.93,0,0,1-.88.19,2.06,2.06,0,0,1-1-.26,1.84,1.84,0,0,1-.7-.76,3.1,3.1,0,0,1,0-2.39Z"/><path class="cls-3" d="M231.81,569.72h.89v2.68a1,1,0,0,0,.22.66.86.86,0,0,0,.66.23.82.82,0,0,0,.64-.23.89.89,0,0,0,.22-.66v-2.68h.89v2.69a1.78,1.78,0,0,1-.22.91,1.43,1.43,0,0,1-.62.57,1.92,1.92,0,0,1-.92.2,2,2,0,0,1-.93-.2,1.46,1.46,0,0,1-.61-.57,1.78,1.78,0,0,1-.22-.91Z"/><path class="cls-3" d="M239.3,571.91a1.19,1.19,0,0,1-.58.48l.77,1.64h-1l-.67-1.5H237V574h-.9v-4.31h1.81a1.84,1.84,0,0,1,.85.18,1.19,1.19,0,0,1,.54.5,1.47,1.47,0,0,1,.18.74A1.36,1.36,0,0,1,239.3,571.91Zm-.93-.27a.6.6,0,0,0,.2-.48.6.6,0,0,0-.2-.49.85.85,0,0,0-.56-.16H237v1.3h.78A.85.85,0,0,0,238.37,571.64Z"/><path class="cls-3" d="M240.15,574v-4.31h.9V574Z"/><path class="cls-3" d="M244.76,570.49h-1.18V574h-.89v-3.54h-1.18v-.77h3.25Z"/><path class="cls-3" d="M246,569.72l.9,1.75.86-1.75h1.08l-1.49,2.7V574h-.9v-1.61l-1.49-2.7Z"/><path class="cls-3" d="M251.32,574v-4.31h.89V574Z"/><path class="cls-3" d="M256.58,569.72V574h-.88L254,571.21V574h-.87v-4.31H254l1.75,2.84v-2.84Z"/><path class="cls-3" d="M257.45,569.72H259a2.35,2.35,0,0,1,1.15.27,1.88,1.88,0,0,1,.77.76,2.28,2.28,0,0,1,.27,1.13A2.3,2.3,0,0,1,261,573a1.86,1.86,0,0,1-.77.75A2.35,2.35,0,0,1,259,574h-1.58Zm1.5,3.54a1.35,1.35,0,0,0,1-.38,1.4,1.4,0,0,0,.36-1,1.36,1.36,0,0,0-.37-1,1.34,1.34,0,0,0-1-.37h-.62v2.77Z"/><path class="cls-3" d="M261.79,569.72h.89v2.68a.92.92,0,0,0,.22.66.85.85,0,0,0,.65.23.83.83,0,0,0,.65-.23.89.89,0,0,0,.22-.66v-2.68h.89v2.69a1.88,1.88,0,0,1-.22.91,1.43,1.43,0,0,1-.62.57,1.92,1.92,0,0,1-.92.2,2,2,0,0,1-.93-.2,1.4,1.4,0,0,1-.61-.57,1.78,1.78,0,0,1-.22-.91Z"/><path class="cls-3" d="M266.73,572.68a.6.6,0,0,0,.21.5.85.85,0,0,0,.58.17.72.72,0,0,0,.48-.14.43.43,0,0,0,.18-.36.45.45,0,0,0-.12-.33.86.86,0,0,0-.36-.18l-.65-.18c-.73-.2-1.1-.61-1.1-1.22a1.25,1.25,0,0,1,.19-.67,1.3,1.3,0,0,1,.55-.45,1.92,1.92,0,0,1,.83-.16,1.84,1.84,0,0,1,.8.16,1.15,1.15,0,0,1,.54.45,1.18,1.18,0,0,1,.2.67h-.88a.49.49,0,0,0-.18-.4.78.78,0,0,0-.48-.14.66.66,0,0,0-.44.13.43.43,0,0,0-.17.36.37.37,0,0,0,.11.27,1,1,0,0,0,.4.18l.64.18a1.58,1.58,0,0,1,.82.48,1.2,1.2,0,0,1,.26.8,1.13,1.13,0,0,1-.21.69,1.31,1.31,0,0,1-.58.45,2.29,2.29,0,0,1-1.73,0,1.3,1.3,0,0,1-.58-.5,1.41,1.41,0,0,1-.2-.74Z"/><path class="cls-3" d="M272.65,570.49h-1.18V574h-.89v-3.54h-1.17v-.77h3.24Z"/><path class="cls-3" d="M276.29,571.91a1.22,1.22,0,0,1-.59.48l.77,1.64h-1l-.67-1.5H274V574h-.89v-4.31h1.8a1.91,1.91,0,0,1,.86.18,1.22,1.22,0,0,1,.53.5,1.47,1.47,0,0,1,.18.74A1.45,1.45,0,0,1,276.29,571.91Zm-.94-.27a.57.57,0,0,0,.2-.48.58.58,0,0,0-.2-.49.85.85,0,0,0-.56-.16H274v1.3h.78A.85.85,0,0,0,275.35,571.64Z"/><path class="cls-3" d="M277.6,569.72l.9,1.75.86-1.75h1.08l-1.49,2.7V574h-.9v-1.61l-1.49-2.7Z"/><path class="cls-3" d="M202.28,580.55h-1.36l-.32,1h-.93l1.42-4.31h1l1.48,4.31h-1Zm-.2-.69-.47-1.54-.48,1.54Z"/><path class="cls-3" d="M204.6,580.21a.6.6,0,0,0,.21.5.86.86,0,0,0,.58.18.78.78,0,0,0,.48-.14.46.46,0,0,0,.18-.37.45.45,0,0,0-.12-.33,1,1,0,0,0-.36-.18l-.65-.17c-.73-.21-1.1-.62-1.1-1.22a1.29,1.29,0,0,1,.19-.68,1.3,1.3,0,0,1,.55-.45,2.08,2.08,0,0,1,.83-.16,2,2,0,0,1,.8.16,1.3,1.3,0,0,1,.55.45,1.26,1.26,0,0,1,.19.68h-.88a.48.48,0,0,0-.18-.4.73.73,0,0,0-.48-.15.68.68,0,0,0-.44.13.45.45,0,0,0-.17.36.37.37,0,0,0,.11.27,1.14,1.14,0,0,0,.4.19l.64.17a1.56,1.56,0,0,1,.83.49,1.22,1.22,0,0,1,.25.79,1.18,1.18,0,0,1-.21.7,1.4,1.4,0,0,1-.58.45,2.24,2.24,0,0,1-.84.15,2,2,0,0,1-.89-.18,1.3,1.3,0,0,1-.58-.5,1.39,1.39,0,0,1-.2-.74Z"/><path class="cls-3" d="M208.31,580.21a.6.6,0,0,0,.2.5.86.86,0,0,0,.58.18.84.84,0,0,0,.49-.14.46.46,0,0,0,.18-.37.42.42,0,0,0-.13-.33,1,1,0,0,0-.36-.18l-.64-.17c-.74-.21-1.1-.62-1.1-1.22a1.2,1.2,0,0,1,.19-.68,1.27,1.27,0,0,1,.54-.45,2.12,2.12,0,0,1,.83-.16,2,2,0,0,1,.8.16,1.3,1.3,0,0,1,.55.45,1.18,1.18,0,0,1,.19.68h-.87a.48.48,0,0,0-.18-.4.77.77,0,0,0-.49-.15.68.68,0,0,0-.44.13.45.45,0,0,0-.17.36.34.34,0,0,0,.12.27,1,1,0,0,0,.39.19l.64.17a1.56,1.56,0,0,1,.83.49,1.22,1.22,0,0,1,.25.79,1.18,1.18,0,0,1-.21.7,1.4,1.4,0,0,1-.58.45,2.24,2.24,0,0,1-.84.15,2,2,0,0,1-.89-.18,1.35,1.35,0,0,1-.58-.5,1.39,1.39,0,0,1-.2-.74Z"/><path class="cls-3" d="M211.36,578.22a1.71,1.71,0,0,1,.69-.76,1.85,1.85,0,0,1,1-.27,1.89,1.89,0,0,1,1,.27,1.74,1.74,0,0,1,.68.76,2.75,2.75,0,0,1,.24,1.19,2.72,2.72,0,0,1-.24,1.19,1.74,1.74,0,0,1-.68.76,1.94,1.94,0,0,1-1,.26,1.88,1.88,0,0,1-1-.26,1.77,1.77,0,0,1-.68-.77,3,3,0,0,1,0-2.37Zm1,2.25a.84.84,0,0,0,.72.37.86.86,0,0,0,.74-.38,1.82,1.82,0,0,0,.26-1.05,1.79,1.79,0,0,0-.27-1.06.85.85,0,0,0-.73-.37.83.83,0,0,0-.73.38,2.23,2.23,0,0,0,0,2.11Z"/><path class="cls-3" d="M215.69,578.22a1.65,1.65,0,0,1,.69-.76,2,2,0,0,1,1-.27,2.13,2.13,0,0,1,.9.19,1.63,1.63,0,0,1,.63.53,1.74,1.74,0,0,1,.28.79h-1a.75.75,0,0,0-.28-.53.86.86,0,0,0-.58-.19.84.84,0,0,0-.77.38,1.85,1.85,0,0,0-.26,1,1.9,1.9,0,0,0,.26,1.05.86.86,0,0,0,.77.38.85.85,0,0,0,.58-.19.79.79,0,0,0,.28-.54h1a1.66,1.66,0,0,1-.92,1.33,2.14,2.14,0,0,1-.89.18,2,2,0,0,1-1-.26,1.7,1.7,0,0,1-.69-.76,3,3,0,0,1,0-2.38Z"/><path class="cls-3" d="M219.83,581.56v-4.31h.9v4.31Z"/><path class="cls-3" d="M223.8,580.55h-1.37l-.32,1h-.93l1.43-4.31h1l1.48,4.31h-1Zm-.21-.69-.47-1.54-.48,1.54Z"/><path class="cls-3" d="M228,578h-1.18v3.54h-.89V578h-1.17v-.77H228Z"/><path class="cls-3" d="M228.44,581.56v-4.31h.89v4.31Z"/><path class="cls-3" d="M230.24,578.22a1.77,1.77,0,0,1,.69-.76,1.85,1.85,0,0,1,1-.27,1.89,1.89,0,0,1,1,.27,1.74,1.74,0,0,1,.68.76,2.75,2.75,0,0,1,.24,1.19,2.72,2.72,0,0,1-.24,1.19,1.74,1.74,0,0,1-.68.76,1.91,1.91,0,0,1-1,.26,1.88,1.88,0,0,1-1-.26,1.77,1.77,0,0,1-.68-.77,3,3,0,0,1,0-2.37Zm1,2.25a.84.84,0,0,0,.72.37.86.86,0,0,0,.74-.38,1.82,1.82,0,0,0,.26-1.05,1.79,1.79,0,0,0-.27-1.06.85.85,0,0,0-.73-.37.83.83,0,0,0-.73.38,2.23,2.23,0,0,0,0,2.11Z"/><path class="cls-3" d="M238,577.25v4.31h-.88l-1.75-2.81v2.81h-.87v-4.31h.87l1.75,2.84v-2.84Z"/><path class="cls-3" d="M240.12,577.25H241v3.52h1.8v.79h-2.69Z"/><path class="cls-3" d="M243.28,581.56v-4.31h.89v4.31Z"/><path class="cls-3" d="M249.21,577.25v4.31h-.86v-1c0-.86,0-1.46.05-1.8l-.86,2.79h-.84l-.85-2.8c0,.42.06,1,.06,1.81v1H245v-4.31h1.1l1,3.24,1-3.24Z"/><path class="cls-3" d="M250.08,581.56v-4.31H251v4.31Z"/><path class="cls-3" d="M254.68,578H253.5v3.54h-.89V578h-1.17v-.77h3.24Z"/><path class="cls-3" d="M255.15,577.25H258V578h-2v1h1.42v.72H256v1h2v.77h-2.88Z"/><path class="cls-3" d="M258.67,577.25h1.58a2.35,2.35,0,0,1,1.15.27,1.88,1.88,0,0,1,.77.76,2.3,2.3,0,0,1,.27,1.13,2.28,2.28,0,0,1-.27,1.13,1.88,1.88,0,0,1-.77.76,2.35,2.35,0,0,1-1.15.26h-1.58Zm1.5,3.54a1.34,1.34,0,0,0,1-.37,1.41,1.41,0,0,0,.36-1,1.26,1.26,0,0,0-1.36-1.37h-.62v2.76Z"/></svg>