<?xml version="1.0" encoding="UTF-8"?><svg id="Layer_2" xmlns="http://www.w3.org/2000/svg" xmlns:xlink="http://www.w3.org/1999/xlink" viewBox="0 0 73.55 37.48"><defs><style>.cls-1,.cls-2{fill:none;}.cls-3{clip-path:url(#clippath);}.cls-4{fill:#fff;}.cls-5{fill:#ff3008;}.cls-6{fill:#ce2e19;}.cls-7{fill:#c5e8e9;}.cls-8{fill:#10322c;}.cls-9{fill:#221f20;}.cls-10{fill:#27346b;}.cls-11{clip-path:url(#clippath-1);}.cls-2{stroke:#27346b;stroke-miterlimit:10;stroke-width:1.15px;}</style><clipPath id="clippath"><ellipse class="cls-1" cx="36.78" cy="18.74" rx="36.2" ry="18.16"/></clipPath><clipPath id="clippath-1"><ellipse class="cls-2" cx="36.78" cy="18.74" rx="36.2" ry="18.16"/></clipPath></defs><g id="Layer_3"><g><g><path class="cls-4" d="M31.22,31.62c-1.28-10.28-1.03-20.4,.76-30.75C14.3,2.06,.67,9.67,.67,18.87c0,1.72,.48,3.39,1.37,4.97,6.34,4.2,16,6.89,28.88,7.76,.1,0,.2,.01,.31,.02Z"/><path class="cls-4" d="M2.37,24.39c-.05-.07-.09-.14-.13-.22,.04,.07,.09,.14,.13,.22Z"/><path class="cls-5" d="M31.22,31.62c2.05,.13,4.18,.22,6.4,.26,.44,0,.87,0,1.3,0,.14,0,.27,0,.41,0-1.32-10.4-1.07-20.62,.75-31.09-1.07-.05-2.15-.07-3.25-.07-1.64,0-3.26,.06-4.84,.16-1.79,10.35-2.04,20.47-.76,30.75Z"/><path class="cls-7" d="M40.22,36.82c16.1-.76,29.13-6.81,32.11-14.65-6.76,5.81-18.5,9.44-33.01,9.7,.21,1.65,.46,3.3,.74,4.95,.05,0,.1,0,.15,0Z"/><path class="cls-7" d="M2.02,23.83c.07,.12,.14,.23,.21,.34-.07-.11-.13-.22-.2-.33,0,0-.01,0-.02-.01Z"/><path class="cls-7" d="M2.44,24.5s-.05-.07-.07-.11c.02,.04,.05,.07,.07,.11Z"/><path class="cls-7" d="M31.98,36.74c-.3-1.71-.55-3.42-.76-5.12-.1,0-.2-.01-.31-.02-12.88-.87-22.53-3.57-28.88-7.76,.06,.11,.13,.22,.2,.33,.04,.07,.09,.14,.13,.22,.02,.04,.05,.07,.07,.11,4.31,6.47,15.69,11.32,29.54,12.24Z"/><path class="cls-6" d="M37.62,31.89c-2.22-.04-4.35-.13-6.4-.26,.21,1.7,.46,3.41,.76,5.12,1.57,.1,3.17,.16,4.8,.16,.91,0,1.81-.02,2.7-.05,.2,0,.39-.01,.59-.02-.29-1.66-.54-3.31-.74-4.95-.14,0-.27,0-.41,0-.43,0-.86,0-1.3,0Z"/></g><g><path class="cls-4" d="M39.32,31.87c13.76-.25,25.03-3.53,31.92-8.82H38.58c.12,2.93,.37,5.87,.74,8.82Z"/><path class="cls-4" d="M40.07,.78c-.83,4.77-1.33,9.49-1.5,14.19h33.58C68.82,7.33,55.91,1.49,40.07,.78Z"/><path class="cls-4" d="M40.22,36.82s-.1,0-.15,0c-.2,0-.39,.02-.59,.02-.89,.03-1.79,.05-2.7,.05-1.63,0-3.23-.06-4.8-.16-13.85-.92-25.23-5.77-29.54-12.24,4.71,7.28,18.33,12.54,34.39,12.54,17.11,0,31.44-5.97,35.19-13.99h-.07c-3.6,7.41-16.24,13.03-31.73,13.77Z"/><path class="cls-5" d="M38.57,14.98H1.29s-.99,1.95-.85,3.97c.14,2.02,1.06,4.1,1.06,4.1H38.58c-.11-2.69-.12-5.38-.02-8.07Z"/><path class="cls-5" d="M71.24,23.05h.7c.14-.29,.27-.58,.39-.88-.35,.3-.71,.59-1.09,.88Z"/><path class="cls-5" d="M72.14,14.98H38.57c-.1,2.69-.09,5.38,.02,8.07h32.66c.38-.29,.74-.58,1.09-.88-.11,.3-.25,.59-.39,.88h.07c.63-1.34,.96-2.74,.96-4.18,0-1.34-.29-2.64-.83-3.9Z"/></g><path class="cls-9" d="M72.59,17.65c-.57-6.05-11.42-8.61-16.39-9.84,5.09,1.16,16.13,3.57,16.75,9.84,0,0-.36,0-.36,0h0Z"/><path class="cls-10" d="M36.78,37.32C16.57,37.32,.13,28.99,.13,18.74S16.57,.15,36.78,.15s36.64,8.34,36.64,18.59-16.44,18.59-36.64,18.59ZM36.78,1C17.06,1,1.02,8.96,1.02,18.74s16.04,17.74,35.76,17.74,35.76-7.96,35.76-17.74S56.49,1,36.78,1Z"/><g class="cls-3"><g><path class="cls-10" d="M24.72,6.1c-3-1.74-10.89-3.09-15.87-1.44-2.57,.85-5.35,2.43-7.98,4.27,11.9-3.39,15.51-3.06,23.85-2.83Z"/><path class="cls-10" d="M-1.29,10.52c-8.16,6.33-12.54,15.58-2.91,7.36C6.03,9.15,17.15,7.62,24.72,6.67c-8.59,0-13.01-.02-26,3.85Z"/></g></g><g><g class="cls-11"><polygon class="cls-8" points="36.93 31.93 36.93 31.93 36.93 31.93 36.93 31.93"/><path class="cls-10" d="M67.21,29.62c9.19-6.1,15.51-13.85,3.92-6.9-12.63,7.58-25.26,8.98-31,9.2,6.36,.85,12.95,.8,27.08-2.3Z"/><path class="cls-10" d="M49.65,33.28c-4.4,.2-5.32,.23-9.29-.4,3.06,2.09,10.17,3.54,15.6,2.18,2.8-.7,5.89-2.17,8.83-3.92-6.26,1.3-11.03,1.95-15.15,2.14Z"/></g><ellipse class="cls-2" cx="36.78" cy="18.74" rx="36.2" ry="18.16"/></g></g></g></svg>