<?xml version="1.0" encoding="UTF-8"?><svg id="Layer_2" xmlns="http://www.w3.org/2000/svg" viewBox="0 0 303.87 17.76"><defs><style>.cls-1{fill:#27346b;}</style></defs><g id="Layer_3"><g><path class="cls-1" d="M0,.48H12.72V4.8H4.56v2.88h6.24v4.08H4.56v5.52H0V.48Z"/><path class="cls-1" d="M23.36,0c5.38,0,9.36,3.96,9.36,8.88s-3.98,8.88-9.36,8.88-9.36-3.96-9.36-8.88S17.98,0,23.36,0Zm0,13.56c2.62,0,4.68-2.04,4.68-4.68s-2.06-4.68-4.68-4.68-4.68,2.06-4.68,4.68,2.04,4.68,4.68,4.68Z"/><path class="cls-1" d="M35.51,.48h7.92c3.58,0,6.12,2.52,6.12,5.76,0,1.82-.7,3-1.44,3.74-.41,.43-.89,.79-1.44,1.06l3.48,6.24h-4.8l-2.76-5.28h-2.52v5.28h-4.56V.48Zm7.68,7.44c1.08,0,1.8-.72,1.8-1.68s-.72-1.68-1.8-1.68h-3.12v3.36h3.12Z"/><path class="cls-1" d="M61.79,11.28L55.79,.48h5.04l3.19,6.6h.1l3.19-6.6h5.04l-6,10.8v6h-4.56v-6Z"/><path class="cls-1" d="M81.34,0c5.38,0,9.36,3.96,9.36,8.88s-3.98,8.88-9.36,8.88-9.36-3.96-9.36-8.88S75.96,0,81.34,0Zm0,13.56c2.62,0,4.68-2.04,4.68-4.68s-2.06-4.68-4.68-4.68-4.68,2.06-4.68,4.68,2.04,4.68,4.68,4.68Z"/><path class="cls-1" d="M93.33,.48h4.56V10.32c0,1.92,1.32,3.24,3.12,3.24s3.12-1.32,3.12-3.24V.48h4.56V10.32c0,4.32-3.14,7.44-7.68,7.44s-7.68-3.12-7.68-7.44V.48Z"/><path class="cls-1" d="M122.01,.48h5.04l6.36,16.8h-4.92l-1.2-3.6h-5.52l-1.2,3.6h-4.92L122.01,.48Zm4.08,9.48l-1.51-4.8h-.1l-1.51,4.8h3.12Z"/><path class="cls-1" d="M135.18,.48h3.96l7.2,9.24V.48h4.56V17.28h-3.96l-7.2-9.24v9.24h-4.56V.48Z"/><path class="cls-1" d="M154.71,.48h6.24c5.4,0,9.12,3.72,9.12,8.4s-3.72,8.4-9.12,8.4h-6.24V.48Zm6.24,12.72c2.62,0,4.44-1.82,4.44-4.32s-1.82-4.32-4.44-4.32h-1.68V13.2h1.68Z"/><path class="cls-1" d="M179.19,12.24c.26,.26,.58,.5,.91,.72,.58,.36,1.42,.72,2.45,.72,1.44,0,2.16-.72,2.16-1.56s-.72-1.56-2.16-1.56h-1.68v-3.72h1.68c1.22,0,1.8-.6,1.8-1.44s-.58-1.44-1.8-1.44c-.84,0-1.54,.31-2.02,.67-.29,.19-.53,.41-.74,.65l-2.64-2.76c.43-.46,.96-.89,1.56-1.25,1.03-.65,2.52-1.27,4.44-1.27,3.72,0,6,2.28,6,4.8,0,1.42-.7,2.28-1.44,2.83-.41,.31-.89,.58-1.44,.77,.62,.22,1.18,.5,1.68,.89,.84,.65,1.68,1.68,1.68,3.31,0,2.76-2.4,5.16-6.6,5.16-2.04,0-3.65-.67-4.78-1.37-.65-.41-1.2-.89-1.7-1.39l2.64-2.76Z"/><path class="cls-1" d="M197.67,.48h12.72V4.8h-8.16v2.88h6.24v4.08h-6.24v5.52h-4.56V.48Z"/><path class="cls-1" d="M212.83,.48h7.92c3.58,0,6.12,2.52,6.12,5.76,0,1.82-.7,3-1.44,3.74-.41,.43-.89,.79-1.44,1.06l3.48,6.24h-4.8l-2.76-5.28h-2.52v5.28h-4.56V.48Zm7.68,7.44c1.08,0,1.8-.72,1.8-1.68s-.72-1.68-1.8-1.68h-3.12v3.36h3.12Z"/><path class="cls-1" d="M229.95,.48h4.56V17.28h-4.56V.48Z"/><path class="cls-1" d="M238.27,.48h12.84V4.56h-8.28v2.4h6.36v3.84h-6.36v2.4h8.52v4.08h-13.08V.48Z"/><path class="cls-1" d="M254.39,.48h3.96l7.2,9.24V.48h4.56V17.28h-3.96l-7.2-9.24v9.24h-4.56V.48Z"/><path class="cls-1" d="M273.92,.48h6.24c5.4,0,9.12,3.72,9.12,8.4s-3.72,8.4-9.12,8.4h-6.24V.48Zm6.24,12.72c2.62,0,4.44-1.82,4.44-4.32s-1.82-4.32-4.44-4.32h-1.68V13.2h1.68Z"/><path class="cls-1" d="M293.19,12c.29,.34,.62,.65,.98,.91,.65,.46,1.54,.89,2.62,.89,1.44,0,2.16-.7,2.16-1.44,0-2.28-7.92-1.32-7.92-7.2,0-2.64,2.4-5.16,6.36-5.16,2.04,0,3.5,.6,4.46,1.2,.55,.36,1.03,.74,1.42,1.2l-2.64,2.88c-.22-.24-.46-.46-.74-.65-.48-.36-1.18-.67-2.02-.67-1.34,0-1.92,.6-1.92,1.2,0,2.28,7.92,1.32,7.92,7.2,0,2.88-2.5,5.4-6.6,5.4-2.3,0-3.94-.7-5.06-1.44-.65-.41-1.2-.89-1.66-1.44l2.64-2.88Z"/></g></g></svg>