<?xml version="1.0" encoding="UTF-8"?><svg id="Layer_2" xmlns="http://www.w3.org/2000/svg" viewBox="0 0 404.17 38.19"><defs><style>.cls-1{fill:#ff3008;}</style></defs><g id="Layer_3"><g><path class="cls-1" d="M7.64,1.03h28.64l-2.01,9.55H17.24l-.93,4.39h12.9l-1.75,8.26H14.55l-.93,4.39H31.17l-2.01,9.55H0L7.64,1.03Z"/><path class="cls-1" d="M53.23,1.03h13.16l5.52,36.12h-11.87l-.62-6.97h-10.58l-3.51,6.97h-12.9L53.23,1.03Zm5.57,21.16l-.67-10.06h-.26l-5.01,10.06h5.93Z"/><path class="cls-1" d="M83.35,11.61h-9.55l2.22-10.58h30.71l-2.22,10.58h-9.55l-5.42,25.54h-11.61l5.42-25.54Z"/><path class="cls-1" d="M126.13,24.25L118.13,1.03h11.87l3.04,13.68h.26l8.82-13.68h13.42l-17.8,23.22-2.73,12.9h-11.61l2.74-12.9Z"/><path class="cls-1" d="M173,0c11.71,0,19.09,8.1,19.09,17.8,0,11.3-9.55,20.38-21.93,20.38-11.71,0-19.09-8.1-19.09-17.8,0-11.3,9.55-20.38,21.93-20.38Zm-2.32,27.87c5.42,0,9.81-4.23,9.81-9.8,0-4.13-3.3-7.74-8-7.74-5.42,0-9.81,4.23-9.81,9.81,0,4.13,3.3,7.74,8,7.74Z"/><path class="cls-1" d="M199.25,1.03h11.61l-4.28,20.33c-.05,.26-.16,.83-.16,1.24,0,2.84,1.65,5.01,4.75,5.01s5.37-2.22,5.99-5.11l4.54-21.47h11.61l-4.8,22.66c-1.81,8.57-9.08,14.5-18.06,14.5-9.86,0-15.74-6.3-15.74-14.55,0-1.6,.21-2.32,.41-3.35l4.13-19.25Z"/><path class="cls-1" d="M238.77,1.03h16.1c7.48,0,12.64,5.26,12.64,11.87,0,4.39-1.96,7.43-3.97,9.44-1.19,1.13-2.48,2.06-3.97,2.84l3.82,11.97h-11.15l-3.1-10.32h-4.23l-2.17,10.32h-11.61L238.77,1.03Zm13.68,16c2.01,0,3.46-1.5,3.46-3.41,0-1.81-1.03-2.79-3.1-2.79h-4.49l-1.34,6.19h5.47Z"/><path class="cls-1" d="M281.44,1.03h11.61l.67,19.87h.26l9.91-19.87h9.29l1.45,19.87h.26l9.13-19.87h13.16l-19.51,36.12h-10.32l-1.81-19.09h-.21l-9.86,19.09h-9.81l-4.23-36.12Z"/><path class="cls-1" d="M345.99,1.03h13.16l5.52,36.12h-11.87l-.62-6.97h-10.58l-3.51,6.97h-12.9L345.99,1.03Zm5.57,21.16l-.67-10.06h-.26l-5.01,10.06h5.93Z"/><path class="cls-1" d="M374.76,24.25l-8-23.22h11.87l3.04,13.68h.26l8.82-13.68h13.42l-17.8,23.22-2.73,12.9h-11.61l2.74-12.9Z"/></g></g></svg>