<?xml version="1.0" encoding="UTF-8"?><svg id="Layer_2" xmlns="http://www.w3.org/2000/svg" viewBox="0 0 302.9 40.4"><defs><style>.cls-1{fill:none;stroke:#27346b;stroke-miterlimit:10;stroke-width:2.21px;}</style></defs><g id="Layer_3"><g><path class="cls-1" d="M10.91,12.71H1.36L3.58,2.14h30.71l-2.22,10.58h-9.55l-5.42,25.54H5.49L10.91,12.71Z"/><path class="cls-1" d="M56.33,1.1c11.71,0,19.09,8.1,19.09,17.8,0,11.3-9.55,20.38-21.93,20.38-11.71,0-19.09-8.1-19.09-17.8,0-11.3,9.55-20.38,21.93-20.38Zm-2.32,27.87c5.42,0,9.81-4.23,9.81-9.8,0-4.13-3.3-7.74-8-7.74-5.42,0-9.81,4.23-9.81,9.81,0,4.13,3.3,7.74,8,7.74Z"/><path class="cls-1" d="M102.76,12.71h-9.55l2.22-10.58h30.71l-2.22,10.58h-9.55l-5.42,25.54h-11.61l5.42-25.54Z"/><path class="cls-1" d="M131.27,2.14h11.61l-2.68,12.64h10.84l2.68-12.64h11.61l-7.64,36.12h-11.61l2.79-13.16h-10.84l-2.79,13.16h-11.61l7.64-36.12Z"/><path class="cls-1" d="M174.04,2.14h28.64l-2.01,9.55h-17.03l-.93,4.39h12.9l-1.75,8.26h-12.9l-.93,4.39h17.55l-2.01,9.55h-29.16l7.64-36.12Z"/><path class="cls-1" d="M222.54,2.14h11.61l-4.28,20.33c-.05,.26-.16,.83-.16,1.24,0,2.84,1.65,5.01,4.75,5.01s5.37-2.22,5.99-5.11l4.54-21.47h11.61l-4.8,22.66c-1.81,8.57-9.08,14.5-18.06,14.5-9.86,0-15.74-6.3-15.74-14.55,0-1.6,.21-2.32,.41-3.35l4.13-19.25Z"/><path class="cls-1" d="M264.85,2.14h11.61l-2.63,12.39,12.7-12.39h13.67l-16.05,15.74,8.36,20.38h-12.85l-4.85-11.82-4.33,4.03-1.65,7.79h-11.61l7.64-36.12Z"/></g></g></svg>