<?xml version="1.0" encoding="UTF-8"?><svg id="Layer_2" xmlns="http://www.w3.org/2000/svg" viewBox="0 0 177.28 49.12"><defs><style>.cls-1{fill:#fff;}.cls-2{fill:#ff3008;}</style></defs><g id="Layer_3"><g><rect class="cls-2" x="0" y="0" width="177.28" height="49.12" rx="24.56" ry="24.56"/><g><path class="cls-1" d="M30.53,17.65c4.5,0,7.83,3.31,7.83,7.42s-3.33,7.42-7.83,7.42-7.83-3.31-7.83-7.42,3.33-7.42,7.83-7.42Zm0,11.34c2.19,0,3.91-1.71,3.91-3.91s-1.73-3.91-3.91-3.91-3.91,1.73-3.91,3.91,1.71,3.91,3.91,3.91Z"/><path class="cls-1" d="M40.72,18.05h6.62c2.99,0,5.12,2.11,5.12,4.82,0,1.53-.58,2.51-1.2,3.13-.34,.36-.74,.66-1.2,.88l2.91,5.22h-4.01l-2.31-4.41h-2.11v4.41h-3.81v-14.05Zm6.42,6.22c.9,0,1.5-.6,1.5-1.41s-.6-1.4-1.5-1.4h-2.61v2.81h2.61Z"/><path class="cls-1" d="M55.07,18.05h5.22c4.51,0,7.62,3.11,7.62,7.02s-3.11,7.02-7.62,7.02h-5.22v-14.05Zm5.22,10.63c2.19,0,3.71-1.53,3.71-3.61s-1.52-3.61-3.71-3.61h-1.4v7.22h1.4Z"/><path class="cls-1" d="M70.28,18.05h10.73v3.41h-6.92v2.01h5.32v3.21h-5.32v2.01h7.12v3.41h-10.94v-14.05Z"/><path class="cls-1" d="M83.78,18.05h6.62c2.99,0,5.12,2.11,5.12,4.82,0,1.53-.58,2.51-1.2,3.13-.34,.36-.74,.66-1.2,.88l2.91,5.22h-4.01l-2.31-4.41h-2.11v4.41h-3.81v-14.05Zm6.42,6.22c.9,0,1.5-.6,1.5-1.41s-.6-1.4-1.5-1.4h-2.61v2.81h2.61Z"/><path class="cls-1" d="M102.55,18.05h3.31l6.02,7.73v-7.73h3.81v14.05h-3.31l-6.02-7.73v7.73h-3.81v-14.05Z"/><path class="cls-1" d="M125.88,17.65c4.5,0,7.83,3.31,7.83,7.42s-3.33,7.42-7.83,7.42-7.83-3.31-7.83-7.42,3.33-7.42,7.83-7.42Zm0,11.34c2.19,0,3.91-1.71,3.91-3.91s-1.73-3.91-3.91-3.91-3.91,1.73-3.91,3.91,1.71,3.91,3.91,3.91Z"/><path class="cls-1" d="M134.1,18.05h4.11l2.21,8.23h.1l2.51-8.23h3.41l2.51,8.23h.1l2.21-8.23h4.11l-4.62,14.05h-3.41l-2.57-8.43h-.08l-2.57,8.43h-3.41l-4.62-14.05Z"/></g></g></g></svg>