<?xml version="1.0" encoding="utf-8"?>
<!-- Generator: Adobe Illustrator 26.5.0, SVG Export Plug-In . SVG Version: 6.00 Build 0)  -->
<svg version="1.1" id="Layer_3" xmlns="http://www.w3.org/2000/svg" xmlns:xlink="http://www.w3.org/1999/xlink" x="0px" y="0px"
	 viewBox="0 0 970 250" style="enable-background:new 0 0 970 250;" xml:space="preserve">
<style type="text/css">
	.st0{fill:#273B6B;}
</style>
<g>
	<path class="st0" d="M135.1,197.7h1.1l2.9,3.7l2.9-3.7h1.1v7.7h-1.2v-5.7l-2.8,3.6l-2.8-3.6v5.7h-1.2L135.1,197.7L135.1,197.7z"/>
	<path class="st0" d="M145.6,197.8c0.3,0,0.7,0.3,0.7,0.7s-0.3,0.7-0.7,0.7s-0.7-0.3-0.7-0.7S145.2,197.8,145.6,197.8z M145,200.1
		h1.1v5.3H145V200.1z"/>
	<path class="st0" d="M147.7,200.1h1.1v0.8c0.1-0.2,0.2-0.3,0.4-0.4c0.3-0.2,0.7-0.4,1.2-0.4c1.2,0,2.1,0.9,2.1,2.3v3.1h-1.1v-3.1
		c0-0.8-0.5-1.3-1.2-1.3c-0.8,0-1.4,0.6-1.4,1.5v2.9h-1.1V200.1z"/>
	<path class="st0" d="M158.8,200c1.5,0,2.8,1.2,2.8,2.8s-1.2,2.8-2.8,2.8s-2.8-1.2-2.8-2.8S157.3,200,158.8,200z M160.5,202.8
		c0-1-0.7-1.7-1.6-1.7s-1.6,0.7-1.6,1.7s0.7,1.7,1.6,1.7S160.5,203.8,160.5,202.8z"/>
	<path class="st0" d="M162.8,200.1h1.1v0.7c0.1-0.1,0.2-0.3,0.4-0.4c0.3-0.2,0.7-0.4,1.2-0.4h0.3v1.2l-0.1,0c-0.1,0-0.2,0-0.3,0
		c-0.8,0-1.4,0.7-1.4,1.6v2.7h-1.1L162.8,200.1L162.8,200.1z"/>
	<path class="st0" d="M170.6,204.6c-0.1,0.2-0.2,0.3-0.4,0.4c-0.3,0.2-0.8,0.4-1.4,0.4c-1.3,0-2.5-1.2-2.5-2.8s1.2-2.8,2.5-2.8
		c0.6,0,1.1,0.2,1.4,0.4c0.2,0.1,0.3,0.3,0.4,0.4v-3.2h1.1v7.7h-1.1V204.6z M170.6,202.8c0-1-0.7-1.7-1.6-1.7s-1.6,0.7-1.6,1.7
		s0.7,1.7,1.6,1.7S170.6,203.8,170.6,202.8z"/>
	<path class="st0" d="M178,204.5c-0.1,0.2-0.3,0.4-0.6,0.5c-0.4,0.2-0.9,0.5-1.7,0.5c-1.5,0-2.8-1.2-2.8-2.8s1.2-2.8,2.7-2.8
		s2.6,1.1,2.6,2.6c0,0.2,0,0.3,0,0.4l0,0.1h-4.1c0.1,0.7,0.8,1.3,1.6,1.3c0.5,0,0.9-0.2,1.1-0.4c0.1-0.1,0.3-0.2,0.4-0.4L178,204.5
		L178,204.5z M177.1,202.2c-0.2-0.7-0.6-1.2-1.4-1.2c-0.8,0-1.3,0.5-1.5,1.2H177.1L177.1,202.2z"/>
	<path class="st0" d="M179.4,200.1h1.1v0.7c0.1-0.1,0.2-0.3,0.4-0.4c0.3-0.2,0.7-0.4,1.2-0.4h0.3v1.2l-0.1,0c-0.1,0-0.2,0-0.3,0
		c-0.8,0-1.4,0.7-1.4,1.6v2.7h-1.1L179.4,200.1L179.4,200.1z"/>
	<path class="st0" d="M185.9,203.5c0.1,0.2,0.3,0.3,0.5,0.4c0.3,0.2,0.8,0.4,1.5,0.4c1,0,1.5-0.5,1.5-1.2c0-1.7-4.1-0.7-4.1-3.5
		c0-1.1,0.8-1.9,2-2.1v-1.1h1.1v1.1c0.6,0.1,1.1,0.3,1.4,0.6c0.2,0.1,0.4,0.3,0.5,0.4l-0.8,0.8c-0.1-0.1-0.2-0.2-0.4-0.4
		c-0.3-0.2-0.7-0.4-1.2-0.4c-0.9,0-1.4,0.5-1.4,1c0,1.7,4.1,0.7,4.1,3.5c0,1.2-0.9,2-2.1,2.2v1.1h-1.1v-1.1
		c-0.8-0.1-1.3-0.4-1.7-0.6c-0.2-0.1-0.4-0.3-0.6-0.5L185.9,203.5L185.9,203.5z"/>
	<path class="st0" d="M196.6,204.2v1.2h-5.2c0-3.5,4-3.6,4-5.4c0-0.7-0.5-1.2-1.4-1.2c-0.6,0-0.9,0.3-1.2,0.5
		c-0.1,0.1-0.2,0.3-0.3,0.5l-1-0.4c0.1-0.3,0.3-0.6,0.5-0.9c0.4-0.4,1-0.9,2-0.9c1.5,0,2.6,1,2.6,2.4c0,2.2-2.9,2.6-3.7,4.3
		L196.6,204.2L196.6,204.2z"/>
	<path class="st0" d="M197.8,201.6c0-2.5,1.4-4,3.2-4s3.2,1.4,3.2,4s-1.4,4-3.2,4S197.8,204.1,197.8,201.6z M200.9,198.7
		c-1,0-2,0.9-2,2.9s0.9,2.9,2,2.9s2-0.9,2-2.9S202,198.7,200.9,198.7z"/>
	<path class="st0" d="M205.2,204.8c0-0.4,0.3-0.7,0.7-0.7s0.7,0.3,0.7,0.7s-0.3,0.7-0.7,0.7S205.2,205.2,205.2,204.8z"/>
	<path class="st0" d="M209.6,197.7h1.3l2.4,6.2l2.4-6.2h1.3l-3,7.7h-1.3L209.6,197.7L209.6,197.7z"/>
	<path class="st0" d="M218.2,197.8c0.3,0,0.7,0.3,0.7,0.7s-0.3,0.7-0.7,0.7s-0.7-0.3-0.7-0.7S217.9,197.8,218.2,197.8z M217.7,200.1
		h1.1v5.3h-1.1V200.1z"/>
	<path class="st0" d="M220.6,203.8c0.1,0.1,0.2,0.3,0.4,0.4c0.2,0.2,0.6,0.4,1,0.4c0.6,0,0.9-0.3,0.9-0.7c0-0.9-2.8-0.4-2.8-2.3
		c0-0.8,0.7-1.5,1.9-1.5c0.6,0,1.1,0.2,1.4,0.4c0.2,0.1,0.3,0.2,0.5,0.4l-0.7,0.7c-0.1-0.1-0.2-0.1-0.3-0.2
		c-0.2-0.1-0.5-0.2-0.9-0.2c-0.6,0-0.8,0.3-0.8,0.6c0,0.9,2.8,0.4,2.8,2.3c0,0.9-0.8,1.6-2,1.6c-0.7,0-1.2-0.2-1.6-0.5
		c-0.2-0.1-0.4-0.3-0.5-0.5L220.6,203.8L220.6,203.8z"/>
	<path class="st0" d="M225.8,197.8c0.3,0,0.7,0.3,0.7,0.7s-0.3,0.7-0.7,0.7s-0.7-0.3-0.7-0.7S225.4,197.8,225.8,197.8z M225.2,200.1
		h1.1v5.3h-1.1V200.1z"/>
	<path class="st0" d="M228.4,201.2h-1v-1h0.6c0.3,0,0.5-0.2,0.5-0.6v-1.2h1v1.8h1.2v1h-1.2v2.5c0,0.6,0.2,0.8,0.8,0.8
		c0.2,0,0.3,0,0.4-0.1l0.2-0.1v1l-0.2,0.1c-0.1,0-0.3,0.1-0.6,0.1c-1.1,0-1.6-0.6-1.6-1.8L228.4,201.2L228.4,201.2z"/>
	<path class="st0" d="M234.6,197.7h1.1v7.7h-1.1V197.7z"/>
	<path class="st0" d="M239.7,200c1.5,0,2.8,1.2,2.8,2.8s-1.2,2.8-2.8,2.8s-2.8-1.2-2.8-2.8S238.2,200,239.7,200z M241.4,202.8
		c0-1-0.7-1.7-1.6-1.7s-1.6,0.7-1.6,1.7s0.7,1.7,1.6,1.7S241.4,203.8,241.4,202.8z"/>
	<path class="st0" d="M243.7,200.1h1.1v0.8c0.1-0.2,0.2-0.3,0.4-0.4c0.3-0.2,0.7-0.4,1.2-0.4c1.2,0,2.1,0.9,2.1,2.3v3.1h-1.1v-3.1
		c0-0.8-0.5-1.3-1.2-1.3c-0.8,0-1.4,0.6-1.4,1.5v2.9h-1.1V200.1z"/>
	<path class="st0" d="M254,204.6c-0.1,0.2-0.2,0.3-0.4,0.4c-0.3,0.2-0.8,0.4-1.4,0.4c-1.3,0-2.5-1.2-2.5-2.8s1.2-2.8,2.5-2.8
		c0.6,0,1.1,0.2,1.4,0.4c0.2,0.1,0.3,0.3,0.4,0.4v-3.2h1.1v7.7H254V204.6z M254,202.8c0-1-0.7-1.7-1.6-1.7s-1.6,0.7-1.6,1.7
		s0.7,1.7,1.6,1.7S254,203.8,254,202.8z"/>
	<path class="st0" d="M259.1,200c1.5,0,2.8,1.2,2.8,2.8s-1.2,2.8-2.8,2.8s-2.8-1.2-2.8-2.8S257.6,200,259.1,200z M260.8,202.8
		c0-1-0.7-1.7-1.6-1.7s-1.6,0.7-1.6,1.7s0.7,1.7,1.6,1.7S260.8,203.8,260.8,202.8z"/>
	<path class="st0" d="M263.1,200.1h1.1v0.8c0.1-0.2,0.2-0.3,0.4-0.4c0.3-0.2,0.7-0.4,1.2-0.4c1.2,0,2.1,0.9,2.1,2.3v3.1h-1.1v-3.1
		c0-0.8-0.5-1.3-1.2-1.3c-0.8,0-1.4,0.6-1.4,1.5v2.9h-1.1V200.1z"/>
	<path class="st0" d="M274.1,204.4c-0.2,0.2-0.4,0.4-0.6,0.6c-0.4,0.3-0.9,0.6-1.7,0.6c-1.5,0-2.8-1.2-2.8-2.8s1.2-2.8,2.8-2.8
		c0.8,0,1.3,0.3,1.7,0.5c0.2,0.1,0.4,0.3,0.5,0.5l-0.8,0.7c-0.1-0.1-0.2-0.2-0.4-0.4c-0.2-0.2-0.6-0.4-1.1-0.4
		c-0.9,0-1.6,0.7-1.6,1.7s0.7,1.7,1.6,1.7c0.5,0,0.8-0.2,1.1-0.4c0.1-0.1,0.3-0.2,0.4-0.4L274.1,204.4L274.1,204.4z"/>
	<path class="st0" d="M278.3,204.6c-0.1,0.2-0.2,0.3-0.4,0.4c-0.3,0.2-0.7,0.4-1.3,0.4c-1.1,0-1.8-0.7-1.8-1.5
		c0-0.9,0.6-1.5,1.5-1.6l1.9-0.3c0-0.6-0.4-1-1.1-1c-0.4,0-0.8,0.2-1,0.4c-0.1,0.1-0.3,0.2-0.4,0.4l-0.7-0.7
		c0.1-0.2,0.3-0.4,0.5-0.5c0.4-0.2,0.9-0.5,1.6-0.5c1.3,0,2.2,0.9,2.2,2v3.4h-1.1V204.6z M278.3,202.9l-1.5,0.3
		c-0.6,0.1-0.8,0.4-0.8,0.7c0,0.4,0.3,0.7,0.9,0.7c0.8,0,1.5-0.7,1.5-1.5V202.9L278.3,202.9z"/>
	<path class="st0" d="M281,197.7h1.1v7.7H281V197.7z"/>
	<path class="st0" d="M283.7,197.7h1.1v7.7h-1.1V197.7z"/>
	<path class="st0" d="M287,197.8c0.3,0,0.7,0.3,0.7,0.7s-0.3,0.7-0.7,0.7s-0.7-0.3-0.7-0.7S286.7,197.8,287,197.8z M286.5,200.1h1.1
		v5.3h-1.1V200.1z"/>
	<path class="st0" d="M289.2,200.1h1.1v0.8c0.1-0.2,0.2-0.3,0.4-0.4c0.3-0.2,0.7-0.4,1.2-0.4c1.2,0,2.1,0.9,2.1,2.3v3.1h-1.1v-3.1
		c0-0.8-0.5-1.3-1.2-1.3c-0.8,0-1.4,0.6-1.4,1.5v2.9h-1.1V200.1z"/>
	<path class="st0" d="M296.1,205.9c0.1,0.1,0.2,0.3,0.4,0.4c0.2,0.2,0.6,0.4,1.1,0.4c1,0,1.6-0.6,1.6-1.7v-0.5
		c-0.1,0.1-0.2,0.3-0.4,0.4c-0.3,0.2-0.7,0.4-1.3,0.4c-1.3,0-2.4-1.1-2.4-2.6s1.1-2.6,2.4-2.6c0.6,0,1,0.2,1.3,0.4
		c0.2,0.1,0.3,0.3,0.4,0.4v-0.7h1.1v4.8c0,1.6-1.2,2.8-2.8,2.8c-0.8,0-1.3-0.3-1.7-0.6c-0.2-0.2-0.4-0.3-0.6-0.6L296.1,205.9
		L296.1,205.9z M299.3,202.6c0-0.9-0.7-1.6-1.5-1.6s-1.5,0.7-1.5,1.6s0.7,1.6,1.5,1.6S299.3,203.6,299.3,202.6z"/>
	<path class="st0" d="M301.6,204.8c0-0.4,0.3-0.7,0.7-0.7s0.7,0.3,0.7,0.7s-0.3,0.7-0.7,0.7S301.6,205.2,301.6,204.8z"/>
	<path class="st0" d="M309,204.4c-0.2,0.2-0.4,0.4-0.6,0.6c-0.4,0.3-0.9,0.6-1.7,0.6c-1.5,0-2.8-1.2-2.8-2.8s1.2-2.8,2.8-2.8
		c0.8,0,1.3,0.3,1.7,0.5c0.2,0.1,0.4,0.3,0.5,0.5l-0.8,0.7c-0.1-0.1-0.2-0.2-0.4-0.4c-0.2-0.2-0.6-0.4-1.1-0.4
		c-0.9,0-1.6,0.7-1.6,1.7s0.7,1.7,1.6,1.7c0.5,0,0.8-0.2,1.1-0.4c0.1-0.1,0.3-0.2,0.4-0.4L309,204.4L309,204.4z"/>
	<path class="st0" d="M312.4,200c1.5,0,2.8,1.2,2.8,2.8s-1.2,2.8-2.8,2.8s-2.8-1.2-2.8-2.8S310.8,200,312.4,200z M314,202.8
		c0-1-0.7-1.7-1.6-1.7s-1.6,0.7-1.6,1.7s0.7,1.7,1.6,1.7S314,203.8,314,202.8z"/>
	<path class="st0" d="M316.3,200.1h1.1v0.8c0.1-0.2,0.2-0.3,0.4-0.4c0.2-0.2,0.6-0.4,1.2-0.4s1,0.2,1.2,0.4c0.1,0.1,0.3,0.3,0.4,0.4
		c0.1-0.2,0.2-0.3,0.4-0.4c0.3-0.2,0.8-0.4,1.4-0.4c1,0,1.9,0.9,1.9,2.3v3.1h-1.1v-3.1c0-0.8-0.5-1.2-1.1-1.2
		c-0.7,0-1.3,0.6-1.3,1.4v2.9h-1.1v-3.1c0-0.8-0.5-1.2-1.1-1.2c-0.7,0-1.3,0.6-1.3,1.4v2.9h-1.1V200.1L316.3,200.1z"/>
	<path class="st0" d="M328.6,201.2h-0.8v-1h0.8v-0.8c0-1.2,0.6-1.8,1.6-1.8c0.2,0,0.5,0,0.6,0.1c0.1,0,0.1,0.1,0.2,0.1v1l-0.2-0.1
		c-0.1,0-0.3-0.1-0.4-0.1c-0.5,0-0.8,0.3-0.8,0.8v0.7h1.3v1h-1.3v4.2h-1.1L328.6,201.2L328.6,201.2z"/>
	<path class="st0" d="M334.5,200c1.5,0,2.8,1.2,2.8,2.8s-1.2,2.8-2.8,2.8s-2.8-1.2-2.8-2.8S332.9,200,334.5,200z M336.1,202.8
		c0-1-0.7-1.7-1.6-1.7s-1.6,0.7-1.6,1.7s0.7,1.7,1.6,1.7S336.1,203.8,336.1,202.8z"/>
	<path class="st0" d="M338.5,200.1h1.1v0.7c0.1-0.1,0.2-0.3,0.4-0.4c0.3-0.2,0.7-0.4,1.2-0.4h0.3v1.2l-0.1,0c-0.1,0-0.2,0-0.3,0
		c-0.8,0-1.4,0.7-1.4,1.6v2.7h-1.1L338.5,200.1L338.5,200.1z"/>
	<path class="st0" d="M344.9,201.2h-0.8v-1h0.8v-0.8c0-1.2,0.6-1.8,1.6-1.8c0.2,0,0.5,0,0.6,0.1c0.1,0,0.1,0.1,0.2,0.1v1l-0.2-0.1
		c-0.1,0-0.3-0.1-0.4-0.1c-0.5,0-0.8,0.3-0.8,0.8v0.7h1.3v1H346v4.2h-1.1L344.9,201.2L344.9,201.2z"/>
	<path class="st0" d="M348.4,200.1h1.1v3.1c0,0.8,0.5,1.3,1.2,1.3c0.8,0,1.4-0.6,1.4-1.5v-2.9h1.1v5.3h-1.1v-0.8
		c-0.1,0.2-0.2,0.3-0.4,0.4c-0.3,0.2-0.7,0.4-1.2,0.4c-1.2,0-2.1-0.9-2.1-2.3L348.4,200.1L348.4,200.1z"/>
	<path class="st0" d="M354.8,197.7h1.1v7.7h-1.1V197.7z"/>
	<path class="st0" d="M357.5,197.7h1.1v7.7h-1.1V197.7z"/>
	<path class="st0" d="M364.3,198.9H362v-1.2h5.8v1.2h-2.3v6.6h-1.2V198.9z"/>
	<path class="st0" d="M372.9,203.2c0.1-0.1,0.1-0.3,0.2-0.4c0.1-0.3,0.2-0.7,0.2-1.1h1c0,0.7-0.2,1.2-0.4,1.7
		c-0.1,0.2-0.2,0.5-0.4,0.7c0.1,0.1,0.1,0.2,0.2,0.2c0.2,0.1,0.4,0.2,0.6,0.2c0.1,0,0.1,0,0.2,0l0.1,0v1l-0.1,0c-0.1,0-0.2,0-0.4,0
		c-0.4,0-0.7-0.2-1-0.4c-0.1-0.1-0.2-0.2-0.4-0.4c-0.1,0.1-0.3,0.3-0.5,0.4c-0.4,0.2-0.9,0.4-1.5,0.4c-1.4,0-2.2-0.9-2.2-2
		c0-0.8,0.4-1.3,0.7-1.7c0.2-0.2,0.5-0.4,0.8-0.5c-0.2-0.2-0.4-0.4-0.5-0.6c-0.3-0.4-0.5-0.9-0.5-1.4c0-1,0.8-1.8,1.9-1.8
		s1.9,0.8,1.9,1.7c0,0.6-0.4,1.1-0.7,1.5c-0.2,0.2-0.4,0.4-0.7,0.6L372.9,203.2L372.9,203.2z M370.7,202c-0.2,0.1-0.4,0.3-0.5,0.4
		c-0.2,0.3-0.5,0.6-0.5,1.1c0,0.6,0.5,1,1.2,1c0.4,0,0.8-0.1,1-0.3c0.1-0.1,0.2-0.2,0.4-0.3L370.7,202L370.7,202z M371.3,200.3
		c0.2-0.3,0.4-0.6,0.4-0.9c0-0.4-0.3-0.8-0.8-0.8c-0.6,0-0.9,0.3-0.9,0.8c0,0.3,0.2,0.6,0.4,0.9c0.1,0.1,0.3,0.3,0.4,0.5
		C371,200.6,371.2,200.4,371.3,200.3L371.3,200.3z"/>
	<path class="st0" d="M382.7,204c-0.2,0.3-0.5,0.5-0.8,0.8c-0.5,0.4-1.3,0.8-2.4,0.8c-2.3,0-4.1-1.8-4.1-4s1.8-4,4.1-4
		c1.1,0,1.8,0.4,2.4,0.8c0.3,0.2,0.6,0.5,0.8,0.7l-0.8,0.8c-0.1-0.2-0.4-0.4-0.6-0.6c-0.4-0.3-1-0.6-1.8-0.6c-1.6,0-2.9,1.3-2.9,2.9
		s1.3,2.9,2.9,2.9c0.8,0,1.4-0.3,1.8-0.6c0.2-0.2,0.5-0.4,0.6-0.6L382.7,204L382.7,204z"/>
	<path class="st0" d="M384,203.8c0.1,0.1,0.2,0.3,0.4,0.4c0.2,0.2,0.6,0.4,1,0.4c0.6,0,0.9-0.3,0.9-0.7c0-0.9-2.8-0.4-2.8-2.3
		c0-0.8,0.7-1.5,1.9-1.5c0.6,0,1.1,0.2,1.4,0.4c0.2,0.1,0.3,0.2,0.5,0.4l-0.7,0.7c-0.1-0.1-0.2-0.1-0.3-0.2
		c-0.2-0.1-0.5-0.2-0.9-0.2c-0.6,0-0.8,0.3-0.8,0.6c0,0.9,2.8,0.4,2.8,2.3c0,0.9-0.8,1.6-2,1.6c-0.7,0-1.2-0.2-1.6-0.5
		c-0.2-0.1-0.4-0.3-0.5-0.5L384,203.8L384,203.8z"/>
	<path class="st0" d="M388.3,204.8c0-0.4,0.3-0.7,0.7-0.7s0.7,0.3,0.7,0.7s-0.3,0.7-0.7,0.7S388.3,205.2,388.3,204.8z"/>
	<path class="st0" d="M144.6,211.6h1.1l4.2,5.7v-5.7h1.2v7.7H150l-4.2-5.7v5.7h-1.2V211.6z"/>
	<path class="st0" d="M153.4,217.4c0.1,0.2,0.3,0.3,0.5,0.4c0.3,0.2,0.8,0.4,1.5,0.4c1,0,1.5-0.5,1.5-1.2c0-1.7-4.1-0.7-4.1-3.5
		c0-1.1,1-2.1,2.6-2.1c0.8,0,1.4,0.2,1.8,0.5c0.2,0.1,0.4,0.3,0.6,0.5l-0.8,0.8c-0.1-0.1-0.2-0.2-0.4-0.4c-0.3-0.2-0.7-0.4-1.2-0.4
		c-0.9,0-1.4,0.5-1.4,1c0,1.7,4.1,0.7,4.1,3.5c0,1.2-1.1,2.3-2.8,2.3c-0.9,0-1.6-0.3-2.1-0.6c-0.3-0.2-0.5-0.4-0.7-0.6L153.4,217.4
		L153.4,217.4z"/>
	<path class="st0" d="M158.5,211.6h1.3l1.9,5.8l1.8-5.8h1.2l1.8,5.8l1.9-5.8h1.3l-2.5,7.7h-1.2l-1.8-5.8l-1.8,5.8H161L158.5,211.6
		L158.5,211.6z"/>
	<path class="st0" d="M174.3,212.7H172v-1.2h5.8v1.2h-2.3v6.6h-1.2V212.7z"/>
	<path class="st0" d="M179.2,211.6h3.1c1.5,0,2.6,1.1,2.6,2.5s-1.1,2.5-2.6,2.5h-1.9v2.8h-1.2V211.6L179.2,211.6z M182.2,215.4
		c0.8,0,1.4-0.6,1.4-1.4s-0.6-1.4-1.4-1.4h-1.9v2.8L182.2,215.4L182.2,215.4z"/>
	<path class="st0" d="M188.6,211.4h1l-3.3,10.1h-1L188.6,211.4z"/>
	<path class="st0" d="M190.2,215.4c0-2.5,1.4-4,3.2-4s3.2,1.4,3.2,4s-1.4,4-3.2,4S190.2,217.9,190.2,215.4z M193.4,212.5
		c-1,0-2,0.9-2,2.9s0.9,2.9,2,2.9s2-0.9,2-2.9S194.4,212.5,193.4,212.5z"/>
	<path class="st0" d="M202.8,218.1v1.2h-5.2c0-3.5,4-3.6,4-5.4c0-0.7-0.5-1.2-1.4-1.2c-0.6,0-0.9,0.3-1.2,0.5
		c-0.1,0.1-0.2,0.3-0.3,0.5l-1-0.4c0.1-0.3,0.3-0.6,0.5-0.9c0.4-0.4,1-0.9,2-0.9c1.5,0,2.6,1,2.6,2.4c0,2.2-2.9,2.6-3.7,4.3
		L202.8,218.1L202.8,218.1z"/>
	<path class="st0" d="M204,215.4c0-2.5,1.4-4,3.2-4s3.2,1.4,3.2,4s-1.4,4-3.2,4S204,217.9,204,215.4z M207.2,212.5c-1,0-2,0.9-2,2.9
		s0.9,2.9,2,2.9s2-0.9,2-2.9S208.2,212.5,207.2,212.5z"/>
	<path class="st0" d="M214.3,211.6h1.3l-1.8,2.7l0.1,0c0.1,0,0.2,0,0.4,0c1.5,0,2.6,1.2,2.6,2.6s-1.2,2.6-2.8,2.6s-2.8-1.2-2.8-2.6
		c0-0.4,0.1-0.9,0.3-1.2c0.1-0.2,0.2-0.4,0.3-0.5L214.3,211.6z M214.2,218.3c0.9,0,1.5-0.7,1.5-1.5s-0.7-1.5-1.5-1.5
		s-1.5,0.7-1.5,1.5S213.3,218.3,214.2,218.3z"/>
	<path class="st0" d="M223,218.1v1.2h-5.2c0-3.5,4-3.6,4-5.4c0-0.7-0.5-1.2-1.4-1.2c-0.6,0-0.9,0.3-1.2,0.5
		c-0.1,0.1-0.2,0.3-0.3,0.5l-1-0.4c0.1-0.3,0.3-0.6,0.5-0.9c0.4-0.4,1-0.9,2-0.9c1.5,0,2.6,1,2.6,2.4c0,2.2-2.9,2.6-3.7,4.3
		L223,218.1L223,218.1z"/>
	<path class="st0" d="M224.1,218.6c0-0.4,0.3-0.7,0.7-0.7s0.7,0.3,0.7,0.7s-0.3,0.7-0.7,0.7S224.1,219,224.1,218.6z"/>
	<path class="st0" d="M231.5,211.6h1.3l3.1,7.7h-1.3l-0.8-2h-3.4l-0.8,2h-1.3L231.5,211.6z M233.5,216.2l-1.3-3.2l-1.3,3.2H233.5z"
		/>
	<path class="st0" d="M243.7,217.8c-0.2,0.3-0.5,0.5-0.8,0.8c-0.5,0.4-1.3,0.8-2.4,0.8c-2.3,0-4.1-1.8-4.1-4s1.8-4,4.1-4
		c1.1,0,1.8,0.4,2.4,0.8c0.3,0.2,0.6,0.5,0.8,0.7l-0.8,0.8c-0.1-0.2-0.4-0.4-0.6-0.6c-0.4-0.3-1-0.6-1.8-0.6c-1.6,0-2.9,1.3-2.9,2.9
		s1.3,2.9,2.9,2.9c0.8,0,1.4-0.3,1.8-0.6c0.2-0.2,0.4-0.4,0.6-0.6L243.7,217.8L243.7,217.8z"/>
	<path class="st0" d="M246.5,212.7h-2.3v-1.2h5.8v1.2h-2.3v6.6h-1.2V212.7z"/>
	<path class="st0" d="M254.8,212.7h-2.3v-1.2h5.8v1.2H256v6.6h-1.2V212.7z"/>
	<path class="st0" d="M259.6,211.6h3.1c1.5,0,2.6,1.1,2.6,2.5s-1.1,2.5-2.6,2.5h-1.9v2.8h-1.2V211.6L259.6,211.6z M262.7,215.4
		c0.8,0,1.4-0.6,1.4-1.4s-0.6-1.4-1.4-1.4h-1.9v2.8L262.7,215.4L262.7,215.4z"/>
	<path class="st0" d="M273.3,218.1v1.2h-5.2c0-3.5,4-3.6,4-5.4c0-0.7-0.5-1.2-1.4-1.2c-0.6,0-1,0.3-1.2,0.5
		c-0.1,0.1-0.2,0.3-0.3,0.5l-1-0.4c0.1-0.3,0.3-0.6,0.5-0.9c0.4-0.4,1-0.9,2-0.9c1.5,0,2.6,1,2.6,2.4c0,2.2-2.9,2.6-3.7,4.3
		L273.3,218.1L273.3,218.1z"/>
	<path class="st0" d="M279.5,218.1v1.2h-5.2c0-3.5,4-3.6,4-5.4c0-0.7-0.5-1.2-1.4-1.2c-0.6,0-1,0.3-1.2,0.5
		c-0.1,0.1-0.2,0.3-0.3,0.5l-1-0.4c0.1-0.3,0.3-0.6,0.5-0.9c0.4-0.4,1-0.9,2-0.9c1.5,0,2.6,1,2.6,2.4c0,2.2-2.9,2.6-3.7,4.3
		L279.5,218.1L279.5,218.1z"/>
	<path class="st0" d="M283.4,211.4h1l-3.3,10.1h-1L283.4,211.4z"/>
	<path class="st0" d="M285,215.4c0-2.5,1.4-4,3.2-4s3.2,1.4,3.2,4s-1.4,4-3.2,4S285,217.9,285,215.4z M288.2,212.5c-1,0-2,0.9-2,2.9
		s0.9,2.9,2,2.9s2-0.9,2-2.9S289.2,212.5,288.2,212.5z"/>
	<path class="st0" d="M293.7,213.4h-1.4v-0.8c1-0.1,1.4-0.5,1.6-1.1h0.9v7.7h-1.2V213.4L293.7,213.4z"/>
	<path class="st0" d="M297.3,217.4c0.1,0.2,0.3,0.3,0.5,0.4c0.3,0.2,0.8,0.4,1.4,0.4c1,0,1.6-0.6,1.6-1.5s-0.6-1.5-1.6-1.5
		c-0.5,0-0.8,0.2-1.1,0.4c-0.1,0.1-0.3,0.2-0.4,0.4l-0.9-0.1l0.3-4.4h4.4v1.2h-3.3l-0.1,1.9c0.1-0.1,0.2-0.1,0.4-0.2
		c0.2-0.1,0.5-0.2,1-0.2c1.5,0,2.6,1.1,2.6,2.6s-1.1,2.6-2.8,2.6c-0.9,0-1.6-0.3-2-0.6c-0.3-0.2-0.5-0.4-0.7-0.6L297.3,217.4
		L297.3,217.4z"/>
	<path class="st0" d="M307.9,218.1v1.2h-5.2c0-3.5,4-3.6,4-5.4c0-0.7-0.5-1.2-1.4-1.2c-0.6,0-1,0.3-1.2,0.5
		c-0.1,0.1-0.2,0.3-0.3,0.5l-1-0.4c0.1-0.3,0.3-0.6,0.5-0.9c0.4-0.4,1-0.9,2-0.9c1.5,0,2.6,1,2.6,2.4c0,2.2-2.9,2.6-3.7,4.3
		L307.9,218.1L307.9,218.1z"/>
	<path class="st0" d="M310.2,213.4h-1.4v-0.8c1-0.1,1.4-0.5,1.6-1.1h0.9v7.7h-1.2V213.4L310.2,213.4z"/>
	<path class="st0" d="M313,218.6c0-0.4,0.3-0.7,0.7-0.7s0.7,0.3,0.7,0.7s-0.3,0.7-0.7,0.7S313,219,313,218.6z"/>
	<path class="st0" d="M318.4,217.4c0.1,0.2,0.3,0.3,0.5,0.4c0.3,0.2,0.8,0.4,1.5,0.4c1,0,1.5-0.5,1.5-1.2c0-1.7-4.1-0.7-4.1-3.5
		c0-1.1,1-2.1,2.6-2.1c0.8,0,1.4,0.2,1.8,0.5c0.2,0.1,0.5,0.3,0.6,0.5l-0.8,0.8c-0.1-0.1-0.2-0.2-0.4-0.4c-0.3-0.2-0.7-0.4-1.2-0.4
		c-0.9,0-1.4,0.5-1.4,1c0,1.7,4.1,0.7,4.1,3.5c0,1.2-1,2.3-2.8,2.3c-0.9,0-1.6-0.3-2.1-0.6c-0.3-0.2-0.5-0.4-0.7-0.6L318.4,217.4
		L318.4,217.4z"/>
	<path class="st0" d="M326.7,211.6h1.3l3.1,7.7h-1.3l-0.8-2h-3.4l-0.8,2h-1.3L326.7,211.6L326.7,211.6z M328.7,216.2l-1.3-3.2
		l-1.3,3.2H328.7z"/>
	<path class="st0" d="M335.8,212.7h-2.3v-1.2h5.8v1.2H337v6.6h-1.2V212.7z"/>
	<path class="st0" d="M345,218.1v1.2h-5.2c0-3.5,4-3.6,4-5.4c0-0.7-0.5-1.2-1.4-1.2c-0.6,0-1,0.3-1.2,0.5c-0.1,0.1-0.2,0.3-0.3,0.5
		l-1-0.4c0.1-0.3,0.3-0.6,0.5-0.9c0.4-0.4,1-0.9,2-0.9c1.5,0,2.6,1,2.6,2.4c0,2.2-2.9,2.6-3.7,4.3L345,218.1L345,218.1z"/>
	<path class="st0" d="M351.2,218.1v1.2H346c0-3.5,4-3.6,4-5.4c0-0.7-0.5-1.2-1.4-1.2c-0.6,0-1,0.3-1.2,0.5c-0.1,0.1-0.2,0.3-0.3,0.5
		l-1-0.4c0.1-0.3,0.3-0.6,0.5-0.9c0.4-0.4,1-0.9,2-0.9c1.5,0,2.6,1,2.6,2.4c0,2.2-2.9,2.6-3.7,4.3L351.2,218.1L351.2,218.1z"/>
	<path class="st0" d="M355.1,211.4h1l-3.3,10.1h-1L355.1,211.4z"/>
	<path class="st0" d="M357.9,213.4h-1.4v-0.8c1-0.1,1.4-0.5,1.6-1.1h0.9v7.7h-1.2V213.4L357.9,213.4z"/>
	<path class="st0" d="M361.9,213.4h-1.4v-0.8c1-0.1,1.4-0.5,1.6-1.1h0.9v7.7h-1.2L361.9,213.4L361.9,213.4z"/>
	<path class="st0" d="M367.9,216.6l-0.1,0c-0.1,0-0.2,0-0.4,0c-1.5,0-2.6-1.2-2.6-2.6s1.2-2.6,2.8-2.6s2.8,1.2,2.8,2.6
		c0,0.4-0.1,0.9-0.3,1.2c-0.1,0.2-0.2,0.4-0.3,0.5l-2.2,3.5h-1.3L367.9,216.6L367.9,216.6z M367.5,215.5c0.9,0,1.5-0.7,1.5-1.5
		s-0.7-1.5-1.5-1.5s-1.5,0.7-1.5,1.5S366.6,215.5,367.5,215.5z"/>
	<path class="st0" d="M371.3,215.4c0-2.5,1.4-4,3.2-4s3.2,1.4,3.2,4s-1.4,4-3.2,4S371.3,217.9,371.3,215.4z M374.5,212.5
		c-1,0-2,0.9-2,2.9s0.9,2.9,2,2.9s2-0.9,2-2.9S375.6,212.5,374.5,212.5z"/>
	<path class="st0" d="M378.8,218.6c0-0.4,0.3-0.7,0.7-0.7s0.7,0.3,0.7,0.7s-0.3,0.7-0.7,0.7S378.8,219,378.8,218.6z"/>
</g>
</svg>
