<?xml version="1.0" encoding="UTF-8"?><svg id="Layer_2" xmlns="http://www.w3.org/2000/svg" viewBox="0 0 206.14 23.75"><defs><style>.cls-1{fill:#ff3008;}</style></defs><g id="Layer_3"><g><path class="cls-1" d="M60.74,3.42c4.95,0,8.69,3.74,8.69,8.45s-3.74,8.45-8.69,8.45h-5.84c-.24,0-.44-.2-.44-.44V3.86c0-.24,.2-.44,.44-.44h5.84Zm-2.66,3.26v10.38h2.66c2.78,0,5.07-2.29,5.07-5.19s-2.17-5.19-5.07-5.19h-2.66Z"/><path class="cls-1" d="M82.21,3.06c5.19,0,9.17,3.98,9.17,8.81s-3.98,8.81-9.17,8.81-9.17-3.98-9.17-8.81,3.98-8.81,9.17-8.81m0,14.36c3.02,0,5.58-2.41,5.58-5.55s-2.56-5.55-5.58-5.55-5.55,2.41-5.55,5.55,2.53,5.55,5.55,5.55"/><path class="cls-1" d="M104.02,3.06c5.19,0,9.17,3.98,9.17,8.81s-3.98,8.81-9.17,8.81-9.17-3.98-9.17-8.81,3.98-8.81,9.17-8.81m0,14.36c3.02,0,5.58-2.41,5.58-5.55s-2.56-5.55-5.58-5.55-5.55,2.41-5.55,5.55,2.53,5.55,5.55,5.55"/><path class="cls-1" d="M117.98,3.86c0-.24,.2-.44,.44-.44h7.05c3.38,0,5.79,2.46,5.79,5.55,0,3.62-3.02,4.95-3.02,4.95l3.25,5.74c.17,.29-.05,.65-.38,.65h-2.85c-.16,0-.31-.09-.38-.23l-3.13-5.69h-3.14v5.48c0,.24-.2,.44-.44,.44h-2.75c-.24,0-.44-.2-.44-.44V3.86Zm7.36,2.82h-3.74v4.47h3.74c1.33,0,2.29-.97,2.29-2.17,0-1.33-.97-2.29-2.29-2.29"/><path class="cls-1" d="M143.34,3.5c4.95,0,8.69,3.74,8.69,8.45s-3.74,8.45-8.69,8.45h-5.84c-.24,0-.44-.2-.44-.44V3.94c0-.24,.2-.44,.44-.44h5.84Zm-2.66,3.26v10.38h2.66c2.78,0,5.07-2.29,5.07-5.19s-2.17-5.19-5.07-5.19h-2.66Z"/><path class="cls-1" d="M159.81,16.32l-1.34,3.7c-.06,.17-.23,.29-.41,.29h-2.91c-.31,0-.52-.31-.41-.6l6.29-16.02c.07-.17,.23-.28,.41-.28h3.27c.18,0,.34,.11,.41,.28l6.29,16.02c.11,.29-.1,.6-.41,.6h-2.91c-.18,0-.35-.11-.41-.29l-1.34-3.7h-6.52Zm3.26-8.69l-2.05,5.55h4.1l-2.05-5.55Z"/><path class="cls-1" d="M174.8,7.99c0-2.66,2.29-4.95,5.91-4.95,2.87,0,4.6,1.35,5.25,1.98,.17,.17,.18,.44,.01,.62l-1.63,1.63c-.16,.16-.42,.17-.6,.02-.46-.41-1.43-1.1-2.8-1.1-1.45,0-2.53,.85-2.53,1.81,0,3.14,8.56,1.33,8.56,7.36,0,3.02-2.29,5.31-6.4,5.31-3.33,0-5.38-1.72-6.11-2.45-.17-.17-.17-.45,0-.62l1.56-1.56c.17-.17,.44-.17,.61-.01,.54,.52,1.82,1.5,3.69,1.5s3-.97,3-2.17c0-3.14-8.56-1.33-8.56-7.36"/><path class="cls-1" d="M202.52,3.84v6.32h-7.24V3.84c0-.24-.2-.44-.44-.44h-2.75c-.24,0-.44,.2-.44,.44V19.86c0,.24,.2,.44,.44,.44h2.75c.24,0,.44-.2,.44-.44v-6.44h7.24v6.44c0,.24,.2,.44,.44,.44h2.75c.24,0,.44-.2,.44-.44V3.84c0-.24-.2-.44-.44-.44h-2.75c-.24,0-.44,.2-.44,.44"/><path class="cls-1" d="M40.17,5.62c-1.83-3.48-5.48-5.62-9.39-5.62H1.02C.11,0-.34,1.1,.3,1.75l6.48,6.52c.57,.58,1.35,.9,2.16,.9H29.92c1.26,0,2.41,.85,2.68,2.09,.39,1.76-.94,3.32-2.62,3.32H15.52c-.91,0-1.36,1.1-.72,1.75l6.48,6.52c.57,.58,1.35,.9,2.16,.9h6.54c8.51,0,14.94-9.1,10.19-18.13"/></g></g></svg>