<?xml version="1.0" encoding="utf-8"?>
<!-- Generator: Adobe Illustrator 26.5.0, SVG Export Plug-In . SVG Version: 6.00 Build 0)  -->
<svg version="1.1" id="Layer_3" xmlns="http://www.w3.org/2000/svg" xmlns:xlink="http://www.w3.org/1999/xlink" x="0px" y="0px"
	 viewBox="0 0 970 250" style="enable-background:new 0 0 970 250;" xml:space="preserve">
<style type="text/css">
	.st0{fill:#27346B;}
</style>
<g>
	<g>
		<path class="st0" d="M318,99.7c-11.4,0-22,1.4-22,1.4v35.1c0,4.7,1.9,8,5.4,10.1l16.6,9.6l16.6-9.6c3.5-2,5.4-5.4,5.4-10.1v-35.1
			C339.9,101.1,329.4,99.7,318,99.7z M338.5,136.2v0.2c0,0.3,0,0.5,0,0.8c-0.2,3.5-1.8,6.1-4.6,7.8l-15.9,9.2l-15.9-9.2
			c-2.9-1.6-4.4-4.2-4.6-7.8l0,0c0-0.3,0-0.5,0-0.8v-5.5l0,0v-9.8l0,0v-18.7c0,0,10-1.2,20.6-1.2s20.6,1.2,20.6,1.2V136.2
			L338.5,136.2z"/>
		<path class="st0" d="M298.8,103.6v18.3l19.2,11.1l19.2-11.1v-18.3c0,0-9.5-1.1-19.2-1.1S298.8,103.6,298.8,103.6z M325,107.2h2.9
			v8.8h5.8v2.5h-6.9c0,0-0.9-1.1-1.8-2.2L325,107.2L325,107.2z M323.5,111.1c0,1.5-0.6,2.7-1.7,3.4c0.4,0.4,3.4,4.1,3.4,4.1h-3.6
			l-2.8-3.4h-1.4v3.4h-2.9v-7.7h2.9v1.8h1.8c1,0,1.5-0.6,1.5-1.5c0-1-0.6-1.6-1.7-1.6h-6.2v9h-2.7l-4-6.3h0v6.3h-2.8v-11.4h2.7
			l3.9,6.3h0.1v-6.3h9.2C321.9,107.2,323.5,108.6,323.5,111.1L323.5,111.1z"/>
		<polygon class="st0" points="298.8,128.2 298.8,131.7 318,142.7 337.1,131.7 337.1,128.2 318,139.3 		"/>
		<path class="st0" d="M298.9,138.1c0.4,2.6,1.7,4.4,3.8,5.7l15.2,8.8l15.2-8.8c2.2-1.2,3.4-3.1,3.8-5.7l-19,11L298.9,138.1z"/>
	</g>
	<g>
		<path class="st0" d="M359.1,107.7c2.9,0,5.1,2.2,5.1,4.9s-2.2,4.9-5.1,4.9s-5.1-2.2-5.1-4.9S356.2,107.7,359.1,107.7z
			 M359.1,115.7c1.7,0,3-1.3,3-3s-1.4-3-3-3s-3,1.3-3,3S357.5,115.7,359.1,115.7z"/>
		<path class="st0" d="M366.3,107.9h6.9v1.9h-4.9v2.2h3.8v1.9h-3.8v3.4h-2V107.9L366.3,107.9z"/>
		<path class="st0" d="M375.1,107.9h6.9v1.9h-4.9v2.2h3.8v1.9h-3.8v3.4h-2V107.9L375.1,107.9z"/>
		<path class="st0" d="M383.8,107.9h2v9.4h-2V107.9z"/>
		<path class="st0" d="M397,115.7c-0.3,0.3-0.6,0.7-1,0.9c-0.7,0.5-1.7,0.9-3,0.9c-2.9,0-5.1-2.2-5.1-4.9s2.2-4.9,5.1-4.9
			c1.3,0,2.3,0.5,3,0.9c0.4,0.3,0.7,0.6,1,0.9l-1.4,1.3c-0.2-0.3-0.4-0.5-0.7-0.7c-0.4-0.3-1.1-0.7-1.9-0.7c-1.7,0-3,1.3-3,3
			s1.4,3,3,3c0.9,0,1.5-0.3,2-0.7c0.3-0.2,0.5-0.4,0.7-0.7L397,115.7L397,115.7z"/>
		<path class="st0" d="M398.8,107.9h2v9.4h-2V107.9z"/>
		<path class="st0" d="M405.9,107.9h2.3l3.6,9.4h-2.2l-0.8-2.2h-3.6l-0.8,2.2h-2.2L405.9,107.9L405.9,107.9z M408.2,113.4l-1.1-3.1
			h0l-1.1,3.1H408.2L408.2,113.4z"/>
		<path class="st0" d="M413.3,107.9h2v7.5h4.4v1.9h-6.4V107.9z"/>
		<path class="st0" d="M354.6,121.5h3.4c2.9,0,5,2.1,5,4.7s-2.1,4.7-5,4.7h-3.4V121.5L354.6,121.5z M358.1,129.1
			c1.7,0,2.9-1.2,2.9-2.8s-1.2-2.8-2.9-2.8h-1.4v5.7H358.1z"/>
		<path class="st0" d="M365.1,121.5h7v1.9h-5v1.8h3.9v1.8h-3.9v2h5.1v1.9h-7.1V121.5L365.1,121.5z"/>
		<path class="st0" d="M374.4,121.5h2v7.5h4.4v1.9h-6.4C374.4,131,374.4,121.5,374.4,121.5z"/>
		<path class="st0" d="M382.4,121.5h2v9.4h-2C382.4,131,382.4,121.5,382.4,121.5z"/>
		<path class="st0" d="M385.9,121.5h2.2l2.5,6.9h0l2.5-6.9h2.2l-3.5,9.4h-2.3L385.9,121.5L385.9,121.5z"/>
		<path class="st0" d="M396.8,121.5h7v1.9h-5v1.8h3.9v1.8h-3.9v2h5.1v1.9h-7.1V121.5L396.8,121.5z"/>
		<path class="st0" d="M406.1,121.5h4.2c2,0,3.3,1.3,3.3,3.2c0,1.1-0.4,1.8-0.8,2.2c-0.2,0.2-0.5,0.4-0.8,0.6l2,3.5h-2.2l-1.7-3.1
			h-1.9v3.1h-2V121.5L406.1,121.5z M410.2,126c0.8,0,1.3-0.5,1.3-1.3s-0.5-1.3-1.3-1.3h-2.1v2.6H410.2z"/>
		<path class="st0" d="M417.8,127.6l-3.6-6.1h2.4l2.2,4h0l2.2-4h2.4l-3.6,6.1v3.4h-2L417.8,127.6L417.8,127.6z"/>
		<path class="st0" d="M427.8,121.5h4c2,0,3.4,1.3,3.4,3.2s-1.4,3.2-3.4,3.2h-2v3.1h-2V121.5L427.8,121.5z M431.7,126
			c0.8,0,1.4-0.5,1.4-1.3s-0.5-1.3-1.4-1.3h-1.9v2.6H431.7z"/>
		<path class="st0" d="M439,121.5h2.3l3.6,9.4h-2.2l-0.8-2.2h-3.6l-0.8,2.2h-2.2L439,121.5L439,121.5z M441.3,127l-1.1-3.1h0
			L439,127H441.3L441.3,127z"/>
		<path class="st0" d="M446.5,121.5h4.2c2,0,3.3,1.3,3.3,3.2c0,1.1-0.4,1.8-0.8,2.2c-0.2,0.2-0.5,0.4-0.8,0.6l2,3.5H452l-1.7-3.1
			h-1.9v3.1h-2V121.5L446.5,121.5z M450.6,126c0.8,0,1.3-0.5,1.3-1.3s-0.5-1.3-1.3-1.3h-2.1v2.6H450.6z"/>
		<path class="st0" d="M457.9,123.4h-2.7v-1.9h7.4v1.9H460v7.5h-2L457.9,123.4L457.9,123.4z"/>
		<path class="st0" d="M464.2,121.5h1.8l4.6,5.9v-5.9h2v9.4h-1.8l-4.6-5.9v5.9h-2C464.2,131,464.2,121.5,464.2,121.5z"/>
		<path class="st0" d="M475.3,121.5h7v1.9h-5v1.8h3.9v1.8h-3.9v2h5.1v1.9h-7.1V121.5L475.3,121.5z"/>
		<path class="st0" d="M484.6,121.5h4.2c2,0,3.3,1.3,3.3,3.2c0,1.1-0.4,1.8-0.8,2.2c-0.2,0.2-0.5,0.4-0.8,0.6l2,3.5h-2.2l-1.7-3.1
			h-1.9v3.1h-2V121.5L484.6,121.5z M488.7,126c0.8,0,1.3-0.5,1.3-1.3s-0.5-1.3-1.3-1.3h-2.1v2.6H488.7z"/>
		<path class="st0" d="M359.1,134.9c2.9,0,5.1,2.2,5.1,4.9s-2.2,4.9-5.1,4.9s-5.1-2.2-5.1-4.9S356.2,134.9,359.1,134.9z
			 M359.1,142.9c1.7,0,3-1.4,3-3s-1.4-3-3-3s-3,1.4-3,3S357.5,142.9,359.1,142.9z"/>
		<path class="st0" d="M366.3,135.1h6.9v1.9h-4.9v2.2h3.8v1.9h-3.8v3.4h-2V135.1L366.3,135.1z"/>
		<path class="st0" d="M380,137h-2.7v-1.9h7.4v1.9H382v7.5h-2L380,137L380,137z"/>
		<path class="st0" d="M386.3,135.1h2v3.7h4v-3.7h2v9.4h-2v-3.8h-4v3.8h-2V135.1L386.3,135.1z"/>
		<path class="st0" d="M397.1,135.1h7v1.9h-5v1.8h3.9v1.8h-3.9v2h5.1v1.9h-7.1V135.1L397.1,135.1z"/>
		<path class="st0" d="M409.3,135.1h1.8l4.6,5.9v-5.9h2v9.4h-1.8l-4.6-5.9v5.9h-2V135.1L409.3,135.1z"/>
		<path class="st0" d="M420.4,135.1h4.2c2,0,3.3,1.3,3.3,3.2c0,1.1-0.4,1.8-0.8,2.2c-0.2,0.2-0.5,0.4-0.8,0.6l2,3.5H426l-1.7-3.1
			h-1.9v3.1h-2V135.1L420.4,135.1z M424.5,139.6c0.8,0,1.3-0.5,1.3-1.3s-0.5-1.3-1.3-1.3h-2.1v2.6H424.5z"/>
		<path class="st0" d="M430.2,135.1h2v7.5h4.4v1.9h-6.4V135.1L430.2,135.1z"/>
	</g>
</g>
</svg>
