<?xml version="1.0" encoding="UTF-8"?><svg id="Layer_2" xmlns="http://www.w3.org/2000/svg" xmlns:xlink="http://www.w3.org/1999/xlink" viewBox="0 0 930 180"><defs><style>.cls-1{fill:none;}.cls-2{clip-path:url(#clippath);}.cls-3{fill:#00b6b6;}</style><clipPath id="clippath"><rect class="cls-1" width="930" height="180"/></clipPath></defs><g id="Layer_1-2"><g id="concept2-970x180"><g class="cls-2"><g><path class="cls-3" d="M693,18.53h2.7v4.86h4.98v-4.86h2.7v12.28h-2.7v-4.93h-4.98v4.93h-2.7v-12.28Z"/><path class="cls-3" d="M705.59,26.16v-.04c0-2.68,1.91-4.89,4.65-4.89,3.14,0,4.58,2.44,4.58,5.1,0,.21-.02,.46-.03,.7h-6.54c.26,1.21,1.1,1.84,2.3,1.84,.89,0,1.54-.28,2.28-.96l1.53,1.35c-.88,1.09-2.14,1.75-3.84,1.75-2.82,0-4.91-1.98-4.91-4.86Zm6.63-.79c-.16-1.19-.86-2-1.98-2s-1.82,.79-2.03,2h4.02Z"/><path class="cls-3" d="M716.24,28.1v-.03c0-2.05,1.56-3,3.79-3,.95,0,1.63,.16,2.3,.39v-.16c0-1.1-.68-1.72-2.02-1.72-1.02,0-1.74,.19-2.6,.51l-.67-2.03c1.03-.46,2.05-.75,3.65-.75,1.46,0,2.51,.39,3.17,1.05,.7,.7,1.02,1.74,1.02,3v5.45h-2.58v-1.02c-.65,.72-1.54,1.19-2.84,1.19-1.77,0-3.23-1.02-3.23-2.88Zm6.12-.61v-.47c-.46-.21-1.05-.35-1.7-.35-1.14,0-1.84,.46-1.84,1.3v.03c0,.72,.6,1.14,1.46,1.14,1.25,0,2.09-.68,2.09-1.65Z"/><path class="cls-3" d="M727.3,18h2.67v12.8h-2.67v-12.8Z"/><path class="cls-3" d="M732.92,28.14v-4.45h-1.12v-2.28h1.12v-2.4h2.67v2.4h2.21v2.28h-2.21v4.02c0,.61,.26,.91,.86,.91,.49,0,.93-.12,1.32-.33v2.14c-.56,.33-1.21,.54-2.1,.54-1.63,0-2.74-.65-2.74-2.82Z"/><path class="cls-3" d="M739.76,18h2.67v4.74c.61-.79,1.4-1.51,2.75-1.51,2.02,0,3.19,1.33,3.19,3.49v6.09h-2.67v-5.24c0-1.26-.6-1.91-1.61-1.91s-1.67,.65-1.67,1.91v5.24h-2.67v-12.8Z"/><path class="cls-3" d="M750.3,33.01l.89-1.93c.35,.21,.79,.37,1.14,.37,.46,0,.7-.14,.93-.61l-3.68-9.43h2.82l2.14,6.4,2.05-6.4h2.77l-3.61,9.63c-.72,1.91-1.49,2.63-3.09,2.63-.96,0-1.68-.25-2.37-.65Z"/><path class="cls-3" d="M766.48,18.53h2.91l3.23,5.19,3.23-5.19h2.91v12.28h-2.68v-8.01l-3.46,5.24h-.07l-3.42-5.19v7.96h-2.65v-12.28Z"/><path class="cls-3" d="M780.97,26.16v-.04c0-2.68,1.91-4.89,4.65-4.89,3.14,0,4.58,2.44,4.58,5.1,0,.21-.02,.46-.03,.7h-6.54c.26,1.21,1.1,1.84,2.3,1.84,.89,0,1.54-.28,2.28-.96l1.53,1.35c-.88,1.09-2.14,1.75-3.84,1.75-2.82,0-4.91-1.98-4.91-4.86Zm6.63-.79c-.16-1.19-.86-2-1.98-2s-1.82,.79-2.03,2h4.02Z"/><path class="cls-3" d="M791.62,28.1v-.03c0-2.05,1.56-3,3.79-3,.95,0,1.63,.16,2.3,.39v-.16c0-1.1-.68-1.72-2.02-1.72-1.02,0-1.74,.19-2.6,.51l-.67-2.03c1.03-.46,2.05-.75,3.65-.75,1.46,0,2.51,.39,3.17,1.05,.7,.7,1.02,1.74,1.02,3v5.45h-2.58v-1.02c-.65,.72-1.54,1.19-2.84,1.19-1.77,0-3.23-1.02-3.23-2.88Zm6.12-.61v-.47c-.46-.21-1.05-.35-1.7-.35-1.14,0-1.84,.46-1.84,1.3v.03c0,.72,.6,1.14,1.46,1.14,1.25,0,2.09-.68,2.09-1.65Z"/><path class="cls-3" d="M802.68,18h2.67v12.8h-2.67v-12.8Z"/><path class="cls-3" d="M807.12,29.56l1.14-1.75c1.02,.74,2.09,1.12,2.96,1.12,.77,0,1.12-.28,1.12-.7v-.03c0-.58-.91-.77-1.95-1.09-1.32-.39-2.81-1-2.81-2.82v-.04c0-1.91,1.54-2.98,3.44-2.98,1.19,0,2.49,.4,3.51,1.09l-1.02,1.84c-.93-.54-1.86-.88-2.54-.88s-.98,.28-.98,.65v.03c0,.53,.89,.77,1.91,1.12,1.32,.44,2.84,1.07,2.84,2.79v.04c0,2.09-1.56,3.03-3.6,3.03-1.32,0-2.79-.44-4.03-1.42Z"/><path class="cls-3" d="M822.2,18.53h4.79c3.86,0,6.52,2.65,6.52,6.1v.03c0,3.46-2.67,6.14-6.52,6.14h-4.79v-12.28Zm4.79,9.84c2.21,0,3.7-1.49,3.7-3.67v-.04c0-2.17-1.49-3.7-3.7-3.7h-2.09v7.4h2.09Z"/><path class="cls-3" d="M835.18,26.16v-.04c0-2.68,1.91-4.89,4.65-4.89,3.14,0,4.58,2.44,4.58,5.1,0,.21-.02,.46-.03,.7h-6.54c.26,1.21,1.1,1.84,2.3,1.84,.89,0,1.54-.28,2.28-.96l1.53,1.35c-.88,1.09-2.14,1.75-3.84,1.75-2.82,0-4.91-1.98-4.91-4.86Zm6.63-.79c-.16-1.19-.86-2-1.98-2s-1.82,.79-2.03,2h4.02Z"/><path class="cls-3" d="M846.51,18h2.67v12.8h-2.67v-12.8Z"/><path class="cls-3" d="M851.74,18h2.81v2.37h-2.81v-2.37Zm.07,3.4h2.67v9.4h-2.67v-9.4Z"/><path class="cls-3" d="M856.14,21.4h2.82l2.1,6.3,2.12-6.3h2.77l-3.7,9.47h-2.42l-3.7-9.47Z"/><path class="cls-3" d="M866.52,26.16v-.04c0-2.68,1.91-4.89,4.65-4.89,3.14,0,4.58,2.44,4.58,5.1,0,.21-.02,.46-.03,.7h-6.54c.26,1.21,1.1,1.84,2.3,1.84,.89,0,1.54-.28,2.28-.96l1.53,1.35c-.88,1.09-2.14,1.75-3.84,1.75-2.82,0-4.91-1.98-4.91-4.86Zm6.63-.79c-.16-1.19-.86-2-1.98-2s-1.82,.79-2.03,2h4.02Z"/><path class="cls-3" d="M877.73,21.4h2.67v1.89c.54-1.3,1.42-2.14,3-2.07v2.79h-.14c-1.77,0-2.86,1.07-2.86,3.31v3.47h-2.67v-9.4Z"/><path class="cls-3" d="M884.34,26.16v-.04c0-2.68,1.91-4.89,4.65-4.89,3.14,0,4.58,2.44,4.58,5.1,0,.21-.02,.46-.03,.7h-6.54c.26,1.21,1.1,1.84,2.3,1.84,.89,0,1.54-.28,2.28-.96l1.53,1.35c-.88,1.09-2.14,1.75-3.84,1.75-2.82,0-4.91-1.98-4.91-4.86Zm6.63-.79c-.16-1.19-.86-2-1.98-2s-1.82,.79-2.03,2h4.02Z"/><path class="cls-3" d="M895.13,26.12v-.03c0-3.14,2.05-4.86,4.28-4.86,1.42,0,2.3,.65,2.93,1.4v-4.63h2.67v12.8h-2.67v-1.35c-.65,.88-1.54,1.53-2.93,1.53-2.19,0-4.28-1.72-4.28-4.86Zm7.24,0v-.03c0-1.56-1.03-2.6-2.28-2.6s-2.3,1.02-2.3,2.6v.03c0,1.56,1.05,2.6,2.3,2.6s2.28-1.03,2.28-2.6Z"/></g></g></g></g></svg>