<svg xmlns="http://www.w3.org/2000/svg" xmlns:xlink="http://www.w3.org/1999/xlink" viewBox="0 0 130.84 34.56"><defs><style>.cls-1{fill:none;}.cls-2{clip-path:url(#clip-path);}.cls-3{fill:#fff;}</style><clipPath id="clip-path"><rect class="cls-1" width="130.84" height="34.56"/></clipPath></defs><title>logo-728</title><g id="Layer_2" data-name="Layer 2"><g id="Layer_1-2" data-name="Layer 1"><g class="cls-2"><path class="cls-3" d="M44.33,7.06a6.66,6.66,0,0,1,1.76-4.69A5.73,5.73,0,0,1,50.44.48a7.29,7.29,0,0,1,2.83.59l1.38.58a.38.38,0,0,0,.24-.14c.1-.11.16-.16.19-.16a.18.18,0,0,1,.15.07.28.28,0,0,1,.06.18s0,.13,0,.36,0,.44,0,.65a9.37,9.37,0,0,0,.07,1c0,.35.06.54.06.58a.33.33,0,0,1-.06.21.17.17,0,0,1-.16.08c-.11,0-.22-.2-.32-.62a3.44,3.44,0,0,0-.48-1.08,4.1,4.1,0,0,0-1.64-1.36,4.9,4.9,0,0,0-2.2-.51A4.34,4.34,0,0,0,47,2.51a5.87,5.87,0,0,0-1.36,4A6.24,6.24,0,0,0,47,10.58a4.11,4.11,0,0,0,3.3,1.55,4.58,4.58,0,0,0,2-.5A4.68,4.68,0,0,0,54,10.36a3.68,3.68,0,0,0,.42-.76c.15-.33.27-.5.38-.5s.09,0,.13.09a.31.31,0,0,1,.06.19,5.06,5.06,0,0,1-.19.81c-.09.33-.16.6-.21.82a.67.67,0,0,1-.09.21.41.41,0,0,1-.15.14,6.92,6.92,0,0,1-2.05.94,8.23,8.23,0,0,1-2.38.36,5.45,5.45,0,0,1-4.06-1.52,5.58,5.58,0,0,1-1.49-4.08m13.45-4.6.31.54a.23.23,0,0,0,.35.11.52.52,0,0,0,.11-.1l.39-.45A1.17,1.17,0,0,0,59,2.45a.86.86,0,0,0,0-.17.76.76,0,0,0,0-.15S59,2,58.94,2l-.22-.47a.26.26,0,0,0-.09-.09.37.37,0,0,0-.14,0,.2.2,0,0,0-.11,0,.26.26,0,0,0-.1.07l-.45.45a.27.27,0,0,0-.07.13.47.47,0,0,0,0,.17s0,.08,0,.12l0,.1M56.49,9.73c-.12.53-.19.91-.22,1.13a4.13,4.13,0,0,0-.05.55,1.25,1.25,0,0,0,.22.8.73.73,0,0,0,.62.29,1.76,1.76,0,0,0,1.27-.77A2.19,2.19,0,0,0,59,10.48a.25.25,0,0,0-.05-.16.16.16,0,0,0-.12-.06c-.08,0-.22.18-.44.56s-.43.54-.65.54a.27.27,0,0,1-.24-.13.58.58,0,0,1-.09-.35.81.81,0,0,1,0-.16.59.59,0,0,1,0-.14l.79-3.69c0-.15.07-.34.13-.59a6.47,6.47,0,0,0,.19-1,.21.21,0,0,0,0-.15.16.16,0,0,0-.13,0l-.49.09a9.67,9.67,0,0,1-1,.13l-.13,0c-.47,0-.71.13-.71.28a.17.17,0,0,0,.06.14.36.36,0,0,0,.19,0h.23a1.11,1.11,0,0,1,.23,0,.61.61,0,0,1,.37.09.37.37,0,0,1,.11.29c0,.07,0,.16,0,.26a2.21,2.21,0,0,1-.06.32Zm3.82,0v.09a10.38,10.38,0,0,0-.12,1.24,1.8,1.8,0,0,0,.27,1.09,1,1,0,0,0,.84.35,1.55,1.55,0,0,0,.8-.25,4.33,4.33,0,0,0,.92-.75,5.26,5.26,0,0,0,.47-.53.6.6,0,0,0,.14-.3.17.17,0,0,0,0-.13.2.2,0,0,0-.14-.05,3.7,3.7,0,0,0-.54.47,1.43,1.43,0,0,1-.93.47.63.63,0,0,1-.5-.2.81.81,0,0,1-.17-.57c0-.14,0-.31,0-.52s.06-.45.11-.75l.48-3.26A.38.38,0,0,1,62,6a.41.41,0,0,1,.19,0h1.28a.27.27,0,0,0,.17,0,.14.14,0,0,0,0-.13V5.54a.15.15,0,0,0,0-.13.21.21,0,0,0-.13,0H62.28a.17.17,0,0,1-.13,0,.14.14,0,0,1,0-.11v0l0,0,.23-1a.67.67,0,0,0,0-.18.2.2,0,0,0,0-.14.17.17,0,0,0-.12,0c-.11,0-.27.15-.49.45a4.29,4.29,0,0,1-.65.72,7.27,7.27,0,0,1-.72.49c-.3.18-.44.31-.44.41s0,.11,0,.13a.75.75,0,0,0,.2,0h.4a.36.36,0,0,1,.18,0,.13.13,0,0,1,.06.12.18.18,0,0,1,0,.06.43.43,0,0,1,0,0Zm8.48.51A19,19,0,0,0,67,6.42c-.58-.89-1.12-1.33-1.62-1.33a1.16,1.16,0,0,0-1,.67A2.8,2.8,0,0,0,64,7.25a.68.68,0,0,0,0,.29.11.11,0,0,0,.12.08c.09,0,.2-.21.34-.64s.38-.64.7-.64a.87.87,0,0,1,.63.37,7.09,7.09,0,0,1,.8,1.34,18.77,18.77,0,0,1,1,2.31A4.86,4.86,0,0,1,68,11.87a2.33,2.33,0,0,1-.23.93,5.64,5.64,0,0,1-.63,1.13,2.83,2.83,0,0,1-.7.72,1.19,1.19,0,0,1-.71.22,1.13,1.13,0,0,1-.64-.25,1.17,1.17,0,0,0-.56-.24.52.52,0,0,0-.38.14.57.57,0,0,0-.13.4.73.73,0,0,0,.32.6,1.46,1.46,0,0,0,.86.24,2.48,2.48,0,0,0,1.86-1,10.59,10.59,0,0,0,1.7-3.07,24.37,24.37,0,0,0,1-3.08,10.34,10.34,0,0,0,.36-2.35A1.76,1.76,0,0,0,70,5.39a.53.53,0,0,0-.49-.3.57.57,0,0,0-.37.14.45.45,0,0,0-.15.35,2.54,2.54,0,0,0,.23.68,2.73,2.73,0,0,1,.23,1.12,6.13,6.13,0,0,1-.15,1.26,15,15,0,0,1-.48,1.65M79.3,5.49A1.32,1.32,0,0,1,80.4,6a2.29,2.29,0,0,1,.4,1.45,7,7,0,0,1-.75,3.45,2.22,2.22,0,0,1-2,1.35,1.46,1.46,0,0,1-1.2-.5,2.31,2.31,0,0,1-.4-1.49,9,9,0,0,1,.14-1.52,8.39,8.39,0,0,1,.42-1.41A3.4,3.4,0,0,1,78,5.94a2,2,0,0,1,1.3-.45M75.42,9.75a3,3,0,0,0,.69,2.12,2.52,2.52,0,0,0,1.94.75,3.42,3.42,0,0,0,2.7-1.36A5,5,0,0,0,81.88,8a3,3,0,0,0-.7-2.1,2.45,2.45,0,0,0-1.92-.76,3.41,3.41,0,0,0-2.71,1.36,4.9,4.9,0,0,0-1.13,3.26m8.82-3.54-.74,6.34a9.82,9.82,0,0,1-.34,2c-.11.31-.26.47-.47.47s-.31-.16-.41-.47-.18-.46-.27-.46a.13.13,0,0,0-.11.05.3.3,0,0,0-.07.16l-.19.6a1.3,1.3,0,0,0,0,.18,2.45,2.45,0,0,0,0,.27.3.3,0,0,0,.15.25.6.6,0,0,0,.37.11,2,2,0,0,0,1.72-.91,7.44,7.44,0,0,0,.86-3.12l.61-5.35A.62.62,0,0,1,85.4,6,.25.25,0,0,1,85.62,6h1.22a.13.13,0,0,0,.1,0s0,0,0-.08V5.51a.12.12,0,0,0-.06-.09.14.14,0,0,0-.09-.06H85.65a.49.49,0,0,1-.17,0s0-.07,0-.13A10.28,10.28,0,0,1,85.58,4a13.31,13.31,0,0,1,.36-1.66,3.28,3.28,0,0,1,.49-1.17.87.87,0,0,1,1.4,0c.21.23.34.35.4.35a.16.16,0,0,0,.15-.07.41.41,0,0,0,.05-.23V.42a.36.36,0,0,0-.14-.33A1.34,1.34,0,0,0,87.68,0a2.24,2.24,0,0,0-1.56.8,5.19,5.19,0,0,0-1.21,2,10.24,10.24,0,0,0-.44,1.67c-.1.58-.21.86-.31.86H83a.27.27,0,0,0-.15,0,.17.17,0,0,0,0,.13v.25a.22.22,0,0,0,0,.13.2.2,0,0,0,.14,0h1.12a.14.14,0,0,1,.13.07.21.21,0,0,1,.06.16ZM46.62,30a5.1,5.1,0,0,1-.41,2.23,1.23,1.23,0,0,1-1.1.83,1,1,0,0,1-.78-.44c-.21-.29-.35-.44-.41-.44s-.27.15-.41.46a2.27,2.27,0,0,0-.21.92.53.53,0,0,0,.26.46,1.24,1.24,0,0,0,.71.18,2.91,2.91,0,0,0,1.63-.52,4.5,4.5,0,0,0,1.39-1.42,6.25,6.25,0,0,0,.79-1.84,12.45,12.45,0,0,0,.24-2.81v-10a4.81,4.81,0,0,1,.08-1,1.24,1.24,0,0,1,.27-.55,1.49,1.49,0,0,1,.41-.31l.08,0,0,0c.26-.12.39-.25.39-.41a.23.23,0,0,0-.09-.19.33.33,0,0,0-.23-.07l-.67.07q-.67.06-1.35.06c-.42,0-.88,0-1.36-.06l-.8-.07a.71.71,0,0,0-.34.06.25.25,0,0,0-.09.22.3.3,0,0,0,.09.24,1,1,0,0,0,.42.13h0a1.84,1.84,0,0,1,.78.27,1.47,1.47,0,0,1,.5.67,3.87,3.87,0,0,1,.15,1.28Zm4.71-4.42A4.73,4.73,0,0,0,52.63,29a4.38,4.38,0,0,0,3.3,1.35,4.62,4.62,0,0,0,3.42-1.42,4.87,4.87,0,0,0,1.4-3.52A4.69,4.69,0,0,0,59.47,22a4.38,4.38,0,0,0-3.29-1.32,4.85,4.85,0,0,0-4.85,4.87M52.85,25a4.31,4.31,0,0,1,.83-2.8,2.73,2.73,0,0,1,2.25-1,2.77,2.77,0,0,1,2.35,1.37,5.91,5.91,0,0,1,.95,3.46,4.55,4.55,0,0,1-.8,2.86,2.66,2.66,0,0,1-2.23,1,2.85,2.85,0,0,1-2.41-1.36A6,6,0,0,1,52.85,25m9.11.58A4.73,4.73,0,0,0,63.26,29a4.39,4.39,0,0,0,3.3,1.35A4.6,4.6,0,0,0,70,28.9a4.83,4.83,0,0,0,1.4-3.52A4.69,4.69,0,0,0,70.1,22a4.38,4.38,0,0,0-3.29-1.32A4.85,4.85,0,0,0,62,25.53M63.48,25a4.36,4.36,0,0,1,.83-2.8,2.73,2.73,0,0,1,2.25-1,2.77,2.77,0,0,1,2.35,1.37,5.91,5.91,0,0,1,1,3.46,4.55,4.55,0,0,1-.8,2.86,2.65,2.65,0,0,1-2.22,1,2.82,2.82,0,0,1-2.41-1.36,6,6,0,0,1-1-3.51M73.91,27.6a4.4,4.4,0,0,1-.08,1,1.43,1.43,0,0,1-.29.56,1.35,1.35,0,0,1-.34.28l-.09.07a.65.65,0,0,0-.23.16.29.29,0,0,0-.07.18.21.21,0,0,0,.09.17.31.31,0,0,0,.19.06l.52-.05c.4,0,.83-.05,1.29-.05s.82,0,1.27.05l.76.05a.44.44,0,0,0,.25-.06.22.22,0,0,0,.1-.19.26.26,0,0,0-.1-.23.81.81,0,0,0-.42-.09,2,2,0,0,1-.36,0,1.07,1.07,0,0,1-.27-.09,1.18,1.18,0,0,1-.56-.54,3.16,3.16,0,0,1-.15-1.19V23.87a2.06,2.06,0,0,1,.66-1.63,2.72,2.72,0,0,1,1.84-.57,2.11,2.11,0,0,1,1.84.77,5,5,0,0,1,.56,2.74V27.6a5.7,5.7,0,0,1-.07,1,1.19,1.19,0,0,1-.24.52,1.81,1.81,0,0,1-.39.33c-.19.13-.28.25-.28.36a.22.22,0,0,0,.07.17.27.27,0,0,0,.17.06l.49-.05c.38,0,.78-.05,1.22-.05s.78,0,1.21.05l.7.05a.37.37,0,0,0,.23-.06.22.22,0,0,0,.1-.19.28.28,0,0,0-.11-.25.55.55,0,0,0-.34-.07,1.9,1.9,0,0,1-.37,0,.92.92,0,0,1-.29-.11,1.17,1.17,0,0,1-.47-.52,3.72,3.72,0,0,1-.13-1.19V25.53a12.53,12.53,0,0,0-.15-2.3A3.41,3.41,0,0,0,81.13,22,3,3,0,0,0,80,21.06a3.08,3.08,0,0,0-1.43-.34,3.39,3.39,0,0,0-1.53.38,7.26,7.26,0,0,0-1.64,1.15V21a.9.9,0,0,0,0-.4.2.2,0,0,0-.19-.09,3.76,3.76,0,0,0-.71.31,11.41,11.41,0,0,1-1.27.53l-.3.08h-.06a.81.81,0,0,0-.39.1.23.23,0,0,0-.09.21.21.21,0,0,0,.12.2,1.41,1.41,0,0,0,.44,0,1,1,0,0,1,.76.25,1.25,1.25,0,0,1,.23.83Zm17.36-.43a2,2,0,0,1-.63,1.57,2.29,2.29,0,0,1-1.64.59,3,3,0,0,1-2.41-1.28,4.69,4.69,0,0,1-1-3,4.37,4.37,0,0,1,.78-2.7,2.4,2.4,0,0,1,2-1,3.36,3.36,0,0,1,1.24.23,3.12,3.12,0,0,1,1.08.62,1.72,1.72,0,0,1,.45.59,1.81,1.81,0,0,1,.15.8v3.66Zm0,1.55v1.14a.56.56,0,0,0,0,.29.19.19,0,0,0,.18.1l.59-.16a9.15,9.15,0,0,1,1.13-.25l.31,0c.48-.05.72-.17.72-.35a.22.22,0,0,0-.12-.18.56.56,0,0,0-.3-.08h-.18a.75.75,0,0,1-.68-.3,3.45,3.45,0,0,1-.18-1.42V17.88c0-.9,0-1.74,0-2.52s.07-1.11.07-1a.41.41,0,0,0-.08-.27.2.2,0,0,0-.19-.1,1.64,1.64,0,0,0-.56.27,7.74,7.74,0,0,1-.81.41l-.54.19-.52.11h0c-.33.09-.49.18-.49.27a.29.29,0,0,0,.12.24.79.79,0,0,0,.37.07h.22a.74.74,0,0,1,.71.35,3.13,3.13,0,0,1,.2,1.38v4.28A5.4,5.4,0,0,0,90,21a3.86,3.86,0,0,0-1.25-.21,4.06,4.06,0,0,0-3.13,1.49,5.26,5.26,0,0,0-1.33,3.62,4.84,4.84,0,0,0,1,3.18A3.24,3.24,0,0,0,88,30.3a4,4,0,0,0,1.79-.39,4.86,4.86,0,0,0,1.51-1.19M101,25.3v2.34a1.68,1.68,0,0,1-.69,1.38,2.74,2.74,0,0,1-1.74.54,1.61,1.61,0,0,1-1.18-.42,1.66,1.66,0,0,1-.42-1.2,1.81,1.81,0,0,1,.88-1.58A9.5,9.5,0,0,1,101,25.3m.14,3.64a1.83,1.83,0,0,0,.6.87,1.6,1.6,0,0,0,1,.29,2.26,2.26,0,0,0,.89-.15c.24-.1.36-.22.36-.37a.23.23,0,0,0-.06-.16.19.19,0,0,0-.14-.07h-.43a.74.74,0,0,1-.66-.25,2.42,2.42,0,0,1-.17-1.16V24a3.42,3.42,0,0,0-.8-2.58A4,4,0,0,0,99,20.7a3.94,3.94,0,0,0-2.4.75,2.12,2.12,0,0,0-1,1.67.71.71,0,0,0,.3.57,1.18,1.18,0,0,0,.71.22.57.57,0,0,0,.36-.1.27.27,0,0,0,.15-.24,2.88,2.88,0,0,0-.09-.43,3.1,3.1,0,0,1-.07-.63,1.05,1.05,0,0,1,.39-.93,3.29,3.29,0,0,1,3.08.25,1.89,1.89,0,0,1,.6,1.5v1.48a12.82,12.82,0,0,0-4.23,1.33,2.32,2.32,0,0,0-1.18,2,2.1,2.1,0,0,0,.54,1.55,2.15,2.15,0,0,0,1.56.52,5.34,5.34,0,0,0,1.88-.31,4.92,4.92,0,0,0,1.57-1m5.06-1.34a5,5,0,0,1-.07,1,1.12,1.12,0,0,1-.26.51,1.89,1.89,0,0,1-.27.2.29.29,0,0,0-.1.06,1.29,1.29,0,0,0-.32.22.28.28,0,0,0-.07.19.23.23,0,0,0,.08.17.33.33,0,0,0,.19.06l.54-.05c.41,0,.85-.05,1.32-.05s.81,0,1.23.05l.67.05a.46.46,0,0,0,.25-.06.22.22,0,0,0,.1-.19.26.26,0,0,0-.1-.23.66.66,0,0,0-.38-.09h0a2.29,2.29,0,0,1-.51-.13,1.1,1.1,0,0,1-.56-.49,3.23,3.23,0,0,1-.15-1.24V17.88c0-.92,0-1.75.06-2.52s.07-1.09.07-1a.44.44,0,0,0-.08-.28.25.25,0,0,0-.21-.11,1.74,1.74,0,0,0-.57.27,6.18,6.18,0,0,1-.81.41l-.42.14a2.84,2.84,0,0,1-.48.11h0c-.36.09-.54.21-.54.37a.22.22,0,0,0,.11.2.55.55,0,0,0,.28.06h.19a.71.71,0,0,1,.68.31,3.39,3.39,0,0,1,.18,1.42Zm11.34,1.12v.65a1.1,1.1,0,0,0,.08.51A.44.44,0,0,0,118,30h.22l1.75-.13a.9.9,0,0,0,.38-.08.23.23,0,0,0,.09-.2c0-.13-.14-.19-.41-.21l-.39,0a.64.64,0,0,1-.44-.23,2.07,2.07,0,0,1-.1-.79v-4.9c0-.28,0-.56,0-.83s0-.54,0-.8a1.41,1.41,0,0,0,0-.2c0-.07,0-.15,0-.25a.71.71,0,0,0,0-.3.21.21,0,0,0-.19-.09l-.62.12a6,6,0,0,1-1.08.11h-.28a.82.82,0,0,0-.41.08.23.23,0,0,0-.13.23c0,.14.12.23.35.25a1.59,1.59,0,0,1,.44.07.55.55,0,0,1,.31.31,2.69,2.69,0,0,1,.08.81v4.25a2.12,2.12,0,0,1-.67,1.61,2.34,2.34,0,0,1-1.66.63,1.88,1.88,0,0,1-1.61-.7,3.65,3.65,0,0,1-.52-2.17V23.41c0-.38,0-.85,0-1.4,0-.1,0-.18,0-.23a1.41,1.41,0,0,0,0-.2,1.85,1.85,0,0,0,0-.25.61.61,0,0,0-.06-.3.23.23,0,0,0-.2-.09l-.54.08c-.38.06-.8.1-1.27.13a.28.28,0,0,1-.13,0c-.34,0-.51.11-.51.26s.12.21.38.26l.34.11a.57.57,0,0,1,.32.31,1.85,1.85,0,0,1,.09.7v3.89a4.07,4.07,0,0,0,.7,2.64,2.71,2.71,0,0,0,2.2.84,3.68,3.68,0,0,0,3-1.44m6.49-4.9a4.39,4.39,0,0,1,0-.7,1.31,1.31,0,0,1,.12-.43A1.7,1.7,0,0,1,125,22a3.13,3.13,0,0,1,1.32-.28,2.9,2.9,0,0,1,2.38,1.14,4.71,4.71,0,0,1,.91,3,4.22,4.22,0,0,1-.81,2.72,2.6,2.6,0,0,1-2.16,1,2.84,2.84,0,0,1-1.91-.61,2,2,0,0,1-.72-1.63Zm-1.48,8.29a2.77,2.77,0,0,1-.11.91,1.45,1.45,0,0,1-.34.53l-.17.11-.14.1a.79.79,0,0,0-.28.21.35.35,0,0,0-.07.2.18.18,0,0,0,.09.16.43.43,0,0,0,.24.06l.55-.06a10.85,10.85,0,0,1,1.3-.07,9.93,9.93,0,0,1,1.15.07l.77.06a.45.45,0,0,0,.3-.09.25.25,0,0,0,.13-.21.23.23,0,0,0-.08-.2,1,1,0,0,0-.39-.09h0a2.18,2.18,0,0,1-.73-.17,1.11,1.11,0,0,1-.55-.54,2.82,2.82,0,0,1-.16-1.05v-2.5a5,5,0,0,0,1.14.49,3.65,3.65,0,0,0,1.13.17,4.13,4.13,0,0,0,3.24-1.47A5.6,5.6,0,0,0,130.84,25a4.7,4.7,0,0,0-1-3.1,3.11,3.11,0,0,0-2.51-1.19,4,4,0,0,0-1.62.35,6.94,6.94,0,0,0-1.68,1.11v-1.2a.88.88,0,0,0,0-.37c0-.08-.08-.13-.15-.13a1.61,1.61,0,0,0-.58.31,5,5,0,0,1-.7.44l-.39.18a1.86,1.86,0,0,1-.37.1h0c-.34.12-.52.25-.52.39s.12.21.34.22a1.83,1.83,0,0,1,.33,0,.71.71,0,0,1,.47.33,1.21,1.21,0,0,1,.16.67ZM20,5.09a5.7,5.7,0,0,0-.83-5,8.77,8.77,0,0,0-.78,1.6,5.44,5.44,0,0,0,.78,5A6.9,6.9,0,0,0,20,5.09m15.87,13.4a42.89,42.89,0,0,0-4.3,3.67l0,0h0c-.71.67-1.45,1.43-2.09,2.14l0-.09L19.23,34.56l-.35-.31L8.93,24.3l0,0a47.28,47.28,0,0,0-6.39-5.85,8.37,8.37,0,0,0-2.52-1,6.51,6.51,0,0,1,3.76,1.36,29.54,29.54,0,0,1,3.1,2.82L8.64,20C7,18.57,5.48,17.2,3.81,16a8.64,8.64,0,0,0-3.7-.91,7.29,7.29,0,0,1,6.52,1.83c.89.73,1.74,1.66,2.56,2.47l1.54-1.54L6.19,13.79c-1.45-1.25-3.41-1.38-5.3-1.38a8.17,8.17,0,0,1,6.92.87A21.34,21.34,0,0,1,11.62,17l1.23-1.2C11,14.06,9.24,12.39,7.37,10.87a7.44,7.44,0,0,0-5-1.09,7.75,7.75,0,0,1,7.71,1,30.51,30.51,0,0,1,3.58,4.07l1.25-1.25L10.73,9.69C9.06,8.34,7.3,7.2,5.05,7.2c-.24,0-.49.07-.73.13a6.32,6.32,0,0,1,4.21-.51,10.46,10.46,0,0,1,6.61,4.59l.8,1.2L17,11.54a42.25,42.25,0,0,0-6.24-5.3,10.93,10.93,0,0,0-4.54-1c2.34-1.09,5.84-1.09,7.93.6a10.42,10.42,0,0,1,3.65,4.88L19,9.56c-2.56-2.6-5.1-5.74-8.64-6.17a5.19,5.19,0,0,0-1.78.16,6.87,6.87,0,0,1,7.19-.63,6.07,6.07,0,0,1,2.16,2.14,10,10,0,0,1,1.27,4.28c.27-2.54,1.12-5.24,3.63-6.5,2.14-1.21,5.1-.65,7,.69-3.94-.85-6.68,2.29-9.37,4.92L19.41,9.56l1.18,1.18C21.53,8,24.29,5,27.32,4.6a9.16,9.16,0,0,1,4.87.64A9.49,9.49,0,0,0,26.76,6.8a63.51,63.51,0,0,0-5.34,4.72l1.07,1.09C24,9.89,26.76,7.33,29.81,6.84a6.33,6.33,0,0,1,4.29.49c-2-.42-3.76.47-5.34,1.52l-1.27,1-4,3.74,0,0,1.24,1.25c1.54-1.78,3-4.21,5.23-5.07a8.24,8.24,0,0,1,6.06,0,7.26,7.26,0,0,0-5.28,1.34c-1.73,1.47-3.47,3-5.14,4.61L26.8,17c1.81-2,3.81-4.32,6.41-4.76a9.53,9.53,0,0,1,4.35.22,8.93,8.93,0,0,0-4.77,1c-1.73,1.4-3.4,3-5.1,4.47l1.54,1.56c2-2,3.92-4.21,6.68-4.43a7.71,7.71,0,0,1,2.4.09,7.31,7.31,0,0,0-4.81,1.76c-1.24,1-2.49,2.07-3.69,3.14l1.76,1.75a29.58,29.58,0,0,1,3.34-3,7.22,7.22,0,0,1,3.51-1.16,8.63,8.63,0,0,0-2.51,1M25.6,19.82l1.74,1.72L29,19.62l-1.56-1.56c-.62.58-1.27,1.12-1.85,1.76M17.14,20,15.29,21.8l1.85,1.85L19,21.8Zm2.07,1.6,1.85-1.83-1.85-1.84-1.82,1.84ZM17.39,23.9c.6.6,1.2,1.22,1.82,1.82.62-.62,1.25-1.22,1.85-1.85l-1.85-1.82Zm3.89-.25,1.85-1.85L21.28,20,19.46,21.8Zm2.09-2.09a16.57,16.57,0,0,0,1.47-2L23.29,18l-1.76,1.75c.62.63,1.22,1.25,1.84,1.83m-.55-4.08-1.6-1.6-1.76,1.78,1.82,1.83a8.1,8.1,0,0,0,1.54-2m-2.07-2.07L19.21,13.9l-1.53,1.54a5.59,5.59,0,0,0,1.53,2l1-.93Zm-3.54.47-1.6,1.6c.53.67.78,1.47,1.53,2L19,17.64ZM15.14,18l-1.56,1.55a18.57,18.57,0,0,0,1.49,2c.6-.6,1.23-1.2,1.83-1.83ZM13.07,20,11.31,21.8l1.76,1.76,1.76-1.76Zm.24,3.77,1.83,1.82,1.76-1.76c-.63-.6-1.23-1.22-1.85-1.82Zm2.07,2.09,1.83,1.83L19,26l-1.85-1.85ZM17.45,28l1.76,1.74L21,28l-1.76-1.74Zm3.77-.24L23,25.88l-1.76-1.76L19.46,26Zm2.07-2.1,1.84-1.82-1.78-1.76L21.53,23.9Zm2.09-2.09,1.74-1.74L25.36,20,23.6,21.8c.6.58,1.18,1.23,1.78,1.74m-1.85-5.81L25,19.24l1.56-2L25.36,16Zm-2.07-2.07L23,17.22l1.53-2.1-1.27-1.26Zm-2-2,1.47,1.46,1.35-2.22-1-1.05ZM18,11.12l1,1.93.29.36.14-.13a16.91,16.91,0,0,0,1.11-2.21c-.42-.42-.85-.87-1.27-1.24-.4.44-.87.84-1.22,1.29M16.14,12.9l1.38,2.22L19,13.66l-1.78-1.81Zm-2.23,2.25,1.52,2.07L17,15.66c-.6-.6-1.21-1.22-1.81-1.8-.42.44-.89.86-1.27,1.29m-2.07,2,1.56,2,1.52-1.51c-.61-.6-1.23-1.18-1.85-1.76ZM9.42,19.62c.58.65,1.13,1.27,1.69,1.92l1.71-1.74c-.6-.6-1.22-1.18-1.84-1.74Zm1.35,2.25L8.86,20.18,7.08,22l1.78,1.8Zm.09,3.9c.65-.67,1.32-1.32,2-2-.58-.63-1.2-1.16-1.82-1.72L9.11,24Zm2.07,2.07,2-2L13.07,24l-2,2ZM15,29.93l2-2c-.63-.6-1.23-1.23-1.85-1.83l-2,2Zm2,2,2-2-1.78-1.76-2,2Zm4.18.25-2-2-2,2,2,2Zm2-2-2-2L19.46,30l2,2Zm2.07-2.1-1.95-2L21.46,28l2,2ZM27.34,26l-2-2-1.83,1.85,2,2Zm2-2L27.4,22.09c-.6.58-1.24,1.09-1.8,1.72.67.64,1.31,1.31,2,2Zm2-2.05-1.78-1.78-1.89,1.69,1.89,1.89Z"/></g></g></g></svg>