<svg xmlns="http://www.w3.org/2000/svg" viewBox="0 0 161.12 9.46"><title>t-black-728</title><g id="Layer_2" data-name="Layer 2"><g id="Layer_1-2" data-name="Layer 1"><path d="M0,.17H3.28a3.11,3.11,0,0,1,1.17.2A2.11,2.11,0,0,1,5.23.9a2.18,2.18,0,0,1,.44.75,2.8,2.8,0,0,1,.13.86,2.82,2.82,0,0,1-.13.87,2.14,2.14,0,0,1-.44.74,2.24,2.24,0,0,1-.78.53,3.12,3.12,0,0,1-1.17.19H1.6V7.46H0ZM1.6,3.6H2.85a3.08,3.08,0,0,0,.53,0,1.15,1.15,0,0,0,.44-.16.92.92,0,0,0,.32-.33,1.27,1.27,0,0,0,.11-.56A1.27,1.27,0,0,0,4.14,2a.92.92,0,0,0-.32-.33,1.15,1.15,0,0,0-.44-.16,3.08,3.08,0,0,0-.53,0H1.6Z"/><path d="M6.6.17H8.05V7.46H6.6Z"/><path d="M9,3.8a1.61,1.61,0,0,1,.82-1.38,2.21,2.21,0,0,1,.78-.29A4.24,4.24,0,0,1,11.51,2a5.49,5.49,0,0,1,.8.06,2.33,2.33,0,0,1,.75.22,1.5,1.5,0,0,1,.55.45,1.32,1.32,0,0,1,.21.77V6.28a5.12,5.12,0,0,0,0,.69,1.52,1.52,0,0,0,.14.49H12.54c0-.09,0-.17-.07-.25s0-.18,0-.26a2,2,0,0,1-.81.5,3.2,3.2,0,0,1-1,.15A2.34,2.34,0,0,1,10,7.5a1.71,1.71,0,0,1-.57-.29A1.32,1.32,0,0,1,9,6.72,1.68,1.68,0,0,1,8.86,6,1.48,1.48,0,0,1,9,5.28a1.23,1.23,0,0,1,.4-.47A2.18,2.18,0,0,1,10,4.55a6.42,6.42,0,0,1,.66-.13l.64-.09a3.71,3.71,0,0,0,.55-.09,1,1,0,0,0,.38-.18.42.42,0,0,0,.14-.34.79.79,0,0,0-.07-.37.6.6,0,0,0-.21-.21A.83.83,0,0,0,11.8,3l-.37,0a1.08,1.08,0,0,0-.66.18.79.79,0,0,0-.29.61Zm3.34,1.08a.71.71,0,0,1-.23.12l-.29.08-.34,0-.34,0-.33.08a1.15,1.15,0,0,0-.27.14.62.62,0,0,0-.19.23.81.81,0,0,0,0,.66.64.64,0,0,0,.2.2.78.78,0,0,0,.28.11,1.87,1.87,0,0,0,.34,0,1.32,1.32,0,0,0,.66-.14,1,1,0,0,0,.35-.34,1.33,1.33,0,0,0,.14-.41c0-.13,0-.24,0-.32Z"/><path d="M14.85,2.18h1.38v.74h0A1.76,1.76,0,0,1,17,2.25a2,2,0,0,1,.9-.21,2.35,2.35,0,0,1,.95.16,1.33,1.33,0,0,1,.59.44,1.7,1.7,0,0,1,.3.68,4.13,4.13,0,0,1,.09.89V7.46H18.35v-3a1.83,1.83,0,0,0-.21-1,.8.8,0,0,0-.72-.32,1,1,0,0,0-.86.35,2,2,0,0,0-.26,1.16V7.46H14.85Z"/><path d="M20.81,2.18h1.37v.74h0a1.84,1.84,0,0,1,.72-.67,2,2,0,0,1,.9-.21,2.39,2.39,0,0,1,1,.16,1.39,1.39,0,0,1,.59.44,1.7,1.7,0,0,1,.3.68,4.91,4.91,0,0,1,.08.89V7.46H24.31v-3a1.83,1.83,0,0,0-.21-1,.8.8,0,0,0-.72-.32,1,1,0,0,0-.86.35,2,2,0,0,0-.27,1.16V7.46H20.81Z"/><path d="M28.25,1.37H26.8V.17h1.45Zm-1.45.81h1.45V7.46H26.8Z"/><path d="M29.3,2.18h1.38v.74h0a1.76,1.76,0,0,1,.71-.67,2.11,2.11,0,0,1,.9-.21,2.32,2.32,0,0,1,1,.16,1.33,1.33,0,0,1,.59.44,1.7,1.7,0,0,1,.3.68,4.13,4.13,0,0,1,.09.89V7.46H32.8v-3a1.83,1.83,0,0,0-.21-1,.8.8,0,0,0-.72-.32,1,1,0,0,0-.85.35,2,2,0,0,0-.27,1.16V7.46H29.3Z"/><path d="M40.33,7.12a2.71,2.71,0,0,1,0,.47,1.91,1.91,0,0,1-.14.52,1.77,1.77,0,0,1-.28.5,1.72,1.72,0,0,1-.49.43,2.35,2.35,0,0,1-.75.3,3.91,3.91,0,0,1-1,.12,3.72,3.72,0,0,1-.79-.1,3,3,0,0,1-.73-.3,1.85,1.85,0,0,1-.55-.53,1.47,1.47,0,0,1-.25-.77h1.45a.84.84,0,0,0,.39.57,1.51,1.51,0,0,0,.68.16,1.08,1.08,0,0,0,.89-.37A1.44,1.44,0,0,0,39,7.18V6.49h0a1.42,1.42,0,0,1-.67.61,2,2,0,0,1-.91.2,2.32,2.32,0,0,1-1-.21,1.78,1.78,0,0,1-.7-.57,2.35,2.35,0,0,1-.41-.84,4.34,4.34,0,0,1-.12-1,3.52,3.52,0,0,1,.14-1,2.59,2.59,0,0,1,.44-.84A2,2,0,0,1,37.36,2a2,2,0,0,1,.91.19,1.61,1.61,0,0,1,.66.66h0V2.18h1.38Zm-2.61-.91a1.19,1.19,0,0,0,.54-.12,1.23,1.23,0,0,0,.39-.33,1.4,1.4,0,0,0,.22-.46A1.67,1.67,0,0,0,39,4.75a3.08,3.08,0,0,0-.06-.61,1.61,1.61,0,0,0-.2-.52,1.12,1.12,0,0,0-.39-.36,1.27,1.27,0,0,0-.58-.13,1.09,1.09,0,0,0-.53.12,1.46,1.46,0,0,0-.37.33,1.49,1.49,0,0,0-.21.48,2.69,2.69,0,0,0-.07.57,2.76,2.76,0,0,0,.06.57,1.67,1.67,0,0,0,.19.5,1.3,1.3,0,0,0,.37.37A1.06,1.06,0,0,0,37.72,6.21Z"/><path d="M44.27.17H49.4V1.52H45.88V3.2h3V4.45h-3v3H44.27Z"/><path d="M50.08,2.18h1.38v1h0a1.74,1.74,0,0,1,.27-.45,2,2,0,0,1,.4-.36,2.12,2.12,0,0,1,.48-.23A2,2,0,0,1,53.16,2a1.06,1.06,0,0,1,.31,0V3.44l-.24,0H53a1.51,1.51,0,0,0-.67.13,1.2,1.2,0,0,0-.44.36,1.48,1.48,0,0,0-.24.54,2.84,2.84,0,0,0-.07.66V7.46H50.08Z"/><path d="M53.89,3.8a1.64,1.64,0,0,1,.83-1.38,2.23,2.23,0,0,1,.77-.29A4.31,4.31,0,0,1,56.37,2a5.52,5.52,0,0,1,.81.06,2.2,2.2,0,0,1,.74.22,1.35,1.35,0,0,1,.55.45,1.25,1.25,0,0,1,.22.77V6.28a5.12,5.12,0,0,0,0,.69,1.14,1.14,0,0,0,.14.49H57.4c0-.09,0-.17-.07-.25l0-.26a2,2,0,0,1-.82.5,3.11,3.11,0,0,1-1,.15,2.28,2.28,0,0,1-.7-.1,1.54,1.54,0,0,1-.57-.29,1.32,1.32,0,0,1-.38-.49,1.68,1.68,0,0,1-.14-.7,1.6,1.6,0,0,1,.15-.74,1.25,1.25,0,0,1,.41-.47,2,2,0,0,1,.58-.26c.21,0,.43-.1.65-.13l.65-.09a3.79,3.79,0,0,0,.54-.09,1,1,0,0,0,.39-.18.42.42,0,0,0,.14-.34.78.78,0,0,0-.08-.37.58.58,0,0,0-.2-.21,1,1,0,0,0-.3-.11L56.3,3a1.13,1.13,0,0,0-.67.18.86.86,0,0,0-.29.61Zm3.35,1.08A.71.71,0,0,1,57,5l-.3.08-.33,0-.35,0-.32.08a1.15,1.15,0,0,0-.27.14.62.62,0,0,0-.19.23.67.67,0,0,0-.07.33.67.67,0,0,0,.07.33.61.61,0,0,0,.19.2.83.83,0,0,0,.29.11,1.87,1.87,0,0,0,.34,0,1.35,1.35,0,0,0,.66-.14,1.14,1.14,0,0,0,.35-.34,1.09,1.09,0,0,0,.13-.41,2.23,2.23,0,0,0,0-.32Z"/><path d="M59.76,2.18h1.36V2.9h0a2.1,2.1,0,0,1,.69-.64A2,2,0,0,1,62.76,2a2.13,2.13,0,0,1,.91.2,1.36,1.36,0,0,1,.63.68,2,2,0,0,1,.63-.61,1.69,1.69,0,0,1,1-.27,2.71,2.71,0,0,1,.77.1,1.57,1.57,0,0,1,.61.33,1.44,1.44,0,0,1,.4.58,2.36,2.36,0,0,1,.14.88V7.46H66.37v-3c0-.18,0-.35,0-.5a1.23,1.23,0,0,0-.12-.41A.66.66,0,0,0,66,3.28a1.07,1.07,0,0,0-.48-.1.93.93,0,0,0-.5.12.86.86,0,0,0-.29.31,1.1,1.1,0,0,0-.14.42,2.7,2.7,0,0,0,0,.49V7.46H63.06v-3c0-.15,0-.3,0-.46A1.18,1.18,0,0,0,63,3.61a.63.63,0,0,0-.25-.31.94.94,0,0,0-.53-.12,1.12,1.12,0,0,0-.27,0,.9.9,0,0,0-.32.17,1,1,0,0,0-.27.37,1.42,1.42,0,0,0-.11.63V7.46H59.76Z"/><path d="M70.06,5.17a1.49,1.49,0,0,0,.36,1,1.28,1.28,0,0,0,.93.32,1.34,1.34,0,0,0,.76-.22.93.93,0,0,0,.39-.47h1.27a2.46,2.46,0,0,1-.94,1.36,2.7,2.7,0,0,1-1.53.42,2.87,2.87,0,0,1-1.12-.21,2.36,2.36,0,0,1-.85-.57A2.4,2.4,0,0,1,68.8,6a3.15,3.15,0,0,1-.19-1.13,3.07,3.07,0,0,1,.19-1.1,2.73,2.73,0,0,1,.55-.88,2.64,2.64,0,0,1,2-.8,2.6,2.6,0,0,1,1.18.26,2.41,2.41,0,0,1,.82.7,2.86,2.86,0,0,1,.46,1,3.48,3.48,0,0,1,.1,1.17Zm2.35-.92a1.56,1.56,0,0,0-.36-.83,1,1,0,0,0-.79-.29,1.2,1.2,0,0,0-.57.12,1,1,0,0,0-.56.66,1.72,1.72,0,0,0-.07.34Z"/><path d="M80.66,7.46H79.17l-.94-3.54h0l-.9,3.54h-1.5L74.14,2.18h1.53l1,3.58h0l.87-3.58h1.41l.9,3.57h0l1-3.57h1.49Z"/><path d="M82.68,4.82a3.17,3.17,0,0,1,.19-1.14,2.39,2.39,0,0,1,1.41-1.44A3,3,0,0,1,85.4,2a3.15,3.15,0,0,1,1.13.2,2.51,2.51,0,0,1,.86.56,2.4,2.4,0,0,1,.55.88,3.17,3.17,0,0,1,.19,1.14A3.19,3.19,0,0,1,87.94,6a2.44,2.44,0,0,1-.55.87,2.51,2.51,0,0,1-.86.56,3.15,3.15,0,0,1-1.13.2,3,3,0,0,1-1.12-.2A2.41,2.41,0,0,1,82.87,6,3.19,3.19,0,0,1,82.68,4.82Zm1.44,0a3.11,3.11,0,0,0,.06.62,1.84,1.84,0,0,0,.21.54,1,1,0,0,0,.4.38,1.13,1.13,0,0,0,.61.15A1.21,1.21,0,0,0,86,6.36,1.09,1.09,0,0,0,86.41,6a1.6,1.6,0,0,0,.21-.54,3.11,3.11,0,0,0,.06-.62,3.26,3.26,0,0,0-.06-.62,1.6,1.6,0,0,0-.21-.54A1.29,1.29,0,0,0,86,3.28a1.21,1.21,0,0,0-.62-.15,1.13,1.13,0,0,0-.61.15,1.22,1.22,0,0,0-.4.38,1.84,1.84,0,0,0-.21.54A3.26,3.26,0,0,0,84.12,4.82Z"/><path d="M89,2.18h1.38v1h0a1.74,1.74,0,0,1,.27-.45,2,2,0,0,1,.4-.36,2.12,2.12,0,0,1,.48-.23A2,2,0,0,1,92.05,2a1.06,1.06,0,0,1,.31,0V3.44l-.24,0h-.28a1.51,1.51,0,0,0-.67.13,1.2,1.2,0,0,0-.44.36,1.48,1.48,0,0,0-.24.54,2.84,2.84,0,0,0-.07.66V7.46H89Z"/><path d="M93,.17h1.44V4.08l1.83-1.9H98L96,4.12l2.21,3.34H96.43L95,5.1l-.57.54V7.46H93Z"/><path d="M106.35,2.62a1.27,1.27,0,0,0-.19-.5,1.53,1.53,0,0,0-.35-.41,2.12,2.12,0,0,0-.49-.27,1.77,1.77,0,0,0-.56-.09,1.87,1.87,0,0,0-.92.21,1.64,1.64,0,0,0-.61.56,2.3,2.3,0,0,0-.34.8,3.59,3.59,0,0,0-.11.93,3.34,3.34,0,0,0,.11.89,2.29,2.29,0,0,0,.34.78,1.71,1.71,0,0,0,.61.55,1.87,1.87,0,0,0,.92.21,1.45,1.45,0,0,0,1.14-.45,2.06,2.06,0,0,0,.51-1.18H108a3.71,3.71,0,0,1-.32,1.24,2.88,2.88,0,0,1-.67.93,3,3,0,0,1-1,.6,3.45,3.45,0,0,1-1.23.21,3.6,3.6,0,0,1-1.51-.3,3.14,3.14,0,0,1-1.12-.8,3.4,3.4,0,0,1-.71-1.21,4.44,4.44,0,0,1-.24-1.47,4.6,4.6,0,0,1,.24-1.51,3.58,3.58,0,0,1,.71-1.23A3.17,3.17,0,0,1,103.25.3a3.6,3.6,0,0,1,1.51-.3,3.77,3.77,0,0,1,1.13.17,3.15,3.15,0,0,1,1,.51,2.65,2.65,0,0,1,.7.82,3.07,3.07,0,0,1,.35,1.12Z"/><path d="M108.63,4.82a3.17,3.17,0,0,1,.2-1.14,2.41,2.41,0,0,1,1.4-1.44,3.11,3.11,0,0,1,1.13-.2,3.06,3.06,0,0,1,1.12.2,2.33,2.33,0,0,1,.86.56,2.42,2.42,0,0,1,.56.88,3.55,3.55,0,0,1,0,2.29,2.46,2.46,0,0,1-.56.87,2.33,2.33,0,0,1-.86.56,3.06,3.06,0,0,1-1.12.2,3.11,3.11,0,0,1-1.13-.2,2.38,2.38,0,0,1-.85-.56,2.44,2.44,0,0,1-.55-.87A3.19,3.19,0,0,1,108.63,4.82Zm1.45,0a3.11,3.11,0,0,0,.06.62,1.6,1.6,0,0,0,.21.54,1.09,1.09,0,0,0,.39.38,1.19,1.19,0,0,0,.62.15,1.15,1.15,0,0,0,.61-.15,1,1,0,0,0,.4-.38,1.6,1.6,0,0,0,.21-.54,3.11,3.11,0,0,0,.06-.62,3.26,3.26,0,0,0-.06-.62,1.6,1.6,0,0,0-.21-.54,1.22,1.22,0,0,0-.4-.38,1.15,1.15,0,0,0-.61-.15,1.19,1.19,0,0,0-.62.15,1.29,1.29,0,0,0-.39.38,1.6,1.6,0,0,0-.21.54A3.26,3.26,0,0,0,110.08,4.82Z"/><path d="M114.93,2.18h1.37v.74h0a1.78,1.78,0,0,1,.72-.67,2,2,0,0,1,.89-.21,2.41,2.41,0,0,1,1,.16,1.3,1.3,0,0,1,.58.44,1.58,1.58,0,0,1,.31.68,4.91,4.91,0,0,1,.08.89V7.46h-1.45v-3a1.83,1.83,0,0,0-.21-1,.77.77,0,0,0-.71-.32,1,1,0,0,0-.86.35,2,2,0,0,0-.27,1.16V7.46h-1.44Z"/><path d="M122,5.74a.89.89,0,0,0,.1.41.81.81,0,0,0,.25.27,1.25,1.25,0,0,0,.35.16,1.86,1.86,0,0,0,.42,0,1.27,1.27,0,0,0,.32,0,1,1,0,0,0,.3-.11.74.74,0,0,0,.23-.2.55.55,0,0,0,.09-.32.36.36,0,0,0-.11-.28.89.89,0,0,0-.32-.21,3.37,3.37,0,0,0-.51-.17l-.7-.16A6.29,6.29,0,0,1,121.8,5a2.16,2.16,0,0,1-.53-.25,1.32,1.32,0,0,1-.38-.4,1.2,1.2,0,0,1-.14-.59,1.47,1.47,0,0,1,.72-1.35,2.5,2.5,0,0,1,.74-.26,4.4,4.4,0,0,1,1.67,0,2.34,2.34,0,0,1,.71.28,1.72,1.72,0,0,1,.53.51,1.8,1.8,0,0,1,.25.81H124a.62.62,0,0,0-.31-.56A1.45,1.45,0,0,0,123,3h-.26a1,1,0,0,0-.26.07.5.5,0,0,0-.2.15.35.35,0,0,0-.08.26.37.37,0,0,0,.14.31,1,1,0,0,0,.37.2,5,5,0,0,0,.53.14l.6.13a6.32,6.32,0,0,1,.62.18,2.2,2.2,0,0,1,.53.27,1.28,1.28,0,0,1,.38.42,1.25,1.25,0,0,1,.14.61,1.63,1.63,0,0,1-.75,1.44,2.39,2.39,0,0,1-.77.31,4.45,4.45,0,0,1-1.78,0,2.36,2.36,0,0,1-.78-.31,1.73,1.73,0,0,1-.8-1.46Z"/><path d="M131.21,7.46h-1.37V6.72h0a1.75,1.75,0,0,1-.72.66,1.93,1.93,0,0,1-.9.22,2.39,2.39,0,0,1-1-.16,1.48,1.48,0,0,1-.59-.44,1.7,1.7,0,0,1-.3-.68,4.91,4.91,0,0,1-.08-.89V2.18h1.44v3a1.77,1.77,0,0,0,.21,1,.79.79,0,0,0,.72.33,1,1,0,0,0,.86-.36A1.91,1.91,0,0,0,129.77,5V2.18h1.44Z"/><path d="M132.26.17h1.45V7.46h-1.45Z"/><path d="M136.59,2.18h1.06v1h-1.06V5.76a.71.71,0,0,0,.12.49.72.72,0,0,0,.49.13,2.14,2.14,0,0,0,.45,0V7.47l-.41,0h-.44a4.23,4.23,0,0,1-.63,0,1.5,1.5,0,0,1-.54-.18,1,1,0,0,1-.36-.38,1.37,1.37,0,0,1-.13-.65V3.15h-.88v-1h.88V.6h1.45Z"/><path d="M138.19,3.8a1.63,1.63,0,0,1,.25-.84,1.58,1.58,0,0,1,.58-.54,2.16,2.16,0,0,1,.77-.29,4.31,4.31,0,0,1,.88-.09,5.49,5.49,0,0,1,.8.06,2.26,2.26,0,0,1,.75.22,1.42,1.42,0,0,1,.55.45,1.32,1.32,0,0,1,.21.77V6.28c0,.24,0,.47,0,.69a1.29,1.29,0,0,0,.15.49H141.7c0-.09,0-.17-.07-.25a1.22,1.22,0,0,1,0-.26,2.11,2.11,0,0,1-.82.5,3.11,3.11,0,0,1-1,.15,2.24,2.24,0,0,1-.7-.1,1.54,1.54,0,0,1-.57-.29,1.35,1.35,0,0,1-.39-.49A1.68,1.68,0,0,1,138,6a1.6,1.6,0,0,1,.15-.74,1.25,1.25,0,0,1,.41-.47,2.12,2.12,0,0,1,.57-.26c.22,0,.44-.1.66-.13l.64-.09a3.71,3.71,0,0,0,.55-.09.9.9,0,0,0,.38-.18.39.39,0,0,0,.14-.34.79.79,0,0,0-.07-.37.53.53,0,0,0-.21-.21A.83.83,0,0,0,141,3l-.36,0a1.11,1.11,0,0,0-.67.18.79.79,0,0,0-.29.61Zm3.34,1.08a.66.66,0,0,1-.22.12l-.3.08-.34,0-.34,0-.33.08a1.15,1.15,0,0,0-.27.14.6.6,0,0,0-.18.23.72.72,0,0,0,0,.66.52.52,0,0,0,.19.2.83.83,0,0,0,.29.11,1.76,1.76,0,0,0,.33,0,1.3,1.3,0,0,0,.66-.14,1,1,0,0,0,.35-.34,1.11,1.11,0,0,0,.14-.41,2,2,0,0,0,0-.32Z"/><path d="M145.85,2.18h1.06v1h-1.06V5.76a.71.71,0,0,0,.12.49.72.72,0,0,0,.49.13,2.14,2.14,0,0,0,.45,0V7.47l-.41,0h-.44a4.23,4.23,0,0,1-.63,0,1.44,1.44,0,0,1-.53-.18,1,1,0,0,1-.37-.38,1.37,1.37,0,0,1-.13-.65V3.15h-.88v-1h.88V.6h1.45Z"/><path d="M149,1.37h-1.45V.17H149Zm-1.45.81H149V7.46h-1.45Z"/><path d="M149.88,4.82a3.17,3.17,0,0,1,.19-1.14,2.4,2.4,0,0,1,.55-.88,2.51,2.51,0,0,1,.86-.56A3.06,3.06,0,0,1,152.6,2a3.11,3.11,0,0,1,1.13.2,2.51,2.51,0,0,1,.86.56,2.4,2.4,0,0,1,.55.88,3.17,3.17,0,0,1,.19,1.14A3.19,3.19,0,0,1,155.14,6a2.44,2.44,0,0,1-.55.87,2.51,2.51,0,0,1-.86.56,3.11,3.11,0,0,1-1.13.2,3.06,3.06,0,0,1-1.12-.2,2.51,2.51,0,0,1-.86-.56,2.44,2.44,0,0,1-.55-.87A3.19,3.19,0,0,1,149.88,4.82Zm1.45,0a3.11,3.11,0,0,0,.06.62,1.6,1.6,0,0,0,.21.54,1,1,0,0,0,.39.38,1.15,1.15,0,0,0,.61.15,1.19,1.19,0,0,0,.62-.15,1.12,1.12,0,0,0,.4-.38,2.17,2.17,0,0,0,.21-.54,3.11,3.11,0,0,0,.06-.62,3.26,3.26,0,0,0-.06-.62,2.17,2.17,0,0,0-.21-.54,1.32,1.32,0,0,0-.4-.38,1.19,1.19,0,0,0-.62-.15,1.15,1.15,0,0,0-.61.15,1.18,1.18,0,0,0-.39.38,1.6,1.6,0,0,0-.21.54A3.26,3.26,0,0,0,151.33,4.82Z"/><path d="M156.17,2.18h1.38v.74h0a1.76,1.76,0,0,1,.71-.67,2,2,0,0,1,.9-.21,2.35,2.35,0,0,1,.95.16,1.33,1.33,0,0,1,.59.44,1.7,1.7,0,0,1,.3.68,4.13,4.13,0,0,1,.09.89V7.46h-1.45v-3a1.83,1.83,0,0,0-.21-1,.8.8,0,0,0-.72-.32,1,1,0,0,0-.86.35,2,2,0,0,0-.26,1.16V7.46h-1.45Z"/></g></g></svg>