<svg xmlns="http://www.w3.org/2000/svg" viewBox="0 0 128.87 40.85"><defs><style>.cls-1{fill:#00b4aa;}.cls-2{fill:#72bd45;}.cls-3{fill:#ed1369;}.cls-4{fill:#f58220;}.cls-5{fill:#25abe2;}.cls-6{fill:#7961a7;}</style></defs><title>t-color-728</title><g id="Layer_2" data-name="Layer 2"><g id="Layer_1-2" data-name="Layer 1"><path d="M1,.25H4.26V4H7.34V.25h3.3V10.94H7.34V6.7H4.26v4.24H1Z"/><path d="M13.51,5.59a6.33,6.33,0,0,1,.39-2.25A5.05,5.05,0,0,1,15,1.58,4.89,4.89,0,0,1,16.71.42a6.05,6.05,0,0,1,4.43,0,5,5,0,0,1,1.71,1.16A5.2,5.2,0,0,1,24,3.34a6.33,6.33,0,0,1,.39,2.25A6.35,6.35,0,0,1,24,7.85a5.2,5.2,0,0,1-1.1,1.76,5.13,5.13,0,0,1-1.71,1.16,6.05,6.05,0,0,1-4.43,0A5,5,0,0,1,13.9,7.85,6.35,6.35,0,0,1,13.51,5.59Zm3.29,0A4.07,4.07,0,0,0,17,7.06a2.44,2.44,0,0,0,.53.89,1.79,1.79,0,0,0,.68.45,1.9,1.9,0,0,0,1.38,0A1.75,1.75,0,0,0,20.3,8a2.44,2.44,0,0,0,.53-.89,4.3,4.3,0,0,0,.22-1.47,4.28,4.28,0,0,0-.22-1.46,2.44,2.44,0,0,0-.53-.89,1.65,1.65,0,0,0-.69-.45,1.9,1.9,0,0,0-1.38,0,1.68,1.68,0,0,0-.68.45,2.44,2.44,0,0,0-.53.89A4,4,0,0,0,16.8,5.59Z"/><path d="M36.92,6.81a4.22,4.22,0,0,1-1.2,3.3,5.33,5.33,0,0,1-3.66,1.08,5.39,5.39,0,0,1-3.68-1.08,4.22,4.22,0,0,1-1.2-3.3V.25h3.29V6.07c0,.27,0,.55,0,.84a2.47,2.47,0,0,0,.18.79,1.29,1.29,0,0,0,.47.59,1.56,1.56,0,0,0,.93.24,1.46,1.46,0,0,0,.9-.24,1.34,1.34,0,0,0,.46-.59,2.47,2.47,0,0,0,.18-.79c0-.29,0-.57,0-.84V.25h3.29Z"/><path d="M42.69,7.34a2,2,0,0,0,.12.71,1,1,0,0,0,.65.63,2.91,2.91,0,0,0,.92.15,3.77,3.77,0,0,0,.44,0,1.7,1.7,0,0,0,.45-.15,1.1,1.1,0,0,0,.34-.3.83.83,0,0,0,.13-.49.58.58,0,0,0-.1-.35,1.12,1.12,0,0,0-.36-.27,6.57,6.57,0,0,0-.7-.27l-1.14-.33-1.28-.38A5.23,5.23,0,0,1,41,5.71a2.87,2.87,0,0,1-.84-.86,2.39,2.39,0,0,1-.33-1.32A3.19,3.19,0,0,1,41.15.84,4.17,4.17,0,0,1,42.53.2a6.55,6.55,0,0,1,1.6-.2,7.47,7.47,0,0,1,1.66.18A4.25,4.25,0,0,1,47.2.77a3.1,3.1,0,0,1,1,1.08,3.51,3.51,0,0,1,.41,1.64H45.48A.92.92,0,0,0,45.41,3a1,1,0,0,0-.32-.35,1.33,1.33,0,0,0-.47-.21,2.22,2.22,0,0,0-.51-.06l-.37,0a1.6,1.6,0,0,0-.39.11.81.81,0,0,0-.3.21.57.57,0,0,0-.12.37.59.59,0,0,0,.29.47,2.76,2.76,0,0,0,.71.33,9.08,9.08,0,0,0,1,.27L46,4.43a10.41,10.41,0,0,1,1.11.39,4,4,0,0,1,1,.57A2.62,2.62,0,0,1,49,7.51a3.27,3.27,0,0,1-.44,1.75,3.42,3.42,0,0,1-1.14,1.13,4.91,4.91,0,0,1-1.58.61,8.22,8.22,0,0,1-1.78.19c-.2,0-.45,0-.76,0a5.54,5.54,0,0,1-1-.19,6.44,6.44,0,0,1-1.05-.4,3.31,3.31,0,0,1-.94-.69,3.55,3.55,0,0,1-.69-1,3.64,3.64,0,0,1-.27-1.47Z"/><path d="M51.55.25h3.29V10.94H51.55Z"/><path d="M58,.25h3.37L64.52,6h0V.25h3.11V10.94h-3.2L61.18,5.1h0v5.84H58Z"/><path d="M78.7,9.84a3.13,3.13,0,0,1-1.36,1,4.73,4.73,0,0,1-1.68.31,5.14,5.14,0,0,1-2.12-.43,4.9,4.9,0,0,1-1.61-1.18,5.19,5.19,0,0,1-1-1.74,6.53,6.53,0,0,1-.35-2.14,6.24,6.24,0,0,1,.49-2.61A5.18,5.18,0,0,1,72.3,1.32,5,5,0,0,1,74,.32,5.8,5.8,0,0,1,75.83,0a5,5,0,0,1,3.3,1.05A4.86,4.86,0,0,1,80.75,4H77.59a1.52,1.52,0,0,0-.53-1,1.54,1.54,0,0,0-1-.38,2.21,2.21,0,0,0-1,.18,1.67,1.67,0,0,0-.62.47,2,2,0,0,0-.37.63,3.14,3.14,0,0,0-.18.7,3.74,3.74,0,0,0-.06.65c0,.2,0,.36,0,.48a4.06,4.06,0,0,0,.1.86,2.39,2.39,0,0,0,.36.89,2.16,2.16,0,0,0,.73.71,2.25,2.25,0,0,0,1.22.3,2.1,2.1,0,0,0,.56-.08,1.85,1.85,0,0,0,.52-.22,1.25,1.25,0,0,0,.4-.36A1.34,1.34,0,0,0,78,7.34H76.51V5.06h4.37v5.88H78.8Z"/><path class="cls-1" d="M.66,20.55a6.33,6.33,0,0,1,.39-2.25,5.05,5.05,0,0,1,1.1-1.76,4.89,4.89,0,0,1,1.71-1.16A5.69,5.69,0,0,1,6.07,15a5.7,5.7,0,0,1,2.22.42A4.89,4.89,0,0,1,10,16.54a5.2,5.2,0,0,1,1.1,1.76,6.71,6.71,0,0,1,0,4.51A5.2,5.2,0,0,1,10,24.57a5,5,0,0,1-1.71,1.16,5.7,5.7,0,0,1-2.22.42,5.69,5.69,0,0,1-2.21-.42,5,5,0,0,1-2.81-2.92A6.35,6.35,0,0,1,.66,20.55Zm3.29,0A4.07,4.07,0,0,0,4.17,22a2.44,2.44,0,0,0,.53.89,1.75,1.75,0,0,0,.69.45,2.2,2.2,0,0,0,.68.13,2.31,2.31,0,0,0,.69-.13,1.75,1.75,0,0,0,.69-.45A2.44,2.44,0,0,0,8,22a4.07,4.07,0,0,0,.22-1.47A4,4,0,0,0,8,19.09a2.44,2.44,0,0,0-.53-.89,1.65,1.65,0,0,0-.69-.45,2,2,0,0,0-.69-.13,1.94,1.94,0,0,0-.68.13,1.65,1.65,0,0,0-.69.45,2.44,2.44,0,0,0-.53.89A4,4,0,0,0,4,20.55Z"/><path class="cls-2" d="M14.38,15.21h5.5a4.22,4.22,0,0,1,1.84.36,3.65,3.65,0,0,1,1.21.9,3.4,3.4,0,0,1,.67,1.18,4.29,4.29,0,0,1-.11,2.9,3.19,3.19,0,0,1-.86,1.18,3.72,3.72,0,0,1-1.34.7,5.6,5.6,0,0,1-1.68.23H17.67v3.23H14.38Zm3.29,4.91h1.27l.63,0a1.65,1.65,0,0,0,.56-.14.94.94,0,0,0,.4-.34,1.1,1.1,0,0,0,.16-.64,1,1,0,0,0-.13-.56.81.81,0,0,0-.34-.32,1.53,1.53,0,0,0-.5-.13l-.59,0H17.67Z"/><path class="cls-3" d="M26.4,15.21h5.51a4.22,4.22,0,0,1,1.84.36,3.65,3.65,0,0,1,1.21.9,3.4,3.4,0,0,1,.67,1.18,4.19,4.19,0,0,1,.2,1.21,4.36,4.36,0,0,1-.31,1.69,3.11,3.11,0,0,1-.87,1.18,3.68,3.68,0,0,1-1.33.7,5.6,5.6,0,0,1-1.68.23H29.69v3.23H26.4Zm3.29,4.91H31l.62,0a1.59,1.59,0,0,0,.56-.14,1,1,0,0,0,.41-.34,1.19,1.19,0,0,0,.16-.64,1.08,1.08,0,0,0-.13-.56.83.83,0,0,0-.35-.32,1.47,1.47,0,0,0-.5-.13l-.58,0H29.69Z"/><path class="cls-4" d="M38.12,20.55a6.56,6.56,0,0,1,.38-2.25,5.2,5.2,0,0,1,1.1-1.76,5,5,0,0,1,1.72-1.16,6,6,0,0,1,4.42,0,5,5,0,0,1,1.72,1.16,5.2,5.2,0,0,1,1.1,1.76,6.71,6.71,0,0,1,0,4.51,5,5,0,0,1-2.82,2.92,6,6,0,0,1-4.42,0,5,5,0,0,1-2.82-2.92A6.58,6.58,0,0,1,38.12,20.55Zm3.29,0A4.32,4.32,0,0,0,41.62,22a2.76,2.76,0,0,0,.53.89,1.75,1.75,0,0,0,.69.45,1.9,1.9,0,0,0,1.38,0,1.75,1.75,0,0,0,.69-.45,2.59,2.59,0,0,0,.53-.89,4.3,4.3,0,0,0,.22-1.47,4.28,4.28,0,0,0-.22-1.46,2.59,2.59,0,0,0-.53-.89,1.65,1.65,0,0,0-.69-.45,1.9,1.9,0,0,0-1.38,0,1.65,1.65,0,0,0-.69.45,2.76,2.76,0,0,0-.53.89A4.3,4.3,0,0,0,41.41,20.55Z"/><path class="cls-5" d="M51.83,15.21H58.1a4.46,4.46,0,0,1,1.33.2,3.43,3.43,0,0,1,1.11.57,2.93,2.93,0,0,1,.76.95,3,3,0,0,1,.29,1.34,4,4,0,0,1-.1.83,3.39,3.39,0,0,1-.29.77,2.57,2.57,0,0,1-.5.64,2.25,2.25,0,0,1-.71.43,2.11,2.11,0,0,1,1.07,1,4.14,4.14,0,0,1,.5,1.71c0,.13,0,.29,0,.5s0,.43,0,.66.06.43.1.64a1.34,1.34,0,0,0,.18.48h-3.3a5.58,5.58,0,0,1-.18-.81c0-.27-.06-.55-.08-.83s0-.5-.09-.75a2,2,0,0,0-.2-.67,1.17,1.17,0,0,0-.43-.48,1.39,1.39,0,0,0-.77-.18H55.12v3.72H51.83Zm3.29,4.67h1.72l.49,0a1.43,1.43,0,0,0,.47-.14,1,1,0,0,0,.35-.32A1.1,1.1,0,0,0,58,18a2.19,2.19,0,0,0-1.28-.27H55.12Z"/><path class="cls-1" d="M66.64,18h-3V15.21h9.28V18h-3v7.94H66.64Z"/><path class="cls-6" d="M85.33,21.77a4.22,4.22,0,0,1-1.2,3.3,5.35,5.35,0,0,1-3.67,1.08,5.36,5.36,0,0,1-3.67-1.08,4.22,4.22,0,0,1-1.2-3.3V15.21h3.29V21c0,.27,0,.55,0,.84a2.47,2.47,0,0,0,.17.79,1.31,1.31,0,0,0,.48.59,1.56,1.56,0,0,0,.93.24,1.46,1.46,0,0,0,.9-.24,1.34,1.34,0,0,0,.46-.59,2.23,2.23,0,0,0,.17-.79q0-.44,0-.84V15.21h3.29Z"/><path class="cls-2" d="M88.5,15.21h3.36L95,20.93h0V15.21h3.11V25.89h-3.2l-3.28-5.83h0v5.83H88.5Z"/><path class="cls-3" d="M101.33,15.21h3.29V25.89h-3.29Z"/><path class="cls-5" d="M110.31,18h-3V15.21h9.27V18h-3v7.94h-3.29Z"/><path class="cls-6" d="M121.75,22,118,15.21h3.63l1.78,3.94,1.86-3.94h3.6L125,22v3.93h-3.29Z"/><path d="M3.93,30.17H7.15L11,40.85H7.63l-.45-1.52H3.78l-.47,1.52H0ZM6.52,37l-1-3.29h0L4.5,37Z"/><path d="M13.27,30.17h6.27a4.46,4.46,0,0,1,1.33.2,3.43,3.43,0,0,1,1.11.57,2.78,2.78,0,0,1,1,2.28,3.31,3.31,0,0,1-.1.83,2.73,2.73,0,0,1-.29.77,2.4,2.4,0,0,1-.5.65,2,2,0,0,1-.71.43,2.09,2.09,0,0,1,1.08,1,4.14,4.14,0,0,1,.49,1.7q0,.19,0,.51c0,.21,0,.43.05.65s.06.44.1.65a1.34,1.34,0,0,0,.18.48H20.06a5.88,5.88,0,0,1-.18-.81c0-.28-.07-.55-.09-.83s-.05-.5-.08-.75a2.28,2.28,0,0,0-.2-.67,1.25,1.25,0,0,0-.43-.48,1.39,1.39,0,0,0-.77-.18H16.56v3.72H13.27Zm3.29,4.67h1.72l.49,0a1.43,1.43,0,0,0,.47-.14,1.06,1.06,0,0,0,.35-.32,1,1,0,0,0,.14-.57,1,1,0,0,0-.34-.79,2.2,2.2,0,0,0-1.29-.27H16.56Z"/><path d="M25.83,30.17h8.84v2.74H29.13v1.33h5v2.54h-5v1.34h5.71v2.73h-9Z"/><path d="M40.82,30.17H44l3.89,10.68H44.52l-.45-1.52h-3.4l-.48,1.52h-3.3ZM43.41,37l-1-3.29h0l-1,3.29Z"/></g></g></svg>