<svg xmlns="http://www.w3.org/2000/svg" viewBox="0 0 196.88 13.11"><defs><style>.cls-1{fill:#fff;}</style></defs><title>t-white2-728</title><g id="Layer_2" data-name="Layer 2"><g id="Layer_1-2" data-name="Layer 1"><path class="cls-1" d="M0,.24H1l3.25,9h0L7.52.24h1l-3.71,10H3.71Z"/><path class="cls-1" d="M9.32.24h.89V1.65H9.32ZM9.32,3h.89v7.23H9.32Z"/><path class="cls-1" d="M16.23,5.13a1.66,1.66,0,0,0-1.89-1.59c-.79,0-1.71.31-1.71,1.25,0,.79.9,1.06,1.5,1.22l1.17.27a2.11,2.11,0,0,1,2.06,2c0,1.57-1.55,2.17-2.9,2.17-1.68,0-2.83-.78-3-2.55h.89a1.91,1.91,0,0,0,2.13,1.81c.82,0,2-.37,2-1.38,0-.84-.78-1.12-1.58-1.31l-1.14-.25c-1.15-.31-2-.7-2-1.94,0-1.47,1.44-2,2.71-2a2.37,2.37,0,0,1,2.65,2.33Z"/><path class="cls-1" d="M18.65.24h.88V1.65h-.88Zm0,2.77h.88v7.23h-.88Z"/><path class="cls-1" d="M22.63,3H24.1v.74H22.63V8.63c0,.57.08.91.71.95a6.56,6.56,0,0,0,.76,0v.75c-.27,0-.52,0-.79,0-1.18,0-1.58-.39-1.57-1.62V3.75H20.48V3h1.26V.84h.89Z"/><path class="cls-1" d="M29.3,3h1.6v7.86c0,1.44-.58,2.25-2.07,2.25a4.52,4.52,0,0,1-.72-.06V11.79a4.16,4.16,0,0,0,.55.06c.59,0,.64-.35.64-1.06Zm0-2.76h1.6V1.75H29.3Z"/><path class="cls-1" d="M32.3,6.61a3.66,3.66,0,1,1,7.31,0,3.66,3.66,0,1,1-7.31,0Zm5.71,0c0-1.25-.63-2.55-2.06-2.55s-2.06,1.3-2.06,2.55S34.52,9.17,36,9.17,38,7.87,38,6.61Z"/><path class="cls-1" d="M40.6,6.61a3.66,3.66,0,1,1,7.31,0,3.66,3.66,0,1,1-7.31,0Zm5.71,0c0-1.25-.63-2.55-2.05-2.55S42.2,5.36,42.2,6.61s.63,2.56,2.06,2.56S46.31,7.87,46.31,6.61Z"/><path class="cls-1" d="M49.24,3h1.51V4.06l0,0A2.58,2.58,0,0,1,53,2.8,2.3,2.3,0,0,1,55.6,5.27v5H54V5.69c0-1.14-.48-1.63-1.41-1.63A1.77,1.77,0,0,0,50.83,6v4.27H49.24Z"/><path class="cls-1" d="M64.1,10.24H62.58v-1h0a2.42,2.42,0,0,1-2.24,1.18c-2.28,0-3.39-1.7-3.39-3.87,0-2.62,1.56-3.77,3.14-3.77a2.79,2.79,0,0,1,2.41,1.14h0V.24h1.6ZM60.52,9.17c1.43,0,2-1.3,2-2.56,0-1.6-.77-2.55-2-2.55-1.5,0-2,1.33-2,2.64S59.14,9.17,60.52,9.17Z"/><path class="cls-1" d="M71.89,8.63c0,.39.09.54.38.54a3,3,0,0,0,.39,0v1.1a3.76,3.76,0,0,1-1,.19,1.08,1.08,0,0,1-1.23-.89,3.7,3.7,0,0,1-2.51.89,2.2,2.2,0,0,1-2.47-2.12c0-1.81,1.44-2.1,2.78-2.25,1.15-.22,2.17-.09,2.17-1s-.85-1-1.49-1c-.9,0-1.53.37-1.6,1.15H65.7C65.81,3.35,67.4,2.8,69,2.8c1.42,0,2.9.58,2.9,2.1Zm-1.59-2a5.84,5.84,0,0,1-2,.44c-.68.11-1.3.36-1.3,1.2s.91.92,1.47.92,1.8-.36,1.8-1.37Z"/><path class="cls-1" d="M73.65.24h1.6v10h-1.6Z"/><path class="cls-1" d="M83.34,10.24H81.78v-1h0a2.43,2.43,0,0,1-2.06,1.21c-1.89,0-2.7-1-2.7-2.85V3h1.59V7.44c0,1.27.52,1.73,1.39,1.73,1.33,0,1.78-.85,1.78-2V3h1.59Z"/><path class="cls-1" d="M85.06,3h1.52V4h0A2.43,2.43,0,0,1,88.85,2.8c2.28,0,3.38,1.74,3.38,3.85,0,1.95-1,3.79-3.12,3.79A2.81,2.81,0,0,1,86.69,9.3h0v3.62h-1.6Zm3.58,1.06c-1.35,0-2,1-2,2.57s.75,2.54,2,2.54c1.45,0,2-1.28,2-2.54S90,4.06,88.64,4.06Z"/><path class="cls-1" d="M93.7,8.35h2v1.89h-2Z"/><path class="cls-1" d="M96.81,3H98.5l1.42,5.4h0L101.31,3h1.61l1.3,5.4h0L105.72,3h1.62l-2.27,7.24h-1.64l-1.34-5.38h0l-1.33,5.38H99.05Z"/><path class="cls-1" d="M114.42,8.63c0,.39.09.54.38.54a3,3,0,0,0,.39,0v1.1a3.69,3.69,0,0,1-1,.19c-.65,0-1.11-.23-1.24-.89a3.69,3.69,0,0,1-2.5.89A2.2,2.2,0,0,1,108,8.32c0-1.81,1.44-2.1,2.78-2.25,1.15-.22,2.18-.09,2.18-1s-.86-1-1.5-1c-.9,0-1.53.37-1.6,1.15h-1.6c.12-1.86,1.7-2.41,3.29-2.41,1.42,0,2.9.58,2.9,2.1Zm-1.59-2a5.84,5.84,0,0,1-2,.44c-.69.11-1.31.36-1.31,1.2s.92.92,1.47.92c.7,0,1.8-.36,1.8-1.37Z"/><path class="cls-1" d="M116.27,8.35h2v1.89h-2Z"/><path class="cls-1" d="M126.73,9.86c0,2.17-1.27,3.25-3.56,3.25-1.45,0-3.09-.56-3.23-2.25h1.59c.2.91.93,1.06,1.74,1.06a1.64,1.64,0,0,0,1.86-1.85V9h0a2.49,2.49,0,0,1-2.17,1.28c-2.3,0-3.25-1.74-3.25-3.81A3.34,3.34,0,0,1,123,2.8,2.29,2.29,0,0,1,125.11,4h0V3h1.6Zm-1.6-3.4c0-1.25-.56-2.4-1.94-2.4s-1.91,1.32-1.91,2.52.58,2.4,1.91,2.4S125.13,7.69,125.13,6.46Z"/><path class="cls-1" d="M128,6.61a3.66,3.66,0,1,1,7.31,0,3.66,3.66,0,1,1-7.31,0Zm5.72,0c0-1.25-.63-2.55-2.06-2.55s-2.06,1.3-2.06,2.55.63,2.56,2.06,2.56S133.72,7.87,133.72,6.61Z"/><path class="cls-1" d="M135.92,3h1.74l1.84,5.56h0L141.29,3h1.65l-2.59,7.24h-1.79Z"/><path class="cls-1" d="M143,8.35h2v1.89h-2Z"/><path class="cls-1" d="M152.84,8.63c0,.39.08.54.38.54a3,3,0,0,0,.39,0v1.1a3.76,3.76,0,0,1-1,.19c-.64,0-1.11-.23-1.23-.89a3.7,3.7,0,0,1-2.51.89,2.2,2.2,0,0,1-2.48-2.12c0-1.81,1.44-2.1,2.79-2.25,1.15-.22,2.17-.09,2.17-1s-.85-1-1.5-1c-.89,0-1.53.37-1.59,1.15h-1.6c.11-1.86,1.69-2.41,3.29-2.41,1.41,0,2.9.58,2.9,2.1Zm-1.6-2a5.84,5.84,0,0,1-2,.44c-.68.11-1.3.36-1.3,1.2s.91.92,1.47.92,1.79-.36,1.79-1.37Z"/><path class="cls-1" d="M160.92,10.24h-1.57v-1h0a2.43,2.43,0,0,1-2.06,1.21c-1.89,0-2.7-1-2.7-2.85V3h1.6V7.44c0,1.27.51,1.73,1.38,1.73,1.33,0,1.78-.85,1.78-2V3h1.6Z"/><path class="cls-1" d="M165.47,0H167l-4,10.48h-1.52Z"/><path class="cls-1" d="M167.7.24h1.76v4H174v-4h1.75v10H174V5.73h-4.55v4.51H167.7Z"/><path class="cls-1" d="M186.9,5.24c0,2.86-1.79,5.24-4.79,5.24s-4.79-2.38-4.79-5.24S179.11,0,182.11,0,186.9,2.38,186.9,5.24Zm-7.83,0c0,1.92.9,3.81,3,3.81s3-1.89,3-3.81-.89-3.81-3-3.81S179.07,3.32,179.07,5.24Z"/><path class="cls-1" d="M191.17.24H193l3.85,10H195l-.94-2.65h-4l-.94,2.65h-1.81Zm-.62,6h3.06L192.11,2h0Z"/></g></g></svg>