<svg xmlns="http://www.w3.org/2000/svg" viewBox="0 0 111.47 30.99"><defs><style>.cls-1{fill:#fff;}</style></defs><g id="Layer_2" data-name="Layer 2"><g id="Layer_1-2" data-name="Layer 1"><path class="cls-1" d="M13.63,6.87a15.15,15.15,0,0,0,.27-1.64A11.89,11.89,0,0,0,14,3.54a.32.32,0,0,1,0-.18.38.38,0,0,0,0-.19,4.51,4.51,0,0,0-1.23.34,12.26,12.26,0,0,0-1.21.59,16.73,16.73,0,0,0-2,1.48A17,17,0,0,0,7.85,7.17,17.53,17.53,0,0,0,6.48,9,18.21,18.21,0,0,0,5.3,10.89a21.42,21.42,0,0,0-1,2c-.27.64-.51,1.29-.72,1.94a5.46,5.46,0,0,0-.24,2.06c0,.12.05.25.07.39a1.66,1.66,0,0,0,.11.38,1.83,1.83,0,0,0,.11.26s0,0,0,0a.28.28,0,0,0,.17.09.75.75,0,0,1,.2.1.21.21,0,0,1,.15.07l.46.13.46.13a16.55,16.55,0,0,0,2.31.28,18.72,18.72,0,0,1,2.35.24,11.33,11.33,0,0,1,2.67.77,7.51,7.51,0,0,1,1.48,1c.27.25.53.52.78.8a3,3,0,0,1,.55.94,2.44,2.44,0,0,1,.11,1.37A2.67,2.67,0,0,1,15,25a5.6,5.6,0,0,1-.54.86c-.21.27-.42.54-.65.81a13.94,13.94,0,0,1-2.92,2.59A8.34,8.34,0,0,1,9,30.3l-1,.37c-.18,0-.34.09-.5.14L7.11,31a.61.61,0,0,1-.44,0l-.41-.16a3.25,3.25,0,0,1-.55-.36A2.62,2.62,0,0,1,5.23,30a2.25,2.25,0,0,1-.34-.41,1.51,1.51,0,0,1-.22-.48.42.42,0,0,1,.22-.51,2.88,2.88,0,0,0,.45-.19l.4-.18a7.58,7.58,0,0,0,.86-.48.49.49,0,0,0-.19.11l.41-.24.44-.28a14.9,14.9,0,0,0,2.85-2.22q.33-.33.63-.69c.2-.23.39-.47.59-.72s.35-.45.52-.7a5,5,0,0,0,.44-.78.63.63,0,0,0,.08-.29L12,21.82l-.39-.07a19.39,19.39,0,0,0-2-.13,12.33,12.33,0,0,1-2-.2A11.27,11.27,0,0,1,5.71,21a7.05,7.05,0,0,1-2.19-1,5.6,5.6,0,0,1-1-.72,7.11,7.11,0,0,1-.91-.91,8.62,8.62,0,0,1-.85-1.16,5.2,5.2,0,0,1-.55-1.31,5,5,0,0,1-.09-2.08,9.57,9.57,0,0,1,.53-2A25,25,0,0,1,2.23,8.32c.3-.52.61-1,.94-1.54s.69-1,1.06-1.46A10.69,10.69,0,0,1,5.36,4c.4-.42.83-.84,1.27-1.26s1-.81,1.48-1.18A9.88,9.88,0,0,1,9.7.55a7.76,7.76,0,0,1,.84-.34A3.64,3.64,0,0,1,11.41,0a2.85,2.85,0,0,1,1.07,0,4.37,4.37,0,0,1,1.7.66,7.83,7.83,0,0,1,1.48,1.13,5.19,5.19,0,0,1,1.07,1.5,3.53,3.53,0,0,1,.32.89c.06.29.11.6.16.92a4.94,4.94,0,0,1,0,1.15c0,.37-.09.75-.16,1.15a18.29,18.29,0,0,1-1.35,4.27,20.56,20.56,0,0,1-2.32,3.87.3.3,0,0,1-.31.11l-.39-.08a1.46,1.46,0,0,1-.55-.26,4.83,4.83,0,0,1-.49-.37,3,3,0,0,1-.77-1,1.17,1.17,0,0,1-.11-.33.39.39,0,0,1,.07-.33,19.85,19.85,0,0,0,1.7-3A21.1,21.1,0,0,0,13.63,6.87Zm3.58-1.66v0Z"/><path class="cls-1" d="M27.28,22.86l.41.42a1.88,1.88,0,0,1,.33.5.61.61,0,0,1,0,.67,4.33,4.33,0,0,1-.48.81,4.25,4.25,0,0,1-.67.67,8.43,8.43,0,0,1-.78.55,6.23,6.23,0,0,1-1.81.74c-.32.05-.64.08-1,.1a3.56,3.56,0,0,1-1-.1,5.88,5.88,0,0,1-1.57-.57,7.26,7.26,0,0,1-1.35-.94,9.28,9.28,0,0,1-1.11-1.26A6.33,6.33,0,0,1,17.58,23a4.22,4.22,0,0,1-.24-1l-.09-1a8.41,8.41,0,0,1,.17-2,18.14,18.14,0,0,1,.5-2,15.25,15.25,0,0,1,.81-2,9,9,0,0,1,1.15-1.8,6.57,6.57,0,0,1,1.63-1.37,3.18,3.18,0,0,1,1-.4,6.2,6.2,0,0,1,1.11-.15,3.38,3.38,0,0,1,1.64.33,7.39,7.39,0,0,1,1.46.89,5.46,5.46,0,0,1,.76.76,3.94,3.94,0,0,1,.58.9,3.6,3.6,0,0,1,.29,1.34,2.2,2.2,0,0,1-.13,1l-.35.92a6.11,6.11,0,0,1-.42.85c-.17.28-.34.55-.54.82a9,9,0,0,1-1.3,1.44c-.27.22-.55.43-.83.63a3.79,3.79,0,0,1-.94.48,2.93,2.93,0,0,1-1.24.11,3.55,3.55,0,0,1-1.2-.37,2.42,2.42,0,0,1-.36-.18,3,3,0,0,0-.35-.22c-.05.37-.09.74-.13,1.11a8.23,8.23,0,0,0,0,1.11,4.48,4.48,0,0,0,.23,1.11l.44.05.45,0a5.51,5.51,0,0,0,1.2-.28,6.31,6.31,0,0,0,1.09-.5,8.26,8.26,0,0,0,1.63-1.37.42.42,0,0,1,.33-.13,1.7,1.7,0,0,1,.37.1,1.65,1.65,0,0,1,.54.24C27,22.62,27.13,22.74,27.28,22.86Zm-3.11-8.18a5.66,5.66,0,0,0-1.59,1.57,12.4,12.4,0,0,0-1.07,1.95c-.08.19-.15.37-.21.53s-.13.34-.2.54a2.75,2.75,0,0,0,1-.37,6.31,6.31,0,0,0,1.65-1.48,9.55,9.55,0,0,0,1.13-1.89c.07-.19.14-.4.2-.61s.12-.42.17-.65A4.47,4.47,0,0,0,24.17,14.68Z"/><path class="cls-1" d="M34.61,14.83a40.82,40.82,0,0,0-.41,4.7,43.88,43.88,0,0,0,.11,4.73c0,.23,0,.45.07.69s.06.46.11.68,0,.26.08.41,0,.3.07.44a1.4,1.4,0,0,1,.37.89.33.33,0,0,1-.09.34,1.33,1.33,0,0,1-.31.18h-.23a1.19,1.19,0,0,1-.44-.09l-.41-.17a6.23,6.23,0,0,1-1.4-1.11,2.6,2.6,0,0,1-.5-.68,5.11,5.11,0,0,1-.35-.8,3.79,3.79,0,0,1-.37-1.15,3.11,3.11,0,0,1-.06-.44,2.52,2.52,0,0,0-.06-.41,36.65,36.65,0,0,1-.13-6.62,44.48,44.48,0,0,1,1-6.55c0-.17.12-.28.24-.31a1,1,0,0,1,.35-.06,1.36,1.36,0,0,1,.64.17,6.36,6.36,0,0,1,.58.35,4.54,4.54,0,0,1,.65.54,5.62,5.62,0,0,1,.53.61,3.06,3.06,0,0,1,.32.48.7.7,0,0,1,.09.55C34.88,13.07,34.73,13.94,34.61,14.83Z"/><path class="cls-1" d="M47.59,22.86l.41.42a1.67,1.67,0,0,1,.33.5.61.61,0,0,1,0,.67,4.33,4.33,0,0,1-.48.81,4.25,4.25,0,0,1-.67.67,7.27,7.27,0,0,1-.78.55,6.23,6.23,0,0,1-1.81.74c-.32.05-.64.08-1,.1a3.49,3.49,0,0,1-1-.1,6,6,0,0,1-1.58-.57,7.26,7.26,0,0,1-1.35-.94,9.28,9.28,0,0,1-1.11-1.26A5.94,5.94,0,0,1,37.9,23a3.38,3.38,0,0,1-.24-1c0-.32-.07-.64-.1-1a8.41,8.41,0,0,1,.17-2c.14-.67.3-1.32.5-2a15.25,15.25,0,0,1,.81-2,9.51,9.51,0,0,1,1.15-1.8,6.75,6.75,0,0,1,1.63-1.37,3.18,3.18,0,0,1,1-.4,6.2,6.2,0,0,1,1.11-.15,3.44,3.44,0,0,1,1.65.33,7.7,7.7,0,0,1,1.46.89,5.39,5.39,0,0,1,.75.76,3.94,3.94,0,0,1,.58.9,3.42,3.42,0,0,1,.29,1.34,2.06,2.06,0,0,1-.13,1c-.11.29-.22.6-.35.92a6.11,6.11,0,0,1-.42.85,8.27,8.27,0,0,1-.54.82,8.91,8.91,0,0,1-1.29,1.44c-.28.22-.55.43-.84.63a3.79,3.79,0,0,1-.94.48,2.93,2.93,0,0,1-1.24.11,3.55,3.55,0,0,1-1.2-.37,1.92,1.92,0,0,1-.35-.18c-.11-.08-.23-.15-.35-.22,0,.37-.1.74-.13,1.11a5.88,5.88,0,0,0,0,1.11,4.46,4.46,0,0,0,.22,1.11l.44.05.45,0a5.25,5.25,0,0,0,1.2-.28,6,6,0,0,0,1.09-.5,8,8,0,0,0,1.63-1.37.44.44,0,0,1,.33-.13,1.56,1.56,0,0,1,.37.1,1.65,1.65,0,0,1,.54.24C47.29,22.62,47.44,22.74,47.59,22.86Zm-3.11-8.18a5.66,5.66,0,0,0-1.59,1.57,13.27,13.27,0,0,0-1.07,1.95c-.08.19-.14.37-.2.53s-.13.34-.21.54a2.75,2.75,0,0,0,1-.37A6.15,6.15,0,0,0,44,17.42a9.09,9.09,0,0,0,1.13-1.89c.07-.19.14-.4.2-.61s.12-.42.17-.65A4.47,4.47,0,0,0,44.48,14.68Z"/><path class="cls-1" d="M65.2,25.67a2.72,2.72,0,0,1,.13.37.38.38,0,0,1-.09.37.32.32,0,0,1-.35.15l-.39-.08a3,3,0,0,1-1.11-.7,5.26,5.26,0,0,1-1-1,6.26,6.26,0,0,1-.74-1.2A6.37,6.37,0,0,1,61.1,22c-.13-.57-.25-1.13-.37-1.7,0-.27-.11-.54-.17-.8s-.12-.52-.17-.79l-.7.57c-.22.19-.44.39-.67.61a16.93,16.93,0,0,0-2.83,3.55c-.77,1.31-1.51,2.63-2.2,4a.82.82,0,0,0,0,.21.79.79,0,0,1,0,.2.47.47,0,0,1-.24.3,1,1,0,0,1-.39.05,1.3,1.3,0,0,1-.43-.11l-.35-.17A3,3,0,0,1,51.44,27a1.88,1.88,0,0,1-.56-.59.5.5,0,0,1-.11-.19.42.42,0,0,0-.11-.18l-.15-.39c0-.14-.09-.27-.14-.39a1.48,1.48,0,0,1,0-.41,2.18,2.18,0,0,1-.07-.55,4.55,4.55,0,0,0,0-.52,7.56,7.56,0,0,1,0-.83v-.83a17.65,17.65,0,0,1,.33-2.89,11,11,0,0,1,.32-1.43c.13-.45.29-.91.46-1.38s.36-1,.56-1.46.39-1,.59-1.47.4-.91.61-1.35.42-.87.65-1.31q.07-.18.33-.15a1.59,1.59,0,0,1,.41.11,2.41,2.41,0,0,1,.5.21,1.63,1.63,0,0,1,.42.31,3.2,3.2,0,0,1,.82.82,3,3,0,0,0,.24.42.53.53,0,0,1,.09.46c-.17.5-.33,1-.48,1.48s-.31,1-.48,1.48-.25.85-.37,1.3-.25.87-.37,1.29c-.05.15-.1.32-.15.52l.42-.48.43-.48A16.86,16.86,0,0,1,57,16.83c.27-.22.55-.44.85-.65a5.77,5.77,0,0,1,.93-.54l.53-.13a1.42,1.42,0,0,1,.58,0,3.7,3.7,0,0,1,1.38.61,4.21,4.21,0,0,1,1.06,1.09,3.58,3.58,0,0,1,.53,1.34c.09.47.19.93.32,1.4s.19.79.28,1.19.17.8.27,1.22.15.63.21.92a5,5,0,0,0,.27.89.47.47,0,0,1,.06.15.47.47,0,0,0,.06.15.84.84,0,0,1,.11.18s0,0,0,0,0,0,0,0A2.81,2.81,0,0,1,65.2,25.67Z"/><path class="cls-1" d="M70.46,26.37a1.53,1.53,0,0,1,0,.3c0,.1-.06.18-.18.26a.55.55,0,0,1-.52.05,3.78,3.78,0,0,1-.52-.2,6.34,6.34,0,0,1-1.53-1.2,5.13,5.13,0,0,1-1.06-1.65s0,0,0,0a3.3,3.3,0,0,1-.41-1.22c0-.2,0-.4,0-.61s0-.43-.06-.65,0-.56,0-.85a3.8,3.8,0,0,1,0-.89c0-.59.13-1.16.22-1.7a18,18,0,0,1,1-3.3.66.66,0,0,1,.26-.33H68a1.18,1.18,0,0,1,.57.15,3.09,3.09,0,0,1,.5.33,5,5,0,0,1,1.07,1,3.51,3.51,0,0,0,.24.47.5.5,0,0,1,.1.46,16.9,16.9,0,0,0-.54,3,15.74,15.74,0,0,0,0,3,1.15,1.15,0,0,0,0-.16,1.11,1.11,0,0,1,0-.17,2.28,2.28,0,0,1,0,.45,1.7,1.7,0,0,0,0,.4c0,.2,0,.4,0,.59a3.11,3.11,0,0,0,.09.6,1.25,1.25,0,0,1,0,.31,1,1,0,0,0,0,.28c0,.12,0,.23.07.31a.58.58,0,0,1,0,.32.14.14,0,0,0,0,.09.14.14,0,0,1,0,.09,1.33,1.33,0,0,0,.11.26v.19Zm1.25-14.95a2.06,2.06,0,0,1,.23.93,1.61,1.61,0,0,1-.37,1l-.35.35a1.45,1.45,0,0,1-.43.28,1.32,1.32,0,0,1-.5.06,2.46,2.46,0,0,1-.5-.1,3.47,3.47,0,0,1-.85-.4,5.32,5.32,0,0,1-.74-.56,4,4,0,0,1-.63-.61,4.7,4.7,0,0,1-.52-.74,2.71,2.71,0,0,1-.29-.81,1.47,1.47,0,0,1,.11-.87,2.52,2.52,0,0,1,1-1.37.51.51,0,0,1,.52-.15l.2.06h.2a2.5,2.5,0,0,1,.71.36l.63.46a4.72,4.72,0,0,1,.5.5,4.39,4.39,0,0,1,.42.57v0c.15.17.28.34.41.5A2.1,2.1,0,0,1,71.71,11.42Z"/><path class="cls-1" d="M87,25.37c0,.08.11.18.17.3a1.89,1.89,0,0,1,.13.35.5.5,0,0,1,0,.32.35.35,0,0,1-.33.14,1,1,0,0,1-.37-.07l-.37-.15a2.31,2.31,0,0,1-.54-.33,3.94,3.94,0,0,1-.46-.44,8.75,8.75,0,0,1-.81-1.11,12.24,12.24,0,0,1-.67-1.23,7.5,7.5,0,0,1-.37-1.07A8.71,8.71,0,0,1,83.15,21c-.1.2-.19.38-.28.54l-.28.5c-.42.79-.86,1.57-1.33,2.35a13.16,13.16,0,0,1-1.63,2.16c-.19.2-.39.38-.57.56a3.26,3.26,0,0,1-.61.44,1.66,1.66,0,0,1-1.33,0A6,6,0,0,1,75.9,27a6.78,6.78,0,0,1-1.35-1.22,3.93,3.93,0,0,1-.91-2.44v-.85a22.45,22.45,0,0,1,.26-2.92,23.52,23.52,0,0,1,.63-2.91,16,16,0,0,1,1-2.73,14.54,14.54,0,0,1,1.57-2.5.37.37,0,0,1,.37-.15,1.64,1.64,0,0,1,.41.11,1.52,1.52,0,0,1,.57.28l.58.42a3.37,3.37,0,0,1,.44.47,2.92,2.92,0,0,1,.37.57,2.72,2.72,0,0,1,.13.37.45.45,0,0,1,0,.37,16.86,16.86,0,0,0-1.34,2.41l-.35,1c-.11.3-.21.63-.31,1a13.81,13.81,0,0,0-.45,1.88c-.09.62-.17,1.25-.22,1.89,0,.15,0,.3,0,.46s0,.32-.06.47a2.3,2.3,0,0,0,.3-.34q.74-1,1.38-2c.44-.68.87-1.37,1.32-2.09s.87-1.37,1.35-2a13,13,0,0,1,1.61-1.85.4.4,0,0,1,.39-.15l.39.07a2.38,2.38,0,0,1,.49.22,2.08,2.08,0,0,1,.43.34,4.69,4.69,0,0,1,.8.76,1.52,1.52,0,0,1,.38,1,24.14,24.14,0,0,1,0,2.56A15.53,15.53,0,0,0,86,22c0,.42.11.83.18,1.24a7.14,7.14,0,0,0,.34,1.2,2.22,2.22,0,0,0,.25.59l0,.08a.48.48,0,0,1,.11.15A.49.49,0,0,0,87,25.37Z"/><path class="cls-1" d="M111.3,12.76a2.61,2.61,0,0,1,.17.81,4.57,4.57,0,0,1,0,.82q-.08.81-.21,1.59c-.08.51-.16,1.05-.24,1.59s-.12,1-.2,1.57-.17,1.07-.24,1.61l-.15,1.55q-.07.78-.15,1.59c0,.28,0,.54,0,.8a4.52,4.52,0,0,1-.08.8c0,.24,0,.49-.05.74s0,.5,0,.77a.22.22,0,0,1-.17.24.87.87,0,0,1-.74,0l-.39-.23a2.56,2.56,0,0,1-.48-.33,4.89,4.89,0,0,1-.41-.37l-.33-.44a1.13,1.13,0,0,1-.22-.48,7.35,7.35,0,0,1-.11-.82c0-.27-.06-.54-.11-.81a8.71,8.71,0,0,1,0-.87V22a24.17,24.17,0,0,1,.22-2.7c.13-.89.27-1.79.45-2.7,0-.22.09-.45.13-.67s.08-.44.13-.66a3.46,3.46,0,0,0-.34.44l-.29.44c-.2.28-.39.55-.58.84s-.37.56-.57.83-.39.63-.57.94-.37.63-.54.95a21.14,21.14,0,0,0-1.09,2c-.34.68-.69,1.35-1.06,2l-.22.45a1.4,1.4,0,0,1-.3.4,3,3,0,0,1-.38.34,1,1,0,0,1-.43.18,1.12,1.12,0,0,1-.63,0,3.66,3.66,0,0,1-.59-.24,3,3,0,0,1-.72-.46c-.21-.19-.42-.38-.61-.57A4.5,4.5,0,0,1,98.5,23c-.14-.27-.28-.56-.4-.85a4.76,4.76,0,0,1-.23-.82c-.05-.27-.09-.54-.14-.81a.7.7,0,0,0-.13.17,1,1,0,0,1-.13.16c-.2.23-.38.45-.54.67l-.5.67c-.17.24-.33.49-.48.74s-.3.49-.44.74c-.28.49-.55,1-.82,1.48s-.55,1-.85,1.48a2.92,2.92,0,0,1-.17.36.73.73,0,0,1-.24.3.88.88,0,0,1-.81.3,3.55,3.55,0,0,1-.84-.26,4.63,4.63,0,0,1-1.72-1.52,4.17,4.17,0,0,1-.26-.46,3.42,3.42,0,0,1-.18-.54,3.88,3.88,0,0,1-.11-.61c0-.21-.05-.42-.07-.65a.52.52,0,0,0,0,.17,1.11,1.11,0,0,1,0,.17c0-.5-.09-1-.12-1.45s0-.93,0-1.4c0-.79,0-1.57,0-2.33s.11-1.53.21-2.3.23-1.53.34-2.29.23-1.53.35-2.29a.33.33,0,0,1,.18-.25,1.14,1.14,0,0,1,.33-.05.94.94,0,0,1,.53.15l.46.29a3.37,3.37,0,0,1,1,1l.24.4a.73.73,0,0,1,.09.45c0,.39-.09.77-.13,1.14s-.08.76-.13,1.15l-.15,2.39c0,.8-.07,1.59-.07,2.38q.3-.43.57-.9a7.93,7.93,0,0,1,.61-.87,10.12,10.12,0,0,1,1-1.19c.2-.19.42-.39.65-.57a3.28,3.28,0,0,1,.76-.46,1.21,1.21,0,0,1,.59-.08l.59.11a3.68,3.68,0,0,1,1.17.69,5.13,5.13,0,0,1,.9,1,5,5,0,0,1,.5.94,10.35,10.35,0,0,1,.36,1,.47.47,0,0,1,0,.17.42.42,0,0,0,0,.16,3.7,3.7,0,0,0,.31-.59,5.7,5.7,0,0,1,.32-.59c.52-1.06,1.06-2.11,1.63-3.15.22-.41.46-.83.72-1.24s.52-.8.79-1.2.56-.69.86-1,.61-.69,1-1l.51-.46c.18-.16.35-.3.52-.43l.61-.46a1.66,1.66,0,0,1,.69-.31,1.78,1.78,0,0,1,1.22.31,5.65,5.65,0,0,1,1,.83A2.93,2.93,0,0,1,111.3,12.76Z"/></g></g></svg>