<svg xmlns="http://www.w3.org/2000/svg" viewBox="0 0 64.71 11.89"><defs><style>.cls-1{fill:#fff;}</style></defs><g id="Layer_2" data-name="Layer 2"><g id="Layer_1-2" data-name="Layer 1"><path class="cls-1" d="M0,3.41H1.31l2.18,6.65L5.72,3.38h1L9,10.06l2.18-6.65h1.28L9.53,11.76H8.46L6.23,5.22,4,11.76H2.9Z"/><path class="cls-1" d="M14.54.24h1.4V1.6h-1.4Zm.08,3.17h1.23V11.7H14.62Z"/><path class="cls-1" d="M19.15,9.5v-5H18V3.41h1.15V.91h1.23v2.5H23V4.5H20.38V9.34a1.23,1.23,0,0,0,1.4,1.38,2.58,2.58,0,0,0,1.2-.29v1.06a3.15,3.15,0,0,1-1.49.35A2.11,2.11,0,0,1,19.15,9.5Z"/><path class="cls-1" d="M25.19,0h1.23V4.86a3.14,3.14,0,0,1,2.84-1.62,3,3,0,0,1,3.17,3.31V11.7H31.2V6.86a2.21,2.21,0,0,0-2.29-2.5A2.44,2.44,0,0,0,26.42,7V11.7H25.19Z"/><path class="cls-1" d="M39.36,7.59v0a4.32,4.32,0,0,1,8.63,0v0a4.3,4.3,0,0,1-4.34,4.33A4.25,4.25,0,0,1,39.36,7.59Zm7.37,0v0a3.13,3.13,0,0,0-3.08-3.23,3.06,3.06,0,0,0-3,3.2v0a3.11,3.11,0,0,0,3.06,3.22A3.06,3.06,0,0,0,46.73,7.59Z"/><path class="cls-1" d="M50.09,8.56V3.41h1.24V8.25a2.21,2.21,0,0,0,2.29,2.5A2.44,2.44,0,0,0,56.1,8.16V3.41h1.22V11.7H56.1V10.25a3.15,3.15,0,0,1-2.83,1.62A3,3,0,0,1,50.09,8.56Z"/><path class="cls-1" d="M60.09,3.41h1.24V5.58a3.55,3.55,0,0,1,3.38-2.31V4.6h-.1c-1.81,0-3.28,1.3-3.28,3.8v3.3H60.09Z"/></g></g></svg>