<svg xmlns="http://www.w3.org/2000/svg" viewBox="0 0 201.73 26.3"><defs><style>.cls-1{fill:#fff;}</style></defs><g id="Layer_2" data-name="Layer 2"><g id="Layer_1-2" data-name="Layer 1"><path class="cls-1" d="M18.21,9.29a2.34,2.34,0,0,1,.13.68,3,3,0,0,1,0,.67c0,.45-.1.89-.17,1.32s-.14.87-.2,1.32-.1.86-.17,1.3-.14.88-.2,1.33l-.12,1.29q-.06.64-.12,1.32,0,.33,0,.66a3.69,3.69,0,0,1-.07.65c0,.21,0,.41,0,.62s0,.42,0,.64a.19.19,0,0,1-.13.2.91.91,0,0,1-.27.05.64.64,0,0,1-.35-.1l-.32-.18a2.21,2.21,0,0,1-.4-.28l-.34-.3-.27-.37a1.2,1.2,0,0,1-.19-.4c0-.22-.07-.45-.09-.67s-.05-.45-.09-.68,0-.48,0-.72v-.72a20.52,20.52,0,0,1,.18-2.23c.11-.74.23-1.49.37-2.24,0-.18.08-.37.11-.55s.07-.37.11-.55a2.93,2.93,0,0,0-.28.36l-.24.37q-.25.35-.48.69c-.15.24-.31.47-.47.69l-.48.78c-.15.26-.3.52-.44.78-.33.54-.63,1.08-.91,1.64s-.57,1.12-.87,1.67c-.06.13-.12.25-.19.37a1.31,1.31,0,0,1-.24.34,2.69,2.69,0,0,1-.32.27.73.73,0,0,1-.36.16,1,1,0,0,1-.52,0,3.89,3.89,0,0,1-.49-.2,2.39,2.39,0,0,1-.59-.38,5.79,5.79,0,0,1-.51-.48,3.14,3.14,0,0,1-.46-.64c-.12-.22-.23-.46-.34-.7a4.27,4.27,0,0,1-.18-.68L7,15.7a.53.53,0,0,0-.11.14.69.69,0,0,1-.11.13c-.16.19-.31.37-.44.56l-.42.55c-.14.2-.27.41-.39.61s-.25.41-.37.61l-.68,1.23c-.22.41-.46.82-.7,1.22a2.92,2.92,0,0,1-.14.31.82.82,0,0,1-.2.25.75.75,0,0,1-.67.24,2.83,2.83,0,0,1-.7-.21A3.88,3.88,0,0,1,.61,20.08C.53,20,.46,19.83.39,19.7a2.64,2.64,0,0,1-.15-.45,4,4,0,0,1-.09-.5l-.06-.54a.78.78,0,0,0,0,.14.71.71,0,0,1,0,.14q-.06-.61-.09-1.2c0-.39,0-.77,0-1.16,0-.66,0-1.3.05-1.93s.08-1.27.16-1.9S.41,11,.5,10.4.69,9.13.79,8.5a.23.23,0,0,1,.15-.2.76.76,0,0,1,.27-.05.81.81,0,0,1,.44.12c.14.08.26.17.38.25a2.67,2.67,0,0,1,.82.79l.2.34a.56.56,0,0,1,.08.37c0,.33-.08.64-.11,1s-.07.62-.11.95l-.12,2c0,.66-.06,1.32-.06,2,.16-.24.32-.49.47-.75a7.21,7.21,0,0,1,.51-.72,7.38,7.38,0,0,1,.83-1,6.11,6.11,0,0,1,.53-.47,3.46,3.46,0,0,1,.63-.39,1,1,0,0,1,.49-.06,4.21,4.21,0,0,1,.49.09,3.3,3.3,0,0,1,1,.57,5.63,5.63,0,0,1,.75.81,4.55,4.55,0,0,1,.41.79,7.55,7.55,0,0,1,.29.84.29.29,0,0,1,0,.14.28.28,0,0,0,0,.13,2.57,2.57,0,0,0,.26-.49c.08-.16.16-.32.26-.49.43-.88.88-1.74,1.35-2.6.19-.35.39-.69.6-1s.43-.67.66-1,.46-.57.71-.85.5-.57.79-.86l.43-.38a4.56,4.56,0,0,1,.43-.36l.51-.38a1.37,1.37,0,0,1,.56-.26,1.5,1.5,0,0,1,1,.26,3.85,3.85,0,0,1,.83.69A2.58,2.58,0,0,1,18.21,9.29Z"/><path class="cls-1" d="M30.28,19.74a2.5,2.5,0,0,1,.14.25,2.12,2.12,0,0,1,.11.29.39.39,0,0,1,0,.26.3.3,0,0,1-.28.12.85.85,0,0,1-.31-.06l-.3-.12a1.58,1.58,0,0,1-.45-.28,2.23,2.23,0,0,1-.38-.37,7.69,7.69,0,0,1-.68-.91c-.2-.33-.38-.67-.55-1a6.51,6.51,0,0,1-.3-.88,6.27,6.27,0,0,1-.19-.92l-.23.44L26.6,17c-.35.66-.71,1.31-1.1,1.95a11.2,11.2,0,0,1-1.35,1.79c-.16.17-.32.32-.47.46a2.54,2.54,0,0,1-.51.37,1.4,1.4,0,0,1-1.1,0,5.38,5.38,0,0,1-1-.49,5.87,5.87,0,0,1-1.11-1,2.85,2.85,0,0,1-.66-1.32,2.69,2.69,0,0,1-.09-.7v-.71a20.29,20.29,0,0,1,.21-2.42,19.49,19.49,0,0,1,.52-2.41,14.66,14.66,0,0,1,.87-2.26A11.83,11.83,0,0,1,22.1,8.16.3.3,0,0,1,22.4,8a1.53,1.53,0,0,1,.34.09,1.51,1.51,0,0,1,.48.23l.47.35a2.69,2.69,0,0,1,.37.38,3.56,3.56,0,0,1,.31.48c0,.1.07.2.1.3a.38.38,0,0,1,0,.31,14.61,14.61,0,0,0-1.11,2L23,13c-.09.25-.18.52-.26.81a13.5,13.5,0,0,0-.37,1.56q-.12.77-.18,1.56c0,.13,0,.25,0,.39s0,.26,0,.38a1.56,1.56,0,0,0,.24-.28c.41-.53.79-1.07,1.15-1.64s.72-1.13,1.09-1.73.72-1.13,1.12-1.68a11.49,11.49,0,0,1,1.33-1.54.36.36,0,0,1,.32-.12l.33.06a1.69,1.69,0,0,1,.41.19,1.91,1.91,0,0,1,.35.27,3.88,3.88,0,0,1,.66.63,1.27,1.27,0,0,1,.32.84c0,.72,0,1.42,0,2.12a13.52,13.52,0,0,0,0,2.11c0,.35.09.69.16,1a5.92,5.92,0,0,0,.27,1,1.72,1.72,0,0,0,.22.49l0,.06a.47.47,0,0,1,.09.12A.47.47,0,0,0,30.28,19.74Z"/><path class="cls-1" d="M37.51,18a1.6,1.6,0,0,1,.09,1.34,2.38,2.38,0,0,1-.64,1,5.28,5.28,0,0,1-1.81,1.28,4.77,4.77,0,0,1-1,.37l-.64.12a1.77,1.77,0,0,1-.65,0,1.87,1.87,0,0,1-.78-.3,4.2,4.2,0,0,1-.63-.56A1.69,1.69,0,0,1,31,20.6a.64.64,0,0,1-.07-.34l0-.07a.54.54,0,0,1,0-.08l.16-.11.17-.07.28-.1.24-.1.25-.11.47-.23.48-.23a8.47,8.47,0,0,0,1.07-.77,4.08,4.08,0,0,0,.43-.36,2.93,2.93,0,0,0,.34-.43,2.36,2.36,0,0,1-.65-.37,11.32,11.32,0,0,1-1.57-1.13,5.36,5.36,0,0,1-1.25-1.54,2.89,2.89,0,0,1-.27-.73,2.16,2.16,0,0,1,0-.8,3.42,3.42,0,0,1,.18-.6c.08-.19.17-.38.25-.56A9.66,9.66,0,0,1,32.67,10a7.79,7.79,0,0,1,1.5-1.48.59.59,0,0,1,.62-.06,1.21,1.21,0,0,1,.47.23,4.88,4.88,0,0,1,.41.32,2.45,2.45,0,0,1,.68.82,1.31,1.31,0,0,1,.12.3.3.3,0,0,1-.06.32,8.6,8.6,0,0,0-2.08,2.85,7.89,7.89,0,0,0-.28.9,3,3,0,0,0-.09.94v0l.37.27.21.13a0,0,0,0,0,0,0,2.77,2.77,0,0,0,.49.24,2.84,2.84,0,0,1,.49.25l.51.3a4.29,4.29,0,0,1,.5.37,5.5,5.5,0,0,1,.54.54A2.35,2.35,0,0,1,37.51,18Z"/><path class="cls-1" d="M49.8,18.24v.48a2,2,0,0,1-.06.47c-.06.23-.21.3-.46.23a2.11,2.11,0,0,1-.55-.23,3.68,3.68,0,0,1-.67-.55,1.5,1.5,0,0,1-.27-.34,1.89,1.89,0,0,1-.16-.36,7.9,7.9,0,0,1-.14-.8c0-.27-.07-.53-.11-.8s-.08-.52-.11-.77-.06-.5-.1-.76-.09-.49-.14-.74-.11-.5-.17-.76a.14.14,0,0,0,0-.06.28.28,0,0,1,0-.1l-.21.19-.19.18-.4.42-.36.41A13,13,0,0,0,44.45,16a16.57,16.57,0,0,0-1,1.82c-.16.31-.32.62-.46.94l-.43,1c-.14.33-.3.64-.46.94a9,9,0,0,1-.55.87.32.32,0,0,1-.32.12,1.72,1.72,0,0,1-.36-.09,1.48,1.48,0,0,1-.53-.24L39.9,21a3.42,3.42,0,0,1-.63-.63c-.17-.23-.34-.47-.5-.72a3,3,0,0,1-.34-.92c0-.28-.07-.58-.11-.89s0-.61,0-.92a21.34,21.34,0,0,1,.08-3c.09-1,.2-2,.35-3,.06-.47.12-.94.2-1.41s.16-.94.26-1.41.21-.94.32-1.4.25-.92.41-1.39c0-.14.11-.23.22-.25h.21a.82.82,0,0,1,.46.13l.4.24a3.1,3.1,0,0,1,.46.35,2.27,2.27,0,0,1,.37.45l.2.33a.48.48,0,0,1,.07.4c-.16.41-.3.83-.43,1.24a9.4,9.4,0,0,0-.27,1.28c-.12.77-.22,1.55-.28,2.34s-.11,1.58-.15,2.38c0,.26,0,.52,0,.78s0,.5,0,.75a20.08,20.08,0,0,1,1.93-3l.57-.67a7.47,7.47,0,0,1,.62-.64,8.78,8.78,0,0,1,.8-.66,1.26,1.26,0,0,1,.95-.26,2.38,2.38,0,0,1,1,.33,6.2,6.2,0,0,1,.81.62,6.72,6.72,0,0,1,.63.67,2.85,2.85,0,0,1,.44.8A8.22,8.22,0,0,1,49.14,14c.1.35.18.72.26,1.08a10.17,10.17,0,0,1,.2,1c0,.32.1.66.14,1a3,3,0,0,1,.06.58Z"/><path class="cls-1" d="M60.53,12.82a.25.25,0,0,1-.08.26.44.44,0,0,1-.26.07,1,1,0,0,1-.3,0,.84.84,0,0,1-.25-.11h0a2.1,2.1,0,0,0-.43,0,3.79,3.79,0,0,0-1.44.49,6.29,6.29,0,0,0-1.55,1.36,8,8,0,0,0-1.09,1.8,8.91,8.91,0,0,0-.64,3c0,.31,0,.61,0,.92a5.68,5.68,0,0,1,0,.92q0,.09-.06.21a.29.29,0,0,1-.12.19.54.54,0,0,1-.39.15,1.61,1.61,0,0,1-.44-.06,3,3,0,0,1-.64-.32,4.09,4.09,0,0,1-.56-.42l-.41-.41a2.51,2.51,0,0,1-.35-.44,3.83,3.83,0,0,1-.74-1.86c-.08-.68-.13-1.35-.15-2s0-1.19,0-1.78.08-1.19.14-1.78.09-1.23.14-1.84S51,9.92,51,9.32a.27.27,0,0,1,.15-.23.79.79,0,0,1,.28,0,1.29,1.29,0,0,1,.46.14,3.61,3.61,0,0,1,.39.22,2.76,2.76,0,0,1,.46.37,3.41,3.41,0,0,1,.37.43c.06.1.12.22.19.35a1,1,0,0,1,.09.39,8,8,0,0,0-.08.84c0,.28,0,.56,0,.84s0,.4-.05.59,0,.36,0,.55l.49-.68c.17-.22.34-.44.52-.64a8.27,8.27,0,0,1,1-.81A5.11,5.11,0,0,1,56.24,11a2.38,2.38,0,0,1,.69-.2,5.34,5.34,0,0,1,.69-.05,2.19,2.19,0,0,1,.83.16,4.12,4.12,0,0,1,1.07.58,3.21,3.21,0,0,1,.41.34,2.57,2.57,0,0,1,.35.39c.06.11.12.2.17.3A.57.57,0,0,1,60.53,12.82Z"/><path class="cls-1" d="M71.5,12.69a3.46,3.46,0,0,1,0,.79q-.06.38-.15.75a14.42,14.42,0,0,1-1.26,3.31,14.63,14.63,0,0,1-1,1.42,6.82,6.82,0,0,1-1.19,1.21,4.29,4.29,0,0,1-.77.55,2.31,2.31,0,0,1-.89.31,2.83,2.83,0,0,1-1.36-.09,5.55,5.55,0,0,1-1.28-.61,5.7,5.7,0,0,1-1.12-1,5.3,5.3,0,0,1-.81-1.24,3.75,3.75,0,0,1-.3-.87c-.06-.3-.12-.61-.16-.94a5.28,5.28,0,0,1,.22-1.93.51.51,0,0,1,0-.21c0-.15,0-.28,0-.4a2,2,0,0,1,.08-.4,3.94,3.94,0,0,1,.6-1.47,9.31,9.31,0,0,1,1-1.26,6.64,6.64,0,0,1,.62-.49l.64-.43.81-.47A6.31,6.31,0,0,1,66,8.86a3.21,3.21,0,0,1,1.88-.21,4.46,4.46,0,0,1,1.63.7,5.28,5.28,0,0,1,1.28,1.26A3.34,3.34,0,0,1,71.5,12.69ZM68,14.13l.3-.87a6,6,0,0,0,.25-.87q.09-.35.15-.63a5.3,5.3,0,0,0,.09-.63,3.46,3.46,0,0,0-.7.26l-.68.35a11,11,0,0,0-1.07.74l-.55.41a4.41,4.41,0,0,0-.52.45,2.09,2.09,0,0,0-.22.2,2,2,0,0,1-.21.2l-.06.13a1,1,0,0,1-.06.14,8.6,8.6,0,0,0-.57,2,9,9,0,0,0-.11,2l.09.46.4-.14.37-.17a5.22,5.22,0,0,0,1-.81c.29-.32.57-.65.84-1A11.11,11.11,0,0,0,68,14.13Z"/><path class="cls-1" d="M82.47,12.69a3.46,3.46,0,0,1,0,.79q-.06.38-.15.75A14.42,14.42,0,0,1,81,17.54a13,13,0,0,1-1,1.42,6.5,6.5,0,0,1-1.19,1.21,4,4,0,0,1-.77.55,2.31,2.31,0,0,1-.89.31,2.84,2.84,0,0,1-1.36-.09,5.3,5.3,0,0,1-1.27-.61,5.42,5.42,0,0,1-1.12-1,4.73,4.73,0,0,1-.81-1.24,3.37,3.37,0,0,1-.31-.87c-.06-.3-.11-.61-.15-.94a5.29,5.29,0,0,1,.21-1.93.51.51,0,0,1,0-.21c0-.15,0-.28,0-.4a3.14,3.14,0,0,1,.08-.4,3.94,3.94,0,0,1,.6-1.47,9.38,9.38,0,0,1,1-1.26,5.45,5.45,0,0,1,.61-.49l.64-.43.81-.47A5.88,5.88,0,0,1,77,8.86a3.17,3.17,0,0,1,1.87-.21,4.5,4.5,0,0,1,1.64.7,5.24,5.24,0,0,1,1.27,1.26A3.34,3.34,0,0,1,82.47,12.69ZM79,14.13l.31-.87a7.57,7.57,0,0,0,.24-.87q.09-.35.15-.63c0-.19.07-.4.1-.63a3.34,3.34,0,0,0-.71.26c-.23.11-.45.23-.67.35a10.1,10.1,0,0,0-1.08.74c-.18.14-.36.28-.55.41a4.41,4.41,0,0,0-.52.45,1.34,1.34,0,0,0-.21.2l-.22.2-.06.13a1,1,0,0,1-.06.14,8.6,8.6,0,0,0-.57,2A9,9,0,0,0,75,18l.1.46.39-.14.37-.17a5.22,5.22,0,0,0,1-.81c.29-.32.58-.65.84-1A11.11,11.11,0,0,0,79,14.13Z"/><path class="cls-1" d="M101.38,9.29a2.36,2.36,0,0,1,.14.68,3,3,0,0,1,0,.67c0,.45-.09.89-.17,1.32s-.13.87-.19,1.32-.1.86-.17,1.3-.14.88-.2,1.33l-.12,1.29c-.05.43-.09.87-.13,1.32q0,.33,0,.66a3.66,3.66,0,0,1-.06.65c0,.21,0,.41-.05.62s0,.42,0,.64a.2.2,0,0,1-.14.2.85.85,0,0,1-.26.05.64.64,0,0,1-.35-.1l-.32-.18a1.91,1.91,0,0,1-.4-.28c-.12-.1-.24-.2-.34-.3l-.27-.37a.9.9,0,0,1-.19-.4c0-.22-.07-.45-.09-.67s0-.45-.09-.68,0-.48,0-.72v-.72A20.52,20.52,0,0,1,98,14.69c.1-.74.23-1.49.37-2.24,0-.18.08-.37.11-.55s.06-.37.1-.55a4.22,4.22,0,0,0-.27.36c-.08.13-.17.25-.25.37l-.47.69c-.16.24-.31.47-.48.69l-.47.78c-.16.26-.3.52-.45.78-.32.54-.63,1.08-.9,1.64s-.57,1.12-.87,1.67l-.19.37A1.31,1.31,0,0,1,94,19a2.78,2.78,0,0,1-.33.27.74.74,0,0,1-.35.16,1,1,0,0,1-.52,0,3.37,3.37,0,0,1-.49-.2,2.65,2.65,0,0,1-.6-.38c-.17-.15-.34-.31-.5-.48a2.8,2.8,0,0,1-.46-.64,7.56,7.56,0,0,1-.34-.7,4.27,4.27,0,0,1-.18-.68c-.05-.22-.09-.45-.13-.67a.5.5,0,0,0-.1.14.69.69,0,0,1-.11.13c-.16.19-.31.37-.45.56l-.41.55c-.14.2-.27.41-.4.61s-.24.41-.37.61c-.22.41-.44.82-.67,1.23s-.46.82-.7,1.22a2.92,2.92,0,0,1-.14.31.82.82,0,0,1-.2.25.76.76,0,0,1-.67.24,2.71,2.71,0,0,1-.7-.21,3.91,3.91,0,0,1-1.43-1.26,2.82,2.82,0,0,1-.21-.38,2.64,2.64,0,0,1-.15-.45,4,4,0,0,1-.09-.5l-.06-.54a.71.71,0,0,0,0,.14.78.78,0,0,1,0,.14q-.06-.61-.09-1.2c0-.39,0-.77,0-1.16,0-.66,0-1.3,0-1.93s.09-1.27.17-1.9.2-1.27.29-1.9.19-1.27.29-1.9a.23.23,0,0,1,.15-.2.76.76,0,0,1,.27-.05.83.83,0,0,1,.44.12l.38.25a2.78,2.78,0,0,1,.82.79c.06.11.12.22.2.34a.55.55,0,0,1,.07.37c0,.33-.07.64-.1,1s-.07.62-.11.95Q86,13,86,14c0,.66-.07,1.32-.07,2q.25-.36.48-.75a7.11,7.11,0,0,1,.5-.72,9.27,9.27,0,0,1,.83-1,6.28,6.28,0,0,1,.54-.47,2.89,2.89,0,0,1,.63-.39,1,1,0,0,1,.49-.06l.49.09a3.13,3.13,0,0,1,1,.57,4.68,4.68,0,0,1,.75.81,4,4,0,0,1,.42.79,7.55,7.55,0,0,1,.29.84.29.29,0,0,1,0,.14.28.28,0,0,0,0,.13,3.29,3.29,0,0,0,.26-.49,4.7,4.7,0,0,1,.26-.49c.43-.88.88-1.74,1.35-2.6.18-.35.38-.69.6-1s.43-.67.66-1,.46-.57.7-.85.51-.57.8-.86l.43-.38a3.57,3.57,0,0,1,.43-.36l.5-.38a1.4,1.4,0,0,1,.57-.26,1.51,1.51,0,0,1,1,.26,4.11,4.11,0,0,1,.83.69A2.56,2.56,0,0,1,101.38,9.29Z"/><path class="cls-1" d="M121.85,15a4.65,4.65,0,0,1,0,1.58,13.4,13.4,0,0,1-.38,1.58,16.58,16.58,0,0,1-1.09,2.65,15.63,15.63,0,0,1-1.54,2.41,12.27,12.27,0,0,1-2,2,5,5,0,0,1-4.4.91,7.09,7.09,0,0,1-1.72-.86,7.7,7.7,0,0,1-2.69-3,7.89,7.89,0,0,1-.8-3,13.5,13.5,0,0,1,.18-3.12,19.48,19.48,0,0,1,.79-2.93,20,20,0,0,1,1.21-2.77A13,13,0,0,1,110,9.23c.22-.37.45-.74.67-1.13s.5-.73.77-1.08a13.17,13.17,0,0,1,.86-1,8.89,8.89,0,0,1,1-1,6.87,6.87,0,0,1,1.1-.78l.68-.36a2.83,2.83,0,0,1,.73-.23h.28l.27,0c.25,0,.45.09.62.13a4.73,4.73,0,0,1,1,.39,9.24,9.24,0,0,1,1.42,1,6.83,6.83,0,0,1,1.2,1.32,5.9,5.9,0,0,1,.76,1.58,3.89,3.89,0,0,1,.14,1.73.27.27,0,0,1-.15.23.82.82,0,0,1-.28.05.83.83,0,0,1-.44-.12l-.39-.25a2.7,2.7,0,0,1-.82-.8l-.19-.32a.6.6,0,0,1-.06-.38V7.76A3.12,3.12,0,0,0,119,7.3l-.12-.43a.61.61,0,0,1,0-.12l0-.12a.49.49,0,0,1-.1-.16.32.32,0,0,0-.12-.15.12.12,0,0,0-.09,0,2.61,2.61,0,0,0-.46,0,4.21,4.21,0,0,0-.72.18,4.28,4.28,0,0,0-.69.31c-.25.16-.48.33-.71.5l-.67.54a13.58,13.58,0,0,0-2.05,2.39,11.24,11.24,0,0,0-.79,1.3c-.23.46-.45.93-.65,1.4a9,9,0,0,0-.34.86l-.31.85a16.7,16.7,0,0,0-.79,3.31,14.65,14.65,0,0,0-.17,1.61,12.33,12.33,0,0,0,0,1.61c0,.29.09.57.14.85a4.92,4.92,0,0,0,.23.81,3.45,3.45,0,0,0,.25.52l.18.27s0,0,0,0,0,0,0,0l.28.09.4,0,.39,0a4.73,4.73,0,0,0,1.87-.61c.23-.15.43-.3.62-.45l.55-.47a14.19,14.19,0,0,0,1.76-2.1,13.28,13.28,0,0,0,1.3-2.44,11.71,11.71,0,0,0,.68-1.87,9.75,9.75,0,0,0,.24-1,4.58,4.58,0,0,0,.06-1,.13.13,0,0,0,0-.06.19.19,0,0,1,0-.07,6.61,6.61,0,0,0-.89.37,9.68,9.68,0,0,0-.82.61,8.33,8.33,0,0,0-.74.71c-.14.14-.27.28-.38.41l-.35.42a1.42,1.42,0,0,0-.22.18l-.18.19-.2.18a.94.94,0,0,0-.17.18.28.28,0,0,1-.29.13l-.32-.07a1.05,1.05,0,0,1-.46-.23l-.43-.32a2.63,2.63,0,0,1-.65-.79,1.75,1.75,0,0,1-.1-.3.29.29,0,0,1,.07-.29l.19-.32.18-.32.18-.28.22-.27a13.18,13.18,0,0,1,.92-1.06,7.11,7.11,0,0,1,1.1-.93,5.32,5.32,0,0,1,.65-.39,2.5,2.5,0,0,1,.7-.23,2.74,2.74,0,0,1,1,0,3.25,3.25,0,0,1,.93.35,5.37,5.37,0,0,1,2,1.78,5,5,0,0,1,.45.78A3,3,0,0,1,121.85,15Z"/><path class="cls-1" d="M134,12.69a3.46,3.46,0,0,1,0,.79c-.05.25-.1.5-.16.75a13.93,13.93,0,0,1-1.25,3.31,14.74,14.74,0,0,1-1,1.42,6.2,6.2,0,0,1-1.19,1.21,3.68,3.68,0,0,1-.77.55,2.27,2.27,0,0,1-.88.31,2.87,2.87,0,0,1-1.37-.09,5.48,5.48,0,0,1-1.27-.61,5.7,5.7,0,0,1-1.12-1,4.73,4.73,0,0,1-.81-1.24,3.79,3.79,0,0,1-.31-.87c-.06-.3-.11-.61-.15-.94a5.51,5.51,0,0,1,.21-1.93.51.51,0,0,1,0-.21c0-.15,0-.28,0-.4a1.49,1.49,0,0,1,.08-.4,4.1,4.1,0,0,1,.59-1.47,9.38,9.38,0,0,1,1-1.26,6.55,6.55,0,0,1,.61-.49c.21-.14.42-.29.65-.43s.53-.32.81-.47a5.33,5.33,0,0,1,.84-.39,3.18,3.18,0,0,1,1.87-.21,4.5,4.5,0,0,1,1.64.7,5.24,5.24,0,0,1,1.27,1.26A3.35,3.35,0,0,1,134,12.69Zm-3.5,1.44c.1-.28.21-.57.31-.87a7.57,7.57,0,0,0,.24-.87c.06-.23.12-.44.16-.63a5.3,5.3,0,0,0,.09-.63,3.55,3.55,0,0,0-.71.26l-.67.35a9,9,0,0,0-1.07.74l-.55.41a4.51,4.51,0,0,0-.53.45,1.34,1.34,0,0,0-.21.2,2,2,0,0,1-.21.2.54.54,0,0,0-.07.13,1,1,0,0,1-.06.14,9.11,9.11,0,0,0-.56,2,8.46,8.46,0,0,0-.11,2l.09.46.4-.14.37-.17a5.15,5.15,0,0,0,1-.81c.3-.32.58-.65.85-1A10.58,10.58,0,0,0,130.52,14.13Z"/><path class="cls-1" d="M146.21,12.69a3.46,3.46,0,0,1,0,.79q-.06.38-.15.75a14.42,14.42,0,0,1-1.26,3.31,13,13,0,0,1-1,1.42,6.5,6.5,0,0,1-1.19,1.21,4,4,0,0,1-.77.55A2.26,2.26,0,0,1,141,21a2.84,2.84,0,0,1-1.36-.09,5.48,5.48,0,0,1-1.27-.61,5.7,5.7,0,0,1-1.12-1,4.73,4.73,0,0,1-.81-1.24,3.37,3.37,0,0,1-.31-.87c-.06-.3-.11-.61-.15-.94a5.51,5.51,0,0,1,.21-1.93.51.51,0,0,1,0-.21c0-.15,0-.28.05-.4a2,2,0,0,1,.07-.4,3.94,3.94,0,0,1,.6-1.47,9.38,9.38,0,0,1,1-1.26,5.45,5.45,0,0,1,.61-.49l.64-.43c.27-.16.54-.32.82-.47a5.33,5.33,0,0,1,.84-.39,3.17,3.17,0,0,1,1.87-.21,4.5,4.5,0,0,1,1.64.7,5.24,5.24,0,0,1,1.27,1.26A3.34,3.34,0,0,1,146.21,12.69Zm-3.49,1.44.31-.87a7.57,7.57,0,0,0,.24-.87q.09-.35.15-.63a5.21,5.21,0,0,0,.1-.63,3.55,3.55,0,0,0-.71.26l-.67.35a10.1,10.1,0,0,0-1.08.74c-.18.14-.36.28-.55.41a5.4,5.4,0,0,0-.52.45,1.34,1.34,0,0,0-.21.2,2.19,2.19,0,0,1-.22.2l-.06.13a1,1,0,0,1-.06.14,9.14,9.14,0,0,0-.57,2,8.45,8.45,0,0,0-.1,2l.09.46.4-.14.36-.17a5.22,5.22,0,0,0,1-.81,11.4,11.4,0,0,0,.84-1A11.11,11.11,0,0,0,142.72,14.13Z"/><path class="cls-1" d="M154.94,12.93c0,.14-.09.44-.15.68s-.15.63-.25,1l-.31.94A12.69,12.69,0,0,1,153,17.85c-.17.25-.56.73-.85,1.07a4.75,4.75,0,0,1-1,.88,3.43,3.43,0,0,1-.38.18,2.08,2.08,0,0,1-.4.15l-.09-.49a9.23,9.23,0,0,1,.11-2.15,9.81,9.81,0,0,1,.57-2.12l.06-.15.05-.13.06-.05.17-.18a1.51,1.51,0,0,1,.22-.22,3.72,3.72,0,0,1,.53-.48c.12-.09.37-.29.55-.45a10.58,10.58,0,0,1,1.09-.79l.68-.38a3.35,3.35,0,0,1,.59-.25c.07,0,.12,0,.11.09a4,4,0,0,1-.08.55m5.9-11.42c-.05-.11-.14-.27-.18-.35a2.46,2.46,0,0,0-.36-.42,3.91,3.91,0,0,0-.45-.36l-.3-.2a1.5,1.5,0,0,0-.38-.15.77.77,0,0,0-.34,0c-.08,0-.17.11-.21.25-.28.88-.75,2.69-1,4-.25,1.13-.47,2.28-.66,3.43h0c-.33.76-.79,1.73-1,2.15,0,.08-.13.23-.2.34a1.29,1.29,0,0,0-.17.33,4.57,4.57,0,0,0-1.14-.4,2.82,2.82,0,0,0-1.17,0,2.66,2.66,0,0,0-.84.26,4,4,0,0,0-.74.48A6.58,6.58,0,0,0,150.46,12a16.24,16.24,0,0,0-1,1.32A12.6,12.6,0,0,0,148,16.5a9.71,9.71,0,0,0-.42,1.59,4.27,4.27,0,0,0,0,1.62,3.8,3.8,0,0,0,.6,1.33,6.23,6.23,0,0,0,1,1.11,5.6,5.6,0,0,0,.82.63,3.22,3.22,0,0,0,.93.43,4.1,4.1,0,0,0,1.31.14,2.35,2.35,0,0,0,.8-.3,3.25,3.25,0,0,0,.71-.55,7.38,7.38,0,0,0,.51-.6,5.91,5.91,0,0,0,.45-.67A24.14,24.14,0,0,0,156,19c0,.13,0,.38.05.56a4.63,4.63,0,0,0,.12.65c0,.08.08.25.12.37s.08.25.12.37.21.33.33.5l.33.46.29.28.28.25.34.17.36.14a.47.47,0,0,0,.39,0c.14-.06.18-.19.12-.4a.42.42,0,0,0,0-.18v0a.94.94,0,0,0,0-.28.43.43,0,0,0,0-.11.37.37,0,0,1,0-.11V21.3c0-.2,0-1.27,0-2.37l.09-4.87c0-.43.08-1.32.12-2a20,20,0,0,1,.21-2c.06-.44.2-1.31.3-2,.06-.42.22-1.28.36-1.92.11-.48.32-1.44.48-2.15.1-.47.34-1.43.54-2.15,0-.06,0-.23-.06-.39"/><path class="cls-1" d="M174,20c0,.1.08.2.11.3a.33.33,0,0,1-.08.31.26.26,0,0,1-.29.12l-.32-.06a2.47,2.47,0,0,1-.92-.58,4.39,4.39,0,0,1-.8-.81,5.47,5.47,0,0,1-.61-1,5.09,5.09,0,0,1-.49-1.35c-.1-.47-.2-.94-.31-1.41,0-.22-.08-.44-.14-.65s-.09-.44-.13-.66l-.59.47c-.18.15-.36.32-.55.51a13.76,13.76,0,0,0-2.34,2.94c-.64,1.08-1.25,2.17-1.83,3.28a.55.55,0,0,0,0,.17.61.61,0,0,1,0,.17.35.35,0,0,1-.2.24.64.64,0,0,1-.32.05.88.88,0,0,1-.35-.1l-.29-.13a2.58,2.58,0,0,1-.89-.68,1.46,1.46,0,0,1-.46-.49.38.38,0,0,1-.09-.15.38.38,0,0,0-.09-.15c0-.11-.09-.21-.13-.33l-.12-.32a1.46,1.46,0,0,1,0-.34,1.86,1.86,0,0,1-.06-.45,3,3,0,0,0,0-.43q0-.34,0-.69v-.69a13.78,13.78,0,0,1,.27-2.39,10.21,10.21,0,0,1,.26-1.18c.12-.38.24-.76.39-1.15s.29-.82.46-1.21.32-.81.49-1.21.33-.76.5-1.12l.54-1.09c0-.1.13-.14.28-.12a1.1,1.1,0,0,1,.33.09,2.17,2.17,0,0,1,.42.17,1.52,1.52,0,0,1,.35.26,2.67,2.67,0,0,1,.67.67c0,.08.11.2.2.35a.47.47,0,0,1,.08.39c-.14.41-.28.82-.4,1.22s-.26.82-.4,1.23-.2.7-.3,1.07l-.31,1.07c0,.13-.08.27-.12.43l.35-.39.35-.4a14.66,14.66,0,0,1,1.23-1.11c.22-.18.46-.36.7-.53a5,5,0,0,1,.77-.45l.44-.1a1,1,0,0,1,.48,0,2.89,2.89,0,0,1,1.15.51,3.24,3.24,0,0,1,.87.9,3.16,3.16,0,0,1,.45,1.1c.07.39.15.78.25,1.17s.16.65.24,1,.14.66.22,1,.12.52.17.77a4.1,4.1,0,0,0,.23.73.5.5,0,0,1,0,.13.31.31,0,0,0,.05.12.69.69,0,0,1,.09.15s0,0,0,0,0,0,0,0A2.6,2.6,0,0,1,174,20Z"/><path class="cls-1" d="M183.7,17.66,184,18a1.34,1.34,0,0,1,.28.42.5.5,0,0,1,0,.55,3.49,3.49,0,0,1-.4.67,3.18,3.18,0,0,1-.55.55,5.2,5.2,0,0,1-2.15,1.08,7,7,0,0,1-.79.07,3.1,3.1,0,0,1-.8-.07,5,5,0,0,1-1.3-.48,5.63,5.63,0,0,1-1.12-.78,8.07,8.07,0,0,1-.92-1,4.79,4.79,0,0,1-.64-1.23,2.85,2.85,0,0,1-.2-.8c0-.26-.06-.53-.08-.79a7.17,7.17,0,0,1,.14-1.66c.11-.55.25-1.09.41-1.62a13.53,13.53,0,0,1,.68-1.64,7.4,7.4,0,0,1,.95-1.49,5,5,0,0,1,1.35-1.13,2.42,2.42,0,0,1,.82-.34,6.4,6.4,0,0,1,.92-.12,3,3,0,0,1,1.37.27,6.75,6.75,0,0,1,1.21.74,4.11,4.11,0,0,1,.62.63,3,3,0,0,1,.48.75,2.92,2.92,0,0,1,.24,1.1,1.77,1.77,0,0,1-.1.8l-.29.77a5.77,5.77,0,0,1-.36.7,7,7,0,0,1-.44.67,7.33,7.33,0,0,1-1.07,1.2c-.23.18-.46.36-.69.52a3.59,3.59,0,0,1-.78.4,2.6,2.6,0,0,1-1,.09,2.9,2.9,0,0,1-1-.31,1.59,1.59,0,0,1-.29-.15l-.29-.18c0,.3-.08.61-.11.92a5.64,5.64,0,0,0,0,.92,3.84,3.84,0,0,0,.18.92l.37,0,.37,0a4.61,4.61,0,0,0,1-.23,5,5,0,0,0,.91-.42,6.63,6.63,0,0,0,1.35-1.13.33.33,0,0,1,.27-.11,1.18,1.18,0,0,1,.31.08,1.35,1.35,0,0,1,.44.2C183.45,17.46,183.57,17.56,183.7,17.66Zm-2.58-6.77a4.54,4.54,0,0,0-1.32,1.3,11,11,0,0,0-.88,1.61c-.07.16-.12.31-.17.44s-.11.28-.17.45a2.72,2.72,0,0,0,.8-.31,5.15,5.15,0,0,0,1.36-1.23,7.31,7.31,0,0,0,.93-1.56c.06-.16.12-.33.17-.5s.1-.36.14-.54A3.26,3.26,0,0,0,181.12,10.89Z"/><path class="cls-1" d="M193,18a1.6,1.6,0,0,1,.09,1.34,2.38,2.38,0,0,1-.64,1,5.28,5.28,0,0,1-1.81,1.28,5,5,0,0,1-1,.37l-.64.12a1.77,1.77,0,0,1-.65,0,1.87,1.87,0,0,1-.78-.3,4.2,4.2,0,0,1-.63-.56,1.69,1.69,0,0,1-.42-.64.64.64,0,0,1-.07-.34l0-.07a.54.54,0,0,1,0-.08l.16-.11.17-.07.28-.1.24-.1.25-.11.47-.23.48-.23a8.47,8.47,0,0,0,1.07-.77,4.08,4.08,0,0,0,.43-.36,3.79,3.79,0,0,0,.34-.43,2.36,2.36,0,0,1-.65-.37,11.32,11.32,0,0,1-1.57-1.13,5.36,5.36,0,0,1-1.25-1.54,2.89,2.89,0,0,1-.27-.73,2.16,2.16,0,0,1,0-.8,3.42,3.42,0,0,1,.18-.6c.08-.19.17-.38.25-.56a9.66,9.66,0,0,1,1.1-1.83,7.79,7.79,0,0,1,1.5-1.48.59.59,0,0,1,.62-.06,1.21,1.21,0,0,1,.47.23,4.88,4.88,0,0,1,.41.32,2.45,2.45,0,0,1,.68.82,1.31,1.31,0,0,1,.12.3.3.3,0,0,1-.06.32,8.6,8.6,0,0,0-2.08,2.85,7.89,7.89,0,0,0-.28.9,3,3,0,0,0-.09.94v0l.37.27.21.13a0,0,0,0,0,0,0,2.77,2.77,0,0,0,.49.24,2.84,2.84,0,0,1,.49.25l.51.3a4.29,4.29,0,0,1,.5.37,5.5,5.5,0,0,1,.54.54A2.35,2.35,0,0,1,193,18Z"/><path class="cls-1" d="M201.53,18a1.6,1.6,0,0,1,.09,1.34,2.38,2.38,0,0,1-.64,1,5.28,5.28,0,0,1-1.81,1.28,5,5,0,0,1-1,.37l-.64.12a1.77,1.77,0,0,1-.65,0,1.87,1.87,0,0,1-.78-.3,4.2,4.2,0,0,1-.63-.56,1.69,1.69,0,0,1-.42-.64.64.64,0,0,1-.07-.34l0-.07a.18.18,0,0,1,0-.08l.16-.11.17-.07.28-.1.24-.1.25-.11.47-.23.48-.23a8.47,8.47,0,0,0,1.07-.77,4.08,4.08,0,0,0,.43-.36,3.79,3.79,0,0,0,.34-.43,2.36,2.36,0,0,1-.65-.37,11.32,11.32,0,0,1-1.57-1.13,5.36,5.36,0,0,1-1.25-1.54,2.89,2.89,0,0,1-.27-.73,2.16,2.16,0,0,1,0-.8,3.42,3.42,0,0,1,.18-.6c.08-.19.16-.38.25-.56a9.66,9.66,0,0,1,1.1-1.83,7.79,7.79,0,0,1,1.5-1.48.58.58,0,0,1,.61-.06,1.18,1.18,0,0,1,.48.23,4.88,4.88,0,0,1,.41.32,2.45,2.45,0,0,1,.68.82,1.31,1.31,0,0,1,.12.3.3.3,0,0,1-.06.32,8.77,8.77,0,0,0-2.09,2.85c-.1.28-.19.59-.27.9a3,3,0,0,0-.09.94v0l.36.27.22.13a0,0,0,0,0,0,0,2.77,2.77,0,0,0,.49.24,2.84,2.84,0,0,1,.49.25l.51.3a4.29,4.29,0,0,1,.5.37,5.5,5.5,0,0,1,.54.54A2.35,2.35,0,0,1,201.53,18Z"/></g></g></svg>