<svg id="Layer_1" data-name="Layer 1" xmlns="http://www.w3.org/2000/svg" xmlns:xlink="http://www.w3.org/1999/xlink" viewBox="0 0 728 90"><defs><style>.cls-1{fill:none;}.cls-2{clip-path:url(#clip-path);}.cls-3{clip-path:url(#clip-path-2);}.cls-4{fill:#f57d20;}.cls-5{fill:#fff;}</style><clipPath id="clip-path"><rect class="cls-1" x="-748" width="728" height="90"/></clipPath><clipPath id="clip-path-2"><rect class="cls-1" width="728" height="90"/></clipPath></defs><title>slide5_NZ</title><g class="cls-3"><g class="cls-3"><g class="cls-3"><path class="cls-4" d="M81.26,50.84A5.84,5.84,0,1,0,75.38,45a5.82,5.82,0,0,0,5.88,5.84"/></g><path class="cls-4" d="M361,36.84V32.69a3.09,3.09,0,0,1,6.17,0v4.18a2.86,2.86,0,0,1-3.09,2.83A2.81,2.81,0,0,1,361,36.84Zm4,.06V32.5a.93.93,0,0,0-1-1,.91.91,0,0,0-.95,1v4.4a1,1,0,1,0,1.92,0ZM371.37,30h1.7l-7.64,19.09H363.7ZM369.5,46.51v-4a2.92,2.92,0,0,1,3.08-3.06,2.87,2.87,0,0,1,3.12,2.93v4.15a2.93,2.93,0,0,1-3.12,2.85A2.81,2.81,0,0,1,369.5,46.51Zm4,.05V42.14a.91.91,0,0,0-.95-1,.89.89,0,0,0-.92,1v4.42a.87.87,0,0,0,.92,1A.91.91,0,0,0,373.53,46.56Z"/><path class="cls-4" d="M377,32.43l.47-.68-.72-.42.26-.41.65.37v-.74h.5v.75l.65-.38.25.41-.72.42.48.68-.42.26-.49-.69-.49.69Z"/><path class="cls-5" d="M381,30.14h2.75a2.15,2.15,0,0,1,2.35,2.46c0,1.63-.74,2.63-2.42,2.63h-1v3.05H381Zm2.44,3.9c.65,0,1-.46,1-1.41s-.27-1.29-1-1.29h-.74V34Z"/><path class="cls-5" d="M388.29,30.13h2.35l1.9,8.15H390.8l-.45-2h-2l-.44,2h-1.6Zm1.79,5-.7-3.38h0l-.72,3.38Z"/><path class="cls-5" d="M381,40.06h1.72V48.2H381Z"/><path class="cls-5" d="M384.05,40.06h1.78l2.16,4.7h0v-4.7h1.53V48.2H388L385.61,43h0V48.2h-1.53Z"/><path class="cls-5" d="M392.29,41.28h-1.84V40.06h5.41v1.22H394V48.2h-1.74Z"/><path class="cls-5" d="M396.76,40.06h4.47v1.22h-2.76v2.1h2.2v1.24h-2.2V47h2.78V48.2h-4.49Z"/><path class="cls-5" d="M402.34,40.06H405c1.61,0,2.55.77,2.55,2.38a2,2,0,0,1-1.19,2.13l1.3,3.63h-1.79l-1.06-3.31h-.73V48.2h-1.72Zm2.5,3.76c.62,0,1-.39,1-1.28s-.29-1.27-1-1.27h-.77v2.55Z"/><path class="cls-5" d="M408.7,40.06h4.47v1.22H410.4v2.1h2.21v1.24H410.4V47h2.78V48.2H408.7Z"/><path class="cls-5" d="M413.85,46.05l1.61,0c.07.56.26,1.14,1,1.14a.77.77,0,0,0,.81-.86c0-.45-.35-.84-.91-1.3l-1-.84A2.89,2.89,0,0,1,414,42c0-1.1.82-2,2.46-2a2.1,2.1,0,0,1,2.34,2.2l-1.52,0c-.08-.64-.29-1.08-.9-1.08a.71.71,0,0,0-.78.76c0,.45.52.87,1,1.27l.9.77a3,3,0,0,1,1.41,2.34c0,1.17-.93,2.08-2.5,2.08A2.3,2.3,0,0,1,413.85,46.05Z"/><path class="cls-5" d="M421.2,41.28h-1.84V40.06h5.41v1.22h-1.83V48.2H421.2Z"/><path class="cls-5" d="M381,50h2.64c1.61,0,2.56.77,2.56,2.38a2,2,0,0,1-1.19,2.13l1.3,3.63h-1.79l-1.07-3.31h-.73v3.31H381Zm2.5,3.76c.62,0,1-.39,1-1.28s-.29-1.27-1-1.27h-.77v2.55Z"/><path class="cls-5" d="M389,50h2.35l1.9,8.15h-1.74l-.45-2h-2l-.43,2h-1.6Zm1.79,5-.7-3.38h0L389.37,55Z"/><path class="cls-5" d="M395.11,51.21h-1.85V50h5.42v1.23h-1.84v6.91h-1.73Z"/><path class="cls-5" d="M399.58,50h4.47v1.23h-2.76v2.1h2.2v1.23h-2.2v2.35h2.77v1.23h-4.48Z"/><path class="cls-4" d="M99.85,30H106l7.48,16.28h.14V30h5.3V58.21h-5.39l-8.28-18.06h-.1V58.21H99.85Z"/><path class="cls-4" d="M122.93,51.18V37c0-4.86,4.07-7.43,9.41-7.43s9.37,2.29,9.37,7.27V51.06c0,5.09-4.16,7.54-9.41,7.54C126.71,58.6,122.93,56.23,122.93,51.18Zm12.73.07V36.75c0-1.74-1.28-2.81-3.36-2.81-2.23,0-3.31,1.19-3.31,2.89V51.25c0,1.7,1.13,3,3.35,3S135.66,52.91,135.66,51.25Z"/><path class="cls-4" d="M152.69,30H162c4.92,0,8.85,2.14,8.85,6.56V51.25c0,4.75-3.93,7-8.94,7h-9.22Zm8.7,23.91c2.51,0,3.41-1.54,3.41-3V37.11c0-1.62-1.09-2.81-3.46-2.81H158.6V53.94Z"/><path class="cls-4" d="M174.92,30h15.47v4.23h-9.56v7.27h7.62V45.8h-7.62v8.14h9.6v4.27H174.92Z"/><path class="cls-4" d="M194.22,30h9.51c5.53,0,8.13,3.12,8.13,8.5,0,5.65-2.55,9.13-8.37,9.13h-3.31V58.21h-6Zm8.42,13.52c2.27,0,3.41-1.62,3.41-4.9,0-2.89-1-4.47-3.32-4.47h-2.55v9.37Z"/><path class="cls-4" d="M215.32,51.18V37c0-4.86,4.07-7.43,9.41-7.43s9.37,2.29,9.37,7.27V51.06c0,5.09-4.16,7.54-9.41,7.54C219.1,58.6,215.32,56.23,215.32,51.18Zm12.72.07V36.75c0-1.74-1.27-2.81-3.35-2.81s-3.32,1.19-3.32,2.89V51.25c0,1.7,1.14,3,3.36,3S228,52.91,228,51.25Z"/><path class="cls-4" d="M237.27,50.78l5.58-.16c.24,1.94.9,4,3.31,4a2.65,2.65,0,0,0,2.79-3c0-1.58-1.18-2.92-3.12-4.51l-3.36-2.92c-2.88-2.33-4.68-4.62-4.68-7.59,0-3.79,2.84-7,8.51-7,4.12,0,7.81,1.82,8.09,7.63l-5.25.15c-.28-2.21-1-3.75-3.12-3.75a2.49,2.49,0,0,0-2.7,2.65c0,1.54,1.8,3,3.46,4.38l3.12,2.65c3.12,2.57,4.87,5,4.87,8.1,0,4.07-3.22,7.23-8.66,7.23S237.6,55.64,237.27,50.78Z"/><path class="cls-4" d="M258.32,30h6V58.21h-6Z"/><path class="cls-4" d="M273.79,34.26H267.4V30h18.73v4.23H279.8v24h-6Z"/><path class="cls-4" d="M301.94,51.65h-9.61V47.93L300.09,30h6l-8.56,17.59h4.45V43.07l5.15-3v7.51h2.41v4h-2.41v6.56h-5.15Z"/><path class="cls-4" d="M312.72,52.44H318v5.77h-5.3Z"/><path class="cls-4" d="M321.85,52.72V50.5h5.35v1.9a2,2,0,0,0,2.31,2.13A2.2,2.2,0,0,0,332,52.24V45.48a6.06,6.06,0,0,1-4.59,1.86c-3.73,0-5.91-1.9-5.91-4.86V35.76c0-3.75,3.26-6.16,8.18-6.16s8.14,2.57,8.14,6.4V51.65c0,4.27-3.36,7-8.18,7S321.85,56.27,321.85,52.72ZM332,41.65v-6a2.47,2.47,0,0,0-4.92.08V42c0,1.34,1.09,2,2.32,2A2.46,2.46,0,0,0,332,41.65Z"/><path class="cls-4" d="M341.67,52.72V50.5H347v1.9a2,2,0,0,0,2.32,2.13,2.2,2.2,0,0,0,2.5-2.29V45.48a6.06,6.06,0,0,1-4.59,1.86c-3.73,0-5.91-1.9-5.91-4.86V35.76c0-3.75,3.27-6.16,8.18-6.16s8.14,2.57,8.14,6.4V51.65c0,4.27-3.36,7-8.18,7S341.67,56.27,341.67,52.72Zm10.17-11.07v-6a2.47,2.47,0,0,0-4.92.08V42c0,1.34,1.09,2,2.32,2A2.46,2.46,0,0,0,351.84,41.65Z"/><path class="cls-5" d="M439.46,50.82V36.67c0-4.86,4.07-7.43,9.42-7.43,5.2,0,9.36,2.29,9.36,7.27V50.7c0,5.1-4.16,7.55-9.41,7.55C443.25,58.25,439.46,55.88,439.46,50.82Zm12.73.08V36.39c0-1.73-1.28-2.8-3.36-2.8s-3.31,1.18-3.31,2.88V50.9c0,1.7,1.13,3,3.36,3S452.19,52.56,452.19,50.9Z"/><path class="cls-5" d="M462.31,29.68h6.15L475.93,46h.15V29.68h5.29V57.85H476L467.7,39.79h-.09V57.85h-5.3Z"/><path class="cls-5" d="M492.68,29.68h9.13c5.58,0,8.85,2.64,8.85,8.22,0,4-1.61,6.4-4.12,7.39L511,57.85h-6.19l-3.69-11.46h-2.51V57.85h-6Zm8.66,13c2.13,0,3.31-1.35,3.31-4.43,0-2.73-1-4.38-3.36-4.38h-2.65v8.81Z"/><path class="cls-5" d="M514.68,29.68h15.47V33.9h-9.56v7.28h7.62v4.26h-7.62v8.15h9.6v4.26H514.68Z"/><path class="cls-5" d="M534,29.68h9.51c5.53,0,8.13,3.12,8.13,8.49,0,5.65-2.55,9.13-8.37,9.13h-3.31V57.85h-6Zm8.42,13.51c2.27,0,3.4-1.62,3.4-4.9,0-2.88-.94-4.46-3.31-4.46h-2.55v9.36Z"/><path class="cls-5" d="M555.08,50.82V36.67c0-4.86,4.07-7.43,9.41-7.43s9.37,2.29,9.37,7.27V50.7c0,5.1-4.17,7.55-9.42,7.55C558.86,58.25,555.08,55.88,555.08,50.82Zm12.72.08V36.39c0-1.73-1.27-2.8-3.36-2.8s-3.31,1.18-3.31,2.88V50.9c0,1.7,1.14,3,3.36,3S567.8,52.56,567.8,50.9Z"/><path class="cls-5" d="M576.08,29.68H582l2.8,17.78h.09l3.22-17.78h5.72l3.07,17.7h.1l2.74-17.7H605L599.78,58H594.2l-3.41-18.85h-.19L587.1,58h-5.67Z"/><path class="cls-5" d="M608,29.68h15.46V33.9h-9.55v7.28h7.62v4.26h-7.62v8.15h9.6v4.26H608Z"/><path class="cls-5" d="M627.27,29.68h9.13c5.58,0,8.84,2.64,8.84,8.22,0,4-1.61,6.4-4.11,7.39l4.49,12.56h-6.2l-3.69-11.46h-2.5V57.85h-6Zm8.65,13c2.13,0,3.31-1.35,3.31-4.43,0-2.73-1-4.38-3.35-4.38h-2.65v8.81Z"/></g></g></svg>