<svg id="Layer_1" data-name="Layer 1" xmlns="http://www.w3.org/2000/svg" xmlns:xlink="http://www.w3.org/1999/xlink" viewBox="0 0 728 90"><defs><style>.cls-1{fill:none;}.cls-2{clip-path:url(#clip-path);}.cls-3{clip-path:url(#clip-path-2);}</style><clipPath id="clip-path"><rect class="cls-1" x="-748" width="728" height="90"/></clipPath><clipPath id="clip-path-2"><rect class="cls-1" width="728" height="90"/></clipPath></defs><title>slide6</title><g class="cls-3"><g class="cls-3"><path d="M246.11,36.45l3.29-.11c.14,1.37.53,2.79,2,2.79C252.61,39.13,253,38,253,37s-.7-2.07-1.84-3.18l-2-2.07c-1.7-1.64-2.76-3.26-2.76-5.35a4.7,4.7,0,0,1,5-5c2.43,0,4.6,1.28,4.77,5.39l-3.1.11c-.16-1.57-.58-2.65-1.84-2.65-1,0-1.59.78-1.59,1.87s1.06,2.12,2,3.09l1.84,1.87c1.84,1.81,2.87,3.52,2.87,5.72a4.84,4.84,0,0,1-5.1,5.1C248.18,42,246.31,39.88,246.11,36.45Z"/><path d="M258.53,21.81h9.12v3H262v5.13h4.49v3H262v5.74h5.67v3h-9.15Z"/><path d="M269.91,21.81H279v3H273.4v5.13h4.49v3H273.4v5.74h5.66v3h-9.15Z"/><path d="M288.38,33.72l-4.1-11.91H288l2.35,7.72,2.26-7.72H296l-4.07,11.91v8h-3.51Z"/><path d="M296.89,36.73v-10c0-3.43,2.39-5.24,5.55-5.24S308,23.12,308,26.63v10c0,3.59-2.46,5.32-5.55,5.32C299.12,42,296.89,40.3,296.89,36.73Zm7.5.06V26.55a2,2,0,1,0-3.93.05V36.79a2,2,0,1,0,3.93,0Z"/><path d="M310.25,36.9V21.81h3.57V36.73a1.9,1.9,0,0,0,1.95,2.18c1.26,0,1.9-.87,1.9-2.15V21.81H321v15c0,3.34-2.31,5.21-5.46,5.21S310.25,40.38,310.25,36.9Z"/><path d="M323.55,21.81h5.39c3.29,0,5.21,1.87,5.21,5.8,0,2.84-.94,4.52-2.42,5.21l2.65,8.87h-3.66l-2.17-8.08h-1.48v8.08h-3.52ZM328.66,31c1.26,0,1.95-.94,1.95-3.12,0-1.93-.58-3.1-2-3.1h-1.56V31Z"/><path d="M340.6,21.81h5.61c3.26,0,4.79,2.2,4.79,6,0,4-1.5,6.45-4.93,6.45h-1.95v7.44H340.6Zm5,9.54c1.34,0,2-1.15,2-3.46,0-2-.55-3.15-1.95-3.15h-1.5v6.61Z"/><path d="M355.36,21.78h4.8L364,41.69h-3.54l-.92-4.82h-4.1l-.89,4.82h-3.27ZM359,34l-1.42-8.25h-.08L356,34Z"/><path d="M366,21.81h5.38c3.29,0,5.22,1.87,5.22,5.8,0,2.84-.95,4.52-2.43,5.21l2.65,8.87h-3.65L371,33.61h-1.48v8.08H366Zm5.1,9.17c1.26,0,2-.94,2-3.12,0-1.93-.59-3.1-2-3.1h-1.57V31Z"/><path d="M381.5,24.79h-3.77v-3h11v3H385v16.9H381.5Z"/><path d="M390.62,21.81h3.52V41.69h-3.52Z"/><path d="M396.54,37V26.49c0-3.18,2.39-5,5.52-5,2.93,0,5.1,1.73,5.1,4.63v2.2H404V26.46a1.78,1.78,0,0,0-1.92-1.92,1.8,1.8,0,0,0-1.95,2V36.79a1.84,1.84,0,0,0,2,2.09A1.76,1.76,0,0,0,404,37V35.14h3.18V37.2c0,3-2.15,4.77-5.13,4.77C398.82,42,396.54,40.33,396.54,37Z"/><path d="M409.42,21.81h3.52V41.69h-3.52Z"/><path d="M415.56,21.81h5.61c3.26,0,4.79,2.2,4.79,6,0,4-1.5,6.45-4.93,6.45h-1.95v7.44h-3.52Zm5,9.54c1.34,0,2-1.15,2-3.46,0-2-.55-3.15-1.95-3.15h-1.5v6.61Z"/><path d="M430.35,21.78h4.79L439,41.69h-3.54l-.92-4.82h-4.1l-.89,4.82H426.3ZM434,34l-1.42-8.25h-.09L431,34Z"/><path d="M442.73,24.79H439v-3h11v3h-3.73v16.9h-3.55Z"/><path d="M451.86,21.81h3.51V41.69h-3.51Z"/><path d="M458,21.81h3.63L466,33.3h.08V21.81h3.12V41.69h-3.18L461.17,29h-.05V41.69H458Z"/><path d="M471.61,36.92V26.49c0-3.15,2.37-5,5.49-5,2.93,0,5.3,1.65,5.3,4.55v2.12h-3.23V26.33a1.82,1.82,0,0,0-2-1.85,1.89,1.89,0,0,0-2,2.12V36.84a1.87,1.87,0,0,0,2,2.09A1.67,1.67,0,0,0,479,37.06v-3.2h-2.18V31.18h5.58v6c0,3-2,4.74-5.27,4.74S471.61,40.27,471.61,36.92Z"/><path d="M295.31,47.56h5.49c2.91,0,5.22,1.5,5.22,4.63V62.54c0,3.34-2.31,4.91-5.27,4.91h-5.44Zm5.13,16.87a1.91,1.91,0,0,0,2-2.09V52.55a1.84,1.84,0,0,0-2-2H298.8V64.43Z"/><path d="M308.42,47.56h9.12v3h-5.63v5.14h4.49v3h-4.49v5.74h5.66v3h-9.15Z"/><path d="M323.15,47.53H328l3.88,19.92h-3.55l-.92-4.83h-4.1l-.89,4.83h-3.26Zm3.65,12.25-1.42-8.26h-.08l-1.48,8.26Z"/><path d="M333.75,47.56h3.49V64.43h5.66v3h-9.15Z"/><path d="M344.88,47.56H354v3h-5.63v5.14h4.49v3h-4.49v5.74H354v3h-9.15Z"/><path d="M356.26,47.56h5.39c3.29,0,5.21,1.87,5.21,5.8,0,2.85-.94,4.52-2.42,5.22l2.65,8.87h-3.66l-2.17-8.09h-1.48v8.09h-3.52Zm5.11,9.18c1.25,0,1.95-1,1.95-3.13,0-1.92-.58-3.09-2-3.09h-1.56v6.22Z"/><path d="M376.29,50.54h-3.76v-3h11v3h-3.73V67.45h-3.55Z"/><path d="M384.86,62.48v-10c0-3.44,2.4-5.25,5.55-5.25s5.52,1.62,5.52,5.13v10c0,3.6-2.45,5.33-5.55,5.33C387.09,67.73,384.86,66.05,384.86,62.48Zm7.5.06V52.3a2,2,0,1,0-3.93.06V62.54a2,2,0,1,0,3.93,0Z"/><path d="M398.33,47.56h5.5c2.9,0,5.21,1.5,5.21,4.63V62.54c0,3.34-2.31,4.91-5.27,4.91h-5.44Zm5.14,16.87a1.9,1.9,0,0,0,2-2.09V52.55a1.83,1.83,0,0,0-2-2h-1.62V64.43Z"/><path d="M414.54,47.53h4.8l3.88,19.92h-3.55l-.92-4.83h-4.1l-.89,4.83H410.5Zm3.66,12.25-1.43-8.26h-.08l-1.48,8.26Z"/><path d="M427,59.47l-4.1-11.91h3.74L429,55.29l2.26-7.73h3.35L430.5,59.47v8H427Z"/></g></g></svg>