<?xml version="1.0" encoding="utf-8"?>
<!-- Generator: Adobe Illustrator 23.0.4, SVG Export Plug-In . SVG Version: 6.00 Build 0)  -->
<svg version="1.1" id="Layer_1" xmlns="http://www.w3.org/2000/svg" xmlns:xlink="http://www.w3.org/1999/xlink" x="0px" y="0px"
	 viewBox="0 0 728 90" style="enable-background:new 0 0 728 90;" xml:space="preserve">
<style type="text/css">
	.st0{fill:#FFFFFF;}
</style>
<title>728 x 90 3</title>
<path class="st0" d="M223.2,39c0-0.4,0.4-0.8,0.8-0.8s0.8,0.4,0.8,0.8l0,0c0,0.4-0.3,0.8-0.8,0.8l0,0
	C223.6,39.8,223.3,39.5,223.2,39L223.2,39z M223.5,41.3h1.1v7h-1.1V41.3z"/>
<path class="st0" d="M231.7,48c-0.6,0.3-1.2,0.5-1.8,0.4c-1.6,0-2.4-0.8-2.4-2.5v-3.6h-1.4v-0.8c1.1,0,1.6-0.6,1.6-2.2h0.9v2h2.7v1
	h-2.7v3.6c0,1.1,0.4,1.6,1.4,1.6c0.5,0,0.9-0.2,1.3-0.4L231.7,48z"/>
</svg>
