<?xml version="1.0" encoding="utf-8"?>
<!-- Generator: Adobe Illustrator 23.0.4, SVG Export Plug-In . SVG Version: 6.00 Build 0)  -->
<svg version="1.1" id="Layer_1" xmlns="http://www.w3.org/2000/svg" xmlns:xlink="http://www.w3.org/1999/xlink" x="0px" y="0px"
	 viewBox="0 0 728 90" style="enable-background:new 0 0 728 90;" xml:space="preserve">
<style type="text/css">
	.st0{fill:#FFFFFF;}
</style>
<title>728 x 90 3</title>
<path class="st0" d="M109.1,39c0-0.4,0.3-0.8,0.8-0.8c0,0,0,0,0.1,0c0.4,0,0.8,0.3,0.8,0.7c0,0,0,0,0,0.1c0,0.4-0.3,0.8-0.8,0.8l0,0
	C109.5,39.8,109.1,39.5,109.1,39L109.1,39z M109.4,41.3h1.1v7h-1.1V41.3z"/>
<path class="st0" d="M112.9,41.3h0.9l0.2,1.1c0.6-0.9,1.6-1.4,2.6-1.3c1.5-0.1,2.8,1.1,2.8,2.6c0,0.1,0,0.3,0,0.4v4.2h-1.1v-4
	c0-1.4-0.7-2.1-1.9-2.1c-1.2-0.1-2.3,0.9-2.3,2.1c0,0.1,0,0.2,0,0.2v3.8H113L112.9,41.3z"/>
</svg>
