<?xml version="1.0" encoding="utf-8"?>
<!-- Generator: Adobe Illustrator 23.0.4, SVG Export Plug-In . SVG Version: 6.00 Build 0)  -->
<svg version="1.1" id="Layer_1" xmlns="http://www.w3.org/2000/svg" xmlns:xlink="http://www.w3.org/1999/xlink" x="0px" y="0px"
	 viewBox="0 0 728 90" style="enable-background:new 0 0 728 90;" xml:space="preserve">
<style type="text/css">
	.st0{fill:#323E60;}
	.st1{fill:#FFFFFF;}
	.st2{fill:#7BB6DE;}
	.st3{clip-path:url(#SVGID_2_);}
	.st4{clip-path:url(#SVGID_4_);}
	.st5{clip-path:url(#SVGID_6_);}
</style>
<title>728 x 90 4</title>
<rect class="st0" width="728" height="90"/>
<path class="st1" d="M289.3,46v2.8h-10.2V36H278c-1.7-0.2-3.3,1.1-3.5,2.8c0,0.2,0,0.3,0,0.5c-0.1,1.7,1.1,3.1,2.8,3.3l-0.6,2.8
	c-3.1-0.3-5.4-2.9-5.3-6c0-3.7,2.5-6.1,6.6-6.1h4V46H289.3z"/>
<path class="st1" d="M301.4,44.4h-8.2c0.2,1.4,1.4,2.3,2.7,2.2c1,0.1,1.9-0.4,2.4-1.3l2.6,1.2c-1.7,2.7-5.3,3.4-8,1.7
	c-1.6-1-2.6-2.8-2.6-4.8c-0.1-3,2.3-5.6,5.4-5.6c0.1,0,0.3,0,0.4,0c3.2,0,5.4,2.3,5.4,5.7C301.5,43.8,301.5,44.1,301.4,44.4z
	 M298.6,42.2c-0.2-1.3-1.3-2.1-2.6-2c-1.3-0.1-2.5,0.7-2.8,2H298.6z"/>
<path class="st1" d="M311.8,48.5c-1,0.5-2,0.7-3.1,0.7c-2.8,0-4.2-1.4-4.2-4.2v-4.4h-2v-2.2c1.6-0.1,2.5-1.2,2.6-3.2h2.3V38h3.7v2.5
	h-3.7v4.2c0,1.4,0.4,1.8,1.7,1.8c0.7,0,1.3-0.2,1.8-0.6L311.8,48.5z"/>
<path class="st1" d="M327.8,48.5c-1,0.5-2,0.7-3.1,0.7c-2.8,0-4.2-1.4-4.2-4.2v-4.4h-2v-2.2c1.6-0.1,2.5-1.2,2.6-3.2h2.3V38h3.7v2.5
	h-3.7v4.2c0,1.4,0.4,1.8,1.7,1.8c0.7,0,1.3-0.2,1.8-0.6L327.8,48.5z"/>
<path class="st1" d="M329.1,34.6c0.1-1,0.9-1.7,1.9-1.6c0.9,0.1,1.6,0.8,1.6,1.6c0,0.9-0.7,1.7-1.7,1.7c0,0-0.1,0-0.1,0
	c-0.9,0-1.7-0.7-1.7-1.6C329.1,34.7,329.1,34.6,329.1,34.6z M329.4,38h2.9v10.9h-2.9V38z"/>
<path class="st1" d="M352.7,42.3v6.6h-2.9v-6c0-1.6-0.7-2.4-2-2.4c-1.3,0-2.4,1-2.4,2.3c0,0.1,0,0.2,0,0.4v5.8h-2.9v-6
	c0-1.6-0.7-2.4-2-2.4c-1.3,0-2.4,1-2.4,2.3c0,0.1,0,0.3,0,0.4v5.8h-2.9V38h2.3l0.4,1.5c0.8-1.2,2.2-1.8,3.6-1.8
	c1.4-0.1,2.7,0.7,3.3,1.9c0.9-1.3,2.4-2,4-1.9C351.2,37.8,352.7,39.5,352.7,42.3z"/>
<path class="st1" d="M366,44.4h-8.2c0.2,1.4,1.4,2.3,2.7,2.2c1,0.1,1.9-0.4,2.4-1.3l2.6,1.2c-1.7,2.7-5.3,3.5-8,1.7
	c-1.6-1-2.6-2.8-2.7-4.8c-0.1-3,2.3-5.6,5.4-5.6c0.1,0,0.3,0,0.4,0c3.2,0,5.4,2.3,5.4,5.7C366,43.9,366,44.4,366,44.4z M363.2,42.2
	c-0.2-1.3-1.3-2.2-2.6-2c-1.3-0.1-2.5,0.7-2.8,2H363.2z"/>
<path class="st1" d="M377.9,38h3.7v2.5h-3.7v8.4H375v-8.4h-2V38h2v-1.2c-0.2-2.2,1.5-4.1,3.7-4.3c0.2,0,0.4,0,0.6,0
	c1.1,0,2.3,0.3,3.2,1l-1,2.2c-0.5-0.4-1.1-0.7-1.8-0.7c-0.9-0.1-1.7,0.6-1.8,1.5c0,0.1,0,0.3,0,0.4L377.9,38z"/>
<path class="st1" d="M392.3,42.2v6.7h-2.1l-0.4-1.4c-0.9,1.2-2.3,1.8-3.8,1.7c-2.5,0-4-1.3-4-3.5s1.5-3.4,4.2-3.4
	c1.1,0,2.1,0.2,3.2,0.5v-0.5c0.1-1.1-0.7-2.1-1.8-2.2c-0.1,0-0.3,0-0.4,0c-1.1,0-2.1,0.3-3,0.9l-1.6-2c1.4-0.9,3-1.4,4.7-1.4
	C390.4,37.8,392.3,39.5,392.3,42.2z M389.5,44.9v-0.3c-0.7-0.3-1.5-0.4-2.3-0.4c-1.4,0-2.1,0.5-2.1,1.4s0.6,1.4,2,1.4
	C388.3,47.1,389.4,46.2,389.5,44.9C389.5,44.9,389.5,44.9,389.5,44.9z"/>
<path class="st1" d="M395.1,32.8h2.9v16.1h-2.9L395.1,32.8z"/>
<path class="st1" d="M401.1,32.8h2.9v16.1h-2.9V32.8z"/>
<path class="st1" d="M422.2,42.2v6.7h-2.1l-0.4-1.4c-0.7,1.1-2,1.7-3.8,1.7c-2.5,0-4-1.3-4-3.5s1.5-3.4,4.2-3.4
	c1.1,0,2.1,0.2,3.2,0.5v-0.5c0.1-1.1-0.7-2.1-1.8-2.2c-0.1,0-0.3,0-0.4,0c-1.1,0-2.1,0.3-3,0.9l-1.6-2c1.4-0.9,3-1.4,4.7-1.4
	C420.3,37.8,422.2,39.5,422.2,42.2z M419.4,44.9v-0.3c-0.7-0.3-1.5-0.4-2.3-0.4c-1.4,0-2.1,0.5-2.1,1.4s0.6,1.4,2,1.4
	c1.2,0.1,2.3-0.8,2.5-2C419.4,44.9,419.4,44.9,419.4,44.9L419.4,44.9z"/>
<path class="st1" d="M440.5,38l-3.8,10.9h-2.6l-2.1-6.6l-0.2-1l-0.1,1l-2,6.6h-2.7L423.2,38h3.1l2,6.7l0.2,1.3l0.2-1.3l2-6.7h2.4
	l2,6.7l0.2,1.3l0.2-1.3l2-6.7H440.5z"/>
<path class="st1" d="M450.9,42.2v6.7h-2.1l-0.4-1.4c-0.7,1.1-2,1.7-3.8,1.7c-2.5,0-4-1.3-4-3.5s1.5-3.4,4.2-3.4
	c1.1,0,2.1,0.2,3.2,0.5v-0.5c0.1-1.1-0.7-2.1-1.8-2.2c-0.1,0-0.3,0-0.4,0c-1.1,0-2.1,0.3-3,0.9l-1.5-2c1.4-0.9,3-1.4,4.7-1.4
	C449,37.8,450.9,39.5,450.9,42.2z M448,44.9v-0.3c-0.7-0.3-1.5-0.4-2.3-0.4c-1.4,0-2.1,0.5-2.1,1.4s0.6,1.4,2,1.4
	c1.2,0.1,2.3-0.8,2.5-2C448,44.9,448,44.9,448,44.9z"/>
<path class="st1" d="M441.2,52.9l2.1-1.7c1.3,2.2,3.7,3.6,6.3,3.7c2.9,0,4.7-1.3,6.1-4.4l0.9-1.9L451.8,38h3.3l2.8,7l0.2,1.2
	l0.2-1.2l2.1-5.3c0.5-1,0.7-2,0.8-3.1c0-1.4-1.6-1.7-1.6-1.7l1.1-2.5c0,0,3.5,0.9,3.5,4c0,1.1-0.2,2-1.2,4.2l-4.6,10.7
	c-1.8,4.2-4.7,6.2-8.9,6.2C446.2,57.5,443,55.8,441.2,52.9z"/>
<path class="st2" d="M538.4,26.9h115.7c10,0,18.1,8.1,18.1,18.1l0,0c0,10-8.1,18.1-18.1,18.1H538.4c-10,0-18.1-8.1-18.1-18.1l0,0
	C520.3,35,528.4,26.9,538.4,26.9z"/>
<path class="st1" d="M558.8,48.8V51h-7.9V38.8h2.3v9.9H558.8z"/>
<path class="st1" d="M568.2,47.5h-6.3c0.1,1,1.1,1.8,2.1,1.7c0.8,0.1,1.5-0.3,1.8-1l2,0.9c-1.3,2.1-4,2.8-6.1,1.5
	c-2.1-1.3-2.8-4-1.5-6.1c0.8-1.3,2.3-2.2,3.8-2.1c2.3,0,4.1,1.7,4.2,4c0,0.1,0,0.3,0,0.4C568.2,47,568.2,47.2,568.2,47.5z M566,45.8
	c-0.1-1-1-1.7-2-1.5c0,0,0,0,0,0c-1-0.1-1.9,0.6-2.1,1.5H566z"/>
<path class="st1" d="M577.1,45.8V51h-1.6l-0.3-1.1c-0.7,0.9-1.8,1.4-2.9,1.3c-2,0-3.1-1-3.1-2.7s1.2-2.6,3.3-2.6
	c0.8,0,1.7,0.1,2.4,0.4V46c0.1-0.8-0.6-1.6-1.4-1.7c-0.1,0-0.2,0-0.3,0c-0.8,0-1.6,0.2-2.3,0.7l-1.2-1.5c1.1-0.7,2.3-1.1,3.6-1.1
	C575.7,42.4,577.1,43.7,577.1,45.8z M574.9,47.9v-0.2c-0.6-0.2-1.2-0.3-1.8-0.3c-1.1,0-1.7,0.4-1.7,1.1s0.5,1.1,1.5,1.1
	C574,49.6,574.8,48.9,574.9,47.9C574.9,47.9,574.9,47.9,574.9,47.9z"/>
<path class="st1" d="M579.3,42.6h1.7l0.3,1.5c0.5-1.1,1.7-1.8,2.9-1.7c0.2,0,0.3,0,0.5,0l-0.1,2.3h-0.3c-1.9,0-2.7,0.8-2.7,3V51
	h-2.2L579.3,42.6z"/>
<path class="st1" d="M586.1,42.6h1.8l0.3,1.2c0.7-0.9,1.8-1.4,2.9-1.4c1.7-0.1,3.2,1.3,3.3,3c0,0.2,0,0.3,0,0.5V51h-2.2v-4.7
	c0-1.2-0.6-1.8-1.7-1.8c-1.1,0-2,0.8-2,1.9c0,0,0,0.1,0,0.1V51h-2.3V42.6z"/>
<path class="st1" d="M614.4,45.8V51h-2.2v-4.7c0-1.2-0.5-1.8-1.5-1.8c-1,0-1.8,0.7-1.9,1.7c0,0.1,0,0.2,0,0.3V51h-2.2v-4.7
	c0-1.2-0.5-1.8-1.5-1.8c-1,0-1.8,0.7-1.9,1.7c0,0.1,0,0.2,0,0.3V51h-2.2v-8.4h1.8l0.3,1.2c0.6-0.9,1.7-1.4,2.8-1.4
	c1.1-0.1,2.1,0.5,2.5,1.5c0.7-1,1.9-1.5,3.1-1.5C613.2,42.4,614.4,43.7,614.4,45.8z"/>
<path class="st1" d="M616,46.8c0-2.4,1.9-4.4,4.3-4.4c0.1,0,0.2,0,0.3,0c2.4-0.2,4.4,1.6,4.6,4c0,0.1,0,0.3,0,0.4
	c-0.1,2.5-2.3,4.5-4.8,4.4C618,51,616.1,49.1,616,46.8z M622.9,46.8c0.1-1.2-0.8-2.2-2-2.3c-0.1,0-0.2,0-0.3,0
	c-1.3,0-2.3,1.1-2.2,2.4c0,1.3,1.1,2.3,2.4,2.2C622,49,623,48,622.9,46.8L622.9,46.8z"/>
<path class="st1" d="M627,42.6h1.7l0.3,1.5c0.5-1.1,1.7-1.8,2.9-1.7c0.2,0,0.3,0,0.5,0l-0.1,2.3H632c-1.9,0-2.7,0.8-2.7,3V51H627
	V42.6z"/>
<path class="st1" d="M641.6,47.5h-6.3c0.1,1,1.1,1.8,2.1,1.7c0.8,0.1,1.5-0.3,1.8-1l2,0.9c-1.3,2.1-4,2.8-6.1,1.5
	c-2.1-1.3-2.8-4-1.5-6.1c0.8-1.3,2.3-2.2,3.8-2.1c2.3,0,4.1,1.7,4.2,4c0,0.1,0,0.3,0,0.4C641.6,47.1,641.6,47.5,641.6,47.5z
	 M639.4,45.8c-0.1-1-1-1.7-2-1.5c0,0,0,0,0,0c-1-0.1-1.9,0.6-2.1,1.5H639.4z"/>
<rect x="86" y="33.4" class="st1" width="3.2" height="15.8"/>
<g>
	<defs>
		<rect id="SVGID_1_" x="49.7" y="18.4" width="159.5" height="53.2"/>
	</defs>
	<clipPath id="SVGID_2_">
		<use xlink:href="#SVGID_1_"  style="overflow:visible;"/>
	</clipPath>
	<g class="st3">
		<path class="st1" d="M102.7,49.5c-4.5,0-8.4-3.1-8.4-8.2s3.9-8.2,8.4-8.2c2,0,3.9,0.5,5.5,1.6v2.9c-1.4-1.3-3.3-1.9-5.2-1.9
			c-3.1,0-5.4,2.1-5.4,5.6s2.3,5.7,5.4,5.7c1.9,0,3.7-0.6,5.2-1.9v2.9C106.6,49,104.7,49.6,102.7,49.5"/>
	</g>
</g>
<polygon class="st1" points="120.5,35.9 120.5,49.1 117.3,49.1 117.3,35.9 111.9,35.9 111.9,33.4 125.8,33.4 125.8,35.9 "/>
<g>
	<defs>
		<rect id="SVGID_3_" x="49.7" y="18.4" width="159.5" height="53.2"/>
	</defs>
	<clipPath id="SVGID_4_">
		<use xlink:href="#SVGID_3_"  style="overflow:visible;"/>
	</clipPath>
	<g class="st4">
		<path class="st1" d="M137.1,35.5c-3.1,0-5.2,2.4-5.2,5.8s2.1,5.8,5.2,5.8s5.1-2.4,5.1-5.8S140.3,35.4,137.1,35.5 M137.1,49.6
			c-4.6-0.1-8.2-3.9-8.1-8.5s3.9-8.2,8.5-8.1c4.5,0.1,8.1,3.8,8.1,8.3c0,4.6-3.6,8.3-8.2,8.3C137.3,49.6,137.2,49.6,137.1,49.6"/>
		<path class="st1" d="M153.9,40.6h2.5c2,0,2.7-1,2.7-2.5s-0.7-2.5-2.7-2.5h-2.5V40.6z M162,49.3c-1.9,0-3.4-0.8-4.6-3.1l-1.7-3.4
			h-1.8v6.3h-3.2V33.4h6.2c3.7,0,5.3,2.2,5.3,4.8c0.1,2.1-1.4,4-3.5,4.5l1.6,2.7c0.8,1.4,1.5,1.8,2.6,1.8c0.3,0,0.6,0,0.9-0.1v2
			C163.3,49.2,162.6,49.3,162,49.3"/>
	</g>
</g>
<rect x="169.3" y="33.4" class="st1" width="3.2" height="15.8"/>
<g>
	<defs>
		<rect id="SVGID_5_" x="49.7" y="18.4" width="159.5" height="53.2"/>
	</defs>
	<clipPath id="SVGID_6_">
		<use xlink:href="#SVGID_5_"  style="overflow:visible;"/>
	</clipPath>
	<g class="st5">
		<path class="st1" d="M56.8,32.9c-0.9,0.3-1.9,0.2-2.8-0.1c-0.8-0.3-1.4-1-1.7-1.8c-0.3-0.8-0.2-1.7,0.2-2.4c0.4-0.6,1.1-1,1.8-0.9
			c0.9,0.1,1.8,0.5,2.5,1.1c0.9,0.7,1.6,1.4,2.3,2.2c0.2,0.2,0.4,0.5,0.6,0.7C58.8,32.2,57.8,32.6,56.8,32.9 M124.8,20.9
			c-9.2-2.5-18.8-3.1-28.2-1.6c-9.4,1.5-18.5,4.2-27.2,8c-2.2,0.9-4.3,1.8-6.5,2.8c-0.3,0.2-0.6,0.3-0.9,0.5c-0.3-0.4-0.6-0.8-1-1.2
			c-0.8-1-1.8-1.8-2.8-2.6c-1.1-0.9-2.5-1.4-3.9-1.6c-0.8-0.1-1.6,0.1-2.3,0.5c-0.7,0.4-1.3,1-1.7,1.7c-0.7,1.4-0.8,3-0.3,4.4
			c0.5,1.4,1.6,2.5,3,3.1c1.3,0.5,2.8,0.5,4.2,0.1c1.3-0.3,2.6-0.8,3.8-1.5c0.7,1,1.3,2,2,3.1l7.4,12l0,0c0.1,0.2,0.3,0.4,0.5,0.5
			c0.7,0.4,1.6,0.2,2-0.5c0,0,0,0,0,0l8.9-15.1c0.1-0.1,0.1-0.2,0.1-0.3h-3.3l-7,11.9l-6.3-9.9c-0.6-1-1.3-2-2-3l0.6-0.3
			c2-1,4.2-2,6.3-2.9c8.5-3.9,17.4-6.7,26.6-8.3c9.2-1.6,18.6-1.2,27.7,1.2c0.3,0.1,0.6-0.1,0.7-0.4S125.1,20.9,124.8,20.9
			L124.8,20.9"/>
		<path class="st1" d="M206.7,53.3c-0.2,0.7-0.8,1.3-1.6,1.4c-0.9,0-1.8-0.3-2.6-0.8c-0.9-0.6-1.7-1.4-2.4-2.2
			c-0.3-0.3-0.6-0.7-0.9-1c0.6-0.3,1.3-0.6,2-0.8c1-0.4,2-0.5,3-0.4c0.9,0.2,1.6,0.7,2.1,1.4C206.9,51.6,207,52.5,206.7,53.3
			 M208.4,49.6c-0.8-1.3-2.2-2.2-3.7-2.4c-1.4-0.2-2.8,0-4.1,0.5c-0.9,0.3-1.7,0.7-2.6,1.2c-0.6-0.9-1.2-1.8-1.8-2.8l-7.6-12.3l0,0
			c-0.1-0.2-0.3-0.4-0.5-0.5c-0.7-0.4-1.6-0.2-2,0.5c0,0,0,0,0,0l-8.9,15.1c-0.1,0.1-0.1,0.2-0.1,0.3h3.3l7-11.9l6.5,10.2
			c0.6,0.9,1.1,1.8,1.8,2.7c-0.6,0.3-1.1,0.6-1.7,0.8c-2.2,1-4.3,2.2-6.5,3.3c-8.5,4.6-16.7,9.6-25.8,12.5c-9.1,2.9-18.7,4-28.3,3.3
			c-0.3,0-0.6,0.2-0.6,0.6c0,0.3,0.2,0.6,0.6,0.7c9.7,0.8,19.5-0.2,28.8-3c9.4-2.8,17.8-7.8,26.3-12.3c2.1-1.1,4.2-2.2,6.4-3.2
			c0.7-0.3,1.4-0.7,2-1c0.4,0.5,0.9,1.1,1.3,1.6c0.9,1,1.9,1.8,3,2.6c1.2,0.9,2.7,1.3,4.2,1.1c0.9-0.1,1.7-0.5,2.3-1.1
			c0.6-0.6,1-1.3,1.3-2.1C209.5,52.5,209.2,50.9,208.4,49.6"/>
		<path class="st1" d="M115.8,58.6h-0.7V60h0.7c0.6,0,0.8-0.3,0.8-0.7S116.4,58.6,115.8,58.6 M115.1,58h0.7c0.5,0,0.6-0.2,0.6-0.6
			s-0.2-0.6-0.6-0.6h-0.7V58z M116,60.6h-1.8v-4.5h1.7c1,0,1.3,0.5,1.3,1.2c0,0.3-0.2,0.7-0.5,0.9c0.4,0.2,0.7,0.6,0.7,1.1
			C117.5,60,117.1,60.6,116,60.6"/>
		<path class="st1" d="M121.4,60.7c-1.3,0-2.3-1-2.3-2.3c0-1.3,1-2.3,2.3-2.3c0,0,0,0,0,0c0.6,0,1.1,0.2,1.6,0.5v0.8
			c-0.4-0.4-0.9-0.6-1.4-0.5c-0.9,0-1.6,0.7-1.6,1.6c0,0.9,0.7,1.6,1.6,1.6c0.5,0,1.1-0.2,1.4-0.5v0.8
			C122.5,60.6,122,60.7,121.4,60.7"/>
		<path class="st1" d="M124.9,61.6l-0.2-0.2c0.3-0.2,0.5-0.4,0.5-0.8h-0.4v-0.9h0.9v0.8C125.7,61,125.4,61.4,124.9,61.6"/>
		<path class="st1" d="M132.1,60.7c-1.3,0-2.3-1-2.3-2.3c0-1.3,1-2.3,2.3-2.3c0,0,0,0,0,0c0.6,0,1.1,0.2,1.6,0.5v0.8
			c-0.4-0.4-0.9-0.6-1.5-0.5c-0.9,0-1.6,0.7-1.6,1.6c0,0.9,0.7,1.6,1.6,1.6l0,0c0.5,0,1.1-0.2,1.5-0.5v0.8
			C133.2,60.6,132.6,60.7,132.1,60.7"/>
	</g>
</g>
<path class="st1" d="M137.2,57.3l-0.7,1.6h1.3L137.2,57.3z M138.6,60.6l-0.5-1.1h-1.8l-0.5,1.1H135l1.9-4.5h0.7l1.9,4.5H138.6z"/>
<polygon class="st1" points="144.2,60.6 141.8,57.7 141.8,60.6 141,60.6 141,56.2 141.7,56.2 144,59.1 144,56.2 144.8,56.2 
	144.8,60.6 "/>
<path class="st1" d="M148.6,57.3l-0.7,1.6h1.3L148.6,57.3z M149.9,60.6l-0.5-1.1h-1.8l-0.5,1.1h-0.9l1.9-4.5h0.8l1.9,4.5H149.9z"/>
<path class="st1" d="M153.9,56.9h-0.6v3h0.6c1.2,0,1.6-0.6,1.6-1.5S155.1,56.9,153.9,56.9 M154,60.6h-1.6v-4.5h1.6
	c1.8,0,2.5,1,2.5,2.2S155.8,60.6,154,60.6"/>
<path class="st1" d="M159.8,57.3l-0.7,1.6h1.3L159.8,57.3z M161.1,60.6l-0.4-1.1h-1.8l-0.4,1.1h-0.9l1.9-4.5h0.7l1.9,4.5H161.1z"/>
</svg>
