<svg viewBox="0 0 209 90" xmlns="http://www.w3.org/2000/svg" xmlns:xlink="http://www.w3.org/1999/xlink"><clipPath id="a"><path d="m38.77 23.36h127.73v42.62h-127.73z"/></clipPath><path d="m0 0h209v90h-209z" fill="#323e60"/><path d="m67.82 35.36h2.57v12.62h-2.57z" fill="#fff"/><g clip-path="url(#a)"><path d="m81.19 48.25a6.58 6.58 0 1 1 0-13.16 7.58 7.58 0 0 1 4.39 1.28v2.33a6.12 6.12 0 0 0 -4.12-1.55 4.18 4.18 0 0 0 -4.35 4.52 4.19 4.19 0 0 0 4.35 4.52 6.07 6.07 0 0 0 4.12-1.56v2.37a7.58 7.58 0 0 1 -4.39 1.28" fill="#fff"/></g><g fill="#fff"><path d="m95.4 37.36v10.62h-2.56v-10.62h-4.27v-2h11.1v2z"/><g clip-path="url(#a)"><path d="m108.73 37c-2.52 0-4.18 1.89-4.18 4.63s1.66 4.63 4.18 4.63 4.12-1.9 4.12-4.63-1.64-4.63-4.12-4.63m0 11.3a6.67 6.67 0 1 1 6.82-6.67 6.62 6.62 0 0 1 -6.82 6.67"/><path d="m122.17 41.14h2c1.6 0 2.17-.84 2.17-2s-.57-2-2.17-2h-2zm6.45 7a3.82 3.82 0 0 1 -3.62-2.5l-1.36-2.64h-1.47v5h-2.57v-12.64h5c3 0 4.27 1.77 4.27 3.81a3.46 3.46 0 0 1 -2.77 3.57l1.24 2.17c.63 1.09 1.22 1.47 2.1 1.47a2 2 0 0 0 .72-.11v1.62a5.36 5.36 0 0 1 -1.5.23"/></g><path d="m134.53 35.36h2.57v12.62h-2.57z"/><g clip-path="url(#a)"><path d="m44.4 35a3.58 3.58 0 0 1 -2.21-.06 2.6 2.6 0 0 1 -1.37-1.45 2.36 2.36 0 0 1 .18-1.96 1.42 1.42 0 0 1 1.45-.73 4.07 4.07 0 0 1 2 .91 11.61 11.61 0 0 1 1.86 1.79c.16.18.3.37.45.56a11.61 11.61 0 0 1 -2.34.9m54.5-9.65a53.67 53.67 0 0 0 -22.61-1.31 90.92 90.92 0 0 0 -21.76 6.42c-1.76.74-3.45 1.46-5.23 2.29-.24.12-.47.25-.7.38-.25-.32-.5-.63-.77-.93a13.78 13.78 0 0 0 -2.23-2.07 6 6 0 0 0 -3.09-1.26 3.57 3.57 0 0 0 -1.89.39 3.41 3.41 0 0 0 -1.37 1.37 4.25 4.25 0 0 0 -.22 3.53 4.41 4.41 0 0 0 2.44 2.5 5.4 5.4 0 0 0 3.34.1 14.23 14.23 0 0 0 3-1.21c.54.8 1.06 1.64 1.59 2.51l5.92 9.62a1.21 1.21 0 0 0 .39.39 1.17 1.17 0 0 0 1.59-.41l7.14-12.07a.86.86 0 0 0 .09-.27h-2.67l-5.63 9.52-5-7.91c-.49-.78-1-1.6-1.56-2.4l.46-.26c1.62-.78 3.37-1.57 5.08-2.31a89.65 89.65 0 0 1 21.27-6.67 52.55 52.55 0 0 1 22.15.95.47.47 0 0 0 .57-.32.46.46 0 0 0 -.32-.57"/><path d="m164.47 51.36a1.5 1.5 0 0 1 -1.24 1.12 3.36 3.36 0 0 1 -2-.66 10 10 0 0 1 -2-1.75c-.24-.27-.47-.55-.7-.84a13 13 0 0 1 1.6-.68 5.11 5.11 0 0 1 2.38-.32 2.51 2.51 0 0 1 1.69 1.14 2.46 2.46 0 0 1 .27 2m1.34-3a4.4 4.4 0 0 0 -3-2 6.72 6.72 0 0 0 -3.29.44 16 16 0 0 0 -2.05.93c-.49-.72-1-1.48-1.44-2.26l-6.03-9.83a1.21 1.21 0 0 0 -.39-.39 1.18 1.18 0 0 0 -1.6.41l-7.13 12.07a.86.86 0 0 0 -.09.27h2.63l5.58-9.52 5.19 8.15c.44.71.91 1.43 1.4 2.15-.44.25-.88.48-1.33.68-1.74.84-3.48 1.74-5.18 2.66-6.79 3.69-13.38 7.7-20.66 10a60.5 60.5 0 0 1 -22.63 2.65.49.49 0 1 0 -.07 1 61.39 61.39 0 0 0 23.09-2.37c7.5-2.28 14.26-6.28 21-9.83 1.71-.89 3.41-1.74 5.16-2.55.56-.25 1.1-.53 1.62-.81.34.43.69.85 1.07 1.25a11.88 11.88 0 0 0 2.38 2.06 5.25 5.25 0 0 0 3.41.91 3.26 3.26 0 0 0 1.82-.86 3.65 3.65 0 0 0 1-1.66 4.39 4.39 0 0 0 -.52-3.57"/><path d="m91.71 55.55h-.6v1.13h.6c.45 0 .63-.25.63-.57s-.18-.56-.63-.56m-.6-.5h.54a.45.45 0 0 0 .51-.47c0-.26-.15-.46-.51-.46h-.54zm.72 2.13h-1.45v-3.57h1.39c.77 0 1.08.43 1.08.94a.93.93 0 0 1 -.38.7 1 1 0 0 1 .57.89c0 .57-.35 1-1.21 1"/><path d="m96.15 57.26a1.86 1.86 0 1 1 0-3.72 2.09 2.09 0 0 1 1.24.36v.66a1.72 1.72 0 0 0 -1.16-.44 1.28 1.28 0 0 0 0 2.56 1.72 1.72 0 0 0 1.16-.44v.66a2.17 2.17 0 0 1 -1.24.36"/><path d="m99 58-.12-.18a.71.71 0 0 0 .36-.62h-.36v-.72h.72v.62a.93.93 0 0 1 -.6.9"/><path d="m104.69 57.26a1.86 1.86 0 1 1 0-3.72 2.09 2.09 0 0 1 1.24.36v.66a1.72 1.72 0 0 0 -1.16-.44 1.28 1.28 0 0 0 0 2.56 1.72 1.72 0 0 0 1.16-.44v.66a2.17 2.17 0 0 1 -1.24.36"/></g><path d="m108.82 54.5-.53 1.3h1zm1.08 2.68-.36-.88h-1.45l-.36.88h-.73l1.52-3.57h.56l1.52 3.57z"/><path d="m114.38 57.18-1.87-2.35v2.35h-.65v-3.57h.51l1.87 2.36v-2.36h.65v3.57z"/><path d="m117.92 54.5-.53 1.3h1zm1.08 2.68-.36-.88h-1.45l-.36.88h-.71l1.52-3.57h.57l1.51 3.57z"/><path d="m122.18 54.2h-.49v2.4h.49c1 0 1.32-.49 1.32-1.2s-.34-1.2-1.32-1.2m0 3h-1.18v-3.59h1.26c1.43 0 2 .81 2 1.79s-.6 1.78-2 1.78"/><path d="m126.86 54.5-.53 1.3h1zm1.08 2.68-.36-.88h-1.45l-.36.88h-.7l1.51-3.57h.57l1.52 3.57z"/></g></svg>