<svg id="Layer_1" data-name="Layer 1" xmlns="http://www.w3.org/2000/svg" xmlns:xlink="http://www.w3.org/1999/xlink" viewBox="0 0 728 90"><defs><style>.cls-1{fill:none;}.cls-2{clip-path:url(#clip-path);}.cls-3{fill:#221e1f;}.cls-4{clip-path:url(#clip-path-2);}.cls-5{clip-path:url(#clip-path-3);}.cls-6{clip-path:url(#clip-path-4);}</style><clipPath id="clip-path"><rect class="cls-1" width="728" height="90"/></clipPath><clipPath id="clip-path-2"><rect class="cls-1" x="748" width="728" height="90"/></clipPath><clipPath id="clip-path-3"><rect class="cls-1" x="1157.99" y="30.56" width="59.44" height="59.08"/></clipPath><clipPath id="clip-path-4"><rect class="cls-1" x="-32020" y="-32677" width="65535" height="65535"/></clipPath></defs><g class="cls-2"><path class="cls-3" d="M447.22,80.26a2.38,2.38,0,0,1-.18-.93.74.74,0,0,0-.83-.79H445v1.72h-.57V76h1.74c1.09,0,1.61.5,1.61,1.26a1,1,0,0,1-1,1.07.92.92,0,0,1,.81.93c.06.62.08.87.22,1Zm-1.1-2.19c.73,0,1.06-.28,1.06-.81s-.33-.8-1.06-.8H445v1.61Z"/><path class="cls-3" d="M451.18,79.26a1.31,1.31,0,0,1-1.38,1.09,1.45,1.45,0,0,1-1.53-1.53,1.51,1.51,0,0,1,1.5-1.61,1.37,1.37,0,0,1,1.43,1.48v.23h-2.37a1,1,0,0,0,1,1,.86.86,0,0,0,.92-.69Zm-.56-.71a.85.85,0,0,0-.85-.91,1,1,0,0,0-.93.91Z"/><path class="cls-3" d="M454,79.65a1.11,1.11,0,0,1-1.07.7,1.59,1.59,0,0,1,0-3.14,1.1,1.1,0,0,1,1.07.71V76h.57v4.28H454Zm0-1a.93.93,0,0,0-.95-1c-.58,0-.91.43-.91,1.11s.33,1.12.91,1.12a.94.94,0,0,0,.95-1Z"/><path class="cls-3" d="M458.45,80.26h-1.82V76h1.75c1.06,0,1.49.46,1.49,1.14a.92.92,0,0,1-.81.92,1,1,0,0,1,.93,1C460,79.83,459.45,80.26,458.45,80.26Zm-1.25-2.43h1.2c.61,0,.88-.27.88-.68s-.27-.69-.88-.69h-1.2Zm0,.45v1.5h1.24c.64,0,1-.28,1-.74s-.33-.76-1-.76Z"/><path class="cls-3" d="M460.61,76h.58v.64h-.58Zm.57,1.31v3h-.56v-3Z"/><path class="cls-3" d="M463.73,77.86a.84.84,0,0,0-.46-.13c-.43,0-.75.39-.75,1v1.57H462v-3h.57v.61a.93.93,0,0,1,.84-.69.66.66,0,0,1,.42.13Z"/><path class="cls-3" d="M466.35,79.65a1.1,1.1,0,0,1-1.06.7,1.58,1.58,0,0,1,0-3.14,1.1,1.1,0,0,1,1.06.71V76h.57v4.28h-.57Zm0-1a.93.93,0,0,0-.94-1c-.59,0-.92.43-.92,1.11s.33,1.12.92,1.12a.94.94,0,0,0,.94-1Z"/><path class="cls-3" d="M470.33,80.26,468.6,76h.61l1.45,3.6h0L472.1,76h.6L471,80.26Z"/><path class="cls-3" d="M475.54,79.26a1.31,1.31,0,0,1-1.38,1.09,1.45,1.45,0,0,1-1.53-1.53,1.51,1.51,0,0,1,1.5-1.61,1.37,1.37,0,0,1,1.43,1.48v.23h-2.37a1,1,0,0,0,1,1,.86.86,0,0,0,.92-.69Zm-.56-.71a.85.85,0,0,0-.85-.91,1,1,0,0,0-.93.91Z"/><path class="cls-3" d="M476.71,80.26h-.57v-3h.57v.53a1,1,0,0,1,1-.61c.78,0,1.09.52,1.09,1.21v1.84h-.56V78.47c0-.5-.24-.81-.71-.81a.82.82,0,0,0-.8.9Z"/><path class="cls-3" d="M479.62,77.7h-.45v-.31l.19,0c.28-.06.34-.19.41-.48l.09-.41h.32v.82H481v.41h-.83v1.8c0,.27.11.39.36.39a1.16,1.16,0,0,0,.56-.18v.38a1.13,1.13,0,0,1-.76.26c-.42,0-.72-.2-.72-.78Z"/><path class="cls-3" d="M483.6,77.29h.56v3h-.56v-.52a1,1,0,0,1-1,.61c-.78,0-1.07-.51-1.07-1.21V77.29h.57v1.8c0,.49.22.81.69.81a.81.81,0,0,0,.78-.9Z"/><path class="cls-3" d="M486.71,77.86a.82.82,0,0,0-.46-.13c-.43,0-.75.39-.75,1v1.57h-.56v-3h.56v.61a.94.94,0,0,1,.85-.69.66.66,0,0,1,.42.13Z"/><path class="cls-3" d="M489.83,79.26a1.32,1.32,0,0,1-1.39,1.09,1.46,1.46,0,0,1-1.53-1.53,1.51,1.51,0,0,1,1.5-1.61,1.37,1.37,0,0,1,1.43,1.48v.23h-2.36a1,1,0,0,0,1,1,.84.84,0,0,0,.91-.69Zm-.56-.71a.85.85,0,0,0-.86-.91,1,1,0,0,0-.92.91Z"/><path class="cls-3" d="M490.71,79.23a.79.79,0,0,0,.89.7c.39,0,.69-.14.69-.44s-.2-.38-.57-.44l-.5-.09c-.56-.09-.89-.33-.89-.84s.45-.91,1.14-.91,1.25.37,1.31,1.05l-.46,0a.74.74,0,0,0-.85-.67c-.37,0-.62.17-.62.45s.15.36.46.41l.55.09c.6.1,1,.33,1,.86s-.53.92-1.22.92-1.31-.35-1.36-1.09Z"/><path class="cls-3" d="M495.24,76v3.79h2.39v.49h-3V76Z"/><path class="cls-3" d="M498.18,76h.58v.64h-.58Zm.57,1.31v3h-.56v-3Z"/><path class="cls-3" d="M503,77.21c.77,0,1.05.54,1.05,1.21v1.84h-.57V78.47c0-.5-.2-.81-.66-.81a.81.81,0,0,0-.76.9v1.7h-.57V78.47c0-.5-.2-.81-.66-.81a.8.8,0,0,0-.75.9v1.7h-.57v-3h.57v.53a1,1,0,0,1,.94-.61.94.94,0,0,1,1,.65A1.06,1.06,0,0,1,503,77.21Z"/><path class="cls-3" d="M504.78,76h.59v.64h-.59Zm.58,1.31v3h-.57v-3Z"/><path class="cls-3" d="M506.23,77.7h-.45v-.31l.19,0c.28-.06.34-.19.41-.48l.09-.41h.32v.82h.84v.41h-.84v1.8c0,.27.11.39.37.39a1.12,1.12,0,0,0,.55-.18v.38a1.11,1.11,0,0,1-.76.26c-.42,0-.72-.2-.72-.78Z"/><path class="cls-3" d="M510.91,79.26a1.32,1.32,0,0,1-1.39,1.09A1.46,1.46,0,0,1,508,78.82a1.52,1.52,0,0,1,1.51-1.61,1.37,1.37,0,0,1,1.43,1.48v.23h-2.37a1,1,0,0,0,1,1,.84.84,0,0,0,.91-.69Zm-.56-.71a.85.85,0,0,0-.85-.91,1,1,0,0,0-.93.91Z"/><path class="cls-3" d="M513.77,79.65a1.12,1.12,0,0,1-1.07.7,1.59,1.59,0,0,1,0-3.14,1.11,1.11,0,0,1,1.07.71V76h.56v4.28h-.56Zm0-1a.93.93,0,0,0-.95-1c-.59,0-.91.43-.91,1.11s.32,1.12.91,1.12a.94.94,0,0,0,.95-1Z"/><path class="cls-3" d="M515,79.58h.68v.68H515Z"/></g></svg>