<?xml version="1.0" encoding="utf-8"?>
<!-- Generator: Adobe Illustrator 25.4.1, SVG Export Plug-In . SVG Version: 6.00 Build 0)  -->
<svg version="1.1" id="Layer_1" xmlns="http://www.w3.org/2000/svg" xmlns:xlink="http://www.w3.org/1999/xlink" x="0px" y="0px"
	 viewBox="0 0 728 90" style="enable-background:new 0 0 728 90;" xml:space="preserve">
<style type="text/css">
	.st0{clip-path:url(#SVGID_00000018235305222559220750000005636302001275617436_);}
	.st1{fill:#221E1F;}
</style>
<g>
	<g>
		<defs>
			<rect id="SVGID_1_" x="296.7" y="22.9" width="185" height="42.4"/>
		</defs>
		<clipPath id="SVGID_00000008865083499169271590000011969803202884461199_">
			<use xlink:href="#SVGID_1_"  style="overflow:visible;"/>
		</clipPath>
		<g style="clip-path:url(#SVGID_00000008865083499169271590000011969803202884461199_);">
			<path class="st1" d="M333.3,53.3c0-5.8-3.7-9-8.5-10c4.4-0.7,7.3-3.8,7.3-8.4c0-6.9-4.8-11.3-15.3-11.3h-20v40.8h21.4
				C327.7,64.5,333.3,60.3,333.3,53.3 M316.3,48.1c3.9,0,5.6,1.6,5.6,3.8s-1.7,3.8-5.5,3.8h-8.9v-7.6L316.3,48.1z M307.5,32.4h7.8
				c3.8,0,5.3,1.7,5.3,3.8c0,1.9-1.5,3.6-5.3,3.6h-7.8V32.4z"/>
			<path class="st1" d="M356,65.2c10.6,0,18.7-5,18.7-17V23.7h-11.1v22.8c0,6.2-1.9,9.5-7.6,9.5s-7.6-3.3-7.6-9.5V23.7h-11v24.6
				C337.4,60.2,345.5,65.3,356,65.2"/>
			<path class="st1" d="M378.9,44.1c0,12.6,9.1,21.2,21.1,21.2c12.6,0,19.3-7.9,20.1-18.1l-10.6-0.5c-0.6,4.5-3.1,8.7-9.5,8.7
				c-6.1,0-9.6-4.5-9.6-11.4s3.5-11.4,9.6-11.4c6.4,0,8.9,4.2,9.5,8.7l10.6-0.4c-0.8-10.2-7.5-18.1-20.1-18.1
				C388,22.9,378.9,31.5,378.9,44.1"/>
			<polygon class="st1" points="463.7,64.5 447.1,41 462.9,23.7 450.2,23.7 435.5,40.2 435.5,23.7 424.4,23.7 424.4,64.5 
				435.5,64.5 435.5,52.1 439,48.2 450.5,64.5 			"/>
			<path class="st1" d="M471.5,30.1h-1.7v-4.9h-2.2v-1.5h6.1v1.5h-2.2V30.1z M478.6,30.1h-1.3l-1.3-4.5h0v4.5h-1.6v-6.4h2.5l1.1,4.3
				h0l1.1-4.3h2.4v6.4h-1.7v-4.5h0L478.6,30.1z"/>
		</g>
	</g>
	<path class="st1" d="M495.8,50.9c0.1-3.3,1.7-6.3,4.3-8.3c2.6-2.1,4.6-3.6,4.6-6.5c0.1-2-1.5-3.8-3.6-3.8c-0.2,0-0.3,0-0.5,0
		c-3.7,0-5,2.6-5,5.9c0,1.1,0.1,2.3,0.5,3.4l-10.7-0.3c-0.3-1.3-0.5-2.5-0.5-3.8c0-8.7,6.5-14.4,15.9-14.4c9.9,0,15.5,5.6,15.5,12.6
		c0,5.3-3.2,8.3-6.9,11c-2.1,1.5-3.2,2.8-3.3,4.4H495.8z M495.3,53.3h11.1v11.1h-11.1V53.3z"/>
</g>
</svg>
