<svg xmlns="http://www.w3.org/2000/svg" viewBox="0 0 94.22 122.71"><defs><style>.cls-1{fill:#fff;}</style></defs><title>t1-160</title><g id="Layer_2" data-name="Layer 2"><g id="Layer_1-2" data-name="Layer 1"><path class="cls-1" d="M18.16,12.33H16.85a.79.79,0,0,0-.81.87v6.7a.87.87,0,0,1-.87.81H13.63a.82.82,0,0,1-.78-.78V.84A.85.85,0,0,1,13.66,0h4.5c2.11,0,3.39.41,4.35,1.33a6.31,6.31,0,0,1,1.65,4.73C24.16,10.41,22.3,12.33,18.16,12.33ZM17.43,3h-.58A.8.8,0,0,0,16,3.8V8.56a.73.73,0,0,0,.81.81h.58c2.55,0,3.39-.78,3.39-3.1C20.82,3.71,20,3,17.43,3Z"/><path class="cls-1" d="M39.44,20.71H37.91a.94.94,0,0,1-1-.84l-.58-2.81a1,1,0,0,0-1-.87H32.57a1.11,1.11,0,0,0-1,.87l-.55,2.84a1,1,0,0,1-1,.81h-1.5a.65.65,0,0,1-.64-.84L31.61.78a.87.87,0,0,1,1-.78h2.75a1,1,0,0,1,1,.84l3.83,19A.68.68,0,0,1,39.44,20.71ZM34.11,4.87c-.06-.2-.29-.26-.32,0l-1.37,7.6c-.11.5.26.76.73.76H34.8c.52,0,.78-.26.7-.82Z"/><path class="cls-1" d="M55.65,20.71H53.94a1,1,0,0,1-1.1-.84l-2.21-6.82c-.2-.58-.43-.81-1.07-.81h-.29c-.55,0-.84.26-.84.81V19.9a.79.79,0,0,1-.81.81H46a.75.75,0,0,1-.78-.81V.84A.86.86,0,0,1,46.05,0h4.24c3.85,0,5.91,2.06,5.91,5.92,0,2.32-.69,4-2.11,5-.5.34-.61.55-.47,1l2.58,7.89A.6.6,0,0,1,55.65,20.71ZM49.62,3h-.35a.85.85,0,0,0-.84.84V8.44a.84.84,0,0,0,.84.84h.35c2.44,0,3.28-.84,3.28-3.19S52.06,3,49.62,3Z"/><path class="cls-1" d="M73,20.71H71.14A1,1,0,0,1,70,19.87l-2.9-8.09c-.06-.21-.38-.29-.61-.29-.5,0-1.42,1.22-1.42,3.25V19.9a.82.82,0,0,1-.84.81H62.7a.83.83,0,0,1-.81-.81V.81A.83.83,0,0,1,62.7,0h1.54a.81.81,0,0,1,.84.84V7.77c0,.32.29.29.43,0L69.25.84A1.41,1.41,0,0,1,70.56,0h1.77c.49,0,.55.49.35.84L69.28,6.7a1.67,1.67,0,0,0-.2,1.63l4.41,11.54C73.66,20.3,73.46,20.71,73,20.71Z"/><path class="cls-1" d="M18.9,45.83a4.33,4.33,0,0,0-.3,1.66v6.38a.88.88,0,0,1-.84.84H16.23a.82.82,0,0,1-.85-.81V47.49a3.91,3.91,0,0,0-.29-1.66L11,34.87c-.17-.46,0-.87.53-.87h1.91a1.08,1.08,0,0,1,1,.81L16.78,42c.17.52.37.52.55,0l2.32-7.11A1.05,1.05,0,0,1,20.72,34h1.83c.55,0,.73.32.52.84Z"/><path class="cls-1" d="M38.09,53a5.34,5.34,0,0,1-4.49,2,5.27,5.27,0,0,1-4.47-2c-.87-1.22-1.19-2.55-1.19-4.9V40.61c0-2.35.35-3.8,1.19-4.93a5.23,5.23,0,0,1,4.47-2,5.35,5.35,0,0,1,4.49,2c.85,1.22,1.19,2.58,1.19,4.93v7.52C39.28,50.48,38.94,51.9,38.09,53ZM36,40.67c0-3-.63-4-2.43-4s-2.44,1-2.44,4V48.1c0,2.93.58,3.94,2.44,3.94S36,51,36,48.1Z"/><path class="cls-1" d="M55,53.2A5,5,0,0,1,50.71,55a5.23,5.23,0,0,1-4.29-1.83c-.9-1.24-1.19-2.52-1.19-5.13V34.84A.83.83,0,0,1,46,34h1.54a.78.78,0,0,1,.84.84V48.56c0,2.47.66,3.48,2.29,3.48s2.26-1,2.26-3.48V34.84a.81.81,0,0,1,.84-.84h1.51a.85.85,0,0,1,.84.87V48C56.16,50.71,55.87,52.07,55,53.2Z"/><path class="cls-1" d="M72.81,54.71H71.1A1.06,1.06,0,0,1,70,53.87l-2.2-6.82c-.2-.58-.44-.81-1.07-.81h-.29c-.55,0-.85.26-.85.81V53.9a.79.79,0,0,1-.81.81H63.18a.76.76,0,0,1-.79-.81V34.84a.86.86,0,0,1,.82-.84h4.23c3.86,0,5.92,2.06,5.92,5.92,0,2.32-.7,4-2.12,5-.49.34-.61.55-.46,1l2.58,7.89A.6.6,0,0,1,72.81,54.71ZM66.77,37h-.34a.85.85,0,0,0-.85.84v4.64a.84.84,0,0,0,.85.84h.34c2.44,0,3.28-.84,3.28-3.19S69.21,37,66.77,37Z"/><path class="cls-1" d="M21.43,88.71H19.72a1,1,0,0,1-1.1-.84l-2.2-6.82c-.21-.58-.44-.81-1.08-.81h-.29c-.55,0-.84.26-.84.81V87.9a.79.79,0,0,1-.81.81H11.8A.75.75,0,0,1,11,87.9V68.84a.86.86,0,0,1,.81-.84h4.24C19.92,68,22,70.06,22,73.92c0,2.32-.69,4-2.11,5-.5.34-.61.55-.47,1L22,87.87A.6.6,0,0,1,21.43,88.71ZM15.4,71h-.35a.85.85,0,0,0-.84.84v4.64a.84.84,0,0,0,.84.84h.35c2.44,0,3.28-.84,3.28-3.19S17.84,71,15.4,71Z"/><path class="cls-1" d="M34.74,87.9a.92.92,0,0,1-1,.81h-2.3a1,1,0,0,1-1-.84l-4.09-19c-.09-.46.12-.84.61-.84h1.65a1.06,1.06,0,0,1,1.05.84L32.45,83c.06.26.23.23.29,0l2.47-14.1a1,1,0,0,1,.95-.84h1.6a.66.66,0,0,1,.7.84Z"/><path class="cls-1" d="M54.78,88.71H53.21a.83.83,0,0,1-.81-.78V68.81a.79.79,0,0,1,.81-.81h1.6a.84.84,0,0,1,.81.78V87.93A.87.87,0,0,1,54.78,88.71Z"/><path class="cls-1" d="M73.08,88.71H71.52a1.22,1.22,0,0,1-1.16-.84l-4.5-10.79c-.18-.41-.35-.38-.35,0V87.87a.81.81,0,0,1-.84.84H63.1a.78.78,0,0,1-.81-.81V68.84A.77.77,0,0,1,63.1,68h1.57a1.3,1.3,0,0,1,1.16.81l4.53,10.82c.17.41.34.38.34,0V68.84a.82.82,0,0,1,.82-.84h1.56a.76.76,0,0,1,.84.81V87.9A.88.88,0,0,1,73.08,88.71Z"/><path class="cls-1" d="M5.19,122.71H.84a.93.93,0,0,1-.84-.84v-19A.87.87,0,0,1,.84,102h4c3.85,0,6,1.89,6,5.22,0,2.15-.78,3.54-2.55,4.32-.26.12-.29.21-.29.32s.05.18.29.26a4.61,4.61,0,0,1,3.07,4.73C11.37,120.51,9.05,122.71,5.19,122.71ZM4.47,105H4a.85.85,0,0,0-.81.9v3.77a.88.88,0,0,0,.81.81h.38a2.87,2.87,0,0,0,3.19-2.9C7.6,105.8,6.58,105,4.47,105Zm-.06,8.41H4a.76.76,0,0,0-.81.84v4.7c0,.55.26.84.81.84h.81c2.06,0,3.2-1,3.2-2.9A3.33,3.33,0,0,0,4.41,113.37Z"/><path class="cls-1" d="M27.41,122.71H25.87a.94.94,0,0,1-1-.84l-.58-2.81a1,1,0,0,0-1-.87H20.53a1.1,1.1,0,0,0-1,.87L19,121.9a1,1,0,0,1-1,.81H16.53a.65.65,0,0,1-.64-.84l3.69-19.09a.85.85,0,0,1,1-.78h2.76a.93.93,0,0,1,1,.84l3.83,19A.67.67,0,0,1,27.41,122.71Zm-5.34-15.84c-.06-.2-.29-.26-.32,0l-1.36,7.6c-.12.5.26.76.72.76h1.66c.52,0,.78-.26.69-.82Z"/><path class="cls-1" d="M44,122.71H42.43a1.22,1.22,0,0,1-1.16-.84l-4.5-10.79c-.17-.41-.35-.38-.35,0v10.79a.8.8,0,0,1-.84.84H34a.78.78,0,0,1-.82-.81V102.84A.77.77,0,0,1,34,102h1.56a1.3,1.3,0,0,1,1.16.81l4.53,10.82c.17.41.35.38.35,0V102.84a.81.81,0,0,1,.81-.84H44a.77.77,0,0,1,.84.81V121.9A.88.88,0,0,1,44,122.71Z"/><path class="cls-1" d="M59.83,105H55.22a.88.88,0,0,0-.79.87v3.74a.84.84,0,0,0,.79.81h3.94a1,1,0,0,1,.84.9v1.25a1,1,0,0,1-.84.81H55.22a.91.91,0,0,0-.82.84v7.69a1,1,0,0,1-.84.84H52a1,1,0,0,1-.82-.84v-19A.82.82,0,0,1,52,102h7.8a.81.81,0,0,1,.84.84v1.31A.88.88,0,0,1,59.83,105Z"/><path class="cls-1" d="M74.21,105H69.6a.88.88,0,0,0-.78.87v3.74a.84.84,0,0,0,.78.81h3.94a1,1,0,0,1,.85.9v1.25a1,1,0,0,1-.85.81H69.6a.9.9,0,0,0-.81.84v7.69a1,1,0,0,1-.84.84H66.41a1,1,0,0,1-.81-.84v-19a.82.82,0,0,1,.81-.84h7.8a.8.8,0,0,1,.84.84v1.31A.88.88,0,0,1,74.21,105Z"/><path class="cls-1" d="M82.36,122.45a1.05,1.05,0,0,1-.58.26H80.45a1,1,0,0,1-.56-.26,1.05,1.05,0,0,1-.26-.58v-1.62a1.05,1.05,0,0,1,.26-.58,1,1,0,0,1,.56-.27h1.33a1,1,0,0,1,.58.27.92.92,0,0,1,.26.55v1.65A.94.94,0,0,1,82.36,122.45Zm5.8,0a1.05,1.05,0,0,1-.58.26H86.25a.92.92,0,0,1-.55-.26,1,1,0,0,1-.27-.58v-1.62a1,1,0,0,1,.27-.58.91.91,0,0,1,.55-.27h1.33a1,1,0,0,1,.58.27.92.92,0,0,1,.26.55v1.65A.94.94,0,0,1,88.16,122.45Zm5.8,0a1.05,1.05,0,0,1-.58.26H92.05a.92.92,0,0,1-.55-.26,1.05,1.05,0,0,1-.26-.58v-1.62a1.05,1.05,0,0,1,.26-.58.91.91,0,0,1,.55-.27h1.33a1,1,0,0,1,.58.27.92.92,0,0,1,.26.55v1.65A.94.94,0,0,1,94,122.45Z"/></g></g></svg>