<svg xmlns="http://www.w3.org/2000/svg" viewBox="0 0 116.73 137.64"><defs><style>.cls-1{fill:#fff;}</style></defs><title>t2-160</title><g id="Layer_2" data-name="Layer 2"><g id="Layer_1-2" data-name="Layer 1"><path class="cls-1" d="M19,17.38H12.44a.67.67,0,0,1-.68-.67V.94a.67.67,0,0,1,.68-.7h1.27a.67.67,0,0,1,.72.7V14.23a.63.63,0,0,0,.65.7H19c.46,0,.67.24.67.7v1.08A.65.65,0,0,1,19,17.38Z"/><path class="cls-1" d="M31.54,16.71a.68.68,0,0,1-.7.67H24.46a.7.7,0,0,1-.7-.67V.94a.82.82,0,0,1,.7-.7h6.38a.61.61,0,0,1,.68.7V2a.6.6,0,0,1-.65.67H27.1c-.48,0-.7.33-.7.79v3a.67.67,0,0,0,.7.68h3.19a.63.63,0,0,1,.67.69V9a.69.69,0,0,1-.67.68H27.08a.67.67,0,0,0-.65.71v3.89a.62.62,0,0,0,.65.7h3.76a.76.76,0,0,1,.7.72Z"/><path class="cls-1" d="M43.52,2.9h-2a.71.71,0,0,0-.7.7V16.71a.7.7,0,0,1-.69.67h-1.3a.68.68,0,0,1-.67-.67V3.58a.8.8,0,0,0-.7-.68H35.57a.7.7,0,0,1-.67-.69V.91a.7.7,0,0,1,.67-.67h8a.66.66,0,0,1,.67.67V2.23A.65.65,0,0,1,43.52,2.9Z"/><path class="cls-1" d="M60.82,10a3.62,3.62,0,0,0-.24,1.37v5.28a.74.74,0,0,1-.7.7H58.61a.68.68,0,0,1-.7-.67V11.4A3.17,3.17,0,0,0,57.67,10L54.31,1c-.14-.38,0-.72.44-.72h1.58a.88.88,0,0,1,.86.67l1.88,5.91c.14.43.31.43.45,0L61.44.91a.89.89,0,0,1,.89-.67h1.51c.46,0,.6.26.44.7Z"/><path class="cls-1" d="M76.71,16A4.44,4.44,0,0,1,73,17.64,4.37,4.37,0,0,1,69.29,16a6.4,6.4,0,0,1-1-4.06V5.71a6.46,6.46,0,0,1,1-4.08A4.3,4.3,0,0,1,73,0a4.45,4.45,0,0,1,3.72,1.63,6.66,6.66,0,0,1,1,4.08v6.22A6.46,6.46,0,0,1,76.71,16ZM75,5.76c0-2.45-.53-3.29-2-3.29s-2,.84-2,3.29V11.9c0,2.43.48,3.27,2,3.27s2-.84,2-3.27Z"/><path class="cls-1" d="M90.67,16.13a4.14,4.14,0,0,1-3.52,1.51,4.35,4.35,0,0,1-3.56-1.51c-.74-1-1-2.09-1-4.25V.94a.7.7,0,0,1,.67-.7h1.27a.64.64,0,0,1,.7.7V12.29c0,2,.55,2.88,1.9,2.88S89,14.35,89,12.29V.94a.67.67,0,0,1,.69-.7H91a.71.71,0,0,1,.7.72v10.9C91.66,14.06,91.42,15.19,90.67,16.13Z"/><path class="cls-1" d="M105.43,17.38H104a.86.86,0,0,1-.91-.7L101.28,11c-.17-.48-.36-.67-.89-.67h-.24a.6.6,0,0,0-.69.67v5.67a.66.66,0,0,1-.67.67H97.47a.62.62,0,0,1-.65-.67V.94a.71.71,0,0,1,.67-.7H101c3.2,0,4.9,1.7,4.9,4.9a4.74,4.74,0,0,1-1.75,4.15c-.41.29-.51.45-.38.86l2.13,6.53A.5.5,0,0,1,105.43,17.38Zm-5-14.69h-.29a.69.69,0,0,0-.69.69V7.22a.69.69,0,0,0,.69.7h.29c2,0,2.71-.7,2.71-2.64S102.46,2.69,100.44,2.69Z"/><path class="cls-1" d="M15.66,47.64a4.84,4.84,0,0,1-5.11-4.34.73.73,0,0,1,.62-.67l1-.29a2.57,2.57,0,0,1,.48-.1c.27,0,.44.15.53.55.41,1.56,1.3,2.38,2.52,2.38a1.85,1.85,0,0,0,1.95-1.94c0-1.08-.53-1.78-2.52-3.37L13.36,38.5A5.4,5.4,0,0,1,11,34.2,4.16,4.16,0,0,1,15.45,30a4.75,4.75,0,0,1,4.65,3.84.65.65,0,0,1-.52.62l-1.2.36a1.18,1.18,0,0,1-.29,0c-.29,0-.46-.17-.58-.53-.43-1.24-1.13-1.87-2.09-1.87a1.67,1.67,0,0,0-1.7,1.73c0,.94.5,1.7,1.78,2.71l1.17.94c1.92,1.51,3.7,2.71,3.7,5.45S18.47,47.64,15.66,47.64Z"/><path class="cls-1" d="M32.58,46.71a.67.67,0,0,1-.69.67H25.5a.69.69,0,0,1-.69-.67V30.94a.81.81,0,0,1,.69-.7h6.39c.45,0,.67.24.67.7V32a.6.6,0,0,1-.65.67H28.14c-.48,0-.69.33-.69.79v3a.66.66,0,0,0,.69.68h3.2a.63.63,0,0,1,.67.69V39a.69.69,0,0,1-.67.68H28.12a.67.67,0,0,0-.65.71v3.89a.62.62,0,0,0,.65.7h3.77a.75.75,0,0,1,.69.72Z"/><path class="cls-1" d="M46.07,47.38H44.78a1,1,0,0,1-1-.7l-3.73-8.93c-.14-.33-.28-.31-.28,0v8.93a.67.67,0,0,1-.7.7h-1.3a.65.65,0,0,1-.67-.67V30.94a.64.64,0,0,1,.67-.7h1.3a1.08,1.08,0,0,1,1,.67l3.75,9c.14.34.28.32.28,0V30.94a.68.68,0,0,1,.68-.7h1.29a.64.64,0,0,1,.7.67v15.8A.73.73,0,0,1,46.07,47.38Z"/><path class="cls-1" d="M56.32,47.64a4.83,4.83,0,0,1-5.11-4.34.72.72,0,0,1,.62-.67l1-.29a2.28,2.28,0,0,1,.48-.1c.26,0,.43.15.53.55.41,1.56,1.29,2.38,2.52,2.38a1.85,1.85,0,0,0,1.94-1.94c0-1.08-.53-1.78-2.52-3.37L54,38.5a5.4,5.4,0,0,1-2.4-4.3A4.17,4.17,0,0,1,56.1,30a4.75,4.75,0,0,1,4.66,3.84.66.66,0,0,1-.53.62l-1.2.36a1,1,0,0,1-.29,0c-.28,0-.45-.17-.57-.53-.44-1.24-1.13-1.87-2.09-1.87a1.67,1.67,0,0,0-1.7,1.73c0,.94.5,1.7,1.77,2.71l1.18.94C59.25,39.36,61,40.56,61,43.3S59.13,47.64,56.32,47.64Z"/><path class="cls-1" d="M73.24,46.71a.68.68,0,0,1-.7.67H66.16a.7.7,0,0,1-.7-.67V30.94a.82.82,0,0,1,.7-.7h6.38a.61.61,0,0,1,.68.7V32a.6.6,0,0,1-.65.67H68.8c-.48,0-.7.33-.7.79v3a.67.67,0,0,0,.7.68H72a.63.63,0,0,1,.67.69V39a.69.69,0,0,1-.67.68H68.78a.67.67,0,0,0-.65.71v3.89a.62.62,0,0,0,.65.7h3.76a.76.76,0,0,1,.7.72Z"/><path class="cls-1" d="M93,46a4.43,4.43,0,0,1-3.72,1.65A4.37,4.37,0,0,1,85.62,46a6.4,6.4,0,0,1-1-4.06V35.71a6.53,6.53,0,0,1,1-4.08A4.3,4.3,0,0,1,89.32,30,4.44,4.44,0,0,1,93,31.63a6.66,6.66,0,0,1,1,4.08v6.22A6.46,6.46,0,0,1,93,46ZM91.33,35.76c0-2.45-.52-3.29-2-3.29s-2,.84-2,3.29V41.9c0,2.43.48,3.27,2,3.27s2-.84,2-3.27Z"/><path class="cls-1" d="M106.19,32.69h-3.82a.72.72,0,0,0-.64.72V36.5a.7.7,0,0,0,.64.68h3.27a.78.78,0,0,1,.69.74v1a.82.82,0,0,1-.69.68h-3.27a.74.74,0,0,0-.67.69v6.36a.82.82,0,0,1-.69.7H99.73a.85.85,0,0,1-.67-.7V30.94a.68.68,0,0,1,.67-.7h6.46a.67.67,0,0,1,.7.7V32A.72.72,0,0,1,106.19,32.69Z"/><path class="cls-1" d="M9.54,77.38H8.27a.77.77,0,0,1-.81-.7L7,74.35a.86.86,0,0,0-.84-.72H3.86a.93.93,0,0,0-.8.72l-.45,2.36a.83.83,0,0,1-.82.67H.54a.54.54,0,0,1-.53-.7L3.06,60.89a.73.73,0,0,1,.8-.65H6.14a.78.78,0,0,1,.84.7l3.16,15.74A.56.56,0,0,1,9.54,77.38ZM5.13,64.27c0-.17-.24-.21-.27,0L3.74,70.58c-.1.41.21.63.6.63H5.7c.44,0,.65-.22.58-.67Z"/><path class="cls-1" d="M18.52,77.38H15a.64.64,0,0,1-.63-.7V60.94a.72.72,0,0,1,.63-.7h3.55c3.36,0,5,1.73,5,5.35V72C23.49,75.67,21.88,77.38,18.52,77.38Zm2.3-11c0-2.72-.67-3.65-2.52-3.65h-.67a.62.62,0,0,0-.65.65v11a.58.58,0,0,0,.58.55h.74c1.85,0,2.52-1,2.52-3.63Z"/><path class="cls-1" d="M34.38,76.71a.76.76,0,0,1-.81.67h-1.9a.79.79,0,0,1-.84-.7L27.45,60.94c-.08-.39.09-.7.5-.7h1.37a.86.86,0,0,1,.86.7l2.31,11.69c0,.21.19.19.24,0l2-11.66a.84.84,0,0,1,.79-.7h1.32a.55.55,0,0,1,.58.7Z"/><path class="cls-1" d="M49.46,76.71a.68.68,0,0,1-.7.67H42.37a.69.69,0,0,1-.69-.67V60.94a.81.81,0,0,1,.69-.7h6.39c.45,0,.67.24.67.7V62a.6.6,0,0,1-.65.67H45c-.48,0-.69.33-.69.79v3a.66.66,0,0,0,.69.68h3.2a.63.63,0,0,1,.67.69V69a.69.69,0,0,1-.67.68H45a.68.68,0,0,0-.65.71v3.89a.62.62,0,0,0,.65.7h3.77a.76.76,0,0,1,.7.72Z"/><path class="cls-1" d="M62.94,77.38H61.65a1,1,0,0,1-1-.7L57,67.75c-.15-.33-.29-.31-.29,0v8.93a.67.67,0,0,1-.7.7H54.69a.65.65,0,0,1-.68-.67V60.94a.64.64,0,0,1,.68-.7H56a1.08,1.08,0,0,1,1,.67l3.75,9c.14.34.29.32.29,0V60.94a.67.67,0,0,1,.67-.7h1.29a.64.64,0,0,1,.7.67v15.8A.73.73,0,0,1,62.94,77.38Z"/><path class="cls-1" d="M76.34,62.9h-2a.71.71,0,0,0-.7.7V76.71a.7.7,0,0,1-.69.67H71.7a.68.68,0,0,1-.67-.67V63.58a.8.8,0,0,0-.7-.68H68.39a.7.7,0,0,1-.67-.69v-1.3a.7.7,0,0,1,.67-.67h8a.66.66,0,0,1,.67.67v1.32A.65.65,0,0,1,76.34,62.9Z"/><path class="cls-1" d="M89,76.13a4.15,4.15,0,0,1-3.53,1.51A4.34,4.34,0,0,1,82,76.13c-.74-1-1-2.09-1-4.25V60.94a.69.69,0,0,1,.67-.7h1.27a.65.65,0,0,1,.7.7V72.29c0,2,.55,2.88,1.89,2.88s1.87-.82,1.87-2.88V60.94a.67.67,0,0,1,.7-.7h1.25A.7.7,0,0,1,90,61v10.9C90,74.06,89.78,75.19,89,76.13Z"/><path class="cls-1" d="M103.79,77.38h-1.42a.87.87,0,0,1-.91-.7L99.64,71c-.17-.48-.36-.67-.89-.67h-.24c-.46,0-.7.21-.7.67v5.67a.65.65,0,0,1-.67.67H95.82a.62.62,0,0,1-.65-.67V60.94a.72.72,0,0,1,.68-.7h3.5c3.19,0,4.9,1.7,4.9,4.9a4.74,4.74,0,0,1-1.76,4.15c-.4.29-.5.45-.38.86l2.14,6.53A.5.5,0,0,1,103.79,77.38Zm-5-14.69h-.29a.7.7,0,0,0-.7.69v3.84a.7.7,0,0,0,.7.7h.29c2,0,2.71-.7,2.71-2.64S100.81,62.69,98.8,62.69Z"/><path class="cls-1" d="M116.73,76.71a.68.68,0,0,1-.7.67h-6.38a.7.7,0,0,1-.7-.67V60.94a.81.81,0,0,1,.7-.7H116c.46,0,.67.24.67.7V62a.6.6,0,0,1-.65.67h-3.76c-.48,0-.7.33-.7.79v3a.67.67,0,0,0,.7.68h3.19a.63.63,0,0,1,.67.69V69a.69.69,0,0,1-.67.68h-3.22a.68.68,0,0,0-.65.71v3.89a.62.62,0,0,0,.65.7H116a.76.76,0,0,1,.7.72Z"/><path class="cls-1" d="M12.94,92.9H11a.7.7,0,0,0-.7.7v13.11a.71.71,0,0,1-.7.67H8.31a.68.68,0,0,1-.67-.67V93.58a.8.8,0,0,0-.7-.68H5a.71.71,0,0,1-.68-.69v-1.3A.71.71,0,0,1,5,90.24h7.94a.66.66,0,0,1,.67.67v1.32A.65.65,0,0,1,12.94,92.9Z"/><path class="cls-1" d="M25.44,107.38H24.17a.77.77,0,0,1-.81-.7l-.48-2.33a.86.86,0,0,0-.84-.72H19.76a.93.93,0,0,0-.8.72l-.45,2.36a.83.83,0,0,1-.82.67H16.44a.53.53,0,0,1-.52-.7l3-15.79a.73.73,0,0,1,.8-.65H22a.78.78,0,0,1,.84.7L26,106.68A.56.56,0,0,1,25.44,107.38ZM21,94.27c-.05-.17-.24-.21-.27,0l-1.12,6.28c-.1.41.21.63.6.63H21.6c.44,0,.65-.22.58-.67Z"/><path class="cls-1" d="M39.44,107.38H37.9a.88.88,0,0,1-.94-.7l-2.4-6.7c0-.16-.31-.24-.5-.24-.41,0-1.18,1-1.18,2.69v4.28a.67.67,0,0,1-.69.67H30.92a.69.69,0,0,1-.68-.67V90.91a.69.69,0,0,1,.68-.67h1.27a.66.66,0,0,1,.69.7v5.73c0,.27.24.24.36,0l3.1-5.73a1.15,1.15,0,0,1,1.08-.7h1.46c.41,0,.46.41.29.7l-2.81,4.84a1.38,1.38,0,0,0-.16,1.35l3.64,9.55C40,107,39.82,107.38,39.44,107.38Z"/><path class="cls-1" d="M51.75,106.71a.68.68,0,0,1-.7.67H44.67a.7.7,0,0,1-.7-.67V90.94a.81.81,0,0,1,.7-.7h6.38c.46,0,.67.24.67.7V92a.6.6,0,0,1-.64.67H47.31c-.48,0-.7.33-.7.79v3a.67.67,0,0,0,.7.68H50.5a.63.63,0,0,1,.67.69V99a.69.69,0,0,1-.67.68H47.28a.68.68,0,0,0-.65.71v3.89a.62.62,0,0,0,.65.7h3.77a.76.76,0,0,1,.7.72Z"/><path class="cls-1" d="M71.55,106a4.44,4.44,0,0,1-3.72,1.65,4.37,4.37,0,0,1-3.7-1.65,6.4,6.4,0,0,1-1-4.06V95.71a6.46,6.46,0,0,1,1-4.08A4.3,4.3,0,0,1,67.83,90a4.45,4.45,0,0,1,3.72,1.63,6.66,6.66,0,0,1,1,4.08v6.22A6.46,6.46,0,0,1,71.55,106ZM69.84,95.76c0-2.45-.53-3.29-2-3.29s-2,.84-2,3.29v6.14c0,2.43.48,3.27,2,3.27s2-.84,2-3.27Z"/><path class="cls-1" d="M83.43,106.71a.77.77,0,0,1-.82.67h-1.9a.8.8,0,0,1-.84-.7L76.49,90.94c-.07-.39.1-.7.5-.7h1.37a.87.87,0,0,1,.87.7l2.3,11.69c0,.21.19.19.24,0l2-11.66a.84.84,0,0,1,.79-.7h1.32a.54.54,0,0,1,.58.7Z"/><path class="cls-1" d="M98.5,106.71a.68.68,0,0,1-.7.67H91.42a.7.7,0,0,1-.7-.67V90.94a.82.82,0,0,1,.7-.7H97.8c.46,0,.67.24.67.7V92a.6.6,0,0,1-.64.67H94.06c-.48,0-.7.33-.7.79v3a.67.67,0,0,0,.7.68h3.19a.63.63,0,0,1,.67.69V99a.69.69,0,0,1-.67.68H94a.67.67,0,0,0-.64.71v3.89a.62.62,0,0,0,.64.7H97.8a.76.76,0,0,1,.7.72Z"/><path class="cls-1" d="M111.67,107.38h-1.41a.86.86,0,0,1-.91-.7L107.52,101c-.17-.48-.36-.67-.89-.67h-.24a.6.6,0,0,0-.69.67v5.67a.66.66,0,0,1-.67.67h-1.32a.62.62,0,0,1-.65-.67V90.94a.71.71,0,0,1,.67-.7h3.5c3.2,0,4.9,1.7,4.9,4.9a4.76,4.76,0,0,1-1.75,4.15c-.41.29-.51.45-.39.86l2.14,6.53A.5.5,0,0,1,111.67,107.38Zm-5-14.69h-.29a.69.69,0,0,0-.69.69v3.84a.69.69,0,0,0,.69.7h.29c2,0,2.71-.7,2.71-2.64S108.7,92.69,106.68,92.69Z"/><path class="cls-1" d="M19.78,122.9H17.84a.7.7,0,0,0-.7.7v13.11a.71.71,0,0,1-.7.67H15.15a.68.68,0,0,1-.67-.67V123.58a.8.8,0,0,0-.7-.68H11.84a.71.71,0,0,1-.68-.69v-1.3a.71.71,0,0,1,.68-.67h7.94a.66.66,0,0,1,.67.67v1.32A.65.65,0,0,1,19.78,122.9Z"/><path class="cls-1" d="M32.91,137.38h-1.3a.75.75,0,0,1-.67-.67v-6.15a.75.75,0,0,0-.7-.72h-2.4a.73.73,0,0,0-.67.74v6.13a.79.79,0,0,1-.69.67H25.2a.75.75,0,0,1-.67-.67V120.94a.71.71,0,0,1,.67-.7h1.28a.79.79,0,0,1,.69.7v5.73a.75.75,0,0,0,.67.7h2.4a.87.87,0,0,0,.7-.7v-5.73a.77.77,0,0,1,.67-.7h1.32a.78.78,0,0,1,.67.67v15.8A.84.84,0,0,1,32.91,137.38Z"/><path class="cls-1" d="M46.66,136.71a.68.68,0,0,1-.7.67H39.58a.7.7,0,0,1-.7-.67V120.94a.82.82,0,0,1,.7-.7H46a.61.61,0,0,1,.68.7V122a.6.6,0,0,1-.65.67H42.22c-.48,0-.7.33-.7.79v3a.67.67,0,0,0,.7.68h3.19a.63.63,0,0,1,.67.69V129a.69.69,0,0,1-.67.68H42.19a.67.67,0,0,0-.64.71v3.89a.62.62,0,0,0,.64.7H46a.76.76,0,0,1,.7.72Z"/><path class="cls-1" d="M66.91,137.38H65.5a.86.86,0,0,1-.91-.7L62.76,131c-.17-.48-.36-.67-.89-.67h-.24a.6.6,0,0,0-.69.67v5.67a.66.66,0,0,1-.67.67H59a.62.62,0,0,1-.65-.67V120.94a.71.71,0,0,1,.67-.7h3.5c3.2,0,4.9,1.7,4.9,4.9a4.74,4.74,0,0,1-1.75,4.15c-.41.29-.51.45-.39.86l2.14,6.53A.5.5,0,0,1,66.91,137.38Zm-5-14.69h-.29a.69.69,0,0,0-.69.69v3.84a.69.69,0,0,0,.69.7h.29c2,0,2.71-.7,2.71-2.64S63.94,122.69,61.92,122.69Z"/><path class="cls-1" d="M79.85,136.71a.68.68,0,0,1-.7.67H72.77a.7.7,0,0,1-.7-.67V120.94a.82.82,0,0,1,.7-.7h6.38a.61.61,0,0,1,.68.7V122a.6.6,0,0,1-.65.67H75.41c-.48,0-.7.33-.7.79v3a.67.67,0,0,0,.7.68H78.6a.63.63,0,0,1,.67.69V129a.69.69,0,0,1-.67.68H75.39a.67.67,0,0,0-.65.71v3.89a.62.62,0,0,0,.65.7h3.76a.76.76,0,0,1,.7.72Z"/><path class="cls-1" d="M88.68,137.64a4.84,4.84,0,0,1-5.11-4.34.72.72,0,0,1,.62-.67l1-.29a2.42,2.42,0,0,1,.48-.1c.27,0,.44.15.53.55.41,1.56,1.3,2.38,2.52,2.38a1.86,1.86,0,0,0,1.95-1.94c0-1.08-.53-1.78-2.52-3.37l-1.73-1.36a5.4,5.4,0,0,1-2.4-4.3,4.16,4.16,0,0,1,4.49-4.2,4.75,4.75,0,0,1,4.65,3.84.65.65,0,0,1-.53.62l-1.2.36a1,1,0,0,1-.28.05c-.29,0-.46-.17-.58-.53-.43-1.24-1.13-1.87-2.09-1.87a1.67,1.67,0,0,0-1.7,1.73c0,.94.5,1.7,1.77,2.71l1.18.94c1.92,1.51,3.7,2.71,3.7,5.45C93.39,135.89,91.49,137.64,88.68,137.64Z"/><path class="cls-1" d="M105.24,122.9H103.3a.7.7,0,0,0-.7.7v13.11a.7.7,0,0,1-.69.67h-1.3a.68.68,0,0,1-.67-.67V123.58a.8.8,0,0,0-.7-.68H97.3a.7.7,0,0,1-.67-.69v-1.3a.7.7,0,0,1,.67-.67h7.94a.65.65,0,0,1,.67.67v1.32A.65.65,0,0,1,105.24,122.9Z"/></g></g></svg>