<?xml version="1.0" encoding="utf-8"?>
<!-- Generator: Adobe Illustrator 23.0.0, SVG Export Plug-In . SVG Version: 6.00 Build 0)  -->
<svg version="1.1" id="Layer_1" xmlns="http://www.w3.org/2000/svg" xmlns:xlink="http://www.w3.org/1999/xlink" x="0px" y="0px"
	 viewBox="0 0 300 250" style="enable-background:new 0 0 300 250;" xml:space="preserve">
<style type="text/css">
	.st0{fill:#060866;}
	.st1{fill:#01AD02;}
	.st2{fill:#00EB00;}
	.st3{fill:#0085AF;}
	.st4{fill:#FFFFFF;}
	.st5{fill:#EDDB00;}
</style>
<g>
	<g>
		<g>
			<path class="st0" d="M158.53,215.3c2.29,0,3.65-0.79,4.97-1.76l-1.34-2.41c-0.96,0.74-1.97,1.34-3.63,1.34
				c-2.59,0-4.39-1.72-4.39-4.25s1.81-4.3,4.39-4.3c1.65,0,2.77,0.68,3.62,1.34l1.34-2.36c-1.31-0.96-2.68-1.76-4.97-1.76
				c-4.94,0-7.53,3.56-7.53,7.08C151,211.74,153.59,215.3,158.53,215.3z"/>
			<path class="st0" d="M201.14,207.03l-1.44-0.5c-1.26-0.43-1.52-1.14-1.52-1.56c0-1.12,1.05-1.43,1.69-1.43
				c1.02,0,1.76,0.67,2.22,1.75h0l2.44-1.21l-0.03-0.06c-0.81-1.94-2.44-3.01-4.61-3.01c-2.78,0-4.65,1.62-4.65,4.03
				c0,1.33,0.54,2.93,3.44,3.92l1.47,0.5c1.34,0.47,1.72,1.17,1.72,1.61c0,1.3-1.12,1.54-2.05,1.51c-1.27-0.05-2.19-0.77-2.54-2.02
				l-0.02-0.07l-2.71,0.54l0.01,0.07c0.26,2.39,2.44,4.06,5.31,4.06c1.29,0,2.49-0.35,3.37-1c1.03-0.75,1.57-1.85,1.57-3.19
				C204.78,208.52,202.79,207.54,201.14,207.03z"/>
			<path class="st0" d="M223.95,204.74c-1.21-0.02-2.57,0.45-3.34,1.63c-0.46-1.03-1.19-1.63-2.42-1.63c-0.37,0-0.84,0.07-1.2,0.16
				v2.1c0.53-0.06,1.06,0.02,1.06,1.53v10.34h2.81v-5.02c0.52,0.75,1.45,1.31,3.11,1.31c2.37,0,4.81-1.89,4.81-5.14
				C228.78,206.78,226.43,204.79,223.95,204.74z M223.35,212.63c-1.52,0.01-2.55-1.19-2.55-2.69c-0.01-1.5,0.99-2.62,2.56-2.65
				c1.43-0.03,2.64,1.17,2.65,2.63C226.01,211.45,224.86,212.62,223.35,212.63z"/>
			<path class="st0" d="M240.1,210.72c-0.15,0-7.69,0-7.69,0s-0.02,2.03,2.67,2.03c2,0,2.69-0.99,2.69-0.99l1.65,1.55
				c0,0-1.5,1.86-4.38,1.86c-2.89,0-5.38-1.95-5.38-5.21s2.5-5.2,5.24-5.2c3.3,0,5.21,2.01,5.21,5.65L240.1,210.72z M232.45,208.9
				h4.88c0,0,0.02-1.87-2.37-1.87C232.57,207.04,232.45,208.9,232.45,208.9z"/>
			<path class="st0" d="M171.79,204.9h2.88c0,0,0,5.17,0,6.52c0,1.26,0.39,1.56,1.1,1.47v2.13c0,0-0.33,0.13-1.28,0.13
				c-1.03,0-2.17-0.51-2.46-1.67c-0.63,1.18-1.81,1.67-3.4,1.67c-2.44,0-4.98-1.88-4.98-5.16c0-3.19,2.42-5.25,4.84-5.25
				c1.77,0,2.61,0.52,3.28,1.51C171.77,206.09,171.79,204.9,171.79,204.9z M169.21,207.3c-1.56,0-2.72,1.23-2.72,2.64
				c0,1.53,1.18,2.66,2.68,2.66c1.43,0,2.75-0.99,2.75-2.62C171.92,208.26,170.58,207.3,169.21,207.3z"/>
			<path class="st0" d="M194.02,210.72c-0.15,0-7.68,0-7.68,0s-0.02,2.03,2.67,2.03c2,0,2.69-0.99,2.69-0.99l1.65,1.55
				c0,0-1.5,1.86-4.38,1.86c-2.89,0-5.38-1.95-5.38-5.21s2.5-5.2,5.24-5.2c3.3,0,5.21,2.01,5.21,5.65L194.02,210.72z M186.39,208.9
				h4.88c0,0,0.02-1.87-2.37-1.87C186.51,207.04,186.39,208.9,186.39,208.9z"/>
			<path class="st0" d="M215.34,211.43c0,1.26,0.39,1.56,1.1,1.47v2.13c0,0-0.33,0.13-1.28,0.13c-1.11,0-2.15-0.57-2.45-1.68
				c-0.51,0.98-1.56,1.68-3.23,1.68c-2.53,0-3.75-1.72-3.75-4.47s-0.02-5.79-0.02-5.79h2.84c0,0,0,4.29,0,5.55s0.52,2.19,1.9,2.19
				s2.05-0.96,2.05-2.31c0-1.34,0-5.44,0-5.44h2.84L215.34,211.43L215.34,211.43z"/>
		</g>
		<path class="st0" d="M244.54,209.35c0-1.74,1.92-2.46,3.46-1.85v-2.74c-1.62-0.1-2.77,0.22-3.71,1.61
			c-0.46-1.03-1.19-1.63-2.42-1.63c-0.37,0-0.84,0.07-1.2,0.16v2.1c0.53-0.06,1.06,0.02,1.06,1.53v6.46h2.81L244.54,209.35
			L244.54,209.35z"/>
		<path class="st0" d="M180.11,209.35c0-1.74,1.92-2.46,3.46-1.85v-2.74c-1.62-0.1-2.77,0.22-3.71,1.61
			c-0.46-1.03-1.19-1.63-2.42-1.63c-0.37,0-0.84,0.07-1.2,0.16v2.1c0.53-0.06,1.06,0.02,1.06,1.53v6.46h2.81L180.11,209.35
			L180.11,209.35z"/>
	</g>
	<g>
		<g>
			<path class="st1" d="M239.84,182.15l-3.42,4.85c0.54-0.19,1.12-0.3,1.73-0.3c2.84,0,5.15,2.31,5.15,5.15
				c0,2.84-2.31,5.15-5.15,5.15c-2.84,0-5.15-2.31-5.15-5.15l0,0l-3.42,4.85c1.69,2.98,4.9,5,8.57,5c5.44,0,9.85-4.41,9.85-9.85
				C248,186.99,244.48,182.95,239.84,182.15z"/>
		</g>
		<g>
			<path class="st2" d="M227.85,197c-2.84,0-5.15-2.31-5.15-5.15c0-2.84,2.31-5.15,5.15-5.15S233,189,233,191.85l3.42-4.85
				c-1.69-2.98-4.9-5-8.57-5c-5.44,0-9.85,4.41-9.85,9.85c0,4.86,3.52,8.9,8.16,9.7l3.42-4.85C229.04,196.9,228.46,197,227.85,197z"
				/>
		</g>
	</g>
	<g>
		<g>
			<rect x="258.46" y="182" class="st3" width="24.54" height="33"/>
			<g>
				<polygon class="st4" points="270.76,189.53 273.69,192.46 277.88,192.44 270.76,185.32 261.54,194.55 263.65,196.66 				"/>
				<polygon class="st5" points="277.89,192.45 270.76,199.57 267.87,196.67 263.66,196.67 270.76,203.78 279.99,194.55 				"/>
			</g>
		</g>
		<g>
			<path class="st4" d="M262.51,210.14c-0.71-0.18-0.85-0.21-0.85-0.43c0-0.24,0.23-0.32,0.43-0.32c0.3,0,0.54,0.09,0.56,0.43h0.61
				c0-0.66-0.55-0.91-1.14-0.91c-0.51,0-1.07,0.28-1.07,0.86c0,0.53,0.43,0.7,0.85,0.81c0.42,0.11,0.85,0.16,0.85,0.47
				c0,0.29-0.34,0.36-0.56,0.36c-0.34,0-0.63-0.15-0.63-0.53h-0.61c-0.01,0.7,0.58,1.01,1.21,1.01c0.77,0,1.18-0.39,1.18-0.91
				C263.36,210.32,262.72,210.19,262.51,210.14z"/>
			<path class="st4" d="M264.87,210.83c0,0.42-0.13,0.59-0.44,0.59c-0.26,0-0.36-0.17-0.36-0.51v-1.17h-0.56v1.27
				c0,0.51,0.15,0.85,0.75,0.85c0.24,0,0.49-0.11,0.63-0.34h0.01v0.29h0.54v-2.06h-0.56L264.87,210.83L264.87,210.83z"/>
			<path class="st4" d="M266.82,209.7c-0.25,0-0.48,0.1-0.61,0.32h-0.01v-0.26h-0.54v2.79h0.56v-0.98h0.01
				c0.14,0.2,0.37,0.31,0.62,0.31c0.6,0,0.91-0.51,0.91-1.07C267.76,210.22,267.46,209.7,266.82,209.7z M266.7,211.45
				c-0.37,0-0.5-0.32-0.5-0.66s0.12-0.66,0.49-0.66c0.36,0,0.5,0.34,0.5,0.66C267.19,211.12,267.07,211.45,266.7,211.45z"/>
			<path class="st4" d="M268.91,209.7c-0.62,0-1.05,0.47-1.05,1.09c0,0.64,0.4,1.08,1.05,1.08c0.46,0,0.81-0.21,0.96-0.69h-0.5
				c-0.04,0.13-0.22,0.27-0.45,0.27c-0.31,0-0.49-0.16-0.51-0.52h1.49C269.95,210.29,269.61,209.7,268.91,209.7z M268.42,210.56
				c0.01-0.16,0.11-0.44,0.47-0.44c0.27,0,0.4,0.15,0.45,0.44H268.42z"/>
			<path class="st4" d="M270.59,210.13L270.59,210.13l-0.01-0.38h-0.54v2.06h0.56v-0.93c0-0.36,0.15-0.66,0.56-0.66
				c0.07,0,0.2,0.03,0.25,0.04v-0.54c-0.04-0.01-0.13-0.03-0.17-0.03C270.97,209.7,270.69,209.87,270.59,210.13z"/>
			<polygon class="st4" points="272.18,209.47 273.46,209.47 273.46,208.94 271.54,208.94 271.54,211.83 272.18,211.83 
				272.18,210.63 273.47,210.63 273.47,210.14 272.18,210.14 			"/>
			<path class="st4" d="M275.08,210.83c0,0.42-0.13,0.6-0.45,0.6c-0.27,0-0.37-0.17-0.37-0.51v-1.18h-0.57v1.29
				c0,0.52,0.15,0.86,0.76,0.86c0.24,0,0.49-0.11,0.64-0.35h0.01v0.29h0.55v-2.09h-0.57L275.08,210.83L275.08,210.83z"/>
			<path class="st4" d="M277.09,209.68c-0.24,0-0.49,0.11-0.64,0.35h-0.01v-0.29h-0.55v2.09h0.57v-1.1c0-0.42,0.13-0.6,0.45-0.6
				c0.27,0,0.37,0.17,0.37,0.51v1.18h0.57v-1.29C277.86,210.02,277.7,209.68,277.09,209.68z"/>
			<path class="st4" d="M279.55,209.99L279.55,209.99c-0.14-0.2-0.38-0.31-0.63-0.31c-0.61,0-0.93,0.52-0.93,1.08
				c0,0.58,0.31,1.12,0.94,1.12c0.27,0,0.5-0.1,0.64-0.32h0.01v0.27h0.55v-2.89h-0.57L279.55,209.99L279.55,209.99z M279.08,211.45
				c-0.36,0-0.51-0.35-0.51-0.67c0-0.35,0.13-0.67,0.51-0.67c0.37,0,0.49,0.32,0.49,0.66C279.58,211.12,279.46,211.45,279.08,211.45
				z"/>
			<rect x="266.63" y="205.13" class="st4" width="0.62" height="2.84"/>
			<path class="st4" d="M268.04,206.89c0-0.42,0.13-0.59,0.44-0.59c0.26,0,0.36,0.17,0.36,0.51v1.17h0.56v-1.27
				c0-0.51-0.15-0.85-0.76-0.85c-0.24,0-0.49,0.11-0.63,0.34h-0.01v-0.28h-0.54v2.06h0.56L268.04,206.89L268.04,206.89z"/>
			<path class="st4" d="M271.11,207.71L271.11,207.71l0.01,0.26h0.54v-2.84h-0.56v1.04h0c-0.13-0.2-0.37-0.3-0.61-0.3
				c-0.61,0-0.91,0.51-0.91,1.07c0,0.57,0.3,1.11,0.92,1.11C270.74,208.03,270.97,207.94,271.11,207.71z M270.12,206.94
				c0-0.34,0.13-0.66,0.5-0.66s0.49,0.32,0.49,0.66c0,0.34-0.11,0.66-0.49,0.66C270.27,207.6,270.12,207.27,270.12,206.94z"/>
			<path class="st4" d="M272.57,208.03c0.24,0,0.49-0.11,0.63-0.34h0.01v0.29h0.54v-2.06h-0.56v1.08c0,0.42-0.13,0.59-0.44,0.59
				c-0.26,0-0.36-0.17-0.36-0.51v-1.17h-0.56v1.27C271.82,207.69,271.97,208.03,272.57,208.03z"/>
			<path class="st4" d="M275.12,206.73c-0.32-0.08-0.64-0.1-0.64-0.3c0-0.17,0.19-0.19,0.31-0.19c0.2,0,0.37,0.06,0.39,0.28h0.54
				c-0.05-0.51-0.46-0.66-0.91-0.66c-0.44,0-0.9,0.14-0.9,0.66c0,0.36,0.33,0.48,0.66,0.55c0.41,0.09,0.64,0.15,0.64,0.32
				c0,0.2-0.21,0.26-0.37,0.26c-0.22,0-0.43-0.1-0.43-0.35h-0.54c0.02,0.55,0.49,0.72,0.97,0.72c0.47,0,0.94-0.17,0.94-0.72
				C275.77,206.93,275.45,206.81,275.12,206.73z"/>
			<path class="st4" d="M276.1,207.51c0,0.41,0.3,0.49,0.65,0.49c0.11,0,0.24,0,0.33-0.02v-0.44c-0.06,0.01-0.11,0.02-0.18,0.02
				c-0.19,0-0.24-0.05-0.24-0.24v-1.02h0.41v-0.38h-0.41v-0.62h-0.56v0.62h-0.34v0.38h0.34L276.1,207.51L276.1,207.51z"/>
			<path class="st4" d="M278.49,206.4l0.54,1.45c0.06,0.16-0.05,0.39-0.3,0.41c-0.01,0-0.02,0-0.03,0v0.53h0.06
				c0.34-0.02,0.64-0.13,0.8-0.51l0.86-2.36h-0.59l-0.45,1.41h-0.01l-0.46-1.43l-0.62-0.01c-0.2,0-0.44,0.16-0.54,0.42h-0.01v-0.38
				h-0.54v2.06h0.56v-0.93c0-0.36,0.15-0.66,0.56-0.66C278.37,206.38,278.43,206.39,278.49,206.4z"/>
			<path class="st4" d="M261.91,207.35h1.07l0.21,0.64h0.65l-1.07-2.85h-0.64l-1.08,2.85h0.64L261.91,207.35z M262.45,205.83
				L262.45,205.83l0.37,1.05h-0.74L262.45,205.83z"/>
			<path class="st4" d="M264.42,206.9c0-0.42,0.13-0.59,0.44-0.59c0.26,0,0.36,0.17,0.36,0.51v1.17h0.57v-1.27
				c0-0.51-0.15-0.85-0.76-0.85c-0.24,0-0.49,0.11-0.63,0.34h-0.01v-0.29h-0.54v2.07h0.57L264.42,206.9L264.42,206.9z"/>
		</g>
	</g>
</g>
</svg>
