<?xml version="1.0" encoding="utf-8"?>
<!-- Generator: Adobe Illustrator 16.0.0, SVG Export Plug-In . SVG Version: 6.00 Build 0)  -->
<!DOCTYPE svg PUBLIC "-//W3C//DTD SVG 1.1//EN" "http://www.w3.org/Graphics/SVG/1.1/DTD/svg11.dtd">
<svg version="1.1" id="Layer_1" xmlns="http://www.w3.org/2000/svg" xmlns:xlink="http://www.w3.org/1999/xlink" x="0px" y="0px"
	 width="100.429px" height="157.552px" viewBox="0 0 100.429 157.552" enable-background="new 0 0 100.429 157.552"
	 xml:space="preserve">
<path fill="#FFF3E3" d="M77.796,65.479c-1.006-0.624-2.176-1.146-3.289-1.146c-1.594,0-3.129,1.06-3.607,1.394
	c-1.961,1.394-3.342,3.568-3.979,4.628v-5.521h-3.658v25.039h3.658V79.056c0-1.283,0-4.015,0.85-6.022
	c1.113-2.733,3.711-4.741,5.832-4.741c1.758,0,3.285,1.167,4.191,1.964v-4.776H77.796z M40.515,74.818
	c0.9-5.076,4.082-7.083,7.053-7.083c2.598,0,6.098,1.673,6.629,7.083H40.515z M57.962,76.713c0-7.306-4.615-12.38-10.502-12.38
	c-5.406,0-10.924,4.238-10.924,12.938c0,6.748,3.924,13.105,11.881,13.105c5.039,0,7.689-1.951,9.174-3.011v-3.903
	c-1.168,1.003-4.084,3.513-8.748,3.513c-4.563,0-8.541-3.346-8.541-9.369h17.66V76.713L57.962,76.713z M30.862,89.874h-3.66V64.835
	h3.66V89.874z M31.444,57.14c0,1.394-1.059,2.509-2.383,2.509c-1.326,0-2.387-1.115-2.387-2.509s1.061-2.509,2.387-2.509
	C30.386,54.63,31.444,55.746,31.444,57.14 M3.659,68.237h4.667c5.62,0,9.438,3.179,9.438,9.201c0,5.02-2.758,9.537-8.643,9.537
	c-2.706,0-4.615-1.115-5.463-1.617V68.237z M0,64.835v37.363h3.659V88.87c1.008,0.446,3.128,1.505,6.045,1.505
	c7.637,0,11.826-6.022,11.826-13.049c0-8.031-4.825-12.492-13.152-12.492L0,64.835L0,64.835z M88.489,96.155h0.615v3.795h2.52v0.561
	h-3.135V96.155z M83.226,100.511h3.387V99.95h-2.773v-1.41h2.633v-0.561h-2.633v-1.263h2.715v-0.562h-3.328V100.511z M79.433,96.717
	h-1.566v-0.562h3.748v0.562H80.05v3.794h-0.615v-3.794H79.433z M75.87,98.333c0,1.154-0.744,1.726-1.689,1.726
	s-1.688-0.573-1.688-1.726s0.742-1.727,1.688-1.727S75.87,97.181,75.87,98.333 M71.876,98.333c0,1.116,0.639,2.287,2.305,2.287
	c1.664,0,2.303-1.171,2.303-2.287c0-1.118-0.639-2.288-2.303-2.288C72.515,96.045,71.876,97.216,71.876,98.333 M69.438,98.461h-2.82
	v2.05h-0.613v-4.356h0.613V97.9h2.82v-1.746h0.615v4.356h-0.615V98.461z M59.116,100.511h0.615v-3.794h1.566v-0.562H57.55v0.562
	h1.566V100.511L59.116,100.511z M52.54,97.046h-0.01v3.467h-0.615v-4.356h0.713l2.664,3.464h0.012v-3.464h0.615v4.356h-0.715
	L52.54,97.046z M46.651,100.511h3.387V99.95h-2.773v-1.41h2.635v-0.561h-2.635v-1.263h2.715v-0.562h-3.328V100.511z M43.747,96.155
	h0.854v4.356h-0.615V96.9h-0.01l-1.613,3.611h-0.547l-1.607-3.539h-0.01v3.539h-0.617v-4.356h0.867l1.641,3.611L43.747,96.155z
	 M35.792,100.511h0.613v-3.794h1.564v-0.562h-3.746v0.562h1.568V100.511L35.792,100.511z M31.462,98.101
	c0.602,0,0.746-0.384,0.746-0.688c0-0.415-0.236-0.696-0.73-0.696h-1.732v1.384H31.462L31.462,98.101z M29.128,96.155h2.564
	c0.828,0,1.131,0.605,1.131,1.159c0,0.531-0.244,0.923-0.695,1.074V98.4c0.363,0.054,0.578,0.414,0.604,0.928
	c0.033,0.811,0.057,1.012,0.197,1.183h-0.65c-0.1-0.123-0.1-0.305-0.129-0.831c-0.041-0.781-0.289-1.018-0.801-1.018h-1.607v1.848
	h-0.613V96.155L29.128,96.155z M26.068,98.681h-1.571l0.777-1.927L26.068,98.681z M26.823,100.511h0.701l-1.873-4.356h-0.703
	l-1.873,4.356h0.662l0.526-1.269h2.032L26.823,100.511z M20.316,98.206c0.608,0,0.812-0.349,0.812-0.788
	c0-0.414-0.23-0.701-0.7-0.701h-1.591v1.488H20.316L20.316,98.206z M18.224,96.155h2.135c0.909,0,1.386,0.439,1.386,1.251
	c0,0.817-0.477,1.36-1.346,1.36h-1.562v1.746h-0.613V96.155z M15.163,98.681h-1.572l0.777-1.927L15.163,98.681z M15.917,100.511
	h0.703l-1.875-4.356h-0.702l-1.874,4.356h0.662l0.527-1.269h2.03L15.917,100.511z M97.44,58.06h-0.07l-3.973,2.256L92.8,57.837
	l4.994-2.81h2.635v24.035H97.44V58.06z M91.534,79.062v-2.699H81.302v-0.074l1.793-1.774c4.818-4.881,7.875-8.468,7.875-12.905
	c0-3.438-2.074-6.988-6.994-6.988c-2.604,0-4.891,1.072-6.436,2.44l0.984,2.292c1.055-0.925,2.777-2.035,4.854-2.035
	c3.41,0,4.5,2.256,4.5,4.696c0,3.624-2.672,6.73-8.51,12.572l-2.426,2.478v1.997H91.534z"/>
<g>
	<path fill="#FFF3E3" d="M65.045,42.08c0,0-7.635,5.872-19.935,2.417c-10.361-2.909-17.035-1.387-19.321-0.649v-0.223
		c2.166-1.225,8.181-3.924,16.513-1.975C52.857,44.122,58.885,44.069,65.045,42.08"/>
	<path fill="#FFF3E3" d="M47.323,3.599c0,0,5.21,12.46-1.496,27.818c0,0,9.017-0.858,14.634,2.309
		C60.461,33.726,59.51,16.702,47.323,3.599"/>
	<path fill="#FFF3E3" d="M33.776,39.528c0,0,4.53-4.35,12.233-2.04c7.702,2.308,13.184,1.664,15.131,0.267
		c0,0-4.801,4.888-14.315,2.041C46.825,39.794,41.207,36.789,33.776,39.528"/>
	<path fill="#FFF3E3" d="M46.834,6.323C47.006,2.464,47.188,0,47.188,0C34.049,14.018,34.186,33.135,34.186,33.135l12.912,1.558
		c-0.049-0.584-0.086-1.178-0.129-1.768c-1.561,0.008-2.59,0.103-2.59,0.103c1.017-2.331,1.732-4.582,2.262-6.746
		c-0.204-6.72-0.068-13.278,0.121-18.174C46.307,6.27,45.873,5.21,45.873,5.21C46.213,5.575,46.512,5.953,46.834,6.323"/>
</g>
<path fill="#FFF3E3" d="M76.157,152.136c-0.045,0.061-0.084,0.084-0.119,0.074c-0.295,0.088-0.482,0.224-0.564,0.408l-0.02,0.203
	c0.252,0.293,0.457,0.475,0.611,0.541c0.012,0,0.068-0.029,0.166-0.086c0.1-0.057,0.189-0.078,0.275-0.063
	c-0.02-0.164,0.053-0.254,0.213-0.266c0.018-0.057,0.059-0.093,0.123-0.109C76.556,152.404,76.325,152.169,76.157,152.136
	 M80.747,142.46c-0.047-0.103-0.08-0.164-0.102-0.186l-0.08,0.056l-0.195-0.087c-0.131,0.088-0.264,0.152-0.393,0.195
	c-0.063,0.004-0.137,0.032-0.23,0.083c0.012,0.01,0.016,0.026,0.014,0.048c-0.002,0.012-0.014,0.03-0.043,0.054
	c-0.094,0.084-0.15,0.138-0.164,0.162c0.072,0.017,0.105,0.059,0.098,0.127c-0.139,0.255-0.215,0.461-0.232,0.618
	c-0.006,0.079-0.02,0.13-0.033,0.152c-0.707,1.667-1.133,2.538-1.277,2.614c0.057,0.053,0.098,0.084,0.121,0.092
	c-0.061,0.096-0.094,0.174-0.1,0.242c-0.006,0.033,0,0.063,0.008,0.083c-0.111,0.13-0.229,0.356-0.35,0.676
	c-0.287,0.745-0.42,1.022-0.402,0.831c-0.002,0.021,0.01,0.043,0.039,0.064s0.043,0.037,0.043,0.047
	c-0.037,0.004-0.096,0.119-0.176,0.348s-0.125,0.382-0.131,0.461c-0.02,0.18,0.068,0.285,0.262,0.316
	c0.223-0.451,0.381-0.791,0.48-1.021c-0.037-0.02-0.053-0.052-0.045-0.097c0.57-0.966,0.994-1.709,1.273-2.23
	c-0.035-0.031-0.027-0.087,0.016-0.168c0.078-0.14,0.145-0.301,0.201-0.482c0.152-0.277,0.338-0.638,0.557-1.076
	c0.111-0.23,0.205-0.355,0.279-0.371c-0.006-0.066,0.039-0.148,0.137-0.244c0.068-0.048,0.129-0.103,0.186-0.162
	c0.09-0.029,0.15-0.072,0.182-0.131l0.018-0.185c0.01-0.069,0.037-0.108,0.088-0.124c0.078-0.273,0.129-0.467,0.152-0.58
	C80.856,142.606,80.79,142.562,80.747,142.46 M71.378,152.587l0.004-0.035l0.076-0.038l0.016,0.033L71.378,152.587z M77.038,146.222
	c-0.184-0.255-0.32-0.379-0.408-0.373c-0.111,0.009-0.307,0.078-0.586,0.209s-0.443,0.237-0.488,0.318l-0.244,0.016
	c0.014,0.101,0.057,0.17,0.127,0.21c-0.014,0.023-0.055,0.104-0.117,0.241c-0.047,0.094-0.123,0.166-0.227,0.217
	c-0.207,0.305-0.432,0.516-0.68,0.633c-0.689,0.807-1.254,1.393-1.688,1.756c0.025-0.123,0.064-0.199,0.117-0.225l0.049-0.137
	c-0.033-0.031-0.047-0.058-0.045-0.08c0.004-0.033,0.049-0.059,0.137-0.077c-0.002-0.111,0.021-0.195,0.066-0.255
	c0.285-0.377,0.443-0.711,0.475-1.004c0.01-0.078-0.043-0.158-0.152-0.239c-0.107-0.083-0.207-0.119-0.293-0.113
	c-0.039,0.003-0.07,0.01-0.098,0.023l-0.166,0.011c-0.025,0.003-0.1,0.039-0.227,0.108c-0.125,0.071-0.197,0.106-0.223,0.108
	c-0.025,0.001-0.057-0.008-0.09-0.028l-0.057-0.014l-0.186,0.198c0-0.012,0.037,0.053,0.109,0.193l-0.02,0.184
	c-0.127,0.144-0.197,0.232-0.215,0.267c0.045,0.075,0.051,0.187,0.021,0.333c-0.027,0.146-0.086,0.229-0.176,0.246
	c0.018,0.088-0.021,0.225-0.115,0.409c-0.096,0.187-0.137,0.311-0.133,0.378c-0.189,0.293-0.303,0.462-0.332,0.508
	c-0.133,0.221-0.324,0.613-0.568,1.178c-0.215,0.505-0.41,0.893-0.586,1.16l-0.023,0.219c0.123,0.359,0.336,0.527,0.633,0.508
	c0.213-0.016,0.441-0.182,0.686-0.5c0.172-0.244,0.305-0.428,0.391-0.545c-0.039,0.002-0.074-0.012-0.107-0.043
	c0.307-0.434,0.525-0.762,0.66-0.983c0.047,0.02,0.111,0.009,0.189-0.03c-0.033-0.031-0.049-0.063-0.047-0.096
	c0.012-0.09,0.086-0.168,0.23-0.234c0.16-0.244,0.311-0.43,0.447-0.551l0.705-0.885c0.285-0.365,0.498-0.576,0.643-0.63
	c-0.051,0.003-0.094-0.01-0.127-0.042c0.299-0.254,0.529-0.454,0.695-0.6c-0.043,0.17-0.213,0.569-0.506,1.197
	c-0.297,0.629-0.449,0.992-0.459,1.094c0.004-0.033,0.012-0.006,0.027,0.082c0.02,0.043,0.002,0.111-0.059,0.204
	c-0.004,0.046-0.035,0.108-0.094,0.191l0.02,0.147c-0.002,0.023-0.016,0.059-0.045,0.105c-0.031,0.045-0.033,0.086-0.016,0.117
	c0,0.011,0.012,0.035,0.029,0.072c0.021,0.039,0.031,0.068,0.029,0.09c-0.012,0.113-0.066,0.261-0.158,0.446
	c0.107,0.171,0.143,0.53,0.111,1.079c0.01,0,0.066,0.096,0.162,0.289c0.098,0.193,0.156,0.301,0.18,0.322
	c0.078,0.096,0.152,0.146,0.227,0.152c0.105,0.047,0.164,0.082,0.174,0.104l0.17-0.012c0.199-0.259,0.303-0.405,0.305-0.439
	c0-0.012-0.047-0.062-0.143-0.149s-0.143-0.148-0.139-0.183c-0.008-0.289-0.055-0.464-0.148-0.524
	c0.07-0.095,0.113-0.214,0.129-0.36c0.008-0.068,0.008-0.16,0.002-0.275c-0.006-0.117-0.006-0.209,0.002-0.276
	c0.018-0.157,0.063-0.294,0.135-0.411c0.035-0.092,0.078-0.162,0.133-0.21c-0.072-0.028-0.117-0.053-0.141-0.073l0.018-0.169
	c0.078-0.038,0.146-0.083,0.199-0.131c-0.039-0.098-0.051-0.202-0.041-0.313c0.012-0.113,0.109-0.383,0.287-0.807
	c0.18-0.392,0.26-0.609,0.236-0.652c0.176-0.235,0.396-0.617,0.67-1.15c0.271-0.531,0.508-0.922,0.709-1.17L77.038,146.222z
	 M67.831,149.058c-0.023-0.012-0.063,0.01-0.117,0.057c-0.004,0.034,0.025,0.049,0.088,0.044c-0.078,0.139-0.139,0.249-0.182,0.331
	l-0.07-0.047c-0.016,0.035-0.016,0.072,0.006,0.109s0.031,0.062,0.031,0.072c-0.018,0.157-0.203,0.438-0.553,0.842
	c-0.41,0.463-0.643,0.747-0.703,0.852c0.002-0.012-0.023-0.015-0.072-0.012c-0.025,0.002-0.025,0.008-0.002,0.017
	c0.012,0.022,0.002,0.032-0.023,0.035c-0.023,0.001-0.041-0.009-0.051-0.03l-0.018-0.015c-0.029,0.036-0.043,0.075-0.047,0.12
	c-0.006,0.034,0.002,0.078,0.021,0.133c-0.143,0.076-0.264,0.146-0.355,0.209c0.012-0.002,0.014,0.037,0.006,0.115
	c-0.504,0.304-0.748,0.499-0.729,0.588c-0.027,0.001-0.051-0.009-0.072-0.029c-0.227,0.149-0.482,0.357-0.771,0.621
	c-0.137,0.012-0.199-0.023-0.193-0.102c0.051-0.482,0.678-1.318,1.877-2.507c1.119-1.104,1.791-1.669,2.018-1.696
	C67.866,148.904,67.837,149.001,67.831,149.058 M69.513,152.751c-0.027-0.032-0.047-0.048-0.061-0.047
	c-0.137,0.011-0.361,0.144-0.674,0.398c-0.023,0.002-0.049-0.002-0.07-0.012c-0.023-0.01-0.049-0.014-0.074-0.012
	c-0.305,0.078-0.434,0.114-0.381,0.111c-0.09,0.006-0.178-0.088-0.268-0.283c-0.094-0.193-0.117-0.314-0.074-0.363
	c-0.119-0.047-0.168-0.171-0.146-0.373l0.1-0.961c0.08-0.039,0.158-0.205,0.24-0.501c0.086-0.341,0.176-0.558,0.271-0.653
	c-0.057-0.041-0.084-0.084-0.08-0.129c0.148-0.111,0.229-0.223,0.24-0.335c-0.027,0.014-0.037,0.015-0.037,0.003
	c-0.023-0.01-0.008-0.043,0.047-0.104c0.09-0.149,0.152-0.265,0.188-0.346c0.406-0.582,0.623-0.885,0.652-0.91
	c0.01-0.223,0.092-0.361,0.246-0.416c-0.018-0.065-0.027-0.109-0.023-0.131c0.16-0.232,0.33-0.496,0.51-0.785
	c-0.047-0.018-0.09-0.032-0.127-0.041c0.082-0.061,0.127-0.092,0.141-0.093c-0.09-0.327-0.24-0.483-0.451-0.468
	c-0.025,0-0.061,0.004-0.104,0.006c-0.043,0.004-0.076,0.007-0.104,0.009c-0.109-0.003-0.197,0.003-0.262,0.019
	c-0.074,0.016-0.189,0.157-0.342,0.424c-0.195,0.359-0.318,0.568-0.361,0.627c0.09-0.027-0.01-0.033-0.297-0.012
	c0.014-0.002-0.016,0.045-0.088,0.139c-0.416,0.187-0.943,0.619-1.586,1.299c-0.744,0.609-1.613,1.523-2.605,2.74
	c-0.484,0.715-0.727,1.088-0.73,1.121l0.029,0.066c0.008,0.043,0.01,0.088,0.004,0.133c-0.018,0.057-0.061,0.121-0.129,0.193
	c0.041,0.186,0.139,0.369,0.293,0.547c0.176,0.222,0.35,0.328,0.523,0.314l0.207-0.014c0.035-0.003,0.174-0.069,0.41-0.195
	c0.35-0.271,0.678-0.556,0.982-0.855c0.135-0.133,0.291-0.232,0.457-0.299c0.078-0.139,0.248-0.328,0.514-0.563
	c0.268-0.236,0.422-0.4,0.471-0.494c0.055,0.053,0.088,0.09,0.1,0.109c-0.078,0.029-0.131,0.072-0.162,0.13
	c0.07,0.052,0.105,0.171,0.111,0.36c-0.014,0.146-0.025,0.291-0.027,0.436c-0.004,0.035,0.02,0.086,0.066,0.154
	c0.049,0.071,0.072,0.109,0.072,0.121c-0.016,0.135-0.027,0.191-0.039,0.17c-0.023,0.002,0.105,0.132,0.389,0.391
	c-0.041,0.025-0.07,0.066-0.088,0.123c0.031-0.057,0.072-0.088,0.121-0.092c0.029,0.057,0.043,0.118,0.035,0.188
	c0.088-0.017,0.188,0.069,0.289,0.257c0.012,0,0.033-0.014,0.061-0.037c0.027-0.024,0.053-0.038,0.076-0.041
	c0.039-0.002,0.104,0.045,0.191,0.139c0.025-0.002,0.193-0.081,0.506-0.236c0.25-0.118,0.441-0.232,0.574-0.341
	c0.148-0.222,0.271-0.403,0.375-0.544C69.571,152.798,69.54,152.783,69.513,152.751 M65.854,145.984
	c-0.139,0.01-0.813,0.922-2.027,2.736c-0.963,1.44-1.73,2.609-2.293,3.508c-0.064,0.004-0.109,0.018-0.139,0.042
	c-0.01,0.101-0.059,0.264-0.145,0.489c-0.025,0.004-0.053,0-0.084-0.01s-0.053-0.014-0.066-0.012
	c0.037-0.104,0.025-0.229-0.025-0.375c-0.055-0.147-0.086-0.242-0.094-0.286c0.055-0.071,0.082-0.195,0.074-0.374
	c-0.01-0.255-0.016-0.355-0.023-0.299c-0.004,0.033,0.037-0.109,0.119-0.426c0.084-0.318,0.141-0.557,0.17-0.715
	c0.055-0.293,0.1-0.554,0.135-0.778c0.047-0.315,0.139-0.606,0.277-0.872c-0.082-0.029-0.123-0.059-0.121-0.093
	c0.127-0.13,0.244-0.261,0.357-0.393c0.014-0.123-0.066-0.272-0.24-0.45c-0.172-0.178-0.326-0.262-0.465-0.252
	c-0.063,0.004-0.193,0.055-0.396,0.153s-0.33,0.171-0.387,0.219c-0.01,0.224-0.156,0.491-0.436,0.8
	c-0.334,0.357-0.584,0.625-0.752,0.805l-0.275,0.488c-0.152,0.277-0.299,0.443-0.441,0.498c0.029,0.088-0.018,0.219-0.135,0.395
	c-0.158,0.223-0.248,0.357-0.266,0.402c-0.012,0.002-0.045-0.023-0.102-0.074l0.098-0.945c0.025-0.234,0.086-0.4,0.182-0.497
	c-0.002-0.089,0.004-0.15,0.021-0.187l0.043-0.07c0.018-0.156-0.012-0.355-0.086-0.596c-0.1-0.338-0.256-0.499-0.469-0.484
	c-0.586,0.041-0.9,0.279-0.947,0.717c0-0.01,0.113,0.172,0.332,0.547c0.039,0.098,0.051,0.236,0.029,0.415
	c-0.014,0.146-0.074,0.313-0.182,0.499c0.082,0.061,0.117,0.131,0.107,0.209c-0.002,0.023-0.045,0.105-0.127,0.252
	c-0.086,0.146-0.127,0.229-0.129,0.251c-0.002,0.021,0.016,0.071,0.051,0.147s0.049,0.125,0.047,0.146
	c-0.02,0.203-0.117,0.41-0.287,0.623c0.07,0.072,0.117,0.164,0.137,0.273c-0.064,0.039-0.102,0.092-0.107,0.158
	c-0.004,0.033,0.008,0.061,0.037,0.08c0.029,0.021,0.043,0.037,0.041,0.047c-0.08,0.073-0.131,0.127-0.145,0.162
	c0.121,0.023,0.174,0.093,0.162,0.205c-0.006,0.057-0.055,0.121-0.15,0.193c0.1,0.105,0.158,0.219,0.17,0.341l-0.039,0.353
	c0.16,0.135,0.277,0.232,0.359,0.294c0.314-0.179,0.559-0.325,0.732-0.437c0-0.011,0.018-0.043,0.047-0.096
	c0.031-0.052,0.045-0.088,0.047-0.111c0.049-0.461,0.291-0.996,0.727-1.606c0.088-0.362,0.537-1.146,1.342-2.352
	c0.014-0.001,0.031-0.007,0.059-0.021c0.025-0.014,0.053-0.02,0.078-0.021c0.123-0.009,0.168,0.145,0.135,0.459
	c0,0.01-0.033,0.063-0.1,0.156c-0.064,0.094-0.096,0.18-0.09,0.258c0.059,0.008,0.088,0.033,0.082,0.077
	c-0.205,0.315-0.277,0.951-0.217,1.905c0.025,0.455,0.111,0.939,0.254,1.453c0.434,0.471,0.689,0.703,0.762,0.699
	c0.023-0.002,0.049-0.015,0.068-0.038c0.021-0.024,0.045-0.037,0.072-0.038c0.047-0.004,0.096,0.014,0.139,0.057
	c0.529-0.303,0.791-0.748,0.791-1.334c0.088-0.361,0.352-0.914,0.787-1.666l1.127-1.904l1.191-1.789
	c0.631-0.947,0.953-1.471,0.963-1.572C66.251,146.08,66.128,145.964,65.854,145.984 M56.64,146.947
	c-0.16-0.123-0.441-0.17-0.84-0.143c-0.025,0.002-0.047-0.014-0.068-0.045l-0.055-0.029c-0.434,0.254-0.707,0.384-0.82,0.392
	c-0.035,0.003-0.072-0.001-0.107-0.009c0.004,0.077-0.043,0.141-0.135,0.191c-0.094,0.085-0.238,0.249-0.43,0.49
	c-0.191,0.242-0.314,0.421-0.363,0.537c-0.043,0.168-0.086,0.34-0.127,0.509c0.035,0.009,0.059,0.024,0.068,0.046
	c-0.002,0.022-0.02,0.055-0.057,0.096c-0.035,0.041-0.053,0.074-0.055,0.097c-0.057,0.539,0.041,1.384,0.289,2.538
	c-0.053,0.148-0.072,0.283-0.063,0.406c0.033,0.521,0.053,0.876,0.057,1.065c-0.09,0.04-0.139,0.077-0.143,0.11
	c-0.008,0.079,0.027,0.148,0.109,0.21c-0.055,0.037-0.189,0.172-0.404,0.403c-0.219,0.233-0.393,0.355-0.531,0.364
	c-0.012,0.001-0.033-0.003-0.064-0.013c-0.029-0.009-0.051-0.014-0.063-0.012c-0.037,0.002-0.076,0.019-0.117,0.049
	c-0.039,0.031-0.066,0.047-0.08,0.049c-0.023,0-0.084-0.013-0.182-0.04c-0.338-0.088-0.588-0.159-0.754-0.215
	c-0.205-0.065-0.35-0.155-0.438-0.272c0.051-0.115,0.064-0.256,0.045-0.423c-0.031-0.178-0.051-0.282-0.061-0.315
	c0.012-0.102,0.09-0.246,0.23-0.438c0.201-0.26,0.322-0.426,0.359-0.496s0.094-0.107,0.17-0.113c0.104-0.176,0.188-0.315,0.25-0.42
	l-0.377-0.125c-0.227,0.015-0.555,0.255-0.986,0.721c-0.188,0.247-0.379,0.489-0.578,0.727c-0.008,0.067-0.008,0.185,0,0.352
	c0.004,0.188-0.01,0.329-0.043,0.42c-0.016,0.135,0.164,0.4,0.537,0.799c0.373,0.396,0.639,0.59,0.803,0.58
	c0.025-0.002,0.047-0.004,0.072-0.007c0.025-0.001,0.051-0.003,0.076-0.005c0.086-0.006,0.193,0.01,0.32,0.047
	c0.125,0.036,0.197,0.055,0.215,0.053c0.02-0.001,0.07,0,0.15,0.005s0.139,0.005,0.174,0.003c0.053-0.004,0.127-0.014,0.227-0.033
	c0.102-0.018,0.178-0.029,0.227-0.031c-0.049,0.002,0.129-0.055,0.537-0.172c0.77-0.478,1.18-0.975,1.234-1.492
	c0.01-0.088-0.004-0.305-0.043-0.648c-0.029-0.309-0.031-0.516-0.012-0.617c-0.148-0.826-0.197-1.463-0.15-1.912
	c0.002-0.022,0.041-0.093,0.115-0.209c-0.113-0.115-0.152-0.318-0.123-0.611c0.033-0.303,0.119-0.6,0.262-0.887
	c0.186-0.348,0.418-0.57,0.701-0.668c0.018,0.043,0.008,0.096-0.035,0.16c-0.045,0.066-0.068,0.102-0.068,0.113
	c-0.006,0.045,0.037,0.114,0.125,0.209c-0.025,0.147-0.039,0.254-0.033,0.32c0.037,0.01,0.115,0.039,0.232,0.092
	c0.117,0.055,0.189,0.08,0.215,0.078s0.051-0.013,0.078-0.03c0.023-0.019,0.053-0.029,0.084-0.032
	c0.031-0.002,0.082-0.021,0.158-0.062c0.07-0.038,0.109-0.06,0.115-0.066c0.008-0.006,0.063-0.116,0.166-0.329
	c0.102-0.213,0.164-0.414,0.184-0.605C56.862,147.304,56.8,147.069,56.64,146.947 M46.515,149.603
	c-0.117,0.125-0.174,0.215-0.168,0.27c-0.139,0.145-0.232,0.258-0.285,0.338c-0.053,0.082-0.211,0.244-0.479,0.485
	c-0.266,0.242-0.432,0.426-0.494,0.554c-0.955,0.635-1.557,1.051-1.801,1.246c0.199-0.482,0.512-0.961,0.93-1.437
	c0.211-0.239,0.604-0.616,1.178-1.136c0.598-0.387,1.025-0.629,1.281-0.726C46.688,149.343,46.634,149.477,46.515,149.603
	 M47.267,152.97c-0.074,0.004-0.164,0.038-0.262,0.102c-0.1,0.062-0.176,0.101-0.225,0.115c-0.727,0.541-1.234,0.85-1.529,0.927
	c-0.145,0.088-0.283,0.176-0.416,0.263c-0.012,0.002-0.033-0.003-0.063-0.012c-0.031-0.01-0.057-0.014-0.084-0.012
	c-0.127,0.043-0.248,0.079-0.363,0.109c-0.037,0.002-0.088,0-0.148-0.006c-0.061-0.008-0.111-0.01-0.148-0.008
	c-0.086,0.007-0.127-0.019-0.121-0.074l-0.197,0.113c-0.135-0.023-0.281-0.104-0.441-0.236c-0.156-0.133-0.23-0.256-0.219-0.369
	c0.008-0.068,0.295-0.328,0.859-0.779c1.16-0.905,2.035-1.586,2.629-2.039c0.488-0.637,0.809-0.988,0.963-1.055
	c-0.045-0.03-0.078-0.057-0.102-0.077c0.264-0.386,0.449-0.677,0.555-0.874c-0.039-0.221-0.064-0.385-0.076-0.498
	c-0.043-0.297-0.146-0.439-0.307-0.428c-0.025,0-0.063,0.013-0.115,0.033c-0.053,0.02-0.09,0.031-0.115,0.033
	s-0.115-0.031-0.268-0.1c-0.098,0.085-0.182,0.125-0.254,0.118c-0.584,0.253-1.006,0.449-1.27,0.591
	c-0.34,0.291-0.559,0.435-0.656,0.43c-0.09,0.029-0.318,0.252-0.684,0.668c-0.365,0.415-0.646,0.674-0.842,0.777
	c-0.318,0.436-0.486,0.664-0.5,0.688c-0.02,0.08-0.117,0.225-0.287,0.438s-0.242,0.374-0.217,0.483
	c-0.234,0.351-0.357,0.594-0.373,0.729l-0.037,0.353c-0.045,0.06-0.066,0.104-0.07,0.14c-0.002,0.022,0.031,0.064,0.098,0.127
	c-0.053,0.137-0.068,0.239-0.051,0.305c0.115,0.203,0.197,0.37,0.244,0.5c0.029,0.065,0.023,0.127-0.018,0.186
	c0.518,0.254,0.973,0.457,1.361,0.607c0.072,0.04,0.139,0.051,0.201,0.037c0.205-0.049,0.396-0.093,0.582-0.133
	c0.182-0.041,0.352-0.066,0.5-0.078c0.037-0.002,0.113-0.043,0.234-0.125c0.121-0.08,0.193-0.122,0.217-0.123
	c0.023-0.003,0.059,0.001,0.102,0.01c0.041,0.008,0.074,0.012,0.102,0.01c0.074-0.006,0.314-0.154,0.723-0.443
	c0.408-0.291,0.68-0.44,0.818-0.449c0.035-0.114,0.135-0.27,0.301-0.465c0.162-0.195,0.244-0.31,0.248-0.344
	C47.558,153.009,47.464,152.955,47.267,152.97 M38.397,151.349l0.006-0.051l0.074,0.012l-0.008,0.051L38.397,151.349z
	 M41.841,154.251l-0.166,0.012c-0.064,0.016-0.115,0.025-0.152,0.027c-0.002,0.035-0.234,0.176-0.693,0.425
	c-0.461,0.251-0.723,0.376-0.785,0.382c-0.086,0.006-0.148-0.002-0.184-0.021c-0.043,0.08-0.086,0.128-0.125,0.142
	c-0.033-0.031-0.064-0.045-0.088-0.043c-0.004,0.033-0.012,0.057-0.027,0.068c-0.023-0.01-0.045-0.014-0.07-0.012
	c-0.027,0.002-0.047,0.01-0.059,0.021l-0.041,0.035l-0.051-0.047c-0.025,0.002-0.064,0.014-0.115,0.035
	c-0.053,0.02-0.09,0.031-0.115,0.033c-0.377-0.188-0.563-0.318-0.561-0.396s0-0.156-0.004-0.234c-0.002-0.1,0.008-0.195,0.031-0.285
	c-0.061-0.019-0.109-0.039-0.145-0.057c0.023-0.103,0.031-0.176,0.023-0.221c-0.008-0.043-0.014-0.07-0.012-0.082
	c0.004-0.021,0.025-0.065,0.072-0.13c0.041-0.063,0.066-0.106,0.068-0.13l-0.066-0.078c-0.02-0.043,0-0.096,0.055-0.154
	c0.012-0.002,0.031,0.004,0.053,0.012l0.039-0.001c-0.045-0.054-0.078-0.097-0.1-0.128c0.016-0.014,0.051-0.02,0.113-0.025
	c-0.004-0.066-0.004-0.121,0-0.166c0.006-0.057,0.021-0.096,0.051-0.121c0.033,0.031,0.037,0.047,0.012,0.048
	c0.051-0.003,0.078-0.015,0.08-0.038c-0.004-0.078-0.004-0.145,0.002-0.201c0.008-0.066,0.02-0.118,0.035-0.152
	c0.531-1.42,0.896-2.336,1.086-2.752c-0.063,0.027-0.119,0.014-0.164-0.039c-0.084-0.105-0.234-0.205-0.447-0.303
	c-0.002,0.012-0.012,0.028-0.025,0.052c-0.021-0.032-0.037-0.059-0.047-0.08c-0.475,0.289-0.918,0.61-1.326,0.962
	c-0.217,0.182-0.582,0.531-1.094,1.047c-0.057-0.053-0.082-0.107-0.076-0.162c0.842-1.986,1.451-3.268,1.836-3.841
	c-0.014-0.021-0.016-0.054-0.012-0.1c0.012-0.079,0.092-0.294,0.254-0.645c0.16-0.352,0.324-0.728,0.492-1.128l0.047,0.045
	c0.221-0.65,0.369-0.973,0.455-0.969c0.012-0.1-0.01-0.137-0.061-0.111c-0.188-0.221-0.426-0.31-0.715-0.269
	c-0.055,0.06-0.105,0.098-0.143,0.11l-0.055,0.004c-0.012-0.01-0.031-0.015-0.057-0.012c-0.01,0-0.051,0.031-0.117,0.09l0.039,0.148
	c-0.119,0.075-0.186,0.182-0.201,0.314c-0.004,0.023,0.016,0.053,0.057,0.088c0.037,0.037,0.057,0.067,0.055,0.088
	c-0.006,0.057-0.039,0.141-0.1,0.25c-0.061,0.111-0.102,0.183-0.115,0.218c-0.186,0.591-0.502,1.345-0.941,2.257l-1.143,2.369
	c0.029,0.076,0.043,0.127,0.043,0.148c-0.113,0.119-0.295,0.506-0.549,1.158c-0.26,0.688-0.475,1.148-0.648,1.383
	c-0.094,0.654-0.371,1.287-0.83,1.898c0.068,0.049,0.109,0.087,0.119,0.107c-0.039,0.037-0.08,0.057-0.119,0.059
	c0.006,0.067-0.068,0.194-0.225,0.385c-0.002,0.033,0.1,0.118,0.309,0.254s0.338,0.201,0.385,0.199
	c0.102-0.009,0.225-0.065,0.371-0.168c0.146-0.105,0.199-0.201,0.16-0.287c0.24-0.396,0.412-0.755,0.52-1.074
	c0.277-0.398,0.477-0.686,0.592-0.86c-0.031-0.177,0.473-0.847,1.512-2.012l0.113-0.009c0.023-0.002,0.066-0.023,0.127-0.066
	c0.061-0.045,0.102-0.066,0.127-0.069l0.053,0.03l-0.016,0.152c-0.008,0.078-0.084,0.201-0.23,0.367
	c-0.047,0.192-0.098,0.391-0.158,0.597c-0.08,0.272-0.182,0.441-0.303,0.505c0.045,0.029,0.068,0.063,0.064,0.097
	c-0.004,0.044-0.035,0.092-0.088,0.14c-0.004,0.145-0.02,0.297-0.049,0.455c-0.053,0.271-0.078,0.402-0.078,0.389
	c-0.037,0.004-0.059,0.021-0.061,0.056c0.037,0.119,0.061,0.208,0.064,0.263c-0.031,0.036-0.053,0.065-0.064,0.088
	c0.025-0.001,0.059,0.024,0.102,0.076c-0.039,0.025-0.061,0.049-0.063,0.071c-0.008,0.179,0.078,0.39,0.248,0.636
	c-0.018,0.057,0.164,0.184,0.545,0.379c0.383,0.197,0.609,0.292,0.686,0.287c0.037-0.003,0.098-0.024,0.182-0.063
	c0.084-0.04,0.145-0.06,0.184-0.063c0.025-0.003,0.051,0.005,0.08,0.019c0.029,0.015,0.057,0.021,0.082,0.02
	c0.193-0.078,0.316-0.127,0.369-0.143c0.023-0.002,0.053,0.018,0.086,0.061l1.082-0.744c0.543-0.373,0.822-0.604,0.832-0.693
	C41.966,154.304,41.929,154.245,41.841,154.251 M60.591,119.018l-0.131,0.011L60.591,119.018z M35.212,150.937
	c-0.037,0.002-0.107,0.023-0.211,0.064s-0.16,0.063-0.172,0.063c-0.025,0.001-0.045-0.012-0.053-0.039
	c-0.01-0.026-0.027-0.04-0.053-0.039c-0.137,0.012-0.352,0.066-0.646,0.163c-0.295,0.1-0.48,0.149-0.555,0.155
	c-0.025,0.002-0.043-0.006-0.045-0.02c-0.004-0.018-0.018-0.025-0.043-0.023s-0.061,0.02-0.107,0.05s-0.076,0.047-0.09,0.047
	c-0.398,0.028-0.586,0.047-0.561,0.056c1.08-3.352,1.803-5.221,2.166-5.602c0.059-0.094,0.123-0.182,0.193-0.265
	c0.09-0.14,0.137-0.239,0.143-0.294c0.002-0.012-0.018-0.055-0.061-0.13c-0.041-0.075-0.059-0.141-0.053-0.197
	c-0.082-0.026-0.207-0.08-0.373-0.157c-0.084-0.039-0.197-0.053-0.348-0.043c-0.088,0.006-0.186,0.059-0.297,0.154
	c-0.109,0.098-0.213,0.16-0.314,0.189c-0.016,0.135-0.01,0.184,0.02,0.148c-0.049,0.127-0.094,0.23-0.125,0.311
	c0.098,0.016,0.148,0.057,0.154,0.123c-0.078,0.04-0.137,0.066-0.176,0.078l0.076,0.162c-0.066,0.038-0.1,0.086-0.109,0.143
	c-0.002,0.022,0.002,0.043,0.014,0.065c-0.17,0.658-0.307,1.142-0.412,1.45l-0.389,1.197c-0.199,0.627-0.369,1.058-0.504,1.289
	c-0.002,0.368-0.076,0.607-0.223,0.719c0.063-0.005,0.1-0.002,0.109,0.009c-0.082,0.072-0.127,0.138-0.131,0.192
	c-0.002,0.023,0.014,0.039,0.049,0.048l0.055,0.013c-0.092,0.04-0.146,0.149-0.164,0.329c-0.02,0.181-0.111,0.292-0.275,0.337
	c-0.246,0.096-0.346,0.141-0.295,0.138c-0.012,0-0.023-0.009-0.033-0.022c-0.012-0.016-0.029-0.023-0.055-0.021
	s-0.061,0.019-0.105,0.049c-0.047,0.031-0.084,0.042-0.105,0.033l-0.137,0.059c-0.207,0.07-0.34,0.125-0.408,0.162
	c-0.463,0.178-0.777,0.301-0.947,0.367c-0.232,0.096-0.357,0.227-0.375,0.395c-0.004,0.045,0.023,0.123,0.086,0.236
	c0.064,0.113,0.084,0.199,0.066,0.255l0.158-0.077c0.113,0.092,0.201,0.136,0.264,0.131c0.027-0.002,0.064-0.01,0.115-0.024
	c0.049-0.015,0.086-0.022,0.111-0.024c0.625-0.4,1.148-0.666,1.57-0.795c-0.076,0.35-0.166,0.552-0.27,0.604
	c-0.078,0.385-0.234,0.886-0.473,1.504c-0.016,0.023-0.053,0.205-0.111,0.544c-0.035,0.214-0.156,0.356-0.361,0.427
	c0.037-0.004,0.078,0.01,0.125,0.041l-0.01,0.102c-0.078,0.039-0.119,0.074-0.123,0.107c0.037-0.002,0.07,0.029,0.102,0.094
	c-0.096,0.085-0.143,0.16-0.135,0.227c0.023-0.002,0.063,0.013,0.115,0.043c0.053,0.029,0.092,0.043,0.117,0.043
	c0.152,0.066,0.23,0.105,0.229,0.117c0.037-0.002,0.102-0.021,0.189-0.056c0.092-0.034,0.156-0.052,0.191-0.055
	c0.096-0.085,0.178-0.146,0.244-0.185c0.002-0.1,0.01-0.189,0.016-0.27c-0.012-0.1-0.02-0.158-0.025-0.182
	c0.012-0.023,0.037-0.05,0.07-0.08c0.039-0.03,0.057-0.068,0.061-0.113c0.002-0.022-0.012-0.057-0.043-0.105
	c-0.031-0.048-0.045-0.11-0.035-0.189c0.033-0.314,0.174-0.787,0.428-1.418c0.25-0.63,0.398-1.092,0.441-1.385
	c0.145-0.088,0.328-0.195,0.553-0.322l0.037,0.014c0.021,0.02,0.045,0.031,0.07,0.028c-0.1,0.007,0.053-0.038,0.459-0.132
	c0.232-0.084,0.398-0.134,0.498-0.152c0.025-0.014,0.082-0.04,0.168-0.078c0.084-0.041,0.15-0.061,0.203-0.064l0.08,0.077
	c0.176-0.124,0.318-0.179,0.428-0.163c0.059-0.094,0.094-0.125,0.102-0.092c0.111-0.008,0.248-0.053,0.404-0.136
	c0.158-0.085,0.27-0.133,0.332-0.149c0.023-0.113,0.033-0.197,0.025-0.254C35.604,150.919,35.437,150.919,35.212,150.937
	 M21.065,156.106l0.004-0.034l0.078-0.039l0.016,0.032L21.065,156.106z M26.728,149.742c-0.186-0.256-0.32-0.381-0.406-0.375
	c-0.113,0.01-0.309,0.078-0.59,0.209c-0.279,0.131-0.441,0.237-0.486,0.318l-0.244,0.018c0.016,0.1,0.057,0.169,0.129,0.208
	c-0.016,0.024-0.057,0.104-0.119,0.243c-0.047,0.094-0.123,0.164-0.229,0.217c-0.203,0.304-0.432,0.514-0.678,0.632
	c-0.691,0.808-1.252,1.392-1.688,1.757c0.025-0.125,0.064-0.199,0.115-0.226l0.053-0.138c-0.033-0.031-0.049-0.057-0.049-0.079
	c0.006-0.034,0.051-0.06,0.139-0.076c0-0.111,0.023-0.196,0.064-0.256c0.289-0.377,0.447-0.711,0.477-1.003
	c0.01-0.078-0.043-0.158-0.15-0.24c-0.109-0.083-0.207-0.119-0.295-0.114c-0.037,0.003-0.068,0.011-0.096,0.024l-0.168,0.012
	c-0.025,0.002-0.1,0.037-0.225,0.106c-0.125,0.07-0.201,0.106-0.225,0.108c-0.025,0.002-0.055-0.008-0.09-0.027l-0.055-0.014
	l-0.188,0.196c0.002-0.011,0.037,0.054,0.109,0.194l-0.02,0.185c-0.125,0.144-0.197,0.231-0.213,0.267
	c0.041,0.074,0.047,0.186,0.02,0.332c-0.027,0.147-0.084,0.229-0.174,0.246c0.016,0.089-0.023,0.225-0.117,0.41
	s-0.139,0.311-0.133,0.377c-0.191,0.293-0.303,0.461-0.332,0.508c-0.133,0.221-0.322,0.613-0.568,1.177
	c-0.213,0.507-0.41,0.894-0.584,1.161l-0.023,0.219c0.121,0.359,0.332,0.528,0.633,0.508c0.213-0.016,0.439-0.182,0.684-0.5
	c0.174-0.246,0.305-0.428,0.391-0.545c-0.037,0.002-0.072-0.012-0.107-0.043c0.305-0.434,0.527-0.762,0.66-0.983
	c0.049,0.019,0.111,0.01,0.188-0.03c-0.033-0.03-0.047-0.063-0.043-0.098c0.01-0.09,0.086-0.166,0.227-0.232
	c0.164-0.246,0.313-0.429,0.449-0.55l0.705-0.886c0.287-0.364,0.5-0.576,0.641-0.631c-0.047,0.006-0.092-0.01-0.125-0.041
	c0.299-0.254,0.531-0.455,0.695-0.601c-0.043,0.171-0.213,0.569-0.508,1.198c-0.293,0.628-0.445,0.993-0.457,1.094
	c0.002-0.033,0.014-0.006,0.027,0.082c0.021,0.043,0,0.111-0.059,0.205c-0.004,0.045-0.037,0.107-0.094,0.189l0.021,0.148
	c-0.002,0.023-0.02,0.058-0.049,0.104s-0.033,0.086-0.012,0.118c0,0.012,0.008,0.035,0.029,0.072
	c0.021,0.038,0.031,0.068,0.027,0.09c-0.014,0.113-0.064,0.262-0.156,0.445c0.104,0.172,0.141,0.531,0.107,1.08
	c0.014-0.002,0.066,0.096,0.164,0.289s0.156,0.302,0.182,0.322c0.074,0.096,0.15,0.146,0.225,0.152
	c0.105,0.047,0.162,0.084,0.176,0.104l0.166-0.012c0.201-0.26,0.303-0.406,0.305-0.439c0.002-0.012-0.043-0.062-0.141-0.15
	c-0.098-0.088-0.141-0.148-0.139-0.182c-0.006-0.289-0.055-0.464-0.148-0.525c0.072-0.094,0.115-0.214,0.129-0.359
	c0.01-0.067,0.01-0.16,0-0.275c-0.004-0.117-0.004-0.209,0.004-0.275c0.016-0.158,0.063-0.295,0.135-0.412
	c0.035-0.092,0.08-0.161,0.133-0.21c-0.07-0.028-0.115-0.053-0.139-0.074l0.016-0.169c0.08-0.037,0.145-0.081,0.199-0.129
	c-0.037-0.098-0.053-0.203-0.039-0.315c0.01-0.112,0.107-0.382,0.287-0.806c0.178-0.392,0.256-0.609,0.236-0.651
	c0.172-0.235,0.396-0.619,0.668-1.152c0.273-0.53,0.508-0.921,0.707-1.169L26.728,149.742z M19.202,153.017
	c-0.162,0.463-0.287,0.77-0.377,0.922c0.01,0.021,0.02,0.059,0.023,0.115c-0.021,0.213-0.305,0.685-0.852,1.413
	c-0.59,0.788-1.023,1.192-1.297,1.212l-0.225,0.015c-0.111-0.138-0.215-0.246-0.318-0.328c-0.152-0.413-0.219-0.755-0.189-1.024
	c0.01-0.078,0.109-0.318,0.299-0.723c0.193-0.403,0.322-0.652,0.395-0.747c-0.021-0.054-0.053-0.091-0.1-0.11
	c0.115-0.152,0.195-0.287,0.246-0.4c0.367-0.439,0.652-0.805,0.857-1.098c-0.031-0.055,0.088-0.215,0.357-0.484
	s0.469-0.426,0.598-0.469c0.096,0.026,0.191-0.02,0.293-0.137l0.086,0.061c0.115-0.03,0.191-0.075,0.236-0.135
	c0.063,0.107,0.119,0.165,0.166,0.174c-0.053,0.037-0.088,0.072-0.104,0.106c0,0.013,0.033,0.048,0.1,0.11
	c-0.006,0.068,0.004,0.168,0.033,0.299s0.045,0.221,0.039,0.266C19.45,152.232,19.36,152.554,19.202,153.017 M20.087,152.537
	l0.107-1.023c0.053-0.037,0.086-0.057,0.1-0.057c-0.287-0.582-0.475-0.912-0.564-0.994c-0.131-0.168-0.227-0.306-0.293-0.414
	c-0.141-0.057-0.23-0.083-0.266-0.08c-0.027,0.002-0.057,0.004-0.096,0.006l-0.096,0.008c-0.063,0.004-0.141,0.031-0.238,0.083
	c-0.102,0.052-0.156,0.077-0.168,0.079c-0.012,0.001-0.021,0.01-0.029,0.027c-0.008,0.016-0.025,0.026-0.051,0.028
	c-0.023,0.001-0.035-0.009-0.033-0.032c0.014-0.012,0.016-0.018,0.002-0.016c-0.037,0.002-0.09,0.027-0.156,0.077l-0.1,0.073
	l-0.02,0.186c-0.135-0.014-0.396,0.227-0.781,0.719c-0.27,0.342-0.566,0.729-0.883,1.16c-0.668,1.168-1.137,2.049-1.41,2.645
	c0.07,0.051,0.098,0.109,0.092,0.178c-0.02,0.212-0.088,0.416-0.193,0.613c0.047,0.019,0.07,0.12,0.07,0.303
	c-0.002,0.183,0.043,0.287,0.125,0.315c0.102,0.226,0.191,0.419,0.271,0.579c0,0.013-0.012,0.035-0.033,0.07
	c-0.023,0.035-0.035,0.064-0.037,0.086c0.156,0.022,0.262,0.109,0.307,0.262l0.148-0.011c0.051-0.004,0.176,0.021,0.373,0.073
	c0.199,0.054,0.342,0.076,0.428,0.071l0.037-0.003c0.004-0.012,0.016-0.018,0.041-0.019c0.125-0.009,0.441-0.257,0.951-0.745
	c0.51-0.486,0.814-0.813,0.918-0.975c0.234-0.229,0.395-0.396,0.48-0.502c0-0.134,0.055-0.281,0.156-0.445
	c0.016-0.001,0.031,0.01,0.055,0.029c0.057-0.192,0.135-0.314,0.242-0.367c-0.059-0.039-0.092-0.07-0.102-0.092l0.105-0.125
	c0.068-0.07,0.145-0.192,0.223-0.365c0.223-0.815,0.371-1.27,0.441-1.364C20.161,152.581,20.12,152.568,20.087,152.537
	 M88.19,123.735c0.047-0.103,0.072-0.16,0.074-0.172c-0.088,0.006-0.127-0.031-0.119-0.108c0.033-0.093,0.053-0.156,0.057-0.188
	c-0.088,0.006-0.215-0.012-0.385-0.057c-0.168-0.043-0.277-0.064-0.326-0.061l-0.189,0.014c-0.453,0.556-0.773,0.891-0.957,1.004
	c-0.43,0.921-0.91,2.008-1.438,3.261c0.01,0.022,0.014,0.042,0.012,0.067c-0.01,0.089-0.053,0.197-0.127,0.326
	c-0.08,0.162-0.129,0.271-0.146,0.328c-0.098-0.014-0.221,0.111-0.373,0.377c-0.848,0.752-1.414,1.242-1.695,1.474
	c-0.559,0.485-0.893,0.771-1,0.855c-0.072-0.027-0.105-0.064-0.1-0.11c0.016-0.157,0.104-0.291,0.264-0.403l-0.105-0.227
	c0.012-0.113,0.213-0.519,0.602-1.222c0.389-0.7,0.641-1.111,0.75-1.23c-0.045-0.03-0.08-0.056-0.102-0.076
	c0.068-0.061,0.109-0.102,0.125-0.127c0.004-0.033-0.008-0.083-0.031-0.148c-0.023-0.066-0.035-0.114-0.031-0.148
	c-0.266-0.184-0.428-0.288-0.486-0.319c-0.16,0.013-0.35,0.091-0.563,0.233c-0.213,0.144-0.338,0.282-0.377,0.419
	c0.111,0.104,0.164,0.185,0.158,0.24c-0.01,0.112-0.098,0.35-0.26,0.712c-0.162,0.361-0.283,0.569-0.361,0.618
	c-0.049,0.228-0.166,0.57-0.35,1.027l-0.297,0.707c-0.004,0.035,0.072,0.357,0.232,0.97c0.078-0.038,0.137-0.065,0.176-0.078
	c0.076,0.095,0.244,0.133,0.508,0.115c0.037-0.002,0.1-0.013,0.188-0.031c0.088-0.016,0.148-0.027,0.18-0.029
	c0.031-0.001,0.289-0.214,0.773-0.639c0.482-0.425,0.748-0.632,0.797-0.625c0.119-0.187,0.287-0.377,0.504-0.57
	c0.219-0.193,0.412-0.357,0.572-0.492c0.029,0.075,0.051,0.113,0.063,0.113l-0.209,0.749c-0.096,0.317-0.193,0.564-0.299,0.738
	c0.02,0.055,0.021,0.149,0.006,0.284c-0.051,0.503-0.289,1.276-0.705,2.319c-0.055,0.504-0.467,1.373-1.24,2.606
	c-0.355,0.447-0.631,0.773-0.826,0.976c-0.145,0.2-0.299,0.304-0.461,0.316c-0.063,0.127-0.18,0.246-0.354,0.358
	c-0.129,0.064-0.262,0.135-0.393,0.211c-0.307,0.088-0.512,0.158-0.615,0.209c-0.328,0.05-0.467,0.072-0.416,0.069
	c-0.037,0.003-0.076,0.031-0.121,0.086c-0.068-0.04-0.148-0.057-0.234-0.049l-0.412,0.029c0-0.012-0.135-0.064-0.411-0.157
	c-0.038,0.015-0.114-0.02-0.231-0.1c-0.036-0.01-0.092-0.03-0.17-0.064c-0.076-0.034-0.12-0.049-0.133-0.048
	c-0.024,0.001-0.051,0.008-0.076,0.021s-0.045,0.02-0.057,0.021c-0.101,0.007-0.354-0.134-0.764-0.424
	c-0.408-0.289-0.645-0.487-0.708-0.593c-0.09,0.029-0.153,0.049-0.191,0.064c-0.484-0.937-0.71-1.55-0.68-1.842
	c0.058-0.55,0.409-1.131,1.057-1.746c0.011-0.1-0.065-0.208-0.226-0.318c0.016,0.077-0.135,0.166-0.456,0.266
	c-0.259,0.107-0.487,0.278-0.685,0.515c-0.113,0.141-0.242,0.388-0.385,0.744s-0.223,0.622-0.242,0.8
	c-0.034,0.327,0.203,0.838,0.711,1.536c0.455,0.623,0.777,0.968,0.969,1.032c0.119,0.047,0.361,0.209,0.728,0.483
	c0.134,0.034,0.414,0.12,0.845,0.257c0.348,0.109,0.639,0.178,0.87,0.206c0.024,0.01,0.093,0.026,0.208,0.052
	c0.115,0.025,0.18,0.039,0.191,0.037c0.063-0.005,0.157-0.021,0.283-0.053c0.127-0.031,0.221-0.049,0.283-0.053
	c0.025-0.002,0.072,0.005,0.137,0.024c0.068,0.017,0.113,0.025,0.137,0.024c0.361-0.025,0.877-0.213,1.545-0.56
	c0.73-0.375,1.111-0.702,1.143-0.983l0.186-0.014c0.023-0.102,0.129-0.259,0.311-0.473c0.184-0.213,0.277-0.354,0.285-0.42
	c0.178-0.158,0.393-0.502,0.646-1.032c0.346-0.693,0.523-1.046,0.537-1.059c0.072-0.327,0.152-0.505,0.244-0.534
	c-0.021-0.044-0.029-0.087-0.023-0.132c0.389-1.22,0.639-1.956,0.752-2.21c-0.037-0.02-0.049-0.069-0.041-0.148
	c0.012-0.101,0.061-0.289,0.152-0.562c0.072-0.228,0.105-0.414,0.094-0.559c0.102-0.23,0.213-0.601,0.342-1.111
	c0.135-0.476,0.262-0.842,0.373-1.096c-0.021-0.243,0.709-1.331,2.199-3.265c-0.049,0.004-0.09-0.01-0.125-0.042
	c0.199-0.359,0.332-0.636,0.402-0.831c0.063-0.127,0.102-0.202,0.117-0.226C88.198,123.847,88.171,123.804,88.19,123.735
	 M80.466,125.01c-0.129-0.18-0.244-0.266-0.344-0.259c-0.025,0.002-0.035,0.002-0.027,0.002c0.006-0.001-0.004,0-0.029,0.002
	c-0.074,0.005-0.107-0.037-0.098-0.127l-0.227,0.036c-0.1,0.007-0.176,0.023-0.229,0.046l-0.049-0.047
	c-0.051,0.003-0.141,0.032-0.27,0.085c-0.129,0.055-0.219,0.083-0.27,0.086c-0.025,0.002-0.035-0.011-0.031-0.039
	c0.002-0.028-0.01-0.042-0.035-0.041c-0.025,0.001-0.084,0.034-0.178,0.097c-0.092,0.062-0.151,0.094-0.176,0.096
	c-0.026,0.002-0.056-0.01-0.09-0.036c-0.035-0.026-0.064-0.038-0.089-0.036c-0.025,0.001-0.079,0.039-0.159,0.111
	c-0.083,0.072-0.137,0.109-0.16,0.11c-0.025,0.003-0.043-0.015-0.051-0.055c-0.008-0.038-0.024-0.056-0.05-0.055
	c-0.05,0.004-0.098,0.045-0.143,0.128l-0.057,0.004l-0.094,0.006c-0.134,0.219-0.428,0.42-0.88,0.607
	c-0.024,0.001-0.067,0.015-0.125,0.042c-0.059,0.026-0.095,0.04-0.106,0.04c0.011,0.253-0.209,0.571-0.657,0.955
	c-0.049,0.004-0.064,0.027-0.044,0.069l0.255,0.576c0.102,0.225,0.226,0.332,0.375,0.322c0.023-0.002,0.037-0.009,0.039-0.02
	l0.019-0.001c0.063-0.004,0.153,0.023,0.271,0.081c0.107-0.085,0.193-0.141,0.26-0.168c-0.057-0.063-0.102-0.11-0.135-0.141
	c0.221-0.083,0.357-0.159,0.414-0.23c-0.011-0.01-0.035-0.109-0.071-0.295c-0.036-0.187-0.052-0.299-0.048-0.332
	c0.002-0.023,0.025-0.066,0.069-0.13s0.067-0.106,0.069-0.129l0.038-0.003c0.013,0.011,0.036,0.014,0.071,0.012
	c0.178-0.257,0.322-0.39,0.433-0.397c0.025-0.003,0.05,0.001,0.074,0.012c0.022,0.01,0.046,0.013,0.071,0.012
	c0.296-0.221,0.474-0.334,0.537-0.339c0.025-0.001,0.037,0.004,0.035,0.015c0,0.012,0.012,0.015,0.035,0.015
	c0.025-0.002,0.055-0.01,0.088-0.022c0.031-0.014,0.061-0.021,0.086-0.022c0.023-0.003,0.064-0.018,0.115-0.05
	c0.053-0.031,0.086-0.048,0.098-0.048c0.051-0.005,0.139,0.007,0.266,0.031c0.129,0.024,0.225,0.035,0.285,0.031
	c-0.006,0.057-0.004,0.131,0.004,0.225c0.01,0.095,0.014,0.158,0.01,0.191c-0.008,0.056-0.1,0.191-0.275,0.404
	c-0.176,0.213-0.299,0.338-0.363,0.376c0.016,0.077,0.004,0.139-0.039,0.187c-0.168,0.179-0.301,0.339-0.403,0.479
	c-0.694,0.952-1.498,2.011-2.413,3.179l-0.111,0.008c0.01-0.089-0.008,0.013-0.05,0.305l-0.032,0.302
	c-0.032,0.304,0.109,0.551,0.422,0.74l-0.129,0.009c0.174,0.11,0.336,0.159,0.485,0.15c0.038-0.003,0.087-0.01,0.149-0.02
	c0.064-0.012,0.111-0.018,0.143-0.02c0.03-0.002,0.068-0.011,0.113-0.022c0.045-0.014,0.074-0.021,0.086-0.021
	c0.025-0.002,0.035-0.003,0.027-0.002c-0.006,0,0.005,0,0.029-0.002c0.024-0.001,0.038-0.008,0.039-0.019
	c0-0.012,0.049-0.054,0.144-0.127c0.033,0.032,0.044,0.047,0.032,0.047c0.023-0.001,0.041-0.011,0.049-0.028
	c0.007-0.017,0.023-0.026,0.049-0.028c-0.025,0.001-0.002-0.028,0.064-0.088c0.038-0.002,0.068,0.001,0.094,0.011
	c0.004-0.056,0.027-0.102,0.068-0.139c0.012,0.021,0.028,0.032,0.055,0.03l1.379-0.949c0.039-0.002,0.057,0.002,0.055,0.013
	c0.143-0.188,0.264-0.286,0.365-0.293c0.006-0.067,0.051-0.129,0.129-0.185c0.082-0.056,0.121-0.09,0.123-0.101
	c0.014-0.125-0.041-0.182-0.166-0.172c-0.076,0.005-0.285,0.115-0.629,0.328l-0.52,0.317c-0.025,0.002-0.059-0.001-0.102-0.01
	c-0.043-0.008-0.076-0.012-0.101-0.01c-0.156,0.178-0.291,0.294-0.407,0.346l-0.051-0.047c-0.168,0.18-0.295,0.272-0.383,0.278
	c-0.024,0.002-0.033-0.003-0.025-0.015c0.006-0.012-0.003-0.016-0.027-0.015c-0.025,0.002-0.048,0.026-0.072,0.072
	c-0.022,0.046-0.047,0.07-0.072,0.071l-0.094,0.007c-0.025,0.001-0.034,0.009-0.029,0.019c0.004,0.011-0.005,0.017-0.029,0.019
	c-0.063,0.005-0.128-0.046-0.197-0.152c-0.07-0.106-0.102-0.187-0.096-0.243c0.013-0.124,0.122-0.274,0.326-0.455
	c-0.023-0.01-0.035-0.025-0.031-0.048c0.059-0.204,0.215-0.464,0.471-0.782c0.113-0.141,0.304-0.365,0.572-0.672
	c0.104-0.173,0.336-0.461,0.695-0.863c0.355-0.402,0.602-0.635,0.73-0.701c0.299-0.487,0.52-0.768,0.666-0.844
	c-0.035-0.043-0.049-0.091-0.043-0.147c0.004-0.035,0.016-0.074,0.033-0.119c0.035-0.114,0.105-0.19,0.209-0.231l0.02-0.184
	c0.014-0.124,0.041-0.275,0.084-0.456c0.043-0.047,0.066-0.082,0.068-0.104C80.655,125.323,80.595,125.189,80.466,125.01
	 M73.331,127.735c-0.023-0.01-0.063,0.009-0.117,0.059c-0.002,0.033,0.025,0.047,0.088,0.043c-0.076,0.139-0.137,0.249-0.183,0.331
	l-0.069-0.045c-0.017,0.035-0.014,0.071,0.006,0.107c0.021,0.039,0.031,0.063,0.029,0.073c-0.016,0.157-0.2,0.438-0.551,0.842
	c-0.408,0.464-0.643,0.748-0.702,0.852c0-0.011-0.024-0.015-0.073-0.012c-0.025,0.003-0.025,0.008-0.002,0.017
	c0.01,0.022,0.003,0.032-0.021,0.035c-0.026,0.001-0.043-0.008-0.053-0.03l-0.018-0.014c-0.028,0.035-0.044,0.074-0.05,0.12
	c-0.003,0.033,0.004,0.078,0.022,0.132c-0.145,0.076-0.262,0.147-0.355,0.209c0.012-0.002,0.015,0.038,0.007,0.116
	c-0.501,0.303-0.745,0.498-0.729,0.586c-0.025,0.001-0.049-0.008-0.072-0.029c-0.226,0.15-0.482,0.357-0.77,0.622
	c-0.139,0.01-0.202-0.024-0.194-0.102c0.05-0.483,0.677-1.319,1.878-2.506c1.118-1.104,1.791-1.669,2.016-1.696
	C73.366,127.581,73.337,127.679,73.331,127.735 M75.013,131.428c-0.027-0.031-0.047-0.047-0.061-0.045
	c-0.137,0.01-0.361,0.142-0.672,0.399c-0.025,0.001-0.051-0.003-0.074-0.012s-0.048-0.014-0.073-0.012
	c-0.305,0.077-0.433,0.114-0.382,0.111c-0.088,0.006-0.178-0.09-0.268-0.282c-0.092-0.195-0.115-0.316-0.072-0.363
	c-0.119-0.047-0.168-0.172-0.147-0.374l0.102-0.961c0.079-0.039,0.156-0.206,0.237-0.501c0.084-0.34,0.176-0.558,0.273-0.653
	c-0.057-0.041-0.084-0.084-0.078-0.129c0.146-0.11,0.227-0.223,0.237-0.334c-0.025,0.014-0.038,0.014-0.036,0.003
	c-0.023-0.01-0.008-0.044,0.049-0.104c0.09-0.15,0.15-0.265,0.183-0.345c0.408-0.584,0.626-0.887,0.653-0.911
	c0.012-0.222,0.094-0.36,0.248-0.417c-0.019-0.064-0.025-0.108-0.023-0.13c0.16-0.233,0.33-0.496,0.511-0.785
	c-0.048-0.018-0.091-0.033-0.127-0.041c0.079-0.061,0.128-0.093,0.139-0.094c-0.088-0.327-0.239-0.481-0.45-0.467
	c-0.025,0.001-0.061,0.004-0.104,0.007c-0.045,0.002-0.078,0.005-0.104,0.008c-0.11-0.004-0.199,0.002-0.262,0.017
	c-0.076,0.017-0.189,0.159-0.342,0.425c-0.199,0.36-0.318,0.569-0.363,0.627c0.091-0.028-0.008-0.033-0.294-0.012
	c0.012-0.001-0.019,0.044-0.09,0.139c-0.416,0.186-0.942,0.617-1.583,1.298c-0.746,0.61-1.615,1.523-2.609,2.741
	c-0.482,0.713-0.727,1.088-0.729,1.121l0.029,0.066c0.008,0.043,0.01,0.088,0.006,0.131c-0.02,0.058-0.063,0.123-0.133,0.193
	c0.043,0.188,0.141,0.37,0.295,0.548c0.175,0.222,0.35,0.328,0.523,0.315l0.207-0.015c0.037-0.002,0.173-0.069,0.408-0.196
	c0.352-0.27,0.679-0.555,0.982-0.854c0.138-0.132,0.29-0.232,0.457-0.299c0.076-0.14,0.248-0.328,0.516-0.563
	c0.264-0.237,0.421-0.4,0.468-0.492c0.056,0.051,0.089,0.088,0.101,0.108c-0.078,0.028-0.131,0.071-0.162,0.129
	c0.069,0.051,0.105,0.171,0.111,0.36c-0.016,0.146-0.025,0.292-0.028,0.437c-0.003,0.033,0.019,0.085,0.067,0.154
	c0.049,0.07,0.071,0.109,0.07,0.12c-0.014,0.135-0.025,0.192-0.037,0.17c-0.023,0.002,0.104,0.133,0.387,0.392
	c-0.039,0.025-0.068,0.066-0.088,0.124c0.031-0.059,0.072-0.09,0.122-0.093c0.03,0.056,0.042,0.118,0.036,0.188
	c0.088-0.018,0.185,0.068,0.289,0.257c0.011-0.001,0.032-0.015,0.059-0.038c0.027-0.025,0.054-0.038,0.078-0.04
	c0.038-0.002,0.102,0.043,0.189,0.137c0.025-0.001,0.194-0.08,0.508-0.235c0.248-0.118,0.438-0.232,0.574-0.341
	c0.146-0.222,0.271-0.405,0.371-0.545C75.073,131.476,75.04,131.46,75.013,131.428 M69.372,126.038
	c-0.018-0.076-0.036-0.117-0.061-0.121c-0.025-0.004-0.06-0.015-0.107-0.034c-0.047-0.019-0.084-0.027-0.109-0.026
	c-0.469,0.033-0.891,0.341-1.258,0.923l-0.862,1.7c-0.341,0.67-0.687,1.079-1.032,1.226c-0.003,0.023-0.006,0.051-0.01,0.084
	l-0.005,0.05c-0.054,0.038-0.099,0.058-0.136,0.06c-0.48,0.568-0.959,1.071-1.438,1.505c-0.397,0.363-0.651,0.547-0.765,0.556
	c-0.063,0.004-0.129-0.008-0.199-0.037c0.006-0.056-0.004-0.101-0.023-0.132c-0.021-0.031-0.032-0.053-0.031-0.065
	c0.02-0.179,0.672-1.445,1.959-3.799c0.119-0.074,0.201-0.141,0.243-0.2c-0.087,0.007-0.127-0.031-0.119-0.108
	c0.005-0.157,0.009-0.251,0.013-0.285c-0.114-0.093-0.208-0.136-0.284-0.131c-0.072-0.017-0.114-0.015-0.131,0.009
	c-0.028,0.036-0.055,0.06-0.081,0.072c-0.109-0.026-0.183-0.031-0.222-0.017c-0.144,0.088-0.308,0.166-0.487,0.234
	c-0.004,0.035-0.016,0.079-0.033,0.136c-0.019,0.058-0.031,0.103-0.033,0.136c-0.002,0.023,0.01,0.056,0.036,0.099
	s0.039,0.07,0.038,0.08c-0.064,0.028-0.113,0.07-0.144,0.129c0.081,0.061,0.116,0.129,0.108,0.209
	c-0.006,0.045-0.101,0.211-0.285,0.497s-0.295,0.437-0.334,0.45c-0.137,0.232-0.313,0.576-0.525,1.031
	c-0.217,0.456-0.379,0.744-0.49,0.863c0.047,0.018,0.068,0.056,0.063,0.112c-0.01,0.079-0.066,0.211-0.172,0.396
	c-0.105,0.186-0.162,0.301-0.166,0.346c-0.012,0.112,0.053,0.314,0.197,0.606c0.111,0.226,0.221,0.369,0.324,0.428
	c0.105,0.059,0.289,0.081,0.55,0.062c0.076-0.005,0.364-0.214,0.866-0.628c0.242-0.196,0.525-0.422,0.849-0.679
	c-0.003-0.088,0.069-0.187,0.218-0.299c0.024,0.009,0.122-0.07,0.295-0.239c0.171-0.169,0.29-0.266,0.355-0.292
	c0.031,0.053,0.037,0.169,0.018,0.35c-0.002,0.023-0.04,0.092-0.113,0.209c-0.076,0.117-0.111,0.181-0.113,0.191
	c0.007-0.067,0.025,0.043,0.059,0.331c0.004,0.179-0.037,0.281-0.127,0.31c0.121,0.27,0.205,0.471,0.253,0.601
	c0.163,0.334,0.405,0.49,0.731,0.468c0.199-0.015,0.482-0.151,0.849-0.411c0.368-0.26,0.561-0.475,0.579-0.643
	c0.018-0.168-0.029-0.248-0.142-0.24l-0.455,0.265c-0.304,0.178-0.487,0.285-0.554,0.324c-0.228-0.195-0.315-0.53-0.266-1.002
	c0.014-0.133,0.087-0.413,0.218-0.835c0.149-0.489,0.282-0.75,0.397-0.78c-0.016-0.21,0.087-0.535,0.306-0.974
	c0.19-0.393,0.383-0.696,0.579-0.91c-0.02-0.177,0.259-0.583,0.832-1.214c0.152-0.042,0.279-0.169,0.373-0.376
	c0.129-0.276,0.205-0.421,0.232-0.434C69.511,126.067,69.435,126.023,69.372,126.038 M63.24,128.039
	c-0.038,0.003-0.108,0.023-0.21,0.066c-0.104,0.04-0.162,0.061-0.174,0.062c-0.025,0.001-0.043-0.012-0.053-0.04
	c-0.009-0.027-0.026-0.04-0.052-0.038c-0.136,0.01-0.352,0.063-0.647,0.163c-0.295,0.099-0.48,0.15-0.555,0.157
	c-0.023,0.001-0.039-0.006-0.045-0.023c-0.004-0.015-0.018-0.022-0.043-0.021c-0.025,0.002-0.061,0.017-0.107,0.048
	c-0.047,0.032-0.076,0.047-0.088,0.049c-0.399,0.027-0.588,0.047-0.564,0.055c1.083-3.352,1.805-5.22,2.168-5.602
	c0.059-0.093,0.124-0.182,0.195-0.265c0.088-0.139,0.137-0.238,0.142-0.295c0.001-0.01-0.021-0.054-0.06-0.129
	c-0.043-0.074-0.061-0.14-0.055-0.196c-0.084-0.028-0.209-0.08-0.373-0.158c-0.082-0.038-0.199-0.052-0.348-0.042
	c-0.088,0.006-0.186,0.058-0.295,0.154c-0.109,0.098-0.215,0.16-0.318,0.189c-0.012,0.134-0.006,0.184,0.021,0.149
	c-0.049,0.126-0.092,0.229-0.123,0.31c0.096,0.015,0.147,0.056,0.153,0.122c-0.079,0.039-0.138,0.065-0.175,0.08l0.076,0.162
	c-0.067,0.039-0.104,0.085-0.109,0.142c-0.002,0.022,0.002,0.044,0.012,0.066c-0.168,0.659-0.306,1.142-0.411,1.451l-0.387,1.197
	c-0.202,0.628-0.37,1.057-0.507,1.29c-0.001,0.368-0.076,0.607-0.224,0.718c0.062-0.004,0.099-0.001,0.11,0.008
	c-0.082,0.073-0.127,0.137-0.131,0.194c-0.004,0.022,0.014,0.038,0.051,0.047l0.055,0.013c-0.093,0.04-0.147,0.149-0.165,0.33
	c-0.021,0.179-0.112,0.292-0.276,0.336c-0.245,0.096-0.344,0.141-0.293,0.138c-0.014,0-0.024-0.008-0.035-0.023
	c-0.011-0.016-0.027-0.023-0.054-0.021c-0.025,0.002-0.06,0.017-0.106,0.048c-0.047,0.032-0.084,0.044-0.106,0.033l-0.136,0.061
	c-0.207,0.07-0.342,0.124-0.406,0.162c-0.465,0.178-0.781,0.3-0.949,0.367c-0.232,0.095-0.357,0.226-0.375,0.395
	c-0.005,0.044,0.024,0.123,0.086,0.236c0.063,0.113,0.084,0.197,0.066,0.254l0.157-0.077c0.113,0.093,0.202,0.136,0.264,0.131
	c0.024-0.001,0.063-0.009,0.114-0.024c0.051-0.015,0.089-0.023,0.114-0.025c0.624-0.4,1.146-0.665,1.567-0.795
	c-0.073,0.351-0.162,0.553-0.268,0.605c-0.077,0.385-0.235,0.886-0.473,1.504c-0.016,0.024-0.053,0.204-0.113,0.544
	c-0.034,0.214-0.154,0.356-0.36,0.425c0.038-0.002,0.079,0.012,0.126,0.042l-0.012,0.1c-0.078,0.04-0.119,0.076-0.123,0.109
	c0.037-0.002,0.072,0.028,0.104,0.094c-0.097,0.084-0.143,0.16-0.137,0.226c0.025-0.001,0.064,0.013,0.116,0.043
	c0.054,0.03,0.091,0.042,0.116,0.042c0.154,0.067,0.23,0.105,0.229,0.118c0.037-0.002,0.101-0.021,0.19-0.055
	c0.092-0.035,0.154-0.053,0.193-0.055c0.095-0.085,0.175-0.147,0.24-0.186c0.005-0.1,0.01-0.189,0.018-0.268
	c-0.012-0.1-0.02-0.161-0.025-0.183c0.013-0.023,0.037-0.05,0.07-0.081c0.037-0.029,0.057-0.068,0.061-0.112
	c0.004-0.022-0.012-0.057-0.044-0.105s-0.044-0.111-0.036-0.19c0.033-0.314,0.177-0.786,0.428-1.417
	c0.252-0.631,0.398-1.092,0.443-1.385c0.145-0.088,0.33-0.196,0.554-0.323l0.036,0.014c0.021,0.021,0.045,0.031,0.07,0.03
	c-0.1,0.007,0.053-0.038,0.459-0.132c0.232-0.083,0.398-0.134,0.5-0.152c0.024-0.013,0.081-0.04,0.165-0.078
	c0.085-0.04,0.151-0.062,0.202-0.065l0.084,0.078c0.174-0.124,0.316-0.178,0.426-0.164c0.059-0.093,0.094-0.124,0.102-0.091
	c0.112-0.007,0.247-0.053,0.404-0.136c0.158-0.083,0.269-0.133,0.332-0.149c0.023-0.113,0.033-0.196,0.025-0.252
	C63.632,128.022,63.466,128.023,63.24,128.039 M56.753,129.729c-0.1,0.008-0.317,0.201-0.654,0.582
	c-0.338,0.381-0.539,0.589-0.604,0.627c-0.438,0.633-0.942,1.075-1.513,1.326c-0.029,0.047-0.152,0.151-0.367,0.311
	c-0.215,0.16-0.346,0.242-0.396,0.245l-0.075,0.006l-0.054-0.014c0.006,0.06-0.078,0.129-0.256,0.213
	c-0.175,0.083-0.299,0.126-0.374,0.132l-0.431,0.03c-0.162,0.011-0.285-0.053-0.369-0.192l-0.158-0.257
	c0.031-0.058,0.049-0.109,0.054-0.154c0.005-0.045-0.007-0.073-0.03-0.082c0.074-0.117,0.128-0.206,0.158-0.264l0.002-0.369
	c0.881-1.448,1.725-2.452,2.525-3.012c0.064-0.139,0.172-0.275,0.321-0.408c0.229-0.185,0.365-0.301,0.407-0.349
	c0.034,0.032,0.055,0.059,0.066,0.079c-0.008,0.068-0.064,0.145-0.173,0.23c0.046,0.03,0.067,0.068,0.063,0.113
	c-0.008,0.068-0.068,0.166-0.181,0.297c-0.041,0.046-0.105,0.19-0.192,0.431c-0.088,0.24-0.135,0.393-0.142,0.461
	c0.073,0.117,0.124,0.195,0.151,0.232c0.026,0.037,0.065,0.054,0.116,0.05c0.074-0.005,0.207-0.103,0.401-0.297
	c0.025-0.001,0.05,0.004,0.073,0.013l0.094-0.006c0.432-1.056,0.757-1.625,0.977-1.708c0.027-0.013,0.064-0.049,0.113-0.108
	c0.05-0.059,0.09-0.09,0.122-0.092c0.03-0.002,0.052-0.054,0.063-0.155l-0.12-0.093c0-0.011,0.025-0.045,0.076-0.105
	c0.05-0.059,0.07-0.111,0.063-0.155c-0.121-0.381-0.258-0.618-0.408-0.708c-0.147-0.011-0.195-0.019-0.146-0.023
	c-0.025,0.001-0.043-0.005-0.053-0.02c-0.012-0.017-0.029-0.023-0.055-0.022c-0.025,0.002-0.063-0.01-0.116-0.034
	c-0.054-0.024-0.093-0.035-0.117-0.034c-0.009,0.079-0.024,0.114-0.048,0.103c-0.24,0.051-0.467,0.207-0.68,0.467l-0.244,0.016
	c-0.209,0.351-0.336,0.543-0.375,0.579c-0.075,0.007-0.14,0.027-0.193,0.065c-0.092,0.05-0.15,0.083-0.176,0.096
	c-0.016,0.135-0.166,0.341-0.455,0.619c-0.289,0.277-0.424,0.438-0.403,0.48c-0.321,0.235-0.536,0.44-0.641,0.614
	c-0.043,0.059-0.079,0.095-0.104,0.108c0.021,0.031,0.037,0.059,0.047,0.081c-0.004,0.044-0.064,0.083-0.178,0.113
	c-0.1,0.119-0.16,0.188-0.181,0.214c-0.021,0.024-0.116,0.141-0.287,0.354c-0.114,0.144-0.218,0.24-0.31,0.291
	c-0.039,0.126-0.176,0.39-0.417,0.792c-0.241,0.403-0.378,0.779-0.415,1.127c0-0.012,0.045,0.031,0.135,0.125
	c-0.055,0.048-0.088,0.068-0.098,0.058c0.125,0.56,0.267,0.865,0.424,0.908c0.26,0.105,0.449,0.187,0.568,0.246
	c0.036-0.003,0.078,0.005,0.127,0.024c0.047,0.019,0.082,0.028,0.108,0.025c0.186-0.013,0.249-0.017,0.186-0.013l0.208-0.016
	l0.055-0.003c0.283-0.099,0.537-0.177,0.768-0.238c0.104-0.041,0.168-0.072,0.195-0.097c0.104-0.041,0.188-0.074,0.253-0.102
	c0.268-0.196,0.42-0.296,0.458-0.299c0.024-0.003,0.049,0.002,0.072,0.011l0.094-0.006c-0.026-0.099,0.035-0.159,0.186-0.18
	l0.077-0.208l0.196-0.097c0.168-0.079,0.295-0.148,0.375-0.21c0.066-0.161,0.217-0.322,0.449-0.484
	c0.234-0.16,0.373-0.281,0.419-0.363c0.04-0.024,0.063-0.06,0.066-0.105c0.022-0.212,0.141-0.332,0.354-0.358
	c-0.001-0.111,0.054-0.24,0.161-0.387c0.109-0.146,0.227-0.242,0.355-0.284c-0.071-0.028-0.113-0.047-0.125-0.058
	c0.078-0.027,0.131-0.047,0.155-0.061c0.003-0.145,0.05-0.231,0.14-0.26C56.907,129.858,56.853,129.723,56.753,129.729
	 M46.233,133.408l0.004-0.033l0.078-0.039l0.016,0.032L46.233,133.408z M51.895,127.042c-0.183-0.254-0.319-0.378-0.407-0.373
	c-0.11,0.009-0.307,0.078-0.587,0.209c-0.28,0.13-0.442,0.237-0.487,0.319l-0.244,0.016c0.016,0.1,0.057,0.168,0.127,0.209
	c-0.015,0.023-0.055,0.104-0.119,0.243c-0.045,0.092-0.122,0.164-0.227,0.216c-0.205,0.303-0.432,0.515-0.678,0.633
	c-0.691,0.806-1.254,1.392-1.689,1.757c0.025-0.126,0.065-0.199,0.117-0.227l0.052-0.137c-0.034-0.032-0.05-0.058-0.046-0.081
	c0.002-0.034,0.048-0.059,0.137-0.077c0-0.11,0.02-0.196,0.063-0.255c0.287-0.377,0.446-0.71,0.477-1.003
	c0.009-0.077-0.042-0.157-0.15-0.24c-0.11-0.081-0.208-0.12-0.294-0.114c-0.038,0.003-0.07,0.011-0.096,0.023l-0.168,0.012
	c-0.025,0.001-0.102,0.038-0.225,0.108c-0.126,0.069-0.2,0.105-0.225,0.107c-0.025,0.003-0.056-0.007-0.09-0.026l-0.055-0.014
	l-0.188,0.197c0.001-0.011,0.038,0.053,0.109,0.193l-0.019,0.186c-0.127,0.143-0.198,0.231-0.214,0.267
	c0.041,0.074,0.048,0.185,0.021,0.333c-0.027,0.146-0.086,0.229-0.174,0.245c0.015,0.088-0.023,0.225-0.118,0.41
	c-0.093,0.185-0.138,0.311-0.132,0.377c-0.191,0.293-0.303,0.462-0.332,0.508c-0.135,0.221-0.324,0.613-0.568,1.177
	c-0.215,0.504-0.41,0.892-0.586,1.161l-0.023,0.218c0.123,0.36,0.334,0.528,0.633,0.508c0.212-0.015,0.439-0.182,0.684-0.499
	c0.175-0.247,0.305-0.43,0.393-0.546c-0.039,0.003-0.074-0.012-0.107-0.044c0.305-0.433,0.525-0.76,0.659-0.982
	c0.048,0.019,0.11,0.01,0.189-0.03c-0.034-0.031-0.05-0.063-0.046-0.097c0.009-0.09,0.085-0.167,0.229-0.234
	c0.162-0.245,0.311-0.428,0.447-0.549l0.707-0.885c0.285-0.365,0.498-0.576,0.641-0.631c-0.05,0.003-0.092-0.01-0.125-0.041
	c0.299-0.255,0.529-0.456,0.693-0.601c-0.043,0.171-0.211,0.57-0.506,1.198c-0.295,0.627-0.447,0.991-0.459,1.093
	c0.004-0.034,0.014-0.006,0.029,0.082c0.02,0.043,0,0.112-0.06,0.205c-0.005,0.045-0.036,0.109-0.093,0.19l0.021,0.149
	c-0.002,0.022-0.02,0.057-0.049,0.103c-0.029,0.046-0.034,0.087-0.013,0.118c-0.001,0.012,0.009,0.036,0.029,0.073
	s0.03,0.068,0.027,0.09c-0.011,0.112-0.063,0.262-0.158,0.445c0.106,0.171,0.142,0.531,0.11,1.08c0.012,0,0.066,0.096,0.164,0.29
	c0.097,0.194,0.156,0.301,0.18,0.322c0.076,0.096,0.151,0.146,0.225,0.152c0.106,0.047,0.164,0.082,0.176,0.104l0.168-0.012
	c0.199-0.26,0.302-0.406,0.305-0.44c0.002-0.011-0.045-0.062-0.142-0.149c-0.096-0.088-0.142-0.148-0.138-0.182
	c-0.008-0.289-0.057-0.464-0.149-0.526c0.071-0.093,0.114-0.214,0.131-0.359c0.007-0.068,0.007-0.16,0.001-0.277
	c-0.006-0.116-0.006-0.208,0.001-0.275c0.017-0.157,0.062-0.294,0.136-0.411c0.035-0.091,0.079-0.161,0.134-0.209
	c-0.071-0.029-0.118-0.053-0.141-0.074l0.017-0.168c0.079-0.04,0.145-0.083,0.2-0.13c-0.039-0.099-0.053-0.202-0.041-0.315
	c0.012-0.112,0.108-0.382,0.289-0.807c0.177-0.39,0.255-0.608,0.235-0.651c0.174-0.235,0.396-0.618,0.668-1.151
	c0.272-0.53,0.508-0.921,0.708-1.17L51.895,127.042z M42.688,129.877c-0.023-0.01-0.063,0.01-0.117,0.058
	c-0.004,0.034,0.026,0.048,0.088,0.044c-0.076,0.139-0.137,0.249-0.184,0.33l-0.068-0.045c-0.018,0.035-0.014,0.071,0.006,0.107
	c0.021,0.038,0.031,0.062,0.03,0.074c-0.017,0.156-0.201,0.437-0.552,0.84c-0.408,0.464-0.642,0.748-0.703,0.852
	c0.002-0.01-0.021-0.015-0.072-0.012c-0.025,0.001-0.025,0.008-0.002,0.016c0.01,0.022,0.002,0.033-0.022,0.036
	c-0.024,0.001-0.043-0.008-0.053-0.031l-0.017-0.015c-0.028,0.035-0.045,0.075-0.05,0.12c-0.003,0.035,0.005,0.079,0.023,0.133
	c-0.145,0.076-0.263,0.146-0.356,0.209c0.013-0.001,0.015,0.038,0.006,0.116c-0.502,0.303-0.744,0.499-0.729,0.585
	c-0.025,0.003-0.049-0.008-0.072-0.028c-0.226,0.15-0.482,0.357-0.77,0.622c-0.139,0.01-0.203-0.024-0.193-0.104
	c0.051-0.482,0.676-1.317,1.877-2.505c1.119-1.104,1.79-1.67,2.016-1.696C42.724,129.724,42.694,129.821,42.688,129.877
	 M44.37,133.571c-0.027-0.031-0.049-0.045-0.061-0.045c-0.137,0.01-0.361,0.143-0.672,0.398c-0.026,0.001-0.051-0.002-0.074-0.013
	c-0.023-0.009-0.047-0.013-0.072-0.011c-0.307,0.076-0.434,0.114-0.383,0.111c-0.088,0.006-0.178-0.088-0.268-0.283
	c-0.091-0.193-0.115-0.314-0.072-0.362c-0.119-0.047-0.168-0.172-0.146-0.374l0.1-0.96c0.079-0.039,0.158-0.206,0.238-0.501
	c0.086-0.34,0.177-0.558,0.273-0.655c-0.059-0.041-0.084-0.082-0.08-0.128c0.148-0.11,0.229-0.222,0.24-0.334
	c-0.026,0.014-0.039,0.014-0.037,0.003c-0.025-0.009-0.008-0.044,0.048-0.104c0.089-0.15,0.151-0.266,0.185-0.346
	c0.408-0.583,0.624-0.886,0.652-0.91c0.011-0.223,0.094-0.361,0.248-0.416c-0.019-0.065-0.025-0.11-0.023-0.132
	c0.161-0.232,0.33-0.494,0.51-0.784c-0.049-0.019-0.09-0.033-0.125-0.042c0.079-0.061,0.126-0.092,0.14-0.092
	c-0.091-0.328-0.241-0.482-0.452-0.469c-0.025,0.002-0.061,0.005-0.104,0.008c-0.043,0.004-0.077,0.006-0.103,0.008
	c-0.11-0.003-0.197,0.003-0.262,0.018c-0.075,0.017-0.189,0.158-0.342,0.425c-0.199,0.359-0.318,0.568-0.362,0.627
	c0.09-0.028-0.009-0.033-0.296-0.012c0.014-0.001-0.016,0.045-0.089,0.14c-0.415,0.185-0.943,0.617-1.583,1.298
	c-0.745,0.61-1.615,1.524-2.609,2.741c-0.482,0.713-0.727,1.086-0.729,1.121l0.029,0.064c0.008,0.044,0.01,0.089,0.004,0.133
	c-0.018,0.058-0.062,0.122-0.131,0.192c0.042,0.188,0.141,0.37,0.295,0.548c0.175,0.222,0.35,0.327,0.523,0.315l0.205-0.015
	c0.039-0.003,0.176-0.068,0.412-0.196c0.349-0.269,0.676-0.554,0.979-0.854c0.138-0.131,0.29-0.232,0.458-0.3
	c0.077-0.139,0.248-0.328,0.515-0.563c0.266-0.236,0.423-0.399,0.468-0.493c0.057,0.051,0.091,0.089,0.102,0.11
	c-0.078,0.028-0.133,0.07-0.163,0.128c0.069,0.051,0.106,0.171,0.111,0.359c-0.016,0.147-0.024,0.292-0.028,0.438
	c-0.002,0.033,0.021,0.084,0.068,0.153c0.048,0.07,0.071,0.11,0.07,0.122c-0.014,0.133-0.026,0.19-0.035,0.169
	c-0.025,0.001,0.103,0.132,0.385,0.391c-0.039,0.025-0.068,0.065-0.088,0.124c0.031-0.059,0.072-0.09,0.121-0.092
	c0.032,0.056,0.043,0.117,0.037,0.188c0.088-0.018,0.184,0.067,0.288,0.257c0.013,0,0.032-0.014,0.06-0.037
	c0.027-0.025,0.053-0.039,0.078-0.04c0.037-0.002,0.101,0.043,0.189,0.137c0.025-0.001,0.195-0.08,0.508-0.236
	c0.248-0.117,0.438-0.231,0.574-0.341c0.146-0.222,0.271-0.404,0.372-0.544C44.431,133.618,44.397,133.604,44.37,133.571
	 M39.274,127.224c-0.16-0.124-0.439-0.17-0.839-0.142c-0.024,0.001-0.048-0.014-0.069-0.045l-0.053-0.03
	c-0.436,0.254-0.708,0.385-0.82,0.392c-0.037,0.002-0.074,0-0.11-0.009c0.003,0.078-0.04,0.143-0.132,0.192
	c-0.096,0.085-0.24,0.249-0.432,0.491c-0.193,0.242-0.314,0.42-0.362,0.536c-0.044,0.169-0.085,0.34-0.128,0.51
	c0.035,0.008,0.059,0.023,0.069,0.045c-0.003,0.022-0.021,0.054-0.057,0.096c-0.036,0.042-0.054,0.073-0.056,0.096
	c-0.057,0.539,0.039,1.384,0.289,2.538c-0.053,0.15-0.073,0.283-0.061,0.407c0.031,0.521,0.049,0.876,0.055,1.066
	c-0.092,0.04-0.138,0.077-0.143,0.11c-0.008,0.079,0.029,0.148,0.108,0.209c-0.054,0.038-0.188,0.173-0.405,0.405
	c-0.215,0.231-0.392,0.354-0.528,0.362c-0.013,0.001-0.034-0.003-0.064-0.012c-0.03-0.009-0.051-0.014-0.063-0.013
	c-0.037,0.003-0.076,0.02-0.117,0.05c-0.04,0.031-0.066,0.046-0.078,0.047c-0.025,0.002-0.086-0.011-0.182-0.039
	c-0.338-0.088-0.59-0.159-0.757-0.214c-0.204-0.065-0.349-0.156-0.437-0.273c0.051-0.115,0.064-0.257,0.045-0.423
	c-0.03-0.177-0.051-0.282-0.059-0.315c0.01-0.101,0.088-0.247,0.23-0.436c0.201-0.261,0.32-0.427,0.358-0.497
	c0.039-0.071,0.096-0.107,0.17-0.113c0.104-0.175,0.188-0.315,0.248-0.421l-0.376-0.126c-0.225,0.016-0.553,0.256-0.985,0.722
	c-0.187,0.247-0.38,0.49-0.577,0.726c-0.007,0.068-0.007,0.185,0,0.352c0.004,0.189-0.01,0.33-0.045,0.422
	c-0.014,0.134,0.165,0.399,0.538,0.798c0.372,0.396,0.64,0.589,0.802,0.579c0.025-0.001,0.051-0.004,0.075-0.005
	c0.025-0.002,0.05-0.004,0.075-0.006c0.087-0.006,0.193,0.01,0.32,0.046c0.125,0.037,0.197,0.055,0.217,0.053
	c0.019-0.001,0.068,0.001,0.148,0.005c0.078,0.005,0.137,0.005,0.176,0.002c0.049-0.003,0.125-0.014,0.227-0.032
	c0.1-0.019,0.176-0.03,0.226-0.033c-0.05,0.003,0.129-0.054,0.536-0.171c0.769-0.478,1.18-0.974,1.234-1.492
	c0.01-0.089-0.006-0.305-0.043-0.648c-0.03-0.31-0.033-0.517-0.01-0.618c-0.148-0.826-0.198-1.463-0.15-1.913
	c0.002-0.022,0.039-0.091,0.113-0.208c-0.111-0.114-0.152-0.318-0.121-0.611c0.031-0.302,0.118-0.599,0.26-0.888
	c0.186-0.347,0.419-0.57,0.701-0.667c0.021,0.042,0.008,0.096-0.035,0.16c-0.043,0.065-0.066,0.102-0.068,0.114
	c-0.004,0.044,0.039,0.115,0.127,0.209c-0.027,0.147-0.039,0.253-0.033,0.32c0.037,0.009,0.113,0.04,0.231,0.092
	c0.118,0.053,0.189,0.079,0.215,0.078c0.024-0.002,0.05-0.013,0.077-0.031c0.026-0.019,0.056-0.029,0.087-0.031
	c0.03-0.002,0.083-0.022,0.155-0.061c0.071-0.039,0.111-0.062,0.118-0.068c0.007-0.006,0.062-0.116,0.164-0.329
	c0.103-0.213,0.164-0.415,0.185-0.607C39.497,127.581,39.435,127.345,39.274,127.224 M30.436,128.509
	c-0.13-0.18-0.245-0.267-0.344-0.259c-0.026,0.002-0.035,0.002-0.028,0.002c0.006,0-0.004,0-0.028,0.002
	c-0.074,0.005-0.107-0.038-0.099-0.127l-0.227,0.037c-0.1,0.006-0.174,0.021-0.227,0.045l-0.051-0.046
	c-0.05,0.004-0.139,0.033-0.27,0.086c-0.129,0.054-0.219,0.083-0.268,0.085c-0.025,0.002-0.037-0.011-0.033-0.039
	c0.002-0.028-0.009-0.042-0.033-0.04c-0.025,0.002-0.084,0.033-0.178,0.096c-0.093,0.062-0.152,0.095-0.177,0.097
	c-0.024,0.002-0.054-0.011-0.089-0.036c-0.034-0.025-0.064-0.038-0.089-0.036c-0.025,0.002-0.079,0.039-0.161,0.112
	c-0.081,0.073-0.135,0.11-0.159,0.112c-0.026,0.001-0.042-0.017-0.05-0.055c-0.01-0.039-0.025-0.057-0.051-0.056
	c-0.049,0.004-0.098,0.047-0.143,0.128l-0.057,0.004l-0.094,0.006c-0.134,0.218-0.427,0.421-0.879,0.606
	c-0.025,0.002-0.068,0.016-0.126,0.043c-0.059,0.025-0.095,0.04-0.106,0.04c0.012,0.252-0.209,0.57-0.656,0.954
	c-0.051,0.003-0.065,0.026-0.045,0.07l0.255,0.576c0.101,0.224,0.226,0.331,0.374,0.321c0.025-0.003,0.039-0.009,0.041-0.02
	l0.018-0.002c0.063-0.004,0.152,0.023,0.27,0.081c0.107-0.085,0.193-0.141,0.26-0.168c-0.056-0.063-0.101-0.109-0.134-0.14
	c0.219-0.082,0.356-0.159,0.413-0.23c-0.012-0.011-0.035-0.108-0.07-0.296c-0.036-0.186-0.053-0.298-0.05-0.331
	c0.003-0.021,0.026-0.065,0.071-0.13c0.043-0.063,0.065-0.107,0.068-0.129l0.038-0.002c0.011,0.01,0.035,0.014,0.072,0.012
	c0.175-0.258,0.319-0.391,0.431-0.398c0.025-0.002,0.05,0.002,0.074,0.011c0.023,0.011,0.047,0.014,0.072,0.013
	c0.297-0.221,0.475-0.334,0.537-0.338c0.024-0.002,0.037,0.002,0.035,0.013c-0.002,0.013,0.011,0.016,0.036,0.014
	c0.024-0.001,0.053-0.01,0.087-0.022c0.031-0.014,0.061-0.021,0.086-0.022c0.023-0.002,0.063-0.018,0.115-0.05
	c0.053-0.031,0.086-0.047,0.098-0.048c0.051-0.003,0.139,0.007,0.266,0.032c0.128,0.025,0.223,0.034,0.285,0.03
	c-0.006,0.056-0.004,0.13,0.005,0.225c0.008,0.095,0.011,0.158,0.007,0.191c-0.006,0.056-0.098,0.191-0.274,0.405
	c-0.178,0.213-0.298,0.337-0.364,0.376c0.016,0.076,0.004,0.139-0.039,0.186c-0.166,0.179-0.301,0.338-0.402,0.479
	c-0.693,0.953-1.498,2.013-2.413,3.18l-0.111,0.008c0.009-0.09-0.009,0.012-0.05,0.304l-0.033,0.304
	c-0.031,0.302,0.109,0.549,0.424,0.739l-0.131,0.008c0.174,0.111,0.336,0.161,0.485,0.151c0.036-0.002,0.087-0.009,0.15-0.02
	c0.063-0.012,0.11-0.019,0.142-0.02c0.031-0.003,0.069-0.01,0.113-0.022c0.045-0.014,0.074-0.021,0.086-0.021
	c0.025-0.002,0.033-0.002,0.028-0.002c-0.007,0,0.003,0,0.027-0.003c0.025-0.001,0.038-0.008,0.039-0.019
	c0.001-0.012,0.05-0.054,0.144-0.128c0.035,0.032,0.045,0.047,0.032,0.048c0.024-0.001,0.042-0.01,0.049-0.028
	c0.009-0.018,0.024-0.027,0.051-0.029c-0.026,0.002-0.004-0.027,0.063-0.088c0.039-0.002,0.068,0.001,0.093,0.01
	c0.006-0.056,0.029-0.101,0.069-0.138c0.01,0.021,0.028,0.033,0.053,0.03l1.381-0.95c0.038-0.002,0.055,0.003,0.054,0.014
	c0.144-0.188,0.265-0.287,0.365-0.293c0.007-0.067,0.052-0.129,0.13-0.186c0.081-0.056,0.121-0.089,0.123-0.1
	c0.013-0.123-0.043-0.181-0.168-0.173c-0.074,0.006-0.284,0.115-0.627,0.328l-0.518,0.321c-0.024,0.001-0.059-0.001-0.102-0.01
	c-0.042-0.008-0.076-0.011-0.1-0.01c-0.155,0.179-0.291,0.294-0.408,0.347l-0.051-0.047c-0.167,0.179-0.295,0.271-0.381,0.278
	c-0.026,0.001-0.035-0.003-0.027-0.015s-0.002-0.016-0.025-0.015c-0.025,0.002-0.05,0.026-0.073,0.071
	c-0.023,0.047-0.048,0.071-0.073,0.072l-0.093,0.007c-0.024,0.001-0.035,0.008-0.03,0.019c0.006,0.011-0.004,0.017-0.029,0.019
	c-0.063,0.004-0.129-0.046-0.197-0.153c-0.069-0.105-0.101-0.187-0.096-0.243c0.014-0.123,0.122-0.273,0.326-0.455
	c-0.023-0.01-0.034-0.024-0.031-0.047c0.058-0.204,0.216-0.465,0.473-0.782c0.113-0.142,0.303-0.365,0.571-0.672
	c0.104-0.173,0.335-0.461,0.693-0.863c0.356-0.403,0.603-0.636,0.731-0.701c0.299-0.486,0.521-0.767,0.665-0.845
	c-0.032-0.042-0.046-0.091-0.041-0.147c0.005-0.032,0.015-0.071,0.032-0.117c0.036-0.114,0.105-0.19,0.209-0.232l0.02-0.184
	c0.013-0.124,0.041-0.275,0.086-0.456c0.042-0.047,0.063-0.083,0.066-0.104C30.625,128.822,30.564,128.687,30.436,128.509
	 M25.511,129.106c-0.016-0.078-0.036-0.118-0.061-0.123c-0.024-0.002-0.061-0.014-0.107-0.033c-0.047-0.019-0.082-0.028-0.107-0.026
	c-0.471,0.033-0.891,0.34-1.26,0.925l-0.861,1.698c-0.342,0.67-0.686,1.079-1.033,1.226c-0.002,0.023-0.006,0.051-0.01,0.084
	l-0.005,0.05c-0.054,0.037-0.099,0.057-0.136,0.06c-0.48,0.569-0.96,1.07-1.438,1.505c-0.397,0.362-0.651,0.547-0.764,0.555
	c-0.063,0.005-0.128-0.007-0.201-0.035c0.007-0.056-0.001-0.101-0.022-0.132c-0.021-0.033-0.031-0.054-0.031-0.065
	c0.02-0.179,0.673-1.446,1.959-3.799c0.119-0.075,0.2-0.142,0.244-0.201c-0.088,0.006-0.127-0.03-0.119-0.109
	c0.005-0.156,0.008-0.251,0.012-0.285c-0.113-0.092-0.208-0.136-0.283-0.13c-0.072-0.017-0.116-0.014-0.131,0.009
	c-0.028,0.036-0.056,0.06-0.082,0.072c-0.108-0.025-0.182-0.032-0.22-0.018c-0.146,0.088-0.31,0.166-0.489,0.235
	c-0.003,0.033-0.015,0.08-0.033,0.137c-0.019,0.056-0.029,0.101-0.033,0.134c-0.002,0.023,0.01,0.057,0.037,0.1
	c0.026,0.042,0.039,0.069,0.037,0.081c-0.064,0.027-0.111,0.069-0.143,0.128c0.08,0.06,0.116,0.131,0.108,0.21
	c-0.005,0.044-0.101,0.21-0.284,0.496c-0.186,0.287-0.297,0.436-0.336,0.45c-0.137,0.233-0.312,0.577-0.525,1.032
	c-0.215,0.455-0.379,0.743-0.49,0.862c0.048,0.02,0.068,0.056,0.063,0.112c-0.008,0.079-0.066,0.211-0.172,0.396
	s-0.161,0.301-0.166,0.347c-0.012,0.112,0.053,0.313,0.196,0.605c0.112,0.226,0.221,0.37,0.326,0.428
	c0.105,0.061,0.288,0.08,0.551,0.062c0.074-0.005,0.362-0.214,0.864-0.629c0.242-0.194,0.526-0.42,0.85-0.677
	c-0.002-0.089,0.069-0.189,0.217-0.3c0.024,0.01,0.123-0.068,0.295-0.237c0.172-0.168,0.291-0.266,0.355-0.293
	c0.031,0.054,0.037,0.171,0.02,0.351c-0.004,0.023-0.041,0.092-0.115,0.208c-0.074,0.117-0.111,0.181-0.113,0.193
	c0.007-0.069,0.025,0.042,0.059,0.33c0.006,0.178-0.037,0.281-0.125,0.309c0.119,0.271,0.203,0.472,0.252,0.602
	c0.162,0.333,0.405,0.49,0.73,0.467c0.199-0.014,0.482-0.151,0.85-0.411c0.367-0.259,0.561-0.473,0.578-0.642
	s-0.029-0.25-0.142-0.242l-0.455,0.267c-0.304,0.177-0.487,0.285-0.554,0.323c-0.227-0.195-0.315-0.529-0.266-1.001
	c0.014-0.134,0.086-0.414,0.218-0.834c0.15-0.491,0.284-0.751,0.397-0.781c-0.015-0.211,0.088-0.535,0.307-0.975
	c0.189-0.392,0.383-0.695,0.578-0.91c-0.018-0.177,0.26-0.581,0.832-1.212c0.154-0.044,0.278-0.169,0.375-0.377
	c0.127-0.276,0.204-0.421,0.23-0.435C25.65,129.135,25.575,129.089,25.511,129.106 M17.95,132.167
	c-0.159,0.462-0.285,0.77-0.375,0.92c0.01,0.022,0.02,0.06,0.025,0.117c-0.022,0.213-0.308,0.685-0.854,1.413
	c-0.591,0.788-1.023,1.193-1.297,1.212l-0.225,0.016c-0.109-0.138-0.215-0.248-0.318-0.329c-0.154-0.413-0.217-0.755-0.188-1.023
	c0.009-0.078,0.108-0.32,0.298-0.724c0.191-0.403,0.322-0.652,0.395-0.747c-0.02-0.054-0.053-0.09-0.1-0.11
	c0.115-0.152,0.196-0.287,0.246-0.401c0.367-0.438,0.653-0.804,0.857-1.098c-0.031-0.053,0.088-0.214,0.357-0.484
	c0.27-0.27,0.469-0.425,0.597-0.468c0.096,0.026,0.194-0.019,0.294-0.138l0.086,0.06c0.113-0.029,0.193-0.073,0.236-0.132
	c0.063,0.107,0.119,0.165,0.167,0.172c-0.054,0.038-0.088,0.073-0.104,0.107c-0.001,0.011,0.033,0.047,0.101,0.11
	c-0.007,0.068,0.003,0.167,0.033,0.299s0.042,0.221,0.037,0.265C18.2,131.384,18.111,131.704,17.95,132.167 M18.836,131.686
	l0.108-1.024c0.053-0.037,0.086-0.056,0.098-0.056c-0.285-0.581-0.473-0.913-0.563-0.994c-0.131-0.168-0.229-0.306-0.291-0.413
	c-0.143-0.057-0.232-0.083-0.271-0.081c-0.024,0.001-0.056,0.003-0.093,0.006l-0.094,0.008c-0.063,0.003-0.143,0.032-0.24,0.083
	c-0.099,0.051-0.154,0.078-0.167,0.078c-0.012,0.001-0.022,0.011-0.03,0.028c-0.008,0.017-0.024,0.026-0.05,0.028
	c-0.024,0.001-0.035-0.008-0.034-0.031c0.015-0.011,0.015-0.017,0.003-0.016c-0.038,0.003-0.09,0.028-0.157,0.076l-0.1,0.075
	l-0.02,0.184c-0.135-0.012-0.396,0.228-0.781,0.721c-0.271,0.34-0.566,0.728-0.883,1.159c-0.667,1.167-1.138,2.049-1.41,2.645
	c0.068,0.051,0.1,0.11,0.093,0.177c-0.022,0.212-0.087,0.417-0.194,0.614c0.047,0.019,0.071,0.12,0.07,0.302
	c0,0.184,0.04,0.288,0.125,0.316c0.1,0.225,0.189,0.419,0.273,0.58c-0.002,0.012-0.014,0.035-0.037,0.069
	c-0.021,0.036-0.033,0.064-0.035,0.086c0.158,0.022,0.26,0.109,0.307,0.261l0.149-0.01c0.05-0.003,0.174,0.021,0.372,0.073
	c0.199,0.054,0.342,0.077,0.429,0.072l0.037-0.003c0.002-0.013,0.015-0.018,0.04-0.019c0.123-0.009,0.441-0.257,0.949-0.744
	c0.51-0.487,0.816-0.812,0.92-0.976c0.234-0.229,0.395-0.396,0.479-0.501c0.002-0.134,0.055-0.283,0.159-0.446
	c0.013,0,0.03,0.009,0.053,0.029c0.058-0.193,0.138-0.315,0.243-0.366c-0.059-0.042-0.092-0.072-0.102-0.094l0.105-0.124
	c0.07-0.071,0.144-0.192,0.225-0.365c0.221-0.815,0.367-1.27,0.439-1.363C18.912,131.731,18.87,131.717,18.836,131.686
	 M15.743,128.801c0.048-0.103,0.072-0.16,0.074-0.172c-0.088,0.006-0.127-0.03-0.119-0.109c0.035-0.092,0.055-0.154,0.057-0.187
	c-0.088,0.006-0.215-0.013-0.384-0.058c-0.169-0.043-0.278-0.064-0.327-0.06l-0.187,0.013c-0.455,0.555-0.774,0.89-0.959,1.003
	c-0.432,0.921-0.911,2.009-1.438,3.261c0.01,0.021,0.014,0.043,0.012,0.066c-0.01,0.09-0.053,0.199-0.127,0.326
	c-0.079,0.163-0.129,0.271-0.146,0.329c-0.099-0.016-0.223,0.109-0.374,0.377c-0.846,0.75-1.411,1.241-1.695,1.473
	c-0.559,0.484-0.891,0.769-0.999,0.855c-0.071-0.028-0.104-0.065-0.101-0.11c0.018-0.156,0.105-0.292,0.266-0.403l-0.106-0.226
	c0.012-0.112,0.212-0.52,0.603-1.221c0.389-0.701,0.639-1.111,0.75-1.232c-0.045-0.029-0.08-0.055-0.104-0.075
	c0.068-0.061,0.111-0.103,0.125-0.127c0.004-0.033-0.007-0.082-0.031-0.148c-0.023-0.066-0.034-0.115-0.03-0.149
	c-0.265-0.182-0.427-0.288-0.486-0.316c-0.161,0.01-0.349,0.088-0.563,0.231c-0.213,0.143-0.339,0.283-0.378,0.419
	c0.112,0.104,0.166,0.184,0.16,0.24c-0.012,0.111-0.099,0.349-0.26,0.711c-0.162,0.362-0.283,0.569-0.363,0.62
	c-0.048,0.227-0.164,0.569-0.348,1.027l-0.298,0.707c-0.003,0.033,0.073,0.357,0.232,0.969c0.078-0.039,0.136-0.065,0.175-0.078
	c0.076,0.095,0.246,0.133,0.508,0.115c0.037-0.002,0.101-0.014,0.189-0.03c0.088-0.017,0.146-0.026,0.178-0.029
	c0.031-0.002,0.289-0.215,0.773-0.639c0.483-0.424,0.75-0.633,0.799-0.625c0.117-0.186,0.287-0.377,0.505-0.57
	s0.409-0.357,0.571-0.492c0.029,0.076,0.051,0.114,0.063,0.112l-0.208,0.751c-0.097,0.317-0.196,0.563-0.301,0.737
	c0.019,0.055,0.022,0.149,0.008,0.284c-0.053,0.504-0.29,1.276-0.708,2.319c-0.053,0.504-0.467,1.374-1.239,2.606
	c-0.356,0.447-0.632,0.773-0.826,0.976c-0.145,0.199-0.298,0.305-0.46,0.315c-0.063,0.128-0.181,0.247-0.354,0.359
	c-0.131,0.064-0.262,0.135-0.394,0.211c-0.306,0.088-0.511,0.159-0.615,0.209c-0.327,0.05-0.466,0.072-0.415,0.069
	c-0.037,0.002-0.078,0.031-0.121,0.086c-0.07-0.04-0.148-0.056-0.236-0.051l-0.411,0.029c0.001-0.01-0.136-0.063-0.409-0.154
	c-0.039,0.013-0.117-0.02-0.232-0.102c-0.036-0.008-0.092-0.03-0.169-0.063s-0.122-0.049-0.134-0.049
	c-0.025,0.002-0.051,0.009-0.077,0.022s-0.045,0.02-0.058,0.021c-0.1,0.006-0.354-0.134-0.762-0.423
	c-0.41-0.289-0.646-0.488-0.709-0.594c-0.088,0.028-0.154,0.05-0.192,0.063c-0.483-0.936-0.709-1.549-0.679-1.841
	c0.059-0.551,0.41-1.132,1.056-1.747c0.012-0.1-0.063-0.207-0.226-0.318c0.017,0.076-0.135,0.165-0.455,0.266
	c-0.259,0.106-0.486,0.277-0.686,0.515c-0.113,0.141-0.241,0.388-0.384,0.744c-0.144,0.355-0.224,0.622-0.242,0.8
	c-0.034,0.325,0.202,0.836,0.711,1.535c0.454,0.624,0.776,0.968,0.968,1.033c0.119,0.046,0.361,0.208,0.729,0.482
	c0.133,0.036,0.414,0.122,0.846,0.258c0.348,0.109,0.638,0.177,0.869,0.206c0.023,0.009,0.093,0.026,0.208,0.052
	c0.114,0.025,0.179,0.037,0.19,0.036c0.063-0.004,0.157-0.021,0.284-0.052c0.127-0.032,0.222-0.05,0.284-0.054
	c0.025-0.003,0.07,0.007,0.137,0.024c0.066,0.017,0.111,0.024,0.137,0.023c0.361-0.024,0.876-0.212,1.543-0.56
	c0.732-0.375,1.113-0.702,1.143-0.982l0.188-0.013c0.023-0.102,0.125-0.261,0.309-0.473c0.185-0.214,0.279-0.354,0.287-0.421
	c0.176-0.157,0.393-0.5,0.646-1.032c0.346-0.693,0.524-1.045,0.538-1.058c0.072-0.329,0.152-0.507,0.242-0.535
	c-0.021-0.044-0.027-0.087-0.023-0.132c0.389-1.22,0.639-1.957,0.752-2.211c-0.035-0.02-0.049-0.069-0.04-0.147
	c0.011-0.102,0.061-0.289,0.151-0.563c0.074-0.228,0.105-0.413,0.097-0.557c0.099-0.23,0.212-0.6,0.339-1.111
	c0.137-0.478,0.263-0.843,0.375-1.097c-0.023-0.243,0.709-1.331,2.199-3.264c-0.05,0.003-0.092-0.01-0.125-0.041
	c0.197-0.36,0.332-0.638,0.402-0.832c0.063-0.128,0.102-0.202,0.116-0.226C15.75,128.912,15.724,128.869,15.743,128.801"/>
</svg>
