<svg xmlns="http://www.w3.org/2000/svg" viewBox="0 0 216.24 33.63"><defs><style>.cls-1{fill:#fff;}.cls-2{fill:#231f20;}</style></defs><title>cta-970250</title><g id="Layer_2" data-name="Layer 2"><g id="Layer_1-2" data-name="Layer 1"><path class="cls-1" d="M6.12,0S0,0,0,6.11V27.52s0,6.11,6.12,6.11h204s6.11,0,6.11-6.11V6.11s0-6.11-6.11-6.11Z"/><path class="cls-2" d="M27.73,23.9V21.55h2.09V12.33H27.73v3.24h-2.4V10H38v5.6H35.59V12.33H33.44v9.22h2.1V23.9Z"/><path class="cls-2" d="M39.26,23.9V21.55h1.67V12.33H39.26V10H51.53v4.42H48.87V12.33H44.56v3.21H48v2.35H44.56v3.66h4.31V19.46h2.66V23.9Z"/><path class="cls-2" d="M52.83,23.9V21.55h2V12.33h-2V10h7.65v2.36h-2v9.22h4.12V17.24h2.71V23.9Z"/><path class="cls-2" d="M66.07,23.9V21.55h2V12.33h-2V10h7.65v2.36h-2v9.22H75.8V17.24h2.72V23.9Z"/><path class="cls-2" d="M84.43,23.9V21.55h1.81V12.33H84.43V10h7l3,8.16L97.55,10h7.12v2.36h-1.8v9.22h1.8V23.9h-7V21.55h1.68V12.33H99L94.7,23.9H93.19L88.83,12.33H88.5v9.22h1.82V23.9Z"/><path class="cls-2" d="M105.92,23.9V21.55h1.67V12.33h-1.67V10h12.27v4.42h-2.66V12.33h-4.31v3.21h3.48v2.35h-3.48v3.66h4.31V19.46h2.66V23.9Z"/><path class="cls-2" d="M124.6,23.9V21.55h1.8V12.33h-1.8V10h7l3,8.16L137.72,10h7.12v2.36H143v9.22h1.81V23.9h-7V21.55h1.68V12.33h-.33L134.86,23.9h-1.5L129,12.33h-.33v9.22h1.82V23.9Z"/><path class="cls-2" d="M154.16,9.75a7.63,7.63,0,0,1,5.67,2.09,6.91,6.91,0,0,1,2.07,5.07A6.89,6.89,0,0,1,159.82,22a7.62,7.62,0,0,1-5.66,2.08,7.46,7.46,0,0,1-5.74-2.14,7.08,7.08,0,0,1-2-5,6.92,6.92,0,0,1,2.06-5.07A7.61,7.61,0,0,1,154.16,9.75Zm0,2.55a3.57,3.57,0,0,0-2.72,1.2A5,5,0,0,0,150.32,17a4.77,4.77,0,0,0,1.1,3.29,3.66,3.66,0,0,0,5.46,0A4.9,4.9,0,0,0,158,16.85a4.93,4.93,0,0,0-1.07-3.29A3.46,3.46,0,0,0,154.16,12.3Z"/><path class="cls-2" d="M177.91,21.55V23.9h-4.25l-3.14-6.1h-1.6v3.75h1.75V23.9h-7.28V21.55h1.91V12.33h-1.91V10h8.4a4.33,4.33,0,0,1,3.42,1.2,4,4,0,0,1,1,2.71,3.61,3.61,0,0,1-2.41,3.46l2.26,4.21Zm-9-6h1.25c1.53,0,2.3-.55,2.3-1.64a1.42,1.42,0,0,0-.53-1.21,2.3,2.3,0,0,0-1.44-.4h-1.58Z"/><path class="cls-2" d="M178.55,23.9V21.55h1.67V12.33h-1.67V10h12.27v4.42h-2.66V12.33h-4.32v3.21h3.49v2.35h-3.49v3.66h4.32V19.46h2.66V23.9Z"/></g></g></svg>