<?xml version="1.0" encoding="utf-8"?>
<!-- Generator: Adobe Illustrator 22.1.0, SVG Export Plug-In . SVG Version: 6.00 Build 0)  -->
<svg version="1.1" id="Layer_1" xmlns="http://www.w3.org/2000/svg" xmlns:xlink="http://www.w3.org/1999/xlink" x="0px" y="0px"
	 viewBox="0 0 275.6 85" style="enable-background:new 0 0 275.6 85;" xml:space="preserve">
<style type="text/css">
	.st0{fill:#231F20;}
</style>
<title>text2</title>
<g id="Layer_2_1_">
	<g id="Layer_1-2">
		<path class="st0" d="M26,31.6V21h5.3c-0.1,1.6,0.5,3.1,1.5,4.3c0.9,0.9,2,1.4,3.3,1.4c0.9,0,1.8-0.3,2.4-1c0.7-0.6,1-1.5,1-2.4
			c0-0.9-0.3-1.8-1-2.4c-1-0.9-2.2-1.7-3.5-2.2c-2.7-1.1-5.1-2.7-7.3-4.6c-1.3-1.5-2-3.4-1.9-5.4c-0.1-2.3,0.8-4.6,2.5-6.2
			C29.8,1,31.9,0.2,34,0.2c2.3-0.1,4.5,1,5.8,2.9V0.5h5.2V10h-5.2c-0.1-1.3-0.6-2.5-1.5-3.4c-0.8-0.8-1.8-1.2-2.9-1.2
			c-0.8,0-1.6,0.2-2.2,0.7c-0.6,0.4-0.9,1.1-0.9,1.8c0,0.7,0.3,1.3,0.7,1.8c1.3,1.1,2.8,1.9,4.4,2.4c1.8,0.8,3.6,1.7,5.3,2.8
			c1.2,0.8,2.2,1.9,2.9,3.2c0.7,1.4,1.1,3,1.1,4.6c0.2,2.6-0.8,5.1-2.7,6.9c-1.8,1.5-4,2.4-6.3,2.3c-2.5,0.1-4.8-1-6.3-3v2.7
			L26,31.6z"/>
		<path class="st0" d="M54.9,31.6v-5.2h4.7V5.8h-4.7v7.3h-5.3V0.5h28.1V13h-5.2V5.7h-4.8v20.6h4.7v5.2L54.9,31.6z"/>
		<path class="st0" d="M97.4,0c4.7-0.3,9.3,1.4,12.7,4.6c3,3,4.7,7,4.6,11.2c0.1,4.3-1.6,8.4-4.6,11.3c-3.4,3.2-8,4.9-12.6,4.6
			c-5.5,0-9.8-1.6-12.8-4.8c-2.9-3-4.5-7-4.4-11.2c-0.1-4.2,1.6-8.3,4.6-11.3C88.2,1.4,92.8-0.3,97.4,0z M97.4,5.7
			c-2.3,0-4.5,0.9-6.1,2.7c-1.8,2.2-2.7,5-2.5,7.9c-0.1,2.7,0.7,5.3,2.5,7.3c1.5,1.8,3.8,2.8,6.1,2.7c2.3,0,4.5-1,6.1-2.7
			c1.8-2.2,2.7-4.9,2.5-7.7c0.1-2.6-0.7-5.2-2.4-7.3C102.1,6.7,99.8,5.7,97.4,5.7z"/>
		<path class="st0" d="M150.4,26.3v5.2h-9.5l-7-13.6h-3.5v8.3h3.9v5.2h-16.2v-5.2h4.3V5.8h-4.3V0.5h18.7c2.8-0.3,5.5,0.7,7.5,2.6
			c1.5,1.6,2.3,3.8,2.3,6c0,3.5-2.1,6.6-5.4,7.7l5,9.4L150.4,26.3z M130.3,13h2.8c3.4,0,5.1-1.2,5.1-3.7c0.1-1-0.4-2.1-1.2-2.7
			c-0.9-0.6-2.1-1-3.2-0.9h-3.5V13z"/>
		<path class="st0" d="M182.2,26.3v5.2H167v-5.2h3.9l-1.5-5.3h-8.1l-1.6,5.3h4.2v5.2h-13.8v-5.2h3.8L160,5.8h-4.1V0.5h20.3v5.2h-4.2
			l6.5,20.6L182.2,26.3z M168.2,16.4l-2.6-9.3l-2.8,9.3H168.2z"/>
		<path class="st0" d="M203.2,21.2v-5.2h14.6c0.2,3.1-0.6,6.2-2,9c-1.4,2.3-3.5,4.1-5.9,5.2c-2.7,1.3-5.7,1.9-8.7,1.8
			c-5.6,0-9.9-1.5-12.9-4.5c-3-3-4.7-7.2-4.5-11.5c-0.1-3,0.7-5.9,2.2-8.5c1.4-2.4,3.5-4.3,6-5.5c2.6-1.2,5.4-1.9,8.2-1.8
			c3.5-0.2,6.9,0.9,9.7,3V0.5h5.3v11h-5.3c-0.5-1.8-1.7-3.4-3.3-4.4c-1.6-1-3.4-1.6-5.3-1.6c-2.4,0-4.7,0.9-6.3,2.6
			c-1.8,2-2.8,4.6-2.6,7.3c-0.2,2.9,0.7,5.9,2.7,8.1c1.7,1.8,4,2.8,6.5,2.8c1.7,0.1,3.3-0.4,4.7-1.4c1.3-0.9,2.2-2.3,2.6-3.8
			L203.2,21.2z"/>
		<path class="st0" d="M221.4,31.6v-5.2h3.7V5.8h-3.7V0.5h27.4v9.9h-5.9V5.8h-9.6v7.2h7.8v5.2h-7.8v8.2h9.6v-4.7h5.9v9.9H221.4z"/>
		<g>
			<g>
				<path class="st0" d="M0,84.6v-5.2h4V58.8H0v-5.2h15.6l6.8,18.2l6.9-18.2h15.9v5.2h-4.1v20.6h4v5.2H29.5v-5.2h3.7V58.8h-0.7
					l-9.6,25.8h-3.3L9.8,58.8H9.1v20.6h4.1v5.2L0,84.6z"/>
				<path class="st0" d="M78.4,79.4v5.2H63v-5.2h4L65.5,74h-8l-1.6,5.3H60v5.2H46.3v-5.2h3.9l6.1-20.6H52v-5.2h20.3v5.2h-4.2
					l6.5,20.6L78.4,79.4z M64.3,69.5l-2.6-9.3l-2.8,9.3H64.3z"/>
				<path class="st0" d="M79.5,84.6v-5.2h4.7V58.8h-4.7v-5.2h14.6c2.5,0,5,0.1,7.5,0.6c2,0.4,3.9,1.3,5.5,2.5
					c1.8,1.4,3.2,3.2,4.2,5.2c1.1,2.3,1.6,4.8,1.6,7.3c0,2.1-0.4,4.2-1.1,6.2c-0.6,1.7-1.5,3.3-2.7,4.7c-1.1,1.2-2.4,2.1-3.9,2.8
					c-1.3,0.6-2.7,1.1-4.1,1.4c-1.9,0.2-3.9,0.4-5.8,0.3L79.5,84.6z M92.3,79.4h1.8c1.9,0.1,3.8-0.2,5.6-0.9
					c1.4-0.7,2.6-1.8,3.3-3.2c0.9-1.9,1.3-4,1.2-6c0.1-2.1-0.4-4.1-1.3-6c-0.7-1.5-1.9-2.7-3.4-3.4c-1.7-0.7-3.6-1-5.5-0.9h-1.9
					L92.3,79.4z"/>
				<path class="st0" d="M116.5,84.6v-5.2h3.7V58.8h-3.7v-5.2h27.4v9.9H138v-4.7h-9.6V66h7.8v5.2h-7.8v8.2h9.6v-4.7h5.9v9.9H116.5z"
					/>
				<path class="st0" d="M158.4,84.6v-5.2h3.7V58.8h-3.7v-5.2h27.4v9.9h-5.9v-4.7h-9.6V66h7.8v5.2h-7.8v8.2h9.6v-4.7h5.9v9.9H158.4z
					"/>
				<path class="st0" d="M219.3,79.4v5.2h-15.3v-5.2h4l-1.5-5.3h-8.1l-1.6,5.3h4.2v5.2h-13.7v-5.2h3.8l6.1-20.6h-4.1v-5.2h20.3v5.2
					h-4.2l6.5,20.6L219.3,79.4z M205.3,69.5l-2.6-9.3l-2.8,9.3H205.3z"/>
				<path class="st0" d="M221.5,84.6V74h5.3c-0.1,1.6,0.5,3.1,1.5,4.3c0.9,0.9,2,1.4,3.3,1.4c0.9,0,1.8-0.3,2.4-1
					c0.7-0.6,1-1.5,1-2.4c0-0.9-0.3-1.8-1-2.4c-1-0.9-2.2-1.7-3.5-2.2c-2.7-1.1-5.1-2.7-7.3-4.6c-1.3-1.5-2-3.4-1.9-5.4
					c-0.1-2.4,0.8-4.7,2.5-6.3c1.6-1.4,3.6-2.2,5.8-2.2c2.3-0.1,4.5,1.1,5.7,3v-2.6h5.2V63h-5.2c-0.1-1.3-0.6-2.5-1.5-3.4
					c-0.8-0.8-1.8-1.2-2.9-1.2c-0.8,0-1.6,0.2-2.2,0.7c-0.6,0.4-0.9,1.1-0.9,1.8c0,0.7,0.3,1.3,0.7,1.8c1.3,1.1,2.7,1.9,4.3,2.4
					c1.8,0.8,3.6,1.7,5.3,2.8c1.2,0.8,2.2,1.9,2.9,3.2c0.7,1.4,1.1,3,1.1,4.6c0.2,2.6-0.8,5.1-2.7,6.9c-1.7,1.5-4,2.3-6.3,2.3
					c-2.5,0.1-4.8-1-6.3-3v2.7L221.5,84.6z"/>
				<path class="st0" d="M251.3,84.6v-5.2h4.4V71l-8.4-12.2h-3.8v-5.2H259v5.2H256l4.5,7.6l4.6-7.6h-3.2v-5.2h13.7v5.2h-3.8l-8,12.2
					v8.4h4.3v5.2H251.3z"/>
			</g>
		</g>
	</g>
</g>
</svg>
