<?xml version="1.0" encoding="utf-8"?>
<!-- Generator: Adobe Illustrator 22.1.0, SVG Export Plug-In . SVG Version: 6.00 Build 0)  -->
<svg version="1.1" id="Layer_1" xmlns="http://www.w3.org/2000/svg" xmlns:xlink="http://www.w3.org/1999/xlink" x="0px" y="0px"
	 viewBox="0 0 487.7 85" style="enable-background:new 0 0 487.7 85;" xml:space="preserve">
<style type="text/css">
	.st0{fill:#231F20;}
</style>
<title>text1</title>
<g id="Layer_2_1_">
	<g id="Layer_1-2">
		<path class="st0" d="M0,32.8v-5.5h4.6V6H0V0.5h28.9v10h-6.2V6H13v7.5h7v5.5h-7v8.4h5v5.5L0,32.8z"/>
		<path class="st0" d="M64.1,27.3v5.5h-9.9l-7.3-14.1h-3.7v8.7h4v5.5H30.4v-5.5h4.4V6h-4.4V0.5h19.5c3.7,0,6.3,0.9,7.9,2.8
			c1.6,1.7,2.4,3.9,2.4,6.3c0,3.6-2.2,6.8-5.6,8l5.2,9.7L64.1,27.3z M43.2,13.5h2.9c3.6,0,5.3-1.3,5.3-3.8c0.1-1.1-0.4-2.1-1.2-2.8
			c-1-0.7-2.2-1-3.4-0.9h-3.7L43.2,13.5z"/>
		<path class="st0" d="M65.5,32.8v-5.5h3.9V6h-3.9V0.5h28.4v10.3h-6.2V6h-10v7.5h8.1v5.5h-8.1v8.5h10v-4.9h6.2v10.3L65.5,32.8z"/>
		<path class="st0" d="M97.2,32.8v-5.5h3.9V6h-3.9V0.5h28.4v10.3h-6.2V6h-10v7.5h8.1v5.5h-8.1v8.5h10v-4.9h6.2v10.3L97.2,32.8z"/>
		<path class="st0" d="M147.7,33l-9.6-27h-3.8V0.5h16.5V6h-4.3l5.5,16.2L157.5,6h-4.2V0.5h14.3V6h-3.9l-9.2,27H147.7z"/>
		<path class="st0" d="M169.1,32.8v-5.5h3.9V6h-3.9V0.5h28.4v10.3h-6.2V6h-10v7.5h8.1v5.5h-8.1v8.5h10v-4.9h6.2v10.3L169.1,32.8z"/>
		<path class="st0" d="M200.7,32.8v-5.5h4V6h-4V0.5h15.6V6h-3.4V13h8.8V6h-3.3V0.5h15.5V6h-4v21.4h4v5.5h-15.5v-5.5h3.3v-8.8h-8.8
			v8.8h3.4v5.5L200.7,32.8z"/>
		<path class="st0" d="M236.3,32.8v-5.5h4.9V6h-4.9V0.5h18.3V6h-4.9v21.4h4.9v5.5L236.3,32.8z"/>
		<path class="st0" d="M284.5,0.5h5.5v11.4h-5.5c-1.6-4.1-4.2-6.1-8-6.1c-2.8-0.2-5.4,1-7.1,3.2c-1.6,2.2-2.5,4.9-2.4,7.7
			c-0.1,2.8,0.8,5.5,2.6,7.6c1.6,1.9,4,3,6.5,2.9c2.1,0,4.1-0.8,5.7-2.2c1.7-1.6,2.9-3.8,3.3-6.1l6.3,3.1
			c-2.4,7.5-7.7,11.2-15.9,11.2c-5.8,0-10.2-1.6-13.1-4.7c-3-3.2-4.6-7.5-4.4-11.8c-0.1-3.1,0.7-6.2,2.2-9c1.5-2.5,3.6-4.5,6.2-5.8
			c2.7-1.3,5.6-2,8.6-1.9c3.5-0.1,6.9,0.9,9.7,3V0.5z"/>
		<path class="st0" d="M293.9,32.8v-5.5h4.6V6h-4.6V0.5h17.7V6h-4.7v21.4h9.5v-10h6.3v15.4L293.9,32.8z"/>
		<path class="st0" d="M324.8,32.8v-5.5h3.9V6h-3.9V0.5h28.4v10.3h-6.2V6h-10v7.5h8.1v5.5h-8.1v8.5h10v-4.9h6.2v10.3L324.8,32.8z"/>
		<path class="st0" d="M368.2,32.8v-5.5h4V6h-4V0.5h15.6V6h-3.4V13h8.8V6H386V0.5h15.5V6h-4v21.4h4v5.5H386v-5.5h3.3v-8.8h-8.8v8.8
			h3.4v5.5L368.2,32.8z"/>
		<path class="st0" d="M403.9,32.8v-5.5h4.9V6h-4.9V0.5h18.2V6h-4.9v21.4h4.9v5.5L403.9,32.8z"/>
		<path class="st0" d="M457.9,27.3v5.5H448l-7.3-14.1H437v8.7h4v5.5h-16.9v-5.5h4.4V6h-4.4V0.5h19.5c3.7,0,6.3,0.9,7.9,2.8
			c1.6,1.7,2.4,3.9,2.4,6.3c0,3.6-2.2,6.8-5.6,8l5.2,9.7L457.9,27.3z M437,13.5h2.9c3.6,0,5.3-1.3,5.3-3.8c0.1-1.1-0.4-2.1-1.2-2.8
			c-1-0.7-2.2-1-3.4-0.9H437L437,13.5z"/>
		<path class="st0" d="M459.3,32.8v-5.5h3.9V6h-3.9V0.5h28.4v10.3h-6.2V6h-10v7.5h8.1v5.5h-8.1v8.5h10v-4.9h6.2v10.3L459.3,32.8z"/>
		<path class="st0" d="M49.1,84.8l-7-24.6h-3.4v-3.4h10.6v3.5H46l5.3,18.1l5.1-18.2h-3.2v-3.4h12.8v3.5h-3.4l5.1,18.2l5.2-18.2h-3.3
			v-3.5h10.3v3.5h-3.3l-7,24.7h-4l-6.3-22l-6.2,22L49.1,84.8z"/>
		<path class="st0" d="M84,81.1V60.2h-3.2v-3.4h10.6v3.5h-3.3v8h12.1v-8h-3.2v-3.4h10.7v3.5h-3.3v20.9h3.2v3.5H97.1v-3.5h3.3v-9.5
			H88.2v9.4h3.3v3.5H80.8v-3.5L84,81.1z"/>
		<path class="st0" d="M113.4,81.1V60.2h-3.6v-3.4H133v8.4h-3.4v-5h-11.9v8.3H128V72h-10.3v9.2h11.9V76h3.4v8.6h-23.1v-3.5
			L113.4,81.1z"/>
		<path class="st0" d="M138.5,81.1V60.2h-4v-3.4h9.5l12.2,21.6V60.2h-4v-3.4h11.4v3.5h-4.1v24.6h-4.3L142,61v20.1h4v3.5h-11.4v-3.5
			H138.5z"/>
		<path class="st0" d="M181.3,81.1v-9.2L173,60.2h-3.4v-3.4h11.4v3.5h-3.5l6.2,8.6l5.6-8.6h-3.5v-3.5h11.1v3.5h-3.7L185.5,72v9.2
			h3.8v3.5h-11.8v-3.5L181.3,81.1z"/>
		<path class="st0" d="M195.5,70.5c-0.1-3.8,1.3-7.4,4-10.1c2.7-2.8,6.5-4.2,10.3-4.1c3.9-0.2,7.7,1.3,10.5,4.1
			c2.7,2.7,4.2,6.4,4,10.2c0.1,3.9-1.4,7.6-4.1,10.3c-2.8,2.7-6.6,4.2-10.5,4.1c-2.6,0-5.2-0.6-7.4-1.9c-2.2-1.2-4-3.1-5.1-5.4
			C196.1,75.5,195.5,73,195.5,70.5z M200.1,70.5c-0.1,2.8,0.9,5.5,2.7,7.7c1.8,2.1,4.4,3.2,7.1,3.1c2.7,0.1,5.3-1.1,7.1-3.2
			c1.8-2.1,2.8-4.8,2.8-7.6c0.1-2.8-1-5.5-2.8-7.5c-1.8-2-4.4-3.1-7.1-3.1c-2.7-0.1-5.2,1-7,3C200.9,65.1,200,67.8,200.1,70.5
			L200.1,70.5z"/>
		<path class="st0" d="M234.4,60.2v13.9c-0.1,1.5,0.1,3,0.3,4.5c0.3,0.9,0.9,1.6,1.6,2.1c1,0.6,2.2,0.9,3.4,0.9
			c1.3,0.1,2.6-0.2,3.8-0.8c0.8-0.4,1.5-1.1,1.8-2c0.4-1.5,0.5-3,0.4-4.5V60.2h-3.2v-3.4h10.9v3.5h-3.5v14.5c0,1.4-0.1,2.9-0.3,4.3
			c-0.2,1-0.7,2-1.4,2.8c-0.8,1-1.9,1.8-3.1,2.3c-1.5,0.6-3.2,0.9-4.9,0.9c-1.8,0.1-3.6-0.2-5.3-0.8c-1.2-0.4-2.3-1.2-3.2-2.2
			c-0.7-0.8-1.2-1.8-1.4-2.9c-0.3-1.6-0.4-3.2-0.3-4.8V60.2h-3.4v-3.4h11v3.5L234.4,60.2z"/>
		<path class="st0" d="M268.6,81.1V60.2h-3.4v-3.4h9.5l7.3,19.1l7.3-19.1h9.6v3.5h-3.4v20.9h3.4v3.5h-10.5v-3.5h3.3v-21l-9.5,24.6
			h-0.8l-9.5-24.7v20.9h3.1v3.5h-9.9v-3.5L268.6,81.1z"/>
		<path class="st0" d="M302.2,70.5c-0.1-3.8,1.3-7.4,4-10.1c2.7-2.8,6.5-4.2,10.3-4.1c3.9-0.2,7.7,1.3,10.5,4.1
			c2.7,2.7,4.2,6.4,4,10.2c0.1,3.9-1.4,7.6-4.1,10.3c-2.8,2.7-6.6,4.2-10.5,4.1c-2.6,0-5.2-0.6-7.4-1.9c-2.2-1.2-4-3.1-5.1-5.4
			C302.8,75.5,302.2,73,302.2,70.5z M306.8,70.5c-0.1,2.8,0.9,5.6,2.7,7.7c1.8,2.1,4.4,3.2,7.1,3.1c2.7,0.1,5.3-1.1,7.1-3.2
			c1.8-2.1,2.8-4.8,2.8-7.6c0.1-2.8-1-5.5-2.8-7.5c-1.8-2-4.4-3.1-7.1-3.1c-2.7-0.1-5.2,1-7,3C307.7,65.1,306.7,67.8,306.8,70.5
			L306.8,70.5z"/>
		<path class="st0" d="M343,84.8l-9.4-24.7h-3.4v-3.4h11v3.5h-3.2L345,79l6.9-18.7h-3.2v-3.5h10.7v3.5H356l-9.2,24.7L343,84.8z"/>
		<path class="st0" d="M364,81.1V60.2h-3.7v-3.4h23.2v8.4h-3.4v-5h-11.9v8.3h10.3V72h-10.3v9.2H380V76h3.4v8.6h-23.1v-3.5L364,81.1z
			"/>
		<path class="st0" d="M399.4,81.1V60.2h-3v-3.4h10.2v3.5h-3v20.9h3v3.5h-10.2v-3.5L399.4,81.1z"/>
		<path class="st0" d="M412.1,81.1V60.2h-4v-3.4h9.5l12.2,21.6V60.2h-3.9v-3.4h11.4v3.5h-4.1v24.6h-4.3L415.5,61v20.1h4v3.5h-11.4
			v-3.5H412.1z"/>
		<path class="st0" d="M441,84.6v-4.9h4.9v4.9H441z M444.4,76.9h-2.1l-1-11.8v-8.4h4v8.5L444.4,76.9z"/>
	</g>
</g>
</svg>
