<svg xmlns="http://www.w3.org/2000/svg" xmlns:xlink="http://www.w3.org/1999/xlink" viewBox="0 0 705.01 326.31"><defs><style>.cls-1{fill:none;}.cls-2{fill:#e6e7e8;}.cls-3{fill:#414042;}.cls-4{fill:#bcbec0;}.cls-5{fill:#edb87d;}.cls-6{fill:#c4854a;}.cls-7{fill:#c98730;}.cls-8{fill:#dba161;}.cls-9{fill:#fff;}.cls-10{fill:#d1d3d4;}.cls-11{clip-path:url(#clip-path);}.cls-12{fill:#333132;}.cls-13{fill:#9d9fa2;}.cls-14{fill:#87a3c1;}.cls-15{fill:#a8c9de;}.cls-16{fill:#b24d3d;}.cls-17{fill:#ff5252;}.cls-18{fill:#272625;}.cls-19{fill:#664f4a;}.cls-20{fill:#87a3c2;}.cls-21{fill:#c2e0f0;}.cls-22{fill:#a6c9db;}.cls-23{fill:#7da1ba;}.cls-24{fill:#6682a3;}.cls-25{fill:#91b0c9;}.cls-26{clip-path:url(#clip-path-3);}.cls-27{fill:#fdd800;}.cls-28{fill:#010101;}</style><clipPath id="clip-path"><rect class="cls-1" width="705.01" height="326.31"/></clipPath><clipPath id="clip-path-3"><rect class="cls-1" x="287.53" y="17.34" width="217.44" height="203.48"/></clipPath></defs><title>truck-half</title><g id="Layer_2" data-name="Layer 2"><g id="Layer_1-2" data-name="Layer 1"><path class="cls-2" d="M571.1,58.64H533.78v27h64a27,27,0,0,0-26.73-27"/><path class="cls-3" d="M575.07,289.46A36.42,36.42,0,1,1,538.65,253a36.42,36.42,0,0,1,36.42,36.42"/><path class="cls-4" d="M560.91,289.46a22.26,22.26,0,1,1-22.26-22.26,22.26,22.26,0,0,1,22.26,22.26"/><path d="M502.23,289.46A36.42,36.42,0,0,1,538.65,253H528.3v0a36.4,36.4,0,0,0,0,72.8v0h10.35a36.42,36.42,0,0,1-36.42-36.42"/><path class="cls-3" d="M283.35,289.46A36.42,36.42,0,1,1,246.93,253a36.42,36.42,0,0,1,36.42,36.42"/><path class="cls-4" d="M269.2,289.46a22.26,22.26,0,1,1-22.26-22.26,22.26,22.26,0,0,1,22.26,22.26"/><path d="M210.52,289.46A36.42,36.42,0,0,1,246.93,253H236.58v0a36.4,36.4,0,0,0,0,72.8v0h10.35a36.42,36.42,0,0,1-36.42-36.42"/><rect class="cls-1" width="705.01" height="326.31"/><rect class="cls-5" x="61.74" y="253.05" width="61.88" height="72.83"/><rect class="cls-6" x="39.63" y="253.05" width="22.12" height="72.83"/><polygon class="cls-7" points="130.53 236.65 68.65 236.65 61.74 253.04 123.62 253.04 130.53 236.65"/><polygon class="cls-6" points="54.83 236.65 32.71 236.65 39.63 253.04 61.74 253.04 54.83 236.65"/><polygon class="cls-8" points="61.74 312.34 61.74 325.87 123.62 325.87 123.62 268.51 61.74 312.34"/><path class="cls-9" d="M679.47,183.32C671,179.64,649.55,170,649.55,170L629,105.83c-3.86-12-13.25-25-32.69-25H553.13V270.86H694.4V199.39c0-10.06-5.75-12.07-14.93-16.07"/><rect class="cls-1" width="705.01" height="326.31"/><rect class="cls-9" x="258.71" width="275.06" height="270.86"/><rect class="cls-10" x="139.84" width="118.87" height="270.86"/><rect class="cls-10" x="533.78" y="58.64" width="19.35" height="235.27"/><g class="cls-11"><path d="M140.53,270.86H258.71v23.5H140.53a7.6,7.6,0,0,1-7.6-7.6v-8.29a7.6,7.6,0,0,1,7.6-7.6"/></g><rect class="cls-12" x="258.71" y="270.86" width="275.07" height="23.5"/><rect class="cls-13" x="156.08" y="23.81" width="86.39" height="247.05"/><polygon class="cls-3" points="165.41 23.81 242.47 261.95 165.41 261.95 165.41 23.81"/><rect class="cls-5" x="202.75" y="201.13" width="39.72" height="60.82"/><rect class="cls-6" x="179.58" y="201.13" width="23.17" height="60.82"/><rect class="cls-5" x="228.56" y="159.59" width="13.91" height="41.54"/><rect class="cls-6" x="196.91" y="159.59" width="31.65" height="41.54"/><polygon class="cls-8" points="235.51 159.59 228.56 201.13 242.47 201.13 242.47 159.59 235.51 159.59"/><polygon class="cls-8" points="228.84 201.13 220.94 250.3 215.34 250.3 215.34 261.95 219.07 261.95 224.67 261.95 242.47 261.95 242.47 201.13 228.84 201.13"/><path class="cls-14" d="M695.35,228.78H682.53A10.57,10.57,0,0,1,672,218.22V200.1h23.38a5.41,5.41,0,0,1,5.41,5.41v17.85a5.41,5.41,0,0,1-5.41,5.41"/><path class="cls-15" d="M695.35,200.1H672v3.62h17a5.41,5.41,0,0,1,5.41,5.41V227a5.44,5.44,0,0,1-.31,1.79h1.26a5.41,5.41,0,0,0,5.41-5.41V205.52a5.41,5.41,0,0,0-5.41-5.41"/><rect class="cls-1" width="705.01" height="326.31"/><g class="cls-11"><path class="cls-16" d="M156.08,255H138a3.34,3.34,0,0,1-3.34-3.34V240a3.34,3.34,0,0,1,3.34-3.34h18.08Z"/><path class="cls-17" d="M278.18,255H242.47V236.65h35.71a3.34,3.34,0,0,1,3.34,3.34v11.64a3.34,3.34,0,0,1-3.34,3.34"/><path class="cls-12" d="M697.41,270.86H553.13v23.5H697.41a7.6,7.6,0,0,0,7.6-7.6v-8.29a7.6,7.6,0,0,0-7.6-7.6"/></g><polygon class="cls-2" points="161.61 316.97 75.22 316.97 156.08 261.95 242.47 261.95 161.61 316.97"/><rect class="cls-10" x="75.22" y="316.97" width="86.39" height="8.91"/><polygon class="cls-9" points="161.61 316.97 161.61 325.87 242.47 270.86 242.47 261.95 161.61 316.97"/><rect class="cls-9" x="155.48" y="23.81" width="9.93" height="238.14"/><rect class="cls-5" x="19.81" y="281.61" width="34.55" height="44.26"/><rect class="cls-6" y="281.61" width="19.81" height="44.26"/><path class="cls-13" d="M161,309.39H98.91a.69.69,0,0,1,0-1.38H161a.69.69,0,1,1,0,1.38"/><path class="cls-13" d="M180.39,296.56H118.25a.69.69,0,0,1,0-1.38h62.13a.69.69,0,1,1,0,1.38"/><path class="cls-13" d="M199.73,283.74H137.6a.69.69,0,0,1,0-1.38h62.13a.69.69,0,1,1,0,1.38"/><path class="cls-13" d="M219.07,270.91H156.94a.69.69,0,0,1,0-1.38h62.13a.69.69,0,1,1,0,1.38"/><path class="cls-18" d="M623,239.07A50.92,50.92,0,0,0,572,290c0,1.56.07,3.11.22,4.64H673.68c.14-1.53.22-3.07.22-4.64A50.92,50.92,0,0,0,623,239.07"/><path class="cls-19" d="M659.39,289.73A36.42,36.42,0,1,1,623,253.32a36.42,36.42,0,0,1,36.42,36.42"/><path class="cls-3" d="M659.39,289.73A36.42,36.42,0,1,1,623,253.32a36.42,36.42,0,0,1,36.42,36.42"/><path class="cls-4" d="M645.24,289.73A22.26,22.26,0,1,1,623,267.47a22.26,22.26,0,0,1,22.26,22.26"/><path d="M586.56,289.73A36.42,36.42,0,0,1,623,253.32H612.62v0a36.4,36.4,0,0,0,0,72.8v0H623a36.42,36.42,0,0,1-36.42-36.42"/><path class="cls-13" d="M633.73,289.73a14.64,14.64,0,1,1-14.64-14.64,14.64,14.64,0,0,1,14.64,14.64"/><path class="cls-9" d="M660.66,121,654,98.87a6,6,0,0,0-5.71-4.07H620.37v5.87h18.44l8.34,25.22h10a3.69,3.69,0,0,0,3.49-4.9"/><polygon class="cls-10" points="638.8 100.67 641.53 100.67 650 125.89 647.15 125.89 638.8 100.67"/><rect class="cls-16" x="242.47" y="236.65" width="16.24" height="18.31"/><path class="cls-17" d="M678.68,243.6h18.73v6.79H678.68a3.36,3.36,0,0,1-3.36-3.36V247a3.36,3.36,0,0,1,3.36-3.36"/><path class="cls-17" d="M678.68,256.8h18.73v6.79H678.68a3.36,3.36,0,0,1-3.36-3.36v-.07a3.36,3.36,0,0,1,3.36-3.36"/><path class="cls-15" d="M614.81,107.63l-.06-.18a21.31,21.31,0,0,0-20.31-14.52H569.57c-2.67,0-4.49,2.36-4.49,5.11v66.24a5.44,5.44,0,0,0,5.59,5.67h64.15Z"/><path class="cls-20" d="M570.67,170h64.15L629,151.89H565.08v12.39a5.44,5.44,0,0,0,5.59,5.67"/><path class="cls-21" d="M594.45,92.94H569.57c-2.68,0-4.5,2.36-4.5,5.11v66.24a5.7,5.7,0,0,0,1.3,3.77L611,100.68a21.51,21.51,0,0,0-16.56-7.74"/><path class="cls-22" d="M565.08,151.84v12.45a5.71,5.71,0,0,0,1.3,3.77l10.74-16.22Z"/><path d="M672,270.86h12.45v23.5H672a7.6,7.6,0,0,1-7.6-7.6v-8.29a7.6,7.6,0,0,1,7.6-7.6"/><path class="cls-23" d="M597.52,93.15h0m0,0h0m0,0h0m0,0a21.49,21.49,0,0,1,13.35,7.5l-4.35,6.56a25.77,25.77,0,0,1,1.37,3.29c1.54,4.5,8.32,25.59,13.38,41.38H629l5.8,18.06-20-62.32-.06-.18-.07-.21a21.25,21.25,0,0,0-17-14.07"/><path class="cls-24" d="M629,151.89H621.4C624.65,162,627.19,170,627.19,170h7.62Z"/><path class="cls-25" d="M594.45,92.94H569.57c-2.58,0-4.37,2.21-4.49,4.83,0,.09,0,.18,0,.27v.76H591.8c7.72,0,12.15,3.07,14.86,8.43l4.34-6.56a21.46,21.46,0,0,0-13.35-7.5h-.14a21.58,21.58,0,0,0-3.07-.22"/><path class="cls-18" d="M352.51,239.1A50.89,50.89,0,0,0,301.62,290c0,1.56.07,3.11.21,4.64H403.18c.14-1.53.21-3.07.21-4.64A50.89,50.89,0,0,0,352.51,239.1Z"/><path d="M316.11,289.73a36.39,36.39,0,0,1,36.39-36.39H342.16v0a36.38,36.38,0,0,0,0,72.75v0h10.35A36.39,36.39,0,0,1,316.11,289.73Z"/><circle class="cls-3" cx="352.51" cy="289.73" r="36.39"/><circle class="cls-4" cx="352.51" cy="289.73" r="22.25"/><circle class="cls-13" cx="348.63" cy="289.73" r="14.63"/><g class="cls-26"><polygon class="cls-27" points="498.61 214.65 293.79 214.56 293.88 23.61 498.7 23.7 498.61 214.65 498.61 214.65"/><path class="cls-28" d="M293.79,214.56l204.82.09.09-191-204.82-.09-.09,191Zm211.08,6.26H287.53l.09-203.47,217.35.1-.09,203.38Z"/></g><path class="cls-28" d="M481.62,184.13H477v-3.59h-7.51v5.6h6.06v4.09h-6.06v6.36H477V193h4.63v7.72H460.25v-4.1h2.91V180.53h-2.91v-4.09h21.36v7.68Zm-24.55,11.3a10.89,10.89,0,0,1-4.64,4.05,15.32,15.32,0,0,1-6.82,1.48q-6.57,0-10.08-3.52A12.13,12.13,0,0,1,432,188.5a12.6,12.6,0,0,1,1.75-6.65,11.21,11.21,0,0,1,4.69-4.35,14.09,14.09,0,0,1,6.39-1.46q4.88,0,7.6,2.37v-2h4.11V185h-4.11a6,6,0,0,0-2.57-3.44,7.39,7.39,0,0,0-4.11-1.26,6.68,6.68,0,0,0-4.93,2.05,7.66,7.66,0,0,0-2,5.67c0,2.77.68,4.88,2.07,6.32a6.72,6.72,0,0,0,5.05,2.17,6,6,0,0,0,3.65-1.06,5.44,5.44,0,0,0,2-3H447.3v-4.1h11.36a13.18,13.18,0,0,1-1.6,7Zm-25.33,5.23H419.82v-4.1h3.1l-1.15-4.16h-6.29l-1.29,4.16h3.24v4.1h-18L394,190h-2.78v6.51h3v4.1H381.58v-4.1h3.33V180.49h-3.33V176.4h14.62q4.13,0,5.95,2.08A6.94,6.94,0,0,1,404,183.2q0,4.13-4.2,6l3.93,7.32h6l4.73-16h-3.22v-4.09H427v4.09h-3.26l5.09,16.05h2.89v4.1Zm-55.56-3.35q-3.61,3.62-9.87,3.61-6.5,0-10-3.73a12.34,12.34,0,0,1-3.48-8.74,12.09,12.09,0,0,1,3.59-8.83Q360,176,366.32,176t9.88,3.63a12.63,12.63,0,0,1,0,17.67Zm-25.28-11.19h-4.12v-5.65H343v16.05h3.64v4.1h-13.6v-4.1h3.65V180.47h-3.64v5.65h-4.17v-9.74h22v9.74Zm-25.9,13a7.31,7.31,0,0,1-4.95,1.8,5.74,5.74,0,0,1-4.92-2.36v2.06H311v-8.26h4.11a4.65,4.65,0,0,0,1.19,3.34,3.57,3.57,0,0,0,2.54,1.08,2.56,2.56,0,0,0,1.89-.78,2.53,2.53,0,0,0,.77-1.83,2.56,2.56,0,0,0-.75-1.87,10.85,10.85,0,0,0-2.74-1.73,21.05,21.05,0,0,1-5.71-3.58,5.76,5.76,0,0,1-1.5-4.19,6.23,6.23,0,0,1,2-4.93,6.67,6.67,0,0,1,4.52-1.74,5.15,5.15,0,0,1,4.47,2.26v-2h4.1v7.37h-4.1a4.1,4.1,0,0,0-1.17-2.64,3.23,3.23,0,0,0-2.29-.93,2.71,2.71,0,0,0-1.71.54,1.69,1.69,0,0,0-.69,1.41,2.15,2.15,0,0,0,.57,1.42,11.61,11.61,0,0,0,3.37,1.9,28,28,0,0,1,4.12,2.17,7,7,0,0,1,2.27,2.51,7.35,7.35,0,0,1,.84,3.57,6.78,6.78,0,0,1-2.1,5.41ZM300.79,170l0,37,190.87.09,0-37L300.79,170Zm65.53,10.48a6.19,6.19,0,0,0-4.73,2.09q-1.95,2.09-1.95,6.13a8.25,8.25,0,0,0,1.91,5.72,6.13,6.13,0,0,0,4.75,2.15,6.25,6.25,0,0,0,4.74-2.1,10.07,10.07,0,0,0,.09-11.79,6,6,0,0,0-4.83-2.2Zm50.26,8.4h4.2l-2-7.3-2.18,7.3Zm-20.1-7.64a4.05,4.05,0,0,0-2.52-.7h-2.74v5.66h2.17c2.66,0,4-.95,4-2.86a2.49,2.49,0,0,0-.92-2.11Z"/><polygon class="cls-28" points="301.61 163.12 301.61 159.13 304.78 159.13 304.79 143.45 301.62 143.45 301.62 139.45 311.57 139.45 320.28 154.22 320.28 143.46 317.2 143.46 317.2 139.46 327.83 139.46 327.82 143.46 324.51 143.46 324.5 163.31 319.22 163.31 309.01 145.75 309.01 159.13 311.99 159.13 311.99 163.13 301.61 163.12 301.61 163.12"/><path class="cls-28" d="M341.12,151.6l-2-7.13L337,151.6Zm10.71,7.55v4H340.19v-4h3l-1.12-4.07H336l-1.27,4.07h3.17v4H327.37v-4h2.93l4.62-15.68h-3.15v-4h15.46v4H344l5,15.68Z"/><polygon class="cls-28" points="355.9 163.15 355.9 159.15 359.46 159.15 359.46 143.47 355.91 143.47 355.9 148.99 351.83 148.98 351.84 139.47 373.31 139.48 373.3 148.99 369.28 148.99 369.29 143.48 365.62 143.48 365.62 159.16 369.17 159.16 369.17 163.15 355.9 163.15 355.9 163.15"/><polygon class="cls-28" points="375.45 163.15 375.45 159.16 379.04 159.16 379.05 143.48 375.46 143.48 375.46 139.48 388.84 139.49 388.84 143.49 385.21 143.49 385.2 159.16 388.83 159.17 388.83 163.16 375.45 163.15 375.45 163.15"/><path class="cls-28" d="M403.44,143.45a6.07,6.07,0,0,0-4.62,2,8.53,8.53,0,0,0-1.9,6,8.09,8.09,0,0,0,1.87,5.58,6,6,0,0,0,4.65,2.09,6.07,6.07,0,0,0,4.63-2.05,9.81,9.81,0,0,0,.09-11.51,5.91,5.91,0,0,0-4.72-2.15Zm0-4.33q6.13,0,9.65,3.55a12.36,12.36,0,0,1,0,17.27q-3.53,3.53-9.64,3.53-6.35,0-9.75-3.64a12.08,12.08,0,0,1-3.4-8.54,11.82,11.82,0,0,1,3.5-8.62q3.5-3.54,9.66-3.55Z"/><polygon class="cls-28" points="417.34 163.17 417.35 159.18 420.51 159.18 420.52 143.5 417.35 143.5 417.35 139.5 427.3 139.5 436 154.27 436.01 143.51 432.93 143.51 432.93 139.51 443.55 139.51 443.55 143.51 440.23 143.51 440.22 163.36 434.94 163.36 424.74 145.8 424.73 159.18 427.71 159.18 427.71 163.18 417.34 163.17 417.34 163.17"/><path class="cls-28" d="M456.77,151.65l-2-7.13-2.13,7.13Zm10.71,7.55v4H455.83v-4h3l-1.12-4.07H451.6l-1.26,4.07h3.17v4H443v-4h2.93l4.62-15.68h-3.15v-4h15.46v4h-3.18l5,15.68Z"/><polygon class="cls-28" points="469.68 163.2 469.68 159.2 473.07 159.2 473.07 143.53 469.69 143.52 469.69 139.52 482.69 139.53 482.69 143.53 479.24 143.53 479.23 159.21 486.23 159.21 486.23 151.89 490.84 151.89 490.84 163.21 469.68 163.2 469.68 163.2"/><rect class="cls-6" x="301.13" y="212.78" width="30.41" height="90.31"/><rect class="cls-5" x="253.02" y="254.53" width="70.91" height="71.78"/><polygon class="cls-8" points="253.02 326.31 323.94 326.31 323.94 254.53 253.02 326.31"/><rect class="cls-6" x="222.61" y="254.53" width="30.41" height="71.78"/><rect class="cls-8" x="270.84" y="299.46" width="12.52" height="11.06"/><rect class="cls-5" x="292.55" y="303.09" width="87.08" height="23.22"/><rect class="cls-6" x="275.96" y="303.09" width="16.59" height="23.22"/><rect class="cls-5" x="331.54" y="212.78" width="34.19" height="90.48"/></g></g></svg>