<svg xmlns="http://www.w3.org/2000/svg" viewBox="0 0 148.2 31.83"><defs><style>.cls-1{fill:#a5714e;}</style></defs><title>t1-en-200</title><g id="Layer_2" data-name="Layer 2"><g id="Layer_1-2" data-name="Layer 1"><path class="cls-1" d="M8.14.26V10.68L.57,2.81v7.7H0V.09L7.56,8V.26Z"/><path class="cls-1" d="M16.51,7.49h-4l-1.24,3h-.59L15,0l4.31,10.51H17.75Zm-3.73-.57h3.5L14.53,2.64Z"/><path class="cls-1" d="M27.81.84H24.67v9.67h-1.5V.84H20V.26h7.78Z"/><path class="cls-1" d="M37.94,6.35a4.45,4.45,0,0,1-1.09,3.49,3.53,3.53,0,0,1-2.53.84,4.24,4.24,0,0,1-2.74-.82c-1-.9-1.28-2.11-1.28-4.17V.26h1.51V6c0,1.81.07,2.68.58,3.33a2.27,2.27,0,0,0,1.93.8,3,3,0,0,0,2.1-.67,4,4,0,0,0,.94-3.11V.26h.58Z"/><path class="cls-1" d="M42.77,6l5.42,4.52h-.86l-5-4.16v4.16H40.83V.26h2.88c2,0,3.74.83,3.74,2.87S45.75,6,43.71,6Zm.56-.58c1.79,0,2.52-.76,2.52-2.28S45.12.84,43.33.84h-1V5.41Z"/><path class="cls-1" d="M55.59,7.49h-4l-1.23,3H49.8L54.1,0l4.31,10.51H56.83Zm-3.73-.57h3.5L53.61,2.64Z"/><path class="cls-1" d="M61,.26h1.51V9.93h3.95v.58H61Z"/><path class="cls-1" d="M69.14.26h1.51V9.93h4v.58H69.14Z"/><path class="cls-1" d="M78.52,5.91,75.18.26H76.9l2.92,5,2.92-5h.66L80,6v4.48h-1.5Z"/><path class="cls-1" d="M95.48,1.36A4,4,0,0,0,93.33.69c-1,0-1.83.44-1.83,1.32s.78,1.38,2,2.22c1.76,1.19,3,2.09,3,3.7,0,2.07-2,2.7-3.51,2.7a4.92,4.92,0,0,1-3-.92V8.84a4.6,4.6,0,0,0,3,1.21c1.27,0,2.13-.62,2.13-1.69s-.66-1.59-2.07-2.59c-1.74-1.25-2.8-2-2.8-3.35,0-1.64,1.56-2.3,3.08-2.3a5.54,5.54,0,0,1,2.14.42Z"/><path class="cls-1" d="M100.71.84V5h3.75v.58h-3.75V9.93h4.49v.58h-6V.26h6V.84Z"/><path class="cls-1" d="M110,6l5.43,4.52h-.86l-5-4.16v4.16H108V.26h2.87c2,0,3.74.83,3.74,2.87S113,6,110.91,6Zm.56-.58c1.79,0,2.53-.76,2.53-2.28S112.32.84,110.53.84h-1V5.41Z"/><path class="cls-1" d="M119.17.84V5h3.76v.58h-3.76V9.93h4.49v.58h-6V.26h6V.84Z"/><path class="cls-1" d="M134.64.26V10.68l-7.57-7.87v7.7h-.57V.09L134.07,8V.26Z"/><path class="cls-1" d="M139.19.84V5h3.75v.58h-3.75V9.93h4.48v.58h-6V.26h6V.84Z"/><path class="cls-1" d="M147,12.23a1.92,1.92,0,0,0,.59-1.33,1.5,1.5,0,0,0-.06-.42.66.66,0,0,1-.45.16.71.71,0,0,1-.75-.73.82.82,0,0,1,.86-.81c.64,0,1,.58,1,1.37A2.64,2.64,0,0,1,147,12.65Z"/><path class="cls-1" d="M7.32,21.42l3.21,7.79,3.23-7.79h.58L10,31.83,5.73,21.42Z"/><path class="cls-1" d="M17,21.42h1.51V31.66H17Z"/><path class="cls-1" d="M21.6,31.66V21.42h2.18c1.92,0,3.42.58,3.42,2.22a2.16,2.16,0,0,1-1.6,2.08c1.71.33,2.88,1.4,2.88,3,0,2-1.87,3-4,3ZM23.11,22v3.57h.79a1.66,1.66,0,0,0,1.89-1.85c0-1-.47-1.72-1.89-1.72Zm0,4.14v4.95h1.21a2.25,2.25,0,0,0,2.57-2.42,2.34,2.34,0,0,0-2.57-2.53Z"/><path class="cls-1" d="M33,27.14l5.43,4.52h-.86l-5-4.16v4.16h-1.5V21.42h2.87c2,0,3.74.82,3.74,2.86s-1.7,2.86-3.74,2.86Zm.56-.57c1.79,0,2.53-.77,2.53-2.29S35.34,22,33.55,22h-1v4.58Z"/><path class="cls-1" d="M45.81,28.64h-4l-1.24,3H40l4.31-10.51,4.3,10.51H47.05Zm-3.73-.57h3.5l-1.75-4.28Z"/><path class="cls-1" d="M59.37,21.42V31.83L51.81,24v7.7h-.58V21.24l7.57,7.87V21.42Z"/><path class="cls-1" d="M69.85,22H66.72v9.67h-1.5V22H62.08v-.57h7.77Z"/><path class="cls-1" d="M72.56,21.42h1.51v9.66h4v.58H72.56Z"/><path class="cls-1" d="M81.94,27.06l-3.33-5.64h1.72l2.92,5,2.92-5h.66l-3.38,5.76v4.48H81.94Z"/><path class="cls-1" d="M101.21,27.5A4.45,4.45,0,0,1,100.12,31a3.49,3.49,0,0,1-2.53.84A4.24,4.24,0,0,1,94.85,31c-1-.9-1.28-2.11-1.28-4.17V21.42h1.51v5.71c0,1.81.07,2.68.58,3.34a2.27,2.27,0,0,0,1.93.79,3,3,0,0,0,2.1-.67,4,4,0,0,0,.94-3.11V21.42h.58Z"/><path class="cls-1" d="M106,27.14l5.42,4.52h-.86l-5-4.16v4.16H104.1V21.42H107c2,0,3.75.82,3.75,2.86S109,27.14,107,27.14Zm.56-.57c1.79,0,2.52-.77,2.52-2.29S108.39,22,106.6,22h-1v4.58Z"/><path class="cls-1" d="M113.75,31.66V21.42h2.18c1.91,0,3.42.58,3.42,2.22a2.17,2.17,0,0,1-1.61,2.08c1.71.33,2.88,1.4,2.88,3,0,2-1.87,3-4,3Zm1.5-9.67v3.57h.8a1.67,1.67,0,0,0,1.89-1.85c0-1-.48-1.72-1.89-1.72Zm0,4.14v4.95h1.21A2.25,2.25,0,0,0,119,28.66a2.34,2.34,0,0,0-2.57-2.53Z"/><path class="cls-1" d="M128.09,28.64h-4l-1.24,3h-.58l4.3-10.51,4.31,10.51h-1.59Zm-3.74-.57h3.5l-1.75-4.28Z"/><path class="cls-1" d="M141.65,21.42V31.83L134.08,24v7.7h-.57V21.24l7.56,7.87V21.42Z"/></g></g></svg>