<svg xmlns="http://www.w3.org/2000/svg" viewBox="0 0 132.6 55.24"><defs><style>.cls-1{fill:#fff;}</style></defs><title>t-white-300</title><g id="Layer_2" data-name="Layer 2"><g id="Layer_1-2" data-name="Layer 1"><path class="cls-1" d="M.17,31.93H1l2.55,7h0l2.53-7h.8L4,39.79H3.08Z"/><path class="cls-1" d="M7.44,31.93h.69V33H7.44Zm0,2.18h.69v5.68H7.44Z"/><path class="cls-1" d="M12.86,35.77c0-.85-.69-1.24-1.49-1.24-.61,0-1.34.24-1.34,1s.71.84,1.18,1l.92.21a1.66,1.66,0,0,1,1.62,1.57c0,1.23-1.22,1.7-2.28,1.7a2.05,2.05,0,0,1-2.33-2h.69a1.5,1.5,0,0,0,1.68,1.42c.65,0,1.55-.29,1.55-1.08s-.62-.88-1.25-1l-.89-.2c-.9-.24-1.58-.55-1.58-1.52,0-1.15,1.13-1.59,2.13-1.59a1.85,1.85,0,0,1,2.08,1.82Z"/><path class="cls-1" d="M14.76,31.93h.7V33h-.7Zm0,2.18h.7v5.68h-.7Z"/><path class="cls-1" d="M17.89,34.11H19v.59H17.89v3.82c0,.45.06.72.56.75a5.83,5.83,0,0,0,.59,0v.59c-.21,0-.41,0-.61,0-.93,0-1.25-.31-1.24-1.28V34.7h-1v-.59h1v-1.7h.7Z"/><path class="cls-1" d="M.94,47.3H2.19v6.17c0,1.14-.45,1.77-1.63,1.77a4.18,4.18,0,0,1-.56,0v-1a4,4,0,0,0,.43,0c.46,0,.51-.27.51-.83Zm0-2.17H2.19v1.19H.94Z"/><path class="cls-1" d="M3.29,50.14a2.74,2.74,0,0,1,2.87-3,2.74,2.74,0,0,1,2.87,3,2.74,2.74,0,0,1-2.87,3A2.74,2.74,0,0,1,3.29,50.14Zm4.49,0c0-1-.5-2-1.62-2s-1.62,1-1.62,2,.5,2,1.62,2S7.78,51.13,7.78,50.14Z"/><path class="cls-1" d="M9.81,50.14a2.75,2.75,0,0,1,2.87-3,2.74,2.74,0,0,1,2.87,3,2.74,2.74,0,0,1-2.87,3A2.75,2.75,0,0,1,9.81,50.14Zm4.49,0c0-1-.49-2-1.62-2s-1.61,1-1.61,2,.49,2,1.61,2S14.3,51.13,14.3,50.14Z"/><path class="cls-1" d="M16.6,47.3h1.19v.84l0,0a2,2,0,0,1,1.77-1,1.8,1.8,0,0,1,2,1.93V53H20.34V49.41c0-.89-.37-1.27-1.11-1.27a1.39,1.39,0,0,0-1.38,1.49V53H16.6Z"/><path class="cls-1" d="M28.27,53H27.08v-.77h0a1.88,1.88,0,0,1-1.76.92c-1.79,0-2.66-1.33-2.66-3,0-2.06,1.22-3,2.46-3A2.17,2.17,0,0,1,27,48h0V45.13h1.25Zm-2.8-.84c1.12,0,1.59-1,1.59-2,0-1.25-.6-2-1.57-2-1.18,0-1.6,1-1.6,2.07S24.38,52.15,25.47,52.15Z"/><path class="cls-1" d="M34.4,51.72c0,.31.06.43.29.43a1.9,1.9,0,0,0,.31,0V53a2.91,2.91,0,0,1-.79.14c-.51,0-.87-.17-1-.69a2.93,2.93,0,0,1-2,.69,1.72,1.72,0,0,1-1.94-1.66c0-1.42,1.13-1.65,2.19-1.77.9-.16,1.7-.07,1.7-.8s-.67-.77-1.18-.77c-.7,0-1.2.28-1.25.9H29.53c.09-1.46,1.34-1.89,2.59-1.89s2.28.45,2.28,1.65Zm-1.26-1.58a4.54,4.54,0,0,1-1.54.34c-.54.09-1,.29-1,1s.71.72,1.15.72,1.41-.28,1.41-1.07Z"/><path class="cls-1" d="M35.78,45.13H37V53H35.78Z"/><path class="cls-1" d="M43.4,53H42.16V52.2h0a1.91,1.91,0,0,1-1.62.94c-1.48,0-2.12-.74-2.12-2.23V47.3h1.25v3.49c0,1,.41,1.36,1.09,1.36,1,0,1.4-.67,1.4-1.55V47.3H43.4Z"/><path class="cls-1" d="M44.75,47.3h1.19v.77h0a1.89,1.89,0,0,1,1.76-.92c1.79,0,2.66,1.36,2.66,3s-.77,3-2.45,3A2.22,2.22,0,0,1,46,52.25h0v2.84H44.75Zm2.8.84c-1,0-1.59.8-1.59,2s.58,2,1.59,2,1.58-1,1.58-2S48.59,48.14,47.55,48.14Z"/><path class="cls-1" d="M51.53,51.5h1.53V53H51.53Z"/><path class="cls-1" d="M54,47.3h1.33l1.11,4.25h0l1.07-4.25h1.26l1,4.25h0L61,47.3h1.28L60.47,53H59.18l-1.06-4.23h0l-1,4.23H55.74Z"/><path class="cls-1" d="M67.82,51.72c0,.31.06.43.29.43a1.9,1.9,0,0,0,.31,0V53a3,3,0,0,1-.79.14c-.51,0-.87-.17-1-.69a2.93,2.93,0,0,1-2,.69,1.73,1.73,0,0,1-1.95-1.66c0-1.42,1.14-1.65,2.19-1.77.9-.16,1.71-.07,1.71-.8s-.67-.77-1.18-.77c-.7,0-1.2.28-1.25.9H63c.09-1.46,1.33-1.89,2.59-1.89,1.11,0,2.28.45,2.28,1.65Zm-1.26-1.58a4.54,4.54,0,0,1-1.54.34c-.54.09-1,.29-1,1s.71.72,1.15.72,1.41-.28,1.41-1.07Z"/><path class="cls-1" d="M69.27,51.5H70.8V53H69.27Z"/><path class="cls-1" d="M77.48,52.69c0,1.71-1,2.55-2.79,2.55-1.14,0-2.43-.44-2.54-1.77H73.4c.16.72.73.84,1.37.84a1.29,1.29,0,0,0,1.46-1.45V52h0a1.94,1.94,0,0,1-1.71,1C72.7,53,72,51.63,72,50a2.63,2.63,0,0,1,2.57-2.85,1.79,1.79,0,0,1,1.69.93h0V47.3h1.25ZM76.23,50c0-1-.44-1.88-1.53-1.88s-1.5,1-1.5,2S73.66,52,74.7,52,76.23,51,76.23,50Z"/><path class="cls-1" d="M78.48,50.14a2.88,2.88,0,1,1,2.88,3A2.75,2.75,0,0,1,78.48,50.14Zm4.49,0c0-1-.49-2-1.61-2s-1.62,1-1.62,2,.49,2,1.62,2S83,51.13,83,50.14Z"/><path class="cls-1" d="M84.71,47.3h1.36l1.45,4.37h0l1.38-4.37h1.3l-2,5.69H86.78Z"/><path class="cls-1" d="M90.28,51.5h1.53V53H90.28Z"/><path class="cls-1" d="M98,51.72c0,.31.06.43.3.43a1.85,1.85,0,0,0,.3,0V53a2.91,2.91,0,0,1-.79.14c-.5,0-.87-.17-1-.69a2.91,2.91,0,0,1-2,.69,1.72,1.72,0,0,1-1.94-1.66c0-1.42,1.13-1.65,2.19-1.77.9-.16,1.7-.07,1.7-.8s-.67-.77-1.18-.77c-.7,0-1.19.28-1.25.9H93.14c.08-1.46,1.33-1.89,2.58-1.89S98,47.6,98,48.8Zm-1.26-1.58a4.54,4.54,0,0,1-1.54.34c-.53.09-1,.29-1,1s.72.72,1.16.72,1.4-.28,1.4-1.07Z"/><path class="cls-1" d="M104.35,53h-1.24V52.2h0a1.91,1.91,0,0,1-1.62.94c-1.48,0-2.12-.74-2.12-2.23V47.3h1.25v3.49c0,1,.41,1.36,1.09,1.36,1,0,1.4-.67,1.4-1.55V47.3h1.26Z"/><path class="cls-1" d="M107.92,45h1.2L106,53.18h-1.2Z"/><path class="cls-1" d="M109.68,45.13h1.38v3.13h3.57V45.13H116V53h-1.38V49.45h-3.57V53h-1.38Z"/><path class="cls-1" d="M124.76,49.06c0,2.25-1.41,4.12-3.76,4.12s-3.76-1.87-3.76-4.12S118.64,45,121,45,124.76,46.82,124.76,49.06Zm-6.15,0c0,1.51.71,3,2.39,3s2.39-1.48,2.39-3-.71-3-2.39-3S118.61,47.55,118.61,49.06Z"/><path class="cls-1" d="M128.12,45.13h1.46l3,7.86h-1.47l-.74-2.08h-3.13L126.52,53H125.1Zm-.49,4.74H130l-1.18-3.38h0Z"/><path class="cls-1" d="M6.94,2.93A2.06,2.06,0,0,0,4.8,1.22C3,1.22,2.2,2.84,2.2,4.49S3,7.75,4.8,7.75A2.2,2.2,0,0,0,7,5.51H8.45A3.5,3.5,0,0,1,4.8,9C2.23,9,.7,6.93.7,4.49S2.23,0,4.8,0C6.73,0,8.26,1.08,8.44,2.93Z"/><path class="cls-1" d="M9.23,5.66A3,3,0,0,1,12.36,2.4a3,3,0,0,1,3.13,3.26,3,3,0,0,1-3.13,3.28A3,3,0,0,1,9.23,5.66Zm4.9,0c0-1.07-.55-2.18-1.77-2.18S10.6,4.59,10.6,5.66s.54,2.2,1.76,2.2S14.13,6.74,14.13,5.66Z"/><path class="cls-1" d="M16.53,2.57h1.29v.86h0a2.08,2.08,0,0,1,1.91-1,1.74,1.74,0,0,1,1.73,1,2.24,2.24,0,0,1,1.95-1,1.82,1.82,0,0,1,2.07,2.09V8.77H24.16V5.15c0-1-.06-1.67-1.13-1.67s-1.32.61-1.32,1.65V8.77H20.34v-4c0-.86-.26-1.31-1.09-1.31a1.44,1.44,0,0,0-1.36,1.61V8.77H16.53Z"/><path class="cls-1" d="M26.86,2.57h1.29v.86h0a2.08,2.08,0,0,1,1.91-1,1.76,1.76,0,0,1,1.74,1,2.22,2.22,0,0,1,1.94-1c1.31,0,2.07.57,2.07,2.09V8.77H34.49V5.15c0-1-.06-1.67-1.13-1.67S32,4.09,32,5.13V8.77H30.67v-4c0-.86-.26-1.31-1.09-1.31a1.43,1.43,0,0,0-1.35,1.61V8.77H26.86Z"/><path class="cls-1" d="M42.62,8.77H41.28V7.9h0a2.08,2.08,0,0,1-1.77,1c-1.62,0-2.31-.82-2.31-2.44V2.57h1.37v3.8c0,1.09.44,1.49,1.18,1.49,1.14,0,1.53-.74,1.53-1.69V2.57h1.36Z"/><path class="cls-1" d="M44,2.57h1.29v.91l0,0a2.22,2.22,0,0,1,1.93-1.1A2,2,0,0,1,49.4,4.51V8.77H48V4.87c0-1-.41-1.39-1.21-1.39a1.51,1.51,0,0,0-1.5,1.63V8.77H44Z"/><path class="cls-1" d="M50.77.2h1.37V1.5H50.77Zm0,2.37h1.37v6.2H50.77Z"/><path class="cls-1" d="M52.89,2.57h1V.71h1.37V2.57h1.23v1H55.29V6.9c0,.56,0,.85.66.85a2.2,2.2,0,0,0,.57,0V8.76c-.3,0-.59.07-.89.07-1.42,0-1.69-.55-1.71-1.59V3.59h-1Z"/><path class="cls-1" d="M56.72,2.57h1.49L59.83,7.2h0l1.57-4.63h1.43L60.45,9.1c-.45,1.12-.77,2.13-2.2,2.13a6,6,0,0,1-1-.08V10a3.63,3.63,0,0,0,.65.09c.64,0,.79-.34,1-.87l.16-.48Z"/><path class="cls-1" d="M70.91,4.64a1.32,1.32,0,0,0-1.42-1.16c-.7,0-1.7.37-1.7,2.25,0,1,.46,2.13,1.64,2.13a1.47,1.47,0,0,0,1.48-1.42h1.37a2.68,2.68,0,0,1-2.85,2.5,2.92,2.92,0,0,1-3-3.21c0-1.87,1-3.33,3.06-3.33a2.52,2.52,0,0,1,2.8,2.24Z"/><path class="cls-1" d="M73,5.66a3.13,3.13,0,1,1,6.26,0,3.13,3.13,0,1,1-6.26,0Zm4.89,0c0-1.07-.54-2.18-1.76-2.18s-1.77,1.11-1.77,2.18.54,2.2,1.77,2.2S77.88,6.74,77.88,5.66Z"/><path class="cls-1" d="M80.28,2.57h1.3v.91l0,0a2.23,2.23,0,0,1,1.93-1.1,2,2,0,0,1,2.2,2.11V8.77H84.36V4.87c0-1-.41-1.39-1.21-1.39a1.51,1.51,0,0,0-1.5,1.63V8.77H80.28Z"/><path class="cls-1" d="M88.09,6.78c.08.79.68,1.08,1.41,1.08.51,0,1.41-.11,1.38-.82s-1-.8-2-1-2-.58-2-1.84S88.32,2.4,89.45,2.4s2.42.53,2.59,1.91H90.61c-.12-.65-.66-.83-1.26-.83-.39,0-1.12.09-1.12.63s1,.77,2,1,2,.59,2,1.81c0,1.48-1.48,2-2.77,2-1.56,0-2.72-.7-2.74-2.16Z"/><path class="cls-1" d="M98.62,8.77H97.27V7.9h0a2.08,2.08,0,0,1-1.76,1c-1.62,0-2.32-.82-2.32-2.44V2.57h1.37v3.8c0,1.09.44,1.49,1.19,1.49,1.13,0,1.52-.74,1.52-1.69V2.57h1.37Z"/><path class="cls-1" d="M100,.2h1.36V8.77H100Z"/><path class="cls-1" d="M102.1,2.57h1V.71h1.37V2.57h1.23v1H104.5V6.9c0,.56,0,.85.66.85a2.2,2.2,0,0,0,.57,0V8.76c-.3,0-.58.07-.88.07-1.43,0-1.7-.55-1.72-1.59V3.59h-1Z"/><path class="cls-1" d="M111.79,7.39c0,.33.07.47.33.47a1.47,1.47,0,0,0,.33,0v.95a3.45,3.45,0,0,1-.86.16.93.93,0,0,1-1.06-.76,3.16,3.16,0,0,1-2.14.76,1.89,1.89,0,0,1-2.13-1.82c0-1.54,1.24-1.79,2.39-1.93,1-.18,1.86-.07,1.86-.87s-.73-.84-1.28-.84c-.77,0-1.31.31-1.37,1h-1.37c.1-1.59,1.45-2.06,2.82-2.06,1.21,0,2.48.49,2.48,1.8Zm-1.37-1.73a4.78,4.78,0,0,1-1.67.37c-.59.1-1.12.31-1.12,1s.78.8,1.26.8,1.53-.32,1.53-1.18Z"/><path class="cls-1" d="M112.53,2.57h1V.71h1.37V2.57h1.23v1h-1.23V6.9c0,.56,0,.85.65.85a2.24,2.24,0,0,0,.58,0V8.76c-.3,0-.59.07-.89.07-1.42,0-1.69-.55-1.71-1.59V3.59h-1Z"/><path class="cls-1" d="M117.07.2h1.37V1.5h-1.37Zm0,2.37h1.37v6.2h-1.37Z"/><path class="cls-1" d="M119.52,5.66a3.13,3.13,0,1,1,6.26,0,3.13,3.13,0,1,1-6.26,0Zm4.9,0c0-1.07-.54-2.18-1.77-2.18s-1.76,1.11-1.76,2.18.54,2.2,1.76,2.2S124.42,6.74,124.42,5.66Z"/><path class="cls-1" d="M126.82,2.57h1.29v.91l0,0a2.22,2.22,0,0,1,1.93-1.1,2,2,0,0,1,2.19,2.11V8.77H130.9V4.87c0-1-.41-1.39-1.22-1.39a1.51,1.51,0,0,0-1.49,1.63V8.77h-1.37Z"/><path class="cls-1" d="M1,14.6H2.37v1.3H1ZM1,17H2.37v6.2H1Z"/><path class="cls-1" d="M4.77,21.18c.07.79.67,1.08,1.4,1.08.52,0,1.42-.11,1.38-.82s-1-.8-2-1-2-.58-2-1.84S5,16.8,6.12,16.8s2.42.53,2.59,1.91H7.29c-.12-.65-.66-.83-1.26-.83-.4,0-1.13.09-1.13.63s1,.77,2,1,2,.59,2,1.81c0,1.48-1.49,2-2.77,2-1.56,0-2.73-.7-2.75-2.16Z"/><path class="cls-1" d="M13.08,17h1.3v.91l0,0a2.23,2.23,0,0,1,1.93-1.1,2,2,0,0,1,2.2,2.11v4.26H17.16v-3.9c0-1-.41-1.39-1.21-1.39a1.51,1.51,0,0,0-1.5,1.63v3.66H13.08Z"/><path class="cls-1" d="M19.58,20.06a3,3,0,0,1,3.13-3.26,3,3,0,0,1,3.13,3.26,3,3,0,0,1-3.13,3.28A3,3,0,0,1,19.58,20.06Zm4.89,0c0-1.07-.54-2.18-1.76-2.18S20.94,19,20.94,20.06s.54,2.2,1.77,2.2S24.47,21.14,24.47,20.06Z"/><path class="cls-1" d="M26.31,17h1.45L29,21.6h0L30.16,17h1.38l1.11,4.63h0L33.94,17h1.39l-1.95,6.2H32l-1.15-4.61h0l-1.14,4.61H28.23Z"/><path class="cls-1" d="M39,20.06a3.13,3.13,0,1,1,6.26,0,3.13,3.13,0,1,1-6.26,0Zm4.89,0c0-1.07-.54-2.18-1.76-2.18S40.38,19,40.38,20.06s.54,2.2,1.77,2.2S43.91,21.14,43.91,20.06Z"/><path class="cls-1" d="M46.35,17h1.29v.84h0a2.06,2.06,0,0,1,1.92-1c1.95,0,2.9,1.49,2.9,3.3,0,1.66-.84,3.24-2.68,3.24a2.39,2.39,0,0,1-2.07-1h0v3.1H46.35Zm3.06.91c-1.16,0-1.74.87-1.74,2.19s.63,2.19,1.74,2.19,1.71-1.11,1.71-2.19S50.53,17.88,49.41,17.88Z"/><path class="cls-1" d="M54.59,20.42a1.66,1.66,0,0,0,1.67,1.84,1.44,1.44,0,0,0,1.51-1h1.29a2.72,2.72,0,0,1-2.8,2.12,3,3,0,0,1-3-3.27,3,3,0,1,1,5.93.35Zm3.19-.9a1.6,1.6,0,1,0-3.19,0Z"/><path class="cls-1" d="M60.08,17h1.29v.91l0,0a2.24,2.24,0,0,1,1.94-1.1,2,2,0,0,1,2.19,2.11v4.26H64.15v-3.9c0-1-.4-1.39-1.21-1.39a1.51,1.51,0,0,0-1.5,1.63v3.66H60.08Z"/></g></g></svg>