<svg id="Layer_1" data-name="Layer 1" xmlns="http://www.w3.org/2000/svg" xmlns:xlink="http://www.w3.org/1999/xlink" viewBox="0 0 970 250"><defs><style>.cls-1{fill:none;}.cls-2{clip-path:url(#clip-path);}.cls-3{fill:#221e1f;}.cls-4{clip-path:url(#clip-path-2);}.cls-5{clip-path:url(#clip-path-3);}.cls-6{clip-path:url(#clip-path-4);}</style><clipPath id="clip-path"><rect class="cls-1" width="970" height="250"/></clipPath><clipPath id="clip-path-2"><rect class="cls-1" x="990" width="970" height="250"/></clipPath><clipPath id="clip-path-3"><rect class="cls-1" x="1742.52" y="66.85" width="116.84" height="116.15"/></clipPath><clipPath id="clip-path-4"><rect class="cls-1" x="-31778" y="-32517" width="65535" height="65535"/></clipPath></defs><g class="cls-2"><path class="cls-3" d="M850.73,230.73a3.42,3.42,0,0,1-.26-1.37,1.1,1.1,0,0,0-1.23-1.17h-1.78v2.54h-.85v-6.3h2.56c1.6,0,2.37.74,2.37,1.86a1.51,1.51,0,0,1-1.43,1.57,1.36,1.36,0,0,1,1.2,1.36c.08.92.11,1.28.32,1.51Zm-1.61-3.23c1.07,0,1.55-.4,1.55-1.18s-.48-1.18-1.55-1.18h-1.66v2.36Z"/><path class="cls-3" d="M856.56,229.26a1.94,1.94,0,0,1-2,1.59,2.14,2.14,0,0,1-2.25-2.24,2.23,2.23,0,0,1,2.21-2.37,2,2,0,0,1,2.1,2.18v.33H853.1a1.44,1.44,0,0,0,1.43,1.45,1.25,1.25,0,0,0,1.34-1Zm-.83-1a1.25,1.25,0,0,0-1.25-1.34,1.41,1.41,0,0,0-1.36,1.34Z"/><path class="cls-3" d="M860.75,229.82a1.62,1.62,0,0,1-1.57,1,2.33,2.33,0,0,1,0-4.61,1.63,1.63,0,0,1,1.57,1v-2.85h.83v6.3h-.83Zm0-1.4a1.37,1.37,0,0,0-1.39-1.51c-.86,0-1.34.64-1.34,1.64s.48,1.64,1.34,1.64a1.38,1.38,0,0,0,1.39-1.52Z"/><path class="cls-3" d="M867.23,230.73h-2.68v-6.3h2.57c1.56,0,2.2.68,2.2,1.68a1.36,1.36,0,0,1-1.19,1.35A1.51,1.51,0,0,1,869.5,229C869.5,230.09,868.7,230.73,867.23,230.73Zm-1.84-3.58h1.76c.91,0,1.3-.39,1.3-1s-.39-1-1.3-1h-1.76Zm0,.67V230h1.82c.94,0,1.43-.41,1.43-1.09s-.49-1.11-1.43-1.11Z"/><path class="cls-3" d="M870.4,224.43h.86v.94h-.86Zm.85,1.93v4.37h-.83v-4.37Z"/><path class="cls-3" d="M875,227.19a1.26,1.26,0,0,0-.68-.18c-.63,0-1.1.57-1.1,1.41v2.31h-.83v-4.37h.83v.89a1.37,1.37,0,0,1,1.24-1,.91.91,0,0,1,.62.2Z"/><path class="cls-3" d="M878.85,229.82a1.62,1.62,0,0,1-1.57,1,2.33,2.33,0,0,1,0-4.61,1.63,1.63,0,0,1,1.57,1v-2.85h.83v6.3h-.83Zm0-1.4a1.37,1.37,0,0,0-1.39-1.51c-.86,0-1.34.64-1.34,1.64s.48,1.64,1.34,1.64a1.38,1.38,0,0,0,1.39-1.52Z"/><path class="cls-3" d="M884.69,230.73l-2.53-6.3h.89l2.13,5.3h0l2.07-5.3h.88l-2.54,6.3Z"/><path class="cls-3" d="M892.35,229.26a1.94,1.94,0,0,1-2,1.59,2.14,2.14,0,0,1-2.25-2.24,2.23,2.23,0,0,1,2.21-2.37,2,2,0,0,1,2.1,2.18v.33h-3.48a1.44,1.44,0,0,0,1.43,1.45,1.25,1.25,0,0,0,1.34-1Zm-.83-1a1.25,1.25,0,0,0-1.25-1.34,1.41,1.41,0,0,0-1.36,1.34Z"/><path class="cls-3" d="M894.06,230.73h-.83v-4.37h.83v.78a1.55,1.55,0,0,1,1.45-.9c1.14,0,1.6.76,1.6,1.78v2.71h-.83v-2.64c0-.73-.35-1.19-1-1.19a1.21,1.21,0,0,0-1.18,1.32Z"/><path class="cls-3" d="M898.34,227h-.66v-.45l.28,0c.41-.08.5-.28.6-.7l.13-.61h.47v1.21h1.23v.6h-1.23v2.65c0,.39.16.57.54.57a1.76,1.76,0,0,0,.82-.26v.56a1.72,1.72,0,0,1-1.12.37c-.62,0-1.06-.29-1.06-1.14Z"/><path class="cls-3" d="M904.19,226.36H905v4.37h-.83V230a1.52,1.52,0,0,1-1.43.89c-1.14,0-1.56-.75-1.56-1.77v-2.72H902V229c0,.73.32,1.2,1,1.2a1.2,1.2,0,0,0,1.15-1.33Z"/><path class="cls-3" d="M908.77,227.19a1.26,1.26,0,0,0-.68-.18c-.63,0-1.1.57-1.1,1.41v2.31h-.83v-4.37H907v.89a1.37,1.37,0,0,1,1.24-1,.91.91,0,0,1,.62.2Z"/><path class="cls-3" d="M913.35,229.26a1.94,1.94,0,0,1-2,1.59,2.14,2.14,0,0,1-2.25-2.24,2.23,2.23,0,0,1,2.21-2.37,2,2,0,0,1,2.1,2.18v.33h-3.48a1.44,1.44,0,0,0,1.43,1.45,1.25,1.25,0,0,0,1.34-1Zm-.83-1a1.25,1.25,0,0,0-1.25-1.34,1.41,1.41,0,0,0-1.36,1.34Z"/><path class="cls-3" d="M914.65,229.21a1.15,1.15,0,0,0,1.3,1c.58,0,1-.21,1-.65s-.29-.55-.83-.65l-.74-.13c-.82-.13-1.31-.48-1.31-1.23s.67-1.34,1.68-1.34,1.84.54,1.92,1.55l-.67,0a1.08,1.08,0,0,0-1.25-1c-.55,0-.91.25-.91.65s.22.53.67.61l.82.13c.88.15,1.4.48,1.4,1.27s-.77,1.34-1.79,1.34-1.92-.51-2-1.59Z"/><path class="cls-3" d="M921.31,224.43V230h3.51v.72h-4.38v-6.3Z"/><path class="cls-3" d="M925.62,224.43h.86v.94h-.86Zm.85,1.93v4.37h-.83v-4.37Z"/><path class="cls-3" d="M932.72,226.24c1.14,0,1.53.79,1.53,1.78v2.71h-.82v-2.64c0-.73-.3-1.19-1-1.19a1.19,1.19,0,0,0-1.12,1.32v2.51h-.83v-2.64c0-.73-.3-1.19-1-1.19a1.18,1.18,0,0,0-1.11,1.32v2.51h-.83v-4.37h.83v.78a1.44,1.44,0,0,1,1.39-.9,1.37,1.37,0,0,1,1.43.95A1.57,1.57,0,0,1,932.72,226.24Z"/><path class="cls-3" d="M935.33,224.43h.86v.94h-.86Zm.85,1.93v4.37h-.83v-4.37Z"/><path class="cls-3" d="M937.46,227h-.66v-.45l.28,0c.41-.08.5-.28.6-.7l.13-.61h.47v1.21h1.23v.6h-1.23v2.65c0,.39.16.57.54.57a1.76,1.76,0,0,0,.82-.26v.56a1.72,1.72,0,0,1-1.12.37c-.62,0-1.06-.29-1.06-1.14Z"/><path class="cls-3" d="M944.34,229.26a1.94,1.94,0,0,1-2,1.59,2.14,2.14,0,0,1-2.25-2.24,2.23,2.23,0,0,1,2.21-2.37,2,2,0,0,1,2.1,2.18v.33h-3.48a1.44,1.44,0,0,0,1.43,1.45,1.25,1.25,0,0,0,1.34-1Zm-.83-1a1.25,1.25,0,0,0-1.25-1.34,1.41,1.41,0,0,0-1.36,1.34Z"/><path class="cls-3" d="M948.53,229.82a1.62,1.62,0,0,1-1.57,1,2.33,2.33,0,0,1,0-4.61,1.63,1.63,0,0,1,1.57,1v-2.85h.83v6.3h-.83Zm0-1.4a1.37,1.37,0,0,0-1.39-1.51c-.86,0-1.34.64-1.34,1.64s.48,1.64,1.34,1.64a1.38,1.38,0,0,0,1.39-1.52Z"/><path class="cls-3" d="M950.3,229.73h1v1h-1Z"/></g></svg>