<svg xmlns="http://www.w3.org/2000/svg" viewBox="0 0 600 150"><defs><style>.cls-1{fill:#fff;}.cls-2{fill:#231f20;}</style></defs><g id="Layer_2" data-name="Layer 2"><path class="cls-1" d="M29,60a6,6,0,0,0,1,.91,4.53,4.53,0,0,0,2.62.89c1.92,0,3-1.08,3-2.52s-1.06-2.52-2.88-2.52a3.21,3.21,0,0,0-2.06.67,3.36,3.36,0,0,0-.7.65l-2.52-.36.6-9.84h10.2v3.36H31.14l-.12,3a2,2,0,0,1,.65-.29,4.65,4.65,0,0,1,1.75-.31,5.53,5.53,0,0,1,5.88,5.64c0,3.24-2.52,5.76-6.36,5.76a8.75,8.75,0,0,1-4.75-1.32,7.52,7.52,0,0,1-1.61-1.32Z"/><path class="cls-1" d="M41.46,56.26c0-5.4,3.36-8.76,7.2-8.76s7.2,3.36,7.2,8.76S52.5,65,48.66,65,41.46,61.66,41.46,56.26Zm10.8,0c0-3.6-1.8-5.4-3.6-5.4s-3.6,1.8-3.6,5.4,1.8,5.4,3.6,5.4S52.26,59.86,52.26,56.26Z"/><path class="cls-1" d="M61.86,47.5a4,4,0,1,1-4.08,4A4,4,0,0,1,61.86,47.5Zm8.76.36h3L63.06,64.66h-3Zm-8.76,5.28a1.68,1.68,0,1,0-1.68-1.68A1.64,1.64,0,0,0,61.86,53.14Zm10,4a4,4,0,1,1-4.08,4A4,4,0,0,1,71.82,57.1Zm1.68,4a1.68,1.68,0,1,0-1.68,1.68A1.64,1.64,0,0,0,73.5,61.06Z"/><path class="cls-1" d="M88.74,52.66a6.12,6.12,0,1,1-6.24,6.12A6.17,6.17,0,0,1,88.74,52.66Zm3,6.12a3,3,0,1,0-3,3.12A3,3,0,0,0,91.74,58.78Z"/><path class="cls-1" d="M98.1,56.14H96.3v-3h1.8v-.72c0-2.79,1.56-4.32,4-4.32a5.07,5.07,0,0,1,1.37.19c.19.07.38.12.55.17v3l-.31-.12a2.15,2.15,0,0,0-.77-.12,1.49,1.49,0,0,0-1.56,1.68v.24h4.32v-1.2c0-2.79,1.56-4.32,4-4.32a6.39,6.39,0,0,1,1.54.19c.21.07.43.12.62.17v3l-.38-.12a3.7,3.7,0,0,0-.94-.12,1.49,1.49,0,0,0-1.56,1.68v.72h2.64v3H108.9v8.52h-3.24V56.14h-4.32v8.52H98.1Z"/><path class="cls-2" d="M118.14,56.14h4.08V52.06H125v4.08h4.08v3H125v4.08h-2.76V59.14h-4.08Z"/><path class="cls-1" d="M137.82,60a4.8,4.8,0,0,0,1,.91,5.14,5.14,0,0,0,2.93.89c1.92,0,2.76-.84,2.76-1.92,0-2.86-8.4-1.59-8.4-7.44,0-2.4,1.65-4.06,4.44-4.8V45.46h3.12v2.16a7.87,7.87,0,0,1,4.2,2.16l-2.4,2.4a5.71,5.71,0,0,0-.84-.72,4.14,4.14,0,0,0-2.28-.72c-1.83,0-2.52.72-2.52,1.68,0,2.85,8.4,1.58,8.4,7.44,0,2.49-1.92,4.46-4.56,5v2.16h-3.12V64.9a9.66,9.66,0,0,1-3.89-1.44,6.6,6.6,0,0,1-1.27-1.08Z"/><path class="cls-1" d="M150.18,56.26c0-5.4,3.36-8.76,7.2-8.76s7.2,3.36,7.2,8.76S161.22,65,157.38,65,150.18,61.66,150.18,56.26Zm10.8,0c0-3.6-1.8-5.4-3.6-5.4s-3.6,1.8-3.6,5.4,1.8,5.4,3.6,5.4S161,59.86,161,56.26Z"/><path class="cls-1" d="M180.78,63h-.12a4.34,4.34,0,0,1-.91,1,4.61,4.61,0,0,1-2.81,1c-2.79,0-5.28-2.52-5.28-6.12s2.49-6.12,5.28-6.12a4.61,4.61,0,0,1,2.81,1,4.34,4.34,0,0,1,.91,1h.12V47.86H184v16.8h-3.24Zm.12-4.2a3,3,0,1,0-3,3.12A3,3,0,0,0,180.9,58.78Z"/><path class="cls-1" d="M197.82,63a6,6,0,0,1-1.3,1,7.59,7.59,0,0,1-3.74,1,6.12,6.12,0,1,1-.12-12.24,5.89,5.89,0,0,1,5.88,5.88c0,.45,0,.77-.07,1l-.05.41H189.9A3,3,0,0,0,193,62a4.16,4.16,0,0,0,2.33-.65,3.22,3.22,0,0,0,.79-.67Zm-2.64-5.4a2.73,2.73,0,0,0-5.28,0Z"/><path class="cls-1" d="M201.06,47.86h3.24v16.8h-3.24Z"/><path class="cls-1" d="M209.17,47.74a1.8,1.8,0,1,1-1.87,1.8A1.84,1.84,0,0,1,209.17,47.74Zm-1.63,5.16h3.24V64.66h-3.24Z"/><path class="cls-1" d="M212.22,52.9h3.48l2.71,7.92h.1l2.71-7.92h3.48l-4.44,11.76h-3.6Z"/><path class="cls-1" d="M236.7,63a6,6,0,0,1-1.3,1,7.59,7.59,0,0,1-3.74,1,6.12,6.12,0,1,1-.12-12.24,5.89,5.89,0,0,1,5.88,5.88c0,.45,0,.77-.07,1l0,.41h-8.52a3,3,0,0,0,3.12,2,4.16,4.16,0,0,0,2.33-.65,3.22,3.22,0,0,0,.79-.67Zm-2.64-5.4a2.73,2.73,0,0,0-5.28,0Z"/><path class="cls-1" d="M239.82,52.9h3.24v1.68h.12a5.4,5.4,0,0,1,.89-1,4,4,0,0,1,2.59-1h.24v3.48l-.27,0a6.23,6.23,0,0,0-.81-.07,2.82,2.82,0,0,0-2.76,3.12v5.52h-3.24Z"/><path class="cls-1" d="M248.7,66.34a2.11,2.11,0,0,0,.38.12,3.64,3.64,0,0,0,.94.12,2.09,2.09,0,0,0,2-1.44l.24-.6L247.74,52.9h3.48L254,60.7h.12l2.64-7.8h3.48l-4.8,12.72c-1,2.66-2.38,4.08-4.56,4.08a6.44,6.44,0,0,1-1.54-.17c-.22-.07-.43-.12-.62-.19Z"/><path class="cls-1" d="M32.12,80.88a5.5,5.5,0,1,1-5.5,5.5A5.45,5.45,0,0,1,32.12,80.88Zm3.3,5.5a3.3,3.3,0,1,0-3.3,3.41A3.26,3.26,0,0,0,35.42,86.38Z"/><path class="cls-1" d="M40,81.1h2.2v1.54a3.74,3.74,0,0,1,.81-.88,3.91,3.91,0,0,1,2.49-.88c2.42,0,4.18,1.74,4.18,4.62v6.16h-2.2V85.5A2.33,2.33,0,0,0,45.1,83a2.8,2.8,0,0,0-2.86,3v5.72H40Z"/><path class="cls-1" d="M56.32,93.86a2.14,2.14,0,0,0,.37.17,2.59,2.59,0,0,0,1,.16,2,2,0,0,0,1.87-1.43l.44-1.1L55.66,81.1h2.42l3,7.81,3-7.81h2.42L61.82,92.87c-.88,2.22-2.09,3.41-3.85,3.41a4.43,4.43,0,0,1-1.19-.15L56.32,96Z"/><path class="cls-1" d="M73,80.88a5.5,5.5,0,1,1-5.5,5.5A5.45,5.45,0,0,1,73,80.88Zm3.3,5.5A3.3,3.3,0,1,0,73,89.79,3.26,3.26,0,0,0,76.34,86.38Z"/><path class="cls-1" d="M81,81.1h2.2v6.16a2.33,2.33,0,0,0,2.42,2.53,2.8,2.8,0,0,0,2.86-3V81.1h2.2V91.66h-2.2V90.12a4.65,4.65,0,0,1-.84.88,3.82,3.82,0,0,1-2.46.88c-2.42,0-4.18-1.74-4.18-4.62Z"/><path class="cls-1" d="M93.72,81.1h2.2v1.43a5.7,5.7,0,0,1,.81-.82,3.83,3.83,0,0,1,2.38-.83h.55v2.31l-.29,0a4.32,4.32,0,0,0-.59-.06,3,3,0,0,0-2.86,3.19v5.39h-2.2Z"/><path class="cls-1" d="M106.59,83.19h-1.65V81.1h1.65V79.56c0-2.31,1.19-3.52,3.3-3.52a4,4,0,0,1,1.19.17,3.57,3.57,0,0,0,.46.16v2.09l-.35-.16a2.48,2.48,0,0,0-.86-.17c-1,0-1.54.55-1.54,1.65V81.1h6.6V91.66h-2.2V83.19h-4.4v8.47h-2.2Zm7.7-6.71A1.32,1.32,0,1,1,113,77.8,1.32,1.32,0,0,1,114.29,76.48Z"/><path class="cls-1" d="M118.58,81.1h2.2v1.43a5.7,5.7,0,0,1,.81-.82,3.83,3.83,0,0,1,2.38-.83h.55v2.31l-.29,0a4.32,4.32,0,0,0-.59-.06,3,3,0,0,0-2.86,3.19v5.39h-2.2Z"/><path class="cls-1" d="M126.94,88.47a3.2,3.2,0,0,0,.75.72,3.33,3.33,0,0,0,2,.71c1.23,0,1.87-.64,1.87-1.32,0-1.76-5.61-.86-5.61-4.62,0-1.65,1.45-3.08,3.85-3.08a5.62,5.62,0,0,1,2.81.72,3.27,3.27,0,0,1,.93.71l-1.43,1.43a3.49,3.49,0,0,0-2.31-.88c-1.12,0-1.65.55-1.65,1.1,0,1.76,5.61.88,5.61,4.62,0,1.76-1.52,3.3-4.07,3.3a5.28,5.28,0,0,1-3.13-1,4.74,4.74,0,0,1-1-1Z"/><path class="cls-1" d="M137.17,83.19h-2V81.1h1.21c.68,0,1-.33,1-1.21V77.58h2V81.1h2.42v2.09h-2.42v5c0,1.1.5,1.65,1.54,1.65a2.49,2.49,0,0,0,.86-.16l.35-.17v2.09l-.46.17a4.06,4.06,0,0,1-1.19.16c-2.11,0-3.3-1.21-3.3-3.52Z"/><path class="cls-1" d="M152.24,78.57h-4.62V76.26h11.66v2.31h-4.62V91.66h-2.42Z"/><path class="cls-1" d="M160.16,76.26h2.53l3.74,11.55,3.63-11.55h2.42l3.63,11.55,3.74-11.55h2.53l-5.06,15.4H174.9l-3.63-11.55-3.63,11.55h-2.42Z"/><path class="cls-1" d="M191.73,76A7.92,7.92,0,1,1,183.59,84,7.94,7.94,0,0,1,191.73,76Zm0,13.64A5.72,5.72,0,1,0,186,84,5.68,5.68,0,0,0,191.73,89.68Z"/><path class="cls-1" d="M212.08,80.88a5.5,5.5,0,1,1-5.5,5.5A5.45,5.45,0,0,1,212.08,80.88Zm3.3,5.5a3.3,3.3,0,1,0-3.3,3.41A3.26,3.26,0,0,0,215.38,86.38Z"/><path class="cls-1" d="M220,81.1h2.2v1.43a5.7,5.7,0,0,1,.81-.82,3.83,3.83,0,0,1,2.38-.83h.55v2.31l-.29,0a4.5,4.5,0,0,0-.59-.06,3,3,0,0,0-2.86,3.19v5.39H220Z"/><path class="cls-1" d="M235.62,90.12a3.76,3.76,0,0,1-.86.88,4.62,4.62,0,0,1-2.77.88,5.53,5.53,0,0,1,0-11,4.62,4.62,0,0,1,2.77.88,3.58,3.58,0,0,1,.86.88V76.26h2.2v15.4h-2.2Zm0-3.74a3.2,3.2,0,1,0-3.19,3.41A3.23,3.23,0,0,0,235.62,86.38Z"/><path class="cls-1" d="M250.36,89.9a4.59,4.59,0,0,1-1.1,1,6,6,0,0,1-3.41,1,5.5,5.5,0,0,1-.11-11,5,5,0,0,1,5.17,5.17,6.59,6.59,0,0,1-.07.79l0,.31h-8.14a3.24,3.24,0,0,0,3.3,2.64,4,4,0,0,0,2.24-.71,3.82,3.82,0,0,0,.84-.72Zm-1.76-4.62a2.83,2.83,0,0,0-2.86-2.42,3.06,3.06,0,0,0-3.08,2.42Z"/><path class="cls-1" d="M253.32,81.1h2.21v1.43a5.7,5.7,0,0,1,.81-.82,3.83,3.83,0,0,1,2.38-.83h.55v2.31l-.29,0a4.5,4.5,0,0,0-.59-.06,3,3,0,0,0-2.86,3.19v5.39h-2.21Z"/><path class="cls-1" d="M261.69,88.47a3.16,3.16,0,0,0,.74.72,3.39,3.39,0,0,0,2,.71c1.23,0,1.87-.64,1.87-1.32,0-1.76-5.62-.86-5.62-4.62,0-1.65,1.46-3.08,3.86-3.08a5.62,5.62,0,0,1,2.81.72,3.41,3.41,0,0,1,.93.71l-1.43,1.43a3.49,3.49,0,0,0-2.31-.88c-1.13,0-1.65.55-1.65,1.1,0,1.76,5.61.88,5.61,4.62,0,1.76-1.52,3.3-4.07,3.3a5.28,5.28,0,0,1-3.13-1,4.79,4.79,0,0,1-1.06-1Z"/></g></svg>