<svg xmlns="http://www.w3.org/2000/svg" viewBox="0 0 122.39 26.13"><defs><style>.cls-1{fill:#fff;}.cls-2{fill:#ff3008;}</style></defs><g id="Layer_2" data-name="Layer 2"><g id="Layer_2-2" data-name="Layer 2"><rect class="cls-1" width="122.39" height="26.13" rx="12.47"/><path class="cls-2" d="M25.2,9a4.18,4.18,0,1,1-4.34,4.18A4.23,4.23,0,0,1,25.2,9Zm0,6.75a2.57,2.57,0,1,0-2.57-2.57A2.56,2.56,0,0,0,25.2,15.76Z"/><path class="cls-2" d="M31.66,9.19H35.2A2.57,2.57,0,0,1,38,11.87a2.58,2.58,0,0,1-.68,1.87,2.25,2.25,0,0,1-.69.48l1.66,3H36.4L35,14.56H33.37v2.63H31.66ZM35.15,13a1.09,1.09,0,0,0,0-2.17H33.37V13Z"/><path class="cls-2" d="M40.29,9.19h2.92a4,4,0,1,1,0,8H40.29Zm2.92,6.4a2.4,2.4,0,1,0,0-4.8H42v4.8Z"/><path class="cls-2" d="M49.55,9.19h6v1.6H51.27v1.54h3.31v1.54H51.27v1.72h4.34v1.6H49.55Z"/><path class="cls-2" d="M57.73,9.19h3.54a2.58,2.58,0,0,1,2.8,2.68,2.54,2.54,0,0,1-.69,1.87,2.2,2.2,0,0,1-.68.48l1.66,3H62.47L61,14.56h-1.6v2.63H57.73ZM61.21,13a1.09,1.09,0,1,0,0-2.17H59.44V13Z"/><path class="cls-2" d="M69.33,9.19h1.54l3.89,5v-5h1.71v8H74.93l-3.88-5v5H69.33Z"/><path class="cls-2" d="M82.93,9a4.18,4.18,0,1,1-4.34,4.18A4.24,4.24,0,0,1,82.93,9Zm0,6.75a2.57,2.57,0,1,0-2.57-2.57A2.57,2.57,0,0,0,82.93,15.76Z"/><path class="cls-2" d="M88.31,9.19h1.77l1.66,5.37h.06l1.65-5.37h1.6l1.66,5.37h.06l1.65-5.37h1.78l-2.63,8H95.91L94.29,12h-.07l-1.62,5.2H90.94Z"/></g></g></svg>