<svg xmlns="http://www.w3.org/2000/svg" viewBox="0 0 600 150"><defs><style>.cls-1{fill:#fff;}</style></defs><g id="Layer_2" data-name="Layer 2"><path class="cls-1" d="M64.22,19.51a5.36,5.36,0,1,1,0,10.71h-3.7a.28.28,0,0,1-.28-.28V19.79a.29.29,0,0,1,.28-.28Zm-1.68,2.07v6.58h1.68a3.25,3.25,0,0,0,3.21-3.29,3.2,3.2,0,0,0-3.21-3.29Z"/><path class="cls-1" d="M77.81,19.29A5.58,5.58,0,1,1,72,24.87a5.66,5.66,0,0,1,5.81-5.58m0,9.09a3.52,3.52,0,1,0-3.51-3.51,3.52,3.52,0,0,0,3.51,3.51"/><path class="cls-1" d="M91.63,19.29a5.58,5.58,0,1,1-5.81,5.58,5.66,5.66,0,0,1,5.81-5.58m0,9.09a3.52,3.52,0,1,0-3.52-3.51,3.51,3.51,0,0,0,3.52,3.51"/><path class="cls-1" d="M100.48,19.79a.28.28,0,0,1,.28-.28h4.46A3.52,3.52,0,0,1,108.89,23,3.46,3.46,0,0,1,107,26.17L109,29.81a.28.28,0,0,1-.24.41H107a.31.31,0,0,1-.25-.14l-2-3.61h-2v3.47a.27.27,0,0,1-.28.28h-1.73a.27.27,0,0,1-.28-.28Zm4.66,1.79h-2.37v2.83h2.37A1.39,1.39,0,0,0,106.59,23a1.4,1.4,0,0,0-1.45-1.45"/><path class="cls-1" d="M116.54,19.56a5.36,5.36,0,1,1,0,10.71h-3.7a.28.28,0,0,1-.28-.28V19.84a.29.29,0,0,1,.28-.28Zm-1.68,2.07v6.58h1.68a3.25,3.25,0,0,0,3.21-3.29,3.2,3.2,0,0,0-3.21-3.29Z"/><path class="cls-1" d="M127,27.68,126.12,30a.28.28,0,0,1-.26.19H124a.28.28,0,0,1-.26-.38l4-10.15a.29.29,0,0,1,.26-.18h2.07a.27.27,0,0,1,.26.18l4,10.15a.28.28,0,0,1-.26.38h-1.85A.29.29,0,0,1,132,30l-.85-2.34Zm2.07-5.5-1.3,3.52h2.6Z"/><path class="cls-1" d="M136.47,22.41c0-1.68,1.45-3.14,3.74-3.14a4.73,4.73,0,0,1,3.33,1.26.28.28,0,0,1,0,.39l-1,1a.28.28,0,0,1-.38,0,2.69,2.69,0,0,0-1.77-.7c-.92,0-1.6.54-1.6,1.15,0,2,5.42.84,5.42,4.66,0,1.91-1.45,3.37-4.05,3.37a5.45,5.45,0,0,1-3.87-1.56.27.27,0,0,1,0-.39l1-1a.28.28,0,0,1,.39,0,3.43,3.43,0,0,0,2.33.95c1.15,0,1.91-.61,1.91-1.38,0-2-5.42-.84-5.42-4.66"/><path class="cls-1" d="M154,19.78v4h-4.58v-4a.29.29,0,0,0-.28-.28h-1.74a.29.29,0,0,0-.28.28V29.93a.29.29,0,0,0,.28.28h1.74a.29.29,0,0,0,.28-.28V25.85H154v4.08a.29.29,0,0,0,.28.28H156a.29.29,0,0,0,.28-.28V19.78a.29.29,0,0,0-.28-.28H154.3a.29.29,0,0,0-.28.28"/><path class="cls-1" d="M51.19,20.91a6.71,6.71,0,0,0-5.95-3.56H26.39a.64.64,0,0,0-.46,1.1L30,22.58a1.89,1.89,0,0,0,1.36.57H44.7a1.72,1.72,0,1,1,0,3.43H35.57a.65.65,0,0,0-.46,1.11l4.11,4.13a1.94,1.94,0,0,0,1.37.57h4.14a7.6,7.6,0,0,0,6.46-11.48"/></g></svg>