<svg id="Layer_1" data-name="Layer 1" xmlns="http://www.w3.org/2000/svg" xmlns:xlink="http://www.w3.org/1999/xlink" viewBox="0 0 970 250"><defs><style>.cls-1{fill:none;}.cls-2{clip-path:url(#clip-path);}.cls-3{fill:#009970;}</style><clipPath id="clip-path"><rect class="cls-1" width="970" height="250"/></clipPath></defs><g class="cls-2"><path class="cls-3" d="M37.87,33.68h2.57V82H69.26v2.49H37.87Z"/><path class="cls-3" d="M110.91,78.07a20.95,20.95,0,0,1-31.47,0c-4.22-4.81-6.37-11.1-6.37-19s2.15-14.16,6.37-18.88a20.79,20.79,0,0,1,31.47,0c4.22,4.72,6.38,11,6.38,18.88S115.13,73.26,110.91,78.07Zm-1.74-35.94a18.09,18.09,0,0,0-28,0c-3.64,4.39-5.46,10-5.46,17s1.82,12.67,5.46,17.06a18.23,18.23,0,0,0,28,0c3.64-4.39,5.47-10.1,5.47-17.06S112.81,46.52,109.17,42.13Z"/><path class="cls-3" d="M123.66,76.66a21,21,0,0,0,15.65,6c7.87,0,12.67-4.31,12.67-10.6a8.09,8.09,0,0,0-2.4-6.3,28.48,28.48,0,0,0-7.45-4.55l-7.54-3.32a42.54,42.54,0,0,1-7-4.22c-2.4-1.74-3.56-4.47-3.56-8.2,0-4.22,1.49-7.28,4.47-9.35A17.57,17.57,0,0,1,138.73,33a23.72,23.72,0,0,1,13.92,4.31v3.14a20.07,20.07,0,0,0-13.92-5c-6.62,0-12.17,3.4-12.17,10,0,5.39,4,7.87,9.61,10.27l7.78,3.4c7.29,3.31,10.6,6.62,10.6,12.92a11.88,11.88,0,0,1-4.31,9.44,16.57,16.57,0,0,1-10.93,3.64C132.44,85.19,127,83,123.66,80Z"/><path class="cls-3" d="M160.76,33.68h41.07v2.49H182.54V84.53H180V36.17H160.76Z"/><path class="cls-3" d="M232.22,84.53h-2.56V33.68h2.56Z"/><path class="cls-3" d="M282.82,84.53h-1.41l-33-46.79V84.53H246V33.68h2.48l31.88,45.05V33.68h2.49Z"/><path class="cls-3" d="M292.26,33.68h41.07v2.49H314V84.53h-2.57V36.17H292.26Z"/><path class="cls-3" d="M373.66,33.68v2.49H345.34V57H371v2.49H345.34V82h28.32v2.49H342.77V33.68Z"/><path class="cls-3" d="M385.5,84.53V33.68h16.81c9.6,0,16.06,4.89,16.06,13.83,0,8-5.13,12.75-13.08,13.66l15.65,23.36h-3L402.31,61.34H388.06V84.53Zm2.56-25.59h14.08c8.53,0,13.67-4.14,13.67-11.43s-5.14-11.34-13.67-11.34H388.06Z"/><path class="cls-3" d="M461.68,33.68v2.49H433.36V57H459v2.49H433.36V82h28.32v2.49H430.79V33.68Z"/><path class="cls-3" d="M469.71,76.66a21,21,0,0,0,15.65,6c7.87,0,12.67-4.31,12.67-10.6a8.09,8.09,0,0,0-2.4-6.3,28.48,28.48,0,0,0-7.45-4.55l-7.54-3.32a42.54,42.54,0,0,1-7-4.22C471.2,52,470,49.25,470,45.52c0-4.22,1.49-7.28,4.48-9.35A17.51,17.51,0,0,1,484.78,33a23.72,23.72,0,0,1,13.92,4.31v3.14a20.05,20.05,0,0,0-13.92-5c-6.62,0-12.17,3.4-12.17,10,0,5.39,4,7.87,9.61,10.27l7.78,3.4c7.29,3.31,10.6,6.62,10.6,12.92a11.88,11.88,0,0,1-4.31,9.44,16.57,16.57,0,0,1-10.93,3.64C478.49,85.19,473,83,469.71,80Z"/><path class="cls-3" d="M506.81,33.68h41.07v2.49H528.59V84.53H526V36.17H506.81Z"/><path class="cls-3" d="M40.44,152.28H37.87V101.43h2.57Z"/><path class="cls-3" d="M91,152.28H89.63l-33-46.79v46.79H54.19V101.43h2.48l31.88,45v-45H91Z"/><path class="cls-3" d="M154.8,101.43h2.81l-18.55,28.66v22.19H136.5V130.09L118,101.43h2.89l17,26.25Z"/><path class="cls-3" d="M199.26,145.82a20.94,20.94,0,0,1-31.46,0c-4.23-4.8-6.38-11.1-6.38-19s2.15-14.16,6.38-18.88a20.76,20.76,0,0,1,31.46,0c4.23,4.72,6.38,11,6.38,18.88S203.49,141,199.26,145.82Zm-1.73-35.94a18.1,18.1,0,0,0-28,0c-3.65,4.39-5.47,10-5.47,17s1.82,12.67,5.47,17.06a18.24,18.24,0,0,0,28,0c3.64-4.39,5.46-10.11,5.46-17.06S201.17,114.27,197.53,109.88Z"/><path class="cls-3" d="M220.46,147.89c-3.72-3.4-5.63-8.61-5.63-15.57V101.43h2.57v30.48c0,6.29,1.57,11,4.8,14.08a16.33,16.33,0,0,0,11.68,4.55A16.54,16.54,0,0,0,245.64,146c3.23-3.07,4.88-7.79,4.88-14.08V101.43h2.57v30.89c0,7-1.91,12.17-5.71,15.57a19.53,19.53,0,0,1-13.5,5.05A19.18,19.18,0,0,1,220.46,147.89Z"/><path class="cls-3" d="M265.84,152.28V101.43h16.81c9.61,0,16.06,4.89,16.06,13.83,0,8-5.13,12.76-13.08,13.67l15.65,23.35h-3l-15.65-23.19H268.41v23.19Zm2.57-25.59h14.07c8.53,0,13.67-4.14,13.67-11.43s-5.14-11.34-13.67-11.34H268.41Z"/><path class="cls-3" d="M33.57,169.19H74.64v2.48H55.35V220H52.78V171.67H33.57Z"/><path class="cls-3" d="M115,169.19v2.48H86.65v20.87h25.67V195H86.65v22.53H115V220H84.08V169.19Z"/><path class="cls-3" d="M126.81,220V169.19h16.81c9.6,0,16.06,4.88,16.06,13.82,0,8-5.13,12.76-13.08,13.67L162.25,220h-3l-15.65-23.19H129.38V220Zm2.57-25.59h14.07c8.53,0,13.67-4.14,13.67-11.43s-5.14-11.34-13.67-11.34H129.38Z"/><path class="cls-3" d="M195.12,208l-20.53-33.54V220H172.1V169.19h2.16l21,34.44,21.12-34.44h1.9V220h-2.48V174.48L195.37,208Z"/><path class="cls-3" d="M250.36,169.19h14.82c7.29,0,13.25,2.31,17.8,6.95s6.88,10.77,6.88,18.47-2.32,13.91-6.88,18.55S272.47,220,265.18,220H250.36Zm15,48.36c6.55,0,11.85-2.07,15.82-6.3s6-9.77,6-16.64-2-12.42-6-16.65-9.27-6.29-15.82-6.29H252.92v45.88Z"/><path class="cls-3" d="M330.93,169.19v2.48H302.61v20.87h25.67V195H302.61v22.53h28.32V220H300V169.19Z"/><path class="cls-3" d="M345.34,196.93V220h-2.57V169.19h17.31c9.68,0,16.14,4.88,16.14,13.82,0,9.2-6.46,13.92-16.14,13.92ZM373.66,183c0-7.28-5.14-11.34-13.67-11.34H345.34v22.77H360C368.52,194.44,373.66,190.3,373.66,183Z"/><path class="cls-3" d="M420.36,213.57a20.95,20.95,0,0,1-31.47,0c-4.22-4.8-6.37-11.1-6.37-19s2.15-14.16,6.37-18.88a20.77,20.77,0,0,1,31.47,0c4.22,4.72,6.38,11,6.38,18.88S424.58,208.77,420.36,213.57Zm-1.74-35.94a18.1,18.1,0,0,0-28,0c-3.64,4.39-5.46,10-5.46,17s1.82,12.67,5.46,17.06a18.24,18.24,0,0,0,28,0c3.64-4.39,5.47-10.11,5.47-17.06S422.26,182,418.62,177.63Z"/><path class="cls-3" d="M433.11,212.16a21,21,0,0,0,15.65,6.05c7.87,0,12.67-4.31,12.67-10.6a8.11,8.11,0,0,0-2.4-6.29,28.2,28.2,0,0,0-7.45-4.56L444,193.45a44,44,0,0,1-7-4.22c-2.4-1.74-3.56-4.48-3.56-8.2,0-4.23,1.49-7.29,4.48-9.36a17.51,17.51,0,0,1,10.26-3.15,23.74,23.74,0,0,1,13.91,4.31V176a20,20,0,0,0-13.91-5c-6.62,0-12.17,3.39-12.17,10,0,5.38,4,7.86,9.61,10.27l7.78,3.39c7.29,3.31,10.6,6.63,10.6,12.92a11.86,11.86,0,0,1-4.31,9.44,16.59,16.59,0,0,1-10.93,3.64c-6.87,0-12.34-2.15-15.65-5.21Z"/><path class="cls-3" d="M477.08,220h-2.56V169.19h2.56Z"/><path class="cls-3" d="M486.52,169.19H527.6v2.48H508.3V220h-2.57V171.67H486.52Z"/><path class="cls-3" d="M555.5,189.47a11.25,11.25,0,0,0,2.82-7.62c0-6.54-4.14-10.93-11.76-10.93-5.72,0-10.85,3.73-14.41,7.79v-3.07c3.06-3.64,8.44-7.12,14.41-7.12,9.19,0,14.24,5.39,14.24,13.33A12.75,12.75,0,0,1,558,190c-1.91,2.4-3.81,4.64-5.8,6.87-2.57,2.9-3.56,4.64-3.65,7.21h-2.31c.24-3.4,1.57-5.63,4.14-8.61Zm-8.2,26.25a2.24,2.24,0,1,1-2.15,2.24A2.28,2.28,0,0,1,547.3,215.72Z"/></g></svg>