<?xml version="1.0" encoding="utf-8"?>
<!-- Generator: Adobe Illustrator 25.2.1, SVG Export Plug-In . SVG Version: 6.00 Build 0)  -->
<svg version="1.1" id="Layer_1" xmlns="http://www.w3.org/2000/svg" xmlns:xlink="http://www.w3.org/1999/xlink" x="0px" y="0px"
	 viewBox="0 0 970 250" style="enable-background:new 0 0 970 250;" xml:space="preserve">
<style type="text/css">
	.st0{fill:#FFFFFF;}
</style>
<g>
	<rect x="696" y="153" width="82" height="82"/>
	<path class="st0" d="M708,182.6v-15.5h9.9v2.3h-7.3v4.6h6.8v2.3h-6.8v6.3H708z"/>
	<path class="st0" d="M723.2,182.6h-2.6v-15.5h2.6V182.6z"/>
	<path class="st0" d="M739.1,182.6h-2l-8-11.3v11.3h-2.5v-15.5h2.5l7.5,10.8v-10.8h2.5V182.6z"/>
	<path class="st0" d="M742.5,167.1h5.2c4.6,0,7.5,3.1,7.5,7.8s-3,7.8-7.5,7.8h-5.2V167.1z M747.7,180.3c3.2,0,5-2.1,5-5.4
		s-1.8-5.4-5-5.4h-2.5v10.9H747.7z"/>
	<path class="st0" d="M714.3,203.1c-4.2,0-7.2-3.4-7.2-8s3-8,7.2-8s7.2,3.4,7.2,8S718.5,203.1,714.3,203.1z M714.3,189.4
		c-2.7,0-4.5,2.4-4.5,5.7s1.8,5.7,4.5,5.7s4.5-2.4,4.5-5.7S717,189.4,714.3,189.4z"/>
	<path class="st0" d="M723.9,196.7v-9.4h2.6v9.1c0,3,1.2,4.4,3.6,4.4s3.6-1.4,3.6-4.4v-9.1h2.6v9.4c0,4.2-2.5,6.4-6.2,6.4
		S723.9,200.9,723.9,196.7z"/>
	<path class="st0" d="M738.5,187.3h13v2.3h-5.2v13.2h-2.6v-13.2h-5.2L738.5,187.3z"/>
	<path class="st0" d="M715.4,219.8l-4.8-7.5v10.9H708v-15.5h2.5l5,8.1l5-8.1h2.3v15.5h-2.6v-10.9L715.4,219.8L715.4,219.8z"/>
	<path class="st0" d="M732.6,223.4c-4.2,0-7.2-3.4-7.2-8s3-8,7.2-8s7.2,3.4,7.2,8S736.8,223.4,732.6,223.4z M732.6,209.7
		c-2.7,0-4.5,2.4-4.5,5.7s1.8,5.7,4.5,5.7s4.5-2.4,4.5-5.7S735.3,209.7,732.6,209.7z"/>
	<path class="st0" d="M742.4,207.6h6c3.2,0,5.3,1.7,5.3,4.7c0,2.6-1.5,4.1-4,4.5l4.5,6.4h-3l-4.3-6.3H745v6.3h-2.6L742.4,207.6z
		 M745,214.6h3.3c1.8,0,2.7-0.9,2.7-2.4s-1-2.4-2.7-2.4H745V214.6z"/>
	<path class="st0" d="M766.6,207.6v2.3H759v4.1h6.9v2.3H759v4.5h7.6v2.4h-10.1v-15.6H766.6z"/>
</g>
</svg>
