<svg id="Layer_1" data-name="Layer 1" xmlns="http://www.w3.org/2000/svg" xmlns:xlink="http://www.w3.org/1999/xlink" viewBox="0 0 300 250"><defs><style>.cls-1{fill:none;}.cls-2{clip-path:url(#clip-path);}.cls-3{fill:#fff;}</style><clipPath id="clip-path"><rect class="cls-1" width="300" height="250"/></clipPath></defs><g class="cls-2"><g class="cls-2"><g id="top_copy"><path class="cls-3" d="M10.56,14.25V6.8h1.26v6.25h3.41v1.2Z"/><path class="cls-3" d="M16.41,14.25V6.8h1.28v7.45Z"/><path class="cls-3" d="M26.52,14.25V8.77L24.2,14.25H23.1L20.81,8.79v5.46H19.58V6.8h1.68l2.41,5.68L26.05,6.8h1.72v7.45Z"/><path class="cls-3" d="M29.68,14.25V6.8H31v7.45Z"/><path class="cls-3" d="M35.74,8v6.26H34.48V8H32.06V6.8h6.1V8Z"/><path class="cls-3" d="M39.27,14.25V6.8h4.6V8H40.53v2h3V11.1h-3v2h3.34v1.18Z"/><path class="cls-3" d="M45.5,14.25V6.8h2.64a3.48,3.48,0,0,1,3.62,3.74,3.48,3.48,0,0,1-3.64,3.71Zm2.58-1.16a2.3,2.3,0,0,0,2.37-2.55A2.31,2.31,0,0,0,48.09,8H46.76v5.13Z"/><path class="cls-3" d="M60.15,12.38H57l-.7,1.87H55l2.9-7.45h1.46l2.9,7.45H60.85Zm-2.71-1.17h2.27l-1.14-3Z"/><path class="cls-3" d="M64.59,11.34v2.91H63.33V6.8h2.76a2.22,2.22,0,0,1,2.37,2.27,2.22,2.22,0,0,1-2.37,2.27Zm1.31-1.11a1.16,1.16,0,1,0,0-2.31H64.59v2.31Z"/><path class="cls-3" d="M73.62,12.38H70.47l-.69,1.87H68.44l2.9-7.45H72.8l2.9,7.45H74.32Zm-2.71-1.17h2.27L72,8.17Z"/><path class="cls-3" d="M79,11.31h-.93v2.94H76.8V6.8h2.86A2.2,2.2,0,0,1,82,9.06a2.1,2.1,0,0,1-1.68,2.12L82,14.25H80.56Zm.43-1.11a1.15,1.15,0,1,0,0-2.28H78.07V10.2Z"/><path class="cls-3" d="M86.46,8v6.26H85.2V8H82.79V6.8h6.1V8Z"/><path class="cls-3" d="M96.94,14.25V8.77l-2.32,5.48H93.53l-2.3-5.46v5.46H90V6.8h1.68l2.41,5.68L96.48,6.8h1.71v7.45Z"/><path class="cls-3" d="M100.11,14.25V6.8h4.6V8h-3.34v2h3V11.1h-3v2h3.34v1.18Z"/><path class="cls-3" d="M111.27,14.25,107.6,8.61v5.64h-1.26V6.8h1.6l3.38,5.28V6.8h1.26v7.45Z"/><path class="cls-3" d="M117.37,8v6.26h-1.26V8H113.7V6.8h6.1V8Z"/><path class="cls-3" d="M124.7,8.9a1.37,1.37,0,0,0-1.46-1.14A1.18,1.18,0,0,0,122,8.83a1,1,0,0,0,.87,1l1.07.22a2.19,2.19,0,0,1,2,2.14,2.38,2.38,0,0,1-2.64,2.25,2.63,2.63,0,0,1-2.87-2.28l1.17-.34a1.6,1.6,0,0,0,1.7,1.49c.9,0,1.36-.45,1.36-1s-.36-.87-1-1l-1-.22a2.11,2.11,0,0,1-1.89-2.09,2.43,2.43,0,0,1,2.53-2.27,2.4,2.4,0,0,1,2.6,1.9Z"/><path class="cls-3" d="M134.3,12.38h-3.15l-.69,1.87h-1.34L132,6.8h1.46l2.9,7.45H135Zm-2.71-1.17h2.27l-1.14-3Z"/><path class="cls-3" d="M141.69,6.8H143l-2.81,7.45h-1.28L136.16,6.8h1.36l2.08,5.8Z"/><path class="cls-3" d="M148,12.38h-3.15l-.69,1.87H142.8l2.9-7.45h1.46l2.9,7.45h-1.38Zm-2.71-1.17h2.27l-1.14-3Z"/><path class="cls-3" d="M151.16,14.25V6.8h1.28v7.45Z"/><path class="cls-3" d="M154.33,14.25V6.8h1.26v6.25H159v1.2Z"/><path class="cls-3" d="M165,12.38h-3.15l-.69,1.87h-1.34l2.9-7.45h1.46l2.9,7.45h-1.38Zm-2.71-1.17h2.27l-1.14-3Z"/><path class="cls-3" d="M170.7,6.8a2,2,0,0,1,2.27,2,1.67,1.67,0,0,1-1.1,1.61,1.78,1.78,0,0,1,1.33,1.77,2.09,2.09,0,0,1-2.31,2.06h-2.75V6.8ZM170.53,10a1,1,0,0,0,1.18-1c0-.63-.44-1-1.21-1h-1.11V10Zm.14,3.23c.76,0,1.25-.41,1.25-1.07a1.07,1.07,0,0,0-1.21-1.1h-1.32v2.17Z"/><path class="cls-3" d="M174.7,14.25V6.8H176v6.25h3.41v1.2Z"/><path class="cls-3" d="M180.55,14.25V6.8h4.6V8h-3.34v2h3V11.1h-3v2h3.34v1.18Z"/><path class="cls-3" d="M187.52,12.6a.86.86,0,1,1,0,1.71.85.85,0,0,1-.85-.85A.86.86,0,0,1,187.52,12.6Z"/><path class="cls-3" d="M201.49,8.21a8.39,8.39,0,0,0-3,6h-1.1a8.73,8.73,0,0,1,2.91-6.08h-4v-1h5.15Z"/><path class="cls-3" d="M202,12.38a1.84,1.84,0,0,1,1.34-1.74A1.77,1.77,0,0,1,202.22,9,2.42,2.42,0,0,1,207,9a1.77,1.77,0,0,1-1.16,1.65,1.82,1.82,0,0,1,1.34,1.74c0,1.14-.93,2-2.56,2S202,13.52,202,12.38Zm4.05-.08c0-.68-.55-1.21-1.49-1.21s-1.48.53-1.48,1.21.54,1.18,1.48,1.18S206.08,13,206.08,12.3ZM205.9,9a1.32,1.32,0,1,0-1.31,1.15A1.18,1.18,0,0,0,205.9,9Z"/><path class="cls-3" d="M215.31,8.61a1.55,1.55,0,0,0-1.63-1.31,1.36,1.36,0,0,0-1.49,1.28,1.11,1.11,0,0,0,1,1.12l1.15.25a2.24,2.24,0,0,1,2,2.17,2.44,2.44,0,0,1-2.67,2.29,2.69,2.69,0,0,1-2.89-2.3l1-.32a1.74,1.74,0,0,0,1.85,1.65c1.07,0,1.59-.56,1.59-1.23a1.25,1.25,0,0,0-1.16-1.2l-1.1-.24a2.13,2.13,0,0,1-1.88-2.11,2.46,2.46,0,0,1,2.55-2.3,2.43,2.43,0,0,1,2.61,1.92Z"/><path class="cls-3" d="M219,9h1.14v.92H219v2.73c0,.48.2.72.73.72a2.3,2.3,0,0,0,.41-.05v.87a2,2,0,0,1-.7.1A1.36,1.36,0,0,1,218,12.81V9.93h-1V9h.28A.74.74,0,0,0,218,8.2V7.35H219Z"/><path class="cls-3" d="M222,6.28a.74.74,0,0,1,.74.74.74.74,0,1,1-.74-.74Zm-.5,8V9h1v5.24Z"/><path class="cls-3" d="M227.13,10l-.44,0c-.86,0-1.44.46-1.44,1.61v2.63h-1V9h1v.91a1.64,1.64,0,0,1,1.57-1,1.94,1.94,0,0,1,.33,0Z"/><path class="cls-3" d="M228.22,14.25V6.36h1v7.89Z"/><path class="cls-3" d="M231.49,6.28a.73.73,0,0,1,.74.74.74.74,0,0,1-1.47,0A.74.74,0,0,1,231.49,6.28Zm-.5,8V9h1v5.24Z"/><path class="cls-3" d="M234.77,14.25h-1V9h1v.75a1.78,1.78,0,0,1,1.61-.91,1.85,1.85,0,0,1,1.88,2.07v3.33h-1V11.1c0-.73-.3-1.32-1.22-1.32s-1.22.64-1.22,1.44Z"/><path class="cls-3" d="M240.48,14.3a1.4,1.4,0,0,0,1.43,1.29c1.1,0,1.6-.57,1.6-1.7v-.75a1.75,1.75,0,0,1-1.6.86,2.39,2.39,0,0,1-2.41-2.54,2.41,2.41,0,0,1,2.41-2.55,1.64,1.64,0,0,1,1.61.83V9h1v4.84a2.4,2.4,0,0,1-2.62,2.63,2.3,2.3,0,0,1-2.42-2Zm3.07-2.84a1.51,1.51,0,1,0-3,0,1.51,1.51,0,1,0,3,0Z"/><path class="cls-3" d="M253,8.61a1.55,1.55,0,0,0-1.63-1.31,1.36,1.36,0,0,0-1.49,1.28,1.11,1.11,0,0,0,1,1.12L252,10a2.24,2.24,0,0,1,2,2.17,2.44,2.44,0,0,1-2.67,2.29,2.69,2.69,0,0,1-2.89-2.3l1-.32a1.74,1.74,0,0,0,1.85,1.65c1.07,0,1.59-.56,1.59-1.23a1.25,1.25,0,0,0-1.16-1.2l-1.1-.24a2.13,2.13,0,0,1-1.88-2.11,2.46,2.46,0,0,1,2.55-2.3,2.43,2.43,0,0,1,2.61,1.92Z"/><path class="cls-3" d="M256.62,9h1.14v.92h-1.14v2.73c0,.48.2.72.73.72a2.18,2.18,0,0,0,.41-.05v.87a2,2,0,0,1-.7.1,1.36,1.36,0,0,1-1.46-1.49V9.93h-1V9h.28a.74.74,0,0,0,.81-.81V7.35h.93Z"/><path class="cls-3" d="M259.81,12.82a.91.91,0,0,1,.88,1A2,2,0,0,1,259.08,16v-.57a1.23,1.23,0,0,0,.9-1.17.5.5,0,0,1-.24,0,.7.7,0,0,1-.73-.74A.76.76,0,0,1,259.81,12.82Z"/><path class="cls-3" d="M266.22,11.09v3.16h-1.06V6.52H268a2.29,2.29,0,1,1,0,4.57Zm1.55-1c.93,0,1.49-.51,1.49-1.31a1.32,1.32,0,0,0-1.49-1.34h-1.55v2.65Z"/><path class="cls-3" d="M275.69,12.75a2.37,2.37,0,0,1-2.35,1.66,2.61,2.61,0,0,1-2.64-2.8,2.62,2.62,0,0,1,2.51-2.77,2.44,2.44,0,0,1,2.51,2.75,2.63,2.63,0,0,1,0,.33h-3.94a1.56,1.56,0,0,0,1.58,1.59,1.43,1.43,0,0,0,1.47-1.06Zm-1-1.66a1.33,1.33,0,0,0-1.44-1.34,1.41,1.41,0,0,0-1.43,1.34Z"/><path class="cls-3" d="M279.94,10a3.52,3.52,0,0,0-.45,0c-.86,0-1.44.46-1.44,1.61v2.63h-1V9h1v.91a1.65,1.65,0,0,1,1.57-1,2.09,2.09,0,0,1,.34,0Z"/><path class="cls-3" d="M282.67,9h1.14v.92h-1.14v2.73c0,.48.2.72.73.72a2.3,2.3,0,0,0,.41-.05v.87a2,2,0,0,1-.7.1,1.36,1.36,0,0,1-1.46-1.49V9.93h-1V9h.28a.74.74,0,0,0,.81-.81V7.35h.93Z"/><path class="cls-3" d="M286.19,14.25h-1V6.36h1V9.62a1.93,1.93,0,0,1,3.47,1.3v3.33h-1V11.1c0-.73-.3-1.32-1.22-1.32a1.25,1.25,0,0,0-1.22,1.38Z"/></g></g></g></svg>