<?xml version="1.0" encoding="utf-8"?>
<!-- Generator: Adobe Illustrator 22.1.0, SVG Export Plug-In . SVG Version: 6.00 Build 0)  -->
<svg version="1.1" id="Layer_1" xmlns="http://www.w3.org/2000/svg" xmlns:xlink="http://www.w3.org/1999/xlink" x="0px" y="0px"
	 viewBox="0 0 300 250" style="enable-background:new 0 0 300 250;" xml:space="preserve">
<style type="text/css">
	.st0{fill:#FFFFFF;}
</style>
<path class="st0" d="M112.6,64.8c0.1-0.1,0.4-0.1,0.5-0.1c3.3,1.6,5.1,5,5.1,8.6c0,0.3-0.1,0.6-0.4,0.6h-16.3
	c-0.3,0-0.5-0.2-0.5-0.5c-0.1-3.6,1.8-7.1,5.1-8.7c0.2-0.1,0.4-0.1,0.5,0.1C108.4,66.2,110.8,66.2,112.6,64.8L112.6,64.8z
	 M109.6,53.3c2.9,0,5,2.6,5,5.5c0,2.8-2.1,5.5-5,5.5c-3,0-5.1-2.6-5.1-5.5C104.5,55.9,106.6,53.3,109.6,53.3L109.6,53.3z"/>
</svg>
