<?xml version="1.0" encoding="utf-8"?>
<!-- Generator: Adobe Illustrator 22.1.0, SVG Export Plug-In . SVG Version: 6.00 Build 0)  -->
<svg version="1.1" id="Layer_1" xmlns="http://www.w3.org/2000/svg" xmlns:xlink="http://www.w3.org/1999/xlink" x="0px" y="0px"
	 viewBox="0 0 300 250" style="enable-background:new 0 0 300 250;" xml:space="preserve">
<style type="text/css">
	.st0{fill:#FFFFFF;}
</style>
<g>
	<g>
		<path class="st0" d="M87,19.3h3.1v11.8h6.1v2.4H87V19.3z"/>
		<path class="st0" d="M100.3,29.3c0,0.7,0,2.7,2,2.7c0.7,0,1.5-0.3,1.7-1.4h2.7c0,0.5-0.1,1.3-0.9,2.2c-0.7,0.8-2,1.2-3.5,1.2
			c-0.8,0-2.5-0.2-3.5-1.2c-0.9-0.9-1.3-2.3-1.3-3.9c0-1.6,0.4-3.5,2.1-4.7c0.8-0.5,1.7-0.8,2.8-0.8c1.4,0,3.1,0.6,4,2.4
			c0.7,1.4,0.6,2.8,0.6,3.6H100.3z M104,27.5c0-0.5,0-2.2-1.7-2.2c-1.3,0-1.8,1.1-1.9,2.2H104z"/>
		<path class="st0" d="M114.8,33.6c-0.1-0.6-0.1-1.1-0.1-1.4c-1.1,1.6-2.4,1.6-3,1.6c-1.4,0-2.1-0.4-2.5-0.8
			c-0.6-0.6-0.9-1.4-0.9-2.2c0-0.8,0.3-2.2,2.1-3.1c1.2-0.6,3-0.6,3.9-0.6c0-0.7,0-1-0.1-1.3c-0.3-0.7-1-0.8-1.3-0.8
			c-0.4,0-0.8,0.2-1.1,0.6c-0.2,0.3-0.2,0.7-0.2,0.9h-2.9c0-0.5,0.1-1.6,1.1-2.3c0.9-0.7,2.1-0.8,3-0.8c0.8,0,2.6,0.1,3.5,1.3
			c0.7,0.8,0.7,2,0.7,2.4l0,4c0,0.8,0.1,1.7,0.2,2.5H114.8z M111.3,30.5c0,0.7,0.5,1.4,1.4,1.4c0.5,0,1-0.3,1.2-0.6
			c0.5-0.6,0.6-1.4,0.6-2.5C112.6,28.7,111.3,29.3,111.3,30.5z"/>
		<path class="st0" d="M119.8,26.1c0-0.5-0.1-1.9-0.1-2.5h2.7l0.1,1.9c0.4-0.8,1-2.1,3.4-1.9v2.6c-3-0.3-3.1,1.2-3.1,2.5v4.9h-2.9
			V26.1z"/>
	</g>
	<g>
		<path class="st0" d="M126.8,25.4c0,0,0-1.1-0.1-1.8h2.8l0.1,1.5c0.3-0.5,1.1-1.7,3.2-1.7c2,0,2.8,1.2,3,1.9c0.2,0.6,0.3,1.1,0.3,3
			v5.4h-3v-6.2c0-0.4,0-0.8-0.2-1.1c-0.2-0.4-0.7-0.8-1.4-0.8c-0.6,0-1.2,0.3-1.5,0.8c-0.2,0.3-0.4,0.7-0.4,1.5v5.8h-2.9V25.4z"/>
		<path class="st0" d="M144.3,19.3h2.9V25c0.3-0.5,1.1-1.5,2.9-1.5c1.5,0,2.4,0.7,2.9,1.3c0.4,0.5,0.7,1.4,0.7,2.7v6.1h-2.9v-6
			c0-0.6,0-2.2-1.6-2.2c-0.8,0-1.9,0.5-1.9,2l0,6.1h-2.9V19.3z"/>
		<path class="st0" d="M161,23.4c3.6,0,5.2,2.4,5.2,5.2c0,2.8-1.6,5.3-5.2,5.3c-2.8,0-5.1-1.8-5.1-5.2
			C155.8,26.3,157.1,23.4,161,23.4z M161,31.9c1.3,0,2.1-0.8,2.1-3.4c0-1.3-0.3-3.2-2.2-3.2c-2.1,0-2.1,2.5-2.1,3.4
			C158.8,30.9,159.6,31.9,161,31.9z"/>
	</g>
	<g>
		<path class="st0" d="M169.8,23.6l1.8,7.5l2.1-7.5h3.2l2.1,7.5l2-7.5h2.9l-3.4,10h-3.2l-2.1-7.4l-2.1,7.4H170l-3.3-10H169.8z"/>
	</g>
	<g>
		<path class="st0" d="M196.8,33.4c-0.9,0.3-1.8,0.3-2.3,0.3c-2.9,0-2.9-1.9-2.9-2.7v-5.5h-1.9v-1.9h1.9v-2l2.9-1.1v3h2.4v1.9h-2.4
			v4.5c0,0.9,0,1.5,1.3,1.5c0.4,0,0.6,0,1-0.1V33.4z"/>
		<path class="st0" d="M202.9,23.4c3.6,0,5.2,2.4,5.2,5.2c0,2.8-1.6,5.3-5.2,5.3c-2.8,0-5.1-1.8-5.1-5.2
			C197.8,26.3,199,23.4,202.9,23.4z M202.9,31.9c1.3,0,2.1-0.8,2.1-3.4c0-1.3-0.3-3.2-2.2-3.2c-2.1,0-2.1,2.5-2.1,3.4
			C200.8,30.9,201.5,31.9,202.9,31.9z"/>
	</g>
	<g>
		<path class="st0" d="M210.5,23.6h2.5v2.7h-2.5V23.6z M210.5,30.9h2.5v2.6h-2.5V30.9z"/>
	</g>
</g>
</svg>
