<?xml version="1.0" encoding="utf-8"?>
<!-- Generator: Adobe Illustrator 22.1.0, SVG Export Plug-In . SVG Version: 6.00 Build 0)  -->
<svg version="1.1" id="Layer_1" xmlns="http://www.w3.org/2000/svg" xmlns:xlink="http://www.w3.org/1999/xlink" x="0px" y="0px"
	 viewBox="0 0 300 250" style="enable-background:new 0 0 300 250;" xml:space="preserve">
<style type="text/css">
	.st0{fill:#FFFFFF;}
	.st1{fill:#B78CAE;}
</style>
<g>
	<g>
		<path class="st0" d="M102.1,86.2h6.7c3.1,0,5.8,0.2,7.6,2.4c1.1,1.4,1.3,3,1.3,4.1c0,2.5-1.1,4.7-2.8,5.8c-1.6,1-3.8,1-5,1h-3.2
			v8.5h-4.8V86.2z M106.7,96h1.9c1.5,0,4.3,0,4.3-3.3c0-3-2.5-3-3.8-3h-2.4V96z"/>
		<path class="st0" d="M119.9,86.1h4.5V108h-4.5V86.1z"/>
		<path class="st0" d="M132,92.7v9.1c0,1.3,0,3.4,2.4,3.4c2.9,0,2.9-2.1,2.9-4.8v-7.7h4.6v10.1c0.1,3.3,0.1,3.7,0.1,4.1
			c0,0.4,0.1,0.7,0.1,1.1h-4.4l-0.2-2c-0.5,0.7-1.6,2.4-4.5,2.4c-2.1,0-3.8-0.9-4.6-2.1c-1-1.2-1-3.4-1-4.1v-9.5H132z"/>
		<path class="st0" d="M148.5,103.6c0.1,1,0.7,2.1,2.5,2.1c1.6,0,2.4-0.9,2.4-1.8c0-0.7-0.4-1.2-2.1-1.7l-2.8-0.8
			c-1.2-0.4-3.9-1.1-3.9-4.2c0-3,2.7-4.8,6.7-4.8c3.1,0,5.7,1.5,5.8,4.5h-4.1c-0.1-1.7-1.5-1.8-2.2-1.8c-1.2,0-2.1,0.6-2.1,1.5
			c0,1,0.8,1.2,2.1,1.6l2.8,0.8c2.8,0.8,4.1,2.2,4.1,4.3c0,2.6-2.3,5.3-7,5.3c-2,0-3.8-0.4-5.2-1.9c-1-1.1-1.1-2.3-1.1-3H148.5z"/>
		<path class="st0" d="M170.7,103.6c0.1,1,0.7,2.1,2.5,2.1c1.6,0,2.4-0.9,2.4-1.8c0-0.7-0.4-1.2-2.1-1.7l-2.8-0.8
			c-1.2-0.4-3.9-1.1-3.9-4.2c0-3,2.7-4.8,6.7-4.8c3.1,0,5.7,1.5,5.8,4.5h-4.1c-0.1-1.7-1.5-1.8-2.2-1.8c-1.2,0-2.1,0.6-2.1,1.5
			c0,1,0.8,1.2,2.1,1.6l2.8,0.8c2.8,0.8,4.1,2.2,4.1,4.3c0,2.6-2.3,5.3-7,5.3c-2,0-3.8-0.4-5.2-1.9c-1-1.1-1.1-2.3-1.1-3H170.7z"/>
		<path class="st0" d="M189.2,92.3c5.5,0,7.9,3.8,7.9,8c0,4.3-2.5,8.2-8,8.2c-4.4,0-7.8-2.7-7.8-8C181.3,96.8,183.2,92.3,189.2,92.3
			z M189.3,105.4c2,0,3.3-1.2,3.3-5.2c0-2-0.4-4.8-3.4-4.8c-3.3,0-3.3,3.8-3.3,5.2C185.9,103.9,187.1,105.4,189.3,105.4z"/>
	</g>
	<g>
		<path class="st1" d="M71.8,126.5c0-1-0.1-1.9-0.2-2.9H76l0.2,2c0.5-0.7,1.7-2.3,4.7-2.3c3.5,0,4.5,2.1,4.8,2.9
			c1.3-2.5,3.3-2.8,4.9-2.8c3.1,0,4.3,1.8,4.7,2.5c0.8,1.3,0.8,3.2,0.8,4.5v8.6h-4.5v-9c0-1.6-0.2-3.4-2.6-3.4
			c-2.7,0-2.8,2.5-2.8,4.8v7.7h-4.5v-9.1c0-1.2,0-3.4-2.5-3.4c-2.8,0-2.8,2.4-2.8,3.4v9h-4.5V126.5z"/>
		<path class="st1" d="M103.9,123.6v9.1c0,1.3,0,3.4,2.4,3.4c2.9,0,2.9-2.1,2.9-4.8v-7.7h4.6v10.1c0.1,3.3,0.1,3.7,0.1,4.1
			c0,0.4,0.1,0.7,0.1,1.1h-4.4l-0.2-2c-0.5,0.7-1.6,2.4-4.5,2.4c-2.1,0-3.8-0.9-4.6-2.1c-1-1.2-1-3.4-1-4.1v-9.5H103.9z"/>
	</g>
	<g>
		<path class="st1" d="M125.4,129c-0.1-0.5-0.2-2.8-2-2.8c-2.1,0-2.4,3.2-2.4,4.9c0,0.8,0.1,3.6,1.1,4.7c0.4,0.5,0.9,0.5,1.2,0.5
			c0.5,0,1.9-0.2,2.1-2.9h4.4c-0.1,1.2-0.2,3-2,4.5c-1.1,0.9-2.5,1.4-4.4,1.4c-2,0-3.8-0.5-5.2-2c-1.3-1.5-1.9-3.6-1.9-6
			c0-7,5.1-7.9,7.1-7.9c2.8,0,6.2,1.6,6.2,5.7H125.4z"/>
		<path class="st1" d="M132.2,117h4.4v8.7c0.5-0.7,1.6-2.3,4.4-2.3c2.3,0,3.7,1.1,4.4,2.1c0.5,0.8,1,2.1,1,4.1v9.3h-4.4v-9.1
			c0-0.9,0-3.3-2.5-3.3c-1.3,0-2.9,0.7-2.9,3.1l0,9.3h-4.5V117z"/>
	</g>
	<g>
		<path class="st1" d="M157.9,126.5c0-1-0.1-1.9-0.2-2.9h4.3l0.2,2c0.5-0.7,1.7-2.3,4.7-2.3c3.5,0,4.5,2.1,4.8,2.9
			c1.3-2.5,3.3-2.8,4.9-2.8c3.1,0,4.3,1.8,4.7,2.5c0.8,1.3,0.8,3.2,0.8,4.5v8.6h-4.5v-9c0-1.6-0.2-3.4-2.6-3.4
			c-2.7,0-2.8,2.5-2.8,4.8v7.7h-4.5v-9.1c0-1.2,0-3.4-2.5-3.4c-2.8,0-2.8,2.4-2.8,3.4v9h-4.5V126.5z"/>
		<path class="st1" d="M192.8,123.2c5.5,0,7.9,3.8,7.9,8c0,4.3-2.5,8.2-8,8.2c-4.4,0-7.8-2.7-7.8-8
			C184.9,127.7,186.8,123.2,192.8,123.2z M192.9,136.3c2,0,3.3-1.2,3.3-5.2c0-2-0.4-4.8-3.4-4.8c-3.3,0-3.3,3.8-3.3,5.2
			C189.5,134.8,190.7,136.3,192.9,136.3z"/>
		<path class="st1" d="M203.4,127.3c0-0.7-0.1-2.9-0.2-3.8h4.2l0.1,2.9c0.6-1.3,1.6-3.1,5.2-3v4c-4.5-0.4-4.8,1.9-4.8,3.8v7.5h-4.5
			V127.3z"/>
		<path class="st1" d="M218,132.4c0,1,0,4.1,3.1,4.1c1.1,0,2.2-0.4,2.7-2.1h4.1c-0.1,0.7-0.2,2-1.5,3.3c-1.1,1.2-3.1,1.8-5.4,1.8
			c-1.3,0-3.8-0.2-5.4-1.9c-1.4-1.5-2-3.5-2-6c0-2.5,0.6-5.4,3.2-7.2c1.2-0.8,2.6-1.3,4.3-1.3c2.2,0,4.8,0.8,6.2,3.7
			c1,2.1,1,4.3,0.9,5.6H218z M223.7,129.5c0-0.7-0.1-3.4-2.7-3.4c-2,0-2.8,1.6-2.9,3.4H223.7z"/>
	</g>
</g>
</svg>
