<?xml version="1.0" encoding="utf-8"?>
<!-- Generator: Adobe Illustrator 22.1.0, SVG Export Plug-In . SVG Version: 6.00 Build 0)  -->
<svg version="1.1" id="Layer_1" xmlns="http://www.w3.org/2000/svg" xmlns:xlink="http://www.w3.org/1999/xlink" x="0px" y="0px"
	 viewBox="0 0 300 250" style="enable-background:new 0 0 300 250;" xml:space="preserve">
<style type="text/css">
	.st0{fill:#382E5F;}
	.st1{fill:#B78CAE;}
	.st2{fill:#594F77;}
</style>
<g>
	<g>
		<path class="st0" d="M44.4,36.5l0.8-0.1c0.6-0.1,0.9-0.2,0.9-0.4V24.3c0-0.1-0.1-0.1-0.2-0.2S45.4,24,45,24l-0.6-0.1l-0.1-0.4h6.2
			c2.1,0,3.6,0.2,4.6,0.7c0.9,0.5,1.4,1.3,1.4,2.3c0,0.8-0.3,1.4-1,1.9s-1.6,0.8-2.8,1v0.1c1.3,0.1,2.4,0.5,3.2,1.1s1.2,1.4,1.2,2.4
			c0,2.6-2.1,3.8-6.2,3.8h-6.5L44.4,36.5z M49.9,29.6c0.9,0,1.6-0.2,2.2-0.7c0.6-0.5,0.9-1.2,0.9-2.1s-0.3-1.6-0.8-2
			c-0.6-0.5-1.3-0.7-2.2-0.7h-0.4v5.5C49.6,29.6,49.9,29.6,49.9,29.6z M50.6,36.4c0.8-0.1,1.5-0.4,2-1s0.8-1.4,0.8-2.3
			c0-1-0.3-1.8-1-2.3C51.8,30.3,51,30,50,30c-0.3,0-0.4,0-0.4,0v6.2L50.6,36.4L50.6,36.4z"/>
		<path class="st0" d="M64.8,35.3L64.8,35.3c-1.5,1.3-2.7,1.9-3.8,1.9c-0.6,0-1.1-0.3-1.7-0.8c-0.5-0.5-0.7-1.4-0.7-2.6v-5.6
			c0-0.1-0.4-0.2-1.1-0.3h-0.3l-0.1-0.4h4.6l-0.1,5.7c0,0.7,0.1,1.3,0.4,1.6c0.3,0.3,0.7,0.4,1.3,0.4c0.4,0,0.9-0.1,1.4-0.4v-6.6
			c0-0.1-0.1-0.2-0.2-0.2s-0.4-0.1-0.8-0.1h-0.3l-0.1-0.4h4.5v6.8c0,0.5,0,0.9,0.1,1c0.1,0.2,0.3,0.3,0.6,0.4l0.6,0.1v0.3l-4.4,1.1
			L64.8,35.3z"/>
		<path class="st0" d="M69.2,36.5h0.3c0.3,0,0.6-0.1,0.7-0.1s0.2-0.1,0.2-0.3v-5.6c0-0.6-0.1-1.1-0.2-1.3c-0.1-0.2-0.4-0.3-0.7-0.5
			l-0.4-0.1v-0.3l4.4-1.2v9c0,0.1,0.1,0.2,0.2,0.2s0.4,0.1,0.9,0.1h0.2l0.1,0.4h-5.6L69.2,36.5z M70.5,25.5
			c-0.3-0.4-0.5-0.8-0.5-1.3s0.2-0.9,0.5-1.3s0.8-0.5,1.3-0.5c0.6,0,1,0.2,1.3,0.5c0.3,0.4,0.5,0.8,0.5,1.3s-0.2,0.9-0.5,1.3
			S72.3,26,71.8,26C71.3,26.1,70.8,25.9,70.5,25.5z"/>
		<path class="st0" d="M75.2,36.5h0.3c0.3,0,0.5,0,0.6-0.1c0.1,0,0.1-0.1,0.1-0.3V25.5c0-0.5,0-0.9-0.1-1c-0.1-0.2-0.3-0.3-0.6-0.4
			L75,23.8v-0.3l4.4-1.2v13.8c0,0.2,0.3,0.3,0.9,0.3h0.3l0.1,0.4h-5.5L75.2,36.5z"/>
	</g>
	<g>
		<path class="st0" d="M88.1,35.3L88.1,35.3c-0.5,0.5-1,1-1.6,1.3s-1.2,0.5-1.8,0.5c-1.1,0-2-0.4-2.8-1.3s-1.1-2-1.1-3.3
			c0-1.6,0.5-2.9,1.6-3.8s2.4-1.4,3.8-1.4c0.7,0,1.3,0.1,1.7,0.3l0,0v-2.3c0-0.5,0-0.9-0.1-1.1s-0.3-0.3-0.6-0.4l-0.8-0.2v-0.3
			l4.6-0.9v12.2c0,0.5,0,0.9,0.1,1.1S91.7,36,92,36l0.6,0.1v0.3l-4.4,0.7L88.1,35.3L88.1,35.3z M88.1,34.8v-5.3
			c-0.3-0.5-0.7-0.9-1-1.3c-0.4-0.3-0.7-0.5-1-0.5c-0.6,0-1,0.4-1.3,1.1s-0.5,1.7-0.5,2.9c0,1.1,0.2,2,0.6,2.7s1,1,1.7,1
			C87,35.5,87.6,35.2,88.1,34.8z"/>
	</g>
	<g>
		<path class="st0" d="M98.2,36.5l0.9-0.1c0.6-0.1,0.9-0.2,0.9-0.4l1-5l-1.9-5.1c-0.3-0.7-0.5-1.2-0.7-1.5C98.3,24.2,98,24,97.5,24
			l-0.3-0.1v-0.4h7l-0.1,0.4l-0.4,0.1c-0.6,0.1-1,0.2-1.2,0.4c-0.2,0.2-0.2,0.6,0,1l1.6,4.7h0.1l1.9-2.6c0.6-0.8,1-1.4,1.3-1.8
			s0.4-0.7,0.4-1s0-0.5-0.2-0.6s-0.5-0.2-1-0.2l-0.5-0.1v-0.4h5l-0.1,0.4l-0.5,0.1c-0.6,0.1-1.1,0.3-1.5,0.7
			c-0.4,0.4-1.2,1.4-2.4,3.1l-2.1,2.8l-1,5.4c0,0.1,0,0.2,0.1,0.2s0.4,0.1,0.8,0.1l0.7,0.1v0.4H98L98.2,36.5z"/>
		<path class="st0" d="M108.8,36c-0.7-0.8-1.1-1.8-1.1-3.1c0-1.5,0.5-2.8,1.6-4s2.3-1.8,3.7-1.8c1.1,0,2,0.4,2.8,1.3
			s1.1,1.9,1.1,3.2c0,1.5-0.5,2.8-1.6,3.9c-1.1,1.1-2.3,1.7-3.7,1.7C110.5,37.2,109.6,36.8,108.8,36z M113.7,33
			c0.4-1.4,0.7-2.6,0.7-3.6c0-0.6-0.1-1-0.3-1.3c-0.2-0.3-0.4-0.4-0.7-0.4c-0.4,0-0.8,0.3-1.3,1c-0.4,0.6-0.8,1.6-1.2,2.8
			c-0.4,1.3-0.6,2.4-0.6,3.4c0,0.5,0.1,0.9,0.3,1.2c0.2,0.3,0.4,0.4,0.7,0.4C112.2,36.6,113,35.4,113.7,33z"/>
	</g>
	<g>
		<path class="st0" d="M124.5,36.6c-0.5-0.4-0.8-0.7-0.8-1s0.1-0.9,0.4-1.9c0.3-0.9,0.6-1.8,0.9-2.6h-0.1c-1.4,2.8-2.5,4.5-3.1,5.1
			c-0.7,0.7-1.3,1-1.9,1c-0.7,0-1.2-0.2-1.7-0.6c-0.4-0.4-0.6-0.8-0.6-1.2c0-0.6,0.3-1.8,1-3.5l1.1-2.8l-0.9-0.1l-1.4,2l-0.2-0.2
			c0.5-1,1.1-1.8,1.7-2.5c0.7-0.7,1.2-1,1.7-1c0.3,0,0.6,0.2,1.2,0.7c0.5,0.4,0.8,0.8,0.8,1.1c0,0.1,0,0.2-0.1,0.4
			c0,0.1-0.1,0.3-0.1,0.5c-0.1,0.2-0.1,0.4-0.2,0.6s-0.2,0.5-0.3,0.8c-0.1,0.4-0.3,0.7-0.4,1c-0.5,1.3-0.7,2-0.7,2.2
			c0,0.1,0.1,0.2,0.4,0.4c0.2,0.1,0.5,0.2,0.7,0.2c0.6,0,1.7-1.7,3.3-5.1l0.8-2.5h3l-1.2,3.4l-1.2,4.4l0.9,0.1l1.4-1.8l0.2,0.2
			c-0.5,1-1,1.8-1.7,2.4s-1.2,1-1.7,1C125.5,37.2,125.1,37,124.5,36.6z"/>
		<path class="st0" d="M129.2,36.9l1.1-3.4l1.2-4.4l-0.9-0.1l-1.3,2l-0.2-0.2c0.5-1,1-1.8,1.6-2.5s1.2-1.1,1.6-1.1
			c0.3,0,0.7,0.2,1.3,0.6s0.9,0.7,0.9,1c0,0.5-0.4,1.9-1.3,4.3h0.1c1.4-2.7,2.2-4.2,2.5-4.5c0.3-0.5,0.7-0.8,1-1s0.7-0.3,1.1-0.3
			c0.5,0,0.9,0.2,1.3,0.5c0.4,0.3,0.6,0.8,0.6,1.4s-0.2,1-0.5,1.4s-0.7,0.6-1.2,0.6c-0.7,0-1.1-0.3-1.3-0.9s0-1.1,0.5-1.5l-0.7-0.2
			c-0.5,0.2-1.6,2.1-3.3,5.5l-0.9,3L129.2,36.9z"/>
	</g>
	<g>
		<path class="st0" d="M21.4,48.9c-0.3-0.9-0.6-1.4-0.8-1.7c-0.2-0.3-0.5-0.4-0.9-0.5l-0.5-0.1l-0.1-0.4h7.1l-0.1,0.4h-0.7
			c-0.5,0-0.8,0.1-0.9,0.4c-0.1,0.2,0,0.5,0.1,1l2.9,7.8h0.1l2.2-6l-0.3-1c-0.3-0.8-0.5-1.3-0.8-1.6s-0.5-0.5-0.9-0.5l-0.6-0.1
			l-0.1-0.4h7.3l-0.1,0.4h-0.6c-0.5,0-0.8,0.1-0.9,0.3c-0.1,0.2-0.1,0.6,0.1,1.2l2.5,7.5h0.1l1.8-5.3c0.2-0.6,0.3-1,0.4-1.2
			c0.1-0.3,0.2-0.6,0.2-0.9c0.1-0.3,0.1-0.6,0.1-0.7c0-0.1-0.1-0.3-0.2-0.4c-0.1-0.2-0.2-0.3-0.4-0.3s-0.5-0.1-0.8-0.1l-0.5-0.1
			L36,46.2h5v0.4l-0.4,0.1c-0.7,0.1-1.2,0.4-1.5,0.7c-0.2,0.4-0.7,1.4-1.2,3l-3.4,9.4h-1.1l-3.2-9.2h-0.1l-3.4,9.2h-1.2L21.4,48.9z"
			/>
		<path class="st0" d="M40.7,58.7c-0.9-0.9-1.3-2.1-1.3-3.5c0-1.5,0.5-2.8,1.5-3.8s2.3-1.5,3.8-1.5c1.2,0,2.1,0.3,2.8,1
			c0.7,0.6,1,1.4,1,2.3c0,0.2,0,0.4-0.1,0.6c-3.3,0-5.2-0.1-5.8-0.1c0,0.1,0,0.4,0,0.7c0,1.1,0.3,2.1,0.8,2.8s1.3,1,2.2,1
			c1.2,0,2-0.5,2.6-1.6l0.3,0.1C47.8,58.9,46.2,60,44,60C42.7,60,41.6,59.6,40.7,58.7z M45.6,53.3c0-0.8-0.1-1.5-0.3-2
			s-0.5-0.8-1-0.8c-0.4,0-0.8,0.2-1.1,0.7s-0.5,1.2-0.6,2.1H45.6z"/>
	</g>
	<g>
		<path class="st0" d="M55.3,59.4c-0.4-0.3-0.6-0.9-0.6-1.5h-0.1c-0.6,0.7-1.1,1.2-1.6,1.5s-1,0.5-1.5,0.5c-0.6,0-1.2-0.2-1.6-0.6
			c-0.5-0.4-0.7-0.9-0.7-1.6c0-0.8,0.4-1.5,1.3-2.1c0.8-0.6,2.2-1.1,4.2-1.7v-0.6c0-0.8-0.1-1.4-0.5-1.9s-0.9-0.7-1.6-0.7
			c-0.8,0-1.1,0.1-1.1,0.4c0,0,0.1,0.2,0.3,0.5s0.3,0.6,0.3,0.8c0,0.3-0.1,0.6-0.4,0.9c-0.3,0.3-0.6,0.4-1,0.4s-0.7-0.1-1-0.3
			s-0.4-0.5-0.4-0.8c0-0.7,0.6-1.4,1.7-1.9s2.3-0.8,3.4-0.8c1.2,0,2.1,0.3,2.7,0.8c0.5,0.6,0.8,1.4,0.8,2.7l-0.2,3.8
			c0,0.8,0.2,1.2,0.7,1.2c0.2,0,0.5-0.2,0.9-0.7l0.2,0.2c-1.1,1.3-2,2-2.9,2C56.1,60,55.7,59.8,55.3,59.4z M54.5,57.5l0.1-3
			c-0.9,0.3-1.6,0.6-2,0.9c-0.4,0.4-0.6,0.8-0.6,1.4c0,0.4,0.1,0.8,0.3,1s0.5,0.4,0.9,0.4C53.8,58.1,54.2,57.9,54.5,57.5z"/>
		<path class="st0" d="M59.3,59.3h0.3c0.3,0,0.5,0,0.6-0.1c0.1,0,0.1-0.1,0.1-0.3V48.3c0-0.5,0-0.9-0.1-1c-0.1-0.2-0.3-0.3-0.6-0.4
			L59,46.6v-0.3l4.4-1.2V59c0,0.2,0.3,0.3,0.9,0.3h0.3l0.1,0.4h-5.5L59.3,59.3z"/>
		<path class="st0" d="M66.2,56.8l0.1-5l-1.7-0.1l0.6-1.1l1.9-1.4l1.8-1.3h0.5v2.5h3.3l-0.3,1.3h-3l-0.1,4.5c0,0.8,0.1,1.4,0.4,1.7
			s0.7,0.5,1.3,0.5c0.7,0,1.2-0.2,1.7-0.6l0.1,0.3c-1.1,1.2-2.3,1.8-3.6,1.8C67.1,59.9,66.1,58.9,66.2,56.8z"/>
		<path class="st0" d="M72.4,59.3h0.3c0.3,0,0.6-0.1,0.7-0.1s0.2-0.1,0.2-0.3V48.3c0-0.5,0-0.9-0.1-1c-0.1-0.2-0.3-0.3-0.6-0.4
			l-0.6-0.2v-0.3l4.4-1.2v6.7l0,0c1.5-1.2,2.7-1.9,3.7-1.9c0.7,0,1.3,0.3,1.8,0.8s0.7,1.3,0.7,2.5v5.6c0,0.1,0.3,0.3,1,0.4h0.2
			l0.1,0.4h-5.5l0.1-0.4h0.4c0.2,0,0.4,0,0.5-0.1c0.1,0,0.2-0.1,0.2-0.1s0-0.1,0-0.2v-5c0-0.7-0.1-1.3-0.4-1.6s-0.7-0.4-1.2-0.4
			s-1,0.1-1.5,0.4V59c0,0.2,0.3,0.3,0.8,0.3h0.3l0.1,0.4h-5.6V59.3z"/>
		<path class="st0" d="M88.3,59.3l-0.3-4h0.7l1.1,2.5c0.9,1.1,1.9,1.6,3.1,1.6c0.9,0,1.5-0.2,2-0.6c0.4-0.4,0.7-1,0.7-1.7
			c0-0.3-0.1-0.7-0.2-0.9c-0.1-0.3-0.3-0.5-0.5-0.7s-0.4-0.4-0.8-0.5c-0.4-0.2-0.7-0.3-0.9-0.4s-0.6-0.2-1.1-0.4
			c-1.3-0.4-2.2-0.9-2.9-1.5c-0.6-0.5-1-1.3-1-2.4c0-1.2,0.5-2.3,1.4-3.1s2.1-1.2,3.5-1.2c0.8,0,1.9,0.2,3.1,0.5l1-0.3l0.1,4.2h-0.6
			l-1.9-3.5c-0.5-0.2-1.1-0.4-1.8-0.4c-0.7,0-1.3,0.2-1.7,0.5s-0.7,0.8-0.7,1.4c0,0.3,0.1,0.6,0.2,0.9c0.1,0.3,0.4,0.5,0.7,0.7
			c0.4,0.2,0.7,0.4,0.9,0.5c0.3,0.1,0.7,0.3,1.3,0.5c0.6,0.2,1.2,0.4,1.6,0.6c0.4,0.2,0.9,0.5,1.3,0.8s0.7,0.7,0.9,1.2
			c0.2,0.5,0.3,1,0.3,1.7c0,1.3-0.5,2.4-1.5,3.3c-1,0.9-2.2,1.3-3.7,1.3C91,60,89.5,59.7,88.3,59.3z"/>
		<path class="st0" d="M100.1,58.7c-0.9-0.9-1.3-2.1-1.3-3.5c0-1.5,0.5-2.8,1.5-3.8s2.3-1.5,3.8-1.5c1.2,0,2.1,0.3,2.8,1
			c0.7,0.6,1,1.4,1,2.3c0,0.2,0,0.4-0.1,0.6c-3.3,0-5.2-0.1-5.8-0.1c0,0.1,0,0.4,0,0.7c0,1.1,0.3,2.1,0.8,2.8s1.3,1,2.2,1
			c1.2,0,2-0.5,2.6-1.6l0.3,0.1c-0.8,2.2-2.3,3.3-4.6,3.3C102.1,60,101,59.6,100.1,58.7z M105.1,53.3c0-0.8-0.1-1.5-0.3-2
			c-0.2-0.5-0.5-0.8-1-0.8c-0.4,0-0.8,0.2-1.1,0.7c-0.3,0.5-0.5,1.2-0.6,2.1H105.1z"/>
	</g>
	<g>
		<path class="st0" d="M108.4,59.3h0.3c0.3,0,0.6-0.1,0.7-0.1s0.2-0.1,0.2-0.3v-5.6c0-0.6-0.1-1.1-0.2-1.3s-0.4-0.3-0.7-0.5
			l-0.4-0.1v-0.3l4.4-1.2v1.9l0,0c1.4-1.3,2.6-1.9,3.6-1.9c0.7,0,1.3,0.2,1.8,0.7c0.3,0.3,0.5,0.7,0.6,1.2h0.1
			c1.3-1.3,2.6-1.9,3.7-1.9c0.7,0,1.2,0.3,1.8,0.8c0.5,0.5,0.7,1.5,0.7,3.1v5.1c0,0.1,0,0.1,0,0.1s0.1,0.1,0.3,0.1s0.4,0.1,0.7,0.1
			h0.2l0.1,0.4h-5.5l0.1-0.4h0.4c0.2,0,0.4,0,0.5-0.1S122,59,122,59s0-0.1,0-0.2v-5c0-0.8-0.1-1.3-0.4-1.6s-0.7-0.4-1.3-0.4
			c-0.7,0-1.1,0.2-1.3,0.6V59c0,0.1,0.1,0.1,0.1,0.2c0.1,0,0.3,0.1,0.7,0.1h0.3l0.1,0.4h-5.5l0.1-0.4h0.4c0.5,0,0.7-0.1,0.7-0.4v-5
			c0-0.8-0.1-1.3-0.4-1.6s-0.7-0.4-1.3-0.4c-0.4,0-0.8,0.1-1.3,0.4V59c0,0.1,0.1,0.2,0.1,0.2c0.1,0.1,0.3,0.1,0.7,0.1h0.3l0.1,0.4
			h-5.5L108.4,59.3z"/>
		<path class="st0" d="M126.7,59.3h0.3c0.3,0,0.6-0.1,0.7-0.1s0.2-0.1,0.2-0.3v-5.6c0-0.6-0.1-1.1-0.2-1.3s-0.4-0.3-0.7-0.5
			l-0.4-0.1v-0.3l4.4-1.2v9c0,0.1,0.1,0.2,0.2,0.2c0.1,0,0.4,0.1,0.9,0.1h0.2l0.1,0.4h-5.6L126.7,59.3z M127.9,48.3
			c-0.3-0.4-0.5-0.8-0.5-1.3s0.2-0.9,0.5-1.3c0.3-0.4,0.8-0.5,1.3-0.5c0.6,0,1,0.2,1.3,0.5c0.3,0.4,0.5,0.8,0.5,1.3
			s-0.2,0.9-0.5,1.3c-0.3,0.4-0.8,0.5-1.3,0.5C128.7,48.9,128.3,48.7,127.9,48.3z"/>
	</g>
	<g>
		<path class="st0" d="M132.7,59.3h0.3c0.3,0,0.6-0.1,0.7-0.1c0.1,0,0.2-0.1,0.2-0.3v-5.6c0-0.6-0.1-1.1-0.2-1.3
			c-0.1-0.2-0.4-0.3-0.7-0.5l-0.4-0.1v-0.3L137,50v1.8l0,0c1.5-1.2,2.8-1.9,3.7-1.9c0.7,0,1.2,0.3,1.8,0.8c0.5,0.5,0.7,1.3,0.7,2.5
			v5.6c0,0.1,0.3,0.3,1,0.4h0.2l0.1,0.4H139l0.1-0.4h0.3c0.3,0,0.5,0,0.6-0.1s0.1-0.1,0.1-0.3v-5c0-0.8-0.1-1.3-0.4-1.6
			c-0.3-0.3-0.7-0.4-1.3-0.4c-0.5,0-1,0.1-1.5,0.4V59c0,0.2,0.3,0.3,0.8,0.3h0.3v0.4h-5.5L132.7,59.3z"/>
		<path class="st0" d="M150.8,59.4c-0.4-0.3-0.6-0.9-0.6-1.5h-0.1c-0.6,0.7-1.1,1.2-1.6,1.5s-1,0.5-1.5,0.5c-0.6,0-1.2-0.2-1.6-0.6
			c-0.5-0.4-0.7-0.9-0.7-1.6c0-0.8,0.4-1.5,1.3-2.1c0.8-0.6,2.2-1.1,4.2-1.7v-0.6c0-0.8-0.1-1.4-0.5-1.9s-0.9-0.7-1.6-0.7
			c-0.8,0-1.1,0.1-1.1,0.4c0,0,0.1,0.2,0.3,0.5s0.3,0.6,0.3,0.8c0,0.3-0.1,0.6-0.4,0.9c-0.3,0.3-0.6,0.4-1,0.4s-0.7-0.1-1-0.3
			s-0.4-0.5-0.4-0.8c0-0.7,0.6-1.4,1.7-1.9s2.3-0.8,3.4-0.8c1.2,0,2.1,0.3,2.7,0.8s0.8,1.4,0.8,2.7l-0.2,3.8c0,0.8,0.2,1.2,0.7,1.2
			c0.2,0,0.5-0.2,0.9-0.7l0.2,0.2c-1.1,1.3-2,2-2.9,2C151.6,60,151.1,59.8,150.8,59.4z M150,57.5l0.1-3c-0.9,0.3-1.6,0.6-2,0.9
			c-0.4,0.4-0.6,0.8-0.6,1.4c0,0.4,0.1,0.8,0.3,1s0.5,0.4,0.9,0.4C149.3,58.1,149.7,57.9,150,57.5z"/>
	</g>
	<g>
		<path class="st0" d="M154.7,59.3h0.3c0.3,0,0.6-0.1,0.7-0.1c0.1,0,0.2-0.1,0.2-0.3v-5.6c0-0.6-0.1-1.1-0.2-1.3
			c-0.1-0.2-0.4-0.3-0.7-0.5l-0.4-0.1v-0.3L159,50v3.2h0.1c0.7-2.1,1.7-3.2,2.9-3.2c0.5,0,0.9,0.1,1.2,0.4c0.3,0.3,0.5,0.7,0.5,1.3
			c0,0.4-0.1,0.7-0.4,1c-0.3,0.3-0.6,0.5-1,0.5c-0.8,0-1.3-0.4-1.6-1.3c-0.6,0.2-1.1,1-1.6,2.4V59c0,0.2,0.4,0.3,1.1,0.4h0.4
			l0.1,0.4h-5.8L154.7,59.3z"/>
	</g>
</g>
<polygon class="st1" points="18.3,161.6 17.9,161.6 17.9,220.7 158.4,220.7 158.4,161.2 17.9,161.2 17.9,161.6 18.3,161.6 
	18.3,162.1 157.5,162.1 157.5,219.8 18.8,219.8 18.8,161.6 18.3,161.6 18.3,162.1 "/>
<g>
	<g>
		<path class="st2" d="M45.9,172l1,5l1.3-5h1.6l1.2,5l1.1-5h1.4l-1.7,6.6h-1.6l-1.2-5.1l-1.3,5.1h-1.6l-1.6-6.6H45.9z"/>
		<path class="st2" d="M54.3,172h1.4v6.7h-1.4V172z"/>
		<path class="st2" d="M58.5,173.1h-2V172H62v1.1h-2v5.5h-1.4L58.5,173.1L58.5,173.1z"/>
		<path class="st2" d="M62.8,172h1.4v2.7h2.5V172h1.4v6.7h-1.4v-2.9h-2.5v2.9h-1.4C62.8,178.7,62.8,172,62.8,172z"/>
	</g>
	<g>
		<path class="st2" d="M72.1,172h2.1c1,0,1.8,0.1,2.3,0.7c0.3,0.4,0.4,0.9,0.4,1.2c0,0.8-0.3,1.4-0.8,1.8c-0.5,0.3-1.2,0.3-1.5,0.3
			h-1v2.6h-1.4L72.1,172L72.1,172z M73.5,175H74c0.5,0,1.3,0,1.3-1c0-0.9-0.8-0.9-1.2-0.9h-0.7L73.5,175L73.5,175z"/>
		<path class="st2" d="M77.7,172h2.5c0.7,0,1.5,0,2,0.5c0.4,0.4,0.6,0.8,0.6,1.3c0,1.2-1.1,1.5-1.4,1.6c1,0.1,1.1,0.7,1.2,1.5
			s0.2,1.1,0.2,1.3c0.1,0.3,0.1,0.4,0.2,0.5h-1.6c-0.1-0.4-0.3-2.1-0.4-2.3c-0.1-0.4-0.5-0.4-0.7-0.4H79v2.7h-1.5V172H77.7z
			 M79.1,174.9h1.1c0.2,0,0.5,0,0.7-0.2c0.1-0.1,0.4-0.3,0.4-0.8s-0.2-0.7-0.3-0.7c-0.2-0.2-0.5-0.2-0.9-0.2h-1
			C79.1,173,79.1,174.9,79.1,174.9z"/>
	</g>
	<g>
		<path class="st2" d="M86.9,171.9c0.7,0,1.7,0.2,2.3,0.9c0.7,0.8,0.8,1.8,0.8,2.5c0,1-0.3,2-0.8,2.6c-0.7,0.8-1.8,0.9-2.4,0.9
			c-0.9,0-1.7-0.3-2.4-0.9c-0.7-0.8-0.8-1.9-0.8-2.5C83.7,173.7,84.5,171.9,86.9,171.9z M85.7,177.2c0.2,0.3,0.5,0.5,1.2,0.5
			c0.6,0,1-0.2,1.2-0.6c0.2-0.3,0.5-0.8,0.5-1.9c0-0.3,0-0.8-0.2-1.2c-0.3-0.8-0.8-1.2-1.5-1.2c-0.5,0-1,0.2-1.2,0.6
			c-0.4,0.5-0.5,1.2-0.5,1.9S85.3,176.7,85.7,177.2z"/>
		<path class="st2" d="M91.2,172h2.3l1.4,4.8l1.5-4.8h2.3v6.7h-1.4V173l-1.8,5.7h-1.2l-1.8-5.7v5.7h-1.3V172z"/>
	</g>
	<g>
		<path class="st2" d="M103.1,171.9c0.7,0,1.7,0.2,2.3,0.9c0.7,0.8,0.8,1.8,0.8,2.5c0,1-0.3,2-0.8,2.6c-0.7,0.8-1.8,0.9-2.4,0.9
			c-0.9,0-1.7-0.3-2.4-0.9c-0.7-0.8-0.8-1.9-0.8-2.5C99.9,173.7,100.7,171.9,103.1,171.9z M101.9,177.2c0.2,0.3,0.5,0.5,1.2,0.5
			c0.6,0,1-0.2,1.2-0.6c0.2-0.3,0.5-0.8,0.5-1.9c0-0.3,0-0.8-0.2-1.2c-0.3-0.8-0.8-1.2-1.5-1.2c-0.5,0-1,0.2-1.2,0.6
			c-0.4,0.5-0.5,1.2-0.5,1.9S101.5,176.7,101.9,177.2z"/>
	</g>
	<g>
		<path class="st2" d="M113.6,174.2c0-0.2-0.1-1.2-1.1-1.2c-1.1,0-1.5,1.1-1.5,2.5c0,0.4,0,2.3,1.4,2.3c0.6,0,1.2-0.4,1.2-1.3h1.5
			c0,0.4-0.1,1-0.6,1.6c-0.6,0.6-1.3,0.7-1.9,0.7c-2.3,0-3-1.7-3-3.3c0-2.1,1.2-3.5,3-3.5c1.5,0,2.5,0.9,2.5,2.2H113.6z"/>
		<path class="st2" d="M119,171.9c0.7,0,1.7,0.2,2.3,0.9c0.7,0.8,0.8,1.8,0.8,2.5c0,1-0.3,2-0.8,2.6c-0.7,0.8-1.8,0.9-2.4,0.9
			c-0.9,0-1.7-0.3-2.4-0.9c-0.7-0.8-0.8-1.9-0.8-2.5C115.8,173.7,116.6,171.9,119,171.9z M117.8,177.2c0.2,0.3,0.5,0.5,1.2,0.5
			c0.6,0,1-0.2,1.2-0.6c0.2-0.3,0.5-0.8,0.5-1.9c0-0.3,0-0.8-0.2-1.2c-0.3-0.8-0.8-1.2-1.5-1.2c-0.5,0-1,0.2-1.2,0.6
			c-0.4,0.5-0.5,1.2-0.5,1.9S117.4,176.7,117.8,177.2z"/>
		<path class="st2" d="M123.3,172h2.2c0.4,0,1.5,0,2.3,0.6s1.1,1.7,1.1,2.6c0,2-1.1,3.1-2.4,3.3c-0.2,0-0.5,0.1-1.2,0.1h-2.1
			L123.3,172L123.3,172z M124.7,177.6c0.2,0,0.4,0,0.6,0c0.6,0,1.1,0,1.5-0.5c0.6-0.6,0.6-1.6,0.6-1.9c0-0.9-0.3-1.8-1.2-2.1
			c-0.3-0.1-0.7-0.1-1.5-0.1V177.6z"/>
		<path class="st2" d="M130.1,172h4.5v1.1h-3v1.6h2.8v1.1h-2.8v1.8h3.1v1.1h-4.6V172z"/>
	</g>
	<g>
		<path class="st1" d="M47.9,183.6l3.5,10.6l3.5-10.6h2.9l-5,13.4h-3.2l-5-13.4H47.9z"/>
		<path class="st1" d="M59.3,183.6h2.9v13.5h-2.9V183.6z"/>
		<path class="st1" d="M64.9,183.6H69c1.9,0,3.6,0.1,4.7,1.5c0.7,0.9,0.8,1.8,0.8,2.5c0,1.6-0.7,2.9-1.7,3.6c-1,0.6-2.3,0.6-3.1,0.6
			h-2v5.2h-2.9L64.9,183.6L64.9,183.6z M67.7,189.7h1.2c0.9,0,2.7,0,2.7-2.1c0-1.8-1.5-1.8-2.4-1.8h-1.5
			C67.7,185.8,67.7,189.7,67.7,189.7z"/>
		<path class="st1" d="M82.5,183.3c1.4,0,3.4,0.3,4.7,1.8c1.4,1.6,1.7,3.7,1.7,5.1c0,2-0.6,4-1.7,5.3c-1.5,1.7-3.7,1.9-4.8,1.9
			c-1.8,0-3.5-0.6-4.8-1.8c-1.5-1.6-1.7-3.8-1.7-5C76.1,186.9,77.7,183.3,82.5,183.3z M80.1,194.2c0.4,0.6,1.1,1.1,2.4,1.1
			c1.2,0,2-0.4,2.5-1.2c0.4-0.7,0.9-1.7,0.9-3.9c0-0.7-0.1-1.6-0.3-2.4c-0.6-1.7-1.7-2.4-3.1-2.4c-1.1,0-1.9,0.4-2.5,1.1
			c-0.8,0.9-1,2.4-1,3.9C79.1,191.7,79.3,193.2,80.1,194.2z"/>
	</g>
	<g>
		<path class="st1" d="M91.3,183.6h8.7v2.2h-5.8v3.3h5.4v2.2h-5.4v5.7h-2.9C91.3,197,91.3,183.6,91.3,183.6z"/>
		<path class="st1" d="M101.7,183.6h8.7v2.2h-5.8v3.3h5.4v2.2h-5.4v5.7h-2.9C101.7,197,101.7,183.6,101.7,183.6z"/>
	</g>
	<g>
		<path class="st1" d="M112.2,183.6h9v2.2h-6.1v3.2h5.7v2.2h-5.7v3.6h6.3v2.2h-9.2C112.2,197,112.2,183.6,112.2,183.6z"/>
		<path class="st1" d="M123.6,183.6h5.2c1.5,0,3,0,4.1,0.9c0.8,0.7,1.2,1.7,1.2,2.6c0,2.5-2.2,3.1-2.8,3.3c2,0.2,2.2,1.3,2.4,3.1
			c0.2,1.6,0.3,2.2,0.4,2.6c0.1,0.6,0.3,0.7,0.4,1h-3.2c-0.1-0.7-0.5-4.2-0.7-4.7c-0.3-0.8-1-0.8-1.5-0.8h-2.5v5.4h-2.9L123.6,183.6
			L123.6,183.6z M126.5,189.5h2.3c0.3,0,1,0,1.5-0.4c0.2-0.1,0.7-0.6,0.7-1.6c0-0.9-0.4-1.3-0.7-1.5c-0.4-0.3-1-0.3-1.9-0.3h-1.9
			C126.5,185.7,126.5,189.5,126.5,189.5z"/>
	</g>
</g>
<g>
	<g>
		<path class="st1" d="M53.3,96.5c-0.1,3.6,2.3,4,3.1,4v-6.4c-3.9-1.1-7.5-2.5-7.5-7.4c0-1.3,0.3-3.1,1.9-4.8
			c2.1-2.3,4.6-2.4,5.9-2.6v-3.1h2v3c1.9,0.1,4.1,0.5,5.8,2.2c1.7,1.7,1.8,3.8,1.8,5h-4.9c-0.1-2.7-1.2-3.2-2.8-3.4v6.5
			c4.1,1,8,2.3,8,7.5c0,2.9-1.7,4.8-3.1,5.9c-1.9,1.3-3.8,1.5-5.1,1.6v3.6h-1.9v-3.6c-3.5,0.1-5.5-1.6-6-2.1c-1.5-1.4-1.9-3.2-2-5.8
			L53.3,96.5L53.3,96.5z M56.6,83.1c-1.9,0.1-2.8,1.3-2.8,2.8c0,2.1,1.3,2.6,2.8,3V83.1z M58.4,100.7c1.5-0.1,3-1.2,3-3.1
			c0-1.5-0.8-2.4-3-3V100.7z"/>
		<path class="st1" d="M68.4,99.2l6.6-6c1.2-1.1,2.5-2.2,3.8-3.9c1.4-1.7,1.7-2.5,1.7-3.7c0-1.9-1.1-3.2-3-3.2c-2.9,0-3.2,3-3.2,3.7
			h-5.6c0-1,0-2.9,1.5-4.8c1.5-1.8,4.2-2.8,7.3-2.8c5.5,0,8.6,3,8.6,6.9c0,2.6-1,6-12,14.9c3.7-0.1,4.1-0.1,7-0.1
			c3.9-0.1,4.3-0.1,5.2-0.1v4.2H68.4V99.2z"/>
	</g>
	<g>
		<path class="st1" d="M94.2,98.2c0.1,1.5,1.1,2.5,2.7,2.5c3.8,0,4.1-3.9,4-7.4C99,94.9,97.3,95,96.2,95c-6.2,0-7.8-5-7.8-8
			c0-4.7,3.4-8.3,9-8.3c8.7,0,9,8.3,9,12.4c0,10.7-3.6,13.8-9.8,13.8c-1.4,0-7.9,0-7.9-6.7C88.7,98.2,94.2,98.2,94.2,98.2z
			 M100.7,86.6c0-2.2-1.2-3.9-3.4-3.9c-2.6,0-3.5,2.1-3.5,4c0,0.9,0.3,4,3.4,4C99.9,90.8,100.7,88.4,100.7,86.6z"/>
	</g>
	<g>
		<path class="st1" d="M108.2,89.4h2.7v2.8h-2.7V89.4z"/>
		<path class="st1" d="M117.8,77.2c2.1,0,3.3,1.1,3.9,2c0.8,1.1,1.3,2.6,1.3,5.4c0,3.4-0.8,8-5.2,8c-3.8,0-5.1-3.7-5.1-7.6
			C112.6,82.9,113.1,77.2,117.8,77.2z M119.4,81.4c-0.1-0.4-0.4-1.7-1.6-1.7c-0.9,0-1.3,0.8-1.5,1.3c-0.5,1.5-0.5,3.8-0.5,4.1
			c0,2.5,0.4,4.9,2,4.9c1.7,0,2-2.9,2-4.9C119.8,84.1,119.7,82.4,119.4,81.4z"/>
	</g>
	<g>
		<path class="st1" d="M129.7,77.2c2.1,0,3.3,1.1,3.9,2c0.8,1.1,1.3,2.6,1.3,5.4c0,3.4-0.8,8-5.2,8c-3.8,0-5.1-3.7-5.1-7.6
			C124.5,82.9,124.9,77.2,129.7,77.2z M131.3,81.4c-0.1-0.4-0.4-1.7-1.6-1.7c-0.9,0-1.3,0.8-1.5,1.3c-0.5,1.5-0.5,3.8-0.5,4.1
			c0,2.5,0.4,4.9,2,4.9c1.7,0,2-2.9,2-4.9C131.7,84.1,131.6,82.4,131.3,81.4z"/>
	</g>
</g>
<g>
	<path class="st1" d="M63.7,111.3h2.2c1,0,1.9,0.1,2.5,0.8c0.4,0.5,0.4,1,0.4,1.3c0,0.8-0.3,1.5-0.9,1.9c-0.5,0.3-1.3,0.3-1.6,0.3
		h-1v2.8h-1.6C63.7,118.4,63.7,111.3,63.7,111.3z M65.2,114.5h0.6c0.5,0,1.4,0,1.4-1.1c0-1-0.8-1-1.3-1h-0.8v2.1H65.2z"/>
	<path class="st1" d="M69.9,111.3h4.8v1.2h-3.3v1.7h3.1v1.2h-3.1v1.9h3.4v1.2h-4.9V111.3z"/>
</g>
<g>
	<path class="st1" d="M76,111.3h2.8c0.8,0,1.6,0,2.2,0.5c0.4,0.4,0.6,0.9,0.6,1.4c0,1.3-1.2,1.7-1.5,1.8c1.1,0.1,1.2,0.7,1.3,1.7
		c0.1,0.8,0.2,1.2,0.2,1.4c0.1,0.3,0.1,0.4,0.2,0.5h-1.7c-0.1-0.4-0.3-2.2-0.4-2.5c-0.1-0.4-0.5-0.4-0.8-0.4h-1.4v2.9H76V111.3z
		 M77.5,114.4h1.2c0.2,0,0.5,0,0.8-0.2c0.1-0.1,0.4-0.3,0.4-0.8s-0.2-0.7-0.4-0.8c-0.2-0.2-0.5-0.2-1-0.2h-1V114.4z"/>
	<path class="st1" d="M87.1,112.4H85v-1.2h5.9v1.2h-2.1v6h-1.6v-6H87.1z"/>
</g>
<g>
	<path class="st1" d="M91.7,111.2h1.5v7.2h-1.5V111.2z"/>
	<path class="st1" d="M98.8,113.6c0-0.3-0.1-1.3-1.2-1.3S96,113.5,96,115c0,0.4,0,2.5,1.5,2.5c0.6,0,1.3-0.4,1.3-1.4h1.6
		c0,0.4-0.1,1.1-0.6,1.7c-0.6,0.7-1.4,0.8-2.1,0.8c-2.5,0-3.3-1.8-3.3-3.6c0-2.3,1.3-3.8,3.3-3.8c1.6,0,2.7,1,2.7,2.4
		C100.4,113.6,98.8,113.6,98.8,113.6z"/>
	<path class="st1" d="M101.5,111.3h1.5v3.1l2.4-3.1h1.8l-2.6,3.2l2.9,4h-1.9l-2.5-3.7v3.7h-1.5v-7.2H101.5z"/>
	<path class="st1" d="M108.4,111.3h4.8v1.2h-3.3v1.7h3.1v1.2h-3.1v1.9h3.4v1.2h-4.9V111.3z"/>
	<path class="st1" d="M116.2,112.4h-2.1v-1.2h5.9v1.2h-2.1v6h-1.6v-6H116.2z"/>
</g>
<g>
	<path class="st0" d="M58.7,130.5h11.6v2.9h-7.8v4.4h7.2v3h-7.2v7.7h-3.9L58.7,130.5L58.7,130.5z"/>
	<path class="st0" d="M72.3,130.5h6.9c2,0,4,0,5.5,1.2c1.1,1,1.6,2.3,1.6,3.5c0,3.4-2.9,4.2-3.8,4.4c2.7,0.3,2.9,1.8,3.2,4.1
		c0.3,2.1,0.4,3,0.5,3.5c0.2,0.8,0.4,1,0.5,1.3h-4.3c-0.2-1-0.7-5.6-1-6.3c-0.4-1-1.3-1-1.9-1h-3.4v7.3h-3.9v-18H72.3z M76.1,138.4
		h3.1c0.5,0,1.4,0,2-0.5c0.3-0.2,1-0.8,1-2.1c0-1.2-0.6-1.8-0.9-2c-0.6-0.4-1.3-0.4-2.5-0.4h-2.6L76.1,138.4L76.1,138.4z"/>
	<path class="st0" d="M89.2,130.5h12.1v2.9h-8.2v4.3h7.7v2.9h-7.7v4.9h8.5v3H89.2V130.5z"/>
	<path class="st0" d="M104.4,130.5h12.1v2.9h-8.2v4.3h7.7v2.9h-7.7v4.9h8.5v3h-12.4V130.5z"/>
</g>
</svg>
