<?xml version="1.0" encoding="UTF-8"?><svg id="Layer_2" xmlns="http://www.w3.org/2000/svg" xmlns:xlink="http://www.w3.org/1999/xlink" viewBox="0 0 43.89 22.54"><defs><style>.cls-1,.cls-2{fill:none;}.cls-3{clip-path:url(#clippath);}.cls-4{fill:#fff;}.cls-5{fill:#ff3008;}.cls-6{fill:#ce2e19;}.cls-7{fill:#c5e8e9;}.cls-8{fill:#10322c;}.cls-9{fill:#221f20;}.cls-10{fill:#27346b;}.cls-11{clip-path:url(#clippath-1);}.cls-2{stroke:#27346b;stroke-miterlimit:10;stroke-width:1.04px;}</style><clipPath id="clippath"><ellipse class="cls-1" cx="21.95" cy="11.27" rx="21.42" ry="10.75"/></clipPath><clipPath id="clippath-1"><ellipse class="cls-2" cx="21.95" cy="11.27" rx="21.42" ry="10.75"/></clipPath></defs><g id="Layer_3"><g><g><path class="cls-4" d="M18.66,18.9c-.76-6.09-.61-12.07,.45-18.2C8.64,1.4,.57,5.9,.57,11.35c0,1.02,.28,2.01,.81,2.94,3.75,2.48,9.47,4.08,17.09,4.6,.06,0,.12,0,.18,.01Z"/><path class="cls-4" d="M1.58,14.62s-.05-.09-.08-.13c.03,.04,.05,.09,.08,.13Z"/><path class="cls-5" d="M18.66,18.9c1.22,.08,2.48,.13,3.79,.16,.26,0,.51,0,.77,0,.08,0,.16,0,.24,0-.78-6.15-.63-12.2,.44-18.4-.63-.03-1.27-.04-1.92-.04-.97,0-1.93,.03-2.87,.1-1.06,6.13-1.21,12.11-.45,18.2Z"/><path class="cls-7" d="M23.98,21.97c9.53-.45,17.24-4.03,19.01-8.67-4,3.44-10.95,5.58-19.53,5.74,.12,.97,.27,1.95,.44,2.93,.03,0,.06,0,.09,0Z"/><path class="cls-7" d="M1.38,14.28c.04,.07,.08,.14,.13,.2-.04-.07-.08-.13-.12-.2,0,0,0,0,0,0Z"/><path class="cls-7" d="M1.62,14.68s-.03-.04-.04-.06c.01,.02,.03,.04,.04,.06Z"/><path class="cls-7" d="M19.11,21.92c-.17-1.01-.32-2.02-.45-3.03-.06,0-.12,0-.18-.01-7.62-.51-13.34-2.11-17.09-4.6,.04,.07,.08,.13,.12,.2,.03,.04,.05,.09,.08,.13,.01,.02,.03,.04,.04,.06,2.55,3.83,9.29,6.7,17.48,7.25Z"/><path class="cls-6" d="M22.44,19.05c-1.31-.02-2.57-.08-3.79-.16,.13,1.01,.27,2.02,.45,3.03,.93,.06,1.88,.09,2.84,.09,.54,0,1.07-.01,1.6-.03,.12,0,.23,0,.35-.01-.17-.98-.32-1.96-.44-2.93-.08,0-.16,0-.24,0-.25,0-.51,0-.77,0Z"/></g><g><path class="cls-4" d="M23.45,19.04c8.14-.15,14.81-2.09,18.89-5.22H23.01c.07,1.74,.22,3.47,.44,5.22Z"/><path class="cls-4" d="M23.9,.64c-.49,2.82-.79,5.61-.89,8.4h19.87c-1.97-4.52-9.6-7.98-18.98-8.4Z"/><path class="cls-4" d="M23.98,21.97s-.06,0-.09,0c-.12,0-.23,0-.35,.01-.53,.02-1.06,.03-1.6,.03-.96,0-1.91-.03-2.84-.09-8.2-.54-14.93-3.41-17.48-7.25,2.79,4.31,10.85,7.42,20.35,7.42,10.12,0,18.6-3.53,20.83-8.28h-.04c-2.13,4.38-9.61,7.71-18.78,8.15Z"/><path class="cls-5" d="M23,9.04H.94s-.59,1.16-.5,2.35,.63,2.43,.63,2.43H23.01c-.07-1.59-.07-3.19,0-4.78Z"/><path class="cls-5" d="M42.34,13.82h.42c.08-.17,.16-.35,.23-.52-.21,.18-.42,.35-.64,.52Z"/><path class="cls-5" d="M42.88,9.04H23c-.06,1.59-.06,3.19,0,4.78h19.33c.22-.17,.44-.34,.64-.52-.07,.18-.15,.35-.23,.52h.04c.37-.79,.57-1.62,.57-2.47,0-.79-.17-1.56-.49-2.31Z"/></g><path class="cls-9" d="M43.09,10.63c-.44-3.64-6.63-5.03-9.64-5.82,3.16,.75,9.44,1.95,9.97,5.82,0,0-.33,0-.33,0h0Z"/><path class="cls-10" d="M21.95,22.27C9.99,22.27,.26,17.33,.26,11.27S9.99,.27,21.95,.27s21.69,4.93,21.69,11-9.73,11-21.69,11ZM21.95,.77C10.28,.77,.78,5.48,.78,11.27s9.49,10.5,21.16,10.5,21.16-4.71,21.16-10.5S33.61,.77,21.95,.77Z"/><g class="cls-3"><g><path class="cls-10" d="M14.81,3.79c-1.77-1.03-6.44-1.83-9.39-.85-1.52,.5-3.17,1.44-4.72,2.53,7.04-2.01,9.18-1.81,14.11-1.67Z"/><path class="cls-10" d="M-.58,6.4c-4.83,3.75-7.42,9.22-1.72,4.36C3.75,5.59,10.33,4.69,14.81,4.13c-5.08,0-7.7-.01-15.39,2.28Z"/></g></g><g><g class="cls-11"><polygon class="cls-8" points="22.04 19.07 22.04 19.07 22.04 19.07 22.04 19.07"/><path class="cls-10" d="M39.96,17.71c5.44-3.61,9.18-8.2,2.32-4.08-7.47,4.48-14.95,5.32-18.35,5.45,3.76,.5,7.66,.47,16.03-1.36Z"/><path class="cls-10" d="M29.56,19.88c-2.6,.12-3.15,.14-5.5-.24,1.81,1.23,6.02,2.1,9.24,1.29,1.66-.42,3.49-1.28,5.23-2.32-3.71,.77-6.53,1.16-8.96,1.27Z"/></g><ellipse class="cls-2" cx="21.95" cy="11.27" rx="21.42" ry="10.75"/></g></g></g></svg>