<?xml version="1.0" encoding="UTF-8"?><svg id="Layer_2" xmlns="http://www.w3.org/2000/svg" viewBox="0 0 106 22.49"><defs><style>.cls-1{fill:#fff;}.cls-2{fill:#27346b;}</style></defs><g id="Layer_3"><g><rect class="cls-2" width="106" height="22.49"/><g><path class="cls-1" d="M11.78,16.93c-.48-.05-1.29-.06-2.43-.03-1.14,.03-1.97,.04-2.5,.02,0-.18,0-.48,.02-.91s.02-.75,0-.98c0-.06,0-.17-.02-.31-.02-.15-.02-.26,0-.35,0-.05,0-.16,.02-.31,.01-.15,.01-.26,0-.34,0-.08,0-.2-.02-.35-.02-.15-.02-.26-.02-.35,0-.06,.01-.26,.03-.6,0-.08,0-.2-.02-.35-.01-.15-.02-.26-.02-.35,0-.2,0-.49,0-.87,0-.38,0-.66,0-.83,0-.09,0-.23,0-.4s0-.3,0-.39c.02-.36,.03-.62,.03-.79-.02-1.17-.02-1.96,0-2.39,.15-.04,.31-.07,.49-.07,.18,0,.39,0,.64,0,.25,.01,.41,.02,.5,.02v2.39c.01,.56,.02,1.39,.02,2.5,0,.34,0,.59,.02,.76,.01,.09,.02,.23,.02,.4v.39c.05,.34,.08,.66,.08,.96,0,.13-.01,.35-.03,.66-.01,.15,0,.38,.02,.69,.03,.34,.05,.51,.06,.54,.06,.01,.46,.02,1.2,.02,1.08,0,1.72,.01,1.92,.03,.14,.62,.14,1.14,.02,1.58Z"/><path class="cls-1" d="M19.05,14.49c-.05,.19-.08,.35-.09,.47,0,.03,0,.07,0,.11,0,.04,0,.07,0,.08,0,.02-.01,.05-.03,.1s-.04,.09-.05,.12c-.1,.33-.3,.6-.58,.83-.03,.03-.07,.06-.1,.09-.04,.03-.08,.05-.13,.08s-.08,.05-.1,.07c-.15,.1-.26,.18-.35,.22-.17,.07-.43,.17-.77,.28l-.22,.05c-.24,.06-.47,.07-.69,.03l-.24-.05s-.07-.02-.13-.02h-.11c-.17-.04-.35-.13-.54-.25-.57-.34-.97-.72-1.21-1.17-.18-.29-.27-.59-.28-.88-.01-.04-.01-.09,0-.14,.01-.05,.01-.1,0-.14,0-.05,0-.1,0-.16,0-.05-.01-.11-.02-.18-.01-.07-.02-.12-.02-.17-.02-.05-.02-.19,0-.41,.02-.22,.03-.36,.03-.41,0-.06,0-.15,0-.27,0-.12,0-.2,0-.25,0-.03,0-.08,0-.14s0-.11,0-.14c-.02-.39-.03-.68-.02-.88,.02-.42,.03-.73,.03-.93-.02-.22-.02-.83,.02-1.83,0-.02,0-.05,0-.09s0-.07,0-.08c0-.35,.01-.56,.03-.63l.09-.3c.02-.08,.06-.17,.1-.24,.05-.08,.08-.14,.11-.17,.03-.04,.08-.09,.15-.17s.12-.13,.14-.16c.05-.06,.1-.12,.14-.16,.04-.04,.1-.08,.17-.13,.07-.04,.13-.07,.16-.09,.03-.02,.1-.05,.21-.09,.11-.05,.18-.08,.2-.09,.03-.01,.09-.04,.18-.08s.16-.07,.21-.09c.08-.03,.41-.08,.98-.16,.28-.02,.51,0,.69,.08,.05,.01,.28,.11,.68,.3,.09,.05,.21,.13,.36,.24,.15,.08,.24,.15,.27,.19,.03,.03,.09,.13,.17,.28,.07,.12,.21,.42,.43,.91,.05,.29,.08,.73,.09,1.3s.01,.92,.02,1.03c.02,.34,.03,.59,.02,.76-.01,.13-.01,.3,0,.54,.01,.23,.02,.38,.02,.44v.5c.05,.72,.05,1.4-.02,2.03Zm-1.7-4.57c0-.07,0-.19,0-.35,0-.16,0-.29,0-.39,0-.51,0-.79-.02-.83-.05-.18-.16-.34-.33-.49-.01,0-.03,0-.05,0s-.04-.01-.06-.02-.04-.01-.05-.02l-.17-.11c-.13-.05-.24-.08-.33-.08-.22,0-.51,.07-.88,.2l-.17,.19-.11,.13s-.02,.08-.04,.14-.03,.12-.06,.16c.01,.21,0,.91-.02,2.11-.02,1.16-.02,2.02,.02,2.6,.01,.16,.02,.37,.02,.65,0,.31,.01,.51,.03,.58,.07,.18,.12,.28,.13,.31,0,.04,0,.07,.02,.08,0,.01,0,.03,.02,.05,.02,.02,.02,.04,.02,.06,.03,.03,.07,.08,.13,.14,.05,.06,.1,.12,.14,.16s.09,.07,.14,.09c.09,.04,.28,.06,.57,.06,.34-.01,.61-.13,.82-.36,.02-.02,.04-.04,.05-.06,.01-.02,.02-.04,.03-.05l.13-.21c.07-.29,.09-.52,.06-.68,.03-.06,.05-.12,.05-.16,.05-.44,.06-.89,.02-1.35l-.06-1.34c-.01-.25-.02-.66-.02-1.21Z"/><path class="cls-1" d="M25.43,16.79c-.23-.5-.53-1.21-.9-2.13-.04-.08-.1-.22-.17-.42s-.12-.32-.15-.39l-.17-.52c-.09-.22-.27-.59-.51-1.12-.25-.52-.43-.95-.56-1.28,0-.04-.03-.13-.09-.27-.06-.14-.1-.21-.13-.21-.06-.01-.09,.05-.09,.19,0,.19,0,.29,.02,.3,0,.03,0,.13,0,.28s0,.27,0,.33c.02,.99,.03,1.77,.03,2.36,.03,.8,.05,1.21,.05,1.24,.01,.08,0,.21-.02,.38-.02,.17-.03,.28-.03,.35-.01,.03-.02,.09-.02,.19v.19c-.01,.05-.02,.08-.03,.08,.03,.04,.04,.1,.03,.19-.01,.08-.01,.16,0,.24-.48,.16-1.04,.16-1.67,.02-.02-.09-.02-.29,0-.58,.02-.29,.02-.49,.02-.59l-.05-.6v-1.7c0-.45,0-.79,.02-1.02,.01-.23,.02-.58,.02-1.05s0-.82,.02-1.05c.02-.44,.02-1.12,0-2.03-.02-.91-.02-1.6,0-2.06,.69-.08,1.22-.1,1.58-.06,.04,.07,.09,.19,.15,.34,.06,.15,.1,.26,.13,.32l.3,.63s.08,.18,.17,.43c.09,.24,.17,.43,.24,.55,.08,.18,.13,.28,.14,.3,.01,.03,.07,.19,.17,.49,.12,.24,.28,.63,.49,1.16,.21,.53,.38,.93,.5,1.19,.01,.02,.04,.08,.09,.19,.05,.1,.09,.19,.11,.25l.24,.43s.04,0,.07-.02c.03-.01,.05-.01,.07,0,.02-.08,.04-.22,.05-.4,.01-.18,.02-.32,.03-.4,.03-.24,.04-.59,.02-1.06-.01-.1-.02-.57-.02-1.4v-2.28c0-.42,.01-.65,.03-.69,.65-.08,1.18-.08,1.59,.02,0,.17,0,.52,.02,1.05,.01,.53,0,.88-.02,1.05-.03,.84-.05,2.06-.05,3.65-.01,.18,0,.43,0,.75,.02,.32,.02,.55,.02,.69-.02,.17-.03,.29-.03,.36,.02,.26,.04,.91,.06,1.95,0,.72,0,1.13,.02,1.23-.81,.06-1.4,.05-1.78-.03Z"/><path class="cls-1" d="M35.11,12.45s0,.03-.02,.07c-.01,.04-.02,.07-.02,.09-.01,.12,0,.29,.02,.52,.03,.24,.02,.64-.05,1.2-.01,.02,0,.03,.02,.04,.02,0,.03,.02,.03,.04-.01,.33-.09,.65-.25,.98-.01,.05-.04,.1-.09,.16-.17,.35-.31,.57-.44,.68-.01,.02-.03,.04-.06,.05l-.02,.02s-.07,.06-.11,.11-.08,.09-.11,.11c-.13,.09-.26,.16-.39,.2-.14,.05-.43,.09-.88,.11-1.63,.08-2.7,.11-3.23,.08-.08-.7-.09-1.69-.03-2.95,.01-.15,.01-.36,0-.63-.01-.27-.02-.48-.02-.61,0-.47,.01-.78,.03-.91,0-.01-.01-.02-.03-.03-.02-.01-.03-.03-.02-.05-.02-.3-.02-.64,0-1.01,0-.1,0-.28-.02-.51-.01-.24-.02-.42-.02-.54,.02-.48,.03-.77,.03-.85-.02-.37-.03-1.27-.03-2.71,.69-.04,1.69-.03,2.98,.03,.07,0,.17,.01,.3,.03s.21,.03,.25,.03c.03,.01,.17,.03,.41,.06h.09l.19,.09,.17,.09c.26,.14,.47,.28,.63,.43,.19,.2,.34,.51,.46,.93,.02,.05,.07,.24,.16,.55,.03,.18,.04,.45,.02,.8,0,.84,.02,1.39,.05,1.65-.01,.01-.02,.05-.02,.11-.01,.09-.01,.23,0,.41,.01,.18,.02,.29,.02,.35v.79Zm-1.69-.52c-.02-1.32-.02-2.22,0-2.68,.02-.39,.02-.64,0-.76-.07-.37-.24-.61-.49-.74-.21-.13-.46-.18-.76-.16l-.46,.03c-.28,0-.44,.02-.47,.06-.02,.02-.03,.06-.03,.13s0,.12,0,.18c0,.06,0,.11,0,.17-.01,.17-.01,.39,0,.68s0,.5,0,.66c-.02,.18-.03,.4-.03,.67v.48c0,.49,0,.86,.02,1.1v.77c.01,.18,.02,.46,.02,.83v.79c.02,.31,.03,.56,.02,.74v.3s.02,0,.02,.02,0,.03,.02,.06c.07,.03,.19,.05,.36,.05,.39,.02,.68,.01,.88-.03,.39-.07,.65-.21,.79-.39l.05-.24c.06-.19,.09-.39,.09-.6,.02-.13,.02-.25,0-.36-.01-.45-.02-1.04-.02-1.76Z"/><path class="cls-1" d="M42.34,14.49c-.05,.19-.08,.35-.09,.47,0,.03,0,.07,0,.11,0,.04,0,.07,0,.08,0,.02-.01,.05-.03,.1s-.04,.09-.05,.12c-.1,.33-.3,.6-.58,.83-.03,.03-.07,.06-.1,.09-.04,.03-.08,.05-.13,.08s-.08,.05-.1,.07c-.15,.1-.26,.18-.35,.22-.17,.07-.43,.17-.77,.28l-.22,.05c-.24,.06-.47,.07-.69,.03l-.24-.05s-.07-.02-.13-.02h-.11c-.17-.04-.35-.13-.54-.25-.57-.34-.97-.72-1.21-1.17-.18-.29-.27-.59-.28-.88-.01-.04-.01-.09,0-.14,.01-.05,.01-.1,0-.14,0-.05,0-.1,0-.16,0-.05-.01-.11-.02-.18-.01-.07-.02-.12-.02-.17-.02-.05-.02-.19,0-.41,.02-.22,.03-.36,.03-.41,0-.06,0-.15,0-.27,0-.12,0-.2,0-.25,0-.03,0-.08,0-.14s0-.11,0-.14c-.02-.39-.03-.68-.02-.88,.02-.42,.03-.73,.03-.93-.02-.22-.02-.83,.02-1.83,0-.02,0-.05,0-.09s0-.07,0-.08c0-.35,.01-.56,.03-.63l.09-.3c.02-.08,.06-.17,.1-.24,.05-.08,.08-.14,.11-.17,.03-.04,.08-.09,.15-.17s.12-.13,.14-.16c.05-.06,.1-.12,.14-.16,.04-.04,.1-.08,.17-.13,.07-.04,.13-.07,.16-.09,.03-.02,.1-.05,.21-.09,.11-.05,.18-.08,.2-.09,.03-.01,.09-.04,.18-.08s.16-.07,.21-.09c.08-.03,.41-.08,.98-.16,.28-.02,.51,0,.69,.08,.05,.01,.28,.11,.68,.3,.09,.05,.21,.13,.36,.24,.15,.08,.24,.15,.27,.19,.03,.03,.09,.13,.17,.28,.07,.12,.21,.42,.43,.91,.05,.29,.08,.73,.09,1.3s.01,.92,.02,1.03c.02,.34,.03,.59,.02,.76-.01,.13-.01,.3,0,.54,.01,.23,.02,.38,.02,.44v.5c.05,.72,.05,1.4-.02,2.03Zm-1.7-4.57c0-.07,0-.19,0-.35,0-.16,0-.29,0-.39,0-.51,0-.79-.02-.83-.05-.18-.16-.34-.33-.49-.01,0-.03,0-.05,0s-.04-.01-.06-.02-.04-.01-.05-.02l-.17-.11c-.13-.05-.24-.08-.33-.08-.22,0-.51,.07-.88,.2l-.17,.19-.11,.13s-.02,.08-.04,.14-.03,.12-.06,.16c.01,.21,0,.91-.02,2.11-.02,1.16-.02,2.02,.02,2.6,.01,.16,.02,.37,.02,.65,0,.31,.01,.51,.03,.58,.07,.18,.12,.28,.13,.31,0,.04,0,.07,.02,.08,0,.01,0,.03,.02,.05,.02,.02,.02,.04,.02,.06,.03,.03,.07,.08,.13,.14,.05,.06,.1,.12,.14,.16s.09,.07,.14,.09c.09,.04,.28,.06,.57,.06,.34-.01,.61-.13,.82-.36,.02-.02,.04-.04,.05-.06,.01-.02,.02-.04,.03-.05l.13-.21c.07-.29,.09-.52,.06-.68,.03-.06,.05-.12,.05-.16,.05-.44,.06-.89,.02-1.35l-.06-1.34c-.01-.25-.02-.66-.02-1.21Z"/><path class="cls-1" d="M48.72,16.79c-.23-.5-.53-1.21-.9-2.13-.04-.08-.1-.22-.17-.42s-.12-.32-.15-.39l-.17-.52c-.09-.22-.27-.59-.51-1.12-.25-.52-.43-.95-.56-1.28,0-.04-.03-.13-.09-.27-.06-.14-.1-.21-.13-.21-.06-.01-.09,.05-.09,.19,0,.19,0,.29,.02,.3,0,.03,0,.13,0,.28s0,.27,0,.33c.02,.99,.03,1.77,.03,2.36,.03,.8,.05,1.21,.05,1.24,.01,.08,0,.21-.02,.38-.02,.17-.03,.28-.03,.35-.01,.03-.02,.09-.02,.19v.19c-.01,.05-.02,.08-.03,.08,.03,.04,.04,.1,.03,.19-.01,.08-.01,.16,0,.24-.48,.16-1.04,.16-1.67,.02-.02-.09-.02-.29,0-.58,.02-.29,.02-.49,.02-.59l-.05-.6v-1.7c0-.45,0-.79,.02-1.02,.01-.23,.02-.58,.02-1.05s0-.82,.02-1.05c.02-.44,.02-1.12,0-2.03-.02-.91-.02-1.6,0-2.06,.69-.08,1.22-.1,1.58-.06,.04,.07,.09,.19,.15,.34,.06,.15,.1,.26,.13,.32l.3,.63s.08,.18,.17,.43c.09,.24,.17,.43,.24,.55,.08,.18,.13,.28,.14,.3,.01,.03,.07,.19,.17,.49,.12,.24,.28,.63,.49,1.16,.21,.53,.38,.93,.5,1.19,.01,.02,.04,.08,.09,.19,.05,.1,.09,.19,.11,.25l.24,.43s.04,0,.07-.02c.03-.01,.05-.01,.07,0,.02-.08,.04-.22,.05-.4,.01-.18,.02-.32,.03-.4,.03-.24,.04-.59,.02-1.06-.01-.1-.02-.57-.02-1.4v-2.28c0-.42,.01-.65,.03-.69,.65-.08,1.18-.08,1.59,.02,0,.17,0,.52,.02,1.05,.01,.53,0,.88-.02,1.05-.03,.84-.05,2.06-.05,3.65-.01,.18,0,.43,0,.75,.02,.32,.02,.55,.02,.69-.02,.17-.03,.29-.03,.36,.02,.26,.04,.91,.06,1.95,0,.72,0,1.13,.02,1.23-.81,.06-1.4,.05-1.78-.03Z"/><path class="cls-1" d="M58.1,14.84c-.03,.22-.13,.47-.28,.74-.09,.21-.18,.35-.25,.43-.07,.1-.24,.23-.49,.38-.05,.04-.14,.1-.25,.18-.12,.08-.2,.14-.25,.18-.03,.01-.15,.04-.35,.09-.2,.05-.36,.09-.48,.11-.05,.01-.33,0-.82-.03-.01,0-.06,0-.13,0-.08,0-.12,0-.13,0-.55-.05-.96-.2-1.23-.44-.02,0-.03-.01-.03-.03l.02-.03s-.11-.07-.24-.17c-.03-.09-.05-.14-.06-.14h-.06s-.1-.12-.17-.24c-.24-.34-.38-.72-.43-1.17-.05-.78-.05-1.55,0-2.33,.01-.09,0-.24-.02-.43-.03-.19-.04-.3-.04-.33-.01-.29,0-.72,.02-1.29l.05-1.15c0-.56,.02-.93,.06-1.13l.13-.5c.05-.2,.14-.4,.27-.6,.05-.05,.08-.08,.09-.08-.01-.03-.01-.06,0-.09,.03-.04,.16-.13,.38-.27,.04-.02,.11-.05,.21-.09,.09-.04,.16-.08,.2-.11,.02-.01,.1-.06,.25-.13,.15-.08,.26-.13,.33-.15,.14-.04,.4-.05,.79-.03h.28c.2,.01,.35,.03,.46,.05,.04,.01,.13,.02,.28,.04,.14,.02,.25,.04,.32,.07l.25,.08,.17,.16,.46,.43s.08,.12,.16,.22c.07,.1,.13,.19,.17,.27,.14,.23,.23,.53,.28,.88,.02,.17,.03,.42,.03,.75v.61c-.71,.09-1.26,.09-1.64,0,.01-.26,.02-.5,.02-.72,0-.21-.03-.42-.1-.61-.07-.19-.19-.33-.35-.43-.17-.13-.4-.18-.69-.16-.44,.01-.79,.18-1.04,.5-.14,.27-.17,.81-.09,1.61,.01,.09,.01,.22,0,.39-.01,.16-.02,.28-.02,.34-.01,.1-.01,.25,0,.43,.01,.18,.02,.3,.02,.35,0,.09,0,.23-.02,.39-.01,.17-.02,.29-.02,.36,0,.06,0,.13,0,.21,0,.07,0,.14,0,.2v.06s0,.03,0,.06c0,.02,0,.04,0,.06v.31c0,.16,.01,.29,.03,.39-.02,.07-.03,.2-.03,.39s0,.33-.02,.45c-.02,.18,0,.3,.06,.36,.01,.28,.15,.5,.41,.66,.04,.01,.16,.05,.36,.13,.26,.05,.56,.02,.88-.09l.28-.16,.13-.08s.02-.06,.03-.1,.02-.08,.03-.1c.07-.13,.12-.22,.13-.28,.01-.02,.01-.04,0-.07-.01-.03-.02-.04-.02-.06l.06-.33c0-.07-.01-.28-.03-.61,.3-.13,.87-.14,1.69-.05v.76c0,.43-.01,.69-.03,.77Z"/><path class="cls-1" d="M64.51,16.86c-.04-.2-.11-.49-.2-.87-.09-.38-.15-.66-.18-.83-.08-.29-.13-.45-.13-.46-.27-.02-.68-.02-1.21,0-.53,.03-.89,.04-1.08,.04-.03,.03-.08,.2-.16,.52l-.13,.55c-.03,.12-.07,.29-.12,.54-.05,.24-.09,.42-.13,.54-.62,.05-1.18,.06-1.69,.02,.05-.28,.13-.73,.24-1.33,.1-.6,.19-1.06,.25-1.36l.13-.5c.06-.24,.13-.61,.21-1.1,.08-.49,.15-.87,.21-1.12l.14-.52,.09-.52c.03-.15,.14-.69,.33-1.62,.02-.08,.05-.2,.09-.35,.04-.15,.07-.28,.09-.4,.03-.12,.04-.23,.06-.32,.18-1.01,.29-1.59,.35-1.73,.53-.08,1.25-.08,2.19,0,.04,.26,.12,.65,.22,1.15l.06,.22s.02,.12,.05,.31c.03,.2,.08,.38,.14,.55,.04,.15,.13,.5,.25,1.07,.03,.12,.07,.33,.13,.65,.05,.32,.1,.56,.16,.73,.06,.2,.13,.51,.21,.94,.08,.43,.14,.74,.2,.94,.03,.13,.06,.31,.09,.56,.03,.25,.07,.43,.11,.56,.01,.05,.04,.14,.08,.26,.04,.12,.07,.21,.09,.28,.09,.41,.17,.79,.22,1.13l.06,.24s.02,.05,.02,.08v.08s0,.04,.02,.06c.02,.02,.02,.04,.02,.05v.16s.02,.09,.04,.15c.02,.06,.03,.1,.04,.14,.01,.04,.02,.08,.03,.12,.02,.17,.03,.29,.03,.38-.7,.05-1.25,.06-1.65,.03Zm-1.28-5.99s-.01-.08-.03-.14-.04-.12-.05-.16l-.09-.33c-.06-.27-.12-.47-.16-.6v-.09s-.06-.02-.08-.05c-.02-.03-.05-.04-.09-.03-.02,.04-.04,.12-.06,.22-.02,.1-.03,.18-.04,.24l-.14,.65c-.02,.08-.04,.2-.07,.36-.03,.16-.05,.3-.08,.43s-.06,.26-.09,.39l-.11,.44-.03,.22s-.03,.11-.09,.28c-.06,.16-.08,.29-.06,.39,.06,.01,.61,0,1.64-.03,.02-.03,.02-.12,0-.25-.01-.04-.06-.31-.14-.8-.08-.49-.16-.87-.24-1.12Z"/><path class="cls-1" d="M72.9,16.93c-.48-.05-1.29-.06-2.43-.03-1.14,.03-1.97,.04-2.5,.02,0-.18,0-.48,.02-.91s.02-.75,0-.98c0-.06,0-.17-.02-.31-.02-.15-.02-.26,0-.35,0-.05,0-.16,.02-.31,.01-.15,.01-.26,0-.34,0-.08,0-.2-.02-.35-.02-.15-.02-.26-.02-.35,0-.06,.01-.26,.03-.6,0-.08,0-.2-.02-.35-.01-.15-.02-.26-.02-.35,0-.2,0-.49,0-.87,0-.38,0-.66,0-.83,0-.09,0-.23,0-.4s0-.3,0-.39c.02-.36,.03-.62,.03-.79-.02-1.17-.02-1.96,0-2.39,.15-.04,.31-.07,.49-.07,.18,0,.39,0,.64,0,.25,.01,.41,.02,.5,.02v2.39c.01,.56,.02,1.39,.02,2.5,0,.34,0,.59,.02,.76,.01,.09,.02,.23,.02,.4v.39c.05,.34,.08,.66,.08,.96,0,.13-.01,.35-.03,.66-.01,.15,0,.38,.02,.69,.03,.34,.05,.51,.06,.54,.06,.01,.46,.02,1.2,.02,1.08,0,1.72,.01,1.92,.03,.14,.62,.14,1.14,.02,1.58Z"/><path class="cls-1" d="M79.75,16.93c-.48-.05-1.29-.06-2.43-.03-1.14,.03-1.97,.04-2.5,.02,0-.18,0-.48,.02-.91s.02-.75,0-.98c0-.06,0-.17-.02-.31-.02-.15-.02-.26,0-.35,0-.05,0-.16,.02-.31,.01-.15,.01-.26,0-.34,0-.08,0-.2-.02-.35-.02-.15-.02-.26-.02-.35,0-.06,.01-.26,.03-.6,0-.08,0-.2-.02-.35-.01-.15-.02-.26-.02-.35,0-.2,0-.49,0-.87,0-.38,0-.66,0-.83,0-.09,0-.23,0-.4s0-.3,0-.39c.02-.36,.03-.62,.03-.79-.02-1.17-.02-1.96,0-2.39,.15-.04,.31-.07,.49-.07,.18,0,.39,0,.64,0,.25,.01,.41,.02,.5,.02v2.39c.01,.56,.02,1.39,.02,2.5,0,.34,0,.59,.02,.76,.01,.09,.02,.23,.02,.4v.39c.05,.34,.08,.66,.08,.96,0,.13-.01,.35-.03,.66-.01,.15,0,.38,.02,.69,.03,.34,.05,.51,.06,.54,.06,.01,.46,.02,1.2,.02,1.08,0,1.72,.01,1.92,.03,.14,.62,.14,1.14,.02,1.58Z"/><path class="cls-1" d="M81.74,6.1c.27-.03,.76-.05,1.45-.05,.01,0,.04,0,.09,0s.08,0,.09,.02c.01,.27,.01,.7,0,1.28,0,.58,0,1.03,0,1.37v2c0,.05,0,.13,.02,.23,.01,.1,.02,.19,.02,.26,0,.07,0,.14,0,.21,0,.01-.01,.03-.03,.05-.01,.01-.02,.03-.02,.05,0,.03,0,.08,0,.16s0,.13,0,.17v.91c-.01,.47,0,1.18,.04,2.12,.04,.94,.04,1.65,.02,2.12-.04-.04-.11-.05-.2-.03-.08,0-.2,0-.35,.02-.15,.02-.25,.02-.29,.02-.08,0-.17,0-.26,0s-.19-.01-.31-.02c-.12-.01-.21-.02-.28-.02,.01-.17,0-.42,0-.76s-.02-.58-.02-.72c0-.05,0-.14,.02-.25,.01-.12,.02-.21,.02-.27,0-.13,0-.39,.02-.79,.01-.4,0-.67-.02-.82-.02-.14-.03-.33-.03-.58v-.47c-.03-.75-.04-1.87-.02-3.37,.01-.15,.01-.35,0-.62-.01-.27-.02-.44-.02-.53v-1.15c0-.05,0-.14,.02-.27,.01-.13,.02-.21,.02-.25Z"/><path class="cls-1" d="M90.14,16.79c-.23-.5-.53-1.21-.9-2.13-.04-.08-.1-.22-.17-.42s-.12-.32-.15-.39l-.17-.52c-.09-.22-.27-.59-.51-1.12-.25-.52-.43-.95-.56-1.28,0-.04-.03-.13-.09-.27-.06-.14-.1-.21-.13-.21-.06-.01-.09,.05-.09,.19,0,.19,0,.29,.02,.3,0,.03,0,.13,0,.28s0,.27,0,.33c.02,.99,.03,1.77,.03,2.36,.03,.8,.05,1.21,.05,1.24,.01,.08,0,.21-.02,.38-.02,.17-.03,.28-.03,.35-.01,.03-.02,.09-.02,.19v.19c-.01,.05-.02,.08-.03,.08,.03,.04,.04,.1,.03,.19-.01,.08-.01,.16,0,.24-.48,.16-1.04,.16-1.67,.02-.02-.09-.02-.29,0-.58,.02-.29,.02-.49,.02-.59l-.05-.6v-1.7c0-.45,0-.79,.02-1.02,.01-.23,.02-.58,.02-1.05s0-.82,.02-1.05c.02-.44,.02-1.12,0-2.03-.02-.91-.02-1.6,0-2.06,.69-.08,1.22-.1,1.58-.06,.04,.07,.09,.19,.15,.34,.06,.15,.1,.26,.13,.32l.3,.63s.08,.18,.17,.43c.09,.24,.17,.43,.24,.55,.08,.18,.13,.28,.14,.3,.01,.03,.07,.19,.17,.49,.12,.24,.28,.63,.49,1.16,.21,.53,.38,.93,.5,1.19,.01,.02,.04,.08,.09,.19,.05,.1,.09,.19,.11,.25l.24,.43s.04,0,.07-.02c.03-.01,.05-.01,.07,0,.02-.08,.04-.22,.05-.4,.01-.18,.02-.32,.03-.4,.03-.24,.04-.59,.02-1.06-.01-.1-.02-.57-.02-1.4v-2.28c0-.42,.01-.65,.03-.69,.65-.08,1.18-.08,1.59,.02,0,.17,0,.52,.02,1.05,.01,.53,0,.88-.02,1.05-.03,.84-.05,2.06-.05,3.65-.01,.18,0,.43,0,.75,.02,.32,.02,.55,.02,.69-.02,.17-.03,.29-.03,.36,.02,.26,.04,.91,.06,1.95,0,.72,0,1.13,.02,1.23-.81,.06-1.4,.05-1.78-.03Z"/><path class="cls-1" d="M99.49,8.98c-.03,.32-.04,.49-.03,.52-.45,.03-1.01,.02-1.69-.05,.07-.56,.03-1-.13-1.32-.09-.21-.19-.35-.3-.41-.23-.18-.49-.24-.77-.17-.04,.01-.11,.03-.2,.07-.09,.04-.15,.06-.18,.07-.02,.01-.06,.03-.11,.05-.05,.02-.09,.04-.13,.05l-.17,.14c-.18,.13-.28,.3-.31,.54-.01,.14,0,.37,0,.69,.02,.33,.01,.57,0,.72-.02,.18-.02,.54,0,1.07,0,.04,0,.1-.02,.19-.01,.08-.02,.15-.02,.19,.02,.15,.03,.26,.03,.35,0,.04,0,.1,0,.18,0,.08,0,.14,0,.18-.02,.93-.02,1.58,.02,1.94,.07,.47,.13,.75,.16,.82l.05,.13s.07,.09,.15,.15c.08,.06,.12,.1,.13,.12,.39,.1,.68,.14,.87,.09,.23-.08,.43-.18,.6-.28l.11-.11c.23-.26,.32-.69,.27-1.28-.01-.06-.02-.22-.02-.46s-.03-.42-.08-.53c-.07,.02-.23,.03-.46,.02s-.39,0-.45,0c-.05-.64-.02-1.14,.09-1.5h.83c.1-.01,.24,0,.42,0,.17,.02,.3,.02,.39,.02h.33c.36,0,.56,0,.61-.02,.02,.25,.02,.59-.02,1.02-.03,.43-.05,.74-.05,.91,0,.21,.01,.51,.03,.91,0,.43,0,.75,.02,.96v.24c0,.09,0,.16,.02,.21,0,.04,.01,.07,.03,.09v.58s0,.09-.02,.17-.02,.15-.02,.19c0,.19-.01,.31-.03,.36l.06,.05c-.14,.04-.31,.06-.52,.05-.06-.01-.14-.03-.24-.06-.1-.03-.17-.04-.2-.04l-.08-.33s-.02-.07-.03-.12c-.01-.05-.02-.09-.03-.12-.01-.03-.03-.05-.05-.05-.04-.01-.07,0-.09,.02-.02,.02-.03,.06-.04,.11-.05,.03-.08,.07-.09,.11l-.52,.24c-.22,.13-.42,.21-.58,.25-.13,.03-.34,.05-.63,.05-.25,.02-.46,.01-.63-.03-.05-.02-.11-.05-.17-.09-.03-.01-.08-.02-.14-.04s-.12-.03-.17-.05-.09-.03-.12-.06c-.1-.06-.27-.2-.49-.43-.03-.03-.13-.16-.3-.38-.29-.38-.46-.72-.49-1.02-.02-.04-.03-.13-.02-.27,0-.14,0-.23,0-.27,0-.02,0-.05-.02-.08-.01-.03-.02-.05-.02-.06v-.4c0-.18,0-.32-.02-.42,0-.19,0-.33,.02-.43,0-.04,0-.1,0-.19,0-.08,0-.14,0-.17,0-1.51,0-2.37-.02-2.57-.04-.38-.06-.76-.05-1.15,.02-.61,.05-.99,.09-1.13,.02-.06,.05-.1,.09-.11,0-.13,.07-.3,.22-.54,.17-.28,.36-.48,.58-.6,.04-.04,.12-.08,.22-.13s.18-.08,.24-.13c.07-.06,.23-.14,.47-.22,.48-.07,.99-.1,1.51-.09,.07,.03,.17,.06,.3,.09,.13,.03,.21,.05,.25,.06,.13,.03,.26,.08,.39,.14,.19,.08,.38,.23,.57,.44l.17,.24c.13,.14,.25,.38,.38,.72,.19,.46,.26,.91,.22,1.34Z"/></g></g></g></svg>