<?xml version="1.0" encoding="UTF-8"?><svg id="Layer_2" xmlns="http://www.w3.org/2000/svg" viewBox="0 0 62.32 8.88"><defs><style>.cls-1{fill:#27346b;}</style></defs><g id="Layer_3"><g><path class="cls-1" d="M0,.24H2.28V5.16c0,.96,.66,1.62,1.56,1.62s1.56-.66,1.56-1.62V.24h2.28V5.16c0,2.16-1.57,3.72-3.84,3.72S0,7.32,0,5.16V.24Z"/><path class="cls-1" d="M10.15,6c.14,.17,.31,.32,.49,.46,.32,.23,.77,.44,1.31,.44,.72,0,1.08-.35,1.08-.72,0-1.14-3.96-.66-3.96-3.6,0-1.32,1.2-2.58,3.18-2.58,1.02,0,1.75,.3,2.23,.6,.28,.18,.52,.37,.71,.6l-1.32,1.44c-.11-.12-.23-.23-.37-.32-.24-.18-.59-.34-1.01-.34-.67,0-.96,.3-.96,.6,0,1.14,3.96,.66,3.96,3.6,0,1.44-1.25,2.7-3.3,2.7-1.15,0-1.97-.35-2.53-.72-.32-.2-.6-.44-.83-.72l1.32-1.44Z"/><path class="cls-1" d="M16.86,.24h6.42V2.28h-4.14v1.2h3.18v1.92h-3.18v1.2h4.26v2.04h-6.54V.24Z"/><path class="cls-1" d="M35.34,7.26c-.26,.3-.58,.58-.94,.82-.61,.42-1.52,.8-2.72,.8-2.69,0-4.68-1.98-4.68-4.44S28.99,0,31.68,0c1.2,0,2.09,.4,2.7,.82,.35,.24,.65,.5,.9,.8l-1.38,1.56c-.18-.2-.38-.38-.61-.54-.4-.28-.94-.54-1.61-.54-1.32,0-2.34,1.03-2.34,2.34s1.02,2.34,2.34,2.34c.67,0,1.21-.26,1.63-.54,.24-.16,.46-.34,.65-.54l1.38,1.56Z"/><path class="cls-1" d="M40.54,0c2.69,0,4.68,1.98,4.68,4.44s-1.99,4.44-4.68,4.44-4.68-1.98-4.68-4.44,1.99-4.44,4.68-4.44Zm0,6.78c1.31,0,2.34-1.02,2.34-2.34s-1.03-2.34-2.34-2.34-2.34,1.03-2.34,2.34,1.02,2.34,2.34,2.34Z"/><path class="cls-1" d="M46.66,.24h3.12c2.7,0,4.56,1.86,4.56,4.2s-1.86,4.2-4.56,4.2h-3.12V.24Zm3.12,6.36c1.31,0,2.22-.91,2.22-2.16s-.91-2.16-2.22-2.16h-.84V6.6h.84Z"/><path class="cls-1" d="M55.78,.24h6.42V2.28h-4.14v1.2h3.18v1.92h-3.18v1.2h4.26v2.04h-6.54V.24Z"/></g></g></svg>