<?xml version="1.0" encoding="UTF-8"?><svg id="Layer_2" xmlns="http://www.w3.org/2000/svg" viewBox="0 0 86.59 16.12"><defs><style>.cls-1{fill:none;stroke:#27346b;stroke-miterlimit:10;}</style></defs><g id="Layer_3"><g><path class="cls-1" d="M4.5,4.8H.62L1.52,.5H14.01l-.9,4.3h-3.88l-2.21,10.39H2.3L4.5,4.8Z"/><path class="cls-1" d="M16.29,.5h4.72l-1.09,5.14h4.41l1.09-5.14h4.72l-3.11,14.7h-4.72l1.13-5.35h-4.41l-1.13,5.35h-4.72L16.29,.5Z"/><path class="cls-1" d="M33.86,.5h11.65l-.82,3.88h-6.93l-.38,1.78h5.25l-.71,3.36h-5.25l-.38,1.78h7.14l-.82,3.88h-11.86L33.86,.5Z"/><path class="cls-1" d="M53.6,.5h4.72l-1.74,8.27c-.02,.1-.06,.34-.06,.5,0,1.15,.67,2.04,1.93,2.04s2.18-.9,2.44-2.08l1.85-8.73h4.72l-1.95,9.22c-.74,3.49-3.7,5.9-7.35,5.9-4.01,0-6.4-2.56-6.4-5.92,0-.65,.08-.94,.17-1.36l1.68-7.83Z"/><path class="cls-1" d="M70.98,.5h4.72l-1.07,5.04,5.17-5.04h5.56l-6.53,6.4,3.4,8.29h-5.23l-1.97-4.81-1.76,1.64-.67,3.17h-4.72l3.11-14.7Z"/></g></g></svg>