<?xml version="1.0" encoding="UTF-8"?><svg id="Layer_2" xmlns="http://www.w3.org/2000/svg" viewBox="0 0 110.11 10.37"><defs><style>.cls-1{fill:#27346b;}</style></defs><g id="Layer_3"><g><path class="cls-1" d="M3.71,.28h2.94l3.71,9.81h-2.87l-.7-2.1H3.57l-.7,2.1H0L3.71,.28Zm2.38,5.53l-.88-2.8h-.06l-.88,2.8h1.82Z"/><path class="cls-1" d="M11.44,.28h2.31l4.2,5.39V.28h2.66V10.09h-2.31l-4.2-5.39v5.39h-2.66V.28Z"/><path class="cls-1" d="M22.86,.28h3.64c3.15,0,5.32,2.17,5.32,4.9s-2.17,4.9-5.32,4.9h-3.64V.28Zm3.64,7.42c1.53,0,2.59-1.06,2.59-2.52s-1.06-2.52-2.59-2.52h-.98V7.7h.98Z"/><path class="cls-1" d="M37.14,7.14c.15,.15,.34,.29,.53,.42,.34,.21,.83,.42,1.43,.42,.84,0,1.26-.42,1.26-.91s-.42-.91-1.26-.91h-.98V3.99h.98c.71,0,1.05-.35,1.05-.84s-.34-.84-1.05-.84c-.49,0-.9,.18-1.18,.39-.17,.11-.31,.24-.43,.38l-1.54-1.61c.25-.27,.56-.52,.91-.73,.6-.38,1.47-.74,2.59-.74,2.17,0,3.5,1.33,3.5,2.8,0,.83-.41,1.33-.84,1.65-.24,.18-.52,.34-.84,.45,.36,.13,.69,.29,.98,.52,.49,.38,.98,.98,.98,1.93,0,1.61-1.4,3.01-3.85,3.01-1.19,0-2.13-.39-2.79-.8-.38-.24-.7-.52-1-.81l1.54-1.61Z"/><path class="cls-1" d="M47.92,.28h7.42V2.8h-4.76v1.68h3.64v2.38h-3.64v3.22h-2.66V.28Z"/><path class="cls-1" d="M56.8,.28h4.62c2.09,0,3.57,1.47,3.57,3.36,0,1.06-.41,1.75-.84,2.19-.24,.25-.52,.46-.84,.62l2.03,3.64h-2.8l-1.61-3.08h-1.47v3.08h-2.66V.28Zm4.48,4.34c.63,0,1.05-.42,1.05-.98s-.42-.98-1.05-.98h-1.82v1.96h1.82Z"/><path class="cls-1" d="M66.84,.28h2.66V10.09h-2.66V.28Z"/><path class="cls-1" d="M71.72,.28h7.49V2.66h-4.83v1.4h3.71v2.24h-3.71v1.4h4.97v2.38h-7.63V.28Z"/><path class="cls-1" d="M81.17,.28h2.31l4.2,5.39V.28h2.66V10.09h-2.31l-4.2-5.39v5.39h-2.66V.28Z"/><path class="cls-1" d="M92.6,.28h3.64c3.15,0,5.32,2.17,5.32,4.9s-2.17,4.9-5.32,4.9h-3.64V.28Zm3.64,7.42c1.53,0,2.59-1.06,2.59-2.52s-1.06-2.52-2.59-2.52h-.98V7.7h.98Z"/><path class="cls-1" d="M103.88,7c.17,.2,.36,.38,.57,.53,.38,.27,.9,.52,1.53,.52,.84,0,1.26-.41,1.26-.84,0-1.33-4.62-.77-4.62-4.2,0-1.54,1.4-3.01,3.71-3.01,1.19,0,2.04,.35,2.6,.7,.32,.21,.6,.43,.83,.7l-1.54,1.68c-.13-.14-.27-.27-.43-.38-.28-.21-.69-.39-1.18-.39-.78,0-1.12,.35-1.12,.7,0,1.33,4.62,.77,4.62,4.2,0,1.68-1.46,3.15-3.85,3.15-1.34,0-2.3-.41-2.96-.84-.38-.24-.7-.52-.97-.84l1.54-1.68Z"/></g></g></svg>