<?xml version="1.0" encoding="UTF-8"?><svg id="Layer_2" xmlns="http://www.w3.org/2000/svg" viewBox="0 0 63.58 10.37"><defs><style>.cls-1{fill:#27346b;}</style></defs><g id="Layer_3"><g><path class="cls-1" d="M0,.28H7.42V2.8H2.66v1.68h3.64v2.38H2.66v3.22H0V.28Z"/><path class="cls-1" d="M13.67,0c3.14,0,5.46,2.31,5.46,5.18s-2.33,5.18-5.46,5.18-5.46-2.31-5.46-5.18S10.53,0,13.67,0Zm0,7.91c1.53,0,2.73-1.19,2.73-2.73s-1.21-2.73-2.73-2.73-2.73,1.2-2.73,2.73,1.19,2.73,2.73,2.73Z"/><path class="cls-1" d="M20.8,.28h4.62c2.09,0,3.57,1.47,3.57,3.36,0,1.06-.41,1.75-.84,2.19-.24,.25-.52,.46-.84,.62l2.03,3.64h-2.8l-1.61-3.08h-1.47v3.08h-2.66V.28Zm4.48,4.34c.63,0,1.05-.42,1.05-.98s-.42-.98-1.05-.98h-1.82v1.96h1.82Z"/><path class="cls-1" d="M36.13,6.58L32.63,.28h2.94l1.86,3.85h.06l1.86-3.85h2.94l-3.5,6.3v3.5h-2.66v-3.5Z"/><path class="cls-1" d="M47.58,0c3.14,0,5.46,2.31,5.46,5.18s-2.33,5.18-5.46,5.18-5.46-2.31-5.46-5.18,2.33-5.18,5.46-5.18Zm0,7.91c1.53,0,2.73-1.19,2.73-2.73s-1.21-2.73-2.73-2.73-2.73,1.2-2.73,2.73,1.19,2.73,2.73,2.73Z"/><path class="cls-1" d="M54.61,.28h2.66V6.02c0,1.12,.77,1.89,1.82,1.89s1.82-.77,1.82-1.89V.28h2.66V6.02c0,2.52-1.83,4.34-4.48,4.34s-4.48-1.82-4.48-4.34V.28Z"/></g></g></svg>