<?xml version="1.0" encoding="UTF-8"?><svg id="Layer_2" xmlns="http://www.w3.org/2000/svg" viewBox="0 0 100 28.33"><defs><style>.cls-1{fill:#fff;}.cls-2{fill:#ff3008;}</style></defs><g id="Layer_3"><g><rect class="cls-2" x="0" y="0" width="100" height="28.33" rx="14.17" ry="14.17"/><g><path class="cls-1" d="M16.34,10.18c2.59,0,4.52,1.91,4.52,4.29s-1.92,4.29-4.52,4.29-4.52-1.91-4.52-4.29,1.92-4.29,4.52-4.29Zm0,6.54c1.26,0,2.26-.98,2.26-2.26s-1-2.26-2.26-2.26-2.26,1-2.26,2.26,.98,2.26,2.26,2.26Z"/><path class="cls-1" d="M22.26,10.41h3.82c1.73,0,2.95,1.22,2.95,2.78,0,.88-.34,1.45-.69,1.81-.2,.21-.43,.38-.69,.51l1.68,3.01h-2.32l-1.33-2.55h-1.22v2.55h-2.2V10.41Zm3.71,3.59c.52,0,.87-.35,.87-.81s-.35-.81-.87-.81h-1.51v1.62h1.51Z"/><path class="cls-1" d="M30.59,10.41h3.01c2.61,0,4.4,1.8,4.4,4.05s-1.79,4.05-4.4,4.05h-3.01V10.41Zm3.01,6.14c1.26,0,2.14-.88,2.14-2.08s-.88-2.08-2.14-2.08h-.81v4.17h.81Z"/><path class="cls-1" d="M39.41,10.41h6.2v1.97h-4v1.16h3.07v1.85h-3.07v1.16h4.11v1.97h-6.31V10.41Z"/><path class="cls-1" d="M47.24,10.41h3.82c1.73,0,2.95,1.22,2.95,2.78,0,.88-.34,1.45-.69,1.81-.2,.21-.43,.38-.69,.51l1.68,3.01h-2.32l-1.33-2.55h-1.22v2.55h-2.2V10.41Zm3.71,3.59c.52,0,.87-.35,.87-.81s-.35-.81-.87-.81h-1.51v1.62h1.51Z"/><path class="cls-1" d="M58.07,10.41h1.91l3.47,4.46v-4.46h2.2v8.11h-1.91l-3.47-4.46v4.46h-2.2V10.41Z"/><path class="cls-1" d="M71.58,10.18c2.59,0,4.52,1.91,4.52,4.29s-1.92,4.29-4.52,4.29-4.52-1.91-4.52-4.29,1.92-4.29,4.52-4.29Zm0,6.54c1.26,0,2.26-.98,2.26-2.26s-1-2.26-2.26-2.26-2.26,1-2.26,2.26,.98,2.26,2.26,2.26Z"/><path class="cls-1" d="M76.37,10.41h2.37l1.27,4.75h.06l1.45-4.75h1.97l1.45,4.75h.06l1.27-4.75h2.37l-2.66,8.11h-1.97l-1.48-4.86h-.05l-1.48,4.86h-1.97l-2.66-8.11Z"/></g></g></g></svg>