<?xml version="1.0" encoding="UTF-8"?><svg id="Layer_2" xmlns="http://www.w3.org/2000/svg" viewBox="0 0 110 12.67"><defs><style>.cls-1{fill:#ff3008;}</style></defs><g id="Layer_3"><g><path class="cls-1" d="M32.41,1.83c2.64,0,4.64,2,4.64,4.51s-2,4.51-4.64,4.51h-3.12c-.13,0-.23-.1-.23-.23V2.06c0-.13,.1-.23,.23-.23h3.12Zm-1.42,1.74v5.54h1.42c1.48,0,2.71-1.22,2.71-2.77s-1.16-2.77-2.71-2.77h-1.42Z"/><path class="cls-1" d="M43.87,1.63c2.77,0,4.9,2.13,4.9,4.7s-2.13,4.7-4.9,4.7-4.9-2.13-4.9-4.7,2.13-4.7,4.9-4.7m0,7.66c1.61,0,2.98-1.29,2.98-2.96s-1.37-2.96-2.98-2.96-2.96,1.29-2.96,2.96,1.35,2.96,2.96,2.96"/><path class="cls-1" d="M55.51,1.63c2.77,0,4.9,2.13,4.9,4.7s-2.13,4.7-4.9,4.7-4.9-2.13-4.9-4.7,2.13-4.7,4.9-4.7m0,7.66c1.61,0,2.98-1.29,2.98-2.96s-1.37-2.96-2.98-2.96-2.96,1.29-2.96,2.96,1.35,2.96,2.96,2.96"/><path class="cls-1" d="M62.96,2.06c0-.13,.1-.23,.23-.23h3.76c1.8,0,3.09,1.31,3.09,2.96,0,1.93-1.61,2.64-1.61,2.64l1.73,3.07c.09,.16-.02,.35-.2,.35h-1.52c-.09,0-.16-.05-.2-.12l-1.67-3.04h-1.67v2.92c0,.13-.1,.23-.23,.23h-1.46c-.13,0-.23-.1-.23-.23V2.06Zm3.93,1.51h-2v2.38h2c.71,0,1.22-.52,1.22-1.16,0-.71-.52-1.22-1.22-1.22"/><path class="cls-1" d="M76.49,1.87c2.64,0,4.64,2,4.64,4.51s-2,4.51-4.64,4.51h-3.12c-.13,0-.23-.1-.23-.23V2.1c0-.13,.1-.23,.23-.23h3.12Zm-1.42,1.74v5.54h1.42c1.48,0,2.71-1.22,2.71-2.77s-1.16-2.77-2.71-2.77h-1.42Z"/><path class="cls-1" d="M85.28,8.71l-.72,1.97c-.03,.09-.12,.15-.22,.15h-1.55c-.16,0-.28-.17-.22-.32l3.36-8.55c.04-.09,.12-.15,.22-.15h1.74c.1,0,.18,.06,.22,.15l3.36,8.55c.06,.15-.05,.32-.22,.32h-1.55c-.1,0-.19-.06-.22-.15l-.72-1.97h-3.48Zm1.74-4.64l-1.1,2.96h2.19l-1.09-2.96Z"/><path class="cls-1" d="M93.28,4.26c0-1.42,1.22-2.64,3.16-2.64,1.53,0,2.46,.72,2.8,1.06,.09,.09,.09,.24,0,.33l-.87,.87c-.09,.09-.23,.09-.32,.01-.24-.22-.77-.59-1.49-.59-.77,0-1.35,.45-1.35,.97,0,1.67,4.57,.71,4.57,3.93,0,1.61-1.22,2.83-3.41,2.83-1.78,0-2.87-.92-3.26-1.31-.09-.09-.09-.24,0-.33l.83-.83c.09-.09,.23-.09,.32,0,.29,.28,.97,.8,1.97,.8s1.6-.52,1.6-1.16c0-1.67-4.57-.71-4.57-3.93"/><path class="cls-1" d="M108.07,2.05v3.37h-3.86V2.05c0-.13-.1-.23-.23-.23h-1.47c-.13,0-.23,.1-.23,.23V10.6c0,.13,.1,.23,.23,.23h1.47c.13,0,.23-.1,.23-.23v-3.44h3.86v3.44c0,.13,.1,.23,.23,.23h1.47c.13,0,.23-.1,.23-.23V2.05c0-.13-.1-.23-.23-.23h-1.47c-.13,0-.23,.1-.23,.23"/><path class="cls-1" d="M21.44,3c-.98-1.86-2.92-3-5.01-3H.54C.06,0-.18,.59,.16,.93l3.46,3.48c.31,.31,.72,.48,1.15,.48H15.97c.67,0,1.28,.45,1.43,1.12,.21,.94-.5,1.77-1.4,1.77h-7.72c-.48,0-.73,.59-.38,.93l3.46,3.48c.31,.31,.72,.48,1.15,.48h3.49c4.54,0,7.97-4.85,5.44-9.67"/></g></g></svg>