<svg id="Layer_1" data-name="Layer 1" xmlns="http://www.w3.org/2000/svg" xmlns:xlink="http://www.w3.org/1999/xlink" viewBox="0 0 300 250"><defs><style>.cls-1{fill:none;}.cls-2{clip-path:url(#clip-path);}.cls-3{fill:#009970;}</style><clipPath id="clip-path"><rect class="cls-1" width="300" height="250"/></clipPath></defs><g class="cls-2"><path class="cls-3" d="M22.44,59.79l4.11,15.07L30.6,59.79H32L27.26,77.31H26L21.81,62.39l-4.1,14.92H16.42L11.63,59.79h1.45l4,15.07,4.11-15.07Z"/><path class="cls-3" d="M43.21,71.55H35.45L33.2,77.31H31.74l6.93-17.52H40L47,77.31H45.49ZM36,70.24H42.7l-3.37-8.56Z"/><path class="cls-3" d="M62.41,77.31h-1L50.74,62.1V77.31h-1.4V59.79h1.4L61,74.4V59.79h1.4Z"/><path class="cls-3" d="M64.92,59.79H79.19v1.34H72.77V77.31H71.31V61.13H64.92Z"/><path class="cls-3" d="M99.56,59.79h1.57l-6.4,10.05v7.47H93.28V69.84L86.92,59.79h1.59l5.54,8.71Z"/><path class="cls-3" d="M114.56,75.06A7,7,0,0,1,109,77.57a7.1,7.1,0,0,1-5.54-2.51,9.62,9.62,0,0,1-2.2-6.51,9.61,9.61,0,0,1,2.2-6.5A7.07,7.07,0,0,1,109,59.54a7,7,0,0,1,5.53,2.51,9.43,9.43,0,0,1,2.23,6.5A9.44,9.44,0,0,1,114.56,75.06Zm-1-12a5.84,5.84,0,0,0-9,0,8.35,8.35,0,0,0-1.74,5.5,8.38,8.38,0,0,0,1.74,5.51,5.84,5.84,0,0,0,9,0,8.38,8.38,0,0,0,1.74-5.51A8.35,8.35,0,0,0,113.56,63.05Z"/><path class="cls-3" d="M121.52,75.8a7,7,0,0,1-1.94-5.39V59.79H121V70.21c0,4.08,2.25,6,5.25,6a5.1,5.1,0,0,0,3.76-1.48,6.19,6.19,0,0,0,1.52-4.54V59.79H133V70.41a6.94,6.94,0,0,1-2,5.39,7.3,7.3,0,0,1-9.53,0Z"/><path class="cls-3" d="M136.9,59.79h6c3.42,0,5.65,1.72,5.65,4.91,0,2.83-1.74,4.45-4.48,4.8l5.31,7.81h-1.69l-5.22-7.73h-4.17v7.73H136.9Zm1.45,8.51h4.54c2.65,0,4.28-1.34,4.28-3.6s-1.63-3.59-4.28-3.59h-4.54Z"/><path class="cls-3" d="M14.71,103.31H13.25V85.79h1.46Z"/><path class="cls-3" d="M31,103.31H30L19.3,88.1v15.21H17.9V85.79h1.4L29.58,100.4V85.79H31Z"/><path class="cls-3" d="M39.42,103.31,32.51,85.79H34l6,15.53,6.11-15.53h1.48l-6.93,17.52Z"/><path class="cls-3" d="M60.1,85.79v1.34H50.66v6.48h8.56V95H50.66v7H60.1v1.34H49.23V85.79Z"/><path class="cls-3" d="M61.55,100.15A7.64,7.64,0,0,0,67,102.23c2.51,0,4.1-1.26,4.1-3.28,0-1.74-1-2.48-3.13-3.4l-2.57-1.08a10.67,10.67,0,0,1-2.6-1.54A3.58,3.58,0,0,1,61.58,90a3.81,3.81,0,0,1,1.6-3.34,6.35,6.35,0,0,1,3.71-1.11A8.49,8.49,0,0,1,71.8,87v1.63a7.33,7.33,0,0,0-4.88-1.77c-2.17,0-3.91,1-3.91,3.08,0,1.71,1.2,2.48,3.05,3.2l2.71,1.14c2.54,1.11,3.74,2.37,3.74,4.62a4.1,4.1,0,0,1-1.57,3.37,6.09,6.09,0,0,1-4,1.28,8.43,8.43,0,0,1-5.43-1.74Z"/><path class="cls-3" d="M73.31,85.79H87.57v1.34H81.15v16.18H79.7V87.13H73.31Z"/><path class="cls-3" d="M97.3,99.29,90.68,88.56v14.75H89.26V85.79h1.28l6.82,11.13,6.85-11.13h1.2v17.52H104V88.56L97.39,99.29Z"/><path class="cls-3" d="M119.53,85.79v1.34h-9.45v6.48h8.56V95h-8.56v7h9.45v1.34H108.66V85.79Z"/><path class="cls-3" d="M134.59,103.31h-1L122.92,88.1v15.21h-1.4V85.79h1.4l10.27,14.61V85.79h1.4Z"/><path class="cls-3" d="M136.27,85.79h14.27v1.34h-6.42v16.18h-1.46V87.13h-6.39Z"/><path class="cls-3" d="M151.25,100.15a7.62,7.62,0,0,0,5.42,2.08c2.51,0,4.11-1.26,4.11-3.28,0-1.74-1-2.48-3.14-3.4l-2.57-1.08a10.61,10.61,0,0,1-2.59-1.54,3.58,3.58,0,0,1-1.2-2.94,3.81,3.81,0,0,1,1.6-3.34,6.32,6.32,0,0,1,3.7-1.11A8.47,8.47,0,0,1,161.49,87v1.63a7.33,7.33,0,0,0-4.88-1.77c-2.16,0-3.9,1-3.9,3.08,0,1.71,1.19,2.48,3,3.2l2.71,1.14c2.54,1.11,3.74,2.37,3.74,4.62a4.13,4.13,0,0,1-1.57,3.37,6.12,6.12,0,0,1-4,1.28,8.4,8.4,0,0,1-5.42-1.74Z"/><path class="cls-3" d="M27.26,111.79v17.52H25.81V121H14.71v8.36H13.25V111.79h1.46v7.82h11.1v-7.82Z"/><path class="cls-3" d="M41.16,123.55H33.4l-2.26,5.76H29.69l6.93-17.52H38l6.94,17.52H43.44Zm-7.25-1.31h6.73l-3.36-8.56Z"/><path class="cls-3" d="M60.36,129.31h-1L48.69,114.1v15.21h-1.4V111.79h1.4L59,126.4V111.79h1.4Z"/><path class="cls-3" d="M64.46,111.79H69.8a8.17,8.17,0,0,1,6.13,2.4,8.63,8.63,0,0,1,2.37,6.36,8.76,8.76,0,0,1-2.37,6.4,8.3,8.3,0,0,1-6.13,2.36H64.46ZM69.8,128a6.69,6.69,0,0,0,5.11-2,7.59,7.59,0,0,0,1.91-5.4,7.45,7.45,0,0,0-1.91-5.36,6.62,6.62,0,0,0-5.11-2.06H65.92V128Z"/><path class="cls-3" d="M81.35,111.79h1.46V128h9.5v1.34h-11Z"/><path class="cls-3" d="M105.83,111.79v1.34H96.39v6.48H105V121H96.39v7h9.44v1.34H95V111.79Z"/><path class="cls-3" d="M108.71,111.79h5.34a8.17,8.17,0,0,1,6.13,2.4,8.63,8.63,0,0,1,2.37,6.36,8.76,8.76,0,0,1-2.37,6.4,8.3,8.3,0,0,1-6.13,2.36h-5.34ZM114.05,128a6.69,6.69,0,0,0,5.11-2,7.59,7.59,0,0,0,1.91-5.4,7.45,7.45,0,0,0-1.91-5.36,6.62,6.62,0,0,0-5.11-2.06h-3.88V128Z"/><path class="cls-3" d="M22.44,137.79l4.11,15.07,4.05-15.07H32l-4.77,17.52H26l-4.14-14.92-4.1,14.92H16.42l-4.79-17.52h1.45l4,15.07,4.11-15.07Z"/><path class="cls-3" d="M35.91,155.31H34.45V137.79h1.46Z"/><path class="cls-3" d="M38.36,137.79H52.63v1.34H46.21v16.18H44.75V139.13H38.36Z"/><path class="cls-3" d="M69.15,137.79v17.52H67.69V147H56.59v8.36H55.14V137.79h1.45v7.82h11.1v-7.82Z"/><path class="cls-3" d="M81.15,140a7.48,7.48,0,0,1,5.62-2.42,7.36,7.36,0,0,1,4.8,1.51v1.6a6.8,6.8,0,0,0-4.77-1.74A6,6,0,0,0,82.15,141a9.51,9.51,0,0,0,0,11.19,6,6,0,0,0,4.65,2,6.83,6.83,0,0,0,4.77-1.77v1.63a7.36,7.36,0,0,1-4.8,1.51,7.48,7.48,0,0,1-5.62-2.42,10.57,10.57,0,0,1,0-13.19Z"/><path class="cls-3" d="M104.86,149.55H97.1l-2.25,5.76H93.39l6.94-17.52h1.34l6.93,17.52h-1.45Zm-7.25-1.31h6.74L101,139.68Z"/><path class="cls-3" d="M111,137.79H117c3.43,0,5.65,1.72,5.65,4.91,0,2.83-1.74,4.45-4.48,4.8l5.31,7.81h-1.68l-5.22-7.73h-4.17v7.73H111Zm1.46,8.51H117c2.65,0,4.28-1.34,4.28-3.6s-1.63-3.59-4.28-3.59h-4.54Z"/><path class="cls-3" d="M137,137.79v1.34h-9.45v6.48h8.56V147h-8.56v7H137v1.34H126.12V137.79Z"/><path class="cls-3" d="M146.63,144.73a3.71,3.71,0,0,0,.91-2.46c0-2.05-1.28-3.36-3.68-3.36a6.93,6.93,0,0,0-5,2.59v-1.59a6.89,6.89,0,0,1,5-2.37c3.19,0,5.05,1.88,5.05,4.73a4.35,4.35,0,0,1-1,2.77c-.66.83-1.31,1.6-2,2.34a3.61,3.61,0,0,0-1.23,2.43H143.4a5,5,0,0,1,1.52-3.17ZM144,153.2a1.12,1.12,0,0,1,1.09,1.11A1.09,1.09,0,0,1,144,155.4a1.08,1.08,0,0,1-1.05-1.09A1.1,1.1,0,0,1,144,153.2Z"/></g></svg>