<svg id="Layer_1" data-name="Layer 1" xmlns="http://www.w3.org/2000/svg" xmlns:xlink="http://www.w3.org/1999/xlink" viewBox="0 0 300 250"><defs><style>.cls-1{fill:none;}.cls-2{clip-path:url(#clip-path);}.cls-3{fill:#009870;}.cls-4{fill:#fff;}.cls-5{clip-path:url(#clip-path-3);}</style><clipPath id="clip-path"><rect class="cls-1" width="300" height="250"/></clipPath><clipPath id="clip-path-3"><rect class="cls-1" x="211.88" y="161.88" width="80.13" height="80.13"/></clipPath></defs><g class="cls-2"><g class="cls-2"><rect class="cls-3" x="211.88" y="161.88" width="80.12" height="80.12"/><polygon class="cls-4" points="224.47 202.38 221.71 202.38 221.71 215.56 224.47 215.56 224.47 209.59 229.44 215.56 232.82 215.56 227.13 208.69 232.63 202.38 229.31 202.38 224.47 208.05 224.47 202.38"/><rect class="cls-4" x="234.27" y="205.97" width="2.67" height="9.6"/><g class="cls-5"><path class="cls-4" d="M237.18,203.19a1.59,1.59,0,1,0-1.64,1.53h.07a1.54,1.54,0,0,0,1.57-1.51v0"/></g><polygon class="cls-4" points="246.46 205.97 244.42 205.97 242.84 212.09 241.12 205.97 238.44 205.97 241.38 215.56 243.83 215.56 245.41 209.68 246.98 215.56 249.44 215.56 252.37 205.97 249.78 205.97 248.06 212.09 246.46 205.97"/><rect class="cls-4" x="253.87" y="205.97" width="2.67" height="9.6"/><g class="cls-5"><path class="cls-4" d="M256.78,203.19a1.59,1.59,0,1,0-1.65,1.53h.07a1.55,1.55,0,0,0,1.58-1.51v0"/></g><polygon class="cls-4" points="230.35 217.88 232.64 226.77 234.81 217.88 237.53 217.88 234.08 231.1 231.56 231.1 229.24 222.38 226.91 231.1 224.39 231.1 220.94 217.88 223.72 217.88 225.87 226.77 228.2 217.88 230.35 217.88"/><g class="cls-5"><path class="cls-4" d="M239.79,225.16h3.63a1.66,1.66,0,0,0-1.7-1.77,2,2,0,0,0-1.93,1.77m-.08,1.74a2.49,2.49,0,0,0,2.77,2.22,4.67,4.67,0,0,0,2.76-.84v2.2a5.31,5.31,0,0,1-3.17.84,4.64,4.64,0,0,1-4.93-5c0-3,1.9-5.1,4.53-5.1,2.8,0,4.24,1.94,4.24,4.78v.86Z"/><path class="cls-4" d="M252.86,227.78a1.86,1.86,0,0,0-1.7-.84c-.84,0-1.7.37-1.7,1.19s.86,1.18,1.7,1.18a1.84,1.84,0,0,0,1.7-.84Zm0-2.69c0-.92-.8-1.51-2.15-1.51a4.82,4.82,0,0,0-2.63.78v-2.31a6.59,6.59,0,0,1,3.21-.79c2.65,0,4.14,1.36,4.14,3.7v6.14h-2.57v-.52a3.7,3.7,0,0,1-2.32.69c-1.94,0-3.56-1.12-3.56-3.12,0-1.83,1.62-3.08,3.73-3.08a4.29,4.29,0,0,1,2.15.56Z"/></g><rect class="cls-4" x="257.16" y="217.1" width="2.67" height="14"/><polygon class="cls-4" points="265.7 231.1 263.04 231.1 263.04 223.63 261.2 223.63 261.2 221.47 263.04 221.47 263.04 218.87 265.7 218.87 265.7 221.47 267.75 221.47 267.75 223.63 265.7 223.63 265.7 231.1"/><g class="cls-5"><path class="cls-4" d="M269,217.1h2.67v5.25a3.44,3.44,0,0,1,2.59-1.1,3.21,3.21,0,0,1,3.4,3.56v6.29H275v-5.73a1.5,1.5,0,0,0-1.57-1.7,1.77,1.77,0,0,0-1.75,1.34v6.09H269Z"/><path class="cls-4" d="M280.68,227.83a1.66,1.66,0,0,1,1.68,1.64v.06a1.68,1.68,0,1,1-3.36,0,1.66,1.66,0,0,1,1.62-1.7h.06"/></g></g></g></svg>