<svg xmlns="http://www.w3.org/2000/svg" xmlns:xlink="http://www.w3.org/1999/xlink" viewBox="0 0 320 50"><defs><style>.cls-1{fill:none;}.cls-2{fill:#fff;}.cls-3{fill:#001622;}.cls-4{clip-path:url(#clip-path);}</style><clipPath id="clip-path"><rect class="cls-1" x="-312.86" y="5.14" width="213.84" height="111.36"/></clipPath></defs><g id="Layer_2" data-name="Layer 2"><path class="cls-2" d="M77.07,20.19a4.18,4.18,0,0,0,.53.5,2.51,2.51,0,0,0,1.42.48c1,0,1.62-.59,1.62-1.37a1.38,1.38,0,0,0-1.56-1.36A1.76,1.76,0,0,0,78,18.8a1.84,1.84,0,0,0-.38.35L76.22,19l.33-5.33h5.53v1.82H78.24l-.07,1.62a1.08,1.08,0,0,1,.36-.15,2.51,2.51,0,0,1,.94-.17,3,3,0,0,1,3.19,3.05,3.17,3.17,0,0,1-3.45,3.12,4.77,4.77,0,0,1-2.57-.71,3.84,3.84,0,0,1-.87-.72Z"/><path class="cls-2" d="M83.83,18.18c0-2.93,1.82-4.75,3.9-4.75s3.9,1.82,3.9,4.75-1.82,4.74-3.9,4.74S83.83,21.1,83.83,18.18Zm5.85,0c0-1.95-1-2.93-2-2.93s-2,1-2,2.93,1,2.92,2,2.92S89.68,20.13,89.68,18.18Z"/><path class="cls-2" d="M94.88,13.43a2.15,2.15,0,1,1-2.21,2.15A2.16,2.16,0,0,1,94.88,13.43Zm4.74.2h1.63l-5.72,9.1H93.9Zm-4.74,2.86a.91.91,0,1,0-.91-.91A.89.89,0,0,0,94.88,16.49Zm5.39,2.14a2.15,2.15,0,1,1-2.21,2.15A2.17,2.17,0,0,1,100.27,18.63Zm.91,2.15a.91.91,0,1,0-.91.91A.89.89,0,0,0,101.18,20.78Z"/><path class="cls-2" d="M109.44,16.23a3.32,3.32,0,1,1-3.38,3.31A3.34,3.34,0,0,1,109.44,16.23Zm1.62,3.31a1.63,1.63,0,1,0-1.62,1.69A1.62,1.62,0,0,0,111.06,19.54Z"/><path class="cls-2" d="M114.51,18.11h-1V16.49h1V16.1a2.06,2.06,0,0,1,2.14-2.34,3,3,0,0,1,.75.1l.29.09v1.63l-.16-.07a1.29,1.29,0,0,0-.42-.06.81.81,0,0,0-.85.91v.13h2.34v-.65a2.07,2.07,0,0,1,2.15-2.34,3.69,3.69,0,0,1,.83.1l.34.09v1.63l-.21-.07a1.88,1.88,0,0,0-.51-.06.8.8,0,0,0-.84.91v.39h1.43v1.62h-1.43v4.62H118.6V18.11h-2.34v4.62h-1.75Z"/><path class="cls-3" d="M125.36,18.11h2.21V15.9h1.5v2.21h2.21v1.63h-2.21V22h-1.5V19.74h-2.21Z"/><path class="cls-2" d="M136,20.19a3,3,0,0,0,.56.5,2.88,2.88,0,0,0,1.59.48c1,0,1.49-.46,1.49-1,0-1.55-4.55-.86-4.55-4,0-1.3.9-2.2,2.41-2.6V12.33h1.69V13.5a4.1,4.1,0,0,1,1.65.66,4.56,4.56,0,0,1,.62.51l-1.3,1.3a2.38,2.38,0,0,0-.45-.39,2.23,2.23,0,0,0-1.24-.39c-1,0-1.36.39-1.36.91,0,1.54,4.55.85,4.55,4a2.9,2.9,0,0,1-2.47,2.73V24h-1.69V22.86a5.3,5.3,0,0,1-2.11-.78,3.68,3.68,0,0,1-.69-.59Z"/><path class="cls-2" d="M142.72,18.18c0-2.93,1.82-4.75,3.9-4.75s3.9,1.82,3.9,4.75-1.82,4.74-3.9,4.74S142.72,21.1,142.72,18.18Zm5.85,0c0-1.95-1-2.93-1.95-2.93s-2,1-2,2.93,1,2.92,2,2.92S148.57,20.13,148.57,18.18Z"/><path class="cls-2" d="M159.29,21.82h-.06a2.45,2.45,0,0,1-.5.52,2.48,2.48,0,0,1-1.52.52,3.09,3.09,0,0,1-2.86-3.32,3.1,3.1,0,0,1,2.86-3.31,2.48,2.48,0,0,1,1.52.52,2.05,2.05,0,0,1,.5.52h.06V13.63h1.76v9.1h-1.76Zm.07-2.28a1.63,1.63,0,1,0-1.63,1.69A1.63,1.63,0,0,0,159.36,19.54Z"/><path class="cls-2" d="M168.52,21.82a3.54,3.54,0,0,1-.7.52,4.12,4.12,0,0,1-2,.52,3.32,3.32,0,1,1-.06-6.63,3.19,3.19,0,0,1,3.18,3.18c0,.25,0,.42,0,.56l0,.22h-4.62a1.64,1.64,0,0,0,1.69,1.11,2.25,2.25,0,0,0,1.26-.35,1.56,1.56,0,0,0,.43-.37Zm-1.43-2.93a1.52,1.52,0,0,0-1.43-1.1,1.54,1.54,0,0,0-1.43,1.1Z"/><path class="cls-2" d="M170.28,13.63H172v9.1h-1.75Z"/><path class="cls-2" d="M174.67,13.56a1,1,0,1,1-1,1A1,1,0,0,1,174.67,13.56Zm-.88,2.8h1.75v6.37h-1.75Z"/><path class="cls-2" d="M176.32,16.36h1.89l1.47,4.29h0l1.47-4.29h1.88l-2.4,6.37h-2Z"/><path class="cls-2" d="M189.58,21.82a3.54,3.54,0,0,1-.7.52,4.12,4.12,0,0,1-2,.52,3.32,3.32,0,1,1-.06-6.63A3.19,3.19,0,0,1,190,19.41a3.71,3.71,0,0,1,0,.56l0,.22h-4.62A1.64,1.64,0,0,0,187,21.3a2.25,2.25,0,0,0,1.26-.35,1.56,1.56,0,0,0,.43-.37Zm-1.43-2.93a1.52,1.52,0,0,0-1.43-1.1,1.54,1.54,0,0,0-1.43,1.1Z"/><path class="cls-2" d="M191.27,16.36H193v.91h.06a3,3,0,0,1,.48-.52,2.19,2.19,0,0,1,1.41-.52h.13v1.88l-.15,0a2.19,2.19,0,0,0-.44,0A1.53,1.53,0,0,0,193,19.74v3h-1.76Z"/><path class="cls-2" d="M196.08,23.64a1.29,1.29,0,0,0,.21.06,1.85,1.85,0,0,0,.51.07,1.13,1.13,0,0,0,1.1-.78l.13-.33-2.47-6.3h1.89l1.49,4.22H199l1.43-4.22h1.88l-2.6,6.89c-.53,1.44-1.28,2.21-2.47,2.21a3.75,3.75,0,0,1-.83-.09l-.34-.11Z"/><path class="cls-2" d="M78.21,31.43a2.5,2.5,0,1,1-2.5,2.5A2.48,2.48,0,0,1,78.21,31.43Zm1.5,2.5a1.5,1.5,0,1,0-1.5,1.55A1.48,1.48,0,0,0,79.71,33.93Z"/><path class="cls-2" d="M81.81,31.53h1v.7a1.74,1.74,0,0,1,.37-.4,1.77,1.77,0,0,1,1.13-.4,1.89,1.89,0,0,1,1.9,2.1v2.8h-1v-2.8a1.06,1.06,0,0,0-1.1-1.15,1.27,1.27,0,0,0-1.3,1.35v2.6h-1Z"/><path class="cls-2" d="M89.21,37.33l.17.08a1.2,1.2,0,0,0,.43.07.91.91,0,0,0,.85-.65l.2-.5-1.94-4.8H90l1.35,3.55,1.35-3.55h1.1l-2.1,5.35c-.4,1-.95,1.55-1.75,1.55a1.86,1.86,0,0,1-.54-.07l-.21-.08Z"/><path class="cls-2" d="M96.81,31.43a2.5,2.5,0,1,1-2.5,2.5A2.48,2.48,0,0,1,96.81,31.43Zm1.5,2.5a1.5,1.5,0,1,0-1.5,1.55A1.48,1.48,0,0,0,98.31,33.93Z"/><path class="cls-2" d="M100.41,31.53h1v2.8a1.06,1.06,0,0,0,1.1,1.15,1.27,1.27,0,0,0,1.3-1.35v-2.6h1v4.8h-1v-.7a2.05,2.05,0,0,1-.38.4,1.74,1.74,0,0,1-1.12.4,1.89,1.89,0,0,1-1.9-2.1Z"/><path class="cls-2" d="M106.21,31.53h1v.65a2.59,2.59,0,0,1,.37-.37,1.72,1.72,0,0,1,1.08-.38h.25v1l-.13,0a1.85,1.85,0,0,0-.27,0,1.37,1.37,0,0,0-1.3,1.45v2.45h-1Z"/><path class="cls-2" d="M112.06,32.48h-.75v-.95h.75v-.7a1.4,1.4,0,0,1,1.5-1.6,1.81,1.81,0,0,1,.54.08l.21.07v.95l-.16-.07a1.12,1.12,0,0,0-.39-.08c-.47,0-.7.25-.7.75v.6h3v4.8h-1V32.48h-2v3.85h-1Zm3.5-3a.6.6,0,1,1-.6.6A.6.6,0,0,1,115.56,29.43Z"/><path class="cls-2" d="M117.51,31.53h1v.65a2.59,2.59,0,0,1,.37-.37,1.72,1.72,0,0,1,1.08-.38h.25v1l-.13,0a1.85,1.85,0,0,0-.27,0,1.37,1.37,0,0,0-1.3,1.45v2.45h-1Z"/><path class="cls-2" d="M121.31,34.88a1.52,1.52,0,0,0,.34.33,1.55,1.55,0,0,0,.91.32c.56,0,.85-.29.85-.6,0-.8-2.55-.39-2.55-2.1,0-.75.66-1.4,1.75-1.4a2.56,2.56,0,0,1,1.28.33,1.55,1.55,0,0,1,.42.32l-.65.65a1.55,1.55,0,0,0-.28-.2,1.53,1.53,0,0,0-.77-.2c-.51,0-.75.25-.75.5,0,.8,2.55.4,2.55,2.1,0,.8-.69,1.5-1.85,1.5a2.37,2.37,0,0,1-1.42-.45,2.07,2.07,0,0,1-.48-.45Z"/><path class="cls-2" d="M126,32.48h-.9v-.95h.55c.31,0,.45-.15.45-.55V29.93h.9v1.6h1.1v.95H127v2.25c0,.5.23.75.7.75a1.13,1.13,0,0,0,.39-.07l.16-.08v1l-.21.08a1.86,1.86,0,0,1-.54.07,1.4,1.4,0,0,1-1.5-1.6Z"/><path class="cls-2" d="M132.81,30.38h-2.1V29.33H136v1.05h-2.1v5.95h-1.1Z"/><path class="cls-2" d="M136.41,29.33h1.15l1.7,5.25,1.65-5.25H142l1.65,5.25,1.7-5.25h1.15l-2.3,7h-1.1l-1.65-5.25-1.65,5.25h-1.1Z"/><path class="cls-2" d="M150.76,29.23a3.6,3.6,0,1,1-3.7,3.6A3.61,3.61,0,0,1,150.76,29.23Zm0,6.2a2.6,2.6,0,1,0-2.6-2.6A2.58,2.58,0,0,0,150.76,35.43Z"/><path class="cls-2" d="M160,31.43a2.5,2.5,0,1,1-2.5,2.5A2.48,2.48,0,0,1,160,31.43Zm1.5,2.5a1.5,1.5,0,1,0-1.5,1.55A1.48,1.48,0,0,0,161.51,33.93Z"/><path class="cls-2" d="M163.61,31.53h1v.65a2.59,2.59,0,0,1,.37-.37,1.72,1.72,0,0,1,1.08-.38h.25v1l-.13,0a1.85,1.85,0,0,0-.27,0,1.37,1.37,0,0,0-1.3,1.45v2.45h-1Z"/><path class="cls-2" d="M170.71,35.63a1.64,1.64,0,0,1-.39.4,2.09,2.09,0,0,1-1.26.4,2.51,2.51,0,0,1,0-5,2.09,2.09,0,0,1,1.26.4,1.64,1.64,0,0,1,.39.4v-2.9h1v7h-1Zm0-1.7a1.45,1.45,0,1,0-1.45,1.55A1.47,1.47,0,0,0,170.71,33.93Z"/><path class="cls-2" d="M177.41,35.53a2,2,0,0,1-.5.45,2.72,2.72,0,0,1-1.55.45,2.5,2.5,0,0,1-.05-5,2.27,2.27,0,0,1,2.35,2.35,2.87,2.87,0,0,1,0,.36l0,.14h-3.7a1.48,1.48,0,0,0,1.5,1.2,1.84,1.84,0,0,0,1-.32,1.7,1.7,0,0,0,.38-.33Zm-.8-2.1a1.29,1.29,0,0,0-1.3-1.1,1.39,1.39,0,0,0-1.4,1.1Z"/><path class="cls-2" d="M178.76,31.53h1v.65a2.59,2.59,0,0,1,.37-.37,1.72,1.72,0,0,1,1.08-.38h.25v1l-.13,0a1.85,1.85,0,0,0-.27,0,1.37,1.37,0,0,0-1.3,1.45v2.45h-1Z"/><path class="cls-2" d="M182.56,34.88a1.52,1.52,0,0,0,.34.33,1.55,1.55,0,0,0,.91.32c.56,0,.85-.29.85-.6,0-.8-2.55-.39-2.55-2.1,0-.75.66-1.4,1.75-1.4a2.56,2.56,0,0,1,1.28.33,1.55,1.55,0,0,1,.42.32l-.65.65a1.55,1.55,0,0,0-.28-.2,1.53,1.53,0,0,0-.77-.2c-.51,0-.75.25-.75.5,0,.8,2.55.4,2.55,2.1,0,.8-.69,1.5-1.85,1.5a2.37,2.37,0,0,1-1.42-.45,2.07,2.07,0,0,1-.48-.45Z"/><g class="cls-4"><image width="1274" height="469" transform="translate(-300.02 -0.51) scale(0.24)" xlink:href="../../DoorDash_NRL_Folder/Links/Chocolate%201.png"/></g></g></svg>