<svg xmlns="http://www.w3.org/2000/svg" viewBox="0 0 184.4 35.86"><defs><style>.cls-1{fill:#ff3008;}.cls-2{fill:#fff;}</style></defs><g id="Layer_2" data-name="Layer 2"><g id="Layer_2-2" data-name="Layer 2"><rect class="cls-1" width="184.4" height="35.86" rx="17.93"/><path class="cls-2" d="M42.63,13h7.86v2.12H44.9v2h4.38v2H44.9v2.26h5.74v2.12h-8Z"/><path class="cls-2" d="M53.43,13h2l5.13,6.57V13h2.27V23.59h-2L55.7,17v6.57H53.43Z"/><path class="cls-2" d="M68.3,15.13h-3V13h8.31v2.12h-3v8.46H68.3Z"/><path class="cls-2" d="M76,13h7.86v2.12H78.27v2h4.38v2H78.27v2.26H84v2.12H76Z"/><path class="cls-2" d="M86.8,13h4.68a3.41,3.41,0,0,1,3.7,3.55,3.42,3.42,0,0,1-.9,2.47,2.75,2.75,0,0,1-.91.63l2.19,3.93H93.07l-1.89-3.48H89.07v3.48H86.8Zm4.61,5a1.44,1.44,0,0,0,0-2.87H89.07V18Z"/><path class="cls-2" d="M102.12,13h2l5.14,6.57V13h2.27V23.59h-2L104.39,17v6.57h-2.27Z"/><path class="cls-2" d="M120.1,12.79a5.51,5.51,0,1,1-5.74,5.51A5.59,5.59,0,0,1,120.1,12.79Zm0,8.91a3.4,3.4,0,1,0-3.4-3.4A3.38,3.38,0,0,0,120.1,21.7Z"/><path class="cls-2" d="M127.19,13h2.34l2.19,7.1h.08L134,13h2.11l2.19,7.1h.08l2.19-7.1h2.34l-3.47,10.58h-2.19l-2.15-6.88H135l-2.15,6.88h-2.18Z"/></g></g></svg>