<svg id="Layer_2" data-name="Layer 2" xmlns="http://www.w3.org/2000/svg" viewBox="0 0 970 250"><defs><style>.cls-1{fill:#fff;}</style></defs><path class="cls-1" d="M937.17,180.82l-4.16,2.8,2,3.69a.58.58,0,0,1-.11.68l-4.91,4.6,0-2.78,2.8-2.42L931,184.13a.47.47,0,0,1,.22-.65l6-2.69s0,0,0,0m1.59,6.62a.72.72,0,0,1-.16.86l-11.5,10.34c-.1.08-.1.13-.1.13L937.25,193v1.46a5.25,5.25,0,0,1-.76,2.85,4.65,4.65,0,0,1-1.57,1.48l-10.67,6.16-10.67-6.16a4.47,4.47,0,0,1-1.57-1.48,5.16,5.16,0,0,1-.76-2.85V193l10.25,5.82a.29.29,0,0,0-.1-.13L909.9,188.3a.7.7,0,0,1-.16-.86l1.85-3.59-4-2.72v13.28a8.33,8.33,0,0,0,4.16,7.5l12.51,7.23,12.5-7.23a8.32,8.32,0,0,0,4.17-7.5V181.13l-4,2.72Zm2.16-14.86v-7.09H907.58v7.09c2.66.52,6.93,2.06,7.92,3.18,0,0-4.15-1.76-7.92-.06a36,36,0,0,1,5.79,1.76l-2.12,1.74s1.58-.17,3.49-.19c2.94,0,6.68.31,6.69,2.13l1.7-1.93a1.35,1.35,0,0,0,.36-1.19c-.29-1.09-1.88-2.74-6.45-4.31a32.65,32.65,0,0,0-5.79-1.28v-3.27h26v3.27a32.46,32.46,0,0,0-5.79,1.28c-4.57,1.57-6.16,3.22-6.45,4.31a1.32,1.32,0,0,0,.36,1.19l1.69,1.93c0-1.82,3.75-2.15,6.69-2.13,1.92,0,3.5.19,3.5.19l-2.12-1.74a35.59,35.59,0,0,1,5.79-1.76c-3.78-1.7-7.92.06-7.92.06,1-1.12,5.26-2.66,7.92-3.18m-12.69,10.21-.68,3.78a.21.21,0,0,0,.25.24l2.4-.59-1.3-.23.44-3.34,2.6-1.22s0,0,0,0l-3.47,1.09a.42.42,0,0,0-.28.31m-16.9-2,4.16,2.8-2,3.69a.56.56,0,0,0,.11.68l4.91,4.6,0-2.78-2.8-2.42,1.74-3.26a.48.48,0,0,0-.22-.65l-6-2.69s0,0,0,0m9.36,6a.21.21,0,0,0,.25-.24l-.68-3.78a.42.42,0,0,0-.27-.31l-3.48-1.09a.11.11,0,0,0,0,0l2.6,1.22.44,3.34-1.31.23Zm5.14-27.42h-.91v1.18h.82c.52,0,.79-.23.79-.6S926.28,159.39,925.83,159.39Zm-12.38,1.66v-1.56l-1,1.56Zm17.91-1.61a1.06,1.06,0,0,0-1.18,1.06,1.18,1.18,0,0,0,2.36,0A1.06,1.06,0,0,0,931.36,159.44Zm-23.78-2v6.12h33.34v-6.12Zm7.42,5.27h-1.55V162H911.9l-.44.72h-1.81l3-4.41H915Zm6,0-.26-3-.89,3h-1.59l-.83-3-.22,3H915.7l.43-4.41h2.37l.67,2.42.7-2.42h2.34l.43,4.41Zm5.1-1.15h-1.23v1.15h-1.57V158.3h3a1.55,1.55,0,0,1,1.75,1.63C928.15,160.88,927.47,161.57,926.15,161.57Zm5.21,1.29c-1.76,0-2.87-1.06-2.87-2.37s1.11-2.33,2.88-2.33,2.87,1,2.87,2.33S933.12,162.86,931.36,162.86Zm7.48-.14h-4.05v-4.41h1.58v3.12h2.47ZM906.24,214H905l-.2.65h-.9l1.31-3.54H906l1.32,3.54h-.9Zm-.22-.67-.38-1.2-.38,1.2Zm5.41,1.32h-.84v-.79l.09-1.83-.87,1.91h-.56l-.88-1.91.09,1.83v.79h-.84v-3.54h1.1l.81,1.74.8-1.74h1.1Zm3.35-2.33c0,.69-.52,1.14-1.37,1.14h-.57v1.19H912v-3.54h1.42A1.22,1.22,0,0,1,914.78,212.27Zm-.85,0a.49.49,0,0,0-.52-.54h-.57v1h.57C913.78,212.73,913.93,212.54,913.93,212.27Zm2.76,2.38a1.56,1.56,0,0,1-1.55-1.75v-.13a1.56,1.56,0,1,1,3.09,0v.13A1.55,1.55,0,0,1,916.69,214.65Zm0-3c-.46,0-.69.36-.69,1.06v.14c0,.69.24,1.07.69,1.07s.69-.38.69-1.07v-.14C917.38,212.06,917.13,211.7,916.69,211.7Zm4.34,2.23v.67h-2.34v-3.54h.84v2.87Zm1.53-1.92c0-.61.57-1,1.35-1s1.32.43,1.32,1.1h-.83c0-.26-.17-.44-.51-.44s-.5.16-.5.35.25.33.66.46c.76.24,1.18.58,1.18,1.17s-.51,1-1.31,1-1.47-.36-1.47-1.2h.84c0,.41.23.54.63.54s.47-.15.47-.33-.09-.33-.63-.51S922.56,212.65,922.56,212Zm5.88-.28h-1.06v2.87h-.84v-2.87h-1v-.67h3Zm2.07,2.22h-1.19l-.21.65h-.9l1.31-3.54h.79l1.31,3.54h-.9Zm-.21-.67-.38-1.2-.39,1.2Zm4-1.55h-1.07v2.87h-.84v-2.87h-1v-.67h3Zm1.21,0v.73h1.35v.65h-1.35v.82h1.59v.67h-2.43v-3.54h2.43v.67Zm4.65,2.92a1.56,1.56,0,0,1-1.55-1.75v-.13a1.56,1.56,0,1,1,3.09,0v.13A1.56,1.56,0,0,1,940.2,214.65Zm0-3c-.45,0-.69.36-.69,1.06v.14c0,.69.24,1.07.7,1.07s.69-.38.69-1.07v-.14C940.89,212.06,940.64,211.7,940.19,211.7Zm2.85,0v.8h1.37v.67H943v1.4h-.84v-3.54h2.36v.67Zm-35.22,4.67c-2.28,0-3.88,1.68-3.88,4.42v.32c0,2.74,1.61,4.41,3.89,4.41s3.87-1.67,3.87-4.41v-.32C911.7,218.08,910.09,216.4,907.82,216.4Zm1.74,4.74c0,1.73-.62,2.7-1.73,2.7s-1.75-1-1.75-2.7v-.33c0-1.76.59-2.68,1.74-2.68s1.74.92,1.74,2.68Zm10.14-1.92c0-1.76-1.29-2.7-3.36-2.7h-3.46v8.91H915v-3.12h1.2l1.57,3.12H920v-.09l-1.85-3.59A2.51,2.51,0,0,0,919.7,219.22Zm-3.37,1.38H915v-2.37h1.35a1.11,1.11,0,0,1,1.26,1.19C917.6,220.17,917.17,220.6,916.33,220.6Zm4.82,4.83h2.1v-8.91h-2.1Zm7.26-3.27h1.51v1.34a1.87,1.87,0,0,1-1.27.36c-1.31,0-1.92-.88-1.92-2.64v-.48c0-1.79.65-2.65,1.73-2.65a1.36,1.36,0,0,1,1.53,1.36h2c-.19-1.79-1.21-3-3.63-3-2.24,0-3.8,1.56-3.8,4.35v.47c0,2.78,1.56,4.33,3.92,4.33a4.64,4.64,0,0,0,3.51-1.23v-3.67h-3.61Zm5.07,3.27h2.1v-8.91h-2.1Zm9-8.91v3.71l.18,2.06-3.39-5.77h-2.11v8.91h2.11v-3.66l-.18-2.1,3.38,5.76h2.12v-8.91Z"/></svg>