<svg id="Layer_2" data-name="Layer 2" xmlns="http://www.w3.org/2000/svg" viewBox="0 0 969 250"><defs><style>.cls-1{fill:#fff;}</style></defs><path class="cls-1" d="M173,85.07a6.8,6.8,0,0,0,1.54,1.37A7.73,7.73,0,0,0,179,87.77c2.88,0,4.14-1.26,4.14-2.88,0-4.28-12.59-2.37-12.59-11.15,0-4,3.42-7.38,9.17-7.38A12.11,12.11,0,0,1,186,68.08a11,11,0,0,1,2.12,1.7l-3.6,3.6a8.16,8.16,0,0,0-1.26-1.08,6.2,6.2,0,0,0-3.42-1.08c-2.73,0-3.78,1.08-3.78,2.52,0,4.28,12.6,2.37,12.6,11.15,0,4.14-3.6,7.74-9.54,7.74a13.59,13.59,0,0,1-7.3-2,9.16,9.16,0,0,1-2.41-2Z"/><path class="cls-1" d="M192.63,79.31h-3.06V74.82h1.62c1.34,0,2-.73,2-2.16V69.42h4.32v5.4h4v4.49h-4v5.94a2.23,2.23,0,0,0,2.34,2.52,5.31,5.31,0,0,0,1.41-.18,2.11,2.11,0,0,0,.57-.18v4.5c-.29.11-.61.18-.93.29a10.3,10.3,0,0,1-2.31.25c-3.6,0-5.94-2.3-5.94-6.48Z"/><path class="cls-1" d="M214.23,89.93h-.18a6.92,6.92,0,0,1-1.33,1.26,6.19,6.19,0,0,1-3.89,1.26c-3.23,0-5.39-2.16-5.39-5s1.94-5.07,5.21-5.65l5.58-1a2.82,2.82,0,0,0-3.06-2.34,4.61,4.61,0,0,0-2.91,1,5.09,5.09,0,0,0-1,1l-2.88-2.88a9.48,9.48,0,0,1,7.19-3.42c4.5,0,7.56,3.1,7.56,7v11h-4.86Zm0-5.76-4,.72c-1.25.26-2,.9-2,1.8,0,1.12.73,1.8,2.16,1.8a3.74,3.74,0,0,0,3.78-4Z"/><path class="cls-1" d="M224,79.31h-3.06V74.82h1.62c1.34,0,2-.73,2-2.16V69.42h4.32v5.4h4v4.49h-4v5.94a2.23,2.23,0,0,0,2.34,2.52,5.31,5.31,0,0,0,1.41-.18,2.11,2.11,0,0,0,.57-.18v4.5c-.28.11-.61.18-.93.29a10.3,10.3,0,0,1-2.31.25c-3.6,0-5.94-2.3-5.94-6.48Z"/><path class="cls-1" d="M251.49,89.57A8.9,8.9,0,0,1,249.55,91a11.44,11.44,0,0,1-5.62,1.44,9.18,9.18,0,1,1-.18-18.36,8.83,8.83,0,0,1,8.82,8.82,12.91,12.91,0,0,1-.11,1.55l-.07.61H239.61a4.53,4.53,0,0,0,4.68,3.06,6.17,6.17,0,0,0,3.49-1,4.52,4.52,0,0,0,1.19-1Zm-4-8.1a4.09,4.09,0,0,0-7.92,0Z"/><path class="cls-1" d="M270.21,74.09a9.18,9.18,0,1,1-9.36,9.18A9.26,9.26,0,0,1,270.21,74.09Zm4.5,9.18a4.5,4.5,0,1,0-4.5,4.68A4.5,4.5,0,0,0,274.71,83.27Z"/><path class="cls-1" d="M283.35,79.31h-2.7V74.82h2.7V73c0-4.18,2.34-6.48,5.94-6.48a10.11,10.11,0,0,1,2.31.28c.32.11.64.18.93.26v4.5c-.18,0-.36-.11-.57-.18a5.31,5.31,0,0,0-1.41-.18,2.23,2.23,0,0,0-2.34,2.52v1.08h4v4.49h-4V92.09h-4.86Z"/><path class="cls-1" d="M314.31,66.36a13.15,13.15,0,1,1-13.68,13.13A13.31,13.31,0,0,1,314.31,66.36Zm0,21.23a8.1,8.1,0,1,0-8.1-8.1A8.07,8.07,0,0,0,314.31,87.59Z"/><path class="cls-1" d="M331.05,74.46h4.86V77h.18a8.61,8.61,0,0,1,1.33-1.43,6,6,0,0,1,3.89-1.45h.36v5.22l-.4-.07a9.54,9.54,0,0,0-1.22-.1c-2.34,0-4.14,1.79-4.14,4.67v8.28h-4.86Z"/><path class="cls-1" d="M346.28,66.72a2.76,2.76,0,0,1,2.77,2.7,2.79,2.79,0,0,1-2.81,2.7,2.76,2.76,0,0,1-2.77-2.7A2.79,2.79,0,0,1,346.28,66.72Zm-2.45,7.74h4.86V92.09h-4.86Z"/><path class="cls-1" d="M355.17,93a7,7,0,0,0,1.26,1.08,6.22,6.22,0,0,0,3.42,1.08,4.59,4.59,0,0,0,4.68-4.86V88.85h-.18a7,7,0,0,1-1.29,1.44A6.36,6.36,0,0,1,359,91.73c-3.92,0-7.56-3.6-7.56-8.82S355,74.09,359,74.09a6.36,6.36,0,0,1,4.11,1.45A7,7,0,0,1,364.35,77h.18V74.46h4.86V90.29a9.13,9.13,0,0,1-9.54,9.36,10,10,0,0,1-5.83-1.8,8.23,8.23,0,0,1-1.91-1.8Zm9.36-10.08a4.14,4.14,0,1,0-4.14,4.32A4.1,4.1,0,0,0,364.53,82.91Z"/><path class="cls-1" d="M375.62,66.72a2.76,2.76,0,0,1,2.77,2.7,2.79,2.79,0,0,1-2.81,2.7,2.76,2.76,0,0,1-2.77-2.7A2.79,2.79,0,0,1,375.62,66.72Zm-2.45,7.74H378V92.09h-4.86Z"/><path class="cls-1" d="M381.81,74.46h4.86V77h.18a8.61,8.61,0,0,1,1.33-1.43,6,6,0,0,1,3.89-1.45c3.6,0,6.48,2.88,6.48,7.38V92.09h-4.86v-9.9c0-2.16-1.22-3.42-3.24-3.42a3.74,3.74,0,0,0-3.78,4v9.36h-4.86Z"/><path class="cls-1" d="M406.11,66.9h5.76l6.59,18.53h.14l6.59-18.53H431l-9.36,25.19h-6.12Z"/><path class="cls-1" d="M433.83,66.9h5.4V92.09h-5.4Z"/><path class="cls-1" d="M444.81,66.9h10.62c5.36,0,9,3.56,9,8.45s-3.64,8.46-9,8.46h-5.22v8.28h-5.4Zm10.44,11.87a3.42,3.42,0,1,0,0-6.83h-5v6.83Z"/><path class="cls-1" d="M469.83,74.46h5.22l3.24,10.43h.18l3.42-10.43h4l3.42,10.43h.18l3.24-10.43h5.22l-6.2,17.63h-4.42l-3.35-10.26h-.14l-3.35,10.26H476Z"/><path class="cls-1" d="M515,89.57a9,9,0,0,1-2,1.44,11.36,11.36,0,0,1-5.61,1.44,9.18,9.18,0,1,1-.18-18.36,8.83,8.83,0,0,1,8.82,8.82,12.91,12.91,0,0,1-.11,1.55l-.07.61H503.13a4.53,4.53,0,0,0,4.68,3.06,6.19,6.19,0,0,0,3.49-1,4.69,4.69,0,0,0,1.19-1Zm-4-8.1a4.09,4.09,0,0,0-7.92,0Z"/><path class="cls-1" d="M534.63,89.57a9,9,0,0,1-2,1.44,11.36,11.36,0,0,1-5.61,1.44,9.18,9.18,0,1,1-.18-18.36,8.83,8.83,0,0,1,8.82,8.82,15.42,15.42,0,0,1-.11,1.55l-.07.61H522.75a4.53,4.53,0,0,0,4.68,3.06,6.19,6.19,0,0,0,3.49-1,4.69,4.69,0,0,0,1.19-1Zm-4-8.1a4.09,4.09,0,0,0-7.92,0Z"/><path class="cls-1" d="M538.59,66.9h4.86V81.65l6.3-7.19h5.76L549,81.83l6.84,10.26h-5.58l-4.5-6.84L543.45,88v4.14h-4.86Z"/><path class="cls-1" d="M572.61,89.57a9,9,0,0,1-2,1.44,11.36,11.36,0,0,1-5.61,1.44,9.18,9.18,0,1,1-.18-18.36,8.83,8.83,0,0,1,8.82,8.82,12.91,12.91,0,0,1-.11,1.55l-.07.61H560.73a4.53,4.53,0,0,0,4.68,3.06,6.19,6.19,0,0,0,3.49-1,4.69,4.69,0,0,0,1.19-1Zm-4-8.1a4.09,4.09,0,0,0-7.92,0Z"/><path class="cls-1" d="M576.39,74.46h4.86V77h.18a8.21,8.21,0,0,1,1.33-1.43,6,6,0,0,1,3.89-1.45c3.6,0,6.48,2.88,6.48,7.38V92.09h-4.86v-9.9c0-2.16-1.23-3.42-3.24-3.42a3.74,3.74,0,0,0-3.78,4v9.36h-4.86Z"/><path class="cls-1" d="M609.51,89.57h-.18A6.42,6.42,0,0,1,608,91a6.9,6.9,0,0,1-4.21,1.44c-4.18,0-7.92-3.78-7.92-9.18s3.74-9.18,7.92-9.18A6.9,6.9,0,0,1,608,75.54,6.38,6.38,0,0,1,609.33,77h.18V66.9h4.86V92.09h-4.86Zm.18-6.3a4.5,4.5,0,1,0-4.5,4.68A4.5,4.5,0,0,0,609.69,83.27Z"/><path class="cls-1" d="M627.44,66.72a2.76,2.76,0,0,1,2.77,2.7,2.79,2.79,0,0,1-2.81,2.7,2.76,2.76,0,0,1-2.77-2.7A2.79,2.79,0,0,1,627.44,66.72ZM625,74.46h4.86V92.09H625Z"/><path class="cls-1" d="M633.63,74.46h4.86V77h.18A8.21,8.21,0,0,1,640,75.54a6,6,0,0,1,3.89-1.45c3.6,0,6.48,2.88,6.48,7.38V92.09h-4.86v-9.9c0-2.16-1.23-3.42-3.24-3.42a3.74,3.74,0,0,0-3.78,4v9.36h-4.86Z"/><path class="cls-1" d="M661.71,66.9h10.62c5,0,8.09,3.06,8.09,6.65a5.44,5.44,0,0,1-1.72,4.11A5.75,5.75,0,0,1,677,78.77,7,7,0,0,1,679.34,80a6.07,6.07,0,0,1,2.34,4.89c0,3.93-3.27,7.2-8.64,7.2H661.71ZM672,76.61c1.84,0,2.89-1.07,2.89-2.52s-1.05-2.51-2.89-2.51h-4.85v5Zm.73,10.8c2.16,0,3.42-1.22,3.42-3.06s-1.26-3.06-3.42-3.06h-5.58v6.12Z"/><path class="cls-1" d="M684.75,74.46h4.86V77h.18a8.21,8.21,0,0,1,1.33-1.43A6,6,0,0,1,695,74.09h.36v5.22l-.4-.07a9.71,9.71,0,0,0-1.22-.1c-2.34,0-4.14,1.79-4.14,4.67v8.28h-4.86Z"/><path class="cls-1" d="M700,66.72a2.7,2.7,0,1,1-2.8,2.7A2.76,2.76,0,0,1,700,66.72Zm-2.44,7.74h4.86V92.09h-4.86Z"/><path class="cls-1" d="M707.25,86.15a5.65,5.65,0,0,0,1.26,1,6.19,6.19,0,0,0,3.42,1c1.62,0,2.16-.54,2.16-1.26,0-2-9-1.62-9-7.38,0-2.88,2.52-5.4,7-5.4a9.87,9.87,0,0,1,5.11,1.37A8.7,8.7,0,0,1,719,76.8l-2.88,3a6.16,6.16,0,0,0-4-1.44c-1.26,0-1.8.54-1.8,1.08,0,2,9,1.62,9,7.38,0,3-2.52,5.58-7.38,5.58a10.3,10.3,0,0,1-5.62-1.62,8.12,8.12,0,0,1-1.94-1.62Z"/><path class="cls-1" d="M721.83,66.9h4.86V77h.18a6.33,6.33,0,0,1,1.36-1.43,6.86,6.86,0,0,1,4.22-1.45c4.17,0,7.92,3.82,7.92,9.18s-3.75,9.18-7.92,9.18A6.86,6.86,0,0,1,728.23,91a6.37,6.37,0,0,1-1.36-1.44h-.18v2.52h-4.86Zm13.68,16.37A4.5,4.5,0,1,0,731,88,4.5,4.5,0,0,0,735.51,83.27Z"/><path class="cls-1" d="M753,89.93h-.17a7.28,7.28,0,0,1-1.34,1.26,6.19,6.19,0,0,1-3.89,1.26c-3.23,0-5.39-2.16-5.39-5s1.94-5.07,5.21-5.65l5.58-1a2.81,2.81,0,0,0-3.06-2.34,4.61,4.61,0,0,0-2.91,1,5.09,5.09,0,0,0-1,1l-2.88-2.88a9.48,9.48,0,0,1,7.2-3.42c4.49,0,7.55,3.1,7.55,7v11H753Zm0-5.76-4,.72c-1.26.26-2,.9-2,1.8,0,1.12.72,1.8,2.16,1.8a3.73,3.73,0,0,0,3.77-4Z"/><path class="cls-1" d="M761.61,74.46h4.85V77h.18A8.26,8.26,0,0,1,768,75.54a6,6,0,0,1,3.89-1.45c3.59,0,6.47,2.88,6.47,7.38V92.09h-4.86v-9.9c0-2.16-1.22-3.42-3.24-3.42a3.74,3.74,0,0,0-3.78,4v9.36h-4.85Z"/><path class="cls-1" d="M798,89.57A8.9,8.9,0,0,1,796,91a11.44,11.44,0,0,1-5.62,1.44,9.18,9.18,0,1,1-.18-18.36A8.83,8.83,0,0,1,799,82.91c0,.69-.07,1.16-.1,1.55l-.08.61H786.08a4.53,4.53,0,0,0,4.68,3.06,6.23,6.23,0,0,0,3.5-1,4.64,4.64,0,0,0,1.18-1Zm-4-8.1a4.09,4.09,0,0,0-7.92,0Z"/></svg>