<svg id="Layer_2" data-name="Layer 2" xmlns="http://www.w3.org/2000/svg" viewBox="0 0 969 250"><defs><style>.cls-1{fill:#fff;}.cls-2{fill:#ff3008;}</style></defs><path class="cls-1" d="M258.91,122.53h-1.8v-2.27h1.8v-1.69c0-2.52,1.3-3.84,3.6-3.84a4.22,4.22,0,0,1,1.3.2,3.22,3.22,0,0,0,.5.16v2.28l-.38-.16a2.66,2.66,0,0,0-.94-.2c-1.13,0-1.68.6-1.68,1.8v1.45h2.76v2.27h-2.76v9.25h-2.4Z"/><path class="cls-1" d="M271.15,120a6,6,0,1,1-6,6A5.94,5.94,0,0,1,271.15,120Zm3.6,6a3.6,3.6,0,1,0-3.6,3.73A3.55,3.55,0,0,0,274.75,126Z"/><path class="cls-1" d="M279.19,120.26h2.4v1.55a6.18,6.18,0,0,1,.89-.88,4.11,4.11,0,0,1,2.59-.92h.6v2.52l-.31,0a3.69,3.69,0,0,0-.65-.07,3.28,3.28,0,0,0-3.12,3.47v5.89h-2.4Z"/><path class="cls-1" d="M290,134.18a3.22,3.22,0,0,0,.41.19,3,3,0,0,0,1,.17,2.18,2.18,0,0,0,2-1.56l.48-1.2-4.68-11.52h2.64l3.24,8.52,3.24-8.52H301l-5,12.84c-1,2.42-2.28,3.72-4.2,3.72a4.62,4.62,0,0,1-1.29-.17l-.51-.19Z"/><path class="cls-1" d="M307.63,120a6,6,0,1,1-6,6A5.94,5.94,0,0,1,307.63,120Zm3.6,6a3.6,3.6,0,1,0-3.6,3.73A3.55,3.55,0,0,0,311.23,126Z"/><path class="cls-1" d="M315.67,120.26h2.4V127a2.55,2.55,0,0,0,2.64,2.77,3.06,3.06,0,0,0,3.12-3.24v-6.24h2.4v11.52h-2.4V130.1a4.85,4.85,0,0,1-.91,1,4.17,4.17,0,0,1-2.69,1c-2.64,0-4.56-1.9-4.56-5.05Z"/><path class="cls-1" d="M340.15,130.1a4.34,4.34,0,0,1-.91,1,4.61,4.61,0,0,1-2.81,1,3.55,3.55,0,0,1-3.84-3.36c0-1.92,1.32-3.24,3.36-3.61l4.2-.71a2.2,2.2,0,0,0-2.4-2.16,3.69,3.69,0,0,0-2.18.79,4,4,0,0,0-.82.76l-1.56-1.55a5.21,5.21,0,0,1,1.15-1.09,5.73,5.73,0,0,1,3.41-1.08,4.45,4.45,0,0,1,4.8,4.45v7.32h-2.4Zm0-3.84-3.36.59c-1.22.22-1.8.82-1.8,1.57s.7,1.56,1.92,1.56a3.25,3.25,0,0,0,3.24-3.36Z"/><path class="cls-1" d="M345.31,120.26h2.4v1.67a4.39,4.39,0,0,1,3.6-1.92c2.64,0,4.56,1.9,4.56,5v6.73h-2.4v-6.73a2.53,2.53,0,0,0-2.64-2.75,3.05,3.05,0,0,0-3.12,3.24v6.24h-2.4Z"/><path class="cls-1" d="M367.27,130.1a4,4,0,0,1-.93,1,5,5,0,0,1-3,1c-2.88,0-5.4-2.52-5.4-6s2.52-6,5.4-6a5,5,0,0,1,3,1,4,4,0,0,1,.93,1v-7h2.4v16.81h-2.4Zm0-4.09a3.49,3.49,0,1,0-3.48,3.73A3.52,3.52,0,0,0,367.27,126Z"/><path class="cls-1" d="M377.59,127.7a4.43,4.43,0,0,0,1,1,5.1,5.1,0,0,0,3.07,1c2.18,0,3.36-1.2,3.36-2.77s-1.18-2.63-3.36-2.63h-1.8v-2.53h1.8c1.82,0,2.76-.93,2.76-2.28s-.94-2.28-2.76-2.28A4.9,4.9,0,0,0,379,118a5.51,5.51,0,0,0-.94.84l-1.8-1.8a8.2,8.2,0,0,1,1.39-1.12,7.48,7.48,0,0,1,4-1.16c3.36,0,5.4,2,5.4,4.44a3.73,3.73,0,0,1-1.27,2.91,4.55,4.55,0,0,1-1.25.81,5.92,5.92,0,0,1,1.56.87,4.08,4.08,0,0,1,1.56,3.21c0,2.79-2.28,5.05-6,5.05a7.8,7.8,0,0,1-4.42-1.25,6.42,6.42,0,0,1-1.46-1.27Z"/><path class="cls-1" d="M394.39,120.26h2.4v1.67a3.7,3.7,0,0,1,.77-1,3.8,3.8,0,0,1,2.59-1,4.23,4.23,0,0,1,2.74,1,4.89,4.89,0,0,1,.86,1,3.83,3.83,0,0,1,.89-1,5,5,0,0,1,3.07-1c2.28,0,4.2,1.92,4.2,4.92v6.85h-2.4v-6.85a2.37,2.37,0,0,0-2.4-2.63,2.82,2.82,0,0,0-2.76,3.12v6.36H402v-6.85a2.37,2.37,0,0,0-2.4-2.63,2.82,2.82,0,0,0-2.76,3.12v6.36h-2.4Z"/><path class="cls-1" d="M421.39,130.1a4.34,4.34,0,0,1-.91,1,4.61,4.61,0,0,1-2.81,1,3.55,3.55,0,0,1-3.84-3.36c0-1.92,1.32-3.24,3.36-3.61l4.2-.71a2.2,2.2,0,0,0-2.4-2.16,3.66,3.66,0,0,0-2.18.79,4,4,0,0,0-.82.76l-1.56-1.55a5.21,5.21,0,0,1,1.15-1.09A5.73,5.73,0,0,1,419,120a4.45,4.45,0,0,1,4.8,4.45v7.32h-2.4Zm0-3.84-3.36.59c-1.22.22-1.8.82-1.8,1.57s.7,1.56,1.92,1.56a3.25,3.25,0,0,0,3.24-3.36Z"/><path class="cls-1" d="M427.51,122.53h-2.16v-2.27h1.32c.74,0,1.08-.37,1.08-1.33v-2.52h2.16v3.85h2.64v2.27h-2.64v5.4c0,1.21.55,1.81,1.68,1.81a2.92,2.92,0,0,0,.94-.17l.38-.19v2.28l-.5.19a4.76,4.76,0,0,1-1.3.17c-2.3,0-3.6-1.32-3.6-3.84Z"/><path class="cls-1" d="M445.15,129.86a5,5,0,0,1-1.2,1.08,6.55,6.55,0,0,1-3.72,1.08,6,6,0,0,1-.12-12,5.47,5.47,0,0,1,5.64,5.65,8,8,0,0,1-.07.86l-.05.33h-8.88a3.54,3.54,0,0,0,3.6,2.89,4.48,4.48,0,0,0,2.45-.77,4.27,4.27,0,0,0,.91-.79Zm-1.92-5.05a3.09,3.09,0,0,0-3.12-2.63,3.35,3.35,0,0,0-3.36,2.63Z"/><path class="cls-1" d="M448.27,128.3a4,4,0,0,0,3,1.56c1.34,0,2-.7,2-1.44,0-1.92-6.12-.94-6.12-5,0-1.81,1.58-3.37,4.2-3.37a6.05,6.05,0,0,1,3.07.8,3.66,3.66,0,0,1,1,.76l-1.56,1.57a4,4,0,0,0-.67-.49,3.73,3.73,0,0,0-1.85-.47c-1.22,0-1.8.59-1.8,1.2,0,1.92,6.12,1,6.12,5,0,1.92-1.66,3.6-4.44,3.6a5.7,5.7,0,0,1-3.41-1.08,5.18,5.18,0,0,1-1.15-1.08Z"/><path class="cls-2" d="M485.46,124.82h3.9v-3.91H492v3.91h3.91v2.87H492v3.91h-2.65v-3.91h-3.9Z"/><path class="cls-2" d="M506.62,128.5a4.36,4.36,0,0,0,1,.87,5,5,0,0,0,2.81.85c1.84,0,2.64-.8,2.64-1.84,0-2.73-8-1.52-8-7.13,0-2.53,2.19-4.71,5.87-4.71a7.76,7.76,0,0,1,4,1.1,7.44,7.44,0,0,1,1.35,1.08L514,121a5.92,5.92,0,0,0-.8-.69,4,4,0,0,0-2.19-.69c-1.74,0-2.41.69-2.41,1.61,0,2.74,8.05,1.52,8.05,7.13,0,2.65-2.3,5-6.1,5a8.7,8.7,0,0,1-4.66-1.27,6.08,6.08,0,0,1-1.54-1.26Z"/><path class="cls-2" d="M528.23,116.54a8.4,8.4,0,1,1-8.73,8.39A8.5,8.5,0,0,1,528.23,116.54Zm0,13.57a5.18,5.18,0,1,0-5.17-5.18A5.16,5.16,0,0,0,528.23,130.11Z"/><path class="cls-2" d="M547.21,116.88h3.1l5.52,6.9,5.52-6.9h3.11V133H561V122.4l-5.18,6.44-5.17-6.44V133h-3.45Z"/><path class="cls-2" d="M569.63,116.88h3.45v9.43a3.57,3.57,0,1,0,7.13,0v-9.43h3.45v9.43a7,7,0,1,1-14,0Z"/><path class="cls-2" d="M603.44,130.11a9.47,9.47,0,0,1-1.72,1.61,9,9,0,0,1-5.18,1.61,8.4,8.4,0,1,1,0-16.79,8.65,8.65,0,0,1,5.08,1.61,8.76,8.76,0,0,1,1.71,1.61l-2.3,2.3a6.76,6.76,0,0,0-1.18-1.15,5.36,5.36,0,0,0-3.31-1.15,5.18,5.18,0,0,0,0,10.35,5.87,5.87,0,0,0,4.6-2.3Z"/><path class="cls-2" d="M607.12,116.88h3.45v6.33h6.9v-6.33h3.45V133h-3.45v-6.55h-6.9V133h-3.45Z"/><path class="cls-2" d="M632.2,116.88h3.1l5.52,6.9,5.52-6.9h3.1V133H646V122.4l-5.17,6.44-5.18-6.44V133H632.2Z"/><path class="cls-2" d="M662.44,116.54a8.4,8.4,0,1,1-8.74,8.39A8.5,8.5,0,0,1,662.44,116.54Zm0,13.57a5.18,5.18,0,1,0-5.18-5.18A5.15,5.15,0,0,0,662.44,130.11Z"/><path class="cls-2" d="M675.43,116.88h7.13c3.45,0,5.64,2.19,5.64,5.41a5.14,5.14,0,0,1-1.38,3.75,4.18,4.18,0,0,1-1.38,1l3.33,6H685l-2.88-5.29h-3.22V133h-3.45Zm7,7.59a2.19,2.19,0,0,0,0-4.37h-3.57v4.37Z"/><path class="cls-2" d="M692.8,116.88h12v3.22h-8.51v3.11h6.67v3.1h-6.67v3.45H705V133H692.8Z"/><path class="cls-2" d="M709,116.88h3.68L712.12,128h-2.53Zm1.84,12.65a1.84,1.84,0,1,1-1.84,1.84A1.82,1.82,0,0,1,710.85,129.53Z"/></svg>