<svg width="98" height="30" viewBox="0 0 98 30" fill="none" xmlns="http://www.w3.org/2000/svg">
<rect width="98" height="30" fill="white"/>
<path d="M19.554 18.3827C19.82 18.3827 20.0435 18.3508 20.2244 18.2869C20.4053 18.2231 20.5489 18.1379 20.6554 18.0315C20.7653 17.9251 20.8433 17.801 20.8895 17.6591C20.9391 17.5172 20.9639 17.3665 20.9639 17.2068C20.9639 17.0401 20.9373 16.8912 20.8841 16.7599C20.8309 16.6251 20.7476 16.5116 20.6341 16.4194C20.5206 16.3236 20.3734 16.2509 20.1925 16.2013C20.0151 16.1516 19.8005 16.1268 19.5487 16.1268H18.1068V18.3827H19.554ZM18.1068 12.9132V15.1372H19.2454C19.7349 15.1372 20.1038 15.0485 20.3521 14.8711C20.6039 14.6938 20.7298 14.4118 20.7298 14.0252C20.7298 13.6244 20.6163 13.3388 20.3893 13.1686C20.1623 12.9983 19.8076 12.9132 19.3252 12.9132H18.1068ZM19.3252 11.8065C19.8289 11.8065 20.2599 11.8544 20.6181 11.9502C20.9764 12.0459 21.269 12.1825 21.496 12.3598C21.7266 12.5372 21.895 12.7518 22.0014 13.0036C22.1079 13.2555 22.1611 13.5392 22.1611 13.8549C22.1611 14.0358 22.1345 14.2096 22.0813 14.3763C22.028 14.5395 21.9447 14.6938 21.8312 14.8392C21.7212 14.9811 21.5794 15.1106 21.4055 15.2276C21.2353 15.3447 21.0313 15.444 20.7937 15.5256C21.8507 15.7632 22.3792 16.3343 22.3792 17.2388C22.3792 17.5651 22.3171 17.8666 22.193 18.1433C22.0688 18.4199 21.8879 18.6594 21.6503 18.8615C21.4126 19.0602 21.12 19.2162 20.7724 19.3297C20.4248 19.4432 20.0275 19.5 19.5806 19.5H16.6756V11.8065H19.3252ZM31.6551 15.6533C31.6551 16.2172 31.5611 16.7404 31.3731 17.2228C31.1886 17.7017 30.9261 18.1167 30.5856 18.4678C30.2451 18.819 29.8354 19.0939 29.3566 19.2925C28.8777 19.4876 28.3457 19.5851 27.7604 19.5851C27.1787 19.5851 26.6484 19.4876 26.1696 19.2925C25.6907 19.0939 25.2793 18.819 24.9352 18.4678C24.5947 18.1167 24.3305 17.7017 24.1425 17.2228C23.9545 16.7404 23.8605 16.2172 23.8605 15.6533C23.8605 15.0893 23.9545 14.5679 24.1425 14.089C24.3305 13.6066 24.5947 13.1898 24.9352 12.8387C25.2793 12.4875 25.6907 12.2144 26.1696 12.0193C26.6484 11.8207 27.1787 11.7214 27.7604 11.7214C28.1506 11.7214 28.5177 11.7675 28.8618 11.8597C29.2058 11.9484 29.5215 12.0761 29.8088 12.2428C30.0961 12.406 30.3533 12.6064 30.5803 12.844C30.8109 13.0781 31.006 13.3406 31.1656 13.6314C31.3252 13.9223 31.4458 14.238 31.5274 14.5785C31.6125 14.919 31.6551 15.2773 31.6551 15.6533ZM30.1919 15.6533C30.1919 15.2312 30.1352 14.8534 30.0217 14.52C29.9081 14.183 29.7468 13.8975 29.5375 13.6634C29.3282 13.4293 29.0728 13.2501 28.7713 13.126C28.4734 13.0019 28.1364 12.9398 27.7604 12.9398C27.3844 12.9398 27.0457 13.0019 26.7442 13.126C26.4463 13.2501 26.1909 13.4293 25.978 13.6634C25.7688 13.8975 25.6074 14.183 25.4939 14.52C25.3804 14.8534 25.3236 15.2312 25.3236 15.6533C25.3236 16.0753 25.3804 16.4549 25.4939 16.7918C25.6074 17.1253 25.7688 17.409 25.978 17.6431C26.1909 17.8737 26.4463 18.051 26.7442 18.1752C27.0457 18.2993 27.3844 18.3614 27.7604 18.3614C28.1364 18.3614 28.4734 18.2993 28.7713 18.1752C29.0728 18.051 29.3282 17.8737 29.5375 17.6431C29.7468 17.409 29.9081 17.1253 30.0217 16.7918C30.1352 16.4549 30.1919 16.0753 30.1919 15.6533ZM40.8874 15.6533C40.8874 16.2172 40.7934 16.7404 40.6054 17.2228C40.421 17.7017 40.1585 18.1167 39.818 18.4678C39.4775 18.819 39.0678 19.0939 38.589 19.2925C38.1101 19.4876 37.5781 19.5851 36.9928 19.5851C36.4111 19.5851 35.8808 19.4876 35.402 19.2925C34.9231 19.0939 34.5117 18.819 34.1676 18.4678C33.8271 18.1167 33.5628 17.7017 33.3748 17.2228C33.1868 16.7404 33.0928 16.2172 33.0928 15.6533C33.0928 15.0893 33.1868 14.5679 33.3748 14.089C33.5628 13.6066 33.8271 13.1898 34.1676 12.8387C34.5117 12.4875 34.9231 12.2144 35.402 12.0193C35.8808 11.8207 36.4111 11.7214 36.9928 11.7214C37.383 11.7214 37.7501 11.7675 38.0942 11.8597C38.4382 11.9484 38.7539 12.0761 39.0412 12.2428C39.3285 12.406 39.5857 12.6064 39.8127 12.844C40.0432 13.0781 40.2383 13.3406 40.3979 13.6314C40.5576 13.9223 40.6782 14.238 40.7597 14.5785C40.8449 14.919 40.8874 15.2773 40.8874 15.6533ZM39.4243 15.6533C39.4243 15.2312 39.3675 14.8534 39.254 14.52C39.1405 14.183 38.9791 13.8975 38.7699 13.6634C38.5606 13.4293 38.3052 13.2501 38.0037 13.126C37.7058 13.0019 37.3688 12.9398 36.9928 12.9398C36.6168 12.9398 36.2781 13.0019 35.9766 13.126C35.6786 13.2501 35.4232 13.4293 35.2104 13.6634C35.0011 13.8975 34.8398 14.183 34.7263 14.52C34.6127 14.8534 34.556 15.2312 34.556 15.6533C34.556 16.0753 34.6127 16.4549 34.7263 16.7918C34.8398 17.1253 35.0011 17.409 35.2104 17.6431C35.4232 17.8737 35.6786 18.051 35.9766 18.1752C36.2781 18.2993 36.6168 18.3614 36.9928 18.3614C37.3688 18.3614 37.7058 18.2993 38.0037 18.1752C38.3052 18.051 38.5606 17.8737 38.7699 17.6431C38.9791 17.409 39.1405 17.1253 39.254 16.7918C39.3675 16.4549 39.4243 16.0753 39.4243 15.6533ZM44.214 15.0308H44.5492C44.684 15.0308 44.7957 15.013 44.8844 14.9775C44.9731 14.9385 45.0493 14.8782 45.1132 14.7966L47.2361 12.1098C47.3248 11.9963 47.417 11.9182 47.5127 11.8757C47.6121 11.8296 47.7362 11.8065 47.8852 11.8065H49.1195L46.5284 15.0041C46.3759 15.1992 46.2181 15.3376 46.0549 15.4191C46.172 15.4617 46.2766 15.522 46.3688 15.6C46.4646 15.6745 46.555 15.7739 46.6402 15.898L49.3111 19.5H48.0501C47.8799 19.5 47.7522 19.4769 47.667 19.4308C47.5855 19.3812 47.5163 19.3102 47.4595 19.218L45.2834 16.3768C45.216 16.2811 45.138 16.2137 45.0493 16.1747C44.9607 16.1356 44.833 16.1161 44.6663 16.1161H44.214V19.5H42.7828V11.8065H44.214V15.0308ZM60.4279 11.8065V19.5H59.6937C59.5802 19.5 59.4844 19.4823 59.4064 19.4468C59.3319 19.4078 59.2592 19.3439 59.1882 19.2553L55.1712 14.1263C55.1925 14.3604 55.2032 14.5767 55.2032 14.7754V19.5H53.9422V11.8065H54.6924C54.7527 11.8065 54.8041 11.8101 54.8467 11.8171C54.8928 11.8207 54.9318 11.8313 54.9637 11.8491C54.9992 11.8633 55.0329 11.8863 55.0648 11.9182C55.0968 11.9466 55.1322 11.9856 55.1712 12.0353L59.2042 17.1856C59.1936 17.0614 59.1847 16.939 59.1776 16.8185C59.1705 16.6979 59.167 16.5861 59.167 16.4833V11.8065H60.4279ZM70.1167 15.6533C70.1167 16.2172 70.0227 16.7404 69.8347 17.2228C69.6503 17.7017 69.3878 18.1167 69.0473 18.4678C68.7068 18.819 68.2971 19.0939 67.8182 19.2925C67.3394 19.4876 66.8073 19.5851 66.2221 19.5851C65.6404 19.5851 65.1101 19.4876 64.6312 19.2925C64.1524 19.0939 63.7409 18.819 63.3969 18.4678C63.0564 18.1167 62.7921 17.7017 62.6041 17.2228C62.4161 16.7404 62.3221 16.2172 62.3221 15.6533C62.3221 15.0893 62.4161 14.5679 62.6041 14.089C62.7921 13.6066 63.0564 13.1898 63.3969 12.8387C63.7409 12.4875 64.1524 12.2144 64.6312 12.0193C65.1101 11.8207 65.6404 11.7214 66.2221 11.7214C66.6122 11.7214 66.9794 11.7675 67.3234 11.8597C67.6675 11.9484 67.9832 12.0761 68.2705 12.2428C68.5578 12.406 68.8149 12.6064 69.042 12.844C69.2725 13.0781 69.4676 13.3406 69.6272 13.6314C69.7868 13.9223 69.9074 14.238 69.989 14.5785C70.0741 14.919 70.1167 15.2773 70.1167 15.6533ZM68.6536 15.6533C68.6536 15.2312 68.5968 14.8534 68.4833 14.52C68.3698 14.183 68.2084 13.8975 67.9991 13.6634C67.7899 13.4293 67.5345 13.2501 67.233 13.126C66.935 13.0019 66.5981 12.9398 66.2221 12.9398C65.8461 12.9398 65.5073 13.0019 65.2059 13.126C64.9079 13.2501 64.6525 13.4293 64.4397 13.6634C64.2304 13.8975 64.069 14.183 63.9555 14.52C63.842 14.8534 63.7853 15.2312 63.7853 15.6533C63.7853 16.0753 63.842 16.4549 63.9555 16.7918C64.069 17.1253 64.2304 17.409 64.4397 17.6431C64.6525 17.8737 64.9079 18.051 65.2059 18.1752C65.5073 18.2993 65.8461 18.3614 66.2221 18.3614C66.5981 18.3614 66.935 18.2993 67.233 18.1752C67.5345 18.051 67.7899 17.8737 67.9991 17.6431C68.2084 17.409 68.3698 17.1253 68.4833 16.7918C68.5968 16.4549 68.6536 16.0753 68.6536 15.6533ZM82.0929 11.8065L79.704 19.5H78.4111L76.7298 14.2433C76.6837 14.1156 76.6411 13.9595 76.6021 13.7751C76.5808 13.8638 76.5595 13.9471 76.5383 14.0252C76.517 14.1032 76.4939 14.1759 76.4691 14.2433L74.7718 19.5H73.4736L71.09 11.8065H72.2871C72.4113 11.8065 72.5142 11.8367 72.5957 11.897C72.6809 11.9537 72.7376 12.0317 72.766 12.1311L74.0748 16.7333C74.1032 16.8468 74.1298 16.971 74.1547 17.1058C74.183 17.237 74.2114 17.3753 74.2398 17.5208C74.2682 17.3718 74.2983 17.2317 74.3302 17.1004C74.3657 16.9692 74.4029 16.8468 74.442 16.7333L75.953 12.1311C75.9814 12.0495 76.0364 11.975 76.1179 11.9076C76.2031 11.8402 76.3059 11.8065 76.4265 11.8065H76.8468C76.971 11.8065 77.0721 11.8367 77.1501 11.897C77.2282 11.9573 77.2867 12.0353 77.3257 12.1311L78.8314 16.7333C78.9059 16.9532 78.9733 17.2068 79.0336 17.4942C79.0797 17.2139 79.1311 16.9603 79.1879 16.7333L80.4967 12.1311C80.518 12.0424 80.5712 11.9661 80.6564 11.9023C80.745 11.8384 80.8497 11.8065 80.9703 11.8065H82.0929Z" fill="#344D6C"/>
</svg>
