<svg id="Layer_1" data-name="Layer 1" xmlns="http://www.w3.org/2000/svg" xmlns:xlink="http://www.w3.org/1999/xlink" viewBox="0 0 970 250"><defs><style>.cls-1{fill:none;}.cls-2{clip-path:url(#clip-path);}.cls-3{fill:#009970;}</style><clipPath id="clip-path"><rect class="cls-1" width="970" height="250"/></clipPath></defs><g class="cls-2"><path class="cls-3" d="M29.81,56.71h3.1V91.22H53.17v2.86H29.81Z"/><path class="cls-3" d="M84.27,89.27a14.92,14.92,0,0,1-11.81,5.35,15.09,15.09,0,0,1-11.8-5.35C57.55,85.68,56,81.05,56,75.39s1.58-10.28,4.69-13.87a15.09,15.09,0,0,1,11.8-5.35,14.92,14.92,0,0,1,11.81,5.35Q89,66.91,89,75.39T84.27,89.27ZM82.14,63.65a12,12,0,0,0-9.68-4.56,11.82,11.82,0,0,0-9.61,4.56c-2.5,3-3.71,6.94-3.71,11.74s1.21,8.71,3.71,11.75a11.82,11.82,0,0,0,9.61,4.56,12,12,0,0,0,9.68-4.56c2.49-3,3.71-6.94,3.71-11.75S84.63,66.69,82.14,63.65Z"/><path class="cls-3" d="M122.24,89.27a14.92,14.92,0,0,1-11.8,5.35,15.09,15.09,0,0,1-11.81-5.35c-3.1-3.59-4.69-8.22-4.69-13.88s1.59-10.28,4.69-13.87a15.09,15.09,0,0,1,11.81-5.35,14.92,14.92,0,0,1,11.8,5.35Q127,66.91,127,75.39T122.24,89.27Zm-2.13-25.62a12.48,12.48,0,0,0-19.29,0c-2.49,3-3.71,6.94-3.71,11.74s1.22,8.71,3.71,11.75a12.48,12.48,0,0,0,19.29,0c2.5-3,3.71-6.94,3.71-11.75S122.61,66.69,120.11,63.65Z"/><path class="cls-3" d="M137.21,73.75l18.86-17h4.08l-20,17.95,20.45,19.42h-4.08L137.21,75.94V94.08h-3.1V56.71h3.1Z"/><path class="cls-3" d="M169.71,94.08H166.6V56.71h3.11Z"/><path class="cls-3" d="M207.19,94.08h-2.07L182.3,61.64V94.08h-3V56.71h3l21.91,31.16V56.71h3Z"/><path class="cls-3" d="M241.33,88.42V77.77H231.9V75.15h12.29V89.39c-3.47,4.08-8.4,5.23-12.84,5.23a15.86,15.86,0,0,1-12.11-5.17C216,86,214.37,81.3,214.37,75.39s1.64-10.58,5-14a16.39,16.39,0,0,1,12.35-5.17,17.36,17.36,0,0,1,11,3.59v3.46a15.75,15.75,0,0,0-11-4.13,13.27,13.27,0,0,0-10.22,4.38c-2.62,2.92-4,6.87-4,11.92s1.28,9,3.9,12a12.75,12.75,0,0,0,10,4.38C235.49,91.76,238.47,90.85,241.33,88.42Z"/><path class="cls-3" d="M266,94.08V56.71H287.7v2.86H269.14V73.81h17.58v2.8H269.14V94.08Z"/><path class="cls-3" d="M320.68,89.27a14.94,14.94,0,0,1-11.81,5.35,15.09,15.09,0,0,1-11.8-5.35c-3.11-3.59-4.69-8.22-4.69-13.88s1.58-10.28,4.69-13.87a15.09,15.09,0,0,1,11.8-5.35,14.94,14.94,0,0,1,11.81,5.35q4.74,5.38,4.74,13.87T320.68,89.27Zm-2.13-25.62a12,12,0,0,0-9.68-4.56,11.82,11.82,0,0,0-9.61,4.56c-2.5,3-3.72,6.94-3.72,11.74s1.22,8.71,3.72,11.75a11.82,11.82,0,0,0,9.61,4.56,12,12,0,0,0,9.68-4.56c2.49-3,3.71-6.94,3.71-11.75S321,66.69,318.55,63.65Z"/><path class="cls-3" d="M332.54,56.71h12.9c7.31,0,12.05,3.65,12.05,10.47,0,6-3.71,9.49-9.55,10.22l11.32,16.68h-3.59L344.53,77.59h-8.88V94.08h-3.11Zm3.11,18.14h9.67c5.66,0,9.13-2.86,9.13-7.67s-3.47-7.67-9.13-7.67h-9.67Z"/><path class="cls-3" d="M396.56,85.5,382.44,62.62V94.08h-3V56.71h2.74l14.54,23.74,14.6-23.74h2.56V94.08h-3V62.62L396.74,85.5Z"/><path class="cls-3" d="M449.32,89.27a14.94,14.94,0,0,1-11.81,5.35,15.09,15.09,0,0,1-11.8-5.35C422.6,85.68,421,81.05,421,75.39s1.58-10.28,4.69-13.87a15.09,15.09,0,0,1,11.8-5.35,14.94,14.94,0,0,1,11.81,5.35q4.74,5.38,4.74,13.87T449.32,89.27Zm-2.13-25.62a12,12,0,0,0-9.68-4.56,11.82,11.82,0,0,0-9.61,4.56c-2.5,3-3.72,6.94-3.72,11.74s1.22,8.71,3.72,11.75a11.82,11.82,0,0,0,9.61,4.56,12,12,0,0,0,9.68-4.56c2.49-3,3.71-6.94,3.71-11.75S449.68,66.69,447.19,63.65Z"/><path class="cls-3" d="M461.18,56.71h12.9c7.3,0,12.05,3.65,12.05,10.47,0,6-3.71,9.49-9.55,10.22L487.9,94.08h-3.59L473.17,77.59h-8.88V94.08h-3.11Zm3.11,18.14H474c5.66,0,9.13-2.86,9.13-7.67s-3.47-7.67-9.13-7.67h-9.67Z"/><path class="cls-3" d="M517.78,56.71v2.86H497.63V73.39h18.26v2.86H497.63v15h20.15v2.86H494.59V56.71Z"/><path class="cls-3" d="M54.57,136.35c0,6.57-4.62,10.28-12.17,10.28H29.81V109.27H41.25c7.6,0,11.92,3.53,11.92,9.67A8.16,8.16,0,0,1,47,127.28,9,9,0,0,1,54.57,136.35ZM41.25,126.06c5.66,0,8.88-2.37,8.88-7s-3.22-7-8.88-7h-8.4v14Zm-8.4,17.77h9.74c5.84,0,8.88-3,8.88-7.54s-3-7.55-8.88-7.55H32.85Z"/><path class="cls-3" d="M82.69,134.34H66.14l-4.81,12.29H58.22L73,109.27h2.86l14.79,37.36h-3.1Zm-15.46-2.8H81.59l-7.18-18.26Z"/><path class="cls-3" d="M96.87,109.27H100v34.5h20.26v2.86H96.87Z"/><path class="cls-3" d="M148.53,134.34H132l-4.81,12.29h-3.1l14.78-37.36h2.86l14.79,37.36h-3.1Zm-15.46-2.8h14.36l-7.18-18.26Z"/><path class="cls-3" d="M190.58,146.63h-2.07L165.69,114.2v32.43h-3V109.27h3l21.91,31.15V109.27h3Z"/><path class="cls-3" d="M202.69,113.89a17.06,17.06,0,0,1,22.21-2v3.41a14.53,14.53,0,0,0-10.17-3.71,12.78,12.78,0,0,0-9.91,4.38c-2.62,2.92-3.9,6.88-3.9,11.93s1.28,9,3.9,11.93a12.78,12.78,0,0,0,9.91,4.38,14.6,14.6,0,0,0,10.17-3.78V144a15.68,15.68,0,0,1-10.23,3.23,15.91,15.91,0,0,1-12-5.17q-4.94-5.2-4.93-14.06T202.69,113.89Z"/><path class="cls-3" d="M255.93,109.27v2.86H235.79v13.81H254v2.86H235.79v15h20.14v2.86H232.75V109.27Z"/><path class="cls-3" d="M277.59,146.63V109.27h21.67v2.86H280.7v14.24h17.58v2.8H280.7v17.46Z"/><path class="cls-3" d="M306.38,109.27h12.9c7.3,0,12.05,3.65,12.05,10.46,0,6-3.72,9.5-9.56,10.23l11.32,16.67H329.5l-11.14-16.49h-8.88v16.49h-3.1Zm3.1,18.13h9.68c5.65,0,9.12-2.86,9.12-7.67s-3.47-7.66-9.12-7.66h-9.68Z"/><path class="cls-3" d="M365.4,141.82a14.93,14.93,0,0,1-11.8,5.36,15.12,15.12,0,0,1-11.81-5.36c-3.1-3.59-4.68-8.21-4.68-13.87s1.58-10.28,4.68-13.88a15.11,15.11,0,0,1,11.81-5.35,14.92,14.92,0,0,1,11.8,5.35q4.75,5.4,4.75,13.88T365.4,141.82Zm-2.13-25.62a12.48,12.48,0,0,0-19.29,0c-2.49,3-3.71,6.94-3.71,11.75s1.22,8.7,3.71,11.74a12.46,12.46,0,0,0,19.29,0c2.5-3,3.72-6.93,3.72-11.74S365.77,119.25,363.27,116.2Z"/><path class="cls-3" d="M394.43,138.05l-14.12-22.88v31.46h-3V109.27H380L394.55,133l14.6-23.73h2.56v37.36h-3V115.17l-14.06,22.88Z"/><path class="cls-3" d="M53.11,161.82h3.35L42.83,183.24v15.94h-3.1V183.24L26.16,161.82h3.4l11.81,18.56Z"/><path class="cls-3" d="M87,194.38a14.94,14.94,0,0,1-11.81,5.35,15.09,15.09,0,0,1-11.8-5.35c-3.11-3.59-4.69-8.22-4.69-13.88s1.58-10.28,4.69-13.87a15.1,15.1,0,0,1,11.8-5.36A15,15,0,0,1,87,166.63q4.74,5.38,4.74,13.87T87,194.38Zm-2.13-25.62a12,12,0,0,0-9.68-4.57,11.82,11.82,0,0,0-9.61,4.57c-2.5,3-3.72,6.94-3.72,11.74s1.22,8.7,3.72,11.75a11.82,11.82,0,0,0,9.61,4.56,12,12,0,0,0,9.68-4.56c2.49-3.05,3.71-6.94,3.71-11.75S87.31,171.8,84.82,168.76Z"/><path class="cls-3" d="M102.22,196c-2.74-2.56-4.14-6.39-4.14-11.5V161.82h3.11V184c0,8.7,4.8,12.84,11.19,12.84a10.87,10.87,0,0,0,8-3.16c2.12-2.13,3.22-5.36,3.22-9.68V161.82h3.1v22.64q0,7.66-4.2,11.5a15.58,15.58,0,0,1-20.32,0Z"/><path class="cls-3" d="M135.63,161.82h12.9c7.3,0,12.05,3.65,12.05,10.47,0,6-3.71,9.49-9.56,10.22l11.32,16.67h-3.59l-11.13-16.49h-8.89v16.49h-3.1Zm3.1,18.14h9.68c5.66,0,9.12-2.87,9.12-7.67s-3.46-7.67-9.12-7.67h-9.68Z"/><path class="cls-3" d="M185.59,199.18h-3.11V161.82h3.11Z"/><path class="cls-3" d="M223.07,199.18H221l-22.82-32.43v32.43h-3V161.82h3L220.09,193V161.82h3Z"/><path class="cls-3" d="M244,199.18l-14.72-37.36h3.22l12.9,33.1,13-33.1h3.16L246.8,199.18Z"/><path class="cls-3" d="M291,161.82v2.86H270.84v13.81H289.1v2.86H270.84v15H291v2.86H267.8V161.82Z"/><path class="cls-3" d="M296.7,192.43a16.24,16.24,0,0,0,11.56,4.44c5.36,0,8.77-2.68,8.77-7,0-3.71-2.13-5.29-6.7-7.24l-5.47-2.31a22.38,22.38,0,0,1-5.54-3.29c-1.71-1.4-2.56-3.46-2.56-6.26a8.14,8.14,0,0,1,3.41-7.12,13.44,13.44,0,0,1,7.91-2.38,18.05,18.05,0,0,1,10.47,3.17v3.47a15.59,15.59,0,0,0-10.41-3.78c-4.62,0-8.34,2.19-8.34,6.58,0,3.65,2.56,5.29,6.52,6.81L312.1,180c5.41,2.37,8,5,8,9.85a8.75,8.75,0,0,1-3.35,7.18,12.93,12.93,0,0,1-8.46,2.74c-4.93,0-9.12-1.58-11.56-3.71Z"/><path class="cls-3" d="M324.45,161.82h30.43v2.86h-13.7v34.5h-3.1v-34.5H324.45Z"/><path class="cls-3" d="M378.73,190.6l-14.12-22.88v31.46h-3V161.82h2.74l14.54,23.73,14.61-23.73H396v37.36h-3V167.72L378.91,190.6Z"/><path class="cls-3" d="M428.81,161.82v2.86H408.67v13.81h18.25v2.86H408.67v15h20.14v2.86H405.63V161.82Z"/><path class="cls-3" d="M464.83,199.18h-2.06L440,166.75v32.43h-3V161.82h3L461.85,193V161.82h3Z"/><path class="cls-3" d="M471.53,161.82H502v2.86H488.26v34.5h-3.1v-34.5H471.53Z"/><path class="cls-3" d="M506.21,192.43a16.27,16.27,0,0,0,11.57,4.44c5.35,0,8.76-2.68,8.76-7,0-3.71-2.13-5.29-6.7-7.24l-5.47-2.31a22.56,22.56,0,0,1-5.54-3.29c-1.7-1.4-2.55-3.46-2.55-6.26a8.14,8.14,0,0,1,3.4-7.12,13.44,13.44,0,0,1,7.91-2.38,18.05,18.05,0,0,1,10.47,3.17v3.47a15.59,15.59,0,0,0-10.41-3.78c-4.62,0-8.33,2.19-8.33,6.58,0,3.65,2.55,5.29,6.51,6.81l5.78,2.44c5.42,2.37,8,5,8,9.85a8.72,8.72,0,0,1-3.35,7.18,12.92,12.92,0,0,1-8.45,2.74c-4.93,0-9.13-1.58-11.57-3.71Z"/><path class="cls-3" d="M550.15,176.61a7.86,7.86,0,0,0,2-5.24c0-4.38-2.74-7.18-7.85-7.18-4.32,0-8,2.62-10.65,5.54v-3.41a14.79,14.79,0,0,1,10.77-5c6.81,0,10.77,4,10.77,10.1a9.21,9.21,0,0,1-2.07,5.91c-1.4,1.76-2.8,3.41-4.26,5-1.95,2.13-2.56,3.47-2.62,5.17h-2.92c.19-2.74,1.22-4.38,3.23-6.75Zm-5.54,18.07a2.36,2.36,0,0,1,2.31,2.37,2.28,2.28,0,1,1-4.56,0A2.35,2.35,0,0,1,544.61,194.68Z"/></g></svg>