<svg id="Layer_1" data-name="Layer 1" xmlns="http://www.w3.org/2000/svg" xmlns:xlink="http://www.w3.org/1999/xlink" viewBox="0 0 970 250"><defs><style>.cls-1{fill:none;}.cls-2{clip-path:url(#clip-path);}.cls-3{clip-path:url(#clip-path-2);}.cls-4{fill:#fff;}</style><clipPath id="clip-path"><rect class="cls-1" x="-990" width="970" height="250"/></clipPath><clipPath id="clip-path-2"><rect class="cls-1" width="970" height="250"/></clipPath></defs><g class="cls-3"><rect x="639.85" y="15" width="81" height="81"/><path class="cls-4" d="M651.7,44.25V28.9h9.8v2.3h-7.2v4.55H661V38H654.3v6.22Z"/><path class="cls-4" d="M666.67,44.25h-2.6V28.9h2.6Z"/><path class="cls-4" d="M682.42,44.25h-2l-7.85-11.17V44.25h-2.5V28.9h2.45l7.4,10.65V28.9h2.5Z"/><path class="cls-4" d="M685.82,28.9H691c4.52,0,7.45,3,7.45,7.68s-2.93,7.67-7.45,7.67h-5.18Zm5.08,13c3.2,0,5-2.08,5-5.35s-1.75-5.38-5-5.38h-2.48V41.93Z"/><path class="cls-4" d="M658,64.5c-4.13,0-7.07-3.37-7.07-7.92s2.94-7.93,7.07-7.93,7.1,3.35,7.1,7.93S662.07,64.5,658,64.5ZM658,51c-2.7,0-4.45,2.35-4.45,5.6s1.75,5.6,4.45,5.6,4.47-2.35,4.47-5.6S660.62,51,658,51Z"/><path class="cls-4" d="M667.37,58.13V48.9H670v9c0,2.93,1.23,4.33,3.55,4.33s3.55-1.4,3.55-4.33v-9h2.6v9.25c0,4.18-2.45,6.35-6.15,6.35S667.37,62.3,667.37,58.13Z"/><path class="cls-4" d="M681.87,48.9h12.8v2.3h-5.1v13H687v-13h-5.1Z"/><path class="cls-4" d="M659,81l-4.77-7.45V84.25H651.7V68.9h2.42l5,8,4.95-8h2.32V84.25h-2.55V73.5L659.12,81Z"/><path class="cls-4" d="M676,84.5c-4.12,0-7.07-3.37-7.07-7.92s2.95-7.93,7.07-7.93,7.1,3.35,7.1,7.93S680.15,84.5,676,84.5ZM676,71c-2.7,0-4.45,2.35-4.45,5.6s1.75,5.6,4.45,5.6,4.48-2.35,4.48-5.6S678.7,71,676,71Z"/><path class="cls-4" d="M685.7,68.9h5.92c3.2,0,5.23,1.65,5.23,4.6a4.19,4.19,0,0,1-3.9,4.43l4.42,6.32h-3L690.17,78H688.3v6.22h-2.6Zm2.6,6.95h3.27c1.73,0,2.7-.92,2.7-2.35s-1-2.35-2.7-2.35H688.3Z"/><path class="cls-4" d="M709.6,68.9v2.3h-7.48v4h6.78v2.28h-6.78v4.4h7.48v2.32h-10V68.9Z"/></g></svg>