<svg id="Layer_1" data-name="Layer 1" xmlns="http://www.w3.org/2000/svg" xmlns:xlink="http://www.w3.org/1999/xlink" viewBox="0 0 970 250"><defs><style>.cls-1{fill:none;}.cls-2{clip-path:url(#clip-path);}.cls-3{clip-path:url(#clip-path-2);}.cls-4{fill:#009870;}.cls-5{fill:#fff;}.cls-6{clip-path:url(#clip-path-4);}</style><clipPath id="clip-path"><rect class="cls-1" x="-990" width="970" height="250"/></clipPath><clipPath id="clip-path-2"><rect class="cls-1" width="970" height="250"/></clipPath><clipPath id="clip-path-4"><rect class="cls-1" x="596" y="110.15" width="124.85" height="124.85"/></clipPath></defs><g class="cls-3"><g class="cls-3"><rect class="cls-4" x="596" y="110.15" width="124.85" height="124.85"/><polygon class="cls-5" points="615.63 173.26 611.33 173.26 611.33 193.81 615.63 193.81 615.63 184.5 623.36 193.81 628.64 193.81 619.77 183.1 628.34 173.26 623.16 173.26 615.63 182.09 615.63 173.26"/><rect class="cls-5" x="630.9" y="178.85" width="4.16" height="14.96"/><g class="cls-6"><path class="cls-5" d="M635.44,174.53a2.48,2.48,0,1,0-2.57,2.37H633a2.4,2.4,0,0,0,2.46-2.35v0"/></g><polygon class="cls-5" points="649.9 178.85 646.71 178.85 644.25 188.38 641.56 178.85 637.4 178.85 641.97 193.81 645.8 193.81 648.25 184.64 650.71 193.81 654.53 193.81 659.11 178.85 655.07 178.85 652.38 188.38 649.9 178.85"/><rect class="cls-5" x="661.43" y="178.85" width="4.16" height="14.96"/><g class="cls-6"><path class="cls-5" d="M666,174.53a2.47,2.47,0,1,0-2.57,2.37h.12a2.4,2.4,0,0,0,2.45-2.35v0"/></g><polygon class="cls-5" points="624.8 197.41 628.35 211.27 631.74 197.41 635.97 197.41 630.61 218.02 626.67 218.02 623.06 204.42 619.42 218.02 615.51 218.02 610.13 197.41 614.46 197.41 617.81 211.27 621.44 197.41 624.8 197.41"/><g class="cls-6"><path class="cls-5" d="M639.5,208.75h5.66a2.6,2.6,0,0,0-2.65-2.75c-1.37,0-2.54.87-3,2.75m-.13,2.72c.33,2.45,2.11,3.46,4.32,3.46a7.23,7.23,0,0,0,4.3-1.31v3.43a8.28,8.28,0,0,1-4.93,1.31c-4.57,0-7.69-3-7.69-7.72s3-8,7-8c4.36,0,6.61,3,6.61,7.45v1.35Z"/><path class="cls-5" d="M659.87,212.85a2.89,2.89,0,0,0-2.66-1.31c-1.31,0-2.65.57-2.65,1.85s1.34,1.84,2.65,1.84a2.89,2.89,0,0,0,2.66-1.31Zm0-4.2c0-1.44-1.25-2.35-3.36-2.35a7.5,7.5,0,0,0-4.09,1.21v-3.59a10.23,10.23,0,0,1,5-1.24c4.13,0,6.45,2.11,6.45,5.77V218h-4v-.81a5.85,5.85,0,0,1-3.63,1.08c-3,0-5.54-1.75-5.54-4.87,0-2.86,2.52-4.8,5.81-4.8a6.69,6.69,0,0,1,3.36.87Z"/></g><rect class="cls-5" x="666.57" y="196.2" width="4.16" height="21.82"/><polygon class="cls-5" points="679.88 218.02 675.72 218.02 675.72 206.38 672.87 206.38 672.87 203.01 675.72 203.01 675.72 198.95 679.88 198.95 679.88 203.01 683.07 203.01 683.07 206.37 679.88 206.37 679.88 218.02"/><g class="cls-6"><path class="cls-5" d="M685,196.2h4.17v8.18a5.34,5.34,0,0,1,4-1.71c3.4,0,5.31,2.2,5.31,5.54V218h-4.18v-8.92a2.34,2.34,0,0,0-2.45-2.65,2.72,2.72,0,0,0-2.72,2.08V218H685Z"/><path class="cls-5" d="M703.22,212.92a2.58,2.58,0,0,1,2.62,2.55v.1a2.62,2.62,0,1,1-5.24,0,2.58,2.58,0,0,1,2.52-2.65h.1"/></g></g></g></svg>