<svg id="Layer_1" data-name="Layer 1" xmlns="http://www.w3.org/2000/svg" xmlns:xlink="http://www.w3.org/1999/xlink" viewBox="0 0 300 600"><defs><style>.cls-1{fill:none;}.cls-2{clip-path:url(#clip-path);}.cls-3{clip-path:url(#clip-path-3);}.cls-4{clip-path:url(#clip-path-4);}.cls-5{clip-path:url(#clip-path-5);}.cls-6{clip-path:url(#clip-path-7);}.cls-7{clip-path:url(#clip-path-8);}.cls-8{clip-path:url(#clip-path-9);}.cls-9{fill:#fff;}.cls-10{fill:#221e1f;}.cls-11{clip-path:url(#clip-path-10);}.cls-12{clip-path:url(#clip-path-12);}.cls-13{clip-path:url(#clip-path-13);}.cls-14{clip-path:url(#clip-path-14);}.cls-15{clip-path:url(#clip-path-16);}.cls-16{clip-path:url(#clip-path-17);}.cls-17{clip-path:url(#clip-path-18);}.cls-18{clip-path:url(#clip-path-20);}.cls-19{clip-path:url(#clip-path-21);}.cls-20{clip-path:url(#clip-path-22);}.cls-21{clip-path:url(#clip-path-24);}.cls-22{clip-path:url(#clip-path-25);}.cls-23{clip-path:url(#clip-path-26);}.cls-24{clip-path:url(#clip-path-28);}.cls-25{clip-path:url(#clip-path-29);}.cls-26{clip-path:url(#clip-path-30);}.cls-27{clip-path:url(#clip-path-32);}.cls-28{clip-path:url(#clip-path-33);}.cls-29{clip-path:url(#clip-path-34);}.cls-30{clip-path:url(#clip-path-35);}.cls-31{clip-path:url(#clip-path-36);}.cls-32{clip-path:url(#clip-path-37);}.cls-33{clip-path:url(#clip-path-38);}.cls-34{clip-path:url(#clip-path-39);}.cls-35{clip-path:url(#clip-path-40);}.cls-36{clip-path:url(#clip-path-41);}.cls-37{clip-path:url(#clip-path-42);}</style><clipPath id="clip-path"><rect class="cls-1" x="-640" width="300" height="600"/></clipPath><clipPath id="clip-path-3"><rect class="cls-1" x="-559.15" y="364.8" width="138.3" height="137.47"/></clipPath><clipPath id="clip-path-4"><rect class="cls-1" x="-33408" y="-32167" width="65535" height="65535"/></clipPath><clipPath id="clip-path-5"><rect class="cls-1" x="-320" width="300" height="600"/></clipPath><clipPath id="clip-path-7"><rect class="cls-1" x="-239.15" y="364.8" width="138.3" height="137.47"/></clipPath><clipPath id="clip-path-8"><rect class="cls-1" x="-33088" y="-32167" width="65535" height="65535"/></clipPath><clipPath id="clip-path-9"><rect class="cls-1" width="300" height="600"/></clipPath><clipPath id="clip-path-10"><rect class="cls-1" x="320" width="300" height="600"/></clipPath><clipPath id="clip-path-12"><rect class="cls-1" x="400.85" y="364.8" width="138.3" height="137.47"/></clipPath><clipPath id="clip-path-13"><rect class="cls-1" x="-32448" y="-32167" width="65535" height="65535"/></clipPath><clipPath id="clip-path-14"><rect class="cls-1" x="640" width="300" height="600"/></clipPath><clipPath id="clip-path-16"><rect class="cls-1" x="720.85" y="364.8" width="138.3" height="137.47"/></clipPath><clipPath id="clip-path-17"><rect class="cls-1" x="-32128" y="-32167" width="65535" height="65535"/></clipPath><clipPath id="clip-path-18"><rect class="cls-1" x="960" width="300" height="600"/></clipPath><clipPath id="clip-path-20"><rect class="cls-1" x="1040.85" y="364.8" width="138.3" height="137.47"/></clipPath><clipPath id="clip-path-21"><rect class="cls-1" x="-31808" y="-32167" width="65535" height="65535"/></clipPath><clipPath id="clip-path-22"><rect class="cls-1" x="1280" width="300" height="600"/></clipPath><clipPath id="clip-path-24"><rect class="cls-1" x="1360.85" y="364.8" width="138.3" height="137.47"/></clipPath><clipPath id="clip-path-25"><rect class="cls-1" x="-31488" y="-32167" width="65535" height="65535"/></clipPath><clipPath id="clip-path-26"><rect class="cls-1" x="1600" width="300" height="600"/></clipPath><clipPath id="clip-path-28"><rect class="cls-1" x="1680.85" y="364.8" width="138.3" height="137.47"/></clipPath><clipPath id="clip-path-29"><rect class="cls-1" x="-31168" y="-32167" width="65535" height="65535"/></clipPath><clipPath id="clip-path-30"><rect class="cls-1" x="1920" width="300" height="600"/></clipPath><clipPath id="clip-path-32"><rect class="cls-1" x="2000.85" y="364.8" width="138.3" height="137.47"/></clipPath><clipPath id="clip-path-33"><rect class="cls-1" x="-30848" y="-32167" width="65535" height="65535"/></clipPath><clipPath id="clip-path-34"><rect class="cls-1" x="2240" width="300" height="600"/></clipPath><clipPath id="clip-path-35"><rect class="cls-1" x="2320.85" y="364.8" width="138.3" height="137.47"/></clipPath><clipPath id="clip-path-36"><rect class="cls-1" x="-30528" y="-32167" width="65535" height="65535"/></clipPath><clipPath id="clip-path-37"><rect class="cls-1" x="2560" width="300" height="600"/></clipPath><clipPath id="clip-path-38"><rect class="cls-1" x="2640.85" y="364.8" width="138.3" height="137.47"/></clipPath><clipPath id="clip-path-39"><rect class="cls-1" x="-30208" y="-32167" width="65535" height="65535"/></clipPath><clipPath id="clip-path-40"><rect class="cls-1" x="2880" width="300" height="600"/></clipPath><clipPath id="clip-path-41"><rect class="cls-1" x="2960.85" y="364.8" width="138.3" height="137.47"/></clipPath><clipPath id="clip-path-42"><rect class="cls-1" x="-29888" y="-32167" width="65535" height="65535"/></clipPath></defs><g class="cls-8"><rect class="cls-9" x="36" y="36" width="132.23" height="57.63"/><path class="cls-10" d="M132.63,73.31V57h3.43c5,0,7.85,3.06,7.85,8.11s-2.88,8.2-7.85,8.2Zm-6.35,5h10.19c4.31,0,7.69-1.17,10.2-3.51s3.81-5.56,3.81-9.66-1.26-7.31-3.81-9.65S140.78,52,136.47,52H126.28ZM105,52H98.9V78.32h5.85V61.52L117,78.32H122V52H116.2v15.8ZM95.51,73.1H81.43V67.54H92.08V62.4H81.43V57.21H95.14V52H75.2V78.32H95.51ZM49,69a8.6,8.6,0,0,0,3.39,7.31A14,14,0,0,0,61,78.82a13.54,13.54,0,0,0,7.61-2.09,6.87,6.87,0,0,0,3.13-6.14c0-4.31-2.51-7-7.86-7.94L59,61.77c-1.88-.38-3.09-.92-3.09-2.43,0-1.79,1.5-2.88,4.18-2.88,3,0,5.18,1.55,5.35,4.6l5.85-.17c-.13-5.81-4-9.4-11.16-9.4-6.35,0-10.45,3.22-10.45,8.4,0,4.47,3,6.81,7.15,7.61l4.93.87c2.3.46,3.84.92,3.84,2.64S63.83,73.85,61,73.85c-3.22,0-6-1.46-6.23-5.1Z"/></g></svg>