<?xml version="1.0" encoding="utf-8"?>
<!-- Generator: Adobe Illustrator 26.0.2, SVG Export Plug-In . SVG Version: 6.00 Build 0)  -->
<svg version="1.1" id="Layer_1" xmlns="http://www.w3.org/2000/svg" xmlns:xlink="http://www.w3.org/1999/xlink" x="0px" y="0px"
	 viewBox="0 0 300 250" style="enable-background:new 0 0 300 250;" xml:space="preserve">
<style type="text/css">
	.st0{fill:#FFFFFF;}
</style>
<g>
	<g>
		<path class="st0" d="M22.7,32.8v6h4.2v5.1h-4.2v10.5h-6.1V28.1h11v4.7H22.7z"/>
		<path class="st0" d="M37.7,54.4c-0.4-1.6-0.6-3.2-0.5-4.8v-3.2c0-2.3-0.3-2.9-1.4-2.9h-0.4v10.9h-6.1V28.1h8.3
			c3.6,0,6.1,1.9,6.1,6.7c0,4.2-0.9,5.7-4.2,6.1c3.2,0.2,3.7,2.8,3.7,6.9c0,2.4,0.5,5.6,1.1,6.6H37.7z M35.8,31.9h-0.5v7h0.9
			c0.9,0,1.1-0.8,1.1-3.5S37.1,31.9,35.8,31.9z"/>
		<path class="st0" d="M52.3,54.9c-4.8,0-7.3-2.7-7.3-13.7c0-10.5,2.3-13.5,7.3-13.5s7.5,2.7,7.5,13.5C59.8,52.4,57,54.9,52.3,54.9z
			 M52.4,32.2c-0.9,0-1.1,0.5-1.1,9c0,8.1,0.1,8.8,1.1,8.8s1.1-0.7,1.1-8.8C53.5,32.7,53.3,32.2,52.4,32.2z"/>
		<path class="st0" d="M74.8,54.4v-9.1c0-3.2,0.1-9.4,0.1-9.4s-0.7,6.8-1.2,11.5C73.5,50,73,54.4,73,54.4h-4.4c0,0-0.5-4.3-0.8-7.1
			c-0.6-4.8-1.3-11.5-1.3-11.5s0.2,5.8,0.2,9.4v9.2h-5V28.1h7.1c0.3,1.9,1,5.8,1.5,9.7c0.3,1.9,0.6,5.1,0.6,5.1s0.3-3.2,0.6-5.1
			c0.5-3.9,1.1-7.9,1.3-9.7h7.3v26.3H74.8z"/>
		<path class="st0" d="M95.6,27.9c5.1,0,7,3.4,7,13.6c0,11.2-2.8,13.2-7.3,13.2c-3.7,0-5.8-1.9-5.8-5c0-0.8,0.1-1.7,0.3-2.5l5.1-0.1
			c-0.2,0.7-0.3,1.4-0.3,2.1c0,1.1,0.2,1.7,1,1.7c1.2,0,1.3-0.9,1.3-5.4c0-0.6,0-1.3,0-2c-0.5,1.1-1.6,1.7-2.7,1.6
			c-3.2,0-5.5-2.6-5.5-8.2C88.6,30.1,91.4,27.9,95.6,27.9z M95.6,32c-0.9,0-1.1,0.4-1.1,4.7s0.2,4.7,1.1,4.7s1.2-0.5,1.2-4.7
			S96.5,32,95.6,32L95.6,32z"/>
		<path class="st0" d="M110.8,27.9c5.1,0,6.9,3.4,6.9,13.6c0,11.2-2.8,13.2-7.3,13.2c-3.7,0-5.8-1.9-5.8-5c0-0.8,0.1-1.7,0.3-2.5
			l5.1-0.1c-0.2,0.7-0.3,1.4-0.3,2.1c0,1.1,0.2,1.7,1,1.7c1.2,0,1.3-0.9,1.3-5.4c0-0.6,0-1.3,0-2c-0.5,1.1-1.6,1.7-2.7,1.6
			c-3.3,0-5.5-2.6-5.5-8.2C103.8,30.1,106.6,27.9,110.8,27.9z M110.8,32c-0.8,0-1.1,0.4-1.1,4.7s0.2,4.7,1.1,4.7s1.2-0.5,1.2-4.7
			S111.7,32,110.8,32L110.8,32z"/>
		<path class="st0" d="M119.6,54.4v-6h5.6v6H119.6z"/>
		<path class="st0" d="M133.5,54.7c-4,0-6.5-2-6.5-6c0-1.1,0.1-2.1,0.4-3.2l5.4-0.3c-0.2,0.8-0.3,1.7-0.3,2.5c0,2.2,0.1,2.7,0.9,2.7
			s1-0.5,1-5.6c0-4.1-0.1-4.5-1.1-4.5c-0.8,0-1.1,0.6-1.1,2.5l-5-0.1l0.1-14.6h11.5c0,0.6,0,1.3,0,1.9c0,1-0.1,2-0.3,3h-6.6
			l-0.3,4.1c0.6-0.9,1.7-1.4,2.8-1.3c3.3,0,5.9,2.4,5.9,9C140.6,52.5,137.7,54.7,133.5,54.7z"/>
		<path class="st0" d="M147,42.7c-3.1,0-5.3-1.6-5.3-7.3c0-6.3,2.5-7.5,5.3-7.5c3.2,0,5.3,1.2,5.3,7.5
			C152.2,40.6,150.2,42.7,147,42.7z M146.2,54.4h-3.3l17.6-26h3.3L146.2,54.4z M146.9,31.1c-0.6,0-0.7,0.6-0.7,4.2s0.1,4.2,0.7,4.2
			s0.8-0.6,0.8-4.1S147.6,31.1,146.9,31.1L146.9,31.1z M159.8,54.7c-3.1,0-5.3-1.6-5.3-7.3c0-6.3,2.5-7.5,5.3-7.5
			c3.3,0,5.3,1.2,5.3,7.5C165.1,52.7,163,54.7,159.8,54.7z M159.8,43.1c-0.6,0-0.7,0.6-0.7,4.2s0.1,4.2,0.7,4.2s0.8-0.6,0.8-4.1
			S160.5,43.1,159.8,43.1z"/>
	</g>
</g>
</svg>
