<?xml version="1.0" encoding="utf-8"?>
<!-- Generator: Adobe Illustrator 26.0.2, SVG Export Plug-In . SVG Version: 6.00 Build 0)  -->
<svg version="1.1" id="Layer_1" xmlns="http://www.w3.org/2000/svg" xmlns:xlink="http://www.w3.org/1999/xlink" x="0px" y="0px"
	 viewBox="0 0 300 250" style="enable-background:new 0 0 300 250;" xml:space="preserve">
<style type="text/css">
	.st0{fill:#FFFFFF;}
</style>
<g>
	<g>
		<path class="st0" d="M26.1,87.6c0,0-2.5-7.8-3.1-9.7c-0.4-1.4-0.8-2.8-1-4.2c0.2,3.5,0.2,4.1,0.2,7.2v6.7h-5.6V61.3H22l2.7,9.4
			c0.4,1.2,0.7,2.3,0.9,3.5c-0.1-2.6-0.2-5.1-0.2-7.7v-5.1H31v26.3H26.1z"/>
		<path class="st0" d="M41.9,87.6l-0.6-3.9h-2.9l-0.6,3.9h-5.3l4.7-26.3h5.8l5.4,26.3H41.9z M40.3,75.3c-0.1-1.2-0.4-3.8-0.5-6.4
			c-0.1,2.6-0.3,5.2-0.5,6.4c-0.2,2-0.4,4.4-0.4,4.4h2C40.9,79.7,40.5,77.2,40.3,75.3z"/>
		<path class="st0" d="M57,66v21.6h-6.1V66h-3.8v-4.7h13.7V66H57z"/>
		<path class="st0" d="M69.7,88.1c-4.9,0-7.2-2.3-7.2-6V61.3h6.1V81c0,1.5,0.1,2.2,1.1,2.2s1-0.6,1-2.2V61.3h6.1v20.9
			C76.9,85.6,74.7,88.1,69.7,88.1z"/>
		<path class="st0" d="M87.7,87.6c-0.4-1.6-0.6-3.2-0.6-4.8v-3.2c0-2.3-0.3-2.9-1.4-2.9h-0.4v10.9h-6.1V61.3h8.3
			c3.6,0,6.1,1.9,6.1,6.7c0,4.1-0.9,5.7-4.2,6.1c3.2,0.2,3.7,2.8,3.7,6.9c0,2.4,0.4,5.6,1.1,6.6L87.7,87.6z M85.8,65.1h-0.5v7.1h0.9
			c0.9,0,1.1-0.8,1.1-3.5S87.1,65.1,85.8,65.1z"/>
		<path class="st0" d="M104.3,87.6l-0.6-3.9h-2.9l-0.6,3.9h-5.3l4.7-26.3h5.8l5.4,26.3H104.3z M102.6,75.3c-0.1-1.2-0.4-3.8-0.5-6.4
			c-0.1,2.6-0.3,5.2-0.5,6.4c-0.2,2-0.4,4.4-0.4,4.4h2C103.2,79.7,102.8,77.2,102.6,75.3z"/>
		<path class="st0" d="M111.9,87.6V61.3h6.1v21.3h5.3v5L111.9,87.6z"/>
		<path class="st0" d="M142.6,87.8l-1-1.4c-0.3,0.9-1.4,1.7-3.3,1.7c-4.5,0-7.4-1.6-7.4-12.7c0-12,2.7-14.5,7.8-14.5
			c4.2,0,6.1,2,6.1,6.9c0,1.1-0.1,2.2-0.5,3.2l-5.4,0.2c0.3-1.2,0.4-2.5,0.4-3.8c0-1.2-0.1-2-0.9-2c-1.1,0-1.3,0.5-1.3,9.8
			c0,7.6,0.3,8,1.3,8c1.2,0,1.2-1.5,1.2-2.8c0-1.1,0-2.2-0.1-3.3h-1.4v-3.7h6.7v14.4H142.6z"/>
		<path class="st0" d="M155.7,87.6l-0.6-3.9h-2.9l-0.6,3.9h-5.3l4.7-26.3h5.8l5.4,26.3H155.7z M154,75.3c-0.1-1.2-0.4-3.8-0.6-6.4
			c-0.1,2.6-0.3,5.2-0.5,6.4c-0.2,2-0.4,4.4-0.4,4.4h2C154.6,79.7,154.2,77.2,154,75.3z"/>
		<path class="st0" d="M169.3,88.1c-4,0-6.7-1.7-6.7-6.8c0-1.1,0.1-2.2,0.4-3.3l5.5-0.2c-0.1,1.1-0.2,2.2-0.2,3.2
			c0,2.2,0.2,2.6,1.1,2.6s0.9-0.5,0.9-2.3c0-3.5-0.6-4.3-2.8-5.4l-1.7-0.9c-2.7-1.4-3.3-4.4-3.3-7.5c0-4.5,2.5-6.8,6.6-6.8
			s6.5,2,6.5,5.9c0,0.8-0.1,1.7-0.3,2.5l-5.4,0.4c0.1-0.9,0.2-1.7,0.2-2.6c0-1.5-0.1-2-0.9-2s-0.9,0.5-0.9,1.7
			c0,2.4,0.6,3.4,2.1,4.2l1.8,0.9c3.2,1.6,4.1,4.1,4.1,8.8S174,88.1,169.3,88.1z"/>
	</g>
</g>
</svg>
