<?xml version="1.0" encoding="utf-8"?>
<!-- Generator: Adobe Illustrator 26.0.2, SVG Export Plug-In . SVG Version: 6.00 Build 0)  -->
<svg version="1.1" id="Layer_1" xmlns="http://www.w3.org/2000/svg" xmlns:xlink="http://www.w3.org/1999/xlink" x="0px" y="0px"
	 viewBox="0 0 300 250" style="enable-background:new 0 0 300 250;" xml:space="preserve">
<style type="text/css">
	.st0{fill:#FFFFFF;}
</style>
<g>
	<g>
		<path class="st0" d="M22.7,99.1v6h4.2v5.1h-4.2v10.5h-6.1V94.4h11v4.7H22.7z"/>
		<path class="st0" d="M29.2,120.7V94.4h6.1v26.3L29.2,120.7z"/>
		<path class="st0" d="M47.1,120.7c0,0-2.5-7.7-3.1-9.7c-0.4-1.4-0.8-2.8-1-4.2c0.2,3.5,0.2,4.1,0.2,7.2v6.7h-5.6V94.4h5.4l2.7,9.3
			c0.4,1.2,0.7,2.3,0.9,3.5c-0.1-2.6-0.2-5.1-0.2-7.7v-5.1h5.6v26.3L47.1,120.7z"/>
		<path class="st0" d="M61.2,120.7h-6.8V94.4h6.3c5.4,0,8.5,2.1,8.5,14C69.2,118.3,65.9,120.7,61.2,120.7z M61,99.1h-0.5v16.6H61
			c1.2,0,1.8-0.8,1.8-7.7C62.8,99.5,62.3,99.1,61,99.1z"/>
		<path class="st0" d="M84.7,121.3c-4.8,0-7.3-2.7-7.3-13.7C77.3,97,79.6,94,84.7,94s7.5,2.7,7.5,13.5
			C92.2,118.8,89.3,121.3,84.7,121.3z M84.7,98.5c-0.9,0-1.1,0.5-1.1,9c0,8.1,0.1,8.8,1.1,8.8s1.1-0.7,1.1-8.8
			C85.8,99,85.6,98.5,84.7,98.5z"/>
		<path class="st0" d="M101.2,121.3c-4.9,0-7.2-2.3-7.2-6V94.4h6.1v19.7c0,1.5,0.1,2.2,1.1,2.2s1-0.6,1-2.2V94.4h6.1v20.9
			C108.4,118.8,106.2,121.3,101.2,121.3z"/>
		<path class="st0" d="M119.9,99.1v21.6h-6.1V99.1H110v-4.7h13.7v4.7H119.9z"/>
		<path class="st0" d="M145.4,120.7v-9.1c0-3.2,0.1-9.4,0.1-9.4s-0.7,6.8-1.2,11.5c-0.3,2.7-0.8,7.1-0.8,7.1h-4.4
			c0,0-0.5-4.3-0.8-7.1c-0.6-4.8-1.3-11.5-1.3-11.5s0.2,5.8,0.2,9.3v9.2h-5V94.4h7.1c0.3,1.8,1,5.8,1.5,9.7c0.3,1.9,0.6,5.1,0.6,5.1
			s0.3-3.2,0.6-5.1c0.5-3.9,1.1-8,1.3-9.7h7.3v26.3L145.4,120.7z"/>
		<path class="st0" d="M159.8,121.3c-4.8,0-7.3-2.7-7.3-13.7c0-10.6,2.3-13.6,7.3-13.6s7.5,2.7,7.5,13.5
			C167.2,118.8,164.4,121.3,159.8,121.3z M159.8,98.5c-0.9,0-1.1,0.5-1.1,9c0,8.1,0.1,8.8,1.1,8.8s1.1-0.7,1.1-8.8
			C160.9,99,160.7,98.5,159.8,98.5z"/>
		<path class="st0" d="M177.6,120.7c-0.4-1.6-0.6-3.2-0.6-4.8v-3.2c0-2.3-0.3-2.9-1.4-2.9h-0.4v10.9h-6.1V94.4h8.3
			c3.6,0,6.1,1.9,6.1,6.7c0,4.1-0.9,5.7-4.2,6.1c3.1,0.2,3.7,2.8,3.7,6.9c0,2.4,0.4,5.6,1.1,6.6L177.6,120.7z M175.7,98.3h-0.5v7
			h0.9c0.9,0,1.1-0.8,1.1-3.5S177,98.3,175.7,98.3L175.7,98.3z"/>
		<path class="st0" d="M185.4,120.7V94.4h11.3v4.7h-5.2v5.7h4.5v5.1h-4.5v5.9h6v5L185.4,120.7z"/>
		<path class="st0" d="M205.9,117.4V112l5.6-3.7l-5.6-3.7v-5.4l9.6,6.9v4.4L205.9,117.4z"/>
	</g>
</g>
</svg>
