<?xml version="1.0" encoding="utf-8"?>
<!-- Generator: Adobe Illustrator 26.0.2, SVG Export Plug-In . SVG Version: 6.00 Build 0)  -->
<svg version="1.1" id="Layer_1" xmlns="http://www.w3.org/2000/svg" xmlns:xlink="http://www.w3.org/1999/xlink" x="0px" y="0px"
	 viewBox="0 0 300 250" style="enable-background:new 0 0 300 250;" xml:space="preserve">
<style type="text/css">
	.st0{fill:#FFFFFF;}
</style>
<g>
	<g>
		<path class="st0" d="M23.9,54.4h-7.3V28.1h7.5c4.6,0,6.3,2.3,6.3,6.8c0,3.2-1.3,5.4-3.6,5.5c2.5,0,4.4,2.3,4.4,6.6
			C31.3,52.4,28.4,54.4,23.9,54.4z M23.2,32.6h-0.6v5.7h0.6c0.9,0,1.3-0.5,1.3-2.9C24.6,33.2,24.1,32.6,23.2,32.6z M23.2,42.4h-0.6
			v7.3h0.7c1.3,0,1.6-0.7,1.6-3.3C25,43.2,24.4,42.4,23.2,42.4z"/>
		<path class="st0" d="M40.2,54.9c-4.9,0-7.2-2.3-7.2-6V28.1h6.1v19.7c0,1.5,0.1,2.2,1.1,2.2s1-0.6,1-2.2V28.1h6.1V49
			C47.3,52.4,45.2,54.9,40.2,54.9z"/>
		<path class="st0" d="M59.6,44.2v10.2h-6.1V44.2l-4.9-16.1h6.3l2.2,8.7l2.3-8.7h5.3L59.6,44.2z"/>
		<path class="st0" d="M81.7,54.4c0,0-2.5-7.8-3.1-9.7c-0.4-1.4-0.8-2.8-1-4.2c0.2,3.5,0.2,4.1,0.2,7.2v6.7h-5.6V28.1h5.4l2.7,9.4
			c0.4,1.2,0.7,2.4,0.8,3.6c-0.1-2.6-0.2-5.1-0.2-7.7v-5.2h5.6v26.3H81.7z"/>
		<path class="st0" d="M95.8,54.9c-4.8,0-7.3-2.7-7.3-13.7c0-10.5,2.3-13.5,7.3-13.5s7.5,2.7,7.5,13.5
			C103.3,52.4,100.4,54.9,95.8,54.9z M95.9,32.2c-0.9,0-1.1,0.5-1.1,9c0,8.1,0.1,8.8,1.1,8.8s1.1-0.7,1.1-8.8
			C97,32.7,96.8,32.2,95.9,32.2z"/>
		<path class="st0" d="M121.2,54.4h-5c0,0-0.6-4.7-1-7.7s-0.7-5.5-0.7-5.5s-0.2,2.5-0.7,5.5s-1.1,7.7-1.1,7.7h-5.3l-3.3-26.3h5.7
			c0,0,0.6,5.5,0.9,9.1c0.2,1.8,0.2,6.3,0.2,6.3s0-4.6,0.3-6.4c0.5-3.5,1.1-6.8,1.4-9.1h4.2c0.4,3.2,0.8,5.6,1.2,9.1
			c0.4,2.9,0.4,6.3,0.4,6.3c0-2.1,0.1-4.2,0.3-6.3c0.4-3.6,1.1-9.1,1.1-9.1h5.2L121.2,54.4z"/>
		<path class="st0" d="M139.4,32.8v6h4.2v5.1h-4.2v10.5h-6.1V28.1h11v4.7H139.4z"/>
		<path class="st0" d="M154.3,54.4c-0.4-1.6-0.6-3.2-0.5-4.8v-3.2c0-2.3-0.3-2.9-1.4-2.9H152v10.9h-6.1V28.1h8.3
			c3.6,0,6.1,1.9,6.1,6.7c0,4.2-0.9,5.7-4.2,6.1c3.1,0.2,3.7,2.8,3.7,6.9c0,2.4,0.4,5.6,1.1,6.6H154.3z M152.5,31.9H152v7h0.9
			c0.9,0,1.1-0.8,1.1-3.5S153.8,31.9,152.5,31.9z"/>
		<path class="st0" d="M169,54.9c-4.8,0-7.3-2.7-7.3-13.7c0-10.5,2.3-13.5,7.3-13.5s7.5,2.7,7.5,13.5
			C176.5,52.4,173.7,54.9,169,54.9z M169.1,32.2c-0.9,0-1.1,0.5-1.1,9c0,8.1,0.1,8.8,1.1,8.8s1.1-0.7,1.1-8.8
			C170.2,32.7,170,32.2,169.1,32.2L169.1,32.2z"/>
		<path class="st0" d="M191.6,54.4v-9.1c0-3.2,0.1-9.4,0.1-9.4s-0.7,6.8-1.2,11.5c-0.3,2.7-0.8,7.1-0.8,7.1h-4.4
			c0,0-0.5-4.3-0.8-7.1c-0.6-4.8-1.3-11.5-1.3-11.5s0.2,5.8,0.2,9.3v9.2h-5V28.1h7.1c0.3,1.9,1,5.8,1.5,9.7c0.3,1.9,0.6,5.1,0.6,5.1
			s0.3-3.2,0.6-5.1c0.5-3.9,1.1-7.9,1.3-9.7h7.3v26.3H191.6z"/>
	</g>
</g>
</svg>
