<?xml version="1.0" encoding="utf-8"?>
<!-- Generator: Adobe Illustrator 26.0.2, SVG Export Plug-In . SVG Version: 6.00 Build 0)  -->
<svg version="1.1" id="Layer_1" xmlns="http://www.w3.org/2000/svg" xmlns:xlink="http://www.w3.org/1999/xlink" x="0px" y="0px"
	 viewBox="0 0 300 250" style="enable-background:new 0 0 300 250;" xml:space="preserve">
<style type="text/css">
	.st0{fill:#FFFFFF;}
</style>
<g>
	<g>
		<path class="st0" d="M25.2,87.6l-0.6-3.9h-3L21,87.6h-5.3l4.6-26.3h5.8l5.4,26.3H25.2z M23.5,75.3c-0.1-1.2-0.4-3.8-0.5-6.4
			c-0.1,2.6-0.3,5.2-0.5,6.4c-0.2,2-0.4,4.4-0.4,4.4h2C24.1,79.7,23.8,77.2,23.5,75.3z"/>
		<path class="st0" d="M42.3,87.6c0,0-2.5-7.8-3.1-9.7c-0.4-1.4-0.8-2.8-1-4.2c0.2,3.5,0.2,4.1,0.2,7.2v6.7h-5.6V61.3h5.4l2.8,9.4
			c0.4,1.2,0.7,2.3,0.8,3.5c-0.1-2.6-0.2-5.1-0.2-7.7v-5.1h5.6v26.3H42.3z"/>
		<path class="st0" d="M56.3,87.6h-6.7V61.3h6.3c5.4,0,8.5,2.1,8.5,14C64.3,85.1,61.1,87.6,56.3,87.6z M56.2,66h-0.5v16.6h0.5
			c1.2,0,1.8-0.8,1.8-7.7C58,66.4,57.5,66,56.2,66z"/>
		<path class="st0" d="M81.2,78.3h-2.1v9.2H73V61.3h7.7c4.3,0,6.4,2.4,6.4,8C87.2,75.5,85.2,78.3,81.2,78.3z M79.7,66h-0.6v7.7h0.7
			c1.2,0,1.3-1,1.3-4.3C81.1,66.2,80.7,66,79.7,66z"/>
		<path class="st0" d="M88.7,87.6V61.3H100V66h-5.1v5.7h4.5v5.1h-4.5v5.8h6v5L88.7,87.6z"/>
		<path class="st0" d="M110.5,87.6c-0.4-1.6-0.6-3.2-0.6-4.8v-3.2c0-2.3-0.3-2.9-1.4-2.9h-0.4v10.9H102V61.3h8.3
			c3.6,0,6.1,1.9,6.1,6.7c0,4.1-0.9,5.7-4.2,6.1c3.2,0.2,3.7,2.8,3.7,6.9c0,2.4,0.4,5.6,1.1,6.6L110.5,87.6z M108.6,65.1h-0.5v7.1
			h0.9c0.8,0,1.1-0.8,1.1-3.5S109.9,65.1,108.6,65.1z"/>
		<path class="st0" d="M124.5,66v6h4.2v5.1h-4.2v10.4h-6.1V61.3h11V66H124.5z"/>
		<path class="st0" d="M137.4,88.1c-4.8,0-7.3-2.7-7.3-13.7c0-10.5,2.3-13.5,7.3-13.5s7.5,2.7,7.5,13.5
			C144.9,85.6,142.1,88.1,137.4,88.1z M137.5,65.4c-0.9,0-1.1,0.5-1.1,9c0,8.1,0.1,8.8,1.1,8.8s1.1-0.7,1.1-8.8
			C138.6,65.8,138.4,65.4,137.5,65.4z"/>
		<path class="st0" d="M155.2,87.6c-0.4-1.6-0.6-3.2-0.6-4.8v-3.2c0-2.3-0.3-2.9-1.4-2.9h-0.4v10.9h-6.1V61.3h8.3
			c3.6,0,6.1,1.9,6.1,6.7c0,4.1-0.9,5.7-4.2,6.1c3.1,0.2,3.7,2.8,3.7,6.9c0,2.4,0.4,5.6,1.1,6.6L155.2,87.6z M153.4,65.1h-0.5v7.1
			h0.9c0.9,0,1.1-0.8,1.1-3.5S154.7,65.1,153.4,65.1z"/>
		<path class="st0" d="M176.3,87.6v-9.1c0-3.2,0.1-9.4,0.1-9.4s-0.7,6.8-1.2,11.5c-0.3,2.7-0.8,7.1-0.8,7.1h-4.4
			c0,0-0.5-4.3-0.8-7.1c-0.6-4.8-1.3-11.5-1.3-11.5s0.2,5.8,0.2,9.3v9.2h-5V61.3h7.1c0.3,1.8,1,5.8,1.5,9.7c0.3,1.9,0.5,5.1,0.5,5.1
			s0.4-3.2,0.6-5.1c0.5-3.9,1.1-8,1.3-9.7h7.3v26.3H176.3z"/>
		<path class="st0" d="M192.4,87.6l-0.6-3.9h-3l-0.6,3.9h-5.3l4.6-26.3h5.8l5.4,26.3H192.4z M190.7,75.3c-0.1-1.2-0.4-3.8-0.6-6.4
			c-0.1,2.6-0.3,5.2-0.5,6.4c-0.2,2-0.4,4.4-0.4,4.4h1.9C191.2,79.7,191,77.2,190.7,75.3z"/>
		<path class="st0" d="M209.5,87.6c0,0-2.5-7.8-3.1-9.7c-0.4-1.4-0.8-2.8-1-4.2c0.2,3.5,0.2,4.1,0.2,7.2v6.7H200V61.3h5.4l2.7,9.4
			c0.4,1.2,0.7,2.3,0.9,3.5c-0.1-2.6-0.2-5.1-0.2-7.7v-5.1h5.6v26.3H209.5z"/>
		<path class="st0" d="M223.6,88.1c-4.8,0-7.3-2.3-7.3-12.7c0-11.2,2.1-14.6,7.4-14.6c4.3,0,6.5,2.4,6.5,6.6c0,1.4-0.1,2.7-0.3,4.1
			l-5.6,0.1c0.2-1.1,0.2-2.2,0.2-3.3c0-2.3,0-3-0.9-3s-1,0.6-1,9.3c0,8,0.1,8.4,1.2,8.4s1-1.4,1-3.8c0-1.2-0.1-2.3-0.2-3.4l5.8,0.1
			c0.2,1.4,0.2,2.8,0.2,4.2C230.5,85.3,227.8,88.1,223.6,88.1z"/>
		<path class="st0" d="M232.2,87.6V61.3h11.3V66h-5.2v5.7h4.5v5.1h-4.5v5.8h6v5L232.2,87.6z"/>
	</g>
</g>
</svg>
