<?xml version="1.0" encoding="utf-8"?>
<!-- Generator: Adobe Illustrator 26.0.2, SVG Export Plug-In . SVG Version: 6.00 Build 0)  -->
<svg version="1.1" id="Layer_1" xmlns="http://www.w3.org/2000/svg" xmlns:xlink="http://www.w3.org/1999/xlink" x="0px" y="0px"
	 viewBox="0 0 300 250" style="enable-background:new 0 0 300 250;" xml:space="preserve">
<style type="text/css">
	.st0{clip-path:url(#SVGID_00000090277920291535637980000011804121079842196364_);}
	.st1{fill:#FFFFFF;}
	.st2{clip-path:url(#SVGID_00000069377598826041026540000016778544034232479900_);}
	.st3{clip-path:url(#SVGID_00000153670453814009213250000010140678870952779692_);}
	.st4{clip-path:url(#SVGID_00000034805588384498043310000002786164488467678848_);}
	.st5{fill:#ED2124;}
</style>
<g>
	<g>
		<g>
			<defs>
				<rect id="SVGID_1_" width="300" height="250"/>
			</defs>
			<clipPath id="SVGID_00000102535152707208277990000001865091206356224914_">
				<use xlink:href="#SVGID_1_"  style="overflow:visible;"/>
			</clipPath>
			<g style="clip-path:url(#SVGID_00000102535152707208277990000001865091206356224914_);">
				<path class="st1" d="M282.1,183c0.1,0,0.2,0,0.3-0.1c0.1-0.1,0.1-0.1,0.2-0.2c0-0.2,0.1-0.3,0.1-0.5c0-0.2,0-0.5,0-0.8
					s0-0.6,0-0.8c0-0.2,0-0.3-0.1-0.5c0-0.1-0.1-0.2-0.2-0.2c-0.1,0-0.2-0.1-0.3-0.1h-0.3v3.2H282.1z M282.4,178.9
					c0.3,0,0.6,0.1,0.9,0.2c0.2,0.1,0.4,0.3,0.5,0.6c0.1,0.3,0.2,0.5,0.2,0.8c0,0.3,0,0.6,0,0.9s0,0.6,0,1c0,0.3-0.1,0.6-0.2,0.8
					c-0.1,0.2-0.3,0.4-0.5,0.6c-0.3,0.1-0.6,0.2-0.9,0.2h-1.9v-5L282.4,178.9z M279.8,178.9v1.1h-1.7v0.9h1.6v1h-1.6v1h1.7v1.1h-3
					v-5L279.8,178.9z M273.9,178.9l0.9,3.1l0,0v-3.1h1.2v5h-1.4l-0.9-3.1l0,0v3.1h-1.2v-5H273.9z M269.8,178.9l0.5,3.5l0,0l0.4-3.5
					h1.3l-0.9,5h-1.4l-0.4-3.4l0,0l-0.4,3.4h-1.4l-0.9-5h1.3l0.4,3.5l0,0l0.5-3.5H269.8z M262.7,180.2c0-0.3,0.1-0.6,0.3-0.8
					c0.1-0.2,0.3-0.4,0.6-0.5c0.5-0.2,1.1-0.2,1.7,0c0.2,0.1,0.4,0.3,0.6,0.5c0.2,0.2,0.3,0.5,0.3,0.8c0.1,0.4,0.1,0.8,0.1,1.2
					c0,0.4,0,0.8-0.1,1.2c0,0.3-0.1,0.6-0.3,0.8c-0.1,0.2-0.3,0.4-0.6,0.4c-0.5,0.2-1.1,0.2-1.7,0c-0.2-0.1-0.4-0.2-0.6-0.4
					c-0.2-0.2-0.3-0.5-0.3-0.8c-0.1-0.4-0.1-0.8-0.1-1.2C262.6,181,262.7,180.6,262.7,180.2 M264,182.3c0,0.2,0,0.4,0.1,0.5
					c0,0.1,0.1,0.2,0.1,0.3c0.1,0.1,0.2,0.1,0.2,0.1c0.1,0,0.2,0,0.2-0.1c0.1-0.1,0.1-0.2,0.1-0.3c0-0.2,0.1-0.4,0.1-0.5
					c0-0.2,0-0.5,0-0.9s0-0.6,0-0.8c0-0.2,0-0.4-0.1-0.5c0-0.1-0.1-0.2-0.1-0.3c-0.1-0.1-0.1-0.1-0.2-0.1c-0.1,0-0.2,0-0.2,0.1
					c-0.1,0.1-0.1,0.2-0.1,0.3c0,0.2-0.1,0.4-0.1,0.5c0,0.2,0,0.5,0,0.8S264,182,264,182.3"/>
			</g>
		</g>
		<path class="st1" d="M278.5,166.9h-4V164h8.2v2.6l-4.4,8.2h4.4v2.9h-8.5v-2.6L278.5,166.9z M267.3,164l2.3,8.4l0,0V164h3.4v13.7
			h-3.9l-2.4-8.4l0,0v8.4h-3.3V164H267.3z"/>
		<g>
			<defs>
				<rect id="SVGID_00000134217856054582244440000010975442748200055713_" width="300" height="250"/>
			</defs>
			<clipPath id="SVGID_00000049195212837461981900000002094915422673951934_">
				<use xlink:href="#SVGID_00000134217856054582244440000010975442748200055713_"  style="overflow:visible;"/>
			</clipPath>
			<g style="clip-path:url(#SVGID_00000049195212837461981900000002094915422673951934_);">
				<path class="st1" d="M281.8,160.9c0,0.1,0,0.2,0,0.3c0,0.1,0,0.1,0.1,0.1c0.1,0,0.1,0,0.2,0c0.1,0,0.1,0,0.2,0
					c0,0,0.1-0.1,0.1-0.1c0-0.1,0-0.2,0-0.3c0-0.1,0-0.3,0-0.5s0-0.4,0-0.5c0-0.1,0-0.2,0-0.3c0-0.1,0-0.1-0.1-0.2
					c-0.1,0-0.1,0-0.2,0c-0.1,0-0.2,0.1-0.2,0.2c0,0,0,0,0,0c0,0.1,0,0.2,0,0.3c0,0.1,0,0.3,0,0.5S281.8,160.8,281.8,160.9
					 M282.1,155.6l-2.9,6.5h-1l2.9-6.5H282.1z M277.9,157.8c0,0.1,0,0.2,0,0.3c0,0.1,0,0.1,0.1,0.2c0.1,0,0.1,0,0.2,0
					c0.1,0,0.1,0,0.2,0c0,0,0.1-0.1,0.1-0.2c0-0.1,0-0.2,0-0.3c0-0.1,0-0.3,0-0.5s0-0.4,0-0.5c0-0.1,0-0.2,0-0.3
					c0-0.1,0-0.1-0.1-0.2c-0.1,0-0.1,0-0.2,0c-0.1,0-0.1,0-0.2,0c-0.1,0-0.1,0.1-0.1,0.2c0,0.1,0,0.2,0,0.3c0,0.1,0,0.3,0,0.5
					S277.9,157.7,277.9,157.8 M280.8,159.6c0-0.2,0.1-0.4,0.2-0.6c0.1-0.1,0.3-0.2,0.4-0.3c0.2-0.1,0.4-0.1,0.7-0.1
					c0.2,0,0.5,0,0.7,0.1c0.2,0.1,0.3,0.2,0.4,0.3c0.1,0.2,0.2,0.3,0.2,0.5c0.1,0.3,0.1,0.5,0.1,0.8c0,0.3,0,0.5-0.1,0.8
					c0,0.2-0.1,0.4-0.2,0.5c-0.1,0.1-0.3,0.2-0.4,0.3c-0.2,0.1-0.5,0.1-0.7,0.1c-0.2,0-0.5,0-0.7-0.1c-0.2,0-0.3-0.1-0.4-0.3
					c-0.1-0.2-0.2-0.3-0.2-0.5c-0.1-0.3-0.1-0.5-0.1-0.8C280.7,160.1,280.7,159.8,280.8,159.6 M276.9,156.5c0-0.2,0.1-0.4,0.2-0.5
					c0.1-0.1,0.3-0.2,0.4-0.3c0.4-0.1,0.9-0.1,1.3,0c0.2,0.1,0.3,0.2,0.4,0.3c0.1,0.2,0.2,0.3,0.2,0.5c0.1,0.5,0.1,1.1,0,1.6
					c0,0.2-0.1,0.4-0.2,0.5c-0.1,0.1-0.3,0.2-0.4,0.3c-0.4,0.1-0.9,0.1-1.3,0c-0.2-0.1-0.3-0.2-0.4-0.3c-0.1-0.2-0.2-0.3-0.2-0.5
					C276.8,157.6,276.8,157,276.9,156.5 M272.1,157.2c0.1-0.4,0.2-0.7,0.4-1c0.2-0.2,0.4-0.4,0.7-0.5c0.3-0.1,0.7-0.1,1-0.1
					c0.3,0,0.7,0,1,0.1c0.3,0.1,0.5,0.3,0.7,0.5c0.2,0.3,0.3,0.6,0.4,1c0.1,0.5,0.1,1.1,0.1,1.6c0,0.5,0,1.1-0.1,1.6
					c-0.1,0.4-0.2,0.7-0.4,1c-0.2,0.2-0.4,0.4-0.7,0.5c-0.3,0.1-0.7,0.1-1,0.1c-0.3,0-0.7,0-1-0.1c-0.3-0.1-0.5-0.3-0.7-0.5
					c-0.2-0.3-0.3-0.6-0.4-1c-0.1-0.5-0.1-1.1-0.1-1.6C271.9,158.3,272,157.7,272.1,157.2 M273.8,160.8c0.1,0.2,0.2,0.3,0.4,0.2
					c0.2,0,0.3-0.1,0.4-0.2c0.1-0.3,0.1-0.6,0.1-0.9v-2.1c0-0.3,0-0.6-0.1-0.9c-0.1-0.2-0.2-0.2-0.4-0.2c-0.2,0-0.3,0.1-0.4,0.2
					c-0.1,0.3-0.1,0.6-0.1,0.9v2.1C273.6,160.2,273.6,160.5,273.8,160.8 M267.2,157.2c0.1-0.4,0.2-0.7,0.4-1
					c0.2-0.2,0.4-0.4,0.7-0.5c0.7-0.2,1.3-0.2,2,0c0.3,0.1,0.5,0.3,0.7,0.5c0.2,0.3,0.3,0.6,0.4,1c0.1,0.5,0.1,1.1,0.1,1.6
					c0,0.5,0,1.1-0.1,1.6c-0.1,0.4-0.2,0.7-0.4,1c-0.2,0.2-0.4,0.4-0.7,0.5c-0.7,0.2-1.3,0.2-2,0c-0.3-0.1-0.5-0.3-0.7-0.5
					c-0.2-0.3-0.3-0.6-0.4-1c-0.1-0.5-0.1-1.1-0.1-1.6C267,158.3,267.1,157.7,267.2,157.2 M268.9,160.8c0.1,0.2,0.2,0.2,0.4,0.2
					c0.2,0,0.3-0.1,0.4-0.2c0.1-0.3,0.1-0.6,0.1-0.9v-2.1c0-0.3,0-0.6-0.1-0.9c-0.1-0.2-0.2-0.2-0.4-0.2c-0.2,0-0.3,0.1-0.4,0.2
					c-0.1,0.3-0.1,0.6-0.1,0.9v2.1C268.7,160.2,268.8,160.5,268.9,160.8 M264.1,157.6h-1.2v-1.1c0.2,0,0.4,0,0.7,0
					c0.2,0,0.3-0.1,0.5-0.2c0.1-0.1,0.2-0.2,0.3-0.3c0.1-0.1,0.2-0.3,0.2-0.5h1.2v6.4h-1.7V157.6z"/>
			</g>
		</g>
		<polygon class="st1" points="157.3,156.2 156.6,159.2 159.1,159.2 157.1,169 160.6,169 162.7,159.2 165.1,159.2 165.7,156.2 		"/>
		<g>
			<defs>
				<rect id="SVGID_00000154420273567999909970000007153826226490197182_" x="126" y="155.2" width="133.9" height="13.8"/>
			</defs>
			<clipPath id="SVGID_00000072265427674081150410000004000977022708002479_">
				<use xlink:href="#SVGID_00000154420273567999909970000007153826226490197182_"  style="overflow:visible;"/>
			</clipPath>
			<g style="clip-path:url(#SVGID_00000072265427674081150410000004000977022708002479_);">
				<path class="st1" d="M166.4,156.2h5.4c2.5,0,3.3,1.2,2.8,3.3s-1.5,2.9-2.8,3.1l0,0c0.7,0,1.2,0.4,1.5,1c0.1,0.7,0.1,1.5-0.1,2.2
					l-0.2,1.1c-0.1,0.5-0.2,1-0.1,1.5c0,0.2,0.2,0.3,0.3,0.4v0.2h-3.8c-0.1-0.6-0.1-1.3,0.1-1.9c0.1-0.6,0.2-1.3,0.3-1.9
					c0.2-1.1-0.1-1.3-0.7-1.3h-0.7l-1.1,5.1h-3.6L166.4,156.2z M168.8,161.6h0.5c0.6,0,1.3-0.3,1.5-1.5c0.2-1.1-0.2-1.3-1.1-1.3
					h-0.4L168.8,161.6z"/>
				<path class="st1" d="M180.5,158.9L180.5,158.9l-0.3,5.3h-1.6L180.5,158.9z M178.9,156.1l-5.7,12.8h3.7l0.8-2h2.4v2h3.7
					l-0.4-12.8L178.9,156.1z"/>
				<polygon class="st1" points="192.7,156 191.1,163.9 191.1,163.9 190.9,156 187,156.1 184.3,168.9 187.6,168.9 189.2,161 
					189.3,161 189.6,168.9 193.5,168.8 196.1,156 				"/>
				<path class="st1" d="M201.8,159.1c0.1-0.5,0-1-0.6-1c-0.5,0.1-0.9,0.5-1,1c-0.5,2.6,5.1,1.2,4.1,5.8c-0.6,3-2.2,4.2-5.6,4.2
					c-2.8,0-4.1-0.9-3.5-3.7l0.1-0.3h3.5l-0.1,0.6c-0.1,0.6,0,1.1,0.7,1.1s1-0.6,1.1-1.1c0.2-0.8-0.1-1-0.5-1.3s-1-0.5-1.6-0.8
					c-1.7-1-2.2-1.6-1.8-3.6c0.2-1.4,0.9-2.6,2.1-3.4c0.9-0.6,2-0.8,3.1-0.8c3.6,0,3.9,1.8,3.4,3.9h-3.4L201.8,159.1z"/>
				<path class="st1" d="M207.2,156h5.2c1.6,0,2.5,0.6,2.9,1.6s0.3,1.7-0.3,4.7c-0.6,2.8-1.4,6.4-5.2,6.4h-5.2L207.2,156z
					 M208.7,166.2h0.7c0.9,0,1.2-1,1.4-2l0.8-3.7c0.3-1.3,0.3-2-0.9-1.9h-0.5L208.7,166.2z"/>
				<polygon class="st1" points="217.3,155.9 214.6,168.7 218.2,168.7 220.9,155.9 				"/>
				<polygon class="st1" points="222.1,155.9 219.4,168.7 227.3,168.6 227.9,165.8 223.6,165.8 224.1,163.5 228,163.5 228.5,160.7 
					224.7,160.7 225.1,158.8 229.2,158.8 229.8,155.8 				"/>
				<path class="st1" d="M235.3,159c0.1-0.5,0-1-0.6-1c-0.5,0-1,0.5-1,1c-0.5,2.6,5.1,1.2,4.1,5.8c-0.6,3-2.2,4.2-5.6,4.2
					c-2.8,0-4.1-0.9-3.5-3.7l0.1-0.3h3.5l-0.1,0.6c-0.1,0.6,0,1.1,0.7,1.1s1-0.6,1.1-1.1c0.2-0.8-0.1-1-0.5-1.3s-1-0.5-1.6-0.8
					c-1.7-1-2.2-1.7-1.9-3.6c0.2-1.4,0.9-2.6,2.1-3.4c0.9-0.5,2-0.8,3.1-0.8c3.6,0,3.9,1.8,3.4,3.9h-3.4L235.3,159z"/>
				<polygon class="st1" points="240.7,155.8 248.4,155.7 247.8,158.6 243.7,158.7 243.3,160.6 247.1,160.6 246.6,163.4 
					242.7,163.4 242.2,165.7 246.5,165.6 245.9,168.6 238,168.6 				"/>
				<polygon class="st1" points="249.7,155.7 253.2,155.7 251.2,165.6 255.1,165.6 254.5,168.5 247,168.6 				"/>
				<path class="st1" d="M258.5,165.4c0.7,0,1.4,0.5,1.4,1.3c0,0.1,0,0.3,0,0.4c-0.2,1-1.1,1.7-2.1,1.7c-0.7,0-1.4-0.5-1.4-1.3
					c0-0.1,0-0.3,0-0.4C256.7,166.1,257.5,165.4,258.5,165.4 M258.4,165.9c-0.7,0-1.3,0.5-1.4,1.2c-0.2,0.5,0,1,0.5,1.2
					c0.1,0.1,0.3,0.1,0.4,0.1c0.7,0,1.3-0.5,1.4-1.2C259.5,166.3,259.1,165.9,258.4,165.9 M258,167.3L258,167.3l-0.2,0.7h-0.4
					l0.4-1.8h0.7c0.4,0,0.7,0.1,0.6,0.6c0,0.3-0.3,0.5-0.6,0.5l0.3,0.7h-0.5L258,167.3z M258.3,166.9c0.1,0,0.2-0.1,0.3-0.2
					c0-0.1,0-0.2-0.2-0.2H258l-0.1,0.4H258.3z"/>
				<polygon class="st1" points="254.3,162.5 254.9,162.5 254.6,163.5 255.5,163.5 255.4,163.8 253.8,163.8 				"/>
				<polygon class="st1" points="256.3,162.9 255.7,162.9 255.8,162.5 257.6,162.5 257.5,162.8 256.9,162.9 256.6,163.8 
					255.9,163.8 				"/>
				<path class="st1" d="M257.9,162.5h1c0.4,0,0.9,0.1,0.8,0.5s-0.5,0.7-1.2,0.7h-1L257.9,162.5z M258.2,163.4h0.3
					c0.4,0,0.5-0.3,0.5-0.4s-0.1-0.2-0.4-0.2h-0.2L258.2,163.4z"/>
				<path class="st1" d="M146.9,155.2c-3.7,0-6.6,3-6.6,6.7c0,1.3,0.4,2.5,1.1,3.6l4.7-4.7h-3v-2.3l7.2-0.1l0.1,7h-2.5v-2.8
					l-4.6,4.7c3.1,2,7.2,1.2,9.2-1.9s1.2-7.2-1.9-9.2C149.5,155.5,148.2,155.2,146.9,155.2"/>
				<path class="st1" d="M132.6,155.3c-3.6,0-6.6,3-6.6,6.6c0,0,0,0,0,0c0,1.3,0.4,2.5,1.1,3.6l4.7-4.7h-3v-2.3l7.2-0.1l0.1,7h-2.5
					v-2.7l-4.6,4.7c1.1,0.7,2.4,1.1,3.7,1.1c3.7,0,6.6-3,6.6-6.6S136.2,155.3,132.6,155.3L132.6,155.3"/>
			</g>
		</g>
		<polygon class="st1" points="156,172.1 153.5,184.6 251.1,184.6 253.7,172.1 		"/>
		<g>
			<defs>
				<rect id="SVGID_00000093151719685086736740000013741310221871324044_" width="300" height="250"/>
			</defs>
			<clipPath id="SVGID_00000111911644622448335630000001004172429945739157_">
				<use xlink:href="#SVGID_00000093151719685086736740000013741310221871324044_"  style="overflow:visible;"/>
			</clipPath>
			<g style="clip-path:url(#SVGID_00000111911644622448335630000001004172429945739157_);">
				<path class="st5" d="M238.8,181.1l0.3-1.3h-1.3l-0.3,1.3H238.8z M234.5,181.1l0.3-1.4l0.4-0.6l0.3,2h1.5l-0.6-3.2l1.8-2.6h-1.4
					l-1.5,2.3l0,0l0.5-2.3h-1.4l-1.2,5.8L234.5,181.1z M233.3,177.3l0.1-0.5c0.2-1.2-0.3-1.7-1.5-1.7c-1.1-0.1-2.1,0.7-2.2,1.9
					c0,0,0,0,0,0l-0.5,2.4c-0.3,1.2,0.1,1.9,1.4,1.9c1.1,0.1,2.1-0.6,2.3-1.7l0.1-0.7h-1.4l-0.1,0.5c-0.1,0.4-0.2,0.8-0.7,0.8
					s-0.4-0.2-0.4-0.5l0.6-2.9c0.1-0.4,0.2-0.6,0.7-0.6c0.3,0,0.4,0.3,0.3,0.8l-0.1,0.4H233.3z M227.5,179h-0.8l1-2.6l0,0L227.5,179
					z M225.9,181.2l0.4-1.1h1.1v1.1h1.4v-5.8H227l-2.5,5.8H225.9z M222.7,181.2c1,0.1,2-0.7,2.1-1.7c0.2-0.7,0.1-1-0.4-1.4l0,0
					c0.5-0.2,0.8-0.7,0.9-1.2c0.2-1.2-0.5-1.5-1.5-1.5H222l-1.2,5.8L222.7,181.2z M223.2,176.4c0.5,0,0.9,0,0.8,0.6s-0.4,0.6-1,0.7
					L223.2,176.4z M222.7,178.7c0.6,0,1,0,0.8,0.7s-0.4,0.7-1.1,0.8L222.7,178.7z M216.7,178.9h0.4c0.3,0,0.4,0.3,0.3,0.6
					s-0.2,0.8-0.2,1.3c0,0.1,0,0.2,0,0.3h1.5v-0.1c0-0.1-0.1-0.1-0.1-0.2c0-0.4,0.2-1.4,0.3-1.8c0.1-0.3-0.1-0.7-0.5-0.7
					c0,0,0,0,0,0l0,0c0.6-0.2,0.9-0.7,1-1.3c0.2-1.2-0.2-1.6-1.3-1.6h-2l-1.2,5.8h1.4L216.7,178.9z M217.2,176.4
					c0.7,0,0.9,0,0.8,0.7c-0.1,0.4-0.2,0.7-0.6,0.7h-0.5L217.2,176.4z M211,179.5c-0.3,1.2,0.3,1.8,1.5,1.8c1.1,0.1,2.1-0.7,2.2-1.8
					l0.9-4.2h-1.4l-0.9,4.4c0,0.3-0.3,0.5-0.6,0.6c-0.4,0-0.4-0.2-0.4-0.5l0.9-4.4h-1.4L211,179.5z M211,176.9
					c0.2-1.1-0.3-1.7-1.5-1.7c-1.1-0.1-2,0.7-2.2,1.7l-0.5,2.4c-0.3,1.3,0,2,1.4,2s2-0.7,2.3-2L211,176.9z M209.1,179.4
					c-0.1,0.3-0.2,0.8-0.7,0.8s-0.4-0.5-0.3-0.8l0.5-2.4c0.1-0.4,0.2-0.8,0.7-0.8s0.4,0.4,0.3,0.8L209.1,179.4z M205,175.3h-1.4
					l0.7,3.4l-0.5,2.4h1.4l0.5-2.4l2.1-3.4h-1.4l-1.1,1.9l0,0L205,175.3z M198,176.5h1l-1,4.6h1.4l1-4.6h1.1l0.2-1.2h-3.5L198,176.5
					z M197.9,176.9c0.2-1.1-0.3-1.7-1.5-1.7c-1.1-0.1-2.1,0.7-2.2,1.7l-0.5,2.4c-0.3,1.3,0,2,1.4,2s2-0.7,2.3-2L197.9,176.9z
					 M196,179.4c-0.1,0.3-0.2,0.8-0.6,0.8s-0.4-0.5-0.3-0.8l0.5-2.4c0.1-0.4,0.2-0.8,0.7-0.8s0.4,0.4,0.3,0.8L196,179.4z
					 M192.7,181.1l0.7-3.2h-1.9l-0.2,1h0.5l-0.1,0.5c-0.1,0.4-0.2,0.7-0.6,0.7s-0.5-0.2-0.4-0.5l0.6-2.9c0.1-0.4,0.2-0.6,0.7-0.6
					s0.4,0.3,0.3,0.8l-0.1,0.3h1.4l0.1-0.4c0.3-1.2-0.3-1.7-1.5-1.7c-1.1-0.1-2.1,0.7-2.2,1.9c0,0,0,0,0,0l-0.5,2.4
					c-0.2,1.1,0,1.9,1.1,1.9c0.5,0,1-0.2,1.3-0.6l0,0v0.5L192.7,181.1z M186.9,181.1l0.2-1.2h-1.9l0.3-1.2h1.7l0.2-1.2h-1.7l0.2-1.1
					h1.8l0.2-1.2h-3.1l-1.2,5.8H186.9z M182.2,181.1l2.5-5.8h-1.4l-1.6,4.1l0,0l0.2-4.1h-1.4v5.8H182.2z M178.5,177.7
					c0.7,0,1.3-0.5,1.5-1.2l0.3-1.2H179l-0.3,1.2h0.6c0,0.4-0.4,0.7-0.8,0.8L178.5,177.7z M177.4,181.1l0.2-1.2h-1.9l0.3-1.2h1.7
					l0.2-1.2h-1.7l0.2-1.1h1.8l0.2-1.2h-3.1l-1.2,5.8H177.4z M172.9,175.3h-1.3l-1.4,4.1l0,0l0.5-4.1h-1.3l-0.3,5.8h1.5l1.3-4.1l0,0
					l-0.4,4.1h1.5l2.2-5.8h-1.3l-1.3,4.1l0,0L172.9,175.3z"/>
			</g>
		</g>
	</g>
</g>
</svg>
