<?xml version="1.0" encoding="utf-8"?>
<!-- Generator: Adobe Illustrator 26.0.2, SVG Export Plug-In . SVG Version: 6.00 Build 0)  -->
<svg version="1.1" id="Layer_1" xmlns="http://www.w3.org/2000/svg" xmlns:xlink="http://www.w3.org/1999/xlink" x="0px" y="0px"
	 viewBox="0 0 300 250" style="enable-background:new 0 0 300 250;" xml:space="preserve">
<style type="text/css">
	.st0{fill:#FFFFFF;}
	.st1{clip-path:url(#SVGID_00000073713463025323330300000001609791553312288675_);}
	.st2{fill:#FFD200;}
	.st3{fill:#EE3124;}
	.st4{fill:#005596;}
</style>
<g>
	<g>
		<rect x="126" y="202.5" class="st0" width="104.7" height="31.5"/>
		<g>
			<defs>
				<rect id="SVGID_1_" x="126" y="202.5" width="104.7" height="31.5"/>
			</defs>
			<clipPath id="SVGID_00000008853353599319138440000001262539499044158873_">
				<use xlink:href="#SVGID_1_"  style="overflow:visible;"/>
			</clipPath>
			<g style="clip-path:url(#SVGID_00000008853353599319138440000001262539499044158873_);">
				<path class="st0" d="M139.2,223.7l0.5,4.1h5.5l0.3,0.2c0.3,0.2,0.6,0.3,1,0.3c0.4,0,0.7-0.1,1-0.3l0.4-0.2h5.5l0.5-4.1l3.2-2.4
					c0.2-0.7,0.3-1.4,0.2-2.1c0.2-5.9-4.5-10.9-10.4-11.1c-5.9-0.2-10.9,4.5-11.1,10.4c0,0.2,0,0.4,0,0.7c0,0.7,0.1,1.4,0.2,2.1
					L139.2,223.7z"/>
				<path class="st2" d="M136.4,221.1c-0.2-0.7-0.2-1.3-0.2-2c-0.2-5.7,4.3-10.5,10.1-10.7s10.5,4.3,10.7,10.1c0,0.2,0,0.4,0,0.6
					c0,0.7-0.1,1.3-0.2,2l-3.2,2.3l-0.5,3.9h-5.3l-0.3,0.2c-0.3,0.2-0.6,0.3-0.9,0.3c-0.3,0-0.7-0.1-0.9-0.3l-0.3-0.2H140l-0.5-3.9
					L136.4,221.1z"/>
				<path class="st3" d="M136.4,221.1c-0.2-0.7-0.2-1.3-0.2-2c-0.2-5.7,4.3-10.5,10.1-10.7s10.5,4.3,10.7,10.1c0,0.2,0,0.4,0,0.6
					c0,0.7-0.1,1.3-0.2,2l-3.2,2.3l-0.5,3.9h-5.3l-0.3,0.2c-0.3,0.2-0.6,0.3-0.9,0.3c-0.3,0-0.7-0.1-0.9-0.3l-0.3-0.2H140l-0.5-3.9
					L136.4,221.1z M145.5,225.5l0.4,0.4c0.3,0.3,0.9,0.3,1.2,0l0.4-0.4h3.9l0.4-3.2l3.1-2.2c0.1-0.4,0.2-0.7,0.1-1.1
					c0-0.6-0.1-1.2-0.4-1.7l0,0l-5.6,5.6l5.4-6.6c-0.2-0.9-0.6-1.7-1.3-2.3l0,0l-4.8,8.4l4.2-9.1l0,0c-0.5-0.7-1.3-1.3-2.2-1.6
					l-3,10.3l2.1-10.8c-0.7-0.4-1.4-0.6-2.2-0.6c-0.2,0-0.3,0-0.5,0l-0.4,11.3l-0.5-11.2c-0.2,0-0.3,0-0.5,0c-0.7,0-1.5,0.2-2.1,0.6
					l0,0l2.2,10.8l-3-10.4c-0.9,0.3-1.7,0.8-2.2,1.6l4.3,9.1l-4.8-8.4c-0.7,0.6-1.2,1.4-1.4,2.3l5.4,6.7l-5.6-5.6l0,0
					c-0.2,0.6-0.4,1.2-0.4,1.8c0,0.4,0,0.7,0.1,1.1l3.1,2.3l0.4,3.1L145.5,225.5z"/>
				<path class="st4" d="M170.2,214.8c-0.3-0.2-0.6-0.3-0.9-0.4c-0.2,0-0.6,0.1-0.6,0.4s0.4,0.4,0.6,0.5l0.4,0.1
					c0.7,0.2,1.3,0.6,1.3,1.4c0,0.5-0.2,1-0.5,1.4c-0.4,0.3-1,0.5-1.5,0.5c-0.7,0-1.3-0.2-1.9-0.6l0.6-1.1c0.3,0.3,0.8,0.5,1.2,0.5
					c0.3,0,0.7-0.2,0.7-0.5s-0.5-0.5-0.8-0.6c-0.9-0.2-1.4-0.5-1.4-1.5c0-0.9,0.7-1.7,1.6-1.8c0.1,0,0.1,0,0.2,0
					c0.6,0,1.1,0.2,1.6,0.4L170.2,214.8z"/>
				<path class="st4" d="M172.7,212.9v2.7l0,0c0.3-0.4,0.7-0.6,1.1-0.6c0.9,0,1.3,0.6,1.3,1.5v2.2H174v-1.8c0-0.4-0.1-0.9-0.6-0.9
					s-0.7,0.4-0.7,0.9v1.8h-1.3v-5.8L172.7,212.9z"/>
				<path class="st4" d="M179.6,217.1h-2.7c0,0.4,0.2,0.7,0.6,0.8c0.1,0,0.1,0,0.2,0c0.3,0,0.5-0.1,0.6-0.3h1.2
					c-0.2,0.8-1,1.3-1.8,1.2c-1,0.1-1.9-0.6-2.1-1.6c0-0.1,0-0.2,0-0.3c0.2-1.1,1.3-1.8,2.3-1.6c0.8,0.2,1.5,0.8,1.6,1.7
					L179.6,217.1z M178.4,216.4c-0.1-0.4-0.5-0.6-0.9-0.5c-0.3,0.1-0.5,0.3-0.5,0.5H178.4z"/>
				<rect x="179.9" y="212.9" class="st4" width="1.3" height="5.8"/>
				<rect x="181.9" y="212.9" class="st4" width="1.3" height="5.8"/>
				<polygon class="st4" points="187.4,217.5 189.1,217.5 189.1,218.7 186.1,218.7 186.1,213.4 187.4,213.4 				"/>
				<path class="st4" d="M190.5,215.1v1.9c0,0.4,0.1,0.8,0.6,0.8s0.6-0.3,0.6-0.8v-1.9h1.3v2.1c0,1.2-0.8,1.5-1.9,1.5
					s-1.9-0.4-1.9-1.5v-2.1H190.5z"/>
				<path class="st4" d="M193.7,212.9h1.3v2.6c0.3-0.3,0.7-0.5,1.1-0.4c1.1,0.1,1.8,1,1.8,2c-0.1,0.9-0.8,1.7-1.8,1.8
					c-0.4,0-0.8-0.2-1.1-0.5l0,0v0.4h-1.3L193.7,212.9z M194.9,216.9c0,0.5,0.5,0.8,0.9,0.7c0.4,0,0.7-0.3,0.7-0.7
					c0-0.5-0.5-0.8-0.9-0.7C195.2,216.2,194.9,216.5,194.9,216.9"/>
				<path class="st4" d="M199.6,215.7L199.6,215.7c0.2-0.4,0.7-0.7,1.2-0.6h0.3v1.2c-0.2-0.1-0.3-0.1-0.5-0.1
					c-0.7,0-0.9,0.5-0.9,1.1v1.4h-1.3v-3.6h1.3L199.6,215.7z"/>
				<path class="st4" d="M202.6,213.7c0,0.4-0.3,0.7-0.7,0.7s-0.7-0.3-0.7-0.7s0.3-0.7,0.7-0.7S202.6,213.3,202.6,213.7L202.6,213.7
					 M202.5,218.7h-1.3v-3.6h1.3V218.7z"/>
				<path class="st4" d="M205.8,216.3c-0.2-0.2-0.4-0.2-0.6-0.2c-0.5,0-0.9,0.4-0.9,0.8c0,0,0,0,0,0c0,0.5,0.3,0.9,0.8,0.9
					c0,0,0,0,0.1,0c0.2,0,0.5-0.1,0.6-0.2v1.1c-0.3,0.1-0.6,0.2-0.9,0.2c-1,0-1.9-0.8-1.9-1.8c0,0,0,0,0,0c0-1.1,0.8-1.9,1.9-1.9
					c0,0,0.1,0,0.1,0c0.3,0,0.6,0.1,0.8,0.2L205.8,216.3z"/>
				<path class="st4" d="M210.2,218.7H209v-0.4l0,0c-0.3,0.3-0.7,0.5-1.1,0.5c-1.1-0.1-1.8-1-1.8-2c0.1-0.9,0.8-1.7,1.8-1.8
					c0.4,0,0.8,0.2,1.1,0.5v-0.4h1.3L210.2,218.7z M207.4,216.9c0,0.5,0.5,0.8,0.9,0.7c0.4,0,0.7-0.3,0.7-0.7c0-0.5-0.5-0.8-0.9-0.7
					C207.7,216.2,207.4,216.5,207.4,216.9"/>
				<path class="st4" d="M212.1,215.6L212.1,215.6c0.2-0.4,0.7-0.6,1.1-0.6c1,0,1.3,0.6,1.3,1.5v2.2h-1.3v-1.7
					c0-0.3,0.1-0.9-0.6-0.9s-0.7,0.4-0.7,0.8v1.9h-1.3v-3.6h1.3L212.1,215.6z"/>
				<polygon class="st4" points="216.7,218.7 215.4,218.7 215.4,216.1 215,216.1 215,215.1 215.4,215.1 215.4,214 216.7,214 
					216.7,215.1 217.4,215.1 217.4,216.1 216.7,216.1 				"/>
				<path class="st4" d="M220,216c-0.2-0.1-0.4-0.2-0.7-0.2c-0.1,0-0.4,0.1-0.4,0.2s0.4,0.3,0.6,0.3c0.6,0.1,1,0.4,1,1.1
					c0,0.9-0.9,1.3-1.7,1.3c-0.5,0-1-0.1-1.4-0.4l0.5-0.9c0.3,0.2,0.6,0.3,1,0.4c0.2,0,0.4-0.1,0.4-0.3s-0.4-0.3-0.8-0.4
					c-0.5-0.1-0.8-0.5-0.8-0.9c0-0.9,0.8-1.3,1.6-1.3c0.4,0,0.8,0.1,1.2,0.2L220,216z"/>
				<path class="st4" d="M167.2,220.3h1.9c1.4-0.1,2.7,1,2.8,2.5c0.1,1.4-1,2.7-2.5,2.8c-0.1,0-0.2,0-0.3,0h-1.9V220.3z
					 M168.6,224.4h0.3c0.8,0,1.5-0.7,1.5-1.5s-0.7-1.5-1.5-1.5h-0.3L168.6,224.4z"/>
				<path class="st4" d="M173.6,220.6c0,0.4-0.3,0.7-0.7,0.7s-0.7-0.3-0.7-0.7s0.3-0.7,0.7-0.7S173.6,220.2,173.6,220.6L173.6,220.6
					 M173.6,225.5h-1.3V222h1.3V225.5z"/>
				<path class="st4" d="M176.6,222.9c-0.2-0.1-0.4-0.2-0.7-0.2c-0.1,0-0.4,0.1-0.4,0.2s0.4,0.3,0.6,0.3c0.6,0.1,1,0.4,1,1.1
					c0,0.9-0.9,1.3-1.7,1.3c-0.5,0-1-0.1-1.4-0.4l0.5-0.9c0.3,0.2,0.6,0.3,1,0.4c0.2,0,0.4-0.1,0.4-0.3s-0.4-0.3-0.8-0.4
					c-0.5-0.1-0.8-0.5-0.8-0.9c0-0.9,0.8-1.3,1.6-1.3c0.4,0,0.8,0.1,1.2,0.2L176.6,222.9z"/>
				<polygon class="st4" points="179,225.5 177.7,225.5 177.7,223 177.3,223 177.3,221.9 177.7,221.9 177.7,220.9 179,220.9 
					179,221.9 179.7,221.9 179.7,223 179,223 				"/>
				<path class="st4" d="M181.2,222.5L181.2,222.5c0.2-0.4,0.7-0.7,1.1-0.6h0.2v1.2c-0.2-0.1-0.4-0.1-0.5-0.1
					c-0.7,0-0.9,0.5-0.9,1.1v1.4H180V222h1.3L181.2,222.5z"/>
				<path class="st4" d="M184.3,220.6c0,0.4-0.3,0.7-0.7,0.7s-0.7-0.3-0.7-0.7s0.3-0.7,0.7-0.7S184.3,220.2,184.3,220.6L184.3,220.6
					 M184.2,225.5H183V222h1.3L184.2,225.5z"/>
				<path class="st4" d="M184.8,219.8h1.3v2.6c0.3-0.3,0.7-0.5,1.1-0.5c1.1,0.1,1.8,1,1.8,2c-0.1,0.9-0.8,1.7-1.8,1.8
					c-0.4,0-0.8-0.2-1.1-0.5l0,0v0.4h-1.3L184.8,219.8z M186.1,223.8c0,0.5,0.5,0.8,0.9,0.7c0.4,0,0.7-0.3,0.7-0.7
					c0-0.5-0.5-0.8-0.9-0.7C186.4,223.1,186.1,223.4,186.1,223.8"/>
				<path class="st4" d="M190.7,222v1.9c0,0.4,0.1,0.8,0.6,0.8s0.6-0.3,0.6-0.8V222h1.3v2.1c0,1.2-0.8,1.5-1.9,1.5s-1.9-0.4-1.9-1.5
					V222H190.7z"/>
				<polygon class="st4" points="195.3,225.5 194,225.5 194,223 193.6,223 193.6,221.9 194,221.9 194,220.9 195.3,220.9 
					195.3,221.9 196,221.9 196,223 195.3,223 				"/>
				<path class="st4" d="M200.3,223.7c0.1,1.2-0.7,2.3-1.9,2.4c-1.2,0.1-2.3-0.7-2.4-1.9c-0.1-1.2,0.7-2.3,1.9-2.4
					c0.1,0,0.2,0,0.3,0C199.2,221.7,200.2,222.6,200.3,223.7C200.3,223.7,200.3,223.7,200.3,223.7 M197.3,223.7
					c0,0.5,0.5,0.8,0.9,0.7c0.4,0,0.7-0.3,0.7-0.7c0-0.5-0.5-0.8-0.9-0.7C197.6,223.1,197.3,223.4,197.3,223.7"/>
				<path class="st4" d="M201.9,222.5L201.9,222.5c0.2-0.4,0.7-0.7,1.1-0.6h0.2v1.2c-0.2-0.1-0.4-0.1-0.5-0.1
					c-0.7,0-0.9,0.5-0.9,1.1v1.4h-1.3V222h1.3L201.9,222.5z"/>
			</g>
		</g>
	</g>
</g>
</svg>
