<svg xmlns="http://www.w3.org/2000/svg" viewBox="0 0 383.16 417.45"><defs><style>.cls-1{fill:#f6a32e;}</style></defs><title>tiger-pattern</title><g id="Layer_2" data-name="Layer 2"><g id="Tiger_Stripe" data-name="Tiger Stripe"><path class="cls-1" d="M49.1,124.7c28.75,16.5,60.49,21.51,92.55,25.66a51.23,51.23,0,0,1,8.62,1.74c20.55,6.46,36,3,48.61-17.2,6.68-10.73,20-18,31.4-25C263,90.1,296.15,71,329.19,51.75c-1.9-2.09-3.83-4.17-5.83-6.22-.66-.67-1.33-1.32-2-2-48.43,26.53-97,52.77-145.44,79.31-14.24,7.81-27.7,7.07-41.72-.72C116,112,97.1,102.92,78.83,92.82,70,87.9,61.58,82.29,55.87,74.25a272.75,272.75,0,0,0-28.41,46.33c1.17,0,2.35.07,3.53.17C37.13,121.22,44,121.76,49.1,124.7Z"/><path class="cls-1" d="M252.57,17.31c8.88-1.66,17.91-2.64,26.94-3.45C248.76-.66,214.29-3.36,178.33,3.84a302.2,302.2,0,0,0-39,10.31A49.83,49.83,0,0,1,146,15.61C181.41,26.25,216.87,24,252.57,17.31Z"/><path class="cls-1" d="M75.77,176.4c22.59,4.74,45.22,9.33,67.74,14.37,23.56,5.27,46.54,2.59,67.43-8.4C242,166,272,147.5,302.56,130.19c19.54-11.06,39.12-22.09,59-32.46a208.86,208.86,0,0,0-17.68-28.15c-3.2,10.5-11.45,16.09-28.06,22.44-9.91,3.8-19.9,7.66-30.16,10.29-23.92,6.14-43.89,18.46-59.62,37.28-31.33,37.5-71.79,43.61-114.54,28.49-27.34-9.67-54.71-15.48-83-19.23-4.75-.63-8.54-2.21-11.21-4.53q-3.72,10-6.73,20.34-2.79,9.61-5.53,19.25C27.29,174.48,50.68,171.14,75.77,176.4Z"/><path class="cls-1" d="M149.38,286.34c20.25-7.65,38.93-19.45,58.32-29.38-.85-2-1.69-4-2.54-6-66.89,2.54-128.68,22.15-187.1,52.18q2.82,6.33,5.8,12.59a20.86,20.86,0,0,1,8.21-4.83c25.15-6.68,47.58-18.45,69.4-31.94a45.66,45.66,0,0,1,5.66-2.51l2.76,2.32c-2.74,3.9-4.73,8.76-8.33,11.55Q69.1,315.58,36.19,340.2,41.08,349,46.56,357c.35-.44.71-.86,1.08-1.24C76.63,325.48,109.63,301.37,149.38,286.34Z"/><path class="cls-1" d="M200.36,79a137.84,137.84,0,0,1,30.78-19c17-7.41,34.63-13.29,52.29-18.9,9.07-2.87,18.45-4.78,27.81-6.74A152.24,152.24,0,0,0,295,22.39a51.19,51.19,0,0,1-6.14,2.32c-29.73,8.93-60.22,15.15-88.1,30.07-15.42,8.24-32.32,5.79-47.39-3.1a300.19,300.19,0,0,1-32.66-22.2c-1.78-1.39-2.85-3.69-3.76-6.2A164.47,164.47,0,0,0,88.2,40.77a15.11,15.11,0,0,1,.86,2.29C99.73,81.09,166.73,106,200.36,79Z"/><path class="cls-1" d="M149,347.48c18.87-9,37.92-17.63,56.41-27.33A390.65,390.65,0,0,1,288.12,288c18-4.73,34.56-15.3,51.23-24.23,13-7,25-16,37.89-23.12q2.83-13.42,4.45-27.6a223.33,223.33,0,0,0,1.46-27.45c-17.9,9.58-31.81,23.62-43.94,39.61-16.32,21.53-39.36,32.06-64.34,39.36-2.11.62-4.65-.21-6.57-.34,22.78-26.09,44.92-51.28,66.88-76.63,13.05-15.05,28.06-26,45.54-31.77a189.08,189.08,0,0,0-10.28-38.45A200.08,200.08,0,0,1,325.62,148a201.77,201.77,0,0,0-41.11,27c-18.2,15.55-38.15,26.44-60.75,34.25-37.35,12.89-73.2,17.56-112,2.55-29.5-11.39-61.87-16.45-94.13-10.53A126.59,126.59,0,0,0,0,206.12V254.5c2.73,9.51,5.92,18.82,9.45,28,4.16-1.83,8.35-3.62,12.43-5.58,18.48-8.83,36.92-17.78,55.46-26.5,5.61-2.64,11.29-5.71,17.27-6.85,24.48-4.68,49.05-8.87,73.65-12.83,5.72-.92,12-1.39,17.53-.12,26.78,6.13,50.76-1.18,73.87-13.92,4.45-2.46,9.13-4.5,16.23-8-1.71,5.85-2.18,10-4,13.4-21.08,38.75-50.65,69-90.64,88.23C172.43,314.57,162.59,317,153,319c-29.22,5.84-53.33,19.43-71.83,43.21-4.77,6.13-9.89,12-15.29,18a130,130,0,0,0,21.3,17.11c1.28-1.74,2.58-3.47,3.92-5.17C106.54,372.53,126.42,358.19,149,347.48ZM69.31,240.37c-19.79,4.19-40.16,5.65-59.85,8.2,4.94-17.66,45.92-29.89,91.36-26.21.59,1.29,1.19,2.57,1.78,3.86C91.54,231.08,80.89,237.91,69.31,240.37Z"/><path class="cls-1" d="M319.39,308.11c-26.62,4.16-52.81,11.49-78.89,18.56-13.37,3.62-23.63,12.53-31.73,24.19-10.21,14.69-24.62,23.85-42.08,28.06A195.6,195.6,0,0,0,104,406.3a134.58,134.58,0,0,0,32.83,9.58,21.43,21.43,0,0,1,4.08,1.57H145c.81-.29,1.64-.57,2.5-.82C200.75,401,247.62,374,290.59,339.48c2.73-2.19,7.12-2.3,10.73-3.39.62,4.05,3.18,9.34,1.52,11.93-4.79,7.47-9.55,15.5-15.51,22,32.55-18.84,55.49-44,70.83-74.05C346.41,302.07,333.56,305.89,319.39,308.11Z"/><path d="M153,319c9.63-1.92,19.47-4.39,28.26-8.61,40-19.2,69.56-49.48,90.64-88.23,1.85-3.4,2.32-7.55,4-13.4-7.1,3.47-11.78,5.51-16.23,8-23.11,12.74-47.09,20.05-73.87,13.92-5.56-1.27-11.81-.8-17.53.12-24.6,4-49.17,8.15-73.65,12.83-6,1.14-11.66,4.21-17.27,6.85-18.54,8.72-37,17.67-55.46,26.5-4.08,2-8.27,3.75-12.43,5.58q4,10.45,8.61,20.69c58.42-30,120.21-49.64,187.1-52.18.85,2,1.69,4,2.54,6-19.39,9.93-38.07,21.73-58.32,29.38-39.75,15-72.75,39.14-101.74,69.37-.37.38-.73.8-1.08,1.24a160.34,160.34,0,0,0,19.28,23.2c5.4-6,10.52-11.85,15.29-18C99.63,338.39,123.74,324.8,153,319Z"/><path d="M111.73,211.81c38.83,15,74.68,10.34,112-2.55,22.6-7.81,42.55-18.7,60.75-34.25a201.77,201.77,0,0,1,41.11-27,200.08,200.08,0,0,0,44.82-30.65,194.79,194.79,0,0,0-8.85-19.64c-19.91,10.37-39.49,21.4-59,32.46C272,147.5,242,166,210.94,182.37c-20.89,11-43.87,13.67-67.43,8.4-22.52-5-45.15-9.63-67.74-14.37-25.09-5.26-48.48-1.92-70.72,7.51q-2.52,8.88-5,17.74v4.47a126.59,126.59,0,0,1,17.6-4.84C49.86,195.36,82.23,200.42,111.73,211.81Z"/><path d="M208.77,350.86c8.1-11.66,18.36-20.57,31.73-24.19,26.08-7.07,52.27-14.4,78.89-18.56,14.17-2.22,27-6,38.77-12.16a222.14,222.14,0,0,0,19.08-55.31c-12.93,7.16-24.87,16.14-37.89,23.12-16.67,8.93-33.26,19.5-51.23,24.23a390.65,390.65,0,0,0-82.76,32.16c-18.49,9.7-37.54,18.36-56.41,27.33-22.53,10.71-42.41,25-57.89,44.61-1.34,1.7-2.64,3.43-3.92,5.17a123.66,123.66,0,0,0,16.88,9,195.6,195.6,0,0,1,62.67-27.38C184.15,374.71,198.56,365.55,208.77,350.86Z"/><path d="M78.83,92.82C97.1,102.92,116,112,134.2,122.14c14,7.79,27.48,8.53,41.72.72,48.43-26.54,97-52.78,145.44-79.31q-5-4.92-10.12-9.27c-9.36,2-18.74,3.87-27.81,6.74-17.66,5.61-35.34,11.49-52.29,18.9a137.84,137.84,0,0,0-30.78,19C166.73,106,99.73,81.09,89.06,43.06a15.11,15.11,0,0,0-.86-2.29,146.78,146.78,0,0,0-23,21.85q-4.83,5.72-9.32,11.63C61.58,82.29,70,87.9,78.83,92.82Z"/><path d="M111.53,168.08c42.75,15.12,83.21,9,114.54-28.49,15.73-18.82,35.7-31.14,59.62-37.28C296,99.68,305.94,95.82,315.85,92c16.61-6.35,24.86-11.94,28.06-22.44q-6.8-9.13-14.72-17.83C296.15,71,263,90.1,230.28,109.94c-11.44,6.94-24.72,14.23-31.4,25-12.58,20.21-28.06,23.66-48.61,17.2a51.23,51.23,0,0,0-8.62-1.74c-32.06-4.15-63.8-9.16-92.55-25.66-5.13-2.94-12-3.48-18.11-4-1.18-.1-2.36-.16-3.53-.17q-5.61,11.6-10.15,23.74c2.67,2.32,6.46,3.9,11.21,4.53C56.82,152.6,84.19,158.41,111.53,168.08Z"/><path d="M301.32,336.09c-3.61,1.09-8,1.2-10.73,3.39-43,34.54-89.84,61.49-143.1,77.15-.86.25-1.69.53-2.5.82h22.36c2.8-.87,5.53-2.12,8.39-2.56,37.33-5.74,70.26-23.18,103.05-40.18,2.93-1.52,5.76-3.1,8.54-4.71,6-6.48,10.72-14.51,15.51-22C304.5,345.43,301.94,340.14,301.32,336.09Z"/><path d="M120.72,29.48a300.19,300.19,0,0,0,32.66,22.2c15.07,8.89,32,11.34,47.39,3.1,27.88-14.92,58.37-21.14,88.1-30.07A51.19,51.19,0,0,0,295,22.39a142.49,142.49,0,0,0-15.5-8.53c-9,.81-18.06,1.79-26.94,3.45-35.7,6.67-71.16,8.94-106.6-1.7a49.83,49.83,0,0,0-6.61-1.46A208.92,208.92,0,0,0,117,23.28C117.87,25.79,118.94,28.09,120.72,29.48Z"/><path d="M335.18,187.59c-22,25.35-44.1,50.54-66.88,76.63,1.92.13,4.46,1,6.57.34,25-7.3,48-17.83,64.34-39.36,12.13-16,26-30,43.94-39.61a202,202,0,0,0-2.43-29.77C363.24,161.56,348.23,172.54,335.18,187.59Z"/><path d="M109.89,278.81l-2.76-2.32a45.66,45.66,0,0,0-5.66,2.51c-21.82,13.49-44.25,25.26-69.4,31.94a20.86,20.86,0,0,0-8.21,4.83q3.53,7.44,7.22,14.79,2.47,4.94,5.11,9.64Q69,315.48,101.56,290.36C105.16,287.57,107.15,282.71,109.89,278.81Z"/><path d="M9.46,248.57c19.69-2.55,40.06-4,59.85-8.2,11.58-2.46,22.23-9.29,33.29-14.15-.59-1.29-1.19-2.57-1.78-3.86C55.38,218.68,14.4,230.91,9.46,248.57Z"/></g></g></svg>