<svg xmlns="http://www.w3.org/2000/svg" viewBox="0 0 77.56 4.55"><title>t-black-50</title><g id="Layer_2" data-name="Layer 2"><g id="Layer_1-2" data-name="Layer 1"><path d="M0,.08H1.58a1.52,1.52,0,0,1,.56.1,1,1,0,0,1,.37.25,1.13,1.13,0,0,1,.22.36,1.52,1.52,0,0,1,.06.42,1.4,1.4,0,0,1-.06.41A1,1,0,0,1,2.51,2a1,1,0,0,1-.37.26,1.53,1.53,0,0,1-.56.09H.77V3.59H0ZM.77,1.73h.6a1,1,0,0,0,.25,0,.63.63,0,0,0,.22-.07A.46.46,0,0,0,2,1.48a.54.54,0,0,0,.06-.27A.54.54,0,0,0,2,.94.46.46,0,0,0,1.84.78.48.48,0,0,0,1.62.7l-.25,0H.77Z"/><path d="M3.17.08h.7V3.59h-.7Z"/><path d="M4.35,1.83a.86.86,0,0,1,.12-.41,1,1,0,0,1,.27-.26A1.57,1.57,0,0,1,5.12,1a2.85,2.85,0,0,1,.42,0,2.56,2.56,0,0,1,.39,0,1.36,1.36,0,0,1,.36.1.92.92,0,0,1,.26.22.62.62,0,0,1,.1.37V3a3.25,3.25,0,0,0,0,.33.87.87,0,0,0,.07.24H6a.56.56,0,0,1,0-.12s0-.09,0-.13a.83.83,0,0,1-.4.24,1.44,1.44,0,0,1-.46.08,1.27,1.27,0,0,1-.34-.05.87.87,0,0,1-.27-.14.65.65,0,0,1-.19-.24.81.81,0,0,1-.06-.33.74.74,0,0,1,.07-.36.61.61,0,0,1,.2-.22.8.8,0,0,1,.28-.13,1.55,1.55,0,0,1,.31-.06l.31,0L5.7,2A.68.68,0,0,0,5.89,2,.24.24,0,0,0,6,1.79a.48.48,0,0,0,0-.18.24.24,0,0,0-.1-.1.34.34,0,0,0-.14-.05H5.51a.54.54,0,0,0-.33.09A.38.38,0,0,0,5,1.83ZM6,2.35l-.11.06-.15,0-.16,0-.16,0-.16,0-.13.07A.24.24,0,0,0,5,2.71a.35.35,0,0,0,0,.16A.41.41,0,0,0,5,3a.2.2,0,0,0,.09.09.24.24,0,0,0,.14,0l.16,0a.56.56,0,0,0,.32-.07A.44.44,0,0,0,5.88,3a.51.51,0,0,0,.06-.2,1.25,1.25,0,0,0,0-.15Z"/><path d="M7.15,1.05h.66V1.4h0a.81.81,0,0,1,.34-.32A1.08,1.08,0,0,1,8.6,1a1.19,1.19,0,0,1,.46.08.67.67,0,0,1,.28.21.84.84,0,0,1,.15.33,1.91,1.91,0,0,1,0,.43V3.59h-.7V2.15a.83.83,0,0,0-.1-.46.37.37,0,0,0-.34-.16A.51.51,0,0,0,8,1.7a1,1,0,0,0-.12.56V3.59h-.7Z"/><path d="M10,1.05h.67V1.4h0A.83.83,0,0,1,11,1.08a1.08,1.08,0,0,1,.43-.1,1.22,1.22,0,0,1,.46.08.74.74,0,0,1,.28.21.82.82,0,0,1,.14.33,1.91,1.91,0,0,1,0,.43V3.59H11.7V2.15a.92.92,0,0,0-.1-.46.38.38,0,0,0-.35-.16.48.48,0,0,0-.41.17.91.91,0,0,0-.13.56V3.59H10Z"/><path d="M13.6.66h-.7V.08h.7Zm-.7.39h.7V3.59h-.7Z"/><path d="M14.1,1.05h.66V1.4h0a.87.87,0,0,1,.34-.32,1.12,1.12,0,0,1,.43-.1,1.19,1.19,0,0,1,.46.08.7.7,0,0,1,.29.21,1,1,0,0,1,.14.33,1.91,1.91,0,0,1,0,.43V3.59h-.7V2.15a.83.83,0,0,0-.1-.46.36.36,0,0,0-.34-.16.48.48,0,0,0-.41.17.91.91,0,0,0-.13.56V3.59h-.7Z"/><path d="M19.41,3.42a2,2,0,0,1,0,.23,1,1,0,0,1-.07.25.92.92,0,0,1-.13.24.83.83,0,0,1-.24.21,1.5,1.5,0,0,1-.36.15,2.41,2.41,0,0,1-.5,0,1.73,1.73,0,0,1-.38,0,1.22,1.22,0,0,1-.35-.14.84.84,0,0,1-.27-.26A.71.71,0,0,1,17,3.73h.7a.37.37,0,0,0,.19.28.67.67,0,0,0,.33.07.51.51,0,0,0,.42-.17.68.68,0,0,0,.13-.46V3.12h0a.72.72,0,0,1-.32.3,1.19,1.19,0,0,1-.93,0,.91.91,0,0,1-.34-.27A1.29,1.29,0,0,1,17,2.73a1.93,1.93,0,0,1-.06-.49A1.55,1.55,0,0,1,17,1.76a1.39,1.39,0,0,1,.21-.4,1,1,0,0,1,.34-.28A1.16,1.16,0,0,1,18,1a1,1,0,0,1,.44.09.8.8,0,0,1,.31.32h0V1.05h.67ZM18.15,3a.55.55,0,0,0,.26-.06.58.58,0,0,0,.19-.16.76.76,0,0,0,.11-.22,1.09,1.09,0,0,0,0-.26,1.53,1.53,0,0,0,0-.3.92.92,0,0,0-.09-.25.52.52,0,0,0-.19-.17.61.61,0,0,0-.28-.06.49.49,0,0,0-.25.06.52.52,0,0,0-.18.15.64.64,0,0,0-.1.24,1.12,1.12,0,0,0,0,.27,1.23,1.23,0,0,0,0,.27.64.64,0,0,0,.1.24.49.49,0,0,0,.17.18A.45.45,0,0,0,18.15,3Z"/><path d="M21.31.08h2.47V.73h-1.7v.81h1.47v.6H22.08V3.59h-.77Z"/><path d="M24.11,1.05h.66v.47h0a1,1,0,0,1,.13-.22,1.54,1.54,0,0,1,.19-.17A.88.88,0,0,1,25.34,1a.69.69,0,0,1,.25,0,.4.4,0,0,1,.15,0v.64h-.25a.73.73,0,0,0-.32.06.65.65,0,0,0-.22.18.68.68,0,0,0-.11.26,1.06,1.06,0,0,0,0,.31V3.59h-.69Z"/><path d="M25.94,1.83a.86.86,0,0,1,.12-.41,1.16,1.16,0,0,1,.28-.26A1.35,1.35,0,0,1,26.71,1a3,3,0,0,1,.42,0,2.56,2.56,0,0,1,.39,0,1.36,1.36,0,0,1,.36.1.71.71,0,0,1,.26.22.62.62,0,0,1,.11.37V3a1.72,1.72,0,0,0,0,.33.49.49,0,0,0,.07.24h-.71l0-.12a.59.59,0,0,1,0-.13.8.8,0,0,1-.39.24,1.48,1.48,0,0,1-.46.08,1.21,1.21,0,0,1-.34-.05.82.82,0,0,1-.28-.14.55.55,0,0,1-.18-.24.81.81,0,0,1-.07-.33.74.74,0,0,1,.08-.36.59.59,0,0,1,.19-.22.9.9,0,0,1,.28-.13,1.65,1.65,0,0,1,.32-.06l.31,0,.26,0A.51.51,0,0,0,27.48,2a.21.21,0,0,0,.07-.17.34.34,0,0,0,0-.18.22.22,0,0,0-.09-.1.33.33,0,0,0-.15-.05H27.1a.53.53,0,0,0-.32.09.35.35,0,0,0-.14.29Zm1.61.52-.11.06-.14,0-.16,0-.17,0-.16,0a.47.47,0,0,0-.12.07.36.36,0,0,0-.1.11.35.35,0,0,0,0,.16.41.41,0,0,0,0,.16.28.28,0,0,0,.1.09.21.21,0,0,0,.13,0l.17,0a.61.61,0,0,0,.32-.07A.41.41,0,0,0,27.47,3a.53.53,0,0,0,.07-.2.92.92,0,0,0,0-.15Z"/><path d="M28.76,1.05h.66v.34h0A.92.92,0,0,1,30.21,1a.88.88,0,0,1,.43.1A.61.61,0,0,1,31,1.4a.93.93,0,0,1,.3-.29A.78.78,0,0,1,31.71,1a1.38,1.38,0,0,1,.37.05.72.72,0,0,1,.3.16.73.73,0,0,1,.19.28,1.09,1.09,0,0,1,.07.42v1.7h-.7V2.15a1.77,1.77,0,0,0,0-.24.42.42,0,0,0-.05-.2.33.33,0,0,0-.13-.13.52.52,0,0,0-.23-.05.43.43,0,0,0-.24.06.5.5,0,0,0-.15.14.65.65,0,0,0-.06.21.93.93,0,0,0,0,.23V3.59h-.7V1.94a1.18,1.18,0,0,0,0-.2.32.32,0,0,0-.13-.15.42.42,0,0,0-.25-.06l-.13,0a.65.65,0,0,0-.16.09.59.59,0,0,0-.13.17.87.87,0,0,0-.05.31V3.59h-.7Z"/><path d="M33.72,2.49a.76.76,0,0,0,.17.49.63.63,0,0,0,.45.15A.61.61,0,0,0,34.7,3a.4.4,0,0,0,.19-.23h.61a1.1,1.1,0,0,1-.45.65,1.26,1.26,0,0,1-.73.21,1.53,1.53,0,0,1-.54-.1,1.2,1.2,0,0,1-.67-.7A1.53,1.53,0,0,1,33,2.32a1.55,1.55,0,0,1,.09-.53,1.51,1.51,0,0,1,.27-.42,1.22,1.22,0,0,1,.41-.29,1.47,1.47,0,0,1,.53-.1,1.13,1.13,0,0,1,.56.13,1.16,1.16,0,0,1,.4.33,1.51,1.51,0,0,1,.22.48,1.78,1.78,0,0,1,0,.57Zm1.13-.44a.86.86,0,0,0-.17-.41.5.5,0,0,0-.38-.13.74.74,0,0,0-.28.05.86.86,0,0,0-.18.14.76.76,0,0,0-.09.18.55.55,0,0,0,0,.17Z"/><path d="M38.82,3.59H38.1l-.45-1.71h0l-.43,1.71h-.72l-.81-2.54h.74l.46,1.72h0l.42-1.72H38l.43,1.72h0l.47-1.72h.72Z"/><path d="M39.79,2.32a1.59,1.59,0,0,1,.09-.55,1,1,0,0,1,.27-.42,1,1,0,0,1,.41-.27,1.51,1.51,0,0,1,1.08,0,1,1,0,0,1,.41.27,1,1,0,0,1,.27.42,1.59,1.59,0,0,1,.09.55,1.59,1.59,0,0,1-.09.55,1.17,1.17,0,0,1-.27.42,1,1,0,0,1-.41.27,1.51,1.51,0,0,1-1.08,0,1,1,0,0,1-.41-.27,1.17,1.17,0,0,1-.27-.42A1.59,1.59,0,0,1,39.79,2.32Zm.69,0a1.53,1.53,0,0,0,0,.3,1.17,1.17,0,0,0,.1.26.54.54,0,0,0,.19.18.56.56,0,0,0,.3.07.58.58,0,0,0,.3-.07.47.47,0,0,0,.19-.18,1.17,1.17,0,0,0,.1-.26,1.51,1.51,0,0,0,0-.6,1,1,0,0,0-.1-.26.66.66,0,0,0-.19-.18.58.58,0,0,0-.3-.07.56.56,0,0,0-.3.07.81.81,0,0,0-.19.18,1,1,0,0,0-.1.26A1.53,1.53,0,0,0,40.48,2.32Z"/><path d="M42.82,1.05h.66v.47h0a.74.74,0,0,1,.14-.22.79.79,0,0,1,.19-.17A1,1,0,0,1,44.05,1a.73.73,0,0,1,.25,0,.4.4,0,0,1,.15,0v.64H44.2a.79.79,0,0,0-.32.06.53.53,0,0,0-.21.18.57.57,0,0,0-.12.26,1.55,1.55,0,0,0,0,.31V3.59h-.7Z"/><path d="M44.75.08h.7V2l.87-.91h.83l-1,.93,1.07,1.61h-.85l-.69-1.14-.27.26v.88h-.7Z"/><path d="M51.19,1.26A.85.85,0,0,0,51.1,1a1.12,1.12,0,0,0-.17-.2,1.36,1.36,0,0,0-.24-.13.77.77,0,0,0-.27,0,.87.87,0,0,0-.44.1,1,1,0,0,0-.3.27,1.18,1.18,0,0,0-.16.38,2.3,2.3,0,0,0-.05.45,2,2,0,0,0,.05.43,1.12,1.12,0,0,0,.16.37.77.77,0,0,0,.3.27.87.87,0,0,0,.44.1A.68.68,0,0,0,51,2.8a1,1,0,0,0,.25-.56H52a1.83,1.83,0,0,1-.15.59,1.36,1.36,0,0,1-.32.45,1.47,1.47,0,0,1-.48.29,1.59,1.59,0,0,1-.59.1,1.9,1.9,0,0,1-.73-.14,1.78,1.78,0,0,1-.54-.39,1.66,1.66,0,0,1-.33-.58,2.08,2.08,0,0,1-.12-.71,2.19,2.19,0,0,1,.12-.73,1.62,1.62,0,0,1,.87-1A1.9,1.9,0,0,1,50.42,0,2,2,0,0,1,51,.08a1.58,1.58,0,0,1,.46.25,1.14,1.14,0,0,1,.33.39,1.37,1.37,0,0,1,.17.54Z"/><path d="M52.29,2.32a1.59,1.59,0,0,1,.09-.55,1.13,1.13,0,0,1,.27-.42,1,1,0,0,1,.41-.27,1.51,1.51,0,0,1,1.08,0,1.17,1.17,0,0,1,.42.27,1.11,1.11,0,0,1,.26.42,1.56,1.56,0,0,1,0,1.1,1.29,1.29,0,0,1-.26.42,1.17,1.17,0,0,1-.42.27,1.51,1.51,0,0,1-1.08,0,1,1,0,0,1-.41-.27,1.32,1.32,0,0,1-.27-.42A1.59,1.59,0,0,1,52.29,2.32Zm.7,0a1.53,1.53,0,0,0,0,.3.82.82,0,0,0,.1.26.41.41,0,0,0,.19.18.5.5,0,0,0,.29.07.56.56,0,0,0,.3-.07.47.47,0,0,0,.19-.18.82.82,0,0,0,.1-.26,1.51,1.51,0,0,0,0-.6.74.74,0,0,0-.1-.26.66.66,0,0,0-.19-.18.56.56,0,0,0-.3-.07.5.5,0,0,0-.29.07.55.55,0,0,0-.19.18A.74.74,0,0,0,53,2,1.53,1.53,0,0,0,53,2.32Z"/><path d="M55.32,1.05H56V1.4h0a.87.87,0,0,1,.34-.32,1.12,1.12,0,0,1,.43-.1,1.19,1.19,0,0,1,.46.08.7.7,0,0,1,.29.21,1,1,0,0,1,.14.33,1.91,1.91,0,0,1,0,.43V3.59H57V2.15a.82.82,0,0,0-.11-.46.36.36,0,0,0-.34-.16.48.48,0,0,0-.41.17.91.91,0,0,0-.13.56V3.59h-.7Z"/><path d="M58.73,2.76a.42.42,0,0,0,0,.2l.12.13.17.08.2,0,.16,0,.14,0a.27.27,0,0,0,.11-.1.25.25,0,0,0,0-.15.18.18,0,0,0-.06-.14.36.36,0,0,0-.15-.1,1.23,1.23,0,0,0-.25-.08l-.33-.08-.3-.08a1.23,1.23,0,0,1-.26-.12.66.66,0,0,1-.18-.19.61.61,0,0,1-.07-.28.79.79,0,0,1,.1-.4.67.67,0,0,1,.25-.25A.86.86,0,0,1,58.83,1a2,2,0,0,1,.8,0,1.15,1.15,0,0,1,.34.13.89.89,0,0,1,.26.25,1,1,0,0,1,.12.39h-.67a.31.31,0,0,0-.15-.27.66.66,0,0,0-.32-.07h-.13a.24.24,0,0,0-.12,0,.23.23,0,0,0-.1.07.16.16,0,0,0,0,.12.16.16,0,0,0,.07.15.52.52,0,0,0,.18.1,1.49,1.49,0,0,0,.25.07l.29.06.3.08a2.1,2.1,0,0,1,.26.13.91.91,0,0,1,.18.21.62.62,0,0,1,.07.29.77.77,0,0,1-.11.42.68.68,0,0,1-.26.27,1.11,1.11,0,0,1-.37.15,1.83,1.83,0,0,1-.85,0,1.16,1.16,0,0,1-.38-.15.81.81,0,0,1-.27-.28.87.87,0,0,1-.12-.42Z"/><path d="M63.16,3.59H62.5V3.23h0a.8.8,0,0,1-.34.32,1,1,0,0,1-.43.11,1.19,1.19,0,0,1-.46-.08A.61.61,0,0,1,61,3.37.84.84,0,0,1,60.82,3a1.91,1.91,0,0,1,0-.43V1.05h.7V2.48a.84.84,0,0,0,.1.47.38.38,0,0,0,.34.16.48.48,0,0,0,.41-.17.93.93,0,0,0,.13-.56V1.05h.7Z"/><path d="M63.66.08h.7V3.59h-.7Z"/><path d="M65.75,1.05h.51v.47h-.51V2.77a.35.35,0,0,0,.06.24.33.33,0,0,0,.23.06l.22,0v.54l-.2,0h-.21a1.55,1.55,0,0,1-.31,0,.67.67,0,0,1-.25-.08.52.52,0,0,1-.17-.19A.57.57,0,0,1,65.05,3V1.52h-.42V1.05h.42V.29h.7Z"/><path d="M66.52,1.83a.86.86,0,0,1,.12-.41,1,1,0,0,1,.28-.26A1.35,1.35,0,0,1,67.29,1a3,3,0,0,1,.42,0,2.56,2.56,0,0,1,.39,0,1.36,1.36,0,0,1,.36.1.8.8,0,0,1,.26.22.62.62,0,0,1,.11.37V3a1.72,1.72,0,0,0,0,.33.64.64,0,0,0,.06.24h-.7a.27.27,0,0,1,0-.12.59.59,0,0,1,0-.13.8.8,0,0,1-.39.24,1.5,1.5,0,0,1-.47.08A1.14,1.14,0,0,1,67,3.61a.82.82,0,0,1-.28-.14.55.55,0,0,1-.18-.24.67.67,0,0,1-.07-.33.88.88,0,0,1,.07-.36.61.61,0,0,1,.2-.22A.8.8,0,0,1,67,2.19a1.7,1.7,0,0,1,.31-.06l.31,0,.27,0A.75.75,0,0,0,68.06,2a.21.21,0,0,0,.07-.17.34.34,0,0,0,0-.18.24.24,0,0,0-.1-.1.29.29,0,0,0-.14-.05h-.17a.51.51,0,0,0-.32.09.35.35,0,0,0-.14.29Zm1.61.52L68,2.41l-.14,0-.17,0-.16,0-.16,0-.13.07a.33.33,0,0,0-.09.11.35.35,0,0,0,0,.16.41.41,0,0,0,0,.16.22.22,0,0,0,.1.09.19.19,0,0,0,.13,0l.16,0a.56.56,0,0,0,.32-.07A.44.44,0,0,0,68.05,3a.53.53,0,0,0,.07-.2c0-.06,0-.12,0-.15Z"/><path d="M70.2,1.05h.51v.47H70.2V2.77a.35.35,0,0,0,.06.24.35.35,0,0,0,.24.06l.21,0v.54l-.19,0h-.21a1.55,1.55,0,0,1-.31,0,.61.61,0,0,1-.25-.08.47.47,0,0,1-.18-.19A.68.68,0,0,1,69.51,3V1.52h-.43V1.05h.43V.29h.69Z"/><path d="M71.72.66H71V.08h.7Zm-.7.39h.7V3.59H71Z"/><path d="M72.15,2.32a1.59,1.59,0,0,1,.09-.55,1.11,1.11,0,0,1,.26-.42,1.17,1.17,0,0,1,.42-.27,1.51,1.51,0,0,1,1.08,0,1,1,0,0,1,.41.27,1,1,0,0,1,.27.42,1.59,1.59,0,0,1,.09.55,1.59,1.59,0,0,1-.09.55,1.17,1.17,0,0,1-.27.42,1,1,0,0,1-.41.27,1.51,1.51,0,0,1-1.08,0,1.17,1.17,0,0,1-.42-.27,1.29,1.29,0,0,1-.26-.42A1.59,1.59,0,0,1,72.15,2.32Zm.69,0a1.53,1.53,0,0,0,0,.3,1.17,1.17,0,0,0,.1.26.47.47,0,0,0,.19.18.56.56,0,0,0,.3.07.54.54,0,0,0,.29-.07.49.49,0,0,0,.2-.18,1.17,1.17,0,0,0,.1-.26,1.51,1.51,0,0,0,0-.6,1,1,0,0,0-.1-.26.7.7,0,0,0-.2-.18.54.54,0,0,0-.29-.07.56.56,0,0,0-.3.07.66.66,0,0,0-.19.18,1,1,0,0,0-.1.26A1.53,1.53,0,0,0,72.84,2.32Z"/><path d="M75.18,1.05h.66V1.4h0a.81.81,0,0,1,.34-.32,1.08,1.08,0,0,1,.43-.1,1.19,1.19,0,0,1,.46.08.67.67,0,0,1,.28.21.84.84,0,0,1,.15.33,1.91,1.91,0,0,1,0,.43V3.59h-.7V2.15a.83.83,0,0,0-.1-.46.37.37,0,0,0-.34-.16A.51.51,0,0,0,76,1.7a1,1,0,0,0-.12.56V3.59h-.7Z"/></g></g></svg>