<svg xmlns="http://www.w3.org/2000/svg" viewBox="0 0 105.43 7.03"><defs><style>.cls-1{fill:#fff;}</style></defs><title>t-white2-50</title><g id="Layer_2" data-name="Layer 2"><g id="Layer_1-2" data-name="Layer 1"><path class="cls-1" d="M0,.13H.55L2.29,4.92h0L4,.13h.54l-2,5.36H2Z"/><path class="cls-1" d="M5,.13h.47V.89H5ZM5,1.61h.47V5.49H5Z"/><path class="cls-1" d="M8.66,2.75c0-.59-.47-.85-1-.85s-.91.17-.91.67.48.57.8.65l.63.14c.54.09,1.11.4,1.11,1.08,0,.84-.84,1.16-1.56,1.16A1.41,1.41,0,0,1,6.12,4.23h.47a1,1,0,0,0,1.14,1c.45,0,1.06-.19,1.06-.73s-.42-.6-.85-.71l-.6-.13c-.62-.17-1.08-.38-1.08-1S7,1.5,7.71,1.5A1.27,1.27,0,0,1,9.13,2.75Z"/><path class="cls-1" d="M10,.13h.48V.89H10Zm0,1.48h.48V5.49H10Z"/><path class="cls-1" d="M12.08,1.61h.79V2h-.79V4.63c0,.3.05.48.39.51a2.69,2.69,0,0,0,.4,0v.41h-.42c-.63,0-.85-.21-.84-.87V2h-.67v-.4h.67V.45h.47Z"/><path class="cls-1" d="M15.66,1.61h.86V5.82c0,.77-.31,1.21-1.11,1.21A3.46,3.46,0,0,1,15,7V6.32l.29,0c.32,0,.35-.19.35-.57Zm0-1.48h.86V.94h-.86Z"/><path class="cls-1" d="M17.27,3.54a2,2,0,1,1,3.91,0,2,2,0,1,1-3.91,0Zm3.06,0c0-.66-.34-1.36-1.11-1.36s-1.1.7-1.1,1.36.34,1.38,1.1,1.38S20.33,4.22,20.33,3.54Z"/><path class="cls-1" d="M21.71,3.54a2,2,0,1,1,3.92,0,2,2,0,1,1-3.92,0Zm3.07,0c0-.66-.34-1.36-1.11-1.36s-1.1.7-1.1,1.36.34,1.38,1.1,1.38S24.78,4.22,24.78,3.54Z"/><path class="cls-1" d="M26.34,1.61h.81v.57h0a1.37,1.37,0,0,1,1.2-.69,1.23,1.23,0,0,1,1.38,1.32V5.49h-.86V3.05c0-.61-.25-.87-.76-.87a.94.94,0,0,0-.93,1V5.49h-.86Z"/><path class="cls-1" d="M34.3,5.49h-.81V5h0a1.29,1.29,0,0,1-1.21.63c-1.22,0-1.81-.91-1.81-2.07,0-1.4.83-2,1.68-2a1.48,1.48,0,0,1,1.29.61h0v-2h.85Zm-1.91-.57c.76,0,1.09-.7,1.09-1.38,0-.85-.42-1.36-1.08-1.36s-1.09.71-1.09,1.41S31.64,4.92,32.39,4.92Z"/><path class="cls-1" d="M38.48,4.63c0,.2,0,.29.2.29a.9.9,0,0,0,.21,0v.6a2.44,2.44,0,0,1-.54.09c-.35,0-.59-.12-.66-.47a2,2,0,0,1-1.34.47A1.18,1.18,0,0,1,35,4.46c0-1,.77-1.13,1.49-1.21s1.16,0,1.16-.55-.45-.52-.8-.52-.82.19-.85.61h-.86c.06-1,.91-1.29,1.76-1.29s1.56.31,1.56,1.13Zm-.86-1.09a2.9,2.9,0,0,1-1,.24c-.37.06-.7.19-.7.64s.49.5.79.5,1-.2,1-.74Z"/><path class="cls-1" d="M39.42.13h.86V5.49h-.86Z"/><path class="cls-1" d="M44.61,5.49h-.84V5h0a1.31,1.31,0,0,1-1.11.64c-1,0-1.45-.51-1.45-1.52V1.61h.86V4c0,.68.28.93.74.93.72,0,1-.46,1-1.06V1.61h.85Z"/><path class="cls-1" d="M45.53,1.61h.81v.52h0a1.3,1.3,0,0,1,1.2-.63,1.83,1.83,0,0,1,1.82,2.07c0,1-.53,2-1.68,2A1.53,1.53,0,0,1,46.4,5h0V6.92h-.86Zm1.92.57c-.72,0-1.09.55-1.09,1.37s.4,1.37,1.09,1.37,1.07-.69,1.07-1.37S48.15,2.18,47.45,2.18Z"/><path class="cls-1" d="M50.16,4.47h1v1h-1Z"/><path class="cls-1" d="M51.82,1.61h.91l.76,2.89h0l.72-2.89h.87l.7,2.89h0l.79-2.89h.87L56.25,5.49h-.87l-.73-2.88h0l-.71,2.88H53Z"/><path class="cls-1" d="M61.26,4.63c0,.2.05.29.21.29a.9.9,0,0,0,.21,0v.6a2.43,2.43,0,0,1-.55.09c-.34,0-.59-.12-.66-.47a2,2,0,0,1-1.34.47A1.18,1.18,0,0,1,57.8,4.46c0-1,.78-1.13,1.5-1.21s1.16,0,1.16-.55-.46-.52-.8-.52-.82.19-.86.61H58c.06-1,.9-1.29,1.76-1.29s1.55.31,1.55,1.13Zm-.85-1.09a3,3,0,0,1-1,.24c-.37.06-.7.19-.7.64s.49.5.79.5,1-.2,1-.74Z"/><path class="cls-1" d="M62.25,4.47h1v1h-1Z"/><path class="cls-1" d="M67.86,5.29C67.86,6.45,67.17,7,66,7c-.78,0-1.66-.3-1.74-1.21h.86c.11.49.5.57.93.57a.88.88,0,0,0,1-1V4.8h0a1.33,1.33,0,0,1-1.16.69c-1.23,0-1.74-.93-1.74-2A1.79,1.79,0,0,1,65.84,1.5,1.2,1.2,0,0,1,67,2.14h0V1.61h.86ZM67,3.46c0-.67-.3-1.28-1-1.28s-1,.7-1,1.35.3,1.28,1,1.28S67,4.12,67,3.46Z"/><path class="cls-1" d="M68.54,3.54a2,2,0,1,1,3.91,0,2,2,0,1,1-3.91,0Zm3.06,0c0-.66-.34-1.36-1.11-1.36s-1.1.7-1.1,1.36.34,1.38,1.1,1.38S71.6,4.22,71.6,3.54Z"/><path class="cls-1" d="M72.78,1.61h.93l1,3h0l.94-3h.89L75.15,5.49h-1Z"/><path class="cls-1" d="M76.57,4.47h1v1h-1Z"/><path class="cls-1" d="M81.84,4.63c0,.2,0,.29.2.29a.9.9,0,0,0,.21,0v.6a2.44,2.44,0,0,1-.54.09c-.35,0-.59-.12-.66-.47a2,2,0,0,1-1.35.47,1.17,1.17,0,0,1-1.32-1.13c0-1,.77-1.13,1.49-1.21S81,3.21,81,2.7s-.46-.52-.8-.52-.82.19-.86.61h-.85c.06-1,.91-1.29,1.76-1.29s1.56.31,1.56,1.13ZM81,3.54a3,3,0,0,1-1,.24c-.37.06-.7.19-.7.64s.49.5.79.5,1-.2,1-.74Z"/><path class="cls-1" d="M86.16,5.49h-.84V5h0a1.31,1.31,0,0,1-1.11.64c-1,0-1.45-.51-1.45-1.52V1.61h.86V4c0,.68.28.93.74.93.72,0,1-.46,1-1.06V1.61h.85Z"/><path class="cls-1" d="M88.6,0h.82L87.26,5.62h-.82Z"/><path class="cls-1" d="M89.8.13h.93V2.26h2.45V.13h.93V5.49h-.93V3.07H90.73V5.49H89.8Z"/><path class="cls-1" d="M100.08,2.81a2.58,2.58,0,1,1-5.13,0,2.58,2.58,0,1,1,5.13,0Zm-4.19,0c0,1,.48,2,1.63,2s1.62-1,1.62-2-.48-2-1.62-2S95.89,1.78,95.89,2.81Z"/><path class="cls-1" d="M102.37.13h1l2.06,5.36h-1l-.51-1.42h-2.14l-.5,1.42h-1ZM102,3.36h1.63l-.8-2.31h0Z"/></g></g></svg>