<svg id="Layer_1" data-name="Layer 1" xmlns="http://www.w3.org/2000/svg" xmlns:xlink="http://www.w3.org/1999/xlink" viewBox="0 0 728 90"><defs><style>.cls-1{fill:none;}.cls-2{clip-path:url(#clip-path);}.cls-3{fill:#fff;}</style><clipPath id="clip-path"><rect class="cls-1" width="728" height="90"/></clipPath></defs><g class="cls-2"><path class="cls-3" d="M233.78,37.08h-7.12c-1.48,0-2-1-2-2.32s.52-2.36,2-2.36H246.1c1.44,0,2,1,2,2.36s-.56,2.32-2,2.32H239V56.6c0,1.52-1.2,2.12-2.6,2.12s-2.6-.6-2.6-2.12Z"/><path class="cls-3" d="M265.18,56a1.93,1.93,0,0,1-1.68,2.2,29.26,29.26,0,0,1-6.52.6c-7.16,0-9.48-1.76-9.48-7.56V46c0-6.12,2.6-7.64,9.32-7.64,6.56,0,8.68,1.68,8.68,7.52V48.2c0,1.72-.64,2.32-2.12,2.32H252.46v1c0,2.08,1.44,2.88,4.32,2.88,2.16,0,4.84-.36,6.32-.36S265.18,54.48,265.18,56Zm-12.72-9.44h8.16v-.88c0-2.36-.88-3-4.08-3-3,0-4.08.52-4.08,3Z"/><path class="cls-3" d="M283.7,50.12V40.56c0-1.48,1.08-2.08,2.44-2.08s2.48.6,2.48,2.08v9.8c0,7.44-1.84,8.44-9,8.44s-9-1-9-8.44v-9.8c0-1.48,1.08-2.08,2.48-2.08s2.48.6,2.48,2.08v9.56c0,3.64.36,4.24,4,4.24S283.7,53.76,283.7,50.12Z"/><path class="cls-3" d="M302.34,43c-2.68,0-3.2.36-3.2,3v10.6c0,1.48-1.08,2.08-2.44,2.08s-2.52-.6-2.52-2.08v-11c0-6.12,2-7.24,8.24-7.24,4.08,0,5.12,1,5.12,2.48a2.05,2.05,0,0,1-2.16,2.28C304.58,43.16,303.86,43,302.34,43Z"/><path class="cls-3" d="M327.1,56a1.93,1.93,0,0,1-1.68,2.2,29.26,29.26,0,0,1-6.52.6c-7.16,0-9.48-1.76-9.48-7.56V46c0-6.12,2.6-7.64,9.32-7.64,6.56,0,8.68,1.68,8.68,7.52V48.2c0,1.72-.64,2.32-2.12,2.32H314.38v1c0,2.08,1.44,2.88,4.32,2.88,2.16,0,4.84-.36,6.32-.36S327.1,54.48,327.1,56Zm-12.72-9.44h8.16v-.88c0-2.36-.88-3-4.08-3-3,0-4.08.52-4.08,3Z"/><path class="cls-3" d="M340.7,43c-2.68,0-3.2.36-3.2,3v10.6c0,1.48-1.08,2.08-2.44,2.08s-2.52-.6-2.52-2.08v-11c0-6.12,2-7.24,8.24-7.24,4.08,0,5.12,1,5.12,2.48a2.05,2.05,0,0,1-2.16,2.28C342.94,43.16,342.22,43,340.7,43Z"/><path class="cls-3" d="M367.14,58.8c-4.68,0-9.44-.56-9.44-3.24a2.15,2.15,0,0,1,2-2.4c2,0,5.24.8,7.4.8,3.92,0,6-.88,6-3.32,0-5.84-15.2,1-15.2-10.92,0-5.28,3.32-7.72,11-7.72,4.64,0,8.4.6,8.4,2.92a2.16,2.16,0,0,1-2.24,2.32c-1.92,0-4.52-.56-6.56-.56-3.76,0-5.44,1.12-5.44,3,0,6,15.16-.68,15.16,10.6C378.22,55.88,375.14,58.8,367.14,58.8Z"/><path class="cls-3" d="M400.54,56a1.93,1.93,0,0,1-1.68,2.2,29.26,29.26,0,0,1-6.52.6c-7.16,0-9.48-1.76-9.48-7.56V46c0-6.12,2.6-7.64,9.32-7.64,6.56,0,8.68,1.68,8.68,7.52V48.2c0,1.72-.64,2.32-2.12,2.32H387.82v1c0,2.08,1.44,2.88,4.32,2.88,2.16,0,4.84-.36,6.32-.36S400.54,54.48,400.54,56Zm-12.72-9.44H396v-.88c0-2.36-.88-3-4.08-3-3,0-4.08.52-4.08,3Z"/><path class="cls-3" d="M414.14,43c-2.68,0-3.2.36-3.2,3v10.6c0,1.48-1.08,2.08-2.44,2.08s-2.52-.6-2.52-2.08v-11c0-6.12,2-7.24,8.24-7.24,4.08,0,5.12,1,5.12,2.48a2.05,2.05,0,0,1-2.16,2.28C416.38,43.16,415.66,43,414.14,43Z"/><path class="cls-3" d="M430.66,52.36l4.88-12c1.28-3.16,6.4-2.12,4.76,1.56L433.9,56.2c-.84,1.88-1.92,2.6-3.44,2.6a3.8,3.8,0,0,1-3.64-2.6l-6.16-14.28c-1.52-3.56,3.52-4.8,4.76-1.6l4.68,12Z"/><path class="cls-3" d="M446.54,31.21a2.82,2.82,0,1,1,0,5.63,2.82,2.82,0,0,1,0-5.63ZM449,56.64c0,1.48-1.12,2.08-2.48,2.08s-2.48-.6-2.48-2.08v-16c0-1.48,1.12-2.12,2.48-2.12s2.48.64,2.48,2.12Z"/><path class="cls-3" d="M459.34,46v5.28c0,1.76.76,3,4,3,2,0,3.12-.4,4.72-.4,1.44,0,2,.88,2,2.2a2.07,2.07,0,0,1-1.72,2.24,20.17,20.17,0,0,1-5.16.52c-6.8,0-8.72-2.4-8.72-7.32v-5.6c0-5.72,2.2-7.48,9-7.48,6.12,0,6.56,1,6.56,2.8,0,1.28-.44,2.08-1.88,2.08s-2.6-.36-4.8-.36C460.22,42.92,459.34,43.88,459.34,46Z"/><path class="cls-3" d="M490.21,56a1.93,1.93,0,0,1-1.68,2.2,29.22,29.22,0,0,1-6.51.6c-7.16,0-9.48-1.76-9.48-7.56V46c0-6.12,2.6-7.64,9.32-7.64,6.55,0,8.67,1.68,8.67,7.52V48.2c0,1.72-.64,2.32-2.12,2.32H477.5v1c0,2.08,1.44,2.88,4.32,2.88,2.16,0,4.83-.36,6.31-.36S490.21,54.48,490.21,56ZM477.5,46.56h8.16v-.88c0-2.36-.88-3-4.08-3-3,0-4.08.52-4.08,3Z"/><path class="cls-3" d="M498.5,52.52a3.09,3.09,0,0,1,3.08,3.12,3,3,0,0,1-3.08,3.08,3,3,0,0,1-3-3.08A3,3,0,0,1,498.5,52.52Zm2-3.48a1.9,1.9,0,0,1-2,1.68,1.8,1.8,0,0,1-2-1.68l-1-14.52C495.42,32.84,497,32,498.62,32s3,.8,2.92,2.52Z"/></g></svg>