<svg id="Layer_1" data-name="Layer 1" xmlns="http://www.w3.org/2000/svg" xmlns:xlink="http://www.w3.org/1999/xlink" viewBox="0 0 728 90"><defs><style>.cls-1{fill:none;}.cls-2{clip-path:url(#clip-path);}.cls-3{fill:#fff;}</style><clipPath id="clip-path"><rect class="cls-1" width="728" height="90"/></clipPath></defs><g class="cls-2"><g class="cls-2"><path class="cls-3" d="M15.67,18c1,0,1.2-.23,2.75-.23,1.16,0,1.5.19,1.5.78v.76H17.44c-2.79,0-3.27.91-3.27,3,0,2.58.9,3,4.06,3,3,0,4-.4,4-2.91V18.86c0-2.32-.79-3.21-3.73-3.21-3.42,0-3.78.36-3.78,1.33,0,.61.25,1.06.93,1.06m4.25,4.5c0,.51-.45.68-1.71.68s-1.74-.23-1.74-.93.26-.93,1.42-.93h2Zm13.22-4.67c1.37,0,1.57.27,1.57,2v4.35c0,.7.52,1,1.16,1s1.18-.28,1.18-1V19.65c0-3.52-.95-4-3.91-4a6.17,6.17,0,0,0-2.77.59,5.73,5.73,0,0,0-2.73-.59c-3,0-3.91.48-3.91,4v4.56c0,.7.53,1,1.18,1s1.16-.28,1.16-1V19.86c0-1.72.2-2,1.57-2s1.57.27,1.57,1.56v4.78c0,.7.54,1,1.18,1s1.18-.28,1.18-1V19.65c0-1.51.26-1.78,1.57-1.78M40,18c1,0,1.2-.23,2.75-.23,1.16,0,1.5.19,1.5.78v.76H41.81c-2.79,0-3.27.91-3.27,3,0,2.58.89,3,4.06,3,3,0,4-.4,4-2.91V18.86c0-2.32-.79-3.21-3.73-3.21-3.42,0-3.78.36-3.78,1.33,0,.61.25,1.06.93,1.06m4.2,4.5c0,.51-.46.68-1.71.68s-1.75-.23-1.75-.93.27-.93,1.43-.93h2ZM54.4,15.82a12.7,12.7,0,0,0-2-.17c-3.09,0-4.24.29-4.24,3v7.13c0,2.45,1.34,2.86,4.28,2.86,3.15,0,4.33-.58,4.33-3.09,0-2.05-.8-2.9-3.51-2.9h-2.9v-.81a13.61,13.61,0,0,0,2,.09c3.12,0,4.25-.49,4.25-3.07V15.1c0-.66-.49-.93-1.08-.93s-1.12.27-1.12.93Zm-2,4c-1.84,0-2.05-.07-2.05-1v-.08c0-.83.53-1,2.05-1a18.61,18.61,0,0,1,2,.13v.78c0,1-.23,1.21-2,1.21M50.3,24.62h2.45c1.25,0,1.8.21,1.8,1s-.68,1-2.15,1-2.1-.17-2.1-.8Z"/><path class="cls-3" d="M67.12,24.39h5.36a.37.37,0,0,1,.42.41c0,.23-.1.39-.42.39H66.55a.38.38,0,0,1-.41-.41V14.86c0-.27.25-.39.51-.39s.47.1.47.39Z"/><path class="cls-3" d="M75.28,20.81h5.08V19.52c0-1-.49-1.61-2.48-1.61s-2.6.6-2.6,1.71Zm5.79,3.92c0,.15,0,.3-.31.38a12.21,12.21,0,0,1-2.73.24c-2.77,0-3.67-1-3.67-2.82V19.68c0-1.87,1.11-2.54,3.55-2.54s3.36.72,3.36,2.48v1.19c0,.5-.24.76-.68.76H75.28v.93c0,1.34.71,2.05,2.77,2.05a26.91,26.91,0,0,0,2.71-.22c.18,0,.31.11.31.4"/><path class="cls-3" d="M89.08,21.46H86.25c-1.86,0-2.25.41-2.25,1.55s.49,1.58,2.46,1.58c2.15,0,2.62-.23,2.62-1.49Zm-5.61-3.7a.39.39,0,0,1,.3-.42,17,17,0,0,1,2.87-.2c2.62,0,3.36.56,3.36,2.33v3.6c0,2-.82,2.28-3.57,2.28s-3.34-.47-3.34-2.26.55-2.4,3.18-2.4h2.81V19.36c0-1.12-.65-1.45-2.52-1.45a24.5,24.5,0,0,0-2.77.23.34.34,0,0,1-.32-.38"/><path class="cls-3" d="M97.14,23.2c0-2.36-5.19-.89-5.19-4,0-1.46,1.19-2.1,3.34-2.1a7.71,7.71,0,0,1,2,.22c.26.08.38.13.38.35a.38.38,0,0,1-.4.43,16.45,16.45,0,0,0-2.13-.23c-1.48,0-2.28.47-2.28,1.3,0,2.12,5.2.87,5.2,4,0,1.37-1,2.13-3.42,2.13A8,8,0,0,1,92.08,25c-.23-.08-.31-.19-.31-.39s.21-.39.37-.39a15.1,15.1,0,0,0,2.63.36c1.67,0,2.37-.51,2.37-1.39"/><path class="cls-3" d="M100.81,24.91c0,.25-.22.38-.46.38s-.46-.13-.46-.41V17.62c0-.28.2-.41.46-.41s.46.13.46.37Zm-.46-10.47a.65.65,0,0,1,0,1.3.65.65,0,1,1,0-1.3"/><path class="cls-3" d="M104.42,20.34v4.57a.4.4,0,0,1-.45.38c-.27,0-.46-.13-.46-.41V20.37c0-2.9.67-3.23,3.42-3.23,2.59,0,3.42.33,3.42,3.23v4.51a.41.41,0,0,1-.46.41.4.4,0,0,1-.45-.38V20.34c0-2.19-.72-2.43-2.51-2.43-2.12,0-2.51.24-2.51,2.43"/><path class="cls-3" d="M113.9,26.22c0,1.07.94,1.38,2.91,1.38s2.87-.34,2.87-1.61c0-1-.54-1.47-2.74-1.47h-3Zm5.32-6.58v-1.5a16.62,16.62,0,0,0-2.8-.23c-2,0-2.52.34-2.52,1.65v.29c0,1.43.44,1.63,2.57,1.63,2.46,0,2.75-.33,2.75-1.84m0-3.52a.42.42,0,0,1,.46-.36c.24,0,.49.15.49.36v3.7c0,2-.83,2.42-3.63,2.42A9.42,9.42,0,0,1,114,22h0v1.72H117c2.84,0,3.6.56,3.6,2.19,0,2-1.17,2.45-3.79,2.45S113,27.89,113,26.2V19.6c0-2,.79-2.46,3.45-2.46a14.18,14.18,0,0,1,2.78.22Z"/></g></g></svg>