<?xml version="1.0" encoding="UTF-8"?>
<svg id="Layer_2" data-name="Layer 2" xmlns="http://www.w3.org/2000/svg" xmlns:xlink="http://www.w3.org/1999/xlink" viewBox="0 0 300 600">
  <defs>
    <style>
      .cls-1 {
        fill: none;
      }

      .cls-1, .cls-2 {
        stroke-width: 0px;
      }

      .cls-3 {
        clip-path: url(#clippath-1);
      }

      .cls-4 {
        clip-path: url(#clippath);
      }

      .cls-2 {
        fill: #fff;
      }
    </style>
    <clipPath id="clippath">
      <rect class="cls-1" width="300" height="600"/>
    </clipPath>
    <clipPath id="clippath-1">
      <rect class="cls-1" width="300" height="600"/>
    </clipPath>
  </defs>
  <g id="Layer_1-2" data-name="Layer 1">
    <g class="cls-4">
      <g class="cls-3">
        <g>
          <path class="cls-2" d="M29.06,53.76c-1,0-1.8-.42-1.8-1.48v-15.32c0-1.04.83-1.51,1.83-1.51s1.8.48,1.8,1.51v13.5h7.94c1.03,0,1.43.73,1.43,1.65s-.4,1.65-1.43,1.65h-9.77Z"/>
          <path class="cls-2" d="M54.56,52.08c0,.84-.26,1.29-1.2,1.54-.57.17-2.4.42-4.66.42-5.11,0-6.77-1.23-6.77-5.29v-3.64c0-4.28,1.86-5.35,6.66-5.35s6.2,1.18,6.2,5.26v1.6c0,1.2-.46,1.62-1.51,1.62h-7.8v.7c0,1.46,1.03,2.02,3.08,2.02,1.54,0,3.46-.25,4.51-.25s1.49.31,1.49,1.37ZM45.48,45.47h5.83v-.62c0-1.65-.63-2.07-2.91-2.07-2.14,0-2.91.36-2.91,2.07v.62Z"/>
          <path class="cls-2" d="M58.3,41.69c0-1.26,1.08-1.93,5.37-1.93,5.29,0,6.6.81,6.6,4.62v5.29c0,3.7-1.68,4.37-6.6,4.37s-6.17-.67-6.17-4.45c0-3.11.77-4.37,6-4.37h3.26v-.56c0-1.37-.54-1.71-2.69-1.71s-3.43.34-4.26.34c-1.11,0-1.51-.62-1.51-1.6ZM66.76,48.05h-3.46c-1.97,0-2.34.34-2.34,1.43,0,1.18.43,1.51,2.83,1.51s2.97-.28,2.97-1.06v-1.88Z"/>
          <path class="cls-2" d="M73.18,44.16c0-2.6,1.83-4.4,6.37-4.4,4.17,0,4.97.76,4.97,1.99,0,.9-.37,1.37-1.54,1.37-.86,0-1.71-.31-3.77-.31-1.71,0-2.48.34-2.48,1.01,0,2.18,8.37.45,8.37,5.8,0,3.11-2.23,4.42-6.28,4.42-4.91,0-5.54-.73-5.54-1.88,0-.98.4-1.51,1.57-1.51.89,0,1.83.34,3.86.34,1.83,0,2.86-.36,2.86-1.2,0-2.07-8.37-.45-8.37-5.63Z"/>
          <path class="cls-2" d="M89.46,34.72c1.11,0,2.03.9,2.03,1.99s-.91,1.96-2.03,1.96-1.97-.87-1.97-1.96.86-1.99,1.97-1.99ZM91.23,52.53c0,1.04-.8,1.46-1.77,1.46s-1.77-.42-1.77-1.46v-11.23c0-1.04.8-1.48,1.77-1.48s1.77.45,1.77,1.48v11.23Z"/>
          <path class="cls-2" d="M98.77,45.84v6.69c0,1.04-.8,1.46-1.77,1.46s-1.77-.42-1.77-1.46v-6.86c0-5.21,1.29-5.91,6.46-5.91s6.54.7,6.54,5.91v6.86c0,1.04-.8,1.46-1.77,1.46s-1.74-.42-1.74-1.46v-6.69c0-2.55-.4-2.97-3.03-2.97s-2.91.42-2.91,2.97Z"/>
          <path class="cls-2" d="M122.45,38.81c0-.98.8-1.37,1.74-1.37s1.71.39,1.71,1.37v5.82c0,3.75-1.94,4.54-6.54,4.54-1.8,0-2.74-.14-3.6-.34h-.09v1.74h5.68c3.86,0,5.06,1.04,5.06,3.89,0,3.56-1.83,4.76-7.4,4.76-5.03,0-6.8-1.06-6.8-4.68v-10.36c0-3.92,1.74-4.42,6.54-4.42,1.34,0,2.77.08,3.6.31h.09v-1.26ZM122.45,44.38v-1.37c-.71-.11-1.94-.22-3.57-.22-2.94,0-3.2.36-3.2,1.48v.59c0,1.09.4,1.32,3.37,1.32,3.14,0,3.4-.25,3.4-1.79ZM115.68,54.26c0,1.62.63,1.93,3.4,1.93,3.11,0,3.88-.34,3.88-1.48,0-.87-.43-1.12-2.23-1.12h-5.06v.67Z"/>
          <path class="cls-2" d="M135.35,44.16c0-2.6,1.83-4.4,6.37-4.4,4.17,0,4.97.76,4.97,1.99,0,.9-.37,1.37-1.54,1.37-.86,0-1.71-.31-3.77-.31-1.71,0-2.48.34-2.48,1.01,0,2.18,8.37.45,8.37,5.8,0,3.11-2.23,4.42-6.28,4.42-4.91,0-5.54-.73-5.54-1.88,0-.98.4-1.51,1.57-1.51.89,0,1.83.34,3.86.34,1.83,0,2.86-.36,2.86-1.2,0-2.07-8.37-.45-8.37-5.63Z"/>
          <path class="cls-2" d="M162.4,52.08c0,.84-.26,1.29-1.2,1.54-.57.17-2.4.42-4.66.42-5.11,0-6.77-1.23-6.77-5.29v-3.64c0-4.28,1.86-5.35,6.66-5.35s6.2,1.18,6.2,5.26v1.6c0,1.2-.46,1.62-1.51,1.62h-7.8v.7c0,1.46,1.03,2.02,3.08,2.02,1.54,0,3.46-.25,4.51-.25s1.49.31,1.49,1.37ZM153.32,45.47h5.83v-.62c0-1.65-.63-2.07-2.91-2.07-2.14,0-2.91.36-2.91,2.07v.62Z"/>
          <path class="cls-2" d="M169.83,45.84v6.69c0,1.04-.8,1.46-1.77,1.46s-1.77-.42-1.77-1.46v-6.86c0-5.21,1.29-5.91,6.46-5.91s6.54.7,6.54,5.91v6.86c0,1.04-.8,1.46-1.77,1.46s-1.74-.42-1.74-1.46v-6.69c0-2.55-.4-2.97-3.03-2.97s-2.91.42-2.91,2.97Z"/>
          <path class="cls-2" d="M188.79,43.15h-5.4c-1.03,0-1.4-.64-1.4-1.54s.37-1.57,1.4-1.57h8.31c1.31,0,2.03.76,2.03,1.71,0,.59-.29,1.29-.86,1.9l-6.43,7h5.91c1.03,0,1.4.64,1.4,1.54s-.37,1.57-1.4,1.57h-8.74c-1.34,0-2.08-.76-2.08-1.74,0-.59.26-1.26.83-1.88l6.43-7Z"/>
          <path class="cls-2" d="M196.41,41.69c0-1.26,1.09-1.93,5.37-1.93,5.28,0,6.6.81,6.6,4.62v5.29c0,3.7-1.69,4.37-6.6,4.37s-6.17-.67-6.17-4.45c0-3.11.77-4.37,6-4.37h3.26v-.56c0-1.37-.54-1.71-2.68-1.71s-3.43.34-4.26.34c-1.11,0-1.51-.62-1.51-1.6ZM204.87,48.05h-3.46c-1.97,0-2.34.34-2.34,1.43,0,1.18.43,1.51,2.83,1.51s2.97-.28,2.97-1.06v-1.88Z"/>
        </g>
      </g>
    </g>
  </g>
</svg>