<?xml version="1.0" encoding="UTF-8"?>
<svg id="Layer_2" data-name="Layer 2" xmlns="http://www.w3.org/2000/svg" xmlns:xlink="http://www.w3.org/1999/xlink" viewBox="0 0 300 600">
  <defs>
    <style>
      .cls-1 {
        fill: none;
      }

      .cls-1, .cls-2 {
        stroke-width: 0px;
      }

      .cls-3 {
        clip-path: url(#clippath-1);
      }

      .cls-4 {
        clip-path: url(#clippath);
      }

      .cls-2 {
        fill: #fff;
      }
    </style>
    <clipPath id="clippath">
      <rect class="cls-1" width="300" height="600"/>
    </clipPath>
    <clipPath id="clippath-1">
      <rect class="cls-1" width="300" height="600"/>
    </clipPath>
  </defs>
  <g id="Layer_1-2" data-name="Layer 1">
    <g class="cls-4">
      <g class="cls-3">
        <g>
          <path class="cls-2" d="M30.97,46.9v5.6c0,1.06-.86,1.48-1.86,1.48s-1.86-.42-1.86-1.48v-15.43c0-1.01.69-1.51,1.71-1.51h7.46c4.43,0,6.11,1.23,6.11,5.57,0,3.44-1.06,5.77-6.11,5.77h-5.46ZM30.97,43.71h5.46c1.77,0,2.4-.73,2.4-2.55s-.63-2.32-2.43-2.32h-5.43v4.87Z"/>
          <path class="cls-2" d="M47.11,34.72c1.11,0,2.03.9,2.03,1.99s-.91,1.96-2.03,1.96-1.97-.87-1.97-1.96.86-1.99,1.97-1.99ZM48.88,52.53c0,1.04-.8,1.46-1.77,1.46s-1.77-.42-1.77-1.46v-11.23c0-1.04.8-1.48,1.77-1.48s1.77.45,1.77,1.48v11.23Z"/>
          <path class="cls-2" d="M62.21,47.96v-6.69c0-1.04.77-1.46,1.74-1.46s1.77.42,1.77,1.46v6.86c0,5.21-1.31,5.91-6.46,5.91s-6.43-.7-6.43-5.91v-6.86c0-1.04.77-1.46,1.77-1.46s1.77.42,1.77,1.46v6.69c0,2.55.26,2.97,2.89,2.97s2.94-.42,2.94-2.97ZM57.42,37.04c-.4-.28-.57-.64-.57-.98,0-.7.69-1.34,1.46-1.34.37,0,.71.14,1.09.5l1.91,1.9c.26.25.37.56.37.81,0,.56-.51,1.01-1.17,1.01-.29,0-.57-.08-.86-.28l-2.23-1.62Z"/>
          <path class="cls-2" d="M82.21,42.98c-1.91,0-2.29.25-2.29,2.13v7.42c0,1.04-.77,1.46-1.74,1.46s-1.8-.42-1.8-1.46v-7.7c0-4.28,1.4-5.07,5.88-5.07,2.91,0,3.66.67,3.66,1.74,0,.95-.54,1.6-1.54,1.6-.57,0-1.09-.11-2.17-.11Z"/>
          <path class="cls-2" d="M99.89,52.08c0,.84-.26,1.29-1.2,1.54-.57.17-2.4.42-4.66.42-5.11,0-6.77-1.23-6.77-5.29v-3.64c0-4.28,1.86-5.35,6.66-5.35s6.2,1.18,6.2,5.26v1.6c0,1.2-.46,1.62-1.51,1.62h-7.8v.7c0,1.46,1.03,2.02,3.08,2.02,1.54,0,3.46-.25,4.51-.25s1.49.31,1.49,1.37ZM90.8,45.47h5.83v-.62c0-1.65-.63-2.07-2.91-2.07-2.14,0-2.91.36-2.91,2.07v.62Z"/>
          <path class="cls-2" d="M107.37,52.53c0,1.04-.8,1.46-1.8,1.46s-1.8-.42-1.8-1.46v-16.04c0-1.04.83-1.48,1.8-1.48s1.8.45,1.8,1.48v16.04Z"/>
          <path class="cls-2" d="M111.48,41.69c0-1.26,1.09-1.93,5.37-1.93,5.28,0,6.6.81,6.6,4.62v5.29c0,3.7-1.69,4.37-6.6,4.37s-6.17-.67-6.17-4.45c0-3.11.77-4.37,6-4.37h3.26v-.56c0-1.37-.54-1.71-2.69-1.71s-3.43.34-4.26.34c-1.11,0-1.51-.62-1.51-1.6ZM119.93,48.05h-3.46c-1.97,0-2.34.34-2.34,1.43,0,1.18.43,1.51,2.83,1.51s2.97-.28,2.97-1.06v-1.88Z"/>
          <path class="cls-2" d="M132.33,49.2l-3.6,4.03c-.51.56-.91.76-1.46.76-.86,0-1.6-.7-1.6-1.57,0-.31.09-.73.37-1.04l4.11-4.65-3.71-4.17c-.31-.36-.46-.84-.46-1.15,0-.9.8-1.57,1.69-1.57.51,0,.94.2,1.31.62l3.37,3.78,3.37-3.78c.26-.31.89-.62,1.29-.62.83,0,1.66.67,1.66,1.57,0,.34-.11.76-.46,1.15l-3.68,4.14,4.14,4.59c.34.39.37.76.37,1.04,0,.9-.8,1.62-1.69,1.62-.43,0-.89-.2-1.37-.73l-3.66-4.03Z"/>
        </g>
      </g>
    </g>
  </g>
</svg>