<?xml version="1.0" encoding="UTF-8"?>
<svg id="Layer_2" data-name="Layer 2" xmlns="http://www.w3.org/2000/svg" xmlns:xlink="http://www.w3.org/1999/xlink" viewBox="0 0 300 600">
  <defs>
    <style>
      .cls-1 {
        fill: none;
      }

      .cls-1, .cls-2 {
        stroke-width: 0px;
      }

      .cls-3 {
        clip-path: url(#clippath-1);
      }

      .cls-4 {
        clip-path: url(#clippath);
      }

      .cls-2 {
        fill: #fff;
      }
    </style>
    <clipPath id="clippath">
      <rect class="cls-1" width="300" height="600"/>
    </clipPath>
    <clipPath id="clippath-1">
      <rect class="cls-1" width="300" height="600"/>
    </clipPath>
  </defs>
  <g id="Layer_1-2" data-name="Layer 1">
    <g class="cls-4">
      <g class="cls-3">
        <g>
          <path class="cls-2" d="M30.54,78.84v6.69c0,1.04-.8,1.46-1.77,1.46s-1.77-.42-1.77-1.46v-6.86c0-5.21,1.29-5.91,6.46-5.91s6.54.7,6.54,5.91v6.86c0,1.04-.8,1.46-1.77,1.46s-1.74-.42-1.74-1.46v-6.69c0-2.55-.4-2.97-3.03-2.97s-2.91.42-2.91,2.97Z"/>
          <path class="cls-2" d="M56.45,85.08c0,.84-.26,1.29-1.2,1.54-.57.17-2.4.42-4.66.42-5.11,0-6.77-1.23-6.77-5.29v-3.64c0-4.28,1.86-5.35,6.66-5.35s6.2,1.18,6.2,5.26v1.6c0,1.2-.46,1.62-1.51,1.62h-7.8v.7c0,1.46,1.03,2.02,3.08,2.02,1.54,0,3.46-.25,4.51-.25s1.49.31,1.49,1.37ZM47.36,78.47h5.83v-.62c0-1.65-.63-2.07-2.91-2.07-2.14,0-2.91.36-2.91,2.07v.62Z"/>
          <path class="cls-2" d="M63.93,85.53c0,1.04-.8,1.46-1.8,1.46s-1.8-.42-1.8-1.46v-16.04c0-1.04.83-1.48,1.8-1.48s1.8.45,1.8,1.48v16.04Z"/>
          <path class="cls-2" d="M71.52,85.53c0,1.04-.8,1.46-1.8,1.46s-1.8-.42-1.8-1.46v-16.04c0-1.04.83-1.48,1.8-1.48s1.8.45,1.8,1.48v16.04Z"/>
          <path class="cls-2" d="M75.64,74.69c0-1.26,1.09-1.93,5.37-1.93,5.28,0,6.6.81,6.6,4.62v5.29c0,3.7-1.69,4.37-6.6,4.37s-6.17-.67-6.17-4.45c0-3.11.77-4.37,6-4.37h3.26v-.56c0-1.37-.54-1.71-2.69-1.71s-3.43.34-4.26.34c-1.11,0-1.51-.62-1.51-1.6ZM84.09,81.05h-3.46c-1.97,0-2.34.34-2.34,1.43,0,1.18.43,1.51,2.83,1.51s2.97-.28,2.97-1.06v-1.88Z"/>
          <path class="cls-2" d="M104.05,82.53l3.48-8.4c.91-2.21,4.57-1.48,3.4,1.09l-4.57,10c-.6,1.32-1.37,1.82-2.46,1.82-1.26,0-2.09-.67-2.6-1.82l-4.4-10c-1.09-2.49,2.51-3.36,3.4-1.12l3.34,8.43h.4Z"/>
          <path class="cls-2" d="M115.39,67.72c1.11,0,2.03.9,2.03,1.99s-.91,1.96-2.03,1.96-1.97-.87-1.97-1.96.86-1.99,1.97-1.99ZM117.16,85.53c0,1.04-.8,1.46-1.77,1.46s-1.77-.42-1.77-1.46v-11.23c0-1.04.8-1.48,1.77-1.48s1.77.45,1.77,1.48v11.23Z"/>
          <path class="cls-2" d="M126.47,83.93c.86,0,1.34-.08,1.94-.08.94,0,1.34.48,1.34,1.37,0,1.29-.63,1.82-3.83,1.82-2.71,0-4.06-.73-4.06-3.86v-6.94h-1.4c-1,0-1.37-.67-1.37-1.6s.37-1.6,1.37-1.6h1.4v-2.21c0-1.01.8-1.43,1.74-1.43,1,0,1.8.42,1.8,1.43v2.21h2.94c1,0,1.29.7,1.29,1.6s-.29,1.6-1.29,1.6h-2.94v6.66c0,.78.49,1.04,1.06,1.04Z"/>
          <path class="cls-2" d="M132.1,74.69c0-1.26,1.09-1.93,5.37-1.93,5.28,0,6.6.81,6.6,4.62v5.29c0,3.7-1.69,4.37-6.6,4.37s-6.17-.67-6.17-4.45c0-3.11.77-4.37,6-4.37h3.26v-.56c0-1.37-.54-1.71-2.69-1.71s-3.43.34-4.26.34c-1.11,0-1.51-.62-1.51-1.6ZM140.55,81.05h-3.46c-1.97,0-2.34.34-2.34,1.43,0,1.18.43,1.51,2.83,1.51s2.97-.28,2.97-1.06v-1.88Z"/>
          <path class="cls-2" d="M149.12,82.64c1.23,0,2.2.98,2.2,2.18s-.97,2.16-2.2,2.16-2.17-.9-2.17-2.16.91-2.18,2.17-2.18Z"/>
        </g>
      </g>
    </g>
  </g>
</svg>