<?xml version="1.0" encoding="UTF-8"?>
<svg id="Layer_2" data-name="Layer 2" xmlns="http://www.w3.org/2000/svg" xmlns:xlink="http://www.w3.org/1999/xlink" viewBox="0 0 300 600">
  <defs>
    <style>
      .cls-1 {
        fill: none;
      }

      .cls-1, .cls-2 {
        stroke-width: 0px;
      }

      .cls-3 {
        clip-path: url(#clippath-1);
      }

      .cls-4 {
        clip-path: url(#clippath);
      }

      .cls-2 {
        fill: #fff;
      }
    </style>
    <clipPath id="clippath">
      <rect class="cls-1" width="300" height="600"/>
    </clipPath>
    <clipPath id="clippath-1">
      <rect class="cls-1" width="300" height="600"/>
    </clipPath>
  </defs>
  <g id="Layer_1-2" data-name="Layer 1">
    <g class="cls-4">
      <g class="cls-3">
        <g>
          <path class="cls-2" d="M26.94,79.73c0-5.96,1.77-6.97,6.86-6.97s6.83,1.01,6.83,6.97-1.63,7.31-6.83,7.31c-.97,0-2.43-.2-3.17-.36h-.09v3.58c0,1.06-.86,1.46-1.83,1.46s-1.77-.39-1.77-1.46v-10.53ZM33.8,75.87c-2.37,0-3.31.28-3.31,3.92s.74,4.14,3.31,4.14,3.31-.39,3.31-4.14-.69-3.92-3.31-3.92Z"/>
          <path class="cls-2" d="M56.5,85.08c0,.84-.26,1.29-1.2,1.54-.57.17-2.4.42-4.66.42-5.11,0-6.77-1.23-6.77-5.29v-3.64c0-4.28,1.86-5.35,6.66-5.35s6.2,1.18,6.2,5.26v1.6c0,1.2-.46,1.62-1.51,1.62h-7.8v.7c0,1.46,1.03,2.02,3.08,2.02,1.54,0,3.46-.25,4.51-.25s1.49.31,1.49,1.37ZM47.42,78.47h5.83v-.62c0-1.65-.63-2.07-2.91-2.07-2.14,0-2.91.36-2.91,2.07v.62Z"/>
          <path class="cls-2" d="M63.93,78.84v6.69c0,1.04-.8,1.46-1.77,1.46s-1.77-.42-1.77-1.46v-6.86c0-5.21,1.29-5.91,6.46-5.91s6.54.7,6.54,5.91v6.86c0,1.04-.8,1.46-1.77,1.46s-1.74-.42-1.74-1.46v-6.69c0-2.55-.4-2.97-3.03-2.97s-2.91.42-2.91,2.97Z"/>
          <path class="cls-2" d="M76.35,77.16c0-2.6,1.83-4.4,6.37-4.4,4.17,0,4.97.76,4.97,1.99,0,.9-.37,1.37-1.54,1.37-.86,0-1.71-.31-3.77-.31-1.71,0-2.48.34-2.48,1.01,0,2.18,8.37.45,8.37,5.8,0,3.11-2.23,4.42-6.28,4.42-4.91,0-5.54-.73-5.54-1.88,0-.98.4-1.51,1.57-1.51.89,0,1.83.34,3.86.34,1.83,0,2.86-.36,2.86-1.2,0-2.07-8.37-.45-8.37-5.63Z"/>
          <path class="cls-2" d="M92.63,67.72c1.11,0,2.03.9,2.03,1.99s-.91,1.96-2.03,1.96-1.97-.87-1.97-1.96.86-1.99,1.97-1.99ZM94.4,85.53c0,1.04-.8,1.46-1.77,1.46s-1.77-.42-1.77-1.46v-11.23c0-1.04.8-1.48,1.77-1.48s1.77.45,1.77,1.48v11.23Z"/>
          <path class="cls-2" d="M110.85,85.08c0,.84-.26,1.29-1.2,1.54-.57.17-2.4.42-4.66.42-5.11,0-6.77-1.23-6.77-5.29v-3.64c0-4.28,1.86-5.35,6.66-5.35s6.2,1.18,6.2,5.26v1.6c0,1.2-.46,1.62-1.51,1.62h-7.8v.7c0,1.46,1.03,2.02,3.08,2.02,1.54,0,3.46-.25,4.51-.25s1.48.31,1.48,1.37ZM101.77,78.47h5.83v-.62c0-1.65-.63-2.07-2.91-2.07-2.14,0-2.91.36-2.91,2.07v.62Z"/>
          <path class="cls-2" d="M120.56,75.98c-1.91,0-2.29.25-2.29,2.13v7.42c0,1.04-.77,1.46-1.74,1.46s-1.8-.42-1.8-1.46v-7.7c0-4.28,1.4-5.07,5.88-5.07,2.91,0,3.66.67,3.66,1.74,0,.95-.54,1.6-1.54,1.6-.57,0-1.09-.11-2.17-.11Z"/>
          <path class="cls-2" d="M128.3,67.72c1.11,0,2.03.9,2.03,1.99s-.91,1.96-2.03,1.96-1.97-.87-1.97-1.96.86-1.99,1.97-1.99ZM130.07,85.53c0,1.04-.8,1.46-1.77,1.46s-1.77-.42-1.77-1.46v-11.23c0-1.04.8-1.48,1.77-1.48s1.77.45,1.77,1.48v11.23Z"/>
          <path class="cls-2" d="M144.12,78.08v3.7c0,1.23.54,2.07,2.83,2.07,1.43,0,2.23-.28,3.37-.28,1.03,0,1.4.62,1.4,1.54,0,.87-.4,1.34-1.23,1.57-.4.11-1.6.36-3.69.36-4.86,0-6.23-1.68-6.23-5.12v-3.92c0-4,1.57-5.24,6.46-5.24,4.37,0,4.69.7,4.69,1.96,0,.9-.31,1.46-1.34,1.46s-1.86-.25-3.43-.25c-2.2,0-2.83.67-2.83,2.16Z"/>
          <path class="cls-2" d="M160,72.76c5.11,0,6.88,1.37,6.88,7.28s-1.77,7-6.88,7-6.86-1.06-6.86-7,1.68-7.28,6.86-7.28ZM160,83.93c2.57,0,3.34-.31,3.34-3.95s-.77-4.12-3.34-4.12-3.31.36-3.31,4.12.69,3.95,3.31,3.95Z"/>
          <path class="cls-2" d="M173.85,78.84v6.69c0,1.04-.8,1.46-1.77,1.46s-1.77-.42-1.77-1.46v-6.86c0-5.21,1.29-5.91,6.46-5.91s6.54.7,6.54,5.91v6.86c0,1.04-.8,1.46-1.77,1.46s-1.74-.42-1.74-1.46v-6.69c0-2.55-.4-2.97-3.03-2.97s-2.91.42-2.91,2.97Z"/>
        </g>
      </g>
    </g>
  </g>
</svg>