<svg id="Layer_1" data-name="Layer 1" xmlns="http://www.w3.org/2000/svg" xmlns:xlink="http://www.w3.org/1999/xlink" viewBox="0 0 640 960"><defs><style>.cls-1{fill:none;}.cls-2{clip-path:url(#clip-path);}.cls-3{fill:#fff;}</style><clipPath id="clip-path"><rect class="cls-1" width="640" height="960"/></clipPath></defs><g class="cls-2"><path class="cls-3" d="M89.28,415.92,110,449.36h.32V415.28c0-3,2.16-4.32,4.88-4.32,2.88,0,4.8,1.36,4.8,4.32v40.64c0,6.08-3.84,8.48-7.12,8.48-4.64,0-6.56-2.48-8.24-5.12L83.76,425.76H83.6v34.16c0,3-2.24,4.32-5,4.32-3,0-4.8-1.36-4.8-4.32V419.28c0-6.08,3.68-8.4,7-8.4C85.52,410.88,87.6,413.2,89.28,415.92Z"/><path class="cls-3" d="M137,409.2a5.7,5.7,0,0,1,5.68,5.68,5.63,5.63,0,0,1-5.68,5.6,5.5,5.5,0,0,1-5.52-5.6A5.57,5.57,0,0,1,137,409.2Zm5,50.88c0,3-2.24,4.16-5,4.16s-5-1.2-5-4.16V428c0-3,2.24-4.24,5-4.24s5,1.28,5,4.24Z"/><path class="cls-3" d="M162.56,438.8v10.56c0,3.52,1.52,5.92,7.92,5.92,4,0,6.24-.8,9.44-.8,2.88,0,3.92,1.76,3.92,4.4a4.15,4.15,0,0,1-3.44,4.48,40.33,40.33,0,0,1-10.32,1c-13.6,0-17.44-4.8-17.44-14.64v-11.2c0-11.44,4.4-15,18.08-15,12.24,0,13.12,2,13.12,5.6,0,2.56-.88,4.16-3.76,4.16s-5.2-.72-9.6-.72C164.32,432.64,162.56,434.56,162.56,438.8Z"/><path class="cls-3" d="M201.12,424.56a49.49,49.49,0,0,1,8.88-1c13.6,0,17.44,2,17.44,16.88v19.6c0,3-2.24,4.16-5,4.16s-4.88-1.2-4.88-4.16V441c0-7.28-1-8.48-8.4-8.48a45.15,45.15,0,0,0-8.08.8v26.8c0,3-2.24,4.16-5,4.16s-5-1.2-5-4.16V414.24c0-3,2.32-4.24,5-4.24s5,1.28,5,4.24Z"/><path class="cls-3" d="M253.68,455.52c2.4,0,3.76-.24,5.44-.24,2.64,0,3.76,1.36,3.76,3.92,0,3.68-1.76,5.2-10.72,5.2-7.6,0-11.36-2.08-11.36-11V433.52h-3.92c-2.8,0-3.84-1.92-3.84-4.56s1-4.56,3.84-4.56h3.92v-6.32c0-2.88,2.24-4.08,4.88-4.08,2.8,0,5,1.2,5,4.08v6.32H259c2.8,0,3.6,2,3.6,4.56s-.8,4.56-3.6,4.56h-8.24v19A2.65,2.65,0,0,0,253.68,455.52Z"/><path class="cls-3" d="M288.4,414.08c0-2.88,2.4-4.08,5.12-4.08s5,1.2,5,4.08v10.8A33.12,33.12,0,0,1,308,423.6c14.16,0,19,3.6,19,20.32,0,17-4.64,20.48-19,20.48s-19.52-2.88-19.52-20.32Zm19.52,18.4c-6.8,0-9.52.72-9.52,11.44,0,10.4,2.24,11.6,9.52,11.6,6.88,0,9.12-1,9.12-11.6C317,433.92,314.32,432.48,307.92,432.48Z"/><path class="cls-3" d="M371.44,458.8c0,2.4-.72,3.68-3.36,4.4a58.51,58.51,0,0,1-13,1.2c-14.32,0-19-3.52-19-15.12v-10.4c0-12.24,5.2-15.28,18.64-15.28,13.12,0,17.36,3.36,17.36,15v4.56c0,3.44-1.28,4.64-4.24,4.64H346v2c0,4.16,2.88,5.76,8.64,5.76,4.32,0,9.68-.72,12.64-.72S371.44,455.76,371.44,458.8ZM346,439.92h16.32v-1.76c0-4.72-1.76-5.92-8.16-5.92-6,0-8.16,1-8.16,5.92Z"/><path class="cls-3" d="M387.28,409.2a5.7,5.7,0,0,1,5.68,5.68,5.63,5.63,0,0,1-5.68,5.6,5.5,5.5,0,0,1-5.52-5.6A5.57,5.57,0,0,1,387.28,409.2Zm5,50.88c0,3-2.24,4.16-5,4.16s-5-1.2-5-4.16V428c0-3,2.24-4.24,5-4.24s5,1.28,5,4.24Z"/><path class="cls-3" d="M448.32,447V427.92c0-3,2.16-4.16,4.88-4.16s5,1.2,5,4.16v19.6c0,14.88-3.68,16.88-18.08,16.88s-18-2-18-16.88v-19.6c0-3,2.16-4.16,5-4.16s5,1.2,5,4.16V447c0,7.28.72,8.48,8.08,8.48S448.32,454.32,448.32,447Z"/><path class="cls-3" d="M479.2,441v19.12c0,3-2.24,4.16-5,4.16s-5-1.2-5-4.16v-19.6c0-14.88,3.6-16.88,18.08-16.88s18.32,2,18.32,16.88v19.6c0,3-2.24,4.16-5,4.16s-4.88-1.2-4.88-4.16V441c0-7.28-1.12-8.48-8.48-8.48S479.2,433.68,479.2,441Z"/><path class="cls-3" d="M514,436.16c0-7.44,5.12-12.56,17.84-12.56,11.68,0,13.92,2.16,13.92,5.68,0,2.56-1,3.92-4.32,3.92-2.4,0-4.8-.88-10.56-.88-4.8,0-7,1-7,2.88,0,6.24,23.44,1.28,23.44,16.56,0,8.88-6.24,12.64-17.6,12.64-13.76,0-15.52-2.08-15.52-5.36,0-2.8,1.12-4.32,4.4-4.32,2.48,0,5.12,1,10.8,1,5.12,0,8-1,8-3.44C537.44,446.32,514,451,514,436.16Z"/><path class="cls-3" d="M561.28,451.84a6.18,6.18,0,0,1,6.16,6.24,6,6,0,0,1-6.16,6.16,5.9,5.9,0,0,1-6.08-6.16A6.06,6.06,0,0,1,561.28,451.84Zm4.08-7a3.8,3.8,0,0,1-4.08,3.36,3.6,3.6,0,0,1-3.92-3.36l-2-29c-.24-3.36,3-5,6.16-5,3,0,6.08,1.6,5.84,5Z"/></g></svg>