<svg id="Layer_1" data-name="Layer 1" xmlns="http://www.w3.org/2000/svg" xmlns:xlink="http://www.w3.org/1999/xlink" viewBox="0 0 640 960"><defs><style>.cls-1{fill:none;}.cls-2{clip-path:url(#clip-path);}.cls-3{fill:#fff;}</style><clipPath id="clip-path"><rect class="cls-1" width="640" height="960"/></clipPath></defs><g class="cls-2"><g class="cls-2"><path class="cls-3" d="M32.32,49.36c2.51,0,3.16-.6,7.28-.6,3.07,0,4,.5,4,2.06v2H37c-7.39,0-8.64,2.41-8.64,7.94,0,6.83,2.36,7.89,10.75,7.89,7.84,0,10.66-1.06,10.66-7.69V51.52c0-6.13-2.11-8.49-9.9-8.49-9,0-10,.95-10,3.52,0,1.61.66,2.81,2.47,2.81M43.58,61.27c0,1.36-1.21,1.81-4.53,1.81-3.62,0-4.62-.6-4.62-2.46,0-2.11.7-2.46,3.77-2.46h5.38Zm35-12.36c3.62,0,4.17.7,4.17,5.28V65.7c0,1.86,1.36,2.61,3.07,2.61S89,67.56,89,65.7V53.63C89,44.28,86.45,43,78.61,43a16.2,16.2,0,0,0-7.34,1.56A15.12,15.12,0,0,0,64,43c-7.84,0-10.35,1.25-10.35,10.6V65.7c0,1.86,1.41,2.61,3.12,2.61s3.06-.75,3.06-2.61V54.19c0-4.58.55-5.28,4.17-5.28,3.37,0,4.17.7,4.17,4.12V65.7c0,1.86,1.41,2.61,3.12,2.61s3.11-.75,3.11-2.61V53.63c0-4,.71-4.72,4.18-4.72m18.29.45c2.51,0,3.16-.6,7.28-.6,3.07,0,4,.5,4,2.06v2h-6.58c-7.39,0-8.65,2.41-8.65,7.94,0,6.83,2.36,7.89,10.76,7.89,7.84,0,10.66-1.06,10.66-7.69V51.52c0-6.13-2.12-8.49-9.91-8.49-9,0-10,.95-10,3.52,0,1.61.66,2.81,2.47,2.81M108,61.27c0,1.36-1.21,1.81-4.52,1.81-3.62,0-4.63-.6-4.63-2.46,0-2.11.71-2.46,3.77-2.46H108ZM135,43.48a32.49,32.49,0,0,0-5.43-.45c-8.19,0-11.25.75-11.25,7.94v18.9c0,6.48,3.56,7.59,11.35,7.59,8.35,0,11.46-1.56,11.46-8.2,0-5.42-2.11-7.68-9.3-7.68H124.1V59.41a34.47,34.47,0,0,0,5.42.25c8.25,0,11.26-1.3,11.26-8.14v-10c0-1.76-1.31-2.46-2.86-2.46s-3,.7-3,2.46Zm-5.44,10.71c-4.87,0-5.43-.21-5.43-2.77v-.2c0-2.21,1.41-2.66,5.43-2.66a45.75,45.75,0,0,1,5.43.35V51c0,2.56-.6,3.22-5.43,3.22M124.08,66.8h6.48c3.32,0,4.78.56,4.78,2.72S133.53,72,129.66,72c-3.62,0-5.58-.45-5.58-2.11Z"/><path class="cls-3" d="M168.65,66.19h14.2c.86,0,1.12.47,1.12,1.08s-.26,1-1.12,1H167.14a1,1,0,0,1-1.08-1.08V40.94c0-.73.65-1,1.34-1s1.25.26,1.25,1Z"/><path class="cls-3" d="M190.27,56.69h13.46V53.28c0-2.63-1.29-4.27-6.56-4.27s-6.9,1.6-6.9,4.53Zm15.36,10.4c0,.39-.09.78-.82,1a32,32,0,0,1-7.25.65c-7.34,0-9.71-2.54-9.71-7.46V53.71c0-5,2.93-6.73,9.41-6.73,6.69,0,8.89,1.9,8.89,6.56v3.15c0,1.34-.65,2-1.82,2H190.27v2.46c0,3.54,1.89,5.44,7.33,5.44a69,69,0,0,0,7.21-.61c.47,0,.82.31.82,1.08"/><path class="cls-3" d="M226.85,58.42h-7.5c-4.92,0-6,1.08-6,4.1,0,3.19,1.3,4.18,6.52,4.18,5.69,0,6.94-.6,6.94-3.92ZM212,48.62a1.05,1.05,0,0,1,.82-1.12,46.79,46.79,0,0,1,7.59-.52c7,0,8.89,1.47,8.89,6.17v9.54c0,5.27-2.16,6-9.45,6-7.08,0-8.85-1.25-8.85-6s1.47-6.34,8.42-6.34h7.46V52.85c0-3-1.72-3.84-6.68-3.84a65.32,65.32,0,0,0-7.34.6.9.9,0,0,1-.86-1"/><path class="cls-3" d="M248.21,63c0-6.26-13.76-2.38-13.76-10.49,0-3.89,3.15-5.57,8.84-5.57a21.51,21.51,0,0,1,5.31.56c.69.22,1,.35,1,1a1,1,0,0,1-1,1.12,44.64,44.64,0,0,0-5.66-.6c-3.92,0-6,1.25-6,3.45,0,5.61,13.77,2.29,13.77,10.62,0,3.62-2.59,5.65-9.06,5.65a21.77,21.77,0,0,1-6.78-.9c-.6-.22-.82-.52-.82-1a.91.91,0,0,1,1-1c1,0,3.11.94,6.95.94,4.45,0,6.3-1.33,6.3-3.66"/><path class="cls-3" d="M257.92,67.57c0,.65-.56,1-1.21,1s-1.21-.34-1.21-1.08V48.23a1.06,1.06,0,0,1,1.21-1.08c.65,0,1.21.35,1.21,1Zm-1.21-27.75a1.73,1.73,0,1,1,0,3.45,1.73,1.73,0,1,1,0-3.45"/><path class="cls-3" d="M267.5,55.44V67.57c0,.65-.56,1-1.21,1s-1.21-.34-1.21-1.08v-12c0-7.69,1.77-8.55,9.06-8.55,6.87,0,9.07.86,9.07,8.55v12A1.07,1.07,0,0,1,282,68.56c-.65,0-1.21-.34-1.21-1V55.44c0-5.78-1.9-6.43-6.65-6.43-5.61,0-6.64.65-6.64,6.43"/><path class="cls-3" d="M292.61,71c0,2.85,2.5,3.67,7.72,3.67,5.44,0,7.6-.91,7.6-4.28,0-2.76-1.42-3.88-7.25-3.88h-8.07Zm14.11-17.44v-4a44.54,44.54,0,0,0-7.42-.6c-5.31,0-6.69.91-6.69,4.36v.77c0,3.8,1.16,4.32,6.82,4.32,6.51,0,7.29-.86,7.29-4.88m0-9.32a1.09,1.09,0,0,1,1.21-.95c.65,0,1.29.39,1.29.95v9.8c0,5.26-2.2,6.43-9.62,6.43a24.14,24.14,0,0,1-6.86-.65h-.13v4.58h8.2c7.51,0,9.54,1.46,9.54,5.78,0,5.31-3.11,6.52-10.06,6.52s-10.1-1.25-10.1-5.74V53.5c0-5.4,2.12-6.52,9.15-6.52a39.54,39.54,0,0,1,7.38.56Z"/></g></g></svg>