<svg xmlns="http://www.w3.org/2000/svg" viewBox="0 0 203.06 10.06"><defs><style>.cls-1{fill:#a5714e;}</style></defs><title>t1-en-small_2</title><g id="Layer_2" data-name="Layer 2"><g id="Layer_1-2" data-name="Layer 1"><path class="cls-1" d="M6.47.21V8.49l-6-6.25V8.35H0V.07L6,6.33V.21Z"/><path class="cls-1" d="M12.24,6H9.09l-1,2.39H7.64L11.06,0l3.43,8.35H13.23Zm-3-.46h2.78L10.67,2.1Z"/><path class="cls-1" d="M20.33.67h-2.5V8.35H16.64V.67h-2.5V.21h6.19Z"/><path class="cls-1" d="M27.48,5.05a3.55,3.55,0,0,1-.87,2.78,2.83,2.83,0,0,1-2,.66,3.33,3.33,0,0,1-2.18-.65c-.83-.72-1-1.68-1-3.32V.21h1.2V4.76c0,1.43.05,2.12.45,2.65A1.84,1.84,0,0,0,24.6,8a2.42,2.42,0,0,0,1.67-.53A3.22,3.22,0,0,0,27,5V.21h.46Z"/><path class="cls-1" d="M30.43,4.76l4.31,3.59h-.68l-4-3.3v3.3h-1.2V.21h2.28c1.63,0,3,.65,3,2.28s-1.35,2.27-3,2.27Zm.44-.45c1.43,0,2-.62,2-1.82S32.3.67,30.87.67h-.78V4.31Z"/><path class="cls-1" d="M39.74,6H36.58l-1,2.39h-.47L38.55,0,42,8.35H40.72Zm-3-.46h2.78L38.16,2.1Z"/><path class="cls-1" d="M43.15.21h1.19V7.9h3.15v.45H43.15Z"/><path class="cls-1" d="M48.71.21h1.2V7.9h3.15v.45H48.71Z"/><path class="cls-1" d="M55.26,4.7,52.61.21H54l2.32,4L58.62.21h.53L56.46,4.8V8.35h-1.2Z"/><path class="cls-1" d="M67.14,1.09A3.11,3.11,0,0,0,65.43.55C64.66.55,64,.9,64,1.6s.62,1.1,1.61,1.76C67,4.31,68,5,68,6.31,68,8,66.41,8.45,65.17,8.45a3.89,3.89,0,0,1-2.37-.73V7a3.62,3.62,0,0,0,2.38,1c1,0,1.69-.49,1.69-1.34s-.53-1.27-1.65-2.06C63.84,3.6,63,3,63,1.92,63,.62,64.23.1,65.45.1a4.39,4.39,0,0,1,1.69.33Z"/><path class="cls-1" d="M70.4.67V4h3v.46h-3V7.9H74v.45H69.2V.21H74V.67Z"/><path class="cls-1" d="M76.88,4.76l4.31,3.59h-.68l-4-3.3v3.3h-1.2V.21h2.29c1.62,0,3,.65,3,2.28s-1.35,2.27-3,2.27Zm.45-.45c1.42,0,2-.62,2-1.82s-.58-1.82-2-1.82h-.79V4.31Z"/><path class="cls-1" d="M83.31.67V4h3v.46h-3V7.9h3.57v.45H82.11V.21h4.77V.67Z"/><path class="cls-1" d="M94.72.21V8.49l-6-6.25V8.35h-.45V.07l6,6.26V.21Z"/><path class="cls-1" d="M97.44.67V4h3v.46h-3V7.9H101v.45H96.25V.21H101V.67Z"/><path class="cls-1" d="M102.79,9.73a1.54,1.54,0,0,0,.47-1.06,1.34,1.34,0,0,0,0-.33.62.62,0,0,1-.36.12.57.57,0,0,1-.6-.58.64.64,0,0,1,.69-.64c.5,0,.77.46.77,1.08a2.11,2.11,0,0,1-.93,1.74Z"/><path class="cls-1" d="M108.6.21l2.55,6.19L113.72.21h.47l-3.43,8.28L107.34.21Z"/><path class="cls-1" d="M115.38.21h1.19V8.35h-1.19Z"/><path class="cls-1" d="M118.17,8.35V.21h1.73c1.52,0,2.72.46,2.72,1.77a1.71,1.71,0,0,1-1.27,1.65A2.49,2.49,0,0,1,123.64,6c0,1.57-1.49,2.36-3.21,2.36Zm1.2-7.68V3.5H120A1.32,1.32,0,0,0,121.5,2c0-.82-.38-1.36-1.5-1.36Zm0,3.29V7.9h1a1.8,1.8,0,0,0,2-1.93,1.86,1.86,0,0,0-2-2Z"/><path class="cls-1" d="M126.34,4.76l4.31,3.59H130l-4-3.3v3.3h-1.2V.21h2.28c1.63,0,3,.65,3,2.28s-1.35,2.27-3,2.27Zm.44-.45c1.42,0,2-.62,2-1.82s-.59-1.82-2-1.82H126V4.31Z"/><path class="cls-1" d="M135.64,6h-3.15l-1,2.39H131L134.46,0l3.43,8.35h-1.26Zm-3-.46h2.78l-1.39-3.4Z"/><path class="cls-1" d="M145.52.21V8.49l-6-6.25V8.35h-.46V.07l6,6.26V.21Z"/><path class="cls-1" d="M153,.67h-2.49V8.35h-1.2V.67h-2.49V.21H153Z"/><path class="cls-1" d="M154.23.21h1.2V7.9h3.15v.45h-4.35Z"/><path class="cls-1" d="M160.78,4.7,158.13.21h1.37l2.32,4L164.14.21h.53L162,4.8V8.35h-1.2Z"/><path class="cls-1" d="M174.5,5.05a3.55,3.55,0,0,1-.87,2.78,2.84,2.84,0,0,1-2,.66,3.31,3.31,0,0,1-2.17-.65c-.83-.72-1-1.68-1-3.32V.21h1.2V4.76c0,1.43.06,2.12.46,2.65a1.82,1.82,0,0,0,1.53.63,2.45,2.45,0,0,0,1.68-.53A3.22,3.22,0,0,0,174,5V.21h.46Z"/><path class="cls-1" d="M177.45,4.76l4.31,3.59h-.69l-4-3.3v3.3h-1.19V.21h2.28c1.63,0,3,.65,3,2.28s-1.34,2.27-3,2.27Zm.44-.45c1.42,0,2-.62,2-1.82s-.59-1.82-2-1.82h-.79V4.31Z"/><path class="cls-1" d="M182.67,8.35V.21h1.74c1.52,0,2.72.46,2.72,1.77a1.71,1.71,0,0,1-1.28,1.65A2.49,2.49,0,0,1,188.14,6c0,1.57-1.48,2.36-3.2,2.36Zm1.2-7.68V3.5h.63A1.33,1.33,0,0,0,186,2c0-.82-.38-1.36-1.51-1.36Zm0,3.29V7.9h1a1.8,1.8,0,0,0,2-1.93,1.86,1.86,0,0,0-2-2Z"/><path class="cls-1" d="M193.18,6H190l-1,2.39h-.47L192,0l3.42,8.35h-1.26Zm-3-.46H193L191.6,2.1Z"/><path class="cls-1" d="M203.06.21V8.49l-6-6.25V8.35h-.45V.07l6,6.26V.21Z"/></g></g></svg>