<svg xmlns="http://www.w3.org/2000/svg" viewBox="0 0 53.66 11.92"><defs><style>.cls-1{fill:#a5714e;}</style></defs><title>t4-ch-x50</title><g id="Layer_2" data-name="Layer 2"><g id="Layer_2-2" data-name="Layer 2"><path class="cls-1" d="M4,7.45a26.87,26.87,0,0,1,1.81,3.31L5,11.25a13.7,13.7,0,0,0-.6-1.3C1.1,11.1.68,11.29.4,11.49a3.81,3.81,0,0,0-.4-1,.86.86,0,0,0,.55-.81v-9h5v6.1h-4V10L4,9.18c-.26-.47-.53-.94-.77-1.34ZM1.51,1.56V3.25h3V1.56Zm3,4.36V4.12h-3v1.8ZM11,8.2c0,.55-.12.82-.47,1a4.93,4.93,0,0,1-1.89.17,3.51,3.51,0,0,0-.28-.93c.67,0,1.27,0,1.44,0s.25,0,.25-.24V1.68H7.64v10.2H6.69V.77H11Z"/><path class="cls-1" d="M16.69,0h.9V11.88h-.9V7.35H15.27v.31a8.71,8.71,0,0,1-.93,4.25,2.39,2.39,0,0,0-.74-.47,7.83,7.83,0,0,0,.82-3.81V7.35h-.71V6.49h3V4.58H14.26V.52h.86V3.73h1.57Zm8.43,1.34C24,4.17,21.27,5.79,18.54,6.54a3,3,0,0,0-.48-.72A10.55,10.55,0,0,0,22,4a9.08,9.08,0,0,0-1.64-1.74,12,12,0,0,1-1.91,1.07c-.14-.15-.43-.44-.6-.59A8.9,8.9,0,0,0,21.54,0l.94.27a7.07,7.07,0,0,1-.74.84h2.62l.17,0Zm.42,6.13H23.87v3.11c0,.55-.12.82-.51,1a6.38,6.38,0,0,1-2.05.17,3.33,3.33,0,0,0-.31-.92c.77,0,1.48,0,1.67,0s.28-.05.28-.23V7.5H18V6.64H23V4.81h.92V6.64h1.67ZM20.88,4.21c-.95.15-1.85.26-2.64.38l-.17-.73c.74-.06,1.7-.19,2.76-.32Zm-1.17,3.6a9.92,9.92,0,0,1,1.71,2.08l-.79.5A9.91,9.91,0,0,0,19,8.26Zm1.23-6h0a10.82,10.82,0,0,1,1.65,1.68,6.1,6.1,0,0,0,1.35-1.69Z"/><path class="cls-1" d="M39.3,2.15a19.47,19.47,0,0,1-2,1.57,8.82,8.82,0,0,0,2.45,1.51A4,4,0,0,0,39.1,6,10.05,10.05,0,0,1,36,3.78v.67H31.37V3.84a11.31,11.31,0,0,1-3.2,2.3,3.76,3.76,0,0,0-.6-.73A9.37,9.37,0,0,0,30.2,3.69a8.5,8.5,0,0,0-1.65-1.31l.52-.55a8.47,8.47,0,0,1,1.7,1.3,8.57,8.57,0,0,0,1.3-1.82H28.53V.49h4l.18,0,.63.32a8.77,8.77,0,0,1-1.76,2.83h4.29A11.75,11.75,0,0,1,33.71.3L34.55,0a10.74,10.74,0,0,0,.9,1.61A17.25,17.25,0,0,0,37.13.12l.74.52a19.53,19.53,0,0,1-2,1.6,11.31,11.31,0,0,0,.87,1,15.48,15.48,0,0,0,1.81-1.57ZM36.56,9.06c-.28.56-.6,1.17-.88,1.67h3.7v.84H28v-.84h3.56a6.46,6.46,0,0,0-.72-1.62l.87-.27a7,7,0,0,1,.79,1.61l-.81.28h3a11.81,11.81,0,0,0,.95-1.92Zm.72-.32H29.93V5.5h7.35Zm-1-2.43H30.88V7.93h5.39Z"/><path class="cls-1" d="M45.9,7.63C44.59,8.29,43.17,9,42.08,9.5l-.38-.95c.5-.2,1.11-.46,1.77-.76V3.72H42V2.81h1.52V.1h.9V2.81h1.4v.91h-1.4V7.37l1.32-.6Zm2.42-1.49a8.55,8.55,0,0,1-.56.91h5.59a2.9,2.9,0,0,1,0,.39c-.19,2.68-.4,3.69-.76,4.07a1.07,1.07,0,0,1-.73.32c-.29,0-.77,0-1.29,0a1.6,1.6,0,0,0-.22-.78c.48,0,.91.05,1.11.05s.29,0,.38-.14.42-1.06.59-3.1h-1a9,9,0,0,1-2.66,4.07,3.18,3.18,0,0,0-.68-.56,7.6,7.6,0,0,0,2.53-3.51H49.31a9.75,9.75,0,0,1-3.16,3.51,2.64,2.64,0,0,0-.64-.6,8.49,8.49,0,0,0,2.93-2.91H47.13a8.93,8.93,0,0,1-1.7,1.48,4.25,4.25,0,0,0-.66-.59,7.39,7.39,0,0,0,2.58-2.6H45.53V5.32h8.13v.82Zm4.42-1.55H46.8V.39h5.94Zm-.9-3.47H47.68v1h4.16Zm0,1.7H47.68v1h4.16Z"/></g></g></svg>