<svg xmlns="http://www.w3.org/2000/svg" viewBox="0 0 143.63 9.5"><defs><style>.cls-1{fill:#231f20;}</style></defs><title>t1-648</title><g id="Layer_2" data-name="Layer 2"><g id="Layer_1-2" data-name="Layer 1"><path class="cls-1" d="M5.83,6.28V4.72h4.33a5.12,5.12,0,0,1-.61,2.67A4.18,4.18,0,0,1,7.78,8.93a5.81,5.81,0,0,1-2.6.57A5.2,5.2,0,0,1,1.34,8.16,4.64,4.64,0,0,1,0,4.75,4.86,4.86,0,0,1,.66,2.21,4.31,4.31,0,0,1,2.45.56,5.43,5.43,0,0,1,4.89,0,4.26,4.26,0,0,1,7.78.9V.15H9.35V3.43H7.78a2.29,2.29,0,0,0-1-1.31,2.81,2.81,0,0,0-1.57-.48,2.55,2.55,0,0,0-1.88.78,2.92,2.92,0,0,0-.78,2.16A3.38,3.38,0,0,0,3.37,7a2.58,2.58,0,0,0,1.93.83,2.29,2.29,0,0,0,1.39-.41,2,2,0,0,0,.76-1.13Z"/><path class="cls-1" d="M11.31,9.38V7.82h1.11V1.71H11.31V.15h8.14V3.08H17.68V1.71H14.82V3.84h2.31V5.4H14.82V7.82h2.86V6.44h1.77V9.38Z"/><path class="cls-1" d="M22.15,9.38V7.82h1.39V1.71H22.15V3.86H20.56V.15h8.38V3.86H27.37V1.71H25.94V7.82h1.39V9.38Z"/><path class="cls-1" d="M42.26,7.82V9.38H37.72V7.82H38.9l-.44-1.58H36.07l-.5,1.58h1.24V9.38H32.72V7.82h1.14l1.8-6.11H34.43V.15h6V1.71H39.22l1.94,6.11ZM38.08,4.88,37.31,2.1l-.83,2.78Z"/><path class="cls-1" d="M46,9.38V7.82h1.33V1.71H46V.15H54.3V3H52.54V1.71H49.76V3.85h2V5.41h-2V7.82h1.42V9.38Z"/><path class="cls-1" d="M64.83,7.82V9.38H62l-2.08-4H58.87V7.82H60V9.38H55.2V7.82h1.27V1.71H55.2V.15h5.57A2.87,2.87,0,0,1,63,.94a2.67,2.67,0,0,1,.69,1.8A2.38,2.38,0,0,1,62.13,5l1.5,2.79Zm-6-3.95h.82c1,0,1.53-.37,1.53-1.09A.94.94,0,0,0,60.87,2a1.59,1.59,0,0,0-1-.26h-1Z"/><path class="cls-1" d="M65.69,9.38V7.82H66.8V1.71H65.69V.15h8.14V3.08H72.06V1.71H69.2V3.84h2.31V5.4H69.2V7.82h2.86V6.44h1.77V9.38Z"/><path class="cls-1" d="M75.28,9.38V7.82h1.11V1.71H75.28V.15h8.14V3.08H81.65V1.71H78.79V3.84H81.1V5.4H78.79V7.82h2.86V6.44h1.77V9.38Z"/><path class="cls-1" d="M87.67,9.38V7.82h1.2V1.71h-1.2V.15h4.64l2,5.41,2-5.41h4.72V1.71H99.9V7.82h1.19V9.38H96.45V7.82h1.11V1.71h-.22L94.48,9.38h-1L90.59,1.71h-.22V7.82h1.21V9.38Z"/><path class="cls-1" d="M107.29,0a5,5,0,0,1,3.76,1.38,4.58,4.58,0,0,1,1.38,3.37,4.58,4.58,0,0,1-1.38,3.37,5.08,5.08,0,0,1-3.76,1.38,4.93,4.93,0,0,1-3.8-1.42,4.71,4.71,0,0,1-1.33-3.33,4.63,4.63,0,0,1,1.36-3.37A5.07,5.07,0,0,1,107.29,0Zm0,1.69a2.35,2.35,0,0,0-1.8.79,3.35,3.35,0,0,0-.74,2.34A3.12,3.12,0,0,0,105.48,7a2.35,2.35,0,0,0,1.81.82A2.4,2.4,0,0,0,109.1,7a3.32,3.32,0,0,0,.74-2.31,3.24,3.24,0,0,0-.71-2.19A2.32,2.32,0,0,0,107.29,1.69Z"/><path class="cls-1" d="M113.48,9.38V7.82h1.24V1.71h-1.24V.15h3.88l3.4,5.76V1.71h-1.2V.15h4.14V1.71h-1.29V9.45h-2.06l-4-6.85V7.82h1.17V9.38Z"/><path class="cls-1" d="M126.26,9.38V7.82h1.39V1.71h-1.39V3.86h-1.59V.15h8.38V3.86h-1.57V1.71h-1.42V7.82h1.38V9.38Z"/><path class="cls-1" d="M134.13,9.38V7.82h1.15V1.71h-1.15V.15h4.46V1.71h-1v2h2.52v-2h-.94V.15h4.43V1.71h-1.16V7.82h1.16V9.38H139.2V7.82h.94V5.3h-2.52V7.82h1V9.38Z"/></g></g></svg>