<svg height="600" viewBox="0 0 300 600" width="300" xmlns="http://www.w3.org/2000/svg" xmlns:xlink="http://www.w3.org/1999/xlink"><mask id="a" fill="#fff"><path d="m.835625.60543243h50.1546875v29.51506217h-50.1546875z" fill="#fff" fill-rule="evenodd"/></mask><g fill="none" fill-rule="evenodd" transform="translate(44 483)"><g fill="#fefefe" transform="translate(1.5625 .93557)"><path d="m55.8909375 55.4594595-21.5421875-29.8895676c-1.05625.1494324-2.2109375.2249189-3.465625.2249189h-6.7796875l21.5171875 29.6646487z"/><path d="m42.810625 16.8056027c0 3.2428378-1.1671875 5.6075676-3.496875 7.0957297l4.415625 6.2191622c1.4671875-.8888919 2.7578125-2.0227297 3.8734375-3.4030541 2.2578125-2.7945405 3.3875-6.1328919 3.3875-10.0181351 0-4.9744054-1.8015625-8.97672972-5.4046875-12.00851351-3.2671875-2.72367567-8.5765625-4.08551351-15.9265625-4.08551351h-28.8234375l5.64375 7.77972973h24.728125c7.734375 0 11.603125 2.80686489 11.603125 8.42059459" mask="url(#a)"/></g><path d="m21.5184375 43.3093703h10.2703125l-21.378125-29.6615676-10.4109375-.0030811z" fill="#00a547"/><g fill="#fefefe"><g transform="translate(65.625 8.638273)"><path d="m.8278125 1.34797297h6.3203125c3.81875.01078379 5.7296875 1.84094595 5.7296875 5.49202703v4.2318649c0 2.2769189-1.271875 3.8251621-3.815625 4.6431892l5.1875 12.9189729h-4.06875l-4.2296875-12.4152162-1.4375.1725406v12.2426756h-3.6859375zm3.6859375 3.14732433v8.9228108h1.5640625c.7140625 0 1.225-.0477567 1.5328125-.1417297 1.053125-.378973 1.5796875-1.1122703 1.5796875-2.2045135v-4.2318649c0-1.56364865-.840625-2.3447027-2.5203125-2.3447027z"/><path d="m28.5107813 23.6616243c0 3.6510811-2.0750001 5.4812433-6.2250001 5.4920271-4.1484375 0-6.2234374-1.8301622-6.2234374-5.4920271v-17.21554052c0-3.65108108 2.0749999-5.47508108 6.2234374-5.47508108 4.15 0 6.2250001 1.824 6.2250001 5.47508108zm-3.6859376-17.21554052c0-1.55286486-.8406249-2.32929729-2.5218749-2.32929729h-.0328126c-1.6812499 0-2.5218749.77643243-2.5218749 2.32929729v17.21554052c0 1.5636487.8468749 2.3447027 2.5374999 2.3447027 1.6921875 0 2.5390625-.781054 2.5390625-2.3447027z"/><path d="m44.7975 23.6616243c0 3.6510811-2.075 5.4812433-6.225 5.4920271-4.1484375 0-6.2234375-1.8301622-6.2234375-5.4920271v-17.21554052c0-3.65108108 2.075-5.47508108 6.2234375-5.47508108 4.15 0 6.225 1.824 6.225 5.47508108v3.36762163h-3.6859375v-3.36762163c0-1.55286486-.840625-2.32929729-2.521875-2.32929729h-.0328125c-1.68125 0-2.521875.77643243-2.521875 2.32929729v17.21554052c0 1.5636487.846875 2.3447027 2.5375 2.3447027 1.6921875 0 2.5390625-.781054 2.5390625-2.3447027v-3.3522162h3.6859375z"/></g><path d="m121.650781 23.629273 6.207813 13.643027h-3.925l-5.826563-12.7772432v12.7772432h-3.685937v-27.28605405h3.685937v12.84040545l5.826563-12.84040545h3.925z"/><g transform="translate(129.6875 8.638273)"><path d="m.8928125 6.44639189c0-3.65108108 2.075-5.47662162 6.225-5.47662162s6.2234375 1.82554054 6.2234375 5.47662162v3.36762162h-3.6859375v-3.36762162c0-1.55286486-.840625-2.3292973-2.521875-2.3292973h-.03125c-1.68125 0-2.521875.77643244-2.521875 2.3292973v2.5495946c0 1.40497301 1.5328125 3.05797301 4.5953125 4.95591891 2.778125 1.7207838 4.165625 3.7712432 4.165625 6.1529189v3.5571081c0 3.6603244-2.06875 5.4904865-6.2078125 5.4904865-4.1609375-.0092432-6.240625-1.8409459-6.240625-5.4904865v-3.3522162h3.6875v3.3522162c0 1.5621081.8515625 2.3447027 2.553125 2.3447027 1.68125 0 2.521875-.7825946 2.521875-2.3447027v-3.2104865c0-1.5004864-1.5328125-3.2043243-4.596875-5.1145945-2.7765625-1.7207838-4.165625-3.8020541-4.165625-6.24689194z"/><path d="m29.6285938 23.6616243c0 3.6510811-2.0750001 5.4812433-6.225 5.4920271-4.1484375 0-6.2234376-1.8301622-6.2234376-5.4920271v-17.21554052c0-3.65108108 2.0750001-5.47508108 6.2234376-5.47508108 4.1499999 0 6.225 1.824 6.225 5.47508108zm-3.6859375-17.21554052c0-1.55286486-.8406251-2.32929729-2.521875-2.32929729h-.0328126c-1.6812499 0-2.521875.77643243-2.521875 2.32929729v17.21554052c0 1.5636487.846875 2.3447027 2.5375001 2.3447027 1.6921875 0 2.5390625-.781054 2.5390625-2.3447027z"/></g><path d="m163.474375 37.2724541v-27.2860541h3.685938v24.1541351h7.454687v3.131919z"/><path d="m177.734375 37.2723h3.6875v-27.28605405h-3.6875z"/><g transform="translate(65.625 8.638273)"><path d="m120.352812 1.34797297h6.71875c3.820313.01078379 5.729688 1.84094595 5.729688 5.49202703v16.3174054c0 3.6402973-2.015625 5.4658378-6.048437 5.4766216h-6.400001zm3.685938 3.14732433v21.0068108h2.554687c1.68125 0 2.521876-.781054 2.521876-2.3447027v-16.3174054c0-1.56364865-.840626-2.3447027-2.521876-2.3447027z"/><path d="m6.6159375 38.6358324c0 1.0937838-.3078125 1.9302973-.925 2.5095406-.615625.5792432-1.503125.8688648-2.6625.8688648h-1.8796875v-6.6289459h2.078125c1.0703125 0 1.9015625.2834595 2.496875.8519189.59375.5684595.8921875 1.368.8921875 2.3986216m-1.159375.036973c0-1.5867568-.7515625-2.3816757-2.2578125-2.3816757h-.9515625v4.8111081h.78125c1.61875 0 2.428125-.8103243 2.428125-2.4294324"/></g><path d="m78.2225 50.6520486h-3.803125v-6.6289459h3.803125v.9166216h-2.703125v1.803973h2.5328125v.9073784h-2.5328125v2.0812702h2.703125z"/><path d="m84.2865625 48.8520811c0 .590027-.215625 1.0521892-.6484375 1.3864865-.4328125.3358378-1.0296875.5037567-1.7890625.5037567-.7609375 0-1.3828125-.1155405-1.8671875-.3481621v-1.0244595c.30625.1417297.6328125.2526487.9765625.3342973.3453125.0816486.6671875.1232432.9640625.1232432.4359375 0 .75625-.0816486.9640625-.2449459.20625-.1632973.309375-.3820541.309375-.6578108 0-.248027-.09375-.4575406-.284375-.6300811s-.5828125-.3758919-1.1765625-.6115946c-.6140625-.2449459-1.046875-.5253243-1.296875-.8395946-.253125-.3142703-.378125-.6917027-.378125-1.1322973 0-.553054.2-.989027.5984375-1.3063784.3984375-.3173513.9328125-.476027 1.6046875-.476027.64375 0 1.284375.1386487 1.921875.4174865l-.35.8842703c-.596875-.2480271-1.13125-.3728108-1.6-.3728108-.3546875 0-.625.077027-.809375.2295405s-.275.3543243-.275.6054324c0 .1725406.0359375.3188919.109375.4421352.075.1217027.1953125.2372432.3640625.3466216s.471875.2526486.9109375.4298108c.4921875.2033514.8546875.3928378 1.084375.5669189.2296875.1756216.3984375.3743514.50625.5946487.10625.2202973.1609375.4806486.1609375.7795135"/><path d="m86.3234375 50.6518946h1.1v-6.628946h-1.1z"/><g transform="translate(89.0625 42.530165)"><path d="m3.618125 4.52672432h2.4734375v3.32756757c-.403125.13094595-.7921875.22183784-1.165625.2772973-.371875.05391892-.7734375.08164865-1.20625.08164865-1.01875 0-1.803125-.29732433-2.3546875-.89197298-.5515625-.5931081-.828125-1.43116216-.828125-2.51416216 0-1.06605405.3109375-1.90102702.934375-2.50491892.621875-.60235135 1.478125-.90429729 2.5703125-.90429729.7015625 0 1.3671875.13402702 1.9953125.399l-.3859375.90275675c-.5453125-.24802702-1.0921875-.37127027-1.6375-.37127027-.7171875 0-1.284375.22183784-1.7015625.66551352-.4171875.44521621-.625 1.05218919-.625 1.82245946 0 .81032432.1875 1.42654054.5625 1.84864864.3765625.42056757.9171875.63162163 1.621875.63162163.35625 0 .7359375-.04313514 1.140625-.13094595v-1.71h-1.39375z"/><path d="m14.041875 8.12188378h-1.346875l-3.30625-5.28251351h-.0375l.0234375.29578378c.0421875.5622973.0640625 1.0752973.0640625 1.54054054v3.44618919h-.9984375v-6.62894594h1.334375l3.296875 5.25478378h.028125c-.00625-.06932432-.01875-.32197297-.0375-.75948648-.01875-.43597298-.0265625-.77643244-.0265625-1.02137838v-3.47391892h1.00625z"/></g></g><path d="m106.901562 52.8333h.828125v-9.2170541h-.828125z" fill="#00a547"/><g fill="#fefefe" transform="translate(110.9375 42.530165)"><path d="m3.34796875 4.52672432h2.4734375v3.32756757c-.403125.13094595-.7921875.22183784-1.165625.2772973-.371875.05391892-.7734375.08164865-1.20625.08164865-1.01875 0-1.803125-.29732433-2.3546875-.89197298-.5515625-.5931081-.828125-1.43116216-.828125-2.51416216 0-1.06605405.3109375-1.90102702.934375-2.50491892.621875-.60235135 1.478125-.90429729 2.5703125-.90429729.7015625 0 1.3671875.13402702 1.9953125.399l-.3859375.90275675c-.5453125-.24802702-1.0921875-.37127027-1.6375-.37127027-.7171875 0-1.284375.22183784-1.7015625.66551352-.4171875.44521621-.625 1.05218919-.625 1.82245946 0 .81032432.1875 1.42654054.5625 1.84864864.3765625.42056757.915625.63162163 1.621875.63162163.35625 0 .7359375-.04313514 1.140625-.13094595v-1.71h-1.39375z"/><path d="m9.27 5.47431081v2.64818919h-1.1v-6.62894595h1.9c.8671875 0 1.509375.16021622 1.9265625.48064865.4171875.32043244.625.80416216.625 1.45118919 0 .82418919-.434375 1.41267568-1.3046875 1.76391892l1.8984375 2.93318919h-1.25l-1.6109375-2.64818919zm0-.89813513h.7625c.5125 0 .8828125-.09397298 1.1140625-.28037838.2296875-.18794595.34375-.46524325.34375-.83497298 0-.37435135-.1234375-.64394594-.371875-.80724324s-.621875-.24494594-1.121875-.24494594h-.7265625z"/><path d="m19.0960937 8.12188378-.671875-1.84094594h-2.5703125l-.6578124 1.84094594h-1.1578125l2.515625-6.65513513h1.1953125l2.515625 6.65513513zm-.9609374-2.77451351-.6296876-1.80397297c-.046875-.12170271-.1109375-.31272973-.1921875-.57154054-.0796874-.26035135-.1359374-.45137838-.1671875-.57154054-.0828125.37127027-.2046875.77797297-.3625 1.2201081l-.6078125 1.72694595z"/><path d="m26.3375 3.49733514c0 .6917027-.2296875 1.22318918-.690625 1.59137837-.459375.36818919-1.1140625.55305406-1.9625.55305406h-.6984375v2.48027027h-1.1v-6.62894595h1.9359375c.840625 0 1.46875.16945946 1.8875.50837838s.628125.83805405.628125 1.49586487zm-3.3515625 1.23397297h.5828125c.5640625 0 .978125-.09705406 1.2421875-.29116216.2625-.19256757.3953125-.49605406.3953125-.90583784 0-.38205406-.11875-.66551352-.3546875-.85345946-.2359375-.18640541-.603125-.28037838-1.103125-.28037838h-.7625z"/></g><path d="m144.654219 50.6520486h-1.103125v-2.9871081h-3.1v2.9871081h-1.098438v-6.6289459h1.098438v2.7113514h3.1v-2.7113514h1.103125z" fill="#fefefe"/><path d="m147.157813 50.6518946h1.099999v-6.628946h-1.099999z" fill="#fefefe"/><g fill="#fefefe" transform="translate(150 42.530165)"><path d="m3.62859375 2.32791081c-.63125 0-1.128125.2202973-1.490625.66243243-.3609375.4405946-.5421875 1.04910811-.5421875 1.82708108 0 .81186487.1734375 1.42808109.521875 1.84402703.3484375.41748649.8515625.627 1.5109375.627.284375 0 .5609375-.02927027.828125-.08472973.265625-.05545946.54375-.12786486.83125-.21567567v.93048648c-.5265625.19564865-1.125.29424325-1.79375.29424325-.9828125 0-1.7390625-.29424325-2.265625-.88272973-.528125-.58694595-.7921875-1.42808109-.7921875-2.52186487 0-.69016216.128125-1.29251351.384375-1.80859459.25625-.51762163.6265625-.91354054 1.1109375-1.1892973.484375-.27421622 1.053125-.41286487 1.70625-.41286487.6859375 0 1.3203125.14327027 1.903125.42672973l-.3953125.90275676c-.2265625-.1062973-.4671875-.19872973-.7203125-.27883784s-.51875-.12016216-.796875-.12016216"/><path d="m11.3484375 6.32191622c0 .59002702-.215625 1.05218919-.6484375 1.38648648-.4328125.33583784-1.0296875.50375676-1.7890625.50375676-.7609375 0-1.3828125-.11554054-1.8671875-.34816216v-1.02445946c.30625.14172973.6328125.25264865.9765625.3342973.3453125.08164864.6671875.12324324.9640625.12324324.4359375 0 .75625-.08164865.9640625-.24494595.20625-.16329729.309375-.38205405.309375-.65781081 0-.24802703-.09375-.45754054-.284375-.63008108s-.5828125-.37589189-1.1765625-.61159459c-.6140625-.24494595-1.046875-.52532433-1.296875-.8395946-.2515625-.31427027-.378125-.6917027-.378125-1.1322973 0-.55305405.2-.98902702.5984375-1.30637837.3984375-.31735136.9328125-.47602703 1.6046875-.47602703.64375 0 1.284375.13864865 1.921875.41748649l-.35.88427027c-.596875-.24802703-1.13125-.37281082-1.6-.37281082-.3546875 0-.625.07702703-.809375.22954055-.184375.15251351-.275.35432432-.275.60543243 0 .17254054.0359375.31889189.109375.44213513.075.12170271.1953125.23724325.3640625.34662162.16875.10937838.471875.25264865.9109375.42981082.4921875.20335135.8546875.39283783 1.084375.56691891.2296875.17562163.3984375.37435136.50625.59464865.10625.2202973.1609375.48064865.1609375.77951352"/></g><path d="m164.671875 52.8333h.826563v-9.2170541h-.826563z" fill="#00a547"/><g fill="#fefefe" transform="translate(168.75 42.530165)"><path d="m5.00734375 3.49733514c0 .6917027-.2296875 1.22318918-.6890625 1.59137837-.4609375.36818919-1.115625.55305406-1.9640625.55305406h-.6984375v2.48027027h-1.1v-6.62894595h1.9359375c.840625 0 1.46875.16945946 1.8875.50837838s.628125.83805405.628125 1.49586487zm-3.3515625 1.23397297h.5828125c.5640625 0 .978125-.09705406 1.2421875-.29116216.2640625-.19256757.3953125-.49605406.3953125-.90583784 0-.38205406-.11875-.66551352-.3546875-.85345946-.2359375-.18640541-.603125-.28037838-1.103125-.28037838h-.7625z"/><path d="m8.1840625 5.47431081v2.64818919h-1.0984375v-6.62894595h1.8984375c.8671875 0 1.509375.16021622 1.9265625.48064865.4171875.32043244.625.80416216.625 1.45118919 0 .82418919-.434375 1.41267568-1.3046875 1.76391892l1.8984375 2.93318919h-1.25l-1.609375-2.64818919zm0-.89813513h.7625c.5125 0 .884375-.09397298 1.1140625-.28037838.2296875-.18794595.34375-.46524325.34375-.83497298 0-.37435135-.1234375-.64394594-.371875-.80724324s-.621875-.24494594-1.121875-.24494594h-.7265625z"/></g><path d="m182.589062 50.6518946h1.1v-6.628946h-1.1z" fill="#fefefe"/><path d="m191.79875 50.6520486h-1.346875l-3.30625-5.2825135h-.0375l.023438.2957838c.042187.5622973.064062 1.0752973.064062 1.5405406v3.4461891h-.998437v-6.6289459h1.334375l3.296875 5.2547838h.028125c-.00625-.0693243-.01875-.321973-.0375-.7594865-.01875-.435973-.026563-.7764324-.026563-1.0213784v-3.4739189h1.00625z" fill="#fefefe"/><path d="m193.553438 44.0234108v.9304865h1.976562v5.6984595h1.1v-5.6984595h1.978125v-.9304865z" fill="#fefefe"/></g></svg>