<svg xmlns="http://www.w3.org/2000/svg" viewBox="0 0 320 150"><defs><style>.cls-1{fill:#fff;}.cls-2{fill:#004c52;}</style></defs><g id="Layer_1" data-name="Layer 1"><path class="cls-1" d="M68.13,108.62h2.3v-2.3H72v2.3h2.3v1.68H72v2.3H70.43v-2.3h-2.3Z"/><path class="cls-2" d="M76.08,110.78a2.93,2.93,0,0,0,.59.51,2.85,2.85,0,0,0,1.64.5c1.08,0,1.56-.47,1.56-1.08,0-1.61-4.73-.89-4.73-4.19,0-1.35.93-2.28,2.5-2.7v-1.21h1.75v1.21a4.39,4.39,0,0,1,1.72.69,4.28,4.28,0,0,1,.65.53l-1.35,1.35a3.15,3.15,0,0,0-.48-.41,2.34,2.34,0,0,0-1.28-.4c-1,0-1.42.4-1.42.94,0,1.61,4.73.89,4.73,4.19a3,3,0,0,1-2.57,2.83v1.22H77.64v-1.22a5.29,5.29,0,0,1-2.19-.8,4,4,0,0,1-.72-.61Z"/><path class="cls-2" d="M84.1,106.52H82.48v-1.28a2.5,2.5,0,0,0,1.54-.72,2.22,2.22,0,0,0,.42-.56h1.69v9.45h-2Z"/><path class="cls-2" d="M87.73,108.68c0-3,1.89-4.93,4.06-4.93s4,1.9,4,4.93-1.89,4.93-4,4.93S87.73,111.72,87.73,108.68Zm6.08,0c0-2-1-3-2-3s-2,1-2,3,1,3,2,3S93.81,110.71,93.81,108.68Z"/><path class="cls-2" d="M97.44,111.38l1.55.88-1.89,2.91L96,114.56Z"/><path class="cls-2" d="M99.86,108.68c0-3,1.89-4.93,4-4.93s4,1.9,4,4.93-1.89,4.93-4,4.93S99.86,111.72,99.86,108.68Zm6.07,0c0-2-1-3-2-3s-2,1-2,3,1,3,2,3S105.93,110.71,105.93,108.68Z"/><path class="cls-2" d="M109,108.68c0-3,1.89-4.93,4.06-4.93s4,1.9,4,4.93-1.89,4.93-4,4.93S109,111.72,109,108.68Zm6.08,0c0-2-1-3-2-3s-2,1-2,3,1,3,2,3S115.1,110.71,115.1,108.68Z"/><path class="cls-2" d="M118.19,108.68c0-3,1.89-4.93,4-4.93s4.05,1.9,4.05,4.93-1.89,4.93-4.05,4.93S118.19,111.72,118.19,108.68Zm6.08,0c0-2-1-3-2-3s-2,1-2,3,1,3,2,3S124.27,110.71,124.27,108.68Z"/><path class="cls-2" d="M130.45,104h2v9.45h-2Z"/><path class="cls-2" d="M134.62,104h1.82l4.6,5.87V104h2v9.45h-1.82l-4.59-5.87v5.87h-2Z"/><path class="cls-2" d="M147.76,104h4a3.18,3.18,0,1,1,0,6.34h-2v3.11h-2Zm3.91,4.45a1.28,1.28,0,1,0,0-2.56h-1.89v2.56Z"/><path class="cls-2" d="M156.65,104h4.19a3.23,3.23,0,0,1,2.5,5.37,2.43,2.43,0,0,1-.81.57l1.95,3.51h-2.22l-1.69-3.11h-1.89v3.11h-2Zm4.12,4.45a1.28,1.28,0,1,0,0-2.56h-2.09v2.56Z"/><path class="cls-2" d="M165.89,104h2v9.45h-2Z"/><path class="cls-2" d="M169.45,111.52l4.79-5.67h-4.59V104h7.16v1.89L172,111.52h4.92v1.89h-7.49Z"/><path class="cls-2" d="M178.48,104h7v1.89h-5v1.82h3.91v1.82h-3.91v2h5.13v1.89h-7.16Z"/><path class="cls-2" d="M187.58,110.78a2.62,2.62,0,0,0,.58.51,2.88,2.88,0,0,0,1.65.5c1.08,0,1.55-.47,1.55-1.08,0-1.61-4.73-.89-4.73-4.19,0-1.48,1.29-2.77,3.45-2.77a4.59,4.59,0,0,1,2.38.65,4.24,4.24,0,0,1,.79.64l-1.35,1.35a3.63,3.63,0,0,0-.47-.41,2.34,2.34,0,0,0-1.28-.4c-1,0-1.42.4-1.42.94,0,1.61,4.73.89,4.73,4.19,0,1.55-1.36,2.9-3.58,2.9a5.13,5.13,0,0,1-2.75-.74,3.71,3.71,0,0,1-.9-.74Z"/></g></svg>