<svg xmlns="http://www.w3.org/2000/svg" viewBox="0 0 320 150"><defs><style>.cls-1{fill:#fff;}</style></defs><g id="Layer_1" data-name="Layer 1"><path class="cls-1" d="M101,14a5,5,0,1,1,0,10H97.49a.26.26,0,0,1-.26-.26v-9.5a.26.26,0,0,1,.26-.26Zm-1.58,1.93V22.1H101A3,3,0,0,0,104,19a3,3,0,0,0-3-3.08Z"/><path class="cls-1" d="M113.69,13.79A5.23,5.23,0,1,1,108.25,19a5.32,5.32,0,0,1,5.44-5.23m0,8.53A3.3,3.3,0,1,0,110.4,19a3.31,3.31,0,0,0,3.29,3.3"/><path class="cls-1" d="M126.63,13.79A5.23,5.23,0,1,1,121.19,19a5.32,5.32,0,0,1,5.44-5.23m0,8.53a3.3,3.3,0,1,0,0-6.59,3.3,3.3,0,0,0,0,6.59"/><path class="cls-1" d="M134.92,14.27a.26.26,0,0,1,.26-.26h4.18a3.29,3.29,0,0,1,3.44,3.29A3.25,3.25,0,0,1,141,20.24l1.93,3.41a.26.26,0,0,1-.23.38H141a.28.28,0,0,1-.23-.13l-1.86-3.38h-1.86v3.25a.25.25,0,0,1-.26.26h-1.63a.26.26,0,0,1-.26-.26Zm4.37,1.67h-2.22v2.65h2.22a1.3,1.3,0,0,0,1.36-1.29,1.31,1.31,0,0,0-1.36-1.36"/><path class="cls-1" d="M150,14.05a5,5,0,1,1,0,10H146.5a.26.26,0,0,1-.26-.26V14.31a.26.26,0,0,1,.26-.26ZM148.39,16v6.16H150a3,3,0,0,0,3-3.08A3,3,0,0,0,150,16Z"/><path class="cls-1" d="M159.74,21.66l-.8,2.19a.25.25,0,0,1-.24.17H157a.26.26,0,0,1-.24-.35l3.74-9.51a.24.24,0,0,1,.24-.16h1.94a.26.26,0,0,1,.24.16l3.73,9.51a.26.26,0,0,1-.24.35h-1.73a.25.25,0,0,1-.24-.17l-.8-2.19Zm1.94-5.16-1.22,3.3h2.43Z"/><path class="cls-1" d="M168.64,16.72c0-1.58,1.36-2.94,3.51-2.94A4.43,4.43,0,0,1,175.26,15a.26.26,0,0,1,0,.37l-1,1a.26.26,0,0,1-.35,0,2.53,2.53,0,0,0-1.66-.66c-.86,0-1.5.5-1.5,1.08,0,1.86,5.08.79,5.08,4.37,0,1.79-1.36,3.15-3.8,3.15a5.11,5.11,0,0,1-3.62-1.46.25.25,0,0,1,0-.36l.93-.93a.26.26,0,0,1,.36,0,3.18,3.18,0,0,0,2.19.9c1.08,0,1.78-.58,1.78-1.29,0-1.87-5.07-.79-5.07-4.37"/><path class="cls-1" d="M185.08,14.26V18h-4.29V14.26a.26.26,0,0,0-.26-.26H178.9a.25.25,0,0,0-.26.26v9.5a.25.25,0,0,0,.26.26h1.63a.26.26,0,0,0,.26-.26V19.94h4.29v3.82a.26.26,0,0,0,.26.26H187a.25.25,0,0,0,.26-.26v-9.5A.25.25,0,0,0,187,14h-1.63a.26.26,0,0,0-.26.26"/><path class="cls-1" d="M88.75,15.31A6.28,6.28,0,0,0,83.18,12H65.52a.6.6,0,0,0-.43,1l3.85,3.87a1.82,1.82,0,0,0,1.28.54H82.67a1.61,1.61,0,1,1,0,3.21H74.12a.6.6,0,0,0-.43,1l3.85,3.87a1.82,1.82,0,0,0,1.28.54H82.7a7.13,7.13,0,0,0,6-10.76"/></g></svg>