<?xml version="1.0" encoding="UTF-8"?><svg xmlns="http://www.w3.org/2000/svg" viewBox="0 0 383.98 16.22"><defs><style>.d{fill:#fff;}</style></defs><g id="a"/><g id="b"><g id="c"><g><path class="d" d="M5.16,.74c1.72,0,3.1,.55,4.13,1.65s1.56,2.54,1.56,4.31-.51,3.17-1.55,4.28-2.42,1.67-4.13,1.67H0V.75H5.16Zm-.06,9.79c1.02,0,1.84-.36,2.47-1.08s.94-1.66,.94-2.81-.31-2.06-.93-2.76-1.44-1.05-2.47-1.05H2.31v7.7h2.8Z"/><path class="d" d="M15.75,5.33c.56-1.11,1.51-1.58,2.84-1.39v2.11c-.94-.15-1.64,0-2.12,.47s-.71,1.26-.71,2.39v3.74h-2.24V4.05h2.24v1.27h0Z"/><path class="d" d="M21.88,2.86c-.37,0-.69-.12-.95-.38s-.39-.57-.39-.95,.13-.67,.39-.92,.57-.37,.95-.37,.69,.12,.95,.37,.39,.56,.39,.92-.13,.69-.39,.94-.57,.37-.95,.37v.02Zm-1.16,1.21h2.26V12.67h-2.26V4.07Z"/><path class="d" d="M29,4.05h2.6v1.97h-2.6v6.63h-2.24V6.02h-1.65v-1.97h1.65v-.78c0-1.02,.26-1.82,.77-2.4s1.26-.87,2.25-.87c.76,0,1.4,.12,1.94,.37l-.55,1.8c-.34-.15-.7-.22-1.07-.22-.35,0-.62,.12-.81,.35s-.29,.56-.29,.96v.78Z"/><path class="d" d="M39.52,12.38c-.68,.27-1.35,.41-2.01,.41-.95,0-1.67-.27-2.15-.81s-.72-1.29-.72-2.26v-3.69h-1.44v-1.97h1.44V1.26h2.26v2.79h2.52v1.97h-2.52v3.69c0,.72,.35,1.09,1.05,1.09,.37,0,.71-.08,1.02-.24l.55,1.82Z"/><path class="d" d="M48.07,2.86c-.37,0-.69-.12-.95-.38s-.39-.57-.39-.95,.13-.67,.39-.92,.57-.37,.95-.37,.69,.12,.95,.37,.39,.56,.39,.92-.13,.69-.39,.94-.57,.37-.95,.37v.02Zm-1.16,1.21h2.26V12.67h-2.26V4.07Z"/><path class="d" d="M57.2,3.82c1.1,0,1.94,.34,2.52,1.02s.87,1.61,.87,2.79v5.03h-2.25v-4.61c0-.67-.16-1.2-.46-1.58s-.76-.57-1.37-.57-1.12,.22-1.5,.68-.57,1.06-.57,1.82v4.25h-2.24V4.05h2.24v1.09c.69-.89,1.61-1.33,2.76-1.33h0Z"/><path class="d" d="M74.04,12.38c-.68,.27-1.35,.41-2.01,.41-.95,0-1.67-.27-2.15-.81s-.72-1.29-.72-2.26v-3.69h-1.44v-1.97h1.44V1.26h2.26v2.79h2.52v1.97h-2.52v3.69c0,.72,.35,1.09,1.05,1.09,.37,0,.71-.08,1.02-.24l.55,1.82Z"/><path class="d" d="M81.34,3.82c1.1,0,1.94,.34,2.52,1.02s.87,1.61,.87,2.79v5.03h-2.25v-4.61c0-.67-.16-1.2-.46-1.58s-.76-.57-1.37-.57-1.12,.22-1.5,.68-.57,1.06-.57,1.82v4.25h-2.24V.24h2.24V5.14c.69-.89,1.61-1.33,2.76-1.33h0Z"/><path class="d" d="M91.79,12.9c-1.39,0-2.51-.42-3.37-1.25s-1.29-1.93-1.29-3.29,.42-2.39,1.25-3.25,1.92-1.29,3.25-1.29,2.46,.42,3.25,1.25,1.2,1.89,1.2,3.16c0,.35-.02,.61-.05,.8h-6.68c.07,.59,.32,1.06,.75,1.42s1,.53,1.75,.53c1,0,1.69-.38,2.09-1.14l2.03,.6c-.28,.65-.78,1.22-1.5,1.71s-1.6,.74-2.64,.74h-.02Zm2.08-5.26c-.06-.54-.29-1-.7-1.36s-.93-.55-1.58-.55-1.14,.19-1.55,.56-.66,.82-.72,1.34h4.55Z"/><path class="d" d="M113.93,3.8c1.04,0,1.87,.32,2.48,.98s.92,1.57,.92,2.75v5.11h-2.25v-4.64c0-1.4-.55-2.11-1.64-2.11-.59,0-1.04,.21-1.35,.62s-.47,1-.47,1.75v4.38h-2.27v-4.64c0-1.4-.54-2.11-1.61-2.11-.61,0-1.06,.22-1.38,.64s-.47,1.02-.47,1.79v4.32h-2.24V4.05h2.24v1.02c.65-.84,1.5-1.26,2.56-1.26,1.17,0,2.03,.43,2.59,1.29,.68-.86,1.65-1.29,2.91-1.29h0Z"/><path class="d" d="M124.34,12.89c-1.33,0-2.42-.43-3.3-1.3s-1.3-1.95-1.3-3.25,.44-2.37,1.31-3.24,1.97-1.29,3.3-1.29,2.42,.43,3.3,1.29,1.3,1.94,1.3,3.24-.43,2.37-1.3,3.25-1.97,1.3-3.29,1.3h-.02Zm1.74-2.75c.45-.47,.67-1.07,.67-1.79s-.22-1.32-.67-1.79-1.03-.71-1.74-.71-1.29,.23-1.74,.71-.67,1.07-.67,1.79,.22,1.32,.67,1.79,1.03,.71,1.74,.71,1.29-.23,1.74-.71Z"/><path class="d" d="M141.72,3.8c1.04,0,1.87,.32,2.48,.98s.92,1.57,.92,2.75v5.11h-2.25v-4.64c0-1.4-.55-2.11-1.64-2.11-.59,0-1.04,.21-1.35,.62s-.47,1-.47,1.75v4.38h-2.27v-4.64c0-1.4-.54-2.11-1.61-2.11-.61,0-1.06,.22-1.38,.64s-.47,1.02-.47,1.79v4.32h-2.24V4.05h2.24v1.02c.65-.84,1.5-1.26,2.56-1.26,1.17,0,2.03,.43,2.59,1.29,.68-.86,1.65-1.29,2.91-1.29h0Z"/><path class="d" d="M152.23,12.9c-1.39,0-2.51-.42-3.37-1.25s-1.29-1.93-1.29-3.29,.42-2.39,1.25-3.25,1.92-1.29,3.25-1.29,2.46,.42,3.25,1.25,1.2,1.89,1.2,3.16c0,.35-.02,.61-.05,.8h-6.68c.07,.59,.32,1.06,.75,1.42s1,.53,1.75,.53c1,0,1.69-.38,2.09-1.14l2.03,.6c-.28,.65-.78,1.22-1.5,1.71s-1.6,.74-2.64,.74h-.02Zm2.08-5.26c-.06-.54-.29-1-.7-1.36s-.93-.55-1.58-.55-1.14,.19-1.55,.56-.66,.82-.72,1.34h4.55Z"/><path class="d" d="M164.07,3.82c1.1,0,1.94,.34,2.52,1.02s.87,1.61,.87,2.79v5.03h-2.25v-4.61c0-.67-.16-1.2-.46-1.58s-.76-.57-1.37-.57-1.12,.22-1.5,.68-.57,1.06-.57,1.82v4.25h-2.24V4.05h2.24v1.09c.69-.89,1.61-1.33,2.76-1.33h0Z"/><path class="d" d="M175.72,12.38c-.68,.27-1.35,.41-2.01,.41-.95,0-1.67-.27-2.15-.81s-.72-1.29-.72-2.26v-3.69h-1.44v-1.97h1.44V1.26h2.26v2.79h2.52v1.97h-2.52v3.69c0,.72,.35,1.09,1.05,1.09,.37,0,.71-.08,1.02-.24l.55,1.82Z"/><path class="d" d="M191.91,4.05l-5.17,12.17h-2.31l1.56-3.76-3.89-8.41h2.47l2.55,5.81,2.4-5.81h2.4Z"/><path class="d" d="M197.6,12.89c-1.33,0-2.42-.43-3.3-1.3s-1.3-1.95-1.3-3.25,.44-2.37,1.31-3.24,1.97-1.29,3.3-1.29,2.42,.43,3.3,1.29,1.3,1.94,1.3,3.24-.43,2.37-1.3,3.25-1.97,1.3-3.29,1.3h-.02Zm1.74-2.75c.45-.47,.67-1.07,.67-1.79s-.22-1.32-.67-1.79-1.03-.71-1.74-.71-1.29,.23-1.74,.71-.67,1.07-.67,1.79,.22,1.32,.67,1.79,1.03,.71,1.74,.71,1.29-.23,1.74-.71Z"/><path class="d" d="M212.99,4.07V12.67h-2.25v-1.09c-.67,.89-1.59,1.33-2.76,1.33s-1.96-.34-2.53-1.02-.86-1.62-.86-2.81V4.07h2.24v4.59c0,.67,.16,1.2,.47,1.58s.77,.57,1.37,.57c.64,0,1.15-.22,1.52-.68s.56-1.07,.56-1.84V4.05l2.24,.02Z"/><path class="d" d="M218.21,5.33c.56-1.11,1.51-1.58,2.84-1.39v2.11c-.94-.15-1.64,0-2.12,.47s-.71,1.26-.71,2.39v3.74h-2.24V4.05h2.24v1.27h0Z"/><path class="d" d="M232.41,12.92c-1.32,0-2.41-.44-3.27-1.31s-1.29-1.96-1.29-3.25,.43-2.37,1.29-3.24,1.95-1.29,3.25-1.29c1.1,0,2.03,.29,2.79,.87s1.23,1.23,1.42,1.95l-2.09,.6c-.1-.39-.34-.72-.72-1s-.84-.42-1.38-.42c-.69,0-1.25,.25-1.69,.74s-.65,1.09-.65,1.79,.22,1.29,.66,1.79,1,.76,1.69,.76c.53,0,.99-.13,1.38-.41s.63-.6,.73-.97l2.09,.58c-.19,.74-.66,1.39-1.4,1.95s-1.67,.85-2.77,.85l-.04,.02Z"/><path class="d" d="M247.3,4.07V12.67h-2.25v-1.09c-.67,.89-1.59,1.33-2.76,1.33s-1.96-.34-2.53-1.02-.86-1.62-.86-2.81V4.07h2.24v4.59c0,.67,.16,1.2,.47,1.58s.77,.57,1.37,.57c.64,0,1.15-.22,1.52-.68s.56-1.07,.56-1.84V4.05l2.24,.02Z"/><path class="d" d="M252.53,5.33c.56-1.11,1.51-1.58,2.84-1.39v2.11c-.94-.15-1.64,0-2.12,.47s-.71,1.26-.71,2.39v3.74h-2.24V4.05h2.24v1.27h0Z"/><path class="d" d="M258.66,2.86c-.37,0-.69-.12-.95-.38s-.39-.57-.39-.95,.13-.67,.39-.92,.57-.37,.95-.37,.69,.12,.95,.37,.39,.56,.39,.92-.13,.69-.39,.94-.57,.37-.95,.37v.02Zm-1.16,1.21h2.26V12.67h-2.26V4.07Z"/><path class="d" d="M266.81,12.89c-1.33,0-2.42-.43-3.3-1.3s-1.3-1.95-1.3-3.25,.44-2.37,1.31-3.24,1.97-1.29,3.3-1.29,2.42,.43,3.3,1.29,1.3,1.94,1.3,3.24-.43,2.37-1.3,3.25-1.97,1.3-3.29,1.3h-.02Zm1.74-2.75c.45-.47,.67-1.07,.67-1.79s-.22-1.32-.67-1.79-1.03-.71-1.74-.71-1.29,.23-1.74,.71-.67,1.07-.67,1.79,.22,1.32,.67,1.79,1.03,.71,1.74,.71,1.29-.23,1.74-.71Z"/><path class="d" d="M277.31,12.88c-1.02,0-1.92-.27-2.69-.79s-1.27-1.15-1.49-1.87l2.03-.59c.15,.42,.42,.76,.82,1.03s.87,.4,1.43,.4c.42,0,.76-.08,1.03-.26s.4-.38,.4-.63c0-.37-.32-.66-.95-.85l-2.19-.65c-1.42-.41-2.12-1.17-2.12-2.29,0-.71,.34-1.32,1.01-1.83s1.49-.76,2.44-.76c.9,0,1.7,.2,2.38,.6s1.16,.92,1.44,1.58l-1.99,.58c-.37-.67-.99-1-1.83-1-.34,0-.63,.07-.87,.23s-.36,.34-.36,.55c0,.32,.24,.54,.71,.68l2.14,.61c.77,.22,1.37,.51,1.79,.86s.63,.87,.63,1.58c0,.81-.35,1.49-1.05,2.02s-1.59,.8-2.67,.8h-.02Z"/><path class="d" d="M284.65,2.86c-.37,0-.69-.12-.95-.38s-.39-.57-.39-.95,.13-.67,.39-.92,.57-.37,.95-.37,.69,.12,.95,.37,.39,.56,.39,.92-.13,.69-.39,.94-.57,.37-.95,.37v.02Zm-1.16,1.21h2.26V12.67h-2.26V4.07Z"/><path class="d" d="M294.17,12.38c-.68,.27-1.35,.41-2.01,.41-.95,0-1.67-.27-2.15-.81s-.72-1.29-.72-2.26v-3.69h-1.44v-1.97h1.44V1.26h2.26v2.79h2.52v1.97h-2.52v3.69c0,.72,.35,1.09,1.05,1.09,.37,0,.71-.08,1.02-.24l.55,1.82Z"/><path class="d" d="M305.57,4.05l-5.17,12.17h-2.31l1.56-3.76-3.89-8.41h2.47l2.55,5.81,2.4-5.81h2.4Z"/><path class="d" d="M316.63,12.92c-1.32,0-2.41-.44-3.27-1.31s-1.29-1.96-1.29-3.25,.43-2.37,1.29-3.24,1.95-1.29,3.25-1.29c1.1,0,2.03,.29,2.79,.87s1.23,1.23,1.42,1.95l-2.09,.6c-.1-.39-.34-.72-.72-1s-.84-.42-1.38-.42c-.69,0-1.25,.25-1.69,.74s-.65,1.09-.65,1.79,.22,1.29,.66,1.79,1,.76,1.69,.76c.53,0,.99-.13,1.38-.41s.63-.6,.73-.97l2.09,.58c-.19,.74-.66,1.39-1.4,1.95s-1.67,.85-2.77,.85l-.04,.02Z"/><path class="d" d="M325.48,5.33c.56-1.11,1.51-1.58,2.84-1.39v2.11c-.94-.15-1.64,0-2.12,.47s-.71,1.26-.71,2.39v3.74h-2.24V4.05h2.24v1.27h0Z"/><path class="d" d="M334.65,12.9c-1.39,0-2.51-.42-3.37-1.25s-1.29-1.93-1.29-3.29,.42-2.39,1.25-3.25,1.92-1.29,3.25-1.29,2.46,.42,3.25,1.25,1.2,1.89,1.2,3.16c0,.35-.02,.61-.05,.8h-6.68c.07,.59,.32,1.06,.75,1.42s1,.53,1.75,.53c1,0,1.69-.38,2.09-1.14l2.03,.6c-.28,.65-.78,1.22-1.5,1.71s-1.6,.74-2.64,.74h-.02Zm2.08-5.26c-.06-.54-.29-1-.7-1.36s-.93-.55-1.58-.55-1.14,.19-1.55,.56-.66,.82-.72,1.34h4.55Z"/><path class="d" d="M345.24,12.9c-1.2,0-2.21-.43-3.02-1.3s-1.22-1.95-1.22-3.24,.41-2.39,1.22-3.25,1.83-1.29,3.03-1.29,2.1,.42,2.76,1.28v-1.04h2.27V12.65h-2.27v-1.05c-.66,.86-1.59,1.29-2.76,1.29h0Zm.39-2.02c.69,0,1.27-.24,1.74-.72s.71-1.09,.71-1.83-.23-1.32-.71-1.79-1.05-.71-1.74-.71-1.29,.23-1.74,.71-.68,1.08-.68,1.82,.22,1.36,.68,1.83,1.04,.71,1.74,.71v-.02Z"/><path class="d" d="M358.67,12.38c-.68,.27-1.35,.41-2.01,.41-.95,0-1.67-.27-2.15-.81s-.72-1.29-.72-2.26v-3.69h-1.44v-1.97h1.44V1.26h2.26v2.79h2.52v1.97h-2.52v3.69c0,.72,.35,1.09,1.05,1.09,.37,0,.71-.08,1.02-.24l.55,1.82Z"/><path class="d" d="M364.93,12.9c-1.39,0-2.51-.42-3.37-1.25s-1.29-1.93-1.29-3.29,.42-2.39,1.25-3.25,1.92-1.29,3.25-1.29,2.46,.42,3.25,1.25,1.2,1.89,1.2,3.16c0,.35-.02,.61-.05,.8h-6.68c.07,.59,.32,1.06,.75,1.42s1,.53,1.75,.53c1,0,1.69-.38,2.09-1.14l2.03,.6c-.28,.65-.78,1.22-1.5,1.71s-1.6,.74-2.64,.74h-.02Zm2.08-5.26c-.06-.54-.29-1-.7-1.36s-.93-.55-1.58-.55-1.14,.19-1.55,.56-.66,.82-.72,1.34h4.55Z"/><path class="d" d="M375.18,12.88c-1.02,0-1.92-.27-2.69-.79s-1.27-1.15-1.49-1.87l2.03-.59c.15,.42,.42,.76,.82,1.03s.87,.4,1.43,.4c.42,0,.76-.08,1.03-.26s.4-.38,.4-.63c0-.37-.32-.66-.95-.85l-2.19-.65c-1.42-.41-2.12-1.17-2.12-2.29,0-.71,.34-1.32,1.01-1.83s1.49-.76,2.44-.76c.9,0,1.7,.2,2.38,.6s1.16,.92,1.44,1.58l-1.99,.58c-.37-.67-.99-1-1.83-1-.34,0-.63,.07-.87,.23s-.36,.34-.36,.55c0,.32,.24,.54,.71,.68l2.14,.61c.77,.22,1.37,.51,1.79,.86s.63,.87,.63,1.58c0,.81-.35,1.49-1.05,2.02s-1.59,.8-2.67,.8h-.02Z"/><path class="d" d="M382.59,12.8c-.4,0-.73-.13-1-.41s-.4-.61-.4-1c0-.37,.13-.68,.41-.94s.61-.39,1-.39,.71,.13,.98,.39,.4,.56,.4,.92c0,.39-.13,.72-.4,1s-.59,.41-.98,.41v.02Z"/></g></g></g></svg>