<?xml version="1.0" encoding="UTF-8"?><svg id="a" xmlns="http://www.w3.org/2000/svg" viewBox="0 0 949.98 154.91"><defs><style>.b{fill:#fff;}</style></defs><polygon class="b" points="308.74 90.14 308.74 90.14 308.74 123.8 337.26 123.41 337.26 90.14 407.54 90.14 407.54 85.33 308.74 85.33 308.74 90.14"/><path class="b" d="M290.53,152.08l-36.92-55.08c9.99-3.64,17.86-9.5,23.5-17.7,5.7-8.3,8.61-17.42,8.61-27.48,0-12.55-4.67-23.75-14-33.6-9.33-9.85-21.67-14.72-36.91-14.72h-43.41l-.04,26.13h42.62c6.84,0,12.44,2.18,16.9,6.53,4.46,4.36,6.64,9.64,6.64,15.76,0,6.43-2.28,11.82-6.84,16.18-3.99,3.81-9,5.95-15.12,6.43h-73.13v2.4h0v2.4h73.56l48.77,72.75h5.78Z"/><rect class="b" x="731.12" y="3.1" width="82.6" height="4.8"/><rect class="b" x="731.12" y="23.86" width="82.6" height="4.8"/><rect class="b" x="730.6" y="125.07" width="83.2" height="26.34"/><path class="b" d="M79.17,153.82v-19.66l-.07-2.98s.05,0,.07,0v-4.81c-.06,0-.12,0-.18,0v-.13c-14.21,0-27.12-4.87-36.04-14.72-8.08-8.93-12.49-19.48-13.25-31.73H0c.77,20.48,8.11,37.73,22.12,51.74,14.34,14.34,33.57,21.7,54.98,22.16v.16c.7,0,1.38-.02,2.07-.03Z"/><path class="b" d="M939.71,82.64c-6.84-6.01-16.8-10.99-29.76-14.93l-36.91-11.92c-9.44-2.8-14.21-7.47-14.21-14,0-4.46,2.18-8.3,6.64-11.41,4.46-3.11,10.16-4.67,17.21-4.67,.45,0,.9,0,1.35,.02v.06c.59,0,1.22,.02,1.87,.06v-4.81c-.05,0-.11,0-.16-.01V4.83c.05,0,.1,0,.16,0V.03c-.63-.02-1.25-.03-1.87-.03V.12c-.58-.01-1.17-.02-1.76-.02-15.24,0-28,4.15-38.16,12.44-10.16,8.3-15.24,18.35-15.14,30.07-.1,9.23,2.9,17.01,9.02,23.43,6.12,6.43,14.31,11.3,24.68,14.52l37.95,11.92c7.16,2.18,12.24,4.77,15.24,7.67,3.01,2.9,4.46,6.33,4.46,10.27,0,5.08-2.59,9.44-7.88,13.17-5.29,3.73-12.13,5.6-20.53,5.6-2.72,0-5.35-.19-7.88-.55v26.07c2,.13,4.04,.2,6.12,.2l.52-.31c17.52,0,31.83-4.46,42.82-13.38,10.99-8.92,16.49-19.8,16.49-32.77,0-11.2-3.42-19.8-10.27-25.82Z"/></svg>