<?xml version="1.0" encoding="UTF-8"?><svg id="a" xmlns="http://www.w3.org/2000/svg" viewBox="0 0 949.98 154.91"><defs><style>.b{fill:#fff;}</style></defs><path class="b" d="M487.36,7.02c1.18,0,2.13-.95,2.13-2.13s-.95-2.13-2.13-2.13-2.13,.95-2.13,2.13,.95,2.13,2.13,2.13Z"/><path class="b" d="M498.38,7.02c1.18,0,2.13-.95,2.13-2.13s-.95-2.13-2.13-2.13-2.13,.95-2.13,2.13,.95,2.13,2.13,2.13Z"/><circle class="b" cx="492.87" cy="4.89" r="2.13"/><path class="b" d="M503.88,7.02c1.18,0,2.13-.95,2.13-2.13s-.95-2.13-2.13-2.13-2.13,.95-2.13,2.13,.95,2.13,2.13,2.13Z"/><path class="b" d="M509.39,7.02c1.18,0,2.13-.95,2.13-2.13s-.95-2.13-2.13-2.13-2.13,.95-2.13,2.13,.95,2.13,2.13,2.13Z"/><path class="b" d="M485.25,12.6c1.18,0,2.13-.95,2.13-2.13s-.95-2.13-2.13-2.13-2.13,.95-2.13,2.13,.95,2.13,2.13,2.13Z"/><path class="b" d="M496.26,8.34c-1.18,0-2.13,.95-2.13,2.13s.95,2.13,2.13,2.13,2.13-.95,2.13-2.13-.95-2.13-2.13-2.13Z"/><path class="b" d="M490.75,8.34c-1.18,0-2.13,.95-2.13,2.13s.95,2.13,2.13,2.13,2.13-.95,2.13-2.13-.95-2.13-2.13-2.13Z"/><path class="b" d="M501.77,12.6c1.18,0,2.13-.95,2.13-2.13s-.95-2.13-2.13-2.13-2.13,.95-2.13,2.13,.95,2.13,2.13,2.13Z"/><path class="b" d="M509.4,10.47c0-1.18-.95-2.13-2.13-2.13s-2.13,.95-2.13,2.13,.95,2.13,2.13,2.13,2.13-.95,2.13-2.13Z"/><path class="b" d="M483.13,18.18c1.18,0,2.13-.95,2.13-2.13s-.95-2.13-2.13-2.13-2.13,.95-2.13,2.13,.95,2.13,2.13,2.13Z"/><path class="b" d="M492.02,16.05c0,1.18,.95,2.13,2.13,2.13s2.13-.95,2.13-2.13-.95-2.13-2.13-2.13-2.13,.95-2.13,2.13Z"/><path class="b" d="M486.51,16.05c0,1.18,.95,2.13,2.13,2.13s2.13-.95,2.13-2.13-.95-2.13-2.13-2.13-2.13,.95-2.13,2.13Z"/><path class="b" d="M497.52,16.05c0,1.18,.95,2.13,2.13,2.13s2.13-.95,2.13-2.13-.95-2.13-2.13-2.13-2.13,.95-2.13,2.13Z"/><path class="b" d="M507.29,16.05c0-1.18-.95-2.13-2.13-2.13s-2.13,.95-2.13,2.13,.95,2.13,2.13,2.13,2.13-.95,2.13-2.13Z"/><path class="b" d="M481.01,23.76c1.18,0,2.13-.95,2.13-2.13s-.95-2.13-2.13-2.13-2.13,.95-2.13,2.13,.95,2.13,2.13,2.13Z"/><path class="b" d="M492.03,23.76c1.18,0,2.13-.95,2.13-2.13s-.95-2.13-2.13-2.13-2.13,.95-2.13,2.13,.95,2.13,2.13,2.13Z"/><path class="b" d="M484.39,21.63c0,1.18,.95,2.13,2.13,2.13s2.13-.95,2.13-2.13-.95-2.13-2.13-2.13-2.13,.95-2.13,2.13Z"/><path class="b" d="M499.66,21.63c0-1.18-.95-2.13-2.13-2.13s-2.13,.95-2.13,2.13,.95,2.13,2.13,2.13,2.13-.95,2.13-2.13Z"/><path class="b" d="M505.17,21.63c0-1.18-.95-2.13-2.13-2.13s-2.13,.95-2.13,2.13,.95,2.13,2.13,2.13,2.13-.95,2.13-2.13Z"/><path class="b" d="M478.9,29.35c1.18,0,2.13-.95,2.13-2.13s-.95-2.13-2.13-2.13-2.13,.95-2.13,2.13,.95,2.13,2.13,2.13Z"/><path class="b" d="M487.78,27.22c0,1.18,.95,2.13,2.13,2.13s2.13-.95,2.13-2.13-.95-2.13-2.13-2.13-2.13,.95-2.13,2.13Z"/><path class="b" d="M482.27,27.22c0,1.18,.95,2.13,2.13,2.13s2.13-.95,2.13-2.13-.95-2.13-2.13-2.13-2.13,.95-2.13,2.13Z"/><path class="b" d="M497.55,27.22c0-1.18-.95-2.13-2.13-2.13s-2.13,.95-2.13,2.13,.95,2.13,2.13,2.13,2.13-.95,2.13-2.13Z"/><path class="b" d="M503.05,27.22c0-1.18-.95-2.13-2.13-2.13s-2.13,.95-2.13,2.13,.95,2.13,2.13,2.13,2.13-.95,2.13-2.13Z"/><path class="b" d="M476.78,34.93c1.18,0,2.13-.95,2.13-2.13s-.95-2.13-2.13-2.13-2.13,.95-2.13,2.13,.95,2.13,2.13,2.13Z"/><path class="b" d="M485.67,32.8c0,1.18,.95,2.13,2.13,2.13s2.13-.95,2.13-2.13-.95-2.13-2.13-2.13-2.13,.95-2.13,2.13Z"/><path class="b" d="M480.16,32.8c0,1.18,.95,2.13,2.13,2.13s2.13-.95,2.13-2.13-.95-2.13-2.13-2.13-2.13,.95-2.13,2.13Z"/><path class="b" d="M495.43,32.8c0-1.18-.95-2.13-2.13-2.13s-2.13,.95-2.13,2.13,.95,2.13,2.13,2.13,2.13-.95,2.13-2.13Z"/><path class="b" d="M500.94,32.8c0-1.18-.95-2.13-2.13-2.13s-2.13,.95-2.13,2.13,.95,2.13,2.13,2.13,2.13-.95,2.13-2.13Z"/><path class="b" d="M474.66,40.51c1.18,0,2.13-.95,2.13-2.13s-.95-2.13-2.13-2.13-2.13,.95-2.13,2.13,.95,2.13,2.13,2.13Z"/><path class="b" d="M483.55,38.38c0,1.18,.95,2.13,2.13,2.13s2.13-.95,2.13-2.13-.95-2.13-2.13-2.13-2.13,.95-2.13,2.13Z"/><path class="b" d="M478.04,38.38c0,1.18,.95,2.13,2.13,2.13s2.13-.95,2.13-2.13-.95-2.13-2.13-2.13-2.13,.95-2.13,2.13Z"/><circle class="b" cx="491.19" cy="38.38" r="2.13"/><path class="b" d="M498.82,38.38c0-1.18-.95-2.13-2.13-2.13s-2.13,.95-2.13,2.13,.95,2.13,2.13,2.13,2.13-.95,2.13-2.13Z"/><path class="b" d="M472.55,46.09c1.18,0,2.13-.95,2.13-2.13s-.95-2.13-2.13-2.13-2.13,.95-2.13,2.13,.95,2.13,2.13,2.13Z"/><path class="b" d="M481.43,43.96c0,1.18,.95,2.13,2.13,2.13s2.13-.95,2.13-2.13-.95-2.13-2.13-2.13-2.13,.95-2.13,2.13Z"/><path class="b" d="M475.92,43.96c0,1.18,.95,2.13,2.13,2.13s2.13-.95,2.13-2.13-.95-2.13-2.13-2.13-2.13,.95-2.13,2.13Z"/><path class="b" d="M491.2,43.96c0-1.18-.95-2.13-2.13-2.13s-2.13,.95-2.13,2.13,.95,2.13,2.13,2.13,2.13-.95,2.13-2.13Z"/><path class="b" d="M496.7,43.96c0-1.18-.95-2.13-2.13-2.13s-2.13,.95-2.13,2.13,.95,2.13,2.13,2.13,2.13-.95,2.13-2.13Z"/><path class="b" d="M470.43,51.67c1.18,0,2.13-.95,2.13-2.13s-.95-2.13-2.13-2.13-2.13,.95-2.13,2.13,.95,2.13,2.13,2.13Z"/><path class="b" d="M479.32,49.55c0,1.18,.95,2.13,2.13,2.13s2.13-.95,2.13-2.13-.95-2.13-2.13-2.13-2.13,.95-2.13,2.13Z"/><path class="b" d="M473.81,49.55c0,1.18,.95,2.13,2.13,2.13s2.13-.95,2.13-2.13-.95-2.13-2.13-2.13-2.13,.95-2.13,2.13Z"/><circle class="b" cx="486.95" cy="49.55" r="2.13"/><path class="b" d="M494.59,49.55c0-1.18-.95-2.13-2.13-2.13s-2.13,.95-2.13,2.13,.95,2.13,2.13,2.13,2.13-.95,2.13-2.13Z"/><circle class="b" cx="468.31" cy="55.13" r="2.13"/><path class="b" d="M477.2,55.13c0,1.18,.95,2.13,2.13,2.13s2.13-.95,2.13-2.13-.95-2.13-2.13-2.13-2.13,.95-2.13,2.13Z"/><path class="b" d="M471.69,55.13c0,1.18,.95,2.13,2.13,2.13s2.13-.95,2.13-2.13-.95-2.13-2.13-2.13-2.13,.95-2.13,2.13Z"/><path class="b" d="M486.96,55.13c0-1.18-.95-2.13-2.13-2.13s-2.13,.95-2.13,2.13,.95,2.13,2.13,2.13,2.13-.95,2.13-2.13Z"/><path class="b" d="M492.47,55.13c0-1.18-.95-2.13-2.13-2.13s-2.13,.95-2.13,2.13,.95,2.13,2.13,2.13,2.13-.95,2.13-2.13Z"/><path class="b" d="M466.2,62.84c1.18,0,2.13-.95,2.13-2.13s-.95-2.13-2.13-2.13-2.13,.95-2.13,2.13,.95,2.13,2.13,2.13Z"/><path class="b" d="M475.08,60.71c0,1.18,.95,2.13,2.13,2.13s2.13-.95,2.13-2.13-.95-2.13-2.13-2.13-2.13,.95-2.13,2.13Z"/><path class="b" d="M469.58,60.71c0,1.18,.95,2.13,2.13,2.13s2.13-.95,2.13-2.13-.95-2.13-2.13-2.13-2.13,.95-2.13,2.13Z"/><path class="b" d="M484.85,60.71c0-1.18-.95-2.13-2.13-2.13s-2.13,.95-2.13,2.13,.95,2.13,2.13,2.13,2.13-.95,2.13-2.13Z"/><path class="b" d="M490.35,60.71c0-1.18-.95-2.13-2.13-2.13s-2.13,.95-2.13,2.13,.95,2.13,2.13,2.13,2.13-.95,2.13-2.13Z"/><path class="b" d="M464.08,68.42c1.18,0,2.13-.95,2.13-2.13s-.95-2.13-2.13-2.13-2.13,.95-2.13,2.13,.95,2.13,2.13,2.13Z"/><path class="b" d="M472.97,66.29c0,1.18,.95,2.13,2.13,2.13s2.13-.95,2.13-2.13-.95-2.13-2.13-2.13-2.13,.95-2.13,2.13Z"/><path class="b" d="M467.46,66.29c0,1.18,.95,2.13,2.13,2.13s2.13-.95,2.13-2.13-.95-2.13-2.13-2.13-2.13,.95-2.13,2.13Z"/><path class="b" d="M482.73,66.29c0-1.18-.95-2.13-2.13-2.13s-2.13,.95-2.13,2.13,.95,2.13,2.13,2.13,2.13-.95,2.13-2.13Z"/><path class="b" d="M488.24,66.29c0-1.18-.95-2.13-2.13-2.13s-2.13,.95-2.13,2.13,.95,2.13,2.13,2.13,2.13-.95,2.13-2.13Z"/><path class="b" d="M461.96,74c1.18,0,2.13-.95,2.13-2.13s-.95-2.13-2.13-2.13-2.13,.95-2.13,2.13,.95,2.13,2.13,2.13Z"/><path class="b" d="M470.85,71.87c0,1.18,.95,2.13,2.13,2.13s2.13-.95,2.13-2.13-.95-2.13-2.13-2.13-2.13,.95-2.13,2.13Z"/><path class="b" d="M465.34,71.87c0,1.18,.95,2.13,2.13,2.13s2.13-.95,2.13-2.13-.95-2.13-2.13-2.13-2.13,.95-2.13,2.13Z"/><path class="b" d="M480.61,71.87c0-1.18-.95-2.13-2.13-2.13s-2.13,.95-2.13,2.13,.95,2.13,2.13,2.13,2.13-.95,2.13-2.13Z"/><path class="b" d="M486.12,71.87c0-1.18-.95-2.13-2.13-2.13s-2.13,.95-2.13,2.13,.95,2.13,2.13,2.13,2.13-.95,2.13-2.13Z"/><path class="b" d="M459.85,79.58c1.18,0,2.13-.95,2.13-2.13s-.95-2.13-2.13-2.13-2.13,.95-2.13,2.13,.95,2.13,2.13,2.13Z"/><path class="b" d="M468.73,77.46c0,1.18,.95,2.13,2.13,2.13s2.13-.95,2.13-2.13-.95-2.13-2.13-2.13-2.13,.95-2.13,2.13Z"/><path class="b" d="M463.23,77.46c0,1.18,.95,2.13,2.13,2.13s2.13-.95,2.13-2.13-.95-2.13-2.13-2.13-2.13,.95-2.13,2.13Z"/><path class="b" d="M478.5,77.46c0-1.18-.95-2.13-2.13-2.13s-2.13,.95-2.13,2.13,.95,2.13,2.13,2.13,2.13-.95,2.13-2.13Z"/><path class="b" d="M484.01,77.46c0-1.18-.95-2.13-2.13-2.13s-2.13,.95-2.13,2.13,.95,2.13,2.13,2.13,2.13-.95,2.13-2.13Z"/><path class="b" d="M457.73,85.17c1.18,0,2.13-.95,2.13-2.13s-.95-2.13-2.13-2.13-2.13,.95-2.13,2.13,.95,2.13,2.13,2.13Z"/><path class="b" d="M466.62,83.04c0,1.18,.95,2.13,2.13,2.13s2.13-.95,2.13-2.13-.95-2.13-2.13-2.13-2.13,.95-2.13,2.13Z"/><path class="b" d="M461.11,83.04c0,1.18,.95,2.13,2.13,2.13s2.13-.95,2.13-2.13-.95-2.13-2.13-2.13-2.13,.95-2.13,2.13Z"/><path class="b" d="M476.38,83.04c0-1.18-.95-2.13-2.13-2.13s-2.13,.95-2.13,2.13,.95,2.13,2.13,2.13,2.13-.95,2.13-2.13Z"/><path class="b" d="M481.89,83.04c0-1.18-.95-2.13-2.13-2.13s-2.13,.95-2.13,2.13,.95,2.13,2.13,2.13,2.13-.95,2.13-2.13Z"/><path class="b" d="M455.61,90.75c1.18,0,2.13-.95,2.13-2.13s-.95-2.13-2.13-2.13-2.13,.95-2.13,2.13,.95,2.13,2.13,2.13Z"/><path class="b" d="M468.76,88.62c0-1.18-.95-2.13-2.13-2.13s-2.13,.95-2.13,2.13,.95,2.13,2.13,2.13,2.13-.95,2.13-2.13Z"/><path class="b" d="M458.99,88.62c0,1.18,.95,2.13,2.13,2.13s2.13-.95,2.13-2.13-.95-2.13-2.13-2.13-2.13,.95-2.13,2.13Z"/><path class="b" d="M474.26,88.62c0-1.18-.95-2.13-2.13-2.13s-2.13,.95-2.13,2.13,.95,2.13,2.13,2.13,2.13-.95,2.13-2.13Z"/><path class="b" d="M479.77,88.62c0-1.18-.95-2.13-2.13-2.13s-2.13,.95-2.13,2.13,.95,2.13,2.13,2.13,2.13-.95,2.13-2.13Z"/><path class="b" d="M453.5,96.33c1.18,0,2.13-.95,2.13-2.13s-.95-2.13-2.13-2.13-2.13,.95-2.13,2.13,.95,2.13,2.13,2.13Z"/><path class="b" d="M466.64,94.2c0-1.18-.95-2.13-2.13-2.13s-2.13,.95-2.13,2.13,.95,2.13,2.13,2.13,2.13-.95,2.13-2.13Z"/><path class="b" d="M456.88,94.2c0,1.18,.95,2.13,2.13,2.13s2.13-.95,2.13-2.13-.95-2.13-2.13-2.13-2.13,.95-2.13,2.13Z"/><path class="b" d="M470.02,96.33c1.18,0,2.13-.95,2.13-2.13s-.95-2.13-2.13-2.13-2.13,.95-2.13,2.13,.95,2.13,2.13,2.13Z"/><path class="b" d="M477.66,94.2c0-1.18-.95-2.13-2.13-2.13s-2.13,.95-2.13,2.13,.95,2.13,2.13,2.13,2.13-.95,2.13-2.13Z"/><path class="b" d="M451.38,101.91c1.18,0,2.13-.95,2.13-2.13s-.95-2.13-2.13-2.13-2.13,.95-2.13,2.13,.95,2.13,2.13,2.13Z"/><circle class="b" cx="462.4" cy="99.78" r="2.13"/><path class="b" d="M454.76,99.78c0,1.18,.95,2.13,2.13,2.13s2.13-.95,2.13-2.13-.95-2.13-2.13-2.13-2.13,.95-2.13,2.13Z"/><path class="b" d="M470.03,99.78c0-1.18-.95-2.13-2.13-2.13s-2.13,.95-2.13,2.13,.95,2.13,2.13,2.13,2.13-.95,2.13-2.13Z"/><path class="b" d="M475.54,99.78c0-1.18-.95-2.13-2.13-2.13s-2.13,.95-2.13,2.13,.95,2.13,2.13,2.13,2.13-.95,2.13-2.13Z"/><path class="b" d="M449.26,107.49c1.18,0,2.13-.95,2.13-2.13s-.95-2.13-2.13-2.13-2.13,.95-2.13,2.13,.95,2.13,2.13,2.13Z"/><path class="b" d="M462.41,105.37c0-1.18-.95-2.13-2.13-2.13s-2.13,.95-2.13,2.13,.95,2.13,2.13,2.13,2.13-.95,2.13-2.13Z"/><path class="b" d="M452.64,105.37c0,1.18,.95,2.13,2.13,2.13s2.13-.95,2.13-2.13-.95-2.13-2.13-2.13-2.13,.95-2.13,2.13Z"/><path class="b" d="M467.91,105.37c0-1.18-.95-2.13-2.13-2.13s-2.13,.95-2.13,2.13,.95,2.13,2.13,2.13,2.13-.95,2.13-2.13Z"/><path class="b" d="M471.29,107.49c1.18,0,2.13-.95,2.13-2.13s-.95-2.13-2.13-2.13-2.13,.95-2.13,2.13,.95,2.13,2.13,2.13Z"/><path class="b" d="M447.15,113.08c1.18,0,2.13-.95,2.13-2.13s-.95-2.13-2.13-2.13-2.13,.95-2.13,2.13,.95,2.13,2.13,2.13Z"/><path class="b" d="M460.29,110.95c0-1.18-.95-2.13-2.13-2.13s-2.13,.95-2.13,2.13,.95,2.13,2.13,2.13,2.13-.95,2.13-2.13Z"/><path class="b" d="M450.53,110.95c0,1.18,.95,2.13,2.13,2.13s2.13-.95,2.13-2.13-.95-2.13-2.13-2.13-2.13,.95-2.13,2.13Z"/><circle class="b" cx="463.67" cy="110.95" r="2.13"/><path class="b" d="M469.18,108.82c-1.18,0-2.13,.95-2.13,2.13s.95,2.13,2.13,2.13,2.13-.95,2.13-2.13-.95-2.13-2.13-2.13Z"/><path class="b" d="M445.03,118.66c1.18,0,2.13-.95,2.13-2.13s-.95-2.13-2.13-2.13-2.13,.95-2.13,2.13,.95,2.13,2.13,2.13Z"/><path class="b" d="M458.17,116.53c0-1.18-.95-2.13-2.13-2.13s-2.13,.95-2.13,2.13,.95,2.13,2.13,2.13,2.13-.95,2.13-2.13Z"/><path class="b" d="M448.41,116.53c0,1.18,.95,2.13,2.13,2.13s2.13-.95,2.13-2.13-.95-2.13-2.13-2.13-2.13,.95-2.13,2.13Z"/><path class="b" d="M463.68,116.53c0-1.18-.95-2.13-2.13-2.13s-2.13,.95-2.13,2.13,.95,2.13,2.13,2.13,2.13-.95,2.13-2.13Z"/><path class="b" d="M467.06,114.4c-1.18,0-2.13,.95-2.13,2.13s.95,2.13,2.13,2.13,2.13-.95,2.13-2.13-.95-2.13-2.13-2.13Z"/><path class="b" d="M442.91,124.24c1.18,0,2.13-.95,2.13-2.13s-.95-2.13-2.13-2.13-2.13,.95-2.13,2.13,.95,2.13,2.13,2.13Z"/><path class="b" d="M456.06,122.11c0-1.18-.95-2.13-2.13-2.13s-2.13,.95-2.13,2.13,.95,2.13,2.13,2.13,2.13-.95,2.13-2.13Z"/><path class="b" d="M446.29,122.11c0,1.18,.95,2.13,2.13,2.13s2.13-.95,2.13-2.13-.95-2.13-2.13-2.13-2.13,.95-2.13,2.13Z"/><circle class="b" cx="459.44" cy="122.11" r="2.13"/><path class="b" d="M464.94,119.98c-1.18,0-2.13,.95-2.13,2.13s.95,2.13,2.13,2.13,2.13-.95,2.13-2.13-.95-2.13-2.13-2.13Z"/><circle class="b" cx="440.8" cy="127.69" r="2.13"/><path class="b" d="M453.94,127.69c0-1.18-.95-2.13-2.13-2.13s-2.13,.95-2.13,2.13,.95,2.13,2.13,2.13,2.13-.95,2.13-2.13Z"/><path class="b" d="M444.18,127.69c0,1.18,.95,2.13,2.13,2.13s2.13-.95,2.13-2.13-.95-2.13-2.13-2.13-2.13,.95-2.13,2.13Z"/><path class="b" d="M459.45,127.69c0-1.18-.95-2.13-2.13-2.13s-2.13,.95-2.13,2.13,.95,2.13,2.13,2.13,2.13-.95,2.13-2.13Z"/><path class="b" d="M462.83,125.57c-1.18,0-2.13,.95-2.13,2.13s.95,2.13,2.13,2.13,2.13-.95,2.13-2.13-.95-2.13-2.13-2.13Z"/><path class="b" d="M438.68,135.41c1.18,0,2.13-.95,2.13-2.13s-.95-2.13-2.13-2.13-2.13,.95-2.13,2.13,.95,2.13,2.13,2.13Z"/><path class="b" d="M449.7,131.15c-1.18,0-2.13,.95-2.13,2.13s.95,2.13,2.13,2.13,2.13-.95,2.13-2.13-.95-2.13-2.13-2.13Z"/><path class="b" d="M442.06,133.28c0,1.18,.95,2.13,2.13,2.13s2.13-.95,2.13-2.13-.95-2.13-2.13-2.13-2.13,.95-2.13,2.13Z"/><path class="b" d="M457.33,133.28c0-1.18-.95-2.13-2.13-2.13s-2.13,.95-2.13,2.13,.95,2.13,2.13,2.13,2.13-.95,2.13-2.13Z"/><path class="b" d="M460.71,131.15c-1.18,0-2.13,.95-2.13,2.13s.95,2.13,2.13,2.13,2.13-.95,2.13-2.13-.95-2.13-2.13-2.13Z"/><circle class="b" cx="436.56" cy="138.86" r="2.13"/><path class="b" d="M449.71,138.86c0-1.18-.95-2.13-2.13-2.13s-2.13,.95-2.13,2.13,.95,2.13,2.13,2.13,2.13-.95,2.13-2.13Z"/><path class="b" d="M444.2,138.86c0-1.18-.95-2.13-2.13-2.13s-2.13,.95-2.13,2.13,.95,2.13,2.13,2.13,2.13-.95,2.13-2.13Z"/><path class="b" d="M455.22,138.86c0-1.18-.95-2.13-2.13-2.13s-2.13,.95-2.13,2.13,.95,2.13,2.13,2.13,2.13-.95,2.13-2.13Z"/><circle class="b" cx="458.59" cy="138.86" r="2.13"/><path class="b" d="M434.45,146.57c1.18,0,2.13-.95,2.13-2.13s-.95-2.13-2.13-2.13-2.13,.95-2.13,2.13,.95,2.13,2.13,2.13Z"/><path class="b" d="M445.46,146.57c1.18,0,2.13-.95,2.13-2.13s-.95-2.13-2.13-2.13-2.13,.95-2.13,2.13,.95,2.13,2.13,2.13Z"/><path class="b" d="M439.95,142.31c-1.18,0-2.13,.95-2.13,2.13s.95,2.13,2.13,2.13,2.13-.95,2.13-2.13-.95-2.13-2.13-2.13Z"/><path class="b" d="M450.97,146.57c1.18,0,2.13-.95,2.13-2.13s-.95-2.13-2.13-2.13-2.13,.95-2.13,2.13,.95,2.13,2.13,2.13Z"/><circle class="b" cx="456.48" cy="144.44" r="2.13"/><path class="b" d="M432.33,147.89c-1.18,0-2.13,.95-2.13,2.13s.95,2.13,2.13,2.13,2.13-.95,2.13-2.13-.95-2.13-2.13-2.13Z"/><path class="b" d="M443.35,147.89c-1.18,0-2.13,.95-2.13,2.13s.95,2.13,2.13,2.13,2.13-.95,2.13-2.13-.95-2.13-2.13-2.13Z"/><path class="b" d="M437.84,147.89c-1.18,0-2.13,.95-2.13,2.13s.95,2.13,2.13,2.13,2.13-.95,2.13-2.13-.95-2.13-2.13-2.13Z"/><path class="b" d="M448.85,147.89c-1.18,0-2.13,.95-2.13,2.13s.95,2.13,2.13,2.13,2.13-.95,2.13-2.13-.95-2.13-2.13-2.13Z"/><path class="b" d="M454.36,147.89c-1.18,0-2.13,.95-2.13,2.13s.95,2.13,2.13,2.13,2.13-.95,2.13-2.13-.95-2.13-2.13-2.13Z"/><path class="b" d="M633.13,118.14c1.18,0,2.13-.95,2.13-2.13s-.95-2.13-2.13-2.13-2.13,.95-2.13,2.13,.95,2.13,2.13,2.13Z"/><path class="b" d="M622.12,118.14c1.18,0,2.13-.95,2.13-2.13s-.95-2.13-2.13-2.13-2.13,.95-2.13,2.13,.95,2.13,2.13,2.13Z"/><path class="b" d="M627.63,118.14c1.18,0,2.13-.95,2.13-2.13s-.95-2.13-2.13-2.13-2.13,.95-2.13,2.13,.95,2.13,2.13,2.13Z"/><path class="b" d="M616.61,118.14c1.18,0,2.13-.95,2.13-2.13s-.95-2.13-2.13-2.13-2.13,.95-2.13,2.13,.95,2.13,2.13,2.13Z"/><path class="b" d="M611.1,118.14c1.18,0,2.13-.95,2.13-2.13s-.95-2.13-2.13-2.13-2.13,.95-2.13,2.13,.95,2.13,2.13,2.13Z"/><path class="b" d="M633.13,112.61c1.18,0,2.13-.95,2.13-2.13s-.95-2.13-2.13-2.13-2.13,.95-2.13,2.13,.95,2.13,2.13,2.13Z"/><path class="b" d="M622.12,112.61c1.18,0,2.13-.95,2.13-2.13s-.95-2.13-2.13-2.13-2.13,.95-2.13,2.13,.95,2.13,2.13,2.13Z"/><path class="b" d="M627.63,112.61c1.18,0,2.13-.95,2.13-2.13s-.95-2.13-2.13-2.13-2.13,.95-2.13,2.13,.95,2.13,2.13,2.13Z"/><path class="b" d="M616.61,112.61c1.18,0,2.13-.95,2.13-2.13s-.95-2.13-2.13-2.13-2.13,.95-2.13,2.13,.95,2.13,2.13,2.13Z"/><path class="b" d="M611.1,112.61c1.18,0,2.13-.95,2.13-2.13s-.95-2.13-2.13-2.13-2.13,.95-2.13,2.13,.95,2.13,2.13,2.13Z"/><path class="b" d="M633.13,107.08c1.18,0,2.13-.95,2.13-2.13s-.95-2.13-2.13-2.13-2.13,.95-2.13,2.13,.95,2.13,2.13,2.13Z"/><path class="b" d="M622.12,107.08c1.18,0,2.13-.95,2.13-2.13s-.95-2.13-2.13-2.13-2.13,.95-2.13,2.13,.95,2.13,2.13,2.13Z"/><path class="b" d="M627.63,107.08c1.18,0,2.13-.95,2.13-2.13s-.95-2.13-2.13-2.13-2.13,.95-2.13,2.13,.95,2.13,2.13,2.13Z"/><path class="b" d="M616.61,107.08c1.18,0,2.13-.95,2.13-2.13s-.95-2.13-2.13-2.13-2.13,.95-2.13,2.13,.95,2.13,2.13,2.13Z"/><path class="b" d="M611.1,107.08c1.18,0,2.13-.95,2.13-2.13s-.95-2.13-2.13-2.13-2.13,.95-2.13,2.13,.95,2.13,2.13,2.13Z"/><path class="b" d="M633.13,101.54c1.18,0,2.13-.95,2.13-2.13s-.95-2.13-2.13-2.13-2.13,.95-2.13,2.13,.95,2.13,2.13,2.13Z"/><path class="b" d="M622.12,101.54c1.18,0,2.13-.95,2.13-2.13s-.95-2.13-2.13-2.13-2.13,.95-2.13,2.13,.95,2.13,2.13,2.13Z"/><path class="b" d="M627.63,101.54c1.18,0,2.13-.95,2.13-2.13s-.95-2.13-2.13-2.13-2.13,.95-2.13,2.13,.95,2.13,2.13,2.13Z"/><path class="b" d="M616.61,101.54c1.18,0,2.13-.95,2.13-2.13s-.95-2.13-2.13-2.13-2.13,.95-2.13,2.13,.95,2.13,2.13,2.13Z"/><path class="b" d="M611.1,101.54c1.18,0,2.13-.95,2.13-2.13s-.95-2.13-2.13-2.13-2.13,.95-2.13,2.13,.95,2.13,2.13,2.13Z"/><path class="b" d="M633.13,96.01c1.18,0,2.13-.95,2.13-2.13s-.95-2.13-2.13-2.13-2.13,.95-2.13,2.13,.95,2.13,2.13,2.13Z"/><path class="b" d="M622.12,96.01c1.18,0,2.13-.95,2.13-2.13s-.95-2.13-2.13-2.13-2.13,.95-2.13,2.13,.95,2.13,2.13,2.13Z"/><path class="b" d="M627.63,96.01c1.18,0,2.13-.95,2.13-2.13s-.95-2.13-2.13-2.13-2.13,.95-2.13,2.13,.95,2.13,2.13,2.13Z"/><path class="b" d="M616.61,96.01c1.18,0,2.13-.95,2.13-2.13s-.95-2.13-2.13-2.13-2.13,.95-2.13,2.13,.95,2.13,2.13,2.13Z"/><path class="b" d="M611.1,96.01c1.18,0,2.13-.95,2.13-2.13s-.95-2.13-2.13-2.13-2.13,.95-2.13,2.13,.95,2.13,2.13,2.13Z"/><path class="b" d="M633.13,140.83c1.18,0,2.13-.95,2.13-2.13s-.95-2.13-2.13-2.13-2.13,.95-2.13,2.13,.95,2.13,2.13,2.13Z"/><path class="b" d="M622.12,140.83c1.18,0,2.13-.95,2.13-2.13s-.95-2.13-2.13-2.13-2.13,.95-2.13,2.13,.95,2.13,2.13,2.13Z"/><path class="b" d="M627.63,140.83c1.18,0,2.13-.95,2.13-2.13s-.95-2.13-2.13-2.13-2.13,.95-2.13,2.13,.95,2.13,2.13,2.13Z"/><path class="b" d="M616.61,140.83c1.18,0,2.13-.95,2.13-2.13s-.95-2.13-2.13-2.13-2.13,.95-2.13,2.13,.95,2.13,2.13,2.13Z"/><path class="b" d="M611.1,140.83c1.18,0,2.13-.95,2.13-2.13s-.95-2.13-2.13-2.13-2.13,.95-2.13,2.13,.95,2.13,2.13,2.13Z"/><path class="b" d="M633.13,135.3c1.18,0,2.13-.95,2.13-2.13s-.95-2.13-2.13-2.13-2.13,.95-2.13,2.13,.95,2.13,2.13,2.13Z"/><path class="b" d="M622.12,135.3c1.18,0,2.13-.95,2.13-2.13s-.95-2.13-2.13-2.13-2.13,.95-2.13,2.13,.95,2.13,2.13,2.13Z"/><path class="b" d="M627.63,135.3c1.18,0,2.13-.95,2.13-2.13s-.95-2.13-2.13-2.13-2.13,.95-2.13,2.13,.95,2.13,2.13,2.13Z"/><path class="b" d="M616.61,135.3c1.18,0,2.13-.95,2.13-2.13s-.95-2.13-2.13-2.13-2.13,.95-2.13,2.13,.95,2.13,2.13,2.13Z"/><path class="b" d="M611.1,135.3c1.18,0,2.13-.95,2.13-2.13s-.95-2.13-2.13-2.13-2.13,.95-2.13,2.13,.95,2.13,2.13,2.13Z"/><path class="b" d="M633.13,129.76c1.18,0,2.13-.95,2.13-2.13s-.95-2.13-2.13-2.13-2.13,.95-2.13,2.13,.95,2.13,2.13,2.13Z"/><path class="b" d="M622.12,129.76c1.18,0,2.13-.95,2.13-2.13s-.95-2.13-2.13-2.13-2.13,.95-2.13,2.13,.95,2.13,2.13,2.13Z"/><path class="b" d="M627.63,129.76c1.18,0,2.13-.95,2.13-2.13s-.95-2.13-2.13-2.13-2.13,.95-2.13,2.13,.95,2.13,2.13,2.13Z"/><path class="b" d="M616.61,129.76c1.18,0,2.13-.95,2.13-2.13s-.95-2.13-2.13-2.13-2.13,.95-2.13,2.13,.95,2.13,2.13,2.13Z"/><path class="b" d="M611.1,129.76c1.18,0,2.13-.95,2.13-2.13s-.95-2.13-2.13-2.13-2.13,.95-2.13,2.13,.95,2.13,2.13,2.13Z"/><path class="b" d="M633.13,124.23c1.18,0,2.13-.95,2.13-2.13s-.95-2.13-2.13-2.13-2.13,.95-2.13,2.13,.95,2.13,2.13,2.13Z"/><path class="b" d="M622.12,124.23c1.18,0,2.13-.95,2.13-2.13s-.95-2.13-2.13-2.13-2.13,.95-2.13,2.13,.95,2.13,2.13,2.13Z"/><path class="b" d="M627.63,124.23c1.18,0,2.13-.95,2.13-2.13s-.95-2.13-2.13-2.13-2.13,.95-2.13,2.13,.95,2.13,2.13,2.13Z"/><path class="b" d="M616.61,124.23c1.18,0,2.13-.95,2.13-2.13s-.95-2.13-2.13-2.13-2.13,.95-2.13,2.13,.95,2.13,2.13,2.13Z"/><path class="b" d="M611.1,124.23c1.18,0,2.13-.95,2.13-2.13s-.95-2.13-2.13-2.13-2.13,.95-2.13,2.13,.95,2.13,2.13,2.13Z"/><path class="b" d="M633.14,147.65c-1.18,0-2.13,.95-2.13,2.13s.95,2.13,2.13,2.13,2.13-.95,2.13-2.13-.95-2.13-2.13-2.13Z"/><path class="b" d="M622.12,147.65c-1.18,0-2.13,.95-2.13,2.13s.95,2.13,2.13,2.13,2.13-.95,2.13-2.13-.95-2.13-2.13-2.13Z"/><path class="b" d="M627.63,147.65c-1.18,0-2.13,.95-2.13,2.13s.95,2.13,2.13,2.13,2.13-.95,2.13-2.13-.95-2.13-2.13-2.13Z"/><circle class="b" cx="616.62" cy="149.78" r="2.13"/><path class="b" d="M611.11,147.65c-1.18,0-2.13,.95-2.13,2.13s.95,2.13,2.13,2.13,2.13-.95,2.13-2.13-.95-2.13-2.13-2.13Z"/><path class="b" d="M633.14,142.11c-1.18,0-2.13,.95-2.13,2.13s.95,2.13,2.13,2.13,2.13-.95,2.13-2.13-.95-2.13-2.13-2.13Z"/><path class="b" d="M622.12,142.11c-1.18,0-2.13,.95-2.13,2.13s.95,2.13,2.13,2.13,2.13-.95,2.13-2.13-.95-2.13-2.13-2.13Z"/><path class="b" d="M627.63,142.11c-1.18,0-2.13,.95-2.13,2.13s.95,2.13,2.13,2.13,2.13-.95,2.13-2.13-.95-2.13-2.13-2.13Z"/><path class="b" d="M616.62,142.11c-1.18,0-2.13,.95-2.13,2.13s.95,2.13,2.13,2.13,2.13-.95,2.13-2.13-.95-2.13-2.13-2.13Z"/><path class="b" d="M611.11,142.11c-1.18,0-2.13,.95-2.13,2.13s.95,2.13,2.13,2.13,2.13-.95,2.13-2.13-.95-2.13-2.13-2.13Z"/><path class="b" d="M705.35,3.46c-1.18,0-2.13,.95-2.13,2.13s.95,2.13,2.13,2.13,2.13-.95,2.13-2.13-.95-2.13-2.13-2.13Z"/><path class="b" d="M716.36,3.46c-1.18,0-2.13,.95-2.13,2.13s.95,2.13,2.13,2.13,2.13-.95,2.13-2.13-.95-2.13-2.13-2.13Z"/><path class="b" d="M710.86,3.46c-1.18,0-2.13,.95-2.13,2.13s.95,2.13,2.13,2.13,2.13-.95,2.13-2.13-.95-2.13-2.13-2.13Z"/><path class="b" d="M721.87,3.46c-1.18,0-2.13,.95-2.13,2.13s.95,2.13,2.13,2.13,2.13-.95,2.13-2.13-.95-2.13-2.13-2.13Z"/><path class="b" d="M727.38,3.46c-1.18,0-2.13,.95-2.13,2.13s.95,2.13,2.13,2.13,2.13-.95,2.13-2.13-.95-2.13-2.13-2.13Z"/><path class="b" d="M705.32,9c-1.18,0-2.13,.95-2.13,2.13s.95,2.13,2.13,2.13,2.13-.95,2.13-2.13-.95-2.13-2.13-2.13Z"/><path class="b" d="M716.33,9c-1.18,0-2.13,.95-2.13,2.13s.95,2.13,2.13,2.13,2.13-.95,2.13-2.13-.95-2.13-2.13-2.13Z"/><circle class="b" cx="710.82" cy="11.13" r="2.13"/><path class="b" d="M721.84,9c-1.18,0-2.13,.95-2.13,2.13s.95,2.13,2.13,2.13,2.13-.95,2.13-2.13-.95-2.13-2.13-2.13Z"/><path class="b" d="M727.35,9c-1.18,0-2.13,.95-2.13,2.13s.95,2.13,2.13,2.13,2.13-.95,2.13-2.13-.95-2.13-2.13-2.13Z"/><path class="b" d="M705.28,14.54c-1.18,0-2.13,.95-2.13,2.13s.95,2.13,2.13,2.13,2.13-.95,2.13-2.13-.95-2.13-2.13-2.13Z"/><path class="b" d="M716.3,14.54c-1.18,0-2.13,.95-2.13,2.13s.95,2.13,2.13,2.13,2.13-.95,2.13-2.13-.95-2.13-2.13-2.13Z"/><path class="b" d="M710.79,14.54c-1.18,0-2.13,.95-2.13,2.13s.95,2.13,2.13,2.13,2.13-.95,2.13-2.13-.95-2.13-2.13-2.13Z"/><path class="b" d="M721.81,14.54c-1.18,0-2.13,.95-2.13,2.13s.95,2.13,2.13,2.13,2.13-.95,2.13-2.13-.95-2.13-2.13-2.13Z"/><path class="b" d="M727.31,14.54c-1.18,0-2.13,.95-2.13,2.13s.95,2.13,2.13,2.13,2.13-.95,2.13-2.13-.95-2.13-2.13-2.13Z"/><path class="b" d="M705.25,20.08c-1.18,0-2.13,.95-2.13,2.13s.95,2.13,2.13,2.13,2.13-.95,2.13-2.13-.95-2.13-2.13-2.13Z"/><path class="b" d="M716.27,20.08c-1.18,0-2.13,.95-2.13,2.13s.95,2.13,2.13,2.13,2.13-.95,2.13-2.13-.95-2.13-2.13-2.13Z"/><circle class="b" cx="710.76" cy="22.21" r="2.13"/><path class="b" d="M721.77,20.08c-1.18,0-2.13,.95-2.13,2.13s.95,2.13,2.13,2.13,2.13-.95,2.13-2.13-.95-2.13-2.13-2.13Z"/><path class="b" d="M727.28,20.08c-1.18,0-2.13,.95-2.13,2.13s.95,2.13,2.13,2.13,2.13-.95,2.13-2.13-.95-2.13-2.13-2.13Z"/><path class="b" d="M705.22,25.63c-1.18,0-2.13,.95-2.13,2.13s.95,2.13,2.13,2.13,2.13-.95,2.13-2.13-.95-2.13-2.13-2.13Z"/><path class="b" d="M716.23,25.63c-1.18,0-2.13,.95-2.13,2.13s.95,2.13,2.13,2.13,2.13-.95,2.13-2.13-.95-2.13-2.13-2.13Z"/><path class="b" d="M710.73,25.63c-1.18,0-2.13,.95-2.13,2.13s.95,2.13,2.13,2.13,2.13-.95,2.13-2.13-.95-2.13-2.13-2.13Z"/><path class="b" d="M721.74,25.63c-1.18,0-2.13,.95-2.13,2.13s.95,2.13,2.13,2.13,2.13-.95,2.13-2.13-.95-2.13-2.13-2.13Z"/><circle class="b" cx="727.25" cy="27.75" r="2.13"/><circle class="b" cx="705.19" cy="33.3" r="2.13"/><path class="b" d="M716.2,31.17c-1.18,0-2.13,.95-2.13,2.13s.95,2.13,2.13,2.13,2.13-.95,2.13-2.13-.95-2.13-2.13-2.13Z"/><path class="b" d="M710.69,31.17c-1.18,0-2.13,.95-2.13,2.13s.95,2.13,2.13,2.13,2.13-.95,2.13-2.13-.95-2.13-2.13-2.13Z"/><path class="b" d="M721.71,31.17c-1.18,0-2.13,.95-2.13,2.13s.95,2.13,2.13,2.13,2.13-.95,2.13-2.13-.95-2.13-2.13-2.13Z"/><circle class="b" cx="727.22" cy="33.3" r="2.13"/><path class="b" d="M705.15,36.71c-1.18,0-2.13,.95-2.13,2.13s.95,2.13,2.13,2.13,2.13-.95,2.13-2.13-.95-2.13-2.13-2.13Z"/><path class="b" d="M716.17,36.71c-1.18,0-2.13,.95-2.13,2.13s.95,2.13,2.13,2.13,2.13-.95,2.13-2.13-.95-2.13-2.13-2.13Z"/><path class="b" d="M710.66,36.71c-1.18,0-2.13,.95-2.13,2.13s.95,2.13,2.13,2.13,2.13-.95,2.13-2.13-.95-2.13-2.13-2.13Z"/><path class="b" d="M721.68,36.71c-1.18,0-2.13,.95-2.13,2.13s.95,2.13,2.13,2.13,2.13-.95,2.13-2.13-.95-2.13-2.13-2.13Z"/><path class="b" d="M727.18,36.71c-1.18,0-2.13,.95-2.13,2.13s.95,2.13,2.13,2.13,2.13-.95,2.13-2.13-.95-2.13-2.13-2.13Z"/><path class="b" d="M705.12,42.25c-1.18,0-2.13,.95-2.13,2.13s.95,2.13,2.13,2.13,2.13-.95,2.13-2.13-.95-2.13-2.13-2.13Z"/><path class="b" d="M716.14,42.25c-1.18,0-2.13,.95-2.13,2.13s.95,2.13,2.13,2.13,2.13-.95,2.13-2.13-.95-2.13-2.13-2.13Z"/><path class="b" d="M710.63,42.25c-1.18,0-2.13,.95-2.13,2.13s.95,2.13,2.13,2.13,2.13-.95,2.13-2.13-.95-2.13-2.13-2.13Z"/><path class="b" d="M721.64,42.25c-1.18,0-2.13,.95-2.13,2.13s.95,2.13,2.13,2.13,2.13-.95,2.13-2.13-.95-2.13-2.13-2.13Z"/><path class="b" d="M727.15,42.25c-1.18,0-2.13,.95-2.13,2.13s.95,2.13,2.13,2.13,2.13-.95,2.13-2.13-.95-2.13-2.13-2.13Z"/><path class="b" d="M705.09,47.79c-1.18,0-2.13,.95-2.13,2.13s.95,2.13,2.13,2.13,2.13-.95,2.13-2.13-.95-2.13-2.13-2.13Z"/><path class="b" d="M716.1,47.79c-1.18,0-2.13,.95-2.13,2.13s.95,2.13,2.13,2.13,2.13-.95,2.13-2.13-.95-2.13-2.13-2.13Z"/><path class="b" d="M710.6,47.79c-1.18,0-2.13,.95-2.13,2.13s.95,2.13,2.13,2.13,2.13-.95,2.13-2.13-.95-2.13-2.13-2.13Z"/><circle class="b" cx="721.61" cy="49.92" r="2.13"/><path class="b" d="M727.12,47.79c-1.18,0-2.13,.95-2.13,2.13s.95,2.13,2.13,2.13,2.13-.95,2.13-2.13-.95-2.13-2.13-2.13Z"/><path class="b" d="M705.06,53.34c-1.18,0-2.13,.95-2.13,2.13s.95,2.13,2.13,2.13,2.13-.95,2.13-2.13-.95-2.13-2.13-2.13Z"/><path class="b" d="M716.07,53.34c-1.18,0-2.13,.95-2.13,2.13s.95,2.13,2.13,2.13,2.13-.95,2.13-2.13-.95-2.13-2.13-2.13Z"/><path class="b" d="M710.56,53.34c-1.18,0-2.13,.95-2.13,2.13s.95,2.13,2.13,2.13,2.13-.95,2.13-2.13-.95-2.13-2.13-2.13Z"/><path class="b" d="M721.58,53.34c-1.18,0-2.13,.95-2.13,2.13s.95,2.13,2.13,2.13,2.13-.95,2.13-2.13-.95-2.13-2.13-2.13Z"/><path class="b" d="M727.09,53.34c-1.18,0-2.13,.95-2.13,2.13s.95,2.13,2.13,2.13,2.13-.95,2.13-2.13-.95-2.13-2.13-2.13Z"/><path class="b" d="M705.02,58.88c-1.18,0-2.13,.95-2.13,2.13s.95,2.13,2.13,2.13,2.13-.95,2.13-2.13-.95-2.13-2.13-2.13Z"/><path class="b" d="M716.04,58.88c-1.18,0-2.13,.95-2.13,2.13s.95,2.13,2.13,2.13,2.13-.95,2.13-2.13-.95-2.13-2.13-2.13Z"/><path class="b" d="M710.53,58.88c-1.18,0-2.13,.95-2.13,2.13s.95,2.13,2.13,2.13,2.13-.95,2.13-2.13-.95-2.13-2.13-2.13Z"/><path class="b" d="M721.55,58.88c-1.18,0-2.13,.95-2.13,2.13s.95,2.13,2.13,2.13,2.13-.95,2.13-2.13-.95-2.13-2.13-2.13Z"/><path class="b" d="M727.05,58.88c-1.18,0-2.13,.95-2.13,2.13s.95,2.13,2.13,2.13,2.13-.95,2.13-2.13-.95-2.13-2.13-2.13Z"/><path class="b" d="M704.99,64.42c-1.18,0-2.13,.95-2.13,2.13s.95,2.13,2.13,2.13,2.13-.95,2.13-2.13-.95-2.13-2.13-2.13Z"/><path class="b" d="M716.01,64.42c-1.18,0-2.13,.95-2.13,2.13s.95,2.13,2.13,2.13,2.13-.95,2.13-2.13-.95-2.13-2.13-2.13Z"/><path class="b" d="M710.5,64.42c-1.18,0-2.13,.95-2.13,2.13s.95,2.13,2.13,2.13,2.13-.95,2.13-2.13-.95-2.13-2.13-2.13Z"/><path class="b" d="M721.51,64.42c-1.18,0-2.13,.95-2.13,2.13s.95,2.13,2.13,2.13,2.13-.95,2.13-2.13-.95-2.13-2.13-2.13Z"/><path class="b" d="M727.02,64.42c-1.18,0-2.13,.95-2.13,2.13s.95,2.13,2.13,2.13,2.13-.95,2.13-2.13-.95-2.13-2.13-2.13Z"/><path class="b" d="M704.96,69.96c-1.18,0-2.13,.95-2.13,2.13s.95,2.13,2.13,2.13,2.13-.95,2.13-2.13-.95-2.13-2.13-2.13Z"/><circle class="b" cx="715.97" cy="72.09" r="2.13"/><path class="b" d="M710.47,69.96c-1.18,0-2.13,.95-2.13,2.13s.95,2.13,2.13,2.13,2.13-.95,2.13-2.13-.95-2.13-2.13-2.13Z"/><path class="b" d="M721.48,69.96c-1.18,0-2.13,.95-2.13,2.13s.95,2.13,2.13,2.13,2.13-.95,2.13-2.13-.95-2.13-2.13-2.13Z"/><path class="b" d="M726.99,69.96c-1.18,0-2.13,.95-2.13,2.13s.95,2.13,2.13,2.13,2.13-.95,2.13-2.13-.95-2.13-2.13-2.13Z"/><path class="b" d="M704.93,75.5c-1.18,0-2.13,.95-2.13,2.13s.95,2.13,2.13,2.13,2.13-.95,2.13-2.13-.95-2.13-2.13-2.13Z"/><path class="b" d="M715.94,75.5c-1.18,0-2.13,.95-2.13,2.13s.95,2.13,2.13,2.13,2.13-.95,2.13-2.13-.95-2.13-2.13-2.13Z"/><path class="b" d="M710.43,75.5c-1.18,0-2.13,.95-2.13,2.13s.95,2.13,2.13,2.13,2.13-.95,2.13-2.13-.95-2.13-2.13-2.13Z"/><path class="b" d="M721.45,75.5c-1.18,0-2.13,.95-2.13,2.13s.95,2.13,2.13,2.13,2.13-.95,2.13-2.13-.95-2.13-2.13-2.13Z"/><path class="b" d="M726.96,75.5c-1.18,0-2.13,.95-2.13,2.13s.95,2.13,2.13,2.13,2.13-.95,2.13-2.13-.95-2.13-2.13-2.13Z"/><path class="b" d="M704.89,81.05c-1.18,0-2.13,.95-2.13,2.13s.95,2.13,2.13,2.13,2.13-.95,2.13-2.13-.95-2.13-2.13-2.13Z"/><circle class="b" cx="715.91" cy="83.18" r="2.13"/><path class="b" d="M710.4,81.05c-1.18,0-2.13,.95-2.13,2.13s.95,2.13,2.13,2.13,2.13-.95,2.13-2.13-.95-2.13-2.13-2.13Z"/><path class="b" d="M721.42,81.05c-1.18,0-2.13,.95-2.13,2.13s.95,2.13,2.13,2.13,2.13-.95,2.13-2.13-.95-2.13-2.13-2.13Z"/><path class="b" d="M726.92,81.05c-1.18,0-2.13,.95-2.13,2.13s.95,2.13,2.13,2.13,2.13-.95,2.13-2.13-.95-2.13-2.13-2.13Z"/><path class="b" d="M704.86,86.59c-1.18,0-2.13,.95-2.13,2.13s.95,2.13,2.13,2.13,2.13-.95,2.13-2.13-.95-2.13-2.13-2.13Z"/><path class="b" d="M715.88,86.59c-1.18,0-2.13,.95-2.13,2.13s.95,2.13,2.13,2.13,2.13-.95,2.13-2.13-.95-2.13-2.13-2.13Z"/><path class="b" d="M710.37,86.59c-1.18,0-2.13,.95-2.13,2.13s.95,2.13,2.13,2.13,2.13-.95,2.13-2.13-.95-2.13-2.13-2.13Z"/><path class="b" d="M721.38,86.59c-1.18,0-2.13,.95-2.13,2.13s.95,2.13,2.13,2.13,2.13-.95,2.13-2.13-.95-2.13-2.13-2.13Z"/><path class="b" d="M726.89,86.59c-1.18,0-2.13,.95-2.13,2.13s.95,2.13,2.13,2.13,2.13-.95,2.13-2.13-.95-2.13-2.13-2.13Z"/><path class="b" d="M704.83,92.13c-1.18,0-2.13,.95-2.13,2.13s.95,2.13,2.13,2.13,2.13-.95,2.13-2.13-.95-2.13-2.13-2.13Z"/><path class="b" d="M715.84,92.13c-1.18,0-2.13,.95-2.13,2.13s.95,2.13,2.13,2.13,2.13-.95,2.13-2.13-.95-2.13-2.13-2.13Z"/><path class="b" d="M710.34,92.13c-1.18,0-2.13,.95-2.13,2.13s.95,2.13,2.13,2.13,2.13-.95,2.13-2.13-.95-2.13-2.13-2.13Z"/><path class="b" d="M721.35,92.13c-1.18,0-2.13,.95-2.13,2.13s.95,2.13,2.13,2.13,2.13-.95,2.13-2.13-.95-2.13-2.13-2.13Z"/><path class="b" d="M726.86,92.13c-1.18,0-2.13,.95-2.13,2.13s.95,2.13,2.13,2.13,2.13-.95,2.13-2.13-.95-2.13-2.13-2.13Z"/><path class="b" d="M704.8,97.67c-1.18,0-2.13,.95-2.13,2.13s.95,2.13,2.13,2.13,2.13-.95,2.13-2.13-.95-2.13-2.13-2.13Z"/><path class="b" d="M715.81,97.67c-1.18,0-2.13,.95-2.13,2.13s.95,2.13,2.13,2.13,2.13-.95,2.13-2.13-.95-2.13-2.13-2.13Z"/><path class="b" d="M710.3,97.67c-1.18,0-2.13,.95-2.13,2.13s.95,2.13,2.13,2.13,2.13-.95,2.13-2.13-.95-2.13-2.13-2.13Z"/><path class="b" d="M721.32,97.67c-1.18,0-2.13,.95-2.13,2.13s.95,2.13,2.13,2.13,2.13-.95,2.13-2.13-.95-2.13-2.13-2.13Z"/><path class="b" d="M726.83,97.67c-1.18,0-2.13,.95-2.13,2.13s.95,2.13,2.13,2.13,2.13-.95,2.13-2.13-.95-2.13-2.13-2.13Z"/><path class="b" d="M704.76,103.22c-1.18,0-2.13,.95-2.13,2.13s.95,2.13,2.13,2.13,2.13-.95,2.13-2.13-.95-2.13-2.13-2.13Z"/><path class="b" d="M715.78,103.22c-1.18,0-2.13,.95-2.13,2.13s.95,2.13,2.13,2.13,2.13-.95,2.13-2.13-.95-2.13-2.13-2.13Z"/><circle class="b" cx="710.27" cy="105.34" r="2.13"/><path class="b" d="M721.29,103.22c-1.18,0-2.13,.95-2.13,2.13s.95,2.13,2.13,2.13,2.13-.95,2.13-2.13-.95-2.13-2.13-2.13Z"/><path class="b" d="M726.79,103.22c-1.18,0-2.13,.95-2.13,2.13s.95,2.13,2.13,2.13,2.13-.95,2.13-2.13-.95-2.13-2.13-2.13Z"/><path class="b" d="M704.73,108.76c-1.18,0-2.13,.95-2.13,2.13s.95,2.13,2.13,2.13,2.13-.95,2.13-2.13-.95-2.13-2.13-2.13Z"/><path class="b" d="M715.75,108.76c-1.18,0-2.13,.95-2.13,2.13s.95,2.13,2.13,2.13,2.13-.95,2.13-2.13-.95-2.13-2.13-2.13Z"/><path class="b" d="M710.24,108.76c-1.18,0-2.13,.95-2.13,2.13s.95,2.13,2.13,2.13,2.13-.95,2.13-2.13-.95-2.13-2.13-2.13Z"/><path class="b" d="M721.25,108.76c-1.18,0-2.13,.95-2.13,2.13s.95,2.13,2.13,2.13,2.13-.95,2.13-2.13-.95-2.13-2.13-2.13Z"/><path class="b" d="M726.76,108.76c-1.18,0-2.13,.95-2.13,2.13s.95,2.13,2.13,2.13,2.13-.95,2.13-2.13-.95-2.13-2.13-2.13Z"/><path class="b" d="M704.7,114.3c-1.18,0-2.13,.95-2.13,2.13s.95,2.13,2.13,2.13,2.13-.95,2.13-2.13-.95-2.13-2.13-2.13Z"/><path class="b" d="M715.71,114.3c-1.18,0-2.13,.95-2.13,2.13s.95,2.13,2.13,2.13,2.13-.95,2.13-2.13-.95-2.13-2.13-2.13Z"/><path class="b" d="M710.21,114.3c-1.18,0-2.13,.95-2.13,2.13s.95,2.13,2.13,2.13,2.13-.95,2.13-2.13-.95-2.13-2.13-2.13Z"/><path class="b" d="M721.22,114.3c-1.18,0-2.13,.95-2.13,2.13s.95,2.13,2.13,2.13,2.13-.95,2.13-2.13-.95-2.13-2.13-2.13Z"/><path class="b" d="M726.73,114.3c-1.18,0-2.13,.95-2.13,2.13s.95,2.13,2.13,2.13,2.13-.95,2.13-2.13-.95-2.13-2.13-2.13Z"/><path class="b" d="M704.67,119.84c-1.18,0-2.13,.95-2.13,2.13s.95,2.13,2.13,2.13,2.13-.95,2.13-2.13-.95-2.13-2.13-2.13Z"/><path class="b" d="M715.68,119.84c-1.18,0-2.13,.95-2.13,2.13s.95,2.13,2.13,2.13,2.13-.95,2.13-2.13-.95-2.13-2.13-2.13Z"/><path class="b" d="M710.17,119.84c-1.18,0-2.13,.95-2.13,2.13s.95,2.13,2.13,2.13,2.13-.95,2.13-2.13-.95-2.13-2.13-2.13Z"/><path class="b" d="M721.19,119.84c-1.18,0-2.13,.95-2.13,2.13s.95,2.13,2.13,2.13,2.13-.95,2.13-2.13-.95-2.13-2.13-2.13Z"/><circle class="b" cx="726.7" cy="121.97" r="2.13"/><circle class="b" cx="704.63" cy="127.51" r="2.13"/><path class="b" d="M715.65,125.38c-1.18,0-2.13,.95-2.13,2.13s.95,2.13,2.13,2.13,2.13-.95,2.13-2.13-.95-2.13-2.13-2.13Z"/><path class="b" d="M710.14,125.38c-1.18,0-2.13,.95-2.13,2.13s.95,2.13,2.13,2.13,2.13-.95,2.13-2.13-.95-2.13-2.13-2.13Z"/><path class="b" d="M721.16,125.38c-1.18,0-2.13,.95-2.13,2.13s.95,2.13,2.13,2.13,2.13-.95,2.13-2.13-.95-2.13-2.13-2.13Z"/><path class="b" d="M726.66,125.38c-1.18,0-2.13,.95-2.13,2.13s.95,2.13,2.13,2.13,2.13-.95,2.13-2.13-.95-2.13-2.13-2.13Z"/><path class="b" d="M704.6,130.93c-1.18,0-2.13,.95-2.13,2.13s.95,2.13,2.13,2.13,2.13-.95,2.13-2.13-.95-2.13-2.13-2.13Z"/><path class="b" d="M715.62,130.93c-1.18,0-2.13,.95-2.13,2.13s.95,2.13,2.13,2.13,2.13-.95,2.13-2.13-.95-2.13-2.13-2.13Z"/><path class="b" d="M710.11,130.93c-1.18,0-2.13,.95-2.13,2.13s.95,2.13,2.13,2.13,2.13-.95,2.13-2.13-.95-2.13-2.13-2.13Z"/><circle class="b" cx="721.12" cy="133.06" r="2.13"/><path class="b" d="M726.63,130.93c-1.18,0-2.13,.95-2.13,2.13s.95,2.13,2.13,2.13,2.13-.95,2.13-2.13-.95-2.13-2.13-2.13Z"/><path class="b" d="M704.57,136.47c-1.18,0-2.13,.95-2.13,2.13s.95,2.13,2.13,2.13,2.13-.95,2.13-2.13-.95-2.13-2.13-2.13Z"/><path class="b" d="M715.58,136.47c-1.18,0-2.13,.95-2.13,2.13s.95,2.13,2.13,2.13,2.13-.95,2.13-2.13-.95-2.13-2.13-2.13Z"/><path class="b" d="M710.08,136.47c-1.18,0-2.13,.95-2.13,2.13s.95,2.13,2.13,2.13,2.13-.95,2.13-2.13-.95-2.13-2.13-2.13Z"/><path class="b" d="M721.09,136.47c-1.18,0-2.13,.95-2.13,2.13s.95,2.13,2.13,2.13,2.13-.95,2.13-2.13-.95-2.13-2.13-2.13Z"/><path class="b" d="M726.6,136.47c-1.18,0-2.13,.95-2.13,2.13s.95,2.13,2.13,2.13,2.13-.95,2.13-2.13-.95-2.13-2.13-2.13Z"/><path class="b" d="M704.54,142.01c-1.18,0-2.13,.95-2.13,2.13s.95,2.13,2.13,2.13,2.13-.95,2.13-2.13-.95-2.13-2.13-2.13Z"/><path class="b" d="M715.55,142.01c-1.18,0-2.13,.95-2.13,2.13s.95,2.13,2.13,2.13,2.13-.95,2.13-2.13-.95-2.13-2.13-2.13Z"/><path class="b" d="M710.04,142.01c-1.18,0-2.13,.95-2.13,2.13s.95,2.13,2.13,2.13,2.13-.95,2.13-2.13-.95-2.13-2.13-2.13Z"/><circle class="b" cx="721.06" cy="144.14" r="2.13"/><path class="b" d="M726.57,142.01c-1.18,0-2.13,.95-2.13,2.13s.95,2.13,2.13,2.13,2.13-.95,2.13-2.13-.95-2.13-2.13-2.13Z"/><path class="b" d="M704.5,147.55c-1.18,0-2.13,.95-2.13,2.13s.95,2.13,2.13,2.13,2.13-.95,2.13-2.13-.95-2.13-2.13-2.13Z"/><path class="b" d="M715.52,147.55c-1.18,0-2.13,.95-2.13,2.13s.95,2.13,2.13,2.13,2.13-.95,2.13-2.13-.95-2.13-2.13-2.13Z"/><path class="b" d="M710.01,147.55c-1.18,0-2.13,.95-2.13,2.13s.95,2.13,2.13,2.13,2.13-.95,2.13-2.13-.95-2.13-2.13-2.13Z"/><path class="b" d="M721.03,147.55c-1.18,0-2.13,.95-2.13,2.13s.95,2.13,2.13,2.13,2.13-.95,2.13-2.13-.95-2.13-2.13-2.13Z"/><path class="b" d="M726.53,147.55c-1.18,0-2.13,.95-2.13,2.13s.95,2.13,2.13,2.13,2.13-.95,2.13-2.13-.95-2.13-2.13-2.13Z"/><path class="b" d="M881.05,128.32c-1.17-.11-2.21,.76-2.31,1.93s.76,2.21,1.93,2.31c1.17,.11,2.21-.76,2.31-1.93,.11-1.17-.76-2.21-1.93-2.31Z"/><path class="b" d="M880.06,139.29c-1.17-.11-2.21,.76-2.31,1.93-.11,1.17,.76,2.21,1.93,2.31,1.17,.11,2.21-.76,2.31-1.93s-.76-2.21-1.93-2.31Z"/><path class="b" d="M880.55,133.8c-1.17-.11-2.21,.76-2.31,1.93-.11,1.17,.76,2.21,1.93,2.31,1.17,.11,2.21-.76,2.31-1.93,.11-1.17-.76-2.21-1.93-2.31Z"/><path class="b" d="M879.56,144.77c-1.17-.11-2.21,.76-2.31,1.93-.11,1.17,.76,2.21,1.93,2.31,1.17,.11,2.21-.76,2.31-1.93,.11-1.17-.76-2.21-1.93-2.31Z"/><path class="b" d="M879.06,150.26c-1.17-.11-2.21,.76-2.31,1.93-.11,1.17,.76,2.21,1.93,2.31s2.21-.76,2.31-1.93c.11-1.17-.76-2.21-1.93-2.31Z"/><path class="b" d="M878.24,129.65c.23-1.15-.51-2.28-1.67-2.51-1.15-.23-2.28,.51-2.51,1.67-.23,1.15,.51,2.28,1.67,2.51,1.15,.23,2.28-.51,2.51-1.67Z"/><path class="b" d="M874.39,137.94c-1.15-.23-2.28,.51-2.51,1.67-.23,1.15,.51,2.28,1.67,2.51,1.15,.23,2.28-.51,2.51-1.67,.23-1.15-.51-2.28-1.67-2.51Z"/><path class="b" d="M875.48,132.54c-1.15-.23-2.28,.51-2.51,1.67-.23,1.15,.51,2.28,1.67,2.51,1.15,.23,2.28-.51,2.51-1.67,.23-1.15-.51-2.28-1.67-2.51Z"/><path class="b" d="M873.3,143.34c-1.15-.23-2.28,.51-2.51,1.67-.23,1.15,.51,2.28,1.67,2.51,1.15,.23,2.28-.51,2.51-1.67,.23-1.15-.51-2.28-1.67-2.51Z"/><path class="b" d="M872.21,148.74c-1.15-.23-2.28,.51-2.51,1.67-.23,1.15,.51,2.28,1.67,2.51,1.15,.23,2.28-.51,2.51-1.67,.23-1.15-.51-2.28-1.67-2.51Z"/><path class="b" d="M871.15,129.92c1.11,.38,2.32-.21,2.7-1.33,.38-1.11-.21-2.32-1.33-2.7s-2.32,.21-2.7,1.33c-.38,1.11,.21,2.32,1.33,2.7Z"/><path class="b" d="M867.59,140.34c1.11,.38,2.32-.21,2.7-1.33,.38-1.11-.21-2.32-1.33-2.7-1.11-.38-2.32,.21-2.7,1.33-.38,1.11,.21,2.32,1.33,2.7Z"/><path class="b" d="M868.04,132.43c-.38,1.11,.21,2.32,1.33,2.7,1.11,.38,2.32-.21,2.7-1.33,.38-1.11-.21-2.32-1.33-2.7-1.11-.38-2.32,.21-2.7,1.33Z"/><path class="b" d="M867.18,141.52c-1.11-.38-2.32,.21-2.7,1.33-.38,1.11,.21,2.32,1.33,2.7,1.11,.38,2.32-.21,2.7-1.33,.38-1.11-.21-2.32-1.33-2.7Z"/><path class="b" d="M865.4,146.74c-1.11-.38-2.32,.21-2.7,1.33-.38,1.11,.21,2.32,1.33,2.7,1.11,.38,2.32-.21,2.7-1.33,.38-1.11-.21-2.32-1.33-2.7Z"/><path class="b" d="M868.38,124.14c-1.07-.48-2.33,0-2.81,1.08-.48,1.07,0,2.33,1.08,2.81,1.07,.48,2.33,0,2.81-1.08,.48-1.07,0-2.33-1.08-2.81Z"/><path class="b" d="M862.15,138.09c1.07,.48,2.33,0,2.81-1.08s0-2.33-1.08-2.81c-1.07-.48-2.33,0-2.81,1.08-.48,1.07,0,2.33,1.08,2.81Z"/><path class="b" d="M867.21,131.98c.48-1.07,0-2.33-1.08-2.81-1.07-.48-2.33,0-2.81,1.08-.48,1.07,0,2.33,1.08,2.81,1.07,.48,2.33,0,2.81-1.08Z"/><path class="b" d="M861.64,139.23c-1.07-.48-2.33,0-2.81,1.08s0,2.33,1.08,2.81c1.07,.48,2.33,0,2.81-1.08,.48-1.07,0-2.33-1.08-2.81Z"/><path class="b" d="M859.4,144.26c-1.07-.48-2.33,0-2.81,1.08-.48,1.07,0,2.33,1.08,2.81,1.07,.48,2.33,0,2.81-1.08,.48-1.07,0-2.33-1.08-2.81Z"/><path class="b" d="M864.4,122.02c-1.03-.57-2.32-.21-2.9,.82-.57,1.03-.21,2.32,.82,2.9,1.03,.57,2.32,.21,2.9-.82,.57-1.03,.21-2.32-.82-2.9Z"/><path class="b" d="M856.94,135.35c1.03,.57,2.32,.21,2.9-.82,.57-1.03,.21-2.32-.82-2.9-1.03-.57-2.32-.21-2.9,.82-.57,1.03-.21,2.32,.82,2.9Z"/><path class="b" d="M862.53,129.72c.57-1.03,.21-2.32-.82-2.9-1.03-.57-2.32-.21-2.9,.82-.57,1.03-.21,2.32,.82,2.9,1.03,.57,2.32,.21,2.9-.82Z"/><path class="b" d="M857.15,139.34c.57-1.03,.21-2.32-.82-2.9-1.03-.57-2.32-.21-2.9,.82-.57,1.03-.21,2.32,.82,2.9,1.03,.57,2.32,.21,2.9-.82Z"/><path class="b" d="M853.64,141.24c-1.03-.57-2.32-.21-2.9,.82-.57,1.03-.21,2.32,.82,2.9,1.03,.57,2.32,.21,2.9-.82,.57-1.03,.21-2.32-.82-2.9Z"/><path class="b" d="M860.64,119.55c-.97-.66-2.29-.42-2.96,.55-.66,.97-.42,2.29,.55,2.96,.97,.66,2.29,.42,2.96-.55,.66-.97,.42-2.29-.55-2.96Z"/><path class="b" d="M852,132.15c.97,.66,2.29,.42,2.96-.55,.66-.97,.42-2.29-.55-2.96-.97-.66-2.29-.42-2.96,.55-.66,.97-.42,2.29,.55,2.96Z"/><path class="b" d="M858.07,127.05c.66-.97,.42-2.29-.55-2.96-.97-.66-2.29-.42-2.96,.55-.66,.97-.42,2.29,.55,2.96,.97,.66,2.29,.42,2.96-.55Z"/><path class="b" d="M851.85,136.14c.66-.97,.42-2.29-.55-2.96-.97-.66-2.29-.42-2.96,.55-.66,.97-.42,2.29,.55,2.96,.97,.66,2.29,.42,2.96-.55Z"/><path class="b" d="M848.18,137.72c-.97-.66-2.29-.42-2.96,.55-.66,.97-.42,2.29,.55,2.96,.97,.66,2.29,.42,2.96-.55,.66-.97,.42-2.29-.55-2.96Z"/><path class="b" d="M854.11,117.04c-.75,.91-.62,2.25,.28,3,.91,.75,2.25,.62,3-.28s.62-2.25-.28-3c-.91-.75-2.25-.62-3,.28Z"/><path class="b" d="M850.37,128.24c.75-.91,.62-2.25-.28-3-.91-.75-2.25-.62-3,.28-.75,.91-.62,2.25,.28,3,.91,.75,2.25,.62,3-.28Z"/><path class="b" d="M853.88,123.99c.75-.91,.62-2.25-.28-3-.91-.75-2.25-.62-3,.28s-.62,2.25,.28,3c.91,.75,2.25,.62,3-.28Z"/><path class="b" d="M846.85,132.48c.75-.91,.62-2.25-.28-3-.91-.75-2.25-.62-3,.28-.75,.91-.62,2.25,.28,3,.91,.75,2.25,.62,3-.28Z"/><path class="b" d="M840.06,134.01c-.75,.91-.62,2.25,.28,3,.91,.75,2.25,.62,3-.28,.75-.91,.62-2.25-.28-3-.91-.75-2.25-.62-3,.28Z"/><path class="b" d="M850.84,113.66c-.83,.83-.82,2.18,.01,3.01s2.18,.82,3.01-.01c.83-.83,.82-2.18-.01-3.01-.83-.83-2.18-.82-3.01,.01Z"/><circle class="b" cx="844.58" cy="122.97" r="2.13" transform="translate(130.32 590.17) rotate(-41.47)"/><path class="b" d="M846.97,120.57c.83,.83,2.18,.82,3.01-.01,.83-.83,.82-2.18-.01-3.01s-2.18-.82-3.01,.01-.82,2.18,.01,3.01Z"/><path class="b" d="M842.21,128.38c.83-.83,.82-2.18-.01-3.01s-2.18-.82-3.01,.01c-.83,.83-.82,2.18,.01,3.01,.83,.83,2.18,.82,3.01-.01Z"/><path class="b" d="M835.31,129.29c-.83,.83-.82,2.18,.01,3.01s2.18,.82,3.01-.01c.83-.83,.82-2.18-.01-3.01s-2.18-.82-3.01,.01Z"/><path class="b" d="M847.88,110c-.9,.76-1.02,2.1-.26,3,.76,.9,2.1,1.02,3,.26s1.02-2.1,.26-3c-.76-.9-2.1-1.02-3-.26Z"/><path class="b" d="M842.18,120.34c.9-.76,1.02-2.1,.26-3-.76-.9-2.1-1.02-3-.26s-1.02,2.1-.26,3c.76,.9,2.1,1.02,3,.26Z"/><circle class="b" cx="845.03" cy="115.17" r="2.13" transform="translate(656.76 946.97) rotate(-85.01)"/><path class="b" d="M835.23,120.62c-.9,.76-1.02,2.1-.26,3,.76,.9,2.1,1.02,3,.26,.9-.76,1.02-2.1,.26-3-.76-.9-2.1-1.02-3-.26Z"/><path class="b" d="M831.01,124.16c-.9,.76-1.02,2.1-.26,3,.76,.9,2.1,1.02,3,.26,.9-.76,1.02-2.1,.26-3-.76-.9-2.1-1.02-3-.26Z"/><path class="b" d="M845.27,106.08c-.97,.67-1.2,2-.53,2.96,.67,.97,2,1.2,2.96,.53s1.2-2,.53-2.96-2-1.2-2.96-.53Z"/><path class="b" d="M835.69,115.34c.67,.97,2,1.2,2.96,.53,.97-.67,1.2-2,.53-2.96-.67-.97-2-1.2-2.96-.53s-1.2,2-.53,2.96Z"/><path class="b" d="M840.75,109.23c-.97,.67-1.2,2-.53,2.96,.67,.97,2,1.2,2.96,.53,.97-.67,1.2-2,.53-2.96-.67-.97-2-1.2-2.96-.53Z"/><path class="b" d="M831.17,118.48c.67,.97,2,1.2,2.96,.53,.97-.67,1.2-2,.53-2.96-.67-.97-2-1.2-2.96-.53-.97,.67-1.2,2-.53,2.96Z"/><path class="b" d="M830.15,119.19c-.67-.97-2-1.2-2.96-.53-.97,.67-1.2,2-.53,2.96,.67,.97,2,1.2,2.96,.53,.97-.67,1.2-2,.53-2.96Z"/><path class="b" d="M843.02,101.95c-1.02,.58-1.38,1.88-.8,2.9,.58,1.02,1.88,1.38,2.9,.8,1.02-.58,1.38-1.88,.8-2.9-.58-1.02-1.88-1.38-2.9-.8Z"/><path class="b" d="M833.45,107.4c-1.02,.58-1.38,1.88-.8,2.9,.58,1.02,1.88,1.38,2.9,.8,1.02-.58,1.38-1.88,.8-2.9-.58-1.02-1.88-1.38-2.9-.8Z"/><path class="b" d="M838.23,104.67c-1.02,.58-1.38,1.88-.8,2.9,.58,1.02,1.88,1.38,2.9,.8,1.02-.58,1.38-1.88,.8-2.9-.58-1.02-1.88-1.38-2.9-.8Z"/><path class="b" d="M830.76,113.82c1.02-.58,1.38-1.88,.8-2.9-.58-1.02-1.88-1.38-2.9-.8-1.02,.58-1.38,1.88-.8,2.9s1.88,1.38,2.9,.8Z"/><path class="b" d="M826.78,113.64c-.58-1.02-1.88-1.38-2.9-.8s-1.38,1.88-.8,2.9c.58,1.02,1.88,1.38,2.9,.8s1.38-1.88,.8-2.9Z"/><g><path class="b" d="M26.4,73.76c-1.18,0-2.13,.95-2.13,2.13s.95,2.13,2.13,2.13,2.13-.95,2.13-2.13-.95-2.13-2.13-2.13Z"/><path class="b" d="M15.39,78.01c1.18,0,2.13-.95,2.13-2.13s-.95-2.13-2.13-2.13-2.13,.95-2.13,2.13,.95,2.13,2.13,2.13Z"/><path class="b" d="M20.9,73.76c-1.18,0-2.13,.95-2.13,2.13s.95,2.13,2.13,2.13,2.13-.95,2.13-2.13-.95-2.13-2.13-2.13Z"/><path class="b" d="M9.88,73.76c-1.18,0-2.13,.95-2.13,2.13s.95,2.13,2.13,2.13,2.13-.95,2.13-2.13-.95-2.13-2.13-2.13Z"/><path class="b" d="M4.37,78.01c1.18,0,2.13-.95,2.13-2.13s-.95-2.13-2.13-2.13-2.13,.95-2.13,2.13,.95,2.13,2.13,2.13Z"/><path class="b" d="M26.92,69.08c-1.17-.11-2.21,.76-2.31,1.93s.76,2.21,1.93,2.31c1.17,.11,2.21-.76,2.31-1.93s-.76-2.21-1.93-2.31Z"/><path class="b" d="M15.95,68.08c-1.17-.11-2.21,.76-2.31,1.93-.11,1.17,.76,2.21,1.93,2.31,1.17,.11,2.21-.76,2.31-1.93,.11-1.17-.76-2.21-1.93-2.31Z"/><path class="b" d="M21.43,68.58c-1.17-.11-2.21,.76-2.31,1.93-.11,1.17,.76,2.21,1.93,2.31,1.17,.11,2.21-.76,2.31-1.93,.11-1.17-.76-2.21-1.93-2.31Z"/><path class="b" d="M10.46,67.59c-1.17-.11-2.21,.76-2.31,1.93-.11,1.17,.76,2.21,1.93,2.31,1.17,.11,2.21-.76,2.31-1.93s-.76-2.21-1.93-2.31Z"/><path class="b" d="M4.59,71.33c1.17,.11,2.21-.76,2.31-1.93,.11-1.17-.76-2.21-1.93-2.31-1.17-.11-2.21,.76-2.31,1.93-.11,1.17,.76,2.21,1.93,2.31Z"/><path class="b" d="M29.57,66.95c.21-1.16-.55-2.27-1.71-2.48-1.16-.21-2.27,.55-2.48,1.71-.21,1.16,.55,2.27,1.71,2.48,1.16,.21,2.27-.55,2.48-1.71Z"/><path class="b" d="M18.73,64.96c.21-1.16-.55-2.27-1.71-2.48-1.16-.21-2.27,.55-2.48,1.71-.21,1.16,.55,2.27,1.71,2.48,1.16,.21,2.27-.55,2.48-1.71Z"/><path class="b" d="M24.15,65.95c.21-1.16-.55-2.27-1.71-2.48-1.16-.21-2.27,.55-2.48,1.71-.21,1.16,.55,2.27,1.71,2.48,1.16,.21,2.27-.55,2.48-1.71Z"/><path class="b" d="M13.31,63.97c.21-1.16-.55-2.27-1.71-2.48-1.16-.21-2.27,.55-2.48,1.71-.21,1.16,.55,2.27,1.71,2.48,1.16,.21,2.27-.55,2.48-1.71Z"/><path class="b" d="M5.42,64.69c1.16,.21,2.27-.55,2.48-1.71,.21-1.16-.55-2.27-1.71-2.48-1.16-.21-2.27,.55-2.48,1.71-.21,1.16,.55,2.27,1.71,2.48Z"/><path class="b" d="M30.68,62.58c.32-1.13-.35-2.31-1.48-2.62-1.13-.32-2.31,.35-2.62,1.48-.32,1.13,.35,2.31,1.48,2.62s2.31-.35,2.62-1.48Z"/><path class="b" d="M20.07,59.63c.32-1.13-.35-2.31-1.48-2.62-1.13-.32-2.31,.35-2.62,1.48-.32,1.13,.35,2.31,1.48,2.62,1.13,.32,2.31-.35,2.62-1.48Z"/><path class="b" d="M25.38,61.11c.32-1.13-.35-2.31-1.48-2.62-1.13-.32-2.31,.35-2.62,1.48-.32,1.13,.35,2.31,1.48,2.62,1.13,.32,2.31-.35,2.62-1.48Z"/><path class="b" d="M10.66,57.01c-.32,1.13,.35,2.31,1.48,2.62s2.31-.35,2.62-1.48c.32-1.13-.35-2.31-1.48-2.62-1.13-.32-2.31,.35-2.62,1.48Z"/><path class="b" d="M6.84,58.15c1.13,.32,2.31-.35,2.62-1.48,.32-1.13-.35-2.31-1.48-2.62-1.13-.32-2.31,.35-2.62,1.48-.32,1.13,.35,2.31,1.48,2.62Z"/><path class="b" d="M32.19,58.34c.42-1.1-.14-2.33-1.24-2.74-1.1-.42-2.33,.14-2.74,1.24-.42,1.1,.14,2.33,1.24,2.74,1.1,.42,2.33-.14,2.74-1.24Z"/><path class="b" d="M17.91,52.93c-.42,1.1,.14,2.33,1.24,2.74,1.1,.42,2.33-.14,2.74-1.24,.42-1.1-.14-2.33-1.24-2.74-1.1-.42-2.33,.14-2.74,1.24Z"/><path class="b" d="M24.3,57.63c1.1,.42,2.33-.14,2.74-1.24,.42-1.1-.14-2.33-1.24-2.74-1.1-.42-2.33,.14-2.74,1.24-.42,1.1,.14,2.33,1.24,2.74Z"/><path class="b" d="M12.76,50.98c-.42,1.1,.14,2.33,1.24,2.74,1.1,.42,2.33-.14,2.74-1.24,.42-1.1-.14-2.33-1.24-2.74-1.1-.42-2.33,.14-2.74,1.24Z"/><path class="b" d="M8.84,51.77c1.1,.42,2.33-.14,2.74-1.24,.42-1.1-.14-2.33-1.24-2.74-1.1-.42-2.33,.14-2.74,1.24-.42,1.1,.14,2.33,1.24,2.74Z"/><path class="b" d="M34.08,54.25c.51-1.06,.07-2.33-.98-2.85s-2.33-.07-2.85,.98c-.51,1.06-.07,2.33,.98,2.85,1.06,.51,2.33,.07,2.85-.98Z"/><path class="b" d="M24.17,49.43c.51-1.06,.07-2.33-.98-2.85-1.06-.51-2.33-.07-2.85,.98-.51,1.06-.07,2.33,.98,2.85,1.06,.51,2.33,.07,2.85-.98Z"/><path class="b" d="M29.12,51.84c.51-1.06,.07-2.33-.98-2.85-1.06-.51-2.33-.07-2.85,.98-.51,1.06-.07,2.33,.98,2.85s2.33,.07,2.85-.98Z"/><path class="b" d="M15.39,45.16c-.51,1.06-.07,2.33,.98,2.85,1.06,.51,2.33,.07,2.85-.98,.51-1.06,.07-2.33-.98-2.85-1.06-.51-2.33-.07-2.85,.98Z"/><path class="b" d="M11.42,45.6c1.06,.51,2.33,.07,2.85-.98,.51-1.06,.07-2.33-.98-2.85-1.06-.51-2.33-.07-2.85,.98-.51,1.06-.07,2.33,.98,2.85Z"/><path class="b" d="M36.32,50.35c.61-1.01,.28-2.31-.72-2.92s-2.31-.28-2.92,.72-.28,2.31,.72,2.92c1.01,.61,2.32,.28,2.92-.72Z"/><path class="b" d="M23.25,42.45c-.61,1.01-.28,2.31,.72,2.92s2.31,.28,2.92-.72,.28-2.31-.72-2.92-2.31-.28-2.92,.72Z"/><path class="b" d="M31.61,47.5c.61-1.01,.28-2.32-.72-2.92-1.01-.61-2.31-.28-2.92,.72-.61,1.01-.28,2.31,.72,2.92s2.31,.28,2.92-.72Z"/><path class="b" d="M18.53,39.61c-.61,1.01-.28,2.31,.72,2.92s2.32,.28,2.92-.72c.61-1.01,.28-2.31-.72-2.92s-2.31-.28-2.92,.72Z"/><path class="b" d="M14.54,39.68c1.01,.61,2.31,.28,2.92-.72s.28-2.31-.72-2.92c-1.01-.61-2.31-.28-2.92,.72-.61,1.01-.28,2.31,.72,2.92Z"/><path class="b" d="M38.91,46.66c.7-.95,.49-2.28-.45-2.98-.95-.7-2.28-.49-2.98,.45-.7,.95-.49,2.28,.45,2.98,.95,.7,2.28,.49,2.98-.46Z"/><path class="b" d="M26.61,37.62c-.7,.95-.49,2.28,.45,2.98,.95,.7,2.28,.49,2.98-.45,.7-.95,.49-2.28-.45-2.98s-2.28-.49-2.98,.45Z"/><path class="b" d="M34.47,43.4c.7-.95,.49-2.28-.45-2.98-.95-.7-2.28-.49-2.98,.46-.7,.95-.49,2.28,.45,2.98,.95,.7,2.28,.49,2.98-.45Z"/><path class="b" d="M25.14,33.9c-.95-.7-2.28-.49-2.98,.45-.7,.95-.49,2.28,.45,2.98s2.28,.49,2.98-.45c.7-.95,.49-2.28-.45-2.98Z"/><path class="b" d="M18.18,34.07c.95,.7,2.28,.49,2.98-.45,.7-.95,.49-2.28-.45-2.98-.95-.7-2.28-.49-2.98,.45-.7,.95-.49,2.28,.45,2.98Z"/><path class="b" d="M41.83,43.23c.78-.88,.7-2.23-.18-3-.88-.78-2.23-.7-3.01,.18-.78,.88-.7,2.23,.18,3,.88,.78,2.23,.7,3.01-.18Z"/><path class="b" d="M30.39,33.11c-.78,.88-.7,2.23,.18,3.01,.88,.78,2.23,.7,3.01-.18s.7-2.23-.18-3c-.88-.78-2.23-.7-3,.18Z"/><path class="b" d="M37.7,39.58c.78-.88,.7-2.23-.18-3-.88-.78-2.23-.7-3.01,.18-.78,.88-.7,2.23,.18,3,.88,.78,2.23,.7,3.01-.18Z"/><path class="b" d="M26.45,32.46c.88,.78,2.23,.7,3.01-.18s.7-2.23-.18-3c-.88-.78-2.23-.7-3,.18-.78,.88-.7,2.23,.18,3Z"/><path class="b" d="M25.33,28.63c.78-.88,.7-2.23-.18-3-.88-.78-2.23-.7-3,.18s-.7,2.23,.18,3c.88,.78,2.23,.7,3-.18Z"/><path class="b" d="M45.04,40.07c.86-.81,.89-2.15,.09-3.01-.81-.86-2.15-.89-3.01-.09s-.89,2.15-.09,3.01c.81,.86,2.15,.89,3.01,.09Z"/><path class="b" d="M34.56,28.96c-.86,.81-.89,2.15-.09,3.01,.81,.86,2.15,.89,3.01,.09,.86-.81,.89-2.15,.09-3.01-.81-.86-2.15-.89-3.01-.09Z"/><path class="b" d="M38.25,35.97c.81,.86,2.15,.89,3.01,.09,.86-.81,.89-2.15,.09-3.01-.81-.86-2.15-.89-3.01-.09s-.89,2.15-.09,3.01Z"/><path class="b" d="M30.69,27.96c.81,.86,2.15,.89,3.01,.09,.86-.81,.89-2.15,.09-3.01-.81-.86-2.15-.89-3.01-.09-.86,.81-.89,2.15-.09,3.01Z"/><path class="b" d="M29.92,24.04c.86-.81,.89-2.15,.09-3.01-.81-.86-2.15-.89-3.01-.09s-.89,2.15-.09,3.01c.81,.86,2.15,.89,3.01,.09Z"/><path class="b" d="M48.52,37.21c.92-.73,1.09-2.06,.36-2.99s-2.06-1.09-2.99-.36-1.09,2.06-.36,2.99c.73,.92,2.06,1.09,2.99,.36Z"/><path class="b" d="M39.09,25.2c-.92,.73-1.09,2.06-.36,2.99,.73,.92,2.06,1.09,2.99,.36s1.09-2.06,.36-2.99c-.73-.92-2.06-1.09-2.99-.36Z"/><path class="b" d="M42.13,32.52c.73,.92,2.06,1.09,2.99,.36s1.09-2.06,.36-2.99c-.73-.92-2.06-1.09-2.99-.36-.93,.73-1.09,2.06-.36,2.99Z"/><path class="b" d="M35.33,23.86c.73,.92,2.06,1.09,2.99,.36s1.09-2.06,.36-2.99c-.73-.92-2.06-1.09-2.99-.36-.92,.73-1.09,2.06-.36,2.99Z"/><path class="b" d="M34.92,19.89c.92-.73,1.09-2.06,.36-2.99-.73-.92-2.06-1.09-2.99-.36s-1.09,2.06-.36,2.99c.73,.92,2.06,1.09,2.99,.36Z"/><path class="b" d="M52.25,34.69c.99-.64,1.27-1.96,.63-2.94-.64-.99-1.96-1.27-2.94-.63-.99,.64-1.27,1.96-.63,2.94,.64,.99,1.96,1.27,2.94,.63Z"/><path class="b" d="M43.94,21.87c-.99,.64-1.27,1.96-.63,2.94,.64,.99,1.96,1.27,2.94,.63,.99-.64,1.27-1.96,.63-2.94-.64-.99-1.96-1.27-2.94-.63Z"/><path class="b" d="M46.31,29.44c.64,.99,1.96,1.27,2.94,.63,.99-.64,1.27-1.96,.63-2.94-.64-.99-1.96-1.27-2.94-.63-.99,.64-1.27,1.96-.63,2.94Z"/><path class="b" d="M40.32,20.19c.64,.99,1.96,1.27,2.94,.63,.99-.64,1.27-1.96,.63-2.94-.64-.99-1.96-1.27-2.94-.63-.99,.64-1.27,1.96-.63,2.94Z"/><path class="b" d="M40.27,16.2c.99-.64,1.27-1.96,.63-2.94-.64-.99-1.96-1.27-2.94-.63-.99,.64-1.27,1.96-.63,2.94s1.96,1.27,2.94,.63Z"/><path class="b" d="M56.19,32.51c1.04-.55,1.44-1.83,.89-2.88-.55-1.04-1.83-1.44-2.88-.89-1.04,.55-1.44,1.83-.89,2.88,.55,1.04,1.84,1.44,2.88,.89Z"/><path class="b" d="M49.08,18.99c-1.04,.55-1.44,1.84-.89,2.88,.55,1.04,1.83,1.44,2.88,.89,1.04-.55,1.44-1.83,.89-2.88-.55-1.04-1.84-1.44-2.88-.89Z"/><path class="b" d="M51.64,23.87c-1.04,.55-1.44,1.83-.89,2.88,.55,1.04,1.84,1.44,2.88,.89,1.04-.55,1.44-1.83,.89-2.88-.55-1.04-1.83-1.44-2.88-.89Z"/><path class="b" d="M45.62,16.99c.55,1.04,1.84,1.44,2.88,.89s1.44-1.83,.89-2.88c-.55-1.04-1.83-1.44-2.88-.89-1.04,.55-1.44,1.83-.89,2.88Z"/><path class="b" d="M45.93,13.01c1.04-.55,1.44-1.84,.89-2.88-.55-1.04-1.83-1.44-2.88-.89-1.04,.55-1.44,1.83-.89,2.88s1.84,1.44,2.88,.89Z"/><path class="b" d="M60.31,30.69c1.09-.45,1.6-1.7,1.15-2.78-.45-1.09-1.7-1.6-2.78-1.15-1.09,.45-1.6,1.7-1.15,2.78,.45,1.09,1.7,1.6,2.78,1.15Z"/><path class="b" d="M56.09,20.52c1.09-.45,1.6-1.7,1.15-2.78-.45-1.09-1.7-1.6-2.78-1.15s-1.6,1.7-1.15,2.78c.45,1.09,1.7,1.6,2.78,1.15Z"/><path class="b" d="M58.2,25.61c1.09-.45,1.6-1.7,1.15-2.78-.45-1.09-1.7-1.6-2.78-1.15s-1.6,1.7-1.15,2.78c.45,1.09,1.7,1.6,2.78,1.15Z"/><path class="b" d="M52.34,11.5c-1.09,.45-1.6,1.7-1.15,2.78,.45,1.09,1.7,1.6,2.78,1.15s1.6-1.7,1.15-2.78c-.45-1.09-1.7-1.6-2.78-1.15Z"/><path class="b" d="M51.86,10.35c1.09-.45,1.6-1.7,1.15-2.78-.45-1.09-1.7-1.6-2.78-1.15s-1.6,1.7-1.15,2.78c.45,1.09,1.7,1.6,2.78,1.15Z"/><path class="b" d="M64.58,29.26c1.12-.35,1.75-1.55,1.4-2.67-.35-1.12-1.55-1.75-2.67-1.4-1.12,.35-1.75,1.55-1.4,2.67,.35,1.12,1.55,1.75,2.67,1.4Z"/><path class="b" d="M61.29,18.75c1.12-.35,1.75-1.55,1.4-2.67s-1.55-1.75-2.67-1.4c-1.12,.35-1.75,1.55-1.4,2.67,.35,1.12,1.55,1.75,2.67,1.4Z"/><path class="b" d="M62.94,24c1.12-.35,1.75-1.55,1.4-2.67-.35-1.12-1.55-1.75-2.67-1.4-1.12,.35-1.75,1.55-1.4,2.67,.35,1.12,1.55,1.75,2.67,1.4Z"/><path class="b" d="M58.37,9.43c-1.12,.35-1.75,1.55-1.4,2.67s1.55,1.75,2.67,1.4c1.12-.35,1.75-1.55,1.4-2.67s-1.55-1.75-2.67-1.4Z"/><path class="b" d="M58,8.23c1.12-.35,1.75-1.55,1.4-2.67-.35-1.12-1.55-1.75-2.67-1.4-1.12,.35-1.75,1.55-1.4,2.67s1.55,1.75,2.67,1.4Z"/><path class="b" d="M68.96,28.21c1.15-.25,1.88-1.38,1.63-2.53s-1.38-1.88-2.53-1.63c-1.15,.25-1.88,1.38-1.63,2.53,.25,1.15,1.38,1.88,2.53,1.63Z"/><path class="b" d="M65.74,13.29c-1.15,.25-1.88,1.38-1.63,2.53,.25,1.15,1.38,1.88,2.53,1.63,1.15-.25,1.88-1.38,1.63-2.53s-1.38-1.88-2.53-1.63Z"/><path class="b" d="M67.8,22.83c1.15-.25,1.88-1.38,1.63-2.53-.25-1.15-1.38-1.88-2.53-1.63-1.15,.25-1.88,1.38-1.63,2.53,.25,1.15,1.38,1.88,2.53,1.63Z"/><path class="b" d="M64.57,7.9c-1.15,.25-1.88,1.38-1.63,2.53,.25,1.15,1.38,1.88,2.53,1.63,1.15-.25,1.88-1.38,1.63-2.53-.25-1.15-1.38-1.88-2.53-1.63Z"/><path class="b" d="M64.31,6.68c1.15-.25,1.88-1.38,1.63-2.53-.25-1.15-1.38-1.88-2.53-1.63-1.15,.25-1.88,1.38-1.63,2.53,.25,1.15,1.38,1.88,2.53,1.63Z"/><path class="b" d="M72.9,23.35c-1.17,.14-2,1.21-1.85,2.37,.14,1.17,1.21,2,2.37,1.85,1.17-.14,2-1.21,1.85-2.37s-1.21-2-2.37-1.85Z"/><path class="b" d="M71.56,12.41c-1.17,.14-2,1.21-1.85,2.37,.14,1.17,1.21,2,2.37,1.85,1.17-.14,2-1.21,1.85-2.37-.14-1.17-1.21-2-2.37-1.85Z"/><path class="b" d="M72.23,17.88c-1.17,.14-2,1.21-1.85,2.37,.14,1.17,1.21,2,2.37,1.85,1.17-.14,2-1.21,1.85-2.37-.14-1.17-1.21-2-2.37-1.85Z"/><path class="b" d="M70.88,6.95c-1.17,.14-2,1.21-1.85,2.37,.14,1.17,1.21,2,2.37,1.85,1.17-.14,2-1.21,1.85-2.37-.14-1.17-1.21-2-2.37-1.85Z"/><path class="b" d="M70.73,5.71c1.17-.14,2-1.21,1.85-2.37-.14-1.17-1.21-2-2.37-1.85-1.17,.14-2,1.21-1.85,2.37,.14,1.17,1.21,2,2.37,1.85Z"/><path class="b" d="M77.78,23.08c-1.18,.04-2.1,1.02-2.06,2.2,.04,1.18,1.02,2.1,2.2,2.06s2.1-1.02,2.06-2.2c-.04-1.18-1.02-2.1-2.2-2.06Z"/><path class="b" d="M77.43,12.07c-1.18,.04-2.1,1.02-2.06,2.2,.04,1.18,1.02,2.1,2.2,2.06,1.18-.04,2.1-1.02,2.06-2.2-.04-1.18-1.02-2.1-2.2-2.06Z"/><path class="b" d="M77.61,17.57c-1.18,.04-2.1,1.02-2.06,2.2,.04,1.18,1.02,2.1,2.2,2.06s2.1-1.02,2.06-2.2c-.04-1.18-1.02-2.1-2.2-2.06Z"/><path class="b" d="M77.26,6.56c-1.18,.04-2.1,1.02-2.06,2.2,.04,1.18,1.02,2.1,2.2,2.06,1.18-.04,2.1-1.02,2.06-2.2s-1.02-2.1-2.2-2.06Z"/><path class="b" d="M77.22,5.31c1.18-.04,2.1-1.02,2.06-2.2-.04-1.18-1.02-2.1-2.2-2.06-1.18,.04-2.1,1.02-2.06,2.2,.04,1.18,1.02,2.1,2.2,2.06Z"/><path class="b" d="M82.42,27.5c1.17,.07,2.18-.83,2.25-2,.07-1.17-.83-2.18-2-2.25-1.17-.07-2.18,.83-2.25,2-.07,1.17,.83,2.18,2,2.25Z"/><path class="b" d="M83.07,16.51c1.17,.07,2.18-.83,2.25-2,.07-1.17-.83-2.18-2-2.25-1.17-.07-2.18,.83-2.25,2-.07,1.17,.83,2.18,2,2.25Z"/><path class="b" d="M82.74,22.01c1.17,.07,2.18-.83,2.25-2s-.83-2.18-2-2.25c-1.17-.07-2.18,.83-2.25,2-.07,1.17,.83,2.18,2,2.25Z"/><path class="b" d="M83.39,11.01c1.17,.07,2.18-.83,2.25-2,.07-1.17-.83-2.18-2-2.25-1.17-.07-2.18,.83-2.25,2-.07,1.17,.83,2.18,2,2.25Z"/><path class="b" d="M83.71,5.51c1.17,.07,2.18-.83,2.25-2s-.83-2.18-2-2.25c-1.17-.07-2.18,.83-2.25,2-.07,1.17,.83,2.18,2,2.25Z"/><path class="b" d="M85.1,25.66c-.17,1.16,.63,2.25,1.79,2.42,1.16,.17,2.25-.63,2.42-1.79,.17-1.16-.63-2.25-1.79-2.42-1.16-.17-2.25,.63-2.42,1.79Z"/><path class="b" d="M88.52,17.19c1.16,.17,2.25-.63,2.42-1.79,.17-1.16-.63-2.25-1.79-2.42s-2.25,.63-2.42,1.79c-.17,1.16,.63,2.25,1.79,2.42Z"/><path class="b" d="M87.71,22.63c1.16,.17,2.25-.63,2.42-1.79,.17-1.16-.63-2.25-1.79-2.42-1.16-.17-2.25,.63-2.42,1.79-.17,1.16,.63,2.25,1.79,2.42Z"/><path class="b" d="M89.34,11.74c1.16,.17,2.25-.63,2.42-1.79,.17-1.16-.63-2.25-1.79-2.42s-2.25,.63-2.42,1.79c-.17,1.16,.63,2.25,1.79,2.42Z"/><path class="b" d="M90.16,6.3c1.16,.17,2.25-.63,2.42-1.79,.17-1.16-.63-2.25-1.79-2.42-1.16-.17-2.25,.63-2.42,1.79-.17,1.16,.63,2.25,1.79,2.42Z"/><path class="b" d="M89.72,26.49c-.28,1.14,.42,2.29,1.56,2.57,1.14,.28,2.29-.42,2.57-1.56s-.42-2.29-1.56-2.57c-1.14-.28-2.29,.42-2.57,1.56Z"/><path class="b" d="M93.9,18.36c1.14,.28,2.29-.42,2.57-1.56,.28-1.14-.42-2.29-1.56-2.57-1.14-.28-2.29,.42-2.57,1.56-.28,1.14,.42,2.29,1.56,2.57Z"/><path class="b" d="M95.16,22.15c.28-1.14-.42-2.29-1.56-2.57-1.14-.28-2.29,.42-2.57,1.56s.42,2.29,1.56,2.57c1.14,.28,2.29-.42,2.57-1.56Z"/><path class="b" d="M95.21,13.01c1.14,.28,2.29-.42,2.57-1.56,.28-1.14-.42-2.29-1.56-2.57-1.14-.28-2.29,.42-2.57,1.56-.28,1.14,.42,2.29,1.56,2.57Z"/><path class="b" d="M96.51,7.66c1.14,.28,2.29-.42,2.57-1.56,.28-1.14-.42-2.29-1.56-2.57-1.14-.28-2.29,.42-2.57,1.56s.42,2.29,1.56,2.57Z"/><path class="b" d="M95.57,30.43c1.11,.38,2.32-.21,2.7-1.32,.38-1.11-.21-2.32-1.32-2.7s-2.32,.21-2.7,1.32c-.38,1.11,.21,2.32,1.32,2.7Z"/><path class="b" d="M100.53,15.98c-1.11-.38-2.32,.21-2.7,1.32-.38,1.11,.21,2.32,1.32,2.7,1.11,.38,2.32-.21,2.7-1.32,.38-1.11-.21-2.32-1.32-2.7Z"/><path class="b" d="M100.06,23.9c.38-1.11-.21-2.32-1.32-2.7-1.11-.38-2.32,.21-2.7,1.32-.38,1.11,.21,2.32,1.32,2.7,1.11,.38,2.32-.21,2.7-1.32Z"/><path class="b" d="M100.93,14.8c1.11,.38,2.32-.21,2.7-1.32,.38-1.11-.21-2.32-1.32-2.7-1.11-.38-2.32,.21-2.7,1.32-.38,1.11,.21,2.32,1.32,2.7Z"/><path class="b" d="M102.72,9.59c1.11,.38,2.32-.21,2.7-1.32,.38-1.11-.21-2.32-1.32-2.7s-2.32,.21-2.7,1.32c-.38,1.11,.21,2.32,1.32,2.7Z"/><path class="b" d="M99.72,32.18c1.07,.48,2.33,0,2.81-1.07,.48-1.07,0-2.33-1.07-2.81-1.07-.48-2.33,0-2.81,1.07-.48,1.07,0,2.33,1.07,2.81Z"/><path class="b" d="M105.96,18.24c-1.07-.48-2.33,0-2.81,1.07-.48,1.07,0,2.33,1.07,2.81,1.07,.48,2.33,0,2.81-1.07,.48-1.07,0-2.33-1.07-2.81Z"/><path class="b" d="M100.9,24.34c-.48,1.07,0,2.33,1.07,2.81,1.07,.48,2.33,0,2.81-1.07,.48-1.07,0-2.33-1.07-2.81-1.07-.48-2.33,0-2.81,1.07Z"/><path class="b" d="M106.47,17.1c1.07,.48,2.33,0,2.81-1.07,.48-1.07,0-2.33-1.07-2.81-1.07-.48-2.33,0-2.81,1.07s0,2.33,1.07,2.81Z"/><path class="b" d="M108.72,12.08c1.07,.48,2.33,0,2.81-1.07s0-2.33-1.07-2.81-2.33,0-2.81,1.07,0,2.33,1.07,2.81Z"/><path class="b" d="M103.69,34.31c1.03,.58,2.32,.21,2.9-.81,.58-1.03,.21-2.32-.81-2.9-1.03-.58-2.32-.21-2.9,.81-.58,1.03-.21,2.32,.81,2.9Z"/><path class="b" d="M111.17,20.99c-1.03-.58-2.32-.21-2.9,.81-.58,1.03-.21,2.32,.81,2.9,1.03,.58,2.32,.21,2.9-.81,.58-1.03,.21-2.32-.81-2.9Z"/><path class="b" d="M105.58,26.6c-.58,1.03-.21,2.32,.81,2.9,1.03,.58,2.32,.21,2.9-.81,.58-1.03,.21-2.32-.82-2.9-1.03-.58-2.32-.21-2.9,.81Z"/><path class="b" d="M110.97,17c-.58,1.03-.21,2.32,.81,2.9,1.03,.58,2.32,.21,2.9-.81,.58-1.03,.21-2.32-.81-2.9-1.03-.58-2.32-.21-2.9,.81Z"/><path class="b" d="M114.47,15.09c1.03,.58,2.32,.21,2.9-.81,.58-1.03,.21-2.32-.82-2.9-1.03-.58-2.32-.21-2.9,.81-.58,1.03-.21,2.32,.81,2.9Z"/><path class="b" d="M107.46,36.78c.97,.67,2.29,.42,2.96-.55,.67-.97,.42-2.29-.55-2.96-.97-.67-2.29-.42-2.96,.55s-.42,2.29,.55,2.96Z"/><path class="b" d="M116.11,24.19c-.97-.67-2.29-.42-2.96,.55s-.42,2.29,.55,2.96c.97,.67,2.29,.42,2.96-.55s.42-2.29-.55-2.96Z"/><path class="b" d="M110.03,29.28c-.67,.97-.42,2.29,.55,2.96,.97,.67,2.29,.42,2.96-.55,.67-.97,.42-2.29-.55-2.96-.97-.67-2.29-.42-2.96,.55Z"/><path class="b" d="M116.26,20.2c-.67,.97-.42,2.29,.55,2.96,.97,.67,2.29,.42,2.96-.55,.67-.97,.42-2.29-.55-2.96-.97-.67-2.29-.42-2.96,.55Z"/><path class="b" d="M119.93,18.62c.97,.67,2.29,.42,2.96-.55,.67-.97,.42-2.29-.55-2.96-.97-.67-2.29-.42-2.96,.55s-.42,2.29,.55,2.96Z"/><path class="b" d="M113.98,39.3c.75-.9,.63-2.25-.28-3-.9-.75-2.25-.63-3,.28s-.63,2.25,.28,3c.9,.75,2.25,.63,3-.28Z"/><path class="b" d="M117.74,28.1c-.75,.91-.63,2.25,.28,3,.91,.75,2.25,.63,3-.28,.75-.9,.63-2.25-.28-3-.9-.75-2.25-.63-3,.28Z"/><path class="b" d="M114.22,32.34c-.75,.91-.63,2.25,.28,3,.9,.75,2.25,.63,3-.28,.75-.9,.63-2.25-.28-3-.9-.75-2.25-.63-3,.28Z"/><path class="b" d="M121.25,23.86c-.75,.9-.63,2.25,.28,3,.9,.75,2.25,.63,3-.28,.75-.9,.63-2.25-.28-3s-2.25-.63-3,.28Z"/><path class="b" d="M128.05,22.34c.75-.91,.63-2.25-.28-3-.91-.75-2.25-.63-3,.28-.75,.9-.63,2.25,.28,3,.9,.75,2.25,.63,3-.28Z"/><path class="b" d="M117.25,42.68c.83-.83,.83-2.18,0-3.01-.83-.83-2.18-.83-3.01,0-.83,.83-.83,2.18,0,3.01,.83,.83,2.18,.83,3.01,0Z"/><path class="b" d="M122.01,31.87c-.83,.83-.83,2.18,0,3.01,.83,.83,2.18,.83,3.01,0s.83-2.18,0-3.01c-.83-.83-2.18-.83-3.01,0Z"/><path class="b" d="M121.13,35.77c-.83-.83-2.18-.83-3.01,0s-.83,2.18,0,3.01c.83,.83,2.18,.83,3.01,0,.83-.83,.83-2.18,0-3.01Z"/><path class="b" d="M125.89,27.97c-.83,.83-.83,2.18,0,3.01,.83,.83,2.18,.83,3.01,0s.83-2.18,0-3.01c-.83-.83-2.18-.83-3.01,0Z"/><path class="b" d="M132.79,27.07c.83-.83,.83-2.18,0-3.01-.83-.83-2.18-.83-3.01,0-.83,.83-.83,2.18,0,3.01s2.18,.83,3.01,0Z"/><path class="b" d="M120.21,46.35c.9-.76,1.02-2.1,.26-3-.75-.9-2.1-1.02-3-.26-.9,.76-1.02,2.1-.26,3,.76,.9,2.1,1.02,3,.26Z"/><path class="b" d="M125.92,36.01c-.9,.76-1.02,2.1-.26,3,.75,.9,2.1,1.02,3,.26,.9-.75,1.02-2.1,.26-3-.76-.9-2.1-1.02-3-.26Z"/><path class="b" d="M124.43,42.81c.9-.76,1.02-2.1,.26-3-.76-.9-2.1-1.02-3-.26-.9,.76-1.02,2.1-.26,3,.76,.9,2.1,1.02,3,.26Z"/><path class="b" d="M132.87,35.73c.9-.75,1.02-2.1,.26-3-.75-.9-2.1-1.02-3-.26-.9,.76-1.02,2.1-.26,3,.76,.9,2.1,1.02,3,.26Z"/><path class="b" d="M137.09,32.2c.9-.75,1.02-2.1,.26-3-.76-.9-2.1-1.02-3-.26-.9,.76-1.02,2.1-.26,3,.76,.9,2.1,1.02,3,.26Z"/><path class="b" d="M122.82,50.26c.97-.67,1.21-2,.53-2.96-.67-.97-2-1.21-2.96-.53-.97,.67-1.21,2-.53,2.96,.67,.97,2,1.21,2.96,.53Z"/><path class="b" d="M132.4,41.02c-.67-.97-2-1.21-2.96-.53-.97,.67-1.2,2-.53,2.96,.67,.97,2,1.21,2.96,.53,.97-.67,1.2-2,.53-2.96Z"/><path class="b" d="M127.34,47.12c.97-.67,1.2-2,.53-2.96-.67-.97-2-1.21-2.96-.53-.97,.67-1.2,2-.53,2.96,.67,.97,2,1.21,2.96,.53Z"/><path class="b" d="M136.92,37.88c-.67-.97-2-1.21-2.96-.53-.97,.67-1.21,2-.53,2.96,.67,.97,2,1.21,2.96,.53,.97-.67,1.21-2,.53-2.96Z"/><path class="b" d="M137.95,37.16c.67,.97,2,1.21,2.96,.53,.97-.67,1.21-2,.53-2.96-.67-.97-2-1.21-2.96-.53-.97,.67-1.21,2-.53,2.96Z"/><path class="b" d="M125.06,54.4c1.02-.58,1.38-1.88,.8-2.9-.58-1.02-1.88-1.38-2.9-.8-1.02,.58-1.38,1.88-.8,2.9,.58,1.02,1.88,1.38,2.9,.8Z"/><path class="b" d="M134.64,48.96c1.02-.58,1.38-1.88,.8-2.9s-1.88-1.38-2.9-.8c-1.02,.58-1.38,1.88-.8,2.9,.58,1.02,1.88,1.38,2.9,.8Z"/><path class="b" d="M129.85,51.68c1.02-.58,1.38-1.88,.8-2.9-.58-1.02-1.88-1.38-2.9-.8-1.02,.58-1.38,1.88-.8,2.9s1.88,1.38,2.9,.8Z"/><path class="b" d="M139.43,46.24c1.02-.58,1.38-1.88,.8-2.9-.58-1.02-1.88-1.38-2.9-.8-1.02,.58-1.38,1.88-.8,2.9,.58,1.02,1.88,1.38,2.9,.8Z"/><path class="b" d="M141.32,42.72c.58,1.02,1.88,1.38,2.9,.8,1.02-.58,1.38-1.88,.8-2.9-.58-1.02-1.88-1.38-2.9-.8-1.02,.58-1.38,1.88-.8,2.9Z"/></g><g><path class="b" d="M187.78,39.91c1.18,0,2.13-.95,2.13-2.13s-.95-2.13-2.13-2.13-2.13,.95-2.13,2.13,.95,2.13,2.13,2.13Z"/><path class="b" d="M176.77,39.91c1.18,0,2.13-.95,2.13-2.13s-.95-2.13-2.13-2.13-2.13,.95-2.13,2.13,.95,2.13,2.13,2.13Z"/><path class="b" d="M182.27,39.91c1.18,0,2.13-.95,2.13-2.13s-.95-2.13-2.13-2.13-2.13,.95-2.13,2.13,.95,2.13,2.13,2.13Z"/><path class="b" d="M171.26,39.91c1.18,0,2.13-.95,2.13-2.13s-.95-2.13-2.13-2.13-2.13,.95-2.13,2.13,.95,2.13,2.13,2.13Z"/><path class="b" d="M165.75,39.91c1.18,0,2.13-.95,2.13-2.13s-.95-2.13-2.13-2.13-2.13,.95-2.13,2.13,.95,2.13,2.13,2.13Z"/><circle class="b" cx="187.78" cy="32.25" r="2.13"/><path class="b" d="M176.77,34.37c1.18,0,2.13-.95,2.13-2.13s-.95-2.13-2.13-2.13-2.13,.95-2.13,2.13,.95,2.13,2.13,2.13Z"/><path class="b" d="M182.27,34.37c1.18,0,2.13-.95,2.13-2.13s-.95-2.13-2.13-2.13-2.13,.95-2.13,2.13,.95,2.13,2.13,2.13Z"/><path class="b" d="M171.26,34.37c1.18,0,2.13-.95,2.13-2.13s-.95-2.13-2.13-2.13-2.13,.95-2.13,2.13,.95,2.13,2.13,2.13Z"/><path class="b" d="M165.75,34.37c1.18,0,2.13-.95,2.13-2.13s-.95-2.13-2.13-2.13-2.13,.95-2.13,2.13,.95,2.13,2.13,2.13Z"/><circle class="b" cx="187.78" cy="26.71" r="2.13"/><path class="b" d="M176.77,28.84c1.18,0,2.13-.95,2.13-2.13s-.95-2.13-2.13-2.13-2.13,.95-2.13,2.13,.95,2.13,2.13,2.13Z"/><path class="b" d="M182.27,28.84c1.18,0,2.13-.95,2.13-2.13s-.95-2.13-2.13-2.13-2.13,.95-2.13,2.13,.95,2.13,2.13,2.13Z"/><path class="b" d="M171.26,28.84c1.18,0,2.13-.95,2.13-2.13s-.95-2.13-2.13-2.13-2.13,.95-2.13,2.13,.95,2.13,2.13,2.13Z"/><path class="b" d="M165.75,28.84c1.18,0,2.13-.95,2.13-2.13s-.95-2.13-2.13-2.13-2.13,.95-2.13,2.13,.95,2.13,2.13,2.13Z"/><circle class="b" cx="187.78" cy="21.18" r="2.13"/><path class="b" d="M176.77,23.31c1.18,0,2.13-.95,2.13-2.13s-.95-2.13-2.13-2.13-2.13,.95-2.13,2.13,.95,2.13,2.13,2.13Z"/><path class="b" d="M182.27,23.31c1.18,0,2.13-.95,2.13-2.13s-.95-2.13-2.13-2.13-2.13,.95-2.13,2.13,.95,2.13,2.13,2.13Z"/><path class="b" d="M171.26,23.31c1.18,0,2.13-.95,2.13-2.13s-.95-2.13-2.13-2.13-2.13,.95-2.13,2.13,.95,2.13,2.13,2.13Z"/><path class="b" d="M165.75,23.31c1.18,0,2.13-.95,2.13-2.13s-.95-2.13-2.13-2.13-2.13,.95-2.13,2.13,.95,2.13,2.13,2.13Z"/><path class="b" d="M187.78,17.77c1.18,0,2.13-.95,2.13-2.13s-.95-2.13-2.13-2.13-2.13,.95-2.13,2.13,.95,2.13,2.13,2.13Z"/><path class="b" d="M176.77,17.77c1.18,0,2.13-.95,2.13-2.13s-.95-2.13-2.13-2.13-2.13,.95-2.13,2.13,.95,2.13,2.13,2.13Z"/><path class="b" d="M182.27,17.77c1.18,0,2.13-.95,2.13-2.13s-.95-2.13-2.13-2.13-2.13,.95-2.13,2.13,.95,2.13,2.13,2.13Z"/><path class="b" d="M171.26,17.77c1.18,0,2.13-.95,2.13-2.13s-.95-2.13-2.13-2.13-2.13,.95-2.13,2.13,.95,2.13,2.13,2.13Z"/><path class="b" d="M165.75,17.77c1.18,0,2.13-.95,2.13-2.13s-.95-2.13-2.13-2.13-2.13,.95-2.13,2.13,.95,2.13,2.13,2.13Z"/><circle class="b" cx="187.78" cy="10.17" r="2.13"/><path class="b" d="M176.77,12.3c1.18,0,2.13-.95,2.13-2.13s-.95-2.13-2.13-2.13-2.13,.95-2.13,2.13,.95,2.13,2.13,2.13Z"/><path class="b" d="M182.27,12.3c1.18,0,2.13-.95,2.13-2.13s-.95-2.13-2.13-2.13-2.13,.95-2.13,2.13,.95,2.13,2.13,2.13Z"/><path class="b" d="M171.26,12.3c1.18,0,2.13-.95,2.13-2.13s-.95-2.13-2.13-2.13-2.13,.95-2.13,2.13,.95,2.13,2.13,2.13Z"/><path class="b" d="M165.75,12.3c1.18,0,2.13-.95,2.13-2.13s-.95-2.13-2.13-2.13-2.13,.95-2.13,2.13,.95,2.13,2.13,2.13Z"/><path class="b" d="M187.78,6.98c1.18,0,2.13-.95,2.13-2.13s-.95-2.13-2.13-2.13-2.13,.95-2.13,2.13,.95,2.13,2.13,2.13Z"/><path class="b" d="M176.77,6.98c1.18,0,2.13-.95,2.13-2.13s-.95-2.13-2.13-2.13-2.13,.95-2.13,2.13,.95,2.13,2.13,2.13Z"/><path class="b" d="M182.27,6.98c1.18,0,2.13-.95,2.13-2.13s-.95-2.13-2.13-2.13-2.13,.95-2.13,2.13,.95,2.13,2.13,2.13Z"/><path class="b" d="M171.26,6.98c1.18,0,2.13-.95,2.13-2.13s-.95-2.13-2.13-2.13-2.13,.95-2.13,2.13,.95,2.13,2.13,2.13Z"/><path class="b" d="M165.75,6.98c1.18,0,2.13-.95,2.13-2.13s-.95-2.13-2.13-2.13-2.13,.95-2.13,2.13,.95,2.13,2.13,2.13Z"/><circle class="b" cx="187.78" cy="60.47" r="2.13"/><path class="b" d="M176.77,62.59c1.18,0,2.13-.95,2.13-2.13s-.95-2.13-2.13-2.13-2.13,.95-2.13,2.13,.95,2.13,2.13,2.13Z"/><path class="b" d="M182.27,62.59c1.18,0,2.13-.95,2.13-2.13s-.95-2.13-2.13-2.13-2.13,.95-2.13,2.13,.95,2.13,2.13,2.13Z"/><path class="b" d="M171.26,62.59c1.18,0,2.13-.95,2.13-2.13s-.95-2.13-2.13-2.13-2.13,.95-2.13,2.13,.95,2.13,2.13,2.13Z"/><path class="b" d="M165.75,62.59c1.18,0,2.13-.95,2.13-2.13s-.95-2.13-2.13-2.13-2.13,.95-2.13,2.13,.95,2.13,2.13,2.13Z"/><circle class="b" cx="187.78" cy="54.93" r="2.13"/><path class="b" d="M176.77,57.06c1.18,0,2.13-.95,2.13-2.13s-.95-2.13-2.13-2.13-2.13,.95-2.13,2.13,.95,2.13,2.13,2.13Z"/><path class="b" d="M182.27,57.06c1.18,0,2.13-.95,2.13-2.13s-.95-2.13-2.13-2.13-2.13,.95-2.13,2.13,.95,2.13,2.13,2.13Z"/><path class="b" d="M171.26,57.06c1.18,0,2.13-.95,2.13-2.13s-.95-2.13-2.13-2.13-2.13,.95-2.13,2.13,.95,2.13,2.13,2.13Z"/><path class="b" d="M165.75,57.06c1.18,0,2.13-.95,2.13-2.13s-.95-2.13-2.13-2.13-2.13,.95-2.13,2.13,.95,2.13,2.13,2.13Z"/><path class="b" d="M187.78,51.53c1.18,0,2.13-.95,2.13-2.13s-.95-2.13-2.13-2.13-2.13,.95-2.13,2.13,.95,2.13,2.13,2.13Z"/><path class="b" d="M176.77,51.53c1.18,0,2.13-.95,2.13-2.13s-.95-2.13-2.13-2.13-2.13,.95-2.13,2.13,.95,2.13,2.13,2.13Z"/><path class="b" d="M182.27,51.53c1.18,0,2.13-.95,2.13-2.13s-.95-2.13-2.13-2.13-2.13,.95-2.13,2.13,.95,2.13,2.13,2.13Z"/><path class="b" d="M171.26,51.53c1.18,0,2.13-.95,2.13-2.13s-.95-2.13-2.13-2.13-2.13,.95-2.13,2.13,.95,2.13,2.13,2.13Z"/><path class="b" d="M165.75,51.53c1.18,0,2.13-.95,2.13-2.13s-.95-2.13-2.13-2.13-2.13,.95-2.13,2.13,.95,2.13,2.13,2.13Z"/><path class="b" d="M187.78,45.99c1.18,0,2.13-.95,2.13-2.13s-.95-2.13-2.13-2.13-2.13,.95-2.13,2.13,.95,2.13,2.13,2.13Z"/><path class="b" d="M176.77,45.99c1.18,0,2.13-.95,2.13-2.13s-.95-2.13-2.13-2.13-2.13,.95-2.13,2.13,.95,2.13,2.13,2.13Z"/><path class="b" d="M182.27,45.99c1.18,0,2.13-.95,2.13-2.13s-.95-2.13-2.13-2.13-2.13,.95-2.13,2.13,.95,2.13,2.13,2.13Z"/><path class="b" d="M171.26,45.99c1.18,0,2.13-.95,2.13-2.13s-.95-2.13-2.13-2.13-2.13,.95-2.13,2.13,.95,2.13,2.13,2.13Z"/><path class="b" d="M165.75,45.99c1.18,0,2.13-.95,2.13-2.13s-.95-2.13-2.13-2.13-2.13,.95-2.13,2.13,.95,2.13,2.13,2.13Z"/><path class="b" d="M187.79,69.41c-1.18,0-2.13,.95-2.13,2.13s.95,2.13,2.13,2.13,2.13-.95,2.13-2.13-.95-2.13-2.13-2.13Z"/><path class="b" d="M176.77,69.41c-1.18,0-2.13,.95-2.13,2.13s.95,2.13,2.13,2.13,2.13-.95,2.13-2.13-.95-2.13-2.13-2.13Z"/><path class="b" d="M182.28,69.41c-1.18,0-2.13,.95-2.13,2.13s.95,2.13,2.13,2.13,2.13-.95,2.13-2.13-.95-2.13-2.13-2.13Z"/><path class="b" d="M171.26,69.41c-1.18,0-2.13,.95-2.13,2.13s.95,2.13,2.13,2.13,2.13-.95,2.13-2.13-.95-2.13-2.13-2.13Z"/><path class="b" d="M165.76,69.41c-1.18,0-2.13,.95-2.13,2.13s.95,2.13,2.13,2.13,2.13-.95,2.13-2.13-.95-2.13-2.13-2.13Z"/><path class="b" d="M187.79,63.88c-1.18,0-2.13,.95-2.13,2.13s.95,2.13,2.13,2.13,2.13-.95,2.13-2.13-.95-2.13-2.13-2.13Z"/><path class="b" d="M176.77,63.88c-1.18,0-2.13,.95-2.13,2.13s.95,2.13,2.13,2.13,2.13-.95,2.13-2.13-.95-2.13-2.13-2.13Z"/><path class="b" d="M182.28,63.88c-1.18,0-2.13,.95-2.13,2.13s.95,2.13,2.13,2.13,2.13-.95,2.13-2.13-.95-2.13-2.13-2.13Z"/><path class="b" d="M171.26,63.88c-1.18,0-2.13,.95-2.13,2.13s.95,2.13,2.13,2.13,2.13-.95,2.13-2.13-.95-2.13-2.13-2.13Z"/><path class="b" d="M165.76,63.88c-1.18,0-2.13,.95-2.13,2.13s.95,2.13,2.13,2.13,2.13-.95,2.13-2.13-.95-2.13-2.13-2.13Z"/></g></svg>