<?xml version="1.0" encoding="utf-8"?>
<!-- Generator: Adobe Illustrator 25.3.1, SVG Export Plug-In . SVG Version: 6.00 Build 0)  -->
<svg version="1.1" id="Layer_1" xmlns="http://www.w3.org/2000/svg" xmlns:xlink="http://www.w3.org/1999/xlink" x="0px" y="0px"
	 viewBox="0 0 300 1000" style="enable-background:new 0 0 300 1000;" xml:space="preserve">
<style type="text/css">
	.st0{fill:#004F5B;}
	.st1{fill:#61C1C4;}
	.st2{fill:#FFFFFF;}
</style>
<rect class="st0" width="300" height="1000"/>
<path class="st1" d="M286,838c0,19.7-0.6,33-3.5,47.3c-2.3,12.2-6.6,24-12.5,34.9c-6.8,12.2-14.4,21.9-23.1,29.8
	c-55,49.7-138.7,49.7-193.8,0c-8.7-7.9-16.2-17.7-23-29.8c-6-10.9-10.2-22.7-12.5-34.9c-3-14.3-3.5-27.7-3.5-47.3V638.9
	c0-19.7,0.6-33,3.5-47.3c2.3-12.2,6.5-24,12.5-34.9c6.8-12.2,14.4-21.9,23.1-29.8c55-49.7,138.7-49.7,193.8,0
	c8.7,7.9,16.2,17.6,23,29.8c6,10.9,10.2,22.7,12.5,34.9c3,14.3,3.5,27.7,3.5,47.3L286,838z"/>
<path class="st2" d="M44.2,248h-9v-33h14.5c8.1,0,13.1,3.9,13.1,11.2s-5,11.2-13.1,11.2h-5.4L44.2,248z M49.2,230
	c3.2,0,4.7-1.4,4.7-3.7s-1.5-3.7-4.7-3.7h-5v7.4H49.2z"/>
<path class="st2" d="M80.9,231.9c-0.7-0.1-1.5-0.2-2.2-0.2c-3,0-5.4,1.7-5.4,5V248h-8.7v-24.3h8.7v2.9c1.4-1.9,3.6-3.1,6-3
	c0.5,0,1.1,0,1.6,0.1L80.9,231.9z"/>
<path class="st2" d="M82.1,235.8c-0.2-6.8,5.2-12.4,11.9-12.6c0.2,0,0.4,0,0.7,0c7.6,0,11.8,5.5,11.8,12.6v2H90.5
	c0.5,2.6,2.1,4,4.4,4c1.9,0.2,3.6-1,4.2-2.8l7.2,2.2c-1.8,4.9-6.7,7.4-11.5,7.4C87.1,248.5,82.1,243.3,82.1,235.8z M90.7,232.9H98
	c0-1.8-1.5-3.3-3.4-3.3c0,0,0,0,0,0h-0.1C92.6,229.6,91,231,90.7,232.9z"/>
<path class="st2" d="M114.5,248l-8.6-24.2h8.9l4.2,13.5l4.1-13.5h8.5l-8.6,24.2H114.5z"/>
<path class="st2" d="M131.1,235.8c-0.2-6.8,5.2-12.4,11.9-12.6c0.2,0,0.4,0,0.7,0c7.6,0,11.8,5.5,11.8,12.6v2h-15.9
	c0.5,2.6,2.1,4,4.4,4c1.9,0.2,3.6-1,4.2-2.8l7.2,2.2c-1.8,4.9-6.7,7.4-11.5,7.4C136.1,248.5,131.1,243.3,131.1,235.8z M139.7,232.9
	h7.3c0-1.8-1.5-3.3-3.4-3.3h-0.1C141.6,229.6,140,231,139.7,232.9z"/>
<path class="st2" d="M158.2,223.7h8.7v2.3c1.7-1.8,4.1-2.8,6.6-2.8c4.9,0,8.1,3.4,8.1,8.8v16h-8.8v-13.6c0-2-0.9-3.5-2.8-3.5
	c-1.8,0-3.2,1.4-3.2,3.1c0,0,0,0,0,0c0,0.1,0,0.3,0,0.4V248h-8.7L158.2,223.7z"/>
<path class="st2" d="M186.3,230.8h-2.9v-7.1h2.9v-6.4h8.6v6.4h4.5v7.1h-4.5v7.8c0,1.9,0.9,2.3,2.7,2.3c0.7,0,1.3-0.1,2-0.1v7.1
	c-1.6,0.3-3.2,0.4-4.8,0.4c-5.7,0-8.4-2-8.4-7L186.3,230.8z"/>
<path class="st2" d="M202.6,215h8.8v6.8h-8.8L202.6,215z M211.4,248h-8.7v-24.3h8.7V248z"/>
<path class="st2" d="M226.4,248.5c-7.4,0-12.5-5.1-12.5-12.7s5.1-12.7,12.5-12.7s12.5,5.1,12.5,12.7S233.8,248.5,226.4,248.5z
	 M226.4,241.5c2.4,0,3.9-1.9,3.9-5.7s-1.5-5.6-3.9-5.6s-3.9,1.9-3.9,5.6S224,241.5,226.4,241.5L226.4,241.5z"/>
<path class="st2" d="M241.5,223.7h8.7v2.3c1.7-1.8,4.1-2.8,6.6-2.8c4.9,0,8.1,3.4,8.1,8.8v16h-8.7v-13.6c0-2-0.9-3.5-2.8-3.5
	c-1.8,0-3.2,1.4-3.2,3.2c0,0.1,0,0.2,0,0.4V248h-8.7L241.5,223.7z"/>
<path class="st2" d="M35,266.9h8.8v6.8H35V266.9z M43.7,299.9H35v-24.3h8.7V299.9z"/>
<path class="st2" d="M48.9,291.1c2.4,1.8,5.4,2.9,8.4,3c1.7,0,2.8-0.4,2.8-1.4c0-1.2-1.2-1.3-5.2-2s-8.3-1.8-8.3-7.2s4.8-8.5,11-8.5
	c3.8-0.1,7.6,1.1,10.6,3.4l-3.6,5.3c-1.9-1.6-4.3-2.5-6.8-2.5c-1.4,0-2.4,0.4-2.4,1.3c0,1.1,1.2,1.2,4.1,1.7c4.6,0.8,9.2,2,9.2,7.5
	c0,5.7-5.2,8.6-11.9,8.6c-4,0-8.9-1.2-11.3-3.3L48.9,291.1z"/>
<path class="st2" d="M81.4,282.7h-2.9v-7.1h2.9v-6.4H90v6.4h4.5v7.1H90v7.7c0,1.9,0.9,2.4,2.7,2.4c0.7,0,1.3,0,2-0.1v7.1
	c-1.6,0.3-3.2,0.4-4.8,0.4c-5.7,0-8.4-2-8.4-7L81.4,282.7z"/>
<path class="st2" d="M97.7,266.9h8.7v11c1.7-1.8,4.1-2.8,6.6-2.8c4.9,0,8.1,3.4,8.1,8.8v16h-8.7v-13.6c0-2-0.9-3.5-2.8-3.5
	c-1.8,0-3.2,1.4-3.2,3.2c0,0.1,0,0.2,0,0.3v13.5h-8.7V266.9z"/>
<path class="st2" d="M123.6,287.7c-0.2-6.8,5.1-12.4,11.8-12.7c0,0,0,0,0.1,0c0.2,0,0.4,0,0.7,0c7.6,0,11.8,5.5,11.8,12.6v2h-15.9
	c0.5,2.6,2.1,4,4.4,4c1.9,0.2,3.6-1,4.2-2.8l7.2,2.2c-1.8,4.9-6.7,7.4-11.5,7.4C128.7,300.4,123.6,295.2,123.6,287.7z M132.3,284.8
	h7.3c0-1.8-1.5-3.3-3.4-3.3h-0.1C134.2,281.5,132.6,282.9,132.3,284.8z"/>
<path class="st2" d="M168.5,297.6v2.3h-8.7v-33h8.7v11c1.6-1.9,3.9-2.9,6.3-2.8c6.6,0,10.3,5.7,10.3,12.7s-3.7,12.7-10.3,12.7
	C172.3,300.5,170,299.5,168.5,297.6z M168.5,288.4c0,3,1.6,4.7,3.9,4.7c2.6,0,4-2.3,4-5.3s-1.4-5.3-4-5.3c-2.3,0-3.9,1.7-3.9,4.8
	V288.4z"/>
<path class="st2" d="M186.5,287.7c-0.2-6.8,5.1-12.4,11.9-12.7c0,0,0,0,0.1,0c0.2,0,0.4,0,0.7,0c7.6,0,11.8,5.5,11.8,12.6v2H195
	c0.5,2.6,2.1,4,4.4,4c1.9,0.2,3.6-1,4.2-2.8l7.2,2.2c-1.8,4.9-6.7,7.4-11.5,7.4C191.6,300.4,186.5,295.2,186.5,287.7z M195.1,284.8
	h7.3c0-1.8-1.5-3.3-3.4-3.3H199C197.1,281.5,195.5,282.9,195.1,284.8z"/>
<path class="st2" d="M214.7,291.1c2.5,1.8,5.4,2.9,8.5,3c1.6,0,2.9-0.4,2.9-1.4c0-1.2-1.2-1.3-5.2-2s-8.3-1.8-8.3-7.2
	s4.8-8.5,11-8.5c3.8-0.1,7.6,1.1,10.7,3.4l-3.6,5.3c-1.9-1.6-4.3-2.5-6.8-2.5c-1.4,0-2.4,0.4-2.4,1.3c0,1.1,1.2,1.2,4.1,1.7
	c4.6,0.8,9.2,2,9.2,7.5c0,5.7-5.2,8.6-11.9,8.6c-4,0-8.9-1.2-11.3-3.3L214.7,291.1z"/>
<path class="st2" d="M238.4,282.7h-2.9v-7.1h2.9v-6.4h8.6v6.4h4.5v7.1H247v7.7c0,1.9,0.9,2.4,2.7,2.4c0.7,0,1.3,0,2-0.1v7.1
	c-1.6,0.3-3.2,0.4-4.8,0.4c-5.7,0-8.4-2-8.4-7L238.4,282.7z"/>
<path class="st2" d="M43.7,351.7H35v-24.2h8.7v2.2c1.7-1.8,4.1-2.9,6.6-2.8c2.7-0.1,5.2,1.1,6.8,3.3c1.9-2.1,4.7-3.3,7.5-3.3
	c4.9,0,8.2,3.5,8.2,8.8v16h-8.7v-13.6c0-2-0.8-3.5-2.8-3.5c-1.6,0-3.1,1.1-3.1,3.5v13.6h-8.7v-13.6c0-2-0.8-3.5-2.8-3.5
	c-1.6,0-3.1,1.1-3.1,3.5V351.7z"/>
<path class="st2" d="M75.4,339.5c-0.2-6.8,5.1-12.4,11.9-12.6c0,0,0,0,0,0H88c7.6,0,11.8,5.5,11.8,12.6v2h-16c0.5,2.6,2.1,4,4.4,4
	c1.9,0.2,3.6-1,4.2-2.8l7.2,2.2c-1.8,4.9-6.7,7.4-11.5,7.4C80.4,352.2,75.4,347,75.4,339.5z M84,336.6h7.3c0-1.8-1.5-3.3-3.4-3.3
	c0,0,0,0,0,0h-0.1C85.9,333.4,84.3,334.7,84,336.6z"/>
<path class="st2" d="M101.3,339.6c0-7,3.7-12.7,10.3-12.7c2.4-0.1,4.7,0.9,6.3,2.8v-11h8.7v33h-8.7v-2.2c-1.5,1.9-3.9,2.9-6.3,2.9
	C105,352.2,101.3,346.5,101.3,339.6z M114,334.2c-2.6,0-4,2.3-4,5.3s1.4,5.3,4,5.3c2.3,0,3.9-1.7,3.9-4.7V339
	C117.9,335.9,116.3,334.2,114,334.2L114,334.2z"/>
<path class="st2" d="M130.5,318.7h8.8v6.8h-8.8V318.7z M139.2,351.7h-8.7v-24.3h8.7V351.7z"/>
<path class="st2" d="M154.3,345.2c2,0,3.2-1.6,3.5-3.6l7.6,2.6c-0.8,4.1-4.8,8.1-11.2,8.1c-7.4,0-12.4-5.2-12.4-12.7
	s5.1-12.7,12.4-12.7c6.4,0,10.4,3.9,11.2,8l-7.6,2.6c-0.4-2-1.5-3.5-3.5-3.5c-2.5,0-3.9,2.1-3.9,5.6S151.8,345.2,154.3,345.2z"/>
<path class="st2" d="M167.7,318.7h8.8v6.8h-8.8V318.7z M176.4,351.7h-8.7v-24.3h8.7V351.7z"/>
<path class="st2" d="M180.2,327.4h8.8v2.2c1.7-1.8,4.1-2.8,6.6-2.8c4.9,0,8.1,3.5,8.1,8.8v16H195v-13.6c0-2-0.9-3.5-2.8-3.5
	c-1.8,0-3.2,1.4-3.2,3.1c0,0,0,0,0,0c0,0.1,0,0.3,0,0.4v13.6h-8.7L180.2,327.4z"/>
<path class="st2" d="M206.2,339.5c-0.2-6.8,5.1-12.4,11.9-12.6c0,0,0,0,0,0h0.6c7.6,0,11.8,5.5,11.8,12.6v2h-15.9
	c0.5,2.6,2.1,4,4.4,4c1.9,0.2,3.6-1,4.2-2.8l7.2,2.2c-1.8,4.9-6.7,7.4-11.5,7.4C211.2,352.2,206.2,347,206.2,339.5z M214.8,336.6
	h7.2c0-1.8-1.5-3.3-3.3-3.3c0,0,0,0,0,0h-0.1C216.7,333.4,215.1,334.8,214.8,336.6L214.8,336.6z"/>
</svg>
