<svg xmlns="http://www.w3.org/2000/svg" viewBox="0 0 354.17 23.54"><defs><style>.cls-1{fill:#231f20;}</style></defs><title>t1-970250</title><g id="Layer_2" data-name="Layer 2"><g id="Layer_1-2" data-name="Layer 1"><path class="cls-1" d="M14.44,15.58V11.71H25.17a12.55,12.55,0,0,1-1.5,6.6,10.44,10.44,0,0,1-4.38,3.84,14.6,14.6,0,0,1-6.45,1.39q-6.19,0-9.52-3.32A11.47,11.47,0,0,1,0,11.77,11.89,11.89,0,0,1,1.65,5.49,10.51,10.51,0,0,1,6.08,1.38a13.4,13.4,0,0,1,6-1.38A10.61,10.61,0,0,1,19.3,2.24V.36h3.88V8.5H19.3a5.74,5.74,0,0,0-2.42-3.25A7,7,0,0,0,13,4.07,6.34,6.34,0,0,0,8.33,6a7.28,7.28,0,0,0-1.92,5.36,8.35,8.35,0,0,0,1.95,6,6.36,6.36,0,0,0,4.78,2.05,5.72,5.72,0,0,0,3.44-1,5.18,5.18,0,0,0,1.89-2.8Z"/><path class="cls-1" d="M27.86,23.26V19.4h2.75V4.23H27.86V.36H48V7.62H43.67V4.23h-7.1V9.52H42.3v3.87H36.57v6h7.1V16H48v7.29Z"/><path class="cls-1" d="M54.51,23.26V19.4H58V4.23H54.51V9.57H50.57V.36H71.33V9.57H67.45V4.23H63.91V19.4h3.44v3.86Z"/><path class="cls-1" d="M104.29,19.4v3.86H93V19.4H96l-1.08-3.94H88.93L87.71,19.4h3.07v3.86H80.63V19.4h2.84L87.93,4.23H84.88V.36h15V4.23H96.75l4.81,15.17ZM93.94,12.1,92,5.2,90,12.1Z"/><path class="cls-1" d="M113.58,23.26V19.4h3.28V4.23h-3.28V.36h20.5V7.43H129.7V4.23h-6.88v5.3h5V13.4h-5v6h3.52v3.86Z"/><path class="cls-1" d="M160,19.4v3.86h-7l-5.17-10H145.2V19.4h2.86v3.86h-12V19.4h3.15V4.23h-3.15V.36h13.82q3.9,0,5.62,2a6.62,6.62,0,0,1,1.72,4.45q0,3.9-4,5.7L157,19.4ZM145.2,9.58h2c2.52,0,3.79-.9,3.79-2.7a2.34,2.34,0,0,0-.87-2,3.85,3.85,0,0,0-2.38-.66H145.2Z"/><path class="cls-1" d="M161.93,23.26V19.4h2.75V4.23h-2.75V.36h20.19V7.62h-4.38V4.23h-7.1V9.52h5.73v3.87h-5.73v6h7.1V16h4.38v7.29Z"/><path class="cls-1" d="M185.53,23.26V19.4h2.75V4.23h-2.75V.36h20.19V7.62h-4.38V4.23h-7.1V9.52H200v3.87h-5.73v6h7.1V16h4.38v7.29Z"/><path class="cls-1" d="M216.22,23.26V19.4h3V4.23h-3V.36h11.49l5,13.42,5-13.42H249.5V4.23h-3V19.4h3v3.86H238V19.4h2.77V4.23h-.54l-7.1,19h-2.47l-7.18-19h-.54V19.4h3v3.86Z"/><path class="cls-1" d="M264.66,0q5.93,0,9.33,3.42a11.45,11.45,0,0,1,3.4,8.35A11.39,11.39,0,0,1,274,20.13q-3.41,3.42-9.32,3.41-6.15,0-9.44-3.51a11.71,11.71,0,0,1-3.29-8.26,11.46,11.46,0,0,1,3.38-8.34Q258.7,0,264.66,0Zm0,4.18a5.86,5.86,0,0,0-4.47,2A8.18,8.18,0,0,0,258.35,12a7.83,7.83,0,0,0,1.81,5.4,5.81,5.81,0,0,0,4.5,2,5.88,5.88,0,0,0,4.48-2A8.08,8.08,0,0,0,271,11.67a8.09,8.09,0,0,0-1.76-5.41A5.7,5.7,0,0,0,264.66,4.18Z"/><path class="cls-1" d="M279.84,23.26V19.4h3.06V4.23h-3.06V.36h9.62l8.42,14.28V4.23h-3V.36h10.28V4.23H302v19.2h-5.1L287,6.45v13h2.88v3.86Z"/><path class="cls-1" d="M311.32,23.26V19.4h3.44V4.23h-3.44V9.57h-3.94V.36h20.76V9.57h-3.88V4.23h-3.54V19.4h3.44v3.86Z"/><path class="cls-1" d="M330.61,23.26V19.4h2.86V4.23h-2.86V.36h11.06V4.23h-2.4v5h6.24v-5h-2.32V.36h11V4.23H351.3V19.4h2.87v3.86h-11V19.4h2.32V13.14h-6.24V19.4h2.4v3.86Z"/></g></g></svg>