<svg xmlns="http://www.w3.org/2000/svg" viewBox="0 0 329.85 78.54"><defs><style>.cls-1{fill:#231f20;}</style></defs><title>t3-970250</title><g id="Layer_2" data-name="Layer 2"><g id="Layer_1-2" data-name="Layer 1"><path class="cls-1" d="M7.11,28.55V23.8h3.94V16.2l-7.62-11H0V.44H14.06V5.19H11.29L15.42,12l4.19-6.85h-2.9V.44H29.09V5.19H25.64l-7.28,11v7.6h3.92v4.75Z"/><path class="cls-1" d="M31.4,28.55V23.8h3.37V5.19H31.4V.44H56.17V9.35H50.79V5.19h-8.7v6.49h7v4.74h-7V23.8h8.7V19.6h5.38v9Z"/><path class="cls-1" d="M75,23.8v4.75H60.22V23.8h3.57V5.19H60.22V.44H75c3.44,0,6.11.81,8,2.43a8.17,8.17,0,0,1,2.82,6.52,9.25,9.25,0,0,1-1,4.26,7.64,7.64,0,0,1-2.54,2.93A9.55,9.55,0,0,1,78.77,18a27.52,27.52,0,0,1-5,.37H71.11V23.8ZM71.11,13.66H72.2c2.5,0,4.12-.41,4.84-1.23a4.4,4.4,0,0,0,1.08-3,4.46,4.46,0,0,0-.75-2.61,3.09,3.09,0,0,0-1.72-1.34,14.49,14.49,0,0,0-3.17-.25H71.11Z"/><path class="cls-1" d="M86.45,35.94v-3q3.31-.34,3.31-4v-.36H86.45V21.78h6.74v6.28a13.23,13.23,0,0,1-.65,4.67,4.5,4.5,0,0,1-2.22,2.42A8.53,8.53,0,0,1,86.45,35.94Z"/><path class="cls-1" d="M114.49,28.55V23.8h3.94V16.2l-7.62-11h-3.43V.44h14.06V5.19h-2.77L122.8,12,127,5.19h-2.9V.44h12.39V5.19H133l-7.27,11v7.6h3.92v4.75Z"/><path class="cls-1" d="M153.32,0q7.27,0,11.44,4.2a14,14,0,0,1,4.18,10.24,14,14,0,0,1-4.19,10.26c-2.78,2.79-6.6,4.19-11.43,4.19q-7.53,0-11.58-4.31a14.38,14.38,0,0,1-4-10.14,14,14,0,0,1,4.16-10.23Q146,0,153.32,0Zm0,5.13a7.23,7.23,0,0,0-5.49,2.43q-2.25,2.42-2.25,7.11a9.55,9.55,0,0,0,2.22,6.62,7.38,7.38,0,0,0,11,.05q2.26-2.43,2.27-7a9.9,9.9,0,0,0-2.16-6.64A7,7,0,0,0,153.32,5.13Z"/><path class="cls-1" d="M171.21,5.19V.44h13.41V5.19h-2.77V17.9a21.05,21.05,0,0,0,.22,3.67,3,3,0,0,0,1.12,1.84,3.52,3.52,0,0,0,2.3.73,4,4,0,0,0,2.38-.68,3.11,3.11,0,0,0,1.23-1.72,20.5,20.5,0,0,0,.27-4.2V5.19h-2.73V.44h11.19V5.19H194.4V19.25a20.46,20.46,0,0,1-.3,4.17A6.25,6.25,0,0,1,192.7,26a7.62,7.62,0,0,1-3.16,2.08,13.23,13.23,0,0,1-4.76.8,14.17,14.17,0,0,1-5.3-.88,7.28,7.28,0,0,1-3.26-2.33,7.42,7.42,0,0,1-1.38-2.89,27.29,27.29,0,0,1-.3-4.89V5.19Z"/><path class="cls-1" d="M239.05,23.8v4.75h-8.56l-6.35-12.31h-3.22V23.8h3.52v4.75H209.75V23.8h3.86V5.19h-3.86V.44H226.7q4.78,0,6.9,2.42a8.06,8.06,0,0,1,2.11,5.46q0,4.8-4.87,7l4.57,8.49Zm-18.13-12h2.51q4.65,0,4.65-3.32A2.89,2.89,0,0,0,227,6a4.71,4.71,0,0,0-2.92-.81h-3.18Z"/><path class="cls-1" d="M241.37,28.55V23.8h3.38V5.19h-3.38V.44h24.77V9.35h-5.37V5.19h-8.71v6.49h7v4.74h-7V23.8h8.71V19.6h5.37v9Z"/><path class="cls-1" d="M297.52,23.8v4.75H283.7V23.8h3.6L286,19h-7.29l-1.5,4.83h3.76v4.75H268.49V23.8H272l5.48-18.61H273.7V.44H292V5.19h-3.77l5.9,18.61Zm-12.71-9-2.34-8.47-2.53,8.47Z"/><path class="cls-1" d="M299.69,28.55V23.8H304V5.19h-4.26V.44H313a36,36,0,0,1,6.77.52,12,12,0,0,1,4.91,2.28A12.69,12.69,0,0,1,328.44,8a15.18,15.18,0,0,1,1.41,6.59,15.84,15.84,0,0,1-1,5.58,13.31,13.31,0,0,1-2.45,4.28A10.9,10.9,0,0,1,322.9,27a14.52,14.52,0,0,1-3.75,1.24,34.94,34.94,0,0,1-5.28.29Zm11.56-4.75H313a12.72,12.72,0,0,0,5.06-.83,6.31,6.31,0,0,0,3-2.92,11.35,11.35,0,0,0,1.14-5.46,11.94,11.94,0,0,0-1.15-5.46A6.35,6.35,0,0,0,318,6a12.41,12.41,0,0,0-5-.85h-1.75Z"/><path class="cls-1" d="M30.11,78.2V73.45h4.23V54.84H30.11v6.55H25.29V50.09H50.76v11.3H46V54.84H41.65V73.45h4.22V78.2Z"/><path class="cls-1" d="M53.7,78.2V73.45h3.51V54.84H53.7V50.09H67.28v4.75h-3V61H72V54.84H69.13V50.09H82.61v4.75H79.09V73.45h3.52V78.2H69.13V73.45H72V65.77H64.33v7.68h3V78.2Z"/><path class="cls-1" d="M113.91,73.45V78.2H100.09V73.45h3.6l-1.34-4.83H95.06l-1.49,4.83h3.75V78.2H84.88V73.45h3.47l5.48-18.61H90.09V50.09h18.34v4.75h-3.77l5.9,18.61Zm-12.71-9L98.86,56,96.33,64.5Z"/><path class="cls-1" d="M118.56,78.2V73.45h4.23V54.84h-4.23v6.55h-4.83V50.09h25.48v11.3h-4.77V54.84H130.1V73.45h4.22V78.2Z"/><path class="cls-1" d="M181.05,73.45V78.2h-8.56l-6.35-12.31h-3.21v7.56h3.51V78.2H151.76V73.45h3.85V54.84h-3.85V50.09h17q4.78,0,6.89,2.42A8.07,8.07,0,0,1,177.72,58c0,3.2-1.63,5.53-4.87,7l4.56,8.49Zm-18.12-12h2.5q4.65,0,4.65-3.32A2.86,2.86,0,0,0,169,55.65a4.71,4.71,0,0,0-2.92-.81h-3.17Z"/><path class="cls-1" d="M183.16,78.2V73.45h4.26V54.84h-4.26V50.09H199v4.75h-4.3V73.45H199V78.2Z"/><path class="cls-1" d="M219.54,68.76V64h13.17a15.23,15.23,0,0,1-1.85,8.1,12.53,12.53,0,0,1-5.37,4.71,17.77,17.77,0,0,1-7.91,1.72q-7.62,0-11.69-4.08a14.09,14.09,0,0,1-4.07-10.37,14.65,14.65,0,0,1,2-7.7,13,13,0,0,1,5.44-5,16.27,16.27,0,0,1,7.41-1.7q5.66,0,8.81,2.75V50.09h4.77v10H225.5a7,7,0,0,0-3-4,8.54,8.54,0,0,0-4.77-1.45A7.8,7.8,0,0,0,212,57a9,9,0,0,0-2.36,6.58c0,3.2.8,5.65,2.4,7.32a7.81,7.81,0,0,0,5.86,2.52,7,7,0,0,0,4.23-1.23,6.4,6.4,0,0,0,2.32-3.44Z"/><path class="cls-1" d="M235.86,78.2V73.45h3.52V54.84h-3.52V50.09h13.58v4.75h-2.95V61h7.65V54.84H251.3V50.09h13.47v4.75h-3.51V73.45h3.51V78.2H251.3V73.45h2.84V65.77h-7.65v7.68h2.95V78.2Z"/><path class="cls-1" d="M272.54,78.2V73.45h4.22V54.84h-4.22v6.55h-4.83V50.09h25.48v11.3h-4.77V54.84h-4.35V73.45h4.23V78.2Z"/><path class="cls-1" d="M297.36,78.2V71.43h6.75V78.2Zm1.88-9.8L297.5,57.79v-7.7h6.25v7.7l-1.6,10.61Z"/></g></g></svg>