<?xml version="1.0" encoding="UTF-8"?>
<svg id="Layer_2" data-name="Layer 2" xmlns="http://www.w3.org/2000/svg" xmlns:xlink="http://www.w3.org/1999/xlink" viewBox="0 0 994 250">
  <defs>
    <style>
      .cls-1 {
        fill: none;
      }

      .cls-2 {
        fill: #fff;
      }

      .cls-3 {
        clip-path: url(#clippath);
      }
    </style>
    <clipPath id="clippath">
      <rect class="cls-1" width="994" height="250"/>
    </clipPath>
  </defs>
  <g id="Layer_1-2" data-name="Layer 1">
    <g class="cls-3">
      <g>
        <g>
          <path class="cls-2" d="M40.89,155.83l-4.79-14.49h2.44l4.6,14.03,4.62-14.03h2.41l-4.77,14.49h-4.51Z"/>
          <path class="cls-2" d="M55.13,156.04c-3.13,0-4.96-2.56-4.96-5.46s1.79-5.46,4.91-5.46,5.19,2.54,4.87,6.19h-7.5c.11,1.91,1.22,3.02,2.81,3.02,1.36,0,1.95-.92,2.2-1.76h2.29c-.44,2.08-2.08,3.46-4.64,3.46ZM52.48,149.62h5.19c-.15-1.7-1.05-2.79-2.58-2.79s-2.46,1.09-2.6,2.79Z"/>
          <path class="cls-2" d="M62.19,155.83v-10.5h2.23v2.06h.04c.44-1.47,1.53-2.27,3.15-2.27v2.29h-.36c-1.95,0-2.77.57-2.77,2.48v5.94h-2.29Z"/>
          <path class="cls-2" d="M70.8,155.83l-2.23-10.5h2.31l2.08,9.83,1.89-9.83h4.03l1.89,9.83,2.1-9.83h2.29l-2.23,10.5h-4.18l-1.89-9.83-1.89,9.83h-4.18Z"/>
          <path class="cls-2" d="M91.4,156.04c-3.13,0-4.96-2.56-4.96-5.46s1.78-5.46,4.91-5.46,5.19,2.54,4.87,6.19h-7.5c.1,1.91,1.22,3.02,2.81,3.02,1.37,0,1.95-.92,2.21-1.76h2.29c-.44,2.08-2.08,3.46-4.64,3.46ZM88.75,149.62h5.19c-.15-1.7-1.05-2.79-2.58-2.79s-2.46,1.09-2.6,2.79Z"/>
          <path class="cls-2" d="M98.45,155.83v-10.5h2.22v2.06h.04c.44-1.47,1.53-2.27,3.06-2.27,2.31,0,3.44,1.57,3.44,3.88v6.82h-2.29v-6.15c0-1.95-.69-2.83-2.1-2.83s-2.1.97-2.1,2.69v6.3h-2.29Z"/>
          <path class="cls-2" d="M113.8,156.04c-2.86,0-4.41-2.52-4.41-5.46s1.62-5.46,4.41-5.46c1.6,0,2.81.95,3.32,2.39h.06v-6.17h2.25v14.49h-2.25v-2.2h-.06c-.5,1.45-1.72,2.41-3.32,2.41ZM114.54,154.34c1.76,0,2.73-1.53,2.73-3.76s-.97-3.76-2.73-3.76-2.73,1.51-2.73,3.76.99,3.76,2.73,3.76Z"/>
          <path class="cls-2" d="M125.63,156.04c-2.33,0-3.46-1.57-3.46-3.88v-6.82h2.29v6.13c0,1.95.67,2.83,2.04,2.83s2.06-.97,2.06-2.69v-6.28h2.29v10.5h-2.23v-2.06h-.04c-.44,1.45-1.43,2.27-2.94,2.27Z"/>
          <path class="cls-2" d="M133.65,155.83v-10.5h2.23v2.06h.04c.44-1.47,1.53-2.27,3.07-2.27,2.31,0,3.44,1.57,3.44,3.88v6.82h-2.29v-6.15c0-1.95-.69-2.83-2.1-2.83s-2.1.97-2.1,2.69v6.3h-2.29Z"/>
          <path class="cls-2" d="M149.94,159.61c-2.56,0-4.45-1.13-4.68-3.42h2.27c.21,1.3,1.3,1.72,2.41,1.72,1.41,0,2.46-.76,2.46-2.52v-2.18h-.06c-.5,1.45-1.72,2.41-3.32,2.41-2.79,0-4.41-2.31-4.41-5.25s1.62-5.25,4.41-5.25c1.6,0,2.81.95,3.32,2.39h.06v-2.18h2.25v9.99c0,2.79-1.95,4.28-4.7,4.28ZM149.75,153.92c1.72,0,2.73-1.32,2.73-3.55s-1.01-3.55-2.73-3.55-2.73,1.3-2.73,3.55,1.01,3.55,2.73,3.55Z"/>
          <path class="cls-2" d="M166.72,156.04c-3.13,0-4.96-2.56-4.96-5.46s1.78-5.46,4.91-5.46,5.19,2.54,4.87,6.19h-7.5c.1,1.91,1.22,3.02,2.81,3.02,1.37,0,1.95-.92,2.21-1.76h2.29c-.44,2.08-2.08,3.46-4.64,3.46ZM164.08,149.62h5.19c-.15-1.7-1.05-2.79-2.58-2.79s-2.46,1.09-2.6,2.79Z"/>
          <path class="cls-2" d="M177.62,156.04c-2.86,0-4.41-2.52-4.41-5.46s1.62-5.46,4.41-5.46c1.6,0,2.81.95,3.32,2.39h.06v-6.17h2.25v14.49h-2.25v-2.2h-.06c-.5,1.45-1.72,2.41-3.32,2.41ZM178.36,154.34c1.76,0,2.73-1.53,2.73-3.76s-.97-3.76-2.73-3.76-2.73,1.51-2.73,3.76.99,3.76,2.73,3.76Z"/>
          <path class="cls-2" d="M190.43,156.04c-3.13,0-4.96-2.56-4.96-5.46s1.78-5.46,4.91-5.46,5.19,2.54,4.87,6.19h-7.5c.1,1.91,1.22,3.02,2.81,3.02,1.37,0,1.95-.92,2.21-1.76h2.29c-.44,2.08-2.08,3.46-4.64,3.46ZM187.79,149.62h5.19c-.15-1.7-1.05-2.79-2.58-2.79s-2.46,1.09-2.6,2.79Z"/>
          <path class="cls-2" d="M197.49,141.35h2.29v14.49h-2.29v-14.49Z"/>
          <path class="cls-2" d="M206.52,156.04c-2.88,0-4.43-1.87-4.58-3.8h2.27c.13,1.34,1.2,2.1,2.33,2.1,1.03,0,2-.46,2-1.36,0-.59-.48-1.07-1.7-1.34l-1.43-.32c-2.06-.44-3.28-1.43-3.28-3.09,0-1.91,1.85-3.11,4.09-3.11,2.48,0,4.24,1.41,4.39,3.32h-2.27c-.15-1.22-1.09-1.62-2.12-1.62s-1.79.44-1.79,1.22c0,.69.59.92,1.93,1.24l1.43.32c2.27.5,3.02,1.64,3.02,3.21,0,2.04-1.89,3.23-4.3,3.23Z"/>
          <path class="cls-2" d="M216.09,155.83c-1.64,0-2.48-.78-2.48-2.31v-6.49h-1.74v-1.7h1.74v-2.39h2.29v2.39h2.5v1.7h-2.5v5.96c0,.88.31,1.13,1.11,1.13h1.3v1.7h-2.23Z"/>
          <path class="cls-2" d="M224.51,156.04c-3.13,0-4.96-2.56-4.96-5.46s1.78-5.46,4.91-5.46,5.19,2.54,4.87,6.19h-7.5c.1,1.91,1.22,3.02,2.81,3.02,1.37,0,1.95-.92,2.21-1.76h2.29c-.44,2.08-2.08,3.46-4.64,3.46ZM221.87,149.62h5.19c-.15-1.7-1.05-2.79-2.58-2.79s-2.46,1.09-2.6,2.79Z"/>
          <path class="cls-2" d="M231.57,155.83v-10.5h2.22v2.06h.04c.44-1.47,1.53-2.27,3.15-2.27v2.29h-.36c-1.95,0-2.77.57-2.77,2.48v5.94h-2.29Z"/>
          <path class="cls-2" d="M243.5,155.83v-14.49h4.64l3.42,14.03,3.42-14.03h4.64v14.49h-2.37v-14.03l-3.4,14.03h-4.58l-3.4-14.03v14.03h-2.37Z"/>
          <path class="cls-2" d="M265.84,156.04c-2.18,0-3.72-1.37-3.72-3.28,0-2.16,1.89-2.96,4.22-3.21l2.67-.27v-.32c0-1.41-.8-2.14-2.12-2.14s-2.04.65-2.1,1.83h-2.29c.08-2.04,1.72-3.53,4.43-3.53s4.37,1.43,4.37,4.26v6.45h-2.2v-2.06h-.06c-.44,1.45-1.62,2.27-3.19,2.27ZM266.43,154.34c1.64,0,2.58-1.11,2.58-3.11v-.36l-2.29.25c-1.39.15-2.18.65-2.18,1.66s.88,1.55,1.89,1.55Z"/>
          <path class="cls-2" d="M277.12,155.83c-1.64,0-2.48-.78-2.48-2.31v-6.49h-1.74v-1.7h1.74v-2.39h2.29v2.39h2.5v1.7h-2.5v5.96c0,.88.32,1.13,1.11,1.13h1.3v1.7h-2.23Z"/>
          <path class="cls-2" d="M285.54,156.04c-3.13,0-4.96-2.56-4.96-5.46s1.78-5.46,4.91-5.46,5.19,2.54,4.87,6.19h-7.5c.1,1.91,1.22,3.02,2.81,3.02,1.37,0,1.95-.92,2.21-1.76h2.29c-.44,2.08-2.08,3.46-4.64,3.46ZM282.89,149.62h5.19c-.15-1.7-1.05-2.79-2.58-2.79s-2.46,1.09-2.6,2.79Z"/>
          <path class="cls-2" d="M292.6,155.83v-10.5h2.22v2.06h.04c.44-1.47,1.53-2.27,3.15-2.27v2.29h-.36c-1.95,0-2.77.57-2.77,2.48v5.94h-2.29Z"/>
          <path class="cls-2" d="M299.71,143.68v-2.33h2.44v2.33h-2.44ZM299.78,155.83v-10.5h2.29v10.5h-2.29Z"/>
          <path class="cls-2" d="M307.92,156.04c-2.18,0-3.72-1.37-3.72-3.28,0-2.16,1.89-2.96,4.22-3.21l2.67-.27v-.32c0-1.41-.8-2.14-2.12-2.14s-2.04.65-2.1,1.83h-2.29c.08-2.04,1.72-3.53,4.43-3.53s4.37,1.43,4.37,4.26v6.45h-2.21v-2.06h-.06c-.44,1.45-1.62,2.27-3.19,2.27ZM308.51,154.34c1.64,0,2.58-1.11,2.58-3.11v-.36l-2.29.25c-1.39.15-2.18.65-2.18,1.66s.88,1.55,1.89,1.55Z"/>
          <path class="cls-2" d="M316.09,141.35h2.29v14.49h-2.29v-14.49Z"/>
          <path class="cls-2" d="M321.13,143.68v-2.33h2.44v2.33h-2.44ZM321.2,155.83v-10.5h2.29v10.5h-2.29Z"/>
          <path class="cls-2" d="M330.67,156.04c-3.13,0-4.96-2.56-4.96-5.46s1.79-5.46,4.91-5.46,5.19,2.54,4.87,6.19h-7.5c.11,1.91,1.22,3.02,2.81,3.02,1.36,0,1.95-.92,2.2-1.76h2.29c-.44,2.08-2.08,3.46-4.64,3.46ZM328.02,149.62h5.19c-.15-1.7-1.05-2.79-2.58-2.79s-2.46,1.09-2.6,2.79Z"/>
          <path class="cls-2" d="M337.72,155.83v-10.5h2.23v2.06h.04c.44-1.47,1.53-2.27,3.07-2.27,2.31,0,3.44,1.57,3.44,3.88v6.82h-2.29v-6.15c0-1.95-.69-2.83-2.1-2.83s-2.1.97-2.1,2.69v6.3h-2.29Z"/>
        </g>
        <g>
          <path class="cls-2" d="M40.79,182.04c-2.33,0-3.46-1.57-3.46-3.88v-6.82h2.29v6.13c0,1.95.67,2.83,2.04,2.83s2.06-.97,2.06-2.69v-6.28h2.29v10.5h-2.23v-2.06h-.04c-.44,1.45-1.43,2.27-2.94,2.27Z"/>
          <path class="cls-2" d="M48.81,181.83v-10.5h2.22v2.06h.04c.44-1.47,1.53-2.27,3.06-2.27,2.31,0,3.44,1.57,3.44,3.88v6.82h-2.29v-6.15c0-1.95-.69-2.83-2.1-2.83s-2.1.97-2.1,2.69v6.3h-2.29Z"/>
          <path class="cls-2" d="M64.16,182.04c-2.86,0-4.41-2.52-4.41-5.46s1.62-5.46,4.41-5.46c1.6,0,2.81.95,3.32,2.39h.06v-6.17h2.25v14.49h-2.25v-2.2h-.06c-.5,1.45-1.72,2.41-3.32,2.41ZM64.89,180.34c1.76,0,2.73-1.53,2.73-3.76s-.97-3.76-2.73-3.76-2.73,1.51-2.73,3.76.99,3.76,2.73,3.76Z"/>
          <path class="cls-2" d="M77.43,169.67v-2.33h2.44v2.33h-2.44ZM77.49,181.83v-10.5h2.29v10.5h-2.29Z"/>
          <path class="cls-2" d="M82.6,181.83v-10.5h2.23v2.06h.04c.44-1.47,1.53-2.27,3.07-2.27,2.31,0,3.44,1.57,3.44,3.88v6.82h-2.29v-6.15c0-1.95-.69-2.83-2.1-2.83s-2.1.97-2.1,2.69v6.3h-2.29Z"/>
          <path class="cls-2" d="M94.11,181.83v-10.5h2.23v2.06h.04c.44-1.47,1.53-2.27,3.07-2.27,2.31,0,3.44,1.57,3.44,3.88v6.82h-2.29v-6.15c0-1.95-.69-2.83-2.1-2.83s-2.1.97-2.1,2.69v6.3h-2.29Z"/>
          <path class="cls-2" d="M110.17,182.04c-3.19,0-5.14-2.62-5.14-5.46s1.95-5.46,5.14-5.46,5.14,2.62,5.14,5.46-1.95,5.46-5.14,5.46ZM110.17,180.34c1.76,0,2.75-1.53,2.75-3.76s-.99-3.76-2.75-3.76-2.73,1.51-2.73,3.76.99,3.76,2.73,3.76Z"/>
          <path class="cls-2" d="M119.28,181.83l-2.88-10.5h2.31l2.67,9.83,2.69-9.83h2.29l-2.86,10.5h-4.22Z"/>
          <path class="cls-2" d="M131.15,182.04c-2.18,0-3.72-1.37-3.72-3.28,0-2.16,1.89-2.96,4.22-3.21l2.67-.27v-.32c0-1.41-.8-2.14-2.12-2.14s-2.04.65-2.1,1.83h-2.29c.08-2.04,1.72-3.53,4.43-3.53s4.37,1.43,4.37,4.26v6.45h-2.21v-2.06h-.06c-.44,1.45-1.62,2.27-3.19,2.27ZM131.74,180.34c1.64,0,2.58-1.11,2.58-3.11v-.36l-2.29.25c-1.39.15-2.18.65-2.18,1.66s.88,1.55,1.89,1.55Z"/>
          <path class="cls-2" d="M142.4,181.83c-1.64,0-2.48-.78-2.48-2.31v-6.49h-1.74v-1.7h1.74v-2.39h2.29v2.39h2.5v1.7h-2.5v5.96c0,.88.32,1.13,1.11,1.13h1.3v1.7h-2.23Z"/>
          <path class="cls-2" d="M146.54,169.67v-2.33h2.44v2.33h-2.44ZM146.61,181.83v-10.5h2.29v10.5h-2.29Z"/>
          <path class="cls-2" d="M153.68,181.83l-2.88-10.5h2.31l2.67,9.83,2.69-9.83h2.29l-2.86,10.5h-4.22Z"/>
          <path class="cls-2" d="M166.83,182.04c-3.13,0-4.96-2.56-4.96-5.46s1.79-5.46,4.91-5.46,5.19,2.54,4.87,6.19h-7.5c.11,1.91,1.22,3.02,2.81,3.02,1.36,0,1.95-.92,2.2-1.76h2.29c-.44,2.08-2.08,3.46-4.64,3.46ZM164.18,175.62h5.19c-.15-1.7-1.05-2.79-2.58-2.79s-2.46,1.09-2.6,2.79Z"/>
          <path class="cls-2" d="M173.88,181.83v-10.5h2.23v2.06h.04c.44-1.47,1.53-2.27,3.15-2.27v2.29h-.36c-1.95,0-2.77.57-2.77,2.48v5.94h-2.29Z"/>
          <path class="cls-2" d="M188.35,181.83v-12.53h-4.7v-1.95h11.76v1.95h-4.68v12.53h-2.37Z"/>
          <path class="cls-2" d="M199.4,182.04c-3.13,0-4.96-2.56-4.96-5.46s1.79-5.46,4.91-5.46,5.19,2.54,4.87,6.19h-7.5c.11,1.91,1.22,3.02,2.81,3.02,1.36,0,1.95-.92,2.2-1.76h2.29c-.44,2.08-2.08,3.46-4.64,3.46ZM196.75,175.62h5.19c-.15-1.7-1.05-2.79-2.58-2.79s-2.46,1.09-2.6,2.79Z"/>
          <path class="cls-2" d="M210.93,182.04c-3.09,0-5.06-2.56-5.06-5.46s1.91-5.46,4.98-5.46c2.46,0,4.3,1.34,4.7,3.82h-2.31c-.25-1.34-1.11-2.12-2.35-2.12-1.7,0-2.6,1.57-2.6,3.76s.97,3.76,2.71,3.76c1.22,0,2.1-.82,2.33-2.16h2.33c-.4,2.48-2.27,3.86-4.72,3.86Z"/>
          <path class="cls-2" d="M217.71,181.83v-14.49h2.23v6.05h.04c.44-1.47,1.53-2.27,3.07-2.27,2.31,0,3.44,1.57,3.44,3.88v6.82h-2.29v-6.15c0-1.95-.69-2.83-2.1-2.83s-2.1.97-2.1,2.69v6.3h-2.29Z"/>
          <path class="cls-2" d="M229.22,181.83v-10.5h2.23v2.06h.04c.44-1.47,1.53-2.27,3.07-2.27,2.31,0,3.44,1.57,3.44,3.88v6.82h-2.29v-6.15c0-1.95-.69-2.83-2.1-2.83s-2.1.97-2.1,2.69v6.3h-2.29Z"/>
          <path class="cls-2" d="M240.66,169.67v-2.33h2.44v2.33h-2.44ZM240.72,181.83v-10.5h2.29v10.5h-2.29Z"/>
          <path class="cls-2" d="M248.12,176.35v5.48h-2.29v-14.49h2.29v8.31l4.33-4.33h2.83l-4.6,4.62,4.81,5.88h-2.88l-4.49-5.48Z"/>
        </g>
      </g>
    </g>
  </g>
</svg>