<?xml version="1.0" encoding="UTF-8"?>
<svg id="Layer_2" data-name="Layer 2" xmlns="http://www.w3.org/2000/svg" xmlns:xlink="http://www.w3.org/1999/xlink" viewBox="0 0 994 250">
  <defs>
    <style>
      .cls-1 {
        fill: none;
      }

      .cls-2 {
        clip-path: url(#clippath-1);
      }

      .cls-3 {
        fill: #fff;
      }

      .cls-4 {
        clip-path: url(#clippath);
      }
    </style>
    <clipPath id="clippath">
      <rect class="cls-1" width="994" height="250"/>
    </clipPath>
    <clipPath id="clippath-1">
      <rect class="cls-1" width="994" height="250"/>
    </clipPath>
  </defs>
  <g id="Layer_1-2" data-name="Layer 1">
    <g class="cls-4">
      <g class="cls-2">
        <g>
          <g>
            <path class="cls-3" d="M37.76,155.83v-14.49h4.39c4.64,0,7.52,2.75,7.52,7.24s-2.92,7.24-7.56,7.24h-4.35ZM40.14,143.3v10.58h1.97c3.25,0,5.08-2,5.08-5.29s-1.83-5.29-5.08-5.29h-1.97Z"/>
            <path class="cls-3" d="M56.56,156.04c-3.19,0-5.14-2.62-5.14-5.46s1.95-5.46,5.14-5.46,5.14,2.62,5.14,5.46-1.95,5.46-5.14,5.46ZM56.56,154.34c1.76,0,2.75-1.53,2.75-3.76s-.99-3.76-2.75-3.76-2.73,1.51-2.73,3.76.99,3.76,2.73,3.76Z"/>
            <path class="cls-3" d="M63.93,141.35h2.29v14.49h-2.29v-14.49Z"/>
            <path class="cls-3" d="M73.5,156.04c-3.09,0-5.06-2.56-5.06-5.46s1.91-5.46,4.98-5.46c2.46,0,4.3,1.34,4.7,3.82h-2.31c-.25-1.34-1.11-2.12-2.35-2.12-1.7,0-2.6,1.57-2.6,3.76s.97,3.76,2.71,3.76c1.22,0,2.1-.82,2.33-2.16h2.33c-.4,2.48-2.27,3.86-4.72,3.86Z"/>
            <path class="cls-3" d="M84.66,156.04c-3.13,0-4.96-2.56-4.96-5.46s1.78-5.46,4.91-5.46,5.19,2.54,4.87,6.19h-7.5c.1,1.91,1.22,3.02,2.81,3.02,1.36,0,1.95-.92,2.2-1.76h2.29c-.44,2.08-2.08,3.46-4.64,3.46ZM82.01,149.62h5.19c-.15-1.7-1.05-2.79-2.58-2.79s-2.46,1.09-2.6,2.79Z"/>
            <path class="cls-3" d="M98.58,155.83l-2.88-10.5h2.31l2.67,9.83,2.69-9.83h2.29l-2.86,10.5h-4.22Z"/>
            <path class="cls-3" d="M107.52,143.68v-2.33h2.44v2.33h-2.44ZM107.59,155.83v-10.5h2.29v10.5h-2.29Z"/>
            <path class="cls-3" d="M115.9,155.83c-1.64,0-2.48-.78-2.48-2.31v-6.49h-1.74v-1.7h1.74v-2.39h2.29v2.39h2.5v1.7h-2.5v5.96c0,.88.31,1.13,1.11,1.13h1.3v1.7h-2.23Z"/>
            <path class="cls-3" d="M123.15,156.04c-2.18,0-3.72-1.37-3.72-3.28,0-2.16,1.89-2.96,4.22-3.21l2.67-.27v-.32c0-1.41-.8-2.14-2.12-2.14s-2.04.65-2.1,1.83h-2.29c.08-2.04,1.72-3.53,4.43-3.53s4.37,1.43,4.37,4.26v6.45h-2.2v-2.06h-.06c-.44,1.45-1.62,2.27-3.19,2.27ZM123.74,154.34c1.64,0,2.58-1.11,2.58-3.11v-.36l-2.29.25c-1.39.15-2.18.65-2.18,1.66s.88,1.55,1.89,1.55Z"/>
            <path class="cls-3" d="M136.1,151.21v-1.7h7.81v1.7h-7.81Z"/>
            <path class="cls-3" d="M151.88,155.83v-14.49h2.37v14.49h-2.37Z"/>
            <path class="cls-3" d="M157.42,155.83v-14.49h2.23v6.05h.04c.44-1.47,1.53-2.27,3.07-2.27,2.31,0,3.44,1.57,3.44,3.88v6.82h-2.29v-6.15c0-1.95-.69-2.83-2.1-2.83s-2.1.97-2.1,2.69v6.3h-2.29Z"/>
            <path class="cls-3" d="M168.93,155.83v-10.5h2.23v2.06h.04c.44-1.47,1.53-2.27,3.15-2.27v2.29h-.36c-1.95,0-2.77.57-2.77,2.48v5.94h-2.29Z"/>
            <path class="cls-3" d="M181.93,155.83l-2.23-10.5h2.31l2.08,9.83,1.89-9.83h4.03l1.89,9.83,2.1-9.83h2.29l-2.23,10.5h-4.18l-1.89-9.83-1.89,9.83h-4.18Z"/>
            <path class="cls-3" d="M202.53,156.04c-3.13,0-4.96-2.56-4.96-5.46s1.78-5.46,4.91-5.46,5.19,2.54,4.87,6.19h-7.5c.1,1.91,1.22,3.02,2.81,3.02,1.36,0,1.95-.92,2.2-1.76h2.29c-.44,2.08-2.08,3.46-4.64,3.46ZM199.88,149.62h5.19c-.15-1.7-1.05-2.79-2.58-2.79s-2.46,1.09-2.6,2.79Z"/>
            <path class="cls-3" d="M209.58,155.83v-10.5h2.23v2.06h.04c.44-1.47,1.53-2.27,3.15-2.27v2.29h-.36c-1.95,0-2.77.57-2.77,2.48v5.94h-2.29Z"/>
            <path class="cls-3" d="M219.98,155.83c-1.64,0-2.48-.78-2.48-2.31v-6.49h-1.74v-1.7h1.74v-2.39h2.29v2.39h2.5v1.7h-2.5v5.96c0,.88.31,1.13,1.11,1.13h1.3v1.7h-2.23Z"/>
            <path class="cls-3" d="M226.15,155.83l-2.88-10.5h2.31l2.67,9.83,2.69-9.83h2.29l-2.86,10.5h-4.22Z"/>
            <path class="cls-3" d="M239.49,156.04c-3.19,0-5.14-2.62-5.14-5.46s1.95-5.46,5.14-5.46,5.14,2.62,5.14,5.46-1.95,5.46-5.14,5.46ZM239.49,154.34c1.76,0,2.75-1.53,2.75-3.76s-.99-3.76-2.75-3.76-2.73,1.51-2.73,3.76.99,3.76,2.73,3.76Z"/>
            <path class="cls-3" d="M246.86,141.35h2.29v14.49h-2.29v-14.49Z"/>
            <path class="cls-3" d="M251.96,141.35h2.29v14.49h-2.29v-14.49Z"/>
            <path class="cls-3" d="M260.99,156.04c-2.88,0-4.43-1.87-4.58-3.8h2.27c.13,1.34,1.2,2.1,2.33,2.1,1.03,0,1.99-.46,1.99-1.36,0-.59-.48-1.07-1.7-1.34l-1.43-.32c-2.06-.44-3.28-1.43-3.28-3.09,0-1.91,1.85-3.11,4.09-3.11,2.48,0,4.24,1.41,4.39,3.32h-2.27c-.15-1.22-1.09-1.62-2.12-1.62s-1.78.44-1.78,1.22c0,.69.59.92,1.93,1.24l1.43.32c2.27.5,3.02,1.64,3.02,3.21,0,2.04-1.89,3.23-4.3,3.23Z"/>
            <path class="cls-3" d="M270.59,155.83c-1.64,0-2.48-.78-2.48-2.31v-6.49h-1.74v-1.7h1.74v-2.39h2.29v2.39h2.5v1.7h-2.5v5.96c0,.88.31,1.13,1.11,1.13h1.3v1.7h-2.23Z"/>
            <path class="cls-3" d="M279.01,156.04c-3.13,0-4.96-2.56-4.96-5.46s1.78-5.46,4.91-5.46,5.19,2.54,4.87,6.19h-7.5c.1,1.91,1.22,3.02,2.81,3.02,1.36,0,1.95-.92,2.2-1.76h2.29c-.44,2.08-2.08,3.46-4.64,3.46ZM276.36,149.62h5.19c-.15-1.7-1.05-2.79-2.58-2.79s-2.46,1.09-2.6,2.79Z"/>
            <path class="cls-3" d="M289.99,156.04c-2.88,0-4.43-1.87-4.58-3.8h2.27c.13,1.34,1.2,2.1,2.33,2.1,1.03,0,1.99-.46,1.99-1.36,0-.59-.48-1.07-1.7-1.34l-1.43-.32c-2.06-.44-3.28-1.43-3.28-3.09,0-1.91,1.85-3.11,4.09-3.11,2.48,0,4.24,1.41,4.39,3.32h-2.27c-.15-1.22-1.09-1.62-2.12-1.62s-1.78.44-1.78,1.22c0,.69.59.92,1.93,1.24l1.43.32c2.27.5,3.02,1.64,3.02,3.21,0,2.04-1.89,3.23-4.3,3.23Z"/>
          </g>
          <g>
            <path class="cls-3" d="M37.76,181.83v-14.49h2.37v14.49h-2.37Z"/>
            <path class="cls-3" d="M43.31,181.83v-10.5h2.23v2.06h.04c.44-1.47,1.53-2.27,3.07-2.27,2.31,0,3.44,1.57,3.44,3.88v6.82h-2.29v-6.15c0-1.95-.69-2.83-2.1-2.83s-2.1.97-2.1,2.69v6.3h-2.29Z"/>
            <path class="cls-3" d="M56.62,181.83l-2.88-10.5h2.31l2.67,9.83,2.69-9.83h2.29l-2.86,10.5h-4.22Z"/>
            <path class="cls-3" d="M69.79,182.04c-3.13,0-4.96-2.56-4.96-5.46s1.78-5.46,4.91-5.46,5.19,2.54,4.87,6.19h-7.5c.1,1.91,1.22,3.02,2.81,3.02,1.36,0,1.95-.92,2.2-1.76h2.29c-.44,2.08-2.08,3.46-4.64,3.46ZM67.14,175.62h5.19c-.15-1.7-1.05-2.79-2.58-2.79s-2.46,1.09-2.6,2.79Z"/>
            <path class="cls-3" d="M80.77,182.04c-2.88,0-4.43-1.87-4.58-3.8h2.27c.13,1.34,1.2,2.1,2.33,2.1,1.03,0,1.99-.46,1.99-1.36,0-.59-.48-1.07-1.7-1.34l-1.43-.32c-2.06-.44-3.28-1.43-3.28-3.09,0-1.91,1.85-3.11,4.09-3.11,2.48,0,4.24,1.41,4.39,3.32h-2.27c-.15-1.22-1.09-1.62-2.12-1.62s-1.78.44-1.78,1.22c0,.69.59.92,1.93,1.24l1.43.32c2.27.5,3.02,1.64,3.02,3.21,0,2.04-1.89,3.23-4.3,3.23Z"/>
            <path class="cls-3" d="M90.35,181.83c-1.64,0-2.48-.78-2.48-2.31v-6.49h-1.74v-1.7h1.74v-2.39h2.29v2.39h2.5v1.7h-2.5v5.96c0,.88.31,1.13,1.11,1.13h1.3v1.7h-2.23Z"/>
            <path class="cls-3" d="M96.84,181.83h-2.29v-10.5h2.23v2.06h.04c.44-1.47,1.43-2.27,2.94-2.27,1.72,0,2.81.88,3.23,2.27h.04c.46-1.47,1.53-2.27,3.09-2.27,2.33,0,3.46,1.57,3.46,3.88v6.82h-2.29v-6.15c0-1.95-.65-2.83-2.04-2.83s-2.04.97-2.04,2.69v6.3h-2.29v-6.15c0-1.95-.67-2.83-2.04-2.83s-2.06.97-2.06,2.69v6.3Z"/>
            <path class="cls-3" d="M116.68,182.04c-3.13,0-4.96-2.56-4.96-5.46s1.78-5.46,4.91-5.46,5.19,2.54,4.87,6.19h-7.5c.1,1.91,1.22,3.02,2.81,3.02,1.36,0,1.95-.92,2.2-1.76h2.29c-.44,2.08-2.08,3.46-4.64,3.46ZM114.03,175.62h5.19c-.15-1.7-1.05-2.79-2.58-2.79s-2.46,1.09-2.6,2.79Z"/>
            <path class="cls-3" d="M123.74,181.83v-10.5h2.23v2.06h.04c.44-1.47,1.53-2.27,3.07-2.27,2.31,0,3.44,1.57,3.44,3.88v6.82h-2.29v-6.15c0-1.95-.69-2.83-2.1-2.83s-2.1.97-2.1,2.69v6.3h-2.29Z"/>
            <path class="cls-3" d="M138.39,181.83c-1.64,0-2.48-.78-2.48-2.31v-6.49h-1.74v-1.7h1.74v-2.39h2.29v2.39h2.5v1.7h-2.5v5.96c0,.88.31,1.13,1.11,1.13h1.3v1.7h-2.23Z"/>
          </g>
        </g>
      </g>
    </g>
  </g>
</svg>