<?xml version="1.0" encoding="UTF-8"?>
<svg id="Layer_2" data-name="Layer 2" xmlns="http://www.w3.org/2000/svg" xmlns:xlink="http://www.w3.org/1999/xlink" viewBox="0 0 994 250">
  <defs>
    <style>
      .cls-1 {
        fill: none;
      }

      .cls-2 {
        clip-path: url(#clippath-1);
      }

      .cls-3 {
        fill: #fff;
      }

      .cls-4 {
        clip-path: url(#clippath);
      }
    </style>
    <clipPath id="clippath">
      <rect class="cls-1" width="994" height="250"/>
    </clipPath>
    <clipPath id="clippath-1">
      <rect class="cls-1" width="994" height="250"/>
    </clipPath>
  </defs>
  <g id="Layer_1-2" data-name="Layer 1">
    <g class="cls-4">
      <g class="cls-2">
        <g>
          <g>
            <path class="cls-3" d="M37.76,155.83v-14.49h2.37v6.63l5.96-6.63h3.04l-6.24,6.93,6.87,7.56h-3.04l-6.59-7.26v7.26h-2.37Z"/>
            <path class="cls-3" d="M50.99,141.35h2.29v14.49h-2.29v-14.49Z"/>
            <path class="cls-3" d="M59.14,156.04c-2.18,0-3.72-1.37-3.72-3.28,0-2.16,1.89-2.96,4.22-3.21l2.67-.27v-.32c0-1.41-.8-2.14-2.12-2.14s-2.04.65-2.1,1.83h-2.29c.08-2.04,1.72-3.53,4.43-3.53s4.37,1.43,4.37,4.26v6.45h-2.21v-2.06h-.06c-.44,1.45-1.62,2.27-3.19,2.27ZM59.73,154.34c1.64,0,2.58-1.11,2.58-3.11v-.36l-2.29.25c-1.39.15-2.18.65-2.18,1.66s.88,1.55,1.89,1.55Z"/>
            <path class="cls-3" d="M71.24,156.04c-2.88,0-4.43-1.87-4.58-3.8h2.27c.13,1.34,1.2,2.1,2.33,2.1,1.03,0,1.99-.46,1.99-1.36,0-.59-.48-1.07-1.7-1.34l-1.43-.32c-2.06-.44-3.28-1.43-3.28-3.09,0-1.91,1.85-3.11,4.09-3.11,2.48,0,4.24,1.41,4.39,3.32h-2.27c-.15-1.22-1.09-1.62-2.12-1.62s-1.78.44-1.78,1.22c0,.69.59.92,1.93,1.24l1.43.32c2.27.5,3.02,1.64,3.02,3.21,0,2.04-1.89,3.23-4.3,3.23Z"/>
            <path class="cls-3" d="M81.67,156.04c-2.88,0-4.43-1.87-4.58-3.8h2.27c.13,1.34,1.2,2.1,2.33,2.1,1.03,0,1.99-.46,1.99-1.36,0-.59-.48-1.07-1.7-1.34l-1.43-.32c-2.06-.44-3.28-1.43-3.28-3.09,0-1.91,1.85-3.11,4.09-3.11,2.48,0,4.24,1.41,4.39,3.32h-2.27c-.15-1.22-1.09-1.62-2.12-1.62s-1.78.44-1.78,1.22c0,.69.59.92,1.93,1.24l1.43.32c2.27.5,3.02,1.64,3.02,3.21,0,2.04-1.89,3.23-4.3,3.23Z"/>
            <path class="cls-3" d="M92.55,156.04c-3.13,0-4.96-2.56-4.96-5.46s1.79-5.46,4.91-5.46,5.19,2.54,4.87,6.19h-7.5c.11,1.91,1.22,3.02,2.81,3.02,1.36,0,1.95-.92,2.2-1.76h2.29c-.44,2.08-2.08,3.46-4.64,3.46ZM89.91,149.62h5.19c-.15-1.7-1.05-2.79-2.58-2.79s-2.46,1.09-2.6,2.79Z"/>
            <path class="cls-3" d="M99.61,155.83v-10.5h2.23v2.06h.04c.44-1.47,1.53-2.27,3.07-2.27,2.31,0,3.44,1.57,3.44,3.88v6.82h-2.29v-6.15c0-1.95-.69-2.83-2.1-2.83s-2.1.97-2.1,2.69v6.3h-2.29Z"/>
            <path class="cls-3" d="M116.74,156.04c-1.6,0-2.81-.97-3.32-2.41h-.06v2.2h-2.25v-14.49h2.25v6.17h.06c.5-1.45,1.72-2.39,3.32-2.39,2.79,0,4.41,2.52,4.41,5.46s-1.55,5.46-4.41,5.46ZM116.01,154.34c1.74,0,2.73-1.53,2.73-3.76s-.99-3.76-2.73-3.76-2.73,1.51-2.73,3.76.97,3.76,2.73,3.76Z"/>
            <path class="cls-3" d="M127.79,156.04c-3.13,0-4.96-2.56-4.96-5.46s1.78-5.46,4.91-5.46,5.19,2.54,4.87,6.19h-7.5c.1,1.91,1.22,3.02,2.81,3.02,1.37,0,1.95-.92,2.21-1.76h2.29c-.44,2.08-2.08,3.46-4.64,3.46ZM125.14,149.62h5.19c-.15-1.7-1.05-2.79-2.58-2.79s-2.46,1.09-2.6,2.79Z"/>
            <path class="cls-3" d="M138.77,156.04c-2.88,0-4.43-1.87-4.58-3.8h2.27c.13,1.34,1.2,2.1,2.33,2.1,1.03,0,1.99-.46,1.99-1.36,0-.59-.48-1.07-1.7-1.34l-1.43-.32c-2.06-.44-3.28-1.43-3.28-3.09,0-1.91,1.85-3.11,4.09-3.11,2.48,0,4.24,1.41,4.39,3.32h-2.27c-.15-1.22-1.09-1.62-2.12-1.62s-1.78.44-1.78,1.22c0,.69.59.92,1.93,1.24l1.43.32c2.27.5,3.02,1.64,3.02,3.21,0,2.04-1.89,3.23-4.3,3.23Z"/>
            <path class="cls-3" d="M148.35,155.83c-1.64,0-2.48-.78-2.48-2.31v-6.49h-1.74v-1.7h1.74v-2.39h2.29v2.39h2.5v1.7h-2.5v5.96c0,.88.32,1.13,1.11,1.13h1.3v1.7h-2.23Z"/>
            <path class="cls-3" d="M156.79,156.04c-3.13,0-4.96-2.56-4.96-5.46s1.79-5.46,4.91-5.46,5.19,2.54,4.87,6.19h-7.5c.11,1.91,1.22,3.02,2.81,3.02,1.36,0,1.95-.92,2.2-1.76h2.29c-.44,2.08-2.08,3.46-4.64,3.46ZM154.14,149.62h5.19c-.15-1.7-1.05-2.79-2.58-2.79s-2.46,1.09-2.6,2.79Z"/>
            <path class="cls-3" d="M163.85,155.83v-10.5h2.23v2.06h.04c.44-1.47,1.53-2.27,3.15-2.27v2.29h-.36c-1.95,0-2.77.57-2.77,2.48v5.94h-2.29Z"/>
            <path class="cls-3" d="M175.38,143.68v-2.33h2.44v2.33h-2.44ZM175.44,155.83v-10.5h2.29v10.5h-2.29Z"/>
            <path class="cls-3" d="M182.83,155.83h-2.29v-10.5h2.22v2.06h.04c.44-1.47,1.43-2.27,2.94-2.27,1.72,0,2.81.88,3.23,2.27h.04c.46-1.47,1.53-2.27,3.09-2.27,2.33,0,3.46,1.57,3.46,3.88v6.82h-2.29v-6.15c0-1.95-.65-2.83-2.04-2.83s-2.04.97-2.04,2.69v6.3h-2.29v-6.15c0-1.95-.67-2.83-2.04-2.83s-2.06.97-2.06,2.69v6.3Z"/>
            <path class="cls-3" d="M203.56,155.83v-14.49h4.68c3.63,0,5.33,1.3,5.33,3.91,0,1.72-1.32,2.73-2.81,3.02v.06c2.35.19,3.51,1.43,3.51,3.34,0,2.62-1.83,4.16-5.4,4.16h-5.31ZM205.93,143.3v4.05h2.35c1.95,0,2.81-.74,2.81-2.04s-.71-2.02-2.67-2.02h-2.5ZM205.93,149.3v4.58h2.98c2.1,0,2.88-.86,2.88-2.29s-.97-2.29-3.07-2.29h-2.79Z"/>
            <path class="cls-3" d="M220.92,156.04c-3.13,0-4.96-2.56-4.96-5.46s1.79-5.46,4.91-5.46,5.19,2.54,4.87,6.19h-7.5c.11,1.91,1.22,3.02,2.81,3.02,1.36,0,1.95-.92,2.2-1.76h2.29c-.44,2.08-2.08,3.46-4.64,3.46ZM218.28,149.62h5.19c-.15-1.7-1.05-2.79-2.58-2.79s-2.46,1.09-2.6,2.79Z"/>
            <path class="cls-3" d="M227.98,155.83v-10.5h2.23v2.06h.04c.44-1.47,1.53-2.27,3.15-2.27v2.29h-.36c-1.95,0-2.77.57-2.77,2.48v5.94h-2.29Z"/>
            <path class="cls-3" d="M239.25,156.04c-3.13,0-4.96-2.56-4.96-5.46s1.79-5.46,4.91-5.46,5.19,2.54,4.87,6.19h-7.5c.11,1.91,1.22,3.02,2.81,3.02,1.36,0,1.95-.92,2.2-1.76h2.29c-.44,2.08-2.08,3.46-4.64,3.46ZM236.61,149.62h5.19c-.15-1.7-1.05-2.79-2.58-2.79s-2.46,1.09-2.6,2.79Z"/>
            <path class="cls-3" d="M246.25,143.68v-2.33h2.44v2.33h-2.44ZM246.31,155.83v-10.5h2.29v10.5h-2.29Z"/>
            <path class="cls-3" d="M255.89,156.04c-3.09,0-5.06-2.56-5.06-5.46s1.91-5.46,4.98-5.46c2.46,0,4.3,1.34,4.7,3.82h-2.31c-.25-1.34-1.11-2.12-2.35-2.12-1.7,0-2.6,1.57-2.6,3.76s.97,3.76,2.71,3.76c1.22,0,2.1-.82,2.33-2.16h2.33c-.4,2.48-2.27,3.86-4.72,3.86Z"/>
            <path class="cls-3" d="M262.67,155.83v-14.49h2.23v6.05h.04c.44-1.47,1.53-2.27,3.07-2.27,2.31,0,3.44,1.57,3.44,3.88v6.82h-2.29v-6.15c0-1.95-.69-2.83-2.1-2.83s-2.1.97-2.1,2.69v6.3h-2.29Z"/>
          </g>
          <g>
            <path class="cls-3" d="M37.76,181.83v-14.49h4.96c3.63,0,5.9,1.64,5.9,4.43s-2.27,4.45-5.9,4.45h-2.58v5.61h-2.37ZM40.14,169.3v4.98h2.81c2.04,0,3.19-.9,3.19-2.5s-1.15-2.48-3.19-2.48h-2.81Z"/>
            <path class="cls-3" d="M50.53,167.34h2.29v14.49h-2.29v-14.49Z"/>
            <path class="cls-3" d="M58.68,182.04c-2.18,0-3.72-1.37-3.72-3.28,0-2.16,1.89-2.96,4.22-3.21l2.67-.27v-.32c0-1.41-.8-2.14-2.12-2.14s-2.04.65-2.1,1.83h-2.29c.08-2.04,1.72-3.53,4.43-3.53s4.37,1.43,4.37,4.26v6.45h-2.2v-2.06h-.06c-.44,1.45-1.62,2.27-3.19,2.27ZM59.27,180.34c1.64,0,2.58-1.11,2.58-3.11v-.36l-2.29.25c-1.39.15-2.18.65-2.18,1.66s.88,1.55,1.89,1.55Z"/>
            <path class="cls-3" d="M69.96,181.83c-1.64,0-2.48-.78-2.48-2.31v-6.49h-1.74v-1.7h1.74v-2.39h2.29v2.39h2.5v1.7h-2.5v5.96c0,.88.31,1.13,1.11,1.13h1.3v1.7h-2.23Z"/>
            <path class="cls-3" d="M73.53,181.83v-1.64l5.25-7.16h-5.12v-1.7h7.92v1.64l-5.25,7.16h5.46v1.7h-8.25Z"/>
            <path class="cls-3" d="M86.99,182.04c-2.18,0-3.72-1.37-3.72-3.28,0-2.16,1.89-2.96,4.22-3.21l2.67-.27v-.32c0-1.41-.8-2.14-2.12-2.14s-2.04.65-2.1,1.83h-2.29c.08-2.04,1.72-3.53,4.43-3.53s4.37,1.43,4.37,4.26v6.45h-2.21v-2.06h-.06c-.44,1.45-1.62,2.27-3.19,2.27ZM87.57,180.34c1.64,0,2.58-1.11,2.58-3.11v-.36l-2.29.25c-1.39.15-2.18.65-2.18,1.66s.88,1.55,1.89,1.55Z"/>
            <path class="cls-3" d="M95.16,181.83v-10.5h2.22v2.06h.04c.44-1.47,1.53-2.27,3.06-2.27,2.31,0,3.44,1.57,3.44,3.88v6.82h-2.29v-6.15c0-1.95-.69-2.83-2.1-2.83s-2.1.97-2.1,2.69v6.3h-2.29Z"/>
            <path class="cls-3" d="M111.45,185.61c-2.56,0-4.45-1.13-4.68-3.42h2.27c.21,1.3,1.3,1.72,2.42,1.72,1.41,0,2.46-.76,2.46-2.52v-2.18h-.06c-.5,1.45-1.72,2.41-3.32,2.41-2.79,0-4.41-2.31-4.41-5.25s1.62-5.25,4.41-5.25c1.6,0,2.81.95,3.32,2.39h.06v-2.18h2.25v9.99c0,2.79-1.95,4.28-4.7,4.28ZM111.26,179.92c1.72,0,2.73-1.32,2.73-3.55s-1.01-3.55-2.73-3.55-2.73,1.3-2.73,3.55,1.01,3.55,2.73,3.55Z"/>
            <path class="cls-3" d="M123.34,182.04c-3.13,0-4.96-2.56-4.96-5.46s1.78-5.46,4.91-5.46,5.19,2.54,4.87,6.19h-7.5c.1,1.91,1.22,3.02,2.81,3.02,1.37,0,1.95-.92,2.21-1.76h2.29c-.44,2.08-2.08,3.46-4.64,3.46ZM120.69,175.62h5.19c-.15-1.7-1.05-2.79-2.58-2.79s-2.46,1.09-2.6,2.79Z"/>
            <path class="cls-3" d="M136.02,182.04c-1.6,0-2.81-.97-3.32-2.41h-.06v2.2h-2.25v-14.49h2.25v6.17h.06c.5-1.45,1.72-2.39,3.32-2.39,2.79,0,4.41,2.52,4.41,5.46s-1.55,5.46-4.41,5.46ZM135.29,180.34c1.74,0,2.73-1.53,2.73-3.76s-.99-3.76-2.73-3.76-2.73,1.51-2.73,3.76.97,3.76,2.73,3.76Z"/>
            <path class="cls-3" d="M147.26,182.04c-3.19,0-5.14-2.62-5.14-5.46s1.95-5.46,5.14-5.46,5.14,2.62,5.14,5.46-1.95,5.46-5.14,5.46ZM147.26,180.34c1.76,0,2.75-1.53,2.75-3.76s-.99-3.76-2.75-3.76-2.73,1.51-2.73,3.76.99,3.76,2.73,3.76Z"/>
            <path class="cls-3" d="M157.63,181.83c-1.64,0-2.48-.78-2.48-2.31v-6.49h-1.74v-1.7h1.74v-2.39h2.29v2.39h2.5v1.7h-2.5v5.96c0,.88.31,1.13,1.11,1.13h1.3v1.7h-2.23Z"/>
          </g>
        </g>
      </g>
    </g>
  </g>
</svg>