<?xml version="1.0" encoding="UTF-8"?>
<svg id="Layer_2" data-name="Layer 2" xmlns="http://www.w3.org/2000/svg" xmlns:xlink="http://www.w3.org/1999/xlink" viewBox="0 0 994 250">
  <defs>
    <style>
      .cls-1 {
        fill: none;
      }

      .cls-2 {
        clip-path: url(#clippath-1);
      }

      .cls-3 {
        fill: #fff;
      }

      .cls-4 {
        clip-path: url(#clippath);
      }
    </style>
    <clipPath id="clippath">
      <rect class="cls-1" width="994" height="250"/>
    </clipPath>
    <clipPath id="clippath-1">
      <rect class="cls-1" width="994" height="250"/>
    </clipPath>
  </defs>
  <g id="Layer_1-2" data-name="Layer 1">
    <g class="cls-4">
      <g class="cls-2">
        <g>
          <g>
            <path class="cls-3" d="M44.11,120.86h2.25v8.97h-1.12v-8.92l-2.3,8.92h-2.31l-2.3-8.92v8.92h-1.12v-8.97h2.25l2.33,8.92,2.33-8.92Z"/>
            <path class="cls-3" d="M50.92,124.06c-.99,0-1.48.56-1.52,1.33h-1.08c.08-1.2.95-2.18,2.6-2.18,1.44,0,2.63.71,2.63,2.68v3.95h-1.04v-1.27h-.03c-.34.9-1.1,1.4-2.12,1.4-1.25,0-2.26-.75-2.26-2.01,0-1.34,1.17-1.77,2.55-1.91l1.82-.2v-.21c0-.97-.53-1.57-1.55-1.57ZM52.47,127.01v-.35l-1.73.19c-.98.1-1.47.46-1.47,1.14,0,.65.58,1.11,1.35,1.11,1.14,0,1.85-.69,1.85-2.09Z"/>
            <path class="cls-3" d="M58.05,127.12l-.87-.2c-1.25-.27-2-.83-2-1.86,0-1.08,1.03-1.86,2.42-1.86,1.48,0,2.52.86,2.61,2.05h-1.08c-.09-.75-.62-1.2-1.53-1.2-.75,0-1.37.3-1.37.9,0,.53.39.71,1.37.94l.87.2c1.25.29,1.87.92,1.87,1.98,0,1.12-.91,1.9-2.6,1.9s-2.68-1.18-2.76-2.41h1.08c.06.9.74,1.55,1.72,1.55.83,0,1.52-.36,1.52-.98,0-.43-.26-.79-1.25-1.01Z"/>
            <path class="cls-3" d="M64.51,129.96c-1.94,0-3.02-1.57-3.02-3.38s1.03-3.38,2.96-3.38,3.11,1.52,2.93,3.71h-4.8c.05,1.35.83,2.2,2.03,2.2,1.13,0,1.47-.79,1.61-1.33h1.08c-.23,1.16-1.01,2.18-2.79,2.18ZM62.58,126.05h3.73c-.09-1.17-.72-1.99-1.86-1.99s-1.77.82-1.87,1.99Z"/>
            <path class="cls-3" d="M70.05,129.83h-1.08v-6.5h1.04v1.27h.03c.34-.9,1-1.4,1.96-1.4v1.17h-.23c-1.05,0-1.72.39-1.72,1.56v3.9Z"/>
            <path class="cls-3" d="M75.48,124.06c-.99,0-1.48.56-1.52,1.33h-1.08c.08-1.2.95-2.18,2.6-2.18,1.44,0,2.63.71,2.63,2.68v3.95h-1.04v-1.27h-.03c-.34.9-1.1,1.4-2.12,1.4-1.25,0-2.26-.75-2.26-2.01,0-1.34,1.17-1.77,2.55-1.91l1.82-.2v-.21c0-.97-.53-1.57-1.55-1.57ZM77.03,127.01v-.35l-1.73.19c-.98.1-1.47.46-1.47,1.14,0,.65.58,1.11,1.35,1.11,1.14,0,1.85-.69,1.85-2.09Z"/>
            <path class="cls-3" d="M79.21,124.19v-.86h1.18v-1.48h1.08v1.48h1.65v.86h-1.65v4.07c0,.51.18.71.73.71h.87v.86h-1.17c-1.09,0-1.51-.52-1.51-1.46v-4.19h-1.18Z"/>
            <path class="cls-3" d="M84.33,120.86h1.26v1.26h-1.26v-1.26ZM85.5,129.83h-1.08v-6.5h1.08v6.5Z"/>
            <path class="cls-3" d="M97.22,126.15h-3.04v-.94h4.19v4.62h-1.07v-1.91h-.03c-.36,1.01-1.27,2.04-2.83,2.04-2.48,0-4.08-2.05-4.08-4.62s1.53-4.62,4.13-4.62c2.25,0,3.55,1.47,3.78,3.02h-1.16c-.18-1.07-.96-2.08-2.55-2.08-1.95,0-3,1.53-3,3.68s1.09,3.68,3.04,3.68c1.72,0,2.61-1.13,2.61-2.5v-.38Z"/>
            <path class="cls-3" d="M101.23,129.83h-1.08v-6.5h1.04v1.27h.03c.34-.9,1-1.4,1.96-1.4v1.17h-.23c-1.05,0-1.72.39-1.72,1.56v3.9Z"/>
            <path class="cls-3" d="M106.86,129.96c-1.94,0-3.02-1.57-3.02-3.38s1.03-3.38,2.96-3.38,3.11,1.52,2.93,3.71h-4.8c.05,1.35.83,2.2,2.03,2.2,1.13,0,1.47-.79,1.61-1.33h1.08c-.23,1.16-1.01,2.18-2.79,2.18ZM104.94,126.05h3.73c-.09-1.17-.72-1.99-1.86-1.99s-1.77.82-1.87,1.99Z"/>
            <path class="cls-3" d="M113.93,123.2c1.57,0,2.56.81,2.85,2.3h-1.08c-.19-1.05-.84-1.44-1.7-1.44-1.23,0-1.9,1.14-1.9,2.52s.7,2.52,1.98,2.52c.83,0,1.5-.42,1.69-1.47h1.08c-.29,1.5-1.29,2.33-2.86,2.33-1.87,0-3.06-1.57-3.06-3.38s1.17-3.38,3-3.38Z"/>
            <path class="cls-3" d="M120.67,124.06c-.99,0-1.48.56-1.52,1.33h-1.08c.08-1.2.95-2.18,2.6-2.18,1.44,0,2.63.71,2.63,2.68v3.95h-1.04v-1.27h-.03c-.34.9-1.1,1.4-2.12,1.4-1.25,0-2.26-.75-2.26-2.01,0-1.34,1.17-1.77,2.55-1.91l1.82-.2v-.21c0-.97-.53-1.57-1.55-1.57ZM122.21,127.01v-.35l-1.73.19c-.97.1-1.47.46-1.47,1.14,0,.65.58,1.11,1.35,1.11,1.14,0,1.85-.69,1.85-2.09Z"/>
            <path class="cls-3" d="M125.2,120.86h1.08v8.97h-1.08v-8.97Z"/>
            <path class="cls-3" d="M130.89,129.96c-1.94,0-3.02-1.57-3.02-3.38s1.03-3.38,2.96-3.38,3.11,1.52,2.93,3.71h-4.8c.05,1.35.83,2.2,2.03,2.2,1.13,0,1.47-.79,1.61-1.33h1.08c-.23,1.16-1.01,2.18-2.79,2.18ZM128.96,126.05h3.73c-.09-1.17-.72-1.99-1.86-1.99s-1.77.82-1.87,1.99Z"/>
            <path class="cls-3" d="M140.91,124.06c-.99,0-1.48.56-1.52,1.33h-1.08c.08-1.2.95-2.18,2.6-2.18,1.44,0,2.63.71,2.63,2.68v3.95h-1.04v-1.27h-.03c-.34.9-1.1,1.4-2.12,1.4-1.25,0-2.26-.75-2.26-2.01,0-1.34,1.17-1.77,2.55-1.91l1.82-.2v-.21c0-.97-.53-1.57-1.55-1.57ZM142.46,127.01v-.35l-1.73.19c-.98.1-1.47.46-1.47,1.14,0,.65.58,1.11,1.35,1.11,1.14,0,1.85-.69,1.85-2.09Z"/>
            <path class="cls-3" d="M148.72,129.96c-1.03,0-1.81-.57-2.17-1.51h-.03v1.38h-1.08v-8.97h1.08v3.85h.03c.36-.94,1.14-1.51,2.17-1.51,1.85,0,2.79,1.59,2.79,3.38s-.95,3.38-2.79,3.38ZM148.4,124.06c-1.25,0-1.92,1.08-1.92,2.52s.68,2.52,1.92,2.52,1.95-1.08,1.95-2.52-.7-2.52-1.95-2.52Z"/>
            <path class="cls-3" d="M160.07,120.73c2.05,0,3.54,1.33,3.9,3.33h-1.16c-.3-1.51-1.29-2.39-2.69-2.39-1.76,0-2.93,1.53-2.93,3.68s1.22,3.68,3.03,3.68c1.35,0,2.37-.86,2.67-2.37h1.16c-.36,2-1.87,3.3-3.93,3.3-2.42,0-4.13-1.9-4.13-4.62,0-2.56,1.66-4.62,4.08-4.62Z"/>
            <path class="cls-3" d="M172.28,120.86v8.97h-1.12v-4.11h-4.26v4.11h-1.12v-8.97h1.12v3.93h4.26v-3.93h1.12Z"/>
            <path class="cls-3" d="M174.69,120.86h5.64v.94h-4.52v3.04h4.45v.94h-4.45v4.06h-1.12v-8.97Z"/>
            <path class="cls-3" d="M184.51,127.36c0-1.37,1.2-2.11,2.02-2.3v-.03c-.74-.26-1.68-.81-1.68-1.99,0-1.33,1.27-2.31,2.99-2.31s2.99.99,2.99,2.31c0,1.18-.94,1.73-1.68,1.99v.03c.82.2,2.02.94,2.02,2.3,0,1.66-1.61,2.6-3.33,2.6s-3.33-.94-3.33-2.6ZM190,127.27c0-1.04-.92-1.77-2.16-1.77s-2.16.73-2.16,1.77.92,1.83,2.16,1.83,2.16-.79,2.16-1.83ZM189.66,123.07c0-.81-.66-1.48-1.82-1.48s-1.82.68-1.82,1.48.75,1.52,1.82,1.52,1.82-.71,1.82-1.52Z"/>
            <path class="cls-3" d="M192.49,127.36c0-1.37,1.2-2.11,2.02-2.3v-.03c-.74-.26-1.68-.81-1.68-1.99,0-1.33,1.27-2.31,2.99-2.31s2.99.99,2.99,2.31c0,1.18-.94,1.73-1.68,1.99v.03c.82.2,2.02.94,2.02,2.3,0,1.66-1.61,2.6-3.33,2.6s-3.33-.94-3.33-2.6ZM197.98,127.27c0-1.04-.92-1.77-2.16-1.77s-2.16.73-2.16,1.77.92,1.83,2.16,1.83,2.16-.79,2.16-1.83ZM197.64,123.07c0-.81-.66-1.48-1.82-1.48s-1.82.68-1.82,1.48.75,1.52,1.82,1.52,1.82-.71,1.82-1.52Z"/>
            <path class="cls-3" d="M200.43,127.13h1.08c.13,1.05.58,1.98,2.05,1.98.99,0,1.68-.62,1.68-1.6,0-1.4-.91-1.83-2.76-1.88v-.86c1.78-.05,2.59-.43,2.59-1.72,0-.83-.56-1.46-1.64-1.46-1.16,0-1.72.66-1.82,1.74h-1.08c.18-1.74,1.42-2.6,2.82-2.6,1.7,0,2.89.87,2.89,2.41,0,1.13-.95,1.85-2.09,2.04v.03c1.22.21,2.26.82,2.26,2.2,0,1.62-1.3,2.56-2.95,2.56s-2.83-.99-3.03-2.83Z"/>
            <path class="cls-3" d="M208.01,128.57h1.26v1.26h-1.26v-1.26Z"/>
            <path class="cls-3" d="M210.92,126.88v-.86h4.71v.86h-4.71Z"/>
          </g>
          <path class="cls-3" d="M218.47,129.83l3.83-8.97h1.13l-3.84,8.97h-1.13Z"/>
          <g>
            <path class="cls-3" d="M233.51,120.86h2.25v8.97h-1.12v-8.92l-2.3,8.92h-2.31l-2.3-8.92v8.92h-1.12v-8.97h2.25l2.33,8.92,2.33-8.92Z"/>
            <path class="cls-3" d="M237.49,126.58c0-1.73,1.17-3.38,3.12-3.38s3.12,1.65,3.12,3.38-1.17,3.38-3.12,3.38-3.12-1.65-3.12-3.38ZM242.56,126.58c0-1.44-.7-2.52-1.95-2.52s-1.95,1.08-1.95,2.52.7,2.52,1.95,2.52,1.95-1.08,1.95-2.52Z"/>
            <path class="cls-3" d="M247.89,124.1c-1.07,0-1.51.68-1.51,1.6v4.13h-1.08v-6.5h1.04v1.27h.03c.34-.9,1-1.4,1.96-1.4,1.39,0,2.13,1,2.13,2.22v4.41h-1.08v-4.03c0-1.08-.44-1.7-1.5-1.7Z"/>
            <path class="cls-3" d="M254.74,124.06c-.99,0-1.48.56-1.52,1.33h-1.08c.08-1.2.95-2.18,2.6-2.18,1.44,0,2.63.71,2.63,2.68v3.95h-1.04v-1.27h-.03c-.34.9-1.1,1.4-2.12,1.4-1.25,0-2.26-.75-2.26-2.01,0-1.34,1.17-1.77,2.55-1.91l1.82-.2v-.21c0-.97-.53-1.57-1.55-1.57ZM256.29,127.01v-.35l-1.73.19c-.97.1-1.47.46-1.47,1.14,0,.65.58,1.11,1.35,1.11,1.14,0,1.85-.69,1.85-2.09Z"/>
            <path class="cls-3" d="M258.47,124.19v-.86h1.18v-1.48h1.08v1.48h1.65v.86h-1.65v4.07c0,.51.18.71.73.71h.87v.86h-1.17c-1.09,0-1.51-.52-1.51-1.46v-4.19h-1.18Z"/>
          </g>
        </g>
      </g>
    </g>
  </g>
</svg>