<?xml version="1.0" encoding="UTF-8"?>
<svg id="Layer_2" data-name="Layer 2" xmlns="http://www.w3.org/2000/svg" xmlns:xlink="http://www.w3.org/1999/xlink" viewBox="0 0 994 250">
  <defs>
    <style>
      .cls-1 {
        fill: none;
      }

      .cls-2 {
        clip-path: url(#clippath-1);
      }

      .cls-3 {
        fill: #fff;
      }

      .cls-4 {
        clip-path: url(#clippath);
      }
    </style>
    <clipPath id="clippath">
      <rect class="cls-1" width="994" height="250"/>
    </clipPath>
    <clipPath id="clippath-1">
      <rect class="cls-1" width="994" height="250"/>
    </clipPath>
  </defs>
  <g id="Layer_1-2" data-name="Layer 1">
    <g class="cls-4">
      <g class="cls-2">
        <g>
          <path class="cls-3" d="M41.21,208.01h-2.11v-.65h2.9v3.2h-.74v-1.32h-.02c-.25.7-.88,1.41-1.96,1.41-1.72,0-2.83-1.42-2.83-3.2s1.06-3.2,2.86-3.2c1.56,0,2.46,1.02,2.62,2.09h-.8c-.13-.74-.67-1.44-1.76-1.44-1.35,0-2.08,1.06-2.08,2.55s.76,2.55,2.11,2.55c1.19,0,1.81-.78,1.81-1.73v-.26ZM43.99,210.55h-.75v-4.5h.72v.88h.02c.23-.62.69-.97,1.36-.97v.81h-.16c-.73,0-1.19.27-1.19,1.08v2.7ZM47.89,210.64c-1.34,0-2.09-1.09-2.09-2.34s.71-2.34,2.05-2.34,2.15,1.05,2.03,2.57h-3.32c.04.94.58,1.52,1.4,1.52.78,0,1.02-.55,1.12-.92h.75c-.16.8-.7,1.51-1.94,1.51ZM46.56,207.93h2.58c-.06-.81-.5-1.38-1.29-1.38s-1.22.57-1.3,1.38ZM52.79,205.96c1.09,0,1.77.56,1.97,1.59h-.75c-.14-.73-.59-1-1.18-1-.86,0-1.31.79-1.31,1.75s.49,1.75,1.37,1.75c.58,0,1.04-.29,1.17-1.02h.75c-.2,1.04-.89,1.61-1.98,1.61-1.3,0-2.12-1.09-2.12-2.34s.81-2.34,2.08-2.34ZM57.45,206.56c-.68,0-1.03.39-1.05.92h-.75c.05-.83.66-1.51,1.8-1.51,1,0,1.82.5,1.82,1.85v2.74h-.72v-.88h-.02c-.23.62-.77.97-1.47.97-.86,0-1.57-.52-1.57-1.4,0-.93.81-1.22,1.76-1.32l1.26-.14v-.14c0-.68-.37-1.09-1.07-1.09ZM58.52,208.6v-.24l-1.2.14c-.68.07-1.02.32-1.02.79,0,.45.41.77.94.77.79,0,1.28-.48,1.28-1.45ZM60.59,204.34h.75v6.21h-.75v-6.21ZM64.52,210.64c-1.34,0-2.09-1.09-2.09-2.34s.71-2.34,2.05-2.34,2.15,1.05,2.03,2.57h-3.32c.04.94.58,1.52,1.4,1.52.78,0,1.02-.55,1.12-.92h.75c-.16.8-.7,1.51-1.94,1.51ZM63.19,207.93h2.58c-.06-.81-.5-1.38-1.29-1.38s-1.22.57-1.3,1.38ZM70.75,207.37v3.19h-.77v-6.21h.77v2.92l2.72-2.92h1.03l-2.77,2.97,3.08,3.24h-1.03l-3.02-3.19ZM76.19,210.55h-.75v-4.5h.72v.88h.02c.23-.62.69-.97,1.36-.97v.81h-.16c-.73,0-1.19.27-1.19,1.08v2.7ZM79.96,206.56c-.68,0-1.03.39-1.05.92h-.75c.05-.83.66-1.51,1.8-1.51,1,0,1.82.5,1.82,1.85v2.74h-.72v-.88h-.02c-.23.62-.77.97-1.47.97-.86,0-1.57-.52-1.57-1.4,0-.93.81-1.22,1.76-1.32l1.26-.14v-.14c0-.68-.37-1.09-1.07-1.09ZM81.03,208.6v-.24l-1.2.14c-.68.07-1.02.32-1.02.79,0,.45.41.77.94.77.79,0,1.28-.48,1.28-1.45ZM86.42,206.65h-2.3v3.91h-.75v-3.91h-.82v-.59h.82v-.7c0-.65.29-1.01,1.04-1.01h.81v.59h-.6c-.38,0-.5.14-.5.5v.62h2.3v-1.03h.75v1.03h1.14v.59h-1.14v2.82c0,.35.13.5.5.5h.6v.59h-.81c-.76,0-1.04-.36-1.04-1.01v-2.9ZM91,208.67l-.6-.14c-.86-.19-1.39-.58-1.39-1.29,0-.75.71-1.29,1.67-1.29,1.03,0,1.75.59,1.81,1.42h-.75c-.06-.52-.43-.83-1.06-.83-.52,0-.95.21-.95.62,0,.37.27.5.95.65l.6.14c.86.2,1.3.64,1.3,1.37,0,.77-.63,1.31-1.8,1.31s-1.85-.82-1.91-1.67h.75c.05.62.51,1.07,1.19,1.07.58,0,1.05-.25,1.05-.68,0-.3-.18-.55-.86-.7ZM93.08,206.65v-.59h.82v-1.03h.75v1.03h1.14v.59h-1.14v2.82c0,.35.13.5.5.5h.6v.59h-.81c-.76,0-1.04-.36-1.04-1.01v-2.9h-.82ZM96.34,208.3c0-1.2.81-2.34,2.16-2.34s2.16,1.14,2.16,2.34-.81,2.34-2.16,2.34-2.16-1.14-2.16-2.34ZM99.86,208.3c0-1-.49-1.75-1.35-1.75s-1.35.75-1.35,1.75.49,1.75,1.35,1.75,1.35-.75,1.35-1.75ZM105.05,206.65h-2.31v3.91h-.75v-3.91h-.82v-.59h.82v-.7c0-.65.29-1.01,1.04-1.01h.81v.59h-.6c-.38,0-.5.14-.5.5v.62h2.31v-.7c0-.65.29-1.01,1.04-1.01h.81v.59h-.6c-.38,0-.5.14-.5.5v.62h1.14v.59h-1.14v3.91h-.75v-3.91ZM108.07,206.05l1.31,4.47,1.31-4.47h.77l-1.32,4.5h-1.53l-1.32-4.5h.77ZM114.09,210.64c-1.34,0-2.09-1.09-2.09-2.34s.71-2.34,2.05-2.34,2.15,1.05,2.03,2.57h-3.32c.04.94.58,1.52,1.4,1.52.78,0,1.02-.55,1.12-.92h.75c-.16.8-.7,1.51-1.94,1.51ZM112.76,207.93h2.58c-.06-.81-.5-1.38-1.29-1.38s-1.22.57-1.3,1.38ZM117.93,210.55h-.75v-4.5h.72v.88h.02c.23-.62.69-.97,1.36-.97v.81h-.16c-.73,0-1.19.27-1.19,1.08v2.7ZM122.43,210.64c-.71,0-1.25-.4-1.5-1.04h-.02v.95h-.75v-6.21h.75v2.66h.02c.25-.65.79-1.04,1.5-1.04,1.28,0,1.94,1.1,1.94,2.34s-.66,2.34-1.94,2.34ZM122.2,206.56c-.86,0-1.33.75-1.33,1.75s.47,1.75,1.33,1.75,1.35-.75,1.35-1.75-.49-1.75-1.35-1.75ZM126.22,210.55h-.75v-4.5h.72v.88h.02c.23-.62.69-.97,1.36-.97v.81h-.16c-.73,0-1.19.27-1.19,1.08v2.7ZM129.98,206.56c-.68,0-1.03.39-1.05.92h-.75c.05-.83.66-1.51,1.8-1.51,1,0,1.82.5,1.82,1.85v2.74h-.72v-.88h-.02c-.23.62-.77.97-1.47.97-.86,0-1.57-.52-1.57-1.4,0-.93.81-1.22,1.76-1.32l1.26-.14v-.14c0-.68-.37-1.09-1.07-1.09ZM131.05,208.6v-.24l-1.2.14c-.68.07-1.02.32-1.02.79,0,.45.41.77.94.77.79,0,1.28-.48,1.28-1.45ZM134.85,210.02c.76,0,1.02-.47,1.02-1.11v-2.86h.75v4.5h-.72v-.88h-.02c-.23.62-.65.97-1.29.97-.99,0-1.5-.69-1.5-1.54v-3.05h.75v2.79c0,.75.31,1.18,1.02,1.18ZM139.79,205.96c1.09,0,1.77.56,1.97,1.59h-.75c-.14-.73-.59-1-1.18-1-.86,0-1.31.79-1.31,1.75s.49,1.75,1.37,1.75c.58,0,1.04-.29,1.17-1.02h.75c-.2,1.04-.89,1.61-1.98,1.61-1.3,0-2.12-1.09-2.12-2.34s.81-2.34,2.08-2.34ZM144.6,206.58c-.74,0-1.04.47-1.04,1.11v2.86h-.75v-6.21h.72v2.59h.02c.23-.62.69-.97,1.36-.97.96,0,1.48.69,1.48,1.54v3.05h-.75v-2.79c0-.75-.31-1.18-1.04-1.18ZM149.86,204.34h.87v.87h-.87v-.87ZM150.67,210.55h-.75v-4.5h.75v4.5ZM153.83,206.58c-.74,0-1.04.47-1.04,1.11v2.86h-.75v-4.5h.72v.88h.02c.23-.62.69-.97,1.36-.97.96,0,1.48.69,1.48,1.54v3.05h-.75v-2.79c0-.75-.31-1.18-1.04-1.18ZM159.15,204.34h.75v6.21h-.75v-6.21ZM160.82,210.55l2.66-6.21h.78l-2.66,6.21h-.78ZM168.49,210.55h-3.53v-.59h1.49v-4.07h-1.49v-.59h.45c.93,0,1.12-.36,1.18-.88v-.07h.6v5.62h1.3v.59ZM168.99,207.45c0-1.9.88-3.2,2.39-3.2s2.39,1.3,2.39,3.2-.89,3.2-2.39,3.2-2.39-1.3-2.39-3.2ZM172.96,207.45c0-1.59-.57-2.6-1.58-2.6s-1.58,1-1.58,2.6.56,2.6,1.58,2.6,1.58-1.01,1.58-2.6ZM174.74,207.45c0-1.9.88-3.2,2.39-3.2s2.39,1.3,2.39,3.2-.89,3.2-2.39,3.2-2.39-1.3-2.39-3.2ZM178.71,207.45c0-1.59-.57-2.6-1.58-2.6s-1.58,1-1.58,2.6.56,2.6,1.58,2.6,1.58-1.01,1.58-2.6ZM183.65,208.06v2.49h-.75v-6.21h.75v3.66l2.05-1.95h.95l-2.08,1.98,2.16,2.52h-.95l-2.14-2.49ZM188.27,210.55h-.75v-4.5h.72v.88h.02c.23-.62.65-.97,1.29-.97.76,0,1.23.41,1.42.97h0c.23-.62.71-.97,1.35-.97.99,0,1.5.69,1.5,1.54v3.05h-.75v-2.79c0-.75-.31-1.18-1.02-1.18-.76,0-1.02.47-1.02,1.11v2.86h-.75v-2.79c0-.75-.31-1.18-1.02-1.18-.76,0-1.02.47-1.02,1.11v2.86ZM195.08,206.05h.87v.87h-.87v-.87ZM195.08,209.68h.87v.87h-.87v-.87ZM200.21,208.06v2.49h-.75v-6.21h.75v3.66l2.05-1.95h.95l-2.08,1.98,2.16,2.52h-.95l-2.14-2.49ZM203.56,208.3c0-1.2.81-2.34,2.16-2.34s2.16,1.14,2.16,2.34-.81,2.34-2.16,2.34-2.16-1.14-2.16-2.34ZM207.07,208.3c0-1-.49-1.75-1.35-1.75s-1.35.75-1.35,1.75.49,1.75,1.35,1.75,1.35-.75,1.35-1.75ZM209.72,210.55h-.75v-4.5h.72v.88h.02c.23-.62.65-.97,1.29-.97.76,0,1.23.41,1.42.97h0c.23-.62.71-.97,1.35-.97.99,0,1.5.69,1.5,1.54v3.05h-.75v-2.79c0-.75-.31-1.18-1.02-1.18-.76,0-1.02.47-1.02,1.11v2.86h-.75v-2.79c0-.75-.31-1.18-1.02-1.18-.76,0-1.02.47-1.02,1.11v2.86ZM218.87,210.64c-.71,0-1.25-.4-1.5-1.04h-.02v.95h-.75v-6.21h.75v2.66h.02c.25-.65.79-1.04,1.5-1.04,1.28,0,1.94,1.1,1.94,2.34s-.66,2.34-1.94,2.34ZM218.64,206.56c-.86,0-1.33.75-1.33,1.75s.47,1.75,1.33,1.75,1.35-.75,1.35-1.75-.49-1.75-1.35-1.75ZM221.85,204.34h.87v.87h-.87v-.87ZM222.66,210.55h-.75v-4.5h.75v4.5ZM225.82,206.58c-.74,0-1.04.47-1.04,1.11v2.86h-.75v-4.5h.72v.88h.02c.23-.62.69-.97,1.36-.97.96,0,1.48.69,1.48,1.54v3.05h-.75v-2.79c0-.75-.31-1.18-1.04-1.18ZM228.86,204.34h.87v.87h-.87v-.87ZM229.67,210.55h-.75v-4.5h.75v4.5ZM232.86,210.64c-1.34,0-2.09-1.09-2.09-2.34s.71-2.34,2.05-2.34,2.15,1.05,2.03,2.57h-3.32c.04.94.58,1.52,1.4,1.52.78,0,1.02-.55,1.12-.92h.75c-.16.8-.7,1.51-1.94,1.51ZM231.52,207.93h2.58c-.06-.81-.5-1.38-1.29-1.38s-1.22.57-1.3,1.38ZM236.69,210.55h-.75v-4.5h.72v.88h.02c.23-.62.69-.97,1.36-.97v.81h-.16c-.73,0-1.19.27-1.19,1.08v2.7ZM238.43,206.65v-.59h.82v-1.03h.75v1.03h1.14v.59h-1.14v2.82c0,.35.13.5.5.5h.6v.59h-.81c-.76,0-1.04-.36-1.04-1.01v-2.9h-.82ZM244.02,208.84c0-.95.83-1.46,1.4-1.59v-.02c-.51-.18-1.16-.56-1.16-1.38,0-.92.88-1.6,2.07-1.6s2.07.68,2.07,1.6c0,.82-.65,1.2-1.16,1.38v.02c.57.14,1.4.65,1.4,1.59,0,1.15-1.12,1.8-2.3,1.8s-2.3-.65-2.3-1.8ZM247.82,208.78c0-.72-.64-1.22-1.49-1.22s-1.49.5-1.49,1.22.64,1.27,1.49,1.27,1.49-.55,1.49-1.27ZM247.59,205.87c0-.56-.46-1.03-1.26-1.03s-1.26.47-1.26,1.03.52,1.05,1.26,1.05,1.26-.5,1.26-1.05ZM250.05,210.55h-.34v-.87h.87v.87l-.66,1.04h-.53l.66-1.04ZM251.66,208.84c0-.95.83-1.46,1.4-1.59v-.02c-.51-.18-1.16-.56-1.16-1.38,0-.92.88-1.6,2.07-1.6s2.07.68,2.07,1.6c0,.82-.65,1.2-1.16,1.38v.02c.57.14,1.4.65,1.4,1.59,0,1.15-1.12,1.8-2.3,1.8s-2.3-.65-2.3-1.8ZM255.45,208.78c0-.72-.64-1.22-1.49-1.22s-1.49.5-1.49,1.22.64,1.27,1.49,1.27,1.49-.55,1.49-1.27ZM255.22,205.87c0-.56-.46-1.03-1.26-1.03s-1.26.47-1.26,1.03.52,1.05,1.26,1.05,1.26-.5,1.26-1.05ZM259.55,208.51v-.59h3.26v.59h-3.26ZM268.33,204.25c1.58,0,2.33,1.32,2.33,3.05,0,1.97-.83,3.34-2.35,3.34-1.25,0-1.92-.76-2.04-1.8h.75c.08.77.5,1.21,1.3,1.21,1.01,0,1.52-.93,1.52-2.66h-.02c-.27.65-.83,1.09-1.62,1.09-1.09,0-2.1-.73-2.1-2.1s1.13-2.12,2.23-2.12ZM268.38,204.85c-.86,0-1.47.67-1.47,1.53s.59,1.49,1.46,1.49,1.43-.63,1.43-1.46c0-.89-.61-1.57-1.42-1.57ZM271.9,210.55h-.34v-.87h.87v.87l-.66,1.04h-.53l.66-1.04ZM273.47,210.55v-.5l2.46-2.49c.64-.66.87-.91.87-1.44,0-.61-.38-1.27-1.28-1.27-.8,0-1.26.55-1.26,1.48h-.75c0-1.35.95-2.07,2.01-2.07,1.31,0,2.06.86,2.06,1.77,0,.78-.45,1.27-1.39,2.22l-1.68,1.71h3.13v.59h-4.18ZM279.25,210.55h-.34v-.87h.87v.87l-.66,1.04h-.53l.66-1.04ZM278.91,206.05h.87v.87h-.87v-.87Z"/>
          <g>
            <path class="cls-3" d="M39.29,216.25c1.42,0,2.45.92,2.7,2.3h-.8c-.21-1.04-.89-1.66-1.86-1.66-1.22,0-2.03,1.06-2.03,2.55s.85,2.55,2.1,2.55c.94,0,1.64-.59,1.85-1.64h.8c-.25,1.39-1.3,2.29-2.72,2.29-1.67,0-2.86-1.31-2.86-3.2,0-1.77,1.15-3.2,2.83-3.2Z"/>
            <path class="cls-3" d="M42.85,219.44c0-1.77,1.18-3.2,2.9-3.2s2.9,1.42,2.9,3.2-1.18,3.2-2.9,3.2-2.9-1.42-2.9-3.2ZM47.81,219.44c0-1.49-.83-2.55-2.06-2.55s-2.06,1.06-2.06,2.55.83,2.55,2.06,2.55,2.06-1.06,2.06-2.55Z"/>
          </g>
          <path class="cls-3" d="M49.34,225.55v-.29l1.43-1.45c.37-.38.51-.53.51-.84,0-.36-.22-.74-.75-.74-.47,0-.73.32-.73.86h-.44c0-.79.56-1.21,1.17-1.21.76,0,1.2.5,1.2,1.03,0,.46-.26.74-.81,1.3l-.98,1h1.83v.35h-2.44Z"/>
          <path class="cls-3" d="M52.53,220.51v-.59h2.49v.59h-2.49ZM56.38,216.34h3.57v.65h-2.8v2.05h2.72v.65h-2.72v2.21h2.87v.65h-3.65v-6.21ZM61.98,222.55h-.75v-4.5h.72v.88h.02c.23-.62.65-.97,1.29-.97.76,0,1.23.41,1.42.97h0c.23-.62.71-.97,1.35-.97.99,0,1.5.69,1.5,1.54v3.05h-.75v-2.79c0-.75-.31-1.18-1.02-1.18-.76,0-1.02.47-1.02,1.11v2.86h-.75v-2.79c0-.75-.31-1.18-1.02-1.18-.76,0-1.02.47-1.02,1.11v2.86ZM68.8,216.34h.87v.87h-.87v-.87ZM69.61,222.55h-.75v-4.5h.75v4.5ZM72.77,220.67l-.6-.14c-.86-.19-1.39-.58-1.39-1.29,0-.75.71-1.29,1.67-1.29,1.03,0,1.75.59,1.81,1.42h-.75c-.06-.52-.43-.83-1.06-.83-.52,0-.95.21-.95.62,0,.37.27.5.95.65l.6.14c.86.2,1.3.64,1.3,1.37,0,.77-.63,1.31-1.8,1.31s-1.85-.82-1.91-1.67h.75c.05.62.51,1.07,1.19,1.07.58,0,1.05-.25,1.05-.68,0-.3-.18-.55-.86-.7ZM77.22,220.67l-.6-.14c-.86-.19-1.39-.58-1.39-1.29,0-.75.71-1.29,1.67-1.29,1.03,0,1.75.59,1.81,1.42h-.75c-.06-.52-.43-.83-1.06-.83-.52,0-.95.21-.95.62,0,.37.27.5.95.65l.6.14c.86.2,1.3.64,1.3,1.37,0,.77-.63,1.31-1.8,1.31s-1.85-.82-1.91-1.67h.75c.05.62.51,1.07,1.19,1.07.58,0,1.05-.25,1.05-.68,0-.3-.18-.55-.86-.7ZM79.81,216.34h.87v.87h-.87v-.87ZM80.62,222.55h-.75v-4.5h.75v4.5ZM81.71,220.3c0-1.2.81-2.34,2.16-2.34s2.16,1.14,2.16,2.34-.81,2.34-2.16,2.34-2.16-1.14-2.16-2.34ZM85.22,220.3c0-1-.49-1.75-1.35-1.75s-1.35.75-1.35,1.75.49,1.75,1.35,1.75,1.35-.75,1.35-1.75ZM88.91,218.58c-.74,0-1.04.47-1.04,1.11v2.86h-.75v-4.5h.72v.88h.02c.23-.62.69-.97,1.36-.97.96,0,1.48.69,1.48,1.54v3.05h-.75v-2.79c0-.75-.31-1.18-1.04-1.18ZM94.16,216.34h.87v.87h-.87v-.87ZM94.97,222.55h-.75v-4.5h.75v4.5ZM98.13,218.58c-.74,0-1.04.47-1.04,1.11v2.86h-.75v-4.5h.72v.88h.02c.23-.62.69-.97,1.36-.97.96,0,1.48.69,1.48,1.54v3.05h-.75v-2.79c0-.75-.31-1.18-1.04-1.18ZM106.66,221.42h-.02c-.25.65-.79,1.04-1.5,1.04-1.28,0-1.94-1.01-1.94-2.25s.66-2.25,1.94-2.25c.71,0,1.25.4,1.5,1.04h.02v-.95h.75v4.35c0,1.02-.68,1.77-1.98,1.77-1.19,0-1.83-.58-1.95-1.49h.75c.1.64.61.9,1.21.9.7,0,1.23-.38,1.23-1.18v-.98ZM105.36,221.87c.86,0,1.33-.66,1.33-1.66s-.47-1.66-1.33-1.66-1.35.66-1.35,1.66.49,1.66,1.35,1.66ZM108.33,222.55l2.66-6.21h.78l-2.66,6.21h-.78ZM113.43,220.06v2.49h-.75v-6.21h.75v3.66l2.05-1.95h.95l-2.08,1.98,2.16,2.52h-.95l-2.14-2.49ZM118.05,222.55h-.75v-4.5h.72v.88h.02c.23-.62.65-.97,1.29-.97.76,0,1.23.41,1.42.97h0c.23-.62.71-.97,1.35-.97.99,0,1.5.69,1.5,1.54v3.05h-.75v-2.79c0-.75-.31-1.18-1.02-1.18-.76,0-1.02.47-1.02,1.11v2.86h-.75v-2.79c0-.75-.31-1.18-1.02-1.18-.76,0-1.02.47-1.02,1.11v2.86ZM124.86,218.05h.87v.87h-.87v-.87ZM124.86,221.68h.87v.87h-.87v-.87ZM129.99,220.06v2.49h-.75v-6.21h.75v3.66l2.05-1.95h.95l-2.08,1.98,2.16,2.52h-.95l-2.14-2.49ZM133.34,220.3c0-1.2.81-2.34,2.16-2.34s2.16,1.14,2.16,2.34-.81,2.34-2.16,2.34-2.16-1.14-2.16-2.34ZM136.85,220.3c0-1-.49-1.75-1.35-1.75s-1.35.75-1.35,1.75.49,1.75,1.35,1.75,1.35-.75,1.35-1.75ZM139.5,222.55h-.75v-4.5h.72v.88h.02c.23-.62.65-.97,1.29-.97.76,0,1.23.41,1.42.97h0c.23-.62.71-.97,1.35-.97.99,0,1.5.69,1.5,1.54v3.05h-.75v-2.79c0-.75-.31-1.18-1.02-1.18-.76,0-1.02.47-1.02,1.11v2.86h-.75v-2.79c0-.75-.31-1.18-1.02-1.18-.76,0-1.02.47-1.02,1.11v2.86ZM148.65,222.64c-.71,0-1.25-.4-1.5-1.04h-.02v.95h-.75v-6.21h.75v2.66h.02c.25-.65.79-1.04,1.5-1.04,1.28,0,1.94,1.1,1.94,2.34s-.66,2.34-1.94,2.34ZM148.42,218.56c-.86,0-1.33.75-1.33,1.75s.47,1.75,1.33,1.75,1.35-.75,1.35-1.75-.49-1.75-1.35-1.75ZM151.63,216.34h.87v.87h-.87v-.87ZM152.44,222.55h-.75v-4.5h.75v4.5ZM155.6,218.58c-.74,0-1.04.47-1.04,1.11v2.86h-.75v-4.5h.72v.88h.02c.23-.62.69-.97,1.36-.97.96,0,1.48.69,1.48,1.54v3.05h-.75v-2.79c0-.75-.31-1.18-1.04-1.18ZM158.64,216.34h.87v.87h-.87v-.87ZM159.45,222.55h-.75v-4.5h.75v4.5ZM162.64,222.64c-1.34,0-2.09-1.09-2.09-2.34s.71-2.34,2.05-2.34,2.15,1.05,2.03,2.57h-3.32c.04.94.58,1.52,1.4,1.52.78,0,1.02-.55,1.12-.92h.75c-.16.8-.7,1.51-1.94,1.51ZM161.3,219.93h2.58c-.06-.81-.5-1.38-1.29-1.38s-1.22.57-1.3,1.38ZM166.47,222.55h-.75v-4.5h.72v.88h.02c.23-.62.69-.97,1.36-.97v.81h-.16c-.73,0-1.19.27-1.19,1.08v2.7ZM168.21,218.65v-.59h.82v-1.03h.75v1.03h1.14v.59h-1.14v2.82c0,.35.13.5.5.5h.6v.59h-.81c-.76,0-1.04-.36-1.04-1.01v-2.9h-.82ZM177.34,222.55h-3.53v-.59h1.49v-4.07h-1.49v-.59h.45c.93,0,1.12-.36,1.18-.88v-.07h.6v5.62h1.3v.59ZM180.12,216.25c1.58,0,2.33,1.32,2.33,3.05,0,1.97-.83,3.34-2.35,3.34-1.25,0-1.92-.76-2.04-1.8h.75c.08.77.5,1.21,1.3,1.21,1.01,0,1.52-.93,1.52-2.66h-.02c-.27.65-.83,1.09-1.62,1.09-1.09,0-2.1-.73-2.1-2.1s1.13-2.12,2.23-2.12ZM180.17,216.85c-.86,0-1.47.67-1.47,1.53s.59,1.49,1.46,1.49,1.43-.63,1.43-1.46c0-.89-.61-1.57-1.42-1.57ZM185.65,216.25c1.58,0,2.33,1.32,2.33,3.05,0,1.97-.83,3.34-2.35,3.34-1.25,0-1.92-.76-2.04-1.8h.75c.08.77.5,1.21,1.3,1.21,1.01,0,1.52-.93,1.52-2.66h-.02c-.27.65-.83,1.09-1.62,1.09-1.09,0-2.1-.73-2.1-2.1s1.13-2.12,2.23-2.12ZM185.69,216.85c-.86,0-1.47.67-1.47,1.53s.59,1.49,1.46,1.49,1.43-.63,1.43-1.46c0-.89-.61-1.57-1.42-1.57ZM188.92,220.42v-.59h4.14v.59h-4.14ZM193.94,222.55v-.5l2.46-2.49c.64-.66.87-.91.87-1.44,0-.61-.38-1.27-1.28-1.27-.8,0-1.26.55-1.26,1.48h-.75c0-1.35.95-2.07,2.01-2.07,1.31,0,2.06.86,2.06,1.77,0,.78-.45,1.27-1.39,2.22l-1.68,1.71h3.13v.59h-4.18ZM199.04,219.45c0-1.9.88-3.2,2.39-3.2s2.39,1.3,2.39,3.2-.89,3.2-2.39,3.2-2.39-1.3-2.39-3.2ZM203.01,219.45c0-1.59-.57-2.6-1.58-2.6s-1.58,1-1.58,2.6.56,2.6,1.58,2.6,1.58-1.01,1.58-2.6ZM204.92,222.55l2.63-5.62h-3.2v-.59h4v.5l-2.67,5.71h-.76ZM209.69,222.55h-.34v-.87h.87v.87l-.66,1.04h-.53l.66-1.04ZM209.34,218.05h.87v.87h-.87v-.87ZM213.98,216.34h3.57v.65h-2.8v2.05h2.72v.65h-2.72v2.21h2.87v.65h-3.65v-6.21ZM220.62,218.58c-.74,0-1.04.47-1.04,1.11v2.86h-.75v-4.5h.72v.88h.02c.23-.62.69-.97,1.36-.97.96,0,1.48.69,1.48,1.54v3.05h-.75v-2.79c0-.75-.31-1.18-1.04-1.18ZM225.54,222.64c-1.34,0-2.09-1.09-2.09-2.34s.71-2.34,2.05-2.34,2.15,1.05,2.03,2.57h-3.32c.04.94.58,1.52,1.4,1.52.78,0,1.02-.55,1.12-.92h.75c-.16.8-.7,1.51-1.94,1.51ZM224.21,219.93h2.58c-.06-.81-.5-1.38-1.29-1.38s-1.22.57-1.3,1.38ZM229.38,222.55h-.75v-4.5h.72v.88h.02c.23-.62.69-.97,1.36-.97v.81h-.16c-.73,0-1.19.27-1.19,1.08v2.7ZM234.66,221.42h-.02c-.25.65-.79,1.04-1.5,1.04-1.28,0-1.94-1.01-1.94-2.25s.66-2.25,1.94-2.25c.71,0,1.25.4,1.5,1.04h.02v-.95h.75v4.35c0,1.02-.68,1.77-1.98,1.77-1.19,0-1.83-.58-1.95-1.49h.75c.1.64.61.9,1.21.9.7,0,1.23-.38,1.23-1.18v-.98ZM233.37,221.87c.86,0,1.33-.66,1.33-1.66s-.47-1.66-1.33-1.66-1.35.66-1.35,1.66.49,1.66,1.35,1.66ZM236.71,216.34h.87v.87h-.87v-.87ZM237.52,222.55h-.75v-4.5h.75v4.5ZM240.71,222.64c-1.34,0-2.09-1.09-2.09-2.34s.71-2.34,2.05-2.34,2.15,1.05,2.03,2.57h-3.32c.04.94.58,1.52,1.4,1.52.78,0,1.02-.55,1.12-.92h.75c-.16.8-.7,1.51-1.94,1.51ZM239.38,219.93h2.58c-.06-.81-.5-1.38-1.29-1.38s-1.22.57-1.3,1.38ZM245.61,222.64c-1.34,0-2.09-1.09-2.09-2.34s.71-2.34,2.05-2.34,2.15,1.05,2.03,2.57h-3.32c.04.94.58,1.52,1.4,1.52.78,0,1.02-.55,1.12-.92h.75c-.16.8-.7,1.51-1.94,1.51ZM244.28,219.93h2.58c-.06-.81-.5-1.38-1.29-1.38s-1.22.57-1.3,1.38ZM252.01,218.65h-2.31v3.91h-.75v-3.91h-.82v-.59h.82v-.7c0-.65.29-1.01,1.04-1.01h.81v.59h-.6c-.38,0-.5.14-.5.5v.62h2.31v-.7c0-.65.29-1.01,1.04-1.01h.81v.59h-.6c-.38,0-.5.14-.5.5v.62h2.73v4.5h-.75v-3.91h-1.98v3.91h-.75v-3.91ZM254.68,216.34h.87v.87h-.87v-.87ZM258.99,218.65h-2.39v-.59h3.3v.59l-2.45,3.31h2.53v.59h-3.45v-.59l2.45-3.31ZM260.97,216.34h.87v.87h-.87v-.87ZM261.78,222.55h-.75v-4.5h.75v4.5ZM264.96,222.64c-1.34,0-2.09-1.09-2.09-2.34s.71-2.34,2.05-2.34,2.15,1.05,2.03,2.57h-3.32c.04.94.58,1.52,1.4,1.52.78,0,1.02-.55,1.12-.92h.75c-.16.8-.7,1.51-1.94,1.51ZM263.63,219.93h2.58c-.06-.81-.5-1.38-1.29-1.38s-1.22.57-1.3,1.38ZM269.84,218.58c-.74,0-1.04.47-1.04,1.11v2.86h-.75v-4.5h.72v.88h.02c.23-.62.69-.97,1.36-.97.96,0,1.48.69,1.48,1.54v3.05h-.75v-2.79c0-.75-.31-1.18-1.04-1.18ZM275.08,218.65h-2.39v-.59h3.3v.59l-2.45,3.31h2.53v.59h-3.45v-.59l2.45-3.31ZM277.87,220.06v2.49h-.75v-6.21h.75v3.66l2.05-1.95h.95l-2.08,1.98,2.16,2.52h-.95l-2.14-2.49ZM283.31,218.56c-.68,0-1.03.39-1.05.92h-.75c.05-.83.66-1.51,1.8-1.51,1,0,1.82.5,1.82,1.85v2.74h-.72v-.88h-.02c-.23.62-.77.97-1.47.97-.86,0-1.57-.52-1.57-1.4,0-.93.81-1.22,1.76-1.32l1.26-.14v-.14c0-.68-.37-1.09-1.07-1.09ZM284.39,220.6v-.24l-1.2.14c-.68.07-1.02.32-1.02.79,0,.45.41.77.94.77.79,0,1.28-.48,1.28-1.45ZM285.89,218.65v-.59h.82v-1.03h.75v1.03h1.14v.59h-1.14v2.82c0,.35.13.5.5.5h.6v.59h-.81c-.76,0-1.04-.36-1.04-1.01v-2.9h-.82ZM291.25,222.64c-1.34,0-2.09-1.09-2.09-2.34s.71-2.34,2.05-2.34,2.15,1.05,2.03,2.57h-3.32c.04.94.58,1.52,1.4,1.52.78,0,1.02-.55,1.12-.92h.75c-.16.8-.7,1.51-1.94,1.51ZM289.92,219.93h2.58c-.06-.81-.5-1.38-1.29-1.38s-1.22.57-1.3,1.38ZM297.54,221.42h-.02c-.25.65-.79,1.04-1.5,1.04-1.28,0-1.94-1.01-1.94-2.25s.66-2.25,1.94-2.25c.71,0,1.25.4,1.5,1.04h.02v-.95h.75v4.35c0,1.02-.68,1.77-1.98,1.77-1.19,0-1.83-.58-1.95-1.49h.75c.1.64.61.9,1.21.9.7,0,1.23-.38,1.23-1.18v-.98ZM296.25,221.87c.86,0,1.33-.66,1.33-1.66s-.47-1.66-1.33-1.66-1.35.66-1.35,1.66.49,1.66,1.35,1.66ZM299.38,220.3c0-1.2.81-2.34,2.16-2.34s2.16,1.14,2.16,2.34-.81,2.34-2.16,2.34-2.16-1.14-2.16-2.34ZM302.89,220.3c0-1-.49-1.75-1.35-1.75s-1.35.75-1.35,1.75.49,1.75,1.35,1.75,1.35-.75,1.35-1.75ZM305.54,222.55h-.75v-4.5h.72v.88h.02c.23-.62.69-.97,1.36-.97v.81h-.16c-.73,0-1.19.27-1.19,1.08v2.7ZM307.7,216.34h.87v.87h-.87v-.87ZM308.51,222.55h-.75v-4.5h.75v4.5ZM311.7,222.64c-1.34,0-2.09-1.09-2.09-2.34s.71-2.34,2.05-2.34,2.15,1.05,2.03,2.57h-3.32c.04.94.58,1.52,1.4,1.52.78,0,1.02-.55,1.12-.92h.75c-.16.8-.7,1.51-1.94,1.51ZM310.37,219.93h2.58c-.06-.81-.5-1.38-1.29-1.38s-1.22.57-1.3,1.38ZM314.71,218.05h.87v.87h-.87v-.87ZM314.71,221.68h.87v.87h-.87v-.87ZM323.63,220.01h-2.11v-.65h2.9v3.2h-.74v-1.32h-.02c-.25.7-.88,1.41-1.96,1.41-1.72,0-2.83-1.42-2.83-3.2s1.06-3.2,2.86-3.2c1.56,0,2.46,1.02,2.62,2.09h-.8c-.13-.74-.67-1.44-1.76-1.44-1.35,0-2.08,1.06-2.08,2.55s.76,2.55,2.11,2.55c1.19,0,1.81-.78,1.81-1.73v-.26Z"/>
        </g>
      </g>
    </g>
  </g>
</svg>