<svg xmlns="http://www.w3.org/2000/svg" viewBox="0 0 80.24 20"><defs><style>.cls-1{fill:#fff;}</style></defs><title>logo-300x600-2</title><g id="Layer_2" data-name="Layer 2"><g id="Layer_1-2" data-name="Layer 1"><path id="_Compound_Path_" data-name="&lt;Compound Path&gt;" class="cls-1" d="M19.6,3.58a4.09,4.09,0,0,1,2,.52V5.32a3.92,3.92,0,0,0-2-.67,1.48,1.48,0,0,0-.82.2.65.65,0,0,0-.29.54c0,.27.18.52.55.74a12.84,12.84,0,0,0,1.17.57,3.34,3.34,0,0,1,1.26.92,1.93,1.93,0,0,1,.39,1.21,1.86,1.86,0,0,1-.66,1.48,2.57,2.57,0,0,1-1.71.56,4.06,4.06,0,0,1-1.17-.15,4.85,4.85,0,0,1-1.1-.52V8.85a3.48,3.48,0,0,0,2.15,1,1.43,1.43,0,0,0,.81-.22A.68.68,0,0,0,20.54,9,.93.93,0,0,0,20,8.19l-1.15-.58a3.51,3.51,0,0,1-1.26-.89,1.84,1.84,0,0,1-.41-1.18,1.75,1.75,0,0,1,.66-1.43A2.79,2.79,0,0,1,19.6,3.58Z"/><path id="_Compound_Path_2" data-name="&lt;Compound Path&gt;" class="cls-1" d="M27,3.67V7h0l2.6-3.28h1.56L28.57,7,32,10.78H30.24L27,7.29v3.49H25.64V3.67Z"/><path id="_Compound_Path_3" data-name="&lt;Compound Path&gt;" class="cls-1" d="M36.61,3.67l1.72,2.38,1.74-2.38H41.7L39,7.26v3.52H37.64V7.25l-2.7-3.58Z"/><path id="_Compound_Path_4" data-name="&lt;Compound Path&gt;" class="cls-1" d="M47.48,3.67v6h3.45v1.07H46.1V3.67Z"/><path id="_Compound_Path_5" data-name="&lt;Compound Path&gt;" class="cls-1" d="M56.61,3.67v6h3.45v1.07H55.23V3.67Z"/><path id="_Compound_Path_6" data-name="&lt;Compound Path&gt;" class="cls-1" d="M68.54,3.67V4.74H65.32V6.61H68.4V7.69H65.32v2h3.29v1.07H64V3.67Z"/><path id="_Compound_Path_7" data-name="&lt;Compound Path&gt;" class="cls-1" d="M74.67,3.67l4.23,5v-5h1.34v7.11H79.06l-4.25-5v5H73.47V3.67Z"/><g id="_Group_" data-name="&lt;Group&gt;"><path id="_Compound_Path_8" data-name="&lt;Compound Path&gt;" class="cls-1" d="M46.12,18.59V14.12h1.25a1.67,1.67,0,0,1,1.09.32,1.21,1.21,0,0,1,0,1.78,1.66,1.66,0,0,1-1.12.33h-.77v2Zm1.2-2.43a1.23,1.23,0,0,0,.8-.22.74.74,0,0,0,.26-.61.73.73,0,0,0-.26-.59,1.13,1.13,0,0,0-.76-.23h-.79v1.65Z"/><path id="_Compound_Path_9" data-name="&lt;Compound Path&gt;" class="cls-1" d="M54.41,18.59,53.68,17l-2.08,0-.66,1.52h-.48l2.06-4.48h.25l2.09,4.48Zm-.9-1.91-.85-1.86-.85,1.86Z"/><path id="_Path_" data-name="&lt;Path&gt;" class="cls-1" d="M59,18.64a2.37,2.37,0,0,1-1.7-.65,2.28,2.28,0,0,1,0-3.27A2.34,2.34,0,0,1,59,14.07a3.55,3.55,0,0,1,1.53.36v.49l0,0A3.31,3.31,0,0,0,59,14.49a1.79,1.79,0,0,0-1.32.53,1.86,1.86,0,0,0-.53,1.34,1.82,1.82,0,0,0,.53,1.34,1.9,1.9,0,0,0,1.36.52,3.36,3.36,0,0,0,1.53-.44l.08,0v.44A3.14,3.14,0,0,1,59,18.64Z"/><rect id="_Path_2" data-name="&lt;Path&gt;" class="cls-1" x="63.55" y="14.12" width="0.45" height="4.46"/><polygon id="_Path_3" data-name="&lt;Path&gt;" class="cls-1" points="67.56 18.59 67.56 14.12 69.91 14.12 69.91 14.51 68 14.51 68 16.06 69.72 16.06 69.72 16.45 68 16.45 68 18.59 67.56 18.59"/><rect id="_Path_4" data-name="&lt;Path&gt;" class="cls-1" x="72.79" y="14.12" width="0.45" height="4.46"/><path id="_Path_5" data-name="&lt;Path&gt;" class="cls-1" d="M78.64,18.64A2.36,2.36,0,0,1,77,18a2.29,2.29,0,0,1,0-3.27,2.35,2.35,0,0,1,1.65-.65,3.52,3.52,0,0,1,1.53.36v.49l0,0a3.25,3.25,0,0,0-1.52-.41,1.81,1.81,0,0,0-1.32.53,1.86,1.86,0,0,0-.53,1.34,1.79,1.79,0,0,0,.54,1.34,1.89,1.89,0,0,0,1.36.52,3.32,3.32,0,0,0,1.52-.44l.08,0v.44A3.14,3.14,0,0,1,78.64,18.64Z"/></g><g id="_Group_2" data-name="&lt;Group&gt;"><path id="_Compound_Path_10" data-name="&lt;Compound Path&gt;" class="cls-1" d="M6.8,6.82H5.74V20H6.8Z"/><polygon id="_Path_6" data-name="&lt;Path&gt;" class="cls-1" points="11.41 4.19 6.26 1.22 1.06 4.16 1.06 16.95 0 16.96 0 3.54 6.27 0 12.47 3.58 12.47 16.94 11.41 16.94 11.41 4.19"/></g></g></g></svg>