<svg xmlns="http://www.w3.org/2000/svg" viewBox="0 0 116 96.04"><defs><style>.cls-1{fill:#fff;}.cls-2{fill:none;}.cls-3{fill:#54565b;}.cls-4{fill:#f48220;}.cls-5{fill:#979899;}</style></defs><title>logo618-300x600</title><g id="Layer_2" data-name="Layer 2"><g id="Layer_1-2" data-name="Layer 1"><path class="cls-1" d="M0,91.32v0a4.63,4.63,0,0,1,4.65-4.75A4.78,4.78,0,0,1,8.23,88l-.71.76A4,4,0,0,0,4.63,87.5a3.6,3.6,0,0,0-3.55,3.77v0a3.62,3.62,0,0,0,3.55,3.8,4,4,0,0,0,3-1.33l.68.67A4.79,4.79,0,0,1,4.61,96,4.58,4.58,0,0,1,0,91.32Z"/><path class="cls-1" d="M17,86.63h1l4.18,9.26H21l-1.08-2.43h-5l-1.09,2.43H12.79Zm2.56,5.88-2.08-4.67-2.1,4.67Z"/><path class="cls-1" d="M27.43,86.7h3.95a3.63,3.63,0,0,1,2.61.92,2.55,2.55,0,0,1,.71,1.81v0a2.69,2.69,0,0,1-2.5,2.68L35,95.89H33.75l-2.66-3.57H28.46v3.57h-1Zm3.85,4.68c1.38,0,2.37-.71,2.37-1.89v0c0-1.13-.87-1.81-2.35-1.81H28.46v3.72Z"/><path class="cls-1" d="M40.4,86.7h1l5.79,7.36V86.7h1v9.19h-.83l-5.93-7.54v7.54h-1Z"/><path class="cls-1" d="M57.65,86.63h1l4.18,9.26H61.69l-1.08-2.43h-5l-1.09,2.43H53.46Zm2.55,5.88-2.08-4.67L56,92.51Z"/><path class="cls-1" d="M68.1,86.7h4a3.61,3.61,0,0,1,2.61.92,2.51,2.51,0,0,1,.71,1.81v0a2.69,2.69,0,0,1-2.5,2.68l2.83,3.76H74.42l-2.66-3.57H69.13v3.57h-1ZM72,91.38c1.37,0,2.36-.71,2.36-1.89v0c0-1.13-.87-1.81-2.35-1.81H69.13v3.72Z"/><path class="cls-1" d="M80,86.7h1.15l3.27,7.91,3.28-7.91h1.12l-4,9.25H84Z"/><path class="cls-1" d="M93.18,91.32v0a4.69,4.69,0,1,1,9.38,0v0A4.66,4.66,0,0,1,97.86,96,4.61,4.61,0,0,1,93.18,91.32Zm8.3,0v0a3.61,3.61,0,1,0-7.22,0v0a3.61,3.61,0,1,0,7.22,0Z"/><path class="cls-1" d="M108.23,86.7h1L115,94.06V86.7h1v9.19h-.83l-5.93-7.54v7.54h-1Z"/><circle class="cls-2" cx="92.06" cy="16.43" r="9.55"/><circle class="cls-2" cx="92.06" cy="48.7" r="15.84"/><path class="cls-3" d="M107.9,48.7a15.84,15.84,0,0,1-31.68,0H69.35a22.72,22.72,0,1,0,45.43,0Z"/><path class="cls-4" d="M92.06,32.86A15.86,15.86,0,0,1,107.9,48.7h6.88a22.71,22.71,0,0,0-11.87-20,16.36,16.36,0,0,1-21.69,0,22.71,22.71,0,0,0-11.87,20h6.87A15.86,15.86,0,0,1,92.06,32.86Z"/><path class="cls-5" d="M92.06,0a16.42,16.42,0,1,0,16.43,16.43A16.45,16.45,0,0,0,92.06,0Zm0,6.88a9.55,9.55,0,1,1-9.55,9.55A9.56,9.56,0,0,1,92.06,6.88Z"/><polygon class="cls-3" points="49.97 6.91 57.16 6.91 57.16 48.7 64.04 48.7 64.04 0.03 49.97 0.03 49.97 6.91"/><rect class="cls-4" x="57.16" y="48.7" width="6.88" height="22.63"/><path class="cls-4" d="M39.86,0,8.31,32.66l0,0-.15.16,4.93,4.77c.29-.29.58-.56.88-.83L24.35,26,45,4.62Z"/><path class="cls-3" d="M24.36,26h0L13.94,36.79A15.84,15.84,0,0,1,40.21,48.7h6.85A22.7,22.7,0,0,0,24.36,26Z"/><path class="cls-5" d="M40.21,48.7v0a15.85,15.85,0,1,1-27.15-11.1L8.13,32.85A22.7,22.7,0,1,0,47.06,48.72v0Z"/></g></g></svg>