<svg xmlns="http://www.w3.org/2000/svg" viewBox="0 0 189.03 30.8"><defs><style>.cls-1{fill:#f5811f;}</style></defs><title>t1-300x600</title><g id="Layer_2" data-name="Layer 2"><g id="Layer_1-2" data-name="Layer 1"><path class="cls-1" d="M4,11.6a5.15,5.15,0,0,1-4-1.5L1.14,9a3.8,3.8,0,0,0,2.93,1.11c1.5,0,2.35-.64,2.35-1.76A1.47,1.47,0,0,0,6,7.12a2.29,2.29,0,0,0-1.25-.48L3.38,6.45a3.84,3.84,0,0,1-2.15-.91A2.83,2.83,0,0,1,.38,3.35C.38,1.36,1.83,0,4.19,0A4.74,4.74,0,0,1,7.73,1.31L6.64,2.4a3.39,3.39,0,0,0-2.51-.88c-1.34,0-2.06.74-2.06,1.78a1.32,1.32,0,0,0,.41,1,2.24,2.24,0,0,0,1.25.52l1.36.2a3.66,3.66,0,0,1,2.11.85,3,3,0,0,1,.93,2.34C8.13,10.36,6.43,11.6,4,11.6Z"/><path class="cls-1" d="M14.31,1.67v9.84H12.58V1.67H9.44V.11h8V1.67Z"/><path class="cls-1" d="M23.31,11.6a3.86,3.86,0,0,1-4.08-3.93V.11H21V7.59a2.25,2.25,0,0,0,2.35,2.46,2.26,2.26,0,0,0,2.37-2.46V.11h1.73V7.67A3.87,3.87,0,0,1,23.31,11.6Z"/><path class="cls-1" d="M37.44,10.07a3.82,3.82,0,0,1-3.23,1.44h-4V.11h4a3.82,3.82,0,0,1,3.23,1.44c.84,1,.87,2.44.87,4.26S38.28,9,37.44,10.07ZM36,2.43A2.41,2.41,0,0,0,34,1.65H31.94V10H34A2.41,2.41,0,0,0,36,9.19c.56-.63.61-1.68.61-3.38S36.53,3.06,36,2.43Z"/><path class="cls-1" d="M40.86,11.51V.11h1.73v11.4Z"/><path class="cls-1" d="M52.19,10.45a4.35,4.35,0,0,1-5.89,0c-1.12-1.12-1.15-2.25-1.15-4.64s0-3.52,1.15-4.64a4.35,4.35,0,0,1,5.89,0c1.13,1.12,1.16,2.26,1.16,4.64S53.32,9.33,52.19,10.45ZM51,2.26a2.39,2.39,0,0,0-3.4,0c-.56.61-.67,1.29-.67,3.55s.11,2.93.67,3.54a2.37,2.37,0,0,0,3.4,0c.57-.59.67-1.28.67-3.54S51.52,2.85,51,2.26Z"/><path class="cls-1" d="M55.66,14V9.65h1.86v2.82Z"/><path class="cls-1" d="M62.82,11.51V1.89l-2.23,2V2L62.82.11h1.63v11.4Z"/><path class="cls-1" d="M68.54,14V9.65H70.4v2.82Z"/><path class="cls-1" d="M76.5,11.51V10.05l4.38-5.33a2.21,2.21,0,0,0,.61-1.52,1.68,1.68,0,1,0-3.35,0H76.51A3.11,3.11,0,0,1,79.83,0a3.05,3.05,0,0,1,3.29,3.2,3.55,3.55,0,0,1-1.07,2.46l-3.57,4.37h4.64v1.46Z"/><path class="cls-1" d="M96.71,11.51l-.93-1.12a4.49,4.49,0,0,1-3.16,1.21c-2.37,0-3.68-1.32-3.68-3.39,0-1.58,1.14-2.48,2.26-3.22A3.84,3.84,0,0,1,90,2.54a2.75,2.75,0,0,1,5.49,0,2.4,2.4,0,0,1-1.21,2l-.83.57L95.86,8a3.85,3.85,0,0,0,.61-2.29H98A5.37,5.37,0,0,1,96.9,9.24l1.9,2.27ZM92.1,6c-.84.57-1.54,1.1-1.54,2.16a1.94,1.94,0,0,0,2.06,1.94,3,3,0,0,0,2.18-.88Zm.7-4.58a1.06,1.06,0,0,0-1.12,1.12c0,.47.3.9.88,1.57l.54-.37a1.49,1.49,0,0,0,.84-1.18A1.11,1.11,0,0,0,92.8,1.44Z"/><path class="cls-1" d="M107.54,11.62a3.17,3.17,0,0,1-3.49-3.2h1.63a1.71,1.71,0,0,0,1.86,1.73,1.76,1.76,0,0,0,1.85-1.89,1.7,1.7,0,0,0-1.9-1.87h-.27V5h.27a1.56,1.56,0,0,0,1.73-1.73,1.7,1.7,0,0,0-3.4-.12h-1.63A3.17,3.17,0,0,1,107.54,0a3.11,3.11,0,0,1,3.31,3.19,2.51,2.51,0,0,1-1.43,2.43A2.67,2.67,0,0,1,111,8.31,3.2,3.2,0,0,1,107.54,11.62Z"/><path class="cls-1" d="M121.84,11.51h-4.61V.11h4.43c2.12,0,3.45,1.2,3.45,3.12a2.57,2.57,0,0,1-1.54,2.42,2.71,2.71,0,0,1,1.71,2.64C125.28,10.39,123.86,11.51,121.84,11.51Zm-.32-9.84H119V4.93h2.56c1.1,0,1.86-.58,1.86-1.63S122.62,1.67,121.52,1.67Zm.16,4.81H119V10h2.72a1.69,1.69,0,0,0,1.87-1.75A1.68,1.68,0,0,0,121.68,6.48Z"/><path class="cls-1" d="M127.84,11.51V.11h7.28V1.67h-5.55V5h4.73V6.53h-4.73V10h5.55v1.55Z"/><path class="cls-1" d="M144.72,10.07a3.82,3.82,0,0,1-3.23,1.44h-4V.11h4a3.82,3.82,0,0,1,3.23,1.44c.83,1,.86,2.44.86,4.26S145.55,9,144.72,10.07Zm-1.47-7.64a2.41,2.41,0,0,0-1.95-.78h-2.09V10h2.09a2.41,2.41,0,0,0,1.95-.78c.56-.63.61-1.68.61-3.38S143.81,3.06,143.25,2.43Z"/><path class="cls-1" d="M154.43,11.51,152,6.71h-2.16v4.8h-1.73V.11h4.42a3.26,3.26,0,0,1,3.54,3.33,3,3,0,0,1-2.28,3l2.63,5Zm-2-9.84h-2.56V5.23h2.56a1.73,1.73,0,0,0,1.94-1.77A1.75,1.75,0,0,0,152.43,1.67Z"/><path class="cls-1" d="M165.09,10.45a4.35,4.35,0,0,1-5.89,0c-1.12-1.12-1.15-2.25-1.15-4.64s0-3.52,1.15-4.64a4.35,4.35,0,0,1,5.89,0c1.12,1.12,1.15,2.26,1.15,4.64S166.21,9.33,165.09,10.45Zm-1.25-8.19a2.38,2.38,0,0,0-3.39,0c-.56.61-.68,1.29-.68,3.55s.12,2.93.68,3.54a2.36,2.36,0,0,0,3.39,0c.58-.59.67-1.28.67-3.54S164.42,2.85,163.84,2.26Z"/><path class="cls-1" d="M175.26,10.45a4.35,4.35,0,0,1-5.89,0c-1.12-1.12-1.15-2.25-1.15-4.64s0-3.52,1.15-4.64a4.35,4.35,0,0,1,5.89,0c1.13,1.12,1.16,2.26,1.16,4.64S176.39,9.33,175.26,10.45ZM174,2.26a2.39,2.39,0,0,0-3.4,0c-.56.61-.67,1.29-.67,3.55s.11,2.93.67,3.54a2.37,2.37,0,0,0,3.4,0c.57-.59.67-1.28.67-3.54S174.59,2.85,174,2.26Z"/><path class="cls-1" d="M187.3,11.51V3.89l-2.63,5.55h-1.28L180.7,3.89v7.62H179V.11h1.73L184,7.2,187.3.11H189v11.4Z"/><path class="cls-1" d="M13.92,30.71v-5H9.29v5H7.56V19.31H9.29v4.87h4.63V19.31h1.72v11.4Z"/><path class="cls-1" d="M25.24,29.65A3.94,3.94,0,0,1,22.3,30.8a4,4,0,0,1-2.95-1.15C18.23,28.53,18.2,27.4,18.2,25s0-3.52,1.15-4.64a4,4,0,0,1,2.95-1.15,3.94,3.94,0,0,1,2.94,1.15c1.12,1.12,1.16,2.26,1.16,4.64S26.36,28.53,25.24,29.65ZM24,21.46a2.38,2.38,0,0,0-3.39,0c-.56.61-.67,1.29-.67,3.55s.11,2.93.67,3.54a2.36,2.36,0,0,0,3.39,0c.58-.59.68-1.28.68-3.54S24.57,22.05,24,21.46Z"/><path class="cls-1" d="M37.28,30.71V23.09l-2.63,5.55H33.37l-2.69-5.55v7.62H29V19.31h1.73L34,26.4l3.27-7.09H39v11.4Z"/><path class="cls-1" d="M42,30.71V19.31h7.28v1.56H43.69v3.32h4.74v1.54H43.69v3.43h5.55v1.55Z"/><path class="cls-1" d="M54.63,30.8a5.15,5.15,0,0,1-4-1.5l1.14-1.14a3.8,3.8,0,0,0,2.93,1.11c1.5,0,2.35-.64,2.35-1.76a1.48,1.48,0,0,0-.45-1.19,2.29,2.29,0,0,0-1.25-.48L54,25.65a3.84,3.84,0,0,1-2.15-.91A2.83,2.83,0,0,1,51,22.55c0-2,1.44-3.33,3.81-3.33a4.74,4.74,0,0,1,3.54,1.29L57.24,21.6a3.39,3.39,0,0,0-2.51-.88c-1.35,0-2.07.74-2.07,1.78a1.32,1.32,0,0,0,.42,1.05,2.21,2.21,0,0,0,1.25.52l1.36.2a3.66,3.66,0,0,1,2.11.85,3,3,0,0,1,.93,2.34C58.73,29.56,57,30.8,54.63,30.8Z"/><path class="cls-1" d="M72.25,30.71l-.93-1.12a4.44,4.44,0,0,1-3.15,1.21c-2.37,0-3.68-1.32-3.68-3.39,0-1.58,1.13-2.48,2.25-3.22a3.83,3.83,0,0,1-1.18-2.44,2.75,2.75,0,0,1,5.49,0,2.41,2.41,0,0,1-1.22,2l-.83.57,2.4,2.87A3.71,3.71,0,0,0,72,24.93h1.57a5.43,5.43,0,0,1-1.14,3.51l1.91,2.27Zm-4.61-5.49c-.83.57-1.54,1.1-1.54,2.16a1.94,1.94,0,0,0,2.07,1.94,3,3,0,0,0,2.18-.88Zm.7-4.58a1.06,1.06,0,0,0-1.12,1.12c0,.47.31.9.88,1.57l.55-.37a1.48,1.48,0,0,0,.83-1.18A1.1,1.1,0,0,0,68.34,20.64Z"/><path class="cls-1" d="M84.26,20.87v9.84H82.54V20.87H79.4V19.31h8v1.56Z"/><path class="cls-1" d="M95.67,29.65a4.35,4.35,0,0,1-5.89,0c-1.12-1.12-1.15-2.25-1.15-4.64s0-3.52,1.15-4.64a4.35,4.35,0,0,1,5.89,0c1.12,1.12,1.16,2.26,1.16,4.64S96.79,28.53,95.67,29.65Zm-1.25-8.19a2.38,2.38,0,0,0-3.39,0c-.56.61-.67,1.29-.67,3.55s.11,2.93.67,3.54a2.36,2.36,0,0,0,3.39,0c.58-.59.68-1.28.68-3.54S95,22.05,94.42,21.46Z"/><path class="cls-1" d="M108.52,30.71H107l-2.32-8-2.31,8h-1.5l-3-11.4h1.83l2,8.15L104,19.31h1.39l2.29,8.15,2-8.15h1.82Z"/><path class="cls-1" d="M120.15,30.71l-5.26-8v8h-1.73V19.31h1.58l5.27,8v-8h1.73v11.4Z"/><path class="cls-1" d="M131.07,30.71v-5h-4.63v5h-1.73V19.31h1.73v4.87h4.63V19.31h1.72v11.4Z"/><path class="cls-1" d="M142.39,29.65a4.35,4.35,0,0,1-5.89,0c-1.12-1.12-1.15-2.25-1.15-4.64s0-3.52,1.15-4.64a4.35,4.35,0,0,1,5.89,0c1.12,1.12,1.16,2.26,1.16,4.64S143.51,28.53,142.39,29.65Zm-1.25-8.19a2.38,2.38,0,0,0-3.39,0c-.56.61-.67,1.29-.67,3.55s.11,2.93.67,3.54a2.36,2.36,0,0,0,3.39,0c.58-.59.68-1.28.68-3.54S141.72,22.05,141.14,21.46Z"/><path class="cls-1" d="M150,30.8a3.86,3.86,0,0,1-4.08-3.93V19.31h1.73v7.48a2.36,2.36,0,1,0,4.72,0V19.31h1.73v7.56A3.88,3.88,0,0,1,150,30.8Z"/><path class="cls-1" d="M159.93,30.8a5.17,5.17,0,0,1-4-1.5L157,28.16A3.81,3.81,0,0,0,160,29.27c1.5,0,2.35-.64,2.35-1.76a1.48,1.48,0,0,0-.45-1.19,2.26,2.26,0,0,0-1.24-.48l-1.35-.19a3.78,3.78,0,0,1-2.14-.91,2.83,2.83,0,0,1-.85-2.19c0-2,1.44-3.33,3.81-3.33a4.74,4.74,0,0,1,3.54,1.29l-1.09,1.09a3.43,3.43,0,0,0-2.52-.88c-1.34,0-2.06.74-2.06,1.78a1.29,1.29,0,0,0,.42,1.05,2.17,2.17,0,0,0,1.24.52l1.36.2a3.73,3.73,0,0,1,2.12.85,3,3,0,0,1,.92,2.34C164,29.56,162.33,30.8,159.93,30.8Z"/><path class="cls-1" d="M166.34,30.71V19.31h7.29v1.56h-5.56v3.32h4.74v1.54h-4.74v3.43h5.56v1.55Z"/><path class="cls-1" d="M179,30.8a5.16,5.16,0,0,1-4-1.5l1.14-1.14a3.81,3.81,0,0,0,2.93,1.11c1.5,0,2.35-.64,2.35-1.76a1.48,1.48,0,0,0-.45-1.19,2.29,2.29,0,0,0-1.25-.48l-1.34-.19a3.84,3.84,0,0,1-2.15-.91,2.83,2.83,0,0,1-.84-2.19c0-2,1.44-3.33,3.8-3.33a4.71,4.71,0,0,1,3.54,1.29l-1.09,1.09a3.39,3.39,0,0,0-2.51-.88c-1.34,0-2.06.74-2.06,1.78a1.32,1.32,0,0,0,.41,1.05,2.24,2.24,0,0,0,1.25.52l1.36.2a3.66,3.66,0,0,1,2.11.85,3,3,0,0,1,.93,2.34C183.11,29.56,181.42,30.8,179,30.8Z"/></g></g></svg>