<svg xmlns="http://www.w3.org/2000/svg" viewBox="0 0 166.67 11.59"><defs><style>.cls-1{fill:#fff;}</style></defs><title>t1b-300x600</title><g id="Layer_2" data-name="Layer 2"><g id="Layer_1-2" data-name="Layer 1"><path class="cls-1" d="M0,11.49V.1H1.73V11.49Z"/><path class="cls-1" d="M11.7,11.49l-5.27-8v8H4.7V.1H6.29l5.26,8V.1h1.73V11.49Z"/><path class="cls-1" d="M27.09,11.49l-5.27-8v8H20.1V.1h1.58L27,8.1V.1h1.72V11.49Z"/><path class="cls-1" d="M31.65,11.49V.1h7.28V1.65H33.38V5h4.73V6.51H33.38V9.94h5.55v1.55Z"/><path class="cls-1" d="M50.59,11.49h-1.5l-2.32-8-2.31,8H43L40,.1h1.83l2,8.14L46.08.1h1.39l2.29,8.14,2-8.14h1.82Z"/><path class="cls-1" d="M68.37,11.49h-1.5l-2.33-8-2.3,8H60.73L57.76.1h1.82l2,8.14L63.86.1h1.39l2.29,8.14,2-8.14h1.83Z"/><path class="cls-1" d="M73,11.49V.1h7.28V1.65H74.73V5h4.74V6.51H74.73V9.94h5.56v1.55Z"/><path class="cls-1" d="M85.68,11.59a5.19,5.19,0,0,1-4-1.51L82.78,9a3.84,3.84,0,0,0,2.93,1.1c1.5,0,2.35-.64,2.35-1.76a1.44,1.44,0,0,0-.44-1.18,2.25,2.25,0,0,0-1.25-.48L85,6.43a3.78,3.78,0,0,1-2.14-.91A2.83,2.83,0,0,1,82,3.33C82,1.34,83.47,0,85.84,0a4.71,4.71,0,0,1,3.54,1.3L88.29,2.38a3.42,3.42,0,0,0-2.51-.88c-1.35,0-2.07.74-2.07,1.78a1.31,1.31,0,0,0,.42,1.06,2.24,2.24,0,0,0,1.25.51l1.36.21a3.69,3.69,0,0,1,2.11.85,3,3,0,0,1,.93,2.33C89.78,10.34,88.08,11.59,85.68,11.59Z"/><path class="cls-1" d="M96,1.65v9.84H94.22V1.65H91.09V.1h8V1.65Z"/><path class="cls-1" d="M109.38,11.49V3.87l-2.63,5.56h-1.28l-2.69-5.56v7.62h-1.73V.1h1.73l3.33,7.09L109.38.1h1.73V11.49Z"/><path class="cls-1" d="M114.06,11.49V.1h1.73V11.49Z"/><path class="cls-1" d="M125.76,11.49l-5.27-8v8h-1.72V.1h1.58l5.27,8V.1h1.72V11.49Z"/><path class="cls-1" d="M133.34,11.59a5.16,5.16,0,0,1-4-1.51L130.45,9a3.82,3.82,0,0,0,2.93,1.1c1.5,0,2.35-.64,2.35-1.76a1.45,1.45,0,0,0-.45-1.18A2.22,2.22,0,0,0,134,6.63l-1.34-.2a3.84,3.84,0,0,1-2.15-.91,2.83,2.83,0,0,1-.85-2.19c0-2,1.44-3.33,3.81-3.33A4.71,4.71,0,0,1,137,1.3L136,2.38a3.39,3.39,0,0,0-2.51-.88c-1.35,0-2.07.74-2.07,1.78a1.35,1.35,0,0,0,.42,1.06,2.28,2.28,0,0,0,1.25.51l1.36.21a3.66,3.66,0,0,1,2.11.85,3,3,0,0,1,.93,2.33C137.44,10.34,135.74,11.59,133.34,11.59Z"/><path class="cls-1" d="M143.62,1.65v9.84h-1.73V1.65h-3.14V.1h8V1.65Z"/><path class="cls-1" d="M148.72,11.49V.1H156V1.65h-5.55V5h4.73V6.51h-4.73V9.94H156v1.55Z"/><path class="cls-1" d="M164.66,11.49l-2.41-4.8h-2.16v4.8h-1.72V.1h4.41a3.26,3.26,0,0,1,3.54,3.32,3,3,0,0,1-2.27,3l2.62,5Zm-2-9.84h-2.56V5.22h2.56a1.74,1.74,0,0,0,1.94-1.78A1.74,1.74,0,0,0,162.65,1.65Z"/></g></g></svg>