<svg id="typo" xmlns="http://www.w3.org/2000/svg" viewBox="0 0 300 600"><defs><style>.cls-1{fill:#fff;}</style></defs><title>copy1</title><path class="cls-1" d="M76.85,317h3.77v3.4H76.87v4.18H72.79V312.27h8.33v3.47H76.85Z"/><path class="cls-1" d="M82.92,312.27h5.31a8.47,8.47,0,0,1,1.8.19,4.5,4.5,0,0,1,1.61.64,3.49,3.49,0,0,1,1.14,1.24,3.9,3.9,0,0,1,.43,1.94,3.62,3.62,0,0,1-.55,2,3.71,3.71,0,0,1-1.6,1.33l3.13,5H89.42l-2.36-4.41h-.12v4.41h-4Zm4,5.21h.81l.46,0a1.46,1.46,0,0,0,.46-.15A1.12,1.12,0,0,0,89,317a1,1,0,0,0,.14-.53,1,1,0,0,0-.12-.53.78.78,0,0,0-.31-.29,1.39,1.39,0,0,0-.41-.12l-.42,0h-1Z"/><path class="cls-1" d="M95.36,312.27h8.48v3.45H99.26v1.07h4.3V320h-4.3v1.15h4.88v3.45H95.36Z"/><path class="cls-1" d="M105.86,312.27H110v12.34h-4.18Z"/><path class="cls-1" d="M118.49,324.61h-4.14v-8.83h-3v-3.51h10.21v3.51h-3Z"/><path class="cls-1" d="M125.19,312.27h4.4l4.81,12.34h-4.51l-.64-1.81h-3.93l-.61,1.81h-4.39Zm2.14,4.31-1,3.05h2Z"/><path class="cls-1" d="M141.23,324.92a7.94,7.94,0,0,1-2.71-.45,6.21,6.21,0,0,1-2.16-1.3,5.78,5.78,0,0,1-1.43-2.05,7,7,0,0,1,0-5.36,6.12,6.12,0,0,1,1.42-2.06,6.29,6.29,0,0,1,2.13-1.31,7.24,7.24,0,0,1,2.61-.47,7.88,7.88,0,0,1,2.75.48,5.65,5.65,0,0,1,2.11,1.28l-2.42,2.91a2.86,2.86,0,0,0-.9-.72,2.8,2.8,0,0,0-1.29-.27,2.61,2.61,0,0,0-1,.2,2.58,2.58,0,0,0-.84.58,2.88,2.88,0,0,0-.59.89,2.78,2.78,0,0,0-.23,1.17,3.17,3.17,0,0,0,.67,2.1,2.64,2.64,0,0,0,2.15.81,3.27,3.27,0,0,0,.54,0,1.36,1.36,0,0,0,.44-.13v-.94h-2V317h5.66v6.74a6.21,6.21,0,0,1-1,.48,8.83,8.83,0,0,1-1.2.37,13,13,0,0,1-1.33.26A11,11,0,0,1,141.23,324.92Z"/><path class="cls-1" d="M147.33,326.7l1.43-5.45h3.8l-2,5.45Z"/><path class="cls-1" d="M163.22,317.48a2.31,2.31,0,0,0,.49-.5,1,1,0,0,0,.19-.58.92.92,0,0,0-.22-.61.84.84,0,0,0-.68-.26,1.06,1.06,0,0,0-.84.4,1.86,1.86,0,0,0-.37,1.08l-3.95-.45a5.19,5.19,0,0,1,.62-2.07,4.82,4.82,0,0,1,1.27-1.45,5.37,5.37,0,0,1,1.69-.85,6.85,6.85,0,0,1,1.92-.27,7.42,7.42,0,0,1,1.81.23,4.8,4.8,0,0,1,1.59.71,3.64,3.64,0,0,1,1.13,1.24,3.7,3.7,0,0,1,.44,1.85,4.26,4.26,0,0,1-.2,1.35,3.94,3.94,0,0,1-.54,1,5.42,5.42,0,0,1-.77.82,10.67,10.67,0,0,1-.9.69l-1.81,1.29h4.25v3.47h-10v-3.22Z"/><path class="cls-1" d="M175.49,325a6,6,0,0,1-2-.3,4.55,4.55,0,0,1-1.46-.8,4.72,4.72,0,0,1-1-1.17,6.52,6.52,0,0,1-.65-1.39,9.56,9.56,0,0,1-.33-1.48,11.56,11.56,0,0,1,0-2.88,9.07,9.07,0,0,1,.33-1.46,6.29,6.29,0,0,1,.65-1.36,4.38,4.38,0,0,1,1-1.13,4.52,4.52,0,0,1,1.46-.78,6.28,6.28,0,0,1,2-.29,5.6,5.6,0,0,1,2.79.62,4.93,4.93,0,0,1,1.69,1.57,6.07,6.07,0,0,1,.83,2.09,11.29,11.29,0,0,1,.23,2.17,10.58,10.58,0,0,1-.1,1.44,7.8,7.8,0,0,1-.33,1.49,7,7,0,0,1-.63,1.39,4.72,4.72,0,0,1-1,1.17,4.88,4.88,0,0,1-1.48.8A6,6,0,0,1,175.49,325Zm0-9.46a.79.79,0,0,0-.63.26,1.78,1.78,0,0,0-.38.68,3.74,3.74,0,0,0-.19.93,8.64,8.64,0,0,0-.06,1,9.33,9.33,0,0,0,.06,1,4.17,4.17,0,0,0,.19,1,1.87,1.87,0,0,0,.38.7.8.8,0,0,0,.63.27.82.82,0,0,0,.63-.27,1.75,1.75,0,0,0,.39-.7,5.57,5.57,0,0,0,.18-1c0-.36.05-.7.05-1s0-.66-.05-1a5,5,0,0,0-.18-.93,1.67,1.67,0,0,0-.39-.68A.81.81,0,0,0,175.49,315.5Z"/><path class="cls-1" d="M182.42,322.64a2,2,0,0,1,.19-.88,2.23,2.23,0,0,1,.5-.71,2.49,2.49,0,0,1,.75-.49,2.26,2.26,0,0,1,.9-.18,2.11,2.11,0,0,1,.86.18,2.36,2.36,0,0,1,.72.49,2.23,2.23,0,0,1,.5.71,2.16,2.16,0,0,1,.18.88,2.25,2.25,0,0,1-.18.89,2,2,0,0,1-.5.71,2.3,2.3,0,0,1-.72.47,2.11,2.11,0,0,1-.86.18,2.26,2.26,0,0,1-.9-.18,2.44,2.44,0,0,1-.75-.47,2,2,0,0,1-.5-.71A2.09,2.09,0,0,1,182.42,322.64Z"/><path class="cls-1" d="M198.38,325a7.3,7.3,0,0,1-2.51-.4,5.16,5.16,0,0,1-1.79-1.1,4.23,4.23,0,0,1-1.06-1.65,5.68,5.68,0,0,1-.35-2v-7.5h4.14v7a2.1,2.1,0,0,0,.43,1.39,1.52,1.52,0,0,0,1.21.49,1.49,1.49,0,0,0,1.21-.49,2,2,0,0,0,.43-1.39v-7h4.13v7.5a5.69,5.69,0,0,1-.37,2,4.46,4.46,0,0,1-1.11,1.65,5.4,5.4,0,0,1-1.82,1.1A7.52,7.52,0,0,1,198.38,325Z"/><path class="cls-1" d="M206.35,312.27h4.12l3.52,6.26h.07l-.17-6.26h3.94v12.34h-4.24l-3.41-5.89h-.07l.17,5.89h-3.93Z"/><path class="cls-1" d="M220.13,324.61V312.27h4.6a13.26,13.26,0,0,1,2.79.29,6.49,6.49,0,0,1,2.36,1,5.14,5.14,0,0,1,1.63,1.88,6.41,6.41,0,0,1,.61,2.94,6.29,6.29,0,0,1-.59,2.81,5.53,5.53,0,0,1-1.56,1.94,6.6,6.6,0,0,1-2.25,1.12,9.25,9.25,0,0,1-2.64.37Zm4-8.82V321h.76a3.45,3.45,0,0,0,2.25-.64,2.51,2.51,0,0,0,.79-2.07,2.34,2.34,0,0,0-.79-1.87,3.14,3.14,0,0,0-2.09-.67Z"/><path class="cls-1" d="M63.31,345.87a8.17,8.17,0,0,1-2.86-.51,9.85,9.85,0,0,1-1.27-.59,6.51,6.51,0,0,1-1.06-.76l2.53-2.74a3.93,3.93,0,0,0,1.16.83,3.16,3.16,0,0,0,1.49.37,1.61,1.61,0,0,0,.63-.12.46.46,0,0,0,.29-.46.43.43,0,0,0-.1-.29.91.91,0,0,0-.34-.26,5.46,5.46,0,0,0-.67-.28c-.28-.11-.64-.23-1.07-.37a9.16,9.16,0,0,1-1.2-.5,4.33,4.33,0,0,1-1-.71,3.13,3.13,0,0,1-.71-1,3.5,3.5,0,0,1-.26-1.4,3.87,3.87,0,0,1,.47-2,4.26,4.26,0,0,1,1.21-1.32,5,5,0,0,1,1.67-.74,7.65,7.65,0,0,1,1.83-.23,7.15,7.15,0,0,1,2.48.47,6.81,6.81,0,0,1,2.22,1.36l-2.58,2.63a2.76,2.76,0,0,0-1-.79,2.72,2.72,0,0,0-1.09-.27,1.67,1.67,0,0,0-.73.13.44.44,0,0,0-.28.43.46.46,0,0,0,.28.42,9.74,9.74,0,0,0,.94.35c.44.13.9.3,1.39.48a5.85,5.85,0,0,1,1.35.73,3.79,3.79,0,0,1,1,1.09,3,3,0,0,1,.4,1.6A4.11,4.11,0,0,1,68,343.4a4.35,4.35,0,0,1-1.17,1.38,5.21,5.21,0,0,1-1.63.82A6.42,6.42,0,0,1,63.31,345.87Z"/><path class="cls-1" d="M73.45,333.18h4.41l4.81,12.34H78.16l-.65-1.81H73.59L73,345.52H68.59Zm2.15,4.31-1,3h2Z"/><path class="cls-1" d="M87.22,338.55l.19,7H83.54V333.18H89l2.23,6.64h.09l1.93-6.64h5.6v12.34h-4l.12-6.94h-.1l-2.3,6.95H89.57l-2.26-7Z"/><path class="cls-1" d="M105.15,345.87a8.29,8.29,0,0,1-2.87-.51,9.13,9.13,0,0,1-1.26-.59A6.11,6.11,0,0,1,100,344l2.52-2.74a4.07,4.07,0,0,0,1.16.83,3.19,3.19,0,0,0,1.49.37,1.69,1.69,0,0,0,.64-.12.45.45,0,0,0,.28-.46.48.48,0,0,0-.09-.29,1.11,1.11,0,0,0-.34-.26,6.23,6.23,0,0,0-.67-.28l-1.07-.37a9.92,9.92,0,0,1-1.21-.5,4.33,4.33,0,0,1-1-.71,3.11,3.11,0,0,1-.7-1,3.33,3.33,0,0,1-.26-1.4,3.77,3.77,0,0,1,.47-2,4.14,4.14,0,0,1,1.21-1.32,5,5,0,0,1,1.66-.74,7.77,7.77,0,0,1,1.83-.23,7.15,7.15,0,0,1,2.48.47,6.75,6.75,0,0,1,2.23,1.36L108,337.29a3,3,0,0,0-2.13-1.06,1.7,1.7,0,0,0-.73.13.44.44,0,0,0-.28.43.47.47,0,0,0,.29.42,8.44,8.44,0,0,0,.93.35c.44.13.91.3,1.39.48a6.13,6.13,0,0,1,1.36.73,3.63,3.63,0,0,1,1,1.09,3,3,0,0,1,.41,1.6,4,4,0,0,1-.45,1.94,4.11,4.11,0,0,1-1.17,1.38,5.1,5.1,0,0,1-1.63.82A6.4,6.4,0,0,1,105.15,345.87Z"/><path class="cls-1" d="M117.8,345.52h-4.15v-8.84h-3v-3.5h10.21v3.5h-3Z"/><path class="cls-1" d="M124.49,333.18h4.41l4.81,12.34h-4.52l-.64-1.81h-3.92l-.61,1.81h-4.39Zm2.14,4.31-1,3h2Z"/><path class="cls-1" d="M140.54,345.83a7.9,7.9,0,0,1-2.71-.45,6.36,6.36,0,0,1-2.16-1.3,6,6,0,0,1-1.44-2.05,7.17,7.17,0,0,1,0-5.36,6.14,6.14,0,0,1,1.43-2.06,6.33,6.33,0,0,1,2.12-1.32,7.56,7.56,0,0,1,2.62-.46,8.09,8.09,0,0,1,2.74.47,5.85,5.85,0,0,1,2.12,1.29l-2.42,2.91a3,3,0,0,0-.91-.72,2.8,2.8,0,0,0-1.29-.27,2.53,2.53,0,0,0-1,.2,2.47,2.47,0,0,0-.85.58,2.91,2.91,0,0,0-.82,2.06,3.17,3.17,0,0,0,.67,2.1,2.65,2.65,0,0,0,2.15.81,3.27,3.27,0,0,0,.54,0,1.55,1.55,0,0,0,.44-.13v-.95h-2v-3.25h5.67v6.74a7.35,7.35,0,0,1-1,.48,9.41,9.41,0,0,1-1.2.37,13,13,0,0,1-1.33.26A10.93,10.93,0,0,1,140.54,345.83Z"/><path class="cls-1" d="M146.63,347.61l1.43-5.45h3.8l-2,5.45Z"/><path class="cls-1" d="M162.52,338.39a2.31,2.31,0,0,0,.49-.5,1,1,0,0,0,.19-.58,1,1,0,0,0-.21-.61.88.88,0,0,0-.69-.26,1,1,0,0,0-.84.4,1.79,1.79,0,0,0-.36,1.08l-4-.45a5.13,5.13,0,0,1,.63-2.08A4.75,4.75,0,0,1,159,334a5.27,5.27,0,0,1,1.69-.85,6.87,6.87,0,0,1,1.93-.27,7.4,7.4,0,0,1,1.8.23,4.8,4.8,0,0,1,1.59.71,3.58,3.58,0,0,1,1.14,1.24,3.69,3.69,0,0,1,.43,1.85,4.26,4.26,0,0,1-.2,1.35,3.67,3.67,0,0,1-.54,1,4.92,4.92,0,0,1-.77.81,10.15,10.15,0,0,1-.89.7l-1.81,1.29h4.25v3.47h-10v-3.23Z"/><path class="cls-1" d="M173.71,337.57,171.64,339l-1.95-3,4.37-2.79h3.83v12.34h-4.18Z"/><path class="cls-1" d="M181.73,343.55a2.16,2.16,0,0,1,.18-.88,2.23,2.23,0,0,1,.5-.71,2.49,2.49,0,0,1,.75-.49,2.34,2.34,0,0,1,.9-.19,2.11,2.11,0,0,1,.86.19,2.29,2.29,0,0,1,.73.49,2.37,2.37,0,0,1,.49.71,2.17,2.17,0,0,1,.19.88,2.27,2.27,0,0,1-.68,1.6,2.23,2.23,0,0,1-.73.47,2.11,2.11,0,0,1-.86.18,2.33,2.33,0,0,1-.9-.18,2.44,2.44,0,0,1-.75-.47,2.12,2.12,0,0,1-.5-.71A2.25,2.25,0,0,1,181.73,343.55Z"/><path class="cls-1" d="M195.82,338.55l.19,7h-3.87V333.18h5.43l2.23,6.64h.09l1.94-6.64h5.6v12.34h-4.05l.12-6.94h-.1l-2.3,6.95h-2.93l-2.26-7Z"/><path class="cls-1" d="M213.14,333.18h4.41l4.81,12.34h-4.52l-.64-1.81h-3.92l-.61,1.81h-4.39Zm-1.69-2.61a1.66,1.66,0,0,1,.14-.66,1.64,1.64,0,0,1,.38-.55,2.13,2.13,0,0,1,.56-.38,1.72,1.72,0,0,1,.68-.14,1.66,1.66,0,0,1,.66.14,1.93,1.93,0,0,1,.55.38,1.8,1.8,0,0,1,.38.55,1.66,1.66,0,0,1,.14.66,1.64,1.64,0,0,1-.14.67,2,2,0,0,1-.38.54,1.72,1.72,0,0,1-.55.37,1.85,1.85,0,0,1-.66.13,1.79,1.79,0,0,1-1.25-.49A1.62,1.62,0,0,1,211.45,330.57Zm3.83,6.92-1,3h2Zm.51-6.92a1.51,1.51,0,0,1,.14-.66,1.64,1.64,0,0,1,.38-.55,2,2,0,0,1,.56-.38,1.69,1.69,0,0,1,.68-.14,1.66,1.66,0,0,1,.66.14,1.93,1.93,0,0,1,.55.38,1.62,1.62,0,0,1,.37.55,1.51,1.51,0,0,1,.14.66,1.49,1.49,0,0,1-.14.67,1.79,1.79,0,0,1-.37.54,1.72,1.72,0,0,1-.55.37,1.85,1.85,0,0,1-.66.13,1.79,1.79,0,0,1-1.25-.49A1.62,1.62,0,0,1,215.79,330.57Z"/><path class="cls-1" d="M223.23,333.18h5.31a9.18,9.18,0,0,1,1.81.18,4.73,4.73,0,0,1,1.6.65,3.49,3.49,0,0,1,1.14,1.24,3.89,3.89,0,0,1,.44,1.94,3.52,3.52,0,0,1-2.16,3.33l3.13,5h-4.76l-2.36-4.41h-.13v4.41h-4Zm4,5.21H228l.46,0a1.84,1.84,0,0,0,.47-.15,1.19,1.19,0,0,0,.36-.31.91.91,0,0,0,.15-.54,1,1,0,0,0-.12-.52.88.88,0,0,0-.32-.29,1.31,1.31,0,0,0-.41-.12,3.1,3.1,0,0,0-.42,0h-1Z"/><path class="cls-1" d="M235.29,342.05l4.61-5.44h-4.42v-3.43h9.84v3l-4.91,5.8h5.05v3.54H235.29Z"/></svg>