<svg id="logo" xmlns="http://www.w3.org/2000/svg" viewBox="0 0 300 600"><defs><style>.cls-1{fill:#1d1d1b;}.cls-2{fill:#e40521;}</style></defs><title>logo</title><path class="cls-1" d="M203.84,50.29c-.39,1.8-.83,3.52-1.06,5.46-5.94.16-12.39.07-18.23.14.93-1.64,2-3.18,3.1-4.72,3.15-4.59,6.34-9.18,9.42-13.92-1.49-.07-2.89-.2-4.26-.2a6.43,6.43,0,0,0-6.45,4.52,3.17,3.17,0,0,1-1.15,0,50.24,50.24,0,0,0,1.17-6.25c5.24.72,11.78.38,17.45.2-4.11,6.28-8.47,12.3-12.59,18.57a7.51,7.51,0,0,0,2,.17,34.5,34.5,0,0,0,4,.26,6,6,0,0,0,5.55-4.33c.26-.09.67.07,1,.1"/><path class="cls-1" d="M165.5,41c-.12,2.34,0,4.91,0,7.33l-2.13-2.15a42.52,42.52,0,0,0,.1-5.86A3.67,3.67,0,0,0,159.69,37c0-.41,0-.81,0-1.24a42.59,42.59,0,0,0,7.32,0q5.87,6.44,11.82,12.79c-.16-2.66.37-6.41,0-9a3,3,0,0,0-3.31-2.57,6.35,6.35,0,0,1,.05-1.27,37,37,0,0,0,8.41,0v1.25c-4.07-.28-3.1,5.2-3.07,9.29,0,3.85,0,6.65.15,9.71h-1.59c-4.73-4.89-9.29-9.95-14-14.88"/><path class="cls-1" d="M115.67,37.21c.25,1.6.56,3.31.93,4.76a8.38,8.38,0,0,1-1.24.06,5.61,5.61,0,0,0-4.86-4.23c-1.78-.2-3.66.17-5.68,0,0,2.5,0,5,0,7.5,2-.09,4.25.31,5.51-.65a3.28,3.28,0,0,0,1.18-2.4,9.48,9.48,0,0,1,1.07,0,29.54,29.54,0,0,0,0,8.24h-1.14c.16-3.46-3.69-3.16-6.6-3-.05,3.43-.79,8,3.22,7.58,0,.38,0,.76,0,1.14a69.77,69.77,0,0,0-11.29,0c0-.38,0-.75,0-1.12a3.71,3.71,0,0,0,2-.42c1.78-1.28,1.22-5.08,1.21-8.58,0-2.2.1-4.44,0-6a3.63,3.63,0,0,0-1.16-2.55,4.23,4.23,0,0,0-2.16-.43c0-.38,0-.75,0-1.15,6,0,12.9.51,18.53-.31.38.25.31,1,.4,1.54"/><path class="cls-1" d="M125.82,46.18q0-4.23,0-8.46c0-.08,0-.16.06-.17,3.76-.37,6.95.64,7,3.94.07,3.47-2.72,5.09-7,4.69m7.28.93a6.65,6.65,0,0,0,3.8-2.47,6,6,0,0,0-1.24-7.32c-2.81-2.16-8.09-1.25-12.55-1.22-1.84,0-3.61-.13-5.35-.15,0,.39,0,.79,0,1.18a4.8,4.8,0,0,1,2.12.33,3.5,3.5,0,0,1,1.31,2.31c.18,1.8,0,4.08,0,6.32s.22,4.54,0,6.3-1.44,2.74-3.39,2.64c0,.38,0,.75,0,1.12a76.79,76.79,0,0,1,11.35,0V55c-3.85.43-3.5-3.67-3.33-7.1.75,0,1.52,0,2.28,0a19.11,19.11,0,0,0,8.67,8.26l.76-2.67a17.91,17.91,0,0,1-4.5-6.35"/><path class="cls-2" d="M145.4,27.23C142.88,35.72,134.9,62.4,134.16,65c12.67-2.92,25.67-6,38.36-9.1C170.46,53.58,151,33,145.4,27.23"/></svg>