<svg id="Layer_1" data-name="Layer 1" xmlns="http://www.w3.org/2000/svg" viewBox="0 0 320 50"><path d="M114.85,31.11c0,.32,0,.65,0,1s-.1.51-.47.51c-.69,0-.41-1.37-1.62-2a3.69,3.69,0,0,0-1.77-.25c-.18,0-.21.08-.21.22v8a4.5,4.5,0,0,0,.18,1.66c.3.63.88.59.88.95s-.22.32-.48.32h-2.87c-.26,0-.46-.09-.46-.32,0-.41.61-.31.89-1a5.09,5.09,0,0,0,.16-1.63v-8c0-.12,0-.22-.22-.22a3.27,3.27,0,0,0-1.9.33c-1,.59-.78,1.91-1.47,1.91-.28,0-.45-.16-.45-.51s0-.69,0-1,0-.81,0-1.28.21-.49.71-.49,1.4.12,2.88.12h2.49c1.5,0,2.39-.12,2.89-.12s.66.08.69.49S114.83,30.69,114.85,31.11Z"/><path d="M121.73,40.45a.27.27,0,0,1,.28.27,1.28,1.28,0,0,1-1.26.94,1.29,1.29,0,0,1-1.28-1.33s0-.08,0-.08,0,0-.07.06a3.18,3.18,0,0,1-2.69,1.35,2.35,2.35,0,0,1-2.63-2.17,2.18,2.18,0,0,1,1-1.83,20.24,20.24,0,0,1,2.84-1.22,2,2,0,0,0,1.42-1.7,1.35,1.35,0,0,0-1.47-1.38,2.34,2.34,0,0,0-2,1.25c-.34.47-.39.77-.76.77s-.47-.38-.47-.82a2.18,2.18,0,0,1,.29-1.23c.45-.59,1.81-.83,2.77-.83,2.16,0,3.27,1.22,3.27,2.88,0,1.32-.05,2.86-.05,4.21,0,.59.2.86.54.86Zm-2.37-3.72a.07.07,0,0,0-.06-.07s0,0-.11.07c-.59.45-1.7.74-2.51,1.28a1.66,1.66,0,0,0-.84,1.4,1.24,1.24,0,0,0,1.34,1.27A2,2,0,0,0,119,39.49a5.49,5.49,0,0,0,.36-2.47Z"/><path d="M132.05,41.17c0,.21-.16.31-.46.31h-2.76c-.34,0-.47-.1-.47-.27,0-.34.49-.29.49-.68a1.52,1.52,0,0,0-.39-.77l-1.4-1.87c0-.07-.06-.1-.11-.1s-.09.05-.12.1l-.69,1a3.51,3.51,0,0,0-.69,1.39c0,.56.72.44.72.85,0,.2-.18.32-.49.32h-2.37c-.3,0-.51-.1-.51-.31s.27-.33.56-.52a6.11,6.11,0,0,0,1.46-1.5c.32-.4,1-1.28,1.5-2,.05-.07.07-.1.07-.14s0-.08-.07-.15L125,35.1a6.38,6.38,0,0,0-1.43-1.53c-.37-.26-.71-.27-.71-.56s.15-.32.46-.32H126c.33,0,.47.1.47.3s-.46.31-.46.63a1.81,1.81,0,0,0,.42.82l1.35,1.82c0,.07.08.12.12.12s.07,0,.12-.1c.38-.58.84-1.25,1.12-1.76a1.32,1.32,0,0,0,.26-.67c0-.5-.71-.47-.71-.84s.15-.32.47-.32h2.37c.31,0,.51.08.51.3s-.29.34-.56.52A6,6,0,0,0,130,35l-1.5,2a.25.25,0,0,0,0,.11.24.24,0,0,0,0,.12l1.38,1.82a6.2,6.2,0,0,0,1.4,1.51C131.67,40.87,132.05,40.89,132.05,41.17Z"/></svg>