<svg id="Layer_1" data-name="Layer 1" xmlns="http://www.w3.org/2000/svg" viewBox="0 0 320 50"><path d="M74.07,33c0,.37-.49.36-.93.86a6.8,6.8,0,0,0-.87,1.6c-.42,1-1.74,4.22-2.33,5.62a6.52,6.52,0,0,1-2.33,3.28,2.51,2.51,0,0,1-1.27.37A1.2,1.2,0,0,1,65,43.44c0-.42.17-.82.58-.82s.6.71,1.41.71,1.28-.9,1.62-1.55a.45.45,0,0,0,0-.17.42.42,0,0,0,0-.15l-2.47-6.31a3.93,3.93,0,0,0-.86-1.6c-.29-.22-.66-.22-.66-.54s.15-.32.52-.32h2.75c.27,0,.44.12.44.3,0,.41-.8.32-.8,1a2.94,2.94,0,0,0,.27,1l1.74,4.29c0,.09,0,.1.07.1s.05,0,.08-.1l1.19-3a6.92,6.92,0,0,0,.63-2.08c0-.91-.83-.75-.83-1.2,0-.22.2-.32.51-.32h2.34C73.88,32.69,74.07,32.77,74.07,33Z"/><path d="M83,37a4.39,4.39,0,0,1-4.27,4.63,4.16,4.16,0,0,1-4.3-4.51A4.42,4.42,0,0,1,78.8,32.5C81.47,32.5,83,34.49,83,37Zm-4.46-3.68c-1.48,0-2.39,1.31-2.39,3.18,0,2.32,1.09,4.26,2.74,4.26s2.39-1.62,2.39-3.27C81.3,35.58,80.45,33.35,78.56,33.35Z"/><path d="M93.67,40.72c0,.2-.11.32-.45.39a9.76,9.76,0,0,0-1.55.47,1.08,1.08,0,0,1-.35.08c-.24,0-.37-.13-.37-.45V40.16a0,0,0,0,0,0,0s-.05,0-.09.09a3.24,3.24,0,0,1-2.72,1.46A2.61,2.61,0,0,1,86,40.72a3.64,3.64,0,0,1-.62-2.38V35.52a2.69,2.69,0,0,0-.17-1.37c-.27-.42-1-.3-1-.74,0-.16.12-.28.46-.35a9,9,0,0,0,1.51-.45.93.93,0,0,1,.39-.11c.22,0,.37.14.37.44v5.37c0,1.16.54,2.07,1.75,2.07a2,2,0,0,0,1.41-.57c.63-.62.83-1.57.83-4.14a3.21,3.21,0,0,0-.17-1.52c-.29-.42-1-.3-1-.7,0-.19.08-.31.45-.39a8.61,8.61,0,0,0,1.59-.49.79.79,0,0,1,.32-.08c.22,0,.37.15.37.45v5.71A2.77,2.77,0,0,0,92.72,40C93,40.4,93.67,40.33,93.67,40.72Z"/><path d="M101.2,33.63c0,.41-.14.78-.58.78S100,34,99.5,34a1.13,1.13,0,0,0-1,.59c-.41.6-.69,1.39-.69,3.9a4.33,4.33,0,0,0,.2,1.72c.3.6.86.54.86.91s-.2.32-.47.32H95.66c-.27,0-.47-.09-.47-.32s.6-.34.87-.95a4.7,4.7,0,0,0,.19-1.68v-3A2.57,2.57,0,0,0,96,34.17c-.3-.44-1-.37-1-.74,0-.18.1-.3.45-.37a5.88,5.88,0,0,0,1.38-.45,1,1,0,0,1,.41-.11c.25,0,.39.17.39.48v1.33s0,.06,0,.06,0,0,.07-.08a3,3,0,0,1,2.34-1.79A1,1,0,0,1,101.2,33.63Z"/></svg>