<svg xmlns="http://www.w3.org/2000/svg" viewBox="0 0 103.75 39.89"><defs><style>.cls-1{fill:#fff;}</style></defs><title>t2b-160x600</title><g id="Layer_2" data-name="Layer 2"><g id="Layer_1-2" data-name="Layer 1"><path class="cls-1" d="M0,10.74A2.89,2.89,0,0,1,1.69,8a12.21,12.21,0,0,1,5.22-.92h.35c0-1.37-.73-2-2.21-2A2.73,2.73,0,0,0,2.4,6.63s-.17,0-.5,0a2.25,2.25,0,0,1-1-.36,1,1,0,0,1-.5-.93A2.28,2.28,0,0,1,1.67,3.43a6.72,6.72,0,0,1,3.59-.81c3.4,0,5.11,1.48,5.11,4.43v6.36c0,.07-.13.14-.37.22a2.66,2.66,0,0,1-.82.12,1.74,1.74,0,0,1-1.85-1.69A4.25,4.25,0,0,1,3.6,13.85,3.87,3.87,0,0,1,1,13,2.88,2.88,0,0,1,0,10.74Zm3-.22a1.14,1.14,0,0,0,.46.94,1.88,1.88,0,0,0,1.21.36,2.67,2.67,0,0,0,1.89-.69A2.25,2.25,0,0,0,7.26,9.4V8.78l-.57,0a8.1,8.1,0,0,0-2.8.44A1.33,1.33,0,0,0,3,10.52Z"/><path class="cls-1" d="M11.39,4.21V4c0-.76.44-1.14,1.3-1.14h.52V1.5Q13.21,0,14.62,0h.26c.93,0,1.39.5,1.39,1.5V2.87h1.86c.84,0,1.26.36,1.26,1.09v.18c0,.75-.43,1.14-1.28,1.15h-1.9v4.6c0,1,.39,1.58,1.19,1.58a1.73,1.73,0,0,0,1.39-.72s.08,0,.2.07a1.07,1.07,0,0,1,.36.43,1.35,1.35,0,0,1,.18.7,1.65,1.65,0,0,1-.78,1.38,3.49,3.49,0,0,1-2.06.56q-3.5,0-3.48-3.67V5.29h-.52C11.83,5.29,11.39,4.93,11.39,4.21Z"/><path class="cls-1" d="M24.6,12.21V3.1s0-.07.15-.12a1.8,1.8,0,0,1,.44-.16,2.25,2.25,0,0,1,.58-.07,1.77,1.77,0,0,1,1.87,1.71,4.09,4.09,0,0,1,3.54-1.84,3.61,3.61,0,0,1,3,1.23,5,5,0,0,1,1,3.22v5.14c0,1-.45,1.48-1.36,1.48h-.34c-.93,0-1.4-.5-1.4-1.49V7.48a2.54,2.54,0,0,0-.52-1.7,1.77,1.77,0,0,0-1.46-.62,2.48,2.48,0,0,0-2.37,1.41V12.2c0,1-.46,1.49-1.37,1.49H26C25.07,13.69,24.6,13.2,24.6,12.21Z"/><path class="cls-1" d="M36.68,8.24a5.42,5.42,0,0,1,1.61-4,5.69,5.69,0,0,1,4.16-1.57A5.56,5.56,0,0,1,46.56,4.2a5.5,5.5,0,0,1,1.59,4.09,5.38,5.38,0,0,1-1.59,4.06,5.69,5.69,0,0,1-4.15,1.54,5.66,5.66,0,0,1-4.14-1.56A5.47,5.47,0,0,1,36.68,8.24Zm2.73,0a3.27,3.27,0,0,0,.86,2.33,2.88,2.88,0,0,0,2.16.9,2.79,2.79,0,0,0,2.14-.9,3.21,3.21,0,0,0,.85-2.28A3.26,3.26,0,0,0,44.57,6,2.74,2.74,0,0,0,42.43,5,2.86,2.86,0,0,0,40.27,6,3.21,3.21,0,0,0,39.41,8.24Z"/><path class="cls-1" d="M52.85,8.31a5.6,5.6,0,0,1,1.58-4.07,5.4,5.4,0,0,1,4-1.62,5.18,5.18,0,0,1,3.86,1.5A5.26,5.26,0,0,1,63.8,8v.22a1.21,1.21,0,0,1-.17.65.66.66,0,0,1-.56.21H55.65a2.57,2.57,0,0,0,1,1.76,3.43,3.43,0,0,0,2.13.64,3.3,3.3,0,0,0,3-1.49s.14,0,.38,0a1.78,1.78,0,0,1,.73.42,1.07,1.07,0,0,1,.37.84A2.21,2.21,0,0,1,62,13.08a6.19,6.19,0,0,1-3.38.81,5.88,5.88,0,0,1-4.23-1.52A5.38,5.38,0,0,1,52.85,8.31Zm2.81-1.05H61a2.63,2.63,0,0,0-.72-1.8,2.44,2.44,0,0,0-1.8-.68,2.62,2.62,0,0,0-1.83.69A3,3,0,0,0,55.66,7.26Z"/><path class="cls-1" d="M64.31,12.7l3.25-4.45L64.33,3.77c0-.06,0-.17.17-.33A1.9,1.9,0,0,1,65.14,3a2,2,0,0,1,.91-.23,1.86,1.86,0,0,1,1.73,1.13L69.6,6.71l1.83-2.85a1.9,1.9,0,0,1,1.7-1.13,2.06,2.06,0,0,1,.93.23,2.24,2.24,0,0,1,.68.48c.11.12.17.21.16.28a.43.43,0,0,1,0,0L71.61,8.25l3.23,4.45q.07.08-.15.33a2.58,2.58,0,0,1-.67.47,2.12,2.12,0,0,1-1,.23,1.84,1.84,0,0,1-1.67-1.12L69.56,9.75l-1.81,2.86a1.86,1.86,0,0,1-1.7,1.12,2.05,2.05,0,0,1-.92-.23,2.58,2.58,0,0,1-.67-.48c-.12-.13-.17-.22-.17-.28S64.3,12.7,64.31,12.7Z"/><path class="cls-1" d="M75.51,4.21V4q0-1.14,1.29-1.14h.52V1.5c0-1,.47-1.49,1.42-1.5H79c.93,0,1.39.5,1.39,1.5V2.87h1.87c.83,0,1.25.36,1.25,1.09v.18c0,.75-.42,1.14-1.27,1.15H80.32v4.6c0,1,.4,1.58,1.19,1.58a1.71,1.71,0,0,0,1.39-.72s.08,0,.21.07a1.25,1.25,0,0,1,.36.43,1.45,1.45,0,0,1,.17.7,1.65,1.65,0,0,1-.78,1.38,3.47,3.47,0,0,1-2.06.56q-3.48,0-3.48-3.67V5.29H76.8Q75.51,5.29,75.51,4.21Z"/><path class="cls-1" d="M85.09,12.21V3.1s0-.07.15-.12a1.7,1.7,0,0,1,.43-.16,2.3,2.3,0,0,1,.58-.07,1.77,1.77,0,0,1,1.9,1.78,2.61,2.61,0,0,1,2.61-1.91,2.15,2.15,0,0,1,1.46.47,1.65,1.65,0,0,1,.54,1.3,1.8,1.8,0,0,1-.24.94,1.75,1.75,0,0,1-.48.56c-.15.1-.24.14-.27.11a2,2,0,0,0-1.4-.54c-1.45,0-2.18,1.17-2.18,3.5V12.2c0,1-.45,1.49-1.37,1.49H86.5C85.56,13.69,85.09,13.2,85.09,12.21Z"/><path class="cls-1" d="M93.39,10.74A2.89,2.89,0,0,1,95.08,8a12.21,12.21,0,0,1,5.22-.92h.35c0-1.37-.74-2-2.21-2a2.73,2.73,0,0,0-2.65,1.59s-.17,0-.5,0a2.25,2.25,0,0,1-1-.36,1,1,0,0,1-.51-.93,2.29,2.29,0,0,1,1.28-1.93,6.7,6.7,0,0,1,3.59-.81q5.1,0,5.1,4.43v6.36c0,.07-.12.14-.37.22a2.55,2.55,0,0,1-.81.12,1.73,1.73,0,0,1-1.85-1.69A4.25,4.25,0,0,1,97,13.85,3.85,3.85,0,0,1,94.35,13,2.88,2.88,0,0,1,93.39,10.74Zm3-.22a1.11,1.11,0,0,0,.46.94,1.88,1.88,0,0,0,1.21.36,2.68,2.68,0,0,0,1.89-.69,2.25,2.25,0,0,0,.74-1.73V8.78l-.57,0a8.1,8.1,0,0,0-2.8.44A1.33,1.33,0,0,0,96.35,10.52Z"/><path class="cls-1" d="M28.52,34.23a5.39,5.39,0,0,1,1.59-4,5.54,5.54,0,0,1,4.06-1.58,5.3,5.3,0,0,1,3.4,1,2.66,2.66,0,0,1,1.19,2,1.12,1.12,0,0,1-.42.91,2,2,0,0,1-.84.44c-.28.06-.43.06-.46,0a2.69,2.69,0,0,0-2.74-1.75,2.8,2.8,0,0,0-2.1.86,3.05,3.05,0,0,0-.82,2.19,3.17,3.17,0,0,0,.82,2.25,2.77,2.77,0,0,0,2.1.87A2.71,2.71,0,0,0,37,35.6c0-.06.16-.06.45,0a1.83,1.83,0,0,1,.85.44,1.17,1.17,0,0,1,.42.94,2.69,2.69,0,0,1-1.22,1.95,5.24,5.24,0,0,1-3.37,1,5.44,5.44,0,0,1-5.65-5.66Z"/><path class="cls-1" d="M39.71,34.24a5.38,5.38,0,0,1,1.61-4.05,5.67,5.67,0,0,1,4.16-1.57,5.59,5.59,0,0,1,4.11,1.58,5.53,5.53,0,0,1,1.58,4.09,5.38,5.38,0,0,1-1.59,4.06,5.69,5.69,0,0,1-4.15,1.54,5.66,5.66,0,0,1-4.14-1.56A5.5,5.5,0,0,1,39.71,34.24Zm2.73,0a3.23,3.23,0,0,0,.86,2.33,2.85,2.85,0,0,0,2.16.9,2.81,2.81,0,0,0,2.14-.9,3.24,3.24,0,0,0,.84-2.28A3.3,3.3,0,0,0,47.6,32,2.76,2.76,0,0,0,45.46,31,2.83,2.83,0,0,0,43.3,32,3.16,3.16,0,0,0,42.44,34.24Z"/><path class="cls-1" d="M52.11,37.28a1.15,1.15,0,0,1,.22-.64,1.57,1.57,0,0,1,.46-.44c.15-.09.24-.13.27-.1a4.81,4.81,0,0,0,3.54,1.33c1.27,0,1.9-.31,1.9-.92a.7.7,0,0,0-.47-.68,8.31,8.31,0,0,0-1.61-.41l-.23-.05-.82-.2c-.18,0-.45-.12-.81-.23a3.16,3.16,0,0,1-.84-.38,6.41,6.41,0,0,1-.65-.52,1.77,1.77,0,0,1-.5-.76,2.93,2.93,0,0,1-.17-1,3.26,3.26,0,0,1,1.22-2.63,5,5,0,0,1,3.26-1,5.88,5.88,0,0,1,3.22.73,2.1,2.1,0,0,1,1.14,1.79,1,1,0,0,1-.25.65,1.86,1.86,0,0,1-.48.46c-.16.11-.25.15-.28.12a4.08,4.08,0,0,0-3.14-1.33c-1.22,0-1.83.32-1.83.94a.63.63,0,0,0,.42.62,9.14,9.14,0,0,0,1.47.4,2.82,2.82,0,0,0,.4.09l1,.25a7.11,7.11,0,0,1,1,.33,3.6,3.6,0,0,1,1,.54,2.79,2.79,0,0,1,.63.8,2.43,2.43,0,0,1,.28,1.19,3.16,3.16,0,0,1-1.26,2.66,5.5,5.5,0,0,1-3.45,1,6.61,6.61,0,0,1-3.46-.75A2.14,2.14,0,0,1,52.11,37.28Z"/><path class="cls-1" d="M62.37,30.21V30q0-1.14,1.29-1.14h.53V27.5q0-1.48,1.41-1.5h.26c.92,0,1.39.5,1.39,1.5v1.37h1.86c.83,0,1.25.36,1.25,1.09v.18c0,.75-.42,1.14-1.27,1.15H67.18v4.6c0,1,.4,1.58,1.2,1.58a1.71,1.71,0,0,0,1.38-.72s.08,0,.21.07a1.07,1.07,0,0,1,.36.43,1.45,1.45,0,0,1,.17.7,1.65,1.65,0,0,1-.78,1.38,3.45,3.45,0,0,1-2,.56q-3.49,0-3.48-3.67V31.29h-.53Q62.37,31.29,62.37,30.21Z"/><path class="cls-1" d="M71.94,38.3V38a1.28,1.28,0,0,1,1.45-1.45h.4A1.3,1.3,0,0,1,75.28,38v.31a1.3,1.3,0,0,1-1.49,1.45h-.4A1.28,1.28,0,0,1,71.94,38.3Z"/></g></g></svg>