<svg xmlns="http://www.w3.org/2000/svg" viewBox="0 0 122.31 46.3"><defs><style>.cls-1{fill:#fff;}</style></defs><title>copy3-s2</title><g id="Layer_2" data-name="Layer 2"><g id="Layer_3" data-name="Layer 3"><path class="cls-1" d="M4.07.63H5.21l4,9.23H7.7L6.77,7.58H2.38L1.46,9.86H0ZM6.31,6.48,4.59,2.24h0L2.82,6.48Z"/><path class="cls-1" d="M16.25,9.86H15.08V9h0a2.66,2.66,0,0,1-2.15,1A3.07,3.07,0,0,1,9.75,6.77,3.07,3.07,0,0,1,12.9,3.52a2.58,2.58,0,0,1,2.15,1.05h0V0h1.17ZM15.08,6.77a2,2,0,1,0-4.07,0,2,2,0,1,0,4.07,0Z"/><path class="cls-1" d="M24.22,9.86H23V9h0a2.66,2.66,0,0,1-2.15,1,3.07,3.07,0,0,1-3.15-3.25,3.07,3.07,0,0,1,3.15-3.25A2.6,2.6,0,0,1,23,4.57h0V0h1.18ZM23,6.77a2,2,0,1,0-4.07,0,2,2,0,1,0,4.07,0Z"/><path class="cls-1" d="M29.91.63h6V1.8H31.17V4.55h4.38V5.73H31.17v3h4.94V9.86h-6.2Z"/><path class="cls-1" d="M37.67,0h1.17V9.86H37.67Z"/><path class="cls-1" d="M40.71,0h1.17V6.37l2.66-2.68h1.63L43.29,6.5l3.13,3.36H44.75L41.88,6.65V9.86H40.71Z"/><path class="cls-1" d="M51.4.63h5.81V1.8H52.65V4.7h4.24V5.87H52.65v4H51.4Z"/><path class="cls-1" d="M58.61,4.44a3.61,3.61,0,0,1,2.45-.92c1.83,0,2.59,1,2.59,2.06V8.74a9.3,9.3,0,0,0,.05,1.12h-1c0-.31,0-.62,0-.94h0A2.35,2.35,0,0,1,60.42,10a1.91,1.91,0,0,1-2.13-1.85c0-1.59,1.52-2.14,3.4-2.14h.86V5.77a1.33,1.33,0,0,0-1.47-1.31,2.55,2.55,0,0,0-1.76.71Zm3.31,2.45c-1.1,0-2.46.19-2.46,1.19,0,.7.52,1,1.33,1a1.67,1.67,0,0,0,1.76-1.8V6.89Z"/><path class="cls-1" d="M65.44,0h1.18V9.86H65.44Z"/><path class="cls-1" d="M68.57,0h1.18V9.86H68.57Z"/><path class="cls-1" d="M74.9,5.23a1.58,1.58,0,0,0-1.27-.61c-.55,0-1,.25-1,.69,0,.74,1.06.85,1.58,1,1,.24,1.8.64,1.8,1.8C76,9.47,74.7,10,73.48,10a2.64,2.64,0,0,1-2.39-1.1L72,8.19a2,2,0,0,0,1.5.73c.6,0,1.25-.24,1.25-.78,0-.7-1-.83-1.49-1-1-.25-1.89-.57-1.89-1.76s1.19-1.91,2.35-1.91a2.38,2.38,0,0,1,2.11,1Z"/><path class="cls-1" d="M84.34,4.7H82.66V7.5c0,.69,0,1.42.88,1.42a1.72,1.72,0,0,0,.84-.18V9.81a2.63,2.63,0,0,1-1.06.21c-1.81,0-1.84-1.11-1.84-2.1V4.7H80.13v-1h1.35V1.94h1.18V3.68h1.68Z"/><path class="cls-1" d="M88.84,3.52a3.25,3.25,0,1,1-3.29,3.25A3.24,3.24,0,0,1,88.84,3.52Zm0,5.4a2,2,0,0,0,2-2.15,2,2,0,1,0-4.07,0A2,2,0,0,0,88.84,8.92Z"/><path class="cls-1" d="M96.48,3.68h1.35l1.84,4.83h0l1.75-4.83h1.26l-2.93,7.51C99.36,12.26,99,13,97.66,13a2.83,2.83,0,0,1-1-.16l.14-1.08a1.74,1.74,0,0,0,.71.15c.74,0,1-.41,1.2-1l.38-1Z"/><path class="cls-1" d="M106.73,3.52a3.25,3.25,0,1,1-3.29,3.25A3.24,3.24,0,0,1,106.73,3.52Zm0,5.4a2,2,0,0,0,2-2.15,2,2,0,1,0-4.07,0A2,2,0,0,0,106.73,8.92Z"/><path class="cls-1" d="M117,9.86h-1.17V8.91h0a2.18,2.18,0,0,1-2,1.11,2.14,2.14,0,0,1-2.25-2.36v-4h1.18V7.33c0,1.16.66,1.59,1.41,1.59,1,0,1.72-.62,1.72-2.06V3.68H117Z"/><path class="cls-1" d="M118.73,3.68h1.18v.95h0a2.11,2.11,0,0,1,1.86-1.11,1.77,1.77,0,0,1,.52.08l0,1.27a2,2,0,0,0-.58-.09c-1.15,0-1.77.62-1.77,2v3.1h-1.18Z"/><path class="cls-1" d="M10,25.34H8.76v-1h1.39l.26-1.88H9.17v-1h1.38l.37-2.66h1l-.37,2.66h1.51l.37-2.66h1l-.36,2.66h1.23v1H14l-.26,1.88H15v1H13.58L13.21,28h-1l.37-2.66H11L10.67,28h-1Zm1.44-2.89-.26,1.88h1.51L13,22.45Z"/><path class="cls-1" d="M23.31,20.76a2.89,2.89,0,0,0-2.24-1.05,3.48,3.48,0,0,0-3.44,3.75,3.4,3.4,0,0,0,3.44,3.61,2.86,2.86,0,0,0,2.42-1.24l1.05.79a4.27,4.27,0,0,1-3.49,1.62,4.75,4.75,0,0,1-4.75-4.78,4.67,4.67,0,0,1,4.81-4.93A4,4,0,0,1,24.35,20Z"/><path class="cls-1" d="M26.05,18.77H29.3c2.36,0,3,1.42,3,2.58A2.47,2.47,0,0,1,30,23.79L32.62,28H31.05L28.7,23.93H27.31V28H26.05Zm1.26,4.07H29c1,0,2-.24,2-1.49s-1-1.49-2-1.49H27.31Z"/><path class="cls-1" d="M34.4,18.74a.86.86,0,1,1-.86.86A.87.87,0,0,1,34.4,18.74Zm-.59,3.08H35V28H33.81Z"/><path class="cls-1" d="M36.11,21.82h1.35l1.85,4.74,1.78-4.74h1.25L39.92,28h-1.3Z"/><path class="cls-1" d="M44.26,25.34a1.93,1.93,0,0,0,2.08,1.8,2.14,2.14,0,0,0,1.7-.92l.89.68a3.27,3.27,0,0,1-2.74,1.26A3.08,3.08,0,0,1,43,24.91a3.14,3.14,0,0,1,3.2-3.25c2.18,0,3,1.67,3,3.27v.41ZM48,24.4a1.68,1.68,0,0,0-1.79-1.8,1.9,1.9,0,0,0-1.91,1.8Z"/><path class="cls-1" d="M50.62,21.82h1.17v.95h0a2.09,2.09,0,0,1,1.85-1.11,1.72,1.72,0,0,1,.52.08l0,1.27a2.33,2.33,0,0,0-.57-.09c-1.15,0-1.78.62-1.78,2V28H50.62Z"/><path class="cls-1" d="M62.17,20.76a2.85,2.85,0,0,0-2.23-1.05,3.48,3.48,0,0,0-3.44,3.75,3.4,3.4,0,0,0,3.44,3.61,2.86,2.86,0,0,0,2.42-1.24l1,.79a4.27,4.27,0,0,1-3.49,1.62,4.75,4.75,0,0,1-4.75-4.78A4.67,4.67,0,0,1,60,18.53,4.06,4.06,0,0,1,63.22,20Z"/><path class="cls-1" d="M67.61,21.66a3.25,3.25,0,1,1-3.29,3.25A3.25,3.25,0,0,1,67.61,21.66Zm0,5.41a2,2,0,0,0,2-2.16,2,2,0,1,0-4.07,0A2,2,0,0,0,67.61,27.07Z"/><path class="cls-1" d="M72.46,18.14h1.17V28H72.46Z"/><path class="cls-1" d="M75.59,18.14h1.17V28H75.59Z"/><path class="cls-1" d="M79.51,25.34a1.94,1.94,0,0,0,2.09,1.8,2.14,2.14,0,0,0,1.7-.92l.88.68a3.25,3.25,0,0,1-2.74,1.26,3.07,3.07,0,0,1-3.18-3.25,3.14,3.14,0,0,1,3.2-3.25c2.17,0,3,1.67,3,3.27v.41Zm3.71-.94a1.68,1.68,0,0,0-1.79-1.8,1.91,1.91,0,0,0-1.92,1.8Z"/><path class="cls-1" d="M90.3,23.46a2,2,0,0,0-1.54-.69A2,2,0,0,0,86.83,25a2,2,0,0,0,2,2.11,1.82,1.82,0,0,0,1.5-.7l.84.84a3,3,0,0,1-2.35.95,3.08,3.08,0,0,1-3.23-3.22,3.09,3.09,0,0,1,3.23-3.26,3.18,3.18,0,0,1,2.38,1Z"/><path class="cls-1" d="M95.47,22.84H93.79v2.8c0,.69,0,1.43.89,1.43a1.59,1.59,0,0,0,.83-.19V28a2.59,2.59,0,0,1-1.05.21c-1.82,0-1.84-1.11-1.84-2.1V22.84H91.26v-1h1.36V20.09h1.17v1.73h1.68Z"/><path class="cls-1" d="M97.66,18.74a.86.86,0,1,1-.86.86A.87.87,0,0,1,97.66,18.74Zm-.58,3.08h1.17V28H97.08Z"/><path class="cls-1" d="M103.1,21.66a3.25,3.25,0,1,1-3.29,3.25A3.25,3.25,0,0,1,103.1,21.66Zm0,5.41a2,2,0,0,0,2-2.16,2,2,0,1,0-4.07,0A2,2,0,0,0,103.1,27.07Z"/><path class="cls-1" d="M107.86,21.82H109v.95h0a2.18,2.18,0,0,1,2-1.11A2.14,2.14,0,0,1,113.34,24v4h-1.18V24.35c0-1.16-.66-1.59-1.41-1.59-1,0-1.72.63-1.72,2.06V28h-1.17Z"/><path class="cls-1" d="M42.73,41H41v2.81c0,.69,0,1.42.89,1.42a1.68,1.68,0,0,0,.83-.18V46.1a2.74,2.74,0,0,1-1,.2c-1.82,0-1.84-1.1-1.84-2.1V41H38.51V40h1.36V38.23H41V40h1.69Z"/><path class="cls-1" d="M44.24,36.28h1.17v4.64h0a2.16,2.16,0,0,1,2-1.11,2.13,2.13,0,0,1,2.24,2.36v4H48.54V42.49c0-1.16-.66-1.59-1.41-1.59-1,0-1.72.63-1.72,2.06v3.19H44.24Z"/><path class="cls-1" d="M52.16,36.88a.87.87,0,1,1,0,1.73.87.87,0,0,1,0-1.73ZM51.58,40h1.17v6.19H51.58Z"/><path class="cls-1" d="M57.9,41.52a1.56,1.56,0,0,0-1.26-.62c-.55,0-1,.25-1,.69,0,.75,1,.85,1.57,1,1,.25,1.81.64,1.81,1.8,0,1.4-1.28,1.94-2.51,1.94a2.67,2.67,0,0,1-2.39-1.09l.89-.73a2,2,0,0,0,1.5.73c.6,0,1.25-.25,1.25-.78,0-.71-1-.84-1.48-1-1-.25-1.9-.57-1.9-1.76s1.19-1.9,2.35-1.9a2.4,2.4,0,0,1,2.12,1Z"/><path class="cls-1" d="M64.49,41H63.15V40h1.34V38.58c0-1.64.57-2.45,2.11-2.45a3.48,3.48,0,0,1,.87.09l-.13,1a1.67,1.67,0,0,0-.66-.11c-.86,0-1,.53-1,1.39V40h1.4v1H65.66v5.17H64.49Z"/><path class="cls-1" d="M68.4,40.72a3.65,3.65,0,0,1,2.45-.91c1.83,0,2.58,1,2.58,2.06V45c0,.43,0,.79,0,1.12h-1c0-.32,0-.63,0-.94h0a2.38,2.38,0,0,1-2.17,1.09,1.92,1.92,0,0,1-2.14-1.85c0-1.59,1.53-2.14,3.41-2.14h.86v-.26a1.33,1.33,0,0,0-1.48-1.3,2.59,2.59,0,0,0-1.76.7Zm3.31,2.45c-1.11,0-2.46.2-2.46,1.19,0,.7.52,1,1.33,1a1.67,1.67,0,0,0,1.76-1.8v-.39Z"/><path class="cls-1" d="M75.23,36.28H76.4v9.87H75.23Z"/><path class="cls-1" d="M78.36,36.28h1.17v9.87H78.36Z"/><path class="cls-1" d="M81.46,45.36a.86.86,0,1,1,.86.87A.87.87,0,0,1,81.46,45.36Z"/></g></g></svg>