<svg xmlns="http://www.w3.org/2000/svg" viewBox="0 0 171.5 544.71"><defs><style>.cls-1{opacity:0.9;}.cls-2{fill:#074854;}.cls-3{fill:#76aca9;}.cls-4{fill:#fff;}</style></defs><title>overlay-s2</title><g id="Layer_2" data-name="Layer 2"><g id="Layer_3" data-name="Layer 3"><g class="cls-1"><path class="cls-2" d="M2.34,542.5H1.47v-.82h1l.17-1.19H1.75v-.81h1l.29-2h.86l-.29,2h1l.29-2h.85l-.29,2h.88v.81h-1l-.16,1.19H6v.82h-1l-.3,2H3.91l.29-2h-1l-.29,2H2.05Zm1.13-2-.16,1.19h1l.17-1.19Z"/><path class="cls-2" d="M14.17,539.26a1.52,1.52,0,0,0-.71-.54,2.27,2.27,0,0,0-.86-.17,2.33,2.33,0,0,0-1,.19,2.19,2.19,0,0,0-.76.54,2.45,2.45,0,0,0-.49.79,3,3,0,0,0-.17,1,3,3,0,0,0,.17,1,2.35,2.35,0,0,0,.47.8,2.18,2.18,0,0,0,.74.53,2.42,2.42,0,0,0,1,.18,2.05,2.05,0,0,0,1-.22,1.9,1.9,0,0,0,.7-.58l1,.69a3.12,3.12,0,0,1-1.12.89,3.44,3.44,0,0,1-1.55.32,3.94,3.94,0,0,1-1.48-.27,3.18,3.18,0,0,1-1.17-.75,3.39,3.39,0,0,1-.76-1.15,3.85,3.85,0,0,1-.27-1.47,3.65,3.65,0,0,1,.29-1.5,3.25,3.25,0,0,1,.79-1.13,3.44,3.44,0,0,1,1.18-.72,4.18,4.18,0,0,1,1.48-.26,4.25,4.25,0,0,1,.69.07,3.2,3.2,0,0,1,.69.19,3.78,3.78,0,0,1,.63.33,1.83,1.83,0,0,1,.49.47Z"/><path class="cls-2" d="M17.62,537.64H20a4.25,4.25,0,0,1,.95.1,2.44,2.44,0,0,1,.81.34,1.67,1.67,0,0,1,.57.61,1.88,1.88,0,0,1,.21.93,1.77,1.77,0,0,1-.42,1.22,2.17,2.17,0,0,1-1.15.64l1.84,3.06H21.34l-1.6-2.93h-.9v2.93H17.62Zm2.23,3a3,3,0,0,0,.52,0,1.3,1.3,0,0,0,.47-.14,1,1,0,0,0,.35-.31.9.9,0,0,0,.14-.51.84.84,0,0,0-.13-.47.87.87,0,0,0-.32-.28,1.52,1.52,0,0,0-.44-.15,2.77,2.77,0,0,0-.49,0H18.84v1.94Z"/><path class="cls-2" d="M25.39,537.64h1.23v6.9H25.39Z"/><path class="cls-2" d="M28.93,537.64h1.38l1.9,5.31h0l1.92-5.31h1.32l-2.77,6.9H31.66Z"/><path class="cls-2" d="M37.8,537.64h4.57v1.07H39v1.75h3.16v1H39v2h3.51v1.09H37.8Z"/><path class="cls-2" d="M45.4,537.64h2.39a4.25,4.25,0,0,1,1,.1,2.44,2.44,0,0,1,.81.34,1.67,1.67,0,0,1,.57.61,1.88,1.88,0,0,1,.22.93,1.78,1.78,0,0,1-.43,1.22,2.17,2.17,0,0,1-1.15.64l1.84,3.06H49.12l-1.6-2.93h-.9v2.93H45.4Zm2.23,3a3,3,0,0,0,.52,0,1.42,1.42,0,0,0,.48-.14,1,1,0,0,0,.34-.31.9.9,0,0,0,.14-.51.77.77,0,0,0-.13-.47.87.87,0,0,0-.32-.28,1.52,1.52,0,0,0-.44-.15,2.77,2.77,0,0,0-.49,0H46.62v1.94Z"/><path class="cls-2" d="M58.16,539.26a1.52,1.52,0,0,0-.71-.54,2.27,2.27,0,0,0-.86-.17,2.33,2.33,0,0,0-1,.19,2.19,2.19,0,0,0-.76.54,2.45,2.45,0,0,0-.49.79,3,3,0,0,0-.17,1,3,3,0,0,0,.17,1,2.35,2.35,0,0,0,.47.8,2.18,2.18,0,0,0,.74.53,2.42,2.42,0,0,0,1,.18,2.05,2.05,0,0,0,1-.22,1.9,1.9,0,0,0,.7-.58l1,.69a3.12,3.12,0,0,1-1.12.89,3.44,3.44,0,0,1-1.55.32,3.94,3.94,0,0,1-1.48-.27,3.18,3.18,0,0,1-1.17-.75,3.39,3.39,0,0,1-.76-1.15,3.85,3.85,0,0,1-.27-1.47,3.65,3.65,0,0,1,.29-1.5,3.25,3.25,0,0,1,.79-1.13,3.44,3.44,0,0,1,1.18-.72,4.18,4.18,0,0,1,1.48-.26,4.25,4.25,0,0,1,.69.07,3.2,3.2,0,0,1,.69.19,3.78,3.78,0,0,1,.63.33,1.83,1.83,0,0,1,.49.47Z"/><path class="cls-2" d="M61.16,541.07a3.82,3.82,0,0,1,.28-1.5,3.31,3.31,0,0,1,.76-1.13,3.49,3.49,0,0,1,1.17-.72,4.37,4.37,0,0,1,3,0,3.53,3.53,0,0,1,1.18.72,3.2,3.2,0,0,1,.77,1.13,3.82,3.82,0,0,1,.28,1.5,3.67,3.67,0,0,1-.28,1.47,3.38,3.38,0,0,1-2,1.9,4.22,4.22,0,0,1-3,0,3.26,3.26,0,0,1-1.17-.75,3.39,3.39,0,0,1-.76-1.15A3.67,3.67,0,0,1,61.16,541.07Zm1.33,0a3,3,0,0,0,.17,1,2.61,2.61,0,0,0,.49.8,2.22,2.22,0,0,0,.75.53,2.52,2.52,0,0,0,1.92,0,2.17,2.17,0,0,0,.76-.53,2.61,2.61,0,0,0,.49-.8,3,3,0,0,0,.17-1,3,3,0,0,0-.17-1,2.45,2.45,0,0,0-.49-.79,2.07,2.07,0,0,0-.75-.54,2.57,2.57,0,0,0-1.94,0,2.12,2.12,0,0,0-.74.54,2.45,2.45,0,0,0-.49.79A3,3,0,0,0,62.49,541.07Z"/><path class="cls-2" d="M71.42,537.64h1.22v5.81h2.93v1.09H71.42Z"/><path class="cls-2" d="M78.05,537.64h1.23v5.81h2.93v1.09H78.05Z"/><path class="cls-2" d="M84.68,537.64h4.57v1.07H85.91v1.75h3.17v1H85.91v2h3.52v1.09H84.68Z"/><path class="cls-2" d="M97.26,539.26a1.52,1.52,0,0,0-.71-.54,2.27,2.27,0,0,0-.86-.17,2.33,2.33,0,0,0-1,.19,2.19,2.19,0,0,0-.76.54,2.45,2.45,0,0,0-.49.79,3,3,0,0,0-.17,1,3,3,0,0,0,.17,1,2.35,2.35,0,0,0,.47.8,2.18,2.18,0,0,0,.74.53,2.42,2.42,0,0,0,1,.18,2.05,2.05,0,0,0,1-.22,1.9,1.9,0,0,0,.7-.58l1,.69a3.12,3.12,0,0,1-1.12.89,3.44,3.44,0,0,1-1.55.32,3.94,3.94,0,0,1-1.48-.27,3.18,3.18,0,0,1-1.17-.75,3.39,3.39,0,0,1-.76-1.15,3.85,3.85,0,0,1-.27-1.47,3.65,3.65,0,0,1,.29-1.5,3.36,3.36,0,0,1,.78-1.13,3.58,3.58,0,0,1,1.19-.72,4.18,4.18,0,0,1,1.48-.26,4.25,4.25,0,0,1,.69.07,3.2,3.2,0,0,1,.69.19,3.78,3.78,0,0,1,.63.33,1.83,1.83,0,0,1,.49.47Z"/><path class="cls-2" d="M102,538.71H99.93v-1.07h5.45v1.07h-2.11v5.83H102Z"/><path class="cls-2" d="M107.83,537.64h1.22v6.9h-1.22Z"/><path class="cls-2" d="M111.89,541.07a3.82,3.82,0,0,1,.28-1.5,3.2,3.2,0,0,1,.77-1.13,3.35,3.35,0,0,1,1.16-.72,4.37,4.37,0,0,1,3,0,3.53,3.53,0,0,1,1.18.72,3.2,3.2,0,0,1,.77,1.13,3.82,3.82,0,0,1,.28,1.5,3.67,3.67,0,0,1-.28,1.47,3.38,3.38,0,0,1-2,1.9,4.22,4.22,0,0,1-3,0,3.14,3.14,0,0,1-1.16-.75,3.28,3.28,0,0,1-.77-1.15A3.67,3.67,0,0,1,111.89,541.07Zm1.33,0a3,3,0,0,0,.17,1,2.61,2.61,0,0,0,.49.8,2.22,2.22,0,0,0,.75.53,2.52,2.52,0,0,0,1.92,0,2.17,2.17,0,0,0,.76-.53,2.61,2.61,0,0,0,.49-.8,3,3,0,0,0,.17-1,3,3,0,0,0-.17-1,2.45,2.45,0,0,0-.49-.79,2.07,2.07,0,0,0-.75-.54,2.57,2.57,0,0,0-1.94,0,2.12,2.12,0,0,0-.74.54,2.45,2.45,0,0,0-.49.79A3,3,0,0,0,113.22,541.07Z"/><path class="cls-2" d="M122.14,537.64h1.62L127,542.8h0v-5.16h1.22v6.9h-1.55l-3.28-5.33h0v5.33h-1.22Z"/></g><g class="cls-1"><path class="cls-2" d="M73.11,30.56h-.06l-.15,0-.21,0a1.53,1.53,0,0,0-.36.07,1.73,1.73,0,0,0-.32.2l-.12.09-.2.1a2.26,2.26,0,0,0-.26.16l-.15.12a1.81,1.81,0,0,1-.23.18l0,0a1.29,1.29,0,0,1-.39.19,1.79,1.79,0,0,1-.51.09,1.72,1.72,0,0,1-.48-.08l-.13,0h0l-.14,0-.07-.06L69,31.46l-.28-.2-.09-.08c-.12-.1-.23-.19-.36-.28l-.15-.1-.1-.08a.32.32,0,0,0-.2-.07l-.08,0-.17-.08a1.23,1.23,0,0,0-.42-.16,2.9,2.9,0,0,0-.52,0h-.2a4.27,4.27,0,0,0-.52,0,3.05,3.05,0,0,0-.56.16,1.31,1.31,0,0,0-.3.2l-.14.1-.12.08-.31.21a2.26,2.26,0,0,1-.26.16l-.16.09-.11.07a1,1,0,0,1-.3.16l-.08,0a1.42,1.42,0,0,1-.42.08,2.2,2.2,0,0,1-.53,0,.88.88,0,0,1-.28-.16l-.13-.1a1,1,0,0,1-.19-.16l-.17-.15a2.2,2.2,0,0,0-.26-.15,1,1,0,0,1-.21-.1,2.56,2.56,0,0,0-.47-.24,2.66,2.66,0,0,0-.54-.14l-.14,0a1.68,1.68,0,0,0-.41-.06h-.14a2.1,2.1,0,0,0-.44,0,2.28,2.28,0,0,0-.44.14l-.09,0-.1,0a2.46,2.46,0,0,0-.4.19l-.35.26-.06,0,0,0h0a1.15,1.15,0,0,0,.11.46l.08.08a.23.23,0,0,0,.37.05l.07-.05.06-.05a2.71,2.71,0,0,1,.41-.28,1.34,1.34,0,0,1,.45-.21.87.87,0,0,1,.28,0l.24,0a1.83,1.83,0,0,1,.49,0,1.72,1.72,0,0,1,.44.18,1,1,0,0,1,.19.16.87.87,0,0,0,.17.16,4.27,4.27,0,0,0,.41.29h0a.92.92,0,0,0,.33.11,1.29,1.29,0,0,1,.21.06l.1,0a1.64,1.64,0,0,0,.41.13,3.06,3.06,0,0,0,.57.07,2.25,2.25,0,0,0,.4-.06l.15,0,.2,0a1.1,1.1,0,0,0,.36-.07,1.23,1.23,0,0,0,.32-.19l.13-.09.2-.11a2.2,2.2,0,0,0,.26-.15l.15-.13a1.84,1.84,0,0,1,.22-.17l0,0a1.47,1.47,0,0,1,.4-.19,1.74,1.74,0,0,1,.5-.08,2.12,2.12,0,0,1,.48.07l.13,0h.06l.14,0,.06.06.23.16a3.39,3.39,0,0,1,.28.2l.1.08a4.29,4.29,0,0,0,.35.28l.16.1a.61.61,0,0,0,.29.16l.09,0,.16.08a1.29,1.29,0,0,0,.43.17,4.18,4.18,0,0,0,.51,0h.2a3,3,0,0,0,.53,0,2.58,2.58,0,0,0,.56-.16,1,1,0,0,0,.3-.2l.14-.1A.41.41,0,0,1,71.8,32c.11-.08.22-.14.31-.22a1.35,1.35,0,0,1,.26-.15,1,1,0,0,0,.17-.1l.11-.07a1.22,1.22,0,0,1,.3-.16l.08,0,.19-.05s.08-.15.08-.15a.2.2,0,0,0,0-.08c0-.11,0-.25,0-.33s-.13-.09-.21-.13"/><path class="cls-2" d="M73,32.5s-.09,0-.13,0a4,4,0,0,0-.52.13,1.17,1.17,0,0,0-.31.19l-.12.09-.12.07a2.9,2.9,0,0,0-.29.19,3.52,3.52,0,0,1-.38.25,1.31,1.31,0,0,1-.41.14l-.13,0a1.63,1.63,0,0,1-.33,0,1.9,1.9,0,0,1-.35,0l-.17,0H69.7a2.29,2.29,0,0,1-.42-.07,1.27,1.27,0,0,1-.31-.15l-.12-.07-.1-.05-.23-.17a1,1,0,0,0-.25-.11L68,32.8l0,0h0a.36.36,0,0,0-.25-.07.84.84,0,0,0-.23-.12,4.72,4.72,0,0,0-.59-.12,1.3,1.3,0,0,0-.34,0l-.26,0a1.81,1.81,0,0,1-.23,0,.81.81,0,0,0-.31,0,1.11,1.11,0,0,0-.35.13l-.14.07-.17.06a1.12,1.12,0,0,0-.32.12,1.18,1.18,0,0,0-.23.2.49.49,0,0,1-.13.12,2.26,2.26,0,0,1-.26.16l-.13.07a1.73,1.73,0,0,1-.42.14h-.06a1.6,1.6,0,0,1-.4.06,2.06,2.06,0,0,1-.5-.07,1.29,1.29,0,0,1-.43-.2l-.2-.1a1,1,0,0,1-.25-.14L61.64,33a1.5,1.5,0,0,0-.23-.2,3.13,3.13,0,0,0-.45-.22h0l-.14-.07a1.31,1.31,0,0,0-.38-.15,3.38,3.38,0,0,0-.57,0,2.55,2.55,0,0,0-.51.06h-.06l-.18,0a1.29,1.29,0,0,0-.39.08,1,1,0,0,0-.28.2.53.53,0,0,1-.14.12c-.13.09-.26.18-.39.29a.87.87,0,0,0,0,.53c.13.11.31.24.52.08l0,0,0,0a1.53,1.53,0,0,0,.18-.18.49.49,0,0,1,.16-.16,1.57,1.57,0,0,1,.46-.2,2.1,2.1,0,0,1,.52-.08,1.86,1.86,0,0,1,.49.08h0a1.77,1.77,0,0,1,.46.19c.13.08.26.19.4.29l.14.13a2.51,2.51,0,0,0,.24.19l.09.07a2.57,2.57,0,0,0,.37.21,1.1,1.1,0,0,0,.36.07l.2,0,.18.06a1.06,1.06,0,0,0,.38.09,4.51,4.51,0,0,0,.54,0,1.11,1.11,0,0,0,.35-.13l.14-.06.18-.06a1.12,1.12,0,0,0,.32-.12.89.89,0,0,0,.22-.21,1.36,1.36,0,0,1,.12-.12,1.65,1.65,0,0,1,.25-.15l.15-.08.11-.07a1.08,1.08,0,0,1,.28-.15.94.94,0,0,1,.22,0,1.1,1.1,0,0,0,.27,0h.55l.14,0a2.34,2.34,0,0,1,.4.1,2.49,2.49,0,0,1,.3.19l.13.1.2.12.12.07.12.08,0,0,.21.15.12.08.33.1h0a1.58,1.58,0,0,0,.38,0h.27l.2,0a2.06,2.06,0,0,0,.45,0,3.47,3.47,0,0,0,.49,0h0a3.65,3.65,0,0,0,.52-.11,1,1,0,0,0,.31-.19l.12-.08.2-.09a1,1,0,0,0,.26-.12l0,0a3.05,3.05,0,0,1,.32-.22l.06,0a1,1,0,0,1,.31-.14c.06-.1.2-.22.2-.29A2.57,2.57,0,0,0,73,32.5"/><path class="cls-2" d="M73.33,29.09a1,1,0,0,1,0-.16,1.46,1.46,0,0,1-.1-.32.34.34,0,0,0-.15-.06l-.12,0a1.17,1.17,0,0,0-.36.12l-.14.07-.18,0a1.75,1.75,0,0,0-.32.12.84.84,0,0,0-.21.21.8.8,0,0,1-.13.13,1.5,1.5,0,0,1-.25.15l-.14.08a.41.41,0,0,0-.11.07,1.11,1.11,0,0,1-.29.14.55.55,0,0,1-.21,0,2,2,0,0,0-.27,0h-.2a2.1,2.1,0,0,1-.36,0l-.13,0a1.17,1.17,0,0,1-.4-.1,1.08,1.08,0,0,1-.3-.19l-.14-.1-.2-.12-.11-.07L68.34,29l0,0-.2-.15L68,28.7a.3.3,0,0,0-.35-.06,1.58,1.58,0,0,0-.38,0H67l-.21,0a2.81,2.81,0,0,0-.44-.05,3.52,3.52,0,0,0-.5.05h0a2.49,2.49,0,0,0-.52.12,1.22,1.22,0,0,0-.32.18l-.11.08a1,1,0,0,1-.21.09,1,1,0,0,0-.25.13l-.05,0a3.09,3.09,0,0,1-.31.23l-.06,0a1.11,1.11,0,0,1-.33.15,1.91,1.91,0,0,1-.46,0,2.24,2.24,0,0,1-.46,0,1.21,1.21,0,0,1-.4-.17l-.2-.09a.76.76,0,0,1-.22-.11.69.69,0,0,1-.13-.11,1.68,1.68,0,0,0-.24-.19l-.12-.09a1.17,1.17,0,0,0-.31-.19,1.28,1.28,0,0,0-.34-.06l-.19,0a4.09,4.09,0,0,0-.53,0H59.4a3.23,3.23,0,0,0-.47.11l-.13,0a2.4,2.4,0,0,0-.4.17l-.13.07h0a2.51,2.51,0,0,0-.45.26s0,.05,0,.07a1.4,1.4,0,0,0,.09.31h0l0,0,.06.12a.57.57,0,0,0,.13.08.32.32,0,0,0,.31-.06,1.93,1.93,0,0,1,.38-.19l.12,0a2.55,2.55,0,0,1,.54-.15l.21,0a1.59,1.59,0,0,1,.37-.06,1.52,1.52,0,0,1,.39.06l.08,0a1.31,1.31,0,0,1,.42.16l.23.17.12.1.25.16.18.1a.53.53,0,0,1,.12.1.82.82,0,0,0,.28.19,1.33,1.33,0,0,0,.34.05l.21,0a3.23,3.23,0,0,0,.53,0h.2a1.29,1.29,0,0,0,.34,0,2.2,2.2,0,0,0,.52-.13,1,1,0,0,0,.3-.19l.13-.09a.41.41,0,0,0,.11-.07,2.2,2.2,0,0,0,.3-.19,2.68,2.68,0,0,1,.37-.25,1.88,1.88,0,0,1,.42-.14l.13,0a1.08,1.08,0,0,1,.33-.06c.12,0,.24,0,.35,0l.17,0h.08a2.45,2.45,0,0,1,.42.07,1.2,1.2,0,0,1,.3.15l.12.07.11.06.22.16a1.42,1.42,0,0,0,.25.12l.26.18,0,0h0a.29.29,0,0,0,.25.06.84.84,0,0,0,.23.12,2.68,2.68,0,0,0,.59.12,1,1,0,0,0,.34,0l.26,0,.22,0h.07c.27-.09.56-.14.83-.24l.51-.21.12-.12.12-.12a2.26,2.26,0,0,1,.26-.16l.14-.07a1.59,1.59,0,0,1,.42-.14H73l.09,0a1.06,1.06,0,0,0,.2-.26h0"/><path class="cls-2" d="M36.85,3.48h.39a1.61,1.61,0,0,0,.39,0,4,4,0,0,0-.1-.6l-.12-.58c0-.17,0-.32-.07-.43a1.43,1.43,0,0,0-.05-.28.27.27,0,0,0-.08-.15.21.21,0,0,0-.15,0h-.14a5,5,0,0,1-.12.53l-.15.52c0,.17-.09.34-.13.52a4.51,4.51,0,0,0-.09.53h.42ZM38.46,6.2a1.83,1.83,0,0,1-.33,0c-.07-.26-.13-.51-.18-.77l-.18-.76h-.63c-.34,0-.68,0-1,0-.1.49-.22,1-.36,1.49l-.32,0h-.79l-.21,0a14.21,14.21,0,0,1,.3-1.5c.13-.52.27-1,.41-1.56s.3-1,.44-1.55S35.88.52,36,0l.32,0h1.07l.75,0,.18.73c.08.32.17.69.26,1.1s.19.83.29,1.27.19.86.27,1.25.15.73.2,1a4.41,4.41,0,0,1,.08.59l0,.22Z"/><path class="cls-2" d="M46.33,6.17l-.31,0h-.59l-.29,0c0-.34,0-.69-.06-1s0-.7,0-1,0-.7,0-1.06,0-.7,0-1H45a7.12,7.12,0,0,1-.21.77,7.07,7.07,0,0,1-.27.69c-.09.23-.2.46-.3.69s-.22.47-.33.72l-.24.06-.24,0h-.28l-.19,0a.67.67,0,0,1-.19,0l-.26-.08c-.17-.48-.35-.93-.51-1.36s-.3-.9-.43-1.39h-.06V3.47c0,.45,0,.9,0,1.34a12,12,0,0,1,0,1.34l-.23,0-.22,0h-.4l-.39,0c0-.46-.06-.92-.07-1.39s0-.94,0-1.42l0-1.42c0-.47,0-.93,0-1.39V.28a2.11,2.11,0,0,1,0-.25l.51,0h.62a1,1,0,0,1,.3,0l.29.07c.17.6.37,1.18.59,1.74s.44,1.13.65,1.71c.15-.42.3-.78.42-1.1s.24-.6.35-.87.2-.53.28-.77.18-.52.26-.8L45,0h1l.3,0c.05.44.08.9.09,1.37s0,1,0,1.42,0,1,0,1.43,0,.94,0,1.39Z"/><path class="cls-2" d="M48.77,2.83a.28.28,0,0,0,.13,0h.56A2.52,2.52,0,0,0,50,2.76a1,1,0,0,0,.43-.27A.72.72,0,0,0,50.63,2a.9.9,0,0,0-.13-.5.87.87,0,0,0-.32-.28,1.25,1.25,0,0,0-.44-.13,2.7,2.7,0,0,0-.49,0h-.31a.33.33,0,0,0-.15.05.1.1,0,0,0-.06.1v.53c0,.17,0,.35,0,.52v.32a.94.94,0,0,0,.05.3M47.43,6.19c0-.26-.06-.53-.08-.8s0-.55,0-.83,0-.57,0-.85,0-.55,0-.8,0-.44,0-.69,0-.5,0-.75,0-.49,0-.73a4.24,4.24,0,0,1,.08-.67,1.09,1.09,0,0,1,.26,0H48l.83,0c.3,0,.59,0,.89,0a5.94,5.94,0,0,1,.86.12,2.3,2.3,0,0,1,.73.31,1.69,1.69,0,0,1,.51.58A2,2,0,0,1,52,2a1.87,1.87,0,0,1-.21.9,1.92,1.92,0,0,1-.54.66,2.5,2.5,0,0,1-.78.4,3,3,0,0,1-.9.14h-.39a2.68,2.68,0,0,0-.39,0c0,.19,0,.39,0,.59s0,.4,0,.59,0,.32,0,.47a2.43,2.43,0,0,1,0,.46l-.34,0h-.65a1.55,1.55,0,0,1-.31,0"/><path class="cls-2" d="M56,2.42a2,2,0,0,0,.34,0,.83.83,0,0,0,.29-.11.48.48,0,0,0,.2-.2.59.59,0,0,0,.08-.34.65.65,0,0,0-.12-.41.84.84,0,0,0-.3-.22,1.76,1.76,0,0,0-.41-.1l-1.8,0A.94.94,0,0,0,54,1c-.06,0-.1.08-.1.21v.39c0,.13,0,.27,0,.4v.33s0,.05.07.06a.18.18,0,0,0,.09,0ZM53.91,5.11a.13.13,0,0,0,.07.06h2a1.78,1.78,0,0,0,.53-.1A.91.91,0,0,0,57,4.81a.78.78,0,0,0,.16-.53.55.55,0,0,0-.18-.45,1.21,1.21,0,0,0-.44-.22A2.35,2.35,0,0,0,56,3.54H54.09c-.08,0-.14,0-.16,0a.25.25,0,0,0,0,.17c0,.22,0,.45,0,.67s0,.46,0,.69m3.66-2.25a2.3,2.3,0,0,1,.67.55,1.3,1.3,0,0,1,.26.82,2.21,2.21,0,0,1-.18.95,1.78,1.78,0,0,1-.49.59,1.94,1.94,0,0,1-.7.31,4.6,4.6,0,0,1-.84.13c-.29,0-2,0-2.27,0l-.85,0h-.24a.35.35,0,0,1-.16,0,.2.2,0,0,1-.09-.11.78.78,0,0,1,0-.24V.38a.3.3,0,0,1,.2-.28A1.41,1.41,0,0,1,53.33,0h.56c.18,0,1.72,0,1.83,0a8.19,8.19,0,0,1,.85,0,2.36,2.36,0,0,1,.78.21,1.44,1.44,0,0,1,.57.47,1.45,1.45,0,0,1,.22.85,1.39,1.39,0,0,1-.16.65,1.34,1.34,0,0,1-.43.51Z"/><path class="cls-2" d="M62.22,6.18,61,6.21a5.42,5.42,0,0,1-1.23-.08,9.89,9.89,0,0,1-.08-1.26c0-.46,0-.92,0-1.39s0-.94,0-1.41,0-.89,0-1.3l0-.74.37,0h3.44L64,0a5.12,5.12,0,0,1,0,.56V.84a2.46,2.46,0,0,1,0,.26l-.24,0h-.25c-.37,0-1,0-1.4,0A5.71,5.71,0,0,0,61,1.18a1.1,1.1,0,0,0,0,.18V2.45a6.05,6.05,0,0,0,.95,0l1.36,0s0,0,0,.06l0,.13,0,.77s0,0-.05.07l-.13,0-.16,0H61.75c-.26,0-.51,0-.75,0l0,.5v.82a1.12,1.12,0,0,0,.51.12,5.71,5.71,0,0,0,.72,0l1.08,0A4.68,4.68,0,0,1,64,5c0,.1,0,.21,0,.31s0,.2,0,.3a1.46,1.46,0,0,1,0,.3l0,.29Z"/><path class="cls-2" d="M64.87,0c.13,0,.27,0,.4,0h.4a2.34,2.34,0,0,1,.38,0c0,.55.08,1.11.08,1.67V4.15c0,.26,0,.53,0,.79.41,0,.82,0,1.24,0a7.18,7.18,0,0,1,1,0,4,4,0,0,1,0,.43c0,.16,0,.3,0,.43a1.53,1.53,0,0,1,0,.3,2,2,0,0,1-.34,0H66.51c-.54,0-1.08,0-1.62-.07,0-.44-.07-.89-.07-1.35s0-.93,0-1.39l0-1.38c0-.46,0-.92,0-1.36Z"/><path class="cls-2" d="M69.24,0c.13,0,.26,0,.4,0H70a2.43,2.43,0,0,1,.38,0c0,.55.08,1.11.08,1.67V4.15c0,.26,0,.53,0,.79.42,0,.83,0,1.25,0a7.18,7.18,0,0,1,1,0,4,4,0,0,1,0,.43c0,.16,0,.3,0,.43a1.53,1.53,0,0,1,0,.3,2,2,0,0,1-.34,0H70.87c-.53,0-1.07,0-1.61-.07,0-.44-.07-.89-.08-1.35s0-.93,0-1.39,0-.92,0-1.38,0-.92,0-1.36Z"/><path class="cls-2" d="M31.36,6.18l-1.26,0a5.42,5.42,0,0,1-1.23-.08,9.89,9.89,0,0,1-.08-1.26c0-.46,0-.92,0-1.39s0-.94,0-1.41,0-.89,0-1.3l0-.74.37,0h3.93l.44,0a5.12,5.12,0,0,1,0,.56V.84a2.46,2.46,0,0,1,0,.26l-.25,0h-.25c-.36,0-1.52,0-1.88,0a5.76,5.76,0,0,0-1.09.07,1.1,1.1,0,0,0,0,.18V4.87a1.12,1.12,0,0,0,.51.12,5.84,5.84,0,0,0,.73,0l1.55,0a4.62,4.62,0,0,1,.66,0c0,.1,0,.21,0,.31s0,.2,0,.3a2.83,2.83,0,0,1,0,.3c0,.09,0,.19,0,.29Z"/><path class="cls-2" d="M77.46,2.8a.31.31,0,0,0,.09.07h.66c.19,0,1,0,1.22-.09a1,1,0,0,0,.44-.25A.7.7,0,0,0,80,2a.68.68,0,0,0-.16-.5,1.12,1.12,0,0,0-.42-.25,9.58,9.58,0,0,0-1.21-.08h-.52a.37.37,0,0,0-.17,0,.19.19,0,0,0-.08.07.28.28,0,0,0,0,.13v.51c0,.12,0,.23,0,.34Zm2.78,3.46A3,3,0,0,1,80,5.84c-.1-.21-.2-.44-.29-.68l-.28-.7L79.25,4c-.1,0-.88-.06-1-.07H77.7l-.22,0a2.46,2.46,0,0,0,0,.28v.28l0,.86a6.13,6.13,0,0,1,0,.86L77,6.24H76.2a1.26,1.26,0,0,1-.07-.46c0-.26,0-.58,0-1s0-.76,0-1.19,0-.84,0-1.24,0-.74,0-1V.4c0-.1,0-.21,0-.31a2.92,2.92,0,0,1,.6,0h1.35c.26,0,1.18,0,1.43.06a4.21,4.21,0,0,1,.72.18,2.28,2.28,0,0,1,.59.34,1.53,1.53,0,0,1,.41.55,2,2,0,0,1,.15.82,2.2,2.2,0,0,1-.06.53,2.11,2.11,0,0,1-.17.44,2.48,2.48,0,0,1-.29.37,4.77,4.77,0,0,1-.4.35,3.36,3.36,0,0,0,.23.62c.11.21.21.42.31.64s.19.42.27.63a1.81,1.81,0,0,1,.15.62l-.11,0-.11,0Z"/><path class="cls-2" d="M83.52,6.32h-1l-.12,0c0-.14,0-2.22,0-2.35s0-.79,0-.92V1c0-.14,0-.28,0-.42s0-.28,0-.42l.33,0H83l.58,0h.07l.06,0c0,1,.07,5,0,6.15Z"/><path class="cls-2" d="M87.42,6.3H86.15c-.06-.16-.13-.41-.22-.73s-.19-.69-.29-1.09-.22-.83-.32-1.27L85,2c-.09-.4-.16-.76-.22-1.08a5.73,5.73,0,0,1-.09-.72l.15,0h1a7.28,7.28,0,0,1,.47,1.1c.12.38.23.78.33,1.18s.18.8.25,1.21.15.79.24,1.18h.1c0-.13.07-.33.13-.59l.21-.86q.12-.48.27-1c.09-.34.19-.67.28-1s.18-.57.27-.79a1.9,1.9,0,0,1,.22-.47H89.8a3.48,3.48,0,0,1-.11.69q-.1.47-.27,1.05c-.12.39-.24.8-.38,1.24s-.27.85-.4,1.26l-.36,1.11c-.11.34-.19.61-.25.81Z"/><path class="cls-2" d="M92.93,6.22l-1.26,0a5.46,5.46,0,0,1-1.23-.08,9.89,9.89,0,0,1-.08-1.26c0-.46,0-.92,0-1.39s0-.94,0-1.41,0-.89,0-1.3l0-.74.37,0h3.57l1.1,0a5.12,5.12,0,0,1,0,.56V.88a1.18,1.18,0,0,1,0,.26l-.24,0H92.8a5,5,0,0,0-1.09.06,1.1,1.1,0,0,0,0,.18V2.49a6.05,6.05,0,0,0,1,0l1.48,0s0,0,0,.06l0,.13-.06.77s0,0,0,.07l-.12,0-.59,0h-.92c-.25,0-.51,0-.75,0l0,.5v.82A1.12,1.12,0,0,0,92.2,5a5.84,5.84,0,0,0,.73,0l1.2,0c.25,0,1.13,0,1.32,0,0,.1,0,.21,0,.31s0,.2,0,.3a1.46,1.46,0,0,1,0,.3l0,.29Z"/><path class="cls-2" d="M97.72,2.76a.15.15,0,0,0,.09.06.2.2,0,0,0,.11,0h1.29a2,2,0,0,0,.55-.08,1,1,0,0,0,.44-.25.7.7,0,0,0,.18-.52.69.69,0,0,0-.17-.5.89.89,0,0,0-.42-.25,1.91,1.91,0,0,0-.54-.08H98a.32.32,0,0,0-.16,0s-.07,0-.08.07a.25.25,0,0,0,0,.13V2.76Zm4.48,2.29c0,.17,0,.33.07.49a2.72,2.72,0,0,1,0,.49.21.21,0,0,1-.1.17.84.84,0,0,1-.24.07,1.24,1.24,0,0,1-.27,0h-.22a1.6,1.6,0,0,1-.67-.14,1.92,1.92,0,0,1-.51-.39,3.41,3.41,0,0,1-.4-.57c-.11-.22-.21-.45-.31-.69l-.2-.6a.62.62,0,0,0-.23-.07H98a.9.9,0,0,0-.23,0,2.53,2.53,0,0,0,0,.28v.27c0,.29,0,.58,0,.87a6.14,6.14,0,0,1,0,.86,3.71,3.71,0,0,1-.45.06h-.82a1.66,1.66,0,0,1-.07-.47c0-.25,0-.57,0-.94s0-.76,0-1.19V2.36c0-.39,0-.74,0-1s0-.52,0-.65V.36a1.55,1.55,0,0,1,0-.31A3,3,0,0,1,97,0h2.1c.26,0,.52,0,.77.06a3.88,3.88,0,0,1,.71.18,2,2,0,0,1,.6.34,1.51,1.51,0,0,1,.4.55,2,2,0,0,1,.15.82,2.2,2.2,0,0,1-.06.53,1.72,1.72,0,0,1-.21.43,1.78,1.78,0,0,1-.35.38c-.14.11-.3.23-.48.35a2.65,2.65,0,0,0,.19.48,4,4,0,0,0,.28.46,2,2,0,0,0,.33.32.56.56,0,0,0,.32.12h.19a.64.64,0,0,0,.24,0Z"/><rect class="cls-2" x="11.13" y="2.18" width="12.41" height="0.67"/><rect class="cls-2" x="77.4" y="31.22" width="42.05" height="0.67"/><rect class="cls-2" x="11.13" y="31.22" width="41.62" height="0.67"/><path class="cls-2" d="M125.29,20.74h1.19V15.62h0l3.3,5.12h1.51V14.06h-1.19v5h0l-3.24-5h-1.57ZM110.4,16.42a2.37,2.37,0,0,1,.47-.76,2.05,2.05,0,0,1,.72-.51,2.23,2.23,0,0,1,.94-.19,2.27,2.27,0,0,1,1,.19,2.05,2.05,0,0,1,.72.51,2.37,2.37,0,0,1,.47.76,2.6,2.6,0,0,1,.17.93,2.86,2.86,0,0,1-.17,1,2.3,2.3,0,0,1-.47.79,2.22,2.22,0,0,1-.72.52,2.44,2.44,0,0,1-1,.19,2.39,2.39,0,0,1-.94-.19,2.22,2.22,0,0,1-.72-.52,2.3,2.3,0,0,1-.47-.79,2.86,2.86,0,0,1-.16-1,2.6,2.6,0,0,1,.16-.93m-1.15,2.44A3.33,3.33,0,0,0,110,20a3.18,3.18,0,0,0,1.11.7,3.85,3.85,0,0,0,1.42.25,3.73,3.73,0,0,0,1.44-.27,3.27,3.27,0,0,0,1.12-.72,3.23,3.23,0,0,0,.74-1.1,3.68,3.68,0,0,0,.26-1.43,3.75,3.75,0,0,0-.26-1.45,3.22,3.22,0,0,0-.74-1.12,3.08,3.08,0,0,0-1.12-.7,3.92,3.92,0,0,0-1.44-.23,3.85,3.85,0,0,0-1.42.25,3.07,3.07,0,0,0-1.11.71,3.22,3.22,0,0,0-.74,1.12,4,4,0,0,0-.26,1.46,3.87,3.87,0,0,0,.26,1.43M98.62,20.74h1.19V14.06H98.62Zm-12.09,0h1.19V15.13h2V14.06H84.48v1.07h2Zm-10.39-5.8a3.07,3.07,0,0,0-1.08-.81,3.29,3.29,0,0,0-1.26-.24,3.91,3.91,0,0,0-1.43.25,3.07,3.07,0,0,0-1.11.71A3.2,3.2,0,0,0,70.53,16a3.8,3.8,0,0,0-.27,1.46,3.68,3.68,0,0,0,.27,1.43,3.31,3.31,0,0,0,.73,1.1,3.18,3.18,0,0,0,1.11.7,3.91,3.91,0,0,0,1.43.25,3.37,3.37,0,0,0,1.38-.28,2.62,2.62,0,0,0,1.11-.91l-1-.7a2.06,2.06,0,0,1-.72.62,1.68,1.68,0,0,1-.79.2,2.43,2.43,0,0,1-.94-.19,2.22,2.22,0,0,1-.72-.52,2.3,2.3,0,0,1-.47-.79,2.86,2.86,0,0,1-.16-1,2.6,2.6,0,0,1,.16-.93,2.37,2.37,0,0,1,.47-.76,2.05,2.05,0,0,1,.72-.51A2.26,2.26,0,0,1,73.8,15a1.9,1.9,0,0,1,.7.14,1.86,1.86,0,0,1,.71.52Zm-19.36,5.8h4.6V19.67H58V17.85H61V16.78H58V15.13h3.24V14.06H56.78Zm-13,0h4V19.67H45V14.06H43.81Zm-13,0h4V19.67H32V14.06H30.84ZM16,16.42a2.37,2.37,0,0,1,.47-.76,2.05,2.05,0,0,1,.72-.51,2.23,2.23,0,0,1,.94-.19,2.27,2.27,0,0,1,1,.19,2.05,2.05,0,0,1,.72.51,2.21,2.21,0,0,1,.47.76,2.6,2.6,0,0,1,.17.93,2.86,2.86,0,0,1-.17,1,2.16,2.16,0,0,1-.47.79,2.22,2.22,0,0,1-.72.52,2.44,2.44,0,0,1-1,.19,2.39,2.39,0,0,1-.94-.19,2.22,2.22,0,0,1-.72-.52,2.3,2.3,0,0,1-.47-.79,2.86,2.86,0,0,1-.16-1,2.6,2.6,0,0,1,.16-.93M14.8,18.86a3.33,3.33,0,0,0,.74,1.1,3.18,3.18,0,0,0,1.11.7,3.85,3.85,0,0,0,1.42.25,3.77,3.77,0,0,0,1.44-.27,3.27,3.27,0,0,0,1.12-.72,3.23,3.23,0,0,0,.74-1.1,3.87,3.87,0,0,0,.26-1.43,3.94,3.94,0,0,0-.26-1.45,3.22,3.22,0,0,0-.74-1.12,3.08,3.08,0,0,0-1.12-.7,4,4,0,0,0-1.44-.23,3.85,3.85,0,0,0-1.42.25,3.07,3.07,0,0,0-1.11.71A3.22,3.22,0,0,0,14.8,16a4,4,0,0,0-.26,1.46,3.87,3.87,0,0,0,.26,1.43M5.87,14.94a2.9,2.9,0,0,0-1.08-.81,3.22,3.22,0,0,0-1.26-.24,3.85,3.85,0,0,0-1.42.25A3.07,3.07,0,0,0,1,14.85,3.22,3.22,0,0,0,.26,16,4,4,0,0,0,0,17.43a3.87,3.87,0,0,0,.26,1.43A3.33,3.33,0,0,0,1,20a3.18,3.18,0,0,0,1.11.7,3.85,3.85,0,0,0,1.42.25,3.42,3.42,0,0,0,1.39-.28A2.69,2.69,0,0,0,6,19.72L5,19a2,2,0,0,1-.71.62,1.72,1.72,0,0,1-.79.2,2.39,2.39,0,0,1-.94-.19,2.22,2.22,0,0,1-.72-.52,2.3,2.3,0,0,1-.47-.79,2.86,2.86,0,0,1-.16-1,2.6,2.6,0,0,1,.16-.93,2.37,2.37,0,0,1,.47-.76,2.05,2.05,0,0,1,.72-.51A2.23,2.23,0,0,1,3.54,15a1.94,1.94,0,0,1,.7.14,1.94,1.94,0,0,1,.71.52Z"/><rect class="cls-2" x="107.03" y="2.61" width="12.41" height="0.67"/></g><path class="cls-3" d="M170.65,379.23h-.12l-.12,0a5.78,5.78,0,0,1-.57.12,6.56,6.56,0,0,1-.76.09,4.37,4.37,0,0,0-1.35.26,5,5,0,0,0-1.22.74l-.46.33a5.94,5.94,0,0,1-.75.4,6.28,6.28,0,0,0-1,.57l-.56.47a7,7,0,0,1-.85.66l-.15.09a5.24,5.24,0,0,1-1.48.73,7.19,7.19,0,0,1-1.91.31,6.71,6.71,0,0,1-1.8-.29l-.49-.12-.22,0-.5-.12a3.08,3.08,0,0,0-.26-.24l-.86-.6a11.37,11.37,0,0,1-1.05-.75l-.37-.31c-.44-.37-.87-.72-1.33-1l-.57-.37c-.12-.1-.24-.21-.38-.31a1.31,1.31,0,0,0-.74-.28l-.31-.13a5.22,5.22,0,0,1-.63-.31,4.7,4.7,0,0,0-1.61-.61,13,13,0,0,0-1.92-.08h-.76a12.36,12.36,0,0,0-2,.1,10.83,10.83,0,0,0-2.09.59,4.57,4.57,0,0,0-1.15.75,5.77,5.77,0,0,1-.51.39l-.43.28c-.42.27-.81.52-1.18.8a7.38,7.38,0,0,1-1,.59c-.22.11-.43.23-.63.35l-.4.27a3.86,3.86,0,0,1-1.14.59l-.31.08a5.42,5.42,0,0,1-1.57.28,8.48,8.48,0,0,1-2-.14,3.29,3.29,0,0,1-1.06-.6,5.74,5.74,0,0,0-.5-.36,4.54,4.54,0,0,1-.73-.61,5.69,5.69,0,0,0-.62-.56,5.06,5.06,0,0,0-1-.56,5,5,0,0,1-.77-.39,11.34,11.34,0,0,0-1.79-.92,9.38,9.38,0,0,0-2-.5l-.54-.12a7.5,7.5,0,0,0-1.55-.22h-.53a8.56,8.56,0,0,0-1.62.07,7.36,7.36,0,0,0-1.68.55l-.32.13-.39.16a7.75,7.75,0,0,0-1.48.7c-.48.31-.91.64-1.33,1l-.22.17-.14.1,0,0a3.94,3.94,0,0,0,.41,1.74,2.81,2.81,0,0,1,.3.29.89.89,0,0,0,1.4.18l.24-.2.22-.18c.51-.39,1-.73,1.54-1a6.44,6.44,0,0,1,1.69-.79,3.11,3.11,0,0,1,1.06,0,8.32,8.32,0,0,0,.9.06,6.87,6.87,0,0,1,1.85.18,6.16,6.16,0,0,1,1.68.67,3.87,3.87,0,0,1,.68.61,7.33,7.33,0,0,0,.64.59c.47.37,1,.73,1.56,1.08l0,0a3.49,3.49,0,0,0,1.22.43,5.42,5.42,0,0,1,.8.23l.39.17a6.7,6.7,0,0,0,1.55.52,12.49,12.49,0,0,0,2.11.23,6.6,6.6,0,0,0,1.51-.22c.19-.05.38-.1.57-.13s.51-.07.76-.09a4.68,4.68,0,0,0,1.35-.25,5.35,5.35,0,0,0,1.22-.74,4.84,4.84,0,0,1,.46-.33,7.63,7.63,0,0,1,.75-.41,5.58,5.58,0,0,0,1-.57c.2-.15.38-.31.56-.46a7.33,7.33,0,0,1,.85-.67l.15-.09a5.29,5.29,0,0,1,1.47-.72,7.31,7.31,0,0,1,1.92-.32,7.13,7.13,0,0,1,1.8.29l.49.12.21.05.51.11a1.2,1.2,0,0,0,.26.24c.29.22.58.42.86.61a11.17,11.17,0,0,1,1,.75l.38.3c.44.37.86.72,1.33,1.05l.56.36c.13.11.25.22.39.32a1.23,1.23,0,0,0,.74.27l.31.14a6.07,6.07,0,0,1,.63.31,5,5,0,0,0,1.6.61,11.93,11.93,0,0,0,1.92.07h.77a11.29,11.29,0,0,0,2-.1,10.54,10.54,0,0,0,2.09-.59,4.49,4.49,0,0,0,1.14-.74,6,6,0,0,1,.52-.4l.43-.28a12.82,12.82,0,0,0,1.18-.8,5.53,5.53,0,0,1,1-.58c.21-.12.43-.23.63-.36s.27-.17.4-.26a3.44,3.44,0,0,1,1.14-.59l.3-.09.7-.18c.12,0,.33-.58.33-.58a1,1,0,0,0,.07-.3c0-.41.15-.93,0-1.23s-.5-.35-.78-.5"/><path class="cls-3" d="M170.38,386.53c-.13-.09-.33,0-.5,0a10.33,10.33,0,0,0-2,.5,4.42,4.42,0,0,0-1.13.69,4.52,4.52,0,0,1-.46.34l-.45.27c-.39.24-.77.47-1.1.72a11.77,11.77,0,0,1-1.41.93,5.53,5.53,0,0,1-1.57.54l-.47.12a4.48,4.48,0,0,1-1.25.22,9.11,9.11,0,0,1-1.31-.12l-.64-.09-.3,0a8.44,8.44,0,0,1-1.58-.25,5.35,5.35,0,0,1-1.15-.57l-.45-.27-.41-.2c-.28-.2-.56-.42-.84-.61a3.21,3.21,0,0,0-.94-.43l-.95-.69-.11-.07,0,0a1.19,1.19,0,0,0-.93-.25,2.91,2.91,0,0,0-.86-.44,13.18,13.18,0,0,0-2.22-.47,5.09,5.09,0,0,0-1.29.08,5.32,5.32,0,0,1-1,.1,4.93,4.93,0,0,1-.85-.1,3.68,3.68,0,0,0-1.19-.08,4,4,0,0,0-1.29.5,4.37,4.37,0,0,1-.54.26l-.63.21a4.56,4.56,0,0,0-1.21.48,4.3,4.3,0,0,0-.86.74,5,5,0,0,1-.48.45,7.56,7.56,0,0,1-1,.6l-.5.27a5.61,5.61,0,0,1-1.59.52l-.2,0a6.26,6.26,0,0,1-1.53.22,6.93,6.93,0,0,1-1.86-.27,5.81,5.81,0,0,1-1.64-.73,6.31,6.31,0,0,0-.73-.38,5.33,5.33,0,0,1-.94-.53,6.27,6.27,0,0,1-.54-.5,4.61,4.61,0,0,0-.87-.75,9.23,9.23,0,0,0-1.67-.81l-.16-.07a4.32,4.32,0,0,1-.53-.26,5.18,5.18,0,0,0-1.41-.53,12.17,12.17,0,0,0-2.17-.12,10.44,10.44,0,0,0-1.89.22l-.24,0c-.22,0-.45.07-.67.09a6.21,6.21,0,0,0-1.46.31,3.45,3.45,0,0,0-1,.77,4.17,4.17,0,0,1-.52.45c-.5.32-1,.67-1.5,1.07a3.37,3.37,0,0,0,.09,2c.48.39,1.17.91,2,.29l.14-.1.19-.13a4.13,4.13,0,0,0,.65-.68,2.66,2.66,0,0,1,.61-.6,6.52,6.52,0,0,1,1.73-.75,7.45,7.45,0,0,1,2-.3,6.8,6.8,0,0,1,1.84.31l.09,0a6.25,6.25,0,0,1,1.73.72,17.71,17.71,0,0,1,1.5,1.09c.18.14.35.3.53.47a6.27,6.27,0,0,0,.91.75l.34.24a7,7,0,0,0,1.38.79,4.76,4.76,0,0,0,1.36.27,6.39,6.39,0,0,1,.75.09,3.48,3.48,0,0,1,.68.21,3.8,3.8,0,0,0,1.41.33,12.86,12.86,0,0,0,2-.19,4.72,4.72,0,0,0,1.33-.47c.19-.09.36-.18.53-.24s.45-.15.67-.21a4.89,4.89,0,0,0,1.21-.46,3.36,3.36,0,0,0,.81-.78,3.53,3.53,0,0,1,.46-.48,6.41,6.41,0,0,1,.95-.56l.55-.29.41-.27a3.09,3.09,0,0,1,1.07-.54,2.47,2.47,0,0,1,.81.07,5.09,5.09,0,0,0,1,.12c.25,0,.5,0,.73,0a8.45,8.45,0,0,1,1.36,0l.49.08a4.28,4.28,0,0,1,2.65,1.09c.16.12.33.25.51.37a8.53,8.53,0,0,0,.74.45l.44.26.44.29a.41.41,0,0,0,.11.07c.24.19.49.37.76.56l.45.33c.42.11.84.24,1.26.38l.17-.07a5.25,5.25,0,0,0,1.43.11,8.75,8.75,0,0,1,1,0l.77.12a9.09,9.09,0,0,0,1.67.18,11.28,11.28,0,0,0,1.86-.18l.13,0a10.72,10.72,0,0,0,2-.42,4.71,4.71,0,0,0,1.18-.69c.14-.1.28-.21.43-.3a4.51,4.51,0,0,1,.77-.35,3.66,3.66,0,0,0,1-.48l.17-.13a12,12,0,0,1,1.17-.83l.23-.14a4.26,4.26,0,0,1,1.16-.54c.25-.37.78-.83.78-1.08a9.19,9.19,0,0,0-.5-2"/><path class="cls-3" d="M171.46,373.71c-.07-.2-.14-.41-.19-.61a5.3,5.3,0,0,1-.35-1.21,3.57,3.57,0,0,0-.57-.23l-.48.07a4.72,4.72,0,0,0-1.33.48l-.53.24c-.22.08-.44.14-.67.21a4.46,4.46,0,0,0-1.2.46,3.33,3.33,0,0,0-.81.77,3.55,3.55,0,0,1-.46.48,7,7,0,0,1-1,.57c-.19.09-.38.19-.55.29a4.94,4.94,0,0,0-.42.27,3.11,3.11,0,0,1-1.06.53,2.21,2.21,0,0,1-.81-.07,6,6,0,0,0-1-.12h-.73a6.59,6.59,0,0,1-1.36,0l-.5-.08a4.36,4.36,0,0,1-2.64-1.08c-.17-.13-.33-.25-.51-.37s-.48-.3-.74-.45l-.44-.26-.44-.3-.11-.07-.76-.55-.57-.42A1.21,1.21,0,0,0,150,372a6.06,6.06,0,0,0-1.42-.11,7,7,0,0,1-1,0c-.25,0-.51-.07-.78-.11a9,9,0,0,0-1.66-.19,12.49,12.49,0,0,0-1.87.18l-.13,0a10.26,10.26,0,0,0-2,.43,4.94,4.94,0,0,0-1.17.68l-.43.3a4.89,4.89,0,0,1-.77.35,3.82,3.82,0,0,0-1,.48l-.17.13a12.17,12.17,0,0,1-1.17.84l-.24.14a4.13,4.13,0,0,1-1.22.55,8,8,0,0,1-1.75.14,7.89,7.89,0,0,1-1.72-.18A4.84,4.84,0,0,1,130,375a6.16,6.16,0,0,0-.74-.33,3.56,3.56,0,0,1-.85-.43l-.46-.4a6.46,6.46,0,0,0-.92-.74c-.15-.09-.3-.21-.46-.33a3.94,3.94,0,0,0-1.14-.7,5.06,5.06,0,0,0-1.31-.23c-.23,0-.48,0-.72-.08a12.84,12.84,0,0,0-2-.13c-.29,0-.58,0-.86,0a9,9,0,0,0-1.47,0,11.49,11.49,0,0,0-1.75.41l-.48.14a7.63,7.63,0,0,0-1.5.66l-.51.26,0,0a11.42,11.42,0,0,0-1.69,1,.89.89,0,0,1-.07.28,5.21,5.21,0,0,0,.36,1.18l.09-.07-.08.1c.08.15.16.3.26.45a1.85,1.85,0,0,0,.47.27,1.14,1.14,0,0,0,1.16-.19,5.76,5.76,0,0,1,1.45-.71l.43-.17a9.23,9.23,0,0,1,2-.56c.27,0,.54-.11.8-.17a5.93,5.93,0,0,1,1.39-.22,5.72,5.72,0,0,1,1.45.23l.32.07a5.84,5.84,0,0,1,1.58.61,8.12,8.12,0,0,1,.84.64l.47.39a6.66,6.66,0,0,0,1,.58l.64.37a3.92,3.92,0,0,1,.48.39,3.14,3.14,0,0,0,1.06.72,4.36,4.36,0,0,0,1.26.18,6.65,6.65,0,0,1,.78.07,12.87,12.87,0,0,0,2,.16c.26,0,.53,0,.78,0a5.24,5.24,0,0,0,1.25,0,11.14,11.14,0,0,0,2-.5,4.11,4.11,0,0,0,1.13-.7,4.48,4.48,0,0,1,.47-.33l.45-.28a11.44,11.44,0,0,0,1.09-.72,12.47,12.47,0,0,1,1.41-.92,5,5,0,0,1,1.57-.54l.48-.13a4.35,4.35,0,0,1,1.25-.22,8.8,8.8,0,0,1,1.3.13l.65.09.3,0a8.44,8.44,0,0,1,1.58.25,4.93,4.93,0,0,1,1.15.57l.45.26a3.91,3.91,0,0,0,.41.2l.83.62a3.55,3.55,0,0,0,.95.43l.95.69.1.07.06,0a1.19,1.19,0,0,0,.93.26,2.91,2.91,0,0,0,.86.44,13.19,13.19,0,0,0,2.22.46,4.25,4.25,0,0,0,1.28-.08,6.38,6.38,0,0,1,1-.1,4.93,4.93,0,0,1,.85.1l.24,0c1-.33,2.1-.54,3.13-.93.65-.23,1.28-.51,1.91-.79a6,6,0,0,0,.44-.42,3.34,3.34,0,0,1,.48-.45,6.12,6.12,0,0,1,1-.6c.17-.09.34-.18.5-.28a5.5,5.5,0,0,1,1.59-.51l.2-.05.31-.07a4.79,4.79,0,0,0,.76-1v-.05"/><path class="cls-4" d="M86.64,376.86a13,13,0,0,1,.07-1.37A9.18,9.18,0,0,1,87,374.1a7,7,0,0,1,.48-1.31A3.68,3.68,0,0,1,89.29,371a3.72,3.72,0,0,1,1.48-.28,3.79,3.79,0,0,1,1.48.28,3.71,3.71,0,0,1,1.85,1.84,7,7,0,0,1,.48,1.31,8.08,8.08,0,0,1,.24,1.39,13,13,0,0,1,.07,1.37,13.55,13.55,0,0,1-.17,2,7,7,0,0,1-.62,2,4.41,4.41,0,0,1-1.26,1.54,3.39,3.39,0,0,1-2.07.61,3.35,3.35,0,0,1-2.07-.61,4.2,4.2,0,0,1-1.26-1.54,6.74,6.74,0,0,1-.63-2A13.55,13.55,0,0,1,86.64,376.86Zm1.62,0c0,.39,0,.86.08,1.4a7,7,0,0,0,.33,1.57,3.43,3.43,0,0,0,.75,1.27,2,2,0,0,0,2.69,0,3.43,3.43,0,0,0,.75-1.27,7,7,0,0,0,.33-1.57c0-.54.08-1,.08-1.4s0-.58,0-.92a6.5,6.5,0,0,0-.12-1.05,7.06,7.06,0,0,0-.26-1,3.45,3.45,0,0,0-.45-.9,2.15,2.15,0,0,0-.68-.63,2.06,2.06,0,0,0-1.93,0,2.15,2.15,0,0,0-.68.63,3.45,3.45,0,0,0-.45.9,7.06,7.06,0,0,0-.26,1,9.94,9.94,0,0,0-.12,1.05C88.27,376.28,88.26,376.59,88.26,376.86Z"/><path class="cls-4" d="M100.67,383.05a4.81,4.81,0,0,1-1.53-.25,3.4,3.4,0,0,1-1.24-.72,3.33,3.33,0,0,1-.83-1.15,3.68,3.68,0,0,1-.3-1.52,3.13,3.13,0,0,1,.17-1,3,3,0,0,1,.49-.85,2.7,2.7,0,0,1,.71-.64,3.23,3.23,0,0,1,.91-.4v-.05a2.29,2.29,0,0,1-.68-.31,2.43,2.43,0,0,1-.6-.56,2.82,2.82,0,0,1-.43-.81,3.5,3.5,0,0,1-.17-1.11,2.78,2.78,0,0,1,.28-1.23,3,3,0,0,1,.76-.94,4,4,0,0,1,1.12-.6,4.23,4.23,0,0,1,1.34-.21,4.33,4.33,0,0,1,1.35.21,3.94,3.94,0,0,1,1.11.6,2.87,2.87,0,0,1,.76.94,2.65,2.65,0,0,1,.28,1.23,3.5,3.5,0,0,1-.17,1.11,2.59,2.59,0,0,1-.43.81,2.12,2.12,0,0,1-.6.56,2.18,2.18,0,0,1-.68.31v.05a3.23,3.23,0,0,1,.91.4,2.91,2.91,0,0,1,.72.64,3.22,3.22,0,0,1,.48.85,2.9,2.9,0,0,1,.18,1,3.68,3.68,0,0,1-.31,1.52,3.33,3.33,0,0,1-.83,1.15,3.4,3.4,0,0,1-1.24.72A4.81,4.81,0,0,1,100.67,383.05Zm0-1.42a2.26,2.26,0,0,0,1.65-.62,2.13,2.13,0,0,0,.63-1.6,2.52,2.52,0,0,0-.17-1,2.1,2.1,0,0,0-.49-.7,2.4,2.4,0,0,0-.73-.42,2.86,2.86,0,0,0-.89-.14,2.34,2.34,0,0,0-1.64.63,2.09,2.09,0,0,0-.64,1.58,2.19,2.19,0,0,0,.19.94,2,2,0,0,0,.49.69,2.14,2.14,0,0,0,.73.43A2.35,2.35,0,0,0,100.67,381.63Zm-1.87-7.74a1.86,1.86,0,0,0,.49,1.29,1.81,1.81,0,0,0,1.38.6,2,2,0,0,0,.82-.16,1.85,1.85,0,0,0,.94-1,2.16,2.16,0,0,0,.12-.71,1.87,1.87,0,0,0-.52-1.37,1.81,1.81,0,0,0-1.36-.53,1.87,1.87,0,0,0-1.33.53A1.8,1.8,0,0,0,98.8,373.89Z"/><rect class="cls-4" x="85.6" y="386.51" width="20.24" height="0.74"/><path class="cls-4" d="M96.45,391.66l-1,.89L95,392l1.55-1.28h.78v5.1h-.86Z"/><path class="cls-4" d="M99.18,394.85l2-1.91.18-.19a1.06,1.06,0,0,0,.17-.2,1.34,1.34,0,0,0,.13-.23.7.7,0,0,0,0-.25.64.64,0,0,0-.06-.28.83.83,0,0,0-.16-.21.7.7,0,0,0-.24-.13.87.87,0,0,0-.28-.05.76.76,0,0,0-.54.19.83.83,0,0,0-.25.5l-.9-.07a1.53,1.53,0,0,1,.16-.62,1.49,1.49,0,0,1,.37-.45,1.73,1.73,0,0,1,.52-.28,2.15,2.15,0,0,1,.64-.09,2.2,2.2,0,0,1,.64.09,1.43,1.43,0,0,1,.52.27,1.16,1.16,0,0,1,.36.45,1.55,1.55,0,0,1,.13.64,1.58,1.58,0,0,1-.22.83,3.5,3.5,0,0,1-.57.67L100.23,395h2.37v.78H99.18Z"/><path class="cls-4" d="M91.15,392.26a2.42,2.42,0,0,1-.08.69,1.66,1.66,0,0,1-.23.54,1,1,0,0,1-.36.34A1,1,0,0,1,90,394a1,1,0,0,1-.49-.13,1.06,1.06,0,0,1-.36-.34,1.66,1.66,0,0,1-.23-.54,2.84,2.84,0,0,1-.08-.69,3,3,0,0,1,.08-.69,1.69,1.69,0,0,1,.22-.53,1.19,1.19,0,0,1,.37-.34,1,1,0,0,1,.49-.12,1,1,0,0,1,.48.12,1.06,1.06,0,0,1,.36.34,1.7,1.7,0,0,1,.23.53A2.51,2.51,0,0,1,91.15,392.26Zm-.56,0a2.32,2.32,0,0,0,0-.46,1.34,1.34,0,0,0-.11-.37.69.69,0,0,0-.19-.25.38.38,0,0,0-.25-.09.39.39,0,0,0-.26.09.69.69,0,0,0-.19.25,1.34,1.34,0,0,0-.11.37,2.32,2.32,0,0,0,0,.46,2.19,2.19,0,0,0,0,.46,1.31,1.31,0,0,0,.11.38.69.69,0,0,0,.19.25.39.39,0,0,0,.26.09.41.41,0,0,0,.26-.09.8.8,0,0,0,.18-.25,1.31,1.31,0,0,0,.11-.38A2.19,2.19,0,0,0,90.59,392.26Z"/><path class="cls-4" d="M92.19,391.15V392H93v.46H92.2v1.38h-.55v-3.21h1.44v.49Z"/></g></g></svg>