<?xml version="1.0" encoding="utf-8"?>
<!-- Generator: Adobe Illustrator 26.0.3, SVG Export Plug-In . SVG Version: 6.00 Build 0)  -->
<svg version="1.1" id="Layer_1" xmlns="http://www.w3.org/2000/svg" xmlns:xlink="http://www.w3.org/1999/xlink" x="0px" y="0px"
	 viewBox="0 0 300 250" style="enable-background:new 0 0 300 250;" xml:space="preserve">
<style type="text/css">
	.st0{fill:#70005B;}
</style>
<g>
	<g>
		<path class="st0" d="M41.1,81.9c1.3,1.1,2.9,1.8,4.7,1.8c1.5,0,2.2-0.5,2.2-1.4s-1.2-1.3-2.7-1.6c-2.3-0.4-5.3-1-5.3-4.2
			c0-2.3,2-4.2,5.5-4.2c2,0,3.9,0.6,5.5,1.8l-1.4,2.4c-1.1-1-2.5-1.6-4-1.6c-1.3,0-2.1,0.5-2.1,1.2s1,1.1,2.6,1.4
			c2.3,0.4,5.4,1.1,5.4,4.4c0,2.4-2.1,4.3-5.8,4.3c-2.2,0.1-4.3-0.7-6-2.1L41.1,81.9z"/>
		<path class="st0" d="M53.2,79.3c-0.1-3.8,2.9-6.9,6.6-7c0.2,0,0.3,0,0.5,0c3.9,0,7,3.2,7,7.1s-3.2,7-7.1,7S53.1,83.3,53.2,79.3
			C53.2,79.4,53.2,79.4,53.2,79.3z M63.7,79.3c0-2.1-1.2-3.9-3.5-3.9s-3.4,1.8-3.4,3.9s1.2,3.9,3.4,3.9S63.7,81.5,63.7,79.3z"/>
		<path class="st0" d="M78.1,84.7c-1.1,1.2-2.7,1.8-4.3,1.7c-2.5,0.1-4.6-1.8-4.7-4.3c0-0.1,0-0.1,0-0.2c0-3.2,2.5-4.3,4.7-4.3
			c1.6-0.1,3.2,0.5,4.3,1.7v-1.9c0-1.4-1.2-2.3-2.9-2.3c-1.5,0-2.9,0.6-3.9,1.6l-1.3-2.4c1.6-1.4,3.7-2.1,5.9-2.1
			c3.1,0,5.9,1.2,5.9,5.1v8.7h-3.5V84.7z M78.1,81.2c-0.7-0.8-1.8-1.2-2.8-1.2c-1.4,0-2.5,0.7-2.5,2s1.2,2,2.5,2
			c1.1,0.1,2.1-0.4,2.8-1.2V81.2z"/>
		<path class="st0" d="M90.3,80.9l-1.6,1.7v3.4h-3.5V67.5h3.5v11.1l5.1-6h4.3l-5.3,6.1l5.5,7.3h-4.4L90.3,80.9z"/>
		<path class="st0" d="M106.8,68.6c0-1.2,0.9-2.1,2.1-2.1s2.1,0.9,2.1,2.1s-0.9,2.1-2.1,2.1c0,0,0,0,0,0
			C107.8,70.6,106.8,69.7,106.8,68.6z M107.2,72.6h3.5v13.4h-3.5V72.6z"/>
		<path class="st0" d="M114.9,82.8v-7h-2.2v-3.1h2.2V69h3.6v3.7h2.7v3.1h-2.7v6c0,0.8,0.4,1.5,1.2,1.5c0.4,0,0.9-0.1,1.2-0.4
			l0.8,2.7c-0.9,0.7-1.9,1-3,0.9C116.2,86.4,114.9,85.1,114.9,82.8z"/>
		<path class="st0" d="M139.8,84.4c-1.2,1.3-2.9,2-4.7,2c-2.9,0-4.3-1.6-4.3-4.2v-9.5h3.5v8.2c-0.2,1.2,0.6,2.3,1.8,2.5
			c0.2,0,0.5,0,0.7,0c1.2,0,2.3-0.6,3.1-1.5v-9.1h3.5v13.4h-3.5V84.4z"/>
		<path class="st0" d="M146.9,91.2V72.6h3.5v1.7c1-1.3,2.5-2,4.1-2c3.4,0,6,2.6,6,7s-2.5,7.1-6,7.1c-1.6,0-3.2-0.8-4.1-2.1v6.8
			L146.9,91.2z M153.5,75.4c-1.2,0-2.3,0.6-3,1.5v4.8c0.7,0.9,1.8,1.5,3,1.5c2,0,3.4-1.6,3.4-3.9S155.5,75.4,153.5,75.4L153.5,75.4z
			"/>
		<path class="st0" d="M164.9,81.9c1.2,0,2.3,1,2.3,2.3c0,1.2-1,2.3-2.3,2.3c-1.2,0-2.3-1-2.3-2.3c0,0,0,0,0,0
			C162.6,82.9,163.6,81.9,164.9,81.9z"/>
	</g>
</g>
</svg>
