<?xml version="1.0" encoding="utf-8"?>
<!-- Generator: Adobe Illustrator 26.0.3, SVG Export Plug-In . SVG Version: 6.00 Build 0)  -->
<svg version="1.1" id="Layer_1" xmlns="http://www.w3.org/2000/svg" xmlns:xlink="http://www.w3.org/1999/xlink" x="0px" y="0px"
	 viewBox="0 0 300 250" style="enable-background:new 0 0 300 250;" xml:space="preserve">
<style type="text/css">
	.st0{fill:#FFFFFF;}
</style>
<g>
	<g>
		<path class="st0" d="M40.8,92.6h3.5v6.8c1-1.3,2.5-2.1,4.2-2.1c3.4,0,6,2.7,6,7.1s-2.6,7-6,7c-1.6,0-3.2-0.8-4.2-2.1v1.7h-3.5
			V92.6z M47.3,108.4c2.1,0,3.4-1.6,3.4-3.9s-1.4-3.9-3.4-3.9c-1.2,0-2.3,0.6-3,1.6v4.8C45.1,107.8,46.2,108.3,47.3,108.4z"/>
		<path class="st0" d="M56.7,93.6c0-1.2,1-2.1,2.1-2.1c1.2,0,2.1,1,2.1,2.1c0,1.2-0.9,2.1-2.1,2.1C57.7,95.7,56.7,94.8,56.7,93.6z
			 M57.1,97.7h3.5v13.4h-3.5V97.7z"/>
		<path class="st0" d="M65.4,112.1c1.1,1.1,2.6,1.8,4.2,1.7c1.7,0,3.7-0.8,3.7-3.4V109c-1,1.3-2.5,2.1-4.2,2.1
			c-3.4,0-5.9-2.4-5.9-6.8s2.5-6.8,5.9-6.8c1.6,0,3.2,0.8,4.2,2.1v-1.8h3.6v12.5c0,5.1-4,6.4-7.3,6.4c-2.1,0.1-4.2-0.6-5.8-2
			L65.4,112.1z M73.3,102.1c-0.7-0.9-1.8-1.5-3-1.5c-2,0-3.4,1.4-3.4,3.7s1.4,3.7,3.4,3.7c1.2,0,2.3-0.6,3-1.5V102.1z"/>
		<path class="st0" d="M95.6,109.8c-1.1,1.2-2.7,1.8-4.3,1.7c-2.5,0.1-4.6-1.8-4.7-4.3c0-0.1,0-0.1,0-0.2c0-3.1,2.5-4.3,4.7-4.3
			c1.6-0.1,3.2,0.5,4.3,1.7v-1.9c0-1.4-1.2-2.2-3-2.2c-1.5,0-2.9,0.6-3.9,1.6l-1.3-2.4c1.6-1.4,3.7-2.2,5.9-2.1
			c3.1,0,5.9,1.2,5.9,5.1v8.7h-3.5V109.8z M95.6,106.3c-0.7-0.8-1.8-1.2-2.8-1.2c-1.4,0-2.5,0.7-2.5,2s1.1,2,2.5,2
			c1.1,0.1,2.1-0.3,2.8-1.1V106.3z"/>
		<path class="st0" d="M111.9,109.5c-1,1.3-2.5,2.1-4.2,2.1c-3.4,0-6-2.6-6-7s2.5-7.1,6-7.1c1.6,0,3.2,0.8,4.2,2.1v-6.9h3.6v18.6
			h-3.6V109.5z M111.9,102.1c-0.7-1-1.9-1.5-3.1-1.5c-2,0-3.4,1.6-3.4,3.9s1.4,3.9,3.4,3.9c1.2,0,2.3-0.6,3.1-1.5V102.1z"/>
		<path class="st0" d="M117.1,97.7h3.8l3.5,9.4l3.5-9.4h3.8l-5.4,13.4h-3.8L117.1,97.7z"/>
		<path class="st0" d="M139.4,97.4c4,0,6.7,3,6.7,7.4v0.8h-10c0.3,1.9,2,3.3,3.9,3.1c1.3,0,2.6-0.5,3.6-1.3l1.6,2.3
			c-1.6,1.3-3.5,1.9-5.6,1.9c-3.9,0.1-7.1-3.1-7.2-7C132.3,100.7,135.5,97.5,139.4,97.4z M136.1,103.2h6.6c-0.1-1.7-1.5-3.1-3.3-3
			c0,0,0,0-0.1,0C137.6,100.1,136.2,101.5,136.1,103.2z"/>
		<path class="st0" d="M157.7,103.1c0.2-1.2-0.6-2.3-1.8-2.5c-0.2,0-0.4,0-0.7,0c-1.2,0-2.3,0.6-3.1,1.6v9.1h-3.5V97.7h3.5v1.8
			c1.2-1.4,2.9-2.1,4.7-2.1c3,0,4.4,1.7,4.4,4.3v9.5h-3.5L157.7,103.1z"/>
		<path class="st0" d="M165.5,107.8v-7h-2.2v-3.1h2.2v-3.7h3.6v3.7h2.7v3.1h-2.7v6.1c0,0.8,0.4,1.5,1.2,1.5c0.4,0,0.9-0.1,1.2-0.4
			l0.8,2.7c-0.8,0.6-1.9,0.9-2.9,0.9C166.8,111.5,165.5,110.2,165.5,107.8z"/>
		<path class="st0" d="M183.3,109.5c-1.2,1.3-2.9,2-4.7,2c-2.9,0-4.3-1.6-4.3-4.2v-9.5h3.5v8.2c0,1.9,1,2.5,2.5,2.5
			c1.2,0,2.3-0.6,3.1-1.5v-9.1h3.5v13.4h-3.5V109.5z"/>
		<path class="st0" d="M190.3,97.7h3.5v1.8c1.1-1.3,2.6-2.1,4.3-2.1v3.4c-0.3-0.1-0.7-0.1-1-0.1c-1.3,0-2.5,0.6-3.3,1.5v8.9h-3.5
			L190.3,97.7z"/>
		<path class="st0" d="M206.4,97.4c4,0,6.7,3,6.7,7.4v0.8h-10c0.3,1.9,2,3.3,3.9,3.1c1.3,0,2.6-0.5,3.6-1.3l1.6,2.3
			c-1.6,1.3-3.5,1.9-5.5,1.9c-3.9,0.1-7.1-3.1-7.2-7C199.4,100.7,202.5,97.5,206.4,97.4L206.4,97.4z M203.1,103.2h6.6
			c-0.1-1.7-1.5-3.1-3.2-3c0,0-0.1,0-0.1,0C204.7,100.1,203.3,101.5,203.1,103.2L203.1,103.2z"/>
		<path class="st0" d="M217.4,107c1.2,0,2.3,1,2.3,2.3s-1,2.3-2.3,2.3c-1.2,0-2.3-1-2.3-2.3l0,0C215.2,108,216.2,107,217.4,107z"/>
	</g>
</g>
</svg>
