<?xml version="1.0" encoding="utf-8"?>
<!-- Generator: Adobe Illustrator 26.0.3, SVG Export Plug-In . SVG Version: 6.00 Build 0)  -->
<svg version="1.1" id="Layer_1" xmlns="http://www.w3.org/2000/svg" xmlns:xlink="http://www.w3.org/1999/xlink" x="0px" y="0px"
	 viewBox="0 0 300 250" style="enable-background:new 0 0 300 250;" xml:space="preserve">
<style type="text/css">
	.st0{fill:#FFFFFF;}
	.st1{fill:#CEFFFF;}
</style>
<g>
	<g>
		<path class="st0" d="M45.1,45.9h-5.4v-3.5h14.8v3.5h-5.4V61h-4L45.1,45.9z"/>
		<path class="st0" d="M56.6,43.5c0-1.2,1-2.1,2.1-2.1c1.2,0,2.1,0.9,2.1,2.1c0,1.2-0.9,2.1-2.1,2.1C57.5,45.6,56.6,44.6,56.6,43.5
			C56.6,43.5,56.6,43.5,56.6,43.5z M57,47.5h3.5V61H57V47.5z"/>
		<path class="st0" d="M80.7,52.5c0-1.3-0.6-2.2-2-2.2c-1.1,0.1-2.1,0.6-2.8,1.6V61h-3.6v-8.5c0-1.3-0.6-2.2-2-2.2
			c-1.1,0.1-2.2,0.7-2.8,1.6v9H64V47.5h3.5v1.8c1.1-1.3,2.7-2.1,4.4-2.1c1.7-0.2,3.2,0.9,3.7,2.5c1.1-1.5,2.8-2.4,4.6-2.5
			c2.5,0,4,1.3,4,4.1V61h-3.6V52.5z"/>
		<path class="st0" d="M93.8,47.2c4,0,6.7,3,6.7,7.4v0.8h-10c0.3,1.9,2,3.3,3.9,3.1c1.3,0,2.6-0.5,3.6-1.3l1.6,2.3
			C98,60.7,96,61.4,94,61.3c-3.9,0.1-7.1-3.1-7.2-7S89.9,47.3,93.8,47.2L93.8,47.2z M90.5,53h6.6c-0.1-1.7-1.5-3.1-3.3-3
			c0,0,0,0-0.1,0C92.1,49.9,90.6,51.3,90.5,53z"/>
		<path class="st0" d="M111,57.7v-7h-2.2v-3.1h2.2v-3.7h3.6v3.7h2.7v3.1h-2.7v6.1c0,0.8,0.4,1.5,1.2,1.5c0.4,0,0.9-0.1,1.2-0.4
			l0.8,2.7c-0.9,0.6-1.9,1-3,0.9C112.3,61.3,111,60,111,57.7z"/>
		<path class="st0" d="M118.8,54.3c0-3.9,3.1-7.1,7.1-7.2s7.1,3.1,7.2,7.1c0,3.9-3.1,7.1-7.1,7.2c0,0,0,0-0.1,0
			c-3.8,0.2-6.9-2.8-7.1-6.5C118.8,54.6,118.8,54.4,118.8,54.3z M129.4,54.3c0-2.1-1.2-3.9-3.4-3.9s-3.4,1.8-3.4,3.9
			s1.2,3.9,3.4,3.9S129.4,56.4,129.4,54.3z"/>
		<path class="st1" d="M149.1,47.2c2.1-0.1,4.1,0.8,5.3,2.4l-2.3,2.2c-0.6-0.9-1.7-1.5-2.8-1.5c-2,0-3.6,1.5-3.7,3.5
			c0,0.1,0,0.2,0,0.4c-0.2,2,1.3,3.7,3.3,3.9c0.1,0,0.2,0,0.3,0c1.1,0,2.2-0.5,2.8-1.5l2.3,2.1c-1.3,1.7-3.2,2.6-5.3,2.5
			c-3.9,0-7.1-3.2-7.1-7.1S145.2,47.2,149.1,47.2C149.1,47.2,149.1,47.2,149.1,47.2z"/>
		<path class="st1" d="M156.8,47.5h3.5v1.8c1-1.3,2.6-2.1,4.3-2.2v3.5c-0.3-0.1-0.7-0.1-1-0.1c-1.3,0-2.5,0.6-3.3,1.5V61h-3.5
			L156.8,47.5z"/>
		<path class="st1" d="M175.9,59.3c-1.2,1.3-2.9,2-4.7,2c-3,0-4.4-1.6-4.4-4.2v-9.5h3.5v8.2c-0.2,1.2,0.6,2.3,1.8,2.5
			c0.2,0,0.5,0,0.7,0c1.2,0,2.3-0.6,3.1-1.5v-9.1h3.5V61h-3.5L175.9,59.3z"/>
		<path class="st1" d="M182.6,43.5c0-1.2,0.9-2.1,2.1-2.1c1.2,0,2.1,0.9,2.1,2.1l0,0c0,1.2-0.9,2.1-2.1,2.1
			C183.5,45.6,182.6,44.6,182.6,43.5z M182.9,47.5h3.5V61h-3.5V47.5z"/>
		<path class="st1" d="M190.3,56.8c1.3,1.1,3,1.8,4.7,1.8c1.5,0,2.3-0.5,2.3-1.4s-1.2-1.3-2.7-1.6c-2.3-0.4-5.3-1-5.3-4.2
			c0-2.3,2-4.2,5.5-4.2c2,0,3.9,0.6,5.4,1.8l-1.4,2.4c-1.1-1-2.5-1.6-4-1.6c-1.3,0-2.1,0.5-2.1,1.2s1.1,1.1,2.6,1.5
			c2.3,0.4,5.4,1,5.4,4.4c0,2.5-2.1,4.3-5.8,4.3c-2.2,0-4.3-0.7-6-2.1L190.3,56.8z"/>
		<path class="st1" d="M209.3,47.2c4,0,6.7,3,6.7,7.4v0.8h-10c0.3,1.9,2,3.3,3.9,3.1c1.3,0,2.6-0.5,3.6-1.3l1.6,2.3
			c-1.6,1.3-3.5,1.9-5.6,1.9c-3.9,0.1-7.1-3.1-7.2-7C202.4,50.5,205.5,47.3,209.3,47.2L209.3,47.2z M206,53h6.6
			c-0.1-1.7-1.5-3.1-3.3-3c0,0,0,0-0.1,0C207.6,49.9,206.1,51.3,206,53z"/>
	</g>
</g>
</svg>
