<?xml version="1.0" encoding="utf-8"?>
<!-- Generator: Adobe Illustrator 26.0.3, SVG Export Plug-In . SVG Version: 6.00 Build 0)  -->
<svg version="1.1" id="Layer_1" xmlns="http://www.w3.org/2000/svg" xmlns:xlink="http://www.w3.org/1999/xlink" x="0px" y="0px"
	 viewBox="0 0 300 250" style="enable-background:new 0 0 300 250;" xml:space="preserve">
<style type="text/css">
	.st0{fill:#CEFFFF;}
</style>
<g>
	<g>
		<path class="st0" d="M40.8,67.5h4v15.1h7.9v3.5H40.8V67.5z"/>
		<path class="st0" d="M63.2,84.7c-1.1,1.2-2.7,1.8-4.3,1.7c-2.5,0.1-4.6-1.8-4.7-4.3c0-0.1,0-0.1,0-0.2c0-3.2,2.5-4.3,4.7-4.3
			c1.6-0.1,3.2,0.5,4.3,1.7v-1.9c0-1.4-1.2-2.3-3-2.3c-1.5,0-2.9,0.6-3.9,1.6L55,74.4c1.6-1.4,3.7-2.1,5.9-2.1
			c3.1,0,5.9,1.2,5.9,5.1v8.7h-3.6V84.7z M63.2,81.2c-0.7-0.8-1.8-1.2-2.8-1.2c-1.4,0-2.5,0.7-2.5,2s1.2,2,2.5,2
			c1.1,0.1,2.1-0.4,2.8-1.2V81.2z"/>
		<path class="st0" d="M75.4,80.9l-1.6,1.7v3.4h-3.5V67.5h3.5v11.1l5.1-6h4.3l-5.3,6.1l5.5,7.3H79L75.4,80.9z"/>
		<path class="st0" d="M91.1,72.3c4,0,6.7,3,6.7,7.4v0.8h-10c0.3,1.9,2,3.3,3.9,3.1c1.3,0,2.6-0.5,3.6-1.3l1.6,2.3
			c-1.6,1.3-3.5,1.9-5.5,1.9c-3.9,0.1-7.1-3-7.2-6.9S87.2,72.4,91.1,72.3L91.1,72.3z M87.8,78.1h6.6c-0.1-1.7-1.5-3.1-3.3-3
			c0,0,0,0-0.1,0C89.3,75.1,87.9,76.4,87.8,78.1z"/>
		<path class="st0" d="M111.9,71h-5.4v-3.5h14.8V71h-5.4v15.1h-4L111.9,71z"/>
		<path class="st0" d="M127.1,72.3c4,0,6.7,3,6.7,7.4v0.8h-10c0.3,1.9,2,3.3,3.9,3.1c1.3,0,2.6-0.5,3.6-1.3l1.6,2.3
			c-1.6,1.3-3.5,1.9-5.5,1.9c-3.9,0.1-7.1-3.1-7.2-7C120.1,75.6,123.2,72.4,127.1,72.3C127.1,72.3,127.1,72.3,127.1,72.3z
			 M123.8,78.1h6.6c-0.1-1.7-1.5-3.1-3.2-3c0,0-0.1,0-0.1,0C125.4,75.1,123.9,76.4,123.8,78.1z"/>
		<path class="st0" d="M155.5,82.9h-8.3l-1.2,3.2h-4.4l7.2-18.6h5l7.1,18.6h-4.3L155.5,82.9z M148.2,79.5h6.1l-3.1-8.5L148.2,79.5z"
			/>
		<path class="st0" d="M171.7,78c0.2-1.2-0.6-2.3-1.8-2.5c-0.2,0-0.4,0-0.7,0c-1.2,0-2.3,0.6-3.1,1.5v9h-3.5V72.6h3.5v1.8
			c1.2-1.3,2.9-2.1,4.7-2.1c2.9,0,4.4,1.7,4.4,4.3v9.5h-3.5V78z"/>
		<path class="st0" d="M186.8,84.7c-1.1,1.2-2.7,1.8-4.3,1.7c-2.5,0.1-4.6-1.8-4.7-4.3c0-0.1,0-0.1,0-0.2c0-3.2,2.5-4.3,4.7-4.3
			c1.6-0.1,3.2,0.5,4.3,1.7v-1.9c0-1.4-1.2-2.3-3-2.3c-1.5,0-2.9,0.6-3.9,1.6l-1.3-2.4c1.6-1.4,3.7-2.1,5.9-2.1
			c3.1,0,5.9,1.2,5.9,5.1v8.7h-3.5L186.8,84.7z M186.8,81.2c-0.7-0.8-1.7-1.2-2.8-1.2c-1.4,0-2.5,0.7-2.5,2s1.1,2,2.5,2
			c1.1,0.1,2.1-0.4,2.8-1.2L186.8,81.2z"/>
		<path class="st0" d="M202.9,84.4c-1.2,1.3-2.9,2-4.7,2c-3,0-4.4-1.6-4.4-4.2v-9.5h3.5v8.2c-0.2,1.2,0.6,2.3,1.8,2.5
			c0.2,0,0.5,0,0.7,0c1.2,0,2.3-0.6,3.1-1.5v-9.1h3.5v13.4h-3.5L202.9,84.4z"/>
		<path class="st0" d="M211.8,81.9c1.2,0,2.3,1,2.3,2.2s-1,2.3-2.2,2.3c-1.2,0-2.3-1-2.3-2.2c0,0,0,0,0,0
			C209.5,82.9,210.5,81.9,211.8,81.9z"/>
	</g>
</g>
</svg>
