<?xml version="1.0" encoding="utf-8"?>
<!-- Generator: Adobe Illustrator 26.0.3, SVG Export Plug-In . SVG Version: 6.00 Build 0)  -->
<svg version="1.1" id="Layer_1" xmlns="http://www.w3.org/2000/svg" xmlns:xlink="http://www.w3.org/1999/xlink" x="0px" y="0px"
	 viewBox="0 0 300 250" style="enable-background:new 0 0 300 250;" xml:space="preserve">
<style type="text/css">
	.st0{clip-path:url(#SVGID_00000140705258576815081970000017200163275425255051_);}
	.st1{fill:#FFFFFF;}
	.st2{fill:#81929F;}
</style>
<g>
	<g>
		<g>
			<defs>
				<rect id="SVGID_1_" width="300" height="250"/>
			</defs>
			<clipPath id="SVGID_00000155143543723361893140000010678951973815983026_">
				<use xlink:href="#SVGID_1_"  style="overflow:visible;"/>
			</clipPath>
			<g style="clip-path:url(#SVGID_00000155143543723361893140000010678951973815983026_);">
				<path class="st1" d="M53,142.9c-7.8,0-14,6.3-14,14s6.3,14,14,14h65.4c7.8,0,14-6.3,14-14s-6.3-14-14-14H53z"/>
			</g>
		</g>
		<path class="st2" d="M52.1,151.4h4.8c1.8-0.1,3.3,1.3,3.4,3.1s-1.3,3.3-3.1,3.4c-0.1,0-0.2,0-0.4,0h-2.6v3.6h-2.2V151.4z
			 M56.5,153.2h-2.3v2.8h2.3c0.8,0.1,1.5-0.5,1.5-1.3s-0.5-1.5-1.3-1.5C56.7,153.2,56.6,153.2,56.5,153.2z"/>
		<path class="st2" d="M61.5,151.4h1.9v10.1h-1.9V151.4z"/>
		<path class="st2" d="M69.8,160.8c-0.6,0.6-1.5,1-2.3,0.9c-1.4,0.1-2.5-1-2.6-2.3c0,0,0-0.1,0-0.1c0-1.3,1.1-2.3,2.3-2.3
			c0.1,0,0.1,0,0.2,0c0.9-0.1,1.7,0.3,2.3,0.9v-1c0-0.7-0.6-1.2-1.6-1.2c-0.8,0-1.6,0.3-2.1,0.9l-0.7-1.3c0.9-0.8,2-1.2,3.2-1.2
			c1.7,0,3.2,0.7,3.2,2.8v4.8h-1.9V160.8z M69.8,158.9c-0.4-0.4-1-0.7-1.6-0.6c-0.8,0-1.4,0.4-1.4,1.1s0.6,1.1,1.4,1.1
			c0.6,0,1.2-0.2,1.6-0.6V158.9z"/>
		<path class="st2" d="M78.6,157.1c0-1-0.5-1.4-1.3-1.4c-0.7,0-1.3,0.3-1.7,0.9v4.9h-1.9v-7.4h1.9v1c0.6-0.8,1.6-1.2,2.6-1.2
			c1.2-0.1,2.2,0.7,2.4,1.9c0,0.2,0,0.3,0,0.5v5.2h-1.9V157.1z"/>
		<path class="st2" d="M88.6,154.7v6.8h-2.2v-10.2h2.2l4.7,6.6v-6.6h2.2v10.1h-2.1L88.6,154.7z"/>
		<path class="st2" d="M97,157.9c0-2.1,1.7-3.9,3.9-3.9s3.9,1.7,3.9,3.9c0,2.1-1.7,3.9-3.9,3.9c0,0,0,0,0,0
			c-2.1,0.1-3.8-1.5-3.9-3.6C97,158.1,97,158,97,157.9z M102.8,157.9c-0.1-1-1.1-1.8-2.1-1.6c-1,0.1-1.8,1.1-1.6,2.1
			c0.1,0.9,0.9,1.6,1.9,1.6c1.1,0,1.9-0.9,1.9-2C102.8,158,102.8,157.9,102.8,157.9z"/>
		<path class="st2" d="M111.1,156.5l-1.6,5h-2.1l-2.2-7.4h2l1.4,4.9l1.6-4.9h1.8l1.6,4.9l1.4-4.9h2l-2.2,7.4h-2L111.1,156.5z"/>
		<path class="st2" d="M118.4,159.2c0.7-0.1,1.3,0.4,1.3,1.1s-0.4,1.3-1.1,1.3c-0.1,0-0.1,0-0.2,0c-0.7-0.1-1.2-0.7-1.1-1.3
			C117.3,159.8,117.8,159.3,118.4,159.2z"/>
	</g>
</g>
</svg>
