<svg xmlns="http://www.w3.org/2000/svg" viewBox="0 0 300 600"><defs><style>.cls-1{fill:#fff;}.cls-2{fill:#004c52;}</style></defs><g id="Layer_1" data-name="Layer 1"><path class="cls-1" d="M62.06,314.11h3.23v-3.23h2.18v3.23H70.7v2.37H67.47v3.23H65.29v-3.23H62.06Z"/><path class="cls-2" d="M73.25,317.15a3.85,3.85,0,0,0,.82.72,4.08,4.08,0,0,0,2.31.7c1.52,0,2.19-.66,2.19-1.52,0-2.26-6.65-1.25-6.65-5.89,0-1.9,1.31-3.21,3.51-3.8v-1.71H77.9v1.71a6.13,6.13,0,0,1,2.42,1,6.81,6.81,0,0,1,.91.74l-1.9,1.9a4.58,4.58,0,0,0-.67-.57,3.28,3.28,0,0,0-1.8-.57c-1.44,0-2,.57-2,1.33,0,2.26,6.65,1.26,6.65,5.89a4.23,4.23,0,0,1-3.61,4v1.71H75.43V321a7.44,7.44,0,0,1-3.07-1.14,5.09,5.09,0,0,1-1-.85Z"/><path class="cls-2" d="M84.54,311.16H82.26v-1.8a3.56,3.56,0,0,0,2.16-1,3.18,3.18,0,0,0,.59-.8h2.38v13.3H84.54Z"/><path class="cls-2" d="M89.65,314.2c0-4.27,2.66-6.93,5.7-6.93s5.7,2.66,5.7,6.93-2.66,6.94-5.7,6.94S89.65,318.48,89.65,314.2Zm8.55,0c0-2.85-1.43-4.27-2.85-4.27s-2.85,1.42-2.85,4.27,1.42,4.28,2.85,4.28S98.2,317.05,98.2,314.2Z"/><path class="cls-2" d="M103.31,318l2.18,1.24-2.66,4.08-1.52-.85Z"/><path class="cls-2" d="M106.71,314.2c0-4.27,2.66-6.93,5.7-6.93s5.7,2.66,5.7,6.93-2.66,6.94-5.7,6.94S106.71,318.48,106.71,314.2Zm8.55,0c0-2.85-1.43-4.27-2.85-4.27s-2.85,1.42-2.85,4.27,1.42,4.28,2.85,4.28S115.26,317.05,115.26,314.2Z"/><path class="cls-2" d="M119.61,314.2c0-4.27,2.66-6.93,5.7-6.93s5.7,2.66,5.7,6.93-2.66,6.94-5.7,6.94S119.61,318.48,119.61,314.2Zm8.55,0c0-2.85-1.43-4.27-2.85-4.27s-2.85,1.42-2.85,4.27,1.43,4.28,2.85,4.28S128.16,317.05,128.16,314.2Z"/><path class="cls-2" d="M132.51,314.2c0-4.27,2.66-6.93,5.7-6.93s5.7,2.66,5.7,6.93-2.66,6.94-5.7,6.94S132.51,318.48,132.51,314.2Zm8.55,0c0-2.85-1.42-4.27-2.85-4.27s-2.85,1.42-2.85,4.27,1.43,4.28,2.85,4.28S141.06,317.05,141.06,314.2Z"/><path class="cls-2" d="M149.76,307.55h2.85v13.3h-2.85Z"/><path class="cls-2" d="M155.63,307.55h2.57l6.46,8.27v-8.27h2.85v13.3h-2.57l-6.46-8.26v8.26h-2.85Z"/><path class="cls-2" d="M174.12,307.55h5.6a4.47,4.47,0,1,1,0,8.93H177v4.37h-2.85Zm5.51,6.27a1.81,1.81,0,1,0,0-3.61H177v3.61Z"/><path class="cls-2" d="M186.64,307.55h5.89a4.3,4.3,0,0,1,4.66,4.47,4.23,4.23,0,0,1-1.14,3.09,3.47,3.47,0,0,1-1.14.8l2.75,4.94h-3.13l-2.38-4.37h-2.66v4.37h-2.85Zm5.8,6.27a1.81,1.81,0,0,0,0-3.61h-2.95v3.61Z"/><path class="cls-2" d="M199.64,307.55h2.85v13.3h-2.85Z"/><path class="cls-2" d="M204.65,318.19l6.75-8h-6.46v-2.66H215v2.66l-6.75,8h6.94v2.66H204.65Z"/><path class="cls-2" d="M217.36,307.55h9.88v2.66h-7v2.57h5.51v2.56h-5.51v2.85h7.22v2.66H217.36Z"/><path class="cls-2" d="M230.17,317.15a3.85,3.85,0,0,0,.82.72,4.08,4.08,0,0,0,2.31.7c1.52,0,2.19-.66,2.19-1.52,0-2.26-6.65-1.25-6.65-5.89,0-2.09,1.8-3.89,4.84-3.89a6.1,6.1,0,0,1,4.47,1.8l-1.9,1.9a4.58,4.58,0,0,0-.67-.57,3.28,3.28,0,0,0-1.8-.57c-1.45,0-2,.57-2,1.33,0,2.26,6.65,1.26,6.65,5.89,0,2.19-1.9,4.09-5,4.09a7.23,7.23,0,0,1-3.86-1.05,4.88,4.88,0,0,1-1.27-1Z"/></g></svg>