<?xml version="1.0" encoding="utf-8"?>
<!-- Generator: Adobe Illustrator 25.3.1, SVG Export Plug-In . SVG Version: 6.00 Build 0)  -->
<svg version="1.1" id="Layer_1" xmlns="http://www.w3.org/2000/svg" xmlns:xlink="http://www.w3.org/1999/xlink" x="0px" y="0px"
	 viewBox="0 0 300 250" style="enable-background:new 0 0 300 250;" xml:space="preserve">
<style type="text/css">
	.st0{clip-path:url(#SVGID_2_);}
	.st1{clip-path:url(#SVGID_4_);}
	.st2{clip-path:url(#SVGID_6_);}
	.st3{fill:#1D1D1B;}
	.st4{fill:#FFFFFF;}
</style>
<g>
	<defs>
		<rect id="SVGID_1_" width="300" height="250"/>
	</defs>
	<clipPath id="SVGID_2_">
		<use xlink:href="#SVGID_1_"  style="overflow:visible;"/>
	</clipPath>
	<g class="st0">
		<g>
			<defs>
				<rect id="SVGID_3_" width="300" height="250"/>
			</defs>
			<clipPath id="SVGID_4_">
				<use xlink:href="#SVGID_3_"  style="overflow:visible;"/>
			</clipPath>
			<g class="st1">
				<g>
					<defs>
						<rect id="SVGID_5_" width="300" height="250"/>
					</defs>
					<clipPath id="SVGID_6_">
						<use xlink:href="#SVGID_5_"  style="overflow:visible;"/>
					</clipPath>
					<g class="st2">
						<path class="st3" d="M115.6,200c1.4,0,2.9,0.1,4.3,0.3c1.1,0.2,2.2,0.6,3.1,1.1c1,0.5,1.9,1.2,2.7,2.1c4.5,5,4.5,12.5,0,17.4
							c-1.6,1.7-3.6,2.8-5.8,3.2c-1.4,0.3-2.8,0.4-4.3,0.3H36c-1.4,0-2.9-0.1-4.3-0.3c-1.1-0.2-2.2-0.6-3.1-1.1
							c-1-0.5-1.9-1.2-2.7-2.1c-4.5-5-4.5-12.5,0-17.5c0.8-0.8,1.7-1.5,2.7-2.1c1-0.5,2-0.9,3.1-1.1c1.4-0.3,2.8-0.4,4.2-0.3H115.6z
							"/>
					</g>
				</g>
				<path class="st4" d="M33.1,217v-10.2h6.6v1.2h-5.3v3.3h4.5v1.2h-4.5v4.5H33.1z"/>
				<path class="st4" d="M41,206.8h1.4v1.5H41V206.8z M42.4,217h-1.3v-7.5h1.3L42.4,217z"/>
				<path class="st4" d="M44.3,209.6h1.3v1c0.5-0.7,1.3-1.2,2.2-1.2c1.3,0,2.4,1,2.5,2.3c0,0.1,0,0.2,0,0.4v4.9H49v-4.6
					c0-1-0.4-1.8-1.6-1.8c-1,0-1.9,0.8-1.9,1.9c0,0,0,0.1,0,0.1v4.4h-1.3V209.6z"/>
				<path class="st4" d="M51.8,213.3c0-2.1,1.2-3.9,3.3-3.9c0.9,0,1.8,0.4,2.3,1.2v-3.9h1.3V217h-1.3v-1c-0.5,0.8-1.4,1.3-2.3,1.2
					C53,217.2,51.8,215.4,51.8,213.3z M55.3,210.6c-1.4,0-2.2,1.1-2.2,2.8s0.8,2.8,2.2,2.8c1.2,0,2.2-1,2.1-2.2c0-0.1,0-0.2,0-0.2
					v-0.5C57.4,211.3,56.4,210.6,55.3,210.6z"/>
				<path class="st4" d="M66.8,217.2c-2,0-3.5-1.6-3.5-3.9s1.4-3.9,3.5-3.9s3.5,1.6,3.5,3.9S68.8,217.2,66.8,217.2z M66.8,216.1
					c1.3,0,2.2-1.1,2.2-2.8s-0.9-2.8-2.2-2.8s-2.2,1.1-2.2,2.8S65.5,216.1,66.8,216.1z"/>
				<path class="st4" d="M77.7,217h-1.3v-1c-0.5,0.7-1.3,1.2-2.2,1.2c-1.3,0.1-2.5-1-2.5-2.3c0-0.1,0-0.2,0-0.4v-4.9H73v4.7
					c0,1.1,0.5,1.8,1.6,1.8c1,0,1.9-0.8,1.9-1.8c0,0,0-0.1,0-0.1v-4.5h1.3L77.7,217z"/>
				<path class="st4" d="M80,210.7h-1.2v-1.1H80v-2.2h1.3v2.2H83v1.1h-1.7v4.4c0,0.8,0.4,0.9,1,0.9c0.3,0,0.5,0,0.8-0.1v1.1
					c-0.4,0.1-0.8,0.1-1.1,0.1c-1.3,0-2-0.4-2-1.9L80,210.7z"/>
				<path class="st4" d="M89,217h-1.3v-7.5H89v1c0.5-0.7,1.3-1.2,2.2-1.2c0.9,0,1.7,0.5,2.1,1.3c0.5-0.8,1.4-1.3,2.4-1.3
					c1.3,0,2.4,1.1,2.4,2.5c0,0.1,0,0.2,0,0.3v4.9h-1.2v-4.6c0-1-0.4-1.8-1.5-1.8c-1,0-1.8,0.9-1.8,1.9c0,0,0,0,0,0v4.5h-1.3v-4.6
					c0-1-0.4-1.8-1.5-1.8c-1,0.1-1.8,0.9-1.7,2c0,0,0,0,0,0V217z"/>
				<path class="st4" d="M103,217.2c-2,0-3.5-1.6-3.5-3.9s1.4-3.9,3.5-3.9s3.5,1.6,3.5,3.9S105,217.2,103,217.2z M103,216.1
					c1.3,0,2.2-1.1,2.2-2.8s-0.9-2.8-2.2-2.8s-2.2,1.1-2.2,2.8S101.7,216.1,103,216.1z"/>
				<path class="st4" d="M111.9,210.8c-0.2,0-0.4-0.1-0.6-0.1c-1.1,0-2,0.9-2,2c0,0.1,0,0.1,0,0.2v4.1H108v-7.5h1.3v1.3
					c0.4-0.8,1.2-1.3,2.1-1.3c0.2,0,0.3,0,0.5,0L111.9,210.8z"/>
				<path class="st4" d="M112.6,213.3c0-2.2,1.4-3.9,3.4-3.9s3.2,1.6,3.2,3.7v0.4h-5.4c0.1,1.6,1,2.6,2.3,2.6c0.9,0.1,1.8-0.5,2-1.4
					l1.1,0.4c-0.4,1.3-1.7,2.2-3.1,2.1C114,217.2,112.6,215.6,112.6,213.3z M113.9,212.5h4c0.1-1-0.7-1.9-1.7-2c-0.1,0-0.1,0-0.2,0
					C114.9,210.5,114,211.4,113.9,212.5z"/>
			</g>
		</g>
	</g>
</g>
</svg>
