<svg width="164" height="44" viewBox="0 0 164 44" fill="none" xmlns="http://www.w3.org/2000/svg">
<rect width="164" height="44" fill="white"/>
<path d="M37.7247 26.82C38.1247 26.82 38.4607 26.772 38.7327 26.676C39.0047 26.58 39.2207 26.452 39.3807 26.292C39.5461 26.132 39.6634 25.9453 39.7327 25.732C39.8074 25.5187 39.8447 25.292 39.8447 25.052C39.8447 24.8013 39.8047 24.5773 39.7247 24.38C39.6447 24.1773 39.5194 24.0067 39.3487 23.868C39.1781 23.724 38.9567 23.6147 38.6847 23.54C38.4181 23.4653 38.0954 23.428 37.7167 23.428H35.5487V26.82H37.7247ZM35.5487 18.596V21.94H37.2607C37.9967 21.94 38.5514 21.8067 38.9247 21.54C39.3034 21.2733 39.4927 20.8493 39.4927 20.268C39.4927 19.6653 39.3221 19.236 38.9807 18.98C38.6394 18.724 38.1061 18.596 37.3807 18.596H35.5487ZM37.3807 16.932C38.1381 16.932 38.7861 17.004 39.3247 17.148C39.8634 17.292 40.3034 17.4973 40.6447 17.764C40.9914 18.0307 41.2448 18.3533 41.4047 18.732C41.5647 19.1107 41.6447 19.5373 41.6447 20.012C41.6447 20.284 41.6047 20.5453 41.5247 20.796C41.4447 21.0413 41.3194 21.2733 41.1487 21.492C40.9834 21.7053 40.7701 21.9 40.5087 22.076C40.2528 22.252 39.9461 22.4013 39.5887 22.524C41.1781 22.8813 41.9727 23.74 41.9727 25.1C41.9727 25.5907 41.8794 26.044 41.6927 26.46C41.5061 26.876 41.2341 27.236 40.8767 27.54C40.5194 27.8387 40.0794 28.0733 39.5567 28.244C39.0341 28.4147 38.4367 28.5 37.7647 28.5H33.3967V16.932H37.3807ZM55.92 22.716C55.92 23.564 55.7787 24.3507 55.496 25.076C55.2187 25.796 54.824 26.42 54.312 26.948C53.8 27.476 53.184 27.8893 52.464 28.188C51.744 28.4813 50.944 28.628 50.064 28.628C49.1893 28.628 48.392 28.4813 47.672 28.188C46.952 27.8893 46.3333 27.476 45.816 26.948C45.304 26.42 44.9067 25.796 44.624 25.076C44.3413 24.3507 44.2 23.564 44.2 22.716C44.2 21.868 44.3413 21.084 44.624 20.364C44.9067 19.6387 45.304 19.012 45.816 18.484C46.3333 17.956 46.952 17.5453 47.672 17.252C48.392 16.9533 49.1893 16.804 50.064 16.804C50.6507 16.804 51.2027 16.8733 51.72 17.012C52.2373 17.1453 52.712 17.3373 53.144 17.588C53.576 17.8333 53.9627 18.1347 54.304 18.492C54.6507 18.844 54.944 19.2387 55.184 19.676C55.424 20.1133 55.6053 20.588 55.728 21.1C55.856 21.612 55.92 22.1507 55.92 22.716ZM53.72 22.716C53.72 22.0813 53.6347 21.5133 53.464 21.012C53.2933 20.5053 53.0507 20.076 52.736 19.724C52.4213 19.372 52.0373 19.1027 51.584 18.916C51.136 18.7293 50.6293 18.636 50.064 18.636C49.4987 18.636 48.9893 18.7293 48.536 18.916C48.088 19.1027 47.704 19.372 47.384 19.724C47.0693 20.076 46.8267 20.5053 46.656 21.012C46.4853 21.5133 46.4 22.0813 46.4 22.716C46.4 23.3507 46.4853 23.9213 46.656 24.428C46.8267 24.9293 47.0693 25.356 47.384 25.708C47.704 26.0547 48.088 26.3213 48.536 26.508C48.9893 26.6947 49.4987 26.788 50.064 26.788C50.6293 26.788 51.136 26.6947 51.584 26.508C52.0373 26.3213 52.4213 26.0547 52.736 25.708C53.0507 25.356 53.2933 24.9293 53.464 24.428C53.6347 23.9213 53.72 23.3507 53.72 22.716ZM69.8019 22.716C69.8019 23.564 69.6605 24.3507 69.3779 25.076C69.1005 25.796 68.7059 26.42 68.1939 26.948C67.6819 27.476 67.0659 27.8893 66.3459 28.188C65.6259 28.4813 64.8259 28.628 63.9459 28.628C63.0712 28.628 62.2739 28.4813 61.5539 28.188C60.8339 27.8893 60.2152 27.476 59.6979 26.948C59.1859 26.42 58.7885 25.796 58.5059 25.076C58.2232 24.3507 58.0819 23.564 58.0819 22.716C58.0819 21.868 58.2232 21.084 58.5059 20.364C58.7885 19.6387 59.1859 19.012 59.6979 18.484C60.2152 17.956 60.8339 17.5453 61.5539 17.252C62.2739 16.9533 63.0712 16.804 63.9459 16.804C64.5325 16.804 65.0845 16.8733 65.6019 17.012C66.1192 17.1453 66.5939 17.3373 67.0259 17.588C67.4579 17.8333 67.8445 18.1347 68.1859 18.492C68.5325 18.844 68.8259 19.2387 69.0659 19.676C69.3059 20.1133 69.4872 20.588 69.6099 21.1C69.7379 21.612 69.8019 22.1507 69.8019 22.716ZM67.6019 22.716C67.6019 22.0813 67.5165 21.5133 67.3459 21.012C67.1752 20.5053 66.9325 20.076 66.6179 19.724C66.3032 19.372 65.9192 19.1027 65.4659 18.916C65.0179 18.7293 64.5112 18.636 63.9459 18.636C63.3805 18.636 62.8712 18.7293 62.4179 18.916C61.9699 19.1027 61.5859 19.372 61.2659 19.724C60.9512 20.076 60.7085 20.5053 60.5379 21.012C60.3672 21.5133 60.2819 22.0813 60.2819 22.716C60.2819 23.3507 60.3672 23.9213 60.5379 24.428C60.7085 24.9293 60.9512 25.356 61.2659 25.708C61.5859 26.0547 61.9699 26.3213 62.4179 26.508C62.8712 26.6947 63.3805 26.788 63.9459 26.788C64.5112 26.788 65.0179 26.6947 65.4659 26.508C65.9192 26.3213 66.3032 26.0547 66.6179 25.708C66.9325 25.356 67.1752 24.9293 67.3459 24.428C67.5165 23.9213 67.6019 23.3507 67.6019 22.716ZM74.8038 21.78H75.3078C75.5104 21.78 75.6784 21.7533 75.8118 21.7C75.9451 21.6413 76.0598 21.5507 76.1558 21.428L79.3478 17.388C79.4811 17.2173 79.6198 17.1 79.7638 17.036C79.9131 16.9667 80.0998 16.932 80.3238 16.932H82.1798L78.2838 21.74C78.0544 22.0333 77.8171 22.2413 77.5718 22.364C77.7478 22.428 77.9051 22.5187 78.0438 22.636C78.1878 22.748 78.3238 22.8973 78.4518 23.084L82.4678 28.5H80.5718C80.3158 28.5 80.1238 28.4653 79.9958 28.396C79.8731 28.3213 79.7691 28.2147 79.6838 28.076L76.4118 23.804C76.3104 23.66 76.1931 23.5587 76.0598 23.5C75.9264 23.4413 75.7344 23.412 75.4838 23.412H74.8038V28.5H72.6518V16.932H74.8038V21.78ZM99.1831 16.932V28.5H98.0791C97.9085 28.5 97.7645 28.4733 97.6471 28.42C97.5351 28.3613 97.4258 28.2653 97.3191 28.132L91.2791 20.42C91.3111 20.772 91.3271 21.0973 91.3271 21.396V28.5H89.4311V16.932H90.5591C90.6498 16.932 90.7271 16.9373 90.7911 16.948C90.8605 16.9533 90.9191 16.9693 90.9671 16.996C91.0205 17.0173 91.0711 17.052 91.1191 17.1C91.1671 17.1427 91.2205 17.2013 91.2791 17.276L97.3431 25.02C97.3271 24.8333 97.3138 24.6493 97.3031 24.468C97.2925 24.2867 97.2871 24.1187 97.2871 23.964V16.932H99.1831ZM113.751 22.716C113.751 23.564 113.61 24.3507 113.327 25.076C113.05 25.796 112.655 26.42 112.143 26.948C111.631 27.476 111.015 27.8893 110.295 28.188C109.575 28.4813 108.775 28.628 107.895 28.628C107.021 28.628 106.223 28.4813 105.503 28.188C104.783 27.8893 104.165 27.476 103.647 26.948C103.135 26.42 102.738 25.796 102.455 25.076C102.173 24.3507 102.031 23.564 102.031 22.716C102.031 21.868 102.173 21.084 102.455 20.364C102.738 19.6387 103.135 19.012 103.647 18.484C104.165 17.956 104.783 17.5453 105.503 17.252C106.223 16.9533 107.021 16.804 107.895 16.804C108.482 16.804 109.034 16.8733 109.551 17.012C110.069 17.1453 110.543 17.3373 110.975 17.588C111.407 17.8333 111.794 18.1347 112.135 18.492C112.482 18.844 112.775 19.2387 113.015 19.676C113.255 20.1133 113.437 20.588 113.559 21.1C113.687 21.612 113.751 22.1507 113.751 22.716ZM111.551 22.716C111.551 22.0813 111.466 21.5133 111.295 21.012C111.125 20.5053 110.882 20.076 110.567 19.724C110.253 19.372 109.869 19.1027 109.415 18.916C108.967 18.7293 108.461 18.636 107.895 18.636C107.33 18.636 106.821 18.7293 106.367 18.916C105.919 19.1027 105.535 19.372 105.215 19.724C104.901 20.076 104.658 20.5053 104.487 21.012C104.317 21.5133 104.231 22.0813 104.231 22.716C104.231 23.3507 104.317 23.9213 104.487 24.428C104.658 24.9293 104.901 25.356 105.215 25.708C105.535 26.0547 105.919 26.3213 106.367 26.508C106.821 26.6947 107.33 26.788 107.895 26.788C108.461 26.788 108.967 26.6947 109.415 26.508C109.869 26.3213 110.253 26.0547 110.567 25.708C110.882 25.356 111.125 24.9293 111.295 24.428C111.466 23.9213 111.551 23.3507 111.551 22.716ZM131.759 16.932L128.167 28.5H126.223L123.695 20.596C123.625 20.404 123.561 20.1693 123.503 19.892C123.471 20.0253 123.439 20.1507 123.407 20.268C123.375 20.3853 123.34 20.4947 123.303 20.596L120.751 28.5H118.799L115.215 16.932H117.015C117.201 16.932 117.356 16.9773 117.479 17.068C117.607 17.1533 117.692 17.2707 117.735 17.42L119.703 24.34C119.745 24.5107 119.785 24.6973 119.823 24.9C119.865 25.0973 119.908 25.3053 119.951 25.524C119.993 25.3 120.039 25.0893 120.087 24.892C120.14 24.6947 120.196 24.5107 120.255 24.34L122.527 17.42C122.569 17.2973 122.652 17.1853 122.775 17.084C122.903 16.9827 123.057 16.932 123.239 16.932H123.871C124.057 16.932 124.209 16.9773 124.327 17.068C124.444 17.1587 124.532 17.276 124.591 17.42L126.855 24.34C126.967 24.6707 127.068 25.052 127.159 25.484C127.228 25.0627 127.305 24.6813 127.391 24.34L129.359 17.42C129.391 17.2867 129.471 17.172 129.599 17.076C129.732 16.98 129.889 16.932 130.071 16.932H131.759Z" fill="#344D6C"/>
</svg>
