<svg enable-background="new 0 0 728 90" viewBox="0 0 728 90" xmlns="http://www.w3.org/2000/svg"><g fill="#fff"><path d="m585 36.2h2.4v11.9h-2.4z"/><path d="m597.7 48.4c-3.4 0-6.4-2.4-6.4-6.2s3-6.2 6.4-6.2c1.6 0 3.2.5 4.2 1.2v2.2c-1-.8-2.2-1.5-3.9-1.5-2.4 0-4.1 1.6-4.1 4.3s1.8 4.3 4.1 4.3c1.7 0 2.9-.6 3.9-1.5v2.2c-1 .7-2.6 1.2-4.2 1.2"/><path d="m611.1 38.1v10h-2.4v-10h-4v-1.9h10.5v1.9z"/><path d="m623.8 37.8c-2.4 0-4 1.8-4 4.4s1.6 4.4 4 4.4c2.3 0 3.9-1.8 3.9-4.4s-1.6-4.4-3.9-4.4m0 10.7c-3.7 0-6.5-2.6-6.5-6.3s2.8-6.3 6.5-6.3c3.6 0 6.4 2.6 6.4 6.3 0 3.6-2.8 6.3-6.4 6.3"/><path d="m636.5 41.7h1.9c1.5 0 2-.8 2-1.9s-.5-1.9-2-1.9h-1.9zm6.1 6.6c-1.4 0-2.6-.6-3.4-2.3l-1.3-2.5h-1.4v4.8h-2.5v-12.1h4.7c2.8 0 4 1.7 4 3.6 0 1.7-1 3-2.6 3.4l1.2 2c.6 1 1.2 1.4 2 1.4.2 0 .4 0 .7-.1v1.5c-.5.2-1 .3-1.4.3"/><path d="m648.2 36.2h2.4v11.9h-2.4z"/><path d="m562.9 35.8c-.8.2-1.5.2-2.1-.1s-1.1-.8-1.3-1.4-.2-1.3.1-1.8.8-.7 1.4-.7 1.3.4 1.9.9 1.2 1.1 1.8 1.7c.1.2.3.4.4.5-.7.4-1.5.7-2.2.9m51.5-9.1c-6.9-2-14.3-2.3-21.4-1.2-7.1 1-14 3.3-20.6 6.1-1.7.7-3.3 1.4-4.9 2.2-.2.1-.4.2-.7.4-.2-.3-.5-.6-.7-.9-.6-.7-1.3-1.4-2.1-2s-1.7-1.1-2.9-1.2c-.6 0-1.2.1-1.8.4s-1 .8-1.3 1.3c-.6 1.1-.6 2.3-.2 3.3.4 1.1 1.3 1.9 2.3 2.4 1.1.4 2.2.3 3.2.1 1-.3 1.9-.7 2.8-1.1.5.8 1 1.6 1.5 2.4l5.6 9.1c.1.1.2.3.4.4.5.3 1.2.1 1.5-.4l6.8-11.4c0-.1.1-.2.1-.3h-2.5l-5.3 9-4.8-7.5c-.5-.7-1-1.5-1.5-2.3.1-.1.3-.2.4-.2 1.5-.7 3.2-1.5 4.8-2.2 6.5-2.8 13.2-5.2 20.2-6.3 6.9-1.1 14.1-.9 21 .9.2.1.5-.1.5-.3 0-.4-.1-.7-.4-.7"/><path d="m676.5 51.3c-.2.6-.6 1-1.2 1.1s-1.3-.2-1.9-.6c-.7-.4-1.3-1-1.8-1.7-.2-.3-.4-.5-.7-.8.5-.2 1-.5 1.5-.6.8-.3 1.6-.4 2.3-.3s1.2.5 1.6 1.1c.3.5.4 1.2.2 1.8m1.3-2.8c-.6-1-1.7-1.7-2.8-1.8-1.1-.2-2.2.1-3.1.4-.7.2-1.3.6-1.9.9-.5-.7-.9-1.4-1.4-2.1l-5.7-9.3c-.1-.1-.2-.3-.4-.4-.5-.3-1.2-.1-1.5.4l-6.8 11.4c0 .1-.1.2-.1.3h2.5l5.3-9 4.9 7.7c.4.7.9 1.4 1.3 2-.4.2-.8.5-1.3.6-1.6.8-3.3 1.6-4.9 2.5-6.4 3.5-12.7 7.3-19.6 9.5-6.9 2.3-14.2 2.9-21.4 2.5-.3 0-.5.2-.5.4 0 .3.2.5.4.5 7.3.5 14.8 0 21.8-2.2 7.1-2.2 13.5-5.9 19.9-9.3 1.6-.8 3.2-1.6 4.9-2.4.5-.2 1-.5 1.5-.8.3.4.7.8 1 1.2.7.7 1.4 1.4 2.3 1.9s1.9 1 3.2.9c.6-.1 1.3-.4 1.7-.8.5-.4.8-1 1-1.6.5-1.2.3-2.4-.3-3.4"/><path d="m607.6 55.3h-.6v1.1h.6c.4 0 .6-.2.6-.5 0-.4-.1-.6-.6-.6m-.5-.5h.5c.3 0 .5-.2.5-.4s-.1-.4-.5-.4h-.5zm.7 2h-1.4v-3.4h1.3c.7 0 1 .4 1 .9 0 .3-.2.5-.4.7.3.1.5.5.5.8.1.6-.2 1-1 1"/><path d="m611.8 56.9c-1 0-1.8-.7-1.8-1.8s.8-1.8 1.8-1.8c.4 0 .9.1 1.2.3v.6c-.3-.2-.6-.4-1.1-.4-.7 0-1.2.5-1.2 1.2 0 .8.5 1.2 1.2 1.2.5 0 .8-.2 1.1-.4v.6c-.3.4-.7.5-1.2.5"/><path d="m614.5 57.6-.1-.2c.2-.1.3-.4.3-.6h-.3v-.7h.7v.6c0 .4-.3.8-.6.9"/><path d="m619.9 56.9c-1 0-1.8-.7-1.8-1.8s.8-1.8 1.8-1.8c.4 0 .9.1 1.2.3v.6c-.3-.2-.6-.4-1.1-.4-.7 0-1.2.5-1.2 1.2 0 .8.5 1.2 1.2 1.2.5 0 .8-.2 1.1-.4v.6c-.3.4-.7.5-1.2.5"/><path d="m623.8 54.3-.5 1.2h1zm1.1 2.5-.3-.8h-1.4l-.3.8h-.7l1.4-3.4h.5l1.4 3.4z"/><path d="m629.1 56.8-1.8-2.2v2.2h-.6v-3.3h.5l1.8 2.2v-2.2h.6v3.3z"/><path d="m632.4 54.3-.5 1.2h1zm1.1 2.5-.3-.8h-1.4l-.3.8h-.7l1.4-3.4h.5l1.4 3.4z"/><path d="m636.5 54h-.5v2.3h.5c.9 0 1.3-.5 1.3-1.1-.1-.7-.4-1.2-1.3-1.2m0 2.8h-1.2v-3.4h1.2c1.4 0 1.9.8 1.9 1.7 0 1-.5 1.7-1.9 1.7"/><path d="m640.9 54.3-.5 1.2h1zm1 2.5-.3-.8h-1.4l-.3.8h-.7l1.4-3.4h.5l1.4 3.4z"/></g></svg>