<?xml version="1.0" encoding="UTF-8"?><svg id="Layer_2" xmlns="http://www.w3.org/2000/svg" xmlns:xlink="http://www.w3.org/1999/xlink" viewBox="0 0 970 250"><defs><style>.cls-1{fill:none;}.cls-2{clip-path:url(#clippath);}.cls-3{fill:#00b6b6;}</style><clipPath id="clippath"><rect class="cls-1" width="970" height="250"/></clipPath></defs><g id="Layer_1-2"><g id="concept2-970x250"><g class="cls-2"><g><g><path class="cls-3" d="M776,26.72h3.69v6.65h6.81v-6.65h3.69v16.79h-3.69v-6.74h-6.81v6.74h-3.69V26.72Z"/><path class="cls-3" d="M793.23,37.16v-.05c0-3.67,2.62-6.69,6.36-6.69,4.29,0,6.26,3.33,6.26,6.98,0,.29-.02,.62-.05,.96h-8.95c.36,1.66,1.51,2.52,3.14,2.52,1.22,0,2.11-.38,3.12-1.32l2.09,1.85c-1.2,1.49-2.93,2.4-5.25,2.4-3.86,0-6.72-2.71-6.72-6.65Zm9.07-1.08c-.22-1.63-1.18-2.73-2.71-2.73s-2.5,1.08-2.78,2.73h5.49Z"/><path class="cls-3" d="M807.79,39.82v-.05c0-2.81,2.14-4.1,5.18-4.1,1.3,0,2.23,.22,3.14,.53v-.22c0-1.51-.94-2.35-2.76-2.35-1.39,0-2.38,.26-3.55,.7l-.91-2.78c1.42-.62,2.81-1.03,4.99-1.03,1.99,0,3.43,.53,4.34,1.44,.96,.96,1.39,2.37,1.39,4.1v7.46h-3.53v-1.39c-.89,.98-2.11,1.63-3.89,1.63-2.42,0-4.41-1.39-4.41-3.93Zm8.37-.84v-.65c-.62-.29-1.44-.48-2.33-.48-1.56,0-2.52,.62-2.52,1.78v.05c0,.98,.82,1.56,1.99,1.56,1.7,0,2.86-.94,2.86-2.26Z"/><path class="cls-3" d="M822.93,26h3.65v17.51h-3.65V26Z"/><path class="cls-3" d="M830.6,39.87v-6.09h-1.54v-3.12h1.54v-3.29h3.65v3.29h3.02v3.12h-3.02v5.49c0,.84,.36,1.25,1.18,1.25,.67,0,1.27-.17,1.8-.46v2.93c-.77,.46-1.65,.74-2.88,.74-2.23,0-3.74-.89-3.74-3.86Z"/><path class="cls-3" d="M839.96,26h3.65v6.48c.84-1.08,1.92-2.06,3.77-2.06,2.76,0,4.37,1.82,4.37,4.77v8.32h-3.65v-7.17c0-1.73-.82-2.61-2.21-2.61s-2.28,.89-2.28,2.61v7.17h-3.65V26Z"/><path class="cls-3" d="M854.38,46.54l1.22-2.64c.48,.29,1.08,.5,1.56,.5,.62,0,.96-.19,1.27-.84l-5.04-12.91h3.86l2.93,8.76,2.81-8.76h3.79l-4.94,13.17c-.98,2.62-2.04,3.6-4.22,3.6-1.32,0-2.3-.34-3.24-.89Z"/><path class="cls-3" d="M876.52,26.72h3.98l4.41,7.1,4.41-7.1h3.98v16.79h-3.67v-10.96l-4.73,7.17h-.1l-4.68-7.1v10.89h-3.62V26.72Z"/><path class="cls-3" d="M896.34,37.16v-.05c0-3.67,2.62-6.69,6.36-6.69,4.29,0,6.26,3.33,6.26,6.98,0,.29-.02,.62-.05,.96h-8.95c.36,1.66,1.51,2.52,3.14,2.52,1.22,0,2.11-.38,3.12-1.32l2.09,1.85c-1.2,1.49-2.93,2.4-5.25,2.4-3.86,0-6.72-2.71-6.72-6.65Zm9.07-1.08c-.22-1.63-1.18-2.73-2.71-2.73s-2.5,1.08-2.78,2.73h5.49Z"/><path class="cls-3" d="M910.9,39.82v-.05c0-2.81,2.14-4.1,5.18-4.1,1.3,0,2.23,.22,3.14,.53v-.22c0-1.51-.94-2.35-2.76-2.35-1.39,0-2.38,.26-3.55,.7l-.91-2.78c1.42-.62,2.81-1.03,4.99-1.03,1.99,0,3.43,.53,4.34,1.44,.96,.96,1.39,2.37,1.39,4.1v7.46h-3.53v-1.39c-.89,.98-2.11,1.63-3.89,1.63-2.42,0-4.41-1.39-4.41-3.93Zm8.37-.84v-.65c-.62-.29-1.44-.48-2.33-.48-1.56,0-2.52,.62-2.52,1.78v.05c0,.98,.82,1.56,1.99,1.56,1.7,0,2.86-.94,2.86-2.26Z"/><path class="cls-3" d="M926.04,26h3.65v17.51h-3.65V26Z"/><path class="cls-3" d="M932.11,41.81l1.56-2.4c1.39,1.01,2.86,1.54,4.05,1.54,1.06,0,1.54-.38,1.54-.96v-.05c0-.79-1.25-1.06-2.66-1.49-1.8-.53-3.84-1.37-3.84-3.86v-.05c0-2.61,2.11-4.08,4.7-4.08,1.63,0,3.41,.55,4.8,1.49l-1.39,2.52c-1.27-.74-2.54-1.2-3.48-1.2s-1.34,.38-1.34,.89v.05c0,.72,1.22,1.06,2.61,1.54,1.8,.6,3.89,1.46,3.89,3.81v.05c0,2.85-2.14,4.15-4.92,4.15-1.8,0-3.81-.6-5.52-1.94Z"/></g><g><path class="cls-3" d="M801,54.72h6.55c5.28,0,8.92,3.62,8.92,8.35v.05c0,4.73-3.65,8.4-8.92,8.4h-6.55v-16.79Zm6.55,13.46c3.02,0,5.06-2.04,5.06-5.01v-.05c0-2.97-2.04-5.06-5.06-5.06h-2.86v10.12h2.86Z"/><path class="cls-3" d="M818.75,65.16v-.05c0-3.67,2.62-6.69,6.36-6.69,4.29,0,6.26,3.33,6.26,6.98,0,.29-.02,.62-.05,.96h-8.95c.36,1.66,1.51,2.52,3.14,2.52,1.22,0,2.11-.38,3.12-1.32l2.09,1.85c-1.2,1.49-2.93,2.4-5.25,2.4-3.86,0-6.72-2.71-6.72-6.65Zm9.07-1.08c-.22-1.63-1.18-2.73-2.71-2.73s-2.5,1.08-2.78,2.73h5.49Z"/><path class="cls-3" d="M834.25,54h3.65v17.51h-3.65v-17.51Z"/><path class="cls-3" d="M841.4,54h3.84v3.24h-3.84v-3.24Zm.1,4.65h3.65v12.86h-3.65v-12.86Z"/><path class="cls-3" d="M847.42,58.65h3.86l2.88,8.61,2.9-8.61h3.79l-5.06,12.95h-3.31l-5.06-12.95Z"/><path class="cls-3" d="M861.62,65.16v-.05c0-3.67,2.62-6.69,6.36-6.69,4.29,0,6.26,3.33,6.26,6.98,0,.29-.02,.62-.05,.96h-8.95c.36,1.66,1.51,2.52,3.14,2.52,1.22,0,2.11-.38,3.12-1.32l2.09,1.85c-1.2,1.49-2.93,2.4-5.25,2.4-3.86,0-6.72-2.71-6.72-6.65Zm9.07-1.08c-.22-1.63-1.18-2.73-2.71-2.73s-2.5,1.08-2.78,2.73h5.49Z"/><path class="cls-3" d="M876.95,58.65h3.65v2.59c.74-1.78,1.94-2.93,4.1-2.83v3.81h-.19c-2.42,0-3.91,1.46-3.91,4.53v4.75h-3.65v-12.86Z"/><path class="cls-3" d="M886,65.16v-.05c0-3.67,2.62-6.69,6.36-6.69,4.29,0,6.26,3.33,6.26,6.98,0,.29-.02,.62-.05,.96h-8.95c.36,1.66,1.51,2.52,3.14,2.52,1.22,0,2.11-.38,3.12-1.32l2.09,1.85c-1.2,1.49-2.93,2.4-5.25,2.4-3.86,0-6.72-2.71-6.72-6.65Zm9.07-1.08c-.22-1.63-1.18-2.73-2.71-2.73s-2.5,1.08-2.78,2.73h5.49Z"/><path class="cls-3" d="M900.75,65.11v-.05c0-4.29,2.81-6.65,5.85-6.65,1.94,0,3.14,.89,4.01,1.92v-6.33h3.65v17.51h-3.65v-1.85c-.89,1.2-2.11,2.09-4.01,2.09-3,0-5.85-2.35-5.85-6.65Zm9.91,0v-.05c0-2.14-1.42-3.55-3.12-3.55s-3.14,1.39-3.14,3.55v.05c0,2.14,1.44,3.55,3.14,3.55s3.12-1.42,3.12-3.55Z"/></g></g></g></g></g></svg>