<svg id="Layer_1" data-name="Layer 1" xmlns="http://www.w3.org/2000/svg" viewBox="0 0 300 50"><path d="M69.07,33.1c0,.37-.49.36-.93.86a6.8,6.8,0,0,0-.87,1.6c-.42,1-1.74,4.22-2.33,5.62a6.52,6.52,0,0,1-2.33,3.28,2.61,2.61,0,0,1-1.27.37A1.2,1.2,0,0,1,60,43.55c0-.42.17-.82.58-.82s.6.71,1.41.71,1.28-.9,1.62-1.55a.45.45,0,0,0,.05-.17.42.42,0,0,0,0-.15l-2.47-6.31a3.93,3.93,0,0,0-.86-1.6c-.29-.22-.66-.22-.66-.54s.15-.32.52-.32h2.75c.27,0,.44.12.44.3,0,.41-.8.32-.8,1a3,3,0,0,0,.27,1l1.74,4.29c0,.08,0,.1.07.1s.05,0,.08-.1l1.19-3a6.88,6.88,0,0,0,.63-2.09c0-.91-.83-.74-.83-1.19,0-.22.2-.32.51-.32h2.34C68.88,32.8,69.07,32.88,69.07,33.1Z"/><path d="M78,37.14a4.39,4.39,0,0,1-4.27,4.63,4.16,4.16,0,0,1-4.3-4.51,4.42,4.42,0,0,1,4.35-4.65C76.47,32.61,78,34.6,78,37.14Zm-4.46-3.68c-1.48,0-2.39,1.31-2.39,3.18,0,2.32,1.09,4.25,2.74,4.25s2.39-1.61,2.39-3.26C76.3,35.69,75.45,33.46,73.56,33.46Z"/><path d="M88.67,40.83c0,.2-.11.32-.45.38a12.43,12.43,0,0,0-1.55.47.92.92,0,0,1-.35.09c-.24,0-.37-.14-.37-.46v-1a0,0,0,0,0,0-.05s-.05,0-.09.08a3.22,3.22,0,0,1-2.72,1.47A2.61,2.61,0,0,1,81,40.83a3.66,3.66,0,0,1-.62-2.38V35.63a2.69,2.69,0,0,0-.17-1.37c-.27-.42-1-.3-1-.74,0-.17.12-.28.46-.35a8.06,8.06,0,0,0,1.51-.46,1.07,1.07,0,0,1,.39-.1c.22,0,.37.14.37.44v5.37c0,1.16.54,2.07,1.75,2.07a2,2,0,0,0,1.41-.57c.63-.63.83-1.57.83-4.14a3.21,3.21,0,0,0-.17-1.52c-.29-.42-1-.3-1-.7,0-.19.08-.31.45-.39a8.61,8.61,0,0,0,1.59-.49.79.79,0,0,1,.32-.08c.22,0,.37.15.37.45v5.71a2.77,2.77,0,0,0,.17,1.38C88,40.51,88.67,40.44,88.67,40.83Z"/><path d="M96.2,33.74c0,.4-.14.78-.58.78s-.62-.38-1.12-.38a1.15,1.15,0,0,0-1,.59c-.41.61-.69,1.4-.69,3.91a4.33,4.33,0,0,0,.2,1.72c.3.6.86.53.86.9s-.2.32-.47.32H90.66c-.27,0-.47-.08-.47-.32s.6-.33.87-.94a4.7,4.7,0,0,0,.19-1.68v-3A2.57,2.57,0,0,0,91,34.28c-.3-.44-1-.37-1-.74,0-.19.1-.3.45-.37a5.89,5.89,0,0,0,1.38-.46,1.21,1.21,0,0,1,.41-.1c.25,0,.39.17.39.47v1.33s0,.07,0,.07,0,0,.07-.08a3,3,0,0,1,2.34-1.79A1,1,0,0,1,96.2,33.74Z"/></svg>