<svg id="Layer_1" data-name="Layer 1" xmlns="http://www.w3.org/2000/svg" viewBox="0 0 300 50"><path d="M15.69,40.36c.3.58.85.55.85.9s-.22.32-.47.32H13.26c-.25,0-.45-.08-.45-.32s.59-.37.86-.9a4.52,4.52,0,0,0,.2-1.72V32a2.77,2.77,0,0,0-.17-1.38.92.92,0,0,0-.56-.35c-.23-.09-.4-.17-.4-.34s.07-.3.47-.39a8.38,8.38,0,0,0,1.6-.48.71.71,0,0,1,.32-.09c.2,0,.35.14.35.44v9.19A4.23,4.23,0,0,0,15.69,40.36Z"/><path d="M26.42,37.14a4.38,4.38,0,0,1-4.27,4.63,4.15,4.15,0,0,1-4.29-4.51,4.42,4.42,0,0,1,4.34-4.65C24.87,32.61,26.42,34.6,26.42,37.14ZM22,33.46c-1.48,0-2.39,1.31-2.39,3.18,0,2.32,1.1,4.25,2.75,4.25s2.39-1.61,2.39-3.26C24.71,35.69,23.85,33.46,22,33.46Z"/><path d="M35.93,39.09a2.48,2.48,0,0,0,.12,1c.25.45,1,.37,1,.74,0,.17-.09.3-.47.39a9.61,9.61,0,0,0-1.52.47.88.88,0,0,1-.38.1c-.22,0-.36-.12-.36-.44v-.91c0-.08,0-.13-.1-.13a.15.15,0,0,0-.12.07,3.63,3.63,0,0,1-2.76,1.41c-1.61,0-3.45-1.23-3.45-4.14,0-2.49,1.52-5,4-5a4.14,4.14,0,0,1,2.22.68.25.25,0,0,0,.11.05c.06,0,.07,0,.07-.09v-1.6a1.73,1.73,0,0,0-.18-1c-.32-.4-.95-.32-.95-.69,0-.16.07-.28.48-.37a8.61,8.61,0,0,0,1.53-.47,1,1,0,0,1,.37-.1c.2,0,.35.14.35.44Zm-1.6-2c0-2.33-1-3.64-2.4-3.64-1.77,0-2.38,1.89-2.38,3.55,0,2,1,3.55,2.44,3.55S34.33,39.19,34.33,37.11Z"/><path d="M45.09,34.16l-.26,0a3,3,0,0,1,.41,1.55A3.21,3.21,0,0,1,42,38.92c-.7.06-1.44,0-1.44.56,0,.34.33.49,1.17.57s1.62.07,2.46.19c1.2.18,1.89.86,1.89,1.82,0,1.83-1.87,2.77-4.33,2.77A5.14,5.14,0,0,1,38.54,44a1.64,1.64,0,0,1-.64-1.26,1.45,1.45,0,0,1,1.31-1.45c.25,0,.41.12.41.28s-.29.42-.29,1c0,1.09,1.4,1.48,2.66,1.48,1.56,0,2.74-.59,2.74-1.47,0-.6-.49-.86-1.46-.94-.78-.07-1.84-.07-2.61-.22-1-.18-1.5-.76-1.5-1.38a1.54,1.54,0,0,1,1.06-1.34c.05,0,.05,0,.05,0s0,0-.05-.06a3,3,0,0,1-1.73-2.74,3.23,3.23,0,0,1,3.35-3.2c1.51,0,2.19.81,2.57.81s.36-.82,1.1-.82a.64.64,0,0,1,.69.7C46.2,33.88,45.79,34.16,45.09,34.16Zm-4.92,1.28c0,1.06.49,2.64,1.82,2.64,1,0,1.58-.94,1.58-2s-.54-2.59-1.82-2.59C40.73,33.44,40.17,34.35,40.17,35.44Z"/><path d="M55,39.77c0,.47-1.28,2-3.52,2a4.07,4.07,0,0,1-4.09-4.33,4.61,4.61,0,0,1,4.36-4.83,3.3,3.3,0,0,1,3.43,3.15c0,1-.5,1.18-1.33,1.2H49.29c-.11,0-.18,0-.18.16v.09c0,1.77,1,3.35,2.79,3.35s2.32-1.15,2.73-1.15A.34.34,0,0,1,55,39.77ZM49.18,36c0,.09,0,.1.13.1h2.74c1,0,1.42-.2,1.42-1a1.79,1.79,0,0,0-1.87-1.7,2.58,2.58,0,0,0-2.41,2.39C49.18,36,49.18,36,49.18,36Z"/></svg>