<svg xmlns="http://www.w3.org/2000/svg" viewBox="0 0 126.11 106.94"><defs><style>.cls-1{fill:#e9f8fb;}.cls-2{fill:#b6a987;}</style></defs><g id="Layer_2" data-name="Layer 2"><g id="Layer_2-2" data-name="Layer 2"><path class="cls-1" d="M10.54,41.45s2,70,40,63c38.35-7.07,8-84,8-84"/><path class="cls-2" d="M45.35,106.94a24.86,24.86,0,0,1-16-5.71c-8.17-6.61-14.16-18.71-17.78-36a147.36,147.36,0,0,1-3-23.76l4-.11c0,.42,1.42,42.27,19.31,56.73,5.25,4.24,11.24,5.66,18.32,4.36a18.66,18.66,0,0,0,13.75-9.65C76.06,71,56.87,21.68,56.68,21.18l3.72-1.47c.82,2.1,20.07,51.53,7,75.05A22.7,22.7,0,0,1,50.9,106.41,30.71,30.71,0,0,1,45.35,106.94Z"/><path class="cls-1" d="M76.54,19.45s-1,63,25,63,28-41,14-79"/><path class="cls-2" d="M101.54,84.45A17.15,17.15,0,0,1,89,79C74,63.72,74.51,21.22,74.54,19.42l4,.06c0,.42-.51,42.63,13.31,56.67a13.14,13.14,0,0,0,9.69,4.3,16.85,16.85,0,0,0,14.53-7.53c9-12.87,8-40.51-2.41-68.78l3.75-1.38C128.26,32.2,129,61.31,119.35,75.2A20.89,20.89,0,0,1,101.54,84.45Z"/><path d="M2.29,45.74l62-28c1.76-.79.24-3.38-1.51-2.59l-62,28C-1,44,.55,46.53,2.29,45.74Z"/><path d="M70.29,25.74l50-23c1.76-.8.23-3.39-1.51-2.59l-50,23c-1.75.81-.23,3.39,1.51,2.59Z"/></g></g></svg>