<?xml version="1.0" encoding="UTF-8"?><svg id="Layer_2" xmlns="http://www.w3.org/2000/svg" xmlns:xlink="http://www.w3.org/1999/xlink" viewBox="0 0 44.66 22.75"><defs><style>.cls-1,.cls-2{fill:none;}.cls-3{clip-path:url(#clippath);}.cls-4{fill:#fff;}.cls-5{fill:#ff3008;}.cls-6{fill:#ce2e19;}.cls-7{fill:#c5e8e9;}.cls-8{fill:#10322c;}.cls-9{fill:#221f20;}.cls-10{fill:#27346b;}.cls-11{clip-path:url(#clippath-1);}.cls-2{stroke:#27346b;stroke-miterlimit:10;stroke-width:.7px;}</style><clipPath id="clippath"><ellipse class="cls-1" cx="22.33" cy="11.38" rx="21.98" ry="11.03"/></clipPath><clipPath id="clippath-1"><ellipse class="cls-2" cx="22.33" cy="11.38" rx="21.98" ry="11.03"/></clipPath></defs><g id="Layer_3"><g><g><path class="cls-4" d="M18.96,19.2c-.78-6.24-.62-12.39,.46-18.67C8.68,1.25,.4,5.87,.4,11.46c0,1.05,.29,2.06,.83,3.02,3.85,2.55,9.71,4.19,17.53,4.71,.06,0,.12,0,.19,.01Z"/><path class="cls-4" d="M1.44,14.81s-.05-.09-.08-.13c.03,.04,.05,.09,.08,.13Z"/><path class="cls-5" d="M18.96,19.2c1.25,.08,2.54,.14,3.89,.16,.26,0,.53,0,.79,0,.08,0,.16,0,.25,0-.8-6.31-.65-12.52,.45-18.88-.65-.03-1.31-.04-1.97-.04-1,0-1.98,.03-2.94,.1-1.09,6.29-1.24,12.43-.46,18.67Z"/><path class="cls-7" d="M24.42,22.36c9.77-.46,17.68-4.13,19.5-8.89-4.1,3.53-11.23,5.73-20.04,5.89,.13,1,.28,2,.45,3.01,.03,0,.06,0,.09,0Z"/><path class="cls-7" d="M1.23,14.47c.04,.07,.09,.14,.13,.21-.04-.07-.08-.13-.12-.2,0,0,0,0,0,0Z"/><path class="cls-7" d="M1.48,14.87s-.03-.04-.04-.06c.01,.02,.03,.04,.04,.06Z"/><path class="cls-7" d="M19.42,22.31c-.18-1.04-.33-2.07-.46-3.11-.06,0-.12,0-.19-.01-7.82-.53-13.68-2.17-17.53-4.71,.04,.07,.08,.14,.12,.2,.03,.04,.05,.09,.08,.13,.01,.02,.03,.04,.04,.06,2.62,3.93,9.53,6.88,17.94,7.43Z"/><path class="cls-6" d="M22.84,19.36c-1.35-.02-2.64-.08-3.89-.16,.13,1.03,.28,2.07,.46,3.11,.95,.06,1.93,.1,2.91,.1,.55,0,1.1-.01,1.64-.03,.12,0,.24,0,.36-.01-.17-1.01-.33-2.01-.45-3.01-.08,0-.16,0-.25,0-.26,0-.52,0-.79,0Z"/></g><g><path class="cls-4" d="M23.88,19.35c8.35-.15,15.19-2.14,19.38-5.35H23.43c.07,1.78,.22,3.56,.45,5.35Z"/><path class="cls-4" d="M24.33,.48c-.5,2.9-.81,5.76-.91,8.62h20.39C41.79,4.45,33.95,.91,24.33,.48Z"/><path class="cls-4" d="M24.42,22.36s-.06,0-.09,0c-.12,0-.24,0-.36,.01-.54,.02-1.09,.03-1.64,.03-.99,0-1.96-.03-2.91-.1-8.41-.56-15.32-3.5-17.94-7.43,2.86,4.42,11.13,7.61,20.88,7.61,10.39,0,19.09-3.62,21.37-8.49h-.04c-2.18,4.5-9.86,7.91-19.26,8.36Z"/><path class="cls-5" d="M23.42,9.09H.78s-.6,1.19-.52,2.41,.65,2.49,.65,2.49H23.43c-.07-1.64-.07-3.27-.01-4.9Z"/><path class="cls-5" d="M43.26,14h.43c.09-.18,.17-.35,.23-.53-.21,.18-.43,.36-.66,.53Z"/><path class="cls-5" d="M43.81,9.09H23.42c-.06,1.63-.06,3.27,.01,4.9h19.83c.23-.17,.45-.35,.66-.53-.07,.18-.15,.36-.23,.53h.04c.38-.81,.58-1.66,.58-2.54,0-.81-.17-1.6-.51-2.37Z"/></g><path class="cls-9" d="M44.08,10.72c-.46-3.77-6.84-5.17-9.95-5.97,3.19,.77,9.68,2.07,10.17,5.97,0,0-.22,0-.22,0h0Z"/><path class="cls-10" d="M22.33,22.66C10.06,22.66,.08,17.6,.08,11.38S10.06,.09,22.33,.09s22.25,5.06,22.25,11.29-9.98,11.29-22.25,11.29ZM22.33,.61C10.36,.61,.62,5.44,.62,11.38s9.74,10.77,21.71,10.77,21.71-4.83,21.71-10.77S34.3,.61,22.33,.61Z"/><g class="cls-3"><g><path class="cls-10" d="M15.01,3.7c-1.82-1.06-6.61-1.88-9.64-.88-1.56,.52-3.25,1.48-4.85,2.59,7.23-2.06,9.42-1.86,14.48-1.72Z"/><path class="cls-10" d="M-.78,6.39c-4.96,3.85-7.61,9.46-1.77,4.47C3.66,5.55,10.41,4.63,15.01,4.05c-5.22,0-7.9-.01-15.79,2.34Z"/></g></g><g><g class="cls-11"><polygon class="cls-8" points="22.43 19.38 22.42 19.38 22.42 19.38 22.43 19.38"/><path class="cls-10" d="M40.81,17.98c5.58-3.71,9.42-8.41,2.38-4.19-7.67,4.6-15.34,5.45-18.82,5.59,3.86,.51,7.86,.48,16.44-1.4Z"/><path class="cls-10" d="M30.15,20.21c-2.67,.12-3.23,.14-5.64-.24,1.86,1.27,6.18,2.15,9.47,1.32,1.7-.43,3.58-1.32,5.36-2.38-3.8,.79-6.69,1.19-9.2,1.3Z"/></g><ellipse class="cls-2" cx="22.33" cy="11.38" rx="21.98" ry="11.03"/></g></g></g></svg>