<?xml version="1.0" encoding="UTF-8"?><svg id="Layer_2" xmlns="http://www.w3.org/2000/svg" viewBox="0 0 163.69 34.69"><defs><style>.cls-1{fill:#fff;}.cls-2{fill:#27346b;}</style></defs><g id="Layer_3"><g><rect class="cls-2" width="163.69" height="34.69"/><g><path class="cls-1" d="M18.29,26.11c-.75-.08-2-.1-3.75-.05-1.76,.05-3.04,.06-3.85,.02,0-.27,.01-.74,.04-1.4,.02-.66,.03-1.16,.01-1.52,0-.1-.01-.26-.04-.49-.02-.23-.03-.4-.01-.53,0-.08,0-.24,.02-.47,.02-.23,.02-.41,0-.52,0-.13-.01-.31-.04-.53-.02-.23-.04-.4-.04-.53,0-.1,.02-.4,.05-.92,0-.13,0-.31-.02-.53-.02-.23-.02-.4-.02-.53,0-.31,0-.75,.01-1.34,0-.58,.01-1.01,.01-1.29,0-.15,0-.35-.01-.62,0-.27-.01-.47-.01-.59,.03-.55,.05-.96,.05-1.21-.03-1.8-.03-3.03,0-3.69,.23-.06,.48-.1,.75-.11,.28,0,.6,0,.98,.01,.38,.02,.64,.02,.77,.02v3.69c.02,.86,.02,2.15,.02,3.86,0,.52,0,.91,.02,1.17,.02,.15,.02,.35,.02,.62v.59c.08,.52,.12,1.01,.12,1.48,0,.19-.02,.53-.05,1.02-.02,.23,0,.58,.02,1.07,.05,.52,.08,.79,.1,.83,.1,.02,.71,.02,1.85,.02,1.67,0,2.66,.02,2.96,.05,.21,.96,.22,1.77,.02,2.43Z"/><path class="cls-1" d="M29.48,22.35c-.08,.29-.13,.53-.15,.73,0,.05,0,.11,.01,.17,0,.06,.01,.11,.01,.12,0,.03-.02,.09-.05,.16s-.06,.13-.07,.18c-.16,.5-.46,.93-.9,1.29-.05,.05-.1,.09-.16,.13-.06,.04-.12,.08-.19,.12-.07,.04-.13,.08-.16,.11-.23,.16-.41,.28-.53,.34-.26,.11-.66,.26-1.19,.44l-.34,.07c-.37,.1-.73,.11-1.07,.05l-.36-.07s-.11-.02-.19-.02h-.17c-.26-.06-.53-.19-.83-.39-.87-.52-1.5-1.12-1.87-1.8-.28-.45-.42-.91-.44-1.36-.02-.06-.02-.14,0-.22,.02-.08,.02-.15,0-.22,0-.08,0-.16-.01-.24,0-.08-.02-.17-.04-.28-.02-.1-.02-.19-.02-.25-.03-.08-.03-.29,0-.63,.03-.34,.05-.55,.05-.63,0-.1,0-.23-.01-.41,0-.18-.01-.31-.01-.39,0-.05,0-.12,.01-.22,0-.1,.01-.17,.01-.22-.03-.6-.04-1.05-.02-1.36,.03-.65,.05-1.13,.05-1.43-.03-.34-.02-1.28,.02-2.82,0-.03,0-.08-.01-.15,0-.06-.01-.1-.01-.12,0-.53,.02-.86,.05-.97l.15-.46c.03-.13,.08-.25,.16-.38,.07-.12,.13-.21,.17-.27,.04-.06,.12-.14,.23-.25s.19-.19,.22-.24c.08-.1,.15-.18,.22-.24,.06-.06,.15-.13,.27-.19,.11-.06,.19-.11,.24-.13,.05-.02,.16-.07,.33-.15,.17-.07,.27-.12,.3-.13,.05-.02,.14-.06,.28-.12,.14-.06,.25-.11,.33-.15,.13-.05,.63-.13,1.51-.24,.44-.03,.79,0,1.07,.12,.08,.02,.43,.17,1.04,.46,.15,.08,.33,.2,.56,.36,.23,.13,.36,.23,.41,.29,.05,.05,.14,.19,.27,.44,.11,.18,.33,.65,.66,1.41,.08,.45,.13,1.12,.13,2,0,.88,.02,1.41,.04,1.59,.03,.52,.04,.91,.02,1.17-.02,.19-.02,.47,0,.83,.02,.36,.02,.58,.02,.68v.78c.08,1.12,.07,2.16-.02,3.13Zm-2.62-7.04c0-.11,0-.3-.01-.55,0-.25-.01-.45-.01-.59,0-.79,0-1.22-.02-1.29-.08-.28-.25-.53-.51-.75-.02,0-.04,0-.07-.01-.03,0-.06-.02-.1-.02-.03,0-.06-.02-.07-.04l-.27-.17c-.19-.08-.36-.12-.51-.12-.34,0-.79,.11-1.36,.32l-.27,.29-.17,.19s-.04,.12-.06,.22-.05,.18-.08,.24c.02,.32,0,1.41-.02,3.26-.03,1.78-.02,3.12,.02,4.01,.02,.24,.02,.58,.02,1,0,.49,.02,.79,.05,.9,.11,.28,.18,.44,.19,.49,0,.06,0,.11,.02,.12,0,.02,.01,.04,.04,.07,.02,.03,.04,.06,.04,.1,.05,.05,.11,.12,.19,.22s.15,.18,.22,.24c.06,.06,.14,.11,.22,.15,.15,.06,.44,.1,.87,.1,.52-.02,.94-.2,1.26-.56,.03-.03,.06-.06,.07-.1,.02-.03,.03-.06,.05-.07l.19-.32c.11-.45,.15-.8,.1-1.04,.05-.1,.07-.18,.07-.24,.08-.68,.09-1.38,.02-2.09l-.1-2.06c-.02-.39-.02-1.01-.02-1.87Z"/><path class="cls-1" d="M39.32,25.9c-.36-.78-.82-1.87-1.38-3.28-.07-.13-.15-.34-.25-.64-.11-.3-.18-.5-.23-.6l-.27-.8c-.15-.34-.41-.91-.79-1.72-.38-.81-.67-1.47-.86-1.97,0-.06-.04-.2-.13-.41s-.16-.32-.21-.32c-.1-.02-.15,.08-.15,.29,0,.29,0,.45,.02,.46,0,.05,0,.19-.01,.44,0,.24-.01,.41-.01,.51,.03,1.52,.05,2.74,.05,3.64,.05,1.23,.07,1.87,.07,1.92,.02,.13,0,.32-.02,.58-.03,.26-.05,.44-.05,.53-.02,.05-.02,.15-.02,.29v.29c-.02,.08-.03,.12-.05,.12,.05,.06,.06,.16,.05,.29-.02,.13-.02,.25,0,.36-.75,.24-1.6,.25-2.58,.02-.03-.15-.04-.44-.01-.89,.02-.45,.04-.75,.04-.91l-.07-.92v-2.62c0-.7,0-1.22,.02-1.58,.02-.36,.02-.9,.02-1.62s0-1.26,.02-1.62c.03-.68,.03-1.72,0-3.13-.03-1.41-.03-2.47,0-3.18,1.07-.13,1.88-.16,2.43-.1,.06,.11,.14,.29,.23,.52,.09,.23,.16,.4,.21,.5l.46,.97c.03,.06,.12,.28,.27,.66s.27,.66,.36,.85c.13,.28,.2,.43,.22,.46,.02,.05,.11,.3,.27,.75,.18,.37,.43,.97,.75,1.79,.32,.82,.58,1.43,.78,1.83,.02,.03,.06,.13,.15,.29,.08,.16,.14,.29,.17,.39l.36,.66s.07,0,.11-.02c.04-.02,.08-.02,.11,0,.03-.13,.06-.34,.07-.62,.02-.28,.03-.49,.05-.62,.05-.37,.06-.91,.02-1.63-.02-.16-.02-.88-.02-2.16v-3.52c0-.65,.02-1,.05-1.07,1-.13,1.82-.12,2.45,.02,0,.26,0,.8,.02,1.62,.02,.82,0,1.36-.02,1.62-.05,1.3-.07,3.17-.07,5.64-.02,.28-.01,.66,.01,1.15,.02,.49,.04,.85,.04,1.06-.03,.26-.05,.45-.05,.56,.03,.4,.06,1.41,.1,3.01,0,1.12,0,1.75,.02,1.9-1.25,.1-2.16,.08-2.74-.05Z"/><path class="cls-1" d="M54.26,19.19s0,.05-.02,.11c-.02,.06-.02,.1-.02,.13-.02,.18,0,.45,.02,.8,.05,.37,.02,.99-.07,1.85-.02,.03,0,.05,.02,.06,.03,0,.05,.03,.05,.06-.02,.5-.15,1-.39,1.51-.02,.08-.07,.16-.15,.24-.26,.53-.49,.88-.68,1.04-.02,.03-.05,.06-.1,.07l-.02,.02s-.11,.09-.17,.17c-.07,.08-.12,.14-.17,.17-.19,.15-.4,.25-.61,.32-.21,.08-.67,.14-1.36,.17-2.51,.13-4.17,.17-4.98,.12-.13-1.08-.15-2.6-.05-4.54,.02-.23,.02-.55,0-.97-.02-.42-.02-.74-.02-.95,0-.73,.02-1.2,.05-1.41,0-.02-.02-.03-.05-.05-.03-.02-.04-.04-.02-.07-.03-.47-.03-.99,0-1.55,0-.16,0-.43-.02-.79-.02-.36-.02-.64-.02-.84,.03-.74,.05-1.18,.05-1.31-.03-.57-.05-1.96-.05-4.18,1.07-.06,2.6-.05,4.59,.05,.11,0,.27,.02,.46,.05,.19,.03,.32,.05,.39,.05,.05,.02,.26,.05,.63,.1h.15l.29,.15,.27,.15c.4,.21,.73,.43,.97,.66,.29,.31,.53,.79,.7,1.43,.03,.08,.11,.36,.24,.85,.05,.28,.06,.69,.02,1.24,0,1.3,.02,2.15,.07,2.55-.02,.02-.02,.07-.02,.17-.02,.15-.02,.36,0,.63,.02,.28,.02,.45,.02,.53v1.21Zm-2.6-.8c-.03-2.04-.03-3.42,0-4.13,.03-.6,.03-.99,0-1.17-.11-.57-.36-.95-.75-1.14-.32-.19-.71-.27-1.17-.24l-.7,.05c-.44,0-.68,.03-.73,.1-.03,.03-.05,.1-.05,.19s0,.19,.01,.28,0,.17-.01,.25c-.02,.26-.02,.61-.01,1.04,0,.44,.01,.78,.01,1.02-.03,.28-.05,.62-.05,1.03v.74c0,.76,0,1.33,.02,1.7v1.19c.02,.28,.02,.7,.02,1.29v1.21c.03,.49,.04,.87,.02,1.14v.46s.02,.01,.02,.04,0,.05,.02,.08c.11,.05,.3,.07,.56,.07,.6,.03,1.05,.02,1.36-.05,.6-.11,1-.32,1.21-.61l.07-.36c.1-.29,.15-.6,.15-.92,.03-.19,.03-.38,0-.56-.02-.7-.02-1.6-.02-2.72Z"/><path class="cls-1" d="M65.41,22.35c-.08,.29-.13,.53-.15,.73,0,.05,0,.11,.01,.17,0,.06,.01,.11,.01,.12,0,.03-.02,.09-.05,.16s-.06,.13-.07,.18c-.16,.5-.46,.93-.9,1.29-.05,.05-.1,.09-.16,.13-.06,.04-.12,.08-.19,.12-.07,.04-.13,.08-.16,.11-.23,.16-.41,.28-.53,.34-.26,.11-.66,.26-1.19,.44l-.34,.07c-.37,.1-.73,.11-1.07,.05l-.36-.07s-.11-.02-.19-.02h-.17c-.26-.06-.53-.19-.83-.39-.87-.52-1.5-1.12-1.87-1.8-.28-.45-.42-.91-.44-1.36-.02-.06-.02-.14,0-.22,.02-.08,.02-.15,0-.22,0-.08,0-.16-.01-.24,0-.08-.02-.17-.04-.28-.02-.1-.02-.19-.02-.25-.03-.08-.03-.29,0-.63,.03-.34,.05-.55,.05-.63,0-.1,0-.23-.01-.41,0-.18-.01-.31-.01-.39,0-.05,0-.12,.01-.22,0-.1,.01-.17,.01-.22-.03-.6-.04-1.05-.02-1.36,.03-.65,.05-1.13,.05-1.43-.03-.34-.02-1.28,.02-2.82,0-.03,0-.08-.01-.15,0-.06-.01-.1-.01-.12,0-.53,.02-.86,.05-.97l.15-.46c.03-.13,.08-.25,.16-.38,.07-.12,.13-.21,.17-.27,.04-.06,.12-.14,.23-.25s.19-.19,.22-.24c.08-.1,.15-.18,.22-.24,.06-.06,.15-.13,.27-.19,.11-.06,.19-.11,.24-.13,.05-.02,.16-.07,.33-.15,.17-.07,.27-.12,.3-.13,.05-.02,.14-.06,.28-.12,.14-.06,.25-.11,.33-.15,.13-.05,.63-.13,1.51-.24,.44-.03,.79,0,1.07,.12,.08,.02,.43,.17,1.04,.46,.15,.08,.33,.2,.56,.36,.23,.13,.36,.23,.41,.29,.05,.05,.14,.19,.27,.44,.11,.18,.33,.65,.66,1.41,.08,.45,.13,1.12,.13,2,0,.88,.02,1.41,.04,1.59,.03,.52,.04,.91,.02,1.17-.02,.19-.02,.47,0,.83,.02,.36,.02,.58,.02,.68v.78c.08,1.12,.07,2.16-.02,3.13Zm-2.62-7.04c0-.11,0-.3-.01-.55,0-.25-.01-.45-.01-.59,0-.79,0-1.22-.02-1.29-.08-.28-.25-.53-.51-.75-.02,0-.04,0-.07-.01-.03,0-.06-.02-.1-.02-.03,0-.06-.02-.07-.04l-.27-.17c-.19-.08-.36-.12-.51-.12-.34,0-.79,.11-1.36,.32l-.27,.29-.17,.19s-.04,.12-.06,.22-.05,.18-.08,.24c.02,.32,0,1.41-.02,3.26-.03,1.78-.02,3.12,.02,4.01,.02,.24,.02,.58,.02,1,0,.49,.02,.79,.05,.9,.11,.28,.18,.44,.19,.49,0,.06,0,.11,.02,.12,0,.02,.01,.04,.04,.07,.02,.03,.04,.06,.04,.1,.05,.05,.11,.12,.19,.22s.15,.18,.22,.24c.06,.06,.14,.11,.22,.15,.15,.06,.44,.1,.87,.1,.52-.02,.94-.2,1.26-.56,.03-.03,.06-.06,.07-.1,.02-.03,.03-.06,.05-.07l.19-.32c.11-.45,.15-.8,.1-1.04,.05-.1,.07-.18,.07-.24,.08-.68,.09-1.38,.02-2.09l-.1-2.06c-.02-.39-.02-1.01-.02-1.87Z"/><path class="cls-1" d="M75.25,25.9c-.36-.78-.82-1.87-1.38-3.28-.07-.13-.15-.34-.25-.64-.11-.3-.18-.5-.23-.6l-.27-.8c-.15-.34-.41-.91-.79-1.72-.38-.81-.67-1.47-.86-1.97,0-.06-.04-.2-.13-.41s-.16-.32-.21-.32c-.1-.02-.15,.08-.15,.29,0,.29,0,.45,.02,.46,0,.05,0,.19-.01,.44,0,.24-.01,.41-.01,.51,.03,1.52,.05,2.74,.05,3.64,.05,1.23,.07,1.87,.07,1.92,.02,.13,0,.32-.02,.58-.03,.26-.05,.44-.05,.53-.02,.05-.02,.15-.02,.29v.29c-.02,.08-.03,.12-.05,.12,.05,.06,.06,.16,.05,.29-.02,.13-.02,.25,0,.36-.75,.24-1.6,.25-2.58,.02-.03-.15-.04-.44-.01-.89,.02-.45,.04-.75,.04-.91l-.07-.92v-2.62c0-.7,0-1.22,.02-1.58,.02-.36,.02-.9,.02-1.62s0-1.26,.02-1.62c.03-.68,.03-1.72,0-3.13-.03-1.41-.03-2.47,0-3.18,1.07-.13,1.88-.16,2.43-.1,.06,.11,.14,.29,.23,.52,.09,.23,.16,.4,.21,.5l.46,.97c.03,.06,.12,.28,.27,.66s.27,.66,.36,.85c.13,.28,.2,.43,.22,.46,.02,.05,.11,.3,.27,.75,.18,.37,.43,.97,.75,1.79,.32,.82,.58,1.43,.78,1.83,.02,.03,.06,.13,.15,.29,.08,.16,.14,.29,.17,.39l.36,.66s.07,0,.11-.02c.04-.02,.08-.02,.11,0,.03-.13,.06-.34,.07-.62,.02-.28,.03-.49,.05-.62,.05-.37,.06-.91,.02-1.63-.02-.16-.02-.88-.02-2.16v-3.52c0-.65,.02-1,.05-1.07,1-.13,1.82-.12,2.45,.02,0,.26,0,.8,.02,1.62,.02,.82,0,1.36-.02,1.62-.05,1.3-.07,3.17-.07,5.64-.02,.28-.01,.66,.01,1.15,.02,.49,.04,.85,.04,1.06-.03,.26-.05,.45-.05,.56,.03,.4,.06,1.41,.1,3.01,0,1.12,0,1.75,.02,1.9-1.25,.1-2.16,.08-2.74-.05Z"/><path class="cls-1" d="M89.7,22.88c-.05,.34-.19,.72-.44,1.14-.15,.32-.28,.54-.39,.66-.11,.16-.36,.36-.75,.58-.08,.06-.21,.16-.39,.28-.18,.12-.31,.21-.39,.28-.05,.02-.23,.06-.55,.15-.32,.08-.56,.14-.74,.17-.08,.02-.5,0-1.26-.05-.02,0-.08,0-.21,.01-.12,0-.19,0-.21-.01-.84-.08-1.47-.31-1.9-.68-.03,0-.05-.02-.05-.05l.02-.05s-.17-.1-.37-.27c-.05-.15-.08-.22-.1-.22h-.1c-.06-.06-.15-.19-.27-.36-.37-.52-.59-1.12-.66-1.8-.08-1.2-.08-2.4,0-3.6,.02-.15,0-.36-.04-.66-.04-.29-.06-.46-.06-.51-.02-.45,0-1.12,.02-1.99l.07-1.77c0-.86,.03-1.44,.1-1.75l.19-.78c.08-.31,.22-.62,.41-.92,.08-.08,.13-.12,.15-.12-.02-.05-.02-.1,0-.15,.05-.06,.24-.2,.58-.41,.06-.03,.17-.08,.32-.15,.15-.06,.25-.12,.32-.17,.03-.02,.16-.08,.39-.21,.23-.12,.4-.2,.51-.23,.21-.06,.62-.08,1.21-.05h.44c.31,.02,.54,.04,.71,.07,.06,.02,.21,.04,.42,.06,.22,.02,.38,.06,.5,.11l.39,.12,.27,.24,.7,.66c.05,.06,.13,.18,.24,.34,.11,.16,.2,.3,.27,.41,.21,.36,.36,.81,.44,1.36,.03,.26,.05,.64,.05,1.15v.94c-1.1,.15-1.94,.15-2.53,0,.02-.4,.03-.77,.04-1.1s-.04-.64-.16-.94-.29-.51-.53-.66c-.26-.19-.62-.27-1.07-.24-.68,.02-1.21,.28-1.6,.78-.21,.42-.26,1.25-.15,2.48,.02,.15,.02,.34,0,.6-.02,.25-.02,.43-.02,.52-.02,.16-.02,.38,0,.67,.02,.28,.02,.47,.02,.55,0,.15,0,.35-.02,.61-.02,.26-.02,.45-.02,.56,0,.1,0,.2,.01,.32,0,.11,.01,.22,.01,.32v.08s0,.05,.01,.09,.01,.06,.01,.1v.47c0,.25,.02,.45,.05,.6-.03,.11-.05,.31-.05,.59s0,.51-.02,.69c-.03,.28,0,.46,.1,.56,.02,.44,.23,.78,.63,1.02,.06,.02,.25,.08,.56,.19,.41,.08,.86,.03,1.36-.15l.44-.24,.19-.12s.03-.08,.05-.16c.02-.07,.03-.13,.05-.16,.11-.19,.18-.34,.19-.44,.02-.03,.02-.07,0-.11-.02-.04-.02-.07-.02-.08l.1-.51c0-.11-.02-.43-.05-.95,.47-.19,1.34-.22,2.6-.07v1.17c0,.66-.02,1.06-.05,1.19Z"/><path class="cls-1" d="M99.59,25.99c-.06-.31-.17-.75-.3-1.34s-.23-1.01-.28-1.29c-.13-.45-.19-.69-.19-.7-.42-.03-1.04-.03-1.86,.01s-1.37,.06-1.66,.06c-.05,.05-.13,.32-.24,.8l-.19,.85c-.05,.18-.11,.45-.18,.83-.07,.37-.14,.65-.21,.83-.96,.08-1.82,.09-2.6,.02,.08-.44,.2-1.12,.36-2.05s.29-1.63,.39-2.1l.19-.78c.1-.37,.21-.94,.33-1.7,.12-.76,.23-1.34,.33-1.72l.22-.8,.15-.8c.05-.23,.22-1.06,.51-2.5,.03-.13,.08-.31,.13-.53,.06-.23,.11-.43,.15-.62,.04-.19,.07-.35,.08-.5,.28-1.55,.45-2.44,.54-2.67,.81-.13,1.93-.13,3.38,0,.06,.41,.18,1,.34,1.77l.1,.34s.02,.18,.07,.49c.05,.31,.12,.59,.22,.85,.06,.23,.19,.78,.39,1.65,.05,.18,.11,.51,.19,1.01,.08,.49,.16,.87,.24,1.13,.1,.31,.21,.79,.33,1.45,.12,.66,.22,1.14,.3,1.45,.05,.19,.1,.48,.15,.86,.05,.38,.11,.67,.17,.86,.02,.08,.06,.21,.12,.4,.06,.19,.11,.33,.15,.43,.15,.63,.26,1.21,.34,1.75l.1,.36s.02,.07,.02,.12v.12s.01,.06,.04,.1,.04,.06,.04,.07v.24c.02,.06,.04,.14,.06,.23,.02,.09,.04,.16,.06,.22,.02,.06,.03,.12,.05,.18,.03,.26,.05,.45,.05,.58-1.08,.08-1.94,.1-2.55,.05Zm-1.97-9.23s-.02-.12-.05-.22c-.03-.1-.06-.18-.07-.24l-.15-.51c-.1-.42-.18-.73-.24-.92v-.15s-.09-.02-.12-.07c-.03-.05-.08-.06-.15-.05-.03,.06-.06,.18-.08,.34-.02,.16-.04,.28-.06,.36l-.22,1c-.03,.13-.07,.32-.11,.56-.04,.24-.08,.47-.12,.67-.04,.2-.08,.4-.13,.6l-.17,.68-.05,.34s-.04,.17-.13,.43-.12,.45-.08,.6c.1,.02,.94,0,2.53-.05,.03-.05,.03-.18,0-.39-.02-.06-.09-.48-.22-1.24-.13-.76-.25-1.34-.36-1.72Z"/><path class="cls-1" d="M112.54,26.11c-.75-.08-2-.1-3.75-.05-1.76,.05-3.04,.06-3.85,.02,0-.27,.01-.74,.04-1.4,.02-.66,.03-1.16,.01-1.52,0-.1-.01-.26-.04-.49-.02-.23-.03-.4-.01-.53,0-.08,0-.24,.02-.47,.02-.23,.02-.41,0-.52,0-.13-.01-.31-.04-.53-.02-.23-.04-.4-.04-.53,0-.1,.02-.4,.05-.92,0-.13,0-.31-.02-.53-.02-.23-.02-.4-.02-.53,0-.31,0-.75,.01-1.34,0-.58,.01-1.01,.01-1.29,0-.15,0-.35-.01-.62,0-.27-.01-.47-.01-.59,.03-.55,.05-.96,.05-1.21-.03-1.8-.03-3.03,0-3.69,.23-.06,.48-.1,.75-.11,.28,0,.6,0,.98,.01,.38,.02,.64,.02,.77,.02v3.69c.02,.86,.02,2.15,.02,3.86,0,.52,0,.91,.02,1.17,.02,.15,.02,.35,.02,.62v.59c.08,.52,.12,1.01,.12,1.48,0,.19-.02,.53-.05,1.02-.02,.23,0,.58,.02,1.07,.05,.52,.08,.79,.1,.83,.1,.02,.71,.02,1.85,.02,1.67,0,2.66,.02,2.96,.05,.21,.96,.22,1.77,.02,2.43Z"/><path class="cls-1" d="M123.1,26.11c-.75-.08-2-.1-3.75-.05-1.76,.05-3.04,.06-3.85,.02,0-.27,.01-.74,.04-1.4,.02-.66,.03-1.16,.01-1.52,0-.1-.01-.26-.04-.49-.02-.23-.03-.4-.01-.53,0-.08,0-.24,.02-.47,.02-.23,.02-.41,0-.52,0-.13-.01-.31-.04-.53-.02-.23-.04-.4-.04-.53,0-.1,.02-.4,.05-.92,0-.13,0-.31-.02-.53-.02-.23-.02-.4-.02-.53,0-.31,0-.75,.01-1.34,0-.58,.01-1.01,.01-1.29,0-.15,0-.35-.01-.62,0-.27-.01-.47-.01-.59,.03-.55,.05-.96,.05-1.21-.03-1.8-.03-3.03,0-3.69,.23-.06,.48-.1,.75-.11,.28,0,.6,0,.98,.01,.38,.02,.64,.02,.77,.02v3.69c.02,.86,.02,2.15,.02,3.86,0,.52,0,.91,.02,1.17,.02,.15,.02,.35,.02,.62v.59c.08,.52,.12,1.01,.12,1.48,0,.19-.02,.53-.05,1.02-.02,.23,0,.58,.02,1.07,.05,.52,.08,.79,.1,.83,.1,.02,.71,.02,1.85,.02,1.67,0,2.66,.02,2.96,.05,.21,.96,.22,1.77,.02,2.43Z"/><path class="cls-1" d="M126.16,9.4c.42-.05,1.17-.07,2.24-.07,.02,0,.06,0,.15-.01s.13,0,.15,.04c.02,.42,.02,1.08,.01,1.97,0,.89,0,1.6,.01,2.11v3.08c0,.08,0,.2,.02,.35,.02,.15,.03,.29,.04,.4,0,.11,.01,.22,.01,.32,0,.02-.02,.04-.05,.07-.02,.02-.02,.04-.02,.07,0,.05,0,.13,.01,.24,0,.11,.01,.2,.01,.27v1.41c-.02,.73,0,1.82,.06,3.27,.06,1.45,.07,2.54,.04,3.27-.07-.06-.17-.08-.32-.05-.13,0-.31,.01-.55,.04-.24,.02-.39,.04-.45,.04-.13,0-.26,0-.4-.01-.14,0-.3-.02-.47-.04-.18-.02-.32-.02-.44-.02,.02-.26,.01-.65-.01-1.17-.02-.52-.04-.89-.04-1.12,0-.08,0-.21,.02-.39,.02-.18,.02-.32,.02-.41,0-.19,0-.6,.02-1.21,.02-.62,0-1.04-.02-1.26-.03-.21-.05-.51-.05-.9v-.73c-.05-1.15-.06-2.88-.02-5.2,.02-.23,.02-.55,0-.96-.02-.41-.02-.68-.02-.81v-1.77c0-.08,0-.22,.02-.41,.02-.19,.02-.32,.02-.39Z"/><path class="cls-1" d="M139.11,25.9c-.36-.78-.82-1.87-1.38-3.28-.07-.13-.15-.34-.25-.64-.11-.3-.18-.5-.23-.6l-.27-.8c-.15-.34-.41-.91-.79-1.72-.38-.81-.67-1.47-.86-1.97,0-.06-.04-.2-.13-.41s-.16-.32-.21-.32c-.1-.02-.15,.08-.15,.29,0,.29,0,.45,.02,.46,0,.05,0,.19-.01,.44,0,.24-.01,.41-.01,.51,.03,1.52,.05,2.74,.05,3.64,.05,1.23,.07,1.87,.07,1.92,.02,.13,0,.32-.02,.58-.03,.26-.05,.44-.05,.53-.02,.05-.02,.15-.02,.29v.29c-.02,.08-.03,.12-.05,.12,.05,.06,.06,.16,.05,.29-.02,.13-.02,.25,0,.36-.75,.24-1.6,.25-2.58,.02-.03-.15-.04-.44-.01-.89,.02-.45,.04-.75,.04-.91l-.07-.92v-2.62c0-.7,0-1.22,.02-1.58,.02-.36,.02-.9,.02-1.62s0-1.26,.02-1.62c.03-.68,.03-1.72,0-3.13-.03-1.41-.03-2.47,0-3.18,1.07-.13,1.88-.16,2.43-.1,.06,.11,.14,.29,.23,.52,.09,.23,.16,.4,.21,.5l.46,.97c.03,.06,.12,.28,.27,.66s.27,.66,.36,.85c.13,.28,.2,.43,.22,.46,.02,.05,.11,.3,.27,.75,.18,.37,.43,.97,.75,1.79,.32,.82,.58,1.43,.78,1.83,.02,.03,.06,.13,.15,.29,.08,.16,.14,.29,.17,.39l.36,.66s.07,0,.11-.02c.04-.02,.08-.02,.11,0,.03-.13,.06-.34,.07-.62,.02-.28,.03-.49,.05-.62,.05-.37,.06-.91,.02-1.63-.02-.16-.02-.88-.02-2.16v-3.52c0-.65,.02-1,.05-1.07,1-.13,1.82-.12,2.45,.02,0,.26,0,.8,.02,1.62,.02,.82,0,1.36-.02,1.62-.05,1.3-.07,3.17-.07,5.64-.02,.28-.01,.66,.01,1.15,.02,.49,.04,.85,.04,1.06-.03,.26-.05,.45-.05,.56,.03,.4,.06,1.41,.1,3.01,0,1.12,0,1.75,.02,1.9-1.25,.1-2.16,.08-2.74-.05Z"/><path class="cls-1" d="M153.54,13.85c-.05,.49-.06,.75-.05,.8-.7,.05-1.56,.02-2.6-.07,.11-.86,.05-1.54-.19-2.04-.15-.32-.3-.53-.46-.63-.36-.28-.75-.36-1.19-.27-.06,.02-.17,.05-.3,.11-.14,.06-.23,.09-.28,.11-.03,.02-.09,.04-.17,.07-.08,.03-.15,.06-.19,.07l-.27,.22c-.28,.19-.44,.47-.49,.83-.02,.21-.01,.57,.01,1.07,.02,.5,.02,.87-.01,1.12-.03,.28-.03,.83,0,1.65,0,.06,0,.16-.02,.29-.02,.13-.02,.23-.02,.29,.03,.23,.05,.41,.05,.53,0,.06,0,.16-.01,.28,0,.12-.01,.21-.01,.28-.03,1.44-.02,2.44,.02,2.99,.11,.73,.19,1.15,.24,1.26l.07,.19c.03,.06,.11,.14,.23,.23s.19,.15,.21,.18c.6,.16,1.04,.21,1.34,.15,.36-.13,.66-.27,.92-.44l.17-.17c.36-.4,.49-1.06,.41-1.97-.02-.1-.02-.34-.02-.72s-.04-.65-.12-.81c-.11,.03-.35,.04-.72,.04-.36,0-.6-.01-.69-.01-.08-.99-.03-1.76,.15-2.31h1.29c.16-.02,.38-.01,.64,.01,.27,.02,.47,.04,.6,.04h.51c.55,0,.87,0,.95-.02,.03,.39,.02,.92-.02,1.58-.05,.66-.07,1.13-.07,1.41,0,.32,.02,.79,.05,1.41,0,.66,0,1.16,.02,1.48v.38c0,.14,0,.25,.02,.33,0,.06,.02,.11,.05,.15v.9s0,.14-.02,.27c-.02,.13-.02,.23-.02,.29,0,.29-.02,.48-.05,.56l.1,.07c-.21,.06-.48,.09-.8,.07-.1-.02-.22-.04-.38-.08-.15-.04-.25-.06-.3-.06l-.12-.51s-.03-.11-.05-.18c-.02-.07-.03-.13-.05-.18-.02-.05-.04-.07-.07-.07-.06-.02-.11,0-.13,.02-.02,.03-.04,.09-.06,.17-.08,.05-.13,.11-.15,.17l-.8,.36c-.34,.19-.64,.32-.9,.39-.19,.05-.52,.07-.97,.07-.39,.03-.71,.02-.97-.05-.08-.03-.17-.08-.27-.15-.05-.02-.12-.04-.22-.06-.1-.02-.18-.05-.25-.07-.07-.02-.13-.05-.18-.08-.16-.1-.41-.32-.75-.66-.05-.05-.2-.24-.46-.58-.45-.58-.7-1.11-.75-1.58-.03-.06-.04-.2-.04-.41,0-.21,.01-.35,.01-.41,0-.03,0-.07-.02-.12-.02-.05-.02-.08-.02-.1v-.62c0-.28,0-.5-.02-.64,0-.29,0-.51,.02-.66,0-.06,0-.16-.01-.29,0-.13-.01-.22-.01-.27,0-2.33,0-3.65-.02-3.96-.06-.58-.09-1.17-.07-1.77,.03-.94,.08-1.52,.15-1.75,.03-.1,.08-.15,.15-.17,0-.19,.11-.47,.34-.83,.26-.44,.56-.74,.9-.92,.06-.06,.18-.13,.34-.19,.16-.06,.28-.13,.36-.19,.11-.1,.36-.21,.73-.34,.74-.11,1.52-.16,2.33-.15,.11,.05,.27,.1,.46,.15,.19,.05,.32,.08,.39,.1,.19,.05,.4,.12,.61,.22,.29,.13,.58,.36,.87,.68l.27,.36c.19,.21,.39,.58,.58,1.12,.29,.71,.4,1.4,.34,2.06Z"/></g></g></g></svg>