<?xml version="1.0" encoding="UTF-8"?><svg id="Layer_2" xmlns="http://www.w3.org/2000/svg" viewBox="0 0 218.78 13.67"><defs><style>.cls-1{fill:red;}</style></defs><g id="Layer_3"><g><path class="cls-1" d="M0,.37H9.79V3.7H3.51v2.22h4.8v3.14H3.51v4.25H0V.37Z"/><path class="cls-1" d="M18.01,0c4.14,0,7.21,3.05,7.21,6.84s-3.07,6.84-7.21,6.84-7.21-3.05-7.21-6.84S13.88,0,18.01,0Zm0,10.44c2.01,0,3.6-1.57,3.6-3.6s-1.59-3.6-3.6-3.6-3.6,1.59-3.6,3.6,1.57,3.6,3.6,3.6Z"/><path class="cls-1" d="M27.4,.37h6.1c2.75,0,4.71,1.94,4.71,4.44,0,1.4-.54,2.31-1.11,2.88-.31,.33-.68,.61-1.11,.81l2.68,4.8h-3.7l-2.12-4.07h-1.94v4.07h-3.51V.37Zm5.91,5.73c.83,0,1.39-.55,1.39-1.29s-.55-1.29-1.39-1.29h-2.4v2.59h2.4Z"/><path class="cls-1" d="M48.01,.37h3.88l4.9,12.94h-3.79l-.92-2.77h-4.25l-.92,2.77h-3.79L48.01,.37Zm3.14,7.3l-1.16-3.7h-.07l-1.16,3.7h2.4Z"/><path class="cls-1" d="M74.34,11.18c-.41,.46-.89,.89-1.44,1.26-.94,.65-2.35,1.24-4.2,1.24-4.14,0-7.21-3.05-7.21-6.84s3.07-6.84,7.21-6.84c1.85,0,3.22,.61,4.16,1.26,.54,.37,1,.78,1.39,1.24l-2.12,2.4c-.28-.31-.59-.59-.94-.83-.61-.42-1.44-.83-2.48-.83-2.03,0-3.6,1.59-3.6,3.6s1.57,3.6,3.6,3.6c1.04,0,1.87-.41,2.51-.83,.37-.24,.7-.52,1-.83l2.12,2.4Z"/><path class="cls-1" d="M76.07,.37h3.51V5.08h4.71V.37h3.51V13.3h-3.51v-4.9h-4.71v4.9h-3.51V.37Z"/><path class="cls-1" d="M94.1,.37h3.88l4.9,12.94h-3.79l-.92-2.77h-4.25l-.92,2.77h-3.79L94.1,.37Zm3.14,7.3l-1.16-3.7h-.07l-1.16,3.7h2.4Z"/><path class="cls-1" d="M104.28,.37h3.05l5.54,7.11V.37h3.51V13.3h-3.05l-5.54-7.11v7.11h-3.51V.37Z"/><path class="cls-1" d="M131.4,11.18c-.41,.46-.89,.89-1.44,1.26-.94,.65-2.35,1.24-4.2,1.24-4.14,0-7.21-3.05-7.21-6.84s3.07-6.84,7.21-6.84c1.85,0,3.22,.61,4.16,1.26,.54,.37,1,.78,1.39,1.24l-2.12,2.4c-.28-.31-.59-.59-.94-.83-.61-.42-1.44-.83-2.48-.83-2.03,0-3.6,1.59-3.6,3.6s1.57,3.6,3.6,3.6c1.04,0,1.87-.41,2.51-.83,.37-.24,.7-.52,1-.83l2.12,2.4Z"/><path class="cls-1" d="M133.13,.37h9.89V3.51h-6.38v1.85h4.9v2.96h-4.9v1.85h6.56v3.14h-10.07V.37Z"/><path class="cls-1" d="M151.98,3.51h-3.6V.37h10.72V3.51h-3.6V13.3h-3.51V3.51Z"/><path class="cls-1" d="M167.18,0c4.14,0,7.21,3.05,7.21,6.84s-3.07,6.84-7.21,6.84-7.21-3.05-7.21-6.84,3.07-6.84,7.21-6.84Zm0,10.44c2.01,0,3.6-1.57,3.6-3.6s-1.59-3.6-3.6-3.6-3.6,1.59-3.6,3.6,1.57,3.6,3.6,3.6Z"/><path class="cls-1" d="M179.19,.37h3.79l2.03,7.58h.09l2.31-7.58h3.14l2.31,7.58h.09l2.03-7.58h3.79l-4.25,12.94h-3.14l-2.37-7.76h-.07l-2.37,7.76h-3.14L179.19,.37Z"/><path class="cls-1" d="M200.24,.37h3.51V13.3h-3.51V.37Z"/><path class="cls-1" d="M206.67,.37h3.05l5.54,7.11V.37h3.51V13.3h-3.05l-5.54-7.11v7.11h-3.51V.37Z"/></g></g></svg>