<?xml version="1.0" encoding="UTF-8"?><svg id="Layer_2" xmlns="http://www.w3.org/2000/svg" viewBox="0 0 234.33 13.67"><defs><style>.cls-1{fill:#27346b;}</style></defs><g id="Layer_3"><g><path class="cls-1" d="M0,.37H9.79V3.7H3.51v2.22h4.8v3.14H3.51v4.25H0V.37Z"/><path class="cls-1" d="M18.01,0c4.14,0,7.21,3.05,7.21,6.84s-3.07,6.84-7.21,6.84-7.21-3.05-7.21-6.84S13.88,0,18.01,0Zm0,10.44c2.01,0,3.6-1.57,3.6-3.6s-1.59-3.6-3.6-3.6-3.6,1.59-3.6,3.6,1.57,3.6,3.6,3.6Z"/><path class="cls-1" d="M27.4,.37h6.1c2.75,0,4.71,1.94,4.71,4.44,0,1.4-.54,2.31-1.11,2.88-.31,.33-.68,.61-1.11,.81l2.68,4.8h-3.7l-2.12-4.07h-1.94v4.07h-3.51V.37Zm5.91,5.73c.83,0,1.39-.55,1.39-1.29s-.55-1.29-1.39-1.29h-2.4v2.59h2.4Z"/><path class="cls-1" d="M47.64,8.69L43.02,.37h3.88l2.46,5.08h.07L51.89,.37h3.88l-4.62,8.32v4.62h-3.51v-4.62Z"/><path class="cls-1" d="M62.72,0c4.14,0,7.21,3.05,7.21,6.84s-3.07,6.84-7.21,6.84-7.21-3.05-7.21-6.84,3.07-6.84,7.21-6.84Zm0,10.44c2.01,0,3.6-1.57,3.6-3.6s-1.59-3.6-3.6-3.6-3.6,1.59-3.6,3.6,1.57,3.6,3.6,3.6Z"/><path class="cls-1" d="M71.99,.37h3.51V7.95c0,1.48,1.02,2.49,2.4,2.49s2.4-1.02,2.4-2.49V.37h3.51V7.95c0,3.33-2.42,5.73-5.91,5.73s-5.91-2.4-5.91-5.73V.37Z"/><path class="cls-1" d="M94.07,.37h3.88l4.9,12.94h-3.79l-.92-2.77h-4.25l-.92,2.77h-3.79L94.07,.37Zm3.14,7.3l-1.16-3.7h-.07l-1.16,3.7h2.4Z"/><path class="cls-1" d="M104.24,.37h3.05l5.54,7.11V.37h3.51V13.3h-3.05l-5.54-7.11v7.11h-3.51V.37Z"/><path class="cls-1" d="M119.3,.37h4.8c4.16,0,7.02,2.86,7.02,6.47s-2.86,6.47-7.02,6.47h-4.8V.37Zm4.8,9.79c2.01,0,3.42-1.4,3.42-3.33s-1.4-3.33-3.42-3.33h-1.29v6.65h1.29Z"/><path class="cls-1" d="M138.15,9.42c.2,.2,.44,.39,.7,.55,.44,.28,1.09,.55,1.88,.55,1.11,0,1.66-.55,1.66-1.2s-.55-1.2-1.66-1.2h-1.29v-2.86h1.29c.94,0,1.39-.46,1.39-1.11s-.44-1.11-1.39-1.11c-.65,0-1.18,.24-1.55,.52-.22,.15-.41,.31-.57,.5l-2.03-2.12c.33-.35,.74-.68,1.2-.96,.79-.5,1.94-.98,3.42-.98,2.86,0,4.62,1.76,4.62,3.7,0,1.09-.54,1.76-1.11,2.18-.31,.24-.68,.44-1.11,.59,.48,.17,.91,.39,1.29,.68,.65,.5,1.29,1.29,1.29,2.55,0,2.12-1.85,3.97-5.08,3.97-1.57,0-2.81-.52-3.68-1.05-.5-.31-.92-.68-1.31-1.07l2.03-2.12Z"/><path class="cls-1" d="M152.38,.37h9.79V3.7h-6.28v2.22h4.8v3.14h-4.8v4.25h-3.51V.37Z"/><path class="cls-1" d="M164.08,.37h6.1c2.75,0,4.71,1.94,4.71,4.44,0,1.4-.54,2.31-1.11,2.88-.31,.33-.68,.61-1.11,.81l2.68,4.8h-3.7l-2.12-4.07h-1.94v4.07h-3.51V.37Zm5.91,5.73c.83,0,1.39-.55,1.39-1.29s-.55-1.29-1.39-1.29h-2.4v2.59h2.4Z"/><path class="cls-1" d="M177.3,.37h3.51V13.3h-3.51V.37Z"/><path class="cls-1" d="M183.73,.37h9.89V3.51h-6.38v1.85h4.9v2.96h-4.9v1.85h6.56v3.14h-10.07V.37Z"/><path class="cls-1" d="M196.17,.37h3.05l5.54,7.11V.37h3.51V13.3h-3.05l-5.54-7.11v7.11h-3.51V.37Z"/><path class="cls-1" d="M211.23,.37h4.8c4.16,0,7.02,2.86,7.02,6.47s-2.86,6.47-7.02,6.47h-4.8V.37Zm4.8,9.79c2.01,0,3.42-1.4,3.42-3.33s-1.4-3.33-3.42-3.33h-1.29v6.65h1.29Z"/><path class="cls-1" d="M226.1,9.24c.22,.26,.48,.5,.76,.7,.5,.35,1.18,.68,2.01,.68,1.11,0,1.66-.54,1.66-1.11,0-1.76-6.1-1.02-6.1-5.54,0-2.03,1.85-3.97,4.9-3.97,1.57,0,2.7,.46,3.44,.92,.42,.28,.79,.57,1.09,.92l-2.03,2.22c-.17-.18-.35-.35-.57-.5-.37-.28-.91-.52-1.55-.52-1.03,0-1.48,.46-1.48,.92,0,1.76,6.1,1.02,6.1,5.54,0,2.22-1.92,4.16-5.08,4.16-1.77,0-3.03-.54-3.9-1.11-.5-.31-.92-.68-1.28-1.11l2.03-2.22Z"/></g></g></svg>