<?xml version="1.0" encoding="utf-8"?>
<!-- Generator: Adobe Illustrator 26.5.0, SVG Export Plug-In . SVG Version: 6.00 Build 0)  -->
<svg version="1.1" id="Layer_3" xmlns="http://www.w3.org/2000/svg" xmlns:xlink="http://www.w3.org/1999/xlink" x="0px" y="0px"
	 viewBox="0 0 728 90" style="enable-background:new 0 0 728 90;" xml:space="preserve">
<style type="text/css">
	.st0{fill:#273B6B;}
</style>
<g>
	<path class="st0" d="M208.2,61.9h0.7l1.9,2.4l1.9-2.4h0.7v4.9h-0.8v-3.6l-1.8,2.3l-1.8-2.3v3.6h-0.8
		C208.2,66.8,208.2,61.9,208.2,61.9z"/>
	<path class="st0" d="M214.9,62c0.2,0,0.4,0.2,0.4,0.4s-0.2,0.4-0.4,0.4s-0.4-0.2-0.4-0.4S214.7,62,214.9,62z M214.6,63.5h0.7v3.4
		h-0.7V63.5z"/>
	<path class="st0" d="M216.3,63.5h0.7V64c0.1-0.1,0.1-0.2,0.3-0.3c0.2-0.1,0.4-0.3,0.8-0.3c0.8,0,1.3,0.5,1.3,1.5v2h-0.7v-2
		c0-0.5-0.3-0.8-0.8-0.8c-0.5,0-0.9,0.4-0.9,0.9v1.8h-0.7L216.3,63.5L216.3,63.5z"/>
	<path class="st0" d="M223.3,63.4c1,0,1.8,0.8,1.8,1.8s-0.8,1.8-1.8,1.8s-1.8-0.8-1.8-1.8S222.4,63.4,223.3,63.4z M224.4,65.2
		c0-0.6-0.5-1.1-1.1-1.1s-1.1,0.4-1.1,1.1s0.5,1.1,1.1,1.1S224.4,65.8,224.4,65.2z"/>
	<path class="st0" d="M225.9,63.5h0.7v0.5c0.1-0.1,0.2-0.2,0.3-0.3c0.2-0.1,0.4-0.3,0.8-0.3h0.2v0.7h-0.1c-0.1,0-0.1,0-0.2,0
		c-0.5,0-0.9,0.4-0.9,1v1.7h-0.7L225.9,63.5L225.9,63.5z"/>
	<path class="st0" d="M230.8,66.3c-0.1,0.1-0.2,0.2-0.3,0.3c-0.2,0.1-0.5,0.3-0.9,0.3c-0.8,0-1.6-0.7-1.6-1.8s0.7-1.8,1.6-1.8
		c0.4,0,0.7,0.1,0.9,0.3c0.1,0.1,0.2,0.2,0.3,0.3v-2h0.7v4.9h-0.7V66.3z M230.8,65.1c0-0.6-0.5-1.1-1-1.1s-1,0.4-1,1.1
		s0.5,1.1,1,1.1S230.8,65.8,230.8,65.1z"/>
	<path class="st0" d="M235.5,66.3c-0.1,0.1-0.2,0.2-0.4,0.3c-0.2,0.2-0.6,0.3-1.1,0.3c-1,0-1.8-0.8-1.8-1.8s0.8-1.8,1.7-1.8
		s1.6,0.7,1.6,1.7c0,0.1,0,0.2,0,0.2v0.1h-2.6c0.1,0.5,0.5,0.8,1.1,0.8c0.3,0,0.6-0.1,0.7-0.2c0.1-0.1,0.2-0.1,0.3-0.2L235.5,66.3
		L235.5,66.3z M235,64.8c-0.1-0.5-0.4-0.8-0.9-0.8c-0.5,0-0.8,0.3-1,0.8H235z"/>
	<path class="st0" d="M236.5,63.5h0.7v0.5c0.1-0.1,0.2-0.2,0.3-0.3c0.2-0.1,0.4-0.3,0.8-0.3h0.2v0.7h-0.1c-0.1,0-0.1,0-0.2,0
		c-0.5,0-0.9,0.4-0.9,1v1.7h-0.7L236.5,63.5L236.5,63.5z"/>
	<path class="st0" d="M240.6,65.6c0.1,0.1,0.2,0.2,0.3,0.3c0.2,0.1,0.5,0.3,0.9,0.3c0.6,0,1-0.3,1-0.7c0-1.1-2.6-0.4-2.6-2.2
		c0-0.7,0.5-1.2,1.3-1.3v-0.7h0.7v0.7c0.4,0.1,0.7,0.2,0.9,0.4c0.1,0.1,0.2,0.2,0.3,0.3l-0.5,0.5c-0.1-0.1-0.2-0.2-0.3-0.2
		c-0.2-0.1-0.4-0.2-0.8-0.2c-0.6,0-0.9,0.3-0.9,0.7c0,1.1,2.6,0.4,2.6,2.2c0,0.7-0.6,1.3-1.4,1.4v0.7h-0.7v-0.7
		c-0.5-0.1-0.8-0.2-1.1-0.4c-0.1-0.1-0.3-0.2-0.4-0.3L240.6,65.6L240.6,65.6z"/>
	<path class="st0" d="M247.4,66.1v0.7h-3.3c0-2.2,2.5-2.3,2.5-3.5c0-0.5-0.3-0.8-0.9-0.8c-0.4,0-0.6,0.2-0.8,0.3
		c-0.1,0.1-0.1,0.2-0.2,0.3l-0.6-0.3c0.1-0.2,0.2-0.4,0.3-0.6c0.2-0.3,0.6-0.6,1.3-0.6c1,0,1.6,0.7,1.6,1.5c0,1.4-1.8,1.6-2.4,2.7
		L247.4,66.1L247.4,66.1z"/>
	<path class="st0" d="M248.1,64.4c0-1.6,0.9-2.5,2-2.5s2,0.9,2,2.5c0,1.6-0.9,2.5-2,2.5S248.1,66,248.1,64.4z M250.1,62.6
		c-0.7,0-1.3,0.6-1.3,1.8s0.6,1.8,1.3,1.8s1.3-0.6,1.3-1.8S250.8,62.6,250.1,62.6z"/>
	<path class="st0" d="M252.9,66.4c0-0.2,0.2-0.5,0.5-0.5s0.5,0.2,0.5,0.5s-0.2,0.5-0.5,0.5S252.9,66.7,252.9,66.4z"/>
	<path class="st0" d="M255.7,61.9h0.8l1.5,3.9l1.5-3.9h0.8l-1.9,4.9h-0.8L255.7,61.9L255.7,61.9z"/>
	<path class="st0" d="M261.1,62c0.2,0,0.4,0.2,0.4,0.4s-0.2,0.4-0.4,0.4s-0.4-0.2-0.4-0.4S260.9,62,261.1,62z M260.8,63.5h0.7v3.4
		h-0.7V63.5z"/>
	<path class="st0" d="M262.6,65.8c0.1,0.1,0.1,0.2,0.2,0.2c0.2,0.1,0.4,0.2,0.6,0.2c0.4,0,0.6-0.2,0.6-0.4c0-0.6-1.8-0.3-1.8-1.5
		c0-0.5,0.5-1,1.2-1c0.4,0,0.7,0.1,0.9,0.2c0.1,0.1,0.2,0.1,0.3,0.2l-0.5,0.5c-0.1-0.1-0.1-0.1-0.2-0.1c-0.1-0.1-0.3-0.1-0.5-0.1
		c-0.4,0-0.5,0.2-0.5,0.3c0,0.6,1.8,0.3,1.8,1.5c0,0.6-0.5,1.1-1.3,1.1c-0.5,0-0.8-0.2-1-0.3c-0.1-0.1-0.2-0.2-0.3-0.3L262.6,65.8
		L262.6,65.8z"/>
	<path class="st0" d="M265.9,62c0.2,0,0.4,0.2,0.4,0.4s-0.2,0.4-0.4,0.4s-0.4-0.2-0.4-0.4S265.7,62,265.9,62z M265.6,63.5h0.7v3.4
		h-0.7V63.5z"/>
	<path class="st0" d="M267.6,64.1H267v-0.7h0.4c0.2,0,0.3-0.1,0.3-0.4v-0.7h0.6v1.1h0.8v0.7h-0.8v1.6c0,0.3,0.2,0.5,0.5,0.5
		c0.1,0,0.2,0,0.3-0.1l0.1-0.1v0.7l-0.1,0.1c-0.1,0-0.2,0.1-0.4,0.1c-0.7,0-1-0.4-1-1.1C267.6,65.8,267.6,64.1,267.6,64.1z"/>
	<path class="st0" d="M271.6,61.9h0.7v4.9h-0.7V61.9z"/>
	<path class="st0" d="M274.8,63.4c1,0,1.8,0.8,1.8,1.8s-0.8,1.8-1.8,1.8s-1.8-0.8-1.8-1.8S273.8,63.4,274.8,63.4z M275.9,65.2
		c0-0.6-0.5-1.1-1-1.1s-1,0.4-1,1.1s0.5,1.1,1,1.1S275.9,65.8,275.9,65.2z"/>
	<path class="st0" d="M277.3,63.5h0.7V64c0.1-0.1,0.1-0.2,0.3-0.3c0.2-0.1,0.4-0.3,0.8-0.3c0.8,0,1.3,0.5,1.3,1.5v2h-0.7v-2
		c0-0.5-0.3-0.8-0.8-0.8c-0.5,0-0.9,0.4-0.9,0.9v1.8h-0.7V63.5z"/>
	<path class="st0" d="M283.9,66.3c-0.1,0.1-0.2,0.2-0.3,0.3c-0.2,0.1-0.5,0.3-0.9,0.3c-0.8,0-1.6-0.7-1.6-1.8s0.7-1.8,1.6-1.8
		c0.4,0,0.7,0.1,0.9,0.3c0.1,0.1,0.2,0.2,0.3,0.3v-2h0.7v4.9h-0.7V66.3z M283.9,65.1c0-0.6-0.5-1.1-1-1.1s-1,0.4-1,1.1
		s0.5,1.1,1,1.1S283.9,65.8,283.9,65.1z"/>
	<path class="st0" d="M287.2,63.4c1,0,1.8,0.8,1.8,1.8s-0.8,1.8-1.8,1.8s-1.8-0.8-1.8-1.8S286.2,63.4,287.2,63.4z M288.2,65.2
		c0-0.6-0.5-1.1-1-1.1s-1,0.4-1,1.1s0.5,1.1,1,1.1S288.2,65.8,288.2,65.2z"/>
	<path class="st0" d="M289.7,63.5h0.7V64c0.1-0.1,0.1-0.2,0.3-0.3c0.2-0.1,0.4-0.3,0.8-0.3c0.8,0,1.3,0.5,1.3,1.5v2h-0.7v-2
		c0-0.5-0.3-0.8-0.8-0.8c-0.5,0-0.9,0.4-0.9,0.9v1.8h-0.7V63.5z"/>
	<path class="st0" d="M296.7,66.2c-0.1,0.1-0.2,0.2-0.4,0.3c-0.2,0.2-0.6,0.3-1.1,0.3c-1,0-1.8-0.8-1.8-1.8s0.8-1.8,1.8-1.8
		c0.5,0,0.8,0.2,1.1,0.3c0.1,0.1,0.2,0.2,0.3,0.3l-0.5,0.5c-0.1-0.1-0.1-0.2-0.2-0.2c-0.2-0.1-0.4-0.2-0.7-0.2c-0.6,0-1,0.4-1,1.1
		s0.5,1.1,1,1.1c0.3,0,0.5-0.1,0.7-0.2c0.1-0.1,0.2-0.2,0.2-0.2L296.7,66.2L296.7,66.2z"/>
	<path class="st0" d="M299.4,66.3c-0.1,0.1-0.2,0.2-0.3,0.3c-0.2,0.1-0.5,0.3-0.8,0.3c-0.7,0-1.1-0.5-1.1-1c0-0.6,0.4-0.9,1-1.1
		l1.2-0.2c0-0.4-0.3-0.6-0.7-0.6c-0.3,0-0.5,0.1-0.6,0.2c-0.1,0.1-0.2,0.1-0.2,0.2l-0.5-0.5c0.1-0.1,0.2-0.2,0.3-0.3
		c0.2-0.2,0.5-0.3,1-0.3c0.8,0,1.4,0.6,1.4,1.3v2.1h-0.7L299.4,66.3L299.4,66.3z M299.4,65.2l-1,0.2c-0.4,0.1-0.5,0.2-0.5,0.5
		c0,0.2,0.2,0.5,0.6,0.5c0.5,0,1-0.4,1-1V65.2L299.4,65.2z"/>
	<path class="st0" d="M301.1,61.9h0.7v4.9h-0.7V61.9z"/>
	<path class="st0" d="M302.8,61.9h0.7v4.9h-0.7V61.9z"/>
	<path class="st0" d="M304.9,62c0.2,0,0.4,0.2,0.4,0.4s-0.2,0.4-0.4,0.4s-0.4-0.2-0.4-0.4S304.7,62,304.9,62z M304.6,63.5h0.7v3.4
		h-0.7V63.5z"/>
	<path class="st0" d="M306.3,63.5h0.7V64c0.1-0.1,0.1-0.2,0.3-0.3c0.2-0.1,0.4-0.3,0.8-0.3c0.8,0,1.3,0.5,1.3,1.5v2h-0.7v-2
		c0-0.5-0.3-0.8-0.8-0.8c-0.5,0-0.9,0.4-0.9,0.9v1.8h-0.7V63.5z"/>
	<path class="st0" d="M310.7,67.2c0.1,0.1,0.2,0.2,0.2,0.2c0.2,0.1,0.4,0.2,0.7,0.2c0.6,0,1-0.4,1-1.1v-0.3
		c-0.1,0.1-0.2,0.2-0.3,0.3c-0.2,0.1-0.5,0.3-0.8,0.3c-0.8,0-1.5-0.7-1.5-1.7s0.7-1.7,1.5-1.7c0.4,0,0.6,0.1,0.8,0.3
		c0.1,0.1,0.2,0.2,0.3,0.3v-0.5h0.7v3.1c0,1-0.7,1.8-1.8,1.8c-0.5,0-0.8-0.2-1.1-0.3c-0.1-0.1-0.3-0.2-0.4-0.3L310.7,67.2
		L310.7,67.2z M312.7,65.1c0-0.6-0.4-1-1-1s-1,0.4-1,1s0.4,1,1,1S312.7,65.7,312.7,65.1z"/>
	<path class="st0" d="M314.2,66.4c0-0.2,0.2-0.5,0.5-0.5s0.5,0.2,0.5,0.5s-0.2,0.5-0.5,0.5S314.2,66.7,314.2,66.4z"/>
	<path class="st0" d="M318.9,66.2c-0.1,0.1-0.2,0.2-0.4,0.3c-0.2,0.2-0.6,0.3-1.1,0.3c-1,0-1.8-0.8-1.8-1.8s0.8-1.8,1.8-1.8
		c0.5,0,0.8,0.2,1.1,0.3c0.1,0.1,0.2,0.2,0.3,0.3l-0.5,0.5c-0.1-0.1-0.1-0.2-0.2-0.2c-0.2-0.1-0.4-0.2-0.7-0.2c-0.6,0-1,0.4-1,1.1
		s0.5,1.1,1,1.1c0.3,0,0.5-0.1,0.7-0.2c0.1-0.1,0.2-0.2,0.2-0.2L318.9,66.2L318.9,66.2z"/>
	<path class="st0" d="M321.1,63.4c1,0,1.8,0.8,1.8,1.8s-0.8,1.8-1.8,1.8s-1.8-0.8-1.8-1.8S320.1,63.4,321.1,63.4z M322.1,65.2
		c0-0.6-0.5-1.1-1-1.1s-1,0.4-1,1.1s0.5,1.1,1,1.1S322.1,65.8,322.1,65.2z"/>
	<path class="st0" d="M323.6,63.5h0.7V64c0.1-0.1,0.1-0.2,0.2-0.3c0.2-0.1,0.4-0.3,0.8-0.3s0.6,0.1,0.8,0.3c0.1,0.1,0.2,0.2,0.2,0.3
		c0.1-0.1,0.1-0.2,0.3-0.3c0.2-0.1,0.5-0.3,0.9-0.3c0.7,0,1.2,0.6,1.2,1.4v2H328v-2c0-0.5-0.3-0.8-0.7-0.8c-0.5,0-0.8,0.3-0.8,0.9
		v1.9h-0.7v-2c0-0.5-0.3-0.8-0.7-0.8c-0.5,0-0.8,0.3-0.8,0.9v1.9h-0.7L323.6,63.5L323.6,63.5z"/>
	<path class="st0" d="M331.4,64.1h-0.5v-0.7h0.5V63c0-0.7,0.4-1.1,1-1.1c0.2,0,0.3,0,0.4,0.1c0,0,0.1,0,0.1,0v0.7l-0.1,0
		c-0.1,0-0.2-0.1-0.3-0.1c-0.3,0-0.5,0.2-0.5,0.5v0.4h0.8v0.7h-0.8v2.7h-0.7L331.4,64.1L331.4,64.1z"/>
	<path class="st0" d="M335.1,63.4c1,0,1.8,0.8,1.8,1.8s-0.8,1.8-1.8,1.8s-1.8-0.8-1.8-1.8S334.1,63.4,335.1,63.4z M336.2,65.2
		c0-0.6-0.5-1.1-1-1.1s-1,0.4-1,1.1s0.5,1.1,1,1.1S336.2,65.8,336.2,65.2z"/>
	<path class="st0" d="M337.6,63.5h0.7v0.5c0.1-0.1,0.2-0.2,0.3-0.3c0.2-0.1,0.4-0.3,0.8-0.3h0.2v0.7h-0.1c-0.1,0-0.1,0-0.2,0
		c-0.5,0-0.9,0.4-0.9,1v1.7h-0.7L337.6,63.5L337.6,63.5z"/>
	<path class="st0" d="M341.8,64.1h-0.5v-0.7h0.5V63c0-0.7,0.4-1.1,1-1.1c0.2,0,0.3,0,0.4,0.1c0,0,0.1,0,0.1,0v0.7l-0.1,0
		c-0.1,0-0.2-0.1-0.3-0.1c-0.3,0-0.5,0.2-0.5,0.5v0.4h0.8v0.7h-0.8v2.7h-0.7L341.8,64.1L341.8,64.1z"/>
	<path class="st0" d="M344,63.5h0.7v2c0,0.5,0.3,0.8,0.8,0.8c0.5,0,0.9-0.4,0.9-0.9v-1.8h0.7v3.4h-0.7v-0.5
		c-0.1,0.1-0.2,0.2-0.3,0.3c-0.2,0.1-0.4,0.3-0.8,0.3c-0.8,0-1.3-0.6-1.3-1.5L344,63.5L344,63.5z"/>
	<path class="st0" d="M348,61.9h0.7v4.9H348V61.9z"/>
	<path class="st0" d="M349.8,61.9h0.7v4.9h-0.7V61.9z"/>
	<path class="st0" d="M354.1,62.7h-1.5v-0.7h3.7v0.7h-1.5v4.2h-0.8C354.1,66.8,354.1,62.7,354.1,62.7z"/>
	<path class="st0" d="M359.6,65.4c0-0.1,0.1-0.2,0.1-0.3c0.1-0.2,0.1-0.4,0.1-0.7h0.6c0,0.4-0.1,0.8-0.2,1.1
		c-0.1,0.2-0.1,0.3-0.2,0.4c0,0.1,0.1,0.1,0.1,0.2c0.1,0.1,0.2,0.2,0.4,0.2c0,0,0.1,0,0.1,0l0.1,0v0.6l-0.1,0c0,0-0.1,0-0.2,0
		c-0.3,0-0.5-0.1-0.6-0.2c-0.1-0.1-0.2-0.2-0.2-0.2c-0.1,0.1-0.2,0.2-0.4,0.3c-0.2,0.1-0.6,0.3-1,0.3c-0.9,0-1.4-0.6-1.4-1.3
		c0-0.5,0.2-0.8,0.5-1.1c0.1-0.1,0.3-0.2,0.5-0.3c-0.1-0.1-0.2-0.3-0.4-0.4c-0.2-0.2-0.4-0.6-0.4-0.9c0-0.6,0.5-1.1,1.2-1.1
		s1.2,0.5,1.2,1.1c0,0.4-0.2,0.7-0.4,1c-0.1,0.1-0.3,0.3-0.4,0.4L359.6,65.4L359.6,65.4z M358.2,64.7c-0.1,0.1-0.2,0.2-0.3,0.3
		c-0.2,0.2-0.3,0.4-0.3,0.7c0,0.3,0.3,0.7,0.8,0.7c0.3,0,0.5-0.1,0.6-0.2c0.1-0.1,0.2-0.1,0.2-0.2L358.2,64.7L358.2,64.7z
		 M358.5,63.6c0.1-0.2,0.3-0.4,0.3-0.6c0-0.3-0.2-0.5-0.5-0.5c-0.4,0-0.6,0.2-0.6,0.5c0,0.2,0.1,0.4,0.3,0.6
		c0.1,0.1,0.2,0.2,0.3,0.3C358.4,63.8,358.5,63.7,358.5,63.6z"/>
	<path class="st0" d="M365.8,65.9c-0.1,0.2-0.3,0.3-0.5,0.5c-0.3,0.2-0.8,0.5-1.5,0.5c-1.5,0-2.6-1.1-2.6-2.5s1.1-2.5,2.6-2.5
		c0.7,0,1.2,0.2,1.5,0.5c0.2,0.1,0.4,0.3,0.5,0.5l-0.5,0.5c-0.1-0.1-0.2-0.3-0.4-0.4c-0.2-0.2-0.6-0.4-1.1-0.4c-1,0-1.8,0.8-1.8,1.8
		c0,1,0.8,1.8,1.8,1.8c0.5,0,0.9-0.2,1.1-0.4c0.1-0.1,0.3-0.2,0.4-0.4L365.8,65.9L365.8,65.9z"/>
	<path class="st0" d="M366.7,65.8c0.1,0.1,0.1,0.2,0.2,0.2c0.2,0.1,0.4,0.2,0.6,0.2c0.4,0,0.6-0.2,0.6-0.4c0-0.6-1.8-0.3-1.8-1.5
		c0-0.5,0.5-1,1.2-1c0.4,0,0.7,0.1,0.9,0.2c0.1,0.1,0.2,0.1,0.3,0.2l-0.5,0.5c-0.1-0.1-0.1-0.1-0.2-0.1c-0.1-0.1-0.3-0.1-0.5-0.1
		c-0.4,0-0.5,0.2-0.5,0.3c0,0.6,1.8,0.3,1.8,1.5c0,0.6-0.5,1.1-1.3,1.1c-0.5,0-0.8-0.2-1-0.3c-0.1-0.1-0.2-0.2-0.3-0.3L366.7,65.8
		L366.7,65.8z"/>
	<path class="st0" d="M369.4,66.4c0-0.2,0.2-0.5,0.5-0.5s0.5,0.2,0.5,0.5s-0.2,0.5-0.5,0.5S369.4,66.7,369.4,66.4z"/>
	<path class="st0" d="M214.3,69.8h0.7l2.7,3.6v-3.6h0.8v4.9h-0.7l-2.7-3.6v3.6h-0.8V69.8z"/>
	<path class="st0" d="M219.9,73.5c0.1,0.1,0.2,0.2,0.3,0.3c0.2,0.1,0.5,0.3,0.9,0.3c0.6,0,1-0.3,1-0.7c0-1.1-2.6-0.4-2.6-2.2
		c0-0.7,0.6-1.4,1.7-1.4c0.5,0,0.9,0.2,1.1,0.3c0.1,0.1,0.3,0.2,0.4,0.3l-0.5,0.5c-0.1-0.1-0.2-0.2-0.3-0.2
		c-0.2-0.1-0.4-0.2-0.8-0.2c-0.6,0-0.9,0.3-0.9,0.7c0,1.1,2.6,0.4,2.6,2.2c0,0.8-0.7,1.4-1.8,1.4c-0.6,0-1-0.2-1.3-0.4
		c-0.2-0.1-0.3-0.2-0.4-0.4L219.9,73.5L219.9,73.5z"/>
	<path class="st0" d="M223.1,69.8h0.8l1.2,3.7l1.2-3.7h0.8l1.2,3.7l1.2-3.7h0.8l-1.6,4.9h-0.8l-1.2-3.7l-1.2,3.7h-0.8L223.1,69.8
		L223.1,69.8z"/>
	<path class="st0" d="M233.2,70.5h-1.5v-0.7h3.7v0.7H234v4.2h-0.8V70.5z"/>
	<path class="st0" d="M236.3,69.8h2c0.9,0,1.6,0.7,1.6,1.6s-0.7,1.6-1.6,1.6h-1.2v1.8h-0.8V69.8L236.3,69.8z M238.2,72.2
		c0.5,0,0.9-0.4,0.9-0.9s-0.4-0.9-0.9-0.9h-1.2v1.8L238.2,72.2L238.2,72.2z"/>
	<path class="st0" d="M242.3,69.7h0.6l-2.1,6.4h-0.6L242.3,69.7z"/>
	<path class="st0" d="M243.3,72.2c0-1.6,0.9-2.5,2-2.5s2,0.9,2,2.5s-0.9,2.5-2,2.5S243.3,73.8,243.3,72.2z M245.4,70.4
		c-0.7,0-1.3,0.6-1.3,1.8s0.6,1.8,1.3,1.8s1.3-0.6,1.3-1.8S246,70.4,245.4,70.4z"/>
	<path class="st0" d="M251.3,73.9v0.7H248c0-2.2,2.5-2.3,2.5-3.5c0-0.5-0.3-0.8-0.9-0.8c-0.4,0-0.6,0.2-0.8,0.3
		c-0.1,0.1-0.1,0.2-0.2,0.3l-0.6-0.3c0.1-0.2,0.2-0.4,0.3-0.6c0.2-0.3,0.6-0.6,1.3-0.6c1,0,1.6,0.7,1.6,1.5c0,1.4-1.8,1.7-2.4,2.7
		L251.3,73.9L251.3,73.9z"/>
	<path class="st0" d="M252.1,72.2c0-1.6,0.9-2.5,2-2.5s2,0.9,2,2.5s-0.9,2.5-2,2.5S252.1,73.8,252.1,72.2L252.1,72.2z M254.1,70.4
		c-0.7,0-1.3,0.6-1.3,1.8s0.6,1.8,1.3,1.8s1.3-0.6,1.3-1.8S254.8,70.4,254.1,70.4z"/>
	<path class="st0" d="M258.6,69.8h0.8l-1.1,1.7h0.1c0,0,0.1,0,0.2,0c1,0,1.7,0.7,1.7,1.7s-0.7,1.7-1.8,1.7s-1.8-0.7-1.8-1.7
		c0-0.3,0.1-0.6,0.2-0.8c0-0.1,0.1-0.2,0.2-0.3L258.6,69.8L258.6,69.8z M258.6,74c0.6,0,1-0.4,1-0.9s-0.4-0.9-1-0.9s-1,0.4-1,0.9
		S258,74,258.6,74z"/>
	<path class="st0" d="M264.2,73.9v0.7h-3.3c0-2.2,2.5-2.3,2.5-3.5c0-0.5-0.3-0.8-0.9-0.8c-0.4,0-0.6,0.2-0.8,0.3
		c-0.1,0.1-0.1,0.2-0.2,0.3l-0.6-0.3c0.1-0.2,0.2-0.4,0.3-0.6c0.2-0.3,0.6-0.6,1.3-0.6c1,0,1.6,0.7,1.6,1.5c0,1.4-1.8,1.7-2.4,2.7
		L264.2,73.9L264.2,73.9z"/>
	<path class="st0" d="M264.9,74.3c0-0.2,0.2-0.5,0.5-0.5s0.5,0.2,0.5,0.5s-0.2,0.5-0.5,0.5S264.9,74.5,264.9,74.3z"/>
	<path class="st0" d="M269.6,69.8h0.8l2,4.9h-0.8l-0.5-1.3h-2.2l-0.5,1.3h-0.8L269.6,69.8z M270.8,72.7l-0.8-2l-0.8,2H270.8
		L270.8,72.7z"/>
	<path class="st0" d="M277.4,73.8c-0.1,0.2-0.3,0.3-0.5,0.5c-0.3,0.2-0.8,0.5-1.5,0.5c-1.5,0-2.6-1.1-2.6-2.5s1.1-2.5,2.6-2.5
		c0.7,0,1.2,0.2,1.5,0.5c0.2,0.1,0.4,0.3,0.5,0.5l-0.5,0.5c-0.1-0.1-0.2-0.3-0.4-0.4c-0.2-0.2-0.6-0.4-1.1-0.4c-1,0-1.8,0.8-1.8,1.8
		s0.8,1.8,1.8,1.8c0.5,0,0.9-0.2,1.1-0.4c0.1-0.1,0.3-0.2,0.4-0.4L277.4,73.8L277.4,73.8z"/>
	<path class="st0" d="M279.2,70.5h-1.5v-0.7h3.7v0.7h-1.5v4.2h-0.8V70.5z"/>
	<path class="st0" d="M284.4,70.5H283v-0.7h3.7v0.7h-1.5v4.2h-0.8V70.5z"/>
	<path class="st0" d="M287.5,69.8h2c1,0,1.6,0.7,1.6,1.6s-0.7,1.6-1.6,1.6h-1.2v1.8h-0.8V69.8L287.5,69.8z M289.5,72.2
		c0.5,0,0.9-0.4,0.9-0.9s-0.4-0.9-0.9-0.9h-1.2v1.8L289.5,72.2L289.5,72.2z"/>
	<path class="st0" d="M296.2,73.9v0.7h-3.3c0-2.2,2.5-2.3,2.5-3.5c0-0.5-0.3-0.8-0.9-0.8c-0.4,0-0.6,0.2-0.8,0.3
		c-0.1,0.1-0.1,0.2-0.2,0.3l-0.6-0.3c0.1-0.2,0.2-0.4,0.3-0.6c0.2-0.3,0.6-0.6,1.3-0.6c1,0,1.6,0.7,1.6,1.5c0,1.4-1.8,1.7-2.4,2.7
		L296.2,73.9L296.2,73.9z"/>
	<path class="st0" d="M300.1,73.9v0.7h-3.3c0-2.2,2.5-2.3,2.5-3.5c0-0.5-0.3-0.8-0.9-0.8c-0.4,0-0.6,0.2-0.8,0.3
		c-0.1,0.1-0.1,0.2-0.2,0.3l-0.6-0.3c0.1-0.2,0.2-0.4,0.3-0.6c0.2-0.3,0.6-0.6,1.3-0.6c1,0,1.6,0.7,1.6,1.5c0,1.4-1.8,1.7-2.4,2.7
		L300.1,73.9L300.1,73.9z"/>
	<path class="st0" d="M302.6,69.7h0.6l-2.1,6.4h-0.6L302.6,69.7z"/>
	<path class="st0" d="M303.6,72.2c0-1.6,0.9-2.5,2-2.5s2,0.9,2,2.5s-0.9,2.5-2,2.5S303.6,73.8,303.6,72.2z M305.7,70.4
		c-0.7,0-1.3,0.6-1.3,1.8s0.6,1.8,1.3,1.8s1.3-0.6,1.3-1.8S306.3,70.4,305.7,70.4z"/>
	<path class="st0" d="M309.2,70.9h-0.9v-0.5c0.6-0.1,0.9-0.3,1-0.7h0.6v4.9h-0.8L309.2,70.9L309.2,70.9z"/>
	<path class="st0" d="M311.5,73.5c0.1,0.1,0.2,0.2,0.3,0.3c0.2,0.1,0.5,0.3,0.9,0.3c0.6,0,1-0.4,1-0.9s-0.4-0.9-1-0.9
		c-0.3,0-0.5,0.1-0.7,0.2c-0.1,0.1-0.2,0.2-0.2,0.2l-0.6-0.1l0.2-2.8h2.8v0.7H312l-0.1,1.2c0.1,0,0.1-0.1,0.2-0.1
		c0.1-0.1,0.3-0.1,0.6-0.1c1,0,1.6,0.7,1.6,1.7s-0.7,1.7-1.8,1.7c-0.6,0-1-0.2-1.3-0.4c-0.2-0.1-0.3-0.2-0.4-0.4L311.5,73.5
		L311.5,73.5z"/>
	<path class="st0" d="M318.2,73.9v0.7h-3.3c0-2.2,2.5-2.3,2.5-3.5c0-0.5-0.3-0.8-0.9-0.8c-0.4,0-0.6,0.2-0.8,0.3
		c-0.1,0.1-0.1,0.2-0.2,0.3l-0.6-0.3c0.1-0.2,0.2-0.4,0.3-0.6c0.2-0.3,0.6-0.6,1.3-0.6c1,0,1.6,0.7,1.6,1.5c0,1.4-1.8,1.7-2.4,2.7
		L318.2,73.9L318.2,73.9z"/>
	<path class="st0" d="M319.7,70.9h-0.9v-0.5c0.6-0.1,0.9-0.3,1-0.7h0.6v4.9h-0.8L319.7,70.9L319.7,70.9z"/>
	<path class="st0" d="M321.5,74.3c0-0.2,0.2-0.5,0.5-0.5s0.5,0.2,0.5,0.5s-0.2,0.5-0.5,0.5S321.5,74.5,321.5,74.3z"/>
	<path class="st0" d="M324.9,73.5c0.1,0.1,0.2,0.2,0.3,0.3c0.2,0.1,0.5,0.3,0.9,0.3c0.6,0,1-0.3,1-0.7c0-1.1-2.6-0.4-2.6-2.2
		c0-0.7,0.6-1.4,1.7-1.4c0.5,0,0.9,0.2,1.1,0.3c0.1,0.1,0.3,0.2,0.4,0.3l-0.5,0.5c-0.1-0.1-0.2-0.2-0.3-0.2
		c-0.2-0.1-0.4-0.2-0.8-0.2c-0.6,0-0.9,0.3-0.9,0.7c0,1.1,2.6,0.4,2.6,2.2c0,0.8-0.7,1.4-1.8,1.4c-0.6,0-1-0.2-1.3-0.4
		c-0.2-0.1-0.3-0.2-0.4-0.4L324.9,73.5L324.9,73.5z"/>
	<path class="st0" d="M330.2,69.8h0.8l2,4.9h-0.8l-0.5-1.3h-2.2l-0.5,1.3h-0.8L330.2,69.8z M331.4,72.7l-0.8-2l-0.8,2H331.4
		L331.4,72.7z"/>
	<path class="st0" d="M335.9,70.5h-1.5v-0.7h3.7v0.7h-1.5v4.2h-0.8V70.5z"/>
	<path class="st0" d="M341.9,73.9v0.7h-3.3c0-2.2,2.5-2.3,2.5-3.5c0-0.5-0.3-0.8-0.9-0.8c-0.4,0-0.6,0.2-0.8,0.3
		c-0.1,0.1-0.1,0.2-0.2,0.3l-0.6-0.3c0.1-0.2,0.2-0.4,0.3-0.6c0.2-0.3,0.6-0.6,1.3-0.6c1,0,1.6,0.7,1.6,1.5c0,1.4-1.8,1.7-2.4,2.7
		L341.9,73.9L341.9,73.9z"/>
	<path class="st0" d="M345.8,73.9v0.7h-3.3c0-2.2,2.5-2.3,2.5-3.5c0-0.5-0.3-0.8-0.9-0.8c-0.4,0-0.6,0.2-0.8,0.3
		c-0.1,0.1-0.1,0.2-0.2,0.3l-0.6-0.3c0.1-0.2,0.2-0.4,0.3-0.6c0.2-0.3,0.6-0.6,1.3-0.6c1,0,1.6,0.7,1.6,1.5c0,1.4-1.8,1.7-2.4,2.7
		L345.8,73.9L345.8,73.9z"/>
	<path class="st0" d="M348.3,69.7h0.6l-2.1,6.4h-0.6L348.3,69.7z"/>
	<path class="st0" d="M350,70.9h-0.9v-0.5c0.6-0.1,0.9-0.3,1-0.7h0.6v4.9H350L350,70.9L350,70.9z"/>
	<path class="st0" d="M352.6,70.9h-0.9v-0.5c0.6-0.1,0.9-0.3,1-0.7h0.6v4.9h-0.8L352.6,70.9L352.6,70.9z"/>
	<path class="st0" d="M356.4,73L356.4,73c-0.1,0-0.2,0-0.3,0c-1,0-1.7-0.7-1.7-1.7s0.7-1.7,1.8-1.7s1.8,0.7,1.8,1.7
		c0,0.3-0.1,0.6-0.2,0.8c0,0.1-0.1,0.2-0.2,0.3l-1.4,2.2h-0.8L356.4,73L356.4,73z M356.1,72.3c0.6,0,1-0.4,1-0.9s-0.4-0.9-1-0.9
		s-1,0.4-1,0.9S355.6,72.3,356.1,72.3z"/>
	<path class="st0" d="M358.6,72.2c0-1.6,0.9-2.5,2-2.5s2,0.9,2,2.5s-0.9,2.5-2,2.5S358.6,73.8,358.6,72.2z M360.6,70.4
		c-0.7,0-1.3,0.6-1.3,1.8s0.6,1.8,1.3,1.8s1.3-0.6,1.3-1.8S361.3,70.4,360.6,70.4z"/>
	<path class="st0" d="M363.3,74.3c0-0.2,0.2-0.5,0.5-0.5s0.5,0.2,0.5,0.5s-0.2,0.5-0.5,0.5S363.3,74.5,363.3,74.3z"/>
</g>
</svg>
