<?xml version="1.0" encoding="utf-8"?>
<!-- Generator: Adobe Illustrator 26.5.0, SVG Export Plug-In . SVG Version: 6.00 Build 0)  -->
<svg version="1.1" id="Layer_3" xmlns="http://www.w3.org/2000/svg" xmlns:xlink="http://www.w3.org/1999/xlink" x="0px" y="0px"
	 viewBox="0 0 728 90" style="enable-background:new 0 0 728 90;" xml:space="preserve">
<style type="text/css">
	.st0{fill:#27346B;}
</style>
<g>
	<g>
		<path class="st0" d="M310.8,13.7c-7.9,0-15.2,1-15.2,1v24.3c0,3.2,1.3,5.6,3.7,7l11.5,6.6l11.5-6.6c2.4-1.4,3.7-3.7,3.7-7V14.6
			C326,14.6,318.7,13.7,310.8,13.7L310.8,13.7z M325,38.9v0.2c0,0.2,0,0.4,0,0.6c-0.2,2.5-1.2,4.2-3.2,5.4l-11,6.4l-11-6.4
			c-2-1.1-3-2.9-3.2-5.4l0,0c0-0.2,0-0.3,0-0.6v-3.8l0,0v-6.8l0,0V15.5c0,0,6.9-0.9,14.2-0.9s14.2,0.9,14.2,0.9L325,38.9L325,38.9z"
			/>
		<path class="st0" d="M297.5,16.4V29l13.3,7.7L324,29V16.4c0,0-6.6-0.8-13.3-0.8S297.5,16.4,297.5,16.4z M315.6,18.9h2V25h4v1.8
			h-4.8c0,0-0.6-0.8-1.3-1.5C315.6,25.2,315.6,18.8,315.6,18.9z M314.6,21.6c0,1-0.4,1.9-1.2,2.4c0.3,0.3,2.4,2.8,2.4,2.8h-2.5
			l-1.9-2.4h-1v2.4h-2v-5.3h2v1.2h1.2c0.7,0,1.1-0.4,1.1-1.1c0-0.7-0.4-1.1-1.2-1.1h-4.3v6.2h-1.9l-2.8-4.4h0v4.4h-1.9v-7.9h1.9
			l2.7,4.4h0v-4.4h6.4C313.5,18.8,314.6,19.9,314.6,21.6L314.6,21.6z"/>
		<polygon class="st0" points="297.5,33.4 297.5,35.8 310.8,43.5 324,35.8 324,33.4 310.8,41.1 		"/>
		<path class="st0" d="M297.6,40.3c0.3,1.8,1.1,3.1,2.6,3.9l10.5,6.1l10.5-6.1c1.5-0.9,2.4-2.2,2.6-3.9l-13.2,7.6L297.6,40.3
			L297.6,40.3z"/>
	</g>
	<g>
		<path class="st0" d="M342.9,21.7c2,0,3.5,1.5,3.5,3.4s-1.5,3.4-3.5,3.4s-3.5-1.5-3.5-3.4S340.9,21.7,342.9,21.7z M342.9,27.2
			c1.2,0,2.1-0.9,2.1-2.1S344,23,342.9,23s-2.1,0.9-2.1,2.1S341.7,27.2,342.9,27.2z"/>
		<path class="st0" d="M348,21.8h4.8v1.3h-3.4v1.5h2.7V26h-2.7v2.4H348C348,28.3,348,21.8,348,21.8z"/>
		<path class="st0" d="M354.1,21.8h4.8v1.3h-3.4v1.5h2.7V26h-2.7v2.4h-1.4C354.1,28.3,354.1,21.8,354.1,21.8z"/>
		<path class="st0" d="M360.3,21.8h1.4v6.5h-1.4V21.8z"/>
		<path class="st0" d="M369.6,27.2c-0.2,0.2-0.4,0.5-0.7,0.6c-0.5,0.3-1.2,0.6-2.1,0.6c-2,0-3.5-1.5-3.5-3.4s1.5-3.4,3.5-3.4
			c0.9,0,1.6,0.3,2.1,0.6c0.3,0.2,0.5,0.4,0.7,0.6l-0.9,0.9c-0.1-0.2-0.3-0.3-0.5-0.5c-0.3-0.2-0.8-0.5-1.3-0.5
			c-1.2,0-2.1,0.9-2.1,2.1s0.9,2.1,2.1,2.1c0.6,0,1.1-0.2,1.4-0.5c0.2-0.1,0.4-0.3,0.5-0.5L369.6,27.2L369.6,27.2z"/>
		<path class="st0" d="M370.9,21.8h1.4v6.5h-1.4V21.8z"/>
		<path class="st0" d="M375.9,21.8h1.6l2.5,6.5h-1.5l-0.6-1.5h-2.5l-0.6,1.5h-1.5L375.9,21.8L375.9,21.8z M377.5,25.6l-0.8-2.1h0
			l-0.8,2.1H377.5L377.5,25.6z"/>
		<path class="st0" d="M381.1,21.8h1.4V27h3v1.3h-4.4V21.8z"/>
		<path class="st0" d="M388.9,21.8h2.4c2,0,3.5,1.5,3.5,3.3s-1.5,3.3-3.5,3.3h-2.4V21.8z M391.3,27c1.2,0,2-0.8,2-2s-0.8-2-2-2h-1
			V27C390.3,27,391.3,27,391.3,27z"/>
		<path class="st0" d="M396.3,21.8h4.9v1.3h-3.5v1.3h2.7v1.3h-2.7V27h3.5v1.3h-5L396.3,21.8L396.3,21.8z"/>
		<path class="st0" d="M402.8,21.8h1.4V27h3v1.3h-4.4V21.8z"/>
		<path class="st0" d="M408.5,21.8h1.4v6.5h-1.4V21.8z"/>
		<path class="st0" d="M411,21.8h1.5l1.7,4.8h0l1.7-4.8h1.5l-2.4,6.5h-1.6L411,21.8L411,21.8z"/>
		<path class="st0" d="M418.6,21.8h4.9v1.3H420v1.3h2.7v1.3H420V27h3.5v1.3h-5L418.6,21.8L418.6,21.8z"/>
		<path class="st0" d="M425.2,21.8h2.9c1.4,0,2.3,0.9,2.3,2.2c0,0.8-0.3,1.2-0.6,1.5c-0.2,0.2-0.4,0.3-0.6,0.4l1.4,2.4h-1.5
			l-1.2-2.1h-1.3v2.1h-1.4L425.2,21.8L425.2,21.8z M428.1,24.9c0.5,0,0.9-0.4,0.9-0.9s-0.4-0.9-0.9-0.9h-1.5v1.8L428.1,24.9
			L428.1,24.9z"/>
		<path class="st0" d="M433.4,26l-2.5-4.2h1.6l1.5,2.8h0l1.5-2.8h1.6l-2.5,4.2v2.3h-1.4C433.4,28.3,433.4,26,433.4,26z"/>
		<path class="st0" d="M339.7,31.2h2.8c1.4,0,2.3,0.9,2.3,2.2s-0.9,2.2-2.3,2.2h-1.4v2.2h-1.4V31.2L339.7,31.2z M342.4,34.3
			c0.6,0,0.9-0.4,0.9-0.9s-0.4-0.9-0.9-0.9h-1.3v1.8L342.4,34.3L342.4,34.3z"/>
		<path class="st0" d="M347.6,31.2h1.6l2.5,6.5h-1.5l-0.6-1.5h-2.5l-0.6,1.5h-1.5L347.6,31.2L347.6,31.2z M349.2,35l-0.8-2.2h0
			l-0.8,2.2H349.2L349.2,35z"/>
		<path class="st0" d="M352.9,31.2h2.9c1.4,0,2.3,0.9,2.3,2.2c0,0.8-0.3,1.2-0.6,1.5c-0.2,0.2-0.4,0.3-0.6,0.4l1.4,2.4h-1.5
			l-1.2-2.2h-1.3v2.2h-1.4L352.9,31.2L352.9,31.2z M355.7,34.3c0.5,0,0.9-0.4,0.9-0.9s-0.4-0.9-0.9-0.9h-1.5v1.8L355.7,34.3
			L355.7,34.3z"/>
		<path class="st0" d="M360.9,32.5h-1.9v-1.3h5.1v1.3h-1.9v5.2h-1.4L360.9,32.5L360.9,32.5z"/>
		<path class="st0" d="M365.4,31.2h1.3l3.2,4.1v-4.1h1.4v6.5H370l-3.2-4.1v4.1h-1.4V31.2z"/>
		<path class="st0" d="M373.2,31.2h4.9v1.3h-3.5v1.3h2.7v1.3h-2.7v1.4h3.5v1.3h-5L373.2,31.2L373.2,31.2z"/>
		<path class="st0" d="M379.7,31.2h2.9c1.4,0,2.3,0.9,2.3,2.2c0,0.8-0.3,1.2-0.6,1.5c-0.2,0.2-0.4,0.3-0.6,0.4l1.4,2.4h-1.5
			l-1.2-2.2h-1.3v2.2h-1.4L379.7,31.2L379.7,31.2z M382.6,34.3c0.5,0,0.9-0.4,0.9-0.9s-0.4-0.9-0.9-0.9h-1.5v1.8L382.6,34.3
			L382.6,34.3z"/>
		<path class="st0" d="M391.8,31.1c2,0,3.5,1.5,3.5,3.4s-1.5,3.4-3.5,3.4s-3.5-1.5-3.5-3.4S389.7,31.1,391.8,31.1z M391.8,36.6
			c1.2,0,2.1-0.9,2.1-2.1s-0.9-2.1-2.1-2.1s-2.1,0.9-2.1,2.1S390.6,36.6,391.8,36.6z"/>
		<path class="st0" d="M396.8,31.2h4.8v1.3h-3.4v1.5h2.7v1.3h-2.7v2.4h-1.4C396.8,37.8,396.8,31.2,396.8,31.2z"/>
		<path class="st0" d="M406.3,32.5h-1.9v-1.3h5.1v1.3h-1.9v5.2h-1.4L406.3,32.5L406.3,32.5z"/>
		<path class="st0" d="M410.8,31.2h1.4v2.6h2.8v-2.6h1.4v6.5H415v-2.7h-2.8v2.7h-1.4V31.2z"/>
		<path class="st0" d="M418.3,31.2h4.9v1.3h-3.5v1.3h2.7v1.3h-2.7v1.4h3.5v1.3h-5L418.3,31.2L418.3,31.2z"/>
		<path class="st0" d="M426.8,31.2h1.3l3.2,4.1v-4.1h1.4v6.5h-1.3l-3.2-4.1v4.1h-1.4V31.2z"/>
		<path class="st0" d="M434.6,31.2h2.9c1.4,0,2.3,0.9,2.3,2.2c0,0.8-0.3,1.2-0.6,1.5c-0.2,0.2-0.4,0.3-0.6,0.4l1.4,2.4h-1.5
			l-1.2-2.2H436v2.2h-1.4L434.6,31.2L434.6,31.2z M437.5,34.3c0.5,0,0.9-0.4,0.9-0.9s-0.4-0.9-0.9-0.9H436v1.8L437.5,34.3
			L437.5,34.3z"/>
		<path class="st0" d="M441.5,31.2h1.4v5.2h3v1.3h-4.4V31.2z"/>
	</g>
</g>
</svg>
