<?xml version="1.0" encoding="utf-8"?>
<!-- Generator: Adobe Illustrator 26.0.2, SVG Export Plug-In . SVG Version: 6.00 Build 0)  -->
<svg version="1.1" id="Layer_1" xmlns="http://www.w3.org/2000/svg" xmlns:xlink="http://www.w3.org/1999/xlink" x="0px" y="0px"
	 viewBox="0 0 300 250" style="enable-background:new 0 0 300 250;" xml:space="preserve">
<style type="text/css">
	.st0{fill:#FFFFFF;}
</style>
<g>
	<g>
		<path class="st0" d="M34.4,44.4c0,2.8-1.4,4.3-4.3,4.3h-6c-0.4,0.1-0.8-0.1-1.1-0.3c-0.2-0.4-0.3-0.9-0.2-1.3v-1.4
			c0-0.8,0.1-1.3,0.4-1.5c0.3-0.1,0.6-0.2,0.9-0.1h4.1c0.5,0.1,1-0.3,1.1-0.8c0-0.1,0-0.2,0-0.3c0-0.3-0.1-0.6-0.2-0.9l-4.5-8.5
			c-1.1-2-1.8-4.3-1.8-6.6c-0.1-1.4,0.3-2.8,1.2-3.8c1.1-0.8,2.4-1.2,3.7-1h4.6c0.7,0,1.1,0.5,1.1,1.5v1.8c0,1-0.4,1.5-1.2,1.5h-3.6
			c-0.8,0-1.2,0.4-1.2,1.1c0,0.4,0.1,0.8,0.4,1.2l4.3,7.9C33.6,40,34.4,42.4,34.4,44.4z"/>
		<path class="st0" d="M48.7,46.9c0,1.2-0.4,1.8-1.3,1.8h-2.1c-0.8,0-1.2-0.6-1.2-1.7v-9.2c0-0.6-0.2-0.8-0.6-0.8h-2.4
			c-0.4,0-0.7,0.3-0.7,0.8V47c0,1.2-0.4,1.7-1.2,1.7h-2.1c-0.9,0-1.3-0.6-1.3-1.8V23.7c0-1.1,0.4-1.7,1.3-1.7h2.2
			c0.8,0,1.2,0.6,1.2,1.7v7.7c0,0.5,0.2,0.8,0.6,0.8h2.5c0.4,0,0.6-0.3,0.6-0.8v-7.7c0-1.1,0.4-1.7,1.2-1.7h2.1
			c0.9,0,1.3,0.6,1.3,1.7L48.7,46.9z"/>
		<path class="st0" d="M63.2,35.3c0,5-0.3,8.2-0.8,9.9c-0.9,2.6-2.7,3.9-5.6,3.9c-2.9,0-4.8-1.3-5.7-3.9c-0.5-1.6-0.8-4.9-0.8-9.9
			c0-4.9,0.3-8.2,0.8-9.8c0.8-2.5,2.7-3.8,5.7-3.8s4.8,1.3,5.6,3.8C63,27.1,63.2,30.4,63.2,35.3z M58.6,35.3c0.1-2.3,0-4.6-0.2-6.9
			c-0.2-1.1-0.7-1.6-1.5-1.6c-0.8,0-1.3,0.5-1.5,1.6C55,30.7,55,33,55,35.3c-0.1,2.3,0,4.7,0.2,7c0.2,1.1,0.7,1.7,1.5,1.7
			s1.3-0.6,1.5-1.7C58.5,40,58.6,37.6,58.6,35.3z"/>
		<path class="st0" d="M77.8,48.1c0,0.4-0.2,0.6-0.7,0.6h-3.1c-0.6,0-1-0.4-1.1-1.2l-1.6-9.6c0-0.2-0.2-0.3-0.5-0.3h-0.6
			c-0.3,0-0.4,0.1-0.4,0.3V47c0,1.1-0.4,1.7-1.3,1.7h-2.2c-0.6,0-1-0.2-1.2-0.6C65,47.7,65,47.4,65,47V23.8c0-1.2,0.5-1.8,1.4-1.8
			h5.7c3.7,0,5.5,2.7,5.5,8.2c0,2.8-0.7,4.8-2.2,6l2.3,11.4C77.7,47.8,77.8,47.9,77.8,48.1z M72.9,29.6c0-1.9-0.5-2.9-1.4-2.9h-1.3
			c-0.3,0-0.5,0.2-0.5,0.5v4.8c0,0.5,0.1,0.7,0.4,0.7h1.3C72.4,32.8,72.9,31.8,72.9,29.6z"/>
		<path class="st0" d="M90.4,25.1c0,0.9-0.2,1.5-0.7,1.6c-0.2,0-0.4,0.1-0.5,0.1h-2.1c-0.3,0-0.5,0.3-0.5,0.8v19.4
			c0,0.5,0,1-0.2,1.4c-0.2,0.2-0.5,0.4-1,0.4h-2.1c-0.7,0-1.2-0.3-1.3-0.8c-0.1-0.3-0.1-0.6-0.1-0.9V27.5c0-0.5-0.2-0.8-0.5-0.8
			h-2.1c-0.3,0-0.6-0.1-0.9-0.2c-0.3-0.4-0.4-0.9-0.3-1.4v-1.4c0-0.9,0.2-1.4,0.5-1.6c0.3-0.1,0.5-0.2,0.8-0.2h9.8
			c0.9,0,1.3,0.5,1.3,1.6L90.4,25.1z"/>
		<path class="st0" d="M107.8,44.4c0,2.8-1.4,4.3-4.3,4.3h-6c-0.4,0.1-0.8-0.1-1.1-0.3c-0.2-0.4-0.3-0.9-0.2-1.3v-1.4
			c0-0.8,0.1-1.3,0.4-1.5c0.3-0.1,0.6-0.2,0.9-0.2h4.1c0.5,0.1,1-0.3,1.1-0.8c0-0.1,0-0.2,0-0.3c0-0.3-0.1-0.6-0.2-0.9l-4.5-8.5
			c-1.2-2-1.8-4.3-1.8-6.6c-0.1-1.4,0.3-2.8,1.2-3.8c1.1-0.8,2.4-1.2,3.7-1h4.6c0.7,0,1.1,0.5,1.1,1.5v1.8c0,1-0.4,1.5-1.2,1.5h-3.6
			c-0.8,0-1.2,0.4-1.2,1.1c0,0.4,0.1,0.8,0.3,1.2l4.3,7.9C107,40,107.8,42.4,107.8,44.4z"/>
		<path class="st0" d="M129.3,23.5l-4.2,24.1c-0.1,0.8-0.5,1.2-1.1,1.2h-3.1c-0.3,0-0.6-0.1-0.9-0.3c-0.2-0.3-0.3-0.6-0.3-0.9
			l-1.1-8.9c0-0.3-0.1-0.5-0.2-0.5s-0.2,0.2-0.3,0.5l-2.2,9.4c-0.1,0.5-0.6,0.9-1.1,0.8h-2.6c-0.6,0-0.9-0.3-1-1l-3.8-24.2
			c0-0.2-0.1-0.4-0.1-0.6c0-0.6,0.3-0.9,1.1-0.9h2.7c0.5,0,0.8,0.4,1,1.1l1.9,13c0,0.3,0.2,0.5,0.4,0.5s0.2-0.2,0.3-0.5l1.8-7.7
			l-0.5-5c-0.1-1,0.2-1.5,1-1.5h2.8c0.6,0,0.9,0.4,1,1.1l1.6,13c0.1,0.4,0.2,0.6,0.3,0.6c0.2,0,0.3-0.2,0.3-0.6l1.5-13.2
			c0.1-0.7,0.4-1,0.9-1h2.9c0.6,0,0.9,0.3,0.9,0.8C129.3,23,129.3,23.2,129.3,23.5z"/>
		<path class="st0" d="M135.2,47c0,0.4,0,0.9-0.2,1.3c-0.2,0.3-0.5,0.4-1.1,0.4h-2c-0.4,0-0.7-0.1-1.1-0.3c-0.3-0.4-0.4-1-0.4-1.5
			V23.8c0-1.2,0.4-1.8,1.3-1.8h2.2c0.8,0,1.2,0.6,1.2,1.8L135.2,47z"/>
		<path class="st0" d="M150.9,46.9c0.1,0.5-0.1,1.1-0.4,1.5c-0.3,0.2-0.6,0.3-1,0.3h-1.8c-0.3,0-0.7,0-1-0.2c-0.3-0.3-0.5-0.6-0.5-1
			l-3.4-10c-0.1-0.4-0.3-0.6-0.4-0.6c-0.1,0-0.2,0.3-0.2,0.8v9.2c0,1.2-0.4,1.8-1.2,1.8h-2.1c-1,0-1.4-0.6-1.4-1.8V23.8
			c-0.1-0.5,0.1-1.1,0.4-1.5c0.3-0.2,0.6-0.3,1-0.2h1.8c0.3,0,0.7,0,1,0.2c0.3,0.3,0.5,0.6,0.6,1l3.4,9.9c0.1,0.4,0.3,0.6,0.4,0.6
			c0.1,0,0.2-0.3,0.2-0.8v-9.2c0-1.2,0.4-1.8,1.2-1.8h2.1c1,0,1.4,0.6,1.4,1.8L150.9,46.9z"/>
		<path class="st0" d="M165.6,40.8c0,2.8-0.3,4.8-1,5.8c-0.9,1.4-2.6,2-5.1,2c-3.1,0-5.1-1.1-6-3.2c-0.6-1.5-0.9-4.8-0.8-10.1
			s0.2-8.5,0.6-10c0.6-2.3,1.9-3.4,4-3.4h5.4c0.6,0,0.9,0.1,1.1,0.4c0.2,0.4,0.3,0.9,0.3,1.3V25c0,1.2-0.4,1.8-1.2,1.8h-2.9
			c-0.6-0.1-1.2,0-1.7,0.3c-0.5,0.7-0.7,1.5-0.7,2.3c-0.1,1-0.1,3-0.1,6.2v5.8c0,1.7,0.7,2.6,2.1,2.6s1.9-0.7,1.9-2.1v-4
			c0-0.7-0.2-1-0.5-1h-1.1c-0.5,0-0.7-0.4-0.7-1.2v-1.9c0-0.4,0-0.9,0.2-1.2c0.2-0.3,0.6-0.4,1.2-0.4h3.8c0.8,0,1.2,0.6,1.2,1.8
			L165.6,40.8z"/>
		<path class="st0" d="M171.3,47c0,0.7-0.2,1.3-0.4,1.9l-0.8,2.1c-0.2,0.5-0.5,0.8-0.8,0.8h-1.9c-0.5,0-0.6-0.2-0.4-0.7l0.7-1.7
			c0.2-0.4,0.1-0.7-0.2-0.7h-0.2c-0.4,0-0.6-0.3-0.6-1v-2c0-0.5,0-0.9,0.2-1.4c0.2-0.3,0.6-0.5,1-0.4h2.2c0.4,0,0.8,0.1,1,0.4
			c0.2,0.4,0.2,0.9,0.2,1.4L171.3,47z"/>
	</g>
</g>
</svg>
