<?xml version="1.0" encoding="utf-8"?>
<!-- Generator: Adobe Illustrator 26.0.2, SVG Export Plug-In . SVG Version: 6.00 Build 0)  -->
<svg version="1.1" id="Layer_1" xmlns="http://www.w3.org/2000/svg" xmlns:xlink="http://www.w3.org/1999/xlink" x="0px" y="0px"
	 viewBox="0 0 300 250" style="enable-background:new 0 0 300 250;" xml:space="preserve">
<style type="text/css">
	.st0{fill:#FFFFFF;}
</style>
<g>
	<g>
		<path class="st0" d="M35.8,48.1c0,0.4-0.2,0.6-0.7,0.6H32c-0.6,0-0.9-0.4-1.1-1.2l-1.6-9.6c0-0.2-0.2-0.3-0.5-0.3h-0.6
			c-0.3,0-0.4,0.1-0.4,0.3V47c0,1.1-0.4,1.7-1.3,1.7h-2.2c-0.6,0-1-0.2-1.1-0.6C23.1,47.7,23,47.4,23,47V23.8c0-1.2,0.5-1.8,1.4-1.8
			h5.7c3.7,0,5.5,2.7,5.5,8.2c0,2.8-0.7,4.8-2.1,6l2.3,11.4C35.8,47.8,35.8,47.9,35.8,48.1z M31,29.6c0-1.9-0.5-2.9-1.4-2.9h-1.3
			c-0.3,0-0.5,0.1-0.5,0.4c0,0,0,0.1,0,0.1v4.8c0,0.5,0.1,0.7,0.4,0.7h1.3C30.5,32.8,31,31.8,31,29.6z"/>
		<path class="st0" d="M48,47c0,1.2-0.5,1.7-1.3,1.7h-8.2c-0.6,0-1-0.2-1.2-0.5c-0.1-0.4-0.2-0.8-0.2-1.2V23.8
			c0-1.2,0.5-1.8,1.4-1.8h7.9c0.3,0,0.7,0,0.9,0.2c0.2,0.2,0.3,0.6,0.3,1.4V25c0,0.9-0.2,1.4-0.6,1.6c-0.2,0.1-0.5,0.1-0.7,0.1h-3.9
			c-0.4,0-0.6,0.1-0.7,0.3c0,0.2-0.1,0.4-0.1,0.6v3.7c0,0.2,0,0.5,0.1,0.7c0.2,0.1,0.4,0.2,0.6,0.1h2c0.8,0,1.2,0.5,1.2,1.4v2
			c0,0.9-0.4,1.3-1.2,1.3h-2c-0.2,0-0.4,0-0.6,0.1c-0.1,0.1-0.1,0.3-0.1,0.5V43c0,0.6,0.3,0.9,0.8,0.9h4c1,0,1.4,0.6,1.4,1.7V47z"/>
		<path class="st0" d="M59.4,25.1c0,1.1-0.4,1.6-1.2,1.6h-3.7c-0.3,0-0.6,0.1-0.6,0.3c-0.1,0.3-0.1,0.5-0.1,0.8v3.6
			c0,0.5,0.2,0.7,0.5,0.7h2.2c0.5,0,0.9,0.1,1,0.4c0.1,0.4,0.2,0.8,0.2,1.2v1.4c0,1.2-0.4,1.7-1.2,1.7h-2c-0.3,0-0.6,0.1-0.6,0.3
			c-0.1,0.3-0.1,0.5-0.1,0.8V47c0,1.1-0.4,1.7-1.2,1.7h-2.2c-0.7,0-1-0.2-1.2-0.7c-0.1-0.3-0.1-0.7-0.1-1V23.8
			c0-0.9,0.2-1.5,0.5-1.7c0.3-0.1,0.5-0.2,0.8-0.2H58c0.9,0,1.4,0.6,1.4,1.7L59.4,25.1z"/>
		<path class="st0" d="M65.3,47c0,0.4,0,0.9-0.2,1.3c-0.2,0.3-0.5,0.4-1.1,0.4h-2c-0.4,0-0.7-0.1-1-0.3c-0.3-0.4-0.4-1-0.4-1.5V23.8
			c0-1.2,0.5-1.8,1.3-1.8h2.2c0.8,0,1.2,0.6,1.2,1.8L65.3,47z"/>
		<path class="st0" d="M81,46.9c0.1,0.5-0.1,1.1-0.4,1.5c-0.3,0.2-0.6,0.3-1,0.3h-1.9c-0.3,0-0.7,0-1-0.2c-0.3-0.3-0.5-0.6-0.6-1
			l-3.4-10c-0.1-0.4-0.3-0.6-0.4-0.6c-0.1,0-0.2,0.3-0.2,0.8v9.2c0,1.2-0.4,1.8-1.2,1.8h-2.1c-1,0-1.4-0.6-1.4-1.8V23.8
			c-0.1-0.5,0.1-1.1,0.4-1.5c0.3-0.2,0.6-0.3,1-0.2h1.8c0.3,0,0.7,0,1,0.2c0.3,0.3,0.5,0.6,0.6,1l3.3,9.9c0.1,0.4,0.3,0.6,0.4,0.6
			c0.1,0,0.2-0.3,0.2-0.8v-9.2c0-1.2,0.4-1.8,1.2-1.8h2.1c1,0,1.5,0.6,1.5,1.8V46.9z"/>
		<path class="st0" d="M93.9,47c0,1.2-0.4,1.7-1.3,1.7h-8.2c-0.6,0-1-0.2-1.2-0.5C83,47.8,83,47.4,83,46.9V23.8
			c0-1.2,0.4-1.8,1.4-1.8h7.9c0.3,0,0.7,0,0.9,0.2c0.3,0.4,0.4,0.9,0.3,1.4V25c0,0.9-0.2,1.4-0.6,1.6c-0.2,0.1-0.5,0.1-0.7,0.1h-3.9
			c-0.4,0-0.6,0.1-0.7,0.3c0,0.2-0.1,0.4-0.1,0.6v3.7c0,0.2,0,0.5,0.1,0.7c0.1,0.1,0.3,0.1,0.6,0.1h2c0.8,0,1.2,0.5,1.2,1.4v2
			c0,0.9-0.4,1.3-1.2,1.3h-2c-0.2,0-0.4,0-0.6,0.1c-0.1,0.1-0.1,0.3-0.1,0.5V43c0,0.6,0.3,0.9,0.8,0.9h4c1,0,1.4,0.6,1.4,1.7
			L93.9,47z"/>
		<path class="st0" d="M108,35.3c0.1,2.9-0.1,5.8-0.4,8.6c-0.1,1.4-0.6,2.8-1.5,3.9c-0.9,0.7-2,1-3.2,0.9h-6.5
			c-0.7,0-1.1-0.2-1.2-0.5c-0.1-0.4-0.2-0.8-0.2-1.2V23.8c0-1.2,0.4-1.8,1.3-1.8h6.8c1.9-0.1,3.6,1.1,4.1,3
			C107.8,26.6,108,30,108,35.3z M103.2,35.7c0-3.2,0-5.3-0.1-6.3c0-0.8-0.2-1.6-0.6-2.4c-0.5-0.3-1-0.4-1.6-0.4
			c-0.4,0-0.8,0-1.1,0.2c-0.2,0.1-0.2,0.5-0.2,1v15c0,0.5,0.1,0.8,0.2,0.9c0.4,0.1,0.8,0.2,1.2,0.2c0.5,0.1,1-0.1,1.4-0.3
			c0.4-0.7,0.6-1.4,0.6-2.2C103.2,40.5,103.2,38.6,103.2,35.7z"/>
		<path class="st0" d="M128,49.4c0.2,0.2,0.3,0.4,0.4,0.7c0,0.2-0.2,0.4-0.6,0.6l-2.7,1.2c-0.1,0.1-0.3,0.1-0.4,0.1
			c-0.3,0-0.6-0.3-1-0.8L122,49h-0.4h-0.5c-2.9,0-4.8-1.3-5.6-3.9c-0.5-1.6-0.8-4.9-0.8-9.9c0-4.9,0.3-8.2,0.8-9.8
			c0.9-2.5,2.7-3.8,5.6-3.8c2.9,0,4.8,1.3,5.7,3.8c0.5,1.6,0.8,4.8,0.8,9.8c0,3.3-0.1,5.6-0.2,7c-0.1,1.7-0.6,3.3-1.5,4.8L128,49.4z
			 M122.9,35.3c0.1-2.3,0-4.6-0.3-6.9c-0.2-1.1-0.7-1.6-1.5-1.6s-1.3,0.5-1.5,1.6c-0.2,2.3-0.3,4.6-0.2,6.9c-0.1,2.3,0,4.7,0.2,7
			c0.2,1.1,0.7,1.7,1.5,1.7c1,0,1.6-1.2,1.8-3.6V35.3z"/>
		<path class="st0" d="M141.9,41.1c0.1,1.9-0.3,3.9-1.1,5.6c-1,1.5-2.8,2.3-5.4,2.3s-4.2-0.7-5.2-2c-0.8-1.1-1.2-3-1.2-5.7V23.8
			c0-0.4,0-0.9,0.2-1.3c0.3-0.3,0.7-0.5,1.2-0.5h2.1c0.4,0,0.8,0.1,1,0.5c0.1,0.4,0.2,0.8,0.2,1.2v18.2c0,1.4,0.6,2.1,1.8,2.1
			s1.7-0.7,1.7-2.1V23.6c0-0.4,0-0.9,0.2-1.3c0.1-0.2,0.5-0.3,1-0.3h2.2c0.6,0,1,0.2,1.1,0.6c0.1,0.3,0.1,0.7,0.1,1L141.9,41.1z"/>
		<path class="st0" d="M157.4,48.1c0,0.4-0.1,0.6-0.6,0.6h-3.8c-0.4,0-0.6-0.2-0.7-0.7l-0.8-5.7c0-0.4-0.3-0.6-0.7-0.6c0,0,0,0,0,0
			h-1.7c-0.3,0-0.6,0.2-0.7,0.6c0,0,0,0,0,0.1l-0.7,5.7c0,0.4-0.3,0.6-0.6,0.6c0,0-0.1,0-0.1,0h-3.7c-0.5,0-0.7-0.2-0.7-0.6
			l3.2-24.5c0-0.9,0.7-1.5,1.6-1.5c0,0,0.1,0,0.1,0h4.6c0.9,0,1.4,0.5,1.5,1.6L157.4,48.1z M151,36.5l-0.8-9.2
			c0-0.4-0.1-0.6-0.3-0.6s-0.3,0.2-0.3,0.6l-0.6,9.2c-0.1,0.3,0.1,0.5,0.5,0.5h1C150.9,37,151,36.8,151,36.5z"/>
		<path class="st0" d="M168.5,47c0,1.2-0.5,1.7-1.5,1.7h-7.1c-0.6,0-1-0.1-1.1-0.4c-0.2-0.4-0.2-0.9-0.2-1.3V23.7
			c0-1.1,0.4-1.7,1.3-1.7h2.2c0.4-0.1,0.8,0.1,1.1,0.5c0.2,0.4,0.2,0.8,0.2,1.2v19.4c0,0.6,0.2,0.8,0.6,0.8h3.2
			c0.9,0,1.4,0.6,1.4,1.7L168.5,47z"/>
		<path class="st0" d="M174.4,47c0,0.4,0,0.9-0.2,1.3c-0.2,0.3-0.5,0.4-1.1,0.4h-2c-0.4,0-0.7-0.1-1.1-0.3c-0.3-0.4-0.4-1-0.4-1.5
			V23.8c0-1.2,0.4-1.8,1.3-1.8h2.1c0.8,0,1.2,0.6,1.2,1.8L174.4,47z"/>
		<path class="st0" d="M187.9,25.1c0,0.9-0.2,1.5-0.7,1.6c-0.2,0-0.4,0.1-0.5,0.1h-2.1c-0.4,0-0.5,0.3-0.5,0.8v19.4
			c0,0.5,0,1-0.2,1.4c-0.2,0.2-0.5,0.4-1,0.4h-2.1c-0.7,0-1.2-0.3-1.3-0.8c-0.1-0.3-0.1-0.6-0.1-0.9V27.5c0-0.5-0.2-0.8-0.5-0.8
			h-2.1c-0.3,0-0.6-0.1-0.9-0.2c-0.3-0.4-0.4-0.9-0.3-1.4v-1.4c0-0.9,0.2-1.4,0.5-1.6c0.3-0.1,0.5-0.2,0.8-0.2h9.7
			c0.9,0,1.3,0.5,1.3,1.6L187.9,25.1z"/>
		<path class="st0" d="M201.6,23.4l-4.4,15.1V47c0.1,0.5,0,1-0.3,1.4c-0.3,0.2-0.6,0.3-1,0.3h-2.1c-0.6,0-1-0.1-1.1-0.4
			c-0.2-0.4-0.3-0.9-0.2-1.3v-8.5l-4.4-15.1c-0.3-0.9,0-1.4,0.7-1.4h2.7c0.5,0,0.9,0.3,1,1l2.1,8.7c0.1,0.3,0.2,0.4,0.3,0.4
			s0.2-0.1,0.3-0.4l2-8.7c0.2-0.6,0.5-1,1-1h2.7C201.6,22,201.9,22.5,201.6,23.4z"/>
	</g>
</g>
</svg>
