<?xml version="1.0" encoding="utf-8"?>
<!-- Generator: Adobe Illustrator 26.0.2, SVG Export Plug-In . SVG Version: 6.00 Build 0)  -->
<svg version="1.1" id="Layer_1" xmlns="http://www.w3.org/2000/svg" xmlns:xlink="http://www.w3.org/1999/xlink" x="0px" y="0px"
	 viewBox="0 0 300 250" style="enable-background:new 0 0 300 250;" xml:space="preserve">
<style type="text/css">
	.st0{fill:#FFFFFF;}
</style>
<g>
	<g>
		<path class="st0" d="M36.4,73.5c0,4.8-1.4,7.2-4.3,7.2h-7.2c-0.6,0-1-0.2-1.1-0.5c-0.1-0.4-0.2-0.8-0.2-1.2V55.7
			c0-1.2,0.4-1.7,1.3-1.7H32c1.4-0.1,2.7,0.7,3.3,2c0.5,1.5,0.8,3.1,0.7,4.7c0,3.1-0.7,5.1-2.2,6C35.5,67.4,36.4,69.7,36.4,73.5z
			 M31.4,61.6c0-0.7,0-1.4-0.2-2c-0.2-0.6-0.8-1-1.5-1h-0.8c-0.3,0-0.5,0.1-0.6,0.2c-0.1,0.2-0.1,0.4-0.1,0.6v4.2
			c0,0.5,0.2,0.8,0.7,0.8h0.8c0.7,0.1,1.3-0.3,1.5-1C31.3,62.8,31.4,62.2,31.4,61.6L31.4,61.6z M31.7,72.6c0.1-1-0.1-1.9-0.5-2.8
			c-0.3-0.5-0.9-0.7-1.5-0.6h-0.8c-0.3,0-0.5,0.1-0.6,0.2c-0.1,0.2-0.1,0.4-0.1,0.6v5.1c0,0.5,0.2,0.8,0.7,0.8h0.8
			c0.7,0.1,1.5-0.3,1.7-1C31.6,74.2,31.7,73.4,31.7,72.6L31.7,72.6z"/>
		<path class="st0" d="M42.7,79c0,0.4,0,0.9-0.2,1.3c-0.2,0.3-0.5,0.4-1.1,0.4h-2c-0.4,0-0.7-0.1-1.1-0.3c-0.3-0.4-0.4-1-0.3-1.5
			V55.8c0-1.2,0.4-1.8,1.3-1.8h2.2c0.8,0,1.2,0.6,1.2,1.8L42.7,79z"/>
		<path class="st0" d="M57.4,72.8c0,2.8-0.3,4.8-1,5.8c-0.9,1.4-2.6,2-5.1,2c-3.1,0-5.1-1.1-6-3.2c-0.6-1.5-0.8-4.8-0.8-10.1
			c0-5.2,0.2-8.5,0.6-10c0.6-2.3,1.9-3.4,4-3.4h5.4c0.6,0,1,0.1,1.1,0.4c0.2,0.4,0.3,0.9,0.2,1.3V57c0,1.2-0.4,1.8-1.2,1.8h-2.9
			c-0.6-0.1-1.2,0-1.7,0.3c-0.5,0.7-0.7,1.5-0.7,2.3c-0.1,0.9-0.1,3-0.1,6.2v5.8c0,1.7,0.7,2.6,2.1,2.6s1.9-0.7,1.9-2.1v-3.9
			c0-0.7-0.2-1-0.5-1h-1.1c-0.5,0-0.7-0.4-0.7-1.2v-1.9c0-0.4,0-0.8,0.2-1.2c0.3-0.3,0.8-0.5,1.2-0.4h3.8c0.8,0,1.2,0.6,1.2,1.8
			V72.8z"/>
		<path class="st0" d="M76.6,62.5c0,5.5-1.5,8.2-4.5,8.2h-3.4V79c0.1,0.5,0,1-0.3,1.4c-0.3,0.2-0.6,0.3-1,0.3h-2.2
			c-0.7,0-1.1-0.2-1.2-0.6C64,79.7,64,79.4,64,79V55.8c0-1.2,0.4-1.8,1.3-1.8h6.2C74.8,54,76.6,56.8,76.6,62.5z M71.8,62.5
			c0.1-1,0-2.1-0.3-3.1c-0.2-0.4-0.6-0.7-1-0.7h-1.2c-0.4,0-0.6,0.2-0.6,0.7v5.9c0,0.4,0.2,0.7,0.6,0.7h1.3c0.6,0,1-0.5,1.2-1.4
			C71.8,64.3,71.8,63.6,71.8,62.5L71.8,62.5z"/>
		<path class="st0" d="M90.2,67.3c0,5-0.3,8.2-0.8,9.9c-0.9,2.6-2.7,3.9-5.6,3.9s-4.8-1.3-5.7-3.9c-0.5-1.6-0.8-4.9-0.8-9.9
			c0-4.9,0.3-8.2,0.8-9.8c0.8-2.5,2.7-3.8,5.7-3.8c2.9,0,4.8,1.3,5.6,3.8C90,59.1,90.2,62.4,90.2,67.3z M85.6,67.3
			c0.1-2.3,0-4.6-0.2-6.9c-0.2-1.1-0.7-1.6-1.5-1.6s-1.3,0.5-1.6,1.6C82,62.7,81.9,65,82,67.3c-0.1,2.3,0,4.7,0.2,7
			c0.2,1.1,0.7,1.7,1.5,1.7s1.3-0.6,1.5-1.7C85.5,72,85.6,69.6,85.6,67.3z"/>
		<path class="st0" d="M102.9,57.1c0,0.9-0.2,1.5-0.7,1.6c-0.2,0-0.3,0.1-0.5,0.1h-2.1c-0.3,0-0.5,0.3-0.5,0.8v19.4
			c0,0.5,0,1-0.2,1.4c-0.2,0.2-0.5,0.4-1,0.4h-2.1c-0.7,0-1.2-0.3-1.3-0.8c-0.1-0.3-0.1-0.6-0.1-0.9V59.5c0-0.5-0.2-0.8-0.5-0.8
			h-2.1c-0.3,0-0.6-0.1-0.9-0.2c-0.3-0.4-0.4-0.9-0.3-1.4v-1.4c0-0.9,0.2-1.4,0.5-1.6c0.3-0.1,0.5-0.2,0.8-0.2h9.8
			c0.9,0,1.3,0.5,1.3,1.6L102.9,57.1z"/>
		<path class="st0" d="M114.9,79c0,1.2-0.4,1.7-1.3,1.7h-8.2c-0.6,0-1-0.2-1.2-0.5c-0.1-0.4-0.2-0.8-0.2-1.2V55.8
			c0-1.2,0.4-1.8,1.4-1.8h7.9c0.3,0,0.7,0,0.9,0.2c0.3,0.4,0.4,0.9,0.4,1.3V57c0,0.9-0.2,1.4-0.6,1.6c-0.2,0.1-0.5,0.1-0.7,0.1h-3.9
			c-0.4,0-0.6,0.1-0.7,0.3c0,0.2-0.1,0.4-0.1,0.6v3.7c0,0.2,0,0.5,0.1,0.7c0.1,0.1,0.3,0.1,0.6,0.1h2c0.8,0,1.2,0.4,1.2,1.4v2
			c0,0.9-0.4,1.3-1.2,1.3h-2c-0.2,0-0.4,0-0.6,0.1c-0.1,0.1-0.1,0.3-0.1,0.5V75c0,0.6,0.3,0.9,0.8,0.9h4c1,0,1.4,0.6,1.4,1.7
			L114.9,79z"/>
		<path class="st0" d="M129.6,78.9c0.1,0.5-0.1,1.1-0.4,1.5c-0.3,0.2-0.6,0.3-1,0.3h-1.8c-0.3,0-0.7,0-1-0.2c-0.3-0.3-0.5-0.6-0.6-1
			l-3.4-10c-0.1-0.4-0.3-0.6-0.4-0.6c-0.1,0-0.2,0.3-0.2,0.8v9.2c0,1.2-0.4,1.8-1.2,1.8h-2.1c-1,0-1.4-0.6-1.4-1.8V55.8
			c-0.1-0.5,0.1-1.1,0.4-1.5c0.3-0.2,0.6-0.3,1-0.2h1.8c0.3,0,0.7,0,1,0.2c0.3,0.3,0.5,0.6,0.6,1l3.3,9.9c0.1,0.4,0.3,0.6,0.4,0.6
			c0.1,0,0.2-0.3,0.2-0.8v-9.2c0-1.2,0.4-1.8,1.2-1.8h2.1c1,0,1.4,0.6,1.4,1.8L129.6,78.9z"/>
		<path class="st0" d="M143.1,57.1c0,0.9-0.2,1.5-0.7,1.6c-0.2,0-0.4,0.1-0.5,0.1h-2.1c-0.4,0-0.5,0.3-0.5,0.8v19.4
			c0,0.5,0,1-0.2,1.4c-0.2,0.2-0.5,0.4-1,0.4H136c-0.7,0-1.1-0.3-1.3-0.8c-0.1-0.3-0.1-0.6-0.1-0.9V59.5c0-0.5-0.2-0.8-0.5-0.8H132
			c-0.3,0-0.6-0.1-0.9-0.2c-0.3-0.4-0.4-0.9-0.3-1.4v-1.4c0-0.9,0.2-1.4,0.5-1.6c0.3-0.1,0.5-0.2,0.8-0.2h9.7c0.9,0,1.3,0.5,1.3,1.6
			L143.1,57.1z"/>
		<path class="st0" d="M149,79c0,0.4,0,0.9-0.2,1.3c-0.2,0.3-0.5,0.4-1.1,0.4h-2c-0.4,0-0.7-0.1-1.1-0.3c-0.3-0.4-0.4-1-0.4-1.5
			V55.8c0-1.2,0.4-1.8,1.3-1.8h2.1c0.8,0,1.2,0.6,1.2,1.8L149,79z"/>
		<path class="st0" d="M164.8,80.1c0.1,0.4-0.1,0.6-0.6,0.6h-3.8c-0.4,0-0.6-0.2-0.7-0.7l-0.7-5.7c0-0.4-0.3-0.6-0.7-0.6
			c0,0,0,0,0,0h-1.7c-0.3,0-0.7,0.2-0.7,0.6c0,0,0,0,0,0.1l-0.7,5.7c0,0.4-0.3,0.6-0.6,0.6c0,0-0.1,0-0.1,0h-3.7
			c-0.5,0-0.7-0.2-0.7-0.6l3.2-24.5c0-0.9,0.7-1.5,1.6-1.5c0,0,0.1,0,0.1,0h4.6c0.9,0,1.4,0.5,1.5,1.6L164.8,80.1z M158.5,68.5
			l-0.8-9.2c0-0.4-0.1-0.6-0.3-0.6s-0.3,0.2-0.3,0.6l-0.7,9.2c0,0.3,0.1,0.4,0.5,0.4h1C158.3,69,158.5,68.8,158.5,68.5L158.5,68.5z"
			/>
		<path class="st0" d="M175.9,79c0,1.2-0.5,1.7-1.5,1.7h-7.1c-0.6,0-1-0.1-1.1-0.4c-0.2-0.4-0.3-0.9-0.2-1.3V55.7
			c0-1.2,0.4-1.7,1.3-1.7h2.1c0.6,0,0.9,0.2,1.1,0.5c0.2,0.4,0.2,0.8,0.2,1.2v19.4c0,0.6,0.2,0.8,0.6,0.8h3.2c0.9,0,1.3,0.6,1.3,1.7
			V79z"/>
	</g>
</g>
</svg>
