<?xml version="1.0" encoding="utf-8"?>
<!-- Generator: Adobe Illustrator 26.0.2, SVG Export Plug-In . SVG Version: 6.00 Build 0)  -->
<svg version="1.1" id="Layer_1" xmlns="http://www.w3.org/2000/svg" xmlns:xlink="http://www.w3.org/1999/xlink" x="0px" y="0px"
	 viewBox="0 0 300 250" style="enable-background:new 0 0 300 250;" xml:space="preserve">
<style type="text/css">
	.st0{fill:#FFFFFF;}
</style>
<g>
	<g>
		<path class="st0" d="M36,35.3c0.1,2.9-0.1,5.8-0.4,8.6c-0.1,1.4-0.6,2.8-1.5,3.9c-0.9,0.7-2,1-3.2,0.9h-6.5
			c-0.7,0-1.1-0.2-1.2-0.5C23.1,47.8,23,47.4,23,47V23.8c0-1.2,0.4-1.8,1.3-1.8h6.8c1.9-0.1,3.6,1.1,4.1,3C35.7,26.6,36,30,36,35.3z
			 M31.2,35.7c0-3.2,0-5.3-0.1-6.3c0-0.8-0.2-1.6-0.6-2.4c-0.5-0.3-1-0.4-1.6-0.3c-0.4,0-0.8,0-1.1,0.2c-0.2,0.1-0.2,0.5-0.2,1v15
			c0,0.5,0.1,0.8,0.2,0.9c0.4,0.1,0.8,0.2,1.2,0.2c0.5,0.1,1-0.1,1.4-0.3c0.4-0.7,0.6-1.4,0.6-2.2C31.2,40.5,31.2,38.6,31.2,35.7
			L31.2,35.7z"/>
		<path class="st0" d="M42.4,47c0,0.4,0,0.9-0.2,1.3c-0.2,0.3-0.5,0.4-1.1,0.4h-2c-0.4,0-0.8,0-1.1-0.3c-0.3-0.4-0.4-1-0.4-1.5V23.8
			c0-1.2,0.5-1.8,1.3-1.8h2.2c0.8,0,1.2,0.6,1.2,1.8L42.4,47z"/>
		<path class="st0" d="M57.1,40.8c0,2.8-0.3,4.8-1,5.8c-0.9,1.4-2.6,2-5.1,2c-3.1,0-5.1-1.1-6-3.2c-0.6-1.5-0.8-4.8-0.8-10.1
			s0.2-8.5,0.6-10c0.6-2.3,1.9-3.4,4-3.4h5.4c0.6,0,0.9,0.1,1.1,0.4c0.2,0.4,0.3,0.9,0.3,1.3V25c0,1.2-0.4,1.8-1.2,1.8h-2.9
			c-0.6-0.1-1.2,0-1.7,0.3c-0.4,0.7-0.7,1.5-0.7,2.3c-0.1,1-0.1,3-0.1,6.2v5.8c0,1.7,0.7,2.6,2.1,2.6s1.9-0.7,1.9-2.1v-4
			c0-0.7-0.2-1-0.5-1h-1.1c-0.5,0-0.7-0.4-0.7-1.2v-1.9c0-0.4,0-0.9,0.2-1.2c0.2-0.3,0.6-0.4,1.2-0.4h3.8c0.8,0,1.2,0.6,1.2,1.8
			L57.1,40.8z"/>
		<path class="st0" d="M77,35.3c0.1,2.9-0.1,5.8-0.4,8.6c-0.1,1.4-0.6,2.8-1.5,3.9c-0.9,0.7-2,1-3.2,0.9h-6.5
			c-0.7,0-1.1-0.2-1.2-0.5C64.1,47.8,64,47.4,64,47V23.8c0-1.2,0.4-1.8,1.3-1.8h6.8c1.9-0.1,3.6,1.1,4.1,3C76.7,26.6,77,30,77,35.3z
			 M72.2,35.7c0-3.2,0-5.3-0.1-6.3c0-0.8-0.2-1.6-0.6-2.4c-0.2-0.2-0.7-0.4-1.6-0.4c-0.4,0-0.8,0-1.1,0.2c-0.2,0.1-0.2,0.5-0.2,1v15
			c0,0.5,0.1,0.8,0.2,0.9c0.4,0.1,0.8,0.2,1.2,0.2c0.5,0.1,1-0.1,1.4-0.3c0.4-0.7,0.6-1.4,0.6-2.2C72.2,40.5,72.2,38.6,72.2,35.7
			L72.2,35.7z"/>
		<path class="st0" d="M89.6,47c0,1.2-0.4,1.7-1.3,1.7h-8.2c-0.6,0-1-0.2-1.2-0.5c-0.1-0.4-0.2-0.8-0.2-1.2V23.8
			c0-1.2,0.4-1.8,1.4-1.8H88c0.3,0,0.7,0,0.9,0.2c0.3,0.4,0.4,0.9,0.3,1.4V25c0,0.9-0.2,1.4-0.6,1.6c-0.2,0.1-0.5,0.1-0.7,0.1h-3.9
			c-0.4,0-0.6,0.1-0.7,0.3c0,0.2-0.1,0.4-0.1,0.6v3.7c0,0.2,0,0.5,0.1,0.7c0.1,0.1,0.3,0.1,0.6,0.1h2c0.8,0,1.2,0.5,1.2,1.4v2
			c0,0.9-0.4,1.3-1.2,1.3h-2c-0.2,0-0.4,0-0.6,0.1c-0.1,0.1-0.1,0.3-0.1,0.5V43c0,0.6,0.3,0.9,0.8,0.9h4c1,0,1.4,0.6,1.4,1.7
			L89.6,47z"/>
		<path class="st0" d="M101.6,47c0,1.2-0.4,1.7-1.3,1.7h-8.2c-0.6,0-1-0.2-1.2-0.5c-0.1-0.4-0.2-0.8-0.2-1.2V23.8
			c0-1.2,0.4-1.8,1.4-1.8h7.9c0.3,0,0.7,0,0.9,0.2c0.2,0.2,0.3,0.6,0.3,1.4V25c0,0.9-0.2,1.4-0.6,1.6c-0.2,0.1-0.5,0.1-0.7,0.1h-3.9
			c-0.4,0-0.6,0.1-0.7,0.3c0,0.2,0,0.4,0,0.6v3.7c0,0.2,0,0.5,0.1,0.7c0.1,0.1,0.3,0.1,0.6,0.1h2c0.8,0,1.2,0.5,1.2,1.4v2
			c0,0.9-0.4,1.3-1.2,1.3h-2c-0.2,0-0.4,0-0.6,0.1c-0.1,0.1-0.1,0.3-0.1,0.5V43c0,0.6,0.3,0.9,0.8,0.9h4c1,0,1.4,0.6,1.4,1.7
			L101.6,47z"/>
		<path class="st0" d="M115.3,30.5c0,5.5-1.5,8.2-4.5,8.2h-3.4V47c0.1,0.5,0,1-0.3,1.4c-0.3,0.2-0.6,0.4-1,0.3H104
			c-0.7,0-1.1-0.2-1.2-0.6c-0.1-0.4-0.1-0.7-0.1-1.1V23.8c0-1.2,0.4-1.8,1.3-1.8h6.2C113.6,22,115.3,24.8,115.3,30.5z M110.6,30.5
			c0.1-1,0-2.1-0.3-3.1c-0.2-0.4-0.6-0.7-1-0.7h-1.2c-0.4,0-0.7,0.2-0.7,0.7v5.9c0,0.4,0.2,0.7,0.6,0.7h1.3c0.6,0,1-0.5,1.2-1.4
			C110.6,31.9,110.6,31.2,110.6,30.5L110.6,30.5z"/>
		<path class="st0" d="M142.7,23.5l-4.2,24.1c-0.1,0.8-0.5,1.2-1.1,1.2h-3.1c-0.3,0-0.6-0.1-0.9-0.3c-0.2-0.3-0.3-0.6-0.3-0.9
			l-1.1-8.9c0-0.3-0.1-0.5-0.2-0.5s-0.2,0.2-0.3,0.5l-2.2,9.4c-0.1,0.5-0.6,0.9-1.1,0.8h-2.6c-0.6,0-0.9-0.3-1-1l-3.8-24.2
			c0-0.2-0.1-0.4-0.1-0.6c0-0.6,0.3-0.9,1-0.9h2.7c0.5,0,0.8,0.4,1,1.1l1.9,13c0,0.3,0.2,0.5,0.3,0.5s0.2-0.2,0.3-0.5l1.8-7.7
			l-0.5-5c-0.1-1,0.2-1.5,1-1.5h2.8c0.6,0,0.9,0.4,1,1.1l1.5,13c0,0.4,0.2,0.6,0.3,0.6s0.3-0.2,0.3-0.6L138,23c0.1-0.7,0.4-1,0.9-1
			h2.9c0.6,0,0.9,0.3,0.9,0.8C142.7,23,142.7,23.2,142.7,23.5z"/>
		<path class="st0" d="M148.6,47c0,0.4,0,0.9-0.2,1.3c-0.2,0.3-0.5,0.4-1.1,0.4h-2c-0.4,0-0.7-0.1-1-0.3c-0.2-0.2-0.4-0.7-0.4-1.5
			V23.8c0-1.2,0.4-1.8,1.3-1.8h2.1c0.8,0,1.2,0.6,1.2,1.8L148.6,47z"/>
		<path class="st0" d="M162.1,25.1c0,0.9-0.2,1.5-0.7,1.6c-0.2,0-0.4,0.1-0.5,0.1h-2.1c-0.4,0-0.5,0.3-0.5,0.8v19.4
			c0,0.5,0,1-0.2,1.4c-0.2,0.2-0.5,0.4-1,0.4H155c-0.7,0-1.1-0.3-1.3-0.8c-0.1-0.3-0.1-0.6-0.1-0.9V27.5c0-0.5-0.2-0.8-0.5-0.8H151
			c-0.3,0-0.6-0.1-0.9-0.2c-0.3-0.4-0.4-0.9-0.3-1.4v-1.4c0-0.9,0.2-1.4,0.5-1.6c0.3-0.1,0.5-0.2,0.8-0.2h9.8c0.9,0,1.3,0.5,1.3,1.6
			L162.1,25.1z"/>
		<path class="st0" d="M176.3,46.9c0,1.2-0.4,1.8-1.3,1.8h-2.1c-0.8,0-1.2-0.6-1.2-1.7v-9.2c0-0.6-0.2-0.8-0.6-0.8h-2.4
			c-0.4,0-0.6,0.3-0.6,0.8V47c0,1.2-0.4,1.7-1.2,1.7h-2.1c-0.9,0-1.3-0.6-1.3-1.8V23.7c0-1.1,0.4-1.7,1.3-1.7h2.1
			c0.8,0,1.2,0.6,1.2,1.7v7.7c0,0.5,0.2,0.8,0.6,0.8h2.5c0.4,0,0.6-0.3,0.6-0.8v-7.7c0-1.1,0.4-1.7,1.2-1.7h2.1
			c0.9,0,1.3,0.6,1.3,1.7V46.9z"/>
	</g>
</g>
</svg>
