<svg xmlns="http://www.w3.org/2000/svg" xmlns:xlink="http://www.w3.org/1999/xlink" viewBox="0 0 117.87 18.33"><defs><style>.cls-1{fill:none;}.cls-2{clip-path:url(#clip-path);}.cls-3{fill:#fff;}.cls-4{fill:#231f20;}</style><clipPath id="clip-path" transform="translate(0 -1.69)"><rect class="cls-1" width="117.95" height="20.03"/></clipPath></defs><title>cta-250</title><g id="Layer_2" data-name="Layer 2"><g id="Layer_1-2" data-name="Layer 1"><g class="cls-2"><path class="cls-3" d="M3.33,1.69A3.26,3.26,0,0,0,0,5V16.69A3.27,3.27,0,0,0,3.33,20H114.54a3.27,3.27,0,0,0,3.34-3.34V5a3.27,3.27,0,0,0-3.34-3.34Z" transform="translate(0 -1.69)"/></g><path class="cls-4" d="M15.11,14.72V13.44h1.14v-5H15.11v1.77h-1.3v-3h6.88v3.05H19.4V8.41H18.23v5h1.14v1.28Z" transform="translate(0 -1.69)"/><path class="cls-4" d="M21.4,14.72V13.44h.91v-5H21.4V7.13h6.69V9.54H26.64V8.41H24.29v1.76h1.9v1.28h-1.9v2h2.35V12.3h1.45v2.42Z" transform="translate(0 -1.69)"/><path class="cls-4" d="M28.79,14.72V13.44h1.09v-5H28.79V7.13H33V8.41h-1.1v5H34.1V11.09h1.48v3.63Z" transform="translate(0 -1.69)"/><path class="cls-4" d="M36,14.72V13.44H37.1v-5H36V7.13h4.17V8.41H39.08v5h2.24V11.09H42.8v3.63Z" transform="translate(0 -1.69)"/><path class="cls-4" d="M46,14.72V13.44h1v-5H46V7.13h3.8l1.67,4.45,1.67-4.45h3.88V8.41h-1v5h1v1.28H53.23V13.44h.92v-5H54l-2.35,6.31H50.8L48.42,8.41h-.18v5h1v1.28Z" transform="translate(0 -1.69)"/><path class="cls-4" d="M57.74,14.72V13.44h.91v-5h-.91V7.13h6.69V9.54H63V8.41H60.62v1.76h1.9v1.28h-1.9v2H63V12.3h1.45v2.42Z" transform="translate(0 -1.69)"/><path class="cls-4" d="M67.92,14.72V13.44h1v-5h-1V7.13h3.81l1.66,4.45,1.68-4.45H79V8.41H78v5h1v1.28H75.13V13.44h.92v-5h-.18l-2.36,6.31H72.7L70.32,8.41h-.18v5h1v1.28Z" transform="translate(0 -1.69)"/><path class="cls-4" d="M84,7a4.14,4.14,0,0,1,3.09,1.14,3.72,3.72,0,0,1,1.13,2.76,3.78,3.78,0,0,1-1.13,2.77A4.14,4.14,0,0,1,84,14.82a4.07,4.07,0,0,1-3.13-1.17,3.91,3.91,0,0,1-1.09-2.74,3.82,3.82,0,0,1,1.12-2.76A4.15,4.15,0,0,1,84,7ZM84,8.4a1.94,1.94,0,0,0-1.48.65A2.72,2.72,0,0,0,81.94,11a2.57,2.57,0,0,0,.6,1.79,1.91,1.91,0,0,0,1.49.67,2,2,0,0,0,1.49-.65,2.73,2.73,0,0,0,.61-1.9,2.69,2.69,0,0,0-.59-1.8A1.91,1.91,0,0,0,84,8.4Z" transform="translate(0 -1.69)"/><path class="cls-4" d="M97,13.44v1.28H94.66L93,11.4h-.87v2h1v1.28h-4V13.44h1v-5h-1V7.13h4.58a2.39,2.39,0,0,1,1.87.65,2.2,2.2,0,0,1,.57,1.48,2,2,0,0,1-1.32,1.89L96,13.44Zm-4.9-3.25h.68c.84,0,1.25-.3,1.25-.9a.79.79,0,0,0-.28-.66,1.32,1.32,0,0,0-.79-.22h-.86Z" transform="translate(0 -1.69)"/><path class="cls-4" d="M97.33,14.72V13.44h.91v-5h-.91V7.13H104V9.54h-1.45V8.41h-2.36v1.76h1.9v1.28h-1.9v2h2.36V12.3H104v2.42Z" transform="translate(0 -1.69)"/></g></g></svg>