<svg xmlns="http://www.w3.org/2000/svg" viewBox="0 0 202.22 33.46"><defs><style>.cls-1{fill:#231f20;}.cls-2{fill:#fff;}</style></defs><title>t4-250</title><g id="Layer_2" data-name="Layer 2"><g id="Layer_1-2" data-name="Layer 1"><polygon class="cls-1" points="9.29 0 0 16.73 9.29 33.46 192.93 33.46 202.22 16.73 192.93 0 9.29 0"/><path class="cls-2" d="M26.47,11a6.19,6.19,0,0,1,4.61,1.69,5.61,5.61,0,0,1,1.69,4.13,5.66,5.66,0,0,1-1.69,4.13,6.23,6.23,0,0,1-4.61,1.68,6.07,6.07,0,0,1-4.66-1.73,5.8,5.8,0,0,1-1.63-4.08,5.65,5.65,0,0,1,1.68-4.13A6.17,6.17,0,0,1,26.47,11Zm0,2.06a2.89,2.89,0,0,0-2.2,1,4.05,4.05,0,0,0-.91,2.87,3.85,3.85,0,0,0,.89,2.66,2.86,2.86,0,0,0,2.22,1,2.9,2.9,0,0,0,2.22-1,4,4,0,0,0,.91-2.82,4,4,0,0,0-.87-2.68A2.83,2.83,0,0,0,26.47,13.05Z"/><path class="cls-2" d="M34,22.49V20.57h1.52V13.08H34V11.17H38.8l4.16,7V13.08H41.49V11.17h5.08v1.91H45v9.49H42.46l-4.89-8.39v6.39H39v1.92Z"/><path class="cls-2" d="M47.75,22.49V20.57h1.36V13.08H47.75V11.17h10v3.58H55.56V13.08H52.05v2.61h2.84V17.6H52.05v3h3.51V18.88h2.17v3.61Z"/><path class="cls-2" d="M62.88,22.49V20.57h1.47V13.08H62.88V11.17h5.68l2.49,6.63,2.49-6.63h5.79v1.91H77.87v7.49h1.46v1.92h-5.7V20.57H75V13.08h-.27l-3.5,9.41H70l-3.55-9.41h-.27v7.49h1.48v1.92Z"/><path class="cls-2" d="M86.91,11a6.2,6.2,0,0,1,4.61,1.69,5.64,5.64,0,0,1,1.68,4.13,5.62,5.62,0,0,1-1.69,4.13,6.21,6.21,0,0,1-4.6,1.68,6.08,6.08,0,0,1-4.67-1.73,5.79,5.79,0,0,1-1.62-4.08,5.64,5.64,0,0,1,1.67-4.13A6.18,6.18,0,0,1,86.91,11Zm0,2.06a2.9,2.9,0,0,0-2.21,1,4.05,4.05,0,0,0-.91,2.87,3.81,3.81,0,0,0,.9,2.66,2.83,2.83,0,0,0,2.22,1,2.9,2.9,0,0,0,2.21-1A4,4,0,0,0,90,16.76a4,4,0,0,0-.87-2.68A2.83,2.83,0,0,0,86.91,13.05Z"/><path class="cls-2" d="M94.48,22.49V20.57H96V13.08H94.48V11.17h4.75l4.17,7V13.08h-1.48V11.17H107v1.91h-1.59v9.49h-2.52L98,14.18v6.39h1.42v1.92Z"/><path class="cls-2" d="M110.12,22.49V20.57h1.7V13.08h-1.7v2.64h-2V11.17h10.27v4.55h-1.92V13.08h-1.75v7.49h1.7v1.92Z"/><path class="cls-2" d="M119.74,22.49V20.57h1.41V13.08h-1.41V11.17h5.47v1.91H124v2.48h3.08V13.08H126V11.17h5.43v1.91H130v7.49h1.41v1.92H126V20.57h1.15V17.48H124v3.09h1.19v1.92Z"/><path class="cls-2" d="M136.46,22.49V20.57h1.62V13.08h-1.62V11.17h10.13v3.49h-2.16V13.08H141V15.7h2.45v1.91H141v3h1.75v1.92Z"/><path class="cls-2" d="M159.47,20.57v1.92H156l-2.55-5h-1.3v3h1.42v1.92h-5.92V20.57h1.55V13.08h-1.55V11.17h6.83a3.53,3.53,0,0,1,2.78,1,3.29,3.29,0,0,1,.85,2.2,3,3,0,0,1-2,2.82L158,20.57Zm-7.3-4.85h1c1.25,0,1.87-.44,1.87-1.33a1.16,1.16,0,0,0-.43-1,1.91,1.91,0,0,0-1.17-.32h-1.28Z"/><path class="cls-2" d="M160.52,22.49V20.57h1.36V13.08h-1.36V11.17h10v3.58h-2.16V13.08h-3.51v2.61h2.83V17.6h-2.83v3h3.51V18.88h2.16v3.61Z"/><path class="cls-2" d="M172.26,22.49V20.57h1.36V13.08h-1.36V11.17h10v3.58h-2.16V13.08h-3.51v2.61h2.83V17.6h-2.83v3h3.51V18.88h2.16v3.61Z"/></g></g></svg>