<svg id="Layer_1" data-name="Layer 1" xmlns="http://www.w3.org/2000/svg" xmlns:xlink="http://www.w3.org/1999/xlink" viewBox="0 0 728 90"><defs><style>.cls-1{fill:none;}.cls-2{clip-path:url(#clip-path);}.cls-3{fill:#221e1f;}.cls-4{clip-path:url(#clip-path-2);}.cls-5{clip-path:url(#clip-path-4);}.cls-6{clip-path:url(#clip-path-5);}</style><clipPath id="clip-path"><rect class="cls-1" width="728" height="90"/></clipPath><clipPath id="clip-path-2"><rect class="cls-1" x="2992" width="728" height="90"/></clipPath><clipPath id="clip-path-4"><rect class="cls-1" x="3426.99" y="30.56" width="59.44" height="59.08"/></clipPath><clipPath id="clip-path-5"><rect class="cls-1" x="-29776" y="-32677" width="65535" height="65535"/></clipPath></defs><g class="cls-2"><path class="cls-3" d="M55.07,41.26H50V22.36h8.31c4.95,0,7.83,2.31,7.83,6.48s-2.88,6.51-7.83,6.51H55.07Zm3-10c2.28,0,3.15-.81,3.15-2.4s-.87-2.43-3.15-2.43h-3v4.83Z"/><path class="cls-3" d="M80.18,37.33c0,.69.3,1,.81,1a2.77,2.77,0,0,0,1.08-.21v2.58a5.13,5.13,0,0,1-3,.87,3.3,3.3,0,0,1-3.39-2.37c-.78,1.56-2.31,2.37-4.44,2.37-2.61,0-4.32-1.35-4.32-3.63,0-2.58,1.86-3.69,4.77-4.2l3.75-.63v-.21c0-1.11-.51-1.77-1.68-1.77A1.81,1.81,0,0,0,71.9,32.8l-4.5-.3c.42-2.94,2.61-5,6.63-5,3.54,0,6.15,1.53,6.15,5.25Zm-4.77-1.86-2,.36c-1.17.24-1.86.6-1.86,1.47,0,.69.54,1.14,1.35,1.14a2.51,2.51,0,0,0,2.49-2.76Z"/><path class="cls-3" d="M85.64,46.06l1.92-4.62L82.1,27.88h5.1l3,7.83h.12l3-7.83h4.77L90.41,46.06Z"/><path class="cls-3" d="M105.23,31.24h-1.8v-3l1-.15c1.35-.21,1.77-.93,2.1-2.16l.45-1.74H110v3.69h3.48v3.36H110v4.89c0,1.14.54,1.59,1.53,1.59a5.39,5.39,0,0,0,2.07-.45v3.15a6.29,6.29,0,0,1-4,1.2c-2.25,0-4.38-.93-4.38-4.08Z"/><path class="cls-3" d="M120.35,41.26h-4.86V22.36h4.86v7.53a4.58,4.58,0,0,1,4.32-2.37c3.66,0,4.83,2.55,4.83,5.34v8.4h-4.86V34.15c0-1.83-.51-2.79-2-2.79-1.65,0-2.31,1.32-2.31,3.33Z"/><path class="cls-3" d="M144.5,37.33c0,.69.3,1,.81,1a2.77,2.77,0,0,0,1.08-.21v2.58a5.13,5.13,0,0,1-3,.87A3.3,3.3,0,0,1,140,39.19c-.78,1.56-2.31,2.37-4.44,2.37-2.61,0-4.32-1.35-4.32-3.63,0-2.58,1.86-3.69,4.77-4.2l3.75-.63v-.21c0-1.11-.51-1.77-1.68-1.77a1.81,1.81,0,0,0-1.83,1.68l-4.5-.3c.42-2.94,2.61-5,6.63-5,3.54,0,6.15,1.53,6.15,5.25Zm-4.77-1.86-2,.36c-1.17.24-1.86.6-1.86,1.47,0,.69.54,1.14,1.35,1.14a2.51,2.51,0,0,0,2.49-2.76Z"/><path class="cls-3" d="M148.28,31.24h-1.8v-3l1-.15c1.35-.21,1.77-.93,2.1-2.16l.45-1.74h3.06v3.69h3.48v3.36h-3.48v4.89c0,1.14.54,1.59,1.53,1.59a5.39,5.39,0,0,0,2.07-.45v3.15a6.29,6.29,0,0,1-4,1.2c-2.25,0-4.38-.93-4.38-4.08Z"/><path class="cls-3" d="M162.56,31.24V27.88h1.92v-.57c0-3.48,2.16-5.31,5.37-5.31,2.52,0,4.26,1.26,4.8,3.48l-3,.93a1.37,1.37,0,0,0-1.29-.93c-.81,0-1.11.66-1.11,1.5v.9h3.39v3.36h-3.39v10h-4.8v-10Z"/><path class="cls-3" d="M183.83,32.62a4.33,4.33,0,0,0-2.31-.57c-1.8,0-2.91.84-2.91,3.09v6.12h-4.86V27.88h4.86v2.37a3.89,3.89,0,0,1,3.66-2.73,3.2,3.2,0,0,1,1.86.51Z"/><path class="cls-3" d="M185.6,22.36h4.92v4.26H185.6Zm4.89,5.52V41.26h-4.86V27.88Z"/><path class="cls-3" d="M206.45,36.85c-.69,3.06-3.15,4.77-6.69,4.77-4.29,0-7.35-2.58-7.35-6.84a7.05,7.05,0,0,1,7.29-7.26c4.47,0,6.84,3.06,6.84,6.69v1.35h-9.39A2.54,2.54,0,0,0,199.94,38a2.49,2.49,0,0,0,2.61-1.5Zm-4.53-3.63A2.19,2.19,0,0,0,199.64,31a2.29,2.29,0,0,0-2.43,2.22Z"/><path class="cls-3" d="M213.38,41.26h-4.86V27.88h4.86v2a4.58,4.58,0,0,1,4.32-2.37c3.66,0,4.83,2.55,4.83,5.34v8.4h-4.86V34.15c0-1.83-.51-2.79-2-2.79-1.65,0-2.31,1.32-2.31,3.33Z"/><path class="cls-3" d="M234.62,39a4.42,4.42,0,0,1-4.38,2.64c-4,0-5.94-3.09-5.94-7s2-7,5.94-7a4.4,4.4,0,0,1,4.38,2.67V22.36h4.86v18.9h-4.86Zm0-4.5c0-1.92-1.05-3.18-2.67-3.18-1.92,0-2.76,1.35-2.76,3.27s.84,3.3,2.76,3.3c1.62,0,2.67-1.26,2.67-3.21Z"/></g></svg>