<svg id="Layer_1" data-name="Layer 1" xmlns="http://www.w3.org/2000/svg" xmlns:xlink="http://www.w3.org/1999/xlink" viewBox="0 0 728 90"><defs><style>.cls-1{fill:none;}.cls-2{clip-path:url(#clip-path);}.cls-3{clip-path:url(#clip-path-3);}.cls-4{clip-path:url(#clip-path-4);}.cls-5{clip-path:url(#clip-path-5);}.cls-6{fill:#221e1f;}.cls-7{fill:#fff;}.cls-8{clip-path:url(#clip-path-6);}.cls-9{clip-path:url(#clip-path-8);}.cls-10{clip-path:url(#clip-path-9);}</style><clipPath id="clip-path"><rect class="cls-1" x="-748" width="728" height="90"/></clipPath><clipPath id="clip-path-3"><rect class="cls-1" x="-313.01" y="30.56" width="59.44" height="59.08"/></clipPath><clipPath id="clip-path-4"><rect class="cls-1" x="-33516" y="-32677" width="65535" height="65535"/></clipPath><clipPath id="clip-path-5"><rect class="cls-1" width="728" height="90"/></clipPath><clipPath id="clip-path-6"><rect class="cls-1" x="2244" width="728" height="90"/></clipPath><clipPath id="clip-path-8"><rect class="cls-1" x="2678.99" y="30.56" width="59.44" height="59.08"/></clipPath><clipPath id="clip-path-9"><rect class="cls-1" x="-30524" y="-32677" width="65535" height="65535"/></clipPath></defs><g class="cls-5"><path class="cls-6" d="M453.37,71.8v-.91a2.84,2.84,0,0,1-1.68-.69,2.06,2.06,0,0,1-.65-1.59l1.33,0a1.24,1.24,0,0,0,1,1.18V68.32l-.5-.08a1.74,1.74,0,0,1-1.67-1.77c0-1.14.84-1.88,2.17-2v-.78h.73v.79a2.13,2.13,0,0,1,2.14,2.18l-1.3,0a1.1,1.1,0,0,0-.84-1.06v1.4l.43.08c1.26.22,1.84.81,1.84,1.82a1.62,1.62,0,0,1-.65,1.38,2.8,2.8,0,0,1-1.62.54v.89Zm0-4.84V65.63c-.5.05-.78.29-.78.71S452.92,66.87,453.37,67Zm.73,1.49v1.34c.52-.05.86-.3.86-.7S454.62,68.53,454.1,68.45Z"/><path class="cls-6" d="M456.81,67V64.34h9.27v2.27a10.31,10.31,0,0,0-3,4.79,24.43,24.43,0,0,0-.57,5.29H459.3a16.26,16.26,0,0,1,.86-5.35A12.9,12.9,0,0,1,462.84,67Z"/><path class="cls-6" d="M475.44,66.94H470c0,.28-.05.63-.11,1.08s-.12.79-.18,1a3.41,3.41,0,0,1,2.33-.74,4.07,4.07,0,0,1,3.22,1.23,4.44,4.44,0,0,1,1.08,3A4,4,0,0,1,475,75.75a4.87,4.87,0,0,1-3.35,1.17c-3.19,0-4.94-1.78-4.84-4.58l2.86.21a2,2,0,1,0,2-2,2,2,0,0,0-1.8,1L467,71.3c.14-.85.32-1.94.49-3.34a34.53,34.53,0,0,0,.32-3.62h7.63Z"/><rect class="cls-7" x="444.3" y="40.35" width="41" height="16.55"/><path class="cls-6" d="M452,49.59c.05,1,.83,1.41,1.71,1.41s1.26-.31,1.26-.78-.42-.6-1.06-.73l-1.36-.24a2.09,2.09,0,0,1-2-2.1c0-1.43,1.13-2.32,2.88-2.32,2,0,3,1,3.08,2.59l-1.61,0a1.32,1.32,0,0,0-1.48-1.27c-.74,0-1.15.3-1.15.8s.33.56.85.67l1.36.24c1.48.26,2.17,1,2.17,2.19a1.9,1.9,0,0,1-.87,1.7,3.72,3.72,0,0,1-2.1.57,3.88,3.88,0,0,1-2.38-.7,2.36,2.36,0,0,1-.94-2Z"/><path class="cls-6" d="M463.25,52.23h-5.6V45h5.5v1.44h-3.78v1.43h2.94v1.42h-2.94v1.53h3.88Z"/><path class="cls-6" d="M469,49.33V45h1.61v7.26h-1.4L465.8,47.6v4.63h-1.61V45h1.68Z"/><path class="cls-6" d="M471.74,45h2.82a3.92,3.92,0,0,1,2.81,1,3.39,3.39,0,0,1,1.05,2.66,3.43,3.43,0,0,1-1.05,2.67,4,4,0,0,1-2.81,1h-2.82Zm2.7,5.88a2.25,2.25,0,0,0,0-4.5h-.94v4.5Z"/></g></svg>