<?xml version="1.0" encoding="utf-8"?>
<!-- Generator: Adobe Illustrator 24.0.2, SVG Export Plug-In . SVG Version: 6.00 Build 0)  -->
<svg version="1.1" id="Layer_1" xmlns="http://www.w3.org/2000/svg" xmlns:xlink="http://www.w3.org/1999/xlink" x="0px" y="0px"
	 viewBox="0 0 320 120" style="enable-background:new 0 0 320 120;" xml:space="preserve">
<style type="text/css">
	.st0{fill:#FFFFFF;}
</style>
<title>320 x 100 2</title>
<g>
	<g>
		<path class="st0" d="M114.4,22.6l2.4-0.6c0.2,0.7,0.8,1.3,1.6,1.2c0.9,0,1.4-0.4,1.4-1c0-0.6-0.5-1-1.4-1.2l-1-0.2
			c-1.8-0.4-2.9-1.5-2.9-3c0-1.9,1.5-3.2,3.9-3.2c3.2,0,3.9,2.2,3.9,2.2l-2.4,0.8c-0.2-0.6-0.8-1-1.5-1c-0.8,0-1.3,0.3-1.3,0.9
			s0.5,0.9,1.5,1.2l1.1,0.3c1.8,0.4,2.8,1.5,2.8,3c0,2-1.6,3.3-4.1,3.3C114.9,25.3,114.4,22.6,114.4,22.6z"/>
		<path class="st0" d="M124.6,14.8h2.2l0.4,1.4c0.8-1.1,2.2-1.8,3.6-1.7c2.4,0,4,1.6,4,4.2V25h-2.8v-5.7c0-1.5-0.7-2.2-2.1-2.2
			c-1.3-0.1-2.4,0.9-2.5,2.2c0,0.1,0,0.2,0,0.3V25h-2.7L124.6,14.8z"/>
		<path class="st0" d="M136.6,19.9c0-2.9,2.3-5.3,5.3-5.4c0.1,0,0.2,0,0.3,0c2.9-0.2,5.4,2,5.6,4.9c0,0.2,0,0.3,0,0.5
			c0,2.9-2.4,5.3-5.3,5.3c-0.1,0-0.2,0-0.3,0c-2.9,0.2-5.4-2-5.6-4.9C136.6,20.2,136.6,20.1,136.6,19.9z M145.1,19.9
			c0.1-1.5-1-2.7-2.5-2.8c-0.1,0-0.2,0-0.3,0c-1.5-0.1-2.8,1.1-2.8,2.6c0,0.1,0,0.2,0,0.3c-0.1,1.5,1.1,2.8,2.6,2.8
			c0.1,0,0.2,0,0.3,0c1.5,0.1,2.8-1.1,2.8-2.6C145.1,20,145.1,20,145.1,19.9L145.1,19.9z"/>
		<path class="st0" d="M164.5,14.8L161,25h-2.4l-2-6.3l-0.2-0.9l-0.1,0.9l-1.8,6.3h-2.5l-3.7-10.3h2.9L153,21l0.2,1.2l0.2-1.2
			l1.9-6.3h2.3l1.9,6.3l0.2,1.2l0.2-1.2l1.9-6.3L164.5,14.8z"/>
		<path class="st0" d="M121.9,39.3h2.1l0.4,1.9c0.6-1.4,2.1-2.2,3.5-2c0.2,0,0.4,0,0.6,0.1l-0.2,2.8H128c-2.4,0-3.4,1-3.4,3.7v3.9
			h-2.7L121.9,39.3z"/>
		<path class="st0" d="M138.6,43.2v6.3h-2l-0.4-1.4c-0.8,1.1-2.2,1.7-3.6,1.6c-2.4,0-3.7-1.2-3.7-3.3c0-2.1,1.4-3.2,4-3.2
			c1,0,2,0.1,3,0.5v-0.4c0.1-1-0.7-1.9-1.7-2c-0.1,0-0.3,0-0.4,0c-1,0-2,0.3-2.8,0.8l-1.5-1.9c1.3-0.9,2.8-1.3,4.4-1.3
			C136.8,39.1,138.6,40.7,138.6,43.2z M135.9,45.8v-0.2c-0.7-0.2-1.4-0.4-2.2-0.4c-1.4,0-2,0.4-2,1.3c0,0.9,0.6,1.3,1.8,1.3
			C134.8,47.9,135.8,47,135.9,45.8C135.9,45.8,135.9,45.8,135.9,45.8z"/>
		<path class="st0" d="M141,36.1c0.1-0.9,0.9-1.6,1.8-1.5c0.8,0.1,1.5,0.7,1.5,1.5c0,0.9-0.7,1.6-1.6,1.6c0,0-0.1,0-0.1,0
			c-0.9,0-1.6-0.6-1.6-1.5C141,36.2,141,36.1,141,36.1z M141.3,39.3h2.7v10.3h-2.7L141.3,39.3z"/>
		<path class="st0" d="M146.8,39.3h2.2l0.4,1.4c0.8-1.1,2.2-1.7,3.6-1.6c2.4,0,4,1.6,4,4.2v6.3h-2.7v-5.7c0-1.5-0.7-2.3-2.1-2.3
			c-1.3-0.1-2.4,0.9-2.5,2.2c0,0.1,0,0.2,0,0.3v5.4h-2.7L146.8,39.3z"/>
		<path class="st0" d="M112.8,60.6c0.1-0.9,0.9-1.6,1.8-1.5c0.8,0.1,1.5,0.7,1.5,1.5c0,0.9-0.7,1.6-1.6,1.6c0,0-0.1,0-0.1,0
			c-0.9,0-1.6-0.6-1.7-1.5C112.8,60.7,112.8,60.7,112.8,60.6z M113.1,63.8h2.8v10.3h-2.8V63.8z"/>
		<path class="st0" d="M118.7,63.8h2.2l0.4,1.4c0.8-1.1,2.2-1.8,3.6-1.7c2.4,0,4,1.6,4,4.3v6.3H126v-5.7c0-1.5-0.7-2.2-2.1-2.2
			c-1.3-0.1-2.4,0.9-2.5,2.2c0,0.1,0,0.2,0,0.3v5.4h-2.7L118.7,63.8z"/>
		<path class="st0" d="M142.3,69c0,3.2-2.1,5.4-5,5.4c-1.4,0.1-2.7-0.6-3.5-1.6l-0.4,1.4h-2.1V58.9h2.7V65c0.8-0.9,2-1.4,3.3-1.4
			C140.3,63.6,142.3,65.8,142.3,69z M139.5,69c0.1-1.4-0.9-2.7-2.3-2.8c-0.1,0-0.2,0-0.3,0c-1.6,0.1-2.8,1.4-2.7,3
			c0.1,1.4,1.2,2.6,2.7,2.7c1.5,0,2.7-1.2,2.7-2.7C139.5,69.1,139.5,69.1,139.5,69z"/>
		<path class="st0" d="M143.9,69c0-2.9,2.3-5.3,5.3-5.4c0.1,0,0.2,0,0.3,0c2.9-0.2,5.4,2,5.6,4.9c0,0.2,0,0.3,0,0.5
			c-0.1,3.1-2.8,5.5-5.9,5.4C146.3,74.3,144,71.9,143.9,69L143.9,69z M152.3,69c0.1-1.5-1-2.7-2.5-2.8c-0.1,0-0.2,0-0.3,0
			c-1.6,0-2.8,1.3-2.9,2.8s1.3,2.8,2.8,2.9S152.3,70.6,152.3,69C152.3,69,152.3,69,152.3,69z"/>
		<path class="st0" d="M163.2,74.1l-2.3-3.2l-2.3,3.2h-3.3l3.9-5.1l-3.7-5.1h3.2l2.1,3.1l2.1-3.1h3.2l-3.7,5.1l3.9,5.2H163.2z"/>
	</g>
</g>
</svg>
