<?xml version="1.0" encoding="utf-8"?>
<!-- Generator: Adobe Illustrator 24.0.2, SVG Export Plug-In . SVG Version: 6.00 Build 0)  -->
<svg version="1.1" id="Layer_1" xmlns="http://www.w3.org/2000/svg" xmlns:xlink="http://www.w3.org/1999/xlink" x="0px" y="0px"
	 viewBox="0 0 320 100" style="enable-background:new 0 0 320 100;" xml:space="preserve">
<style type="text/css">
	.st0{fill:#323E60;}
	.st1{fill:#7BB6DE;}
	.st2{fill:#FFFFFF;}
	.st3{clip-path:url(#SVGID_2_);}
	.st4{clip-path:url(#SVGID_4_);}
	.st5{clip-path:url(#SVGID_6_);}
</style>
<rect class="st0" width="320" height="100"/>
<path class="st1" d="M206,56.2h59.7c5.2,0,9.4,4.2,9.4,9.4l0,0c0,5.2-4.2,9.4-9.4,9.4H206c-5.2,0-9.4-4.2-9.4-9.4l0,0
	C196.6,60.4,200.8,56.2,206,56.2z"/>
<path class="st2" d="M216.5,67.5v1.1h-4.1v-6.3h1.2v5.1L216.5,67.5z"/>
<path class="st2" d="M221.3,66.8h-3.2c0.1,0.5,0.6,0.9,1.1,0.9c0.4,0.1,0.8-0.1,1-0.5l1,0.5c-0.4,0.7-1.2,1.1-2,1
	c-1.2,0.1-2.3-0.9-2.4-2.1c-0.1-1.2,0.9-2.3,2.1-2.4c0.1,0,0.2,0,0.3,0c1.2,0,2.1,0.9,2.1,2.1c0,0.1,0,0.2,0,0.2
	C221.4,66.5,221.4,66.7,221.3,66.8z M220.2,66c-0.1-0.5-0.5-0.9-1-0.8c-0.5-0.1-1,0.3-1.1,0.8H220.2z"/>
<path class="st2" d="M225.9,65.9v2.7h-0.8l-0.2-0.6c-0.3,0.5-0.9,0.7-1.5,0.7c-1,0-1.6-0.5-1.6-1.4s0.6-1.3,1.7-1.3
	c0.4,0,0.9,0.1,1.3,0.2V66c0-0.4-0.3-0.8-0.7-0.9c-0.1,0-0.1,0-0.2,0c-0.4,0-0.8,0.1-1.2,0.3l-0.6-0.8c0.6-0.4,1.2-0.6,1.9-0.5
	c1-0.1,1.8,0.5,2,1.5C225.9,65.7,225.9,65.8,225.9,65.9z M224.8,67L224.8,67c-0.3-0.2-0.6-0.3-0.9-0.3c-0.6,0-0.9,0.2-0.9,0.6
	s0.3,0.6,0.8,0.6C224.3,67.9,224.7,67.5,224.8,67C224.8,67,224.8,67,224.8,67z"/>
<path class="st2" d="M227.1,64.3h0.9l0.2,0.8c0.3-0.6,0.9-0.9,1.5-0.9c0.1,0,0.2,0,0.3,0l-0.1,1.2h-0.2c-1,0-1.4,0.4-1.4,1.6v1.7
	h-1.1L227.1,64.3z"/>
<path class="st2" d="M230.6,64.3h0.9l0.1,0.6c0.3-0.5,0.9-0.7,1.5-0.7c0.9,0,1.6,0.7,1.7,1.6c0,0.1,0,0.2,0,0.3v2.7h-1.2v-2.4
	c0-0.6-0.3-0.9-0.9-0.9c-0.6,0-1,0.4-1,0.9c0,0,0,0,0,0.1v2.3h-1.2V64.3z"/>
<path class="st2" d="M245.1,66v2.7H244v-2.4c0-0.6-0.3-0.9-0.8-0.9c-0.5,0-1,0.3-1,0.9c0,0,0,0.1,0,0.1v2.3h-1.2v-2.4
	c0-0.6-0.3-0.9-0.8-0.9c-0.5,0-1,0.3-1,0.9c0,0,0,0.1,0,0.1v2.3h-1.2v-4.3h0.9l0.1,0.6c0.3-0.5,0.9-0.7,1.4-0.7
	c0.6,0,1.1,0.3,1.3,0.8c0.4-0.5,1-0.8,1.6-0.8c0.9,0,1.6,0.6,1.7,1.5C245.2,65.8,245.2,65.9,245.1,66z"/>
<path class="st2" d="M246,66.4c0-1.2,1-2.3,2.2-2.3c0,0,0.1,0,0.1,0c1.2-0.1,2.3,0.8,2.4,2.1c0,0.1,0,0.1,0,0.2
	c0,1.3-1.1,2.4-2.4,2.4C247.1,68.8,246,67.7,246,66.4z M249.6,66.4c0-0.6-0.4-1.2-1.1-1.2c0,0-0.1,0-0.1,0c-0.7,0-1.2,0.5-1.2,1.2
	c0,0.7,0.5,1.2,1.2,1.2S249.6,67.1,249.6,66.4C249.6,66.4,249.6,66.4,249.6,66.4z"/>
<path class="st2" d="M251.6,64.3h0.9l0.2,0.8c0.3-0.6,0.9-0.9,1.5-0.9c0.1,0,0.2,0,0.3,0l-0.1,1.2h-0.2c-1,0-1.4,0.4-1.4,1.6v1.7
	h-1.2L251.6,64.3z"/>
<path class="st2" d="M259.2,66.8h-3.3c0.1,0.5,0.6,0.9,1.1,0.9c0.4,0,0.8-0.2,1-0.5l1,0.5c-0.7,1.1-2.1,1.4-3.2,0.7
	c-0.6-0.4-1-1.1-1-1.9c0-1.2,0.9-2.2,2.1-2.2c0.1,0,0.1,0,0.2,0c1.2,0,2.1,0.9,2.2,2c0,0.1,0,0.2,0,0.2
	C259.2,66.6,259.2,66.7,259.2,66.8z M258,66c-0.1-0.5-0.5-0.9-1-0.8c-0.5-0.1-1,0.3-1.1,0.8H258z"/>
<rect x="51.1" y="40.7" class="st2" width="2.6" height="12.6"/>
<g>
	<defs>
		<rect id="SVGID_1_" x="22" y="28.6" width="128" height="42.7"/>
	</defs>
	<clipPath id="SVGID_2_">
		<use xlink:href="#SVGID_1_"  style="overflow:visible;"/>
	</clipPath>
	<g class="st3">
		<path class="st2" d="M64.5,53.6c-3.6,0.1-6.7-2.7-6.9-6.3s2.7-6.7,6.3-6.9c0.2,0,0.3,0,0.5,0c1.6,0,3.1,0.4,4.4,1.3V44
			c-1.1-1-2.6-1.6-4.1-1.6c-2.3-0.1-4.3,1.7-4.4,4c0,0.2,0,0.4,0,0.5c-0.2,2.3,1.5,4.3,3.9,4.5c0.2,0,0.3,0,0.5,0
			c1.5,0,3-0.5,4.1-1.5v2.3C67.6,53.2,66.1,53.6,64.5,53.6"/>
	</g>
</g>
<polygon class="st2" points="78.8,42.7 78.8,53.3 76.2,53.3 76.2,42.7 71.9,42.7 71.9,40.7 83,40.7 83,42.7 "/>
<g>
	<defs>
		<rect id="SVGID_3_" x="22" y="28.6" width="128" height="42.7"/>
	</defs>
	<clipPath id="SVGID_4_">
		<use xlink:href="#SVGID_3_"  style="overflow:visible;"/>
	</clipPath>
	<g class="st4">
		<path class="st2" d="M92.1,42.3c-2.5,0-4.2,1.9-4.2,4.6s1.7,4.6,4.2,4.6s4.1-1.9,4.1-4.6S94.6,42.3,92.1,42.3 M92.1,53.7
			c-3.7-0.1-6.6-3.1-6.5-6.8c0.1-3.7,3.1-6.6,6.8-6.5c3.6,0.1,6.6,3.1,6.5,6.7c0,3.7-2.9,6.7-6.6,6.7C92.3,53.7,92.2,53.7,92.1,53.7
			"/>
		<path class="st2" d="M105.6,46.5h2c1.6,0,2.2-0.8,2.2-2s-0.6-2-2.2-2h-2V46.5z M112,53.5c-1.6,0-3.1-1-3.6-2.5l-1.3-2.7h-1.5v5
			H103V40.7h5c3,0,4.3,1.8,4.3,3.8c0.1,1.7-1.1,3.2-2.8,3.6l1.2,2.2c0.6,1.1,1.2,1.5,2.1,1.5c0.2,0,0.5,0,0.7-0.1v1.6
			C113.1,53.4,112.6,53.5,112,53.5"/>
	</g>
</g>
<rect x="118" y="40.7" class="st2" width="2.6" height="12.6"/>
<g>
	<defs>
		<rect id="SVGID_5_" x="22" y="28.6" width="128" height="42.7"/>
	</defs>
	<clipPath id="SVGID_6_">
		<use xlink:href="#SVGID_5_"  style="overflow:visible;"/>
	</clipPath>
	<g class="st5">
		<path class="st2" d="M27.6,40.3c-0.7,0.2-1.5,0.2-2.2-0.1c-0.6-0.3-1.1-0.8-1.4-1.5c-0.2-0.6-0.2-1.3,0.1-1.9
			c0.3-0.5,0.9-0.8,1.4-0.7c0.7,0.1,1.4,0.4,2,0.9c0.7,0.5,1.3,1.1,1.9,1.8c0.2,0.2,0.3,0.4,0.5,0.6C29.2,39.7,28.4,40,27.6,40.3
			 M82.2,30.6c-7.4-2-15.1-2.5-22.6-1.3c-7.5,1.2-14.8,3.4-21.8,6.4c-1.8,0.7-3.5,1.5-5.2,2.3c-0.2,0.1-0.5,0.2-0.7,0.4
			c-0.2-0.3-0.5-0.6-0.8-0.9c-0.7-0.8-1.4-1.5-2.2-2.1c-0.9-0.7-2-1.1-3.1-1.3c-1.3-0.1-2.6,0.6-3.3,1.8c-0.6,1.1-0.7,2.4-0.2,3.5
			c0.4,1.1,1.3,2,2.5,2.5c1.1,0.4,2.3,0.4,3.4,0.1c1-0.3,2.1-0.7,3-1.2c0.5,0.8,1.1,1.7,1.6,2.5l5.9,9.7l0,0
			c0.1,0.2,0.2,0.3,0.4,0.4c0.6,0.3,1.3,0.1,1.6-0.4l7.1-12.1c0-0.1,0.1-0.2,0.1-0.3h-2.6l-5.7,9.5l-5-7.9c-0.5-0.8-1-1.6-1.6-2.4
			l0.5-0.3c1.6-0.8,3.3-1.5,5-2.3c6.8-3.1,14-5.3,21.4-6.7c7.4-1.3,15-0.9,22.2,0.9c0.2,0.1,0.5-0.1,0.6-0.3c0,0,0,0,0,0
			C82.6,30.9,82.5,30.7,82.2,30.6"/>
		<path class="st2" d="M148,56.7c-0.1,0.6-0.6,1-1.2,1.1c-0.7,0-1.4-0.2-2-0.7c-0.7-0.5-1.4-1.1-2-1.8c-0.2-0.3-0.5-0.6-0.7-0.8
			c0.5-0.3,1-0.5,1.6-0.7c0.8-0.3,1.6-0.4,2.4-0.3c0.7,0.1,1.3,0.5,1.7,1.1C148.1,55.3,148.2,56,148,56.7 M149.4,53.7
			c-0.7-1.1-1.8-1.8-3-2c-1.1-0.1-2.2,0-3.3,0.4c-0.7,0.3-1.4,0.6-2.1,0.9c-0.5-0.7-1-1.5-1.4-2.3l-6.1-9.8l0,0
			c-0.1-0.2-0.2-0.3-0.4-0.4c-0.6-0.3-1.3-0.1-1.6,0.4c0,0,0,0,0,0l-7.2,12.1c0,0.1-0.1,0.2-0.1,0.3h2.6l5.6-9.5l5.2,8.2
			c0.4,0.7,0.9,1.4,1.4,2.2c-0.4,0.2-0.9,0.5-1.3,0.7c-1.7,0.8-3.5,1.7-5.2,2.7c-6.8,3.7-13.4,7.7-20.7,10c-7.3,2.3-15,3.2-22.7,2.7
			c-0.3,0-0.5,0.2-0.5,0.5c0,0.3,0.2,0.5,0.4,0.5c0,0,0,0,0,0c7.8,0.7,15.6-0.1,23.1-2.4c7.5-2.3,14.3-6.3,21.1-9.9
			c1.7-0.9,3.4-1.7,5.2-2.5c0.6-0.2,1.1-0.5,1.6-0.8c0.3,0.4,0.7,0.8,1.1,1.2c0.7,0.8,1.5,1.5,2.4,2.1c1,0.7,2.2,1,3.4,0.9
			c0.7-0.1,1.3-0.4,1.8-0.9c0.5-0.5,0.8-1,1-1.7C150.2,56,150,54.7,149.4,53.7"/>
		<path class="st2" d="M75.1,60.9h-0.6V62h0.6c0.4,0,0.6-0.2,0.6-0.6S75.5,60.9,75.1,60.9 M74.5,60.4H75c0.4,0,0.5-0.2,0.5-0.5
			s-0.2-0.5-0.5-0.5h-0.5L74.5,60.4z M75.2,62.5h-1.5V59h1.4c0.8,0,1.1,0.4,1.1,0.9c0,0.3-0.2,0.5-0.4,0.7c0.3,0.2,0.6,0.5,0.6,0.9
			C76.4,62.1,76,62.6,75.2,62.5"/>
		<path class="st2" d="M79.5,62.6c-1,0.1-1.9-0.7-2-1.7c-0.1-1,0.7-1.9,1.7-2c0.1,0,0.2,0,0.3,0c0.4,0,0.9,0.1,1.2,0.4v0.7
			c-0.3-0.3-0.7-0.4-1.2-0.4c-0.7,0.1-1.2,0.7-1.2,1.4c0.1,0.6,0.5,1.1,1.2,1.2c0.4,0,0.8-0.2,1.2-0.4v0.7
			C80.4,62.5,79.9,62.6,79.5,62.6"/>
		<path class="st2" d="M82.3,63.3l-0.1-0.2c0.2-0.1,0.4-0.4,0.4-0.6h-0.4v-0.7h0.7v0.6C82.9,62.8,82.7,63.2,82.3,63.3"/>
		<path class="st2" d="M88.1,62.6c-1,0.1-1.9-0.7-2-1.7c-0.1-1,0.7-1.9,1.7-2c0.1,0,0.2,0,0.3,0c0.4,0,0.9,0.1,1.2,0.4v0.7
			c-0.3-0.3-0.7-0.4-1.2-0.4c-0.7,0.1-1.2,0.7-1.2,1.4c0.1,0.6,0.5,1.1,1.2,1.2c0.4,0,0.8-0.2,1.2-0.4v0.7
			C88.9,62.5,88.5,62.6,88.1,62.6"/>
	</g>
</g>
<path class="st2" d="M92.2,59.8l-0.5,1.3h1L92.2,59.8z M93.3,62.5l-0.4-0.9h-1.4l-0.4,0.9h-0.7l1.5-3.5h0.6l1.5,3.5H93.3z"/>
<polygon class="st2" points="97.8,62.5 95.9,60.2 95.9,62.5 95.2,62.5 95.2,59 95.8,59 97.6,61.3 97.6,59 98.3,59 98.3,62.5 "/>
<path class="st2" d="M101.3,59.8l-0.5,1.3h1.1L101.3,59.8z M102.4,62.5l-0.4-0.9h-1.4l-0.4,0.9h-0.7L101,59h0.6l1.5,3.6L102.4,62.5z
	"/>
<path class="st2" d="M105.6,59.5h-0.5V62h0.5c1,0,1.3-0.5,1.3-1.2S106.6,59.6,105.6,59.5 M105.6,62.6h-1.3V59h1.3c1.4,0,2,0.8,2,1.8
	S107,62.6,105.6,62.6"/>
<path class="st2" d="M110.3,59.8l-0.5,1.3h1.1L110.3,59.8z M111.4,62.5l-0.4-0.9h-1.4l-0.4,0.9h-0.7L110,59h0.6l1.5,3.6L111.4,62.5z
	"/>
<path class="st2" d="M181.3,31.4h-3.1v7.8h-1.8v-7.8h-3.1v-1.7h8.1V31.4z"/>
<path class="st2" d="M182.4,29.4h1.8v3.9c0.5-0.6,1.3-1,2.2-0.9c1.4-0.1,2.5,1,2.6,2.4c0,0.1,0,0.2,0,0.4v4h-1.8v-3.6
	c0-1-0.5-1.5-1.3-1.5c-0.9,0-1.6,0.6-1.6,1.5c0,0,0,0.1,0,0.1v3.5h-1.8L182.4,29.4z"/>
<path class="st2" d="M196.9,36.5h-5c0.1,0.8,0.8,1.4,1.6,1.3c0.6,0.1,1.2-0.2,1.5-0.8l1.6,0.7c-1,1.6-3.2,2.1-4.8,1
	c-1-0.6-1.6-1.7-1.6-2.9c0-1.8,1.4-3.4,3.2-3.4c0.1,0,0.2,0,0.3,0c1.8,0,3.2,1.4,3.3,3.1c0,0.1,0,0.2,0,0.3
	C196.9,36.2,196.9,36.5,196.9,36.5z M195.2,35.2c-0.1-0.8-0.8-1.3-1.5-1.2c0,0,0,0,0,0c-0.8-0.1-1.5,0.4-1.7,1.2H195.2z"/>
<path class="st2" d="M201.1,32.6h1.9l1.2,4l0.1,0.8l0.1-0.8l1.2-4h1.5l1.2,4l0.1,0.8l0.1-0.8l1.4-4.4c0.5-1.8,1.3-2.5,2.6-2.8
	l0.6,1.5c-0.9,0.2-1.2,0.6-1.6,1.7l-2.3,6.5h-1.6l-1.3-4l-0.1-0.6l-0.1,0.6l-1.2,4h-1.6L201.1,32.6z"/>
<path class="st2" d="M211.8,35.9c0-1.9,1.5-3.4,3.4-3.4c0.1,0,0.1,0,0.2,0c1.9-0.1,3.5,1.2,3.6,3.1c0,0.1,0,0.2,0,0.4
	c0,2-1.6,3.6-3.6,3.6C213.4,39.5,211.8,37.9,211.8,35.9L211.8,35.9z M217.2,35.9c0.1-0.9-0.7-1.8-1.6-1.8c-0.1,0-0.1,0-0.2,0
	c-1,0-1.8,0.8-1.8,1.8s0.8,1.8,1.8,1.8S217.2,36.9,217.2,35.9C217.2,35.9,217.2,35.9,217.2,35.9z"/>
<path class="st2" d="M220.4,32.6h1.4l0.3,1.2c0.4-0.9,1.3-1.4,2.3-1.3c0.1,0,0.3,0,0.4,0l-0.1,1.8h-0.3c-1.5,0-2.1,0.7-2.1,2.4v2.6
	h-1.8L220.4,32.6z"/>
<path class="st2" d="M225.7,29.4h1.8v9.8h-1.8V29.4z"/>
<path class="st2" d="M236.7,28.8c-0.6,0.2-1,0.8-0.9,1.4v9h-1.3l-0.2-0.9c-0.5,0.7-1.4,1.1-2.2,1.1c-1.8,0-3.2-1.4-3.2-3.2
	c0-0.1,0-0.2,0-0.3c-0.1-1.8,1.2-3.3,2.9-3.4c0.1,0,0.1,0,0.2,0c0.8,0,1.5,0.3,2.1,0.8v-3.2c-0.1-1.3,0.7-2.5,2-2.8L236.7,28.8z
	 M234.1,35.9c0-1-0.7-1.8-1.6-1.8c0,0-0.1,0-0.1,0c-1,0-1.8,0.8-1.8,1.8c0,1,0.8,1.8,1.8,1.8c1,0,1.8-0.7,1.8-1.7
	C234.1,36,234.1,35.9,234.1,35.9z"/>
<path class="st2" d="M240.7,35.9c0-1.9,1.5-3.4,3.3-3.4c0.1,0,0.1,0,0.2,0c1.3,0,2.4,0.7,3,1.8l-1.6,0.6c-0.3-0.5-0.8-0.9-1.4-0.8
	c-1,0.1-1.8,0.9-1.7,1.9c0,0.9,0.7,1.6,1.6,1.7c0.7,0,1.3-0.3,1.6-0.9l1.6,0.6c-0.8,1.7-2.9,2.4-4.6,1.6
	C241.4,38.4,240.7,37.2,240.7,35.9L240.7,35.9z"/>
<path class="st2" d="M254.3,35.1v4.1h-1.3l-0.2-0.9c-0.5,0.7-1.4,1.1-2.3,1c-1.5,0-2.4-0.8-2.4-2.1s0.9-2,2.6-2
	c0.7,0,1.3,0.1,1.9,0.3v-0.3c0.1-0.7-0.4-1.2-1.1-1.3c-0.1,0-0.2,0-0.3,0c-0.6,0-1.3,0.2-1.8,0.5l-0.9-1.2c0.8-0.6,1.8-0.9,2.8-0.8
	C253.2,32.5,254.3,33.5,254.3,35.1z M252.6,36.8v-0.2c-0.4-0.2-0.9-0.2-1.4-0.2c-0.9,0-1.3,0.3-1.3,0.8s0.4,0.8,1.2,0.8
	C251.8,38.1,252.5,37.6,252.6,36.8C252.6,36.8,252.6,36.8,252.6,36.8L252.6,36.8z"/>
<path class="st2" d="M264.3,40.7v1.4c-0.2,0-0.4,0-0.5,0c-1.5,0.2-2.8-0.9-3-2.5c0-0.2,0-0.4,0-0.5v-3.6c0-1-0.5-1.5-1.3-1.5
	c-0.8-0.1-1.6,0.6-1.6,1.4c0,0.1,0,0.1,0,0.2v3.5H256v-6.6h1.4l0.2,0.9c0.5-0.7,1.4-1.1,2.2-1.1c1.4-0.1,2.5,1,2.6,2.4
	c0,0.1,0,0.2,0,0.4v4c-0.1,0.8,0.4,1.5,1.2,1.6c0.1,0,0.3,0,0.4,0L264.3,40.7z"/>
<path class="st2" d="M267,32.6h1.9l1.2,4l0.1,0.8l0.1-0.8l1.2-4h1.5l1.2,4l0.1,0.8l0.1-0.8l1.4-4.4c0.5-1.8,1.3-2.5,2.6-2.8l0.6,1.5
	c-0.9,0.2-1.2,0.6-1.6,1.7l-2.3,6.5h-1.6l-1.3-4l-0.1-0.6l-0.1,0.6l-1.2,4h-1.6L267,32.6z"/>
<path class="st2" d="M283.8,35.1v4.1h-1.3l-0.2-0.9c-0.5,0.7-1.4,1.1-2.3,1c-1.5,0-2.4-0.8-2.4-2.1s0.9-2,2.6-2
	c0.7,0,1.3,0.1,1.9,0.3v-0.3c0.1-0.7-0.4-1.2-1.1-1.3c-0.1,0-0.2,0-0.3,0c-0.6,0-1.3,0.2-1.8,0.5l-0.9-1.2c0.8-0.6,1.8-0.9,2.8-0.8
	C282.6,32.5,283.8,33.5,283.8,35.1z M282.1,36.8v-0.2c-0.4-0.2-0.9-0.2-1.4-0.2c-0.9,0-1.3,0.3-1.3,0.8s0.4,0.8,1.2,0.8
	C281.3,38.1,282,37.6,282.1,36.8C282,36.8,282,36.8,282.1,36.8L282.1,36.8z"/>
<path class="st2" d="M285.3,30.5c0-0.6,0.5-1.1,1.1-1.1s1.1,0.5,1.1,1.1l0,0c0,0.6-0.4,1-1,1c0,0-0.1,0-0.1,0
	C285.8,31.6,285.4,31.1,285.3,30.5C285.3,30.6,285.3,30.6,285.3,30.5z M285.5,32.6h1.8v6.6h-1.8V32.6z"/>
<path class="st2" d="M293.9,38.9c-0.6,0.3-1.2,0.4-1.9,0.4c-1.2,0.2-2.4-0.7-2.5-1.9c0-0.2,0-0.5,0-0.7v-2.7h-1.2v-1.3
	c1-0.1,1.5-0.7,1.6-2h1.4v1.8h2.2v1.5h-2.2v2.5c0,0.8,0.3,1.1,1,1.1c0.4,0,0.8-0.1,1.1-0.3L293.9,38.9z"/>
</svg>
