<svg xmlns="http://www.w3.org/2000/svg" viewBox="0 0 136.62 34.58"><defs><style>.cls-1{fill:#fff;}</style></defs><title>t4</title><g id="Layer_2" data-name="Layer 2"><g id="Layer_1-2" data-name="Layer 1"><path class="cls-1" d="M120.33,33.8h16.29V25.32h-6.85v-3.9h6.4V12.89h-6.4V9.35h6.85V.73H120.33Zm-11.16,0h9.3V.73h-9.3Zm-1.63-20H95.28v7.71h2.86v.73c0,2.22-.54,3-2,3-2.41,0-3.45-2.27-3.45-7.58,0-5.94,1.63-8.44,5.62-8.44,2.32,0,3.77.73,5.81,2.95V1.45A15.16,15.16,0,0,0,97.37,0C88.43,0,82.85,6.72,82.85,17.51s4.9,17.07,13.07,17.07c7.4,0,11.62-4.95,11.62-13.66Zm-35.4,20h9.31V.73H72.14ZM56.67,20.6,57.9,10.48,59.17,20.6ZM44.83,33.8h10l.91-5h4.4l.91,5H71.15L64.57.73H50.91ZM30.67,8.71h1c1.63,0,2.4.91,2.4,2.91s-.82,2.81-2.4,2.81h-1ZM21.23,33.8h9.31V22.32h.95L34.67,33.8h9.89L39.75,19.69c3-2.18,4-4.22,4-8.44a10.72,10.72,0,0,0-3.09-8C38.75,1.36,36.8.73,32.85.73H21.23Zm-1.58-.9V21.14a3.41,3.41,0,0,1-.32.5c-1.41,2.45-2.5,3.18-4.58,3.18-3,0-4.63-2.54-4.63-7.53s1.72-7.85,4.81-7.85c2,0,3.26.81,4.72,3.08V1.5l-.55-.18C16.11.23,15.06,0,13.25,0A11.57,11.57,0,0,0,3,5.44,24.77,24.77,0,0,0,0,17.88C0,28,4.9,34.58,12.52,34.58c2.09,0,3.63-.37,7.13-1.68"/></g></g></svg>