<svg xmlns="http://www.w3.org/2000/svg" viewBox="0 0 136.61 48.77"><defs><style>.cls-1{fill:#fff;}</style></defs><title>your</title><g id="Layer_2" data-name="Layer 2"><g id="Layer_1-2" data-name="Layer 1"><polygon class="cls-1" points="13.39 1.15 17.28 16.51 21.16 1.15 34.04 1.15 23.4 31.81 23.4 47.62 10.65 47.62 10.65 31.81 0 1.15 13.39 1.15"/><path class="cls-1" d="M44.05,24.23a24.87,24.87,0,0,0,1.34,8.16,4.08,4.08,0,0,0,3.76,2.74c3.25,0,5.16-4,5.16-10.78s-2-10.71-5.16-10.71-5.1,4-5.1,10.59m24,.76c0,14.73-7.2,23.78-18.93,23.78-11.92,0-18.87-9.05-18.87-24.48C30.28,9.05,37.35,0,49.21,0c12,0,18.87,9,18.87,25"/><path class="cls-1" d="M82.87,1.15v29c0,2.87.83,4.08,2.74,4.08s2.74-1.21,2.74-4.08v-29h13.07V31.56c0,11.54-5.1,17-15.81,17S69.8,43.1,69.8,31.56V1.15Z"/><path class="cls-1" d="M117.1,20.4h1.34c2.23,0,3.38-1.34,3.38-3.95,0-2.81-1.08-4.08-3.38-4.08H117.1ZM103.84,1.15h16.32c5.55,0,8.29.89,11,3.5,2.87,2.81,4.33,6.57,4.33,11.29,0,5.93-1.4,8.8-5.61,11.86l6.76,19.82h-13.9l-4.46-16.13h-1.34V47.62H103.84Z"/></g></g></svg>