<?xml version="1.0" encoding="utf-8"?>
<!-- Generator: Adobe Illustrator 25.3.1, SVG Export Plug-In . SVG Version: 6.00 Build 0)  -->
<svg version="1.1" id="Layer_1" xmlns="http://www.w3.org/2000/svg" xmlns:xlink="http://www.w3.org/1999/xlink" x="0px" y="0px"
	 viewBox="0 0 300 250" style="enable-background:new 0 0 300 250;" xml:space="preserve">
<style type="text/css">
	.st0{fill:#FFFFFF;}
</style>
<path class="st0" d="M186.9,43.7c5,0.2,9,4.5,8.8,9.5s-4.5,9-9.5,8.8c-4.9-0.2-8.8-4.2-8.8-9.1c0.1-5.1,4.2-9.2,9.3-9.1
	C186.8,43.7,186.8,43.7,186.9,43.7z M186.9,58.4c3.1,0,5.6-2.5,5.6-5.6c0-3.1-2.5-5.6-5.6-5.6c-3.1,0-5.6,2.5-5.6,5.6
	C181.2,55.9,183.7,58.4,186.9,58.4C186.8,58.4,186.9,58.4,186.9,58.4z"/>
<path class="st0" d="M198.4,49.3h3.4V51h0.1c0.3-0.4,0.6-0.7,0.9-1c0.8-0.6,1.7-1,2.7-1h0.2v3.6l-0.3,0c-0.3-0.1-0.6-0.1-0.9-0.1
	c-1.6,0-2.9,1.4-2.9,3c0,0.1,0,0.2,0,0.3v5.8h-3.4V49.3z"/>
<path class="st0" d="M209,49.3h3.6l2.2,7.2h0.1l2.4-7.2h2.8l2.4,7.2h0.1l2.2-7.2h3.6l-4.3,12.2h-3.1l-2.3-7.1h-0.1l-2.3,7.1h-3.1
	L209,49.3z"/>
<path class="st0" d="M230.9,43.9c1,0.1,1.8,1,1.8,2c-0.1,1-1,1.8-2,1.8c-1-0.1-1.8-0.9-1.8-1.9C229,44.7,229.9,43.9,230.9,43.9
	C230.9,43.9,230.9,43.9,230.9,43.9z M229.2,49.3h3.4v12.3h-3.4V49.3z"/>
<path class="st0" d="M235.2,44h3.4v17.5h-3.4V44z"/>
<path class="st0" d="M241.4,44h3.4v17.5h-3.4V44z"/>
<path class="st0" d="M196.6,92.7l-0.4,0.1c-0.3,0-0.6,0.1-0.9,0.1c-2,0-4-0.7-5.6-2c-0.7-0.6-1.2-1.2-1.6-2l-0.4,0.1
	c-0.2,0-0.5,0-0.9,0c-5-0.2-9-4.4-8.8-9.5c0.2-5,4.4-9,9.5-8.8c4.9,0.2,8.8,4.2,8.8,9.1c0,2.3-0.9,4.5-2.4,6.1
	c-0.7,0.7-1.5,1.3-2.4,1.8c0.3,0.4,0.6,0.7,1,1c0.9,0.6,1.9,0.9,3,0.9c0.3,0,0.5,0,0.8-0.1l0.3-0.1L196.6,92.7z M186.9,85.4
	c3.1,0,5.6-2.5,5.6-5.6c0-3.1-2.5-5.6-5.6-5.6c-3.1,0-5.6,2.5-5.6,5.6C181.2,82.9,183.7,85.4,186.9,85.4
	C186.8,85.4,186.9,85.4,186.9,85.4L186.9,85.4z"/>
<path class="st0" d="M199,71.1h3.8V85h8.1v3.5H199V71.1z"/>
<path class="st0" d="M212.9,71.1h6.4c5.4,0,9.2,3.9,9.2,8.7s-3.9,8.8-9.2,8.8h-6.4V71.1z M219.3,85.1c2.9,0.1,5.3-2.1,5.5-5
	c0.1-2.9-2.1-5.3-5-5.5c-0.2,0-0.3,0-0.5,0h-2.6V85L219.3,85.1z"/>
<path class="st0" d="M237,89.2c0.3,0.3,0.6,0.5,0.9,0.8c0.7,0.5,1.5,0.7,2.4,0.8c1.8,0,3.2-1.4,3.3-3.1c0-0.1,0-0.2,0-0.3v-1h-0.1
	c-0.3,0.4-0.6,0.7-0.9,1c-0.8,0.7-1.8,1-2.9,1c-2.7,0-5.2-2.5-5.2-6.1s2.5-6.2,5.2-6.2c1,0,2,0.3,2.9,1c0.3,0.3,0.6,0.6,0.9,1h0.1
	v-1.7h3.4v11c0.1,3.5-2.7,6.4-6.2,6.5c-0.1,0-0.3,0-0.4,0c-1.4,0-2.8-0.4-4-1.2c-0.5-0.3-1-0.8-1.3-1.2L237,89.2z M243.5,82.2
	c-0.1-1.6-1.4-2.8-3-2.8s-2.8,1.4-2.8,3c0.1,1.5,1.3,2.8,2.9,2.8c1.6,0,2.9-1.2,2.9-2.8C243.5,82.3,243.5,82.2,243.5,82.2
	L243.5,82.2z"/>
<path class="st0" d="M260.4,86.8c-0.4,0.4-0.9,0.7-1.4,1c-1.2,0.7-2.5,1-3.9,1c-3.5,0-6.4-2.8-6.5-6.3c0-3.5,2.8-6.4,6.3-6.5l0,0
	c3.4,0,6.1,2.7,6.1,6.1c0,0.4,0,0.7-0.1,1.1l0,0.4h-8.9c0.5,1.4,1.8,2.2,3.2,2.1c0.9,0,1.7-0.2,2.4-0.7c0.3-0.2,0.6-0.4,0.8-0.7
	L260.4,86.8z M257.6,81.2c-0.4-1.5-1.9-2.4-3.5-2c-1,0.3-1.8,1-2,2H257.6z"/>
<path class="st0" d="M263.9,79.7h-2.1v-3.1h1.1c0.9,0,1.4-0.5,1.4-1.5v-2.2h3v3.7h2.7v3.1h-2.8v4.1c-0.1,0.8,0.5,1.6,1.3,1.7
	c0.1,0,0.2,0,0.3,0c0.3,0,0.7,0,1-0.1c0.1,0,0.3-0.1,0.4-0.1v3.1c-0.2,0.1-0.4,0.1-0.6,0.2c-0.5,0.1-1.1,0.2-1.6,0.2
	c-2.5,0-4.1-1.6-4.1-4.5L263.9,79.7z"/>
<path class="st0" d="M184.8,114h-0.1c-0.3,0.3-0.6,0.6-0.9,0.9c-0.8,0.6-1.7,0.9-2.7,0.9c-1.9,0.1-3.6-1.3-3.7-3.2
	c0-0.1,0-0.2,0-0.3c0-2,1.6-3.7,3.6-3.9l3.9-0.7c-0.2-1-1.1-1.7-2.1-1.6c-0.7,0-1.4,0.3-2,0.7c-0.3,0.2-0.5,0.4-0.7,0.7l-2-2
	c0.4-0.5,0.8-0.8,1.3-1.2c1.1-0.8,2.4-1.2,3.7-1.2c2.7-0.2,5.1,1.9,5.2,4.6c0,0.1,0,0.2,0,0.3v7.6h-3.4L184.8,114z M184.8,110
	l-2.8,0.5c-0.9,0.2-1.4,0.6-1.4,1.2c0,0.8,0.5,1.2,1.5,1.2c1.4,0,2.6-1.1,2.6-2.6c0-0.1,0-0.1,0-0.2V110z"/>
<path class="st0" d="M195.9,111.4c0.3,0.3,0.6,0.5,0.9,0.7c0.7,0.4,1.5,0.7,2.4,0.7c1.1,0,1.5-0.4,1.5-0.9c0-1.4-6.2-1.1-6.2-5.1
	c0-2,1.8-3.8,4.9-3.8c1.2,0,2.5,0.3,3.6,0.9c0.4,0.3,0.8,0.6,1.2,0.9l-2,2.1c-0.2-0.2-0.5-0.4-0.7-0.5c-0.6-0.3-1.3-0.5-2-0.5
	c-0.9,0-1.2,0.4-1.2,0.8c0,1.4,6.2,1.1,6.2,5.1c0,2.1-1.8,3.9-5.1,3.9c-1.4,0-2.7-0.4-3.9-1.1c-0.5-0.3-1-0.7-1.4-1.1L195.9,111.4z"
	/>
<path class="st0" d="M206,98.1h3.4v17.5H206V98.1z"/>
<path class="st0" d="M213.7,97.9c1,0.1,1.8,1,1.8,2c-0.1,1-1,1.8-2,1.8c-1-0.1-1.8-0.9-1.8-1.9C211.7,98.7,212.6,97.9,213.7,97.9
	C213.7,97.9,213.7,97.9,213.7,97.9z M212,103.3h3.4v12.2H212L212,103.3z"/>
<path class="st0" d="M228.8,113.3c-0.3,0.5-0.8,0.9-1.2,1.2c-2.8,2.2-6.8,1.7-9-1.1c-2.2-2.8-1.7-6.8,1.1-9c1.2-0.9,2.6-1.4,4-1.4
	c1.4,0,2.7,0.4,3.9,1.2c0.5,0.3,0.9,0.8,1.2,1.2l-2.1,2.1c-0.2-0.3-0.5-0.5-0.8-0.8c-0.6-0.5-1.4-0.7-2.2-0.8
	c-1.8,0-3.2,1.5-3.2,3.2s1.5,3.2,3.2,3.2c0.8,0,1.6-0.3,2.2-0.8c0.3-0.2,0.6-0.5,0.8-0.8L228.8,113.3z"/>
<path class="st0" d="M240.9,113.8c-0.4,0.4-0.9,0.7-1.4,1c-1.2,0.7-2.5,1-3.9,1c-3.5,0.2-6.5-2.5-6.7-6.1s2.5-6.5,6.1-6.7
	c0.2,0,0.3,0,0.5,0c3.4,0,6.1,2.7,6.1,6.1c0,0.4,0,0.7-0.1,1.1v0.4h-8.9c0.5,1.4,1.8,2.2,3.2,2.1c0.9,0,1.7-0.2,2.4-0.7
	c0.3-0.2,0.6-0.4,0.8-0.7L240.9,113.8z M238.1,108.2c-0.4-1.5-1.9-2.4-3.5-2c-1,0.3-1.8,1-2,2H238.1z"/>
<path class="st0" d="M183.6,130c3.5,0.1,6.3,3,6.3,6.5c-0.1,3.5-3,6.3-6.5,6.3c-3.5-0.1-6.3-2.9-6.3-6.4
	C177.2,132.8,180.1,130,183.6,130C183.6,130,183.6,130,183.6,130z M186.8,136.4c-0.1-1.7-1.5-3.1-3.2-3c-1.7,0.1-3.1,1.5-3,3.2
	c0.1,1.7,1.5,3,3.1,3c1.7,0,3.1-1.4,3.1-3.1C186.8,136.5,186.8,136.5,186.8,136.4L186.8,136.4z"/>
<path class="st0" d="M192.6,133.7h-1.9v-3.1h1.9v-1.2c0-2.9,1.6-4.5,4.1-4.5c0.5,0,1.1,0.1,1.6,0.2c0.2,0.1,0.4,0.1,0.6,0.2v3.1
	c-0.1,0-0.2-0.1-0.4-0.1c-0.3-0.1-0.7-0.1-1-0.1c-0.8-0.1-1.6,0.6-1.6,1.4c0,0.1,0,0.2,0,0.3v0.8h2.8v3.1H196v8.9h-3.4L192.6,133.7z
	"/>
<path class="st0" d="M206,133.7h-2.1v-3.1h1.1c0.9,0,1.4-0.5,1.4-1.5v-2.2h3v3.7h2.8v3.1h-2.8v4.1c-0.1,0.8,0.5,1.6,1.3,1.7
	c0.1,0,0.2,0,0.3,0c0.3,0,0.7,0,1-0.1c0.1,0,0.3-0.1,0.4-0.1v3.1c-0.2,0.1-0.4,0.1-0.6,0.2c-0.5,0.1-1.1,0.2-1.6,0.2
	c-2.5,0-4.1-1.6-4.1-4.5L206,133.7z"/>
<path class="st0" d="M214.4,125.1h3.4v7h0.1c0.3-0.4,0.6-0.7,0.9-1c0.8-0.6,1.7-1,2.7-1c2.5,0,4.5,2,4.5,5.1v7.4h-3.4v-6.9
	c0.1-1.2-0.7-2.2-1.9-2.4c-0.1,0-0.3,0-0.4,0c-1.4,0-2.6,1.1-2.6,2.6c0,0.1,0,0.1,0,0.2v6.5h-3.4V125.1z"/>
<path class="st0" d="M239.5,140.8c-0.4,0.4-0.9,0.7-1.4,1c-1.2,0.7-2.5,1-3.9,1c-3.5,0.2-6.5-2.5-6.7-6.1c-0.2-3.5,2.5-6.5,6.1-6.7
	c0.2,0,0.3,0,0.5,0c3.4,0,6.1,2.7,6.1,6.1c0,0.5-0.1,0.8-0.1,1.1l-0.1,0.4h-8.9c0.5,1.4,1.8,2.2,3.2,2.1c0.9,0,1.7-0.2,2.4-0.7
	c0.3-0.2,0.6-0.4,0.8-0.7L239.5,140.8z M236.8,135.2c-0.4-1.5-1.9-2.4-3.5-2c-1,0.3-1.8,1-2,2H236.8z"/>
<path class="st0" d="M178.6,165.4c0.3,0.3,0.6,0.5,0.9,0.7c0.7,0.4,1.5,0.7,2.4,0.7c1.1,0,1.5-0.4,1.5-0.9c0-1.4-6.2-1.1-6.2-5.1
	c0-2,1.8-3.8,4.9-3.8c1.3,0,2.5,0.3,3.6,1c0.4,0.3,0.8,0.6,1.2,0.9l-2,2.1c-0.2-0.2-0.5-0.4-0.7-0.5c-0.6-0.3-1.3-0.5-2-0.5
	c-0.9,0-1.2,0.4-1.2,0.8c0,1.4,6.2,1.1,6.2,5.1c0,2.1-1.8,3.9-5.1,3.9c-1.4,0-2.7-0.4-3.9-1.1c-0.5-0.3-1-0.7-1.4-1.1L178.6,165.4z"
	/>
<path class="st0" d="M199.5,167.8c-0.4,0.4-0.9,0.7-1.4,1c-1.2,0.7-2.5,1-3.9,1c-3.5,0.2-6.5-2.5-6.7-6.1s2.5-6.5,6.1-6.7
	c0.2,0,0.3,0,0.5,0c3.4,0,6.1,2.7,6.1,6.1c0,0.4,0,0.7-0.1,1.1v0.4h-8.9c0.5,1.4,1.8,2.2,3.2,2.1c0.9,0,1.7-0.2,2.4-0.7
	c0.3-0.2,0.6-0.4,0.8-0.7L199.5,167.8z M196.8,162.2c-0.4-1.5-1.9-2.4-3.5-2c-1,0.3-1.8,1-2,2H196.8z"/>
<path class="st0" d="M202.1,157.3h3.4v1.7h0.1c0.3-0.4,0.6-0.7,0.9-1c0.8-0.6,1.7-1,2.7-1h0.2v3.6h-0.3c-0.3-0.1-0.6-0.1-0.9-0.1
	c-1.6,0-2.9,1.4-2.9,3c0,0.1,0,0.2,0,0.3v5.8H202L202.1,157.3z"/>
<path class="st0" d="M212.5,151.9c1,0,1.8,0.9,1.8,1.9c0,1-0.9,1.8-1.9,1.8c-1,0-1.8-0.9-1.8-1.9
	C210.6,152.7,211.5,151.9,212.5,151.9z M210.8,157.3h3.4v12.2h-3.4V157.3z"/>
<path class="st0" d="M227.7,167.8c-0.4,0.4-0.9,0.7-1.4,1c-1.2,0.7-2.5,1-3.9,1c-3.5,0.2-6.5-2.5-6.7-6.1s2.5-6.5,6.1-6.7
	c0.2,0,0.3,0,0.5,0c3.4,0,6.1,2.7,6.1,6.1c0,0.5-0.1,0.8-0.1,1.1l-0.1,0.4h-8.9c0.5,1.4,1.8,2.2,3.2,2.1c0.9,0,1.7-0.2,2.4-0.7
	c0.3-0.2,0.6-0.4,0.8-0.7L227.7,167.8z M225,162.2c-0.4-1.5-1.9-2.4-3.5-2c-1,0.3-1.8,1-2,2H225z"/>
<path class="st0" d="M231,165.4c0.3,0.3,0.6,0.5,0.9,0.7c0.7,0.4,1.5,0.7,2.4,0.7c1.1,0,1.5-0.4,1.5-0.9c0-1.4-6.2-1.1-6.2-5.1
	c0-2,1.8-3.8,4.9-3.8c1.3,0,2.5,0.4,3.6,1c0.4,0.3,0.8,0.6,1.2,0.9l-2,2.1c-0.2-0.2-0.5-0.4-0.7-0.5c-0.6-0.3-1.3-0.5-2-0.5
	c-0.9,0-1.2,0.4-1.2,0.8c0,1.4,6.2,1.1,6.2,5.1c0,2.1-1.8,3.9-5.1,3.9c-1.4,0-2.7-0.4-3.9-1.1c-0.5-0.3-1-0.7-1.4-1.1L231,165.4z"/>
<path class="st0" d="M244,164.2c-0.1-0.1-0.1-0.2-0.1-0.3c-0.1-0.3-0.1-0.5-0.1-0.8c0-3.4,4.4-3.9,4.4-5.9c-0.1-1.1-1.1-1.9-2.2-1.8
	c0,0,0,0,0,0c-0.9,0-1.8,0.4-2.4,1c-0.3,0.3-0.5,0.6-0.7,1l-3.2-1.5c0.3-0.7,0.7-1.4,1.3-2c1.3-1.4,3.2-2.1,5.1-2.1
	c3.9,0,6.2,2.4,6.2,5.1c0,4.2-4.9,4.2-4.9,7.2L244,164.2z M245.5,165.8c1.1,0,2,0.9,2,2s-0.9,2-2,2s-2-0.9-2-2
	C243.5,166.7,244.4,165.8,245.5,165.8C245.5,165.8,245.5,165.8,245.5,165.8L245.5,165.8z"/>
</svg>
