<?xml version="1.0" encoding="utf-8"?>
<!-- Generator: Adobe Illustrator 19.0.0, SVG Export Plug-In . SVG Version: 6.00 Build 0)  -->
<svg version="1.1" id="Layer_1" xmlns="http://www.w3.org/2000/svg" xmlns:xlink="http://www.w3.org/1999/xlink" x="0px" y="0px"
	 viewBox="0 0 112 43.2286" style="enable-background:new 0 0 112 43.2286;" xml:space="preserve">
<style type="text/css">
	.st0{fill-rule:evenodd;clip-rule:evenodd;fill:#FCD800;}
	.st1{fill:#231F20;}
</style>
<g id="XMLID_46_">
	<g id="XMLID_50_">
		<rect id="XMLID_75_" class="st0" width="112" height="43.2286"/>
	</g>
	<g id="XMLID_49_">
		<path id="XMLID_69_" class="st1" d="M12.72,16.2826v-1.8681h5.1843c0,1.3408-0.243,2.4033-0.728,3.1873
			c-0.485,0.785-1.1903,1.4028-2.115,1.8524c-0.9247,0.4506-1.9625,0.6758-3.1125,0.6758c-1.998,0-3.5306-0.5351-4.5989-1.6054
			s-1.6015-2.4298-1.6015-4.0785c0-1.1451,0.2646-2.1554,0.7949-3.0328c0.5292-0.8775,1.2425-1.5386,2.1386-1.9842
			c0.8952-0.4446,1.8681-0.668,2.9177-0.668c1.4835,0,2.6393,0.361,3.4657,1.0821v-0.907h1.877v3.928h-1.877
			c-0.1958-0.663-0.5853-1.1854-1.1687-1.5661c-0.5824-0.3817-1.208-0.5725-1.876-0.5725c-0.8795,0-1.63,0.3109-2.2498,0.9336
			c-0.6198,0.6227-0.9306,1.4854-0.9306,2.5882c0,1.2611,0.3158,2.2222,0.9463,2.8823c0.6306,0.6591,1.3998,0.9896,2.3059,0.9896
			c0.668,0,1.2218-0.1623,1.6615-0.485c0.4397-0.3236,0.7447-0.7742,0.9139-1.3516H12.72z"/>
		<path id="XMLID_71_" class="st1" d="M18.8417,19.9952v-1.8681h1.3271v-7.3229h-1.3271V8.9361h9.7468v3.506h-2.115v-1.6379h-3.4263
			v2.5528h2.7663v1.8681h-2.7663v2.902h3.4263v-1.6537h2.115v3.5218H18.8417z"/>
		<path id="XMLID_73_" class="st1" d="M31.5623,19.9952v-1.8681h1.6615v-7.3229h-1.6615v2.5764h-1.9006V8.9361H39.687v4.4445h-1.876
			v-2.5764h-1.7097v7.3229h1.6615v1.8681H31.5623z"/>
	</g>
	<g id="XMLID_48_">
		<path id="XMLID_52_" class="st1" d="M5.6843,35.8205v-3.7687h1.876c0.0216,0.6896,0.2017,1.1972,0.5411,1.5228
			c0.3394,0.3256,0.726,0.4889,1.1608,0.4889c0.3384,0,0.6247-0.118,0.8588-0.3541c0.2331-0.2351,0.3492-0.5125,0.3492-0.8303
			c0-0.3394-0.1141-0.6247-0.3414-0.8549c-0.2282-0.2302-0.6443-0.4928-1.2503-0.788c-1.2788-0.6158-2.1475-1.1598-2.6039-1.632
			c-0.4574-0.4732-0.6857-1.1096-0.6857-1.9114c0-0.967,0.302-1.7156,0.906-2.2459c0.604-0.5312,1.2907-0.7968,2.0589-0.7968
			c0.8804,0,1.5612,0.3433,2.0432,1.03v-0.9188h1.8691v3.3634h-1.8691c-0.058-0.5194-0.2371-0.9208-0.5361-1.2051
			c-0.3-0.2833-0.6483-0.425-1.0457-0.425c-0.3069,0-0.5666,0.0826-0.7791,0.2469c-0.2115,0.1643-0.3177,0.3787-0.3177,0.6434
			c0,0.2282,0.0876,0.4446,0.2627,0.6483c0.1741,0.2036,0.6866,0.4928,1.5356,0.8677c0.8165,0.364,1.4441,0.6925,1.8809,0.9877
			c0.4358,0.2941,0.7821,0.6758,1.0359,1.146c0.2538,0.4692,0.3807,1.0113,0.3807,1.6271c0,1.0929-0.3177,1.9143-0.9542,2.4662
			c-0.6355,0.5519-1.388,0.8273-2.2577,0.8273c-0.97,0-1.7166-0.3591-2.2419-1.0772v0.9424H5.6843z"/>
		<path id="XMLID_54_" class="st1" d="M15.6308,35.8205v-1.8681h1.6615v-7.3229h-1.6615v2.5764h-1.9006v-4.4445h10.0252v4.4445
			h-1.876v-2.5764h-1.7097v7.3229h1.6615v1.8681H15.6308z"/>
		<path id="XMLID_56_" class="st1" d="M30.7242,24.5863c1.9084,0,3.4096,0.5519,4.5045,1.6537
			c1.0939,1.1028,1.6418,2.4465,1.6418,4.0313c0,1.5897-0.5489,2.9345-1.6458,4.0343c-1.0978,1.0998-2.597,1.6497-4.5006,1.6497
			c-1.9763,0-3.4952-0.5656-4.5547-1.6969c-1.0605-1.1313-1.5907-2.4603-1.5907-3.9871c0-1.5799,0.545-2.9217,1.634-4.0264
			C27.3018,25.1391,28.8059,24.5863,30.7242,24.5863z M30.7242,26.6059c-0.848,0-1.5671,0.3187-2.1583,0.9542
			c-0.5912,0.6365-0.8863,1.5691-0.8863,2.7987c0,1.086,0.2912,1.9557,0.8745,2.6079c0.5834,0.6512,1.3064,0.9778,2.1701,0.9778
			c0.848,0,1.569-0.3197,2.1632-0.9582c0.5932-0.6384,0.8903-1.5592,0.8903-2.7633c0-1.0752-0.2833-1.9478-0.8509-2.6148
			C32.3601,26.9403,31.6253,26.6059,30.7242,26.6059z"/>
		<path id="XMLID_59_" class="st1" d="M49.1593,33.9524v1.8681H45.791l-2.4977-4.8419h-1.2651v2.9738h1.3831v1.8681H37.632v-1.8681
			h1.5179v-7.3229H37.632v-1.8681h6.6697c1.2562,0,2.1613,0.3168,2.7151,0.9503c0.5538,0.6335,0.8312,1.3507,0.8312,2.1504
			c0,1.2562-0.6384,2.1731-1.9163,2.7505l1.7973,3.3398H49.1593z M42.0283,29.2137h0.9857c1.2188,0,1.8288-0.4348,1.8288-1.3034
			c0-0.4299-0.1387-0.7506-0.4171-0.9621c-0.2784-0.2125-0.6611-0.3187-1.149-0.3187h-1.2484V29.2137z"/>
		<path id="XMLID_62_" class="st1" d="M60.0236,33.9524v1.8681h-5.4381v-1.8681h1.4156l-0.5253-1.9006h-2.8695l-0.5883,1.9006
			h1.4785v1.8681h-4.897v-1.8681h1.3674l2.1544-7.3229h-1.4707v-1.8681h7.2186v1.8681h-1.4864l2.3206,7.3229H60.0236z
			 M55.0233,30.4306l-0.9227-3.3319l-0.9936,3.3319H55.0233z"/>
		<path id="XMLID_65_" class="st1" d="M67.1311,32.1079v-1.8681h5.1843c0,1.3408-0.243,2.4033-0.728,3.1873
			c-0.485,0.785-1.1903,1.4028-2.115,1.8524c-0.9247,0.4505-1.9625,0.6758-3.1125,0.6758c-1.998,0-3.5306-0.5351-4.5989-1.6054
			c-1.0683-1.0703-1.6015-2.4298-1.6015-4.0785c0-1.1451,0.2646-2.1554,0.7949-3.0328c0.5292-0.8775,1.2425-1.5386,2.1386-1.9842
			c0.8952-0.4446,1.8681-0.668,2.9177-0.668c1.4835,0,2.6394,0.361,3.4657,1.0821v-0.907h1.877v3.928h-1.877
			c-0.1958-0.663-0.5853-1.1854-1.1687-1.5661c-0.5824-0.3817-1.208-0.5725-1.876-0.5725c-0.8794,0-1.63,0.3109-2.2498,0.9336
			s-0.9306,1.4854-0.9306,2.5882c0,1.2611,0.3158,2.2222,0.9464,2.8823c0.6306,0.6591,1.3998,0.9896,2.3059,0.9896
			c0.668,0,1.2218-0.1623,1.6615-0.485c0.4397-0.3237,0.7447-0.7742,0.9139-1.3516H67.1311z"/>
		<path id="XMLID_67_" class="st1" d="M73.2696,35.8205v-1.8681h1.3271v-7.3229h-1.3271v-1.8681h9.7468v3.506h-2.115v-1.6379H77.475
			v2.5528h2.7663v1.8681H77.475v2.902h3.4263v-1.6537h2.115v3.5218H73.2696z"/>
	</g>
	<g id="XMLID_47_">
		<polygon id="XMLID_51_" class="st1" points="97.2629,22.1059 97.2629,16.4337 102.1747,19.2704 107.0877,22.1059 
			102.1747,24.9427 97.2629,27.7783 		"/>
	</g>
</g>
</svg>
