<svg xmlns="http://www.w3.org/2000/svg" xmlns:xlink="http://www.w3.org/1999/xlink" viewBox="0 0 106 17.67"><defs><style>.cls-1{fill:none;}.cls-2{clip-path:url(#clip-path);}.cls-3{fill:url(#linear-gradient);}.cls-4{fill:#fff;}</style><clipPath id="clip-path" transform="translate(0 0)"><rect class="cls-1" width="106" height="17.67"/></clipPath><linearGradient id="linear-gradient" x1="-840.84" y1="-1481.78" x2="-839.93" y2="-1481.78" gradientTransform="matrix(116, 0, 0, -116, 97537.88, -171877.25)" gradientUnits="userSpaceOnUse"><stop offset="0" stop-color="#916942"/><stop offset="0" stop-color="#916942"/><stop offset="0.12" stop-color="#99724c"/><stop offset="0.31" stop-color="#b08b68"/><stop offset="0.44" stop-color="#c19e7e"/><stop offset="0.71" stop-color="#ba9472"/><stop offset="1" stop-color="#9e7147"/></linearGradient></defs><title>cta-en-320x100</title><g id="Layer_2" data-name="Layer 2"><g id="Layer_1-2" data-name="Layer 1"><g class="cls-2"><rect class="cls-3" width="106" height="17.67"/></g><path class="cls-4" d="M22.36,9.54l3,2.53h-.48l-2.8-2.33v2.33h-.85V6.32h1.61c1.15,0,2.1.46,2.1,1.61S24,9.54,22.88,9.54Zm.31-.33c1,0,1.42-.43,1.42-1.28s-.41-1.29-1.42-1.29h-.55V9.21Z" transform="translate(0 0)"/><path class="cls-4" d="M27.53,6.64V9h2.11V9.3H27.53v2.45h2.53v.32H26.69V6.32h3.37v.32Z" transform="translate(0 0)"/><path class="cls-4" d="M36.25,7.19a3.06,3.06,0,0,0-2-.66A2.39,2.39,0,0,0,32.12,9.2a2.34,2.34,0,0,0,3.6,2.28V9.14h.84v2.41a3.77,3.77,0,0,1-2.26.63,3,3,0,1,1,0-6,4,4,0,0,1,2,.47Z" transform="translate(0 0)"/><path class="cls-4" d="M38.31,6.32h.85v5.75h-.85Z" transform="translate(0 0)"/><path class="cls-4" d="M43.82,6.94a2.2,2.2,0,0,0-1.2-.38c-.55,0-1,.25-1,.74s.44.78,1.14,1.25c1,.67,1.67,1.17,1.67,2.08,0,1.16-1.1,1.51-2,1.51a2.76,2.76,0,0,1-1.68-.52v-.48a2.58,2.58,0,0,0,1.68.68c.72,0,1.2-.35,1.2-1s-.37-.89-1.17-1.46c-1-.7-1.57-1.13-1.57-1.88,0-.92.88-1.29,1.73-1.29a3,3,0,0,1,1.2.24Z" transform="translate(0 0)"/><path class="cls-4" d="M49.57,6.64H47.81v5.43H47V6.64H45.2V6.32h4.37Z" transform="translate(0 0)"/><path class="cls-4" d="M51.94,6.64V9h2.11V9.3H51.94v2.45h2.52v.32H51.09V6.32h3.37v.32Z" transform="translate(0 0)"/><path class="cls-4" d="M57.15,9.54l3,2.53h-.48L56.9,9.74v2.33h-.84V6.32h1.61c1.15,0,2.1.46,2.1,1.61s-1,1.61-2.1,1.61Zm.31-.33c1,0,1.42-.43,1.42-1.28s-.42-1.29-1.42-1.29H56.9V9.21Z" transform="translate(0 0)"/><path class="cls-4" d="M68.49,6.32v5.85L64.24,7.75v4.32h-.33V6.22l4.25,4.42V6.32Z" transform="translate(0 0)"/><path class="cls-4" d="M73.1,12.18a3,3,0,1,1,3.09-3A3,3,0,0,1,73.1,12.18Zm2.18-3c0-1.57-.87-2.67-2.18-2.67s-2.18,1.1-2.18,2.67.87,2.66,2.18,2.66S75.28,10.77,75.28,9.2Z" transform="translate(0 0)"/><path class="cls-4" d="M77.8,6.32l1.65,4.29,1.72-4.39,1.9,4.42,1.58-4.32H85l-2.13,5.85L80.91,7.72l-1.74,4.45L76.91,6.32Z" transform="translate(0 0)"/></g></g></svg>