<svg xmlns="http://www.w3.org/2000/svg" viewBox="0 0 110.42 48.13"><defs><style>.cls-1{fill:#a5714e;}</style></defs><title>t3-en-320x100</title><g id="Layer_2" data-name="Layer 2"><g id="Layer_1-2" data-name="Layer 1"><path class="cls-1" d="M0,10.73S4.81,7,4.81,2.85C4.81,1.37,4.22.59,3.08.59A2.82,2.82,0,0,0,.64,2.41V1.34A3.09,3.09,0,0,1,3.42,0a2.7,2.7,0,0,1,3,2.88c0,2.93-3.24,5.73-4,6.38H7.29l-.55,1.47Z"/><path class="cls-1" d="M14.2,4.27a3.44,3.44,0,0,1-.89-2.18A1.92,1.92,0,0,1,15.42,0c1.24,0,2,.7,2,1.7A3,3,0,0,1,15.81,4l3.43,4.4A6,6,0,0,0,20,5.7h.59a7.1,7.1,0,0,1-.95,3.18l1.44,1.85H19.24L18.65,10a5.25,5.25,0,0,1-3.27.95c-2.48,0-3.82-1.13-3.82-2.88,0-1.46.79-2.41,2.68-3.72Zm.44.57a3.83,3.83,0,0,0-1.5,3,2.23,2.23,0,0,0,2.48,2.46,4.17,4.17,0,0,0,2.66-.84Zm.8-1.34a2.38,2.38,0,0,0,.87-1.82c0-.57-.21-1.09-.89-1.09s-.87.54-.87,1S14.59,2.41,15.44,3.5Z"/><path class="cls-1" d="M27.39,4.76a3.48,3.48,0,0,1,1.53-.38,2.28,2.28,0,0,0,1.14-2.09c0-1-.45-1.7-1.53-1.7a2.88,2.88,0,0,0-2.48,1.82V1.33A3,3,0,0,1,28.78,0c1.75,0,2.76,1,2.76,2.33a2.64,2.64,0,0,1-1.18,2.22,3.18,3.18,0,0,1,2.36,3.17c0,1.91-1.34,3.21-4,3.21A4.2,4.2,0,0,1,25.62,10V9.09a3.47,3.47,0,0,0,2.81,1.25,2.42,2.42,0,0,0,2.69-2.53,2.64,2.64,0,0,0-1.83-2.75,6.32,6.32,0,0,1-2,.29Z"/><path class="cls-1" d="M37.8,10.73V.2H40c2,0,3.52.6,3.52,2.29A2.23,2.23,0,0,1,41.9,4.63c1.76.34,3,1.44,3,3,0,2-1.93,3.06-4.14,3.06ZM39.35.79V4.46h.81a1.71,1.71,0,0,0,2-1.9c0-1.06-.49-1.77-2-1.77Zm0,4.26v5.09h1.24a2.32,2.32,0,0,0,2.64-2.49,2.4,2.4,0,0,0-2.64-2.6Z"/><path class="cls-1" d="M47.91.79V5.06h3.86v.59H47.91v4.49h4.61v.59H46.36V.2h6.16V.79Z"/><path class="cls-1" d="M54.29,10.73V.2h2.9C60.4.2,63,2.31,63,5.46s-2.55,5.27-5.76,5.27Zm1.55-.59h1.32c2.31,0,4.17-1.75,4.17-4.68S59.47.79,57.16.79H55.84Z"/><path class="cls-1" d="M66.49,6.08l5.58,4.65h-.89L66.05,6.46v4.27H64.5V.2h3c2.1,0,3.84.85,3.84,2.95s-1.74,2.93-3.84,2.93Zm.58-.58c1.83,0,2.59-.79,2.59-2.35S68.9.79,67.07.79h-1V5.5Z"/><path class="cls-1" d="M78.25,10.93a5.42,5.42,0,0,1-5.66-5.47,5.66,5.66,0,0,1,11.31,0A5.4,5.4,0,0,1,78.25,10.93Zm4-5.47c0-2.85-1.6-4.87-4-4.87s-4,2-4,4.87,1.59,4.88,4,4.88S82.24,8.34,82.24,5.46Z"/><path class="cls-1" d="M90.85,10.93a5.41,5.41,0,0,1-5.66-5.47,5.66,5.66,0,0,1,11.31,0A5.41,5.41,0,0,1,90.85,10.93Zm4-5.47c0-2.85-1.6-4.87-4-4.87s-4,2-4,4.87,1.6,4.88,4,4.88S94.83,8.34,94.83,5.46Z"/><path class="cls-1" d="M110.42,10.73h-1.59L107.6,3.31l-4.1,7.6L99.21,3.29,98,10.73h-.61L99.16,0,104,8.71,108.66,0Z"/><path class="cls-1" d="M19.35,26.23H15.27L14,29.33h-.6l4.43-10.8,4.42,10.8H20.62Zm-3.83-.59h3.59l-1.8-4.4Z"/><path class="cls-1" d="M25.3,24.68v4.65H23.75V18.8h2.84c2.1,0,3.84.85,3.84,2.95s-1.74,2.93-3.84,2.93Zm0-.58h.9c1.84,0,2.6-.79,2.6-2.35s-.76-2.36-2.6-2.36h-.9Z"/><path class="cls-1" d="M35.92,26.23H31.84l-1.27,3.1H30l4.42-10.8,4.43,10.8H37.19Zm-3.84-.59h3.6l-1.8-4.4Z"/><path class="cls-1" d="M42.31,24.68l5.58,4.65H47l-5.13-4.27v4.27H40.32V18.8h3c2.1,0,3.84.85,3.84,2.95s-1.74,2.93-3.84,2.93Zm.58-.58c1.84,0,2.59-.79,2.59-2.35s-.75-2.36-2.59-2.36h-1V24.1Z"/><path class="cls-1" d="M56.15,19.39H52.92v9.94H51.38V19.39H48.16V18.8h8Z"/><path class="cls-1" d="M69.7,29.33H68.11l-1.23-7.42-4.1,7.6L58.5,21.89l-1.22,7.44h-.61l1.77-10.71,4.85,8.69,4.65-8.69Z"/><path class="cls-1" d="M73.07,19.39v4.27h3.86v.59H73.07v4.49h4.61v.59H71.52V18.8h6.16v.59Z"/><path class="cls-1" d="M87.81,18.8V29.51L80,21.42v7.91h-.59V18.62l7.78,8.09V18.8Z"/><path class="cls-1" d="M97.43,19.39H94.2v9.94H92.66V19.39H89.43V18.8h8Z"/><path class="cls-1" d="M16.85,43.29l5.58,4.64h-.89l-5.13-4.27v4.27H14.86V37.4h2.95c2.1,0,3.85.85,3.85,3s-1.75,2.94-3.85,2.94Zm.58-.59c1.83,0,2.59-.79,2.59-2.35S19.26,38,17.43,38h-1V42.7Z"/><path class="cls-1" d="M25.15,38v4.27H29v.59H25.15v4.49h4.61v.59H23.6V37.4h6.16V38Z"/><path class="cls-1" d="M36.73,38.53a4.09,4.09,0,0,0-2.21-.69c-1,0-1.87.45-1.87,1.36s.79,1.42,2.07,2.28c1.81,1.22,3.07,2.15,3.07,3.81,0,2.12-2,2.76-3.61,2.76a5.07,5.07,0,0,1-3.07-.94v-.89a4.72,4.72,0,0,0,3.08,1.24c1.3,0,2.19-.63,2.19-1.73s-.69-1.64-2.14-2.67c-1.78-1.28-2.87-2.07-2.87-3.44,0-1.68,1.6-2.37,3.17-2.37a5.55,5.55,0,0,1,2.19.44Z"/><path class="cls-1" d="M39.48,37.4H41V47.93H39.48Z"/><path class="cls-1" d="M43.09,47.93V37.4H46c3.22,0,5.77,2.11,5.77,5.27S49.2,47.93,46,47.93Zm1.55-.59H46c2.31,0,4.17-1.75,4.17-4.67S48.26,38,46,38H44.64Z"/><path class="cls-1" d="M54.85,38v4.27h3.86v.59H54.85v4.49h4.61v.59H53.3V37.4h6.16V38Z"/><path class="cls-1" d="M69.59,37.4V48.11L61.82,40v7.91h-.59V37.22L69,45.31V37.4Z"/><path class="cls-1" d="M80.09,38.87a5.35,5.35,0,0,0-3.21-1.08c-2.39,0-4,2-4,4.88s1.59,4.87,4,4.87a5.18,5.18,0,0,0,3.51-1.41v1a6,6,0,0,1-3.52,1,5.47,5.47,0,1,1,0-10.93,7,7,0,0,1,3.23.75Z"/><path class="cls-1" d="M83.82,38v4.27h3.86v.59H83.82v4.49h4.61v.59H82.27V37.4h6.16V38Z"/><path class="cls-1" d="M95.4,38.53a4.09,4.09,0,0,0-2.21-.69c-1,0-1.88.45-1.88,1.36s.8,1.42,2.08,2.28c1.81,1.22,3.07,2.15,3.07,3.81,0,2.12-2,2.76-3.61,2.76a5.07,5.07,0,0,1-3.07-.94v-.89a4.72,4.72,0,0,0,3.08,1.24c1.3,0,2.18-.63,2.18-1.73s-.68-1.64-2.13-2.67C91.13,41.78,90,41,90,39.62c0-1.68,1.61-2.37,3.18-2.37a5.55,5.55,0,0,1,2.19.44Z"/></g></g></svg>