<?xml version="1.0" encoding="utf-8"?>
<!-- Generator: Adobe Illustrator 23.0.1, SVG Export Plug-In . SVG Version: 6.00 Build 0)  -->
<svg version="1.1" id="Layer_1" xmlns="http://www.w3.org/2000/svg" xmlns:xlink="http://www.w3.org/1999/xlink" x="0px" y="0px"
	 viewBox="0 0 77.2 8.7" style="enable-background:new 0 0 77.2 8.7;" xml:space="preserve">
<style type="text/css">
	.st0{fill:#F5811F;}
</style>
<title>cs-160</title>
<path class="st0" d="M33.3,8.7c-1.1,0.1-2.2-0.3-3-1.1l0.9-0.9c0.6,0.6,1.4,0.9,2.2,0.8c1.1,0,1.8-0.5,1.8-1.3
	c0-0.3-0.1-0.7-0.3-0.9C34.5,5.1,34.1,5,33.8,5l-1-0.2c-0.6-0.1-1.2-0.3-1.6-0.7c-0.4-0.4-0.7-1-0.6-1.6C30.6,1,31.6,0,33.4,0
	c1,0,1.9,0.3,2.6,1l-0.8,0.8c-0.5-0.5-1.2-0.7-1.9-0.7c-1,0-1.5,0.5-1.5,1.3c0,0.3,0.1,0.6,0.3,0.8c0.3,0.2,0.6,0.4,0.9,0.4l1,0.2
	c0.6,0,1.1,0.3,1.6,0.6c0.5,0.5,0.7,1.1,0.7,1.8C36.4,7.8,35.1,8.7,33.3,8.7z"/>
<path class="st0" d="M38.1,8.6V0.1h5.4v1.2h-4.2v2.5h3.6v1.2h-3.6v2.6h4.2v1.2H38.1z"/>
<path class="st0" d="M45.3,8.6V0.1h1.3v7.4h4.1v1.2H45.3z"/>
<path class="st0" d="M52.3,8.6V0.1h1.3v7.4h4.1v1.2H52.3z"/>
<path class="st0" d="M59.1,8.6V0.1h1.3v8.5H59.1z"/>
<path class="st0" d="M67.9,8.6l-4-6v6h-1.3V0.1h1.2l3.9,6v-6h1.3v8.5H67.9z"/>
<path class="st0" d="M76.4,7.7c-0.6,0.7-1.5,1-2.3,1c-0.8,0-1.6-0.3-2.2-0.9C71,7,71,6.2,71,4.4s0-2.6,0.9-3.5
	c1.3-1.2,3.3-1.1,4.5,0.1c0.4,0.5,0.7,1,0.8,1.6h-1.3c-0.1-0.9-0.9-1.5-1.8-1.5c-0.5,0-0.9,0.2-1.3,0.5c-0.4,0.5-0.5,1-0.5,2.7
	s0.1,2.2,0.5,2.7c0.3,0.3,0.8,0.5,1.3,0.5c0.5,0,1-0.2,1.4-0.6c0.3-0.4,0.5-0.9,0.4-1.3V5.1h-1.8V4h3.1v1.3C77.3,6.2,77,7,76.4,7.7z
	"/>
<path class="st0" d="M5.3,8.6l-4-6v6H0V0.1h1.2l4,6v-6h1.3v8.5H5.3z"/>
<path class="st0" d="M13.6,7.8C12.4,9,10.5,9,9.2,7.8C8.4,7,8.3,6.1,8.3,4.3s0-2.6,0.9-3.5c1.3-1.1,3.2-1.1,4.4,0
	c0.8,0.8,0.9,1.7,0.9,3.5S14.5,7,13.6,7.8z M12.7,1.7C12,1,10.9,1,10.2,1.7c0,0,0,0,0,0c-0.4,0.4-0.5,1-0.5,2.7S9.7,6.5,10.2,7
	c0.7,0.7,1.8,0.7,2.5,0.1c0,0,0,0,0.1-0.1c0.4-0.4,0.5-1,0.5-2.7S13.1,2.1,12.7,1.7z"/>
<path class="st0" d="M23.3,8.6h-1.2l-1.7-6l-1.7,6h-1.1l-2.3-8.5h1.4l1.5,6.1l1.7-6.1h1l1.7,6.1l1.5-6.1h1.4L23.3,8.6z"/>
</svg>
