<svg xmlns="http://www.w3.org/2000/svg" viewBox="0 0 89 73.69"><defs><style>.cls-1{fill:#fff;}.cls-2{fill:none;}.cls-3{fill:#54565b;}.cls-4{fill:#f48220;}.cls-5{fill:#979899;}</style></defs><title>logo618-160x600</title><g id="Layer_2" data-name="Layer 2"><g id="Layer_1-2" data-name="Layer 1"><path class="cls-1" d="M0,70.06v0A3.55,3.55,0,0,1,3.57,66.4a3.64,3.64,0,0,1,2.74,1.12l-.54.58a3.07,3.07,0,0,0-2.21-1A2.76,2.76,0,0,0,.83,70v0A2.78,2.78,0,0,0,3.56,73a3.06,3.06,0,0,0,2.27-1l.52.51a3.68,3.68,0,0,1-2.82,1.24A3.52,3.52,0,0,1,0,70.06Z"/><path class="cls-1" d="M13,66.47h.75L17,73.57h-.85L15.3,71.7H11.46l-.83,1.87H9.81ZM15,71l-1.6-3.59L11.77,71Z"/><path class="cls-1" d="M21,66.52h3a2.81,2.81,0,0,1,2,.7,2,2,0,0,1,.54,1.39v0a2.07,2.07,0,0,1-1.91,2.06l2.16,2.88h-1l-2-2.74h-2v2.74H21Zm3,3.59c1.06,0,1.81-.54,1.81-1.45v0c0-.86-.66-1.39-1.8-1.39H21.84v2.86Z"/><path class="cls-1" d="M31,66.52h.75l4.44,5.65V66.52H37v7h-.63l-4.55-5.78v5.78H31Z"/><path class="cls-1" d="M44.23,66.47H45l3.22,7.1h-.86L46.5,71.7H42.67l-.84,1.87H41Zm2,4.51-1.6-3.59L43,71Z"/><path class="cls-1" d="M52.25,66.52h3a2.79,2.79,0,0,1,2,.7,2,2,0,0,1,.55,1.39v0a2.07,2.07,0,0,1-1.92,2.06l2.17,2.88h-1l-2-2.74H53v2.74h-.79Zm3,3.59c1,0,1.81-.54,1.81-1.45v0c0-.86-.67-1.39-1.8-1.39H53v2.86Z"/><path class="cls-1" d="M61.39,66.52h.89l2.51,6.07,2.51-6.07h.86l-3,7.1h-.71Z"/><path class="cls-1" d="M71.5,70.06v0a3.6,3.6,0,1,1,7.19,0v0a3.6,3.6,0,1,1-7.19,0Zm6.36,0v0a2.8,2.8,0,0,0-2.78-2.91A2.77,2.77,0,0,0,72.32,70v0A2.8,2.8,0,0,0,75.1,73,2.77,2.77,0,0,0,77.86,70.06Z"/><path class="cls-1" d="M83,66.52h.74l4.44,5.65V66.52H89v7h-.63l-4.56-5.78v5.78H83Z"/><circle class="cls-2" cx="70.64" cy="12.6" r="7.33"/><circle class="cls-2" cx="70.64" cy="37.37" r="12.15"/><path class="cls-3" d="M82.79,37.37a12.16,12.16,0,0,1-24.31,0H53.21a17.43,17.43,0,0,0,34.85,0Z"/><path class="cls-4" d="M70.64,25.21A12.17,12.17,0,0,1,82.79,37.37h5.27A17.44,17.44,0,0,0,79,22.06a12.58,12.58,0,0,1-16.65,0,17.44,17.44,0,0,0-9.1,15.31h5.27A12.17,12.17,0,0,1,70.64,25.21Z"/><path class="cls-5" d="M70.64,0a12.6,12.6,0,1,0,12.6,12.6A12.62,12.62,0,0,0,70.64,0Zm0,5.28a7.33,7.33,0,1,1-7.33,7.32A7.32,7.32,0,0,1,70.64,5.28Z"/><polygon class="cls-3" points="38.34 5.3 43.86 5.3 43.86 37.36 49.13 37.36 49.13 0.03 38.34 0.03 38.34 5.3"/><rect class="cls-4" x="43.86" y="37.36" width="5.28" height="17.36"/><path class="cls-4" d="M30.58,0,6.38,25.06l0,0a1.42,1.42,0,0,0-.12.13L10,28.86c.22-.22.45-.43.68-.63l8-8.27L34.53,3.55Z"/><path class="cls-3" d="M18.69,20h0l-8,8.27a12.15,12.15,0,0,1,20.15,9.14h5.26A17.42,17.42,0,0,0,18.69,20Z"/><path class="cls-5" d="M30.85,37.37h0A12.16,12.16,0,1,1,10,28.86L6.24,25.21A17.41,17.41,0,1,0,36.11,37.38H30.85Z"/></g></g></svg>