<svg xmlns="http://www.w3.org/2000/svg" viewBox="0 0 76.99 8.68"><defs><style>.cls-1{fill:#f5811f;}</style></defs><title>t2-160x600</title><g id="Layer_2" data-name="Layer 2"><g id="Layer_1-2" data-name="Layer 1"><path class="cls-1" d="M3.07,8.68A3,3,0,0,1,.86,7.82C0,7,0,6.13,0,4.34S0,1.7.86.86A3,3,0,0,1,3.07,0,3,3,0,0,1,6.12,2.63H4.8A1.7,1.7,0,0,0,3.07,1.15a1.65,1.65,0,0,0-1.26.53c-.43.45-.52,1-.52,2.66S1.38,6.55,1.81,7a1.65,1.65,0,0,0,1.26.53A1.73,1.73,0,0,0,4.82,6.06h1.3A3,3,0,0,1,3.07,8.68Z"/><path class="cls-1" d="M12.69,7.82a3,3,0,0,1-2.2.86,3,3,0,0,1-2.21-.86C7.44,7,7.42,6.13,7.42,4.34s0-2.64.86-3.48A3,3,0,0,1,10.49,0a3,3,0,0,1,2.2.86c.84.84.87,1.69.87,3.48S13.53,7,12.69,7.82Zm-.93-6.14a1.8,1.8,0,0,0-2.55,0c-.42.45-.5,1-.5,2.66s.08,2.2.5,2.65a1.78,1.78,0,0,0,2.55,0c.43-.44.5-1,.5-2.65S12.19,2.12,11.76,1.68Z"/><path class="cls-1" d="M21.72,8.61V2.9l-2,4.16h-1l-2-4.16V8.61h-1.3V.07h1.3l2.49,5.31L21.72.07H23V8.61Z"/><path class="cls-1" d="M25.24,8.61V.07h1.29V8.61Z"/><path class="cls-1" d="M34,8.61l-3.94-6v6h-1.3V.07H30l3.95,6v-6h1.29V8.61Z"/><path class="cls-1" d="M42.54,7.71a3.13,3.13,0,0,1-2.35,1A3,3,0,0,1,38,7.82c-.83-.84-.86-1.69-.86-3.48s0-2.64.86-3.48a3.17,3.17,0,0,1,5.3,1.78H42a1.75,1.75,0,0,0-1.8-1.49,1.69,1.69,0,0,0-1.27.53c-.42.45-.51,1-.51,2.66s.09,2.21.51,2.66a1.69,1.69,0,0,0,1.27.53,1.79,1.79,0,0,0,1.4-.61A1.93,1.93,0,0,0,42,5.58V5.1H40.19V4H43.3V5.3A3.2,3.2,0,0,1,42.54,7.71Z"/><path class="cls-1" d="M50.36,8.68a3.91,3.91,0,0,1-3-1.12l.85-.86a2.85,2.85,0,0,0,2.2.83c1.12,0,1.76-.48,1.76-1.32a1.08,1.08,0,0,0-.34-.88A1.6,1.6,0,0,0,50.88,5l-1-.15a2.88,2.88,0,0,1-1.61-.68,2.13,2.13,0,0,1-.63-1.64C47.63,1,48.71,0,50.48,0a3.55,3.55,0,0,1,2.65,1l-.81.82a2.53,2.53,0,0,0-1.89-.66c-1,0-1.54.55-1.54,1.33a1,1,0,0,0,.31.79,1.64,1.64,0,0,0,.93.38l1,.16a2.76,2.76,0,0,1,1.59.64,2.28,2.28,0,0,1,.69,1.75C53.43,7.75,52.16,8.68,50.36,8.68Z"/><path class="cls-1" d="M60.14,7.82a3.26,3.26,0,0,1-4.41,0c-.84-.84-.87-1.69-.87-3.48s0-2.64.87-3.48a3.26,3.26,0,0,1,4.41,0C61,1.7,61,2.55,61,4.34S61,7,60.14,7.82Zm-.93-6.14a1.8,1.8,0,0,0-2.55,0c-.42.45-.5,1-.5,2.66s.08,2.2.5,2.65a1.78,1.78,0,0,0,2.55,0c.43-.44.5-1,.5-2.65S59.64,2.12,59.21,1.68Z"/><path class="cls-1" d="M67.77,7.82a3.26,3.26,0,0,1-4.41,0c-.84-.84-.86-1.69-.86-3.48s0-2.64.86-3.48a3.26,3.26,0,0,1,4.41,0c.84.84.87,1.69.87,3.48S68.61,7,67.77,7.82Zm-.93-6.14a1.8,1.8,0,0,0-2.55,0c-.41.45-.5,1-.5,2.66s.09,2.2.5,2.65a1.78,1.78,0,0,0,2.55,0c.43-.44.5-1,.5-2.65S67.27,2.12,66.84,1.68Z"/><path class="cls-1" d="M75.8,8.61l-4-6v6H70.56V.07h1.19l3.94,6v-6H77V8.61Z"/></g></g></svg>