<?xml version="1.0" encoding="utf-8"?>
<!-- Generator: Adobe Illustrator 19.0.0, SVG Export Plug-In . SVG Version: 6.00 Build 0)  -->
<svg version="1.1" id="Layer_1" xmlns="http://www.w3.org/2000/svg" xmlns:xlink="http://www.w3.org/1999/xlink" x="0px" y="0px"
	 viewBox="0 0 92 35.5092" style="enable-background:new 0 0 92 35.5092;" xml:space="preserve">
<style type="text/css">
	.st0{fill-rule:evenodd;clip-rule:evenodd;fill:#FCD800;}
	.st1{fill:#231F20;}
</style>
<g id="XMLID_11226_">
	<g id="XMLID_11230_">
		<rect class="st0" width="92" height="35.5092"/>
	</g>
	<g id="XMLID_11229_">
		<path id="XMLID_61_" class="st1" d="M10.4491,13.3748v-1.5347h4.2578c0,1.1016-0.1992,1.9746-0.5977,2.6187
			c-0.3979,0.6445-0.9771,1.1519-1.7368,1.522c-0.7598,0.3696-1.6123,0.5547-2.5566,0.5547c-1.6416,0-2.9009-0.4395-3.7783-1.3188
			c-0.877-0.8794-1.3159-1.9961-1.3159-3.3501c0-0.9404,0.2178-1.771,0.6533-2.4917c0.4351-0.7207,1.021-1.2637,1.7568-1.6294
			c0.7354-0.3657,1.5347-0.5483,2.3965-0.5483c1.2192,0,2.168,0.2959,2.8472,0.8882V7.3406h1.5415v3.2261h-1.5415
			c-0.1611-0.5444-0.481-0.9731-0.96-1.2866s-0.9927-0.4702-1.541-0.4702c-0.7227,0-1.3389,0.2559-1.8481,0.7676
			s-0.7642,1.2202-0.7642,2.1255c0,1.0361,0.2588,1.8252,0.7773,2.3672c0.5181,0.5425,1.1494,0.8135,1.8936,0.8135
			c0.5488,0,1.0034-0.1328,1.3652-0.3984c0.3613-0.2656,0.6113-0.6357,0.751-1.1104H10.4491z"/>
		<path id="XMLID_63_" class="st1" d="M15.4769,16.4246v-1.5347h1.0908V8.8753h-1.0908V7.3406h8.0068v2.8799h-1.7373V8.8753H18.932
			v2.0962h2.2725v1.5347H18.932v2.3838h2.8145v-1.3584h1.7373v2.8931H15.4769z"/>
		<path id="XMLID_65_" class="st1" d="M25.9262,16.4246v-1.5347h1.3647V8.8753h-1.3647v2.1157h-1.5605V7.3406h8.2349v3.6504h-1.541
			V8.8753h-1.4043v6.0146h1.3647v1.5347H25.9262z"/>
	</g>
	<g id="XMLID_11228_">
		<path id="XMLID_44_" class="st1" d="M4.6693,29.4246v-3.0957h1.5415c0.0171,0.5664,0.1655,0.9829,0.4438,1.251
			c0.2788,0.2676,0.5967,0.4014,0.9536,0.4014c0.2783,0,0.5137-0.0967,0.7051-0.2905c0.1919-0.1938,0.2876-0.4214,0.2876-0.6826
			c0-0.2783-0.0938-0.5127-0.2808-0.7017c-0.1875-0.1895-0.5293-0.4053-1.0264-0.6475c-1.0513-0.5054-1.7642-0.9526-2.1396-1.3408
			s-0.563-0.9116-0.563-1.5698c0-0.7939,0.248-1.4087,0.7446-1.8452c0.4961-0.436,1.0601-0.6538,1.6914-0.6538
			c0.7227,0,1.2817,0.2817,1.6782,0.8457v-0.7544h1.5347v2.7622H8.7055c-0.0479-0.4263-0.1948-0.7563-0.4409-0.9893
			s-0.5322-0.3491-0.8589-0.3491c-0.2524,0-0.4658,0.0674-0.6396,0.2021c-0.1743,0.1353-0.2612,0.3115-0.2612,0.5293
			c0,0.187,0.0718,0.3643,0.2153,0.5322c0.1436,0.1675,0.564,0.4048,1.2617,0.7124c0.6709,0.2993,1.186,0.5693,1.5449,0.811
			c0.3584,0.2422,0.6421,0.5557,0.8511,0.9414c0.2085,0.3857,0.313,0.8311,0.313,1.3364c0,0.8979-0.2612,1.5732-0.7837,2.0264
			s-1.1406,0.6797-1.855,0.6797c-0.7964,0-1.4106-0.2949-1.8413-0.8848v0.7739H4.6693z"/>
		<path id="XMLID_46_" class="st1" d="M12.8392,29.4246v-1.5347h1.3647v-6.0146h-1.3647v2.1157h-1.5605v-3.6504h8.2349v3.6504
			h-1.541v-2.1157h-1.4043v6.0146h1.3647v1.5347H12.8392z"/>
		<path id="XMLID_48_" class="st1" d="M25.2382,20.1971c1.5674,0,2.8008,0.4526,3.6997,1.3584
			c0.8989,0.9053,1.3486,2.0093,1.3486,3.311c0,1.3057-0.4507,2.4106-1.3521,3.314c-0.9009,0.9033-2.1333,1.355-3.6963,1.355
			c-1.6235,0-2.8711-0.4644-3.7417-1.394c-0.8711-0.9297-1.3062-2.0215-1.3062-3.2749c0-1.2974,0.4473-2.4004,1.3418-3.3081
			C22.4271,20.6507,23.6625,20.1971,25.2382,20.1971z M25.2382,21.8557c-0.6963,0-1.2876,0.2612-1.7729,0.7837
			s-0.728,1.2886-0.728,2.2988c0,0.8926,0.2393,1.6064,0.7183,2.1421c0.479,0.5352,1.0732,0.8032,1.7827,0.8032
			c0.6968,0,1.2891-0.2622,1.7764-0.7871c0.4878-0.5244,0.7314-1.2813,0.7314-2.2695c0-0.8838-0.2329-1.6001-0.6987-2.1484
			S25.9784,21.8557,25.2382,21.8557z"/>
		<path id="XMLID_51_" class="st1" d="M40.3817,27.8899v1.5347h-2.7676l-2.0513-3.9771h-1.0396v2.4424h1.1362v1.5347H30.912v-1.5347
			h1.2471v-6.0146H30.912v-1.5347h5.479c1.0317,0,1.7754,0.2603,2.23,0.7803c0.4551,0.5205,0.6826,1.1094,0.6826,1.7666
			c0,1.0317-0.5249,1.7852-1.5737,2.2598l1.4761,2.7427H40.3817z M34.5233,23.9978h0.8096c1.0015,0,1.502-0.3569,1.502-1.0713
			c0-0.3525-0.1143-0.6157-0.3428-0.79s-0.543-0.2612-0.9434-0.2612h-1.0254V23.9978z"/>
		<path id="XMLID_54_" class="st1" d="M49.3056,27.8899v1.5347h-4.4668v-1.5347h1.1631l-0.4316-1.561h-2.3574l-0.4834,1.561h1.2148
			v1.5347h-4.0225v-1.5347h1.123l1.7695-6.0146h-1.208v-1.5347h5.9297v1.5347h-1.2207l1.9063,6.0146H49.3056z M45.1981,24.9969
			l-0.7578-2.7363l-0.8154,2.7363H45.1981z"/>
		<path id="XMLID_57_" class="st1" d="M55.1444,26.3748v-1.5347h4.2578c0,1.1016-0.1992,1.9746-0.5977,2.6187
			c-0.3984,0.6445-0.9775,1.1519-1.7373,1.522c-0.7598,0.3696-1.6123,0.5547-2.5566,0.5547c-1.6416,0-2.9004-0.4395-3.7783-1.3188
			c-0.877-0.8794-1.3154-1.9961-1.3154-3.3501c0-0.9404,0.2178-1.771,0.6533-2.4917c0.4346-0.7207,1.0205-1.2637,1.7568-1.6294
			c0.7354-0.3657,1.5342-0.5483,2.3965-0.5483c1.2188,0,2.168,0.2959,2.8467,0.8882v-0.7446h1.542v3.2261h-1.542
			c-0.1611-0.5444-0.4805-0.9731-0.96-1.2866c-0.4785-0.3135-0.9922-0.4702-1.541-0.4702c-0.7227,0-1.3389,0.2559-1.8477,0.7676
			c-0.5098,0.5117-0.7646,1.2202-0.7646,2.1255c0,1.0361,0.2588,1.8252,0.7773,2.3672c0.5186,0.5425,1.1494,0.8135,1.8936,0.8135
			c0.5488,0,1.0039-0.1328,1.3652-0.3984s0.6113-0.6357,0.751-1.1104H55.1444z"/>
		<path id="XMLID_59_" class="st1" d="M60.1854,29.4246v-1.5347h1.0908v-6.0146h-1.0908v-1.5347h8.0068v2.8799H66.455v-1.3452
			h-2.8144v2.0962h2.2725v1.5347h-2.2725v2.3838h2.8144v-1.3584h1.7373v2.8931H60.1854z"/>
	</g>
	<g id="XMLID_11227_">
		<polygon class="st1" points="79.8945,18.1585 79.8945,13.4991 83.9292,15.8293 87.9649,18.1585 83.9292,20.4887 79.8945,22.8179 
					"/>
	</g>
</g>
</svg>
