<?xml version="1.0" encoding="utf-8"?>
<!-- Generator: Adobe Illustrator 19.0.0, SVG Export Plug-In . SVG Version: 6.00 Build 0)  -->
<svg version="1.1" id="Layer_1" xmlns="http://www.w3.org/2000/svg" xmlns:xlink="http://www.w3.org/1999/xlink" x="0px" y="0px"
	 viewBox="0 0 336 40.2168" style="enable-background:new 0 0 336 40.2168;" xml:space="preserve">
<style type="text/css">
	.st0{fill-rule:evenodd;clip-rule:evenodd;fill:#FCD800;}
	.st1{fill:#010101;}
</style>
<g id="XMLID_2_">
	<g id="XMLID_10996_">
		<rect class="st0" width="336" height="40.2168"/>
	</g>
	<g id="XMLID_1_">
		<g id="XMLID_10995_">
			<path id="XMLID_21_" class="st1" d="M69.7114,27.4086v-2.3931h1.7007v-9.3784h-1.7007v-2.3931h12.4844v4.4907h-2.709v-2.0977
				h-4.3887v3.2686h3.5439v2.3931h-3.5439v3.7168h4.3887v-2.1182h2.709v4.5112H69.7114z"/>
			<path id="XMLID_23_" class="st1" d="M87.6436,27.5512l-3.3301-7.729h-1.4253v-2.2705h5.9771v2.2705h-1.2256l1.5444,4.4863
				l1.811-4.4863h-1.2949v-2.2705h5.2241v2.2705H93.519l-3.1978,7.729H87.6436z"/>
			<path id="XMLID_25_" class="st1" d="M103.0273,24.435l2.4438,0.7842c-1.0249,1.6089-2.627,2.4136-4.8062,2.4136
				c-1.7383,0-3.0942-0.4585-4.0684-1.375c-0.9741-0.916-1.4609-2.1211-1.4609-3.6147c0-1.5205,0.502-2.79,1.5068-3.8086
				c1.0049-1.0181,2.2842-1.5273,3.8389-1.5273c1.127,0,2.1011,0.2852,2.9229,0.8555c0.8213,0.5703,1.3911,1.2798,1.7104,2.1284
				c0.3188,0.8486,0.4785,1.7954,0.4785,2.8408h-7.3418c0.0474,0.896,0.3311,1.5308,0.8501,1.9043
				c0.5195,0.3735,1.0679,0.5601,1.6445,0.5601C101.5,25.5961,102.2603,25.2089,103.0273,24.435z M102.4263,21.3803
				c-0.0728-0.5498-0.2881-1.0181-0.645-1.4053c-0.3574-0.3867-0.8447-0.5806-1.4624-0.5806c-1.1543,0-1.8267,0.6621-2.0166,1.9858
				H102.4263z"/>
			<path id="XMLID_28_" class="st1" d="M113.561,25.1376v2.271h-6.9346v-2.271h1.8228v-5.3154h-1.7109v-2.2705h4.5928v2.5049
				c0.1763-0.7192,0.5786-1.3423,1.2065-1.8687c0.6279-0.5259,1.3696-0.7891,2.2251-0.7891c0.1426,0,0.312,0.0034,0.5088,0.0103
				v2.9731c-0.7939,0-1.4424,0.0884-1.9448,0.2651c-0.5024,0.1763-0.9165,0.5635-1.2422,1.1606
				c-0.3257,0.5977-0.4888,1.3032-0.4888,2.1182v1.2114H113.561z"/>
			<path id="XMLID_30_" class="st1" d="M117.9907,31.8583v-2.2705h1.894l0.6563-1.7529l-3.5889-8.0127h-1.4258v-2.2705h5.9063
				v2.2705h-1.1606l1.6406,4.4385l1.75-4.4385h-1.2832v-2.2705h5.1831v2.2705h-1.4048l-4.7251,12.0361H117.9907z"/>
			<path id="XMLID_32_" class="st1" d="M128.2041,19.8222v-2.2705h1.2524v-1.5479l3.1465-2.2607v3.8086h1.813v2.2705h-1.813v4.2749
				c0,0.3877,0.0493,0.6479,0.1479,0.7808c0.0981,0.1328,0.3242,0.1987,0.6772,0.1987c0.2915,0,0.6211-0.0674,0.9878-0.2036v2.1792
				c-0.8081,0.3325-1.5991,0.499-2.373,0.499c-1.7241,0-2.5864-0.8564-2.5864-2.5693v-5.1597H128.2041z"/>
			<path id="XMLID_34_" class="st1" d="M135.5562,27.4086v-2.271h1.5884v-9.6226h-1.5884v-2.271h4.7246v5.1016
				c0.9912-0.6924,1.9248-1.0386,2.8003-1.0386c2.0166,0,3.0244,1.2119,3.0244,3.6353v4.1953h1.4458v2.271h-4.5923v-6.3237
				c0-0.4614-0.083-0.7788-0.2495-0.9521c-0.1665-0.1729-0.416-0.2593-0.7485-0.2593c-0.4683,0-1.0283,0.207-1.6802,0.6211v4.6431
				h1.4053v2.271H135.5562z"/>
			<path id="XMLID_36_" class="st1" d="M148.8955,19.8222v-2.2705h4.6436v7.5859h1.4663v2.271h-6.1099v-2.271h1.4971v-5.3154
				H148.8955z M150.2808,14.726c0-0.4741,0.168-0.8799,0.5039-1.2183s0.7417-0.5078,1.2168-0.5078
				c0.4819,0,0.8892,0.1694,1.2222,0.5078c0.3325,0.3384,0.499,0.7441,0.499,1.2183c0,0.4736-0.1685,0.8779-0.5044,1.2134
				c-0.3359,0.335-0.7417,0.5024-1.2168,0.5024c-0.4683,0-0.8726-0.1694-1.2119-0.5078
				C150.4502,15.5956,150.2808,15.1928,150.2808,14.726z"/>
			<path id="XMLID_39_" class="st1" d="M156.1455,19.8222v-2.2705h4.6538v0.9165c0.9502-0.7129,1.9146-1.0693,2.8921-1.0693
				c1.9888,0,2.9834,1.2695,2.9834,3.8086v3.9302h1.4868v2.271h-4.6333v-5.9673c0-0.5361-0.0732-0.9028-0.2188-1.0996
				c-0.1465-0.1968-0.3857-0.2954-0.7183-0.2954c-0.584,0-1.1812,0.2139-1.792,0.6416v4.4497h1.5171v2.271h-6.1709v-2.271h1.5073
				v-5.3154H156.1455z"/>
			<path id="XMLID_41_" class="st1" d="M180.8105,17.5517v2.2705h-1.6289v7.2871c0,3.2544-1.7168,4.8818-5.1523,4.8818
				c-1.9688,0-3.4355-0.3564-4.3984-1.0693l1.5273-2.0874c0.7949,0.4888,1.5918,0.7329,2.3926,0.7329
				c0.6992,0,1.2891-0.1797,1.7676-0.5396s0.7168-1.0591,0.7168-2.0977v-0.7534c-1.0254,0.9165-2.0234,1.3745-2.9941,1.3745
				c-1.1387,0-2.1113-0.4771-2.916-1.4307s-1.207-2.1704-1.207-3.6504c0-1.4868,0.4141-2.7036,1.2422-3.6509
				c0.8281-0.9468,1.8398-1.4204,3.0352-1.4204c1.1465,0,2.0938,0.4541,2.8398,1.3618v-1.209H180.8105z M176.0449,22.5107
				c0-0.7944-0.1758-1.4219-0.5293-1.8838c-0.3516-0.4614-0.834-0.6924-1.4453-0.6924c-0.625,0-1.1016,0.2378-1.4316,0.7129
				c-0.3281,0.4751-0.4922,1.0859-0.4922,1.8325c0,0.7471,0.1699,1.3564,0.5137,1.8281c0.3418,0.4717,0.8125,0.7075,1.4102,0.7075
				c0.5508,0,1.0156-0.2188,1.4004-0.6567C175.8535,23.9208,176.0449,23.3051,176.0449,22.5107z"/>
		</g>
		<g id="XMLID_10994_">
			<path id="XMLID_4_" class="st1" d="M185.7402,31.5126v-2.5659c0.4004,0.1152,0.7539,0.1733,1.0586,0.1733
				c0.5635,0,0.9678-0.1563,1.2119-0.4688c0.2451-0.312,0.3672-0.8623,0.3672-1.6494V15.6376h-2.1084v-2.3931h7.7188v2.3931h-1.9248
				v11.4966c0,1.5747-0.3818,2.7407-1.1455,3.4976c-0.7637,0.7573-1.7803,1.1357-3.0498,1.1357
				C187.2305,31.7675,186.5205,31.6826,185.7402,31.5126z"/>
			<path id="XMLID_6_" class="st1" d="M206.5361,25.1381v2.271h-4.7354v-0.8398c-0.9434,0.6548-1.9014,0.9824-2.8721,0.9824
				c-0.9502,0-1.6953-0.2666-2.2344-0.8003c-0.54-0.5337-0.8096-1.2866-0.8096-2.2588v-4.6699h-1.4766v-2.2705h4.6123v6.1401
				c0,0.4888,0.0752,0.8232,0.2246,1.0029c0.1484,0.1802,0.4209,0.27,0.8145,0.27c0.5293,0,1.1094-0.2344,1.7412-0.7026v-4.4399
				h-1.5176v-2.2705h4.6641v7.5859H206.5361z"/>
			<path id="XMLID_8_" class="st1" d="M208.2568,27.4091V24.018h2.3008c0.0205,0.4619,0.2344,0.8301,0.6416,1.105
				s0.9102,0.4126,1.5078,0.4126c0.5156,0,0.918-0.0898,1.2061-0.27c0.2891-0.1797,0.4326-0.4087,0.4326-0.6875
				c0-0.2578-0.1318-0.458-0.3965-0.6006s-0.7842-0.2788-1.5586-0.4082c-1.5947-0.2593-2.7451-0.6519-3.4512-1.1777
				s-1.0596-1.2231-1.0596-2.0913c0-0.8145,0.333-1.5015,0.998-2.061s1.5479-0.8398,2.6475-0.8398
				c0.8896,0,1.7207,0.1646,2.4951,0.4937v-0.3408h2.25v2.8613h-2.25c-0.2041-0.6855-0.9238-1.0283-2.1592-1.0283
				c-0.9102,0-1.3643,0.251-1.3643,0.7534c0,0.1899,0.0928,0.3345,0.2803,0.4326c0.1865,0.0986,0.6631,0.2158,1.4307,0.3511
				c1.2148,0.2104,2.124,0.4209,2.7285,0.6313s1.0879,0.5586,1.4512,1.0439s0.5449,1.0674,0.5449,1.7461
				c0,0.9644-0.3447,1.7534-1.0342,2.3677c-0.6885,0.6147-1.6641,0.9219-2.9268,0.9219c-1.1748,0-1.9795-0.2393-2.4141-0.7178
				v0.4937H208.2568z"/>
			<path id="XMLID_10_" class="st1" d="M217.8438,19.8227v-2.2705h1.252v-1.5479l3.1465-2.2607v3.8086h1.8125v2.2705h-1.8125v4.2749
				c0,0.3877,0.0498,0.6479,0.1475,0.7808c0.0986,0.1328,0.3242,0.1987,0.6777,0.1987c0.292,0,0.6211-0.0674,0.9873-0.2036v2.1792
				c-0.8076,0.3325-1.5986,0.499-2.3721,0.499c-1.7246,0-2.5869-0.8564-2.5869-2.5693v-5.1597H217.8438z"/>
			<path id="XMLID_12_" class="st1" d="M230.4297,27.4091v-2.3931h2.0264v-9.3784h-2.0264v-2.3931h12.6777v4.3687h-2.709v-1.9756
				h-4.2568v3.2788h3.0654v2.3931h-3.0654v3.7065h2.1797v2.3931H230.4297z"/>
			<path id="XMLID_14_" class="st1" d="M243.6865,19.8227v-2.2705h4.6436v7.5859h1.4658v2.271h-6.1094v-2.271h1.4971v-5.3154
				H243.6865z M245.0713,14.7265c0-0.4741,0.168-0.8799,0.5039-1.2183s0.7412-0.5078,1.2168-0.5078
				c0.4824,0,0.8896,0.1694,1.2217,0.5078c0.333,0.3384,0.499,0.7441,0.499,1.2183c0,0.4736-0.168,0.8779-0.5039,1.2134
				c-0.3359,0.335-0.7412,0.5024-1.2168,0.5024c-0.4688,0-0.8721-0.1694-1.2119-0.5078
				C245.2412,15.5961,245.0713,15.1933,245.0713,14.7265z"/>
			<path id="XMLID_17_" class="st1" d="M249.5684,19.8227v-2.2705h1.252v-1.5479l3.1465-2.2607v3.8086h1.8125v2.2705h-1.8125v4.2749
				c0,0.3877,0.0498,0.6479,0.1475,0.7808c0.0986,0.1328,0.3242,0.1987,0.6777,0.1987c0.292,0,0.6211-0.0674,0.9873-0.2036v2.1792
				c-0.8076,0.3325-1.5986,0.499-2.3721,0.499c-1.7246,0-2.5869-0.8564-2.5869-2.5693v-5.1597H249.5684z"/>
			<path id="XMLID_19_" class="st1" d="M257.5625,27.4091V24.018h2.3008c0.0205,0.4619,0.2344,0.8301,0.6416,1.105
				s0.9102,0.4126,1.5078,0.4126c0.5156,0,0.918-0.0898,1.2061-0.27c0.2891-0.1797,0.4326-0.4087,0.4326-0.6875
				c0-0.2578-0.1318-0.458-0.3965-0.6006s-0.7842-0.2788-1.5586-0.4082c-1.5947-0.2593-2.7451-0.6519-3.4512-1.1777
				s-1.0596-1.2231-1.0596-2.0913c0-0.8145,0.333-1.5015,0.998-2.061s1.5479-0.8398,2.6475-0.8398
				c0.8896,0,1.7207,0.1646,2.4951,0.4937v-0.3408h2.25v2.8613h-2.25c-0.2041-0.6855-0.9238-1.0283-2.1592-1.0283
				c-0.9102,0-1.3643,0.251-1.3643,0.7534c0,0.1899,0.0928,0.3345,0.2803,0.4326c0.1865,0.0986,0.6631,0.2158,1.4307,0.3511
				c1.2148,0.2104,2.124,0.4209,2.7285,0.6313s1.0879,0.5586,1.4512,1.0439s0.5449,1.0674,0.5449,1.7461
				c0,0.9644-0.3447,1.7534-1.0342,2.3677c-0.6885,0.6147-1.6641,0.9219-2.9268,0.9219c-1.1748,0-1.9795-0.2393-2.4141-0.7178
				v0.4937H257.5625z"/>
		</g>
	</g>
</g>
</svg>
