<svg xmlns="http://www.w3.org/2000/svg" viewBox="0 0 151.92 11.9"><defs><style>.cls-1{fill:#fff;}</style></defs><title>cta</title><g id="Layer_2" data-name="Layer 2"><g id="Overlays"><path class="cls-1" d="M6.11,2.56a2.23,2.23,0,0,0-1.74-.84,2.84,2.84,0,0,0-2.83,3A2.87,2.87,0,0,0,4.37,7.88a2.32,2.32,0,0,0,1.86-1l1.21.88A3.64,3.64,0,0,1,4.36,9.25,4.19,4.19,0,0,1,0,4.84,4.21,4.21,0,0,1,4.36.36,3.53,3.53,0,0,1,7.25,1.7Z"/><path class="cls-1" d="M8.32,0h1.4V9H8.32Z"/><path class="cls-1" d="M12,.49a.87.87,0,0,1,.91.86.9.9,0,0,1-1.8,0A.87.87,0,0,1,12,.49ZM11.35,3.3h1.4V9h-1.4Z"/><path class="cls-1" d="M18.18,5a1.54,1.54,0,0,0-1.06-.58,1.65,1.65,0,0,0-1.65,1.73,1.64,1.64,0,0,0,1.65,1.71,1.34,1.34,0,0,0,1.08-.53l.93,1a3.13,3.13,0,0,1-2,.8,2.94,2.94,0,0,1-3.05-3,2.94,2.94,0,0,1,3.05-3,2.72,2.72,0,0,1,2,.88Z"/><path class="cls-1" d="M20,0h1.4V5.67L23.53,3.3h1.79l-2.4,2.6L25.47,9H23.62L21.39,6.11h0V9H20Z"/><path class="cls-1" d="M29,4.52V3.3h1.16V1.64h1.4V3.3h1.53V4.52H31.58V7c0,.57.16.93.78.93a1.41,1.41,0,0,0,.75-.18V9a2.75,2.75,0,0,1-1.1.2c-1.48,0-1.83-.69-1.83-2V4.52Z"/><path class="cls-1" d="M37,3.15a2.94,2.94,0,0,1,3,3,3,3,0,0,1-6.08,0A2.94,2.94,0,0,1,37,3.15Zm0,4.73a1.63,1.63,0,0,0,1.64-1.71,1.64,1.64,0,1,0-3.28,0A1.63,1.63,0,0,0,37,7.88Z"/><path class="cls-1" d="M47.75,4.89a1.26,1.26,0,0,0-1.1-.59c-.37,0-.81.18-.81.61,0,1,3,.19,3,2.43,0,1.36-1.27,1.84-2.41,1.84a2.7,2.7,0,0,1-2.18-.89l.93-.89a1.74,1.74,0,0,0,1.33.7c.41,0,.94-.2.94-.66,0-1.18-3-.25-3-2.43,0-1.28,1.12-1.86,2.25-1.86a2.38,2.38,0,0,1,2,.88Z"/><path class="cls-1" d="M49.28,4.52V3.3h1.16V1.64h1.4V3.3h1.54V4.52H51.84V7c0,.57.16.93.78.93a1.47,1.47,0,0,0,.76-.18V9a2.83,2.83,0,0,1-1.11.2c-1.48,0-1.83-.69-1.83-2V4.52Z"/><path class="cls-1" d="M58,8.24h0a2,2,0,0,1-1.79.94,1.84,1.84,0,0,1-2-1.72c0-1.87,2.13-2,3.53-2H58V5.3c0-.7-.54-1.07-1.29-1.07a2.16,2.16,0,0,0-1.49.6l-.73-.76a3.23,3.23,0,0,1,2.37-.92c2.39,0,2.39,1.77,2.39,2.58V9H58Zm-.09-1.78h-.29c-.77,0-2.1.06-2.1.89,0,.52.53.75,1,.75,1,0,1.41-.51,1.41-1.31Z"/><path class="cls-1" d="M60.72,3.3h1.4v.91h0A1.78,1.78,0,0,1,63.8,3.15a1.64,1.64,0,0,1,.5.09V4.62a2.65,2.65,0,0,0-.67-.1A1.43,1.43,0,0,0,62.12,6V9h-1.4Z"/><path class="cls-1" d="M64.6,4.52V3.3h1.16V1.64h1.4V3.3H68.7V4.52H67.16V7c0,.57.16.93.78.93a1.47,1.47,0,0,0,.76-.18V9a2.83,2.83,0,0,1-1.11.2c-1.48,0-1.83-.69-1.83-2V4.52Z"/><path class="cls-1" d="M72.48,3.3H74l1.56,4h0l1.4-4h1.46l-2.65,7c-.4,1.08-.89,1.64-2.13,1.64a4.3,4.3,0,0,1-1.07-.14l.17-1.29a2.14,2.14,0,0,0,.71.14c.69,0,.88-.25,1.11-.85l.27-.68Z"/><path class="cls-1" d="M82.05,3.15a2.94,2.94,0,0,1,3,3,3,3,0,0,1-6.09,0A2.94,2.94,0,0,1,82.05,3.15Zm0,4.73a1.64,1.64,0,0,0,1.64-1.71,1.65,1.65,0,1,0-3.29,0A1.64,1.64,0,0,0,82.05,7.88Z"/><path class="cls-1" d="M91.5,9H90.17V8.11h0a1.76,1.76,0,0,1-1.72,1.07,2,2,0,0,1-2-2.26V3.3h1.4V6.2c0,.63,0,1.68,1,1.68s1.28-.69,1.28-1.45V3.3h1.4Z"/><path class="cls-1" d="M93.08,3.3h1.4v.91h0a1.78,1.78,0,0,1,1.66-1.06,1.76,1.76,0,0,1,.5.09V4.62a2.8,2.8,0,0,0-.68-.1A1.42,1.42,0,0,0,94.48,6V9h-1.4Z"/><path class="cls-1" d="M104.88,5a1.51,1.51,0,0,0-1.06-.58,1.65,1.65,0,0,0-1.64,1.73,1.64,1.64,0,0,0,1.64,1.71,1.36,1.36,0,0,0,1.09-.53l.93,1a3.15,3.15,0,0,1-2,.8,2.93,2.93,0,0,1-3-3,2.94,2.94,0,0,1,3-3,2.72,2.72,0,0,1,2,.88Z"/><path class="cls-1" d="M109.44,3.15a2.94,2.94,0,0,1,3,3,3,3,0,0,1-6.08,0A2.94,2.94,0,0,1,109.44,3.15Zm0,4.73a1.64,1.64,0,0,0,1.64-1.71,1.65,1.65,0,1,0-3.29,0A1.64,1.64,0,0,0,109.44,7.88Z"/><path class="cls-1" d="M113.81,0h1.39V9h-1.39Z"/><path class="cls-1" d="M116.83,0h1.4V9h-1.4Z"/><path class="cls-1" d="M121,6.67A1.46,1.46,0,0,0,122.46,8,1.85,1.85,0,0,0,124,7.25L125,8a2.9,2.9,0,0,1-2.37,1.15,2.93,2.93,0,0,1-3-3,2.94,2.94,0,0,1,3-3c1.57,0,2.63,1.13,2.63,3.12v.4Zm2.87-1.08a1.3,1.3,0,0,0-1.42-1.36A1.41,1.41,0,0,0,121,5.59Z"/><path class="cls-1" d="M130.35,5a1.52,1.52,0,0,0-1.06-.58,1.65,1.65,0,0,0-1.64,1.73,1.64,1.64,0,0,0,1.64,1.71,1.36,1.36,0,0,0,1.09-.53l.93,1a3.15,3.15,0,0,1-2,.8,2.93,2.93,0,0,1-3-3,2.94,2.94,0,0,1,3-3,2.72,2.72,0,0,1,2,.88Z"/><path class="cls-1" d="M131.49,4.52V3.3h1.16V1.64H134V3.3h1.54V4.52H134V7c0,.57.17.93.79.93a1.41,1.41,0,0,0,.75-.18V9a2.75,2.75,0,0,1-1.1.2c-1.48,0-1.83-.69-1.83-2V4.52Z"/><path class="cls-1" d="M137.39.49a.87.87,0,0,1,.91.86.9.9,0,0,1-1.8,0A.87.87,0,0,1,137.39.49ZM136.7,3.3h1.4V9h-1.4Z"/><path class="cls-1" d="M142.47,3.15a2.94,2.94,0,0,1,3,3,3,3,0,0,1-6.08,0A2.94,2.94,0,0,1,142.47,3.15Zm0,4.73a1.64,1.64,0,0,0,1.64-1.71,1.64,1.64,0,1,0-3.28,0A1.63,1.63,0,0,0,142.47,7.88Z"/><path class="cls-1" d="M146.81,3.3h1.33v.92h0a1.74,1.74,0,0,1,1.71-1.07,2,2,0,0,1,2,2.26V9h-1.4V6.13c0-.63-.05-1.69-1-1.69s-1.28.7-1.28,1.46V9h-1.4Z"/></g></g></svg>