<?xml version="1.0" encoding="UTF-8"?><svg id="PART_3" xmlns="http://www.w3.org/2000/svg" viewBox="0 0 848.75 154.47"><defs><style>.cls-1{fill:#fff;}</style></defs><path class="cls-1" d="M64.22,.72V26.27c10.01,.67,26.26,6.54,33.2,20.22l4.65-1.48c-7.82-16.27-26.42-23.03-37.83-23.46V5.49c20.29,.63,45.22,10.99,55.15,33.39l4.65-1.48C113.76,13.82,88.87,1.78,64.22,.72Z"/><g><path class="cls-1" d="M215.96,0c-43.74,0-74.17,33.81-74.6,76.71,0,.02,0,.03,0,.05h4.65c0-40.36,28.95-71.9,69.95-71.9s70.16,31.27,70.16,71.85h-.67v.05h5.32s0-.03,0-.05c-.42-43.11-30.85-76.71-74.81-76.71Z"/><path class="cls-1" d="M268.52,76.71h-1.43c0-26.2-16.06-54.52-51.14-54.52s-50.93,28.37-50.93,54.57h4.65c.07-27.82,17.17-49.71,46.28-49.71s46.42,21.89,46.49,49.71h6.08v-.05Z"/></g><g><polygon class="cls-1" points="626.52 3.1 626.46 3.21 626.46 8.07 707 8.07 707 3.21 651.08 3.21 651.13 3.1 626.52 3.1"/><rect class="cls-1" x="626.46" y="24.34" width="80.54" height="4.86"/></g><g><g><path class="cls-1" d="M573.97,54.92h4.86c-.12-33.87-26.68-51.54-52.82-51.54h-67.62v4.86h67.62c27.46,0,47.96,18.59,47.97,46.68Z"/><path class="cls-1" d="M550.51,54.92h4.86c-.43-17.95-12.26-29.77-30.43-29.77h-66.57v4.78h28.53v-.13h38.04c18.68,0,25.47,13.55,25.56,25.12Z"/></g><g><path class="cls-1" d="M573.97,54.26h4.86c-.12,33.87-26.68,51.54-52.82,51.54h-67.62v-4.86h67.62c27.46,0,47.96-18.59,47.97-46.68Z"/><path class="cls-1" d="M550.51,54.26h4.86c-.43,17.95-12.26,29.77-30.43,29.77h-66.57v-4.78h28.53v.13h38.04c18.68,0,25.47-13.55,25.56-25.12Z"/></g></g><path class="cls-1" d="M407.98,89.2v1.03c0,22.19-11.41,37.19-34.66,37.19s-34.66-15.21-34.66-37.19V3.38h-29.37V90.66c0,39.52,24.51,63.61,63.82,63.61s64.03-24.51,64.03-63.61v-1.45h-29.16Z"/></svg>