<svg width="728" height="90" viewBox="0 0 728 90" fill="none" xmlns="http://www.w3.org/2000/svg">
<rect width="728" height="90" fill="#171D21"/>
<g clip-path="url(#clip0_5_431)">
<path d="M58.4794 53.2592V33H51.3477V37.0315H53.3907V53.9002C53.6239 55.9516 55.0321 57.1292 57.253 57.1292H60.5409V53.2631H58.4767L58.4807 53.2592H58.4794Z" fill="white"/>
<path d="M70.5493 39.8357C65.0483 39.8357 61.6313 43.1156 61.6313 48.677C61.6313 54.2384 65.0497 57.4853 70.5493 57.4853C76.0489 57.4853 79.4672 54.2423 79.4672 48.677C79.4672 43.1118 76.0489 39.8357 70.5493 39.8357ZM73.9412 49.8076C73.9412 52.1693 72.707 53.5224 70.5532 53.5224C68.3995 53.5224 67.1652 52.1693 67.1652 49.8076V47.5146C67.1652 45.1529 68.3995 43.7998 70.5532 43.7998C72.707 43.7998 73.9412 45.1529 73.9412 47.5146V49.8076Z" fill="white"/>
<path d="M121.912 51.363C120.208 51.363 118.825 52.706 118.825 54.3619C118.825 56.0177 120.212 57.3607 121.912 57.3607C123.613 57.3607 125 56.0177 125 54.3619C125 52.706 123.613 51.363 121.912 51.363Z" fill="white"/>
<path d="M96.8681 53.263V46.4018C96.8681 42.1681 94.1071 39.8357 89.0949 39.8357C85.4961 39.8357 82.685 41.0744 81.3809 43.23L81.3032 43.3559L84.2987 45.9402L84.4172 45.7812C85.4961 44.3594 86.7593 43.726 88.5166 43.726C90.6071 43.726 91.5002 44.5832 91.5002 46.5913V46.9042H88.8867C83.5742 46.9042 80.8804 48.7152 80.8804 52.2901C80.8804 55.3754 82.9827 57.2792 86.6513 57.5132C86.8028 57.5234 87.011 57.5311 87.256 57.5311C88.1082 57.5311 90.5649 57.3848 92.0179 55.6374C92.0442 55.6374 92.28 55.6374 92.28 55.6374C92.9044 57.0071 94.5813 57.1203 95.7589 57.1203H98.5213V53.2579H96.8602L96.8681 53.2617V53.263ZM91.5081 49.8903V51.7407C91.5081 53.1053 90.3515 53.9828 88.5574 53.9828C87.0268 53.9828 86.1481 53.3927 86.1481 52.3626V51.7076C86.1481 50.2069 87.7157 49.8903 89.0316 49.8903H91.5107H91.5068H91.5081Z" fill="white"/>
<path d="M25.9913 40.2325V51.1188C25.9913 52.6806 24.4975 53.394 23.1078 53.394C21.2834 53.394 20.3613 52.3537 20.3613 50.2986V41.7968C20.2836 41.1393 19.6934 40.3012 18.6238 40.23H15V50.9535C15 54.9812 17.1893 57.4866 21.0173 57.4866C23.5083 57.4866 25.1048 56.8583 25.9874 55.6565H26.2534V57.0949H31.3513V40.2325H25.9913Z" fill="white"/>
<path d="M39.6001 57.0987V46.2123C39.6001 44.6506 41.0938 43.9371 42.4836 43.9371C44.308 43.9371 45.2301 44.9775 45.2301 47.0326V55.5344C45.3078 56.1919 45.8979 57.03 46.9676 57.1012H50.59V46.3777C50.59 42.35 48.4007 39.8446 44.5728 39.8446C42.0818 39.8446 40.4853 40.4729 39.6027 41.6747H39.3366V40.2363H34.2388V57.0974H39.5987L39.6001 57.0987Z" fill="white"/>
<path d="M106.03 57.0987V46.2123C106.03 44.6506 107.524 43.9371 108.914 43.9371C110.738 43.9371 111.66 44.9775 111.66 47.0326V55.5344C111.738 56.1919 112.328 57.03 113.398 57.1012H117.02V46.3777C117.02 42.35 114.831 39.8446 111.003 39.8446C108.512 39.8446 106.915 40.4729 106.033 41.6747H105.767V40.2363H100.669V57.0974H106.029L106.03 57.0987Z" fill="white"/>
</g>
<defs>
<clipPath id="clip0_5_431">
<rect width="110" height="24.5324" fill="white" transform="translate(15 33)"/>
</clipPath>
</defs>
</svg>
