<svg width="728" height="90" viewBox="0 0 728 90" fill="none" xmlns="http://www.w3.org/2000/svg">
<g clip-path="url(#clip0_4_307)">
<path d="M676.53 48.7356V38H672.834V40.1363H673.893V49.0753C674.014 50.1623 674.744 50.7864 675.895 50.7864H677.598V48.7376H676.529L676.531 48.7356H676.53Z" fill="#171D21"/>
<path d="M682.785 41.6223C679.934 41.6223 678.164 43.3604 678.164 46.3074C678.164 49.2545 679.935 50.975 682.785 50.975C685.634 50.975 687.406 49.2565 687.406 46.3074C687.406 43.3583 685.634 41.6223 682.785 41.6223ZM684.542 46.9066C684.542 48.158 683.903 48.8751 682.787 48.8751C681.671 48.8751 681.031 48.158 681.031 46.9066V45.6915C681.031 44.44 681.671 43.7229 682.787 43.7229C683.903 43.7229 684.542 44.44 684.542 45.6915V46.9066Z" fill="#171D21"/>
<path d="M709.4 47.7308C708.517 47.7308 707.8 48.4425 707.8 49.3199C707.8 50.1974 708.519 50.9091 709.4 50.9091C710.281 50.9091 711 50.1974 711 49.3199C711 48.4425 710.281 47.7308 709.4 47.7308Z" fill="#171D21"/>
<path d="M696.423 48.7376V45.1018C696.423 42.8583 694.992 41.6223 692.395 41.6223C690.53 41.6223 689.073 42.2787 688.398 43.421L688.357 43.4877L689.909 44.8572L689.971 44.7729C690.53 44.0195 691.185 43.6838 692.095 43.6838C693.178 43.6838 693.641 44.1381 693.641 45.2022V45.368H692.287C689.534 45.368 688.138 46.3277 688.138 48.2221C688.138 49.857 689.228 50.8659 691.129 50.9899C691.207 50.9953 691.315 50.9993 691.442 50.9993C691.884 50.9993 693.157 50.9218 693.909 49.9958C693.923 49.9958 694.045 49.9958 694.045 49.9958C694.369 50.7216 695.238 50.7816 695.848 50.7816H697.279V48.7349H696.419L696.423 48.7369V48.7376ZM693.645 46.9504V47.9309C693.645 48.654 693.046 49.119 692.116 49.119C691.323 49.119 690.868 48.8063 690.868 48.2605V47.9134C690.868 47.1182 691.68 46.9504 692.362 46.9504H693.647H693.645H693.645Z" fill="#171D21"/>
<path d="M659.695 41.8326V47.6014C659.695 48.429 658.921 48.8071 658.201 48.8071C657.256 48.8071 656.778 48.2558 656.778 47.1668V42.6616C656.738 42.3132 656.432 41.869 655.878 41.8313H654V47.5138C654 49.6481 655.134 50.9758 657.118 50.9758C658.409 50.9758 659.236 50.6429 659.693 50.006H659.831V50.7682H662.473V41.8326H659.695Z" fill="#171D21"/>
<path d="M666.747 50.7702V45.0014C666.747 44.1738 667.521 43.7958 668.242 43.7958C669.187 43.7958 669.665 44.347 669.665 45.4361V49.9413C669.705 50.2897 670.011 50.7338 670.565 50.7716H672.442V45.089C672.442 42.9547 671.308 41.6271 669.324 41.6271C668.033 41.6271 667.206 41.96 666.749 42.5969H666.611V41.8346H663.969V50.7695H666.747L666.747 50.7702Z" fill="#171D21"/>
<path d="M701.17 50.7702V45.0014C701.17 44.1738 701.944 43.7958 702.664 43.7958C703.61 43.7958 704.087 44.347 704.087 45.4361V49.9413C704.128 50.2897 704.433 50.7338 704.988 50.7716H706.865V45.089C706.865 42.9547 705.73 41.6271 703.747 41.6271C702.456 41.6271 701.629 41.96 701.171 42.5969H701.033V41.8346H698.392V50.7695H701.169L701.17 50.7702Z" fill="#171D21"/>
</g>
<defs>
<clipPath id="clip0_4_307">
<rect width="57" height="13" fill="white" transform="translate(654 38)"/>
</clipPath>
</defs>
</svg>
