<?xml version="1.0" encoding="UTF-8"?><svg xmlns="http://www.w3.org/2000/svg" viewBox="0 0 320 50"><defs><style>.e{fill:#f47b30;}.f{fill:#eb2227;}.g{fill:#fff;}.h{fill:#ffc216;}.i{fill:#bcbec0;}.j{fill:#231f20;}</style></defs><g id="a"/><g id="b"/><g id="c"/><g id="d"><g><g><path class="i" d="M257.01,6.99c0,2.2,0,5.52-.01,5.68v13.14c-.04,1.2-1.01,2.14-2.21,2.13h-30.71v-.06c-5.89-.5-10.55-5.48-10.55-11.49,0-6.36,5.17-11.53,11.53-11.53h29.8c.57-.01,1.11,.21,1.51,.61,.4,.4,.63,.94,.63,1.51"/><path class="j" d="M256.12,6.99c0-.69-.56-1.25-1.25-1.25h-29.8c-5.88,.01-10.64,4.78-10.64,10.66s4.71,10.59,10.55,10.64h0l29.82,.02c.72,0,1.3-.57,1.33-1.28V12.63c0-.11,0-2.65,0-5.64"/><path class="f" d="M255.23,6.99c0-.13-.07-.22-.11-.26-.04-.04-.13-.11-.26-.11h-25.53c3.75,1.66,6.38,5.4,6.38,9.76s-2.63,8.12-6.39,9.76h25.48c.24,.01,.43-.18,.44-.41V12.6c0-.17,0-2.6,0-5.61"/><path class="e" d="M225.03,23.6c-3.63,0-6.81-1.48-8.49-3.66,1.39,3.32,4.67,5.65,8.49,5.65s7.1-2.34,8.49-5.65c-1.68,2.18-4.85,3.66-8.49,3.66"/><path class="e" d="M216.55,12.85c1.68-2.18,4.85-3.66,8.49-3.66s6.81,1.48,8.49,3.66c-1.39-3.32-4.67-5.65-8.49-5.65s-7.1,2.34-8.49,5.65"/><path class="g" d="M234.77,16.39c0-5.37-4.37-9.74-9.74-9.74s-9.74,4.37-9.74,9.74,4.37,9.74,9.74,9.74,9.74-4.37,9.74-9.74m-18.23,3.55c1.68,2.18,4.85,3.66,8.49,3.66s6.81-1.48,8.49-3.66c-1.39,3.32-4.67,5.65-8.49,5.65s-7.1-2.34-8.49-5.65m16.97-7.09c-1.68-2.18-4.85-3.66-8.49-3.66s-6.81,1.48-8.49,3.66c1.39-3.32,4.67-5.65,8.49-5.65s7.1,2.34,8.49,5.65m.7,3.19h-4.22v.55h4.22c-.15,3.58-4.21,6.45-9.19,6.45s-9.04-2.88-9.19-6.45h3.12v-.55h-3.12c.25-3.51,4.28-6.3,9.19-6.3s8.93,2.8,9.19,6.3"/><polygon class="g" points="220.82 15.99 220.82 20.08 219.44 20.08 219.44 12.51 221.02 12.51 221.96 16.62 221.96 12.51 223.37 12.51 223.37 20.08 221.73 20.08 220.82 15.99"/><path class="g" d="M227.47,18.69c0,1.01-.42,1.4-1.3,1.4h-2.25v-7.58h2.25c.88,0,1.3,.39,1.3,1.4v.86c0,.88-.26,1.27-.85,1.37,.59,.1,.85,.49,.85,1.36v1.19Zm-1.53-4.79c0-.18-.12-.28-.24-.28h-.26v1.95h.25c.12,0,.25-.1,.25-.27v-1.41Zm0,3.08c0-.17-.13-.27-.25-.27h-.25v2.25h.26c.12,0,.24-.1,.24-.28v-1.71Z"/><polygon class="g" points="227.99 12.51 229.52 12.51 229.52 18.9 230.62 18.9 230.62 20.08 227.99 20.08 227.99 12.51"/><path class="g" d="M245.45,25.06c-4.68,0-7.35-.75-8.28-2.31-.26-.43-.28-.96-.28-.96V12.62s0-.08,0-.2v-.46c0-.08,0-.16,.02-.22,.25-1.95,3.16-3.88,8.55-3.88s8.31,1.93,8.55,3.88c.04,.29,0,.88,0,.88v9.16s-.02,.53-.28,.96c-.94,1.57-3.61,2.31-8.28,2.31"/><path class="g" d="M252.72,24.36c.07,0,.12,0,.12-.08,0-.06-.06-.08-.11-.08h-.11v.16h.09Zm-.09,.29h-.08v-.51h.2c.12,0,.18,.04,.18,.15,0,.09-.06,.13-.13,.14l.15,.23h-.09l-.14-.22h-.09v.22Zm.1,.12c.2,0,.36-.16,.36-.37s-.16-.37-.36-.37-.36,.16-.36,.37,.16,.37,.36,.37m-.45-.37c0-.25,.21-.44,.45-.44s.45,.19,.45,.44-.21,.45-.45,.45-.45-.19-.45-.45"/><path class="h" d="M245.42,24.53c5.02,0,7.56-.88,8.01-2.56,.08-.31-.17-.4-.42-.4h-15.18c-.25,0-.5,.09-.42,.4,.46,1.68,3,2.56,8.01,2.56"/><path class="h" d="M245.43,8.38c-5.02,0-7.69,1.72-8.01,3.45-.08,.4,.17,.53,.42,.53h15.18c.25,0,.5-.14,.42-.53-.32-1.73-3-3.45-8.01-3.45"/><path class="f" d="M251.91,13.92l-.32-.51c-.09-.18-.39-.21-.55-.15-.21,.08-.31,.3-.21,.48l.63,1.03c.05,.08,.07,.13,.07,.21v.74c0,.21,.25,.31,.43,.31s.43-.1,.43-.31v-.74c0-.08,0-.12,.07-.21l.63-1.03c.09-.18-.01-.4-.21-.48-.16-.06-.46-.03-.55,.15l-.32,.5s-.06,.04-.08,0m-1.93,3.49c-.12,.08,0,.24,.1,.24,.11,0,.57-.41,.39-.82-.05-.1-.15-.18-.28-.18-.16,0-.29,.13-.29,.28,0,.19,.12,.25,.15,.27,.04,.01,.03,.04,.02,.06-.02,.07-.04,.1-.1,.16m1.7,3.32c-.54,0-.86-.1-1.13-.35-.21-.21-.12-.46-.04-.59,.08-.13,.26-.32,.59-.15,.29,.15,.33,.11,.47,.11,.21,0,.3-.16,.3-.33s-.15-.23-.26-.25l-.24-.05c-.47-.09-.94-.45-.94-.99,0-.88,.55-1.48,1.44-1.48h0c.48,0,.71,.08,.99,.35,.21,.21,.12,.45,.04,.58-.08,.13-.27,.33-.6,.15-.24-.13-.29-.11-.4-.11-.18,0-.27,.13-.27,.28,0,.14,.15,.21,.25,.23l.27,.07c.51,.13,.95,.49,.96,1.12,0,.81-.45,1.4-1.43,1.4m-1.98-3.22l-.8,.98s-.17,.17-.04,.34c.14,.19,.78,.93,.78,.93,0,0,.43,.4-.01,.79-.44,.38-.68,.05-.68,.05l-1.04-1.25s-.11-.1-.11,.08h0v.86c0,.31-.33,.45-.56,.45s-.56-.14-.56-.45v-3.17c0-.31,.33-.45,.56-.45s.56,.14,.56,.45v.86h0c0,.1,.07,.1,.11,.04l.93-1.12c.21-.27,.52-.27,.77-.06,.22,.19,.27,.43,.08,.67m-10.78,3.21c.86,0,1.11-.55,1.11-1.14v-2.49c0-.3-.33-.45-.56-.45s-.56,.14-.56,.45v2.29c.02,.36-.21,.46-.3,.19-.13-.32-.45-.25-.58-.19-.12,.06-.3,.23-.23,.54,.13,.48,.47,.8,1.12,.8m3.09-1.47h-.37s-.06-.02-.05-.07l.18-.59c.02-.09,.09-.1,.12,0l.18,.59c.02,.06,0,.07-.06,.07m.37,.9l.06,.18c.06,.27,.42,.42,.62,.38,.23-.04,.49-.3,.4-.59l-.95-3.07c-.09-.31-.45-.39-.67-.4-.22,0-.58,.1-.67,.4l-.95,3.07c-.1,.29,.17,.55,.4,.59,.21,.04,.56-.12,.62-.38l.05-.18c.01-.06,.04-.07,.09-.07h.92c.07,0,.07,.03,.08,.07m2.15-1.45c0,.54,.21,1.03,.8,1.03,.16,0,.18-.02,.38-.11,.35-.16,.54,.03,.63,.16,.09,.13,.18,.4-.04,.62-.22,.23-.54,.36-1.03,.36-1.12,0-1.9-.84-1.9-2.06s.78-2.06,1.9-2.06c.47,0,.78,.11,1.03,.36,.22,.22,.13,.48,.04,.61-.09,.13-.28,.33-.63,.16-.18-.08-.22-.11-.38-.11-.59,0-.8,.5-.8,1.04h0Zm-5.77-3.71c-.05,0-.1,.02-.1,.09v.63c0,.21-.25,.31-.43,.31s-.43-.1-.43-.31v-2.17c0-.21,.25-.31,.43-.31s.43,.1,.43,.31v.58c0,.06,.04,.09,.09,.09h.44c.06,0,.09-.02,.09-.09v-.58c0-.21,.25-.31,.43-.31s.43,.1,.43,.31v2.17c0,.21-.25,.31-.43,.31s-.43-.1-.43-.31v-.63c0-.07-.04-.09-.1-.09h-.43Zm8.57,0c-.31,0-.36-.21-.36-.37s.07-.35,.37-.35h.6c.21,0,.35,.08,.35,.29v.78c0,.45-.57,.69-1.19,.69-.81,0-1.44-.45-1.44-1.44,0-.84,.59-1.42,1.45-1.42,.44,0,.77,.09,1,.29,.17,.15,.1,.35,.03,.44-.07,.09-.21,.23-.48,.11-.27-.12-.35-.12-.51-.12-.45,0-.61,.34-.61,.71s.2,.68,.54,.68c.28,0,.38-.09,.37-.23,0-.06-.03-.06-.11-.06m2.22-.59c.17,0,.31-.11,.31-.3s-.06-.3-.32-.3c-.1,0-.12,.02-.15,.06v.49c0,.05,.06,.05,.17,.05m.78,.4s-.03,.05-.02,.08l.47,.61c.12,.16,0,.38-.15,.48-.14,.09-.45,.1-.57-.06l-.59-.77s-.08-.02-.08,.03v.57c0,.2-.25,.29-.42,.29s-.42-.09-.42-.29v-2.2c0-.2,.22-.31,.42-.31h.79c.7,0,.94,.54,.94,.83,0,.26-.07,.55-.37,.75m-8.82,1.23c.51,0,1.1-.33,1.1-.81v-1.73c0-.2-.25-.29-.42-.29s-.42,.09-.42,.29v1.56c0,.11-.14,.18-.26,.18s-.26-.07-.26-.18v-1.56c0-.2-.25-.29-.42-.29s-.42,.09-.42,.29v1.73c0,.47,.59,.81,1.1,.81m2.22-1.15v.82c0,.19-.26,.31-.43,.31s-.43-.1-.43-.31v-2.2c0-.21,.26-.33,.43-.33,.22,0,.36,.12,.46,.26l.69,.86c.05,.07,.13,.08,.13,.02v-.81c0-.21,.26-.33,.43-.33s.43,.12,.43,.33v2.2c0,.21-.26,.31-.43,.31-.15,0-.25,0-.43-.23-.18-.22-.73-.91-.73-.91-.04-.05-.12-.06-.12,0"/></g><g><path class="g" d="M266.09,9.51v1.34c0,.57-.09,.95-.26,1.17s-.47,.32-.91,.32-.74-.11-.91-.32c-.17-.21-.25-.6-.25-1.17v-1.34c0-.56,.09-.95,.25-1.16,.17-.21,.47-.31,.91-.31s.74,.1,.91,.31c.17,.21,.25,.6,.25,1.16Zm-.86-.19c0-.27-.02-.44-.07-.52-.04-.08-.12-.12-.24-.12s-.2,.04-.24,.12c-.05,.08-.07,.26-.07,.52v1.73c0,.27,.02,.44,.07,.52,.04,.08,.12,.12,.24,.12s.2-.04,.24-.12c.05-.08,.07-.25,.07-.52v-1.73Z"/><path class="g" d="M266.78,8.1h1.74v.64h-.88v1.08h.83v.64h-.83v1.8h-.86v-4.17Z"/><path class="g" d="M269.09,8.1h1.74v.64h-.88v1.08h.83v.64h-.83v1.8h-.86v-4.17Z"/><path class="g" d="M271.43,8.1h.86v4.17h-.86v-4.17Z"/><path class="g" d="M275.26,9.25v.16h-.83v-.09c0-.27-.02-.44-.06-.52s-.12-.12-.22-.12-.18,.04-.22,.12c-.04,.08-.06,.26-.06,.52v1.73c0,.26,.02,.44,.07,.52,.04,.08,.12,.13,.23,.13s.18-.04,.22-.12c.04-.08,.06-.23,.06-.46v-.23h.83v.23c0,.46-.08,.77-.24,.95-.16,.18-.45,.27-.85,.27-.44,0-.74-.11-.91-.32-.17-.21-.25-.6-.25-1.17v-1.34c0-.57,.09-.95,.26-1.16,.17-.21,.48-.31,.91-.31,.4,0,.68,.09,.85,.27,.16,.18,.24,.5,.24,.95Z"/><path class="g" d="M275.9,8.1h.86v4.17h-.86v-4.17Z"/><path class="g" d="M278.01,8.1h1.11l.69,4.17h-.83l-.11-.87h-.72l-.14,.87h-.76l.78-4.17Zm.52,.72l-.28,1.93h.53l-.23-1.93h-.02Z"/><path class="g" d="M280.27,8.1h.86v3.53h.99v.64h-1.85v-4.17Z"/><path class="g" d="M286.22,9.51v1.34c0,.57-.09,.95-.26,1.17s-.47,.32-.91,.32-.74-.11-.91-.32c-.17-.21-.25-.6-.25-1.17v-1.34c0-.56,.09-.95,.25-1.16,.17-.21,.47-.31,.91-.31s.74,.1,.91,.31c.17,.21,.25,.6,.25,1.16Zm-.86-.19c0-.27-.02-.44-.07-.52-.04-.08-.12-.12-.24-.12s-.2,.04-.24,.12c-.05,.08-.07,.26-.07,.52v1.73c0,.27,.02,.44,.07,.52,.04,.08,.12,.12,.24,.12s.2-.04,.24-.12c.05-.08,.07-.25,.07-.52v-1.73Z"/><path class="g" d="M286.91,8.1h1.13l.62,3.53h.06l-.06-3.53h.7v4.17h-1.14l-.61-3.53h-.06l.06,3.53h-.7v-4.17Z"/><path class="g" d="M289.98,10.42h1.18v.79h-1.18v-.79Z"/><path class="g" d="M291.79,8.1h.83c.32,0,.57,.03,.73,.08,.16,.05,.3,.14,.41,.26,.11,.12,.18,.27,.23,.45,.04,.18,.07,.44,.07,.77v1.04c0,.33-.02,.59-.07,.78-.05,.19-.12,.34-.23,.46-.11,.12-.24,.2-.41,.25-.17,.05-.41,.08-.73,.08h-.83v-4.17Zm.87,.64v2.88h.08c.17,0,.29-.03,.36-.1,.07-.06,.1-.18,.1-.34v-2.01c0-.16-.03-.28-.1-.34-.07-.06-.19-.1-.36-.1h-.08Z"/><path class="g" d="M294.75,8.1h1.71v.64h-.85v1.02h.79v.64h-.79v1.22h.92v.64h-1.78v-4.17Z"/><path class="g" d="M297.13,8.1h1.18l.38,2.99h.04l.43-2.99h1.16v4.17h-.71v-3.42h-.05l-.49,3.42h-.77l-.43-3.42h-.06v3.42h-.67v-4.17Z"/><path class="g" d="M301.54,8.1h1.11l.69,4.17h-.83l-.11-.87h-.72l-.14,.87h-.76l.78-4.17Zm.52,.72l-.28,1.93h.53l-.23-1.93h-.02Z"/><path class="g" d="M303.8,8.1h1.13l.62,3.53h.06l-.06-3.53h.7v4.17h-1.14l-.61-3.53h-.06l.06,3.53h-.7v-4.17Z"/><path class="g" d="M306.94,8.1h.83c.32,0,.57,.03,.73,.08,.16,.05,.3,.14,.41,.26,.11,.12,.18,.27,.23,.45,.04,.18,.07,.44,.07,.77v1.04c0,.33-.02,.59-.07,.78-.05,.19-.12,.34-.23,.46-.11,.12-.24,.2-.41,.25-.17,.05-.41,.08-.73,.08h-.83v-4.17Zm.87,.64v2.88h.08c.17,0,.29-.03,.36-.1,.07-.06,.1-.18,.1-.34v-2.01c0-.16-.03-.28-.1-.34-.07-.06-.19-.1-.36-.1h-.08Z"/><path class="g" d="M263.77,13.9h.83c.32,0,.57,.03,.73,.08,.16,.05,.3,.14,.41,.26,.11,.12,.18,.27,.23,.45,.04,.18,.07,.44,.07,.77v1.04c0,.33-.02,.59-.07,.78-.05,.19-.12,.34-.23,.46-.11,.12-.24,.2-.41,.25-.17,.05-.41,.08-.73,.08h-.83v-4.17Zm.87,.64v2.88h.08c.17,0,.29-.03,.36-.1,.07-.06,.1-.18,.1-.34v-2.01c0-.16-.03-.28-.1-.34-.07-.06-.19-.1-.36-.1h-.08Z"/><path class="g" d="M266.73,13.9h1.71v.64h-.85v1.02h.79v.64h-.79v1.22h.92v.64h-1.78v-4.17Z"/><path class="g" d="M269.11,13.9h.86v3.53h.99v.64h-1.85v-4.17Z"/><path class="g" d="M271.37,13.9h.86v4.17h-.86v-4.17Z"/><path class="g" d="M272.69,13.9h.85l.37,3.1h.06l.36-3.1h.72l-.69,4.17h-.91l-.76-4.17Z"/><path class="g" d="M275.5,13.9h1.71v.64h-.85v1.02h.79v.64h-.79v1.22h.92v.64h-1.78v-4.17Z"/><path class="g" d="M277.88,13.9h1.04c.41,0,.7,.08,.88,.23s.27,.4,.27,.74v.18c0,.3-.06,.52-.19,.67s-.34,.24-.64,.28c.31,.03,.52,.12,.64,.27,.12,.15,.18,.41,.18,.79v1.02h-.86v-1.28c0-.21-.03-.34-.09-.4-.06-.06-.17-.08-.35-.08h-.09v1.76h-.81v-4.17Zm.81,.62v1.17h.08c.17,0,.28-.03,.35-.1,.06-.07,.1-.19,.1-.37v-.22c0-.18-.03-.3-.1-.37s-.18-.1-.35-.1h-.08Z"/><path class="g" d="M280.44,13.9h.87l.36,1.76h.04l.34-1.76h.77l-.78,2.49v1.68h-.86v-1.68l-.75-2.49Z"/><path class="g" d="M284.63,13.9h.9c.46,0,.78,.09,.97,.26,.19,.17,.28,.47,.28,.88v.27c0,.39-.09,.68-.27,.86-.18,.18-.46,.28-.84,.28h-.24v1.63h-.81v-4.17Zm.81,.62v1.31h.08c.15,0,.26-.04,.32-.12,.06-.08,.09-.22,.09-.42v-.25c0-.2-.03-.34-.09-.41-.06-.08-.17-.11-.32-.11h-.08Z"/><path class="g" d="M287.68,13.9h1.11l.69,4.17h-.83l-.11-.87h-.72l-.14,.87h-.76l.78-4.17Zm.52,.72l-.28,1.93h.53l-.23-1.93h-.02Z"/><path class="g" d="M289.94,13.9h1.04c.41,0,.7,.08,.88,.23s.27,.4,.27,.74v.18c0,.3-.06,.52-.19,.67s-.34,.24-.64,.28c.31,.03,.52,.12,.64,.27,.12,.15,.18,.41,.18,.79v1.02h-.86v-1.28c0-.21-.03-.34-.09-.4-.06-.06-.17-.08-.35-.08h-.09v1.76h-.81v-4.17Zm.81,.62v1.17h.08c.17,0,.28-.03,.35-.1,.06-.07,.1-.19,.1-.37v-.22c0-.18-.03-.3-.1-.37s-.18-.1-.35-.1h-.08Z"/><path class="g" d="M292.58,13.9h2.17v.64h-.64v3.53h-.88v-3.53h-.64v-.64Z"/><path class="g" d="M295.24,13.9h1.13l.62,3.53h.06l-.06-3.53h.7v4.17h-1.14l-.61-3.53h-.06l.06,3.53h-.7v-4.17Z"/><path class="g" d="M298.38,13.9h1.71v.64h-.85v1.02h.79v.64h-.79v1.22h.92v.64h-1.78v-4.17Z"/><path class="g" d="M300.76,13.9h1.04c.41,0,.7,.08,.88,.23s.27,.4,.27,.74v.18c0,.3-.06,.52-.19,.67s-.34,.24-.64,.28c.31,.03,.52,.12,.64,.27,.12,.15,.18,.41,.18,.79v1.02h-.86v-1.28c0-.21-.03-.34-.09-.4-.06-.06-.17-.08-.35-.08h-.09v1.76h-.81v-4.17Zm.81,.62v1.17h.08c.17,0,.28-.03,.35-.1,.06-.07,.1-.19,.1-.37v-.22c0-.18-.03-.3-.1-.37s-.18-.1-.35-.1h-.08Z"/><path class="g" d="M266.09,21.12v1.34c0,.57-.09,.95-.26,1.17s-.47,.32-.91,.32-.74-.11-.91-.32c-.17-.21-.25-.6-.25-1.17v-1.34c0-.56,.09-.95,.25-1.16,.17-.21,.47-.31,.91-.31s.74,.1,.91,.31c.17,.21,.25,.6,.25,1.16Zm-.86-.19c0-.27-.02-.44-.07-.52-.04-.08-.12-.12-.24-.12s-.2,.04-.24,.12c-.05,.08-.07,.26-.07,.52v1.73c0,.27,.02,.44,.07,.52,.04,.08,.12,.12,.24,.12s.2-.04,.24-.12c.05-.08,.07-.25,.07-.52v-1.73Z"/><path class="g" d="M266.78,19.71h1.74v.64h-.88v1.08h.83v.64h-.83v1.8h-.86v-4.17Z"/><path class="g" d="M270.27,19.71h2.17v.64h-.64v3.53h-.88v-3.53h-.64v-.64Z"/><path class="g" d="M272.93,19.71h.86v1.65h.59v-1.65h.86v4.17h-.86v-1.88h-.59v1.88h-.86v-4.17Z"/><path class="g" d="M275.95,19.71h1.71v.64h-.85v1.02h.79v.64h-.79v1.22h.92v.64h-1.78v-4.17Z"/><path class="g" d="M279.72,19.71h1.13l.62,3.53h.06l-.06-3.53h.7v4.17h-1.14l-.61-3.53h-.06l.06,3.53h-.7v-4.17Z"/><path class="g" d="M282.86,19.71h1.04c.41,0,.7,.08,.88,.23s.27,.4,.27,.74v.18c0,.24-.05,.43-.16,.57-.11,.14-.26,.24-.48,.28,.23,.04,.4,.13,.52,.27,.12,.14,.18,.33,.18,.56v.37c0,.34-.09,.59-.27,.74s-.47,.23-.88,.23h-1.11v-4.17Zm.81,.62v1.09h.08c.17,0,.28-.03,.35-.1,.06-.06,.1-.18,.1-.34v-.21c0-.17-.03-.28-.1-.34s-.18-.09-.35-.09h-.08Zm0,1.69v1.26h.09c.19,0,.32-.04,.4-.11,.07-.07,.11-.21,.11-.4v-.24c0-.19-.04-.33-.11-.4-.07-.07-.2-.11-.4-.11h-.09Z"/><path class="g" d="M285.72,19.71h.86v3.53h.99v.64h-1.85v-4.17Z"/></g></g></g></svg>