<svg xmlns="http://www.w3.org/2000/svg" viewBox="0 0 320 50"><defs><style>.cls-1{fill:#fff;}</style></defs><g id="Layer_1" data-name="Layer 1"><path class="cls-1" d="M95.33,35.11h.2l1.55,2.07,1.55-2.07h.21v3.5h-.25v-3l-1.51,2-1.5-2v3h-.25Z"/><path class="cls-1" d="M100,35.18a.17.17,0,0,1,.17.18.16.16,0,0,1-.17.17.17.17,0,0,1-.18-.17A.17.17,0,0,1,100,35.18Zm-.13,1h.23v2.4h-.23Z"/><path class="cls-1" d="M100.93,36.21h.23v.42a1,1,0,0,1,.19-.23.94.94,0,0,1,.63-.24,1,1,0,0,1,1,1v1.43h-.23V37.18a.74.74,0,0,0-.75-.8.84.84,0,0,0-.82.88v1.35h-.23Z"/><path class="cls-1" d="M104.61,37.41a1.2,1.2,0,1,1,1.2,1.25A1.22,1.22,0,0,1,104.61,37.41Zm2.17,0a1,1,0,1,0-1,1A1,1,0,0,0,106.78,37.41Z"/><path class="cls-1" d="M107.68,36.21h.23v.42a.85.85,0,0,1,.2-.23,1,1,0,0,1,.65-.24h.1v.22h-.1a.85.85,0,0,0-.85.88v1.35h-.23Z"/><path class="cls-1" d="M111.18,38.13a1.13,1.13,0,0,1-.22.27,1,1,0,0,1-.7.26,1.26,1.26,0,0,1,0-2.5,1,1,0,0,1,.7.26,1.32,1.32,0,0,1,.22.26V35.11h.23v3.5h-.23Zm0-.72a.92.92,0,1,0-1.82,0,.92.92,0,1,0,1.82,0Z"/><path class="cls-1" d="M114.23,38.16a1.12,1.12,0,0,1-.24.25,1.15,1.15,0,0,1-.71.25,1.22,1.22,0,0,1-1.17-1.25,1.19,1.19,0,0,1,1.15-1.25,1.15,1.15,0,0,1,1.1,1.25v.1h-2a1,1,0,0,0,1,.92.93.93,0,0,0,.59-.21,1,1,0,0,0,.19-.21Zm-.1-.88a.88.88,0,0,0-.87-.9,1,1,0,0,0-.93.9Z"/><path class="cls-1" d="M115,36.21h.23v.42a.85.85,0,0,1,.2-.23,1,1,0,0,1,.65-.24h.1v.22h-.1a.85.85,0,0,0-.85.88v1.35H115Z"/><path class="cls-1" d="M117.58,38a1,1,0,0,0,.24.22,1.2,1.2,0,0,0,.74.23c.6,0,.9-.3.9-.73,0-1-1.95-.5-1.95-1.7a1,1,0,0,1,.95-.91v-.52h.25v.51a1.43,1.43,0,0,1,.67.23,2.11,2.11,0,0,1,.23.19l-.18.18a.88.88,0,0,0-.2-.18,1.21,1.21,0,0,0-.62-.17c-.55,0-.85.3-.85.67,0,1,1.95.5,1.95,1.7a1,1,0,0,1-1,1v.51h-.25v-.51a1.49,1.49,0,0,1-.79-.27,1,1,0,0,1-.26-.25Z"/><path class="cls-1" d="M122.43,38.36v.25h-2.2c0-1.38,2-1.5,2-2.55a.77.77,0,0,0-.85-.75.81.81,0,0,0-.67.31.89.89,0,0,0-.15.31l-.23-.1a1.05,1.05,0,0,1,1-.78,1,1,0,0,1,1.1,1c0,1.12-1.7,1.29-1.92,2.3Z"/><path class="cls-1" d="M123.05,36.86c0-1.13.68-1.81,1.36-1.81s1.35.68,1.35,1.81-.67,1.8-1.35,1.8S123.05,38,123.05,36.86Zm2.46,0c0-1-.56-1.55-1.1-1.55s-1.11.55-1.11,1.55.56,1.55,1.11,1.55S125.51,37.86,125.51,36.86Z"/><path class="cls-1" d="M126.58,38.28a.18.18,0,0,1,.18.18.18.18,0,0,1-.36,0A.18.18,0,0,1,126.58,38.28Z"/><path class="cls-1" d="M131.61,37.91a2.16,2.16,0,0,1-.37.37,1.68,1.68,0,0,1-1.08.38,1.81,1.81,0,0,1,0-3.61,1.75,1.75,0,0,1,1.07.38,2.11,2.11,0,0,1,.35.38l-.17.15a1.93,1.93,0,0,0-.31-.33,1.54,1.54,0,1,0-.94,2.78,1.5,1.5,0,0,0,1-.33,1.39,1.39,0,0,0,.32-.32Z"/><path class="cls-1" d="M132,37.41a1.2,1.2,0,1,1,1.2,1.25A1.23,1.23,0,0,1,132,37.41Zm2.18,0a1,1,0,1,0-1,1A1,1,0,0,0,134.21,37.41Z"/><path class="cls-1" d="M135.11,36.21h.22v.4a1,1,0,0,1,.17-.23.77.77,0,0,1,.56-.22.85.85,0,0,1,.61.27,1.26,1.26,0,0,1,.19.28,1,1,0,0,1,.18-.28.85.85,0,0,1,.64-.27.93.93,0,0,1,.9,1v1.43h-.22V37.18a.71.71,0,0,0-.68-.8c-.4,0-.72.33-.72.88v1.35h-.23V37.18a.71.71,0,0,0-.67-.8.78.78,0,0,0-.73.88v1.35h-.22Z"/><path class="cls-1" d="M139.41,36.21h.22v.47a1.78,1.78,0,0,1,.22-.26,1.08,1.08,0,0,1,.71-.26,1.26,1.26,0,0,1,0,2.5,1.08,1.08,0,0,1-.71-.26,1.44,1.44,0,0,1-.22-.27v1.53h-.22Zm2.05,1.2a.92.92,0,1,0-.9,1A1,1,0,0,0,141.46,37.41Z"/><path class="cls-1" d="M144.31,38.16a1.88,1.88,0,0,1-.24.25,1.18,1.18,0,0,1-.71.25,1.22,1.22,0,0,1-1.18-1.25,1.19,1.19,0,0,1,1.15-1.25,1.15,1.15,0,0,1,1.1,1.25v.1h-2a1,1,0,0,0,1,.92.88.88,0,0,0,.58-.21.76.76,0,0,0,.19-.21Zm-.1-.88a.9.9,0,0,0-.88-.9,1,1,0,0,0-.92.9Z"/><path class="cls-1" d="M145.31,36.43h-.48v-.22h.33a.18.18,0,0,0,.17-.2v-.6h.2v.8h.55v.22h-.55V38c0,.28.15.42.38.42a.8.8,0,0,0,.23,0l.09,0v.22a.25.25,0,0,1-.09,0,.79.79,0,0,1-.23,0,.57.57,0,0,1-.6-.65Z"/><path class="cls-1" d="M147,35.18a.17.17,0,0,1,.17.18.16.16,0,0,1-.17.17.17.17,0,0,1-.18-.17A.17.17,0,0,1,147,35.18Zm-.13,1h.23v2.4h-.23Z"/><path class="cls-1" d="M148.18,36.43h-.47v-.22H148a.18.18,0,0,0,.18-.2v-.6h.2v.8H149v.22h-.55V38c0,.28.15.42.37.42a.75.75,0,0,0,.23,0l.1,0v.22l-.1,0a.73.73,0,0,1-.23,0,.57.57,0,0,1-.6-.65Z"/><path class="cls-1" d="M149.88,35.18a.17.17,0,0,1,.18.18.17.17,0,0,1-.18.17.16.16,0,0,1-.17-.17A.17.17,0,0,1,149.88,35.18Zm-.12,1H150v2.4h-.22Z"/><path class="cls-1" d="M150.68,37.41a1.2,1.2,0,1,1,1.2,1.25A1.23,1.23,0,0,1,150.68,37.41Zm2.18,0a1,1,0,1,0-1,1A1,1,0,0,0,152.86,37.41Z"/><path class="cls-1" d="M153.76,36.21H154v.42a1.07,1.07,0,0,1,.2-.23.9.9,0,0,1,.63-.24,1,1,0,0,1,1,1v1.43h-.22V37.18a.75.75,0,0,0-.75-.8.85.85,0,0,0-.83.88v1.35h-.22Z"/><path class="cls-1" d="M159.56,38.16a1.88,1.88,0,0,1-.24.25,1.18,1.18,0,0,1-.71.25,1.25,1.25,0,0,1,0-2.5,1.12,1.12,0,0,1,.71.25,1.14,1.14,0,0,1,.24.25l-.18.15a.76.76,0,0,0-.19-.21.88.88,0,0,0-.58-.22,1,1,0,0,0,0,2,.88.88,0,0,0,.58-.21.76.76,0,0,0,.19-.21Z"/><path class="cls-1" d="M160.21,35.11h.22v3.5h-.22Z"/><path class="cls-1" d="M161.13,37.41a1.2,1.2,0,1,1,1.2,1.25A1.23,1.23,0,0,1,161.13,37.41Zm2.18,0a1,1,0,1,0-1,1A1,1,0,0,0,163.31,37.41Z"/><path class="cls-1" d="M164.16,38.08a.77.77,0,0,0,.18.18.78.78,0,0,0,.49.17c.4,0,.63-.22.63-.5,0-.6-1.38-.32-1.38-1.12a.72.72,0,0,1,.78-.65,1.05,1.05,0,0,1,.55.17,1.16,1.16,0,0,1,.2.18l-.18.17-.14-.15a.76.76,0,0,0-.43-.15c-.36,0-.55.21-.55.43,0,.58,1.37.29,1.37,1.12a.77.77,0,0,1-.85.73,1.1,1.1,0,0,1-.63-.2,1.42,1.42,0,0,1-.22-.2Z"/><path class="cls-1" d="M168.31,38.16a1.88,1.88,0,0,1-.24.25,1.18,1.18,0,0,1-.71.25,1.22,1.22,0,0,1-1.18-1.25,1.19,1.19,0,0,1,1.15-1.25,1.15,1.15,0,0,1,1.1,1.25v.1h-2a1,1,0,0,0,1,.92.88.88,0,0,0,.58-.21.76.76,0,0,0,.19-.21Zm-.1-.88a.9.9,0,0,0-.88-.9,1,1,0,0,0-.92.9Z"/><path class="cls-1" d="M169.06,38.08a.77.77,0,0,0,.18.18.78.78,0,0,0,.49.17c.4,0,.63-.22.63-.5,0-.6-1.38-.32-1.38-1.12a.72.72,0,0,1,.78-.65,1.05,1.05,0,0,1,.55.17,1.16,1.16,0,0,1,.2.18l-.18.17-.14-.15a.76.76,0,0,0-.43-.15c-.36,0-.55.21-.55.43,0,.58,1.37.29,1.37,1.12a.77.77,0,0,1-.85.73,1.1,1.1,0,0,1-.63-.2,1.42,1.42,0,0,1-.22-.2Z"/><path class="cls-1" d="M174.28,38.36v.25h-2.2c0-1.38,1.95-1.5,1.95-2.55a.77.77,0,0,0-.85-.75.81.81,0,0,0-.67.31.89.89,0,0,0-.15.31l-.23-.1a1.07,1.07,0,0,1,.2-.38,1.1,1.1,0,0,1,1.95.61c0,1.12-1.7,1.29-1.92,2.3Z"/><path class="cls-1" d="M176.46,37.21l-.12,0a1.35,1.35,0,0,1-.33.05,1.13,1.13,0,1,1,0-2.26,1.13,1.13,0,0,1,1.15,1.13,1.34,1.34,0,0,1-.13.54,1.05,1.05,0,0,1-.12.21l-1,1.68h-.28Zm-.45-.15a.88.88,0,1,0-.9-.88A.87.87,0,0,0,176,37.06Z"/><path class="cls-1" d="M179,35.05h.25l-1.53,4.61h-.25Z"/><path class="cls-1" d="M179.71,38a1.15,1.15,0,0,0,.22.22,1.1,1.1,0,0,0,.68.23.87.87,0,0,0,.92-.88.85.85,0,0,0-.87-.87,1,1,0,0,0-.62.21.72.72,0,0,0-.18.21h-.2l.12-2h1.78v.25H180l-.08,1.32a1,1,0,0,1,.2-.13,1,1,0,0,1,.53-.14,1.13,1.13,0,1,1,0,2.25,1.34,1.34,0,0,1-.81-.26,1.15,1.15,0,0,1-.27-.27Z"/><path class="cls-1" d="M183.58,35.05h.25l-1.52,4.61h-.25Z"/><path class="cls-1" d="M186.28,38.36v.25h-2.2c0-1.38,1.95-1.5,1.95-2.55a.77.77,0,0,0-.85-.75.81.81,0,0,0-.67.31.89.89,0,0,0-.15.31l-.23-.1a1.07,1.07,0,0,1,.2-.38,1.1,1.1,0,0,1,1.95.61c0,1.12-1.7,1.29-1.92,2.3Z"/><path class="cls-1" d="M189,38.36v.25h-2.2c0-1.38,1.95-1.5,1.95-2.55a.77.77,0,0,0-.85-.75.81.81,0,0,0-.67.31.89.89,0,0,0-.15.31l-.23-.1a1.07,1.07,0,0,1,.2-.38,1.1,1.1,0,0,1,1.95.61c0,1.12-1.7,1.29-1.92,2.3Z"/><path class="cls-1" d="M189.83,38.28a.18.18,0,0,1,.18.18.17.17,0,0,1-.18.17.16.16,0,0,1-.17-.17A.17.17,0,0,1,189.83,38.28Z"/><path class="cls-1" d="M192.31,35.11h.27l1.23,3.12L195,35.11h.27l-1.38,3.5h-.25Z"/><path class="cls-1" d="M195.91,35.18a.17.17,0,0,1,.17.18.16.16,0,0,1-.17.17.17.17,0,0,1-.18-.17A.17.17,0,0,1,195.91,35.18Zm-.13,1H196v2.4h-.23Z"/><path class="cls-1" d="M196.83,38.08a1.53,1.53,0,0,0,.18.18.81.81,0,0,0,.5.17c.4,0,.62-.22.62-.5,0-.6-1.37-.32-1.37-1.12a.72.72,0,0,1,.77-.65.93.93,0,0,1,.75.35l-.17.17a1.06,1.06,0,0,0-.15-.15.71.71,0,0,0-.43-.15c-.35,0-.55.21-.55.43,0,.58,1.38.29,1.38,1.12a.77.77,0,0,1-.85.73,1.13,1.13,0,0,1-.85-.4Z"/><path class="cls-1" d="M199.18,35.18a.17.17,0,0,1,.18.18.17.17,0,0,1-.18.17.16.16,0,0,1-.17-.17A.17.17,0,0,1,199.18,35.18Zm-.12,1h.22v2.4h-.22Z"/><path class="cls-1" d="M200.36,36.43h-.48v-.22h.33a.18.18,0,0,0,.17-.2v-.6h.2v.8h.55v.22h-.55V38c0,.28.15.42.38.42a.8.8,0,0,0,.23,0l.09,0v.22a.25.25,0,0,1-.09,0,.79.79,0,0,1-.23,0,.57.57,0,0,1-.6-.65Z"/><path class="cls-1" d="M202.48,36.21h.25l.68,2,.65-2h.2l.65,2,.68-2h.25l-.8,2.4h-.23l-.65-2-.65,2h-.23Z"/><path class="cls-1" d="M206,36.21h.25l.68,2,.65-2h.2l.65,2,.67-2h.25l-.8,2.4h-.22l-.65-2-.65,2h-.23Z"/><path class="cls-1" d="M209.58,36.21h.25l.68,2,.65-2h.2l.65,2,.68-2h.25l-.81,2.4h-.22l-.65-2-.65,2h-.23Z"/><path class="cls-1" d="M213.33,38.28a.18.18,0,0,1,.18.18.17.17,0,0,1-.18.17.16.16,0,0,1-.17-.17A.17.17,0,0,1,213.33,38.28Z"/><path class="cls-1" d="M214.38,35.11h1a1.75,1.75,0,1,1,0,3.5h-1Zm1,3.25a1.5,1.5,0,1,0,0-3h-.78v3Z"/><path class="cls-1" d="M219.43,38.18a.91.91,0,0,1-.2.24,1,1,0,0,1-.67.24.7.7,0,1,1-.08-1.4l1-.15a.65.65,0,0,0-.67-.73.85.85,0,0,0-.52.18,1,1,0,0,0-.18.17l-.15-.15a.88.88,0,0,1,.22-.21,1.07,1.07,0,0,1,.63-.21.88.88,0,0,1,.9,1v1.5h-.23Zm0-.85-.9.15c-.38.06-.55.25-.55.5a.52.52,0,0,0,.58.45.85.85,0,0,0,.87-.87Z"/><path class="cls-1" d="M220.43,38.08a1.53,1.53,0,0,0,.18.18.81.81,0,0,0,.5.17c.4,0,.62-.22.62-.5,0-.6-1.37-.32-1.37-1.12a.72.72,0,0,1,.77-.65.93.93,0,0,1,.75.35l-.17.17a1.06,1.06,0,0,0-.15-.15.71.71,0,0,0-.43-.15c-.35,0-.55.21-.55.43,0,.58,1.38.29,1.38,1.12a.77.77,0,0,1-.85.73,1.13,1.13,0,0,1-.85-.4Z"/><path class="cls-1" d="M222.66,35.11h.22v1.52a1.07,1.07,0,0,1,.2-.23.9.9,0,0,1,.63-.24,1,1,0,0,1,1,1v1.43h-.23V37.18a.75.75,0,0,0-.75-.8.85.85,0,0,0-.83.88v1.35h-.22Z"/><path class="cls-1" d="M227.54,38.36v.25h-2.21c0-1.38,2-1.5,2-2.55a.77.77,0,0,0-.86-.75.81.81,0,0,0-.67.31.89.89,0,0,0-.15.31l-.23-.1a1.07,1.07,0,0,1,.2-.38,1,1,0,0,1,.85-.4,1,1,0,0,1,1.11,1c0,1.12-1.71,1.29-1.93,2.3Z"/><path class="cls-1" d="M228.38,35.11h.25v3.25h1.88v.25h-2.13Z"/><path class="cls-1" d="M232.16,35.11h.25l1.45,3.5h-.27l-.43-1h-1.75l-.43,1h-.27Zm.9,2.22-.77-1.87-.78,1.87Z"/><path class="cls-1" d="M234.46,38.28a.17.17,0,0,1,.17.18.16.16,0,0,1-.17.17.17.17,0,0,1-.18-.17A.18.18,0,0,1,234.46,38.28Z"/><path class="cls-1" d="M237.33,38.16a1.12,1.12,0,0,1-.24.25,1.15,1.15,0,0,1-.71.25,1.25,1.25,0,0,1,0-2.5,1.1,1.1,0,0,1,.71.25.82.82,0,0,1,.24.25l-.17.15a1,1,0,0,0-.19-.21.93.93,0,0,0-.59-.22,1,1,0,0,0,0,2,.93.93,0,0,0,.59-.21,1,1,0,0,0,.19-.21Z"/><path class="cls-1" d="M237.73,37.41a1.2,1.2,0,1,1,1.2,1.25A1.23,1.23,0,0,1,237.73,37.41Zm2.18,0a1,1,0,1,0-1,1A1,1,0,0,0,239.91,37.41Z"/><path class="cls-1" d="M240.81,36.21H241v.4a1,1,0,0,1,.17-.23.77.77,0,0,1,.56-.22.9.9,0,0,1,.62.27,1.21,1.21,0,0,1,.18.28,1.67,1.67,0,0,1,.18-.28.9.9,0,0,1,.65-.27.93.93,0,0,1,.9,1v1.43h-.23V37.18a.71.71,0,0,0-.67-.8.78.78,0,0,0-.73.88v1.35h-.22V37.18a.72.72,0,0,0-.68-.8.78.78,0,0,0-.73.88v1.35h-.22Z"/><path class="cls-1" d="M246.23,36.43h-.4v-.22h.4v-.5c0-.43.22-.66.6-.66a1.2,1.2,0,0,1,.23,0l.1,0v.23l-.1,0a.73.73,0,0,0-.23,0c-.22,0-.37.15-.37.43v.5h.6v.22h-.6v2.18h-.23Z"/><path class="cls-1" d="M247.46,37.41a1.2,1.2,0,1,1,1.2,1.25A1.22,1.22,0,0,1,247.46,37.41Zm2.18,0a1,1,0,1,0-1,1A1,1,0,0,0,249.64,37.41Z"/><path class="cls-1" d="M250.54,36.21h.22v.42a1.07,1.07,0,0,1,.2-.23,1,1,0,0,1,.65-.24h.1v.22h-.1a.85.85,0,0,0-.85.88v1.35h-.22Z"/><path class="cls-1" d="M253.79,35.36h-1.16v-.25h2.56v.25H254v3.25h-.25Z"/><path class="cls-1" d="M257.54,37.88a2.17,2.17,0,0,0,.12-.26,2.14,2.14,0,0,0,.13-.71H258a2.22,2.22,0,0,1-.16.83,2.39,2.39,0,0,1-.16.32,1.15,1.15,0,0,0,.14.17.42.42,0,0,0,.31.18h.1l.05,0v.23h-.15a.62.62,0,0,1-.43-.2,1.12,1.12,0,0,1-.17-.2,1.09,1.09,0,0,1-.26.22,1.34,1.34,0,0,1-.72.21.86.86,0,0,1-.93-.85,1.11,1.11,0,0,1,.35-.75,3.07,3.07,0,0,1,.35-.28,2.61,2.61,0,0,1-.27-.31,1.21,1.21,0,0,1-.28-.66.75.75,0,0,1,.78-.76.7.7,0,0,1,.75.73,1.09,1.09,0,0,1-.34.71,1.58,1.58,0,0,1-.34.29Zm-1.08-1a1.56,1.56,0,0,0-.3.26.92.92,0,0,0-.3.62c0,.38.24.62.7.62a1.11,1.11,0,0,0,.62-.18.91.91,0,0,0,.2-.19Zm.33-.56a.94.94,0,0,0,.3-.59.49.49,0,0,0-.53-.5.52.52,0,0,0-.55.53,1,1,0,0,0,.25.55,2.05,2.05,0,0,0,.25.27A1.39,1.39,0,0,0,256.79,36.37Z"/><path class="cls-1" d="M261.86,37.91a1.62,1.62,0,0,1-.37.37,1.66,1.66,0,0,1-1.08.38,1.81,1.81,0,0,1,0-3.61,1.75,1.75,0,0,1,1.07.38,1.85,1.85,0,0,1,.36.38l-.18.15a1.6,1.6,0,0,0-.31-.33,1.5,1.5,0,0,0-.94-.32,1.55,1.55,0,1,0,1,2.77,1.62,1.62,0,0,0,.32-.32Z"/><path class="cls-1" d="M262.46,38.08a.77.77,0,0,0,.18.18.78.78,0,0,0,.49.17c.41,0,.63-.22.63-.5,0-.6-1.38-.32-1.38-1.12a.72.72,0,0,1,.78-.65,1.05,1.05,0,0,1,.55.17.88.88,0,0,1,.2.18l-.18.17a1,1,0,0,0-.14-.15.76.76,0,0,0-.43-.15c-.36,0-.55.21-.55.43,0,.58,1.37.29,1.37,1.12a.77.77,0,0,1-.85.73,1.1,1.1,0,0,1-.63-.2,1.42,1.42,0,0,1-.22-.2Z"/><path class="cls-1" d="M264.73,38.28a.18.18,0,0,1,.18.18.17.17,0,0,1-.18.17.16.16,0,0,1-.17-.17A.17.17,0,0,1,264.73,38.28Z"/><path class="cls-1" d="M95.33,41.11h.2l2.33,3v-3h.25v3.5h-.2l-2.33-3v3h-.25Z"/><path class="cls-1" d="M99.06,44a1,1,0,0,0,.23.22,1.2,1.2,0,0,0,.74.23c.61,0,.9-.3.9-.73,0-1-2-.5-2-1.7a1,1,0,0,1,1.1-.93,1.48,1.48,0,0,1,.75.22,1,1,0,0,1,.25.21l-.17.18a1.24,1.24,0,0,0-.21-.18,1.21,1.21,0,0,0-.62-.17c-.55,0-.85.3-.85.67,0,1,2,.5,2,1.7a1,1,0,0,1-1.15,1,1.44,1.44,0,0,1-1.15-.53Z"/><path class="cls-1" d="M101.48,41.11h.28l1,3.1,1-3.1H104l1,3.1,1-3.1h.28l-1.13,3.5h-.25l-1-3.1-1,3.1h-.25Z"/><path class="cls-1" d="M107.76,41.11H109a1.08,1.08,0,1,1,0,2.15h-1v1.35h-.25ZM109,43a.83.83,0,1,0,0-1.65h-1V43Z"/><path class="cls-1" d="M112.63,44.16a1.12,1.12,0,0,1-.24.25,1.15,1.15,0,0,1-.71.25,1.22,1.22,0,0,1-1.17-1.25,1.19,1.19,0,0,1,1.15-1.25,1.15,1.15,0,0,1,1.1,1.25v.1h-2a1,1,0,0,0,1,.92.93.93,0,0,0,.59-.21,1,1,0,0,0,.19-.21Zm-.1-.88a.88.88,0,0,0-.87-.9,1,1,0,0,0-.93.9Z"/><path class="cls-1" d="M113.43,42.21h.23v.42a.85.85,0,0,1,.2-.23,1,1,0,0,1,.65-.24h.1v.22h-.1a.85.85,0,0,0-.85.88v1.35h-.23Z"/><path class="cls-1" d="M115.11,42.21h.22v.4a1,1,0,0,1,.17-.23.77.77,0,0,1,.56-.22.85.85,0,0,1,.61.27,1.26,1.26,0,0,1,.19.28,1,1,0,0,1,.18-.28.85.85,0,0,1,.64-.27.93.93,0,0,1,.9,1v1.43h-.22V43.18a.71.71,0,0,0-.68-.8c-.4,0-.72.33-.72.88v1.35h-.23V43.18a.71.71,0,0,0-.67-.8.78.78,0,0,0-.73.88v1.35h-.22Z"/><path class="cls-1" d="M119.56,41.18a.17.17,0,0,1,.17.18.16.16,0,0,1-.17.17.17.17,0,0,1-.18-.17A.17.17,0,0,1,119.56,41.18Zm-.13,1h.23v2.4h-.23Z"/><path class="cls-1" d="M120.73,42.43h-.47v-.22h.32a.18.18,0,0,0,.18-.2v-.6h.2v.8h.55v.22H121V44c0,.28.15.42.37.42a.75.75,0,0,0,.23,0l.1,0v.22l-.1,0a.73.73,0,0,1-.23,0,.57.57,0,0,1-.6-.65Z"/><path class="cls-1" d="M123.41,41.11h.2l2.32,3v-3h.25v3.5H126l-2.32-3v3h-.25Z"/><path class="cls-1" d="M127,43.41a1.2,1.2,0,1,1,1.2,1.25A1.23,1.23,0,0,1,127,43.41Zm2.18,0a1,1,0,1,0-1,1A1,1,0,0,0,129.16,43.41Z"/><path class="cls-1" d="M130.13,44.28a.18.18,0,0,1,.18.18.17.17,0,0,1-.18.17.16.16,0,0,1-.17-.17A.17.17,0,0,1,130.13,44.28Z"/><path class="cls-1" d="M132.73,41.36h-1.15v-.25h2.55v.25H133v3.25h-.25Z"/><path class="cls-1" d="M134.78,41.11H136a1.08,1.08,0,1,1,0,2.15h-1v1.35h-.25ZM136,43a.83.83,0,1,0,0-1.65h-1V43Z"/><path class="cls-1" d="M139,41.05h.25l-1.53,4.61h-.25Z"/><path class="cls-1" d="M139.53,42.86c0-1.13.67-1.81,1.35-1.81s1.36.68,1.36,1.81-.68,1.8-1.36,1.8S139.53,44,139.53,42.86Zm2.45,0c0-1-.55-1.55-1.1-1.55s-1.1.55-1.1,1.55.56,1.55,1.1,1.55S142,43.86,142,42.86Z"/><path class="cls-1" d="M143.43,41.56a.56.56,0,0,1-.16.14,1,1,0,0,1-.51.13v-.2a.72.72,0,0,0,.54-.26,1.2,1.2,0,0,0,.18-.26h.2v3.5h-.25Z"/><path class="cls-1" d="M146.23,41.36h-1.9v-.25h2.18v.25l-1.6,3.25h-.28Z"/><path class="cls-1" d="M148,41.11h.28l-.88,1.4.12,0a1,1,0,0,1,.33-.05,1.13,1.13,0,1,1-1.15,1.12,1.15,1.15,0,0,1,.13-.53,1.55,1.55,0,0,1,.12-.22Zm-.15,3.3a.88.88,0,1,0-.9-.88A.87.87,0,0,0,147.83,44.41Z"/><path class="cls-1" d="M151.11,41.36h-1.9v-.25h2.17v.25l-1.6,3.25h-.27Z"/><path class="cls-1" d="M151.58,44.28a.18.18,0,0,1,.18.18.17.17,0,0,1-.18.17.16.16,0,0,1-.17-.17A.17.17,0,0,1,151.58,44.28Z"/><path class="cls-1" d="M155.48,41.11h.25l1.45,3.5h-.27l-.43-1h-1.75l-.42,1H154Zm.9,2.22-.77-1.87-.78,1.87Z"/><path class="cls-1" d="M160.71,43.91a2.16,2.16,0,0,1-.37.37,1.68,1.68,0,0,1-1.08.38,1.81,1.81,0,0,1,0-3.61,1.75,1.75,0,0,1,1.07.38,2.11,2.11,0,0,1,.35.38l-.17.15a1.93,1.93,0,0,0-.31-.33,1.54,1.54,0,1,0-.94,2.78,1.5,1.5,0,0,0,1-.33,1.67,1.67,0,0,0,.33-.32Z"/><path class="cls-1" d="M162.18,41.36H161v-.25h2.55v.25h-1.15v3.25h-.25Z"/><path class="cls-1" d="M165.08,41.11h1.25a1.08,1.08,0,1,1,0,2.15h-1v1.35h-.25Zm1.25,1.9a.83.83,0,1,0,0-1.65h-1V43Z"/><path class="cls-1" d="M170,44.16a1.88,1.88,0,0,1-.24.25,1.18,1.18,0,0,1-.71.25,1.22,1.22,0,0,1-1.18-1.25A1.19,1.19,0,0,1,169,42.16a1.15,1.15,0,0,1,1.1,1.25v.1h-2a1,1,0,0,0,.95.92.88.88,0,0,0,.58-.21.76.76,0,0,0,.19-.21Zm-.1-.88a.9.9,0,0,0-.88-.9,1,1,0,0,0-.92.9Z"/><path class="cls-1" d="M170.76,42.21H171v.42a1.07,1.07,0,0,1,.2-.23,1,1,0,0,1,.65-.24h.1v.22h-.1a.85.85,0,0,0-.85.88v1.35h-.22Z"/><path class="cls-1" d="M172.43,42.21h.23v.4a.94.94,0,0,1,.16-.23.81.81,0,0,1,.56-.22.88.88,0,0,1,.62.27,1.21,1.21,0,0,1,.18.28,1.67,1.67,0,0,1,.18-.28.9.9,0,0,1,.65-.27.93.93,0,0,1,.9,1v1.43h-.22V43.18a.72.72,0,0,0-.68-.8.78.78,0,0,0-.73.88v1.35h-.22V43.18a.71.71,0,0,0-.68-.8c-.4,0-.72.33-.72.88v1.35h-.23Z"/><path class="cls-1" d="M176.88,41.18a.17.17,0,0,1,.18.18.17.17,0,0,1-.18.17.16.16,0,0,1-.17-.17A.17.17,0,0,1,176.88,41.18Zm-.12,1H177v2.4h-.22Z"/><path class="cls-1" d="M178.06,42.43h-.48v-.22h.33a.18.18,0,0,0,.17-.2v-.6h.2v.8h.55v.22h-.55V44c0,.28.15.42.38.42a.8.8,0,0,0,.23,0l.09,0v.22a.25.25,0,0,1-.09,0,.79.79,0,0,1-.23,0,.57.57,0,0,1-.6-.65Z"/><path class="cls-1" d="M180.73,41.11h.2l2.33,3v-3h.25v3.5h-.2l-2.33-3v3h-.25Z"/><path class="cls-1" d="M184.31,43.41a1.2,1.2,0,1,1,1.2,1.25A1.22,1.22,0,0,1,184.31,43.41Zm2.17,0a1,1,0,1,0-1,1A1,1,0,0,0,186.48,43.41Z"/><path class="cls-1" d="M187.46,44.28a.17.17,0,0,1,.17.18.16.16,0,0,1-.17.17.17.17,0,0,1-.18-.17A.18.18,0,0,1,187.46,44.28Z"/><path class="cls-1" d="M190.06,41.36h-1.15v-.25h2.55v.25h-1.15v3.25h-.25Z"/><path class="cls-1" d="M192.11,41.11h1.25a1.08,1.08,0,1,1,0,2.15h-1v1.35h-.25Zm1.25,1.9a.83.83,0,1,0,0-1.65h-1V43Z"/><path class="cls-1" d="M198.06,44.36v.25h-2.2c0-1.38,1.95-1.5,1.95-2.55a.77.77,0,0,0-.85-.75.82.82,0,0,0-.68.31.89.89,0,0,0-.15.31l-.22-.1a1,1,0,0,1,.19-.38,1.11,1.11,0,0,1,2,.61c0,1.12-1.71,1.29-1.93,2.3Z"/><path class="cls-1" d="M200.81,44.36v.25h-2.2c0-1.38,1.95-1.5,1.95-2.55a.77.77,0,0,0-.85-.75.82.82,0,0,0-.68.31.89.89,0,0,0-.15.31l-.22-.1a1,1,0,0,1,.19-.38,1.11,1.11,0,0,1,2,.61c0,1.12-1.71,1.29-1.93,2.3Z"/><path class="cls-1" d="M202.63,41.05h.25l-1.52,4.61h-.25Z"/><path class="cls-1" d="M203.21,42.86c0-1.13.67-1.81,1.35-1.81s1.35.68,1.35,1.81-.67,1.8-1.35,1.8S203.21,44,203.21,42.86Zm2.45,0c0-1-.56-1.55-1.1-1.55s-1.1.55-1.1,1.55.55,1.55,1.1,1.55S205.66,43.86,205.66,42.86Z"/><path class="cls-1" d="M206.56,42.86c0-1.13.67-1.81,1.35-1.81s1.35.68,1.35,1.81-.67,1.8-1.35,1.8S206.56,44,206.56,42.86Zm2.45,0c0-1-.56-1.55-1.1-1.55s-1.1.55-1.1,1.55.55,1.55,1.1,1.55S209,43.86,209,42.86Z"/><path class="cls-1" d="M210.08,44a1.2,1.2,0,0,0,.23.22,1.05,1.05,0,0,0,.67.23.88.88,0,0,0,.93-.88.85.85,0,0,0-.88-.87,1,1,0,0,0-.61.21.76.76,0,0,0-.19.21H210l.13-2h1.77v.25h-1.55l-.07,1.32a.91.91,0,0,1,.19-.13,1,1,0,0,1,.53-.14,1.12,1.12,0,0,1,1.13,1.12A1.13,1.13,0,0,1,211,44.66a1.37,1.37,0,0,1-.81-.26,1.33,1.33,0,0,1-.26-.27Z"/><path class="cls-1" d="M212.93,44a1.2,1.2,0,0,0,.23.22,1.05,1.05,0,0,0,.67.23.88.88,0,0,0,.93-.88.85.85,0,0,0-.88-.87,1,1,0,0,0-.61.21.76.76,0,0,0-.19.21h-.2l.13-2h1.77v.25h-1.55l-.07,1.32a.91.91,0,0,1,.19-.13,1,1,0,0,1,.53-.14A1.12,1.12,0,0,1,215,43.53a1.13,1.13,0,0,1-1.18,1.13,1.37,1.37,0,0,1-.81-.26,1.33,1.33,0,0,1-.26-.27Z"/><path class="cls-1" d="M216.86,41.11h.27l-.87,1.4a.33.33,0,0,1,.12,0,1,1,0,0,1,.33-.05,1.13,1.13,0,1,1-1.15,1.12,1.3,1.3,0,0,1,.12-.53,1.59,1.59,0,0,1,.13-.22Zm-.15,3.3a.88.88,0,1,0-.9-.88A.87.87,0,0,0,216.71,44.41Z"/><path class="cls-1" d="M218.63,44.28a.18.18,0,0,1,.18.18.17.17,0,0,1-.18.17.16.16,0,0,1-.17-.17A.17.17,0,0,1,218.63,44.28Z"/><path class="cls-1" d="M220.53,44a1,1,0,0,0,.24.22,1.2,1.2,0,0,0,.74.23c.6,0,.9-.3.9-.73,0-1-1.95-.5-1.95-1.7a1,1,0,0,1,1.1-.93,1.44,1.44,0,0,1,.74.22,1.09,1.09,0,0,1,.26.21l-.18.18a.88.88,0,0,0-.2-.18,1.21,1.21,0,0,0-.62-.17c-.55,0-.85.3-.85.67,0,1,1.95.5,1.95,1.7a1,1,0,0,1-1.15,1,1.52,1.52,0,0,1-.87-.26,1.44,1.44,0,0,1-.28-.27Z"/><path class="cls-1" d="M224.48,41.11h.25l1.45,3.5h-.27l-.43-1h-1.75l-.43,1H223Zm.9,2.22-.77-1.87-.78,1.87Z"/><path class="cls-1" d="M227.68,41.11h.25v3.25h1.88v.25h-2.13Z"/><path class="cls-1" d="M230.48,41.18a.17.17,0,0,1,.18.18.18.18,0,0,1-.36,0A.17.17,0,0,1,230.48,41.18Zm-.12,1h.22v2.4h-.22Z"/><path class="cls-1" d="M233.41,44.16a1.88,1.88,0,0,1-.24.25,1.18,1.18,0,0,1-.71.25,1.25,1.25,0,0,1,0-2.5,1.12,1.12,0,0,1,.71.25,1.14,1.14,0,0,1,.24.25l-.18.15a.76.76,0,0,0-.19-.21.88.88,0,0,0-.58-.22,1,1,0,0,0,0,2,.88.88,0,0,0,.58-.21.76.76,0,0,0,.19-.21Z"/><path class="cls-1" d="M235.93,44.16a1.12,1.12,0,0,1-.24.25,1.15,1.15,0,0,1-.71.25,1.23,1.23,0,0,1-1.18-1.25A1.2,1.2,0,0,1,235,42.16a1.15,1.15,0,0,1,1.1,1.25v.1h-2a1,1,0,0,0,.95.92.93.93,0,0,0,.59-.21,1,1,0,0,0,.19-.21Zm-.1-.88a.88.88,0,0,0-.87-.9,1,1,0,0,0-.93.9Z"/><path class="cls-1" d="M236.73,42.21H237v.42a1,1,0,0,1,.19-.23.94.94,0,0,1,.63-.24,1,1,0,0,1,1,1v1.43h-.23V43.18a.74.74,0,0,0-.75-.8.84.84,0,0,0-.82.88v1.35h-.23Z"/><path class="cls-1" d="M241.53,44.16a1.12,1.12,0,0,1-.24.25,1.15,1.15,0,0,1-.71.25,1.25,1.25,0,0,1,0-2.5,1.1,1.1,0,0,1,.71.25.82.82,0,0,1,.24.25l-.17.15a1,1,0,0,0-.19-.21.93.93,0,0,0-.59-.22,1,1,0,0,0,0,2,.93.93,0,0,0,.59-.21,1,1,0,0,0,.19-.21Z"/><path class="cls-1" d="M244.06,44.16a1.88,1.88,0,0,1-.24.25,1.18,1.18,0,0,1-.71.25,1.22,1.22,0,0,1-1.18-1.25,1.19,1.19,0,0,1,1.15-1.25,1.15,1.15,0,0,1,1.1,1.25v.1h-2a1,1,0,0,0,1,.92.88.88,0,0,0,.58-.21.76.76,0,0,0,.19-.21Zm-.1-.88a.9.9,0,0,0-.88-.9,1,1,0,0,0-.92.9Z"/><path class="cls-1" d="M246,41.11h.2l2.33,3v-3h.25v3.5h-.2l-2.33-3v3H246Z"/><path class="cls-1" d="M249.55,43.41a1.21,1.21,0,1,1,1.21,1.25A1.23,1.23,0,0,1,249.55,43.41Zm2.18,0a1,1,0,1,0-1,1A1,1,0,0,0,251.73,43.41Z"/><path class="cls-1" d="M252.71,44.28a.17.17,0,0,1,.17.18.16.16,0,0,1-.17.17.17.17,0,0,1-.18-.17A.18.18,0,0,1,252.71,44.28Z"/><path class="cls-1" d="M255.31,41.36h-1.16v-.25h2.56v.25h-1.15v3.25h-.25Z"/><path class="cls-1" d="M259.26,44.36v.25h-2.21c0-1.38,2-1.5,2-2.55a.77.77,0,0,0-.85-.75.82.82,0,0,0-.68.31.89.89,0,0,0-.15.31l-.22-.1a.91.91,0,0,1,.19-.38,1.11,1.11,0,0,1,2,.61c0,1.12-1.71,1.29-1.93,2.3Z"/><path class="cls-1" d="M262,44.36v.25H259.8c0-1.38,2-1.5,2-2.55a.77.77,0,0,0-.85-.75.82.82,0,0,0-.68.31.89.89,0,0,0-.15.31l-.22-.1a.91.91,0,0,1,.19-.38,1.11,1.11,0,0,1,2,.61c0,1.12-1.71,1.29-1.93,2.3Z"/><path class="cls-1" d="M263.83,41.05h.25l-1.53,4.61h-.25Z"/><path class="cls-1" d="M264.18,43.51l1.75-2.4h.3v2.45h.45v.25h-.45v.8H266v-.8h-1.8Zm1.8.05V41.43l-1.55,2.13Z"/><path class="cls-1" d="M267.11,44a1,1,0,0,0,.23.22,1.07,1.07,0,0,0,.69.23.76.76,0,1,0,0-1.5h-.32v-.25H268a.68.68,0,1,0,0-1.35,1.05,1.05,0,0,0-.61.2,1,1,0,0,0-.21.2l-.18-.2a1.16,1.16,0,0,1,.26-.23,1.35,1.35,0,0,1,.74-.23,1,1,0,0,1,1,.93.75.75,0,0,1-.29.62,1,1,0,0,1-.29.16,1.08,1.08,0,0,1,.35.19.85.85,0,0,1,.35.71,1.08,1.08,0,0,1-1.15,1,1.38,1.38,0,0,1-.83-.26,1.72,1.72,0,0,1-.27-.27Z"/><path class="cls-1" d="M270.36,41.56a1.07,1.07,0,0,1-.16.14,1,1,0,0,1-.52.13v-.2a.7.7,0,0,0,.54-.26,1.74,1.74,0,0,0,.19-.26h.2v3.5h-.25Z"/><path class="cls-1" d="M271.66,44.28a.17.17,0,0,1,.17.18.16.16,0,0,1-.17.17.17.17,0,0,1-.18-.17A.18.18,0,0,1,271.66,44.28Z"/></g></svg>