<?xml version="1.0" encoding="UTF-8"?><svg xmlns="http://www.w3.org/2000/svg" viewBox="0 0 320 50"><defs><style>.e{fill:#fff;}.f{fill:#da290b;}</style></defs><g id="a"/><g id="b"/><g id="c"/><g id="d"><g><polygon class="f" points="72.66 61.74 -7.64 61.74 -7.64 -11.33 91.35 -11.33 72.66 61.74"/><g><path class="e" d="M11.34,32.87c2.04,0,3.58,1.54,3.58,3.48s-1.54,3.48-3.58,3.48h-2.41c-.1,0-.17-.08-.17-.17v-6.59c0-.1,.08-.17,.17-.17l2.41-.02Zm-1.09,1.34v4.27h1.09c1.16-.02,2.1-.97,2.08-2.14,.03-1.15-.88-2.1-2.02-2.14h-1.15Z"/><path class="e" d="M20.17,32.72c2.14,0,3.77,1.64,3.77,3.63s-1.64,3.63-3.77,3.63-3.78-1.64-3.78-3.63,1.64-3.62,3.78-3.62m0,5.9c1.26,0,2.29-1.02,2.29-2.29s-1.02-2.29-2.29-2.29-2.29,1.02-2.29,2.29c0,1.26,1.02,2.28,2.29,2.29"/><path class="e" d="M29.15,32.72c2.14,0,3.78,1.64,3.78,3.63s-1.64,3.63-3.78,3.63-3.77-1.64-3.77-3.63,1.64-3.62,3.77-3.62m0,5.9c1.26,0,2.29-1.02,2.29-2.28,0-1.26-1.02-2.29-2.28-2.29-1.26,0-2.29,1.02-2.29,2.28h0c0,1.26,1.02,2.28,2.28,2.29"/><path class="e" d="M34.9,33.05c0-.1,.08-.17,.17-.17h2.9c1.39,0,2.38,1.01,2.38,2.29,0,.86-.47,1.65-1.24,2.04l1.34,2.37c.05,.08,.03,.19-.05,.24-.03,.02-.07,.03-.11,.03h-1.17c-.07,0-.13-.03-.16-.09l-1.29-2.34h-1.29v2.25c0,.1-.08,.17-.17,.17h-1.13c-.1,0-.17-.08-.17-.17v-6.6Zm3.02,1.16h-1.54v1.84h1.54c.5,.02,.92-.36,.94-.86v-.03c.02-.5-.38-.93-.88-.94-.02,0-.04,0-.06,0"/><path class="e" d="M45.34,32.9c2.04,0,3.58,1.54,3.58,3.48s-1.54,3.48-3.58,3.48h-2.41c-.1,0-.17-.08-.17-.17v-6.61c0-.1,.08-.17,.17-.17h2.41Zm-1.1,1.34v4.27h1.1c1.16-.02,2.1-.97,2.08-2.14,.03-1.15-.88-2.1-2.02-2.14h-1.15Z"/><path class="e" d="M52.12,38.18l-.55,1.52c-.02,.07-.1,.12-.17,.12h-1.19c-.1,0-.18-.06-.19-.16,0-.03,0-.06,.02-.09l2.59-6.59c.03-.07,.1-.12,.17-.11h1.34c.08,0,.15,.04,.17,.11l2.59,6.59c.04,.09,0,.19-.08,.23-.03,.01-.06,.02-.09,.02h-1.2c-.08,0-.15-.05-.17-.12l-.55-1.52h-2.68Zm1.34-3.58l-.84,2.29h1.69l-.84-2.29Z"/><path class="e" d="M58.29,34.75c0-1.09,.94-2.04,2.44-2.04,.8-.02,1.57,.27,2.16,.81,.07,.07,.07,.18,0,.25l-.67,.67c-.07,.07-.18,.07-.25,0h0c-.32-.29-.73-.45-1.15-.46-.6,0-1.04,.35-1.04,.75,0,1.29,3.53,.55,3.53,3.03,0,1.24-.95,2.18-2.63,2.18-.94,.01-1.84-.35-2.51-1.01-.07-.07-.07-.18,0-.25l.64-.64c.07-.07,.18-.07,.25,0h0c.41,.4,.95,.62,1.52,.62,.75,0,1.24-.4,1.24-.89,0-1.29-3.52-.55-3.52-3.03"/><path class="e" d="M69.7,33.04v2.6h-2.98v-2.6c0-.1-.08-.17-.17-.17h-1.14c-.1,0-.17,.08-.17,.17v6.59c0,.1,.08,.17,.17,.17h1.13c.1,0,.17-.08,.17-.17v-2.65h2.98v2.65c0,.1,.08,.17,.17,.17h1.14c.1,0,.17-.08,.17-.17v-6.59c0-.1-.08-.17-.17-.17h-1.13c-.1,0-.18,.07-.18,.17h0"/><path class="e" d="M51.39,13.45c-1.25-2.34-3.68-3.8-6.33-3.79H25c-.38,0-.69,.32-.68,.7,0,.18,.07,.35,.2,.48l4.37,4.4c.39,.39,.91,.61,1.46,.61h14.14c1-.07,1.88,.68,1.95,1.69,.07,1-.68,1.88-1.69,1.95-.07,0-.15,0-.22,0h-9.76c-.38,0-.69,.32-.69,.7,0,.18,.07,.35,.2,.48l4.37,4.4c.39,.39,.91,.61,1.46,.61h4.41c5.74,0,10.08-6.13,6.87-12.22"/></g></g></g></svg>