<svg id="Layer_1" data-name="Layer 1" xmlns="http://www.w3.org/2000/svg" viewBox="0 0 300 600"><defs><style>.cls-1{fill:#fff;}</style></defs><g id="logo"><path class="cls-1" d="M73.26,115.53c0,12.25-7,18.76-17.84,18.76h-4.9a1.53,1.53,0,0,1-1.69-1.68V96.92h6.59c10.72,0,17.84,6.51,17.84,18.61m10.41,0c0-17.15-11-27.1-27.72-27.1H33.82v8.49h5v40.66c0,3.68,1.53,5.21,5.21,5.21H56c16.77,0,27.72-10.11,27.72-27.26m35.44,7.73c0,7.28-5.29,12.18-11.64,12.18s-11.56-4.9-11.56-12.18,5.28-12.17,11.56-12.17,11.64,5,11.64,12.17m9.8,0c0-11.94-9.5-20.44-21.44-20.44s-21.36,8.5-21.36,20.44,9.49,20.45,21.36,20.45,21.44-8.42,21.44-20.45m12.71-.07c0-7,4.82-12.18,11.56-12.18,2.37,0,5.59.92,5.59,3.07v2.14h8.57v-4.59c0-6.74-9.11-8.81-14.16-8.81-13.4,0-21.36,9.42-21.36,20.44,0,11.34,8.27,20.45,21.13,20.45a22.32,22.32,0,0,0,16.46-7.05l-4.06-6.73s-4.9,5.28-11.56,5.28c-6.28,0-12.17-4.06-12.17-12m49.77,20a18,18,0,0,0,3-.23v-8.5a8.58,8.58,0,0,1-1.76.16c-2.68,0-7.73-.92-7.73-7.35V111.47h8.88v-7.73h-8.88V93.1h-9.5v10.64h-5.28v7.73h5v17c0,13.09,10.8,14.7,16.23,14.7m37.37-19.91c0,7.28-5.28,12.18-11.64,12.18s-11.56-4.9-11.56-12.18,5.28-12.17,11.56-12.17,11.64,5,11.64,12.17m9.8,0c0-11.94-9.49-20.44-21.44-20.44s-21.36,8.5-21.36,20.44,9.49,20.45,21.36,20.45,21.44-8.42,21.44-20.45"/><path class="cls-1" d="M61,38.31h9V30c0-3.59-1.53-5.2-5.21-5.2H29.94c-5.38,0-9-1.72-9.94-3.85.41,3.95,3.45,12.36,15.21,12.36H38.8V79.2h10v-22H66.21v-8.5H48.83V33.34H59.32A1.53,1.53,0,0,1,61,35ZM92.78,71h-3a1.53,1.53,0,0,1-1.69-1.69V30c0-3.59-1.61-5.2-5.21-5.2H73.64v8.27H76.7a1.5,1.5,0,0,1,1.69,1.68V74c0,3.68,1.53,5.21,5.2,5.21h9.19Zm38.57-22.59h1.15V40.15h-6.59c-2.68,0-4.29,1-5.21,3.68L114,63.35a46.85,46.85,0,0,0-1.3,5.21h-.15a37.7,37.7,0,0,0-1.38-5.21l-7.66-19.52c-1-2.68-2.37-3.68-5.13-3.68H92v8.27h1.15a1.83,1.83,0,0,1,2.07,1.38l13,29.32-1.3,3c-1.38,3.37-3.75,5-6.43,5a8.4,8.4,0,0,1-5.59-2.68L91.15,91.3a14.45,14.45,0,0,0,9.88,4c5.82,0,11.33-3.14,14.09-10.18l14-35.3a2,2,0,0,1,2.22-1.38m10-14.62h8.42v-9H141.3ZM146,79.2h9.27V71h-3.07a1.53,1.53,0,0,1-1.68-1.69v-24c0-3.6-1.53-5.21-5.13-5.21h-9.27v8.27h3.07a1.5,1.5,0,0,1,1.68,1.69V74c0,3.68,1.53,5.21,5.13,5.21m47.21,0h9.27V71h-3.06a1.53,1.53,0,0,1-1.69-1.69V54.09c0-10.34-5-14.86-13.63-14.86a15,15,0,0,0-13.78,8.12h-.15a11,11,0,0,0,.15-1.69V44.52c0-2.76-1.68-4.37-5.13-4.37h-9v8.27h3.06A1.5,1.5,0,0,1,161,50.11V79.2h9.65V61.28a16.65,16.65,0,0,1,.76-5.2,10.72,10.72,0,0,1,10.49-8c4.9,0,6.13,3.22,6.13,8V74c0,3.68,1.53,5.21,5.2,5.21m39.5-20.44c0,8.8-4.44,11.48-9.11,11.48-6.28,0-9.73-5-9.73-11.87,0-6.58,3.22-10.87,9.11-10.87,5.29,0,9.73,2.38,9.73,11.26m14.09-10.34V40.15h-9c-3.06,0-4.29,1.84-4.29,3.6v1h-.15s-3-5.52-12-5.52C210,39.23,204,48,204,58.68s6.36,19.76,17.54,19.76c5.21,0,8.57-1.77,10.87-5.06h.15s-.07,1.15-.07,2.07v1.84c0,7-5.13,9.57-11,9.57a25.13,25.13,0,0,1-10.79-2.61l-3,7.66a31.13,31.13,0,0,0,13.86,3.37c10.18,0,20.6-5,20.6-18.45V50a1.49,1.49,0,0,1,1.68-1.53Z"/><path class="cls-1" d="M164.76,179.12c0,12.25-7,18.76-17.84,18.76H142a1.53,1.53,0,0,1-1.69-1.69V160.51h6.59c10.72,0,17.84,6.51,17.84,18.61m10.41,0c0-17.15-10.95-27.11-27.72-27.11H125.32v8.5h5v40.66c0,3.68,1.53,5.21,5.21,5.21h11.94c16.77,0,27.72-10.11,27.72-27.26m26.61,10.34c0,4.74-3.68,10.26-8.88,10.26-4,0-5.9-2.45-5.9-5.06,0-5.43,8-6.12,13.09-6.12h1.69Zm14.32,8.72H213a1.53,1.53,0,0,1-1.68-1.68V182c0-8.73-3.83-15.54-16.85-15.54-4.05,0-14.31.76-14.31,8v4.13h9v-2.07c0-2.14,3.45-2.6,5.21-2.6,5,0,7.19,2.07,7.19,7.66v.3H200.4c-6.36,0-23.2,1-23.2,13.25,0,7.81,6.35,12.18,13.32,12.18a12.7,12.7,0,0,0,11.79-6.9h.16a16.24,16.24,0,0,0-.08,1.69c0,2.3,1.38,4.29,5,4.29h8.73ZM272,163.54c-.9,2.08-4.47,3.77-9.74,3.77l-14.19,0c-2.68,0-4.29,1-5.21,3.67l-6.66,19.53a46.9,46.9,0,0,0-1.3,5.2h-.15a37.71,37.71,0,0,0-1.38-5.2L225.71,171c-1-2.68-2.37-3.67-5.13-3.67h-6.43v8.27h1.15a1.84,1.84,0,0,1,2.07,1.37l13,29.33-1.3,3c-1.38,3.37-3.75,5-6.43,5a8.4,8.4,0,0,1-5.59-2.68l-3.75,6.89a14.44,14.44,0,0,0,9.88,4c5.82,0,11.33-3.14,14.08-10.19l14-35.3a2,2,0,0,1,2.22-1.37l3.63,0c11.52,0,14.46-8.15,14.86-12"/><path class="cls-1" d="M244.92,142.81h9.65V127.35a23.93,23.93,0,0,1,.84-6.36,11,11,0,0,1,10.65-8.19,17.51,17.51,0,0,1,2.37.15v-9.57a12.76,12.76,0,0,0-1.76-.15c-6,0-10.64,4.44-12.4,10h-.16a17.14,17.14,0,0,0,.16-2.45v-2.3c0-3.29-1.77-4.75-5.21-4.75h-8.88V112h3.06a1.5,1.5,0,0,1,1.68,1.69Z"/><path class="cls-1" d="M112.42,188.77v17.68h2.32v-19.9h-4.93v2.22Zm-10.71-.29c2.52.09,4,1.59,4,3.38a4.64,4.64,0,0,1-1.56,3.18l-9,9.7.68,1.71H108v-2.13H98.73l7-7.64a7.29,7.29,0,0,0,2.16-4.85c-.06-2.92-2.36-5.5-6.1-5.65a6.43,6.43,0,0,0-6.45,4.15l1.93.91a4.42,4.42,0,0,1,4.46-2.76m-22.26,3.64v8.71a5.53,5.53,0,0,0,1.64,4.11,7.35,7.35,0,0,0,5.14,1.85,7.42,7.42,0,0,0,5.08-1.85A5.43,5.43,0,0,0,93,200.83v-8.71c0-4-3.46-6-6.89-5.94s-6.64,2-6.64,5.94m2.33,8.71v-8.71c0-2.42,2.12-3.78,4.34-3.81s4.54,1.34,4.54,3.81v8.71c0,2.44-2.22,3.83-4.43,3.83s-4.45-1.39-4.45-3.83M70.53,188.48c2.52.09,4,1.59,4,3.38A4.64,4.64,0,0,1,72.94,195l-9,9.7.68,1.71H76.83v-2.13H67.55l7-7.64a7.27,7.27,0,0,0,2.15-4.85c-.05-2.92-2.35-5.5-6.1-5.65a6.43,6.43,0,0,0-6.44,4.15l1.93.91a4.41,4.41,0,0,1,4.46-2.76"/><path class="cls-1" d="M105.8,181.5c2.08.2,4-.28,4.86-2.55l6.67-17.23h-2.39l-4.43,11.92-4.65-11.92h-2.38l5.87,14.45-.79,2.07c-.37.94-1,1.62-2.76,1.42Zm-3.14-5.39v-8.85c0-6.5-7.55-7.33-11.52-4l1.13,1.31c2.84-2,8.26-2.19,8.26,2.7v.28a7.87,7.87,0,0,0-3.66-1c-8.83-.12-9,9.84-.26,9.76a6,6,0,0,0,4-1.48l.31,1.28Zm-2.13-6.78v3.46a5.23,5.23,0,0,1-3.92,1.56c-6,0-5.78-5.93.29-6a6.82,6.82,0,0,1,3.63.94m-21.65,4.08,5.85-13v15.66h2.35v-20h-3l-6.21,14.25-6.24-14.25h-3v20h2.27V160.3l6,13.11ZM57.23,158.46,48,176.11h2.64l9.56-18.33-.77-1.59H47.66v2.27Zm-15.58,0v17.68H44V156.22H39v2.21Z"/></g></svg>