<?xml version="1.0" encoding="utf-8"?>
<!-- Generator: Adobe Illustrator 24.0.2, SVG Export Plug-In . SVG Version: 6.00 Build 0)  -->
<svg version="1.1" id="Layer_1" xmlns="http://www.w3.org/2000/svg" xmlns:xlink="http://www.w3.org/1999/xlink" x="0px" y="0px"
	 viewBox="0 0 300 600" style="enable-background:new 0 0 300 600;" xml:space="preserve">
<style type="text/css">
	.st0{fill:#323E60;}
</style>
<title>300 x 600 2</title>
<path class="st0" d="M55.8,202.3c0-6.9,5.3-12.2,12.4-12.2c4.5-0.1,8.7,2.4,10.7,6.5l-5.7,2.2c-1-1.9-2.9-3-5-3
	c-3.3,0-6,2.6-6.1,5.9c0,0.1,0,0.3,0,0.4c0,3.8,2.4,6.5,5.8,6.5c2.3,0.1,4.5-1.1,5.5-3.2l5.7,2.3c-2.2,4.4-6.1,6.8-11.3,6.8
	C61,214.6,55.8,209.4,55.8,202.3z"/>
<path class="st0" d="M104.2,199.7v14.4h-4.5l-0.9-3.1c-1.5,2.4-4.2,3.6-8.1,3.6c-5.4,0-8.5-2.7-8.5-7.4s3.3-7.1,9.1-7.1
	c2.3-0.1,4.6,0.3,6.8,1.1v-1c0-3-1.8-4.6-4.8-4.6c-2.3,0-4.5,0.6-6.4,1.9l-3.3-4.2c3-2,6.5-3,10.1-2.9
	C100.1,190.2,104.2,193.9,104.2,199.7z M98,205.4v-0.6c-1.6-0.6-3.3-0.9-4.9-0.9c-3.1,0-4.6,1-4.6,3s1.4,3,4.2,3
	C95.8,210,98,208.1,98,205.4z"/>
<path class="st0" d="M139.6,219.5v5.1c-0.7,0.1-1.3,0.1-2,0.1c-6.9,0-10.8-3.9-10.8-10.6v-13c0-3.4-1.7-5.1-4.7-5.1
	c-3-0.2-5.5,2.1-5.7,5c0,0.2,0,0.4,0,0.6v12.4h-6.2v-23.4h5.1l0.8,3.3c1.4-2.4,4.3-3.8,8-3.8c5.5,0,9,3.7,9,9.7v14.1
	c0,3.7,1.9,5.6,5.7,5.6L139.6,219.5z"/>
<path class="st0" d="M149.1,190.7h6.6l4.4,14.3l0.5,2.8l0.4-2.7l4.2-14.3h5.2l4.2,14.3l0.4,2.8l0.5-2.8l4.9-15.6
	c1.9-6.2,4.7-8.8,9.4-10l2.1,5.5c-3.1,0.8-4.4,2.1-5.7,6l-8,23.2h-5.6l-4.5-14.2l-0.4-2.1l-0.3,2.1l-4.2,14.2h-5.7L149.1,190.7z"/>
<path class="st0" d="M208.8,199.7v14.4h-4.5l-0.9-3.1c-1.5,2.4-4.2,3.6-8.1,3.6c-5.4,0-8.5-2.7-8.5-7.4s3.3-7.2,9.1-7.2
	c2.3-0.1,4.6,0.3,6.8,1.1v-1c0-3-1.8-4.6-4.8-4.6c-2.3,0-4.5,0.6-6.4,1.9l-3.4-4.3c3-2,6.5-3,10.1-2.9
	C204.7,190.2,208.8,193.9,208.8,199.7z M202.6,205.4v-0.6c-1.6-0.6-3.3-0.9-4.9-0.9c-3.1,0-4.6,1-4.6,3s1.4,3,4.2,3
	C200.3,210,202.6,208.1,202.6,205.4L202.6,205.4z"/>
<path class="st0" d="M214.2,183.3c0-2.1,1.7-3.8,3.8-3.8s3.8,1.7,3.8,3.8c0,2-1.6,3.7-3.7,3.7c-0.1,0-0.1,0-0.2,0
	c-2,0.1-3.7-1.4-3.8-3.4C214.2,183.5,214.2,183.4,214.2,183.3z M214.9,190.7h6.2v23.4h-6.2V190.7z"/>
<path class="st0" d="M244.8,213.2c-2.1,1-4.4,1.5-6.7,1.4c-6.1,0-9-3-9-9.1V196h-4.2v-4.7c3.5-0.2,5.3-2.6,5.5-7h4.9v6.3h7.9v5.4
	h-7.9v9c0,2.9,0.9,3.9,3.6,4c1.4,0.1,2.8-0.4,4-1.2L244.8,213.2z"/>
</svg>
