<?xml version="1.0" encoding="utf-8"?>
<!-- Generator: Adobe Illustrator 24.0.2, SVG Export Plug-In . SVG Version: 6.00 Build 0)  -->
<svg version="1.1" id="Layer_1" xmlns="http://www.w3.org/2000/svg" xmlns:xlink="http://www.w3.org/1999/xlink" x="0px" y="0px"
	 viewBox="0 0 300 600" style="enable-background:new 0 0 300 600;" xml:space="preserve">
<style type="text/css">
	.st0{fill:#323E60;}
</style>
<title>300 x 600 2</title>
<path class="st0" d="M141.1,78.2H130v27.8h-6.4V78.2h-6.4c-4.7,0-7.6,2.7-7.6,7.1c-0.2,3.6,2.5,6.6,6,7l-1.2,5.9
	c-7-1-11.3-5.8-11.3-13c0-8,5.4-13.1,14.2-13.1h24V78.2z"/>
<path class="st0" d="M146.1,71.3h6.2v13.9c1.6-2.1,4.3-3.2,7.6-3.2c5.5,0,9.1,3.8,9.1,9.7v14.2h-6.2V93c0-3.4-1.7-5.2-4.8-5.2
	c-3.1-0.1-5.6,2.3-5.7,5.3c0,0.1,0,0.3,0,0.4v12.4h-6.2L146.1,71.3z"/>
<path class="st0" d="M197.6,96.2h-17.6c0.6,3.1,2.6,4.7,5.9,4.7c2.5,0,4.2-0.9,5.1-2.7l5.6,2.5c-2.4,3.9-5.9,5.7-10.8,5.7
	c-7,0-12.1-5.2-12.1-12.2S178.9,82,186.1,82c6.9,0,11.6,5,11.6,12.3C197.7,95.3,197.6,96.2,197.6,96.2z M191.6,91.6
	c-0.2-2.6-2.3-4.3-5.5-4.3s-5.3,1.4-6,4.3H191.6z"/>
</svg>
