<?xml version="1.0" encoding="utf-8"?>
<!-- Generator: Adobe Illustrator 24.0.2, SVG Export Plug-In . SVG Version: 6.00 Build 0)  -->
<svg version="1.1" id="Layer_1" xmlns="http://www.w3.org/2000/svg" xmlns:xlink="http://www.w3.org/1999/xlink" x="0px" y="0px"
	 viewBox="0 0 300 600" style="enable-background:new 0 0 300 600;" xml:space="preserve">
<style type="text/css">
	.st0{fill:#323E60;}
	.st1{fill:#7BB6DE;}
	.st2{fill:#FFFFFF;}
	.st3{clip-path:url(#SVGID_2_);}
	.st4{clip-path:url(#SVGID_4_);}
	.st5{clip-path:url(#SVGID_6_);}
</style>
<rect class="st0" width="300" height="600"/>
<g>
	<path class="st1" d="M91,386.1h118c10.2,0,18.5,8.3,18.5,18.5l0,0c0,10.2-8.3,18.5-18.5,18.5H91c-10.2,0-18.5-8.3-18.5-18.5l0,0
		C72.5,394.4,80.8,386.1,91,386.1z"/>
	<path class="st2" d="M118.7,406.6v1.9H112v-10.3h2v8.4L118.7,406.6z"/>
	<path class="st2" d="M126.6,405.5h-5.3c0.1,0.9,0.9,1.5,1.8,1.4c0.6,0.1,1.3-0.3,1.6-0.8l1.7,0.8c-1.1,1.8-3.4,2.3-5.2,1.2
		c-1.1-0.7-1.8-1.9-1.8-3.2c0-2,1.5-3.6,3.5-3.7c0.1,0,0.2,0,0.3,0c1.9,0,3.5,1.5,3.5,3.4c0,0.1,0,0.3,0,0.4
		C126.6,405.2,126.6,405.5,126.6,405.5z M124.8,404.1c-0.1-0.8-0.9-1.4-1.7-1.3c0,0,0,0,0,0c-0.8-0.1-1.6,0.5-1.8,1.3H124.8z"/>
	<path class="st2" d="M134.2,404.1v4.4h-1.4l-0.3-0.9c-0.6,0.8-1.5,1.2-2.5,1.1c-1.6,0-2.6-0.8-2.6-2.3s1-2.2,2.8-2.2
		c0.7,0,1.4,0.1,2.1,0.3v-0.3c0.1-0.7-0.5-1.3-1.2-1.4c-0.1,0-0.2,0-0.3,0c-0.7,0-1.4,0.2-1.9,0.6l-1-1.3c0.9-0.6,2-0.9,3.1-0.9
		C132.9,401.2,134.2,402.3,134.2,404.1z M132.3,405.8v-0.2c-0.5-0.2-1-0.3-1.5-0.3c-0.9,0-1.4,0.3-1.4,0.9s0.4,0.9,1.3,0.9
		C131.5,407.3,132.2,406.7,132.3,405.8C132.3,405.9,132.3,405.8,132.3,405.8z"/>
	<path class="st2" d="M136,401.3h1.4l0.3,1.3c0.4-0.9,1.4-1.5,2.4-1.4c0.1,0,0.3,0,0.4,0l-0.1,1.9h-0.3c-1.6,0-2.3,0.7-2.3,2.6v2.7
		H136V401.3z"/>
	<path class="st2" d="M141.8,401.3h1.5l0.3,1c0.6-0.8,1.5-1.2,2.5-1.1c1.5-0.1,2.7,1.1,2.8,2.6c0,0.1,0,0.3,0,0.4v4.3h-1.9v-3.9
		c0-1-0.5-1.6-1.4-1.6c-0.9-0.1-1.7,0.6-1.7,1.5c0,0.1,0,0.1,0,0.2v3.8h-1.9V401.3z"/>
	<path class="st2" d="M165.7,404.1v4.3h-1.9v-3.9c0-1-0.4-1.6-1.3-1.6c-0.8,0-1.6,0.6-1.6,1.5c0,0.1,0,0.2,0,0.3v3.8h-1.9v-3.9
		c0-1-0.5-1.6-1.3-1.6c-0.8,0-1.6,0.6-1.6,1.5c0,0.1,0,0.2,0,0.3v3.8h-1.9v-7.1h1.5l0.3,1c0.5-0.8,1.4-1.2,2.3-1.1
		c0.9-0.1,1.8,0.4,2.1,1.2c0.6-0.8,1.6-1.3,2.6-1.2C164.7,401.2,165.7,402.3,165.7,404.1z"/>
	<path class="st2" d="M167.1,404.9c0-2,1.6-3.7,3.7-3.7c0.1,0,0.2,0,0.2,0c2-0.1,3.7,1.4,3.9,3.4c0,0.1,0,0.2,0,0.3
		c0,2.1-1.7,3.9-3.9,3.9C168.9,408.8,167.1,407,167.1,404.9z M173,404.9c0.1-1-0.7-1.9-1.7-2c-0.1,0-0.2,0-0.3,0c-1.1,0-2,0.8-2,1.9
		s0.8,2,1.9,2S172.9,406,173,404.9C173,404.9,173,404.9,173,404.9z"/>
	<path class="st2" d="M176.4,401.3h1.5l0.3,1.3c0.4-0.9,1.4-1.5,2.5-1.4c0.1,0,0.3,0,0.4,0l-0.1,1.9h-0.3c-1.6,0-2.3,0.7-2.3,2.6
		v2.7h-1.9L176.4,401.3z"/>
	<path class="st2" d="M188.7,405.5h-5.4c0.1,0.9,0.9,1.5,1.8,1.4c0.6,0.1,1.3-0.3,1.6-0.8l1.7,0.8c-0.7,1.1-1.9,1.8-3.3,1.7
		c-2,0.1-3.8-1.5-3.8-3.6s1.5-3.8,3.6-3.8c0.1,0,0.2,0,0.4,0c1.9,0,3.5,1.5,3.5,3.4c0,0.1,0,0.3,0,0.4
		C188.8,405.2,188.7,405.5,188.7,405.5z M186.9,404.1c-0.1-0.8-0.9-1.4-1.7-1.3c0,0,0,0,0,0c-0.8-0.1-1.6,0.5-1.8,1.3H186.9z"/>
</g>
<g>
	<path class="st2" d="M101.1,294.5h-6.5v16.2h-3.7v-16.2h-6.4V291h16.7V294.5z"/>
	<path class="st2" d="M103.3,290.5h3.6v8.1c1.1-1.3,2.8-2,4.4-1.9c3.2,0,5.3,2.2,5.3,5.6v8.3H113v-7.5c0-2-1-3-2.8-3
		c-1.8-0.1-3.3,1.3-3.3,3.1c0,0.1,0,0.2,0,0.2v7.2h-3.6L103.3,290.5z"/>
	<path class="st2" d="M133.3,305H123c0.2,1.7,1.7,2.9,3.4,2.7c1.2,0.1,2.4-0.5,3-1.6l3.2,1.5c-2.2,3.4-6.7,4.3-10,2.2
		c-2-1.3-3.3-3.6-3.3-6c-0.1-3.8,3-6.9,6.8-7c0.2,0,0.3,0,0.5,0c4,0,6.7,2.9,6.7,7.2C133.3,304.4,133.3,305,133.3,305z M129.8,302.3
		c-0.1-1.5-1.4-2.5-3.2-2.5c-1.6-0.2-3.1,0.9-3.5,2.5H129.8z"/>
	<path class="st2" d="M142,297h3.9l2.5,8.3l0.3,1.6l0.2-1.6l2.4-8.3h3l2.5,8.3l0.2,1.6l0.3-1.6l2.9-9.1c1.1-3.6,2.7-5.1,5.5-5.8
		l1.2,3.2c-1.8,0.5-2.6,1.2-3.3,3.5l-4.7,13.5h-3.3l-2.6-8.3l-0.2-1.2l-0.2,1.2l-2.4,8.3h-3.3L142,297z"/>
	<path class="st2" d="M164,303.8c0-4.1,3.1-7.1,7.5-7.1c4.3,0,7.4,2.9,7.4,7.1s-3.1,7.1-7.4,7.1C167.2,310.9,164,308,164,303.8z
		 M175.2,303.8c0.1-2-1.3-3.6-3.3-3.8c-0.1,0-0.3,0-0.4,0c-2.1,0-3.8,1.7-3.8,3.7c0,2.1,1.7,3.8,3.7,3.8
		C173.5,307.6,175.2,305.9,175.2,303.8C175.2,303.8,175.2,303.8,175.2,303.8z"/>
	<path class="st2" d="M181.8,297h2.8l0.6,2.5c0.7-1.7,2.4-2.7,4.7-2.7c0.3,0,0.5,0,0.8,0.1l-0.2,3.7h-0.6c-3.1,0-4.4,1.4-4.4,4.9
		v5.2h-3.6L181.8,297z"/>
	<path class="st2" d="M192.8,290.5h3.6v20.2h-3.6V290.5z"/>
	<path class="st2" d="M215.6,289.2c-1.2,0.4-2,1.6-1.8,2.9v18.6H211l-0.5-1.9c-1.1,1.5-2.8,2.3-4.6,2.3c-3.8,0-6.5-2.9-6.5-7.1
		s2.8-7.1,6.6-7.1c1.6-0.1,3.2,0.6,4.3,1.7v-6.6c-0.2-2.7,1.6-5.2,4.2-5.8L215.6,289.2z M210.2,303.8c0.1-2-1.4-3.7-3.4-3.8
		c-0.1,0-0.2,0-0.3,0c-2.1,0.2-3.6,2-3.5,4c0.1,1.9,1.6,3.4,3.5,3.5c2,0,3.6-1.6,3.7-3.6C210.2,304,210.2,303.9,210.2,303.8
		L210.2,303.8z"/>
	<path class="st2" d="M95,336.3c0-3.9,3-7,6.9-7.1c0.1,0,0.2,0,0.3,0c2.6-0.1,5.1,1.4,6.2,3.8l-3.3,1.3c-0.6-1.1-1.7-1.7-2.9-1.7
		c-1.9,0-3.5,1.5-3.5,3.4c0,0.1,0,0.2,0,0.3c0,2.2,1.4,3.8,3.4,3.8c1.3,0.1,2.6-0.7,3.2-1.9l3.3,1.3c-1.8,3.6-6.1,5-9.6,3.2
		C96.6,341.5,95,339,95,336.3L95,336.3z"/>
	<path class="st2" d="M123.2,334.8v8.4h-2.6l-0.5-1.8c-0.9,1.4-2.4,2.1-4.7,2.1c-3.2,0-5-1.6-5-4.3s1.9-4.2,5.3-4.2
		c1.4,0,2.7,0.2,4,0.6V335c0.1-1.4-0.9-2.6-2.3-2.7c-0.2,0-0.4,0-0.6,0c-1.3,0-2.6,0.4-3.7,1.1l-2-2.5c1.7-1.2,3.8-1.8,5.9-1.7
		C120.8,329.2,123.2,331.4,123.2,334.8z M119.6,338.1v-0.3c-0.9-0.3-1.9-0.5-2.9-0.5c-1.8,0-2.7,0.6-2.7,1.7s0.8,1.7,2.4,1.7
		C118.3,340.8,119.6,339.7,119.6,338.1z"/>
	<path class="st2" d="M143.8,346.4v3c-0.4,0.1-0.8,0.1-1.1,0.1c-4,0-6.3-2.3-6.3-6.2v-7.6c0-2-1-3-2.8-3c-1.7-0.1-3.2,1.2-3.3,3
		c0,0.1,0,0.2,0,0.3v7.2h-3.6v-13.7h3l0.5,1.9c1.1-1.5,2.8-2.3,4.6-2.2c3.2,0,5.3,2.2,5.3,5.6v8.2c0,2.2,1.1,3.3,3.3,3.3
		L143.8,346.4z"/>
	<path class="st2" d="M149.4,329.5h3.9l2.5,8.3l0.3,1.6l0.2-1.6l2.4-8.3h3l2.5,8.3l0.2,1.6l0.3-1.6l2.9-9.1c1.1-3.6,2.7-5.1,5.4-5.8
		l1.2,3.2c-1.8,0.5-2.5,1.2-3.3,3.5l-4.7,13.5H163l-2.6-8.3l-0.2-1.2l-0.2,1.2l-2.4,8.3h-3.3L149.4,329.5z"/>
	<path class="st2" d="M184.1,334.8v8.4h-2.6l-0.5-1.8c-0.9,1.4-2.4,2.1-4.7,2.1c-3.1,0-5-1.6-5-4.3s1.9-4.2,5.3-4.2
		c1.4,0,2.7,0.2,4,0.6V335c0.1-1.4-0.9-2.6-2.3-2.7c-0.2,0-0.4,0-0.6,0c-1.3,0-2.6,0.4-3.7,1.1L172,331c1.7-1.2,3.8-1.8,5.9-1.7
		C181.7,329.2,184.1,331.4,184.1,334.8z M180.5,338.1v-0.3c-0.9-0.3-1.9-0.5-2.9-0.5c-1.8,0-2.7,0.6-2.7,1.7s0.8,1.7,2.4,1.7
		C179.2,340.8,180.5,339.7,180.5,338.1z"/>
	<path class="st2" d="M187.2,325.3c0.1-1.2,1.1-2.1,2.4-2.1c1.1,0.1,2,1,2.1,2.1c0,1.2-0.9,2.2-2.1,2.2c0,0-0.1,0-0.1,0
		c-1.2,0.1-2.1-0.9-2.2-2C187.2,325.4,187.2,325.3,187.2,325.3z M187.6,329.5h3.6v13.7h-3.6V329.5z"/>
	<path class="st2" d="M205,342.7c-1.2,0.6-2.6,0.9-3.9,0.8c-3.6,0-5.3-1.7-5.3-5.3v-5.5h-2.4V330c2-0.1,3.1-1.5,3.2-4.1h2.8v3.7h4.6
		v3.1h-4.6v5.3c0,1.7,0.5,2.3,2.1,2.3c0.8,0,1.6-0.2,2.3-0.7L205,342.7z"/>
</g>
<g>
	<rect x="89.8" y="197.6" class="st2" width="4.4" height="21.8"/>
	<g>
		<defs>
			<rect id="SVGID_1_" x="39.5" y="176.9" width="221" height="73.7"/>
		</defs>
		<clipPath id="SVGID_2_">
			<use xlink:href="#SVGID_1_"  style="overflow:visible;"/>
		</clipPath>
		<g class="st3">
			<path class="st2" d="M112.9,219.9c-6.3,0-11.7-4.3-11.7-11.4s5.4-11.4,11.7-11.4c2.7-0.1,5.4,0.7,7.6,2.2v4
				c-2-1.7-4.5-2.7-7.1-2.7c-4.3,0-7.5,2.9-7.5,7.8s3.2,7.8,7.5,7.8c2.6,0,5.2-0.9,7.1-2.7v4C118.3,219.1,115.6,219.9,112.9,219.9"
				/>
		</g>
	</g>
	<polygon class="st2" points="137.5,201.1 137.5,219.5 133.1,219.5 133.1,201.1 125.7,201.1 125.7,197.6 144.9,197.6 144.9,201.1 	
		"/>
	<g>
		<defs>
			<rect id="SVGID_3_" x="39.5" y="176.9" width="221" height="73.7"/>
		</defs>
		<clipPath id="SVGID_4_">
			<use xlink:href="#SVGID_3_"  style="overflow:visible;"/>
		</clipPath>
		<g class="st4">
			<path class="st2" d="M160.6,200.5c-4.4,0-7.2,3.3-7.2,8s2.9,8,7.2,8s7.1-3.3,7.1-8S164.8,200.5,160.6,200.5 M160.6,220.1
				c-6.7,0-11.9-4.8-11.9-11.5s5.2-11.5,11.9-11.5s11.8,4.8,11.8,11.5S167.2,220.1,160.6,220.1"/>
			<path class="st2" d="M183.8,207.6h3.4c2.8,0,3.8-1.4,3.8-3.4s-1-3.5-3.8-3.5h-3.4V207.6z M195,219.7c-2.6,0-4.7-1.1-6.3-4.3
				l-2.3-4.7h-2.6v8.7h-4.4v-21.8h8.6c5.2,0,7.4,3.1,7.4,6.6c0.2,3-1.9,5.6-4.8,6.2l2.1,3.8c1.1,1.9,2.1,2.5,3.6,2.5
				c0.4,0,0.8,0,1.2-0.2v2.8C196.7,219.6,195.9,219.7,195,219.7"/>
		</g>
	</g>
	<rect x="205.2" y="197.6" class="st2" width="4.4" height="21.8"/>
	<g>
		<defs>
			<rect id="SVGID_5_" x="39.5" y="176.9" width="221" height="73.7"/>
		</defs>
		<clipPath id="SVGID_6_">
			<use xlink:href="#SVGID_5_"  style="overflow:visible;"/>
		</clipPath>
		<g class="st5">
			<path class="st2" d="M49.2,196.9c-1.3,0.4-2.6,0.3-3.8-0.1c-1.1-0.5-2-1.4-2.4-2.5c-0.4-1.1-0.3-2.3,0.2-3.3
				c0.5-0.9,1.5-1.4,2.5-1.3c1.3,0.2,2.5,0.7,3.5,1.6c1.2,0.9,2.3,2,3.2,3.1c0.3,0.3,0.5,0.6,0.8,1C52,196.1,50.7,196.6,49.2,196.9
				 M143.6,180.3c-12.7-3.5-26.1-4.3-39.1-2.3c-13,1.9-25.6,6.1-37.7,11.1c-3,1.3-6,2.5-9,4c-0.4,0.2-0.8,0.4-1.2,0.6
				c-0.4-0.6-0.9-1.1-1.3-1.6c-1.1-1.3-2.4-2.5-3.8-3.6c-1.6-1.2-3.4-2-5.4-2.2c-1.1-0.1-2.3,0.1-3.3,0.7c-1,0.5-1.8,1.4-2.4,2.4
				c-1,1.9-1.2,4.1-0.4,6.1c0.8,2,2.3,3.5,4.2,4.3c1.9,0.7,3.9,0.8,5.8,0.2c1.8-0.5,3.5-1.2,5.1-2.1c0.9,1.4,1.8,2.8,2.8,4.4
				l10.2,16.6l0,0c0.2,0.3,0.4,0.5,0.7,0.7c0.9,0.6,2.2,0.3,2.7-0.7c0,0,0,0,0,0L83.9,198c0.1-0.2,0.1-0.3,0.2-0.5h-4.6L69.7,214
				L61,200.3c-0.9-1.4-1.7-2.8-2.7-4.2l0.8-0.4c2.8-1.4,5.8-2.7,8.8-4c11.9-5.2,24.2-9.4,36.9-11.5c12.7-2.2,25.8-1.6,38.3,1.6
				c0.4,0.1,0.9-0.1,1-0.6c0,0,0,0,0,0C144.2,180.8,144,180.4,143.6,180.3C143.5,180.2,143.5,180.2,143.6,180.3"/>
			<path class="st2" d="M257,225.3c-0.2,1-1.1,1.8-2.1,1.9c-1.3,0-2.5-0.4-3.5-1.1c-1.3-0.8-2.4-1.9-3.4-3c-0.4-0.5-0.8-1-1.2-1.5
				c0.9-0.5,1.8-0.8,2.8-1.2c1.3-0.5,2.7-0.7,4.1-0.5c1.2,0.2,2.3,0.9,2.9,2C257.2,223,257.3,224.2,257,225.3 M259.3,220.2
				c-1.2-1.8-3.1-3-5.2-3.4c-1.9-0.2-3.9,0-5.7,0.8c-1.2,0.5-2.4,1-3.6,1.6c-0.9-1.3-1.7-2.6-2.5-3.9l-10.5-17.1l0,0
				c-0.2-0.3-0.4-0.5-0.7-0.7c-0.9-0.6-2.2-0.3-2.7,0.7c0,0,0,0,0,0L216.1,219c-0.1,0.2-0.1,0.3-0.2,0.5h4.6l9.7-16.5l9,14.1
				c0.8,1.2,1.6,2.5,2.4,3.7c-0.8,0.4-1.5,0.8-2.3,1.2c-3,1.4-6,3-9,4.6c-11.8,6.4-23.1,13.4-35.8,17.4c-12.5,4.2-25.9,5.4-39.1,4.6
				c-0.5-0.1-0.9,0.2-1,0.7c-0.1,0.5,0.2,0.9,0.7,1c0,0,0.1,0,0.1,0c13.4,1,27,0,39.9-4.1s24.7-10.9,36.4-17c2.9-1.5,5.9-3,8.9-4.4
				c1-0.4,1.9-0.9,2.8-1.4c0.6,0.7,1.2,1.5,1.8,2.2c1.2,1.4,2.6,2.6,4.1,3.6c1.7,1.2,3.8,1.8,5.9,1.6c1.2-0.2,2.3-0.7,3.2-1.5
				c0.8-0.8,1.4-1.8,1.7-2.9C260.8,224.2,260.5,221.9,259.3,220.2"/>
			<path class="st2" d="M131.1,232.6h-1v1.9h1c0.8,0,1.1-0.4,1.1-1S131.9,232.5,131.1,232.6 M130.1,231.6h0.9c0.6,0,0.9-0.4,0.9-0.8
				s-0.3-0.8-0.9-0.8h-0.9L130.1,231.6z M131.3,235.3h-2.5v-6.2h2.4c1.3,0,1.9,0.7,1.9,1.6c0,0.5-0.3,0.9-0.7,1.2
				c0.6,0.3,1,0.9,1,1.5C133.4,234.5,132.8,235.3,131.3,235.3"/>
			<path class="st2" d="M138.8,235.5c-1.8,0-3.2-1.4-3.2-3.2s1.4-3.2,3.2-3.2c0.8,0,1.5,0.2,2.1,0.6v1.1c-0.6-0.5-1.3-0.8-2-0.8
				c-1.2,0-2.2,1-2.2,2.2c0,1.2,1,2.2,2.2,2.2c0.7,0,1.4-0.3,2-0.8v1.1C140.3,235.3,139.5,235.5,138.8,235.5"/>
			<path class="st2" d="M143.6,236.8l-0.2-0.3c0.4-0.2,0.6-0.6,0.6-1.1h-0.6v-1.2h1.2v1.1C144.7,235.9,144.3,236.5,143.6,236.8"/>
			<path class="st2" d="M153.6,235.5c-1.8,0-3.2-1.4-3.2-3.2s1.4-3.2,3.2-3.2c0.8,0,1.5,0.2,2.1,0.6v1.1c-0.6-0.5-1.3-0.8-2-0.8
				c-1.2,0-2.2,1-2.2,2.2c0,1.2,1,2.2,2.2,2.2c0.7,0,1.4-0.3,2-0.8v1.1C155.1,235.3,154.3,235.5,153.6,235.5"/>
		</g>
	</g>
	<path class="st2" d="M160.7,230.7l-0.9,2.2h1.8L160.7,230.7z M162.6,235.4l-0.6-1.5h-2.5l-0.6,1.5h-1.2l2.6-6.2h1l2.6,6.2H162.6z"
		/>
	<polygon class="st2" points="170.3,235.4 167.1,231.3 167.1,235.4 166,235.4 166,229.2 166.8,229.2 170.1,233.3 170.1,229.2 
		171.2,229.2 171.2,235.4 	"/>
	<path class="st2" d="M176.4,230.7l-0.9,2.2h1.8L176.4,230.7z M178.3,235.4l-0.6-1.5h-2.5l-0.6,1.5h-1.2l2.6-6.2h1l2.6,6.2H178.3z"
		/>
	<path class="st2" d="M183.8,230.2H183v4.2h0.9c1.7,0,2.3-0.8,2.3-2.1S185.5,230.2,183.8,230.2 M183.9,235.4h-2.2v-6.2h2.2
		c2.5,0,3.5,1.4,3.5,3.1S186.4,235.4,183.9,235.4"/>
	<path class="st2" d="M191.9,230.7L191,233h1.8L191.9,230.7z M193.8,235.4l-0.6-1.5h-2.5l-0.6,1.5h-1.2l2.6-6.2h1l2.6,6.2H193.8z"/>
</g>
</svg>
