<?xml version="1.0" encoding="utf-8"?>
<!-- Generator: Adobe Illustrator 25.3.1, SVG Export Plug-In . SVG Version: 6.00 Build 0)  -->
<svg version="1.1" id="Layer_1" xmlns="http://www.w3.org/2000/svg" xmlns:xlink="http://www.w3.org/1999/xlink" x="0px" y="0px"
	 viewBox="0 0 320 50" style="enable-background:new 0 0 320 50;" xml:space="preserve">
<style type="text/css">
	.st0{fill:#FFFFFF;}
	.st1{fill:#FF3008;}
	.st2{clip-path:url(#SVGID_2_);}
	.st3{clip-path:url(#SVGID_4_);}
	.st4{fill:none;stroke:#000000;stroke-width:0.5;stroke-miterlimit:10;}
</style>
<rect class="st0" width="320" height="50"/>
<path class="st1" d="M96.6,23c2.3-0.1,4.2,1.6,4.3,3.9c0.1,2.3-1.6,4.2-3.9,4.3c-0.1,0-0.3,0-0.4,0h-2.8c-0.1,0-0.2-0.1-0.2-0.2
	v-7.7c0-0.1,0.1-0.2,0.2-0.2L96.6,23z M95.3,24.6v5h1.3c1.3,0,2.4-1.1,2.4-2.5c0-1.3-1-2.5-2.4-2.5h-0.1H95.3z"/>
<path class="st1" d="M106.9,22.9c2.4,0.1,4.2,2.1,4.1,4.4c-0.1,2.4-2.1,4.2-4.4,4.1s-4.1-2-4.1-4.3
	C102.5,24.7,104.5,22.8,106.9,22.9L106.9,22.9 M106.9,29.8c1.5,0,2.7-1.2,2.7-2.7s-1.2-2.7-2.7-2.7s-2.7,1.2-2.7,2.7l0,0
	C104.3,28.6,105.5,29.8,106.9,29.8"/>
<path class="st1" d="M117.5,22.9c2.4,0.1,4.2,2.1,4.1,4.4c-0.1,2.4-2.1,4.2-4.4,4.1s-4.1-2-4.1-4.3C113.1,24.7,115,22.8,117.5,22.9
	C117.4,22.9,117.5,22.9,117.5,22.9 M117.5,29.8c1.5,0,2.7-1.2,2.7-2.7s-1.2-2.7-2.7-2.7s-2.7,1.2-2.7,2.7l0,0
	C114.8,28.6,116,29.8,117.5,29.8"/>
<path class="st1" d="M124.2,23.2c0-0.1,0.1-0.2,0.2-0.2h3.4c1.5-0.1,2.7,1.1,2.8,2.6v0.1c0,1-0.6,1.9-1.5,2.4l1.6,2.8
	c0.1,0.1,0,0.2-0.1,0.3h-0.1h-1.4c-0.1,0-0.1,0-0.2-0.1l-1.5-2.8H126V31c0,0.1-0.1,0.2-0.2,0.2h-1.3c-0.1,0-0.2-0.1-0.2-0.2
	L124.2,23.2z M127.8,24.6H126v2.2h1.8c0.6,0,1.1-0.5,1.1-1.1C128.9,25.1,128.4,24.6,127.8,24.6L127.8,24.6"/>
<path class="st1" d="M136.5,23.1c2.3-0.1,4.2,1.6,4.3,3.9s-1.6,4.2-3.9,4.3c-0.1,0-0.3,0-0.4,0h-2.8c-0.1,0-0.2-0.1-0.2-0.2l0,0
	v-7.8c0-0.1,0.1-0.2,0.2-0.2l0,0L136.5,23.1z M135.2,24.6v5h1.3c1.4,0,2.5-1.1,2.5-2.5l0,0c0-1.3-1-2.5-2.4-2.5h-0.1H135.2z"/>
<path class="st1" d="M144.5,29.3l-0.6,1.8c0,0.1-0.1,0.1-0.2,0.1h-1.4c-0.1,0-0.2-0.1-0.2-0.2c0,0,0,0,0-0.1l3-7.7
	c0-0.1,0.1-0.1,0.2-0.1h1.6c0.1,0,0.2,0.1,0.2,0.1l3,7.7c0,0.1,0,0.2-0.1,0.3c0,0,0,0-0.1,0h-1.4c-0.1,0-0.2-0.1-0.2-0.1l-0.6-1.8
	C147.7,29.3,144.5,29.3,144.5,29.3z M146,25.1l-1,2.7h2L146,25.1z"/>
<path class="st1" d="M151.7,25.2c0.1-1.4,1.3-2.5,2.7-2.4h0.1c0.9,0,1.8,0.3,2.5,1c0.1,0.1,0.1,0.2,0,0.3l-0.8,0.8
	c-0.1,0.1-0.2,0.1-0.3,0c-0.4-0.3-0.8-0.5-1.4-0.5c-0.7,0-1.2,0.4-1.2,0.9c0,1.5,4.1,0.6,4.1,3.6c0,1.5-1.1,2.6-3.1,2.6
	c-1.1,0-2.2-0.4-2.9-1.2c-0.1-0.1-0.1-0.2,0-0.3l0.8-0.8c0.1-0.1,0.2-0.1,0.3,0c0.5,0.5,1.1,0.7,1.8,0.7c0.9,0,1.5-0.5,1.5-1
	C155.8,27.3,151.7,28.2,151.7,25.2"/>
<path class="st1" d="M165.1,23.2v3.1h-3.5v-3.1c0-0.1-0.1-0.2-0.2-0.2h-1.3c-0.1,0-0.2,0.1-0.2,0.2l0,0V31c0,0.1,0.1,0.2,0.2,0.2
	l0,0h1.3c0.1,0,0.2-0.1,0.2-0.2l0,0v-3.1h3.5V31c0,0.1,0.1,0.2,0.2,0.2l0,0h1.3c0.1,0,0.2-0.1,0.2-0.2l0,0v-7.8
	c0-0.1-0.1-0.2-0.2-0.2l0,0h-1.3C165.2,23,165.1,23.1,165.1,23.2L165.1,23.2"/>
<path class="st1" d="M86.6,24.1c-0.9-1.7-2.6-2.7-4.5-2.7H67.7c-0.3,0-0.5,0.2-0.5,0.5c0,0.1,0.1,0.3,0.1,0.3l3.1,3.1
	c0.3,0.3,0.6,0.4,1,0.4h10.2c0.7-0.1,1.4,0.5,1.4,1.2s-0.5,1.4-1.2,1.4c-0.1,0-0.2,0-0.2,0h-7c-0.3,0-0.5,0.2-0.5,0.5
	c0,0.1,0.1,0.3,0.1,0.3l3.1,3.1c0.3,0.3,0.6,0.4,1,0.4h3.2c3.2,0,5.8-2.7,5.7-5.9C87.4,26,87.1,25,86.6,24.1"/>
<g>
	<g>
		<defs>
			<rect id="SVGID_1_" x="195.4" y="12.2" width="57.4" height="27"/>
		</defs>
		<clipPath id="SVGID_2_">
			<use xlink:href="#SVGID_1_"  style="overflow:visible;"/>
		</clipPath>
		<g class="st2">
			<g>
				<g>
					<defs>
						<rect id="SVGID_3_" x="195.4" y="12.2" width="57.4" height="27"/>
					</defs>
					<clipPath id="SVGID_4_">
						<use xlink:href="#SVGID_3_"  style="overflow:visible;"/>
					</clipPath>
					<g class="st3">
						<path d="M209.7,25.9L209.7,25.9l-1.1,0.5l-0.2,1.5L209,28l-1,0.2c0,0-0.1,0-0.1-0.1l0,0l0.3-1.6c0-0.1,0.1-0.1,0.1-0.1
							L209.7,25.9z M206.3,20.6h5.7V22c-0.9,0.1-1.7,0.3-2.5,0.5c-2,0.7-2.7,1.4-2.8,1.9c0,0.2,0,0.4,0.1,0.5l0.7,0.8
							c0-0.8,1.6-0.9,2.9-0.9c0.8,0,1.5,0.1,1.5,0.1l-0.9-0.8c0.8-0.3,1.6-0.6,2.5-0.8c-1.1-0.4-2.3-0.4-3.4,0
							c1-0.7,2.2-1.2,3.4-1.4v-3h-7.2V20.6z M206.3,37.9l5.4-3.1c1.2-0.7,1.9-1.9,1.8-3.2v-5.7l-1.7,1.2l0.8,1.6
							c0.1,0.1,0,0.3-0.1,0.4l-5,4.5v0.1l4.4-2.5v0.6c0,0.4-0.1,0.9-0.3,1.2s-0.4,0.5-0.7,0.6l-4.6,2.6L206.3,37.9z M210.1,26.9
							l1.8-1.2l0,0l-2.6,1.2c-0.1,0-0.1,0.2-0.1,0.3l0,0l0.8,1.4l-1.2,1v1.2l2.1-2c0.1-0.1,0.1-0.2,0.1-0.3L210.1,26.9z"/>
						<path d="M204.5,26.3c0.1,0,0.1,0.1,0.1,0.1l0.3,1.6c0,0,0,0.1-0.1,0.1l0,0l-1-0.2l0.6-0.1l-0.2-1.5l-1.2-0.5l0,0L204.5,26.3z
							 M206.4,19h-7.2v3c1.2,0.2,2.4,0.7,3.4,1.4c-1.1-0.4-2.3-0.4-3.4,0c0.9,0.2,1.7,0.4,2.5,0.8l-0.9,0.8c0,0,0.7-0.1,1.5-0.1
							c1.3,0,2.9,0.1,2.9,0.9l0.7-0.8c0.1-0.1,0.2-0.3,0.2-0.5c-0.1-0.5-0.8-1.2-2.8-1.9c-0.8-0.3-1.7-0.4-2.5-0.5v-1.4h5.6V19z
							 M206.4,36.1l-4.6-2.7c-0.3-0.2-0.5-0.4-0.7-0.6c-0.2-0.4-0.3-0.8-0.3-1.2V31l4.4,2.5c0,0,0,0,0-0.1l-5-4.5
							c-0.1-0.1-0.1-0.2-0.1-0.4l0.8-1.6l-1.7-1.2v5.7c0,1.3,0.6,2.6,1.8,3.2l5.4,3.1L206.4,36.1z M201.7,28.4
							c-0.1,0.1,0,0.2,0.1,0.3l2.1,2v-1.2l-1.2-1l0.8-1.4c0-0.1,0-0.2-0.1-0.3l0,0l-2.6-1.2l0,0l1.8,1.2L201.7,28.4z"/>
						<path d="M207,16.3h-0.4v0.5h0.4c0.2,0,0.4-0.1,0.4-0.3S207.2,16.3,207,16.3"/>
						<polygon points="201.7,17 201.7,16.4 201.2,17 						"/>
						<path d="M209.4,16.4c-0.2,0-0.5,0.1-0.5,0.4c0,0,0,0,0,0.1c0,0.3,0.2,0.5,0.4,0.5c0,0,0,0,0.1,0c0.3,0,0.5-0.2,0.5-0.4
							c0,0,0,0,0-0.1C209.9,16.6,209.7,16.4,209.4,16.4C209.5,16.4,209.5,16.4,209.4,16.4"/>
						<path d="M199.1,18.1h14.4v-2.6h-14.4V18.1z M202.3,17.8h-0.7v-0.3H201l-0.2,0.3H200l1.3-1.9h1V17.8z M205,17.8l-0.1-1.3
							l-0.4,1.3h-0.7l-0.4-1.3l-0.1,1.3h-0.7l0.2-1.9h1l0.3,1l0.3-1.1h1l0.2,1.9H205V17.8z M207.2,17.3h-0.5v0.5H206v-1.9h1.3
							c0.4,0,0.7,0.2,0.8,0.6v0.1C208.1,17,207.8,17.3,207.2,17.3 M209.5,17.8c-0.6,0.1-1.2-0.3-1.2-0.9c0,0,0,0,0-0.1
							c0-0.6,0.5-1,1.2-1s1.2,0.4,1.2,1S210.1,17.9,209.5,17.8L209.5,17.8 M212.7,17.8h-1.8v-1.9h0.7v1.4h1.1V17.8z"/>
						<path d="M219,21.5h-1l-0.2,0.5h-0.7l1.1-2.9h0.6l1.1,2.9h-0.7L219,21.5z M218.8,20.9l-0.3-1l-0.3,1H218.8z"/>
						<polygon points="223.3,22 222.6,22 222.6,21.4 222.6,19.8 221.9,21.4 221.5,21.4 220.7,19.8 220.8,21.4 220.8,22 220.1,22 
							220.1,19.1 221,19.1 221.7,20.5 222.4,19.1 223.3,19.1 						"/>
						<path d="M226,20.1c0,0.6-0.4,0.9-1.1,0.9h-0.5v1h-0.7v-2.9h1.2c0.5-0.1,1,0.3,1.1,0.9C226,20,226,20,226,20.1 M225.3,20.1
							c0-0.2-0.1-0.4-0.4-0.4c0,0,0,0-0.1,0h-0.5v0.8h0.5C225.2,20.5,225.3,20.3,225.3,20.1"/>
						<path d="M227.6,22c-0.7,0-1.3-0.6-1.3-1.3c0-0.1,0-0.1,0-0.2v-0.1c-0.1-0.7,0.4-1.3,1.1-1.4c0.7-0.1,1.3,0.4,1.4,1.1
							c0,0.1,0,0.2,0,0.3v0.1c0.1,0.7-0.4,1.3-1.1,1.4C227.7,22,227.6,22.1,227.6,22 M227.6,19.6c-0.4,0-0.6,0.3-0.6,0.9v0.1
							c0,0.6,0.2,0.9,0.6,0.9s0.6-0.3,0.6-0.9v-0.1C228.2,19.9,227.9,19.6,227.6,19.6"/>
						<polygon points="231.2,21.5 231.2,22 229.2,22 229.2,19.1 229.9,19.1 229.9,21.5 						"/>
						<path d="M232.4,19.9c0-0.5,0.5-0.8,1.1-0.8s1.1,0.4,1.1,0.9H234c0-0.2-0.1-0.4-0.4-0.4s-0.4,0.1-0.4,0.3s0.2,0.3,0.5,0.4
							c0.6,0.2,1,0.5,1,1s-0.4,0.8-1.1,0.8s-1.2-0.3-1.2-1h0.6c0,0.3,0.2,0.5,0.5,0.5s0.4-0.1,0.4-0.3s-0.1-0.3-0.5-0.4
							S232.4,20.4,232.4,19.9"/>
						<polygon points="237.3,19.6 236.4,19.6 236.4,22 235.7,22 235.7,19.6 234.9,19.6 234.9,19.1 237.3,19.1 						"/>
						<path d="M239,21.5h-1l-0.2,0.5h-0.7l1.1-2.9h0.6l1.1,2.9h-0.7L239,21.5z M238.8,20.9l-0.3-1l-0.3,1H238.8z"/>
						<polygon points="242.1,19.6 241.3,19.6 241.3,22 240.6,22 240.6,19.6 239.7,19.6 239.7,19.1 242.1,19.1 						"/>
						<polygon points="243.1,19.6 243.1,20.2 244.2,20.2 244.2,20.8 243.1,20.8 243.1,21.5 244.4,21.5 244.4,22 242.4,22 
							242.4,19.1 244.4,19.1 244.4,19.6 						"/>
						<path d="M247,22c-0.7,0-1.3-0.6-1.3-1.3c0-0.1,0-0.1,0-0.2v-0.1c-0.1-0.7,0.4-1.4,1.1-1.5s1.4,0.4,1.5,1.1c0,0.1,0,0.3,0,0.4
							v0.1c0.1,0.7-0.4,1.3-1.1,1.4C247.1,22,247.1,22.1,247,22 M247,19.6c-0.4,0-0.6,0.3-0.6,0.9v0.1c0,0.6,0.2,0.9,0.6,0.9
							s0.6-0.3,0.6-0.9v-0.1C247.6,19.9,247.4,19.6,247,19.6"/>
						<polygon points="249.3,19.6 249.3,20.3 250.4,20.3 250.4,20.9 249.3,20.9 249.3,22 248.6,22 248.6,19.1 250.6,19.1 
							250.6,19.6 						"/>
						<path d="M220.3,23.5c-1.9,0-3.2,1.4-3.2,3.6v0.3c0,2.3,1.3,3.6,3.2,3.6s3.2-1.4,3.2-3.6v-0.3
							C223.5,24.9,222.2,23.5,220.3,23.5 M221.7,27.4c0,1.4-0.5,2.2-1.4,2.2s-1.4-0.8-1.4-2.2v-0.3c0-1.5,0.5-2.2,1.4-2.2
							s1.4,0.8,1.4,2.2V27.4z"/>
						<path d="M230.1,25.8c0-1.5-1.1-2.2-2.8-2.2h-2.9V31h1.7v-2.6h1l1.3,2.6h1.9v-0.1l-1.5-3C229.6,27.5,230.2,26.7,230.1,25.8
							 M227.3,27h-1.1v-2h1.1c0.6,0,1,0.4,1,1S227.9,27,227.3,27"/>
						<rect x="231.3" y="23.6" width="1.7" height="7.3"/>
						<path d="M237.2,28.2h1.2v1.1c-0.3,0.2-0.7,0.3-1.1,0.3c-1.1,0-1.6-0.7-1.6-2.2V27c0-1.5,0.5-2.2,1.4-2.2
							c0.6-0.1,1.2,0.4,1.3,1v0.1h1.7c-0.1-1.5-1-2.5-3-2.5S234,24.7,234,27v0.4c0,2.3,1.3,3.6,3.2,3.6c1.1,0.1,2.1-0.3,2.9-1v-3h-3
							L237.2,28.2z"/>
						<rect x="241.4" y="23.6" width="1.7" height="7.3"/>
						<polygon points="248.8,23.6 248.8,26.6 249,28.3 246.2,23.6 244.4,23.6 244.4,30.9 246.2,30.9 246.2,27.9 246,26.2 
							248.8,30.9 250.6,30.9 250.6,23.6 						"/>
					</g>
				</g>
			</g>
		</g>
	</g>
</g>
<line class="st4" x1="183.1" y1="16.2" x2="183.1" y2="37.2"/>
</svg>
