<svg id="Layer_1" data-name="Layer 1" xmlns="http://www.w3.org/2000/svg" xmlns:xlink="http://www.w3.org/1999/xlink" viewBox="0 0 728 90"><defs><style>.cls-1{fill:none;}.cls-2{clip-path:url(#clip-path);}.cls-3{clip-path:url(#clip-path-2);}.cls-4{fill:#f57d20;}.cls-5{fill:#fff;}</style><clipPath id="clip-path"><rect class="cls-1" x="-748" width="728" height="90"/></clipPath><clipPath id="clip-path-2"><rect class="cls-1" width="728" height="90"/></clipPath></defs><title>cta</title><g class="cls-3"><g class="cls-3"><g id="cta"><path d="M49.28,69.09l-1.23-.77,0,1.46h-.83l0-1.46-1.23.77-.42-.72,1.28-.68L45.65,67l.42-.73L47.3,67l0-1.45h.83l0,1.45,1.23-.77.42.73-1.28.69,1.28.68Z"/><path d="M54.1,66.71v6.85H52.89V66.71H50.71V65.63h5.57v1.08Z"/><path d="M57.46,71.06c0,1,.5,1.59,1.44,1.59a1.71,1.71,0,0,0,1.37-.58l.72.68a2.68,2.68,0,0,1-2.12.87c-1.41,0-2.54-.74-2.54-2.89,0-1.84,1-2.89,2.4-2.89s2.39,1.1,2.39,2.74v.48Zm2.38-1.56a1.24,1.24,0,0,0-2.24,0,1.8,1.8,0,0,0-.14.77H60A2,2,0,0,0,59.84,69.5Z"/><path d="M65.73,69.24a1,1,0,0,0-.84-.38,1.16,1.16,0,0,0-1.13,1.27v3.43H62.63V67.91h1.11v.61a1.88,1.88,0,0,1,1.5-.68,1.75,1.75,0,0,1,1.35.54Z"/><path d="M74.4,73.56V70.12a1.1,1.1,0,0,0-1.14-1.26,1.12,1.12,0,0,0-1.17,1.2v3.5H71V70.12a1.1,1.1,0,0,0-1.14-1.26,1.13,1.13,0,0,0-1.17,1.26v3.44H67.52V67.91h1.11v.57a2.06,2.06,0,0,1,1.5-.64,1.82,1.82,0,0,1,1.61.83,2.13,2.13,0,0,1,1.77-.83,2,2,0,0,1,1.42.52A2.07,2.07,0,0,1,75.54,70v3.61Z"/><path d="M79.11,73.62a3.1,3.1,0,0,1-2.37-.81l.74-.74a2.23,2.23,0,0,0,1.63.59c.7,0,1.24-.25,1.24-.78s-.22-.62-.76-.67l-.9-.08C77.62,71,77,70.56,77,69.57s.94-1.73,2.12-1.73a3.09,3.09,0,0,1,2.1.64l-.72.72a2.11,2.11,0,0,0-1.39-.41c-.69,0-1,.29-1,.73s.22.59.78.64l.79.07c1.17.1,1.78.61,1.78,1.6C81.46,73,80.46,73.62,79.11,73.62Z"/><path d="M88.55,73.56v-.51a1.85,1.85,0,0,1-1.5.57,2,2,0,0,1-1.51-.51,1.72,1.72,0,0,1-.45-1.21c0-1,.66-1.63,2-1.63h1.48v-.4c0-.72-.34-1.06-1.23-1.06a1.36,1.36,0,0,0-1.24.56l-.74-.7a2.28,2.28,0,0,1,2-.83c1.56,0,2.33.67,2.33,1.94v3.78Zm0-2.5h-1.3c-.69,0-1,.29-1,.82s.33.8,1.07.8a1.4,1.4,0,0,0,1-.32,1.1,1.1,0,0,0,.24-.84Z"/><path d="M94.86,73.56V70.12a1.1,1.1,0,0,0-1.14-1.26,1.13,1.13,0,0,0-1.17,1.26v3.44H91.42V67.91h1.11v.57a2,2,0,0,1,1.5-.64,2,2,0,0,1,1.4.52A2.07,2.07,0,0,1,96,70v3.61Z"/><path d="M101,73.56V73a1.73,1.73,0,0,1-1.49.66,1.91,1.91,0,0,1-1.38-.5,3.33,3.33,0,0,1-.64-2.39,3.32,3.32,0,0,1,.64-2.38,1.89,1.89,0,0,1,1.37-.51,1.75,1.75,0,0,1,1.48.64V65.63h1.14v7.93Zm-1.19-4.7c-1,0-1.18.87-1.18,1.87s.15,1.88,1.18,1.88,1.17-.88,1.17-1.88S100.82,68.86,99.79,68.86Z"/><path d="M108.8,73.62c-1.27,0-2.52-.77-2.52-2.89s1.25-2.89,2.52-2.89a2.33,2.33,0,0,1,1.86.79l-.78.76a1.36,1.36,0,0,0-2.13,0,2.11,2.11,0,0,0-.33,1.37,2.15,2.15,0,0,0,.33,1.38,1.36,1.36,0,0,0,2.13,0l.78.74A2.31,2.31,0,0,1,108.8,73.62Z"/><path d="M115.6,73a2.3,2.3,0,0,1-1.7.66,2.25,2.25,0,0,1-1.68-.66,4,4,0,0,1,0-4.45,2.25,2.25,0,0,1,1.68-.67,2.3,2.3,0,0,1,1.7.67,4.08,4.08,0,0,1,0,4.45Zm-.86-3.78a1.15,1.15,0,0,0-.84-.32,1.12,1.12,0,0,0-.82.32,3.28,3.28,0,0,0,0,3.1,1.13,1.13,0,0,0,.82.33,1.16,1.16,0,0,0,.84-.33,3.28,3.28,0,0,0,0-3.1Z"/><path d="M121.24,73.56V70.12c0-.88-.5-1.26-1.13-1.26a1.12,1.12,0,0,0-1.17,1.26v3.44H117.8V67.91h1.11v.57a2,2,0,0,1,1.51-.64,1.92,1.92,0,0,1,1.39.52,2.07,2.07,0,0,1,.57,1.59v3.61Z"/><path d="M127.37,73.56V73a1.74,1.74,0,0,1-1.49.66,2,2,0,0,1-1.39-.5,3.38,3.38,0,0,1-.63-2.39,3.36,3.36,0,0,1,.63-2.38,1.92,1.92,0,0,1,1.37-.51,1.75,1.75,0,0,1,1.48.64V65.63h1.14v7.93Zm-1.19-4.7c-1,0-1.18.87-1.18,1.87s.14,1.88,1.18,1.88,1.16-.88,1.16-1.88S127.2,68.86,126.18,68.86Z"/><path d="M130.25,66.8V65.59h1.21V66.8Zm0,6.76V67.91h1.13v5.65Z"/><path d="M134.91,73.56A1.47,1.47,0,0,1,133.36,72V68.78h-.65v-.87h.65V66.3h1.14v1.61h1.09v.87H134.5v3.15a.58.58,0,0,0,.62.66h.47v1Z"/><path d="M137,66.8V65.59h1.2V66.8Zm0,6.76V67.91h1.14v5.65Z"/><path d="M143.75,73a2.27,2.27,0,0,1-1.69.66,2.23,2.23,0,0,1-1.68-.66,4,4,0,0,1,0-4.45,2.24,2.24,0,0,1,1.68-.67,2.28,2.28,0,0,1,1.69.67,4,4,0,0,1,0,4.45Zm-.86-3.78a1.24,1.24,0,0,0-1.66,0,3.28,3.28,0,0,0,0,3.1,1.21,1.21,0,0,0,1.66,0,3.28,3.28,0,0,0,0-3.1Z"/><path d="M149.4,73.56V70.12a1.1,1.1,0,0,0-1.14-1.26,1.13,1.13,0,0,0-1.17,1.26v3.44H146V67.91h1.11v.57a2,2,0,0,1,1.5-.64,1.92,1.92,0,0,1,1.39.52,2,2,0,0,1,.57,1.59v3.61Z"/><path d="M154.11,73.62a3.07,3.07,0,0,1-2.37-.81l.74-.74a2.23,2.23,0,0,0,1.63.59c.7,0,1.23-.25,1.23-.78s-.21-.62-.75-.67l-.91-.08c-1.06-.1-1.67-.57-1.67-1.56s1-1.73,2.13-1.73a3.09,3.09,0,0,1,2.1.64l-.72.72a2.11,2.11,0,0,0-1.39-.41c-.69,0-1,.29-1,.73s.22.59.77.64l.8.07c1.17.1,1.78.61,1.78,1.6C156.46,73,155.46,73.62,154.11,73.62Z"/><path d="M163.55,73.56v-.51a1.85,1.85,0,0,1-1.5.57,2,2,0,0,1-1.52-.51,1.71,1.71,0,0,1-.44-1.21c0-1,.65-1.63,2-1.63h1.48v-.4c0-.72-.35-1.06-1.24-1.06a1.36,1.36,0,0,0-1.23.56l-.74-.7a2.27,2.27,0,0,1,2-.83c1.56,0,2.33.67,2.33,1.94v3.78Zm0-2.5h-1.3c-.69,0-1,.29-1,.82s.32.8,1.07.8a1.38,1.38,0,0,0,1-.32,1.1,1.1,0,0,0,.25-.84Z"/><path d="M170.4,73.12a1.87,1.87,0,0,1-1.37.5,1.72,1.72,0,0,1-1.48-.64v2.86h-1.14V67.91h1.12v.6a1.75,1.75,0,0,1,1.49-.67,1.9,1.9,0,0,1,1.38.51,3.32,3.32,0,0,1,.64,2.38A3.36,3.36,0,0,1,170.4,73.12Zm-1.67-4.26c-1,0-1.18.87-1.18,1.87s.15,1.88,1.18,1.88,1.17-.88,1.17-1.88S169.76,68.86,168.73,68.86Z"/><path d="M176.56,73.12a1.87,1.87,0,0,1-1.37.5,1.72,1.72,0,0,1-1.48-.64v2.86h-1.14V67.91h1.12v.6a1.75,1.75,0,0,1,1.49-.67,1.9,1.9,0,0,1,1.38.51,3.32,3.32,0,0,1,.64,2.38A3.36,3.36,0,0,1,176.56,73.12Zm-1.67-4.26c-1,0-1.18.87-1.18,1.87s.14,1.88,1.18,1.88,1.17-.88,1.17-1.88S175.92,68.86,174.89,68.86Z"/><path d="M180.25,73.56A1.44,1.44,0,0,1,178.7,72V65.63h1.13v6.3c0,.44.16.66.62.66h.5v1Z"/><path d="M183.64,74.68a1.77,1.77,0,0,1-.41.71,1.57,1.57,0,0,1-1.16.41h-.45v-1h.29c.47,0,.64-.14.81-.6l.31-.88-2-5.38h1.2l1.35,4,1.31-4h1.22Z"/><g class="cls-3"><rect class="cls-4" x="9.74" y="21.72" width="211.65" height="32.25" rx="13.59"/></g><path class="cls-5" d="M24.31,27.62h5.6c3.42,0,5.42,1.94,5.42,6,0,3-1,4.7-2.52,5.43l2.76,9.22h-3.8L29.5,39.89H28V48.3H24.31Zm5.31,9.54c1.3,0,2-1,2-3.25,0-2-.61-3.22-2.06-3.22H28v6.47Z"/><path class="cls-5" d="M38.35,27.62h9.49v3.1H42v5.34h4.67v3.13H42v6h5.89V48.3H38.35Z"/><path class="cls-5" d="M57.44,48.48a5.22,5.22,0,0,1-1.13.11c-3.42,0-5.77-1.74-5.77-5.45V32.75c0-3.56,2.49-5.45,5.77-5.45s5.77,1.68,5.77,5.34V43.05a4.82,4.82,0,0,1-1.28,3.57l2,1.33-2.3,2.85Zm1-5.28V32.55a2,2,0,0,0-2.12-2.06,1.92,1.92,0,0,0-2,2.12V43.2a2.08,2.08,0,1,0,4.15,0Z"/><path class="cls-5" d="M65,43.31V27.62h3.72V43.14a2,2,0,0,0,2,2.26c1.3,0,2-.9,2-2.23V27.62h3.48V43.2c0,3.48-2.41,5.42-5.69,5.42S65,46.94,65,43.31Z"/><path class="cls-5" d="M79.43,27.62h9.49v3.1H83.06v5.34h4.67v3.13H83.06v6H89V48.3H79.43Z"/><path class="cls-5" d="M90.92,42.85l3.42-.12c.15,1.42.55,2.9,2,2.9,1.31,0,1.71-1.13,1.71-2.17s-.72-2.15-1.91-3.31L94.11,38c-1.77-1.71-2.87-3.39-2.87-5.57a4.88,4.88,0,0,1,5.22-5.16c2.52,0,4.79,1.34,5,5.6L98.2,33c-.17-1.63-.61-2.76-1.91-2.76-1.08,0-1.66.81-1.66,1.94s1.11,2.21,2.12,3.22l1.92,2c1.91,1.88,3,3.65,3,5.94a5,5,0,0,1-5.31,5.31C93.07,48.59,91.12,46.42,90.92,42.85Z"/><path class="cls-5" d="M107.05,30.72h-3.92v-3.1h11.49v3.1h-3.89V48.3h-3.68Z"/><path class="cls-5" d="M125.38,27.59h5l4,20.71h-3.69l-.95-5H125.5l-.93,5h-3.39Zm3.81,12.73-1.48-8.58h-.09l-1.54,8.58Z"/><path class="cls-5" d="M148.42,48.48a5.22,5.22,0,0,1-1.13.11c-3.42,0-5.77-1.74-5.77-5.45V32.75c0-3.56,2.49-5.45,5.77-5.45s5.77,1.68,5.77,5.34V43.05a4.82,4.82,0,0,1-1.28,3.57l2,1.33-2.3,2.85Zm1-5.28V32.55a2,2,0,0,0-2.12-2.06,1.91,1.91,0,0,0-2,2.12V43.2a2.08,2.08,0,1,0,4.15,0Z"/><path class="cls-5" d="M156,43.31V27.62h3.72V43.14a2,2,0,0,0,2,2.26c1.3,0,2-.9,2-2.23V27.62h3.48V43.2c0,3.48-2.41,5.42-5.69,5.42S156,46.94,156,43.31Z"/><path class="cls-5" d="M170.18,43.14V32.75c0-3.56,2.49-5.45,5.77-5.45s5.75,1.68,5.75,5.34V43.05c0,3.74-2.56,5.54-5.78,5.54C172.5,48.59,170.18,46.85,170.18,43.14Zm7.8.06V32.55a2,2,0,1,0-4.09.06V43.2a2,2,0,1,0,4.09,0Z"/><path class="cls-5" d="M187.5,30.72h-3.92v-3.1h11.49v3.1h-3.89V48.3H187.5Z"/><path class="cls-5" d="M197.57,27.62h9.48v3.1h-5.86v5.34h4.67v3.13h-4.67v6h5.89V48.3h-9.51Z"/></g></g></g></svg>