<svg id="Layer_1" data-name="Layer 1" xmlns="http://www.w3.org/2000/svg" xmlns:xlink="http://www.w3.org/1999/xlink" viewBox="0 0 728 90"><defs><style>.cls-1{fill:none;}.cls-2{clip-path:url(#clip-path);}.cls-3{clip-path:url(#clip-path-2);}.cls-4{fill:#f57d20;}.cls-5{fill:#fff;}.cls-6{clip-path:url(#clip-path-5);}</style><clipPath id="clip-path"><rect class="cls-1" x="-748" width="728" height="90"/></clipPath><clipPath id="clip-path-2"><rect class="cls-1" width="728" height="90"/></clipPath><clipPath id="clip-path-5"><rect class="cls-1" x="748" width="728" height="90"/></clipPath></defs><title>slide4_NZ</title><g class="cls-3"><g class="cls-3"><g class="cls-3"><path class="cls-4" d="M78.63,50.84A5.84,5.84,0,1,0,72.76,45a5.81,5.81,0,0,0,5.87,5.84"/></g><path class="cls-4" d="M192.72,30.78V24.42c0-2.9,2.24-4.53,5.16-4.53s5.24,1.59,5.24,4.48v6.41c0,2.69-2.37,4.33-5.2,4.33S192.72,33.56,192.72,30.78Zm6.8.08V24.13a1.5,1.5,0,0,0-1.64-1.51,1.46,1.46,0,0,0-1.6,1.51v6.73a1.62,1.62,0,0,0,3.24,0Zm10.71-10.61h2.87L200.25,49.51h-2.92Zm-3.14,25.34v-6.2c0-2.9,2.23-4.69,5.19-4.69s5.25,1.63,5.25,4.49v6.36c0,2.65-2.46,4.37-5.25,4.37S207.09,48.37,207.09,45.59Zm6.79.08V38.9a1.46,1.46,0,0,0-1.6-1.47,1.41,1.41,0,0,0-1.55,1.47v6.77a1.38,1.38,0,0,0,1.55,1.51A1.45,1.45,0,0,0,213.88,45.67Z"/><path class="cls-4" d="M219.64,24l.79-1.05-1.21-.63.43-.63,1.1.56V21.13h.84v1.15l1.1-.57.43.63-1.23.63L222.7,24l-.7.4-.82-1.07-.84,1.07Z"/><path class="cls-4" d="M94.31,53.84V51.36H102v2.73c0,2.35,1.17,3.93,3.59,3.93s3.79-1.39,3.79-6.72-2.69-6.41-5-6.41H101V38.3h3.51c3,0,4.48-1.51,4.48-6.47,0-4.6-1.51-5.93-3.58-5.93-2.34,0-3.24,1.63-3.24,4v2.54H94.52V30c0-6.53,4.13-10.34,11.58-10.34,6.75,0,11,4,11,11.19,0,4.84-1.59,9.07-5.93,10.34v.24c4.55,1.33,6.62,5.33,6.62,10,0,8.9-5.72,12.59-11.79,12.59C97.34,64.07,94.31,59.53,94.31,53.84Z"/><path class="cls-4" d="M122.71,54.63h7.72v8.83h-7.72Z"/><path class="cls-4" d="M136,55.05V51.67h7.79v2.9a3.07,3.07,0,0,0,3.38,3.27,3.3,3.3,0,0,0,3.65-3.51V44a8.65,8.65,0,0,1-6.69,2.85c-5.44,0-8.61-2.91-8.61-7.44V29.1c0-5.74,4.75-9.43,11.92-9.43s11.86,3.93,11.86,9.8v24c0,6.53-4.9,10.65-11.93,10.65S136,60.5,136,55.05Zm14.82-16.93v-9.2a3.59,3.59,0,0,0-7.17.12v9.62c0,2.06,1.59,3,3.38,3A3.65,3.65,0,0,0,150.83,38.12Z"/><path class="cls-4" d="M164.89,55.05V51.67h7.79v2.9a3.06,3.06,0,0,0,3.37,3.27,3.3,3.3,0,0,0,3.66-3.51V44A8.66,8.66,0,0,1,173,46.83c-5.44,0-8.61-2.91-8.61-7.44V29.1c0-5.74,4.75-9.43,11.92-9.43s11.85,3.93,11.85,9.8v24c0,6.53-4.89,10.65-11.92,10.65S164.89,60.5,164.89,55.05Zm14.82-16.93v-9.2a3.59,3.59,0,0,0-7.17.12v9.62c0,2.06,1.58,3,3.38,3A3.65,3.65,0,0,0,179.71,38.12Z"/><path class="cls-5" d="M227.37,37.41V29.9c0-2.27,2.17-3.57,5-3.57,2.65,0,4.62,1.24,4.62,3.31v1.58H234.1V29.88c0-.84-.65-1.37-1.74-1.37s-1.76.59-1.76,1.45v7.31c0,1,.65,1.49,1.79,1.49s1.71-.53,1.71-1.33V36.09H237v1.48C237,39.7,235,41,232.34,41,229.43,41,227.37,39.8,227.37,37.41Z"/><path class="cls-5" d="M238.82,37.23V30.08c0-2.45,2.17-3.75,5-3.75s5,1.16,5,3.67v7.17c0,2.57-2.22,3.81-5,3.81C240.84,41,238.82,39.78,238.82,37.23Zm6.79,0V29.94c0-.88-.68-1.41-1.79-1.41s-1.77.59-1.77,1.45v7.29c0,.86.61,1.49,1.8,1.49S245.61,38.11,245.61,37.27Z"/><path class="cls-5" d="M251,26.55h4l2.17,5.79h.05l2.22-5.79h3.84V40.78h-2.83V30.46h-.05l-2.17,6h-2.17l-2.22-6h-.05v10.3H251Z"/><path class="cls-5" d="M265.68,26.55h5.07c3,0,4.34,1.58,4.34,4.29s-1.36,4.61-4.46,4.61h-1.77v5.33h-3.18Zm4.49,6.83c1.21,0,1.82-.82,1.82-2.48,0-1.46-.5-2.25-1.77-2.25h-1.36v4.73Z"/><path class="cls-5" d="M279,26.53h4.34l3.51,14.25h-3.2l-.84-3.45h-3.71l-.8,3.45h-3Zm3.31,8.76-1.29-5.91H281l-1.34,5.91Z"/><path class="cls-5" d="M288.62,26.55h4.88c3,0,4.71,1.34,4.71,4.15,0,2-.85,3.23-2.19,3.73l2.4,6.35h-3.31l-2-5.79H291.8v5.79h-3.18Zm4.62,6.57c1.14,0,1.77-.68,1.77-2.24,0-1.38-.53-2.21-1.79-2.21H291.8v4.45Z"/><path class="cls-5" d="M300.36,26.55h3.18V40.78h-3.18Z"/><path class="cls-5" d="M305.44,37l3-.08c.13,1,.48,2,1.77,2a1.36,1.36,0,0,0,1.49-1.49c0-.8-.63-1.48-1.67-2.28l-1.79-1.48c-1.54-1.17-2.5-2.33-2.5-3.83,0-1.91,1.52-3.55,4.55-3.55,2.19,0,4.16.92,4.31,3.85l-2.8.08c-.15-1.12-.53-1.89-1.67-1.89a1.28,1.28,0,0,0-1.43,1.33c0,.78.95,1.52,1.84,2.22l1.66,1.34c1.67,1.29,2.6,2.51,2.6,4.09,0,2.05-1.71,3.65-4.62,3.65S305.61,39.48,305.44,37Z"/><path class="cls-5" d="M316.47,37.23V30.08c0-2.45,2.17-3.75,5-3.75s5,1.16,5,3.67v7.17c0,2.57-2.23,3.81-5,3.81C318.48,41,316.47,39.78,316.47,37.23Zm6.78,0V29.94c0-.88-.68-1.41-1.79-1.41s-1.76.59-1.76,1.45v7.29c0,.86.6,1.49,1.79,1.49S323.25,38.11,323.25,37.27Z"/><path class="cls-5" d="M328.66,26.55h3.28l4,8.22H336V26.55h2.83V40.78H336l-4.42-9.12h0v9.12h-2.82Z"/><path class="cls-5" d="M227.57,44.35h4.87c3,0,4.72,1.34,4.72,4.15,0,2-.86,3.24-2.2,3.73l2.4,6.35h-3.31l-2-5.79h-1.33v5.79h-3.18Zm4.62,6.57c1.13,0,1.76-.68,1.76-2.24,0-1.38-.53-2.21-1.79-2.21h-1.41v4.45Z"/><path class="cls-5" d="M242.33,44.33h4.34l3.51,14.25H247l-.84-3.45h-3.71l-.8,3.45h-3Zm3.31,8.76-1.29-5.91h-.07l-1.34,5.91Z"/><path class="cls-5" d="M253.54,46.49h-3.41V44.35h10v2.14h-3.38V58.58h-3.21Z"/><path class="cls-5" d="M261.79,44.35h8.26v2.14H265v3.67H269v2.15H265v4.12h5.12v2.15h-8.28Z"/><path class="cls-5" d="M362.78,34.17V23.69c0-3.6,3.72-5.5,8.61-5.5s8.57,1.7,8.57,5.39v10.5c0,3.78-3.81,5.59-8.61,5.59C366.24,39.67,362.78,37.92,362.78,34.17Zm11.64.06V23.49c0-1.29-1.17-2.08-3.07-2.08s-3,.88-3,2.14V34.23c0,1.26,1,2.19,3.07,2.19S374.42,35.46,374.42,34.23Z"/><path class="cls-5" d="M383.68,18.51h5.62l6.84,12.06h.13V18.51h4.85V39.38h-4.94L388.61,26h-.08V39.38h-4.85Z"/><path class="cls-5" d="M411.46,18.51h9.26c4.37,0,6.92,1.73,6.92,5.3a4.62,4.62,0,0,1-4.06,4.86v.12c2.72.46,4.24,2.16,4.24,4.74,0,4-2.82,5.85-6.88,5.85h-9.48Zm7.79,8.81c1.86,0,3-.93,3-3,0-1.93-1-2.78-2.64-2.78h-2.72v5.82Zm.34,9c1.78,0,2.73-1.12,2.73-3.08s-1.17-2.95-3-2.95h-2.42v6Z"/><path class="cls-5" d="M431.11,34.17V23.69c0-3.6,3.72-5.5,8.61-5.5s8.57,1.7,8.57,5.39v10.5c0,3.78-3.81,5.59-8.62,5.59C434.57,39.67,431.11,37.92,431.11,34.17Zm11.64.06V23.49c0-1.29-1.17-2.08-3.08-2.08s-3,.88-3,2.14V34.23c0,1.26,1,2.19,3.07,2.19S442.75,35.46,442.75,34.23Z"/><path class="cls-5" d="M456.81,18.48h7.44l6,20.9h-5.5l-1.43-5.06H457l-1.38,5.06h-5.06Zm5.67,12.85-2.21-8.66h-.13l-2.29,8.66Z"/><path class="cls-5" d="M476,21.65h-5.84V18.51h17.14v3.14h-5.8V39.38H476Z"/><path class="cls-5" d="M496.45,18.51h8.7c5.06,0,7.44,2.32,7.44,6.3,0,4.18-2.34,6.76-7.66,6.76h-3v7.81h-5.45Zm7.7,10c2.08,0,3.12-1.2,3.12-3.63,0-2.13-.87-3.3-3-3.3H501.9v6.93Z"/><path class="cls-5" d="M519.34,18.48h7.44l6,20.9h-5.5l-1.42-5.06h-6.37l-1.38,5.06h-5.06ZM525,31.33l-2.21-8.66h-.13l-2.29,8.66Z"/><path class="cls-5" d="M535.05,34.44v-11c0-3.34,3.72-5.24,8.57-5.24,4.54,0,7.92,1.82,7.92,4.86v2.31H546.6v-2c0-1.23-1.12-2-3-2-2.12,0-3,.88-3,2.14V34.23c0,1.43,1.12,2.19,3.07,2.19s2.94-.79,2.94-2v-2h4.94v2.17c0,3.13-3.33,5-8,5C538.6,39.67,535.05,38,535.05,34.44Z"/><path class="cls-5" d="M555,18.51h5.46V28l6.36-9.49h5.41l-5.63,8.11,5.71,12.76h-5.84l-3.89-9.63-2.12,2.69v6.94H555Z"/><path class="cls-5" d="M580.44,18.48h7.45l6,20.9h-5.49L587,34.32h-6.36l-1.39,5.06h-5.06Zm5.67,12.85-2.2-8.66h-.13l-2.3,8.66Z"/><path class="cls-5" d="M596.15,34.38v-11c0-3.31,3.68-5.24,8.53-5.24,4.54,0,8.22,1.73,8.22,4.77v2.23h-5V23.25c0-1.19-1.3-1.93-3.12-1.93-2.07,0-3.07.94-3.07,2.23V34.29c0,1.34,1.08,2.19,3.07,2.19s2.9-.82,2.9-2V31.16h-3.37V28.35h8.65V34.7c0,3.13-3.15,5-8.18,5S596.15,37.89,596.15,34.38Z"/><path class="cls-5" d="M616.62,18.51h14.15v3.14H622V27h7v3.16h-7v6h8.79v3.16h-14.2Z"/><path class="cls-5" d="M632.94,33.88l5.1-.12c.22,1.44.82,2.93,3,2.93,1.95,0,2.55-1.14,2.55-2.2s-1.08-2.16-2.85-3.33L637.7,29c-2.64-1.73-4.29-3.42-4.29-5.62,0-2.81,2.6-5.21,7.79-5.21,3.77,0,7.14,1.35,7.4,5.65l-4.8.12c-.26-1.64-.91-2.78-2.86-2.78-1.6,0-2.47.82-2.47,2s1.65,2.22,3.16,3.25l2.86,2c2.86,1.9,4.46,3.69,4.46,6,0,3-3,5.35-7.92,5.35S633.24,37.48,632.94,33.88Z"/><path class="cls-5" d="M362.78,59.42V49c0-3.6,3.72-5.51,8.61-5.51s8.57,1.7,8.57,5.39V59.34c0,3.77-3.81,5.59-8.61,5.59C366.24,64.93,362.78,63.17,362.78,59.42Zm11.64.06V48.74c0-1.29-1.17-2.08-3.07-2.08s-3,.88-3,2.14V59.48c0,1.26,1,2.2,3.07,2.2S374.42,60.71,374.42,59.48Z"/><path class="cls-5" d="M383.68,43.77H392c5.11,0,8.09,2,8.09,6.08,0,3-1.47,4.74-3.76,5.48l4.11,9.3H394.8l-3.38-8.48h-2.29v8.48h-5.45Zm7.92,9.62c1.94,0,3-1,3-3.27,0-2-.91-3.25-3.08-3.25h-2.42v6.52Z"/><path class="cls-5" d="M410.12,43.77h8.35c5.11,0,8.09,2,8.09,6.08,0,3-1.47,4.74-3.76,5.48l4.11,9.3h-5.67l-3.37-8.48h-2.3v8.48h-5.45ZM418,53.39c1.95,0,3-1,3-3.27,0-2-.91-3.25-3.07-3.25h-2.43v6.52Z"/><path class="cls-5" d="M430.24,43.77h14.15V46.9h-8.74v5.38h7v3.16h-7v6h8.79v3.16h-14.2Z"/><path class="cls-5" d="M447.9,43.77h8.7c5.06,0,7.44,2.31,7.44,6.29,0,4.18-2.34,6.76-7.66,6.76h-3v7.81H447.9Zm7.7,10c2.08,0,3.12-1.19,3.12-3.62,0-2.14-.87-3.31-3-3.31h-2.34v6.93Z"/><path class="cls-5" d="M467.2,59.42V49c0-3.6,3.72-5.51,8.61-5.51s8.57,1.7,8.57,5.39V59.34c0,3.77-3.81,5.59-8.61,5.59C470.66,64.93,467.2,63.17,467.2,59.42Zm11.64.06V48.74c0-1.29-1.17-2.08-3.07-2.08s-3,.88-3,2.14V59.48c0,1.26,1,2.2,3.07,2.2S478.84,60.71,478.84,59.48Z"/><path class="cls-5" d="M486.41,43.77h5.41l2.55,13.17h.09l2.94-13.17h5.24l2.81,13.11h.09l2.51-13.11h4.84l-4.8,21H503l-3.11-14h-.17l-3.21,14H491.3Z"/><path class="cls-5" d="M515.58,43.77h14.15V46.9H521v5.38h7v3.16h-7v6h8.78v3.16H515.58Z"/><path class="cls-5" d="M533.23,43.77h8.35c5.11,0,8.1,2,8.1,6.08,0,3-1.47,4.74-3.77,5.48l4.11,9.3h-5.67L541,56.15h-2.29v8.48h-5.46Zm7.92,9.62c2,0,3-1,3-3.27,0-2-.91-3.25-3.07-3.25h-2.42v6.52Z"/></g></g></svg>