<svg xmlns="http://www.w3.org/2000/svg" viewBox="0 0 368.23 59.66"><defs><style>.cls-1{fill:#fff;}</style></defs><title>atC</title><g id="Layer_2" data-name="Layer 2"><g id="Layer_1-2" data-name="Layer 1"><path class="cls-1" d="M36.1,52.1a14.68,14.68,0,0,0,1.45,6.43H22.91A13.38,13.38,0,0,1,22.19,54L22,53.87c-1.85,4.26-5.79,5.79-10.21,5.79C3.54,59.66,0,55.23,0,46.79c0-9.65,4.5-12.3,10.37-13.67l7.24-1.68c3.21-.73,4.34-1.69,4.34-4.51,0-2.17-1.29-3.37-3-3.37-3.29,0-3.77,2.49-3.77,5H1.53c0-9.81,5.14-14.63,17.52-14.63,14.23,0,17.05,5.79,17.05,12.54ZM22,37.47a20.33,20.33,0,0,1-3.86,1.68c-2.57,1-3,3-3,5.55s1,4.34,3.14,4.34c3.06,0,3.7-2.81,3.7-5.3Z"/><path class="cls-1" d="M43.66,2.25H59.25V15h5.47V25.17H59.25V44.54c0,2.81.41,4,3,4a9.12,9.12,0,0,0,2.49-.24V58.69c-1.28.16-5.39.48-7.72.48-8.92,0-13.34-.32-13.34-10.13V25.17H38.91V15h4.75Z"/><path class="cls-1" d="M111.27,17.69c0-2.49,0-7.08-3.29-7.08-4.19,0-4.35,2.9-4.35,19.22C103.63,46.63,104,49,108,49c2.57,0,3.61-2.57,3.61-9.72V34.89h15.6v3.62c0,13.43-5.39,21.15-19.46,21.15-20.66,0-20.66-11.5-20.66-29.83,0-17.77,0-29.83,20.66-29.83,17.13,0,19.14,9.25,19.14,18.17v4.18h-15.6Z"/><path class="cls-1" d="M131.69,1.13h24.12c11.1,0,15.84,5.46,15.84,15,0,9.17-3.94,13-9.57,13.83v.16a9.36,9.36,0,0,1,7.64,4.58c1.45,2.57,1.53,6.43,1.53,9.81v4.74c0,3.22.32,5.95.72,6.76a3.55,3.55,0,0,0,1.69,1.69v.8h-17c-1.05-1.29-1.21-5.47-1.21-8.28s-.24-5.71-.24-8.52c0-4.91-1.61-5.79-4.42-5.79h-3V58.53H131.69Zm16.08,24.2h2.33c2.66,0,5.47-1.21,5.47-6.76,0-4.74-2.33-5.87-5.95-5.87h-1.85Z"/><path class="cls-1" d="M203.09,49.77H192.31l-1.6,8.76H174.14l13.59-57.4h20.18l13.51,57.4H204.86Zm-5.23-36.1h-.16L194,37.22h7.32Z"/><path class="cls-1" d="M223.19,1.13h16.08v57.4H223.19Z"/><path class="cls-1" d="M264.43,27.26h19.7V58.53H273l-.4-4.66h-.16c-2.73,5.06-7.15,5.79-11.82,5.79-16.32,0-16.8-14.32-16.8-29.75,0-16.4.88-29.91,20.5-29.91,15.92,0,19.38,8,19.38,19.46H268.53V17.13c0-4.27-1-6.52-4.1-6.52-3.86,0-4.1,3.62-4.1,7.08V41.33c0,3.53.32,7.71,4.18,7.71s4.5-3,4.5-7.23V37.87h-4.58Z"/><path class="cls-1" d="M288.63,1.13h16.08v57.4H288.63Z"/><path class="cls-1" d="M310.18,1.13h34.57v13H326.26V23h17.29V35.54H326.26v10h19.22v13h-35.3Z"/><path class="cls-1" d="M353.11,1.13h15.12V20.42L366.7,41.33H354.64l-1.53-20.91ZM353.35,45H368V58.53H353.35Z"/></g></g></svg>