<svg xmlns="http://www.w3.org/2000/svg" viewBox="0 0 303.54 68.31"><defs><style>.cls-1{fill:#00b5d1;}.cls-2{fill:#fff;}</style></defs><title>cta</title><g id="Layer_2" data-name="Layer 2"><g id="Layer_1-2" data-name="Layer 1"><rect class="cls-1" width="303.54" height="68.31"/><path class="cls-2" d="M18.64,12.57H25.7V50.85H42.8V56.8H18.64Z"/><path class="cls-2" d="M52.27,41v1.92c0,4.46.56,10.16,5.58,10.16,4.76,0,5.32-5.45,5.32-7.43h6.32c0,7.37-4.46,12-11.71,12-5.45,0-12.2-1.61-12.2-17,0-8.73,1.86-18,12.33-18,9.29,0,11.77,5.57,11.77,14.86V41ZM63,36.42v-1.8c0-4.21-1.37-7.43-5.14-7.43-4.28,0-5.58,4.21-5.58,8.55v.68Z"/><path class="cls-2" d="M97.05,49.86c0,1.24.74,2.35,1.74,2.35A2.86,2.86,0,0,0,99.9,52v4.33a8,8,0,0,1-3.28.81c-3,0-5.45-1.18-5.64-4.4h-.12a8.68,8.68,0,0,1-8.3,4.89c-5.33,0-8.67-3-8.67-9.35,0-7.43,3.22-9,7.74-10.47l5.2-1.42c2.42-.68,3.9-1.36,3.9-4.27s-1-5-4.58-5c-4.46,0-5.08,3.16-5.08,6.38H74.75c0-7.06,2.92-11,11.71-11,5.88,0,10.59,2.29,10.59,8.17ZM90.73,39.21C89,40.57,85.28,41.37,83.3,42.3s-2.72,2.91-2.72,5.39c0,2.79,1.36,5,4.15,5,4,0,6-3,6-7.93Z"/><path class="cls-2" d="M103.86,23.47h6.69v5.21h.13c1.48-3.72,4-6.07,7.74-6.07a5,5,0,0,1,1.61.25v6.81a12.27,12.27,0,0,0-2.79-.37c-3,0-6.69,1.36-6.69,7.55V56.8h-6.69Z"/><path class="cls-2" d="M123.93,23.47h6.32v3.91h.18A9.55,9.55,0,0,1,139,22.61c5.08,0,8.3,2.29,8.3,9V56.8h-6.69V33.94c0-4.33-1.3-6-4.64-6-2.73,0-5.33,2.17-5.33,6.51V56.8h-6.69Z"/><path class="cls-2" d="M168.89,23.47h6.32v3.91h.19a9.31,9.31,0,0,1,8-4.77c4.77,0,6.75,2.29,7.74,5.08,1.92-3.22,4.4-5.08,8.42-5.08,4.71,0,8.12,2.41,8.12,8.85V56.8H201V33.94c0-4.33-1.3-6-4-6s-5.32,2.17-5.32,6.51V56.8h-6.69V33.94c0-4.33-1.3-6-4.09-6s-5.27,2.17-5.27,6.51V56.8h-6.69Z"/><path class="cls-2" d="M225.5,22.61c9.73,0,12.45,7.18,12.45,17.53s-3.16,17.52-12.45,17.52-12.38-7.18-12.38-17.52S215.84,22.61,225.5,22.61Zm0,30.1c4.9,0,5.76-4.09,5.76-12.57,0-7.38-.86-12.58-5.76-12.58s-5.69,5.2-5.69,12.58C219.81,48.62,220.67,52.71,225.5,52.71Z"/><path class="cls-2" d="M243.09,23.47h6.69v5.21h.13c1.48-3.72,4-6.07,7.74-6.07a5,5,0,0,1,1.61.25v6.81a12.27,12.27,0,0,0-2.79-.37c-3,0-6.69,1.36-6.69,7.55V56.8h-6.69Z"/><path class="cls-2" d="M268.05,41v1.92c0,4.46.56,10.16,5.58,10.16,4.77,0,5.32-5.45,5.32-7.43h6.32c0,7.37-4.46,12-11.71,12-5.45,0-12.2-1.61-12.2-17,0-8.73,1.86-18,12.33-18,9.29,0,11.77,5.57,11.77,14.86V41Zm10.72-4.58v-1.8c0-4.21-1.36-7.43-5.14-7.43-4.28,0-5.58,4.21-5.58,8.55v.68Z"/></g></g></svg>