<svg xmlns="http://www.w3.org/2000/svg" xmlns:xlink="http://www.w3.org/1999/xlink" viewBox="0 0 211.49 43.85"><defs><style>.cls-1{fill:none;}.cls-2,.cls-3{fill:#fff;}.cls-3{fill-rule:evenodd;}.cls-4{clip-path:url(#clip-path);}</style><clipPath id="clip-path" transform="translate(0)"><rect class="cls-1" width="211.49" height="43.85"/></clipPath></defs><title>logo</title><g id="Layer_2" data-name="Layer 2"><g id="Layer_1-2" data-name="Layer 1"><polygon class="cls-2" points="56.59 23.26 56.48 23.28 56.48 23.61 56.4 23.63 56.24 23.54 56.22 23.58 56.24 23.86 56.01 23.77 55.94 24.07 55.92 24.14 55.79 24.57 55.73 24.64 55.55 25.27 55.42 25.64 55.06 26.51 54.99 26.81 54.91 26.93 54.6 28.08 54.3 29.28 54.2 29.53 54.17 29.81 54.11 29.9 53.81 31.1 53.68 31.72 53.66 31.79 53.42 33.06 53.35 33.2 53.29 33.8 53.12 34.65 53.07 34.79 52.92 36.24 52.95 36.7 52.92 36.98 52.92 37.07 52.95 37.49 52.95 37.7 53.05 37.95 53.07 38.18 53.14 38.27 53.35 38.85 53.42 38.92 53.51 39.24 53.66 39.43 53.68 39.54 53.96 39.77 54.54 40.07 55.19 40.3 55.7 40.37 56.09 40.42 56.63 40.47 58.1 40.4 59.28 40.3 59.65 40.23 60.15 40.23 60.36 40.09 60.58 40.14 60.79 40 61.01 40.03 61.63 39.87 61.89 39.77 62 39.77 62.41 39.54 62.87 39.38 63.3 39.24 63.49 39.06 63.84 38.92 64.14 38.92 64.38 38.83 64.44 38.73 64.55 38.73 64.78 38.57 64.81 38.48 64.33 38.41 63.66 38.3 63.1 38.18 60.53 37.86 60.32 37.88 60.08 38.02 59.8 37.97 59.41 37.97 59.33 38.04 58.66 38.09 58.25 38.04 58.16 37.93 57.71 37.93 57.06 37.97 56.7 38.04 55.75 38.04 55.58 38.02 55.34 38.02 55.06 37.88 54.91 37.54 54.84 37.14 54.93 36.77 54.97 36.36 55.06 35.9 55.21 35.48 55.27 35.27 55.34 35.21 55.51 34.86 55.49 34.56 55.55 34.49 55.51 34.35 55.6 34.19 55.66 34.19 55.86 33.87 55.94 33.68 56.09 33.59 56.09 33.36 56.24 32.97 56.37 32.74 56.44 32.35 56.67 32.05 56.74 31.86 56.7 31.72 56.85 31.4 57.04 31.01 57.06 30.75 57.28 30.59 57.34 30.23 57.43 29.99 57.52 29.6 57.62 29.58 57.69 29.42 57.86 28.66 58.03 27.8 58.08 27.48 58.21 26.81 58.16 26.07 58.14 26.03 57.95 25.27 57.77 24.62 57.62 24.23 57.04 23.44 56.7 23.26 56.59 23.26"/><polygon class="cls-2" points="68.26 25.01 67.65 25.08 67.22 25.22 66.96 25.4 66.88 25.54 66.7 25.7 66.49 25.82 66.36 25.87 66.03 26 65.82 26.16 65.78 26.16 65.39 26.42 65.39 26.6 65.3 26.79 65.37 26.9 65.22 27 65.22 27.07 64.96 27.18 65.04 27.34 65.26 27.59 65.6 27.89 65.78 28.03 65.65 28.59 65.6 28.61 65.43 29.23 65.19 29.95 65.17 30.2 65.13 30.41 64.96 30.85 64.96 30.94 64.91 31.19 64.76 31.75 64.72 31.95 64.5 33.02 64.42 33.66 64.38 33.94 64.29 34.31 64.29 34.77 64.33 34.86 64.22 35.11 64.22 35.44 64.27 36.2 64.33 36.61 64.33 36.75 64.44 37.47 64.5 37.54 64.61 37.88 64.85 38.27 64.96 38.6 65.11 38.78 65.3 38.99 65.34 39.08 65.71 39.34 66.1 39.54 67.24 39.87 67.59 39.89 68.13 39.91 69.01 39.82 69.08 39.77 69.27 39.77 69.4 39.7 69.79 39.52 70.03 39.45 70.03 39.38 70.15 39.36 70.33 39.24 70.41 39.27 70.54 39.15 70.76 38.97 70.76 38.9 70.86 38.9 71 38.78 71.36 38.6 71.56 38.5 71.62 38.3 71.77 38.2 72.14 37.91 72.7 37.42 73.02 36.98 73.02 36.91 73.37 36.45 73.32 36.34 72.46 36.61 71.77 36.75 71.04 36.98 69.83 37.17 69.4 37.28 68.06 37.47 67.5 37.47 67.16 37.44 66.94 37.28 66.83 36.98 66.83 36.73 66.81 36.52 66.81 35.48 66.9 35.32 67.05 34.45 67.11 34.19 67.31 33.18 67.67 33.13 68 33.11 69.2 32.9 69.61 32.76 70.35 32.51 70.95 32.37 71.04 32.21 71.17 32.23 71.38 32.09 71.81 31.77 71.97 31.47 71.97 31.4 71.88 31.38 71.77 31.31 71.53 31.29 71.36 31.22 70.84 31.15 69.7 31.1 68.58 31.12 67.89 31.24 67.8 31.22 67.85 31.01 67.89 30.82 68.06 30.5 68.23 29.83 68.64 28.84 68.77 28.77 68.84 28.66 69.27 28.5 69.68 28.33 70 28.24 70.46 28.22 70.54 28.13 70.72 28.08 71.1 27.99 71.51 27.85 71.64 27.71 71.86 27.62 72.09 27.43 72.48 27.34 72.48 27.3 72.74 27.16 72.83 27.18 73.45 27.09 73.54 27 73.65 27.04 73.71 26.95 73.82 27 74.1 26.77 74.42 26.67 74.47 26.67 74.55 26.58 74.66 26.63 74.94 26.53 74.94 26.4 75.03 26.26 75.09 26.14 75.22 26.21 75.31 26.14 75.7 26.16 75.85 26.1 76.34 26.14 76.45 26.07 76.67 26.05 77.03 25.96 77.06 25.77 77.03 25.61 76.95 25.61 76.45 25.52 75.52 25.43 73.73 25.24 73.28 25.17 72.18 25.13 71.62 25.13 71.12 25.01 70.24 25.01 69.61 25.06 69.23 25.13 68.82 25.13 68.58 25.08 68.49 25.08 68.26 25.01"/><polygon class="cls-2" points="79.45 24.23 78.93 24.41 78.69 24.67 78.63 24.73 78.46 24.92 78.41 24.99 78.28 25.2 78.22 25.4 78.11 25.47 77.85 26.05 77.64 26.46 77.64 26.67 77.49 26.95 77.31 27.3 77.29 27.55 77.16 27.89 77.03 28.13 76.97 28.29 76.95 28.66 76.78 29.46 76.75 29.56 76.6 30.18 76.52 30.64 76.39 31.22 76.28 31.56 76.21 32.07 76.17 32.3 76 33.29 75.85 33.89 75.78 34.91 75.76 35.02 75.67 35.83 75.65 36.43 75.63 36.84 75.63 38.25 75.7 38.41 75.7 38.83 75.67 39.06 75.67 39.22 75.74 39.91 75.83 40.12 75.78 40.3 76 41.64 76.21 41.83 76.28 41.78 76.34 41.57 76.45 41.06 76.56 40.4 76.69 40.16 76.75 39.77 76.75 39.63 76.78 39.22 76.82 38.9 76.86 38.37 77.1 37.51 77.16 37.21 77.29 36.66 77.33 36.43 77.38 36.17 77.55 35.76 77.57 35.28 77.77 34.81 77.92 33.96 78.22 32.85 78.59 31.42 79.17 29.63 79.51 28.54 79.86 27.71 80.1 26.88 80.2 26.16 80.35 25.47 80.2 24.78 80.01 24.46 79.62 24.25 79.45 24.23"/><polygon class="cls-2" points="90.97 27 91.07 26.7 91.01 26.42 90.94 26.19 90.81 25.82 90.69 25.38 90.06 24.99 89.63 24.92 89.35 24.92 89.13 25.01 88.98 25.01 88.77 25.22 88.55 25.31 88.38 25.5 88.25 25.54 88.03 25.82 87.3 26.28 86.61 26.77 86.39 27 86.2 27.07 85.51 27.53 84.99 27.94 84.56 28.24 83.61 28.93 83.24 29.26 82.86 29.65 82.36 30 82.04 30.32 81.48 30.92 81.28 31.24 81.07 31.49 80.85 31.95 80.85 32.21 80.72 32.44 80.57 32.65 80.57 33.59 80.66 33.94 80.74 34.26 81 34.65 81.43 35.12 81.73 35.34 82.1 35.74 82.42 35.92 82.79 36.04 82.88 36.13 83.37 36.22 84 36.45 84.54 36.59 84.65 36.68 85.01 36.82 85.14 36.82 85.29 36.98 85.51 37.05 85.94 37.33 86.16 37.44 86.46 37.6 86.91 37.93 87.23 38.04 87.58 38.32 87.8 38.53 87.99 38.67 88.08 38.8 88.18 38.9 88.27 39.03 88.36 39.17 88.33 39.38 88.4 39.52 88.38 39.73 88.33 39.94 88.14 40.1 87.97 40.21 87.77 40.21 87.56 40.44 87.36 40.49 87.26 40.47 87.08 40.49 86.93 40.49 86.69 40.53 86.61 40.6 86.39 40.6 86.05 40.63 85.9 40.72 85.79 40.72 85.29 40.77 85.16 40.83 84.69 40.83 84.39 40.86 84.13 40.88 83.46 40.95 83.39 40.99 82.99 41.11 82.62 41.16 82.36 41.2 82.06 41.2 81.63 41.27 81.39 41.34 81.37 41.39 81.37 41.41 81.43 41.39 81.52 41.43 81.58 41.43 81.69 41.55 81.82 41.5 81.84 41.55 81.97 41.5 81.97 41.48 82.12 41.5 82.19 41.43 82.34 41.55 82.42 41.71 82.51 41.71 82.62 41.78 82.64 41.71 82.64 41.59 82.7 41.57 82.79 41.66 82.88 41.64 82.92 41.66 83.03 41.66 83.16 41.73 83.39 41.73 83.98 41.87 84.19 41.87 84.58 41.92 85.01 41.94 85.85 42.01 86.5 42.01 87.1 41.92 87.54 41.8 87.8 41.73 88.03 41.62 88.57 41.37 89.11 40.88 89.3 40.44 89.33 40.23 89.35 40 89.39 39.68 89.33 39.27 89.22 38.85 88.96 38.41 88.72 38.07 88.44 37.79 88.2 37.56 88.01 37.37 87.49 36.77 86.98 36.43 86.63 36.13 86.09 35.83 86 35.71 85.57 35.41 85.36 35.32 85.08 35.16 84.78 34.93 84.24 34.61 84.09 34.49 83.37 33.94 83.29 33.68 83.24 33.2 83.37 32.67 83.63 32.12 83.96 31.79 84.22 31.7 84.41 31.42 84.71 31.17 84.82 31.03 85.19 30.75 85.62 30.36 85.98 30.09 86.05 29.97 86.35 29.81 86.5 29.65 86.65 29.58 86.85 29.46 87.08 29.39 87.34 29.28 87.51 29.12 87.86 29.03 88.14 28.82 88.55 28.54 89 28.36 89.5 28.06 89.82 27.83 90.12 27.64 90.47 27.46 90.77 27.27 90.97 27"/><polygon class="cls-2" points="101.83 23.98 101.73 24.16 101.62 24.2 101.64 24.32 101.53 25.06 101.47 25.15 101.31 25.61 100.73 27.2 100.69 27.36 100.5 28.01 100.17 28.84 100.17 29.12 100.09 29.26 100 29.44 99.72 30.36 99.14 32.16 98.69 33.59 98.47 34.28 98.47 34.38 97.89 35.95 97.43 36.94 97.11 37.56 96.7 37.93 96.53 38.04 96.25 38.04 96.12 38.02 95.82 37.84 95.21 37.42 94.8 36.73 94.69 36.34 94.61 35.51 94.74 34.12 95.04 32.74 95.41 31.29 95.86 30.06 96.05 29.32 96.27 28.56 96.27 28.33 96.33 28.15 96.44 27.9 96.44 27.5 96.27 27.04 95.97 26.72 95.52 26.58 95.23 26.58 95.21 26.67 95.06 26.77 94.83 26.77 94.52 26.97 94.11 27.36 93.9 27.55 93.51 28.27 93.36 28.47 92.93 29.19 92.91 29.35 92.65 29.88 92.58 30.13 92.39 30.52 91.96 31.93 91.91 32.19 91.83 32.35 91.68 33.2 91.68 33.98 91.63 34.22 91.63 34.72 91.7 35.48 91.83 35.83 92.17 36.98 92.56 37.79 92.95 38.32 93.59 39.1 94.35 39.68 95.13 40.12 95.86 40.33 96.38 40.4 96.61 40.37 97.13 40.37 97.52 40.17 97.74 40.17 98.17 40 98.3 39.84 98.51 39.61 98.66 39.59 98.92 39.31 99.09 38.99 99.29 38.74 99.55 38.44 99.66 38.23 99.72 37.79 99.87 37.84 100.02 37.67 100.06 37.47 100.15 37.14 100.22 36.75 100.32 35.99 100.45 35.58 100.5 35.16 100.52 34.7 100.5 34.56 100.5 34.28 100.6 33.62 100.69 33.38 100.75 33.38 100.88 32.88 100.88 32.6 100.95 32.19 101.01 32.05 101.04 31.56 100.97 31.22 101.01 30.87 101.19 30.59 101.19 30.34 101.31 30.11 101.38 29.6 101.42 29.49 101.42 29.26 101.55 28.7 101.64 28.17 101.62 27.85 101.73 27.39 101.73 27.2 101.68 26.81 101.79 26.51 101.77 26.35 101.9 26.12 101.94 25.61 101.94 25.45 101.92 25.22 102.01 24.87 102.01 24.16 101.92 23.98 101.83 23.98"/><path class="cls-3" d="M111.37,25.1l-.44.07-.56.23-.79.37-.67.42-.3.25-.5.37-.91.88-.21.14-.11,0h-.24l-.3-.11-.3-.21-.28,0-.22.07-.26,0-.21.23-.15.25v.12l-.22.55-.15.6,0,.19-.15.18v.14l-.24.48-.25.69-.46,1.71-.3,1.55-.58,2.07-.24,1.23,0,.23v.59l-.11.9,0,.19.09.16,0,.39.09.07.15.3.11,0,.54.56.23.07.22-.09h.15l0-.12L104,41l.09-.19h.3l.13-.27.15-.09,0-.1.09-.13.15-.51.15-.12.11-.18v-.09l.11-.14.21-.33.13-.3.07-.32.08-.16,0-.23.11-.3.09-.18.26-.93.15-.55.1-.51.13-.3.56.14,1.94.71.18.07.36.19,2,.71.48.1.81.3h.07l.37.09.21,0,.37.13.08.05.13-.09h.09l.19-.14,0-.16v0l.22,0V37l.43,0,.08,0,0-.07-.15-.14-.2-.07-1-.62-.88-.58-.58-.32-.61-.3-1.16-.55-1.86-.72-.58-.25v-.12l.15,0,.35-.23H109l.11-.14.58-.37.28-.09.37-.35h.09l.13-.07.25-.27.37-.28.19-.28.26-.18.84-.76.31-.19.15-.23.21-.25h.17l.13,0,.16-.18h.06l.37-.56.08-.48,0-.07,0-.3,0-.41-.17-.6-.17-.35-.54-.76-.41-.28-.39-.3-.41-.16Zm.36,2.29h.07l-.09.46-.15.39-.11.32-.19.37-.11.19-.11.09-.41.6-.45.51-.88.9-.22.16-.67.41-.88.39.3-.76.15-.18.22-.46.06-.12.3-.39.15-.44.15-.18.31-.44.21-.09V29l.43-.42.15-.23.24-.16.48-.3.25-.09.26-.23Z" transform="translate(0)"/><polygon class="cls-2" points="119.84 25.01 119.24 25.08 118.81 25.22 118.55 25.4 118.46 25.54 118.29 25.7 118.07 25.82 117.94 25.87 117.62 26 117.4 26.16 117.36 26.16 116.97 26.42 116.97 26.6 116.89 26.79 116.95 26.9 116.8 27 116.8 27.07 116.54 27.18 116.63 27.34 116.84 27.59 117.19 27.89 117.36 28.03 117.23 28.59 117.19 28.61 117.02 29.23 116.78 29.95 116.76 30.2 116.71 30.41 116.54 30.85 116.54 30.94 116.5 31.19 116.35 31.75 116.3 31.95 116.09 33.02 116 33.66 115.96 33.94 115.87 34.31 115.87 34.77 115.92 34.86 115.81 35.11 115.81 35.44 115.85 36.2 115.92 36.61 115.92 36.75 116.02 37.47 116.09 37.54 116.2 37.88 116.43 38.27 116.54 38.6 116.69 38.78 116.89 38.99 116.93 39.08 117.3 39.34 117.68 39.54 118.83 39.87 119.17 39.89 119.71 39.91 120.59 39.82 120.66 39.77 120.85 39.77 120.98 39.7 121.37 39.52 121.61 39.45 121.61 39.38 121.74 39.36 121.91 39.24 122 39.27 122.13 39.15 122.34 38.97 122.34 38.9 122.45 38.9 122.58 38.78 122.95 38.6 123.14 38.5 123.2 38.3 123.36 38.2 123.72 37.91 124.28 37.42 124.61 36.98 124.61 36.91 124.95 36.45 124.91 36.34 124.05 36.61 123.36 36.75 122.62 36.98 121.42 37.17 120.98 37.28 119.65 37.47 119.09 37.47 118.74 37.44 118.53 37.28 118.42 36.98 118.42 36.73 118.4 36.52 118.4 35.48 118.48 35.32 118.63 34.45 118.7 34.19 118.89 33.18 119.26 33.13 119.58 33.11 120.79 32.9 121.2 32.76 121.93 32.51 122.54 32.37 122.62 32.21 122.75 32.23 122.97 32.09 123.4 31.77 123.55 31.47 123.55 31.4 123.46 31.38 123.36 31.31 123.12 31.29 122.95 31.22 122.43 31.15 121.29 31.1 120.16 31.12 119.47 31.24 119.39 31.22 119.43 31.01 119.47 30.82 119.65 30.5 119.82 29.83 120.23 28.84 120.36 28.77 120.42 28.66 120.85 28.5 121.26 28.33 121.59 28.24 122.04 28.22 122.13 28.13 122.3 28.08 122.69 27.99 123.1 27.85 123.23 27.71 123.44 27.62 123.68 27.43 124.07 27.34 124.07 27.3 124.33 27.16 124.41 27.18 125.04 27.09 125.12 27 125.23 27.04 125.3 26.95 125.41 27 125.69 26.77 126.01 26.67 126.05 26.67 126.14 26.58 126.25 26.63 126.53 26.53 126.53 26.4 126.61 26.26 126.68 26.14 126.81 26.21 126.89 26.14 127.28 26.16 127.43 26.1 127.93 26.14 128.04 26.07 128.25 26.05 128.62 25.96 128.64 25.77 128.62 25.61 128.53 25.61 128.04 25.52 127.11 25.43 125.32 25.24 124.86 25.17 123.77 25.13 123.2 25.13 122.71 25.01 121.83 25.01 121.2 25.06 120.81 25.13 120.4 25.13 120.16 25.08 120.08 25.08 119.84 25.01"/><polygon class="cls-3" points="139.55 23.84 139.36 24.11 138.88 24.34 138.82 24.41 138.67 24.43 138.3 24.76 137.85 25.2 137.44 25.47 137.24 25.66 136.53 26.35 136.19 26.7 135.58 27.27 135.43 27.46 135.37 27.59 135.15 27.78 134.83 28.17 134.01 29.21 133.41 29.93 133.25 30.25 133.04 30.45 132.78 30.87 132.67 31.03 132.48 31.36 132.07 32.05 131.94 32.37 131.81 32.76 131.64 33.08 131.57 33.34 131.53 33.66 131.44 33.75 131.46 34.05 131.29 34.38 131.23 35.34 131.29 35.81 131.29 36.17 131.4 36.59 131.68 37.3 132.11 38 132.74 38.67 133.51 39.24 134.48 39.68 135.76 39.89 136.47 39.87 136.96 39.82 137.37 39.73 137.44 39.75 137.85 39.63 138.24 39.56 138.47 39.4 138.58 39.43 138.58 39.22 138.47 39.17 138.52 39.08 138.54 39.1 138.65 39.1 138.6 38.97 138.65 38.97 138.67 38.9 138.52 38.78 138.6 38.67 138.47 38.64 138.41 38.5 137.93 38.53 137.24 38.53 136.7 38.5 135.97 38.32 135.43 38.11 134.91 37.74 134.61 37.17 134.59 36.7 134.66 35.88 134.85 35.34 134.98 34.72 135.15 34.4 135.32 34.05 135.56 33.68 135.86 33.11 136.12 32.78 136.47 32.3 136.53 32.3 136.83 31.79 137.09 31.52 137.14 31.4 137.31 31.19 137.74 30.5 137.8 30.45 138.11 30.04 138.24 29.9 138.97 29.02 139.27 28.75 139.51 28.38 139.96 27.8 140.28 27.46 140.39 27.34 140.59 27.25 141.25 27.07 141.49 26.88 141.69 26.63 141.86 26.23 141.86 25.7 141.62 25.2 141.43 24.87 141.38 24.67 141.25 24.43 141.13 24.34 140.76 24.34 140.28 23.98 140.11 23.91 139.75 23.91 139.72 23.84 139.55 23.84"/><polygon class="cls-2" points="145.59 25.01 144.99 25.08 144.55 25.22 144.3 25.4 144.21 25.54 144.04 25.7 143.82 25.82 143.69 25.87 143.37 26 143.15 26.16 143.11 26.16 142.72 26.42 142.72 26.6 142.63 26.79 142.7 26.9 142.55 27 142.55 27.07 142.29 27.18 142.38 27.34 142.59 27.59 142.94 27.89 143.11 28.03 142.98 28.59 142.94 28.61 142.76 29.23 142.53 29.95 142.51 30.2 142.46 30.41 142.29 30.85 142.29 30.94 142.25 31.19 142.1 31.75 142.05 31.95 141.84 33.02 141.75 33.66 141.71 33.94 141.62 34.31 141.62 34.77 141.66 34.86 141.56 35.11 141.56 35.44 141.6 36.2 141.66 36.61 141.66 36.75 141.77 37.47 141.84 37.54 141.94 37.88 142.18 38.27 142.29 38.6 142.44 38.78 142.63 38.99 142.68 39.08 143.04 39.34 143.43 39.54 144.58 39.87 144.92 39.89 145.46 39.91 146.34 39.82 146.41 39.77 146.6 39.77 146.73 39.7 147.12 39.52 147.36 39.45 147.36 39.38 147.49 39.36 147.66 39.24 147.75 39.27 147.88 39.15 148.09 38.97 148.09 38.9 148.2 38.9 148.33 38.78 148.69 38.6 148.89 38.5 148.95 38.3 149.1 38.2 149.47 37.91 150.03 37.42 150.35 36.98 150.35 36.91 150.7 36.45 150.66 36.34 149.79 36.61 149.1 36.75 148.37 36.98 147.16 37.17 146.73 37.28 145.4 37.47 144.84 37.47 144.49 37.44 144.27 37.28 144.17 36.98 144.17 36.73 144.15 36.52 144.15 35.48 144.23 35.32 144.38 34.45 144.45 34.19 144.64 33.18 145.01 33.13 145.33 33.11 146.54 32.9 146.95 32.76 147.68 32.51 148.28 32.37 148.37 32.21 148.5 32.23 148.72 32.09 149.15 31.77 149.3 31.47 149.3 31.4 149.21 31.38 149.1 31.31 148.87 31.29 148.69 31.22 148.18 31.15 147.03 31.1 145.91 31.12 145.22 31.24 145.14 31.22 145.18 31.01 145.22 30.82 145.4 30.5 145.57 29.83 145.98 28.84 146.11 28.77 146.17 28.66 146.6 28.5 147.01 28.33 147.34 28.24 147.79 28.22 147.88 28.13 148.05 28.08 148.44 27.99 148.85 27.85 148.97 27.71 149.19 27.62 149.43 27.43 149.82 27.34 149.82 27.3 150.08 27.16 150.16 27.18 150.79 27.09 150.87 27 150.98 27.04 151.05 26.95 151.15 27 151.43 26.77 151.76 26.67 151.8 26.67 151.89 26.58 151.99 26.63 152.28 26.53 152.28 26.4 152.36 26.26 152.43 26.14 152.56 26.21 152.64 26.14 153.03 26.16 153.18 26.1 153.68 26.14 153.78 26.07 154 26.05 154.37 25.96 154.39 25.77 154.37 25.61 154.28 25.61 153.78 25.52 152.86 25.43 151.07 25.24 150.61 25.17 149.51 25.13 148.95 25.13 148.46 25.01 147.57 25.01 146.95 25.06 146.56 25.13 146.15 25.13 145.91 25.08 145.83 25.08 145.59 25.01"/><polygon class="cls-2" points="165.45 28.01 165.52 27.18 165.58 26.26 165.6 25.57 165.58 25.06 165.52 24.37 165.5 23.91 165.52 23.38 165.5 23.03 165.52 22.73 165.34 22.59 165.41 22.5 165.41 22.43 165.56 21.71 165.6 21.32 165.58 21.07 165.41 20.93 165.19 20.98 164.98 21.55 164.74 21.99 164.52 22.41 164.33 22.87 164.05 23.47 163.7 24.41 163.53 24.97 163.42 25.47 163.25 26.26 163.16 26.81 163.1 27.25 163.1 27.66 162.99 28.33 162.82 29.65 162.67 30.27 162.54 31.01 162.41 32.21 162.09 33.98 161.98 34.54 161.96 34.91 161.87 35.16 161.81 35.71 161.7 36.17 161.7 36.52 161.66 37.01 161.46 36.59 161.25 36.27 161.14 36.06 160.71 35 160.47 34.7 160.25 34.31 160.08 33.75 159.93 33.36 159.89 33.27 159.71 32.88 159.48 32.48 159.35 32.23 159.13 31.89 158.87 31.56 158.64 31.08 158.12 30.29 157.73 29.58 157.58 29.03 157.34 28.7 157.08 27.99 156.87 27.69 156.57 27.32 156.54 27.23 156.26 26.93 155.53 26.74 155.21 26.81 155.01 26.9 154.86 27 154.84 27.16 154.69 27.36 154.56 27.66 154.34 28.33 154.13 29.37 154.04 29.76 153.96 30.06 153.44 33.13 153.25 34.7 153.09 35.65 153.03 36.04 153.01 36.5 152.86 38.11 152.81 38.6 152.77 39.22 152.73 40.3 152.77 40.65 152.66 41.16 152.73 41.34 153.07 41.59 153.18 41.8 153.33 41.83 153.55 41.83 153.68 41.94 153.76 41.94 154.13 41.73 154.28 41.43 154.41 40.95 154.58 40.44 154.8 40.49 154.86 40.16 154.93 40.1 154.95 39.82 155.16 39.34 155.25 38.76 155.36 38.18 155.42 37.72 155.57 37.47 155.53 37.33 155.79 36.68 156.03 35.9 156.26 35.16 156.31 34.88 156.41 34.49 156.63 33.71 157.13 34.4 157.58 35.12 158.31 36.38 158.49 36.54 158.68 36.84 159.41 37.86 160.02 38.48 160.25 38.76 160.77 39.36 161.29 39.96 161.68 40.42 162.02 40.65 162.37 40.83 162.69 40.93 163.19 40.77 163.29 40.58 163.51 40.35 163.75 40.05 163.92 39.66 164.03 39.01 164.2 38.85 164.2 38.78 164.33 38.44 164.48 38.04 164.63 37.51 164.85 36.94 164.87 36.66 165.02 36.11 165.13 35.62 165.15 35.18 165.28 34.79 165.3 34.24 165.39 32.85 165.41 32.44 165.52 31.12 165.43 30.75 165.5 30.48 165.5 30.11 165.56 29.49 165.5 28.7 165.37 28.52 165.45 28.01"/><polygon class="cls-2" points="171.62 28.45 171.53 28.61 171.51 28.96 171.34 29.76 171.32 29.86 171.16 30.48 171.08 30.96 170.95 31.54 170.86 31.89 170.8 32.37 170.76 32.6 170.71 32.72 170.58 33.59 170.43 34.19 170.37 35.23 170.32 35.34 170.24 36.13 170.3 36.24 170.22 36.61 170.24 36.75 170.19 37.14 170.19 38.57 170.26 38.71 170.26 39.13 170.26 39.36 170.24 39.54 170.3 40.21 170.41 40.44 170.37 40.6 170.58 41.94 170.78 42.13 170.84 42.08 170.82 41.94 170.91 41.87 171.04 41.37 171.12 40.7 171.25 40.47 171.34 40.1 171.32 39.94 171.34 39.52 171.4 39.2 171.42 38.67 171.57 38.18 171.66 37.84 171.75 37.54 171.79 37.19 171.86 36.98 171.9 36.73 171.94 36.5 172.12 36.08 172.16 35.58 172.33 35.14 172.5 34.28 172.78 33.15 173.17 31.75 173.73 29.93 174.08 28.84 174.21 28.47 174.27 28.43 174.53 28.31 175.46 28.24 175.69 28.22 176.23 28.15 176.34 28.03 176.64 27.9 176.88 28.08 176.9 27.96 176.92 27.96 176.99 27.94 177.16 27.94 177.27 28.03 177.33 28.03 177.36 27.9 177.42 27.83 177.94 27.87 178.13 27.71 178.43 27.73 178.52 27.5 178.78 27.46 179.04 27.36 179.08 27.3 179.43 27.23 179.62 27.11 179.08 26.7 177.81 26.4 176.84 26.37 175.76 26.23 174.92 26.37 173.75 26.3 172.57 26.4 171.47 26.51 170.8 26.53 170.35 26.51 169.98 26.63 169.7 26.44 169.5 26.49 169.42 26.49 169.2 26.6 169.03 26.7 168.64 26.77 167.87 26.93 167.74 27.16 167.5 27.27 167.26 27.18 166.94 27.3 166.92 27.39 166.68 27.57 166.7 27.71 166.9 28.01 167.37 28.13 167.52 28.13 168.36 28.47 169.27 28.5 169.87 28.52 170.48 28.56 171.06 28.5 171.19 28.45 171.62 28.45"/><path class="cls-3" d="M185.94,25.1l-.43.07-.56.23-.8.37-.67.42-.3.25-.5.37-.9.88-.22.14-.11,0h-.23l-.31-.11-.3-.21-.28,0-.21.07-.26,0-.22.23-.15.25v.12l-.22.55-.15.6,0,.19-.16.18v.14l-.23.48-.26.69-.45,1.71-.31,1.55-.58,2.07-.24,1.23,0,.23v.59l-.11.9,0,.19.09.16,0,.39.08.07.15.3.11,0,.54.56.24.07.21-.09h.15l.05-.12.28.07.08-.19h.3l.13-.27.15-.09,0-.1.08-.13.15-.51.15-.12.11-.18v-.09l.11-.14.22-.33.13-.3.06-.32.09-.16,0-.23.11-.3.09-.18.26-.93.15-.55.11-.51.13-.3.56.14,1.94.71.17.07.37.19,2,.71.48.1.82.3h.06l.37.09.21,0,.37.13.09.05.13-.09h.08l.2-.14L189,37.1v0l.22,0V37l.43,0,.09,0,0-.07-.15-.14-.19-.07-1-.62-.88-.58-.58-.32-.61-.3-1.16-.55-1.85-.72-.59-.25v-.12l.15,0,.35-.23h.22l.1-.14.58-.37.29-.09.36-.35H185l.13-.07.26-.27.36-.28.2-.28.26-.18.84-.76.3-.19.15-.23.22-.25h.17l.13,0,.15-.18h.06l.37-.56.09-.48,0-.07.05-.3-.05-.41-.17-.6-.17-.35-.54-.76-.41-.28-.39-.3-.41-.16Zm.37,2.29h.06l-.09.46-.15.39-.1.32-.2.37-.11.19-.1.09-.41.6-.46.51-.88.9-.22.16-.67.41-.88.39.3-.76.15-.18.22-.46.06-.12.3-.39.16-.44.15-.18.3-.44.22-.09V29l.43-.42.15-.23.23-.16.48-.3.26-.09.26-.23Z" transform="translate(0)"/><polygon class="cls-2" points="194.41 25.01 193.81 25.08 193.38 25.22 193.12 25.4 193.03 25.54 192.86 25.7 192.65 25.82 192.52 25.87 192.19 26 191.98 26.16 191.93 26.16 191.54 26.42 191.54 26.6 191.46 26.79 191.52 26.9 191.37 27 191.37 27.07 191.11 27.18 191.2 27.34 191.42 27.59 191.76 27.89 191.93 28.03 191.81 28.59 191.76 28.61 191.59 29.23 191.35 29.95 191.33 30.2 191.29 30.41 191.11 30.85 191.11 30.94 191.07 31.19 190.92 31.75 190.88 31.95 190.66 33.02 190.57 33.66 190.53 33.94 190.44 34.31 190.44 34.77 190.49 34.86 190.38 35.11 190.38 35.44 190.42 36.2 190.49 36.61 190.49 36.75 190.6 37.47 190.66 37.54 190.77 37.88 191.01 38.27 191.11 38.6 191.26 38.78 191.46 38.99 191.5 39.08 191.87 39.34 192.26 39.54 193.4 39.87 193.75 39.89 194.28 39.91 195.17 39.82 195.23 39.77 195.43 39.77 195.56 39.7 195.94 39.52 196.18 39.45 196.18 39.38 196.31 39.36 196.48 39.24 196.57 39.27 196.7 39.15 196.92 38.97 196.92 38.9 197.02 38.9 197.15 38.78 197.52 38.6 197.71 38.5 197.78 38.3 197.93 38.2 198.29 37.91 198.86 37.42 199.18 36.98 199.18 36.91 199.53 36.45 199.48 36.34 198.62 36.61 197.93 36.75 197.19 36.98 195.99 37.17 195.56 37.28 194.22 37.47 193.66 37.47 193.31 37.44 193.1 37.28 192.99 36.98 192.99 36.73 192.97 36.52 192.97 35.48 193.06 35.32 193.21 34.45 193.27 34.19 193.46 33.18 193.83 33.13 194.16 33.11 195.36 32.9 195.77 32.76 196.51 32.51 197.11 32.37 197.19 32.21 197.32 32.23 197.54 32.09 197.97 31.77 198.12 31.47 198.12 31.4 198.04 31.38 197.93 31.31 197.69 31.29 197.52 31.22 197 31.15 195.86 31.1 194.74 31.12 194.05 31.24 193.96 31.22 194 31.01 194.05 30.82 194.22 30.5 194.39 29.83 194.8 28.84 194.93 28.77 195 28.66 195.43 28.5 195.84 28.33 196.16 28.24 196.61 28.22 196.7 28.13 196.87 28.08 197.26 27.99 197.67 27.85 197.8 27.71 198.02 27.62 198.25 27.43 198.64 27.34 198.64 27.3 198.9 27.16 198.99 27.18 199.61 27.09 199.7 27 199.81 27.04 199.87 26.95 199.98 27 200.26 26.77 200.58 26.67 200.63 26.67 200.71 26.58 200.82 26.63 201.1 26.53 201.1 26.4 201.19 26.26 201.25 26.14 201.38 26.21 201.47 26.14 201.85 26.16 202 26.1 202.5 26.14 202.61 26.07 202.82 26.05 203.19 25.96 203.21 25.77 203.19 25.61 203.1 25.61 202.61 25.52 201.68 25.43 199.89 25.24 199.44 25.17 198.34 25.13 197.78 25.13 197.28 25.01 196.4 25.01 195.77 25.06 195.38 25.13 194.97 25.13 194.74 25.08 194.65 25.08 194.41 25.01"/><polygon class="cls-2" points="209.77 24.92 209.55 25.01 209.4 25.01 209.19 25.22 208.97 25.31 208.8 25.5 208.67 25.54 208.45 25.82 207.72 26.28 207.03 26.77 206.81 27 206.62 27.07 205.93 27.53 205.41 27.94 204.98 28.24 204.03 28.93 203.66 29.26 203.28 29.65 202.78 30 202.46 30.32 201.9 30.92 201.7 31.24 201.49 31.49 201.27 31.95 201.27 32.21 201.14 32.44 200.99 32.65 200.99 33.59 201.08 33.94 201.16 34.26 201.42 34.65 201.85 35.11 202.16 35.34 202.52 35.74 202.84 35.92 203.21 36.04 203.3 36.13 203.79 36.22 204.42 36.45 204.96 36.59 205.06 36.68 205.43 36.82 205.56 36.82 205.71 36.98 205.93 37.05 206.36 37.33 206.58 37.44 206.88 37.61 207.33 37.93 207.65 38.04 208 38.32 208.22 38.53 208.41 38.67 208.5 38.8 208.6 38.9 208.69 39.04 208.78 39.17 208.75 39.38 208.82 39.52 208.8 39.73 208.75 39.94 208.56 40.1 208.39 40.21 208.19 40.21 207.98 40.44 207.78 40.49 207.68 40.47 207.5 40.49 207.35 40.49 207.12 40.53 207.03 40.6 206.81 40.6 206.47 40.63 206.32 40.72 206.21 40.72 205.71 40.77 205.58 40.84 205.11 40.84 204.81 40.86 204.55 40.88 203.88 40.95 203.81 41 203.41 41.11 203.04 41.16 202.78 41.2 202.48 41.2 202.05 41.27 201.81 41.34 201.79 41.39 201.79 41.41 201.85 41.39 201.94 41.43 202 41.43 202.11 41.55 202.24 41.5 202.26 41.55 202.39 41.5 202.39 41.48 202.54 41.5 202.61 41.43 202.76 41.55 202.84 41.71 202.93 41.71 203.04 41.78 203.06 41.71 203.06 41.59 203.13 41.57 203.21 41.66 203.3 41.64 203.34 41.66 203.45 41.66 203.58 41.73 203.81 41.73 204.4 41.87 204.61 41.87 205 41.92 205.43 41.94 206.27 42.01 206.92 42.01 207.52 41.92 207.96 41.8 208.22 41.73 208.45 41.62 208.99 41.37 209.53 40.88 209.72 40.44 209.75 40.23 209.77 40 209.81 39.68 209.75 39.27 209.64 38.85 209.38 38.41 209.14 38.07 208.86 37.79 208.63 37.56 208.43 37.37 207.91 36.77 207.4 36.43 207.05 36.13 206.51 35.83 206.42 35.72 205.99 35.41 205.78 35.32 205.5 35.16 205.2 34.93 204.66 34.61 204.51 34.49 203.79 33.94 203.71 33.68 203.66 33.2 203.79 32.67 204.05 32.12 204.38 31.79 204.63 31.7 204.83 31.42 205.13 31.17 205.24 31.03 205.61 30.76 206.04 30.36 206.4 30.09 206.47 29.97 206.77 29.81 206.92 29.65 207.07 29.58 207.27 29.46 207.5 29.39 207.76 29.28 207.94 29.12 208.28 29.03 208.56 28.82 208.97 28.54 209.42 28.36 209.92 28.06 210.24 27.83 210.54 27.64 210.89 27.46 211.19 27.27 211.38 27 211.49 26.7 211.43 26.42 211.36 26.19 211.23 25.82 211.1 25.38 210.48 24.99 210.05 24.92 209.77 24.92"/><g class="cls-4"><path class="cls-2" d="M25.49,6.34a7.92,7.92,0,0,1-1,2.07,7,7,0,0,1-1-6.37,12,12,0,0,1,1-2c1.14,1.78,1.9,4.19,1,6.34m-2.66,0A7.55,7.55,0,0,0,20.08,3.6c-2.72-1.65-6.74-1-9.15.79a6.49,6.49,0,0,1,2.27-.2c4.5.54,7.73,4.53,11,7.85l-1.53,1.5A13.09,13.09,0,0,0,18,7.34c-2.66-2.16-7.1-2.16-10.08-.77a14,14,0,0,1,5.78,1.25,52.88,52.88,0,0,1,7.93,6.74l-1.36,1.36-1-1.53c-2-2.92-5-5.3-8.41-5.84a8,8,0,0,0-5.35.66A7.58,7.58,0,0,1,6.43,9c2.86,0,5.1,1.44,7.22,3.17l5.36,5-1.59,1.59a39.14,39.14,0,0,0-4.56-5.19,9.84,9.84,0,0,0-9.8-1.3,9.4,9.4,0,0,1,6.32,1.39c2.38,1.92,4.67,4.05,7,6.2l-1.55,1.53a26.78,26.78,0,0,0-4.85-4.67c-2.35-1.76-6-2-8.81-1.11,2.41,0,4.9.17,6.74,1.76l5.78,5.15-2,2c-1-1-2.13-2.21-3.26-3.15a9.34,9.34,0,0,0-8.3-2.32,11,11,0,0,1,4.7,1.16C7,21.75,9,23.51,11,25.27L8.72,27.5a36.05,36.05,0,0,0-3.93-3.59A8.23,8.23,0,0,0,0,22.18,10.44,10.44,0,0,1,3.2,23.4a58.51,58.51,0,0,1,8.13,7.45l0-.06L24,43.45l.45.4L37.62,30.73l-.06.12c.82-.91,1.75-1.87,2.66-2.72h0l0-.06a54.83,54.83,0,0,1,5.47-4.67,10.64,10.64,0,0,1,3.2-1.22,9.17,9.17,0,0,0-4.48,1.47,40.27,40.27,0,0,0-4.25,3.85l-2.23-2.23c1.53-1.36,3.11-2.72,4.7-4A9.37,9.37,0,0,1,48.75,19a10.12,10.12,0,0,0-3.06-.11c-3.51.28-6,3.09-8.5,5.64l-1.95-2c2.15-1.92,4.27-3.9,6.48-5.69a11.46,11.46,0,0,1,6.06-1.22,12.1,12.1,0,0,0-5.52-.28C39,16,36.4,18.84,34.1,21.44l-1.53-1.56c2.13-2,4.34-4,6.55-5.86a9.24,9.24,0,0,1,6.71-1.7,10.45,10.45,0,0,0-7.7,0c-2.87,1.1-4.71,4.19-6.66,6.46l-1.59-1.59.06-.06,5-4.75,1.62-1.28c2-1.33,4.24-2.46,6.79-1.92a8,8,0,0,0-5.46-.63c-3.88.63-7.37,3.88-9.32,7.34l-1.36-1.39a82.48,82.48,0,0,1,6.8-6c2-1.48,4.41-1.87,6.91-2a11.76,11.76,0,0,0-6.21-.82c-3.85.54-7.36,4.28-8.55,7.82L24.7,12,26,10.62C29.46,7.28,32.94,3.29,38,4.36c-2.41-1.7-6.18-2.41-8.9-.88-3.2,1.62-4.28,5-4.62,8.27a12.8,12.8,0,0,0-1.61-5.43M26,14a21.76,21.76,0,0,1-1.42,2.81l-.17.17-.36-.46L22.86,14c.45-.57,1.05-1.08,1.56-1.64.53.48,1.07,1,1.61,1.58m-3.74,5.16-1.75-2.83L21.87,15l2.26,2.29Zm4.34,0-1.87-1.87L27,15l1.33,1.33Zm-5,.68-2,2L17.7,19.15c.48-.54,1.08-1.08,1.62-1.65.76.74,1.53,1.53,2.29,2.3m7.65,2-2-2,2.29-2.3,1.61,1.62Zm-3.6-1L24.44,22a7.23,7.23,0,0,1-2-2.49l2-2,2,1.93Zm-3.85,3.85c-1-.68-1.27-1.7-1.95-2.55l2-2,2.23,2.24ZM29,22.12a10.43,10.43,0,0,1-2,2.55l-2.32-2.32L27,20.08Zm-10,.31-1.93,1.93-2-2.61,1.56-1.55c.79.73,1.58,1.47,2.35,2.23m12.86,1.93-1.9-1.93,2.32-2.23,1.56,1.55Zm-7.4,2.94L22.12,25l2.32-2.35L26.8,25ZM21.5,25c-.77.8-1.56,1.56-2.32,2.32a22.73,22.73,0,0,1-1.9-2.57l2-2Zm10.11-.25a22.7,22.7,0,0,1-1.87,2.57c-.79-.73-1.56-1.52-2.35-2.32l2.24-2.24Zm-15.29.34-2.19,2.21c-.7-.83-1.41-1.62-2.15-2.44l2-2c.8.71,1.59,1.44,2.36,2.21m18.46,2.21L32.57,25.1c.74-.83,1.56-1.51,2.35-2.24l2,2Zm-13-2,2.35,2.35L21.81,30l-2.35-2.35ZM27.08,30l-2.32-2.35,2.32-2.35,2.35,2.35Zm-10.45-.12-2.24-2.23,2.24-2.24,2.23,2.24Zm15.66,0c-.76-.66-1.5-1.48-2.27-2.21l2.24-2.24,2.24,2.24Zm-21,.28L9,27.81l2.26-2.26,2.44,2.15Zm26.35,0L35.21,27.7l2.41-2.15,2.26,2.26Zm-16.12.14-2.24,2.24-2.32-2.32,2.21-2.24c.79.76,1.56,1.56,2.35,2.32m5.3,0c-.77.79-1.56,1.56-2.36,2.35-.79-.76-1.55-1.56-2.32-2.32l2.32-2.35c.8.76,1.56,1.56,2.36,2.32m2.83,2.24-2.24-2.21,2.32-2.35L32,30.17ZM16.32,30.17c-.83.82-1.68,1.64-2.5,2.49l-2.23-2.24L14,28a32,32,0,0,1,2.33,2.19m18.75,2.49c-.83-.82-1.65-1.67-2.5-2.49.71-.8,1.53-1.45,2.3-2.19l2.43,2.44ZM16.46,35.29,14.13,33l2.5-2.52L19,32.8Zm16,0L29.94,32.8l2.32-2.35L34.78,33ZM21.9,35.15l-2.33-2.32,2.24-2.27,2.35,2.35Zm5.09,0-2.23-2.24,2.32-2.35,2.24,2.24Zm-5.38.28L19.09,38l-2.32-2.32,2.49-2.52c.79.77,1.56,1.56,2.35,2.32M29.8,38l-2.49-2.49,2.32-2.35,2.49,2.49Zm-5.36-.28-2.23-2.21,2.23-2.24,2.24,2.21Zm-2.8,2.81L19.4,38.27l2.5-2.52L24.16,38Zm5.61,0L24.76,38,27,35.75l2.5,2.52Zm-2.81,2.8L22,40.79l2.49-2.5L27,40.79Z" transform="translate(0)"/><path class="cls-2" d="M58.36,5.48c2.66,0,3.4,1.09,3.81,1.09.11,0,.2-.14.34-.14s.16.22.2,1.14c0,.75.15,1.22-.09,1.22s-.27-.37-.32-.47c-.88-1.51-1.89-2.43-3.71-2.43-2.76,0-4.09,1.84-4.09,4.47,0,2.46,1.41,4.93,4.13,4.93a4.18,4.18,0,0,0,3.82-2.07.24.24,0,0,1,.2-.18.14.14,0,0,1,.13.15l-.33,1.42c0,.05-1,1.12-4.2,1.12a4.74,4.74,0,0,1-5-4.93,5.1,5.1,0,0,1,5.09-5.32" transform="translate(0)"/><path class="cls-2" d="M64.63,11c0-.85-.78-.49-.78-.78a.16.16,0,0,1,.13-.16c.91-.25,1.19-.71,1.52-.71a.21.21,0,0,1,.17.23v5.08c0,.72,1.11.41,1.11.78,0,.11-.08.16-.26.16s-.74-.06-1.32-.06-.82.06-1,.06-.2,0-.21-.16c0-.35.62.18.62-1.1Zm1.11-3.7c0,.17-.41.74-.6.74s-.59-.58-.59-.74.42-.75.59-.75.6.58.6.75" transform="translate(0)"/><path class="cls-2" d="M68.29,10.26c-.67,0-.77,0-.77-.1S67.87,9.81,68.6,9c.28-.33.42-.65.53-.65s.19.3.19,1.32h1.55a.92.92,0,0,0,.56-.24.11.11,0,0,1,.1.11.5.5,0,0,1-.09.2l-.28.51H69.32v4.12a.87.87,0,0,0,1,.85c.75,0,1-.33,1.2-.33.06,0,.12,0,.12.13s-.77.69-1.76.69c-.65,0-1.58-.18-1.58-1.64Z" transform="translate(0)"/><path class="cls-2" d="M74.44,18.4s-.27,0-.46,0-.53,0-.53-.1c0-.31,1.29-1.37,1.29-2.47a2.61,2.61,0,0,0-.28-.95L72.6,10.35c-.13-.32-.66-.33-.66-.53s.08-.17.28-.17.61.06,1,.06.82-.06,1.05-.06.3,0,.3.19-.81,0-.81.58a1.09,1.09,0,0,0,.07.34l1.51,3.85,1.09-3.2a2.13,2.13,0,0,0,.17-.74c0-.76-.9-.55-.9-.86,0-.14.17-.16.42-.16s.4.06.8.06.58-.06.72-.06.27.06.27.17c0,.33-.48,0-.77.82Z" transform="translate(0)"/><path class="cls-2" d="M82,12.72A3.19,3.19,0,0,1,85.19,9.5a2.9,2.9,0,0,1,3.07,3.15,3,3,0,0,1-3.06,3.07,2.89,2.89,0,0,1-3.17-3m5.24.15c0-1.46-.61-3.06-2.3-3.06-1.38,0-2,1.21-2,2.42,0,1.39.65,3.2,2.31,3.2,1.19,0,1.94-.81,1.94-2.56" transform="translate(0)"/><path class="cls-2" d="M89.83,9.68a5.59,5.59,0,0,1,.84-3A3.25,3.25,0,0,1,93,5.18c.18,0,.58.06.58.3s-.06,1-.21,1-.07-.59-1-.59c-.75,0-1.26.8-1.38,1.45a13.11,13.11,0,0,0-.12,2.34H92a.92.92,0,0,0,.56-.24c.07,0,.09.07.09.11a.47.47,0,0,1-.08.2l-.28.51H90.86v4.3c0,.91,1,.57,1,.88s-.18.13-.3.13H89.38c-.07,0-.23,0-.23-.09,0-.29.68-.12.68-.8V10.26h-1L89,9.68Z" transform="translate(0)"/><path class="cls-2" d="M98,7.13c0-1.41-1.38-1-1.38-1.37,0-.11.07-.16.22-.16.59,0,.89.06,1.52.06s1-.06,1.32-.06c.14,0,.27.05.27.2,0,.31-.83-.08-.83,1v7.52c0,2.21-1.22,3.93-2.75,3.93-.44,0-.55-.1-.55-.51,0-.19.11-.79.31-.79s.48.57.88.57c.59,0,1-.81,1-2.06Z" transform="translate(0)"/><path class="cls-2" d="M101.3,12.72a3.18,3.18,0,0,1,3.15-3.22,2.91,2.91,0,0,1,3.08,3.15,3,3,0,0,1-3.06,3.07,2.89,2.89,0,0,1-3.17-3m5.23.15c0-1.46-.6-3.06-2.29-3.06-1.39,0-1.95,1.21-1.95,2.42,0,1.39.65,3.2,2.3,3.2,1.19,0,1.94-.81,1.94-2.56" transform="translate(0)"/><path class="cls-2" d="M108.37,12.72a3.19,3.19,0,0,1,3.16-3.22,2.9,2.9,0,0,1,3.07,3.15,3,3,0,0,1-3,3.07,2.9,2.9,0,0,1-3.18-3m5.24.15c0-1.46-.61-3.06-2.29-3.06-1.39,0-1.95,1.21-1.95,2.42,0,1.39.65,3.2,2.3,3.2,1.19,0,1.94-.81,1.94-2.56" transform="translate(0)"/><path class="cls-2" d="M117.31,14.48c0,1,1.24.57,1.24.95,0,.17-.1.2-.31.2s-.52-.06-1.34-.06-1,.06-1.21.06-.25,0-.25-.17c0-.29.83,0,.83-.92V11c0-.85-1-.49-1-.78a.15.15,0,0,1,.12-.16c1.18-.25,1.46-.71,1.79-.71a.21.21,0,0,1,.17.23v.93a3.1,3.1,0,0,1,2-1c1.9,0,2.31,1.57,2.31,2.64v2.34c0,1,1.1.57,1.1.95,0,.17-.1.2-.24.2s-.54-.06-1.23-.06c-.54,0-.84.06-1,.06s-.25,0-.25-.17c0-.29.6,0,.6-.92V11.89A1.72,1.72,0,0,0,119,10.12a1.59,1.59,0,0,0-1.67,1.1Z" transform="translate(0)"/><path class="cls-2" d="M127.85,6.67c0-.85-1.12-.49-1.12-.78a.16.16,0,0,1,.13-.16C128,5.48,128.39,5,128.72,5a.21.21,0,0,1,.17.23v9.68c0,.17.28.29.75.36.1,0,.15,0,.15.12s-.37.2-.89.2a8.06,8.06,0,0,0-.89.12c-.11,0-.16-.12-.16-.22v-.78h0a2.57,2.57,0,0,1-4.58-1.89,3.17,3.17,0,0,1,3-3.34,3,3,0,0,1,1.65.49Zm0,4.79A1.69,1.69,0,0,0,126,9.82c-1.33,0-1.92,1.25-1.92,2.42s.85,2.88,2.19,2.88c1.18,0,1.6-.73,1.6-1.23Z" transform="translate(0)"/><path class="cls-2" d="M134.11,11.1a1.29,1.29,0,0,0-1.46-1.24c-.68,0-1.23.07-1.23.85,0,.22.09.43.09.58s0,.27-.32.27-.66-.21-.66-.46c0-.66.81-1.65,2.38-1.6.87,0,2.23.25,2.23,1.45v2.93c0,.49-.12,1.32.61,1.32l.24,0c.07,0,.19,0,.19.1,0,.3-.63.36-.82.36a1.1,1.1,0,0,1-1.11-.73,3.35,3.35,0,0,1-2.16.82c-.92,0-1.53-.33-1.53-1.34,0-.75.24-1.64,3.55-2.19Zm0,1.43c-.91.19-2.63.42-2.63,1.67,0,.8.41,1.11,1.16,1.11.51,0,1.47-.39,1.47-1.14Z" transform="translate(0)"/><path class="cls-2" d="M138.77,14.48c0,1,1.17.57,1.17.95,0,.17-.11.2-.32.2s-.64-.06-1.31-.06-1,.06-1.1.06-.17-.06-.17-.19.69-.17.69-.78v-8c0-.85-1-.49-1-.78a.16.16,0,0,1,.13-.16C138,5.48,138.27,5,138.6,5a.21.21,0,0,1,.17.23Z" transform="translate(0)"/><path class="cls-2" d="M145.17,10.53c0-.54-.75-.2-.75-.54,0-.11.18-.13.25-.13a2.89,2.89,0,0,0,.77-.08,2.14,2.14,0,0,1,.5-.07.31.31,0,0,1,.26.34V15c0,.36.89.18.89.49,0,.11-.3.13-.52.13a3.75,3.75,0,0,0-.77.07,1.6,1.6,0,0,1-.48.08c-.11,0-.13-.15-.13-.21v-.78h0a2.2,2.2,0,0,1-1.89,1,1.89,1.89,0,0,1-2.06-1.89v-3.3c0-.54-.75-.2-.75-.54,0-.11.18-.13.25-.13a2.89,2.89,0,0,0,.77-.08,2.16,2.16,0,0,1,.51-.07.31.31,0,0,1,.25.34v3.58a1.41,1.41,0,0,0,1.37,1.6c.81,0,1.52-.6,1.55-1Z" transform="translate(0)"/><path class="cls-2" d="M149.38,17.4c0,.93,1.31.58,1.31.92,0,.17-.1.18-.27.18s-.53-.06-1.47-.06c-.56,0-1,.06-1.12.06s-.21,0-.21-.16c0-.36.73-.14.73-1V11c0-.85-1-.49-1-.78a.16.16,0,0,1,.13-.16c1.09-.25,1.37-.71,1.69-.71.09,0,.17.09.17.23v.82a2.86,2.86,0,0,1,1.94-.93,2.57,2.57,0,0,1,2.54,2.87,3.17,3.17,0,0,1-3,3.36,3.28,3.28,0,0,1-1.46-.39Zm0-3.3c0,.76.88,1.29,1.84,1.29,1.31,0,1.86-1.25,1.86-2.37,0-1.29-.65-2.86-2.15-2.86s-1.56,1.09-1.55,1.12Z" transform="translate(0)"/></g></g></g></svg>