<svg xmlns="http://www.w3.org/2000/svg" viewBox="0 0 451.33 26.25"><defs><style>.cls-1{fill:#fff;}</style></defs><title>url</title><g id="Layer_2" data-name="Layer 2"><g id="Layer_1-2" data-name="Layer 1"><path class="cls-1" d="M2.23,7.06h3V21.78C5.22,24.49,4.15,26,1.34,26A7.93,7.93,0,0,1,0,25.9V23.54a9,9,0,0,0,1,.11c1.11,0,1.21-.66,1.21-2Zm0-5.17h3V4.72h-3Z"/><path class="cls-1" d="M7.85,13.83c0-4.15,2.49-7.14,6.85-7.14s6.85,3,6.85,7.14S19.05,21,14.7,21,7.85,18,7.85,13.83Zm10.7,0c0-2.33-1.18-4.78-3.85-4.78s-3.86,2.45-3.86,4.78,1.18,4.8,3.86,4.8S18.55,16.19,18.55,13.83Z"/><path class="cls-1" d="M23.41,13.83c0-4.15,2.49-7.14,6.85-7.14s6.85,3,6.85,7.14S34.61,21,30.26,21,23.41,18,23.41,13.83Zm10.7,0c0-2.33-1.18-4.78-3.85-4.78S26.4,11.5,26.4,13.83s1.18,4.8,3.86,4.8S34.11,16.19,34.11,13.83Z"/><path class="cls-1" d="M39.6,7.06h2.83v2l0,.06a4.87,4.87,0,0,1,4.23-2.42c2.94,0,4.8,1.58,4.8,4.62v9.32h-3V12.1c-.05-2.13-.89-3-2.65-3a3.31,3.31,0,0,0-3.28,3.57v8h-3Z"/><path class="cls-1" d="M67.44,20.63H64.6V18.79h0A4.51,4.51,0,0,1,60.35,21C56.07,21,54,17.82,54,13.75c0-4.91,2.91-7.06,5.88-7.06a5.2,5.2,0,0,1,4.51,2.13h.06V1.89h3Zm-6.69-2c2.67,0,3.8-2.44,3.8-4.8,0-3-1.44-4.78-3.75-4.78C58,9.05,57,11.55,57,14S58.15,18.63,60.75,18.63Z"/><path class="cls-1" d="M82.05,17.61c0,.74.16,1,.71,1a4.39,4.39,0,0,0,.74-.05v2.08a7.88,7.88,0,0,1-1.89.34c-1.21,0-2.08-.42-2.31-1.66A6.94,6.94,0,0,1,74.6,21C72.16,21,70,19.68,70,17c0-3.38,2.7-3.93,5.22-4.22,2.15-.4,4.07-.16,4.07-1.92,0-1.55-1.6-1.84-2.81-1.84-1.68,0-2.86.69-3,2.16h-3c.21-3.49,3.18-4.52,6.17-4.52,2.65,0,5.43,1.08,5.43,3.94Zm-3-3.78c-.92.6-2.36.58-3.67.82S73,15.33,73,16.9c0,1.34,1.7,1.73,2.75,1.73,1.32,0,3.36-.68,3.36-2.57Z"/><path class="cls-1" d="M85.36,1.89h3V20.63h-3Z"/><path class="cls-1" d="M103.52,20.63h-2.94V18.74h0A4.57,4.57,0,0,1,96.67,21c-3.54,0-5.07-1.79-5.07-5.33V7.06h3v8.32c0,2.39,1,3.25,2.59,3.25,2.5,0,3.34-1.6,3.34-3.7V7.06h3Z"/><path class="cls-1" d="M106.74,7.06h2.84V8.9h0a4.54,4.54,0,0,1,4.2-2.21c4.28,0,6.35,3.26,6.35,7.22,0,3.65-1.84,7.09-5.85,7.09a5.27,5.27,0,0,1-4.54-2.13h-.05v6.77h-3Zm6.7,2c-2.52,0-3.81,1.92-3.81,4.81,0,2.73,1.39,4.77,3.81,4.77,2.73,0,3.75-2.41,3.75-4.77S115.9,9.05,113.44,9.05Z"/><path class="cls-1" d="M122.41,12.07h7.64v2.84h-7.64Z"/><path class="cls-1" d="M133,1.89h3V20.63h-3Z"/><path class="cls-1" d="M141.56,14.62c0,2.13,1.16,4,3.65,4a3.16,3.16,0,0,0,3.31-2.25h2.83A5.94,5.94,0,0,1,145.21,21c-4.25,0-6.64-3-6.64-7.14,0-3.86,2.52-7.17,6.56-7.17,4.28,0,6.91,3.86,6.41,7.93Zm7-2a3.5,3.5,0,1,0-7,0Z"/><path class="cls-1" d="M153.9,1.89h3V4.72h-3Zm0,5.17h3V20.63h-3Z"/><path class="cls-1" d="M162.4,16.27c.16,1.73,1.47,2.36,3.07,2.36,1.13,0,3.1-.23,3-1.78s-2.26-1.76-4.44-2.26-4.35-1.26-4.35-4c0-3,3.2-3.89,5.66-3.89,2.79,0,5.31,1.16,5.67,4.18h-3.12c-.26-1.42-1.44-1.82-2.76-1.82-.86,0-2.46.21-2.46,1.4,0,1.47,2.2,1.68,4.41,2.17s4.38,1.29,4.38,4c0,3.23-3.25,4.41-6.06,4.41-3.41,0-6-1.53-6-4.73Z"/><path class="cls-1" d="M185.68,20.63h-2.94V18.74h-.06A4.56,4.56,0,0,1,178.83,21c-3.55,0-5.07-1.79-5.07-5.33V7.06h3v8.32c0,2.39,1,3.25,2.6,3.25,2.49,0,3.33-1.6,3.33-3.7V7.06h3Z"/><path class="cls-1" d="M188.82,7.06h2.81V9.68h.05a4.39,4.39,0,0,1,4-3,7.78,7.78,0,0,1,1.12.08V9.66a11.1,11.1,0,0,0-1.28-.13c-2.05,0-3.68,1.65-3.68,4.64v6.46h-3Z"/><path class="cls-1" d="M200,14.62c0,2.13,1.15,4,3.65,4a3.14,3.14,0,0,0,3.3-2.25h2.84A6,6,0,0,1,203.6,21c-4.26,0-6.64-3-6.64-7.14,0-3.86,2.52-7.17,6.56-7.17,4.28,0,6.9,3.86,6.4,7.93Zm7-2a3.49,3.49,0,1,0-7,0Z"/><path class="cls-1" d="M212.44,17.09h3.65v3.54h-3.65Z"/><path class="cls-1" d="M228.66,11.6a2.88,2.88,0,0,0-3.1-2.55c-1.55,0-3.73.82-3.73,4.94,0,2.26,1,4.64,3.6,4.64a3.22,3.22,0,0,0,3.23-3.09h3c-.55,3.51-2.73,5.46-6.22,5.46-4.25,0-6.59-3-6.59-7s2.23-7.3,6.69-7.3c3.15,0,5.83,1.58,6.12,4.91Z"/><path class="cls-1" d="M233.46,13.83c0-4.15,2.49-7.14,6.85-7.14s6.85,3,6.85,7.14S244.66,21,240.31,21,233.46,18,233.46,13.83Zm10.7,0c0-2.33-1.18-4.78-3.85-4.78s-3.86,2.45-3.86,4.78,1.18,4.8,3.86,4.8S244.16,16.19,244.16,13.83Z"/><path class="cls-1" d="M249.65,7.06h2.83V9h.08a4.53,4.53,0,0,1,4.17-2.26A3.85,3.85,0,0,1,260.54,9a4.9,4.9,0,0,1,4.25-2.26c2.86,0,4.54,1.26,4.54,4.57v9.37h-3V12.7c0-2.15-.13-3.65-2.47-3.65-2,0-2.89,1.34-2.89,3.63v8h-3V11.92c0-1.87-.58-2.87-2.39-2.87-1.54,0-3,1.26-3,3.52v8.06h-3Z"/><path class="cls-1" d="M272.71,17.09h3.65v3.54h-3.65Z"/><path class="cls-1" d="M291.13,17.61c0,.74.16,1,.71,1a4.39,4.39,0,0,0,.74-.05v2.08a7.88,7.88,0,0,1-1.89.34c-1.21,0-2.08-.42-2.31-1.66a6.94,6.94,0,0,1-4.7,1.66c-2.44,0-4.64-1.32-4.64-4,0-3.38,2.7-3.93,5.22-4.22,2.15-.4,4.07-.16,4.07-1.92,0-1.55-1.6-1.84-2.81-1.84-1.68,0-2.86.69-3,2.16h-3c.21-3.49,3.18-4.52,6.17-4.52,2.65,0,5.43,1.08,5.43,3.94Zm-3-3.78c-.92.6-2.36.58-3.67.82S282,15.33,282,16.9c0,1.34,1.7,1.73,2.75,1.73,1.32,0,3.36-.68,3.36-2.57Z"/><path class="cls-1" d="M306.27,20.63h-2.94V18.74h-.05A4.56,4.56,0,0,1,299.42,21c-3.54,0-5.06-1.79-5.06-5.33V7.06h3v8.32c0,2.39,1,3.25,2.6,3.25,2.49,0,3.33-1.6,3.33-3.7V7.06h3Z"/><path class="cls-1" d="M316.72,0h2.67V26.25h-2.67Z"/><path class="cls-1" d="M332.49,16a2.56,2.56,0,0,0,2.67,2.52c3.26,0,3.63-3.88,3.81-6.3l-.05,0a4.42,4.42,0,0,1-4,2.21c-3.46,0-5.8-2.44-5.8-6.2a5.94,5.94,0,0,1,6.33-6.27c5.19,0,6.48,4.25,6.48,9.61,0,4.38-1.73,9.5-6.93,9.5a5.34,5.34,0,0,1-5.54-5Zm-.34-7.84c0,2,1,3.85,3.2,3.85s3.33-1.83,3.33-3.85-1.1-3.76-3.33-3.76S332.15,6.14,332.15,8.14Z"/><path class="cls-1" d="M356.55,16.27h-2.36v4.36h-2.84V16.27h-7.87v-3l7.87-11h2.84V13.91h2.36Zm-10.76-2.36h5.56V5.83h-.05Z"/><path class="cls-1" d="M371.09,11.44c0,4.18-1.08,9.56-6.35,9.56s-6.36-5.38-6.36-9.56,1.08-9.55,6.36-9.55S371.09,7.27,371.09,11.44Zm-3,0c0-3.83-.73-7.06-3.35-7.06s-3.36,3.23-3.36,7.06.73,7.06,3.36,7.06S368.09,15.27,368.09,11.44Z"/><path class="cls-1" d="M385.68,11.44c0,4.18-1.08,9.56-6.35,9.56S373,15.62,373,11.44s1.08-9.55,6.36-9.55S385.68,7.27,385.68,11.44Zm-3,0c0-3.83-.73-7.06-3.35-7.06S376,7.61,376,11.44s.73,7.06,3.36,7.06S382.68,15.27,382.68,11.44Z"/><path class="cls-1" d="M407.61,16.27h-2.36v4.36h-2.83V16.27h-7.88v-3l7.88-11h2.83V13.91h2.36Zm-10.76-2.36h5.57V5.83h-.05Z"/><path class="cls-1" d="M418.87,6.9a2.58,2.58,0,0,0-2.68-2.52c-3.25,0-3.62,3.89-3.8,6.3l.05.05a4.42,4.42,0,0,1,4-2.17c3.65,0,5.8,2.65,5.8,6.16A6,6,0,0,1,416.09,21c-5.41,0-6.69-4.25-6.69-9.61,0-4.38,1.73-9.5,6.92-9.5a5.33,5.33,0,0,1,5.54,5Zm.34,7.77c0-2-1.08-3.75-3.23-3.75s-3.3,1.73-3.3,3.75,1.12,3.83,3.3,3.83S419.21,16.64,419.21,14.67Z"/><path class="cls-1" d="M436.74,11.44c0,4.18-1.08,9.56-6.35,9.56S424,15.62,424,11.44s1.07-9.55,6.35-9.55S436.74,7.27,436.74,11.44Zm-3,0c0-3.83-.74-7.06-3.36-7.06S427,7.61,427,11.44s.73,7.06,3.36,7.06S433.75,15.27,433.75,11.44Z"/><path class="cls-1" d="M451.33,11.44c0,4.18-1.08,9.56-6.35,9.56s-6.35-5.38-6.35-9.56S439.7,1.89,445,1.89,451.33,7.27,451.33,11.44Zm-3,0c0-3.83-.74-7.06-3.36-7.06s-3.36,3.23-3.36,7.06.73,7.06,3.36,7.06S448.34,15.27,448.34,11.44Z"/></g></g></svg>