<svg viewBox="0 0 81 23.68" xmlns="http://www.w3.org/2000/svg"><path d="m81 11.84a11.84 11.84 0 0 0 -10.89-11.84h-58.27a11.84 11.84 0 0 0 0 23.68h58.27a11.84 11.84 0 0 0 10.89-11.84z" fill="#3ab9e0"/><g fill="#fff"><path d="m16.81 9.88a1.84 1.84 0 0 0 -1.88 2 1.82 1.82 0 0 0 1.85 1.95 1.63 1.63 0 0 0 1.68-1.07l1.05.41a2.84 2.84 0 0 1 -2.73 1.71 2.9 2.9 0 0 1 -3-3 2.93 2.93 0 0 1 3-3 2.82 2.82 0 0 1 2.66 1.65l-1 .4a1.64 1.64 0 0 0 -1.63-1.05z"/><path d="m24.43 13.7v1.06h-3.8v-5.83h1.13v4.77z"/><path d="m29.28 13.5h-2.65l-.49 1.26h-1.14l2.36-5.83h1.3l2.34 5.83h-1.24zm-.38-1-.9-2.25v-.25l-.06.26-.94 2.26z"/><path d="m31.89 8.93h1.11v5.83h-1.11z"/><path d="m34.53 8.93h.93l2.24 3.25 2.24-3.25h.93v5.83h-1.09v-3.84l-1.88 2.73h-.41l-1.86-2.72v3.83h-1.1z"/><path d="m49.84 11.84a3 3 0 0 1 -3.16 2.92h-2.09v-5.83h2.11a2.92 2.92 0 0 1 3.14 2.91zm-1.13 0a1.83 1.83 0 0 0 -2-1.88h-1v3.74h1a1.85 1.85 0 0 0 2-1.86z"/><path d="m55.06 13.76v1h-4v-5.83h4v1h-2.9v1.43h2.7v.94h-2.7v1.47z"/><path d="m60 13.5h-2.61l-.49 1.26h-1.19l2.36-5.83h1.3l2.38 5.83h-1.23zm-.38-1-.87-2.27-.04-.23-.06.26-.88 2.27z"/><path d="m66.45 13.7v1.06h-3.8v-5.83h1.12v4.77z"/></g></svg>