<svg enable-background="new 0 0 300 250" viewBox="0 0 300 250" xmlns="http://www.w3.org/2000/svg" xmlns:xlink="http://www.w3.org/1999/xlink"><clipPath id="a"><path d="m0 0h300v250h-300z"/></clipPath><g clip-path="url(#a)"><path d="m-3.6 199h308v54.6h-308z" fill="#304e6f"/><g opacity=".9"><path d="m15.3 14.4h126v81.9h-126z" fill="#3ab9e0"/><path d="m15.3 14h126v82.2h-126z" fill="none"/></g><g enable-background="new" fill="#fff"><path d="m43 51.2v7.8h-.8v-3.5h-4.6v3.5h-.8v-7.8h.8v3.5h4.6v-3.5z"/><path d="m44.8 55c0-2.3 1.7-4 4-4s4 1.6 4 4c0 2.3-1.7 4-4 4s-4-1.7-4-4zm7.2 0c0-1.9-1.3-3.2-3.1-3.2s-3.1 1.3-3.1 3.2 1.3 3.2 3.1 3.2 3.1-1.3 3.1-3.2z"/><path d="m59.1 52h-2.7v6.9h-.9v-6.9h-2.7v-.8h6.2v.8z"/><path d="m65.4 58.1v.8h-5.1v-7.8h5.1v.8h-4.2v2.7h4v.8h-4v2.7z"/><path d="m71.9 58.1v.8h-4.8v-7.8h.9v6.9z"/><path d="m79.7 51.9c-1.8 0-3 1.3-3 3.2s1.3 3.2 3 3.2c1.3 0 2.2-.5 2.7-1.6l.8.3c-.7 1.3-1.9 2.1-3.5 2.1-2.2 0-3.9-1.7-3.9-4s1.7-4 3.9-4c1.6 0 2.7.8 3.4 2l-.8.3c-.5-1-1.4-1.5-2.6-1.5z"/><path d="m89.6 58.9-2-2.8h-1.9v2.8h-.8v-7.8h2.8c1.8 0 2.9 1 2.9 2.5 0 1.2-.8 2.1-2 2.4l2.2 2.9zm-4-3.6h2c1.2 0 2-.6 2-1.7 0-1-.7-1.7-2-1.7h-2z"/><path d="m97.1 58.1v.8h-5.1v-7.8h5.1v.8h-4.2v2.7h4v.8h-4v2.7z"/><path d="m105.5 55c0 2.3-1.7 3.9-4.1 3.9h-2.6v-7.8h2.7c2.3.1 4 1.7 4 3.9zm-.8 0c0-1.8-1.3-3.1-3.2-3.1h-1.8v6.1h1.8c1.8.1 3.2-1.2 3.2-3z"/><path d="m107.4 51.2h.9v7.8h-.9z"/><path d="m115.6 52h-2.6v6.9h-.9v-6.9h-2.7v-.8h6.2z"/></g><g enable-background="new" fill="#fff"><path d="m27.3 75.3v1.3h-1.8v-1.3c-1.9-.5-2.3-2.3-2.3-2.3l2.1-.6s.2 1.1 1.1 1.1c.5 0 .9-.3.9-.7 0-.5-.3-.7-1-.9l-.8-.3c-1.4-.5-2.2-1.3-2.2-2.6 0-1.4.8-2.3 2.2-2.6v-1.3h1.8v1.3c1.8.4 2.2 2.1 2.2 2.1l-2.1.7s-.1-.9-1.1-.9c-.5 0-.8.2-.8.6s.3.7 1 .9l.9.3c1.3.4 2.1 1.3 2.1 2.5.2 1.4-.7 2.4-2.2 2.7z"/><path d="m34.5 68.3h-4v-2.2h6.7v1.8c-1.7 2.6-2.9 5.2-3.5 7.8h-2.6c.7-2.5 1.8-5 3.4-7.4z"/><path d="m44.7 72.6c0 1.9-1.4 3.2-3.4 3.2-1.8 0-3-.9-3.4-2.4l2.2-.6c.2.6.6 1 1.1 1 .7 0 1.1-.4 1.1-1.1s-.3-1.1-1-1.1c-.4 0-.8.2-.9.6l-2.2-.6.4-5.3h5.6v2.1h-3.6l-.2 1.7c.3-.3.9-.5 1.4-.5 1.7-.2 2.9 1.2 2.9 3z"/><path d="m49.5 73.2 2.2-.6s.2 1.2 1.4 1.2c.7 0 1.1-.3 1.1-.9s-.4-.8-1.1-1.1l-1-.3c-1.6-.5-2.4-1.5-2.4-2.9 0-1.8 1.3-2.9 3.4-2.9 2.9 0 3.5 2.4 3.5 2.4l-2.2.8s-.2-1.1-1.3-1.1c-.6 0-1 .3-1 .8s.4.8 1.2 1.1l1 .3c1.5.5 2.3 1.4 2.3 2.8 0 1.9-1.4 3-3.6 3-3 .1-3.5-2.6-3.5-2.6z"/><path d="m65.7 69.5c0 2.2-1.6 3.6-4 3.6h-1.3v2.7h-2.5v-9.8h3.7c2.6 0 4.1 1.3 4.1 3.5zm-2.5 0c0-.8-.5-1.3-1.4-1.3h-1.3v2.5h1.3c.9.1 1.4-.4 1.4-1.2z"/><path d="m72.1 74h-3.9l-.6 1.8h-2.7l3.8-9.8h2.9l3.8 9.8h-2.7zm-.7-2.1-1-3-.1-.5-.1.5-1.1 3z"/><path d="m85.1 68.2c-1.5 0-2.6 1.1-2.6 2.7 0 1.7 1.1 2.7 2.6 2.7 1.2 0 2-.5 2.4-1.6l2.3.9c-.8 1.8-2.4 3-4.7 3-2.9 0-5.1-2.1-5.1-5.1 0-2.9 2.2-5 5.2-5 2.3 0 3.8 1.1 4.6 2.9l-2.3.9c-.5-.9-1.3-1.4-2.4-1.4z"/><path d="m94.7 72.9h-1.2v2.9h-2.5v-9.8h3.8c2.5 0 4 1.3 4 3.4 0 1.4-.7 2.4-1.9 3l2.1 3.4h-2.9zm-1.2-2.3h1.4c.9 0 1.4-.4 1.4-1.1s-.5-1.1-1.4-1.1h-1.4z"/><path d="m107 73.7v2.2h-6.9v-9.8h6.9v2.2h-4.4v1.6h4.1v2h-4.1v1.7z"/><path d="m117.5 71c0 2.8-2.3 4.9-5.4 4.9h-3.7v-9.8h3.7c3.2 0 5.4 2.1 5.4 4.9zm-2.5 0c0-1.6-1.1-2.6-2.8-2.6h-1.2v5.1h1.2c1.7.1 2.8-.9 2.8-2.5z"/><path d="m119 66.2h2.5v9.8h-2.5z"/><path d="m131.1 68.5h-3.1v7.5h-2.5v-7.5h-3.1v-2.3h8.6z"/></g><g enable-background="new" fill="#304e6f"><path d="m42.7 33.6.9-.3s.1.8 1 .8c.5 0 .9-.2.9-.6s-.2-.6-.8-.8l-.6-.2c-.9-.3-1.3-.7-1.3-1.5 0-.9.7-1.5 1.8-1.5 1.5 0 1.8 1.2 1.8 1.2l-.9.3s-.1-.6-.9-.6c-.5 0-.8.2-.8.6s.3.6.8.8l.6.2c.8.3 1.3.7 1.3 1.5 0 1-.7 1.6-1.9 1.6-1.6-.2-1.9-1.5-1.9-1.5z"/><path d="m52.3 31.4c0 1.2-.8 1.9-2.1 1.9h-1v1.6h-1v-5.3h2c1.3-.1 2.1.6 2.1 1.8zm-1 0c0-.6-.4-.9-1-.9h-1v1.9h1c.6-.1 1-.4 1-1z"/><path d="m57.6 33.9v.9h-3.6v-5.3h3.6v.9h-2.6v1.3h2.5v.9h-2.5v1.3z"/><path d="m61.8 30.4c-1 0-1.7.7-1.7 1.8s.7 1.8 1.7 1.8c.8 0 1.3-.3 1.5-1l1 .4c-.4 1-1.3 1.6-2.5 1.6-1.6 0-2.7-1.1-2.7-2.8 0-1.6 1.2-2.7 2.8-2.7 1.2 0 2 .6 2.4 1.5l-1 .4c-.3-.7-.8-1-1.5-1z"/><path d="m66 29.5h1v5.3h-1z"/><path d="m72.5 33.7h-2.5l-.4 1.1h-1.1l2.2-5.3h1.2l2.2 5.3h-1.1zm-.4-.9-.8-2.1-.1-.2-.1.2-.8 2.1z"/><path d="m79 33.9v1h-3.5v-5.3h1v4.4h2.5z"/><path d="m83.4 32.2c0-1.6 1.2-2.7 2.8-2.7s2.8 1.1 2.8 2.7-1.2 2.8-2.8 2.8c-1.6-.1-2.8-1.2-2.8-2.8zm4.6 0c0-1.1-.7-1.8-1.8-1.8-1 0-1.8.7-1.8 1.8s.7 1.8 1.8 1.8 1.8-.8 1.8-1.8z"/><path d="m91.9 30.4v1.4h2.3v.9h-2.3v2.1h-1v-5.3h3.5v.9z"/><path d="m97.1 30.4v1.4h2.3v.9h-2.3v2.1h-1v-5.3h3.5v.9z"/><path d="m105 33.9v.9h-3.7v-5.3h3.6v.9h-2.6v1.3h2.5v.9h-2.5v1.3z"/><path d="m108.7 33.1h-1v1.7h-1v-5.3h2c1.3 0 2.1.7 2.1 1.8 0 .8-.4 1.4-1.2 1.6l1.3 1.9h-1.2zm-.9-.9h1c.6 0 1-.3 1-.9 0-.5-.4-.8-1-.8h-1z"/></g><g fill="#fff"><path d="m26.5 217.1c0 3-2.3 5.1-5.5 5.1h-3.7v-10.2h3.7c3.2 0 5.5 2.1 5.5 5.1zm-2 0c.1-1.8-1.3-3.2-3.1-3.3-.1 0-.3 0-.4 0h-1.7v6.5h1.7c1.8.2 3.3-1.1 3.5-2.9 0-.1 0-.2 0-.3z"/><path d="m34.8 219.2h-5.3c.1.9.9 1.5 1.8 1.4.6.1 1.2-.3 1.5-.8l1.7.8c-.7 1.1-1.9 1.8-3.2 1.7-2 0-3.6-1.7-3.6-3.7s1.7-3.6 3.7-3.6c1.9 0 3.4 1.4 3.5 3.3v.4c-.1.2-.1.5-.1.5zm-1.8-1.4c-.1-.8-.8-1.4-1.7-1.3-.8-.1-1.6.5-1.8 1.3z"/><path d="m36.2 211.7h1.9v10.4h-1.9z"/><path d="m45.3 221.9c-.6.3-1.3.5-2 .4-1.8 0-2.7-.9-2.7-2.8v-2.8h-1.3v-1.4c1-.1 1.6-.8 1.7-2.1h1.5v1.9h2.4v1.6h-2.4v2.7c0 .9.3 1.2 1.1 1.2.4 0 .8-.1 1.2-.4z"/><path d="m52.6 217.8v4.3h-1.4l-.3-.9c-.6.8-1.5 1.2-2.4 1.1-1.6 0-2.6-.8-2.6-2.2s1-2.2 2.7-2.2c.7 0 1.4.1 2 .3v-.3c.1-.7-.5-1.3-1.2-1.4-.1 0-.2 0-.3 0-.7 0-1.4.2-1.9.6l-1-1.3c.9-.6 1.9-.9 3-.9 2.2.1 3.4 1.2 3.4 2.9zm-1.8 1.8v-.2c-.5-.2-1-.3-1.5-.3-.9 0-1.4.3-1.4.9s.4.9 1.3.9c.8.1 1.5-.5 1.6-1.3z"/><path d="m66.9 212v10.1h-1.9v-4.2h-5v4.2h-1.9v-10.1h1.9v4.2h4.9v-4.2z"/><path d="m68.5 218.6c0-2 1.6-3.6 3.6-3.6h.2c2-.1 3.7 1.4 3.8 3.3v.3c-.1 2.1-1.9 3.8-4 3.6-1.9 0-3.5-1.6-3.6-3.6zm5.8 0c.1-1-.7-1.9-1.7-1.9-.1 0-.2 0-.2 0-1.1 0-1.9.9-1.9 1.9 0 1.1.9 1.9 1.9 1.9 1 .1 1.9-.8 1.9-1.9z"/><path d="m83 221.9c-.6.3-1.3.5-2 .4-1.8 0-2.7-.9-2.7-2.8v-2.8h-1.3v-1.4c1-.1 1.6-.8 1.7-2.1h1.5v1.9h2.4v1.6h-2.4v2.7c0 .9.3 1.2 1.1 1.2.4 0 .8-.1 1.2-.4z"/><path d="m90.9 219.2h-5.3c.1.9.9 1.5 1.8 1.4.6.1 1.2-.3 1.6-.8l1.7.8c-.7 1.1-1.9 1.8-3.2 1.7-2 0-3.6-1.7-3.6-3.7s1.7-3.6 3.7-3.6c1.9 0 3.4 1.4 3.5 3.3v.4c-.1.2-.2.5-.2.5zm-1.8-1.4c-.1-.8-.8-1.4-1.6-1.3-.8-.1-1.6.5-1.8 1.3z"/><path d="m92.3 211.7h1.9v10.4h-1.9z"/><path d="m95.6 220.5 1.7-.5c.1.5.6.9 1.1.8.6 0 1-.3 1-.7s-.3-.7-1-.8l-.7-.2c-1.3-.3-2-1-2-2.1 0-1.3 1-2.2 2.7-2.2 2.2 0 2.7 1.5 2.7 1.5l-1.6.5c-.2-.4-.6-.7-1-.6-.6 0-.9.2-.9.6s.3.6 1 .8l.7.2c1.1.1 1.9 1 1.9 2.1 0 1.4-1.1 2.2-2.8 2.2-1.3.4-2.4-.4-2.8-1.6z"/><path d="m113.6 218.6c.1 1.9-1.3 3.5-3.2 3.7-.1 0-.1 0-.2 0-.9 0-1.8-.4-2.4-1.1l-.3 1h-1.4v-10.5h1.9v4.1c.6-.6 1.4-1 2.2-.9 1.9 0 3.4 1.5 3.4 3.3zm-1.9 0c.1-1-.6-1.8-1.6-1.9-.1 0-.1 0-.2 0-1.1.1-1.9 1-1.8 2.1.1 1 .8 1.7 1.8 1.8 1-.1 1.8-.9 1.8-2z"/><path d="m114.5 224.9.6-1.6c.2.2.5.3.8.3.4 0 .8-.2.9-.7l.4-1-3-6.9h2.1l1.8 4.6.1.8.1-.8 1.8-4.6h2.1l-3.6 8.3c-.6 1.4-1.3 2-2.6 2-.4.1-1-.1-1.5-.4z"/><path d="m127.3 212h1.6l3.9 5.7 3.9-5.7h1.6v10.1h-1.9v-6.7l-3.3 4.8h-.7l-3.2-4.7v6.7h-1.9z"/><path d="m146.5 217.8v4.3h-1.4l-.3-.9c-.6.8-1.5 1.2-2.4 1.1-1.6 0-2.6-.8-2.6-2.2s1-2.2 2.7-2.2c.7 0 1.4.1 2 .3v-.3c.1-.7-.5-1.3-1.2-1.4-.1 0-.2 0-.3 0-.7 0-1.4.2-1.9.6l-1-1.3c.9-.6 1.9-.9 3-.9 2.2.1 3.4 1.2 3.4 2.9zm-1.9 1.8v-.2c-.5-.2-1-.3-1.5-.3-.9 0-1.4.3-1.4.9s.4.9 1.3.9c.8.1 1.6-.5 1.6-1.3z"/><path d="m148.2 215.1h1.4l.3 1.3c.4-.9 1.4-1.5 2.4-1.4h.4l-.1 1.9h-.3c-1.6 0-2.3.7-2.3 2.5v2.7h-1.9z"/><path d="m153.9 215.1h1.5l.3 1.3c.4-.9 1.4-1.5 2.4-1.4h.4l-.1 1.9h-.3c-1.6 0-2.3.7-2.3 2.5v2.7h-1.8z"/><path d="m159.5 212.9c0-.6.5-1.1 1.1-1.1s1.1.5 1.1 1.1-.5 1.1-1.1 1.1c0 0 0 0-.1 0-.4 0-1-.4-1-1.1zm.2 2.2h1.9v7h-1.9z"/><path d="m163 218.6c0-2 1.6-3.7 3.6-3.7h.2c2-.1 3.7 1.3 3.8 3.3v.4c-.1 2.1-1.9 3.8-4 3.6-1.9 0-3.5-1.6-3.6-3.6zm5.8 0c.1-1-.7-1.9-1.7-1.9-.1 0-.2 0-.2 0-1.1 0-1.9.9-1.9 1.9 0 1.1.9 1.9 1.9 1.9 1 .1 1.9-.8 1.9-1.9z"/><path d="m177.4 221.9c-.6.3-1.3.5-2 .4-1.8 0-2.7-.9-2.7-2.8v-2.8h-1.3v-1.4c1.1-.1 1.6-.8 1.7-2.1h1.5v1.9h2.4v1.6h-2.4v2.7c0 .9.3 1.2 1.1 1.2.4 0 .8-.1 1.2-.4z"/><path d="m184 221.9c-.6.3-1.3.5-2 .4-1.8 0-2.7-.9-2.7-2.8v-2.8h-1.3v-1.4c1-.1 1.6-.8 1.7-2.1h1.5v1.9h2.4v1.6h-2.4v2.7c0 .9.3 1.2 1.1 1.2.4 0 .8-.1 1.2-.4z"/><path d="m16.3 229.9h1.2l2.4 5.8.1.3.1-.3 2.4-5.8h1.2l-3.1 7.2h-1.2z"/><path d="m24.4 230.6c0-.4.3-.7.6-.7h.1c.4 0 .7.3.7.6v.1c0 .4-.3.7-.6.7-.4 0-.7-.3-.8-.7zm.2 1.6h1.1v5h-1.1z"/><path d="m26.8 234.6c0-1.4 1.1-2.5 2.5-2.6h.2c.9 0 1.8.5 2.2 1.3l-1 .4c-.2-.5-.7-.8-1.2-.8-.9 0-1.6.7-1.6 1.6s.7 1.6 1.6 1.6c.6 0 1.1-.3 1.4-.8l1 .4c-.4.9-1.3 1.4-2.3 1.4-1.4.1-2.5-1-2.6-2.4-.2.1-.2 0-.2-.1z"/><path d="m36.3 237c-.4.2-.9.3-1.4.3-1.2 0-1.8-.6-1.8-1.9v-2.3h-.9v-.8c.8 0 1.1-.5 1.2-1.5h.8v1.4h1.8v.9h-1.8v2.2c0 .7.2 1 .9 1 .3 0 .6-.1.9-.3z"/><path d="m37 234.6c0-1.4 1.1-2.6 2.5-2.6h.2c1.4-.1 2.6 1 2.7 2.4v.2c0 1.5-1.2 2.7-2.7 2.7s-2.7-1.2-2.7-2.7zm4.3 0c.1-.8-.6-1.6-1.4-1.6-.1 0-.1 0-.2 0-.9 0-1.6.7-1.6 1.6s.7 1.6 1.6 1.6c.9.1 1.6-.7 1.6-1.6z"/><path d="m43.6 232.1h.8l.2.9c.3-.7 1.1-1.1 1.8-1h.3l-.1 1.1h-.2c-1.2 0-1.7.6-1.7 1.9v2h-1.1z"/><path d="m47.4 230.6c0-.4.3-.7.6-.7h.1c.4 0 .7.3.7.6v.1c0 .4-.3.7-.6.7-.4 0-.7-.3-.8-.7zm.2 1.6h1.1v5h-1z"/><path d="m54.4 234v3.2h-.8l-.2-.7c-.4.5-1.1.8-1.7.8-1.2 0-1.8-.6-1.8-1.6s.7-1.6 2-1.6c.5 0 1 .1 1.5.3v-.3c.1-.5-.3-1.1-.9-1.1-.1 0-.2 0-.3 0-.5 0-1 .1-1.5.4l-.6-.8c.6-.4 1.3-.6 2.1-.6 1.1-.1 2 .6 2.2 1.7zm-1 1.3v-.2c-.4-.2-.8-.2-1.2-.2-.8 0-1.2.2-1.2.7s.4.7 1.1.7c.6.1 1.2-.3 1.3-1z"/><path d="m58.1 233.5c0-2 1.5-3.7 3.5-3.7h.2c2-.1 3.7 1.4 3.8 3.4v.3c-.1 2.1-1.9 3.7-4 3.6-1.9-.1-3.4-1.7-3.5-3.6zm6.4 0c.1-1.4-1-2.6-2.4-2.7-.1 0-.2 0-.3 0-1.5 0-2.7 1.2-2.7 2.6 0 1.5 1.2 2.7 2.6 2.7 1.5.2 2.8-1 2.8-2.6z"/><path d="m66.6 234.6c0-1.4 1.1-2.5 2.5-2.6h.1c.9 0 1.8.5 2.2 1.3l-1 .4c-.2-.5-.7-.7-1.2-.7-.9.1-1.5.9-1.5 1.8.1.8.7 1.4 1.4 1.5.6 0 1.1-.3 1.4-.8l1 .4c-.4.9-1.3 1.4-2.3 1.4-1.4 0-2.5-1.1-2.6-2.4 0-.2 0-.2 0-.3z"/><path d="m77.2 235h-3.9c.1.8.7 1.3 1.5 1.3.5 0 1-.2 1.3-.7l.9.4c-.5.8-1.3 1.3-2.3 1.2-1.4 0-2.6-1.2-2.6-2.6s1.2-2.6 2.6-2.6c1.3 0 2.4 1 2.4 2.3v.3c.1.2.1.3.1.4zm-1-.9c0-.7-.6-1.2-1.3-1.2 0 0 0 0-.1 0-.7-.1-1.4.5-1.5 1.2z"/><path d="m82.6 234v3.2h-.8l-.2-.7c-.4.5-1.1.8-1.7.8-1.2 0-1.8-.6-1.8-1.6s.7-1.6 2-1.6c.5 0 1 .1 1.5.3v-.3c.1-.5-.3-1.1-.9-1.1-.1 0-.2 0-.4 0-.5 0-1 .1-1.4.4l-.6-.8c.6-.4 1.3-.6 2.1-.6 1.1-.1 2 .6 2.2 1.7-.1.1 0 .2 0 .3zm-1 1.3v-.2c-.4-.2-.8-.2-1.2-.2-.8 0-1.2.2-1.2.7s.4.7 1.1.7c.6.1 1.1-.3 1.3-1z"/><path d="m84 232.1h.8l.2.7c.4-.6 1.1-.9 1.8-.8 1-.1 1.9.7 2 1.8v.3 3h-1.1v-2.8c0-.8-.4-1.3-1.2-1.3-.7 0-1.4.5-1.4 1.3v.2 2.7h-1.1z"/><path d="m98.2 232.4c0 1.4-1.1 2.5-2.4 2.5-.1 0-.2 0-.3 0h-1.5v2.3h-1.1v-7.2h2.6c1.3-.2 2.6.8 2.7 2.1zm-1.2 0c0-.8-.6-1.5-1.4-1.5-.1 0-.1 0-.2 0h-1.5v2.9h1.5c.8.1 1.5-.5 1.6-1.2 0-.1.1-.1 0-.2z"/><path d="m99.1 234.6c0-1.4 1.1-2.6 2.5-2.6h.2c1.4-.1 2.6 1 2.7 2.4v.2c0 1.5-1.2 2.7-2.7 2.7s-2.7-1.2-2.7-2.7zm4.3 0c.1-.8-.6-1.6-1.4-1.6-.1 0-.1 0-.2 0-.9 0-1.6.7-1.6 1.6s.7 1.6 1.6 1.6c.9.1 1.6-.6 1.6-1.6 0 .1 0 .1 0 0z"/><path d="m105.5 230.6c0-.4.3-.7.6-.7h.1c.4 0 .7.3.7.6v.1c0 .4-.3.7-.6.7-.4 0-.7-.3-.8-.7zm.2 1.6h1.1v5h-1.1z"/><path d="m108.3 232.1h.8l.2.7c.4-.6 1.1-.9 1.8-.8 1-.1 1.9.7 2 1.8v.3 3h-1.1v-2.8c0-.8-.4-1.3-1.2-1.3-.7 0-1.4.5-1.4 1.3v.2 2.7h-1.1z"/><path d="m118 237c-.4.2-.9.3-1.4.3-1.2 0-1.8-.6-1.8-1.9v-2.3h-.9v-.8c.8 0 1.1-.5 1.2-1.5h.8v1.4h1.8v.9h-1.8v2.2c0 .7.2 1 .9 1 .3 0 .6-.1.9-.3z"/><path d="m123.7 235h-3.9c.1.8.7 1.3 1.5 1.3.5 0 1-.2 1.3-.7l.9.4c-.5.8-1.3 1.3-2.3 1.2-1.4 0-2.6-1.2-2.6-2.6s1.2-2.6 2.6-2.6c1.3 0 2.4 1 2.4 2.3v.3c.1.2.1.3.1.4zm-1-.9c0-.7-.6-1.2-1.3-1.2h-.1c-.7-.1-1.4.5-1.5 1.2z"/><path d="m131.9 237.1-1.7-2.5h-1.6v2.5h-1.1v-7.2h2.7c1.7 0 2.8.9 2.8 2.4 0 1-.7 2-1.7 2.2l1.9 2.7zm-3.2-3.5h1.6c1 0 1.6-.5 1.6-1.4s-.6-1.4-1.6-1.4h-1.6z"/><path d="m139.1 235h-3.9c.1.8.7 1.3 1.5 1.3.5 0 1-.2 1.3-.7l.9.4c-.5.8-1.3 1.3-2.3 1.2-1.4 0-2.6-1.2-2.6-2.6s1.2-2.6 2.6-2.6c1.3 0 2.4 1 2.4 2.3v.3c.1.2.1.3.1.4zm-1-.9c0-.7-.6-1.2-1.3-1.2h-.1c-.7-.1-1.4.5-1.5 1.2z"/><path d="m140 236 .9-.3c.1.4.5.7.9.6.5 0 .8-.2.8-.6s-.2-.5-.8-.6l-.6-.1c-.7-.1-1.3-.7-1.3-1.4 0-.9.7-1.5 1.8-1.5.7-.1 1.5.3 1.8 1l-.9.3c-.1-.3-.5-.5-.8-.5-.5 0-.8.2-.8.5s.2.5.8.6l.6.1c.7.1 1.3.7 1.3 1.4 0 .9-.8 1.5-1.9 1.5-.8.3-1.6-.2-1.8-1z"/><path d="m144.6 234.6c0-1.5 1.1-2.7 2.6-2.8s2.7 1.1 2.8 2.6c0 1.5-1.1 2.7-2.6 2.8h-.1c-1.4.1-2.6-1-2.7-2.4 0 0 0-.1 0-.2zm4.3 0c.1-.8-.6-1.6-1.4-1.6-.1 0-.1 0-.2 0-.9 0-1.6.7-1.6 1.6s.7 1.6 1.6 1.6 1.6-.6 1.6-1.6c0 .1 0 .1 0 0z"/><path d="m151.1 232.1h.8l.2.9c.3-.7 1-1.1 1.8-1h.3l-.1 1.1h-.2c-1.2 0-1.7.6-1.7 1.9v2h-1.1z"/><path d="m158.7 237c-.4.2-.9.3-1.4.3-1.2 0-1.8-.6-1.8-1.9v-2.3h-.9v-.8c.8 0 1.1-.5 1.2-1.5h.8v1.4h1.8v.9h-1.8v2.2c0 .7.2 1 .9 1 .3 0 .6-.1.9-.3z"/></g></g></svg>