<svg viewBox="0 0 133 133" xmlns="http://www.w3.org/2000/svg"><g fill="#fff"><path d="m66.5 133a66.5 66.5 0 1 1 66.5-66.5 66.53 66.53 0 0 1 -66.5 66.5zm0-129.5a63 63 0 1 0 63 63 63.06 63.06 0 0 0 -63-63z"/><path d="m41.1 47.5c0 2.9-2.1 4.7-5.3 4.7h-2.3v4h-2.6v-13.4h5c3.2 0 5.2 1.8 5.2 4.7zm-2.6 0c0-1.5-1-2.3-2.6-2.3h-2.4v4.7h2.4c1.6-.1 2.6-1 2.6-2.4z"/><path d="m53.7 53.3h-6.2l-1.1 2.9h-2.8l5.5-13.5h3l5.5 13.5h-2.8zm-.9-2.2-2-5.2-.2-.6-.1.6-2 5.2z"/><path d="m61.3 50.5v-7.7h2.6v7.8a3.16 3.16 0 0 0 3.3 3.5c2.1 0 3.3-1.3 3.3-3.5v-7.8h2.5v7.7c0 3.6-2.2 6-5.9 6a5.62 5.62 0 0 1 -5.8-6z"/><path d="m78.3 53 2.3-.7a2.5 2.5 0 0 0 2.4 2c1.3 0 2.2-.6 2.2-1.6s-.6-1.5-1.9-1.9l-1.5-.4c-2.2-.6-3.3-1.9-3.3-3.8 0-2.4 1.7-3.8 4.4-3.8 3.8 0 4.5 3 4.5 3l-2.3.8a2.1 2.1 0 0 0 -2.2-1.6c-1.2 0-2 .6-2 1.5s.7 1.5 2 1.9l1.6.5c2.1.6 3.2 1.9 3.2 3.8 0 2.4-1.9 4-4.7 4a5.12 5.12 0 0 1 -4.7-3.7z"/><path d="m102.7 53.9v2.3h-9.3v-13.4h9.2v2.3h-6.6v3.3h6.2v2.2h-6.2v3.4h6.7z"/><path d="m46.8 76.5h-3.5l-.6 1.6h-1.6l3.1-7.6h1.7l3.1 7.6h-1.6zm-.5-1.3-1.1-3-.1-.3-.1.3-1.1 3z"/><path d="m51.8 70.5h1.3l4.1 5.2v-5.2h1.4v7.6h-1.2l-4.1-5.2v5.2h-1.4v-7.6z"/><path d="m69.2 74.3a3.82 3.82 0 0 1 -4.1 3.8h-2.7v-7.6h2.8a3.85 3.85 0 0 1 4 3.8zm-1.5 0a2.44 2.44 0 0 0 -2.6-2.5h-1.3v4.9h1.3a2.31 2.31 0 0 0 2.6-2.4z"/><path d="m83.1 76c0 1.3-1 2.2-2.7 2.2h-3.2v-7.6h3c1.6 0 2.6.8 2.6 2.1a1.54 1.54 0 0 1 -1.1 1.6 1.57 1.57 0 0 1 1.4 1.7zm-4.5-4.2v1.9h1.6c.8 0 1.2-.3 1.2-1s-.4-.9-1.2-.9zm3 4.1c0-.6-.5-1-1.4-1h-1.6v2h1.7c.9 0 1.3-.4 1.3-1z"/><path d="m91.4 76.8v1.3h-5.3v-7.6h5.2v1.3h-3.7v1.9h3.5v1.2h-3.5v1.9z"/><path d="m32.6 91.5h-1.4v2.5h-1.5v-7.6h2.9c1.8 0 3 1 3 2.6a2.26 2.26 0 0 1 -1.7 2.3l1.8 2.7h-1.7zm-1.4-1.4h1.5c.9 0 1.5-.5 1.5-1.2s-.5-1.2-1.5-1.2h-1.5z"/><path d="m44 92.7v1.3h-5.3v-7.6h5.2v1.3h-3.7v1.9h3.5v1.2h-3.5v1.9z"/><path d="m46.6 86.4h1.6l1.6 5.5.1.5.1-.5 1.5-5.5h1.5l1.5 5.5.1.5.1-.5 1.6-5.5h1.5l-2.4 7.6h-1.5l-1.6-5.7-.1-.4-.1.4-1.6 5.7h-1.5z"/><path d="m64.2 92.4h-3.5l-.6 1.6h-1.6l3.1-7.6h1.7l3.1 7.6h-1.6zm-.5-1.3-1.1-3-.1-.3-.1.3-1.1 3z"/><path d="m72 91.5h-1.4v2.5h-1.5v-7.6h2.9c1.8 0 3 1 3 2.6a2.26 2.26 0 0 1 -1.7 2.3l1.8 2.7h-1.6zm-1.4-1.4h1.5c.9 0 1.5-.5 1.5-1.2s-.5-1.2-1.5-1.2h-1.5z"/><path d="m85 90.2a3.82 3.82 0 0 1 -4.1 3.8h-2.7v-7.6h2.8a3.79 3.79 0 0 1 4 3.8zm-1.5 0a2.44 2.44 0 0 0 -2.6-2.5h-1.3v4.9h1.3a2.42 2.42 0 0 0 2.6-2.4z"/><path d="m93.5 92.7v1.3h-5.3v-7.6h5.2v1.3h-3.7v1.9h3.5v1.2h-3.5v1.9z"/><path d="m103.6 90.2a3.82 3.82 0 0 1 -4.1 3.8h-2.7v-7.6h2.8a3.79 3.79 0 0 1 4 3.8zm-1.5 0a2.44 2.44 0 0 0 -2.6-2.5h-1.3v4.9h1.3a2.42 2.42 0 0 0 2.6-2.4z"/></g></svg>