<?xml version="1.0" encoding="utf-8"?>
<!-- Generator: Adobe Illustrator 27.7.0, SVG Export Plug-In . SVG Version: 6.00 Build 0)  -->
<svg version="1.1" id="Layer_1" xmlns="http://www.w3.org/2000/svg" xmlns:xlink="http://www.w3.org/1999/xlink" x="0px" y="0px"
	 viewBox="0 0 160 600" style="enable-background:new 0 0 160 600;" xml:space="preserve">
<style type="text/css">
	.st0{fill:#FFFFFF;}
</style>
<g>
	<path class="st0" d="M49.4,85c1.5,1.5,3.7,2.8,6.6,2.8c2.4,0,3.6-1.1,3.6-2.3c0-1.5-1.8-2.1-4.2-2.6c-3.4-0.8-7.7-1.7-7.7-6.3
		c0-3.4,3-6.2,7.8-6.2c3.3,0,6,1,8.1,2.9l-2.4,3.2c-1.7-1.6-3.9-2.3-5.9-2.3s-3,0.9-3,2.1c0,1.4,1.7,1.8,4.1,2.4
		c3.4,0.8,7.8,1.8,7.8,6.4c0,3.8-2.7,6.6-8.3,6.6c-4,0-6.8-1.3-8.8-3.3L49.4,85z"/>
	<path class="st0" d="M67.4,87.6v-7.8h-2.5v-3.4h2.5v-4.1h4v4.1h3v3.4h-3v6.8c0,0.9,0.5,1.6,1.4,1.6c0.6,0,1.1-0.2,1.4-0.4l0.8,3
		c-0.6,0.5-1.6,1-3.3,1C68.9,91.7,67.4,90.2,67.4,87.6z"/>
	<path class="st0" d="M86.1,89.7c-1,1.2-2.8,1.9-4.7,1.9c-2.4,0-5.2-1.6-5.2-5c0-3.5,2.8-4.8,5.2-4.8c2,0,3.8,0.6,4.7,1.8v-2.1
		c0-1.5-1.3-2.5-3.3-2.5c-1.6,0-3.1,0.6-4.4,1.8l-1.5-2.6c1.8-1.6,4.2-2.4,6.5-2.4c3.4,0,6.5,1.4,6.5,5.7v9.7H86L86.1,89.7
		L86.1,89.7z M86.1,85.8c-0.7-0.9-1.9-1.3-3.2-1.3c-1.5,0-2.8,0.8-2.8,2.3c0,1.4,1.3,2.2,2.8,2.2c1.3,0,2.5-0.4,3.2-1.3V85.8z"/>
	<path class="st0" d="M93.9,76.3h3.9v2c1.1-1.3,2.9-2.4,4.8-2.4v3.8c-0.3-0.1-0.7-0.1-1.1-0.1c-1.3,0-3,0.7-3.7,1.7v9.9h-3.9
		C93.9,91.2,93.9,76.3,93.9,76.3z"/>
	<path class="st0" d="M105.9,87.6v-7.8h-2.5v-3.4h2.5v-4.1h4v4.1h3v3.4h-3v6.8c0,0.9,0.5,1.6,1.4,1.6c0.6,0,1.1-0.2,1.4-0.4l0.8,3
		c-0.6,0.5-1.6,1-3.3,1C107.3,91.7,105.9,90.2,105.9,87.6z"/>
	<path class="st0" d="M33.1,108.1c3.1,0,4.9,1.3,5.9,2.7l-2.6,2.4c-0.7-1.1-1.8-1.6-3.2-1.6c-2.4,0-4.1,1.7-4.1,4.3s1.7,4.4,4.1,4.4
		c1.4,0,2.4-0.6,3.2-1.6l2.6,2.4c-1,1.4-2.9,2.7-5.9,2.7c-4.6,0-7.9-3.3-7.9-7.9C25.2,111.4,28.5,108.1,33.1,108.1z"/>
	<path class="st0" d="M40.7,116c0-4.2,3-7.8,7.9-7.8c5,0,7.9,3.6,7.9,7.8c0,4.3-3,7.9-7.9,7.9S40.7,120.3,40.7,116z M52.4,116
		c0-2.3-1.4-4.3-3.8-4.3c-2.4,0-3.8,2-3.8,4.3c0,2.4,1.4,4.4,3.8,4.4C51,120.3,52.4,118.3,52.4,116z"/>
	<path class="st0" d="M58.5,116c0-4.2,3-7.8,7.9-7.8c5,0,7.9,3.6,7.9,7.8c0,4.3-3,7.9-7.9,7.9C61.4,123.9,58.5,120.3,58.5,116z
		 M70.2,116c0-2.3-1.4-4.3-3.8-4.3s-3.8,2-3.8,4.3c0,2.4,1.4,4.4,3.8,4.4C68.8,120.3,70.2,118.3,70.2,116z"/>
	<path class="st0" d="M83,117.7l-1.8,1.9v3.8h-3.9v-20.7h3.9v12.4l5.7-6.7h4.8l-5.9,6.8l6.1,8.2H87L83,117.7z"/>
	<path class="st0" d="M93.4,103.9c0-1.3,1.1-2.4,2.4-2.4s2.4,1.1,2.4,2.4s-1.1,2.4-2.4,2.4S93.4,105.2,93.4,103.9z M93.8,108.5h3.9
		v15h-3.9V108.5z"/>
	<path class="st0" d="M111.8,114.4c0-2.1-1.1-2.8-2.8-2.8c-1.5,0-2.8,0.9-3.4,1.8v10.1h-3.9v-15h3.9v2c1-1.1,2.8-2.3,5.2-2.3
		c3.3,0,4.9,1.9,4.9,4.8v10.6h-3.9C111.8,123.6,111.8,114.4,111.8,114.4z"/>
	<path class="st0" d="M121.1,124.5c1.2,1.3,2.8,1.9,4.7,1.9s4.1-0.8,4.1-3.8V121c-1.2,1.5-2.8,2.4-4.6,2.4c-3.8,0-6.6-2.6-6.6-7.6
		c0-4.9,2.8-7.6,6.6-7.6c1.8,0,3.4,0.8,4.6,2.3v-1.9h4v14c0,5.7-4.4,7.1-8.1,7.1c-2.6,0-4.6-0.6-6.4-2.2L121.1,124.5z M129.9,113.3
		c-0.7-1-2.1-1.7-3.4-1.7c-2.2,0-3.8,1.6-3.8,4.1c0,2.6,1.6,4.1,3.8,4.1c1.3,0,2.7-0.7,3.4-1.7V113.3z"/>
	<path class="st0" d="M50.1,144.1h-2.5v-3.4h2.5v-0.8c0-3.3,2.1-5.2,5.1-5.2c1.1,0,2.1,0.2,2.9,0.6l-0.8,2.8
		c-0.3-0.2-0.8-0.3-1.3-0.3c-1.1,0-1.9,0.7-1.9,2.2v0.7h3v3.4h-3v11.5h-4V144.1z"/>
	<path class="st0" d="M59.3,140.7h3.9v2c1.1-1.3,2.9-2.4,4.8-2.4v3.8c-0.3-0.1-0.7-0.1-1.1-0.1c-1.3,0-3,0.7-3.7,1.7v9.9h-3.9V140.7
		z"/>
	<path class="st0" d="M69.5,148.2c0-4.2,3-7.8,7.9-7.8c5,0,7.9,3.6,7.9,7.8c0,4.3-3,7.9-7.9,7.9C72.5,156.1,69.5,152.5,69.5,148.2z
		 M81.3,148.2c0-2.3-1.4-4.3-3.8-4.3s-3.8,2-3.8,4.3c0,2.4,1.4,4.4,3.8,4.4C79.9,152.5,81.3,150.5,81.3,148.2z"/>
	<path class="st0" d="M106.9,146.2c0-1.4-0.6-2.4-2.2-2.4c-1.4,0-2.5,0.9-3.1,1.7v10.1h-4v-9.5c0-1.4-0.6-2.4-2.2-2.4
		c-1.4,0-2.5,0.9-3.1,1.8v10.1h-3.9v-15h3.9v2c0.6-0.9,2.6-2.3,4.9-2.3c2.2,0,3.6,1,4.2,2.7c0.9-1.4,2.9-2.7,5.1-2.7
		c2.8,0,4.4,1.5,4.4,4.5v10.8h-4C106.9,155.6,106.9,146.2,106.9,146.2z"/>
	<path class="st0" d="M23.8,255.7v-15.3h2.9v1.4c0.9-1.1,2.1-1.7,3.4-1.7c2.9,0,4.9,2.1,4.9,5.8s-2.1,5.8-4.9,5.8
		c-1.3,0-2.5-0.6-3.4-1.7v5.7H23.8z M29.2,242.7c-0.9,0-2,0.6-2.5,1.3v3.9c0.5,0.7,1.6,1.3,2.5,1.3c1.7,0,2.8-1.3,2.8-3.2
		C32,244,30.9,242.7,29.2,242.7z"/>
	<path class="st0" d="M42.2,240.1c3.3,0,5.6,2.5,5.6,6.1v0.6h-8.3c0.2,1.4,1.3,2.6,3.2,2.6c1,0,2.3-0.4,3-1.1l1.3,1.9
		c-1.1,1-2.9,1.5-4.6,1.5c-3.4,0-5.9-2.3-5.9-5.8C36.5,242.7,38.9,240.1,42.2,240.1z M39.5,244.9H45c-0.1-1.1-0.8-2.5-2.7-2.5
		C40.4,242.4,39.6,243.8,39.5,244.9z"/>
	<path class="st0" d="M49.9,240.4h2.9v1.5c0.8-1,2.2-1.8,3.5-1.8v2.9c-0.2,0-0.5-0.1-0.8-0.1c-1,0-2.3,0.6-2.7,1.3v7.3h-2.9V240.4z"
		/>
	<path class="st0" d="M64.1,255.7v-15.3H67v1.4c0.9-1.1,2.1-1.7,3.4-1.7c2.9,0,4.9,2.1,4.9,5.8s-2.1,5.8-4.9,5.8
		c-1.3,0-2.5-0.6-3.4-1.7v5.7H64.1z M69.5,242.7c-0.9,0-2,0.6-2.5,1.3v3.9c0.5,0.7,1.6,1.3,2.5,1.3c1.7,0,2.8-1.3,2.8-3.2
		C72.3,244,71.2,242.7,69.5,242.7z"/>
	<path class="st0" d="M76.8,245.9c0-3.2,2.2-5.8,5.9-5.8c3.7,0,5.9,2.7,5.9,5.8c0,3.2-2.2,5.8-5.9,5.8
		C79,251.8,76.8,249.1,76.8,245.9z M85.6,245.9c0-1.7-1-3.2-2.9-3.2c-1.8,0-2.8,1.5-2.8,3.2s1,3.2,2.8,3.2
		C84.5,249.2,85.6,247.7,85.6,245.9z"/>
	<path class="st0" d="M90.8,240.4h2.9v1.5c0.8-1,2.2-1.8,3.5-1.8v2.9c-0.2,0-0.5-0.1-0.8-0.1c-1,0-2.3,0.6-2.7,1.3v7.3h-2.9V240.4z"
		/>
	<path class="st0" d="M99.6,248.7v-5.8h-1.8v-2.6h1.8v-3h2.9v3h2.3v2.6h-2.3v5c0,0.7,0.4,1.2,1,1.2c0.4,0,0.9-0.2,1-0.3l0.6,2.2
		c-0.4,0.4-1.2,0.7-2.4,0.7C100.7,251.8,99.6,250.7,99.6,248.7z"/>
	<path class="st0" d="M106.5,237c0-1,0.8-1.7,1.7-1.7c1,0,1.7,0.8,1.7,1.7s-0.8,1.7-1.7,1.7S106.5,238,106.5,237z M106.8,240.4h2.9
		v11.1h-2.9V240.4z"/>
	<path class="st0" d="M111.9,245.9c0-3.2,2.2-5.8,5.9-5.8c3.7,0,5.9,2.7,5.9,5.8c0,3.2-2.2,5.8-5.9,5.8
		C114.1,251.8,111.9,249.1,111.9,245.9z M120.6,245.9c0-1.7-1-3.2-2.9-3.2s-2.8,1.5-2.8,3.2s1,3.2,2.8,3.2S120.6,247.7,120.6,245.9z
		"/>
	<path class="st0" d="M133.3,244.8c0-1.5-0.8-2.1-2-2.1c-1.1,0-2,0.6-2.5,1.3v7.5h-2.9v-11.1h2.9v1.4c0.7-0.9,2.1-1.7,3.9-1.7
		c2.4,0,3.6,1.4,3.6,3.5v7.8h-2.9v-6.6L133.3,244.8L133.3,244.8z"/>
</g>
<g>
	<path class="st0" d="M61.8,317c-1.3,0-2.1,1-2.1,2H64C63.9,318,63.3,317,61.8,317z"/>
	<path class="st0" d="M104.6,317c-1.3,0-2.1,1-2.1,2h4.3C106.7,318,106.1,317,104.6,317z"/>
	<path class="st0" d="M138.5,303h-117c-2.5,0-4.5,2-4.5,4.5v21c0,2.5,2,4.5,4.5,4.5h117c2.5,0,4.5-2,4.5-4.5v-21
		C143,305,141,303,138.5,303z M55.8,321.9c-1.2,1.4-3,2.2-5.1,2.2c-3.5,0-6.5-2.4-6.5-6.3c0-3.8,2.8-6.1,6.5-6.1c2.5,0,4,1.2,5,2.7
		l-2.1,1.2c-0.6-0.9-1.7-1.5-2.8-1.5c-2.2,0-3.8,1.6-3.8,3.9s1.7,3.9,3.8,3.9c1,0,2.1-0.5,2.5-0.9v-1.5h-3.2v-2.2h5.7L55.8,321.9
		L55.8,321.9z M66.2,320.4h-6.5c0.2,1,1,2,2.5,2c0.8,0,1.8-0.3,2.2-0.9l1,1.5c-0.9,0.8-2.2,1.2-3.6,1.2c-2.7,0-4.7-1.8-4.7-4.5
		c0-2.6,1.8-4.5,4.5-4.5c2.5,0,4.3,2,4.3,4.8L66.2,320.4L66.2,320.4z M70.7,324.1c-1.7,0-2.4-0.9-2.4-2.4v-4.5h-1.5v-2h1.5v-2.4h2.2
		v2.4h1.8v2h-1.8v3.9c0,0.6,0.3,0.9,0.8,0.9c0.3,0,0.6-0.1,0.8-0.3l0.5,1.8C72.3,324,71.8,324.1,70.7,324.1z M82.5,324.1
		c-2.8,0-4.7-2.1-4.7-4.5s1.8-4.5,4.7-4.5c2.8,0,4.7,2.1,4.7,4.5S85.4,324.1,82.5,324.1z M93.3,315.3v2h-1.8v6.8h-2.2v-6.8h-1.5v-2
		h1.5v-0.5c0-1.9,1.2-3,3-3c0.6,0,1.2,0.2,1.7,0.3l-0.5,1.6c-0.2-0.1-0.5-0.1-0.8-0.1c-0.6,0-1,0.4-1,1.2v0.5H93.3z M99.3,313.8
		c-0.2-0.1-0.5-0.1-0.8-0.1c-0.6,0-1,0.5-1,1.2v0.5h1.8v1.9h-1.8v6.8h-2.2v-6.8h-1.5v-2h1.5v-0.5c0-1.9,1.2-3,3-3
		c0.6,0,1.2,0.2,1.7,0.3L99.3,313.8z M108.9,320.4h-6.5c0.2,1,1,2,2.5,2c0.8,0,1.8-0.3,2.2-0.9l1,1.5c-0.9,0.8-2.2,1.2-3.6,1.2
		c-2.7,0-4.7-1.8-4.7-4.5c0-2.6,1.8-4.5,4.5-4.5c2.5,0,4.3,2,4.3,4.8L108.9,320.4L108.9,320.4z M115.5,317.4c-0.2,0-0.5,0-0.6,0
		c-0.8,0-1.8,0.5-2.1,1v5.6h-2.2v-8.7h2.2v1.2c0.6-0.8,1.7-1.4,2.7-1.4V317.4L115.5,317.4z"/>
	<path class="st0" d="M82.5,317.1c-1.3,0-2.2,1.2-2.2,2.5c0,1.4,0.8,2.5,2.2,2.5s2.2-1.2,2.2-2.5S83.9,317.1,82.5,317.1z"/>
</g>
<g>
	<path class="st0" d="M39.1,220.3v4.2h-4.4v-4.1c-4.8-0.4-8.3-2.3-10.9-4.8l3.5-5c1.7,1.8,4.2,3.4,7.3,3.9v-7.2
		c-4.7-1.2-9.9-3-9.9-9.2c0-4.7,3.7-8.6,9.9-9.2v-4.3h4.4v4.4c3.7,0.4,6.9,1.8,9.3,4.1l-3.6,4.8c-1.6-1.5-3.6-2.5-5.7-3v6.4
		c4.8,1.2,10.1,3.1,10.1,9.3C49.2,215.7,45.9,219.6,39.1,220.3z M35.2,200.3v-5.8c-2.3,0.2-3.6,1.4-3.6,3.1
		C31.6,199,33.1,199.7,35.2,200.3z M38.7,214.7c2.6-0.4,3.8-1.8,3.8-3.3c0-1.7-1.6-2.5-3.8-3.1V214.7z"/>
	<path class="st0" d="M60.1,219.9v-22.3l-5.1,5.2l-3.7-3.9l9.7-9.7h5.7v30.7H60.1z"/>
	<path class="st0" d="M75.6,213c2,0,3.7,1.7,3.7,3.7c0,2-1.7,3.7-3.7,3.7s-3.7-1.7-3.7-3.7C71.9,214.7,73.6,213,75.6,213z"/>
	<path class="st0" d="M87.4,212.4c1.7,1.5,3.4,2.3,6.1,2.3c4.9,0,7.7-4.2,7.7-8.8v-0.6c-1.5,2.1-4.6,4-7.9,4
		c-5.5,0-10.5-3.4-10.5-9.9c0-6,4.8-10.5,11.8-10.5c9.3,0,13.2,7.2,13.2,15.9c0,9.2-5.2,15.8-14.3,15.8c-3.7,0-6.9-1.2-9-3.2
		L87.4,212.4z M94.9,194.4c-3.5,0-5.4,2.4-5.4,4.6c0,3.3,2.7,4.7,5.7,4.7c2.3,0,4.6-1.1,6-2.9C100.9,197.9,99.3,194.4,94.9,194.4z"
		/>
	<path class="st0" d="M115.4,212.4c1.7,1.5,3.4,2.3,6.1,2.3c4.9,0,7.7-4.2,7.7-8.8v-0.6c-1.5,2.1-4.6,4-7.9,4
		c-5.5,0-10.5-3.4-10.5-9.9c0-6,4.8-10.5,11.8-10.5c9.3,0,13.2,7.2,13.2,15.9c0,9.2-5.2,15.8-14.3,15.8c-3.7,0-6.9-1.2-9-3.2
		L115.4,212.4z M122.9,194.4c-3.5,0-5.4,2.4-5.4,4.6c0,3.3,2.7,4.7,5.7,4.7c2.3,0,4.6-1.1,6-2.9
		C128.9,197.9,127.2,194.4,122.9,194.4z"/>
</g>
</svg>
