<svg height="250" viewBox="0 0 300 250" width="300" xmlns="http://www.w3.org/2000/svg" xmlns:xlink="http://www.w3.org/1999/xlink"><linearGradient id="a"><stop offset="0" stop-color="#d49442"/><stop offset="1" stop-color="#936f44"/></linearGradient><linearGradient id="b" x1="-.000859%" x2="100.003059%" xlink:href="#a" y1="50.001903%" y2="50.001903%"/><linearGradient id="c" x1=".004324%" x2="100.002728%" xlink:href="#a" y1="50.001441%" y2="50.001441%"/><linearGradient id="d" x1="-.009087%" x2="99.99748%" xlink:href="#a" y1="50.002275%" y2="50.002275%"/><linearGradient id="e" x1="-.001105%" x2="99.997266%" xlink:href="#a" y1="50.001441%" y2="50.001441%"/><linearGradient id="f" x1="-.000146%" x2="100.001097%" xlink:href="#a" y1="50.01719%" y2="50.01719%"/><linearGradient id="g"><stop offset="0" stop-color="#a37946"/><stop offset="1" stop-color="#d49442"/></linearGradient><linearGradient id="h" x1="99.998918%" x2="-.000497%" xlink:href="#g" y1="50.0375%" y2="50.0375%"/><linearGradient id="i" x1="99.744904%" x2=".257706%" xlink:href="#g" y1="39.619105%" y2="60.37989%"/><mask id="j" fill="#fff"><path d="m8.32929496 2.1145407c-2.26457554 1.11205377-4.04388489 2.64482318-5.33792805 4.60058236-1.29404317 1.95348504-1.94328058 4.12301324-1.94328058 6.50403634 0 2.3446369.81985612 4.3731685 2.45735252 6.0924173 1.63306475 1.7192487 4.2632518 3.3225164 7.87948205 4.8098031l5.5971798 2.2263817c2.8517698 1.1302468 4.9191367 2.3241696 6.1932374 3.5726717 1.2785324 1.2507762 1.9144748 2.7175956 1.9144748 4.3936357 0 1.1757297-.2681151 2.2104627-.7999136 3.1087475-.5340144.9005588-1.2851799 1.5987194-2.2579281 2.1081264-.9683165.5094071-2.1006043.7595623-3.3946475.7595623-1.9033956 0-3.5985036-.3979742-5.0853237-1.198471-1.4801727-.8027709-3.08-2.1786248-4.79061871-4.1298357-1.71505035-1.953485-3.19079136-4.0161287-4.42722302-6.1833828-1.23864748-2.1672541-2.1803741-4.3686202-2.82961151-6.5950019h-.56946762l.56946762 18.1066914h.57389928c.11079137-.5048588.31243166-.8664468.59827338-1.08249.28584173-.2114948.71128058-.3206535 1.28517986-.3206535.30356835 0 .67804317.0363862 1.11456115.1159811.43430216.0795948.99490648.19785 1.68402878.3524915 2.43519424.5457932 4.71528059.968783 6.84912229 1.2621469 2.1316259.2888156 3.9419568.4366346 5.428777.4366346 2.6257554 0 5.0210647-.5639864 7.1925755-1.6987815 2.169295-1.1302469 3.8732662-2.6880319 5.107482-4.65971 1.2386475-1.9716782 1.8568634-4.168496 1.8568634-6.5904536 0-2.5402128-.7622447-4.7074669-2.2800864-6.5040364-1.526705-1.7988436-3.9065036-3.3407096-7.1393957-4.6324203l-5.3113381-2.0489988c-1.5244892-.5890019-2.9115971-1.21439-4.1679712-1.8761644-1.2563741-.6640484-2.206964-1.2712434-2.8539856-1.8170367-.6093525-.509407-1.0946187-1.1438917-1.45801441-1.90345398-.35896403-.76183643-.5428777-1.59417115-.5428777-2.49473003 0-1.08931238.2592518-2.06946611.77332371-2.9290905.514072-.85962438 1.2275684-1.52367285 2.1404892-1.9921454.9129209-.46847255 1.9610072-.70043468 3.1398274-.70043468 1.8657266 0 3.6605467.56398637 5.3933237 1.69878152 1.7372086 1.13479515 3.3060144 2.77217494 4.7130648 4.92351004 1.4070503 2.14906096 2.5903021 4.70746683 3.5408921 7.67521773h.5716834l-.6270791-14.59314731h-.5716835c-.115223.51168118-.2658993.85280197-.4564604 1.0256365-.1905612.17738281-.4963453.26152594-.9151367.26152594-.6470216 0-1.5067626-.13417417-2.5703597-.4070708-2.2468489-.5480674-3.9596835-.9073813-5.1407194-1.08476411-1.1788202-.17510867-2.3576403-.26607421-3.5364605-.26607421-2.7808633 0-5.3024748.55943809-7.56705034 1.67376599" fill="#fff" fill-rule="evenodd"/></mask><mask id="k" fill="#fff"><path d="m14.1902968 1.71948201c-3.0848472.8021295-5.7446709 1.80811511-7.97947126 3.02682015-1.80520683.95280575-3.15111421 1.95214388-4.03315198 2.99801439-.88660791 1.0458705-1.32534172 2.18258992-1.32534172 3.39907915 0 1.1788201.38389208 2.1382734 1.14939118 2.8827914.7654991.7423021 1.75493525 1.1145611 2.9728786 1.1145611 1.68638309 0 3.08941726-.5317986 4.20910252-1.6020432 1.11968526-1.0613813 1.79606656-2.4928057 2.03371406-4.27876255.2353624-1.82584173.3998876-2.98915108.5004307-3.48328058.0982581-.49634532.2833489-.99269065.5575576-1.48682014.3519011-.72457554.8934631-1.28296403 1.6224011-1.68181295.7197976-.40106475 1.5195728-.60048921 2.38333-.60048921 1.1379658 0 2.0200036.45867626 2.6506834 1.36938129.3130549.45646043.5278517 1.16774101.6443903 2.14270504.1211088.97053237.1782356 2.42633093.1782356 4.36739568v2.97142442c-4.2388084 1.1788202-7.6938372 2.3354821-10.36508629 3.478849-2.19823921.8752518-3.91432824 1.706187-5.15055216 2.4861582-1.23850899.7777554-2.12054676 1.5953957-2.65296852 2.4529209-.52556655.8575252-.79291997 1.8546475-.79291997 2.9980144 0 1.2209209.35418616 2.3044604 1.06027339 3.2572662.7083723.9483741 1.68866816 1.6928921 2.94545773 2.2269065 1.25678957.5340143 2.70781025.7976978 4.35763219.7976978 2.31249283 0 4.30507553-.4254389 5.97546313-1.2851799 1.6658174-.8553093 3.208241-2.2335539 4.6227005-4.1369496.3907473 1.8635108 1.0694137 3.2351079 2.0291439 4.1081439.9643004.8774676 2.2690765 1.3139856 3.9188984 1.3139856 1.4510207 0 2.9340324-.3501007 4.4421799-1.0569496 1.5150027-.7046331 3.2905036-1.8723741 5.3287877-3.5120864l-.349616-.3966331c-.5507023.3035684-.9940063.5052087-1.3253417.5960576-.3336205.0952806-.6763813.1462446-1.0305674.1462446-.5095711 0-.9620153-.1063597-1.3527626-.3168633s-.6695261-.500777-.824911-.8818993c-.159955-.3456691-.2650684-.7511655-.3244802-1.2297842-.061697-.474187-.0891178-1.2652374-.0891178-2.3687194v-13.13320863c0-1.63528058-.1668103-2.92932374-.5027159-3.88434533-.3290503-.95280575-.9300242-1.74828777-1.7914964-2.39530935-.6718111-.57168345-1.4373102-.97939568-2.3010674-1.22756834-.8637572-.24817267-1.8806142-.37447483-3.0597113-.37447483-2.4747329 0-5.2533804.40328058-8.3313723 1.19876259m-.5027159 23.58748199c-.5895485-.9195683-.8820377-2.2313381-.8820377-3.9419568 0-1.4868201.2056564-2.694446.6215395-3.6250935.4067428-.9328633 1.1128301-1.7261295 2.1182617-2.3709353 1.0008615-.6492374 2.4016106-1.2585899 4.2091025-1.8302734v8.8522303c0 1.3361438-.3153399 2.3775827-.9437347 3.1398273-.6261097.7622446-1.4898669 1.1433669-2.5912716 1.1433669-1.0945494 0-1.940026-.4586763-2.5318597-1.3671655" fill="#fff" fill-rule="evenodd"/></mask><mask id="l" fill="#fff"><path d="m8.78797122 2.14270504c-2.98915108.77775539-5.7389928 1.43585611-8.251741 1.9698705l.11522302.62486331c.9483741.03988489 1.70840288.17948201 2.28008633.42765468.57389928.24817266 1.05030216.65810071 1.43142446 1.22756834.45646043.60935252.76002878 1.32284892.91292086 2.14492086.14846043.81764029.22601439 2.08287767.22601439 3.79571227v23.4656115c0 2.0585036-.09528057 3.5209496-.2836259 4.3962014-.19277698.8774676-.56282014 1.4690935-1.11234532 1.7748777-.55617266.3013525-1.47574101.4919137-2.772.5672518v.5694676h18.44454674v-.5694676c-1.296259-.0753381-2.2180431-.2658993-2.7697842-.5672518-.551741-.3057842-.924-.9084892-1.1123453-1.7992518-.1905611-.8951942-.2858417-2.3509928-.2858417-4.3718273v-35.68811513c-1.5621583.57611511-3.8355971 1.25194244-6.82253238 2.03191367" fill="#fff" fill-rule="evenodd"/></mask><mask id="m" fill="#fff"><path d="m8.06117986 2.57700719c-2.37758274 1.3693813-4.25217267 3.23510792-5.62376979 5.59717986-1.37159712 2.35985615-2.05407194 4.94794245-2.05407194 7.76425895 0 2.7033094.65810072 5.1783885 1.9698705 7.4252375 1.30955396 2.244633 3.1198849 4.0062158 5.42434533 5.2803165 2.30446044 1.2763165 4.86152514 1.912259 7.68005754 1.912259 2.206964 0 4.2433094-.4254389 6.109036-1.2851799 1.8635108-.8553093 3.4633381-2.0850935 4.7972662-3.6804892.7999136-.9904748 1.4735251-1.9809496 2.0230503-2.9692086.5539569-.988259 1.1345036-2.3044604 1.746072-3.939741l-.514072-.2304461c-1.1810359 1.7505036-2.4861582 3.0201727-3.9109352 3.7957123-1.4269928.782187-3.1509065 1.1721726-5.1695252 1.1721726-3.1597698 0-5.530705-.8730359-7.1083741-2.6257554-1.5798849-1.7505036-2.3908777-4.4183597-2.4263309-7.9924892h18.9010072c-.1949929-1.5222733-.4653238-2.772-.8287195-3.74031651-.3633957-.97053238-.8841151-1.93220144-1.5688057-2.8850072-1.296259-1.79038849-2.9625612-3.17971223-5.0011223-4.16797122-2.0363454-.99047482-4.2322302-1.48682015-6.5920864-1.48682015-2.8539856 0-5.4730935.68690648-7.85289204 2.05628777m4.14138134 1.5156259c.8375827-1.88566906 2.0363453-2.82961151 3.5962877-2.82961151.9528058 0 1.7017554.29470504 2.2557123.88854677.551741.58719424.9816115 1.53113669 1.282964 2.82296402.1551079.8021295.2592518 1.72391367.3168633 2.76978418.0553957 1.0458705.0819856 2.50388485.0819856 4.36961155h-8.7924029c0-3.46333817.4210072-6.13562594 1.25859-8.02129501" fill="#fff" fill-rule="evenodd"/></mask><mask id="n" fill="#fff"><path d="m.11648481 1.43585612h120.03598319z" fill="#fff" fill-rule="evenodd"/></mask><mask id="o" fill="#fff"><path d="m.40807482.87331295h119.46794218v1.39347842h-119.46794218z" fill="#fff" fill-rule="evenodd"/></mask><mask id="p" fill="#fff"><path d="m.2348777 39.5718773.49233979.9869762 86.94540011-39.3403234-.4878229-.98697614z" fill="#fff" fill-rule="evenodd"/></mask><g fill="none" fill-rule="evenodd"><path d="m8.32929496 2.1145407c-2.26457554 1.11205377-4.04388489 2.64482318-5.33792805 4.60058236-1.29404317 1.95348504-1.94328058 4.12301324-1.94328058 6.50403634 0 2.3446369.81985612 4.3731685 2.45735252 6.0924173 1.63306475 1.7192487 4.2632518 3.3225164 7.87948205 4.8098031l5.5971798 2.2263817c2.8517698 1.1302468 4.9191367 2.3241696 6.1932374 3.5726717 1.2785324 1.2507762 1.9144748 2.7175956 1.9144748 4.3936357 0 1.1757297-.2681151 2.2104627-.7999136 3.1087475-.5340144.9005588-1.2851799 1.5987194-2.2579281 2.1081264-.9683165.5094071-2.1006043.7595623-3.3946475.7595623-1.9033956 0-3.5985036-.3979742-5.0853237-1.198471-1.4801727-.8027709-3.08-2.1786248-4.79061871-4.1298357-1.71505035-1.953485-3.19079136-4.0161287-4.42722302-6.1833828-1.23864748-2.1672541-2.1803741-4.3686202-2.82961151-6.5950019h-.56946762l.56946762 18.1066914h.57389928c.11079137-.5048588.31243166-.8664468.59827338-1.08249.28584173-.2114948.71128058-.3206535 1.28517986-.3206535.30356835 0 .67804317.0363862 1.11456115.1159811.43430216.0795948.99490648.19785 1.68402878.3524915 2.43519424.5457932 4.71528059.968783 6.84912229 1.2621469 2.1316259.2888156 3.9419568.4366346 5.428777.4366346 2.6257554 0 5.0210647-.5639864 7.1925755-1.6987815 2.169295-1.1302469 3.8732662-2.6880319 5.107482-4.65971 1.2386475-1.9716782 1.8568634-4.168496 1.8568634-6.5904536 0-2.5402128-.7622447-4.7074669-2.2800864-6.5040364-1.526705-1.7988436-3.9065036-3.3407096-7.1393957-4.6324203l-5.3113381-2.0489988c-1.5244892-.5890019-2.9115971-1.21439-4.1679712-1.8761644-1.2563741-.6640484-2.206964-1.2712434-2.8539856-1.8170367-.6093525-.509407-1.0946187-1.1438917-1.45801441-1.90345398-.35896403-.76183643-.5428777-1.59417115-.5428777-2.49473003 0-1.08931238.2592518-2.06946611.77332371-2.9290905.514072-.85962438 1.2275684-1.52367285 2.1404892-1.9921454.9129209-.46847255 1.9610072-.70043468 3.1398274-.70043468 1.8657266 0 3.6605467.56398637 5.3933237 1.69878152 1.7372086 1.13479515 3.3060144 2.77217494 4.7130648 4.92351004 1.4070503 2.14906096 2.5903021 4.70746683 3.5408921 7.67521773h.5716834l-.6270791-14.59314731h-.5716835c-.115223.51168118-.2658993.85280197-.4564604 1.0256365-.1905612.17738281-.4963453.26152594-.9151367.26152594-.6470216 0-1.5067626-.13417417-2.5703597-.4070708-2.2468489-.5480674-3.9596835-.9073813-5.1407194-1.08476411-1.1788202-.17510867-2.3576403-.26607421-3.5364605-.26607421-2.7808633 0-5.3024748.55943809-7.56705034 1.67376599" fill="url(#b)" mask="url(#j)" transform="translate(90.661871 159.345324)"/><path d="m14.1902968 1.71948201c-3.0848472.8021295-5.7446709 1.80811511-7.97947126 3.02682015-1.80520683.95280575-3.15111421 1.95214388-4.03315198 2.99801439-.88660791 1.0458705-1.32534172 2.18258992-1.32534172 3.39907915 0 1.1788201.38389208 2.1382734 1.14939118 2.8827914.7654991.7423021 1.75493525 1.1145611 2.9728786 1.1145611 1.68638309 0 3.08941726-.5317986 4.20910252-1.6020432 1.11968526-1.0613813 1.79606656-2.4928057 2.03371406-4.27876255.2353624-1.82584173.3998876-2.98915108.5004307-3.48328058.0982581-.49634532.2833489-.99269065.5575576-1.48682014.3519011-.72457554.8934631-1.28296403 1.6224011-1.68181295.7197976-.40106475 1.5195728-.60048921 2.38333-.60048921 1.1379658 0 2.0200036.45867626 2.6506834 1.36938129.3130549.45646043.5278517 1.16774101.6443903 2.14270504.1211088.97053237.1782356 2.42633093.1782356 4.36739568v2.97142442c-4.2388084 1.1788202-7.6938372 2.3354821-10.36508629 3.478849-2.19823921.8752518-3.91432824 1.706187-5.15055216 2.4861582-1.23850899.7777554-2.12054676 1.5953957-2.65296852 2.4529209-.52556655.8575252-.79291997 1.8546475-.79291997 2.9980144 0 1.2209209.35418616 2.3044604 1.06027339 3.2572662.7083723.9483741 1.68866816 1.6928921 2.94545773 2.2269065 1.25678957.5340143 2.70781025.7976978 4.35763219.7976978 2.31249283 0 4.30507553-.4254389 5.97546313-1.2851799 1.6658174-.8553093 3.208241-2.2335539 4.6227005-4.1369496.3907473 1.8635108 1.0694137 3.2351079 2.0291439 4.1081439.9643004.8774676 2.2690765 1.3139856 3.9188984 1.3139856 1.4510207 0 2.9340324-.3501007 4.4421799-1.0569496 1.5150027-.7046331 3.2905036-1.8723741 5.3287877-3.5120864l-.349616-.3966331c-.5507023.3035684-.9940063.5052087-1.3253417.5960576-.3336205.0952806-.6763813.1462446-1.0305674.1462446-.5095711 0-.9620153-.1063597-1.3527626-.3168633s-.6695261-.500777-.824911-.8818993c-.159955-.3456691-.2650684-.7511655-.3244802-1.2297842-.061697-.474187-.0891178-1.2652374-.0891178-2.3687194v-13.13320863c0-1.63528058-.1668103-2.92932374-.5027159-3.88434533-.3290503-.95280575-.9300242-1.74828777-1.7914964-2.39530935-.6718111-.57168345-1.4373102-.97939568-2.3010674-1.22756834-.8637572-.24817267-1.8806142-.37447483-3.0597113-.37447483-2.4747329 0-5.2533804.40328058-8.3313723 1.19876259m-.5027159 23.58748199c-.5895485-.9195683-.8820377-2.2313381-.8820377-3.9419568 0-1.4868201.2056564-2.694446.6215395-3.6250935.4067428-.9328633 1.1128301-1.7261295 2.1182617-2.3709353 1.0008615-.6492374 2.4016106-1.2585899 4.2091025-1.8302734v8.8522303c0 1.3361438-.3153399 2.3775827-.9437347 3.1398273-.6261097.7622446-1.4898669 1.1433669-2.5912716 1.1433669-1.0945494 0-1.940026-.4586763-2.5318597-1.3671655" fill="url(#c)" mask="url(#k)" transform="translate(125.561151 169.870504)"/><path d="m8.78797122 2.14270504c-2.98915108.77775539-5.7389928 1.43585611-8.251741 1.9698705l.11522302.62486331c.9483741.03988489 1.70840288.17948201 2.28008633.42765468.57389928.24817266 1.05030216.65810071 1.43142446 1.22756834.45646043.60935252.76002878 1.32284892.91292086 2.14492086.14846043.81764029.22601439 2.08287767.22601439 3.79571227v23.4656115c0 2.0585036-.09528057 3.5209496-.2836259 4.3962014-.19277698.8774676-.56282014 1.4690935-1.11234532 1.7748777-.55617266.3013525-1.47574101.4919137-2.772.5672518v.5694676h18.44454674v-.5694676c-1.296259-.0753381-2.2180431-.2658993-2.7697842-.5672518-.551741-.3057842-.924-.9084892-1.1123453-1.7992518-.1905611-.8951942-.2858417-2.3509928-.2858417-4.3718273v-35.68811513c-1.5621583.57611511-3.8355971 1.25194244-6.82253238 2.03191367" fill="url(#d)" mask="url(#l)" transform="translate(158.798561 156.57554)"/><path d="m8.06117986 2.57700719c-2.37758274 1.3693813-4.25217267 3.23510792-5.62376979 5.59717986-1.37159712 2.35985615-2.05407194 4.94794245-2.05407194 7.76425895 0 2.7033094.65810072 5.1783885 1.9698705 7.4252375 1.30955396 2.244633 3.1198849 4.0062158 5.42434533 5.2803165 2.30446044 1.2763165 4.86152514 1.912259 7.68005754 1.912259 2.206964 0 4.2433094-.4254389 6.109036-1.2851799 1.8635108-.8553093 3.4633381-2.0850935 4.7972662-3.6804892.7999136-.9904748 1.4735251-1.9809496 2.0230503-2.9692086.5539569-.988259 1.1345036-2.3044604 1.746072-3.939741l-.514072-.2304461c-1.1810359 1.7505036-2.4861582 3.0201727-3.9109352 3.7957123-1.4269928.782187-3.1509065 1.1721726-5.1695252 1.1721726-3.1597698 0-5.530705-.8730359-7.1083741-2.6257554-1.5798849-1.7505036-2.3908777-4.4183597-2.4263309-7.9924892h18.9010072c-.1949929-1.5222733-.4653238-2.772-.8287195-3.74031651-.3633957-.97053238-.8841151-1.93220144-1.5688057-2.8850072-1.296259-1.79038849-2.9625612-3.17971223-5.0011223-4.16797122-2.0363454-.99047482-4.2322302-1.48682015-6.5920864-1.48682015-2.8539856 0-5.4730935.68690648-7.85289204 2.05628777m4.14138134 1.5156259c.8375827-1.88566906 2.0363453-2.82961151 3.5962877-2.82961151.9528058 0 1.7017554.29470504 2.2557123.88854677.551741.58719424.9816115 1.53113669 1.282964 2.82296402.1551079.8021295.2592518 1.72391367.3168633 2.76978418.0553957 1.0458705.0819856 2.50388485.0819856 4.36961155h-8.7924029c0-3.46333817.4210072-6.13562594 1.25859-8.02129501" fill="url(#e)" mask="url(#m)" transform="translate(179.848921 169.870504)"/><path d="m.11648481 1.43585612h120.03598319z" fill="url(#f)" mask="url(#n)" transform="translate(90.107914 129.985612)"/><g fill="#c6c0be" transform="translate(89 48)"><path d="m16.0819994 25.6482014c-.2101813-.1252794-.5970043-.1968677-1.164941-.2214762h-1.2901554c-.3912949-.0246084-.7982417-.0380312-1.2163683-.0380312h-11.46829643c.09614677-1.4518996.27055252-2.5682291.51650936-3.3557001.24372086-.7897081.68867913-1.5458591 1.3281669-2.2684532.6372518-.7270684 1.69710216-1.7046957 3.1706072-2.9328819 1.74405755-1.5011165 3.00514532-2.8612936 3.77879136-4.0805312.77588201-1.2170006 1.16494101-2.4518982 1.16494101-3.70693003 0-.86129635-.1855856-1.61968457-.5522849-2.27069038-.37117121-.65100581-.88320862-1.16107221-1.53387625-1.53019922-.6529036-.36912701-1.4064259-.55480908-2.26727482-.55480908-1.00842302 0-1.85138417.21029054-2.52664748.62863448-.67749928.41834394-1.24767194 1.09395822-1.71498993 2.02907997h-.36893525c.68867913-2.38702131 1.7328777-4.1565938 3.13483165-5.31319176 1.40195396-1.15659795 3.21085468-1.73377836 5.42223018-1.73377836 1.5226964 0 2.9000547.30648727 4.1298389.92169895 1.2275482.61521168 2.1867798 1.45861096 2.877695 2.52796071.6864431 1.06934975 1.0330187 2.28187604 1.0330187 3.63310459 0 2.46308384-1.1828288 4.50334943-3.5395425 6.12750833-.6417237.4653237-1.2320201.8277393-1.7731252 1.0894839-.541105.2572704-1.5629439.6666658-3.0588086 1.2326605-1.42878561.519015-2.55347914.9865758-3.37631655 1.4049198-.82507338.4183439-1.51822446.8545849-2.08392518 1.308723-.56570072.4563752-1.15376115 1.0380299-1.77088921 1.7516754h9.03555974c1.5987194 0 2.8217957-.0604026 3.6714647-.1856821.8496691-.1208052 1.5070446-.3557042 1.9721266-.6979856.467318-.3445185.8966245-.8612963 1.2901554-1.5480963h.3689353c-.6864432 2.1118539-1.1425813 3.5637535-1.3639425 4.3512244-.2191251.787471-.5791165 2.1543595-1.0710302 4.0961912h-.3666993c-.0514273-.31991-.1788777-.5413862-.386823-.6644286"/><path d="m27.2182541 24.9665469c-1.4399655-.6062631-2.566895-1.4407139-3.3942043-2.5100636-.8228374-1.0715869-1.2320202-2.2684533-1.2320202-3.5973105 0-1.2796403.3599914-2.4138669 1.0866821-3.3959685.7222187-.9821015 1.860328-1.9060376 3.4098561-2.7650968-1.1045698-.6912742-1.9117554-1.4407139-2.4170849-2.2505562-.5008576-.81431652-.7535223-1.76062393-.7535223-2.84339649 0-1.40268262.3801151-2.65547731 1.1425813-3.76285832.7624662-1.10738102 1.8267885-1.97538877 3.1907309-2.60178611 1.3639425-.62863448 2.9179425-.93959602 4.6664719-.93959602 1.3482907 0 2.6026706.24608467 3.7586677.73825401 1.1559971.48993221 2.0727453 1.15436082 2.7502446 1.9910487.6752633.83668788 1.0128949 1.74720116 1.0128949 2.73153985 0 .63758301-.1408661 1.27964029-.4225985 1.9172233-.2839684.64205727-.6596115 1.19462922-1.1269295 1.66219009-.2459568.24384754-.5343971.48322081-.8675568.72035699-.3286878.2304247-.7535224.5078292-1.2700317.8277393.7132748.3959726 1.2789755.7270683 1.6948662.9977615.4181266.2706931.8250734.5883661 1.2163683.9597302.7378705.6867999 1.3035713 1.4630852 1.6971022 2.3221444.3957669.8635335.5925324 1.7583869.5925324 2.6935086 0 1.4541367-.4516662 2.7874682-1.3482907 4.0044687-.8966244 1.2170006-2.1018129 2.1901536-3.6133295 2.9149848-1.5137525.7248312-3.1549554 1.0872468-4.9236086 1.0872468-1.7954849 0-3.4098561-.2975387-4.8498216-.9015647m7.1908835-.1096195c.6506676-.3601785 1.1559971-.8680078 1.5137525-1.5324364.3555194-.6644286.5343971-1.4407139.5343971-2.3243816 0-.8120794-.1721698-1.5458591-.5165094-2.1968649-.3443395-.6510058-.8921525-1.2774032-1.6412028-1.8814292-.7490504-.6017889-1.7775972-1.2371348-3.0811684-1.8993262-.9078043-.4675609-1.632259-.8478736-2.1756-1.1454123-.541105-.2953016-1.0553784-.5906032-1.5472921-.888142-.4181266.7897081-.7333985 1.5838905-.9391079 2.3825471-.2124172.7986566-.3152719 1.6554787-.3152719 2.5637548 0 .9373589.1408662 1.8769549.4248345 2.8232623.2817324.9485446.6685554 1.7650983 1.1582331 2.4541353.469554.6868 1.0777381 1.2259491 1.8267885 1.6062618.7512863.3803127 1.5674158.570469 2.4550964.570469.8832086 0 1.6501468-.1767335 2.3030504-.5324377m3.0811683-16.42279611c.2437209-.70022274.3689353-1.48321942.3689353-2.34227863 0-1.03131849-.1922936-1.95525457-.5724087-2.76733398-.3823511-.81207942-.9100403-1.43847676-1.5853036-1.88142917-.6774993-.4429524-1.4578532-.66666574-2.3432978-.66666574-.7356346 0-1.3885382.1610736-1.9542389.48098367-.5657007.32214721-1.008423.76286248-1.3281669 1.32885723-.3197439.56599474-.4807338 1.21923768-.4807338 1.95525456 0 .68903708.1699338 1.33109436.5008576 1.91946043.3331597.59060321.8027136 1.12080382 1.4198417 1.5883647.4158906.31767293.8675568.60626314 1.3460547.86353348.4784978.25950747 1.2856834.67114001 2.4148489 1.23713476.3443396.1722593.6752633.3579413.9950072.5548091.5679367-.81207945.9704115-1.56823053 1.2186043-2.27069041"/><path d="m86.8885001 54.2850746c-.9614676-.3713642-1.8759798-.8903791-2.7480086-1.5682305s-1.627787-1.4474253-2.2695108-2.3064845c-1.6434388-2.2371334-2.4707482-5.031313-2.4707482-8.3780645 0-1.6711386.2101813-3.2147607.6283079-4.6286289.4181267-1.4161055 1.0330187-2.648766 1.8424403-3.7091672.9838274-1.3534657 2.1890158-2.4295268 3.6155655-3.2281834 1.4265496-.7986566 2.8262676-1.1991035 4.2058619-1.1991035 1.3728863 0 2.7770762.4049211 4.2013899 1.2170005 1.4265496.8143166 2.6317381 1.8814292 3.6155655 3.2102864.8340172 1.107381 1.4556172 2.36465 1.862564 3.7650955.4069467 1.4004455.6059482 2.986573.6059482 4.7583827 0 1.577179-.2057094 3.0559242-.626072 4.445184-.4158906 1.3937341-1.0330187 2.6375802-1.8424402 3.7471984-.6394878.8859048-1.3952461 1.6599529-2.2695108 2.3266187-.8720288.6621915-1.786541 1.1767321-2.7457727 1.5480963-.9592317.3668898-1.8938676.5525719-2.8016719.5525719-.9122763 0-1.8446763-.1856821-2.803908-.5525719m4.8118101-2.9172219c.4315425-1.9910487.6439597-5.0424987.6439597-9.1498755 0-4.3288531-.2124172-7.4899226-.6439597-9.4832084-.4293065-1.9910487-1.1000978-2.9888102-2.0079021-2.9888102-.9122763 0-1.5808317 1.0022358-2.0123741 3.0067073-.4293065 2.0067086-.6461957 5.1118497-.6461957 9.3198976 0 4.2035736.2168892 7.3042405.6461957 9.2952892.4315424 1.9955229 1.1000978 2.9888101 2.0123741 2.9888101.9078043 0 1.5785956-.9932872 2.0079021-2.9888101"/><path d="m117.775089 54.6150517c-.210182-.1230423-.597005-.1968677-1.164941-.2214762h-1.28792c-.393531-.0246084-.800477-.0357941-1.218604-.0357941h-11.468297c.098383-1.4518996.270553-2.5682291.51651-3.3557.243721-.787471.688679-1.5458592 1.328167-2.2706904.637252-.7270684 1.697102-1.7024585 3.170607-2.9328819 1.746293-1.5011165 3.005145-2.8612935 3.778791-4.0805312.775882-1.2147635 1.164941-2.4518982 1.164941-3.70693 0-.8612964-.185585-1.6174475-.552285-2.2684533-.371171-.6510058-.880972-1.1610722-1.53164-1.5324363-.652903-.3668899-1.408662-.552572-2.269511-.552572-1.008423 0-1.851384.2102906-2.526647.6263974-.677499.4183439-1.247672 1.0939582-1.71499 2.0313171h-.366699c.686443-2.3870213 1.730641-4.1565938 3.132595-5.3154289 1.401954-1.1543608 3.210855-1.7315412 5.422231-1.7315412 1.522696 0 2.900054.3064872 4.129838.9216989 1.227549.6129746 2.189016 1.4563738 2.877695 2.5257236.686444 1.0715869 1.033019 2.281876 1.033019 3.6353417 0 2.4630838-1.180593 4.5033495-3.539542 6.1252712-.641724.4653237-1.229785.8299765-1.77089 1.0894839-.543341.2595075-1.565179.6689029-3.061044 1.2348976-1.42655.519015-2.553479.9865759-3.376317 1.4026827-.822837.420581-1.518224.8568221-2.083925 1.308723-.563465.4563752-1.153761 1.0425041-1.770889 1.7539126h9.037796c1.596483 0 2.819559-.0604026 3.671464-.1856821.847433-.1230424 1.504809-.3557042 1.969891-.7002228.467318-.3422814.896624-.8590592 1.292391-1.5480963h.3667c-.686444 2.1140911-1.142582 3.5637535-1.363943 4.3512245-.219125.7874709-.57688 2.1565965-1.068794 4.0984283h-.368935c-.051428-.3221472-.178878-.5413863-.386823-.6666658"/><path d="m49.4337462 2.00528113v4.38030714c0 .79865661.0447194 1.45189956.1319223 1.96196596.0872029.50782928.230305.92841035.4382503 1.26845462.2057094.32885861.4293065.56152045.6752634.70917125.2459568.1409394.5947683.2326619 1.0419625.2751674v.1543622h-4.8677093v-.1543622c.6014763-.1029081 1.0777381-.3109615 1.4176058-.62416017.3465755-.31319867.5925323-.77404815.7423424-1.38478556.1475741-.60626314.2213611-1.43176536.2213611-2.46755811v-2.78075678c0-.469798-.0245956-.84116214-.0693151-1.10738101-.0491913-.26621887-.1252143-.48098368-.2414849-.64653155-.1095625-.16331073-.2817323-.32662147-.5209812-.48993221-.2325411-.15659933-.467318-.26398173-.6953871-.33333287-.232541-.06487687-.5165093-.10290813-.854141-.11185667v-.1543622h5.0085755l5.4848374 6.25726204v-2.30648451c0-.74943968-.0648431-1.38254842-.1990014-1.90827476-.1319223-.52348921-.3309237-.94854455-.5970043-1.27516602l-.5030935-.41386968c-.1766418-.08501106-.4360144-.14988793-.775882-.19910487v-.1543622h4.5502014v.1543622c-.4203626.04921694-.7423425.13646514-.9592317.26174461-.2213611.11856807-.4315424.34004427-.6238359.65995434-.237013.39820974-.4091828.87695628-.5209813 1.43623963-.1140346.5570462-.1721698 1.25950608-.1721698 2.0984311v6.14987965z"/><path d="m63.063556 10.621824c-.6126561-.2214762-1.1805928-.5458605-1.7038101-.97762727-1.3013353-1.04250415-1.9520029-2.38478417-1.9520029-4.02684006 0-.80984228.1654619-1.55480769.4986216-2.23489624.3309237-.68232568.8161295-1.27740315 1.4533813-1.77628389 1.084446-.87248202 2.2941065-1.30648589 3.6245094-1.30648589 1.3639424 0 2.5780748.43400387 3.6423971 1.30648589.6551395.53243774 1.1448172 1.13646375 1.4690331 1.80536663.3219798.67114001.4829698 1.43400249.4829698 2.28411317 0 .94407028-.2526648 1.81878943-.7535224 2.62863171-.5030935.80984228-1.1828287 1.44966242-2.0436776 1.91946045-.858613.4742723-1.791013.7069341-2.7972.7069341-.6640835 0-1.3058072-.1073824-1.9206993-.3288586m2.9827856-.1923935c.306328-.2170019.5321611-.51230349.6774993-.89037903.1721697-.45190094.3018561-1.00223575.3912949-1.65324156.0849669-.65100581.1296864-1.38701439.1296864-2.20581351 0-1.75391256-.1744058-3.07382125-.5209813-3.96643746-.156518-.37807554-.3845871-.67561428-.6953871-.89261622-.306328-.21700193-.6551396-.3221472-1.0441985-.3221472-.3868231 0-.7378706.10514527-1.0441986.3221472-.3063281.21700194-.5321612.51454068-.6752633.89261622-.3488115.87919341-.5254533 2.18120503-.5254533 3.90379773 0 1.72259269.1766418 3.02907858.5254533 3.9216948.1431021.37807554.3689352.67337713.6752633.89037903.306328.217002.6596115.3243844 1.0620863.3243844.386823 0 .7356346-.1073824 1.0441986-.3243844"/><path d="m71.8851332 3.11064873c-.2973841-.60402601-.5545208-1.06934975-.7691741-1.39149696-.2124172-.3221472-.4382503-.56152048-.6685554-.72035694-.230305-.16107361-.5053295-.27293027-.8228374-.34675568v-.1543622h5.8850763v.1543622c-.315272.05145407-.545577.14765081-.6909151.29306448-.1431022.14317653-.2124173.34675567-.2124173.61297454l.0603712.43847814c.0424835.14988793.1319223.38926121.2750245.71588268.1475741.3288586.3331597.73825401.5679367 1.23042335l1.7664173 3.85905506.7244546-1.61744742c.3286878-.72483121.5612288-1.27516602.7065669-1.6420559.1431022-.369127.2414849-.68679994.2906763-.95301881.0514273-.26621887.078259-.57494328.078259-.92393608 0-.61521168-.1095626-1.09395822-.3242158-1.44518816l-.2906763-.36017847c-.1006187-.07606254-.2571367-.14541367-.4606101-.20805341v-.1543622h4.272941v.1543622c-.5746446.19463061-1.1291654.62639735-1.6613266 1.29082596-.5321611.66666574-1.1112777 1.65100443-1.7351136 2.95301605l-3.0275051 6.36464444z"/><path d="m43.4397781 54.8597941c.3376317-.0201342.5858245-.0604026.7445784-.1230423l.4069468-.3064873.1855856-.3624156c.0424835-.1275166.0670792-.3109615.078259-.5525719.0089439-.2393733.0134158-.6174488.0134158-1.1297524v-4.9955188c0-.5123035-.0044719-.8903791-.0134158-1.1319895-.0111798-.2393732-.0357755-.4250553-.078259-.5525719l-.1855856-.3624156-.4069468-.3064873c-.1587539-.0604026-.4069467-.1029081-.7445784-.1208052v-.1565993h5.3484432c.9525237 0 1.7954849.1297537 2.5266475.3847869s1.3661784.6465316 1.8983395 1.1700208c.47179.4608494.8317813.9999986 1.0822101 1.6196845.2504288.619686.3756432 1.2885888.3756432 2.0067087 0 .9530188-.2280691 1.8165522-.6886792 2.5928375-.46061.7740482-1.0956259 1.3780742-1.8983395 1.8210266-.8049497.4407153-1.7038101.6599543-2.6965813.6599543h-5.9476835zm7.0075338-.5279634c.3465756-.33557.6014763-.8612964.7624662-1.5861276.156518-.7225941.234777-1.6800872.234777-2.8791906 0-.9977615-.0603712-1.8076038-.1811137-2.431764-.1252143-.6263974-.3197438-1.1521237-.5880604-1.5816533-.2012374-.3199101-.4919137-.5480977-.8653209-.6935114-.3756431-.1431765-.8742647-.2147648-1.4981007-.2147648h-.4158906v7.8411525c0 .5212521.0134158.8993276.0380115 1.1275152.0245957.2326619.076023.4049212.1475741.5167778l.3666993.2908274c.1744057.0738254.3734072.1073824.6014762.1073824.5835885 0 1.0509065-.1655479 1.397482-.4966436z"/><path d="m55.1327896 54.8597941c.3398677-.0201342.5880605-.0604026.7468144-.1230423l.4069468-.3064873.1833496-.3624156c.0424835-.1275166.0670792-.3109615.078259-.5525719.0111799-.2393733.0156518-.6174488.0156518-1.1297524v-4.9955188c0-.5123035-.0044719-.8903791-.0156518-1.1319895-.0111798-.2393732-.0357755-.4250553-.078259-.5525719l-.1833496-.3624156-.4069468-.3064873c-.1587539-.0604026-.4069467-.1029081-.7468144-.1208052v-.1565993h9.0512116l.6305438 3.5369078h-.152046c-.4740259-1.0961953-1.1000978-1.9306461-1.8849237-2.4988779-.78259-.5704691-1.7015741-.8523479-2.7569526-.8523479h-.4315424v4.7360114c.5232173-.0313199.9838273-.1476508 1.3840662-.3489928.4002388-.1991049.7199827-.4630866.9592316-.7897081.239249-.3288586.3823511-.7024599.4225986-1.1208038h.156518v4.7337742h-.156518c-.1744058-.7270684-.5075655-1.2953002-.9994791-1.7002214-.4919137-.402684-1.0799741-.6062631-1.7664173-.6062631v3.6286303c0 .3601785.0268316.6331088.076023.8232651l.2772604.4093954c.1341583.0805368.3197439.1185681.5522849.1185681.4941497 0 .9927713-.1118567 1.5003367-.3445186.5075655-.2304247 1.0017151-.5592833 1.4824489-.9910501.4315425-.3892612.7937698-.8098422 1.091154-1.2639803.2973842-.4474267.5545209-.973153.7691741-1.5816533h.152046l-.6909151 4.3668843h-9.6661036z"/><path d="m68.8413056 54.5146045c-.8832086-.4765095-1.5741237-1.123041-2.0839252-1.9440689-.5075654-.821028-.7579942-1.7293041-.7579942-2.7203542 0-.9753902.2437209-1.8635321.7356345-2.6689001.4896777-.805368 1.1604691-1.4429511 2.0056662-1.9149862.8451971-.469798 1.7731252-.7069341 2.7904921-.7069341.2839683 0 .6126561.0268456.9726475.0782996.3666993.049217.7311626.116331 1.1000978.1991049l.4919137.1073824.3376316.0290827.237013-.0604026.1498101-.2304247h.14981l.2481928 4.0894798h-.154282c-.1855856-.5637576-.3957669-1.0715869-.6305439-1.5279621-.2347769-.4563752-.5209813-.8814305-.8608489-1.2684546-.3465755-.4116326-.6931511-.7158827-1.0374906-.9194618-.3421036-.1968678-.697623-.2930645-1.0665583-.2930645-.7378705 0-1.2946273.436241-1.6747424 1.3131973-.3801152.8747191-.5679367 2.1610708-.5679367 3.8635293 0 .9463074.0693151 1.7427269.2168892 2.398207.1408662.6554801.3666993 1.2214748.6730273 1.6912728.2057094.2975388.4606101.536912.7691741.7181198.3063281.1789707.6283079.268456.9704115.268456.3957669 0 .778118-.1409394 1.1492892-.4183439.3666993-.2751674.7423425-.7091713 1.1202216-1.3042488.2593727-.3892612.467318-.7785224.6327799-1.1677836.1632259-.3914983.3108-.8411621.4471942-1.3557028h.1498101l-.1363943 4.3982042h-.154282c-.0313036-.2147648-.1431021-.3243843-.3376316-.3243843-.082731 0-.2459569.0223713-.4852058.0626397-.2370129.0402684-.5858244.1096195-1.0374906.201342-.1855856.0290827-.4203626.0581655-.7132749.0850111-.2929122.0246084-.538869.0357941-.7445784.0357941-1.0553784 0-2.0235539-.234899-2.9045266-.7136455"/></g><path d="m.40807482 2.26679137h119.46794218v-1.39347842h-119.46794218z" fill="url(#h)" mask="url(#o)" transform="translate(90.107914 129.985612)"/><path d="m.2348777 39.5718773.49233979.9869762 86.94540011-39.3403234-.4878229-.98697614z" fill="url(#i)" mask="url(#p)" transform="translate(107.280576 54.647482)"/></g></svg>