<svg height="250" viewBox="0 0 300 250" width="300" xmlns="http://www.w3.org/2000/svg" xmlns:xlink="http://www.w3.org/1999/xlink"><linearGradient id="a" x1=".17767%" x2="100.177285%" y1="50.000017%" y2="50.000017%"><stop offset="0" stop-color="#dbdada"/><stop offset="1" stop-color="#929191"/></linearGradient><mask id="b" fill="#fff"><path d="m34.3746458 0c-.8348281 1.02856814-1.7310014 1.95137093-2.6871862 2.76840835-.9561849.81835948-1.791013 1.38817037-2.5031506 1.71075472.4667569.44289246.864167.96775306 1.1895633 1.57193769l-3.0832628 8.08179574c-.5294357 1.4529516-1.1642251 2.7340346-1.9070353 3.8432488-.7428103 1.1092142-1.5309627 1.9870667-2.3657908 2.6335575-.834828.6451687-1.6696561 1.0087372-2.5031506 1.0880612v.3027533h9.4324903v-.3027533c-.9561849-.0608151-1.6989951-.4230615-2.2270972-1.0880612-.5307693-.6663218-.7934868-1.5547508-.7934868-2.663965 0-.5843537.0600116-1.1541645.1813684-1.7107548.1213568-.553946.3160611-1.204403.5801122-1.9500488h6.1665255l.67213 1.5732597c.8548319 1.9963212 1.2829147 3.3792034 1.2829147 4.1460022 0 .5446916-.1800349.9545324-.5347701 1.2268782-.3560688.2710238-.900174.4283497-1.6336492.4666897v.3027533h12.3023785v-.3027533c-.8334945-.03834-1.4856206-.2313617-1.9537111-.572455-.4680905-.3437375-.9815231-1.0404668-1.5416313-2.090188-.5601083-1.0483992-1.4096059-2.8953268-2.5484928-5.5368167l-3.9380947-9.4131172c-.4480866-1.06823015-.9775223-2.43128125-1.5869734-4.0851871zm-3.7553927 6.41599126 3.1446079 7.50537454h-5.9531509zm144.8066629-4.88768178c-.305393.1203081-.697469.20624245-1.174894.256481-.478759.05156062-1.165559.07667989-2.060398.07667989h-10.288656c-1.098879 0-1.897701-.02115307-2.396464-.06081508-.498763-.04098408-.894839-.12163017-1.189563-.24326034-.296057-.1203081-.596115-.32126228-.900174-.60418463l-.886838 7.05058344h.305392c.386742-.92809105.96552-1.81519803 1.740337-2.66264299.773483-.84744496 1.633649-1.55871702 2.579165-2.13381617.94685-.57377709 1.856359-.92280278 2.732528-1.04443295v14.70799565c0 .9889061-.014669 1.7252974-.046675 2.209174-.029339.4851986-.08535.8540553-.168033 1.1065701-.080015.2511927-.212041.4878427-.396076.711272-.242714.2816003-.54944.4825545-.914844.6041847-.366737.1203081-.936181.2022762-1.709664.2419382v.3027534h12.486414v-.3027534c-.774816-.039662-1.34426-.1216301-1.710997-.2419382-.365404-.1216302-.670797-.3225844-.914844-.6041847-.182702-.2022762-.316061-.43496-.39741-.6967293-.082683-.2630913-.13736-.6398804-.166699-1.1343335-.032006-.4957751-.048009-1.2268782-.048009-2.1959533v-14.70799565c.874836.12163017 1.797681.47462206 2.763201 1.05897569.966853.58699775 1.82702 1.30223601 2.579165 2.15100304.753479.84480083 1.293584 1.7239754 1.617646 2.63091338h.306726l-.824159-7.05058344c-.305393.26176927-.610785.45346899-.916177.57509916zm-171.47181821.75622234c-1.21090077.57509915-2.16308486 1.3670173-2.85521867 2.37575444-.69213382 1.00873713-1.03753393 2.1285279-1.03753393 3.3593723 0 1.20969133.4374179 2.25941254 1.31225371 3.14651954.87616939.888429 2.27910729 1.7147209 4.21281447 2.4828418l2.99124498 1.1488763c1.52696185.5856757 2.62984175 1.2004368 3.31264045 1.8456056.6814651.6478128 1.0228644 1.4040351 1.0228644 2.269989 0 .6055067-.1426942 1.1409439-.4267492 1.6063115-.2867221.4627234-.688133.8262919-1.2069 1.0880611-.5187669.2630914-1.1242173.3926539-1.81635112.3926539-1.01753006 0-1.92303846-.2062424-2.7165252-.6200494-.79348674-.4124849-1.64831867-1.123757-2.5644958-2.1338162-.91484354-1.0087371-1.7043295-2.071679-2.36579072-3.1927918-.66146121-1.1184687-1.16555867-2.2541243-1.51095878-3.4043226h-.30539238l.30539238 9.35098h.30539237c.0613452-.2617692.16803249-.4468586.32006188-.5592343.15336298-.1110537.38140707-.1665805.68679945-.1665805.16403171 0 .3614032.0211531.59611525.0608151.23337845.039662.53343646.1004771.90017403.1811232 1.30158497.2829223 2.52182089.4997413 3.66204133.650457 1.14022044.1507156 2.10840762.2273955 2.90189437.2273955 1.40427144 0 2.68585264-.2934989 3.84607694-.8778525s2.071067-1.3868483 2.7325283-2.4048399c.6614612-1.0193137.9908582-2.1536472.9908582-3.4043226 0-1.3128126-.4067453-2.4326033-1.2202359-3.3606944-.8134906-.928091-2.0857366-1.7252974-3.8154043-2.39029715l-2.84054921-1.06029775c-.81349061-.30143128-1.55630089-.62401564-2.22709724-.966431-.67212995-.34505949-1.18156177-.65574524-1.52696188-.93866758-.32672983-.26176927-.58544652-.59096396-.77881724-.98493993-.19337072-.39265391-.28938928-.82100363-.28938928-1.28504915 0-.56452262.13735989-1.06955222.41207967-1.51376674.27471978-.44289245.65612685-.78662988 1.14422121-1.02856815.48942796-.24326033 1.04820266-.36356843 1.67899128-.36356843.99619259 0 1.95904541.29349888 2.88455769.87785251.9268458.58567569 1.7670083 1.43312065 2.5191537 2.54233488.753479 1.1105363 1.3842676 2.43128126 1.8936994 3.964879h.3040588l-.3360649-7.5371041h-.3040588c-.0613452.26309134-.1440279.43892626-.2453808.53147095-.1026865.08990056-.2640511.13485083-.4867608.13485083-.3480673 0-.805489-.07006955-1.3749325-.21153072-1.2015656-.28160027-2.1164091-.46933379-2.74719776-.56055642-.63212221-.08990055-1.26291083-.1361729-1.89236586-.1361729-1.48695414 0-2.83388121.28821061-4.04478199.86330977zm177.73036121 1.75438294c-1.261577.98890613-2.22443 2.15496924-2.884558 3.49686727-.662794 1.34189803-.992192 2.80939247-.992192 4.40248317 0 3.2284877 1.29225 5.8712997 3.87675 7.929758 1.037534.847445 2.167086 1.4873254 3.387322 1.9209634 1.221569.433638 2.493815.650457 3.816737.650457 1.993719 0 3.846077-.4627235 5.555741-1.3908145 1.709664-.9294131 3.063259-2.189343 4.060785-3.7837558.996193-1.5930908 1.494956-3.3183883 1.494956-5.1745704 0-1.6750589-.320062-3.17296083-.960186-4.49370579-.641457-1.32074495-1.613645-2.50796114-2.916564-3.55768235-2.116409-1.71339887-4.528875-2.57142036-7.234732-2.57142036-2.645844 0-5.047642.85802149-7.204059 2.57142036zm5.127658 17.37196064c-.609451-.4230614-1.058871-1.0087371-1.342926-1.7543829-.690801-1.755705-1.037534-4.3271254-1.037534-7.7182273 0-3.38845776.346733-5.95062365 1.037534-7.68649765.284055-.74696787.733475-1.3313215 1.342926-1.75570501.610785-.42306145 1.302919-.63459217 2.076401-.63459217.773483 0 1.464284.21153072 2.075068.63459217.612119.42438351 1.068207 1.00873714 1.374933 1.75570501.6908 1.75438294 1.037534 4.3575329 1.037534 7.80812785 0 1.6142438-.086684 3.0619072-.260051 4.3429902-.173366 1.2810829-.432083 2.3651779-.777483 3.2536069-.285389.7456458-.732142 1.3313215-1.342927 1.7543829-.610784.4230615-1.304252.6359143-2.076401.6359143-.793487 0-1.496289-.2128528-2.107074-.6359143zm-112.9351675-19.59567738v.30275335c.67213.04098408 1.1655587.12163017 1.4802862.24326033.3147275.11898604.5854466.32126229.8081563.60418463.1640317.22210726.2853885.45875726.3680711.71127206.0800155.2525148.1320256.61476117.1520294 1.08938323.0200039.47462206.029339 1.21497959.029339 2.2250388v9.83485658c0 1.0100592-.0093351 1.7517388-.029339 2.2250388-.0200038.4733-.0720139.8368684-.1520294 1.0893832-.0826826.2511928-.2040394.4891648-.3680711.7125942-.2227097.2816002-.4934288.4825544-.8081563.6028625-.3147275.1216302-.8081562.2035983-1.4802862.2419383v.3027533h19.2010456l1.3749325-8.5947577h-.306726c-.4254156 1.1898603-.936181 2.2303271-1.5256283 3.1174341-.5907809.888429-1.3135873 1.7147209-2.1670856 2.4828418-.9575185.847445-1.9390416 1.497902-2.9459029 1.952693-1.0081949.4521469-1.9990532.6782204-2.9765755.6782204-.4694241 0-.834828-.079324-1.0988791-.2406162-.2653846-.1612922-.4480866-.4283497-.5494395-.8024947-.1026866-.3728229-.153363-.9109042-.153363-1.6195321v-7.141806c1.3642637 0 2.5338232.3992642 3.5113455 1.1951485.9761887.7985285 1.6376499 1.911709 1.9830501 3.3435075h.3067259v-9.32057247h-.3067259c-.0813491.82761396-.3600697 1.56400529-.8388289 2.21049607-.4787592.6451687-1.1135486 1.164741-1.9083689 1.558717-.7934868.3926539-1.7083303.6200495-2.7471978.6795425v-9.32057255h.8548319c2.0950717 0 3.9234252.56055642 5.4797261 1.67902512 1.5576345 1.12111284 2.8045422 2.76047595 3.7393896 4.91808933h.3053924l-1.2509085-6.96068288zm-12.2730394 0v.30275335c.4067453.12163017.7121377.256481.9161771.40984078.2027059.15071564.3974102.38736564.5814458.70994999.4254155.68615278.6387901 1.63407484.6387901 2.84508823 0 .68615279-.0506764 1.29165948-.1520294 1.81519803-.1026865.5248606-.29339 1.15019831-.5801121 1.87733517-.2853885.72581483-.7521454 1.80594353-1.4042715 3.23642003l-1.4336105 3.1782492-3.5113455-7.59527508c-.4680905-.96907513-.8441632-1.77553602-1.1295517-2.42202679-.2853886-.64516871-.4680905-1.1145025-.5494396-1.40667931s-.1226904-.57906536-.1226904-.8619877c0-.52486061.1426943-.92809105.4280828-1.21101339.2840549-.28292235.7428102-.47462207 1.3735989-.57509916v-.30275335h-11.6915937v.30275335c.6307886.14146117 1.1748938.36753463 1.6323155.68086452.4587554.31332988.9015077.78795194 1.3282568 1.42254411.4267492.63591424.936181 1.54814049 1.5269619 2.73932288l7.8748558 16.03931712 6.0144962-12.5292292c1.2415733-2.56216587 2.3911289-4.49899406 3.4500003-5.81048454 1.0575378-1.31149049 2.1564169-2.15893545 3.2966373-2.54233489v-.30275335zm65.7820509.04627235v.30143128c-.034673.0079324-.058678.02379721-.093351.03305168.505431.04495027.922845.10973156 1.190897.21020865.32673.12163017.590781.32258436.79482.6055067.161365.22078519.280054.45743519.350735.70994999.07068.25383687.12269.62665977.153363 1.11979077.029339.49445307.045342 1.22555613.045342 2.19463126v9.8348566c0 .9690751-.016003 1.7001782-.045342 2.1959533-.030673.4944531-.082683.867276-.153363 1.1197908-.070681.2511927-.18937.4878427-.350735.711272-.204039.2816003-.46809.4825545-.79482.6041847-.325396.1203081-.822826.2022762-1.494956.2419382v.3027534h12.089004v-.3027534c-.773483-.039662-1.34426-.1216301-1.709664-.2419382-.366737-.1216302-.67213-.3225844-.916177-.6041847-.182702-.2022762-.314728-.4389262-.39741-.711272-.081349-.2736679-.136026-.6517791-.168033-1.1356556-.029339-.4838765-.044008-1.2110134-.044008-2.1800885v-3.4796804h.884171c1.729668 0 3.155276-.1004771 4.272826-.3027534 1.120216-.2009542 2.159084-.534115 3.115269-.9981606.956185-.4851986 1.704329-1.1211128 2.2431-1.9064206.540105-.78795197.80949-1.6446514.80949-2.57274245 0-1.17002931-.392076-2.18934299-1.174894-3.05661896-.784151-.86727596-1.908369-1.53359774-3.373985-1.99764327-1.465617-.46404552-3.195285-.69540725-5.189004-.69540725zm8.456302.36224636h.822826c.977522 0 1.765674.17715698 2.36579.53014888.600116.35299189 1.038868.91354831 1.313588 1.67902512.274719.76679887.413413 1.79536702.413413 3.0870265 0 1.37362763-.133359 2.45772259-.39741 3.25492897-.265385.7958844-.697468 1.3709835-1.297585 1.7239754-.601449.3529919-1.420274.5288268-2.457808.5288268h-.762814zm-8.853712-.36224636h-7.32675v.30143128c.752146.26309134 1.312254.59493016 1.678992.99948267.366737.40323044.681465 1.00741507.945516 1.81652009.529435 1.67505892.793486 4.14468012.793486 7.41415189v2.7538656c0 1.1105363-.061345 1.9619474-.181368 2.5568776-.12269.5949302-.357402 1.1462321-.702803 1.6499397-.426749.6649997-1.033533 1.1753175-1.817684 1.5283094-.782818.3529919-1.692327.5288268-2.731195.5288268-.977522 0-1.852358-.1758349-2.624507-.5288268-.774817-.3529919-1.333592-.8329022-1.678992-1.4370868-.265384-.4838766-.448086-1.1012819-.550773-1.8469277-.101353-.7456458-.152029-1.9064206-.152029-3.4810024v-7.080991c0-.82761396.009335-1.51905501.030672-2.0730011.020004-.55526815.065346-.96378686.13736-1.22555613.070681-.26176927.186703-.5050296.350735-.72581479.184035-.28292234.422748-.48387653.717472-.6055067.296057-.12163016.768148-.20227625 1.418941-.24326033v-.30143128h-11.507558v.30143128c.67213.04098408 1.169559.12163017 1.494955.24326033.325397.12163017.589448.32258436.793487.6055067.162698.22078519.280054.45743519.352068.70994999.070681.25383687.122691.62665977.15203 1.11979077.030672.49445307.045342 1.22555613.045342 2.19463126v8.0209806c0 1.0893833.066679 1.9804564.200038 2.6771857.132026.6954073.354736 1.2824051.670797 1.7557051.314727.4732999.746811.8923952 1.297584 1.2559636 1.668322 1.1303673 3.958098 1.6935679 6.867994 1.6935679 1.160225 0 2.177755-.1057654 3.052591-.3172961.874835-.2115307 1.648318-.5394033 2.320448-.9836179.610785-.4032304 1.093545-.8619877 1.450947-1.3762717.354736-.5156062.609452-1.1396218.761481-1.8773352.153363-.7350693.229378-1.6499397.229378-2.7380008v-2.3308042c0-3.30781167.285388-5.83031555.854832-7.56486748.325396-.96907513.722806-1.68563546 1.19223-2.14968098.446753-.44289246 1.041535-.74035754 1.768342-.90561591.034673-.00925447.058678-.02511928.093351-.03305168v-.30143128z" fill="#fff" fill-rule="evenodd"/></mask><path d="m34.3746458 0c-.8348281 1.02856814-1.7310014 1.95137093-2.6871862 2.76840835-.9561849.81835948-1.791013 1.38817037-2.5031506 1.71075472.4667569.44289246.864167.96775306 1.1895633 1.57193769l-3.0832628 8.08179574c-.5294357 1.4529516-1.1642251 2.7340346-1.9070353 3.8432488-.7428103 1.1092142-1.5309627 1.9870667-2.3657908 2.6335575-.834828.6451687-1.6696561 1.0087372-2.5031506 1.0880612v.3027533h9.4324903v-.3027533c-.9561849-.0608151-1.6989951-.4230615-2.2270972-1.0880612-.5307693-.6663218-.7934868-1.5547508-.7934868-2.663965 0-.5843537.0600116-1.1541645.1813684-1.7107548.1213568-.553946.3160611-1.204403.5801122-1.9500488h6.1665255l.67213 1.5732597c.8548319 1.9963212 1.2829147 3.3792034 1.2829147 4.1460022 0 .5446916-.1800349.9545324-.5347701 1.2268782-.3560688.2710238-.900174.4283497-1.6336492.4666897v.3027533h12.3023785v-.3027533c-.8334945-.03834-1.4856206-.2313617-1.9537111-.572455-.4680905-.3437375-.9815231-1.0404668-1.5416313-2.090188-.5601083-1.0483992-1.4096059-2.8953268-2.5484928-5.5368167l-3.9380947-9.4131172c-.4480866-1.06823015-.9775223-2.43128125-1.5869734-4.0851871zm-3.7553927 6.41599126 3.1446079 7.50537454h-5.9531509zm144.8066629-4.88768178c-.305393.1203081-.697469.20624245-1.174894.256481-.478759.05156062-1.165559.07667989-2.060398.07667989h-10.288656c-1.098879 0-1.897701-.02115307-2.396464-.06081508-.498763-.04098408-.894839-.12163017-1.189563-.24326034-.296057-.1203081-.596115-.32126228-.900174-.60418463l-.886838 7.05058344h.305392c.386742-.92809105.96552-1.81519803 1.740337-2.66264299.773483-.84744496 1.633649-1.55871702 2.579165-2.13381617.94685-.57377709 1.856359-.92280278 2.732528-1.04443295v14.70799565c0 .9889061-.014669 1.7252974-.046675 2.209174-.029339.4851986-.08535.8540553-.168033 1.1065701-.080015.2511927-.212041.4878427-.396076.711272-.242714.2816003-.54944.4825545-.914844.6041847-.366737.1203081-.936181.2022762-1.709664.2419382v.3027534h12.486414v-.3027534c-.774816-.039662-1.34426-.1216301-1.710997-.2419382-.365404-.1216302-.670797-.3225844-.914844-.6041847-.182702-.2022762-.316061-.43496-.39741-.6967293-.082683-.2630913-.13736-.6398804-.166699-1.1343335-.032006-.4957751-.048009-1.2268782-.048009-2.1959533v-14.70799565c.874836.12163017 1.797681.47462206 2.763201 1.05897569.966853.58699775 1.82702 1.30223601 2.579165 2.15100304.753479.84480083 1.293584 1.7239754 1.617646 2.63091338h.306726l-.824159-7.05058344c-.305393.26176927-.610785.45346899-.916177.57509916zm-171.47181821.75622234c-1.21090077.57509915-2.16308486 1.3670173-2.85521867 2.37575444-.69213382 1.00873713-1.03753393 2.1285279-1.03753393 3.3593723 0 1.20969133.4374179 2.25941254 1.31225371 3.14651954.87616939.888429 2.27910729 1.7147209 4.21281447 2.4828418l2.99124498 1.1488763c1.52696185.5856757 2.62984175 1.2004368 3.31264045 1.8456056.6814651.6478128 1.0228644 1.4040351 1.0228644 2.269989 0 .6055067-.1426942 1.1409439-.4267492 1.6063115-.2867221.4627234-.688133.8262919-1.2069 1.0880611-.5187669.2630914-1.1242173.3926539-1.81635112.3926539-1.01753006 0-1.92303846-.2062424-2.7165252-.6200494-.79348674-.4124849-1.64831867-1.123757-2.5644958-2.1338162-.91484354-1.0087371-1.7043295-2.071679-2.36579072-3.1927918-.66146121-1.1184687-1.16555867-2.2541243-1.51095878-3.4043226h-.30539238l.30539238 9.35098h.30539237c.0613452-.2617692.16803249-.4468586.32006188-.5592343.15336298-.1110537.38140707-.1665805.68679945-.1665805.16403171 0 .3614032.0211531.59611525.0608151.23337845.039662.53343646.1004771.90017403.1811232 1.30158497.2829223 2.52182089.4997413 3.66204133.650457 1.14022044.1507156 2.10840762.2273955 2.90189437.2273955 1.40427144 0 2.68585264-.2934989 3.84607694-.8778525s2.071067-1.3868483 2.7325283-2.4048399c.6614612-1.0193137.9908582-2.1536472.9908582-3.4043226 0-1.3128126-.4067453-2.4326033-1.2202359-3.3606944-.8134906-.928091-2.0857366-1.7252974-3.8154043-2.39029715l-2.84054921-1.06029775c-.81349061-.30143128-1.55630089-.62401564-2.22709724-.966431-.67212995-.34505949-1.18156177-.65574524-1.52696188-.93866758-.32672983-.26176927-.58544652-.59096396-.77881724-.98493993-.19337072-.39265391-.28938928-.82100363-.28938928-1.28504915 0-.56452262.13735989-1.06955222.41207967-1.51376674.27471978-.44289245.65612685-.78662988 1.14422121-1.02856815.48942796-.24326033 1.04820266-.36356843 1.67899128-.36356843.99619259 0 1.95904541.29349888 2.88455769.87785251.9268458.58567569 1.7670083 1.43312065 2.5191537 2.54233488.753479 1.1105363 1.3842676 2.43128126 1.8936994 3.964879h.3040588l-.3360649-7.5371041h-.3040588c-.0613452.26309134-.1440279.43892626-.2453808.53147095-.1026865.08990056-.2640511.13485083-.4867608.13485083-.3480673 0-.805489-.07006955-1.3749325-.21153072-1.2015656-.28160027-2.1164091-.46933379-2.74719776-.56055642-.63212221-.08990055-1.26291083-.1361729-1.89236586-.1361729-1.48695414 0-2.83388121.28821061-4.04478199.86330977zm177.73036121 1.75438294c-1.261577.98890613-2.22443 2.15496924-2.884558 3.49686727-.662794 1.34189803-.992192 2.80939247-.992192 4.40248317 0 3.2284877 1.29225 5.8712997 3.87675 7.929758 1.037534.847445 2.167086 1.4873254 3.387322 1.9209634 1.221569.433638 2.493815.650457 3.816737.650457 1.993719 0 3.846077-.4627235 5.555741-1.3908145 1.709664-.9294131 3.063259-2.189343 4.060785-3.7837558.996193-1.5930908 1.494956-3.3183883 1.494956-5.1745704 0-1.6750589-.320062-3.17296083-.960186-4.49370579-.641457-1.32074495-1.613645-2.50796114-2.916564-3.55768235-2.116409-1.71339887-4.528875-2.57142036-7.234732-2.57142036-2.645844 0-5.047642.85802149-7.204059 2.57142036zm5.127658 17.37196064c-.609451-.4230614-1.058871-1.0087371-1.342926-1.7543829-.690801-1.755705-1.037534-4.3271254-1.037534-7.7182273 0-3.38845776.346733-5.95062365 1.037534-7.68649765.284055-.74696787.733475-1.3313215 1.342926-1.75570501.610785-.42306145 1.302919-.63459217 2.076401-.63459217.773483 0 1.464284.21153072 2.075068.63459217.612119.42438351 1.068207 1.00873714 1.374933 1.75570501.6908 1.75438294 1.037534 4.3575329 1.037534 7.80812785 0 1.6142438-.086684 3.0619072-.260051 4.3429902-.173366 1.2810829-.432083 2.3651779-.777483 3.2536069-.285389.7456458-.732142 1.3313215-1.342927 1.7543829-.610784.4230615-1.304252.6359143-2.076401.6359143-.793487 0-1.496289-.2128528-2.107074-.6359143zm-112.9351675-19.59567738v.30275335c.67213.04098408 1.1655587.12163017 1.4802862.24326033.3147275.11898604.5854466.32126229.8081563.60418463.1640317.22210726.2853885.45875726.3680711.71127206.0800155.2525148.1320256.61476117.1520294 1.08938323.0200039.47462206.029339 1.21497959.029339 2.2250388v9.83485658c0 1.0100592-.0093351 1.7517388-.029339 2.2250388-.0200038.4733-.0720139.8368684-.1520294 1.0893832-.0826826.2511928-.2040394.4891648-.3680711.7125942-.2227097.2816002-.4934288.4825544-.8081563.6028625-.3147275.1216302-.8081562.2035983-1.4802862.2419383v.3027533h19.2010456l1.3749325-8.5947577h-.306726c-.4254156 1.1898603-.936181 2.2303271-1.5256283 3.1174341-.5907809.888429-1.3135873 1.7147209-2.1670856 2.4828418-.9575185.847445-1.9390416 1.497902-2.9459029 1.952693-1.0081949.4521469-1.9990532.6782204-2.9765755.6782204-.4694241 0-.834828-.079324-1.0988791-.2406162-.2653846-.1612922-.4480866-.4283497-.5494395-.8024947-.1026866-.3728229-.153363-.9109042-.153363-1.6195321v-7.141806c1.3642637 0 2.5338232.3992642 3.5113455 1.1951485.9761887.7985285 1.6376499 1.911709 1.9830501 3.3435075h.3067259v-9.32057247h-.3067259c-.0813491.82761396-.3600697 1.56400529-.8388289 2.21049607-.4787592.6451687-1.1135486 1.164741-1.9083689 1.558717-.7934868.3926539-1.7083303.6200495-2.7471978.6795425v-9.32057255h.8548319c2.0950717 0 3.9234252.56055642 5.4797261 1.67902512 1.5576345 1.12111284 2.8045422 2.76047595 3.7393896 4.91808933h.3053924l-1.2509085-6.96068288zm-12.2730394 0v.30275335c.4067453.12163017.7121377.256481.9161771.40984078.2027059.15071564.3974102.38736564.5814458.70994999.4254155.68615278.6387901 1.63407484.6387901 2.84508823 0 .68615279-.0506764 1.29165948-.1520294 1.81519803-.1026865.5248606-.29339 1.15019831-.5801121 1.87733517-.2853885.72581483-.7521454 1.80594353-1.4042715 3.23642003l-1.4336105 3.1782492-3.5113455-7.59527508c-.4680905-.96907513-.8441632-1.77553602-1.1295517-2.42202679-.2853886-.64516871-.4680905-1.1145025-.5494396-1.40667931s-.1226904-.57906536-.1226904-.8619877c0-.52486061.1426943-.92809105.4280828-1.21101339.2840549-.28292235.7428102-.47462207 1.3735989-.57509916v-.30275335h-11.6915937v.30275335c.6307886.14146117 1.1748938.36753463 1.6323155.68086452.4587554.31332988.9015077.78795194 1.3282568 1.42254411.4267492.63591424.936181 1.54814049 1.5269619 2.73932288l7.8748558 16.03931712 6.0144962-12.5292292c1.2415733-2.56216587 2.3911289-4.49899406 3.4500003-5.81048454 1.0575378-1.31149049 2.1564169-2.15893545 3.2966373-2.54233489v-.30275335zm65.7820509.04627235v.30143128c-.034673.0079324-.058678.02379721-.093351.03305168.505431.04495027.922845.10973156 1.190897.21020865.32673.12163017.590781.32258436.79482.6055067.161365.22078519.280054.45743519.350735.70994999.07068.25383687.12269.62665977.153363 1.11979077.029339.49445307.045342 1.22555613.045342 2.19463126v9.8348566c0 .9690751-.016003 1.7001782-.045342 2.1959533-.030673.4944531-.082683.867276-.153363 1.1197908-.070681.2511927-.18937.4878427-.350735.711272-.204039.2816003-.46809.4825545-.79482.6041847-.325396.1203081-.822826.2022762-1.494956.2419382v.3027534h12.089004v-.3027534c-.773483-.039662-1.34426-.1216301-1.709664-.2419382-.366737-.1216302-.67213-.3225844-.916177-.6041847-.182702-.2022762-.314728-.4389262-.39741-.711272-.081349-.2736679-.136026-.6517791-.168033-1.1356556-.029339-.4838765-.044008-1.2110134-.044008-2.1800885v-3.4796804h.884171c1.729668 0 3.155276-.1004771 4.272826-.3027534 1.120216-.2009542 2.159084-.534115 3.115269-.9981606.956185-.4851986 1.704329-1.1211128 2.2431-1.9064206.540105-.78795197.80949-1.6446514.80949-2.57274245 0-1.17002931-.392076-2.18934299-1.174894-3.05661896-.784151-.86727596-1.908369-1.53359774-3.373985-1.99764327-1.465617-.46404552-3.195285-.69540725-5.189004-.69540725zm8.456302.36224636h.822826c.977522 0 1.765674.17715698 2.36579.53014888.600116.35299189 1.038868.91354831 1.313588 1.67902512.274719.76679887.413413 1.79536702.413413 3.0870265 0 1.37362763-.133359 2.45772259-.39741 3.25492897-.265385.7958844-.697468 1.3709835-1.297585 1.7239754-.601449.3529919-1.420274.5288268-2.457808.5288268h-.762814zm-8.853712-.36224636h-7.32675v.30143128c.752146.26309134 1.312254.59493016 1.678992.99948267.366737.40323044.681465 1.00741507.945516 1.81652009.529435 1.67505892.793486 4.14468012.793486 7.41415189v2.7538656c0 1.1105363-.061345 1.9619474-.181368 2.5568776-.12269.5949302-.357402 1.1462321-.702803 1.6499397-.426749.6649997-1.033533 1.1753175-1.817684 1.5283094-.782818.3529919-1.692327.5288268-2.731195.5288268-.977522 0-1.852358-.1758349-2.624507-.5288268-.774817-.3529919-1.333592-.8329022-1.678992-1.4370868-.265384-.4838766-.448086-1.1012819-.550773-1.8469277-.101353-.7456458-.152029-1.9064206-.152029-3.4810024v-7.080991c0-.82761396.009335-1.51905501.030672-2.0730011.020004-.55526815.065346-.96378686.13736-1.22555613.070681-.26176927.186703-.5050296.350735-.72581479.184035-.28292234.422748-.48387653.717472-.6055067.296057-.12163016.768148-.20227625 1.418941-.24326033v-.30143128h-11.507558v.30143128c.67213.04098408 1.169559.12163017 1.494955.24326033.325397.12163017.589448.32258436.793487.6055067.162698.22078519.280054.45743519.352068.70994999.070681.25383687.122691.62665977.15203 1.11979077.030672.49445307.045342 1.22555613.045342 2.19463126v8.0209806c0 1.0893833.066679 1.9804564.200038 2.6771857.132026.6954073.354736 1.2824051.670797 1.7557051.314727.4732999.746811.8923952 1.297584 1.2559636 1.668322 1.1303673 3.958098 1.6935679 6.867994 1.6935679 1.160225 0 2.177755-.1057654 3.052591-.3172961.874835-.2115307 1.648318-.5394033 2.320448-.9836179.610785-.4032304 1.093545-.8619877 1.450947-1.3762717.354736-.5156062.609452-1.1396218.761481-1.8773352.153363-.7350693.229378-1.6499397.229378-2.7380008v-2.3308042c0-3.30781167.285388-5.83031555.854832-7.56486748.325396-.96907513.722806-1.68563546 1.19223-2.14968098.446753-.44289246 1.041535-.74035754 1.768342-.90561591.034673-.00925447.058678-.02511928.093351-.03305168v-.30143128z" fill="url(#a)" fill-rule="evenodd" mask="url(#b)" transform="translate(51 46)"/></svg>