<svg height="250" viewBox="0 0 300 250" width="300" xmlns="http://www.w3.org/2000/svg" xmlns:xlink="http://www.w3.org/1999/xlink"><mask id="a" fill="#fff"><path d="m0 .739596h9.7604364v11.0253h-9.7604364z" fill="#fff" fill-rule="evenodd"/></mask><mask id="b" fill="#fff"><path d="m.4621188.475332h10.843404v11.536668h-10.843404z" fill="#fff" fill-rule="evenodd"/></mask><mask id="c" fill="#fff"><path d="m0 12.1520846h191.704656v-11.53666804h-191.704656z" fill="#fff" fill-rule="evenodd"/></mask><g fill="#c6c0be" fill-rule="evenodd" transform="translate(54 78)"><path d="m4.5866964 9.726288c.350064 0 .689832-.054912 1.019304-.169884.329472-.11154.622908-.3003.880308-.562848s.46332-.604032.61776-1.026168.23166-.936936.23166-1.546116c0-.555984-.054912-1.057056-.16302-1.504932s-.284856-.830544-.53196-1.151436c-.247104-.31746-.57486-.562848-.981552-.732732-.404976-.169884-.907764-.255684-1.504932-.255684h-1.729728v6.9498zm.169884-8.986692c.710424 0 1.371084.11154 1.983696.339768.612612.226512 1.142856.564564 1.592448 1.019304.44616.451308.796224 1.017588 1.048476 1.69884.252252.67782.379236 1.47576.379236 2.392104 0 .803088-.10296 1.546116-.30888 2.223936-.20592.681252-.516516 1.268124-.933504 1.762332-.418704.494208-.936936.882024-1.56156 1.165164-.621192.28314-1.35564.423852-2.199912.423852h-4.756752v-11.0253z" mask="url(#a)" transform="translate(0 .140085)"/><path d="m3.0498468 7.649928c.108108.43758.279708.830544.516516 1.180608.236808.35178.545688.631488.92664.842556s.844272.315744 1.38996.315744 1.009008-.104676 1.38996-.315744.689832-.490776.92664-.842556c.236808-.350064.410124-.743028.518232-1.180608s.161304-.888888.161304-1.350492c0-.483912-.053196-.954096-.161304-1.405404-.108108-.453024-.281424-.858-.518232-1.213212-.236808-.356928-.545688-.638352-.92664-.84942s-.844272-.315744-1.38996-.315744-1.009008.104676-1.38996.315744-.689832.492492-.92664.84942c-.236808.355212-.408408.760188-.516516 1.213212-.108108.451308-.16302.921492-.16302 1.405404 0 .461604.054912.912912.16302 1.350492m-2.217072-3.644784c.24882-.705276.604032-1.32132 1.067352-1.8447.46332-.526812 1.031316-.936936 1.705704-1.237236.674388-.298584 1.43286-.447876 2.277132-.447876.854568 0 1.616472.149292 2.285712.447876.670956.3003 1.237236.710424 1.700556 1.237236.461604.52338.816816 1.139424 1.06392 1.8447s.372372 1.468896.372372 2.294292c0 .803088-.125268 1.551264-.372372 2.244528-.247104.696696-.602316 1.300728-1.06392 1.815528-.46332.516516-1.0296.919776-1.700556 1.213212-.66924.293436-1.431144.439296-2.285712.439296-.844272 0-1.602744-.14586-2.277132-.439296s-1.242384-.696696-1.705704-1.213212c-.46332-.5148-.818532-1.118832-1.067352-1.815528-.247104-.693264-.370656-1.44144-.370656-2.244528 0-.825396.123552-1.589016.370656-2.294292" mask="url(#b)" transform="translate(15.444 .140085)"/><path d="m35.75286.87916576 4.602312 7.397676h.030888v-7.397676h2.270268v11.02701604h-2.424708l-4.586868-7.38223204h-.030888v7.38223204h-2.270268v-11.02701604z"/><path d="m51.907284.87916576v2.362932c.010296.339768-.037752.658944-.14586.957528-.108108.296868-.260832.561132-.456456.787644-.195624.224796-.430716.415272-.70356.564564s-.567996.243672-.887172.284856v-1.019304c.391248-.133848.658944-.331188.803088-.595452.144144-.262548.216216-.585156.216216-.964392h-1.019304v-2.378376z"/><path d="m58.1001564 2.91691576v-2.036892h9.03474v2.036892h-3.305016v8.98840804h-2.424708v-8.98840804z"/><path d="m85.9918488.87916576 2.579148 7.583004h.030888l2.438436-7.583004h3.41484v11.02701604h-2.271984v-7.81466404h-.029172l-2.7027 7.81466404h-1.868724l-2.7027-7.73744404h-.030888v7.73744404h-2.270268v-11.02701604z"/><path d="m101.528856 11.9049806h2.424708v-11.02701604h-2.424708z" mask="url(#c)"/><path d="m112.879853 9.18769456c.133848.2574.312312.465036.533676.624624.219648.161304.48048.27799204.779064.35521204.296868.07722.607464.116688.92664.116688.216216 0 .44616-.01716.69498-.054912.247104-.03432.478764-.104676.69498-.207636.216216-.10296004.396396-.24367204.54054-.42556804.144144-.178464.216216-.408408.216216-.6864 0-.298584-.096096-.54054-.284856-.725868-.192192-.185328-.441012-.339768-.749892-.46332-.310596-.123552-.66066-.23166-1.050192-.324324-.392964-.092664-.787644-.195624-1.190904-.30888-.410124-.10296-.811668-.228228-1.202916-.37752s-.741312-.3432-1.050192-.580008-.559416-.533676-.749892-.888888-.286572-.784212-.286572-1.288716c0-.56628.123552-1.058772.363792-1.474044.241956-.416988.559416-.765336.950664-1.043328s.83226-.483912 1.328184-.61776c.494208-.133848.988416-.200772 1.482624-.200772.576576 0 1.129128.065208 1.661088.192192.528528.1287 1.000428.338052 1.412268.62634s.73788.655512.979836 1.103388c.243672.449592.363792.991848.363792 1.6302h-2.347488c-.020592-.329472-.090948-.602316-.207636-.818532-.12012-.216216-.276276-.3861-.473616-.509652-.193908-.123552-.418704-.211068-.66924-.262548-.253968-.05148-.528528-.07722-.827112-.07722-.195624 0-.391248.020592-.586872.061776s-.372372.113256-.533676.216216c-.159588.10296-.290004.23166-.39468.3861-.101244.15444-.152724.350064-.152724.586872 0 .216216.041184.392964.123552.525096.082368.133848.243672.2574.485628.370656.243672.113256.576576.226512 1.00386.339768s.9867.2574 1.676532.432432c.20592.041184.492492.114972.858.224796.365508.106392.725868.279708 1.086228.516516s.672672.554268.93522.948948c.264264.398112.39468.904332.39468 1.522092 0 .504504-.097812.972972-.293436 1.40540404-.195624.432432-.485628.80652-.873444 1.118832-.384384.315744-.864864.559416-1.436292.734448s-1.233804.262548-1.983696.262548c-.60918 0-1.196052-.073788-1.76748-.22308s-1.075932-.384384-1.515228-.705276c-.43758-.31746-.784212-.724152-1.043328-1.21836-.255684-.49420804-.379236-1.08108004-.36894-1.76061604h2.347488c0 .370664.066924.684684.200772.942084" mask="url(#c)"/><path d="m127.844574 9.18769456c.133848.2574.312312.465036.533676.624624.219648.161304.48048.27799204.779064.35521204.296868.07722.607464.116688.92664.116688.216216 0 .44616-.01716.69498-.054912.247104-.03432.478764-.104676.69498-.207636.216216-.10296004.396396-.24367204.54054-.42556804.144144-.178464.216216-.408408.216216-.6864 0-.298584-.096096-.54054-.284856-.725868-.192192-.185328-.441012-.339768-.749892-.46332-.310596-.123552-.66066-.23166-1.050192-.324324-.392964-.092664-.787644-.195624-1.190904-.30888-.410124-.10296-.811668-.228228-1.202916-.37752s-.741312-.3432-1.050192-.580008-.559416-.533676-.749892-.888888-.286572-.784212-.286572-1.288716c0-.56628.123552-1.058772.363792-1.474044.241956-.416988.559416-.765336.950664-1.043328s.83226-.483912 1.328184-.61776c.494208-.133848.988416-.200772 1.482624-.200772.576576 0 1.129128.065208 1.661088.192192.528528.1287 1.000428.338052 1.412268.62634s.73788.655512.979836 1.103388c.243672.449592.363792.991848.363792 1.6302h-2.347488c-.020592-.329472-.090948-.602316-.207636-.818532-.12012-.216216-.276276-.3861-.473616-.509652-.193908-.123552-.418704-.211068-.66924-.262548-.253968-.05148-.528528-.07722-.827112-.07722-.195624 0-.391248.020592-.586872.061776s-.372372.113256-.533676.216216c-.159588.10296-.290004.23166-.39468.3861-.101244.15444-.152724.350064-.152724.586872 0 .216216.041184.392964.123552.525096.082368.133848.243672.2574.485628.370656.243672.113256.576576.226512 1.00386.339768s.9867.2574 1.676532.432432c.20592.041184.492492.114972.858.224796.365508.106392.725868.279708 1.086228.516516s.672672.554268.93522.948948c.264264.398112.39468.904332.39468 1.522092 0 .504504-.097812.972972-.293436 1.40540404-.195624.432432-.485628.80652-.873444 1.118832-.384384.315744-.864864.559416-1.436292.734448s-1.233804.262548-1.983696.262548c-.60918 0-1.196052-.073788-1.76748-.22308s-1.075932-.384384-1.515228-.705276c-.43758-.31746-.784212-.724152-1.043328-1.21836-.255684-.49420804-.379236-1.08108004-.36894-1.76061604h2.347488c0 .370664.066924.684684.200772.942084" mask="url(#c)"/><path d="m152.300834 7.79001256c.106392.43758.279708.830544.518232 1.180608.235092.35178.543972.631488.92664.842556.379236.21106804.842556.31574404 1.388244.31574404.547404 0 1.009008-.104676 1.38996-.31574404.382668-.211068.689832-.490776.92664-.842556.238524-.350064.410124-.743028.518232-1.180608s.161304-.888888.161304-1.350492c0-.483912-.053196-.954096-.161304-1.405404-.108108-.453024-.279708-.858-.518232-1.213212-.236808-.356928-.543972-.638352-.92664-.84942-.380952-.211068-.842556-.315744-1.38996-.315744-.545688 0-1.009008.104676-1.388244.315744-.382668.211068-.691548.492492-.92664.84942-.238524.355212-.41184.760188-.518232 1.213212-.108108.451308-.16302.921492-.16302 1.405404 0 .461604.054912.912912.16302 1.350492m-2.217072-3.644784c.24882-.705276.604032-1.32132 1.065636-1.8447.465036-.526812 1.033032-.936936 1.70742-1.237236.674388-.298584 1.43286-.447876 2.277132-.447876.854568 0 1.618188.149292 2.285712.447876.66924.3003 1.23552.710424 1.700556 1.237236.461604.52338.816816 1.139424 1.065636 1.8447.245388.705276.370656 1.468896.370656 2.294292 0 .803088-.125268 1.551264-.370656 2.244528-.24882.696696-.604032 1.300728-1.065636 1.81552804-.465036.516516-1.031316.919776-1.700556 1.213212-.667524.293436-1.431144.439296-2.285712.439296-.844272 0-1.602744-.14586-2.277132-.439296s-1.242384-.696696-1.70742-1.213212c-.461604-.51480004-.816816-1.11883204-1.065636-1.81552804-.247104-.693264-.370656-1.44144-.370656-2.244528 0-.825396.123552-1.589016.370656-2.294292" mask="url(#c)"/><path d="m175.257311 11.0644838c-.83226.725868-1.987128 1.087944-3.459456 1.087944-1.49292 0-2.649504-.36036-3.46632-1.08108-.820248-.72072-1.228656-1.83097204-1.228656-3.33418804v-6.858852h2.424708v6.858852c0 .296868.02574.590304.07722.878592s.159588.543972.32604.765336c.16302.219648.392964.401544.6864.54054.293436.13899604.6864.20763604 1.180608.20763604.864864 0 1.462032-.19219204 1.791504-.57829204.331188-.3861.494208-.991848.494208-1.813812v-6.858852h2.424708v6.858852c0 1.49292-.416988 2.60145604-1.250964 3.32732404" mask="url(#c)"/><path d="m182.671117 2.91691576v-2.036892h9.03474v2.036892h-3.305016v8.98840804h-2.424708v-8.98840804z" mask="url(#c)"/></g></svg>