<svg xmlns="http://www.w3.org/2000/svg" viewBox="0 0 132.63 84.14"><g id="Layer_2" data-name="Layer 2"><g id="Layer_2-2" data-name="Layer 2"><path d="M19.33,84.14a18,18,0,0,1-8.54-2.06c-12.12-6.44-14.37-26-5-43.66C10.27,30,16.72,23.2,24,19.34c7.43-4,14.81-4.39,20.79-1.22,12.12,6.44,14.37,26,5,43.65h0C42.43,75.56,30.14,84.14,19.33,84.14ZM36.12,19a23,23,0,0,0-10.75,3C18.66,25.57,12.64,31.9,8.43,39.83-.16,56,1.53,73.76,12.2,79.43s26.32-2.89,34.91-19.07S54,26.43,43.34,20.77A15.16,15.16,0,0,0,36.12,19Z"/><path d="M107.45,43.42a43.93,43.93,0,0,1-9.76-1.13c-7.86-1.81-14.8-5.6-19.52-10.65-4.88-5.22-6.85-11.19-5.56-16.79S78.28,4.74,84.94,2.18C91.41-.31,99.29-.68,107.16,1.13h0C115,2.94,122,6.72,126.68,11.78c4.88,5.22,6.85,11.18,5.56,16.79s-5.67,10.11-12.34,12.67A34.72,34.72,0,0,1,107.45,43.42ZM97.4,3A31.7,31.7,0,0,0,86,5c-5.71,2.19-9.43,5.94-10.49,10.54s.65,9.6,4.83,14.07,10.72,8.1,18,9.77,14.56,1.35,20.47-.92c5.7-2.2,9.43-5.94,10.49-10.54s-.66-9.6-4.83-14.07c-4.32-4.63-10.72-8.1-18-9.78h0A41,41,0,0,0,97.4,3Z"/><path d="M52,27,49.3,25.67c.2-.43,5.2-10.32,23.08-8.85l-.24,3C56.43,18.52,52.16,26.64,52,27Z"/></g></g></svg>