<svg xmlns="http://www.w3.org/2000/svg" viewBox="0 0 141.57 197.5"><defs><style>.cls-1{fill:#fff;}.cls-2{fill:#b6a987;}.cls-3{fill:#a5a5a5;}</style></defs><g id="Layer_2" data-name="Layer 2"><g id="Layer_2-2" data-name="Layer 2"><path class="cls-1" d="M79,131.71c-6.92-8.85-37.76-24.77-45.4-27.54-21-7.62-34.14,8.63-16.4,24.63C34.78,144.66,39.33,145.36,54,162.42,62.85,172.73,98.7,156.94,79,131.71Z"/><path class="cls-2" d="M62.4,168.59c-4.28,0-8.16-1.28-10.69-4.22a135,135,0,0,0-21.33-20.48c-4.11-3.31-8.76-7.07-15.19-12.86C4.71,121.57,4.5,112.32,7.8,106.81c3.73-6.2,13.46-10.3,26.82-5.46,6.83,2.47,39,18.61,46.74,28.51h0c7.14,9.15,10.47,22.45-1.62,32.35A28.73,28.73,0,0,1,62.4,168.59ZM23.28,105.28c-4.37,0-8.34,1.31-10.33,4.62-2.65,4.41-.25,10.8,6.26,16.67,6.3,5.69,10.89,9.39,14.94,12.65a139.78,139.78,0,0,1,22.11,21.24c3.31,3.85,13.24,2.39,19.68-2.89,4.43-3.63,10.41-11.57.69-24h0c-6.22-8-36.33-23.77-44.06-26.57A28,28,0,0,0,23.28,105.28Z"/><path class="cls-3" d="M95.08,27C83.52,37.39,55.35,69.67,44.31,84.43s-36.26,57.5-36.26,57.5l11.67,9.74s37.8-26.55,55.56-45.76S115.12,57.19,123,47.15s19.64-35.4,11.71-42.34S110.68,12.91,95.08,27Z"/><path d="M19.56,155.45,4.18,142.6l1.29-2.2c1-1.75,25.42-43.05,36.43-57.77C53.07,67.7,81.42,35.24,93.07,24.74L95,23C111.47,8.13,127-5.9,136.66,2.55c4.51,4,4.83,12,.92,23.26-2.82,8.1-7.74,17.43-12.25,23.19-1.34,1.72-3.1,4-5.18,6.71C109.73,69.26,92.29,91.93,77.48,108,59.71,127.17,23,153,21.44,154.12Zm-7.62-14.19,7.93,6.62c7.81-5.6,38.11-27.67,53.21-44,14.62-15.82,32-38.36,42.31-51.83,2.1-2.72,3.86-5,5.21-6.74a83.29,83.29,0,0,0,11.31-21.47c2.91-8.39,3.21-14.66.79-16.78-5.63-4.93-21.18,9.1-33.67,20.38L97.09,29.2c-11.44,10.31-39.36,42.29-50.38,57C37.32,98.78,17.23,132.35,11.94,141.26Z"/><path class="cls-1" d="M96,195.13c47.87-36.88,44.1-74.16,41-85.76C130.86,86.7,88.51,61,69.49,73.23,38.93,92.8,48,111.12,48,111.12s-5.24,4.51-5.43,15.6,8.61,11.43,8.61,11.43-13.33,7.81-12.72,17c1.29,19.5,19,21.37,29.44,12.36"/><path class="cls-2" d="M97.84,197.5l-3.66-4.75c20.07-15.46,33-32.57,38.57-50.85,4.73-15.62,2.51-27.4,1.34-31.75-3.3-12.21-19.46-27-36.78-33.72C86.35,72.2,77,72,71.11,75.75,43.44,93.47,50.39,109.16,50.7,109.82l1,2.06L50,113.4c-.14.13-4.22,3.95-4.38,13.37-.13,7.61,4.78,8.32,5.76,8.38l9.76.64-8.4,5C49.43,142.66,41.05,149,41.45,155c.46,7,3.23,11.78,8,13.78,5,2.1,11.63.69,16.5-3.49l3.91,4.55c-6.66,5.72-15.58,7.48-22.74,4.47-4-1.67-10.81-6.36-11.65-18.91-.31-4.74,2.06-9.56,7.06-14.32.81-.77,1.62-1.47,2.4-2.1-2.8-1.94-5.46-5.54-5.35-12.26.15-8.61,3.13-13.79,5-16.2C42.89,104.8,40.9,88,67.87,70.7c7.59-4.86,18.81-4.81,31.6.13,19.23,7.44,36.6,23.67,40.41,37.76C142,116.4,149.88,157.42,97.84,197.5Z"/><path class="cls-2" d="M84.7,135.46a114.28,114.28,0,0,1-13.19-1.11c-2.08-.23-4.13-.49-5.94-.52-.45,0-.87,0-1.27,0l-.49,0-.18.05a11.27,11.27,0,0,0-1.91.91c-1.52.9-3.17,2.1-4.82,3.32l-5,3.82a104.34,104.34,0,0,1-11,7.46,45.54,45.54,0,0,1,6.65-11.82A48.31,48.31,0,0,1,52,132.51,31.09,31.09,0,0,1,57.65,128a14.21,14.21,0,0,1,4-1.75,8.19,8.19,0,0,1,1.43-.24c.47,0,.76,0,1.14,0,.7,0,1.37.08,2,.16a29.76,29.76,0,0,1,6.9,2,40.57,40.57,0,0,1,6.08,3.13A30.45,30.45,0,0,1,84.7,135.46Z"/><path class="cls-2" d="M103.61,114.36c-6.82-3-13.22-6.47-19.6-9.6-1.6-.76-3.17-1.55-4.76-2.23s-3.15-1.34-4.67-1.87a14.6,14.6,0,0,0-4-.89,7.83,7.83,0,0,0-3.19,1.07,34.66,34.66,0,0,0-4,2.6c-1.33,1-2.64,2.1-3.95,3.23-2.58,2.28-5.13,4.72-7.6,7.26s-4.91,5.16-7.28,7.86-4.68,5.47-6.85,8.48a31.48,31.48,0,0,1,1.51-5.39,52.43,52.43,0,0,1,2.2-5.17,74.49,74.49,0,0,1,5.71-9.66,72.47,72.47,0,0,1,7.18-8.76,47.25,47.25,0,0,1,4.25-4,30.53,30.53,0,0,1,5-3.49,17.3,17.3,0,0,1,3.13-1.39A11.48,11.48,0,0,1,68.63,92a10.8,10.8,0,0,1,2.13-.15,18.84,18.84,0,0,1,6.57,1.62,52.94,52.94,0,0,1,10,5.73,84.05,84.05,0,0,1,8.65,7c1.36,1.26,2.69,2.56,4,3.91l1.88,2.06C102.43,112.91,103.05,113.6,103.61,114.36Z"/><path class="cls-3" d="M114.65,57.13c-1.64-3.27-2.45-11.45-9-17.18s-18.81-4.09-18.81-4.09"/><path d="M112,58.47a26.86,26.86,0,0,1-1.44-4c-1.13-3.65-2.68-8.65-6.85-12.3-4.51-3.94-13.4-3.77-16.45-3.38l-.79-5.94c.56-.08,13.71-1.74,21.19,4.8,5.44,4.77,7.36,11,8.63,15.05a27.19,27.19,0,0,0,1.07,3Z"/><path class="cls-3" d="M7.07,144.44c-4.6,6.2-5.65,10.25-1.31,13.14,5.77,3.85,12.14-4.9,12.14-4.9"/><path d="M8.92,161.56a8.69,8.69,0,0,1-4.83-1.49,8.49,8.49,0,0,1-4-5.62c-.56-3.22.8-6.75,4.54-11.79l4.82,3.57c-3.15,4.24-3.61,6.25-3.45,7.19,0,.23.15.83,1.39,1.66,3.2,2.14,8-4.11,8.06-4.17l4.85,3.54A23.92,23.92,0,0,1,15.77,159,11.56,11.56,0,0,1,8.92,161.56Z"/></g></g></svg>