<?xml version="1.0" encoding="utf-8"?>
<!-- Generator: Adobe Illustrator 24.0.2, SVG Export Plug-In . SVG Version: 6.00 Build 0)  -->
<svg version="1.1" id="Layer_1" xmlns="http://www.w3.org/2000/svg" xmlns:xlink="http://www.w3.org/1999/xlink" x="0px" y="0px"
	 viewBox="0 0 728 90" style="enable-background:new 0 0 728 90;" xml:space="preserve">
<style type="text/css">
	.st0{fill:#FFFFFF;}
</style>
<title>728 x 90 3</title>
<path class="st0" d="M70.1,30.2v8.5h-1.8L68,36.3c-1.2,1.7-3.2,2.6-5.3,2.5c-4.1,0.1-7.5-3.2-7.6-7.3c0-0.1,0-0.3,0-0.4
	c-0.1-4.2,3.2-7.6,7.3-7.7c0.1,0,0.3,0,0.4,0c2.8-0.1,5.5,1.4,6.8,4l-2.7,1c-0.8-1.5-2.4-2.4-4.1-2.3c-2.6,0-4.8,2.1-4.8,4.7
	c0,0.1,0,0.2,0,0.4c-0.2,2.6,1.8,4.8,4.4,5c0.1,0,0.3,0,0.4,0c2.2,0.1,4.1-1.5,4.3-3.7h-4.7v-2.3H70.1z"/>
<path class="st0" d="M82.7,34.3h-7.8c0.2,1.3,1.3,2.2,2.6,2.1c0.9,0.1,1.8-0.4,2.3-1.2l2.5,1.1c-1.7,2.6-5.1,3.3-7.6,1.6
	c-1.5-1-2.5-2.7-2.5-4.5c-0.1-2.9,2.2-5.3,5.1-5.4c0.1,0,0.3,0,0.4,0c3.1,0,5.1,2.2,5.1,5.5C82.8,33.9,82.7,34.3,82.7,34.3z
	 M80.1,32.3c-0.2-1.2-1.2-2-2.4-1.9c-1.2-0.1-2.4,0.7-2.6,1.9L80.1,32.3z"/>
<path class="st0" d="M92.6,38.2c-0.9,0.5-2,0.7-3,0.6c-2.7,0-4-1.3-4-4v-4.2h-1.8v-2.1c1.6-0.1,2.4-1.1,2.5-3.1h2.2v2.8h3.5v2.4
	h-3.5v4c0,1.3,0.4,1.7,1.6,1.8c0.6,0,1.2-0.2,1.8-0.5L92.6,38.2z"/>
<path class="st0" d="M99.4,33.4c0-3,2.4-5.4,5.3-5.4c0.1,0,0.2,0,0.3,0c2.9-0.2,5.5,2,5.7,4.9c0,0.2,0,0.3,0,0.5
	c-0.1,3.1-2.8,5.6-5.9,5.4C101.9,38.7,99.5,36.4,99.4,33.4L99.4,33.4z M107.9,33.4c0.1-1.5-1-2.8-2.5-2.9c-0.1,0-0.2,0-0.3,0
	c-1.6,0-2.9,1.3-2.9,2.9c0,1.6,1.3,2.9,2.9,2.9C106.6,36.3,107.9,35,107.9,33.4z"/>
<path class="st0" d="M122.9,38.6h-2.2l-0.4-1.6c-0.8,1.2-2.1,1.9-3.6,1.9c-2.4,0-4-1.6-4-4.3v-6.3h2.8V34c0,1.5,0.7,2.3,2,2.3
	c1.3,0.1,2.5-0.9,2.6-2.3c0-0.1,0-0.2,0-0.3v-5.5h2.8L122.9,38.6z"/>
<path class="st0" d="M133.4,38.2c-0.9,0.5-2,0.7-3,0.6c-2.7,0-4-1.3-4-4v-4.2h-1.9v-2.1c1.6-0.1,2.4-1.1,2.5-3.1h2.2v2.8h3.5v2.4
	h-3.5v4c0,1.3,0.4,1.7,1.6,1.8c0.6,0,1.2-0.2,1.8-0.5L133.4,38.2z"/>
<path class="st0" d="M149.9,32.2v6.4h-2l-0.4-1.4c-0.8,1.1-2.2,1.7-3.6,1.6c-2.4,0-3.8-1.2-3.8-3.3s1.5-3.2,4-3.2c1,0,2,0.1,3,0.5
	v-0.4c0.1-1-0.7-1.9-1.8-2c-0.1,0-0.2,0-0.4,0c-1,0-2,0.3-2.8,0.8l-1.5-1.9c1.3-0.9,2.9-1.4,4.5-1.4C148.1,28,149.9,29.6,149.9,32.2
	z M147.2,34.8v-0.2c-0.7-0.3-1.4-0.4-2.2-0.4c-1.4,0-2.1,0.4-2.1,1.3s0.6,1.3,1.9,1.3C146,36.9,147,36.1,147.2,34.8
	C147.2,34.9,147.2,34.8,147.2,34.8z"/>
<path class="st0" d="M152.6,28.2h2.2l0.4,1.5c0.8-1.1,2.2-1.8,3.6-1.7c2.4,0,4,1.7,4,4.3v6.3H160v-5.7c0-1.5-0.8-2.3-2.1-2.3
	c-1.3-0.1-2.4,0.9-2.5,2.2c0,0.1,0,0.2,0,0.3v5.5h-2.8L152.6,28.2z"/>
<path class="st0" d="M175.8,23.2v15.4h-2.1l-0.4-1.5c-0.8,1.1-2.2,1.8-3.6,1.7c-2.9,0-5-2.2-5-5.4s2.1-5.4,5-5.4
	c1.2,0,2.4,0.4,3.2,1.3v-6.1H175.8z M173.1,33.4c0.1-1.5-1.1-2.8-2.6-2.9c-0.1,0-0.1,0-0.2,0c-1.5,0-2.7,1.2-2.7,2.6
	c0,0.1,0,0.2,0,0.2c-0.1,1.5,1,2.8,2.5,2.9c0.1,0,0.2,0,0.2,0c1.5,0,2.8-1.2,2.8-2.7C173.1,33.6,173.1,33.5,173.1,33.4z"/>
<path class="st0" d="M194.1,34.3h-7.8c0.2,1.3,1.3,2.2,2.6,2.1c0.9,0.1,1.8-0.4,2.3-1.2l2.5,1.1c-1.7,2.6-5.1,3.3-7.6,1.6
	c-1.5-1-2.5-2.7-2.5-4.5c-0.1-2.9,2.2-5.3,5.1-5.4c0.1,0,0.3,0,0.4,0c3.1,0,5.1,2.2,5.1,5.5C194.1,33.9,194.1,34.3,194.1,34.3z
	 M191.4,32.3c-0.2-1.2-1.2-2-2.4-1.9c-1.2-0.1-2.4,0.7-2.6,1.9H191.4z"/>
<path class="st0" d="M196.2,28.2h2.2l0.4,1.5c0.8-1.1,2.2-1.8,3.6-1.7c2.4,0,4,1.7,4,4.3v6.3h-2.8v-5.7c0-1.5-0.7-2.3-2.1-2.3
	c-1.3-0.1-2.4,1-2.5,2.3c0,0.1,0,0.2,0,0.3v5.5h-2.8L196.2,28.2z"/>
<path class="st0" d="M207,43.3l0.2-2.4h0.2c1.1,0,1.6-0.5,1.6-1.7V28.2h2.8v10.9c0,2.7-1.4,4.2-4,4.2
	C207.6,43.3,207.3,43.3,207,43.3z M208.8,24.9c0.1-0.9,0.9-1.6,1.8-1.6c0.8,0.1,1.5,0.7,1.6,1.6c0,0.9-0.7,1.6-1.6,1.7
	c0,0-0.1,0-0.1,0c-0.9,0-1.6-0.6-1.7-1.5C208.8,25,208.8,25,208.8,24.9z"/>
<path class="st0" d="M214,33.4c0-3,2.4-5.4,5.3-5.4c0.1,0,0.2,0,0.4,0c2.9-0.2,5.5,2,5.6,4.9c0,0.2,0,0.3,0,0.5
	c-0.1,3.1-2.8,5.6-5.9,5.4C216.5,38.7,214.1,36.4,214,33.4L214,33.4z M222.5,33.4c0.1-1.5-1-2.8-2.5-2.9c-0.1,0-0.2,0-0.3,0
	c-1.6,0-2.9,1.3-2.9,2.9s1.3,2.9,2.9,2.9C221.2,36.3,222.5,35,222.5,33.4z"/>
<path class="st0" d="M226,42.8l0.9-2.4c0.4,0.2,0.8,0.4,1.2,0.4c0.6,0,1.2-0.4,1.3-1l0.6-1.5l-4.5-10.1h3.2l2.7,6.8l0.2,1.1l0.2-1.1
	l2.6-6.7h3.1l-5.3,12.3c-0.9,2.1-1.9,2.9-3.8,2.9C227.5,43.4,226.7,43.2,226,42.8z"/>
<path class="st0" d="M72.6,57.2v6.4h-2l-0.4-1.4c-0.8,1.1-2.2,1.7-3.6,1.6c-2.4,0-3.8-1.2-3.8-3.3s1.5-3.2,4-3.2c1,0,2,0.1,3,0.5
	v-0.4c0.1-1-0.7-1.9-1.8-2c-0.1,0-0.2,0-0.4,0c-1,0-2,0.3-2.8,0.8l-1.5-1.9c1.3-0.9,2.9-1.4,4.5-1.4C70.8,53,72.6,54.6,72.6,57.2z
	 M69.9,59.8v-0.2c-0.7-0.3-1.4-0.4-2.2-0.4c-1.4,0-2,0.4-2,1.3s0.6,1.3,1.9,1.3C68.7,61.9,69.8,61,69.9,59.8
	C69.9,59.8,69.9,59.8,69.9,59.8z"/>
<path class="st0" d="M75.3,53.2h2.2l0.4,1.5c0.8-1.1,2.2-1.8,3.6-1.7c2.4,0,4,1.7,4,4.3v6.3h-2.8v-5.7c0-1.5-0.8-2.3-2.1-2.3
	c-1.3-0.1-2.5,0.9-2.5,2.2c0,0.1,0,0.2,0,0.3v5.5h-2.8V53.2z"/>
<path class="st0" d="M103.5,59.3h-7.8c0.2,1.3,1.3,2.2,2.6,2.1c0.9,0.1,1.8-0.4,2.3-1.2l2.5,1.1c-1.6,2.6-4.9,3.4-7.5,1.8
	c-2.6-1.6-3.4-4.9-1.8-7.5c1-1.6,2.8-2.6,4.7-2.6c3.1,0,5.1,2.2,5.1,5.5C103.6,58.9,103.5,59.3,103.5,59.3z M100.9,57.3
	c-0.2-1.2-1.2-2-2.4-1.9c-1.2-0.1-2.4,0.7-2.7,1.9H100.9z"/>
<path class="st0" d="M114.6,57.2v6.4h-2l-0.4-1.4c-0.8,1.1-2.2,1.7-3.6,1.6c-2.4,0-3.8-1.2-3.8-3.3s1.5-3.2,4-3.2c1,0,2,0.1,3,0.5
	v-0.4c0.1-1-0.7-1.9-1.8-2c-0.1,0-0.2,0-0.4,0c-1,0-2,0.3-2.8,0.8l-1.5-1.9c1.3-0.9,2.9-1.4,4.5-1.4C112.8,53,114.6,54.6,114.6,57.2
	z M111.8,59.8v-0.2c-0.7-0.3-1.4-0.4-2.2-0.4c-1.4,0-2,0.4-2,1.3s0.6,1.3,1.9,1.3C110.7,61.9,111.7,61,111.8,59.8
	C111.8,59.8,111.8,59.8,111.8,59.8z"/>
<path class="st0" d="M117.3,53.2h2.1l0.4,1.9c0.6-1.4,2.1-2.2,3.6-2.1c0.2,0,0.4,0,0.6,0.1l-0.2,2.8h-0.4c-2.4,0-3.4,1-3.4,3.7v4
	h-2.8L117.3,53.2z"/>
<path class="st0" d="M125.6,48.2h2.8v15.4h-2.8L125.6,48.2z"/>
<path class="st0" d="M131.1,50c0.1-0.9,0.9-1.6,1.8-1.6c0.8,0.1,1.5,0.7,1.6,1.6c0,0.9-0.7,1.6-1.6,1.7c0,0-0.1,0-0.1,0
	c-0.9,0-1.6-0.6-1.7-1.5C131,50.1,131,50,131.1,50z M131.3,53.3h2.8v10.4h-2.8V53.3z"/>
<path class="st0" d="M146.9,59.3h-7.8c0.1,1.3,1.3,2.2,2.6,2.1c0.9,0.1,1.8-0.4,2.3-1.2l2.5,1.1c-1.7,2.6-5.1,3.3-7.6,1.7
	c-1.6-1-2.5-2.7-2.5-4.6c-0.1-2.9,2.2-5.3,5.1-5.4c0.1,0,0.3,0,0.4,0c3.1,0,5.1,2.2,5.1,5.5C146.9,58.9,146.9,59.3,146.9,59.3z
	 M144.2,57.3c-0.2-1.2-1.2-2-2.4-1.9c-1.2-0.1-2.4,0.7-2.6,1.9H144.2z"/>
<path class="st0" d="M149,53.2h2.1l0.4,1.9c0.6-1.4,2.1-2.2,3.6-2.1c0.2,0,0.4,0,0.6,0.1l-0.2,2.8h-0.4c-2.4,0-3.4,1-3.4,3.7v4H149
	V53.2z"/>
<path class="st0" d="M162.4,61.2l2.4-0.7c0.2,0.8,0.9,1.3,1.6,1.2c0.9,0,1.4-0.4,1.4-1s-0.5-1-1.4-1.2l-1-0.2
	c-1.9-0.4-2.9-1.5-2.9-3.1c0-2,1.5-3.2,4-3.2c3.3,0,3.9,2.2,3.9,2.2l-2.4,0.8c-0.2-0.6-0.8-1-1.5-1c-0.8,0-1.3,0.3-1.3,0.9
	s0.5,1,1.5,1.2l1.1,0.3c1.8,0.4,2.8,1.5,2.8,3.1c0,2-1.6,3.3-4.2,3.3C163,63.9,162.4,61.2,162.4,61.2z"/>
<path class="st0" d="M183.8,58.4c0,3.2-2.1,5.4-5,5.4c-1.2,0-2.4-0.5-3.2-1.3v5.6h-2.8V53.2h2.1l0.4,1.5c0.9-1.1,2.2-1.7,3.6-1.7
	C181.7,53,183.8,55.2,183.8,58.4z M180.9,58.4c0.1-1.5-1-2.8-2.5-2.9c-0.1,0-0.1,0-0.2,0c-1.6,0.1-2.8,1.5-2.7,3
	c0.1,1.5,1.2,2.6,2.7,2.7c1.5,0,2.7-1.2,2.7-2.7C180.9,58.6,180.9,58.5,180.9,58.4z"/>
<path class="st0" d="M185.9,53.2h2.1l0.4,1.9c0.6-1.4,2-2.2,3.5-2.1c0.2,0,0.4,0,0.6,0.1l-0.2,2.8H192c-2.4,0-3.4,1-3.4,3.7v4h-2.8
	L185.9,53.2z"/>
<path class="st0" d="M194,50c0.1-0.9,0.9-1.6,1.8-1.6c0.8,0.1,1.5,0.7,1.6,1.6c0,0.9-0.7,1.6-1.6,1.7c0,0-0.1,0-0.1,0
	c-0.9,0-1.6-0.6-1.7-1.5C194,50.1,194,50,194,50z M194.3,53.3h2.8v10.4h-2.8V53.3z"/>
<path class="st0" d="M199.9,53.2h2.2l0.4,1.5c0.8-1.1,2.2-1.8,3.6-1.7c2.4,0,4,1.7,4,4.3v6.3h-2.8v-5.7c0-1.5-0.7-2.3-2.1-2.3
	c-1.3-0.1-2.4,0.9-2.5,2.2c0,0.1,0,0.2,0,0.3v5.5h-2.8L199.9,53.2z"/>
<path class="st0" d="M223.1,54.6l-1.8,0.4c0.4,0.6,0.5,1.3,0.5,2c0,2.3-1.9,4-4.5,4c-0.8,0-1.7-0.2-2.4-0.6
	c-0.6,0.1-0.9,0.4-0.9,0.8s0.5,0.8,1.4,0.8h3.5c2.2,0,3.5,1,3.5,2.8c0,2.2-2,3.5-5.6,3.5c-3,0-4.5-1-4.5-2.9c0-0.7,0.3-1.4,0.8-1.8
	c-0.9-0.4-1.5-1.3-1.5-2.3c0-1,0.6-2,1.7-2.2c-0.4-0.6-0.7-1.4-0.7-2.2c0-2.3,2-4,4.6-4h5.8L223.1,54.6z M218.3,64.1h-2.6
	c-0.5,0.2-0.7,0.6-0.7,1.1c0,0.8,0.6,1.2,2.1,1.2c1.9,0,2.7-0.4,2.7-1.3C219.7,64.4,219.3,64.1,218.3,64.1L218.3,64.1z M219.3,57
	c0-1-0.8-1.8-1.8-1.8c-0.1,0-0.1,0-0.2,0c-1-0.1-1.9,0.6-2,1.6c-0.1,1,0.6,1.9,1.6,2c0.2,0,0.3,0,0.5,0c1,0.1,1.9-0.7,2-1.7
	C219.3,57.1,219.3,57.1,219.3,57L219.3,57z"/>
<path class="st0" d="M224.6,62.1c0-0.9,0.7-1.7,1.6-1.7c0,0,0.1,0,0.1,0c0.9-0.1,1.7,0.7,1.8,1.6c0,0.1,0,0.1,0,0.2
	c0,0.9-0.7,1.7-1.7,1.7c0,0-0.1,0-0.1,0c-0.9,0-1.7-0.7-1.7-1.6C224.6,62.2,224.6,62.2,224.6,62.1z"/>
</svg>
