<?xml version="1.0" encoding="utf-8"?>
<!-- Generator: Adobe Illustrator 24.0.2, SVG Export Plug-In . SVG Version: 6.00 Build 0)  -->
<svg version="1.1" id="Layer_1" xmlns="http://www.w3.org/2000/svg" xmlns:xlink="http://www.w3.org/1999/xlink" x="0px" y="0px"
	 viewBox="0 0 728 90" style="enable-background:new 0 0 728 90;" xml:space="preserve">
<style type="text/css">
	.st0{fill:#FFFFFF;}
</style>
<title>728 x 90 2</title>
<path class="st0" d="M159.6,45.9c0-3.2,2.5-5.9,5.7-5.9c0.1,0,0.2,0,0.3,0c2.2-0.1,4.2,1.2,5.2,3.2l-2.8,1.1
	c-0.5-0.9-1.4-1.5-2.4-1.5c-1.7,0.1-3,1.6-2.9,3.3c0.1,1.5,1.3,2.8,2.8,2.9c1.1,0.1,2.2-0.6,2.7-1.6l2.8,1.1
	c-1.5,2.9-5.1,4.1-8.1,2.6C160.8,50.2,159.6,48.2,159.6,45.9L159.6,45.9z"/>
<path class="st0" d="M183,44.6v7h-2.2l-0.4-1.5c-0.7,1.2-2,1.7-3.9,1.7c-2.6,0-4.1-1.3-4.1-3.6s1.6-3.5,4.4-3.5
	c1.1,0,2.2,0.2,3.3,0.5v-0.5c0.1-1.1-0.8-2.1-1.9-2.2c-0.1,0-0.3,0-0.4,0c-1.1,0-2.2,0.3-3.1,0.9l-1.6-2c1.4-1,3.1-1.5,4.9-1.5
	C181,40,183,41.8,183,44.6z M180,47.4v-0.3c-0.8-0.3-1.6-0.4-2.4-0.4c-1.5,0-2.2,0.5-2.2,1.5s0.7,1.4,2,1.4c1.3,0.2,2.5-0.8,2.6-2
	C180,47.5,180,47.5,180,47.4z"/>
<path class="st0" d="M200.2,54.3v2.5c-0.3,0-0.6,0.1-0.9,0.1c-3.3,0-5.2-1.9-5.2-5.1v-6.3c0-1.6-0.8-2.5-2.3-2.5
	c-1.4-0.1-2.7,1.1-2.7,2.5c0,0.1,0,0.2,0,0.3v6h-3V40.3h2.5l0.4,1.6c0.9-1.2,2.3-1.9,3.8-1.9c2.7,0,4.4,1.8,4.4,4.7v6.8
	c0,1.8,0.9,2.7,2.8,2.7L200.2,54.3z"/>
<path class="st0" d="M204.8,40.3h3.2l2.1,6.9l0.2,1.3l0.2-1.3l2-6.9h2.5l2,6.9l0.2,1.3l0.2-1.3l2.5-7.6c0.9-3,2.3-4.2,4.5-4.8l1,2.7
	c-1.5,0.4-2.1,1-2.8,2.9l-3.9,11.3h-2.7l-2.2-6.9l-0.2-1l-0.2,1l-2,6.9h-2.8L204.8,40.3z"/>
<path class="st0" d="M233.7,44.6v7h-2.2l-0.4-1.5c-0.7,1.2-2,1.7-3.9,1.7c-2.6,0-4.1-1.3-4.1-3.6s1.6-3.5,4.4-3.5
	c1.1,0,2.2,0.2,3.3,0.5v-0.5c0.1-1.1-0.8-2.1-1.9-2.2c-0.1,0-0.3,0-0.4,0c-1.1,0-2.2,0.3-3.1,0.9l-1.6-2c1.4-1,3.1-1.5,4.9-1.5
	C231.7,40,233.7,41.8,233.7,44.6z M230.7,47.4v-0.3c-0.8-0.3-1.6-0.4-2.4-0.4c-1.5,0-2.2,0.5-2.2,1.5s0.7,1.4,2,1.4
	c1.3,0.2,2.5-0.7,2.6-2C230.7,47.5,230.7,47.5,230.7,47.4L230.7,47.4z"/>
<path class="st0" d="M236.3,36.7c0-1,0.8-1.8,1.8-1.8c1,0,1.8,0.8,1.8,1.8c0,1-0.8,1.8-1.7,1.8c0,0-0.1,0-0.1,0
	c-1,0-1.8-0.7-1.8-1.7C236.3,36.8,236.3,36.8,236.3,36.7z M236.6,40.3h3v11.4h-3V40.3z"/>
<path class="st0" d="M251.1,51.2c-1,0.5-2.1,0.7-3.2,0.7c-3,0-4.4-1.4-4.4-4.4v-4.6h-2v-2.3c1.7-0.1,2.6-1.2,2.7-3.4h2.4v3h3.8v2.6
	h-3.8v4.4c0,1.4,0.5,1.9,1.7,1.9c0.7,0,1.4-0.2,1.9-0.6L251.1,51.2z"/>
</svg>
