<svg xmlns="http://www.w3.org/2000/svg" xmlns:xlink="http://www.w3.org/1999/xlink" viewBox="0 0 493.21 746.87"><defs><style>.cls-1{fill:none;}.cls-2{fill:#00b7c6;opacity:0.9;}.cls-3{clip-path:url(#clip-path);}.cls-4{fill:#fff;}.cls-5{fill:#3c4c55;}.cls-6{fill:#f1663b;}.cls-7{fill:#93c848;}.cls-8{fill:#eae96d;}.cls-9{fill:#0ab4c2;}.cls-10{fill:#4ec3ce;}.cls-11{fill:#fab416;}.cls-12{fill:#fdce09;}.cls-13{fill:#c0dc92;}.cls-14{fill:#fbed23;}</style><clipPath id="clip-path"><rect class="cls-1" y="314.67" width="432" height="432"/></clipPath></defs><g id="Layer_2" data-name="Layer 2"><g id="Layer_1-2" data-name="Layer 1"><polygon class="cls-2" points="0 314.67 0 746.67 432 746.67 432 314.67 432 0 0 314.67"/><g class="cls-3"><polygon class="cls-4" points="493.21 441.02 74.14 746.87 493.21 746.87 493.21 441.02"/></g><path class="cls-5" d="M256.15,672.49v-6.14h8V653.67h7.39v12.68h9.76v6.14h-9.76v18.68c0,2.59.81,3.18,2.14,3.18a3.75,3.75,0,0,0,2.21-.88l2.88,5.18a9.63,9.63,0,0,1-6.35,2.07c-4.8,0-8.27-2.37-8.27-9.4V672.49Z"/><path class="cls-5" d="M279.25,691V675.63h7.38v14.8c0,2.81,1.48,4.51,4.5,4.51,3.55,0,5.54-1.92,5.54-5.69V675.63h7.39v25.3h-7.39v-3.25c-1.62,2.74-4.35,3.92-7.9,3.92-5.61,0-9.52-3.92-9.52-10.65"/><path class="cls-5" d="M349.2,695.39a9.46,9.46,0,0,0,6.57-2.45l4.43,4.44c-2.29,2.44-5.61,4.22-10.85,4.22-8.79,0-14.4-5.62-14.4-13.32s6-13.31,13.66-13.31c8.86,0,13.88,7,13.29,15.83H342.63c.74,2.81,2.88,4.59,6.57,4.59m4.95-9.77a5.25,5.25,0,0,0-5.54-4.44,5.63,5.63,0,0,0-5.91,4.44Z"/><rect class="cls-5" x="363.53" y="663.68" width="7.38" height="37.26"/><path class="cls-5" d="M321.51,675c-3.84,0-6.43,1.33-7.83,3.55v-2.89H306.3v32.59h0c-.06,2.36-.86,2.91-2.14,2.91a3.75,3.75,0,0,1-2.21-.88l-2.88,5.18a9.63,9.63,0,0,0,6.35,2.07c4.8,0,8.27-2.37,8.27-9.4h0V698.05c1.4,2.22,4,3.55,7.83,3.55,6.57,0,11.89-5.62,11.89-13.32S328.08,675,321.51,675m-1.92,20.12c-3.77,0-6.06-2.66-6.06-6.81s2.29-6.8,6.06-6.8,6.2,2.66,6.2,6.8-2.44,6.81-6.2,6.81"/><path class="cls-5" d="M404.46,674.71h-5.92a3.78,3.78,0,0,1-.3,2.38c-.65,1.16-1.56,1.58-3.82.33h0a14.36,14.36,0,0,0-8.18-2.45c-7.75,0-13.81,5.62-13.81,13.31s6.06,13.32,13.81,13.32,13.81-5.62,13.81-13.32a14,14,0,0,0-.39-3.28,8.89,8.89,0,0,0,3.52-3.72,9.67,9.67,0,0,0,1.28-6.57m-18.22,20.6c-3.84,0-6.2-3-6.2-7s2.36-7,6.2-7,6.2,3,6.2,7-2.36,7-6.2,7"/><line class="cls-6" x1="330.65" y1="670.73" x2="343.4" y2="641.02"/><polygon class="cls-6" points="343.4 641.02 330.65 670.73 326.99 651.54 343.4 641.02"/><polygon class="cls-7" points="284.28 641.02 297.04 670.73 300.7 651.54 300.61 651.48 284.28 641.02"/><path class="cls-6" d="M333.35,630.64a4.1,4.1,0,1,0,4.09,4.1,4.09,4.09,0,0,0-4.09-4.1"/><path class="cls-7" d="M294.33,630.64a4.1,4.1,0,1,0,4.09,4.1,4.09,4.09,0,0,0-4.09-4.1"/><path class="cls-8" d="M313.84,623.61a4.1,4.1,0,1,0,4.09,4.1,4.09,4.09,0,0,0-4.09-4.1"/><polygon class="cls-9" points="304.35 632.39 300.7 651.54 307.3 655.77 313.84 646.22 304.35 632.39"/><polygon class="cls-10" points="300.7 651.54 297.04 670.73 307.3 655.77 300.7 651.54"/><polygon class="cls-8" points="323.33 632.39 313.84 646.22 320.39 655.77 326.99 651.54 323.33 632.39"/><polygon class="cls-11" points="326.99 651.54 320.39 655.77 330.65 670.73 326.99 651.54"/><polygon class="cls-7" points="313.84 646.22 307.3 655.77 307.46 655.87 313.84 659.96 320.22 655.87 320.39 655.77 313.84 646.22"/><polygon class="cls-12" points="320.39 655.77 320.22 655.87 313.84 659.96 330.65 670.73 320.39 655.77"/><polygon class="cls-13" points="307.3 655.77 297.04 670.73 313.84 659.96 307.46 655.87 307.3 655.77"/><polygon class="cls-14" points="313.84 659.96 297.04 670.73 330.65 670.73 313.84 659.96"/></g></g></svg>