<?xml version="1.0" encoding="utf-8"?>
<!-- Generator: Adobe Illustrator 25.0.0, SVG Export Plug-In . SVG Version: 6.00 Build 0)  -->
<svg version="1.1" id="_Layer_" xmlns="http://www.w3.org/2000/svg" xmlns:xlink="http://www.w3.org/1999/xlink" x="0px" y="0px"
	 viewBox="0 0 432 432" style="enable-background:new 0 0 432 432;" xml:space="preserve">
<style type="text/css">
	.st0{fill:#FFFFFF;}
</style>
<path class="st0" d="M33.3,392.2c0-4.9,3-7.7,6.5-7.7c1.8-0.1,3.5,0.8,4.4,2.5l0.3-2.2h4.2l-1.7,9.7c-0.1,0.6,0.1,0.8,0.6,0.8h1
	l-0.6,3.2h-1.6c-3.1,0-3.5-0.8-3.7-1.9v-0.2c-0.8,1.5-2.3,2.4-4,2.3C35.7,398.7,33.3,396.2,33.3,392.2z M43.3,391.3
	c0-1.9-0.9-3.2-2.6-3.2c-1.9,0-3,1.5-3,3.8c0,1.9,1,3.1,2.6,3.1S43.4,393.5,43.3,391.3L43.3,391.3z"/>
<path class="st0" d="M51.9,384.8h4.2l-0.5,2.5c0.8-1.7,2.5-2.7,4.4-2.7c3,0,4.8,2.5,4.1,6.4l-0.6,3.6c-0.1,0.6,0.1,0.8,0.6,0.8h1
	l-0.5,3.2h-1.6c-3.1,0-4.2-0.7-3.6-3.9l0.6-3.5c0.3-1.8-0.4-2.8-1.9-2.8c-1.7,0-2.6,0.8-2.9,2.8l-1.3,7.4h-4.3L51.9,384.8z"/>
<path class="st0" d="M66.5,392.2c0-4.9,3.1-7.7,6.6-7.7c1.8-0.1,3.5,0.8,4.5,2.3l2-11.5h4.2l-3.4,19.1c-0.1,0.6,0.1,0.8,0.6,0.8h1
	l-0.6,3.2h-1.6c-3.1,0-3.6-0.8-3.7-2v-0.2c-0.8,1.6-2.4,2.6-4.2,2.5C69,398.7,66.5,396.2,66.5,392.2z M76.9,391.3
	c0-1.9-1-3.2-2.8-3.2c-2,0-3.2,1.5-3.2,3.8c0,1.9,1.1,3.1,2.8,3.1C75.6,395,76.9,393.5,76.9,391.3L76.9,391.3z"/>
<path class="st0" d="M88.9,395.9l2.9-2c0.6,1,1.8,1.6,3,1.6c1.3,0,1.6-0.4,1.6-0.8s-0.5-0.6-2.6-1.6c-1.8-0.9-3.1-2-3.1-4.1
	c0-2.8,2.2-4.4,5.1-4.4c1.8-0.1,3.6,0.7,4.8,2l-2.8,2.3c-0.4-0.7-1.2-1.1-2-1.1c-0.7,0-1.2,0.3-1.2,0.8s0.6,0.8,2,1.4
	c2.3,1,3.8,1.9,3.8,4.5s-1.9,4.3-5.7,4.3C92.4,398.8,90.2,397.8,88.9,395.9z"/>
<path class="st0" d="M102.4,388.3l0.6-3.5h2l1.2-7.1h4.2l-1.2,7.1h3.3l-0.6,3.5h-3.3l-0.9,5.1c-0.3,1.4,0.1,1.7,0.8,1.7
	c0.5,0,1-0.2,1.5-0.5l1.3,3c-1,0.8-2.3,1.2-3.6,1.1c-2.7,0-5-1.2-4.3-5.4l0.9-5L102.4,388.3z"/>
<path class="st0" d="M113.5,394.5l1.7-9.7h4.2l-1.7,9.7c-0.1,0.6,0.1,0.8,0.6,0.8h1l-0.5,3.2h-1.6
	C114,398.4,112.9,397.7,113.5,394.5z M115.6,379.8c0-1.4,1.1-2.6,2.5-2.6c0,0,0.1,0,0.1,0c1.4,0,2.6,1.1,2.6,2.6
	c0,1.4-1.1,2.6-2.6,2.6S115.6,381.3,115.6,379.8C115.6,379.8,115.6,379.8,115.6,379.8z"/>
<path class="st0" d="M121.5,394.5l3.4-19.2h4.2l-3.3,19.1c-0.1,0.6,0.1,0.8,0.6,0.8h1.2l-0.5,3.2h-1.9
	C122,398.4,120.9,397.7,121.5,394.5z"/>
<path class="st0" d="M129.5,394.5l3.4-19.2h4.2l-3.4,19.1c-0.1,0.6,0.1,0.8,0.6,0.8h1.2l-0.5,3.2h-1.9
	C130,398.4,128.9,397.7,129.5,394.5z"/>
<path class="st0" d="M142.5,395.9l2.9-2c0.6,1,1.8,1.6,3,1.6c1.3,0,1.6-0.4,1.6-0.8s-0.6-0.6-2.6-1.6s-3.1-2-3.1-4.1
	c0-2.8,2.2-4.4,5.1-4.4c1.8-0.1,3.6,0.7,4.8,2l-2.8,2.3c-0.4-0.7-1.2-1.1-2-1.1c-0.7,0-1.2,0.3-1.2,0.8s0.5,0.8,1.9,1.4
	c2.3,1,3.8,1.9,3.8,4.5s-1.9,4.3-5.7,4.3C146,398.8,143.8,397.8,142.5,395.9z"/>
<path class="st0" d="M159.9,375.3h4.2l-2.1,11.8c0.8-1.6,2.5-2.6,4.3-2.6c3,0,4.8,2.5,4.1,6.4l-0.6,3.6c-0.1,0.6,0.1,0.8,0.6,0.8h1
	l-0.6,3.2h-1.4c-2.9,0-4.4-1-3.8-4.1l0.6-3.3c0.3-1.8-0.4-2.8-1.9-2.8c-1.7,0-2.6,0.8-2.9,2.8l-1.4,7.4h-4.2L159.9,375.3z"/>
<path class="st0" d="M172.8,392.2c0-4.9,3-7.7,6.5-7.7c1.8-0.1,3.5,0.8,4.4,2.5l0.3-2.2h4.2l-1.7,9.7c-0.1,0.6,0.1,0.8,0.6,0.8h1
	l-0.6,3.2h-1.6c-3.1,0-3.5-0.8-3.7-1.9v-0.2c-0.8,1.5-2.3,2.4-4,2.3C175.2,398.7,172.8,396.2,172.8,392.2z M182.9,391.3
	c0-1.9-0.9-3.2-2.6-3.2s-3,1.5-3,3.8c0,1.9,1,3.1,2.6,3.1S182.9,393.5,182.9,391.3L182.9,391.3z"/>
<path class="st0" d="M193.2,398.4H189l4-23.1h4.2l-2.1,11.8c-0.2,1-0.5,2.1-0.8,3.1l5.1-5.4h4.8l-5.5,5.7l2,4
	c0.4,0.7,0.6,0.8,1.1,0.8h1l-0.6,3.2h-1.5c-2.4,0-3-0.8-3.9-2.7l-1.3-2.7l-1.6,1.4L193.2,398.4z"/>
<path class="st0" d="M212.3,395.2c1.2,0,2.3-0.4,3.2-1.1l2.6,2.7c-1.6,1.3-3.7,2-5.8,1.9c-5,0-7.7-3-7.7-7c-0.1-3.9,2.9-7.1,6.8-7.2
	c0.2,0,0.4,0,0.5,0c4.8,0,6.9,3.1,7.2,7.6l-10.1,1.1C209.4,394.5,210.5,395.2,212.3,395.2z M214.4,390.2c0-1.3-1-2.4-2.3-2.4
	c-0.1,0-0.2,0-0.3,0c-1.8,0-2.9,1-3.1,3L214.4,390.2z"/>
<path class="st0" d="M227.2,394.5l1.7-9.7h4.2l-1.7,9.7c-0.1,0.6,0.1,0.8,0.6,0.8h1l-0.6,3.2h-1.6
	C227.7,398.4,226.6,397.7,227.2,394.5z M229.3,379.8c0-1.4,1.1-2.6,2.5-2.6c0,0,0.1,0,0.1,0c1.4,0,2.6,1.1,2.6,2.6
	c0,1.4-1.1,2.6-2.6,2.6S229.3,381.3,229.3,379.8C229.3,379.8,229.3,379.8,229.3,379.8z"/>
<path class="st0" d="M235.4,388.3l0.6-3.5h2l1.2-7.1h4.2l-1.2,7.1h3.3l-0.6,3.5h-3.3l-0.9,5.1c-0.3,1.4,0.1,1.7,0.8,1.7
	c0.5,0,1-0.2,1.5-0.5l1.4,3c-1,0.8-2.3,1.2-3.6,1.1c-2.7,0-5-1.2-4.2-5.4l0.9-5L235.4,388.3z"/>
<path class="st0" d="M252.9,392.3l1.3-7.5h4.3l-1.3,7.4c-0.3,1.8,0.4,2.8,1.9,2.8c1.7,0,2.6-0.8,2.9-2.8l1.3-7.4h4.2l-1.7,9.7
	c-0.1,0.6,0.1,0.8,0.6,0.8h1l-0.5,3.2h-1.6c-3.1,0-3.5-0.8-3.7-2v-0.2c-0.9,1.6-2.6,2.5-4.5,2.5C254,398.7,252.2,396.2,252.9,392.3z
	"/>
<path class="st0" d="M270.8,384.8h4.2l-0.5,2c0.9-1.4,2.4-2.2,4-2.3c3.1,0,5.5,2.5,5.5,6.5c0,4.7-3,7.7-6.5,7.7
	c-1.9,0.1-3.7-0.9-4.6-2.7l-1.6,9.1h-4.2L270.8,384.8z M279.7,391.2c0-1.9-1.1-3.1-2.8-3.1s-3.2,1.5-3.2,3.7c0,1.9,1,3.2,2.8,3.2
	C278.5,395,279.7,393.5,279.7,391.2L279.7,391.2z"/>
<path class="st0" d="M292.1,392.2c0-4.9,3-7.7,6.5-7.7c1.8-0.1,3.5,0.8,4.4,2.5l0.3-2.2h4.2l-1.7,9.7c-0.1,0.6,0.1,0.8,0.6,0.8h1
	l-0.5,3.2h-1.6c-3.1,0-3.5-0.8-3.7-1.9v-0.2c-0.8,1.5-2.3,2.4-4,2.3C294.5,398.7,292.1,396.2,292.1,392.2z M302.1,391.3
	c0-1.9-0.9-3.2-2.6-3.2c-1.9,0-3,1.5-3,3.8c0,1.9,1,3.1,2.6,3.1S302.1,393.5,302.1,391.3L302.1,391.3z"/>
<path class="st0" d="M315.4,394.5l3.4-19.2h4.3l-3.4,19.1c-0.1,0.6,0.1,0.8,0.6,0.8h1.2l-0.5,3.2H319
	C315.9,398.4,314.8,397.7,315.4,394.5z"/>
<path class="st0" d="M323.4,394.5l1.7-9.7h4.2l-1.7,9.7c-0.1,0.6,0.1,0.8,0.6,0.8h1l-0.5,3.2H327
	C323.9,398.4,322.8,397.7,323.4,394.5z M325.4,379.8c0-1.4,1.1-2.6,2.5-2.6c0,0,0.1,0,0.1,0c1.4,0,2.6,1.1,2.6,2.6
	c0,1.4-1.1,2.6-2.6,2.6C326.6,382.4,325.5,381.3,325.4,379.8C325.4,379.8,325.4,379.8,325.4,379.8z"/>
<path class="st0" d="M331.6,388.3l0.6-3.5h2l1.2-7.1h4.2l-1.2,7.1h3.3l-0.6,3.5h-3.3l-0.9,5.1c-0.2,1.4,0.1,1.7,0.8,1.7
	c0.5,0,1-0.2,1.5-0.5l1.4,3c-1,0.8-2.3,1.2-3.5,1.1c-2.7,0-5-1.2-4.3-5.4l0.9-5L331.6,388.3z"/>
<path class="st0" d="M342.9,388.3l0.6-3.5h2l1.2-7.1h4.2l-1.2,7.1h3.3l-0.6,3.5H349l-0.9,5.1c-0.3,1.4,0.1,1.7,0.8,1.7
	c0.5,0,1-0.2,1.5-0.5l1.3,3c-1,0.8-2.3,1.2-3.5,1.1c-2.7,0-5-1.2-4.2-5.4l0.9-5L342.9,388.3z"/>
<path class="st0" d="M354.1,394.5l3.4-19.2h4.2l-3.4,19.1c-0.1,0.6,0.1,0.8,0.6,0.8h1.2l-0.5,3.2h-1.9
	C354.6,398.4,353.5,397.7,354.1,394.5z"/>
<path class="st0" d="M369.9,395.2c1.2,0,2.3-0.4,3.2-1.1l2.6,2.7c-1.6,1.3-3.7,2-5.8,1.9c-5,0-7.7-3-7.7-7c-0.1-3.9,2.9-7.1,6.8-7.2
	c0.2,0,0.4,0,0.5,0c4.8,0,6.9,3.1,7.2,7.6l-10.1,1.1C367,394.5,368.1,395.2,369.9,395.2z M372,390.2c0-1.3-1-2.4-2.3-2.4
	c-0.1,0-0.2,0-0.3,0c-1.8,0-2.9,1-3.1,3L372,390.2z"/>
<path class="st0" d="M377.7,395.9c0-1.4,1.2-2.6,2.7-2.5s2.6,1.2,2.5,2.7c0,1.4-1.2,2.5-2.6,2.5
	C378.9,398.6,377.7,397.4,377.7,395.9C377.7,396,377.7,396,377.7,395.9z"/>
</svg>
