<svg id="Layer_1" data-name="Layer 1" xmlns="http://www.w3.org/2000/svg" xmlns:xlink="http://www.w3.org/1999/xlink" viewBox="0 0 970 250"><defs><style>.cls-1{fill:none;}.cls-2{clip-path:url(#clip-path);}.cls-3{fill:#fff;}.cls-4{fill:#0dcf5a;}.cls-5{fill:#1f79ff;}.cls-6{clip-path:url(#clip-path-3);}.cls-7{clip-path:url(#clip-path-4);}.cls-8{fill:url(#linear-gradient);}</style><clipPath id="clip-path"><rect class="cls-1" width="970" height="250"/></clipPath><clipPath id="clip-path-3"><rect class="cls-1" x="684.54" y="96.2" width="285.46" height="153.8"/></clipPath><clipPath id="clip-path-4"><path class="cls-1" d="M745.88,185.9a.16.16,0,0,1,.29-.11c1.94,4.26,7.81,15.93,16.21,21.37a.14.14,0,0,1,.07.16c-.16.55-1,3.14-3,3.4h0l-.32,0c-3.21,0-8.64-5.86-13.24-24.84m32.49,8.56c1-5.7,9.39-55.54,12.2-55.54s-3.06,45.18-11.93,55.66a.14.14,0,0,1-.11.06.16.16,0,0,1-.16-.18m-11.84,2.71c-.36,0-8.25-3.86-18-43.64-1.66-6.78-4-12.61-9.76-11.9-5.94.75-7.63,9.31-7.63,17.69,0,8.83,5.85,62,28.39,62,10.38,0,13.13-9.82,13.45-11.09a.15.15,0,0,1,.17-.12c1.92.27,23.14,1.55,28.43-69.67.57-7.67-2.26-15.63-9.84-15.63-19.44,0-24,72.33-25.23,72.33"/></clipPath><linearGradient id="linear-gradient" y1="250" x2="1" y2="250" gradientTransform="matrix(0, -96.51, -96.51, 0, 24894.41, 221.35)" gradientUnits="userSpaceOnUse"><stop offset="0" stop-color="#0de839"/><stop offset="0.08" stop-color="#0de642"/><stop offset="0.21" stop-color="#0de259"/><stop offset="0.37" stop-color="#0dda80"/><stop offset="0.56" stop-color="#0dd0b5"/><stop offset="0.72" stop-color="#0dc6e8"/><stop offset="1" stop-color="#1f79ff"/></linearGradient></defs><g class="cls-2"><path class="cls-3" d="M73,56.48h3.75v55.76H73Z"/><path class="cls-3" d="M88.29,92.62c0-11.65,8.34-19.91,19.62-19.91S127.52,81,127.52,92.62s-8.34,19.92-19.61,19.92S88.29,104.27,88.29,92.62Zm35.4,0c0-9.84-6.76-16.53-15.78-16.53S92.13,82.78,92.13,92.62s6.76,16.54,15.78,16.54S123.69,102.47,123.69,92.62Z"/><path class="cls-3" d="M133.38,107.5l1.73-3a22.83,22.83,0,0,0,14.12,4.73c8.27,0,11.58-2.93,11.58-7.36,0-11.43-26-3-26-18.42,0-5.93,5-10.74,14.88-10.74,5,0,10.37,1.5,13.45,3.83l-1.73,3A20.19,20.19,0,0,0,149.61,76c-7.66,0-11.05,3.16-11.05,7.37,0,11.8,26,3.46,26,18.41,0,6.39-5.48,10.75-15.48,10.75C142.62,112.54,136.46,110.36,133.38,107.5Z"/><path class="cls-3" d="M194.55,109.76a11.91,11.91,0,0,1-8.05,2.78c-6.91,0-10.67-4.06-10.67-10.67V76.24h-7.21V73h7.21V64.44h3.76V73h12.48v3.23H179.59v25.25c0,5,2.48,7.82,7.29,7.82a9.07,9.07,0,0,0,6.09-2.18Z"/><path class="cls-3" d="M263.38,92.62c0,11.8-8.34,19.92-19.39,19.92a17.53,17.53,0,0,1-15.93-9.25v23.53H224.3V73h3.61v9.24A17.52,17.52,0,0,1,244,72.71C255,72.71,263.38,80.9,263.38,92.62Zm-3.76,0c0-9.84-6.84-16.53-15.86-16.53S228,82.78,228,92.62s6.76,16.54,15.78,16.54S259.62,102.47,259.62,92.62Z"/><path class="cls-3" d="M270.74,92.62c0-11.65,8.34-19.91,19.61-19.91S310,81,310,92.62s-8.34,19.92-19.61,19.92S270.74,104.27,270.74,92.62Zm35.39,0c0-9.84-6.76-16.53-15.78-16.53s-15.78,6.69-15.78,16.53,6.76,16.54,15.78,16.54S306.13,102.47,306.13,92.62Z"/><path class="cls-3" d="M376.54,73l-14.88,39.23h-3.53l-13.23-34-13.3,34.05h-3.46L313.27,73h3.6L330,108l13.38-35h3.23L359.86,108,373.08,73Z"/><path class="cls-3" d="M417.34,93.52H383.6c.37,9.32,7.21,15.64,16.61,15.64a15.84,15.84,0,0,0,12.55-5.49l2.18,2.48c-3.46,4.21-8.87,6.39-14.81,6.39-11.87,0-20.21-8.27-20.21-19.92s8-19.91,18.78-19.91,18.72,8.11,18.72,19.76C417.42,92.77,417.34,93.15,417.34,93.52Zm-33.67-2.93h30.06c-.52-8.49-6.68-14.58-15-14.58S384.27,82,383.67,90.59Z"/><path class="cls-3" d="M447.62,72.71v3.68c-.3,0-.6-.08-.9-.08-8.72,0-13.9,5.79-13.9,15.49v20.44h-3.76V73h3.61v8.57C435.07,75.86,440.26,72.71,447.62,72.71Z"/><path class="cls-3" d="M476.77,60.46a3.09,3.09,0,0,1,3.08-3.08,3,3,0,1,1-3.08,3.08ZM478,73h3.76v39.23H478Z"/><path class="cls-3" d="M532.68,89.32v22.92h-3.76V89.62c0-8.87-4.73-13.53-12.7-13.53-9.24,0-14.88,5.94-14.88,15.25v20.9h-3.75V73h3.6V81.5c2.63-5.49,8.12-8.79,15.56-8.79C526.29,72.71,532.68,78.34,532.68,89.32Z"/><path class="cls-4" d="M92.43,184.9a11.89,11.89,0,0,1-8,2.78c-6.92,0-10.67-4.06-10.67-10.67V151.38H66.5v-3.23h7.22v-8.57h3.75v8.57H90v3.23H77.47v25.25c0,5,2.48,7.82,7.29,7.82a9,9,0,0,0,6.09-2.18Z"/><path class="cls-4" d="M138,164.46v22.92h-3.76V164.76c0-8.87-4.73-13.53-12.7-13.53-9.24,0-14.88,5.94-14.88,15.26v20.89h-3.76V131.62h3.76v24.72c2.7-5.33,8.12-8.49,15.41-8.49C131.58,147.85,138,153.49,138,164.46Z"/><path class="cls-4" d="M186.66,168.67H152.92c.37,9.31,7.21,15.63,16.6,15.63a15.82,15.82,0,0,0,12.55-5.49l2.18,2.48c-3.45,4.21-8.86,6.39-14.8,6.39-11.88,0-20.22-8.27-20.22-19.92s8-19.91,18.79-19.91,18.71,8.12,18.71,19.76C186.73,167.91,186.66,168.29,186.66,168.67ZM153,165.73h30.06c-.53-8.49-6.69-14.57-15-14.57S153.59,157.17,153,165.73Z"/><path class="cls-4" d="M211.9,182.64l1.73-3a22.84,22.84,0,0,0,14.13,4.73c8.26,0,11.57-2.93,11.57-7.36,0-11.43-26-3-26-18.41,0-5.94,5-10.75,14.88-10.75,5,0,10.37,1.5,13.45,3.83l-1.73,3a20.18,20.18,0,0,0-11.8-3.53c-7.66,0-11,3.15-11,7.36,0,11.8,26,3.46,26,18.41,0,6.39-5.49,10.75-15.48,10.75C221.14,187.68,215,185.5,211.9,182.64Z"/><path class="cls-4" d="M273.07,184.9a11.91,11.91,0,0,1-8,2.78c-6.92,0-10.68-4.06-10.68-10.67V151.38h-7.21v-3.23h7.21v-8.57h3.76v8.57h12.48v3.23H258.11v25.25c0,5,2.48,7.82,7.29,7.82a9,9,0,0,0,6.09-2.18Z"/><path class="cls-4" d="M277.8,167.76c0-11.64,8.34-19.91,19.61-19.91S317,156.12,317,167.76s-8.34,19.92-19.62,19.92S277.8,179.41,277.8,167.76Zm35.39,0c0-9.84-6.76-16.53-15.78-16.53s-15.78,6.69-15.78,16.53,6.76,16.54,15.78,16.54S313.19,177.61,313.19,167.76Z"/><path class="cls-4" d="M347.23,147.85v3.68c-.3,0-.6-.07-.9-.07-8.72,0-13.9,5.78-13.9,15.48v20.44h-3.76V148.15h3.61v8.57C334.68,151,339.87,147.85,347.23,147.85Z"/><path class="cls-4" d="M422.08,164.46v22.92h-3.76V164.76c0-8.87-4.58-13.53-12.25-13.53-8.87,0-14.35,5.94-14.35,15.26v20.89H388V164.76c0-8.87-4.58-13.53-12.25-13.53-8.87,0-14.35,5.94-14.35,15.26v20.89H357.6V148.15h3.61v8.42c2.55-5.49,7.89-8.72,15-8.72s12.25,3.23,14.35,9.47c2.56-5.71,8.27-9.47,15.86-9.47C415.92,147.85,422.08,153.49,422.08,164.46Z"/><path class="cls-4" d="M458.22,147.77c0-5.78-4.66-10-13.15-10-6.77,0-11.58,2.1-15.11,6.24l-2.78-2.18c4-4.74,10-7.44,18.11-7.44,10.3,0,16.83,5.11,16.83,12.85,0,13.15-14.12,13.53-14.12,25h-3.91C444.09,159.35,458.22,158.75,458.22,147.77ZM443,184.6a3.12,3.12,0,0,1,6.24,0,3.12,3.12,0,0,1-6.24,0Z"/><g class="cls-2"><rect class="cls-5" x="742.81" y="41" width="186.19" height="40.04" rx="8.01"/></g><path class="cls-3" d="M766.43,54.16a2,2,0,0,0-1.5.54,2.26,2.26,0,0,0-.51,1.6v1.35h3.51V59h-3.47v10.1h-1.54V59h-2v-1.3h2V56.24a3.35,3.35,0,0,1,.9-2.47,3.41,3.41,0,0,1,2.55-.91,4.34,4.34,0,0,1,1.25.18,2.74,2.74,0,0,1,1,.53l-.52,1.15a2.57,2.57,0,0,0-1.69-.56Zm6.09,1a1.11,1.11,0,0,1-1.13-1.1,1,1,0,0,1,.33-.76,1.07,1.07,0,0,1,.8-.32,1.09,1.09,0,0,1,.8.31,1,1,0,0,1,.33.75,1.08,1.08,0,0,1-.33.8,1.06,1.06,0,0,1-.8.32Zm-.78,2.5h1.54v11.4h-1.54Zm11.64-.09a4.65,4.65,0,0,1,3.41,1.25,4.85,4.85,0,0,1,1.27,3.63v6.61h-1.54V62.59a3.74,3.74,0,0,0-.89-2.71A3.32,3.32,0,0,0,783.1,59,3.91,3.91,0,0,0,780.18,60a4.16,4.16,0,0,0-1.07,3v6h-1.54V57.65h1.48v2.1a4.32,4.32,0,0,1,1.74-1.62,5.62,5.62,0,0,1,2.59-.57ZM802.69,53V69.05h-1.47V66.79a4.75,4.75,0,0,1-1.83,1.76,5.45,5.45,0,0,1-2.57.61,5.83,5.83,0,0,1-2.91-.74,5.29,5.29,0,0,1-2-2.06,6.51,6.51,0,0,1,0-6,5.17,5.17,0,0,1,2-2,5.82,5.82,0,0,1,2.91-.73,5.41,5.41,0,0,1,2.5.57,4.76,4.76,0,0,1,1.83,1.68V53ZM797,67.79a4.22,4.22,0,0,0,2.15-.55,3.9,3.9,0,0,0,1.52-1.57,5.17,5.17,0,0,0,0-4.64,3.9,3.9,0,0,0-1.52-1.57A4.23,4.23,0,0,0,797,58.9a4.29,4.29,0,0,0-2.18.56A4,4,0,0,0,793.25,61a5.17,5.17,0,0,0,0,4.64,4,4,0,0,0,1.52,1.57,4.28,4.28,0,0,0,2.18.55Zm20.37,1.37a5.9,5.9,0,0,1-3-.75,5.51,5.51,0,0,1-2.08-2.07,6.26,6.26,0,0,1,0-6,5.35,5.35,0,0,1,2.08-2.06,6.33,6.33,0,0,1,5.94,0,5.26,5.26,0,0,1,2.07,2.06,6.34,6.34,0,0,1,0,6,5.42,5.42,0,0,1-2.07,2.07,5.9,5.9,0,0,1-3,.75Zm0-1.37a4.28,4.28,0,0,0,2.18-.55A3.94,3.94,0,0,0,821,65.67,5.25,5.25,0,0,0,821,61a3.94,3.94,0,0,0-1.51-1.57,4.52,4.52,0,0,0-4.36,0A3.87,3.87,0,0,0,813.63,61a5.09,5.09,0,0,0,0,4.64,3.87,3.87,0,0,0,1.51,1.57,4.31,4.31,0,0,0,2.18.55Zm19.2-10.14v11.4h-1.47V67a4.17,4.17,0,0,1-1.67,1.61,5.07,5.07,0,0,1-2.43.58,4.42,4.42,0,0,1-4.81-4.9V57.65h1.54v6.46a3.82,3.82,0,0,0,.89,2.73,3.35,3.35,0,0,0,2.54.93,3.72,3.72,0,0,0,2.83-1.1,4.2,4.2,0,0,0,1-3v-6Zm10.32,10.7a3,3,0,0,1-1.07.6,4.27,4.27,0,0,1-1.34.21,3,3,0,0,1-3.33-3.32V59h-2v-1.3h2v-2.5h1.54v2.5h3.46V59h-3.46v6.8a2.19,2.19,0,0,0,.5,1.55,1.92,1.92,0,0,0,1.47.53,2.86,2.86,0,0,0,.92-.15,2.32,2.32,0,0,0,.77-.43Zm22.69-10.79a4.5,4.5,0,0,1,3.37,1.24,4.93,4.93,0,0,1,1.23,3.64v6.61h-1.54V62.59a3.87,3.87,0,0,0-.86-2.71,3.1,3.1,0,0,0-2.41-.93,3.63,3.63,0,0,0-2.8,1.09,4.27,4.27,0,0,0-1,3v6H864V62.59a3.86,3.86,0,0,0-.85-2.71,3.16,3.16,0,0,0-2.44-.93A3.65,3.65,0,0,0,857.88,60a4.28,4.28,0,0,0-1,3v6h-1.54V57.65h1.48v2.08a4.1,4.1,0,0,1,1.69-1.61,5.37,5.37,0,0,1,2.49-.56,4.83,4.83,0,0,1,2.48.61A3.66,3.66,0,0,1,865,60a4.47,4.47,0,0,1,1.81-1.77,5.55,5.55,0,0,1,2.7-.64ZM883,69.16a6,6,0,0,1-3-.75A5.51,5.51,0,0,1,878,66.34a6.26,6.26,0,0,1,0-6A5.35,5.35,0,0,1,880,58.3a6.33,6.33,0,0,1,5.94,0,5.26,5.26,0,0,1,2.07,2.06,6.34,6.34,0,0,1,0,6A5.42,5.42,0,0,1,886,68.41a5.9,5.9,0,0,1-3,.75Zm0-1.37a4.28,4.28,0,0,0,2.18-.55,3.87,3.87,0,0,0,1.51-1.57,5.25,5.25,0,0,0,0-4.64,3.87,3.87,0,0,0-1.51-1.57,4.5,4.5,0,0,0-4.35,0A3.9,3.9,0,0,0,879.32,61a5.17,5.17,0,0,0,0,4.64,3.9,3.9,0,0,0,1.52,1.57,4.24,4.24,0,0,0,2.17.55Zm10.41-7.91A3.71,3.71,0,0,1,895,58.15a5.51,5.51,0,0,1,2.66-.59v1.5l-.37,0a3.64,3.64,0,0,0-2.82,1.11,4.41,4.41,0,0,0-1,3.1v5.81h-1.54V57.65h1.48v2.23Zm16.86,3.94h-9.54a4.08,4.08,0,0,0,1.37,2.88,4.51,4.51,0,0,0,3.12,1.09,5,5,0,0,0,1.95-.38,4.22,4.22,0,0,0,1.54-1.12l.87,1a4.91,4.91,0,0,1-1.9,1.39,6.37,6.37,0,0,1-2.5.48,6.28,6.28,0,0,1-3.11-.75A5.41,5.41,0,0,1,900,66.34a6,6,0,0,1-.76-3,6.13,6.13,0,0,1,.73-3,5.19,5.19,0,0,1,2-2.06,5.61,5.61,0,0,1,2.85-.74,5.52,5.52,0,0,1,2.84.74,5.21,5.21,0,0,1,2,2.05,6.21,6.21,0,0,1,.71,3Zm-5.51-4.94a3.88,3.88,0,0,0-2.76,1,4.16,4.16,0,0,0-1.27,2.75h8.09a4.16,4.16,0,0,0-1.27-2.75,3.92,3.92,0,0,0-2.79-1Z"/><g class="cls-6"><path class="cls-3" d="M812.52,144.47H815a2.45,2.45,0,0,1,2.31,1.61l5,13.62,5-13.62a2.46,2.46,0,0,1,2.31-1.61H832a.6.6,0,0,1,.55.82l-8,19.69a.6.6,0,0,1-.56.38h-3.47A.62.62,0,0,1,820,165l-8-19.69a.6.6,0,0,1,.56-.82"/><path class="cls-3" d="M851.27,156.52H836.59a5.79,5.79,0,0,0,6,5.26,7.32,7.32,0,0,0,5.22-2.1.61.61,0,0,1,.8,0l1.94,1.72a.61.61,0,0,1,.05.85,10.5,10.5,0,0,1-8.09,3.43,10.34,10.34,0,0,1-10.64-10.76v-.57A10.19,10.19,0,0,1,842.39,144c7.88.42,9.72,7.2,9.48,11.92a.6.6,0,0,1-.6.56m-4.08-3.14c-.31-3.06-2.12-5.46-5.26-5.46-2.9,0-4.94,2.24-5.38,5.46Z"/><path class="cls-3" d="M853.25,155v-.08A10.71,10.71,0,0,1,864.05,144a10.43,10.43,0,0,1,7.89,3.16.6.6,0,0,1,0,.83l-2.16,2.31a.62.62,0,0,1-.87,0,6.64,6.64,0,0,0-4.9-2.15c-3.45,0-6,3-6,6.59v.08c0,3.69,2.56,6.64,6.21,6.64a7,7,0,0,0,5-2.14.61.61,0,0,1,.84,0l2,2a.61.61,0,0,1,0,.84,10.35,10.35,0,0,1-8.09,3.46A10.59,10.59,0,0,1,853.25,155"/><path class="cls-3" d="M875.83,159.47V148.55h-2a.6.6,0,0,1-.6-.6v-2.88a.6.6,0,0,1,.6-.6h2v-5.1a.6.6,0,0,1,.6-.6h1.69a2.47,2.47,0,0,1,2.46,2.47v3.23h5a.6.6,0,0,1,.6.6V148a.6.6,0,0,1-.6.6h-5v10.17a2.26,2.26,0,0,0,2.56,2.59,6.43,6.43,0,0,0,2.15-.36.59.59,0,0,1,.79.55v2.63a.59.59,0,0,1-.32.53,8.17,8.17,0,0,1-4,.89c-3.5,0-6-1.53-6-6.08"/><path class="cls-3" d="M887.3,155v-.08a11.06,11.06,0,0,1,22.11-.08v.08a10.85,10.85,0,0,1-11.12,10.8,10.72,10.72,0,0,1-11-10.72m17.36,0v-.08a6.41,6.41,0,0,0-6.37-6.67c-3.81,0-6.24,3-6.24,6.59v.08a6.39,6.39,0,0,0,6.32,6.64,6.23,6.23,0,0,0,6.29-6.56"/><path class="cls-3" d="M916,157.31v7.29a.6.6,0,0,1-.6.6h-3.55a.6.6,0,0,1-.6-.6V145.07a.6.6,0,0,1,.6-.6h2.36a1.79,1.79,0,0,1,1.79,1.8v2.87c1.23-2.93,3.43-5,6.74-5.07a.6.6,0,0,1,.61.6v2.17a2.44,2.44,0,0,1-1.91,2.4c-2.17.44-5.44,2.1-5.44,8.07"/></g><g class="cls-7"><rect class="cls-8" x="731.16" y="124.84" width="71.02" height="96.51"/></g></g></svg>