<svg xmlns="http://www.w3.org/2000/svg" xmlns:xlink="http://www.w3.org/1999/xlink" viewBox="0 0 273.04 76"><defs><style>.cls-1{fill:none;}.cls-2{fill:#fff;}.cls-3{clip-path:url(#clip-path);}</style><clipPath id="clip-path" transform="translate(-0.86 -3.2)"><rect class="cls-1" width="186.2" height="28"/></clipPath></defs><title>text5</title><g id="Layer_2" data-name="Layer 2"><g id="Layer_1-2" data-name="Layer 1"><path class="cls-2" d="M138.18,71.45l-1.07.69-.28-.49,1.14-.57-1.14-.59.28-.49,1.07.68-.06-1.26h.57l-.06,1.26,1.06-.68.28.49-1.12.59,1.12.57-.28.49-1.06-.69.06,1.26h-.57Z" transform="translate(-0.86 -3.2)"/><path class="cls-2" d="M141.34,75.8V72.48h-.9v-.89h.9V70.11h1v1.48h1.09v.89h-1.09v3.1c0,.38.17.66.52.66a.78.78,0,0,0,.55-.21l.26.76a1.45,1.45,0,0,1-1.06.34A1.17,1.17,0,0,1,141.34,75.8Z" transform="translate(-0.86 -3.2)"/><path class="cls-2" d="M146.94,71.46a2.66,2.66,0,0,1,2.63,2.92v.25h-4.28a1.78,1.78,0,0,0,1.84,1.68,2.31,2.31,0,0,0,1.6-.64l.47.66a3.07,3.07,0,0,1-2.17.8,2.84,2.84,0,0,1-.09-5.67Zm-1.66,2.44h3.3a1.59,1.59,0,0,0-1.64-1.61A1.66,1.66,0,0,0,145.28,73.9Z" transform="translate(-0.86 -3.2)"/><path class="cls-2" d="M150.83,71.59h1v.83a2.31,2.31,0,0,1,1.77-1v1a1.18,1.18,0,0,0-.34,0,1.91,1.91,0,0,0-1.43.79V77h-1Z" transform="translate(-0.86 -3.2)"/><path class="cls-2" d="M161.19,73.39c0-.62-.28-1-.94-1a1.72,1.72,0,0,0-1.34.78V77h-1V73.39c0-.62-.27-1-1-1a1.74,1.74,0,0,0-1.32.79V77h-1V71.59h1v.76a2.35,2.35,0,0,1,1.75-.89,1.39,1.39,0,0,1,1.46,1,2.28,2.28,0,0,1,1.83-1c1,0,1.53.54,1.53,1.63V77h-1Z" transform="translate(-0.86 -3.2)"/><path class="cls-2" d="M163.82,75.56a2.6,2.6,0,0,0,1.81.77c.76,0,1.16-.32,1.16-.77s-.61-.72-1.31-.88c-.91-.21-2-.46-2-1.62,0-.86.74-1.6,2.06-1.6a2.88,2.88,0,0,1,2.06.77l-.45.7a2.09,2.09,0,0,0-1.6-.66c-.68,0-1.11.27-1.11.71s.59.63,1.26.78c.94.22,2.06.47,2.06,1.72,0,.93-.76,1.65-2.18,1.65a3.1,3.1,0,0,1-2.26-.84Z" transform="translate(-0.86 -3.2)"/><path class="cls-2" d="M175.27,76.41a2.3,2.3,0,0,1-1.77.72,1.8,1.8,0,0,1-1.88-1.79,1.75,1.75,0,0,1,1.88-1.77,2.26,2.26,0,0,1,1.77.72v-.9c0-.67-.55-1.07-1.32-1.07a2.18,2.18,0,0,0-1.62.72l-.44-.7a3.05,3.05,0,0,1,2.22-.88c1.17,0,2.17.51,2.17,1.89V77h-1Zm0-1.52a1.72,1.72,0,0,0-1.39-.61,1.09,1.09,0,1,0,0,2.15,1.7,1.7,0,0,0,1.39-.62Z" transform="translate(-0.86 -3.2)"/><path class="cls-2" d="M181.54,73.54c0-.9-.45-1.19-1.15-1.19a1.91,1.91,0,0,0-1.49.79V77h-1V71.59h1v.76a2.61,2.61,0,0,1,1.92-.89,1.55,1.55,0,0,1,1.73,1.74V77h-1Z" transform="translate(-0.86 -3.2)"/><path class="cls-2" d="M188,76.23a2.27,2.27,0,0,1-1.77.9c-1.41,0-2.42-1.06-2.42-2.83s1-2.84,2.42-2.84a2.21,2.21,0,0,1,1.77.91V69.53h1V77h-1Zm0-3.08a1.87,1.87,0,0,0-1.5-.8c-1,0-1.64.82-1.64,2a1.72,1.72,0,0,0,1.64,1.94,1.86,1.86,0,0,0,1.5-.79Z" transform="translate(-0.86 -3.2)"/><path class="cls-2" d="M195.94,71.46a2.34,2.34,0,0,1,2,1l-.67.61a1.5,1.5,0,0,0-1.31-.67,2,2,0,0,0,0,3.89,1.55,1.55,0,0,0,1.31-.67l.67.61a2.34,2.34,0,0,1-2,.95,2.84,2.84,0,0,1,0-5.67Z" transform="translate(-0.86 -3.2)"/><path class="cls-2" d="M198.74,74.29a2.73,2.73,0,1,1,2.73,2.84A2.68,2.68,0,0,1,198.74,74.29Zm4.41,0a1.7,1.7,0,1,0-1.68,1.95A1.75,1.75,0,0,0,203.15,74.29Z" transform="translate(-0.86 -3.2)"/><path class="cls-2" d="M209.13,73.54c0-.9-.46-1.19-1.15-1.19a1.91,1.91,0,0,0-1.49.79V77h-1V71.59h1v.76a2.59,2.59,0,0,1,1.91-.89,1.55,1.55,0,0,1,1.74,1.74V77h-1Z" transform="translate(-0.86 -3.2)"/><path class="cls-2" d="M215.59,76.23a2.24,2.24,0,0,1-1.77.9c-1.41,0-2.42-1.06-2.42-2.83s1-2.84,2.42-2.84a2.19,2.19,0,0,1,1.77.91V69.53h1V77h-1Zm0-3.08a1.86,1.86,0,0,0-1.5-.8c-1,0-1.63.82-1.63,2s.62,1.94,1.63,1.94a1.85,1.85,0,0,0,1.5-.79Z" transform="translate(-0.86 -3.2)"/><path class="cls-2" d="M218.06,70a.65.65,0,0,1,.65-.64.64.64,0,0,1,.64.64.64.64,0,0,1-.64.64A.65.65,0,0,1,218.06,70Zm.15,1.55h1V77h-1Z" transform="translate(-0.86 -3.2)"/><path class="cls-2" d="M221,75.8V72.48h-.89v-.89H221V70.11h1v1.48h1.1v.89H222v3.1c0,.38.18.66.53.66a.79.79,0,0,0,.55-.21l.25.76a1.42,1.42,0,0,1-1.05.34A1.18,1.18,0,0,1,221,75.8Z" transform="translate(-0.86 -3.2)"/><path class="cls-2" d="M224.09,70a.65.65,0,0,1,.65-.64.64.64,0,1,1-.65.64Zm.16,1.55h1V77h-1Z" transform="translate(-0.86 -3.2)"/><path class="cls-2" d="M226.52,74.29a2.74,2.74,0,1,1,2.74,2.84A2.69,2.69,0,0,1,226.52,74.29Zm4.42,0a1.7,1.7,0,1,0-1.68,1.95A1.76,1.76,0,0,0,230.94,74.29Z" transform="translate(-0.86 -3.2)"/><path class="cls-2" d="M236.92,73.54c0-.9-.46-1.19-1.16-1.19a1.93,1.93,0,0,0-1.49.79V77h-1V71.59h1v.76a2.61,2.61,0,0,1,1.92-.89,1.55,1.55,0,0,1,1.73,1.74V77h-1Z" transform="translate(-0.86 -3.2)"/><path class="cls-2" d="M239.54,75.56a2.62,2.62,0,0,0,1.81.77c.76,0,1.17-.32,1.17-.77s-.62-.72-1.31-.88c-.92-.21-2-.46-2-1.62,0-.86.74-1.6,2.06-1.6a2.88,2.88,0,0,1,2.06.77l-.44.7a2.13,2.13,0,0,0-1.61-.66c-.68,0-1.1.27-1.1.71s.58.63,1.25.78c.94.22,2.06.47,2.06,1.72,0,.93-.76,1.65-2.18,1.65a3.06,3.06,0,0,1-2.25-.84Z" transform="translate(-0.86 -3.2)"/><path class="cls-2" d="M251,76.41a2.3,2.3,0,0,1-1.77.72,1.8,1.8,0,0,1-1.88-1.79,1.75,1.75,0,0,1,1.88-1.77,2.26,2.26,0,0,1,1.77.72v-.9c0-.67-.54-1.07-1.32-1.07a2.18,2.18,0,0,0-1.62.72l-.44-.7a3.07,3.07,0,0,1,2.22-.88c1.18,0,2.17.51,2.17,1.89V77h-1Zm0-1.52a1.7,1.7,0,0,0-1.38-.61,1.09,1.09,0,1,0,0,2.15,1.68,1.68,0,0,0,1.38-.62Z" transform="translate(-0.86 -3.2)"/><path class="cls-2" d="M253.61,79.06V71.59h1v.77a2.23,2.23,0,0,1,1.77-.9c1.41,0,2.41,1.06,2.41,2.83s-1,2.84-2.41,2.84a2.17,2.17,0,0,1-1.77-.91v2.84Zm2.51-6.71a1.86,1.86,0,0,0-1.5.8v2.29a1.88,1.88,0,0,0,1.5.8c1,0,1.63-.82,1.63-1.95S257.13,72.35,256.12,72.35Z" transform="translate(-0.86 -3.2)"/><path class="cls-2" d="M260.08,79.06V71.59h1v.77a2.21,2.21,0,0,1,1.76-.9c1.42,0,2.41,1.06,2.41,2.83s-1,2.84-2.41,2.84a2.14,2.14,0,0,1-1.76-.91v2.84Zm2.51-6.71a1.83,1.83,0,0,0-1.5.8v2.29a1.85,1.85,0,0,0,1.5.8c1,0,1.62-.82,1.62-1.95S263.59,72.35,262.59,72.35Z" transform="translate(-0.86 -3.2)"/><path class="cls-2" d="M266.54,69.53h1V77h-1Z" transform="translate(-0.86 -3.2)"/><path class="cls-2" d="M269.49,78.3a.75.75,0,0,0,.78-.53l.31-.71-2.23-5.47h1.08l1.69,4.24,1.69-4.24h1.09L271.23,78a1.72,1.72,0,0,1-1.72,1.17,3.29,3.29,0,0,1-.63-.08l.16-.91A1.13,1.13,0,0,0,269.49,78.3Z" transform="translate(-0.86 -3.2)"/><g class="cls-3"><path class="cls-2" d="M.86,3.33H4.91A2.71,2.71,0,0,1,7.83,6.12,2.7,2.7,0,0,1,4.91,8.89H2.7V12H.86ZM4.67,4.92h-2V7.31h2a1.2,1.2,0,1,0,0-2.39Z" transform="translate(-0.86 -3.2)"/><path class="cls-2" d="M9,3.33h1.85v7.05h3.66V12H9Z" transform="translate(-0.86 -3.2)"/><path class="cls-2" d="M15.47,3.33h1.87V8.48a1.85,1.85,0,0,0,2,2,1.85,1.85,0,0,0,2-2V3.33h1.87v5.2c0,2.16-1.24,3.63-3.86,3.63s-3.89-1.49-3.89-3.62Z" transform="translate(-0.86 -3.2)"/><path class="cls-2" d="M25.35,9.37a3.79,3.79,0,0,0,2.76,1.17c1,0,1.5-.48,1.5-1,0-.65-.75-.87-1.75-1.11-1.42-.32-3.24-.71-3.24-2.65,0-1.44,1.25-2.61,3.29-2.61a4.79,4.79,0,0,1,3.38,1.21l-1,1.35a3.68,3.68,0,0,0-2.48-1c-.83,0-1.27.36-1.27.88s.72.77,1.73,1c1.43.32,3.25.75,3.25,2.67,0,1.59-1.14,2.79-3.48,2.79a5,5,0,0,1-3.67-1.38Z" transform="translate(-0.86 -3.2)"/><path class="cls-2" d="M41.59,10.5H37.71L37.17,12h-2l3.35-8.67h2.32L44.15,12h-2ZM38.21,8.91h2.87l-1.43-4Z" transform="translate(-0.86 -3.2)"/><path class="cls-2" d="M48.28,3.33h6.14V4.92H50.13V6.8h4.2V8.39h-4.2V12H48.28Z" transform="translate(-0.86 -3.2)"/><path class="cls-2" d="M58.9,8.89H57.55V12H55.7V3.33h4.06a2.69,2.69,0,0,1,2.91,2.79,2.49,2.49,0,0,1-1.9,2.58l2,3.3H60.61Zm.59-4H57.55V7.31h1.94a1.2,1.2,0,1,0,0-2.39Z" transform="translate(-0.86 -3.2)"/><path class="cls-2" d="M64.06,3.33H70.2V4.92H65.91V6.8h4.2V8.39h-4.2v2H70.2V12H64.06Z" transform="translate(-0.86 -3.2)"/><path class="cls-2" d="M71.64,3.33h6.14V4.92H73.49V6.8h4.2V8.39h-4.2v2h4.29V12H71.64Z" transform="translate(-0.86 -3.2)"/></g><path class="cls-2" d="M4.69,69.54a3.8,3.8,0,1,1,0,7.59,3.8,3.8,0,1,1,0-7.59Zm0,1.39a2.42,2.42,0,1,0,2.23,2.41A2.22,2.22,0,0,0,4.69,70.93Z" transform="translate(-0.86 -3.2)"/><path class="cls-2" d="M11.19,72.07V77H9.63V69.66h1.61l3.39,4.76V69.66H16.2V77H14.69Z" transform="translate(-0.86 -3.2)"/><path class="cls-2" d="M20.82,74.78a3.2,3.2,0,0,0,2.33,1c.86,0,1.27-.41,1.27-.83s-.63-.73-1.48-.93c-1.2-.28-2.74-.61-2.74-2.25,0-1.22,1.06-2.21,2.78-2.21a4,4,0,0,1,2.86,1L25,71.72a3.11,3.11,0,0,0-2.1-.8c-.7,0-1.08.3-1.08.74s.62.65,1.47.85c1.21.28,2.75.64,2.75,2.27,0,1.34-1,2.35-2.94,2.35A4.22,4.22,0,0,1,20,76Z" transform="translate(-0.86 -3.2)"/><path class="cls-2" d="M27.06,69.66h5.2V71H28.63v1.6h3.55v1.34H28.63v1.71h3.63V77h-5.2Z" transform="translate(-0.86 -3.2)"/><path class="cls-2" d="M33.48,69.66H35v6h3.1V77H33.48Z" transform="translate(-0.86 -3.2)"/><path class="cls-2" d="M39.23,69.66h5.19V71H40.79v1.6h3.56v1.34H40.79v1.71h3.63V77H39.23Z" transform="translate(-0.86 -3.2)"/><path class="cls-2" d="M45.29,73.34a3.72,3.72,0,0,1,3.85-3.8,3.4,3.4,0,0,1,3.13,1.79L50.92,72a2,2,0,0,0-1.78-1.06,2.42,2.42,0,0,0,0,4.82,2,2,0,0,0,1.78-1.07l1.35.65a3.42,3.42,0,0,1-3.13,1.8A3.72,3.72,0,0,1,45.29,73.34Z" transform="translate(-0.86 -3.2)"/><path class="cls-2" d="M54.89,71H52.75V69.66H58.6V71H56.47v6H54.89Z" transform="translate(-0.86 -3.2)"/><path class="cls-2" d="M59.6,69.66h5.19V71H61.16v1.6h3.56v1.34H61.16v1.71h3.63V77H59.6Z" transform="translate(-0.86 -3.2)"/><path class="cls-2" d="M66,69.66h2.9a3.68,3.68,0,1,1,0,7.34H66Zm2.9,6a2.2,2.2,0,0,0,2.3-2.29,2.15,2.15,0,0,0-2.3-2.3H67.58v4.59Z" transform="translate(-0.86 -3.2)"/><path class="cls-2" d="M83.11,71.72,81,77h-.68l-2.07-5.28V77H76.73V69.66h2.19l1.78,4.58,1.78-4.58h2.2V77H83.11Z" transform="translate(-0.86 -3.2)"/><path class="cls-2" d="M89.61,69.54a3.8,3.8,0,1,1-3.83,3.8A3.69,3.69,0,0,1,89.61,69.54Zm0,1.39a2.42,2.42,0,1,0,2.23,2.41A2.22,2.22,0,0,0,89.61,70.93Z" transform="translate(-0.86 -3.2)"/><path class="cls-2" d="M94.55,69.66h2.89a3.68,3.68,0,1,1,0,7.34H94.55Zm2.89,6a2.2,2.2,0,0,0,2.3-2.29,2.15,2.15,0,0,0-2.3-2.3H96.11v4.59Z" transform="translate(-0.86 -3.2)"/><path class="cls-2" d="M102.45,69.66h5.19V71H104v1.6h3.55v1.34H104v1.71h3.63V77h-5.19Z" transform="translate(-0.86 -3.2)"/><path class="cls-2" d="M108.86,69.66h1.56v6h3.1V77h-4.66Z" transform="translate(-0.86 -3.2)"/><path class="cls-2" d="M115,74.78a3.22,3.22,0,0,0,2.34,1c.85,0,1.27-.41,1.27-.83s-.64-.73-1.48-.93c-1.2-.28-2.74-.61-2.74-2.25,0-1.22,1.05-2.21,2.78-2.21a4,4,0,0,1,2.86,1l-.87,1.14a3.11,3.11,0,0,0-2.1-.8c-.7,0-1.08.3-1.08.74s.62.65,1.47.85c1.21.28,2.75.64,2.75,2.27,0,1.34-1,2.35-2.94,2.35A4.22,4.22,0,0,1,114.11,76Z" transform="translate(-0.86 -3.2)"/><path class="cls-2" d="M122.12,71.76l-1,.65-.34-.59,1.07-.55-1.07-.55.34-.61,1,.65-.05-1.21h.69l-.05,1.21,1-.65.35.61-1.07.55,1.07.55-.35.59-1-.65.05,1.21h-.69Z" transform="translate(-0.86 -3.2)"/><path class="cls-2" d="M21.21,40.87H5.2V53.8H.86V24.85H5.2V37h16V24.85h4.34V53.8H21.21Z" transform="translate(-0.86 -3.2)"/><path class="cls-2" d="M33.19,58.83a2.88,2.88,0,0,0,3-2L37.45,54,28.81,32.84H33l6.55,16.45,6.55-16.45h4.21L40,57.79a6.63,6.63,0,0,1-6.68,4.52A11.55,11.55,0,0,1,30.85,62l.61-3.51A4.89,4.89,0,0,0,33.19,58.83Z" transform="translate(-0.86 -3.2)"/><path class="cls-2" d="M53.55,24.85H65.74c6,0,9.25,4.08,9.25,8.9s-3.35,8.9-9.25,8.9H57.89V53.8H53.55Zm11.63,3.82H57.89V38.83h7.29c3.12,0,5.34-2,5.34-5.08S68.3,28.67,65.18,28.67Z" transform="translate(-0.86 -3.2)"/><path class="cls-2" d="M94.52,47.81H80.33L78,53.8H73.21l11.5-28.95h5.42l11.5,28.95H96.86ZM81.58,44H93.26L87.4,28.63Z" transform="translate(-0.86 -3.2)"/><path class="cls-2" d="M105.32,46.38a12.23,12.23,0,0,0,9.12,4.08c4.68,0,6.33-2.39,6.33-4.47,0-3-3.3-3.91-7-4.86-4.65-1.22-10-2.56-10-8.46,0-4.78,4.21-8.25,10.24-8.25a14.18,14.18,0,0,1,10.55,4L122,31.67a11.26,11.26,0,0,0-8.37-3.39c-3.22,0-5.43,1.65-5.43,4.08,0,2.61,3.13,3.43,6.73,4.34,4.73,1.26,10.24,2.74,10.24,8.9,0,4.51-3.13,8.72-10.94,8.72-5.16,0-8.94-1.87-11.41-4.6Z" transform="translate(-0.86 -3.2)"/><path class="cls-2" d="M159.75,47.81h-14.2l-2.34,6h-4.77l11.5-28.95h5.42l11.5,28.95h-4.77ZM146.81,44h11.68l-5.86-15.32Z" transform="translate(-0.86 -3.2)"/><path class="cls-2" d="M170.34,24.85h12.19c5.95,0,9.24,4.08,9.24,8.9s-3.34,8.9-9.24,8.9h-7.85V53.8h-4.34ZM182,28.67h-7.29V38.83H182c3.12,0,5.33-2,5.33-5.08S185.09,28.67,182,28.67Z" transform="translate(-0.86 -3.2)"/><path class="cls-2" d="M196.25,24.85h12.19c5.94,0,9.24,4.08,9.24,8.9s-3.34,8.9-9.24,8.9h-7.86V53.8h-4.33Zm11.62,3.82h-7.29V38.83h7.29c3.13,0,5.34-2,5.34-5.08S211,28.67,207.87,28.67Z" transform="translate(-0.86 -3.2)"/></g></g></svg>