<svg xmlns="http://www.w3.org/2000/svg" xmlns:xlink="http://www.w3.org/1999/xlink" viewBox="0 0 138.75 64.32"><defs><style>.cls-1{fill:none;}.cls-2{clip-path:url(#clip-path);}.cls-3{fill:#fff;}</style><clipPath id="clip-path" transform="translate(0 -3.68)"><rect class="cls-1" x="1.11" width="27.5" height="25"/></clipPath></defs><title>text4</title><g id="Layer_2" data-name="Layer 2"><g id="Layer_1-2" data-name="Layer 1"><g class="cls-2"><path class="cls-3" d="M6.36,3.68a4.61,4.61,0,0,1,4.8,4.74,4.61,4.61,0,0,1-4.8,4.75A4.6,4.6,0,0,1,1.58,8.42,4.6,4.6,0,0,1,6.36,3.68Zm0,1.73a2.77,2.77,0,0,0-2.77,3,2.79,2.79,0,1,0,5.56,0A2.78,2.78,0,0,0,6.36,5.41Z" transform="translate(0 -3.68)"/><path class="cls-3" d="M15.92,9.71H14.49V13h-2V3.83h4.29a2.86,2.86,0,0,1,3.08,3,2.64,2.64,0,0,1-2,2.72L20,13H17.72Zm.62-4.2h-2V8h2a1.27,1.27,0,1,0,0-2.53Z" transform="translate(0 -3.68)"/></g><path class="cls-3" d="M6,60.92,4.1,68H2.63L0,58.83H1.54l1.9,7.36,2-7.36H6.56l2,7.36,1.9-7.36H12L9.38,68H7.9Z" transform="translate(0 -3.68)"/><path class="cls-3" d="M18.34,66.1H13.85L13.1,68H11.59l3.64-9.17H17L20.6,68H19.08Zm-4.1-1.22h3.7L16.09,60Z" transform="translate(0 -3.68)"/><path class="cls-3" d="M24.79,64.47H23.07V68H21.7V58.83h3.86a2.73,2.73,0,0,1,2.94,2.82,2.55,2.55,0,0,1-2.28,2.68L28.57,68H27ZM25.38,60H23.07v3.22h2.31a1.61,1.61,0,1,0,0-3.22Z" transform="translate(0 -3.68)"/><path class="cls-3" d="M33.29,64.47H31.57V68H30.19V58.83h3.87A2.74,2.74,0,0,1,37,61.65a2.55,2.55,0,0,1-2.28,2.68L37.07,68h-1.6ZM33.88,60H31.57v3.22h2.31a1.61,1.61,0,1,0,0-3.22Z" transform="translate(0 -3.68)"/><path class="cls-3" d="M44.49,66.1H40L39.26,68H37.74l3.65-9.17H43.1L46.75,68H45.24ZM40.4,64.88h3.69L42.24,60Z" transform="translate(0 -3.68)"/><path class="cls-3" d="M49.22,61v7H47.85V58.83h1.42l5,6.87V58.83h1.37V68H54.3Z" transform="translate(0 -3.68)"/><path class="cls-3" d="M59.91,60H57.06V58.83h7V60H61.28v8H59.91Z" transform="translate(0 -3.68)"/><path class="cls-3" d="M68.19,64.16,64.6,58.83h1.58l2.69,4.1,2.67-4.1h1.59l-3.57,5.33V68H68.19Z" transform="translate(0 -3.68)"/><path class="cls-3" d="M3.35,42.12a10.33,10.33,0,0,0,7.9,3.61c3.91,0,6.25-1.87,6.25-4.85,0-3.14-2.55-4.46-6.67-4.46-1.15,0-2.64,0-3.06,0V32.6c.46,0,2,0,3.06,0,3.44,0,6.24-1.28,6.24-4.21S14.35,24,11,24a9.88,9.88,0,0,0-7.4,3.28L1.35,24.65a12.76,12.76,0,0,1,10-4.42c5.78,0,9.94,2.85,9.94,7.61,0,3.95-3.35,6-6.16,6.54,2.68.26,6.59,2.47,6.59,6.93,0,4.76-3.95,8.2-10.37,8.2-4.93,0-8.59-2.08-10.41-4.63Z" transform="translate(0 -3.68)"/><path class="cls-3" d="M46.14,37.14,35.05,20.66h4.89l8.33,12.66,8.24-12.66h4.93l-11,16.48V49H46.14Z" transform="translate(0 -3.68)"/><path class="cls-3" d="M64.84,20.66h19v3.73H69.09v8.29H83.58v3.74H69.09v8.84H83.88V49h-19Z" transform="translate(0 -3.68)"/><path class="cls-3" d="M107.13,43.14H93.23L90.94,49H86.26L97.52,20.66h5.32L114.1,49h-4.68ZM94.46,39.35H105.9l-5.74-15Z" transform="translate(0 -3.68)"/><path class="cls-3" d="M127.06,38.08h-5.31V49H117.5V20.66h11.94c5.4,0,9.1,3.48,9.1,8.71a7.9,7.9,0,0,1-7.06,8.28L138.75,49h-4.93Zm1.83-13.69h-7.14v10h7.14c3.06,0,5.27-2,5.27-5S132,24.39,128.89,24.39Z" transform="translate(0 -3.68)"/></g></g></svg>