<?xml version="1.0" encoding="utf-8"?>
<!-- Generator: Adobe Illustrator 26.0.1, SVG Export Plug-In . SVG Version: 6.00 Build 0)  -->
<svg version="1.1" id="Layer_1" xmlns="http://www.w3.org/2000/svg" xmlns:xlink="http://www.w3.org/1999/xlink" x="0px" y="0px"
	 viewBox="0 0 970 250" style="enable-background:new 0 0 970 250;" xml:space="preserve">
<style type="text/css">
	.st0{fill:#FFFFFF;}
</style>
<g>
	<g>
		<path class="st0" d="M420.7,119.8h5.8l3.9,10.6c0.7,1.8,1.4,4.8,1.4,4.8c0.4-1.6,1-3.2,1.6-4.8l5.1-10.9h0.5l5.2,10.9
			c0.7,1.6,1.2,3.2,1.6,4.8c0,0,0.7-3,1.4-4.8l3.8-10.6h5.3l-9.6,26.8h-0.5l-6-12.8c-0.6-1.3-1.1-2.6-1.5-3.9c0,0-0.8,2.5-1.5,3.9
			l-6.2,12.8h-0.5L420.7,119.8z"/>
		<path class="st0" d="M464.2,119.5h0.5l12.1,26.8h-5.7l-1.2-3h-10.8l-1.2,3h-5.3L464.2,119.5z M467.9,138.7l-1.9-4.6
			c-0.8-1.9-1.6-4.8-1.6-4.8c-0.4,1.6-1,3.2-1.6,4.8l-1.9,4.6H467.9z"/>
		<path class="st0" d="M487.6,134c-1.1-1.1-2.2-2.3-3.2-3.6c0.2,1.6,0.3,3.2,0.4,4.8v11.1h-5.1v-26.8h0.5l13.4,12.6
			c1.1,1.1,2.2,2.4,3.1,3.6c0,0-0.4-3-0.4-4.8v-11.1h5.1v26.8H501L487.6,134z"/>
		<path class="st0" d="M512.3,124.5h-7.6v-4.8h20.6v4.8h-7.6v21.7h-5.5V124.5z"/>
		<path class="st0" d="M528.4,119.8H546v4.8h-12.1v8.4h10.7v4.7h-10.7v3.8h12.6v4.8h-18.1L528.4,119.8z"/>
		<path class="st0" d="M551.3,119.8h8.2c8.2,0,14,5.4,14,13.3s-5.8,13.3-14,13.3h-8.2V119.8z M559.2,141.5c5.9,0,8.6-3.5,8.6-8.5
			s-2.7-8.5-8.6-8.5h-2.4v16.9L559.2,141.5z"/>
	</g>
</g>
</svg>
