<?xml version="1.0" encoding="utf-8"?>
<!-- Generator: Adobe Illustrator 26.0.1, SVG Export Plug-In . SVG Version: 6.00 Build 0)  -->
<svg version="1.1" id="Layer_1" xmlns="http://www.w3.org/2000/svg" xmlns:xlink="http://www.w3.org/1999/xlink" x="0px" y="0px"
	 viewBox="0 0 970 250" style="enable-background:new 0 0 970 250;" xml:space="preserve">
<style type="text/css">
	.st0{fill:#FFFFFF;}
</style>
<g>
	<g>
		<path class="st0" d="M262.4,189.4c0-2.2,1.8-3.9,3.9-3.9c2.1,0,3.9,1.7,3.9,3.9c0,2.2-1.8,3.9-3.9,3.9
			C264.1,193.3,262.4,191.6,262.4,189.4z"/>
		<path class="st0" d="M281.7,186.7c0-7.8,5.7-13.4,13.5-13.4c4,0,7.2,1.1,9.3,3.5l-2.7,2.7c-1.7-1.8-4.1-2.7-6.6-2.6
			c-5.5,0-9.3,4.2-9.3,9.8c-0.2,5.2,3.8,9.6,8.9,9.8c0.3,0,0.6,0,0.9,0c2.3,0.1,4.5-0.5,6.5-1.7v-4.6h-7.1v-3.6h10.8v10.2
			c-2.9,2.3-6.5,3.5-10.2,3.4C287.5,200.2,281.7,194.6,281.7,186.7z"/>
		<path class="st0" d="M311.2,173.6h16.7v3.6h-12.6v10.2h11.2v3.5h-11.2v5.4h13.1v3.6h-17.2V173.6z"/>
		<path class="st0" d="M338.9,184.5c-1-1.1-2.5-2.9-2.5-2.9c0.2,1.3,0.2,2.5,0.3,3.8v14.5h-3.8v-26.5h0.5l14.5,15.6
			c1,1.1,2.4,2.9,2.4,2.9s-0.3-2.3-0.3-3.8v-14.4h3.8v26.5h-0.5L338.9,184.5z"/>
		<path class="st0" d="M359.8,190.6v-17h4.1v16.8c0,4.2,2.1,6.1,5.9,6.1s5.9-1.9,5.9-6.1v-16.8h4.1v17c0,6.4-4.3,9.6-10,9.6
			S359.8,197,359.8,190.6z"/>
		<path class="st0" d="M385.8,173.6h4.1v26.2h-4.1V173.6z"/>
		<path class="st0" d="M401.9,184.5c-1-1.1-2.5-2.9-2.5-2.9c0.2,1.3,0.2,2.5,0.3,3.8v14.5h-3.8v-26.5h0.5l14.5,15.6
			c1,1.1,2.4,2.9,2.4,2.9s-0.3-2.3-0.3-3.8v-14.4h3.8v26.5h-0.5L401.9,184.5z"/>
		<path class="st0" d="M422.9,173.6h16.7v3.6H427v10.2h11.1v3.5H427v5.4h13.1v3.6h-17.2V173.6z"/>
		<path class="st0" d="M452.5,186.7c-0.1-7.3,5.7-13.3,12.9-13.4c0.2,0,0.4,0,0.5,0c4.7,0,8.2,1.7,10.5,5.2l-3.1,2.2
			c-1.6-2.5-4.4-3.9-7.4-3.8c-5.4,0-9.3,4.2-9.3,9.8s3.9,9.8,9.3,9.8c3.1,0.1,6.1-1.5,7.8-4.1l3.1,2.2c-2.4,3.6-6.5,5.8-10.9,5.6
			c-7.3,0.1-13.3-5.7-13.5-13C452.5,187.1,452.5,186.9,452.5,186.7z"/>
		<path class="st0" d="M489.7,173.3h0.5l11.5,26.5h-4.2l-1.5-3.7h-12l-1.5,3.7h-3.9L489.7,173.3z M494.4,192.7l-3.3-8.2
			c-0.5-1.3-0.9-2.6-1.3-3.9c-0.3,1.3-0.8,2.6-1.3,3.9l-3.3,8.2H494.4z"/>
		<path class="st0" d="M523.2,199.9h-4.7l-4.7-6.9c-0.7,0.1-1.5,0.1-2.2,0.2h-2.5v6.8H505v-26.3h6.6c7.3,0,11.3,3.8,11.3,9.8
			c0,4.1-1.8,6.8-5.2,8.3L523.2,199.9z M511.4,189.6c5.2,0,7.3-2.3,7.3-6.2s-2.2-6.2-7.3-6.2h-2.3v12.4H511.4z"/>
		<path class="st0" d="M527.8,173.6h16.7v3.6h-12.6v10.2h11.2v3.5h-11.2v5.4h13.1v3.6h-17.2V173.6z"/>
		<path class="st0" d="M549.5,173.6h16.7v3.6h-12.6v10.2h11.2v3.5h-11.2v5.4h13.1v3.6h-17.2V173.6z"/>
		<path class="st0" d="M589.4,199.9h-4.7L580,193c-0.7,0.1-1.5,0.1-2.2,0.2h-2.5v6.8h-4.1v-26.3h6.6c7.2,0,11.3,3.8,11.3,9.8
			c0,4.1-1.8,6.8-5.2,8.3L589.4,199.9z M577.6,189.6c5.2,0,7.3-2.3,7.3-6.2s-2.2-6.2-7.3-6.2h-2.3v12.4H577.6z"/>
		<path class="st0" d="M602.7,173.6h6.6c7.3,0,11.3,3.9,11.3,10s-4,10-11.3,10h-2.5v6.2h-4.1L602.7,173.6z M609.2,190
			c5.2,0,7.2-2.4,7.2-6.4s-2.1-6.4-7.2-6.4h-2.4V190H609.2z"/>
		<path class="st0" d="M632,173.3h0.5l11.5,26.5h-4.3l-1.5-3.7h-12l-1.5,3.7h-3.9L632,173.3z M636.8,192.7l-3.3-8.2
			c-0.7-1.6-1.3-3.9-1.3-3.9c-0.4,1.3-0.8,2.6-1.3,3.9l-3.3,8.2H636.8z"/>
		<path class="st0" d="M650.1,177.2h-7.8v-3.6H662v3.6h-7.8v22.7h-4L650.1,177.2z"/>
		<path class="st0" d="M665.4,173.6h4.1v14.1h12.6v-14.1h4.1v26.2h-4.1v-8.5h-12.6v8.5h-4.1V173.6z"/>
		<path class="st0" d="M689.8,194.8l3.4-1.9c1.2,2.1,2.8,3.7,6,3.7c2.7,0,4.6-1.4,4.6-3.6s-1.5-3.3-4.4-4.6l-1.7-0.8
			c-3.8-1.7-6.1-3.6-6.1-7.7c0-3.9,3-6.7,7.4-6.7c3.5,0,5.8,1.3,7.4,4.1l-3.2,2c-0.7-1.6-2.4-2.6-4.2-2.6c-2.1,0-3.4,1.3-3.4,3.1
			c0,2,1.1,2.9,3.8,4l1.7,0.8c4.5,2,6.9,4.1,6.9,8.3c0,4.6-3.6,7.3-8.5,7.3S691.3,197.7,689.8,194.8z"/>
	</g>
</g>
</svg>
