<?xml version="1.0" encoding="utf-8"?>
<!-- Generator: Adobe Illustrator 26.0.1, SVG Export Plug-In . SVG Version: 6.00 Build 0)  -->
<svg version="1.1" id="Layer_1" xmlns="http://www.w3.org/2000/svg" xmlns:xlink="http://www.w3.org/1999/xlink" x="0px" y="0px"
	 viewBox="0 0 970 250" style="enable-background:new 0 0 970 250;" xml:space="preserve">
<style type="text/css">
	.st0{fill:#FFFFFF;}
</style>
<g>
	<g>
		<path class="st0" d="M391.1,144.1h-7.6v-4.8h20.6v4.8h-7.6v21.7h-5.5V144.1z"/>
		<path class="st0" d="M407.3,139.3h5.5v13.6h11.3v-13.6h5.5v26.5h-5.5v-8.1h-11.3v8.1h-5.5L407.3,139.3z"/>
		<path class="st0" d="M433.9,152.5c-0.1-7.6,6-13.8,13.6-13.8s13.8,6,13.8,13.6c0.1,7.6-6,13.8-13.6,13.8c0,0-0.1,0-0.1,0
			c-7.4,0.2-13.6-5.7-13.7-13.1C433.9,152.9,433.9,152.7,433.9,152.5z M455.8,152.5c0-4.9-3.3-8.7-8.1-8.7s-8.1,3.8-8.1,8.7
			s3.3,8.7,8.1,8.7S455.8,157.5,455.8,152.5z"/>
		<path class="st0" d="M465.5,156.2v-16.9h5.5v16.6c0,3.9,1.7,5.4,5.3,5.4s5.2-1.5,5.2-5.4v-16.6h5.5v16.9c0,6.7-4.6,9.9-10.7,9.9
			S465.5,162.9,465.5,156.2z"/>
		<path class="st0" d="M491.1,152.5c0-7.8,5.5-13.6,13.5-13.6c4.3,0,7.5,1.2,9.6,3.7l-3.7,3.7c-1.5-1.7-3.7-2.6-5.9-2.4
			c-4.8,0-7.9,3.7-7.9,8.7s3.2,8.7,8.8,8.7c1.8,0,3.5-0.3,5.2-1v-3.9h-6.4v-4.8h11.4v11.5c-3,2.1-6.5,3.2-10.2,3.1
			C496.8,166.1,491.1,160.4,491.1,152.5z"/>
		<path class="st0" d="M520.7,139.3h5.5v13.6h11.3v-13.6h5.5v26.5h-5.5v-8.1h-11.3v8.1h-5.5V139.3z"/>
		<path class="st0" d="M553.7,144.1h-7.6v-4.8h20.6v4.8h-7.6v21.7h-5.5L553.7,144.1z"/>
		<path class="st0" d="M574.6,150.6h1.8c3.2,0,4.4-1.8,4.4-3.7c0-1.8-1.4-3.3-3.2-3.3c0,0,0,0-0.1,0c-1.8-0.1-3.4,0.9-4.1,2.5
			l-4.2-2.4c1.4-3.1,4.2-4.8,8.3-4.8c5.6,0,8.7,3.9,8.7,7.9s-2.3,7-6.6,7.6v2.3h-4.9L574.6,150.6z M573.7,162.7
			c0-1.8,1.5-3.3,3.3-3.3c1.8,0,3.3,1.5,3.3,3.3c0,1.8-1.5,3.3-3.3,3.3c-1.8,0-3.3-1.4-3.3-3.2C573.7,162.8,573.7,162.8,573.7,162.7
			z"/>
	</g>
</g>
</svg>
