<?xml version="1.0" encoding="utf-8"?>
<!-- Generator: Adobe Illustrator 26.0.1, SVG Export Plug-In . SVG Version: 6.00 Build 0)  -->
<svg version="1.1" id="Layer_1" xmlns="http://www.w3.org/2000/svg" xmlns:xlink="http://www.w3.org/1999/xlink" x="0px" y="0px"
	 viewBox="0 0 970 250" style="enable-background:new 0 0 970 250;" xml:space="preserve">
<style type="text/css">
	.st0{fill:#FFFFFF;}
</style>
<g>
	<g>
		<path class="st0" d="M413,66.2c-1-1.1-2.5-3-2.5-3c0.2,1.3,0.2,2.5,0.3,3.8v14.7H407V54.9h0.5l14.6,15.7c1,1.1,2.5,3,2.5,3
			s-0.3-2.3-0.3-3.8V55.1h3.8v26.8h-0.5L413,66.2z"/>
		<path class="st0" d="M434.1,72.3V55.1h4.1v17c0,4.3,2.1,6.2,6,6.2s6-1.9,6-6.2v-17h4.1v17.2c0,6.4-4.4,9.7-10.1,9.7
			S434.1,78.8,434.1,72.3z"/>
		<path class="st0" d="M478.6,81.6h-4.8l-4.8-7c-0.7,0.1-1.5,0.1-2.2,0.2h-2.5v6.8h-4.1V55.1h6.6c7.3,0,11.4,3.8,11.4,9.9
			c0,4.1-1.8,6.9-5.3,8.4L478.6,81.6z M466.7,71.3c5.3,0,7.4-2.3,7.4-6.2s-2.2-6.3-7.4-6.3h-2.3v12.5H466.7z"/>
		<path class="st0" d="M480.7,76.5l3.4-1.9c1.2,2.1,2.9,3.7,6.1,3.7c2.7,0,4.6-1.4,4.6-3.6s-1.6-3.3-4.5-4.6l-1.8-0.8
			c-3.9-1.7-6.2-3.7-6.2-7.8c0-3.9,3-6.7,7.5-6.7c3.5,0,5.9,1.3,7.5,4.2l-3.3,2c-0.7-1.7-2.4-2.7-4.2-2.6c-2.1,0-3.4,1.3-3.4,3.1
			c0,2,1.1,2.9,3.8,4.1l1.7,0.8c4.5,2,6.9,4.1,6.9,8.3c0,4.6-3.6,7.3-8.6,7.3S482.1,79.5,480.7,76.5z"/>
		<path class="st0" d="M503.4,55.1h4.1v26.5h-4.1V55.1z"/>
		<path class="st0" d="M519.6,66.2c-1.1-1.1-2.5-3-2.5-3c0.2,1.3,0.2,2.5,0.3,3.8v14.7h-3.8V54.9h0.5l14.6,15.7c1,1.1,2.5,3,2.5,3
			s-0.3-2.3-0.3-3.8V55.1h3.8v26.8h-0.5L519.6,66.2z"/>
		<path class="st0" d="M539.5,68.4c0-7.9,5.7-13.6,13.6-13.6c4,0,7.2,1.1,9.4,3.5l-2.8,2.8c-1.7-1.8-4.1-2.8-6.6-2.6
			c-5.5,0-9.4,4.2-9.4,9.9c-0.2,5.2,3.8,9.7,9,9.9c0.3,0,0.6,0,0.9,0c2.3,0.1,4.6-0.5,6.6-1.7v-4.7H553v-3.6h10.9v10.3
			c-2.9,2.3-6.6,3.5-10.3,3.4C545.3,82,539.5,76.3,539.5,68.4z"/>
	</g>
</g>
</svg>
