<?xml version="1.0" encoding="utf-8"?>
<!-- Generator: Adobe Illustrator 26.0.1, SVG Export Plug-In . SVG Version: 6.00 Build 0)  -->
<svg version="1.1" id="Layer_1" xmlns="http://www.w3.org/2000/svg" xmlns:xlink="http://www.w3.org/1999/xlink" x="0px" y="0px"
	 viewBox="0 0 970 250" style="enable-background:new 0 0 970 250;" xml:space="preserve">
<style type="text/css">
	.st0{fill:#FFFFFF;}
</style>
<g>
	<g>
		<path class="st0" d="M405.9,106.4C405.8,99,411.7,93,419,92.8c0.2,0,0.4,0,0.5,0c4.8,0,8.3,1.8,10.6,5.3l-3.2,2.3
			c-1.6-2.5-4.5-4-7.4-3.8c-5.5,0-9.4,4.2-9.4,9.9s3.9,9.9,9.4,9.9c3.2,0.1,6.2-1.5,7.8-4.2l3.2,2.2c-2.4,3.7-6.6,5.8-11,5.7
			c-7.4,0.1-13.5-5.7-13.6-13.1C405.9,106.7,405.9,106.6,405.9,106.4z"/>
		<path class="st0" d="M443.5,92.9h0.5l11.6,26.8h-4.3l-1.5-3.7h-12.1l-1.5,3.7h-4L443.5,92.9z M448.3,112.4l-3.3-8.3
			c-0.5-1.3-0.9-2.6-1.3-3.9c-0.4,1.3-0.8,2.7-1.3,3.9l-3.3,8.3H448.3z"/>
		<path class="st0" d="M477.4,119.6h-4.8l-4.8-7c-0.7,0.1-1.5,0.1-2.2,0.2h-2.5v6.8H459V93.1h6.6c7.4,0,11.4,3.9,11.4,9.9
			c0,4.1-1.8,6.9-5.3,8.4L477.4,119.6z M465.5,109.3c5.3,0,7.4-2.3,7.4-6.2s-2.2-6.3-7.4-6.3h-2.3v12.5H465.5z"/>
		<path class="st0" d="M482.1,93.1h16.9v3.6h-12.7V107h11.3v3.6h-11.3v5.4h13.3v3.6h-17.4V93.1z"/>
		<path class="st0" d="M504,93.1h16.8v3.6h-12.7V107h11.3v3.6h-11.3v5.4h13.3v3.6H504V93.1z"/>
		<path class="st0" d="M544.2,119.6h-4.8l-4.8-7c-0.7,0.1-1.5,0.1-2.2,0.2H530v6.8h-4.1V93.1h6.6c7.3,0,11.4,3.8,11.4,9.9
			c0,4.1-1.8,6.9-5.3,8.4L544.2,119.6z M532.3,109.3c5.3,0,7.4-2.3,7.4-6.2s-2.2-6.3-7.4-6.3H530v12.5H532.3z"/>
		<path class="st0" d="M546.2,114.5l3.4-1.9c1.2,2.1,2.8,3.7,6.1,3.7c2.7,0,4.6-1.4,4.6-3.6s-1.5-3.3-4.4-4.6l-1.8-0.8
			c-3.9-1.7-6.2-3.7-6.2-7.8c0-3.9,3-6.7,7.5-6.7c3.5,0,5.9,1.3,7.5,4.2l-3.2,2c-0.7-1.7-2.4-2.7-4.2-2.6c-2.1,0-3.4,1.3-3.4,3.1
			c0,2,1.1,2.9,3.8,4.1l1.7,0.8c4.5,2,6.9,4.1,6.9,8.3c0,4.6-3.6,7.3-8.6,7.3S547.7,117.5,546.2,114.5z"/>
	</g>
</g>
</svg>
