<?xml version="1.0" encoding="utf-8"?>
<!-- Generator: Adobe Illustrator 26.0.3, SVG Export Plug-In . SVG Version: 6.00 Build 0)  -->
<svg version="1.1" id="Layer_1" xmlns="http://www.w3.org/2000/svg" xmlns:xlink="http://www.w3.org/1999/xlink" x="0px" y="0px"
	 viewBox="0 0 300 600" style="enable-background:new 0 0 300 600;" xml:space="preserve">
<style type="text/css">
	.st0{fill:#CEFFFF;}
</style>
<g>
	<g>
		<path class="st0" d="M31.6,129.2c0-6.5,4.8-11.2,11.3-11.2c4.4,0,7,1.9,8.4,3.8l-3.7,3.4c-1-1.5-2.7-2.4-4.5-2.3
			c-3.4,0-5.8,2.5-5.8,6.2c0,3.7,2.4,6.2,5.8,6.2c1.8,0,3.5-0.8,4.5-2.3l3.7,3.4c-1.4,1.9-4,3.9-8.4,3.9
			C36.4,140.4,31.6,135.8,31.6,129.2z M67.8,139.9v-2.2c-1.7,1.9-4.2,2.9-6.7,2.8c-3.4,0-7.4-2.3-7.4-7.1c0-5,4-6.9,7.4-6.9
			c2.9,0,5.3,0.9,6.7,2.6v-2.7c0-2.2-1.8-3.6-4.7-3.6c-2.3,0-4.5,0.9-6.1,2.5l-2.2-3.9c2.6-2.2,5.9-3.4,9.3-3.3
			c4.9,0,9.3,1.9,9.3,8.1v13.8H67.8z M67.8,134.8v-2.6c-1.1-1.3-2.8-2-4.5-1.9c-2.2,0-4,1.2-4,3.2s1.8,3.2,4,3.2
			C65,136.7,66.7,136.1,67.8,134.8z M77.1,137.1l2.4-4.1c2,1.8,4.6,2.9,7.4,3c2.4,0,3.6-0.9,3.6-2.2c0-3.5-12.6-0.6-12.6-9
			c0-3.6,3.1-6.7,8.7-6.7c3.1,0,6.1,1,8.6,2.9l-2.2,4c-1.7-1.6-4-2.5-6.3-2.5c-2,0-3.3,0.9-3.3,2.1c0,3.1,12.7,0.5,12.7,9.1
			c0,3.9-3.4,6.8-9.3,6.8C83.2,140.6,79.8,139.4,77.1,137.1z M101.1,134.6v-11.1h-3.5v-4.9h3.5v-5.8h5.6v5.8h4.3v4.9h-4.3v9.6
			c0,1.4,0.7,2.4,1.9,2.4c0.7,0,1.4-0.2,1.9-0.7l1.2,4.3c-1.3,1-3,1.5-4.7,1.4C103.2,140.4,101.2,138.4,101.1,134.6L101.1,134.6z
			 M124.2,129.2c0-6.2,5-11.3,11.2-11.3c6.2,0,11.3,5,11.3,11.2c0,6.2-5,11.3-11.2,11.3c0,0-0.1,0-0.1,0c-6,0.2-11-4.4-11.2-10.4
			C124.2,129.8,124.2,129.5,124.2,129.2L124.2,129.2z M140.9,129.2c0-3.3-1.9-6.2-5.5-6.2s-5.4,2.9-5.4,6.2s1.9,6.2,5.4,6.2
			S140.9,132.6,140.9,129.2L140.9,129.2z M152.2,139.9v-16.4h-3.5v-4.9h3.5v-0.9c0-4.8,2.9-7.7,7.1-7.7c2.1-0.1,4.1,0.6,5.6,2
			l-2.1,3.4c-0.6-0.6-1.5-0.9-2.3-0.8c-1.6,0-2.6,1-2.6,3.1v0.9h4.3v4.9h-4.3v16.4L152.2,139.9z M166.6,139.9v-16.4h-3.5v-4.9h3.5
			v-0.9c0-4.8,2.9-7.7,7.1-7.7c2.1-0.1,4.1,0.6,5.6,2l-2.1,3.4c-0.6-0.6-1.5-0.9-2.3-0.8c-1.6,0-2.6,1-2.6,3.1v0.9h4.3v4.9h-4.3
			v16.4L166.6,139.9z M177,136.8c0-2,1.6-3.6,3.6-3.6s3.6,1.6,3.6,3.6c0,2-1.6,3.6-3.6,3.6C178.6,140.3,177.1,138.8,177,136.8
			L177,136.8z"/>
	</g>
</g>
</svg>
