<?xml version="1.0" encoding="utf-8"?>
<!-- Generator: Adobe Illustrator 26.0.3, SVG Export Plug-In . SVG Version: 6.00 Build 0)  -->
<svg version="1.1" id="Layer_1" xmlns="http://www.w3.org/2000/svg" xmlns:xlink="http://www.w3.org/1999/xlink" x="0px" y="0px"
	 viewBox="0 0 300 600" style="enable-background:new 0 0 300 600;" xml:space="preserve">
<style type="text/css">
	.st0{fill:#FFFFFF;}
	.st1{clip-path:url(#SVGID_00000093173671862046944320000013162695889905904027_);}
</style>
<g>
	<g>
		<path class="st0" d="M72.9,548.9v-13h8.7v1.7h-6.8v3.8h6.6v1.7h-6.6v5.8L72.9,548.9z"/>
		<path class="st0" d="M83.4,536.8c-0.1-0.6,0.4-1.2,1-1.2c0.6-0.1,1.2,0.4,1.2,1c0,0.1,0,0.1,0,0.2c-0.1,0.6-0.6,1.1-1.2,1
			C83.9,537.8,83.5,537.3,83.4,536.8z M83.7,548.9v-9.4h1.8v9.4H83.7z"/>
		<path class="st0" d="M87.6,544.2c0.1-2.6,2.3-4.7,4.9-4.6s4.7,2.3,4.6,4.9c-0.1,2.6-2.2,4.6-4.7,4.6c-2.6,0.1-4.7-2-4.8-4.6
			C87.6,544.4,87.6,544.3,87.6,544.2z M95.3,544.2c0-1.8-1-3.4-2.9-3.4s-2.9,1.6-2.9,3.4s1,3.4,2.9,3.4S95.3,545.9,95.3,544.2z"/>
		<path class="st0" d="M99.3,548.9v-9.4h1.8v1.4c0.7-1,1.8-1.6,3.1-1.7v1.7c-0.2,0-0.4-0.1-0.6-0.1c-1,0.1-1.9,0.6-2.5,1.4v6.5
			L99.3,548.9z"/>
		<path class="st0" d="M112.6,548.9v-1.3c-0.7,1-1.9,1.6-3.1,1.6c-2.4,0-4.2-1.8-4.2-4.9s1.8-4.9,4.2-4.9c1.2,0,2.4,0.6,3.1,1.6
			v-4.9h1.8v13L112.6,548.9z M112.6,542.2c-0.6-0.9-1.6-1.4-2.6-1.4c-1.8,0-2.8,1.4-2.8,3.4s1.1,3.4,2.8,3.4c1,0,2-0.5,2.6-1.4
			V542.2z"/>
		<path class="st0" d="M117.1,548.9v-13h1.8v13H117.1z"/>
		<path class="st0" d="M127.4,548.9v-1c-0.8,0.8-1.9,1.3-3.1,1.3c-1.7,0.1-3.2-1.3-3.3-3c0,0,0-0.1,0-0.1c0-1.7,1.3-3,2.9-3.1
			c0.1,0,0.2,0,0.3,0c1.2-0.1,2.3,0.4,3.1,1.2v-1.6c0-1.2-1-1.9-2.3-1.9c-1.1,0-2.1,0.5-2.8,1.2l-0.8-1.2c1-1,2.4-1.6,3.8-1.5
			c2,0,3.8,0.9,3.8,3.3v6.3H127.4z M127.4,545.2c-0.6-0.7-1.5-1.1-2.4-1.1c-1-0.2-2,0.5-2.2,1.6c-0.2,1,0.5,2,1.6,2.2
			c0.2,0,0.4,0,0.6,0c0.9,0,1.8-0.4,2.4-1.1V545.2z"/>
		<path class="st0" d="M138.3,548.9v-6c0-1.5-0.8-2.1-2-2.1c-1,0-2,0.5-2.6,1.4v6.7H132v-9.4h1.8v1.3c0.8-1,2-1.5,3.3-1.5
			c1.5-0.2,2.8,0.9,3,2.4c0,0.2,0,0.4,0,0.6v6.6L138.3,548.9z"/>
		<path class="st0" d="M149.6,548.9v-1.3c-0.7,1-1.9,1.6-3.1,1.6c-2.4,0-4.2-1.8-4.2-4.9s1.8-4.9,4.2-4.9c1.2,0,2.4,0.6,3.1,1.6
			v-4.9h1.8v13L149.6,548.9z M149.6,542.2c-0.6-0.9-1.6-1.4-2.6-1.4c-1.8,0-2.8,1.4-2.8,3.4s1.1,3.4,2.8,3.4c1,0,2-0.5,2.6-1.4
			V542.2z"/>
		<path class="st0" d="M72.9,566.5v-13h1.9v11.3h5.9v1.7L72.9,566.5z"/>
		<path class="st0" d="M81.9,561.8c0.1-2.6,2.3-4.6,4.9-4.5c2.6,0.1,4.6,2.3,4.5,4.9c-0.1,2.5-2.2,4.5-4.7,4.5
			c-2.6,0.1-4.7-2-4.7-4.5C81.9,562.1,81.9,561.9,81.9,561.8z M89.6,561.8c0-1.8-1-3.4-2.9-3.4s-2.9,1.6-2.9,3.4s1,3.4,2.9,3.4
			S89.6,563.6,89.6,561.8z"/>
		<path class="st0" d="M100.3,566.5v-1.3c-0.7,1-1.9,1.6-3.1,1.6c-2.4,0-4.2-1.8-4.2-4.9s1.8-4.9,4.2-4.9c1.2,0,2.4,0.6,3.1,1.6
			v-4.9h1.8v13L100.3,566.5z M100.3,559.8c-0.6-0.9-1.6-1.4-2.6-1.4c-1.8,0-2.8,1.4-2.8,3.4s1.1,3.4,2.8,3.4c1,0,2-0.5,2.6-1.4
			V559.8z"/>
		<path class="st0" d="M105.6,567.6c0.8,0.9,1.9,1.3,3,1.2c1.4,0,2.9-0.7,2.9-2.7V565c-0.7,1-1.9,1.6-3.1,1.6
			c-2.4,0-4.2-1.8-4.2-4.9s1.8-4.8,4.2-4.8c1.2,0,2.4,0.6,3.1,1.6v-1.4h1.8v9c0,3.2-2.3,4.2-4.7,4.2c-1.4,0.1-2.8-0.4-3.8-1.4
			L105.6,567.6z M111.6,559.8c-0.6-0.8-1.6-1.4-2.6-1.4c-1.8,0-2.8,1.4-2.8,3.3s1.1,3.3,2.9,3.3c1,0,2-0.5,2.6-1.4L111.6,559.8z"/>
		<path class="st0" d="M120.2,556.9c2.8,0,4.6,2.2,4.6,5.1v0.4h-7.4c0.1,1.7,1.5,3,3.2,2.9c1,0,2-0.4,2.8-1.1l0.8,1.2
			c-1,0.9-2.4,1.5-3.8,1.4c-2.7-0.1-4.9-2.3-4.8-5.1C115.6,559.1,117.6,557,120.2,556.9L120.2,556.9z M117.3,561.1h5.7
			c0-1.5-1.2-2.8-2.8-2.8c0,0-0.1,0-0.1,0C118.6,558.3,117.4,559.6,117.3,561.1z"/>
		<g>
			<defs>
				<rect id="SVGID_1_" width="300" height="600"/>
			</defs>
			<clipPath id="SVGID_00000176736796425615550330000015956071918112013184_">
				<use xlink:href="#SVGID_1_"  style="overflow:visible;"/>
			</clipPath>
			<g style="clip-path:url(#SVGID_00000176736796425615550330000015956071918112013184_);">
				<path class="st0" d="M55.4,553.6c-3.5,4.8-7,9.6-10.4,14.5l-0.1,0.2c-0.2,0.3-0.5,0.3-0.7,0c-0.8-1-1.5-2.1-2.2-3.1
					c-2.6-3.7-5.3-7.3-7.9-11c-1.2-1.6-2.1-3.4-2.6-5.3c-0.2-1-0.4-2.1-0.4-3.1c0-6.7,4.9-12.5,11.5-13.5
					c7.3-1.1,14.2,3.8,15.4,11.1C58.5,546.9,57.7,550.7,55.4,553.6 M58.8,542.7c-1.3-6.6-7-11.4-13.8-11.7
					c-8.1-0.2-14.8,6.1-15.1,14.2c0,0.7,0,1.3,0.1,2c0.3,2.6,1.3,5.1,2.9,7.2c3.7,5.1,7.3,10.1,11,15.2c0.4,0.5,0.7,0.5,1.1,0
					c1.1-1.5,2.1-2.9,3.2-4.4c2.8-3.8,5.5-7.6,8.2-11.4c1.7-2.4,2.6-5.3,2.6-8.2C59,544.6,59,543.6,58.8,542.7"/>
				<path class="st0" d="M44.5,554.5c-5,0-9-4-9-9c0-5,4-9,9-9s9,4,9,9c0,0,0,0,0,0.1C53.5,550.6,49.5,554.5,44.5,554.5 M57.9,543.3
					c-1.2-7.3-8.1-12.2-15.4-11.1C35.9,533.2,31,539,31,545.7c0,1,0.2,2.1,0.4,3.1c0.5,1.9,1.4,3.7,2.6,5.3c2.7,3.6,5.3,7.3,7.9,11
					c0.8,1,1.5,2.1,2.2,3.1c0.2,0.3,0.4,0.3,0.7,0l0.1-0.2c3.5-4.8,7-9.7,10.4-14.5C57.6,550.7,58.5,546.9,57.9,543.3"/>
				<path class="st0" d="M44.5,553.6c-4.4,0-8-3.6-8-8s3.6-8,8-8s8,3.6,8,8S49,553.6,44.5,553.6 M44.5,536.6c-5,0-9,4-9,9s4,9,9,9
					s9-4,9-9S49.5,536.6,44.5,536.6"/>
			</g>
		</g>
	</g>
</g>
</svg>
