<svg xmlns="http://www.w3.org/2000/svg" viewBox="0 0 44.93 45.86"><defs><style>.cls-1{fill:#fff;}</style></defs><title>circle</title><g id="Layer_2" data-name="Layer 2"><g id="Circle"><path class="cls-1" d="M0,20C0,8.07,5.94,1.57,18.19.13,27.48-1,37.71,4.79,42.8,14c3.88,7,2.35,17.12-3.66,24.33C30,49.25,11.74,48.17,4.66,35.88,2,31.18,0,21.07,0,20ZM8.07,20A61.07,61.07,0,0,0,9,26.19c2,8.33,7.15,11.76,15.73,10.6,7.53-1,12.1-6.43,12-14.21C36.67,16.7,28.57,9,22,8.58,12.48,8,8.16,11.54,8.07,20Z"/></g></g></svg>