<?xml version="1.0" encoding="utf-8"?>
<!-- Generator: Adobe Illustrator 23.0.0, SVG Export Plug-In . SVG Version: 6.00 Build 0)  -->
<svg version="1.1" id="Layer_1" xmlns="http://www.w3.org/2000/svg" xmlns:xlink="http://www.w3.org/1999/xlink" x="0px" y="0px"
	 viewBox="0 0 320 50" style="enable-background:new 0 0 320 50;" xml:space="preserve">
<style type="text/css">
	.st0{fill:#768961;}
</style>
<g>
	<path class="st0" d="M160.53,10.95l-4.37,7.87v3.78h-1.86v-3.78l-4.3-7.87h2.29l3.01,5.74l2.94-5.74
		C158.24,10.95,160.53,10.95,160.53,10.95z"/>
	<path class="st0" d="M160.33,17.3c0.33-0.55,0.78-0.99,1.35-1.3c0.58-0.31,1.23-0.47,1.97-0.47s1.39,0.16,1.96,0.47
		s1.01,0.75,1.32,1.3c0.31,0.55,0.46,1.17,0.46,1.85s-0.15,1.3-0.46,1.85s-0.75,0.98-1.32,1.3s-1.23,0.48-1.98,0.48
		c-0.73,0-1.38-0.15-1.95-0.44c-0.58-0.29-1.03-0.71-1.35-1.26s-0.49-1.19-0.49-1.93C159.84,18.47,160,17.85,160.33,17.3z
		 M162.21,20.68c0.37,0.41,0.84,0.62,1.39,0.62c0.58,0,1.05-0.2,1.42-0.61s0.55-0.92,0.55-1.54s-0.18-1.13-0.55-1.54
		c-0.37-0.41-0.84-0.62-1.42-0.62c-0.55,0-1.02,0.21-1.39,0.63s-0.56,0.93-0.56,1.53C161.65,19.76,161.83,20.27,162.21,20.68z"/>
	<path class="st0" d="M175.79,15.83v6.77h-1.62l-0.11-1.22c-0.23,0.46-0.58,0.82-1.04,1.1c-0.46,0.27-0.98,0.41-1.57,0.41
		c-0.62,0-1.13-0.19-1.54-0.57c-0.41-0.38-0.62-0.87-0.63-1.46v-5.02h1.79v4.38c0.03,0.75,0.4,1.13,1.1,1.14
		c0.52,0,0.96-0.24,1.3-0.72c0.35-0.48,0.52-1.08,0.52-1.81v-2.99h1.8V15.83z"/>
	<path class="st0" d="M190.48,15.83v6.77h-1.79v-0.98c-0.25,0.29-0.58,0.55-0.99,0.79c-0.42,0.24-0.9,0.36-1.46,0.36
		c-0.65,0-1.23-0.14-1.74-0.41s-0.92-0.67-1.22-1.21s-0.45-1.18-0.45-1.94c0-0.74,0.15-1.38,0.46-1.94s0.72-0.99,1.24-1.3
		c0.52-0.3,1.08-0.46,1.7-0.46c1.1,0,1.92,0.41,2.46,1.22l0.13-0.91h1.66V15.83z M187.98,20.92c0.34-0.25,0.57-0.61,0.71-1.06v-1.47
		c-0.13-0.42-0.38-0.75-0.74-1.01c-0.37-0.26-0.79-0.38-1.27-0.38c-0.57,0-1.04,0.2-1.44,0.6s-0.59,0.91-0.59,1.53
		c0,0.41,0.1,0.77,0.29,1.1c0.19,0.33,0.45,0.59,0.77,0.78s0.67,0.29,1.04,0.29C187.23,21.3,187.64,21.17,187.98,20.92z"/>
	<path class="st0" d="M195.47,16.42c0.33-0.29,0.67-0.51,1.02-0.66s0.64-0.23,0.87-0.23l-0.08,1.79c-0.49-0.04-0.93,0.05-1.31,0.26
		c-0.38,0.22-0.68,0.52-0.9,0.9c-0.21,0.38-0.32,0.78-0.32,1.21v2.91h-1.79v-6.77h1.62l0.13,1.57
		C194.88,17.03,195.14,16.71,195.47,16.42z"/>
	<path class="st0" d="M203.68,20.71l0.82,1.33c-0.36,0.22-0.75,0.4-1.17,0.54s-0.82,0.2-1.2,0.2c-0.78,0-1.45-0.15-2.02-0.46
		s-1.01-0.74-1.31-1.28s-0.46-1.17-0.46-1.87c0-0.66,0.17-1.27,0.51-1.82s0.81-0.99,1.39-1.32c0.59-0.33,1.23-0.49,1.92-0.49
		c0.92,0,1.68,0.27,2.29,0.81c0.61,0.54,1.01,1.3,1.22,2.28l-5.22,1.76c0.18,0.28,0.42,0.49,0.72,0.64s0.63,0.22,0.99,0.22
		C202.66,21.24,203.17,21.06,203.68,20.71z M200.63,17.52c-0.36,0.39-0.54,0.91-0.54,1.54c0,0.12,0.01,0.21,0.02,0.27l3.55-1.26
		c-0.14-0.33-0.34-0.6-0.61-0.82c-0.27-0.21-0.61-0.32-1.04-0.32C201.45,16.93,200.99,17.13,200.63,17.52z"/>
	<path class="st0" d="M217.05,22.56c-0.43,0.14-0.87,0.22-1.3,0.22c-0.75,0-1.41-0.14-1.98-0.43c-0.57-0.29-1.01-0.7-1.32-1.24
		c-0.31-0.54-0.46-1.17-0.46-1.9c0-0.71,0.17-1.34,0.5-1.88c0.33-0.54,0.77-0.95,1.32-1.24c0.55-0.29,1.14-0.43,1.77-0.43
		c1.07,0,1.95,0.29,2.64,0.86l-0.9,1.17c-0.2-0.16-0.44-0.3-0.71-0.41s-0.56-0.17-0.87-0.17c-0.54,0-1.01,0.2-1.38,0.6
		c-0.38,0.4-0.57,0.9-0.57,1.5s0.2,1.1,0.6,1.5c0.4,0.4,0.91,0.6,1.53,0.6c0.53,0,0.98-0.15,1.34-0.45l0.9,1.12
		C217.84,22.22,217.48,22.41,217.05,22.56z"/>
	<path class="st0" d="M219.91,17.3c0.33-0.55,0.78-0.99,1.35-1.3c0.58-0.31,1.23-0.47,1.97-0.47s1.39,0.16,1.96,0.47
		s1.01,0.75,1.32,1.3c0.31,0.55,0.46,1.17,0.46,1.85s-0.15,1.3-0.46,1.85s-0.75,0.98-1.32,1.3s-1.23,0.48-1.98,0.48
		c-0.73,0-1.38-0.15-1.95-0.44c-0.58-0.29-1.03-0.71-1.35-1.26s-0.49-1.19-0.49-1.93C219.42,18.47,219.59,17.85,219.91,17.3z
		 M221.79,20.68c0.37,0.41,0.84,0.62,1.39,0.62c0.58,0,1.05-0.2,1.42-0.61s0.55-0.92,0.55-1.54s-0.18-1.13-0.55-1.54
		c-0.37-0.41-0.84-0.62-1.42-0.62c-0.55,0-1.02,0.21-1.39,0.63s-0.56,0.93-0.56,1.53C221.23,19.76,221.42,20.27,221.79,20.68z"/>
	<path class="st0" d="M231.38,16.42c0.33-0.29,0.67-0.51,1.02-0.66s0.64-0.23,0.87-0.23l-0.08,1.79c-0.49-0.04-0.93,0.05-1.31,0.26
		c-0.38,0.22-0.68,0.52-0.9,0.9c-0.21,0.38-0.32,0.78-0.32,1.21v2.91h-1.79v-6.77h1.62l0.13,1.57
		C230.79,17.03,231.04,16.71,231.38,16.42z"/>
	<path class="st0" d="M242.02,10.12V22.6h-1.79v-0.91c-0.75,0.73-1.63,1.09-2.66,1.09c-0.63,0-1.2-0.15-1.7-0.45
		s-0.9-0.73-1.19-1.28c-0.29-0.55-0.43-1.2-0.43-1.94s0.15-1.38,0.46-1.92c0.3-0.54,0.73-0.96,1.26-1.24
		c0.54-0.28,1.15-0.42,1.83-0.42c0.49,0,0.96,0.09,1.39,0.28s0.79,0.44,1.06,0.76v-6.45C240.25,10.12,242.02,10.12,242.02,10.12z
		 M239.46,20.87c0.36-0.26,0.62-0.61,0.77-1.07v-1.44c-0.13-0.42-0.38-0.76-0.76-1.02c-0.38-0.27-0.82-0.4-1.32-0.4
		c-0.37,0-0.72,0.09-1.04,0.28s-0.58,0.44-0.77,0.77s-0.29,0.69-0.29,1.1s0.1,0.77,0.29,1.1c0.19,0.33,0.45,0.59,0.77,0.78
		s0.67,0.29,1.04,0.29C238.66,21.25,239.09,21.12,239.46,20.87z"/>
	<path class="st0" d="M244.72,12.73c0.21-0.19,0.45-0.28,0.72-0.28c0.26,0,0.49,0.09,0.7,0.28s0.31,0.41,0.31,0.68
		s-0.1,0.49-0.31,0.67c-0.21,0.18-0.44,0.27-0.7,0.27c-0.27,0-0.51-0.09-0.72-0.27s-0.32-0.41-0.32-0.67S244.51,12.92,244.72,12.73z
		 M246.27,15.83v6.77h-1.79v-6.77H246.27z"/>
	<path class="st0" d="M255.82,15.83v6.77h-1.79v-0.98c-0.25,0.29-0.58,0.55-0.99,0.79c-0.42,0.24-0.9,0.36-1.46,0.36
		c-0.65,0-1.23-0.14-1.74-0.41s-0.92-0.67-1.22-1.21s-0.45-1.18-0.45-1.94c0-0.74,0.15-1.38,0.46-1.94s0.72-0.99,1.24-1.3
		c0.52-0.3,1.08-0.46,1.7-0.46c1.1,0,1.92,0.41,2.46,1.22l0.13-0.91h1.66V15.83z M253.32,20.92c0.34-0.25,0.57-0.61,0.71-1.06v-1.47
		c-0.13-0.42-0.38-0.75-0.74-1.01c-0.37-0.26-0.79-0.38-1.27-0.38c-0.57,0-1.04,0.2-1.44,0.6s-0.59,0.91-0.59,1.53
		c0,0.41,0.1,0.77,0.29,1.1c0.19,0.33,0.45,0.59,0.77,0.78s0.67,0.29,1.04,0.29C252.57,21.3,252.98,21.17,253.32,20.92z"/>
	<path class="st0" d="M260.1,10.12V22.6h-1.79V10.12H260.1z"/>
	<path class="st0" d="M264.35,10.12V22.6h-1.79V10.12H264.35z"/>
	<path class="st0" d="M273.5,15.83l-4.37,10.02h-1.76l1.58-3.54l-3.14-6.48h2.02l2.02,4.48l2.02-4.48
		C271.87,15.83,273.5,15.83,273.5,15.83z"/>
	<path class="st0" d="M159.98,29.73c0.21-0.19,0.45-0.28,0.72-0.28c0.26,0,0.49,0.09,0.7,0.28s0.31,0.41,0.31,0.68
		s-0.1,0.49-0.31,0.67c-0.21,0.18-0.44,0.27-0.7,0.27c-0.27,0-0.51-0.09-0.72-0.27s-0.32-0.41-0.32-0.67S159.76,29.92,159.98,29.73z
		 M161.53,32.83v6.77h-1.79v-6.77H161.53z"/>
	<path class="st0" d="M169.98,33.11c0.42,0.38,0.64,0.87,0.65,1.46v5.02h-1.79v-4.38c-0.02-0.35-0.13-0.63-0.31-0.83
		s-0.47-0.31-0.84-0.32c-0.55,0-1.01,0.24-1.37,0.71c-0.36,0.48-0.54,1.08-0.54,1.82v3.01h-1.79v-6.77h1.62l0.13,1.2
		c0.25-0.47,0.6-0.83,1.06-1.1c0.46-0.26,1-0.39,1.61-0.39C169.04,32.54,169.56,32.73,169.98,33.11z"/>
	<path class="st0" d="M179.51,32.83l-3.71,6.94h-0.08l-3.89-6.94h2.13l1.86,3.87l1.7-3.87H179.51z"/>
	<path class="st0" d="M181.22,29.73c0.21-0.19,0.45-0.28,0.72-0.28c0.26,0,0.49,0.09,0.7,0.28s0.31,0.41,0.31,0.68
		s-0.1,0.49-0.31,0.67c-0.21,0.18-0.44,0.27-0.7,0.27c-0.27,0-0.51-0.09-0.72-0.27s-0.32-0.41-0.32-0.67S181.01,29.92,181.22,29.73z
		 M182.78,32.83v6.77h-1.79v-6.77H182.78z"/>
	<path class="st0" d="M187.69,29.85v2.98h1.76v1.41h-1.76v5.36h-1.79v-5.36h-1.17v-1.41h1.17v-2.98
		C185.9,29.85,187.69,29.85,187.69,29.85z"/>
	<path class="st0" d="M195.99,37.71l0.82,1.33c-0.36,0.22-0.75,0.4-1.17,0.54s-0.82,0.2-1.2,0.2c-0.78,0-1.45-0.15-2.02-0.46
		c-0.57-0.31-1.01-0.74-1.31-1.28s-0.46-1.17-0.46-1.87c0-0.66,0.17-1.27,0.51-1.82s0.81-0.99,1.39-1.32
		c0.59-0.33,1.23-0.49,1.92-0.49c0.92,0,1.68,0.27,2.29,0.81s1.01,1.3,1.22,2.28l-5.22,1.76c0.18,0.28,0.42,0.49,0.72,0.64
		s0.63,0.22,0.99,0.22C194.97,38.24,195.48,38.06,195.99,37.71z M192.94,34.52c-0.36,0.39-0.54,0.91-0.54,1.54
		c0,0.12,0.01,0.21,0.02,0.27l3.55-1.26c-0.14-0.33-0.34-0.6-0.61-0.82c-0.27-0.21-0.61-0.32-1.04-0.32
		C193.76,33.93,193.3,34.13,192.94,34.52z"/>
	<path class="st0" d="M206.95,27.12V39.6h-1.79v-0.91c-0.75,0.73-1.63,1.09-2.66,1.09c-0.63,0-1.2-0.15-1.7-0.45
		s-0.9-0.73-1.19-1.28c-0.29-0.55-0.43-1.2-0.43-1.94c0-0.74,0.15-1.38,0.46-1.92c0.3-0.54,0.73-0.96,1.26-1.24
		c0.54-0.28,1.15-0.42,1.83-0.42c0.49,0,0.96,0.09,1.39,0.28s0.79,0.44,1.06,0.76v-6.45C205.18,27.12,206.95,27.12,206.95,27.12z
		 M204.39,37.87c0.36-0.26,0.62-0.61,0.77-1.07v-1.44c-0.13-0.42-0.38-0.76-0.76-1.02c-0.38-0.27-0.82-0.4-1.32-0.4
		c-0.37,0-0.72,0.09-1.04,0.28s-0.58,0.44-0.77,0.77s-0.29,0.69-0.29,1.1s0.1,0.77,0.29,1.1c0.19,0.33,0.45,0.59,0.77,0.78
		s0.67,0.29,1.04,0.29C203.59,38.25,204.03,38.12,204.39,37.87z"/>
	<path class="st0" d="M216.98,29.85v2.98h1.76v1.41h-1.76v5.36h-1.79v-5.36h-1.17v-1.41h1.17v-2.98
		C215.19,29.85,216.98,29.85,216.98,29.85z"/>
	<path class="st0" d="M220.43,34.3c0.33-0.55,0.78-0.99,1.35-1.3c0.58-0.31,1.23-0.47,1.97-0.47s1.39,0.16,1.96,0.47
		s1.01,0.75,1.32,1.3c0.31,0.55,0.46,1.17,0.46,1.85s-0.15,1.3-0.46,1.85s-0.75,0.98-1.32,1.3s-1.23,0.48-1.98,0.48
		c-0.73,0-1.38-0.15-1.95-0.44c-0.58-0.29-1.03-0.71-1.35-1.26s-0.49-1.19-0.49-1.93C219.94,35.47,220.11,34.85,220.43,34.3z
		 M222.31,37.68c0.37,0.41,0.84,0.62,1.39,0.62c0.58,0,1.05-0.2,1.42-0.61s0.55-0.92,0.55-1.54s-0.18-1.13-0.55-1.54
		c-0.37-0.41-0.84-0.62-1.42-0.62c-0.55,0-1.02,0.21-1.39,0.63c-0.37,0.42-0.56,0.93-0.56,1.53
		C221.75,36.76,221.94,37.27,222.31,37.68z"/>
	<path class="st0" d="M234.43,34.3c0.33-0.55,0.78-0.99,1.35-1.3c0.58-0.31,1.23-0.47,1.97-0.47s1.39,0.16,1.96,0.47
		s1.01,0.75,1.32,1.3c0.31,0.55,0.46,1.17,0.46,1.85s-0.15,1.3-0.46,1.85s-0.75,0.98-1.32,1.3s-1.23,0.48-1.98,0.48
		c-0.73,0-1.38-0.15-1.95-0.44c-0.58-0.29-1.03-0.71-1.35-1.26s-0.49-1.19-0.49-1.93C233.94,35.47,234.11,34.85,234.43,34.3z
		 M236.31,37.68c0.37,0.41,0.84,0.62,1.39,0.62c0.58,0,1.05-0.2,1.42-0.61s0.55-0.92,0.55-1.54s-0.18-1.13-0.55-1.54
		c-0.37-0.41-0.84-0.62-1.42-0.62c-0.55,0-1.02,0.21-1.39,0.63c-0.37,0.42-0.56,0.93-0.56,1.53
		C235.75,36.76,235.94,37.27,236.31,37.68z"/>
	<path class="st0" d="M249.9,32.83v6.77h-1.62l-0.11-1.22c-0.23,0.46-0.58,0.82-1.04,1.1c-0.46,0.27-0.98,0.41-1.57,0.41
		c-0.62,0-1.13-0.19-1.54-0.57c-0.41-0.38-0.62-0.87-0.63-1.46v-5.02h1.79v4.38c0.03,0.75,0.4,1.13,1.1,1.14
		c0.52,0,0.96-0.24,1.3-0.72c0.35-0.48,0.52-1.08,0.52-1.81v-2.99L249.9,32.83L249.9,32.83z"/>
	<path class="st0" d="M254.89,33.42c0.33-0.29,0.67-0.51,1.02-0.66s0.64-0.23,0.87-0.23l-0.08,1.79c-0.49-0.04-0.93,0.05-1.31,0.26
		c-0.38,0.22-0.68,0.52-0.9,0.9c-0.21,0.38-0.32,0.78-0.32,1.21v2.91h-1.79v-6.77H254l0.13,1.57
		C254.3,34.03,254.56,33.71,254.89,33.42z"/>
	<path class="st0" d="M257.42,37.93c0.2-0.19,0.42-0.29,0.68-0.29c0.24,0,0.45,0.1,0.65,0.29s0.3,0.42,0.3,0.69
		c0,0.28-0.1,0.51-0.3,0.7s-0.41,0.28-0.65,0.28c-0.26,0-0.48-0.09-0.68-0.27c-0.2-0.18-0.3-0.42-0.3-0.7
		C257.13,38.35,257.23,38.12,257.42,37.93z"/>
	<path class="st0" d="M260.14,37.93c0.2-0.19,0.42-0.29,0.68-0.29c0.24,0,0.45,0.1,0.65,0.29s0.3,0.42,0.3,0.69
		c0,0.28-0.1,0.51-0.3,0.7s-0.41,0.28-0.65,0.28c-0.26,0-0.48-0.09-0.68-0.27c-0.2-0.18-0.3-0.42-0.3-0.7
		C259.85,38.35,259.95,38.12,260.14,37.93z"/>
	<path class="st0" d="M262.86,37.93c0.2-0.19,0.42-0.29,0.68-0.29c0.24,0,0.45,0.1,0.65,0.29s0.3,0.42,0.3,0.69
		c0,0.28-0.1,0.51-0.3,0.7s-0.41,0.28-0.65,0.28c-0.26,0-0.48-0.09-0.68-0.27c-0.2-0.18-0.3-0.42-0.3-0.7
		C262.57,38.35,262.67,38.12,262.86,37.93z"/>
</g>
</svg>
