<?xml version="1.0" encoding="utf-8"?>
<!-- Generator: Adobe Illustrator 23.0.0, SVG Export Plug-In . SVG Version: 6.00 Build 0)  -->
<svg version="1.1" id="Layer_1" xmlns="http://www.w3.org/2000/svg" xmlns:xlink="http://www.w3.org/1999/xlink" x="0px" y="0px"
	 viewBox="0 0 320 50" style="enable-background:new 0 0 320 50;" xml:space="preserve">
<style type="text/css">
	.st0{fill:#768961;}
</style>
<g>
	<path class="st0" d="M200.64,19.14v8.62h5.03v1.57H199V19.14H200.64z"/>
	<path class="st0" d="M207.3,20.7c0.19-0.16,0.4-0.25,0.63-0.25c0.22,0,0.43,0.08,0.61,0.25c0.18,0.16,0.27,0.36,0.27,0.59
		s-0.09,0.43-0.27,0.59c-0.18,0.16-0.39,0.24-0.61,0.24c-0.23,0-0.44-0.08-0.63-0.24s-0.28-0.35-0.28-0.59S207.12,20.87,207.3,20.7z
		 M208.66,23.41v5.92h-1.57v-5.92H208.66z"/>
	<path class="st0" d="M216.26,23.41l-3.25,6.08h-0.07l-3.4-6.08h1.86l1.62,3.39l1.48-3.39H216.26z"/>
	<path class="st0" d="M221.16,27.68l0.71,1.16c-0.32,0.2-0.66,0.35-1.02,0.47c-0.36,0.12-0.71,0.18-1.05,0.18
		c-0.68,0-1.27-0.14-1.77-0.41s-0.88-0.64-1.15-1.12c-0.27-0.48-0.4-1.02-0.4-1.64c0-0.58,0.15-1.11,0.45-1.6
		c0.3-0.48,0.7-0.87,1.22-1.15c0.51-0.29,1.07-0.43,1.68-0.43c0.8,0,1.47,0.24,2,0.71s0.89,1.14,1.06,2l-4.56,1.54
		c0.16,0.24,0.37,0.43,0.63,0.56c0.26,0.13,0.55,0.2,0.87,0.2C220.27,28.14,220.71,27.99,221.16,27.68z M218.49,24.9
		c-0.31,0.35-0.47,0.79-0.47,1.34c0,0.1,0,0.18,0.01,0.24l3.11-1.11c-0.12-0.29-0.3-0.53-0.53-0.71s-0.54-0.28-0.91-0.28
		C219.21,24.38,218.81,24.55,218.49,24.9z"/>
	<path class="st0" d="M237.17,23.64c0.34,0.33,0.52,0.76,0.54,1.29v4.41h-1.55v-3.81c-0.02-0.32-0.09-0.56-0.21-0.74
		s-0.32-0.27-0.6-0.29c-0.49,0-0.88,0.22-1.18,0.65c-0.3,0.43-0.45,0.94-0.46,1.52v2.66h-1.58v-3.81c-0.02-0.31-0.09-0.55-0.22-0.73
		s-0.33-0.28-0.62-0.29c-0.32,0-0.6,0.1-0.84,0.31c-0.24,0.21-0.43,0.48-0.57,0.81c-0.13,0.34-0.2,0.69-0.2,1.05v2.66h-1.57v-5.92
		h1.41l0.13,1.04c0.22-0.42,0.53-0.74,0.91-0.97c0.38-0.22,0.82-0.34,1.32-0.34c0.48,0,0.88,0.11,1.2,0.32s0.53,0.51,0.64,0.9
		c0.24-0.38,0.55-0.68,0.92-0.9c0.37-0.21,0.76-0.32,1.16-0.32C236.37,23.15,236.83,23.31,237.17,23.64z"/>
	<path class="st0" d="M245.16,23.41v5.92h-1.41l-0.1-1.06c-0.21,0.4-0.51,0.72-0.91,0.96c-0.4,0.24-0.86,0.36-1.37,0.36
		c-0.54,0-0.99-0.17-1.35-0.5s-0.54-0.76-0.55-1.28v-4.4h1.57v3.84c0.03,0.65,0.35,0.98,0.97,0.99c0.46,0,0.84-0.21,1.14-0.63
		s0.46-0.95,0.46-1.58v-2.62H245.16z"/>
	<path class="st0" d="M247.4,29.22c-0.41-0.16-0.74-0.39-1-0.69l0.66-0.88c0.5,0.49,1,0.73,1.51,0.73c0.28,0,0.51-0.05,0.69-0.16
		c0.18-0.11,0.27-0.27,0.27-0.48c0-0.22-0.09-0.39-0.28-0.5s-0.39-0.2-0.62-0.27s-0.38-0.11-0.44-0.13
		c-0.51-0.16-0.9-0.39-1.15-0.69s-0.38-0.66-0.38-1.07c0-0.33,0.08-0.63,0.25-0.92c0.16-0.28,0.41-0.52,0.74-0.69
		c0.33-0.18,0.73-0.27,1.21-0.27c0.45,0,0.84,0.05,1.17,0.15s0.64,0.27,0.93,0.49l-0.6,0.94c-0.17-0.16-0.37-0.28-0.61-0.38
		c-0.24-0.09-0.46-0.14-0.65-0.14c-0.24,0-0.44,0.06-0.6,0.17s-0.24,0.26-0.24,0.43c-0.01,0.21,0.07,0.38,0.24,0.48
		s0.44,0.22,0.81,0.34c0.16,0.05,0.26,0.08,0.31,0.1c0.47,0.15,0.83,0.36,1.09,0.62c0.26,0.27,0.39,0.61,0.39,1.04
		c0,0.58-0.21,1.06-0.62,1.45c-0.42,0.39-1.01,0.58-1.78,0.58C248.24,29.46,247.81,29.38,247.4,29.22z"/>
	<path class="st0" d="M252.65,20.7c0.19-0.16,0.4-0.25,0.63-0.25c0.22,0,0.43,0.08,0.61,0.25c0.18,0.16,0.27,0.36,0.27,0.59
		s-0.09,0.43-0.27,0.59c-0.18,0.16-0.39,0.24-0.61,0.24c-0.23,0-0.44-0.08-0.63-0.24s-0.28-0.35-0.28-0.59S252.46,20.87,252.65,20.7
		z M254,23.41v5.92h-1.57v-5.92H254z"/>
	<path class="st0" d="M259.7,29.3c-0.38,0.13-0.76,0.19-1.14,0.19c-0.65,0-1.23-0.13-1.73-0.38s-0.88-0.61-1.16-1.08
		c-0.27-0.47-0.41-1.02-0.41-1.66c0-0.63,0.14-1.17,0.43-1.65c0.29-0.47,0.67-0.83,1.15-1.08s1-0.38,1.55-0.38
		c0.93,0,1.7,0.25,2.31,0.76l-0.78,1.02c-0.18-0.14-0.38-0.26-0.62-0.36s-0.49-0.15-0.76-0.15c-0.48,0-0.88,0.17-1.21,0.52
		s-0.5,0.79-0.5,1.31s0.17,0.96,0.52,1.31c0.35,0.35,0.8,0.53,1.34,0.53c0.47,0,0.86-0.13,1.18-0.39l0.78,0.98
		C260.39,29,260.07,29.17,259.7,29.3z"/>
</g>
</svg>
