<?xml version="1.0" encoding="utf-8"?>
<!-- Generator: Adobe Illustrator 23.0.0, SVG Export Plug-In . SVG Version: 6.00 Build 0)  -->
<svg version="1.1" id="Layer_1" xmlns="http://www.w3.org/2000/svg" xmlns:xlink="http://www.w3.org/1999/xlink" x="0px" y="0px"
	 viewBox="0 0 320 50" style="enable-background:new 0 0 320 50;" xml:space="preserve">
<style type="text/css">
	.st0{fill:#768961;}
</style>
<g>
	<path class="st0" d="M114.95,28.86c-0.53,0.2-1.1,0.29-1.73,0.29c-1.05,0-1.98-0.23-2.77-0.69c-0.79-0.46-1.39-1.08-1.82-1.86
		S108,24.96,108,24.03c0-1.02,0.21-1.93,0.64-2.73s1.02-1.43,1.78-1.88c0.76-0.45,1.63-0.68,2.6-0.68c0.6,0,1.15,0.08,1.66,0.24
		s0.96,0.36,1.35,0.6l-0.64,1.53c-0.76-0.53-1.53-0.8-2.31-0.8c-0.6,0-1.16,0.16-1.67,0.48s-0.93,0.76-1.24,1.32
		c-0.31,0.55-0.46,1.16-0.46,1.83c0,0.7,0.14,1.33,0.43,1.88s0.69,0.99,1.22,1.3s1.14,0.47,1.83,0.47c0.5,0,0.94-0.07,1.34-0.22
		c0.4-0.15,0.73-0.34,1-0.57l0.69,1.46C115.89,28.46,115.48,28.67,114.95,28.86z"/>
	<path class="st0" d="M117.57,24.41c0.29-0.49,0.68-0.87,1.18-1.14c0.5-0.27,1.08-0.41,1.72-0.41s1.22,0.14,1.71,0.41
		c0.5,0.28,0.88,0.65,1.16,1.13c0.27,0.48,0.41,1.02,0.41,1.62s-0.14,1.14-0.41,1.62c-0.27,0.48-0.66,0.86-1.16,1.14
		c-0.5,0.28-1.08,0.42-1.73,0.42c-0.63,0-1.2-0.13-1.71-0.39c-0.5-0.26-0.9-0.63-1.18-1.11c-0.28-0.48-0.43-1.04-0.43-1.69
		C117.14,25.43,117.29,24.89,117.57,24.41z M119.21,27.37c0.33,0.36,0.73,0.54,1.22,0.54c0.5,0,0.92-0.18,1.24-0.53
		s0.48-0.8,0.48-1.34s-0.16-0.99-0.48-1.35s-0.74-0.54-1.24-0.54c-0.49,0-0.89,0.18-1.22,0.55c-0.33,0.37-0.49,0.81-0.49,1.34
		S118.89,27.01,119.21,27.37z"/>
	<path class="st0" d="M134.06,23.34c0.34,0.33,0.52,0.76,0.54,1.29v4.41h-1.55v-3.81c-0.02-0.32-0.09-0.56-0.21-0.74
		s-0.32-0.27-0.6-0.29c-0.49,0-0.88,0.22-1.18,0.65c-0.3,0.43-0.45,0.94-0.46,1.52v2.66h-1.58v-3.81c-0.02-0.31-0.09-0.55-0.22-0.73
		s-0.33-0.28-0.62-0.29c-0.32,0-0.6,0.1-0.84,0.31s-0.43,0.48-0.57,0.81c-0.13,0.34-0.2,0.69-0.2,1.05v2.66H125v-5.92h1.41
		l0.13,1.04c0.22-0.42,0.53-0.74,0.91-0.97c0.38-0.22,0.82-0.34,1.32-0.34c0.48,0,0.88,0.11,1.2,0.32s0.53,0.51,0.64,0.9
		c0.24-0.38,0.55-0.68,0.92-0.9c0.37-0.21,0.76-0.32,1.16-0.32C133.26,22.85,133.72,23.02,134.06,23.34z"/>
	<path class="st0" d="M141.74,23.25c0.45,0.26,0.8,0.63,1.05,1.12s0.38,1.05,0.38,1.69c0,0.63-0.14,1.19-0.41,1.67
		c-0.28,0.48-0.66,0.84-1.15,1.09s-1.04,0.38-1.66,0.38c-0.39,0-0.77-0.08-1.13-0.24s-0.66-0.37-0.9-0.64v3.57h-1.57v-8.88h1.36
		l0.14,0.88c0.31-0.32,0.67-0.57,1.07-0.76c0.41-0.19,0.85-0.28,1.32-0.28C140.79,22.85,141.29,22.99,141.74,23.25z M140.6,27.71
		c0.29-0.16,0.53-0.38,0.71-0.67c0.18-0.28,0.27-0.6,0.27-0.95c0-0.55-0.17-1.01-0.52-1.37s-0.78-0.54-1.29-0.54
		c-0.46,0-0.84,0.11-1.16,0.34c-0.31,0.22-0.54,0.54-0.68,0.94v1.19c0.09,0.38,0.3,0.7,0.61,0.94s0.68,0.36,1.11,0.36
		C139.99,27.95,140.31,27.87,140.6,27.71z"/>
	<path class="st0" d="M145.98,18.12v10.92h-1.57V18.12H145.98z"/>
	<path class="st0" d="M147.94,20.41c0.19-0.16,0.4-0.25,0.63-0.25c0.22,0,0.43,0.08,0.61,0.25c0.18,0.16,0.27,0.36,0.27,0.59
		s-0.09,0.43-0.27,0.59c-0.18,0.16-0.39,0.24-0.61,0.24c-0.23,0-0.44-0.08-0.63-0.24s-0.28-0.35-0.28-0.59
		S147.76,20.58,147.94,20.41z M149.3,23.12v5.92h-1.57v-5.92H149.3z"/>
	<path class="st0" d="M160.11,23.34c0.34,0.33,0.52,0.76,0.54,1.29v4.41h-1.55v-3.81c-0.02-0.32-0.09-0.56-0.21-0.74
		s-0.32-0.27-0.6-0.29c-0.49,0-0.88,0.22-1.18,0.65c-0.3,0.43-0.45,0.94-0.46,1.52v2.66h-1.58v-3.81c-0.02-0.31-0.09-0.55-0.22-0.73
		s-0.33-0.28-0.62-0.29c-0.32,0-0.6,0.1-0.84,0.31c-0.24,0.21-0.43,0.48-0.57,0.81c-0.13,0.34-0.2,0.69-0.2,1.05v2.66h-1.57v-5.92
		h1.41l0.13,1.04c0.22-0.42,0.53-0.74,0.91-0.97c0.38-0.22,0.82-0.34,1.32-0.34c0.48,0,0.88,0.11,1.2,0.32s0.53,0.51,0.64,0.9
		c0.24-0.38,0.55-0.68,0.92-0.9c0.37-0.21,0.76-0.32,1.16-0.32C159.31,22.85,159.77,23.02,160.11,23.34z"/>
	<path class="st0" d="M166.59,27.39l0.71,1.16c-0.32,0.2-0.66,0.35-1.02,0.47c-0.36,0.12-0.71,0.18-1.05,0.18
		c-0.68,0-1.27-0.14-1.77-0.41s-0.88-0.64-1.15-1.12c-0.27-0.48-0.4-1.02-0.4-1.64c0-0.58,0.15-1.11,0.45-1.6
		c0.3-0.48,0.7-0.87,1.22-1.15c0.51-0.29,1.07-0.43,1.68-0.43c0.8,0,1.47,0.24,2,0.71s0.89,1.14,1.06,2l-4.56,1.54
		c0.16,0.24,0.37,0.43,0.63,0.56c0.26,0.13,0.55,0.2,0.87,0.2C165.7,27.85,166.14,27.7,166.59,27.39z M163.92,24.6
		c-0.31,0.35-0.47,0.79-0.47,1.34c0,0.1,0,0.18,0.01,0.24l3.11-1.11c-0.12-0.29-0.3-0.53-0.53-0.71s-0.54-0.28-0.91-0.28
		C164.64,24.09,164.24,24.26,163.92,24.6z"/>
	<path class="st0" d="M174.7,23.37c0.37,0.33,0.56,0.76,0.57,1.28v4.4h-1.57v-3.84c-0.02-0.31-0.11-0.55-0.27-0.73
		s-0.41-0.27-0.74-0.28c-0.49,0-0.88,0.21-1.2,0.62c-0.31,0.42-0.47,0.94-0.47,1.59v2.63h-1.57v-5.92h1.41l0.11,1.05
		c0.21-0.41,0.53-0.73,0.93-0.96s0.88-0.34,1.41-0.34C173.87,22.87,174.33,23.04,174.7,23.37z"/>
	<path class="st0" d="M179.16,20.52v2.6h1.54v1.23h-1.54v4.69h-1.57v-4.69h-1.02v-1.23h1.02v-2.6H179.16z"/>
	<path class="st0" d="M188.04,23.12v5.92h-1.57v-0.85c-0.21,0.25-0.5,0.48-0.87,0.69c-0.36,0.21-0.79,0.32-1.27,0.32
		c-0.57,0-1.08-0.12-1.53-0.36s-0.8-0.59-1.06-1.06s-0.39-1.03-0.39-1.69c0-0.64,0.14-1.21,0.41-1.7c0.27-0.49,0.63-0.87,1.08-1.13
		c0.45-0.27,0.95-0.4,1.49-0.4c0.96,0,1.68,0.36,2.16,1.06l0.11-0.8H188.04z M185.85,27.58c0.29-0.22,0.5-0.53,0.62-0.93v-1.29
		c-0.11-0.36-0.33-0.66-0.65-0.88c-0.32-0.22-0.69-0.34-1.11-0.34c-0.5,0-0.92,0.18-1.26,0.53c-0.35,0.35-0.52,0.8-0.52,1.34
		c0,0.35,0.08,0.68,0.25,0.97c0.17,0.29,0.39,0.52,0.67,0.69s0.58,0.25,0.91,0.25C185.19,27.91,185.55,27.8,185.85,27.58z"/>
	<path class="st0" d="M192,23.64c0.29-0.25,0.58-0.45,0.89-0.58c0.3-0.13,0.56-0.2,0.76-0.2l-0.07,1.57
		c-0.43-0.04-0.81,0.04-1.15,0.23s-0.6,0.45-0.78,0.78c-0.19,0.33-0.28,0.68-0.28,1.06v2.55h-1.57v-5.92h1.41l0.11,1.37
		C191.49,24.18,191.71,23.89,192,23.64z"/>
	<path class="st0" d="M200.71,23.12l-3.82,8.76h-1.54l1.39-3.09L194,23.12h1.76l1.76,3.92l1.76-3.92H200.71z"/>
	<path class="st0" d="M207.86,23.64c0.29-0.25,0.58-0.45,0.89-0.58c0.3-0.13,0.56-0.2,0.76-0.2l-0.07,1.57
		c-0.43-0.04-0.81,0.04-1.15,0.23s-0.6,0.45-0.78,0.78c-0.19,0.33-0.28,0.68-0.28,1.06v2.55h-1.57v-5.92h1.41l0.11,1.37
		C207.35,24.18,207.57,23.89,207.86,23.64z"/>
	<path class="st0" d="M214.64,27.39l0.71,1.16c-0.32,0.2-0.66,0.35-1.02,0.47c-0.36,0.12-0.71,0.18-1.05,0.18
		c-0.68,0-1.27-0.14-1.77-0.41s-0.88-0.64-1.15-1.12c-0.27-0.48-0.4-1.02-0.4-1.64c0-0.58,0.15-1.11,0.45-1.6
		c0.3-0.48,0.7-0.87,1.22-1.15c0.51-0.29,1.07-0.43,1.68-0.43c0.8,0,1.47,0.24,2,0.71s0.89,1.14,1.06,2l-4.56,1.54
		c0.16,0.24,0.37,0.43,0.63,0.56c0.26,0.13,0.55,0.2,0.87,0.2C213.75,27.85,214.19,27.7,214.64,27.39z M211.97,24.6
		c-0.31,0.35-0.47,0.79-0.47,1.34c0,0.1,0,0.18,0.01,0.24l3.11-1.11c-0.12-0.29-0.3-0.53-0.53-0.71s-0.54-0.28-0.91-0.28
		C212.69,24.09,212.28,24.26,211.97,24.6z"/>
	<path class="st0" d="M218.02,24.49h-1.01V23.1h1.01v-2.32c0-0.83,0.21-1.48,0.63-1.95c0.42-0.47,1.02-0.7,1.81-0.7
		c0.23,0,0.49,0.04,0.76,0.11c0.27,0.07,0.5,0.17,0.7,0.3l-0.66,1.13c-0.16-0.17-0.37-0.25-0.63-0.25c-0.69,0-1.04,0.47-1.04,1.4
		v2.28h1.85v1.39h-1.85v4.55h-1.57L218.02,24.49L218.02,24.49z"/>
	<path class="st0" d="M224.93,23.64c0.29-0.25,0.58-0.45,0.89-0.58c0.3-0.13,0.56-0.2,0.76-0.2l-0.07,1.57
		c-0.43-0.04-0.81,0.04-1.15,0.23s-0.6,0.45-0.78,0.78c-0.19,0.33-0.28,0.68-0.28,1.06v2.55h-1.57v-5.92h1.41l0.11,1.37
		C224.41,24.18,224.64,23.89,224.93,23.64z"/>
	<path class="st0" d="M231.7,27.39l0.71,1.16c-0.32,0.2-0.66,0.35-1.02,0.47c-0.36,0.12-0.71,0.18-1.05,0.18
		c-0.68,0-1.27-0.14-1.77-0.41s-0.88-0.64-1.15-1.12c-0.27-0.48-0.4-1.02-0.4-1.64c0-0.58,0.15-1.11,0.45-1.6
		c0.3-0.48,0.7-0.87,1.22-1.15c0.51-0.29,1.07-0.43,1.68-0.43c0.8,0,1.47,0.24,2,0.71s0.89,1.14,1.06,2l-4.56,1.54
		c0.16,0.24,0.37,0.43,0.63,0.56c0.26,0.13,0.55,0.2,0.87,0.2C230.81,27.85,231.25,27.7,231.7,27.39z M229.04,24.6
		c-0.31,0.35-0.47,0.79-0.47,1.34c0,0.1,0,0.18,0.01,0.24l3.11-1.11c-0.12-0.29-0.3-0.53-0.53-0.71s-0.54-0.28-0.91-0.28
		C229.75,24.09,229.35,24.26,229.04,24.6z"/>
	<path class="st0" d="M235.06,28.92c-0.41-0.16-0.74-0.39-1-0.69l0.66-0.88c0.5,0.49,1,0.73,1.51,0.73c0.28,0,0.51-0.05,0.69-0.16
		c0.18-0.11,0.27-0.27,0.27-0.48c0-0.22-0.09-0.39-0.28-0.5s-0.39-0.2-0.62-0.27s-0.38-0.11-0.44-0.13
		c-0.51-0.16-0.9-0.39-1.15-0.69s-0.38-0.66-0.38-1.07c0-0.33,0.08-0.63,0.25-0.92c0.16-0.28,0.41-0.52,0.74-0.69
		c0.33-0.18,0.73-0.27,1.21-0.27c0.45,0,0.84,0.05,1.17,0.15s0.64,0.27,0.93,0.49l-0.6,0.94c-0.17-0.16-0.37-0.28-0.61-0.38
		c-0.24-0.09-0.46-0.14-0.65-0.14c-0.24,0-0.44,0.06-0.6,0.17s-0.24,0.26-0.24,0.43c-0.01,0.21,0.07,0.38,0.24,0.48
		s0.44,0.22,0.81,0.34c0.16,0.05,0.26,0.08,0.31,0.1c0.47,0.15,0.83,0.36,1.09,0.62c0.26,0.27,0.39,0.61,0.39,1.04
		c0,0.58-0.21,1.06-0.62,1.45c-0.42,0.39-1.01,0.58-1.78,0.58C235.89,29.17,235.46,29.09,235.06,28.92z"/>
	<path class="st0" d="M245.33,23.37c0.37,0.33,0.56,0.76,0.57,1.28v4.4h-1.57v-3.84c-0.02-0.31-0.11-0.55-0.27-0.73
		s-0.41-0.27-0.74-0.28c-0.49,0-0.88,0.21-1.2,0.63c-0.31,0.42-0.47,0.95-0.47,1.58v2.63h-1.57V18.12h1.54v6.01
		c0.22-0.38,0.53-0.69,0.93-0.92s0.86-0.34,1.39-0.34C244.5,22.87,244.96,23.04,245.33,23.37z"/>
	<path class="st0" d="M256.71,23.34c0.34,0.33,0.52,0.76,0.54,1.29v4.41h-1.55v-3.81c-0.02-0.32-0.09-0.56-0.21-0.74
		s-0.32-0.27-0.6-0.29c-0.49,0-0.88,0.22-1.18,0.65c-0.3,0.43-0.45,0.94-0.46,1.52v2.66h-1.58v-3.81c-0.02-0.31-0.09-0.55-0.22-0.73
		s-0.33-0.28-0.62-0.29c-0.32,0-0.6,0.1-0.84,0.31c-0.24,0.21-0.43,0.48-0.57,0.81c-0.13,0.34-0.2,0.69-0.2,1.05v2.66h-1.57v-5.92
		h1.41l0.13,1.04c0.22-0.42,0.53-0.74,0.91-0.97c0.38-0.22,0.82-0.34,1.32-0.34c0.48,0,0.88,0.11,1.2,0.32s0.53,0.51,0.64,0.9
		c0.24-0.38,0.55-0.68,0.92-0.9c0.37-0.21,0.76-0.32,1.16-0.32C255.91,22.85,256.37,23.02,256.71,23.34z"/>
	<path class="st0" d="M263.19,27.39l0.71,1.16c-0.32,0.2-0.66,0.35-1.02,0.47c-0.36,0.12-0.71,0.18-1.05,0.18
		c-0.68,0-1.27-0.14-1.77-0.41s-0.88-0.64-1.15-1.12c-0.27-0.48-0.4-1.02-0.4-1.64c0-0.58,0.15-1.11,0.45-1.6
		c0.3-0.48,0.7-0.87,1.22-1.15c0.51-0.29,1.07-0.43,1.68-0.43c0.8,0,1.47,0.24,2,0.71s0.89,1.14,1.06,2l-4.56,1.54
		c0.16,0.24,0.37,0.43,0.63,0.56s0.55,0.2,0.87,0.2C262.3,27.85,262.74,27.7,263.19,27.39z M260.52,24.6
		c-0.31,0.35-0.47,0.79-0.47,1.34c0,0.1,0,0.18,0.01,0.24l3.11-1.11c-0.12-0.29-0.3-0.53-0.53-0.71s-0.54-0.28-0.91-0.28
		C261.24,24.09,260.83,24.26,260.52,24.6z"/>
	<path class="st0" d="M271.3,23.37c0.37,0.33,0.56,0.76,0.57,1.28v4.4h-1.57v-3.84c-0.02-0.31-0.11-0.55-0.27-0.73
		s-0.41-0.27-0.74-0.28c-0.49,0-0.88,0.21-1.2,0.62c-0.31,0.42-0.47,0.94-0.47,1.59v2.63h-1.57v-5.92h1.41l0.11,1.05
		c0.21-0.41,0.53-0.73,0.93-0.96s0.88-0.34,1.41-0.34C270.47,22.87,270.93,23.04,271.3,23.37z"/>
	<path class="st0" d="M275.76,20.52v2.6h1.54v1.23h-1.54v4.69h-1.57v-4.69h-1.02v-1.23h1.02v-2.6H275.76z"/>
	<path class="st0" d="M278.92,28.92c-0.41-0.16-0.74-0.39-1-0.69l0.66-0.88c0.5,0.49,1,0.73,1.51,0.73c0.28,0,0.51-0.05,0.69-0.16
		s0.27-0.27,0.27-0.48c0-0.22-0.09-0.39-0.28-0.5s-0.39-0.2-0.62-0.27c-0.23-0.07-0.38-0.11-0.44-0.13
		c-0.51-0.16-0.9-0.39-1.15-0.69s-0.38-0.66-0.38-1.07c0-0.33,0.08-0.63,0.25-0.92c0.16-0.28,0.41-0.52,0.74-0.69
		c0.33-0.18,0.73-0.27,1.21-0.27c0.45,0,0.84,0.05,1.17,0.15c0.33,0.1,0.64,0.27,0.93,0.49l-0.6,0.94
		c-0.17-0.16-0.37-0.28-0.61-0.38c-0.24-0.09-0.46-0.14-0.65-0.14c-0.24,0-0.44,0.06-0.6,0.17s-0.24,0.26-0.24,0.43
		c-0.01,0.21,0.07,0.38,0.24,0.48s0.44,0.22,0.81,0.34c0.16,0.05,0.26,0.08,0.31,0.1c0.47,0.15,0.83,0.36,1.09,0.62
		c0.26,0.27,0.39,0.61,0.39,1.04c0,0.58-0.21,1.06-0.62,1.45c-0.42,0.39-1.01,0.58-1.78,0.58
		C279.75,29.17,279.32,29.09,278.92,28.92z"/>
</g>
</svg>
