<?xml version="1.0" encoding="utf-8"?>
<!-- Generator: Adobe Illustrator 23.0.0, SVG Export Plug-In . SVG Version: 6.00 Build 0)  -->
<svg version="1.1" id="Layer_1" xmlns="http://www.w3.org/2000/svg" xmlns:xlink="http://www.w3.org/1999/xlink" x="0px" y="0px"
	 viewBox="0 0 320 50" style="enable-background:new 0 0 320 50;" xml:space="preserve">
<style type="text/css">
	.st0{fill:#768961;}
</style>
<g>
	<path class="st0" d="M104.6,11.6c0.65,0.58,0.98,1.38,0.98,2.41c0,0.59-0.12,1.14-0.35,1.64c-0.23,0.51-0.61,0.92-1.13,1.25
		c-0.52,0.32-1.18,0.48-2,0.48h-1.47v3.54H99V10.73h2.88C103.04,10.73,103.95,11.02,104.6,11.6z M103.19,15.52
		c0.28-0.19,0.47-0.42,0.59-0.7c0.12-0.28,0.18-0.54,0.18-0.79c0-0.43-0.14-0.83-0.41-1.19c-0.28-0.36-0.74-0.55-1.39-0.55h-1.51
		v3.51h1.47C102.56,15.81,102.92,15.71,103.19,15.52z"/>
	<path class="st0" d="M108.8,10v10.92h-1.57V10H108.8z"/>
	<path class="st0" d="M116.65,15v5.92h-1.41l-0.1-1.06c-0.21,0.4-0.51,0.72-0.91,0.96s-0.86,0.36-1.37,0.36
		c-0.54,0-0.99-0.17-1.35-0.5s-0.54-0.76-0.55-1.28V15h1.57v3.84c0.03,0.65,0.35,0.98,0.97,0.99c0.46,0,0.84-0.21,1.14-0.63
		s0.46-0.95,0.46-1.58V15H116.65z"/>
	<path class="st0" d="M119.31,20.8c-0.41-0.16-0.74-0.39-1-0.69l0.66-0.88c0.5,0.49,1,0.73,1.51,0.73c0.28,0,0.51-0.05,0.69-0.16
		s0.27-0.27,0.27-0.48c0-0.22-0.09-0.39-0.28-0.5s-0.39-0.2-0.62-0.27s-0.38-0.11-0.44-0.13c-0.51-0.16-0.9-0.39-1.15-0.69
		s-0.38-0.66-0.38-1.07c0-0.33,0.08-0.63,0.25-0.92c0.16-0.28,0.41-0.52,0.74-0.69c0.33-0.18,0.73-0.27,1.21-0.27
		c0.45,0,0.84,0.05,1.17,0.15c0.33,0.1,0.64,0.27,0.93,0.49l-0.6,0.94c-0.17-0.16-0.37-0.28-0.61-0.38
		c-0.24-0.09-0.46-0.14-0.65-0.14c-0.24,0-0.44,0.06-0.6,0.17c-0.16,0.11-0.24,0.26-0.24,0.43c-0.01,0.21,0.07,0.38,0.24,0.48
		s0.44,0.22,0.81,0.34c0.16,0.05,0.26,0.08,0.31,0.1c0.47,0.15,0.83,0.36,1.09,0.62c0.26,0.27,0.39,0.61,0.39,1.04
		c0,0.58-0.21,1.06-0.62,1.45c-0.42,0.39-1.01,0.58-1.78,0.58C120.14,21.05,119.71,20.96,119.31,20.8z"/>
	<path class="st0" d="M135.43,15v5.92h-1.57v-0.85c-0.21,0.25-0.5,0.48-0.87,0.69c-0.36,0.21-0.79,0.32-1.27,0.32
		c-0.57,0-1.08-0.12-1.53-0.36s-0.8-0.59-1.06-1.06s-0.39-1.03-0.39-1.69c0-0.64,0.14-1.21,0.41-1.7s0.63-0.87,1.08-1.13
		c0.45-0.27,0.95-0.4,1.49-0.4c0.96,0,1.68,0.36,2.16,1.06l0.11-0.8C133.99,15,135.43,15,135.43,15z M133.24,19.46
		c0.29-0.22,0.5-0.53,0.62-0.93v-1.29c-0.11-0.36-0.33-0.66-0.65-0.88c-0.32-0.22-0.69-0.34-1.11-0.34c-0.5,0-0.92,0.18-1.26,0.53
		c-0.35,0.35-0.52,0.8-0.52,1.34c0,0.35,0.08,0.68,0.25,0.97c0.17,0.29,0.39,0.52,0.67,0.69s0.58,0.25,0.91,0.25
		C132.58,19.79,132.94,19.68,133.24,19.46z"/>
	<path class="st0" d="M146.02,20.88c-0.38,0.13-0.76,0.19-1.14,0.19c-0.65,0-1.23-0.13-1.73-0.38s-0.88-0.61-1.16-1.08
		c-0.27-0.47-0.41-1.02-0.41-1.66c0-0.63,0.14-1.17,0.43-1.65c0.29-0.47,0.67-0.83,1.15-1.08s1-0.38,1.55-0.38
		c0.93,0,1.7,0.25,2.31,0.76l-0.78,1.02c-0.18-0.14-0.38-0.26-0.62-0.36c-0.24-0.1-0.49-0.15-0.76-0.15c-0.48,0-0.88,0.17-1.21,0.52
		s-0.5,0.79-0.5,1.31s0.17,0.96,0.52,1.31s0.8,0.53,1.34,0.53c0.47,0,0.86-0.13,1.18-0.39l0.78,0.98
		C146.72,20.59,146.4,20.76,146.02,20.88z"/>
	<path class="st0" d="M153.83,15.24c0.37,0.33,0.56,0.76,0.57,1.28v4.4h-1.57v-3.84c-0.02-0.31-0.11-0.55-0.27-0.73
		s-0.41-0.27-0.74-0.28c-0.49,0-0.88,0.21-1.2,0.63c-0.31,0.42-0.47,0.95-0.47,1.58v2.63h-1.57V10h1.54v6.01
		c0.22-0.38,0.53-0.69,0.93-0.92s0.86-0.34,1.39-0.34C153,14.75,153.46,14.91,153.83,15.24z"/>
	<path class="st0" d="M162.75,15v5.92h-1.57v-0.85c-0.21,0.25-0.5,0.48-0.87,0.69c-0.36,0.21-0.79,0.32-1.27,0.32
		c-0.57,0-1.08-0.12-1.53-0.36s-0.8-0.59-1.06-1.06s-0.39-1.03-0.39-1.69c0-0.64,0.14-1.21,0.41-1.7s0.63-0.87,1.08-1.13
		c0.45-0.27,0.95-0.4,1.49-0.4c0.96,0,1.68,0.36,2.16,1.06l0.11-0.8C161.31,15,162.75,15,162.75,15z M160.56,19.46
		c0.29-0.22,0.5-0.53,0.62-0.93v-1.29c-0.11-0.36-0.33-0.66-0.65-0.88c-0.32-0.22-0.69-0.34-1.11-0.34c-0.5,0-0.92,0.18-1.26,0.53
		c-0.35,0.35-0.52,0.8-0.52,1.34c0,0.35,0.08,0.68,0.25,0.97c0.17,0.29,0.39,0.52,0.67,0.69s0.58,0.25,0.91,0.25
		C159.91,19.79,160.27,19.68,160.56,19.46z"/>
	<path class="st0" d="M167.12,15.52c0.29-0.25,0.58-0.45,0.89-0.58c0.3-0.13,0.56-0.2,0.76-0.2l-0.07,1.57
		c-0.43-0.04-0.81,0.04-1.15,0.23s-0.6,0.45-0.78,0.78c-0.19,0.33-0.28,0.68-0.28,1.06v2.55h-1.57V15h1.41l0.11,1.37
		C166.61,16.05,166.83,15.77,167.12,15.52z"/>
	<path class="st0" d="M170.59,12.29c0.19-0.16,0.4-0.25,0.63-0.25c0.22,0,0.43,0.08,0.61,0.25c0.18,0.16,0.27,0.36,0.27,0.59
		s-0.09,0.43-0.27,0.59c-0.18,0.16-0.39,0.24-0.61,0.24c-0.23,0-0.44-0.08-0.63-0.24s-0.28-0.35-0.28-0.59
		S170.41,12.45,170.59,12.29z M171.95,15v5.92h-1.57V15H171.95z"/>
	<path class="st0" d="M176.25,12.39V15h1.54v1.23h-1.54v4.69h-1.57v-4.69h-1.02V15h1.02v-2.6L176.25,12.39L176.25,12.39z"/>
	<path class="st0" d="M185.18,15l-3.82,8.76h-1.54l1.39-3.09L178.46,15h1.76l1.76,3.92l1.76-3.92H185.18z"/>
	<path class="st0" d="M193.15,15.52c0.29-0.25,0.58-0.45,0.89-0.58c0.3-0.13,0.56-0.2,0.76-0.2l-0.07,1.57
		c-0.43-0.04-0.81,0.04-1.15,0.23s-0.6,0.45-0.78,0.78c-0.19,0.33-0.28,0.68-0.28,1.06v2.55h-1.57V15h1.41l0.11,1.37
		C192.63,16.05,192.86,15.77,193.15,15.52z"/>
	<path class="st0" d="M202.44,15v5.92h-1.57v-0.85c-0.21,0.25-0.5,0.48-0.87,0.69c-0.36,0.21-0.79,0.32-1.27,0.32
		c-0.57,0-1.08-0.12-1.53-0.36s-0.8-0.59-1.06-1.06s-0.39-1.03-0.39-1.69c0-0.64,0.14-1.21,0.41-1.7s0.63-0.87,1.08-1.13
		c0.45-0.27,0.95-0.4,1.49-0.4c0.96,0,1.68,0.36,2.16,1.06L201,15H202.44z M200.25,19.46c0.29-0.22,0.5-0.53,0.62-0.93v-1.29
		c-0.11-0.36-0.33-0.66-0.65-0.88c-0.32-0.22-0.69-0.34-1.11-0.34c-0.5,0-0.92,0.18-1.26,0.53c-0.35,0.35-0.52,0.8-0.52,1.34
		c0,0.35,0.08,0.68,0.25,0.97c0.17,0.29,0.39,0.52,0.67,0.69s0.58,0.25,0.91,0.25C199.6,19.79,199.96,19.68,200.25,19.46z"/>
	<path class="st0" d="M210.98,14.98h1.85v1.39h-1.85v4.55h-1.57v-4.55h-2.72v4.55h-1.57v-4.55h-1.01v-1.39h1.01v-2.32
		c0-0.83,0.21-1.48,0.63-1.95c0.42-0.47,1.02-0.7,1.81-0.7c0.23,0,0.49,0.04,0.76,0.11c0.27,0.07,0.5,0.17,0.7,0.3l-0.66,1.13
		c-0.16-0.17-0.37-0.25-0.63-0.25c-0.69,0-1.04,0.47-1.04,1.4v2.28h2.72v-2.32c0-0.83,0.21-1.48,0.63-1.95s1.02-0.7,1.81-0.7
		c0.23,0,0.48,0.04,0.76,0.11c0.27,0.07,0.5,0.17,0.7,0.3l-0.66,1.13c-0.16-0.17-0.37-0.25-0.63-0.25c-0.69,0-1.04,0.47-1.04,1.4
		L210.98,14.98L210.98,14.98z M216.08,10v10.92h-1.57V10H216.08z"/>
	<path class="st0" d="M222.42,19.27l0.71,1.16c-0.32,0.2-0.66,0.35-1.02,0.47c-0.36,0.12-0.71,0.18-1.05,0.18
		c-0.68,0-1.27-0.14-1.77-0.41s-0.88-0.64-1.15-1.12c-0.27-0.48-0.4-1.02-0.4-1.64c0-0.58,0.15-1.11,0.45-1.6
		c0.3-0.48,0.7-0.87,1.22-1.15c0.51-0.29,1.07-0.43,1.68-0.43c0.8,0,1.47,0.24,2,0.71s0.89,1.14,1.06,2l-4.56,1.54
		c0.16,0.24,0.37,0.43,0.63,0.56c0.26,0.13,0.55,0.2,0.87,0.2C221.53,19.73,221.97,19.58,222.42,19.27z M219.75,16.48
		c-0.31,0.35-0.47,0.79-0.47,1.34c0,0.1,0,0.18,0.01,0.24l3.11-1.11c-0.12-0.29-0.3-0.53-0.53-0.71s-0.54-0.28-0.91-0.28
		C220.47,15.96,220.07,16.14,219.75,16.48z"/>
	<path class="st0" d="M232.32,12.39V15h1.54v1.23h-1.54v4.69h-1.57v-4.69h-1.02V15h1.02v-2.6L232.32,12.39L232.32,12.39z"/>
	<path class="st0" d="M235.34,16.29c0.29-0.49,0.68-0.87,1.18-1.14s1.08-0.41,1.72-0.41s1.22,0.14,1.71,0.41
		c0.5,0.28,0.88,0.65,1.16,1.13c0.27,0.48,0.41,1.02,0.41,1.62s-0.14,1.14-0.41,1.62c-0.27,0.48-0.66,0.86-1.16,1.14
		c-0.5,0.28-1.08,0.42-1.73,0.42c-0.63,0-1.2-0.13-1.71-0.39c-0.5-0.26-0.9-0.63-1.18-1.11c-0.28-0.48-0.43-1.04-0.43-1.69
		C234.91,17.31,235.05,16.77,235.34,16.29z M236.98,19.25c0.33,0.36,0.73,0.54,1.22,0.54c0.5,0,0.92-0.18,1.24-0.53
		s0.48-0.8,0.48-1.34s-0.16-0.99-0.48-1.35c-0.32-0.36-0.74-0.54-1.24-0.54c-0.49,0-0.89,0.18-1.22,0.55
		c-0.33,0.37-0.49,0.81-0.49,1.34C236.49,18.44,236.65,18.89,236.98,19.25z"/>
	<path class="st0" d="M255.85,15l-2.7,6.27l-1.9-4l-1.74,4L246.78,15h1.54l1.37,3.15l0.99-2.27l-0.4-0.88h1.36l1.4,3.25l1.27-3.25
		H255.85z"/>
	<path class="st0" d="M257.35,12.29c0.19-0.16,0.4-0.25,0.63-0.25c0.22,0,0.43,0.08,0.61,0.25c0.18,0.16,0.27,0.36,0.27,0.59
		s-0.09,0.43-0.27,0.59s-0.39,0.24-0.61,0.24c-0.23,0-0.44-0.08-0.63-0.24s-0.28-0.35-0.28-0.59S257.17,12.45,257.35,12.29z
		 M258.71,15v5.92h-1.57V15H258.71z"/>
	<path class="st0" d="M266.11,15.24c0.37,0.33,0.56,0.76,0.57,1.28v4.4h-1.57v-3.84c-0.02-0.31-0.11-0.55-0.27-0.73
		s-0.41-0.27-0.74-0.28c-0.49,0-0.88,0.21-1.2,0.62c-0.31,0.42-0.47,0.94-0.47,1.59v2.63h-1.57V15h1.41l0.11,1.05
		c0.21-0.41,0.53-0.73,0.93-0.96s0.88-0.34,1.41-0.34C265.28,14.75,265.74,14.91,266.11,15.24z"/>
</g>
</svg>
