<?xml version="1.0" encoding="utf-8"?>
<!-- Generator: Adobe Illustrator 23.0.3, SVG Export Plug-In . SVG Version: 6.00 Build 0)  -->
<svg version="1.1" id="Layer_1" xmlns="http://www.w3.org/2000/svg" xmlns:xlink="http://www.w3.org/1999/xlink" x="0px" y="0px"
	 viewBox="0 0 160 600" style="enable-background:new 0 0 160 600;" xml:space="preserve">
<style type="text/css">
	.st0{fill:#2158F5;}
	.st1{fill:#FFFFFF;}
</style>
<g>
	<path class="st0" d="M144,409H16c-2.8,0-5-2.3-5-5v-31c0-2.8,2.3-5,5-5h128c2.8,0,5,2.3,5,5v31C149,406.8,146.8,409,144,409z"/>
	<g>
		<path class="st1" d="M26.4,394.5v-11.7h7.8v2.1H29v2.9h4.5v2.1H29v4.7H26.4z"/>
		<path class="st1" d="M36.7,382.3c0.9,0,1.6,0.6,1.6,1.4c0,0.8-0.7,1.4-1.6,1.4c-0.9,0-1.6-0.6-1.6-1.4
			C35.1,382.9,35.8,382.3,36.7,382.3z M35.4,394.5V386h2.5v8.6H35.4z"/>
		<path class="st1" d="M39.6,386h2.5v1.2c0.7-1,1.6-1.4,2.7-1.4c2.4,0,3.1,1.9,3.1,4.1v4.7h-2.5v-4.6c0-1.2-0.4-2.1-1.6-2.1
			c-1.2,0-1.6,0.9-1.6,2.1v4.6h-2.5V386z"/>
		<path class="st1" d="M58.2,382.5v12.1h-2.5v-1.3c-0.6,0.9-1.4,1.4-2.7,1.4c-2.6,0-4.2-2-4.2-4.5c0-2.4,1.5-4.4,4.1-4.4
			c1.2,0,2.2,0.6,2.7,1.4v-4.7H58.2z M53.5,392.7c1.2,0,2.2-0.8,2.2-2.3c0-1.6-1-2.6-2.3-2.6c-1.4,0-2.1,1.1-2.1,2.4
			C51.3,391.6,52.2,392.7,53.5,392.7z"/>
		<path class="st1" d="M67.6,385.8c2.5,0,4.7,1.8,4.7,4.5c0,2.7-2.2,4.5-4.7,4.5c-2.5,0-4.7-1.8-4.7-4.5
			C62.9,387.6,65.1,385.8,67.6,385.8z M67.6,392.6c1.2,0,2.3-1,2.3-2.3c0-1.3-1.1-2.3-2.3-2.3c-1.2,0-2.3,1-2.3,2.3
			C65.3,391.6,66.4,392.6,67.6,392.6z"/>
		<path class="st1" d="M81.5,394.5H79v-1.2c-0.7,1-1.6,1.4-2.7,1.4c-2.4,0-3.1-1.9-3.1-4.1V386h2.5v4.6c0,1.2,0.4,2.1,1.6,2.1
			c1.2,0,1.6-0.9,1.6-2.1V386h2.5V394.5z"/>
		<path class="st1" d="M86.3,386h2.4v2h-2.4v4c0,0.4,0.2,0.8,0.6,0.8c0.5,0,0.7-0.4,0.7-0.8c0-0.3-0.1-0.6-0.1-0.7h2
			c0.2,0.3,0.2,0.7,0.2,1c0,1.3-0.8,2.6-2.9,2.6c-1.5,0-3-0.5-3-3v-3.8h-1.3v-2H84l0.4-2.1h1.9V386z"/>
		<path class="st1" d="M101.7,389.9v4.6h-2.5v-4.6c0-1.2-0.3-2.1-1.4-2.1c-1.1,0-1.4,1-1.4,2.1v4.6h-2.5V386h2.5v1.2
			c0.6-0.9,1.4-1.4,2.3-1.4c1.3,0,2.2,0.6,2.6,1.4c0.7-1.3,1.9-1.4,2.7-1.4c2.4,0,3.1,1.9,3.1,4.1v4.7h-2.5v-4.6
			c0-1.2-0.3-2.1-1.4-2.1C102.1,387.8,101.7,388.8,101.7,389.9z"/>
		<path class="st1" d="M112.8,385.8c2.5,0,4.7,1.8,4.7,4.5c0,2.7-2.2,4.5-4.7,4.5c-2.5,0-4.7-1.8-4.7-4.5
			C108.1,387.6,110.3,385.8,112.8,385.8z M112.8,392.6c1.2,0,2.3-1,2.3-2.3c0-1.3-1.1-2.3-2.3-2.3c-1.2,0-2.3,1-2.3,2.3
			C110.5,391.6,111.6,392.6,112.8,392.6z"/>
		<path class="st1" d="M121.1,387.8c0.3-1.6,1.6-2.1,2.4-2.1c0.3,0,0.4,0,0.6,0.1v2.5c-0.4-0.1-0.8-0.1-1.1-0.1
			c-0.9,0-1.9,0.6-1.9,1.7v4.7h-2.5V386h2.4V387.8z"/>
		<path class="st1" d="M133.1,393c-1.2,1.3-2.8,1.7-4,1.7c-3.2,0-4.9-2-4.9-4.4c0-2.5,2-4.5,4.7-4.5c2.4,0,4.6,1.6,4.6,5.1h-6.9
			c0.1,1.1,1,1.9,2.6,1.9c0.9,0,1.8-0.5,2.4-1L133.1,393z M126.7,389.3h4.3c-0.2-1.1-1.3-1.5-2.1-1.5
			C128.1,387.8,127,388.2,126.7,389.3z"/>
	</g>
</g>
</svg>
