<?xml version="1.0" encoding="utf-8"?>
<!-- Generator: Adobe Illustrator 23.0.0, SVG Export Plug-In . SVG Version: 6.00 Build 0)  -->
<svg version="1.1" id="Layer_1" xmlns="http://www.w3.org/2000/svg" xmlns:xlink="http://www.w3.org/1999/xlink" x="0px" y="0px"
	 viewBox="0 0 160 600" style="enable-background:new 0 0 160 600;" xml:space="preserve">
<style type="text/css">
	.st0{fill:#060866;}
	.st1{fill:#01AD02;}
	.st2{fill:#00EB00;}
	.st3{fill:#0085AF;}
	.st4{fill:#FFFFFF;}
	.st5{fill:#EDDB00;}
</style>
<g>
	<g>
		<g>
			<path class="st0" d="M20.7,551.06c2.35,0,3.73-0.8,5.08-1.8l-1.37-2.47c-0.98,0.75-2.02,1.37-3.71,1.37
				c-2.64,0-4.49-1.76-4.49-4.35c0-2.59,1.85-4.4,4.49-4.4c1.69,0,2.84,0.7,3.7,1.37l1.37-2.42c-1.34-0.99-2.74-1.8-5.08-1.8
				c-5.05,0-7.7,3.64-7.7,7.24C13,547.42,15.65,551.06,20.7,551.06z"/>
			<path class="st0" d="M64.28,542.59l-1.47-0.52c-1.29-0.44-1.56-1.17-1.56-1.6c0-1.15,1.08-1.46,1.73-1.46
				c1.05,0,1.8,0.68,2.27,1.79h0l2.49-1.23l-0.03-0.07c-0.83-1.99-2.5-3.08-4.72-3.08c-2.85,0-4.76,1.66-4.76,4.13
				c0,1.36,0.55,3,3.51,4.01l1.51,0.52c1.37,0.48,1.76,1.19,1.76,1.65c0,1.33-1.15,1.58-2.09,1.54c-1.3-0.05-2.24-0.78-2.6-2.06
				l-0.02-0.07l-2.77,0.55l0.01,0.07c0.26,2.45,2.5,4.16,5.43,4.16c1.32,0,2.55-0.36,3.45-1.03c1.05-0.77,1.61-1.9,1.61-3.26
				C68,544.13,65.96,543.12,64.28,542.59z"/>
			<path class="st0" d="M87.61,540.26c-1.23-0.02-2.63,0.46-3.41,1.67c-0.47-1.06-1.22-1.67-2.47-1.67c-0.38,0-0.86,0.07-1.23,0.16
				v2.15c0.54-0.06,1.08,0.02,1.08,1.56v10.58h2.88v-5.13c0.54,0.77,1.48,1.34,3.18,1.34c2.42,0,4.92-1.93,4.92-5.26
				C92.55,542.34,90.15,540.3,87.61,540.26z M86.99,548.33c-1.56,0.01-2.6-1.22-2.61-2.75c-0.01-1.53,1.01-2.68,2.62-2.71
				c1.47-0.03,2.7,1.2,2.71,2.69C89.72,547.12,88.54,548.32,86.99,548.33z"/>
			<path class="st0" d="M104.12,546.37c-0.15,0-7.87,0-7.87,0s-0.02,2.07,2.73,2.07c2.05,0,2.75-1.02,2.75-1.02l1.69,1.58
				c0,0-1.53,1.9-4.48,1.9c-2.95,0-5.51-1.99-5.51-5.33s2.56-5.32,5.36-5.32c3.37,0,5.33,2.06,5.33,5.78L104.12,546.37z
				 M96.3,544.52h4.99c0,0,0.02-1.91-2.42-1.91C96.43,542.61,96.3,544.52,96.3,544.52z"/>
			<path class="st0" d="M34.26,540.42h2.94c0,0,0,5.29,0,6.67c0,1.29,0.4,1.6,1.12,1.5v2.18c0,0-0.34,0.13-1.31,0.13
				c-1.05,0-2.22-0.52-2.52-1.71c-0.65,1.21-1.86,1.71-3.47,1.71c-2.49,0-5.09-1.92-5.09-5.28c0-3.26,2.47-5.37,4.96-5.37
				c1.81,0,2.66,0.53,3.36,1.54C34.24,541.63,34.26,540.42,34.26,540.42z M31.62,542.87c-1.6,0-2.78,1.26-2.78,2.7
				c0,1.56,1.21,2.72,2.74,2.72c1.46,0,2.82-1.02,2.82-2.68C34.39,543.85,33.02,542.87,31.62,542.87z"/>
			<path class="st0" d="M57,546.37c-0.15,0-7.86,0-7.86,0s-0.02,2.07,2.73,2.07c2.05,0,2.75-1.02,2.75-1.02l1.69,1.58
				c0,0-1.53,1.9-4.48,1.9c-2.95,0-5.51-1.99-5.51-5.33s2.56-5.32,5.36-5.32c3.37,0,5.33,2.06,5.33,5.78L57,546.37z M49.19,544.52
				h4.99c0,0,0.02-1.91-2.42-1.91C49.32,542.61,49.19,544.52,49.19,544.52z"/>
			<path class="st0" d="M78.8,547.1c0,1.29,0.4,1.6,1.12,1.5v2.18c0,0-0.34,0.13-1.31,0.13c-1.14,0-2.2-0.58-2.51-1.71
				c-0.52,1.01-1.59,1.72-3.3,1.72c-2.59,0-3.83-1.76-3.83-4.57s-0.02-5.92-0.02-5.92h2.9c0,0,0,4.39,0,5.68
				c0,1.29,0.53,2.24,1.94,2.24s2.1-0.99,2.1-2.36s0-5.57,0-5.57h2.9L78.8,547.1L78.8,547.1z"/>
		</g>
		<path class="st0" d="M108.66,544.97c0-1.77,1.97-2.51,3.54-1.89v-2.8c-1.66-0.1-2.83,0.23-3.79,1.65
			c-0.47-1.06-1.22-1.67-2.47-1.67c-0.38,0-0.86,0.07-1.23,0.16v2.15c0.54-0.06,1.08,0.02,1.08,1.56v6.61h2.88L108.66,544.97
			L108.66,544.97z"/>
		<path class="st0" d="M42.77,544.97c0-1.77,1.97-2.51,3.54-1.89v-2.8c-1.66-0.1-2.83,0.23-3.79,1.65
			c-0.47-1.06-1.22-1.67-2.47-1.67c-0.38,0-0.86,0.07-1.23,0.16v2.15c0.54-0.06,1.08,0.02,1.08,1.56v6.61h2.88L42.77,544.97
			L42.77,544.97z"/>
	</g>
	<g>
		<g>
			<path class="st1" d="M103.86,517.15l-3.5,4.96c0.55-0.2,1.15-0.31,1.77-0.31c2.91,0,5.27,2.36,5.27,5.27
				c0,2.91-2.36,5.27-5.27,5.27c-2.91,0-5.27-2.36-5.27-5.27l0,0l-3.5,4.96c1.73,3.05,5.01,5.11,8.77,5.11
				c5.56,0,10.08-4.51,10.08-10.08C112.2,522.1,108.6,517.97,103.86,517.15z"/>
		</g>
		<g>
			<path class="st2" d="M91.6,532.34c-2.91,0-5.27-2.36-5.27-5.27c0-2.91,2.36-5.27,5.27-5.27c2.91,0,5.27,2.36,5.27,5.27l3.5-4.96
				c-1.73-3.05-5.01-5.11-8.77-5.11c-5.56,0-10.08,4.51-10.08,10.08c0,4.97,3.6,9.1,8.34,9.92l3.5-4.96
				C92.81,532.24,92.22,532.34,91.6,532.34z"/>
		</g>
	</g>
	<g>
		<g>
			<rect x="122.9" y="517" class="st3" width="25.1" height="33.75"/>
			<g>
				<polygon class="st4" points="135.49,524.7 138.48,527.7 142.77,527.68 135.49,520.4 126.05,529.83 128.21,531.99 				"/>
				<polygon class="st5" points="142.77,527.68 135.49,534.96 132.53,532.01 128.22,532 135.49,539.27 144.92,529.83 				"/>
			</g>
		</g>
		<g>
			<path class="st4" d="M127.05,545.78c-0.73-0.19-0.87-0.21-0.87-0.44c0-0.25,0.24-0.33,0.44-0.33c0.31,0,0.55,0.09,0.57,0.44h0.62
				c0-0.67-0.56-0.94-1.16-0.94c-0.53,0-1.09,0.28-1.09,0.88c0,0.54,0.44,0.71,0.87,0.83c0.43,0.12,0.87,0.17,0.87,0.48
				c0,0.3-0.34,0.36-0.57,0.36c-0.34,0-0.64-0.15-0.64-0.54h-0.62c-0.01,0.72,0.6,1.03,1.24,1.03c0.79,0,1.21-0.4,1.21-0.94
				C127.91,545.96,127.26,545.83,127.05,545.78z"/>
			<path class="st4" d="M129.46,546.49c0,0.43-0.13,0.61-0.45,0.61c-0.27,0-0.37-0.17-0.37-0.52v-1.19h-0.58v1.29
				c0,0.52,0.15,0.87,0.77,0.87c0.25,0,0.5-0.12,0.64-0.35h0.01v0.29h0.55v-2.11h-0.58L129.46,546.49L129.46,546.49z"/>
			<path class="st4" d="M131.45,545.33c-0.26,0-0.49,0.1-0.63,0.33h-0.01v-0.27h-0.55v2.85h0.58v-1h0.01
				c0.14,0.21,0.38,0.32,0.63,0.32c0.61,0,0.93-0.53,0.93-1.09C132.41,545.86,132.11,545.33,131.45,545.33z M131.33,547.11
				c-0.38,0-0.51-0.33-0.51-0.67s0.12-0.68,0.5-0.68c0.37,0,0.51,0.34,0.51,0.68C131.83,546.78,131.71,547.11,131.33,547.11z"/>
			<path class="st4" d="M133.59,545.33c-0.64,0-1.08,0.48-1.08,1.11c0,0.65,0.41,1.11,1.08,1.11c0.47,0,0.82-0.21,0.99-0.71h-0.51
				c-0.04,0.13-0.22,0.27-0.46,0.27c-0.32,0-0.5-0.17-0.52-0.54h1.52C134.65,545.93,134.3,545.33,133.59,545.33z M133.09,546.21
				c0.01-0.16,0.12-0.45,0.48-0.45c0.28,0,0.41,0.15,0.46,0.45H133.09z"/>
			<path class="st4" d="M135.31,545.77L135.31,545.77l-0.01-0.39h-0.55v2.11h0.58v-0.95c0-0.37,0.15-0.68,0.57-0.68
				c0.07,0,0.2,0.03,0.26,0.04v-0.55c-0.04-0.01-0.13-0.03-0.17-0.03C135.7,545.33,135.41,545.51,135.31,545.77z"/>
			<polygon class="st4" points="136.93,545.09 138.25,545.09 138.25,544.55 136.28,544.55 136.28,547.51 136.93,547.51 
				136.93,546.28 138.25,546.28 138.25,545.78 136.93,545.78 			"/>
			<path class="st4" d="M139.9,546.49c0,0.43-0.13,0.61-0.46,0.61c-0.27,0-0.38-0.17-0.38-0.53v-1.21h-0.59v1.32
				c0,0.53,0.16,0.88,0.78,0.88c0.25,0,0.5-0.12,0.65-0.35h0.01v0.3h0.56v-2.14h-0.59L139.9,546.49L139.9,546.49z"/>
			<path class="st4" d="M141.96,545.31c-0.25,0-0.5,0.12-0.65,0.35h-0.01v-0.3h-0.56v2.14h0.59v-1.12c0-0.43,0.13-0.61,0.46-0.61
				c0.27,0,0.38,0.17,0.38,0.53v1.21h0.59v-1.32C142.74,545.66,142.58,545.31,141.96,545.31z"/>
			<path class="st4" d="M144.48,545.62L144.48,545.62c-0.14-0.21-0.39-0.32-0.64-0.32c-0.63,0-0.95,0.54-0.95,1.11
				c0,0.59,0.32,1.15,0.96,1.15c0.27,0,0.51-0.1,0.65-0.33h0.01v0.27h0.56v-2.96h-0.59L144.48,545.62L144.48,545.62z M143.99,547.12
				c-0.36,0-0.52-0.35-0.52-0.69c0-0.35,0.13-0.68,0.52-0.68c0.38,0,0.5,0.33,0.5,0.68C144.5,546.78,144.38,547.12,143.99,547.12z"
				/>
			<rect x="131.26" y="540.65" class="st4" width="0.64" height="2.91"/>
			<path class="st4" d="M132.7,542.46c0-0.43,0.13-0.61,0.45-0.61c0.27,0,0.37,0.17,0.37,0.52v1.19h0.58v-1.3
				c0-0.52-0.15-0.87-0.77-0.87c-0.25,0-0.5,0.12-0.64,0.35h-0.01v-0.28h-0.55v2.11h0.58L132.7,542.46L132.7,542.46z"/>
			<path class="st4" d="M135.84,543.3L135.84,543.3l0.01,0.27h0.55v-2.91h-0.58v1.06h0c-0.13-0.21-0.38-0.31-0.63-0.31
				c-0.62,0-0.94,0.53-0.94,1.09c0,0.58,0.31,1.13,0.95,1.13C135.46,543.62,135.7,543.53,135.84,543.3z M134.83,542.51
				c0-0.34,0.13-0.68,0.51-0.68c0.38,0,0.5,0.33,0.5,0.67s-0.12,0.68-0.5,0.68C134.98,543.19,134.83,542.84,134.83,542.51z"/>
			<path class="st4" d="M137.34,543.62c0.25,0,0.5-0.11,0.64-0.35h0.01v0.29h0.55v-2.11h-0.58v1.1c0,0.43-0.13,0.61-0.45,0.61
				c-0.27,0-0.37-0.17-0.37-0.52v-1.19h-0.58v1.29C136.57,543.27,136.72,543.62,137.34,543.62z"/>
			<path class="st4" d="M139.94,542.3c-0.33-0.08-0.66-0.11-0.66-0.31c0-0.17,0.19-0.2,0.32-0.2c0.21,0,0.38,0.06,0.4,0.28h0.55
				c-0.05-0.52-0.47-0.67-0.93-0.67c-0.45,0-0.92,0.14-0.92,0.67c0,0.37,0.34,0.49,0.67,0.56c0.41,0.09,0.66,0.15,0.66,0.33
				c0,0.2-0.21,0.27-0.38,0.27c-0.23,0-0.44-0.1-0.44-0.35h-0.55c0.02,0.56,0.5,0.74,0.99,0.74c0.48,0,0.96-0.18,0.96-0.74
				C140.61,542.5,140.28,542.38,139.94,542.3z"/>
			<path class="st4" d="M140.94,543.09c0,0.42,0.31,0.5,0.67,0.5c0.12,0,0.24,0,0.34-0.02v-0.45c-0.06,0.01-0.12,0.02-0.18,0.02
				c-0.2,0-0.25-0.05-0.25-0.25v-1.04h0.42v-0.39h-0.42v-0.63h-0.58v0.63h-0.35v0.39h0.35L140.94,543.09L140.94,543.09z"/>
			<path class="st4" d="M143.39,541.95l0.55,1.48c0.07,0.17-0.05,0.4-0.31,0.41c-0.01,0-0.02,0-0.03,0v0.54h0.06
				c0.35-0.02,0.66-0.13,0.81-0.53l0.88-2.41h-0.6l-0.46,1.44h-0.01l-0.47-1.47l-0.63-0.01c-0.21,0-0.45,0.16-0.55,0.43h-0.01v-0.39
				h-0.55v2.11h0.58v-0.95c0-0.37,0.15-0.67,0.57-0.67C143.26,541.94,143.33,541.94,143.39,541.95z"/>
			<path class="st4" d="M126.43,542.92h1.09l0.22,0.65h0.67l-1.09-2.92h-0.66l-1.11,2.92h0.65L126.43,542.92z M126.98,541.37
				L126.98,541.37l0.38,1.07h-0.75L126.98,541.37z"/>
			<path class="st4" d="M129,542.46c0-0.43,0.13-0.61,0.45-0.61c0.27,0,0.37,0.17,0.37,0.52v1.19h0.58v-1.3
				c0-0.52-0.15-0.87-0.77-0.87c-0.25,0-0.5,0.12-0.65,0.35h-0.01v-0.29h-0.55v2.11H129L129,542.46L129,542.46z"/>
		</g>
	</g>
</g>
</svg>
