<?xml version="1.0" encoding="utf-8"?>
<!-- Generator: Adobe Illustrator 23.0.0, SVG Export Plug-In . SVG Version: 6.00 Build 0)  -->
<svg version="1.1" id="Layer_1" xmlns="http://www.w3.org/2000/svg" xmlns:xlink="http://www.w3.org/1999/xlink" x="0px" y="0px"
	 viewBox="0 0 160 600" style="enable-background:new 0 0 160 600;" xml:space="preserve">
<style type="text/css">
	.st0{display:none;}
	.st1{display:inline;fill:#060866;}
	.st2{display:inline;}
	.st3{fill:#FFFFFF;}
	.st4{fill:#060866;}
</style>
<g class="st0">
	<polygon class="st1" points="140,186 140,167 133,167 133,147 119,147 119,127 10,127 10,147 10,167 10,186 10,212 147,212 
		147,186 	"/>
	<g class="st2">
		<g>
			<path class="st3" d="M19.06,138.6v6.4H16v-14h3.06v6.42L23.2,131h3.18v0.4l-4.36,6.46l1.76,3.1c0.84,1.46,1.16,1.64,1.96,1.64
				c0.22,0,0.56-0.1,0.98-0.34l1.12,2.2c-0.9,0.58-1.74,0.76-2.7,0.76c-1.72,0-3.04-1.08-3.94-2.84l-2.14-3.82V138.6z"/>
			<path class="st3" d="M28.32,134.74h2.98v1.4c0.86-1.2,1.94-1.62,3.18-1.62c2.88,0,3.66,2.3,3.66,4.9V145h-2.98v-5.52
				c0-1.42-0.52-2.5-1.9-2.5s-1.96,1.1-1.96,2.52v5.5h-2.98V134.74z"/>
			<path class="st3" d="M44.98,134.52c3,0,5.64,2.16,5.64,5.34c0,3.2-2.64,5.36-5.64,5.36c-2.98,0-5.64-2.14-5.64-5.36
				C39.34,136.66,42,134.52,44.98,134.52z M44.98,142.66c1.48,0,2.74-1.2,2.74-2.8c0-1.58-1.26-2.78-2.74-2.78
				c-1.46,0-2.74,1.18-2.74,2.78C42.24,141.48,43.52,142.66,44.98,142.66z"/>
			<path class="st3" d="M57.56,135.02h2.08l1.86,5.9l1.78-6.18h3.28l-0.8,2.34L62.9,145h-2.54l-1.76-5.82L56.84,145H54.3l-2.86-7.92
				l-0.8-2.34h3.28l1.78,6.18L57.56,135.02z"/>
			<path class="st3" d="M77.9,134.74h3.28l-6.64,14.94h-3l2.34-5.54l-4.22-9.4h3.36l2.44,6.42L77.9,134.74z"/>
			<path class="st3" d="M86.56,134.52c3,0,5.64,2.16,5.64,5.34c0,3.2-2.64,5.36-5.64,5.36c-2.98,0-5.64-2.14-5.64-5.36
				C80.92,136.66,83.58,134.52,86.56,134.52z M86.56,142.66c1.48,0,2.74-1.2,2.74-2.8c0-1.58-1.26-2.78-2.74-2.78
				c-1.46,0-2.74,1.18-2.74,2.78C83.82,141.48,85.1,142.66,86.56,142.66z"/>
			<path class="st3" d="M103.22,145h-2.98v-1.4c-0.86,1.2-1.94,1.62-3.18,1.62c-2.88,0-3.66-2.3-3.66-4.9v-5.58h2.98v5.52
				c0,1.42,0.52,2.5,1.9,2.5c1.38,0,1.96-1.1,1.96-2.52v-5.5h2.98V145z"/>
			<path class="st3" d="M108.1,136.98c0.34-1.86,1.92-2.46,2.82-2.46c0.34,0,0.44,0.02,0.76,0.08v2.94
				c-0.42-0.1-0.96-0.14-1.26-0.14c-1.12,0-2.24,0.66-2.24,2.02V145h-2.98v-10.26h2.9V136.98z"/>
		</g>
		<g>
			<path class="st3" d="M18.16,162.06c0.3,1.18,1.34,1.54,2.16,1.54c0.66,0,1.34-0.26,1.34-0.78c0-0.34-0.2-0.58-0.76-0.78
				l-1.8-0.76c-2.44-0.86-2.56-2.48-2.56-2.94c0-2.06,1.82-3.14,4.02-3.14c1.18,0,2.74,0.32,3.7,2.16l-2.3,1.06
				c-0.26-0.82-1-0.98-1.46-0.98c-0.56,0-1.14,0.32-1.14,0.84c0,0.44,0.44,0.68,0.96,0.88l1.54,0.6c2.42,0.7,2.64,2.28,2.64,2.96
				c0,2.1-1.94,3.18-4.2,3.18c-1.52,0-3.6-0.48-4.3-2.62L18.16,162.06z"/>
			<path class="st3" d="M35.52,165.68h-2.98v-1.4c-0.86,1.2-1.94,1.62-3.18,1.62c-2.88,0-3.66-2.3-3.66-4.9v-5.58h2.98v5.52
				c0,1.42,0.52,2.5,1.9,2.5c1.38,0,1.96-1.1,1.96-2.52v-5.5h2.98V165.68z"/>
			<path class="st3" d="M37.5,170.36v-14.94h2.98v1.5c0.74-1.06,1.72-1.72,3.22-1.72c3.12,0,5,2.4,5,5.4c0,2.88-1.74,5.3-4.94,5.3
				c-1.38,0-2.58-0.68-3.28-1.62v6.08H37.5z M43.08,157.62c-1.46,0-2.68,0.94-2.68,2.8c0,1.9,1.14,3.06,2.76,3.06
				c1.64,0,2.56-1.32,2.56-2.9C45.72,158.94,44.72,157.62,43.08,157.62z"/>
			<path class="st3" d="M60.08,163.88c-1.46,1.6-3.4,2.02-4.78,2.02c-3.8,0-5.88-2.38-5.88-5.3c0-3.02,2.36-5.4,5.66-5.4
				c2.84,0,5.56,1.96,5.56,6.04h-8.26c0.06,1.28,1.24,2.22,3.14,2.22c1.06,0,2.12-0.54,2.84-1.22L60.08,163.88z M52.44,159.44h5.14
				c-0.2-1.32-1.54-1.82-2.54-1.82C54.08,157.62,52.8,158.06,52.44,159.44z"/>
			<path class="st3" d="M64.68,157.66c0.34-1.86,1.92-2.46,2.82-2.46c0.34,0,0.44,0.02,0.76,0.08v2.94
				c-0.42-0.1-0.96-0.14-1.26-0.14c-1.12,0-2.24,0.66-2.24,2.02v5.58h-2.98v-10.26h2.9V157.66z"/>
			<path class="st3" d="M76.7,155.5H79v2.26h-2.3v7.92h-2.98v-7.92h-1.44v-2.26h1.44v-0.68c0-2.98,1.76-3.82,3.56-3.82
				c2.42,0,3.28,1.54,3.28,3.06c0,0.1-0.04,0.44-0.1,0.56h-2.3c0.06-0.06,0.08-0.26,0.08-0.34c0-0.48-0.2-0.9-0.78-0.9
				c-0.58,0-0.76,0.52-0.76,0.96V155.5z"/>
			<path class="st3" d="M90.1,165.68h-2.98v-1.4c-0.86,1.2-1.94,1.62-3.18,1.62c-2.88,0-3.66-2.3-3.66-4.9v-5.58h2.98v5.52
				c0,1.42,0.52,2.5,1.9,2.5c1.38,0,1.96-1.1,1.96-2.52v-5.5h2.98V165.68z"/>
			<path class="st3" d="M92.08,155.42h2.98v1.4c0.86-1.2,1.94-1.62,3.18-1.62c2.88,0,3.66,2.3,3.66,4.9v5.58h-2.98v-5.52
				c0-1.42-0.52-2.5-1.9-2.5c-1.38,0-1.96,1.1-1.96,2.52v5.5h-2.98V155.42z"/>
			<path class="st3" d="M114.34,151.22v14.46h-2.98v-1.5c-0.74,1.06-1.72,1.72-3.22,1.72c-3.12,0-5-2.4-5-5.4
				c0-2.88,1.74-5.3,4.94-5.3c1.38,0,2.58,0.68,3.28,1.62v-5.6H114.34z M108.76,163.48c1.46,0,2.68-0.94,2.68-2.8
				c0-1.9-1.14-3.06-2.76-3.06c-1.64,0-2.56,1.32-2.56,2.9C106.12,162.16,107.12,163.48,108.76,163.48z"/>
			<path class="st3" d="M116.08,156.1c1-0.36,1.46-0.94,1.46-1.8c-0.88,0.04-1.52-0.76-1.54-1.46c-0.04-0.86,0.54-1.62,1.7-1.62
				c1.36,0,1.68,1.3,1.68,1.94c0,1.72-0.76,3.44-2.64,4.04L116.08,156.1z"/>
			<path class="st3" d="M121.7,162.06c0.3,1.18,1.34,1.54,2.16,1.54c0.66,0,1.34-0.26,1.34-0.78c0-0.34-0.2-0.58-0.76-0.78
				l-1.8-0.76c-2.44-0.86-2.56-2.48-2.56-2.94c0-2.06,1.82-3.14,4.02-3.14c1.18,0,2.74,0.32,3.7,2.16l-2.3,1.06
				c-0.26-0.82-1-0.98-1.46-0.98c-0.56,0-1.14,0.32-1.14,0.84c0,0.44,0.44,0.68,0.96,0.88l1.54,0.6c2.42,0.7,2.64,2.28,2.64,2.96
				c0,2.1-1.94,3.18-4.2,3.18c-1.52,0-3.6-0.48-4.3-2.62L121.7,162.06z"/>
		</g>
		<g>
			<path class="st3" d="M16,174.42h2.98v1.4c0.86-1.2,1.94-1.62,3.18-1.62c2.88,0,3.66,2.3,3.66,4.9v5.58h-2.98v-5.52
				c0-1.42-0.52-2.5-1.9-2.5s-1.96,1.1-1.96,2.52v5.5H16V174.42z"/>
			<path class="st3" d="M38.26,174.42v10.26h-2.98v-1.5c-0.74,1.06-1.72,1.72-3.22,1.72c-3.12,0-5-2.4-5-5.4
				c0-2.88,1.74-5.3,4.94-5.3c1.38,0,2.58,0.68,3.28,1.62v-1.4H38.26z M32.68,182.48c1.46,0,2.68-0.94,2.68-2.8
				c0-1.9-1.14-3.06-2.76-3.06c-1.64,0-2.56,1.32-2.56,2.9C30.04,181.16,31.04,182.48,32.68,182.48z"/>
			<path class="st3" d="M49.58,179.18v5.5h-2.96v-5.52c0-1.4-0.4-2.5-1.72-2.5c-1.3,0-1.7,1.14-1.7,2.52v5.5h-2.98v-10.26h2.98v1.4
				c0.66-1.02,1.62-1.62,2.74-1.62c1.56,0,2.62,0.68,3.14,1.72c0.78-1.5,2.26-1.72,3.24-1.72c2.88,0,3.66,2.3,3.66,4.9v5.58H53
				v-5.52c0-1.4-0.4-2.5-1.72-2.5C49.98,176.66,49.58,177.8,49.58,179.18z"/>
			<path class="st3" d="M67.84,182.88c-1.46,1.6-3.4,2.02-4.78,2.02c-3.8,0-5.88-2.38-5.88-5.3c0-3.02,2.36-5.4,5.66-5.4
				c2.84,0,5.56,1.96,5.56,6.04h-8.26c0.06,1.28,1.24,2.22,3.14,2.22c1.06,0,2.12-0.54,2.84-1.22L67.84,182.88z M60.2,178.44h5.14
				c-0.2-1.32-1.54-1.82-2.54-1.82C61.84,176.62,60.56,177.06,60.2,178.44z"/>
			<path class="st3" d="M77.54,174.5h2.3v2.26h-2.3v7.92h-2.98v-7.92h-1.44v-2.26h1.44v-0.68c0-2.98,1.76-3.82,3.56-3.82
				c2.42,0,3.28,1.54,3.28,3.06c0,0.1-0.04,0.44-0.1,0.56H79c0.06-0.06,0.08-0.26,0.08-0.34c0-0.48-0.2-0.9-0.78-0.9
				c-0.58,0-0.76,0.52-0.76,0.96V174.5z"/>
			<path class="st3" d="M85.88,174.2c3,0,5.64,2.16,5.64,5.34c0,3.2-2.64,5.36-5.64,5.36c-2.98,0-5.64-2.14-5.64-5.36
				C80.24,176.34,82.9,174.2,85.88,174.2z M85.88,182.34c1.48,0,2.74-1.2,2.74-2.8c0-1.58-1.26-2.78-2.74-2.78
				c-1.46,0-2.74,1.18-2.74,2.78C83.14,181.16,84.42,182.34,85.88,182.34z"/>
			<path class="st3" d="M95.74,176.66c0.34-1.86,1.92-2.46,2.82-2.46c0.34,0,0.44,0.02,0.76,0.08v2.94
				c-0.42-0.1-0.96-0.14-1.26-0.14c-1.12,0-2.24,0.66-2.24,2.02v5.58h-2.98v-10.26h2.9V176.66z"/>
			<path class="st3" d="M107.72,174.42h2.84v2.34h-2.84v4.8c0,0.44,0.18,0.9,0.76,0.9c0.58,0,0.78-0.48,0.78-0.96
				c0-0.3-0.08-0.72-0.14-0.88h2.36c0.18,0.38,0.24,0.86,0.24,1.22c0,1.52-1,3.06-3.42,3.06c-1.8,0-3.56-0.64-3.56-3.62v-4.52h-1.54
				v-2.34h1.76l0.46-2.52h2.3V174.42z"/>
			<path class="st3" d="M112.62,170.22h2.98v5.6c0.86-1.2,1.94-1.62,3.18-1.62c2.88,0,3.66,2.3,3.66,4.9v5.58h-2.98v-5.52
				c0-1.42-0.52-2.5-1.9-2.5c-1.38,0-1.96,1.1-1.96,2.52v5.5h-2.98V170.22z"/>
			<path class="st3" d="M134.3,182.88c-1.46,1.6-3.4,2.02-4.78,2.02c-3.8,0-5.88-2.38-5.88-5.3c0-3.02,2.36-5.4,5.66-5.4
				c2.84,0,5.56,1.96,5.56,6.04h-8.26c0.06,1.28,1.24,2.22,3.14,2.22c1.06,0,2.12-0.54,2.84-1.22L134.3,182.88z M126.66,178.44h5.14
				c-0.2-1.32-1.54-1.82-2.54-1.82C128.3,176.62,127.02,177.06,126.66,178.44z"/>
		</g>
		<g>
			<path class="st3" d="M18.9,194.66c0.34-1.86,1.92-2.46,2.82-2.46c0.34,0,0.44,0.02,0.76,0.08v2.94c-0.42-0.1-0.96-0.14-1.26-0.14
				c-1.12,0-2.24,0.66-2.24,2.02v5.58H16v-10.26h2.9V194.66z"/>
			<path class="st3" d="M24.98,188c1.06,0,1.9,0.7,1.9,1.7c0,0.98-0.84,1.66-1.9,1.66c-1.08,0-1.88-0.68-1.88-1.66
				C23.1,188.7,23.9,188,24.98,188z M23.46,202.68v-10.26h2.98v10.26H23.46z"/>
			<path class="st3" d="M39.04,201.96c0,4.04-2.64,5.62-5.56,5.62c-2.28,0-3.82-0.58-4.86-1.42l1.18-2.32
				c0.6,0.52,1.94,1.16,3.08,1.16c1.54,0,3.18-0.46,3.18-2.7v-1.12c-0.74,1.06-1.72,1.72-3.22,1.72c-3.12,0-5-2.4-5-5.4
				c0-2.88,1.74-5.3,4.94-5.3c1.38,0,2.58,0.68,3.28,1.62v-1.4h2.98V201.96z M33.46,200.48c1.46,0,2.68-0.94,2.68-2.8
				c0-1.9-1.14-3.06-2.76-3.06c-1.64,0-2.56,1.32-2.56,2.9C30.82,199.16,31.82,200.48,33.46,200.48z"/>
			<path class="st3" d="M41.04,188.22h2.98v5.6c0.86-1.2,1.94-1.62,3.18-1.62c2.88,0,3.66,2.3,3.66,4.9v5.58h-2.98v-5.52
				c0-1.42-0.52-2.5-1.9-2.5s-1.96,1.1-1.96,2.52v5.5h-2.98V188.22z"/>
			<path class="st3" d="M56.26,192.42h2.84v2.34h-2.84v4.8c0,0.44,0.18,0.9,0.76,0.9c0.58,0,0.78-0.48,0.78-0.96
				c0-0.3-0.08-0.72-0.14-0.88h2.36c0.18,0.38,0.24,0.86,0.24,1.22c0,1.52-1,3.06-3.42,3.06c-1.8,0-3.56-0.64-3.56-3.62v-4.52h-1.54
				v-2.34h1.76l0.46-2.52h2.3V192.42z"/>
			<path class="st3" d="M68.32,194.66c0.34-1.86,1.92-2.46,2.82-2.46c0.34,0,0.44,0.02,0.76,0.08v2.94
				c-0.42-0.1-0.96-0.14-1.26-0.14c-1.12,0-2.24,0.66-2.24,2.02v5.58h-2.98v-10.26h2.9V194.66z"/>
			<path class="st3" d="M82.74,200.88c-1.46,1.6-3.4,2.02-4.78,2.02c-3.8,0-5.88-2.38-5.88-5.3c0-3.02,2.36-5.4,5.66-5.4
				c2.84,0,5.56,1.96,5.56,6.04h-8.26c0.06,1.28,1.24,2.22,3.14,2.22c1.06,0,2.12-0.54,2.84-1.22L82.74,200.88z M75.1,196.44h5.14
				c-0.2-1.32-1.54-1.82-2.54-1.82C76.74,194.62,75.46,195.06,75.1,196.44z"/>
			<path class="st3" d="M95.04,192.42v10.26h-2.98v-1.5c-0.74,1.06-1.72,1.72-3.22,1.72c-3.12,0-5-2.4-5-5.4
				c0-2.88,1.74-5.3,4.94-5.3c1.38,0,2.58,0.68,3.28,1.62v-1.4H95.04z M89.46,200.48c1.46,0,2.68-0.94,2.68-2.8
				c0-1.9-1.14-3.06-2.76-3.06c-1.64,0-2.56,1.32-2.56,2.9C86.82,199.16,87.82,200.48,89.46,200.48z"/>
			<path class="st3" d="M98.36,199.06c0.3,1.18,1.34,1.54,2.16,1.54c0.66,0,1.34-0.26,1.34-0.78c0-0.34-0.2-0.58-0.76-0.78
				l-1.8-0.76c-2.44-0.86-2.56-2.48-2.56-2.94c0-2.06,1.82-3.14,4.02-3.14c1.18,0,2.74,0.32,3.7,2.16l-2.3,1.06
				c-0.26-0.82-1-0.98-1.46-0.98c-0.56,0-1.14,0.32-1.14,0.84c0,0.44,0.44,0.68,0.96,0.88l1.54,0.6c2.42,0.7,2.64,2.28,2.64,2.96
				c0,2.1-1.94,3.18-4.2,3.18c-1.52,0-3.6-0.48-4.3-2.62L98.36,199.06z"/>
			<path class="st3" d="M111.02,192.2c3,0,5.64,2.16,5.64,5.34c0,3.2-2.64,5.36-5.64,5.36c-2.98,0-5.64-2.14-5.64-5.36
				C105.38,194.34,108.04,192.2,111.02,192.2z M111.02,200.34c1.48,0,2.74-1.2,2.74-2.8c0-1.58-1.26-2.78-2.74-2.78
				c-1.46,0-2.74,1.18-2.74,2.78C108.28,199.16,109.56,200.34,111.02,200.34z"/>
			<path class="st3" d="M117.98,192.42h2.98v1.4c0.86-1.2,1.94-1.62,3.18-1.62c2.88,0,3.66,2.3,3.66,4.9v5.58h-2.98v-5.52
				c0-1.42-0.52-2.5-1.9-2.5c-1.38,0-1.96,1.1-1.96,2.52v5.5h-2.98V192.42z"/>
			<path class="st3" d="M131,199.06c0.3,1.18,1.34,1.54,2.16,1.54c0.66,0,1.34-0.26,1.34-0.78c0-0.34-0.2-0.58-0.76-0.78l-1.8-0.76
				c-2.44-0.86-2.56-2.48-2.56-2.94c0-2.06,1.82-3.14,4.02-3.14c1.18,0,2.74,0.32,3.7,2.16l-2.3,1.06c-0.26-0.82-1-0.98-1.46-0.98
				c-0.56,0-1.14,0.32-1.14,0.84c0,0.44,0.44,0.68,0.96,0.88l1.54,0.6c2.42,0.7,2.64,2.28,2.64,2.96c0,2.1-1.94,3.18-4.2,3.18
				c-1.52,0-3.6-0.48-4.3-2.62L131,199.06z"/>
			<path class="st3" d="M137.86,204.82c1-0.36,1.98-1.44,1.98-2.3c-0.88,0.04-1.52-0.76-1.54-1.46c-0.04-0.86,0.54-1.62,1.7-1.62
				c1.36,0,1.68,1.3,1.68,1.94c0,1.72-1.28,3.94-3.16,4.54L137.86,204.82z"/>
		</g>
	</g>
</g>
<g class="st0">
	<polygon class="st1" points="123,221 123,203 43,203 43,221 10,221 10,244 133,244 133,221 	"/>
	<g class="st2">
		<g>
			<path class="st3" d="M48,211.2h2.98v1.4c0.86-1.2,1.94-1.62,3.18-1.62c2.88,0,3.66,2.3,3.66,4.9v5.58h-2.98v-5.52
				c0-1.42-0.52-2.5-1.9-2.5s-1.96,1.1-1.96,2.52v5.5H48V211.2z"/>
			<path class="st3" d="M64.66,210.98c3,0,5.64,2.16,5.64,5.34c0,3.2-2.64,5.36-5.64,5.36c-2.98,0-5.64-2.14-5.64-5.36
				C59.02,213.12,61.68,210.98,64.66,210.98z M64.66,219.12c1.48,0,2.74-1.2,2.74-2.8c0-1.58-1.26-2.78-2.74-2.78
				c-1.46,0-2.74,1.18-2.74,2.78C61.92,217.94,63.2,219.12,64.66,219.12z"/>
			<path class="st3" d="M75.12,211.2h2.84v2.34h-2.84v4.8c0,0.44,0.18,0.9,0.76,0.9c0.58,0,0.78-0.48,0.78-0.96
				c0-0.3-0.08-0.72-0.14-0.88h2.36c0.18,0.38,0.24,0.86,0.24,1.22c0,1.52-1,3.06-3.42,3.06c-1.8,0-3.56-0.64-3.56-3.62v-4.52H70.6
				v-2.34h1.76l0.46-2.52h2.3V211.2z"/>
			<path class="st3" d="M87.96,211.2h2.84v2.34h-2.84v4.8c0,0.44,0.18,0.9,0.76,0.9c0.58,0,0.78-0.48,0.78-0.96
				c0-0.3-0.08-0.72-0.14-0.88h2.36c0.18,0.38,0.24,0.86,0.24,1.22c0,1.52-1,3.06-3.42,3.06c-1.8,0-3.56-0.64-3.56-3.62v-4.52h-1.54
				v-2.34h1.76l0.46-2.52h2.3V211.2z"/>
			<path class="st3" d="M92.86,207h2.98v5.6c0.86-1.2,1.94-1.62,3.18-1.62c2.88,0,3.66,2.3,3.66,4.9v5.58H99.7v-5.52
				c0-1.42-0.52-2.5-1.9-2.5c-1.38,0-1.96,1.1-1.96,2.52v5.5h-2.98V207z"/>
			<path class="st3" d="M114.54,219.66c-1.46,1.6-3.4,2.02-4.78,2.02c-3.8,0-5.88-2.38-5.88-5.3c0-3.02,2.36-5.4,5.66-5.4
				c2.84,0,5.56,1.96,5.56,6.04h-8.26c0.06,1.28,1.24,2.22,3.14,2.22c1.06,0,2.12-0.54,2.84-1.22L114.54,219.66z M106.9,215.22h5.14
				c-0.2-1.32-1.54-1.82-2.54-1.82C108.54,213.4,107.26,213.84,106.9,215.22z"/>
		</g>
		<g>
			<path class="st3" d="M22.92,227.5H25l1.86,5.9l1.78-6.18h3.28l-0.8,2.34l-2.86,7.92h-2.54l-1.76-5.82l-1.76,5.82h-2.54
				l-2.86-7.92l-0.8-2.34h3.28l1.78,6.18L22.92,227.5z"/>
			<path class="st3" d="M35.84,229.46c0.34-1.86,1.92-2.46,2.82-2.46c0.34,0,0.44,0.02,0.76,0.08v2.94
				c-0.42-0.1-0.96-0.14-1.26-0.14c-1.12,0-2.24,0.66-2.24,2.02v5.58h-2.98v-10.26h2.9V229.46z"/>
			<path class="st3" d="M45.24,227c3,0,5.64,2.16,5.64,5.34c0,3.2-2.64,5.36-5.64,5.36c-2.98,0-5.64-2.14-5.64-5.36
				C39.6,229.14,42.26,227,45.24,227z M45.24,235.14c1.48,0,2.74-1.2,2.74-2.8c0-1.58-1.26-2.78-2.74-2.78
				c-1.46,0-2.74,1.18-2.74,2.78C42.5,233.96,43.78,235.14,45.24,235.14z"/>
			<path class="st3" d="M52.2,227.22h2.98v1.4c0.86-1.2,1.94-1.62,3.18-1.62c2.88,0,3.66,2.3,3.66,4.9v5.58h-2.98v-5.52
				c0-1.42-0.52-2.5-1.9-2.5c-1.38,0-1.96,1.1-1.96,2.52v5.5H52.2V227.22z"/>
			<path class="st3" d="M74.46,236.76c0,4.04-2.64,5.62-5.56,5.62c-2.28,0-3.82-0.58-4.86-1.42l1.18-2.32
				c0.6,0.52,1.94,1.16,3.08,1.16c1.54,0,3.18-0.46,3.18-2.7v-1.12c-0.74,1.06-1.72,1.72-3.22,1.72c-3.12,0-5-2.4-5-5.4
				c0-2.88,1.74-5.3,4.94-5.3c1.38,0,2.58,0.68,3.28,1.62v-1.4h2.98V236.76z M68.88,235.28c1.46,0,2.68-0.94,2.68-2.8
				c0-1.9-1.14-3.06-2.76-3.06c-1.64,0-2.56,1.32-2.56,2.9C66.24,233.96,67.24,235.28,68.88,235.28z"/>
			<path class="st3" d="M85.72,227c3,0,5.64,2.16,5.64,5.34c0,3.2-2.64,5.36-5.64,5.36c-2.98,0-5.64-2.14-5.64-5.36
				C80.08,229.14,82.74,227,85.72,227z M85.72,235.14c1.48,0,2.74-1.2,2.74-2.8c0-1.58-1.26-2.78-2.74-2.78
				c-1.46,0-2.74,1.18-2.74,2.78C82.98,233.96,84.26,235.14,85.72,235.14z"/>
			<path class="st3" d="M92.68,227.22h2.98v1.4c0.86-1.2,1.94-1.62,3.18-1.62c2.88,0,3.66,2.3,3.66,4.9v5.58h-2.98v-5.52
				c0-1.42-0.52-2.5-1.9-2.5c-1.38,0-1.96,1.1-1.96,2.52v5.5h-2.98V227.22z"/>
			<path class="st3" d="M114.36,235.68c-1.46,1.6-3.4,2.02-4.78,2.02c-3.8,0-5.88-2.38-5.88-5.3c0-3.02,2.36-5.4,5.66-5.4
				c2.84,0,5.56,1.96,5.56,6.04h-8.26c0.06,1.28,1.24,2.22,3.14,2.22c1.06,0,2.12-0.54,2.84-1.22L114.36,235.68z M106.72,231.24
				h5.14c-0.2-1.32-1.54-1.82-2.54-1.82C108.36,229.42,107.08,229.86,106.72,231.24z"/>
			<path class="st3" d="M117.42,233.86c0.3,1.18,1.34,1.54,2.16,1.54c0.66,0,1.34-0.26,1.34-0.78c0-0.34-0.2-0.58-0.76-0.78
				l-1.8-0.76c-2.44-0.86-2.56-2.48-2.56-2.94c0-2.06,1.82-3.14,4.02-3.14c1.18,0,2.74,0.32,3.7,2.16l-2.3,1.06
				c-0.26-0.82-1-0.98-1.46-0.98c-0.56,0-1.14,0.32-1.14,0.84c0,0.44,0.44,0.68,0.96,0.88l1.54,0.6c2.42,0.7,2.64,2.28,2.64,2.96
				c0,2.1-1.94,3.18-4.2,3.18c-1.52,0-3.6-0.48-4.3-2.62L117.42,233.86z"/>
			<path class="st3" d="M126.58,234.22c1.06,0,1.9,0.76,1.9,1.76c0,0.98-0.84,1.72-1.9,1.72c-1.08,0-1.88-0.74-1.88-1.72
				C124.7,234.98,125.5,234.22,126.58,234.22z"/>
		</g>
	</g>
</g>
<g>
	<polygon class="st4" points="135,152 135,128 10,128 10,152 10,166 10,185 10,208 121,208 121,185 116,185 116,166 106,166 
		106,152 	"/>
	<g>
		<path class="st3" d="M22.94,136.92l3.32-5.46h3.6v0.4l-5.38,7.86v5.74h-3.1v-5.7l-5.38-7.9v-0.4h3.6l3.32,5.46H22.94z"/>
		<path class="st3" d="M27.94,140.32c0-0.8,0.15-1.53,0.46-2.18s0.72-1.22,1.24-1.69c0.52-0.47,1.12-0.84,1.8-1.09
			c0.68-0.25,1.39-0.38,2.14-0.38c0.75,0,1.46,0.13,2.14,0.39c0.68,0.26,1.28,0.62,1.8,1.09c0.52,0.47,0.93,1.03,1.24,1.68
			s0.46,1.38,0.46,2.18c0,0.8-0.15,1.53-0.46,2.19c-0.31,0.66-0.72,1.22-1.24,1.69c-0.52,0.47-1.12,0.83-1.8,1.09
			c-0.68,0.26-1.39,0.39-2.14,0.39c-0.75,0-1.46-0.13-2.14-0.38c-0.68-0.25-1.28-0.62-1.8-1.09c-0.52-0.47-0.93-1.04-1.24-1.7
			C28.09,141.85,27.94,141.12,27.94,140.32z M30.84,140.32c0,0.4,0.07,0.77,0.22,1.12s0.35,0.64,0.6,0.89
			c0.25,0.25,0.55,0.44,0.88,0.58c0.33,0.14,0.68,0.21,1.04,0.21c0.37,0,0.72-0.07,1.05-0.21c0.33-0.14,0.62-0.34,0.87-0.59
			c0.25-0.25,0.45-0.55,0.6-0.89c0.15-0.34,0.22-0.71,0.22-1.11s-0.07-0.77-0.22-1.1c-0.15-0.33-0.35-0.63-0.6-0.88
			c-0.25-0.25-0.54-0.45-0.87-0.59c-0.33-0.14-0.68-0.21-1.05-0.21c-0.36,0-0.71,0.07-1.04,0.21c-0.33,0.14-0.63,0.33-0.88,0.58
			c-0.25,0.25-0.45,0.54-0.6,0.88S30.84,139.92,30.84,140.32z"/>
		<path class="st3" d="M50.24,145.46h-2.98v-1.4c-0.43,0.6-0.91,1.02-1.44,1.26c-0.53,0.24-1.11,0.36-1.74,0.36
			c-0.72,0-1.32-0.13-1.79-0.4c-0.47-0.27-0.85-0.62-1.12-1.07s-0.47-0.97-0.58-1.56s-0.17-1.22-0.17-1.87v-5.58h2.98v5.52
			c0,0.36,0.03,0.69,0.1,0.99c0.07,0.3,0.18,0.56,0.33,0.79c0.15,0.23,0.35,0.4,0.59,0.53c0.24,0.13,0.53,0.19,0.88,0.19
			s0.64-0.06,0.89-0.19c0.25-0.13,0.45-0.3,0.61-0.53c0.16-0.23,0.28-0.49,0.35-0.8s0.11-0.64,0.11-1v-5.5h2.98V145.46z"/>
		<path class="st3" d="M67.1,131v14.46h-2.98v-1.5c-0.37,0.53-0.81,0.95-1.32,1.26c-0.51,0.31-1.14,0.46-1.9,0.46
			c-0.79,0-1.49-0.14-2.1-0.42c-0.61-0.28-1.14-0.66-1.57-1.15c-0.43-0.49-0.76-1.06-0.99-1.72c-0.23-0.66-0.34-1.36-0.34-2.11
			c0-0.72,0.11-1.4,0.32-2.04c0.21-0.64,0.53-1.2,0.95-1.69c0.42-0.49,0.94-0.87,1.55-1.15c0.61-0.28,1.32-0.42,2.12-0.42
			c0.69,0,1.33,0.15,1.9,0.46c0.57,0.31,1.03,0.69,1.38,1.16V131H67.1z M58.88,140.3c0,0.41,0.06,0.8,0.18,1.16s0.29,0.67,0.52,0.94
			c0.23,0.27,0.5,0.48,0.83,0.63c0.33,0.15,0.7,0.23,1.11,0.23c0.36,0,0.7-0.06,1.03-0.18c0.33-0.12,0.61-0.3,0.86-0.53
			c0.25-0.23,0.44-0.52,0.58-0.87c0.14-0.35,0.21-0.75,0.21-1.22c0-0.96-0.26-1.71-0.77-2.25c-0.51-0.54-1.18-0.81-1.99-0.81
			c-0.41,0-0.78,0.08-1.09,0.23c-0.31,0.15-0.58,0.36-0.8,0.63c-0.22,0.27-0.39,0.57-0.5,0.92S58.88,139.9,58.88,140.3z"/>
		<path class="st3" d="M79.1,143.66c-0.36,0.4-0.75,0.73-1.17,0.99c-0.42,0.26-0.84,0.47-1.26,0.62s-0.83,0.26-1.23,0.32
			c-0.4,0.06-0.77,0.09-1.12,0.09c-0.95,0-1.79-0.14-2.52-0.42c-0.73-0.28-1.35-0.66-1.85-1.14s-0.88-1.04-1.13-1.68
			c-0.25-0.64-0.38-1.33-0.38-2.06c0-0.76,0.14-1.47,0.42-2.12c0.28-0.65,0.67-1.22,1.17-1.71c0.5-0.49,1.1-0.87,1.79-1.15
			c0.69-0.28,1.45-0.42,2.28-0.42c0.71,0,1.39,0.12,2.06,0.37c0.67,0.25,1.26,0.62,1.78,1.12c0.52,0.5,0.94,1.13,1.25,1.89
			c0.31,0.76,0.47,1.65,0.47,2.66H71.4c0.03,0.64,0.32,1.17,0.87,1.59c0.55,0.42,1.31,0.63,2.27,0.63c0.53,0,1.05-0.12,1.55-0.35
			s0.93-0.52,1.29-0.87L79.1,143.66z M74.06,137.4c-0.24,0-0.49,0.03-0.76,0.09c-0.27,0.06-0.52,0.16-0.76,0.3s-0.46,0.33-0.65,0.56
			s-0.34,0.52-0.43,0.87h5.14c-0.05-0.33-0.17-0.61-0.34-0.84c-0.17-0.23-0.38-0.41-0.63-0.56c-0.25-0.15-0.51-0.25-0.78-0.32
			C74.58,137.43,74.31,137.4,74.06,137.4z"/>
		<path class="st3" d="M82.16,141.84c0.08,0.29,0.2,0.54,0.35,0.74c0.15,0.2,0.33,0.36,0.53,0.48c0.2,0.12,0.41,0.2,0.64,0.25
			s0.44,0.07,0.64,0.07c0.33,0,0.64-0.06,0.92-0.19c0.28-0.13,0.42-0.32,0.42-0.59c0-0.17-0.06-0.32-0.17-0.44
			c-0.11-0.12-0.31-0.23-0.59-0.34l-1.8-0.76c-0.61-0.21-1.09-0.47-1.43-0.76c-0.34-0.29-0.59-0.58-0.76-0.86s-0.27-0.54-0.31-0.78
			c-0.04-0.24-0.06-0.42-0.06-0.54c0-0.52,0.11-0.97,0.32-1.36c0.21-0.39,0.5-0.71,0.87-0.98c0.37-0.27,0.79-0.47,1.28-0.6
			c0.49-0.13,1-0.2,1.55-0.2c0.29,0,0.61,0.03,0.94,0.08c0.33,0.05,0.66,0.16,0.99,0.31c0.33,0.15,0.64,0.37,0.95,0.66
			c0.31,0.29,0.58,0.66,0.82,1.11l-2.3,1.06c-0.07-0.2-0.16-0.37-0.27-0.5s-0.24-0.23-0.38-0.3c-0.14-0.07-0.28-0.11-0.42-0.14
			c-0.14-0.03-0.27-0.04-0.39-0.04c-0.28,0-0.54,0.07-0.78,0.22c-0.24,0.15-0.36,0.35-0.36,0.62c0,0.23,0.09,0.4,0.28,0.53
			c0.19,0.13,0.41,0.24,0.68,0.35l1.54,0.6c0.6,0.17,1.08,0.39,1.43,0.66c0.35,0.27,0.62,0.54,0.8,0.83
			c0.18,0.29,0.29,0.56,0.34,0.82c0.05,0.26,0.07,0.48,0.07,0.65c0,0.52-0.11,0.98-0.34,1.38s-0.53,0.73-0.91,1
			c-0.38,0.27-0.83,0.47-1.34,0.6c-0.51,0.13-1.05,0.2-1.61,0.2c-0.39,0-0.79-0.04-1.22-0.11s-0.84-0.21-1.24-0.4
			c-0.4-0.19-0.76-0.46-1.09-0.8c-0.33-0.34-0.58-0.78-0.75-1.31L82.16,141.84z"/>
		<path class="st3" d="M99.84,143.66c-0.36,0.4-0.75,0.73-1.17,0.99c-0.42,0.26-0.84,0.47-1.26,0.62s-0.83,0.26-1.23,0.32
			c-0.4,0.06-0.77,0.09-1.12,0.09c-0.95,0-1.79-0.14-2.52-0.42c-0.73-0.28-1.35-0.66-1.85-1.14s-0.88-1.04-1.13-1.68
			c-0.25-0.64-0.38-1.33-0.38-2.06c0-0.76,0.14-1.47,0.42-2.12c0.28-0.65,0.67-1.22,1.17-1.71c0.5-0.49,1.1-0.87,1.79-1.15
			c0.69-0.28,1.45-0.42,2.28-0.42c0.71,0,1.39,0.12,2.06,0.37c0.67,0.25,1.26,0.62,1.78,1.12c0.52,0.5,0.94,1.13,1.25,1.89
			c0.31,0.76,0.47,1.65,0.47,2.66h-8.26c0.03,0.64,0.32,1.17,0.87,1.59c0.55,0.42,1.31,0.63,2.27,0.63c0.53,0,1.05-0.12,1.55-0.35
			s0.93-0.52,1.29-0.87L99.84,143.66z M94.8,137.4c-0.24,0-0.49,0.03-0.76,0.09c-0.27,0.06-0.52,0.16-0.76,0.3s-0.46,0.33-0.65,0.56
			s-0.34,0.52-0.43,0.87h5.14c-0.05-0.33-0.17-0.61-0.34-0.84c-0.17-0.23-0.38-0.41-0.63-0.56c-0.25-0.15-0.51-0.25-0.78-0.32
			C95.32,137.43,95.05,137.4,94.8,137.4z"/>
		<path class="st3" d="M104.44,137.44c0.08-0.47,0.23-0.86,0.45-1.17c0.22-0.31,0.47-0.57,0.75-0.76c0.28-0.19,0.56-0.33,0.85-0.41
			c0.29-0.08,0.54-0.12,0.77-0.12c0.17,0,0.3,0.01,0.39,0.02s0.21,0.03,0.37,0.06V138c-0.21-0.05-0.44-0.09-0.68-0.11
			s-0.43-0.03-0.58-0.03c-0.28,0-0.55,0.04-0.82,0.12s-0.51,0.21-0.72,0.38c-0.21,0.17-0.38,0.39-0.51,0.64
			c-0.13,0.25-0.19,0.55-0.19,0.88v5.58h-2.98V135.2h2.9V137.44z"/>
		<path class="st3" d="M115.16,145.46h-2.96l-4.3-10.26h3.26l2.5,6.92l2.52-6.92h3.26L115.16,145.46z"/>
		<path class="st3" d="M129.9,143.66c-0.36,0.4-0.75,0.73-1.17,0.99c-0.42,0.26-0.84,0.47-1.26,0.62s-0.83,0.26-1.23,0.32
			c-0.4,0.06-0.77,0.09-1.12,0.09c-0.95,0-1.79-0.14-2.52-0.42c-0.73-0.28-1.35-0.66-1.85-1.14s-0.88-1.04-1.13-1.68
			c-0.25-0.64-0.38-1.33-0.38-2.06c0-0.76,0.14-1.47,0.42-2.12c0.28-0.65,0.67-1.22,1.17-1.71c0.5-0.49,1.1-0.87,1.79-1.15
			c0.69-0.28,1.45-0.42,2.28-0.42c0.71,0,1.39,0.12,2.06,0.37c0.67,0.25,1.26,0.62,1.78,1.12c0.52,0.5,0.94,1.13,1.25,1.89
			c0.31,0.76,0.47,1.65,0.47,2.66h-8.26c0.03,0.64,0.32,1.17,0.87,1.59c0.55,0.42,1.31,0.63,2.27,0.63c0.53,0,1.05-0.12,1.55-0.35
			s0.93-0.52,1.29-0.87L129.9,143.66z M124.86,137.4c-0.24,0-0.49,0.03-0.76,0.09c-0.27,0.06-0.52,0.16-0.76,0.3
			s-0.46,0.33-0.65,0.56s-0.34,0.52-0.43,0.87h5.14c-0.05-0.33-0.17-0.61-0.34-0.84c-0.17-0.23-0.38-0.41-0.63-0.56
			c-0.25-0.15-0.51-0.25-0.78-0.32C125.38,137.43,125.11,137.4,124.86,137.4z"/>
	</g>
	<g>
		<path class="st3" d="M18.16,161.86c0.08,0.29,0.2,0.54,0.35,0.74c0.15,0.2,0.33,0.36,0.53,0.48c0.2,0.12,0.41,0.2,0.64,0.25
			s0.44,0.07,0.64,0.07c0.33,0,0.64-0.06,0.92-0.19c0.28-0.13,0.42-0.32,0.42-0.59c0-0.17-0.06-0.32-0.17-0.44
			c-0.11-0.12-0.31-0.23-0.59-0.34l-1.8-0.76c-0.61-0.21-1.09-0.47-1.43-0.76c-0.34-0.29-0.59-0.58-0.76-0.86s-0.27-0.54-0.31-0.78
			c-0.04-0.24-0.06-0.42-0.06-0.54c0-0.52,0.11-0.97,0.32-1.36c0.21-0.39,0.5-0.71,0.87-0.98c0.37-0.27,0.79-0.47,1.28-0.6
			c0.49-0.13,1-0.2,1.55-0.2c0.29,0,0.61,0.03,0.94,0.08c0.33,0.05,0.66,0.16,0.99,0.31c0.33,0.15,0.64,0.37,0.95,0.66
			c0.31,0.29,0.58,0.66,0.82,1.11l-2.3,1.06c-0.07-0.2-0.16-0.37-0.27-0.5s-0.24-0.23-0.38-0.3c-0.14-0.07-0.28-0.11-0.42-0.14
			c-0.14-0.03-0.27-0.04-0.39-0.04c-0.28,0-0.54,0.07-0.78,0.22c-0.24,0.15-0.36,0.35-0.36,0.62c0,0.23,0.09,0.4,0.28,0.53
			c0.19,0.13,0.41,0.24,0.68,0.35l1.54,0.6c0.6,0.17,1.08,0.39,1.43,0.66c0.35,0.27,0.62,0.54,0.8,0.83
			c0.18,0.29,0.29,0.56,0.34,0.82c0.05,0.26,0.07,0.48,0.07,0.65c0,0.52-0.11,0.98-0.34,1.38s-0.53,0.73-0.91,1
			c-0.38,0.27-0.83,0.47-1.34,0.6c-0.51,0.13-1.05,0.2-1.61,0.2c-0.39,0-0.79-0.04-1.22-0.11s-0.84-0.21-1.24-0.4
			c-0.4-0.19-0.76-0.46-1.09-0.8c-0.33-0.34-0.58-0.78-0.75-1.31L18.16,161.86z"/>
		<path class="st3" d="M25.18,160.34c0-0.8,0.15-1.53,0.46-2.18s0.72-1.22,1.24-1.69c0.52-0.47,1.12-0.84,1.8-1.09
			c0.68-0.25,1.39-0.38,2.14-0.38c0.75,0,1.46,0.13,2.14,0.39c0.68,0.26,1.28,0.62,1.8,1.09c0.52,0.47,0.93,1.03,1.24,1.68
			s0.46,1.38,0.46,2.18c0,0.8-0.15,1.53-0.46,2.19c-0.31,0.66-0.72,1.22-1.24,1.69c-0.52,0.47-1.12,0.83-1.8,1.09
			c-0.68,0.26-1.39,0.39-2.14,0.39c-0.75,0-1.46-0.13-2.14-0.38c-0.68-0.25-1.28-0.62-1.8-1.09c-0.52-0.47-0.93-1.04-1.24-1.7
			C25.33,161.87,25.18,161.14,25.18,160.34z M28.08,160.34c0,0.4,0.07,0.77,0.22,1.12s0.35,0.64,0.6,0.89
			c0.25,0.25,0.55,0.44,0.88,0.58c0.33,0.14,0.68,0.21,1.04,0.21c0.37,0,0.72-0.07,1.05-0.21c0.33-0.14,0.62-0.34,0.87-0.59
			c0.25-0.25,0.45-0.55,0.6-0.89c0.15-0.34,0.22-0.71,0.22-1.11s-0.07-0.77-0.22-1.1c-0.15-0.33-0.35-0.63-0.6-0.88
			c-0.25-0.25-0.54-0.45-0.87-0.59c-0.33-0.14-0.68-0.21-1.05-0.21c-0.36,0-0.71,0.07-1.04,0.21c-0.33,0.14-0.63,0.33-0.88,0.58
			c-0.25,0.25-0.45,0.54-0.6,0.88S28.08,159.94,28.08,160.34z"/>
		<path class="st3" d="M48.84,157.46c-0.32,0-0.59,0.07-0.81,0.2c-0.22,0.13-0.4,0.31-0.53,0.54c-0.13,0.23-0.23,0.49-0.28,0.8
			c-0.05,0.31-0.08,0.63-0.08,0.98v5.5h-2.96v-5.52c0-0.35-0.03-0.67-0.08-0.98c-0.05-0.31-0.15-0.57-0.28-0.8
			c-0.13-0.23-0.31-0.4-0.53-0.53c-0.22-0.13-0.5-0.19-0.83-0.19c-0.32,0-0.59,0.07-0.81,0.2c-0.22,0.13-0.4,0.31-0.53,0.54
			c-0.13,0.23-0.23,0.49-0.28,0.8s-0.08,0.63-0.08,0.98v5.5h-2.98v-10.26h2.98v1.4c0.33-0.51,0.73-0.9,1.2-1.19S42.94,155,43.5,155
			c0.79,0,1.44,0.16,1.96,0.47c0.52,0.31,0.91,0.73,1.18,1.25c0.2-0.37,0.43-0.67,0.7-0.9c0.27-0.23,0.55-0.4,0.84-0.52
			c0.29-0.12,0.59-0.2,0.89-0.24c0.3-0.04,0.57-0.06,0.81-0.06c0.72,0,1.32,0.13,1.79,0.4c0.47,0.27,0.85,0.63,1.12,1.08
			c0.27,0.45,0.47,0.97,0.58,1.56c0.11,0.59,0.17,1.21,0.17,1.86v5.58h-2.98v-5.52c0-0.35-0.03-0.67-0.08-0.98
			c-0.05-0.31-0.15-0.57-0.28-0.8c-0.13-0.23-0.31-0.4-0.53-0.53C49.45,157.52,49.17,157.46,48.84,157.46z"/>
		<path class="st3" d="M65.4,163.68c-0.36,0.4-0.75,0.73-1.17,0.99c-0.42,0.26-0.84,0.47-1.26,0.62s-0.83,0.26-1.23,0.32
			c-0.4,0.06-0.77,0.09-1.12,0.09c-0.95,0-1.79-0.14-2.52-0.42c-0.73-0.28-1.35-0.66-1.85-1.14s-0.88-1.04-1.13-1.68
			c-0.25-0.64-0.38-1.33-0.38-2.06c0-0.76,0.14-1.47,0.42-2.12c0.28-0.65,0.67-1.22,1.17-1.71c0.5-0.49,1.1-0.87,1.79-1.15
			c0.69-0.28,1.45-0.42,2.28-0.42c0.71,0,1.39,0.12,2.06,0.37c0.67,0.25,1.26,0.62,1.78,1.12c0.52,0.5,0.94,1.13,1.25,1.89
			c0.31,0.76,0.47,1.65,0.47,2.66H57.7c0.03,0.64,0.32,1.17,0.87,1.59c0.55,0.42,1.31,0.63,2.27,0.63c0.53,0,1.05-0.12,1.55-0.35
			s0.93-0.52,1.29-0.87L65.4,163.68z M60.36,157.42c-0.24,0-0.49,0.03-0.76,0.09c-0.27,0.06-0.52,0.16-0.76,0.3
			s-0.46,0.33-0.65,0.56s-0.34,0.52-0.43,0.87h5.14c-0.05-0.33-0.17-0.61-0.34-0.84c-0.17-0.23-0.38-0.41-0.63-0.56
			c-0.25-0.15-0.51-0.25-0.78-0.32C60.88,157.45,60.61,157.42,60.36,157.42z"/>
		<path class="st3" d="M66.46,160.34c0-0.8,0.15-1.53,0.46-2.18s0.72-1.22,1.24-1.69c0.52-0.47,1.12-0.84,1.8-1.09
			c0.68-0.25,1.39-0.38,2.14-0.38c0.75,0,1.46,0.13,2.14,0.39c0.68,0.26,1.28,0.62,1.8,1.09c0.52,0.47,0.93,1.03,1.24,1.68
			s0.46,1.38,0.46,2.18c0,0.8-0.15,1.53-0.46,2.19c-0.31,0.66-0.72,1.22-1.24,1.69c-0.52,0.47-1.12,0.83-1.8,1.09
			c-0.68,0.26-1.39,0.39-2.14,0.39c-0.75,0-1.46-0.13-2.14-0.38c-0.68-0.25-1.28-0.62-1.8-1.09c-0.52-0.47-0.93-1.04-1.24-1.7
			C66.61,161.87,66.46,161.14,66.46,160.34z M69.36,160.34c0,0.4,0.07,0.77,0.22,1.12s0.35,0.64,0.6,0.89
			c0.25,0.25,0.55,0.44,0.88,0.58c0.33,0.14,0.68,0.21,1.04,0.21c0.37,0,0.72-0.07,1.05-0.21c0.33-0.14,0.62-0.34,0.87-0.59
			c0.25-0.25,0.45-0.55,0.6-0.89c0.15-0.34,0.22-0.71,0.22-1.11s-0.07-0.77-0.22-1.1c-0.15-0.33-0.35-0.63-0.6-0.88
			c-0.25-0.25-0.54-0.45-0.87-0.59c-0.33-0.14-0.68-0.21-1.05-0.21c-0.36,0-0.71,0.07-1.04,0.21c-0.33,0.14-0.63,0.33-0.88,0.58
			c-0.25,0.25-0.45,0.54-0.6,0.88S69.36,159.94,69.36,160.34z"/>
		<path class="st3" d="M79.06,155.22h2.98v1.4c0.43-0.6,0.91-1.02,1.44-1.26c0.53-0.24,1.11-0.36,1.74-0.36
			c0.72,0,1.32,0.13,1.79,0.4c0.47,0.27,0.85,0.63,1.12,1.08c0.27,0.45,0.47,0.97,0.58,1.56c0.11,0.59,0.17,1.21,0.17,1.86v5.58
			H85.9v-5.52c0-0.36-0.03-0.69-0.1-0.99c-0.07-0.3-0.18-0.56-0.33-0.79c-0.15-0.23-0.35-0.4-0.59-0.53
			c-0.24-0.13-0.53-0.19-0.88-0.19s-0.64,0.06-0.89,0.19c-0.25,0.13-0.45,0.3-0.61,0.53s-0.28,0.49-0.35,0.8s-0.11,0.64-0.11,1v5.5
			h-2.98V155.22z"/>
		<path class="st3" d="M100.74,163.68c-0.36,0.4-0.75,0.73-1.17,0.99c-0.42,0.26-0.84,0.47-1.26,0.62s-0.83,0.26-1.23,0.32
			c-0.4,0.06-0.77,0.09-1.12,0.09c-0.95,0-1.79-0.14-2.52-0.42c-0.73-0.28-1.35-0.66-1.85-1.14s-0.88-1.04-1.13-1.68
			c-0.25-0.64-0.38-1.33-0.38-2.06c0-0.76,0.14-1.47,0.42-2.12c0.28-0.65,0.67-1.22,1.17-1.71c0.5-0.49,1.1-0.87,1.79-1.15
			c0.69-0.28,1.45-0.42,2.28-0.42c0.71,0,1.39,0.12,2.06,0.37c0.67,0.25,1.26,0.62,1.78,1.12c0.52,0.5,0.94,1.13,1.25,1.89
			c0.31,0.76,0.47,1.65,0.47,2.66h-8.26c0.03,0.64,0.32,1.17,0.87,1.59c0.55,0.42,1.31,0.63,2.27,0.63c0.53,0,1.05-0.12,1.55-0.35
			s0.93-0.52,1.29-0.87L100.74,163.68z M95.7,157.42c-0.24,0-0.49,0.03-0.76,0.09c-0.27,0.06-0.52,0.16-0.76,0.3
			s-0.46,0.33-0.65,0.56s-0.34,0.52-0.43,0.87h5.14c-0.05-0.33-0.17-0.61-0.34-0.84c-0.17-0.23-0.38-0.41-0.63-0.56
			c-0.25-0.15-0.51-0.25-0.78-0.32C96.21,157.45,95.95,157.42,95.7,157.42z"/>
	</g>
	<g>
		<path class="st3" d="M22.92,174.48H25l1.86,5.9l1.78-6.18h3.28l-0.8,2.34l-2.86,7.92h-2.54l-1.76-5.82l-1.76,5.82h-2.54
			l-2.86-7.92L16,174.2h3.28l1.78,6.18L22.92,174.48z"/>
		<path class="st3" d="M32.96,170h2.98v5.6c0.43-0.6,0.91-1.02,1.44-1.26c0.53-0.24,1.11-0.36,1.74-0.36c0.72,0,1.32,0.13,1.79,0.4
			c0.47,0.27,0.85,0.63,1.12,1.08c0.27,0.45,0.47,0.97,0.58,1.56c0.11,0.59,0.17,1.21,0.17,1.86v5.58H39.8v-5.52
			c0-0.36-0.03-0.69-0.1-0.99c-0.07-0.3-0.18-0.56-0.33-0.79s-0.35-0.4-0.59-0.53c-0.24-0.13-0.53-0.19-0.88-0.19
			s-0.64,0.06-0.89,0.19c-0.25,0.13-0.45,0.3-0.61,0.53s-0.28,0.49-0.35,0.8s-0.11,0.64-0.11,1v5.5h-2.98V170z"/>
		<path class="st3" d="M43.98,179.32c0-0.8,0.15-1.53,0.46-2.18s0.72-1.22,1.24-1.69c0.52-0.47,1.12-0.84,1.8-1.09
			c0.68-0.25,1.39-0.38,2.14-0.38c0.75,0,1.46,0.13,2.14,0.39c0.68,0.26,1.28,0.62,1.8,1.09c0.52,0.47,0.93,1.03,1.24,1.68
			s0.46,1.38,0.46,2.18c0,0.8-0.15,1.53-0.46,2.19c-0.31,0.66-0.72,1.22-1.24,1.69c-0.52,0.47-1.12,0.83-1.8,1.09
			c-0.68,0.26-1.39,0.39-2.14,0.39c-0.75,0-1.46-0.13-2.14-0.38c-0.68-0.25-1.28-0.62-1.8-1.09c-0.52-0.47-0.93-1.04-1.24-1.7
			C44.13,180.85,43.98,180.12,43.98,179.32z M46.88,179.32c0,0.4,0.07,0.77,0.22,1.12s0.35,0.64,0.6,0.89
			c0.25,0.25,0.55,0.44,0.88,0.58c0.33,0.14,0.68,0.21,1.04,0.21c0.37,0,0.72-0.07,1.05-0.21c0.33-0.14,0.62-0.34,0.87-0.59
			c0.25-0.25,0.45-0.55,0.6-0.89c0.15-0.34,0.22-0.71,0.22-1.11s-0.07-0.77-0.22-1.1c-0.15-0.33-0.35-0.63-0.6-0.88
			c-0.25-0.25-0.54-0.45-0.87-0.59c-0.33-0.14-0.68-0.21-1.05-0.21c-0.36,0-0.71,0.07-1.04,0.21c-0.33,0.14-0.63,0.33-0.88,0.58
			c-0.25,0.25-0.45,0.54-0.6,0.88S46.88,178.92,46.88,179.32z"/>
		<path class="st3" d="M60.22,179.32c0-0.76,0.13-1.47,0.4-2.12s0.65-1.22,1.15-1.69c0.5-0.47,1.1-0.85,1.81-1.12
			s1.5-0.41,2.38-0.41c0.27,0,0.55,0.02,0.86,0.05c0.31,0.03,0.63,0.11,0.98,0.22s0.72,0.27,1.11,0.47c0.39,0.2,0.81,0.46,1.25,0.78
			l-1.36,2.18c-0.25-0.23-0.51-0.41-0.77-0.54s-0.51-0.24-0.76-0.31c-0.25-0.07-0.47-0.12-0.67-0.14c-0.2-0.02-0.37-0.03-0.5-0.03
			c-0.88,0-1.58,0.25-2.11,0.74c-0.53,0.49-0.79,1.13-0.79,1.92c0,0.79,0.26,1.43,0.79,1.92c0.53,0.49,1.23,0.74,2.11,0.74
			c0.13,0,0.3-0.01,0.5-0.03c0.2-0.02,0.42-0.07,0.67-0.14c0.25-0.07,0.5-0.18,0.76-0.31s0.52-0.31,0.77-0.54l1.36,2.18
			c-0.44,0.32-0.86,0.58-1.25,0.78c-0.39,0.2-0.76,0.36-1.11,0.47c-0.35,0.11-0.67,0.19-0.98,0.22s-0.59,0.05-0.86,0.05
			c-0.88,0-1.67-0.14-2.38-0.41s-1.31-0.65-1.81-1.12c-0.5-0.47-0.88-1.04-1.15-1.69S60.22,180.08,60.22,179.32z"/>
		<path class="st3" d="M81.76,174.2v10.26h-2.98v-1.5c-0.37,0.53-0.81,0.95-1.32,1.26c-0.51,0.31-1.14,0.46-1.9,0.46
			c-0.79,0-1.49-0.14-2.1-0.42c-0.61-0.28-1.14-0.66-1.57-1.15c-0.43-0.49-0.76-1.06-0.99-1.72c-0.23-0.66-0.34-1.36-0.34-2.11
			c0-0.72,0.11-1.4,0.32-2.04c0.21-0.64,0.53-1.2,0.95-1.69c0.42-0.49,0.94-0.87,1.55-1.15c0.61-0.28,1.32-0.42,2.12-0.42
			c0.69,0,1.33,0.15,1.9,0.46c0.57,0.31,1.03,0.69,1.38,1.16v-1.4H81.76z M73.54,179.3c0,0.41,0.06,0.8,0.18,1.16
			s0.29,0.67,0.52,0.94c0.23,0.27,0.5,0.48,0.83,0.63c0.33,0.15,0.7,0.23,1.11,0.23c0.36,0,0.7-0.06,1.03-0.18
			c0.33-0.12,0.61-0.3,0.86-0.53c0.25-0.23,0.44-0.52,0.58-0.87c0.14-0.35,0.21-0.75,0.21-1.22c0-0.96-0.26-1.71-0.77-2.25
			c-0.51-0.54-1.18-0.81-1.99-0.81c-0.41,0-0.78,0.08-1.09,0.23c-0.31,0.15-0.58,0.36-0.8,0.63c-0.22,0.27-0.39,0.57-0.5,0.92
			S73.54,178.9,73.54,179.3z"/>
		<path class="st3" d="M86.62,176.44c0.08-0.47,0.23-0.86,0.45-1.17c0.22-0.31,0.47-0.57,0.75-0.76c0.28-0.19,0.56-0.33,0.85-0.41
			c0.29-0.08,0.54-0.12,0.77-0.12c0.17,0,0.3,0.01,0.39,0.02s0.21,0.03,0.37,0.06V177c-0.21-0.05-0.44-0.09-0.68-0.11
			s-0.43-0.03-0.58-0.03c-0.28,0-0.55,0.04-0.82,0.12s-0.51,0.21-0.72,0.38c-0.21,0.17-0.38,0.39-0.51,0.64
			c-0.13,0.25-0.19,0.55-0.19,0.88v5.58h-2.98V174.2h2.9V176.44z"/>
		<path class="st3" d="M101.04,182.66c-0.36,0.4-0.75,0.73-1.17,0.99c-0.42,0.26-0.84,0.47-1.26,0.62s-0.83,0.26-1.23,0.32
			c-0.4,0.06-0.77,0.09-1.12,0.09c-0.95,0-1.79-0.14-2.52-0.42c-0.73-0.28-1.35-0.66-1.85-1.14s-0.88-1.04-1.13-1.68
			c-0.25-0.64-0.38-1.33-0.38-2.06c0-0.76,0.14-1.47,0.42-2.12c0.28-0.65,0.67-1.22,1.17-1.71c0.5-0.49,1.1-0.87,1.79-1.15
			c0.69-0.28,1.45-0.42,2.28-0.42c0.71,0,1.39,0.12,2.06,0.37c0.67,0.25,1.26,0.62,1.78,1.12c0.52,0.5,0.94,1.13,1.25,1.89
			c0.31,0.76,0.47,1.65,0.47,2.66h-8.26c0.03,0.64,0.32,1.17,0.87,1.59c0.55,0.42,1.31,0.63,2.27,0.63c0.53,0,1.05-0.12,1.55-0.35
			s0.93-0.52,1.29-0.87L101.04,182.66z M96,176.4c-0.24,0-0.49,0.03-0.76,0.09c-0.27,0.06-0.52,0.16-0.76,0.3s-0.46,0.33-0.65,0.56
			s-0.34,0.52-0.43,0.87h5.14c-0.05-0.33-0.17-0.61-0.34-0.84c-0.17-0.23-0.38-0.41-0.63-0.56c-0.25-0.15-0.51-0.25-0.78-0.32
			C96.52,176.43,96.25,176.4,96,176.4z"/>
		<path class="st3" d="M104.1,180.84c0.08,0.29,0.2,0.54,0.35,0.74c0.15,0.2,0.33,0.36,0.53,0.48c0.2,0.12,0.41,0.2,0.64,0.25
			s0.44,0.07,0.64,0.07c0.33,0,0.64-0.06,0.92-0.19c0.28-0.13,0.42-0.32,0.42-0.59c0-0.17-0.06-0.32-0.17-0.44
			c-0.11-0.12-0.31-0.23-0.59-0.34l-1.8-0.76c-0.61-0.21-1.09-0.47-1.43-0.76c-0.34-0.29-0.59-0.58-0.76-0.86s-0.27-0.54-0.31-0.78
			c-0.04-0.24-0.06-0.42-0.06-0.54c0-0.52,0.11-0.97,0.32-1.36c0.21-0.39,0.5-0.71,0.87-0.98c0.37-0.27,0.79-0.47,1.28-0.6
			c0.49-0.13,1-0.2,1.55-0.2c0.29,0,0.61,0.03,0.94,0.08c0.33,0.05,0.66,0.16,0.99,0.31c0.33,0.15,0.64,0.37,0.95,0.66
			c0.31,0.29,0.58,0.66,0.82,1.11l-2.3,1.06c-0.07-0.2-0.16-0.37-0.27-0.5s-0.24-0.23-0.38-0.3c-0.14-0.07-0.28-0.11-0.42-0.14
			c-0.14-0.03-0.27-0.04-0.39-0.04c-0.28,0-0.54,0.07-0.78,0.22c-0.24,0.15-0.36,0.35-0.36,0.62c0,0.23,0.09,0.4,0.28,0.53
			c0.19,0.13,0.41,0.24,0.68,0.35l1.54,0.6c0.6,0.17,1.08,0.39,1.43,0.66c0.35,0.27,0.62,0.54,0.8,0.83
			c0.18,0.29,0.29,0.56,0.34,0.82c0.05,0.26,0.07,0.48,0.07,0.65c0,0.52-0.11,0.98-0.34,1.38s-0.53,0.73-0.91,1
			c-0.38,0.27-0.83,0.47-1.34,0.6c-0.51,0.13-1.05,0.2-1.61,0.2c-0.39,0-0.79-0.04-1.22-0.11s-0.84-0.21-1.24-0.4
			c-0.4-0.19-0.76-0.46-1.09-0.8c-0.33-0.34-0.58-0.78-0.75-1.31L104.1,180.84z"/>
	</g>
	<g>
		<path class="st3" d="M27.2,192.2v10.26h-2.98v-1.5c-0.37,0.53-0.81,0.95-1.32,1.26c-0.51,0.31-1.14,0.46-1.9,0.46
			c-0.79,0-1.49-0.14-2.1-0.42c-0.61-0.28-1.14-0.66-1.57-1.15c-0.43-0.49-0.76-1.06-0.99-1.72c-0.23-0.66-0.34-1.36-0.34-2.11
			c0-0.72,0.11-1.4,0.32-2.04c0.21-0.64,0.53-1.2,0.95-1.69c0.42-0.49,0.94-0.87,1.55-1.15c0.61-0.28,1.32-0.42,2.12-0.42
			c0.69,0,1.33,0.15,1.9,0.46c0.57,0.31,1.03,0.69,1.38,1.16v-1.4H27.2z M18.98,197.3c0,0.41,0.06,0.8,0.18,1.16
			s0.29,0.67,0.52,0.94c0.23,0.27,0.5,0.48,0.83,0.63c0.33,0.15,0.7,0.23,1.11,0.23c0.36,0,0.7-0.06,1.03-0.18
			c0.33-0.12,0.61-0.3,0.86-0.53c0.25-0.23,0.44-0.52,0.58-0.87c0.14-0.35,0.21-0.75,0.21-1.22c0-0.96-0.26-1.71-0.77-2.25
			c-0.51-0.54-1.18-0.81-1.99-0.81c-0.41,0-0.78,0.08-1.09,0.23c-0.31,0.15-0.58,0.36-0.8,0.63c-0.22,0.27-0.39,0.57-0.5,0.92
			S18.98,196.9,18.98,197.3z"/>
		<path class="st3" d="M40.36,197.28c0,0.75-0.11,1.45-0.34,2.11c-0.23,0.66-0.56,1.23-0.99,1.72c-0.43,0.49-0.96,0.87-1.58,1.15
			c-0.62,0.28-1.32,0.42-2.09,0.42c-0.76,0-1.39-0.15-1.9-0.46c-0.51-0.31-0.95-0.73-1.32-1.26v1.5h-2.98V188h2.98v5.6
			c0.35-0.47,0.81-0.85,1.38-1.16c0.57-0.31,1.21-0.46,1.9-0.46c0.8,0,1.51,0.14,2.12,0.42c0.61,0.28,1.13,0.66,1.55,1.15
			c0.42,0.49,0.74,1.05,0.95,1.69C40.25,195.88,40.36,196.56,40.36,197.28z M37.38,197.3c0-0.4-0.06-0.77-0.17-1.12
			s-0.28-0.65-0.5-0.92c-0.22-0.27-0.49-0.48-0.8-0.63c-0.31-0.15-0.68-0.23-1.09-0.23c-0.81,0-1.48,0.27-1.99,0.81
			c-0.51,0.54-0.77,1.29-0.77,2.25c0,0.47,0.07,0.87,0.21,1.22c0.14,0.35,0.33,0.64,0.58,0.87c0.25,0.23,0.53,0.41,0.86,0.53
			c0.33,0.12,0.67,0.18,1.03,0.18c0.41,0,0.78-0.08,1.11-0.23c0.33-0.15,0.6-0.36,0.83-0.63c0.23-0.27,0.4-0.58,0.52-0.94
			S37.38,197.71,37.38,197.3z"/>
		<path class="st3" d="M41.08,197.32c0-0.8,0.15-1.53,0.46-2.18s0.72-1.22,1.24-1.69c0.52-0.47,1.12-0.84,1.8-1.09
			c0.68-0.25,1.39-0.38,2.14-0.38c0.75,0,1.46,0.13,2.14,0.39c0.68,0.26,1.28,0.62,1.8,1.09c0.52,0.47,0.93,1.03,1.24,1.68
			s0.46,1.38,0.46,2.18c0,0.8-0.15,1.53-0.46,2.19c-0.31,0.66-0.72,1.22-1.24,1.69c-0.52,0.47-1.12,0.83-1.8,1.09
			c-0.68,0.26-1.39,0.39-2.14,0.39c-0.75,0-1.46-0.13-2.14-0.38c-0.68-0.25-1.28-0.62-1.8-1.09c-0.52-0.47-0.93-1.04-1.24-1.7
			C41.23,198.85,41.08,198.12,41.08,197.32z M43.98,197.32c0,0.4,0.07,0.77,0.22,1.12s0.35,0.64,0.6,0.89
			c0.25,0.25,0.55,0.44,0.88,0.58c0.33,0.14,0.68,0.21,1.04,0.21c0.37,0,0.72-0.07,1.05-0.21c0.33-0.14,0.62-0.34,0.87-0.59
			c0.25-0.25,0.45-0.55,0.6-0.89c0.15-0.34,0.22-0.71,0.22-1.11s-0.07-0.77-0.22-1.1c-0.15-0.33-0.35-0.63-0.6-0.88
			c-0.25-0.25-0.54-0.45-0.87-0.59c-0.33-0.14-0.68-0.21-1.05-0.21c-0.36,0-0.71,0.07-1.04,0.21c-0.33,0.14-0.63,0.33-0.88,0.58
			c-0.25,0.25-0.45,0.54-0.6,0.88S43.98,196.92,43.98,197.32z"/>
		<path class="st3" d="M63.38,202.46H60.4v-1.4c-0.43,0.6-0.91,1.02-1.44,1.26c-0.53,0.24-1.11,0.36-1.74,0.36
			c-0.72,0-1.32-0.13-1.79-0.4c-0.47-0.27-0.85-0.62-1.12-1.07s-0.47-0.97-0.58-1.56s-0.17-1.22-0.17-1.87v-5.58h2.98v5.52
			c0,0.36,0.03,0.69,0.1,0.99c0.07,0.3,0.18,0.56,0.33,0.79c0.15,0.23,0.35,0.4,0.59,0.53c0.24,0.13,0.53,0.19,0.88,0.19
			s0.64-0.06,0.89-0.19c0.25-0.13,0.45-0.3,0.61-0.53c0.16-0.23,0.28-0.49,0.35-0.8s0.11-0.64,0.11-1v-5.5h2.98V202.46z"/>
		<path class="st3" d="M69.04,192.2h2.84v2.34h-2.84v4.8c0,0.23,0.05,0.43,0.16,0.62c0.11,0.19,0.31,0.28,0.6,0.28s0.5-0.1,0.61-0.3
			s0.17-0.42,0.17-0.66c0-0.15-0.02-0.31-0.05-0.49c-0.03-0.18-0.06-0.31-0.09-0.39h2.36c0.09,0.19,0.16,0.39,0.19,0.61
			c0.03,0.22,0.05,0.42,0.05,0.61c0,0.39-0.06,0.76-0.19,1.12c-0.13,0.36-0.33,0.69-0.61,0.98c-0.28,0.29-0.64,0.53-1.07,0.7
			c-0.43,0.17-0.95,0.26-1.55,0.26c-0.45,0-0.89-0.05-1.32-0.15c-0.43-0.1-0.81-0.28-1.14-0.55c-0.33-0.27-0.6-0.63-0.8-1.1
			c-0.2-0.47-0.3-1.07-0.3-1.82v-4.52h-1.54v-2.34h1.76l0.46-2.52h2.3V192.2z"/>
		<path class="st3" d="M84.78,192.2h3.28l-6.64,14.94h-3l2.34-5.54l-4.22-9.4h3.36l2.44,6.42L84.78,192.2z"/>
		<path class="st3" d="M87.8,197.32c0-0.8,0.15-1.53,0.46-2.18s0.72-1.22,1.24-1.69c0.52-0.47,1.12-0.84,1.8-1.09
			c0.68-0.25,1.39-0.38,2.14-0.38c0.75,0,1.46,0.13,2.14,0.39c0.68,0.26,1.28,0.62,1.8,1.09c0.52,0.47,0.93,1.03,1.24,1.68
			s0.46,1.38,0.46,2.18c0,0.8-0.15,1.53-0.46,2.19c-0.31,0.66-0.72,1.22-1.24,1.69c-0.52,0.47-1.12,0.83-1.8,1.09
			c-0.68,0.26-1.39,0.39-2.14,0.39c-0.75,0-1.46-0.13-2.14-0.38c-0.68-0.25-1.28-0.62-1.8-1.09c-0.52-0.47-0.93-1.04-1.24-1.7
			C87.95,198.85,87.8,198.12,87.8,197.32z M90.7,197.32c0,0.4,0.07,0.77,0.22,1.12s0.35,0.64,0.6,0.89
			c0.25,0.25,0.55,0.44,0.88,0.58c0.33,0.14,0.68,0.21,1.04,0.21c0.37,0,0.72-0.07,1.05-0.21c0.33-0.14,0.62-0.34,0.87-0.59
			c0.25-0.25,0.45-0.55,0.6-0.89c0.15-0.34,0.22-0.71,0.22-1.11s-0.07-0.77-0.22-1.1c-0.15-0.33-0.35-0.63-0.6-0.88
			c-0.25-0.25-0.54-0.45-0.87-0.59c-0.33-0.14-0.68-0.21-1.05-0.21c-0.36,0-0.71,0.07-1.04,0.21c-0.33,0.14-0.63,0.33-0.88,0.58
			c-0.25,0.25-0.45,0.54-0.6,0.88S90.7,196.92,90.7,197.32z"/>
		<path class="st3" d="M110.1,202.46h-2.98v-1.4c-0.43,0.6-0.91,1.02-1.44,1.26c-0.53,0.24-1.11,0.36-1.74,0.36
			c-0.72,0-1.32-0.13-1.79-0.4c-0.47-0.27-0.85-0.62-1.12-1.07s-0.47-0.97-0.58-1.56s-0.17-1.22-0.17-1.87v-5.58h2.98v5.52
			c0,0.36,0.03,0.69,0.1,0.99c0.07,0.3,0.18,0.56,0.33,0.79c0.15,0.23,0.35,0.4,0.59,0.53c0.24,0.13,0.53,0.19,0.88,0.19
			s0.64-0.06,0.89-0.19c0.25-0.13,0.45-0.3,0.61-0.53c0.16-0.23,0.28-0.49,0.35-0.8s0.11-0.64,0.11-1v-5.5h2.98V202.46z"/>
		<path class="st3" d="M111.28,204.6c0.25-0.09,0.5-0.22,0.73-0.39c0.23-0.17,0.44-0.36,0.63-0.57c0.19-0.21,0.34-0.44,0.45-0.67
			s0.17-0.46,0.17-0.67c-0.23,0.01-0.43-0.02-0.61-0.11c-0.18-0.09-0.34-0.2-0.48-0.34c-0.14-0.14-0.25-0.3-0.33-0.48
			c-0.08-0.18-0.12-0.36-0.12-0.53c-0.03-0.43,0.1-0.8,0.39-1.13c0.29-0.33,0.72-0.49,1.31-0.49c0.33,0,0.61,0.07,0.83,0.21
			c0.22,0.14,0.39,0.31,0.52,0.52c0.13,0.21,0.21,0.42,0.26,0.64c0.05,0.22,0.07,0.41,0.07,0.57c0,0.43-0.08,0.88-0.23,1.35
			c-0.15,0.47-0.37,0.92-0.65,1.34s-0.61,0.8-1,1.13c-0.39,0.33-0.81,0.57-1.28,0.72L111.28,204.6z"/>
	</g>
</g>
</svg>
