<?xml version="1.0" encoding="utf-8"?>
<!-- Generator: Adobe Illustrator 25.4.1, SVG Export Plug-In . SVG Version: 6.00 Build 0)  -->
<svg version="1.1" id="Layer_1" xmlns="http://www.w3.org/2000/svg" xmlns:xlink="http://www.w3.org/1999/xlink" x="0px" y="0px"
	 viewBox="0 0 970 250" style="enable-background:new 0 0 970 250;" xml:space="preserve">
<style type="text/css">
	.st0{clip-path:url(#SVGID_00000025401208783662214200000000487807876528821383_);}
	.st1{clip-path:url(#SVGID_00000097493665193573611320000007237340443491869057_);}
	.st2{fill:#221E1F;}
	.st3{fill:#EAB8B9;}
	.st4{fill-rule:evenodd;clip-rule:evenodd;fill:#221E1F;}
</style>
<g>
	<g>
		<defs>
			<rect id="SVGID_1_" width="970" height="250"/>
		</defs>
		<clipPath id="SVGID_00000165938697135001255590000014805172499723840433_">
			<use xlink:href="#SVGID_1_"  style="overflow:visible;"/>
		</clipPath>
		<g style="clip-path:url(#SVGID_00000165938697135001255590000014805172499723840433_);">
			<g>
				<defs>
					<rect id="SVGID_00000127728975513361285900000004791237073285304193_" x="541.5" y="30.6" width="162.5" height="219.4"/>
				</defs>
				<clipPath id="SVGID_00000147208661018758745940000002781467071562308741_">
					<use xlink:href="#SVGID_00000127728975513361285900000004791237073285304193_"  style="overflow:visible;"/>
				</clipPath>
				<g style="clip-path:url(#SVGID_00000147208661018758745940000002781467071562308741_);">
					<path class="st2" d="M565.4,343.2h114.7c13.2,0,23.9-10.7,23.9-23.9c0,0,0,0,0,0V54.5c0-13.2-10.7-23.9-23.9-23.9c0,0,0,0,0,0
						H565.4c-13.2,0-23.9,10.7-23.9,23.9v264.8C541.5,332.5,552.2,343.2,565.4,343.2"/>
					<path class="st3" d="M680.2,40H666c-1.2,0-2.2,1-2.2,2.2c0,0,0,0,0,0v1.3c0,4.5-3.7,8.2-8.2,8.2l0,0h-65
						c-4.5,0-8.2-3.7-8.2-8.2l0,0v-1.3c0-1.2-1-2.2-2.2-2.2c0,0,0,0,0,0h-14.7c-8.5,0-15.4,6.9-15.4,15.4c0,0,0,0,0,0v264.1
						c0,8.5,6.9,15.4,15.4,15.5c0,0,0,0,0,0h114.7c8.5,0,15.4-6.9,15.4-15.4l0,0V55.4C695.7,46.9,688.8,40,680.2,40"/>
					<path class="st4" d="M689.6,49.5c0,0.4-0.2,0.7-0.6,0.7c0,0,0,0-0.1,0v-1.4C689.4,48.8,689.6,49.1,689.6,49.5
						C689.6,49.5,689.6,49.5,689.6,49.5 M688.8,48.2v2.7l0,0c0,0.3-0.3,0.6-0.6,0.6h-6.8c-0.3,0-0.6-0.3-0.6-0.6c0,0,0,0,0,0l0,0
						v-2.7c0-0.3,0.3-0.6,0.6-0.6c0,0,0,0,0,0h6.8C688.5,47.5,688.8,47.8,688.8,48.2 M681.4,47.8c-0.2,0-0.4,0.2-0.4,0.4v2.7
						c0,0.2,0.2,0.4,0.4,0.4h6.8c0.2,0,0.4-0.2,0.4-0.4v-2.7c0-0.2-0.2-0.4-0.4-0.4H681.4z"/>
					<path class="st2" d="M676.1,47.8c0.9,0,1.8,0.4,2.5,1l-0.3,0.4c-1.2-1-3.1-1-4.3,0l-0.3-0.4C674.3,48.1,675.2,47.8,676.1,47.8
						 M676.1,49c0.6,0,1.2,0.2,1.6,0.6l-0.3,0.4c-0.4-0.3-0.8-0.5-1.3-0.5c-0.5,0-0.9,0.2-1.3,0.5l-0.4-0.4
						C675,49.3,675.5,49,676.1,49 M676.1,50.3c0.3,0,0.6,0.1,0.8,0.3l-0.8,0.9l-0.8-0.9C675.6,50.4,675.9,50.3,676.1,50.3"/>
					<rect x="666" y="50.2" class="st2" width="0.7" height="1.3"/>
					<rect x="667.6" y="49.4" class="st2" width="0.7" height="2.1"/>
					<rect x="669.3" y="48.7" class="st2" width="0.7" height="2.7"/>
					<rect x="671" y="48" class="st2" width="0.7" height="3.5"/>
					<polygon class="st2" points="559.6,48.1 559.6,48.1 558.6,48.8 558.6,48.2 559.6,47.5 560.3,47.5 560.3,51.5 559.6,51.5 					
						"/>
					<path class="st2" d="M561.2,51.1l1.4-1.4c0.1-0.1,0.3-0.3,0.4-0.4c0.1-0.1,0.1-0.2,0.2-0.3c0-0.1,0-0.2,0-0.3l0,0
						c0-0.1,0-0.2-0.1-0.3c0-0.1-0.1-0.2-0.2-0.3c-0.1-0.1-0.2-0.1-0.4-0.1c-0.1,0-0.3,0-0.4,0.1c-0.1,0.1-0.2,0.1-0.3,0.3
						c-0.1,0.1-0.1,0.2-0.1,0.4l0,0h-0.6l0,0c0-0.2,0.1-0.4,0.2-0.6c0.1-0.2,0.3-0.3,0.5-0.4c0.2-0.1,0.5-0.2,0.7-0.2
						c0.2,0,0.5,0,0.7,0.2c0.2,0.1,0.4,0.2,0.5,0.4c0.1,0.2,0.2,0.4,0.2,0.6l0,0c0,0.1,0,0.3-0.1,0.4c-0.1,0.2-0.2,0.3-0.3,0.5
						c-0.1,0.2-0.3,0.4-0.6,0.6l-1.1,1.1l0.2-0.4v0.4l-0.2-0.2h2.1v0.5h-2.8L561.2,51.1z"/>
					<path class="st2" d="M564.6,48.7c-0.1-0.1-0.1-0.2-0.1-0.3c0-0.1,0-0.2,0.1-0.3c0.1-0.1,0.2-0.1,0.3-0.1c0.2,0,0.4,0.2,0.4,0.4
						c0,0.1,0,0.2-0.1,0.3c-0.1,0.1-0.2,0.1-0.3,0.1C564.8,48.8,564.7,48.8,564.6,48.7 M564.6,50.8c-0.1-0.1-0.1-0.2-0.1-0.3
						c0-0.1,0-0.2,0.1-0.2c0.1-0.1,0.2-0.1,0.3-0.1c0.1,0,0.2,0,0.3,0.1c0.1,0.1,0.1,0.2,0.1,0.2c0,0.1,0,0.2-0.1,0.3
						c-0.1,0.1-0.2,0.1-0.3,0.1C564.8,50.9,564.7,50.9,564.6,50.8"/>
					<path class="st2" d="M567.7,50.7h-2v-0.5c0.1-0.2,0.2-0.4,0.3-0.5l0.3-0.5l0.3-0.5l0.3-0.5c0.1-0.2,0.2-0.4,0.3-0.5h0.9v2.7
						h0.5v0.5h-0.5v0.8h-0.6L567.7,50.7z M567.7,50.2V48l0,0l-0.3,0.4c-0.1,0.1-0.2,0.3-0.3,0.4l-0.3,0.4c-0.1,0.2-0.2,0.3-0.3,0.4
						l-0.3,0.4l0,0L567.7,50.2z"/>
					<path class="st2" d="M570,51.3c-0.2-0.2-0.4-0.4-0.5-0.7c-0.1-0.4-0.2-0.7-0.2-1.1l0,0c0-0.4,0.1-0.7,0.2-1.1
						c0.1-0.3,0.3-0.5,0.5-0.7c0.2-0.2,0.5-0.3,0.8-0.2c0.3,0,0.6,0.1,0.8,0.2c0.2,0.2,0.4,0.4,0.5,0.7c0.1,0.4,0.2,0.7,0.2,1.1l0,0
						c0,0.4-0.1,0.7-0.2,1.1c-0.1,0.3-0.3,0.5-0.5,0.7c-0.2,0.2-0.5,0.3-0.8,0.3C570.5,51.6,570.2,51.5,570,51.3 M571.3,50.9
						c0.1-0.1,0.3-0.3,0.3-0.5c0.1-0.3,0.1-0.5,0.1-0.8l0,0c0-0.3,0-0.6-0.1-0.8c-0.1-0.2-0.2-0.4-0.3-0.5c-0.1-0.1-0.3-0.2-0.5-0.2
						c-0.2,0-0.4,0.1-0.5,0.2c-0.2,0.1-0.3,0.3-0.3,0.5c-0.1,0.3-0.1,0.5-0.1,0.8l0,0c0,0.3,0,0.6,0.1,0.8c0.1,0.2,0.2,0.4,0.3,0.5
						c0.1,0.1,0.3,0.2,0.5,0.2C571,51,571.2,51,571.3,50.9"/>
					<path class="st2" d="M577,48.4l-0.8,1.7v-0.4v-0.3h-0.3h-0.5L577,48.4z M577.8,47.5l-4,2.2l2,0.1l0.2,1.9L577.8,47.5z"/>
					<path class="st4" d="M681.3,48.3v2.5c0,0.1,0.1,0.2,0.2,0.2l0,0h6c0.1,0,0.2-0.1,0.2-0.2c0,0,0,0,0,0v-2.5
						c0-0.1-0.1-0.2-0.2-0.2l0,0h-6C681.4,48.1,681.3,48.1,681.3,48.3C681.3,48.3,681.3,48.3,681.3,48.3"/>
				</g>
			</g>
		</g>
	</g>
</g>
</svg>
