<?xml version="1.0" encoding="utf-8"?>
<!-- Generator: Adobe Illustrator 26.0.3, SVG Export Plug-In . SVG Version: 6.00 Build 0)  -->
<svg version="1.1" id="Layer_1" xmlns="http://www.w3.org/2000/svg" xmlns:xlink="http://www.w3.org/1999/xlink" x="0px" y="0px"
	 viewBox="0 0 300 600" style="enable-background:new 0 0 300 600;" xml:space="preserve">
<style type="text/css">
	.st0{fill:#FFFFFF;}
</style>
<g>
	<g>
		<path class="st0" d="M41.7,58.8h6.3v29.4h-6.3V58.8z"/>
		<path class="st0" d="M54.7,83V71.8h-3.5V67h3.5v-5.9h5.7V67h4.3v4.9h-4.3v9.6c0,1.3,0.7,2.3,1.9,2.3c0.7,0,1.4-0.2,1.9-0.6
			l1.2,4.2c-1.3,1-3,1.5-4.7,1.4C56.8,88.8,54.7,86.8,54.7,83z"/>
		<path class="st0" d="M68.3,69.1c1.6-0.9,2.8-2.4,3.4-4.2c-0.3,0.1-0.6,0.2-0.8,0.2c-1.7,0-3-1.3-3-3c0-0.1,0-0.1,0-0.2
			c0-1.9,1.5-3.5,3.4-3.5c2.1,0,4,1.6,4,4.5c-0.1,3.3-1.8,6.4-4.5,8.2L68.3,69.1z"/>
		<path class="st0" d="M79.1,81.6c2.1,1.8,4.7,2.8,7.4,2.9c2.4,0,3.6-0.8,3.6-2.2c0-1.5-1.8-2-4.3-2.5c-3.7-0.7-8.4-1.6-8.4-6.7
			c0-3.6,3.1-6.7,8.7-6.7c3.1,0,6.2,1,8.6,2.9l-2.2,3.8c-1.7-1.6-4-2.5-6.3-2.5c-2,0-3.3,0.8-3.3,2s1.7,1.8,4.1,2.3
			c3.7,0.7,8.6,1.7,8.6,7c0,3.9-3.3,6.8-9.2,6.8c-3.5,0.1-6.9-1.1-9.5-3.3L79.1,81.6z"/>
	</g>
</g>
</svg>
