<?xml version="1.0" encoding="utf-8"?>
<!-- Generator: Adobe Illustrator 26.0.3, SVG Export Plug-In . SVG Version: 6.00 Build 0)  -->
<svg version="1.1" id="Layer_1" xmlns="http://www.w3.org/2000/svg" xmlns:xlink="http://www.w3.org/1999/xlink" x="0px" y="0px"
	 viewBox="0 0 300 600" style="enable-background:new 0 0 300 600;" xml:space="preserve">
<style type="text/css">
	.st0{fill:#CDFFFF;}
</style>
<g>
	<g>
		<path class="st0" d="M41.8,98.9h5.6v29.4h-5.6V98.9z"/>
		<path class="st0" d="M65.7,126.1c-1.7,1.8-4.2,2.8-6.7,2.7c-3.4,0-7.4-2.3-7.4-7.1c0-5,4-6.8,7.4-6.8c2.8,0,5.3,0.9,6.8,2.6v-3
			c0-2.2-1.8-3.6-4.7-3.6c-2.3,0-4.5,0.9-6.2,2.5l-2.1-3.8c2.6-2.2,5.9-3.4,9.3-3.3c4.8,0,9.3,1.9,9.3,8.1v13.8h-5.6L65.7,126.1z
			 M65.7,120.5c-1.1-1.3-2.8-2-4.5-1.9c-2.2,0-4,1.2-4,3.2s1.8,3.1,4,3.1c1.7,0.1,3.4-0.6,4.5-1.8V120.5z"/>
		<path class="st0" d="M85,120.1l-2.6,2.7v5.5h-5.6V98.9h5.6v17.6l8.1-9.5h6.9l-8.4,9.6l8.7,11.7h-7L85,120.1z"/>
		<path class="st0" d="M109.9,106.4c6.3,0,10.7,4.8,10.7,11.7v1.2h-15.8c0.3,2.7,2.5,4.9,6.1,4.9c2.1,0,4.1-0.7,5.7-2.1l2.5,3.6
			c-2.5,2-5.6,3.1-8.8,3c-6.5,0-11.4-4.4-11.4-11.2c-0.2-6,4.5-11,10.5-11.2C109.5,106.4,109.7,106.4,109.9,106.4z M104.6,115.6
			h10.5c-0.1-2.7-2.4-4.8-5.1-4.7c0,0-0.1,0-0.1,0C107.1,110.8,104.8,112.9,104.6,115.6z"/>
		<path class="st0" d="M125.2,121.6c2.1,1.8,4.7,2.8,7.4,2.9c2.4,0,3.6-0.8,3.6-2.2c0-1.5-1.9-2-4.3-2.5c-3.7-0.7-8.4-1.6-8.4-6.7
			c0-3.6,3.1-6.7,8.7-6.7c3.1,0,6.2,1,8.6,2.9l-2.2,3.8c-1.7-1.6-4-2.5-6.3-2.5c-2,0-3.4,0.7-3.4,2s1.7,1.8,4.1,2.3
			c3.7,0.7,8.6,1.7,8.6,7c0,3.9-3.3,6.8-9.2,6.8c-3.5,0.1-6.9-1.1-9.5-3.3L125.2,121.6z"/>
		<path class="st0" d="M145.1,100.5c0-1.9,1.5-3.3,3.4-3.3c1.9,0,3.3,1.5,3.3,3.3c0,1.9-1.5,3.3-3.3,3.3
			C146.6,103.8,145.1,102.3,145.1,100.5z M145.6,107h5.6v21.3h-5.6V107z"/>
		<path class="st0" d="M171.4,125.5c-1.6,2.1-4,3.3-6.6,3.3c-5.4,0-9.4-4.1-9.4-11.2s4-11.2,9.4-11.2c2.6,0,5,1.2,6.6,3.3V98.9h5.6
			v29.4h-5.6V125.5z M171.4,113.9c-1.1-1.5-2.9-2.4-4.9-2.4c-3.2,0-5.4,2.5-5.4,6.2s2.2,6.2,5.4,6.2c1.9,0,3.7-0.9,4.9-2.4V113.9z"
			/>
		<path class="st0" d="M192.3,106.4c6.4,0,10.7,4.8,10.7,11.7v1.2h-15.8c0.4,2.7,2.5,4.9,6.1,4.9c2.1,0,4.1-0.7,5.7-2.1l2.5,3.6
			c-2.5,2-5.6,3.1-8.8,3c-6.5,0-11.4-4.4-11.4-11.2c-0.2-6,4.5-11,10.5-11.2C191.9,106.4,192.1,106.4,192.3,106.4z M187,115.6h10.5
			c-0.1-2.7-2.4-4.8-5.1-4.7c0,0-0.1,0-0.1,0C189.5,110.8,187.2,112.9,187,115.6z"/>
		<path class="st0" d="M209.8,121.6c2,0,3.6,1.6,3.6,3.6s-1.6,3.6-3.6,3.6c-2,0-3.6-1.6-3.6-3.6
			C206.2,123.2,207.8,121.6,209.8,121.6z"/>
	</g>
</g>
</svg>
