<?xml version="1.0" encoding="utf-8"?>
<!-- Generator: Adobe Illustrator 26.0.3, SVG Export Plug-In . SVG Version: 6.00 Build 0)  -->
<svg version="1.1" id="Layer_1" xmlns="http://www.w3.org/2000/svg" xmlns:xlink="http://www.w3.org/1999/xlink" x="0px" y="0px"
	 viewBox="0 0 300 600" style="enable-background:new 0 0 300 600;" xml:space="preserve">
<style type="text/css">
	.st0{fill:#FFFFFF;}
	.st1{clip-path:url(#SVGID_00000021099539422392325460000002325657249152910525_);}
</style>
<g>
	<g>
		<path class="st0" d="M81.1,549v-10.3h-3.7v-1.6h9.2v1.6h-3.7V549H81.1z"/>
		<path class="st0" d="M87,549v-8.6h1.6v1.3c0.7-0.9,1.7-1.5,2.8-1.5v1.6c-0.2,0-0.4,0-0.6,0c-0.9,0-1.8,0.5-2.3,1.2v6H87z"/>
		<path class="st0" d="M92.7,537.9c0-0.5,0.5-1,1-1c0.6,0,1,0.4,1,1s-0.4,1-1,1S92.7,538.5,92.7,537.9z M93,549v-8.6h1.6v8.6H93z"/>
		<path class="st0" d="M98.8,552.3h-1.6v-11.9h1.6v1.2c0.7-0.9,1.7-1.4,2.8-1.5c2.2,0,3.8,1.7,3.8,4.5s-1.6,4.5-3.8,4.5
			c-1.1,0-2.2-0.5-2.8-1.5V552.3z M101.2,541.6c-1,0-1.8,0.5-2.4,1.3v3.7c0.5,0.8,1.4,1.3,2.4,1.3c1.6,0,2.6-1.3,2.6-3.1
			S102.8,541.6,101.2,541.6z"/>
		<path class="st0" d="M107.5,546.7c0.8,0.8,1.8,1.2,2.9,1.2c1.2,0,1.9-0.5,1.9-1.2s-1-1.1-2.1-1.4c-1.5-0.3-3.2-0.7-3.2-2.6
			c0-1.4,1.2-2.5,3.3-2.5c1.2,0,2.4,0.4,3.3,1.2l-0.7,1.1c-0.7-0.7-1.6-1.1-2.6-1.1c-1.1,0-1.8,0.4-1.8,1.1s0.9,1,2,1.2
			c1.5,0.3,3.3,0.8,3.3,2.7c0,1.5-1.2,2.6-3.5,2.6c-1.3,0.1-2.6-0.4-3.6-1.3L107.5,546.7z"/>
		<path class="st0" d="M130.2,549H128c-0.3-0.3-0.7-0.7-1.2-1.2c-0.9,0.9-2.1,1.4-3.4,1.4c-2.1,0-3.8-1.1-3.8-3.4
			c0-1.8,1.2-2.8,2.6-3.5c-0.5-0.8-0.8-1.7-0.9-2.7c0.1-1.6,1.4-2.8,3-2.8c0,0,0.1,0,0.1,0c1.6,0,2.8,0.9,2.8,2.4
			c0,1.8-1.5,2.6-3,3.3c0.4,0.6,0.9,1.2,1.3,1.6s0.9,1,1.3,1.5c0.5-0.8,0.9-1.7,1.2-2.6l1.3,0.6c-0.4,1.1-1,2.1-1.6,3
			C128.6,547.4,129.3,548.2,130.2,549z M125.9,546.9c-0.6-0.7-1.2-1.3-1.6-1.7c-0.5-0.6-0.9-1.2-1.4-1.8c-0.9,0.4-1.5,1.3-1.6,2.4
			c0,1.2,0.9,2.2,2.1,2.2c0.1,0,0.1,0,0.2,0C124.5,547.9,125.3,547.5,125.9,546.9L125.9,546.9z M123.7,541.6
			c1.2-0.6,2.2-1.2,2.2-2.3c0-0.7-0.5-1.2-1.1-1.3c-0.1,0-0.1,0-0.2,0c-0.8,0-1.5,0.7-1.5,1.5c0,0,0,0.1,0,0.1
			C123.1,540.4,123.4,541.1,123.7,541.6L123.7,541.6z"/>
		<path class="st0" d="M81.1,565.2v-10.3h-3.7v-1.6h9.2v1.6h-3.7v10.3H81.1z"/>
		<path class="st0" d="M87,565.2v-8.6h1.6v1.3c0.7-0.9,1.7-1.5,2.8-1.5v1.6c-0.2,0-0.4,0-0.6,0c-0.9,0.1-1.7,0.5-2.3,1.2v6L87,565.2
			z"/>
		<path class="st0" d="M98.3,565.2v-1c-0.7,0.8-1.8,1.2-2.8,1.2c-1.6,0.1-2.9-1.1-3-2.7c0,0,0-0.1,0-0.1c0-1.5,1.2-2.8,2.7-2.8
			c0.1,0,0.2,0,0.3,0c1.1-0.1,2.1,0.4,2.8,1.2v-1.4c0-1.1-0.9-1.7-2.1-1.7c-1,0-1.9,0.4-2.6,1.2l-0.7-1.1c0.9-0.9,2.2-1.4,3.5-1.4
			c1.9,0,3.5,0.8,3.5,3v5.8L98.3,565.2z M98.3,561.8c-0.5-0.7-1.4-1-2.2-1c-0.9-0.1-1.8,0.5-1.9,1.5c-0.1,0.9,0.5,1.8,1.5,1.9
			c0.2,0,0.3,0,0.5,0c0.9,0,1.7-0.3,2.2-1V561.8z"/>
		<path class="st0" d="M113,565.2v-5.8c0-1-0.4-1.7-1.5-1.7c-0.9,0-1.7,0.5-2.1,1.2v6.2h-1.6v-5.8c0-1-0.4-1.7-1.5-1.7
			c-0.9,0.1-1.6,0.5-2.1,1.2v6.2h-1.6v-8.6h1.6v1.2c0.7-0.9,1.7-1.4,2.8-1.4c1.1-0.1,2,0.6,2.3,1.6c0.6-1,1.7-1.6,2.9-1.6
			c1.6,0,2.4,0.9,2.4,2.6v6.2L113,565.2z"/>
		<path class="st0" d="M118.7,568.5h-1.6v-11.9h1.6v1.2c0.7-0.9,1.7-1.4,2.8-1.5c2.2,0,3.8,1.7,3.8,4.5s-1.6,4.5-3.8,4.5
			c-1.1,0-2.2-0.5-2.8-1.5V568.5z M121.1,557.8c-1,0-1.8,0.5-2.4,1.3v3.7c0.6,0.8,1.4,1.2,2.4,1.3c1.6,0,2.6-1.3,2.6-3.1
			S122.7,557.8,121.1,557.8L121.1,557.8z"/>
		<path class="st0" d="M127.4,562.9c0.8,0.8,1.8,1.2,2.9,1.2c1.2,0,1.9-0.5,1.9-1.2s-1-1.1-2.1-1.4c-1.5-0.3-3.2-0.7-3.2-2.6
			c0-1.4,1.2-2.5,3.3-2.5c1.2,0,2.4,0.4,3.3,1.2l-0.7,1.1c-0.7-0.7-1.6-1.1-2.6-1.1c-1.1,0-1.8,0.4-1.8,1.1s0.9,1,2,1.2
			c1.5,0.3,3.3,0.8,3.3,2.7c0,1.5-1.2,2.6-3.5,2.6c-1.3,0.1-2.6-0.4-3.6-1.3L127.4,562.9z"/>
		<g>
			<defs>
				<rect id="SVGID_1_" width="300" height="600"/>
			</defs>
			<clipPath id="SVGID_00000112615313966405639910000010775523115789944739_">
				<use xlink:href="#SVGID_1_"  style="overflow:visible;"/>
			</clipPath>
			<g style="clip-path:url(#SVGID_00000112615313966405639910000010775523115789944739_);">
				<path class="st0" d="M62.1,555c-3.2,4.4-6.4,8.9-9.6,13.3l-0.1,0.2c-0.2,0.3-0.4,0.3-0.6,0c-0.7-1-1.4-1.9-2.1-2.8
					c-2.4-3.4-4.8-6.8-7.3-10.1c-1.1-1.5-1.9-3.1-2.4-4.9c-0.2-0.9-0.3-1.9-0.4-2.8c0-6.2,4.5-11.5,10.6-12.5
					c6.7-1,13,3.5,14.1,10.2C65,548.9,64.2,552.3,62.1,555 M65.2,545c-1.2-6.1-6.4-10.5-12.6-10.7c-7.4-0.2-13.6,5.7-13.8,13.1
					c0,0.6,0,1.1,0.1,1.7c0.3,2.4,1.2,4.7,2.6,6.6c3.4,4.7,6.8,9.3,10.1,14c0.4,0.5,0.7,0.5,1,0l2.9-4.1c2.5-3.5,5.1-7,7.6-10.5
					c1.5-2.2,2.4-4.9,2.4-7.6C65.4,546.7,65.4,545.8,65.2,545"/>
				<path class="st0" d="M52.1,555.8c-4.6,0-8.2-3.7-8.2-8.3c0-4.6,3.7-8.2,8.3-8.2c4.6,0,8.2,3.7,8.2,8.3c0,0,0,0,0,0
					C60.3,552.1,56.7,555.8,52.1,555.8 M64.4,545.5c-1.2-6.8-7.6-11.3-14.4-10.2c-6,1-10.4,6.3-10.3,12.4c0,1,0.1,1.9,0.4,2.8
					c0.5,1.8,1.3,3.4,2.4,4.9c2.5,3.3,4.9,6.7,7.3,10.1c0.7,1,1.4,1.9,2.1,2.8c0.2,0.3,0.4,0.3,0.6,0l0.1-0.2
					c3.2-4.4,6.4-8.9,9.6-13.3C64.2,552.2,65,548.8,64.4,545.5"/>
				<path class="st0" d="M52.1,554.9c-4.1,0-7.3-3.3-7.3-7.3s3.3-7.3,7.3-7.3s7.3,3.3,7.3,7.3c0,0,0,0,0,0
					C59.4,551.6,56.2,554.9,52.1,554.9 M52.1,539.3c-4.6,0-8.2,3.7-8.3,8.2c0,4.6,3.7,8.2,8.2,8.3c4.5,0,8.2-3.7,8.3-8.2
					C60.4,543,56.7,539.3,52.1,539.3C52.1,539.3,52.1,539.3,52.1,539.3"/>
			</g>
		</g>
	</g>
</g>
</svg>
