<?xml version="1.0" encoding="utf-8"?>
<!-- Generator: Adobe Illustrator 26.0.3, SVG Export Plug-In . SVG Version: 6.00 Build 0)  -->
<svg version="1.1" id="Layer_1" xmlns="http://www.w3.org/2000/svg" xmlns:xlink="http://www.w3.org/1999/xlink" x="0px" y="0px"
	 viewBox="0 0 300 600" style="enable-background:new 0 0 300 600;" xml:space="preserve">
<style type="text/css">
	.st0{fill:#FFFFFF;}
	.st1{clip-path:url(#SVGID_00000114794714602407360270000015945757541067042200_);}
</style>
<g>
	<g>
		<path class="st0" d="M78.2,477.4v-11.9h8v1.6H80v3.5h6v1.6h-6v5.3L78.2,477.4z"/>
		<path class="st0" d="M87.8,466.3c0-0.6,0.4-1,1-1s1,0.4,1,1s-0.4,1-1,1S87.8,466.9,87.8,466.3z M88.1,477.4v-8.6h1.6v8.6H88.1z"/>
		<path class="st0" d="M91.7,473.1c0.1-2.4,2.1-4.3,4.5-4.2s4.3,2.1,4.2,4.5c-0.1,2.4-2,4.2-4.4,4.2c-2.4,0-4.3-1.9-4.3-4.3
			C91.7,473.3,91.7,473.2,91.7,473.1z M98.7,473.1c0-1.6-1-3.1-2.7-3.1c-1.6,0.1-2.8,1.4-2.7,2.9c0,0.1,0,0.1,0,0.2
			c0,1.6,1,3.1,2.7,3.1S98.7,474.7,98.7,473.1L98.7,473.1z"/>
		<path class="st0" d="M102.4,477.4v-8.6h1.6v1.3c0.7-0.9,1.7-1.5,2.8-1.5v1.6c-0.2,0-0.4-0.1-0.6,0c-0.9,0.1-1.7,0.5-2.3,1.2v6
			H102.4z"/>
		<path class="st0" d="M114.6,477.4v-1.2c-0.7,0.9-1.7,1.4-2.8,1.4c-2.2,0-3.9-1.7-3.9-4.5s1.6-4.5,3.9-4.5c1.1,0,2.2,0.6,2.8,1.5
			v-4.5h1.6v11.9L114.6,477.4z M114.6,471.3c-0.6-0.8-1.4-1.3-2.4-1.3c-1.6,0-2.6,1.3-2.6,3.1s1,3.1,2.6,3.1c1,0,1.8-0.5,2.4-1.2
			V471.3z"/>
		<path class="st0" d="M118.8,477.4v-11.9h1.6v11.9H118.8z"/>
		<path class="st0" d="M128.3,477.4v-1c-0.7,0.8-1.8,1.2-2.8,1.2c-1.6,0.1-2.9-1.1-3-2.7c0,0,0-0.1,0-0.1c0-1.5,1.2-2.8,2.7-2.8
			c0.1,0,0.2,0,0.3,0c1.1-0.1,2.1,0.4,2.8,1.1v-1.4c0-1.1-0.9-1.7-2.1-1.7c-1,0-1.9,0.4-2.6,1.1l-0.7-1.1c0.9-0.9,2.2-1.4,3.5-1.4
			c1.9,0,3.5,0.8,3.5,3v5.8L128.3,477.4z M128.3,474.1c-0.5-0.7-1.4-1-2.2-1c-0.9-0.1-1.8,0.5-1.9,1.5c-0.1,0.9,0.5,1.8,1.5,1.9
			c0.2,0,0.3,0,0.5,0c0.9,0,1.7-0.3,2.2-1V474.1z"/>
		<path class="st0" d="M138.3,477.4v-5.5c0-1.4-0.7-1.9-1.8-1.9c-0.9,0-1.8,0.5-2.4,1.2v6.2h-1.6v-8.6h1.6v1.2
			c0.8-0.9,1.8-1.4,3-1.4c1.4-0.2,2.6,0.8,2.8,2.1c0,0.2,0,0.4,0,0.6v6L138.3,477.4z"/>
		<path class="st0" d="M148.6,477.4v-1.2c-0.7,0.9-1.7,1.4-2.8,1.4c-2.2,0-3.9-1.7-3.9-4.5s1.6-4.5,3.9-4.5c1.1,0,2.2,0.6,2.8,1.5
			v-4.5h1.6v11.9L148.6,477.4z M148.6,471.3c-0.5-0.8-1.4-1.3-2.4-1.3c-1.6,0-2.6,1.3-2.6,3.1s1,3.1,2.6,3.1c0.9,0,1.8-0.5,2.4-1.2
			V471.3z"/>
		<path class="st0" d="M86.5,493.6v-5.3H80v5.3h-1.8v-11.9H80v5h6.6v-5h1.8v11.9H86.5z"/>
		<path class="st0" d="M90.7,482.5c0-0.5,0.5-1,1-1c0.6,0,1,0.4,1,1s-0.4,1-1,1S90.7,483.1,90.7,482.5z M90.9,493.6V485h1.6v8.6
			H90.9z"/>
		<path class="st0" d="M95.1,491.3c0.8,0.8,1.8,1.2,2.9,1.2c1.2,0,1.9-0.5,1.9-1.2s-1-1.1-2.1-1.4c-1.5-0.3-3.2-0.7-3.2-2.6
			c0-1.4,1.2-2.5,3.3-2.5c1.2,0,2.4,0.4,3.3,1.2l-0.7,1.1c-0.7-0.7-1.6-1.1-2.6-1.1c-1.1,0-1.8,0.4-1.8,1.1s0.9,1,2,1.2
			c1.5,0.3,3.3,0.8,3.3,2.7c0,1.5-1.2,2.6-3.5,2.6c-1.3,0.1-2.6-0.4-3.6-1.3L95.1,491.3z"/>
		<path class="st0" d="M103.8,491.7v-5.3h-1.4V485h1.4v-2.4h1.6v2.4h1.8v1.4h-1.8v4.9c0,0.6,0.3,1.1,0.8,1.1c0.3,0,0.6-0.1,0.9-0.3
			l0.4,1.2c-0.5,0.4-1.1,0.6-1.7,0.5c-1,0.1-1.9-0.6-2.1-1.7C103.7,492,103.7,491.9,103.8,491.7z"/>
		<path class="st0" d="M108.4,489.3c0.1-2.4,2.1-4.3,4.5-4.2c2.4,0.1,4.3,2.1,4.2,4.5c-0.1,2.3-2,4.2-4.4,4.2
			c-2.4,0-4.3-1.8-4.4-4.2C108.4,489.5,108.4,489.4,108.4,489.3z M115.4,489.3c0-1.6-1-3.1-2.7-3.1c-1.6,0.1-2.8,1.4-2.7,2.9
			c0,0.1,0,0.1,0,0.2c0,1.6,1,3.1,2.7,3.1S115.4,490.9,115.4,489.3L115.4,489.3z"/>
		<path class="st0" d="M119.1,493.6V485h1.6v1.3c0.7-0.9,1.7-1.5,2.8-1.5v1.6c-0.2,0-0.4-0.1-0.6,0c-0.9,0.1-1.7,0.5-2.3,1.2v6
			L119.1,493.6z"/>
		<path class="st0" d="M124.9,482.5c0-0.6,0.5-1,1-1c0.6,0,1,0.5,1,1s-0.5,1-1,1C125.4,483.6,124.9,483.1,124.9,482.5L124.9,482.5z
			 M125.2,493.6V485h1.6v8.6H125.2z"/>
		<path class="st0" d="M133.2,484.8c1.3-0.1,2.5,0.5,3.2,1.5l-1.1,1c-0.5-0.7-1.2-1.1-2.1-1.1c-1.7,0.2-2.9,1.7-2.7,3.5
			c0.2,1.4,1.3,2.6,2.7,2.7c0.8,0,1.6-0.4,2.1-1.1l1.1,1c-0.8,1-2,1.6-3.2,1.5c-2.5-0.1-4.4-2.2-4.3-4.7
			C129,486.8,130.8,484.9,133.2,484.8L133.2,484.8z"/>
		<path class="st0" d="M142.3,487.7c-0.1-3.3,2.5-6.1,5.8-6.2c0.1,0,0.2,0,0.3,0c1.9-0.1,3.7,0.9,4.7,2.5l-1.5,0.8
			c-0.7-1.1-1.9-1.8-3.2-1.7c-2.5,0.2-4.4,2.3-4.3,4.9c0.2,2.3,2,4.1,4.3,4.3c1.3,0,2.5-0.6,3.2-1.7l1.5,0.8c-1,1.6-2.8,2.6-4.7,2.5
			c-3.3,0.1-6-2.6-6.1-5.9C142.3,487.9,142.3,487.8,142.3,487.7z"/>
		<path class="st0" d="M154.9,493.6V485h1.6v1.3c0.7-0.9,1.7-1.5,2.8-1.5v1.6c-0.2,0-0.4-0.1-0.6,0c-0.9,0.1-1.7,0.5-2.3,1.2v6
			L154.9,493.6z"/>
		<path class="st0" d="M166.8,493.6v-1.2c-0.8,0.9-1.9,1.4-3.1,1.4c-1.3,0.2-2.6-0.7-2.8-2.1c0-0.2,0-0.5,0-0.7V485h1.6v5.5
			c0,1.4,0.7,1.9,1.8,1.9c0.9,0,1.8-0.5,2.4-1.2V485h1.6v8.6H166.8z"/>
		<path class="st0" d="M170.7,482.5c0-0.5,0.5-1,1-1c0.6,0,1,0.5,1,1s-0.5,1-1,1C171.1,483.6,170.7,483.1,170.7,482.5
			C170.7,482.6,170.7,482.5,170.7,482.5z M170.9,493.6V485h1.6v8.6H170.9z"/>
		<path class="st0" d="M175.1,491.3c0.8,0.8,1.8,1.2,2.9,1.2c1.2,0,1.9-0.5,1.9-1.2s-1-1.1-2.1-1.4c-1.5-0.3-3.2-0.7-3.2-2.6
			c0-1.4,1.2-2.5,3.3-2.5c1.2,0,2.4,0.4,3.3,1.2l-0.7,1.1c-0.7-0.7-1.6-1.1-2.6-1.1c-1.1,0-1.8,0.4-1.8,1.1s0.9,1,2,1.2
			c1.5,0.3,3.3,0.8,3.3,2.7c0,1.5-1.2,2.6-3.5,2.6c-1.3,0.1-2.6-0.4-3.6-1.3L175.1,491.3z"/>
		<path class="st0" d="M187.2,484.8c2.6,0,4.2,2,4.2,4.7v0.4h-6.8c0.1,1.5,1.4,2.7,2.9,2.7c0.9,0,1.9-0.3,2.6-1l0.8,1
			c-0.9,0.9-2.2,1.3-3.5,1.3c-2.5-0.1-4.5-2.2-4.4-4.7C183,486.8,184.9,484.9,187.2,484.8L187.2,484.8z M184.6,488.7h5.3
			c0-1.4-1.1-2.6-2.5-2.6c0,0-0.1,0-0.1,0C185.8,486.1,184.6,487.2,184.6,488.7z"/>
		<path class="st0" d="M193.4,491.3c0.8,0.8,1.8,1.2,2.9,1.2c1.2,0,1.9-0.5,1.9-1.2s-1-1.1-2.1-1.4c-1.5-0.3-3.2-0.7-3.2-2.6
			c0-1.4,1.2-2.5,3.3-2.5c1.2,0,2.4,0.4,3.3,1.2l-0.7,1.1c-0.7-0.7-1.6-1.1-2.6-1.1c-1.1,0-1.8,0.4-1.8,1.1s0.9,1,2,1.2
			c1.5,0.3,3.3,0.8,3.3,2.7c0,1.5-1.2,2.6-3.5,2.6c-1.3,0.1-2.6-0.4-3.6-1.3L193.4,491.3z"/>
		<g>
			<defs>
				<rect id="SVGID_1_" width="300" height="600"/>
			</defs>
			<clipPath id="SVGID_00000146466225285992740310000008182110635385844907_">
				<use xlink:href="#SVGID_1_"  style="overflow:visible;"/>
			</clipPath>
			<g style="clip-path:url(#SVGID_00000146466225285992740310000008182110635385844907_);">
				<path class="st0" d="M62.1,480c-3.2,4.4-6.4,8.9-9.6,13.3l-0.1,0.2c-0.2,0.3-0.4,0.3-0.6,0c-0.7-1-1.4-1.9-2.1-2.9
					c-2.4-3.4-4.8-6.8-7.3-10.1c-1.1-1.5-1.9-3.1-2.4-4.9c-0.2-0.9-0.3-1.9-0.4-2.9c0-6.2,4.5-11.5,10.6-12.5
					c6.7-1,13,3.5,14.1,10.2C65,473.9,64.2,477.3,62.1,480 M65.2,470c-1.2-6.1-6.4-10.5-12.6-10.7c-7.4-0.2-13.6,5.7-13.8,13.1
					c0,0.6,0,1.1,0.1,1.7c0.3,2.4,1.2,4.7,2.6,6.6c3.4,4.7,6.8,9.3,10.1,14c0.4,0.5,0.7,0.5,1,0l2.9-4.1c2.5-3.5,5.1-7,7.6-10.5
					c1.5-2.2,2.4-4.9,2.4-7.6C65.4,471.7,65.4,470.8,65.2,470"/>
				<path class="st0" d="M52.1,480.8c-4.6,0-8.2-3.7-8.2-8.3s3.7-8.2,8.3-8.2s8.2,3.7,8.2,8.3c0,0,0,0,0,0
					C60.3,477.1,56.7,480.8,52.1,480.8 M64.4,470.5c-1.2-6.8-7.6-11.3-14.4-10.2c-6,1-10.4,6.3-10.3,12.4c0,1,0.1,1.9,0.4,2.9
					c0.5,1.8,1.3,3.4,2.4,4.9c2.5,3.4,4.9,6.7,7.3,10.1c0.7,1,1.4,1.9,2.1,2.9c0.2,0.3,0.4,0.3,0.6,0l0.1-0.2
					c3.2-4.4,6.4-8.9,9.6-13.3C64.2,477.2,65,473.8,64.4,470.5"/>
				<path class="st0" d="M52.1,479.9c-4.1,0-7.3-3.3-7.3-7.3s3.3-7.3,7.3-7.3s7.3,3.3,7.3,7.3c0,0,0,0,0,0
					C59.4,476.6,56.2,479.9,52.1,479.9 M52.1,464.3c-4.6,0-8.2,3.7-8.3,8.2c0,4.6,3.7,8.2,8.2,8.3c4.5,0,8.2-3.7,8.3-8.2
					C60.4,468,56.7,464.3,52.1,464.3C52.1,464.3,52.1,464.3,52.1,464.3"/>
			</g>
		</g>
	</g>
</g>
</svg>
