<?xml version="1.0" encoding="utf-8"?>
<!-- Generator: Adobe Illustrator 26.0.3, SVG Export Plug-In . SVG Version: 6.00 Build 0)  -->
<svg version="1.1" id="Layer_1" xmlns="http://www.w3.org/2000/svg" xmlns:xlink="http://www.w3.org/1999/xlink" x="0px" y="0px"
	 viewBox="0 0 300 600" style="enable-background:new 0 0 300 600;" xml:space="preserve">
<style type="text/css">
	.st0{clip-path:url(#SVGID_00000035501744888118805510000002623595526372072102_);}
	.st1{fill:#FFFFFF;}
</style>
<g>
	<g>
		<g>
			<defs>
				<rect id="SVGID_1_" x="38.8" y="514" width="125.9" height="56"/>
			</defs>
			<clipPath id="SVGID_00000004521168979611750270000006184369226222019746_">
				<use xlink:href="#SVGID_1_"  style="overflow:visible;"/>
			</clipPath>
			<g style="clip-path:url(#SVGID_00000004521168979611750270000006184369226222019746_);">
				<path class="st1" d="M51.5,514.6h6v55h-6V514.6z M158.2,514.6h-7v55h7.3c4.1,0,6.1-2,6.1-6.1v-43.1
					C164.8,516.4,162.8,514.6,158.2,514.6 M159.2,562c0,1.3-0.4,1.9-1.4,1.9h-0.6v-43.7h0.6c1.1,0,1.4,0.4,1.4,2V562z M38.8,569.7
					h6.1v-24.6l4.7-3.8V534l-4.7,3.8v-17.6h4.7v-5.6H38.8V569.7z M97.7,514.6h-7v55H98c4.1,0,6.2-2,6.2-6.1v-43.1
					C104.2,516.4,102.2,514.6,97.7,514.6 M98.6,562c0,1.3-0.4,1.9-1.4,1.9h-0.6v-43.7h0.6c1.1,0,1.4,0.4,1.4,2V562z M66.6,514
					c-4.7,0-7,2.9-7,9.2V562c0,5.5,2.1,7.9,6.7,7.9c2.3,0.1,4.4-0.9,5.9-2.6c0.8-1,1.1-2.3,1.1-4.7v-40.8
					C73.2,516.7,70.9,514,66.6,514 M67.6,562.6c0,1.4-0.3,1.9-1.1,1.9s-1.2-0.5-1.2-1.8v-40.9c0-1.5,0.3-2,1.2-2s1.1,0.4,1.1,2
					V562.6z M143.8,546.4l-3.8-31.8h-6.3v49.4l-8.5-49.4h-1.7l-7.4,49.4h-3.7v-49.4h-6.2v55.1h14.6l3.6-29.9l4.8,29.9h10v-27.6
					l3.4,27.6h6.6v-55.1h-5.3L143.8,546.4z M86.3,543.9c1.6-1.2,2.4-3,2.3-5v-18.3c0-3.8-2.3-6-6.6-6h-6.7v55h5.9v-22.9h0.5
					c0.7,0,1.1,0.2,1.1,0.5v22.3h6v-20.5C88.8,546.2,88.1,544.7,86.3,543.9 M82.9,539.8c0,1.3-0.2,1.5-1,1.5c-0.2,0-0.4,0-0.7-0.1
					v-21h0.5c1,0,1.2,0.3,1.2,1.8L82.9,539.8z"/>
			</g>
		</g>
	</g>
</g>
</svg>
