<svg xmlns="http://www.w3.org/2000/svg" xmlns:xlink="http://www.w3.org/1999/xlink" viewBox="0 0 42.44 42.44"><defs><style>.cls-1{fill:url(#linear-gradient);}.cls-2{fill:url(#linear-gradient-2);}.cls-3{fill:url(#linear-gradient-3);}.cls-4{fill:url(#linear-gradient-4);}.cls-5{fill:url(#linear-gradient-5);}.cls-6{fill:url(#linear-gradient-6);}.cls-7{fill:url(#linear-gradient-7);}.cls-8{fill:url(#linear-gradient-8);}.cls-9{fill:url(#linear-gradient-9);}.cls-10{fill:url(#linear-gradient-10);}.cls-11{fill:url(#linear-gradient-11);}.cls-12{fill:url(#linear-gradient-12);}.cls-13{fill:url(#linear-gradient-13);}.cls-14{fill:url(#linear-gradient-14);}.cls-15{fill:url(#linear-gradient-15);}.cls-16{fill:url(#linear-gradient-16);}.cls-17{fill:url(#linear-gradient-17);}</style><linearGradient id="linear-gradient" x1="35.33" y1="-15.31" x2="-4.74" y2="40.07" gradientUnits="userSpaceOnUse"><stop offset="0" stop-color="#7b7b90"/><stop offset="0.19" stop-color="#74748a"/><stop offset="0.48" stop-color="#5f5f78"/><stop offset="0.82" stop-color="#3e3e5c"/><stop offset="1" stop-color="#2a2a4b"/></linearGradient><linearGradient id="linear-gradient-2" x1="51.4" y1="-3.69" x2="11.33" y2="51.7" xlink:href="#linear-gradient"/><linearGradient id="linear-gradient-3" x1="51.82" y1="-3.38" x2="11.75" y2="52.01" xlink:href="#linear-gradient"/><linearGradient id="linear-gradient-4" x1="34.92" y1="-15.61" x2="-5.16" y2="39.77" xlink:href="#linear-gradient"/><linearGradient id="linear-gradient-5" x1="43.56" y1="-9.36" x2="3.49" y2="46.03" xlink:href="#linear-gradient"/><linearGradient id="linear-gradient-6" x1="43.26" y1="-9.57" x2="3.19" y2="45.81" xlink:href="#linear-gradient"/><linearGradient id="linear-gradient-7" x1="54.5" y1="-1.44" x2="14.43" y2="53.94" xlink:href="#linear-gradient"/><linearGradient id="linear-gradient-8" x1="32.53" y1="-17.34" x2="-7.55" y2="38.04" xlink:href="#linear-gradient"/><linearGradient id="linear-gradient-9" x1="38.85" y1="-12.77" x2="-1.23" y2="42.62" xlink:href="#linear-gradient"/><linearGradient id="linear-gradient-10" x1="48.03" y1="-6.12" x2="7.96" y2="49.26" xlink:href="#linear-gradient"/><linearGradient id="linear-gradient-11" x1="54.09" y1="-1.75" x2="14.01" y2="53.64" xlink:href="#linear-gradient"/><linearGradient id="linear-gradient-12" x1="32.91" y1="-17.07" x2="-7.16" y2="38.32" xlink:href="#linear-gradient"/><linearGradient id="linear-gradient-13" x1="48.66" y1="-5.67" x2="8.59" y2="49.72" xlink:href="#linear-gradient"/><linearGradient id="linear-gradient-14" x1="38.11" y1="-13.3" x2="-1.96" y2="42.09" xlink:href="#linear-gradient"/><linearGradient id="linear-gradient-15" x1="53.49" y1="-2.17" x2="13.42" y2="53.21" xlink:href="#linear-gradient"/><linearGradient id="linear-gradient-16" x1="33.47" y1="-16.66" x2="-6.6" y2="38.73" xlink:href="#linear-gradient"/><linearGradient id="linear-gradient-17" x1="43.42" y1="-9.46" x2="3.34" y2="45.92" xlink:href="#linear-gradient"/></defs><g id="Layer_2" data-name="Layer 2"><g id="Layer_1-2" data-name="Layer 1"><g id="ground"><path class="cls-1" d="M21,15,20.93,0,15.21,2l4.13,13.26A6.15,6.15,0,0,1,21,15Z"/><path class="cls-2" d="M21.22,27.46h-.15l.08,15,6.08-1.94L23.07,27.19A6.32,6.32,0,0,1,21.22,27.46Z"/><path class="cls-3" d="M27.45,21l15-.08-2-5.72L27.18,19.34A6.55,6.55,0,0,1,27.45,21Z"/><path class="cls-4" d="M15,21.22s0-.1,0-.15L0,21.15l1.93,6.08,13.32-4.16A6.33,6.33,0,0,1,15,21.22Z"/><path class="cls-5" d="M25.61,16.63,36.14,6,30.68,3.36,24.23,15.65A6.81,6.81,0,0,1,25.61,16.63Z"/><path class="cls-6" d="M16.93,25.61l-.1-.11L6.29,36.14,12,39.08l6.47-12.36A5.89,5.89,0,0,1,16.93,25.61Z"/><path class="cls-7" d="M25.8,25.61,36.45,36.14l2.63-5.46-12.3-6.45A6.11,6.11,0,0,1,25.8,25.61Z"/><path class="cls-8" d="M16.83,16.93l.1-.1L6.29,6.29,3.36,12l12.35,6.47A6.18,6.18,0,0,1,16.83,16.93Z"/><path class="cls-9" d="M23.68,15.38,29.6,1.62l-6.05-.45L22.05,15A6.29,6.29,0,0,1,23.68,15.38Z"/><path class="cls-10" d="M18.88,26.91l-.13-.06L12.83,40.6l6.35.66L20.69,27.4A6.25,6.25,0,0,1,18.88,26.91Z"/><path class="cls-11" d="M27.05,23.68,40.81,29.6l.45-6.05-13.8-1.5A6.29,6.29,0,0,1,27.05,23.68Z"/><path class="cls-12" d="M15.52,18.88s.05-.08.07-.13L1.83,12.83l-.66,6.35L15,20.69A6.56,6.56,0,0,1,15.52,18.88Z"/><path class="cls-13" d="M27,18.73l13.92-5.54-4-4.6L26.15,17.28A6.53,6.53,0,0,1,27,18.73Z"/><path class="cls-14" d="M15.47,23.49s0-.1-.05-.14L1.51,28.89l4,5L16.4,25.11A6.16,6.16,0,0,1,15.47,23.49Z"/><path class="cls-15" d="M23.71,27l5.54,13.92,4.6-4-8.7-10.82A6.46,6.46,0,0,1,23.71,27Z"/><path class="cls-16" d="M19,15.47l.14-.05L13.54,1.51l-4.95,4L17.33,16.4A6,6,0,0,1,19,15.47Z"/><circle class="cls-17" cx="21.22" cy="21.22" r="2.53"/></g></g></g></svg>