<?xml version="1.0" encoding="UTF-8"?><svg xmlns="http://www.w3.org/2000/svg" viewBox="0 0 320 100"><defs><style>.e{fill:none;stroke:#fff;stroke-miterlimit:10;stroke-width:.8px;}</style></defs><g id="a"/><g id="b"/><g id="c"/><g id="d"><g><path class="e" d="M53.83,72.36h-5.02l1.17-5.56h16.13l-1.17,5.56h-5.02l-2.85,13.42h-6.1l2.85-13.42Z"/><path class="e" d="M77.93,66.26c6.16,0,10.03,4.26,10.03,9.35,0,5.94-5.02,10.71-11.52,10.71-6.16,0-10.03-4.26-10.03-9.35,0-5.94,5.02-10.71,11.52-10.71Zm-1.22,14.64c2.85,0,5.15-2.22,5.15-5.15,0-2.17-1.74-4.07-4.2-4.07-2.85,0-5.15,2.22-5.15,5.15,0,2.17,1.74,4.07,4.2,4.07Z"/><path class="e" d="M100.35,66.8h6.1l-2.82,13.29h7.86l-1.19,5.69h-13.96l4.01-18.98Z"/><path class="e" d="M123.64,66.8h6.91l2.9,18.98h-6.24l-.33-3.66h-5.56l-1.84,3.66h-6.78l10.93-18.98Zm2.93,11.12l-.35-5.29h-.14l-2.63,5.29h3.12Z"/></g></g></svg>