<?xml version="1.0" encoding="UTF-8"?><svg xmlns="http://www.w3.org/2000/svg" viewBox="0 0 320 100"><defs><style>.e{fill:#f47b30;}.f{fill:#eb2227;}.g{fill:#fff;}.h{fill:#ffc216;}.i{fill:#bcbec0;}.j{fill:#231f20;}</style></defs><g id="a"/><g id="b"/><g id="c"/><g id="d"><g><g><path class="i" d="M231.68,22.96c0,3.23,0,8.13-.02,8.36v13.42l.02,5.93c-.07,1.76-1.5,3.15-3.27,3.14l-45.23-.02v-.07c-8.67-.74-15.53-8.07-15.53-16.92,0-9.36,7.62-16.98,16.98-16.98l43.89-.02c.84,0,1.63,.33,2.23,.92,.59,.6,.92,1.39,.92,2.23"/><path class="j" d="M230.38,22.96c0-1.02-.82-1.84-1.84-1.84l-43.89,.02c-8.66,0-15.67,7.02-15.67,15.67s6.94,15.59,15.53,15.67h0l43.92,.02c1.05,0,1.92-.83,1.96-1.89v-11.63l-.02-7.72c0-.16,.01-3.91,.01-8.31"/><path class="f" d="M229.07,22.96c0-.19-.1-.32-.16-.38-.06-.06-.18-.16-.38-.16l-37.6,.02c5.53,2.42,9.39,7.94,9.39,14.36s-3.87,11.96-9.42,14.37l37.51,.02c.35,0,.64-.27,.65-.63v-5.83l-.02-13.51c0-.24,.01-3.83,.01-8.27"/><path class="e" d="M184.6,47.42c-5.35,0-10.03-2.17-12.5-5.39,2.05,4.88,6.88,8.32,12.5,8.32s10.45-3.44,12.5-8.32c-2.47,3.22-7.15,5.39-12.5,5.39"/><path class="e" d="M172.1,31.58c2.47-3.22,7.15-5.39,12.5-5.39s10.03,2.17,12.5,5.39c-2.05-4.88-6.88-8.32-12.5-8.32s-10.45,3.44-12.5,8.32"/><path class="g" d="M198.95,36.81c0-7.91-6.44-14.35-14.35-14.35s-14.35,6.44-14.35,14.35,6.44,14.35,14.35,14.35,14.35-6.44,14.35-14.35m-26.84,5.22c2.47,3.22,7.15,5.39,12.5,5.39s10.03-2.18,12.5-5.39c-2.05,4.88-6.88,8.32-12.5,8.32s-10.45-3.44-12.5-8.32m24.99-10.45c-2.47-3.22-7.15-5.39-12.5-5.39s-10.03,2.18-12.5,5.39c2.05-4.88,6.88-8.32,12.5-8.32s10.45,3.44,12.5,8.32m1.03,4.7h-6.21v.82h6.22c-.22,5.27-6.2,9.5-13.53,9.5s-13.32-4.24-13.54-9.5h4.6v-.81h-4.59c.37-5.16,6.3-9.28,13.53-9.28s13.15,4.12,13.53,9.28"/><polygon class="g" points="178.39 36.22 178.39 42.24 176.37 42.24 176.37 31.08 178.69 31.08 180.07 37.14 180.07 31.08 182.16 31.08 182.16 42.24 179.74 42.24 178.39 36.22"/><path class="g" d="M188.19,40.19c0,1.49-.62,2.06-1.91,2.06h-3.32v-11.16h3.32c1.3,0,1.91,.57,1.91,2.05v1.27c0,1.3-.38,1.87-1.25,2.02,.87,.14,1.25,.73,1.25,2.01v1.75Zm-2.26-7.05c0-.27-.17-.41-.35-.41h-.38v2.88h.36c.17,0,.36-.14,.36-.4v-2.07Zm0,4.54c0-.25-.19-.4-.36-.4h-.36v3.32h.38c.17,0,.35-.14,.35-.41v-2.51Z"/><polygon class="g" points="188.96 31.08 191.2 31.08 191.2 40.5 192.83 40.5 192.83 42.24 188.96 42.24 188.96 31.08"/><path class="g" d="M214.67,49.57c-6.89,0-10.82-1.1-12.2-3.41-.38-.64-.42-1.42-.42-1.42v-13.49s0-.12,0-.29v-.68c0-.12,.01-.23,.02-.32,.37-2.87,4.66-5.72,12.6-5.72s12.23,2.85,12.6,5.72c.05,.42,.01,1.29,.01,1.29v13.49s-.03,.78-.41,1.42c-1.38,2.3-5.31,3.41-12.2,3.41"/><path class="g" d="M225.38,48.54c.1,0,.18,0,.18-.12,0-.09-.09-.11-.16-.11h-.16v.23h.14Zm-.14,.42h-.11v-.75h.29c.18,0,.27,.07,.27,.21,0,.14-.08,.19-.2,.21l.21,.33h-.13l-.2-.33h-.13v.33Zm.15,.18c.3,0,.53-.23,.53-.55s-.23-.54-.53-.54-.53,.23-.53,.54,.23,.55,.53,.55m-.66-.55c0-.38,.3-.65,.66-.65s.66,.28,.66,.65-.3,.66-.66,.66-.66-.28-.66-.66"/><path class="h" d="M214.63,48.79c7.39,0,11.13-1.3,11.8-3.78,.11-.45-.26-.59-.62-.59h-22.35c-.37,0-.74,.14-.62,.59,.67,2.48,4.41,3.78,11.8,3.78"/><path class="h" d="M214.63,25.01c-7.39,0-11.33,2.54-11.8,5.09-.11,.59,.26,.79,.62,.79h22.35c.37,0,.74-.2,.62-.79-.48-2.55-4.41-5.09-11.8-5.09"/><path class="f" d="M224.18,33.16l-.47-.75c-.14-.26-.58-.31-.81-.22-.3,.11-.45,.44-.31,.7l.93,1.51c.07,.12,.1,.19,.1,.31v1.09c0,.31,.37,.45,.63,.45s.63-.15,.63-.45v-1.09c0-.12,0-.17,.1-.31l.93-1.52c.14-.26-.02-.58-.31-.7-.23-.09-.67-.04-.81,.22l-.47,.74c-.04,.06-.08,.06-.12,0m-2.84,5.14c-.18,.12,0,.36,.15,.35,.17-.01,.85-.61,.58-1.2-.07-.15-.22-.27-.41-.27-.24,0-.43,.19-.43,.42,0,.29,.17,.37,.23,.39,.05,.02,.04,.06,.03,.09-.03,.1-.06,.14-.15,.23m2.51,4.89c-.8,0-1.27-.15-1.67-.51-.31-.31-.18-.68-.06-.86,.12-.19,.39-.47,.88-.23,.43,.22,.49,.17,.69,.17,.3,0,.44-.23,.44-.48s-.22-.34-.38-.37l-.36-.07c-.69-.14-1.39-.67-1.38-1.45,0-1.3,.81-2.17,2.12-2.17h0c.71,0,1.05,.11,1.45,.51,.31,.31,.18,.67,.06,.85-.12,.19-.39,.48-.88,.23-.36-.19-.43-.16-.59-.16-.26,0-.4,.18-.4,.41,0,.2,.23,.3,.36,.34l.4,.1c.75,.19,1.4,.72,1.41,1.65,.01,1.2-.66,2.06-2.11,2.06m-2.91-4.74l-1.18,1.44s-.24,.25-.05,.5c.21,.28,1.15,1.38,1.15,1.38,0,0,.63,.59-.02,1.16-.64,.56-1.01,.08-1.01,.08l-1.53-1.85s-.16-.15-.16,.12v1.26c0,.45-.49,.66-.82,.66s-.83-.21-.83-.66v-4.67c0-.45,.49-.66,.83-.66s.83,.21,.83,.66v1.25c0,.16,.1,.16,.16,.07l1.38-1.65c.31-.39,.77-.4,1.14-.09,.33,.28,.4,.63,.11,.99m-15.88,4.73c1.27,0,1.63-.81,1.63-1.68v-3.67c0-.45-.48-.66-.82-.66s-.83,.21-.83,.66v3.37c.04,.54-.31,.67-.44,.28-.19-.48-.67-.37-.85-.28-.18,.09-.45,.34-.34,.8,.19,.7,.69,1.18,1.64,1.18m4.55-2.17h-.55c-.05,0-.09-.03-.07-.1l.27-.87c.03-.13,.14-.14,.17,0l.27,.87c.03,.08,0,.1-.09,.1m.54,1.32l.08,.27c.09,.39,.61,.62,.92,.56,.34-.06,.73-.44,.58-.87l-1.4-4.52c-.13-.45-.66-.58-.98-.59-.32,.01-.85,.15-.98,.59l-1.4,4.52c-.14,.43,.25,.81,.58,.87,.3,.05,.83-.17,.92-.56l.08-.27c.02-.08,.06-.1,.13-.1h1.35c.1,0,.1,.04,.12,.1m3.17-2.13c0,.8,.31,1.52,1.18,1.52,.24,0,.27-.03,.56-.17,.52-.24,.8,.04,.93,.24,.13,.19,.27,.59-.06,.91-.33,.34-.8,.53-1.51,.53-1.65,0-2.8-1.24-2.8-3.03s1.15-3.03,2.8-3.03c.7,0,1.15,.16,1.51,.53,.33,.32,.19,.71,.06,.9-.13,.19-.41,.48-.93,.24-.27-.12-.32-.17-.56-.17-.87,0-1.18,.74-1.18,1.54h0Zm-8.49-5.46c-.08,0-.15,.03-.15,.13v.93c0,.31-.37,.45-.63,.45s-.63-.15-.63-.45v-3.2c0-.31,.37-.45,.63-.45s.63,.15,.63,.45v.86c0,.09,.07,.13,.14,.13h.64c.08,0,.14-.04,.14-.13v-.86c0-.31,.37-.45,.63-.45s.63,.15,.63,.45v3.2c0,.31-.37,.45-.63,.45s-.63-.15-.63-.45v-.93c0-.1-.07-.13-.14-.13h-.63Zm12.63,0c-.46,0-.53-.31-.53-.54s.1-.52,.54-.52h.89c.31,0,.51,.12,.51,.42v1.14c0,.66-.83,1.01-1.76,1.01-1.19,0-2.12-.66-2.12-2.11,0-1.24,.87-2.09,2.13-2.09,.64,0,1.13,.14,1.47,.43,.25,.22,.14,.51,.05,.65-.1,.13-.31,.34-.71,.16-.39-.18-.51-.18-.75-.18-.67,0-.9,.49-.9,1.05s.29,1.01,.79,1.01c.41,0,.56-.13,.54-.34,0-.08-.04-.09-.16-.09m3.27-.87c.25,0,.46-.17,.46-.44s-.09-.45-.48-.45c-.14,0-.18,.03-.23,.09v.73c0,.08,.09,.07,.25,.07m1.15,.59c-.06,.04-.05,.08-.02,.12l.68,.89c.18,.23,0,.56-.23,.7-.21,.13-.66,.15-.84-.08l-.87-1.13c-.05-.06-.12-.04-.12,.04v.84c0,.3-.36,.42-.61,.42s-.61-.13-.61-.42v-3.24c0-.3,.32-.45,.61-.45h1.16c1.03,0,1.39,.8,1.39,1.22,0,.38-.11,.81-.54,1.1m-12.98,1.81c.75,0,1.62-.49,1.62-1.19v-2.54c0-.3-.37-.43-.62-.43s-.62,.13-.62,.43v2.3c0,.17-.2,.26-.38,.26s-.38-.1-.38-.26v-2.3c0-.3-.37-.43-.62-.43s-.62,.13-.62,.43v2.54c0,.7,.86,1.19,1.62,1.19m3.28-1.69v1.21c0,.27-.38,.46-.64,.46s-.64-.15-.64-.46v-3.24c0-.31,.38-.49,.64-.49,.33,0,.52,.18,.68,.38l1.01,1.27c.08,.1,.2,.12,.2,.03v-1.2c0-.31,.38-.49,.64-.49s.64,.17,.64,.49v3.24c0,.31-.38,.46-.64,.46-.22,0-.37,0-.64-.33-.27-.33-1.07-1.34-1.07-1.34-.06-.07-.17-.09-.17,0"/></g><g><path class="g" d="M178.14,60.99v1.52c0,.64-.1,1.08-.29,1.32-.19,.24-.54,.36-1.03,.36s-.84-.12-1.03-.36-.29-.68-.29-1.33v-1.52c0-.64,.1-1.08,.29-1.32s.54-.36,1.03-.36,.84,.12,1.03,.36,.29,.68,.29,1.32Zm-.97-.21c0-.31-.02-.5-.08-.59-.05-.09-.14-.14-.27-.14s-.22,.05-.27,.14c-.05,.09-.08,.29-.08,.59v1.96c0,.3,.03,.5,.08,.59,.05,.09,.14,.14,.27,.14s.22-.05,.27-.14c.05-.09,.08-.29,.08-.59v-1.96Z"/><path class="g" d="M178.93,59.39h1.98v.73h-1v1.23h.94v.73h-.94v2.04h-.97v-4.73Z"/><path class="g" d="M181.55,59.39h1.98v.73h-1v1.23h.94v.73h-.94v2.04h-.97v-4.73Z"/><path class="g" d="M184.2,59.39h.98v4.73h-.98v-4.73Z"/><path class="g" d="M188.54,60.7v.18h-.95v-.1c0-.3-.02-.5-.07-.59-.05-.09-.13-.14-.25-.14s-.21,.05-.25,.14c-.05,.09-.07,.29-.07,.59v1.96c0,.3,.03,.49,.07,.59,.05,.1,.13,.14,.26,.14s.2-.04,.25-.13,.07-.26,.07-.52v-.27h.95v.26c0,.52-.09,.88-.28,1.08-.18,.21-.51,.31-.97,.31-.5,0-.84-.12-1.03-.36s-.29-.68-.29-1.33v-1.52c0-.64,.1-1.08,.29-1.32,.19-.24,.54-.36,1.04-.36,.46,0,.78,.1,.96,.31s.28,.56,.28,1.07Z"/><path class="g" d="M189.27,59.39h.98v4.73h-.98v-4.73Z"/><path class="g" d="M191.67,59.39h1.25l.78,4.73h-.95l-.12-.99h-.82l-.16,.99h-.86l.88-4.73Zm.59,.81l-.32,2.19h.6l-.26-2.19h-.03Z"/><path class="g" d="M194.22,59.39h.97v4h1.12v.73h-2.1v-4.73Z"/><path class="g" d="M200.97,60.99v1.52c0,.64-.1,1.08-.29,1.32-.19,.24-.54,.36-1.03,.36s-.84-.12-1.03-.36-.29-.68-.29-1.33v-1.52c0-.64,.1-1.08,.29-1.32s.54-.36,1.03-.36,.84,.12,1.03,.36,.29,.68,.29,1.32Zm-.97-.21c0-.31-.02-.5-.08-.59-.05-.09-.14-.14-.27-.14s-.22,.05-.27,.14c-.05,.09-.08,.29-.08,.59v1.96c0,.3,.03,.5,.08,.59,.05,.09,.14,.14,.27,.14s.22-.05,.27-.14c.05-.09,.08-.29,.08-.59v-1.96Z"/><path class="g" d="M201.75,59.39h1.28l.7,4h.06l-.07-4h.8v4.73h-1.29l-.69-4.01h-.06l.06,4.01h-.79v-4.73Z"/><path class="g" d="M205.24,62.03h1.34v.89h-1.34v-.89Z"/><path class="g" d="M207.29,59.39h.94c.37,0,.64,.03,.83,.09,.19,.06,.34,.16,.46,.29,.12,.13,.21,.3,.26,.51,.05,.21,.08,.5,.08,.88v1.18c0,.38-.03,.67-.08,.88-.05,.21-.14,.38-.26,.52-.12,.13-.28,.23-.47,.29-.19,.06-.47,.09-.83,.09h-.94v-4.73Zm.99,.73v3.27h.09c.2,0,.33-.04,.41-.11,.08-.07,.11-.2,.11-.39v-2.27c0-.19-.04-.32-.11-.39-.08-.07-.21-.11-.41-.11h-.09Z"/><path class="g" d="M210.65,59.39h1.94v.73h-.96v1.16h.9v.73h-.9v1.38h1.05v.73h-2.02v-4.73Z"/><path class="g" d="M213.35,59.39h1.33l.43,3.4h.05l.48-3.4h1.31v4.73h-.81v-3.88h-.06l-.55,3.88h-.87l-.49-3.88h-.06v3.88h-.76v-4.73Z"/><path class="g" d="M218.35,59.39h1.25l.78,4.73h-.95l-.12-.99h-.82l-.16,.99h-.86l.88-4.73Zm.59,.81l-.32,2.19h.6l-.26-2.19h-.03Z"/><path class="g" d="M220.91,59.39h1.28l.7,4h.06l-.07-4h.8v4.73h-1.29l-.69-4.01h-.06l.06,4.01h-.79v-4.73Z"/><path class="g" d="M224.47,59.39h.94c.37,0,.64,.03,.83,.09,.19,.06,.34,.16,.46,.29,.12,.13,.21,.3,.26,.51,.05,.21,.08,.5,.08,.88v1.18c0,.38-.03,.67-.08,.88-.05,.21-.14,.38-.26,.52-.12,.13-.28,.23-.47,.29-.19,.06-.47,.09-.83,.09h-.94v-4.73Zm.99,.73v3.27h.09c.2,0,.33-.04,.41-.11,.08-.07,.11-.2,.11-.39v-2.27c0-.19-.04-.32-.11-.39-.08-.07-.21-.11-.41-.11h-.09Z"/><path class="g" d="M164.57,65.97h.94c.37,0,.64,.03,.83,.09,.19,.06,.34,.16,.46,.29,.12,.13,.21,.3,.26,.51,.05,.21,.08,.5,.08,.88v1.18c0,.38-.03,.67-.08,.88-.05,.21-.14,.38-.26,.52-.12,.13-.28,.23-.47,.29-.19,.06-.47,.09-.83,.09h-.94v-4.73Zm.99,.73v3.27h.09c.2,0,.33-.04,.41-.11,.08-.07,.11-.2,.11-.39v-2.27c0-.19-.04-.32-.11-.39-.08-.07-.21-.11-.41-.11h-.09Z"/><path class="g" d="M167.93,65.97h1.94v.73h-.96v1.16h.9v.73h-.9v1.38h1.05v.73h-2.02v-4.73Z"/><path class="g" d="M170.63,65.97h.97v4h1.12v.73h-2.1v-4.73Z"/><path class="g" d="M173.19,65.97h.98v4.73h-.98v-4.73Z"/><path class="g" d="M174.69,65.97h.96l.42,3.51h.07l.41-3.51h.82l-.78,4.73h-1.04l-.86-4.73Z"/><path class="g" d="M177.88,65.97h1.94v.73h-.96v1.16h.9v.73h-.9v1.38h1.05v.73h-2.02v-4.73Z"/><path class="g" d="M180.58,65.97h1.18c.46,0,.8,.09,1,.26s.3,.45,.3,.84v.2c0,.34-.07,.59-.22,.76s-.39,.27-.72,.32c.35,.03,.59,.13,.73,.3,.14,.17,.21,.47,.21,.89v1.16h-.98v-1.45c0-.24-.03-.39-.1-.45s-.2-.09-.39-.09h-.11v2h-.91v-4.73Zm.91,.71v1.33h.09c.19,0,.32-.04,.39-.12s.11-.22,.11-.42v-.25c0-.2-.04-.34-.11-.42-.07-.08-.2-.12-.39-.12h-.09Z"/><path class="g" d="M183.48,65.97h.98l.41,1.99h.05l.39-1.99h.87l-.88,2.83v1.91h-.97v-1.91l-.85-2.83Z"/><path class="g" d="M188.23,65.97h1.02c.52,0,.89,.1,1.1,.29,.21,.2,.32,.53,.32,.99v.31c0,.44-.1,.77-.31,.98-.2,.21-.52,.31-.95,.31h-.27v1.84h-.91v-4.73Zm.91,.71v1.48h.09c.18,0,.3-.04,.37-.13s.1-.24,.1-.47v-.28c0-.22-.04-.38-.1-.47-.07-.09-.19-.13-.37-.13h-.09Z"/><path class="g" d="M191.69,65.97h1.25l.78,4.73h-.95l-.12-.99h-.82l-.16,.99h-.86l.88-4.73Zm.59,.81l-.32,2.19h.6l-.26-2.19h-.03Z"/><path class="g" d="M194.25,65.97h1.18c.46,0,.8,.09,1,.26s.3,.45,.3,.84v.2c0,.34-.07,.59-.22,.76s-.39,.27-.72,.32c.35,.03,.59,.13,.73,.3,.14,.17,.21,.47,.21,.89v1.16h-.98v-1.45c0-.24-.03-.39-.1-.45s-.2-.09-.39-.09h-.11v2h-.91v-4.73Zm.91,.71v1.33h.09c.19,0,.32-.04,.39-.12s.11-.22,.11-.42v-.25c0-.2-.04-.34-.11-.42-.07-.08-.2-.12-.39-.12h-.09Z"/><path class="g" d="M197.24,65.97h2.46v.73h-.73v4h-1v-4h-.73v-.73Z"/><path class="g" d="M200.26,65.97h1.28l.7,4h.06l-.07-4h.8v4.73h-1.29l-.69-4.01h-.06l.06,4.01h-.79v-4.73Z"/><path class="g" d="M203.83,65.97h1.94v.73h-.96v1.16h.9v.73h-.9v1.38h1.05v.73h-2.02v-4.73Z"/><path class="g" d="M206.53,65.97h1.18c.46,0,.8,.09,1,.26s.3,.45,.3,.84v.2c0,.34-.07,.59-.22,.76s-.39,.27-.72,.32c.35,.03,.59,.13,.73,.3,.14,.17,.21,.47,.21,.89v1.16h-.98v-1.45c0-.24-.03-.39-.1-.45s-.2-.09-.39-.09h-.11v2h-.91v-4.73Zm.91,.71v1.33h.09c.19,0,.32-.04,.39-.12s.11-.22,.11-.42v-.25c0-.2-.04-.34-.11-.42-.07-.08-.2-.12-.39-.12h-.09Z"/><path class="g" d="M213.97,67.58v1.52c0,.64-.1,1.08-.29,1.32-.19,.24-.54,.36-1.03,.36s-.84-.12-1.03-.36-.29-.68-.29-1.33v-1.52c0-.64,.1-1.08,.29-1.32s.54-.36,1.03-.36,.84,.12,1.03,.36,.29,.68,.29,1.32Zm-.97-.21c0-.31-.02-.5-.08-.59-.05-.09-.14-.14-.27-.14s-.22,.05-.27,.14c-.05,.09-.08,.29-.08,.59v1.96c0,.3,.03,.5,.08,.59,.05,.09,.14,.14,.27,.14s.22-.05,.27-.14c.05-.09,.08-.29,.08-.59v-1.96Z"/><path class="g" d="M214.75,65.97h1.98v.73h-1v1.23h.94v.73h-.94v2.04h-.97v-4.73Z"/><path class="g" d="M218.71,65.97h2.46v.73h-.73v4h-1v-4h-.73v-.73Z"/><path class="g" d="M221.73,65.97h.97v1.87h.67v-1.87h.97v4.73h-.97v-2.13h-.67v2.13h-.97v-4.73Z"/><path class="g" d="M225.15,65.97h1.94v.73h-.96v1.16h.9v.73h-.9v1.38h1.05v.73h-2.02v-4.73Z"/><path class="g" d="M229.43,65.97h1.28l.7,4h.06l-.07-4h.8v4.73h-1.29l-.69-4.01h-.06l.06,4.01h-.79v-4.73Z"/><path class="g" d="M232.99,65.97h1.18c.46,0,.8,.09,1,.26s.3,.45,.3,.84v.2c0,.27-.06,.49-.18,.65-.12,.16-.3,.27-.54,.32,.26,.04,.46,.15,.59,.31,.14,.16,.2,.38,.2,.64v.42c0,.39-.1,.67-.3,.84s-.54,.26-1,.26h-1.26v-4.73Zm.91,.7v1.24h.09c.19,0,.32-.04,.39-.11,.07-.07,.11-.2,.11-.39v-.24c0-.19-.04-.32-.11-.39-.07-.07-.2-.11-.39-.11h-.09Zm0,1.92v1.43h.11c.22,0,.37-.04,.45-.13,.08-.08,.12-.23,.12-.45v-.28c0-.22-.04-.37-.12-.45-.08-.08-.23-.12-.45-.12h-.11Z"/><path class="g" d="M236.23,65.97h.97v4h1.12v.73h-2.1v-4.73Z"/></g></g></g></svg>