<?xml version="1.0" encoding="UTF-8"?><svg xmlns="http://www.w3.org/2000/svg" viewBox="0 0 320 100"><defs><style>.e{fill:#fff;}</style></defs><g id="a"/><g id="b"/><g id="c"/><g id="d"><g><path class="e" d="M17.32,41.14h15.05l-1.06,5.02h-8.95l-.49,2.3h6.78l-.92,4.34h-6.78l-.49,2.3h9.22l-1.06,5.02H13.3l4.01-18.98Z"/><path class="e" d="M40.84,41.14h6.91l2.9,18.98h-6.24l-.33-3.66h-5.56l-1.84,3.66h-6.78l10.93-18.98Zm2.93,11.12l-.35-5.29h-.14l-2.63,5.29h3.12Z"/><path class="e" d="M56.89,46.7h-5.02l1.17-5.56h16.13l-1.17,5.56h-5.02l-2.85,13.42h-6.1l2.85-13.42Z"/><path class="e" d="M79.36,53.34l-4.2-12.2h6.24l1.6,7.19h.14l4.64-7.19h7.05l-9.35,12.2-1.44,6.78h-6.1l1.44-6.78Z"/><path class="e" d="M104.01,40.6c6.16,0,10.03,4.26,10.03,9.35,0,5.94-5.02,10.71-11.52,10.71-6.16,0-10.03-4.26-10.03-9.35,0-5.94,5.02-10.71,11.52-10.71Zm-1.22,14.64c2.85,0,5.15-2.22,5.15-5.15,0-2.17-1.74-4.07-4.2-4.07-2.85,0-5.15,2.22-5.15,5.15,0,2.17,1.74,4.07,4.2,4.07Z"/><path class="e" d="M118.44,41.14h6.1l-2.25,10.68c-.03,.14-.08,.43-.08,.65,0,1.49,.87,2.63,2.49,2.63s2.82-1.17,3.15-2.68l2.39-11.28h6.1l-2.52,11.9c-.95,4.5-4.77,7.62-9.49,7.62-5.18,0-8.27-3.31-8.27-7.65,0-.84,.11-1.22,.22-1.76l2.17-10.11Z"/><path class="e" d="M140.11,41.14h8.46c3.93,0,6.64,2.77,6.64,6.24,0,2.3-1.03,3.9-2.09,4.96-.62,.6-1.3,1.08-2.09,1.49l2.01,6.29h-5.86l-1.63-5.42h-2.22l-1.14,5.42h-6.1l4.01-18.98Zm7.19,8.41c1.06,0,1.82-.79,1.82-1.79,0-.95-.54-1.46-1.63-1.46h-2.36l-.71,3.25h2.88Z"/><path class="e" d="M163.45,41.14h6.1l.35,10.44h.14l5.21-10.44h4.88l.76,10.44h.14l4.8-10.44h6.91l-10.25,18.98h-5.42l-.95-10.03h-.11l-5.18,10.03h-5.15l-2.22-18.98Z"/><path class="e" d="M198.37,41.14h6.91l2.9,18.98h-6.24l-.33-3.66h-5.56l-1.84,3.66h-6.78l10.93-18.98Zm2.93,11.12l-.35-5.29h-.14l-2.63,5.29h3.12Z"/><path class="e" d="M213.71,53.34l-4.2-12.2h6.24l1.6,7.19h.14l4.64-7.19h7.05l-9.35,12.2-1.44,6.78h-6.1l1.44-6.78Z"/></g></g></svg>