<svg xmlns="http://www.w3.org/2000/svg" viewBox="0 0 320 100"><defs><style>.cls-1{fill:#701010;}.cls-2{fill:#fff;}</style></defs><g id="Layer_1" data-name="Layer 1"><path class="cls-1" d="M23.44,16.28h8.72l-.64,3.06H26.33L26,21h3.93l-.61,2.83H25.37l-.72,3.46H21.11Z"/><path class="cls-1" d="M38.62,16c3.57,0,5.82,2.47,5.82,5.42a6.39,6.39,0,0,1-6.68,6.21c-3.57,0-5.82-2.47-5.82-5.42A6.4,6.4,0,0,1,38.62,16Zm-.71,8.49a3,3,0,0,0,3-3,2.37,2.37,0,0,0-2.44-2.35,2.94,2.94,0,0,0-3,3A2.37,2.37,0,0,0,37.91,24.45Z"/><path class="cls-1" d="M47.25,16.28h4.9A3.63,3.63,0,0,1,56,19.89a4,4,0,0,1-1.21,2.88,5,5,0,0,1-1.21.86l1.16,3.65H51.35l-.94-3.15H49.12l-.66,3.15H44.92Zm4.16,4.87a1,1,0,0,0,1.05-1c0-.55-.31-.85-.94-.85H50.15l-.4,1.89Z"/><path class="cls-1" d="M63.14,23.35,60.7,16.28h3.61l.93,4.16h.08L68,16.28h4.08l-5.42,7.07-.83,3.93H62.3Z"/><path class="cls-1" d="M77.48,16c3.57,0,5.82,2.47,5.82,5.42a6.39,6.39,0,0,1-6.68,6.21c-3.57,0-5.82-2.47-5.82-5.42A6.4,6.4,0,0,1,77.48,16Zm-.7,8.49a3,3,0,0,0,3-3,2.37,2.37,0,0,0-2.43-2.35,3,3,0,0,0-3,3A2.38,2.38,0,0,0,76.78,24.45Z"/><path class="cls-1" d="M85.9,16.28h3.54l-1.3,6.19a1.85,1.85,0,0,0,0,.38,1.39,1.39,0,0,0,1.45,1.52,1.86,1.86,0,0,0,1.82-1.56l1.38-6.53h3.54l-1.46,6.9a5.51,5.51,0,0,1-5.51,4.41c-3,0-4.79-1.92-4.79-4.43a3.78,3.78,0,0,1,.13-1Z"/><path class="cls-1" d="M98.52,16.28h4.9a3.63,3.63,0,0,1,3.85,3.61,4,4,0,0,1-1.21,2.88,5,5,0,0,1-1.21.86L106,27.28h-3.39l-.94-3.15h-1.29l-.66,3.15H96.19Zm4.16,4.87a1,1,0,0,0,1-1c0-.55-.31-.85-.94-.85h-1.37l-.4,1.89Z"/><path class="cls-1" d="M122.14,25.86a6,6,0,0,1-1.21.87,7.19,7.19,0,0,1-3.49.86,5.43,5.43,0,0,1-5.75-5.37A6.39,6.39,0,0,1,118.38,16a6.11,6.11,0,0,1,3.87,1.28,4.66,4.66,0,0,1,1.13,1.27l-2.5,2.09a3.39,3.39,0,0,0-.63-.74,2.91,2.91,0,0,0-2-.75,3,3,0,0,0-3,2.92,2.38,2.38,0,0,0,2.55,2.42,4.26,4.26,0,0,0,1.89-.47,3.65,3.65,0,0,0,.72-.49Z"/><path class="cls-1" d="M125.45,16.28H129l-.81,3.85h3.3l.81-3.85h3.54l-2.33,11H130l.85-4H127.5l-.84,4h-3.54Z"/><path class="cls-1" d="M140.91,16.28h4l1.68,11H143l-.19-2.12h-3.22l-1.07,2.12h-3.93Zm1.69,6.44-.2-3.06h-.08l-1.53,3.06Z"/><path class="cls-1" d="M149.81,16.28h3.06l2.91,5.54L157,16.28h3.54l-2.33,11h-3.06l-2.91-5.53L151,27.28h-3.54Z"/><path class="cls-1" d="M171.35,25.86a5.75,5.75,0,0,1-1.21.87,7.16,7.16,0,0,1-3.49.86,5.43,5.43,0,0,1-5.75-5.37A6.4,6.4,0,0,1,167.59,16a6.11,6.11,0,0,1,3.87,1.28,4.66,4.66,0,0,1,1.13,1.27l-2.5,2.09a3.14,3.14,0,0,0-.63-.74,2.89,2.89,0,0,0-2-.75,2.94,2.94,0,0,0-3,2.92A2.37,2.37,0,0,0,167,24.45a4.26,4.26,0,0,0,1.89-.47,3.38,3.38,0,0,0,.72-.49Z"/><path class="cls-1" d="M174.66,16.28h8.72l-.61,2.9h-5.19l-.28,1.34h3.93L180.69,23h-3.93l-.28,1.33h5.35l-.62,2.91h-8.88Z"/><path class="cls-1" d="M193.38,19.5h-2.91l.68-3.22h9.35l-.68,3.22h-2.91l-1.65,7.78h-3.53Z"/><path class="cls-1" d="M206.94,16c3.57,0,5.82,2.47,5.82,5.42a6.39,6.39,0,0,1-6.68,6.21c-3.57,0-5.82-2.47-5.82-5.42A6.4,6.4,0,0,1,206.94,16Zm-.71,8.49a3,3,0,0,0,3-3,2.37,2.37,0,0,0-2.43-2.35,3,3,0,0,0-3,3A2.37,2.37,0,0,0,206.23,24.45Z"/><path class="cls-2" d="M22.66,32.76h4.79l.27,8.2h.11l4.09-8.2h3.83l.59,8.2h.11l3.77-8.2h5.43l-8,14.9H33.34l-.74-7.87h-.09l-4.06,7.87H24.4Z"/><path class="cls-2" d="M46.62,32.76h4.79l-3.15,14.9H43.47Z"/><path class="cls-2" d="M54.12,32.76h4.15l3.93,7.52,1.6-7.52h4.79l-3.15,14.9H61.29l-3.94-7.49-1.6,7.49H51Z"/><path class="cls-2" d="M79.31,32.76h5.43L87,47.66h-4.9l-.26-2.87H77.5l-1.45,2.87H70.73Zm2.3,8.73-.28-4.15h-.1l-2.07,4.15Z"/><path class="cls-2" d="M95,32.76h4.79L97.61,43.19h6.17l-.93,4.47h-11Z"/><path class="cls-2" d="M113.55,32.34c4.83,0,7.88,3.34,7.88,7.34,0,4.66-3.94,8.41-9.05,8.41-4.83,0-7.88-3.34-7.88-7.35C104.5,36.08,108.44,32.34,113.55,32.34Zm-1,11.49a4,4,0,0,0,4-4,3.22,3.22,0,0,0-3.3-3.2,4,4,0,0,0-4,4A3.22,3.22,0,0,0,112.59,43.83Z"/><path class="cls-2" d="M124,42.38a4.56,4.56,0,0,0,.79.9,3.36,3.36,0,0,0,2.21.87c.92,0,1.36-.43,1.36-.94,0-1.47-5.4-2.06-5.4-5.91,0-2.62,2.23-5,6.06-5a7.81,7.81,0,0,1,4.49,1.25,5.14,5.14,0,0,1,1.32,1.26l-3.21,2.68a2.48,2.48,0,0,0-.51-.62,2.57,2.57,0,0,0-1.77-.64c-.79,0-1.17.32-1.17.75,0,1.49,5.43,2.11,5.43,6,0,2.66-2.53,5.11-6.28,5.11a8.59,8.59,0,0,1-4.94-1.49,7.46,7.46,0,0,1-1.57-1.49Z"/><path class="cls-2" d="M145.4,32.76h5.43l2.27,14.9h-4.89L148,44.79h-4.36l-1.45,2.87h-5.32Zm2.3,8.73-.28-4.15h-.11l-2.06,4.15Z"/><path class="cls-2" d="M157,32.76h4.15l3.94,7.52,1.6-7.52h4.79l-3.16,14.9h-4.15l-3.93-7.49-1.6,7.49h-4.79Z"/><path class="cls-2" d="M180,39.36h6.92l-1.36,6.54a7.92,7.92,0,0,1-1.62,1.1,9.7,9.7,0,0,1-4.6,1.09c-4.7,0-7.79-3.34-7.79-7.28,0-4.75,3.94-8.47,9.07-8.47a8.26,8.26,0,0,1,5.23,1.72,6.72,6.72,0,0,1,1.54,1.72L184,38.62a4.26,4.26,0,0,0-.85-1,3.93,3.93,0,0,0-2.72-1,4,4,0,0,0-4.09,4,3.22,3.22,0,0,0,3.45,3.28,5.14,5.14,0,0,0,1.36-.17l.51-.19L182,42H179.4Z"/><path class="cls-2" d="M190.56,32.76h11.81l-.83,3.94h-7l-.39,1.81h5.32l-.72,3.41h-5.32l-.38,1.8h7.23l-.83,3.94h-12Z"/><path class="cls-2" d="M204.66,32.76h4.79l-2.21,10.43h6.17l-.94,4.47h-11Z"/><path class="cls-2" d="M216.69,32.76H228.5l-.83,3.94h-7l-.38,1.81h5.32l-.73,3.41h-5.32l-.38,1.8h7.24l-.83,3.94h-12Z"/><path class="cls-2" d="M230,42.38a4.9,4.9,0,0,0,.79.9,3.38,3.38,0,0,0,2.21.87c.92,0,1.37-.43,1.37-.94,0-1.47-5.41-2.06-5.41-5.91,0-2.62,2.23-5,6.07-5a7.86,7.86,0,0,1,4.49,1.25,5.3,5.3,0,0,1,1.32,1.26l-3.22,2.68a2.11,2.11,0,0,0-.51-.62,2.54,2.54,0,0,0-1.76-.64c-.79,0-1.18.32-1.18.75,0,1.49,5.43,2.11,5.43,6,0,2.66-2.53,5.11-6.28,5.11a8.61,8.61,0,0,1-4.94-1.49,8,8,0,0,1-1.57-1.49Z"/><path class="cls-2" d="M24.68,53.24h4.79l-1.11,5.21h4.47l1.11-5.21h4.79l-3.15,14.9H30.79l1.15-5.43H27.47l-1.15,5.43H21.53Z"/><path class="cls-2" d="M47.83,52.81c4.83,0,7.88,3.34,7.88,7.35,0,4.66-3.94,8.4-9.05,8.4-4.83,0-7.87-3.34-7.87-7.34C38.79,56.56,42.72,52.81,47.83,52.81Zm-1,11.5a4,4,0,0,0,4.05-4.05,3.21,3.21,0,0,0-3.3-3.19,4,4,0,0,0-4,4A3.22,3.22,0,0,0,46.87,64.31Z"/><path class="cls-2" d="M59,53.24h4.79L61.6,63.67h6.17l-.94,4.47h-11Z"/><path class="cls-2" d="M71.05,53.24h4.79l-3.15,14.9H67.9Z"/><path class="cls-2" d="M78.54,53.24h5.25c4.69,0,7.28,3.17,7.28,6.92,0,4.34-3.95,8-8.68,8h-7Zm4,10.85a3.65,3.65,0,0,0,3.68-3.83,2.94,2.94,0,0,0-3.08-3h-.69L81,64.09Z"/><path class="cls-2" d="M97.73,53.24h5.42l2.28,14.9h-4.89l-.26-2.88H95.92l-1.45,2.88H89.15ZM100,62l-.28-4.15h-.11L97.58,62Z"/><path class="cls-2" d="M109.36,62.82l-3.3-9.58H111l1.25,5.64h.11L116,53.24h5.53l-7.34,9.58L113,68.14h-4.79Z"/></g></svg>