<?xml version="1.0" encoding="UTF-8"?><svg xmlns="http://www.w3.org/2000/svg" viewBox="0 0 320 100"><defs><style>.e{fill:#fff;}.f{fill:#810b00;}.g{fill:none;stroke:#810b00;stroke-miterlimit:10;stroke-width:1.75px;}</style></defs><g id="a"/><g id="b"/><g id="c"/><g id="d"><g><rect class="g" x="18.38" y="47.19" width="223.17" height="30.94"/><g><path class="e" d="M35.8,57.43c3.02,0,5.32,2.31,5.32,5.11s-2.29,5.11-5.32,5.11-5.32-2.31-5.32-5.11,2.29-5.11,5.32-5.11Zm0,8.26c1.75,0,3.15-1.4,3.15-3.15s-1.4-3.15-3.15-3.15-3.15,1.4-3.15,3.15,1.4,3.15,3.15,3.15Z"/><path class="e" d="M42.66,60.58h1.89v.98h.07c.15-.21,.32-.39,.52-.56,.34-.28,.84-.56,1.51-.56h.14v2.03l-.15-.03c-.11-.01-.27-.04-.48-.04-.91,0-1.61,.7-1.61,1.82v3.22h-1.89v-6.86Z"/><path class="e" d="M52.73,66.46h-.07c-.14,.21-.32,.39-.53,.56-.38,.28-.91,.56-1.64,.56-1.62,0-3.08-1.47-3.08-3.57s1.46-3.57,3.08-3.57c.73,0,1.26,.28,1.64,.56,.21,.17,.39,.35,.53,.56h.07v-3.92h1.89v9.79h-1.89v-.98Zm.07-2.45c0-1.05-.77-1.82-1.75-1.82s-1.75,.77-1.75,1.82,.77,1.82,1.75,1.82,1.75-.77,1.75-1.82Z"/><path class="e" d="M62.67,66.46c-.21,.21-.46,.39-.76,.56-.5,.28-1.23,.56-2.18,.56-2.03,0-3.64-1.61-3.64-3.57s1.61-3.57,3.57-3.57,3.43,1.54,3.43,3.43c0,.27-.03,.45-.04,.6l-.03,.24h-4.97c.21,.63,.77,1.19,1.82,1.19,.6,0,1.04-.17,1.36-.38,.18-.11,.34-.24,.46-.39l.98,1.33Zm-1.54-3.15c-.21-.63-.76-1.19-1.54-1.19s-1.33,.56-1.54,1.19h3.08Z"/><path class="e" d="M64.49,60.58h1.89v.98h.07c.15-.21,.32-.39,.52-.56,.34-.28,.84-.56,1.51-.56h.14v2.03l-.15-.03c-.11-.01-.27-.04-.48-.04-.91,0-1.61,.7-1.61,1.82v3.22h-1.89v-6.86Z"/><path class="e" d="M71.2,60.58h2.03l1.26,4.06h.07l1.33-4.06h1.54l1.33,4.06h.07l1.26-4.06h2.03l-2.41,6.86h-1.72l-1.3-3.99h-.06l-1.3,3.99h-1.72l-2.41-6.86Z"/><path class="e" d="M83.91,57.57c.6,0,1.08,.49,1.08,1.05s-.49,1.05-1.09,1.05-1.08-.49-1.08-1.05,.49-1.05,1.09-1.05Zm-.95,3.01h1.89v6.86h-1.89v-6.86Z"/><path class="e" d="M87.22,62.47h-1.19v-1.75h.63c.52,0,.77-.28,.77-.84v-1.26h1.68v2.1h1.54v1.75h-1.54v2.31c0,.63,.35,.98,.91,.98,.21,0,.39-.03,.55-.07,.08-.01,.15-.04,.22-.07v1.75c-.11,.04-.24,.07-.36,.11-.22,.06-.55,.1-.9,.1-1.4,0-2.31-.9-2.31-2.52v-2.59Z"/><path class="e" d="M92.33,57.64h1.89v3.92h.07c.15-.21,.32-.39,.52-.56,.34-.28,.84-.56,1.51-.56,1.4,0,2.52,1.12,2.52,2.87v4.13h-1.89v-3.85c0-.84-.48-1.33-1.26-1.33-.84,0-1.47,.63-1.47,1.54v3.64h-1.89v-9.79Z"/><path class="e" d="M109.68,66.18c-.18,.27-.42,.49-.7,.7-.49,.35-1.18,.7-2.17,.7-2.03,0-3.64-1.61-3.64-3.57s1.61-3.57,3.64-3.57c.99,0,1.68,.35,2.17,.7,.28,.21,.52,.43,.7,.7l-1.19,1.19c-.13-.15-.28-.29-.45-.42-.29-.21-.71-.42-1.23-.42-.98,0-1.75,.77-1.75,1.82s.77,1.82,1.75,1.82c.52,0,.94-.21,1.23-.42,.17-.13,.32-.27,.45-.42l1.19,1.19Z"/><path class="e" d="M113.95,60.44c2.03,0,3.64,1.61,3.64,3.57s-1.61,3.57-3.64,3.57-3.64-1.61-3.64-3.57,1.61-3.57,3.64-3.57Zm1.75,3.57c0-1.05-.77-1.82-1.75-1.82s-1.75,.77-1.75,1.82,.77,1.82,1.75,1.82,1.75-.77,1.75-1.82Z"/><path class="e" d="M123.88,66.46h-.07c-.14,.21-.32,.39-.53,.56-.38,.28-.91,.56-1.64,.56-1.62,0-3.08-1.47-3.08-3.57s1.46-3.57,3.08-3.57c.73,0,1.26,.28,1.64,.56,.21,.17,.39,.35,.53,.56h.07v-3.92h1.89v9.79h-1.89v-.98Zm.07-2.45c0-1.05-.77-1.82-1.75-1.82s-1.75,.77-1.75,1.82,.77,1.82,1.75,1.82,1.75-.77,1.75-1.82Z"/><path class="e" d="M133.82,66.46c-.21,.21-.46,.39-.76,.56-.5,.28-1.23,.56-2.18,.56-2.03,0-3.64-1.61-3.64-3.57s1.61-3.57,3.57-3.57,3.43,1.54,3.43,3.43c0,.27-.03,.45-.04,.6l-.03,.24h-4.97c.21,.63,.77,1.19,1.82,1.19,.6,0,1.04-.17,1.36-.38,.18-.11,.34-.24,.46-.39l.98,1.33Zm-1.54-3.15c-.21-.63-.76-1.19-1.54-1.19s-1.33,.56-1.54,1.19h3.08Z"/></g><rect class="f" x="146.58" y="47.19" width="94.96" height="30.94"/><g><path class="e" d="M159.96,56.74h3.73c3.09,0,5.39,2.22,5.39,5.12,0,3.41-2.85,6.08-6.48,6.08h-5l2.37-11.19Zm2.81,8.48c1.81,0,3.18-1.34,3.18-3.21,0-1.34-.8-2.54-2.51-2.54h-1.02l-1.23,5.76h1.58Z"/><path class="e" d="M174.83,56.74h3.36l1.87,11.19h-3.12l-.3-2.4h-3.68l-1.29,2.4h-3.44l6.6-11.19Zm1.54,6.32l-.32-3.2h-.06l-1.7,3.2h2.08Z"/><path class="e" d="M182.77,64.24c.18,.27,.37,.5,.61,.69,.4,.37,.99,.69,1.81,.69,.88,0,1.36-.46,1.36-.96,0-1.29-4.32-1.52-4.32-4.56,0-1.92,1.78-3.68,4.4-3.68,1.47,0,2.48,.45,3.1,.88,.37,.27,.66,.56,.9,.88l-2.08,1.82c-.11-.18-.26-.32-.43-.46-.3-.24-.77-.48-1.39-.48-.75,0-1.18,.42-1.18,.82,0,1.31,4.3,1.5,4.3,4.54,0,2.1-1.7,3.84-4.57,3.84-1.66,0-2.77-.54-3.52-1.1-.43-.32-.78-.69-1.06-1.1l2.08-1.81Z"/><path class="e" d="M193.23,56.74h3.04l-.86,4.08h4.08l.86-4.08h3.04l-2.37,11.19h-3.04l.9-4.24h-4.08l-.9,4.24h-3.04l2.37-11.19Z"/><path class="e" d="M211.62,65.05l-.61,2.88h-8.32c.9-6.08,6.72-5.6,6.72-7.68,0-.56-.42-.96-1.07-.96-.5,0-.88,.21-1.14,.45-.14,.13-.29,.27-.4,.43l-2.35-1.31c.29-.46,.64-.86,1.05-1.21,.7-.62,1.78-1.23,3.26-1.23,2.4,0,3.92,1.57,3.92,3.44,0,3.29-4.4,3.85-5.23,5.2h4.16Z"/><path class="e" d="M215.46,56.74h3.04l-1.76,8.32h4.88l-.61,2.88h-7.92l2.37-11.19Z"/><path class="e" d="M227.86,56.74h3.36l1.87,11.19h-3.12l-.3-2.4h-3.68l-1.3,2.4h-3.44l6.6-11.19Zm1.54,6.32l-.32-3.2h-.06l-1.7,3.2h2.08Z"/></g></g></g></svg>