<?xml version="1.0" encoding="UTF-8"?><svg xmlns="http://www.w3.org/2000/svg" viewBox="0 0 320 100"><defs><style>.e{fill:#fff;}</style></defs><g id="a"/><g id="b"/><g id="c"/><g id="d"><g><path class="e" d="M52.6,15.34c3.05,0,5.36,2.31,5.36,5.21s-2.31,5.21-5.36,5.21h-3.6c-.15,0-.27-.12-.27-.27V15.61c0-.15,.12-.27,.27-.27h3.6Zm-1.64,2.01v6.41h1.64c1.71,0,3.13-1.42,3.13-3.2s-1.34-3.2-3.13-3.2h-1.64Z"/><path class="e" d="M65.84,15.12c3.2,0,5.66,2.46,5.66,5.44s-2.46,5.44-5.66,5.44-5.66-2.46-5.66-5.44,2.46-5.44,5.66-5.44m0,8.86c1.86,0,3.44-1.49,3.44-3.43s-1.58-3.43-3.44-3.43-3.42,1.49-3.42,3.43,1.56,3.43,3.42,3.43"/><path class="e" d="M79.3,15.12c3.2,0,5.66,2.46,5.66,5.44s-2.46,5.44-5.66,5.44-5.66-2.46-5.66-5.44,2.46-5.44,5.66-5.44m0,8.86c1.86,0,3.44-1.49,3.44-3.43s-1.58-3.43-3.44-3.43-3.42,1.49-3.42,3.43,1.56,3.43,3.42,3.43"/><path class="e" d="M87.92,15.61c0-.15,.12-.27,.27-.27h4.35c2.09,0,3.58,1.52,3.58,3.43,0,2.23-1.86,3.05-1.86,3.05l2.01,3.54c.1,.18-.03,.4-.23,.4h-1.76c-.1,0-.19-.05-.24-.14l-1.93-3.51h-1.94v3.38c0,.15-.12,.27-.27,.27h-1.69c-.15,0-.27-.12-.27-.27V15.61Zm4.54,1.74h-2.31v2.76h2.31c.82,0,1.41-.6,1.41-1.34,0-.82-.6-1.42-1.41-1.42"/><path class="e" d="M103.57,15.39c3.05,0,5.36,2.31,5.36,5.21s-2.31,5.21-5.36,5.21h-3.6c-.15,0-.27-.12-.27-.27V15.66c0-.15,.12-.27,.27-.27h3.6Zm-1.64,2.01v6.41h1.64c1.71,0,3.13-1.42,3.13-3.2s-1.34-3.2-3.13-3.2h-1.64Z"/><path class="e" d="M113.74,23.3l-.83,2.28c-.04,.11-.14,.18-.25,.18h-1.8c-.19,0-.32-.19-.25-.37l3.88-9.89c.04-.1,.14-.17,.25-.17h2.01c.11,0,.21,.07,.25,.17l3.88,9.89c.07,.18-.06,.37-.25,.37h-1.8c-.11,0-.22-.07-.25-.18l-.83-2.28h-4.02Zm2.01-5.36l-1.27,3.43h2.53l-1.27-3.43Z"/><path class="e" d="M122.98,18.16c0-1.64,1.41-3.05,3.65-3.05,1.77,0,2.84,.83,3.24,1.22,.11,.1,.11,.27,0,.38l-1.01,1c-.1,.1-.26,.11-.37,.01-.28-.25-.88-.68-1.73-.68-.89,0-1.56,.52-1.56,1.12,0,1.94,5.28,.82,5.28,4.54,0,1.86-1.42,3.28-3.95,3.28-2.05,0-3.32-1.06-3.77-1.51-.1-.11-.1-.28,0-.38l.96-.96c.1-.1,.27-.11,.38,0,.33,.32,1.12,.93,2.28,.93s1.85-.6,1.85-1.34c0-1.94-5.28-.82-5.28-4.54"/><path class="e" d="M140.09,15.6v3.9h-4.47v-3.9c0-.15-.12-.27-.27-.27h-1.69c-.15,0-.27,.12-.27,.27v9.89c0,.15,.12,.27,.27,.27h1.69c.15,0,.27-.12,.27-.27v-3.98h4.47v3.98c0,.15,.12,.27,.27,.27h1.69c.15,0,.27-.12,.27-.27V15.6c0-.15-.12-.27-.27-.27h-1.69c-.15,0-.27,.12-.27,.27"/><path class="e" d="M39.9,16.69c-1.13-2.15-3.38-3.47-5.8-3.47H15.74c-.56,0-.84,.68-.44,1.08l4,4.02c.35,.36,.83,.56,1.33,.56h12.95c.78,0,1.48,.53,1.65,1.29,.24,1.08-.58,2.05-1.62,2.05h-8.92c-.56,0-.84,.68-.44,1.08l4,4.02c.35,.36,.83,.56,1.33,.56h4.03c5.25,0,9.22-5.61,6.29-11.19"/></g></g></svg>