<svg xmlns="http://www.w3.org/2000/svg" viewBox="0 0 159.9 66.19"><defs><style>.cls-1{fill:#a5714e;}</style></defs><title>t2-en-300x250</title><g id="Layer_2" data-name="Layer 2"><g id="Layer_1-2" data-name="Layer 1"><path class="cls-1" d="M12.49.35h2V13.92h-2Z"/><path class="cls-1" d="M29.4.35v13.8l-10-10.42V13.92h-.76V.12l10,10.42V.35Z"/><path class="cls-1" d="M49,1.11H44.88V13.92h-2V1.11H38.74V.35H49Z"/><path class="cls-1" d="M63.93,13.92h-2V7.38H54.62v6.54h-2V.35h2V6.62h7.31V.35h2Z"/><path class="cls-1" d="M70,1.11V6.62h5v.76H70v5.78h6v.76H68V.35h8v.76Z"/><path class="cls-1" d="M96.72,13.92h-2V7.38H87.41v6.54h-2V.35h2V6.62h7.31V.35h2Z"/><path class="cls-1" d="M102.74,1.11V6.62h5v.76h-5v5.78h6v.76h-8V.35h8v.76Z"/><path class="cls-1" d="M119.13,9.92h-5.26l-1.64,4h-.78L117.16,0l5.71,13.92h-2.1Zm-4.95-.76h4.64L116.5,3.5Z"/><path class="cls-1" d="M128.88,7.94l7.19,6h-1.14l-6.62-5.5v5.5h-2V.35h3.81c2.71,0,5,1.09,5,3.8s-2.25,3.79-5,3.79Zm.74-.76c2.37,0,3.35-1,3.35-3s-1-3-3.35-3h-1.31V7.18Z"/><path class="cls-1" d="M148.22,1.11h-4.16V13.92h-2V1.11h-4.16V.35h10.31Z"/><path class="cls-1" d="M7.3,40.19a7.05,7.05,0,1,1,0-14.1,7.05,7.05,0,1,1,0,14.1Zm5.13-7c0-3.69-2.06-6.29-5.13-6.29s-5.14,2.6-5.14,6.29,2.06,6.29,5.14,6.29S12.43,36.85,12.43,33.14Z"/><path class="cls-1" d="M20.19,27.11v5.51h5v.76h-5v6.55h-2V26.35h8v.76Z"/><path class="cls-1" d="M46.35,28.24a6.92,6.92,0,0,0-4.14-1.39c-3.08,0-5.13,2.53-5.13,6.29s2.05,6.29,5.12,6.29a6.69,6.69,0,0,0,4.52-1.82v1.25a7.65,7.65,0,0,1-4.53,1.33,7.05,7.05,0,1,1,0-14.1,9.17,9.17,0,0,1,4.16,1Z"/><path class="cls-1" d="M56.69,40.19a7.05,7.05,0,1,1,0-14.1,7.05,7.05,0,1,1,0,14.1Zm5.13-7c0-3.69-2.06-6.29-5.13-6.29s-5.14,2.6-5.14,6.29,2.06,6.29,5.14,6.29S61.82,36.85,61.82,33.14Z"/><path class="cls-1" d="M78.36,40a2.35,2.35,0,0,0-1.07-.25,1.64,1.64,0,0,0-.48.06,8,8,0,0,1-2.37.35,7.05,7.05,0,1,1,7.28-7,6.78,6.78,0,0,1-3.61,6.16,2.38,2.38,0,0,1,.87.22l5.13,2.27h-1.8Zm1.21-6.89c0-3.69-2.06-6.29-5.13-6.29s-5.14,2.6-5.14,6.29,2.06,6.29,5.14,6.29S79.57,36.85,79.57,33.14Z"/><path class="cls-1" d="M95.23,34.42c0,1.9-.22,3.43-1.45,4.63a4.64,4.64,0,0,1-3.35,1.11,5.56,5.56,0,0,1-3.63-1.09c-1.38-1.19-1.69-2.8-1.69-5.53V26.35h2v7.58c0,2.4.09,3.55.76,4.42a3,3,0,0,0,2.56,1,4,4,0,0,0,2.78-.88c1.1-1,1.25-2.58,1.25-4.13v-8h.77Z"/><path class="cls-1" d="M99.18,26.35h2V39.93h-2Z"/><path class="cls-1" d="M115.17,27.11H111V39.93h-2V27.11h-4.16v-.76h10.3Z"/><path class="cls-1" d="M118.76,26.35h2V39.17H126v.76h-7.24Z"/><path class="cls-1" d="M136.27,35.93H131l-1.64,4h-.78L134.31,26,140,39.93h-2.1Zm-4.94-.76H136l-2.31-5.67Z"/><path class="cls-1" d="M159.9,39.93h-2.06l-1.58-9.57L151,40.16l-5.52-9.82-1.57,9.59h-.78l2.28-13.81,6.24,11.21,6-11.21Z"/><path class="cls-1" d="M16.87,53.12H12.71V65.93h-2V53.12H6.57v-.76h10.3Z"/><path class="cls-1" d="M25.67,66.19a7,7,0,1,1,0-14.09,7,7,0,1,1,0,14.09Zm5.14-7c0-3.69-2.06-6.29-5.14-6.29s-5.14,2.6-5.14,6.29,2.06,6.28,5.14,6.28S30.81,62.85,30.81,59.15Z"/><path class="cls-1" d="M36.73,52.36l3.89,10.11,4.07-10.34,4.47,10.42,3.73-10.19h.76l-5,13.8-4.55-10.5L40,66.16l-5.32-13.8Z"/><path class="cls-1" d="M67.91,52.36v13.8l-10-10.42V65.93h-.75V52.13l10,10.42V52.36Z"/><path class="cls-1" d="M88.69,54.25a6.93,6.93,0,0,0-4.15-1.39c-3.08,0-5.13,2.53-5.13,6.29s2,6.28,5.12,6.28a6.7,6.7,0,0,0,4.53-1.82v1.25a7.66,7.66,0,0,1-4.54,1.33,7,7,0,1,1,0-14.09,9.18,9.18,0,0,1,4.17,1Z"/><path class="cls-1" d="M95,53.12v5.51h5v.75H95v5.79h6v.76H93V52.36h8v.76Z"/><path class="cls-1" d="M115.5,52.36v13.8l-10-10.42V65.93h-.76V52.13l10,10.42V52.36Z"/><path class="cls-1" d="M129.39,53.12h-4.16V65.93h-2V53.12h-4.16v-.76h10.31Z"/><path class="cls-1" d="M135.54,60l7.19,6h-1.14L135,60.42v5.51h-2V52.36h3.81c2.71,0,5,1.09,5,3.8s-2.25,3.79-5,3.79Zm.74-.76c2.37,0,3.35-1,3.35-3s-1-3-3.35-3H135v6.07Z"/><path class="cls-1" d="M147.75,53.12v5.51h5v.75h-5v5.79h5.95v.76h-7.95V52.36h7.95v.76Z"/></g></g></svg>