<svg xmlns="http://www.w3.org/2000/svg" viewBox="0 0 104.69 22.92"><defs><style>.cls-1{fill:#a5714e;}</style></defs><title>t4-ch-300x250</title><g id="Layer_2" data-name="Layer 2"><g id="Layer_2-2" data-name="Layer 2"><path class="cls-1" d="M7.77,14.32a52.88,52.88,0,0,1,3.48,6.38l-1.68.92C9.3,21,8.9,20,8.42,19.12c-6.3,2.22-7.12,2.57-7.65,3A7.52,7.52,0,0,0,0,20.2a1.68,1.68,0,0,0,1.05-1.58V1.32h9.52V13.05H2.9V19.2l4.77-1.55c-.5-.9-1-1.8-1.47-2.58ZM2.9,3V6.25H8.75V3Zm5.85,8.37V7.92H2.9v3.45ZM21,15.77c0,1.05-.22,1.58-.89,1.88a9.42,9.42,0,0,1-3.63.32A5.91,5.91,0,0,0,16,16.2c1.3.05,2.45.05,2.78,0s.47-.1.47-.45V3.22H14.7V22.84H12.87V1.47H21Z"/><path class="cls-1" d="M32.6.05h1.72V22.84H32.6V14.12H29.87v.6c0,2.15-.27,5.68-1.79,8.17A4.41,4.41,0,0,0,26.65,22c1.37-2.3,1.57-5.4,1.57-7.33v-.55H26.88V12.47H32.6V8.8H27.92V1h1.65V7.17h3ZM48.79,2.62c-2.17,5.4-7.39,8.5-12.64,10a5.62,5.62,0,0,0-.93-1.37,20.45,20.45,0,0,0,7.53-3.48A18.67,18.67,0,0,0,39.6,4.37a23.36,23.36,0,0,1-3.68,2.08c-.27-.3-.82-.85-1.15-1.15A17.05,17.05,0,0,0,41.92,0l1.8.53a12.17,12.17,0,0,1-1.42,1.6h5l.33-.08Zm.83,11.8H46.4v6c0,1-.23,1.57-1,1.87a12.54,12.54,0,0,1-4,.32,5.89,5.89,0,0,0-.6-1.77c1.5.05,2.85,0,3.23,0s.52-.1.52-.45v-6H35.17V12.77h9.45V9.25H46.4v3.52h3.22Zm-9-6.32c-1.83.27-3.55.5-5.08.72l-.32-1.4c1.42-.12,3.27-.37,5.3-.62ZM38.4,15a19.68,19.68,0,0,1,3.3,4L40.17,20a19,19,0,0,0-3.2-4.1ZM40.77,3.5l0,0a20.42,20.42,0,0,1,3.17,3.23,12.09,12.09,0,0,0,2.6-3.25Z"/><path class="cls-1" d="M76.57,4.12a35,35,0,0,1-3.8,3,17.32,17.32,0,0,0,4.7,2.9,7.63,7.63,0,0,0-1.28,1.52,19.1,19.1,0,0,1-5.92-4.3V8.55H61.32V7.37a21.57,21.57,0,0,1-6.15,4.43A7.59,7.59,0,0,0,54,10.4a17.92,17.92,0,0,0,5-3.3A16.39,16.39,0,0,0,55.9,4.57l1-1.05A16.3,16.3,0,0,1,60.17,6a16.8,16.8,0,0,0,2.5-3.5H55.88V1h7.67L63.9.88l1.22.62A17.16,17.16,0,0,1,61.72,7H70A23.39,23.39,0,0,1,65.82.58l1.63-.5a19.29,19.29,0,0,0,1.72,3.09A30.68,30.68,0,0,0,72.4.22l1.42,1A34.86,34.86,0,0,1,70,4.3,19.87,19.87,0,0,0,71.7,6.2a32,32,0,0,0,3.47-3ZM71.3,17.42c-.53,1.08-1.15,2.25-1.68,3.2h7.1v1.62H54.85V20.62H61.7a13,13,0,0,0-1.4-3.1L62,17a13,13,0,0,1,1.53,3.09L62,20.62h5.77A22.83,22.83,0,0,0,69.55,17Zm1.4-.62H58.55V10.57H72.7Zm-2-4.68H60.37v3.13H70.75Z"/><path class="cls-1" d="M89.77,14.67c-2.52,1.28-5.25,2.6-7.35,3.6l-.72-1.82c1-.4,2.12-.9,3.4-1.48V7.15H82.17V5.4H85.1V.2h1.72V5.4h2.7V7.15h-2.7v7L89.37,13Zm4.65-2.87a14.88,14.88,0,0,1-1.07,1.75h10.74a6.67,6.67,0,0,1-.07.75c-.38,5.15-.77,7.09-1.48,7.82a2,2,0,0,1-1.39.62c-.55,0-1.48,0-2.48,0a3.13,3.13,0,0,0-.42-1.5c.92.07,1.75.1,2.12.1s.58,0,.75-.28c.42-.45.8-2,1.13-5.94h-2a17.43,17.43,0,0,1-5.1,7.82,5.71,5.71,0,0,0-1.33-1.08,14.63,14.63,0,0,0,4.88-6.74H96.32a18.75,18.75,0,0,1-6.07,6.74A5,5,0,0,0,89,20.7a16.56,16.56,0,0,0,5.63-5.6H92.12A17.17,17.17,0,0,1,88.87,18,8.34,8.34,0,0,0,87.6,16.8a14.28,14.28,0,0,0,5-5h-3.5V10.22h15.64V11.8Zm8.5-3H91.5V.75h11.42ZM101.2,2.15h-8v2h8Zm0,3.27h-8v2h8Z"/></g></g></svg>