<?xml version="1.0" encoding="utf-8"?>
<!-- Generator: Adobe Illustrator 22.0.1, SVG Export Plug-In . SVG Version: 6.00 Build 0)  -->
<svg version="1.1" id="Layer_1" xmlns="http://www.w3.org/2000/svg" xmlns:xlink="http://www.w3.org/1999/xlink" x="0px" y="0px"
	 viewBox="0 0 192.09436 51.51544" enable-background="new 0 0 192.09436 51.51544" xml:space="preserve">
<g>
	<path fill="#1A1A1A" d="M184.43011,25.86664c-0.77234-0.06079-1.52271-0.13391-2.24841-0.21881l0.7088-0.8067l3.0899-3.51672
		l-1.07965-0.68329v-2.51538v-8.01563V5.7467l-4.34698,0.37854c-0.64667,0.05627-1.37958,0.10626-2.1781,0.14868
		c-0.8125,0.04321-1.77246,0.0719-2.85339,0.08551c-1.17358,0.01581-2.52649,0.03839-4.06158,0.06781
		c-0.63641,0.01306-1.31781,0.02319-2.05212,0.03058c-0.18359-0.7262-0.38538-1.44653-0.60107-2.14581l-1.01202-3.28119
		l-3.39667,0.50342l-4.57953,0.67871l-5.00671,0.74194l1.3985,3.49823c-0.11816-0.00098-0.23499-0.00201-0.35028-0.00299
		c-1.63727-0.01544-3.06799-0.03754-4.29059-0.06732c-1.15289-0.02728-2.1925-0.06409-3.0932-0.10938
		c-0.84363-0.04254-1.6156-0.09283-2.29443-0.14941l-4.33258-0.36151v4.3476v8.55859v1.3396l-4.23181,1.40527
		c-0.54456-0.10175-1.06696-0.20795-1.54181-0.32288c0.03754-0.08148,0.07465-0.16345,0.11145-0.24567
		c0.33197-0.74323,0.63947-1.53943,0.92108-2.38373l4.22742,0.55573v-4.56018v-3.25983V6.43665l-4.68921,0.82019
		c-0.24902,0.04358-0.71539,0.10486-1.52362,0.14941c-0.66077,0.03717-1.51538,0.0578-2.54736,0.06165
		c-0.00024-0.16486-0.01025-0.3349-0.03143-0.50995c-0.198-1.52283-1.28998-3.27325-3.77441-3.72632l-0.13666-0.0249
		l-0.13812-0.01538c-0.35669-0.03973-0.7738-0.1203-1.23999-0.23962c-0.5437-0.13892-1.11133-0.31128-1.68842-0.5127
		l-4.60547-1.60748l-0.67432,4.83105c-0.01813,0.12964-0.03668,0.25812-0.05579,0.38544l-0.92572,0.0752
		c-0.9928,0.08069-2.10107,0.14319-3.29681,0.18597c-0.02777-0.46027-0.13251-0.87378-0.26477-1.22681
		c-0.4903-1.31097-1.83893-2.71576-4.14984-2.71576c-0.26617,0-0.54816,0.01721-0.86121,0.05249
		c-0.15277,0.01501-0.3277,0.02271-0.52026,0.02271c-0.48291,0-1.06128-0.04761-1.71893-0.1413l-6.19476-0.88293l1.47528,4.914
		c-0.18677-0.005-0.36749-0.01038-0.54187-0.01617c-1.27002-0.04114-2.47583-0.13074-3.58649-0.2666l-4.48566-0.54852v4.51904
		v3.16986v3.04675l-1.13721,0.07025c-0.92059,0.05688-2.11615,0.10699-3.65497,0.15338
		c-0.28833,0.00842-0.58289,0.01611-0.88348,0.02301V9.83954c1.48315-1.71991,1.07056-3.52515,0.87897-4.10614
		c-0.46118-1.39886-1.83356-2.89355-4.30231-2.89355c-0.13818,0-0.29047,0.00415-0.45648,0.01398
		c-0.20392,0.00708-0.3988,0.0108-0.5849,0.0108c-0.35248,0-0.65869-0.01312-0.9101-0.03912
		c-0.44971-0.0462-1.05231-0.14728-1.79218-0.30035l-6.14233-1.271l1.43829,6.10516c0.078,0.33124,0.18854,0.97302,0.27155,2.1496
		c0.05707,0.8186,0.09259,1.76642,0.10608,2.82581l-0.18854-0.13477c-0.70636-0.505-1.5163-1.0343-2.40735-1.57312
		c-0.82483-0.49719-1.67523-1.00049-2.55664-1.51068c-0.16028-0.09283-0.32159-0.18561-0.48389-0.2785
		c0.07593-0.38824,0.09558-0.77155,0.06903-1.13013c-0.1311-1.63898-1.29584-3.66388-4.15253-4.05219l-0.10522-0.01428
		l-0.10577-0.00873c-0.35968-0.02948-0.685-0.09979-0.99463-0.2149c-0.36737-0.13647-0.77838-0.35248-1.22266-0.6424L61.591,0
		l-1.70239,4.78369c-0.40033,1.12494-0.92902,2.25714-1.57135,3.36505c-0.63959,1.104-1.38269,2.146-2.20905,3.09796
		c-0.84192,0.96942-1.76782,1.86932-2.75122,2.67432c-0.29883,0.24426-0.60846,0.45111-0.91571,0.6662v-0.26617v-3.93945V5.83441
		l-4.51007,0.57983c-1.0354,0.13318-2.3396,0.22156-3.8764,0.26276c-1.62225,0.04443-3.52802,0.06689-5.66675,0.06689
		c-3.46765,0-6.13977-0.02917-8.16895-0.08905c-1.97876-0.05664-3.54364-0.14185-4.65491-0.25323l-1.8916-0.18982
		c-0.06213-0.31989-0.15112-0.58789-0.23163-0.78784c-0.41479-1.04034-1.60651-2.80621-4.87238-2.80621
		c-0.13251,0-0.27283,0.00238-0.42059,0.00726c-0.04694,0.00092-0.13391,0.00189-0.22235,0.00189
		c-0.95605,0-2.09088-0.11707-3.37299-0.34796L8.72351,1.229l1.20355,5.79944c0.06311,0.3042,0.18445,1.05396,0.28705,2.65747
		c0.02979,0.46881,0.0545,1.01331,0.07385,1.63141c-0.71307-0.04163-1.34418-0.10278-1.87939-0.18231l-4.58789-0.6817v4.63818
		v3.57721v4.6355l4.58563-0.67859c0.56061-0.08301,1.20667-0.15222,1.93536-0.20752v2.55194
		c-0.0976,0.02051-0.19531,0.04089-0.29297,0.06091c-1.0592,0.21698-2.1933,0.39636-3.3681,0.53247l-4.57043,0.5296l1.16003,4.45233
		c0.16821,0.64569,0.34918,1.39136,0.5379,2.21637c0.17957,0.78912,0.32599,1.50629,0.43439,2.12738l0.61859,3.54712L0,38.10382
		l4.87378,6.87842c0.6792,0.95856,0.91919,1.45099,0.99091,1.61829c0.15338,0.35822,0.28052,0.8053,0.37769,1.32849l0.6626,3.5697
		l3.617-0.31482c1.92358-0.16736,3.44159-0.36609,4.64081-0.6076c1.57263-0.31799,2.81659-0.7887,3.80634-1.43976
		c1.35107-0.89044,2.29205-2.1582,2.72418-3.6684c0.27399-0.95795,0.40717-2.05084,0.40717-3.34143v-3.70319l4.02271,6.12549
		c0.60559,0.92218,0.88751,1.49792,1.01733,1.81842c0.17761,0.43939,0.32007,0.96411,0.42267,1.5575l0.57343,3.31897h3.36816
		c1.93231,0,3.54523-0.11517,4.93103-0.35217c1.69739-0.29053,3.08032-0.79022,4.22821-1.52802
		c1.3678-0.883,2.36456-2.05237,2.9696-3.4801c0.4967-1.17786,0.74707-2.54651,0.74707-4.07428v-5.383l5.71613,7.00629
		c1.00226,1.22858,1.05548,1.8136,1.05731,1.83789l0.3938,5.39502l5.04285-1.95734c0.20026-0.0777,0.69501-0.24365,1.75873-0.48187
		c0.9248-0.20721,2.13177-0.42682,3.58807-0.65277c1.52325-0.23645,3.34399-0.49036,5.41162-0.75452
		c2.11542-0.27032,4.55359-0.5708,7.3147-0.90253l3.07343-0.36908c-0.0379,0.43927-0.07892,0.85907-0.12292,1.2572L77.1239,51.2439
		h4.46631h4.34717h4.50574l-0.53394-4.474c-0.1416-1.18671-0.2486-2.38617-0.31812-3.565
		c-0.07056-1.1839-0.10626-2.26196-0.10626-3.20709v-9.76984l6.95111,2.71783c0.39276,0.15363,0.58435,0.25513,0.65045,0.29285
		c0.06274,0.05579,0.24084,0.22437,0.55634,0.59845l1.59351,1.88983v1.95551l3.51825-0.25134
		c0.01361,0.24493,0.0249,0.492,0.03394,0.7406c-1.18872-0.02789-2.35211-0.07166-3.46191-0.13031l-4.21088-0.22229v4.21686v3.71375
		v4.2146l4.2088-0.21997c1.15576-0.06042,2.37061-0.11121,3.64587-0.15619c1.27643-0.04419,2.66833-0.08179,4.172-0.11163
		c1.51013-0.02997,3.16284-0.05219,4.95679-0.06677c1.80341-0.0155,3.81445-0.02234,6.03601-0.02234
		c2.19122,0,4.19489,0.00684,6.01123,0.02234c1.81158,0.01459,3.47119,0.0368,4.98169,0.06677
		c1.50269,0.02985,2.8952,0.06744,4.17548,0.11169c1.27069,0.04492,2.48663,0.0957,3.64301,0.15613l4.20874,0.21991v-4.21454
		v-3.71375v-4.22272l-4.21655,0.22852c-0.22278,0.01208-0.44757,0.02386-0.67468,0.03528v-0.4577l0.77014,0.05322v-3.8194
		l1.44708,0.50256l1.17798,1.01678c0.09351,0.08075,0.263,0.23462,0.53949,0.50983c0.15649,0.15668,0.3186,0.3418,0.47229,0.54047
		c0.19751,0.25586,0.3797,0.50824,0.53931,0.74731c0.16284,0.24414,0.23254,0.37659,0.24994,0.41132l1.75476,3.49561l3.534-1.67603
		c0.21002-0.09949,0.4187-0.19916,0.62592-0.29877v3.52246c0,0.80682-0.01422,1.57654-0.0423,2.2876
		c-0.02478,0.61713-0.08948,1.31104-0.19208,2.05975l-0.62305,4.5434h4.58594h4.03027h4v-3.93951h8.25732v3.2608h4h4.1665h4.591
		l-0.62872-4.54779c-0.10638-0.76971-0.18018-1.48309-0.2193-2.12042c-0.03998-0.65869-0.06036-1.39227-0.06036-2.17749V37.6911
		c0.57568,0.14972,1.16205,0.29742,1.75555,0.44202l3.83405,0.93427l0.98615-3.82098
		c0.14703-0.5697,0.33685-1.10455,0.56421-1.59009c0.1875-0.40039,0.46381-0.823,0.82129-1.25629l4.89301-5.92993
		L184.43011,25.86664z M10.34167,38.76874c-0.54718-0.00934-1.19476-0.03931-1.93121-0.08972l-0.14117-0.0097l1.7652-0.92169
		c0.09729-0.05078,0.19971-0.10303,0.30719-0.15649V38.76874z M32.53107,38.909c-0.61108-0.11017-1.33417-0.2616-2.16486-0.45325
		l-8.26575-1.90771v-3.44672c0.26862-0.08838,0.5332-0.17511,0.79352-0.26019c1.02661-0.33533,1.91498-0.60541,2.64093-0.8028
		l3.30536-0.89893l-0.3797-3.4043c-0.04767-0.42737-0.07776-0.87628-0.08948-1.33447
		c-0.013-0.47864-0.00623-1.02301,0.02002-1.62512l0.06726-1.54498l0.34424,0.04907v-4.6109v-0.58929
		c0.27228-0.01147,0.5542-0.02228,0.84528-0.0321c0.83618-0.02795,1.7998-0.04938,2.88318-0.06421V38.909z M44.7984,18.06982
		c0.26105,0.00891,0.51129,0.02014,0.75787,0.03204l-1.1756,0.55951v-0.60504C44.52197,18.06073,44.66119,18.06525,44.7984,18.06982
		z M44.38068,36.04431V20.36572l6.12903,2.5918v2.77557v3.4693l-1.11682,0.33936l1.11682,1.89917v2.5813l1.40637-0.18958
		l0.05133,0.08728c0.43695,0.7431,0.7876,1.55127,1.04205,2.4021c0.05621,0.18817,0.1087,0.37531,0.15753,0.5611L44.38068,36.04431z
		 M89.4848,27.69324c0.30096,0.00696,0.59558,0.01477,0.88348,0.0235c0.27405,0.00806,0.5304,0.01666,0.78711,0.02527
		l-1.67059,0.71143V27.69324z M141.44196,28.4317l-0.78522,0.16675l3.07867-2.46191l0.36316,0.20038
		c0.36719,0.20264,0.7608,0.48242,1.1701,0.8316c0.0658,0.05621,0.12329,0.10712,0.17322,0.15271
		C144.19537,27.75952,142.85699,28.13123,141.44196,28.4317z"/>
	<path fill="#EBEBEB" d="M18.10046,15.4538V9.5661c0-0.3916,0.06781-0.6933,0.20361-0.90515
		c0.13568-0.211,0.36908-0.45313,0.7016-0.72461c0.5733-0.45325,0.81549-0.79303,0.72473-1.01862
		c-0.08002-0.20038-0.46753-0.29999-1.1618-0.29999c-0.09039,0-0.1861,0.00165-0.28699,0.00507
		c-0.11713,0.00275-0.23566,0.00409-0.35596,0.00409c-1.19867,0-2.55957-0.13708-4.08209-0.41125
		c0.15039,0.72461,0.27155,1.7959,0.3623,3.21478c0.09039,1.41992,0.1358,3.42682,0.1358,6.02338
		c-1.38916-0.03015-2.61957-0.0683-3.69092-0.11316c-1.07178-0.0459-2.0152-0.12799-2.83008-0.24915v3.57721
		c1.62988-0.24115,3.80371-0.37695,6.521-0.40717v9.87201c-1.14801,0.30176-2.30957,0.5733-3.4873,0.81549
		c-1.17731,0.24121-2.41547,0.4375-3.71338,0.58789c0.18121,0.69531,0.36957,1.4726,0.56641,2.33301
		c0.1958,0.86029,0.35449,1.6377,0.47559,2.33197c0.69379-0.3623,1.57709-0.77051,2.64893-1.22266
		c1.07129-0.45313,2.2417-0.9209,3.50977-1.4043v9.05768c0,0.45209-0.07568,0.83002-0.22656,1.13177
		c-0.15131,0.3017-0.4458,0.53613-0.88281,0.70209c-0.43799,0.16614-1.06439,0.26471-1.87939,0.29401
		c-0.2038,0.00763-0.42371,0.01135-0.65961,0.01135c-0.7077,0-1.55963-0.03406-2.55573-0.10211
		c0.66364,0.93646,1.13184,1.7207,1.40381,2.35541c0.27148,0.63379,0.48242,1.3584,0.63379,2.17389
		c1.75049-0.1524,3.15039-0.33301,4.19824-0.54401c1.04785-0.21191,1.84668-0.49799,2.39746-0.86029
		c0.5498-0.3623,0.9082-0.83789,1.0766-1.42682c0.16852-0.58893,0.25299-1.33588,0.25299-2.24121V30.21649
		c1.25885-0.42279,2.44244-0.81537,3.5517-1.17767c1.10895-0.3623,2.05371-0.64838,2.83301-0.86029
		c-0.06049-0.54303-0.09808-1.10162-0.11279-1.67578c-0.01556-0.57233-0.00781-1.20715,0.02252-1.90143
		c-1.10944,0.4834-2.18073,0.9209-3.21533,1.31348c-1.03418,0.39264-2.06061,0.75494-3.0791,1.08691v-8.74017
		c2.77679,0.03021,5.01074,0.16602,6.70215,0.40717v-3.57721c-0.8457,0.12115-1.81152,0.20325-2.89844,0.24915
		C20.81726,15.3855,19.54919,15.42365,18.10046,15.4538z"/>
	<path fill="#EBEBEB" d="M38.38806,10.7439c-3.44189,0-6.2041-0.0293-8.28705-0.09076
		c-2.08301-0.05963-3.729-0.15039-4.93616-0.27155v3.93945c1.11621-0.12012,2.56555-0.21094,4.34723-0.27155
		c1.78119-0.05945,4.12109-0.09076,7.01898-0.09076v26.53711c0,0.69525-0.07556,1.25385-0.22595,1.67578
		c-0.15143,0.42377-0.47565,0.70221-0.97375,0.83789c-0.28009,0.07642-0.62726,0.11469-1.04126,0.11469
		c-0.32202,0-0.68439-0.02319-1.0871-0.06982c-0.92139-0.10443-2.1665-0.33875-3.73633-0.70105
		c0.63434,0.96576,1.09424,1.80371,1.38129,2.5127c0.28674,0.70892,0.50543,1.50189,0.6568,2.37787
		c1.69043,0,3.10895-0.09857,4.25684-0.29486c1.14697-0.19629,2.06061-0.51373,2.73981-0.9502
		c0.6792-0.43854,1.16156-0.99713,1.44916-1.67584c0.28662-0.67969,0.43011-1.51758,0.43011-2.51367V13.95874
		c1.69049,0.03131,3.20758,0.06836,4.55133,0.11328c1.34277,0.0459,2.51318,0.12891,3.50928,0.24902v-3.93945
		c-1.17731,0.15131-2.604,0.24902-4.2793,0.29395C42.48621,10.72144,40.56189,10.7439,38.38806,10.7439z"/>
	<path fill="#EBEBEB" d="M57.54376,38.54865l3.80371-1.1319c-0.33246-1.14642-0.6792-2.2558-1.0415-3.32813
		c-0.3623-1.07129-0.80029-2.16602-1.31335-3.2832l-3.57721,1.08691c0.60345,1.02637,1.07855,2.12109,1.42627,3.2832
		C57.18842,36.33765,57.42267,37.46265,57.54376,38.54865z"/>
	<path fill="#EBEBEB" d="M69.22736,33.7038c-0.42328,1.0567-0.93646,2.11334-1.53998,3.17004l3.125,1.3584
		c0.48242-1.0567,0.98053-2.14362,1.49408-3.2608c0.51324-1.11621,1.0415-2.2334,1.58502-3.35059l-3.75879-1.26855
		C69.95148,31.53003,69.64978,32.64722,69.22736,33.7038z"/>
	<path fill="#EBEBEB" d="M66.32898,40.0437V29.08472c1.63043,0,3.04102,0.02252,4.23438,0.06738
		c1.19196,0.0459,2.25635,0.14349,3.19232,0.29492v-3.71393c-0.93597,0.15143-2.00037,0.24915-3.19232,0.29504
		c-1.19336,0.04486-2.60394,0.08301-4.23438,0.1123v-4.89075c1.2373,0.03033,2.31641,0.06842,3.23779,0.11334
		c0.92041,0.0459,1.72803,0.14355,2.42279,0.29486v-3.62299c-1.60059,0.30182-3.95544,0.45313-7.06439,0.45313
		c-1.23828,0-2.31738-0.02344-3.23779-0.0683c-0.92139-0.04504-1.75928-0.11334-2.51367-0.2041
		c0.90576-0.96594,1.78906-1.96204,2.64935-2.98834c0.86041-1.02637,1.71295-2.12891,2.55865-3.30566
		c1.02588,0.60352,1.94727,1.16211,2.76215,1.6748c0.81555,0.51367,1.55475,1.0274,2.2193,1.5401
		c0.66351,0.51361,1.28271,1.03406,1.85645,1.5625c0.5733,0.52826,1.14697,1.09467,1.72119,1.69818l2.53571-2.94342
		c-0.63379-0.45306-1.35162-0.9209-2.15094-1.4043c-0.80029-0.48236-1.63037-0.97357-2.49066-1.47156
		c-0.86041-0.49811-1.72083-0.98053-2.58112-1.44934c-0.86078-0.46765-1.66852-0.88275-2.42291-1.24506
		c0.39209-0.45313,0.73151-0.78516,1.01862-0.99615c0.28662-0.21088,0.58112-0.34656,0.8833-0.40814
		c0.48242-0.12012,0.7168-0.27832,0.70209-0.47565c-0.01556-0.19525-0.24951-0.32318-0.70209-0.3847
		c-0.72461-0.05957-1.41162-0.211-2.06049-0.45215c-0.64954-0.24121-1.3208-0.58881-2.0152-1.04205
		c-0.4834,1.3584-1.10944,2.70221-1.87939,4.03033c-0.77002,1.3291-1.65283,2.56641-2.64893,3.71387
		c-0.99658,1.1474-2.07617,2.19635-3.23828,3.1474c-1.1626,0.9502-2.37744,1.72864-3.64551,2.33209
		c0.78522,0.33203,1.41107,0.70111,1.87939,1.10944c0.46777,0.40723,0.86768,0.9433,1.2002,1.60742
		c0.42242-0.42291,0.85248-0.83795,1.29053-1.24512c0.4375-0.4082,0.86768-0.82233,1.29059-1.24518v2.08295
		c0.664-0.15131,1.41107-0.24896,2.2417-0.29486c0.82996-0.04492,1.80371-0.08301,2.92078-0.11334v4.89075
		c-1.90179,0-3.53217-0.0293-4.89056-0.0899c-1.3584-0.06049-2.58105-0.16602-3.66791-0.31744v3.71393
		c2.02185-0.27252,4.875-0.4082,8.55847-0.4082v11.36719c-1.5097,0.15143-2.75531,0.27155-3.73578,0.3623
		c-0.98138,0.08978-1.82709,0.15143-2.53613,0.18073c-0.70947,0.03021-1.32855,0.0459-1.85651,0.0459
		c-0.52875,0-1.10925-0.03033-1.74359-0.09094c1.20703,1.47955,1.85693,2.83795,1.9472,4.07526
		c0.54352-0.21094,1.32043-0.42975,2.33209-0.65625c1.01123-0.22656,2.29443-0.461,3.84863-0.70215
		c1.5542-0.24121,3.39362-0.49805,5.51807-0.76953c2.12402-0.27148,4.5722-0.57318,7.34473-0.90619
		c-0.03082-0.72473-0.00781-1.35059,0.06689-1.87903c0.0752-0.52826,0.24847-1.09369,0.52002-1.69818
		c-0.8432,0.33301-1.93463,0.63379-3.27393,0.90527C70.15997,39.54559,68.43591,39.80255,66.32898,40.0437z"/>
	<path fill="#EBEBEB" d="M85.4848,20.52515V9.2038c0-0.42175,0.02966-0.74695,0.09027-0.97357
		c0.06-0.22662,0.24121-0.4599,0.5434-0.70123c0.62122-0.45947,0.60242-0.68915-0.05701-0.68915
		c-0.0777,0-0.16437,0.00317-0.25989,0.00958c-0.27332,0.01007-0.53369,0.0152-0.78149,0.0152
		c-0.49017,0-0.93073-0.0199-1.3205-0.06024C83.11121,6.7439,82.38031,6.6228,81.5072,6.44214
		c0.16357,0.6944,0.28607,1.62311,0.36816,2.78516c0.08099,1.16211,0.12201,2.52832,0.12201,4.09766v7.2002
		c-1.78119,0-3.45697-0.0224-5.02631-0.06732c-1.57031-0.0459-2.83838-0.09772-3.8042-0.15918v3.57806
		c0.96582-0.06061,2.22614-0.11328,3.78119-0.1582c1.55475-0.0459,3.23834-0.06836,5.04932-0.06836V39.9978
		c0,1.02734-0.03796,2.21973-0.11267,3.57813c-0.07574,1.3584-0.17444,2.58112-0.29449,3.66797h4.34717
		c-0.15137-1.26855-0.26471-2.53607-0.33942-3.80365c-0.07556-1.26862-0.11316-2.4151-0.11316-3.44244V23.65015
		c1.81146,0,3.479,0.02246,5.00391,0.06836c1.52386,0.04492,2.7851,0.0976,3.78119,0.1582v-3.57806
		c-0.99609,0.06146-2.25732,0.11328-3.78119,0.15918C88.96381,20.50275,87.29626,20.52515,85.4848,20.52515z"/>
	<path fill="#EBEBEB" d="M108.26306,23.06134c0,1.29877-0.03027,2.44525-0.09076,3.44141
		c-0.06061,0.99695-0.16614,1.90228-0.31689,2.71765h3.66785c-0.15125-0.84467-0.25677-1.77338-0.31689-2.7851
		c-0.06049-1.0108-0.09027-2.19629-0.09027-3.55469c1.81152,0,3.3208,0.01563,4.52832,0.04492
		c1.20709,0.03027,2.33936,0.07617,3.39648,0.1358c-0.06104-0.45325-0.10602-0.98834-0.13568-1.60754
		c-0.03082-0.6181-0.04541-1.27527-0.04541-1.96967c0-0.7851,0.01459-1.52441,0.04541-2.21869
		c0.02966-0.6944,0.07465-1.29791,0.13568-1.81165c-1.08691,0.06061-2.22662,0.10553-3.41888,0.1358
		c-1.19293,0.03033-2.6944,0.04492-4.50592,0.04492v-2.7627c1.90192,0.03131,3.5166,0.06842,4.84521,0.11328
		c1.32806,0.0459,2.55078,0.11328,3.66846,0.2041v-3.0791c-1.11768,0.09082-2.34039,0.1582-3.66846,0.20313
		c-1.32861,0.0459-2.9433,0.06836-4.84521,0.06836c0-0.84467,0.04492-1.55469,0.13568-2.12799
		c0.09039-0.57318,0.211-0.93549,0.3623-1.08685c0.30133-0.33203,0.43024-0.55865,0.38483-0.67975
		c-0.03003-0.0802-0.16504-0.12036-0.40454-0.12036c-0.11877,0-0.26324,0.00989-0.43335,0.0296
		c-0.29401,0.0304-0.61005,0.04559-0.94812,0.04559c-0.67358,0-1.43481-0.06042-2.28333-0.18134
		c0.12689,0.42285,0.21381,0.90625,0.26172,1.44922c0.04779,0.54388,0.07178,1.43463,0.07178,2.67188
		c-2.05365,0-3.77435-0.02246-5.1626-0.06836c-1.38916-0.04492-2.70221-0.14264-3.94-0.29388v3.16986
		c1.14703-0.12012,2.43024-0.2041,3.84961-0.24896c1.41852-0.04492,3.17004-0.06842,5.25299-0.06842v2.7627
		c-0.9361,0-1.77399,0-2.51318,0c-0.74017,0-1.42682-0.00677-2.06061-0.02252c-0.63416-0.01459-1.23041-0.03705-1.789-0.0683
		c-0.55908-0.0293-1.10938-0.05957-1.65289-0.0899c0.09088,0.51373,0.15869,1.125,0.20374,1.83405
		c0.04535,0.70898,0.0683,1.44141,0.0683,2.19629c0,1.38867-0.09082,2.55182-0.27203,3.48627
		c0.81549-0.05945,1.64508-0.08978,2.49078-0.08978c0.84473,0,1.84131,0,2.98871,0
		c-0.96631,1.41888-2.10541,2.65631-3.41888,3.71289c-1.31348,1.05762-2.78522,1.93262-4.41553,2.62689
		c0.69434,0.27155,1.21533,0.53619,1.5625,0.79199c0.34662,0.25696,0.76221,0.67291,1.24561,1.24615
		c1.4184-0.87592,2.74664-1.93945,3.9848-3.1933C105.92316,26.81323,107.11511,25.14435,108.26306,23.06134z M111.11609,17.76343
		h4.89063v2.98828h-4.89063V17.76343z M103.23621,20.75171v-2.98828h5.02686v2.98828H103.23621z"/>
	<path fill="#EBEBEB" d="M129.68298,42.30743c-1.41937,0.03119-2.95898,0.05371-4.61908,0.0683
		c-1.66071,0.01556-3.5025,0.02246-5.5249,0.02246v-3.66797c1.84131,0,3.41107,0.00781,4.7099,0.02252
		c1.29736,0.01556,2.42236,0.03015,3.37347,0.0459c0.95123,0.01459,1.78864,0.03809,2.51318,0.06738
		c0.72461,0.03021,1.43359,0.06049,2.12842,0.09082v-3.03424c-0.75482,0.06049-1.49408,0.09863-2.21869,0.11334
		c-0.72461,0.01556-1.5625,0.03015-2.51318,0.04486c-0.95123,0.01563-2.06055,0.02252-3.32861,0.02252
		c-1.26813,0-2.82318,0-4.66449,0v-3.0791c1.53949,0,2.94379,0.00781,4.21136,0.0224
		c1.26801,0.01556,2.4458,0.03809,3.53223,0.06842c1.08691,0.03027,2.09808,0.06738,3.03418,0.11328
		c0.93549,0.04486,1.84131,0.0976,2.71735,0.1582v-3.30573c-0.93616,0.06049-1.90973,0.10638-2.92096,0.13568
		c-1.01166,0.03033-2.10596,0.06061-3.2832,0.09094c-1.17725,0.03021-2.47607,0.05267-3.89459,0.06726
		c-1.41937,0.01575-3.00476,0.02252-4.7583,0.02252c-1.75629,0-3.34619-0.00677-4.76849-0.02252
		c-1.42291-0.01459-2.73291-0.0293-3.92871-0.04486c-1.19574-0.01459-2.30078-0.04492-3.315-0.09082
		c-1.01355-0.04492-1.99017-0.09772-2.92865-0.1582v3.30573c0.84766-0.06061,1.72656-0.11334,2.6358-0.1582
		c0.90869-0.0459,1.89349-0.0752,2.95355-0.09094c1.06-0.01459,2.2041-0.03705,3.43115-0.0683
		c1.22705-0.0293,2.56689-0.04486,4.02197-0.04486v9.37396h-6.29492v-3.80365c0-0.5127,0.0376-0.99615,0.11334-1.44922
		c0.0752-0.45319,0.21869-0.78522,0.43005-0.99609c0.45496-0.4549,0.38721-0.68219-0.20349-0.68219
		c-0.03577,0-0.07367,0.00079-0.1134,0.0025c-0.17957,0.01508-0.4057,0.02271-0.67816,0.02271
		c-0.2724,0-0.59131-0.00763-0.95654-0.02271c-0.72998-0.0293-1.40765-0.10553-2.0332-0.22662
		c0.09033,0.4834,0.1582,1.125,0.20361,1.9248c0.04541,0.80078,0.06793,1.60742,0.06793,2.42291v2.7168
		c-1.44934-0.05963-2.80774-0.10553-4.07574-0.1358c-1.26807-0.0293-2.47559-0.0752-3.62256-0.13568v3.71375
		c1.17731-0.06146,2.41461-0.11316,3.71338-0.15906c1.29742-0.04504,2.70898-0.08301,4.23389-0.11334
		c1.52441-0.03027,3.19281-0.0528,5.00391-0.06738c1.81152-0.01556,3.83398-0.02252,6.0683-0.02252
		c2.20374,0,4.21881,0.00696,6.04553,0.02252c1.8266,0.01459,3.50189,0.03711,5.02679,0.06738
		c1.52386,0.03033,2.93597,0.0683,4.23438,0.11334c1.2973,0.0459,2.53558,0.0976,3.71344,0.15906v-3.71375
		c-1.11725,0.06049-2.28711,0.11328-3.50983,0.15814C132.42267,42.24005,131.1015,42.27814,129.68298,42.30743z"/>
	<path fill="#EBEBEB" d="M121.75818,20.11792c0.63379-0.90527,1.2373-1.82617,1.81104-2.7627
		c0.57324-0.93549,1.1167-1.96191,1.63037-3.0791h5.57031c-0.39313,2.6875-1.31354,4.98151-2.7627,6.88379
		c-0.87604-1.05658-1.60065-2.29388-2.17334-3.71387l-2.5816,1.08685c0.3623,0.87604,0.78473,1.6983,1.26813,2.46783
		c0.48242,0.77051,1.01117,1.4873,1.58502,2.15137c-1.69104,1.41895-3.94,2.62689-6.74762,3.62305
		c0.51318,0.33209,0.95801,0.72455,1.33588,1.17676c0.3775,0.45313,0.67145,0.92194,0.8833,1.4043
		c1.29742-0.5733,2.50543-1.19238,3.62262-1.85651c1.1167-0.664,2.14362-1.43359,3.07959-2.30945
		c1.1167,0.87585,2.31641,1.64545,3.6001,2.30945c1.28271,0.66412,2.61859,1.23834,4.00781,1.7207
		c0.24121-0.81537,0.5127-1.5097,0.81488-2.08301c0.30182-0.57318,0.75439-1.10144,1.35895-1.58484
		c-1.72125-0.27252-3.20856-0.60352-4.46094-0.99713c-1.25287-0.3916-2.3623-0.88959-3.32806-1.49408
		c0.875-1.14655,1.62976-2.42975,2.2641-3.84869c0.63379-1.41895,1.16156-3.06445,1.58496-4.93652
		c0.78473,0.03027,1.40381,0.05267,1.85638,0.06842c0.45325,0.01556,0.90582,0.05267,1.35895,0.1123v-3.25983
		c-0.51373,0.0899-1.17773,0.1582-1.99274,0.20313c-0.81488,0.0459-1.85687,0.06836-3.12445,0.06836h-5.84186
		c0.48254-1.2373,0.8374-2.0752,1.06403-2.51367c0.22662-0.4375,0.41449-0.7168,0.56592-0.83789
		c0.39209-0.33099,0.58105-0.55762,0.56641-0.67871c-0.01563-0.12012-0.1889-0.21094-0.521-0.27148
		c-0.54346-0.06055-1.13965-0.17383-1.78864-0.33984c-0.6499-0.16595-1.32117-0.36908-2.01508-0.61127
		c-0.18109,1.29779-0.40771,2.49017-0.67969,3.57709c-0.27155,1.08691-0.604,2.12891-0.99615,3.125
		c-0.39246,0.99609-0.86029,1.9776-1.40375,2.94342c-0.54346,0.9668-1.17725,1.97748-1.90186,3.03418
		C120.14246,19.10724,120.97247,19.5144,121.75818,20.11792z"/>
	<path fill="#EBEBEB" d="M112.11218,25.55255c0.75439,0.45209,1.51709,1.00385,2.28711,1.65228
		c0.76947,0.64941,1.45612,1.32129,2.06061,2.01556l2.21869-2.03796c-0.72461-0.60364-1.46478-1.19238-2.21869-1.76569
		c-0.75543-0.57324-1.48004-1.11725-2.17389-1.6308L112.11218,25.55255z"/>
	<path fill="#EBEBEB" d="M172.55157,27.52222c-1.61182-0.61823-3.09521-1.37402-4.45062-2.26459
		c-1.35596-0.88971-2.62109-1.9248-3.79535-3.10162c0.12006-0.06061,0.2334-0.12787,0.33929-0.2041
		c0.10547-0.0752,0.20361-0.14258,0.29437-0.2041c0.96594-0.57227,0.98053-0.88971,0.04553-0.9502
		c-0.36243-0.03027-0.91461-0.18848-1.65533-0.47559c-0.74066-0.28711-1.39886-0.5957-1.97321-0.92871
		c-0.81689,1.41992-1.81488,2.80078-2.99457,4.14362c-1.17969,1.34369-2.55573,2.58099-4.12891,3.71381
		c-1.57281,1.1319-3.35602,2.1358-5.34863,3.0108c-1.99268,0.87585-4.19678,1.57031-6.61139,2.08301
		c0.21051,0.18158,0.45953,0.41595,0.74713,0.70209c0.28656,0.28711,0.55811,0.59668,0.815,0.92871
		c0.25629,0.33209,0.49017,0.65625,0.70209,0.97369c0.21088,0.31641,0.37701,0.59656,0.49799,0.83789
		c1.14703-0.54401,2.2486-1.08698,3.30573-1.63092c1.0567-0.54297,2.06787-1.07129,3.03418-1.58496v10.05365
		c0,0.87604-0.01563,1.69055-0.04541,2.44543c-0.03027,0.75391-0.10596,1.56927-0.22607,2.44531h4.03027v-3.93951h16.25732v3.2608
		h4.1665c-0.12109-0.87604-0.2041-1.68359-0.24951-2.42291c-0.04492-0.74017-0.06787-1.54688-0.06787-2.42279v-9.64648
		c0.96576,0.33301,2.0152,0.65717,3.14746,0.97357c1.13232,0.31738,2.31689,0.62701,3.55524,0.92871
		c0.21039-0.81543,0.48236-1.57709,0.81488-2.28711c0.33197-0.70898,0.78467-1.41022,1.3584-2.10547
		c-2.29443-0.1806-4.39258-0.4599-6.29443-0.83795C175.9198,28.6394,174.16345,28.1413,172.55157,27.52222z M171.39099,40.63263
		h-16.25732v-5.79694h16.25732V40.63263z M172.31915,31.86993c-0.61908,0.01556-1.35095,0.03021-2.19629,0.04486
		c-0.84515,0.01563-1.8266,0.0224-2.9433,0.0224c-1.11719,0-2.40039,0-3.84906,0c-1.51031,0-2.8233,0-3.94,0
		c-1.11725,0-2.09082-0.00677-2.9209-0.0224c-0.83063-0.01465-1.5473-0.0293-2.15094-0.04486
		c-0.60449-0.01569-1.14789-0.0235-1.63031-0.0235c2.38422-1.3584,4.39941-2.67871,6.04541-3.96191
		c1.64502-1.2832,2.99609-2.58893,4.05322-3.91699c1.29742,1.7207,2.84521,3.2149,4.6416,4.48242
		c1.7959,1.26855,3.97748,2.40039,6.54388,3.39648C173.48907,31.84644,172.93787,31.85425,172.31915,31.86993z"/>
	<path fill="#EBEBEB" d="M149.47296,13.50659h27.80524v4.61914h3.62256v-8.01563c-0.69525,0.06049-1.4668,0.11328-2.31299,0.1582
		s-1.85156,0.07623-3.0152,0.09082c-1.16345,0.01556-2.50867,0.03809-4.0351,0.06738
		c-1.52692,0.03131-3.31787,0.0459-5.37347,0.0459c-0.15143-0.90631-0.32483-1.7666-0.52155-2.58112
		c-0.19629-0.81537-0.4151-1.61517-0.65729-2.40027l-4.57947,0.67871c0.5434,1.35925,0.98236,2.79291,1.31488,4.30267
		c-2.26709,0-4.23187-0.00781-5.89502-0.02246c-1.6626-0.01563-3.11328-0.03802-4.35309-0.06836
		c-1.23969-0.0293-2.30511-0.06836-3.19672-0.11328s-1.7002-0.09772-2.42578-0.1582v8.55859h3.62299V13.50659z"/>
	<path fill="#EBEBEB" d="M168.47351,15.68042l-2.12842,2.6709c1.90228,0.78607,3.79639,1.78223,5.68359,2.98932
		c1.88617,1.20801,3.62988,2.49121,5.23047,3.84961l2.6264-2.98932c-1.81146-1.14655-3.66785-2.27155-5.57025-3.37402
		C172.41345,17.72534,170.46619,16.67651,168.47351,15.68042z"/>
	<path fill="#EBEBEB" d="M153.8432,22.29175c1.40381-1.05664,2.48291-1.93164,3.23767-2.62695
		c0.5733-0.5127,0.99609-0.86041,1.26813-1.04095c0.27148-0.1817,0.5127-0.30182,0.72461-0.3623
		c0.48236-0.15143,0.73926-0.30963,0.76959-0.47559c0.02966-0.16602-0.15143-0.32422-0.54352-0.47565
		c-0.33252-0.15039-0.76947-0.38477-1.31299-0.70221c-0.54352-0.31635-1.02679-0.64056-1.44922-0.97357
		c-0.54352,0.72461-1.23047,1.45697-2.06061,2.19629c-0.83051,0.74023-1.71381,1.42682-2.64886,2.06049
		c-0.93652,0.63385-1.9101,1.20813-2.9209,1.7207c-1.01221,0.51373-1.97021,0.92194-2.87604,1.22272
		c0.60364,0.33301,1.2149,0.7627,1.83405,1.29102c0.61865,0.52826,1.04889,1.00391,1.29095,1.42682
		C150.87677,24.4353,152.43927,23.34839,153.8432,22.29175z"/>
</g>
</svg>
