<svg xmlns="http://www.w3.org/2000/svg" viewBox="0 0 30.04 25.86"><defs><style>.cls-1{fill:#ffda00;}</style></defs><title>Asset9</title><g id="Layer_2" data-name="Layer 2"><g id="Layer_1-2" data-name="Layer 1"><path class="cls-1" d="M26.45,18.25H3.59a2.22,2.22,0,0,1-2.27-2.17v-.24h27.4v.24a2.22,2.22,0,0,1-2.27,2.17M3.59,1.26H26.45a2.23,2.23,0,0,1,2.27,2.18V14.58H1.32V3.44A2.23,2.23,0,0,1,3.59,1.26m8,23.34.39-.53h6.83l.39.53Zm6.51-1.79H12.69l1.21-3h3ZM26.45,0H3.59A3.52,3.52,0,0,0,0,3.44V16.08a3.52,3.52,0,0,0,3.59,3.44h9l-1.36,3.39a.8.8,0,0,0-.17.15L9.74,24.87a.61.61,0,0,0-.05.65.67.67,0,0,0,.59.34H20.44a.66.66,0,0,0,.58-.34.59.59,0,0,0-.05-.65l-1.33-1.81a.52.52,0,0,0-.11-.1l-1.38-3.44h8.3A3.52,3.52,0,0,0,30,16.08V3.44A3.52,3.52,0,0,0,26.45,0"/><path class="cls-1" d="M20.3,9.58a.67.67,0,0,0,.41.13.65.65,0,0,0,.51-.24l4.64-5.62A.6.6,0,0,0,25.75,3a.67.67,0,0,0-.92.1L20.19,8.69a.61.61,0,0,0,.11.89"/><path class="cls-1" d="M24.09,7.1,21.69,10a.61.61,0,0,0,.1.89.64.64,0,0,0,.41.14.65.65,0,0,0,.51-.24l2.4-2.86A.6.6,0,0,0,25,7a.67.67,0,0,0-.92.09"/><path class="cls-1" d="M20.78,10.94l-.43.51a.6.6,0,0,0,.11.88.62.62,0,0,0,.41.14.68.68,0,0,0,.51-.23l.43-.52a.6.6,0,0,0-.11-.88.66.66,0,0,0-.92.1"/><path class="cls-1" d="M17.35,10.43a.66.66,0,0,0,.5-.23l4-4.62a.61.61,0,0,0-.08-.89.68.68,0,0,0-.93.08l-4,4.62a.62.62,0,0,0,.09.89.66.66,0,0,0,.42.15"/><path class="cls-1" d="M24.76,16.11a.87.87,0,1,0,.91.87.89.89,0,0,0-.91-.87"/><path class="cls-1" d="M26.91,16.11a.87.87,0,1,0,.9.87.88.88,0,0,0-.9-.87"/></g></g></svg>