<svg xmlns="http://www.w3.org/2000/svg" viewBox="0 0 214.29 55.96"><defs><style>.cls-1{fill:#231f20;}</style></defs><title>t1-600</title><g id="Layer_2" data-name="Layer 2"><g id="Layer_1-2" data-name="Layer 1"><path class="cls-1" d="M74.34,13.86V10.42H83.9a11.14,11.14,0,0,1-1.34,5.87,9.25,9.25,0,0,1-3.9,3.41A13,13,0,0,1,72.92,21q-5.52,0-8.47-3a10.19,10.19,0,0,1-3-7.52A10.6,10.6,0,0,1,63,4.89,9.44,9.44,0,0,1,66.9,1.23,11.94,11.94,0,0,1,72.28,0a9.42,9.42,0,0,1,6.39,2V.32h3.45V7.56H78.67a5.13,5.13,0,0,0-2.16-2.89,6.19,6.19,0,0,0-3.45-1,5.62,5.62,0,0,0-4.15,1.72,6.48,6.48,0,0,0-1.71,4.77,7.42,7.42,0,0,0,1.74,5.31,5.67,5.67,0,0,0,4.25,1.82,5.06,5.06,0,0,0,3.06-.89,4.6,4.6,0,0,0,1.68-2.49Z"/><path class="cls-1" d="M86.28,20.7V17.26h2.45V3.76H86.28V.32h18V6.78h-3.89v-3H94V8.47h5.1v3.44H94v5.35h6.32V14.21h3.89V20.7Z"/><path class="cls-1" d="M110,20.7V17.26h3.06V3.76H110V8.51h-3.5V.32H125V8.51h-3.46V3.76h-3.15v13.5h3.07V20.7Z"/><path class="cls-1" d="M154.38,17.26V20.7h-10V17.26H147l-1-3.51h-5.29l-1.08,3.51h2.72V20.7h-9V17.26h2.52l4-13.5h-2.71V.32h13.3V3.76h-2.74l4.27,13.5Zm-9.22-6.49-1.7-6.14-1.83,6.14Z"/><path class="cls-1" d="M0,55.71V52.27H2.92V38.77H0V35.33H18.24v6.29h-3.9V38.77H8.22v4.72h4.41v3.44H8.22v5.34h3.13v3.44Z"/><path class="cls-1" d="M41.3,52.27v3.44H35.09l-4.6-8.92H28.16v5.48h2.55v3.44H20.06V52.27h2.8V38.77h-2.8V35.33H32.35c2.31,0,4,.59,5,1.75a5.87,5.87,0,0,1,1.53,4,5.28,5.28,0,0,1-3.53,5.07l3.31,6.16ZM28.16,43.54H30c2.24,0,3.36-.81,3.36-2.41a2.08,2.08,0,0,0-.76-1.77,3.44,3.44,0,0,0-2.12-.59h-2.3Z"/><path class="cls-1" d="M43.08,55.71V52.27h2.44V38.77H43.08V35.33H61v6.46h-3.9v-3H50.83v4.71h5.09v3.44H50.83v5.35h6.31V49.22H61v6.49Z"/><path class="cls-1" d="M64.11,55.71V52.27h2.44V38.77H64.11V35.33h18v6.46h-3.9v-3H71.86v4.71H77v3.44H71.86v5.35h6.31V49.22h3.9v6.49Z"/><path class="cls-1" d="M91.44,55.71V52.27h2.64V38.77H91.44V35.33h10.22l4.47,11.94,4.5-11.94H121v3.44h-2.63v13.5H121v3.44H110.79V52.27h2.46V38.77h-.48l-6.31,16.94h-2.2L97.87,38.77h-.48v13.5h2.66v3.44Z"/><path class="cls-1" d="M134.59,35a11.18,11.18,0,0,1,8.3,3.05,10.61,10.61,0,0,1,0,14.86,11.2,11.2,0,0,1-8.29,3q-5.46,0-8.39-3.13a10.4,10.4,0,0,1-2.93-7.35,10.17,10.17,0,0,1,3-7.42Q129.29,35,134.59,35Zm0,3.72a5.21,5.21,0,0,0-4,1.76A7.3,7.3,0,0,0,129,45.64a7,7,0,0,0,1.61,4.81,5.16,5.16,0,0,0,4,1.8,5.28,5.28,0,0,0,4-1.76,7.24,7.24,0,0,0,1.64-5.09,7.2,7.2,0,0,0-1.57-4.82A5.09,5.09,0,0,0,134.59,38.73Z"/><path class="cls-1" d="M148.1,55.71V52.27h2.72V38.77H148.1V35.33h8.55L164.15,48V38.77H161.5V35.33h9.14v3.44h-2.86V55.85h-4.54l-8.79-15.1V52.27H157v3.44Z"/><path class="cls-1" d="M176.13,55.71V52.27h3.06V38.77h-3.06v4.75h-3.5V35.33H191.1v8.19h-3.45V38.77H184.5v13.5h3.06v3.44Z"/><path class="cls-1" d="M193.33,55.71V52.27h2.54V38.77h-2.54V35.33h9.84v3.44H201v4.47h5.55V38.77h-2.06V35.33h9.77v3.44h-2.55v13.5h2.55v3.44h-9.77V52.27h2.06V46.7H201v5.57h2.14v3.44Z"/></g></g></svg>