<svg xmlns="http://www.w3.org/2000/svg" viewBox="0 0 207.6 107.34"><defs><style>.cls-1{fill:#231f20;}</style></defs><title>t3-600</title><g id="Layer_2" data-name="Layer 2"><g id="Layer_1-2" data-name="Layer 1"><path class="cls-1" d="M26.58,23.9v-4h3.3V13.57L23.5,4.35H20.62v-4H32.4v4H30.08l3.46,5.73L37,4.35H34.61v-4H45v4H42.09L36,13.57v6.36h3.28v4Z"/><path class="cls-1" d="M47,23.9v-4h2.83V4.35H47v-4H67.72V7.83h-4.5V4.35H55.93V9.78h5.89v4H55.93v6.18h7.29V16.41h4.5V23.9Z"/><path class="cls-1" d="M83.55,19.93v4H71.15v-4h3V4.35h-3v-4h12.4a10,10,0,0,1,6.69,2A6.84,6.84,0,0,1,92.6,7.87a7.56,7.56,0,0,1-.83,3.56,6.4,6.4,0,0,1-2.12,2.45,8,8,0,0,1-3,1.17,23.05,23.05,0,0,1-4.17.31H80.27v4.57Zm-3.28-8.49h.91c2.1,0,3.45-.35,4-1a3.67,3.67,0,0,0,.91-2.54,3.72,3.72,0,0,0-.63-2.19,2.51,2.51,0,0,0-1.43-1.12,11.84,11.84,0,0,0-2.66-.21H80.27Z"/><path class="cls-1" d="M93.22,30.09V27.56Q96,27.28,96,24.21V23.9H93.22V18.24h5.65V23.5a11.09,11.09,0,0,1-.55,3.91,3.76,3.76,0,0,1-1.86,2A7.06,7.06,0,0,1,93.22,30.09Z"/><path class="cls-1" d="M116.7,23.9v-4H120V13.57l-6.38-9.22h-2.88v-4h11.78v4H120.2l3.46,5.73,3.5-5.73h-2.43v-4H135.1v4h-2.89l-6.09,9.22v6.36h3.28v4Z"/><path class="cls-1" d="M149.28,0q6.09,0,9.59,3.52a11.69,11.69,0,0,1,3.49,8.58,11.7,11.7,0,0,1-3.5,8.58q-3.51,3.51-9.58,3.51-6.3,0-9.69-3.61a12,12,0,0,1-3.38-8.48,11.78,11.78,0,0,1,3.47-8.57Q143.16,0,149.28,0Zm0,4.3a6,6,0,0,0-4.59,2c-1.26,1.35-1.88,3.34-1.88,5.95a8,8,0,0,0,1.86,5.55,5.93,5.93,0,0,0,4.61,2.08,6.07,6.07,0,0,0,4.61-2A8.35,8.35,0,0,0,155.78,12,8.29,8.29,0,0,0,154,6.43,5.87,5.87,0,0,0,149.28,4.3Z"/><path class="cls-1" d="M164.33,4.35v-4h11.23v4h-2.31V15a19.81,19.81,0,0,0,.17,3.07,2.56,2.56,0,0,0,.94,1.55,3,3,0,0,0,1.93.61,3.36,3.36,0,0,0,2-.58,2.52,2.52,0,0,0,1-1.44,17.09,17.09,0,0,0,.23-3.52V4.35h-2.28v-4h9.37v4h-2.88V16.12a17.18,17.18,0,0,1-.25,3.5,5.25,5.25,0,0,1-1.17,2.16,6.32,6.32,0,0,1-2.65,1.74,10.89,10.89,0,0,1-4,.67,11.93,11.93,0,0,1-4.44-.73,6.05,6.05,0,0,1-3.88-4.38,22.28,22.28,0,0,1-.26-4.09V4.35Z"/><path class="cls-1" d="M24.53,61.5v4H17.36l-5.31-10.3H9.35V61.5h3v4H0v-4H3.23V45.92H0V42H14.19c2.68,0,4.6.67,5.78,2a6.75,6.75,0,0,1,1.77,4.57q0,4-4.08,5.86l3.82,7.1ZM9.35,51.42h2.1c2.6,0,3.89-.92,3.89-2.77a2.41,2.41,0,0,0-.88-2A4,4,0,0,0,12,45.92H9.35Z"/><path class="cls-1" d="M26.55,65.48v-4h2.82V45.92H26.55V42H47.29v7.46h-4.5V45.92H35.5v5.43h5.88v4H35.5V61.5h7.29V58h4.5v7.5Z"/><path class="cls-1" d="M73.63,61.5v4H62.06v-4h3l-1.12-4h-6.1l-1.25,4h3.14v4H49.32v-4h2.91l4.59-15.58H53.69V42H69.05v4H65.88L70.82,61.5ZM63,54l-2-7.09L58.91,54Z"/><path class="cls-1" d="M75.52,65.48v-4h3.57V45.92H75.52V42H86.67a29.65,29.65,0,0,1,5.66.43,10.11,10.11,0,0,1,4.11,1.91,10.54,10.54,0,0,1,3.15,4,12.6,12.6,0,0,1,1.18,5.51,13.11,13.11,0,0,1-.83,4.68,11.07,11.07,0,0,1-2,3.59A9.19,9.19,0,0,1,95,64.2a12.06,12.06,0,0,1-3.13,1,29.49,29.49,0,0,1-4.43.24Zm9.67-4h1.48a10.65,10.65,0,0,0,4.23-.69,5.32,5.32,0,0,0,2.52-2.45,9.58,9.58,0,0,0,.94-4.57,10.09,10.09,0,0,0-1-4.57,5.34,5.34,0,0,0-2.59-2.59,10.52,10.52,0,0,0-4.15-.71H85.19Z"/><path class="cls-1" d="M116,65.48v-4h3.54V45.92H116V51.4h-4V42h21.33V51.4h-4V45.92H125.7V61.5h3.54v4Z"/><path class="cls-1" d="M135.86,65.48v-4h2.95V45.92h-2.95V42h11.37v4h-2.47v5.16h6.41V45.92h-2.38V42h11.28v4h-2.94V61.5h2.94v4H148.79v-4h2.38V55.07h-6.41V61.5h2.47v4Z"/><path class="cls-1" d="M186.35,61.5v4H174.78v-4h3l-1.12-4h-6.1l-1.26,4h3.15v4H162v-4H165l4.58-15.58H166.4V42h15.37v4H178.6l4.94,15.58ZM175.71,54l-2-7.09L171.63,54Z"/><path class="cls-1" d="M190.32,65.48v-4h3.53V45.92h-3.53V51.4h-4V42H207.6V51.4h-4V45.92H200V61.5h3.53v4Z"/><path class="cls-1" d="M63.26,103.08v4H56.09l-5.31-10.3H48.09v6.33H51v4H38.73v-4H42V87.5H38.73v-4h14.2q4,0,5.77,2a6.78,6.78,0,0,1,1.77,4.58q0,4-4.08,5.85l3.83,7.11ZM48.09,93h2.09q3.9,0,3.9-2.77a2.43,2.43,0,0,0-.89-2,4,4,0,0,0-2.45-.67H48.09Z"/><path class="cls-1" d="M65.1,107.05v-4h3.57V87.5H65.1v-4H78.39v4h-3.6v15.58h3.6v4Z"/><path class="cls-1" d="M95.63,99.15v-4h11a12.84,12.84,0,0,1-1.55,6.78,10.55,10.55,0,0,1-4.5,3.94A14.89,14.89,0,0,1,94,107.34q-6.37,0-9.79-3.42a11.79,11.79,0,0,1-3.41-8.68,12.23,12.23,0,0,1,1.7-6.45A10.82,10.82,0,0,1,87,84.57a13.69,13.69,0,0,1,6.21-1.42q4.73,0,7.37,2.3V83.52h4v8.36h-4a5.92,5.92,0,0,0-2.49-3.34,7.16,7.16,0,0,0-4-1.21,6.53,6.53,0,0,0-4.79,2,7.48,7.48,0,0,0-2,5.51c0,2.68.67,4.73,2,6.13a6.51,6.51,0,0,0,4.9,2.11,5.82,5.82,0,0,0,3.54-1,5.28,5.28,0,0,0,1.94-2.88Z"/><path class="cls-1" d="M109.33,107.05v-4h3V87.5h-3v-4H120.7v4h-2.47v5.16h6.41V87.5h-2.38v-4h11.28v4H130.6v15.58h2.94v4H122.26v-4h2.38V96.65h-6.41v6.43h2.47v4Z"/><path class="cls-1" d="M140.11,107.05v-4h3.54V87.5h-3.54V93h-4V83.52H157.4V93h-4V87.5h-3.64v15.58h3.54v4Z"/><path class="cls-1" d="M161,107.05v-5.67h5.65v5.67Zm1.57-8.2L161.09,90V83.52h5.23V90L165,98.85Z"/></g></g></svg>