<svg xmlns="http://www.w3.org/2000/svg" viewBox="0 0 260 43.02"><defs><style>.cls-1{fill:#231f20;}.cls-2{fill:#fff;}</style></defs><title>t4-600</title><g id="Layer_2" data-name="Layer 2"><g id="Layer_1-2" data-name="Layer 1"><polygon class="cls-1" points="11.95 0 0 21.51 11.95 43.02 248.05 43.02 260 21.51 248.05 0 11.95 0"/><path class="cls-2" d="M34.09,14.13A8,8,0,0,1,40,16.3a7.25,7.25,0,0,1,2.16,5.31A7.25,7.25,0,0,1,40,26.92a8,8,0,0,1-5.92,2.17,7.82,7.82,0,0,1-6-2.23A7.45,7.45,0,0,1,26,21.61a7.23,7.23,0,0,1,2.15-5.3A7.93,7.93,0,0,1,34.09,14.13Zm0,2.65A3.74,3.74,0,0,0,31.24,18a5.27,5.27,0,0,0-1.16,3.68,5,5,0,0,0,1.15,3.44,3.83,3.83,0,0,0,5.7,0,5.14,5.14,0,0,0,1.17-3.63A5.13,5.13,0,0,0,37,18.1,3.61,3.61,0,0,0,34.09,16.78Z"/><path class="cls-2" d="M43.82,28.91V26.45h1.94V16.82H43.82V14.36h6.11l5.35,9.07V16.82H53.39V14.36h6.53v2.46h-2V29H54.64L48.36,18.23v8.22h1.83v2.46Z"/><path class="cls-2" d="M61.42,28.91V26.45h1.74V16.82H61.42V14.36H74.24V19H71.46V16.82H67v3.36h3.64v2.45H67v3.82h4.51V24.28h2.78v4.63Z"/><path class="cls-2" d="M80.94,28.91V26.45h1.88V16.82H80.94V14.36h7.3l3.19,8.52,3.22-8.52h7.44v2.46H100.2v9.63h1.89v2.46H94.76V26.45h1.76V16.82h-.34L91.67,28.91H90.1L85.53,16.82h-.34v9.63h1.9v2.46Z"/><path class="cls-2" d="M111.83,14.13a8,8,0,0,1,5.93,2.17,7.25,7.25,0,0,1,2.16,5.31,7.26,7.26,0,0,1-2.17,5.31,8,8,0,0,1-5.92,2.17,7.83,7.83,0,0,1-6-2.23,7.45,7.45,0,0,1-2.09-5.25,7.27,7.27,0,0,1,2.15-5.3A7.93,7.93,0,0,1,111.83,14.13Zm0,2.65A3.72,3.72,0,0,0,109,18a5.23,5.23,0,0,0-1.17,3.68A5,5,0,0,0,109,25.16a3.83,3.83,0,0,0,5.7,0,5.1,5.1,0,0,0,1.18-3.63,5.18,5.18,0,0,0-1.12-3.45A3.64,3.64,0,0,0,111.83,16.78Z"/><path class="cls-2" d="M121.54,28.91V26.45h1.94V16.82h-1.94V14.36h6.11L133,23.43V16.82h-1.9V14.36h6.53v2.46h-2V29h-3.24l-6.28-10.79v8.22h1.83v2.46Z"/><path class="cls-2" d="M141.61,28.91V26.45h2.18V16.82h-2.18v3.39h-2.5V14.36H152.3v5.85h-2.47V16.82h-2.25v9.63h2.19v2.46Z"/><path class="cls-2" d="M154,28.91V26.45h1.82V16.82H154V14.36h7v2.46h-1.52V20h4V16.82H162V14.36h7v2.46H167.1v9.63h1.82v2.46h-7V26.45h1.47v-4h-4v4H161v2.46Z"/><path class="cls-2" d="M175.54,28.91V26.45h2.08V16.82h-2.08V14.36h13v4.49h-2.78v-2h-4.37v3.37h3.15v2.45h-3.15v3.81h2.24v2.46Z"/><path class="cls-2" d="M205.08,26.45v2.46h-4.43l-3.29-6.37h-1.67v3.91h1.82v2.46h-7.6V26.45h2V16.82h-2V14.36h8.78a4.5,4.5,0,0,1,3.57,1.25,4.16,4.16,0,0,1,1.09,2.83,3.79,3.79,0,0,1-2.52,3.62l2.37,4.39Zm-9.39-6.23H197c1.61,0,2.41-.57,2.41-1.72a1.46,1.46,0,0,0-.55-1.26,2.44,2.44,0,0,0-1.51-.42h-1.65Z"/><path class="cls-2" d="M206.39,28.91V26.45h1.75V16.82h-1.75V14.36h12.83V19h-2.78V16.82h-4.51v3.36h3.64v2.45h-3.64v3.82h4.51V24.28h2.78v4.63Z"/><path class="cls-2" d="M221.46,28.91V26.45h1.74V16.82h-1.74V14.36h12.82V19H231.5V16.82H227v3.36h3.64v2.45H227v3.82h4.51V24.28h2.78v4.63Z"/></g></g></svg>