<svg xmlns="http://www.w3.org/2000/svg" viewBox="0 0 213.17 66.02"><defs><style>.cls-1{fill:#fff;}</style></defs><title>t1-970</title><g id="Layer_2" data-name="Layer 2"><g id="Layer_1-2" data-name="Layer 1"><path class="cls-1" d="M24.06,15.63H22.44a1,1,0,0,0-1,1.08V25a1.08,1.08,0,0,1-1.08,1h-1.9a1,1,0,0,1-1-1V1.4a1.06,1.06,0,0,1,1-1h5.57c2.62,0,4.2.5,5.39,1.65a7.83,7.83,0,0,1,2,5.86C31.49,13.26,29.19,15.63,24.06,15.63ZM23.16,4h-.72a1,1,0,0,0-1,1.05V11a.91.91,0,0,0,1,1h.72c3.16,0,4.2-1,4.2-3.85C27.36,5,26.39,4,23.16,4Z"/><path class="cls-1" d="M50.43,26H48.52A1.17,1.17,0,0,1,47.3,25l-.72-3.48a1.26,1.26,0,0,0-1.25-1.08H41.91a1.37,1.37,0,0,0-1.18,1.08L40,25a1.23,1.23,0,0,1-1.22,1H37A.81.81,0,0,1,36.16,25L40.73,1.33a1.06,1.06,0,0,1,1.18-1h3.42a1.16,1.16,0,0,1,1.25,1L51.33,25A.84.84,0,0,1,50.43,26ZM43.82,6.4c-.07-.26-.36-.33-.4,0l-1.69,9.42c-.14.61.33.93.9.93h2c.65,0,1-.32.86-1Z"/><path class="cls-1" d="M70.51,26H68.39A1.29,1.29,0,0,1,67,25L64.3,16.53c-.26-.72-.54-1-1.33-1h-.36a.9.9,0,0,0-1,1V25a1,1,0,0,1-1,1h-2a.94.94,0,0,1-1-1V1.4a1.06,1.06,0,0,1,1-1h5.25c4.77,0,7.33,2.55,7.33,7.33,0,2.87-.87,5-2.63,6.22-.61.43-.75.68-.57,1.29L71.2,25A.75.75,0,0,1,70.51,26ZM63,4h-.43a1,1,0,0,0-1,1.05v5.75a1,1,0,0,0,1,1H63c3,0,4.06-1,4.06-3.95S66.06,4,63,4Z"/><path class="cls-1" d="M92,26H89.7A1.3,1.3,0,0,1,88.3,25L84.7,15c-.07-.25-.46-.36-.75-.36-.61,0-1.76,1.51-1.76,4V25a1,1,0,0,1-1,1H79.24a1,1,0,0,1-1-1V1.37a1,1,0,0,1,1-1h1.91a1,1,0,0,1,1,1V10c0,.39.36.36.54,0L87.36,1.4A1.73,1.73,0,0,1,89,.36h2.19c.61,0,.69.61.43,1L87.4,8.66a2,2,0,0,0-.25,2L92.61,25C92.83,25.51,92.57,26,92,26Z"/><path class="cls-1" d="M117.58,15a5.49,5.49,0,0,0-.36,2.05V25a1.1,1.1,0,0,1-1,1.05h-1.91a1,1,0,0,1-1-1V17.07a4.91,4.91,0,0,0-.36-2.05l-5-13.58c-.21-.58,0-1.08.65-1.08h2.37a1.33,1.33,0,0,1,1.29,1L115,10.21c.21.64.46.64.68,0l2.87-8.8a1.32,1.32,0,0,1,1.33-1h2.27c.68,0,.9.39.64,1Z"/><path class="cls-1" d="M141.37,23.93a6.64,6.64,0,0,1-5.57,2.48,6.53,6.53,0,0,1-5.54-2.48c-1.08-1.51-1.47-3.16-1.47-6.07V8.55c0-2.91.43-4.71,1.47-6.11A6.48,6.48,0,0,1,135.8,0a6.63,6.63,0,0,1,5.57,2.44c1,1.51,1.47,3.2,1.47,6.11v9.31C142.84,20.77,142.41,22.53,141.37,23.93ZM138.81,8.62c0-3.66-.79-4.92-3-4.92s-3,1.26-3,4.92v9.2c0,3.63.72,4.89,3,4.89s3-1.26,3-4.89Z"/><path class="cls-1" d="M162.28,24.15A6.26,6.26,0,0,1,157,26.41a6.45,6.45,0,0,1-5.31-2.26c-1.12-1.55-1.48-3.13-1.48-6.36V1.4a1,1,0,0,1,1-1h1.9a1,1,0,0,1,1,1v17c0,3.05.82,4.31,2.83,4.31s2.81-1.22,2.81-4.31V1.4a1,1,0,0,1,1-1h1.87a1,1,0,0,1,1,1.08V17.75C163.75,21.06,163.39,22.75,162.28,24.15Z"/><path class="cls-1" d="M184.37,26h-2.12A1.29,1.29,0,0,1,180.89,25l-2.73-8.44c-.25-.72-.54-1-1.33-1h-.36a.91.91,0,0,0-1,1V25a1,1,0,0,1-1,1h-2a.94.94,0,0,1-1-1V1.4a1.06,1.06,0,0,1,1-1h5.25c4.77,0,7.33,2.55,7.33,7.33,0,2.87-.87,5-2.63,6.22-.61.43-.75.68-.57,1.29l3.2,9.77A.75.75,0,0,1,184.37,26ZM176.9,4h-.43a1,1,0,0,0-1,1.05v5.75a1,1,0,0,0,1,1h.43c3,0,4.06-1,4.06-3.95S179.92,4,176.9,4Z"/><path class="cls-1" d="M12.9,66H10.78a1.29,1.29,0,0,1-1.36-1L6.68,56.53c-.25-.72-.54-1-1.33-1H5c-.69,0-1,.33-1,1V65a1,1,0,0,1-1,1H1a.94.94,0,0,1-1-1V41.4a1.06,1.06,0,0,1,1-1H6.25c4.78,0,7.33,2.55,7.33,7.33,0,2.87-.86,5-2.62,6.22-.61.43-.75.68-.58,1.29L13.58,65A.75.75,0,0,1,12.9,66ZM5.43,44H5a1,1,0,0,0-1,1v5.75a1,1,0,0,0,1,1h.43c3,0,4.06-1,4.06-4S8.44,44,5.43,44Z"/><path class="cls-1" d="M29.39,65a1.15,1.15,0,0,1-1.22,1H25.33a1.19,1.19,0,0,1-1.26-1L19,41.4c-.11-.57.14-1,.75-1h2a1.29,1.29,0,0,1,1.29,1l3.45,17.5c.08.32.29.29.36,0L30,41.4a1.26,1.26,0,0,1,1.18-1h2a.81.81,0,0,1,.86,1Z"/><path class="cls-1" d="M54.22,66H52.28a1,1,0,0,1-1-1V41.37a1,1,0,0,1,1-1h2a1,1,0,0,1,1,1V65.05A1.09,1.09,0,0,1,54.22,66Z"/><path class="cls-1" d="M76.89,66H75a1.52,1.52,0,0,1-1.44-1L67.94,51.61c-.21-.51-.43-.47-.43,0V65a1,1,0,0,1-1,1H64.53a1,1,0,0,1-1-1V41.4a1,1,0,0,1,1-1h1.94a1.6,1.6,0,0,1,1.44,1l5.6,13.4c.22.5.43.47.43,0V41.4a1,1,0,0,1,1-1h1.94a1,1,0,0,1,1,1V65A1.09,1.09,0,0,1,76.89,66Z"/><path class="cls-1" d="M102.87,66H97.48a1.15,1.15,0,0,1-1-1V41.4a1.07,1.07,0,0,1,1-1h4.92c4.78,0,7.47,2.34,7.47,6.47,0,2.66-1,4.38-3.16,5.35-.32.15-.36.25-.36.4s.07.21.36.32c2.62.93,3.81,3.09,3.81,5.86C110.52,63.29,107.65,66,102.87,66ZM102,44h-.54a1.06,1.06,0,0,0-1,1.12v4.67a1.09,1.09,0,0,0,1,1h.47c2.4,0,3.95-1.44,3.95-3.6S104.59,44,102,44Zm-.07,10.43h-.47a.93.93,0,0,0-1,1v5.82a.91.91,0,0,0,1,1h1c2.55,0,4-1.29,4-3.59C106.39,56.13,104.63,54.45,101.9,54.45Z"/><path class="cls-1" d="M130.39,66h-1.9a1.17,1.17,0,0,1-1.23-1l-.72-3.48a1.26,1.26,0,0,0-1.25-1.08h-3.42a1.37,1.37,0,0,0-1.18,1.08L120,65a1.23,1.23,0,0,1-1.22,1h-1.87a.81.81,0,0,1-.79-1l4.57-23.64a1.06,1.06,0,0,1,1.18-1h3.42a1.15,1.15,0,0,1,1.25,1L131.29,65A.84.84,0,0,1,130.39,66ZM123.78,46.4c-.07-.26-.36-.33-.4,0l-1.69,9.42c-.14.61.33.93.9.93h2c.65,0,1-.32.86-1Z"/><path class="cls-1" d="M150.94,66H149a1.53,1.53,0,0,1-1.44-1L142,51.61c-.21-.51-.43-.47-.43,0V65a1,1,0,0,1-1,1h-1.94a1,1,0,0,1-1-1V41.4a1,1,0,0,1,1-1h1.94a1.6,1.6,0,0,1,1.44,1l5.6,13.4c.22.5.44.47.44,0V41.4a1,1,0,0,1,1-1h1.94a1,1,0,0,1,1,1V65A1.09,1.09,0,0,1,150.94,66Z"/><path class="cls-1" d="M170.56,44h-5.71a1.09,1.09,0,0,0-1,1.08v4.64a1,1,0,0,0,1,1h4.88a1.2,1.2,0,0,1,1,1.12V53.4a1.22,1.22,0,0,1-1,1h-4.88a1.11,1.11,0,0,0-1,1V65a1.23,1.23,0,0,1-1,1h-1.91a1.26,1.26,0,0,1-1-1V41.4a1,1,0,0,1,1-1h9.67a1,1,0,0,1,1,1V43A1.08,1.08,0,0,1,170.56,44Z"/><path class="cls-1" d="M188.38,44h-5.71a1.09,1.09,0,0,0-1,1.08v4.64a1,1,0,0,0,1,1h4.88a1.21,1.21,0,0,1,1,1.12V53.4a1.22,1.22,0,0,1-1,1h-4.88a1.11,1.11,0,0,0-1,1V65a1.22,1.22,0,0,1-1,1h-1.91a1.26,1.26,0,0,1-1-1V41.4a1,1,0,0,1,1-1h9.67a1,1,0,0,1,1,1V43A1.08,1.08,0,0,1,188.38,44Z"/><path class="cls-1" d="M198.47,65.69a1.25,1.25,0,0,1-.71.33H196.1a1.12,1.12,0,0,1-.68-.33,1.31,1.31,0,0,1-.32-.72V63a1.31,1.31,0,0,1,.32-.72,1.13,1.13,0,0,1,.68-.32h1.66a1.26,1.26,0,0,1,.71.32,1.16,1.16,0,0,1,.33.69v2A1.15,1.15,0,0,1,198.47,65.69Zm7.19,0a1.29,1.29,0,0,1-.72.33h-1.65a1.12,1.12,0,0,1-.68-.33,1.29,1.29,0,0,1-.33-.72V63a1.29,1.29,0,0,1,.33-.72,1.13,1.13,0,0,1,.68-.32h1.65a1.31,1.31,0,0,1,.72.32,1.16,1.16,0,0,1,.33.69v2A1.15,1.15,0,0,1,205.66,65.69Zm7.19,0a1.29,1.29,0,0,1-.72.33h-1.65a1.16,1.16,0,0,1-.69-.33,1.31,1.31,0,0,1-.32-.72V63a1.31,1.31,0,0,1,.32-.72,1.18,1.18,0,0,1,.69-.32h1.65a1.31,1.31,0,0,1,.72.32,1.18,1.18,0,0,1,.32.69v2A1.16,1.16,0,0,1,212.85,65.69Z"/></g></g></svg>