<svg xmlns="http://www.w3.org/2000/svg" viewBox="0 0 309.79 110.23"><defs><style>.cls-1{fill:#fff;}</style></defs><title>t2-970</title><g id="Layer_2" data-name="Layer 2"><g id="Layer_1-2" data-name="Layer 1"><path class="cls-1" d="M40.35,26H30.5a1,1,0,0,1-1-1V1.4a1,1,0,0,1,1-1h1.91a1,1,0,0,1,1.08,1V21.31a.94.94,0,0,0,1,1h5.89a.91.91,0,0,1,1,1V25A1,1,0,0,1,40.35,26Z"/><path class="cls-1" d="M59.11,25a1,1,0,0,1-1,1H48.5a1,1,0,0,1-1-1V1.4a1.22,1.22,0,0,1,1-1h9.56a.9.9,0,0,1,1,1V3a.89.89,0,0,1-1,1H52.46c-.72,0-1,.51-1,1.19V9.74a1,1,0,0,0,1,1h4.78a1,1,0,0,1,1,1V13.4a1,1,0,0,1-1,1H52.42a1,1,0,0,0-1,1.08v5.82a.92.92,0,0,0,1,1h5.64a1.13,1.13,0,0,1,1,1.08Z"/><path class="cls-1" d="M77,4.35H74.12a1,1,0,0,0-1,1V25a1.06,1.06,0,0,1-1,1H70.1a1,1,0,0,1-1-1V5.35a1.18,1.18,0,0,0-1-1H65.14a1.07,1.07,0,0,1-1-1V1.37a1.06,1.06,0,0,1,1-1H77a1,1,0,0,1,1,1v2A1,1,0,0,1,77,4.35Z"/><path class="cls-1" d="M102.94,15a5.49,5.49,0,0,0-.36,2.05V25a1.1,1.1,0,0,1-1,1.05H99.63a1,1,0,0,1-1-1V17.07A4.91,4.91,0,0,0,98.23,15l-5-13.58C93,.86,93.2.36,93.85.36h2.37a1.33,1.33,0,0,1,1.29,1l2.81,8.84c.21.64.46.64.68,0l2.87-8.8a1.32,1.32,0,0,1,1.33-1h2.27c.68,0,.9.39.64,1Z"/><path class="cls-1" d="M126.72,23.93a6.62,6.62,0,0,1-5.57,2.48,6.52,6.52,0,0,1-5.53-2.48c-1.08-1.51-1.47-3.16-1.47-6.07V8.55c0-2.91.43-4.71,1.47-6.11A6.46,6.46,0,0,1,121.15,0a6.6,6.6,0,0,1,5.57,2.44c1,1.51,1.48,3.2,1.48,6.11v9.31C128.2,20.77,127.77,22.53,126.72,23.93ZM124.17,8.62c0-3.66-.79-4.92-3-4.92s-3,1.26-3,4.92v9.2c0,3.63.71,4.89,3,4.89s3-1.26,3-4.89Z"/><path class="cls-1" d="M147.64,24.15a6.26,6.26,0,0,1-5.29,2.26A6.45,6.45,0,0,1,137,24.15c-1.12-1.55-1.48-3.13-1.48-6.36V1.4a1,1,0,0,1,1-1h1.9a1,1,0,0,1,1,1v17c0,3.05.83,4.31,2.84,4.31s2.81-1.22,2.81-4.31V1.4a1,1,0,0,1,1-1h1.87a1,1,0,0,1,1,1.08V17.75C149.11,21.06,148.75,22.75,147.64,24.15Z"/><path class="cls-1" d="M169.73,26h-2.12A1.29,1.29,0,0,1,166.25,25l-2.73-8.44c-.26-.72-.54-1-1.33-1h-.36a.9.9,0,0,0-1,1V25a1,1,0,0,1-1,1h-2a.94.94,0,0,1-1-1V1.4a1.06,1.06,0,0,1,1-1h5.24c4.78,0,7.34,2.55,7.34,7.33,0,2.87-.87,5-2.63,6.22-.61.43-.75.68-.57,1.29l3.2,9.77A.75.75,0,0,1,169.73,26ZM162.26,4h-.43a1,1,0,0,0-1,1.05v5.75a1,1,0,0,0,1,1h.43c3,0,4.06-1,4.06-3.95S165.28,4,162.26,4Z"/><path class="cls-1" d="M194.45,26.41a7.24,7.24,0,0,1-7.65-6.5,1.09,1.09,0,0,1,.93-1l1.44-.43a3.71,3.71,0,0,1,.72-.14c.39,0,.65.21.79.82.61,2.34,1.94,3.56,3.77,3.56a2.77,2.77,0,0,0,2.91-2.91c0-1.62-.79-2.66-3.77-5l-2.59-2c-2.08-1.65-3.59-3.63-3.59-6.43,0-3.74,2.8-6.29,6.72-6.29a7.12,7.12,0,0,1,7,5.75,1,1,0,0,1-.79.93l-1.8.54a1.82,1.82,0,0,1-.43.07c-.43,0-.68-.25-.86-.79-.65-1.86-1.69-2.8-3.13-2.8a2.51,2.51,0,0,0-2.55,2.59c0,1.4.76,2.55,2.66,4.06l1.76,1.4c2.88,2.26,5.54,4.06,5.54,8.16C201.5,23.79,198.66,26.41,194.45,26.41Z"/><path class="cls-1" d="M219.78,25a1,1,0,0,1-1,1h-9.56a1,1,0,0,1-1-1V1.4a1.22,1.22,0,0,1,1-1h9.56a.91.91,0,0,1,1,1V3a.9.9,0,0,1-1,1h-5.64c-.72,0-1,.51-1,1.19V9.74a1,1,0,0,0,1,1h4.78a1,1,0,0,1,1,1V13.4a1,1,0,0,1-1,1H213.1a1,1,0,0,0-1,1.08v5.82a.92.92,0,0,0,1,1h5.64a1.12,1.12,0,0,1,1,1.08Z"/><path class="cls-1" d="M240,26H238A1.52,1.52,0,0,1,236.6,25L231,11.61c-.22-.51-.43-.47-.43,0V25a1,1,0,0,1-1,1.05h-1.94a1,1,0,0,1-1-1V1.4a1,1,0,0,1,1-1h1.94a1.6,1.6,0,0,1,1.44,1l5.61,13.4c.21.5.43.47.43,0V1.4a1,1,0,0,1,1-1H240a1,1,0,0,1,1.05,1V25A1.1,1.1,0,0,1,240,26Z"/><path class="cls-1" d="M255.32,26.41a7.24,7.24,0,0,1-7.66-6.5,1.1,1.1,0,0,1,.94-1l1.43-.43a3.71,3.71,0,0,1,.72-.14c.4,0,.65.21.79.82.61,2.34,1.94,3.56,3.78,3.56a2.78,2.78,0,0,0,2.91-2.91c0-1.62-.79-2.66-3.78-5l-2.58-2c-2.09-1.65-3.6-3.63-3.6-6.43C248.27,2.55,251.08,0,255,0a7.12,7.12,0,0,1,7,5.75,1,1,0,0,1-.79.93l-1.79.54a2,2,0,0,1-.43.07c-.44,0-.69-.25-.87-.79-.64-1.86-1.69-2.8-3.12-2.8a2.5,2.5,0,0,0-2.55,2.59c0,1.4.75,2.55,2.65,4.06l1.77,1.4c2.87,2.26,5.53,4.06,5.53,8.16C262.36,23.79,259.52,26.41,255.32,26.41Z"/><path class="cls-1" d="M280.65,25a1,1,0,0,1-1,1h-9.56A1,1,0,0,1,269,25V1.4a1.22,1.22,0,0,1,1.05-1h9.56c.68,0,1,.36,1,1V3a.89.89,0,0,1-1,1H274c-.72,0-1,.51-1,1.19V9.74a1,1,0,0,0,1,1h4.78a1,1,0,0,1,1,1V13.4a1,1,0,0,1-1,1H274a1,1,0,0,0-1,1.08v5.82a.93.93,0,0,0,1,1h5.65a1.13,1.13,0,0,1,1,1.08Z"/><path class="cls-1" d="M12.58,65.84A6.61,6.61,0,0,1,7,68.32a6.53,6.53,0,0,1-5.54-2.48C.4,64.33,0,62.68,0,59.77V50.46c0-2.91.43-4.71,1.47-6.11A6.48,6.48,0,0,1,7,41.91a6.62,6.62,0,0,1,5.57,2.44c1,1.51,1.47,3.2,1.47,6.11v9.31C14.05,62.68,13.62,64.44,12.58,65.84ZM10,50.53c0-3.66-.79-4.92-3-4.92s-3,1.26-3,4.92v9.2c0,3.63.72,4.89,3,4.89s3-1.26,3-4.89Z"/><path class="cls-1" d="M32.27,45.93H26.55a1.09,1.09,0,0,0-1,1.08v4.64a1,1,0,0,0,1,1h4.89a1.2,1.2,0,0,1,1,1.12v1.54a1.22,1.22,0,0,1-1,1H26.55a1.11,1.11,0,0,0-1,1v9.52a1.23,1.23,0,0,1-1.05,1.05H22.6a1.27,1.27,0,0,1-1-1.05V43.31a1,1,0,0,1,1-1h9.67a1,1,0,0,1,1,1v1.62A1.08,1.08,0,0,1,32.27,45.93Z"/><path class="cls-1" d="M62.7,67.93H60.79a1.16,1.16,0,0,1-1.22-1.05l-.72-3.48a1.26,1.26,0,0,0-1.25-1.08H54.18A1.37,1.37,0,0,0,53,63.4l-.69,3.52a1.23,1.23,0,0,1-1.22,1H49.22a.81.81,0,0,1-.79-1.05L53,43.24a1.06,1.06,0,0,1,1.18-1H57.6a1.16,1.16,0,0,1,1.25,1L63.6,66.88A.84.84,0,0,1,62.7,67.93ZM56.09,48.31c-.08-.26-.36-.33-.4,0L54,57.76c-.14.61.33.93.9.93H57c.65,0,1-.32.86-1Z"/><path class="cls-1" d="M76.13,67.93H70.82a1,1,0,0,1-.94-1.05V43.31a1.07,1.07,0,0,1,.94-1h5.31c5,0,7.44,2.59,7.44,8v9.6C83.57,65.38,81.17,67.93,76.13,67.93ZM79.58,51.4c0-4.06-1-5.47-3.77-5.47h-1a.93.93,0,0,0-1,1V63.43a.88.88,0,0,0,.87.83h1.11c2.77,0,3.77-1.44,3.77-5.43Z"/><path class="cls-1" d="M99.88,66.92a1.14,1.14,0,0,1-1.22,1H95.82a1.18,1.18,0,0,1-1.25-1.05L89.5,43.31c-.11-.57.14-1,.75-1h2a1.32,1.32,0,0,1,1.3,1l3.45,17.5c.07.32.28.29.36,0l3-17.47a1.27,1.27,0,0,1,1.19-1h2a.81.81,0,0,1,.86,1Z"/><path class="cls-1" d="M122.45,66.92a1,1,0,0,1-1,1h-9.56a1,1,0,0,1-1-1V43.31a1.21,1.21,0,0,1,1-1h9.56c.68,0,1,.36,1,1v1.62a.89.89,0,0,1-1,1H115.8c-.72,0-1,.51-1,1.19v4.53a1,1,0,0,0,1,1h4.78a1,1,0,0,1,1,1.05v1.61a1,1,0,0,1-1,1h-4.81a1,1,0,0,0-1,1.08v5.82a.93.93,0,0,0,1,1h5.64a1.12,1.12,0,0,1,1,1.08Z"/><path class="cls-1" d="M142.64,67.93H140.7a1.52,1.52,0,0,1-1.44-1.05l-5.57-13.36c-.21-.51-.43-.47-.43,0V66.88a1,1,0,0,1-1,1.05h-1.94a1,1,0,0,1-1-1V43.31a1,1,0,0,1,1-1h1.94a1.6,1.6,0,0,1,1.44,1l5.6,13.4c.22.5.44.47.44,0V43.31a1,1,0,0,1,1-1h1.94a1,1,0,0,1,1,1V66.92A1.09,1.09,0,0,1,142.64,67.93Z"/><path class="cls-1" d="M162.69,46.26h-2.91a1,1,0,0,0-1,1V66.92a1.07,1.07,0,0,1-1,1h-1.95a1,1,0,0,1-1-1V47.26a1.18,1.18,0,0,0-1-1H150.8a1.07,1.07,0,0,1-1-1V43.28a1.06,1.06,0,0,1,1-1h11.89a1,1,0,0,1,1,1v2A1,1,0,0,1,162.69,46.26Z"/><path class="cls-1" d="M181.7,66.06a6.25,6.25,0,0,1-5.28,2.26,6.47,6.47,0,0,1-5.32-2.26c-1.12-1.55-1.48-3.13-1.48-6.36V43.31a1,1,0,0,1,1-1h1.9a1,1,0,0,1,1.05,1v17c0,3,.82,4.31,2.84,4.31s2.8-1.22,2.8-4.31v-17a1,1,0,0,1,1-1h1.87a1,1,0,0,1,1,1.08V59.66C183.17,63,182.81,64.66,181.7,66.06Z"/><path class="cls-1" d="M203.79,67.93h-2.12a1.29,1.29,0,0,1-1.36-1.05l-2.73-8.44c-.25-.72-.54-1-1.33-1h-.36a.91.91,0,0,0-1,1v8.48a1,1,0,0,1-1,1h-2a.93.93,0,0,1-1-1V43.31a1.06,1.06,0,0,1,1-1h5.25c4.78,0,7.33,2.55,7.33,7.33,0,2.87-.86,5-2.63,6.22-.61.43-.75.68-.57,1.29l3.2,9.77A.75.75,0,0,1,203.79,67.93Zm-7.47-22h-.43a1,1,0,0,0-1,1v5.75a1,1,0,0,0,1,1h.43c3,0,4.06-1,4.06-4S199.34,45.93,196.32,45.93Z"/><path class="cls-1" d="M223.16,66.92a1,1,0,0,1-1,1h-9.56a1,1,0,0,1-1-1V43.31a1.21,1.21,0,0,1,1-1h9.56c.68,0,1,.36,1,1v1.62a.89.89,0,0,1-1,1h-5.64c-.72,0-1,.51-1,1.19v4.53a1,1,0,0,0,1,1h4.78a1,1,0,0,1,1,1.05v1.61a1,1,0,0,1-1,1h-4.81a1,1,0,0,0-1,1.08v5.82a.92.92,0,0,0,1,1h5.64a1.12,1.12,0,0,1,1,1.08Z"/><path class="cls-1" d="M251.69,46.26h-2.91a1,1,0,0,0-1,1V66.92a1.07,1.07,0,0,1-1.05,1h-1.94a1,1,0,0,1-1-1V47.26a1.18,1.18,0,0,0-1-1h-2.92a1.06,1.06,0,0,1-1-1V43.28a1.05,1.05,0,0,1,1-1h11.9a1,1,0,0,1,1,1v2A1,1,0,0,1,251.69,46.26Z"/><path class="cls-1" d="M270.41,67.93H268.5a1.16,1.16,0,0,1-1.22-1.05l-.72-3.48a1.26,1.26,0,0,0-1.25-1.08h-3.42a1.37,1.37,0,0,0-1.18,1.08L260,66.92a1.23,1.23,0,0,1-1.22,1h-1.87a.81.81,0,0,1-.79-1.05l4.57-23.64a1.06,1.06,0,0,1,1.18-1h3.42a1.16,1.16,0,0,1,1.25,1l4.75,23.57A.84.84,0,0,1,270.41,67.93ZM263.8,48.31c-.08-.26-.36-.33-.4,0l-1.69,9.42c-.14.61.33.93.9.93h2.05c.65,0,1-.32.86-1Z"/><path class="cls-1" d="M291.35,67.93h-2.3a1.31,1.31,0,0,1-1.4-1.05l-3.59-10c-.07-.25-.47-.36-.75-.36-.62,0-1.77,1.51-1.77,4v6.4a1,1,0,0,1-1,1h-1.9a1,1,0,0,1-1-1V43.28a1,1,0,0,1,1-1h1.9a1,1,0,0,1,1,1V51.9c0,.39.36.36.54,0l4.64-8.59a1.75,1.75,0,0,1,1.62-1h2.19c.61,0,.68.61.43,1l-4.21,7.26a2.07,2.07,0,0,0-.25,2L292,66.88C292.18,67.42,291.93,67.93,291.35,67.93Z"/><path class="cls-1" d="M309.79,66.92a1,1,0,0,1-1.05,1h-9.55a1,1,0,0,1-1.05-1V43.31a1.22,1.22,0,0,1,1.05-1h9.55a.9.9,0,0,1,1,1v1.62a.89.89,0,0,1-1,1h-5.64c-.72,0-1,.51-1,1.19v4.53a1,1,0,0,0,1,1h4.78a1,1,0,0,1,1,1.05v1.61a1,1,0,0,1-1,1H303.1a1,1,0,0,0-1,1.08v5.82a.93.93,0,0,0,1,1h5.64a1.13,1.13,0,0,1,1.05,1.08Z"/><path class="cls-1" d="M57.61,107.75A6.59,6.59,0,0,1,52,110.23a6.52,6.52,0,0,1-5.53-2.48c-1.08-1.51-1.47-3.16-1.47-6.07V92.37c0-2.91.43-4.7,1.47-6.11A6.46,6.46,0,0,1,52,83.82a6.6,6.6,0,0,1,5.57,2.44c1,1.51,1.48,3.2,1.48,6.11v9.31C59.09,104.59,58.66,106.35,57.61,107.75ZM55.06,92.44c0-3.66-.79-4.92-3-4.92s-3,1.26-3,4.92v9.2c0,3.63.71,4.89,3,4.89s3-1.26,3-4.89Z"/><path class="cls-1" d="M75.4,108.83a1.15,1.15,0,0,1-1.22,1H71.34a1.19,1.19,0,0,1-1.26-1L65,85.22c-.1-.57.15-1,.76-1h2a1.3,1.3,0,0,1,1.29,1l3.45,17.5c.07.32.29.29.36,0l3-17.47a1.27,1.27,0,0,1,1.19-1h2a.81.81,0,0,1,.86,1Z"/><path class="cls-1" d="M98,108.83a1,1,0,0,1-1,1H87.36a1,1,0,0,1-1-1V85.22a1.22,1.22,0,0,1,1-1h9.56a.91.91,0,0,1,1,1v1.62a.9.9,0,0,1-1,1H91.32c-.72,0-1,.51-1,1.19v4.53a1,1,0,0,0,1,1h4.77a1,1,0,0,1,1,1v1.61a1,1,0,0,1-1,1H91.28a1,1,0,0,0-1,1.08v5.82a.92.92,0,0,0,1,1h5.64a1.12,1.12,0,0,1,1,1.08Z"/><path class="cls-1" d="M117.69,109.84h-2.12a1.3,1.3,0,0,1-1.37-1l-2.73-8.44c-.25-.72-.54-1-1.33-1h-.36a.91.91,0,0,0-1,1v8.48a1,1,0,0,1-1,1h-2a.93.93,0,0,1-1-1V85.22a1.05,1.05,0,0,1,1-1H111c4.78,0,7.33,2.55,7.33,7.33,0,2.87-.86,5-2.62,6.22-.61.43-.76.68-.58,1.29l3.2,9.77A.75.75,0,0,1,117.69,109.84Zm-7.48-22h-.43a1,1,0,0,0-1,1v5.75a1,1,0,0,0,1,1h.43c3,0,4.06-1,4.06-4S113.23,87.84,110.21,87.84Z"/><path class="cls-1" d="M147.11,88.17H144.2a1,1,0,0,0-1,1v19.62a1.06,1.06,0,0,1-1,1h-1.94a1,1,0,0,1-1-1V89.17a1.18,1.18,0,0,0-1-1h-2.91a1.06,1.06,0,0,1-1-1V85.19a1.06,1.06,0,0,1,1-1h11.89a1,1,0,0,1,1,1v2A1,1,0,0,1,147.11,88.17Z"/><path class="cls-1" d="M166.77,109.84h-1.94a1.12,1.12,0,0,1-1-1v-9.2a1.13,1.13,0,0,0-1-1.08h-3.59a1.11,1.11,0,0,0-1,1.12v9.16a1.18,1.18,0,0,1-1,1h-1.91a1.12,1.12,0,0,1-1-1V85.22a1.05,1.05,0,0,1,1-1h1.91a1.18,1.18,0,0,1,1,1v8.59a1.11,1.11,0,0,0,1,1h3.59a1.3,1.3,0,0,0,1-1V85.22a1.15,1.15,0,0,1,1-1h2a1.18,1.18,0,0,1,1,1v23.64A1.27,1.27,0,0,1,166.77,109.84Z"/><path class="cls-1" d="M187.36,108.83a1,1,0,0,1-1.05,1h-9.56a1,1,0,0,1-1-1V85.22a1.22,1.22,0,0,1,1-1h9.56a.9.9,0,0,1,1,1v1.62a.89.89,0,0,1-1,1h-5.64c-.72,0-1,.51-1,1.19v4.53a1,1,0,0,0,1,1h4.78a1,1,0,0,1,1,1v1.61a1,1,0,0,1-1,1h-4.82a1,1,0,0,0-1,1.08v5.82a.92.92,0,0,0,1,1h5.64a1.13,1.13,0,0,1,1.05,1.08Z"/><path class="cls-1" d="M217.68,109.84h-2.12a1.3,1.3,0,0,1-1.37-1l-2.73-8.44c-.25-.72-.54-1-1.33-1h-.36a.91.91,0,0,0-1,1v8.48a1,1,0,0,1-1,1h-2a.93.93,0,0,1-1-1V85.22a1.06,1.06,0,0,1,1-1H211c4.78,0,7.33,2.55,7.33,7.33,0,2.87-.86,5-2.62,6.22-.61.43-.76.68-.58,1.29l3.2,9.77A.75.75,0,0,1,217.68,109.84Zm-7.47-22h-.44a1,1,0,0,0-1,1v5.75a1,1,0,0,0,1,1h.44c3,0,4.06-1,4.06-4S213.22,87.84,210.21,87.84Z"/><path class="cls-1" d="M237.05,108.83a1,1,0,0,1-1.05,1h-9.55a1,1,0,0,1-1-1V85.22a1.22,1.22,0,0,1,1-1H236a.9.9,0,0,1,1,1v1.62a.89.89,0,0,1-1,1H230.4c-.72,0-1,.51-1,1.19v4.53a1,1,0,0,0,1,1h4.78a1,1,0,0,1,1,1v1.61a1,1,0,0,1-1,1h-4.82a1,1,0,0,0-1,1.08v5.82a.92.92,0,0,0,1,1H236a1.13,1.13,0,0,1,1.05,1.08Z"/><path class="cls-1" d="M250.27,110.23a7.24,7.24,0,0,1-7.66-6.5,1.11,1.11,0,0,1,.94-1l1.44-.43a3.5,3.5,0,0,1,.71-.14c.4,0,.65.21.79.82.62,2.34,1.94,3.56,3.78,3.56a2.78,2.78,0,0,0,2.91-2.91c0-1.62-.79-2.66-3.77-5l-2.59-2c-2.09-1.65-3.6-3.63-3.6-6.43,0-3.74,2.81-6.29,6.72-6.29a7.13,7.13,0,0,1,7,5.75,1,1,0,0,1-.79.93l-1.8.54a2.1,2.1,0,0,1-.43.08c-.43,0-.69-.26-.87-.8-.64-1.86-1.68-2.8-3.12-2.8a2.5,2.5,0,0,0-2.55,2.59c0,1.4.75,2.55,2.66,4.06l1.76,1.4c2.87,2.26,5.53,4.06,5.53,8.16C257.31,107.61,254.47,110.23,250.27,110.23Z"/><path class="cls-1" d="M275.06,88.17h-2.91a1,1,0,0,0-1,1v19.62a1.07,1.07,0,0,1-1.05,1h-1.94a1,1,0,0,1-1-1V89.17a1.18,1.18,0,0,0-1-1h-2.91a1.06,1.06,0,0,1-1-1V85.19a1.06,1.06,0,0,1,1-1h11.89a1,1,0,0,1,1,1v2A1,1,0,0,1,275.06,88.17Z"/></g></g></svg>