<?xml version="1.0" encoding="utf-8"?>
<!-- Generator: Adobe Illustrator 16.0.0, SVG Export Plug-In . SVG Version: 6.00 Build 0)  -->
<!DOCTYPE svg PUBLIC "-//W3C//DTD SVG 1.1//EN" "http://www.w3.org/Graphics/SVG/1.1/DTD/svg11.dtd">
<svg version="1.1" id="Layer_1" xmlns="http://www.w3.org/2000/svg" xmlns:xlink="http://www.w3.org/1999/xlink" x="0px" y="0px"
	 width="132px" height="36px" viewBox="0 0 132 36" enable-background="new 0 0 132 36" xml:space="preserve">
<g>
	<path fill="#1F1F1F" d="M48.518,14.59h-2.314V0.313h8.057v1.973h-5.742v4.463h5.381V8.73h-5.381V14.59z"/>
	<path fill="#1F1F1F" d="M65.705,14.59l-1.426-3.965H58.82l-1.396,3.965h-2.461l5.342-14.336h2.539l5.342,14.336H65.705z
		 M63.664,8.613l-1.338-3.887c-0.098-0.26-0.233-0.67-0.405-1.23s-0.292-0.97-0.356-1.23c-0.176,0.801-0.433,1.676-0.771,2.627
		l-1.289,3.721H63.664z"/>
	<path fill="#1F1F1F" d="M70.07,14.59V0.313h2.334V14.59H70.07z"/>
	<path fill="#1F1F1F" d="M78.508,8.887v5.703h-2.334V0.313h4.033c1.842,0,3.207,0.345,4.092,1.035s1.328,1.732,1.328,3.125
		c0,1.777-0.924,3.043-2.773,3.799l4.033,6.318H84.23l-3.418-5.703H78.508z M78.508,6.953h1.621c1.087,0,1.875-0.202,2.363-0.605
		s0.732-1.002,0.732-1.797c0-0.807-0.264-1.387-0.791-1.738s-1.322-0.527-2.383-0.527h-1.543V6.953z"/>
	<path fill="#1F1F1F" d="M46.62,27.496c0,1.156-0.395,2.046-1.184,2.668c-0.789,0.623-1.918,0.934-3.387,0.934h-1.344v4.492h-1.328
		V24.168h2.961C45.192,24.168,46.62,25.277,46.62,27.496z M40.706,29.957h1.195c1.177,0,2.028-0.19,2.555-0.57
		c0.526-0.38,0.789-0.989,0.789-1.828c0-0.755-0.248-1.317-0.742-1.688c-0.495-0.37-1.266-0.555-2.313-0.555h-1.484V29.957z"/>
	<path fill="#1F1F1F" d="M53.539,30.84v4.75H52.21V24.168h3.133c1.401,0,2.436,0.269,3.105,0.805
		c0.669,0.537,1.004,1.344,1.004,2.422c0,1.511-0.766,2.531-2.297,3.063l3.102,5.133h-1.57l-2.766-4.75H53.539z M53.539,29.699h1.82
		c0.938,0,1.625-0.186,2.063-0.559c0.438-0.372,0.656-0.931,0.656-1.676c0-0.755-0.223-1.299-0.668-1.633
		c-0.445-0.333-1.16-0.5-2.145-0.5h-1.727V29.699z"/>
	<path fill="#1F1F1F" d="M65.301,35.59V24.168h1.328V35.59H65.301z"/>
	<path fill="#1F1F1F" d="M77.853,25.191c-1.255,0-2.246,0.418-2.973,1.254s-1.09,1.98-1.09,3.434c0,1.495,0.35,2.65,1.051,3.465
		c0.7,0.815,1.699,1.223,2.996,1.223c0.797,0,1.706-0.143,2.727-0.43v1.164c-0.792,0.297-1.769,0.445-2.93,0.445
		c-1.683,0-2.98-0.51-3.895-1.531c-0.914-1.021-1.371-2.471-1.371-4.352c0-1.177,0.22-2.208,0.66-3.094
		c0.44-0.885,1.075-1.567,1.906-2.047c0.831-0.479,1.809-0.719,2.934-0.719c1.198,0,2.245,0.219,3.141,0.656l-0.563,1.141
		C79.582,25.395,78.717,25.191,77.853,25.191z"/>
	<path fill="#1F1F1F" d="M92.623,35.59h-6.367V24.168h6.367v1.18h-5.039v3.68h4.734v1.172h-4.734v4.203h5.039V35.59z"/>
</g>
</svg>
