<?xml version="1.0" encoding="UTF-8"?><svg id="Layer_2" xmlns="http://www.w3.org/2000/svg" xmlns:xlink="http://www.w3.org/1999/xlink" viewBox="0 0 728 90"><defs><style>.cls-1{fill:none;}.cls-2{clip-path:url(#clippath);}.cls-3{fill:#00b6b6;}</style><clipPath id="clippath"><rect class="cls-1" width="728" height="90"/></clipPath></defs><g id="Layer_1-2"><g id="concept2-728x90"><g class="cls-2"><g><path class="cls-3" d="M567,8.38h1.96v3.53h3.62v-3.53h1.96v8.92h-1.96v-3.58h-3.62v3.58h-1.96V8.38Z"/><path class="cls-3" d="M576.15,13.92v-.03c0-1.95,1.39-3.55,3.38-3.55,2.28,0,3.32,1.77,3.32,3.71,0,.15-.01,.33-.03,.51h-4.75c.19,.88,.8,1.34,1.67,1.34,.65,0,1.12-.2,1.66-.7l1.11,.98c-.64,.79-1.55,1.27-2.79,1.27-2.05,0-3.57-1.44-3.57-3.53Zm4.82-.57c-.11-.87-.62-1.45-1.44-1.45s-1.33,.57-1.48,1.45h2.92Z"/><path class="cls-3" d="M583.88,15.34v-.03c0-1.49,1.13-2.18,2.75-2.18,.69,0,1.18,.11,1.67,.28v-.11c0-.8-.5-1.25-1.46-1.25-.74,0-1.26,.14-1.89,.37l-.48-1.48c.75-.33,1.49-.55,2.65-.55,1.06,0,1.82,.28,2.31,.76,.51,.51,.74,1.26,.74,2.18v3.96h-1.87v-.74c-.47,.52-1.12,.87-2.06,.87-1.29,0-2.34-.74-2.34-2.09Zm4.45-.45v-.34c-.33-.15-.76-.26-1.24-.26-.83,0-1.34,.33-1.34,.94v.03c0,.52,.43,.83,1.06,.83,.9,0,1.52-.5,1.52-1.2Z"/><path class="cls-3" d="M591.92,8h1.94v9.3h-1.94V8Z"/><path class="cls-3" d="M596,15.36v-3.24h-.82v-1.66h.82v-1.75h1.94v1.75h1.61v1.66h-1.61v2.92c0,.45,.19,.66,.62,.66,.36,0,.68-.09,.96-.24v1.55c-.41,.24-.88,.39-1.53,.39-1.18,0-1.99-.47-1.99-2.05Z"/><path class="cls-3" d="M600.96,8h1.94v3.44c.45-.57,1.02-1.1,2-1.1,1.47,0,2.32,.97,2.32,2.54v4.42h-1.94v-3.81c0-.92-.43-1.39-1.17-1.39s-1.21,.47-1.21,1.39v3.81h-1.94V8Z"/><path class="cls-3" d="M608.62,18.91l.65-1.4c.26,.15,.57,.27,.83,.27,.33,0,.51-.1,.68-.45l-2.68-6.85h2.05l1.55,4.65,1.49-4.65h2.01l-2.62,6.99c-.52,1.39-1.08,1.91-2.24,1.91-.7,0-1.22-.18-1.72-.47Z"/><path class="cls-3" d="M620.38,8.38h2.12l2.34,3.77,2.34-3.77h2.12v8.92h-1.95v-5.82l-2.51,3.81h-.05l-2.48-3.77v5.78h-1.92V8.38Z"/><path class="cls-3" d="M630.9,13.92v-.03c0-1.95,1.39-3.55,3.38-3.55,2.28,0,3.32,1.77,3.32,3.71,0,.15-.01,.33-.03,.51h-4.75c.19,.88,.8,1.34,1.67,1.34,.65,0,1.12-.2,1.66-.7l1.11,.98c-.64,.79-1.55,1.27-2.79,1.27-2.05,0-3.57-1.44-3.57-3.53Zm4.82-.57c-.11-.87-.62-1.45-1.44-1.45s-1.33,.57-1.48,1.45h2.92Z"/><path class="cls-3" d="M638.64,15.34v-.03c0-1.49,1.13-2.18,2.75-2.18,.69,0,1.18,.11,1.67,.28v-.11c0-.8-.5-1.25-1.46-1.25-.74,0-1.26,.14-1.89,.37l-.48-1.48c.75-.33,1.49-.55,2.65-.55,1.06,0,1.82,.28,2.31,.76,.51,.51,.74,1.26,.74,2.18v3.96h-1.87v-.74c-.47,.52-1.12,.87-2.06,.87-1.29,0-2.34-.74-2.34-2.09Zm4.45-.45v-.34c-.33-.15-.76-.26-1.24-.26-.83,0-1.34,.33-1.34,.94v.03c0,.52,.43,.83,1.06,.83,.9,0,1.52-.5,1.52-1.2Z"/><path class="cls-3" d="M646.68,8h1.94v9.3h-1.94V8Z"/><path class="cls-3" d="M649.9,16.4l.83-1.27c.74,.53,1.52,.82,2.15,.82,.56,0,.82-.2,.82-.51v-.03c0-.42-.66-.56-1.41-.79-.96-.28-2.04-.73-2.04-2.05v-.03c0-1.39,1.12-2.17,2.5-2.17,.87,0,1.81,.29,2.55,.79l-.74,1.34c-.68-.39-1.35-.64-1.85-.64s-.71,.2-.71,.47v.03c0,.38,.65,.56,1.39,.82,.96,.32,2.06,.78,2.06,2.03v.03c0,1.52-1.13,2.2-2.61,2.2-.96,0-2.03-.32-2.93-1.03Z"/><path class="cls-3" d="M660.86,8.38h3.48c2.8,0,4.74,1.92,4.74,4.43v.03c0,2.51-1.94,4.46-4.74,4.46h-3.48V8.38Zm3.48,7.15c1.6,0,2.69-1.08,2.69-2.66v-.03c0-1.58-1.08-2.69-2.69-2.69h-1.52v5.38h1.52Z"/><path class="cls-3" d="M670.28,13.92v-.03c0-1.95,1.39-3.55,3.38-3.55,2.28,0,3.32,1.77,3.32,3.71,0,.15-.01,.33-.03,.51h-4.75c.19,.88,.8,1.34,1.67,1.34,.65,0,1.12-.2,1.66-.7l1.11,.98c-.64,.79-1.55,1.27-2.79,1.27-2.05,0-3.57-1.44-3.57-3.53Zm4.82-.57c-.11-.87-.62-1.45-1.44-1.45s-1.33,.57-1.48,1.45h2.92Z"/><path class="cls-3" d="M678.51,8h1.94v9.3h-1.94V8Z"/><path class="cls-3" d="M682.31,8h2.04v1.72h-2.04v-1.72Zm.05,2.47h1.94v6.83h-1.94v-6.83Z"/><path class="cls-3" d="M685.51,10.47h2.05l1.53,4.57,1.54-4.57h2.01l-2.69,6.88h-1.76l-2.69-6.88Z"/><path class="cls-3" d="M693.05,13.92v-.03c0-1.95,1.39-3.55,3.38-3.55,2.28,0,3.32,1.77,3.32,3.71,0,.15-.01,.33-.03,.51h-4.75c.19,.88,.8,1.34,1.67,1.34,.65,0,1.12-.2,1.66-.7l1.11,.98c-.64,.79-1.55,1.27-2.79,1.27-2.05,0-3.57-1.44-3.57-3.53Zm4.82-.57c-.11-.87-.62-1.45-1.44-1.45s-1.33,.57-1.48,1.45h2.92Z"/><path class="cls-3" d="M701.19,10.47h1.94v1.38c.39-.94,1.03-1.55,2.18-1.5v2.03h-.1c-1.29,0-2.08,.78-2.08,2.41v2.52h-1.94v-6.83Z"/><path class="cls-3" d="M705.99,13.92v-.03c0-1.95,1.39-3.55,3.38-3.55,2.28,0,3.32,1.77,3.32,3.71,0,.15-.01,.33-.03,.51h-4.75c.19,.88,.8,1.34,1.67,1.34,.65,0,1.12-.2,1.66-.7l1.11,.98c-.64,.79-1.55,1.27-2.79,1.27-2.05,0-3.57-1.44-3.57-3.53Zm4.82-.57c-.11-.87-.62-1.45-1.44-1.45s-1.33,.57-1.48,1.45h2.92Z"/><path class="cls-3" d="M713.83,13.9v-.03c0-2.28,1.49-3.53,3.11-3.53,1.03,0,1.67,.47,2.13,1.02v-3.36h1.94v9.3h-1.94v-.98c-.47,.64-1.12,1.11-2.13,1.11-1.59,0-3.11-1.25-3.11-3.53Zm5.26,0v-.03c0-1.13-.75-1.89-1.66-1.89s-1.67,.74-1.67,1.89v.03c0,1.13,.76,1.89,1.67,1.89s1.66-.75,1.66-1.89Z"/></g></g></g></g></svg>