<?xml version="1.0" encoding="UTF-8"?><svg id="Layer_2" xmlns="http://www.w3.org/2000/svg" viewBox="0 0 140 62"><defs><style>.cls-1{fill:#fff;}.cls-2{fill:#f36f21;}</style></defs><g id="Layer_1-2"><g id="concept2-728x90"><g><rect class="cls-2" width="140" height="62" rx="10" ry="10"/><g><path class="cls-1" d="M44.46,20.07v-.05c0-5.1,4-9.1,9.42-9.1,3.07,0,5.25,.95,7.1,2.55l-2.85,3.42c-1.25-1.05-2.5-1.65-4.22-1.65-2.52,0-4.47,2.12-4.47,4.8v.05c0,2.82,1.97,4.85,4.75,4.85,1.17,0,2.07-.25,2.8-.72v-2.12h-3.45v-3.55h8.05v7.87c-1.85,1.53-4.42,2.7-7.6,2.7-5.45,0-9.52-3.75-9.52-9.05Z"/><path class="cls-1" d="M64.71,11.27h14.07v4.12h-9.27v2.65h8.4v3.82h-8.4v2.78h9.4v4.12h-14.2V11.27Z"/><path class="cls-1" d="M85.7,15.52h-5.25v-4.25h15.35v4.25h-5.25v13.25h-4.85V15.52Z"/><path class="cls-1" d="M14.99,47.84l2.77-3.25c1.42,1.2,2.77,1.9,4.25,1.9,1.6,0,2.57-.8,2.57-2.05v-.05c0-1.25-1.05-2.02-2.57-2.02-1.07,0-1.97,.38-2.8,.87l-2.87-1.6,.5-8.87h11.7v4h-7.87l-.15,2.65c.8-.38,1.62-.62,2.8-.62,3.15,0,6,1.75,6,5.55v.05c0,3.9-2.97,6.22-7.22,6.22-3.1,0-5.27-1.08-7.1-2.77Z"/><path class="cls-1" d="M31.23,41.57v-.05c0-4.95,3.15-9.1,8.12-9.1s8.07,4.1,8.07,9.05v.05c0,4.95-3.12,9.1-8.12,9.1s-8.07-4.1-8.07-9.05Zm11.32,0v-.05c0-2.77-1.32-4.8-3.25-4.8s-3.2,1.95-3.2,4.75v.05c0,2.8,1.3,4.8,3.25,4.8s3.2-1.97,3.2-4.75Z"/><path class="cls-1" d="M55.62,50.21c-2.45-.25-4.87-1.12-6.75-2.47l2.25-3.32c1.6,1.12,3.1,1.8,4.65,2.05v-3c-4.02-.92-6.07-2.3-6.07-5.4v-.05c0-2.95,2.15-5,5.97-5.27v-1.43h2.6v1.5c2.05,.22,3.77,.92,5.27,1.95l-2.05,3.35c-1.02-.72-2.22-1.22-3.35-1.5v2.9c3.97,.92,5.97,2.35,5.97,5.45v.05c0,3.05-2.35,4.92-5.9,5.25v2.45h-2.6v-2.5Zm.18-13.82c-1.23,.1-1.7,.6-1.7,1.25v.05c0,.65,.35,1.02,1.7,1.4v-2.7Zm4,8.95v-.05c0-.68-.38-1.05-1.67-1.43v2.75c1.15-.12,1.67-.55,1.67-1.28Z"/><path class="cls-1" d="M72.78,41.57v-.05c0-5.02,4.05-9.1,9.45-9.1s9.4,4.02,9.4,9.05v.05c0,5.02-4.05,9.1-9.45,9.1s-9.4-4.02-9.4-9.05Zm13.9,0v-.05c0-2.52-1.82-4.72-4.5-4.72s-4.42,2.15-4.42,4.67v.05c0,2.53,1.82,4.72,4.47,4.72s4.45-2.15,4.45-4.67Z"/><path class="cls-1" d="M94.26,32.77h14v4.25h-9.15v2.97h8.27v4.02h-8.27v6.25h-4.85v-17.5Z"/><path class="cls-1" d="M110.72,32.77h14v4.25h-9.15v2.97h8.27v4.02h-8.27v6.25h-4.85v-17.5Z"/></g></g></g></g></svg>