<svg xmlns="http://www.w3.org/2000/svg" viewBox="0 0 116.64 8.97"><defs><style>.cls-1{fill:#fff;}</style></defs><title>text2_1</title><g id="Layer_2" data-name="Layer 2"><g id="Layer_1-2" data-name="Layer 1"><path class="cls-1" d="M0,.14H6.14V1.73H1.85V3.61h4.2V5.2H1.85v2H6.14V8.81H0Z"/><path class="cls-1" d="M9.43,3V8.81H7.58V.14h1.9l4,5.62V.14h1.85V8.81H13.56Z"/><path class="cls-1" d="M17.06.14h3.42a4.25,4.25,0,0,1,4.6,4.35c0,2.61-1.89,4.32-4.6,4.32H17.06Zm3.42,7.05a2.59,2.59,0,0,0,2.71-2.7,2.53,2.53,0,0,0-2.71-2.72H18.9V7.19Z"/><path class="cls-1" d="M29.72.14h1.87V5.29a2,2,0,1,0,4,0V.14h1.88v5.2C37.47,7.5,36.23,9,33.61,9s-3.89-1.48-3.89-3.61Z"/><path class="cls-1" d="M39.6,6.19a3.78,3.78,0,0,0,2.75,1.17c1,0,1.51-.48,1.51-1s-.75-.87-1.75-1.1c-1.42-.33-3.24-.72-3.24-2.65C38.87,1.18,40.12,0,42.16,0a4.84,4.84,0,0,1,3.38,1.21l-1,1.35A3.69,3.69,0,0,0,42,1.63c-.83,0-1.27.36-1.27.88s.72.77,1.72,1c1.43.32,3.25.75,3.25,2.68C45.73,7.77,44.6,9,42.26,9a5,5,0,0,1-3.68-1.38Z"/><path class="cls-1" d="M47,.14h6.14V1.73H48.83V3.61H53V5.2h-4.2v2h4.29V8.81H47Z"/><path class="cls-1" d="M57.76,5.71H56.41v3.1H54.56V.14h4.06a2.71,2.71,0,0,1,2.91,2.8,2.48,2.48,0,0,1-1.9,2.57l1.95,3.3H59.46Zm.58-4H56.41V4.12h1.93a1.2,1.2,0,1,0,0-2.39Z"/><path class="cls-1" d="M70.36,0a4.35,4.35,0,0,1,4.53,4.49,4.53,4.53,0,0,1-9.06,0A4.35,4.35,0,0,1,70.36,0Zm0,1.64a2.62,2.62,0,0,0-2.63,2.85,2.64,2.64,0,1,0,5.27,0A2.63,2.63,0,0,0,70.36,1.64Z"/><path class="cls-1" d="M76.19.14h6.14V1.73H78V3.61h4.2V5.2H78V8.81H76.19Z"/><path class="cls-1" d="M83.62.14h6.13V1.73H85.46V3.61h4.2V5.2h-4.2V8.81H83.62Z"/><path class="cls-1" d="M91,.14h6.13V1.73H92.88V3.61h4.2V5.2h-4.2v2h4.29V8.81H91Z"/><path class="cls-1" d="M101.82,5.71h-1.36v3.1H98.62V.14h4a2.71,2.71,0,0,1,2.92,2.8,2.49,2.49,0,0,1-1.9,2.57l2,3.3h-2.12Zm.58-4h-1.94V4.12h1.94a1.2,1.2,0,1,0,0-2.39Z"/><path class="cls-1" d="M107.39,6.19a3.79,3.79,0,0,0,2.76,1.17c1,0,1.51-.48,1.51-1s-.76-.87-1.76-1.1c-1.42-.33-3.24-.72-3.24-2.65C106.66,1.18,107.91,0,110,0a4.82,4.82,0,0,1,3.38,1.21l-1,1.35a3.71,3.71,0,0,0-2.49-.94c-.83,0-1.27.36-1.27.88s.73.77,1.73,1c1.43.32,3.25.75,3.25,2.68,0,1.58-1.13,2.78-3.47,2.78a5,5,0,0,1-3.68-1.38Z"/><path class="cls-1" d="M115.58,2.44a1.07,1.07,0,0,1,1.06,1.06,1.06,1.06,0,1,1-1.06-1.06Zm0,4.41a1.06,1.06,0,1,1-1,1.05A1.07,1.07,0,0,1,115.58,6.85Z"/></g></g></svg>