<svg xmlns="http://www.w3.org/2000/svg" xmlns:xlink="http://www.w3.org/1999/xlink" viewBox="0 0 101.2 53.46"><defs><style>.cls-1{fill:none;}.cls-2{clip-path:url(#clip-path);}.cls-3{fill:#fff;}</style><clipPath id="clip-path" transform="translate(0 -2.54)"><rect class="cls-1" x="0.89" width="22" height="20"/></clipPath></defs><title>text4</title><g id="Layer_2" data-name="Layer 2"><g id="Layer_1-2" data-name="Layer 1"><g class="cls-2"><path class="cls-3" d="M5.09,2.54a3.69,3.69,0,0,1,3.84,3.8,3.69,3.69,0,0,1-3.84,3.79A3.68,3.68,0,0,1,1.26,6.34,3.69,3.69,0,0,1,5.09,2.54Zm0,1.39A2.22,2.22,0,0,0,2.87,6.34a2.24,2.24,0,1,0,4.46,0A2.23,2.23,0,0,0,5.09,3.93Z" transform="translate(0 -2.54)"/><path class="cls-3" d="M12.74,7.37H11.59V10H10V2.66h3.43A2.29,2.29,0,0,1,15.93,5a2.11,2.11,0,0,1-1.61,2.18L16,10H14.18ZM13.23,4H11.59V6h1.64a1,1,0,1,0,0-2Z" transform="translate(0 -2.54)"/></g><path class="cls-3" d="M4.8,50.33,3.28,56H2.1L0,48.66H1.23l1.52,5.89,1.61-5.89h.89l1.59,5.89,1.52-5.89H9.59L7.5,56H6.33Z" transform="translate(0 -2.54)"/><path class="cls-3" d="M14.67,54.48H11.08L10.48,56H9.27l2.92-7.34h1.37L16.48,56H15.27Zm-3.27-1h3l-1.49-3.88Z" transform="translate(0 -2.54)"/><path class="cls-3" d="M19.83,53.17H18.46V56h-1.1V48.66h3.09a2.18,2.18,0,0,1,2.35,2.26A2,2,0,0,1,21,53.06L22.86,56H21.58Zm.48-3.54H18.46V52.2h1.85a1.29,1.29,0,1,0,0-2.57Z" transform="translate(0 -2.54)"/><path class="cls-3" d="M26.63,53.17H25.26V56h-1.1V48.66h3.09a2.19,2.19,0,0,1,2.35,2.26,2,2,0,0,1-1.83,2.14L29.66,56H28.38Zm.47-3.54H25.26V52.2H27.1a1.29,1.29,0,1,0,0-2.57Z" transform="translate(0 -2.54)"/><path class="cls-3" d="M35.6,54.48H32L31.4,56H30.19l2.92-7.34h1.37L37.4,56H36.19Zm-3.28-1h3l-1.49-3.88Z" transform="translate(0 -2.54)"/><path class="cls-3" d="M39.38,50.37V56h-1.1V48.66h1.13l4,5.5v-5.5h1.1V56H43.44Z" transform="translate(0 -2.54)"/><path class="cls-3" d="M47.93,49.63H45.65v-1h5.64v1H49V56h-1.1Z" transform="translate(0 -2.54)"/><path class="cls-3" d="M54.55,52.93l-2.87-4.27h1.26l2.16,3.28,2.13-3.28h1.28l-2.86,4.27V56h-1.1Z" transform="translate(0 -2.54)"/><path class="cls-3" d="M2.43,34A7.53,7.53,0,0,0,8.2,36.61c2.85,0,4.56-1.36,4.56-3.53s-1.86-3.26-4.87-3.26c-.84,0-1.92,0-2.23,0V27c.34,0,1.42,0,2.23,0,2.51,0,4.56-.93,4.56-3.07s-2-3.22-4.44-3.22a7.21,7.21,0,0,0-5.39,2.39L1,21.23A9.31,9.31,0,0,1,8.29,18c4.22,0,7.26,2.08,7.26,5.55,0,2.88-2.45,4.4-4.5,4.77a5.23,5.23,0,0,1,4.81,5.06c0,3.47-2.89,6-7.57,6A9.17,9.17,0,0,1,.7,36Z" transform="translate(0 -2.54)"/><path class="cls-3" d="M33.65,30.35l-8.09-12h3.56l6.08,9.24,6-9.24h3.59l-8.06,12V39h-3.1Z" transform="translate(0 -2.54)"/><path class="cls-3" d="M47.29,18.32H61.18v2.73H50.39v6H61v2.73H50.39v6.45H61.18V39H47.29Z" transform="translate(0 -2.54)"/><path class="cls-3" d="M78.14,34.72H68L66.32,39H62.91l8.22-20.68H75L83.22,39H79.81ZM68.9,32h8.34L73.05,21Z" transform="translate(0 -2.54)"/><path class="cls-3" d="M92.67,31H88.8v8H85.7V18.32h8.71c3.94,0,6.64,2.54,6.64,6.36a5.77,5.77,0,0,1-5.15,6L101.2,39H97.6Zm1.34-10H88.8V28.3H94a3.63,3.63,0,1,0,0-7.25Z" transform="translate(0 -2.54)"/></g></g></svg>