<svg height="100" viewBox="0 0 320 100" width="320" xmlns="http://www.w3.org/2000/svg" xmlns:xlink="http://www.w3.org/1999/xlink"><linearGradient id="a" x1=".17767%" x2="100.177285%" y1="50.000017%" y2="50.000017%"><stop offset="0" stop-color="#dbdada"/><stop offset="1" stop-color="#929191"/></linearGradient><mask id="b" fill="#fff"><path d="m19.2498016 0c-.4675037.5813646-.9693607 1.10294878-1.5048242 1.56475254-.5354636.46255102-1.0029673.78461804-1.4017644.96694833.2613839.25033051.4839336.54699086.6661555.88848652l-1.7266272 4.56797149c-.296484.82123354-.651966 1.5453239-1.0679398 2.17227112-.4159737.6269471-.8573391 1.1231246-1.3248428 1.4885325-.4675037.3646605-.9350074.5701557-1.4017643.6149911v.1711214h5.2821945v-.1711214c-.5354635-.0343738-.9514372-.2391217-1.2471744-.6149911-.2972308-.3766167-.4443526-.8787722-.4443526-1.5057194 0-.33028684.0336065-.65235387.1015663-.96694834.0679598-.31309996.1769942-.68074955.3248628-1.10220153h3.4532543l.3763928.88923378c.4787059 1.12835549.7184322 1.90998449.7184322 2.34339249 0 .3078692-.1008195.5395184-.2994712.6934529-.1993986.1531874-.5040975.2421108-.9148435.2637812v.1711214h6.8893319v-.1711214c-.4667569-.0216704-.8319475-.1307697-1.0940782-.3235616-.2621307-.1942863-.5496529-.5880899-.8633136-1.1814106-.3136606-.5925734-.7893793-1.63648902-1.4271559-3.12950505l-2.205333-5.32045755c-.2509285-.60378226-.5474125-1.37420245-.8887052-2.3090188zm-2.1030199 3.62642984 1.7609805 4.24216819h-3.3337646zm81.0917311-2.76260274c-.1710198.06800023-.3905822.11657182-.6579406.14496752-.2681051.02914296-.6527128.04334081-1.153823.04334081h-5.7616473c-.6153723 0-1.0627121-.01195609-1.3420194-.03437375-.2793074-.02316491-.5011103-.06874748-.6661555-.13749497-.165792-.06800023-.3338245-.18158303-.5040975-.34149566l-.4966293 3.98511238h.1710197c.2165752-.5245732.5406912-1.02598149.9745884-1.50497212.4331505-.47899063.9148436-.88101397 1.4443326-1.20607002.5302359-.32430878 1.039561-.52158418 1.5302159-.59033166v8.31321492c0 .55894695-.008215.97516815-.0261384 1.24866355-.0164299.2742427-.0477959.4827269-.0940982.6254527-.0448087.1419785-.118743.2757372-.2218029.4020233-.1359196.1591654-.3076862.2727482-.5123124.3414957-.205373.0680002-.5242613.11433-.9574117.1367477v.1711214h6.9923918v-.1711214c-.4338972-.0224177-.7527855-.0687475-.9581586-.1367477-.2046262-.0687475-.3756459-.1823303-.5123123-.3414957-.1023132-.11433-.1769943-.245847-.2225497-.3938035-.0463023-.1487038-.0769216-.3616716-.0933514-.641145-.0179235-.2802208-.0268852-.6934529-.0268852-1.24119105v-8.31321492c.489908.06874748 1.0067013.26826464 1.5473925.59855147.541438.33178134 1.0231311.73604645 1.4443326 1.21578433.4219482.47749612.7244067.97442088.9058818 1.487038h.1717665l-.4615292-3.98511238c-.1710198.14795655-.3420395.25630856-.5130592.32505605zm-96.02421804.42743001c-.67810443.32505605-1.21132752.77266196-1.59892246 1.34281773-.38759493.57015577-.58101899 1.20308099-.58101899 1.89877565 0 .68373858.24495402 1.27705926.73486207 1.77846755.49065486.50215555 1.27630009.96919009 2.35917611 1.40334541l1.67509718.64936483c.85509866.33103409 1.4727114.67850779 1.85507865 1.04316836.38162045.36615509.57280408.79358506.57280408 1.28303726 0 .342243-.07990878.6448813-.23897954.9079152-.16056437.2615394-.3853545.4670346-.675864.6149911-.2905095.1487038-.62956171.2219348-1.01715665.2219348-.56981683 0-1.07690153-.1165718-1.52125411-.3504627-.44435257-.2331437-.92305846-.635167-1.43611765-1.20607-.51231238-.5701558-.95442452-1.17094904-1.3248428-1.80462151-.37041828-.63217796-.65271286-1.27407024-.84613692-1.92418233h-.17101973l.17101973 5.28533654h.17101973c.03435331-.1479565.09409819-.2525723.17923465-.316089.08588327-.0627694.21358796-.0941541.38460769-.0941541.09185776 0 .2023858.0119561.33382454.0343737.13069194.0224177.29872442.0567914.50409746.102374.72888759.1599126 1.4122197.2824625 2.05074315.3676496.63852344.0851871 1.18070827.1285279 1.62506084.1285279.78639204 0 1.50407746-.1658907 2.15380307-.4961775.64972561-.3302868 1.15979756-.7838708 1.53021584-1.3592574.37041828-.5761338.55488061-1.2172788.55488061-1.92418229 0-.74202449-.22777737-1.3749497-.68333211-1.89952291-.45555474-.5245732-1.16801248-.97516813-2.13662641-1.35103753l-1.59070754-.59929873c-.45555474-.1703742-.8715285-.35270449-1.24717445-.54624361-.37639277-.19503362-.66167459-.37063861-.85509866-.53055124-.1829687-.14795655-.32785005-.33402311-.43613765-.55670518-.1082876-.22193482-.162058-.46404553-.162058-.72633213 0-.319078.07692154-.60452951.23076462-.85560729.15384307-.25033051.36743103-.44461688.64076388-.5813646.27407965-.13749497.58699348-.2054952.94023511-.2054952.55786785 0 1.09706543.16589067 1.6153523.4961775.51903368.33103409.98952464.81002472 1.41072607 1.43697189.42194825.62769443.77518987 1.37420245 1.0604717 2.24101857h.17027292l-.18819639-4.26010231h-.17027292c-.03435331.14870379-.08065559.24808875-.13741323.30039661-.05750445.05081336-.14786859.07622004-.27258604.07622004-.19491768 0-.45107387-.03960453-.76996219-.11956084-.67287675-.15916537-1.18518913-.26527562-1.53843076-.31683624-.35398844-.05081336-.70723007-.07696729-1.05972488-.07696729-.83269432 0-1.58697348.16290165-2.26507792.48795769zm99.52900224.99160775c-.706483.55894695-1.245681 1.2180261-1.615352 1.9764902-.3711654.7584641-.5556277 1.58791746-.5556277 2.48836006 0 1.82479738.7236597 3.31856068 2.1709797 4.48203718.581019.4789906 1.213568.8406621 1.8969 1.0857619.684079.2450997 1.396537.3676496 2.137373.3676496 1.116483 0 2.153803-.2615394 3.111215-.7861126.957412-.5253204 1.715425-1.2374547 2.27404-2.13864458.557868-.9004426.837175-1.87561074.837175-2.92475714 0-.94677243-.179235-1.79341266-.537704-2.53992068-.359216-.74650801-.903641-1.41754325-1.633276-2.01086394-1.185189-.96844283-2.53617-1.45341151-4.05145-1.45341151-1.481673 0-2.826679.48496868-4.034273 1.45341151zm2.871489 9.81893434c-.341293-.2391217-.592968-.5701558-.752039-.9916078-.386848-.992355-.581019-2.4457665-.581019-4.36247628 0-1.91521526.194171-3.36339598.581019-4.34454216.159071-.42219923.410746-.75248606.752039-.992355.342039-.23912169.729634-.35868253 1.162784-.35868253.433151 0 .819999.11956084 1.162038.35868253.342787.23986894.598196.57015577.769963.992355.386848.99160775.581019 2.46295338.581019 4.41328965 0 .91239869-.048543 1.73064321-.145629 2.45473357-.097085.72409036-.241966 1.33683972-.43539 1.83899522-.159818.421452-.41.7524861-.752039.9916078-.34204.2391216-.730381.3594297-1.162785.3594297-.444353 0-.837922-.1203081-1.179961-.3594297zm-63.2436943-11.07581771v.17112146c.3763928.02316491.6527129.06874748.8289603.13749497.1762474.06725297.3278501.18158303.4525675.34149566.0918578.12553889.1598176.25929758.2061199.40202334.0448086.14272575.0739343.3474737.0851364.61573834.0112022.26826465.0164299.6867276.0164299 1.25763063v5.55883198c0 .57090303-.0052277.99011323-.0164299 1.25763063-.0112021.2675174-.0403278.4730126-.0851364.6157383-.0463023.1419785-.1142621.2764845-.2061199.4027706-.1247174.1591654-.2763201.2727482-.4525675.3407484-.1762474.0687475-.4525675.1150774-.8289603.1367478v.1711214h10.7525855l.7699622-4.85790652h-.1717665c-.2382327.67252974-.5242614 1.26061964-.8543518 1.76202793-.3308373.50215555-.7356089.96919009-1.213568 1.40334539-.5362103.4789906-1.0858633.8466402-1.6497056 1.1036961-.5645892.2555613-1.1194698.3833419-1.6668823.3833419-.2628775 0-.4675037-.0448353-.6153723-.1360004-.1486154-.0911652-.2509285-.2421108-.3076861-.453584-.0575045-.210726-.0858833-.5148589-.0858833-.9153877v-4.036673c.7639877 0 1.418941.22567109 1.9663535.67551877.5466657.45134218.917084 1.08053113 1.110508 1.88980859h.1717666v-5.26814968h-.1717666c-.0455555.4677818-.201639.88400298-.4697441 1.24941081-.2681052.36466058-.6235873.6583319-1.0686866.88101397-.4443526.22193482-.956665.35046273-1.5384308.38408921v-5.26814968h.4787059c1.1732401 0 2.1971181.31683624 3.0686466.9490142.8722753.63367247 1.5705436 1.56026901 2.0940582 2.77978962h.1710197l-.7005088-3.93429902zm-6.8729021 0v.17112146c.2277774.06874748.3987972.14496752.5130592.23164913.1135153.0851871.2225497.2189458.3256097.40127609.2382327.38782548.3577225.92360751.3577225 1.60809335 0 .38782548-.0283789.7300684-.0851365 1.02598149-.0575045.29666034-.1642984.65011208-.3248628 1.06110249-.1598176.41024314-.4212014 1.0207507-.7863921 1.82928091l-.8028218 1.79640167-1.9663535-4.29298154c-.2621307-.54773812-.4727314-1.00356384-.632549-1.36897167-.1598175-.36466057-.2621307-.62993619-.3076861-.79507961-.0455555-.16514341-.0687067-.32729781-.0687067-.48721044 0-.29666034.0799088-.5245732.2397264-.68448583.1590707-.15991263.4159737-.26826464.7692154-.32505604v-.17112146h-6.5472925v.17112146c.3532416.07995631.6579405.20773696.9140967.38483646.256903.1770995.5048443.44536415.7438238.80404668.2389796.35942979.5242614.87503593.8550987 1.54831293l4.4099192 9.06570098 3.3681179-7.08173823c.6952811-1.44818072 1.3390322-2.5429097 1.9320002-3.28418693.5922211-.74127723 1.2075934-1.22026786 1.8461169-1.43697189v-.17112146zm36.8379487.02615394v.1703742c-.0194171.00448353-.0328597.01345059-.0522768.01868138.2830414.02540668.5167933.06202219.6669023.11881359.1829687.06874748.3308373.18233029.4450994.34224291.0903641.12479163.1568303.25855033.1964113.40127609.039581.14347301.0687066.354199.0858833.63292521.0164298.27947348.0253916.69270564.0253916 1.24044376v5.55883198c0 .54773815-.0089618.96097025-.0253916 1.24119105-.0171767.2794734-.0463023.4901994-.0858833.6329252-.039581.1419785-.1060472.2757372-.1964113.4020233-.1142621.1591654-.2621307.2727482-.4450994.3414957-.1822219.0680002-.4607824.11433-.8371752.1367477v.1711214h6.7698422v-.1711214c-.4331504-.0224177-.7527855-.0687475-.9574118-.1367477-.205373-.0687475-.3763927-.1823303-.5130592-.3414957-.1023131-.11433-.1762474-.2480887-.2225497-.4020233-.0455554-.1546819-.0761747-.3683969-.0940981-.6418923-.0164299-.2734954-.0246448-.6844858-.0246448-1.23222395v-1.96677588h.4951357c.9686139 0 1.766955-.0567914 2.3927826-.17112146.6273213-.1135828 1.2090871-.30189113 1.7445506-.56417773.5354636-.27424269.9544246-.63367247 1.2561362-1.07754211.3024585-.44536414.4533143-.92958556.4533143-1.45415876 0-.66132092-.2195624-1.23745473-.6579405-1.72765419-.4391249-.49019946-1.0686866-.86681612-1.889432-1.12910272-.8207453-.2622866-1.7893592-.39305627-2.9058418-.39305627zm4.7355289.20474794h.4607824c.5474125 0 .9887778.10013221 1.3248428.29964937.336065.19951715.5817658.51635339.7356089.94901419.1538431.43340806.2315114 1.01477267.2315114 1.74484107 0 .77639823-.0746811 1.38914755-.2225497 1.83974248-.1486154.44984768-.3905822.77490372-.7266471.97442088-.3368118.19951716-.7953538.29890211-1.3763728.29890211h-.4271759zm-4.9580786-.20474794h-4.1029799v.1703742c.4212014.1487038.7348621.33626487.9402351.56492499.2053731.22791285.3816205.56940851.5294891 1.02672874.296484.94677243.4443525 2.34264529.4443525 4.19060758v1.55653273c0 .62769443-.0343533 1.10892683-.1015663 1.44519173-.0687066.3362648-.2001453.6478703-.3935694.9325746-.2389795.3758694-.5787786.6643099-1.0179034.8638271-.4383781.1995171-.9477033.2989021-1.5294691.2989021-.5474125 0-1.0373205-.099385-1.4697241-.2989021-.4338972-.1995172-.7468111-.4707709-.9402351-.8122665-.1486154-.2734955-.2509286-.6224637-.308433-1.04391565-.0567576-.42145197-.0851365-1.0775421-.0851365-1.96752314v-4.00229924c0-.4677818.0052277-.85859631.0171767-1.17169627.0112022-.31384722.0365937-.5447491.0769215-.69270564.039581-.14795654.1045536-.28545152.1964113-.41024315.10306-.15991262.2367391-.27349543.4017844-.34224291.165792-.06874749.4301631-.11433006.7946069-.13749497v-.1703742h-6.4442325v.1703742c.3763928.02316491.6549533.06874748.8371752.13749497.1822219.06874748.3300905.18233029.4443525.34224291.091111.12479163.1568304.25855033.1971582.40127609.039581.14347301.0687066.354199.0851364.63292521.0171767.27947348.0253916.69270564.0253916 1.24044376v4.53359774c0 .61573835.0373406 1.1193884.1120217 1.51319189.0739343.3930563.1986517.7248377.3756459.992355.1762474.2675174.4182142.5043974.7266472.7098926.9342606.6389032 2.2165352.957234 3.8460769.957234.6497256 0 1.2195424-.0597805 1.7094505-.1793413.489908-.1195608.9230584-.3048802 1.2994512-.5559579.3420395-.2279129.6123851-.4872105.8125304-.7778928.1986518-.2914295.3412927-.644134.4264291-1.0611025.0858833-.41547389.1284515-.93257454.1284515-1.54756563v-1.31741104c0-1.8696327.1598176-3.29539576.4787059-4.27579468.1822219-.54773812.4047716-.95275048.6676491-1.21503708.2501817-.25033051.5832594-.41846295.9902714-.51186986.0194171-.00523079.0328597-.01419785.0522768-.01868138v-.1703742z" fill="#fff" fill-rule="evenodd"/></mask><path d="m19.2498016 0c-.4675037.5813646-.9693607 1.10294878-1.5048242 1.56475254-.5354636.46255102-1.0029673.78461804-1.4017644.96694833.2613839.25033051.4839336.54699086.6661555.88848652l-1.7266272 4.56797149c-.296484.82123354-.651966 1.5453239-1.0679398 2.17227112-.4159737.6269471-.8573391 1.1231246-1.3248428 1.4885325-.4675037.3646605-.9350074.5701557-1.4017643.6149911v.1711214h5.2821945v-.1711214c-.5354635-.0343738-.9514372-.2391217-1.2471744-.6149911-.2972308-.3766167-.4443526-.8787722-.4443526-1.5057194 0-.33028684.0336065-.65235387.1015663-.96694834.0679598-.31309996.1769942-.68074955.3248628-1.10220153h3.4532543l.3763928.88923378c.4787059 1.12835549.7184322 1.90998449.7184322 2.34339249 0 .3078692-.1008195.5395184-.2994712.6934529-.1993986.1531874-.5040975.2421108-.9148435.2637812v.1711214h6.8893319v-.1711214c-.4667569-.0216704-.8319475-.1307697-1.0940782-.3235616-.2621307-.1942863-.5496529-.5880899-.8633136-1.1814106-.3136606-.5925734-.7893793-1.63648902-1.4271559-3.12950505l-2.205333-5.32045755c-.2509285-.60378226-.5474125-1.37420245-.8887052-2.3090188zm-2.1030199 3.62642984 1.7609805 4.24216819h-3.3337646zm81.0917311-2.76260274c-.1710198.06800023-.3905822.11657182-.6579406.14496752-.2681051.02914296-.6527128.04334081-1.153823.04334081h-5.7616473c-.6153723 0-1.0627121-.01195609-1.3420194-.03437375-.2793074-.02316491-.5011103-.06874748-.6661555-.13749497-.165792-.06800023-.3338245-.18158303-.5040975-.34149566l-.4966293 3.98511238h.1710197c.2165752-.5245732.5406912-1.02598149.9745884-1.50497212.4331505-.47899063.9148436-.88101397 1.4443326-1.20607002.5302359-.32430878 1.039561-.52158418 1.5302159-.59033166v8.31321492c0 .55894695-.008215.97516815-.0261384 1.24866355-.0164299.2742427-.0477959.4827269-.0940982.6254527-.0448087.1419785-.118743.2757372-.2218029.4020233-.1359196.1591654-.3076862.2727482-.5123124.3414957-.205373.0680002-.5242613.11433-.9574117.1367477v.1711214h6.9923918v-.1711214c-.4338972-.0224177-.7527855-.0687475-.9581586-.1367477-.2046262-.0687475-.3756459-.1823303-.5123123-.3414957-.1023132-.11433-.1769943-.245847-.2225497-.3938035-.0463023-.1487038-.0769216-.3616716-.0933514-.641145-.0179235-.2802208-.0268852-.6934529-.0268852-1.24119105v-8.31321492c.489908.06874748 1.0067013.26826464 1.5473925.59855147.541438.33178134 1.0231311.73604645 1.4443326 1.21578433.4219482.47749612.7244067.97442088.9058818 1.487038h.1717665l-.4615292-3.98511238c-.1710198.14795655-.3420395.25630856-.5130592.32505605zm-96.02421804.42743001c-.67810443.32505605-1.21132752.77266196-1.59892246 1.34281773-.38759493.57015577-.58101899 1.20308099-.58101899 1.89877565 0 .68373858.24495402 1.27705926.73486207 1.77846755.49065486.50215555 1.27630009.96919009 2.35917611 1.40334541l1.67509718.64936483c.85509866.33103409 1.4727114.67850779 1.85507865 1.04316836.38162045.36615509.57280408.79358506.57280408 1.28303726 0 .342243-.07990878.6448813-.23897954.9079152-.16056437.2615394-.3853545.4670346-.675864.6149911-.2905095.1487038-.62956171.2219348-1.01715665.2219348-.56981683 0-1.07690153-.1165718-1.52125411-.3504627-.44435257-.2331437-.92305846-.635167-1.43611765-1.20607-.51231238-.5701558-.95442452-1.17094904-1.3248428-1.80462151-.37041828-.63217796-.65271286-1.27407024-.84613692-1.92418233h-.17101973l.17101973 5.28533654h.17101973c.03435331-.1479565.09409819-.2525723.17923465-.316089.08588327-.0627694.21358796-.0941541.38460769-.0941541.09185776 0 .2023858.0119561.33382454.0343737.13069194.0224177.29872442.0567914.50409746.102374.72888759.1599126 1.4122197.2824625 2.05074315.3676496.63852344.0851871 1.18070827.1285279 1.62506084.1285279.78639204 0 1.50407746-.1658907 2.15380307-.4961775.64972561-.3302868 1.15979756-.7838708 1.53021584-1.3592574.37041828-.5761338.55488061-1.2172788.55488061-1.92418229 0-.74202449-.22777737-1.3749497-.68333211-1.89952291-.45555474-.5245732-1.16801248-.97516813-2.13662641-1.35103753l-1.59070754-.59929873c-.45555474-.1703742-.8715285-.35270449-1.24717445-.54624361-.37639277-.19503362-.66167459-.37063861-.85509866-.53055124-.1829687-.14795655-.32785005-.33402311-.43613765-.55670518-.1082876-.22193482-.162058-.46404553-.162058-.72633213 0-.319078.07692154-.60452951.23076462-.85560729.15384307-.25033051.36743103-.44461688.64076388-.5813646.27407965-.13749497.58699348-.2054952.94023511-.2054952.55786785 0 1.09706543.16589067 1.6153523.4961775.51903368.33103409.98952464.81002472 1.41072607 1.43697189.42194825.62769443.77518987 1.37420245 1.0604717 2.24101857h.17027292l-.18819639-4.26010231h-.17027292c-.03435331.14870379-.08065559.24808875-.13741323.30039661-.05750445.05081336-.14786859.07622004-.27258604.07622004-.19491768 0-.45107387-.03960453-.76996219-.11956084-.67287675-.15916537-1.18518913-.26527562-1.53843076-.31683624-.35398844-.05081336-.70723007-.07696729-1.05972488-.07696729-.83269432 0-1.58697348.16290165-2.26507792.48795769zm99.52900224.99160775c-.706483.55894695-1.245681 1.2180261-1.615352 1.9764902-.3711654.7584641-.5556277 1.58791746-.5556277 2.48836006 0 1.82479738.7236597 3.31856068 2.1709797 4.48203718.581019.4789906 1.213568.8406621 1.8969 1.0857619.684079.2450997 1.396537.3676496 2.137373.3676496 1.116483 0 2.153803-.2615394 3.111215-.7861126.957412-.5253204 1.715425-1.2374547 2.27404-2.13864458.557868-.9004426.837175-1.87561074.837175-2.92475714 0-.94677243-.179235-1.79341266-.537704-2.53992068-.359216-.74650801-.903641-1.41754325-1.633276-2.01086394-1.185189-.96844283-2.53617-1.45341151-4.05145-1.45341151-1.481673 0-2.826679.48496868-4.034273 1.45341151zm2.871489 9.81893434c-.341293-.2391217-.592968-.5701558-.752039-.9916078-.386848-.992355-.581019-2.4457665-.581019-4.36247628 0-1.91521526.194171-3.36339598.581019-4.34454216.159071-.42219923.410746-.75248606.752039-.992355.342039-.23912169.729634-.35868253 1.162784-.35868253.433151 0 .819999.11956084 1.162038.35868253.342787.23986894.598196.57015577.769963.992355.386848.99160775.581019 2.46295338.581019 4.41328965 0 .91239869-.048543 1.73064321-.145629 2.45473357-.097085.72409036-.241966 1.33683972-.43539 1.83899522-.159818.421452-.41.7524861-.752039.9916078-.34204.2391216-.730381.3594297-1.162785.3594297-.444353 0-.837922-.1203081-1.179961-.3594297zm-63.2436943-11.07581771v.17112146c.3763928.02316491.6527129.06874748.8289603.13749497.1762474.06725297.3278501.18158303.4525675.34149566.0918578.12553889.1598176.25929758.2061199.40202334.0448086.14272575.0739343.3474737.0851364.61573834.0112022.26826465.0164299.6867276.0164299 1.25763063v5.55883198c0 .57090303-.0052277.99011323-.0164299 1.25763063-.0112021.2675174-.0403278.4730126-.0851364.6157383-.0463023.1419785-.1142621.2764845-.2061199.4027706-.1247174.1591654-.2763201.2727482-.4525675.3407484-.1762474.0687475-.4525675.1150774-.8289603.1367478v.1711214h10.7525855l.7699622-4.85790652h-.1717665c-.2382327.67252974-.5242614 1.26061964-.8543518 1.76202793-.3308373.50215555-.7356089.96919009-1.213568 1.40334539-.5362103.4789906-1.0858633.8466402-1.6497056 1.1036961-.5645892.2555613-1.1194698.3833419-1.6668823.3833419-.2628775 0-.4675037-.0448353-.6153723-.1360004-.1486154-.0911652-.2509285-.2421108-.3076861-.453584-.0575045-.210726-.0858833-.5148589-.0858833-.9153877v-4.036673c.7639877 0 1.418941.22567109 1.9663535.67551877.5466657.45134218.917084 1.08053113 1.110508 1.88980859h.1717666v-5.26814968h-.1717666c-.0455555.4677818-.201639.88400298-.4697441 1.24941081-.2681052.36466058-.6235873.6583319-1.0686866.88101397-.4443526.22193482-.956665.35046273-1.5384308.38408921v-5.26814968h.4787059c1.1732401 0 2.1971181.31683624 3.0686466.9490142.8722753.63367247 1.5705436 1.56026901 2.0940582 2.77978962h.1710197l-.7005088-3.93429902zm-6.8729021 0v.17112146c.2277774.06874748.3987972.14496752.5130592.23164913.1135153.0851871.2225497.2189458.3256097.40127609.2382327.38782548.3577225.92360751.3577225 1.60809335 0 .38782548-.0283789.7300684-.0851365 1.02598149-.0575045.29666034-.1642984.65011208-.3248628 1.06110249-.1598176.41024314-.4212014 1.0207507-.7863921 1.82928091l-.8028218 1.79640167-1.9663535-4.29298154c-.2621307-.54773812-.4727314-1.00356384-.632549-1.36897167-.1598175-.36466057-.2621307-.62993619-.3076861-.79507961-.0455555-.16514341-.0687067-.32729781-.0687067-.48721044 0-.29666034.0799088-.5245732.2397264-.68448583.1590707-.15991263.4159737-.26826464.7692154-.32505604v-.17112146h-6.5472925v.17112146c.3532416.07995631.6579405.20773696.9140967.38483646.256903.1770995.5048443.44536415.7438238.80404668.2389796.35942979.5242614.87503593.8550987 1.54831293l4.4099192 9.06570098 3.3681179-7.08173823c.6952811-1.44818072 1.3390322-2.5429097 1.9320002-3.28418693.5922211-.74127723 1.2075934-1.22026786 1.8461169-1.43697189v-.17112146zm36.8379487.02615394v.1703742c-.0194171.00448353-.0328597.01345059-.0522768.01868138.2830414.02540668.5167933.06202219.6669023.11881359.1829687.06874748.3308373.18233029.4450994.34224291.0903641.12479163.1568303.25855033.1964113.40127609.039581.14347301.0687066.354199.0858833.63292521.0164298.27947348.0253916.69270564.0253916 1.24044376v5.55883198c0 .54773815-.0089618.96097025-.0253916 1.24119105-.0171767.2794734-.0463023.4901994-.0858833.6329252-.039581.1419785-.1060472.2757372-.1964113.4020233-.1142621.1591654-.2621307.2727482-.4450994.3414957-.1822219.0680002-.4607824.11433-.8371752.1367477v.1711214h6.7698422v-.1711214c-.4331504-.0224177-.7527855-.0687475-.9574118-.1367477-.205373-.0687475-.3763927-.1823303-.5130592-.3414957-.1023131-.11433-.1762474-.2480887-.2225497-.4020233-.0455554-.1546819-.0761747-.3683969-.0940981-.6418923-.0164299-.2734954-.0246448-.6844858-.0246448-1.23222395v-1.96677588h.4951357c.9686139 0 1.766955-.0567914 2.3927826-.17112146.6273213-.1135828 1.2090871-.30189113 1.7445506-.56417773.5354636-.27424269.9544246-.63367247 1.2561362-1.07754211.3024585-.44536414.4533143-.92958556.4533143-1.45415876 0-.66132092-.2195624-1.23745473-.6579405-1.72765419-.4391249-.49019946-1.0686866-.86681612-1.889432-1.12910272-.8207453-.2622866-1.7893592-.39305627-2.9058418-.39305627zm4.7355289.20474794h.4607824c.5474125 0 .9887778.10013221 1.3248428.29964937.336065.19951715.5817658.51635339.7356089.94901419.1538431.43340806.2315114 1.01477267.2315114 1.74484107 0 .77639823-.0746811 1.38914755-.2225497 1.83974248-.1486154.44984768-.3905822.77490372-.7266471.97442088-.3368118.19951716-.7953538.29890211-1.3763728.29890211h-.4271759zm-4.9580786-.20474794h-4.1029799v.1703742c.4212014.1487038.7348621.33626487.9402351.56492499.2053731.22791285.3816205.56940851.5294891 1.02672874.296484.94677243.4443525 2.34264529.4443525 4.19060758v1.55653273c0 .62769443-.0343533 1.10892683-.1015663 1.44519173-.0687066.3362648-.2001453.6478703-.3935694.9325746-.2389795.3758694-.5787786.6643099-1.0179034.8638271-.4383781.1995171-.9477033.2989021-1.5294691.2989021-.5474125 0-1.0373205-.099385-1.4697241-.2989021-.4338972-.1995172-.7468111-.4707709-.9402351-.8122665-.1486154-.2734955-.2509286-.6224637-.308433-1.04391565-.0567576-.42145197-.0851365-1.0775421-.0851365-1.96752314v-4.00229924c0-.4677818.0052277-.85859631.0171767-1.17169627.0112022-.31384722.0365937-.5447491.0769215-.69270564.039581-.14795654.1045536-.28545152.1964113-.41024315.10306-.15991262.2367391-.27349543.4017844-.34224291.165792-.06874749.4301631-.11433006.7946069-.13749497v-.1703742h-6.4442325v.1703742c.3763928.02316491.6549533.06874748.8371752.13749497.1822219.06874748.3300905.18233029.4443525.34224291.091111.12479163.1568304.25855033.1971582.40127609.039581.14347301.0687066.354199.0851364.63292521.0171767.27947348.0253916.69270564.0253916 1.24044376v4.53359774c0 .61573835.0373406 1.1193884.1120217 1.51319189.0739343.3930563.1986517.7248377.3756459.992355.1762474.2675174.4182142.5043974.7266472.7098926.9342606.6389032 2.2165352.957234 3.8460769.957234.6497256 0 1.2195424-.0597805 1.7094505-.1793413.489908-.1195608.9230584-.3048802 1.2994512-.5559579.3420395-.2279129.6123851-.4872105.8125304-.7778928.1986518-.2914295.3412927-.644134.4264291-1.0611025.0858833-.41547389.1284515-.93257454.1284515-1.54756563v-1.31741104c0-1.8696327.1598176-3.29539576.4787059-4.27579468.1822219-.54773812.4047716-.95275048.6676491-1.21503708.2501817-.25033051.5832594-.41846295.9902714-.51186986.0194171-.00523079.0328597-.01419785.0522768-.01868138v-.1703742z" fill="url(#a)" fill-rule="evenodd" mask="url(#b)" transform="translate(33 15)"/></svg>