<svg height="100" viewBox="0 0 320 100" width="320" xmlns="http://www.w3.org/2000/svg" xmlns:xlink="http://www.w3.org/1999/xlink"><linearGradient id="a" x1="49.93594%" x2="49.93594%" y1=".000308%" y2="100.000103%"><stop offset="0" stop-color="#d49442"/><stop offset="1" stop-color="#a37946"/></linearGradient><mask id="b" fill="#fff"><path d="m.4205.6h.559v34h-.559z" fill="#fff" fill-rule="evenodd"/></mask><g fill="none" fill-rule="evenodd"><path d="m.4205 34.6h.559v-34h-.559z" fill="url(#a)" mask="url(#b)" transform="translate(180 14.4)"/><g fill="#cf913f" transform="translate(210 21)"><path d="m4.44279783 7.1088192c-.33272054.14043456-.66870305.21010752-1.00794752.21010752-.53496245 0-1.01555878-.0925344-1.44396367-.27869184-.42623023-.18615744-.78722115-.44307648-1.0807981-.76966848s-.51865261-.70979328-.67522698-1.15069248-.23486156-.91554624-.23486156-1.4261184c0-.5225472.07828719-1.006992.23486156-1.45442304s.38165003-.8382528.67522698-1.17137664c.29357695-.3320352.65456787-.59439744 1.0807981-.7838208.42840489-.18942336.90900122-.28413504 1.44396367-.28413504.35881627 0 .70675932.054432 1.0416545.16220736.33706983.10777536.63934536.26562816.91008855.47464704.27074318.21010752.49473152.46702656.67087769.77402304s.28379105.66080448.32293464 1.05815808h-1.46788474c-.09133505-.3919104-.26748122-.6858432-.52843851-.8817984-.26095729-.19486656-.577368-.2939328-.94923213-.2939328-.34576841 0-.63934536.06749568-.88073085.2013984s-.43710346.31352832-.5871539.5388768-.25986997.48117888-.32728393.76857984c-.06958861.2884896-.1032956.58568832-.1032956.89159616 0 .2939328.03370699.58024512.1032956.85784832.06741396.2776032.17723349.52690176.32728393.74898432s.34576841.40061952.5871539.53452224.53496244.20030976.88073085.20030976c.50886671 0 .90138996-.12845952 1.17865708-.3864672s.4392781-.63249984.48494563-1.12238784h-1.54617194v-1.14633792h2.9357695v3.78193536h-.97858983l-.15657438-.79361856c-.27400515.353808-.577368.59984064-.91008854.7402752"/><path d="m16.0189719.1672151v1.29330432h-3.6892837v1.49905728h3.3870081v1.19532672h-3.3870081v1.714608h3.7675709v1.29330432h-5.3039569v-6.99560064z"/><path d="m19.65041 1.46051942v-1.29330432h5.7247505v1.29330432h-2.0941822v5.70229632h-1.5363861v-5.70229632z"/><path d="m40.2490735.1672151v1.29330432h-3.6892836v1.49905728h3.3859208v1.19532672h-3.3859208v1.714608h3.7675708v1.29330432h-5.3039569v-6.99560064z"/><path d="m47.9993963 4.45852512-.8807309-2.56701312h-.0195718l-.9100885 2.56701312zm-.0880731-4.29141888 2.6128348 6.99560064h-1.5951014l-.5284385-1.55784384h-2.6128349l-.5480103 1.55784384h-1.5461719l2.6421925-6.99560064z"/><path d="m57.4136479 3.33156499c.351205 0 .6154243-.07838208.7926578-.23514624.1761461-.15676416.2642192-.41150592.2642192-.76422528 0-.33965568-.0880731-.58677696-.2642192-.7402752-.1772335-.1524096-.4414528-.22970304-.7926578-.22970304h-1.6831745v1.96934976zm.5480103-3.16467648c.3131487 0 .5947651.05116608.8459365.15132096.2511714.10233216.4664612.24058944.6458693.41694912.1794082.17635968.3164107.381024.4110078.61290432.094597.23188032.1424391.48117888.1424391.74898432 0 .41150592-.0869857.7674912-.2598699 1.06795584s-.4545006.52907904-.8459366.6858432v.01959552c.1891941.05225472.3457684.13281408.4697232.2395008.1239547.10777536.2250756.23623488.3033628.38211264.0771999.14805504.1348279.30917376.1707096.48553344.0369689.17635968.06089.35271936.0739379.52907904.0065239.11104128.0119605.24167808.0184844.3919104.006524.15023232.0184845.30373056.0358817.46049472.0152225.15676416.0424055.30590784.0771998.44525376.0358817.1415232.0902478.26018496.1609237.35816256h-1.5352987c-.0848111-.22208256-.1370026-.48662208-.1565744-.79361856s-.0489295-.60092928-.0880731-.8817984c-.0521914-.36578304-.1630983-.63358848-.3327205-.80341632-.1696223-.16982784-.4468894-.25474176-.8328887-.25474176h-1.5352987v2.73357504h-1.5363861v-6.99560064z"/><path d="m65.8584432.1672151v5.70229632h3.4054926v1.29330432h-4.9418786v-6.99560064z"/><path d="m72.4344581.1672151h1.7223181l1.634245 2.76296832 1.6244592-2.76296832h1.7125322l-2.5932631 4.3110144v2.68458624h-1.536386v-2.72377728z"/><path d="m17.3302822 16.2156194-.8807308-2.5659245h-.0195718l-.9100885 2.5659245zm-.088073-4.2903302 2.6128348 6.994512h-1.5951014l-.5284385-1.5567552h-2.6128349l-.5480103 1.5567552h-1.5461719l2.6421925-6.994512z"/><path d="m28.0071322 13.7911092c-.0924224-.1469664-.2055038-.2754259-.3425064-.3864672-.1370026-.1121299-.2924897-.1981324-.4653739-.2601849s-.3533796-.0936231-.5425736-.0936231c-.3468558 0-.6393454.0674957-.8818182.2013984-.2402982.1339028-.4360162.3135284-.5871539.5388768-.1489631.2253485-.2587827.4811789-.3272839.7696685-.0685013.287401-.1022083.5845997-.1022083.8915962 0 .2928441.033707.5791565.1022083.8567597.0685012.2776032.1783208.5269017.3272839.7489843.1511377.2231712.3468557.4006195.5871539.5345222.2424728.1339027.5349624.2003098.8818182.2003098.4686357 0 .8361506-.1437005 1.1014572-.4300128.2631319-.2884896.4240556-.6673363.4838583-1.1365402h1.4874565c-.0391436.4365447-.1413518.831721-.3033628 1.185529-.1641857.3527193-.3783881.6520953-.6458693.9013939-.2674812.2471213-.58063.4365446-.9394463.5671814-.3588162.1306368-.7546014.1959552-1.1840936.1959552-.5349625 0-1.0166462-.0925344-1.4439637-.2786918-.4273176-.1861574-.7872212-.4419878-1.0807981-.7696685-.293577-.326592-.5186526-.7097933-.6763143-1.1517811-.1554871-.4398106-.2337743-.9144576-.2337743-1.4239411 0-.5236359.0782872-1.0080807.2337743-1.4555117.1576617-.447431.3827373-.8382528.6763143-1.1713766.2935769-.3320352.6534805-.5943975 1.0807981-.7827322.4273175-.190512.9090012-.2852237 1.4439637-.2852237.3838246 0 .7480775.0566093 1.090584.1676506.3425064.1110413.6491312.27216.9198744.4844448s.4947315.474647.6708777.789264c.1761462.3135283.2859657.6716909.3316332 1.0766649h-1.4874565c-.0250084-.1763596-.0837238-.3374784-.1750589-.4844448"/><path d="m38.3207079 13.7911092c-.091335-.1469664-.2044165-.2754259-.3414191-.3864672-.1380899-.1121299-.293577-.1981324-.4653738-.2601849-.1728842-.0620525-.354467-.0936231-.5436611-.0936231-.3457684 0-.6393453.0674957-.8807308.2013984-.2413855.1339028-.4371035.3135284-.5871539.5388768-.1500504.2253485-.2587827.4811789-.3283713.7696685-.0674139.287401-.1022082.5845997-.1022082.8915962 0 .2928441.0347943.5791565.1022082.8567597.0695886.2776032.1783209.5269017.3283713.7489843.1500504.2231712.3457684.4006195.5871539.5345222s.5349624.2003098.8807308.2003098c.4697232 0 .8361507-.1437005 1.1014573-.4300128.2642192-.2884896.4251429-.6673363.4838583-1.1365402h1.4874565c-.0391436.4365447-.1402645.831721-.3033628 1.185529-.1630983.3527193-.3783881.6520953-.6458693.9013939-.2674812.2471213-.58063.4365446-.9394463.5671814-.3588162.1306368-.7535141.1959552-1.1840937.1959552-.5349624 0-1.0166461-.0925344-1.4428763-.2786918-.4284049-.1861574-.7883085-.4419878-1.0807981-.7696685-.2946643-.326592-.5197399-.7097933-.6763143-1.1517811-.1565744-.4398106-.2348616-.9144576-.2348616-1.4239411 0-.5236359.0782872-1.0080807.2348616-1.4555117s.38165-.8382528.6763143-1.1713766c.2924896-.3320352.6523932-.5943975 1.0807981-.7827322.4262302-.190512.9079139-.2852237 1.4428763-.2852237.384912 0 .7480776.0566093 1.0916714.1676506.3414191.1110413.6480439.27216.9187871.4844448s.4947315.474647.6708777.789264c.1761461.3135283.287053.6716909.3327205 1.0766649h-1.4874565c-.0260958-.1763596-.0848111-.3374784-.1761462-.4844448"/><path d="m49.3786643 11.9248537v1.2933043h-3.6892837v1.4990573h3.3870081v1.1953267h-3.3870081v1.7135194h3.7675708v1.2943929h-5.3039568v-6.9956006z"/><path d="m54.7325292 17.1958308c.0837238.163296.1968053.2950215.3381572.396265.1391772.1023322.3044501.1763597.4936442.2253485.1881067.0489888.3838247.0740275.5871539.0740275.1370026 0 .2827037-.0108864.4403654-.0348365.1565744-.0217728.3022755-.066407.4392781-.1317254s.2522587-.1545869.3435938-.2699827c.091335-.1132186.1370025-.2590964.1370025-.435456 0-.1894234-.06089-.3429216-.1815827-.4604948-.1206928-.1175731-.2783545-.2155507-.4751598-.2939328-.1957179-.078382-.4175316-.1469664-.6643537-.2057529-.2489968-.0587866-.4990808-.124105-.7546015-.1959552-.2609573-.0653184-.5143033-.1447891-.7633001-.2395008-.2468221-.0947117-.4686358-.2188167-.6643538-.3679603-.1968052-.1502324-.3544669-.3374784-.4751597-.5628269-.1206927-.2253485-.1815828-.4985971-.1815828-.8186573 0-.3592512.0771999-.6706022.2305123-.9362304.1533124-.2634509.354467-.4844448.6012891-.6608045.2489967-.1763597.5284385-.3069965.8426746-.3919104.3131487-.0849139.6262975-.1273709.9394462-.1273709.3653402 0 .7154579.0402797 1.0525277.1230164.3348952.0805593.6339088.2133734.8948661.3962649.2598699.1828915.4675484.4158605.6208609.6999955.1533124.2852237.2305122.629234.2305122 1.034208h-1.4874565c-.0141352-.2090188-.0576281-.3821126-.1326533-.5192812-.0750252-.1371687-.1739715-.244944-.2990136-.3233261-.1239547-.0783821-.2653065-.1339027-.4251429-.1665619-.1598363-.0326592-.3348952-.0489888-.5240892-.0489888-.1239547 0-.2468221.0130636-.3707768.039191-.1250421.0261274-.2370362.0718502-.3381572.1371686-.1011209.0653184-.1848447.1469664-.250084.244944-.064152.0979776-.0967717.2220826-.0967717.3723149 0 .1371687.0250084.2482099.0782872.3331239.0521914.0849139.1543997.163296.3077121.2351462s.3653402.1437005.6360834.2155507c.2707432.0718503.6241229.163296 1.0623136.2743373.1304787.0261274.3109741.0740275.5425737.1426118.2315996.0685844.4610246.1774484.6893622.3276807s.4262302.3516307.5925905.6020179c.1663603.2525645.2500841.5737133.2500841.9656237 0 .3200601-.0630647.6172589-.1859321.8915961-.1239547.2743373-.3087994.5116608-.5534469.7097933-.2435601.2003098-.5480103.3548967-.9100885.4659379-.3620783.1110413-.7817846.166562-1.2569443.166562-.3859993 0-.7589508-.0468116-1.121029-.1415232-.3620783-.0947117-.6817509-.2438554-.9590181-.4474311-.2772671-.2013984-.4969061-.4594061-.6610918-.7729344-.1630983-.3135283-.2402981-.6858432-.2337742-1.1169446h1.4874565c0 .2351462.0424056.4343673.1272167.5976633"/><path d="m64.1456935 17.1958308c.0848112.163296.1978926.2950215.3381572.396265.1391772.1023322.3044502.1763597.4936442.2253485s.384912.0740275.5871539.0740275c.1370026 0 .283791-.0108864.4403654-.0348365.1565744-.0217728.3033629-.066407.4403654-.1317254.1370026-.0653184.2511714-.1545869.3425065-.2699827.091335-.1132186.1370026-.2590964.1370026-.435456 0-.1894234-.0598028-.3429216-.1804955-.4604948-.1217801-.1175731-.2794418-.2155507-.4751597-.2939328-.195718-.078382-.4175317-.1469664-.6654411-.2057529-.2479094-.0587866-.4990808-.124105-.7535142-.1959552-.2609573-.0653184-.5153906-.1447891-.7633001-.2395008-.2479094-.0947117-.4697231-.2188167-.665441-.3679603-.195718-.1502324-.3533797-.3374784-.4751598-.5628269-.1206927-.2253485-.1804954-.4985971-.1804954-.8186573 0-.3592512.0771998-.6706022.2294249-.9362304.1533124-.2634509.354467-.4844448.6023764-.6608045.2479095-.1763597.5284385-.3069965.8426746-.3919104.3120614-.0849139.6252102-.1273709.9383589-.1273709.3653402 0 .7154579.0402797 1.0525277.1230164.3348952.0805593.6339088.2133734.8948661.3962649s.4675485.4158605.6208609.6999955c.1543997.2852237.2305122.629234.2305122 1.034208h-1.4874565c-.0130479-.2090188-.0576281-.3821126-.131566-.5192812-.0761125-.1371687-.1750588-.244944-.2990135-.3233261s-.2663939-.1339027-.4251429-.1665619c-.1609237-.0326592-.3348952-.0489888-.5240893-.0489888-.1239547 0-.2479094.0130636-.3718641.039191s-.2359489.0718502-.3370698.1371686c-.1022083.0653184-.1848448.1469664-.2500841.244944s-.097859.2220826-.097859.3723149c0 .1371687.0260957.2482099.0782872.3331239.0521915.0849139.1543997.163296.3077121.2351462.1543998.0718502.3653402.1437005.6371707.2155507.2696559.0718503.6241229.163296 1.0612264.2743373.1304786.0261274.3120614.0740275.543661.1426118.2315996.0685844.4610245.1774484.6893621.3276807.2283377.1502323.4262303.3516307.5915032.6020179.1674476.2525645.2500841.5737133.2500841.9656237 0 .3200601-.0619774.6172589-.1859321.8915961-.1239547.2743373-.3077121.5116608-.5534469.7097933-.2435601.2003098-.5480103.3548967-.9100885.4659379-.3620783.1110413-.7806973.166562-1.2569443.166562-.384912 0-.7578635-.0468116-1.1199417-.1415232-.3620782-.0947117-.6817509-.2438554-.959018-.4474311-.2783545-.2013984-.4979935-.4594061-.6610918-.7729344s-.2413855-.6858432-.2348616-1.1169446h1.4874566c0 .2351462.0424055.4343673.1272166.5976633"/></g></g></svg>