<?xml version="1.0" encoding="utf-8"?>
<!-- Generator: Adobe Illustrator 23.0.0, SVG Export Plug-In . SVG Version: 6.00 Build 0)  -->
<svg version="1.1" id="Layer_1" xmlns="http://www.w3.org/2000/svg" xmlns:xlink="http://www.w3.org/1999/xlink" x="0px" y="0px"
	 viewBox="0 0 300 250" style="enable-background:new 0 0 300 250;" xml:space="preserve">
<style type="text/css">
	.st0{enable-background:new    ;}
	.st1{fill:#FFFFFF;}
</style>
<g id="copy1">
	<g class="st0">
		<path class="st1" d="M35.6,144.1l-5.6-8.5h4.1l3.1,5.6l3.3-5.6h3.9l-5.6,8.5v6.3h-3.3V144.1z"/>
		<path class="st1" d="M52.8,135.2c4.6,0,8,3,8,7.8s-3.4,7.8-8,7.8s-8-3-8-7.8S48.1,135.2,52.8,135.2z M52.8,147.8
			c2.8,0,4.6-2,4.6-4.8s-1.8-4.8-4.6-4.8s-4.6,2-4.6,4.8S50,147.8,52.8,147.8z"/>
		<path class="st1" d="M75.5,144.7c0,3.5-2.1,6.1-6.3,6.1c-4.1,0-6.3-2.6-6.3-6.1v-9.1h3.3v9c0,1.8,1.3,3.2,3,3.2c1.7,0,3-1.4,3-3.2
			v-9h3.3V144.7z"/>
		<path class="st1" d="M78.6,135.6h5.8c3,0,5.6,1,5.6,4.5c0,2.1-1.1,3.7-3.2,4.1l3.8,6.3h-3.9l-3.1-5.9h-1.6v5.9h-3.3V135.6z
			 M81.8,141.7h1.9c1.2,0,2.8,0,2.8-1.7c0-1.5-1.3-1.7-2.5-1.7h-2.1V141.7z"/>
		<path class="st1" d="M98.4,135.6h5.5c3.1,0,5.6,1,5.6,4.5c0,3.5-2.4,4.6-5.5,4.6h-2.4v5.8h-3.3V135.6z M101.7,141.9h2.2
			c1.2,0,2.3-0.4,2.3-1.8c0-1.5-1.6-1.7-2.8-1.7h-1.7V141.9z"/>
		<path class="st1" d="M114.6,135.6h2.7l6.5,14.9h-3.7l-1.3-3.1H113l-1.2,3.1h-3.6L114.6,135.6z M115.8,139.9l-1.8,4.6h3.6
			L115.8,139.9z"/>
		<path class="st1" d="M127,144.1l-5.6-8.5h4.1l3.1,5.6l3.3-5.6h3.9l-5.6,8.5v6.3H127V144.1z"/>
		<path class="st1" d="M146.7,139.4c-0.7-0.8-1.6-1.2-2.8-1.2c-2.5,0-4.3,2-4.3,4.8s1.8,4.8,4.2,4.8c1.3,0,2.4-0.6,3.1-1.6l2.7,2
			c-1.2,1.8-3.3,2.6-5.4,2.6c-4.6,0-8-3-8-7.8s3.4-7.8,8-7.8c1.7,0,3.8,0.6,5,2.2L146.7,139.4z"/>
		<path class="st1" d="M151.3,135.6h3.3v5.5h6.4v-5.5h3.3v14.9H161V144h-6.4v6.4h-3.3V135.6z"/>
		<path class="st1" d="M167.4,135.6h10.1v3h-6.8v2.8h6.4v3h-6.4v3h7.2v3h-10.5V135.6z"/>
		<path class="st1" d="M190.2,139.4c-0.7-0.8-1.6-1.2-2.8-1.2c-2.5,0-4.3,2-4.3,4.8s1.8,4.8,4.2,4.8c1.3,0,2.4-0.6,3.1-1.6l2.7,2
			c-1.2,1.8-3.3,2.6-5.4,2.6c-4.6,0-8-3-8-7.8s3.4-7.8,8-7.8c1.7,0,3.8,0.6,5,2.2L190.2,139.4z"/>
		<path class="st1" d="M195,135.6h3.3v6.2l5.8-6.2h4.3l-6.6,6.9l7.2,8h-4.6l-6-7.1v7.1H195V135.6z"/>
		<path class="st1" d="M211.6,146.7c1.1,0,1.9,0.9,1.9,1.9s-0.9,1.9-1.9,1.9s-1.9-0.9-1.9-1.9S210.6,146.7,211.6,146.7z"/>
	</g>
</g>
</svg>
