<svg id="Layer_1" data-name="Layer 1" xmlns="http://www.w3.org/2000/svg" viewBox="0 0 300 250"><defs><style>.cls-1{fill:#fff;}</style></defs><path class="cls-1" d="M20.17,190.38H22V196a1.9,1.9,0,0,0,.46,1.38,1.77,1.77,0,0,0,1.36.49,1.79,1.79,0,0,0,1.34-.48,1.91,1.91,0,0,0,.46-1.39v-5.57H27.5V196a3.68,3.68,0,0,1-.46,1.89,2.91,2.91,0,0,1-1.28,1.2,4.72,4.72,0,0,1-3.85,0,2.91,2.91,0,0,1-1.28-1.2,3.68,3.68,0,0,1-.46-1.89Z"/><path class="cls-1" d="M30.82,198a1.1,1.1,0,0,0,.72.21,1,1,0,0,0,.64-.18.55.55,0,0,0,.24-.46.47.47,0,0,0-.16-.4,1.57,1.57,0,0,0-.43-.2l-1.14-.31a2.72,2.72,0,0,1-1.29-.72,1.58,1.58,0,0,1-.45-1.15,1.83,1.83,0,0,1,.31-1.06,2.12,2.12,0,0,1,.89-.72,3.19,3.19,0,0,1,1.31-.25,3,3,0,0,1,1.86.55,1.77,1.77,0,0,1,.72,1.48H32.31a.65.65,0,0,0-.23-.53.89.89,0,0,0-.59-.19.91.91,0,0,0-.58.17.54.54,0,0,0-.22.44.44.44,0,0,0,.19.39,2.75,2.75,0,0,0,.55.23l1.23.32a2.05,2.05,0,0,1,1.14.69,1.79,1.79,0,0,1,.4,1.17,1.76,1.76,0,0,1-.73,1.49,3.7,3.7,0,0,1-3.9,0,1.89,1.89,0,0,1-.77-1.53h1.75A.74.74,0,0,0,30.82,198Z"/><path class="cls-1" d="M38.93,197.91a.93.93,0,0,0,.42-.55H41a2.36,2.36,0,0,1-1,1.55,3.22,3.22,0,0,1-1.93.57,2.88,2.88,0,0,1-2.17-.86,3.51,3.51,0,0,1-.81-2.48,3.64,3.64,0,0,1,.81-2.51,2.8,2.8,0,0,1,2.21-.91,2.73,2.73,0,0,1,2.12.84,3.22,3.22,0,0,1,.77,2.26,4.21,4.21,0,0,1-.07.73H36.9v.1a1.54,1.54,0,0,0,.34,1.08,1.21,1.21,0,0,0,.94.38A1.37,1.37,0,0,0,38.93,197.91Zm-1.68-3.49a1.45,1.45,0,0,0-.35,1h2.43a1.3,1.3,0,0,0-.33-.94,1.11,1.11,0,0,0-.86-.35A1.15,1.15,0,0,0,37.25,194.42Z"/><path class="cls-1" d="M51,198.07v1.29a1.72,1.72,0,0,1-.39.08l-.47,0a1.42,1.42,0,0,1-.87-.25,1.07,1.07,0,0,1-.42-.7,1.68,1.68,0,0,1-.78.7,2.63,2.63,0,0,1-1.21.26,2.18,2.18,0,0,1-1.52-.52,2.09,2.09,0,0,1,0-2.87,2.44,2.44,0,0,1,1.56-.58l1.19-.09a.94.94,0,0,0,.43-.12.5.5,0,0,0,.17-.45.69.69,0,0,0-.24-.57,1.07,1.07,0,0,0-.67-.2,1.35,1.35,0,0,0-.8.23.93.93,0,0,0-.37.63H44.88a2.23,2.23,0,0,1,.93-1.63,3.36,3.36,0,0,1,2-.59,2.7,2.7,0,0,1,2,.65,2.36,2.36,0,0,1,.67,1.79v2.5a.61.61,0,0,0,.07.32q.06.12.27.12Zm-2.27-1.56-1.39.11a1,1,0,0,0-.6.22.75.75,0,0,0-.2.54.69.69,0,0,0,.23.55,1,1,0,0,0,.64.19,1.28,1.28,0,0,0,1.32-1.33Z"/><path class="cls-1" d="M52.3,192.84h1.63l.14.83a1.93,1.93,0,0,1,.8-.68,2.47,2.47,0,0,1,1.13-.27,2.2,2.2,0,0,1,1.67.62,2.73,2.73,0,0,1,.6,1.94v4.08H56.51v-3.93a1.44,1.44,0,0,0-.28-.92,1,1,0,0,0-.81-.34,1.14,1.14,0,0,0-1,.46,2,2,0,0,0-.31,1.16v3.57H52.3Z"/><path class="cls-1" d="M67.41,197.25H64.56l-.66,2.11H62l3-9H67l3.08,9h-2ZM67,195.8l-1-3.19-1,3.19Z"/><path class="cls-1" d="M72.41,196.53a1.3,1.3,0,0,0,.44,1.06,1.81,1.81,0,0,0,1.2.36,1.64,1.64,0,0,0,1-.29.93.93,0,0,0,.37-.77.89.89,0,0,0-.25-.68,2,2,0,0,0-.75-.38l-1.35-.36c-1.53-.43-2.29-1.28-2.29-2.54a2.46,2.46,0,0,1,.4-1.41,2.55,2.55,0,0,1,1.13-.93,4.2,4.2,0,0,1,1.73-.34,4,4,0,0,1,1.67.33,2.56,2.56,0,0,1,1.13.94,2.46,2.46,0,0,1,.41,1.41H75.43a1,1,0,0,0-.37-.84,1.58,1.58,0,0,0-1-.3,1.46,1.46,0,0,0-.92.27.9.9,0,0,0-.35.75.75.75,0,0,0,.24.57,2.16,2.16,0,0,0,.82.38l1.33.37a3.29,3.29,0,0,1,1.73,1,2.62,2.62,0,0,1,.53,1.66,2.44,2.44,0,0,1-.44,1.45,2.68,2.68,0,0,1-1.22.93,4.35,4.35,0,0,1-1.74.32,4.29,4.29,0,0,1-1.86-.37,2.72,2.72,0,0,1-1.2-1,2.83,2.83,0,0,1-.42-1.55Z"/><path class="cls-1" d="M79,199.36v-9h1.86v9Z"/><path class="cls-1" d="M87.39,197.25H84.54l-.66,2.11H82l3-9H87l3.08,9H88ZM87,195.8l-1-3.19-1,3.19Z"/><path class="cls-1" d="M91,190.38h1.84v7.32h3.74v1.66H91Z"/><path class="cls-1" d="M109.06,190.38v9h-1.79v-2.17c0-1.8,0-3.05.11-3.75l-1.8,5.81h-1.73l-1.77-5.84c.07.87.11,2.13.11,3.78v2.17h-1.81v-9h2.29l2.07,6.74,2.06-6.74Z"/><path class="cls-1" d="M114.39,197.91a1,1,0,0,0,.42-.55h1.67a2.32,2.32,0,0,1-1,1.55,3.17,3.17,0,0,1-1.92.57,2.88,2.88,0,0,1-2.17-.86,3.51,3.51,0,0,1-.82-2.48,3.64,3.64,0,0,1,.81-2.51,2.82,2.82,0,0,1,2.22-.91,2.71,2.71,0,0,1,2.11.84,3.22,3.22,0,0,1,.77,2.26,4.23,4.23,0,0,1-.06.73h-4.11v.1a1.54,1.54,0,0,0,.34,1.08,1.21,1.21,0,0,0,.93.38A1.41,1.41,0,0,0,114.39,197.91Zm-1.69-3.49a1.44,1.44,0,0,0-.34,1h2.42a1.29,1.29,0,0,0-.32-.94,1.11,1.11,0,0,0-.86-.35A1.19,1.19,0,0,0,112.7,194.42Z"/><path class="cls-1" d="M126.71,193.36a2.54,2.54,0,0,1,.57,1.75v4.25h-1.77v-3.94c0-.83-.31-1.25-.94-1.25a1,1,0,0,0-.81.37,1.59,1.59,0,0,0-.28,1v3.83h-1.76v-3.92c0-.85-.32-1.27-1-1.27a1,1,0,0,0-.8.37,1.59,1.59,0,0,0-.28,1v3.83h-1.77v-6.52h1.55l.12.75a1.83,1.83,0,0,1,.73-.65,2.25,2.25,0,0,1,1-.22,1.94,1.94,0,0,1,1.1.31,1.73,1.73,0,0,1,.68.83,2,2,0,0,1,.82-.84,2.42,2.42,0,0,1,1.19-.3A2,2,0,0,1,126.71,193.36Z"/><path class="cls-1" d="M134.15,193.2a2.71,2.71,0,0,1,.95,1.17,4.44,4.44,0,0,1,.33,1.77,4.25,4.25,0,0,1-.34,1.78,2.64,2.64,0,0,1-1,1.16,2.69,2.69,0,0,1-1.48.4,2.52,2.52,0,0,1-1.15-.25,1.8,1.8,0,0,1-.76-.68l-.11.81h-1.55v-9.29h1.76v3.65a1.81,1.81,0,0,1,.78-.69,2.44,2.44,0,0,1,1.13-.25A2.48,2.48,0,0,1,134.15,193.2Zm-.9,4.33a2.71,2.71,0,0,0,0-2.8,1.22,1.22,0,0,0-1-.51,1.29,1.29,0,0,0-1,.45,1.87,1.87,0,0,0-.4,1.23v.45a1.92,1.92,0,0,0,.4,1.24,1.3,1.3,0,0,0,1,.46A1.23,1.23,0,0,0,133.25,197.53Z"/><path class="cls-1" d="M140.2,197.91a.93.93,0,0,0,.42-.55h1.67a2.31,2.31,0,0,1-.94,1.55,3.22,3.22,0,0,1-1.93.57,2.88,2.88,0,0,1-2.17-.86,3.51,3.51,0,0,1-.81-2.48,3.64,3.64,0,0,1,.81-2.51,2.79,2.79,0,0,1,2.21-.91,2.74,2.74,0,0,1,2.12.84,3.22,3.22,0,0,1,.76,2.26,4.23,4.23,0,0,1-.06.73h-4.11v.1a1.54,1.54,0,0,0,.34,1.08,1.21,1.21,0,0,0,.94.38A1.4,1.4,0,0,0,140.2,197.91Zm-1.68-3.49a1.45,1.45,0,0,0-.35,1h2.43a1.3,1.3,0,0,0-.33-.94,1.11,1.11,0,0,0-.86-.35A1.15,1.15,0,0,0,138.52,194.42Z"/><path class="cls-1" d="M147.56,192.83v1.55a1.66,1.66,0,0,0-.42,0,1.4,1.4,0,0,0-1.28.53,2.36,2.36,0,0,0-.34,1.32v3.17h-1.78v-6.52h1.55l.15.87A1.32,1.32,0,0,1,146,193a1.91,1.91,0,0,1,1-.26A2.64,2.64,0,0,1,147.56,192.83Z"/></svg>