<svg id="Layer_1" data-name="Layer 1" xmlns="http://www.w3.org/2000/svg" viewBox="0 0 300 250"><defs><style>.cls-1{fill:#fff;}</style></defs><path class="cls-1" d="M31.57,179l-2.28-2.5a5.81,5.81,0,0,1-2.66.6,5.71,5.71,0,0,1-3.27-.93,5.91,5.91,0,0,1-2.13-2.62,9.57,9.57,0,0,1-.74-3.91,9.42,9.42,0,0,1,.78-4,5.65,5.65,0,0,1,5.36-3.44,5.7,5.7,0,0,1,3.26.93A6,6,0,0,1,32,165.74a9.66,9.66,0,0,1,.74,3.9,10.21,10.21,0,0,1-.55,3.46,6.32,6.32,0,0,1-1.57,2.46l2.16,2.32Zm-8.1-5a3.86,3.86,0,0,0,3.16,1.49,3.72,3.72,0,0,0,3.21-1.59A7.27,7.27,0,0,0,31,169.64a8.27,8.27,0,0,0-.56-3.23,4.3,4.3,0,0,0-1.54-2,3.92,3.92,0,0,0-2.24-.65,3.73,3.73,0,0,0-3.23,1.57,7.12,7.12,0,0,0-1.13,4.27A6.85,6.85,0,0,0,23.47,174Z"/><path class="cls-1" d="M35.87,162.4h1.66v9.2a4.25,4.25,0,0,0,.89,2.89,3.72,3.72,0,0,0,2.95,1,3.84,3.84,0,0,0,2.9-1,4.14,4.14,0,0,0,.94-2.93v-9.2h1.66v9.32a6.06,6.06,0,0,1-.64,2.83,4.6,4.6,0,0,1-1.88,1.88,7,7,0,0,1-6,0,4.48,4.48,0,0,1-1.88-1.88,5.94,5.94,0,0,1-.64-2.83Z"/><path class="cls-1" d="M57.57,172.84h-5.7l-1.38,4.06H48.71l5.12-14.5h1.76l5.18,14.5H58.93Zm-.5-1.48-2.34-7-2.36,7Z"/><path class="cls-1" d="M63.13,162.4h1.66v12.92H71v1.58h-7.9Z"/><path class="cls-1" d="M73.63,176.9V162.4h1.68v14.5Z"/><path class="cls-1" d="M88.15,163.88H83.83v13H82.19v-13H77.85V162.4h10.3Z"/><path class="cls-1" d="M90.57,162.4l3.72,7.26L98,162.4h1.9l-4.76,8.88v5.62h-1.7v-5.62l-4.74-8.88Z"/><path class="cls-1" d="M119.17,162.4v14.5h-1.64v-5q0-4.31.18-6.1l-4.12,11H112l-4.12-11q.18,1.8.18,6.1v5h-1.62V162.4h1.62l4.72,12.48,4.72-12.48Z"/><path class="cls-1" d="M130.43,172.84h-5.7l-1.38,4.06h-1.79l5.13-14.5h1.75l5.19,14.5h-1.84Zm-.5-1.48-2.34-7-2.36,7Z"/><path class="cls-1" d="M143.15,163.88h-4.32v13h-1.64v-13h-4.34V162.4h10.3Z"/><path class="cls-1" d="M154.71,163.88h-4.32v13h-1.64v-13h-4.34V162.4h10.3Z"/><path class="cls-1" d="M157.25,162.4h9.38V164h-7.72v4.94h5.72v1.48h-5.72v4.94h7.72v1.58h-9.38Z"/><path class="cls-1" d="M180.5,176.9h-1.85l-2.8-5.74h-4.27v5.74h-1.66V162.4h5.48a5.84,5.84,0,0,1,2.87.63,3.94,3.94,0,0,1,1.63,1.63,4.85,4.85,0,0,1-.19,4.71,3.75,3.75,0,0,1-2.15,1.55Zm-2.56-8a2.85,2.85,0,0,0,.79-2.11,2.66,2.66,0,0,0-.85-2.13,3.46,3.46,0,0,0-2.36-.73h-3.94v5.74h3.94A3.36,3.36,0,0,0,177.94,168.91Z"/><path class="cls-1" d="M184.26,172.5a2.83,2.83,0,0,0,1,2.31,4.18,4.18,0,0,0,2.7.79,3.85,3.85,0,0,0,2.39-.68,2.42,2.42,0,0,0,.3-3.46,3.93,3.93,0,0,0-1.75-.88L186.8,170c-2.53-.7-3.8-2-3.8-3.86a3.66,3.66,0,0,1,2.22-3.46,6,6,0,0,1,2.56-.5,5.44,5.44,0,0,1,3.55,1.11,3.78,3.78,0,0,1,1.39,3.09h-1.66a2.56,2.56,0,0,0-.91-2,3.58,3.58,0,0,0-2.39-.75,3.35,3.35,0,0,0-2.18.64,2.11,2.11,0,0,0-.78,1.74,1.86,1.86,0,0,0,.64,1.49,5.44,5.44,0,0,0,2,.89l2,.56a5,5,0,0,1,2.71,1.52A3.83,3.83,0,0,1,193,173a3.76,3.76,0,0,1-.62,2.11,4.22,4.22,0,0,1-1.8,1.45,7.23,7.23,0,0,1-5.53-.06,4.27,4.27,0,0,1-1.81-1.62,4.66,4.66,0,0,1-.61-2.4Z"/></svg>