<svg id="Layer_1" data-name="Layer 1" xmlns="http://www.w3.org/2000/svg" viewBox="0 0 300 250"><defs><style>.cls-1{fill:#fff;}</style></defs><path class="cls-1" d="M38.89,123.4,36,137.9H31.55l-.44-1.74c-.42-1.6-.76-3-1-4.13s-.54-2.44-.79-3.85c-.27,1.46-.54,2.82-.81,4.06s-.61,2.61-1,4.12l-.38,1.54H22.63l-2.9-14.5h3.58L25,134,26.67,127l.86-3.58H31l.22.84q1.92,7.59,2.46,9.82l1.56-10.66Z"/><path class="cls-1" d="M40.89,123.4h3.28v5.82h5.34V123.4h3.3v14.5h-3.3v-6.08H44.17v6.08H40.89Z"/><path class="cls-1" d="M56,123.4h9.76v2.82H59.25v3.12h4.56V132H59.25v3.06h6.48v2.84H56Z"/><path class="cls-1" d="M80.19,123.4v14.5H76.93l-5.58-9v9H68.11V123.4h3.24l5.58,9.1v-9.1Z"/><path class="cls-1" d="M87.75,137.9V123.4h3.3v14.5Z"/><path class="cls-1" d="M103.87,126.22H100V137.9H96.69V126.22H92.85V123.4h11Z"/></svg>