<svg xmlns="http://www.w3.org/2000/svg" viewBox="0 0 112.55 24.2"><defs><style>.cls-1{fill:#f6931d;}.cls-2{fill:#fff;}</style></defs><g id="Layer_2" data-name="Layer 2"><g id="Layer_1-2" data-name="Layer 1"><rect class="cls-1" width="112.55" height="24.2" rx="12.1"/><path class="cls-2" d="M28.22,14.41v1.22a1.75,1.75,0,0,1-.36.07l-.43,0a1.35,1.35,0,0,1-.82-.24,1,1,0,0,1-.38-.66,1.7,1.7,0,0,1-.73.67,2.52,2.52,0,0,1-1.12.24A2,2,0,0,1,23,15.25a1.81,1.81,0,0,1-.53-1.36A1.77,1.77,0,0,1,23,12.54,2.26,2.26,0,0,1,24.41,12l1.1-.09a.73.73,0,0,0,.41-.11.49.49,0,0,0,.16-.42.65.65,0,0,0-.23-.54.94.94,0,0,0-.62-.19,1.16,1.16,0,0,0-.74.22.88.88,0,0,0-.35.59H22.52a2.15,2.15,0,0,1,.87-1.54,3.07,3.07,0,0,1,1.89-.56,2.49,2.49,0,0,1,1.84.62,2.28,2.28,0,0,1,.62,1.69V14a.61.61,0,0,0,.06.3c0,.08.13.11.26.11Zm-2.11-1.48L24.82,13a.87.87,0,0,0-.55.21.66.66,0,0,0-.19.5.64.64,0,0,0,.21.52.87.87,0,0,0,.59.19,1.18,1.18,0,0,0,.89-.36,1.25,1.25,0,0,0,.34-.9Z"/><path class="cls-2" d="M30.75,14.3a1,1,0,0,0,.67.2.93.93,0,0,0,.6-.17.52.52,0,0,0,.22-.44.42.42,0,0,0-.15-.37,1.77,1.77,0,0,0-.39-.19L30.64,13a2.66,2.66,0,0,1-1.21-.68A1.53,1.53,0,0,1,29,11.27a1.73,1.73,0,0,1,.3-1,1.91,1.91,0,0,1,.82-.68,2.92,2.92,0,0,1,1.22-.24,2.78,2.78,0,0,1,1.73.52,1.71,1.71,0,0,1,.67,1.4H32.13a.61.61,0,0,0-.21-.5.81.81,0,0,0-.55-.18.87.87,0,0,0-.54.16.52.52,0,0,0-.19.42.43.43,0,0,0,.17.37,2.38,2.38,0,0,0,.51.21l1.15.31a1.94,1.94,0,0,1,1.06.65,1.76,1.76,0,0,1,.37,1.1,1.67,1.67,0,0,1-.68,1.41,3.4,3.4,0,0,1-3.63,0,1.77,1.77,0,0,1-.71-1.44H30.5A.69.69,0,0,0,30.75,14.3Z"/><path class="cls-2" d="M35.05,6.91H37V8.48H35.05Zm.15,2.56h1.64v6.16H35.2Z"/><path class="cls-2" d="M43.88,14.41v1.22a1.75,1.75,0,0,1-.36.07l-.44,0a1.3,1.3,0,0,1-.81-.24,1,1,0,0,1-.38-.66,1.7,1.7,0,0,1-.73.67,2.57,2.57,0,0,1-1.13.24,2,2,0,0,1-1.41-.49,1.77,1.77,0,0,1-.53-1.36,1.73,1.73,0,0,1,.53-1.35A2.24,2.24,0,0,1,40.07,12l1.1-.09a.7.7,0,0,0,.4-.11.46.46,0,0,0,.17-.42.65.65,0,0,0-.23-.54,1,1,0,0,0-.63-.19,1.13,1.13,0,0,0-.73.22.88.88,0,0,0-.35.59H38.18A2.14,2.14,0,0,1,39,9.91a3.1,3.1,0,0,1,1.9-.56,2.49,2.49,0,0,1,1.84.62,2.28,2.28,0,0,1,.61,1.69V14a.51.51,0,0,0,.07.3c0,.08.13.11.26.11Zm-2.11-1.48L40.48,13a.92.92,0,0,0-.56.21.7.7,0,0,0-.19.5.65.65,0,0,0,.22.52.85.85,0,0,0,.59.19,1.2,1.2,0,0,0,.89-.36,1.25,1.25,0,0,0,.34-.9Z"/><path class="cls-2" d="M45,6.85h1.66v8.78H45Z"/><path class="cls-2" d="M48.37,14h1.8v1.67h-1.8Z"/><path class="cls-2" d="M51.56,10.85a2.61,2.61,0,0,1,1-1.11,2.91,2.91,0,0,1,1.52-.39,2.77,2.77,0,0,1,1.3.3,2.35,2.35,0,0,1,.93.81,2.54,2.54,0,0,1,.42,1.22H55.08a1,1,0,0,0-.35-.7,1.05,1.05,0,0,0-.71-.26,1,1,0,0,0-.85.45,2.43,2.43,0,0,0-.31,1.38,2.43,2.43,0,0,0,.31,1.38,1.07,1.07,0,0,0,1.56.18,1,1,0,0,0,.35-.68h1.67a2.36,2.36,0,0,1-.84,1.68,2.87,2.87,0,0,1-1.9.63,2.77,2.77,0,0,1-1.48-.38,2.5,2.5,0,0,1-1-1.09,3.78,3.78,0,0,1-.35-1.71A3.68,3.68,0,0,1,51.56,10.85Z"/><path class="cls-2" d="M57.84,10.89a2.64,2.64,0,0,1,1-1.13,2.95,2.95,0,0,1,3,0,2.64,2.64,0,0,1,1,1.13,3.7,3.7,0,0,1,.36,1.67,3.52,3.52,0,0,1-.37,1.67,2.65,2.65,0,0,1-1,1.11,3,3,0,0,1-3,0,2.65,2.65,0,0,1-1-1.11,3.52,3.52,0,0,1-.37-1.67A3.7,3.7,0,0,1,57.84,10.89Zm1.63,3a1,1,0,0,0,.88.45,1,1,0,0,0,.89-.48,2.4,2.4,0,0,0,.31-1.33,2.41,2.41,0,0,0-.32-1.37,1,1,0,0,0-.88-.46,1,1,0,0,0-.89.48,2.54,2.54,0,0,0-.31,1.35A2.37,2.37,0,0,0,59.47,13.91Z"/><path class="cls-2" d="M72.54,10a2.46,2.46,0,0,1,.53,1.65v4H71.43V11.9c0-.78-.3-1.18-.88-1.18a.9.9,0,0,0-.75.35,1.59,1.59,0,0,0-.26.94v3.62H67.9v-3.7c0-.81-.29-1.21-.88-1.21a.88.88,0,0,0-.74.35A1.52,1.52,0,0,0,66,12v3.62H64.37V9.47h1.44l.11.7a1.74,1.74,0,0,1,.68-.61,2.11,2.11,0,0,1,.93-.21,1.75,1.75,0,0,1,1,.3,1.51,1.51,0,0,1,.63.78A1.89,1.89,0,0,1,70,9.64a2.19,2.19,0,0,1,1.11-.29A1.89,1.89,0,0,1,72.54,10Z"/><path class="cls-2" d="M74.48,14h1.8v1.67h-1.8Z"/><path class="cls-2" d="M83.26,14.41v1.22a1.75,1.75,0,0,1-.36.07l-.43,0a1.35,1.35,0,0,1-.82-.24,1,1,0,0,1-.38-.66,1.7,1.7,0,0,1-.73.67,2.52,2.52,0,0,1-1.12.24A2,2,0,0,1,78,15.25a1.81,1.81,0,0,1-.53-1.36A1.77,1.77,0,0,1,78,12.54,2.26,2.26,0,0,1,79.45,12l1.1-.09a.73.73,0,0,0,.41-.11.49.49,0,0,0,.16-.42.65.65,0,0,0-.23-.54.94.94,0,0,0-.62-.19,1.16,1.16,0,0,0-.74.22.88.88,0,0,0-.35.59H77.56a2.15,2.15,0,0,1,.87-1.54,3.07,3.07,0,0,1,1.89-.56,2.49,2.49,0,0,1,1.84.62,2.28,2.28,0,0,1,.62,1.69V14a.61.61,0,0,0,.06.3c0,.08.13.11.26.11Zm-2.11-1.48L79.86,13a.87.87,0,0,0-.55.21.66.66,0,0,0-.19.5.64.64,0,0,0,.21.52.87.87,0,0,0,.59.19,1.18,1.18,0,0,0,.89-.36,1.25,1.25,0,0,0,.34-.9Z"/><path class="cls-2" d="M89.71,9.47v6.16H88.26l-.13-.88a1.64,1.64,0,0,1-.71.72,2.33,2.33,0,0,1-1.13.27,2,2,0,0,1-1.52-.62,2.4,2.4,0,0,1-.57-1.67v-4h1.65v3.68a1.42,1.42,0,0,0,.25.89,1,1,0,0,0,.8.33,1,1,0,0,0,.87-.38,1.64,1.64,0,0,0,.29-1V9.47Z"/></g></g></svg>