<svg id="Layer_1" data-name="Layer 1" xmlns="http://www.w3.org/2000/svg" viewBox="0 0 300 250"><defs><style>.cls-1{fill:#007cc3;}.cls-2{fill:#bcbec0;}.cls-3{fill:#00285e;}</style></defs><path class="cls-1" d="M225.57,209.91h5l6.4,15.3H231.5l-.81-2h-5.31l-.79,2h-5.42Zm3.86,9.65-1.38-3.69-1.39,3.69Z"/><path class="cls-1" d="M253.35,210h5.07v15.2h-5.07Z"/><path class="cls-1" d="M265.89,209.91h5l6.4,15.3h-5.52l-.8-2h-5.32l-.78,2h-5.42Zm3.86,9.65-1.39-3.69L267,219.56Z"/><polygon class="cls-1" points="290.62 220.87 283.39 220.87 283.39 210.01 278.31 210.01 278.31 225.21 288.9 225.21 290.62 220.87"/><path class="cls-1" d="M237.33,222.93l2.71-3.24a8.71,8.71,0,0,0,5.32,1.78c.91,0,1.3-.24,1.3-.65v0c0-.44-.48-.67-2.11-1-3.4-.69-6.4-1.67-6.4-4.88v-.05c0-2.88,2.26-5.12,6.45-5.12a10.53,10.53,0,0,1,6.85,2.08L249,215.24a8,8,0,0,0-4.56-1.49c-.76,0-1.1.26-1.1.63v0c0,.41.41.67,2,1,3.89.71,6.49,1.84,6.49,4.9v0c0,3.19-2.62,5.15-6.7,5.15A11.75,11.75,0,0,1,237.33,222.93Z"/><path class="cls-2" d="M269.67,191.64c1.86,2.39,2.58,4.79,1.75,6.73-1.81,4.24-10.37,4.66-19.12.92s-14.38-10.21-12.57-14.45c.76-1.79,2.73-2.9,5.4-3.3-4.3.11-7.54,1.48-8.64,4.07-2.12,5,4.4,12.5,14.57,16.84s20.12,3.84,22.24-1.13C274.48,198.56,273,195,269.67,191.64Z"/><polygon class="cls-3" points="261.07 179.26 259.97 182.62 257.7 182.12 257.7 179.26 254.67 179.26 244.38 185.92 248 193.85 254.91 191.87 260.91 196.01 264.83 195.36 267.6 189.44 261.07 179.26"/><polygon class="cls-3" points="262.43 198.76 263.55 198.96 264.4 196.59 262.09 196.98 262.43 198.76"/><path class="cls-3" d="M223.41,234h-.93l-.21.68h-.63l1-2.91h.67l1,2.91h-.66Zm-.14-.47-.32-1-.32,1Z"/><path class="cls-3" d="M224.42,231.72h.6v1.81a.61.61,0,0,0,.16.44.55.55,0,0,0,.44.16.58.58,0,0,0,.43-.15.64.64,0,0,0,.15-.45v-1.81h.6v1.81a1.21,1.21,0,0,1-.15.62,1,1,0,0,1-.41.39,1.39,1.39,0,0,1-.63.13,1.32,1.32,0,0,1-.62-.13,1,1,0,0,1-.42-.39,1.21,1.21,0,0,1-.15-.62Z"/><path class="cls-3" d="M227.76,233.72a.43.43,0,0,0,.14.34.62.62,0,0,0,.39.11.54.54,0,0,0,.33-.09.3.3,0,0,0,.12-.25.31.31,0,0,0-.08-.22.65.65,0,0,0-.25-.12l-.43-.12c-.5-.14-.75-.41-.75-.82a.79.79,0,0,1,.5-.76,1.4,1.4,0,0,1,.56-.11,1.33,1.33,0,0,1,.54.11.85.85,0,0,1,.37.3.78.78,0,0,1,.13.46h-.59a.32.32,0,0,0-.12-.27.57.57,0,0,0-.63,0,.29.29,0,0,0-.11.24.25.25,0,0,0,.08.18.69.69,0,0,0,.26.13l.44.12a1,1,0,0,1,.55.32.84.84,0,0,1,.18.54.78.78,0,0,1-.15.47.85.85,0,0,1-.39.3,1.47,1.47,0,0,1-.56.1,1.41,1.41,0,0,1-.61-.12.91.91,0,0,1-.39-.33.93.93,0,0,1-.13-.5Z"/><path class="cls-3" d="M231.75,232.24H231v2.39h-.6v-2.39h-.8v-.52h2.19Z"/><path class="cls-3" d="M234.21,233.2a.82.82,0,0,1-.39.32l.51,1.11h-.63l-.46-1h-.57v1h-.6v-2.91h1.22a1.31,1.31,0,0,1,.58.12.84.84,0,0,1,.36.34,1,1,0,0,1,.12.5A1,1,0,0,1,234.21,233.2Zm-.63-.18a.4.4,0,0,0,.14-.32.42.42,0,0,0-.14-.34.61.61,0,0,0-.38-.11h-.53v.88h.53A.61.61,0,0,0,233.58,233Z"/><path class="cls-3" d="M236.32,234h-.92l-.22.68h-.62l1-2.91h.67l1,2.91h-.66Zm-.14-.47-.32-1-.32,1Z"/><path class="cls-3" d="M237.46,231.72h.6v2.37h1.21v.54h-1.81Z"/><path class="cls-3" d="M239.59,234.63v-2.91h.61v2.91Z"/><path class="cls-3" d="M242.27,234h-.93l-.21.68h-.62l1-2.91h.68l1,2.91h-.65Zm-.14-.47-.32-1-.32,1Z"/><path class="cls-3" d="M245.8,231.72v2.91h-.59l-1.18-1.9v1.9h-.59v-2.91H244l1.18,1.91v-1.91Z"/><path class="cls-3" d="M248.19,233.72a.4.4,0,0,0,.14.34.62.62,0,0,0,.39.11.53.53,0,0,0,.32-.09.3.3,0,0,0,.12-.25.27.27,0,0,0-.08-.22.54.54,0,0,0-.24-.12l-.44-.12c-.49-.14-.74-.41-.74-.82a.78.78,0,0,1,.13-.46.8.8,0,0,1,.37-.3,1.43,1.43,0,0,1,1.1,0,.77.77,0,0,1,.36.3.78.78,0,0,1,.14.46h-.6a.32.32,0,0,0-.12-.27.47.47,0,0,0-.32-.1.45.45,0,0,0-.3.09.27.27,0,0,0-.11.24.24.24,0,0,0,.07.18.67.67,0,0,0,.27.13l.43.12a1.08,1.08,0,0,1,.56.32.89.89,0,0,1,.17.54.84.84,0,0,1-.14.47,1,1,0,0,1-.39.3,1.48,1.48,0,0,1-.57.1,1.4,1.4,0,0,1-.6-.12.91.91,0,0,1-.39-.33.94.94,0,0,1-.14-.5Z"/><path class="cls-3" d="M250.24,231.72h1.95v.52h-1.34v.69h1v.49h-1v.69h1.34v.52h-1.95Z"/><path class="cls-3" d="M252.57,232.37a1.17,1.17,0,0,1,.47-.51,1.35,1.35,0,0,1,.7-.18,1.33,1.33,0,0,1,.61.13,1,1,0,0,1,.42.35,1.13,1.13,0,0,1,.19.54h-.64a.53.53,0,0,0-.19-.36.6.6,0,0,0-.4-.13.56.56,0,0,0-.51.25,1.22,1.22,0,0,0-.18.71,1.2,1.2,0,0,0,.18.71.65.65,0,0,0,.91.13.53.53,0,0,0,.19-.36H255a1.06,1.06,0,0,1-.19.53,1,1,0,0,1-.43.36,1.29,1.29,0,0,1-.6.13,1.35,1.35,0,0,1-.7-.18,1.17,1.17,0,0,1-.47-.51,2.11,2.11,0,0,1,0-1.61Z"/><path class="cls-3" d="M255.32,231.72h.6v1.81a.6.6,0,0,0,.15.44.57.57,0,0,0,.44.16.58.58,0,0,0,.43-.15.64.64,0,0,0,.15-.45v-1.81h.6v1.81a1.21,1.21,0,0,1-.15.62.91.91,0,0,1-.41.39,1.39,1.39,0,0,1-.63.13,1.38,1.38,0,0,1-.62-.13,1,1,0,0,1-.42-.39,1.32,1.32,0,0,1-.14-.62Z"/><path class="cls-3" d="M260.37,233.2a.77.77,0,0,1-.39.32l.52,1.11h-.64l-.45-1h-.57v1h-.6v-2.91h1.21a1.28,1.28,0,0,1,.58.12.79.79,0,0,1,.36.34,1,1,0,0,1,.13.5A.89.89,0,0,1,260.37,233.2Zm-.62-.18a.39.39,0,0,0,.13-.32.41.41,0,0,0-.13-.34.61.61,0,0,0-.38-.11h-.53v.88h.53A.61.61,0,0,0,259.75,233Z"/><path class="cls-3" d="M261,234.63v-2.91h.6v2.91Z"/><path class="cls-3" d="M264.06,232.24h-.8v2.39h-.6v-2.39h-.79v-.52h2.19Z"/><path class="cls-3" d="M264.92,231.72l.6,1.18.59-1.18h.72l-1,1.82v1.09h-.61v-1.09l-1-1.82Z"/><path class="cls-3" d="M268.48,234.63v-2.91h.61v2.91Z"/><path class="cls-3" d="M272,231.72v2.91h-.6l-1.18-1.9v1.9h-.59v-2.91h.59l1.18,1.91v-1.91Z"/><path class="cls-3" d="M272.62,231.72h1.07a1.63,1.63,0,0,1,.78.18,1.34,1.34,0,0,1,.52.51,1.59,1.59,0,0,1,.18.77,1.55,1.55,0,0,1-.18.76,1.34,1.34,0,0,1-.52.51,1.63,1.63,0,0,1-.78.18h-1.07Zm1,2.39a.93.93,0,0,0,.68-.25,1,1,0,0,0,.24-.69.86.86,0,0,0-.92-.93h-.41v1.87Z"/><path class="cls-3" d="M275.55,231.72h.6v1.81a.6.6,0,0,0,.15.44.57.57,0,0,0,.44.16.6.6,0,0,0,.44-.15.64.64,0,0,0,.15-.45v-1.81h.6v1.81a1.21,1.21,0,0,1-.15.62,1,1,0,0,1-.42.39,1.54,1.54,0,0,1-1.24,0,1,1,0,0,1-.42-.39,1.21,1.21,0,0,1-.15-.62Z"/><path class="cls-3" d="M278.89,233.72a.43.43,0,0,0,.14.34.62.62,0,0,0,.39.11.56.56,0,0,0,.33-.09.3.3,0,0,0,.12-.25.31.31,0,0,0-.08-.22.65.65,0,0,0-.25-.12l-.43-.12c-.5-.14-.75-.41-.75-.82a.79.79,0,0,1,.5-.76,1.36,1.36,0,0,1,.56-.11,1.33,1.33,0,0,1,.54.11.85.85,0,0,1,.37.3.78.78,0,0,1,.13.46h-.59a.32.32,0,0,0-.12-.27.5.5,0,0,0-.33-.1.49.49,0,0,0-.3.09.29.29,0,0,0-.11.24.25.25,0,0,0,.08.18.69.69,0,0,0,.26.13l.43.12a1,1,0,0,1,.56.32.84.84,0,0,1,.18.54.78.78,0,0,1-.15.47.85.85,0,0,1-.39.3,1.47,1.47,0,0,1-.56.1,1.41,1.41,0,0,1-.61-.12.91.91,0,0,1-.39-.33.93.93,0,0,1-.13-.5Z"/><path class="cls-3" d="M282.88,232.24h-.79v2.39h-.61v-2.39h-.79v-.52h2.19Z"/><path class="cls-3" d="M285.34,233.2a.84.84,0,0,1-.4.32l.52,1.11h-.64l-.45-1h-.57v1h-.6v-2.91h1.21a1.25,1.25,0,0,1,.58.12.87.87,0,0,1,.37.34,1,1,0,0,1,.12.5A1,1,0,0,1,285.34,233.2Zm-.63-.18a.39.39,0,0,0,.13-.32.41.41,0,0,0-.13-.34.61.61,0,0,0-.38-.11h-.53v.88h.53A.61.61,0,0,0,284.71,233Z"/><path class="cls-3" d="M286.23,231.72l.6,1.18.58-1.18h.73l-1,1.82v1.09h-.61v-1.09l-1-1.82Z"/><path class="cls-3" d="M235.39,239h-.93l-.21.69h-.62l1-2.92h.67l1,2.92h-.66Zm-.14-.47-.32-1-.32,1Z"/><path class="cls-3" d="M237,238.8a.43.43,0,0,0,.14.34.61.61,0,0,0,.39.12.48.48,0,0,0,.33-.1.29.29,0,0,0,.12-.24.26.26,0,0,0-.08-.22.5.5,0,0,0-.24-.13l-.44-.12c-.49-.13-.74-.41-.74-.82a.77.77,0,0,1,.13-.45.85.85,0,0,1,.36-.31,1.4,1.4,0,0,1,.56-.11,1.35,1.35,0,0,1,.55.11.8.8,0,0,1,.49.76h-.59a.34.34,0,0,0-.12-.27.54.54,0,0,0-.33-.1.44.44,0,0,0-.29.09.29.29,0,0,0-.12.24.26.26,0,0,0,.08.19.69.69,0,0,0,.27.12l.43.12a1,1,0,0,1,.56.33.84.84,0,0,1,.17.53.82.82,0,0,1-.14.47.87.87,0,0,1-.4.3,1.52,1.52,0,0,1-1.16,0,.87.87,0,0,1-.39-.34.92.92,0,0,1-.14-.5Z"/><path class="cls-3" d="M239.45,238.8a.43.43,0,0,0,.14.34.61.61,0,0,0,.39.12.48.48,0,0,0,.33-.1.29.29,0,0,0,.12-.24.29.29,0,0,0-.08-.22.55.55,0,0,0-.24-.13l-.44-.12c-.5-.13-.74-.41-.74-.82a.84.84,0,0,1,.12-.45,1,1,0,0,1,.37-.31,1.4,1.4,0,0,1,.56-.11,1.27,1.27,0,0,1,.54.11.85.85,0,0,1,.37.3.82.82,0,0,1,.13.46h-.59a.34.34,0,0,0-.12-.27.54.54,0,0,0-.33-.1.44.44,0,0,0-.29.09.29.29,0,0,0-.12.24.26.26,0,0,0,.08.19.7.7,0,0,0,.26.12l.44.12a1.06,1.06,0,0,1,.56.33.84.84,0,0,1,.17.53.82.82,0,0,1-.14.47.87.87,0,0,1-.4.3,1.55,1.55,0,0,1-1.17,0,.87.87,0,0,1-.39-.34.91.91,0,0,1-.13-.5Z"/><path class="cls-3" d="M241.52,237.45a1.2,1.2,0,0,1,.46-.51,1.37,1.37,0,0,1,1.36,0,1.11,1.11,0,0,1,.46.52,2,2,0,0,1,0,1.6,1.17,1.17,0,0,1-.46.52,1.27,1.27,0,0,1-1.83-.52,1.81,1.81,0,0,1-.16-.8A1.73,1.73,0,0,1,241.52,237.45Zm.65,1.52a.59.59,0,0,0,1,0,1.22,1.22,0,0,0,.18-.71,1.18,1.18,0,0,0-.18-.71.6.6,0,0,0-1,0,1.22,1.22,0,0,0-.18.71A1.11,1.11,0,0,0,242.17,239Z"/><path class="cls-3" d="M244.43,237.45a1.22,1.22,0,0,1,.47-.51,1.38,1.38,0,0,1,.7-.18,1.48,1.48,0,0,1,.61.13,1,1,0,0,1,.42.36,1.06,1.06,0,0,1,.19.53h-.64a.58.58,0,0,0-.19-.36.65.65,0,0,0-.39-.13.57.57,0,0,0-.52.26,1.57,1.57,0,0,0,0,1.42.57.57,0,0,0,.52.26.61.61,0,0,0,.39-.13.58.58,0,0,0,.19-.36h.64a1.09,1.09,0,0,1-.19.53,1.17,1.17,0,0,1-.43.36,1.4,1.4,0,0,1-.6.13,1.38,1.38,0,0,1-.7-.18,1.19,1.19,0,0,1-.47-.52,1.78,1.78,0,0,1-.16-.8A1.86,1.86,0,0,1,244.43,237.45Z"/><path class="cls-3" d="M247.23,239.72V236.8h.61v2.92Z"/><path class="cls-3" d="M249.91,239H249l-.21.69h-.62l.95-2.92h.67l1,2.92h-.65Zm-.14-.47-.32-1-.32,1Z"/><path class="cls-3" d="M252.72,237.32h-.79v2.4h-.6v-2.4h-.79v-.52h2.18Z"/><path class="cls-3" d="M253,239.72V236.8h.6v2.92Z"/><path class="cls-3" d="M254.26,237.45a1.2,1.2,0,0,1,.46-.51,1.28,1.28,0,0,1,.68-.18,1.31,1.31,0,0,1,.69.18,1.17,1.17,0,0,1,.46.52,2.08,2.08,0,0,1,0,1.6,1.19,1.19,0,0,1-.47.52,1.37,1.37,0,0,1-1.36,0,1.23,1.23,0,0,1-.46-.52,1.81,1.81,0,0,1-.17-.8A1.86,1.86,0,0,1,254.26,237.45Zm.65,1.52a.6.6,0,0,0,1,0,1.22,1.22,0,0,0,.18-.71,1.11,1.11,0,0,0-.19-.71.57.57,0,0,0-.49-.26.56.56,0,0,0-.49.26,1.22,1.22,0,0,0-.18.71A1.18,1.18,0,0,0,254.91,239Z"/><path class="cls-3" d="M259.52,236.8v2.92h-.59l-1.18-1.91v1.91h-.59V236.8h.59l1.18,1.92V236.8Z"/><path class="cls-3" d="M260.93,236.8h.6v2.38h1.21v.54h-1.81Z"/><path class="cls-3" d="M263.06,239.72V236.8h.6v2.92Z"/><path class="cls-3" d="M267.06,236.8v2.92h-.58V239a11.1,11.1,0,0,1,0-1.21l-.59,1.88h-.56l-.57-1.89c0,.28,0,.69,0,1.22v.71h-.58V236.8H265l.67,2.19.67-2.19Z"/><path class="cls-3" d="M267.65,239.72V236.8h.6v2.92Z"/><path class="cls-3" d="M270.75,237.32H270v2.4h-.6v-2.4h-.79v-.52h2.18Z"/><path class="cls-3" d="M271.07,236.8H273v.53h-1.35V238h1v.49h-1v.68H273v.53h-1.95Z"/><path class="cls-3" d="M273.45,236.8h1.06a1.5,1.5,0,0,1,.78.19,1.28,1.28,0,0,1,.52.51,1.55,1.55,0,0,1,.18.76,1.53,1.53,0,0,1-.18.76,1.28,1.28,0,0,1-.52.51,1.61,1.61,0,0,1-.78.19h-1.06Zm1,2.39a.88.88,0,0,0,.67-.25,1,1,0,0,0,.25-.69.85.85,0,0,0-.92-.92H274v1.86Z"/></svg>