<svg xmlns="http://www.w3.org/2000/svg" viewBox="0 0 140.35 25.68"><defs><style>.cls-1{fill:#fff;}</style></defs><title>copy3-s2</title><g id="Layer_2" data-name="Layer 2"><g id="Overlays"><path class="cls-1" d="M3.74.58h1L8.3,9.07H7.12L6.26,7H2L1.14,9.07H0ZM4.2,1.87h0L2.41,6H5.88Z"/><path class="cls-1" d="M13.93,8.07h0a2.44,2.44,0,0,1-2.16,1.14,2.83,2.83,0,0,1-2.81-3,2.83,2.83,0,0,1,3-2.95,2.61,2.61,0,0,1,2,1h0V0h.93V9.07h-.93Zm-2-3.9a2,2,0,0,0-2,2.09,2,2,0,1,0,4,0A2,2,0,0,0,11.94,4.17Z"/><path class="cls-1" d="M21.26,8.07h0a2.42,2.42,0,0,1-2.16,1.14,2.84,2.84,0,0,1-2.81-3,2.83,2.83,0,0,1,2.95-2.95,2.61,2.61,0,0,1,2,1h0V0h.94V9.07h-.94Zm-2-3.9a2,2,0,0,0-2,2.09,2,2,0,1,0,4,0A2,2,0,0,0,19.27,4.17Z"/><path class="cls-1" d="M27.43.58h5.34v.93H28.44V4.17h4v.94h-4v3H33v.94H27.43Z"/><path class="cls-1" d="M34.46,0h.94V9.07h-.94Z"/><path class="cls-1" d="M37.26,0h.94V5.92l2.55-2.47h1.33L39.37,6l3,3.06H41L38.2,6.12v3h-.94Z"/><path class="cls-1" d="M46.76.58H52v.93H47.77V4.32h4v.93h-4V9.07h-1Z"/><path class="cls-1" d="M53.2,4.17a3.14,3.14,0,0,1,2.23-.86c1.65,0,2.35.79,2.35,2.38V8.1a6,6,0,0,0,.08,1H57a4,4,0,0,1-.06-.84h0a2.14,2.14,0,0,1-1.85,1c-1.14,0-2.09-.57-2.09-1.67,0-1.85,2.16-2,3.54-2h.36V5.41c0-.82-.51-1.24-1.39-1.24a2.5,2.5,0,0,0-1.67.62Zm2.71,2.2c-1.19,0-2,.32-2,1.08s.53,1,1.24,1a1.59,1.59,0,0,0,1.65-1.69V6.37Z"/><path class="cls-1" d="M59.58,0h.93V9.07h-.93Z"/><path class="cls-1" d="M62.46,0h.93V9.07h-.93Z"/><path class="cls-1" d="M65.38,7.59a1.71,1.71,0,0,0,1.43.76c.59,0,1.24-.25,1.24-.87s-.6-.75-1.2-.88c-1.07-.24-2-.47-2-1.63S65.93,3.31,67,3.31a2.05,2.05,0,0,1,1.91,1l-.78.52a1.34,1.34,0,0,0-1.19-.68c-.52,0-1.1.26-1.1.78s.67.68,1.41.82c1,.19,1.84.55,1.84,1.68s-1.13,1.76-2.25,1.76a2.37,2.37,0,0,1-2.18-1Z"/><path class="cls-1" d="M76.77,4.25H75.12v2.8c0,.72,0,1.3.84,1.3a1.9,1.9,0,0,0,.83-.19l0,.85a2.89,2.89,0,0,1-1.09.2c-1.33,0-1.55-.72-1.55-1.88V4.25H73v-.8h1.22V1.86h.94V3.45h1.65Z"/><path class="cls-1" d="M80.6,3.31a2.86,2.86,0,0,1,3,2.95,3,3,0,0,1-6,0A2.86,2.86,0,0,1,80.6,3.31Zm0,5a2,2,0,0,0,2-2.09,2,2,0,1,0-4,0A2,2,0,0,0,80.6,8.35Z"/><path class="cls-1" d="M90.45,10.35c-.37,1-.74,1.6-1.87,1.6a2.08,2.08,0,0,1-.84-.15l.12-.81a1.88,1.88,0,0,0,.66.09c.61,0,.84-.37,1-.92L90,9.1,87.62,3.45h1.09l1.74,4.41h0l1.66-4.41h1Z"/><path class="cls-1" d="M96.85,3.31a2.86,2.86,0,0,1,3,2.95,3,3,0,0,1-6,0A2.86,2.86,0,0,1,96.85,3.31Zm0,5a2,2,0,0,0,2-2.09,2,2,0,1,0-4,0A2,2,0,0,0,96.85,8.35Z"/><path class="cls-1" d="M106.2,7.74c0,.51,0,1,0,1.33h-.88c0-.3,0-.61,0-.93h0a2.15,2.15,0,0,1-4-1.22V3.45h.94V6.82c0,.94.41,1.53,1.28,1.53,1.21,0,1.74-.88,1.74-2.16V3.45h.94Z"/><path class="cls-1" d="M108,4.79c0-.52,0-1,0-1.34h.88c0,.3,0,.62,0,.93h0a2,2,0,0,1,1.87-1.07,1.12,1.12,0,0,1,.39.06l-.06,1a1.75,1.75,0,0,0-.51-.07c-1.14,0-1.64.8-1.64,2.08V9.07H108Z"/><path class="cls-1" d="M1.46,22.91H.29v-.79H1.58l.24-1.82H.65v-.79H1.94L2.3,17h.81l-.36,2.53H4.26L4.62,17h.8l-.36,2.53H6.24v.79H5L4.7,22.12H5.88v.79H4.58l-.36,2.56h-.8l.36-2.56H2.27l-.36,2.56H1.1ZM4.15,20.3H2.64l-.25,1.82H3.9Z"/><path class="cls-1" d="M13.6,18.73a2.58,2.58,0,0,0-2.12-1,3.38,3.38,0,0,0-3.24,3.52,3.31,3.31,0,0,0,3.24,3.53,3,3,0,0,0,2.46-1.19l.76.64a3.8,3.8,0,0,1-3.22,1.48,4.29,4.29,0,0,1-4.32-4.46,4.29,4.29,0,0,1,4.32-4.46,3.7,3.7,0,0,1,3,1.33Z"/><path class="cls-1" d="M16.1,17h2.17c1.65,0,3.39.24,3.39,2.33a2.23,2.23,0,0,1-2.13,2.25l2.41,3.91H20.71l-2.3-3.82h-1.3v3.82h-1Zm1,3.74H18c1.12,0,2.57,0,2.57-1.41,0-1.22-1.07-1.4-2-1.4H17.11Z"/><path class="cls-1" d="M23.82,17a.68.68,0,0,1,.68.68.68.68,0,1,1-1.36,0A.68.68,0,0,1,23.82,17Zm-.47,2.87h.94v5.62h-.94Z"/><path class="cls-1" d="M28.7,25.47h-1l-2.29-5.62h1.09l1.75,4.41h0l1.66-4.41h1Z"/><path class="cls-1" d="M36.94,24.45a2.86,2.86,0,0,1-2.49,1.16,2.78,2.78,0,0,1-2.84-2.95,2.81,2.81,0,0,1,2.88-2.95,2.61,2.61,0,0,1,2.66,2.94V23H32.62a1.87,1.87,0,0,0,1.83,1.8,2.12,2.12,0,0,0,1.79-.85Zm-.8-2.29a1.56,1.56,0,0,0-1.69-1.59,1.74,1.74,0,0,0-1.83,1.59Z"/><path class="cls-1" d="M38.6,21.19c0-.52,0-1,0-1.34h.88c0,.3,0,.62,0,.93h0a2,2,0,0,1,1.87-1.07,1.12,1.12,0,0,1,.39.06l-.06.95a1.75,1.75,0,0,0-.51-.07c-1.14,0-1.64.8-1.64,2.08v2.74H38.6Z"/><path class="cls-1" d="M48.94,18.73a2.58,2.58,0,0,0-2.12-1,3.38,3.38,0,0,0-3.24,3.52,3.31,3.31,0,0,0,3.24,3.53,3,3,0,0,0,2.46-1.19l.76.64a3.8,3.8,0,0,1-3.22,1.48,4.29,4.29,0,0,1-4.32-4.46,4.29,4.29,0,0,1,4.32-4.46,3.7,3.7,0,0,1,3,1.33Z"/><path class="cls-1" d="M54,19.71a3,3,0,1,1-3,2.95A2.86,2.86,0,0,1,54,19.71Zm0,5a2,2,0,0,0,2-2.09,2,2,0,1,0-4,0A2,2,0,0,0,54,24.75Z"/><path class="cls-1" d="M58.49,16.4h.93v9.07h-.93Z"/><path class="cls-1" d="M61.37,16.4h.93v9.07h-.93Z"/><path class="cls-1" d="M69.18,24.45a2.89,2.89,0,0,1-2.5,1.16,2.78,2.78,0,0,1-2.84-2.95,2.81,2.81,0,0,1,2.88-2.95,2.61,2.61,0,0,1,2.66,2.94V23H64.85a1.87,1.87,0,0,0,1.83,1.8,2.1,2.1,0,0,0,1.79-.85Zm-.81-2.29a1.56,1.56,0,0,0-1.69-1.59,1.74,1.74,0,0,0-1.83,1.59Z"/><path class="cls-1" d="M74.83,21.26a1.74,1.74,0,0,0-1.42-.69,1.87,1.87,0,0,0-1.89,2.09,1.94,1.94,0,0,0,1.89,2.09,1.64,1.64,0,0,0,1.43-.7l.7.66a2.75,2.75,0,0,1-2.13.9,2.78,2.78,0,0,1-2.9-2.95,2.81,2.81,0,0,1,2.9-2.95,2.85,2.85,0,0,1,2.16.89Z"/><path class="cls-1" d="M79.69,20.65H78v2.8c0,.72,0,1.3.84,1.3a1.84,1.84,0,0,0,.83-.19l0,.85a3,3,0,0,1-1.09.2c-1.34,0-1.55-.72-1.55-1.88V20.65H75.88v-.8H77.1V18.26H78v1.59h1.66Z"/><path class="cls-1" d="M81.39,17a.68.68,0,0,1,.69.68.69.69,0,0,1-1.37,0A.68.68,0,0,1,81.39,17Zm-.46,2.87h.93v5.62h-.93Z"/><path class="cls-1" d="M86.4,19.71a3,3,0,1,1-3,2.95A2.86,2.86,0,0,1,86.4,19.71Zm0,5a2,2,0,0,0,2-2.09,2,2,0,1,0-4,0A2,2,0,0,0,86.4,24.75Z"/><path class="cls-1" d="M90.85,21.19c0-.52,0-1,0-1.34h.89c0,.3,0,.62,0,.93h0a2,2,0,0,1,1.87-1.07A2,2,0,0,1,95.74,22v3.47h-.93V22.1c0-.94-.41-1.53-1.28-1.53-1.22,0-1.74.88-1.74,2.16v2.74h-.94Z"/><path class="cls-1" d="M103.93,20.65h-1.66v2.8c0,.72,0,1.3.84,1.3a1.84,1.84,0,0,0,.83-.19l0,.85a3,3,0,0,1-1.1.2c-1.33,0-1.54-.72-1.54-1.88V20.65h-1.23v-.8h1.23V18.26h.93v1.59h1.66Z"/><path class="cls-1" d="M105.08,16.4H106v4.23h0a2.1,2.1,0,0,1,1.8-.92A2,2,0,0,1,110,22v3.47H109V22.1c0-.94-.41-1.53-1.28-1.53-1.22,0-1.74.88-1.74,2.16v2.74h-.94Z"/><path class="cls-1" d="M112.31,17a.68.68,0,0,1,.68.68.69.69,0,0,1-1.37,0A.68.68,0,0,1,112.31,17Zm-.47,2.87h.93v5.62h-.93Z"/><path class="cls-1" d="M114.75,24a1.74,1.74,0,0,0,1.44.76c.59,0,1.24-.25,1.24-.87s-.6-.75-1.2-.88c-1.07-.24-2-.47-2-1.63s1.06-1.66,2.1-1.66a2.05,2.05,0,0,1,1.91,1l-.78.52a1.34,1.34,0,0,0-1.19-.68c-.52,0-1.1.26-1.1.78s.67.67,1.41.82c1,.19,1.84.55,1.84,1.68s-1.13,1.76-2.25,1.76a2.37,2.37,0,0,1-2.18-1Z"/><path class="cls-1" d="M123.56,20.65h-1.22v-.8h1.22V18.59c0-1.36.48-2.33,2-2.33a1.65,1.65,0,0,1,.72.14l-.13.84a2,2,0,0,0-.64-.12c-1,0-1,.71-1,1.68v1.05h1.36v.8H124.5v4.82h-.94Z"/><path class="cls-1" d="M126.79,20.57a3.17,3.17,0,0,1,2.23-.86c1.66,0,2.35.79,2.35,2.37V24.5a6,6,0,0,0,.09,1h-.9a4.06,4.06,0,0,1-.06-.84h0a2.12,2.12,0,0,1-1.84,1c-1.14,0-2.09-.57-2.09-1.67,0-1.86,2.16-2,3.54-2h.36v-.17c0-.82-.52-1.24-1.4-1.24a2.48,2.48,0,0,0-1.66.62Zm2.71,2.2c-1.19,0-2,.32-2,1.08s.52,1,1.23,1a1.61,1.61,0,0,0,1.66-1.69v-.36Z"/><path class="cls-1" d="M133.17,16.4h.94v9.07h-.94Z"/><path class="cls-1" d="M136.05,16.4H137v9.07h-.94Z"/><path class="cls-1" d="M140.35,24.82a.72.72,0,0,1-1.44,0,.72.72,0,0,1,1.44,0Z"/></g></g></svg>