<svg xmlns="http://www.w3.org/2000/svg" viewBox="0 0 128.79 9.83"><defs><style>.cls-1{fill:#fff;}</style></defs><title>cta</title><g id="Layer_2" data-name="Layer 2"><g id="Overlays"><path class="cls-1" d="M5.17,2.11A1.9,1.9,0,0,0,3.7,1.42a2.38,2.38,0,0,0-2.4,2.5,2.4,2.4,0,0,0,2.4,2.6,2,2,0,0,0,1.57-.85l1,.73A3.09,3.09,0,0,1,3.69,7.64,3.5,3.5,0,0,1,0,4,3.51,3.51,0,0,1,3.69.3,3,3,0,0,1,6.14,1.4Z"/><path class="cls-1" d="M7.05,0H8.24V7.46H7.05Z"/><path class="cls-1" d="M10.2.41a.72.72,0,0,1,.77.71.76.76,0,0,1-1.52,0A.73.73,0,0,1,10.2.41ZM9.62,2.72h1.19V7.46H9.62Z"/><path class="cls-1" d="M15.41,4.15a1.31,1.31,0,0,0-.9-.48,1.37,1.37,0,0,0-1.39,1.42,1.38,1.38,0,0,0,1.39,1.43,1.13,1.13,0,0,0,.92-.45l.79.85a2.73,2.73,0,0,1-1.71.66,2.46,2.46,0,0,1-2.58-2.49,2.45,2.45,0,0,1,2.58-2.48,2.31,2.31,0,0,1,1.72.72Z"/><path class="cls-1" d="M16.93,0h1.19V4.69l1.82-2h1.52l-2,2.16,2.16,2.58H20L18.14,5h0V7.46H16.93Z"/><path class="cls-1" d="M24.61,3.73v-1h1V1.35h1.19V2.72h1.3v1h-1.3V5.8c0,.48.14.78.66.78a1.21,1.21,0,0,0,.64-.15v1a2.48,2.48,0,0,1-.94.16c-1.25,0-1.55-.56-1.55-1.68V3.73Z"/><path class="cls-1" d="M31.34,2.61a2.45,2.45,0,0,1,2.58,2.48,2.58,2.58,0,0,1-5.16,0A2.45,2.45,0,0,1,31.34,2.61Zm0,3.91a1.38,1.38,0,0,0,1.39-1.43,1.39,1.39,0,1,0-2.78,0A1.38,1.38,0,0,0,31.34,6.52Z"/><path class="cls-1" d="M40.48,4a1.08,1.08,0,0,0-.93-.49c-.32,0-.69.15-.69.51,0,.85,2.56.16,2.56,2,0,1.13-1.08,1.52-2.05,1.52a2.31,2.31,0,0,1-1.84-.73l.79-.74a1.42,1.42,0,0,0,1.12.58c.35,0,.79-.16.79-.54,0-1-2.56-.21-2.56-2,0-1.06.95-1.53,1.91-1.53a2,2,0,0,1,1.69.72Z"/><path class="cls-1" d="M41.78,3.73v-1h1V1.35H44V2.72h1.3v1H44V5.8c0,.48.13.78.66.78a1.24,1.24,0,0,0,.64-.15v1a2.48,2.48,0,0,1-.94.16c-1.25,0-1.55-.56-1.55-1.68V3.73Z"/><path class="cls-1" d="M49.14,6.81h0a1.72,1.72,0,0,1-1.52.77,1.54,1.54,0,0,1-1.73-1.42c0-1.54,1.8-1.65,3-1.65h.3V4.38c0-.58-.45-.88-1.09-.88A1.85,1.85,0,0,0,46.79,4l-.62-.62a2.73,2.73,0,0,1,2-.76c2,0,2,1.46,2,2.13V7.46H49.14Zm-.07-1.47h-.25c-.65,0-1.77,0-1.77.73,0,.44.44.62.83.62.81,0,1.19-.42,1.19-1.08Z"/><path class="cls-1" d="M51.48,2.72h1.19v.76h0a1.49,1.49,0,0,1,1.4-.87,1.85,1.85,0,0,1,.42.06V3.82a2.26,2.26,0,0,0-.57-.09,1.19,1.19,0,0,0-1.27,1.2V7.46H51.48Z"/><path class="cls-1" d="M54.77,3.73v-1h1V1.35h1.18V2.72h1.31v1H56.93V5.8c0,.48.14.78.67.78a1.24,1.24,0,0,0,.64-.15v1a2.48,2.48,0,0,1-.94.16c-1.25,0-1.55-.56-1.55-1.68V3.73Z"/><path class="cls-1" d="M61.45,2.72h1.3L64.08,6h0l1.18-3.29h1.23L64.27,8.48a1.7,1.7,0,0,1-1.8,1.35,3.44,3.44,0,0,1-.91-.12l.15-1.06a1.69,1.69,0,0,0,.6.12c.58,0,.74-.21.94-.7l.22-.57Z"/><path class="cls-1" d="M69.56,2.61a2.45,2.45,0,0,1,2.57,2.48,2.58,2.58,0,0,1-5.15,0A2.45,2.45,0,0,1,69.56,2.61Zm0,3.91A1.38,1.38,0,0,0,71,5.09a1.39,1.39,0,1,0-2.78,0A1.38,1.38,0,0,0,69.56,6.52Z"/><path class="cls-1" d="M77.57,7.46H76.44V6.7h0A1.47,1.47,0,0,1,75,7.58a1.65,1.65,0,0,1-1.73-1.86v-3h1.19v2.4c0,.53,0,1.4.87,1.4a1.06,1.06,0,0,0,1.08-1.21V2.72h1.19Z"/><path class="cls-1" d="M78.91,2.72H80.1v.76h0a1.5,1.5,0,0,1,1.4-.87,1.85,1.85,0,0,1,.42.06V3.82a2.26,2.26,0,0,0-.57-.09,1.19,1.19,0,0,0-1.27,1.2V7.46H78.91Z"/><path class="cls-1" d="M88.92,4.15a1.31,1.31,0,0,0-.9-.48,1.37,1.37,0,0,0-1.39,1.42A1.38,1.38,0,0,0,88,6.52a1.15,1.15,0,0,0,.92-.45l.79.85A2.73,2.73,0,0,1,88,7.58a2.46,2.46,0,0,1-2.58-2.49A2.45,2.45,0,0,1,88,2.61a2.31,2.31,0,0,1,1.72.72Z"/><path class="cls-1" d="M92.78,2.61a2.45,2.45,0,0,1,2.58,2.48,2.58,2.58,0,0,1-5.16,0A2.45,2.45,0,0,1,92.78,2.61Zm0,3.91a1.38,1.38,0,0,0,1.39-1.43,1.39,1.39,0,1,0-2.78,0A1.38,1.38,0,0,0,92.78,6.52Z"/><path class="cls-1" d="M96.49,0h1.18V7.46H96.49Z"/><path class="cls-1" d="M99.05,0h1.19V7.46H99.05Z"/><path class="cls-1" d="M102.55,5.51a1.22,1.22,0,0,0,1.27,1.12A1.55,1.55,0,0,0,105.1,6l.85.64a2.58,2.58,0,0,1-4.58-1.54,2.45,2.45,0,0,1,2.57-2.48c1.33,0,2.22.92,2.22,2.57v.33ZM105,4.62a1.09,1.09,0,0,0-1.21-1.12,1.17,1.17,0,0,0-1.22,1.12Z"/><path class="cls-1" d="M110.51,4.15a1.31,1.31,0,0,0-.9-.48,1.37,1.37,0,0,0-1.39,1.42,1.38,1.38,0,0,0,1.39,1.43,1.13,1.13,0,0,0,.92-.45l.79.85a2.69,2.69,0,0,1-1.71.66A2.45,2.45,0,0,1,107,5.09a2.45,2.45,0,0,1,2.57-2.48,2.29,2.29,0,0,1,1.72.72Z"/><path class="cls-1" d="M111.48,3.73v-1h1V1.35h1.18V2.72H115v1h-1.31V5.8c0,.48.14.78.66.78a1.25,1.25,0,0,0,.65-.15v1a2.51,2.51,0,0,1-.94.16c-1.26,0-1.55-.56-1.55-1.68V3.73Z"/><path class="cls-1" d="M116.48.41a.73.73,0,0,1,.77.71.76.76,0,0,1-1.52,0A.72.72,0,0,1,116.48.41Zm-.58,2.31h1.18V7.46H115.9Z"/><path class="cls-1" d="M120.78,2.61a2.45,2.45,0,0,1,2.58,2.48,2.58,2.58,0,0,1-5.15,0A2.45,2.45,0,0,1,120.78,2.61Zm0,3.91a1.38,1.38,0,0,0,1.4-1.43,1.4,1.4,0,1,0-2.79,0A1.38,1.38,0,0,0,120.78,6.52Z"/><path class="cls-1" d="M124.47,2.72h1.13v.77h0a1.47,1.47,0,0,1,1.45-.88,1.64,1.64,0,0,1,1.72,1.86v3h-1.18V5.06c0-.52,0-1.39-.87-1.39a1.06,1.06,0,0,0-1.08,1.21V7.46h-1.19Z"/></g></g></svg>