<?xml version="1.0" encoding="utf-8"?>
<!-- Generator: Adobe Illustrator 19.0.0, SVG Export Plug-In . SVG Version: 6.00 Build 0)  -->
<svg version="1.1" id="Layer_1" xmlns="http://www.w3.org/2000/svg" xmlns:xlink="http://www.w3.org/1999/xlink" x="0px" y="0px"
	 viewBox="-248 347.8608 114 98.1392" style="enable-background:new -248 347.8608 114 98.1392;" xml:space="preserve">
<style type="text/css">
	.st0{fill:#231F20;}
	.st1{fill:#FCD800;}
	.st2{fill:#010101;}
</style>
<g id="XMLID_6_">
	<rect id="XMLID_36_" x="-248" y="347.8608" class="st0" width="114" height="98.1392"/>
	<rect id="XMLID_35_" x="-235.5265" y="354.8936" class="st1" width="90.0431" height="83.9458"/>
	<path id="XMLID_32_" class="st2" d="M-142.7306,441.5933h-95.5485v-89.4512h95.5485V441.5933z M-235.5265,438.8394h90.0431
		v-83.9458h-90.0431V438.8394z"/>
	<path id="XMLID_21_" class="st2" d="M-190.3897,424.1531c-0.2692-0.2046-0.637-0.3081-1.1072-0.3081h-1.2034v2.4908h0.9525
		c1.1705,0,1.7612-0.419,1.7612-1.257C-189.9865,424.6659-190.123,424.3565-190.3897,424.1531 M-181.5519,427.5075h1.8465
		l-0.8916-3.2094L-181.5519,427.5075z M-203.6489,423.8242c-0.8185,0-1.5091,0.3033-2.0791,0.9184
		c-0.57,0.6126-0.8538,1.5115-0.8538,2.6967c0,1.0462,0.2814,1.8854,0.8429,2.5115c0.5627,0.6273,1.2582,0.9439,2.0901,0.9439
		c0.8197,0,1.5116-0.3106,2.0852-0.9232c0.57-0.6163,0.8563-1.503,0.8563-2.6637c0-1.0365-0.2716-1.8757-0.8185-2.5189
		C-202.0703,424.1446-202.7792,423.8242-203.6489,423.8242 M-232.4582,435.4805h83.9081v-16.2494h-83.9081V435.4805z
		 M-221.8105,432.0372c-0.6139,0.5322-1.3386,0.7953-2.1754,0.7953c-0.9354,0-1.654-0.3483-2.1607-1.0365v0.9062h-1.8088v-3.6308
		h1.8088c0.0207,0.6638,0.1924,1.1498,0.5213,1.4677c0.3252,0.3142,0.6991,0.4714,1.1181,0.4714
		c0.3277,0,0.6017-0.1133,0.8295-0.341c0.2217-0.2265,0.3362-0.4933,0.3362-0.8039c0-0.3252-0.1108-0.598-0.3301-0.8197
		c-0.2205-0.2217-0.6212-0.475-1.2034-0.7625c-1.2326-0.5908-2.0706-1.1157-2.5103-1.5712
		c-0.4421-0.458-0.6626-1.0682-0.6626-1.8404c0-0.933,0.2923-1.654,0.8745-2.1669c0.5847-0.5103,1.2448-0.7673,1.9866-0.7673
		c0.8441,0,1.503,0.3313,1.9646,0.9927v-0.8818h1.8014v3.2375h-1.8014c-0.0524-0.5006-0.2253-0.8867-0.514-1.1608
		c-0.2887-0.2728-0.6248-0.4092-1.0085-0.4092c-0.2972,0-0.5469,0.0779-0.7527,0.2375c-0.2034,0.1571-0.3045,0.3629-0.3045,0.6199
		c0,0.2193,0.084,0.4288,0.2521,0.6248c0.1693,0.1961,0.6614,0.475,1.4811,0.8368c0.7868,0.3508,1.3934,0.6675,1.8124,0.9525
		c0.4226,0.2826,0.7527,0.6504,0.9975,1.1023c0.2448,0.4507,0.369,0.9768,0.369,1.5688
		C-220.8897,430.712-221.1966,431.5049-221.8105,432.0372 M-210.4282,426.3297h-1.8088v-2.4847h-1.6455v7.0571h1.6004v1.8002
		h-5.9767v-1.8002h1.6017v-7.0571h-1.6017v2.4847h-1.8319v-4.2813h9.6624v4.2813H-210.4282z M-199.3116,431.2418
		c-1.0572,1.0597-2.5018,1.5907-4.3373,1.5907c-1.9037,0-3.3665-0.5457-4.3885-1.6358c-1.0243-1.0889-1.5322-2.3714-1.5322-3.8416
		c0-1.5237,0.5237-2.8173,1.5736-3.8818c1.0499-1.0645,2.4981-1.5956,4.347-1.5956c1.8404,0,3.285,0.5311,4.3422,1.5944
		c1.0536,1.0609,1.5822,2.3544,1.5822,3.883C-197.7245,428.8875-198.2531,430.1834-199.3116,431.2418 M-174.8858,432.7022h-5.2398
		v-1.8002h1.3617l-0.5054-1.8306h-2.7661l-0.5652,1.8306h1.4226v1.8002h-7.8938l-2.408-4.6649h-1.2205v2.8647h1.3337v1.8002h-5.5687
		v-1.8002h1.4616v-7.0571h-1.4616v-1.7966h6.4274c1.2095,0,2.0804,0.3033,2.6151,0.9135c0.5359,0.609,0.8015,1.3009,0.8015,2.0718
		c0,1.2107-0.6139,2.0925-1.8453,2.6491l1.7308,3.2192h2.6272l2.0743-7.0571h-1.4153v-1.7966h6.956v1.7966h-1.4324l2.2399,7.0571
		h1.2704L-174.8858,432.7022L-174.8858,432.7022z M-163.7508,430.3966c-0.4665,0.7552-1.1462,1.3495-2.0377,1.7844
		c-0.8892,0.4349-1.8903,0.6516-2.9975,0.6516c-1.9269,0-3.4055-0.5152-4.4323-1.5469c-1.0292-1.0317-1.5456-2.3422-1.5456-3.9305
		c0-1.1047,0.257-2.0791,0.7673-2.9232c0.5091-0.8453,1.1973-1.4823,2.0621-1.911c0.8623-0.4312,1.799-0.6431,2.8087-0.6431
		c1.4311,0,2.5456,0.3471,3.3434,1.0426v-0.8721h1.8075v3.7807h-1.8075c-0.1888-0.637-0.5652-1.1412-1.1303-1.5103
		c-0.5579-0.3654-1.1608-0.5505-1.8051-0.5505c-0.8477,0-1.5712,0.3008-2.168,0.9025c-0.598,0.6004-0.8952,1.4299-0.8952,2.492
		c0,1.2156,0.3009,2.1449,0.9099,2.777c0.6066,0.6358,1.3483,0.9549,2.2229,0.9549c0.6419,0,1.1778-0.1547,1.6029-0.4689
		c0.4214-0.3106,0.7162-0.7454,0.877-1.2996h-1.8757v-1.8026h4.9962C-163.048,428.6171-163.2831,429.6402-163.7508,430.3966
		 M-152.9605,425.4234h-2.0365v-1.5785h-3.302v2.4616h2.6638v1.799h-2.6638v2.7965h3.302v-1.5932h2.0365v3.3934h-9.392v-1.8002
		h1.2789v-7.0571h-1.2789v-1.7966h9.392V425.4234z"/>
	<polygon id="XMLID_20_" class="st2" points="-232.0978,416.2253 -232.0978,414.469 -230.7044,414.469 -230.7044,407.5763 
		-232.0978,407.5763 -232.0978,405.8175 -227.724,405.8175 -223.8946,412.3083 -223.8946,407.5763 -225.249,407.5763 
		-225.249,405.8175 -220.578,405.8175 -220.578,407.5763 -222.0371,407.5763 -222.0371,416.3021 -224.3586,416.3021 
		-228.8482,408.5872 -228.8482,414.469 -227.5376,414.469 -227.5376,416.2253 	"/>
	<path id="XMLID_17_" class="st2" d="M-210.0224,414.469v1.7563h-5.118v-1.7563h1.3325l-0.4921-1.7892h-2.7015l-0.5566,1.7892
		h1.3934v1.7563h-4.6114v-1.7563h1.2887l2.0292-6.8927h-1.3861v-1.7588h6.7965v1.7588h-1.4007l2.1863,6.8927H-210.0224z
		 M-214.7299,411.1536l-0.866-3.1351l-0.9366,3.1351H-214.7299z"/>
	<polygon id="XMLID_16_" class="st2" points="-208.2327,416.2253 -208.2327,414.469 -206.67,414.469 -206.67,407.5763 
		-208.2327,407.5763 -208.2327,410.0001 -210.0231,410.0001 -210.0231,405.8175 -200.5848,405.8175 -200.5848,410.0001 
		-202.351,410.0001 -202.351,407.5763 -203.9611,407.5763 -203.9611,414.469 -202.3985,414.469 -202.3985,416.2253 	"/>
	<polygon id="XMLID_15_" class="st2" points="-199.6365,416.2253 -199.6365,414.469 -198.0604,414.469 -198.0604,407.5763 
		-199.6365,407.5763 -199.6365,405.8175 -193.756,405.8175 -193.756,407.5763 -195.3491,407.5763 -195.3491,414.469 
		-193.756,414.469 -193.756,416.2253 	"/>
	<path id="XMLID_12_" class="st2" d="M-187.3375,405.6512c1.7965,0,3.2106,0.5201,4.2423,1.5603
		c1.0268,1.0353,1.5432,2.2984,1.5432,3.7916c0,1.4981-0.5164,2.7624-1.5481,3.7989c-1.0341,1.0341-2.4445,1.5529-4.2374,1.5529
		c-1.8599,0-3.2911-0.5335-4.2886-1.5992c-0.9951-1.0621-1.4945-2.3142-1.4945-3.7527c0-1.4847,0.5116-2.7502,1.5383-3.7904
		C-190.5567,406.1749-189.1414,405.6512-187.3375,405.6512 M-187.3375,407.5549c-0.7978,0-1.4738,0.2972-2.0317,0.8965
		c-0.5554,0.5993-0.8343,1.4786-0.8343,2.6345c0,1.0219,0.2765,1.8416,0.8222,2.4555c0.5518,0.6115,1.2314,0.9184,2.0438,0.9184
		c0.8002,0,1.4762-0.2984,2.0353-0.9013c0.5579-0.5993,0.8404-1.4665,0.8404-2.5992c0-1.0134-0.268-1.8343-0.8015-2.4628
		C-185.7967,407.8692-186.4898,407.5549-187.3375,407.5549"/>
	<polygon id="XMLID_11_" class="st2" points="-181.2207,416.2253 -181.2207,414.469 -179.8285,414.469 -179.8285,407.5763 
		-181.2207,407.5763 -181.2207,405.8175 -176.8493,405.8175 -173.0187,412.3083 -173.0187,407.5763 -174.3731,407.5763 
		-174.3731,405.8175 -169.7045,405.8175 -169.7045,407.5763 -171.1649,407.5763 -171.1649,416.3021 -173.4815,416.3021 
		-177.9735,408.5872 -177.9735,414.469 -176.663,414.469 -176.663,416.2253 	"/>
	<path id="XMLID_8_" class="st2" d="M-159.1781,414.469v1.7563h-5.1217v-1.7563h1.3337l-0.4945-1.7892h-2.7027l-0.553,1.7892h1.3922
		v1.7563h-4.6101v-1.7563h1.2887l2.0279-6.8927h-1.3849v-1.7588h6.7952v1.7588h-1.3995l2.1839,6.8927H-159.1781z M-163.888,411.1536
		l-0.8672-3.1351l-0.9342,3.1351H-163.888z"/>
	<polygon id="XMLID_7_" class="st2" points="-158.2113,416.2253 -158.2113,414.469 -156.7241,414.469 -156.7241,407.5763 
		-158.2113,407.5763 -158.2113,405.8175 -152.4965,405.8175 -152.4965,407.5763 -154.0165,407.5763 -154.0165,414.469 
		-150.9399,414.469 -150.9399,411.251 -148.9107,411.251 -148.9107,416.2253 	"/>
</g>
</svg>
