<?xml version="1.0" encoding="utf-8"?>
<!-- Generator: Adobe Illustrator 19.0.0, SVG Export Plug-In . SVG Version: 6.00 Build 0)  -->
<svg version="1.1" id="Layer_1" xmlns="http://www.w3.org/2000/svg" xmlns:xlink="http://www.w3.org/1999/xlink" x="0px" y="0px"
	 viewBox="0 0 213 121.7142" style="enable-background:new 0 0 213 121.7142;" xml:space="preserve">
<style type="text/css">
	.st0{fill-rule:evenodd;clip-rule:evenodd;fill:#FCD800;}
	.st1{fill:#010101;}
</style>
<g id="XMLID_3_">
	<g id="XMLID_69_">
		<rect class="st0" width="213" height="121.7142"/>
	</g>
	<g id="XMLID_68_">
		<path id="XMLID_88_" class="st1" d="M15.9205,51.3123v-3.9141h2.7813V32.0584h-2.7813v-3.915h20.4199v7.3457h-4.4302v-3.4307
			h-7.1787v5.3457h5.7959v3.915h-5.7959v6.0791h7.1787v-3.4648h4.4302v7.3789H15.9205z"/>
		<path id="XMLID_90_" class="st1" d="M45.2516,51.5457l-5.4468-12.6426h-2.3315v-3.7139h9.7769v3.7139h-2.0044l2.5259,7.3389
			l2.9624-7.3389h-2.1182v-3.7139h8.5444v3.7139h-2.2983l-5.23,12.6426H45.2516z"/>
		<path id="XMLID_92_" class="st1" d="M70.4146,46.449l3.9976,1.2822c-1.6768,2.6318-4.2974,3.9473-7.8618,3.9473
			c-2.8428,0-5.0605-0.749-6.6538-2.248c-1.5938-1.499-2.3901-3.4707-2.3901-5.9131c0-2.4873,0.8213-4.5635,2.4648-6.2295
			s3.7363-2.498,6.2793-2.498c1.8433,0,3.4365,0.4658,4.7803,1.3984s2.2764,2.0938,2.7983,3.4814
			c0.522,1.3887,0.7827,2.9375,0.7827,4.6475H62.6031c0.0776,1.4648,0.541,2.5039,1.3906,3.1143s1.7461,0.916,2.6899,0.916
			C67.9161,48.3474,69.1598,47.7146,70.4146,46.449z M69.4322,41.4519c-0.1196-0.8994-0.4717-1.666-1.0557-2.2988
			c-0.5845-0.6328-1.3818-0.9492-2.3926-0.9492c-1.8877,0-2.9868,1.083-3.2979,3.248H69.4322z"/>
		<path id="XMLID_95_" class="st1" d="M87.6451,47.5984v3.7139H76.3023v-3.7139h2.9814v-8.6953h-2.7983v-3.7139h7.5122v4.0977
			c0.2886-1.1768,0.9463-2.1963,1.9736-3.0566c1.0269-0.8604,2.2402-1.291,3.6392-1.291c0.2334,0,0.5107,0.0059,0.833,0.0166v4.8643
			c-1.2993,0-2.3599,0.1436-3.1812,0.4326c-0.8223,0.2891-1.499,0.9219-2.0322,1.8984c-0.5332,0.9775-0.7993,2.1318-0.7993,3.4648
			v1.9824H87.6451z"/>
		<path id="XMLID_97_" class="st1" d="M94.8902,58.5906v-3.7139h3.0981l1.0737-2.8672l-5.8706-13.1064h-2.332v-3.7139h9.6606v3.7139
			h-1.8989l2.6846,7.2607l2.8618-7.2607h-2.0986v-3.7139h8.478v3.7139h-2.2988l-7.728,19.6875H94.8902z"/>
		<path id="XMLID_99_" class="st1" d="M111.5958,38.9031v-3.7139h2.0488V32.658l5.1465-3.6982v6.2295h2.9648v3.7139h-2.9648v6.9932
			c0,0.6338,0.0811,1.0596,0.2422,1.2764c0.1602,0.2168,0.5293,0.3252,1.1074,0.3252c0.4775,0,1.0156-0.1104,1.6152-0.333v3.5645
			c-1.3213,0.5439-2.6152,0.8164-3.8809,0.8164c-2.8203,0-4.2305-1.4014-4.2305-4.2031v-8.4395H111.5958z"/>
		<path id="XMLID_101_" class="st1" d="M123.6222,51.3123v-3.7139h2.5986V31.8582h-2.5986v-3.7148h7.7285v8.3447
			c1.6211-1.1318,3.1484-1.6982,4.5801-1.6982c3.2979,0,4.9473,1.9814,4.9473,5.9463v6.8623h2.3652v3.7139h-7.5117V40.9685
			c0-0.7549-0.1367-1.2734-0.4082-1.5566c-0.2725-0.2832-0.6807-0.4248-1.2246-0.4248c-0.7656,0-1.6816,0.3389-2.748,1.0156v7.5957
			h2.2988v3.7139H123.6222z"/>
		<path id="XMLID_103_" class="st1" d="M145.4415,38.9031v-3.7139h7.5947v12.4092h2.3984v3.7139h-9.9932v-3.7139h2.4482v-8.6953
			H145.4415z M147.7061,30.5672c0-0.7754,0.2754-1.4395,0.8252-1.9932c0.5488-0.5527,1.2129-0.8301,1.9902-0.8301
			c0.7881,0,1.4541,0.2773,1.999,0.8301c0.543,0.5537,0.8154,1.2178,0.8154,1.9932s-0.2744,1.4365-0.8242,1.9844
			c-0.5498,0.5488-1.2129,0.8223-1.9902,0.8223c-0.7666,0-1.4268-0.2764-1.9824-0.8301
			C147.9835,31.99,147.7061,31.3308,147.7061,30.5672z"/>
		<path id="XMLID_106_" class="st1" d="M157.3009,38.9031v-3.7139h7.6123v1.499c1.5537-1.166,3.1309-1.749,4.7295-1.749
			c3.2539,0,4.8809,2.0771,4.8809,6.2295v6.4297h2.4316v3.7139h-7.5781v-9.7607c0-0.877-0.1201-1.4766-0.3584-1.7988
			c-0.2393-0.3213-0.6309-0.4824-1.1748-0.4824c-0.9551,0-1.9316,0.3496-2.9307,1.0488v7.2793h2.4814v3.7139h-10.0938v-3.7139
			h2.4648v-8.6953H157.3009z"/>
		<path id="XMLID_108_" class="st1" d="M197.6466,35.1892v3.7139h-2.665v11.9189c0,5.3232-2.8096,7.9854-8.4287,7.9854
			c-3.2197,0-5.6182-0.583-7.1953-1.749l2.499-3.4141c1.2988,0.7988,2.6035,1.1992,3.9141,1.1992
			c1.1436,0,2.1064-0.2949,2.8896-0.8828c0.7832-0.5889,1.1738-1.7324,1.1738-3.4316v-1.2324
			c-1.6768,1.499-3.3086,2.249-4.8965,2.249c-1.8652,0-3.4561-0.7803-4.7725-2.3408c-1.3154-1.5596-1.9736-3.5498-1.9736-5.9707
			c0-2.4316,0.6777-4.4219,2.0322-5.9717c1.3545-1.5488,3.0088-2.3232,4.9639-2.3232c1.876,0,3.4248,0.7432,4.6465,2.2275v-1.9775
			H197.6466z M189.8507,43.3006c0-1.2988-0.2881-2.3262-0.8662-3.0811c-0.5771-0.7549-1.3652-1.1328-2.3643-1.1328
			c-1.0225,0-1.8018,0.3887-2.3408,1.166c-0.5381,0.7773-0.8076,1.7764-0.8076,2.998s0.2803,2.2178,0.8408,2.9902
			c0.5605,0.7715,1.3301,1.1572,2.3076,1.1572c0.8994,0,1.6621-0.3584,2.29-1.0742
			C189.5372,45.6072,189.8507,44.6004,189.8507,43.3006z"/>
	</g>
	<g id="XMLID_67_">
		<path id="XMLID_71_" class="st1" d="M40.0421,98.9588v-4.1973c0.6553,0.1895,1.2329,0.2832,1.7324,0.2832
			c0.9214,0,1.5825-0.2549,1.9819-0.7656c0.3999-0.5107,0.5996-1.4102,0.5996-2.6982V72.993h-3.4478v-3.915h12.6255v3.915h-3.1479
			v18.8037c0,2.5762-0.6245,4.4834-1.874,5.7217c-1.249,1.2383-2.9121,1.8574-4.9883,1.8574
			C42.4796,99.3758,41.3189,99.2371,40.0421,98.9588z"/>
		<path id="XMLID_73_" class="st1" d="M74.0577,88.533v3.7139h-7.7451v-1.374c-1.5435,1.0713-3.1089,1.6074-4.6968,1.6074
			c-1.5547,0-2.7734-0.4365-3.6563-1.3096s-1.3237-2.1035-1.3237-3.6943v-7.6387h-2.4155v-3.7139h7.5454v10.0439
			c0,0.7988,0.1221,1.3457,0.3662,1.6406c0.2441,0.2939,0.6885,0.4414,1.3325,0.4414c0.8662,0,1.8154-0.3838,2.8481-1.1494v-7.2627
			h-2.4814v-3.7139h7.6284V88.533H74.0577z"/>
		<path id="XMLID_75_" class="st1" d="M76.8727,92.2469V86.7h3.7642c0.0337,0.7559,0.3833,1.3574,1.0498,1.8076
			c0.666,0.4492,1.4878,0.6748,2.4648,0.6748c0.8438,0,1.5015-0.1475,1.9736-0.4414s0.708-0.6689,0.708-1.125
			c0-0.4209-0.2163-0.749-0.6494-0.9824s-1.2827-0.4551-2.5483-0.668c-2.6094-0.4238-4.4912-1.0654-5.6465-1.9258
			c-1.1548-0.8604-1.7324-2.001-1.7324-3.4209c0-1.332,0.5439-2.4561,1.6323-3.3711c1.0884-0.916,2.5317-1.374,4.3306-1.374
			c1.4546,0,2.8149,0.2695,4.0806,0.8076v-0.5576h3.6812v4.6807h-3.6812c-0.333-1.1221-1.5103-1.6826-3.5308-1.6826
			c-1.4883,0-2.2319,0.4111-2.2319,1.2324c0,0.3115,0.1523,0.5469,0.458,0.708c0.3052,0.1611,1.085,0.3525,2.3403,0.5742
			c1.9873,0.3447,3.4751,0.6885,4.4634,1.0322c0.9883,0.3447,1.7798,0.9141,2.3735,1.708c0.5942,0.7939,0.8911,1.7461,0.8911,2.8564
			c0,1.5771-0.5635,2.8672-1.6904,3.873c-1.127,1.0049-2.7231,1.5068-4.7886,1.5068c-1.9214,0-3.2368-0.3916-3.9478-1.1738v0.8076
			H76.8727z"/>
		<path id="XMLID_77_" class="st1" d="M92.5538,79.8377v-3.7139h2.0488v-2.5313l5.147-3.6982v6.2295h2.9644v3.7139h-2.9644v6.9932
			c0,0.6338,0.0801,1.0596,0.2412,1.2764s0.5303,0.3252,1.1079,0.3252c0.4771,0,1.0156-0.1104,1.6152-0.333v3.5645
			c-1.3213,0.5439-2.6147,0.8164-3.8809,0.8164c-2.8203,0-4.2305-1.4014-4.2305-4.2031v-8.4395H92.5538z"/>
		<path id="XMLID_79_" class="st1" d="M113.1407,92.2469v-3.9141h3.3145V72.993h-3.3145v-3.915h20.7373v7.1455h-4.4307V72.993
			h-6.9619v5.3623h5.0127v3.915h-5.0127v6.0625h3.5635v3.9141H113.1407z"/>
		<path id="XMLID_81_" class="st1" d="M134.8243,79.8377v-3.7139h7.5947V88.533h2.3984v3.7139h-9.9932V88.533h2.4482v-8.6953
			H134.8243z M137.089,71.5017c0-0.7754,0.2754-1.4395,0.8252-1.9932c0.5488-0.5527,1.2129-0.8301,1.9902-0.8301
			c0.7881,0,1.4541,0.2773,1.999,0.8301c0.543,0.5537,0.8154,1.2178,0.8154,1.9932s-0.2744,1.4365-0.8242,1.9844
			c-0.5498,0.5488-1.2129,0.8223-1.9902,0.8223c-0.7666,0-1.4268-0.2764-1.9824-0.8301S137.089,72.2654,137.089,71.5017z"/>
		<path id="XMLID_84_" class="st1" d="M144.4454,79.8377v-3.7139h2.0488v-2.5313l5.1465-3.6982v6.2295h2.9648v3.7139h-2.9648v6.9932
			c0,0.6338,0.0811,1.0596,0.2422,1.2764c0.1602,0.2168,0.5293,0.3252,1.1074,0.3252c0.4775,0,1.0156-0.1104,1.6152-0.333v3.5645
			c-1.3213,0.5439-2.6152,0.8164-3.8809,0.8164c-2.8203,0-4.2305-1.4014-4.2305-4.2031v-8.4395H144.4454z"/>
		<path id="XMLID_86_" class="st1" d="M157.5206,92.2469V86.7h3.7637c0.0332,0.7559,0.3838,1.3574,1.0498,1.8076
			c0.666,0.4492,1.4873,0.6748,2.4648,0.6748c0.8438,0,1.502-0.1475,1.9736-0.4414s0.708-0.6689,0.708-1.125
			c0-0.4209-0.2168-0.749-0.6494-0.9824c-0.4336-0.2334-1.2822-0.4551-2.5479-0.668c-2.6094-0.4238-4.4922-1.0654-5.6465-1.9258
			c-1.1553-0.8604-1.7324-2.001-1.7324-3.4209c0-1.332,0.5439-2.4561,1.6318-3.3711c1.0879-0.916,2.5322-1.374,4.3311-1.374
			c1.4541,0,2.8145,0.2695,4.0801,0.8076v-0.5576h3.6816v4.6807h-3.6816c-0.333-1.1221-1.5098-1.6826-3.5313-1.6826
			c-1.4873,0-2.2314,0.4111-2.2314,1.2324c0,0.3115,0.1523,0.5469,0.458,0.708s1.085,0.3525,2.3398,0.5742
			c1.9883,0.3447,3.4756,0.6885,4.4639,1.0322c0.9883,0.3447,1.7793,0.9141,2.374,1.708c0.5938,0.7939,0.8906,1.7461,0.8906,2.8564
			c0,1.5771-0.5635,2.8672-1.6904,3.873c-1.127,1.0049-2.7236,1.5068-4.7891,1.5068c-1.9209,0-3.2363-0.3916-3.9473-1.1738v0.8076
			H157.5206z"/>
	</g>
</g>
</svg>
