<?xml version="1.0" encoding="UTF-8"?><svg id="Layer_3" xmlns="http://www.w3.org/2000/svg" xmlns:xlink="http://www.w3.org/1999/xlink" viewBox="0 0 960 90"><defs><style>.cls-1,.cls-2{fill:none;}.cls-3{clip-path:url(#clippath);}.cls-4{fill:#686b7a;}.cls-5{fill:#f4efe4;}.cls-6,.cls-7{fill:#fff;}.cls-8{fill:red;}.cls-9{fill:#fbf6fa;}.cls-10,.cls-11{fill:#ff3008;}.cls-12{fill:#999aa1;}.cls-13{fill:#e01e28;}.cls-14{fill:#d71924;}.cls-15{fill:#266999;}.cls-16{fill:#27346b;}.cls-17{fill:#273479;}.cls-18{clip-path:url(#clippath-3);}.cls-19{clip-path:url(#clippath-2);}.cls-2{stroke:#ff3008;stroke-miterlimit:10;stroke-width:.2px;}.cls-20{opacity:.5;}.cls-11,.cls-7{fill-rule:evenodd;}</style><clipPath id="clippath"><rect class="cls-1" x="679.86" y="-.16" width="161.24" height="103.08"/></clipPath><clipPath id="clippath-2"><polygon class="cls-1" points="698.61 95.01 672.27 95.01 673.17 1.73 699.5 1.73 698.61 95.01"/></clipPath><clipPath id="clippath-3"><path class="cls-1" d="M910.71,90.39l12.44-.02h.54s.23,0,.23,0h.1s13.09,0,13.09,0l-.56-4.26-.15-1.18-.23-1.77-.15-1.18-.23-1.77-.16-1.18-.23-1.77-.15-1.18-.23-1.77-.15-1.18-.23-1.77-.15-1.18-.23-1.77-.15-1.18-.23-1.77-.16-1.18-.23-1.77-.15-1.18-.23-1.77-.15-1.18-.23-1.77-.15-1.18-.23-1.77-.15-1.18-.23-1.77-.16-1.18-.23-1.77-.15-1.18-.23-1.77-.15-1.18-.23-1.77-.15-1.18-.23-1.77-.15-1.18-.23-1.77-.16-1.18-.23-1.77-.15-1.18-.23-1.77-.15-1.18-.23-1.77-.15-1.18-.23-1.77-.15-1.18-.23-1.77-.15-1.18-.23-1.77-.15-1.18-.23-1.73-.16-1.18-.23-1.77-.15-1.18-.23-1.77-.15-1.18-.77-5.86-.44,5.86-.09,1.18-.13,1.77-.09,1.18-.05,.65h-1.43s-.19-3.6-.19-3.6l-.06-1.18-.3-5.62-.78,5.62-.16,1.18-.65,4.72-.16,1.18-.24,1.73-.16,1.18-.24,1.77-.16,1.18-.65,4.72-.16,1.18-.24,1.77-.16,1.18-.25,1.77-.16,1.18-.24,1.77-.16,1.18-.24,1.77-.16,1.18-.24,1.77-.16,1.18-.24,1.77-.16,1.18-.24,1.77-.16,1.18-.24,1.77-.16,1.18-.24,1.77-.16,1.18-.15,1.12-.09,.65-.16,1.18-.09,.65-.97,7.02-.16,1.18-.24,1.77-.16,1.18-.24,1.77-.16,1.18-.24,1.77-.16,1.18-.24,1.77-.16,1.18-.24,1.77-.16,1.18-.24,1.77-.16,1.18-.24,1.77-.16,1.18-.59,4.26v.02Zm12.99-71.03h.62l-.05,.66-.09,1.18-.13,1.77-.09,1.18-.04,.59v-1.17s-.03-.6-.03-.6l-.09-1.77-.06-1.18-.03-.66Z"/></clipPath></defs><g class="cls-3"><g><g><g><path class="cls-17" d="M889.91,76.1v-.44h-10.26v-7.07c3.64-1.37,6.93-2.88,9.88-4.44v-.95c-2.94,1.59-6.23,3.11-9.88,4.5v-1.09c3.66-1.41,6.94-2.97,9.88-4.58v-.96c-8.1,4.5-18.96,8.63-33.01,10.38-.38-.33-.88-.53-1.43-.53s-1.04,.2-1.42,.52c-21.7-2.73-35.77-11.1-43.84-17.77-9.05-7.48-12.7-14.48-12.74-14.55l-.75,.38s1.24,2.37,3.98,5.78v1.37c-2.81-3.45-4.05-5.82-4.07-5.86l-.75,.38s1.48,2.85,4.81,6.79v27.69h-2.28v.44h2.28v1.68h-2.28v1.77h91.87v-1.77h-1.17v-1.68h1.17Zm-10.51-.44h-5.77v-5.05c2.01-.6,3.94-1.24,5.77-1.92v6.97Zm-66.86-16.56c1.76,1.24,3.71,2.51,5.86,3.75v12.81h-5.86v-16.56Zm-.25,16.56h-5.86v-21.43c.63,.57,1.3,1.14,2,1.72,1.16,.96,2.45,1.96,3.86,2.97v16.74Zm55.07-4.28c-1.93,.44-3.94,.83-6.03,1.17v-.96c2.09-.35,4.09-.76,6.03-1.21v1Zm.25-1.06c2-.47,3.93-.99,5.77-1.55v1.05c-1.85,.55-3.77,1.05-5.77,1.51v-1Zm-6.53,2.27c-1.24,.2-2.51,.38-3.8,.54,0-.01,0-.02,0-.03,0-.31-.07-.61-.18-.87,1.36-.18,2.69-.37,3.99-.59v.96Zm-8.17,.53c-1.26-.16-2.5-.34-3.72-.53v-.96c1.27,.21,2.57,.41,3.9,.58-.12,.27-.19,.57-.19,.88,0,0,0,.02,0,.02Zm-3.97-.57c-2.09-.34-4.09-.73-6.03-1.17v-1c1.93,.45,3.94,.86,6.03,1.21v.96Zm-6.28-1.23c-2-.46-3.93-.97-5.77-1.51v-1.05c1.84,.56,3.77,1.08,5.77,1.55v1Zm-6.02-1.59c-2.02-.6-3.94-1.26-5.77-1.94v-1.09c1.83,.7,3.75,1.37,5.77,1.99v1.05Zm-6.02-2.04c-2.07-.78-4.02-1.61-5.86-2.48v-1.14c1.84,.88,3.79,1.72,5.86,2.52v1.09Zm-6.11-2.59c-2.1-.99-4.05-2.03-5.86-3.07v-1.19c1.8,1.06,3.75,2.11,5.86,3.12v1.14Zm-6.11-3.22c-2.16-1.26-4.11-2.55-5.86-3.81v-1.24c1.75,1.27,3.69,2.58,5.86,3.86v1.19Zm.25,1.11c1.81,1.03,3.76,2.05,5.86,3.03v9.63h-5.86v-12.67Zm6.11,3.15c1.84,.85,3.79,1.67,5.86,2.45v7.07h-5.86v-9.52Zm6.11,2.54c1.83,.68,3.76,1.33,5.77,1.92v5.05h-5.77v-6.97Zm6.02,2c1.85,.54,3.77,1.04,5.77,1.5v3.48h-5.77v-4.98Zm6.02,1.55c1.94,.43,3.95,.82,6.03,1.16v2.26h-6.03v-3.42Zm6.28,1.2c1.27,.2,2.58,.39,3.91,.55,.17,.38,.44,.7,.78,.92h-.77v.75h-3.92v-2.22Zm7.11,1.47c.34-.22,.61-.54,.78-.91,1.36-.17,2.7-.35,4-.56v2.22h-4.01v-.75h-.77Zm5.03-1.51c2.08-.34,4.09-.73,6.03-1.16v3.42h-6.03v-2.26Zm6.28-1.22c2-.45,3.92-.96,5.77-1.5v4.98h-5.77v-3.48Zm11.79-4.39c-1.83,.69-3.75,1.34-5.77,1.94v-1.05c2.02-.62,3.94-1.28,5.77-1.99v1.09Zm-67.11-11.14v1.24c-1.19-.87-2.29-1.72-3.29-2.55-.91-.75-1.77-1.5-2.57-2.24v-1.3c.88,.82,1.82,1.65,2.83,2.48,.93,.77,1.94,1.56,3.02,2.36Zm-11.71-11.05c1.45,1.78,3.3,3.82,5.6,5.97v1.3c-2.29-2.12-4.14-4.15-5.6-5.91v-1.37Zm0,2.67c1.5,1.75,3.35,3.71,5.6,5.74v21.65h-5.6v-27.4Zm.45,29.51h-.45v-1.68h.45v1.68Zm2.03,0h-1.62v-1.68h1.62v1.68Zm2.03,0h-1.62v-1.68h1.62v1.68Zm.41,0v-1.68h.69v1.68h-.69Zm1.62,0h-.68v-1.68h.68v1.68Zm2.03,0h-1.62v-1.68h1.62v1.68Zm2.03,0h-1.62v-1.68h1.62v1.68Zm.41,0v-1.68h.71v1.68h-.71Zm1.62,0h-.66v-1.68h.66v1.68Zm2.03,0h-1.62v-1.68h1.62v1.68Zm2.03,0h-1.62v-1.68h1.62v1.68Zm.41,0v-1.68h.74v1.68h-.74Zm1.62,0h-.63v-1.68h.63v1.68Zm2.03,0h-1.62v-1.68h1.62v1.68Zm2.03,0h-1.62v-1.68h1.62v1.68Zm.41,0v-1.68h.77v1.68h-.77Zm1.62,0h-.6v-1.68h.6v1.68Zm2.03,0h-1.62v-1.68h1.62v1.68Zm2.03,0h-1.62v-1.68h1.62v1.68Zm.41,0v-1.68h.79v1.68h-.79Zm1.62,0h-.58v-1.68h.58v1.68Zm2.03,0h-1.62v-1.68h1.62v1.68Zm2.03,0h-1.62v-1.68h1.62v1.68Zm.41,0v-1.68h.73v1.68h-.73Zm1.62,0h-.64v-1.68h.64v1.68Zm2.03,0h-1.62v-1.68h1.62v1.68Zm2.03,0h-1.62v-1.68h1.62v1.68Zm.41,0v-1.68h.67v1.68h-.67Zm1.62,0h-.7v-1.68h.7v1.68Zm2.03,0h-1.62v-1.68h1.62v1.68Zm2.03,0h-1.62v-1.68h1.62v1.68Zm.41,0v-1.68h.87v1.68h-.87Zm1.78,0h-.66v-1.68h.66v1.68Zm2.03,0h-1.62v-1.68h1.62v1.68Zm.41-1.68h.83v1.68h-.83v-1.68Zm5.64,1.68h-.86v-1.68h.86v1.68Zm2.03,0h-1.62v-1.68h1.62v1.68Zm.41,0v-1.68h.72v1.68h-.72Zm1.62,0h-.65v-1.68h.65v1.68Zm2.03,0h-1.62v-1.68h1.62v1.68Zm2.03,0h-1.62v-1.68h1.62v1.68Zm.41,0v-1.68h.91v1.68h-.91Zm1.62,0h-.45v-1.68h.45v1.68Zm2.03,0h-1.62v-1.68h1.62v1.68Zm2.03,0h-1.62v-1.68h1.62v1.68Zm.41,0v-1.68h.86v1.68h-.86Zm1.62,0h-.51v-1.68h.51v1.68Zm2.03,0h-1.62v-1.68h1.62v1.68Zm2.03,0h-1.62v-1.68h1.62v1.68Zm.41,0v-1.68h.8v1.68h-.8Zm1.62,0h-.57v-1.68h.57v1.68Zm2.03,0h-1.62v-1.68h1.62v1.68Zm2.03,0h-1.62v-1.68h1.62v1.68Zm2.03,0h-1.62v-1.68h1.62v1.68Zm2.03,0h-1.62v-1.68h1.62v1.68Z"/><circle class="cls-6" cx="855.09" cy="73.09" r="1.17"/></g><g><path class="cls-17" d="M619.63,76.1v1.68h-1.17v1.77h91.87v-1.77h-2.28v-1.68h2.28v-.44h-2.28v-27.69c3.33-3.95,4.79-6.75,4.81-6.79l-.75-.38s-1.26,2.42-4.07,5.86v-1.37c2.74-3.4,3.96-5.74,3.98-5.78l-.75-.38c-.04,.07-3.69,7.07-12.74,14.55-8.07,6.67-22.14,15.04-43.84,17.77-.38-.33-.88-.52-1.42-.52s-1.05,.2-1.43,.53c-14.05-1.76-24.91-5.88-33.01-10.38v.96c2.94,1.61,6.22,3.16,9.88,4.58v1.09c-3.65-1.39-6.94-2.91-9.88-4.5v.95c2.95,1.57,6.23,3.08,9.88,4.44v7.07h-10.26v.44h1.17Zm9.34-7.42c1.83,.68,3.76,1.33,5.77,1.92v5.05h-5.77v-6.97Zm66.86,6.97h-5.86v-12.81c2.15-1.24,4.1-2.5,5.86-3.75v16.56Zm.25-16.74c1.41-1.01,2.7-2.01,3.86-2.97,.7-.58,1.36-1.15,2-1.72v21.43h-5.86v-16.74Zm-55.07,11.45c1.93,.45,3.94,.86,6.03,1.21v.96c-2.09-.34-4.09-.73-6.03-1.17v-1Zm-.25,.94c-2-.46-3.93-.97-5.77-1.51v-1.05c1.85,.56,3.77,1.08,5.77,1.55v1Zm6.53,.31c1.3,.22,2.63,.42,3.99,.59-.12,.27-.18,.56-.18,.87,0,.01,0,.02,0,.03-1.3-.16-2.56-.34-3.8-.54v-.96Zm8.17,1.47c0-.32-.07-.61-.19-.88,1.33-.17,2.63-.37,3.9-.58v.96c-1.21,.2-2.45,.37-3.72,.53,0,0,0-.02,0-.02Zm3.97-1.51c2.09-.35,4.09-.76,6.03-1.21v1c-1.94,.44-3.94,.83-6.03,1.17v-.96Zm6.28-1.27c2-.47,3.93-.99,5.77-1.55v1.05c-1.85,.55-3.77,1.05-5.77,1.51v-1Zm6.02-1.63c2.02-.62,3.94-1.28,5.77-1.99v1.09c-1.83,.69-3.75,1.34-5.77,1.94v-1.05Zm6.02-2.08c2.07-.8,4.02-1.65,5.86-2.52v1.14c-1.84,.86-3.79,1.69-5.86,2.48v-1.09Zm6.11-2.64c2.1-1.01,4.05-2.06,5.86-3.12v1.19c-1.81,1.05-3.76,2.08-5.86,3.07v-1.14Zm6.11-3.27c2.16-1.28,4.11-2.59,5.86-3.86v1.24c-1.75,1.26-3.7,2.54-5.86,3.81v-1.19Zm-.25,14.97h-5.86v-9.63c2.1-.98,4.05-2,5.86-3.03v12.67Zm-6.11,0h-5.86v-7.07c2.07-.77,4.02-1.6,5.86-2.45v9.52Zm-6.11,0h-5.77v-5.05c2.02-.6,3.94-1.24,5.77-1.92v6.97Zm-6.02,0h-5.77v-3.48c2-.45,3.93-.96,5.77-1.5v4.98Zm-6.02,0h-6.03v-2.26c2.08-.34,4.09-.73,6.03-1.16v3.42Zm-6.28,0h-3.92v-.75h-.77c.34-.23,.61-.55,.78-.92,1.33-.16,2.63-.35,3.91-.55v2.22Zm-7.88-.75v.75h-4.01v-2.22c1.3,.21,2.64,.4,4,.56,.17,.37,.44,.69,.78,.91h-.77Zm-4.26,.75h-6.03v-3.42c1.94,.43,3.95,.82,6.03,1.16v2.26Zm-6.28,0h-5.77v-4.98c1.85,.54,3.77,1.04,5.77,1.5v3.48Zm-11.79-8.96c1.83,.7,3.75,1.37,5.77,1.99v1.05c-2.02-.6-3.94-1.26-5.77-1.94v-1.09Zm70.14-12.42c1.01-.84,1.95-1.67,2.83-2.48v1.3c-.8,.74-1.66,1.48-2.57,2.24-1,.83-2.1,1.68-3.29,2.55v-1.24c1.09-.8,2.1-1.59,3.02-2.36Zm8.68-7.32c-1.45,1.76-3.31,3.78-5.6,5.91v-1.3c2.3-2.15,4.15-4.2,5.6-5.97v1.37Zm0,28.7h-5.6v-21.65c2.25-2.04,4.1-4,5.6-5.74v27.4Zm-.45,.44h.45v1.68h-.45v-1.68Zm-2.03,0h1.62v1.68h-1.62v-1.68Zm-2.03,0h1.62v1.68h-1.62v-1.68Zm-1.09,1.68v-1.68h.69v1.68h-.69Zm-.94-1.68h.68v1.68h-.68v-1.68Zm-2.03,0h1.62v1.68h-1.62v-1.68Zm-2.03,0h1.62v1.68h-1.62v-1.68Zm-1.12,1.68v-1.68h.71v1.68h-.71Zm-.91-1.68h.66v1.68h-.66v-1.68Zm-2.03,0h1.62v1.68h-1.62v-1.68Zm-2.03,0h1.62v1.68h-1.62v-1.68Zm-1.15,1.68v-1.68h.74v1.68h-.74Zm-.88-1.68h.63v1.68h-.63v-1.68Zm-2.03,0h1.62v1.68h-1.62v-1.68Zm-2.03,0h1.62v1.68h-1.62v-1.68Zm-1.17,1.68v-1.68h.77v1.68h-.77Zm-.86-1.68h.6v1.68h-.6v-1.68Zm-2.03,0h1.62v1.68h-1.62v-1.68Zm-2.03,0h1.62v1.68h-1.62v-1.68Zm-1.2,1.68v-1.68h.79v1.68h-.79Zm-.83-1.68h.58v1.68h-.58v-1.68Zm-2.03,0h1.62v1.68h-1.62v-1.68Zm-2.03,0h1.62v1.68h-1.62v-1.68Zm-1.14,1.68v-1.68h.73v1.68h-.73Zm-.89-1.68h.64v1.68h-.64v-1.68Zm-2.03,0h1.62v1.68h-1.62v-1.68Zm-2.03,0h1.62v1.68h-1.62v-1.68Zm-1.08,1.68v-1.68h.67v1.68h-.67Zm-.95-1.68h.7v1.68h-.7v-1.68Zm-2.03,0h1.62v1.68h-1.62v-1.68Zm-2.03,0h1.62v1.68h-1.62v-1.68Zm-1.28,1.68v-1.68h.87v1.68h-.87Zm-.91-1.68h.66v1.68h-.66v-1.68Zm-2.03,0h1.62v1.68h-1.62v-1.68Zm-.41,1.68h-.83v-1.68h.83v1.68Zm-5.64-1.68h.86v1.68h-.86v-1.68Zm-2.03,0h1.62v1.68h-1.62v-1.68Zm-1.12,1.68v-1.68h.72v1.68h-.72Zm-.91-1.68h.65v1.68h-.65v-1.68Zm-2.03,0h1.62v1.68h-1.62v-1.68Zm-2.03,0h1.62v1.68h-1.62v-1.68Zm-1.32,1.68v-1.68h.91v1.68h-.91Zm-.71-1.68h.45v1.68h-.45v-1.68Zm-2.03,0h1.62v1.68h-1.62v-1.68Zm-2.03,0h1.62v1.68h-1.62v-1.68Zm-1.26,1.68v-1.68h.86v1.68h-.86Zm-.77-1.68h.51v1.68h-.51v-1.68Zm-2.03,0h1.62v1.68h-1.62v-1.68Zm-2.03,0h1.62v1.68h-1.62v-1.68Zm-1.2,1.68v-1.68h.8v1.68h-.8Zm-.83-1.68h.57v1.68h-.57v-1.68Zm-2.03,0h1.62v1.68h-1.62v-1.68Zm-2.03,0h1.62v1.68h-1.62v-1.68Zm-2.03,0h1.62v1.68h-1.62v-1.68Zm-2.03,0h1.62v1.68h-1.62v-1.68Z"/><circle class="cls-6" cx="653.29" cy="73.09" r="1.17"/></g></g><g><g><g><rect class="cls-17" x="736.02" y="31.56" width=".48" height="5.97" transform="translate(240.06 -510.48) rotate(45)"/><rect class="cls-17" x="736.02" y="31.56" width=".48" height="5.97" transform="translate(191.21 530.72) rotate(-45)"/></g><g><rect class="cls-17" x="731.86" y="31.56" width=".48" height="5.97" transform="translate(238.84 -507.54) rotate(45)"/><rect class="cls-17" x="731.86" y="31.56" width=".48" height="5.97" transform="translate(190 527.79) rotate(-45)"/></g><g><rect class="cls-17" x="727.7" y="31.56" width=".48" height="5.97" transform="translate(237.62 -504.6) rotate(45)"/><rect class="cls-17" x="727.7" y="31.56" width=".48" height="5.97" transform="translate(188.77 524.83) rotate(-45)"/></g></g><g><g><rect class="cls-17" x="748.6" y="31.56" width=".48" height="5.97" transform="translate(243.75 -519.38) rotate(45)"/><rect class="cls-17" x="748.6" y="31.56" width=".48" height="5.97" transform="translate(194.89 539.62) rotate(-45)"/></g><g><rect class="cls-17" x="744.44" y="31.56" width=".48" height="5.97" transform="translate(242.54 -516.45) rotate(45)"/><rect class="cls-17" x="744.44" y="31.56" width=".48" height="5.97" transform="translate(193.68 536.69) rotate(-45)"/></g><g><rect class="cls-17" x="740.28" y="31.56" width=".48" height="5.97" transform="translate(241.31 -513.49) rotate(45)"/><rect class="cls-17" x="740.28" y="31.56" width=".48" height="5.97" transform="translate(192.45 533.73) rotate(-45)"/></g></g><g><g><rect class="cls-17" x="765.16" y="31.56" width=".48" height="5.97" transform="translate(1331.06 -482.23) rotate(135)"/><rect class="cls-17" x="765.16" y="31.56" width=".48" height="5.97" transform="translate(1282.21 600.18) rotate(-135)"/></g><g><rect class="cls-17" x="769.32" y="31.56" width=".48" height="5.97" transform="translate(1338.15 -485.19) rotate(135)"/><rect class="cls-17" x="769.32" y="31.56" width=".48" height="5.97" transform="translate(1289.31 603.13) rotate(-135)"/></g><g><rect class="cls-17" x="773.49" y="31.56" width=".48" height="5.97" transform="translate(1345.27 -488.11) rotate(135)"/><rect class="cls-17" x="773.49" y="31.56" width=".48" height="5.97" transform="translate(1296.41 606.07) rotate(-135)"/></g></g><g><g><rect class="cls-17" x="777.75" y="31.56" width=".48" height="5.97" transform="translate(1352.55 -491.13) rotate(135)"/><rect class="cls-17" x="777.75" y="31.56" width=".48" height="5.97" transform="translate(1303.7 609.08) rotate(-135)"/></g><g><rect class="cls-17" x="781.91" y="31.56" width=".48" height="5.97" transform="translate(1359.65 -494.09) rotate(135)"/><rect class="cls-17" x="781.91" y="31.56" width=".48" height="5.97" transform="translate(1310.8 612.03) rotate(-135)"/></g><g><rect class="cls-17" x="786.08" y="31.56" width=".48" height="5.97" transform="translate(1366.76 -497.02) rotate(135)"/><rect class="cls-17" x="786.08" y="31.56" width=".48" height="5.97" transform="translate(1317.91 614.97) rotate(-135)"/></g></g><g><g><rect class="cls-17" x="752.73" y="31.56" width=".48" height="5.97" transform="translate(1309.84 -473.44) rotate(135)"/><rect class="cls-17" x="752.73" y="31.56" width=".48" height="5.97" transform="translate(1260.97 591.41) rotate(-135)"/></g><g><rect class="cls-17" x="756.9" y="31.56" width=".48" height="5.97" transform="translate(1316.95 -476.38) rotate(135)"/><rect class="cls-17" x="756.9" y="31.56" width=".48" height="5.97" transform="translate(1268.09 594.34) rotate(-135)"/></g><g><rect class="cls-17" x="761.06" y="31.56" width=".48" height="5.97" transform="translate(1324.05 -479.33) rotate(135)"/><rect class="cls-17" x="761.06" y="31.56" width=".48" height="5.97" transform="translate(1275.2 597.28) rotate(-135)"/></g></g><rect class="cls-17" x="726.89" y="31.88" width="54.6" height=".94"/><rect class="cls-17" x="726.89" y="36.35" width="54.6" height=".94"/></g><polygon class="cls-10" points="719.51 9.66 714.07 26.15 724.96 26.15 719.51 9.66"/><polygon class="cls-10" points="723.56 19.69 723.82 19.69 728.14 19.69 728.4 19.69 728.4 21.17 727.9 21.17 727.9 82.73 724.05 82.73 724.05 21.17 723.56 21.17 723.56 19.69"/><polygon class="cls-10" points="725.96 13.62 724.04 19.78 727.88 19.78 725.96 13.62"/><rect class="cls-10" x="713.54" y="25.17" width="11.75" height="57.57" transform="translate(1438.83 107.9) rotate(180)"/><g><rect class="cls-6" x="715.79" y="44.55" width="7.25" height="3.86" transform="translate(1438.83 92.97) rotate(180)"/><g><rect class="cls-17" x="721.06" y="44.89" width="1.63" height="3.11" transform="translate(1443.76 92.89) rotate(180)"/><rect class="cls-17" x="718.62" y="44.89" width="1.63" height="3.11" transform="translate(1438.87 92.89) rotate(180)"/><rect class="cls-17" x="716.17" y="44.89" width="1.63" height="3.11" transform="translate(1433.98 92.89) rotate(180)"/></g></g><g><rect class="cls-6" x="715.79" y="56.23" width="7.25" height="3.86" transform="translate(1438.83 116.32) rotate(180)"/><g><rect class="cls-17" x="721.06" y="56.57" width="1.63" height="3.11" transform="translate(1443.76 116.25) rotate(180)"/><rect class="cls-17" x="718.62" y="56.57" width="1.63" height="3.11" transform="translate(1438.87 116.25) rotate(180)"/><rect class="cls-17" x="716.17" y="56.57" width="1.63" height="3.11" transform="translate(1433.98 116.25) rotate(180)"/></g></g><polygon class="cls-6" points="719.51 17.72 722.11 19.97 722.11 25.46 716.92 25.46 716.92 19.97 719.51 17.72"/><g><rect class="cls-17" x="717.69" y="22.44" width="1.68" height="2.4"/><rect class="cls-17" x="717.69" y="20.38" width="1.68" height="1.64"/></g><g><rect class="cls-17" x="719.77" y="22.44" width="1.68" height="2.4"/><rect class="cls-17" x="719.77" y="20.38" width="1.68" height="1.64"/></g><polygon class="cls-10" points="710.44 19.69 710.69 19.69 715.01 19.69 715.27 19.69 715.27 21.17 714.78 21.17 714.78 82.73 710.93 82.73 710.93 21.17 710.44 21.17 710.44 19.69"/><g><rect class="cls-17" x="710.68" y="29.55" width="17.46" height=".67" transform="translate(1438.83 59.77) rotate(180)"/><g><rect class="cls-17" x="710.68" y="39.4" width="17.46" height=".67" transform="translate(1438.83 79.46) rotate(180)"/><rect class="cls-17" x="710.68" y="42.3" width="17.46" height=".67" transform="translate(1438.83 85.28) rotate(180)"/></g><g><rect class="cls-17" x="710.68" y="51.26" width="17.46" height=".67" transform="translate(1438.83 103.18) rotate(180)"/><rect class="cls-17" x="710.68" y="54.16" width="17.46" height=".67" transform="translate(1438.83 109) rotate(180)"/></g><g><rect class="cls-17" x="710.68" y="63.12" width="17.46" height=".67" transform="translate(1438.83 126.9) rotate(180)"/><rect class="cls-17" x="710.68" y="66.02" width="17.46" height=".67" transform="translate(1438.83 132.72) rotate(180)"/></g></g><rect class="cls-16" x="708.79" y="75.66" width="21.25" height="15.72" transform="translate(1438.83 167.03) rotate(180)"/><polygon class="cls-10" points="712.84 13.62 710.92 19.78 714.76 19.78 712.84 13.62"/><g><rect class="cls-6" x="715.79" y="31.6" width="7.25" height="6.39" transform="translate(1438.83 69.6) rotate(180)"/><rect class="cls-17" x="716.29" y="34.15" width="1.71" height="3.43" transform="translate(1434.29 71.73) rotate(180)"/><rect class="cls-17" x="718.56" y="34.15" width="1.71" height="3.43" transform="translate(1438.84 71.73) rotate(180)"/><rect class="cls-17" x="720.84" y="34.15" width="1.71" height="3.43" transform="translate(1443.39 71.73) rotate(180)"/><rect class="cls-17" x="716.29" y="32.01" width="1.71" height="1.68" transform="translate(1434.29 65.69) rotate(180)"/><rect class="cls-17" x="718.56" y="32.01" width="1.71" height="1.68" transform="translate(1438.84 65.69) rotate(180)"/><rect class="cls-17" x="720.84" y="32.01" width="1.71" height="1.68" transform="translate(1443.39 65.69) rotate(180)"/></g><g><rect class="cls-6" x="715.79" y="68.03" width="7.25" height="6.39" transform="translate(1438.83 142.46) rotate(180)"/><rect class="cls-17" x="716.29" y="70.58" width="1.71" height="3.43" transform="translate(1434.29 144.59) rotate(180)"/><rect class="cls-17" x="718.56" y="70.58" width="1.71" height="3.43" transform="translate(1438.84 144.59) rotate(180)"/><rect class="cls-17" x="720.84" y="70.58" width="1.71" height="3.43" transform="translate(1443.39 144.59) rotate(180)"/><rect class="cls-17" x="716.29" y="68.44" width="1.71" height="1.68" transform="translate(1434.29 138.55) rotate(180)"/><rect class="cls-17" x="718.56" y="68.44" width="1.71" height="1.68" transform="translate(1438.84 138.55) rotate(180)"/><rect class="cls-17" x="720.84" y="68.44" width="1.71" height="1.68" transform="translate(1443.39 138.55) rotate(180)"/></g><path class="cls-17" d="M727.69,77.78v1.74h53v-1.74h-2.98v-1.68h2.98v-.44h-53v.44h2.98v1.68h-2.98Zm47.99-1.68h1.62v1.68h-1.62v-1.68Zm-2.03,0h1.62v1.68h-1.62v-1.68Zm-2.03,0h1.62v1.68h-1.62v-1.68Zm-2.03,0h1.62v1.68h-1.62v-1.68Zm-2.03,0h1.62v1.68h-1.62v-1.68Zm-2.03,0h1.62v1.68h-1.62v-1.68Zm-2.03,0h1.62v1.68h-1.62v-1.68Zm-2.03,0h1.62v1.68h-1.62v-1.68Zm-2.03,0h1.62v1.68h-1.62v-1.68Zm-2.03,0h1.62v1.68h-1.62v-1.68Zm-2.03,0h1.62v1.68h-1.62v-1.68Zm-2.03,0h1.62v1.68h-1.62v-1.68Zm-2.03,0h1.62v1.68h-1.62v-1.68Zm-2.03,0h1.62v1.68h-1.62v-1.68Zm-2.03,0h1.62v1.68h-1.62v-1.68Zm-2.03,0h1.62v1.68h-1.62v-1.68Zm-2.03,0h1.62v1.68h-1.62v-1.68Zm-2.03,0h1.62v1.68h-1.62v-1.68Zm-2.03,0h1.62v1.68h-1.62v-1.68Zm-2.03,0h1.62v1.68h-1.62v-1.68Zm-2.03,0h1.62v1.68h-1.62v-1.68Zm-2.03,0h1.62v1.68h-1.62v-1.68Zm-2.03,0h1.62v1.68h-1.62v-1.68Z"/><rect class="cls-17" x="724.89" y="82.56" width="20.36" height=".7" transform="translate(20.1 272.71) rotate(-21.3)"/><rect class="cls-17" x="762.32" y="82.56" width="20.36" height=".7" transform="translate(1462.1 440.8) rotate(-158.7)"/><polygon class="cls-10" points="789.18 9.66 783.74 26.15 794.63 26.15 789.18 9.66"/><polygon class="cls-10" points="793.23 19.69 793.48 19.69 797.81 19.69 798.06 19.69 798.06 21.17 797.57 21.17 797.57 82.73 793.72 82.73 793.72 21.17 793.23 21.17 793.23 19.69"/><polygon class="cls-10" points="795.63 13.62 793.71 19.78 797.55 19.78 795.63 13.62"/><rect class="cls-10" x="783.21" y="25.17" width="11.75" height="57.57" transform="translate(1578.16 107.9) rotate(180)"/><g><rect class="cls-6" x="785.45" y="44.55" width="7.25" height="3.86" transform="translate(1578.16 92.97) rotate(180)"/><g><rect class="cls-17" x="790.73" y="44.89" width="1.63" height="3.11" transform="translate(1583.09 92.89) rotate(180)"/><rect class="cls-17" x="788.28" y="44.89" width="1.63" height="3.11" transform="translate(1578.2 92.89) rotate(180)"/><rect class="cls-17" x="785.84" y="44.89" width="1.63" height="3.11" transform="translate(1573.31 92.89) rotate(180)"/></g></g><g><rect class="cls-6" x="785.45" y="56.23" width="7.25" height="3.86" transform="translate(1578.16 116.32) rotate(180)"/><g><rect class="cls-17" x="790.73" y="56.57" width="1.63" height="3.11" transform="translate(1583.09 116.25) rotate(180)"/><rect class="cls-17" x="788.28" y="56.57" width="1.63" height="3.11" transform="translate(1578.2 116.25) rotate(180)"/><rect class="cls-17" x="785.84" y="56.57" width="1.63" height="3.11" transform="translate(1573.31 116.25) rotate(180)"/></g></g><polygon class="cls-6" points="789.18 17.72 791.78 19.97 791.78 25.46 786.58 25.46 786.58 19.97 789.18 17.72"/><g><rect class="cls-17" x="787.36" y="22.44" width="1.68" height="2.4"/><rect class="cls-17" x="787.36" y="20.38" width="1.68" height="1.64"/></g><g><rect class="cls-17" x="789.43" y="22.44" width="1.68" height="2.4"/><rect class="cls-17" x="789.43" y="20.38" width="1.68" height="1.64"/></g><polygon class="cls-10" points="780.1 19.69 780.36 19.69 784.68 19.69 784.94 19.69 784.94 21.17 784.44 21.17 784.44 82.73 780.6 82.73 780.6 21.17 780.1 21.17 780.1 19.69"/><g><rect class="cls-17" x="780.35" y="29.55" width="17.46" height=".67" transform="translate(1578.16 59.77) rotate(180)"/><g><rect class="cls-17" x="780.35" y="39.4" width="17.46" height=".67" transform="translate(1578.16 79.46) rotate(180)"/><rect class="cls-17" x="780.35" y="42.3" width="17.46" height=".67" transform="translate(1578.16 85.28) rotate(180)"/></g><g><rect class="cls-17" x="780.35" y="51.26" width="17.46" height=".67" transform="translate(1578.16 103.18) rotate(180)"/><rect class="cls-17" x="780.35" y="54.16" width="17.46" height=".67" transform="translate(1578.16 109) rotate(180)"/></g><g><rect class="cls-17" x="780.35" y="63.12" width="17.46" height=".67" transform="translate(1578.16 126.9) rotate(180)"/><rect class="cls-17" x="780.35" y="66.02" width="17.46" height=".67" transform="translate(1578.16 132.72) rotate(180)"/></g></g><polygon class="cls-10" points="782.5 13.62 780.58 19.78 784.43 19.78 782.5 13.62"/><g><rect class="cls-6" x="785.45" y="31.6" width="7.25" height="6.39" transform="translate(1578.16 69.6) rotate(180)"/><rect class="cls-17" x="785.96" y="34.15" width="1.71" height="3.43" transform="translate(1573.62 71.73) rotate(180)"/><rect class="cls-17" x="788.23" y="34.15" width="1.71" height="3.43" transform="translate(1578.17 71.73) rotate(180)"/><rect class="cls-17" x="790.5" y="34.15" width="1.71" height="3.43" transform="translate(1582.72 71.73) rotate(180)"/><rect class="cls-17" x="785.96" y="32.01" width="1.71" height="1.68" transform="translate(1573.62 65.69) rotate(180)"/><rect class="cls-17" x="788.23" y="32.01" width="1.71" height="1.68" transform="translate(1578.17 65.69) rotate(180)"/><rect class="cls-17" x="790.5" y="32.01" width="1.71" height="1.68" transform="translate(1582.72 65.69) rotate(180)"/></g><g><rect class="cls-6" x="785.45" y="68.03" width="7.25" height="6.39" transform="translate(1578.16 142.46) rotate(180)"/><rect class="cls-17" x="785.96" y="70.58" width="1.71" height="3.43" transform="translate(1573.62 144.59) rotate(180)"/><rect class="cls-17" x="788.23" y="70.58" width="1.71" height="3.43" transform="translate(1578.17 144.59) rotate(180)"/><rect class="cls-17" x="790.5" y="70.58" width="1.71" height="3.43" transform="translate(1582.72 144.59) rotate(180)"/><rect class="cls-17" x="785.96" y="68.44" width="1.71" height="1.68" transform="translate(1573.62 138.55) rotate(180)"/><rect class="cls-17" x="788.23" y="68.44" width="1.71" height="1.68" transform="translate(1578.17 138.55) rotate(180)"/><rect class="cls-17" x="790.5" y="68.44" width="1.71" height="1.68" transform="translate(1582.72 138.55) rotate(180)"/></g><rect class="cls-16" x="778.34" y="75.66" width="21.25" height="15.72"/></g></g><g class="cls-19"><g><g><rect class="cls-16" x="678.23" y="50.98" width="15.08" height="59.68"/><path class="cls-9" d="M680.34,55.67c-.25,0-.45,.21-.45,.48v52.93h.91V56.15c0-.26-.2-.48-.45-.48Z"/><path class="cls-9" d="M682.15,55.67c-.25,0-.45,.21-.45,.48v52.93h.91V56.15c0-.26-.2-.48-.45-.48Z"/><path class="cls-9" d="M683.96,55.67c-.25,0-.45,.21-.45,.48v52.93h.91V56.15c0-.26-.2-.48-.45-.48Z"/><path class="cls-9" d="M685.77,55.67c-.25,0-.45,.21-.45,.48v52.93h.91V56.15c0-.26-.2-.48-.45-.48Z"/><path class="cls-9" d="M687.58,55.67c-.25,0-.45,.21-.45,.48v52.93h.91V56.15c0-.26-.2-.48-.45-.48Z"/><path class="cls-9" d="M689.39,55.67c-.25,0-.45,.21-.45,.48v52.93h.91V56.15c0-.26-.2-.48-.45-.48Z"/><path class="cls-9" d="M691.2,55.67c-.25,0-.45,.21-.45,.48v52.93h.91V56.15c0-.26-.2-.48-.45-.48Z"/><g><rect class="cls-10" x="678.23" y="63.69" width="15.08" height=".74"/><rect class="cls-10" x="678.23" y="65.73" width="15.08" height=".74"/></g><g><rect class="cls-10" x="678.23" y="74.61" width="15.08" height=".74"/><rect class="cls-10" x="678.23" y="76.65" width="15.08" height=".74"/></g><g><rect class="cls-10" x="678.23" y="85.53" width="15.08" height=".74"/><rect class="cls-10" x="678.23" y="87.57" width="15.08" height=".74"/></g></g><g><rect class="cls-16" x="678.23" y="32.46" width="15.08" height="5.33"/><g><path class="cls-9" d="M680.34,33.34c-.25,0-.45,.21-.45,.48v3.97h.91v-3.97c0-.26-.2-.48-.45-.48Z"/><path class="cls-9" d="M681.89,33.34c-.25,0-.45,.21-.45,.48v3.97h.91v-3.97c0-.26-.2-.48-.45-.48Z"/><path class="cls-9" d="M683.44,33.34c-.25,0-.45,.21-.45,.48v3.97h.91v-3.97c0-.26-.2-.48-.45-.48Z"/><path class="cls-9" d="M684.99,33.34c-.25,0-.45,.21-.45,.48v3.97h.91v-3.97c0-.26-.2-.48-.45-.48Z"/><path class="cls-9" d="M686.54,33.34c-.25,0-.45,.21-.45,.48v3.97h.91v-3.97c0-.26-.2-.48-.45-.48Z"/><path class="cls-9" d="M688.09,33.34c-.25,0-.45,.21-.45,.48v3.97h.91v-3.97c0-.26-.2-.48-.45-.48Z"/><path class="cls-9" d="M689.65,33.34c-.25,0-.45,.21-.45,.48v3.97h.91v-3.97c0-.26-.2-.48-.45-.48Z"/><path class="cls-9" d="M691.2,33.34c-.25,0-.45,.21-.45,.48v3.97h.91v-3.97c0-.26-.2-.48-.45-.48Z"/></g></g><g><rect class="cls-16" x="681.79" y="19.36" width="7.96" height="4.63"/><path class="cls-9" d="M683.53,20.7c-.21,0-.37,.18-.37,.39v2.9h.75v-2.9c0-.22-.17-.39-.37-.39Z"/><path class="cls-9" d="M685.02,20.7c-.21,0-.37,.18-.37,.39v2.9h.75v-2.9c0-.22-.17-.39-.37-.39Z"/><path class="cls-9" d="M686.51,20.7c-.21,0-.37,.18-.37,.39v2.9h.75v-2.9c0-.22-.17-.39-.37-.39Z"/><path class="cls-9" d="M688,20.7c-.21,0-.37,.18-.37,.39v2.9h.75v-2.9c0-.22-.17-.39-.37-.39Z"/></g><g><rect class="cls-10" x="676.7" y="36.73" width="18.12" height="17.27"/><g><rect class="cls-9" x="677.71" y="38.42" width=".88" height="12.07"/><rect class="cls-9" x="685.47" y="31.65" width=".59" height="11.96" transform="translate(723.4 -648.14) rotate(90)"/><rect class="cls-9" x="693.06" y="37.16" width=".59" height=".93" transform="translate(730.98 -655.73) rotate(90)"/><rect class="cls-9" x="677.89" y="37.16" width=".59" height=".93" transform="translate(715.81 -640.55) rotate(90)"/><rect class="cls-9" x="677.71" y="51.25" width=".88" height="2.1"/><rect class="cls-9" x="692.94" y="38.42" width=".88" height="12.07" transform="translate(1386.76 88.92) rotate(180)"/><rect class="cls-9" x="692.94" y="51.25" width=".88" height="2.1" transform="translate(1386.76 104.61) rotate(180)"/></g><g><rect class="cls-10" x="679.79" y="38.45" width="11.96" height="11.96"/><circle class="cls-16" cx="685.77" cy="44.43" r="4.8"/><circle class="cls-6" cx="685.77" cy="44.43" r="4.29"/><path class="cls-10" d="M685.77,41.54c-1.59,0-2.88,1.29-2.88,2.88s1.29,2.88,2.88,2.88,2.88-1.29,2.88-2.88-1.29-2.88-2.88-2.88Zm0,5.64c-1.52,0-2.75-1.23-2.75-2.75s1.23-2.75,2.75-2.75,2.75,1.23,2.75,2.75-1.23,2.75-2.75,2.75Z"/><polyline class="cls-2" points="685.64 42.66 685.64 44.81 686.68 45.58"/></g><g><path class="cls-9" d="M680.34,51.22c-.25,0-.46,.2-.46,.45v1.22c0,.25,.2,.46,.46,.46s.46-.2,.46-.46v-1.22c0-.25-.2-.45-.46-.45Z"/><path class="cls-9" d="M681.69,51.22c-.25,0-.46,.2-.46,.45v1.22c0,.25,.2,.46,.46,.46s.46-.2,.46-.46v-1.22c0-.25-.2-.45-.46-.45Z"/><path class="cls-9" d="M683.05,51.22c-.25,0-.46,.2-.46,.45v1.22c0,.25,.2,.46,.46,.46s.46-.2,.46-.46v-1.22c0-.25-.2-.45-.46-.45Z"/><path class="cls-9" d="M684.41,51.22c-.25,0-.46,.2-.46,.45v1.22c0,.25,.2,.46,.46,.46s.46-.2,.46-.46v-1.22c0-.25-.2-.45-.46-.45Z"/><path class="cls-9" d="M685.77,51.22c-.25,0-.46,.2-.46,.45v1.22c0,.25,.2,.46,.46,.46s.46-.2,.46-.46v-1.22c0-.25-.2-.45-.46-.45Z"/><path class="cls-9" d="M687.13,51.22c-.25,0-.46,.2-.46,.45v1.22c0,.25,.2,.46,.46,.46s.46-.2,.46-.46v-1.22c0-.25-.2-.45-.46-.45Z"/><path class="cls-9" d="M688.48,51.22c-.25,0-.46,.2-.46,.45v1.22c0,.25,.2,.46,.46,.46s.46-.2,.46-.46v-1.22c0-.25-.2-.45-.46-.45Z"/><path class="cls-9" d="M689.84,51.22c-.25,0-.46,.2-.46,.45v1.22c0,.25,.2,.46,.46,.46s.46-.2,.46-.46v-1.22c0-.25-.2-.45-.46-.45Z"/><path class="cls-9" d="M691.2,51.22c-.25,0-.46,.2-.46,.45v1.22c0,.25,.2,.46,.46,.46s.46-.2,.46-.46v-1.22c0-.25-.2-.45-.46-.45Z"/></g></g><path class="cls-10" d="M692.93,30.43h-.79c-.81-.95-2.02-2.83-2.36-5.8h.4v-.85h-8.82v.85h.4c-.34,2.97-1.55,4.85-2.36,5.8h-1.68v2.2h16.09v-2.2h-.89Z"/><path class="cls-10" d="M689.52,18.67c-1.76-3.41-3.75-16.3-3.75-16.3,0,0-1.99,12.9-3.75,16.3l-.41,.03h-.24v.85h8.82v-.85h-.24l-.41-.03Z"/></g></g><g><g><path class="cls-16" d="M763.23,18.25c-2.93,0-5.33,2.32-5.33,5.16v7.11c0,2.84,2.4,4.03,5.33,4.03s5.33-1.2,5.33-4.03v-7.11c0-2.84-2.4-5.16-5.33-5.16Z"/><path class="cls-6" d="M760.73,37.91c.72-.46,1.3-1.25,1.09-2.63,0,0,2.94-.06,2.95-.06-.23,0-.1,1.06-.09,1.17,.1,.6,.47,1.05,.86,1.32,.06,.04,.13,.08,.19,.12,0,0-2.09,1.47-5,.07Z"/><g><path class="cls-6" d="M767.34,32.02c.01-1.03-.64-.86-.91-.75-.21-2.29-1.49-2.38-3.12-2.4-1.65-.02-3.06-.09-3.26,2.4-.27-.12-.91-.29-.92,.73-.01,.96,.63,1.1,.96,1.11,.2,1.85,.94,3.69,3.09,3.74,2.3,.02,3.03-1.94,3.22-3.75,.34-.01,.93-.16,.94-1.08Z"/><path class="cls-16" d="M763.32,28.33c-1.77-.02-3.28-.1-3.28,3.02,0,2.15,.52,4.9,3.15,4.96,2.8,.03,3.27-2.89,3.27-4.89,0-2.97-1.37-3.07-3.14-3.09Zm-.12,7.49c-2.42-.05-2.9-2.52-2.9-4.46,0-2.81,1.39-2.74,3.02-2.72,1.63,.02,2.9,.11,2.9,2.78,0,1.8-.44,4.43-3.02,4.4Z"/></g><path class="cls-17" d="M758.93,31.74h8.58s-.27-4.74-4.35-4.74-4.24,4.74-4.24,4.74Z"/></g><g><path class="cls-16" d="M758.89,83.8s0,0,0-.01l-2.29,.87s-1.3,.38-1.11,.95h6.75l.02-1.67-3.38-.13Z"/><path class="cls-16" d="M768.8,55.92h-11.03s-1.24,6.11,.69,19.1c0,0,.71,6.37,.51,8.34l3.58,.16c.02-1.38,.07-6.04,.18-11.71,0,0,.13-5.04,.55-9.7,.43,4.66,.55,9.7,.55,9.7,.1,5.68,.16,10.34,.18,11.72l3.58-.16c-.2-1.96,.51-8.34,.51-8.34,1.93-13,.69-19.1,.69-19.1Z"/><path class="cls-16" d="M769.96,84.65l-2.29-.87s0,0,0,.01l-3.38,.13,.02,1.67h6.75c.2-.56-1.11-.95-1.11-.95Z"/></g><g><g><path class="cls-10" d="M756.45,61.89c.16,.15,.31,.37,.46,.42,.13,.05,.3,.02,.36-.11,.06-.11,0-.24-.05-.35-.3-.62-1.02-1.77-1.83-1.71-.17,.01-1.52,.56-1.53,.53,.12,.35,.04,1.02,.04,1.02-.1,1.34,.87,2.4,.87,2.4,.2,.24,.65,.56,.87,.68,.26,.14,.56,.24,.85,.21,.3-.03,.59-.21,.69-.49,.09-.23,.03-.5-.08-.72-.11-.22-.28-.41-.43-.61-.15-.2-1.05-1.41-.54-1.43,.11,0,.21,.06,.31,.16Z"/><path class="cls-10" d="M756.39,40.11s-6.1,9.54-2.6,20.87l2.71-.42s-3.2-11.03,1.57-15.98l-1.68-4.47Z"/><path class="cls-16" d="M753.1,58.12c.17,.94,.4,1.89,.69,2.85l2.71-.42s-.32-1.11-.61-2.79l-2.8,.36Z"/></g><g><path class="cls-10" d="M770.17,61.89c-.16,.15-.31,.37-.46,.42-.13,.05-.3,.02-.36-.11-.06-.11,0-.24,.05-.35,.3-.62,1.02-1.77,1.83-1.71,.17,.01,1.52,.56,1.53,.53-.12,.35-.04,1.02-.04,1.02,.1,1.34-.87,2.4-.87,2.4-.2,.24-.65,.56-.87,.68-.26,.14-.56,.24-.85,.21-.3-.03-.59-.21-.69-.49-.09-.23-.03-.5,.08-.72,.11-.22,.28-.41,.43-.61,.15-.2,1.05-1.41,.54-1.43-.11,0-.21,.06-.31,.16Z"/><path class="cls-10" d="M770.06,40.11s6.27,9.55,2.78,20.88l-2.71-.42s3.02-11.04-1.74-15.99l1.68-4.47Z"/><path class="cls-16" d="M770.69,57.77c-.26,1.68-.57,2.8-.57,2.8l2.71,.42c.3-.96,.52-1.9,.69-2.83l-2.83-.39Z"/></g><g><g><path class="cls-10" d="M768.6,50.97l1.19,8.65-5.22,.95h-2.43l-5.47-.95,1.41-8.65-1.68-10.86c.52-.64,1.28-.94,2.03-1.31l2.44-1.15h4.73l2.44,1.15c.14,.06,1.51,.66,2.03,1.31l-1.46,10.86Z"/><polygon class="cls-6" points="768.78 52.33 768.6 50.97 758.08 50.97 757.85 52.33 768.78 52.33"/><rect class="cls-6" x="763.08" y="37.66" width=".43" height="22.91"/></g><path class="cls-17" d="M760.86,37.66s.59,.56,2.45,.56,2.28-.56,2.28-.56l-.55-.73s-1.54,.91-3.59,0l-.59,.73Z"/><g><path class="cls-6" d="M764.39,39.41c0,.17-.14,.31-.31,.31s-.31-.14-.31-.31,.14-.31,.31-.31,.31,.14,.31,.31Z"/><path class="cls-6" d="M764.39,40.92c0,.17-.14,.31-.31,.31s-.31-.14-.31-.31,.14-.31,.31-.31,.31,.14,.31,.31Z"/><path class="cls-6" d="M764.39,42.42c0,.17-.14,.31-.31,.31s-.31-.14-.31-.31,.14-.31,.31-.31,.31,.14,.31,.31Z"/><path class="cls-6" d="M764.39,43.93c0,.17-.14,.31-.31,.31s-.31-.14-.31-.31,.14-.31,.31-.31,.31,.14,.31,.31Z"/><path class="cls-6" d="M764.39,45.43c0,.17-.14,.31-.31,.31s-.31-.14-.31-.31,.14-.31,.31-.31,.31,.14,.31,.31Z"/><path class="cls-6" d="M764.39,46.94c0,.17-.14,.31-.31,.31s-.31-.14-.31-.31,.14-.31,.31-.31,.31,.14,.31,.31Z"/><path class="cls-6" d="M764.39,48.44c0,.17-.14,.31-.31,.31s-.31-.14-.31-.31,.14-.31,.31-.31,.31,.14,.31,.31Z"/><path class="cls-6" d="M764.39,49.95c0,.17-.14,.31-.31,.31s-.31-.14-.31-.31,.14-.31,.31-.31,.31,.14,.31,.31Z"/></g><rect class="cls-16" x="761.67" y="50.84" width="3.2" height="1.64" rx=".44" ry=".44"/></g></g></g><g><path class="cls-17" d="M887.2,37.44s3.17-4.2,10.5-4.2,10.49,4.2,10.49,4.2l-.95,.64h-19.1l-.95-.64Z"/><path class="cls-10" d="M888.15,38.08v4.35h19.1v-4.35s-2.86-3.82-9.54-3.82-9.56,3.82-9.56,3.82Z"/><g><rect class="cls-10" x="887.44" y="41.64" width="20.51" height="46.25"/><polygon class="cls-6" points="889.35 43.99 889.35 87.89 889.74 87.89 889.74 44.37 905.66 44.37 905.66 87.89 906.05 87.89 906.05 43.99 889.35 43.99"/><g><rect class="cls-6" x="894.94" y="56.42" width="5.52" height="4.82"/><rect class="cls-6" x="894.94" y="67.23" width="5.52" height="4.82"/><rect class="cls-6" x="891.95" y="61.83" width="2.41" height="4.82"/><rect class="cls-6" x="894.94" y="61.83" width="5.52" height="4.82"/><rect class="cls-6" x="891.95" y="56.42" width="2.41" height="4.82"/><rect class="cls-6" x="891.95" y="51.02" width="2.41" height="4.82"/><rect class="cls-6" x="894.94" y="78.03" width="5.52" height="4.03"/><rect class="cls-6" x="894.94" y="72.63" width="5.52" height="4.82"/><rect class="cls-6" x="894.94" y="51.02" width="5.52" height="4.82"/><rect class="cls-6" x="894.94" y="46.41" width="5.52" height="4.03"/><rect class="cls-6" x="901.04" y="46.41" width="2.41" height="4.03"/><rect class="cls-6" x="891.95" y="67.23" width="2.41" height="4.82"/><rect class="cls-6" x="901.04" y="51.02" width="2.41" height="4.82"/><rect class="cls-6" x="891.95" y="46.41" width="2.41" height="4.03"/><rect class="cls-6" x="901.04" y="78.03" width="2.41" height="4.03"/><rect class="cls-6" x="891.95" y="78.03" width="2.41" height="4.03"/><rect class="cls-6" x="901.04" y="56.42" width="2.41" height="4.82"/><rect class="cls-6" x="901.04" y="72.63" width="2.41" height="4.82"/><rect class="cls-6" x="891.95" y="72.63" width="2.41" height="4.82"/><rect class="cls-6" x="901.04" y="67.23" width="2.41" height="4.82"/><rect class="cls-6" x="901.04" y="61.83" width="2.41" height="4.82"/></g></g><path class="cls-7" d="M897.71,36.26c.13,.04,.22,.15,.22,.29v.52c.07-.02,.14-.04,.21-.06,0-.09,.08-.17,.18-.17,.07,0,.12,.04,.15,.09,.03,0,.06-.01,.08-.02,.01-.09,.09-.16,.18-.16,.08,0,.14,.05,.17,.12h.01s.05,0,.07,0c.02-.08,.09-.14,.17-.14,.09,0,.17,.07,.18,.17,.02,0,.05,0,.07,.01,.03-.07,.09-.12,.17-.12,.1,0,.18,.08,.18,.18,0,.02,0,.04,0,.06,.02,.01,.04,.02,.06,.03,.03-.04,.08-.07,.14-.07,.1,0,.18,.08,.18,.18,0,.05-.02,.1-.06,.14,.01,.02,.02,.04,.04,.06,.02,0,.04-.01,.06-.01,.1,0,.18,.08,.18,.18,0,.08-.05,.15-.13,.17,0,.02,0,.05,0,.08,.08,.02,.14,.09,.14,.18,0,.1-.07,.18-.17,.18,0,.03-.01,.06-.02,.08,.05,.03,.08,.09,.08,.15,0,.1-.08,.18-.18,.18,0,0,0,0-.01,0-.19,.44-.38,.89-.56,1.33-.06,.15-.23,.23-.39,.17-.79-.28-2.13-.28-2.92,0-.16,.06-.33-.02-.39-.17-.18-.45-.37-.89-.56-1.33,0,0,0,0-.01,0-.1,0-.18-.08-.18-.18,0-.06,.03-.12,.08-.15,0-.03-.01-.06-.02-.08-.09,0-.17-.08-.17-.18,0-.09,.06-.16,.14-.18,0-.03,0-.05,0-.08-.07-.02-.13-.09-.13-.17,0-.1,.08-.18,.18-.18,.02,0,.04,0,.06,.01,.01-.02,.02-.04,.04-.06-.04-.03-.06-.08-.06-.14,0-.1,.08-.18,.18-.18,.06,0,.11,.03,.14,.07,.02-.01,.04-.02,.06-.03,0-.02,0-.04,0-.06,0-.1,.08-.18,.18-.18,.08,0,.14,.05,.17,.12,.02,0,.05,0,.07-.01,0-.09,.08-.17,.18-.17,.08,0,.16,.06,.17,.14,.02,0,.04,0,.07,0h.01c.02-.07,.09-.12,.17-.12,.09,0,.16,.07,.18,.16,.03,0,.06,.01,.08,.02,.03-.05,.09-.09,.15-.09,.09,0,.17,.07,.18,.17,.07,.02,.13,.04,.2,.06v-.52c0-.14,.09-.26,.22-.29v-.12s-.03-.06-.06-.06h-.07s0,.04,0,.04c0,.05-.05,.09-.1,.08h0c-.05,0-.09-.06-.08-.11l.02-.18c0-.05,.05-.09,.1-.08,.04,0,.07,.04,.08,.08h.06s.06-.03,.06-.06v-.02s-.02-.06-.06-.06c-.05,0-.08-.04-.08-.09,0-.05,.04-.09,.09-.09h.25c.05,0,.09,.04,.09,.09,0,.05-.04,.09-.08,.09-.03,0-.06,.03-.06,.06v.02s.03,.06,.06,.06h.06s.04-.07,.08-.08c.05,0,.1,.03,.1,.08l.02,.18c0,.05-.03,.1-.08,.11-.05,0-.1-.03-.1-.08v-.04s-.08,0-.08,0c-.03,0-.06,.03-.06,.06v.12h0Zm-1.41,2.28h0c-.01-.33,.27-.38,.37-.07,0,.03,.04,.05,.07,.05,.06,0,.13,.04,.15,.09,.02,.05,.02,.13,.02,.19-.01,.11-.07,.14-.12,.04-.02-.03-.04-.08-.08-.05-.04,.03-.06,.17-.01,.26,.02,.05,.06,.09,.08,.14,.03,.06,.09,.09,.16,.09,.14-.02,.28-.03,.43-.04,.08,0,.15-.07,.15-.15v-.2s-.04-.08-.08-.08h0s-.03,0-.04,.02c-.01,.01-.02,.03-.02,.05,0,.09-.04,.11-.1,.11-.07,0-.13-.06-.13-.13l-.03-.47s.03-.06,.06-.06h.05c.07,0,.13,.06,.13,.13v.03s.03,.06,.06,.06h.02s.08-.03,.08-.08v-.18s-.03-.08-.08-.08h-.17c-.07,0-.13-.06-.13-.13,0-.07,.06-.13,.13-.13,.09,0,.08-.05,.08-.12v-.36c-.39-.14-.72-.21-.99-.22-.33-.01-.57,.05-.71,.17-.16,.13-.22,.33-.17,.6,.02,.13,.07,.27,.14,.43,.11,.03,.2,.1,.26,.19,.1,.16,.1,.42,.16,.51,0,0,0,0,0,.01l.14,.21s.07,.05,.1,.04c.04-.01,.07-.02,.11-.03,.04-.01,.07-.05,.07-.09,0-.07,.02-.13,.03-.2,0-.1-.06-.23-.11-.24-.04,0-.05,.05-.05,.08-.01,.11-.08,.1-.13,0-.03-.05-.05-.13-.05-.18,0-.06,.05-.11,.11-.13,.03-.01,.05-.04,.04-.08h0Zm2.67,0h0s.02,.06,.04,.07c.05,.03,.11,.08,.11,.13,0,.06-.03,.13-.05,.18-.05,.1-.12,.1-.13,0,0-.03-.01-.09-.05-.08-.05,.01-.11,.14-.11,.24,0,.07,.03,.13,.03,.2,0,.04,.03,.08,.07,.09,.04,.01,.07,.02,.11,.03,.04,.01,.08,0,.1-.04l.14-.21s0,0,0-.01c.06-.09,.06-.35,.16-.51,.06-.1,.16-.16,.26-.19,.07-.16,.12-.3,.14-.43,.05-.27-.02-.47-.17-.6-.14-.12-.38-.18-.71-.17-.27,.01-.6,.08-.99,.22v.36c0,.07,0,.12,.08,.12,.07,0,.13,.06,.13,.13,0,.07-.06,.13-.13,.13h-.17s-.08,.03-.08,.08v.18s.03,.08,.08,.08h.02s.06-.03,.06-.06v-.03c0-.07,.06-.13,.13-.13h.05s.06,.03,.06,.06l-.03,.47c0,.07-.06,.13-.13,.13-.06,0-.1-.02-.1-.11,0-.02,0-.03-.02-.05-.01-.01-.03-.02-.04-.02h0s-.08,.03-.08,.08v.2c0,.08,.06,.15,.15,.15,.15,0,.29,.02,.43,.04,.07,0,.13-.02,.16-.09,.02-.05,.05-.09,.08-.14,.04-.09,.03-.23-.01-.26-.03-.02-.06,.02-.08,.05-.05,.09-.11,.07-.12-.04,0-.06,0-.14,.02-.19,.02-.05,.09-.08,.15-.09,.03,0,.06-.02,.07-.05,.11-.31,.38-.26,.37,.07Z"/></g><g><g><polygon class="cls-15" points="923.37 13.04 923.43 14.15 923.49 15.34 923.58 17.07 923.65 18.25 923.69 19.17 923.7 19.36 924.33 19.36 924.35 18.99 924.41 18.25 924.5 17.07 924.63 15.34 924.71 14.15 924.8 13.04 923.37 13.04"/><polygon class="cls-16" points="910.71 90.39 923.15 90.37 923.69 90.37 923.93 90.37 924.03 90.37 937.12 90.37 936.56 86.1 936.41 84.92 936.18 83.16 936.02 81.97 935.79 80.2 935.63 79.03 935.4 77.25 935.25 76.07 935.02 74.3 934.86 73.12 934.63 71.35 934.47 70.17 934.24 68.4 934.09 67.22 933.86 65.45 933.7 64.27 933.47 62.5 933.31 61.32 933.08 59.55 932.93 58.37 932.69 56.6 932.54 55.42 932.31 53.65 932.15 52.47 931.92 50.7 931.77 49.52 931.54 47.75 931.38 46.57 931.15 44.8 930.99 43.62 930.76 41.85 930.61 40.67 930.37 38.9 930.22 37.72 929.99 35.95 929.83 34.77 929.6 33 929.45 31.82 929.21 30.05 929.06 28.87 928.83 27.1 928.67 25.92 928.44 24.15 928.29 22.97 928.05 21.2 927.9 20.02 927.67 18.25 927.51 17.07 927.29 15.34 927.13 14.15 926.9 12.38 926.74 11.2 926.51 9.43 926.36 8.25 925.59 2.4 925.15 8.25 925.07 9.43 924.93 11.2 924.85 12.38 924.8 13.04 924.71 14.15 924.63 15.34 924.5 17.07 924.41 18.25 924.35 18.99 924.33 19.36 924.28 20.02 924.19 21.2 924.06 22.97 923.97 24.15 923.93 24.74 923.93 23.57 923.9 22.97 923.8 21.2 923.74 20.02 923.7 19.36 923.69 19.17 923.65 18.25 923.58 17.07 923.49 15.34 923.43 14.15 923.37 13.04 923.18 9.43 923.12 8.25 922.82 2.63 922.04 8.25 921.88 9.43 921.23 14.15 921.07 15.34 920.83 17.07 920.66 18.25 920.42 20.02 920.26 21.2 919.61 25.92 919.44 27.1 919.2 28.87 919.04 30.05 918.79 31.82 918.63 33 918.39 34.77 918.22 35.95 917.98 37.72 917.81 38.9 917.57 40.67 917.41 41.85 917.16 43.62 917 44.8 916.76 46.57 916.59 47.75 916.35 49.52 916.19 50.7 915.94 52.47 915.78 53.65 915.62 54.77 915.53 55.42 915.37 56.6 915.28 57.25 914.31 64.27 914.15 65.45 913.91 67.22 913.74 68.4 913.5 70.17 913.34 71.35 913.09 73.12 912.93 74.3 912.69 76.07 912.52 77.25 912.28 79.03 912.11 80.2 911.87 81.97 911.71 83.16 911.46 84.92 911.3 86.1 910.71 90.37 910.71 90.39"/></g><rect class="cls-6" x="923.24" y="13.04" width="1.57" height="77.33"/><g class="cls-18"><g><rect class="cls-6" x="909.25" y="87.39" width="12.08" height=".67" transform="translate(1830.57 175.44) rotate(-180)"/><rect class="cls-6" x="924.47" y="87.39" width="6.35" height=".67" transform="translate(1855.3 175.44) rotate(-180)"/><rect class="cls-6" x="925.63" y="12.79" width="12.44" height=".67" transform="translate(1863.7 26.24) rotate(-180)"/><rect class="cls-6" x="922.35" y="16.34" width="6.98" height=".67" transform="translate(1851.68 33.35) rotate(-180)"/><rect class="cls-8" x="914.54" y="16.34" width="6.98" height=".67" transform="translate(1836.06 33.35) rotate(-180)"/><rect class="cls-6" x="921.14" y="19.89" width="4.27" height=".67" transform="translate(1846.55 40.45) rotate(-180)"/><rect class="cls-10" x="926.68" y="19.89" width="4.27" height=".67" transform="translate(1857.63 40.45) rotate(-180)"/><rect class="cls-6" x="925.88" y="23.44" width="13.58" height=".67" transform="translate(1865.34 47.56) rotate(-180)"/><rect class="cls-10" x="907.43" y="23.44" width="13.58" height=".67" transform="translate(1828.44 47.56) rotate(-180)"/><rect class="cls-6" x="915.46" y="27" width="8.08" height=".67" transform="translate(1839 54.66) rotate(-180)"/><rect class="cls-6" x="927.79" y="27" width="8.08" height=".67" transform="translate(1863.66 54.66) rotate(-180)"/><rect class="cls-6" x="917.39" y="30.55" width="3.6" height=".67" transform="translate(1838.37 61.76) rotate(-180)"/><rect class="cls-10" x="925.69" y="30.55" width="1.93" height=".67" transform="translate(1853.31 61.76) rotate(-180)"/><rect class="cls-6" x="927.12" y="34.42" width="6.1" height=".67" transform="translate(1860.33 69.51) rotate(-180)"/><rect class="cls-6" x="920.16" y="34.42" width="4.25" height=".67" transform="translate(1844.57 69.51) rotate(-180)"/><rect class="cls-6" x="909.25" y="37.65" width="10.17" height=".67" transform="translate(1828.66 75.97) rotate(-180)"/><rect class="cls-10" x="925.97" y="37.65" width="1.92" height=".67" transform="translate(1853.86 75.97) rotate(-180)"/><rect class="cls-6" x="927.7" y="41.21" width="10.37" height=".67" transform="translate(1865.77 83.08) rotate(-180)"/><rect class="cls-8" x="911.73" y="41.21" width="6.57" height=".67" transform="translate(1830.02 83.08) rotate(-180)"/><rect class="cls-8" x="925.73" y="44.76" width="3.13" height=".67" transform="translate(1854.59 90.18) rotate(-180)"/><rect class="cls-6" x="911.55" y="44.76" width="6.82" height=".67" transform="translate(1829.92 90.18) rotate(-180)"/><rect class="cls-6" x="928.23" y="48.31" width="9.83" height=".67" transform="translate(1866.3 97.29) rotate(-180)"/><rect class="cls-6" x="927.11" y="51.86" width="10.95" height=".67" transform="translate(1865.18 104.39) rotate(-180)"/><rect class="cls-10" x="917.89" y="51.86" width="3.18" height=".67" transform="translate(1838.96 104.39) rotate(-180)"/><rect class="cls-6" x="920.08" y="55.42" width="10.2" height=".67" transform="translate(1850.37 111.5) rotate(-180)"/><rect class="cls-6" x="908.11" y="55.42" width="10.2" height=".67" transform="translate(1826.42 111.5) rotate(-180)"/><rect class="cls-10" x="926.36" y="58.97" width="3.44" height=".67" transform="translate(1856.15 118.6) rotate(-180)"/><rect class="cls-6" x="920.25" y="58.97" width="3.94" height=".67" transform="translate(1844.44 118.6) rotate(-180)"/><rect class="cls-6" x="930.49" y="62.52" width="7.58" height=".67" transform="translate(1868.55 125.7) rotate(-180)"/><rect class="cls-6" x="913.33" y="62.52" width="7.58" height=".67" transform="translate(1834.23 125.7) rotate(-180)"/><rect class="cls-6" x="919.46" y="66.07" width="7.49" height=".67" transform="translate(1846.41 132.81) rotate(-180)"/><rect class="cls-6" x="929.98" y="66.07" width="7.49" height=".67" transform="translate(1867.44 132.81) rotate(-180)"/><rect class="cls-6" x="920.64" y="69.62" width="7.8" height=".67" transform="translate(1849.08 139.91) rotate(-180)"/><rect class="cls-10" x="931.72" y="69.62" width="1.55" height=".67" transform="translate(1865 139.91) rotate(-180)"/><rect class="cls-6" x="907.85" y="69.62" width="7.8" height=".67" transform="translate(1823.51 139.91) rotate(-180)"/><rect class="cls-6" x="929.6" y="73.18" width="8.47" height=".67" transform="translate(1867.67 147.02) rotate(-180)"/><rect class="cls-6" x="909.34" y="73.18" width="8.47" height=".67" transform="translate(1827.14 147.02) rotate(-180)"/><rect class="cls-6" x="911.98" y="76.73" width="9.15" height=".67" transform="translate(1833.11 154.12) rotate(-180)"/><rect class="cls-10" x="929.42" y="76.73" width="3.85" height=".67" transform="translate(1862.69 154.12) rotate(-180)"/><rect class="cls-6" x="920.09" y="80.28" width="11.87" height=".67" transform="translate(1852.06 161.23) rotate(-180)"/><rect class="cls-6" x="903.52" y="80.28" width="11.87" height=".67" transform="translate(1818.9 161.23) rotate(-180)"/><rect class="cls-10" x="931.45" y="83.83" width="6.62" height=".67" transform="translate(1869.52 168.33) rotate(-180)"/><rect class="cls-6" x="921.48" y="83.83" width="6.62" height=".67" transform="translate(1849.57 168.33) rotate(-180)"/><rect class="cls-6" x="909.42" y="83.83" width="6.62" height=".67" transform="translate(1825.45 168.33) rotate(-180)"/></g></g></g><g><g class="cls-20"><path class="cls-12" d="M938.34,25.07l-.73,1.36-1.57,2.91-.3-3.23c.1-.27,.2-.54,.3-.8,.06-.14,.11-.28,.16-.42l.91,.07,1.22,.1Z"/><polygon class="cls-12" points="937.5 25.81 938.1 29.21 940.47 24.94 937.11 24.94 937.5 25.81"/><path class="cls-12" d="M949.09,27.45l-.17,1.89-.66-1.22-.23-.42-.68-1.27-.6-1.11-.13-.25,1.22-.09s.34-.03,.34-.03c.03,.06,.05,.12,.07,.18,.03,.06,.05,.12,.07,.18,.06,.15,.11,.29,.17,.44,.01,.03,.02,.06,.03,.09,.07,.18,.14,.36,.2,.55,.06,.17,.12,.34,.18,.51,.06,.18,.12,.36,.19,.55Z"/><polygon class="cls-12" points="947.46 25.81 946.86 29.21 944.49 24.94 947.85 24.94 947.46 25.81"/><path class="cls-12" d="M939.36,25.39l1.58,3.65s2.1-4,2.05-4.1c-.05-.1-3.83,0-3.83,0l.2,.45Z"/><path class="cls-12" d="M942.14,25.39l1.58,3.65s2.1-4,2.05-4.1c-.05-.1-3.83,0-3.83,0l.2,.45Z"/></g><path class="cls-10" d="M953.61,59.81h0c0,.36,0,.7-.01,1.04,0,.21,0,.42-.01,.63h0c0,.05,0,.1,0,.16,0,.2,0,.4-.01,.6,0,.02,0,.04,0,.06s0,.04,0,.06h0c-.02,.93-.05,1.85-.08,2.75,0,.1,0,.19-.01,.29,0,.07,0,.14,0,.22,0,.17-.01,.33-.02,.5h0c-.02,.49-.04,.96-.06,1.43-.03,.6-.06,1.19-.09,1.77,0,.16-.02,.32-.03,.47s-.02,.31-.03,.47h0c-.08,1.21-.16,2.35-.24,3.43h0c0,.08-.01,.16-.02,.24-.01,.16-.03,.31-.04,.47,0,.08-.01,.15-.02,.23-.04,.48-.08,.95-.11,1.39-.03,.35-.06,.69-.09,1.01h0c-.09,.91-.17,1.74-.24,2.47-.01,.12-.03,.23-.04,.35,0,.1-.02,.2-.03,.29-.02,.19-.04,.37-.06,.55,0,.09-.02,.17-.03,.25-.01,.11-.03,.22-.04,.32-.02,.16-.04,.31-.05,.46h0s0,.01,0,.02c0,.05-.01,.1-.02,.15-.01,.11-.03,.21-.04,.31,0,.04,0,.08-.02,.12,0,.05-.01,.1-.02,.15,0,0,0,0,0,0,0,.05-.01,.09-.02,.13h0s0,.05,0,.08c0,.02,0,.04,0,.06,0,.09-.02,.16-.03,.22,0,.03,0,.05,0,.08-.02,.1-.02,.15-.02,.15,0,0-.15,1.01-.27,1.92-.03,.21-.06,.41-.08,.59,0,.05-.01,.1-.02,.14-.02,.14-.04,.27-.04,.27h-18.92c-.11-.9-.41-2.92-.41-2.92,0,0-.01-.08-.03-.23h0s0-.02,0-.02c0,0,0,0,0,0h0s0-.02,0-.02c0,0,0-.02,0-.03,0,0,0-.02,0-.03,0-.04,0-.08-.02-.13,0,0,0-.01,0-.02,0-.05-.01-.11-.02-.18-.01-.1-.03-.22-.04-.35,0-.04,0-.09-.02-.14,0-.03,0-.06,0-.09,0-.03,0-.06-.01-.09,0-.02,0-.03,0-.04,0,0,0-.01,0-.02,0,0,0-.02,0-.03,0-.07-.02-.14-.03-.21-.03-.23-.06-.49-.09-.77h0c0-.06-.01-.12-.02-.19-.02-.17-.04-.34-.06-.51,0-.02,0-.04,0-.06-.01-.1-.02-.21-.03-.31s-.02-.21-.03-.32c-.01-.11-.02-.22-.03-.34-.06-.57-.12-1.19-.18-1.86-.01-.15-.03-.31-.04-.47-.02-.17-.03-.35-.05-.53-.01-.16-.03-.33-.04-.49-.03-.39-.07-.79-.1-1.2-.02-.24-.04-.48-.06-.73-.05-.69-.11-1.41-.16-2.16-.03-.4-.06-.81-.08-1.22h0c-.04-.57-.07-1.15-.1-1.73-.02-.25-.03-.49-.04-.74-.01-.25-.02-.51-.04-.77-.03-.74-.06-1.49-.09-2.25-.03-.97-.06-1.96-.08-2.97,0-.11,0-.22,0-.33,0-.11,0-.22,0-.33,0-.11,0-.22,0-.33v-.07s0-.04,0-.07h0c0-.23,0-.46,0-.69h0c-.02-1.7,0-3.42,.03-5.17,0-.33,.02-.65,.03-.97,0-.05,0-.09,0-.14,0-.05,0-.1,0-.15,0-.1,0-.21,.01-.31,0-.03,0-.07,0-.1v-.19c.01-.21,.02-.41,.03-.61h0c0-.09,0-.18,0-.27,0-.24,.02-.49,.03-.74,.02-.43,.04-.85,.07-1.28,.02-.34,.04-.68,.07-1.02,.01-.19,.03-.39,.04-.58,.01-.14,.02-.29,.03-.44,0-.05,0-.1,.01-.15,0,0,0-.01,0-.02,0-.09,.01-.19,.02-.28,0-.04,0-.08,0-.13,0-.04,0-.09,.01-.14,0,0,0,0,0-.01v-.07c0-.06,.01-.12,.02-.19,.03-.34,.06-.67,.09-1,0-.03,0-.05,0-.07,.03-.31,.06-.61,.09-.91,.04-.42,.09-.83,.14-1.24,.01-.1,.02-.19,.03-.29,.01-.1,.02-.2,.04-.3,.01-.09,.02-.19,.03-.28,.05-.41,.11-.82,.16-1.23h0c.04-.27,.08-.54,.12-.81h0c.02-.12,.03-.24,.06-.36h0c.17-1.12,.37-2.21,.6-3.28,0,0,0-.02,0-.03,.05-.23,.1-.44,.15-.66,.06-.25,.11-.5,.17-.75h0c.06-.25,.12-.5,.18-.75,.13-.54,.26-1.06,.39-1.58,.3-1.18,.61-2.29,.91-3.32,0-.02,.01-.04,.02-.06,.06-.22,.12-.42,.19-.63,.28-.91,.55-1.75,.83-2.54,.03-.09,.06-.17,.09-.26,.09-.24,.17-.47,.25-.7h0c.02-.07,.05-.14,.07-.2,0-.02,.01-.04,.02-.06,.02-.05,.04-.1,.06-.15,.05-.13,.1-.26,.15-.39,.02-.06,.04-.11,.07-.17,0-.01,0-.03,.02-.04,.01-.03,.02-.06,.03-.09,0-.01,0-.02,.01-.03,0,0,0-.02,0-.02,0,0,0,0,0,0,0,0,0-.02,.01-.03,0,0,0,0,0-.01,0,0,0,0,0-.01,0-.02,.01-.03,.02-.05,0-.02,.01-.03,.02-.05h0s0-.03,.02-.04c0,0,0,0,0,0,0-.02,.02-.04,.02-.06,0,0,0-.01,0-.02,.02-.04,.03-.09,.05-.13h0s.02-.05,.03-.07c.01-.03,.03-.06,.04-.1,.02-.05,.04-.1,.06-.16,.03-.09,.07-.17,.11-.25,0-.01,.01-.02,.02-.03,0,0,0,0,0,0,0,0,0-.02,0-.02h0c.04-.09,.08-.18,.11-.27h0c.04-.09,.08-.18,.11-.26,.03-.06,.05-.11,.07-.17s.05-.11,.07-.16c.04-.1,.09-.19,.13-.28,.02-.04,.04-.08,.06-.12,.11-.24,.22-.46,.33-.68,.1-.2,.19-.38,.28-.55,.07-.12,.13-.24,.19-.36h0c.11-.2,.21-.38,.32-.57,.11-.18,.21-.35,.32-.52,.11-.17,.21-.33,.32-.49,.13-.2,.26-.38,.39-.55,.14-.18,.27-.35,.41-.51,.1-.13,.21-.24,.31-.36,.17-.19,.34-.35,.5-.49,.06-.06,.13-.11,.19-.16,.03-.03,.06-.05,.09-.08,.02-.01,.03-.03,.05-.04,.02-.02,.04-.03,.06-.04,.01,0,.02-.02,.03-.02,.01,0,.03-.02,.04-.03,0,0,0,0,.02-.01,0,0,.01,0,.02-.02,0,0,.02-.01,.03-.02,.01,0,.02-.02,.03-.03,0,0,.02-.01,.03-.02,0,0,0,0,.02,0h0s0,0,.02-.01h0s0,0,.01,0c0,0,0,0,0,0,0,0,0,0,.01,0,0,0,0,0,0,0,0,0,0,0,.01,0,0,0,.01,0,.02,0s0,0,.01,0c.03-.02,.05-.03,.08-.04,.05-.03,.1-.06,.15-.08,.05-.03,.1-.04,.14-.07,.04-.02,.07-.03,.1-.04,.03-.01,.07-.03,.1-.03,.07-.02,.13-.04,.19-.05,.06-.01,.11-.02,.16-.02,0,0,.02,0,.03,0,0,0,0,0,.02,0,0,0,.01,0,.02,0,.07,0,.15,.02,.23,.04,.09,.02,.18,.05,.28,.09,.03,.01,.07,.03,.1,.04,.05,.02,.1,.04,.14,.07,.05,.03,.1,.05,.15,.08,.05,.03,.1,.06,.16,.1,.03,.02,.05,.03,.08,.05,.03,.02,.05,.04,.08,.06,.03,.02,.06,.04,.08,.06,.03,.02,.06,.04,.08,.07,.04,.03,.08,.06,.12,.1,.02,.01,.03,.03,.05,.04,.06,.05,.12,.1,.17,.16,.02,.01,.03,.03,.05,.04,.02,.02,.03,.03,.04,.04,.03,.03,.06,.06,.09,.09,.02,.02,.04,.04,.07,.07,.01,.01,.02,.03,.03,.04,.01,.01,.02,.03,.03,.04,.05,.05,.1,.1,.15,.16,.04,.05,.09,.11,.14,.16h0c.05,.06,.1,.11,.14,.17l.15,.18s.07,.09,.1,.13c.02,.02,.03,.04,.04,.05,.03,.04,.06,.08,.09,.11,.05,.07,.1,.14,.15,.21,0,0,.02,.02,.03,.03,.03,.04,.06,.08,.09,.13,0,0,0,0,0,.01,.06,.09,.12,.18,.19,.28,.03,.05,.07,.1,.1,.15s.06,.1,.09,.15c0,0,0,0,0,0,.01,.02,.02,.03,.03,.05,.02,.03,.03,.05,.05,.08,.02,.03,.03,.05,.05,.08,0,.01,.02,.02,.02,.04,.02,.03,.04,.06,.06,.1,0,.02,.02,.03,.03,.05,0,0,0,0,0,0,0,.02,.02,.03,.03,.05,.04,.06,.07,.13,.11,.19,.05,.08,.1,.17,.14,.25,.03,.06,.07,.12,.1,.18,.08,.14,.15,.28,.23,.42,.04,.07,.07,.14,.11,.21,.03,.05,.05,.1,.07,.14,.06,.12,.12,.24,.19,.37,.06,.13,.13,.26,.19,.39,.07,.15,.14,.3,.21,.45h0c.05,.12,.11,.24,.16,.35,.05,.12,.11,.24,.16,.37,.02,.03,.03,.07,.04,.1,.06,.14,.12,.28,.18,.43h0c.03,.07,.06,.15,.09,.23,.03,.08,.06,.15,.09,.23,0,.01,.01,.03,.02,.04,0,0,0,0,0,0h0s0,.03,.01,.04c.01,.03,.03,.06,.04,.09,.01,.03,.02,.06,.04,.1h0s.03,.06,.04,.09c0,.02,.02,.04,.02,.06,0,.01,0,.02,.01,.03,.03,.06,.05,.12,.07,.18,.06,.14,.11,.29,.17,.44,0,.01,.01,.03,.02,.04,0,.02,0,.03,.02,.05,.03,.09,.07,.18,.1,.27h0c.03,.09,.07,.18,.1,.28h0c.05,.15,.11,.3,.16,.44,0,.02,.02,.04,.02,.07,.06,.18,.12,.36,.19,.55,.37,1.08,.74,2.27,1.11,3.57h0c.02,.08,.04,.15,.07,.22,0,.02,0,.03,.01,.05,.03,.09,.05,.18,.08,.28h0s.02,.07,.03,.1c.07,.26,.15,.54,.22,.81,.3,1.11,.59,2.28,.88,3.53h0c.02,.07,.03,.14,.05,.21,0,.01,0,.03,0,.04,.02,.08,.04,.17,.06,.25h0s0,0,0,0c0,.02,.01,.05,.02,.07h0s.02,.06,.02,.09c0,.04,.02,.08,.03,.12,.04,.19,.09,.38,.13,.58,.03,.15,.07,.31,.1,.46,.03,.15,.06,.3,.09,.46h0s0,0,0,0c.2,1.04,.38,2.09,.54,3.16,.03,.22,.06,.44,.1,.66h0c.17,1.28,.33,2.56,.45,3.87,.02,.22,.04,.43,.06,.64,.02,.22,.04,.44,.06,.65,.01,.16,.03,.31,.04,.46,0,.02,0,.03,0,.05h0s0,.08,0,.12c.01,.17,.03,.33,.04,.5,0,.03,0,.05,0,.08,.02,.27,.04,.54,.06,.8,.1,1.46,.17,2.93,.21,4.39,0,.3,.02,.61,.03,.91h0s0,.09,0,.13c0,.04,0,.09,0,.13h0s0,.03,0,.04v.04c0,.08,0,.15,0,.23,0,.08,0,.15,0,.23,0,.13,0,.27,0,.4h0c0,.38,.01,.75,.02,1.11,.01,.98,.01,1.94,0,2.9Z"/><path class="cls-4" d="M948.32,25.32h-12.28c.15-.38,.29-.74,.44-1.09h11.4c.14,.35,.29,.71,.44,1.09Z"/><path class="cls-5" d="M953.58,55.39l-.1,.2-.29,.54-1.38,2.59-.86,1.61-.29,.54-2.24,4.2-.29,.54-2,3.76-.24,.45-.29,.54-1.6,3-.71,1.33-.29,.54h0s-2.27,4.26-2.27,4.26l-.29,.54-2.08,3.91h0s-.12,.22-.12,.22l-.17,.32-.85,1.6h-.45l1.08-2.03,.17-.31,.12-.23h0s2.08-3.91,2.08-3.91l.29-.54,2.27-4.26h0s.29-.54,.29-.54l.68-1.27,1.64-3.07,.29-.54h0s.21-.39,.21-.39l2.03-3.81,.29-.54,2.24-4.2,.29-.54,.85-1.6,1.38-2.6,.29-.54,.31-.57h0s0,.08,0,.12c0,.04,0,.09,0,.13h0s0,.06,0,.09c0,.08,0,.15,0,.23,0,.08,0,.15,0,.23Z"/><path class="cls-5" d="M953.59,61.48c0,.06,0,.12,0,.18,0,.06,0,.13,0,.19,0,.13,0,.26,0,.38,0,.02,0,.04,0,.06v.06h0s-.77,1.45-.77,1.45l-.29,.54-2.24,4.2s-.29,.54-.29,.54l-1.73,3.25-.51,.96h0s-.29,.54-.29,.54l-1.33,2.51-.98,1.83-.29,.54h0s-2.27,4.26-2.27,4.26l-.29,.54-1.38,2.58h-.45l1.6-3,.29-.54,2.27-4.26h0s.29-.54,.29-.54l.95-1.78,1.37-2.56,.29-.54h0s.48-.91,.48-.91l1.76-3.29,.29-.54,2.24-4.2,.29-.54,.82-1.53,.2-.37h0Z"/><path class="cls-5" d="M953.3,69.29c0,.16-.02,.32-.03,.47,0,.16-.02,.31-.03,.47h0s-1.03,1.94-1.03,1.94l-.29,.54-2.24,4.2h0s-.28,.54-.28,.54l-2.32,4.33-.29,.54h0s-2,3.75-2,3.75h-.45l2.22-4.17h0s.29-.54,.29-.54l2.31-4.33,.29-.54h0s2.24-4.2,2.24-4.2l.29-.54,1.31-2.46Z"/><path class="cls-5" d="M952.81,76c-.03,.35-.06,.69-.09,1.01h0s-1.49,2.8-1.49,2.8l-.29,.54-2.31,4.34-.29,.54h0s-.45,.85-.45,.85h-.45l.68-1.27,.29-.54,2.31-4.33,.29-.54,1.81-3.39Z"/><path class="cls-5" d="M953.27,48.49l-1.42,2.66-.37,.69h0s-.29,.54-.29,.54h0s-1.48,2.78-1.48,2.78l-.76,1.42h0s-.29,.54-.29,.54h0s-2.24,4.2-2.24,4.2l-.29,.54-2.23,4.18v.02s-.01,0-.01,0l-.29,.54h0s-1.9,3.56-1.9,3.56l-.41,.77-.29,.54h0s0,0,0,0l-2.27,4.26-.29,.54h0s0,0,0,0l-2.08,3.91s-.13,.24-.13,.24l-.16,.3h0s-2.06,3.86-2.06,3.86l-.14,.26h0s-.28,.54-.28,.54h0s-.37,.69-.37,.69h-.45l.59-1.11,.29-.54h0s.15-.28,.15-.28l2.05-3.84h0s.16-.31,.16-.31l.12-.23h0s2.08-3.91,2.08-3.91h0s.29-.54,.29-.54l2.27-4.26h0s.29-.54,.29-.54h0s.38-.72,.38-.72l1.93-3.62h0s.28-.52,.28-.52v-.02s0,0,0,0l2.24-4.2,.29-.54,2.24-4.2h0s.28-.54,.28-.54c0,0,0,0,0,0,.04-.09,.73-1.38,.73-1.38l1.51-2.82h0s.29-.54,.29-.54h0s.34-.63,.34-.63l1.47-2.76,.11-.22,.04-.07s0,.03,0,.05c0,.04,0,.08,0,.12,.01,.17,.03,.33,.04,.5,0,.03,0,.05,0,.08Z"/><path class="cls-5" d="M952.62,42.13s-.81,1.52-.81,1.52l-.29,.54-1.93,3.62-.13,.25-.29,.54-1.76,3.3-.48,.9-.29,.54-2.24,4.2s-.29,.54-.29,.54l-2.24,4.2s-.14,.28-.14,.28l-.14,.26-2.14,4.01-.18,.33-.29,.54-2.27,4.26-.29,.54-2.08,3.91-.05,.09s-.24,.45-.24,.45l-1.9,3.57-.13,.25c-.02-.22-.05-.45-.08-.7v-.02s1.89-3.52,1.89-3.52l.25-.48,.03-.06,2.08-3.91,.29-.54,2.27-4.26,.29-.54,.15-.29,2.16-4.05s.13-.24,.13-.24c0,0,.16-.3,.16-.3l2.24-4.2,.29-.54,2.24-4.2,.29-.54s.46-.86,.46-.86l1.79-3.35,.29-.54,.11-.21,1.95-3.66,.29-.54,.94-1.75c.03,.22,.07,.44,.1,.66Z"/><path class="cls-5" d="M951.64,36.57v.02s-.29,.52-.29,.52l-1.51,2.83-.29,.54-2.06,3.87v.02s-.29,.52-.29,.52l-1.94,3.64-.3,.56-.29,.54-2.24,4.2-.29,.54s-2.24,4.2-2.24,4.2l-.23,.43-.06,.11-2.29,4.28s-.03,.05-.03,.05c0,0-.29,.54-.29,.54l-2.27,4.26-.29,.54-1.95,3.65-.14,.26-.29,.54-.66,1.24c-.02-.24-.04-.48-.06-.73l.5-.93,.29-.54,.17-.31s1.92-3.6,1.92-3.6l.29-.54,2.27-4.26,.29-.54,.02-.03s2.3-4.31,2.3-4.31l.05-.1,.23-.44,2.24-4.2,.29-.54,2.24-4.2,.29-.54,.28-.53,1.96-3.67,.27-.5,.02-.04,2.06-3.87,.29-.54,1.51-2.83,.29-.54,.08-.15c.04,.17,.08,.34,.12,.51l.03,.05Z"/><path class="cls-5" d="M950.36,31.57l-.7,1.3-.29,.54-1.51,2.83-.29,.54-2.06,3.87-.07,.12-.22,.42-2.04,3.81-.21,.39-.29,.54-2.24,4.2-.29,.54s-2.24,4.2-2.24,4.2l-.23,.43-.06,.11-2.31,4.34-.02,.04-.26,.5-2.27,4.26-.29,.54-1.5,2.8c-.01-.26-.02-.51-.04-.77,0,0,1.31-2.45,1.31-2.45l.29-.54,2.27-4.26,.27-.5,.02-.04,2.31-4.33s.06-.12,.06-.12l.22-.42,2.24-4.2,.29-.54,2.24-4.2,.29-.54,.2-.38,2.04-3.82,.22-.42,.07-.12,2.06-3.87,.29-.54,1.51-2.83,.29-.54,.76-1.44c.05,.18,.1,.36,.16,.55Z"/><path class="cls-5" d="M948.91,26.9l-.64,1.21-.57,1.06-.29,.54-1.51,2.83-.29,.54-2.06,3.87-.02,.04-.26,.5-2.03,3.8-.21,.4-.29,.54-2.24,4.2-.29,.54s-2.24,4.2-2.24,4.2l-.13,.25-.16,.29-2.27,4.25s-.04,.08-.04,.08c0,0-.29,.54-.29,.54,0,0-2.27,4.26-2.27,4.26l-.04,.07s0-.09,0-.13c0,0-.19-.35-.19-.35l.18-.34,2.09-3.92,.29-.54,.06-.11,2.25-4.23s.18-.33,.18-.33l.11-.21,2.24-4.2,.29-.54,2.24-4.2,.29-.54,.22-.41,2.02-3.79,.28-.52v-.02s2.07-3.87,2.07-3.87l.29-.54,1.51-2.83,.29-.54s.57-1.07,.57-1.07l.69-1.3c.06,.17,.12,.34,.18,.51Z"/><path class="cls-5" d="M947.34,22.97l-.04,.07-.63,1.18-.38,.72-.2,.37-.23,.43-.29,.54-.16,.31-1.35,2.52-.29,.54-1.95,3.65-.11,.22-.29,.54-1.92,3.61-.32,.59-.29,.54-2.24,4.2-.29,.54-2.17,4.07-.07,.13-.29,.54-2.08,3.91-.23,.42-.29,.54-.43,.8c0-.3,.02-.6,.03-.9,0,0,.17-.33,.17-.33l.29-.54,.26-.49,2.05-3.85,.29-.54,.1-.19s2.14-4.01,2.14-4.01c0,0,.29-.54,.29-.54l2.24-4.2,.29-.54,.34-.63,1.9-3.57,.29-.54,.14-.26,1.92-3.61,.14-.26,.15-.28,1.34-2.52,.25-.48,.02-.03,.19-.34s.2-.38,.2-.38l.38-.72,.85-1.6s.05-.1,.05-.1c.07,.15,.14,.3,.21,.45Z"/><path class="cls-5" d="M945.95,20.31l-.05,.1-1.44,2.7-.29,.54-.3,.57-.37,.69-.21,.4-.63,1.17-.03,.05s-.26,.49-.26,.49l-1.76,3.31-.3,.56-.29,.54-1.77,3.32-.47,.88-.29,.54-2.24,4.2-.29,.54-1.93,3.62s-.31,.58-.31,.58l-.29,.54-1.32,2.48c0-.05,0-.11,.01-.17,.02-.27,.04-.54,.07-.81,0,0,1.02-1.92,1.02-1.92l.29-.53s.36-.67,.36-.67l1.88-3.53,.29-.54,2.24-4.2,.29-.54,.5-.94,1.74-3.26,.29-.54,.33-.63,.48-.89,1.25-2.35,.28-.53s.36-.68,.36-.68v-.02s.04-.06,.04-.06l.21-.4,.37-.7,.53-.99,.29-.54,1.44-2.7,.04-.07s.02,.04,.04,.06c.06,.1,.12,.2,.19,.3,0,.01,.01,.02,.02,.03Z"/><path class="cls-5" d="M944.41,18.16s-1.3,2.43-1.3,2.43l-.29,.54-1.51,2.83s-.14,.26-.14,.26l-.15,.28s-.21,.41-.21,.41l-.22,.4-.7,1.32-.38,.71s-.55,1.03-.55,1.03l-.29,.54-1.56,2.92-.68,1.29-.29,.54-2.24,4.2-.29,.54-1.6,3.01-.23,.43c.04-.27,.08-.54,.12-.81,.02-.12,.04-.24,.06-.36,0,0,1.43-2.69,1.43-2.69l.29-.54,2.24-4.2,.29-.54,.73-1.36,1.15-2.15,.36-.69s.29-.54,.29-.54l.6-1.13s.35-.66,.35-.66l.46-.85,.2-.37v-.03s.38-.69,.38-.69l.07-.14s.29-.54,.29-.54l1.51-2.83,.29-.54,1.23-2.31s.05,.04,.07,.07c.07,.07,.14,.15,.22,.23Z"/><path class="cls-5" d="M942.82,16.89l-.84,1.58-.29,.54-1.51,2.83-.29,.54-.98,1.84-.25,.46-.14,.26-.2,.37-.5,.93-.19,.36-.1,.18-1.31,2.46-.93,1.74-.29,.54-1.95,3.66c.13-.54,.26-1.06,.39-1.58l1.34-2.51s.29-.54,.29-.54l.92-1.72,.07-.13,1.26-2.36s.21-.4,.21-.4l.08-.15,.27-.51,.15-.27,.05-.1,.38-.72,.05-.08,1.16-2.18,.29-.54,1.51-2.83,.29-.54,.68-1.29c.12,.03,.24,.07,.38,.13Z"/><path class="cls-5" d="M953.58,55.39l-.1,.2-.29,.54-1.38,2.59-.86,1.61-.29,.54-2.24,4.2-.29,.54-2,3.76-.24,.45-.29,.54-1.6,3-.71,1.33-.29,.54h0s-2.27,4.26-2.27,4.26l-.29,.54-2.08,3.91h0s-.12,.22-.12,.22l-.17,.32-.85,1.6h-.45l1.08-2.03,.17-.31,.12-.23h0s2.08-3.91,2.08-3.91l.29-.54,2.27-4.26h0s.29-.54,.29-.54l.68-1.27,1.64-3.07,.29-.54h0s.21-.39,.21-.39l2.03-3.81,.29-.54,2.24-4.2,.29-.54,.85-1.6,1.38-2.6,.29-.54,.31-.57h0s0,.08,0,.12c0,.04,0,.09,0,.13h0s0,.06,0,.09c0,.08,0,.15,0,.23,0,.08,0,.15,0,.23Z"/><path class="cls-5" d="M953.59,61.48c0,.06,0,.12,0,.18,0,.06,0,.13,0,.19,0,.13,0,.26,0,.38,0,.02,0,.04,0,.06v.06h0s-.77,1.45-.77,1.45l-.29,.54-2.24,4.2s-.29,.54-.29,.54l-1.73,3.25-.51,.96h0s-.29,.54-.29,.54l-1.33,2.51-.98,1.83-.29,.54h0s-2.27,4.26-2.27,4.26l-.29,.54-1.38,2.58h-.45l1.6-3,.29-.54,2.27-4.26h0s.29-.54,.29-.54l.95-1.78,1.37-2.56,.29-.54h0s.48-.91,.48-.91l1.76-3.29,.29-.54,2.24-4.2,.29-.54,.82-1.53,.2-.37h0Z"/><path class="cls-5" d="M953.3,69.29c0,.16-.02,.32-.03,.47,0,.16-.02,.31-.03,.47h0s-1.03,1.94-1.03,1.94l-.29,.54-2.24,4.2h0s-.28,.54-.28,.54l-2.32,4.33-.29,.54h0s-2,3.75-2,3.75h-.45l2.22-4.17h0s.29-.54,.29-.54l2.31-4.33,.29-.54h0s2.24-4.2,2.24-4.2l.29-.54,1.31-2.46Z"/><path class="cls-5" d="M952.81,76c-.03,.35-.06,.69-.09,1.01h0s-1.49,2.8-1.49,2.8l-.29,.54-2.31,4.34-.29,.54h0s-.45,.85-.45,.85h-.45l.68-1.27,.29-.54,2.31-4.33,.29-.54,1.81-3.39Z"/><path class="cls-16" d="M939.51,86.08h-5.54l-.37-.69-.23-.42-1.09-2.04h0s0-.02,0-.02c0,0,0,0,0-.02,0,0,0,0,0-.01,0,0,0-.02,0-.03,0,0,0-.02,0-.03,0-.02,0-.04,0-.06,0-.02,0-.04,0-.07,0,0,0-.01,0-.02,0-.05-.01-.11-.02-.18-.01-.1-.03-.22-.04-.35,0-.04,0-.09-.02-.14,0-.03,0-.06,0-.09,0-.01,0-.03,0-.04,0-.02,0-.03,0-.05,0-.02,0-.03,0-.04,0,0,0-.01,0-.02,0,0,0-.02,0-.03,0-.07-.02-.14-.03-.21-.03-.23-.06-.49-.09-.77-.02-.22-.05-.45-.08-.7,0-.02,0-.04,0-.06-.01-.1-.02-.21-.03-.31-.01-.1-.02-.21-.03-.32-.01-.11-.02-.22-.03-.34-.06-.57-.12-1.19-.18-1.86-.01-.15-.03-.31-.04-.47-.02-.17-.03-.35-.05-.53-.01-.16-.03-.33-.04-.49-.03-.39-.07-.79-.1-1.2-.02-.24-.04-.48-.06-.73-.05-.69-.11-1.41-.16-2.16-.03-.4-.06-.81-.08-1.22,0,0,0,0,0,0h0s.17,.33,.35,.66c.1,.18,.2,.37,.29,.55,.02,.04,.05,.09,.07,.13,.02,.04,.04,.09,.07,.12l.14,.26,.05,.1,.04,.08s0,0,0,0l.22,.42,1.35,2.53,.4,.75,.23,.42,1.8,3.38h0s.23,.42,.23,.42c0,0,.59,1.11,1.09,2.05,.03,.05,.05,.1,.08,.15,.03,.05,.05,.1,.08,.15,.04,.07,.08,.14,.11,.21,.04,.08,.09,.16,.13,.24,.17,.32,.28,.53,.28,.53l.22,.42h0s1.14,2.14,1.14,2.14Z"/><path class="cls-16" d="M952.23,81.7c-.03,.22-.05,.42-.07,.59-.01,.1-.03,.2-.04,.29,0,.02,0,.05,0,.07,0,.02,0,.04,0,.06,0,.09-.02,.16-.03,.22,0,.03,0,.05,0,.08-.02,.1-.02,.15-.02,.15,0,0-.15,1.01-.27,1.92-.03,.21-.06,.41-.08,.59-.02,.15-.03,.29-.05,.41h-2.85l-.45-.85h0s-.23-.43-.23-.43l-1.32-2.48h0s-.23-.42-.23-.42h0s-1.71-3.21-1.71-3.21h0s-.22-.42-.22-.42l-1.63-3.05h0s-.22-.42-.22-.42h0s-1.77-3.32-1.77-3.32l-.22-.42h0s-1.8-3.38-1.8-3.38l-.23-.42-1.75-3.28-.23-.42-1.75-3.28h0s-.23-.42-.23-.42l-1.74-3.27h0s-.07-.14-.13-.25c-.03-.05-.05-.1-.07-.13-.02-.03-.03-.04-.03-.04l-1.61-3.01-.22-.42-.15-.28h0c0-.09,0-.18,0-.27,0-.22,.02-.44,.03-.66,0-.03,0-.05,0-.07,.02-.43,.04-.85,.07-1.28,.02-.34,.04-.68,.07-1.02,.01-.19,.03-.39,.04-.58,.01-.14,.02-.29,.03-.44,0-.06,0-.12,.02-.17,.02-.27,.04-.54,.06-.81,.03-.34,.06-.67,.09-1,0-.03,0-.05,0-.07,.03-.31,.06-.61,.09-.91,.04-.42,.09-.83,.14-1.24,.03-.29,.07-.58,.11-.87l.88,1.64s.22,.42,.22,.42l1.18,2.21,.22,.42,.51,.95s1.1,2.06,1.1,2.06l.22,.42,1.75,3.27,.22,.42,1.75,3.28,.22,.42,1.75,3.28,.22,.42s1.8,3.38,1.8,3.38l.1,.17s0,0,0,.01c0,0,.12,.23,.12,.23l1.77,3.32h0s.22,.42,.22,.42l1.62,3.05h0s.23,.42,.23,.42h0s1.71,3.21,1.71,3.21h0s.22,.42,.22,.42l1.32,2.48,.22,.42,1,1.88Z"/><path class="cls-16" d="M953.61,59.81c0,.82-.02,1.63-.04,2.43,0,.04,0,.08,0,.12-.02,.93-.05,1.85-.08,2.75,0,.1,0,.2-.01,.29,0,.24-.02,.48-.03,.72l-.94-1.77-.22-.42-1.63-3.05-.22-.42-1.77-3.32-.22-.42-1.8-3.38-.22-.42-1.75-3.28-.22-.42-1.75-3.28-.22-.42-1.75-3.28-.23-.42-1.61-3.01-.22-.42-1.18-2.21-.23-.42-1.12-2.1-.22-.42-.91-1.7-.23-.42s-.43-.8-.43-.8c0-.02,.01-.04,.02-.06,.06-.22,.12-.42,.19-.63,.27-.9,.55-1.75,.83-2.54,.03-.09,.06-.17,.09-.26,.08-.24,.17-.47,.25-.7,.1-.28,.2-.54,.3-.8,.06-.14,.11-.28,.16-.42,.03-.07,.05-.13,.08-.2,.02-.05,.04-.11,.06-.16,.05-.11,.09-.21,.13-.32,.04-.1,.08-.19,.12-.28l1.01,1.88,.22,.42,.91,1.7,.23,.42,1.12,2.1,.22,.42,1.18,2.2,.23,.42,1.61,3.01,.22,.42,1.75,3.28,.22,.42,1.75,3.28,.22,.42,1.75,3.28,.23,.42,1.8,3.38,.23,.42,1.77,3.32,.22,.42,.11,.21c0,.37,.01,.74,.02,1.11,.01,.98,.01,1.94,0,2.9Z"/><path class="cls-5" d="M944.25,86.08h-.57l-1.38-2.58-.22-.42-1.62-3.05-.23-.42-1.77-3.32h0s-.22-.42-.22-.42h0s-1.8-3.38-1.8-3.38l-.22-.42-1.75-3.27-.22-.42-1.75-3.28-.22-.42-1.48-2.77c0-.11,0-.22,0-.33,0-.11,0-.22,0-.33,0-.11,0-.22,0-.33,0-.02,0-.04,0-.07,0-.02,0-.04,0-.07l.04,.07,1.75,3.28,.22,.42,1.75,3.28,.22,.42,1.75,3.27,.22,.42,1.8,3.38,.22,.42,1.77,3.32,.22,.42,1.63,3.05,.22,.42,1.66,3.12Z"/><path class="cls-5" d="M939.51,86.08h-.57l-.86-1.6-.22-.42-1.77-3.32-.22-.42h0s-1.8-3.38-1.8-3.38l-.22-.42-1.75-3.28-.22-.42-.65-1.23c-.03-.4-.06-.8-.08-1.21h0v-.02l.36,.67c.1,.18,.2,.37,.29,.55l.07,.13,.07,.12,.14,.26,.05,.1,.04,.08h0s.22,.43,.22,.43l1.35,2.53,.4,.74,.23,.42,1.8,3.38h0s0,0,0,0l.23,.42s.59,1.11,1.09,2.05c.03,.05,.05,.1,.08,.15,.03,.05,.05,.1,.08,.15,.04,.07,.08,.14,.11,.21,.04,.08,.09,.16,.13,.24,.17,.32,.29,.53,.29,.53l.22,.42,1.14,2.14Z"/><path class="cls-5" d="M934.54,86.08h-.57l-.37-.69-.23-.42-1.09-2.04h0s0-.02,0-.02c0,0,0,0,0,0h0s0-.02,0-.02c0,0,0-.02,0-.03,0-.03,0-.06-.01-.09,0-.02,0-.04,0-.07,0,0,0-.01,0-.02,0-.05-.01-.11-.02-.18-.01-.1-.03-.22-.04-.35,0-.04,0-.09-.02-.14,0-.03,0-.06,0-.09,0-.01,0-.03,0-.04,0-.04,0-.07-.01-.11,0,0,0-.02,0-.03,0-.07-.02-.14-.02-.21l1.55,2.91h0s.22,.42,.22,.42l.65,1.23Z"/><path class="cls-5" d="M949.37,86.08h-.58l-.45-.85-.23-.42-1.32-2.48h0s-.23-.42-.23-.42h0s-1.71-3.21-1.71-3.21l-.22-.42-1.63-3.05h0s-.22-.42-.22-.42h0s-1.77-3.32-1.77-3.32h0s-.22-.42-.22-.42h0s-1.8-3.38-1.8-3.38l-.22-.42-1.75-3.28-.22-.42-1.75-3.28h0s-.23-.42-.23-.42l-1.75-3.27h0s-.07-.14-.13-.25c-.03-.05-.05-.1-.07-.13-.01-.03-.02-.05-.02-.05l-1.61-3.01-.23-.42-.15-.28h0c0-.09,0-.18,0-.27,0-.22,.02-.44,.03-.66,0-.03,0-.05,0-.07l.39,.74,.23,.42,1.61,3.02,.22,.42s.76,1.42,.76,1.42c0,.01,.99,1.86,.99,1.86l.22,.42,1.35,2.53s.02,.04,.03,.05l.37,.7,.22,.42s1.75,3.28,1.75,3.28l.23,.42,1.8,3.38,.23,.42,1.77,3.32,.22,.42,1.63,3.05,.22,.42,1.71,3.21,.22,.42,1.32,2.48,.22,.42,.74,1.39Z"/><path class="cls-5" d="M952.23,81.7c-.03,.22-.05,.42-.07,.59-.01,.11-.03,.2-.04,.29l-1.18-2.22-.23-.42-1.32-2.48-.23-.42-1.71-3.21-.22-.42-1.63-3.05-.22-.42-1.77-3.32-.22-.42-1.8-3.37-.22-.42s-1.75-3.28-1.75-3.28l-.22-.42-1.75-3.28-.22-.42s-1.75-3.28-1.75-3.28l-.23-.42s-1.61-3.02-1.61-3.02l-.22-.42-1.18-2.21-.23-.42-.7-1.31c.03-.29,.07-.58,.11-.87l.88,1.64s.22,.42,.22,.42l1.18,2.21,.22,.42,.51,.95s1.1,2.06,1.1,2.06l.22,.42,1.75,3.28,.22,.42,1.75,3.28,.22,.42,1.75,3.28,.22,.42s1.8,3.38,1.8,3.38l.09,.17s0,0,0,.01c0,0,.12,.23,.12,.23l1.77,3.32,.22,.42,1.62,3.05,.23,.42,1.71,3.21,.22,.42,1.32,2.48,.22,.42,1,1.88Z"/><path class="cls-5" d="M953,73.67c-.03,.32-.05,.63-.08,.94l-1.01-1.89-.22-.42-1.71-3.21-.22-.42-1.63-3.05-.22-.42-1.77-3.32-.23-.42-1.8-3.38-.23-.42-1.75-3.28s-.23-.42-.23-.42l-1.75-3.28s-.22-.42-.22-.42l-1.75-3.28s-.23-.42-.23-.42l-1.61-3.01-.23-.42s-1.18-2.21-1.18-2.21l-.22-.42-1.12-2.1-.23-.42-.68-1.28c.06-.26,.12-.51,.17-.75l.8,1.5,.23,.42,1.12,2.1,.22,.42,1.18,2.21,.23,.42,1.61,3.01,.22,.42,1.75,3.28,.22,.42,1.75,3.28,.22,.42,1.75,3.28,.23,.42s1.8,3.38,1.8,3.38l.23,.42,1.77,3.32,.22,.42,1.62,3.05,.22,.42s1.71,3.21,1.71,3.21l.22,.42,.8,1.49Z"/><path class="cls-5" d="M952.8,63.8l.69,1.3c-.01,.34-.03,.67-.04,1.01l-.94-1.77-.22-.42-1.63-3.05-.22-.42-1.77-3.32-.22-.42-1.8-3.38-.22-.42-1.75-3.28-.22-.42-1.75-3.28-.22-.42-1.75-3.28-.23-.42-1.61-3.01-.22-.42-1.18-2.21-.23-.42-1.12-2.1-.22-.42-.91-1.7-.23-.42s-.43-.8-.43-.8c.07-.24,.14-.47,.21-.69l.51,.96,.23,.42,.91,1.7,.23,.42,1.12,2.1,.22,.42,1.18,2.21,.23,.42,1.61,3.02,.23,.42,1.75,3.28,.22,.42,1.75,3.28,.23,.42,1.75,3.28s.23,.42,.23,.42l1.8,3.37s.23,.42,.23,.42l1.77,3.32,.22,.42,1.62,3.04,.23,.42Z"/><path class="cls-5" d="M953.61,56.91l-.42-.78-.22-.42-1.77-3.32-.22-.42s-1.8-3.38-1.8-3.38l-.22-.42-1.75-3.28-.22-.42-1.75-3.28-.23-.42-1.75-3.28-.23-.42-1.61-3.02-.23-.42-1.17-2.21-.23-.42-1.12-2.1-.22-.42s-.91-1.7-.91-1.7l-.23-.42s-.97-1.83-.97-1.83c.05-.11,.09-.21,.13-.32,.04-.1,.08-.19,.12-.28l1.01,1.89,.22,.42,.91,1.7,.23,.42,1.12,2.1,.22,.42,1.18,2.2,.23,.42,1.61,3.01,.22,.42,1.75,3.28,.22,.42,1.75,3.28,.22,.42,1.75,3.28,.23,.42,1.8,3.38,.23,.42,1.77,3.32,.22,.42,.11,.21c0,.37,.01,.74,.02,1.11Z"/><path class="cls-5" d="M953.26,48.26c0,.06,0,.11,.01,.17l-.05-.1-.05-.1-1.66-3.11-.09-.16-.14-.26-.09-.16-1.66-3.11-.09-.16-.14-.26-.09-.16-1.66-3.11-.09-.16-.14-.26-.09-.16-1.66-3.11-.09-.16-.14-.26-.09-.16-1.52-2.85-.09-.16-.14-.26-.09-.16-1.09-2.04-.09-.16-.14-.26-.09-.16-1.03-1.94s-.09-.16-.09-.16l-.14-.26s-.09-.16-.09-.16l-.82-1.54-.09-.16-.14-.26-.09-.16-.97-1.81c.11-.17,.21-.33,.32-.49l.94,1.76,.09,.16,.14,.26,.09,.16,.82,1.54,.09,.16,.14,.26,.09,.16s1.04,1.94,1.04,1.94l.09,.16,.14,.26,.09,.16,1.09,2.04,.09,.16,.14,.26,.09,.16,1.52,2.85,.09,.16,.14,.26,.09,.16,1.66,3.11,.09,.16,.14,.26,.09,.16,1.66,3.11,.09,.16,.14,.26,.09,.16,1.66,3.11,.09,.16,.14,.26,.09,.16,1.26,2.35s.11,.21,.11,.21c.02,.22,.04,.44,.06,.65,.01,.15,.03,.31,.04,.46Z"/><path class="cls-5" d="M951.99,38.31l-.64-1.2-.22-.42-1.75-3.28-.22-.42-1.75-3.28-.23-.42-1.61-3.01-.23-.42-1.18-2.2-.22-.42-1.12-2.1-.23-.42-.91-1.7-.22-.42-.66-1.24c.15-.11,.29-.21,.42-.29l.53,.99,.22,.42,.91,1.7,.22,.42,1.12,2.1,.23,.42,1.18,2.21,.22,.42,1.61,3.01s.23,.42,.23,.42l1.75,3.28,.22,.42,1.75,3.28,.2,.37,.03,.05v.02c0,.07,.02,.14,.04,.21,.04,.19,.08,.38,.13,.58,.07,.31,.13,.61,.18,.93Z"/><path class="cls-5" d="M944.25,86.08h-.57l-1.38-2.58-.22-.42-1.62-3.05-.23-.42-1.77-3.32h0s-.22-.42-.22-.42h0s-1.8-3.38-1.8-3.38l-.22-.42-1.75-3.27-.22-.42-1.75-3.28-.22-.42-1.48-2.77c0-.11,0-.22,0-.33,0-.11,0-.22,0-.33,0-.11,0-.22,0-.33,0-.02,0-.04,0-.07,0-.02,0-.04,0-.07l.04,.07,1.75,3.28,.22,.42,1.75,3.28,.22,.42,1.75,3.27,.22,.42,1.8,3.38,.22,.42,1.77,3.32,.22,.42,1.63,3.05,.22,.42,1.66,3.12Z"/><path class="cls-5" d="M939.51,86.08h-.57l-.86-1.6-.22-.42-1.77-3.32-.22-.42h0s-1.8-3.38-1.8-3.38l-.22-.42-1.75-3.28-.22-.42-.65-1.23c-.03-.4-.06-.8-.08-1.21h0v-.02l.36,.67c.1,.18,.2,.37,.29,.55l.07,.13,.07,.12,.14,.26,.05,.1,.04,.08h0s.22,.43,.22,.43l1.35,2.53,.4,.74,.23,.42,1.8,3.38h0s0,0,0,0l.23,.42s.59,1.11,1.09,2.05c.03,.05,.05,.1,.08,.15,.03,.05,.05,.1,.08,.15,.04,.07,.08,.14,.11,.21,.04,.08,.09,.16,.13,.24,.17,.32,.29,.53,.29,.53l.22,.42,1.14,2.14Z"/><path class="cls-5" d="M934.54,86.08h-.57l-.37-.69-.23-.42-1.09-2.04h0s0-.02,0-.02c0,0,0,0,0,0h0s0-.02,0-.02c0,0,0-.02,0-.03,0-.03,0-.06-.01-.09,0-.02,0-.04,0-.07,0,0,0-.01,0-.02,0-.05-.01-.11-.02-.18-.01-.1-.03-.22-.04-.35,0-.04,0-.09-.02-.14,0-.03,0-.06,0-.09,0-.01,0-.03,0-.04,0-.04,0-.07-.01-.11,0,0,0-.02,0-.03,0-.07-.02-.14-.02-.21l1.55,2.91h0s.22,.42,.22,.42l.65,1.23Z"/><path class="cls-16" d="M948.32,25.31h-12.28c.04-.09,.07-.19,.11-.28,.04-.09,.07-.18,.11-.28,.03-.07,.06-.14,.09-.21,.05-.11,.09-.22,.13-.32,.04-.09,.08-.19,.12-.28,0-.01,0-.02,.01-.03,.08-.18,.15-.36,.23-.53,.22-.51,.44-.98,.66-1.41,.1-.2,.19-.38,.28-.55,.07-.12,.13-.24,.19-.36,.21-.39,.43-.75,.64-1.08,.11-.17,.21-.33,.32-.49,.13-.2,.26-.38,.39-.55,.14-.18,.27-.36,.4-.51,.1-.13,.21-.24,.31-.36,.27-.3,.53-.54,.77-.73,.02-.01,.04-.03,.05-.04,.04-.03,.08-.07,.13-.09,.04-.03,.08-.06,.12-.08,.01-.01,.03-.02,.04-.03,0,0,.02-.01,.02-.01,.02-.02,.04-.03,.06-.04,.03-.02,.05-.03,.08-.05,.05-.03,.1-.06,.15-.08,.05-.03,.1-.05,.14-.07,.04-.02,.07-.03,.1-.04,.03-.01,.07-.03,.1-.03,.07-.02,.13-.04,.19-.05,.06-.01,.11-.02,.16-.02,.01,0,.02,0,.03,0,0,0,.02,0,.03,0,.07,0,.15,.02,.23,.04,.12,.03,.24,.07,.38,.13,.05,.02,.1,.05,.14,.07,.05,.03,.1,.05,.15,.08,.05,.03,.1,.06,.16,.1,.05,.03,.1,.07,.16,.11,.06,.04,.11,.08,.17,.13,.06,.05,.11,.09,.17,.14,.06,.05,.12,.11,.18,.16,.06,.05,.12,.11,.18,.17,.02,.02,.05,.05,.07,.07,.07,.07,.14,.15,.22,.23,.05,.05,.09,.11,.14,.16,.05,.05,.1,.11,.14,.17,.05,.06,.1,.12,.14,.18,.03,.04,.07,.09,.1,.13,.01,.02,.03,.04,.04,.05,.11,.15,.23,.31,.35,.48,0,0,0,0,0,.01,.06,.09,.12,.18,.19,.28,.09,.14,.18,.27,.27,.42,.05,.09,.11,.18,.16,.27,.01,.02,.02,.03,.03,.05,.04,.06,.07,.13,.11,.19,.05,.08,.1,.17,.14,.25,.03,.06,.07,.12,.1,.18,.08,.14,.15,.28,.23,.42,.04,.07,.07,.14,.11,.21,.03,.05,.05,.1,.07,.15,.06,.12,.12,.24,.19,.37,.07,.13,.13,.26,.19,.39,.07,.15,.14,.3,.21,.45,.11,.23,.21,.47,.32,.72,.01,.03,.03,.07,.04,.1,.06,.14,.12,.28,.18,.43,.06,.15,.12,.3,.19,.45,.01,.03,.02,.05,.03,.08,.05,.12,.1,.24,.15,.37,.03,.06,.05,.12,.07,.18Z"/></g><rect class="cls-16" x="-7.61" y="85.51" width="968.69" height="5.06"/><g><path class="cls-17" d="M882.85,78.03s.57,3.12-1.51,3.12h-70.49s-1.15-.03-1.15-1.36v-2.23h61.39v2.07l11.77-1.6Z"/><g><rect class="cls-17" x="868.52" y="53.74" width="11.99" height="24.74"/><g><rect class="cls-13" x="868.52" y="76.16" width="11.99" height="2.31"/><rect class="cls-17" x="868.52" y="75.77" width="11.99" height=".64"/></g><rect class="cls-13" x="868.52" y="73.52" width="11.99" height="2.31"/><rect class="cls-6" x="877.06" y="53.74" width=".59" height="24.74"/></g><g><rect class="cls-13" x="814.04" y="53.06" width="11.61" height="14.32"/><g><path class="cls-6" d="M816.17,56.76h7.73c.41,0,.74,.33,.74,.74v6.29c0,.41-.33,.75-.75,.75h-7.73c-.41,0-.74-.33-.74-.74v-6.29c0-.41,.33-.75,.75-.75Z"/><path class="cls-17" d="M817.05,58.57c0-.41,.33-.75,.74-.75h6.86s0-.31,0-.31c0-.41-.33-.75-.74-.75h-7.73c-.41,0-.74,.34-.74,.75v6.28c0,.41,.33,.75,.74,.75h.88v-5.97Z"/><path class="cls-17" d="M823.43,64.54l.39-2.13c.11-.57-.09-1.04-.43-1.04h-1.73c-.34,0-.71,.47-.82,1.04l-.39,2.13h2.98Z"/><path class="cls-17" d="M817.69,62.85c-.94,0-1.72,.7-1.85,1.6,.1,.05,.21,.08,.33,.08h.13c.1-.69,.68-1.22,1.4-1.22s1.3,.53,1.4,1.22h.47c-.1-.95-.9-1.68-1.86-1.68Z"/></g></g><path class="cls-17" d="M810.04,71.82s-.99-.06-.99,.99v5.44s.02,1.05,.99,1.05v-7.48Z"/><g><g><path class="cls-17" d="M845.01,45.76l.43-1.5c.18-.64-.16-1.16-.75-1.16h-2.98c-.59,0-1.23,.52-1.41,1.16l-.43,1.5h5.14Z"/><path class="cls-17" d="M855.97,45.76l.43-1.5c.18-.64-.16-1.16-.75-1.16h-2.98c-.59,0-1.23,.52-1.41,1.16l-.43,1.5h5.14Z"/><path class="cls-17" d="M866.93,45.76l.43-1.5c.18-.64-.16-1.16-.75-1.16h-2.98c-.59,0-1.23,.52-1.41,1.16l-.43,1.5h5.14Z"/><path class="cls-17" d="M877.89,45.76l.43-1.5c.18-.64-.16-1.16-.75-1.16h-2.98c-.59,0-1.23,.52-1.41,1.16l-.43,1.5h5.14Z"/></g><path class="cls-10" d="M837.78,41.54v-8.02h-20.02c-2.04,0-3.71,1.8-3.71,4v18.78h68.89v-14.76h-45.15Zm4.56,4.1h-4.56v-3.18h4.56v3.18Zm5.02,0h-4.56v-3.18h4.56v3.18Zm6.01,0h-4.53v-3.18h4.53v3.18Zm5.05,0h-4.58s0-3.18,0-3.18h4.58v3.18Zm6.03,0h-4.55s0-3.18,0-3.18h4.55v3.18Zm5.03,0h-4.56v-3.18h4.56v3.18Zm6,0h-4.53v-3.18h4.53v3.18Zm5.05,0h-4.58v-3.18h4.58v3.18Z"/><g><path class="cls-6" d="M835.52,37.09h-8.04c-.42,0-.77,.37-.77,.83v1.04h9.58v-1.04c0-.46-.35-.83-.77-.83Zm-11.24,0h-6.12c-.42,0-2.69,.42-2.69,2.76v5.08c0,.46,.35,.83,.77,.83h8.04c.42,0,.77-.37,.77-.83v-7c0-.46-.35-.83-.77-.83Zm2.43,7.83c0,.46,.35,.83,.77,.83h8.04c.42,0,.77-.37,.77-.83v-5.21h-9.58v5.21Z"/><g><path class="cls-17" d="M817.14,41.03c0-2.33,2.26-2.76,2.69-2.76h5.21v-.35c0-.46-.35-.83-.77-.83h-6.12c-.42,0-2.69,.42-2.69,2.76v5.08c0,.46,.35,.83,.77,.83h.91v-4.73Z"/><path class="cls-17" d="M828.39,40.89h7.9v-.75h-7.9v-.43h-1.66v5.41c.08,.37,.39,.64,.75,.64h.91v-4.87Z"/><path class="cls-17" d="M826.71,38.96h1.69c.06-.39,.38-.69,.76-.69h7.13v-.35c0-.46-.35-.83-.77-.83h-8.04c-.42,0-.77,.37-.77,.83v.99s0,.03,0,.05Z"/></g><path class="cls-17" d="M823.56,45.76l.43-1.5c.18-.64-.16-1.16-.75-1.16h-2.98c-.59,0-1.23,.52-1.41,1.16l-.43,1.5h5.14Z"/><path class="cls-17" d="M834.81,45.76l.43-1.5c.18-.64-.16-1.16-.75-1.16h-2.98c-.59,0-1.23,.52-1.41,1.16l-.43,1.5h5.14Z"/></g><path class="cls-6" d="M880.91,47.48h-65.07c-.17,0-.3,.15-.3,.33s.14,.33,.3,.33h65.07c.17,0,.3-.15,.3-.33s-.14-.33-.3-.33Z"/><path class="cls-6" d="M880.91,52.28h-65.07c-.17,0-.3,.15-.3,.33s.14,.33,.3,.33h65.07c.17,0,.3-.15,.3-.33s-.14-.33-.3-.33Z"/></g><polygon class="cls-6" points="812.57 79.79 870.74 79.79 870.74 69.35 815.41 69.35 812.57 79.79"/><path class="cls-17" d="M809.69,71.64v-1.99s5.84-5.16,15.69-4.45l-15.69,6.44Z"/><path class="cls-10" d="M872.2,78.03v-22.55h-46.83v9.72c-10.41,.11-15.69,6.13-15.69,6.13v8.47h3.83s0-.06,0-.09c0-3.78,2.84-6.84,6.35-6.84s6.35,3.06,6.35,6.84c0,.03,0,.06,0,.09h31.26s0-.06,0-.09c0-3.76,2.83-6.8,6.32-6.8s6.32,3.05,6.32,6.8c0,.03,0,.06,0,.09h11.4c.73,0,1.33-.64,1.33-1.43v-.33h-10.64Z"/><g><rect class="cls-17" x="814.04" y="53.84" width="68.89" height="1.48"/><g><ellipse class="cls-10" cx="819.87" cy="79.7" rx="5.34" ry="5.76"/><ellipse class="cls-6" cx="819.87" cy="79.7" rx="2.92" ry="3.14"/><ellipse class="cls-14" cx="819.87" cy="79.7" rx="1.51" ry="1.63"/></g><g><path class="cls-10" d="M869.11,79.7c0,3.18-2.39,5.76-5.34,5.76s-5.34-2.58-5.34-5.76,2.39-5.76,5.34-5.76,5.34,2.58,5.34,5.76Z"/><ellipse class="cls-6" cx="863.76" cy="79.7" rx="2.92" ry="3.14"/><ellipse class="cls-14" cx="863.76" cy="79.7" rx="1.51" ry="1.63"/></g><g><path class="cls-6" d="M837.99,64.4c0,.46,.35,.83,.77,.83h8.04c.42,0,.77-.37,.77-.83v-5.21h-9.58v5.21Zm-2.46-7.83h-8.04c-.42,0-.77,.37-.77,.83v7c0,.46,.35,.83,.77,.83h8.04c.42,0,.77-.37,.77-.83v-7c0-.46-.35-.83-.77-.83Zm11.27,0h-8.04c-.42,0-.77,.37-.77,.83v1.04h9.58v-1.04c0-.46-.35-.83-.77-.83Zm22.53,0h-8.04c-.42,0-.77,.37-.77,.83v1.04h9.58v-1.04c0-.46-.35-.83-.77-.83Zm-8.81,7.83c0,.46,.35,.83,.77,.83h8.04c.42,0,.77-.37,.77-.83v-5.21h-9.58v5.21Zm-2.46-7.83h-8.04c-.42,0-.77,.37-.77,.83v7c0,.46,.35,.83,.77,.83h8.04c.42,0,.77-.37,.77-.83v-7c0-.46-.35-.83-.77-.83Z"/><g><path class="cls-17" d="M840.44,57.74h7.13v-.35c0-.46-.35-.83-.77-.83h-8.04c-.42,0-.77,.37-.77,.83v1.04h1.7c.06-.39,.38-.69,.76-.69Z"/><path class="cls-17" d="M862.97,57.74h7.13v-.35c0-.46-.35-.83-.77-.83h-8.04c-.42,0-.77,.37-.77,.83v1.04h1.7c.06-.39,.38-.69,.76-.69Z"/><path class="cls-17" d="M828.41,58.57c0-.46,.35-.83,.77-.83h7.13v-.35c0-.46-.35-.83-.77-.83h-8.04c-.42,0-.77,.37-.77,.83v7c0,.46,.35,.83,.77,.83h.91v-6.65Z"/><path class="cls-17" d="M862.2,60.36h7.9v-.75h-7.9v-.43h-1.68v5.21c0,.46,.35,.83,.77,.83h.91v-4.87Z"/><path class="cls-17" d="M839.67,60.36h7.9v-.75h-7.9v-.43h-1.68v5.21c0,.46,.35,.83,.77,.83h.91v-4.87Z"/><path class="cls-17" d="M850.94,58.57c0-.46,.35-.83,.77-.83h7.13v-.35c0-.46-.35-.83-.77-.83h-8.04c-.42,0-.77,.37-.77,.83v7c0,.46,.35,.83,.77,.83h.91v-6.65Z"/></g><path class="cls-17" d="M834.68,65.23l.67-2.37c.18-.64-.16-1.16-.75-1.16h-2.98c-.59,0-1.23,.52-1.41,1.16l-.67,2.37h5.14Z"/><path class="cls-17" d="M845.93,65.23l.67-2.37c.18-.64-.16-1.16-.75-1.16h-2.98c-.59,0-1.23,.52-1.41,1.16l-.67,2.37h5.14Z"/><path class="cls-17" d="M857.42,65.23l.67-2.37c.18-.64-.16-1.16-.75-1.16h-2.98c-.59,0-1.23,.52-1.41,1.16l-.67,2.37h5.14Z"/><path class="cls-17" d="M868.43,65.23l.67-2.37c.18-.64-.16-1.16-.75-1.16h-2.98c-.59,0-1.23,.52-1.41,1.16l-.67,2.37h5.14Z"/></g><path class="cls-6" d="M870.44,68.7h-42.06c-.17,0-.3,.15-.3,.33s.14,.33,.3,.33h42.06c.17,0,.3-.15,.3-.33s-.14-.33-.3-.33Z"/><path class="cls-6" d="M854.81,75.57h-26.43c-.18,0-.33,.16-.33,.36s.15,.36,.33,.36h26.43c.18,0,.33-.16,.33-.36s-.15-.36-.33-.36Z"/><path class="cls-6" d="M825.7,67.25h-1.14c-.3,0-.55,.26-.55,.59s.25,.59,.55,.59h1.14c.3,0,.55-.26,.55-.59s-.25-.59-.55-.59Z"/></g></g><g><path class="cls-11" d="M596.16,50.87h0c-.25,.13-.36,.43-.23,.69,.13,.25,.43,.36,.69,.24,.08-.04,.16-.08,.23-.11v2.64c0,.14,.12,.26,.26,.26l13.25-.02c.14,0,.26-.12,.26-.26v-2.6c.07,.04,.15,.07,.23,.11,.26,.13,.56,.02,.69-.24,.13-.26,.02-.56-.23-.69-1.11-.55-2.33-.97-3.62-1.25-1.29-.28-2.63-.43-3.99-.43-1.35,0-2.68,.15-3.95,.43-1.27,.28-2.48,.7-3.59,1.24Z"/><path class="cls-11" d="M596.84,53.9l.05,30.85c0,.37,.3,.67,.68,.67l12.39-.02c.37,0,.67-.3,.67-.68l-.05-30.83h-13.74Z"/><rect class="cls-16" x="596.35" y="54.49" width="14.77" height=".38"/><rect class="cls-6" x="600.16" y="59.1" width="7.15" height="10.16"/><path class="cls-7" d="M603.83,73.26c.16,.04,.28,.19,.28,.37v.66c.09-.03,.18-.06,.26-.08,0-.12,.1-.21,.22-.21,.08,0,.15,.04,.19,.11,.04,0,.07-.01,.11-.02,.01-.11,.11-.2,.22-.2,.1,0,.18,.06,.21,.15h.02s.06,0,.08,0c.02-.1,.11-.18,.22-.18,.12,0,.22,.09,.22,.21,.03,0,.06,.01,.09,.02,.03-.09,.11-.15,.21-.15,.12,0,.22,.1,.22,.23,0,.03,0,.05-.01,.07,.03,.01,.05,.03,.07,.04,.04-.05,.11-.09,.18-.09,.12,0,.22,.1,.22,.23,0,.07-.03,.13-.08,.17,.02,.02,.03,.05,.05,.07,.03,0,.05-.02,.08-.02,.12,0,.22,.1,.22,.23,0,.1-.07,.19-.16,.22,0,.03,0,.06,0,.1,.1,.02,.17,.11,.17,.22,0,.12-.09,.22-.21,.23,0,.04-.02,.07-.02,.11,.06,.04,.1,.11,.1,.19,0,.13-.1,.23-.22,.23,0,0-.01,0-.02,0-.24,.56-.47,1.12-.7,1.68-.08,.19-.3,.29-.49,.22-1-.36-2.68-.36-3.68,0-.2,.07-.41-.03-.49-.22-.23-.56-.46-1.12-.71-1.68,0,0-.01,0-.02,0-.12,0-.22-.1-.22-.23,0-.08,.04-.15,.1-.19,0-.04-.02-.07-.03-.11-.12,0-.21-.1-.21-.23,0-.11,.07-.2,.17-.22,0-.03,0-.06,0-.1-.09-.03-.16-.11-.16-.22,0-.13,.1-.23,.22-.23,.03,0,.06,0,.08,.02,.01-.02,.03-.05,.05-.07-.05-.04-.08-.1-.08-.17,0-.13,.1-.23,.22-.23,.07,0,.14,.03,.18,.09,.02-.02,.05-.03,.07-.04,0-.02-.01-.05-.01-.07,0-.13,.1-.23,.22-.23,.1,0,.18,.06,.21,.15,.03,0,.06-.01,.09-.02,0-.12,.11-.21,.22-.21,.11,0,.2,.08,.22,.18,.03,0,.06,0,.09,0h.02c.03-.09,.11-.15,.21-.15,.11,0,.21,.09,.22,.2,.03,0,.07,.01,.11,.02,.04-.07,.11-.11,.19-.11,.12,0,.22,.09,.22,.21,.08,.02,.17,.05,.26,.08v-.65c0-.17,.12-.32,.28-.37v-.15s-.03-.08-.08-.08h-.09s0,.05,0,.05c0,.07-.06,.11-.13,.1h0c-.06-.01-.11-.07-.11-.14l.02-.22c0-.06,.06-.11,.13-.1,.05,0,.09,.05,.1,.1h.08s.08-.03,.08-.08v-.02s-.03-.07-.07-.08c-.06,0-.1-.06-.1-.12,0-.06,.05-.12,.12-.12h.32c.06,0,.12,.05,.12,.12,0,.06-.05,.11-.1,.12-.04,0-.07,.04-.07,.08v.03s.04,.08,.08,.08h.08s.05-.09,.1-.1c.06-.01,.12,.03,.13,.1l.02,.22c0,.06-.04,.13-.11,.14-.06,.01-.12-.03-.13-.1v-.05s-.09,0-.09,0c-.04,0-.08,.03-.08,.08v.15h0Zm-1.78,2.88h0c-.02-.42,.34-.48,.47-.09,.01,.04,.05,.06,.09,.07,.07,0,.16,.04,.19,.11,.03,.06,.03,.17,.02,.24-.01,.14-.09,.18-.15,.06-.02-.04-.05-.1-.1-.07-.05,.04-.07,.22-.02,.33,.03,.06,.07,.11,.1,.17,.04,.08,.12,.12,.2,.11,.17-.02,.35-.04,.54-.05,.1,0,.18-.09,.18-.2v-.25c0-.05-.04-.1-.1-.1h0s-.04,0-.06,.02c-.02,.02-.02,.04-.02,.06,0,.12-.05,.14-.12,.14-.09,0-.16-.07-.17-.16l-.04-.59s.03-.07,.07-.07h.07c.09,0,.16,.07,.17,.16v.04s.04,.07,.08,.07h.03c.05,0,.1-.04,.1-.1v-.23c0-.05-.04-.1-.1-.1h-.22c-.09,0-.16-.07-.16-.16,0-.09,.07-.16,.16-.16,.11,0,.1-.06,.1-.15v-.46c-.49-.18-.91-.26-1.25-.28-.41-.02-.71,.07-.9,.22-.2,.16-.28,.41-.22,.76,.03,.16,.09,.34,.18,.54,.13,.04,.25,.12,.33,.24,.13,.2,.13,.53,.21,.64,0,0,0,.01,.01,.02l.18,.27s.08,.06,.13,.05c.05-.01,.09-.03,.14-.04,.05-.01,.09-.06,.09-.12,0-.09,.02-.16,.03-.25,.01-.12-.07-.29-.13-.3-.05-.01-.06,.06-.07,.1-.02,.13-.1,.13-.16,0-.03-.06-.07-.16-.07-.23,0-.07,.07-.14,.14-.17,.04-.02,.06-.05,.06-.09h0Zm3.37,0h0s.02,.08,.06,.09c.07,.03,.13,.1,.14,.17,0,.07-.03,.17-.07,.23-.06,.13-.15,.13-.16,0,0-.04-.02-.11-.07-.1-.06,.02-.14,.18-.13,.3,0,.09,.04,.16,.03,.25,0,.06,.03,.1,.09,.12,.05,.01,.09,.03,.14,.04,.05,.02,.1,0,.13-.05l.18-.27s0-.01,.01-.02c.08-.11,.08-.44,.21-.64,.08-.12,.2-.2,.33-.24,.09-.2,.15-.38,.18-.54,.06-.34-.02-.59-.22-.76-.18-.15-.48-.23-.9-.21-.35,.01-.76,.1-1.25,.28v.46c0,.09-.01,.15,.1,.15,.09,0,.16,.07,.16,.16,0,.09-.07,.16-.16,.16h-.22c-.05,0-.1,.04-.1,.1v.23c0,.05,.04,.1,.1,.1h.03s.08-.03,.08-.07v-.04c0-.09,.08-.17,.17-.17h.07s.08,.03,.07,.07l-.04,.6c0,.09-.07,.16-.16,.17-.07,0-.13-.02-.12-.14,0-.02,0-.04-.02-.06-.01-.02-.03-.02-.06-.02h0c-.05,0-.1,.04-.1,.1v.25c0,.1,.08,.19,.19,.19,.19,0,.37,.03,.54,.05,.08,.01,.16-.03,.2-.11,.03-.06,.07-.11,.1-.17,.05-.11,.04-.29-.02-.33-.04-.03-.08,.03-.1,.07-.07,.12-.14,.08-.15-.06,0-.07,0-.18,.02-.24,.03-.07,.11-.1,.19-.11,.04,0,.07-.03,.09-.07,.13-.4,.49-.33,.47,.09Z"/><rect class="cls-16" x="596.21" y="80.45" width="15.05" height="6.96"/></g></svg>