<?xml version="1.0" encoding="UTF-8"?><svg id="Layer_2" xmlns="http://www.w3.org/2000/svg" viewBox="0 0 110.69 53.74"><defs><style>.cls-1{fill:#ff3008;}</style></defs><g id="Layer_3"><g><path class="cls-1" d="M4.58,41.14c3.61,0,6.34,2.73,6.34,6.17s-2.73,6.17-6.34,6.17H.31c-.17,0-.31-.14-.31-.31v-11.68c0-.17,.14-.31,.31-.31l4.27-.04Zm-1.94,2.38v7.58h1.94c2.07-.03,3.72-1.73,3.69-3.79,.05-2.04-1.55-3.73-3.59-3.79-.03,0-.07,0-.1,0h-1.94Z"/><path class="cls-1" d="M20.25,40.88c3.79,0,6.69,2.91,6.69,6.43s-2.91,6.43-6.69,6.43-6.7-2.91-6.7-6.43,2.91-6.42,6.7-6.42m0,10.47c2.24,0,4.05-1.81,4.05-4.05s-1.81-4.05-4.05-4.05-4.05,1.81-4.05,4.05c0,2.24,1.82,4.05,4.05,4.05"/><path class="cls-1" d="M36.16,40.88c3.79,0,6.7,2.91,6.7,6.43s-2.91,6.43-6.7,6.43-6.69-2.91-6.69-6.43,2.91-6.42,6.69-6.42m0,10.47c2.24,0,4.05-1.81,4.06-4.05,0-2.24-1.81-4.05-4.05-4.06-2.24,0-4.05,1.81-4.06,4.05h0c0,2.24,1.81,4.05,4.05,4.06"/><path class="cls-1" d="M46.36,41.46c0-.17,.14-.31,.31-.31h5.14c2.46,0,4.23,1.8,4.23,4.06,.01,1.52-.84,2.92-2.2,3.61l2.37,4.19c.09,.14,.06,.33-.09,.43-.06,.04-.12,.06-.19,.05h-2.08c-.12,0-.23-.06-.28-.17l-2.29-4.15h-2.29v4c0,.17-.14,.31-.31,.31h-2c-.17,0-.31-.14-.31-.31v-11.71Zm5.36,2.06h-2.73v3.26h2.73c.88,.04,1.63-.64,1.67-1.53,0-.02,0-.04,0-.06,.03-.89-.67-1.64-1.56-1.68-.04,0-.08,0-.11,0"/><path class="cls-1" d="M64.87,41.2c3.61,0,6.35,2.73,6.35,6.17s-2.73,6.17-6.35,6.17h-4.27c-.17,0-.31-.14-.31-.31v-11.72c0-.17,.14-.31,.31-.31h4.27Zm-1.95,2.38v7.58h1.95c2.06-.03,3.72-1.72,3.69-3.79,.05-2.04-1.55-3.73-3.59-3.79-.03,0-.07,0-.1,0h-1.95Z"/><path class="cls-1" d="M76.89,50.56l-.98,2.7c-.04,.13-.17,.22-.31,.21h-2.12c-.17,.02-.32-.11-.34-.28,0-.05,0-.11,.03-.16l4.6-11.68c.05-.13,.17-.21,.31-.2h2.38c.14,0,.26,.07,.31,.2l4.59,11.68c.07,.15,0,.34-.15,.41-.05,.02-.1,.03-.16,.03h-2.13c-.14,0-.26-.08-.31-.21l-.98-2.7h-4.75Zm2.38-6.34l-1.5,4.06h2.99l-1.5-4.06Z"/><path class="cls-1" d="M87.83,44.48c0-1.94,1.68-3.61,4.32-3.61,1.42-.03,2.79,.48,3.83,1.44,.12,.13,.12,.33,0,.45l-1.19,1.19c-.12,.12-.31,.12-.43,0,0,0,0,0,0,0-.56-.51-1.29-.8-2.04-.81-1.06,0-1.84,.62-1.84,1.32,0,2.29,6.25,.97,6.25,5.37,0,2.2-1.68,3.87-4.67,3.87-1.66,.02-3.27-.62-4.46-1.79-.12-.13-.12-.33,0-.45l1.14-1.14c.12-.12,.31-.13,.43,0h0c.73,.7,1.69,1.1,2.69,1.11,1.32,0,2.2-.71,2.2-1.59,0-2.29-6.25-.97-6.25-5.37"/><path class="cls-1" d="M108.06,41.45v4.61h-5.29v-4.61c0-.17-.14-.31-.31-.31h-2.02c-.17,0-.31,.14-.31,.31v11.68c0,.17,.14,.31,.31,.31h2c.17,0,.31-.14,.31-.31v-4.7h5.29v4.7c0,.17,.14,.31,.31,.31h2.03c.17,0,.31-.14,.31-.31v-11.68c0-.17-.14-.31-.31-.31h-2c-.17,0-.31,.13-.32,.3h0"/><path class="cls-1" d="M75.6,6.72C73.39,2.57,69.07-.02,64.37,0H28.8c-.68,0-1.22,.57-1.21,1.25,0,.32,.13,.62,.35,.84l7.75,7.79c.68,.69,1.61,1.08,2.59,1.08h25.08c1.78-.13,3.33,1.21,3.46,3,.13,1.78-1.21,3.33-3,3.46-.13,0-.26,.01-.39,0h-17.3c-.68,0-1.22,.56-1.22,1.24,0,.32,.13,.62,.35,.85l7.75,7.79c.68,.69,1.61,1.08,2.59,1.08h7.82c10.17,0,17.87-10.87,12.18-21.67"/></g></g></svg>