<?xml version="1.0" encoding="UTF-8"?><svg id="Layer_2" xmlns="http://www.w3.org/2000/svg" viewBox="0 0 69.77 69.77"><defs><style>.cls-1{fill:#fff;}.cls-2{fill:#ff3008;}.cls-3{fill:#27346b;}</style></defs><g id="Layer_3"><g><g><path class="cls-2" d="M34.5,58.3c-12.94-.21-23.31-10.91-23.09-23.86,.21-12.94,10.91-23.3,23.86-23.09,12.94,.21,23.31,10.91,23.09,23.86-.21,12.94-10.91,23.31-23.86,23.09Zm.75-46.08c-12.46-.2-22.76,9.77-22.97,22.23-.2,12.46,9.77,22.76,22.23,22.97,12.46,.2,22.76-9.77,22.97-22.23,.2-12.46-9.77-22.76-22.23-22.97Z"/><g><rect class="cls-2" x="29.44" y="13" width=".3" height="17.67" transform="translate(-6.06 12.82) rotate(-22.24)"/><polygon class="cls-2" points="31.64 30.78 20.95 16.71 21.19 16.53 31.89 30.59 31.64 30.78"/><rect class="cls-2" x="23.68" y="17.4" width=".3" height="17.67" transform="translate(-11.5 29.01) rotate(-52.24)"/><rect class="cls-2" x="21.84" y="20.56" width=".31" height="17.67" transform="translate(-13.62 38.31) rotate(-67.24)"/><rect class="cls-2" x="20.89" y="24.09" width=".3" height="17.67" transform="translate(-14.42 49.32) rotate(-82.24)"/><polygon class="cls-2" points="29.82 35.62 12.29 37.84 12.25 37.54 29.78 35.31 29.82 35.62"/><rect class="cls-2" x="13.14" y="39.96" width="17.67" height=".3" transform="translate(-13.55 11.3) rotate(-22.24)"/><polygon class="cls-2" points="16.85 48.75 16.67 48.51 30.73 37.81 30.92 38.06 16.85 48.75"/><rect class="cls-2" x="17.54" y="45.72" width="17.67" height=".3" transform="translate(-26.04 38.6) rotate(-52.21)"/><rect class="cls-2" x="20.7" y="47.55" width="17.67" height=".31" transform="translate(-25.88 56.49) rotate(-67.24)"/><rect class="cls-2" x="24.23" y="48.51" width="17.67" height=".3" transform="translate(-19.6 74.88) rotate(-82.27)"/><polygon class="cls-2" points="37.98 57.41 37.68 57.45 35.46 39.92 35.76 39.88 37.98 57.41"/><rect class="cls-2" x="40.1" y="38.89" width=".3" height="17.67" transform="translate(-15.07 18.78) rotate(-22.24)"/><polygon class="cls-2" points="48.65 53.03 37.95 38.96 38.2 38.78 48.89 52.85 48.65 53.03"/><rect class="cls-2" x="45.86" y="34.49" width=".3" height="17.67" transform="translate(-16.42 53.17) rotate(-52.24)"/><rect class="cls-2" x="47.69" y="31.33" width=".31" height="17.67" transform="translate(-7.7 68.75) rotate(-67.24)"/><rect class="cls-2" x="48.65" y="27.8" width=".3" height="17.67" transform="translate(5.91 80.04) rotate(-82.24)"/><polygon class="cls-2" points="57.59 32.02 40.06 34.25 40.02 33.94 57.55 31.72 57.59 32.02"/><rect class="cls-2" x="39.03" y="29.3" width="17.67" height=".3" transform="translate(-7.58 20.31) rotate(-22.24)"/><polygon class="cls-2" points="39.1 31.75 38.92 31.5 52.99 20.81 53.17 21.05 39.1 31.75"/><rect class="cls-2" x="34.63" y="23.54" width="17.67" height=".3" transform="translate(-1.89 43.52) rotate(-52.21)"/><rect class="cls-2" x="31.47" y="21.7" width="17.67" height=".31" transform="translate(4.56 50.56) rotate(-67.24)"/><rect class="cls-2" x="27.94" y="20.75" width="17.67" height=".3" transform="translate(11.12 54.53) rotate(-82.27)"/><polygon class="cls-2" points="34.39 29.64 34.08 29.68 31.86 12.15 32.16 12.11 34.39 29.64"/></g></g><path class="cls-2" d="M34.88,3.15C17.39,3.15,3.21,17.33,3.21,34.82s14.18,31.68,31.68,31.68,31.68-14.18,31.68-31.68S52.38,3.15,34.88,3.15Zm0,61.96c-16.72,0-30.28-13.56-30.28-30.28S18.16,4.55,34.88,4.55s30.28,13.56,30.28,30.28-13.56,30.28-30.28,30.28Z"/><g><circle class="cls-3" cx="35.01" cy="1.79" r="1.79"/><circle class="cls-3" cx="26.44" cy="2.89" r="1.79"/><path class="cls-3" d="M19.99,5.27c.49,.86,.2,1.95-.66,2.45-.86,.49-1.95,.2-2.45-.66-.49-.86-.2-1.95,.66-2.45,.86-.49,1.95-.2,2.45,.66Z"/><path class="cls-3" d="M12.84,10.13c.7,.7,.7,1.83,0,2.53-.7,.7-1.83,.7-2.53,0-.7-.7-.7-1.83,0-2.53,.7-.7,1.83-.7,2.53,0Z"/><path class="cls-3" d="M7.18,16.68c.86,.49,1.15,1.59,.66,2.45-.49,.86-1.59,1.15-2.45,.66-.86-.49-1.15-1.59-.66-2.45,.49-.86,1.59-1.15,2.45-.66Z"/><circle class="cls-3" cx="2.95" cy="26.2" r="1.79" transform="translate(-4.16 .81) rotate(-9.23)"/><circle class="cls-3" cx="1.79" cy="34.76" r="1.79"/><path class="cls-3" d="M2.42,41.6c.96-.26,1.94,.31,2.2,1.27,.26,.96-.31,1.94-1.27,2.2s-1.94-.31-2.2-1.27c-.26-.96,.31-1.94,1.27-2.2Z"/><circle class="cls-3" cx="6.17" cy="51.33" r="1.79" transform="translate(-33.86 18.61) rotate(-43.88)"/><circle class="cls-3" cx="11.4" cy="58.2" r="1.79"/><path class="cls-3" d="M16.68,62.59c.49-.86,1.59-1.15,2.45-.66,.86,.49,1.15,1.59,.66,2.45-.49,.86-1.59,1.15-2.45,.66-.86-.49-1.15-1.59-.66-2.45Z"/><circle class="cls-3" cx="26.2" cy="66.82" r="1.79" transform="translate(-11.49 5.74) rotate(-10.27)"/><circle class="cls-3" cx="34.76" cy="67.98" r="1.79"/><circle class="cls-3" cx="43.33" cy="66.88" r="1.79" transform="translate(-5.02 3.53) rotate(-4.41)"/><path class="cls-3" d="M49.77,64.5c-.49-.86-.2-1.95,.66-2.45,.86-.49,1.95-.2,2.45,.66,.49,.86,.2,1.95-.66,2.45-.86,.49-1.95,.2-2.45-.66Z"/><path class="cls-3" d="M56.93,59.64c-.7-.7-.7-1.83,0-2.53s1.83-.7,2.53,0c.7,.7,.7,1.83,0,2.53-.7,.7-1.83,.7-2.53,0Z"/><path class="cls-3" d="M62.59,53.09c-.86-.49-1.15-1.59-.66-2.45,.49-.86,1.59-1.15,2.45-.66,.86,.49,1.15,1.59,.66,2.45-.49,.86-1.59,1.15-2.45,.66Z"/><circle class="cls-3" cx="66.82" cy="43.57" r="1.79" transform="translate(20.18 108.27) rotate(-87.32)"/><circle class="cls-3" cx="67.98" cy="35.01" r="1.79"/><circle class="cls-3" cx="66.88" cy="26.44" r="1.79"/><path class="cls-3" d="M64.5,19.99c-.86,.49-1.95,.2-2.45-.66-.49-.86-.2-1.95,.66-2.45,.86-.49,1.95-.2,2.45,.66,.49,.86,.2,1.95-.66,2.45Z"/><circle class="cls-3" cx="58.37" cy="11.57" r="1.79"/><path class="cls-3" d="M53.09,7.18c-.49,.86-1.59,1.15-2.45,.66-.86-.49-1.15-1.59-.66-2.45,.49-.86,1.59-1.15,2.45-.66,.86,.49,1.15,1.59,.66,2.45Z"/><path class="cls-3" d="M45.3,3.41c-.26,.96-1.24,1.52-2.2,1.27-.96-.26-1.52-1.24-1.27-2.2,.26-.96,1.24-1.52,2.2-1.27s1.52,1.24,1.27,2.2Z"/></g><g><circle class="cls-3" cx="34.88" cy="34.82" r="5.95" transform="translate(-.06 69.59) rotate(-89.81)"/><circle class="cls-1" cx="34.88" cy="34.82" r="4.33" transform="translate(-.07 69.58) rotate(-89.78)"/><circle class="cls-2" cx="34.88" cy="34.82" r="1.84"/></g></g></g></svg>