<?xml version="1.0" encoding="utf-8"?>
<!-- Generator: Adobe Illustrator 25.0.0, SVG Export Plug-In . SVG Version: 6.00 Build 0)  -->
<svg version="1.1" id="_Layer_" xmlns="http://www.w3.org/2000/svg" xmlns:xlink="http://www.w3.org/1999/xlink" x="0px" y="0px"
	 viewBox="0 0 728 90" style="enable-background:new 0 0 728 90;" xml:space="preserve">
<style type="text/css">
	.st0{fill:#FFFFFF;}
</style>
<path class="st0" d="M384.4,61.8c0-3.7,2.2-5.8,4.8-5.8c1.4-0.1,2.7,0.6,3.3,1.8l0.2-1.6h3.2l-1.3,7.2c-0.1,0.4,0.1,0.6,0.4,0.6h0.7
	l-0.4,2.4h-1.2c-2.3,0-2.6-0.6-2.8-1.4v-0.1c-0.6,1.1-1.7,1.8-3,1.8C386.2,66.7,384.4,64.8,384.4,61.8z M392,61.1
	c0-1.4-0.7-2.4-2-2.4s-2.2,1.1-2.2,2.9c0,1.4,0.7,2.3,2,2.3S392,62.8,392,61.1L392,61.1z"/>
<path class="st0" d="M398.6,56.2h3.2l-0.4,1.8c0.6-1.3,1.9-2,3.3-2c2.2,0,3.6,1.9,3.1,4.8l-0.5,2.7c-0.1,0.4,0.1,0.6,0.4,0.6h0.7
	l-0.4,2.4h-1.2c-2.3,0-3.1-0.5-2.7-3l0.5-2.6c0.2-1.4-0.3-2.1-1.4-2.1s-1.9,0.6-2.2,2.1l-1,5.6h-3.2L398.6,56.2z"/>
<path class="st0" d="M409.8,61.8c0-3.7,2.3-5.8,5-5.8c1.4-0.1,2.7,0.6,3.4,1.7l1.5-8.6h3.2l-2.5,14.3c-0.1,0.4,0.1,0.6,0.4,0.6h0.7
	l-0.4,2.4h-1.2c-2.3,0-2.7-0.6-2.8-1.5v-0.2c-0.6,1.2-1.8,1.9-3.1,1.8C411.6,66.7,409.8,64.8,409.8,61.8z M417.6,61.1
	c0.2-1.1-0.6-2.2-1.8-2.3c-0.1,0-0.2,0-0.3,0c-1.5,0-2.4,1.1-2.4,2.9c-0.2,1.1,0.6,2.1,1.7,2.3c0.1,0,0.3,0,0.4,0
	C416.6,63.9,417.6,62.8,417.6,61.1z"/>
<path class="st0" d="M427,64.5l2.2-1.5c0.5,0.8,1.3,1.2,2.3,1.2c1,0,1.2-0.3,1.2-0.6s-0.4-0.5-1.9-1.2s-2.3-1.5-2.3-3.1
	c0-2.1,1.6-3.3,3.9-3.3c1.4-0.1,2.7,0.5,3.6,1.5l-2.1,1.7c-0.3-0.5-0.9-0.8-1.5-0.8c-0.6,0-0.9,0.2-0.9,0.6s0.4,0.6,1.5,1
	c1.7,0.7,2.9,1.4,2.9,3.4c0,1.9-1.4,3.2-4.3,3.2C429.7,66.8,428,66,427,64.5z"/>
<path class="st0" d="M437.5,58.8l0.5-2.6h1.5l0.9-5.3h3.1l-0.9,5.3h2.5l-0.5,2.6h-2.5l-0.7,3.9c-0.2,1,0.1,1.3,0.6,1.3
	c0.4,0,0.8-0.1,1.1-0.4l1,2.2c-0.8,0.6-1.7,0.9-2.7,0.8c-2,0-3.7-0.9-3.2-4.1l0.7-3.8H437.5z"/>
<path class="st0" d="M446,63.5l1.3-7.3h3.2l-1.3,7.2c-0.1,0.4,0.1,0.6,0.4,0.6h0.7l-0.4,2.4h-1.2C446.4,66.4,445.5,65.9,446,63.5z
	 M447.5,52.5c0-1.1,0.8-1.9,1.9-1.9c0,0,0.1,0,0.1,0c1.1,0,2,0.9,2,2c0,1.1-0.9,2-2,2S447.5,53.6,447.5,52.5
	C447.5,52.5,447.5,52.5,447.5,52.5z"/>
<path class="st0" d="M452.2,63.5l2.5-14.4h3.2l-2.5,14.3c-0.1,0.4,0.1,0.6,0.4,0.6h0.9l-0.4,2.4h-1.4
	C452.6,66.4,451.8,65.9,452.2,63.5z"/>
<path class="st0" d="M458.5,63.5l2.5-14.4h3.2l-2.5,14.3c-0.1,0.4,0.1,0.6,0.4,0.6h0.9l-0.4,2.4h-1.4
	C458.9,66.4,458,65.9,458.5,63.5z"/>
<path class="st0" d="M468.7,64.5l2.2-1.5c0.5,0.8,1.3,1.2,2.2,1.2c1,0,1.2-0.3,1.2-0.6s-0.4-0.5-1.9-1.2s-2.3-1.5-2.3-3.1
	c0-2.1,1.6-3.3,3.8-3.3c1.4-0.1,2.7,0.5,3.6,1.5l-2.1,1.7c-0.3-0.5-0.9-0.8-1.5-0.8c-0.5,0-0.9,0.2-0.9,0.6s0.4,0.6,1.5,1
	c1.7,0.7,2.9,1.4,2.9,3.4c0,1.9-1.4,3.2-4.3,3.2C471.3,66.7,469.7,65.9,468.7,64.5z"/>
<path class="st0" d="M482,49.1h3.2l-1.6,8.9c0.6-1.2,1.9-2,3.2-2c2.2,0,3.6,1.9,3.1,4.8l-0.5,2.7c-0.1,0.4,0.1,0.6,0.4,0.6h0.7
	l-0.4,2.4h-1c-2.2,0-3.3-0.7-2.9-3.1l0.4-2.5c0.2-1.4-0.3-2.1-1.4-2.1s-1.9,0.6-2.2,2.1l-1,5.6h-3.2L482,49.1z"/>
<path class="st0" d="M491.9,61.8c0-3.7,2.3-5.8,4.9-5.8c1.4-0.1,2.7,0.6,3.3,1.8l0.2-1.6h3.2l-1.3,7.2c-0.1,0.4,0.1,0.6,0.4,0.6h0.7
	l-0.4,2.4h-1.2c-2.3,0-2.6-0.6-2.8-1.4v-0.1c-0.6,1.1-1.7,1.8-3,1.8C493.7,66.7,491.9,64.8,491.9,61.8z M499.5,61.1
	c0-1.4-0.7-2.4-2-2.4s-2.3,1.1-2.3,2.9c0,1.4,0.7,2.3,2,2.3S499.5,62.8,499.5,61.1z"/>
<path class="st0" d="M507.4,66.4h-3.2l3-17.3h3.2l-1.6,8.8c-0.1,0.8-0.3,1.6-0.6,2.3l3.9-4h3.6l-4.1,4.2l1.5,3
	c0.3,0.5,0.4,0.6,0.8,0.6h0.7l-0.4,2.4h-1.2c-1.8,0-2.2-0.6-3-2l-1-2l-1.2,1L507.4,66.4z"/>
<path class="st0" d="M522,64.1c0.9,0,1.7-0.3,2.4-0.9l1.9,2c-1.2,1-2.8,1.5-4.3,1.5c-3.7,0-5.8-2.3-5.8-5.3
	c-0.1-2.9,2.2-5.3,5.1-5.4c0.1,0,0.3,0,0.4,0c3.6,0,5.2,2.3,5.4,5.7l-7.6,0.8C519.9,63.6,520.9,64.2,522,64.1z M523.6,60.3
	c0-1-0.7-1.8-1.7-1.8c-0.1,0-0.1,0-0.2,0c-1.2-0.1-2.3,0.8-2.3,2c0,0.1,0,0.1,0,0.2L523.6,60.3z"/>
<path class="st0" d="M533.7,63.5l1.3-7.3h3.2l-1.3,7.2c-0.1,0.4,0.1,0.6,0.4,0.6h0.8l-0.4,2.4h-1.2C534,66.4,533.2,65.9,533.7,63.5z
	 M535.2,52.5c0-1,0.8-1.9,1.9-1.9c0,0,0.1,0,0.1,0c1.1,0,2,0.8,2.1,1.9s-0.8,2-1.9,2.1c-1.1,0-2-0.8-2.1-1.9
	C535.2,52.6,535.2,52.5,535.2,52.5z"/>
<path class="st0" d="M540,58.8l0.5-2.6h1.5l0.9-5.3h3.2l-0.9,5.3h2.5l-0.5,2.6h-2.5l-0.7,3.9c-0.2,1,0.1,1.3,0.6,1.3
	c0.4,0,0.8-0.1,1.1-0.4l1,2.2c-0.8,0.6-1.7,0.9-2.7,0.8c-2,0-3.7-0.9-3.2-4.1l0.7-3.8H540z"/>
<path class="st0" d="M553.6,61.9l1-5.7h3.2l-1,5.6c-0.2,1.4,0.3,2.1,1.4,2.1s1.9-0.6,2.2-2.1l1-5.5h3.2l-1.3,7.2
	c-0.1,0.4,0.1,0.6,0.4,0.6h0.7l-0.4,2.4h-1.2c-2.3,0-2.7-0.6-2.8-1.5v-0.2c-0.7,1.2-2,1.9-3.4,1.8C554.5,66.7,553.1,64.8,553.6,61.9
	z"/>
<path class="st0" d="M567.3,56.2h3.2l-0.3,1.5c0.6-1,1.8-1.7,3-1.7c2.3,0,4.1,1.9,4.1,4.9c0,3.6-2.3,5.8-4.8,5.8
	c-1.4,0.1-2.8-0.7-3.4-2l-1.2,6.9h-3.2L567.3,56.2z M574,61c0.2-1.1-0.6-2.1-1.7-2.3c-0.1,0-0.3,0-0.4,0c-1.4,0-2.4,1.2-2.4,2.8
	c0,1.4,0.8,2.4,2.1,2.4S574,62.8,574,61z"/>
<path class="st0" d="M583.8,61.8c0-3.7,2.2-5.8,4.8-5.8c1.4-0.1,2.7,0.6,3.3,1.8l0.2-1.6h3.2l-1.3,7.2c-0.1,0.4,0.1,0.6,0.4,0.6h0.7
	l-0.4,2.4h-1.2c-2.3,0-2.6-0.6-2.8-1.4v-0.1c-0.6,1.1-1.7,1.8-3,1.8C585.6,66.7,583.8,64.8,583.8,61.8z M591.3,61.1
	c0-1.4-0.7-2.4-2-2.4s-2.3,1.1-2.3,2.9c0,1.4,0.7,2.3,2,2.3S591.3,62.8,591.3,61.1L591.3,61.1z"/>
<path class="st0" d="M601.7,63.5l2.5-14.4h3.2l-2.5,14.3c-0.1,0.4,0.1,0.6,0.4,0.6h0.9l-0.4,2.4h-1.4
	C602.1,66.4,601.3,65.9,601.7,63.5z"/>
<path class="st0" d="M608,63.5l1.3-7.3h3.2l-1.3,7.2c-0.1,0.4,0.1,0.6,0.4,0.6h0.7l-0.4,2.4h-1.2C608.4,66.4,607.5,65.9,608,63.5z
	 M609.6,52.5c0-1,0.8-1.9,1.9-1.9c0,0,0.1,0,0.1,0c1.1,0,2,0.8,2.1,1.9s-0.8,2-1.9,2.1c-1.1,0-2-0.8-2.1-1.9
	C609.6,52.6,609.6,52.5,609.6,52.5z"/>
<path class="st0" d="M614.4,58.8l0.5-2.6h1.5l0.9-5.3h3.1l-0.9,5.3h2.5l-0.5,2.6H619l-0.7,3.9c-0.2,1,0.1,1.3,0.6,1.3
	c0.4,0,0.8-0.1,1.1-0.4l1,2.2c-0.8,0.6-1.7,0.9-2.7,0.8c-2,0-3.7-0.9-3.2-4.1l0.7-3.8H614.4z"/>
<path class="st0" d="M623,58.8l0.5-2.6h1.5l0.9-5.3h3.1l-0.9,5.3h2.5l-0.5,2.6h-2.5l-0.7,3.9c-0.2,1,0.1,1.3,0.6,1.3
	c0.4,0,0.8-0.1,1.1-0.4l1,2.2c-0.8,0.6-1.7,0.9-2.7,0.8c-2,0-3.7-0.9-3.2-4.1l0.7-3.8H623z"/>
<path class="st0" d="M631.7,63.5l2.5-14.4h3.2l-2.5,14.3c-0.1,0.4,0.1,0.6,0.4,0.6h0.9l-0.4,2.4h-1.4
	C632.1,66.4,631.2,65.9,631.7,63.5z"/>
<path class="st0" d="M643.8,64.1c0.9,0,1.7-0.3,2.4-0.9l1.9,2c-1.2,1-2.8,1.5-4.4,1.4c-3.7,0-5.8-2.3-5.8-5.3
	c-0.1-2.9,2.2-5.3,5.1-5.4c0.1,0,0.3,0,0.4,0c3.6,0,5.2,2.3,5.4,5.7l-7.6,0.8C641.7,63.6,642.7,64.2,643.8,64.1z M645.4,60.3
	c0-1-0.7-1.8-1.7-1.8c-0.1,0-0.1,0-0.2,0c-1.2-0.1-2.3,0.8-2.4,2c0,0.1,0,0.2,0,0.2L645.4,60.3z"/>
<path class="st0" d="M649.9,64.6c-0.1-1.1,0.7-2,1.8-2.1c1.1-0.1,2,0.7,2.1,1.8c0,0.1,0,0.2,0,0.3c0.1,1.1-0.7,2-1.8,2.1
	c-1.1,0.1-2-0.7-2.1-1.8C649.9,64.8,649.9,64.7,649.9,64.6z"/>
</svg>
