<?xml version="1.0" encoding="utf-8"?>
<!-- Generator: Adobe Illustrator 25.0.0, SVG Export Plug-In . SVG Version: 6.00 Build 0)  -->
<svg version="1.1" id="Layer_1" xmlns="http://www.w3.org/2000/svg" xmlns:xlink="http://www.w3.org/1999/xlink" x="0px" y="0px"
	 viewBox="0 0 729 90" style="enable-background:new 0 0 729 90;" xml:space="preserve">
<style type="text/css">
	.st0{fill:#F1F2F2;}
</style>
<path class="st0" d="M47.1,22.7l0.2-1.2h0.9l0.3-1.2h1.2l-0.3,1.2h0.9l0.3-1.2h1.2l-0.3,1.2h0.7l-0.2,1.2h-0.8l-0.2,0.9h0.8
	l-0.2,1.2h-0.9l-0.3,1.2h-1.2l0.3-1.2h-0.9l-0.3,1.2h-1.2l0.3-1.2h-0.7l0.2-1.2h0.8l0.2-0.9L47.1,22.7z M49.2,22.7L49,23.6h0.9
	l0.2-0.9H49.2z"/>
<path class="st0" d="M53.3,19.5H55l0.8,3.1c0.2,0.7,0.3,1.4,0.4,2.1c0.3-0.7,0.6-1.4,1-2l1.8-3.2h1.7l-4.9,8.3h-0.2L53.3,19.5z"/>
<path class="st0" d="M60.2,26.3l0.6-3.7h1.6l-0.6,3.7c0,0.2,0,0.3,0.2,0.3h0.4l-0.2,1.2h-0.6C60.4,27.8,60,27.5,60.2,26.3z M61,20.7
	c0-0.6,0.4-1,1-1s1,0.4,1,1s-0.4,1-1,1S61,21.3,61,20.7z"/>
<path class="st0" d="M62.9,26.8l1.1-0.8c0.2,0.4,0.7,0.6,1.1,0.6c0.5,0,0.6-0.1,0.6-0.3s-0.2-0.2-1-0.6c-0.7-0.2-1.2-0.8-1.2-1.6
	c0-1.1,0.8-1.7,1.9-1.7c0.7,0,1.3,0.3,1.8,0.8l-1,0.9c-0.2-0.3-0.5-0.4-0.8-0.4c-0.3,0-0.5,0.1-0.5,0.3s0.2,0.3,0.7,0.5
	c0.9,0.4,1.5,0.7,1.5,1.7s-0.7,1.6-2.2,1.6C64.2,28,63.4,27.6,62.9,26.8z"/>
<path class="st0" d="M68.3,26.3l0.7-3.7h1.6L70,26.3c0,0.2,0,0.3,0.2,0.3h0.4l-0.2,1.2h-0.6C68.6,27.8,68.1,27.5,68.3,26.3z
	 M69.1,20.7c0-0.6,0.4-1,1-1s1,0.4,1,1s-0.4,1-1,1S69.1,21.3,69.1,20.7z"/>
<path class="st0" d="M71.6,24l0.2-1.3h0.8l0.4-2.7h1.6l-0.5,2.7h1.2L75.2,24h-1.2l-0.3,2c-0.1,0.5,0,0.6,0.3,0.6
	c0.2,0,0.4-0.1,0.6-0.2l0.5,1c-0.4,0.3-0.9,0.4-1.3,0.4c-1,0-1.9-0.5-1.6-2l0.3-1.9H71.6z"/>
<path class="st0" d="M77.2,19.5h0.1l3.1,4.5l4.8-4.5h0.1l-1.5,8.3h-1.6l0.5-3.1c0.1-0.5,0.3-1.5,0.3-1.5c-0.3,0.4-0.6,0.8-1,1.2
	l-1.9,1.8h-0.2l-1.3-1.8c-0.3-0.4-0.5-0.8-0.7-1.2c0,0-0.1,1-0.2,1.5l-0.6,3.1h-1.6L77.2,19.5z"/>
<path class="st0" d="M85.2,26.2l1.3-0.9c0.3,0.6,1,1.1,1.7,1.1c0.7,0,1.2-0.3,1.2-0.9s-0.3-0.7-1-1.2L88,24.2
	c-0.9-0.4-1.5-1.4-1.6-2.4c0-1.3,1-2.3,2.3-2.3c0.1,0,0.2,0,0.3,0c0.9,0,1.7,0.3,2.2,1l-1.2,1c-0.2-0.4-0.7-0.6-1.1-0.6
	c-0.4,0-0.8,0.3-0.8,0.7c0,0,0,0.1,0,0.1c0,0.4,0.2,0.7,0.8,1.1l0.4,0.2c1.1,0.7,1.8,1.3,1.8,2.5c0,1.6-1.2,2.5-2.9,2.5
	C87,27.9,85.9,27.3,85.2,26.2z"/>
<path class="st0" d="M98.1,27.8h-1.8l-1.1-2.1H94l-0.4,2H92l1.4-8.2h1.8c2.1,0,3.4,1.1,3.4,2.9c0.1,1.3-0.7,2.4-1.9,2.8L98.1,27.8z
	 M94.9,24.3c1.3,0,2.1-0.6,2.1-1.8c0-1.1-0.7-1.5-1.8-1.5h-0.3l-0.6,3.3H94.9z"/>
<path class="st0" d="M102.1,26.6c0.4,0,0.9-0.2,1.2-0.4l1,1c-0.6,0.5-1.4,0.8-2.2,0.7c-1.4,0.2-2.7-0.9-2.9-2.3c0-0.1,0-0.2,0-0.3
	c0-1.5,1.1-2.7,2.6-2.7c0.1,0,0.1,0,0.2,0c1.8,0,2.6,1.2,2.7,2.9l-3.8,0.4C101,26.3,101.5,26.7,102.1,26.6z M102.9,24.7
	c0-0.5-0.4-0.9-0.9-0.9c0,0-0.1,0-0.1,0c-0.6,0-1.1,0.4-1.2,1c0,0,0,0.1,0,0.1L102.9,24.7z"/>
<path class="st0" d="M105,26.8l1.1-0.8c0.2,0.4,0.7,0.6,1.1,0.6c0.5,0,0.6-0.1,0.6-0.3s-0.2-0.2-1-0.6c-0.7-0.2-1.2-0.8-1.2-1.6
	c0-1.1,0.8-1.7,1.9-1.7c0.7,0,1.4,0.3,1.8,0.8l-1,0.9c-0.2-0.3-0.5-0.4-0.8-0.4c-0.3,0-0.5,0.1-0.5,0.3s0.2,0.3,0.7,0.5
	c0.9,0.4,1.4,0.7,1.4,1.7s-0.7,1.6-2.2,1.6C106.3,28,105.5,27.6,105,26.8z"/>
<path class="st0" d="M111.1,22.6h1.6l-0.2,0.8c0.3-0.5,0.9-0.8,1.5-0.9c1.2,0.1,2.2,1.1,2.1,2.3c0,0.1,0,0.1,0,0.2
	c0.2,1.4-0.9,2.7-2.3,2.9c0,0-0.1,0-0.1,0c-0.7,0-1.4-0.4-1.7-1l-0.6,3.5h-1.6L111.1,22.6z M114.4,25.1c0.1-0.5-0.3-1.1-0.8-1.1
	c-0.1,0-0.1,0-0.2,0c-0.7,0-1.2,0.6-1.2,1.3c0,0,0,0.1,0,0.1c0,0.7,0.4,1.2,1,1.2S114.4,26,114.4,25.1z"/>
<path class="st0" d="M116.9,25.3c0-1.5,1.2-2.7,2.7-2.8c0.1,0,0.1,0,0.2,0c1.4-0.1,2.7,1.1,2.7,2.5c0,0,0,0.1,0,0.1
	c0,1.5-1.2,2.7-2.7,2.8c-0.1,0-0.1,0-0.2,0c-1.4,0.1-2.7-1.1-2.7-2.5C116.9,25.4,116.9,25.3,116.9,25.3z M120.9,25.1
	c0.1-0.6-0.4-1.2-1-1.2c0,0-0.1,0-0.1,0c-0.7,0-1.2,0.6-1.2,1.4c-0.1,0.6,0.4,1.2,1,1.2c0.1,0,0.1,0,0.2,0
	C120.4,26.5,120.9,26,120.9,25.1L120.9,25.1z"/>
<path class="st0" d="M124,22.6h1.6l-0.2,0.9c0.3-0.6,1-1,1.7-1c1.1,0,1.8,1,1.6,2.4l-0.2,1.4c0,0.2,0,0.3,0.2,0.3h0.4l-0.2,1.2h-0.6
	c-1.2,0-1.6-0.3-1.4-1.5L127,25c0.1-0.7-0.2-1-0.7-1s-1,0.3-1.1,1.1l-0.5,2.8h-1.6L124,22.6z"/>
<path class="st0" d="M129.5,26.8l1.1-0.8c0.2,0.4,0.7,0.6,1.1,0.6c0.5,0,0.6-0.1,0.6-0.3s-0.2-0.2-1-0.6c-0.7-0.2-1.2-0.8-1.2-1.6
	c0-1.1,0.8-1.7,1.9-1.7c0.7,0,1.4,0.3,1.8,0.8l-1.1,0.9c-0.2-0.3-0.5-0.4-0.8-0.4c-0.3,0-0.5,0.1-0.5,0.3s0.2,0.3,0.7,0.5
	c0.9,0.4,1.5,0.7,1.5,1.7s-0.7,1.6-2.2,1.6C130.8,28,130,27.6,129.5,26.8z"/>
<path class="st0" d="M135,26.3l0.6-3.7h1.6l-0.6,3.7c0,0.2,0,0.3,0.2,0.3h0.4l-0.2,1.2h-0.6C135.1,27.8,134.7,27.5,135,26.3z
	 M135.8,20.7c0-0.6,0.4-1,1-1s1,0.4,1,1s-0.4,1-1,1S135.8,21.3,135.8,20.7z"/>
<path class="st0" d="M139.6,26.8l-0.1,1h-1.6l1.5-8.8h1.6l-0.8,4.3c0.3-0.5,0.9-0.8,1.5-0.8c1.2,0,2.2,1,2.2,2.3c0,0.1,0,0.2,0,0.3
	c0.2,1.4-0.9,2.7-2.3,2.9c0,0-0.1,0-0.1,0C140.6,28,139.9,27.5,139.6,26.8z M142.2,25.1c0.1-0.5-0.3-1.1-0.8-1.1c-0.1,0-0.2,0-0.2,0
	c-0.7,0-1.2,0.6-1.2,1.3c0,0,0,0.1,0,0.1c0,0.7,0.4,1.2,1.1,1.2S142.2,26,142.2,25.1z"/>
<path class="st0" d="M144.7,26.3L146,19h1.6l-1.3,7.2c0,0.2,0,0.3,0.2,0.3h0.4l-0.2,1.2h-0.7C144.9,27.8,144.5,27.5,144.7,26.3z"/>
<path class="st0" d="M147.4,29.5l1.1-1c0.3,0.4,0.8,0.7,1.3,0.7c0.7,0,1.3-0.5,1.3-1.2c0,0,0,0,0,0l0.1-0.8c-0.4,0.5-1,0.8-1.6,0.8
	c-1.1,0-1.8-1-1.6-2.4l0.5-2.9h1.6l-0.5,2.8c-0.1,0.7,0.2,1,0.7,1s1-0.3,1.1-1.1l0.5-2.8h1.6l-1,5.5c-0.2,1.5-1.5,2.6-3,2.4
	c0,0,0,0,0,0C148.8,30.5,147.9,30.1,147.4,29.5z"/>
</svg>
