<svg xmlns="http://www.w3.org/2000/svg" viewBox="0 0 139.47 86.28"><defs><style>.cls-1{fill:#231f20;}</style></defs><title>t2-160</title><g id="Layer_2" data-name="Layer 2"><g id="Layer_1-2" data-name="Layer 1"><path class="cls-1" d="M.17,19.72V13.11H3.46a3.71,3.71,0,0,0,1,2.67,2.89,2.89,0,0,0,2,.86,2.1,2.1,0,0,0,2.12-2.08,2,2,0,0,0-.6-1.5,8.38,8.38,0,0,0-2.19-1.39A17.14,17.14,0,0,1,1.2,8.81,4.64,4.64,0,0,1,0,5.45,5,5,0,0,1,1.59,1.51,5.35,5.35,0,0,1,5.21.11,4.1,4.1,0,0,1,8.79,1.92V.31h3.28v5.9H8.79A3.25,3.25,0,0,0,7.85,4.1,2.57,2.57,0,0,0,6,3.35a2.16,2.16,0,0,0-1.37.43,1.38,1.38,0,0,0-.56,1.13,1.72,1.72,0,0,0,.46,1.14,9.1,9.1,0,0,0,2.7,1.52,22.66,22.66,0,0,1,3.3,1.74,5.68,5.68,0,0,1,1.82,2A6,6,0,0,1,13,14.18a5.43,5.43,0,0,1-1.68,4.33A5.9,5.9,0,0,1,7.4,20a4.58,4.58,0,0,1-3.94-1.89v1.65Z"/><path class="cls-1" d="M18.2,19.72V16.44h2.92V3.59H18.2V8.11H14.86V.31h17.6v7.8H29.17V3.59h-3V16.44h2.92v3.28Z"/><path class="cls-1" d="M44.84,0a10.67,10.67,0,0,1,7.91,2.9A9.69,9.69,0,0,1,55.63,10a9.63,9.63,0,0,1-2.89,7.08,10.66,10.66,0,0,1-7.9,2.9c-3.47,0-6.13-1-8-3a9.92,9.92,0,0,1-2.79-7,9.71,9.71,0,0,1,2.87-7.07A10.61,10.61,0,0,1,44.84,0Zm0,3.54a5,5,0,0,0-3.79,1.68,7,7,0,0,0-1.55,4.91A6.62,6.62,0,0,0,41,14.71a4.91,4.91,0,0,0,3.81,1.72,5,5,0,0,0,3.8-1.68A6.88,6.88,0,0,0,50.2,9.9a6.91,6.91,0,0,0-1.49-4.6A4.86,4.86,0,0,0,44.84,3.54Z"/><path class="cls-1" d="M78,16.44v3.28H72l-4.38-8.5H65.43v5.22h2.43v3.28H57.71V16.44h2.67V3.59H57.71V.31H69.42c2.21,0,3.79.55,4.77,1.66a5.63,5.63,0,0,1,1.46,3.78,5,5,0,0,1-3.37,4.83l3.16,5.86ZM65.43,8.12h1.73c2.14,0,3.21-.76,3.21-2.29a2,2,0,0,0-.73-1.68,3.21,3.21,0,0,0-2-.56H65.43Z"/><path class="cls-1" d="M97.88,16.44v3.28H88.33V16.44h2.49l-.92-3.33h-5l-1,3.33h2.6v3.28h-8.6V16.44h2.4L84,3.59H81.42V.31H94.1V3.59H91.49l4.07,12.85ZM89.1,10.26,87.48,4.41l-1.74,5.85Z"/><path class="cls-1" d="M111,13.2V9.92h9.1a10.6,10.6,0,0,1-1.28,5.6,8.7,8.7,0,0,1-3.71,3.25A12.37,12.37,0,0,1,109.63,20q-5.26,0-8.07-2.82A9.7,9.7,0,0,1,98.75,10a10.08,10.08,0,0,1,1.39-5.32,9,9,0,0,1,3.76-3.49A11.36,11.36,0,0,1,109,0a8.93,8.93,0,0,1,6.08,1.9V.31h3.3V7.2h-3.3a4.79,4.79,0,0,0-2-2.75,5.88,5.88,0,0,0-3.29-1,5.34,5.34,0,0,0-4,1.64,6.14,6.14,0,0,0-1.63,4.54,7,7,0,0,0,1.66,5.06,5.36,5.36,0,0,0,4,1.74,4.83,4.83,0,0,0,2.92-.85,4.41,4.41,0,0,0,1.61-2.38Z"/><path class="cls-1" d="M122.36,19.72V16.44h2.33V3.59h-2.33V.31h17.11V6.46h-3.71V3.59h-6V8.07h4.86v3.28h-4.86v5.09h6v-2.9h3.71v6.18Z"/><path class="cls-1" d="M24.55,52.88V49.6h2.51V36.75H24.55V33.47h9.74l4.26,11.37,4.28-11.37h9.93v3.28H50.24V49.6h2.52v3.28H43V49.6h2.34V36.75h-.46l-6,16.13h-2.1L30.68,36.75h-.46V49.6h2.54v3.28Z"/><path class="cls-1" d="M73.54,49.6v3.28H64V49.6h2.49l-.92-3.34h-5l-1,3.34h2.6v3.28h-8.6V49.6h2.4l3.79-12.85H57.08V33.47H69.76v3.28H67.15L71.22,49.6Zm-8.78-6.18-1.62-5.85L61.4,43.42Z"/><path class="cls-1" d="M74.18,52.88V49.6h2.95V36.75H74.18V33.47h9.2a24.47,24.47,0,0,1,4.67.35,8.29,8.29,0,0,1,3.4,1.58A8.59,8.59,0,0,1,94,38.67a10.49,10.49,0,0,1,1,4.55,11.08,11.08,0,0,1-.68,3.86,9.37,9.37,0,0,1-1.7,3,7.7,7.7,0,0,1-2.42,1.79,10,10,0,0,1-2.59.85,24.45,24.45,0,0,1-3.65.2Zm8-3.28h1.22a8.87,8.87,0,0,0,3.5-.57A4.39,4.39,0,0,0,89,47a7.91,7.91,0,0,0,.78-3.77,8.18,8.18,0,0,0-.79-3.77,4.34,4.34,0,0,0-2.13-2.14,8.67,8.67,0,0,0-3.43-.58H82.16Z"/><path class="cls-1" d="M97.38,52.88V49.6h2.33V36.75H97.38V33.47h17.11v6.15h-3.71V36.75h-6v4.48h4.86v3.28h-4.86V49.6h6V46.7h3.71v6.18Z"/><path class="cls-1" d="M33.5,86V82.76h2.33V69.9H33.5V66.62H50.62v6.16H46.9V69.9h-6v4.48h4.85v3.28H40.89v5.1h6v-2.9h3.72V86Z"/><path class="cls-1" d="M71.61,82.76V86H62.06V82.76h2.48l-.92-3.34h-5l-1,3.34h2.6V86h-8.6V82.76H54L57.73,69.9H55.15V66.62H67.82V69.9H65.21l4.08,12.86Zm-8.78-6.18-1.62-5.85-1.75,5.85Z"/><path class="cls-1" d="M72.93,86V79.42h3.3a3.66,3.66,0,0,0,1,2.67,2.81,2.81,0,0,0,2,.86,2.12,2.12,0,0,0,2.13-2.08,2.07,2.07,0,0,0-.6-1.5A8.78,8.78,0,0,0,78.54,78,17.3,17.3,0,0,1,74,75.13a4.65,4.65,0,0,1-1.2-3.36,5,5,0,0,1,1.59-3.94A5.28,5.28,0,0,1,78,66.43a4.12,4.12,0,0,1,3.59,1.81V66.62h3.28v5.91H81.56a3.35,3.35,0,0,0-.94-2.12,2.63,2.63,0,0,0-1.84-.74,2.18,2.18,0,0,0-1.37.43,1.36,1.36,0,0,0-.55,1.13,1.72,1.72,0,0,0,.46,1.14A9.08,9.08,0,0,0,80,73.89a22.7,22.7,0,0,1,3.3,1.73,5.53,5.53,0,0,1,1.82,2,5.83,5.83,0,0,1,.67,2.85,5.44,5.44,0,0,1-1.67,4.33,5.87,5.87,0,0,1-4,1.46,4.56,4.56,0,0,1-3.93-1.9V86Z"/><path class="cls-1" d="M91.59,86V82.76h2.73V77.51L89.05,69.9H86.68V66.62H96.4V69.9H94.48l2.85,4.74,2.9-4.74h-2V66.62h8.56V69.9h-2.39l-5,7.61v5.25h2.71V86Z"/></g></g></svg>