<svg xmlns="http://www.w3.org/2000/svg" xmlns:xlink="http://www.w3.org/1999/xlink" viewBox="0 0 629.35 326.31"><defs><style>.cls-1{fill:none;}.cls-2{isolation:isolate;}.cls-3{fill:#e6e7e8;}.cls-4{fill:#414042;}.cls-5{fill:#bcbec0;}.cls-6{fill:#fff;}.cls-7{fill:#d1d3d4;}.cls-8{fill:#333132;}.cls-9{fill:#9d9fa2;}.cls-10{fill:#ecb87e;}.cls-11{fill:#c58549;}.cls-12{fill:#dba062;}.cls-13{fill:#87a3c1;}.cls-14{fill:#a8cadd;}.cls-15{fill:#b24c3c;}.cls-16{fill:#ff5252;}.cls-17{fill:#272625;}.cls-18{fill:#664e49;}.cls-19{fill:#c3e0f0;}.cls-20{fill:#a6cadb;}.cls-21{fill:#becad6;mix-blend-mode:multiply;}.cls-22{clip-path:url(#clip-path);}.cls-23{clip-path:url(#clip-path-2);}.cls-24{fill:#fdd800;}.cls-25{fill:#010101;}</style><clipPath id="clip-path"><rect class="cls-1" x="80.8" y="23.79" width="86.33" height="246.88"/></clipPath><clipPath id="clip-path-2"><rect class="cls-1" x="212.26" y="18.83" width="217.44" height="203.48"/></clipPath></defs><title>truck-full</title><g class="cls-2"><g id="Layer_2" data-name="Layer 2"><g id="Layer_1-2" data-name="Layer 1"><path class="cls-3" d="M495.53,58.6H458.24v27h64A26.94,26.94,0,0,0,495.53,58.6Z"/><circle class="cls-4" cx="463.11" cy="289.26" r="36.39"/><circle class="cls-5" cx="463.11" cy="289.26" r="22.25"/><path d="M426.71,289.26a36.39,36.39,0,0,1,36.39-36.39H452.76v0a36.38,36.38,0,0,0,0,72.75v0h10.35A36.39,36.39,0,0,1,426.71,289.26Z"/><circle class="cls-4" cx="171.59" cy="289.26" r="36.39"/><circle class="cls-5" cx="171.59" cy="289.26" r="22.25"/><path d="M135.2,289.26a36.39,36.39,0,0,1,36.39-36.39H161.24v0a36.38,36.38,0,0,0,0,72.75v0h10.35A36.39,36.39,0,0,1,135.2,289.26Z"/><path class="cls-6" d="M603.83,183.19c-8.42-3.67-29.9-13.35-29.9-13.35l-20.56-64.08c-3.86-12-13.24-25-32.67-25H477.58V270.67H618.75V199.25C618.75,189.2,613,187.19,603.83,183.19Z"/><rect class="cls-6" x="183.36" width="274.88" height="270.67"/><rect class="cls-7" x="64.57" width="118.79" height="270.67"/><rect class="cls-7" x="458.24" y="58.6" width="19.34" height="235.56"/><path d="M65.26,270.67h118.1v23.48H65.26a7.6,7.6,0,0,1-7.6-7.6v-8.29A7.6,7.6,0,0,1,65.26,270.67Z"/><rect class="cls-8" x="183.36" y="270.67" width="274.88" height="24.14"/><rect class="cls-9" x="80.8" y="23.79" width="86.33" height="246.88"/><polygon class="cls-4" points="90.12 23.79 167.13 261.77 90.12 261.77 90.12 23.79"/><rect class="cls-10" x="127.44" y="200.99" width="39.69" height="60.78"/><rect class="cls-11" x="104.28" y="200.99" width="23.15" height="60.78"/><rect class="cls-10" x="153.23" y="159.48" width="13.9" height="41.51"/><rect class="cls-11" x="121.6" y="159.48" width="31.63" height="41.51"/><polygon class="cls-12" points="160.18 159.48 153.23 200.99 167.13 200.99 167.13 159.48 160.18 159.48"/><polygon class="cls-12" points="153.51 200.99 145.62 250.13 140.02 250.13 140.02 261.77 143.75 261.77 149.34 261.77 167.13 261.77 167.13 200.99 153.51 200.99"/><path class="cls-13" d="M619.7,228.63H606.89a10.56,10.56,0,0,1-10.56-10.56V200H619.7a5.41,5.41,0,0,1,5.41,5.41v17.84A5.41,5.41,0,0,1,619.7,228.63Z"/><path class="cls-14" d="M619.7,200H596.33v3.62h17a5.41,5.41,0,0,1,5.41,5.41v17.84a5.39,5.39,0,0,1-.31,1.79h1.26a5.41,5.41,0,0,0,5.41-5.41V205.37A5.41,5.41,0,0,0,619.7,200Z"/><path class="cls-15" d="M80.8,254.79H62.73a3.34,3.34,0,0,1-3.34-3.34V239.82a3.34,3.34,0,0,1,3.34-3.34H80.8Z"/><path class="cls-16" d="M202.81,254.79H167.13v-18.3h35.68a3.34,3.34,0,0,1,3.34,3.34v11.63A3.34,3.34,0,0,1,202.81,254.79Z"/><path class="cls-8" d="M621.75,270.67H477.58v23.48H621.75a7.6,7.6,0,0,0,7.6-7.6v-8.29A7.6,7.6,0,0,0,621.75,270.67Z"/><polygon class="cls-3" points="86.33 316.75 0 316.75 80.8 261.77 167.13 261.77 86.33 316.75"/><rect class="cls-7" y="316.75" width="86.33" height="8.9"/><polygon class="cls-6" points="86.33 325.65 167.13 270.67 167.13 261.77 86.33 316.75 86.33 325.65"/><rect class="cls-6" x="80.2" y="23.79" width="9.92" height="237.98"/><path class="cls-9" d="M85.77,308.43H23.68a.69.69,0,0,1,0-1.38H85.77a.69.69,0,0,1,0,1.38Z"/><path class="cls-9" d="M105.09,295.61H43a.69.69,0,1,1,0-1.38h62.09a.69.69,0,1,1,0,1.38Z"/><path class="cls-9" d="M124.42,282.8H62.33a.69.69,0,0,1,0-1.38h62.09a.69.69,0,1,1,0,1.38Z"/><path class="cls-9" d="M143.75,270H81.66a.69.69,0,0,1,0-1.38h62.09a.69.69,0,0,1,0,1.38Z"/><path class="cls-17" d="M547.37,238.63a50.89,50.89,0,0,0-50.89,50.89c0,1.56.07,3.11.21,4.64H598c.14-1.53.21-3.07.21-4.64A50.89,50.89,0,0,0,547.37,238.63Z"/><circle class="cls-18" cx="547.37" cy="289.26" r="36.39"/><circle class="cls-4" cx="547.37" cy="289.26" r="36.39"/><circle class="cls-5" cx="547.37" cy="289.26" r="22.25"/><path d="M511,289.26a36.39,36.39,0,0,1,36.39-36.39H537v0a36.38,36.38,0,0,0,0,72.75v0h10.35A36.39,36.39,0,0,1,511,289.26Z"/><circle class="cls-9" cx="543.49" cy="289.26" r="14.63"/><path class="cls-6" d="M585,120.91,578.37,98.8a6,6,0,0,0-5.71-4.07h-27.9v5.87h18.43l8.33,25.21h10A3.69,3.69,0,0,0,585,120.91Z"/><polygon class="cls-7" points="563.19 100.6 565.91 100.6 574.37 125.81 571.53 125.81 563.19 100.6"/><rect class="cls-15" x="167.13" y="236.49" width="16.23" height="18.3"/><path class="cls-16" d="M603,243.43h18.71v6.79H603a3.36,3.36,0,0,1-3.36-3.36v-.07A3.36,3.36,0,0,1,603,243.43Z"/><path class="cls-16" d="M603,256.62h18.71v6.79H603a3.36,3.36,0,0,1-3.36-3.36V260A3.36,3.36,0,0,1,603,256.62Z"/><path class="cls-14" d="M539.22,107.56l-.06-.18a21.3,21.3,0,0,0-20.29-14.51H494c-2.67,0-4.49,2.36-4.49,5.1v66.2a5.43,5.43,0,0,0,5.58,5.67h64.1Z"/><path class="cls-13" d="M495.1,169.84h64.1l-5.79-18.05H489.52v12.38A5.43,5.43,0,0,0,495.1,169.84Z"/><path class="cls-19" d="M518.87,92.87H494c-2.67,0-4.49,2.36-4.49,5.1v66.2a5.71,5.71,0,0,0,1.3,3.76l44.6-67.33A21.51,21.51,0,0,0,518.87,92.87Z"/><path class="cls-20" d="M489.52,151.73v12.44a5.71,5.71,0,0,0,1.3,3.76l10.73-16.2Z"/><path d="M596.34,270.67h12.44v23.48H596.34a7.6,7.6,0,0,1-7.6-7.6v-8.29A7.6,7.6,0,0,1,596.34,270.67Z"/><path class="cls-21" d="M516.22,98.73c9.17,0,13.69,4.33,16.22,11.71s19.15,59.4,19.15,59.4h7.62l-20-62.28-.06-.18a21.3,21.3,0,0,0-20.29-14.5H494c-2.67,0-4.49,2.36-4.49,5.1v.76Z"/><path class="cls-17" d="M283.85,239.29A50.89,50.89,0,0,0,233,290.18c0,1.56.07,3.11.21,4.64H334.53c.14-1.53.21-3.07.21-4.64A50.89,50.89,0,0,0,283.85,239.29Z"/><circle class="cls-18" cx="283.85" cy="289.92" r="36.39"/><circle class="cls-4" cx="283.85" cy="289.92" r="36.39"/><circle class="cls-5" cx="283.85" cy="289.92" r="22.25"/><path d="M247.46,289.92a36.39,36.39,0,0,1,36.39-36.39H273.5v0a36.38,36.38,0,0,0,0,72.75v0h10.35A36.39,36.39,0,0,1,247.46,289.92Z"/><circle class="cls-9" cx="279.97" cy="289.92" r="14.63"/><g class="cls-22"><rect class="cls-10" x="129.1" y="43.51" width="70.86" height="71.73"/><polygon class="cls-12" points="199.97 43.51 129.1 115.23 199.97 115.23 199.97 43.51"/><rect class="cls-11" x="98.72" y="43.51" width="30.39" height="71.73"/><rect class="cls-10" x="148.04" y="115.25" width="34.53" height="44.23"/><rect class="cls-11" x="128.24" y="115.25" width="19.8" height="44.23"/></g><g class="cls-23"><polygon class="cls-24" points="423.34 216.13 218.52 216.04 218.61 25.09 423.43 25.18 423.34 216.13 423.34 216.13"/><path class="cls-25" d="M218.52,216l204.82.09.09-191-204.82-.09-.09,191ZM429.6,222.3H212.26l.09-203.47,217.35.1L429.6,222.3Z"/></g><path class="cls-25" d="M406.35,185.61h-4.63V182h-7.51v5.6h6.06v4.09H394.2v6.36h7.51v-3.62h4.63v7.72H385v-4.1h2.91V182H385v-4.09h21.36v7.68Zm-24.55,11.3a10.89,10.89,0,0,1-4.64,4.05,15.32,15.32,0,0,1-6.82,1.48q-6.57,0-10.08-3.52a12.13,12.13,0,0,1-3.51-8.94,12.6,12.6,0,0,1,1.75-6.65,11.21,11.21,0,0,1,4.69-4.35,14.09,14.09,0,0,1,6.39-1.46q4.88,0,7.6,2.37v-2h4.11v8.6h-4.11a6,6,0,0,0-2.57-3.44,7.39,7.39,0,0,0-4.11-1.26,6.68,6.68,0,0,0-4.93,2.05,7.66,7.66,0,0,0-2,5.67c0,2.77.68,4.88,2.07,6.32a6.72,6.72,0,0,0,5.05,2.17A6,6,0,0,0,374.3,197a5.44,5.44,0,0,0,2-3H372v-4.1H383.4a13.18,13.18,0,0,1-1.6,7Zm-25.33,5.23H344.55V198h3.1l-1.15-4.16h-6.29L338.92,198h3.24v4.1h-18l-5.47-10.61h-2.78V198h3v4.1H306.31V198h3.33V182h-3.33v-4.09h14.62q4.13,0,5.95,2.08a6.94,6.94,0,0,1,1.82,4.71q0,4.13-4.2,6l3.93,7.32h6l4.73-16h-3.22V177.9h15.82V182h-3.26L353.58,198h2.89v4.1Zm-55.56-3.35q-3.61,3.62-9.87,3.61-6.5,0-10-3.73a12.34,12.34,0,0,1-3.48-8.74,12.09,12.09,0,0,1,3.59-8.83q3.58-3.63,9.89-3.62t9.88,3.63a12.63,12.63,0,0,1,0,17.67Zm-25.28-11.19h-4.12V182h-3.74V198h3.64v4.1H257.8V198h3.65V182h-3.64v5.65h-4.17v-9.74h22v9.74Zm-25.9,13a7.31,7.31,0,0,1-4.95,1.8,5.74,5.74,0,0,1-4.92-2.36v2.06h-4.11v-8.26h4.11a4.65,4.65,0,0,0,1.19,3.34,3.57,3.57,0,0,0,2.54,1.08,2.56,2.56,0,0,0,1.89-.78,2.53,2.53,0,0,0,.77-1.83,2.56,2.56,0,0,0-.75-1.87,10.85,10.85,0,0,0-2.74-1.73,21.05,21.05,0,0,1-5.71-3.58,5.76,5.76,0,0,1-1.5-4.19,6.23,6.23,0,0,1,2-4.93,6.67,6.67,0,0,1,4.52-1.74,5.15,5.15,0,0,1,4.47,2.26v-2h4.1v7.37h-4.1a4.1,4.1,0,0,0-1.17-2.64,3.23,3.23,0,0,0-2.29-.93,2.71,2.71,0,0,0-1.71.54,1.69,1.69,0,0,0-.69,1.41,2.15,2.15,0,0,0,.57,1.42,11.61,11.61,0,0,0,3.37,1.9,28,28,0,0,1,4.12,2.17A7,7,0,0,1,251,191.6a7.35,7.35,0,0,1,.84,3.57,6.78,6.78,0,0,1-2.1,5.41Zm-24.21-29.14,0,37,190.87.09,0-37-190.87-.09ZM291,181.92a6.19,6.19,0,0,0-4.73,2.09q-1.95,2.09-1.95,6.13a8.25,8.25,0,0,0,1.91,5.72A6.13,6.13,0,0,0,291,198a6.25,6.25,0,0,0,4.74-2.1,10.07,10.07,0,0,0,.09-11.79,6,6,0,0,0-4.83-2.2Zm50.26,8.4h4.2l-2-7.3-2.18,7.3Zm-20.1-7.64a4.05,4.05,0,0,0-2.52-.7H316v5.66h2.17c2.66,0,4-.95,4-2.86a2.49,2.49,0,0,0-.92-2.11Z"/><polygon class="cls-25" points="226.34 164.6 226.34 160.61 229.51 160.61 229.52 144.93 226.35 144.93 226.35 140.93 236.3 140.93 245.01 155.7 245.01 144.94 241.93 144.94 241.93 140.94 252.56 140.94 252.56 144.94 249.24 144.94 249.23 164.79 243.95 164.79 233.74 147.23 233.74 160.61 236.72 160.61 236.72 164.61 226.34 164.6 226.34 164.6"/><path class="cls-25" d="M265.85,153.08l-2-7.13-2.13,7.13Zm10.71,7.55v4H264.92v-4h3l-1.12-4.07h-6.15l-1.27,4.07h3.17v4H252.1v-4H255l4.62-15.68H256.5v-4H272v4h-3.19l5,15.68Z"/><polygon class="cls-25" points="280.63 164.63 280.63 160.63 284.19 160.64 284.19 144.96 280.64 144.96 280.63 150.47 276.56 150.47 276.57 140.95 298.04 140.96 298.03 150.48 294.01 150.47 294.02 144.96 290.35 144.96 290.35 160.64 293.9 160.64 293.9 164.63 280.63 164.63 280.63 164.63"/><polygon class="cls-25" points="300.18 164.64 300.18 160.64 303.77 160.64 303.78 144.97 300.19 144.96 300.19 140.96 313.57 140.97 313.57 144.97 309.94 144.97 309.94 160.65 313.56 160.65 313.56 164.64 300.18 164.64 300.18 164.64"/><path class="cls-25" d="M328.17,144.93a6.07,6.07,0,0,0-4.62,2,8.53,8.53,0,0,0-1.9,6,8.09,8.09,0,0,0,1.87,5.58,6,6,0,0,0,4.65,2.09,6.07,6.07,0,0,0,4.63-2.05,9.81,9.81,0,0,0,.09-11.51,5.91,5.91,0,0,0-4.72-2.15Zm0-4.33q6.13,0,9.65,3.55a12.36,12.36,0,0,1,0,17.27q-3.53,3.53-9.64,3.53-6.35,0-9.75-3.64a12.08,12.08,0,0,1-3.4-8.54,11.82,11.82,0,0,1,3.5-8.62q3.5-3.54,9.66-3.55Z"/><polygon class="cls-25" points="342.07 164.66 342.07 160.66 345.24 160.66 345.25 144.99 342.08 144.98 342.08 140.98 352.03 140.99 360.73 155.75 360.74 144.99 357.66 144.99 357.66 140.99 368.28 141 368.28 145 364.96 144.99 364.95 164.84 359.68 164.84 349.47 147.28 349.46 160.67 352.44 160.67 352.44 164.66 342.07 164.66 342.07 164.66"/><path class="cls-25" d="M381.5,153.14l-2-7.13-2.13,7.13Zm10.71,7.55v4H380.56v-4h3l-1.12-4.07h-6.15l-1.26,4.07h3.17v4H367.75v-4h2.93L375.3,145h-3.15v-4h15.46v4h-3.18l5,15.68Z"/><polygon class="cls-25" points="394.41 164.68 394.41 160.69 397.8 160.69 397.8 145.01 394.42 145.01 394.42 141.01 407.42 141.01 407.42 145.01 403.96 145.01 403.96 160.69 410.95 160.69 410.96 153.37 415.57 153.37 415.57 164.69 394.41 164.68 394.41 164.68"/></g></g></g></svg>