<svg id="Layer_1" data-name="Layer 1" xmlns="http://www.w3.org/2000/svg" xmlns:xlink="http://www.w3.org/1999/xlink" viewBox="0 0 970 250"><defs><style>.cls-1{fill:none;}.cls-2{clip-path:url(#clip-path);}.cls-3{fill:#fff;}</style><clipPath id="clip-path"><rect class="cls-1" width="970" height="250"/></clipPath></defs><g class="cls-2"><path d="M728.2,105.8a36.77,36.77,0,0,1,7.73.57,19.79,19.79,0,0,1,5.7,2,18.86,18.86,0,0,1,4.87,3.77,23.61,23.61,0,0,1,0,31.63,19.08,19.08,0,0,1-4.87,3.77,19.49,19.49,0,0,1-5.7,2,36.7,36.7,0,0,1-7.73.58H584a36.7,36.7,0,0,1-7.73-.58,19.55,19.55,0,0,1-10.57-5.81,23.61,23.61,0,0,1,0-31.64,19.05,19.05,0,0,1,4.87-3.76,19.57,19.57,0,0,1,5.7-2,36.61,36.61,0,0,1,7.72-.57Z"/></g><path class="cls-3" d="M579.06,136.66V118.08h12v2.18h-9.55v6h8.08v2.18h-8.08v8.25Z"/><path class="cls-3" d="M593.35,118.08h2.53v2.69h-2.53Zm2.43,18.58h-2.33V123.13h2.33Z"/><path class="cls-3" d="M599.22,123.13h2.33V125a4.79,4.79,0,0,1,4-2.1c2.87,0,4.5,2,4.5,4.86v8.93h-2.33v-8.3c0-1.89-.8-3.32-2.82-3.32a3.41,3.41,0,0,0-3.39,3.55v8.07h-2.33Z"/><path class="cls-3" d="M612.7,129.91c0-3.86,2.15-7,5.9-7a4.78,4.78,0,0,1,4.19,2.23v-7h2.33v18.58h-2.33v-2A4.75,4.75,0,0,1,618.6,137C614.85,137,612.7,133.74,612.7,129.91Zm6.31-5c-2.53,0-4,2.07-4,5s1.43,5,4,5c1.92,0,3.83-1.39,3.83-4.5v-1C622.84,126.29,620.93,124.91,619,124.91Z"/><path class="cls-3" d="M639.79,137c-3.7,0-6.29-2.85-6.29-7s2.59-7,6.29-7,6.29,2.85,6.29,7S643.49,137,639.79,137Zm0-2c2.38,0,3.93-2,3.93-5.05s-1.55-5.07-3.93-5.07-3.93,2-3.93,5.07S637.41,135,639.79,135Z"/><path class="cls-3" d="M659.51,136.66h-2.33V134.8a4.75,4.75,0,0,1-4,2.15c-2.9,0-4.53-2-4.53-4.87v-9H651v8.46c0,1.92.83,3.21,2.82,3.21a3.38,3.38,0,0,0,3.39-3.52v-8.15h2.33Z"/><path class="cls-3" d="M663.57,125.12h-2.1v-2h2.1v-4h2.3v4H669v2h-3.08v7.95c0,1.42.7,1.68,1.89,1.68a5.79,5.79,0,0,0,1.48-.16v2a10.32,10.32,0,0,1-2,.2c-2.3,0-3.62-.77-3.62-3.36Z"/><path class="cls-3" d="M679.79,136.66h-2.33V123.13h2.33V125a4.54,4.54,0,0,1,3.91-2.1,4,4,0,0,1,3.75,2.3,5.17,5.17,0,0,1,4.32-2.3c2.8,0,4.48,2,4.48,4.86v8.93h-2.33v-8.3c0-1.89-.78-3.32-2.69-3.32a3.35,3.35,0,0,0-3.21,3.52v8.1h-2.33v-8.3c0-1.89-.77-3.32-2.69-3.32a3.35,3.35,0,0,0-3.21,3.52Z"/><path class="cls-3" d="M705.12,137c-3.7,0-6.29-2.85-6.29-7s2.59-7,6.29-7,6.29,2.85,6.29,7S708.82,137,705.12,137Zm0-2c2.38,0,3.94-2,3.94-5.05s-1.56-5.07-3.94-5.07-3.93,2-3.93,5.07S702.74,135,705.12,135Z"/><path class="cls-3" d="M721.09,125.43a5.2,5.2,0,0,0-1.14-.1,3.62,3.62,0,0,0-3.55,3.93v7.4h-2.33V123.13h2.33v2.3a4,4,0,0,1,3.76-2.41,7.48,7.48,0,0,1,.93.06Z"/><path class="cls-3" d="M722.28,129.91c0-4,2.56-7,6.23-7s5.78,2.87,5.78,6.62v.78H724.5c.13,2.85,1.76,4.66,4.12,4.66a3.4,3.4,0,0,0,3.52-2.59l2,.73a5.62,5.62,0,0,1-5.56,3.88C724.87,137,722.28,134.08,722.28,129.91Zm2.35-1.42h7.3c0-1.92-1.09-3.63-3.44-3.63C726.52,124.86,725.05,126.18,724.63,128.49Z"/></svg>