<svg id="Layer_1" data-name="Layer 1" xmlns="http://www.w3.org/2000/svg" xmlns:xlink="http://www.w3.org/1999/xlink" viewBox="0 0 970 250"><defs><style>.cls-1{fill:none;}.cls-2{clip-path:url(#clip-path);}.cls-3{fill:#1d1d1b;}.cls-4{fill:#fff;}</style><clipPath id="clip-path"><rect class="cls-1" x="40" width="137.25" height="137.25"/></clipPath></defs><g class="cls-2"><path class="cls-3" d="M40,0V61.89c0,9.91.28,16.66,1.77,23.87a60.39,60.39,0,0,0,6.33,17.63,58.62,58.62,0,0,0,11.63,15,72.91,72.91,0,0,0,97.77,0,58.46,58.46,0,0,0,11.65-15,60.28,60.28,0,0,0,6.32-17.61c1.5-7.23,1.78-14,1.78-23.89V0Z"/></g><path class="cls-4" d="M67.92,78.9l4.22,10.26H70.76l-1.2-3H65.21l-1.2,3H62.66L66.9,78.9ZM65.68,85h3.41l-1.71-4.26Z"/><g class="cls-2"><path class="cls-4" d="M74.68,89.16H73.42V82h1.26v1A2.57,2.57,0,0,1,77,81.88c1.83,0,2.87,1.21,2.87,3.1v4.18H78.56v-4c0-1.29-.65-2.08-1.88-2.08s-2,.92-2,2.39Z"/><path class="cls-4" d="M82.33,80.78a.85.85,0,1,1,.85-.85.85.85,0,0,1-.85.85M83,89.16H81.7V82H83Z"/><path class="cls-4" d="M86.2,89.16H84.94V82h1.24v1a2.23,2.23,0,0,1,2.1-1.18,2.36,2.36,0,0,1,2.24,1.39A2.71,2.71,0,0,1,93,81.88c1.66,0,2.62,1.16,2.62,3v4.29H94.31V85.09c0-1.28-.54-2-1.61-2s-1.82.92-1.82,2.38v3.74H89.62v-4c0-1.29-.55-2.08-1.61-2.08S86.2,84,86.2,85.42Z"/><path class="cls-4" d="M99.72,85l2.13-.27v-.36a1.32,1.32,0,0,0-1.5-1.38,1.6,1.6,0,0,0-1.65,1.26l-1.19-.34a2.81,2.81,0,0,1,2.83-2,2.44,2.44,0,0,1,2.74,2.58v4.7h-1.19v-.94a3,3,0,0,1-2.39,1.1,2.06,2.06,0,0,1-2.24-2c0-1.27.81-2.06,2.46-2.28m0,3.21a1.94,1.94,0,0,0,2.12-1.89V85.8l-1.93.25c-.9.12-1.39.56-1.39,1.16s.49,1,1.2,1"/><rect class="cls-4" x="105.18" y="78.9" width="1.26" height="10.26"/><polygon class="cls-4" points="112.52 78.9 113.82 78.9 113.82 83.23 119.33 83.23 119.33 78.9 120.63 78.9 120.63 89.16 119.33 89.16 119.33 84.46 113.82 84.46 113.82 89.16 112.52 89.16 112.52 78.9"/><path class="cls-4" d="M122.25,85.6a3.56,3.56,0,0,1,3.54-3.72,3.5,3.5,0,0,1,3.46,3.66c0,.16,0,.27,0,.34V86h-5.73a2.38,2.38,0,0,0,2.39,2.2A2.24,2.24,0,0,0,128,87l1,.52a3.44,3.44,0,0,1-3.11,1.82,3.54,3.54,0,0,1-3.63-3.72M128,85a2.21,2.21,0,0,0-2.21-2,2.35,2.35,0,0,0-2.23,2Z"/><path class="cls-4" d="M133.21,85l2.12-.27v-.36A1.31,1.31,0,0,0,133.84,83a1.59,1.59,0,0,0-1.65,1.26L131,83.91a2.8,2.8,0,0,1,2.83-2,2.44,2.44,0,0,1,2.73,2.58v4.7h-1.18v-.94a3,3,0,0,1-2.39,1.1,2.06,2.06,0,0,1-2.24-2c0-1.27.8-2.06,2.46-2.28m0,3.21a2,2,0,0,0,2.13-1.89V85.8l-1.93.25c-.9.12-1.4.56-1.4,1.16s.5,1,1.2,1"/><rect class="cls-4" x="138.44" y="78.9" width="1.26" height="10.26"/><path class="cls-4" d="M143.51,79.9V82h2v1.13h-2v3.76c0,.84.37,1.22,1.19,1.22a1.38,1.38,0,0,0,.8-.22V89.1a2.37,2.37,0,0,1-1.09.22,2,2,0,0,1-2.16-2.21V83.17h-1.1V82h1.1V79.9Z"/><path class="cls-4" d="M148.58,89.16h-1.26V78.9h1.26v4.16a2.58,2.58,0,0,1,2.27-1.18c1.84,0,2.88,1.21,2.88,3.1v4.18h-1.27v-4c0-1.29-.64-2.08-1.87-2.08s-2,.92-2,2.39Z"/><path class="cls-4" d="M70.46,68.64H63.33V34.44h7.13V47.58a8,8,0,0,1,7.14-3.71c5.52,0,8.89,3.76,8.89,9.87v14.9H79.36V55.35c0-3.13-1.57-4.93-4.3-4.93s-4.6,2.1-4.6,5.42Z"/><path class="cls-4" d="M115.62,44.5V68.64h-7V65.42a9.29,9.29,0,0,1-7.82,3.81c-6.45,0-11.43-5.47-11.43-12.66s5-12.65,11.43-12.65a9.21,9.21,0,0,1,7.82,3.71V44.5Zm-13,18.33a6.26,6.26,0,1,0-6.21-6.26,6.2,6.2,0,0,0,6.21,6.26"/><rect class="cls-4" x="119.48" y="34.44" width="7.13" height="34.21"/><path class="cls-4" d="M153.73,62.88c-2,4-5.91,6.4-11.19,6.4-7.52,0-12.8-5.23-12.8-12.71a12.31,12.31,0,0,1,12.51-12.7c7.28,0,12.32,5.33,12.32,12.9a12.77,12.77,0,0,1-.1,1.76H136.73a5.63,5.63,0,0,0,5.81,4.89,5.46,5.46,0,0,0,5.18-2.94Zm-6.15-9a5.14,5.14,0,0,0-5.38-4.45,5.42,5.42,0,0,0-5.42,4.45Z"/><polygon class="cls-4" points="153.93 44.41 155.88 44.41 155.88 44.84 155.14 44.84 155.14 47.1 154.67 47.1 154.67 44.84 153.93 44.84 153.93 44.41"/><polygon class="cls-4" points="159.46 44.41 159.46 47.1 159.01 47.1 159.01 45.19 158.11 47.1 157.81 47.1 156.91 45.19 156.91 47.1 156.46 47.1 156.46 44.41 157.02 44.41 157.97 46.45 158.92 44.41 159.46 44.41"/></g></svg>