<svg xmlns="http://www.w3.org/2000/svg" viewBox="0 0 100.47 17.92"><defs><style>.cls-1{fill:#fff;}</style></defs><title>copy3-s3</title><g id="Layer_2" data-name="Layer 2"><g id="Layer_3" data-name="Layer 3"><path class="cls-1" d="M2.65.41h.74L6,6.43H5l-.6-1.49H1.55L1,6.43H0ZM4.11,4.22,3,1.46H3L1.84,4.22Z"/><path class="cls-1" d="M10.59,6.43H9.83V5.85h0a1.73,1.73,0,0,1-1.4.68,2,2,0,0,1-2-2.12A2,2,0,0,1,8.41,2.29,1.67,1.67,0,0,1,9.81,3h0V0h.76Zm-.76-2a1.33,1.33,0,1,0-2.65,0,1.33,1.33,0,1,0,2.65,0Z"/><path class="cls-1" d="M15.79,6.43H15V5.85h0a1.74,1.74,0,0,1-1.41.68,2,2,0,0,1-2-2.12,2,2,0,0,1,2-2.12A1.69,1.69,0,0,1,15,3h0V0h.77Zm-.77-2a1.33,1.33,0,1,0-2.65,0,1.33,1.33,0,1,0,2.65,0Z"/><path class="cls-1" d="M19.51.41h3.88v.76H20.32V3h2.86v.76H20.32V5.66h3.22v.77h-4Z"/><path class="cls-1" d="M24.57,0h.76V6.43h-.76Z"/><path class="cls-1" d="M26.55,0h.76V4.15l1.74-1.74h1.06L28.23,4.23l2,2.2H29.18l-1.87-2.1v2.1h-.76Z"/><path class="cls-1" d="M33.52.41H37.3v.76h-3V3.06H37.1v.77H34.34v2.6h-.82Z"/><path class="cls-1" d="M38.22,2.89a2.4,2.4,0,0,1,1.6-.6c1.19,0,1.69.65,1.69,1.35V5.7a5.47,5.47,0,0,0,0,.73h-.68c0-.21,0-.41,0-.62h0a1.54,1.54,0,0,1-1.41.72A1.26,1.26,0,0,1,38,5.32c0-1,1-1.39,2.22-1.39h.56V3.76a.86.86,0,0,0-1-.85,1.66,1.66,0,0,0-1.15.46Zm2.16,1.6c-.72,0-1.6.13-1.6.77,0,.46.34.66.86.66a1.09,1.09,0,0,0,1.15-1.18V4.49Z"/><path class="cls-1" d="M42.68,0h.77V6.43h-.77Z"/><path class="cls-1" d="M44.72,0h.77V6.43h-.77Z"/><path class="cls-1" d="M48.84,3.41A1,1,0,0,0,48,3c-.36,0-.67.16-.67.45,0,.48.69.55,1,.63.66.16,1.17.41,1.17,1.17,0,.91-.83,1.27-1.63,1.27a1.73,1.73,0,0,1-1.56-.72l.58-.47a1.37,1.37,0,0,0,1,.47c.39,0,.81-.16.81-.51s-.63-.54-1-.62c-.66-.16-1.24-.37-1.24-1.14s.78-1.25,1.53-1.25A1.55,1.55,0,0,1,49.44,3Z"/><path class="cls-1" d="M55,3.06H53.91V4.89c0,.45,0,.92.57.92A1.15,1.15,0,0,0,55,5.7v.69a1.81,1.81,0,0,1-.69.14c-1.18,0-1.2-.72-1.2-1.37V3.06h-.88V2.4h.88V1.27h.77V2.4H55Z"/><path class="cls-1" d="M57.94,2.29a2.12,2.12,0,1,1-2.15,2.12A2.13,2.13,0,0,1,57.94,2.29Zm0,3.52a1.29,1.29,0,0,0,1.32-1.4,1.33,1.33,0,1,0-2.65,0A1.29,1.29,0,0,0,57.94,5.81Z"/><path class="cls-1" d="M62.92,2.4h.88L65,5.54h0L66.16,2.4H67L65.07,7.29c-.27.7-.53,1.18-1.38,1.18A2,2,0,0,1,63,8.36l.1-.7a1.18,1.18,0,0,0,.46.09c.48,0,.63-.26.78-.66l.24-.64Z"/><path class="cls-1" d="M69.6,2.29a2.12,2.12,0,1,1-2.14,2.12A2.13,2.13,0,0,1,69.6,2.29Zm0,3.52a1.29,1.29,0,0,0,1.33-1.4,1.33,1.33,0,1,0-2.65,0A1.29,1.29,0,0,0,69.6,5.81Z"/><path class="cls-1" d="M76.28,6.43h-.77V5.81h0a1.44,1.44,0,0,1-1.33.72A1.39,1.39,0,0,1,72.71,5V2.4h.76V4.78c0,.75.44,1,.92,1,.64,0,1.12-.4,1.12-1.34V2.4h.77Z"/><path class="cls-1" d="M77.44,2.4h.76V3h0a1.36,1.36,0,0,1,1.21-.73,1,1,0,0,1,.34.06l0,.82a1.68,1.68,0,0,0-.37-.06c-.75,0-1.16.41-1.16,1.29v2h-.76Z"/><path class="cls-1" d="M1,16H.2v-.66h.9l.17-1.23H.47v-.66h.9l.24-1.73h.67L2,13.48H3l.23-1.73h.67L3.7,13.48h.8v.66H3.6l-.17,1.23h.81V16h-.9L3.1,17.76H2.43L2.67,16h-1l-.24,1.73H.77ZM2,14.14l-.17,1.23h1l.17-1.23Z"/><path class="cls-1" d="M9.68,13.05a1.85,1.85,0,0,0-1.45-.69A2.27,2.27,0,0,0,6,14.81a2.21,2.21,0,0,0,2.24,2.34,1.84,1.84,0,0,0,1.57-.8l.69.51a2.79,2.79,0,0,1-2.28,1.06,3.1,3.1,0,0,1-3.09-3.11,3,3,0,0,1,3.13-3.22,2.62,2.62,0,0,1,2.11.94Z"/><path class="cls-1" d="M11.48,11.75H13.6c1.53,0,1.93.92,1.93,1.68A1.61,1.61,0,0,1,14.05,15l1.7,2.74h-1l-1.52-2.65h-.92v2.65h-.81Zm.81,2.65h1.08c.64,0,1.29-.15,1.29-1s-.65-1-1.29-1H12.29Z"/><path class="cls-1" d="M16.92,11.73a.57.57,0,0,1,.56.56.56.56,0,0,1-.56.56.57.57,0,0,1-.56-.56A.57.57,0,0,1,16.92,11.73Zm-.38,2h.76v4h-.76Z"/><path class="cls-1" d="M18,13.74h.88l1.21,3.08,1.15-3.08h.82l-1.58,4h-.84Z"/><path class="cls-1" d="M23.35,16a1.26,1.26,0,0,0,1.36,1.17,1.38,1.38,0,0,0,1.11-.6l.57.44a2.11,2.11,0,0,1-1.78.83,2,2,0,0,1-2.07-2.12,2,2,0,0,1,2.08-2.12,1.92,1.92,0,0,1,2,2.13V16Zm2.41-.61a1.08,1.08,0,0,0-1.16-1.17,1.24,1.24,0,0,0-1.25,1.17Z"/><path class="cls-1" d="M27.5,13.74h.77v.62h0a1.37,1.37,0,0,1,1.21-.73,1.21,1.21,0,0,1,.34,0l0,.83a1.76,1.76,0,0,0-.38-.06c-.75,0-1.15.41-1.15,1.29v2H27.5Z"/><path class="cls-1" d="M35,13.05a1.85,1.85,0,0,0-1.45-.69,2.27,2.27,0,0,0-2.24,2.45,2.21,2.21,0,0,0,2.24,2.34,1.84,1.84,0,0,0,1.57-.8l.69.51a2.79,2.79,0,0,1-2.28,1.06,3.1,3.1,0,0,1-3.09-3.11,3.05,3.05,0,0,1,3.14-3.22,2.62,2.62,0,0,1,2.1.94Z"/><path class="cls-1" d="M38.58,13.63a2.12,2.12,0,1,1-2.14,2.12A2.12,2.12,0,0,1,38.58,13.63Zm0,3.52a1.29,1.29,0,0,0,1.33-1.4,1.33,1.33,0,1,0-2.66,0A1.29,1.29,0,0,0,38.58,17.15Z"/><path class="cls-1" d="M41.75,11.34h.76v6.42h-.76Z"/><path class="cls-1" d="M43.79,11.34h.76v6.42h-.76Z"/><path class="cls-1" d="M46.35,16a1.26,1.26,0,0,0,1.36,1.17,1.38,1.38,0,0,0,1.1-.6l.58.44a2.13,2.13,0,0,1-1.79.83,2,2,0,0,1-2.07-2.12,2,2,0,0,1,2.08-2.12,1.93,1.93,0,0,1,2,2.13V16Zm2.41-.61a1.09,1.09,0,0,0-1.16-1.17,1.24,1.24,0,0,0-1.25,1.17Z"/><path class="cls-1" d="M53.38,14.81a1.29,1.29,0,0,0-2.26,1,1.29,1.29,0,0,0,1.3,1.37,1.21,1.21,0,0,0,1-.45l.54.55a2,2,0,0,1-1.53.62,2,2,0,0,1-2.11-2.1,2,2,0,0,1,2.11-2.13,2.08,2.08,0,0,1,1.55.64Z"/><path class="cls-1" d="M56.75,14.4H55.66v1.83c0,.45,0,.92.58.92a1,1,0,0,0,.54-.12v.7a1.81,1.81,0,0,1-.69.14c-1.18,0-1.2-.73-1.2-1.37V14.4H54v-.66h.88V12.61h.77v1.13h1.09Z"/><path class="cls-1" d="M58.18,11.73a.57.57,0,0,1,.57.56.57.57,0,1,1-.57-.56Zm-.38,2h.77v4H57.8Z"/><path class="cls-1" d="M61.73,13.63a2.12,2.12,0,1,1-2.14,2.12A2.12,2.12,0,0,1,61.73,13.63Zm0,3.52a1.29,1.29,0,0,0,1.33-1.4,1.33,1.33,0,1,0-2.66,0A1.29,1.29,0,0,0,61.73,17.15Z"/><path class="cls-1" d="M64.83,13.74h.77v.62h0a1.5,1.5,0,0,1,2.78.81v2.59h-.76V15.38c0-.75-.43-1-.92-1-.64,0-1.12.41-1.12,1.34v2.07h-.77Z"/><path class="cls-1" d="M74.09,14.4H73v1.83c0,.45,0,.92.58.92a1,1,0,0,0,.54-.12v.7a1.77,1.77,0,0,1-.69.14c-1.18,0-1.2-.73-1.2-1.37V14.4h-.88v-.66h.88V12.61H73v1.13h1.1Z"/><path class="cls-1" d="M75.07,11.34h.77v3h0a1.5,1.5,0,0,1,2.78.81v2.59h-.76V15.38c0-.75-.43-1-.92-1s-1.12.41-1.12,1.34v2.07h-.77Z"/><path class="cls-1" d="M80.24,11.73a.57.57,0,0,1,.57.56.57.57,0,1,1-.57-.56Zm-.38,2h.77v4h-.77Z"/><path class="cls-1" d="M84,14.75a1,1,0,0,0-.83-.4c-.36,0-.67.16-.67.45,0,.48.69.55,1,.63.66.16,1.17.41,1.17,1.17s-.83,1.27-1.63,1.27a1.73,1.73,0,0,1-1.56-.72l.58-.47a1.37,1.37,0,0,0,1,.47c.39,0,.82-.16.82-.51s-.64-.54-1-.62c-.66-.16-1.24-.37-1.24-1.14s.78-1.25,1.53-1.25a1.55,1.55,0,0,1,1.38.67Z"/><path class="cls-1" d="M88.28,14.4h-.87v-.66h.87v-.91c0-1.07.37-1.59,1.38-1.59a2.46,2.46,0,0,1,.57.06l-.09.68a1.06,1.06,0,0,0-.43-.08c-.56,0-.66.35-.66.91v.93H90v.66h-.91v3.36h-.77Z"/><path class="cls-1" d="M90.83,14.23a2.4,2.4,0,0,1,1.6-.6c1.19,0,1.68.65,1.68,1.35V17a5.25,5.25,0,0,0,0,.73h-.68a6.08,6.08,0,0,1,0-.61h0a1.53,1.53,0,0,1-1.41.72,1.26,1.26,0,0,1-1.39-1.21c0-1,1-1.39,2.22-1.39h.56V15.1a.87.87,0,0,0-1-.85,1.64,1.64,0,0,0-1.15.46ZM93,15.83c-.72,0-1.61.12-1.61.77,0,.46.34.65.87.65a1.09,1.09,0,0,0,1.15-1.17v-.25Z"/><path class="cls-1" d="M95.29,11.34h.76v6.42h-.76Z"/><path class="cls-1" d="M97.33,11.34h.76v6.42h-.76Z"/><path class="cls-1" d="M99.35,17.25a.57.57,0,0,1,.56-.56.57.57,0,0,1,0,1.13A.57.57,0,0,1,99.35,17.25Z"/></g></g></svg>