<svg xmlns="http://www.w3.org/2000/svg" viewBox="0 0 40.32 15.26"><defs><style>.cls-1{fill:#76aca9;}</style></defs><title>icon</title><g id="Layer_2" data-name="Layer 2"><g id="Layer_3" data-name="Layer 3"><path class="cls-1" d="M39.73,5.29h-.07l-.09,0c-.13,0-.26.07-.39.09l-.53.06a3.64,3.64,0,0,0-.93.17,3.9,3.9,0,0,0-.83.51l-.32.23c-.16.1-.34.19-.52.28a4.89,4.89,0,0,0-.67.39L35,7.36a5,5,0,0,1-.59.46l-.1.06a3.4,3.4,0,0,1-1,.5,4,4,0,0,1-2.56,0l-.34-.08-.15,0-.34-.07A1,1,0,0,0,29.72,8c-.2-.15-.4-.28-.6-.41s-.5-.34-.72-.52l-.25-.21c-.31-.26-.6-.5-.92-.72l-.39-.25a2.75,2.75,0,0,0-.26-.22,1,1,0,0,0-.51-.19l-.22-.09-.43-.21a3.12,3.12,0,0,0-1.1-.42A8,8,0,0,0,23,4.74h-.52a8.35,8.35,0,0,0-1.36.07,7.27,7.27,0,0,0-1.44.41,3,3,0,0,0-.79.51,2.74,2.74,0,0,1-.35.27l-.3.2a8.19,8.19,0,0,0-.81.55,4.46,4.46,0,0,1-.66.4l-.44.24L16,7.58a2.62,2.62,0,0,1-.78.4L15.05,8A3.64,3.64,0,0,1,14,8.23a5.71,5.71,0,0,1-1.36-.1,2.16,2.16,0,0,1-.72-.41,3.64,3.64,0,0,0-.35-.24,3.94,3.94,0,0,1-.5-.43,4,4,0,0,0-.43-.38,3.21,3.21,0,0,0-.68-.38A3.78,3.78,0,0,1,9.4,6a7,7,0,0,0-1.23-.62A6.55,6.55,0,0,0,6.78,5L6.42,5a4.84,4.84,0,0,0-1.07-.15H5a6.8,6.8,0,0,0-1.12,0,5.35,5.35,0,0,0-1.15.38l-.22.09-.27.11a5.62,5.62,0,0,0-1,.48,11.29,11.29,0,0,0-.91.67L.13,6.7,0,6.77l0,0A2.82,2.82,0,0,0,.28,8a1.37,1.37,0,0,1,.21.2.71.71,0,0,0,.49.3.7.7,0,0,0,.47-.17l.17-.14.15-.12a10.47,10.47,0,0,1,1.06-.72A4.22,4.22,0,0,1,4,6.79a2.25,2.25,0,0,1,.73,0,5.87,5.87,0,0,0,.62,0A4.89,4.89,0,0,1,6.62,7a3.81,3.81,0,0,1,1.15.46,2.68,2.68,0,0,1,.48.42c.13.13.27.27.44.41.32.25.7.5,1.07.74l0,0a2.55,2.55,0,0,0,.84.3,3,3,0,0,1,.55.15l.27.12a4.53,4.53,0,0,0,1.06.36A8.44,8.44,0,0,0,14,10.1a3.92,3.92,0,0,0,1-.16l.4-.08a4.6,4.6,0,0,1,.52-.06,3.26,3.26,0,0,0,.93-.18,3.3,3.3,0,0,0,.84-.51L18,8.88a4.11,4.11,0,0,1,.51-.27,4.18,4.18,0,0,0,.68-.4l.39-.32a3.94,3.94,0,0,1,.58-.45l.1-.07a3.87,3.87,0,0,1,1-.5,5.21,5.21,0,0,1,1.32-.21,4.39,4.39,0,0,1,1.23.2l.34.08.15,0,.35.08a1.29,1.29,0,0,0,.17.16l.6.42a8.34,8.34,0,0,1,.72.52l.25.21c.31.25.6.49.92.72l.39.25.26.22a.89.89,0,0,0,.52.18l.21.1a3.38,3.38,0,0,1,.43.21,3.1,3.1,0,0,0,1.11.42,8,8,0,0,0,1.32,0h.52a8.35,8.35,0,0,0,1.36-.07A7.08,7.08,0,0,0,34.9,10a3,3,0,0,0,.79-.52A4.11,4.11,0,0,1,36,9.25l.3-.19a8.19,8.19,0,0,0,.81-.55,4.56,4.56,0,0,1,.67-.4c.15-.08.3-.16.44-.25l.27-.18a2.53,2.53,0,0,1,.78-.41l.21-.06L40,7.09c.09,0,.23-.4.23-.4a.83.83,0,0,0,.05-.2c0-.29.1-.65,0-.85s-.34-.25-.54-.35"/><path class="cls-1" d="M39.55,10.32c-.09-.06-.23,0-.34,0a8.2,8.2,0,0,0-1.36.35,3,3,0,0,0-.78.48l-.31.23-.31.19a7.68,7.68,0,0,0-.76.49,8.07,8.07,0,0,1-1,.64,3.78,3.78,0,0,1-1.08.37l-.33.09a3.21,3.21,0,0,1-.86.15,6.38,6.38,0,0,1-.9-.09l-.44-.06-.21,0A5.54,5.54,0,0,1,29.81,13,4.14,4.14,0,0,1,29,12.6l-.31-.19-.28-.14-.57-.42a2.73,2.73,0,0,0-.65-.3l-.66-.47L26.48,11l0,0a.84.84,0,0,0-.64-.18,2,2,0,0,0-.59-.3,9.84,9.84,0,0,0-1.53-.32,3,3,0,0,0-.89.06,3.68,3.68,0,0,1-.66.06,3.8,3.8,0,0,1-.59-.06,2.53,2.53,0,0,0-.82-.06,3,3,0,0,0-.89.34,2.5,2.5,0,0,1-.37.18,3.73,3.73,0,0,1-.44.14,4,4,0,0,0-.83.33,3.42,3.42,0,0,0-.59.52,3,3,0,0,1-.33.3,5.92,5.92,0,0,1-.68.42l-.34.19a4.18,4.18,0,0,1-1.1.35L15,13a4.66,4.66,0,0,1-1,.15A4.46,4.46,0,0,1,12.68,13a3.76,3.76,0,0,1-1.13-.5,3.93,3.93,0,0,0-.5-.26,3.93,3.93,0,0,1-.64-.36A3,3,0,0,1,10,11.5a3.87,3.87,0,0,0-.6-.52,6.54,6.54,0,0,0-1.16-.55l-.1,0a2.53,2.53,0,0,1-.37-.18,3.26,3.26,0,0,0-1-.36,8.64,8.64,0,0,0-1.49-.08,7.09,7.09,0,0,0-1.3.14l-.17,0L3.42,10a3.7,3.7,0,0,0-1,.21,2.25,2.25,0,0,0-.72.53,2.48,2.48,0,0,1-.36.31c-.34.22-.68.46-1,.73a2.36,2.36,0,0,0,.06,1.39c.33.27.81.62,1.36.2l.1-.07.12-.09a3.38,3.38,0,0,0,.46-.47,1.77,1.77,0,0,1,.41-.41A4.53,4.53,0,0,1,4,11.81a5.16,5.16,0,0,1,1.35-.21,4.8,4.8,0,0,1,1.26.22l.06,0a4.13,4.13,0,0,1,1.2.5,12.5,12.5,0,0,1,1,.74q.18.15.36.33a4.71,4.71,0,0,0,.63.52l.24.16a5.28,5.28,0,0,0,.94.55,3.26,3.26,0,0,0,.94.18,4.6,4.6,0,0,1,.52.06A2.45,2.45,0,0,1,13,15a2.88,2.88,0,0,0,1,.23,8.63,8.63,0,0,0,1.41-.14,3.2,3.2,0,0,0,.92-.32l.36-.17.46-.14a3.18,3.18,0,0,0,.83-.32,2,2,0,0,0,.56-.53,2,2,0,0,1,.32-.33,5.32,5.32,0,0,1,.65-.39l.38-.2.29-.19a2.17,2.17,0,0,1,.73-.36,1.42,1.42,0,0,1,.56,0,3.6,3.6,0,0,0,.69.09h.51a4.64,4.64,0,0,1,.93,0l.34,0a4,4,0,0,1,1.05.25,4.46,4.46,0,0,1,.78.5l.34.25c.16.11.33.21.51.31l.31.18.3.2.07,0,.53.39.31.22L29,15l.12,0a3.55,3.55,0,0,0,1,.07,5.47,5.47,0,0,1,.7,0,3.4,3.4,0,0,1,.53.08,6.55,6.55,0,0,0,1.15.12,7.85,7.85,0,0,0,1.28-.12l.09,0a6.55,6.55,0,0,0,1.35-.29,3.26,3.26,0,0,0,.81-.47l.3-.21a3.69,3.69,0,0,1,.53-.24,2.61,2.61,0,0,0,.67-.33l.11-.09c.28-.21.53-.4.81-.57l.16-.1a2.93,2.93,0,0,1,.8-.37c.17-.25.54-.57.54-.74a6.53,6.53,0,0,0-.35-1.37"/><path class="cls-1" d="M40.29,1.49c0-.14-.09-.28-.13-.42a4,4,0,0,1-.24-.83,1.68,1.68,0,0,0-.39-.16L39.2.13a3.14,3.14,0,0,0-.91.33,3.76,3.76,0,0,1-.37.16c-.15.06-.31.1-.46.15a3.16,3.16,0,0,0-.83.31,2.63,2.63,0,0,0-.56.54,2,2,0,0,1-.32.33,4.66,4.66,0,0,1-.65.39l-.38.2-.28.18a2.15,2.15,0,0,1-.74.37,1.46,1.46,0,0,1-.56,0A3.54,3.54,0,0,0,32.45,3H32a4.71,4.71,0,0,1-.94,0l-.34,0a4.29,4.29,0,0,1-1-.25,4.68,4.68,0,0,1-.78-.5l-.35-.26c-.16-.11-.33-.2-.51-.31s-.2-.11-.3-.18l-.31-.2-.07-.05L26.78.76c-.12-.09-.25-.19-.39-.28a.8.8,0,0,0-.9-.16,4.06,4.06,0,0,0-1-.08,5.46,5.46,0,0,1-.7,0L23.27.14A6.4,6.4,0,0,0,22.12,0a8,8,0,0,0-1.28.13h-.09a7.26,7.26,0,0,0-1.35.3,3.14,3.14,0,0,0-.81.47,3.13,3.13,0,0,1-.3.2,2.58,2.58,0,0,1-.53.24,2.91,2.91,0,0,0-.66.33L17,1.78a7.13,7.13,0,0,1-.81.58L16,2.45a2.48,2.48,0,0,1-.84.38,5.41,5.41,0,0,1-1.2.1,5,5,0,0,1-1.19-.13,3.53,3.53,0,0,1-1-.42,3.38,3.38,0,0,0-.51-.24,2.32,2.32,0,0,1-.59-.29l-.31-.28a4.18,4.18,0,0,0-.64-.5L9.39.83A3.31,3.31,0,0,0,8.6.35,3.26,3.26,0,0,0,7.7.2c-.16,0-.33,0-.49-.06A9.2,9.2,0,0,0,5.83.05L5.24,0a4.86,4.86,0,0,0-1,0A7.26,7.26,0,0,0,3,.3L2.7.4a4.94,4.94,0,0,0-1,.45A3.84,3.84,0,0,1,1.31,1l0,0a8.51,8.51,0,0,0-1.17.66.65.65,0,0,1,0,.2,3.28,3.28,0,0,0,.24.81l.06-.05,0,.07a2.48,2.48,0,0,0,.18.31,1.5,1.5,0,0,0,.32.19.81.81,0,0,0,.8-.14,4,4,0,0,1,1-.49l.3-.11a6.34,6.34,0,0,1,1.4-.39L4.87,2a3.86,3.86,0,0,1,1-.16,4.87,4.87,0,0,1,1,.16l.22,0a3.68,3.68,0,0,1,1.08.42,4,4,0,0,1,.58.44L9,3.18a5.25,5.25,0,0,0,.66.4l.44.25a2.61,2.61,0,0,1,.33.27,2.14,2.14,0,0,0,.73.5,2.77,2.77,0,0,0,.87.12,4.93,4.93,0,0,1,.54,0A9.44,9.44,0,0,0,14,4.88a4.63,4.63,0,0,1,.54,0,3.62,3.62,0,0,0,.87,0,7.41,7.41,0,0,0,1.35-.34,3,3,0,0,0,.78-.48,2.13,2.13,0,0,1,.32-.23l.31-.19a7.51,7.51,0,0,0,.75-.5,11.52,11.52,0,0,1,1-.64,3.9,3.9,0,0,1,1.08-.36l.33-.09a2.92,2.92,0,0,1,.86-.15A6.28,6.28,0,0,1,23,2l.44.06.21,0a5.43,5.43,0,0,1,1.09.17,3.22,3.22,0,0,1,.79.39l.31.18.28.14.58.42a2.14,2.14,0,0,0,.65.3c.21.15.42.3.65.48l.08,0s0,0,0,0a.83.83,0,0,0,.64.17,2,2,0,0,0,.6.31,9.71,9.71,0,0,0,1.52.32A3.31,3.31,0,0,0,31.78,5a5.08,5.08,0,0,1,.67-.07A4.12,4.12,0,0,1,33,5l.16,0c.71-.23,1.44-.38,2.16-.64.44-.17.88-.35,1.31-.55.12-.1.21-.2.31-.29s.21-.22.32-.31A4.72,4.72,0,0,1,38,2.82l.34-.19a3.84,3.84,0,0,1,1.1-.35l.14,0,.21,0a3.35,3.35,0,0,0,.52-.67v0"/></g></g></svg>