<svg id="Layer_1" data-name="Layer 1" xmlns="http://www.w3.org/2000/svg" xmlns:xlink="http://www.w3.org/1999/xlink" viewBox="0 0 300 250"><defs><style>.cls-1{fill:none;}.cls-2{clip-path:url(#clip-path);}.cls-3{fill:#fff;}</style><clipPath id="clip-path"><rect class="cls-1" width="300" height="250"/></clipPath></defs><title>h6</title><g class="cls-2"><g class="cls-2"><g id="S"><g class="cls-2"><path class="cls-3" d="M-2.31,161.36h19c0,5.34,5.34,9.47,11.89,9.47,6.19,0,10.93-2.79,10.93-8.25,0-3.28-1.82-6.31-9.23-8.74l-9.95-3c-18.44-5-22-16.27-22-24.15,0-15,12.86-25.25,29.49-25.25,16,0,28.27,9.59,28.27,25.85h-19c0-5-3-9.22-9.59-9.22-5.94,0-9.83,3.64-9.83,8.25,0,1.7.49,5.46,8.25,7.65l8.74,2.67c11.89,3.64,24,9.83,24,25,0,18-15.53,25.6-30.82,25.6-17.84,0-30.22-10.43-30.22-25.85"/></g></g></g></g></svg>