<svg id="Layer_1" data-name="Layer 1" xmlns="http://www.w3.org/2000/svg" xmlns:xlink="http://www.w3.org/1999/xlink" viewBox="0 0 300 250"><defs><style>.cls-1{fill:none;}.cls-2{clip-path:url(#clip-path);}.cls-3{fill:#fff;}</style><clipPath id="clip-path"><rect class="cls-1" width="300" height="250"/></clipPath></defs><title>sub1</title><g class="cls-2"><g class="cls-2"><g id="sub1"><path class="cls-3" d="M41.75,82.57a4,4,0,0,1,1.33.18,2.7,2.7,0,0,1,.86.5,3,3,0,0,1,.66.87,2.44,2.44,0,0,1,.25,1.11,2.48,2.48,0,0,1-.63,1.63,2.53,2.53,0,0,1,1.07,1,3,3,0,0,1,.16,2.67,3.1,3.1,0,0,1-.65.94,2.84,2.84,0,0,1-1,.65,4.24,4.24,0,0,1-1.55.24H38.41v-9.8ZM40.3,86.35h1.33a1.91,1.91,0,0,0,.68-.1,1.27,1.27,0,0,0,.37-.25,1,1,0,0,0,.21-.33A.94.94,0,0,0,43,85.3a1,1,0,0,0-.28-.7,1.12,1.12,0,0,0-.37-.26,2,2,0,0,0-.68-.09H40.3Zm1.89,4.34a2.15,2.15,0,0,0,.79-.12,1.35,1.35,0,0,0,.47-.32,1.32,1.32,0,0,0,0-1.79,1.33,1.33,0,0,0-.47-.31,2.15,2.15,0,0,0-.79-.12H40.3v2.66Z"/><path class="cls-3" d="M48.56,82.57h1.89v9.8H48.56Z"/><path class="cls-3" d="M58.53,84.11a3.23,3.23,0,0,0-1.29.26,3.46,3.46,0,0,0-1,.72,3.47,3.47,0,0,0-.93,2.38,3.47,3.47,0,0,0,.26,1.33,3.24,3.24,0,0,0,.71,1.06,3.3,3.3,0,0,0,1,.71,3.43,3.43,0,0,0,1.33.26,3.34,3.34,0,0,0,1.21-.21,3.66,3.66,0,0,0,1-.55V88H58.28V86.28h4.41v4.35A4.94,4.94,0,0,1,61,92a5.44,5.44,0,0,1-2.41.52,5.35,5.35,0,0,1-2.1-.4A4.81,4.81,0,0,1,54.84,91a4.64,4.64,0,0,1-1.07-1.6,5,5,0,0,1-.39-2,5.25,5.25,0,0,1,.38-2,4.71,4.71,0,0,1,1.06-1.6,4.86,4.86,0,0,1,1.63-1.07,5.46,5.46,0,0,1,2.1-.39,5,5,0,0,1,3.58,1.4l-1.22,1.28a3.7,3.7,0,0,0-1-.72A3,3,0,0,0,58.53,84.11Z"/><path class="cls-3" d="M71.2,89.75a3.65,3.65,0,0,0,1,.77,2.88,2.88,0,0,0,1.28.31,1.53,1.53,0,0,0,1-.35,1.13,1.13,0,0,0,.4-.89,1,1,0,0,0-.31-.76,3,3,0,0,0-.77-.51,9.61,9.61,0,0,0-1-.42,5.58,5.58,0,0,1-1-.49,3.25,3.25,0,0,1-1-.87,2.16,2.16,0,0,1-.4-1.36A2.34,2.34,0,0,1,70.7,84a2.78,2.78,0,0,1,.73-.87,3,3,0,0,1,1-.54,3.94,3.94,0,0,1,1.19-.18,4.93,4.93,0,0,1,1.45.2,4.62,4.62,0,0,1,1.39.72l-1,1.4a2.17,2.17,0,0,0-.74-.46,2.59,2.59,0,0,0-1-.18,2.48,2.48,0,0,0-.54.06,1.61,1.61,0,0,0-.49.19,1,1,0,0,0-.35.33.82.82,0,0,0-.13.48.76.76,0,0,0,.33.64,4.12,4.12,0,0,0,.84.47l1.09.44a4.71,4.71,0,0,1,1.08.59,2.86,2.86,0,0,1,.84.89,2.51,2.51,0,0,1,.34,1.37,2.6,2.6,0,0,1-.27,1.19,3,3,0,0,1-.73.93,3.44,3.44,0,0,1-1.06.6,3.79,3.79,0,0,1-1.26.22,4.7,4.7,0,0,1-1.89-.39A5.67,5.67,0,0,1,70,91Z"/><path class="cls-3" d="M78.78,92.37l4.2-9.8h1.33l4.2,9.8h-2l-.92-2.17H81.67l-.92,2.17Zm3.61-3.85h2.49l-1.25-2.9Z"/><path class="cls-3" d="M89.21,82.57h1.94l2.68,6.69,2.68-6.69h1.95l-4,9.8H93.17Z"/><path class="cls-3" d="M101.12,82.57H103v9.8h-1.89Z"/><path class="cls-3" d="M106.64,82.57H108L113.43,89V82.57h1.89v9.8H114L108.53,86v6.39h-1.89Z"/><path class="cls-3" d="M123.41,84.11a3.28,3.28,0,0,0-1.3.26,3.41,3.41,0,0,0-1,.72,3.18,3.18,0,0,0-.69,1.07,3.51,3.51,0,0,0-.24,1.31,3.46,3.46,0,0,0,.25,1.33,3.4,3.4,0,0,0,.71,1.06,3.24,3.24,0,0,0,1.06.71,3.56,3.56,0,0,0,2.54.05,3.82,3.82,0,0,0,1-.55V88h-2.52V86.28h4.41v4.35A4.94,4.94,0,0,1,125.86,92a5.47,5.47,0,0,1-2.41.52,5.28,5.28,0,0,1-2.1-.4A5,5,0,0,1,119.71,91a4.78,4.78,0,0,1-1.07-1.6,5,5,0,0,1-.38-2,5.24,5.24,0,0,1,.37-2,5,5,0,0,1,1.06-1.6,5,5,0,0,1,1.63-1.07,5.53,5.53,0,0,1,2.1-.39,5.16,5.16,0,0,1,2,.37,5.25,5.25,0,0,1,1.59,1l-1.22,1.28a3.7,3.7,0,0,0-1.05-.72A3.08,3.08,0,0,0,123.41,84.11Z"/><path class="cls-3" d="M131.25,89.75a3.52,3.52,0,0,0,1,.77,2.84,2.84,0,0,0,1.28.31,1.53,1.53,0,0,0,1-.35,1.16,1.16,0,0,0,.4-.89,1,1,0,0,0-.31-.76,3.22,3.22,0,0,0-.77-.51,9.81,9.81,0,0,0-1-.42,5.5,5.5,0,0,1-1-.49,3.25,3.25,0,0,1-1-.87,2.16,2.16,0,0,1-.41-1.36,2.46,2.46,0,0,1,.28-1.16,2.92,2.92,0,0,1,.73-.87,3.07,3.07,0,0,1,1-.54,4.06,4.06,0,0,1,1.2-.18,5,5,0,0,1,1.45.2,4.74,4.74,0,0,1,1.39.72l-1,1.4a2.32,2.32,0,0,0-.75-.46,2.53,2.53,0,0,0-.94-.18,2.48,2.48,0,0,0-.54.06,1.43,1.43,0,0,0-.49.19.93.93,0,0,0-.35.33.83.83,0,0,0-.14.48.77.77,0,0,0,.34.64,3.64,3.64,0,0,0,.84.47l1.08.44a5,5,0,0,1,1.09.59,2.86,2.86,0,0,1,.84.89,2.8,2.8,0,0,1,.06,2.56,2.87,2.87,0,0,1-.73.93,3.39,3.39,0,0,1-1.05.6,3.79,3.79,0,0,1-1.26.22,4.63,4.63,0,0,1-1.89-.39A5.67,5.67,0,0,1,130,91Z"/><path class="cls-3" d="M145.11,87a3,3,0,0,1,.24-1.19A3.21,3.21,0,0,1,147,84.14a3,3,0,0,1,1.19-.24,3,3,0,0,1,1.19.24,3.34,3.34,0,0,1,1,.67,3,3,0,0,1,.66,1,2.82,2.82,0,0,1,.25,1.19,2.86,2.86,0,0,1-.25,1.19,3.08,3.08,0,0,1-1.64,1.64,2.86,2.86,0,0,1-1.19.25,2.82,2.82,0,0,1-1.19-.25,3,3,0,0,1-1-.66,3.34,3.34,0,0,1-.67-1A3,3,0,0,1,145.11,87Z"/><path class="cls-3" d="M160.09,82.57H162v8.12h4.13v1.68h-6Z"/><path class="cls-3" d="M169,82.57h1.89v9.8H169Z"/><path class="cls-3" d="M179.39,88.43,183,82.57h1.33v9.8H182.4V86.91l-2.35,3.85h-1.31l-2.36-3.85v5.46h-1.89v-9.8h1.33Z"/><path class="cls-3" d="M187.93,82.57h1.89v9.8h-1.89Z"/><path class="cls-3" d="M199.75,82.57v1.68h-2.59v8.12h-1.89V84.25h-2.59V82.57Z"/><path class="cls-3" d="M204.5,84.25v2h3V88h-3v2.73h4.13v1.68h-6v-9.8h5.88v1.68Z"/><path class="cls-3" d="M214.79,82.57a7.35,7.35,0,0,1,2,.23,4.47,4.47,0,0,1,1.4.69,4.75,4.75,0,0,1,1.43,1.71,5.19,5.19,0,0,1,0,4.53,4.67,4.67,0,0,1-1.43,1.71,4.47,4.47,0,0,1-1.4.69,6.93,6.93,0,0,1-2,.24h-3.08v-9.8Zm3.43,4.9A3.77,3.77,0,0,0,218,86.3a3.2,3.2,0,0,0-.53-1,2.85,2.85,0,0,0-1-.81,3.54,3.54,0,0,0-1.49-.28h-1.4v6.44H215a3.53,3.53,0,0,0,1.49-.29,2.75,2.75,0,0,0,1-.81,3.2,3.2,0,0,0,.53-1A3.71,3.71,0,0,0,218.22,87.47Z"/><path class="cls-3" d="M234.25,82.57v1.68h-2.59v8.12h-1.89V84.25h-2.6V82.57Z"/><path class="cls-3" d="M237.1,82.57H239v9.8H237.1Z"/><path class="cls-3" d="M247.53,88.43l3.57-5.86h1.33v9.8h-1.89V86.91l-2.35,3.85h-1.32l-2.35-3.85v5.46h-1.89v-9.8H244Z"/><path class="cls-3" d="M258,84.25v2h3V88h-3v2.73h4.13v1.68h-6v-9.8H262v1.68Z"/></g></g></g></svg>