<?xml version="1.0" encoding="utf-8"?>
<!-- Generator: Adobe Illustrator 23.0.3, SVG Export Plug-In . SVG Version: 6.00 Build 0)  -->
<svg version="1.1" id="Layer_1" xmlns="http://www.w3.org/2000/svg" xmlns:xlink="http://www.w3.org/1999/xlink" x="0px" y="0px"
	 viewBox="0 0 728 90" style="enable-background:new 0 0 728 90;" xml:space="preserve">
<style type="text/css">
	.st0{fill:#768961;}
</style>
<g>
	<path class="st0" d="M306.5,37.1l-6,10.8v5.2h-2.6V48L292,37.1h3.1l4.1,7.9l4-7.9H306.5z"/>
	<path class="st0" d="M306.2,45.9c0.4-0.8,1.1-1.4,1.9-1.8c0.8-0.4,1.7-0.6,2.7-0.6c1,0,1.9,0.2,2.7,0.6c0.8,0.4,1.4,1,1.8,1.8
		s0.6,1.6,0.6,2.5c0,0.9-0.2,1.8-0.6,2.5c-0.4,0.8-1,1.4-1.8,1.8s-1.7,0.7-2.7,0.7c-1,0-1.9-0.2-2.7-0.6s-1.4-1-1.9-1.7
		c-0.4-0.8-0.7-1.6-0.7-2.7C305.5,47.5,305.8,46.6,306.2,45.9z M308.8,50.5c0.5,0.6,1.2,0.8,1.9,0.8c0.8,0,1.4-0.3,1.9-0.8
		c0.5-0.6,0.8-1.3,0.8-2.1s-0.3-1.6-0.8-2.1c-0.5-0.6-1.2-0.8-1.9-0.8c-0.8,0-1.4,0.3-1.9,0.9c-0.5,0.6-0.8,1.3-0.8,2.1
		C308,49.3,308.3,50,308.8,50.5z"/>
	<path class="st0" d="M327.5,43.9v9.3h-2.2l-0.2-1.7c-0.3,0.6-0.8,1.1-1.4,1.5c-0.6,0.4-1.3,0.6-2.2,0.6c-0.9,0-1.6-0.3-2.1-0.8
		c-0.6-0.5-0.9-1.2-0.9-2v-6.9h2.5v6c0,1,0.5,1.5,1.5,1.6c0.7,0,1.3-0.3,1.8-1c0.5-0.7,0.7-1.5,0.7-2.5v-4.1H327.5z"/>
	<path class="st0" d="M347.7,43.9v9.3h-2.5v-1.3c-0.3,0.4-0.8,0.8-1.4,1.1c-0.6,0.3-1.2,0.5-2,0.5c-0.9,0-1.7-0.2-2.4-0.6
		s-1.3-0.9-1.7-1.7c-0.4-0.7-0.6-1.6-0.6-2.7c0-1,0.2-1.9,0.6-2.7c0.4-0.8,1-1.4,1.7-1.8c0.7-0.4,1.5-0.6,2.3-0.6
		c1.5,0,2.6,0.6,3.4,1.7l0.2-1.3H347.7z M344.2,50.9c0.5-0.3,0.8-0.8,1-1.5v-2c-0.2-0.6-0.5-1-1-1.4c-0.5-0.4-1.1-0.5-1.7-0.5
		c-0.8,0-1.4,0.3-2,0.8c-0.5,0.5-0.8,1.3-0.8,2.1c0,0.6,0.1,1.1,0.4,1.5c0.3,0.5,0.6,0.8,1.1,1.1c0.4,0.3,0.9,0.4,1.4,0.4
		C343.2,51.4,343.8,51.2,344.2,50.9z"/>
	<path class="st0" d="M354.5,44.7c0.5-0.4,0.9-0.7,1.4-0.9c0.5-0.2,0.9-0.3,1.2-0.3l-0.1,2.5c-0.7-0.1-1.3,0.1-1.8,0.4
		c-0.5,0.3-0.9,0.7-1.2,1.2c-0.3,0.5-0.4,1.1-0.4,1.7v4h-2.5v-9.3h2.2l0.2,2.2C353.7,45.5,354.1,45.1,354.5,44.7z"/>
	<path class="st0" d="M365.8,50.6l1.1,1.8c-0.5,0.3-1,0.6-1.6,0.7c-0.6,0.2-1.1,0.3-1.6,0.3c-1.1,0-2-0.2-2.8-0.6
		c-0.8-0.4-1.4-1-1.8-1.8c-0.4-0.7-0.6-1.6-0.6-2.6c0-0.9,0.2-1.7,0.7-2.5c0.5-0.8,1.1-1.4,1.9-1.8c0.8-0.4,1.7-0.7,2.6-0.7
		c1.3,0,2.3,0.4,3.1,1.1s1.4,1.8,1.7,3.1l-7.2,2.4c0.2,0.4,0.6,0.7,1,0.9c0.4,0.2,0.9,0.3,1.4,0.3C364.4,51.3,365.1,51,365.8,50.6z
		 M361.6,46.2c-0.5,0.5-0.7,1.2-0.7,2.1c0,0.2,0,0.3,0,0.4l4.9-1.7c-0.2-0.5-0.5-0.8-0.8-1.1c-0.4-0.3-0.8-0.4-1.4-0.4
		C362.7,45.4,362.1,45.6,361.6,46.2z"/>
	<path class="st0" d="M384.2,53.1c-0.6,0.2-1.2,0.3-1.8,0.3c-1,0-1.9-0.2-2.7-0.6c-0.8-0.4-1.4-1-1.8-1.7c-0.4-0.7-0.6-1.6-0.6-2.6
		c0-1,0.2-1.8,0.7-2.6c0.5-0.7,1.1-1.3,1.8-1.7s1.6-0.6,2.4-0.6c1.5,0,2.7,0.4,3.6,1.2l-1.2,1.6c-0.3-0.2-0.6-0.4-1-0.6
		c-0.4-0.2-0.8-0.2-1.2-0.2c-0.7,0-1.4,0.3-1.9,0.8c-0.5,0.6-0.8,1.2-0.8,2.1c0,0.8,0.3,1.5,0.8,2.1c0.6,0.5,1.3,0.8,2.1,0.8
		c0.7,0,1.3-0.2,1.8-0.6l1.2,1.5C385.3,52.6,384.8,52.9,384.2,53.1z"/>
	<path class="st0" d="M388.1,45.9c0.4-0.8,1.1-1.4,1.9-1.8c0.8-0.4,1.7-0.6,2.7-0.6c1,0,1.9,0.2,2.7,0.6c0.8,0.4,1.4,1,1.8,1.8
		s0.6,1.6,0.6,2.5c0,0.9-0.2,1.8-0.6,2.5c-0.4,0.8-1,1.4-1.8,1.8s-1.7,0.7-2.7,0.7c-1,0-1.9-0.2-2.7-0.6s-1.4-1-1.9-1.7
		c-0.4-0.8-0.7-1.6-0.7-2.7C387.5,47.5,387.7,46.6,388.1,45.9z M390.7,50.5c0.5,0.6,1.2,0.8,1.9,0.8c0.8,0,1.4-0.3,1.9-0.8
		c0.5-0.6,0.8-1.3,0.8-2.1s-0.3-1.6-0.8-2.1c-0.5-0.6-1.2-0.8-1.9-0.8c-0.8,0-1.4,0.3-1.9,0.9c-0.5,0.6-0.8,1.3-0.8,2.1
		C389.9,49.3,390.2,50,390.7,50.5z"/>
	<path class="st0" d="M403.9,44.7c0.5-0.4,0.9-0.7,1.4-0.9c0.5-0.2,0.9-0.3,1.2-0.3l-0.1,2.5c-0.7-0.1-1.3,0.1-1.8,0.4
		c-0.5,0.3-0.9,0.7-1.2,1.2c-0.3,0.5-0.4,1.1-0.4,1.7v4h-2.5v-9.3h2.2l0.2,2.2C403.1,45.5,403.4,45.1,403.9,44.7z"/>
	<path class="st0" d="M418.5,36v17.2h-2.5v-1.3c-1,1-2.2,1.5-3.7,1.5c-0.9,0-1.6-0.2-2.3-0.6c-0.7-0.4-1.2-1-1.6-1.8
		s-0.6-1.7-0.6-2.7c0-1,0.2-1.9,0.6-2.6c0.4-0.7,1-1.3,1.7-1.7c0.7-0.4,1.6-0.6,2.5-0.6c0.7,0,1.3,0.1,1.9,0.4
		c0.6,0.3,1.1,0.6,1.5,1V36H418.5z M415,50.8c0.5-0.4,0.9-0.8,1.1-1.5v-2c-0.2-0.6-0.5-1-1-1.4s-1.1-0.6-1.8-0.6
		c-0.5,0-1,0.1-1.4,0.4s-0.8,0.6-1.1,1.1c-0.3,0.4-0.4,0.9-0.4,1.5s0.1,1.1,0.4,1.5c0.3,0.5,0.6,0.8,1.1,1.1
		c0.4,0.3,0.9,0.4,1.4,0.4C413.9,51.3,414.5,51.1,415,50.8z"/>
	<path class="st0" d="M422.2,39.6c0.3-0.3,0.6-0.4,1-0.4c0.4,0,0.7,0.1,1,0.4c0.3,0.3,0.4,0.6,0.4,0.9s-0.1,0.7-0.4,0.9
		c-0.3,0.2-0.6,0.4-1,0.4c-0.4,0-0.7-0.1-1-0.4c-0.3-0.2-0.4-0.6-0.4-0.9S421.9,39.9,422.2,39.6z M424.4,43.9v9.3h-2.5v-9.3H424.4z"
		/>
	<path class="st0" d="M437.5,43.9v9.3H435v-1.3c-0.3,0.4-0.8,0.8-1.4,1.1c-0.6,0.3-1.2,0.5-2,0.5c-0.9,0-1.7-0.2-2.4-0.6
		s-1.3-0.9-1.7-1.7c-0.4-0.7-0.6-1.6-0.6-2.7c0-1,0.2-1.9,0.6-2.7c0.4-0.8,1-1.4,1.7-1.8c0.7-0.4,1.5-0.6,2.3-0.6
		c1.5,0,2.6,0.6,3.4,1.7l0.2-1.3H437.5z M434.1,50.9c0.5-0.3,0.8-0.8,1-1.5v-2c-0.2-0.6-0.5-1-1-1.4c-0.5-0.4-1.1-0.5-1.7-0.5
		c-0.8,0-1.4,0.3-2,0.8c-0.5,0.5-0.8,1.3-0.8,2.1c0,0.6,0.1,1.1,0.4,1.5c0.3,0.5,0.6,0.8,1.1,1.1c0.4,0.3,0.9,0.4,1.4,0.4
		C433,51.4,433.6,51.2,434.1,50.9z"/>
	<path class="st0" d="M443.4,36v17.2h-2.5V36H443.4z"/>
	<path class="st0" d="M449.2,36v17.2h-2.5V36H449.2z"/>
	<path class="st0" d="M461.8,43.9l-6,13.8h-2.4l2.2-4.9l-4.3-8.9h2.8l2.8,6.2l2.8-6.2H461.8z"/>
	<path class="st0" d="M471.2,39.6c0.3-0.3,0.6-0.4,1-0.4c0.4,0,0.7,0.1,1,0.4c0.3,0.3,0.4,0.6,0.4,0.9s-0.1,0.7-0.4,0.9
		c-0.3,0.2-0.6,0.4-1,0.4c-0.4,0-0.7-0.1-1-0.4c-0.3-0.2-0.4-0.6-0.4-0.9S470.9,39.9,471.2,39.6z M473.3,43.9v9.3h-2.5v-9.3H473.3z"
		/>
	<path class="st0" d="M485,44.2c0.6,0.5,0.9,1.2,0.9,2v6.9h-2.5v-6c0-0.5-0.2-0.9-0.4-1.1c-0.3-0.3-0.6-0.4-1.2-0.4
		c-0.8,0-1.4,0.3-1.9,1c-0.5,0.7-0.7,1.5-0.7,2.5v4.1h-2.5v-9.3h2.2l0.2,1.7c0.3-0.6,0.8-1.1,1.5-1.5c0.6-0.4,1.4-0.5,2.2-0.5
		C483.7,43.5,484.4,43.7,485,44.2z"/>
	<path class="st0" d="M498.1,43.9l-5.1,9.5h-0.1l-5.3-9.5h2.9l2.6,5.3l2.3-5.3H498.1z"/>
	<path class="st0" d="M500.4,39.6c0.3-0.3,0.6-0.4,1-0.4c0.4,0,0.7,0.1,1,0.4c0.3,0.3,0.4,0.6,0.4,0.9s-0.1,0.7-0.4,0.9
		c-0.3,0.2-0.6,0.4-1,0.4c-0.4,0-0.7-0.1-1-0.4c-0.3-0.2-0.4-0.6-0.4-0.9S500.1,39.9,500.4,39.6z M502.6,43.9v9.3h-2.5v-9.3H502.6z"
		/>
	<path class="st0" d="M509.3,39.8v4.1h2.4v1.9h-2.4v7.4h-2.5v-7.4h-1.6v-1.9h1.6v-4.1H509.3z"/>
	<path class="st0" d="M520.7,50.6l1.1,1.8c-0.5,0.3-1,0.6-1.6,0.7c-0.6,0.2-1.1,0.3-1.6,0.3c-1.1,0-2-0.2-2.8-0.6
		c-0.8-0.4-1.4-1-1.8-1.8c-0.4-0.7-0.6-1.6-0.6-2.6c0-0.9,0.2-1.7,0.7-2.5c0.5-0.8,1.1-1.4,1.9-1.8c0.8-0.4,1.7-0.7,2.6-0.7
		c1.3,0,2.3,0.4,3.1,1.1s1.4,1.8,1.7,3.1l-7.2,2.4c0.2,0.4,0.6,0.7,1,0.9c0.4,0.2,0.9,0.3,1.4,0.3C519.3,51.3,520,51,520.7,50.6z
		 M516.5,46.2c-0.5,0.5-0.7,1.2-0.7,2.1c0,0.2,0,0.3,0,0.4l4.9-1.7c-0.2-0.5-0.5-0.8-0.8-1.1c-0.4-0.3-0.8-0.4-1.4-0.4
		C517.7,45.4,517,45.6,516.5,46.2z"/>
	<path class="st0" d="M535.8,36v17.2h-2.5v-1.3c-1,1-2.2,1.5-3.7,1.5c-0.9,0-1.6-0.2-2.3-0.6c-0.7-0.4-1.2-1-1.6-1.8
		c-0.4-0.8-0.6-1.7-0.6-2.7c0-1,0.2-1.9,0.6-2.6s1-1.3,1.7-1.7c0.7-0.4,1.6-0.6,2.5-0.6c0.7,0,1.3,0.1,1.9,0.4
		c0.6,0.3,1.1,0.6,1.5,1V36H535.8z M532.3,50.8c0.5-0.4,0.9-0.8,1.1-1.5v-2c-0.2-0.6-0.5-1-1-1.4c-0.5-0.4-1.1-0.6-1.8-0.6
		c-0.5,0-1,0.1-1.4,0.4c-0.4,0.3-0.8,0.6-1.1,1.1c-0.3,0.4-0.4,0.9-0.4,1.5s0.1,1.1,0.4,1.5c0.3,0.5,0.6,0.8,1.1,1.1
		c0.4,0.3,0.9,0.4,1.4,0.4C531.2,51.3,531.8,51.1,532.3,50.8z"/>
	<path class="st0" d="M549.6,39.8v4.1h2.4v1.9h-2.4v7.4h-2.5v-7.4h-1.6v-1.9h1.6v-4.1H549.6z"/>
	<path class="st0" d="M554.3,45.9c0.4-0.8,1.1-1.4,1.9-1.8c0.8-0.4,1.7-0.6,2.7-0.6s1.9,0.2,2.7,0.6c0.8,0.4,1.4,1,1.8,1.8
		s0.6,1.6,0.6,2.5c0,0.9-0.2,1.8-0.6,2.5c-0.4,0.8-1,1.4-1.8,1.8c-0.8,0.4-1.7,0.7-2.7,0.7c-1,0-1.9-0.2-2.7-0.6s-1.4-1-1.9-1.7
		s-0.7-1.6-0.7-2.7C553.7,47.5,553.9,46.6,554.3,45.9z M556.9,50.5c0.5,0.6,1.2,0.8,1.9,0.8c0.8,0,1.4-0.3,1.9-0.8
		c0.5-0.6,0.8-1.3,0.8-2.1s-0.3-1.6-0.8-2.1c-0.5-0.6-1.2-0.8-1.9-0.8c-0.8,0-1.4,0.3-1.9,0.9c-0.5,0.6-0.8,1.3-0.8,2.1
		C556.2,49.3,556.4,50,556.9,50.5z"/>
	<path class="st0" d="M573.6,45.9c0.4-0.8,1.1-1.4,1.9-1.8c0.8-0.4,1.7-0.6,2.7-0.6s1.9,0.2,2.7,0.6c0.8,0.4,1.4,1,1.8,1.8
		s0.6,1.6,0.6,2.5c0,0.9-0.2,1.8-0.6,2.5c-0.4,0.8-1,1.4-1.8,1.8c-0.8,0.4-1.7,0.7-2.7,0.7c-1,0-1.9-0.2-2.7-0.6s-1.4-1-1.9-1.7
		s-0.7-1.6-0.7-2.7C572.9,47.5,573.1,46.6,573.6,45.9z M576.2,50.5c0.5,0.6,1.2,0.8,1.9,0.8c0.8,0,1.4-0.3,1.9-0.8
		c0.5-0.6,0.8-1.3,0.8-2.1s-0.3-1.6-0.8-2.1c-0.5-0.6-1.2-0.8-1.9-0.8c-0.8,0-1.4,0.3-1.9,0.9c-0.5,0.6-0.8,1.3-0.8,2.1
		C575.4,49.3,575.7,50,576.2,50.5z"/>
	<path class="st0" d="M594.8,43.9v9.3h-2.2l-0.2-1.7c-0.3,0.6-0.8,1.1-1.4,1.5s-1.3,0.6-2.2,0.6c-0.9,0-1.6-0.3-2.1-0.8
		c-0.6-0.5-0.9-1.2-0.9-2v-6.9h2.5v6c0,1,0.5,1.5,1.5,1.6c0.7,0,1.3-0.3,1.8-1s0.7-1.5,0.7-2.5v-4.1H594.8z"/>
	<path class="st0" d="M601.7,44.7c0.5-0.4,0.9-0.7,1.4-0.9c0.5-0.2,0.9-0.3,1.2-0.3l-0.1,2.5c-0.7-0.1-1.3,0.1-1.8,0.4
		c-0.5,0.3-0.9,0.7-1.2,1.2c-0.3,0.5-0.4,1.1-0.4,1.7v4h-2.5v-9.3h2.2l0.2,2.2C600.9,45.5,601.3,45.1,601.7,44.7z"/>
	<path class="st0" d="M605.2,50.9c0.3-0.3,0.6-0.4,0.9-0.4c0.3,0,0.6,0.1,0.9,0.4c0.3,0.3,0.4,0.6,0.4,0.9c0,0.4-0.1,0.7-0.4,1
		s-0.6,0.4-0.9,0.4c-0.4,0-0.7-0.1-0.9-0.4c-0.3-0.2-0.4-0.6-0.4-1C604.8,51.5,604.9,51.1,605.2,50.9z"/>
	<path class="st0" d="M608.9,50.9c0.3-0.3,0.6-0.4,0.9-0.4c0.3,0,0.6,0.1,0.9,0.4c0.3,0.3,0.4,0.6,0.4,0.9c0,0.4-0.1,0.7-0.4,1
		s-0.6,0.4-0.9,0.4c-0.4,0-0.7-0.1-0.9-0.4c-0.3-0.2-0.4-0.6-0.4-1C608.5,51.5,608.7,51.1,608.9,50.9z"/>
	<path class="st0" d="M612.7,50.9c0.3-0.3,0.6-0.4,0.9-0.4c0.3,0,0.6,0.1,0.9,0.4c0.3,0.3,0.4,0.6,0.4,0.9c0,0.4-0.1,0.7-0.4,1
		s-0.6,0.4-0.9,0.4c-0.4,0-0.7-0.1-0.9-0.4c-0.3-0.2-0.4-0.6-0.4-1C612.3,51.5,612.4,51.1,612.7,50.9z"/>
</g>
</svg>
