<?xml version="1.0" encoding="utf-8"?>
<!-- Generator: Adobe Illustrator 23.0.3, SVG Export Plug-In . SVG Version: 6.00 Build 0)  -->
<svg version="1.1" id="Layer_1" xmlns="http://www.w3.org/2000/svg" xmlns:xlink="http://www.w3.org/1999/xlink" x="0px" y="0px"
	 viewBox="0 0 728 90" style="enable-background:new 0 0 728 90;" xml:space="preserve">
<style type="text/css">
	.st0{fill:#BB8C54;}
</style>
<g>
	<path class="st0" d="M199.3,41.4H194c-0.4,0.1-0.8,0.1-1.2,0.1c-1.1,0-2.1-0.3-3-0.8c-0.9-0.5-1.6-1.2-2.2-2.2
		c-0.5-0.9-0.8-1.9-0.8-3c0-1.1,0.3-2.1,0.8-3c0.5-0.9,1.3-1.6,2.2-2.2c0.9-0.5,1.9-0.8,3-0.8c1.1,0,2.1,0.3,3,0.8
		c0.9,0.5,1.6,1.3,2.2,2.2c0.5,0.9,0.8,1.9,0.8,3c0,0.8-0.1,1.5-0.4,2.2s-0.7,1.3-1.1,1.8h2.1V41.4z M189.3,37.7
		c0.4,0.6,0.9,1.1,1.5,1.5s1.3,0.6,2.1,0.6c0.7,0,1.4-0.2,2-0.6s1.1-0.9,1.4-1.5c0.4-0.6,0.5-1.3,0.5-2.1c0-0.7-0.2-1.4-0.5-2.1
		s-0.9-1.1-1.5-1.5c-0.6-0.4-1.3-0.6-2-0.6c-0.7,0-1.4,0.2-2,0.6c-0.6,0.4-1.1,0.9-1.5,1.5s-0.5,1.3-0.5,2.1
		C188.7,36.4,188.9,37.1,189.3,37.7z"/>
	<path class="st0" d="M203.8,38.5c0.2,0.4,0.6,0.7,1,0.9s0.8,0.3,1.3,0.3c0.5,0,1-0.1,1.4-0.3s0.7-0.5,1-0.9
		c0.2-0.4,0.4-0.8,0.4-1.3v-7.5h1.8v7.5c0,0.8-0.2,1.6-0.6,2.2c-0.4,0.6-0.9,1.1-1.6,1.5c-0.7,0.4-1.5,0.5-2.3,0.5s-1.6-0.2-2.3-0.5
		c-0.7-0.4-1.2-0.9-1.6-1.5c-0.4-0.6-0.6-1.4-0.6-2.2v-7.5h1.9v7.5C203.5,37.7,203.6,38.1,203.8,38.5z"/>
	<path class="st0" d="M221.4,29.8v1.8h-5.9v3.1h5.2v1.8h-5.2v3.2h6.1v1.8h-8V29.8H221.4z"/>
	<path class="st0" d="M231.9,29.8v1.8H226v3.1h5.2v1.8H226v3.2h6.1v1.8h-8V29.8H231.9z"/>
	<path class="st0" d="M245,29.8v12.1h0l-8.4-8.1l0,7.7h-1.9v-12h0.1l8.4,8.2l0-7.8H245z"/>
	<path class="st0" d="M247.1,32c0.2-0.2,0.4-0.4,0.5-0.7c0.1-0.3,0.2-0.6,0.2-0.9c0-0.1,0-0.2,0-0.4l1.4-0.1c0,0.1,0,0.3,0,0.3
		c0,0.4-0.1,0.8-0.3,1.3c-0.2,0.4-0.5,0.7-0.8,1L247.1,32z"/>
	<path class="st0" d="M254.7,31.4c-0.6,0-1,0.1-1.4,0.4c-0.3,0.3-0.5,0.6-0.5,1.1c0,0.4,0.2,0.8,0.6,1.1s1,0.6,1.8,0.9
		c0.6,0.2,1.1,0.4,1.5,0.7s0.7,0.6,1,1.1c0.3,0.4,0.4,1,0.4,1.7c0,0.6-0.2,1.2-0.5,1.7c-0.3,0.5-0.8,0.9-1.3,1.2
		c-0.6,0.3-1.3,0.4-2.1,0.4c-0.7,0-1.4-0.1-2.1-0.3c-0.7-0.2-1.3-0.5-1.8-0.9l0.8-1.5c0.4,0.3,0.9,0.5,1.4,0.7s1,0.3,1.5,0.3
		c0.6,0,1.1-0.1,1.5-0.4c0.4-0.3,0.6-0.7,0.6-1.3c0-0.4-0.2-0.8-0.5-1.1c-0.4-0.3-0.9-0.6-1.5-0.8c-0.7-0.2-1.2-0.5-1.6-0.7
		c-0.4-0.2-0.8-0.6-1.1-1c-0.3-0.4-0.5-1-0.5-1.6c0-0.9,0.3-1.7,1-2.3s1.5-0.9,2.6-0.9c0.8,0,1.4,0.1,2,0.3c0.6,0.2,1.1,0.4,1.6,0.7
		l-0.7,1.4C256.3,31.6,255.5,31.4,254.7,31.4z"/>
	<path class="st0" d="M191,55.6c0.4,0.5,0.6,1,0.6,1.6c0,1.1-0.4,2-1.1,2.5c-0.8,0.5-1.7,0.8-2.8,0.8H184V49h3.2
		c1.2,0,2.2,0.2,2.8,0.7c0.7,0.5,1,1.2,1,2.2c0,0.6-0.1,1.1-0.4,1.6c-0.3,0.4-0.6,0.8-1.1,1.1C190.2,54.8,190.7,55.2,191,55.6z
		 M185.9,53.9h1.6c0.5,0,0.9-0.2,1.2-0.5s0.4-0.7,0.4-1.2c0-0.5-0.2-0.9-0.5-1.2c-0.3-0.3-0.8-0.4-1.4-0.4h-1.4V53.9z M189.1,58.5
		c0.4-0.3,0.6-0.7,0.6-1.2c0-0.6-0.2-1-0.6-1.2c-0.4-0.2-1-0.4-1.6-0.4h-1.6v3.2h1.7C188.2,58.9,188.7,58.8,189.1,58.5z"/>
	<path class="st0" d="M196,49v11.6h-1.9V49H196z"/>
	<path class="st0" d="M205.5,60.6l-2.6-4h-0.2H201v4h-1.9V49h3.3c1.3,0,2.3,0.3,3.1,1c0.8,0.7,1.2,1.6,1.2,2.8c0,0.7-0.2,1.4-0.5,2
		c-0.3,0.6-0.8,1.1-1.4,1.4l2.8,4.5H205.5z M201,54.8h1.7c0.7,0,1.3-0.2,1.6-0.6c0.3-0.4,0.5-0.9,0.5-1.4c0-0.3-0.1-0.6-0.2-0.9
		c-0.1-0.3-0.3-0.6-0.7-0.8c-0.3-0.2-0.7-0.3-1.2-0.3H201V54.8z"/>
	<path class="st0" d="M216.6,49v1.8h-3v9.9h-1.9v-9.9h-2.9V49H216.6z"/>
	<path class="st0" d="M228.5,60.6h-1.9v-5h-5.7v5H219V49h1.9v4.9h5.7V49h1.9V60.6z"/>
	<path class="st0" d="M231.7,49h3.3c1.5,0,2.7,0.3,3.6,0.9c1,0.6,1.7,1.3,2.1,2.2c0.4,0.9,0.7,1.9,0.7,2.9c0,1.1-0.3,2.1-0.8,3
		c-0.5,0.9-1.2,1.5-2.1,2c-0.9,0.5-1.9,0.7-2.9,0.7h-3.9V49z M235.2,58.8c0.8,0,1.6-0.2,2.2-0.5s1.1-0.8,1.5-1.4
		c0.4-0.6,0.5-1.3,0.5-2.2c0-0.9-0.2-1.7-0.6-2.3s-0.9-1.1-1.5-1.4c-0.6-0.3-1.2-0.4-1.9-0.4h-2v8.1H235.2z"/>
	<path class="st0" d="M249.2,57.9h-4.2l-1.1,2.7H242l5.2-12.1h0.1l5.2,12.1h-2.1L249.2,57.9z M248.5,56.3l-1.5-3.7l-1.5,3.7H248.5z"
		/>
	<path class="st0" d="M262.1,49l-4.4,7.9v3.8h-1.9v-3.8l-4.3-7.9h2.3l3,5.7l2.9-5.7H262.1z"/>
</g>
</svg>
