<?xml version="1.0" encoding="utf-8"?>
<!-- Generator: Adobe Illustrator 23.0.3, SVG Export Plug-In . SVG Version: 6.00 Build 0)  -->
<svg version="1.1" id="Layer_1" xmlns="http://www.w3.org/2000/svg" xmlns:xlink="http://www.w3.org/1999/xlink" x="0px" y="0px"
	 viewBox="0 0 728 90" style="enable-background:new 0 0 728 90;" xml:space="preserve">
<style type="text/css">
	.st0{fill:#BB8C54;}
</style>
<g>
	<path class="st0" d="M317.1,69.7c0.4-0.5,0.8-0.8,1.3-1.1c-0.3-0.2-0.5-0.5-0.7-0.8c-0.2-0.3-0.2-0.6-0.2-1c0-0.4,0.1-0.8,0.4-1.2
		c0.2-0.3,0.6-0.6,1-0.8c0.4-0.2,0.9-0.3,1.4-0.3s1,0.1,1.4,0.3s0.7,0.5,1,0.8c0.2,0.3,0.4,0.7,0.4,1.1c0,0.4-0.1,0.8-0.2,1.1
		s-0.4,0.5-0.7,0.8c0.5,0.3,0.9,0.6,1.3,1.1c0.4,0.5,0.5,1,0.5,1.7c0,0.6-0.2,1.1-0.5,1.6c-0.3,0.5-0.8,0.9-1.3,1.2
		c-0.6,0.3-1.2,0.5-1.8,0.5c-0.7,0-1.3-0.2-1.8-0.5c-0.6-0.3-1-0.7-1.3-1.2c-0.3-0.5-0.5-1-0.5-1.6
		C316.6,70.7,316.8,70.1,317.1,69.7z M318.6,72.3c0.2,0.3,0.4,0.5,0.7,0.7c0.3,0.2,0.6,0.3,0.9,0.3c0.3,0,0.6-0.1,0.9-0.3
		c0.3-0.2,0.5-0.4,0.7-0.7c0.2-0.3,0.3-0.6,0.3-0.9c0-0.5-0.2-1-0.5-1.3c-0.4-0.4-0.8-0.5-1.3-0.5c-0.3,0-0.6,0.1-0.9,0.2
		c-0.3,0.2-0.5,0.4-0.7,0.7s-0.3,0.6-0.3,0.9C318.4,71.7,318.4,72,318.6,72.3z M319.5,67.7c0.2,0.2,0.5,0.3,0.7,0.3
		c0.3,0,0.5-0.1,0.7-0.3c0.2-0.2,0.3-0.4,0.3-0.7c0-0.3-0.1-0.5-0.3-0.7s-0.4-0.3-0.7-0.3c-0.3,0-0.5,0.1-0.7,0.3
		c-0.2,0.2-0.3,0.4-0.3,0.7C319.2,67.3,319.3,67.5,319.5,67.7z"/>
	<path class="st0" d="M330,66.6v1.2H328v6.8h-1.3v-6.8h-2v-1.2H330z"/>
	<path class="st0" d="M338.2,74.6h-1.3v-3.4h-3.9v3.4h-1.3v-8h1.3v3.4h3.9v-3.4h1.3V74.6z"/>
	<path class="st0" d="M352.7,74.6l-0.9-1.2c-0.3,0.4-0.7,0.7-1.3,1c-0.5,0.2-1.1,0.4-1.8,0.4c-0.7,0-1.3-0.1-1.8-0.4s-1-0.7-1.3-1.2
		c-0.3-0.5-0.5-1.1-0.5-1.7c0-0.8,0.3-1.4,0.8-2c0.5-0.6,1.2-1,2-1.2l-0.3-0.4c-0.5-0.8-0.8-1.5-0.8-2.1c0-0.4,0.1-0.8,0.3-1.2
		c0.2-0.4,0.5-0.7,0.9-0.9s0.9-0.4,1.5-0.4c0.6,0,1.2,0.1,1.7,0.4s0.9,0.6,1.3,0.9l-0.9,1.2c-0.3-0.3-0.7-0.6-0.9-0.7
		c-0.3-0.2-0.6-0.3-0.8-0.3c-0.4,0-0.7,0.1-0.9,0.3c-0.2,0.2-0.3,0.5-0.3,0.9c0,0.3,0.1,0.6,0.2,0.8c0.2,0.3,0.2,0.4,0.3,0.4
		l2.5,3.4l0.9-2.4h1.6l-1.5,3.8l2.1,2.7H352.7z M350.9,72.2l-2.1-2.8c-0.5,0-1,0.3-1.3,0.6c-0.4,0.4-0.5,0.8-0.5,1.3
		c0,0.5,0.2,1,0.6,1.3c0.4,0.3,0.9,0.5,1.5,0.5C349.9,73.2,350.5,72.8,350.9,72.2z"/>
	<path class="st0" d="M366.1,65.1c0.6,0.3,1,0.7,1.3,1.3c0.3,0.5,0.5,1.1,0.5,1.8c0,1-0.2,1.9-0.7,2.7c-0.5,0.8-1,1.5-1.7,2.1
		c-0.7,0.6-1.5,1.2-2.5,1.8l-1.2-1.3c0.8-0.4,1.5-0.8,2.1-1.2s1.1-0.9,1.4-1.4c-0.4,0.3-1,0.5-1.7,0.5c-0.5,0-1-0.1-1.4-0.4
		c-0.5-0.3-0.8-0.7-1.1-1.1s-0.4-1-0.4-1.6c0-0.7,0.2-1.4,0.5-1.9s0.8-1,1.3-1.2c0.5-0.3,1.1-0.4,1.7-0.4
		C364.9,64.7,365.5,64.8,366.1,65.1z M363,69.4c0.3,0.3,0.8,0.5,1.3,0.5s0.9-0.2,1.3-0.5c0.3-0.3,0.5-0.7,0.5-1.2V68
		c0-0.5-0.2-0.9-0.5-1.3c-0.3-0.3-0.8-0.5-1.3-0.5c-0.5,0-0.9,0.2-1.3,0.5c-0.3,0.3-0.5,0.8-0.5,1.4C362.5,68.6,362.6,69.1,363,69.4
		z"/>
	<path class="st0" d="M374.1,66.6v1.2h-2.1v6.8h-1.3v-6.8h-2v-1.2H374.1z"/>
	<path class="st0" d="M382.3,74.6H381v-3.4h-3.9v3.4h-1.3v-8h1.3v3.4h3.9v-3.4h1.3V74.6z"/>
	<path class="st0" d="M392.2,74.8c-0.4,0.6-0.8,1.1-1.5,1.5c-0.6,0.3-1.3,0.5-2.1,0.6v-1.7c0.7,0,1.3-0.3,1.7-0.7
		c0.4-0.4,0.6-1.1,0.6-2v-8.8h1.8v8.8C392.7,73.3,392.5,74.1,392.2,74.8z"/>
	<path class="st0" d="M397.6,71.8c0.2,0.4,0.5,0.6,0.9,0.9c0.4,0.2,0.8,0.3,1.2,0.3c0.5,0,0.9-0.1,1.3-0.3c0.4-0.2,0.7-0.5,0.9-0.9
		c0.2-0.4,0.3-0.8,0.3-1.2v-7h1.7v7c0,0.8-0.2,1.5-0.6,2.1c-0.4,0.6-0.9,1.1-1.5,1.4s-1.4,0.5-2.1,0.5c-0.8,0-1.5-0.2-2.1-0.5
		s-1.2-0.8-1.5-1.4c-0.4-0.6-0.6-1.3-0.6-2.1v-7h1.7v7C397.3,71.1,397.4,71.4,397.6,71.8z"/>
	<path class="st0" d="M416.5,63.6V75h0l-7.9-7.6l0,7.2h-1.8V63.3h0.1l7.8,7.7l0-7.3H416.5z"/>
	<path class="st0" d="M426.7,63.6v1.7h-5.5v2.9h4.9v1.7h-4.9v3h5.7v1.7h-7.5V63.6H426.7z"/>
	<path class="st0" d="M440.3,72.9v1.7h-6.9L434,74c1-1,1.8-1.8,2.3-2.4c0.6-0.6,1-1.3,1.4-1.9s0.6-1.2,0.6-1.8c0-0.5-0.2-1-0.5-1.2
		s-0.7-0.4-1.2-0.4c-0.5,0-0.9,0.1-1.2,0.5c-0.3,0.3-0.4,0.6-0.4,1c0,0.6,0.2,1.1,0.6,1.5l-1.1,1c-0.4-0.2-0.7-0.6-0.9-1.1
		c-0.2-0.5-0.3-1-0.3-1.4c0-0.5,0.1-1.1,0.4-1.6c0.3-0.5,0.7-0.9,1.3-1.2s1.2-0.4,2-0.4c0.6,0,1.2,0.1,1.7,0.4
		c0.5,0.3,0.9,0.7,1.1,1.2c0.3,0.5,0.4,1,0.4,1.6c0,0.6-0.1,1.1-0.4,1.7c-0.3,0.6-0.6,1.1-0.9,1.6c-0.4,0.5-0.9,1.1-1.5,1.9H440.3z"
		/>
	<path class="st0" d="M443.6,74c-0.6-0.4-1.1-1-1.5-1.7c-0.4-0.8-0.5-1.7-0.5-2.7c0-1.7,0.4-3,1.1-3.8s1.8-1.2,3.1-1.2
		c0.8,0,1.5,0.2,2.1,0.6c0.6,0.4,1.1,1,1.5,1.7s0.5,1.7,0.5,2.7c0,1.1-0.2,2-0.5,2.8c-0.4,0.8-0.9,1.3-1.5,1.7s-1.3,0.6-2.1,0.6
		C444.9,74.6,444.2,74.4,443.6,74z M447.5,72c0.4-0.6,0.6-1.4,0.6-2.5c0-1-0.2-1.8-0.6-2.4c-0.4-0.6-1-0.9-1.8-0.9
		c-0.8,0-1.4,0.3-1.8,0.9c-0.4,0.6-0.6,1.4-0.6,2.4c0,1,0.2,1.8,0.6,2.4c0.4,0.6,1,0.9,1.8,0.9C446.5,72.9,447.1,72.6,447.5,72z"/>
	<path class="st0" d="M453.9,64.7v9.9h-1.8v-8.2h-1v-1.7H453.9z"/>
	<path class="st0" d="M461.4,65.1c0.6,0.3,1,0.7,1.3,1.3s0.5,1.1,0.5,1.8c0,1-0.2,1.9-0.7,2.7c-0.5,0.8-1,1.5-1.7,2.1
		c-0.7,0.6-1.5,1.2-2.5,1.8l-1.2-1.3c0.8-0.4,1.5-0.8,2.1-1.2c0.6-0.5,1.1-0.9,1.4-1.4c-0.5,0.3-1,0.5-1.7,0.5c-0.5,0-1-0.1-1.4-0.4
		c-0.5-0.3-0.8-0.7-1.1-1.1c-0.3-0.5-0.4-1-0.4-1.6c0-0.7,0.2-1.4,0.5-1.9c0.3-0.5,0.8-1,1.3-1.2c0.5-0.3,1.1-0.4,1.7-0.4
		C460.2,64.7,460.8,64.8,461.4,65.1z M458.3,69.4c0.3,0.3,0.8,0.5,1.3,0.5s0.9-0.2,1.3-0.5c0.3-0.3,0.5-0.7,0.5-1.2V68
		c0-0.5-0.2-0.9-0.5-1.3c-0.3-0.3-0.8-0.5-1.3-0.5c-0.5,0-0.9,0.2-1.3,0.5c-0.3,0.3-0.5,0.8-0.5,1.4
		C457.8,68.6,457.9,69.1,458.3,69.4z"/>
</g>
</svg>
