<?xml version="1.0" encoding="utf-8"?>
<!-- Generator: Adobe Illustrator 23.0.3, SVG Export Plug-In . SVG Version: 6.00 Build 0)  -->
<svg version="1.1" id="Layer_1" xmlns="http://www.w3.org/2000/svg" xmlns:xlink="http://www.w3.org/1999/xlink" x="0px" y="0px"
	 viewBox="0 0 728 90" style="enable-background:new 0 0 728 90;" xml:space="preserve">
<style type="text/css">
	.st0{fill:#768961;}
</style>
<g>
	<path class="st0" d="M547.7,30.5v1.7h-4.9v3.1h4.2v1.7h-4.2v4.5h-1.8V30.5H547.7z"/>
	<path class="st0" d="M549.9,33.2c0.5-0.9,1.2-1.5,2-2c0.9-0.5,1.8-0.8,2.8-0.8c1,0,1.9,0.3,2.8,0.8c0.9,0.5,1.5,1.2,2,2.1
		c0.5,0.9,0.8,1.8,0.8,2.8c0,1-0.3,1.9-0.8,2.8s-1.2,1.5-2,2c-0.9,0.5-1.8,0.8-2.8,0.8c-1,0-1.9-0.2-2.8-0.7c-0.9-0.5-1.5-1.2-2-2
		c-0.5-0.8-0.8-1.8-0.8-2.8C549.1,35,549.4,34.1,549.9,33.2z M551.5,37.9c0.3,0.6,0.8,1.1,1.4,1.4s1.2,0.5,1.9,0.5
		c0.7,0,1.3-0.2,1.9-0.5c0.6-0.3,1-0.8,1.4-1.4c0.3-0.6,0.5-1.2,0.5-2s-0.2-1.4-0.5-2c-0.3-0.6-0.8-1.1-1.4-1.4s-1.2-0.5-1.9-0.5
		c-0.7,0-1.3,0.2-1.9,0.5s-1,0.8-1.4,1.4c-0.3,0.6-0.5,1.3-0.5,2S551.1,37.3,551.5,37.9z"/>
	<path class="st0" d="M568.6,41.4l-2.5-3.8H566h-1.6v3.8h-1.8V30.5h3.1c1.2,0,2.2,0.3,2.9,0.9c0.7,0.6,1.1,1.5,1.1,2.6
		c0,0.7-0.1,1.3-0.4,1.9c-0.3,0.6-0.7,1-1.3,1.3l2.7,4.2H568.6z M564.4,36h1.6c0.7,0,1.2-0.2,1.5-0.6c0.3-0.4,0.5-0.8,0.5-1.3
		c0-0.3-0.1-0.6-0.2-0.8c-0.1-0.3-0.3-0.5-0.6-0.7c-0.3-0.2-0.7-0.3-1.1-0.3h-1.6V36z"/>
	<path class="st0" d="M578.3,38.9h-4l-1,2.6h-1.7l4.8-11.4h0.1l4.8,11.4h-2L578.3,38.9z M577.7,37.4l-1.4-3.5l-1.4,3.5H577.7z"/>
	<path class="st0" d="M586.4,32c-0.5,0-1,0.1-1.3,0.4c-0.3,0.2-0.5,0.6-0.5,1c0,0.4,0.2,0.8,0.6,1c0.4,0.3,0.9,0.5,1.7,0.8
		c0.5,0.2,1,0.4,1.4,0.7s0.7,0.6,1,1s0.4,1,0.4,1.6c0,0.6-0.1,1.1-0.4,1.6c-0.3,0.5-0.7,0.8-1.3,1.1c-0.6,0.3-1.2,0.4-2,0.4
		c-0.7,0-1.3-0.1-2-0.3s-1.2-0.5-1.7-0.8l0.8-1.4c0.4,0.3,0.8,0.5,1.3,0.7c0.5,0.2,1,0.3,1.4,0.3c0.5,0,1-0.1,1.4-0.4
		c0.4-0.3,0.6-0.6,0.6-1.2c0-0.4-0.2-0.8-0.5-1.1c-0.3-0.3-0.8-0.5-1.4-0.8c-0.6-0.2-1.1-0.5-1.5-0.7s-0.8-0.5-1.1-0.9
		c-0.3-0.4-0.4-0.9-0.4-1.5c0-0.9,0.3-1.6,0.9-2.2c0.6-0.5,1.4-0.8,2.4-0.9c0.7,0,1.4,0.1,1.9,0.2s1.1,0.4,1.5,0.7l-0.7,1.3
		C588,32.2,587.1,32,586.4,32z"/>
	<path class="st0" d="M591.7,43.3h-1.3l0.4-1.1c0.5-1.2,0.7-1.9,0.8-2.1h1.5L591.7,43.3z"/>
	<path class="st0" d="M523.1,50c-0.5,0-1,0.1-1.3,0.4c-0.3,0.2-0.5,0.6-0.5,1c0,0.4,0.2,0.8,0.6,1c0.4,0.3,0.9,0.5,1.7,0.8
		c0.5,0.2,1,0.4,1.4,0.7c0.4,0.2,0.7,0.6,1,1s0.4,1,0.4,1.6c0,0.6-0.1,1.1-0.4,1.6s-0.7,0.8-1.3,1.1c-0.6,0.3-1.2,0.4-2,0.4
		c-0.7,0-1.3-0.1-2-0.3s-1.2-0.5-1.7-0.8l0.8-1.4c0.4,0.3,0.8,0.5,1.3,0.7c0.5,0.2,1,0.3,1.4,0.3c0.5,0,1-0.1,1.4-0.4
		c0.4-0.3,0.6-0.6,0.6-1.2c0-0.4-0.2-0.8-0.5-1c-0.3-0.3-0.8-0.5-1.4-0.8c-0.6-0.2-1.1-0.5-1.5-0.7s-0.8-0.5-1.1-0.9
		c-0.3-0.4-0.4-0.9-0.4-1.5c0-0.9,0.3-1.6,0.9-2.2c0.6-0.5,1.4-0.8,2.4-0.9c0.7,0,1.4,0.1,1.9,0.2s1.1,0.4,1.5,0.7l-0.7,1.3
		C524.7,50.2,523.8,50,523.1,50z"/>
	<path class="st0" d="M535.1,48.5v1.7h-2.8v9.2h-1.7v-9.2h-2.7v-1.7H535.1z"/>
	<path class="st0" d="M537,51.2c0.5-0.9,1.2-1.5,2-2c0.9-0.5,1.8-0.8,2.8-0.8c1,0,1.9,0.3,2.8,0.8c0.9,0.5,1.5,1.2,2,2.1
		c0.5,0.9,0.8,1.8,0.8,2.8c0,1-0.3,1.9-0.8,2.8c-0.5,0.9-1.2,1.5-2,2c-0.9,0.5-1.8,0.8-2.8,0.8c-1,0-1.9-0.2-2.8-0.7
		c-0.9-0.5-1.5-1.2-2-2c-0.5-0.9-0.8-1.8-0.8-2.8C536.2,53,536.5,52.1,537,51.2z M538.5,55.9c0.3,0.6,0.8,1.1,1.4,1.4
		c0.6,0.4,1.2,0.5,1.9,0.5c0.7,0,1.3-0.2,1.9-0.5c0.6-0.3,1-0.8,1.4-1.4s0.5-1.2,0.5-2c0-0.7-0.2-1.4-0.5-2
		c-0.3-0.6-0.8-1.1-1.4-1.4c-0.6-0.3-1.2-0.5-1.9-0.5c-0.7,0-1.3,0.2-1.9,0.5c-0.6,0.4-1,0.8-1.4,1.4c-0.3,0.6-0.5,1.3-0.5,2
		C538,54.7,538.2,55.3,538.5,55.9z"/>
	<path class="st0" d="M557.8,59.9l-2.6-6.5l-2.9,6.5l-4.4-11.4h2l2.5,7.3l1.8-4.6l-1-2.6h1.7l2.8,7.1l2.3-7.1h1.9L557.8,59.9z"/>
	<path class="st0" d="M570.7,54.8c0.3,0.4,0.5,1,0.5,1.5c0,1.1-0.4,1.8-1.1,2.4s-1.6,0.8-2.6,0.8h-3.4V48.5h3c1.1,0,2,0.2,2.7,0.7
		s0.9,1.1,0.9,2c0,0.6-0.1,1.1-0.4,1.5s-0.6,0.7-1,1C569.9,54,570.3,54.3,570.7,54.8z M565.8,53.2h1.5c0.5,0,0.9-0.1,1.1-0.4
		s0.4-0.7,0.4-1.1c0-0.5-0.2-0.8-0.5-1.1c-0.3-0.2-0.7-0.4-1.3-0.4h-1.3V53.2z M568.8,57.4c0.4-0.3,0.6-0.6,0.6-1.1
		c0-0.5-0.2-0.9-0.6-1.1c-0.4-0.2-0.9-0.3-1.5-0.3h-1.5v3h1.6C568,57.8,568.5,57.7,568.8,57.4z"/>
	<path class="st0" d="M579.5,59.4l-2.5-3.8h-0.2h-1.6v3.8h-1.8V48.5h3.1c1.2,0,2.2,0.3,2.9,0.9c0.7,0.6,1.1,1.5,1.1,2.6
		c0,0.7-0.1,1.3-0.4,1.9c-0.3,0.6-0.7,1-1.3,1.3l2.7,4.2H579.5z M575.3,54h1.6c0.7,0,1.2-0.2,1.5-0.6c0.3-0.4,0.5-0.8,0.5-1.3
		c0-0.3-0.1-0.6-0.2-0.8s-0.3-0.5-0.6-0.7s-0.7-0.3-1.1-0.3h-1.6V54z"/>
	<path class="st0" d="M585.3,48.5v10.9h-1.8V48.5H585.3z"/>
	<path class="st0" d="M588.3,48.5h3.1c1.4,0,2.5,0.3,3.4,0.8c0.9,0.5,1.5,1.2,2,2.1c0.4,0.9,0.6,1.8,0.6,2.7c0,1.1-0.2,2-0.7,2.8
		c-0.5,0.8-1.2,1.4-2,1.9c-0.8,0.4-1.7,0.7-2.7,0.7h-3.6V48.5z M591.6,57.8c0.8,0,1.5-0.1,2.1-0.4c0.6-0.3,1.1-0.7,1.4-1.3
		c0.3-0.6,0.5-1.2,0.5-2c0-0.9-0.2-1.6-0.5-2.2c-0.4-0.6-0.8-1-1.4-1.3c-0.6-0.3-1.1-0.4-1.7-0.4h-1.8v7.6H591.6z"/>
	<path class="st0" d="M606.9,59.2c-0.7,0.2-1.4,0.4-2,0.4c-1.2,0-2.2-0.2-3-0.7s-1.5-1.1-2-1.9c-0.5-0.8-0.7-1.7-0.7-2.7
		c0-1.2,0.3-2.3,0.8-3.2s1.2-1.5,2-2c0.9-0.5,1.8-0.7,2.8-0.7c0.6,0,1.2,0.1,1.8,0.2c0.6,0.1,1.1,0.3,1.5,0.6l-0.6,1.6
		c-0.3-0.2-0.7-0.3-1.2-0.5c-0.5-0.1-0.9-0.2-1.3-0.2c-1.3,0-2.2,0.3-3,1s-1.1,1.7-1.1,2.9c0,0.7,0.2,1.4,0.5,2
		c0.3,0.6,0.8,1,1.4,1.3c0.6,0.3,1.3,0.5,2.1,0.5c0.3,0,0.7,0,1-0.1c0.3-0.1,0.6-0.2,0.8-0.3v-1.8h-2.1v-1.7h3.8v4.5
		C608.1,58.7,607.6,59,606.9,59.2z"/>
	<path class="st0" d="M618.3,48.5v1.7h-5.5v2.9h4.9v1.7h-4.9v3h5.7v1.7h-7.5V48.5H618.3z"/>
</g>
</svg>
