<svg id="Layer_1" data-name="Layer 1" xmlns="http://www.w3.org/2000/svg" xmlns:xlink="http://www.w3.org/1999/xlink" viewBox="0 0 970 250"><defs><style>.cls-1,.cls-8{fill:none;}.cls-2{clip-path:url(#clip-path);}.cls-3{fill:#221e1f;}.cls-4{clip-path:url(#clip-path-2);}.cls-5{clip-path:url(#clip-path-4);}.cls-6{clip-path:url(#clip-path-5);}.cls-7{clip-path:url(#clip-path-6);}.cls-8{stroke:#221e1f;stroke-width:2.77px;}.cls-9{clip-path:url(#clip-path-7);}.cls-10{clip-path:url(#clip-path-8);}.cls-11{clip-path:url(#clip-path-10);}.cls-12{clip-path:url(#clip-path-11);}.cls-13{clip-path:url(#clip-path-12);}.cls-14{clip-path:url(#clip-path-14);}.cls-15{clip-path:url(#clip-path-15);}.cls-16{clip-path:url(#clip-path-16);}.cls-17{clip-path:url(#clip-path-18);}.cls-18{clip-path:url(#clip-path-19);}</style><clipPath id="clip-path"><rect class="cls-1" width="970" height="250"/></clipPath><clipPath id="clip-path-2"><rect class="cls-1" x="990" width="970" height="250"/></clipPath><clipPath id="clip-path-4"><rect class="cls-1" x="1551.94" y="129.11" width="121.62" height="120.89"/></clipPath><clipPath id="clip-path-5"><rect class="cls-1" x="-31778" y="-32517" width="65535" height="65535"/></clipPath><clipPath id="clip-path-6"><rect class="cls-1" x="1233.5" y="19.57" width="174.76" height="213.82" rx="44.01"/></clipPath><clipPath id="clip-path-7"><polygon class="cls-1" points="1390.96 191.19 1446.29 229.26 1451.45 224.51 1447.38 221.41 1404.11 188.46 1390.96 191.19"/></clipPath><clipPath id="clip-path-8"><rect class="cls-1" x="1980" width="970" height="250"/></clipPath><clipPath id="clip-path-10"><rect class="cls-1" x="2541.94" y="129.11" width="121.62" height="120.89"/></clipPath><clipPath id="clip-path-11"><rect class="cls-1" x="-30788" y="-32517" width="65535" height="65535"/></clipPath><clipPath id="clip-path-12"><rect class="cls-1" x="3960" width="970" height="250"/></clipPath><clipPath id="clip-path-14"><rect class="cls-1" x="4521.94" y="129.11" width="121.62" height="120.89"/></clipPath><clipPath id="clip-path-15"><rect class="cls-1" x="-28808" y="-32517" width="65535" height="65535"/></clipPath><clipPath id="clip-path-16"><rect class="cls-1" x="4950" width="970" height="250"/></clipPath><clipPath id="clip-path-18"><rect class="cls-1" x="5511.94" y="129.11" width="121.62" height="120.89"/></clipPath><clipPath id="clip-path-19"><rect class="cls-1" x="-27818" y="-32517" width="65535" height="65535"/></clipPath></defs><g class="cls-2"><path class="cls-3" d="M49.5,128.24v-6h3.44v-1c0-6.24,3.87-9.52,9.62-9.52,4.51,0,7.63,2.26,8.6,6.24l-5.32,1.67a2.45,2.45,0,0,0-2.31-1.67c-1.46,0-2,1.18-2,2.69v1.61h6.07v6H61.54v18h-8.6v-18Z"/><path class="cls-3" d="M81.37,146.84c-7.85,0-13.11-5.16-13.11-12.63s5.26-12.63,13.11-12.63,13.12,5.21,13.12,12.63S89.17,146.84,81.37,146.84Zm0-6.56c3,0,4.36-2.47,4.36-6.07s-1.35-6.08-4.36-6.08S77,130.61,77,134.21,78.31,140.28,81.37,140.28Z"/><path class="cls-3" d="M116,130.71a7.82,7.82,0,0,0-4.14-1c-3.22,0-5.21,1.51-5.21,5.54v11H97.93v-24h8.71v4.25a7,7,0,0,1,6.56-4.89,5.76,5.76,0,0,1,3.33.91Z"/><path class="cls-3" d="M154.05,138.62v7.58H127.81v-6.56l9.36-7.37c5.16-4.14,6.88-5.91,6.88-9.14,0-2.09-1-3.7-3.66-3.7s-3.87,2.15-3.87,4.89a9,9,0,0,0,.38,2.79l-8.92-.27a16.18,16.18,0,0,1-.43-3.17c0-7.25,5.37-12,13.17-12,8.22,0,12.9,4.63,12.9,10.92,0,5.86-3,8.6-8.44,12.79L141,138.62Z"/><path class="cls-3" d="M175.28,154.8h-8.71V122.22h8.71v4.14c1.18-2.85,3.87-4.78,7.9-4.78,7,0,10.65,5.59,10.65,12.63s-3.61,12.63-10.65,12.63c-4,0-6.72-1.93-7.9-4.73Zm0-20.43c0,3.49,1.88,5.75,4.84,5.75,3.39,0,4.94-2.42,4.94-5.91s-1.55-5.86-4.94-5.86c-3,0-4.84,2.26-4.84,5.7Z"/><path class="cls-3" d="M197.21,112.33H206V120h-8.82Zm8.76,9.89v24h-8.7v-24Z"/><path class="cls-3" d="M210,128.51v-6.29h21v5.91l-10.8,11.78h11.07v6.29h-21.5v-6l10.64-11.72Z"/><path class="cls-3" d="M234.25,128.51v-6.29h21v5.91l-10.81,11.78h11.08v6.29H234v-6l10.65-11.72Z"/><path class="cls-3" d="M281.72,139.15c0,1.24.53,1.78,1.45,1.78a4.92,4.92,0,0,0,1.93-.38v4.62a9.09,9.09,0,0,1-5.43,1.56,5.91,5.91,0,0,1-6.07-4.24c-1.4,2.79-4.14,4.24-8,4.24-4.67,0-7.74-2.42-7.74-6.5,0-4.62,3.33-6.61,8.55-7.53l6.72-1.13v-.37c0-2-.92-3.17-3-3.17s-2.91,1.23-3.28,3l-8.07-.54c.76-5.27,4.68-8.92,11.89-8.92,6.34,0,11,2.74,11,9.4Zm-8.55-3.33-3.55.65c-2.1.43-3.33,1.07-3.33,2.63,0,1.24,1,2,2.42,2,2.47,0,4.46-1.82,4.46-4.94Z"/><path class="cls-3" d="M293.49,138.29c.32,2,1.93,3.12,4.57,3.12,1.93,0,2.95-.7,2.95-1.66s-.53-1.56-2.2-1.83l-3.55-.54c-5.8-.91-8.87-2.8-8.87-7.69,0-4.73,4.14-8.11,10.86-8.11,6.93,0,11,3.06,11.5,8.06l-7.15.21c-.32-1.72-1.82-2.79-4.51-2.79-1.67,0-2.64.64-2.64,1.72,0,.81.65,1.24,1.46,1.34l4.67.81c5.38.86,8.5,3.28,8.5,8,0,5.05-4.3,8-11.13,8-6.61,0-11.56-2.63-12-8.44Z"/></g><g class="cls-4"><g class="cls-7"><line class="cls-8" x1="1578.54" y1="-356.3" x2="925.77" y2="241.87"/><line class="cls-8" x1="1612.58" y1="-319.15" x2="959.8" y2="279.01"/><line class="cls-8" x1="1595.56" y1="-337.72" x2="942.78" y2="260.44"/><line class="cls-8" x1="1587.05" y1="-347.01" x2="934.27" y2="251.15"/><line class="cls-8" x1="1621.09" y1="-309.87" x2="968.31" y2="288.29"/><line class="cls-8" x1="1604.07" y1="-328.44" x2="951.29" y2="269.72"/><line class="cls-8" x1="1570.04" y1="-365.58" x2="917.26" y2="232.58"/></g><g class="cls-9"><line class="cls-8" x1="1578.54" y1="-356.3" x2="925.77" y2="241.87"/><line class="cls-8" x1="1612.58" y1="-319.15" x2="959.8" y2="279.01"/><line class="cls-8" x1="1595.56" y1="-337.72" x2="942.78" y2="260.44"/><line class="cls-8" x1="1587.05" y1="-347.01" x2="934.27" y2="251.15"/><line class="cls-8" x1="1621.09" y1="-309.87" x2="968.31" y2="288.29"/><line class="cls-8" x1="1604.07" y1="-328.44" x2="951.29" y2="269.72"/><line class="cls-8" x1="1570.04" y1="-365.58" x2="917.26" y2="232.58"/></g></g></svg>