<svg id="Layer_1" data-name="Layer 1" xmlns="http://www.w3.org/2000/svg" xmlns:xlink="http://www.w3.org/1999/xlink" viewBox="0 0 970 250"><defs><style>.cls-1,.cls-8{fill:none;}.cls-2{clip-path:url(#clip-path);}.cls-3{fill:#221e1f;}.cls-4{clip-path:url(#clip-path-2);}.cls-5{clip-path:url(#clip-path-4);}.cls-6{clip-path:url(#clip-path-5);}.cls-7{clip-path:url(#clip-path-6);}.cls-8{stroke:#221e1f;stroke-width:2.77px;}.cls-9{clip-path:url(#clip-path-7);}.cls-10{clip-path:url(#clip-path-8);}.cls-11{clip-path:url(#clip-path-10);}.cls-12{clip-path:url(#clip-path-11);}.cls-13{clip-path:url(#clip-path-12);}.cls-14{clip-path:url(#clip-path-14);}.cls-15{clip-path:url(#clip-path-15);}.cls-16{clip-path:url(#clip-path-16);}.cls-17{clip-path:url(#clip-path-18);}.cls-18{clip-path:url(#clip-path-19);}</style><clipPath id="clip-path"><rect class="cls-1" width="970" height="250"/></clipPath><clipPath id="clip-path-2"><rect class="cls-1" x="990" width="970" height="250"/></clipPath><clipPath id="clip-path-4"><rect class="cls-1" x="1551.94" y="129.11" width="121.62" height="120.89"/></clipPath><clipPath id="clip-path-5"><rect class="cls-1" x="-31778" y="-32517" width="65535" height="65535"/></clipPath><clipPath id="clip-path-6"><rect class="cls-1" x="1233.5" y="19.57" width="174.76" height="213.82" rx="44.01"/></clipPath><clipPath id="clip-path-7"><polygon class="cls-1" points="1390.96 191.19 1446.29 229.26 1451.45 224.51 1447.38 221.41 1404.11 188.46 1390.96 191.19"/></clipPath><clipPath id="clip-path-8"><rect class="cls-1" x="1980" width="970" height="250"/></clipPath><clipPath id="clip-path-10"><rect class="cls-1" x="2541.94" y="129.11" width="121.62" height="120.89"/></clipPath><clipPath id="clip-path-11"><rect class="cls-1" x="-30788" y="-32517" width="65535" height="65535"/></clipPath><clipPath id="clip-path-12"><rect class="cls-1" x="3960" width="970" height="250"/></clipPath><clipPath id="clip-path-14"><rect class="cls-1" x="4521.94" y="129.11" width="121.62" height="120.89"/></clipPath><clipPath id="clip-path-15"><rect class="cls-1" x="-28808" y="-32517" width="65535" height="65535"/></clipPath><clipPath id="clip-path-16"><rect class="cls-1" x="4950" width="970" height="250"/></clipPath><clipPath id="clip-path-18"><rect class="cls-1" x="5511.94" y="129.11" width="121.62" height="120.89"/></clipPath><clipPath id="clip-path-19"><rect class="cls-1" x="-27818" y="-32517" width="65535" height="65535"/></clipPath></defs><g class="cls-2"><path class="cls-3" d="M59.06,77.45c.33,4.25,3.61,5.7,7.37,5.7,3.17,0,5.21-1.13,5.21-3s-2-2.31-4.57-2.8l-6.18-1.07c-5.54-1-9.41-4.14-9.41-10,0-6.88,5.38-11,13.82-11,9.35,0,14.41,4.57,14.57,12.09l-8.39.16c-.27-3.49-2.79-5.1-6.29-5.1-3,0-4.73,1.18-4.73,3.06,0,1.56,1.29,2.15,3.39,2.53l6.4,1.13C77.34,70.3,80.57,74,80.57,79.55c0,7.2-6.24,10.8-14.14,10.8-9.19,0-15.75-4.46-15.75-12.63Z"/><path class="cls-3" d="M93.25,98.31H84.54V65.73h8.71v4.14c1.18-2.85,3.87-4.78,7.9-4.78,7,0,10.65,5.59,10.65,12.63s-3.6,12.63-10.65,12.63c-4,0-6.72-1.93-7.9-4.73Zm0-20.43c0,3.5,1.88,5.75,4.84,5.75,3.39,0,4.94-2.42,4.94-5.91s-1.55-5.86-4.94-5.86c-3,0-4.84,2.26-4.84,5.7Z"/><path class="cls-3" d="M124,55.84V89.71h-8.71V55.84Z"/><path class="cls-3" d="M128.62,55.84h8.82v7.63h-8.82Zm8.76,9.89v24h-8.7v-24Z"/><path class="cls-3" d="M143,71.75h-3.23V66.38l1.77-.27c2.42-.38,3.18-1.67,3.77-3.87l.8-3.12h5.49v6.61h6.23v6h-6.23v8.77c0,2,1,2.84,2.74,2.84a9.67,9.67,0,0,0,3.71-.8V88.2a11.26,11.26,0,0,1-7.21,2.15c-4,0-7.84-1.66-7.84-7.31Z"/><path class="cls-3" d="M169.26,61c4.73,0,7.1-1.61,8.33-5.16h7.15V89.71H175.6V67h-6.34Z"/><path class="cls-3" d="M206.51,89.71h-6.72V55.84h8.71v14c1.18-2.85,3.87-4.78,7.9-4.78,7,0,10.65,5.59,10.65,12.63s-3.61,12.63-10.81,12.63c-3.87,0-6.88-1.88-8.22-4.78Zm2-11.83c0,3.5,1.88,5.75,4.84,5.75,3.39,0,4.94-2.42,4.94-5.91s-1.55-5.86-4.94-5.86c-3,0-4.84,2.26-4.84,5.7Z"/><path class="cls-3" d="M230.43,55.84h8.82v7.63h-8.82Zm8.76,9.89v24h-8.7v-24Z"/><path class="cls-3" d="M252.63,55.84V89.71h-8.7V55.84Z"/><path class="cls-3" d="M266.07,55.84V89.71h-8.71V55.84Z"/></g><g class="cls-4"><g class="cls-7"><line class="cls-8" x1="1578.54" y1="-356.3" x2="925.77" y2="241.87"/><line class="cls-8" x1="1612.58" y1="-319.15" x2="959.8" y2="279.01"/><line class="cls-8" x1="1595.56" y1="-337.72" x2="942.78" y2="260.44"/><line class="cls-8" x1="1587.05" y1="-347.01" x2="934.27" y2="251.15"/><line class="cls-8" x1="1621.09" y1="-309.87" x2="968.31" y2="288.29"/><line class="cls-8" x1="1604.07" y1="-328.44" x2="951.29" y2="269.72"/><line class="cls-8" x1="1570.04" y1="-365.58" x2="917.26" y2="232.58"/></g><g class="cls-9"><line class="cls-8" x1="1578.54" y1="-356.3" x2="925.77" y2="241.87"/><line class="cls-8" x1="1612.58" y1="-319.15" x2="959.8" y2="279.01"/><line class="cls-8" x1="1595.56" y1="-337.72" x2="942.78" y2="260.44"/><line class="cls-8" x1="1587.05" y1="-347.01" x2="934.27" y2="251.15"/><line class="cls-8" x1="1621.09" y1="-309.87" x2="968.31" y2="288.29"/><line class="cls-8" x1="1604.07" y1="-328.44" x2="951.29" y2="269.72"/><line class="cls-8" x1="1570.04" y1="-365.58" x2="917.26" y2="232.58"/></g></g></svg>