<svg xmlns="http://www.w3.org/2000/svg" viewBox="0 0 115 10.58"><defs><style>.cls-1{fill:#a5714e;}</style></defs><title>t4-en-200</title><g id="Layer_2" data-name="Layer 2"><g id="Layer_1-2" data-name="Layer 1"><path class="cls-1" d="M8.59,1.61a5.24,5.24,0,0,0-3.11-1c-2.31,0-3.85,1.9-3.85,4.72S3.17,10,5.47,10a5,5,0,0,0,3.4-1.37v.94a5.75,5.75,0,0,1-3.41,1A5.21,5.21,0,0,1,0,5.29,5.21,5.21,0,0,1,5.46,0,7,7,0,0,1,8.59.72Z"/><path class="cls-1" d="M16.35,10.58a5.23,5.23,0,0,1-5.48-5.29A5.28,5.28,0,0,1,16.35,0a5.28,5.28,0,0,1,5.47,5.29A5.23,5.23,0,0,1,16.35,10.58ZM20.2,5.29c0-2.77-1.54-4.72-3.85-4.72s-3.86,2-3.86,4.72S14,10,16.35,10,20.2,8.07,20.2,5.29Z"/><path class="cls-1" d="M36.43,10.38H34.89L33.7,3.2l-4,7.36L25.58,3.19l-1.17,7.19h-.59L25.53,0l4.69,8.41L34.72,0Z"/><path class="cls-1" d="M39.4.2h1.49V10.38H39.4Z"/><path class="cls-1" d="M52.1.2V10.56L44.57,2.73v7.65H44V0l7.53,7.83V.2Z"/><path class="cls-1" d="M63.72,1.73A5.42,5.42,0,0,0,60.27.57c-2.17,0-3.86,1.94-3.86,4.72S58.1,10,60.27,10a4.35,4.35,0,0,0,2.52-.67V5.18h1.49V9.46a6.78,6.78,0,0,1-4,1.12,5.25,5.25,0,0,1-5.48-5.29A5.26,5.26,0,0,1,60.27,0a7,7,0,0,1,3.45.84Z"/><path class="cls-1" d="M76.76,1.29A4,4,0,0,0,74.62.62c-1,0-1.81.44-1.81,1.32s.77,1.37,2,2.2c1.74,1.19,3,2.08,3,3.69,0,2.05-2,2.67-3.5,2.67a4.89,4.89,0,0,1-3-.91V8.73a4.57,4.57,0,0,0,3,1.2c1.26,0,2.11-.61,2.11-1.68s-.66-1.58-2.06-2.58c-1.73-1.24-2.78-2-2.78-3.33C71.57.71,73.12.05,74.64.05a5.44,5.44,0,0,1,2.12.42Z"/><path class="cls-1" d="M85.42,10.58a5.23,5.23,0,0,1-5.48-5.29,5.48,5.48,0,0,1,11,0A5.23,5.23,0,0,1,85.42,10.58Zm3.85-5.29c0-2.77-1.54-4.72-3.85-4.72s-3.86,2-3.86,4.72S83.1,10,85.42,10,89.27,8.07,89.27,5.29Z"/><path class="cls-1" d="M98.74,10.58a5.24,5.24,0,0,1-5.48-5.29,5.48,5.48,0,0,1,10.95,0A5.22,5.22,0,0,1,98.74,10.58Zm3.86-5.29c0-2.77-1.55-4.72-3.86-4.72s-3.86,2-3.86,4.72S96.43,10,98.74,10,102.6,8.07,102.6,5.29Z"/><path class="cls-1" d="M115,.2V10.56l-7.53-7.83v7.65h-.57V0l7.53,7.83V.2Z"/></g></g></svg>