<svg xmlns="http://www.w3.org/2000/svg" viewBox="0 0 318.94 34.86"><defs><style>.cls-1{fill:#fff;}</style></defs><g id="Layer_2" data-name="Layer 2"><g id="Layer_1-2" data-name="Layer 1"><path class="cls-1" d="M0,18.54V8H2.05V18.42c0,3.92,2.08,6.13,5.57,6.13s5.48-2,5.48-6V8h2.06V18.39c0,5.3-3,8.06-7.59,8.06S0,23.69,0,18.54Z"/><path class="cls-1" d="M19.68,12.72h2v2.7a6.06,6.06,0,0,1,5.15-3c3.23,0,6.42,2.55,6.42,7v.06c0,4.39-3.17,7-6.42,7a6.07,6.07,0,0,1-5.15-2.86v6.73h-2ZM31.2,19.48v-.05c0-3.17-2.18-5.2-4.73-5.2a5,5,0,0,0-4.86,5.17v.06a5,5,0,0,0,4.86,5.2C29.07,24.66,31.2,22.73,31.2,19.48Z"/><path class="cls-1" d="M45.45,22.6V14.49H43.57V12.72h1.88V8.66h2v4.06h4.26v1.77H47.45v7.85a2,2,0,0,0,2.26,2.24,4.17,4.17,0,0,0,1.95-.47v1.72a5.06,5.06,0,0,1-2.42.57C47.08,26.4,45.45,25.33,45.45,22.6Z"/><path class="cls-1" d="M54.05,19.51v-.05a7,7,0,0,1,14-.06v.06a7,7,0,0,1-7,7A6.89,6.89,0,0,1,54.05,19.51Zm12,0v-.05a5.09,5.09,0,0,0-5-5.26,5,5,0,0,0-4.91,5.2v.06a5,5,0,0,0,5,5.22A5,5,0,0,0,66,19.51Z"/><path class="cls-1" d="M92.08,23.8a4.07,4.07,0,0,1-.2,1.58,7.31,7.31,0,0,1-.65,1.49,16.72,16.72,0,0,1-1.69,2.54,13.69,13.69,0,0,1-2.18,2.19,7.87,7.87,0,0,1-1.51.93,3.26,3.26,0,0,1-1.76.27,5.72,5.72,0,0,1-1.39-.37,9.27,9.27,0,0,1-1.33-.68,10.22,10.22,0,0,1-2.47-2.37,7.39,7.39,0,0,1-1.41-3.57c-.06-.57-.11-1.12-.15-1.66s0-1.07,0-1.61a29.43,29.43,0,0,1,.58-5.81,29.12,29.12,0,0,1,1.74-5.56,28.63,28.63,0,0,1,2.71-5Q83.18,5,84.06,3.85A22.75,22.75,0,0,1,86,1.71a.57.57,0,0,1,.45-.18,1.85,1.85,0,0,1,.5.13,2.47,2.47,0,0,1,.78.35l.73.51a4.87,4.87,0,0,1,.61.6,2.54,2.54,0,0,1,.45.75,3.74,3.74,0,0,1,.18.48.53.53,0,0,1-.08.48A17.38,17.38,0,0,0,88,6.62c-.47.62-.94,1.26-1.41,1.93a27.1,27.1,0,0,0-2.16,4.08c-.4,1-.76,2-1.06,3a19.78,19.78,0,0,0-.9,3.42,2.21,2.21,0,0,1,.4-.3A5.74,5.74,0,0,1,84.34,18,4.51,4.51,0,0,1,86,17.71a3,3,0,0,1,1.08.1,6.84,6.84,0,0,1,1,.4,7.71,7.71,0,0,1,2.36,1.87,7.59,7.59,0,0,1,1.16,1.73A5,5,0,0,1,92.08,23.8Zm-6.33,2.06a11.1,11.1,0,0,0,1.1-1.28,7.82,7.82,0,0,0,.86-1.49,4.3,4.3,0,0,0,.35-1.61L86.9,22a10.29,10.29,0,0,0-1.43,1.15,12.92,12.92,0,0,0-1.23,1.36q-.55.7-1.11,1.56c-.17.27-.34.54-.5.81l-.51.8-.1.1a.88.88,0,0,1,0,.33,1.81,1.81,0,0,0,.05.38,3.2,3.2,0,0,0,1-.46A12.62,12.62,0,0,0,85.75,25.86Z"/><path class="cls-1" d="M117.29,12.88a11.27,11.27,0,0,1,.4,2.16c.07.74.11,1.5.11,2.27a35.51,35.51,0,0,1-.46,4.27,25.89,25.89,0,0,1-1.13,4.05,13.21,13.21,0,0,1-2,3.65,15.35,15.35,0,0,1-2.66,2.62,9.87,9.87,0,0,1-3.32,1.66,9.13,9.13,0,0,1-1.92.3,12.22,12.22,0,0,1-1.91,0,11.42,11.42,0,0,1-2.41-.65A12,12,0,0,1,99.73,32a12.14,12.14,0,0,1-3.62-3.52,11.62,11.62,0,0,1-1.86-4.73,14.66,14.66,0,0,1,0-4.58q.34-2.27.9-4.53a36.45,36.45,0,0,1,1.26-4.05,16.17,16.17,0,0,1,2-3.7,11.51,11.51,0,0,1,2.85-2.61,8.49,8.49,0,0,1,3.59-1.36c.37,0,.73-.06,1.09-.08a5,5,0,0,1,1.08.08,7.93,7.93,0,0,1,2.51.8,10.13,10.13,0,0,1,2.09,1.39A6.84,6.84,0,0,1,113.22,7c.26.21.53.42.78.66a10.42,10.42,0,0,1,.73.75A10.53,10.53,0,0,1,117.29,12.88Zm-3.87,5.23c.13-.84.22-1.67.27-2.51a17,17,0,0,0,0-2.57,8.72,8.72,0,0,0-.55-2.67c-.07-.16-.17-.38-.31-.65a.28.28,0,0,0-.1-.2l0,0a1.11,1.11,0,0,0-.07-.13s0-.05-.08-.12l-.15-.15,0-.05h0s0,0-.1,0,0-.05,0-.05a.11.11,0,0,1-.08,0s0,0-.07,0a1.72,1.72,0,0,0-.28-.08,2,2,0,0,1-.27-.08L111,8.63a3,3,0,0,0-.45,0,2.38,2.38,0,0,1-.91-.3.53.53,0,0,0-.25-.15.58.58,0,0,1-.25-.15,5.69,5.69,0,0,1-1.36-1.31A5.61,5.61,0,0,0,106.5,7c-.39.17-.76.36-1.13.56A12.27,12.27,0,0,0,102.6,10a14.4,14.4,0,0,0-2,3.37,10.73,10.73,0,0,0-.45,1.16c-.14.4-.27.81-.41,1.21q-.34,1.16-.6,2.31c-.17.77-.34,1.55-.5,2.32a22.11,22.11,0,0,0-.38,2.44,13.27,13.27,0,0,0,0,2.44c.07.47.14.91.21,1.33a4.92,4.92,0,0,0,.35,1.23,1.66,1.66,0,0,1,.15.33,1,1,0,0,0,.15.33l.15.3a0,0,0,0,0,0,0,1.45,1.45,0,0,0,.1.18,1.28,1.28,0,0,1,.1.17h0s0,.05,0,.05,0,0,0,.05.05,0,.05,0,.09,0,.15.1l.18.08.18.07.35.16.27.07a1.72,1.72,0,0,1,.28.08,9.1,9.1,0,0,0,2.06.15,9.72,9.72,0,0,0,4.23-1.31,13,13,0,0,0,2.77-2.42,10.09,10.09,0,0,0,1.1-1.56c.34-.57.64-1.14.91-1.71.3-.8.56-1.61.78-2.44A17.65,17.65,0,0,0,113.42,18.11Z"/><path class="cls-1" d="M146.73,2.31a3.79,3.79,0,0,1,.17.48.47.47,0,0,1-.12.48q-.56.81-1.11,1.56t-1.11,1.56a60.11,60.11,0,0,0-3.37,5.79c-1,2-1.94,4-2.82,6.08a1.11,1.11,0,0,1-.2.41l-.68,1.66c-.22.53-.43,1.09-.63,1.66-.4,1-.78,2-1.15,3l-1.11,3c-.17.51-.34,1-.53,1.51s-.38,1-.58,1.51a13.09,13.09,0,0,1-.55,1.46,1.32,1.32,0,0,0-.13.38,1.27,1.27,0,0,1-.12.38,1.7,1.7,0,0,1-.23.63.88.88,0,0,1-.48.37.11.11,0,0,1-.07,0s0,0-.08.05a1.4,1.4,0,0,1-.83-.05,6.8,6.8,0,0,1-.73-.3,9,9,0,0,1-1.25-.9,6.5,6.5,0,0,1-1.21-1.41c-.1-.17-.2-.36-.3-.56a.71.71,0,0,1-.05-.6,2.54,2.54,0,0,1,.2-1.06,2.74,2.74,0,0,0,.15-.4,1.63,1.63,0,0,1,.15-.4c.13-.3.25-.6.35-.88s.22-.58.35-.88q.41-1,.81-1.86l.8-1.82c.87-2,1.79-4,2.74-6s2-3.95,3.05-5.86c1.24-2.31,2.6-4.58,4.07-6.79l-1.88.2-1.89.2-1.71.1c-.57,0-1.14,0-1.71,0h-.15a4,4,0,0,1,.1.76,3.64,3.64,0,0,1,0,1c-.07.34-.14.69-.2,1.06s-.15.71-.23,1a6.65,6.65,0,0,1-.33,1,19.56,19.56,0,0,1-1.53,3.47,17.11,17.11,0,0,1-2.19,3.07,17.19,17.19,0,0,1-1.51,1.44,2.23,2.23,0,0,1-1.91.48,5.4,5.4,0,0,1-1.89-.79,8.77,8.77,0,0,1-1.58-1.33,7.53,7.53,0,0,1-.91-1.23,3.72,3.72,0,0,1-.5-1.38,5.2,5.2,0,0,1,0-2.22c.16-.74.31-1.46.48-2.16s.42-1.35.66-2,.5-1.37.8-2a13.94,13.94,0,0,1,1.79-3,6,6,0,0,1,2.79-2,.79.79,0,0,1,.6,0l.61.22a3.32,3.32,0,0,1,.37.23l.38.28a.53.53,0,0,0,.2.05.35.35,0,0,1,.2.05,4.77,4.77,0,0,1,1,.45,13.61,13.61,0,0,0,1.43,0,11.34,11.34,0,0,0,1.44-.12l-.35.05c1.87-.13,3.73-.32,5.56-.55s3.66-.54,5.51-.91a.88.88,0,0,1,.6,0,5.09,5.09,0,0,1,.6.25,2.77,2.77,0,0,1,.66.4c.2.17.38.34.55.51A4.68,4.68,0,0,1,146.73,2.31Zm-19,6c.16-.4.32-.81.45-1.23s.25-.83.35-1.23a6.55,6.55,0,0,0,.4-1.81.11.11,0,0,0-.1,0A6.48,6.48,0,0,0,127,5.86a18.05,18.05,0,0,0-1.31,2.34,37.39,37.39,0,0,0-1.2,3.62c-.07.34-.14.67-.2,1s-.14.65-.21,1v.05a4.44,4.44,0,0,0,.46-.51l.68-.78q.32-.37.63-.78A22.56,22.56,0,0,0,127.76,8.35Zm21.63,10.72a9,9,0,0,1,.76,2.39,15.88,15.88,0,0,1,.2,2.49,9.38,9.38,0,0,1-.15,2.11,14.22,14.22,0,0,1-.56,2.06,16.86,16.86,0,0,1-.83,2.07,9,9,0,0,1-1.18,1.86,9.7,9.7,0,0,1-1.41,1.66,4.76,4.76,0,0,1-.93.71,3.45,3.45,0,0,1-1.08.4,4,4,0,0,1-1.94-.18,7.23,7.23,0,0,1-1.73-.88,9.76,9.76,0,0,1-1.21-1,6,6,0,0,1-1-1.18c-.16-.27-.32-.55-.47-.83a3.32,3.32,0,0,1-.33-.93,6.9,6.9,0,0,1,0-2.22,21.15,21.15,0,0,1,.4-2.16,27.54,27.54,0,0,1,1.21-4.18,25.4,25.4,0,0,1,1.38-3,20.46,20.46,0,0,1,1.79-2.74.32.32,0,0,1,.15-.3,1,1,0,0,1,.25-.16l.55-.63a7.82,7.82,0,0,1,.61-.57.43.43,0,0,1,.45-.2l.5.1a2,2,0,0,1,.76.37c.23.19.47.36.7.53a6.52,6.52,0,0,1,.61.58,2.22,2.22,0,0,1,.45.73,2,2,0,0,1,.2.6,14,14,0,0,1,1,1.16A7.08,7.08,0,0,1,149.39,19.07Zm-4.27,6.54a15.18,15.18,0,0,0,.8-2.92,12.73,12.73,0,0,0,.15-3c0-.17,0-.31,0-.42S146,19,146,18.82c-.37.57-.71,1.14-1,1.71s-.61,1.14-.88,1.71A28.05,28.05,0,0,0,142.7,27c-.07.43-.13.85-.2,1.26a12.21,12.21,0,0,0-.15,1.25.2.2,0,0,0,0,.15,9.55,9.55,0,0,0,1.36-1.45,11.31,11.31,0,0,0,.8-1.24C144.7,26.52,144.91,26.08,145.12,25.61Z"/><path class="cls-1" d="M160,19.51v-.05a7,7,0,0,1,14-.06v.06a7,7,0,0,1-7,7A6.89,6.89,0,0,1,160,19.51Zm12,0v-.05a5.09,5.09,0,0,0-5-5.26,5,5,0,0,0-4.92,5.2v.06a5,5,0,0,0,5,5.22A5,5,0,0,0,172,19.51Z"/><path class="cls-1" d="M178.41,14.49h-1.85V12.75h1.85V11.58a4.75,4.75,0,0,1,1.17-3.46,3.94,3.94,0,0,1,2.89-1,6,6,0,0,1,2.21.34V9.16a6.67,6.67,0,0,0-2-.34c-1.56,0-2.34.94-2.34,2.86v1.09h4.26v1.72h-4.24V26.16h-2Z"/><path class="cls-1" d="M194.22,29.73l.67-1.59a4.19,4.19,0,0,0,2.11.49c1.2,0,1.95-.62,2.76-2.52l-6.11-13.39h2.21l4.88,11.21,4.32-11.21h2.13l-5.64,13.89c-1.14,2.78-2.44,3.79-4.47,3.79A6.12,6.12,0,0,1,194.22,29.73Z"/><path class="cls-1" d="M208.78,19.51v-.05a7,7,0,0,1,14-.06v.06a7,7,0,0,1-7,7A6.89,6.89,0,0,1,208.78,19.51Zm12,0v-.05a5.09,5.09,0,0,0-5-5.26,5,5,0,0,0-4.92,5.2v.06a5,5,0,0,0,5,5.22A5,5,0,0,0,220.74,19.51Z"/><path class="cls-1" d="M226.2,21.07V12.72h2v7.85c0,2.5,1.35,4.06,3.72,4.06a4,4,0,0,0,4-4.21v-7.7h2V26.16h-2V23.82a5.12,5.12,0,0,1-4.6,2.63C228.1,26.45,226.2,24.26,226.2,21.07Z"/><path class="cls-1" d="M242.42,12.72h2v3.51a5.76,5.76,0,0,1,5.49-3.74v2.15h-.16c-2.93,0-5.33,2.11-5.33,6.17v5.35h-2Z"/><path class="cls-1" d="M260,19.48v-.05c0-4.4,3.2-7,6.42-7a6.08,6.08,0,0,1,5.15,2.86V7.18h2v19h-2v-2.7a6,6,0,0,1-5.15,3C263.17,26.45,260,23.9,260,19.48Zm11.65,0V19.4a5,5,0,0,0-4.86-5.17c-2.6,0-4.74,1.92-4.74,5.17v.06c0,3.17,2.19,5.2,4.74,5.2A5,5,0,0,0,271.62,19.46Z"/><path class="cls-1" d="M277,22.26v-.05c0-2.88,2.34-4.39,5.75-4.39a14,14,0,0,1,4.1.57V18c0-2.39-1.45-3.64-4-3.64a9.41,9.41,0,0,0-4.09,1l-.59-1.63a10.94,10.94,0,0,1,4.88-1.15A6,6,0,0,1,287.43,14a5.32,5.32,0,0,1,1.4,3.95v8.21h-2v-2A5.87,5.87,0,0,1,282,26.45C279.5,26.45,277,25,277,22.26Zm9.88-1V20A14.08,14.08,0,0,0,283,19.4c-2.49,0-3.92,1.1-3.92,2.71v.05c0,1.69,1.56,2.68,3.38,2.68C284.88,24.84,286.88,23.35,286.88,21.22Z"/><path class="cls-1" d="M293.12,7.57h2.29V9.78h-2.29Zm.13,5.15h2V26.16h-2Z"/><path class="cls-1" d="M300.09,7.18h2v19h-2Z"/><path class="cls-1" d="M306,29.73l.68-1.59a4.19,4.19,0,0,0,2.11.49c1.19,0,1.95-.62,2.75-2.52l-6.11-13.39h2.21l4.89,11.21,4.32-11.21h2.13L313.3,26.61c-1.15,2.78-2.45,3.79-4.48,3.79A6.15,6.15,0,0,1,306,29.73Z"/></g></g></svg>