<svg xmlns="http://www.w3.org/2000/svg" viewBox="0 0 316.69 38.6"><defs><style>.cls-1{fill:#fff;}</style></defs><g id="Layer_2" data-name="Layer 2"><g id="Layer_1-2" data-name="Layer 1"><polygon class="cls-1" points="0 31.79 2.05 31.79 2.05 23.86 11.91 23.86 11.91 21.98 2.05 21.98 2.05 15.48 13.08 15.48 13.08 13.59 0 13.59 0 31.79"/><path class="cls-1" d="M16.72,31.79h2V26.43c0-4.06,2.39-6.16,5.33-6.16h.16V18.11a5.77,5.77,0,0,0-5.49,3.74V18.34h-2Z"/><path class="cls-1" d="M37.8,25.13a5,5,0,0,1-4.94,5.17,5,5,0,0,1-5-5.22v0a5,5,0,0,1,4.91-5.2,5.08,5.08,0,0,1,5,5.25Zm2.06-.05v0a7,7,0,0,0-14,0v.05a6.89,6.89,0,0,0,7,7,7,7,0,0,0,7-7"/><path class="cls-1" d="M43.47,31.79h2V24.12c0-2.47,1.62-4.24,3.75-4.24s3.46,1.48,3.46,4v7.91h2V24c0-2.65,1.69-4.16,3.72-4.16,2.18,0,3.48,1.45,3.48,4.05v7.86h2V23.47c0-3.33-1.9-5.41-5-5.41a5.34,5.34,0,0,0-4.73,2.68,4.56,4.56,0,0,0-4.31-2.68,4.92,4.92,0,0,0-4.35,2.55V18.34h-2Z"/><rect class="cls-1" x="76.05" y="13.2" width="2.29" height="2.21"/><path class="cls-1" d="M74.91,36c2,0,3.27-1.09,3.27-3.45V18.34h-2v14.2c0,1.25-.62,1.79-1.53,1.79a6.78,6.78,0,0,1-1-.07v1.63a4.7,4.7,0,0,0,1.25.13"/><path class="cls-1" d="M87.77,32.07a5.13,5.13,0,0,0,4.61-2.62v2.34h2V18.34h-2V26a4,4,0,0,1-4,4.21c-2.37,0-3.72-1.56-3.72-4.05V18.34h-2v8.35c0,3.2,1.89,5.38,5.14,5.38"/><path class="cls-1" d="M103.3,32.05c2.67,0,4.78-1.49,4.78-4V28c0-2.41-2.24-3.22-4.32-3.84-1.79-.55-3.45-1-3.45-2.32v-.05c0-1.12,1-1.95,2.6-1.95a7.52,7.52,0,0,1,4,1.3l.91-1.51A9.14,9.14,0,0,0,103,18.11c-2.65,0-4.58,1.53-4.58,3.85V22c0,2.47,2.34,3.2,4.45,3.8,1.77.49,3.35,1,3.35,2.36v0c0,1.3-1.17,2.14-2.78,2.14a7.84,7.84,0,0,1-4.65-1.72l-1,1.43a9.27,9.27,0,0,0,5.57,2"/><path class="cls-1" d="M116,32a5,5,0,0,0,2.41-.57V29.73a4.17,4.17,0,0,1-2,.47A2,2,0,0,1,114.24,28V20.11h4.27V18.34h-4.27V14.29h-2v4.05h-1.87v1.77h1.87v8.11c0,2.73,1.64,3.8,3.8,3.8"/><path class="cls-1" d="M144.73,22.36a25.46,25.46,0,0,1-6.16,9,18.93,18.93,0,0,1-2.47,1.91,8.71,8.71,0,0,1-3.41,1.21,6.61,6.61,0,0,1-1-.09h0c-.1-.23-.19-.42-.28-.61a6.8,6.8,0,0,1-.42-2,14.08,14.08,0,0,1,.09-2.43,2.39,2.39,0,0,0,.37.23c.28.14.8.38,1.12.24a.53.53,0,0,0,.28-.7,13.69,13.69,0,0,1-.18-1.5l0,.38c0-.61,0-1.26,0-1.87s.09-1.21.14-1.87a22.74,22.74,0,0,1,.37-2.47,7.91,7.91,0,0,1,2.57-3.64,1.8,1.8,0,0,1,.6-.28c.33-.09.38-.42.33-.7a3.1,3.1,0,0,0-.75-1.26l-.18-.19a16.12,16.12,0,0,1,2.61-3,15.8,15.8,0,0,1,1.73-1.35,8.43,8.43,0,0,1,3.68-1.17,5.53,5.53,0,0,1,1.5.09,1.93,1.93,0,0,1,.51.19.85.85,0,0,1,.19.19,6.14,6.14,0,0,1,.37.84,10.72,10.72,0,0,1,.47,2c.18,3-.89,6-2.06,8.82m6.72-5.74a10.71,10.71,0,0,0-1.21-4.43A12.24,12.24,0,0,0,146,7.52a11,11,0,0,0-2.89-1.35,6.88,6.88,0,0,0-2.9-.24c-2.89.19-5.41,2.1-7.28,4.25a18.5,18.5,0,0,0-3.82,7.05,16.73,16.73,0,0,0-.7,3.82,4.28,4.28,0,0,0,0,.8c-.42,1-.8,2.1-1.12,3.17a14.09,14.09,0,0,0-.66,4.62,9,9,0,0,0,.47,2.19,9.66,9.66,0,0,0,1.26,2.48,12.58,12.58,0,0,0,2.75,2.7,9.3,9.3,0,0,0,2.71,1.35,7.68,7.68,0,0,0,2.75.19,6.14,6.14,0,0,0,2-.51,14.88,14.88,0,0,0,3.73-2.33,24.33,24.33,0,0,0,5-6.3c.66-1.22,1.26-2.43,1.82-3.69a43.25,43.25,0,0,0,1.63-4.43,14.39,14.39,0,0,0,.61-4.67"/><path class="cls-1" d="M171.28,31.23a4.53,4.53,0,0,0-.93-1.17s0,0,0-.09a.76.76,0,0,0-.14-.24c0-.14-.09-.23-.14-.37a17.09,17.09,0,0,1-.6-2.29c-.24-1-.47-2.05-.7-3a10.77,10.77,0,0,0-1.08-3.45,5.11,5.11,0,0,0-3.08-2.15,2.88,2.88,0,0,0-1.4.14,10.52,10.52,0,0,0-2.24,1.49,22.56,22.56,0,0,0-1.86,1.68L158,23a4.1,4.1,0,0,1,.19-.66c.28-1.07.61-2.19.93-3.26.42-1.26.8-2.48,1.22-3.74.09-.32-.28-.88-.42-1.12a5.53,5.53,0,0,0-1-1,3,3,0,0,0-1.17-.66c-.23-.09-.79-.23-.93.05-.56,1.12-1.12,2.19-1.59,3.36s-1,2.43-1.44,3.69a18.43,18.43,0,0,0-1,3.54,22.69,22.69,0,0,0-.42,3.64c0,.7,0,1.4,0,2.1.05.42.05.89.14,1.36a2,2,0,0,0,0,.51,7.83,7.83,0,0,0,.37,1c.1.14.19.33.28.47a2.6,2.6,0,0,0,.7.74,4.16,4.16,0,0,0,1.36,1c.46.23,1.58.7,1.77-.09,0-.19,0-.33.09-.52,1.73-3.36,3.6-6.81,6.35-9.47a16,16,0,0,1,1.73-1.49c.14.65.28,1.35.42,2a17.82,17.82,0,0,0,1.21,4.2A7.33,7.33,0,0,0,169,31.37a4.3,4.3,0,0,0,1.4.88c.23,0,.74.19.93-.09a.85.85,0,0,0-.05-.93"/><path class="cls-1" d="M185.14,27.68a4.21,4.21,0,0,0-1.26-.75c-.28-.09-.65-.18-.89.05a9,9,0,0,1-2.05,1.73,7.3,7.3,0,0,1-2.89,1,8.47,8.47,0,0,1-1.12-.1,7.55,7.55,0,0,1-.28-1.4,14.69,14.69,0,0,1,.18-2.8,5.19,5.19,0,0,0,.89.52,4.19,4.19,0,0,0,3.08.32,6.94,6.94,0,0,0,2.24-1.4A11.18,11.18,0,0,0,184.67,23a9.21,9.21,0,0,0,1.22-2.1,5.48,5.48,0,0,0,.6-2.38,4.27,4.27,0,0,0-.37-1.68,6.72,6.72,0,0,0-1.68-2.1,6.24,6.24,0,0,0-3.92-1.54,5.78,5.78,0,0,0-2.66.7,8.27,8.27,0,0,0-2.05,1.73,14.91,14.91,0,0,0-2.48,4.76,15.15,15.15,0,0,0-.83,5,8.55,8.55,0,0,0,.42,2.43,8.26,8.26,0,0,0,2.38,3.45A7.92,7.92,0,0,0,179,33.19a6.21,6.21,0,0,0,2.43,0,7.67,7.67,0,0,0,2.28-.94,7,7,0,0,0,1.82-1.54,6.88,6.88,0,0,0,.61-1,.78.78,0,0,0-.05-.84A4.33,4.33,0,0,0,185.14,27.68Zm-7.28-5.88a9.85,9.85,0,0,1,3.36-4.43,4.48,4.48,0,0,1,1.31-.52,9.14,9.14,0,0,1-.47,1.59,9.45,9.45,0,0,1-3.5,4.25,3.39,3.39,0,0,1-1.21.46C177.54,22.69,177.68,22.27,177.86,21.8Z"/><path class="cls-1" d="M215.05,28.57a11.8,11.8,0,0,0-.09-1.78c-.14-1-.28-2.05-.52-3.08a19.54,19.54,0,0,0-.93-3.26,5.53,5.53,0,0,0-1.63-2.24,5.15,5.15,0,0,0-2.71-1.45,3.71,3.71,0,0,0-2.66,1.4,19.3,19.3,0,0,0-1.82,2,31.14,31.14,0,0,0-2.94,4.57c.05-.75.1-1.54.14-2.33a71.39,71.39,0,0,1,.66-7.19,17.42,17.42,0,0,1,1.07-3.83c.14-.28-.28-.93-.42-1.12a3.94,3.94,0,0,0-1.26-1.21,2.74,2.74,0,0,0-1.31-.56h-.32a.46.46,0,0,0-.33.38,27,27,0,0,0-1.12,4.24c-.33,1.45-.51,2.89-.7,4.29a49.84,49.84,0,0,0-.65,9.1,17.82,17.82,0,0,0,.23,2.76,5.12,5.12,0,0,0,.51,1.4,7.33,7.33,0,0,0,1.73,2,4.06,4.06,0,0,0,1.54.93c.28.1.79.24,1,0a16.55,16.55,0,0,0,1.53-2.76c.42-1,.89-2,1.36-2.89a23.14,23.14,0,0,1,3.31-5.32c.37-.42.75-.84,1.17-1.26a6.58,6.58,0,0,1,.6-.56,1.7,1.7,0,0,0,0,.23c.19.8.33,1.54.47,2.29s.18,1.54.32,2.33a22.31,22.31,0,0,0,.38,2.43,2.54,2.54,0,0,0,.65,1.07,5.42,5.42,0,0,0,1,.84c.37.24,1.35.7,1.54,0a4.88,4.88,0,0,0,.09-1.44"/><path class="cls-1" d="M235.86,30.25c-.09-.89-.19-1.78-.33-2.66s-.14-1.73-.28-2.62a4.5,4.5,0,0,0-1-2,5.16,5.16,0,0,0-2.85-1.77,4.2,4.2,0,0,0-2.42.89c-.56.37-1.12.79-1.64,1.21-1.07.84-2,1.82-3,2.71a21.44,21.44,0,0,1-3,2.47,17,17,0,0,1,.7-2,33.17,33.17,0,0,1,2.15-3.92,22.51,22.51,0,0,1,2.8-3.5,11.55,11.55,0,0,1,1.87-1.49,3.2,3.2,0,0,1,.7-.28,1.36,1.36,0,0,1,.14.23c.18.37.37.75.51,1.12a5.08,5.08,0,0,0,1.17,1.45,4.21,4.21,0,0,0,1.58.93c.28.09.84.28,1.07-.05s0-.74-.09-1.07a18.59,18.59,0,0,0-1.72-3.17,9.68,9.68,0,0,0-1.73-1.87,5.84,5.84,0,0,0-3-1.45,4.57,4.57,0,0,0-3.18,1.17,12.6,12.6,0,0,0-2.19,2,23.55,23.55,0,0,0-3.45,4.9,19.26,19.26,0,0,0-2.29,5.92,4.14,4.14,0,0,0,.05,2,7.18,7.18,0,0,0,2.75,3.36,3.9,3.9,0,0,0,3.31.75,4.75,4.75,0,0,0,1.4-.66c2.9-1.58,4.9-4.29,7.38-6.44.18-.18.42-.37.6-.56,0,.24,0,.42.1.61a14.89,14.89,0,0,0,.23,2.15L232.5,31a2.84,2.84,0,0,0,.75,1.16,4.35,4.35,0,0,0,1.12.94,2.65,2.65,0,0,0,1,.42c.24,0,.66,0,.61-.42-.05-.94-.05-1.87-.14-2.8"/><path class="cls-1" d="M256.44,31.23a4.53,4.53,0,0,0-.93-1.17s0,0,0-.09a1,1,0,0,0-.14-.24l-.14-.37a18.77,18.77,0,0,1-.61-2.29c-.23-1-.46-2.05-.7-3a11,11,0,0,0-1.07-3.45,5.14,5.14,0,0,0-3.08-2.15,2.87,2.87,0,0,0-1.4.14,10.28,10.28,0,0,0-2.24,1.49,24.44,24.44,0,0,0-1.87,1.68L243.14,23a3.28,3.28,0,0,1,.19-.66c.28-1.07.6-2.19.93-3.26.42-1.26.79-2.48,1.21-3.74.1-.32-.28-.88-.42-1.12a5.47,5.47,0,0,0-1-1,3,3,0,0,0-1.17-.66c-.23-.09-.79-.23-.93.05-.56,1.12-1.12,2.19-1.59,3.36s-1,2.43-1.45,3.69a19.18,19.18,0,0,0-1,3.54,25.22,25.22,0,0,0-.42,3.64c0,.7,0,1.4,0,2.1.05.42.05.89.14,1.36a2,2,0,0,0,0,.51,7.83,7.83,0,0,0,.37,1c.09.14.19.33.28.47a2.6,2.6,0,0,0,.7.74,4.12,4.12,0,0,0,1.35,1c.47.23,1.59.7,1.78-.09,0-.19,0-.33.09-.52,1.73-3.36,3.59-6.81,6.35-9.47a17,17,0,0,1,1.72-1.49c.14.65.28,1.35.42,2a17.84,17.84,0,0,0,1.22,4.2,7.3,7.3,0,0,0,2.14,2.76,4.4,4.4,0,0,0,1.4.88c.24,0,.75.19.94-.09a.85.85,0,0,0-.05-.93"/><path class="cls-1" d="M292,18.3a6.14,6.14,0,0,0-1-2.85,6,6,0,0,0-2.38-2,4.11,4.11,0,0,0-2.47-.37,4.91,4.91,0,0,0-2.62,1.35,8.07,8.07,0,0,0-1.77,2,14.81,14.81,0,0,0-2,5.74c0,.46-.14.93-.14,1.35a8,8,0,0,1-.65.65c-.23.28-.05.75.09,1a4.54,4.54,0,0,0,.56.84A21.29,21.29,0,0,0,280,28.8a11,11,0,0,0,1.92,3.92,7.76,7.76,0,0,0,3.45,2.66,2.14,2.14,0,0,0,2.1-.23c.23-.19,0-.75-.09-.94a4,4,0,0,0-.8-1,4.83,4.83,0,0,0-1.12-.8,3,3,0,0,0-.65-.28c-.05-.09-.05-.18-.09-.23a13.41,13.41,0,0,1-.7-3.36,17.52,17.52,0,0,1,0-2.71,8.37,8.37,0,0,1,.7-.46,11.74,11.74,0,0,1,2.76-1.17,13,13,0,0,1,1.49-.37c.47-.1.93-.24,1.4-.33.28-.05.33-.42.23-.65a2.3,2.3,0,0,0-.46-.89,3.61,3.61,0,0,0-2.2-1.4,9.25,9.25,0,0,0-2.52-.05,9,9,0,0,1,3.18-3.64l.09-.09a2.37,2.37,0,0,0,.65.93,3.89,3.89,0,0,0,1.26,1c.28.14.75.37,1.08.23s.28-.32.28-.65"/><path class="cls-1" d="M310,30.85c-.1-.14-.19-.23-.28-.37a.14.14,0,0,0-.05-.09,4.25,4.25,0,0,1-.33-.75,11.34,11.34,0,0,1-.65-3.08c-.19-2.15.09-4.29.05-6.44a3.12,3.12,0,0,0-1.5-2.24,3.6,3.6,0,0,0-1.16-.7c-.33-.05-.7-.19-1,.09a25.54,25.54,0,0,0-3.74,4.9,57.17,57.17,0,0,1-3.4,5.14,3.61,3.61,0,0,1-.38.42c.05-.38.1-.8.14-1.17a24.77,24.77,0,0,1,.84-4.76c.24-.84.52-1.63.84-2.47a22.16,22.16,0,0,1,1.68-3,1,1,0,0,0-.09-.93,4.08,4.08,0,0,0-1-1.31,4.31,4.31,0,0,0-1.44-.88c-.28-.1-.75-.24-1,0-3.08,3.92-4.25,9.06-4.44,14a8.57,8.57,0,0,0,.14,2.14A6.25,6.25,0,0,0,296,32.86c.84.56,2.19,1.21,3.22.7a7.43,7.43,0,0,0,1.49-1.26,27.69,27.69,0,0,0,3.74-5.69c.23-.42.46-.84.7-1.31a11.54,11.54,0,0,0,.74,2.75A11.84,11.84,0,0,0,307.72,31,4,4,0,0,0,309,32a2.42,2.42,0,0,0,.93.28c.84,0,.38-1,.1-1.4"/><path class="cls-1" d="M316.12,17.55c.14-1.07.33-2.19.56-3.31.09-.42-.28-1-.51-1.31a6.43,6.43,0,0,0-1.5-1.44,3.05,3.05,0,0,0-1.54-.66c-.32,0-.65.05-.74.47a49.86,49.86,0,0,0-1.08,16.61c.05.33.1.7.14,1.08a5.52,5.52,0,0,0,.47,1.44A4.65,4.65,0,0,0,313,32.3a7.29,7.29,0,0,0,1.78,1.4,2.84,2.84,0,0,0,1.07.33h.28c.28-.1.56-.28.51-.66a1.72,1.72,0,0,0-.46-1.12c-.05-.37-.14-.74-.19-1.07-.09-.56-.19-1.17-.23-1.73a56.35,56.35,0,0,1,.37-11.9"/><path class="cls-1" d="M269.12,19.56c-.06.32-.14.66-.24,1A11.54,11.54,0,0,1,268.5,22c-.16.49-.33,1-.49,1.43A18.24,18.24,0,0,1,266,27a21,21,0,0,1-1.33,1.63,7.34,7.34,0,0,1-1.57,1.32c-.19.1-.38.2-.57.28a5.83,5.83,0,0,1-.63.22l-.15-.75a15.55,15.55,0,0,1,.17-3.25,15.35,15.35,0,0,1,.89-3.2A1.22,1.22,0,0,0,263,23a1.47,1.47,0,0,1,.1-.22,2.61,2.61,0,0,0,.34-.32,2.06,2.06,0,0,1,.33-.33,7,7,0,0,1,.82-.73c.29-.21.58-.44.87-.67a15.44,15.44,0,0,1,1.69-1.2c.35-.2.71-.4,1.06-.58a5.29,5.29,0,0,1,1.11-.42,7.81,7.81,0,0,1-.15,1M278.3,2.29,278,1.75a3.62,3.62,0,0,0-.56-.63,5.22,5.22,0,0,0-.7-.54c-.13-.09-.28-.19-.47-.3A2.15,2.15,0,0,0,275.7,0a1.21,1.21,0,0,0-.53,0,.45.45,0,0,0-.33.37c-.63,2-1.16,4.07-1.62,6.11q-.57,2.58-1,5.2h0A25.11,25.11,0,0,1,270.62,15l-.32.5A2.49,2.49,0,0,0,270,16a7.21,7.21,0,0,0-1.76-.61,4.65,4.65,0,0,0-1.82,0,4.86,4.86,0,0,0-1.31.4,6.1,6.1,0,0,0-1.14.72,10.49,10.49,0,0,0-1.85,1.74c-.55.66-1.06,1.33-1.52,2A18.71,18.71,0,0,0,258.39,25a13.28,13.28,0,0,0-.64,2.4,6.18,6.18,0,0,0,.05,2.46,6,6,0,0,0,.93,2,9.39,9.39,0,0,0,1.52,1.68,8.64,8.64,0,0,0,1.29,1,5.46,5.46,0,0,0,1.44.65,6.18,6.18,0,0,0,2,.21,3.82,3.82,0,0,0,1.26-.45,5.23,5.23,0,0,0,1.09-.83,9.83,9.83,0,0,0,.8-.91,12.07,12.07,0,0,0,.7-1q1-1.65,1.92-3.36c0,.29.06.57.08.84a5.28,5.28,0,0,0,.19,1c.06.19.12.38.19.57l.18.56c.16.25.33.49.52.75s.36.48.51.7l.45.42.44.37a3.6,3.6,0,0,0,.52.26,5.37,5.37,0,0,0,.56.21.71.71,0,0,0,.6,0c.22-.09.29-.29.19-.6a.75.75,0,0,0,0-.29v.05a1.45,1.45,0,0,0-.05-.42.7.7,0,0,0,0-.16.47.47,0,0,1,0-.17V31.65l.19-10.39c.06-1,.12-2,.19-3s.17-2,.32-3,.32-2,.47-3,.34-1.93.56-2.9l.75-3.26c.25-1.07.54-2.15.84-3.25a.64.64,0,0,0-.09-.58"/></g></g></svg>