<?xml version="1.0" encoding="utf-8"?>
<!-- Generator: Adobe Illustrator 24.0.3, SVG Export Plug-In . SVG Version: 6.00 Build 0)  -->
<svg version="1.1" id="Layer_1" xmlns="http://www.w3.org/2000/svg" xmlns:xlink="http://www.w3.org/1999/xlink" x="0px" y="0px"
	 viewBox="0 0 728 90" style="enable-background:new 0 0 728 90;" xml:space="preserve">
<style type="text/css">
	.st0{fill:#DF0729;}
	.st1{fill:#FFFFFF;}
</style>
<title>cta</title>
<g>
	<g>
		<path class="st0" d="M490.4,16c0,0-10.4,0-10.4,10.4v2.8c0,0,0,10.4,10.4,10.4h89.4c0,0,10.4,0,10.4-10.4v-2.8
			c0,0,0-10.4-10.4-10.4H490.4L490.4,16z"/>
	</g>
	<g>
		<path class="st1" d="M494.7,29.5v2.4c0,0.5-0.4,0.9-1,0.9c-0.5,0-1-0.3-1-0.9v-6.6c0-0.5,0.3-0.9,0.9-0.9h3.5
			c0.4,0,0.9,0.3,0.9,0.9c0,0.5-0.3,0.9-0.9,0.9h-2.6v1.7h2.3c0.4,0,0.9,0.3,0.9,0.9s-0.3,0.9-0.9,0.9L494.7,29.5L494.7,29.5z"/>
		<path class="st1" d="M501.4,31.9c0,0.5-0.4,0.9-1,0.9s-1-0.3-1-0.9v-6.8c0-0.5,0.3-0.9,1-0.9c0.5,0,1,0.3,1,0.9V31.9z"/>
	</g>
	<g>
		<path class="st1" d="M509.2,31.9c0,0.5-0.3,0.9-0.9,0.9c-0.4,0-0.6-0.2-0.9-0.5l-2.5-4.3v4.1c0,0.4-0.3,0.9-0.9,0.9
			s-0.9-0.3-0.9-0.9v-6.8c0-0.5,0.4-0.9,1-0.9c0.4,0,0.8,0.2,1,0.5l2.4,4.2v-3.9c0-0.4,0.3-0.9,0.9-0.9s0.9,0.3,0.9,0.9L509.2,31.9
			L509.2,31.9z"/>
		<path class="st1" d="M514,24.4c1.9,0,3.1,1.1,3.1,2.9v2.6c0,1.8-1.2,2.9-3.1,2.9h-2.1c-0.5,0-0.9-0.3-0.9-0.9v-6.5
			c0-0.5,0.3-0.9,0.9-0.9L514,24.4L514,24.4z M512.8,26v5h1.2c0.9,0,1.3-0.4,1.3-1.3v-2.5c0-0.9-0.4-1.3-1.3-1.3L512.8,26L512.8,26z
			"/>
		<path class="st1" d="M527.1,29.9c0,0.9-0.3,1.6-0.9,2c-0.5,0.5-1.3,0.8-2.3,0.8s-1.6-0.2-2.1-0.8c-0.5-0.5-0.9-1.2-0.9-2v-3
			c0-1.8,1.1-2.9,3-2.9c0.9,0,1.6,0.2,2.3,0.8c0.5,0.5,0.9,1.2,0.9,2V29.9z M522.8,29.9c0,0.8,0.4,1.2,1.2,1.2s1.2-0.4,1.2-1.2V27
			c0-0.8-0.4-1.2-1.2-1.2s-1.2,0.4-1.2,1.2V29.9z"/>
		<path class="st1" d="M534.6,25.1v4.8c0,0.9-0.3,1.6-0.9,2c-0.5,0.5-1.3,0.8-2.1,0.8c-0.9,0-1.6-0.2-2.1-0.8
			c-0.5-0.5-0.9-1.2-0.9-2v-4.8c0-0.5,0.3-0.9,1-0.9c0.5,0,1,0.3,1,0.9v4.8c0,0.8,0.4,1.2,1.1,1.2c0.6,0,1.1-0.4,1.1-1.2v-4.8
			c0-0.3,0.1-0.5,0.2-0.6C533.5,23.9,534.6,24.4,534.6,25.1z"/>
	</g>
	<g>
		<path class="st1" d="M536.8,24.4h4.2c0.4,0,0.9,0.3,0.9,0.9c0,0.5-0.3,0.9-0.9,0.9h-1.2v5.9c0,0.5-0.4,0.9-1,0.9s-1-0.3-1-0.9
			v-5.9h-1.2c-0.2,0-0.4-0.1-0.5-0.2C535.7,25.2,536.2,24.3,536.8,24.4z"/>
		<path class="st1" d="M549.1,27.7l1.6-2.8c0.2-0.4,0.5-0.6,1-0.6s0.9,0.3,0.9,0.9v6.7c0,0.5-0.4,0.9-1,0.9s-0.9-0.3-0.9-0.9v-4
			l-0.9,1.6c-0.2,0.3-0.4,0.4-0.9,0.4c-0.3,0-0.6-0.1-0.9-0.4l-0.9-1.6v4c0,0.4-0.3,0.9-0.9,0.9s-0.9-0.3-0.9-0.9v-6.8
			c0-0.5,0.3-0.9,0.9-0.9c0.4,0,0.8,0.2,1,0.6L549.1,27.7z"/>
		<path class="st1" d="M560.3,29.9c0,0.9-0.3,1.6-0.9,2c-0.5,0.5-1.3,0.8-2.3,0.8c-0.9,0-1.6-0.2-2.1-0.8c-0.5-0.5-0.9-1.2-0.9-2v-3
			c0-1.8,1.1-2.9,3-2.9c0.9,0,1.6,0.2,2.3,0.8c0.5,0.5,0.9,1.2,0.9,2V29.9z M556.1,29.9c0,0.8,0.4,1.2,1.2,1.2s1.2-0.4,1.2-1.2V27
			c0-0.8-0.4-1.2-1.2-1.2s-1.2,0.4-1.2,1.2V29.9z"/>
		<path class="st1" d="M567.8,31.6c0,0.1,0,0.2,0,0.3c0,0.5-0.4,1-1,1c-0.4,0-0.6-0.2-0.9-0.6l-1.1-2.5h-1.1v2.1
			c0,0.5-0.4,0.9-1,0.9s-1-0.3-1-0.9v-6.6c0-0.5,0.3-0.9,0.9-0.9h2.1c0.9,0,1.5,0.2,2,0.8c0.5,0.5,0.9,1.2,0.9,1.9
			c0,1.1-0.4,1.8-1.3,2.4L567.8,31.6z M563.8,26v2.1h1.1c0.8,0,1.2-0.4,1.2-1.1s-0.4-1.1-1.2-1.1L563.8,26L563.8,26z"/>
		<path class="st1" d="M571.4,29.3v1.8h2.8c0.4,0,0.9,0.3,0.9,0.9c0,0.5-0.3,0.9-0.9,0.9h-3.6c-0.5,0-0.9-0.3-0.9-0.9v-6.5
			c0-0.5,0.3-0.9,0.9-0.9h3.5c0.4,0,0.9,0.3,0.9,0.9c0,0.5-0.3,0.9-0.9,0.9h-2.7v1.7h2.3c0.4,0,0.9,0.3,0.9,0.9
			c0,0.4-0.3,0.9-0.9,0.9L571.4,29.3L571.4,29.3z"/>
	</g>
</g>
</svg>
