<svg id="Layer_1" data-name="Layer 1" xmlns="http://www.w3.org/2000/svg" xmlns:xlink="http://www.w3.org/1999/xlink" viewBox="0 0 728 90"><defs><style>.cls-1{fill:none;}.cls-2{clip-path:url(#clip-path);}.cls-3{fill:#fff;}</style><clipPath id="clip-path"><rect class="cls-1" width="728" height="90"/></clipPath></defs><title>headline</title><g class="cls-2"><g id="headline"><path class="cls-3" d="M24.4,77.69a2.07,2.07,0,0,1-2.21,2.16A2,2,0,0,1,20,77.69V61.76a2,2,0,0,1,2.19-2.15,2.05,2.05,0,0,1,2.21,2.15Z"/><path class="cls-3" d="M42.58,77.69a2,2,0,0,1-2.13,2.16,2.25,2.25,0,0,1-2.09-1.25L32.59,68.32v9.59a2,2,0,0,1-4,0V61.76a2.07,2.07,0,0,1,2.21-2.15A2.44,2.44,0,0,1,33.05,61l5.52,9.84V61.55a1.87,1.87,0,0,1,2-1.94,1.92,1.92,0,0,1,2,1.94Z"/><path class="cls-3" d="M47,59.76H57a1.9,1.9,0,0,1,1.94,2A1.82,1.82,0,0,1,57,63.7H54.2v14A2.07,2.07,0,0,1,52,79.85a2,2,0,0,1-2.18-2.16v-14H47a1.88,1.88,0,0,1-1.4-.54C44.43,62,45.28,59.58,47,59.76Z"/><path class="cls-3" d="M65.79,71.53v4.22h6.56a2,2,0,0,1,0,4H63.54a2,2,0,0,1-2.15-2.16V61.91a2,2,0,0,1,2.15-2.15H72A1.85,1.85,0,0,1,74,61.7a1.9,1.9,0,0,1-1.94,2H65.79v4h5.37a1.85,1.85,0,0,1,1.91,2,1.8,1.8,0,0,1-1.91,1.91Z"/><path class="cls-3" d="M91.13,76.94a1.67,1.67,0,0,1,.12.69A2.28,2.28,0,0,1,89,79.85a2.17,2.17,0,0,1-2.06-1.43l-2.49-5.79H81.84v5.06a2.07,2.07,0,0,1-2.21,2.16,2,2,0,0,1-2.19-2.16V61.91a2,2,0,0,1,2.16-2.15h5.22a7.12,7.12,0,0,1,4.94,1.73,5.86,5.86,0,0,1,1.95,4.58,6,6,0,0,1-2.95,5.52ZM81.84,63.61v5.16h2.49c1.79,0,2.88-1,2.88-2.61s-1.09-2.55-2.88-2.55Z"/><path class="cls-3" d="M99.47,71.53v4.22H106a2,2,0,0,1,0,4h-8.8a2,2,0,0,1-2.16-2.16V61.91a2,2,0,0,1,2.16-2.15h8.49a1.85,1.85,0,0,1,2,1.94,1.9,1.9,0,0,1-2,2H99.47v4h5.37a1.85,1.85,0,0,1,1.92,2,1.8,1.8,0,0,1-1.92,1.91Z"/><path class="cls-3" d="M119.53,64.83a2.56,2.56,0,0,0-2.46-1.73c-1.42,0-2.3.76-2.3,1.88,0,.91.57,1.55,1.73,1.94l2.61.91a9.78,9.78,0,0,1,3.49,1.88,5.05,5.05,0,0,1,1.6,4.07,5.74,5.74,0,0,1-1.91,4.49,7.42,7.42,0,0,1-5.1,1.73c-3.52,0-6-1.55-7-4.19a2.22,2.22,0,0,1,.28-1.94,1.94,1.94,0,0,1,1.76-.91,2.08,2.08,0,0,1,2.06,1.67,2.59,2.59,0,0,0,2.76,1.73c1.82,0,2.83-.85,2.83-2.1a2.15,2.15,0,0,0-1.67-2.15L115.1,71c-3.13-1.13-4.61-2.89-4.61-5.71a5.51,5.51,0,0,1,1.79-4.13,6.7,6.7,0,0,1,4.79-1.69c3.25,0,5.65,1.48,6.5,3.94a2.06,2.06,0,0,1-2,2.82A2.09,2.09,0,0,1,119.53,64.83Z"/><path class="cls-3" d="M127.63,59.76h10a1.9,1.9,0,0,1,1.94,2,1.82,1.82,0,0,1-1.94,1.94h-2.76v14a2.08,2.08,0,0,1-2.22,2.16,2,2,0,0,1-2.19-2.16v-14h-2.79a1.88,1.88,0,0,1-1.39-.54C125.05,62,125.9,59.58,127.63,59.76Z"/><path class="cls-3" d="M151.51,72.08v5.61a2.07,2.07,0,0,1-2.21,2.16,2,2,0,0,1-2.19-2.16V61.91a2,2,0,0,1,2.16-2.15h8.49a1.9,1.9,0,0,1,2,2,1.85,1.85,0,0,1-2,1.94h-6.25v4.43h5.34a1.9,1.9,0,0,1,2,2,1.85,1.85,0,0,1-2,1.94Z"/><path class="cls-3" d="M176.34,76.94a1.67,1.67,0,0,1,.12.69,2.28,2.28,0,0,1-2.28,2.22,2.16,2.16,0,0,1-2.06-1.43l-2.49-5.79h-2.58v5.06a2.07,2.07,0,0,1-2.22,2.16,2,2,0,0,1-2.18-2.16V61.91a2,2,0,0,1,2.15-2.15H170A7.13,7.13,0,0,1,175,61.49a5.85,5.85,0,0,1,1.94,4.58A5.94,5.94,0,0,1,174,71.59Zm-9.29-13.33v5.16h2.49c1.79,0,2.88-1,2.88-2.61s-1.09-2.55-2.88-2.55Z"/><path class="cls-3" d="M184.68,71.53v4.22h6.55a2,2,0,0,1,0,4h-8.8a2,2,0,0,1-2.15-2.16V61.91a2,2,0,0,1,2.15-2.15h8.5a1.85,1.85,0,0,1,1.94,1.94,1.9,1.9,0,0,1-1.94,2h-6.25v4h5.37a1.85,1.85,0,0,1,1.91,2,1.8,1.8,0,0,1-1.91,1.91Z"/><path class="cls-3" d="M200.73,71.53v4.22h6.56a2,2,0,0,1,0,4h-8.8a2,2,0,0,1-2.16-2.16V61.91a2,2,0,0,1,2.16-2.15H207a1.85,1.85,0,0,1,2,1.94,1.9,1.9,0,0,1-2,2h-6.25v4h5.37a1.85,1.85,0,0,1,1.92,2,1.8,1.8,0,0,1-1.92,1.91Z"/><path class="cls-3" d="M22.75,25.87h5.9a2.59,2.59,0,0,1,2.75,2.75V49H34c3.45-.22,3.45,5.81,0,5.54H22.62a2.77,2.77,0,0,1,0-5.54h2.45V31.51H22.75a2.54,2.54,0,0,1-2-.79C19.13,29.15,20.26,25.61,22.75,25.87Z"/><path class="cls-3" d="M59.35,45.7a8.79,8.79,0,0,1-2.67,6.77A9.84,9.84,0,0,1,49.61,55a9.72,9.72,0,0,1-7-2.53,8.82,8.82,0,0,1-2.71-6.77v-11c0-5.81,3.45-9.3,9.74-9.3a10,10,0,0,1,7.07,2.48,9,9,0,0,1,2.67,6.82ZM46.2,45.57c0,2.31,1.27,3.75,3.41,3.75S53,47.88,53,45.57V34.87c0-2.32-1.26-3.76-3.4-3.76s-3.41,1.44-3.41,3.76Z"/><path class="cls-3" d="M83.45,45.7a8.79,8.79,0,0,1-2.66,6.77A9.85,9.85,0,0,1,73.71,55a9.74,9.74,0,0,1-7-2.53A8.82,8.82,0,0,1,64,45.7v-11c0-5.81,3.45-9.3,9.74-9.3a10,10,0,0,1,7.08,2.48,9,9,0,0,1,2.66,6.82Zm-13.14-.13c0,2.31,1.26,3.75,3.4,3.75s3.41-1.44,3.41-3.75V34.87c0-2.32-1.27-3.76-3.41-3.76s-3.4,1.44-3.4,3.76Z"/><path class="cls-3" d="M107.56,45.7a8.79,8.79,0,0,1-2.67,6.77A9.84,9.84,0,0,1,97.82,55a9.72,9.72,0,0,1-7-2.53,8.82,8.82,0,0,1-2.71-6.77v-11c0-5.81,3.45-9.3,9.74-9.3a10,10,0,0,1,7.07,2.48,9,9,0,0,1,2.67,6.82Zm-13.15-.13c0,2.31,1.27,3.75,3.41,3.75s3.4-1.44,3.4-3.75V34.87c0-2.32-1.26-3.76-3.4-3.76s-3.41,1.44-3.41,3.76Z"/><path class="cls-3" d="M131.44,25.87c6.68,0,10.61,3.8,10.61,10v8.78c0,6.15-3.93,10-10.61,10h-7.16a2.91,2.91,0,0,1-3.1-3.1V29a2.91,2.91,0,0,1,3.1-3.1Zm-3.93,5.68V48.89h3.93c2.75,0,4.28-1.62,4.28-4.41V36c0-2.79-1.53-4.41-4.28-4.41Z"/><path class="cls-3" d="M166.86,50.46a3.72,3.72,0,0,1,.17,1.09,3,3,0,0,1-2.93,3.23A3.05,3.05,0,0,1,161,52.34l-.87-3.06h-8.74l-.83,3.1a3.11,3.11,0,0,1-3.1,2.4c-1.74,0-2.71-1.26-2.71-3a2.66,2.66,0,0,1,.18-1l6.81-21.88a4.37,4.37,0,0,1,8.47,0Zm-11.14-16.9L152.84,44h5.81Z"/><path class="cls-3" d="M180.57,43v8.73a3,3,0,0,1-3.19,3.1,3,3,0,0,1-3.15-3.1V43l-6.72-13a2.59,2.59,0,0,1-.31-1.27,3,3,0,0,1,3-3.06,2.74,2.74,0,0,1,2.66,1.66l4.67,9.61,4.68-9.74a2.6,2.6,0,0,1,2.57-1.53,2.91,2.91,0,0,1,2.89,2.89,2.2,2.2,0,0,1-.31,1.22Z"/><path class="cls-3" d="M203.27,33.17a3.69,3.69,0,0,0-3.53-2.49c-2.06,0-3.32,1.09-3.32,2.7,0,1.31.83,2.23,2.49,2.8l3.75,1.31a13.62,13.62,0,0,1,5,2.71A7.23,7.23,0,0,1,210,46.05a8.3,8.3,0,0,1-2.75,6.46A10.69,10.69,0,0,1,199.91,55c-5.06,0-8.69-2.23-10-6a3.18,3.18,0,0,1,.39-2.79,2.82,2.82,0,0,1,2.53-1.31,3,3,0,0,1,3,2.4c.57,1.66,1.88,2.49,4,2.49,2.62,0,4.06-1.22,4.06-3a3.09,3.09,0,0,0-2.4-3.1L196.9,42c-4.5-1.62-6.64-4.15-6.64-8.21a7.93,7.93,0,0,1,2.58-5.94,9.61,9.61,0,0,1,6.9-2.44c4.67,0,8.12,2.14,9.34,5.67a3,3,0,0,1-2.88,4.06A3,3,0,0,1,203.27,33.17Z"/><path class="cls-3" d="M26.35,17.56A2.85,2.85,0,0,1,23.2,20.3a3.17,3.17,0,0,1-2.31-.85A3,3,0,0,1,20,17.17V13.34a3,3,0,0,1,3.2-3.13,2.87,2.87,0,0,1,3.15,2.7.52.52,0,0,1-.55.58.47.47,0,0,1-.54-.45,1.86,1.86,0,0,0-2.06-1.8,2,2,0,0,0-2.07,2.07V17.2a2,2,0,0,0,2.07,2.07,1.86,1.86,0,0,0,2.06-1.85.47.47,0,0,1,.54-.49A.56.56,0,0,1,26.35,17.56Z"/><path class="cls-3" d="M33,17.47a2.64,2.64,0,0,1-2.79,2.83,2.63,2.63,0,0,1-2.77-2.83V15.55a2.63,2.63,0,0,1,2.77-2.83A2.64,2.64,0,0,1,33,15.55Zm-4.47.09a1.69,1.69,0,1,0,3.37,0V15.47a1.69,1.69,0,1,0-3.37,0Z"/><path class="cls-3" d="M35.27,13.71a2.19,2.19,0,0,1,1.95-1A2.17,2.17,0,0,1,39.41,14a2.18,2.18,0,0,1,2.13-1.31A2.37,2.37,0,0,1,44,15.38v4.31a.56.56,0,0,1-1.11,0V15.37a1.53,1.53,0,0,0-1.56-1.69,1.64,1.64,0,0,0-1.67,1.72v4.29c.07.7-1.15.7-1.09,0V15.37A1.53,1.53,0,0,0,37,13.68a1.64,1.64,0,0,0-1.67,1.75v4.26c.07.7-1.15.7-1.09,0V13.28c0-.33.15-.49.46-.49a.42.42,0,0,1,.45.39Z"/><path class="cls-3" d="M50.66,18.24A2.4,2.4,0,0,1,48,20.3a2.58,2.58,0,0,1-2.78-2.71v-2A2.63,2.63,0,0,1,48,12.72a2.6,2.6,0,0,1,2.69,2.83v.56a.5.5,0,0,1-.53.54H46.31v1A1.62,1.62,0,0,0,48,19.41a1.56,1.56,0,0,0,1.7-1.36.42.42,0,0,1,.46-.4A.48.48,0,0,1,50.66,18.24ZM46.31,15.8h3.36v-.36a1.69,1.69,0,1,0-3.36,0Z"/><path class="cls-3" d="M54.54,19.69V10.53c-.06-.71,1.17-.71,1.09,0v3.06a2.29,2.29,0,0,1,1.91-.87A2.38,2.38,0,0,1,60,15.38v4.31c.06.7-1.16.7-1.09,0V15.37a1.55,1.55,0,0,0-1.61-1.69,1.68,1.68,0,0,0-1.71,1.81v4.2a.55.55,0,0,1-1.09,0Z"/><path class="cls-3" d="M66.85,17.47a2.78,2.78,0,1,1-5.56,0V15.55a2.78,2.78,0,1,1,5.56,0Zm-4.47.09a1.69,1.69,0,1,0,3.37,0V15.47a1.69,1.69,0,1,0-3.37,0Z"/><path class="cls-3" d="M69.16,13.71A2.45,2.45,0,0,1,73.3,14a2.18,2.18,0,0,1,2.13-1.31,2.37,2.37,0,0,1,2.47,2.66v4.31a.55.55,0,0,1-1.1,0V15.37a1.53,1.53,0,0,0-1.56-1.69,1.64,1.64,0,0,0-1.67,1.72v4.29c.07.7-1.15.7-1.09,0V15.37a1.53,1.53,0,0,0-1.57-1.69,1.64,1.64,0,0,0-1.66,1.75v4.26c.07.7-1.15.7-1.09,0V13.28c0-.33.15-.49.46-.49a.42.42,0,0,1,.45.39Z"/><path class="cls-3" d="M84.55,18.24a2.41,2.41,0,0,1-2.66,2.06,2.57,2.57,0,0,1-2.77-2.71v-2a2.74,2.74,0,1,1,5.47,0v.56a.5.5,0,0,1-.54.54H80.19v1a1.63,1.63,0,0,0,1.72,1.72,1.56,1.56,0,0,0,1.7-1.36.42.42,0,0,1,.46-.4A.48.48,0,0,1,84.55,18.24ZM80.19,15.8h3.37v-.36a1.69,1.69,0,1,0-3.37,0Z"/><path class="cls-3" d="M87.81,12.91h1.08V11.39a.56.56,0,0,1,1.11,0v1.52h1.08c.59-.08.59,1,0,.92H90v5.86a.56.56,0,0,1-1.11,0V13.83H87.81a.42.42,0,0,1-.32-.12A.48.48,0,0,1,87.81,12.91Z"/><path class="cls-3" d="M97.52,17.47a2.78,2.78,0,1,1-5.56,0V15.55a2.78,2.78,0,1,1,5.56,0Zm-4.47.09a1.69,1.69,0,1,0,3.37,0V15.47a1.69,1.69,0,1,0-3.37,0Z"/><path class="cls-3" d="M106.64,18.14a2.49,2.49,0,0,1-2.7,2.16,2.64,2.64,0,0,1-2.79-2.83V15.55a2.64,2.64,0,0,1,2.79-2.83,2.45,2.45,0,0,1,2.67,2.08.5.5,0,0,1-.5.61.44.44,0,0,1-.5-.41,1.54,1.54,0,0,0-1.67-1.33,1.63,1.63,0,0,0-1.7,1.8v2.09a1.63,1.63,0,0,0,1.7,1.8A1.52,1.52,0,0,0,105.62,18a.48.48,0,0,1,.51-.44A.53.53,0,0,1,106.64,18.14Z"/><path class="cls-3" d="M113.18,17.47a2.78,2.78,0,1,1-5.56,0V15.55a2.78,2.78,0,1,1,5.56,0Zm-4.47.09a1.68,1.68,0,1,0,3.36,0V15.47a1.68,1.68,0,1,0-3.36,0Z"/><path class="cls-3" d="M115.48,13.71a2.21,2.21,0,0,1,2-1A2.17,2.17,0,0,1,119.63,14a2.17,2.17,0,0,1,2.13-1.31,2.37,2.37,0,0,1,2.47,2.66v4.31a.55.55,0,0,1-1.1,0V15.37a1.53,1.53,0,0,0-1.57-1.69,1.64,1.64,0,0,0-1.67,1.72v4.29c.08.7-1.14.7-1.08,0V15.37a1.53,1.53,0,0,0-1.57-1.69,1.64,1.64,0,0,0-1.67,1.75v4.26c.08.7-1.14.7-1.08,0V13.28c0-.33.14-.49.46-.49a.41.41,0,0,1,.44.39Z"/><path class="cls-3" d="M125.39,12.91h.8v-.36a2.22,2.22,0,0,1,2.43-2.49h.27a.45.45,0,0,1,.46.48.4.4,0,0,1-.46.46h-.28c-.88,0-1.31.49-1.31,1.48v.43h1.5a.46.46,0,0,1,0,.92h-1.5v5.86a.56.56,0,0,1-1.11,0V13.83h-.8a.36.36,0,0,1-.31-.13A.47.47,0,0,1,125.39,12.91Z"/><path class="cls-3" d="M135.21,17.47a2.78,2.78,0,1,1-5.56,0V15.55a2.78,2.78,0,1,1,5.56,0Zm-4.47.09a1.68,1.68,0,1,0,3.36,0V15.47a1.68,1.68,0,1,0-3.36,0Z"/><path class="cls-3" d="M137.53,13.79a2,2,0,0,1,1.86-1c.66-.06.66,1.07.05,1a1.73,1.73,0,0,0-1.84,1.82v4.13c.08.7-1.14.7-1.08,0V13.28c0-.33.14-.49.46-.49a.41.41,0,0,1,.44.39Z"/><path class="cls-3" d="M140.25,12.91h1.09V11.39a.55.55,0,0,1,1.1,0v1.52h1.09c.58-.08.58,1,0,.92h-1.09v5.86a.55.55,0,0,1-1.1,0V13.83h-1.09a.41.41,0,0,1-.31-.12A.47.47,0,0,1,140.25,12.91Z"/></g></g></svg>