<?xml version="1.0" encoding="utf-8"?>
<!-- Generator: Adobe Illustrator 24.0.3, SVG Export Plug-In . SVG Version: 6.00 Build 0)  -->
<svg version="1.1" id="Layer_1" xmlns="http://www.w3.org/2000/svg" xmlns:xlink="http://www.w3.org/1999/xlink" x="0px" y="0px"
	 viewBox="0 0 728 90" style="enable-background:new 0 0 728 90;" xml:space="preserve">
<title>tc</title>
<g>
	<g>
		<g id="tc">
			<path d="M485.7,67.1v4h2v0.5h-2.5v-4.5H485.7z"/>
			<path d="M488.6,67.7c-0.2,0-0.3-0.1-0.3-0.3s0.1-0.3,0.3-0.3s0.3,0.1,0.3,0.3l0,0C488.9,67.5,488.7,67.7,488.6,67.7z M488.3,68.3
				h0.5v3.4h-0.5V68.3z"/>
			<path d="M490.3,71.7h-0.5v-3.4h0.4l0.1,0.4c0.2-0.3,0.6-0.5,0.9-0.5c0.4,0,0.8,0.2,1,0.6c0.2-0.4,0.6-0.6,1-0.6
				c0.6,0,1.1,0.4,1.2,1c0,0.1,0,0.1,0,0.2v2.2h-0.5v-2.2c0-0.4-0.2-0.7-0.6-0.8c0,0-0.1,0-0.1,0c-0.4,0-0.8,0.3-0.8,0.8
				c0,0,0,0,0,0v2.2h-0.5v-2.2c0-0.4-0.2-0.7-0.6-0.8c0,0-0.1,0-0.1,0c-0.4,0-0.8,0.3-0.8,0.8c0,0,0,0,0,0.1L490.3,71.7z"/>
			<path d="M495.5,67.7c-0.2,0-0.3-0.1-0.3-0.3s0.1-0.3,0.3-0.3s0.3,0.1,0.3,0.3l0,0C495.8,67.5,495.7,67.7,495.5,67.7z M495.3,68.3
				h0.5v3.4h-0.5V68.3z"/>
			<path d="M496.4,68.7v-0.4h0.6v-0.9h0.5v0.9h0.6v0.4h-0.6v2.9h-0.5v-2.9H496.4z"/>
			<path d="M500.8,70.5h0.5l0,0c0,0.6-0.5,1.2-1.2,1.2c0,0-0.1,0-0.1,0c-0.6,0.1-1.2-0.4-1.3-1c0-0.1,0-0.1,0-0.2v-0.9
				c0-0.7,0.6-1.3,1.3-1.3c0.7,0,1.3,0.6,1.3,1.3c0,0,0,0,0,0V70h-2v0.5c0,0.4,0.3,0.8,0.7,0.8c0,0,0.1,0,0.1,0
				c0.4,0.1,0.7-0.2,0.8-0.6C500.8,70.7,500.8,70.6,500.8,70.5L500.8,70.5z M499.3,69.6h1.6v-0.2c0.1-0.4-0.3-0.8-0.7-0.9
				c-0.4-0.1-0.8,0.3-0.9,0.7c0,0.1,0,0.1,0,0.2V69.6z"/>
			<path d="M504.2,71.7l-0.1-0.4c-0.2,0.3-0.6,0.5-0.9,0.5c-0.6,0-1.2-0.5-1.2-1.2c0,0,0-0.1,0-0.1v-1c0-0.6,0.4-1.2,1.1-1.2
				c0,0,0.1,0,0.1,0c0.3,0,0.7,0.1,0.9,0.4V67h0.5v4.6L504.2,71.7z M504.1,70.5v-1c0-0.4-0.3-0.8-0.7-0.8c0,0,0,0-0.1,0
				c-0.4,0-0.7,0.3-0.8,0.7c0,0,0,0.1,0,0.1v1.1c0,0.4,0.2,0.7,0.6,0.8c0,0,0.1,0,0.1,0C503.7,71.3,504.1,71,504.1,70.5
				C504.1,70.6,504.1,70.5,504.1,70.5L504.1,70.5z"/>
			<path d="M506.6,68.7v-0.4h0.6v-0.9h0.5v0.9h0.6v0.4h-0.6v2.9h-0.5v-2.9H506.6z"/>
			<path d="M509.4,67.7c-0.2,0-0.3-0.1-0.3-0.3s0.1-0.3,0.3-0.3s0.3,0.1,0.3,0.3l0,0C509.7,67.5,509.5,67.7,509.4,67.7z M509.1,68.3
				h0.5v3.4h-0.5V68.3z"/>
			<path d="M511.1,71.7h-0.5v-3.4h0.4l0.1,0.4c0.4-0.5,1.1-0.6,1.6-0.2c0.1,0.1,0.2,0.2,0.3,0.3c0.2-0.4,0.6-0.6,1-0.6
				c0.6,0,1.2,0.5,1.2,1.2c0,0,0,0,0,0.1v2.2h-0.5v-2.2c0-0.4-0.2-0.7-0.6-0.8c0,0-0.1,0-0.1,0c-0.4,0-0.8,0.3-0.8,0.8c0,0,0,0,0,0
				v2.2h-0.5v-2.2c0-0.4-0.2-0.7-0.6-0.8c0,0-0.1,0-0.1,0c-0.4,0-0.8,0.3-0.8,0.8c0,0,0,0,0,0.1L511.1,71.7z"/>
			<path d="M518,70.5h0.5l0,0c0,0.6-0.5,1.2-1.2,1.2c0,0-0.1,0-0.1,0c-0.6,0.1-1.2-0.4-1.3-1c0-0.1,0-0.2,0-0.2v-0.9
				c-0.1-0.7,0.4-1.3,1.1-1.3c0.1,0,0.1,0,0.2,0c0.6-0.1,1.2,0.4,1.2,1.1c0,0.1,0,0.2,0,0.2V70h-2v0.5c0,0.4,0.3,0.8,0.7,0.8
				c0,0,0.1,0,0.1,0c0.4,0,0.7-0.2,0.8-0.6C518,70.7,518,70.6,518,70.5L518,70.5z M516.4,69.6h1.6v-0.2c0-0.4-0.3-0.8-0.8-0.8
				c-0.4,0-0.8,0.3-0.8,0.8V69.6z"/>
			<path d="M523.2,70.4c0,0.7-0.6,1.3-1.3,1.3c-0.7,0-1.3-0.6-1.3-1.3c0,0,0,0,0,0v-0.9c0-0.7,0.6-1.3,1.3-1.3
				c0.7,0,1.3,0.6,1.3,1.3c0,0,0,0,0,0V70.4z M521.2,70.4c0,0.4,0.3,0.8,0.8,0.8c0.4,0,0.8-0.3,0.8-0.8l0,0v-1
				c0-0.4-0.3-0.8-0.8-0.8c-0.4,0-0.8,0.3-0.8,0.8V70.4z"/>
			<path d="M523.8,68.7v-0.4h0.5v-0.2c-0.1-0.6,0.3-1.1,0.9-1.2c0.1,0,0.2,0,0.3,0h0.3v0.4h-0.3c-0.4,0-0.6,0.2-0.6,0.7v0.2h0.9v0.4
				h-0.9v2.9h-0.5v-2.9H523.8z"/>
			<path d="M526,68.7v-0.4h0.5v-0.2c-0.1-0.6,0.3-1.1,0.9-1.2c0.1,0,0.2,0,0.3,0h0.3v0.4h-0.3c-0.4,0-0.6,0.2-0.6,0.7v0.2h0.8v0.4
				h-0.9v2.9h-0.5v-2.9H526z"/>
			<path d="M530.5,70.5h0.5l0,0c0,0.6-0.5,1.2-1.2,1.2c0,0-0.1,0-0.1,0c-0.6,0.1-1.2-0.4-1.3-1c0-0.1,0-0.1,0-0.2v-0.9
				c0-0.7,0.6-1.3,1.3-1.3c0.7,0,1.3,0.6,1.3,1.3c0,0,0,0,0,0V70h-2v0.5c0,0.4,0.3,0.8,0.7,0.8c0,0,0.1,0,0.1,0
				c0.4,0.1,0.7-0.2,0.8-0.6C530.5,70.7,530.5,70.6,530.5,70.5L530.5,70.5z M528.9,69.6h1.6v-0.2c0-0.4-0.3-0.8-0.8-0.8
				c-0.4,0-0.8,0.3-0.8,0.8V69.6z"/>
			<path d="M532.3,71.7h-0.5v-3.4h0.4l0.1,0.4c0.2-0.3,0.5-0.5,0.9-0.5h0.2v0.5c-0.1,0-0.1,0-0.2,0c-0.4,0-0.8,0.3-0.8,0.7
				c0,0,0,0.1,0,0.1L532.3,71.7z"/>
			<path d="M534.4,71.4c0,0.2-0.2,0.3-0.3,0.3c-0.2,0-0.3-0.1-0.3-0.3c0,0,0,0,0,0c0-0.2,0.2-0.3,0.4-0.3
				C534.2,71,534.4,71.2,534.4,71.4z"/>
			<path d="M539.1,70.2h0.5v0.2c0,0.4-0.1,0.7-0.4,1c-0.3,0.3-0.7,0.4-1.1,0.4c-0.4,0-0.8-0.1-1.1-0.4c-0.3-0.3-0.4-0.7-0.4-1.1
				v-1.8c0-0.4,0.1-0.8,0.4-1.1c0.3-0.3,0.7-0.4,1.1-0.4c0.4,0,0.8,0.1,1.1,0.4c0.3,0.3,0.4,0.6,0.4,1v0.1h-0.5v-0.1
				c0-0.5-0.4-0.9-0.8-0.9c0,0-0.1,0-0.1,0c-0.5,0-0.9,0.3-1,0.8c0,0,0,0,0,0.1v1.8c0,0.5,0.3,0.9,0.8,1c0,0,0.1,0,0.1,0
				c0.5,0.1,0.9-0.3,0.9-0.8c0,0,0-0.1,0-0.1V70.2z"/>
			<path d="M540.5,67h0.5v4.6h-0.5V67z"/>
			<path d="M542.3,67.7c-0.2,0-0.3-0.1-0.3-0.3c0-0.1,0-0.2,0.1-0.2c0.1-0.1,0.3-0.1,0.5,0c0.1,0.1,0.1,0.1,0.1,0.2
				C542.6,67.5,542.5,67.7,542.3,67.7z M542,68.3h0.5v3.4H542V68.3z"/>
			<path d="M545.5,70.5h0.5l0,0c0,0.6-0.5,1.2-1.2,1.2c0,0-0.1,0-0.1,0c-0.7,0-1.2-0.5-1.3-1.1c0-0.1,0-0.1,0-0.2v-0.9
				c-0.1-0.7,0.4-1.3,1.1-1.3c0.1,0,0.1,0,0.2,0c0.6-0.1,1.2,0.4,1.2,1.1c0,0,0,0.1,0,0.1l0,0h-0.5v-0.1c0-0.4-0.3-0.7-0.7-0.7
				c0,0,0,0-0.1,0c-0.4,0-0.8,0.3-0.8,0.7c0,0,0,0.1,0,0.1v1c0,0.4,0.3,0.8,0.7,0.8c0,0,0.1,0,0.1,0C545.1,71.2,545.4,71,545.5,70.5
				C545.5,70.6,545.5,70.5,545.5,70.5L545.5,70.5z"/>
			<path d="M546.8,67h0.5v2.9l1.5-1.6h0.6l-1.2,1.3l1.2,2.1h-0.6l-1-1.7l-0.6,0.6v1.1h-0.5L546.8,67z"/>
			<path d="M551.1,68.7v-0.4h0.5v-0.2c-0.1-0.6,0.3-1.1,0.9-1.2c0.1,0,0.2,0,0.3,0h0.3v0.4h-0.3c-0.4,0-0.6,0.2-0.6,0.7v0.2h0.9v0.4
				h-0.9v2.9h-0.5v-2.9H551.1z"/>
			<path d="M556.1,70.4c0,0.7-0.6,1.3-1.3,1.3c-0.7,0-1.3-0.6-1.3-1.3c0,0,0,0,0,0v-0.9c0-0.7,0.6-1.3,1.3-1.3
				c0.7,0,1.3,0.6,1.3,1.3c0,0,0,0,0,0V70.4z M554,70.4c-0.1,0.4,0.3,0.8,0.7,0.9c0.4,0.1,0.8-0.3,0.9-0.7c0-0.1,0-0.1,0-0.2v-1
				c0.1-0.4-0.3-0.8-0.7-0.9c-0.4-0.1-0.8,0.3-0.9,0.7c0,0.1,0,0.1,0,0.2V70.4z"/>
			<path d="M557.5,71.7h-0.5v-3.4h0.4l0.1,0.4c0.2-0.3,0.5-0.5,0.9-0.5h0.2v0.5h-0.2c-0.4,0-0.8,0.3-0.8,0.8c0,0,0,0.1,0,0.1
				L557.5,71.7z"/>
			<path d="M562.5,71.7l-0.1-0.4c-0.2,0.3-0.6,0.5-0.9,0.5c-0.6,0-1.2-0.5-1.2-1.2c0,0,0-0.1,0-0.1v-1c0-0.6,0.4-1.2,1.1-1.2
				c0,0,0.1,0,0.1,0c0.3,0,0.7,0.1,0.9,0.4V67h0.5v4.6L562.5,71.7z M562.4,70.5v-1c0-0.4-0.3-0.8-0.7-0.8c0,0,0,0-0.1,0
				c-0.4,0-0.7,0.3-0.7,0.7c0,0,0,0.1,0,0.1v1.1c0,0.4,0.2,0.7,0.6,0.8c0,0,0.1,0,0.1,0C562,71.3,562.4,71,562.4,70.5
				C562.4,70.5,562.4,70.5,562.4,70.5L562.4,70.5z"/>
			<path d="M565.8,70.5h0.5l0,0c0,0.6-0.5,1.2-1.2,1.2c0,0-0.1,0-0.1,0c-0.6,0.1-1.2-0.4-1.3-1c0-0.1,0-0.1,0-0.2v-0.9
				c-0.1-0.7,0.4-1.3,1.1-1.4c0.7-0.1,1.3,0.4,1.4,1.1c0,0.1,0,0.2,0,0.2V70h-2v0.5c0,0.4,0.3,0.8,0.7,0.8c0,0,0.1,0,0.1,0
				c0.4,0,0.7-0.2,0.8-0.6C565.8,70.7,565.8,70.6,565.8,70.5L565.8,70.5z M564.3,69.6h1.6v-0.2c0-0.4-0.3-0.8-0.7-0.8
				c0,0-0.1,0-0.1,0c-0.4,0-0.8,0.3-0.8,0.8c0,0,0,0.1,0,0.1L564.3,69.6z"/>
			<path d="M566.8,68.7v-0.4h0.6v-0.9h0.5v0.9h0.6v0.4H568v2.9h-0.5v-2.9H566.8z"/>
			<path d="M569.2,69.5c0-0.6,0.4-1.2,1.1-1.2c0,0,0.1,0,0.1,0c0.4,0,0.7,0.2,0.9,0.5l0.1-0.4h0.4v3.4h-0.4l-0.1-0.4
				c-0.2,0.3-0.6,0.5-0.9,0.5c-0.6,0-1.2-0.5-1.2-1.2c0,0,0-0.1,0-0.1V69.5z M571.2,70.5v-1c0-0.4-0.3-0.8-0.7-0.8c0,0,0,0-0.1,0
				c-0.4,0-0.7,0.3-0.7,0.7c0,0,0,0.1,0,0.1v1.1c0,0.4,0.2,0.7,0.6,0.8c0,0,0.1,0,0.1,0C570.8,71.3,571.2,71,571.2,70.5
				C571.2,70.5,571.2,70.5,571.2,70.5z"/>
			<path d="M573,67.7c-0.2,0-0.3-0.1-0.3-0.3s0.1-0.3,0.3-0.3c0.2,0,0.3,0.1,0.3,0.3C573.3,67.5,573.1,67.7,573,67.7z M572.7,68.3
				h0.5v3.4h-0.5L572.7,68.3z"/>
			<path d="M574.2,67h0.5v4.6h-0.5V67z"/>
			<path d="M575.6,70.6h0.5v0.2c0,0.4,0.3,0.6,0.8,0.6s0.7-0.2,0.7-0.6c0-0.3-0.1-0.4-0.5-0.5l-0.6-0.2c-0.5-0.2-0.8-0.5-0.8-0.9
				c0-0.3,0.1-0.5,0.3-0.7c0.2-0.2,0.5-0.3,0.8-0.3c0.7,0,1.2,0.4,1.2,1l0,0h-0.5v-0.1c0-0.3-0.3-0.6-0.7-0.6
				c-0.5,0-0.7,0.2-0.7,0.5s0.1,0.4,0.4,0.4l0.6,0.2c0.6,0.2,0.9,0.4,0.9,1c0,0.6-0.5,1.1-1.1,1c0,0,0,0-0.1,0
				C576.1,71.7,575.6,71.3,575.6,70.6L575.6,70.6z"/>
			<path d="M578.9,71.1h0.6l-0.5,1.2h-0.3L578.9,71.1z"/>
			<path d="M581.9,67h0.5v4.6h-0.5V67z"/>
			<path d="M585.3,70.5h0.5l0,0c0,0.6-0.5,1.2-1.2,1.2c0,0-0.1,0-0.1,0c-0.6,0.1-1.2-0.4-1.3-1c0-0.1,0-0.2,0-0.2v-0.9
				c-0.1-0.7,0.4-1.3,1.1-1.3c0.1,0,0.1,0,0.2,0c0.6-0.1,1.2,0.4,1.2,1.1c0,0.1,0,0.2,0,0.2V70h-2v0.5c0,0.4,0.3,0.8,0.7,0.8
				c0,0,0.1,0,0.1,0c0.4,0,0.7-0.2,0.8-0.6C585.3,70.7,585.3,70.6,585.3,70.5L585.3,70.5z M583.8,69.6h1.6v-0.2
				c0-0.4-0.3-0.8-0.7-0.8c0,0-0.1,0-0.1,0c-0.4,0-0.8,0.3-0.8,0.8c0,0,0,0.1,0,0.1L583.8,69.6z"/>
			<path d="M587.1,71.7h-0.5v-3.4h0.4l0.1,0.4c0.2-0.3,0.6-0.5,0.9-0.5c0.6,0,1.2,0.5,1.2,1.2c0,0,0,0,0,0.1v2.2h-0.5v-2.2
				c0-0.4-0.3-0.7-0.7-0.8c0,0-0.1,0-0.1,0c-0.4,0-0.8,0.3-0.8,0.8c0,0,0,0,0,0.1L587.1,71.7z"/>
			<path d="M592.2,71.7l-0.1-0.4c-0.2,0.3-0.6,0.5-0.9,0.5c-0.6,0-1.2-0.5-1.2-1.2c0,0,0-0.1,0-0.1v-1c0-0.6,0.4-1.2,1.1-1.2
				c0,0,0.1,0,0.1,0c0.3,0,0.7,0.1,0.9,0.4V67h0.5v4.6L592.2,71.7z M592.1,70.5v-1c0-0.4-0.3-0.8-0.7-0.8c0,0,0,0-0.1,0
				c-0.4,0-0.7,0.3-0.7,0.7c0,0,0,0.1,0,0.1v1.1c0,0.4,0.2,0.7,0.6,0.8c0,0,0.1,0,0.1,0C591.7,71.3,592.1,71,592.1,70.5
				C592.1,70.5,592.1,70.5,592.1,70.5L592.1,70.5z"/>
			<path d="M593.8,67.7c-0.2,0-0.3-0.1-0.3-0.3s0.1-0.3,0.3-0.3c0.2,0,0.3,0.1,0.3,0.3C594.1,67.5,594,67.7,593.8,67.7z M593.6,68.3
				h0.5v3.4h-0.5L593.6,68.3z"/>
			<path d="M595.6,71.7h-0.5v-3.4h0.4l0.1,0.4c0.2-0.3,0.5-0.5,0.9-0.5c0.6,0,1.2,0.5,1.2,1.2c0,0,0,0,0,0.1v2.2h-0.5v-2.2
				c0-0.4-0.3-0.7-0.7-0.8c0,0-0.1,0-0.1,0c-0.4,0-0.8,0.3-0.8,0.8c0,0,0,0,0,0.1V71.7z"/>
			<path d="M598.5,69.5c0-0.6,0.4-1.2,1.1-1.2c0,0,0.1,0,0.1,0c0.4,0,0.7,0.2,0.9,0.5l0.1-0.4h0.4v3.5c0,0.6-0.5,1.2-1.2,1.2
				c0,0-0.1,0-0.1,0c-0.8,0-1.2-0.4-1.2-1l0,0h0.5v0.1c0,0.3,0.3,0.6,0.8,0.6c0.4,0,0.7-0.2,0.8-0.6c0,0,0-0.1,0-0.1v-0.7
				c-0.2,0.3-0.5,0.4-0.9,0.4c-0.6,0-1.2-0.5-1.2-1.2c0,0,0-0.1,0-0.1V69.5z M600.5,70.3v-0.8c0-0.4-0.3-0.8-0.7-0.8
				c0,0-0.1,0-0.1,0c-0.4,0-0.7,0.3-0.7,0.7c0,0,0,0.1,0,0.1v0.9c0,0.4,0.2,0.7,0.6,0.8c0,0,0.1,0,0.1,0
				C600.1,71.2,600.5,70.8,600.5,70.3C600.5,70.4,600.5,70.4,600.5,70.3z"/>
			<path d="M487.1,78.8h0.5l0,0c0,0.6-0.5,1.2-1.2,1.2c0,0-0.1,0-0.1,0c-0.6,0.1-1.2-0.4-1.3-1c0-0.1,0-0.2,0-0.3v-0.9
				c-0.1-0.6,0.4-1.2,1-1.3c0.1,0,0.2,0,0.3,0c0.6-0.1,1.2,0.4,1.3,1.1c0,0,0,0.1,0,0.1l0,0h-0.5v0c0-0.4-0.3-0.7-0.7-0.7
				c0,0,0,0-0.1,0c-0.4,0-0.8,0.3-0.8,0.7c0,0,0,0.1,0,0.1v1c0,0.4,0.3,0.8,0.7,0.8c0,0,0.1,0,0.1,0c0.4,0.1,0.7-0.2,0.8-0.6
				c0,0,0-0.1,0-0.1V78.8z"/>
			<path d="M488.9,79.9h-0.5v-3.4h0.4l0.1,0.4c0.2-0.3,0.5-0.5,0.9-0.5h0.2V77h-0.2c-0.4,0-0.8,0.3-0.8,0.8c0,0,0,0.1,0,0.1V79.9z"
				/>
			<path d="M490.8,75.9c-0.2,0-0.3-0.2-0.3-0.3c0-0.1,0-0.2,0.1-0.2c0.1-0.1,0.3-0.1,0.5,0c0.1,0.1,0.1,0.1,0.1,0.2
				C491.1,75.8,491,75.9,490.8,75.9z M490.6,76.6h0.5v3.4h-0.5V76.6z"/>
			<path d="M491.7,77v-0.4h0.6v-0.9h0.5v0.9h0.6V77h-0.6v2.9h-0.5V77H491.7z"/>
			<path d="M496.1,78.8h0.5l0,0c0,0.6-0.5,1.2-1.2,1.2c0,0-0.1,0-0.1,0c-0.6,0.1-1.2-0.4-1.3-1c0-0.1,0-0.1,0-0.2v-0.9
				c0-0.7,0.6-1.3,1.3-1.3s1.3,0.6,1.3,1.3c0,0,0,0,0,0v0.5h-2v0.5c0,0.4,0.3,0.8,0.7,0.8c0,0,0.1,0,0.1,0c0.4,0.1,0.7-0.2,0.8-0.6
				C496.1,78.9,496.1,78.9,496.1,78.8L496.1,78.8z M494.6,77.9h1.6v-0.2c0-0.4-0.3-0.8-0.8-0.8c-0.4,0-0.8,0.3-0.8,0.8c0,0,0,0,0,0
				V77.9z"/>
			<path d="M497.9,79.9h-0.5v-3.4h0.4l0.1,0.4c0.2-0.3,0.5-0.5,0.9-0.5h0.1V77h-0.2c-0.4,0-0.8,0.3-0.8,0.8c0,0,0,0.1,0,0.1
				L497.9,79.9z"/>
			<path d="M499.9,75.9c-0.2,0-0.3-0.1-0.3-0.3s0.1-0.3,0.3-0.3s0.3,0.1,0.3,0.3l0,0C500.2,75.8,500,75.9,499.9,75.9z M499.6,76.6
				h0.5v3.4h-0.5L499.6,76.6z"/>
			<path d="M501,77.7c0-0.6,0.4-1.2,1.1-1.2c0,0,0.1,0,0.1,0c0.4,0,0.7,0.2,0.9,0.5l0.1-0.4h0.4v3.4h-0.4l-0.1-0.4
				c-0.2,0.3-0.6,0.5-0.9,0.5c-0.6,0-1.2-0.5-1.2-1.2c0,0,0-0.1,0-0.1L501,77.7z M503,78.7v-1c0-0.4-0.3-0.8-0.7-0.8
				c0,0-0.1,0-0.1,0c-0.4,0-0.7,0.3-0.7,0.7c0,0,0,0.1,0,0.1v1.1c0,0.4,0.2,0.7,0.6,0.8c0,0,0.1,0,0.1,0
				C502.7,79.5,503,79.2,503,78.7C503,78.7,503,78.7,503,78.7L503,78.7z"/>
			<path d="M504.6,79.4h0.6l-0.5,1.2h-0.4L504.6,79.4z"/>
			<path d="M507.1,77v-0.4h0.5v-0.2c-0.1-0.6,0.3-1.1,0.9-1.2c0.1,0,0.2,0,0.3,0h0.3v0.4h-0.3c-0.4,0-0.6,0.2-0.6,0.7v0.2h0.9V77
				h-0.9v2.9h-0.5V77H507.1z"/>
			<path d="M511.6,78.8h0.5l0,0c0,0.6-0.5,1.2-1.2,1.2c0,0-0.1,0-0.1,0c-0.6,0.1-1.2-0.4-1.3-1c0-0.1,0-0.1,0-0.2v-0.9
				c0-0.7,0.6-1.3,1.3-1.3s1.3,0.6,1.3,1.3v0.5h-2v0.5c0,0.4,0.3,0.8,0.7,0.8c0,0,0.1,0,0.1,0c0.4,0.1,0.7-0.2,0.8-0.6
				C511.6,78.9,511.6,78.9,511.6,78.8L511.6,78.8z M510.1,77.9h1.6v-0.2c0-0.4-0.3-0.8-0.8-0.8c-0.4,0-0.8,0.3-0.8,0.8c0,0,0,0,0,0
				V77.9z"/>
			<path d="M514.9,78.8h0.5l0,0c0,0.6-0.5,1.2-1.2,1.2c0,0-0.1,0-0.1,0c-0.6,0.1-1.2-0.4-1.3-1c0-0.1,0-0.1,0-0.2v-0.9
				c0-0.7,0.6-1.3,1.3-1.3s1.3,0.6,1.3,1.3c0,0,0,0,0,0v0.5h-2v0.5c0,0.4,0.3,0.8,0.7,0.8c0,0,0.1,0,0.1,0c0.4,0.1,0.7-0.2,0.8-0.6
				C514.9,78.9,514.9,78.9,514.9,78.8L514.9,78.8z M513.3,77.9h1.6v-0.2c0-0.4-0.3-0.8-0.8-0.8c-0.4,0-0.8,0.3-0.8,0.8V77.9z"/>
			<path d="M516,78.9h0.5V79c0,0.4,0.3,0.6,0.8,0.6s0.7-0.2,0.7-0.6c0-0.3-0.1-0.4-0.5-0.5l-0.6-0.2c-0.5-0.2-0.8-0.4-0.8-0.9
				c0-0.3,0.1-0.5,0.3-0.7c0.2-0.2,0.5-0.3,0.8-0.3c0.7,0,1.2,0.4,1.2,1l0,0h-0.5v-0.1c0-0.3-0.3-0.6-0.7-0.6s-0.7,0.2-0.7,0.5
				s0.1,0.4,0.4,0.4l0.6,0.2c0.6,0.2,0.9,0.4,0.9,0.9c0,0.6-0.5,1-1.1,1c0,0-0.1,0-0.1,0C516.5,80,516,79.6,516,78.9L516,78.9z"/>
			<path d="M519.3,79.4h0.6l-0.5,1.2H519L519.3,79.4z"/>
			<path d="M521.8,77v-0.4h0.6v-0.9h0.5v0.9h0.6V77H523v2.9h-0.5V77H521.8z"/>
			<path d="M526.2,78.8h0.5l0,0c0,0.6-0.5,1.2-1.2,1.2c0,0-0.1,0-0.1,0c-0.6,0.1-1.2-0.4-1.3-1c0-0.1,0-0.1,0-0.2v-0.9
				c-0.1-0.7,0.4-1.3,1.1-1.4c0.7-0.1,1.3,0.4,1.4,1.1c0,0.1,0,0.2,0,0.2v0.5h-2v0.5c0,0.4,0.3,0.8,0.7,0.8c0,0,0.1,0,0.1,0
				c0.4,0,0.7-0.2,0.8-0.6C526.2,78.9,526.2,78.9,526.2,78.8L526.2,78.8z M524.7,77.9h1.6v-0.2c0-0.4-0.3-0.8-0.7-0.8
				c0,0-0.1,0-0.1,0c-0.4,0-0.8,0.3-0.8,0.8c0,0,0,0.1,0,0.1L524.7,77.9z"/>
			<path d="M528.1,79.9h-0.5v-3.4h0.4L528,77c0.2-0.3,0.5-0.5,0.9-0.5h0.2V77h-0.2c-0.4,0-0.8,0.3-0.8,0.8c0,0,0,0.1,0,0.1V79.9z"/>
			<path d="M530.2,79.9h-0.5v-3.4h0.4l0.1,0.4c0.2-0.3,0.5-0.5,0.9-0.5c0.4,0,0.8,0.2,1,0.6c0.2-0.4,0.6-0.6,1-0.6
				c0.6,0,1.1,0.4,1.2,1c0,0.1,0,0.1,0,0.2v2.2h-0.5v-2.2c0-0.4-0.2-0.7-0.6-0.8c0,0-0.1,0-0.1,0c-0.4,0-0.8,0.3-0.8,0.8
				c0,0,0,0,0,0v2.2h-0.5v-2.2c0-0.4-0.2-0.7-0.6-0.8c0,0-0.1,0-0.1,0c-0.4,0-0.8,0.3-0.8,0.8c0,0,0,0,0,0.1L530.2,79.9z"/>
			<path d="M535,78.9h0.5V79c0,0.4,0.3,0.6,0.8,0.6s0.7-0.2,0.7-0.6c0-0.3-0.1-0.4-0.5-0.5l-0.6-0.2c-0.5-0.2-0.8-0.4-0.8-0.9
				c0-0.3,0.1-0.5,0.3-0.7c0.2-0.2,0.5-0.3,0.8-0.3c0.7,0,1.2,0.4,1.2,1l0,0h-0.5v-0.1c0-0.3-0.3-0.6-0.7-0.6
				c-0.5,0-0.7,0.2-0.7,0.5s0.1,0.4,0.4,0.4l0.6,0.2c0.6,0.2,0.9,0.4,0.9,0.9c0,0.6-0.5,1-1.1,1c0,0-0.1,0-0.1,0
				C535.5,80,535,79.6,535,78.9L535,78.9z"/>
			<path d="M539.6,77.7c0-0.6,0.4-1.2,1.1-1.2c0,0,0.1,0,0.1,0c0.4,0,0.7,0.2,0.9,0.5l0.1-0.4h0.4v3.4h-0.4l-0.1-0.4
				c-0.2,0.3-0.6,0.5-0.9,0.5c-0.6,0-1.2-0.5-1.2-1.2c0,0,0-0.1,0-0.1V77.7z M541.7,78.7v-1c0-0.4-0.3-0.8-0.7-0.8c0,0-0.1,0-0.1,0
				c-0.4,0-0.7,0.3-0.7,0.7c0,0,0,0.1,0,0.1v1.1c0,0.4,0.2,0.7,0.6,0.8c0,0,0.1,0,0.1,0C541.3,79.5,541.6,79.2,541.7,78.7
				C541.7,78.8,541.7,78.7,541.7,78.7z"/>
			<path d="M543.7,79.9h-0.5v-3.4h0.4l0.1,0.4c0.2-0.3,0.6-0.5,0.9-0.5c0.6,0,1.2,0.5,1.2,1.2c0,0,0,0,0,0.1v2.2h-0.5v-2.2
				c0-0.4-0.3-0.7-0.7-0.8c0,0-0.1,0-0.1,0c-0.4,0-0.8,0.3-0.8,0.8c0,0,0,0,0,0.1L543.7,79.9z"/>
			<path d="M548.7,79.9l-0.1-0.4c-0.2,0.3-0.6,0.5-0.9,0.5c-0.6,0-1.2-0.5-1.2-1.2c0,0,0-0.1,0-0.1v-1c0-0.6,0.4-1.2,1.1-1.2
				c0,0,0.1,0,0.1,0c0.3,0,0.7,0.1,0.9,0.4v-1.6h0.5v4.6L548.7,79.9z M548.6,78.8v-1c0-0.4-0.3-0.8-0.7-0.8c0,0,0,0-0.1,0
				c-0.4,0-0.7,0.3-0.7,0.7c0,0,0,0.1,0,0.1v1.1c0,0.4,0.2,0.7,0.6,0.8c0,0,0.1,0,0.1,0C548.2,79.5,548.6,79.2,548.6,78.8
				C548.6,78.7,548.6,78.7,548.6,78.8L548.6,78.8z"/>
			<path d="M553.4,78.8h0.5l0,0c0,0.6-0.5,1.2-1.2,1.2c0,0-0.1,0-0.1,0c-0.6,0.1-1.2-0.4-1.3-1c0-0.1,0-0.2,0-0.3v-0.9
				c-0.1-0.6,0.4-1.2,1-1.3c0.1,0,0.2,0,0.3,0c0.6-0.1,1.2,0.4,1.3,1.1c0,0,0,0.1,0,0.1l0,0h-0.5v0c0-0.4-0.3-0.7-0.7-0.7
				c0,0-0.1,0-0.1,0c-0.4,0-0.8,0.3-0.8,0.7c0,0,0,0.1,0,0.1v1c0,0.4,0.3,0.8,0.7,0.8c0,0,0.1,0,0.1,0c0.4,0,0.7-0.2,0.8-0.6
				c0,0,0,0,0-0.1V78.8z"/>
			<path d="M557.2,78.7c0,0.7-0.6,1.3-1.3,1.3c-0.7,0-1.3-0.6-1.3-1.3c0,0,0,0,0,0v-0.9c0-0.7,0.6-1.3,1.3-1.3
				c0.7,0,1.3,0.6,1.3,1.3c0,0,0,0,0,0V78.7z M555.2,78.7c0,0.4,0.3,0.8,0.8,0.8c0.4,0,0.8-0.3,0.8-0.8l0,0v-1
				c0-0.4-0.3-0.8-0.8-0.8c-0.4,0-0.8,0.3-0.8,0.8V78.7z"/>
			<path d="M558.6,79.9h-0.5v-3.4h0.4l0.1,0.4c0.2-0.3,0.5-0.5,0.9-0.5c0.6,0,1.2,0.5,1.2,1.2c0,0,0,0,0,0.1v2.2h-0.5v-2.2
				c0-0.4-0.3-0.7-0.7-0.8c0,0-0.1,0-0.1,0c-0.4,0-0.8,0.3-0.8,0.8c0,0,0,0,0,0.1L558.6,79.9z"/>
			<path d="M563.7,79.9l-0.1-0.4c-0.2,0.3-0.5,0.5-0.9,0.5c-0.6,0-1.2-0.5-1.2-1.2c0,0,0-0.1,0-0.1v-1.1c0-0.6,0.4-1.2,1.1-1.2
				c0,0,0.1,0,0.1,0c0.3,0,0.7,0.1,0.9,0.4v-1.6h0.5v4.6L563.7,79.9z M563.6,78.8v-1c0-0.4-0.3-0.8-0.7-0.8c0,0-0.1,0-0.1,0
				c-0.4,0-0.7,0.3-0.7,0.7c0,0,0,0.1,0,0.1v1.1c0,0.4,0.2,0.7,0.6,0.8c0,0,0.1,0,0.1,0C563.2,79.5,563.5,79.2,563.6,78.8
				C563.6,78.8,563.6,78.7,563.6,78.8L563.6,78.8z"/>
			<path d="M565.3,75.9c-0.2,0-0.3-0.1-0.3-0.3c0-0.2,0.1-0.3,0.3-0.3c0.2,0,0.3,0.1,0.3,0.3C565.6,75.8,565.5,75.9,565.3,75.9z
				 M565,76.6h0.5v3.4H565V76.6z"/>
			<path d="M566.2,77v-0.4h0.6v-0.9h0.5v0.9h0.6V77h-0.6v2.9h-0.5V77H566.2z"/>
			<path d="M569,75.9c-0.2,0-0.3-0.1-0.3-0.3c0-0.2,0.1-0.3,0.3-0.3c0.2,0,0.3,0.1,0.3,0.3C569.3,75.8,569.1,75.9,569,75.9z
				 M568.7,76.6h0.5v3.4h-0.5V76.6z"/>
			<path d="M572.6,78.7c0.1,0.7-0.5,1.3-1.2,1.4c-0.7,0.1-1.3-0.5-1.4-1.2c0-0.1,0-0.2,0-0.2v-0.9c-0.1-0.7,0.5-1.3,1.2-1.4
				c0.7-0.1,1.3,0.5,1.4,1.2c0,0.1,0,0.2,0,0.2V78.7z M570.6,78.7c-0.1,0.4,0.3,0.8,0.7,0.9c0.4,0.1,0.8-0.3,0.9-0.7
				c0-0.1,0-0.1,0-0.2v-1c0.1-0.4-0.3-0.8-0.7-0.9c-0.4-0.1-0.8,0.3-0.9,0.7c0,0.1,0,0.1,0,0.2V78.7z"/>
			<path d="M574,79.9h-0.5v-3.4h0.4L574,77c0.2-0.3,0.6-0.5,0.9-0.5c0.6,0,1.2,0.5,1.2,1.2c0,0,0,0,0,0.1v2.2h-0.5v-2.2
				c0-0.4-0.3-0.7-0.7-0.8c0,0-0.1,0-0.1,0c-0.4,0-0.8,0.3-0.8,0.8c0,0,0,0,0,0.1V79.9z"/>
			<path d="M576.8,78.9h0.5V79c0,0.4,0.3,0.6,0.8,0.6c0.5,0,0.7-0.2,0.7-0.6c0-0.3-0.1-0.4-0.4-0.5l-0.6-0.2
				c-0.5-0.2-0.8-0.4-0.8-0.9c0-0.3,0.1-0.5,0.3-0.7c0.2-0.2,0.5-0.3,0.8-0.3c0.7,0,1.2,0.4,1.2,1l0,0h-0.5v-0.1
				c0-0.3-0.3-0.6-0.7-0.6c-0.4,0-0.7,0.2-0.7,0.5s0.1,0.4,0.4,0.4l0.6,0.2c0.6,0.2,0.9,0.4,0.9,0.9c0,0.6-0.5,1-1.1,1
				c0,0-0.1,0-0.1,0C577.3,80,576.8,79.6,576.8,78.9L576.8,78.9z"/>
			<path d="M581.5,77.7c0-0.6,0.4-1.2,1.1-1.2c0,0,0.1,0,0.1,0c0.4,0,0.7,0.2,0.9,0.5l0.1-0.4h0.4v3.4h-0.4l-0.1-0.4
				c-0.2,0.3-0.6,0.5-0.9,0.5c-0.6,0-1.2-0.5-1.2-1.2c0,0,0-0.1,0-0.1V77.7z M583.5,78.7v-1c0-0.4-0.3-0.8-0.7-0.8c0,0,0,0-0.1,0
				c-0.4,0-0.7,0.3-0.7,0.7c0,0,0,0.1,0,0.1v1.1c0,0.4,0.2,0.7,0.6,0.8c0,0,0.1,0,0.1,0C583.1,79.5,583.5,79.2,583.5,78.7
				C583.5,78.7,583.5,78.7,583.5,78.7L583.5,78.7z"/>
			<path d="M585.4,76.6l0.1,0.4c0.2-0.3,0.5-0.5,0.9-0.5c0.6,0,1.2,0.5,1.2,1.2c0,0,0,0.1,0,0.1v1c0,0.6-0.4,1.2-1.1,1.2
				c0,0-0.1,0-0.1,0c-0.3,0-0.7-0.1-0.9-0.4v1.6H585v-4.6H585.4z M585.5,77.7v1c0,0.4,0.3,0.8,0.7,0.8c0,0,0.1,0,0.1,0
				c0.4,0,0.7-0.3,0.8-0.7c0,0,0-0.1,0-0.1v-1c0-0.4-0.3-0.7-0.7-0.8c0,0-0.1,0-0.1,0C585.9,76.9,585.5,77.3,585.5,77.7
				C585.5,77.7,585.5,77.7,585.5,77.7z"/>
			<path d="M588.8,76.6l0.1,0.4c0.2-0.3,0.6-0.5,0.9-0.5c0.6,0,1.2,0.5,1.2,1.2c0,0,0,0.1,0,0.1v1c0,0.6-0.4,1.2-1.1,1.2
				c0,0-0.1,0-0.1,0c-0.3,0-0.7-0.1-0.9-0.4v1.6h-0.5v-4.6H588.8z M588.9,77.7v1c0,0.4,0.3,0.8,0.7,0.8c0,0,0.1,0,0.1,0
				c0.4,0,0.7-0.3,0.7-0.7c0,0,0-0.1,0-0.1v-1c0-0.4-0.3-0.7-0.7-0.8c0,0-0.1,0-0.1,0C589.3,76.9,588.9,77.3,588.9,77.7
				C588.9,77.7,588.9,77.7,588.9,77.7L588.9,77.7z"/>
			<path d="M591.9,75.3h0.5v4.6h-0.5V75.3z"/>
			<path d="M594.3,81.2h-0.5l0.5-1.3l-1.2-3.4h0.6l0.9,2.7l0.9-2.7h0.5L594.3,81.2z"/>
			<path d="M596.9,79.6c0,0.2-0.2,0.3-0.3,0.3c0,0,0,0,0,0c-0.2,0-0.3-0.2-0.3-0.3c0,0,0,0,0,0C596.2,79.2,596.9,79.2,596.9,79.6z"
				/>
			<path d="M493.5,56.2c0,1-0.3,2-1.1,2.7c-1.7,1.4-4,1.4-5.7,0c-0.7-0.7-1.1-1.7-1.1-2.7v-4.4c0-2.3,1.4-3.8,3.9-3.8
				c1,0,2.1,0.3,2.9,1c0.7,0.7,1.1,1.7,1.1,2.7V56.2z M488.2,56.1c-0.1,0.8,0.5,1.4,1.2,1.5c0.8,0.1,1.4-0.5,1.5-1.2
				c0-0.1,0-0.2,0-0.3v-4.3c0.1-0.8-0.5-1.4-1.2-1.5c-0.8-0.1-1.4,0.5-1.5,1.2c0,0.1,0,0.2,0,0.3V56.1z"/>
			<path d="M501.5,53.7c1,0.5,1.6,1.6,1.5,2.7c0,2.1-1.5,3.5-3.9,3.5c-2.4,0-3.9-1.4-3.9-3.5c-0.1-1.1,0.4-2.2,1.4-2.7
				c-0.9-0.5-1.4-1.5-1.3-2.5c0-1.9,1.4-3.3,3.7-3.3s3.7,1.3,3.7,3.3C502.8,52.3,502.4,53.2,501.5,53.7z M499.1,57.8
				c0.9,0,1.3-0.5,1.3-1.5c0-1-0.4-1.5-1.3-1.5s-1.3,0.5-1.3,1.5C497.8,57.3,498.2,57.8,499.1,57.8z M499.1,52.9
				c0.8,0,1.2-0.5,1.2-1.4s-0.4-1.3-1.2-1.3c-0.8,0-1.2,0.4-1.2,1.3S498.3,52.9,499.1,52.9z"/>
			<path d="M512.5,56.2c0.1,1-0.3,2-1.1,2.7c-1.6,1.4-4,1.4-5.7,0c-0.7-0.7-1.1-1.7-1.1-2.7v-4.4c0-2.3,1.4-3.8,3.9-3.8
				c1,0,2.1,0.3,2.9,1c0.7,0.7,1.1,1.7,1.1,2.7V56.2z M507.2,56.1c-0.1,0.8,0.5,1.4,1.2,1.5c0.8,0.1,1.4-0.5,1.5-1.2
				c0-0.1,0-0.2,0-0.3v-4.3c0.1-0.8-0.5-1.4-1.2-1.5c-0.8-0.1-1.4,0.5-1.5,1.2c0,0.1,0,0.2,0,0.3V56.1z"/>
			<path d="M522.3,56.2c0.1,1-0.3,2-1.1,2.7c-0.8,0.7-1.8,1.1-2.9,1c-1,0.1-2.1-0.3-2.8-1c-0.7-0.7-1.1-1.7-1.1-2.7v-4.4
				c0-2.3,1.4-3.8,3.9-3.8c1,0,2.1,0.3,2.9,1c0.7,0.7,1.1,1.7,1.1,2.7V56.2z M517,56.1c-0.1,0.8,0.5,1.4,1.2,1.5
				c0.8,0.1,1.4-0.5,1.5-1.2c0-0.1,0-0.2,0-0.3v-4.3c0.1-0.8-0.5-1.4-1.2-1.5c-0.8-0.1-1.4,0.5-1.5,1.2c0,0.1,0,0.2,0,0.3V56.1z"/>
			<path d="M536,58.6c0,0.7-0.6,1.3-1.3,1.3c-0.7,0-1.3-0.6-1.3-1.3V55h-3.1v3.6c0,0.6-0.4,1.2-1.1,1.2c-0.1,0-0.2,0-0.2,0
				c-0.6,0.1-1.2-0.4-1.3-1.1c0-0.1,0-0.1,0-0.2v-9.3c0-0.6,0.4-1.2,1.1-1.2c0.1,0,0.2,0,0.2,0c0.6-0.1,1.2,0.4,1.3,1
				c0,0.1,0,0.2,0,0.2v3.4h3.1v-3.4c-0.1-0.6,0.4-1.2,1.1-1.3c0.1,0,0.1,0,0.2,0c0.6-0.1,1.2,0.4,1.3,1c0,0.1,0,0.2,0,0.2L536,58.6z
				"/>
			<path d="M546.3,58.2c0,0.1,0.1,0.3,0.1,0.4c0,0.7-0.6,1.3-1.3,1.3c-0.5,0-1-0.3-1.2-0.8l-1.5-3.3H541v2.9c0,0.6-0.4,1.2-1.1,1.2
				c-0.1,0-0.1,0-0.2,0c-0.6,0.1-1.2-0.4-1.3-1c0-0.1,0-0.2,0-0.2v-9.2c-0.1-0.6,0.4-1.2,1.1-1.3c0.1,0,0.1,0,0.2,0h3
				c1.1,0,2.1,0.3,2.9,1c1.5,1.5,1.5,3.9,0,5.3c-0.2,0.2-0.4,0.3-0.6,0.5L546.3,58.2z M541,50.4v3h1.4c0.8,0.1,1.6-0.5,1.7-1.3
				s-0.5-1.6-1.3-1.7c-0.1,0-0.2,0-0.4,0L541,50.4z"/>
			<path d="M553.7,58.5c-0.2,0.8-0.9,1.3-1.7,1.3c-0.8,0-1.5-0.5-1.7-1.3l-2.5-8.6c0-0.1-0.1-0.3-0.1-0.4c0-0.7,0.6-1.3,1.3-1.3
				c0.6,0,1.1,0.4,1.2,1l1.8,7.1l1.8-7.1c0.1-0.5,0.6-0.9,1.2-1c0.7,0,1.3,0.6,1.3,1.3c0,0,0,0,0,0c0,0.1,0,0.2-0.1,0.3L553.7,58.5z
				"/>
			<path d="M561.5,48.2h2.4c0.6,0,1.1,0.4,1.1,1c0,0.1,0,0.1,0,0.2v8.2h1.1c1.4-0.1,1.4,2.3,0,2.2h-4.6c-0.6-0.2-1-0.8-0.8-1.4
				c0.1-0.4,0.4-0.7,0.8-0.8h1v-7.1h-0.9c-0.3,0-0.6-0.1-0.8-0.3C560,49.5,560.4,48.1,561.5,48.2z"/>
			<path d="M575.1,57.4c0.6,0,1.2,0.5,1.2,1.2c0,0.6-0.4,1.1-1,1.2c0,0-0.1,0-0.1,0h-6c-0.5,0-0.9-0.4-1-0.9c0,0,0-0.1,0-0.1v-0.1
				c0-0.8,0.1-1.5,0.3-2.2c0.3-0.7,0.8-1.2,1.4-1.6l2.2-1.4c0.8-0.4,1.2-1.2,1.3-2c0-0.7-0.4-1.2-1.3-1.2c-0.7-0.1-1.3,0.4-1.4,1
				c-0.2,0.5-0.6,0.8-1.2,0.8c-0.6,0-1.2-0.5-1.2-1.2c0,0,0,0,0-0.1c0.1-0.8,0.6-1.6,1.3-2.1c0.8-0.5,1.7-0.8,2.6-0.8
				c2.3,0,3.9,1.3,3.9,3.3c0,1.6-0.9,3.1-2.3,3.8l-2,1.3c-0.4,0.2-0.6,0.6-0.7,1H575.1z"/>
			<path d="M581.1,52.9h0.2c1,0,1.4-0.4,1.4-1.3c0.1-0.6-0.4-1.2-1-1.3c-0.1,0-0.1,0-0.2,0c-0.6-0.1-1.1,0.2-1.3,0.8
				c-0.2,0.5-0.6,0.8-1.2,0.9c-0.6,0-1.2-0.5-1.2-1.2c0-0.1,0-0.3,0.1-0.4c0.6-1.5,2-2.4,3.6-2.3c2.3,0,3.7,1.3,3.7,3.3
				c0.1,1-0.4,1.9-1.2,2.5c1,0.5,1.5,1.6,1.4,2.7c0,2.1-1.6,3.5-4,3.5c-1.8,0.2-3.4-1-3.8-2.8c-0.2-0.6,0.1-1.3,0.7-1.5
				c0.1,0,0.3-0.1,0.4-0.1c0.6-0.1,1.1,0.4,1.2,1c0,0.7,0.6,1.2,1.3,1.2c0.9,0,1.4-0.5,1.4-1.5s-0.5-1.4-1.5-1.4h-0.1
				c-0.5,0-0.9-0.5-0.9-1C580.2,53.4,580.6,52.9,581.1,52.9C581.1,52.9,581.1,52.9,581.1,52.9z"/>
		</g>
	</g>
</g>
</svg>
