<?xml version="1.0" encoding="utf-8"?>
<!-- Generator: Adobe Illustrator 23.0.0, SVG Export Plug-In . SVG Version: 6.00 Build 0)  -->
<svg version="1.1" id="Layer_1" xmlns="http://www.w3.org/2000/svg" xmlns:xlink="http://www.w3.org/1999/xlink" x="0px" y="0px"
	 viewBox="0 0 728 90" style="enable-background:new 0 0 728 90;" xml:space="preserve">
<style type="text/css">
	.st0{fill:#060866;}
	.st1{fill:#01AD02;}
	.st2{fill:#00EB00;}
	.st3{fill:#0085AF;}
	.st4{fill:#FFFFFF;}
	.st5{fill:#EDDB00;}
</style>
<g>
	<g>
		<g>
			<path class="st0" d="M572.88,56.83c2.67,0,4.25-0.92,5.79-2.05l-1.56-2.81c-1.12,0.86-2.3,1.57-4.23,1.57
				c-3.01,0-5.12-2-5.12-4.96s2.11-5.01,5.12-5.01c1.93,0,3.23,0.8,4.22,1.57l1.56-2.76c-1.53-1.12-3.12-2.05-5.79-2.05
				c-5.76,0-8.78,4.15-8.78,8.25S567.12,56.83,572.88,56.83z"/>
			<path class="st0" d="M622.56,47.18l-1.67-0.59c-1.47-0.5-1.77-1.33-1.77-1.82c0-1.31,1.23-1.67,1.97-1.67
				c1.19,0,2.05,0.78,2.58,2.05h0l2.84-1.41l-0.03-0.08c-0.94-2.27-2.85-3.51-5.38-3.51c-3.24,0-5.43,1.89-5.43,4.7
				c0,1.55,0.63,3.42,4.01,4.57l1.72,0.59c1.56,0.55,2.01,1.36,2.01,1.88c0,1.51-1.31,1.8-2.39,1.76c-1.48-0.06-2.55-0.89-2.97-2.35
				l-0.02-0.08l-3.16,0.62l0.01,0.08c0.3,2.79,2.85,4.74,6.19,4.74c1.51,0,2.9-0.41,3.93-1.17c1.2-0.88,1.83-2.16,1.83-3.72
				C626.8,48.92,624.48,47.78,622.56,47.18z"/>
			<path class="st0" d="M649.15,44.52c-1.41-0.02-3,0.53-3.89,1.9c-0.54-1.21-1.39-1.9-2.82-1.9c-0.43,0-0.98,0.09-1.4,0.19v2.45
				c0.62-0.07,1.23,0.02,1.23,1.78V61h3.28v-5.85c0.61,0.88,1.69,1.52,3.62,1.52c2.76,0,5.61-2.2,5.61-5.99
				C654.78,46.89,652.05,44.57,649.15,44.52z M648.45,53.72c-1.77,0.02-2.97-1.39-2.98-3.14c-0.01-1.75,1.15-3.05,2.98-3.08
				c1.67-0.03,3.07,1.36,3.09,3.07C651.56,52.33,650.22,53.7,648.45,53.72z"/>
			<path class="st0" d="M667.98,51.49c-0.17,0-8.97,0-8.97,0s-0.02,2.36,3.11,2.36c2.34,0,3.14-1.16,3.14-1.16l1.93,1.81
				c0,0-1.75,2.17-5.11,2.17c-3.37,0-6.28-2.27-6.28-6.08c0-3.81,2.91-6.06,6.12-6.06c3.85,0,6.08,2.34,6.08,6.59L667.98,51.49z
				 M659.06,49.37h5.69c0,0,0.02-2.18-2.76-2.18C659.21,47.19,659.06,49.37,659.06,49.37z"/>
			<path class="st0" d="M588.33,44.7h3.36c0,0,0,6.03,0,7.61c0,1.47,0.46,1.82,1.28,1.71v2.49c0,0-0.38,0.15-1.49,0.15
				c-1.2,0-2.54-0.59-2.87-1.94c-0.74,1.38-2.11,1.95-3.96,1.95c-2.84,0-5.8-2.19-5.8-6.02c0-3.72,2.82-6.12,5.65-6.12
				c2.07,0,3.04,0.6,3.83,1.76C588.32,46.08,588.33,44.7,588.33,44.7z M585.33,47.5c-1.82,0-3.17,1.43-3.17,3.07
				c0,1.78,1.38,3.1,3.12,3.1c1.67,0,3.21-1.16,3.21-3.05C588.49,48.61,586.93,47.5,585.33,47.5z"/>
			<path class="st0" d="M614.26,51.49c-0.17,0-8.96,0-8.96,0s-0.02,2.36,3.11,2.36c2.34,0,3.14-1.16,3.14-1.16l1.93,1.81
				c0,0-1.75,2.17-5.11,2.17c-3.37,0-6.28-2.27-6.28-6.08c0-3.81,2.91-6.06,6.12-6.06c3.85,0,6.08,2.34,6.08,6.59L614.26,51.49z
				 M605.36,49.37h5.69c0,0,0.02-2.18-2.76-2.18C605.5,47.19,605.36,49.37,605.36,49.37z"/>
			<path class="st0" d="M639.11,52.31c0,1.47,0.46,1.82,1.28,1.71v2.49c0,0-0.38,0.15-1.49,0.15c-1.29,0-2.51-0.66-2.86-1.95
				c-0.59,1.15-1.82,1.96-3.76,1.96c-2.95,0-4.37-2.01-4.37-5.22c0-3.21-0.02-6.75-0.02-6.75h3.31c0,0,0,5.01,0,6.48
				c0,1.47,0.6,2.56,2.22,2.56c1.62,0,2.39-1.12,2.39-2.69c0-1.57,0-6.34,0-6.34h3.31V52.31L639.11,52.31z"/>
		</g>
		<path class="st0" d="M673.16,49.88c0-2.02,2.24-2.87,4.04-2.15v-3.19c-1.89-0.12-3.23,0.26-4.32,1.88
			c-0.54-1.21-1.39-1.9-2.82-1.9c-0.43,0-0.98,0.09-1.4,0.19v2.45c0.62-0.07,1.23,0.02,1.23,1.78v7.54h3.28L673.16,49.88
			L673.16,49.88z"/>
		<path class="st0" d="M598.04,49.88c0-2.02,2.24-2.87,4.04-2.15v-3.19c-1.89-0.12-3.23,0.26-4.32,1.88
			c-0.54-1.21-1.39-1.9-2.82-1.9c-0.43,0-0.98,0.09-1.4,0.19v2.45c0.62-0.07,1.23,0.02,1.23,1.78v7.54h3.28L598.04,49.88
			L598.04,49.88z"/>
	</g>
	<g>
		<g>
			<path class="st1" d="M667.68,18.18l-3.99,5.66c0.63-0.22,1.31-0.35,2.02-0.35c3.32,0,6.01,2.69,6.01,6.01
				c0,3.32-2.69,6.01-6.01,6.01c-3.32,0-6.01-2.69-6.01-6.01l0,0l-3.99,5.66c1.98,3.48,5.71,5.83,9.99,5.83
				c6.34,0,11.49-5.14,11.49-11.49C677.19,23.82,673.08,19.11,667.68,18.18z"/>
		</g>
		<g>
			<path class="st2" d="M653.7,35.49c-3.32,0-6.01-2.69-6.01-6.01c0-3.32,2.69-6.01,6.01-6.01s6.01,2.69,6.01,6.01l3.99-5.66
				c-1.98-3.48-5.71-5.83-9.99-5.83c-6.34,0-11.49,5.14-11.49,11.49c0,5.67,4.11,10.38,9.51,11.31l3.99-5.66
				C655.09,35.37,654.41,35.49,653.7,35.49z"/>
		</g>
	</g>
	<g>
		<g>
			<rect x="689.39" y="18" class="st3" width="28.61" height="38.47"/>
			<g>
				<polygon class="st4" points="703.74,26.78 707.15,30.2 712.04,30.17 703.74,21.87 692.98,32.63 695.44,35.09 				"/>
				<polygon class="st5" points="712.04,30.18 703.74,38.48 700.37,35.11 695.45,35.1 703.74,43.39 714.49,32.63 				"/>
			</g>
		</g>
		<g>
			<path class="st4" d="M694.11,50.81c-0.83-0.21-0.99-0.24-0.99-0.5c0-0.28,0.27-0.38,0.5-0.38c0.35,0,0.63,0.1,0.65,0.5h0.71
				c0-0.76-0.64-1.07-1.33-1.07c-0.6,0-1.24,0.32-1.24,1c0,0.62,0.5,0.81,0.99,0.94c0.49,0.13,0.99,0.19,0.99,0.55
				c0,0.34-0.39,0.41-0.65,0.41c-0.39,0-0.73-0.17-0.73-0.62h-0.71c-0.01,0.82,0.68,1.18,1.41,1.18c0.9,0,1.38-0.46,1.38-1.07
				C695.1,51.02,694.36,50.87,694.11,50.81z"/>
			<path class="st4" d="M696.86,51.61c0,0.49-0.15,0.69-0.51,0.69c-0.31,0-0.42-0.2-0.42-0.59v-1.36h-0.66v1.48
				c0,0.59,0.18,0.99,0.88,0.99c0.28,0,0.57-0.13,0.73-0.4h0.02v0.33h0.63v-2.4h-0.66V51.61L696.86,51.61z"/>
			<path class="st4" d="M699.13,50.29c-0.3,0-0.56,0.12-0.72,0.37h-0.01v-0.31h-0.63v3.25h0.66v-1.14h0.01
				c0.16,0.24,0.43,0.36,0.72,0.36c0.7,0,1.06-0.6,1.06-1.24C700.23,50.9,699.89,50.29,699.13,50.29z M699,52.33
				c-0.43,0-0.58-0.37-0.58-0.76c0-0.39,0.14-0.77,0.57-0.77c0.42,0,0.58,0.39,0.58,0.77C699.56,51.95,699.43,52.33,699,52.33z"/>
			<path class="st4" d="M701.57,50.29c-0.73,0-1.23,0.55-1.23,1.27c0,0.74,0.47,1.26,1.23,1.26c0.54,0,0.94-0.24,1.13-0.81h-0.58
				c-0.04,0.15-0.25,0.31-0.52,0.31c-0.37,0-0.57-0.19-0.59-0.61h1.74C702.78,50.98,702.39,50.29,701.57,50.29z M701,51.3
				c0.01-0.19,0.13-0.51,0.55-0.51c0.32,0,0.47,0.18,0.53,0.51H701z"/>
			<path class="st4" d="M703.53,50.8h-0.01v-0.45h-0.63v2.4h0.66v-1.08c0-0.42,0.17-0.77,0.65-0.77c0.08,0,0.23,0.03,0.29,0.04
				v-0.63c-0.04-0.02-0.15-0.03-0.2-0.03C703.97,50.29,703.65,50.5,703.53,50.8z"/>
			<polygon class="st4" points="705.39,50.03 706.88,50.03 706.88,49.41 704.64,49.41 704.64,52.78 705.39,52.78 705.39,51.38 
				706.89,51.38 706.89,50.81 705.39,50.81 			"/>
			<path class="st4" d="M708.77,51.61c0,0.49-0.15,0.7-0.52,0.7c-0.31,0-0.43-0.2-0.43-0.6v-1.38h-0.67v1.5c0,0.6,0.18,1,0.89,1
				c0.28,0,0.57-0.13,0.74-0.4h0.02v0.34h0.64v-2.44h-0.67L708.77,51.61L708.77,51.61z"/>
			<path class="st4" d="M711.11,50.27c-0.28,0-0.57,0.13-0.74,0.4h-0.02v-0.34h-0.64v2.44h0.67V51.5c0-0.49,0.15-0.7,0.52-0.7
				c0.31,0,0.43,0.2,0.43,0.6v1.38H712v-1.5C712,50.67,711.82,50.27,711.11,50.27z"/>
			<path class="st4" d="M713.98,50.63L713.98,50.63c-0.16-0.24-0.45-0.36-0.73-0.36c-0.72,0-1.08,0.61-1.08,1.26
				c0,0.67,0.36,1.31,1.09,1.31c0.31,0,0.58-0.11,0.74-0.38h0.01v0.31h0.64v-3.37h-0.67L713.98,50.63L713.98,50.63z M713.43,52.34
				c-0.41,0-0.59-0.4-0.59-0.79c0-0.4,0.15-0.78,0.59-0.78c0.44,0,0.57,0.38,0.57,0.77C714.01,51.95,713.88,52.34,713.43,52.34z"/>
			<rect x="698.92" y="44.96" class="st4" width="0.73" height="3.32"/>
			<path class="st4" d="M700.56,47.02c0-0.49,0.15-0.69,0.51-0.69c0.31,0,0.42,0.2,0.42,0.59v1.36h0.66V46.8
				c0-0.59-0.18-0.99-0.88-0.99c-0.28,0-0.57,0.13-0.73,0.4h-0.02v-0.32h-0.63v2.4h0.66L700.56,47.02L700.56,47.02z"/>
			<path class="st4" d="M704.13,47.98h0.01v0.31h0.63v-3.32h-0.66v1.21h-0.01c-0.15-0.24-0.43-0.36-0.72-0.36
				c-0.71,0-1.07,0.6-1.07,1.25c0,0.66,0.36,1.29,1.08,1.29C703.71,48.35,703.98,48.24,704.13,47.98z M702.99,47.08
				c0-0.39,0.15-0.77,0.58-0.77s0.57,0.37,0.57,0.76s-0.13,0.77-0.57,0.77C703.16,47.85,702.99,47.46,702.99,47.08z"/>
			<path class="st4" d="M705.84,48.35c0.28,0,0.57-0.13,0.73-0.4h0.02v0.33h0.63v-2.4h-0.66v1.26c0,0.49-0.15,0.69-0.51,0.69
				c-0.31,0-0.42-0.2-0.42-0.59v-1.36h-0.66v1.48C704.97,47.95,705.14,48.35,705.84,48.35z"/>
			<path class="st4" d="M708.81,46.84c-0.38-0.09-0.75-0.12-0.75-0.36c0-0.2,0.22-0.22,0.37-0.22c0.24,0,0.43,0.07,0.45,0.32h0.63
				c-0.05-0.59-0.54-0.76-1.06-0.76c-0.51,0-1.05,0.16-1.05,0.77c0,0.42,0.38,0.56,0.76,0.64c0.47,0.1,0.75,0.17,0.75,0.37
				c0,0.23-0.24,0.31-0.43,0.31c-0.26,0-0.5-0.12-0.5-0.4h-0.63c0.03,0.64,0.57,0.84,1.13,0.84c0.55,0,1.1-0.2,1.1-0.84
				C709.57,47.07,709.2,46.93,708.81,46.84z"/>
			<path class="st4" d="M709.95,47.74c0,0.48,0.36,0.57,0.76,0.57c0.13,0,0.28-0.01,0.39-0.02v-0.51c-0.07,0.02-0.13,0.02-0.21,0.02
				c-0.22,0-0.28-0.06-0.28-0.28v-1.19h0.48v-0.45h-0.48v-0.72h-0.66v0.72h-0.4v0.44h0.4L709.95,47.74L709.95,47.74z"/>
			<path class="st4" d="M712.74,46.44l0.63,1.69c0.07,0.19-0.06,0.45-0.35,0.47c-0.01,0-0.02,0-0.03,0v0.62h0.07
				c0.4-0.02,0.75-0.15,0.93-0.6l1-2.75h-0.68l-0.53,1.65h-0.01l-0.54-1.67l-0.72-0.02c-0.24,0-0.51,0.19-0.63,0.49h-0.01v-0.45
				h-0.63v2.4h0.66V47.2c0-0.42,0.17-0.77,0.65-0.77C712.6,46.43,712.68,46.43,712.74,46.44z"/>
			<path class="st4" d="M693.41,47.55h1.24l0.25,0.74h0.76l-1.24-3.33h-0.75l-1.26,3.33h0.74L693.41,47.55z M694.04,45.79h0.01
				l0.42,1.22h-0.86L694.04,45.79z"/>
			<path class="st4" d="M696.34,47.03c0-0.49,0.15-0.69,0.51-0.69c0.31,0,0.42,0.2,0.42,0.59v1.36h0.66v-1.48
				c0-0.59-0.18-0.99-0.88-0.99c-0.28,0-0.57,0.13-0.74,0.4h-0.02v-0.33h-0.63v2.41h0.66V47.03L696.34,47.03z"/>
		</g>
	</g>
</g>
</svg>
