<?xml version="1.0" encoding="utf-8"?>
<!-- Generator: Adobe Illustrator 23.0.0, SVG Export Plug-In . SVG Version: 6.00 Build 0)  -->
<svg version="1.1" id="Layer_1" xmlns="http://www.w3.org/2000/svg" xmlns:xlink="http://www.w3.org/1999/xlink" x="0px" y="0px"
	 viewBox="0 0 728 90" style="enable-background:new 0 0 728 90;" xml:space="preserve">
<style type="text/css">
	.st0{fill:#060866;}
	.st1{fill:#FFFFFF;}
</style>
<g>
	<polygon class="st0" points="10,9 10,36 10,58 240,58 240,36 244,36 244,9 	"/>
	<path class="st1" d="M22.37,20.64l3.61-5.93h3.91v0.43l-5.84,8.54v6.23h-3.37v-6.19l-5.84-8.58v-0.43h3.91l3.61,5.93H22.37z"/>
	<path class="st1" d="M27.8,24.33c0-0.87,0.17-1.66,0.5-2.37c0.33-0.71,0.78-1.32,1.35-1.84c0.57-0.51,1.22-0.91,1.96-1.18
		c0.74-0.27,1.51-0.41,2.32-0.41c0.81,0,1.59,0.14,2.32,0.42c0.74,0.28,1.39,0.68,1.96,1.18c0.56,0.51,1.01,1.11,1.35,1.82
		c0.33,0.71,0.5,1.5,0.5,2.37c0,0.87-0.17,1.66-0.5,2.38c-0.33,0.72-0.78,1.33-1.35,1.84c-0.57,0.51-1.22,0.9-1.96,1.18
		c-0.74,0.28-1.51,0.42-2.32,0.42c-0.81,0-1.59-0.14-2.32-0.41c-0.74-0.28-1.39-0.67-1.96-1.18c-0.56-0.51-1.01-1.13-1.35-1.85
		C27.97,25.99,27.8,25.2,27.8,24.33z M30.95,24.33c0,0.43,0.08,0.84,0.24,1.22c0.16,0.38,0.38,0.7,0.65,0.97
		c0.28,0.27,0.59,0.48,0.96,0.63c0.36,0.15,0.74,0.23,1.13,0.23c0.41,0,0.79-0.08,1.14-0.23c0.35-0.15,0.67-0.37,0.94-0.64
		c0.28-0.27,0.49-0.6,0.65-0.97c0.16-0.37,0.24-0.77,0.24-1.21c0-0.43-0.08-0.83-0.24-1.2c-0.16-0.36-0.38-0.68-0.65-0.96
		c-0.28-0.27-0.59-0.49-0.94-0.64c-0.36-0.15-0.74-0.23-1.14-0.23c-0.39,0-0.77,0.08-1.13,0.23c-0.36,0.15-0.68,0.36-0.96,0.63
		c-0.28,0.27-0.49,0.59-0.65,0.96C31.03,23.49,30.95,23.89,30.95,24.33z"/>
	<path class="st1" d="M52.02,29.91h-3.24v-1.52c-0.46,0.65-0.99,1.11-1.56,1.37c-0.58,0.26-1.21,0.39-1.89,0.39
		c-0.78,0-1.43-0.14-1.94-0.43c-0.51-0.29-0.92-0.68-1.22-1.16c-0.3-0.49-0.51-1.05-0.63-1.69c-0.12-0.64-0.18-1.32-0.18-2.03v-6.06
		h3.24v6c0,0.39,0.04,0.75,0.11,1.07c0.07,0.33,0.19,0.61,0.36,0.86c0.17,0.25,0.38,0.44,0.64,0.58c0.26,0.14,0.58,0.21,0.96,0.21
		c0.38,0,0.7-0.07,0.97-0.21c0.27-0.14,0.49-0.33,0.66-0.58c0.17-0.25,0.3-0.54,0.38-0.87c0.08-0.33,0.12-0.7,0.12-1.09v-5.97h3.24
		V29.91z"/>
	<path class="st1" d="M70.33,14.21v15.7H67.1v-1.63c-0.41,0.58-0.88,1.03-1.43,1.37c-0.55,0.33-1.24,0.5-2.06,0.5
		c-0.85,0-1.61-0.15-2.28-0.46c-0.67-0.3-1.24-0.72-1.71-1.25c-0.47-0.53-0.83-1.15-1.08-1.87c-0.25-0.72-0.37-1.48-0.37-2.29
		c0-0.78,0.12-1.52,0.35-2.22c0.23-0.7,0.58-1.31,1.03-1.83c0.46-0.53,1.02-0.95,1.68-1.25c0.67-0.3,1.43-0.46,2.3-0.46
		c0.75,0,1.44,0.17,2.06,0.5c0.62,0.33,1.12,0.75,1.5,1.26v-6.08H70.33z M61.41,24.31c0,0.45,0.07,0.87,0.2,1.26
		c0.13,0.39,0.32,0.73,0.56,1.02s0.55,0.52,0.9,0.68c0.35,0.17,0.76,0.25,1.21,0.25c0.39,0,0.76-0.06,1.12-0.19
		c0.35-0.13,0.67-0.32,0.93-0.58c0.27-0.25,0.48-0.57,0.63-0.95c0.15-0.38,0.23-0.82,0.23-1.32c0-1.04-0.28-1.86-0.84-2.44
		c-0.56-0.59-1.28-0.88-2.16-0.88c-0.45,0-0.84,0.08-1.18,0.25c-0.34,0.17-0.63,0.39-0.87,0.68c-0.24,0.29-0.42,0.62-0.54,1
		C61.47,23.47,61.41,23.87,61.41,24.31z"/>
	<path class="st1" d="M83.37,27.96c-0.39,0.43-0.81,0.79-1.27,1.08c-0.46,0.28-0.91,0.51-1.37,0.67c-0.46,0.17-0.9,0.28-1.34,0.35
		c-0.43,0.06-0.84,0.1-1.22,0.1c-1.03,0-1.94-0.15-2.74-0.46c-0.8-0.3-1.47-0.72-2.01-1.24c-0.54-0.52-0.95-1.13-1.23-1.82
		c-0.28-0.7-0.41-1.44-0.41-2.24c0-0.82,0.15-1.59,0.46-2.3c0.3-0.71,0.73-1.33,1.27-1.86c0.54-0.53,1.19-0.95,1.94-1.25
		c0.75-0.3,1.58-0.46,2.48-0.46c0.77,0,1.51,0.13,2.24,0.4c0.72,0.27,1.37,0.67,1.93,1.22c0.57,0.54,1.02,1.23,1.36,2.05
		c0.34,0.82,0.51,1.79,0.51,2.89H75c0.03,0.7,0.34,1.27,0.94,1.73c0.6,0.46,1.42,0.68,2.47,0.68c0.58,0,1.14-0.13,1.68-0.38
		c0.54-0.25,1.01-0.57,1.4-0.94L83.37,27.96z M77.89,21.16c-0.26,0-0.54,0.03-0.82,0.1c-0.29,0.06-0.57,0.17-0.83,0.33
		c-0.26,0.15-0.5,0.36-0.71,0.61c-0.21,0.25-0.37,0.57-0.47,0.95h5.58c-0.06-0.36-0.18-0.67-0.37-0.91
		c-0.19-0.25-0.42-0.45-0.68-0.61s-0.55-0.27-0.85-0.35C78.45,21.19,78.17,21.16,77.89,21.16z"/>
	<path class="st1" d="M86.69,25.98c0.09,0.32,0.21,0.59,0.38,0.8c0.17,0.22,0.36,0.39,0.58,0.52c0.22,0.13,0.45,0.22,0.7,0.27
		c0.25,0.05,0.48,0.08,0.69,0.08c0.36,0,0.7-0.07,1-0.21s0.46-0.35,0.46-0.64c0-0.19-0.06-0.35-0.18-0.48
		c-0.12-0.13-0.34-0.25-0.64-0.37l-1.95-0.82c-0.67-0.23-1.18-0.51-1.55-0.82c-0.37-0.32-0.64-0.63-0.83-0.93
		c-0.18-0.3-0.29-0.59-0.34-0.85c-0.04-0.26-0.07-0.46-0.07-0.59c0-0.56,0.12-1.06,0.35-1.48c0.23-0.42,0.55-0.77,0.94-1.06
		s0.86-0.51,1.39-0.65c0.53-0.14,1.09-0.22,1.68-0.22c0.32,0,0.66,0.03,1.02,0.09c0.36,0.06,0.72,0.17,1.08,0.34s0.7,0.41,1.03,0.72
		c0.33,0.31,0.63,0.71,0.89,1.21l-2.5,1.15c-0.07-0.22-0.17-0.4-0.29-0.54c-0.12-0.14-0.26-0.25-0.41-0.33
		c-0.15-0.07-0.3-0.12-0.46-0.15c-0.15-0.03-0.29-0.04-0.42-0.04c-0.3,0-0.59,0.08-0.85,0.24c-0.26,0.16-0.39,0.38-0.39,0.67
		c0,0.25,0.1,0.44,0.3,0.58s0.45,0.26,0.74,0.38l1.67,0.65c0.65,0.19,1.17,0.43,1.55,0.72c0.38,0.29,0.67,0.59,0.87,0.9
		c0.2,0.31,0.32,0.61,0.37,0.89s0.08,0.52,0.08,0.71c0,0.56-0.12,1.06-0.37,1.5c-0.25,0.43-0.58,0.8-0.99,1.09
		c-0.41,0.29-0.9,0.51-1.46,0.65c-0.56,0.14-1.14,0.22-1.75,0.22c-0.42,0-0.86-0.04-1.32-0.12c-0.46-0.08-0.91-0.22-1.35-0.43
		c-0.43-0.21-0.83-0.5-1.18-0.87c-0.35-0.37-0.63-0.84-0.81-1.42L86.69,25.98z"/>
	<path class="st1" d="M105.89,27.96c-0.39,0.43-0.81,0.79-1.27,1.08c-0.46,0.28-0.91,0.51-1.37,0.67c-0.46,0.17-0.9,0.28-1.34,0.35
		c-0.43,0.06-0.84,0.1-1.22,0.1c-1.03,0-1.94-0.15-2.74-0.46c-0.8-0.3-1.47-0.72-2.01-1.24c-0.54-0.52-0.95-1.13-1.23-1.82
		c-0.28-0.7-0.41-1.44-0.41-2.24c0-0.82,0.15-1.59,0.46-2.3c0.3-0.71,0.73-1.33,1.27-1.86c0.54-0.53,1.19-0.95,1.94-1.25
		c0.75-0.3,1.58-0.46,2.48-0.46c0.77,0,1.51,0.13,2.24,0.4c0.72,0.27,1.37,0.67,1.93,1.22c0.57,0.54,1.02,1.23,1.36,2.05
		c0.34,0.82,0.51,1.79,0.51,2.89h-8.97c0.03,0.7,0.34,1.27,0.94,1.73c0.6,0.46,1.42,0.68,2.47,0.68c0.58,0,1.14-0.13,1.68-0.38
		c0.54-0.25,1.01-0.57,1.4-0.94L105.89,27.96z M100.42,21.16c-0.26,0-0.54,0.03-0.82,0.1c-0.29,0.06-0.57,0.17-0.83,0.33
		c-0.26,0.15-0.5,0.36-0.71,0.61c-0.21,0.25-0.37,0.57-0.47,0.95h5.58c-0.06-0.36-0.18-0.67-0.37-0.91
		c-0.19-0.25-0.42-0.45-0.68-0.61s-0.55-0.27-0.85-0.35C100.98,21.19,100.69,21.16,100.42,21.16z"/>
	<path class="st1" d="M110.89,21.2c0.09-0.51,0.25-0.93,0.49-1.27c0.24-0.34,0.51-0.62,0.81-0.82c0.3-0.21,0.61-0.36,0.92-0.45
		c0.31-0.09,0.59-0.13,0.84-0.13c0.19,0,0.33,0.01,0.42,0.02c0.09,0.01,0.23,0.04,0.4,0.06v3.19c-0.23-0.06-0.48-0.1-0.74-0.12
		c-0.26-0.02-0.47-0.03-0.63-0.03c-0.3,0-0.6,0.04-0.89,0.13c-0.29,0.09-0.55,0.23-0.78,0.41c-0.23,0.19-0.42,0.42-0.55,0.69
		c-0.14,0.28-0.21,0.59-0.21,0.96v6.06h-3.24V18.77h3.15V21.2z"/>
	<path class="st1" d="M122.53,29.91h-3.21l-4.67-11.14h3.54l2.72,7.52l2.74-7.52h3.54L122.53,29.91z"/>
	<path class="st1" d="M138.54,27.96c-0.39,0.43-0.81,0.79-1.27,1.08c-0.46,0.28-0.91,0.51-1.37,0.67c-0.46,0.17-0.9,0.28-1.34,0.35
		c-0.43,0.06-0.84,0.1-1.22,0.1c-1.03,0-1.94-0.15-2.74-0.46c-0.8-0.3-1.47-0.72-2.01-1.24c-0.54-0.52-0.95-1.13-1.23-1.82
		c-0.28-0.7-0.41-1.44-0.41-2.24c0-0.82,0.15-1.59,0.46-2.3c0.3-0.71,0.73-1.33,1.27-1.86c0.54-0.53,1.19-0.95,1.94-1.25
		c0.75-0.3,1.58-0.46,2.48-0.46c0.77,0,1.51,0.13,2.24,0.4c0.72,0.27,1.37,0.67,1.93,1.22c0.57,0.54,1.02,1.23,1.36,2.05
		c0.34,0.82,0.51,1.79,0.51,2.89h-8.97c0.03,0.7,0.34,1.27,0.94,1.73c0.6,0.46,1.42,0.68,2.47,0.68c0.58,0,1.14-0.13,1.68-0.38
		c0.54-0.25,1.01-0.57,1.4-0.94L138.54,27.96z M133.07,21.16c-0.26,0-0.54,0.03-0.82,0.1c-0.29,0.06-0.57,0.17-0.83,0.33
		c-0.26,0.15-0.5,0.36-0.71,0.61c-0.21,0.25-0.37,0.57-0.47,0.95h5.58c-0.06-0.36-0.18-0.67-0.37-0.91
		c-0.19-0.25-0.42-0.45-0.68-0.61s-0.55-0.27-0.85-0.35C133.63,21.19,133.34,21.16,133.07,21.16z"/>
	<path class="st1" d="M146.51,25.98c0.09,0.32,0.21,0.59,0.38,0.8c0.17,0.22,0.36,0.39,0.58,0.52c0.22,0.13,0.45,0.22,0.7,0.27
		c0.25,0.05,0.48,0.08,0.69,0.08c0.36,0,0.7-0.07,1-0.21s0.46-0.35,0.46-0.64c0-0.19-0.06-0.35-0.18-0.48
		c-0.12-0.13-0.34-0.25-0.64-0.37l-1.95-0.82c-0.67-0.23-1.18-0.51-1.55-0.82c-0.37-0.32-0.64-0.63-0.83-0.93
		c-0.18-0.3-0.29-0.59-0.34-0.85c-0.04-0.26-0.07-0.46-0.07-0.59c0-0.56,0.12-1.06,0.35-1.48c0.23-0.42,0.55-0.77,0.94-1.06
		c0.4-0.29,0.86-0.51,1.39-0.65c0.53-0.14,1.09-0.22,1.68-0.22c0.32,0,0.66,0.03,1.02,0.09c0.36,0.06,0.72,0.17,1.08,0.34
		s0.7,0.41,1.03,0.72c0.33,0.31,0.63,0.71,0.89,1.21l-2.5,1.15c-0.07-0.22-0.17-0.4-0.29-0.54c-0.12-0.14-0.26-0.25-0.41-0.33
		c-0.15-0.07-0.3-0.12-0.46-0.15c-0.15-0.03-0.29-0.04-0.42-0.04c-0.3,0-0.59,0.08-0.85,0.24c-0.26,0.16-0.39,0.38-0.39,0.67
		c0,0.25,0.1,0.44,0.3,0.58c0.2,0.14,0.45,0.26,0.74,0.38l1.67,0.65c0.65,0.19,1.17,0.43,1.55,0.72c0.38,0.29,0.67,0.59,0.87,0.9
		c0.2,0.31,0.32,0.61,0.37,0.89s0.08,0.52,0.08,0.71c0,0.56-0.12,1.06-0.37,1.5c-0.25,0.43-0.58,0.8-0.99,1.09
		c-0.41,0.29-0.9,0.51-1.46,0.65c-0.56,0.14-1.14,0.22-1.75,0.22c-0.42,0-0.86-0.04-1.32-0.12c-0.46-0.08-0.91-0.22-1.35-0.43
		c-0.43-0.21-0.83-0.5-1.18-0.87c-0.35-0.37-0.63-0.84-0.81-1.42L146.51,25.98z"/>
	<path class="st1" d="M154.14,24.33c0-0.87,0.17-1.66,0.5-2.37c0.33-0.71,0.78-1.32,1.35-1.84c0.57-0.51,1.22-0.91,1.96-1.18
		c0.74-0.27,1.51-0.41,2.32-0.41c0.81,0,1.59,0.14,2.32,0.42c0.74,0.28,1.39,0.68,1.96,1.18c0.56,0.51,1.01,1.11,1.35,1.82
		c0.33,0.71,0.5,1.5,0.5,2.37c0,0.87-0.17,1.66-0.5,2.38c-0.33,0.72-0.78,1.33-1.35,1.84c-0.57,0.51-1.22,0.9-1.96,1.18
		c-0.74,0.28-1.51,0.42-2.32,0.42c-0.81,0-1.59-0.14-2.32-0.41c-0.74-0.28-1.39-0.67-1.96-1.18c-0.56-0.51-1.01-1.13-1.35-1.85
		C154.3,25.99,154.14,25.2,154.14,24.33z M157.29,24.33c0,0.43,0.08,0.84,0.24,1.22c0.16,0.38,0.38,0.7,0.65,0.97
		c0.28,0.27,0.59,0.48,0.96,0.63c0.36,0.15,0.74,0.23,1.13,0.23c0.41,0,0.79-0.08,1.14-0.23c0.35-0.15,0.67-0.37,0.94-0.64
		c0.28-0.27,0.49-0.6,0.65-0.97c0.16-0.37,0.24-0.77,0.24-1.21c0-0.43-0.08-0.83-0.24-1.2c-0.16-0.36-0.38-0.68-0.65-0.96
		c-0.28-0.27-0.59-0.49-0.94-0.64c-0.36-0.15-0.74-0.23-1.14-0.23c-0.39,0-0.77,0.08-1.13,0.23c-0.36,0.15-0.68,0.36-0.96,0.63
		c-0.28,0.27-0.49,0.59-0.65,0.96C157.37,23.49,157.29,23.89,157.29,24.33z"/>
	<path class="st1" d="M179.83,21.2c-0.35,0-0.64,0.07-0.88,0.22c-0.24,0.14-0.43,0.34-0.58,0.59c-0.14,0.25-0.25,0.54-0.3,0.87
		c-0.06,0.33-0.09,0.69-0.09,1.06v5.97h-3.21v-6c0-0.38-0.03-0.73-0.09-1.06c-0.06-0.33-0.16-0.62-0.3-0.87
		c-0.14-0.25-0.34-0.44-0.58-0.58c-0.24-0.14-0.54-0.21-0.9-0.21c-0.35,0-0.64,0.07-0.88,0.22c-0.24,0.14-0.43,0.34-0.58,0.59
		c-0.14,0.25-0.25,0.54-0.3,0.87c-0.06,0.33-0.09,0.69-0.09,1.06v5.97h-3.24V18.77h3.24v1.52c0.36-0.55,0.8-0.98,1.3-1.29
		c0.51-0.31,1.06-0.47,1.67-0.47c0.85,0,1.56,0.17,2.13,0.51c0.57,0.34,0.99,0.79,1.28,1.36c0.22-0.41,0.47-0.73,0.76-0.98
		c0.29-0.25,0.59-0.43,0.91-0.56c0.32-0.13,0.64-0.22,0.97-0.26c0.33-0.04,0.62-0.06,0.88-0.06c0.78,0,1.43,0.14,1.94,0.43
		c0.51,0.29,0.92,0.68,1.22,1.17c0.3,0.49,0.51,1.06,0.63,1.69c0.12,0.64,0.18,1.31,0.18,2.02v6.06h-3.24v-6
		c0-0.38-0.03-0.73-0.09-1.06c-0.06-0.33-0.16-0.62-0.3-0.87c-0.14-0.25-0.34-0.44-0.58-0.58C180.5,21.27,180.2,21.2,179.83,21.2z"
		/>
	<path class="st1" d="M197.82,27.96c-0.39,0.43-0.81,0.79-1.27,1.08c-0.46,0.28-0.91,0.51-1.37,0.67c-0.46,0.17-0.9,0.28-1.34,0.35
		c-0.43,0.06-0.84,0.1-1.22,0.1c-1.03,0-1.94-0.15-2.74-0.46c-0.8-0.3-1.47-0.72-2.01-1.24c-0.54-0.52-0.95-1.13-1.23-1.82
		c-0.28-0.7-0.41-1.44-0.41-2.24c0-0.82,0.15-1.59,0.46-2.3c0.3-0.71,0.73-1.33,1.27-1.86c0.54-0.53,1.19-0.95,1.94-1.25
		c0.75-0.3,1.58-0.46,2.48-0.46c0.77,0,1.51,0.13,2.24,0.4c0.72,0.27,1.37,0.67,1.93,1.22c0.57,0.54,1.02,1.23,1.36,2.05
		c0.34,0.82,0.51,1.79,0.51,2.89h-8.97c0.03,0.7,0.34,1.27,0.94,1.73c0.6,0.46,1.42,0.68,2.47,0.68c0.58,0,1.14-0.13,1.68-0.38
		c0.54-0.25,1.01-0.57,1.4-0.94L197.82,27.96z M192.35,21.16c-0.26,0-0.54,0.03-0.82,0.1c-0.29,0.06-0.57,0.17-0.83,0.33
		c-0.26,0.15-0.5,0.36-0.71,0.61c-0.21,0.25-0.37,0.57-0.47,0.95h5.58c-0.06-0.36-0.18-0.67-0.37-0.91
		c-0.19-0.25-0.42-0.45-0.68-0.61s-0.55-0.27-0.85-0.35C192.91,21.19,192.62,21.16,192.35,21.16z"/>
	<path class="st1" d="M198.97,24.33c0-0.87,0.17-1.66,0.5-2.37c0.33-0.71,0.78-1.32,1.35-1.84c0.57-0.51,1.22-0.91,1.96-1.18
		c0.74-0.27,1.51-0.41,2.32-0.41c0.81,0,1.59,0.14,2.32,0.42c0.74,0.28,1.39,0.68,1.96,1.18c0.56,0.51,1.01,1.11,1.35,1.82
		c0.33,0.71,0.5,1.5,0.5,2.37c0,0.87-0.17,1.66-0.5,2.38c-0.33,0.72-0.78,1.33-1.35,1.84c-0.57,0.51-1.22,0.9-1.96,1.18
		c-0.74,0.28-1.51,0.42-2.32,0.42c-0.81,0-1.59-0.14-2.32-0.41c-0.74-0.28-1.39-0.67-1.96-1.18c-0.56-0.51-1.01-1.13-1.35-1.85
		C199.14,25.99,198.97,25.2,198.97,24.33z M202.12,24.33c0,0.43,0.08,0.84,0.24,1.22c0.16,0.38,0.38,0.7,0.65,0.97
		c0.28,0.27,0.59,0.48,0.96,0.63c0.36,0.15,0.74,0.23,1.13,0.23c0.41,0,0.79-0.08,1.14-0.23c0.35-0.15,0.67-0.37,0.94-0.64
		c0.28-0.27,0.49-0.6,0.65-0.97c0.16-0.37,0.24-0.77,0.24-1.21c0-0.43-0.08-0.83-0.24-1.2c-0.16-0.36-0.38-0.68-0.65-0.96
		c-0.28-0.27-0.59-0.49-0.94-0.64c-0.36-0.15-0.74-0.23-1.14-0.23c-0.39,0-0.77,0.08-1.13,0.23c-0.36,0.15-0.68,0.36-0.96,0.63
		c-0.28,0.27-0.49,0.59-0.65,0.96C202.2,23.49,202.12,23.89,202.12,24.33z"/>
	<path class="st1" d="M212.66,18.77h3.24v1.52c0.46-0.65,0.98-1.11,1.56-1.37c0.58-0.26,1.21-0.39,1.89-0.39
		c0.78,0,1.43,0.14,1.94,0.43c0.51,0.29,0.92,0.68,1.22,1.17c0.3,0.49,0.51,1.06,0.63,1.69c0.12,0.64,0.19,1.31,0.19,2.02v6.06
		h-3.24v-6c0-0.39-0.04-0.75-0.11-1.08c-0.07-0.33-0.19-0.61-0.36-0.86c-0.17-0.25-0.38-0.44-0.64-0.58
		c-0.26-0.14-0.58-0.21-0.96-0.21c-0.38,0-0.7,0.07-0.97,0.21s-0.49,0.33-0.66,0.58c-0.17,0.25-0.3,0.54-0.38,0.87
		c-0.08,0.33-0.12,0.69-0.12,1.09v5.97h-3.24V18.77z"/>
	<path class="st1" d="M236.2,27.96c-0.39,0.43-0.81,0.79-1.27,1.08c-0.46,0.28-0.91,0.51-1.37,0.67c-0.46,0.17-0.9,0.28-1.34,0.35
		c-0.43,0.06-0.84,0.1-1.22,0.1c-1.03,0-1.94-0.15-2.74-0.46c-0.8-0.3-1.47-0.72-2.01-1.24c-0.54-0.52-0.95-1.13-1.23-1.82
		c-0.28-0.7-0.41-1.44-0.41-2.24c0-0.82,0.15-1.59,0.46-2.3c0.3-0.71,0.73-1.33,1.27-1.86c0.54-0.53,1.19-0.95,1.94-1.25
		c0.75-0.3,1.58-0.46,2.48-0.46c0.77,0,1.51,0.13,2.24,0.4c0.72,0.27,1.37,0.67,1.93,1.22c0.57,0.54,1.02,1.23,1.36,2.05
		c0.34,0.82,0.51,1.79,0.51,2.89h-8.97c0.03,0.7,0.34,1.27,0.94,1.73c0.6,0.46,1.42,0.68,2.47,0.68c0.58,0,1.14-0.13,1.68-0.38
		c0.54-0.25,1.01-0.57,1.4-0.94L236.2,27.96z M230.73,21.16c-0.26,0-0.54,0.03-0.82,0.1c-0.29,0.06-0.57,0.17-0.83,0.33
		c-0.26,0.15-0.5,0.36-0.71,0.61c-0.21,0.25-0.37,0.57-0.47,0.95h5.58c-0.06-0.36-0.18-0.67-0.37-0.91
		c-0.19-0.25-0.42-0.45-0.68-0.61s-0.55-0.27-0.85-0.35C231.29,21.19,231,21.16,230.73,21.16z"/>
	<path class="st1" d="M22.33,40.79h2.26l2.02,6.41l1.93-6.71h3.56l-0.87,2.54l-3.11,8.6h-2.76l-1.91-6.32l-1.91,6.32h-2.76
		l-3.11-8.6l-0.87-2.54h3.56l1.93,6.71L22.33,40.79z"/>
	<path class="st1" d="M33.23,35.93h3.24v6.08c0.46-0.65,0.98-1.11,1.56-1.37c0.58-0.26,1.21-0.39,1.89-0.39
		c0.78,0,1.43,0.14,1.94,0.43c0.51,0.29,0.92,0.68,1.22,1.17c0.3,0.49,0.51,1.06,0.63,1.69c0.12,0.64,0.18,1.31,0.18,2.02v6.06
		h-3.24v-6c0-0.39-0.04-0.75-0.11-1.08c-0.07-0.33-0.19-0.61-0.36-0.86c-0.17-0.25-0.38-0.44-0.64-0.58
		c-0.26-0.14-0.58-0.21-0.96-0.21c-0.38,0-0.7,0.07-0.97,0.21s-0.49,0.33-0.66,0.58c-0.17,0.25-0.3,0.54-0.38,0.87
		c-0.08,0.33-0.12,0.69-0.12,1.09v5.97h-3.24V35.93z"/>
	<path class="st1" d="M45.2,46.05c0-0.87,0.17-1.66,0.5-2.37c0.33-0.71,0.78-1.32,1.35-1.84c0.57-0.51,1.22-0.91,1.96-1.18
		c0.74-0.27,1.51-0.41,2.32-0.41s1.59,0.14,2.32,0.42c0.74,0.28,1.39,0.68,1.96,1.18c0.56,0.51,1.01,1.11,1.35,1.82
		c0.33,0.71,0.5,1.5,0.5,2.37c0,0.87-0.17,1.66-0.5,2.38c-0.33,0.72-0.78,1.33-1.35,1.84c-0.57,0.51-1.22,0.9-1.96,1.18
		c-0.74,0.28-1.51,0.42-2.32,0.42s-1.59-0.14-2.32-0.41c-0.74-0.28-1.39-0.67-1.96-1.18c-0.56-0.51-1.01-1.13-1.35-1.85
		C45.37,47.71,45.2,46.92,45.2,46.05z M48.35,46.05c0,0.43,0.08,0.84,0.24,1.22c0.16,0.38,0.38,0.7,0.65,0.97
		c0.28,0.27,0.59,0.48,0.96,0.63c0.36,0.15,0.74,0.23,1.13,0.23c0.41,0,0.79-0.08,1.14-0.23c0.35-0.15,0.67-0.37,0.94-0.64
		c0.28-0.27,0.49-0.6,0.65-0.97c0.16-0.37,0.24-0.77,0.24-1.21s-0.08-0.83-0.24-1.2c-0.16-0.36-0.38-0.68-0.65-0.96
		c-0.28-0.27-0.59-0.49-0.94-0.64c-0.36-0.15-0.74-0.23-1.14-0.23c-0.39,0-0.77,0.08-1.13,0.23c-0.36,0.15-0.68,0.36-0.96,0.63
		c-0.28,0.27-0.49,0.59-0.65,0.96C48.43,45.21,48.35,45.62,48.35,46.05z"/>
	<path class="st1" d="M62.84,46.05c0-0.82,0.14-1.59,0.43-2.3c0.29-0.71,0.71-1.32,1.25-1.83c0.54-0.51,1.2-0.92,1.97-1.22
		c0.77-0.3,1.63-0.44,2.59-0.44c0.29,0,0.6,0.02,0.93,0.05c0.33,0.04,0.69,0.12,1.06,0.24c0.38,0.12,0.78,0.29,1.21,0.51
		c0.43,0.22,0.88,0.5,1.36,0.85l-1.48,2.37c-0.28-0.25-0.55-0.44-0.84-0.59c-0.28-0.14-0.56-0.26-0.83-0.34
		c-0.27-0.08-0.51-0.13-0.73-0.15c-0.22-0.02-0.4-0.03-0.54-0.03c-0.96,0-1.72,0.27-2.29,0.8c-0.57,0.54-0.86,1.23-0.86,2.08
		s0.29,1.55,0.86,2.08c0.57,0.54,1.34,0.8,2.29,0.8c0.14,0,0.33-0.01,0.54-0.03c0.22-0.02,0.46-0.07,0.73-0.15
		c0.27-0.08,0.54-0.19,0.83-0.34s0.56-0.34,0.84-0.59l1.48,2.37c-0.48,0.35-0.93,0.63-1.36,0.85c-0.43,0.22-0.83,0.39-1.21,0.51
		c-0.38,0.12-0.73,0.2-1.06,0.24c-0.33,0.04-0.64,0.05-0.93,0.05c-0.96,0-1.82-0.15-2.59-0.45c-0.77-0.3-1.42-0.7-1.97-1.22
		c-0.54-0.51-0.96-1.13-1.25-1.83C62.98,47.65,62.84,46.88,62.84,46.05z"/>
	<path class="st1" d="M86.23,40.49v11.14H83v-1.63c-0.41,0.58-0.88,1.03-1.43,1.37c-0.55,0.33-1.24,0.5-2.06,0.5
		c-0.85,0-1.61-0.15-2.28-0.46c-0.67-0.3-1.24-0.72-1.71-1.25c-0.47-0.53-0.83-1.15-1.08-1.87c-0.25-0.72-0.37-1.48-0.37-2.29
		c0-0.78,0.12-1.52,0.35-2.22c0.23-0.7,0.58-1.31,1.03-1.83c0.46-0.53,1.02-0.95,1.68-1.25c0.67-0.3,1.43-0.46,2.3-0.46
		c0.75,0,1.44,0.17,2.06,0.5c0.62,0.33,1.12,0.75,1.5,1.26v-1.52H86.23z M77.31,46.03c0,0.45,0.07,0.87,0.2,1.26
		c0.13,0.39,0.32,0.73,0.56,1.02c0.25,0.29,0.55,0.52,0.9,0.68c0.35,0.17,0.76,0.25,1.21,0.25c0.39,0,0.76-0.06,1.12-0.19
		c0.35-0.13,0.67-0.32,0.93-0.58c0.27-0.25,0.48-0.57,0.63-0.95c0.15-0.38,0.23-0.82,0.23-1.32c0-1.04-0.28-1.86-0.84-2.44
		c-0.56-0.59-1.28-0.88-2.16-0.88c-0.45,0-0.84,0.08-1.18,0.25c-0.34,0.17-0.63,0.39-0.87,0.68c-0.24,0.29-0.42,0.62-0.54,1
		C77.37,45.19,77.31,45.6,77.31,46.03z"/>
	<path class="st1" d="M91.51,42.92c0.09-0.51,0.25-0.93,0.49-1.27c0.24-0.34,0.51-0.62,0.81-0.82c0.3-0.21,0.61-0.36,0.92-0.45
		c0.31-0.09,0.59-0.13,0.84-0.13c0.19,0,0.33,0.01,0.42,0.02c0.09,0.01,0.23,0.04,0.4,0.06v3.19c-0.23-0.06-0.48-0.1-0.74-0.12
		c-0.26-0.02-0.47-0.03-0.63-0.03c-0.3,0-0.6,0.04-0.89,0.13c-0.29,0.09-0.55,0.23-0.78,0.41c-0.23,0.19-0.42,0.42-0.55,0.69
		c-0.14,0.28-0.21,0.59-0.21,0.96v6.06h-3.24V40.49h3.15V42.92z"/>
	<path class="st1" d="M107.17,49.68c-0.39,0.43-0.81,0.79-1.27,1.08c-0.46,0.28-0.91,0.51-1.37,0.67s-0.9,0.28-1.34,0.35
		c-0.43,0.06-0.84,0.1-1.22,0.1c-1.03,0-1.94-0.15-2.74-0.46c-0.8-0.3-1.47-0.72-2.01-1.24c-0.54-0.52-0.95-1.13-1.23-1.82
		c-0.28-0.7-0.41-1.44-0.41-2.24c0-0.82,0.15-1.59,0.46-2.3c0.3-0.71,0.73-1.33,1.27-1.86c0.54-0.53,1.19-0.95,1.94-1.25
		c0.75-0.3,1.58-0.46,2.48-0.46c0.77,0,1.51,0.13,2.24,0.4c0.72,0.27,1.37,0.67,1.93,1.22c0.57,0.54,1.02,1.23,1.36,2.05
		c0.34,0.82,0.51,1.79,0.51,2.89h-8.97c0.03,0.7,0.34,1.27,0.94,1.73c0.6,0.46,1.42,0.68,2.47,0.68c0.58,0,1.14-0.13,1.68-0.38
		c0.54-0.25,1.01-0.57,1.4-0.94L107.17,49.68z M101.7,42.88c-0.26,0-0.54,0.03-0.82,0.1c-0.29,0.06-0.57,0.17-0.83,0.33
		c-0.26,0.15-0.5,0.36-0.71,0.61c-0.21,0.25-0.37,0.57-0.47,0.95h5.58c-0.06-0.36-0.18-0.67-0.37-0.91
		c-0.19-0.25-0.42-0.45-0.68-0.61s-0.55-0.27-0.85-0.35C102.26,42.92,101.97,42.88,101.7,42.88z"/>
	<path class="st1" d="M110.5,47.7c0.09,0.32,0.21,0.59,0.38,0.8c0.17,0.22,0.36,0.39,0.58,0.52c0.22,0.13,0.45,0.22,0.7,0.27
		c0.25,0.05,0.48,0.08,0.69,0.08c0.36,0,0.7-0.07,1-0.21c0.3-0.14,0.46-0.35,0.46-0.64c0-0.19-0.06-0.35-0.18-0.48
		c-0.12-0.13-0.34-0.25-0.64-0.37l-1.95-0.82c-0.67-0.23-1.18-0.51-1.55-0.82c-0.37-0.32-0.64-0.63-0.83-0.93
		c-0.18-0.3-0.29-0.59-0.34-0.85c-0.04-0.26-0.07-0.46-0.07-0.59c0-0.56,0.12-1.06,0.35-1.48c0.23-0.42,0.55-0.77,0.94-1.06
		c0.4-0.29,0.86-0.51,1.39-0.65c0.53-0.14,1.09-0.22,1.68-0.22c0.32,0,0.66,0.03,1.02,0.09c0.36,0.06,0.72,0.17,1.08,0.34
		c0.35,0.17,0.7,0.41,1.03,0.72c0.33,0.31,0.63,0.71,0.89,1.21l-2.5,1.15c-0.07-0.22-0.17-0.4-0.29-0.54
		c-0.12-0.14-0.26-0.25-0.41-0.33c-0.15-0.07-0.3-0.12-0.46-0.15c-0.15-0.03-0.29-0.04-0.42-0.04c-0.3,0-0.59,0.08-0.85,0.24
		c-0.26,0.16-0.39,0.38-0.39,0.67c0,0.25,0.1,0.44,0.3,0.58s0.45,0.26,0.74,0.38l1.67,0.65c0.65,0.19,1.17,0.43,1.55,0.72
		c0.38,0.29,0.67,0.59,0.87,0.9c0.2,0.31,0.32,0.61,0.37,0.89c0.05,0.28,0.08,0.52,0.08,0.71c0,0.56-0.12,1.06-0.37,1.5
		c-0.25,0.43-0.58,0.8-0.99,1.09c-0.41,0.29-0.9,0.51-1.46,0.65c-0.56,0.14-1.14,0.22-1.75,0.22c-0.42,0-0.86-0.04-1.32-0.12
		c-0.46-0.08-0.91-0.22-1.35-0.43c-0.43-0.21-0.83-0.5-1.18-0.87c-0.35-0.37-0.63-0.84-0.81-1.42L110.5,47.7z"/>
	<path class="st1" d="M134.98,40.49v11.14h-3.24v-1.63c-0.41,0.58-0.88,1.03-1.43,1.37c-0.55,0.33-1.24,0.5-2.06,0.5
		c-0.85,0-1.61-0.15-2.28-0.46c-0.67-0.3-1.24-0.72-1.71-1.25c-0.47-0.53-0.83-1.15-1.08-1.87c-0.25-0.72-0.37-1.48-0.37-2.29
		c0-0.78,0.12-1.52,0.35-2.22c0.23-0.7,0.58-1.31,1.03-1.83c0.46-0.53,1.02-0.95,1.68-1.25s1.43-0.46,2.3-0.46
		c0.75,0,1.44,0.17,2.06,0.5c0.62,0.33,1.12,0.75,1.5,1.26v-1.52H134.98z M126.05,46.03c0,0.45,0.07,0.87,0.2,1.26
		c0.13,0.39,0.32,0.73,0.56,1.02c0.25,0.29,0.55,0.52,0.9,0.68c0.35,0.17,0.76,0.25,1.21,0.25c0.39,0,0.76-0.06,1.12-0.19
		c0.35-0.13,0.67-0.32,0.93-0.58c0.27-0.25,0.48-0.57,0.63-0.95c0.15-0.38,0.23-0.82,0.23-1.32c0-1.04-0.28-1.86-0.84-2.44
		c-0.56-0.59-1.28-0.88-2.16-0.88c-0.45,0-0.84,0.08-1.18,0.25c-0.34,0.17-0.63,0.39-0.87,0.68c-0.24,0.29-0.42,0.62-0.54,1
		C126.11,45.19,126.05,45.6,126.05,46.03z"/>
	<path class="st1" d="M149.27,46.01c0,0.81-0.12,1.57-0.37,2.29c-0.25,0.72-0.6,1.34-1.07,1.87c-0.47,0.53-1.04,0.95-1.72,1.25
		c-0.67,0.3-1.43,0.46-2.27,0.46c-0.83,0-1.51-0.17-2.06-0.5c-0.55-0.33-1.03-0.79-1.43-1.37v1.63h-3.24v-15.7h3.24v6.08
		c0.38-0.51,0.88-0.93,1.5-1.26c0.62-0.33,1.31-0.5,2.06-0.5c0.87,0,1.64,0.15,2.3,0.46s1.23,0.72,1.68,1.25
		c0.46,0.53,0.8,1.14,1.03,1.83C149.15,44.49,149.27,45.23,149.27,46.01z M146.03,46.03c0-0.43-0.06-0.84-0.18-1.22
		c-0.12-0.38-0.3-0.71-0.54-1c-0.24-0.29-0.53-0.52-0.87-0.68c-0.34-0.17-0.74-0.25-1.18-0.25c-0.88,0-1.6,0.29-2.16,0.88
		c-0.56,0.59-0.84,1.4-0.84,2.44c0,0.51,0.08,0.95,0.23,1.32c0.15,0.38,0.36,0.69,0.63,0.95c0.27,0.25,0.58,0.45,0.93,0.58
		c0.35,0.13,0.73,0.19,1.12,0.19c0.45,0,0.85-0.08,1.21-0.25c0.35-0.17,0.66-0.39,0.9-0.68c0.25-0.29,0.43-0.63,0.57-1.02
		C145.97,46.9,146.03,46.48,146.03,46.03z"/>
	<path class="st1" d="M150.05,46.05c0-0.87,0.17-1.66,0.5-2.37c0.33-0.71,0.78-1.32,1.35-1.84c0.57-0.51,1.22-0.91,1.96-1.18
		c0.74-0.27,1.51-0.41,2.32-0.41s1.59,0.14,2.32,0.42c0.74,0.28,1.39,0.68,1.96,1.18c0.56,0.51,1.01,1.11,1.35,1.82
		c0.33,0.71,0.5,1.5,0.5,2.37c0,0.87-0.17,1.66-0.5,2.38c-0.33,0.72-0.78,1.33-1.35,1.84c-0.57,0.51-1.22,0.9-1.96,1.18
		c-0.74,0.28-1.51,0.42-2.32,0.42s-1.59-0.14-2.32-0.41c-0.74-0.28-1.39-0.67-1.96-1.18c-0.56-0.51-1.01-1.13-1.35-1.85
		C150.22,47.71,150.05,46.92,150.05,46.05z M153.2,46.05c0,0.43,0.08,0.84,0.24,1.22c0.16,0.38,0.38,0.7,0.65,0.97
		c0.28,0.27,0.59,0.48,0.96,0.63c0.36,0.15,0.74,0.23,1.13,0.23c0.41,0,0.79-0.08,1.14-0.23c0.35-0.15,0.67-0.37,0.94-0.64
		c0.28-0.27,0.49-0.6,0.65-0.97c0.16-0.37,0.24-0.77,0.24-1.21s-0.08-0.83-0.24-1.2c-0.16-0.36-0.38-0.68-0.65-0.96
		c-0.28-0.27-0.59-0.49-0.94-0.64c-0.36-0.15-0.74-0.23-1.14-0.23c-0.39,0-0.77,0.08-1.13,0.23c-0.36,0.15-0.68,0.36-0.96,0.63
		c-0.28,0.27-0.49,0.59-0.65,0.96C153.28,45.21,153.2,45.62,153.2,46.05z"/>
	<path class="st1" d="M174.27,51.63h-3.24v-1.52c-0.46,0.65-0.99,1.11-1.56,1.37c-0.58,0.26-1.21,0.39-1.89,0.39
		c-0.78,0-1.43-0.14-1.94-0.43c-0.51-0.29-0.92-0.68-1.22-1.16c-0.3-0.49-0.51-1.05-0.63-1.69c-0.12-0.64-0.18-1.32-0.18-2.03v-6.06
		h3.24v6c0,0.39,0.04,0.75,0.11,1.07s0.19,0.61,0.36,0.86c0.17,0.25,0.38,0.44,0.64,0.58c0.26,0.14,0.58,0.21,0.96,0.21
		s0.7-0.07,0.97-0.21c0.27-0.14,0.49-0.33,0.66-0.58c0.17-0.25,0.3-0.54,0.38-0.87c0.08-0.33,0.12-0.7,0.12-1.09v-5.97h3.24V51.63z"
		/>
	<path class="st1" d="M180.42,40.49h3.08v2.54h-3.08v5.21c0,0.25,0.06,0.47,0.17,0.67c0.12,0.2,0.33,0.3,0.65,0.3
		c0.32,0,0.54-0.11,0.66-0.33c0.12-0.22,0.19-0.46,0.19-0.72c0-0.16-0.02-0.34-0.05-0.53c-0.04-0.2-0.07-0.34-0.1-0.42h2.56
		c0.1,0.2,0.17,0.42,0.21,0.66c0.04,0.24,0.05,0.46,0.05,0.66c0,0.42-0.07,0.82-0.21,1.22c-0.14,0.39-0.36,0.75-0.66,1.06
		c-0.3,0.32-0.69,0.57-1.16,0.76c-0.47,0.19-1.03,0.28-1.68,0.28c-0.49,0-0.97-0.05-1.43-0.16c-0.46-0.11-0.88-0.31-1.24-0.6
		c-0.36-0.29-0.65-0.69-0.87-1.2c-0.22-0.51-0.33-1.17-0.33-1.98v-4.91h-1.67v-2.54h1.91l0.5-2.74h2.5V40.49z"/>
	<path class="st1" d="M197.52,40.49h3.56l-7.21,16.23h-3.26l2.54-6.02l-4.58-10.21h3.65l2.65,6.97L197.52,40.49z"/>
	<path class="st1" d="M200.8,46.05c0-0.87,0.17-1.66,0.5-2.37c0.33-0.71,0.78-1.32,1.35-1.84c0.57-0.51,1.22-0.91,1.96-1.18
		c0.74-0.27,1.51-0.41,2.32-0.41s1.59,0.14,2.32,0.42c0.74,0.28,1.39,0.68,1.96,1.18c0.56,0.51,1.01,1.11,1.35,1.82
		c0.33,0.71,0.5,1.5,0.5,2.37c0,0.87-0.17,1.66-0.5,2.38c-0.33,0.72-0.78,1.33-1.35,1.84c-0.57,0.51-1.22,0.9-1.96,1.18
		c-0.74,0.28-1.51,0.42-2.32,0.42s-1.59-0.14-2.32-0.41c-0.74-0.28-1.39-0.67-1.96-1.18c-0.56-0.51-1.01-1.13-1.35-1.85
		C200.96,47.71,200.8,46.92,200.8,46.05z M203.95,46.05c0,0.43,0.08,0.84,0.24,1.22c0.16,0.38,0.38,0.7,0.65,0.97
		c0.28,0.27,0.59,0.48,0.96,0.63c0.36,0.15,0.74,0.23,1.13,0.23c0.41,0,0.79-0.08,1.14-0.23c0.35-0.15,0.67-0.37,0.94-0.64
		c0.28-0.27,0.49-0.6,0.65-0.97c0.16-0.37,0.24-0.77,0.24-1.21s-0.08-0.83-0.24-1.2c-0.16-0.36-0.38-0.68-0.65-0.96
		c-0.28-0.27-0.59-0.49-0.94-0.64c-0.36-0.15-0.74-0.23-1.14-0.23c-0.39,0-0.77,0.08-1.13,0.23c-0.36,0.15-0.68,0.36-0.96,0.63
		c-0.28,0.27-0.49,0.59-0.65,0.96C204.02,45.21,203.95,45.62,203.95,46.05z"/>
	<path class="st1" d="M225.02,51.63h-3.24v-1.52c-0.46,0.65-0.99,1.11-1.56,1.37c-0.58,0.26-1.21,0.39-1.89,0.39
		c-0.78,0-1.43-0.14-1.94-0.43c-0.51-0.29-0.92-0.68-1.22-1.16c-0.3-0.49-0.51-1.05-0.63-1.69c-0.12-0.64-0.18-1.32-0.18-2.03v-6.06
		h3.24v6c0,0.39,0.04,0.75,0.11,1.07s0.19,0.61,0.36,0.86c0.17,0.25,0.38,0.44,0.64,0.58c0.26,0.14,0.58,0.21,0.96,0.21
		c0.38,0,0.7-0.07,0.97-0.21c0.27-0.14,0.49-0.33,0.66-0.58s0.3-0.54,0.38-0.87c0.08-0.33,0.12-0.7,0.12-1.09v-5.97h3.24V51.63z"/>
	<path class="st1" d="M226.3,53.96c0.27-0.1,0.54-0.24,0.79-0.42c0.25-0.18,0.48-0.39,0.68-0.62c0.2-0.23,0.37-0.47,0.49-0.73
		c0.12-0.25,0.18-0.5,0.18-0.73c-0.25,0.01-0.47-0.03-0.66-0.12c-0.2-0.09-0.37-0.22-0.52-0.37c-0.15-0.15-0.27-0.33-0.36-0.52
		c-0.09-0.19-0.13-0.39-0.13-0.58c-0.03-0.46,0.11-0.87,0.42-1.23c0.31-0.35,0.78-0.53,1.42-0.53c0.36,0,0.66,0.08,0.9,0.23
		c0.24,0.15,0.43,0.34,0.57,0.56c0.14,0.22,0.23,0.46,0.28,0.7c0.05,0.24,0.08,0.44,0.08,0.62c0,0.46-0.08,0.95-0.25,1.47
		c-0.17,0.51-0.4,1-0.71,1.46c-0.3,0.46-0.67,0.87-1.09,1.23c-0.42,0.36-0.88,0.62-1.39,0.78L226.3,53.96z"/>
</g>
</svg>
