<?xml version="1.0" encoding="UTF-8"?><svg id="Layer_2" xmlns="http://www.w3.org/2000/svg" xmlns:xlink="http://www.w3.org/1999/xlink" viewBox="0 0 300 600"><defs><style>.cls-1{fill:none;}.cls-2{clip-path:url(#clippath);}.cls-3{fill:#fff;}.cls-4{clip-path:url(#clippath-1);}</style><clipPath id="clippath"><rect class="cls-1" width="300" height="600"/></clipPath><clipPath id="clippath-1"><rect class="cls-1" width="300" height="600"/></clipPath></defs><g id="Layer_1-2"><g class="cls-2"><g class="cls-4"><g><path class="cls-3" d="M36.95,91.61c-2.77,0-3.91-2.12-3.91-4.65s1.14-4.56,3.91-4.56h17.2c2.77,0,3.99,2.04,3.99,4.56s-1.22,4.65-3.99,4.65h-17.2Z"/><path class="cls-3" d="M66.46,108.97c-2.93,0-3.99-2.12-3.99-4.73s1.06-4.73,3.99-4.73h10.43v-33.98h-10.43c-2.93,0-3.99-2.12-3.99-4.73s1.06-4.81,3.99-4.81h16.46c2.85,0,3.99,2.2,3.99,4.81v38.71h10.43c3.01,0,4.07,2.12,4.07,4.73s-1.06,4.73-4.07,4.73h-30.89Z"/><path class="cls-3" d="M108.59,102.04c.98-4.16,3.26-5.38,5.87-5.38,3.34,0,4.73,1.96,4.73,4.4,0,1.22-.33,2.44-.9,3.75l-6.03,13.53c-.57,1.22-2.04,2.61-3.75,2.61-1.96,0-3.5-1.79-3.5-3.59,0-.41,.08-1.06,.16-1.3l3.42-14.02Z"/><path class="cls-3" d="M212.91,56c8.8,0,13.2,2.69,13.2,14.42s-4.4,13.94-13.2,13.94-13.04-2.12-13.04-13.94,4.16-14.42,13.04-14.42Zm0,21.19c3.34,0,4.81-.65,4.81-6.85s-1.47-7.17-4.81-7.17-4.65,.81-4.65,7.17,1.3,6.85,4.65,6.85Zm7.5,31.05c-.65,1.14-1.71,1.55-2.77,1.55-2.2,0-3.99-1.79-3.99-3.42,0-.49,.16-1.06,.49-1.71l26.81-47.84c.65-1.14,1.71-1.63,2.69-1.63,1.79,0,4.08,1.63,4.08,3.5,0,.49-.16,1.06-.49,1.71l-26.81,47.84Zm28.44-27.63c8.8,0,13.2,2.69,13.2,14.42s-4.4,13.94-13.2,13.94-13.04-2.12-13.04-13.94,4.16-14.42,13.04-14.42Zm0,21.19c3.34,0,4.81-.65,4.81-6.85s-1.47-7.17-4.81-7.17-4.64,.81-4.64,7.17,1.3,6.85,4.64,6.85Z"/></g></g></g></g></svg>