<svg id="Layer_1" data-name="Layer 1" xmlns="http://www.w3.org/2000/svg" xmlns:xlink="http://www.w3.org/1999/xlink" viewBox="0 0 300 250"><defs><style>.cls-1{fill:none;}.cls-2{clip-path:url(#clip-path);}.cls-3{fill:#009970;}</style><clipPath id="clip-path"><rect class="cls-1" width="300" height="250"/></clipPath></defs><g class="cls-2"><path class="cls-3" d="M36.83,38.49l4.49-18.33h5.59l-7.1,27.26H34.62l-4.8-18L25,47.42h-5.2l-7.1-27.26h5.73L22.9,38.49l4.79-18.33h4.44Z"/><path class="cls-3" d="M73,47.42H67.24L64.8,40.85H54.59L52.2,47.42H46.51L57,20.16h5.63ZM63,36.05,59.7,27l-3.33,9Z"/><path class="cls-3" d="M91.93,20.16h6.83L87.44,33.21,99.16,47.42h-7L82,35.08V47.42H76.3V20.16H82V31.88Z"/><path class="cls-3" d="M120.78,25.13H107.87v5.95h11.71v4.84H107.87V42.4h12.91v5H102.27V20.16h18.51Z"/><path class="cls-3" d="M14.42,71V54.69H20.1V70.4c0,4.66,2,6.88,5.64,6.88s5.64-2.22,5.64-6.88V54.69h5.68V71c0,7.5-4.44,11.41-11.32,11.41S14.42,78.48,14.42,71Z"/><path class="cls-3" d="M47.53,81.94H41.9V54.69H53c5.77,0,9.59,3.11,9.59,8.92S58.76,72.49,53,72.49H47.53Zm5.11-22.41H47.53v8.12h5.11c3,0,4.35-1.69,4.35-4S55.61,59.53,52.64,59.53Z"/><path class="cls-3" d="M38,89.22l-9.9,16.91v10.34H22.5V106.13L12.69,89.22h6.17l6.61,11.54L32,89.22Z"/><path class="cls-3" d="M50.78,116.92c-7.6,0-12.88-6-12.88-14.08s5.28-14.07,12.88-14.07,12.91,5.91,12.91,14.07S58.37,116.92,50.78,116.92Zm0-23.09c-4.27,0-7.11,3.69-7.11,9s2.84,9,7.11,9,7.19-3.69,7.19-9S55.17,93.83,50.78,93.83Z"/><path class="cls-3" d="M67.25,105.51V89.22h5.68v15.71c0,4.66,2,6.88,5.63,6.88s5.64-2.22,5.64-6.88V89.22h5.68v16.29c0,7.5-4.44,11.41-11.32,11.41S67.25,113,67.25,105.51Z"/><path class="cls-3" d="M100.36,116.47H94.72V89.22H106c5.73,0,9.55,3,9.55,8.65,0,4.4-2.35,7.11-6.22,8l7.19,10.56h-6.39l-6.74-10.16h-3Zm5.24-14.82c2.84,0,4.31-1.51,4.31-3.78s-1.47-3.81-4.31-3.81h-5.24v7.59Z"/><path class="cls-3" d="M20.37,133.42V151H14.82V123.75H20.1l8.26,12.87,8.21-12.87h5.19V151H36.17V133.42L28.4,145.14h-.18Z"/><path class="cls-3" d="M58.5,151.44c-7.59,0-12.87-5.94-12.87-14.07S50.91,123.3,58.5,123.3s12.92,5.91,12.92,14.07S66.09,151.44,58.5,151.44Zm0-23.08c-4.26,0-7.1,3.69-7.1,9s2.84,9,7.1,9,7.19-3.68,7.19-9S62.89,128.36,58.5,128.36Z"/><path class="cls-3" d="M93.7,151,80.83,132.85V151H75.37V123.75H80.7l12,17.22V123.75h5.46V151Z"/><path class="cls-3" d="M121.94,128.72H109v5.95h11.72v4.83H109V146h12.92v5H103.43V123.75h18.51Z"/><path class="cls-3" d="M149.55,123.75l-9.9,16.91V151H134V140.66l-9.81-16.91h6.17L137,135.29l6.57-11.54Z"/></g></svg>