<svg enable-background="new 0 0 160 600" viewBox="0 0 160 600" xmlns="http://www.w3.org/2000/svg" xmlns:xlink="http://www.w3.org/1999/xlink"><clipPath id="a"><path d="m0 0h160v600h-160z"/></clipPath><g clip-path="url(#a)"><path d="m-6 484h172v122h-172z" fill="#304e6f"/><g fill="#fff"><path d="m51.2 536.2h2.1v10.4h-2.1z"/><path d="m62.2 546.9c-3 0-5.6-2.1-5.6-5.4s2.6-5.4 5.6-5.4c1.4 0 2.8.4 3.6 1.1v1.9c-.8-.7-2-1.3-3.4-1.3-2.1 0-3.6 1.4-3.6 3.7s1.5 3.7 3.6 3.7c1.4 0 2.6-.6 3.4-1.3v1.9c-.8.7-2.2 1.1-3.6 1.1"/><path d="m74 537.9v8.8h-2.1v-8.8h-3.5v-1.7h9.1v1.7z"/><path d="m85 537.6c-2.1 0-3.5 1.6-3.5 3.8 0 2.3 1.4 3.8 3.5 3.8s3.4-1.6 3.4-3.8c.1-2.2-1.3-3.8-3.4-3.8m0 9.4c-3.2 0-5.7-2.3-5.7-5.5s2.5-5.5 5.7-5.5 5.6 2.3 5.6 5.5c.1 3.1-2.4 5.5-5.6 5.5"/><path d="m96.2 541h1.6c1.3 0 1.8-.7 1.8-1.6s-.5-1.7-1.8-1.7h-1.6zm5.3 5.8c-1.3 0-2.3-.5-3-2.1l-1.1-2.2h-1.2v4.2h-2.2v-10.4h4.1c2.5 0 3.5 1.5 3.5 3.2 0 1.5-.8 2.6-2.3 3l1 1.8c.5.9 1 1.2 1.7 1.2.2 0 .4 0 .6-.1v1.3c-.3 0-.7.1-1.1.1"/><path d="m106.4 536.2h2.1v10.4h-2.1z"/><path d="m31.8 535.9c-.7.2-1.3.2-1.8 0s-1-.7-1.1-1.2c-.2-.5-.2-1.2.1-1.6s.7-.7 1.2-.6c.5 0 1.1.4 1.7.8s1.1.9 1.5 1.5c.1.1.2.3.4.5-.7.2-1.4.4-2 .6m45.1-8c-6.1-1.7-12.5-2-18.7-1.1s-12.2 2.9-18 5.3c-1.5.6-2.9 1.2-4.3 1.9-.2.1-.4.2-.6.3-.2-.3-.4-.5-.6-.8-.5-.6-1.1-1.2-1.8-1.7s-1.5-1-2.6-1c-.5 0-1.1.1-1.6.3-.5.3-.9.7-1.1 1.1-.5.9-.5 2-.2 2.9.4.9 1.1 1.7 2 2.1s1.9.3 2.8.1 1.7-.6 2.5-1c.4.7.9 1.4 1.3 2.1l4.9 8c.1.1.2.2.3.3.5.3 1 .1 1.3-.3l5.9-10c0-.1.1-.2.1-.2h-2.2l-4.7 7.9-4.2-6.5c-.4-.6-.8-1.3-1.3-2 .1-.1.3-.1.4-.2 1.3-.6 2.8-1.3 4.2-1.9 5.7-2.5 11.6-4.5 17.6-5.5 6.1-1 12.4-.8 18.3.8.2.1.4-.1.5-.3.1-.3 0-.5-.2-.6"/><path d="m131.2 549.5c-.2.5-.5.9-1 .9-.5.1-1.1-.2-1.7-.5-.6-.4-1.1-.9-1.6-1.4-.2-.2-.4-.5-.6-.7.4-.2.9-.4 1.3-.6.7-.2 1.4-.4 2-.3s1.1.5 1.4.9c.3.5.4 1.1.2 1.7m1.1-2.5c-.6-.9-1.5-1.5-2.5-1.6-1-.2-1.9.1-2.7.4-.6.2-1.2.5-1.7.8-.4-.6-.8-1.2-1.2-1.9l-5-8.2c-.1-.1-.2-.2-.3-.3-.5-.3-1-.1-1.3.3l-5.9 10c0 .1-.1.1-.1.2h2.2l4.7-7.9 4.3 6.7c.4.6.8 1.2 1.2 1.8-.4.2-.7.4-1.1.6-1.4.7-2.9 1.4-4.3 2.2-5.6 3.1-11.1 6.4-17.1 8.3-6 2-12.4 2.6-18.7 2.2-.2 0-.4.2-.4.4s.2.4.4.4c6.4.5 12.9 0 19.1-2 6.2-1.9 11.8-5.2 17.4-8.1 1.4-.7 2.8-1.4 4.3-2.1.5-.2.9-.4 1.3-.7.3.4.6.7.9 1 .6.6 1.2 1.2 2 1.7s1.7.9 2.8.8c.5-.1 1.1-.3 1.5-.7s.7-.9.8-1.4c.1-1 0-2.1-.6-2.9"/><path d="m71 552.9h-.5v.9h.5c.4 0 .5-.2.5-.5s-.2-.4-.5-.4m-.5-.4h.4c.3 0 .4-.2.4-.4s-.1-.4-.4-.4h-.4zm.6 1.8h-1.2v-3h1.1c.6 0 .9.4.9.8 0 .2-.1.5-.3.6.3.1.5.4.5.7 0 .5-.3.9-1 .9"/><path d="m74.6 554.4c-.9 0-1.6-.6-1.6-1.5 0-1 .7-1.5 1.6-1.5.4 0 .8.1 1 .3v.5c-.2-.2-.6-.4-1-.4-.6 0-1 .4-1 1.1s.4 1.1 1 1.1c.4 0 .7-.2 1-.4v.5c-.2.1-.6.3-1 .3"/><path d="m76.9 554.9-.1-.1c.2-.1.3-.3.3-.5h-.3v-.6h.6v.5c0 .3-.1.6-.5.7"/><path d="m81.7 554.4c-.9 0-1.6-.6-1.6-1.5 0-1 .7-1.5 1.6-1.5.4 0 .8.1 1 .3v.5c-.2-.2-.6-.4-1-.4-.6 0-1 .4-1 1.1s.4 1.1 1 1.1c.4 0 .7-.2 1-.4v.5c-.2.1-.6.3-1 .3"/><path d="m85.1 552.1-.4 1.1h.9zm.9 2.2-.3-.7h-1.2l-.3.7h-.6l1.3-3h.5l1.3 3z"/><path d="m89.7 554.3-1.5-2v2h-.6v-3h.5l1.5 2v-2h.5v3z"/><path d="m92.7 552.1-.4 1.1h.9zm.8 2.2-.3-.7h-1.2l-.3.7h-.6l1.3-3h.5l1.3 3z"/><path d="m96.2 551.8h-.4v2h.4c.8 0 1.1-.4 1.1-1s-.3-1-1.1-1m0 2.5h-1v-3h1c1.2 0 1.7.7 1.7 1.5s-.5 1.5-1.7 1.5"/><path d="m100.1 552.1-.4 1.1h.9zm.8 2.2-.3-.7h-1.2l-.3.7h-.6l1.3-3h.5l1.3 3z"/></g></g></svg>