<svg id="Layer_1" data-name="Layer 1" xmlns="http://www.w3.org/2000/svg" xmlns:xlink="http://www.w3.org/1999/xlink" viewBox="0 0 300 600"><defs><style>.cls-1{fill:none;}.cls-2{clip-path:url(#clip-path);}.cls-3{fill:#009970;}</style><clipPath id="clip-path"><rect class="cls-1" width="300" height="600"/></clipPath></defs><g class="cls-2"><path class="cls-3" d="M36.45,86.63l7.34,26.92L51,86.63h2.55l-8.51,31.31H42.72L35.33,91.27,28,117.94H25.69L17.12,86.63h2.6L27,113.55l7.35-26.92Z"/><path class="cls-3" d="M73.22,107.64H59.35l-4,10.3h-2.6L65.11,86.63h2.4L79.9,117.94H77.3Zm-12.95-2.35h12l-6-15.3Z"/><path class="cls-3" d="M107.24,117.94H105.5L86.38,90.76v27.18h-2.5V86.63h2.5l18.36,26.11V86.63h2.5Z"/><path class="cls-3" d="M111.42,86.63h25.5V89H125.44v28.91h-2.6V89H111.42Z"/><path class="cls-3" d="M173.38,86.63h2.81l-11.43,18v13.36h-2.6V104.58l-11.37-18h2.86l9.89,15.55Z"/><path class="cls-3" d="M199.8,113.91a12.51,12.51,0,0,1-9.89,4.49,12.67,12.67,0,0,1-9.9-4.49,17.15,17.15,0,0,1-3.92-11.63A17.15,17.15,0,0,1,180,90.66a12.67,12.67,0,0,1,9.9-4.49,12.51,12.51,0,0,1,9.89,4.49,16.93,16.93,0,0,1,4,11.62Q203.78,109.41,199.8,113.91ZM198,92.44a10.46,10.46,0,0,0-16.16,0,15,15,0,0,0-3.11,9.84,15,15,0,0,0,3.11,9.85,10.46,10.46,0,0,0,16.16,0,14.94,14.94,0,0,0,3.11-9.85A14.93,14.93,0,0,0,198,92.44Z"/><path class="cls-3" d="M211.94,115.24c-2.3-2.15-3.47-5.36-3.47-9.64v-19h2.6v18.61c0,7.29,4,10.76,9.39,10.76a9.13,9.13,0,0,0,6.73-2.65c1.78-1.79,2.7-4.49,2.7-8.11V86.63h2.6v19q0,6.42-3.52,9.64a13.05,13.05,0,0,1-17,0Z"/><path class="cls-3" d="M239.12,86.63h10.81c6.12,0,10.1,3.06,10.1,8.77,0,5-3.11,7.95-8,8.57l9.49,14h-3l-9.33-13.82h-7.45v13.82h-2.6Zm2.6,15.2h8.11c4.74,0,7.65-2.4,7.65-6.43S254.57,89,249.83,89h-8.11Z"/><path class="cls-3" d="M22.63,160.94H20V129.63h2.6Z"/><path class="cls-3" d="M51.39,160.94H49.66L30.53,133.76v27.18H28V129.63h2.49l18.36,26.11V129.63h2.5Z"/><path class="cls-3" d="M66.18,160.94,53.84,129.63h2.7l10.82,27.74,10.91-27.74h2.65L68.53,160.94Z"/><path class="cls-3" d="M102.8,129.63V132H85.92V143.6h15.3V146H85.92v12.54H102.8v2.4H83.37V129.63Z"/><path class="cls-3" d="M105.05,155.28a13.57,13.57,0,0,0,9.68,3.72c4.49,0,7.35-2.24,7.35-5.86,0-3.11-1.79-4.44-5.61-6.07l-4.59-1.94a18.91,18.91,0,0,1-4.64-2.75,6.39,6.39,0,0,1-2.14-5.26,6.82,6.82,0,0,1,2.85-6,11.29,11.29,0,0,1,6.63-2,15.13,15.13,0,0,1,8.77,2.65v2.91a13.08,13.08,0,0,0-8.72-3.16c-3.87,0-7,1.83-7,5.5,0,3.06,2.14,4.44,5.45,5.72l4.85,2c4.54,2,6.68,4.23,6.68,8.26a7.32,7.32,0,0,1-2.81,6,10.84,10.84,0,0,1-7.09,2.3,15,15,0,0,1-9.68-3.11Z"/><path class="cls-3" d="M125.7,129.63h25.5V132H139.72v28.91h-2.6V132H125.7Z"/><path class="cls-3" d="M168.18,153.75l-11.83-19.17v26.36H153.8V129.63h2.3l12.18,19.89,12.24-19.89h2.14v31.31h-2.55V134.58l-11.78,19.17Z"/><path class="cls-3" d="M207.6,129.63V132H190.72V143.6H206V146h-15.3v12.54H207.6v2.4H188.17V129.63Z"/><path class="cls-3" d="M234.17,160.94h-1.73l-19.12-27.18v27.18h-2.5V129.63h2.5l18.36,26.11V129.63h2.49Z"/><path class="cls-3" d="M236.78,129.63h25.49V132H250.8v28.91h-2.6V132H236.78Z"/><path class="cls-3" d="M263.2,155.28a13.57,13.57,0,0,0,9.68,3.72c4.49,0,7.35-2.24,7.35-5.86,0-3.11-1.79-4.44-5.61-6.07L270,145.13a18.91,18.91,0,0,1-4.64-2.75,6.39,6.39,0,0,1-2.14-5.26,6.8,6.8,0,0,1,2.85-6,11.29,11.29,0,0,1,6.63-2,15.15,15.15,0,0,1,8.77,2.65v2.91a13.08,13.08,0,0,0-8.72-3.16c-3.87,0-7,1.83-7,5.5,0,3.06,2.14,4.44,5.45,5.72l4.85,2c4.53,2,6.68,4.23,6.68,8.26a7.32,7.32,0,0,1-2.81,6,10.86,10.86,0,0,1-7.09,2.3,15,15,0,0,1-9.68-3.11Z"/><path class="cls-3" d="M45.07,172.63v31.31h-2.6V189H22.63v14.94H20V172.63h2.6v14H42.47v-14Z"/><path class="cls-3" d="M69.6,193.64H55.73l-4,10.3H49.1l12.39-31.31h2.4l12.39,31.31h-2.6Zm-12.95-2.35h12l-6-15.3Z"/><path class="cls-3" d="M103.67,203.94h-1.74L82.81,176.76v27.18h-2.5V172.63h2.5l18.36,26.11V172.63h2.5Z"/><path class="cls-3" d="M110.71,172.63h9.53a14.67,14.67,0,0,1,11,4.28c2.8,2.81,4.23,6.63,4.23,11.37s-1.43,8.57-4.23,11.43a14.83,14.83,0,0,1-11,4.23h-9.53Zm9.53,28.91a11.92,11.92,0,0,0,9.13-3.62,13.53,13.53,0,0,0,3.42-9.64c0-4-1.13-7.19-3.42-9.58a11.78,11.78,0,0,0-9.13-3.67h-6.93v26.51Z"/><path class="cls-3" d="M140.59,172.63h2.6v28.91h17v2.4H140.59Z"/><path class="cls-3" d="M184,172.63V175H167.11V186.6h15.3V189h-15.3v12.54H184v2.4H164.56V172.63Z"/><path class="cls-3" d="M188.73,172.63h9.54a14.63,14.63,0,0,1,11,4.28c2.81,2.81,4.24,6.63,4.24,11.37s-1.43,8.57-4.24,11.43a14.79,14.79,0,0,1-11,4.23h-9.54Zm9.54,28.91a11.92,11.92,0,0,0,9.13-3.62,13.53,13.53,0,0,0,3.42-9.64c0-4-1.13-7.19-3.42-9.58a11.78,11.78,0,0,0-9.13-3.67h-6.94v26.51Z"/><path class="cls-3" d="M36.45,215.63l7.34,26.92L51,215.63h2.55l-8.51,31.31H42.72l-7.39-26.67L28,246.94H25.69l-8.57-31.31h2.6L27,242.55l7.35-26.92Z"/><path class="cls-3" d="M60.22,246.94h-2.6V215.63h2.6Z"/><path class="cls-3" d="M64.35,215.63H89.84V218H78.37v28.91h-2.6V218H64.35Z"/><path class="cls-3" d="M119.07,215.63v31.31h-2.6V232H96.63v14.94H94V215.63h2.6v14h19.84v-14Z"/><path class="cls-3" d="M140.54,219.5a13.33,13.33,0,0,1,10-4.33,13.14,13.14,0,0,1,8.57,2.7v2.86a12.13,12.13,0,0,0-8.51-3.11,10.74,10.74,0,0,0-8.32,3.67c-2.19,2.45-3.26,5.76-3.26,10s1.07,7.55,3.26,10a10.74,10.74,0,0,0,8.32,3.67,12.23,12.23,0,0,0,8.51-3.16v2.91a13.14,13.14,0,0,1-8.57,2.7,13.31,13.31,0,0,1-10-4.34q-4.12-4.35-4.13-11.78T140.54,219.5Z"/><path class="cls-3" d="M182.61,236.64H168.74l-4,10.3h-2.6l12.39-31.31h2.4l12.39,31.31h-2.6Zm-13-2.35h12l-6-15.3Z"/><path class="cls-3" d="M193.27,215.63h10.81c6.12,0,10.1,3.06,10.1,8.77,0,5-3.11,7.95-8,8.57l9.49,14h-3l-9.33-13.82h-7.45v13.82h-2.6Zm2.6,15.2H204c4.74,0,7.65-2.4,7.65-6.43S208.72,218,204,218h-8.11Z"/><path class="cls-3" d="M239.38,215.63V218H222.5V229.6h15.29V232H222.5v12.54h16.88v2.4H220V215.63Z"/><path class="cls-3" d="M256.26,228a6.58,6.58,0,0,0,1.63-4.39c0-3.67-2.3-6-6.58-6-3.62,0-6.73,2.19-8.92,4.64V219.4a12.36,12.36,0,0,1,9-4.23c5.71,0,9,3.37,9,8.46a7.68,7.68,0,0,1-1.74,5c-1.17,1.48-2.34,2.86-3.57,4.18-1.63,1.79-2.14,2.91-2.19,4.34h-2.45c.16-2.3,1-3.67,2.71-5.66Zm-4.64,15.15a2,2,0,0,1,1.93,2,1.91,1.91,0,1,1-3.82,0A2,2,0,0,1,251.62,243.17Z"/></g></svg>