<svg xmlns="http://www.w3.org/2000/svg" xmlns:xlink="http://www.w3.org/1999/xlink" viewBox="0 0 139.96 10.76"><defs><style>.cls-1{fill:none;}.cls-2{clip-path:url(#clip-path);}.cls-3{fill:#fff;}</style><clipPath id="clip-path" transform="translate(-1.03 -3.43)"><rect class="cls-1" width="167" height="24"/></clipPath></defs><title>HEADER</title><g id="Layer_2" data-name="Layer 2"><g id="Layer_1-2" data-name="Layer 1"><g class="cls-2"><path class="cls-3" d="M1,3.6H8.39V5.5H3.24V7.76h5V9.67h-5v2.41H8.39V14H1Z" transform="translate(-1.03 -3.43)"/><path class="cls-3" d="M12.34,7v7H10.12V3.6H12.4l4.82,6.73V3.6h2.21V14H17.3Z" transform="translate(-1.03 -3.43)"/><path class="cls-3" d="M21.5,3.6h4.1c3.26,0,5.52,2.07,5.52,5.21S28.86,14,25.6,14H21.5Zm4.1,8.45a3.11,3.11,0,0,0,3.26-3.24A3,3,0,0,0,25.6,5.55H23.71v6.5Z" transform="translate(-1.03 -3.43)"/><path class="cls-3" d="M36.69,3.6h2.25V9.77a2.4,2.4,0,1,0,4.8,0V3.6H46V9.84c0,2.58-1.48,4.35-4.63,4.35s-4.66-1.78-4.66-4.34Z" transform="translate(-1.03 -3.43)"/><path class="cls-3" d="M48.55,10.85a4.56,4.56,0,0,0,3.3,1.4c1.22,0,1.81-.57,1.81-1.17,0-.78-.9-1-2.1-1.32-1.7-.39-3.89-.86-3.89-3.18,0-1.73,1.5-3.14,3.95-3.14a5.79,5.79,0,0,1,4.05,1.45L54.44,6.51a4.46,4.46,0,0,0-3-1.13c-1,0-1.53.43-1.53,1.06s.88.92,2.08,1.2c1.71.39,3.9.9,3.9,3.21,0,1.9-1.36,3.34-4.17,3.34a6,6,0,0,1-4.41-1.66Z" transform="translate(-1.03 -3.43)"/><path class="cls-3" d="M57.41,3.6h7.36V5.5H59.62V7.76h5V9.67h-5v2.41h5.15V14H57.41Z" transform="translate(-1.03 -3.43)"/><path class="cls-3" d="M70.34,10.27H68.72V14H66.5V3.6h4.87A3.24,3.24,0,0,1,74.86,7,3,3,0,0,1,72.58,10l2.34,4H72.38ZM71,5.5H68.72V8.37H71A1.44,1.44,0,1,0,71,5.5Z" transform="translate(-1.03 -3.43)"/><path class="cls-3" d="M85.45,3.43A5.23,5.23,0,0,1,90.9,8.81,5.44,5.44,0,0,1,80,8.81,5.22,5.22,0,0,1,85.45,3.43Zm0,2A3.15,3.15,0,0,0,82.3,8.81a3.17,3.17,0,1,0,6.32,0A3.16,3.16,0,0,0,85.45,5.39Z" transform="translate(-1.03 -3.43)"/><path class="cls-3" d="M92.46,3.6h7.36V5.5H94.67V7.76h5V9.67h-5V14H92.46Z" transform="translate(-1.03 -3.43)"/><path class="cls-3" d="M101.37,3.6h7.36V5.5h-5.15V7.76h5V9.67h-5V14h-2.21Z" transform="translate(-1.03 -3.43)"/><path class="cls-3" d="M110.28,3.6h7.36V5.5h-5.15V7.76h5V9.67h-5v2.41h5.15V14h-7.36Z" transform="translate(-1.03 -3.43)"/><path class="cls-3" d="M123.21,10.27h-1.63V14h-2.21V3.6h4.86A3.24,3.24,0,0,1,127.73,7,3,3,0,0,1,125.45,10l2.34,4h-2.54Zm.7-4.77h-2.33V8.37h2.33a1.44,1.44,0,1,0,0-2.87Z" transform="translate(-1.03 -3.43)"/><path class="cls-3" d="M129.9,10.85a4.57,4.57,0,0,0,3.31,1.4c1.21,0,1.8-.57,1.8-1.17,0-.78-.9-1-2.1-1.32-1.7-.39-3.88-.86-3.88-3.18,0-1.73,1.49-3.14,3.94-3.14A5.81,5.81,0,0,1,137,4.89l-1.24,1.62a4.46,4.46,0,0,0-3-1.13c-1,0-1.53.43-1.53,1.06s.87.92,2.07,1.2c1.72.39,3.9.9,3.9,3.21,0,1.9-1.36,3.34-4.16,3.34a6,6,0,0,1-4.42-1.66Z" transform="translate(-1.03 -3.43)"/><path class="cls-3" d="M139.73,6.36a1.26,1.26,0,1,1-1.27,1.26A1.28,1.28,0,0,1,139.73,6.36Zm0,5.29a1.26,1.26,0,1,1-1.27,1.26A1.27,1.27,0,0,1,139.73,11.65Z" transform="translate(-1.03 -3.43)"/></g></g></g></svg>