<svg xmlns="http://www.w3.org/2000/svg" xmlns:xlink="http://www.w3.org/1999/xlink" viewBox="0 0 91.54 33.91"><defs><style>.cls-1,.cls-2{fill:none;}.cls-1{clip-rule:evenodd;}.cls-3{clip-path:url(#clip-path);}.cls-4{clip-path:url(#clip-path-2);}.cls-5{fill:#fefefe;}.cls-6{clip-path:url(#clip-path-3);}.cls-7{clip-path:url(#clip-path-5);}.cls-8{isolation:isolate;}.cls-9{clip-path:url(#clip-path-7);}.cls-10{clip-path:url(#clip-path-8);}.cls-11{clip-path:url(#clip-path-10);}.cls-12{clip-path:url(#clip-path-12);}.cls-13{clip-path:url(#clip-path-13);}.cls-14{clip-path:url(#clip-path-15);}.cls-15{clip-path:url(#clip-path-17);}.cls-16{clip-path:url(#clip-path-19);}.cls-17{clip-path:url(#clip-path-21);}.cls-18{clip-path:url(#clip-path-23);}.cls-19{clip-path:url(#clip-path-24);}</style><clipPath id="clip-path" transform="translate(-870.2 -179.09)"><path class="cls-1" d="M885.28,195.82a2.67,2.67,0,0,0-2.28-1,5.28,5.28,0,0,0-2.78.85v-.07a.58.58,0,0,0-.58-.62h-1.81a.74.74,0,0,0-.71.64l-1.92,11.65v.13a.58.58,0,0,0,.56.62h1.92a.8.8,0,0,0,.73-.67s1.28-7.8,1.46-8.87a4.74,4.74,0,0,1,1.83-.65c.82,0,1,.21,1,.82a5.38,5.38,0,0,1-.1,1s-1.25,7.58-1.25,7.58v.13a.58.58,0,0,0,.56.62h1.92a.78.78,0,0,0,.72-.67l1.25-7.57.1-1.32v-.16a4.89,4.89,0,0,1,1.88-.47c.88,0,1,.26,1,.89l-.1,1-1.25,7.57v.13a.59.59,0,0,0,.57.62h1.91a.79.79,0,0,0,.73-.67l1.25-7.57a8.7,8.7,0,0,0,.13-1.47c0-2.25-1.1-3.49-3.11-3.49a6.38,6.38,0,0,0-3.61,1"/></clipPath><clipPath id="clip-path-2" transform="translate(-870.2 -179.09)"><rect class="cls-2" width="970" height="250"/></clipPath><clipPath id="clip-path-3" transform="translate(-870.2 -179.09)"><path class="cls-1" d="M926.56,196a.75.75,0,0,0-.67.52l-2.78,8.15c-.12-1.59-.31-7.57-.31-7.57-.07-.94-.43-1.09-1.25-1.09h-1.49a1.38,1.38,0,0,0-1.58,1s-2.3,6.09-3,7.62c0-1.94.18-8.05.18-8.05a.55.55,0,0,0-.55-.6h-2a.75.75,0,0,0-.75.69l.21,9.38c0,1.25.32,1.93,1.81,1.93H915a2.56,2.56,0,0,0,2.53-1.72l2.57-5.65.48,5.58a1.72,1.72,0,0,0,2,1.79h.57c1.46,0,2-.63,2.44-1.86l3.62-9.39,0,.05.05-.23a.58.58,0,0,0-.6-.57Z"/></clipPath><clipPath id="clip-path-5" transform="translate(-870.2 -179.09)"><rect class="cls-2" x="935.31" y="194.85" width="9.41" height="13.15"/></clipPath><clipPath id="clip-path-7" transform="translate(-870.2 -179.09)"><rect class="cls-2" x="935" y="194" width="10" height="14"/></clipPath><clipPath id="clip-path-8" transform="translate(-870.2 -179.09)"><path class="cls-1" d="M935.77,200.36l-.35,2-.11,1.16a4.12,4.12,0,0,0,4.14,4.44,11,11,0,0,0,2.74-.29.79.79,0,0,0,.68-.76l.25-1.44v-.09a.5.5,0,0,0-.53-.51h-.06a18.56,18.56,0,0,1-2.69.16c-.71,0-1.37-.19-1.37-1.53a5.06,5.06,0,0,1,.1-1l.35-2c.29-1.75,1.06-2.67,2.21-2.67a17.66,17.66,0,0,1,2.6.15h.09a.63.63,0,0,0,.63-.52l.25-1.43v0l0-.27a.6.6,0,0,0-.54-.61,9.66,9.66,0,0,0-2.64-.29c-3.24,0-5.13,1.8-5.77,5.51"/></clipPath><clipPath id="clip-path-10" transform="translate(-870.2 -179.09)"><rect class="cls-2" x="944.82" y="191.3" width="11.92" height="16.67"/></clipPath><clipPath id="clip-path-12" transform="translate(-870.2 -179.09)"><rect class="cls-2" x="944" y="191" width="13" height="17"/></clipPath><clipPath id="clip-path-13" transform="translate(-870.2 -179.09)"><path class="cls-1" d="M948.32,191.3a.76.76,0,0,0-.73.62l-2.76,15.32v.13a.58.58,0,0,0,.59.6h2a.82.82,0,0,0,.76-.64s1.41-7.83,1.62-9a9.73,9.73,0,0,1,1.9-.17c1.43,0,1.7.39,1.7,1.11l-.09.75-1.3,7.23v.13a.58.58,0,0,0,.58.6h2a.8.8,0,0,0,.76-.64l1.31-7.25v0l.1-.92c0-2.37-1.77-3.84-4.61-3.84a11.88,11.88,0,0,0-1.84.17c.1-.54.38-2,.38-2,.39-2.16-2.35-2.25-2.35-2.25"/></clipPath><clipPath id="clip-path-15" transform="translate(-870.2 -179.09)"><path class="cls-1" d="M894.77,198.12l-1.57,9.19v.12a.54.54,0,0,0,.53.57h1.79a.74.74,0,0,0,.68-.61l1.8-10.73v-.09a.55.55,0,0,0-.55-.57,2.6,2.6,0,0,0-2.68,2.12"/></clipPath><clipPath id="clip-path-17" transform="translate(-870.2 -179.09)"><path class="cls-1" d="M930.77,198.12l-1.57,9.19v.12a.54.54,0,0,0,.53.57h1.79a.74.74,0,0,0,.68-.61l1.8-10.73v-.09a.55.55,0,0,0-.55-.57,2.6,2.6,0,0,0-2.68,2.12"/></clipPath><clipPath id="clip-path-19" transform="translate(-870.2 -179.09)"><path class="cls-1" d="M910.62,191.21a2.61,2.61,0,0,0-2.9,2.31l-.31,1.85a13.94,13.94,0,0,0-1.76-.12c-3.59,0-5.46,1.7-6.08,5.52l-.26,1.63-.11,1.21a4,4,0,0,0,4.35,4.39,18.5,18.5,0,0,0,4.28-.56c.55-.14.75-.32.83-.75l2.54-14.8v-.08a.57.57,0,0,0-.58-.6m-4.87,13.9a13.13,13.13,0,0,1-1.81.12c-1.16,0-1.59-.41-1.59-1.49a7.46,7.46,0,0,1,.13-1.28l.26-1.63c.34-2.12,1-2.84,2.52-2.84a16.11,16.11,0,0,1,1.68.12c-.08.44-1.14,6.69-1.19,7"/></clipPath><clipPath id="clip-path-21" transform="translate(-870.2 -179.09)"><rect class="cls-2" x="895.62" y="184.09" width="37.13" height="10.68"/></clipPath><clipPath id="clip-path-23" transform="translate(-870.2 -179.09)"><rect class="cls-2" x="895" y="184" width="38" height="11"/></clipPath><clipPath id="clip-path-24" transform="translate(-870.2 -179.09)"><path class="cls-1" d="M916.53,184.24c-9.71-1-18.37,3.53-20.91,10.53a3.72,3.72,0,0,1,1.58-1.36,2.74,2.74,0,0,1,3,0c3.88-4.6,10.87-7.26,18.5-6.45a22.71,22.71,0,0,1,14.08,6.57c-3-4.86-9-8.53-16.22-9.29"/></clipPath></defs><title>logoM</title><g id="Layer_2" data-name="Layer 2"><g id="Layer_1-2" data-name="Layer 1"><g class="cls-3"><g class="cls-4"><rect class="cls-5" y="10.71" width="26.8" height="23.2"/></g></g><g class="cls-6"><g class="cls-4"><rect class="cls-5" x="37.2" y="11.91" width="26.8" height="22"/></g></g><g class="cls-7"><g class="cls-4"><g class="cls-8"><g class="cls-9"><g class="cls-10"><g class="cls-9"><rect class="cls-5" x="60.11" y="10.76" width="19.41" height="23.15"/></g></g></g></g></g></g><g class="cls-11"><g class="cls-4"><g class="cls-8"><g class="cls-12"><g class="cls-13"><g class="cls-12"><rect class="cls-5" x="69.62" y="7.21" width="21.92" height="26.67"/></g></g></g></g></g></g><g class="cls-14"><g class="cls-4"><rect class="cls-5" x="18" y="11.91" width="14.8" height="22"/></g></g><g class="cls-15"><g class="cls-4"><rect class="cls-5" x="54" y="11.91" width="14.8" height="22"/></g></g><g class="cls-16"><g class="cls-4"><rect class="cls-5" x="24" y="7.11" width="22" height="26.8"/></g></g><g class="cls-17"><g class="cls-4"><g class="cls-8"><g class="cls-18"><g class="cls-19"><g class="cls-18"><rect class="cls-5" x="20.42" width="47.13" height="20.68"/></g></g></g></g></g></g></g></g></svg>