<svg xmlns="http://www.w3.org/2000/svg" xmlns:xlink="http://www.w3.org/1999/xlink" viewBox="0 0 300 80.33"><defs><style>.cls-1,.cls-2{fill:none;}.cls-2{clip-rule:evenodd;}.cls-3{clip-path:url(#clip-path);}.cls-4{clip-path:url(#clip-path-2);}.cls-5{isolation:isolate;}.cls-6{clip-path:url(#clip-path-3);}.cls-7{clip-path:url(#clip-path-4);}.cls-8{fill:#db0e25;}.cls-9{clip-path:url(#clip-path-6);}.cls-10{clip-path:url(#clip-path-7);}.cls-11{fill:#1d1d1b;}.cls-12{clip-path:url(#clip-path-8);}.cls-13{clip-path:url(#clip-path-10);}.cls-14{clip-path:url(#clip-path-11);}.cls-15{clip-path:url(#clip-path-12);}.cls-16{clip-path:url(#clip-path-13);}.cls-17{clip-path:url(#clip-path-14);}.cls-18{clip-path:url(#clip-path-15);}.cls-19{clip-path:url(#clip-path-16);}.cls-20{clip-path:url(#clip-path-17);}</style><clipPath id="clip-path" transform="translate(-49 -145)"><rect class="cls-1" x="153.43" y="203.77" width="189.35" height="16.56"/></clipPath><clipPath id="clip-path-2" transform="translate(-49 -145)"><rect class="cls-1" x="3" y="1.51" width="970" height="250"/></clipPath><clipPath id="clip-path-3" transform="translate(-49 -145)"><rect class="cls-1" x="153" y="203.51" width="190" height="17"/></clipPath><clipPath id="clip-path-4" transform="translate(-49 -145)"><path class="cls-2" d="M330.42,217.77a8.24,8.24,0,0,0,6.3,2.54c4.43,0,6-2.38,6-4.7,0-3.35-3-4.17-5.73-4.86-2.1-.55-4-1-4-2.64s1.4-2.54,3.37-2.54a6.36,6.36,0,0,1,4.75,1.92L342.4,206a7.8,7.8,0,0,0-5.83-2.23c-3.23,0-5.64,1.8-5.64,4.43,0,3.14,2.93,3.86,5.56,4.53,2.17.57,4.16,1.1,4.16,3,0,1.22-.93,2.75-3.86,2.75a7,7,0,0,1-5.17-2.27ZM321.5,220h2.05V205.81h5.22V204H316.31v1.77h5.19Zm-19.32-2.25a8.26,8.26,0,0,0,6.3,2.54c4.43,0,6.06-2.38,6.06-4.7,0-3.35-3.06-4.17-5.74-4.86-2.09-.55-4-1-4-2.64s1.41-2.54,3.38-2.54a6.37,6.37,0,0,1,4.75,1.92l1.23-1.46a7.83,7.83,0,0,0-5.84-2.23c-3.22,0-5.63,1.8-5.63,4.43,0,3.14,2.93,3.86,5.56,4.53,2.17.57,4.16,1.1,4.16,3,0,1.22-.94,2.75-3.86,2.75a7,7,0,0,1-5.17-2.27ZM297.85,212c0,3.71-2.37,6.49-6,6.49s-6-2.78-6-6.49,2.33-6.49,6-6.49S297.85,208.3,297.85,212Zm-14.18,0a8.15,8.15,0,1,0,8.15-8.27A7.89,7.89,0,0,0,283.67,212Zm-8.27,8.27a7.51,7.51,0,0,0,6.32-3.17l-1.74-.93a5.56,5.56,0,0,1-4.58,2.32,6.49,6.49,0,0,1,0-13,5.63,5.63,0,0,1,4.58,2.32l1.72-.93a7.44,7.44,0,0,0-6.3-3.17,8.27,8.27,0,1,0,0,16.54ZM243.13,212a8.12,8.12,0,0,0,8.44,8.29,8.68,8.68,0,0,0,6.45-2.75V211.8h-7.68v1.77H256v3.26a6.6,6.6,0,0,1-4.41,1.73,6.51,6.51,0,0,1,0-13,6.12,6.12,0,0,1,4.75,2.2l1.63-1a7.93,7.93,0,0,0-6.38-3A8.1,8.1,0,0,0,243.13,212ZM238,220h2V204h-2v12.62L228.46,204h-2.1v16h2V207.13Zm-17.5,0h2V204h-2Zm-5.81,0h2V204h-2v12.62L205.14,204h-2.09v16h2V207.13Zm-17.43,0h2V204h-2v12.62L187.72,204h-2.1v16h2V207.13Zm-28.85-6.21c0,3.93,2.24,6.5,6.7,6.5s6.69-2.54,6.69-6.52V204h-2v9.72c0,2.93-1.62,4.77-4.65,4.77s-4.65-1.84-4.65-4.77V204h-2.05Zm-5.34-5a3,3,0,0,1-3.27,3.07h-4.31v-6.11h4.31A3,3,0,0,1,163.05,208.85ZM162.93,220h2.41l-4.43-6.52a4.46,4.46,0,0,0,4.26-4.65c0-2.94-2.14-4.81-5.15-4.81h-6.59v16h2v-6.35h3.27Z"/></clipPath><clipPath id="clip-path-6" transform="translate(-49 -145)"><path class="cls-2" d="M140.09,220H142V203.6h-2v13l-9.18-13h-2V220h2V206.78Zm-16.46-8.2c0,3.82-2.3,6.68-5.86,6.68s-5.86-2.86-5.86-6.68,2.27-6.68,5.86-6.68S123.63,208,123.63,211.83Zm-13.78,0c0,4.85,3.18,8.5,7.92,8.5s7.92-3.65,7.92-8.5-3.21-8.5-7.92-8.5S109.85,207,109.85,211.83ZM95.4,220h2.16l4.54-16.43H99.9l-3.51,13.7-3.66-13.7H91.08l-3.66,13.7-3.54-13.7h-2.2L86.22,220h2.15l3.52-13.25Zm-16.88-8.2c0,3.82-2.3,6.68-5.86,6.68s-5.86-2.86-5.86-6.68,2.27-6.68,5.86-6.68S78.52,208,78.52,211.83Zm-13.78,0c0,4.85,3.18,8.5,7.92,8.5s7.91-3.65,7.91-8.5-3.2-8.5-7.91-8.5S64.74,207,64.74,211.83ZM54,220h9.4v-1.82H56V203.6H54Z"/></clipPath><clipPath id="clip-path-7" transform="translate(-49 -145)"><rect class="cls-1" x="3" y="5.33" width="970" height="250"/></clipPath><clipPath id="clip-path-8" transform="translate(-49 -145)"><path class="cls-2" d="M330.29,193.21H341v-1.82h-8.68v-5.67h8.51V183.9h-8.51v-5.3H341v-1.82H330.29Zm-8.9.3a7.43,7.43,0,0,0,6.3-3.25l-1.74-1a5.5,5.5,0,0,1-4.56,2.39c-3.51,0-6.23-2.79-6.23-6.68s2.72-6.68,6.23-6.68a5.55,5.55,0,0,1,4.56,2.39l1.71-1a7.33,7.33,0,0,0-6.27-3.25,8.5,8.5,0,0,0,0,17Zm-13.46-.3h2V176.78h-2v13l-9.41-13h-2.08v16.43h2V180ZM286.38,178.6l3.53,9.14h-7.09ZM292,193.21h2.25l-6.59-16.43H285.1l-6.57,16.43h2.26l1.44-3.64h8.29Zm-17.6,0h2V176.78h-2.92l-5.1,12.52-5.07-12.52h-2.92v16.43h2V179.54L268,193.21h.83l5.57-13.67Zm-19.3-11.48a3.07,3.07,0,0,1-3.26,3.16h-4.29V178.6h4.29A3,3,0,0,1,255.07,181.73ZM255,193.21h2.4l-4.41-6.7a4.53,4.53,0,0,0,4.24-4.78,4.77,4.77,0,0,0-5.12-4.95h-6.58v16.43h2v-6.53h3.26ZM240.19,185c0,3.82-2.35,6.68-6,6.68s-6-2.86-6-6.68,2.33-6.68,6-6.68S240.19,181.17,240.19,185Zm-14.12,0c0,4.85,3.26,8.5,8.11,8.5s8.12-3.65,8.12-8.5-3.29-8.5-8.12-8.5S226.07,180.16,226.07,185Zm-12.82,8.2h2v-7.49h8.51V183.9h-8.51v-5.3H224v-1.82H213.25Zm-5.32-11.48a3.07,3.07,0,0,1-3.26,3.16h-4.29V178.6h4.29A3,3,0,0,1,207.93,181.73Zm-.13,11.48h2.41l-4.42-6.7a4.54,4.54,0,0,0,4.25-4.78,4.78,4.78,0,0,0-5.13-4.95h-6.57v16.43h2v-6.53h3.26Zm-23.41,0H195.1v-1.82h-8.67v-5.67h8.5V183.9h-8.5v-5.3h8.67v-1.82H184.39Zm-4.8-11.48a3,3,0,0,1-3.26,3.13H172V178.6h4.3A3,3,0,0,1,179.59,181.73ZM170,193.21h2v-6.53h4.54a5,5,0,1,0,0-9.9H170Z"/></clipPath><clipPath id="clip-path-10" transform="translate(-49 -145)"><path class="cls-2" d="M157.07,193.19H159V176.78h-2v13l-9.25-13h-2v16.41h2V180ZM140.51,185c0,3.81-2.32,6.66-5.9,6.66s-5.9-2.85-5.9-6.66,2.28-6.67,5.9-6.67S140.51,181.16,140.51,185Zm-13.87,0c0,4.84,3.2,8.48,8,8.48s8-3.64,8-8.48-3.23-8.49-8-8.49S126.64,180.15,126.64,185Zm-23.39,0a8.15,8.15,0,0,0,8.26,8.51,8.27,8.27,0,0,0,6.31-2.83v-5.93h-7.51v1.82h5.51v3.35a6.26,6.26,0,0,1-4.31,1.77c-3.51,0-6.19-2.81-6.19-6.69s2.68-6.67,6.19-6.67a5.87,5.87,0,0,1,4.65,2.26l1.59-1a7.62,7.62,0,0,0-6.24-3.07A8.13,8.13,0,0,0,103.25,185Zm-5.1,8.19h2V176.78h-2ZM85,191.37v-5.66h4.91a2.76,2.76,0,0,1,3,2.83,2.68,2.68,0,0,1-3,2.83Zm0-7.48V178.6h4.81a2.55,2.55,0,0,1,2.77,2.66,2.52,2.52,0,0,1-2.77,2.63Zm-2,9.3h7.32c2.94,0,4.65-1.8,4.65-4.43a4.07,4.07,0,0,0-3.13-4A3.72,3.72,0,0,0,94.66,181c0-2.46-1.71-4.18-4.51-4.18H83Z"/></clipPath><clipPath id="clip-path-11" transform="translate(-49 -145)"><rect class="cls-1" y="1.51" width="970" height="250"/></clipPath><clipPath id="clip-path-12" transform="translate(-49 -145)"><path class="cls-2" d="M335.6,166.26h2V159.5l6.38-9.24h-2.36l-5,7.44-5.05-7.44h-2.36l6.41,9.24Zm-14.6,0h2V152h5.16v-1.78H315.87V152H321Zm-9.84,0h2v-16h-2Zm-12.42,0h9.57v-1.78h-7.55V150.26h-2ZM288.83,152l3.5,8.89h-7Zm5.55,14.22h2.24l-6.55-16h-2.51l-6.53,16h2.24l1.44-3.55h8.23Zm-28.09-6.21c0,3.93,2.22,6.49,6.63,6.49s6.62-2.54,6.62-6.52v-9.76h-2V160c0,2.92-1.6,4.77-4.6,4.77s-4.61-1.85-4.61-4.77v-9.74h-2Zm-11.23,4.72c-3.65,0-6-2.78-6-6.5s2.31-6.5,6-6.5,6,2.76,6,6.5a6.88,6.88,0,0,1-1.48,4.46l-2.3-2.42-1.41,1.18,2.32,2.47A6,6,0,0,1,255.06,164.77Zm8.07-6.5c0-4.72-3.27-8.27-8.07-8.27s-8.06,3.55-8.06,8.27,3.24,8.27,8.06,8.27a8.35,8.35,0,0,0,4.41-1.19L261,167l1.41-1.2-1.53-1.63A8.46,8.46,0,0,0,263.13,158.27Z"/></clipPath><clipPath id="clip-path-13" transform="translate(-49 -145)"><rect class="cls-1" x="3" width="970" height="250"/></clipPath><clipPath id="clip-path-14" transform="translate(-49 -145)"><rect class="cls-1" x="157.78" y="150.61" width="79.74" height="15.78"/></clipPath><clipPath id="clip-path-15" transform="translate(-49 -145)"><rect class="cls-1" x="1" y="1.51" width="970" height="250"/></clipPath><clipPath id="clip-path-16" transform="translate(-49 -145)"><rect class="cls-1" x="157" y="150.51" width="81" height="16"/></clipPath><clipPath id="clip-path-17" transform="translate(-49 -145)"><path class="cls-2" d="M235.5,166.09h2V150.86h-2.09v12l-9.71-12h-2.15v15.23h2.1V153.81Zm-17.38-7.6a6.19,6.19,0,1,1-6.19-6.19A5.92,5.92,0,0,1,218.12,158.49Zm-14.56,0c0,4.5,3.36,7.88,8.37,7.88s8.36-3.38,8.36-7.88-3.39-7.88-8.36-7.88S203.56,154,203.56,158.49Zm-24.53,0c0,4.73,3.87,7.9,8.67,7.9a9.22,9.22,0,0,0,6.62-2.63v-5.5h-7.89V160h5.79v3.11a7,7,0,0,1-4.52,1.64,6.21,6.21,0,1,1,0-12.4,6.48,6.48,0,0,1,4.87,2.1l1.67-.94a8.37,8.37,0,0,0-6.54-2.85C182.9,150.61,179,153.76,179,158.49Zm-5.36,7.6h2.1V150.86h-2.1Zm-13.79-1.69v-5.25H165c2.07,0,3.14,1.23,3.14,2.63,0,1.62-1.17,2.62-3.14,2.62Zm0-6.94v-4.91h5.05c1.9,0,2.91,1.1,2.91,2.47s-1,2.44-2.91,2.44Zm-2.1,8.63h7.68c3.08,0,4.88-1.66,4.88-4.11a3.91,3.91,0,0,0-3.29-3.74,3.56,3.56,0,0,0,3-3.5c0-2.28-1.79-3.88-4.73-3.88h-7.5Z"/></clipPath></defs><title>text1_1</title><g id="Layer_2" data-name="Layer 2"><g id="Layer_1-2" data-name="Layer 1"><g class="cls-3"><g class="cls-4"><g class="cls-5"><g class="cls-6"><g class="cls-7"><g class="cls-6"><rect class="cls-8" x="99.43" y="53.77" width="199.35" height="26.56"/></g></g></g></g></g></g><g class="cls-9"><g class="cls-10"><rect class="cls-11" y="53.33" width="98" height="27"/></g></g><g class="cls-12"><g class="cls-4"><rect class="cls-8" x="116" y="26.51" width="181" height="27"/></g></g><g class="cls-13"><g class="cls-14"><rect class="cls-11" x="29" y="26.51" width="86" height="27"/></g></g><g class="cls-15"><g class="cls-16"><rect class="cls-8" x="193" width="107" height="27"/></g></g><g class="cls-17"><g class="cls-18"><g class="cls-5"><g class="cls-19"><g class="cls-20"><g class="cls-19"><rect class="cls-11" x="103.78" y="0.61" width="89.74" height="25.78"/></g></g></g></g></g></g></g></g></svg>