<svg xmlns="http://www.w3.org/2000/svg" xmlns:xlink="http://www.w3.org/1999/xlink" viewBox="0 0 133.2 61.55"><defs><style>.cls-1{fill:none;}.cls-2{clip-path:url(#clip-path);}.cls-3{fill:#fff;}</style><clipPath id="clip-path" transform="translate(0 -3.05)"><rect class="cls-1" x="1.07" width="26.4" height="24"/></clipPath></defs><title>text3</title><g id="Layer_2" data-name="Layer 2"><g id="Layer_1-2" data-name="Layer 1"><g class="cls-2"><path class="cls-3" d="M6.11,3.05A4.42,4.42,0,0,1,10.72,7.6a4.43,4.43,0,0,1-4.61,4.56A4.42,4.42,0,0,1,1.52,7.6,4.42,4.42,0,0,1,6.11,3.05Zm0,1.66A2.67,2.67,0,0,0,3.44,7.6a2.68,2.68,0,1,0,5.35,0A2.68,2.68,0,0,0,6.11,4.71Z" transform="translate(0 -3.05)"/><path class="cls-3" d="M15.28,8.85H13.91V12H12V3.2h4.12A2.74,2.74,0,0,1,19.11,6a2.54,2.54,0,0,1-1.93,2.62l2,3.35H17Zm.6-4h-2V7.24h2a1.22,1.22,0,1,0,0-2.43Z" transform="translate(0 -3.05)"/></g><path class="cls-3" d="M5.75,57.8,3.93,64.6H2.52L0,55.8H1.48L3.3,62.86,5.23,55.8H6.3l1.91,7.06L10,55.8h1.48L9,64.6H7.59Z" transform="translate(0 -3.05)"/><path class="cls-3" d="M17.61,62.78H13.29l-.71,1.82H11.13l3.5-8.8h1.65l3.49,8.8H18.32ZM13.67,61.6h3.56l-1.79-4.66Z" transform="translate(0 -3.05)"/><path class="cls-3" d="M23.8,61.21H22.15V64.6H20.83V55.8h3.71a2.62,2.62,0,0,1,2.82,2.7,2.46,2.46,0,0,1-2.19,2.58l2.26,3.52H25.9ZM24.37,57H22.15v3.09h2.22a1.55,1.55,0,1,0,0-3.09Z" transform="translate(0 -3.05)"/><path class="cls-3" d="M32,61.21H30.31V64.6H29V55.8H32.7a2.62,2.62,0,0,1,2.82,2.7,2.46,2.46,0,0,1-2.19,2.58l2.26,3.52H34.05ZM32.52,57H30.31v3.09h2.21a1.55,1.55,0,1,0,0-3.09Z" transform="translate(0 -3.05)"/><path class="cls-3" d="M42.71,62.78H38.4l-.71,1.82H36.23l3.5-8.8h1.65l3.5,8.8H43.43ZM38.78,61.6h3.55l-1.78-4.66Z" transform="translate(0 -3.05)"/><path class="cls-3" d="M47.26,57.84V64.6H45.94V55.8h1.35l4.8,6.6V55.8h1.32v8.8H52.13Z" transform="translate(0 -3.05)"/><path class="cls-3" d="M57.51,57H54.78V55.8h6.77V57H58.83V64.6H57.51Z" transform="translate(0 -3.05)"/><path class="cls-3" d="M65.46,60.92,62,55.8h1.52l2.59,3.93,2.56-3.93h1.53l-3.43,5.12V64.6H65.46Z" transform="translate(0 -3.05)"/><path class="cls-3" d="M3.21,40.59a9.93,9.93,0,0,0,7.59,3.47c3.76,0,6-1.8,6-4.65,0-3-2.45-4.29-6.4-4.29-1.11,0-2.53,0-2.94,0V31.45c.45,0,1.87,0,2.94,0,3.3,0,6-1.22,6-4s-2.61-4.24-5.83-4.24a9.49,9.49,0,0,0-7.1,3.14L1.3,23.82a12.25,12.25,0,0,1,9.63-4.24c5.54,0,9.54,2.73,9.54,7.3,0,3.8-3.22,5.79-5.91,6.28,2.57.25,6.32,2.37,6.32,6.66,0,4.56-3.79,7.87-9.95,7.87-4.74,0-8.25-2-10-4.45Z" transform="translate(0 -3.05)"/><path class="cls-3" d="M44.3,35.82,33.65,20h4.69l8,12.15L54.25,20H59L48.38,35.82V47.2H44.3Z" transform="translate(0 -3.05)"/><path class="cls-3" d="M62.25,20H80.53v3.59H66.33v8H80.24v3.59H66.33v8.49h14.2V47.2H62.25Z" transform="translate(0 -3.05)"/><path class="cls-3" d="M102.85,41.57H89.5L87.3,47.2H82.81L93.63,20h5.1L109.54,47.2h-4.49ZM90.69,37.94h11l-5.5-14.4Z" transform="translate(0 -3.05)"/><path class="cls-3" d="M122,36.71h-5.1V47.2H112.8V20h11.47c5.18,0,8.73,3.34,8.73,8.36a7.6,7.6,0,0,1-6.78,8l7,10.89h-4.73Zm1.76-13.13h-6.86v9.54h6.86c2.93,0,5-1.91,5-4.77S126.67,23.58,123.74,23.58Z" transform="translate(0 -3.05)"/></g></g></svg>