<svg xmlns="http://www.w3.org/2000/svg" xmlns:xlink="http://www.w3.org/1999/xlink" viewBox="0 0 92.13 45.48"><defs><style>.cls-1{fill:none;}.cls-2{clip-path:url(#clip-path);}.cls-3{fill:#fff;}</style><clipPath id="clip-path" transform="translate(-0.82 -3.05)"><rect class="cls-1" width="53" height="24"/></clipPath></defs><title>TEXT2</title><g id="Layer_2" data-name="Layer 2"><g id="Layer_1-2" data-name="Layer 1"><g class="cls-2"><path class="cls-3" d="M.87,3.2h1.9V8.42A1.89,1.89,0,0,0,4.82,10.5a1.88,1.88,0,0,0,2-2.08V3.2h1.9V8.48c0,2.19-1.26,3.68-3.92,3.68S.87,10.65.87,8.49Z" transform="translate(-0.82 -3.05)"/><path class="cls-3" d="M10.48,3.2H14.6a2.74,2.74,0,0,1,3,2.83,2.74,2.74,0,0,1-3,2.82H12.35V12H10.48Zm3.87,1.61h-2V7.24h2a1.22,1.22,0,1,0,0-2.43Z" transform="translate(-0.82 -3.05)"/><path class="cls-3" d="M24.13,4.85H21.56V3.2h7V4.85H26V12H24.13Z" transform="translate(-0.82 -3.05)"/><path class="cls-3" d="M33.65,3.05a4.42,4.42,0,0,1,4.6,4.55,4.42,4.42,0,0,1-4.6,4.56,4.42,4.42,0,0,1-4.6-4.56A4.42,4.42,0,0,1,33.65,3.05Zm0,1.66A2.67,2.67,0,0,0,31,7.6a2.68,2.68,0,1,0,5.35,0A2.68,2.68,0,0,0,33.65,4.71Z" transform="translate(-0.82 -3.05)"/></g><path class="cls-3" d="M21.05,46.57a7.55,7.55,0,0,1-5.63,2,8.83,8.83,0,0,1-4.12-1,7.29,7.29,0,0,0-3.22-.82,11.19,11.19,0,0,0-4.78,1.6L1.88,45.35C5.1,43.92,7,41.76,7,39.43a5,5,0,0,0-.57-2.36H.82V34.54H4.69l0,0c-1.35-1.63-2.73-3.3-2.73-6,0-4.69,4.45-8.16,9.38-8.16,3.92,0,7,1.63,8.57,4.65l-3.26,2a5.35,5.35,0,0,0-4.9-3.23c-2.9,0-5.39,1.84-5.39,4.86,0,2.16,1.06,3.55,2.17,4.94l.73,1H15.3v2.53H10.49a8.05,8.05,0,0,1,.16,1.46,6.18,6.18,0,0,1-3,5.14,7.34,7.34,0,0,1,2.12-.32,6.87,6.87,0,0,1,3.1.82,6.43,6.43,0,0,0,2.7.73,5,5,0,0,0,3.79-1.59Z" transform="translate(-0.82 -3.05)"/><path class="cls-3" d="M35.66,41.47H22.72V38.13L34.15,20.79h5.59V37.88h3.75v3.59H39.74V48H35.66Zm-8.9-3.59h8.9V24.5Z" transform="translate(-0.82 -3.05)"/><path class="cls-3" d="M57.24,20.38c7.55,0,10.65,7.3,10.65,14s-3.1,14.08-10.65,14.08S46.59,41.15,46.59,34.41,49.69,20.38,57.24,20.38Zm0,3.63c-4.81,0-6.49,5.1-6.49,10.4s1.68,10.45,6.49,10.45,6.49-5.14,6.49-10.45S62.06,24,57.24,24Z" transform="translate(-0.82 -3.05)"/><path class="cls-3" d="M82.29,20.38c7.55,0,10.65,7.3,10.65,14s-3.1,14.08-10.65,14.08S71.64,41.15,71.64,34.41,74.74,20.38,82.29,20.38Zm0,3.63c-4.81,0-6.48,5.1-6.48,10.4s1.67,10.45,6.48,10.45,6.49-5.14,6.49-10.45S87.11,24,82.29,24Z" transform="translate(-0.82 -3.05)"/></g></g></svg>