<svg id="Layer_1" data-name="Layer 1" xmlns="http://www.w3.org/2000/svg" xmlns:xlink="http://www.w3.org/1999/xlink" viewBox="0 0 300 250"><defs><style>.cls-1{fill:none;}.cls-2{clip-path:url(#clip-path);}.cls-3{clip-path:url(#clip-path-3);}.cls-4{clip-path:url(#clip-path-4);}.cls-5{clip-path:url(#clip-path-5);}.cls-6{fill:#fff;}.cls-7{fill:#221e1f;}</style><clipPath id="clip-path"><rect class="cls-1" x="-320" width="300" height="250"/></clipPath><clipPath id="clip-path-3"><rect class="cls-1" x="-141.68" y="90.72" width="87.28" height="86.76"/></clipPath><clipPath id="clip-path-4"><rect class="cls-1" x="-33088" y="-32517" width="65535" height="65535"/></clipPath><clipPath id="clip-path-5"><rect class="cls-1" width="300" height="250"/></clipPath></defs><g class="cls-5"><g class="cls-5"><rect class="cls-6" x="19" y="116.29" width="87.77" height="36.87"/><path class="cls-7" d="M90.35,143.82v-13.5h5.93V127H80.45v3.35h5.86v13.5Zm-16,0h4.07V127H74.38ZM59.73,127v16.85H72.35v-3.34H63.79V127Zm-11.61,8.11v-4.84H51c2.22,0,3.13.85,3.13,2.43s-.91,2.41-3.13,2.41Zm0,3.26h3.07c4.36,0,6.9-2.09,6.9-5.7S55.55,127,51.19,127H44.08v16.85h4Zm-20.81-.51a5.51,5.51,0,0,0,2.17,4.68A9,9,0,0,0,35,144.14a8.62,8.62,0,0,0,4.87-1.34,4.39,4.39,0,0,0,2-3.93c0-2.75-1.61-4.46-5-5.08l-3.16-.56c-1.2-.24-2-.59-2-1.55,0-1.15,1-1.85,2.68-1.85,1.92,0,3.31,1,3.42,2.95l3.75-.11c-.08-3.72-2.57-6-7.14-6-4.07,0-6.69,2.06-6.69,5.38,0,2.86,1.9,4.36,4.57,4.86l3.16.57c1.47.29,2.46.58,2.46,1.68S36.81,141,35,141c-2.06,0-3.85-.94-4-3.26Z"/></g></g></svg>