<svg id="Layer_1" data-name="Layer 1" xmlns="http://www.w3.org/2000/svg" xmlns:xlink="http://www.w3.org/1999/xlink" viewBox="0 0 300 250"><defs><style>.cls-1{fill:none;}.cls-2{clip-path:url(#clip-path);}.cls-3{fill:#221e1f;}.cls-4{fill:#fff;}.cls-5{clip-path:url(#clip-path-2);}.cls-6{clip-path:url(#clip-path-4);}.cls-7{clip-path:url(#clip-path-5);}</style><clipPath id="clip-path"><rect class="cls-1" width="300" height="250"/></clipPath><clipPath id="clip-path-2"><rect class="cls-1" x="320" width="300" height="250"/></clipPath><clipPath id="clip-path-4"><rect class="cls-1" x="498.32" y="90.72" width="87.28" height="86.76"/></clipPath><clipPath id="clip-path-5"><rect class="cls-1" x="-32448" y="-32517" width="65535" height="65535"/></clipPath></defs><g class="cls-2"><path class="cls-3" d="M211.53,79.29v-.91a2.84,2.84,0,0,1-1.68-.69,2.06,2.06,0,0,1-.65-1.59l1.34,0a1.23,1.23,0,0,0,1,1.18V75.81l-.5-.08A1.75,1.75,0,0,1,209.36,74c0-1.14.84-1.88,2.17-1.95v-.78h.73V72a2.12,2.12,0,0,1,2.14,2.18l-1.3,0a1.1,1.1,0,0,0-.84-1.06v1.4l.44.08c1.25.22,1.83.81,1.83,1.82a1.62,1.62,0,0,1-.65,1.38,2.8,2.8,0,0,1-1.62.54v.89Zm0-4.84V73.12c-.5,0-.78.29-.78.71S211.09,74.36,211.53,74.45Zm.73,1.49v1.34c.52,0,.87-.3.87-.7S212.78,76,212.26,75.94Z"/><path class="cls-3" d="M214.94,74.49V71.83h9.27V74.1a10.47,10.47,0,0,0-3,4.79,24.43,24.43,0,0,0-.57,5.29h-3.25a16.26,16.26,0,0,1,.86-5.35A12.78,12.78,0,0,1,221,74.49Z"/><path class="cls-3" d="M233.71,74.43h-5.44c0,.28-.05.63-.11,1.08s-.12.79-.18,1a3.41,3.41,0,0,1,2.33-.74A4.05,4.05,0,0,1,233.53,77a4.44,4.44,0,0,1,1.08,3,4,4,0,0,1-1.34,3.18,4.88,4.88,0,0,1-3.35,1.18c-3.19,0-4.94-1.79-4.84-4.59l2.86.21a2,2,0,1,0,2-2,2,2,0,0,0-1.8,1l-2.87-.21c.14-.85.32-1.94.5-3.34s.29-2.6.31-3.62h7.63Z"/><rect class="cls-4" x="200.87" y="47.84" width="42.63" height="16.55"/><path class="cls-3" d="M209.54,57.08c.06,1,.83,1.41,1.72,1.41s1.26-.31,1.26-.78-.43-.6-1.07-.73l-1.36-.24a2.09,2.09,0,0,1-2-2.1c0-1.43,1.13-2.32,2.88-2.32,2,0,3.05,1,3.08,2.59l-1.61.05A1.32,1.32,0,0,0,211,53.69c-.74,0-1.15.3-1.15.8s.33.56.85.67l1.36.24c1.48.26,2.17,1,2.17,2.19a1.92,1.92,0,0,1-.86,1.7,3.75,3.75,0,0,1-2.1.57,3.89,3.89,0,0,1-2.39-.7,2.38,2.38,0,0,1-.93-2Z"/><path class="cls-3" d="M220.78,59.72h-5.61V52.46h5.5V53.9h-3.78v1.43h2.94v1.42h-2.94v1.53h3.89Z"/><path class="cls-3" d="M226.49,56.82V52.46h1.6v7.26h-1.4l-3.36-4.63v4.63h-1.62V52.46h1.69Z"/><path class="cls-3" d="M229.27,52.46h2.81a4,4,0,0,1,2.82,1,3.43,3.43,0,0,1,1,2.66,3.46,3.46,0,0,1-1,2.67,4,4,0,0,1-2.82,1h-2.81Zm2.7,5.88a2.25,2.25,0,0,0,0-4.5H231v4.5Z"/></g></svg>