<svg id="Layer_1" data-name="Layer 1" xmlns="http://www.w3.org/2000/svg" xmlns:xlink="http://www.w3.org/1999/xlink" viewBox="0 0 300 250"><defs><style>.cls-1{fill:none;}.cls-2{clip-path:url(#clip-path);}.cls-3{clip-path:url(#clip-path-3);}.cls-4{clip-path:url(#clip-path-4);}.cls-5{clip-path:url(#clip-path-5);}.cls-6{fill:#fff;}.cls-7{fill:#221e1f;}</style><clipPath id="clip-path"><rect class="cls-1" x="-320" width="300" height="250"/></clipPath><clipPath id="clip-path-3"><rect class="cls-1" x="-141.68" y="90.72" width="87.28" height="86.76"/></clipPath><clipPath id="clip-path-4"><rect class="cls-1" x="-33088" y="-32517" width="65535" height="65535"/></clipPath><clipPath id="clip-path-5"><rect class="cls-1" width="300" height="250"/></clipPath></defs><g class="cls-5"><g class="cls-5"><rect class="cls-6" x="19" y="72.25" width="130.85" height="36.87"/><path class="cls-7" d="M135,99.55V86.05h5.94V82.7H125.09v3.35h5.85v13.5Zm-25.14-6A5.53,5.53,0,0,0,112,98.24a9,9,0,0,0,5.54,1.63,8.66,8.66,0,0,0,4.86-1.33,4.42,4.42,0,0,0,2-3.94c0-2.75-1.61-4.46-5-5.08L116.24,89c-1.21-.24-2-.59-2-1.55,0-1.15,1-1.84,2.67-1.84,1.93,0,3.32,1,3.42,2.94l3.75-.11c-.08-3.72-2.57-6-7.14-6-4.07,0-6.69,2.06-6.69,5.38,0,2.86,1.9,4.36,4.57,4.87l3.16.56c1.47.29,2.46.59,2.46,1.68s-1.12,1.82-2.91,1.82c-2.06,0-3.86-.94-4-3.26Zm-1.33,2.65h-9V92.65h6.82V89.36H99.49V86.05h8.78V82.7H95.51V99.55h13ZM85.45,99.87a8.52,8.52,0,0,0,5.33-1.63c1.44-1.09,2.16-2.89,2.16-5.32V82.7h-4v9.66c0,2.67-1,4.09-3.45,4.09S82,95,82,92.33V82.7H78V92.92c0,2.43.72,4.23,2.17,5.32a8.46,8.46,0,0,0,5.29,1.63m-18-3.5c-2.7,0-4.47-2.14-4.47-5.24s1.77-5.19,4.47-5.19S72,88,72,91.13a6.84,6.84,0,0,1-.62,3.05l-1.63-1.9-2.17,1.79,1.72,2a5.93,5.93,0,0,1-1.85.29m5.67,4.17,2.22-1.76-1.44-1.69a8.72,8.72,0,0,0,2.22-6,8.33,8.33,0,0,0-2.52-6.31,8.81,8.81,0,1,0-6.15,15.05,9,9,0,0,0,4.23-1ZM58,96.21H49V92.65h6.82V89.36H49V86.05h8.77V82.7H45V99.55H58ZM43,99.55a2.2,2.2,0,0,1-.56-1.25c-.08-.54-.19-1.42-.32-2.65a3.43,3.43,0,0,0-3-3.37A4.1,4.1,0,0,0,42.77,88c0-3.21-2.14-5.27-6.5-5.27H28.14V99.55h4V93.7h3.39c1.69,0,2.54.61,2.68,2.51a7.46,7.46,0,0,0,.69,3.34Zm-10.88-9V86h3.5c2.11,0,3.15.83,3.15,2.32s-1,2.28-3.15,2.28Z"/></g></g></svg>