<?xml version="1.0" encoding="UTF-8"?>
<svg id="Layer_1" xmlns="http://www.w3.org/2000/svg" version="1.1" viewBox="0 0 300 250">
  <!-- Generator: Adobe Illustrator 29.5.1, SVG Export Plug-In . SVG Version: 2.1.0 Build 141)  -->
  <defs>
    <style>
      .st0 {
        fill: #171d21;
      }
    </style>
  </defs>
  <path class="st0" d="M26.7,123.5c-1.8,0-3.5-.3-4.8-.9-1.5-.6-2.6-1.4-3.6-2.5-1-1.1-1.7-2.4-2.2-3.9-.5-1.5-.8-3.2-.8-5s.3-3.6.8-5.1c.5-1.5,1.2-2.8,2.2-3.9,1-1.1,2.1-1.9,3.5-2.5,1.3-.6,2.8-.9,4.5-.9s3.1.3,4.4.8c1.4.6,2.5,1.4,3.4,2.4,1,1.1,1.7,2.3,2.2,3.7.5,1.4.7,2.9.7,4.7v1.9h-16.8v.8c0,1.8.6,3.3,1.7,4.5,1.1,1.2,2.7,1.8,4.8,1.8s2.8-.3,3.9-1c1.1-.6,1.9-1.5,2.6-2.6l3.1,2.7c-.8,1.3-2,2.5-3.6,3.5-1.6.9-3.6,1.4-6.1,1.4ZM26.3,102.8c-.9,0-1.7.2-2.4.5-.8.3-1.4.8-1.9,1.3-.5.6-1,1.2-1.3,2-.3.7-.5,1.6-.5,2.5v.3h11.8v-.5c0-1.8-.5-3.3-1.5-4.4-1-1.1-2.4-1.6-4.2-1.6ZM63,99.6l-8.4,23.4h-6.1l-8.4-23.4h5.1l3.2,9.9,3,9.4h.3l3-9.4,3.2-9.9h4.9ZM77.5,123.5c-1.8,0-3.5-.3-4.8-.9-1.5-.6-2.6-1.4-3.6-2.5-1-1.1-1.7-2.4-2.2-3.9-.5-1.5-.8-3.2-.8-5s.3-3.6.8-5.1c.5-1.5,1.2-2.8,2.2-3.9,1-1.1,2.1-1.9,3.5-2.5,1.3-.6,2.8-.9,4.5-.9s3.1.3,4.4.8c1.4.6,2.5,1.4,3.4,2.4,1,1.1,1.7,2.3,2.2,3.7.5,1.4.7,2.9.7,4.7v1.9h-16.8v.8c0,1.8.6,3.3,1.7,4.5,1.1,1.2,2.7,1.8,4.8,1.8s2.8-.3,3.9-1c1.1-.6,1.9-1.5,2.6-2.6l3.1,2.7c-.8,1.3-2,2.5-3.6,3.5-1.6.9-3.6,1.4-6.1,1.4ZM77.1,102.8c-.9,0-1.7.2-2.4.5-.8.3-1.4.8-1.9,1.3-.5.6-1,1.2-1.3,2-.3.7-.5,1.6-.5,2.5v.3h11.8v-.5c0-1.8-.5-3.3-1.5-4.4-1-1.1-2.4-1.6-4.2-1.6ZM92.2,119h6.2v-15.4h-6.2v-4h11.2v6.2h.3c.2-.9.5-1.7.9-2.4.4-.7.9-1.4,1.5-2,.6-.5,1.3-1,2.2-1.4.9-.3,1.9-.5,3.1-.5h2.8v4.7h-4.6c-1.8,0-3.3.5-4.4,1.6-1.2,1.1-1.7,2.5-1.7,4.4v8.8h8.5v4h-19.7v-4ZM134.7,99.6h5l-11.4,28c-.6,1.5-1.4,2.6-2.4,3.4-1,.8-2.4,1.1-4.3,1.1h-4v-4h5.5l2.1-5.4-9.4-23.1h5.2l3.7,9.8,2.9,8h.3l2.9-8,3.7-9.8Z"/>
</svg>