<svg width="300" height="250" viewBox="0 0 300 250" fill="none" xmlns="http://www.w3.org/2000/svg">
<rect width="300" height="250" fill="#171D21"/>
<g clip-path="url(#clip0_1_92)">
<path d="M136.384 62.4847V38H127.956V42.8724H130.371V63.2594C130.646 65.7386 132.31 67.1619 134.935 67.1619H138.821V62.4893H136.381L136.386 62.4847H136.384Z" fill="white"/>
<path d="M150.649 46.2615C144.148 46.2615 140.11 50.2255 140.11 56.9469C140.11 63.6682 144.15 67.5923 150.649 67.5923C157.149 67.5923 161.189 63.6729 161.189 56.9469C161.189 50.2209 157.149 46.2615 150.649 46.2615ZM154.658 58.3133C154.658 61.1675 153.199 62.8029 150.654 62.8029C148.109 62.8029 146.65 61.1675 146.65 58.3133V55.542C146.65 52.6878 148.109 51.0524 150.654 51.0524C153.199 51.0524 154.658 52.6878 154.658 55.542V58.3133Z" fill="white"/>
<path d="M211.351 60.193C209.337 60.193 207.702 61.8161 207.702 63.8173C207.702 65.8185 209.341 67.4416 211.351 67.4416C213.361 67.4416 215 65.8185 215 63.8173C215 61.8161 213.361 60.193 211.351 60.193Z" fill="white"/>
<path d="M181.754 62.4893V54.1971C181.754 49.0804 178.491 46.2615 172.567 46.2615C168.314 46.2615 164.992 47.7585 163.451 50.3638L163.359 50.516L166.899 53.6392L167.039 53.4471C168.314 51.7287 169.807 50.9632 171.884 50.9632C174.354 50.9632 175.41 51.9992 175.41 54.4261V54.8042H172.321C166.043 54.8042 162.859 56.993 162.859 61.3135C162.859 65.0423 165.344 67.3433 169.679 67.6261C169.858 67.6384 170.104 67.6476 170.394 67.6476C171.401 67.6476 174.304 67.4708 176.022 65.359C176.053 65.359 176.331 65.359 176.331 65.359C177.069 67.0143 179.051 67.1511 180.443 67.1511H183.707V62.4832H181.744L181.754 62.4878V62.4893ZM175.419 58.4132V60.6495C175.419 62.2988 174.052 63.3593 171.932 63.3593C170.123 63.3593 169.085 62.6461 169.085 61.4011V60.6096C169.085 58.7959 170.937 58.4132 172.492 58.4132H175.422H175.418H175.419Z" fill="white"/>
<path d="M97.9897 46.741V59.8979C97.9897 61.7854 96.2243 62.6477 94.5819 62.6477C92.4258 62.6477 91.3361 61.3904 91.3361 58.9066V48.6316C91.2442 47.8369 90.5468 46.824 89.2827 46.738H85V59.6981C85 64.5659 87.5874 67.5938 92.1113 67.5938C95.0552 67.5938 96.942 66.8345 97.9851 65.382H98.2995V67.1204H104.324V46.741H97.9897Z" fill="white"/>
<path d="M114.073 67.125V53.9681C114.073 52.0806 115.838 51.2184 117.481 51.2184C119.637 51.2184 120.726 52.4757 120.726 54.9595V65.2345C120.818 66.0291 121.516 67.042 122.78 67.1281H127.061V54.1679C127.061 49.3002 124.474 46.2722 119.95 46.2722C117.006 46.2722 115.119 47.0315 114.076 48.484H113.761V46.7456H107.737V67.1235H114.071L114.073 67.125Z" fill="white"/>
<path d="M192.581 67.125V53.9681C192.581 52.0806 194.346 51.2184 195.989 51.2184C198.145 51.2184 199.235 52.4757 199.235 54.9595V65.2345C199.326 66.0291 200.024 67.042 201.288 67.1281H205.569V54.1679C205.569 49.3002 202.982 46.2722 198.458 46.2722C195.514 46.2722 193.627 47.0315 192.584 48.484H192.27V46.7456H186.245V67.1235H192.579L192.581 67.125Z" fill="white"/>
</g>
<defs>
<clipPath id="clip0_1_92">
<rect width="130" height="29.6491" fill="white" transform="translate(85 38)"/>
</clipPath>
</defs>
</svg>
