<?xml version="1.0" encoding="UTF-8"?>
<svg id="Layer_1" data-name="Layer 1" xmlns="http://www.w3.org/2000/svg" viewBox="0 0 34 468">
  <defs>
    <style>
      .cls-1 {
        fill: #171d21;
      }
    </style>
  </defs>
  <path class="cls-1" d="M29.71,2.61v7.47H11.3l-.91,12.6h.51c.42-.91.89-1.76,1.42-2.54.53-.78,1.16-1.44,1.88-2,.72-.55,1.56-.98,2.51-1.28.95-.3,2.03-.46,3.25-.46,1.63,0,3.18.29,4.65.85,1.46.57,2.75,1.4,3.88,2.48s2,2.41,2.65,3.99c.65,1.58.97,3.35.97,5.33s-.34,3.88-1.03,5.59c-.68,1.71-1.68,3.19-2.99,4.45-1.31,1.25-2.94,2.23-4.87,2.94-1.94.7-4.14,1.05-6.61,1.05-1.94,0-3.67-.21-5.19-.63-1.52-.42-2.86-.98-4.02-1.68-1.16-.7-2.17-1.52-3.02-2.45-.86-.93-1.59-1.89-2.19-2.88l6.21-4.9c.46.76.94,1.48,1.45,2.17s1.1,1.28,1.77,1.8c.66.51,1.41.91,2.22,1.2.82.28,1.76.43,2.82.43,2.13,0,3.73-.58,4.82-1.74,1.08-1.16,1.62-2.71,1.62-4.65v-.46c0-1.86-.55-3.32-1.65-4.39-1.1-1.06-2.62-1.6-4.56-1.6-1.6,0-2.92.31-3.96.94-1.05.63-1.83,1.25-2.37,1.85l-7.01-.97L5.03,2.61h24.68Z"/>
  <path class="cls-1" d="M17.11,90.08c-2.39,0-4.53-.37-6.41-1.11-1.88-.74-3.47-1.8-4.76-3.19-1.29-1.39-2.28-3.05-2.96-4.99-.68-1.94-1.03-4.1-1.03-6.5,0-2.77.44-5.41,1.31-7.89.87-2.49,2-4.79,3.39-6.9,1.39-2.11,2.94-4,4.67-5.67,1.73-1.67,3.45-3.08,5.16-4.22h11.8c-2.47,1.71-4.68,3.35-6.64,4.93-1.96,1.58-3.67,3.15-5.13,4.73-1.46,1.58-2.66,3.2-3.59,4.87-.93,1.67-1.61,3.48-2.02,5.42l.51.17c.34-.76.76-1.5,1.25-2.22.49-.72,1.1-1.36,1.82-1.91.72-.55,1.57-1,2.54-1.34.97-.34,2.1-.51,3.39-.51,1.67,0,3.23.29,4.67.88,1.44.59,2.69,1.43,3.73,2.51,1.04,1.08,1.87,2.38,2.48,3.9.61,1.52.91,3.23.91,5.13,0,2.01-.36,3.88-1.08,5.59-.72,1.71-1.74,3.18-3.05,4.42-1.31,1.24-2.9,2.19-4.76,2.88-1.86.68-3.93,1.03-6.21,1.03ZM17.06,83.41c2.05,0,3.61-.54,4.67-1.62,1.06-1.08,1.6-2.61,1.6-4.59v-.8c0-1.98-.54-3.49-1.62-4.53-1.08-1.04-2.63-1.57-4.65-1.57s-3.46.52-4.56,1.57c-1.1,1.05-1.65,2.56-1.65,4.53v.8c0,1.98.52,3.51,1.57,4.59,1.04,1.08,2.59,1.62,4.65,1.62Z"/>
  <path class="cls-1" d="M31.31,104.02l-13.17,32.38h-9.01l13.68-32.83h-12.88v7.24H2.69v-14.19h28.61v7.41Z"/>
  <path class="cls-1" d="M16.89,184.08c-2.39,0-4.52-.29-6.38-.88-1.86-.59-3.44-1.4-4.73-2.42-1.29-1.03-2.27-2.25-2.94-3.68-.67-1.42-1-2.97-1-4.65,0-2.58.74-4.66,2.22-6.24,1.48-1.58,3.38-2.69,5.7-3.33v-.46c-1.98-.72-3.59-1.82-4.85-3.31-1.25-1.48-1.88-3.38-1.88-5.7,0-1.52.3-2.92.91-4.22.61-1.29,1.5-2.4,2.68-3.33,1.18-.93,2.62-1.65,4.33-2.17,1.71-.51,3.69-.77,5.93-.77s4.17.26,5.9.77c1.73.51,3.18,1.24,4.36,2.17,1.18.93,2.07,2.04,2.68,3.33.61,1.29.91,2.7.91,4.22,0,2.32-.63,4.22-1.88,5.7-1.25,1.48-2.87,2.58-4.84,3.31v.46c2.32.65,4.22,1.76,5.7,3.33,1.48,1.58,2.22,3.66,2.22,6.24,0,1.67-.33,3.22-1,4.65-.67,1.43-1.64,2.65-2.94,3.68s-2.87,1.83-4.73,2.42c-1.86.59-3.99.88-6.38.88ZM16.89,177.52c1.97,0,3.49-.46,4.53-1.37,1.04-.91,1.57-2.15,1.57-3.71v-1.14c0-1.6-.51-2.84-1.54-3.73-1.03-.89-2.55-1.34-4.56-1.34s-3.53.45-4.56,1.34c-1.03.89-1.54,2.14-1.54,3.73v1.14c0,1.56.52,2.79,1.57,3.71s2.56,1.37,4.53,1.37ZM16.89,159.97c1.9,0,3.34-.44,4.33-1.31.99-.87,1.48-2.05,1.48-3.53v-.85c0-1.48-.5-2.65-1.51-3.51-1.01-.85-2.44-1.28-4.3-1.28s-3.3.43-4.3,1.28c-1.01.86-1.51,2.02-1.51,3.51v.85c0,1.48.49,2.66,1.48,3.53.99.88,2.43,1.31,4.33,1.31Z"/>
  <path class="cls-1" d="M31.82,205.71c0,2.81-.44,5.45-1.31,7.92-.88,2.47-2,4.76-3.39,6.87-1.39,2.11-2.95,4-4.67,5.67-1.73,1.67-3.45,3.08-5.16,4.22H5.49c2.47-1.71,4.68-3.35,6.64-4.93,1.96-1.58,3.67-3.15,5.13-4.73,1.46-1.58,2.66-3.2,3.59-4.87.93-1.67,1.61-3.48,2.02-5.42l-.51-.17c-.34.76-.77,1.5-1.28,2.22-.51.72-1.12,1.36-1.82,1.91-.7.55-1.54,1-2.51,1.34-.97.34-2.1.51-3.39.51-1.67,0-3.23-.29-4.67-.88-1.45-.59-2.69-1.42-3.73-2.51s-1.87-2.38-2.48-3.9-.91-3.23-.91-5.13c0-2.01.36-3.88,1.08-5.59.72-1.71,1.74-3.18,3.05-4.42,1.31-1.23,2.9-2.19,4.76-2.88,1.86-.68,3.93-1.03,6.21-1.03,2.39,0,4.53.37,6.41,1.11,1.88.74,3.47,1.81,4.76,3.19s2.28,3.05,2.96,4.99c.68,1.94,1.03,4.1,1.03,6.5ZM16.71,209.7c1.94,0,3.46-.52,4.56-1.57,1.1-1.04,1.65-2.55,1.65-4.53v-.8c0-1.98-.52-3.51-1.57-4.59s-2.59-1.62-4.65-1.62-3.61.54-4.67,1.62c-1.06,1.08-1.6,2.61-1.6,4.59v.8c0,1.98.54,3.49,1.62,4.53,1.08,1.05,2.63,1.57,4.65,1.57Z"/>
  <path class="cls-1" d="M16.89,278.08c-5.32,0-9.24-1.8-11.77-5.42-2.53-3.61-3.79-8.66-3.79-15.16s1.26-11.55,3.79-15.16c2.53-3.61,6.45-5.42,11.77-5.42s9.24,1.8,11.77,5.42c2.53,3.61,3.79,8.66,3.79,15.16s-1.26,11.55-3.79,15.16c-2.53,3.61-6.45,5.42-11.77,5.42ZM16.89,271.35c2.54,0,4.32-.89,5.33-2.68,1.01-1.79,1.51-4.28,1.51-7.47v-7.41c0-3.19-.5-5.68-1.51-7.47-1.01-1.79-2.78-2.68-5.33-2.68s-4.32.89-5.33,2.68c-1.01,1.79-1.51,4.28-1.51,7.47v7.41c0,3.19.5,5.68,1.51,7.47s2.78,2.68,5.33,2.68Z"/>
  <path class="cls-1" d="M32.85,317.5v6.9H5.14v-6.9h10.72v-26.68h-.51l-8.09,10.6-5.47-4.28,9.52-12.54h13.11v32.89h8.44Z"/>
  <path class="cls-1" d="M31.42,364.21v7.18H2.81v-7.81l12.54-10.43c2.17-1.86,3.72-3.48,4.67-4.84.95-1.37,1.42-2.81,1.42-4.33v-.57c0-1.67-.49-2.94-1.48-3.79-.99-.86-2.32-1.28-3.99-1.28-1.9,0-3.36.55-4.39,1.65-1.03,1.1-1.75,2.41-2.17,3.93l-7.47-2.85c.46-1.37,1.08-2.67,1.88-3.9.8-1.23,1.81-2.31,3.05-3.22,1.23-.91,2.67-1.64,4.3-2.19,1.63-.55,3.51-.83,5.64-.83s4.1.3,5.81.91c1.71.61,3.15,1.44,4.33,2.51,1.18,1.06,2.07,2.33,2.68,3.79.61,1.46.91,3.05.91,4.76s-.28,3.2-.83,4.59c-.55,1.39-1.31,2.69-2.28,3.9-.97,1.22-2.11,2.39-3.42,3.53-1.31,1.14-2.71,2.28-4.19,3.42l-7.58,5.87h19.15Z"/>
  <path class="cls-1" d="M11.58,394.34h3.76c2.2,0,3.81-.42,4.82-1.25,1.01-.84,1.51-1.86,1.51-3.08v-.4c0-1.44-.48-2.59-1.45-3.45-.97-.86-2.35-1.28-4.13-1.28-1.63,0-3.16.41-4.59,1.23s-2.63,1.99-3.62,3.5l-5.42-5.02c.76-.99,1.6-1.89,2.51-2.71.91-.82,1.92-1.52,3.02-2.11,1.1-.59,2.35-1.04,3.73-1.37,1.39-.32,2.95-.48,4.7-.48,2.17,0,4.12.25,5.87.74,1.75.49,3.24,1.21,4.47,2.14,1.23.93,2.2,2.04,2.88,3.33s1.03,2.74,1.03,4.33c0,1.25-.21,2.39-.63,3.42-.42,1.03-.98,1.92-1.68,2.68-.7.76-1.52,1.38-2.45,1.85-.93.48-1.93.81-2.99,1v.34c2.43.42,4.45,1.43,6.07,3.05,1.61,1.62,2.42,3.79,2.42,6.53,0,1.79-.37,3.4-1.11,4.84-.74,1.44-1.79,2.68-3.13,3.71-1.35,1.03-2.98,1.81-4.9,2.37s-4.06.83-6.41.83c-2.01,0-3.79-.21-5.33-.63-1.54-.42-2.9-.98-4.08-1.68s-2.19-1.52-3.05-2.45c-.86-.93-1.61-1.89-2.25-2.88l6.33-4.9c.87,1.63,1.97,2.97,3.28,4.02,1.31,1.05,3.07,1.57,5.27,1.57,2.05,0,3.63-.48,4.73-1.43,1.1-.95,1.65-2.26,1.65-3.93v-.4c0-1.63-.63-2.86-1.88-3.68s-3-1.23-5.24-1.23h-3.71v-7.12Z"/>
  <path class="cls-1" d="M27.32,457.76v7.64h-8.21v-7.64H1.21v-7.3l15.85-24.85h10.26v25.54h5.13v6.61h-5.13ZM19.11,434.44h-.51l-10.49,16.7h11v-16.7Z"/>
</svg>