<?xml version="1.0" encoding="UTF-8"?>
<svg id="Layer_1" data-name="Layer 1" xmlns="http://www.w3.org/2000/svg" viewBox="0 0 6 90">
  <defs>
    <style>
      .cls-1 {
        fill: #171d21;
      }
    </style>
  </defs>
  <path class="cls-1" d="M2.92.66c.36,0,.7.07,1.04.19s.64.32.91.6.49.64.64,1.1.24,1.03.24,1.71c0,.64-.07,1.21-.21,1.71s-.33.92-.58,1.27c-.25.35-.56.61-.92.79-.36.18-.76.27-1.21.27s-.88-.09-1.24-.28c-.36-.18-.65-.43-.87-.75-.22-.32-.36-.68-.41-1.09h1.32c.07.29.21.53.42.7.21.17.47.26.79.26.51,0,.91-.22,1.19-.67.28-.45.42-1.07.42-1.86h-.05c-.12.21-.27.4-.46.55-.19.15-.4.27-.64.35-.24.08-.49.12-.76.12-.43,0-.83-.1-1.17-.31-.35-.21-.62-.49-.82-.86-.2-.36-.3-.78-.3-1.25s.11-.92.33-1.31c.22-.39.54-.69.94-.92.4-.22.87-.33,1.41-.33ZM2.92,1.75c-.26,0-.5.06-.7.19-.21.13-.37.3-.49.52-.12.22-.18.46-.18.73s.06.51.18.72.28.39.48.51c.21.12.44.19.7.19.2,0,.38-.04.55-.11s.32-.18.44-.31c.12-.13.22-.29.29-.46.07-.17.11-.35.11-.55,0-.26-.06-.5-.18-.71-.12-.22-.28-.39-.49-.52s-.44-.2-.71-.2Z"/>
  <path class="cls-1" d="M2.99,17.3c-.54,0-1.02-.09-1.43-.27-.42-.18-.74-.43-.98-.74-.24-.32-.35-.67-.35-1.07,0-.31.07-.6.2-.86s.32-.48.56-.65c.24-.17.5-.29.79-.33v-.05c-.38-.08-.69-.28-.92-.58-.24-.3-.35-.66-.35-1.06,0-.38.1-.72.32-1.02.21-.3.51-.54.88-.71.38-.17.8-.26,1.28-.26s.9.09,1.27.26c.37.17.67.41.88.71.22.3.32.64.32,1.02,0,.4-.12.75-.36,1.06-.24.31-.54.5-.92.58v.05c.29.05.55.16.78.33.23.18.42.39.56.65.14.26.21.55.21.86,0,.4-.12.76-.36,1.07-.24.31-.56.56-.98.74-.41.18-.89.27-1.43.27ZM2.99,16.26c.28,0,.52-.05.72-.14s.36-.23.48-.4c.11-.17.17-.37.17-.6,0-.24-.06-.45-.18-.63-.12-.18-.28-.33-.49-.43-.21-.1-.44-.16-.71-.16s-.5.05-.71.16c-.21.1-.37.25-.49.43-.12.18-.18.39-.18.63,0,.23.05.43.17.6.11.17.27.31.48.4.21.1.45.14.73.14ZM2.99,12.89c.23,0,.43-.05.6-.14s.31-.22.42-.38c.1-.17.15-.35.16-.57,0-.21-.05-.4-.15-.56-.1-.16-.24-.29-.41-.37-.18-.09-.38-.13-.61-.13s-.44.04-.62.13-.32.21-.41.37c-.1.16-.15.35-.14.56,0,.21.05.4.15.57.1.16.24.29.42.38.18.09.38.14.61.14Z"/>
  <path class="cls-1" d="M.92,26.2l3.16-6.24v-.05H.42v-1.12h5.05v1.15l-3.15,6.27H.92Z"/>
  <path class="cls-1" d="M3.06,35.3c-.36,0-.7-.06-1.04-.19s-.64-.32-.91-.6-.49-.64-.64-1.1-.24-1.03-.24-1.71c0-.64.07-1.21.2-1.71.14-.5.33-.92.58-1.27.25-.35.56-.61.92-.79.36-.18.76-.27,1.21-.27s.88.09,1.24.28.65.44.88.76c.22.32.36.68.41,1.09h-1.32c-.07-.29-.21-.53-.42-.7s-.47-.26-.79-.26c-.51,0-.91.22-1.19.67-.28.45-.42,1.07-.42,1.86h.05c.12-.21.27-.39.46-.55.19-.15.4-.27.64-.35.24-.08.49-.12.76-.12.43,0,.83.1,1.17.31.35.21.62.49.82.86.2.36.3.78.3,1.25,0,.49-.11.93-.33,1.31s-.54.69-.94.92c-.4.22-.87.33-1.4.33ZM3.05,34.21c.26,0,.5-.06.71-.19.21-.13.37-.3.49-.52.12-.22.18-.46.18-.73,0-.27-.05-.51-.17-.72s-.28-.38-.48-.51c-.21-.12-.44-.19-.7-.19-.2,0-.38.04-.55.11-.17.08-.32.18-.44.31-.12.13-.22.28-.29.46-.07.17-.11.36-.11.55,0,.26.06.5.18.71.12.22.28.39.49.52.21.13.44.2.71.2Z"/>
  <path class="cls-1" d="M3,44.3c-.48,0-.92-.09-1.3-.27s-.68-.43-.91-.75c-.22-.32-.34-.68-.36-1.09h1.3c.02.3.16.55.39.75.24.19.53.29.86.29.26,0,.5-.06.7-.18.21-.12.37-.29.49-.5.12-.21.18-.46.17-.74,0-.28-.06-.53-.18-.75-.12-.22-.29-.39-.5-.51-.21-.12-.45-.19-.72-.19-.22,0-.44.04-.66.12-.21.08-.38.2-.51.33l-1.21-.2.39-3.83h4.3v1.12h-3.19l-.21,1.97h.04c.14-.16.33-.3.58-.4.25-.11.53-.16.83-.16.45,0,.85.11,1.2.32.35.21.63.5.83.87.2.37.3.79.3,1.27s-.11.93-.34,1.31-.54.68-.94.9c-.4.22-.86.33-1.39.33Z"/>
  <path class="cls-1" d="M.12,51.82v-1.07l3.15-4.97h.89v1.52h-.54l-2.12,3.36v.06h4.39v1.1H.12ZM3.65,53.2v-2.18s.01-5.24.01-5.24h1.27v7.42h-1.28Z"/>
  <path class="cls-1" d="M2.98,62.3c-.52,0-.98-.09-1.39-.27s-.72-.43-.96-.75c-.23-.32-.36-.69-.37-1.11h1.36c.01.2.08.38.2.52.12.15.28.26.48.35.2.08.42.12.67.12.27,0,.5-.05.71-.14s.37-.22.48-.39.17-.36.17-.58c0-.22-.05-.42-.17-.59-.12-.17-.29-.31-.51-.4-.22-.1-.49-.14-.81-.14h-.66v-1.04h.66c.26,0,.49-.04.68-.13.19-.09.35-.22.46-.38s.17-.35.16-.57c0-.21-.04-.39-.14-.55-.1-.16-.23-.28-.4-.36-.17-.09-.38-.13-.61-.13s-.44.04-.63.12c-.19.08-.35.2-.47.35-.12.15-.18.33-.19.54H.42c0-.42.13-.78.36-1.1.23-.31.54-.56.93-.74s.82-.27,1.3-.27.93.09,1.29.28c.37.18.65.43.85.74.2.31.3.66.3,1.03,0,.42-.12.77-.37,1.05-.25.28-.57.47-.97.55v.06c.52.07.92.26,1.2.58.28.31.42.7.41,1.17,0,.42-.12.79-.35,1.11s-.56.58-.97.77c-.41.19-.88.28-1.42.28Z"/>
  <path class="cls-1" d="M.48,71.2v-.97l2.58-2.53c.25-.25.45-.47.62-.66s.29-.38.37-.56c.08-.18.12-.37.12-.58,0-.23-.05-.43-.16-.6s-.25-.3-.44-.39c-.19-.09-.4-.14-.63-.14s-.46.05-.64.15c-.18.1-.33.24-.43.43-.1.18-.15.4-.15.66H.43c0-.47.11-.88.32-1.23s.51-.62.89-.81c.38-.19.81-.29,1.3-.29s.93.09,1.31.28c.38.19.67.44.88.76s.31.69.31,1.11c0,.28-.05.55-.16.82-.11.27-.29.57-.56.89-.27.33-.64.72-1.12,1.18l-1.28,1.3v.05h3.23v1.12H.48Z"/>
  <path class="cls-1" d="M4.21,72.78v7.42h-1.34v-6.11h-.04l-1.74,1.11v-1.23l1.84-1.18h1.28Z"/>
  <path class="cls-1" d="M2.99,89.34c-.6,0-1.11-.15-1.53-.46-.43-.3-.75-.74-.98-1.31s-.34-1.26-.34-2.07c0-.81.12-1.5.35-2.07.23-.57.55-1,.98-1.3.43-.3.94-.45,1.53-.45s1.1.15,1.53.45c.43.3.75.73.98,1.3.23.57.34,1.26.34,2.06s-.11,1.5-.34,2.08c-.23.57-.56,1.01-.98,1.31-.43.3-.94.45-1.53.45ZM2.99,88.21c.46,0,.83-.23,1.1-.69.27-.46.4-1.13.4-2.02,0-.59-.06-1.08-.18-1.48-.12-.4-.3-.7-.52-.91-.22-.2-.49-.31-.8-.31-.46,0-.83.23-1.09.69-.27.46-.4,1.13-.41,2.01,0,.59.06,1.09.18,1.49.12.4.29.71.52.91s.49.31.8.31Z"/>
</svg>