<?xml version="1.0" encoding="UTF-8"?>
<svg id="Layer_1" data-name="Layer 1" xmlns="http://www.w3.org/2000/svg" viewBox="0 0 6 90">
  <defs>
    <style>
      .cls-1 {
        fill: #171d21;
      }
    </style>
  </defs>
  <path class="cls-1" d="M2.95.68c.3,0,.61.06.91.17.3.11.58.3.83.57.25.26.45.62.61,1.07.15.45.23,1.02.23,1.71s-.06,1.24-.19,1.75c-.12.51-.3.94-.54,1.29-.23.35-.52.62-.85.8-.33.18-.71.27-1.12.27s-.79-.08-1.11-.25c-.32-.17-.59-.4-.8-.69-.21-.3-.34-.64-.4-1.03h.88c.08.34.24.62.48.84.24.22.55.33.94.33.57,0,1.02-.25,1.36-.75s.5-1.21.5-2.12h-.06c-.14.2-.3.38-.48.52-.19.15-.39.26-.62.34-.23.08-.47.12-.72.12-.42,0-.81-.11-1.17-.32-.35-.21-.64-.5-.85-.87-.21-.37-.32-.79-.32-1.27s.1-.88.31-1.26.49-.68.86-.91c.37-.22.81-.33,1.31-.33ZM2.95,1.48c-.3,0-.58.08-.82.23-.24.15-.44.36-.58.61-.14.26-.21.54-.21.85s.07.59.2.84c.14.25.32.45.56.6.24.15.51.22.81.22.23,0,.44-.04.64-.14.2-.09.37-.21.52-.37s.26-.34.35-.54c.08-.2.13-.41.13-.63,0-.29-.07-.57-.21-.83s-.33-.46-.57-.62c-.24-.16-.52-.24-.83-.24Z"/>
  <path class="cls-1" d="M3,17.32c-.5,0-.94-.09-1.32-.27-.38-.18-.68-.42-.89-.73-.21-.31-.32-.67-.32-1.07,0-.31.06-.6.18-.87.13-.27.3-.49.52-.67.22-.18.46-.29.73-.34v-.04c-.36-.09-.64-.29-.85-.6-.21-.31-.31-.66-.31-1.05,0-.38.09-.71.29-1.01s.46-.53.8-.7c.34-.17.73-.26,1.16-.26s.81.09,1.15.26c.34.17.6.41.8.7s.29.63.29,1.01c0,.39-.11.74-.32,1.05-.21.31-.49.51-.84.6v.04c.27.05.51.16.72.34.21.18.39.4.51.67.13.27.19.56.2.87,0,.4-.11.76-.32,1.07-.21.31-.51.56-.89.73-.38.18-.81.27-1.31.27ZM3,16.52c.34,0,.63-.05.87-.16.24-.11.43-.26.56-.46s.2-.43.2-.7c0-.28-.08-.53-.22-.74-.14-.21-.34-.38-.58-.51s-.52-.18-.84-.18-.6.06-.85.18c-.25.12-.44.29-.58.51-.14.21-.21.46-.21.74,0,.27.06.5.19.7.13.2.32.35.57.46s.54.16.88.16ZM3,13c.27,0,.5-.05.71-.16.21-.11.37-.25.49-.45.12-.19.18-.41.18-.67,0-.25-.06-.47-.18-.66-.12-.19-.28-.33-.48-.43s-.44-.15-.72-.15-.52.05-.73.15-.37.25-.48.43c-.11.19-.17.41-.17.66,0,.26.05.48.17.67.12.19.28.34.49.45s.45.16.72.16Z"/>
  <path class="cls-1" d="M1.09,26.22l3.32-6.56v-.06H.58v-.8h4.75v.84l-3.3,6.58h-.94Z"/>
  <path class="cls-1" d="M3.05,35.32c-.3,0-.61-.06-.91-.17-.3-.11-.58-.3-.83-.56-.25-.26-.45-.62-.61-1.08-.15-.45-.23-1.02-.23-1.71s.06-1.24.18-1.75.3-.94.54-1.29c.23-.35.52-.62.85-.8.33-.18.71-.27,1.12-.27s.79.08,1.11.25c.33.17.59.4.79.69.21.29.34.64.4,1.03h-.88c-.08-.34-.24-.62-.48-.84-.24-.22-.55-.33-.94-.33-.57,0-1.03.25-1.36.75-.33.5-.5,1.21-.5,2.12h.06c.14-.21.3-.38.48-.53.19-.15.39-.26.62-.34.23-.08.47-.12.72-.12.42,0,.81.11,1.17.32.35.21.64.5.85.87.21.37.32.79.32,1.27s-.1.88-.31,1.26c-.21.38-.49.68-.86.91-.37.22-.81.33-1.31.33ZM3.05,34.52c.3,0,.58-.08.82-.23.24-.15.43-.36.58-.61.14-.26.21-.54.21-.86s-.07-.59-.2-.84c-.14-.25-.32-.45-.56-.6-.24-.15-.51-.22-.81-.22-.23,0-.44.04-.64.14-.2.09-.37.21-.52.37-.15.16-.26.34-.35.54-.08.2-.13.41-.13.64,0,.29.07.57.21.83s.33.46.57.62c.24.16.52.24.83.24Z"/>
  <path class="cls-1" d="M2.99,44.32c-.42,0-.81-.08-1.15-.25-.34-.17-.61-.4-.82-.7-.21-.29-.32-.63-.34-1.01h.87c.03.34.19.61.46.83.27.22.6.33.98.33.3,0,.58-.07.81-.21.24-.14.42-.34.56-.59.14-.25.2-.53.2-.85s-.07-.61-.21-.87c-.14-.25-.33-.46-.58-.6s-.53-.22-.84-.22c-.23,0-.46.03-.7.1s-.44.16-.59.27l-.84-.1.45-3.65h3.85v.8h-3.1l-.26,2.19h.04c.15-.12.34-.22.57-.3.23-.08.47-.12.72-.12.45,0,.86.11,1.22.32.36.22.64.51.84.89s.31.8.31,1.28-.11.9-.32,1.27c-.21.37-.5.66-.87.88s-.79.32-1.26.32Z"/>
  <path class="cls-1" d="M.32,51.69v-.74l3.26-5.16h.54v1.14h-.36l-2.46,3.9v.06h4.39v.8H.32ZM3.81,53.22v-7.42h.85v7.42h-.85Z"/>
  <path class="cls-1" d="M3.03,62.32c-.48,0-.9-.08-1.28-.25s-.67-.39-.89-.69-.34-.63-.36-1.02h.91c.02.24.1.45.25.62.15.17.33.31.57.4.23.09.49.14.78.14.32,0,.6-.06.85-.17.25-.11.44-.26.58-.46.14-.2.21-.43.21-.69s-.07-.51-.2-.72c-.14-.21-.33-.37-.59-.49-.26-.12-.58-.18-.96-.18h-.59v-.8h.59c.29,0,.55-.05.78-.16.22-.11.4-.26.53-.45.13-.19.19-.42.19-.68s-.06-.47-.17-.66-.27-.33-.47-.43c-.2-.1-.44-.16-.71-.16-.26,0-.5.05-.72.14s-.41.23-.55.4-.22.39-.23.63h-.87c.01-.39.13-.73.35-1.02.22-.29.51-.52.86-.69.36-.16.75-.25,1.18-.25.46,0,.85.09,1.18.28s.58.43.76.73c.18.3.26.63.26.98,0,.42-.11.77-.33,1.07s-.51.5-.89.61v.06c.47.08.83.28,1.1.6.26.32.4.72.4,1.19,0,.4-.11.76-.33,1.08s-.52.57-.89.75c-.38.18-.81.28-1.29.28Z"/>
  <path class="cls-1" d="M.68,71.22v-.65l2.45-2.68c.29-.31.52-.59.71-.82.19-.23.32-.45.41-.66.09-.21.14-.42.14-.65,0-.26-.06-.49-.19-.68-.12-.19-.29-.34-.51-.44-.21-.1-.46-.16-.72-.16-.28,0-.53.06-.74.18-.21.12-.37.28-.49.49-.12.21-.17.46-.17.74h-.85c0-.43.1-.82.3-1.14s.47-.58.82-.77.74-.28,1.17-.28.82.09,1.16.28c.34.18.6.43.79.74s.29.66.29,1.04c0,.27-.05.54-.15.8-.1.26-.27.55-.51.87s-.57.7-1,1.16l-1.67,1.78v.06h3.45v.8H.68Z"/>
  <path class="cls-1" d="M4.01,72.8v7.42h-.9v-6.48h-.04l-1.81,1.2v-.91l1.85-1.23h.9Z"/>
  <path class="cls-1" d="M3,89.32c-.55,0-1.01-.15-1.39-.45-.38-.3-.68-.73-.88-1.3-.2-.57-.3-1.26-.3-2.06s.1-1.49.31-2.06c.2-.57.5-1,.88-1.3.38-.3.85-.45,1.39-.45s1,.15,1.39.45c.39.3.68.74.88,1.3s.31,1.25.31,2.06-.1,1.49-.3,2.06c-.2.57-.5,1-.88,1.3-.38.3-.85.45-1.39.45ZM3,88.52c.54,0,.96-.26,1.26-.78.3-.52.45-1.27.45-2.23,0-.64-.07-1.19-.21-1.64-.14-.45-.33-.8-.59-1.03-.25-.24-.56-.36-.92-.36-.54,0-.96.26-1.26.79-.3.53-.45,1.27-.45,2.24,0,.64.07,1.19.2,1.64s.33.79.58,1.03.56.35.92.35Z"/>
</svg>