<?xml version="1.0" encoding="utf-8"?>
<!-- Generator: Adobe Illustrator 22.1.0, SVG Export Plug-In . SVG Version: 6.00 Build 0)  -->
<svg version="1.1" id="Layer_1" xmlns="http://www.w3.org/2000/svg" xmlns:xlink="http://www.w3.org/1999/xlink" x="0px" y="0px"
	 viewBox="0 0 970 250" style="enable-background:new 0 0 970 250;" xml:space="preserve">
<style type="text/css">
	.st0{fill:#594F77;}
	.st1{fill:#FFFFFF;}
</style>
<g>
	<polygon class="st0" points="50,70.9 50,203.4 212,203.4 212,70.9 50,70.9 	"/>
	<g>
		<path class="st1" d="M145.2,98.9h-28.3c-1.5,0-2.7,1.2-2.7,2.7v0v9.7v27.4c0,1.5,1.2,2.7,2.7,2.7h28.3c1.5,0,2.7-1.2,2.7-2.7
			v-27.4v-9.7v0C147.8,100.1,146.6,98.9,145.2,98.9L145.2,98.9z M116,101.6c0-0.5,0.4-0.9,0.9-0.9h28.3c0.5,0,0.9,0.4,0.9,0.9v9.7
			c0,0.5-0.4,0.9-0.9,0.9h-28.3c-0.5,0-0.9-0.4-0.9-0.9V101.6L116,101.6z M145.2,139.6h-28.3c-0.5,0-0.9-0.4-0.9-0.9v-24.9
			c0.3,0.1,0.6,0.2,0.9,0.2h28.3c0.3,0,0.6-0.1,0.9-0.2v24.9C146,139.2,145.6,139.6,145.2,139.6L145.2,139.6z"/>
		<path class="st1" d="M120.4,110.4h21.2c1,0,1.8-0.8,1.8-1.8v-4.4c0-1-0.8-1.8-1.8-1.8h-21.2c-1,0-1.8,0.8-1.8,1.8v4.4
			C118.6,109.6,119.4,110.4,120.4,110.4L120.4,110.4z M120.4,104.2h21.2l0,4.4h-21.2V104.2L120.4,104.2z"/>
		<path class="st1" d="M123.9,115.7h-3.5c-1,0-1.8,0.8-1.8,1.8v2.7c0,1,0.8,1.8,1.8,1.8h3.5c1,0,1.8-0.8,1.8-1.8v-2.7
			C125.7,116.5,124.9,115.7,123.9,115.7L123.9,115.7z M120.4,120.1v-2.7h3.5l0,2.7H120.4L120.4,120.1z"/>
		<path class="st1" d="M132.8,115.7h-3.5c-1,0-1.8,0.8-1.8,1.8v2.7c0,1,0.8,1.8,1.8,1.8h3.5c1,0,1.8-0.8,1.8-1.8v-2.7
			C134.5,116.5,133.7,115.7,132.8,115.7L132.8,115.7z M129.2,120.1v-2.7h3.5l0,2.7H129.2L129.2,120.1z"/>
		<path class="st1" d="M141.6,115.7h-3.5c-1,0-1.8,0.8-1.8,1.8v2.7c0,1,0.8,1.8,1.8,1.8h3.5c1,0,1.8-0.8,1.8-1.8v-2.7
			C143.4,116.5,142.6,115.7,141.6,115.7L141.6,115.7z M138.1,120.1v-2.7h3.5l0,2.7H138.1L138.1,120.1z"/>
		<path class="st1" d="M123.9,123.7h-3.5c-1,0-1.8,0.8-1.8,1.8v2.7c0,1,0.8,1.8,1.8,1.8h3.5c1,0,1.8-0.8,1.8-1.8v-2.7
			C125.7,124.5,124.9,123.7,123.9,123.7L123.9,123.7z M120.4,128.1v-2.7h3.5l0,2.7H120.4L120.4,128.1z"/>
		<path class="st1" d="M132.8,123.7h-3.5c-1,0-1.8,0.8-1.8,1.8v2.7c0,1,0.8,1.8,1.8,1.8h3.5c1,0,1.8-0.8,1.8-1.8v-2.7
			C134.5,124.5,133.7,123.7,132.8,123.7L132.8,123.7z M129.2,128.1v-2.7h3.5l0,2.7H129.2L129.2,128.1z"/>
		<path class="st1" d="M141.6,123.7h-3.5c-1,0-1.8,0.8-1.8,1.8v2.7c0,1,0.8,1.8,1.8,1.8h3.5c1,0,1.8-0.8,1.8-1.8v-2.7
			C143.4,124.5,142.6,123.7,141.6,123.7L141.6,123.7z M138.1,128.1v-2.7h3.5l0,2.7H138.1L138.1,128.1z"/>
		<path class="st1" d="M132.8,131.7h-3.5c-1,0-1.8,0.8-1.8,1.8v2.7c0,1,0.8,1.8,1.8,1.8h3.5c1,0,1.8-0.8,1.8-1.8v-2.7
			C134.5,132.4,133.7,131.7,132.8,131.7L132.8,131.7z M129.2,136.1v-2.7h3.5l0,2.7H129.2L129.2,136.1z"/>
		<path class="st1" d="M123.9,131.7h-3.5c-1,0-1.8,0.8-1.8,1.8v2.7c0,1,0.8,1.8,1.8,1.8h3.5c1,0,1.8-0.8,1.8-1.8v-2.7
			C125.7,132.4,124.9,131.7,123.9,131.7L123.9,131.7z M120.4,136.1v-2.7h3.5l0,2.7H120.4L120.4,136.1z"/>
		<path class="st1" d="M141.6,131.7h-3.5c-1,0-1.8,0.8-1.8,1.8v2.7c0,1,0.8,1.8,1.8,1.8h3.5c1,0,1.8-0.8,1.8-1.8v-2.7
			C143.4,132.4,142.6,131.7,141.6,131.7L141.6,131.7z M138.1,136.1v-2.7h3.5l0,2.7H138.1L138.1,136.1z"/>
	</g>
	<g>
		<g>
			<path class="st1" d="M83.1,163.2H87c1.8,0,3.3,0.1,4.4,1.4c0.7,0.8,0.8,1.7,0.8,2.4c0,1.5-0.6,2.7-1.6,3.4
				c-0.9,0.6-2.2,0.6-2.9,0.6h-1.8v4.9h-2.7V163.2z M85.8,168.9h1.1c0.9,0,2.5,0,2.5-1.9c0-1.7-1.5-1.7-2.2-1.7h-1.4V168.9z"/>
			<path class="st1" d="M98.4,175.8c-0.1-0.5-0.1-0.9-0.1-1.2c-1,1.4-2.2,1.4-2.6,1.4c-1.3,0-1.9-0.4-2.2-0.7
				c-0.5-0.5-0.8-1.2-0.8-1.9c0-0.7,0.2-2,1.9-2.7c1.1-0.5,2.6-0.5,3.5-0.5c0-0.6,0-0.9-0.1-1.2c-0.2-0.6-0.9-0.7-1.2-0.7
				c-0.4,0-0.8,0.2-1,0.5c-0.2,0.3-0.2,0.6-0.2,0.8h-2.5c0-0.5,0.1-1.4,1-2.1c0.8-0.6,1.8-0.7,2.7-0.7c0.7,0,2.3,0.1,3.2,1.1
				c0.6,0.7,0.6,1.8,0.6,2.2l0,3.6c0,0.8,0.1,1.5,0.2,2.2H98.4z M95.2,173.1c0,0.6,0.4,1.3,1.3,1.3c0.5,0,0.9-0.2,1.1-0.5
				c0.5-0.6,0.5-1.2,0.5-2.2C96.4,171.5,95.2,172,95.2,173.1z"/>
		</g>
		<g>
			<path class="st1" d="M104.4,167l1.9,6.1l2-6.1h2.6l-3.3,8.7l-1.1,3.5h-2.6l1.1-3.3l-3.4-8.9H104.4z"/>
			<path class="st1" d="M117,163.1h2.6v12.7H117V163.1z"/>
			<path class="st1" d="M124,172c0,0.6,0,2.4,1.8,2.4c0.6,0,1.3-0.2,1.5-1.2h2.4c0,0.4-0.1,1.2-0.8,1.9c-0.6,0.7-1.8,1-3.1,1
				c-0.8,0-2.2-0.1-3.1-1.1c-0.8-0.8-1.1-2-1.1-3.4c0-1.4,0.4-3.2,1.8-4.2c0.7-0.5,1.5-0.7,2.5-0.7c1.3,0,2.8,0.5,3.6,2.1
				c0.6,1.2,0.6,2.5,0.5,3.2H124z M127.3,170.4c0-0.4,0-2-1.5-2c-1.1,0-1.6,0.9-1.7,2H127.3z"/>
			<path class="st1" d="M133.4,173.2c0,0.6,0.4,1.2,1.5,1.2c0.9,0,1.4-0.5,1.4-1.1c0-0.4-0.2-0.7-1.2-1l-1.6-0.4
				c-0.7-0.2-2.2-0.6-2.2-2.5c0-1.7,1.6-2.8,3.9-2.8c1.8,0,3.3,0.8,3.4,2.6h-2.4c-0.1-1-0.9-1.1-1.3-1.1c-0.7,0-1.2,0.3-1.2,0.9
				c0,0.6,0.4,0.7,1.2,0.9l1.6,0.4c1.6,0.4,2.4,1.3,2.4,2.5c0,1.5-1.3,3-4.1,3c-1.1,0-2.2-0.2-3-1.1c-0.6-0.6-0.6-1.3-0.6-1.7H133.4
				z"/>
			<path class="st1" d="M142.2,173.2c0,0.6,0.4,1.2,1.5,1.2c0.9,0,1.4-0.5,1.4-1.1c0-0.4-0.2-0.7-1.2-1l-1.6-0.4
				c-0.7-0.2-2.2-0.6-2.2-2.5c0-1.7,1.6-2.8,3.9-2.8c1.8,0,3.3,0.8,3.4,2.6h-2.4c-0.1-1-0.9-1.1-1.3-1.1c-0.7,0-1.2,0.3-1.2,0.9
				c0,0.6,0.4,0.7,1.2,0.9l1.6,0.4c1.6,0.4,2.4,1.3,2.4,2.5c0,1.5-1.3,3-4.1,3c-1.1,0-2.2-0.2-3-1.1c-0.6-0.6-0.6-1.3-0.6-1.7H142.2
				z"/>
			<path class="st1" d="M159.2,175.7c-0.8,0.2-1.6,0.3-2,0.3c-2.6,0-2.6-1.6-2.6-2.4v-4.8h-1.7V167h1.7v-1.7l2.6-0.9v2.7h2.1v1.7
				h-2.1v4c0,0.8,0,1.3,1.2,1.3c0.4,0,0.6,0,0.9-0.1V175.7z"/>
			<path class="st1" d="M166.1,175.8c-0.1-0.5-0.1-0.9-0.1-1.2c-1,1.4-2.2,1.4-2.6,1.4c-1.3,0-1.9-0.4-2.2-0.7
				c-0.5-0.5-0.8-1.2-0.8-1.9c0-0.7,0.2-2,1.9-2.7c1.1-0.5,2.6-0.5,3.5-0.5c0-0.6,0-0.9-0.1-1.2c-0.2-0.6-0.9-0.7-1.2-0.7
				c-0.4,0-0.8,0.2-1,0.5c-0.2,0.3-0.2,0.6-0.2,0.8h-2.5c0-0.5,0.1-1.4,1-2.1c0.8-0.6,1.8-0.7,2.7-0.7c0.7,0,2.3,0.1,3.2,1.1
				c0.6,0.7,0.6,1.8,0.6,2.2l0,3.6c0,0.8,0.1,1.5,0.2,2.2H166.1z M162.9,173.1c0,0.6,0.4,1.3,1.3,1.3c0.5,0,0.9-0.2,1.1-0.5
				c0.5-0.6,0.5-1.2,0.5-2.2C164.1,171.5,162.9,172,162.9,173.1z"/>
			<path class="st1" d="M172.7,167l1.7,2.9l1.7-2.9h2.7l-2.9,4.3l3,4.5h-3.1l-1.8-3.2l-1.8,3.2h-2.7l3-4.7l-2.8-4.1H172.7z"/>
		</g>
	</g>
</g>
</svg>
