<?xml version="1.0" encoding="utf-8"?>
<!-- Generator: Adobe Illustrator 22.1.0, SVG Export Plug-In . SVG Version: 6.00 Build 0)  -->
<svg version="1.1" id="Layer_1" xmlns="http://www.w3.org/2000/svg" xmlns:xlink="http://www.w3.org/1999/xlink" x="0px" y="0px"
	 viewBox="0 0 970 250" style="enable-background:new 0 0 970 250;" xml:space="preserve">
<style type="text/css">
	.st0{fill:#FFFFFF;}
	.st1{fill:none;stroke:#FFFFFF;stroke-width:0.2238;stroke-miterlimit:10;}
	.st2{fill:#6A6191;}
</style>
<path class="st0" d="M311.2,108.9c3.1-2.7,5.5-8.5,5.5-11.8c0-2.9-4.8-4-9.4-4c-4.6,0-9.4,1-9.4,4c0,3,2.7,8.8,6,11.6
	c-9.9,2.4-17.4,14.8-17.4,25.3c0,6.4,10.4,13.1,20.7,13.1c10.3,0,20.7-6.8,20.7-13.1C328.1,123.7,320.8,111.6,311.2,108.9
	L311.2,108.9z M300,97.1c0-0.6,2.5-1.9,7.3-1.9c4.8,0,7.3,1.3,7.3,1.9c0,3.6-3.9,11.2-6.9,11.2C304.7,108.4,300,100.9,300,97.1
	L300,97.1z M307.3,145.1c-9.1,0-18.7-6.5-18.7-11c0-10.6,8.7-23.6,18.7-23.6c10,0,18.7,12.9,18.7,23.6
	C326,138.6,316.4,145.1,307.3,145.1L307.3,145.1z"/>
<path class="st1" d="M311.2,108.9c3.1-2.7,5.5-8.5,5.5-11.8c0-2.9-4.8-4-9.4-4c-4.6,0-9.4,1-9.4,4c0,3,2.7,8.8,6,11.6
	c-9.9,2.4-17.4,14.8-17.4,25.3c0,6.4,10.4,13.1,20.7,13.1c10.3,0,20.7-6.8,20.7-13.1C328.1,123.7,320.8,111.6,311.2,108.9
	L311.2,108.9z M300,97.1c0-0.6,2.5-1.9,7.3-1.9c4.8,0,7.3,1.3,7.3,1.9c0,3.6-3.9,11.2-6.9,11.2C304.7,108.4,300,100.9,300,97.1
	L300,97.1z M307.3,145.1c-9.1,0-18.7-6.5-18.7-11c0-10.6,8.7-23.6,18.7-23.6c10,0,18.7,12.9,18.7,23.6
	C326,138.6,316.4,145.1,307.3,145.1L307.3,145.1z"/>
<g>
	<polygon class="st2" points="226.3,70.9 226.3,203.4 388.4,203.4 388.4,70.9 226.3,70.9 	"/>
	<g>
		<g>
			<path class="st0" d="M307.3,147.9c-13.6,0-22.4-6.8-22.4-17.4c0-8.7,7.5-17.8,15.1-21.8c-2.2-3.2-3.7-8.4-3.7-10.5
				c0-5.7,6.9-5.7,11-5.7c4.1,0,11,0,11,5.7c0,2.1-1.5,7.2-3.7,10.5c7.6,4,15.1,13.1,15.1,21.8C329.7,141,320.9,147.9,307.3,147.9z
				 M307.3,109.5c-7.7,0-19.5,11.2-19.5,21c0,10.7,10.1,14.5,19.5,14.5c9.4,0,19.5-3.8,19.5-14.5C326.8,120.7,315,109.5,307.3,109.5
				z M307.3,95.3c-6.8,0-8.1,1-8.1,2.8c0,1.7,1.6,6.8,3.5,9.3c1.6-0.6,3.1-0.9,4.6-0.9c1.4,0,3,0.3,4.6,0.9c1.9-2.5,3.5-7.5,3.5-9.3
				C315.4,96.4,314.1,95.3,307.3,95.3z"/>
		</g>
		<path class="st0" d="M301.8,129.3c0,1.5,0.3,2.7,1.2,3.5c0.3,0.3,1.6,1.4,3.7,1.3v2.2h1.2v-2.2c0.8,0,2-0.1,3.2-1
			c0.9-0.6,1.9-1.8,1.9-3.6c0-3.2-2.4-4-4.9-4.6v-4c1,0.1,1.7,0.4,1.7,2.1h3c0-0.7,0-2-1.1-3.1c-1.1-1.1-2.4-1.3-3.6-1.3v-1.8h-1.2
			v1.9c-0.8,0.1-2.4,0.2-3.6,1.6c-1,1.1-1.1,2.1-1.1,3c0,3,2.2,3.9,4.6,4.6v4c-0.5,0-2-0.2-1.9-2.5H301.8L301.8,129.3z M306.8,124.6
			c-0.9-0.3-1.7-0.6-1.7-1.9c0-0.9,0.5-1.7,1.7-1.7V124.6L306.8,124.6z M307.9,128c1.3,0.4,1.8,0.9,1.8,1.9c0,1.2-0.9,1.8-1.8,1.9
			V128L307.9,128z"/>
	</g>
	<g>
		<g>
			<path class="st0" d="M281.7,162.5h2.9v13.4h-2.9V162.5z"/>
		</g>
		<g>
			<path class="st0" d="M287,168.2c0,0,0-1.1-0.1-1.7h2.6l0.1,1.4c0.3-0.4,1-1.6,3-1.6c1.8,0,2.6,1.1,2.9,1.8
				c0.2,0.6,0.3,1.1,0.3,2.8v5.1H293v-5.8c0-0.4,0-0.7-0.1-1c-0.2-0.4-0.6-0.8-1.3-0.8c-0.6,0-1.1,0.3-1.4,0.7
				c-0.2,0.2-0.3,0.7-0.3,1.4v5.5H287V168.2z"/>
			<path class="st0" d="M299.8,166.5l2.1,6.4l2.2-6.4h2.7l-3.4,9.4h-3l-3.4-9.4H299.8z"/>
		</g>
		<g>
			<path class="st0" d="M310.1,171.9c0,0.6,0,2.5,1.9,2.5c0.7,0,1.4-0.3,1.6-1.3h2.5c0,0.4-0.1,1.2-0.9,2c-0.7,0.7-1.9,1.1-3.3,1.1
				c-0.8,0-2.3-0.1-3.3-1.2c-0.9-0.9-1.2-2.2-1.2-3.7c0-1.5,0.4-3.3,1.9-4.4c0.7-0.5,1.6-0.8,2.6-0.8c1.3,0,2.9,0.5,3.8,2.3
				c0.6,1.3,0.6,2.7,0.6,3.4H310.1z M313.5,170.2c0-0.4,0-2.1-1.6-2.1c-1.2,0-1.7,1-1.8,2.1H313.5z"/>
			<path class="st0" d="M320.1,173.2c0,0.6,0.4,1.3,1.6,1.3c1,0,1.4-0.6,1.4-1.1c0-0.4-0.2-0.8-1.3-1.1l-1.7-0.5
				c-0.8-0.2-2.4-0.7-2.4-2.6c0-1.8,1.7-2.9,4.1-2.9c1.9,0,3.5,0.9,3.6,2.8h-2.5c-0.1-1-0.9-1.1-1.3-1.1c-0.7,0-1.3,0.4-1.3,0.9
				c0,0.6,0.5,0.8,1.3,1l1.7,0.5c1.7,0.5,2.5,1.3,2.5,2.6c0,1.6-1.4,3.2-4.3,3.2c-1.2,0-2.4-0.3-3.2-1.1c-0.6-0.6-0.7-1.4-0.7-1.8
				H320.1z"/>
			<path class="st0" d="M332.9,175.8c-0.9,0.2-1.7,0.3-2.1,0.3c-2.8,0-2.8-1.7-2.8-2.5v-5.1h-1.8v-1.8h1.8v-1.8l2.7-1v2.8h2.2v1.8
				h-2.2v4.2c0,0.9,0,1.4,1.2,1.4c0.4,0,0.6,0,0.9-0.1V175.8z"/>
		</g>
	</g>
</g>
</svg>
