<?xml version="1.0" encoding="utf-8"?>
<!-- Generator: Adobe Illustrator 22.1.0, SVG Export Plug-In . SVG Version: 6.00 Build 0)  -->
<svg version="1.1" id="Layer_1" xmlns="http://www.w3.org/2000/svg" xmlns:xlink="http://www.w3.org/1999/xlink" x="0px" y="0px"
	 viewBox="0 0 970 250" style="enable-background:new 0 0 970 250;" xml:space="preserve">
<style type="text/css">
	.st0{fill:#B78CAE;}
	.st1{fill:#FFFFFF;}
</style>
<g>
	<polygon class="st0" points="579,70.9 579,203.4 741,203.4 741,70.9 579,70.9 	"/>
	<g>
		<path class="st1" d="M690.8,119.9c0,0.5,0,1-0.1,1.5c-3,1.8-6.1,3.3-9.4,4.6l0,0.1c0,0-0.1,0-0.3,0.1c-10.8,4.2-22.2,5.9-31.4,6.5
			c-4.9-1.3-8.8-2.9-12.1-4.5c-3.2-1.6-5.7-3.1-7.6-4.3c-0.5-1.4-0.7-2.7-0.7-4c0-3,1.3-5.4,3.7-7.3c2.4-1.9,5.8-3.2,10-4.1
			c1.5-2.8,3.6-4.8,5.7-5.3c2.7-0.6,6.4,1,9.5,3.9c0.7,0,1.4,0,2,0c0.4,0,0.9,0,1.3,0c3.8-4.9,9.8-8.3,13.6-7.1
			c1.5,0.5,2.9,1.7,4,3.4c1.2,1.7,2.1,3.9,2.7,6.3C687.6,111.6,690.8,114.9,690.8,119.9L690.8,119.9z M684.4,118.3
			c0-1.2-0.7-2.3-1.9-3.3c0,1.7-0.2,3.3-0.7,4.8c-0.3,1.1-0.7,2.1-1.2,3.1C682.9,121.6,684.4,120.1,684.4,118.3L684.4,118.3z
			 M679.4,118c1.9-6.2-1.3-14.8-4.8-15.9c-3.3-1-10.3,3.8-12.6,9.6c0.5,0.8,1,1.7,1.4,2.6c0.4,0.9,0.7,1.8,0.9,2.7
			c0.4,1.7,0.6,6.3-1.2,10.3c0.1,0.2,0.2,0.4,0.3,0.6c2.9-0.2,5.9-0.8,8.6-1.5c1.3-0.8,2.4-1.5,2.6-1.6
			C676.7,123.5,678.4,121.2,679.4,118L679.4,118z M660.7,125.8c1.1-2.2,1.4-5,0.7-8.3c-1.5-6.3-8.5-12.2-12.1-11.3
			c-3.6,0.8-7.4,9.2-5.9,15.5c0.3,1.4,0.8,2.6,1.3,3.6c3.7,1.2,8.8,2.5,14.2,2.7C659.9,127,660.5,126.1,660.7,125.8L660.7,125.8z
			 M640.9,123.5c-0.1-0.3-0.2-0.7-0.3-1c-0.7-3-0.4-6.4,0.5-9.5c-3.3,1.4-5.4,3.1-5.4,5.3C635.8,120.4,637.8,122.2,640.9,123.5
			L640.9,123.5z"/>
		<path class="st1" d="M690.1,124.1c-1.3,3.9-4.4,7.6-8.8,10.6c-10.7,1-19.5,0.5-26.7-0.8C668.4,132.7,677.6,130.1,690.1,124.1
			L690.1,124.1z"/>
		<path class="st1" d="M645.6,134.4c8.8,2.6,19.1,3.7,30.7,3c-4.5,2-10,3.2-16,3.2c-8.5,0-15.8-2.4-21.1-5.9
			C641.4,134.6,643.5,134.5,645.6,134.4L645.6,134.4z"/>
		<path class="st1" d="M641.4,133c-0.8,0-1.6,0-2.4,0c-0.8,0-1.5,0-2.2,0c-1.5-1.2-2.8-2.5-3.9-3.8
			C635.6,130.7,638.4,131.9,641.4,133L641.4,133z"/>
	</g>
	<g>
		<g>
			<path class="st1" d="M595.9,162.3v8.3c0,1.5,0.1,3.3,2.9,3.3c0.5,0,1.9,0,2.6-1.2c0.3-0.4,0.4-0.9,0.4-2.3v-8.1h2.8v8.5
				c0,4-3.2,5.3-5.9,5.3c-1.4,0-3.8-0.3-5.1-2.3c-0.7-1-0.7-2.1-0.7-3.3v-8.1H595.9z"/>
			<path class="st1" d="M609.3,173.1c0,0.6,0.4,1.3,1.6,1.3c1,0,1.5-0.6,1.5-1.1c0-0.4-0.2-0.8-1.3-1.1l-1.7-0.5
				c-0.8-0.2-2.4-0.7-2.4-2.6c0-1.8,1.7-3,4.1-3c2,0,3.5,0.9,3.6,2.8h-2.5c-0.1-1.1-0.9-1.1-1.4-1.1c-0.8,0-1.3,0.4-1.3,0.9
				c0,0.6,0.5,0.8,1.3,1l1.7,0.5c1.7,0.5,2.5,1.4,2.5,2.6c0,1.6-1.4,3.3-4.4,3.3c-1.2,0-2.4-0.3-3.2-1.2c-0.6-0.7-0.7-1.4-0.7-1.9
				H609.3z"/>
			<path class="st1" d="M619,171.8c0,0.6,0,2.5,1.9,2.5c0.7,0,1.4-0.3,1.7-1.3h2.5c0,0.5-0.1,1.3-0.9,2.1c-0.7,0.7-1.9,1.1-3.3,1.1
				c-0.8,0-2.3-0.2-3.3-1.2c-0.9-0.9-1.2-2.2-1.2-3.7c0-1.5,0.4-3.4,2-4.5c0.7-0.5,1.6-0.8,2.7-0.8c1.4,0,3,0.5,3.8,2.3
				c0.6,1.3,0.6,2.7,0.6,3.5H619z M622.5,170.1c0-0.4,0-2.1-1.7-2.1c-1.2,0-1.7,1-1.8,2.1H622.5z"/>
			<path class="st1" d="M634.5,166.4l2.1,6.6l2.1-6.6h2.8l-3.6,9.3l-1.1,3.8h-2.8l1.2-3.6l-3.6-9.5H634.5z"/>
		</g>
		<g>
			<path class="st1" d="M646.9,166.1c3.4,0,4.9,2.3,4.9,5c0,2.7-1.5,5.1-5,5.1c-2.7,0-4.8-1.7-4.8-5
				C642,168.9,643.2,166.1,646.9,166.1z M647,174.2c1.2,0,2-0.7,2-3.2c0-1.3-0.2-3-2.1-3c-2,0-2,2.3-2,3.2
				C644.9,173.3,645.6,174.2,647,174.2z"/>
			<path class="st1" d="M656.7,166.4v5.6c0,0.8,0,2.1,1.5,2.1c1.8,0,1.8-1.3,1.8-2.9v-4.8h2.9v6.2c0,2,0.1,2.3,0.1,2.5
				c0,0.3,0,0.4,0.1,0.7h-2.7l-0.1-1.3c-0.3,0.4-1,1.5-2.8,1.5c-1.3,0-2.3-0.6-2.9-1.3c-0.6-0.8-0.6-2.1-0.6-2.6v-5.9H656.7z"/>
			<path class="st1" d="M665.4,168.7c0-0.4-0.1-1.8-0.1-2.4h2.6l0.1,1.8c0.4-0.8,1-2,3.2-1.8v2.5c-2.8-0.3-3,1.2-3,2.4v4.7h-2.8
				V168.7z"/>
			<path class="st1" d="M679.8,173.1c0,0.6,0.4,1.3,1.6,1.3c1,0,1.5-0.6,1.5-1.1c0-0.4-0.2-0.8-1.3-1.1l-1.7-0.5
				c-0.8-0.2-2.4-0.7-2.4-2.6c0-1.8,1.7-3,4.1-3c2,0,3.5,0.9,3.6,2.8h-2.5c-0.1-1.1-0.9-1.1-1.3-1.1c-0.8,0-1.3,0.4-1.3,0.9
				c0,0.6,0.5,0.8,1.3,1l1.7,0.5c1.7,0.5,2.5,1.4,2.5,2.6c0,1.6-1.4,3.3-4.4,3.3c-1.2,0-2.4-0.3-3.2-1.2c-0.6-0.7-0.7-1.4-0.7-1.9
				H679.8z"/>
			<path class="st1" d="M690,166.4v5.6c0,0.8,0,2.1,1.5,2.1c1.8,0,1.8-1.3,1.8-2.9v-4.8h2.9v6.2c0,2,0.1,2.3,0.1,2.5
				c0,0.3,0,0.4,0.1,0.7h-2.7l-0.1-1.3c-0.3,0.4-1,1.5-2.8,1.5c-1.3,0-2.3-0.6-2.9-1.3c-0.6-0.8-0.6-2.1-0.6-2.6v-5.9H690z"/>
			<path class="st1" d="M701.3,166.4l0.1,1.4c0.9-1.5,2.4-1.5,2.9-1.5c2.5,0,3.9,1.8,3.9,4.7c0,2.7-1.4,5.1-4.1,5.1
				c-1.7,0-2.4-0.9-2.6-1.2v4.7h-2.8v-13.1H701.3z M705.4,171c0-1.1-0.3-3.1-1.9-3.1c-0.9,0-2.2,0.7-2.2,3.2c0,0.6,0,3,2.1,3
				C704.7,174.1,705.4,172.9,705.4,171z"/>
			<path class="st1" d="M712.4,171.8c0,0.6,0,2.5,1.9,2.5c0.7,0,1.4-0.3,1.7-1.3h2.5c0,0.5-0.1,1.3-0.9,2.1
				c-0.7,0.7-1.9,1.1-3.3,1.1c-0.8,0-2.3-0.2-3.3-1.2c-0.9-0.9-1.2-2.2-1.2-3.7c0-1.5,0.4-3.4,2-4.5c0.7-0.5,1.6-0.8,2.7-0.8
				c1.4,0,3,0.5,3.8,2.3c0.6,1.3,0.6,2.7,0.6,3.5H712.4z M716,170.1c0-0.4,0-2.1-1.7-2.1c-1.2,0-1.7,1-1.8,2.1H716z"/>
			<path class="st1" d="M720.6,168.7c0-0.4-0.1-1.8-0.1-2.4h2.6l0.1,1.8c0.4-0.8,1-2,3.2-1.8v2.5c-2.8-0.3-3,1.2-3,2.4v4.7h-2.8
				V168.7z"/>
		</g>
	</g>
</g>
</svg>
