<?xml version="1.0" encoding="utf-8"?>
<!-- Generator: Adobe Illustrator 22.1.0, SVG Export Plug-In . SVG Version: 6.00 Build 0)  -->
<svg version="1.1" id="Layer_1" xmlns="http://www.w3.org/2000/svg" xmlns:xlink="http://www.w3.org/1999/xlink" x="0px" y="0px"
	 viewBox="0 0 182 38" style="enable-background:new 0 0 182 38;" xml:space="preserve">
<style type="text/css">
	.st0{fill:#D1AE56;}
	.st1{fill:#382E5F;}
</style>
<g>
	<rect x="0.1" y="0.5" class="st0" width="181.8" height="37"/>
	<g>
		<g>
			<path class="st1" d="M25.5,21.3c0,0.5,0,1.9,1.8,1.9c1.2,0,1.9-0.6,1.9-1.4c0-0.9-0.6-1-1.9-1.4c-2.4-0.6-3.7-1.3-3.7-3.1
				c0-1.7,1.2-3.1,4-3.1c1,0,2.3,0.2,3,1.2c0.6,0.7,0.6,1.5,0.6,1.9h-2.1c0-0.3-0.1-1.5-1.6-1.5c-1,0-1.7,0.5-1.7,1.4
				c0,0.9,0.7,1.1,2.2,1.5c1.7,0.4,3.5,0.9,3.5,2.9c0,1.8-1.5,3.3-4.3,3.3c-3.9,0-3.9-2.5-3.9-3.5H25.5z"/>
			<path class="st1" d="M33.2,14.4h6.8v1.7h-4.6v2.4h4.3v1.7h-4.3v2.7h4.8v1.7h-6.9V14.4z"/>
			<path class="st1" d="M47.3,17.7c0-0.3-0.2-1.8-1.6-1.8c-1.6,0-2.3,1.7-2.3,3.8c0,0.6,0,3.5,2.1,3.5c0.9,0,1.8-0.6,1.8-1.9h2.3
				c0,0.6-0.1,1.5-0.9,2.4c-0.9,0.9-2,1.1-3,1.1c-3.5,0-4.6-2.6-4.6-5.1c0-3.2,1.8-5.3,4.6-5.3c2.2,0,3.8,1.3,3.8,3.4H47.3z"/>
			<path class="st1" d="M53.2,14.4v6.2c0,1.1,0.1,2.5,2.2,2.5c0.3,0,1.4,0,2-0.9c0.2-0.3,0.3-0.7,0.3-1.7v-6h2.1v6.3
				c0,3-2.4,4-4.4,4c-1,0-2.9-0.2-3.8-1.7C51,22.2,51,21.4,51,20.5v-6H53.2z"/>
			<path class="st1" d="M61.7,14.4h3.9c1.1,0,2.3,0,3.1,0.7c0.6,0.5,0.9,1.3,0.9,1.9c0,1.9-1.6,2.3-2.1,2.5c1.5,0.1,1.6,1,1.8,2.3
				c0.2,1.2,0.2,1.7,0.3,2c0.1,0.4,0.2,0.6,0.3,0.7h-2.4c-0.1-0.6-0.4-3.1-0.5-3.5c-0.2-0.6-0.7-0.6-1.1-0.6H64v4.1h-2.2V14.4z
				 M63.9,18.8h1.7c0.3,0,0.8,0,1.1-0.3c0.2-0.1,0.6-0.5,0.6-1.2c0-0.7-0.3-1-0.5-1.1C66.4,16,66,16,65.3,16h-1.5V18.8z"/>
			<path class="st1" d="M71.3,14.4H78v1.7h-4.6v2.4h4.3v1.7h-4.3v2.7h4.8v1.7h-6.9V14.4z"/>
		</g>
		<g>
			<path class="st1" d="M83.3,14.5l2.1,4.6l2.1-4.6h2.2l-3.4,6.4v3.7h-2.1v-3.7l-3.4-6.4H83.3z"/>
		</g>
		<g>
			<path class="st1" d="M94.3,14.2c1.1,0,2.6,0.3,3.6,1.4c1.1,1.2,1.3,2.8,1.3,3.8c0,1.5-0.4,3-1.3,4c-1.1,1.3-2.8,1.4-3.6,1.4
				c-1.3,0-2.7-0.4-3.6-1.4c-1.1-1.2-1.2-2.9-1.2-3.8C89.5,16.9,90.7,14.2,94.3,14.2z M92.5,22.4c0.3,0.4,0.8,0.8,1.8,0.8
				c0.9,0,1.5-0.3,1.9-0.9c0.3-0.5,0.7-1.3,0.7-2.9c0-0.5,0-1.2-0.3-1.8c-0.4-1.2-1.3-1.8-2.3-1.8c-0.8,0-1.5,0.3-1.9,0.9
				c-0.6,0.7-0.7,1.8-0.7,2.9C91.7,20.5,91.9,21.6,92.5,22.4z"/>
			<path class="st1" d="M102.9,14.4v6.2c0,1.1,0.1,2.5,2.2,2.5c0.3,0,1.4,0,2-0.9c0.2-0.3,0.3-0.7,0.3-1.7v-6h2.1v6.3
				c0,3-2.4,4-4.4,4c-1,0-2.9-0.2-3.8-1.7c-0.5-0.8-0.5-1.6-0.5-2.5v-6H102.9z"/>
			<path class="st1" d="M111.5,14.4h3.9c1.1,0,2.3,0,3.1,0.7c0.6,0.5,0.9,1.3,0.9,1.9c0,1.9-1.6,2.3-2.1,2.5c1.5,0.1,1.6,1,1.8,2.3
				c0.2,1.2,0.2,1.7,0.3,2c0.1,0.4,0.2,0.6,0.3,0.7h-2.4c-0.1-0.6-0.4-3.1-0.5-3.5c-0.2-0.6-0.7-0.6-1.1-0.6h-1.9v4.1h-2.2V14.4z
				 M113.6,18.8h1.7c0.3,0,0.8,0,1.1-0.3c0.2-0.1,0.6-0.5,0.6-1.2c0-0.7-0.3-1-0.5-1.1c-0.3-0.2-0.7-0.2-1.4-0.2h-1.5V18.8z"/>
			<path class="st1" d="M126.6,21.3c0,0.5,0,1.9,1.8,1.9c1.2,0,1.9-0.6,1.9-1.4c0-0.9-0.6-1-1.9-1.4c-2.4-0.6-3.7-1.3-3.7-3.1
				c0-1.7,1.2-3.1,4-3.1c1,0,2.3,0.2,3,1.2c0.6,0.7,0.6,1.5,0.6,1.9h-2.1c0-0.3-0.1-1.5-1.6-1.5c-1,0-1.7,0.5-1.7,1.4
				c0,0.9,0.7,1.1,2.2,1.5c1.7,0.4,3.5,0.9,3.5,2.9c0,1.8-1.5,3.3-4.3,3.3c-3.9,0-3.9-2.5-3.9-3.5H126.6z"/>
			<path class="st1" d="M134.3,14.4h6.8v1.7h-4.6v2.4h4.3v1.7h-4.3v2.7h4.8v1.7h-6.9V14.4z"/>
			<path class="st1" d="M148.1,14.4l3.5,10.1h-2.2l-0.7-2.2h-4l-0.8,2.2h-2.1l3.7-10.1H148.1z M148.1,20.7l-1.4-4.3l-1.5,4.3H148.1z
				"/>
		</g>
		<g>
			<path class="st1" d="M153.5,16.1h-3v-1.7h8.2v1.7h-3v8.4h-2.2V16.1z"/>
		</g>
	</g>
</g>
</svg>
