<?xml version="1.0" encoding="utf-8"?>
<!-- Generator: Adobe Illustrator 22.1.0, SVG Export Plug-In . SVG Version: 6.00 Build 0)  -->
<svg version="1.1" id="Layer_1" xmlns="http://www.w3.org/2000/svg" xmlns:xlink="http://www.w3.org/1999/xlink" x="0px" y="0px"
	 viewBox="0 0 970 250" style="enable-background:new 0 0 970 250;" xml:space="preserve">
<style type="text/css">
	.st0{fill:#D1AE56;}
</style>
<path class="st0" d="M263.1,139.7c0.2-0.2,0.5-0.2,0.7-0.1c4.7,2.3,7.4,7.3,7.4,12.4c0,0.4-0.2,0.8-0.6,0.8H247
	c-0.4,0-0.7-0.3-0.7-0.7c-0.1-5.1,2.7-10.2,7.4-12.5c0.3-0.1,0.6-0.1,0.7,0.1C257,141.7,260.5,141.7,263.1,139.7L263.1,139.7z
	 M258.8,123.1c4.2,0,7.3,3.8,7.3,7.9s-3.1,7.9-7.3,7.9c-4.3,0-7.4-3.8-7.4-7.9S254.5,123.1,258.8,123.1L258.8,123.1z"/>
</svg>
