<?xml version="1.0" encoding="utf-8"?>
<!-- Generator: Adobe Illustrator 22.1.0, SVG Export Plug-In . SVG Version: 6.00 Build 0)  -->
<svg version="1.1" id="Layer_1" xmlns="http://www.w3.org/2000/svg" xmlns:xlink="http://www.w3.org/1999/xlink" x="0px" y="0px"
	 viewBox="0 0 970 250" style="enable-background:new 0 0 970 250;" xml:space="preserve">
<style type="text/css">
	.st0{fill:#B78CAE;}
	.st1{fill:#FFFFFF;}
</style>
<g>
	<path class="st0" d="M400.4,146.4l0.5,0C400.9,146.4,400.8,146.4,400.4,146.4L400.4,146.4z"/>
	<path class="st0" d="M535.8,144.8c0,0,0.1,0,0.1,0C535.8,144.8,535.8,144.8,535.8,144.8L535.8,144.8z"/>
	<path class="st0" d="M421.3,147.7C421.3,147.7,421.3,147.7,421.3,147.7c-0.1,0-0.1,0-0.2,0L421.3,147.7L421.3,147.7z"/>
	<g>
		<g>
			<path class="st1" d="M185.9,101.9h10.4c4.8,0,8.9,0.3,11.6,3.7c1.8,2.1,2,4.5,2,6.3c0,3.9-1.6,7.2-4.3,8.9
				c-2.5,1.6-5.8,1.6-7.6,1.6h-4.9v13h-7.3V101.9z M193,117h2.9c2.3,0,6.6,0,6.6-5.1c0-4.5-3.9-4.5-5.9-4.5H193V117z"/>
			<path class="st1" d="M213.2,101.8h6.9v33.6h-6.9V101.8z"/>
			<path class="st1" d="M231.8,111.9v14c0,2,0,5.2,3.7,5.2c4.4,0,4.4-3.3,4.4-7.3v-11.8h7.1v15.5c0.1,5.1,0.1,5.7,0.1,6.3
				c0,0.6,0.1,1.1,0.2,1.7h-6.7l-0.2-3.1c-0.7,1-2.5,3.7-6.9,3.7c-3.2,0-5.8-1.4-7.1-3.2c-1.5-1.9-1.5-5.2-1.5-6.3v-14.6H231.8z"/>
			<path class="st1" d="M257.1,128.6c0.1,1.5,1,3.2,3.9,3.2c2.5,0,3.6-1.4,3.6-2.8c0-1.1-0.6-1.9-3.2-2.6l-4.3-1.2
				c-1.9-0.6-5.9-1.7-5.9-6.5c0-4.5,4.2-7.3,10.3-7.3c4.8,0,8.7,2.2,8.9,6.9h-6.3c-0.2-2.6-2.3-2.8-3.3-2.8c-1.9,0-3.2,0.9-3.2,2.3
				c0,1.6,1.2,1.9,3.2,2.5l4.2,1.2c4.3,1.2,6.3,3.3,6.3,6.5c0,4-3.5,8.1-10.8,8.1c-3,0-5.9-0.6-8-2.9c-1.5-1.6-1.7-3.5-1.7-4.6
				H257.1z"/>
			<path class="st1" d="M291.1,128.6c0.1,1.5,1,3.2,3.9,3.2c2.5,0,3.6-1.4,3.6-2.8c0-1.1-0.6-1.9-3.2-2.6l-4.3-1.2
				c-1.9-0.6-5.9-1.7-5.9-6.5c0-4.5,4.2-7.3,10.3-7.3c4.8,0,8.7,2.2,8.9,6.9h-6.3c-0.2-2.6-2.3-2.8-3.3-2.8c-1.9,0-3.2,0.9-3.2,2.3
				c0,1.6,1.2,1.9,3.2,2.5l4.2,1.2c4.3,1.2,6.3,3.3,6.3,6.5c0,4-3.5,8.1-10.8,8.1c-3,0-5.9-0.6-8-2.9c-1.5-1.6-1.7-3.5-1.7-4.6
				H291.1z"/>
			<path class="st1" d="M319.5,111.4c8.5,0,12.2,5.8,12.2,12.3c0,6.6-3.8,12.5-12.3,12.5c-6.7,0-12-4.1-12-12.3
				C307.4,118.2,310.3,111.4,319.5,111.4z M319.6,131.4c3,0,5.1-1.8,5.1-8c0-3.1-0.6-7.4-5.2-7.4c-5,0-5.1,5.8-5.1,7.9
				C314.4,129.2,316.2,131.4,319.6,131.4z"/>
		</g>
		<g>
			<g>
				<path class="st0" d="M344,116.3c0-1.5-0.1-2.9-0.2-4.4h6.6l0.2,3c0.7-1,2.6-3.5,7.2-3.5c5.4,0,6.9,3.3,7.4,4.4
					c1.9-3.8,5.1-4.4,7.5-4.4c4.7,0,6.6,2.8,7.1,3.8c1.3,2,1.2,4.9,1.2,6.9v13.2h-6.9v-13.8c0-2.5-0.4-5.3-3.9-5.3
					c-4.1,0-4.2,3.9-4.2,7.3v11.7h-6.9v-13.9c0-1.8,0-5.2-3.9-5.2c-4.3,0-4.3,3.7-4.3,5.3v13.8H344V116.3z"/>
				<path class="st0" d="M393.2,111.9v14c0,2,0,5.2,3.7,5.2c4.4,0,4.4-3.3,4.4-7.3v-11.8h7.1v15.5c0.1,5.1,0.1,5.7,0.1,6.3
					c0,0.6,0.1,1.1,0.2,1.7H402l-0.2-3.1c-0.7,1-2.5,3.7-6.9,3.7c-3.2,0-5.8-1.4-7.1-3.2c-1.5-1.9-1.5-5.2-1.5-6.3v-14.6H393.2z"/>
			</g>
			<g>
				<path class="st0" d="M426.2,120.2c-0.1-0.8-0.4-4.3-3-4.3c-3.2,0-3.6,4.9-3.6,7.5c0,1.3,0.1,5.5,1.7,7.2
					c0.6,0.7,1.3,0.8,1.9,0.8c0.7,0,2.9-0.3,3.2-4.5h6.8c-0.1,1.8-0.3,4.6-3,6.9c-1.7,1.4-3.8,2.2-6.7,2.2c-3.1,0-5.8-0.7-8-3.1
					c-2-2.4-3-5.5-3-9.2c0-10.7,7.8-12.2,11-12.2c4.4,0,9.5,2.4,9.6,8.8H426.2z"/>
				<path class="st0" d="M436.7,101.8h6.8v13.3c0.8-1.1,2.5-3.5,6.8-3.5c3.5,0,5.7,1.7,6.8,3.2c0.8,1.2,1.5,3.3,1.5,6.4v14.2h-6.8
					v-14c0-1.3,0-5.1-3.9-5.1c-1.9,0-4.4,1.1-4.4,4.8l0,14.3h-6.9V101.8z"/>
			</g>
			<g>
				<path class="st0" d="M476,116.3c0-1.5-0.1-2.9-0.2-4.4h6.6l0.2,3c0.7-1,2.6-3.5,7.2-3.5c5.4,0,6.9,3.3,7.4,4.4
					c2-3.8,5.1-4.4,7.5-4.4c4.7,0,6.6,2.8,7.1,3.8c1.3,2,1.2,4.9,1.2,6.9v13.2h-6.9v-13.8c0-2.5-0.4-5.3-3.9-5.3
					c-4.1,0-4.2,3.9-4.2,7.3v11.7h-6.9v-13.9c0-1.8,0-5.2-3.9-5.2c-4.3,0-4.3,3.7-4.3,5.3v13.8H476V116.3z"/>
				<path class="st0" d="M529.7,111.3c8.5,0,12.2,5.8,12.2,12.3c0,6.6-3.8,12.5-12.3,12.5c-6.7,0-12-4.1-12-12.3
					C517.6,118.2,520.4,111.3,529.7,111.3z M529.8,131.4c3,0,5.1-1.8,5.1-8c0-3.1-0.6-7.4-5.2-7.4c-5,0-5.1,5.8-5.1,7.9
					C524.6,129.1,526.4,131.4,529.8,131.4z"/>
				<path class="st0" d="M545.9,117.7c0-1.1-0.2-4.5-0.3-5.8h6.5l0.1,4.5c0.9-2,2.4-4.8,8-4.5v6.2c-7-0.6-7.4,2.9-7.4,5.8v11.6h-6.9
					V117.7z"/>
				<path class="st0" d="M568.3,125.4c0,1.5,0,6.3,4.8,6.3c1.7,0,3.4-0.6,4.1-3.2h6.3c-0.1,1.1-0.3,3.1-2.2,5.1
					c-1.7,1.8-4.8,2.7-8.2,2.7c-2,0-5.8-0.4-8.3-2.9c-2.1-2.2-3-5.4-3-9.1c0-3.8,0.9-8.4,4.9-11.1c1.8-1.2,4-1.9,6.6-1.9
					c3.3,0,7.3,1.3,9.5,5.7c1.6,3.2,1.5,6.6,1.4,8.6H568.3z M577.1,121c0-1.1-0.1-5.2-4.1-5.2c-3,0-4.3,2.5-4.4,5.2H577.1z"/>
			</g>
		</g>
	</g>
</g>
</svg>
