<?xml version="1.0" encoding="utf-8"?>
<!-- Generator: Adobe Illustrator 23.0.0, SVG Export Plug-In . SVG Version: 6.00 Build 0)  -->
<svg version="1.1" id="Layer_1" xmlns="http://www.w3.org/2000/svg" xmlns:xlink="http://www.w3.org/1999/xlink" x="0px" y="0px"
	 viewBox="0 0 300 600" style="enable-background:new 0 0 300 600;" xml:space="preserve">
<style type="text/css">
	.st0{fill:#BB8C54;}
	.st1{fill:#FFFFFF;}
</style>
<g>
	<rect x="34" y="437" class="st0" width="232" height="36"/>
	<g>
		<path class="st1" d="M53,460.4l-2.5-3.8h-0.2h-1.6v3.8H47v-10.9h3.1c1.2,0,2.2,0.3,2.9,0.9s1.1,1.5,1.1,2.6c0,0.7-0.1,1.3-0.4,1.9
			c-0.3,0.6-0.7,1-1.3,1.3l2.7,4.2H53z M48.8,454.9h1.6c0.7,0,1.2-0.2,1.5-0.6s0.5-0.8,0.5-1.3c0-0.3-0.1-0.6-0.2-0.8
			c-0.1-0.3-0.3-0.5-0.6-0.7s-0.7-0.3-1.1-0.3h-1.6v3.7L48.8,454.9L48.8,454.9z"/>
		<path class="st1" d="M60.3,451c-0.5,0-1,0.1-1.3,0.4c-0.3,0.2-0.5,0.6-0.5,1s0.2,0.8,0.6,1c0.4,0.3,0.9,0.5,1.7,0.8
			c0.5,0.2,1,0.4,1.4,0.7s0.7,0.6,1,1s0.4,1,0.4,1.6s-0.1,1.1-0.4,1.6c-0.3,0.5-0.7,0.8-1.3,1.1s-1.2,0.4-2,0.4
			c-0.7,0-1.3-0.1-2-0.3c-0.7-0.2-1.2-0.5-1.7-0.8L57,458c0.4,0.3,0.8,0.5,1.3,0.7s1,0.3,1.4,0.3c0.5,0,1-0.1,1.4-0.4
			s0.6-0.6,0.6-1.2c0-0.4-0.2-0.8-0.5-1.1c-0.3-0.3-0.8-0.5-1.4-0.8c-0.6-0.2-1.1-0.5-1.5-0.7s-0.8-0.5-1.1-0.9s-0.4-0.9-0.4-1.5
			c0-0.9,0.3-1.6,0.9-2.2c0.6-0.5,1.4-0.8,2.4-0.9c0.7,0,1.4,0.1,1.9,0.2c0.5,0.2,1.1,0.4,1.5,0.7l-0.7,1.3
			C61.8,451.2,61,451,60.3,451z"/>
		<path class="st1" d="M74.6,449.5l-4.9,11.4l-4.9-11.4h2.1l2.9,7.2l2.8-7.2H74.6z"/>
		<path class="st1" d="M82.7,450.4c0.7,0.6,1,1.5,1,2.6c0,0.6-0.1,1.2-0.4,1.8c-0.3,0.6-0.7,1-1.2,1.3s-1.3,0.5-2.1,0.5h-1.6v3.8
			h-1.8v-10.9h3.1C81,449.5,82,449.8,82.7,450.4z M81.2,454.6c0.3-0.2,0.5-0.5,0.6-0.8s0.2-0.6,0.2-0.8c0-0.5-0.1-0.9-0.4-1.3
			s-0.8-0.6-1.5-0.6h-1.6v3.8H80C80.5,454.9,80.9,454.8,81.2,454.6z"/>
		<path class="st1" d="M97.3,449.5v1.7h-4.9v3.1h4.2v1.7h-4.2v4.5h-1.8v-10.9h6.7C97.3,449.6,97.3,449.5,97.3,449.5z"/>
		<path class="st1" d="M99.5,452.2c0.5-0.9,1.2-1.5,2-2c0.9-0.5,1.8-0.8,2.8-0.8s1.9,0.3,2.8,0.8s1.5,1.2,2,2.1s0.8,1.8,0.8,2.8
			s-0.3,1.9-0.8,2.8s-1.2,1.5-2,2c-0.9,0.5-1.8,0.8-2.8,0.8s-1.9-0.2-2.8-0.7s-1.5-1.2-2-2s-0.8-1.8-0.8-2.8
			C98.7,453.9,99,453,99.5,452.2z M101,456.9c0.3,0.6,0.8,1.1,1.4,1.4s1.2,0.5,1.9,0.5c0.7,0,1.3-0.2,1.9-0.5s1-0.8,1.4-1.4
			c0.3-0.6,0.5-1.2,0.5-2s-0.2-1.4-0.5-2s-0.8-1.1-1.4-1.4s-1.2-0.5-1.9-0.5c-0.7,0-1.3,0.2-1.9,0.5s-1,0.8-1.4,1.4
			c-0.3,0.6-0.5,1.3-0.5,2S100.7,456.3,101,456.9z"/>
		<path class="st1" d="M118.2,460.4l-2.5-3.8h-0.2H114v3.8h-1.8v-10.9h3.1c1.2,0,2.2,0.3,2.9,0.9c0.7,0.6,1.1,1.5,1.1,2.6
			c0,0.7-0.1,1.3-0.4,1.9s-0.7,1-1.3,1.3l2.7,4.2H118.2z M114,454.9h1.6c0.7,0,1.2-0.2,1.5-0.6s0.5-0.8,0.5-1.3
			c0-0.3-0.1-0.6-0.2-0.8c-0.1-0.3-0.3-0.5-0.6-0.7c-0.3-0.2-0.7-0.3-1.1-0.3H114V454.9z"/>
		<path class="st1" d="M127.1,449.5h3.1c1.4,0,2.5,0.3,3.4,0.8s1.5,1.2,2,2.1s0.6,1.8,0.6,2.7c0,1.1-0.2,2-0.7,2.8s-1.2,1.4-2,1.9
			s-1.7,0.7-2.7,0.7h-3.6v-11H127.1z M130.4,458.7c0.8,0,1.5-0.1,2.1-0.4s1.1-0.7,1.4-1.3s0.5-1.2,0.5-2c0-0.9-0.2-1.6-0.5-2.2
			c-0.4-0.6-0.8-1-1.4-1.3c-0.6-0.3-1.1-0.4-1.7-0.4H129v7.6L130.4,458.7L130.4,458.7z"/>
		<path class="st1" d="M140.2,449.5v10.9h-1.8v-10.9H140.2z"/>
		<path class="st1" d="M146.5,451c-0.5,0-1,0.1-1.3,0.4c-0.3,0.2-0.5,0.6-0.5,1s0.2,0.8,0.6,1c0.4,0.3,0.9,0.5,1.7,0.8
			c0.5,0.2,1,0.4,1.4,0.7s0.7,0.6,1,1s0.4,1,0.4,1.6s-0.1,1.1-0.4,1.6c-0.3,0.5-0.7,0.8-1.3,1.1s-1.2,0.4-2,0.4
			c-0.7,0-1.3-0.1-2-0.3c-0.7-0.2-1.2-0.5-1.7-0.8l0.8-1.4c0.4,0.3,0.8,0.5,1.3,0.7s1,0.3,1.4,0.3c0.5,0,1-0.1,1.4-0.4
			s0.6-0.6,0.6-1.2c0-0.4-0.2-0.8-0.5-1.1c-0.3-0.3-0.8-0.5-1.4-0.8c-0.6-0.2-1.1-0.5-1.5-0.7s-0.8-0.5-1.1-0.9s-0.4-0.9-0.4-1.5
			c0-0.9,0.3-1.6,0.9-2.2c0.6-0.5,1.4-0.8,2.4-0.9c0.7,0,1.4,0.1,1.9,0.2s1.1,0.4,1.5,0.7l-0.7,1.3C148,451.2,147.2,451,146.5,451z"
			/>
		<path class="st1" d="M158.7,460.2c-0.6,0.2-1.2,0.3-1.9,0.3c-1.1,0-2.1-0.2-3-0.7c-0.8-0.5-1.5-1.2-1.9-2
			c-0.5-0.8-0.7-1.8-0.7-2.8c0-1.1,0.2-2.1,0.7-2.9s1.1-1.5,1.9-2c0.8-0.5,1.7-0.7,2.8-0.7c0.6,0,1.2,0.1,1.8,0.3
			c0.5,0.2,1,0.4,1.4,0.6l-0.7,1.6c-0.8-0.6-1.6-0.9-2.5-0.9c-0.6,0-1.2,0.2-1.8,0.5s-1,0.8-1.3,1.4s-0.5,1.2-0.5,2s0.2,1.4,0.5,2
			s0.7,1.1,1.3,1.4s1.2,0.5,2,0.5c0.5,0,1-0.1,1.4-0.2c0.4-0.2,0.8-0.4,1.1-0.6l0.7,1.6C159.7,459.8,159.3,460,158.7,460.2z"/>
		<path class="st1" d="M162.5,452.2c0.5-0.9,1.2-1.5,2-2c0.9-0.5,1.8-0.8,2.8-0.8s1.9,0.3,2.8,0.8c0.9,0.5,1.5,1.2,2,2.1
			s0.8,1.8,0.8,2.8s-0.3,1.9-0.8,2.8s-1.2,1.5-2,2c-0.9,0.5-1.8,0.8-2.8,0.8s-1.9-0.2-2.8-0.7c-0.9-0.5-1.5-1.2-2-2
			s-0.8-1.8-0.8-2.8C161.7,453.9,162,453,162.5,452.2z M164,456.9c0.3,0.6,0.8,1.1,1.4,1.4s1.2,0.5,1.9,0.5s1.3-0.2,1.9-0.5
			c0.6-0.3,1-0.8,1.4-1.4c0.3-0.6,0.5-1.2,0.5-2s-0.2-1.4-0.5-2s-0.8-1.1-1.4-1.4s-1.2-0.5-1.9-0.5s-1.3,0.2-1.9,0.5s-1,0.8-1.4,1.4
			c-0.3,0.6-0.5,1.3-0.5,2S163.7,456.3,164,456.9z"/>
		<path class="st1" d="M177.1,457.6c0.2,0.4,0.5,0.6,0.9,0.9c0.4,0.2,0.8,0.3,1.2,0.3c0.5,0,0.9-0.1,1.3-0.3
			c0.4-0.2,0.7-0.5,0.9-0.9s0.3-0.8,0.3-1.2v-7h1.7v7c0,0.8-0.2,1.5-0.6,2.1c-0.4,0.6-0.9,1.1-1.5,1.4c-0.7,0.3-1.4,0.5-2.1,0.5
			s-1.5-0.2-2.1-0.5s-1.2-0.8-1.5-1.4c-0.4-0.6-0.6-1.3-0.6-2.1v-7h1.7v7C176.8,456.9,176.9,457.3,177.1,457.6z"/>
		<path class="st1" d="M196,449.5v11.3l0,0l-7.9-7.6v7.2h-1.8v-11.3h0.1l7.8,7.7v-7.4h1.8L196,449.5L196,449.5z"/>
		<path class="st1" d="M205.5,449.5v1.7h-2.8v9.2H201v-9.2h-2.7v-1.7H205.5z"/>
		<path class="st1" d="M211,451c-0.5,0-1,0.1-1.3,0.4c-0.3,0.2-0.5,0.6-0.5,1s0.2,0.8,0.6,1c0.4,0.3,0.9,0.5,1.7,0.8
			c0.5,0.2,1,0.4,1.4,0.7s0.7,0.6,1,1s0.4,1,0.4,1.6s-0.1,1.1-0.4,1.6c-0.3,0.5-0.7,0.8-1.3,1.1s-1.2,0.4-2,0.4
			c-0.7,0-1.3-0.1-2-0.3c-0.7-0.2-1.2-0.5-1.7-0.8l0.8-1.4c0.4,0.3,0.8,0.5,1.3,0.7s1,0.3,1.4,0.3c0.5,0,1-0.1,1.4-0.4
			s0.6-0.6,0.6-1.2c0-0.4-0.2-0.8-0.5-1.1c-0.3-0.3-0.8-0.5-1.4-0.8c-0.6-0.2-1.1-0.5-1.5-0.7s-0.8-0.5-1.1-0.9s-0.4-0.9-0.4-1.5
			c0-0.9,0.3-1.6,0.9-2.2c0.6-0.5,1.4-0.8,2.4-0.9c0.7,0,1.4,0.1,1.9,0.2s1.1,0.4,1.5,0.7l-0.7,1.3C212.5,451.2,211.7,451,211,451z"
			/>
	</g>
	<g>
		<path class="st1" d="M235,460.9l4-5.2h-13.6v-1.5H239l-4-5.2l0.7-0.7l8.6,5.8h2.2l-4-5.2l0.7-0.7l9.8,6.5v0.2l-9.8,6.5l-0.7-0.7
			l4-5.2h-2.2l-8.6,5.8L235,460.9z"/>
	</g>
</g>
</svg>
