<?xml version="1.0" encoding="utf-8"?>
<!-- Generator: Adobe Illustrator 23.0.0, SVG Export Plug-In . SVG Version: 6.00 Build 0)  -->
<svg version="1.1" id="Layer_1" xmlns="http://www.w3.org/2000/svg" xmlns:xlink="http://www.w3.org/1999/xlink" x="0px" y="0px"
	 viewBox="0 0 300 600" style="enable-background:new 0 0 300 600;" xml:space="preserve">
<style type="text/css">
	.st0{fill:#768961;}
</style>
<g>
	<path class="st0" d="M79.57,301.14l-6.01,10.82v5.19h-2.55v-5.19l-5.92-10.82h3.15l4.14,7.9l4.05-7.9H79.57z"/>
	<path class="st0" d="M79.29,309.88c0.45-0.76,1.07-1.36,1.86-1.79c0.79-0.43,1.69-0.65,2.71-0.65c1.01,0,1.91,0.22,2.69,0.65
		s1.39,1.03,1.81,1.78s0.64,1.6,0.64,2.54s-0.21,1.79-0.64,2.54s-1.03,1.35-1.81,1.79s-1.69,0.66-2.72,0.66c-1,0-1.89-0.2-2.68-0.6
		s-1.41-0.98-1.86-1.74c-0.45-0.76-0.67-1.64-0.67-2.65C78.62,311.48,78.85,310.64,79.29,309.88z M81.88,314.53
		c0.51,0.56,1.15,0.85,1.91,0.85c0.79,0,1.44-0.28,1.95-0.84c0.51-0.56,0.76-1.26,0.76-2.11s-0.25-1.56-0.76-2.12
		s-1.15-0.85-1.95-0.85c-0.76,0-1.4,0.29-1.91,0.87s-0.77,1.28-0.77,2.1C81.11,313.27,81.36,313.97,81.88,314.53z"/>
	<path class="st0" d="M100.56,307.85v9.31h-2.22l-0.15-1.67c-0.32,0.63-0.8,1.13-1.43,1.51c-0.63,0.37-1.35,0.56-2.16,0.56
		c-0.85,0-1.56-0.26-2.12-0.78c-0.56-0.52-0.85-1.19-0.87-2.01v-6.91h2.46v6.03c0.04,1.03,0.55,1.55,1.52,1.56
		c0.72,0,1.32-0.33,1.79-0.99c0.48-0.66,0.71-1.49,0.71-2.49v-4.11h2.47V307.85z"/>
	<path class="st0" d="M120.75,307.85v9.31h-2.46v-1.34c-0.34,0.4-0.79,0.76-1.36,1.09s-1.24,0.5-2,0.5c-0.89,0-1.69-0.19-2.4-0.56
		s-1.26-0.93-1.67-1.66c-0.41-0.73-0.62-1.62-0.62-2.66c0-1.01,0.21-1.9,0.64-2.67c0.43-0.77,0.99-1.36,1.71-1.78
		c0.71-0.42,1.49-0.63,2.34-0.63c1.51,0,2.64,0.56,3.39,1.67l0.18-1.25h2.25V307.85z M117.31,314.86c0.46-0.34,0.79-0.83,0.98-1.46
		v-2.02c-0.18-0.57-0.52-1.03-1.02-1.39c-0.51-0.35-1.09-0.53-1.75-0.53c-0.78,0-1.44,0.28-1.98,0.83s-0.81,1.25-0.81,2.1
		c0,0.56,0.13,1.06,0.4,1.52c0.26,0.45,0.62,0.81,1.06,1.08c0.44,0.26,0.92,0.4,1.43,0.4C116.28,315.38,116.85,315.21,117.31,314.86
		z"/>
	<path class="st0" d="M127.62,308.67c0.45-0.4,0.92-0.7,1.4-0.91s0.88-0.32,1.2-0.32l-0.11,2.46c-0.67-0.06-1.28,0.06-1.8,0.36
		c-0.53,0.3-0.94,0.71-1.23,1.23c-0.29,0.52-0.44,1.07-0.44,1.66v4h-2.46v-9.31h2.22l0.18,2.16
		C126.81,309.51,127.16,309.06,127.62,308.67z"/>
	<path class="st0" d="M138.9,314.56l1.12,1.83c-0.5,0.31-1.03,0.55-1.61,0.74c-0.57,0.18-1.12,0.28-1.65,0.28
		c-1.07,0-2-0.21-2.78-0.64s-1.39-1.01-1.8-1.76c-0.42-0.75-0.63-1.61-0.63-2.57c0-0.91,0.23-1.75,0.7-2.51s1.11-1.37,1.91-1.82
		c0.81-0.45,1.69-0.67,2.64-0.67c1.26,0,2.31,0.37,3.15,1.11s1.39,1.79,1.67,3.13l-7.17,2.42c0.25,0.38,0.58,0.67,0.99,0.88
		s0.87,0.31,1.36,0.31C137.5,315.29,138.2,315.05,138.9,314.56z M134.71,310.19c-0.49,0.54-0.74,1.25-0.74,2.11
		c0,0.16,0.01,0.29,0.02,0.37l4.88-1.74c-0.19-0.45-0.47-0.83-0.84-1.12s-0.84-0.44-1.43-0.44
		C135.84,309.37,135.2,309.64,134.71,310.19z"/>
	<path class="st0" d="M157.28,317.1c-0.59,0.2-1.19,0.3-1.79,0.3c-1.03,0-1.93-0.2-2.72-0.59s-1.39-0.96-1.81-1.71
		c-0.43-0.74-0.64-1.61-0.64-2.61c0-0.98,0.23-1.84,0.68-2.58s1.06-1.31,1.81-1.71s1.57-0.59,2.43-0.59c1.47,0,2.68,0.4,3.63,1.19
		l-1.23,1.61c-0.28-0.22-0.6-0.41-0.98-0.56c-0.37-0.15-0.77-0.23-1.2-0.23c-0.75,0-1.38,0.27-1.9,0.82
		c-0.52,0.55-0.78,1.24-0.78,2.06s0.27,1.51,0.82,2.06s1.25,0.82,2.1,0.82c0.73,0,1.35-0.21,1.85-0.62l1.23,1.54
		C158.38,316.64,157.88,316.91,157.28,317.1z"/>
	<path class="st0" d="M161.22,309.88c0.45-0.76,1.07-1.36,1.86-1.79c0.79-0.43,1.69-0.65,2.71-0.65c1.01,0,1.91,0.22,2.69,0.65
		s1.39,1.03,1.81,1.78s0.64,1.6,0.64,2.54s-0.21,1.79-0.64,2.54s-1.03,1.35-1.81,1.79s-1.69,0.66-2.72,0.66c-1,0-1.89-0.2-2.68-0.6
		s-1.41-0.98-1.86-1.74c-0.45-0.76-0.67-1.64-0.67-2.65C160.55,311.48,160.77,310.64,161.22,309.88z M163.81,314.53
		c0.51,0.56,1.15,0.85,1.91,0.85c0.79,0,1.44-0.28,1.95-0.84s0.76-1.26,0.76-2.11s-0.25-1.56-0.76-2.12s-1.15-0.85-1.95-0.85
		c-0.76,0-1.4,0.29-1.91,0.87c-0.51,0.58-0.77,1.28-0.77,2.1C163.04,313.27,163.29,313.97,163.81,314.53z"/>
	<path class="st0" d="M176.98,308.67c0.45-0.4,0.92-0.7,1.4-0.91s0.88-0.32,1.2-0.32l-0.11,2.46c-0.67-0.06-1.28,0.06-1.8,0.36
		c-0.53,0.3-0.94,0.71-1.23,1.23c-0.29,0.52-0.44,1.07-0.44,1.66v4h-2.46v-9.31h2.22l0.18,2.16
		C176.18,309.51,176.53,309.06,176.98,308.67z"/>
	<path class="st0" d="M191.61,300v17.16h-2.46v-1.25c-1.03,1-2.24,1.5-3.65,1.5c-0.87,0-1.65-0.21-2.34-0.62
		c-0.7-0.41-1.24-1-1.64-1.76s-0.59-1.65-0.59-2.66s0.21-1.89,0.63-2.64s1-1.32,1.74-1.71c0.74-0.39,1.58-0.58,2.52-0.58
		c0.67,0,1.31,0.13,1.91,0.39s1.08,0.6,1.45,1.04V300H191.61z M188.09,314.78c0.5-0.35,0.85-0.84,1.06-1.47v-1.98
		c-0.18-0.57-0.52-1.04-1.04-1.41s-1.13-0.55-1.81-0.55c-0.51,0-0.99,0.13-1.43,0.39s-0.79,0.61-1.06,1.06
		c-0.26,0.45-0.4,0.95-0.4,1.51s0.13,1.06,0.4,1.52c0.26,0.45,0.62,0.81,1.06,1.08c0.44,0.26,0.92,0.4,1.43,0.4
		C186.99,315.31,187.59,315.14,188.09,314.78z"/>
	<path class="st0" d="M195.33,303.6c0.29-0.26,0.62-0.39,0.99-0.39c0.35,0,0.67,0.13,0.96,0.39c0.29,0.26,0.43,0.57,0.43,0.94
		s-0.14,0.67-0.43,0.92s-0.6,0.37-0.96,0.37c-0.37,0-0.7-0.12-0.99-0.37c-0.29-0.25-0.44-0.56-0.44-0.92S195.04,303.85,195.33,303.6
		z M197.46,307.85v9.31H195v-9.31H197.46z"/>
	<path class="st0" d="M210.6,307.85v9.31h-2.46v-1.34c-0.34,0.4-0.79,0.76-1.36,1.09s-1.24,0.5-2,0.5c-0.89,0-1.69-0.19-2.4-0.56
		s-1.26-0.93-1.67-1.66s-0.62-1.62-0.62-2.66c0-1.01,0.21-1.9,0.64-2.67c0.43-0.77,0.99-1.36,1.71-1.78
		c0.71-0.42,1.49-0.63,2.34-0.63c1.51,0,2.64,0.56,3.39,1.67l0.18-1.25h2.25V307.85z M207.16,314.86c0.46-0.34,0.79-0.83,0.98-1.46
		v-2.02c-0.18-0.57-0.52-1.03-1.02-1.39c-0.51-0.35-1.09-0.53-1.75-0.53c-0.78,0-1.44,0.28-1.98,0.83s-0.81,1.25-0.81,2.1
		c0,0.56,0.13,1.06,0.4,1.52c0.26,0.45,0.62,0.81,1.06,1.08c0.44,0.26,0.92,0.4,1.43,0.4C206.13,315.38,206.69,315.21,207.16,314.86
		z"/>
	<path class="st0" d="M216.47,300v17.16h-2.46V300H216.47z"/>
	<path class="st0" d="M222.32,300v17.16h-2.46V300H222.32z"/>
	<path class="st0" d="M234.91,307.85l-6.01,13.77h-2.42l2.18-4.86l-4.31-8.91h2.77l2.77,6.16l2.77-6.16H234.91z"/>
	<path class="st0" d="M82.33,327.6c0.29-0.26,0.62-0.39,0.99-0.39c0.35,0,0.67,0.13,0.96,0.39s0.43,0.57,0.43,0.94
		s-0.14,0.67-0.43,0.92s-0.6,0.37-0.96,0.37c-0.37,0-0.7-0.12-0.99-0.37s-0.44-0.56-0.44-0.92S82.04,327.85,82.33,327.6z
		 M84.46,331.85v9.31H82v-9.31H84.46z"/>
	<path class="st0" d="M96.09,332.24c0.58,0.52,0.88,1.19,0.89,2.01v6.91h-2.46v-6.03c-0.03-0.48-0.17-0.87-0.43-1.14
		c-0.26-0.28-0.64-0.43-1.16-0.44c-0.76,0-1.39,0.33-1.88,0.98c-0.49,0.65-0.74,1.48-0.74,2.5v4.14h-2.46v-9.31h2.22l0.18,1.65
		c0.34-0.65,0.83-1.15,1.46-1.51c0.64-0.36,1.38-0.54,2.21-0.54C94.79,331.46,95.51,331.72,96.09,332.24z"/>
	<path class="st0" d="M109.19,331.85l-5.1,9.55h-0.11l-5.35-9.55h2.93l2.55,5.32l2.33-5.32H109.19z"/>
	<path class="st0" d="M111.54,327.6c0.29-0.26,0.62-0.39,0.99-0.39c0.35,0,0.67,0.13,0.96,0.39s0.43,0.57,0.43,0.94
		s-0.14,0.67-0.43,0.92s-0.6,0.37-0.96,0.37c-0.37,0-0.7-0.12-0.99-0.37s-0.44-0.56-0.44-0.92S111.25,327.85,111.54,327.6z
		 M113.68,331.85v9.31h-2.46v-9.31H113.68z"/>
	<path class="st0" d="M120.43,327.76v4.09h2.42v1.94h-2.42v7.37h-2.46v-7.37h-1.61v-1.94h1.61v-4.09H120.43z"/>
	<path class="st0" d="M131.85,338.56l1.12,1.83c-0.5,0.31-1.03,0.55-1.61,0.74c-0.57,0.18-1.12,0.28-1.65,0.28
		c-1.07,0-2-0.21-2.78-0.64s-1.39-1.01-1.8-1.76c-0.42-0.75-0.63-1.61-0.63-2.57c0-0.91,0.23-1.75,0.7-2.51
		c0.47-0.76,1.11-1.37,1.91-1.82c0.81-0.45,1.69-0.67,2.64-0.67c1.26,0,2.31,0.37,3.15,1.11s1.39,1.79,1.67,3.13l-7.17,2.42
		c0.25,0.38,0.58,0.67,0.99,0.88s0.87,0.31,1.36,0.31C130.45,339.29,131.15,339.05,131.85,338.56z M127.66,334.19
		c-0.49,0.54-0.74,1.25-0.74,2.11c0,0.16,0.01,0.29,0.02,0.37l4.88-1.74c-0.19-0.45-0.47-0.83-0.84-1.12s-0.84-0.44-1.43-0.44
		C128.78,333.37,128.15,333.64,127.66,334.19z"/>
	<path class="st0" d="M146.92,324v17.16h-2.46v-1.25c-1.03,1-2.24,1.5-3.65,1.5c-0.87,0-1.65-0.21-2.34-0.62
		c-0.7-0.41-1.24-1-1.64-1.76s-0.59-1.65-0.59-2.66s0.21-1.89,0.63-2.64s1-1.32,1.74-1.71c0.74-0.39,1.58-0.58,2.52-0.58
		c0.67,0,1.31,0.13,1.91,0.39s1.08,0.6,1.45,1.04V324H146.92z M143.4,338.78c0.5-0.35,0.85-0.84,1.06-1.47v-1.98
		c-0.18-0.57-0.52-1.04-1.04-1.41s-1.13-0.55-1.81-0.55c-0.51,0-0.99,0.13-1.43,0.39s-0.79,0.61-1.06,1.06
		c-0.26,0.45-0.4,0.95-0.4,1.51s0.13,1.06,0.4,1.52c0.26,0.45,0.62,0.81,1.06,1.08c0.44,0.26,0.92,0.4,1.43,0.4
		C142.3,339.31,142.9,339.14,143.4,338.78z"/>
	<path class="st0" d="M160.71,327.76v4.09h2.42v1.94h-2.42v7.37h-2.46v-7.37h-1.61v-1.94h1.61v-4.09H160.71z"/>
	<path class="st0" d="M165.45,333.88c0.45-0.76,1.07-1.36,1.86-1.79c0.79-0.43,1.69-0.65,2.71-0.65c1.01,0,1.91,0.22,2.69,0.65
		s1.39,1.03,1.81,1.78s0.64,1.6,0.64,2.54s-0.21,1.79-0.64,2.54s-1.03,1.35-1.81,1.79s-1.69,0.66-2.72,0.66c-1,0-1.89-0.2-2.68-0.6
		s-1.41-0.98-1.86-1.74c-0.45-0.76-0.67-1.64-0.67-2.65C164.78,335.48,165.01,334.64,165.45,333.88z M168.04,338.53
		c0.51,0.56,1.15,0.85,1.91,0.85c0.79,0,1.44-0.28,1.95-0.84s0.76-1.26,0.76-2.11s-0.25-1.56-0.76-2.12s-1.15-0.85-1.95-0.85
		c-0.76,0-1.4,0.29-1.91,0.87c-0.51,0.58-0.77,1.28-0.77,2.1C167.27,337.27,167.53,337.97,168.04,338.53z"/>
	<path class="st0" d="M184.7,333.88c0.45-0.76,1.07-1.36,1.86-1.79c0.79-0.43,1.69-0.65,2.71-0.65c1.01,0,1.91,0.22,2.69,0.65
		s1.39,1.03,1.81,1.78s0.64,1.6,0.64,2.54s-0.21,1.79-0.64,2.54s-1.03,1.35-1.81,1.79s-1.69,0.66-2.72,0.66c-1,0-1.89-0.2-2.68-0.6
		s-1.41-0.98-1.86-1.74c-0.45-0.76-0.67-1.64-0.67-2.65C184.03,335.48,184.26,334.64,184.7,333.88z M187.29,338.53
		c0.51,0.56,1.15,0.85,1.91,0.85c0.79,0,1.44-0.28,1.95-0.84s0.76-1.26,0.76-2.11s-0.25-1.56-0.76-2.12s-1.15-0.85-1.95-0.85
		c-0.76,0-1.4,0.29-1.91,0.87c-0.51,0.58-0.77,1.28-0.77,2.1C186.52,337.27,186.77,337.97,187.29,338.53z"/>
	<path class="st0" d="M205.97,331.85v9.31h-2.22l-0.15-1.67c-0.32,0.63-0.8,1.13-1.43,1.51c-0.63,0.37-1.35,0.56-2.16,0.56
		c-0.85,0-1.56-0.26-2.12-0.78s-0.85-1.19-0.87-2.01v-6.91h2.46v6.03c0.04,1.03,0.55,1.55,1.52,1.56c0.72,0,1.32-0.33,1.79-0.99
		c0.48-0.66,0.71-1.49,0.71-2.49v-4.11h2.47V331.85z"/>
	<path class="st0" d="M212.83,332.67c0.45-0.4,0.92-0.7,1.4-0.91s0.88-0.32,1.2-0.32l-0.11,2.46c-0.67-0.06-1.28,0.06-1.8,0.36
		c-0.53,0.3-0.94,0.71-1.23,1.23c-0.29,0.52-0.44,1.07-0.44,1.66v4h-2.46v-9.31h2.22l0.18,2.16
		C212.02,333.51,212.38,333.06,212.83,332.67z"/>
	<path class="st0" d="M216.32,338.87c0.27-0.26,0.58-0.4,0.94-0.4c0.32,0,0.62,0.13,0.89,0.4c0.27,0.26,0.41,0.58,0.41,0.95
		c0,0.38-0.14,0.7-0.41,0.96c-0.27,0.26-0.57,0.38-0.89,0.38c-0.35,0-0.66-0.12-0.94-0.37c-0.27-0.25-0.41-0.57-0.41-0.97
		C215.91,339.45,216.05,339.14,216.32,338.87z"/>
	<path class="st0" d="M220.06,338.87c0.27-0.26,0.58-0.4,0.94-0.4c0.32,0,0.62,0.13,0.89,0.4c0.27,0.26,0.41,0.58,0.41,0.95
		c0,0.38-0.14,0.7-0.41,0.96c-0.27,0.26-0.57,0.38-0.89,0.38c-0.35,0-0.66-0.12-0.94-0.37c-0.27-0.25-0.41-0.57-0.41-0.97
		C219.65,339.45,219.79,339.14,220.06,338.87z"/>
	<path class="st0" d="M223.8,338.87c0.27-0.26,0.58-0.4,0.94-0.4c0.32,0,0.62,0.13,0.89,0.4c0.27,0.26,0.41,0.58,0.41,0.95
		c0,0.38-0.14,0.7-0.41,0.96c-0.27,0.26-0.57,0.38-0.89,0.38c-0.35,0-0.66-0.12-0.94-0.37c-0.27-0.25-0.41-0.57-0.41-0.97
		C223.39,339.45,223.53,339.14,223.8,338.87z"/>
</g>
</svg>
