<?xml version="1.0" encoding="utf-8"?>
<!-- Generator: Adobe Illustrator 23.0.0, SVG Export Plug-In . SVG Version: 6.00 Build 0)  -->
<svg version="1.1" id="Layer_1" xmlns="http://www.w3.org/2000/svg" xmlns:xlink="http://www.w3.org/1999/xlink" x="0px" y="0px"
	 viewBox="0 0 300 600" style="enable-background:new 0 0 300 600;" xml:space="preserve">
<style type="text/css">
	.st0{fill:#BB8C54;}
</style>
<g>
	<path class="st0" d="M64.74,279.8c0.44-0.56,0.96-0.99,1.56-1.29c-0.36-0.29-0.64-0.59-0.83-0.91s-0.29-0.72-0.29-1.21
		c0-0.52,0.14-0.98,0.42-1.4c0.28-0.42,0.67-0.75,1.16-0.98c0.49-0.23,1.04-0.35,1.64-0.35s1.15,0.12,1.65,0.35s0.89,0.55,1.18,0.95
		c0.29,0.4,0.43,0.85,0.43,1.34c0,0.53-0.1,0.95-0.29,1.28c-0.19,0.32-0.48,0.64-0.86,0.94c0.61,0.32,1.14,0.77,1.58,1.32
		c0.44,0.56,0.66,1.24,0.66,2.04c0,0.7-0.19,1.34-0.58,1.94c-0.38,0.6-0.91,1.08-1.58,1.45s-1.4,0.55-2.21,0.55
		c-0.8,0-1.54-0.18-2.2-0.54c-0.66-0.36-1.18-0.84-1.55-1.45c-0.37-0.61-0.56-1.26-0.56-1.95C64.08,281.05,64.3,280.36,64.74,279.8z
		 M66.51,282.93c0.19,0.35,0.46,0.62,0.79,0.83c0.34,0.2,0.7,0.31,1.08,0.31c0.4,0,0.77-0.1,1.12-0.31c0.35-0.2,0.63-0.48,0.84-0.83
		s0.31-0.72,0.31-1.12c0-0.62-0.22-1.15-0.65-1.59s-0.95-0.66-1.57-0.66c-0.38,0-0.75,0.1-1.09,0.3c-0.34,0.2-0.62,0.47-0.82,0.82
		s-0.31,0.73-0.31,1.13C66.23,282.21,66.32,282.58,66.51,282.93z M67.59,277.46c0.25,0.23,0.54,0.35,0.86,0.35s0.61-0.11,0.85-0.34
		s0.36-0.5,0.36-0.83c0-0.35-0.12-0.64-0.36-0.88s-0.52-0.36-0.85-0.36c-0.34,0-0.63,0.12-0.87,0.36c-0.25,0.24-0.37,0.53-0.37,0.88
		C67.22,276.96,67.34,277.23,67.59,277.46z"/>
	<path class="st0" d="M79.58,276.94v1.34h-2.26v7.39h-1.39v-7.39h-2.2v-1.34H79.58z"/>
	<path class="st0" d="M88.46,285.68h-1.4v-3.72h-4.3v3.72h-1.4v-8.74h1.4v3.68h4.3v-3.68h1.4V285.68z"/>
	<path class="st0" d="M105.41,285.68l-1.04-1.39c-0.38,0.48-0.88,0.86-1.5,1.15s-1.33,0.43-2.15,0.43s-1.55-0.17-2.21-0.51
		c-0.66-0.34-1.18-0.81-1.57-1.41c-0.38-0.6-0.58-1.27-0.58-2.02c0-0.91,0.32-1.72,0.95-2.41c0.64-0.7,1.43-1.18,2.38-1.46
		l-0.36-0.49c-0.66-0.97-0.99-1.82-0.99-2.56c0-0.5,0.13-0.99,0.39-1.46s0.64-0.85,1.13-1.13c0.5-0.29,1.09-0.43,1.77-0.43
		c0.72,0,1.38,0.15,1.99,0.44s1.11,0.67,1.5,1.13l-1.04,1.39c-0.41-0.38-0.78-0.68-1.13-0.88c-0.34-0.2-0.67-0.31-0.98-0.31
		c-0.46,0-0.82,0.14-1.08,0.41c-0.26,0.28-0.4,0.62-0.4,1.03c0,0.35,0.1,0.68,0.29,1s0.29,0.48,0.31,0.5l3.04,4.05l1.1-2.88h1.93
		l-1.78,4.54l2.47,3.28h-2.44V285.68z M103.26,282.84l-2.48-3.33c-0.62,0.06-1.15,0.31-1.59,0.76s-0.66,0.97-0.66,1.57
		c0,0.64,0.24,1.16,0.71,1.57s1.06,0.61,1.75,0.61C102.03,284.01,102.78,283.62,103.26,282.84z"/>
	<path class="st0" d="M121.43,274.34c0.67,0.37,1.19,0.88,1.58,1.53s0.58,1.38,0.58,2.2c0,1.19-0.28,2.26-0.83,3.21
		s-1.24,1.78-2.06,2.48s-1.83,1.43-3.01,2.2l-1.4-1.53c0.95-0.44,1.79-0.94,2.52-1.48s1.31-1.09,1.73-1.64
		c-0.54,0.37-1.22,0.56-2.05,0.56c-0.6,0-1.17-0.17-1.71-0.5s-0.98-0.79-1.31-1.37c-0.34-0.58-0.5-1.23-0.5-1.93
		c0-0.86,0.2-1.62,0.59-2.27s0.92-1.15,1.57-1.49s1.34-0.52,2.09-0.52C120.03,273.78,120.77,273.97,121.43,274.34z M117.74,279.5
		c0.41,0.4,0.93,0.6,1.54,0.6s1.13-0.19,1.54-0.57s0.62-0.84,0.62-1.4v-0.36c-0.01-0.59-0.23-1.09-0.64-1.5
		c-0.41-0.41-0.92-0.62-1.52-0.62c-0.61,0-1.13,0.2-1.54,0.61c-0.41,0.41-0.62,0.95-0.62,1.64
		C117.12,278.56,117.33,279.1,117.74,279.5z"/>
	<path class="st0" d="M130.49,276.94v1.34h-2.26v7.39h-1.39v-7.39h-2.2v-1.34H130.49z"/>
	<path class="st0" d="M139.37,285.68h-1.4v-3.72h-4.3v3.72h-1.4v-8.74h1.4v3.68h4.3v-3.68h1.4V285.68z"/>
	<path class="st0" d="M150.72,285.91c-0.42,0.78-1,1.38-1.75,1.8c-0.74,0.42-1.6,0.65-2.57,0.68v-2.03
		c0.88-0.05,1.57-0.34,2.08-0.87s0.77-1.33,0.77-2.4v-10.51h2.11v10.57C151.35,284.21,151.14,285.13,150.72,285.91z"/>
	<path class="st0" d="M157.24,282.37c0.26,0.43,0.62,0.78,1.08,1.04s0.95,0.39,1.49,0.39c0.56,0,1.08-0.13,1.54-0.38
		c0.46-0.25,0.82-0.59,1.09-1.03c0.26-0.43,0.4-0.91,0.4-1.42v-8.39h2.07v8.44c0,0.94-0.23,1.77-0.67,2.49
		c-0.45,0.73-1.07,1.29-1.85,1.7s-1.64,0.61-2.57,0.61s-1.79-0.2-2.56-0.61c-0.77-0.41-1.38-0.98-1.83-1.7
		c-0.44-0.73-0.67-1.56-0.67-2.49v-8.44h2.09v8.39C156.84,281.47,156.97,281.94,157.24,282.37z"/>
	<path class="st0" d="M179.86,272.58v13.57h-0.05l-9.45-9.16l0.05,8.69h-2.12v-13.55h0.11l9.41,9.27l-0.04-8.82H179.86z"/>
	<path class="st0" d="M192.18,272.58v2.02h-6.59v3.49h5.87v2.02h-5.87v3.56h6.84v2.02h-8.95v-13.1L192.18,272.58L192.18,272.58z"/>
	<path class="st0" d="M208.54,283.66v2.02h-8.28l0.65-0.65c1.19-1.19,2.12-2.16,2.8-2.91c0.68-0.75,1.24-1.51,1.69-2.27
		c0.45-0.76,0.68-1.48,0.68-2.17c0-0.65-0.2-1.15-0.59-1.49s-0.89-0.52-1.48-0.52c-0.64,0-1.13,0.18-1.48,0.54
		c-0.35,0.36-0.52,0.76-0.52,1.21c0,0.74,0.23,1.36,0.7,1.85l-1.28,1.17c-0.43-0.24-0.78-0.67-1.05-1.29s-0.4-1.18-0.4-1.68
		c0-0.66,0.17-1.28,0.52-1.87s0.85-1.06,1.52-1.41s1.45-0.53,2.35-0.53c0.76,0,1.43,0.18,2.02,0.53c0.59,0.35,1.05,0.83,1.38,1.41
		c0.32,0.59,0.49,1.22,0.49,1.91s-0.16,1.36-0.47,2.03s-0.69,1.3-1.13,1.87c-0.44,0.58-1.05,1.33-1.85,2.25L208.54,283.66
		L208.54,283.66z"/>
	<path class="st0" d="M212.43,285.02c-0.76-0.47-1.35-1.17-1.78-2.08c-0.43-0.91-0.65-2-0.65-3.26c0-2.04,0.45-3.55,1.34-4.54
		c0.89-0.99,2.11-1.48,3.66-1.47c0.96-0.01,1.82,0.22,2.57,0.69s1.35,1.16,1.77,2.07c0.43,0.91,0.64,1.99,0.64,3.25
		c0,1.3-0.22,2.4-0.65,3.3c-0.43,0.91-1.02,1.59-1.77,2.05s-1.61,0.69-2.57,0.68C214.04,285.73,213.18,285.5,212.43,285.02z
		 M217.11,282.61c0.47-0.74,0.7-1.73,0.7-2.98c0-1.21-0.23-2.18-0.7-2.89c-0.47-0.71-1.18-1.06-2.12-1.05
		c-0.94-0.01-1.64,0.35-2.11,1.07c-0.47,0.73-0.7,1.7-0.7,2.92s0.23,2.2,0.7,2.93c0.47,0.73,1.17,1.1,2.11,1.1
		C215.93,283.72,216.64,283.35,217.11,282.61z"/>
	<path class="st0" d="M224.85,273.8v11.88h-2.11v-9.86h-1.19v-2.02L224.85,273.8L224.85,273.8z"/>
	<path class="st0" d="M233.75,274.34c0.67,0.37,1.19,0.88,1.58,1.53s0.58,1.38,0.58,2.2c0,1.19-0.28,2.26-0.83,3.21
		s-1.24,1.78-2.06,2.48s-1.83,1.43-3.01,2.2l-1.4-1.53c0.95-0.44,1.79-0.94,2.52-1.48s1.31-1.09,1.73-1.64
		c-0.54,0.37-1.22,0.56-2.05,0.56c-0.6,0-1.17-0.17-1.71-0.5c-0.54-0.33-0.98-0.79-1.31-1.37c-0.34-0.58-0.5-1.23-0.5-1.93
		c0-0.86,0.2-1.62,0.59-2.27s0.92-1.15,1.57-1.49s1.34-0.52,2.09-0.52C232.34,273.78,233.08,273.97,233.75,274.34z M230.06,279.5
		c0.41,0.4,0.93,0.6,1.54,0.6s1.13-0.19,1.54-0.57c0.41-0.38,0.62-0.84,0.62-1.4v-0.36c-0.01-0.59-0.23-1.09-0.64-1.5
		s-0.92-0.62-1.52-0.62c-0.61,0-1.13,0.2-1.54,0.61c-0.41,0.41-0.62,0.95-0.62,1.64C229.44,278.56,229.64,279.1,230.06,279.5z"/>
</g>
</svg>
