<?xml version="1.0" encoding="utf-8"?>
<!-- Generator: Adobe Illustrator 23.0.0, SVG Export Plug-In . SVG Version: 6.00 Build 0)  -->
<svg version="1.1" id="Layer_1" xmlns="http://www.w3.org/2000/svg" xmlns:xlink="http://www.w3.org/1999/xlink" x="0px" y="0px"
	 viewBox="0 0 300 600" style="enable-background:new 0 0 300 600;" xml:space="preserve">
<style type="text/css">
	.st0{fill:#BB8C54;}
</style>
<g>
	<path class="st0" d="M79.85,204.89h-5.61c-0.45,0.09-0.89,0.14-1.31,0.14c-1.14,0-2.2-0.28-3.17-0.84s-1.74-1.32-2.3-2.29
		c-0.57-0.96-0.85-2.02-0.85-3.18c0-1.13,0.28-2.18,0.85-3.15s1.33-1.74,2.3-2.32s2.03-0.87,3.17-0.87c1.13,0,2.18,0.29,3.15,0.87
		s1.74,1.35,2.32,2.33s0.87,2.02,0.87,3.15c0,0.8-0.14,1.57-0.43,2.29s-0.69,1.37-1.22,1.95h2.23
		C79.85,202.97,79.85,204.89,79.85,204.89z M69.23,200.92c0.38,0.67,0.91,1.21,1.57,1.6s1.39,0.59,2.18,0.59
		c0.78,0,1.5-0.2,2.14-0.59s1.16-0.92,1.54-1.6c0.38-0.67,0.57-1.41,0.57-2.2s-0.19-1.52-0.58-2.19s-0.91-1.2-1.56-1.6
		c-0.66-0.4-1.38-0.6-2.16-0.6c-0.79,0-1.52,0.2-2.17,0.6c-0.65,0.4-1.17,0.93-1.55,1.6c-0.38,0.67-0.57,1.4-0.57,2.19
		S68.84,200.24,69.23,200.92z"/>
	<path class="st0" d="M84.66,201.76c0.25,0.41,0.59,0.73,1.02,0.98s0.9,0.37,1.41,0.37c0.53,0,1.02-0.12,1.45-0.36
		c0.44-0.24,0.78-0.56,1.03-0.97s0.37-0.86,0.37-1.34v-7.92h1.96v7.97c0,0.88-0.21,1.67-0.64,2.35c-0.42,0.69-1.01,1.22-1.74,1.61
		c-0.74,0.39-1.55,0.58-2.43,0.58s-1.69-0.19-2.42-0.58s-1.31-0.92-1.73-1.61c-0.42-0.69-0.63-1.47-0.63-2.35v-7.97h1.97v7.92
		C84.29,200.91,84.41,201.35,84.66,201.76z"/>
	<path class="st0" d="M103.31,192.51v1.9h-6.22v3.3h5.54v1.9h-5.54v3.37h6.46v1.9H95.1V192.5h8.21V192.51z"/>
	<path class="st0" d="M114.5,192.51v1.9h-6.22v3.3h5.54v1.9h-5.54v3.37h6.46v1.9h-8.45V192.5h8.21V192.51z"/>
	<path class="st0" d="M128.4,192.51v12.82h-0.05l-8.93-8.65l0.05,8.21h-2.01v-12.8h0.1l8.89,8.75l-0.03-8.33H128.4z"/>
	<path class="st0" d="M130.61,194.89c0.2-0.2,0.37-0.47,0.51-0.79c0.14-0.32,0.2-0.65,0.2-0.98c0-0.08-0.01-0.21-0.03-0.39l1.5-0.12
		c0.02,0.16,0.03,0.28,0.03,0.36c0,0.44-0.12,0.89-0.37,1.34c-0.24,0.45-0.54,0.79-0.88,1.02L130.61,194.89z"/>
	<path class="st0" d="M138.7,194.19c-0.61,0-1.1,0.14-1.45,0.41s-0.54,0.65-0.54,1.12c0,0.46,0.22,0.85,0.67,1.16
		s1.07,0.62,1.88,0.93c0.61,0.22,1.14,0.46,1.57,0.74c0.44,0.28,0.8,0.65,1.08,1.13s0.43,1.08,0.43,1.8c0,0.66-0.16,1.25-0.49,1.78
		s-0.8,0.96-1.43,1.28c-0.62,0.32-1.36,0.48-2.21,0.48c-0.75,0-1.48-0.12-2.21-0.35c-0.73-0.23-1.37-0.55-1.94-0.96l0.88-1.55
		c0.42,0.32,0.92,0.58,1.49,0.79c0.57,0.21,1.1,0.31,1.59,0.31c0.6,0,1.13-0.14,1.58-0.43s0.68-0.73,0.68-1.33
		c0-0.48-0.19-0.87-0.57-1.19s-0.91-0.61-1.59-0.87c-0.7-0.26-1.29-0.52-1.75-0.77s-0.86-0.61-1.2-1.07
		c-0.33-0.46-0.5-1.03-0.5-1.73c0-1.01,0.34-1.82,1.03-2.44s1.59-0.95,2.71-0.99c0.82,0,1.53,0.09,2.15,0.28s1.19,0.45,1.73,0.79
		l-0.75,1.51C140.48,194.47,139.53,194.19,138.7,194.19z"/>
	<path class="st0" d="M157.87,199.6c0.39,0.5,0.59,1.08,0.59,1.73c0,1.2-0.41,2.09-1.22,2.68c-0.81,0.58-1.81,0.88-3,0.88h-3.86
		v-12.38h3.38c1.29,0,2.29,0.26,3.01,0.79c0.71,0.53,1.07,1.3,1.07,2.32c0,0.65-0.14,1.2-0.42,1.67s-0.67,0.85-1.18,1.13
		C156.94,198.71,157.48,199.1,157.87,199.6z M152.37,197.78h1.72c0.57,0,0.99-0.16,1.28-0.49s0.43-0.74,0.43-1.24
		c0-0.54-0.17-0.95-0.52-1.22s-0.82-0.41-1.44-0.41h-1.48v3.36H152.37z M155.79,202.62c0.42-0.29,0.63-0.71,0.63-1.27
		c0-0.59-0.23-1.01-0.69-1.27s-1.03-0.39-1.71-0.39h-1.65v3.37h1.79C154.82,203.05,155.37,202.91,155.79,202.62z"/>
	<path class="st0" d="M163.08,192.51v12.38h-1.99v-12.38H163.08z"/>
	<path class="st0" d="M173.25,204.89l-2.79-4.3h-0.2h-1.79v4.3h-1.99v-12.38h3.48c1.38,0,2.49,0.35,3.32,1.05s1.25,1.68,1.25,2.92
		c0,0.76-0.16,1.46-0.48,2.12c-0.32,0.65-0.83,1.15-1.52,1.5l3.01,4.78h-2.29V204.89z M168.47,198.68h1.77
		c0.79,0,1.37-0.22,1.73-0.65s0.54-0.93,0.54-1.47c0-0.32-0.07-0.64-0.2-0.96c-0.14-0.32-0.37-0.6-0.7-0.83s-0.76-0.35-1.29-0.35
		h-1.84v4.26H168.47z"/>
	<path class="st0" d="M185.06,192.51v1.9h-3.2v10.47h-1.97v-10.47h-3.11v-1.9H185.06z"/>
	<path class="st0" d="M197.64,204.89h-1.99v-5.27h-6.09v5.27h-1.99v-12.38h1.99v5.22h6.09v-5.22h1.99V204.89z"/>
	<path class="st0" d="M201.04,192.51h3.52c1.55,0,2.84,0.31,3.85,0.92s1.75,1.4,2.22,2.36c0.46,0.96,0.7,1.99,0.7,3.08
		c0,1.2-0.28,2.26-0.84,3.17s-1.31,1.62-2.25,2.11s-1.97,0.74-3.08,0.74h-4.11v-12.38H201.04z M204.8,202.98
		c0.88,0,1.66-0.16,2.34-0.49s1.2-0.81,1.58-1.45s0.57-1.41,0.57-2.3c0-0.97-0.21-1.79-0.62-2.44c-0.41-0.65-0.94-1.13-1.58-1.44
		s-1.3-0.46-1.98-0.46h-2.07v8.58L204.8,202.98L204.8,202.98z"/>
	<path class="st0" d="M219.61,201.98h-4.5l-1.19,2.91h-1.95l5.47-12.89h0.12l5.47,12.89h-2.28L219.61,201.98z M218.94,200.28
		l-1.55-3.91l-1.6,3.91H218.94z"/>
	<path class="st0" d="M233.39,192.51l-4.64,8.36v4.01h-1.97v-4.01l-4.57-8.36h2.43l3.2,6.1l3.13-6.1H233.39z"/>
</g>
</svg>
