<?xml version="1.0" encoding="utf-8"?>
<!-- Generator: Adobe Illustrator 23.0.0, SVG Export Plug-In . SVG Version: 6.00 Build 0)  -->
<svg version="1.1" id="Layer_1" xmlns="http://www.w3.org/2000/svg" xmlns:xlink="http://www.w3.org/1999/xlink" x="0px" y="0px"
	 viewBox="0 0 300 600" style="enable-background:new 0 0 300 600;" xml:space="preserve">
<style type="text/css">
	.st0{fill:#768961;}
</style>
<g>
	<path class="st0" d="M37.67,298.13c0.25,0.41,0.59,0.73,1.02,0.98s0.9,0.37,1.41,0.37c0.53,0,1.02-0.12,1.45-0.36
		c0.44-0.24,0.78-0.56,1.03-0.97s0.37-0.86,0.37-1.34v-7.92h1.96v7.97c0,0.88-0.21,1.67-0.64,2.35c-0.42,0.69-1.01,1.22-1.74,1.61
		c-0.74,0.39-1.55,0.58-2.43,0.58s-1.69-0.19-2.42-0.58c-0.73-0.38-1.31-0.92-1.73-1.61c-0.42-0.69-0.63-1.47-0.63-2.35v-7.97h1.97
		v7.92C37.3,297.28,37.42,297.72,37.67,298.13z"/>
	<path class="st0" d="M53.77,294.22c0.54,0.32,0.97,0.77,1.27,1.36c0.31,0.59,0.46,1.27,0.46,2.06c0,0.77-0.17,1.45-0.5,2.02
		s-0.8,1.02-1.39,1.33s-1.27,0.46-2.01,0.46c-0.48,0-0.94-0.1-1.38-0.29c-0.44-0.19-0.8-0.45-1.09-0.78v4.33h-1.9v-10.78h1.65
		l0.17,1.07c0.37-0.39,0.81-0.69,1.3-0.92c0.49-0.23,1.03-0.34,1.61-0.34C52.62,293.75,53.23,293.9,53.77,294.22z M52.39,299.64
		c0.36-0.2,0.64-0.47,0.86-0.81c0.21-0.34,0.32-0.73,0.32-1.16c0-0.67-0.21-1.22-0.64-1.66s-0.95-0.66-1.57-0.66
		c-0.56,0-1.02,0.14-1.4,0.41s-0.65,0.65-0.82,1.14v1.44c0.11,0.46,0.36,0.84,0.74,1.14c0.38,0.29,0.83,0.44,1.35,0.44
		C51.64,299.93,52.03,299.83,52.39,299.64z"/>
	<path class="st0" d="M64.57,290.91v3.16h1.87v1.5h-1.87v5.7h-1.9v-5.7h-1.24v-1.5h1.24v-3.16H64.57z"/>
	<path class="st0" d="M67.74,295.63c0.35-0.59,0.82-1.05,1.44-1.39c0.61-0.33,1.31-0.5,2.09-0.5s1.48,0.17,2.08,0.5
		c0.61,0.33,1.07,0.79,1.4,1.38c0.33,0.58,0.49,1.24,0.49,1.96s-0.16,1.38-0.49,1.96c-0.33,0.58-0.8,1.05-1.4,1.39
		s-1.31,0.51-2.1,0.51c-0.77,0-1.46-0.16-2.07-0.47s-1.09-0.76-1.44-1.34c-0.35-0.58-0.52-1.27-0.52-2.05
		C67.22,296.87,67.39,296.22,67.74,295.63z M69.74,299.23c0.4,0.44,0.89,0.65,1.48,0.65c0.61,0,1.11-0.21,1.5-0.65
		c0.39-0.43,0.59-0.97,0.59-1.63s-0.2-1.2-0.59-1.64s-0.89-0.65-1.5-0.65c-0.59,0-1.08,0.22-1.48,0.67s-0.6,0.99-0.6,1.62
		C69.14,298.25,69.34,298.79,69.74,299.23z"/>
	<path class="st0" d="M89.46,298.88v2.38h-8.14l0.92-0.92c1.07-1.09,1.89-1.96,2.47-2.62s1.07-1.32,1.46-2
		c0.39-0.67,0.59-1.32,0.59-1.93c0-0.48-0.16-0.86-0.48-1.14s-0.74-0.43-1.26-0.43c-0.5,0-0.9,0.13-1.19,0.39s-0.44,0.55-0.44,0.88
		c0,0.67,0.22,1.24,0.66,1.7l-1.51,1.38c-0.31-0.15-0.58-0.4-0.82-0.77c-0.24-0.36-0.42-0.75-0.54-1.17
		c-0.13-0.42-0.19-0.78-0.19-1.07c0-0.63,0.18-1.24,0.53-1.81s0.86-1.03,1.54-1.39c0.67-0.35,1.47-0.53,2.39-0.53
		c0.75,0,1.42,0.17,2.01,0.52c0.59,0.35,1.05,0.81,1.38,1.39c0.33,0.58,0.49,1.19,0.49,1.84c0,0.6-0.12,1.19-0.35,1.77
		c-0.23,0.58-0.53,1.13-0.88,1.64c-0.36,0.52-0.83,1.14-1.42,1.88L89.46,298.88L89.46,298.88z"/>
	<path class="st0" d="M92.74,300.66c-0.71-0.42-1.28-1.07-1.7-1.92c-0.42-0.86-0.63-1.91-0.63-3.17c0-3.83,1.58-5.73,4.74-5.71
		c0.9-0.01,1.7,0.2,2.41,0.62c0.71,0.42,1.28,1.07,1.7,1.92c0.42,0.86,0.63,1.91,0.63,3.17c0,1.29-0.21,2.37-0.63,3.22
		c-0.42,0.86-0.99,1.49-1.7,1.9s-1.52,0.61-2.41,0.59C94.25,301.29,93.45,301.08,92.74,300.66z M96.82,298
		c0.33-0.61,0.5-1.45,0.5-2.5c0-2.18-0.73-3.26-2.19-3.26c-0.78,0-1.34,0.29-1.67,0.88s-0.49,1.4-0.49,2.43
		c0,1.04,0.16,1.86,0.49,2.46s0.88,0.9,1.67,0.9C95.93,298.91,96.49,298.61,96.82,298z"/>
	<path class="st0" d="M101.28,295.37c-0.46-0.59-0.69-1.37-0.69-2.34c0-0.96,0.23-1.74,0.69-2.33s1.14-0.88,2.05-0.88
		c0.9,0,1.58,0.3,2.04,0.89c0.46,0.6,0.7,1.37,0.7,2.32c0,0.96-0.23,1.74-0.7,2.34c-0.46,0.59-1.15,0.89-2.04,0.89
		C102.42,296.26,101.74,295.96,101.28,295.37z M104.11,301.29l-2.33-0.03l8.23-11.44h2.36L104.11,301.29z M102.81,294.2
		c0.1,0.27,0.27,0.4,0.52,0.4s0.42-0.13,0.51-0.4s0.14-0.65,0.14-1.16c0-0.56-0.05-0.95-0.14-1.18s-0.26-0.35-0.51-0.35
		c-0.26,0-0.44,0.12-0.53,0.35s-0.14,0.63-0.14,1.18C102.66,293.54,102.71,293.93,102.81,294.2z M108.39,300.84
		c-0.46-0.6-0.69-1.38-0.69-2.34s0.23-1.74,0.69-2.33s1.14-0.88,2.05-0.88c0.9,0,1.58,0.3,2.04,0.89c0.46,0.59,0.7,1.37,0.7,2.32
		c0,0.96-0.23,1.74-0.7,2.34c-0.46,0.59-1.15,0.89-2.04,0.89C109.53,301.74,108.84,301.44,108.39,300.84z M109.91,299.67
		c0.1,0.27,0.27,0.4,0.52,0.4s0.42-0.13,0.51-0.4c0.09-0.27,0.14-0.65,0.14-1.16c0-0.56-0.05-0.95-0.14-1.18
		c-0.09-0.23-0.26-0.35-0.51-0.35c-0.26,0-0.44,0.12-0.53,0.35s-0.14,0.63-0.14,1.18C109.77,299.02,109.82,299.4,109.91,299.67z"/>
	<path class="st0" d="M120.01,291.84c0.57-0.99,1.35-1.77,2.33-2.35c0.98-0.58,2.04-0.88,3.19-0.88c1.14,0,2.21,0.29,3.19,0.88
		c0.98,0.58,1.76,1.37,2.35,2.35c0.58,0.99,0.88,2.05,0.88,3.18c0,1.16-0.29,2.22-0.88,3.2c-0.58,0.97-1.37,1.75-2.35,2.32
		c-0.98,0.57-2.04,0.86-3.19,0.86c-1.16,0-2.22-0.29-3.2-0.86s-1.75-1.35-2.32-2.32s-0.86-2.04-0.86-3.2
		C119.15,293.89,119.44,292.83,120.01,291.84z M122.22,297.03c0.35,0.61,0.82,1.1,1.41,1.45c0.59,0.36,1.25,0.54,1.98,0.54
		c0.7,0,1.34-0.18,1.92-0.54c0.58-0.36,1.03-0.84,1.36-1.45s0.49-1.28,0.49-2.01c0-0.75-0.17-1.43-0.51-2.04
		c-0.34-0.61-0.8-1.1-1.39-1.45c-0.58-0.36-1.23-0.54-1.95-0.54c-0.71,0-1.36,0.18-1.95,0.54c-0.58,0.36-1.05,0.84-1.39,1.45
		c-0.34,0.61-0.51,1.29-0.51,2.04C121.7,295.75,121.88,296.42,122.22,297.03z"/>
	<path class="st0" d="M141.73,288.75v2.38h-5.35v2.84h4.64v2.38h-4.64v4.91h-2.46v-12.51H141.73z"/>
	<path class="st0" d="M151.44,288.75v2.38h-5.35v2.84h4.64v2.38h-4.64v4.91h-2.46v-12.51H151.44z"/>
	<path class="st0" d="M165.87,288.88v1.9h-5.52v3.48h4.81v1.89h-4.81v5.1h-1.99v-12.38L165.87,288.88L165.87,288.88z"/>
	<path class="st0" d="M166.66,295.63c0.35-0.59,0.82-1.05,1.44-1.39c0.61-0.33,1.31-0.5,2.09-0.5s1.48,0.17,2.08,0.5
		c0.61,0.33,1.07,0.79,1.4,1.38c0.33,0.58,0.49,1.24,0.49,1.96s-0.17,1.38-0.49,1.96c-0.33,0.58-0.8,1.05-1.4,1.39
		c-0.61,0.34-1.31,0.51-2.1,0.51c-0.77,0-1.46-0.16-2.07-0.47s-1.09-0.76-1.44-1.34s-0.52-1.27-0.52-2.05
		C166.14,296.87,166.31,296.22,166.66,295.63z M168.66,299.23c0.4,0.44,0.89,0.65,1.48,0.65c0.61,0,1.11-0.21,1.5-0.65
		c0.39-0.43,0.59-0.97,0.59-1.63s-0.2-1.2-0.59-1.64s-0.89-0.65-1.5-0.65c-0.59,0-1.08,0.22-1.48,0.67s-0.6,0.99-0.6,1.62
		C168.06,298.25,168.26,298.79,168.66,299.23z"/>
	<path class="st0" d="M178.35,294.7c0.35-0.31,0.71-0.54,1.08-0.71s0.68-0.25,0.93-0.25l-0.08,1.9c-0.52-0.04-0.99,0.05-1.39,0.28
		s-0.73,0.55-0.95,0.95c-0.23,0.4-0.34,0.83-0.34,1.28v3.09h-1.9v-7.19h1.72l0.14,1.67C177.72,295.35,178,295,178.35,294.7z"/>
	<path class="st0" d="M189.14,294.07v7.19h-1.9v-1.04c-0.26,0.31-0.61,0.59-1.05,0.84s-0.96,0.38-1.55,0.38
		c-0.69,0-1.31-0.14-1.85-0.43s-0.98-0.72-1.29-1.28c-0.32-0.57-0.48-1.25-0.48-2.06c0-0.78,0.16-1.47,0.49-2.07
		c0.33-0.59,0.77-1.05,1.32-1.38s1.15-0.48,1.81-0.48c1.17,0,2.04,0.43,2.62,1.29l0.14-0.97h1.74V294.07z M186.48,299.48
		c0.36-0.27,0.61-0.64,0.76-1.13v-1.56c-0.14-0.44-0.4-0.8-0.79-1.07s-0.84-0.41-1.35-0.41c-0.6,0-1.11,0.21-1.53,0.64
		c-0.42,0.42-0.63,0.97-0.63,1.62c0,0.43,0.1,0.82,0.31,1.17c0.2,0.35,0.48,0.63,0.82,0.83s0.71,0.31,1.11,0.31
		C185.69,299.88,186.12,299.75,186.48,299.48z"/>
	<path class="st0" d="M191.87,301.12c-0.49-0.2-0.9-0.48-1.22-0.84l0.8-1.07c0.6,0.59,1.21,0.88,1.84,0.88
		c0.34,0,0.62-0.07,0.84-0.2s0.33-0.33,0.33-0.59c0-0.27-0.11-0.48-0.34-0.61c-0.23-0.14-0.48-0.25-0.76-0.33s-0.46-0.14-0.54-0.16
		c-0.62-0.19-1.09-0.47-1.39-0.84s-0.46-0.8-0.46-1.3c0-0.4,0.1-0.77,0.3-1.11s0.5-0.63,0.9-0.84s0.89-0.32,1.47-0.32
		c0.54,0,1.02,0.06,1.42,0.19s0.78,0.32,1.13,0.59l-0.73,1.14c-0.2-0.19-0.45-0.35-0.74-0.46c-0.29-0.11-0.55-0.17-0.79-0.17
		c-0.29,0-0.54,0.07-0.73,0.2c-0.19,0.14-0.29,0.31-0.29,0.53c-0.01,0.26,0.08,0.46,0.29,0.59c0.2,0.13,0.53,0.27,0.99,0.42
		c0.19,0.06,0.32,0.1,0.37,0.12c0.57,0.18,1.01,0.43,1.33,0.76c0.32,0.32,0.48,0.75,0.48,1.27c0,0.7-0.25,1.29-0.76,1.76
		c-0.5,0.47-1.23,0.71-2.17,0.71C192.89,301.41,192.36,301.31,191.87,301.12z"/>
	<path class="st0" d="M209.47,294.22c0.54,0.32,0.97,0.77,1.28,1.36s0.46,1.27,0.46,2.06c0,0.77-0.17,1.45-0.5,2.02
		c-0.33,0.58-0.8,1.02-1.39,1.33s-1.27,0.46-2.01,0.46c-0.48,0-0.93-0.1-1.38-0.29c-0.44-0.19-0.8-0.45-1.09-0.78v4.33h-1.9v-10.78
		h1.65l0.17,1.07c0.37-0.39,0.81-0.69,1.3-0.92s1.03-0.34,1.61-0.34C208.32,293.75,208.93,293.9,209.47,294.22z M208.09,299.64
		c0.36-0.2,0.64-0.47,0.86-0.81c0.21-0.34,0.32-0.73,0.32-1.16c0-0.67-0.21-1.22-0.64-1.66s-0.95-0.66-1.57-0.66
		c-0.56,0-1.02,0.14-1.4,0.41c-0.38,0.27-0.65,0.65-0.82,1.14v1.44c0.11,0.46,0.36,0.84,0.74,1.14c0.38,0.29,0.83,0.44,1.35,0.44
		C207.34,299.93,207.73,299.83,208.09,299.64z"/>
	<path class="st0" d="M215.39,294.7c0.35-0.31,0.71-0.54,1.08-0.71s0.68-0.25,0.93-0.25l-0.08,1.9c-0.52-0.04-0.99,0.05-1.39,0.28
		s-0.73,0.55-0.95,0.95c-0.23,0.4-0.34,0.83-0.34,1.28v3.09h-1.9v-7.19h1.72l0.14,1.67C214.77,295.35,215.04,295,215.39,294.7z"/>
	<path class="st0" d="M218.46,295.63c0.35-0.59,0.82-1.05,1.44-1.39c0.61-0.33,1.31-0.5,2.09-0.5s1.48,0.17,2.08,0.5
		c0.61,0.33,1.07,0.79,1.4,1.38c0.33,0.58,0.49,1.24,0.49,1.96s-0.17,1.38-0.49,1.96c-0.33,0.58-0.8,1.05-1.4,1.39
		c-0.61,0.34-1.31,0.51-2.1,0.51c-0.77,0-1.46-0.16-2.07-0.47s-1.09-0.76-1.44-1.34s-0.52-1.27-0.52-2.05
		C217.94,296.87,218.11,296.22,218.46,295.63z M220.46,299.23c0.4,0.44,0.89,0.65,1.48,0.65c0.61,0,1.11-0.21,1.5-0.65
		c0.39-0.43,0.59-0.97,0.59-1.63s-0.2-1.2-0.59-1.64s-0.89-0.65-1.5-0.65c-0.59,0-1.08,0.22-1.48,0.67s-0.6,0.99-0.6,1.62
		C219.86,298.25,220.06,298.79,220.46,299.23z"/>
	<path class="st0" d="M235.14,288v13.26h-1.9v-0.97c-0.79,0.77-1.73,1.16-2.82,1.16c-0.67,0-1.27-0.16-1.81-0.48
		s-0.96-0.77-1.27-1.36s-0.46-1.27-0.46-2.06s0.16-1.46,0.48-2.04c0.32-0.58,0.77-1.02,1.34-1.32c0.57-0.3,1.22-0.45,1.95-0.45
		c0.52,0,1.01,0.1,1.48,0.3s0.84,0.47,1.12,0.81V288H235.14z M232.42,299.42c0.39-0.27,0.66-0.65,0.82-1.14v-1.53
		c-0.14-0.44-0.41-0.8-0.81-1.09s-0.87-0.42-1.4-0.42c-0.4,0-0.77,0.1-1.11,0.3s-0.61,0.47-0.82,0.82c-0.2,0.35-0.31,0.73-0.31,1.16
		s0.1,0.82,0.31,1.17c0.2,0.35,0.48,0.63,0.82,0.83s0.71,0.31,1.11,0.31C231.57,299.83,232.04,299.7,232.42,299.42z"/>
	<path class="st0" d="M244.19,294.07v7.19h-1.72l-0.12-1.29c-0.25,0.49-0.62,0.88-1.1,1.16c-0.49,0.29-1.04,0.43-1.67,0.43
		c-0.66,0-1.2-0.2-1.64-0.6s-0.66-0.92-0.67-1.55v-5.34h1.9v4.66c0.03,0.79,0.42,1.2,1.17,1.21c0.56,0,1.02-0.25,1.39-0.76
		s0.55-1.15,0.55-1.92v-3.18L244.19,294.07L244.19,294.07z"/>
	<path class="st0" d="M251.11,301.22c-0.46,0.15-0.92,0.23-1.39,0.23c-0.79,0-1.49-0.15-2.1-0.46s-1.07-0.74-1.4-1.32
		c-0.33-0.57-0.49-1.24-0.49-2.01c0-0.76,0.18-1.43,0.53-2s0.82-1.01,1.4-1.32s1.21-0.46,1.88-0.46c1.13,0,2.07,0.31,2.8,0.92
		l-0.95,1.24c-0.22-0.17-0.47-0.31-0.76-0.43s-0.6-0.18-0.93-0.18c-0.58,0-1.07,0.21-1.47,0.64s-0.6,0.96-0.6,1.59
		s0.21,1.16,0.64,1.59c0.42,0.42,0.97,0.64,1.62,0.64c0.57,0,1.04-0.16,1.43-0.48l0.95,1.19
		C251.96,300.86,251.57,301.06,251.11,301.22z"/>
	<path class="st0" d="M256.34,290.91v3.16h1.87v1.5h-1.87v5.7h-1.9v-5.7h-1.24v-1.5h1.24v-3.16H256.34z"/>
	<path class="st0" d="M260.18,301.12c-0.49-0.2-0.9-0.48-1.22-0.84l0.8-1.07c0.6,0.59,1.21,0.88,1.84,0.88
		c0.34,0,0.62-0.07,0.84-0.2s0.33-0.33,0.33-0.59c0-0.27-0.11-0.48-0.34-0.61c-0.23-0.14-0.48-0.25-0.76-0.33s-0.46-0.14-0.54-0.16
		c-0.62-0.19-1.09-0.47-1.39-0.84s-0.46-0.8-0.46-1.3c0-0.4,0.1-0.77,0.3-1.11s0.5-0.63,0.9-0.84s0.89-0.32,1.47-0.32
		c0.54,0,1.02,0.06,1.42,0.19s0.78,0.32,1.13,0.59l-0.73,1.14c-0.2-0.19-0.45-0.35-0.74-0.46c-0.29-0.11-0.55-0.17-0.79-0.17
		c-0.29,0-0.54,0.07-0.73,0.2c-0.19,0.14-0.29,0.31-0.29,0.53c-0.01,0.26,0.08,0.46,0.29,0.59c0.2,0.13,0.53,0.27,0.99,0.42
		c0.19,0.06,0.32,0.1,0.37,0.12c0.57,0.18,1.01,0.43,1.33,0.76c0.32,0.32,0.48,0.75,0.48,1.27c0,0.7-0.25,1.29-0.76,1.76
		c-0.5,0.47-1.23,0.71-2.17,0.71C261.19,301.41,260.67,301.31,260.18,301.12z"/>
</g>
</svg>
