<?xml version="1.0" encoding="utf-8"?>
<!-- Generator: Adobe Illustrator 23.0.0, SVG Export Plug-In . SVG Version: 6.00 Build 0)  -->
<svg version="1.1" id="Layer_1" xmlns="http://www.w3.org/2000/svg" xmlns:xlink="http://www.w3.org/1999/xlink" x="0px" y="0px"
	 viewBox="0 0 300 600" style="enable-background:new 0 0 300 600;" xml:space="preserve">
<style type="text/css">
	.st0{fill:#768961;}
</style>
<g>
	<path class="st0" d="M52.42,275.04c-0.64,0.24-1.34,0.36-2.1,0.36c-1.28,0-2.4-0.28-3.36-0.84s-1.69-1.32-2.21-2.26
		s-0.77-1.99-0.77-3.12c0-1.24,0.26-2.34,0.77-3.32c0.52-0.97,1.24-1.74,2.16-2.29c0.92-0.55,1.97-0.82,3.15-0.82
		c0.73,0,1.4,0.1,2.01,0.29c0.62,0.19,1.16,0.44,1.64,0.73l-0.78,1.85c-0.92-0.65-1.85-0.97-2.81-0.97c-0.73,0-1.4,0.2-2.03,0.59
		s-1.13,0.92-1.5,1.6c-0.37,0.67-0.56,1.41-0.56,2.22c0,0.85,0.17,1.61,0.52,2.29c0.35,0.67,0.84,1.2,1.48,1.58
		c0.64,0.38,1.38,0.57,2.22,0.57c0.6,0,1.14-0.09,1.62-0.27s0.89-0.41,1.22-0.7l0.83,1.77C53.56,274.55,53.06,274.8,52.42,275.04z"
		/>
	<path class="st0" d="M55.6,269.63c0.35-0.59,0.82-1.05,1.44-1.39c0.61-0.33,1.31-0.5,2.09-0.5s1.48,0.17,2.08,0.5
		c0.61,0.33,1.07,0.79,1.4,1.38c0.33,0.58,0.49,1.24,0.49,1.96s-0.16,1.38-0.49,1.96s-0.8,1.05-1.4,1.39s-1.31,0.51-2.1,0.51
		c-0.77,0-1.46-0.16-2.07-0.47s-1.09-0.76-1.44-1.34s-0.52-1.27-0.52-2.05C55.08,270.87,55.25,270.22,55.6,269.63z M57.6,273.23
		c0.4,0.44,0.89,0.65,1.48,0.65c0.61,0,1.11-0.21,1.5-0.65c0.39-0.43,0.59-0.97,0.59-1.63s-0.2-1.2-0.59-1.64s-0.89-0.65-1.5-0.65
		c-0.59,0-1.08,0.22-1.48,0.67c-0.4,0.45-0.6,0.99-0.6,1.62C57,272.25,57.2,272.79,57.6,273.23z"/>
	<path class="st0" d="M75.63,268.34c0.41,0.4,0.63,0.92,0.65,1.56v5.36h-1.89v-4.62c-0.02-0.38-0.11-0.68-0.25-0.89
		c-0.15-0.21-0.39-0.33-0.73-0.35c-0.59,0-1.07,0.26-1.43,0.79s-0.55,1.14-0.56,1.84v3.23H69.5v-4.62
		c-0.02-0.37-0.11-0.67-0.26-0.88c-0.15-0.22-0.41-0.33-0.76-0.36c-0.39,0-0.73,0.13-1.02,0.37c-0.29,0.25-0.52,0.58-0.69,0.99
		c-0.16,0.41-0.25,0.83-0.25,1.27v3.23h-1.9v-7.19h1.72l0.15,1.26c0.27-0.51,0.64-0.9,1.1-1.17c0.46-0.27,1-0.41,1.6-0.41
		c0.58,0,1.06,0.13,1.45,0.38s0.65,0.62,0.77,1.1c0.29-0.46,0.67-0.83,1.12-1.09c0.45-0.26,0.92-0.39,1.41-0.39
		C74.65,267.75,75.21,267.94,75.63,268.34z"/>
	<path class="st0" d="M84.95,268.22c0.54,0.32,0.97,0.77,1.27,1.36c0.31,0.59,0.46,1.27,0.46,2.06c0,0.77-0.17,1.45-0.5,2.02
		s-0.8,1.02-1.39,1.33s-1.27,0.46-2.01,0.46c-0.48,0-0.94-0.1-1.38-0.29c-0.44-0.19-0.8-0.45-1.09-0.78v4.33h-1.9v-10.78h1.65
		l0.17,1.07c0.37-0.39,0.81-0.69,1.3-0.92c0.49-0.23,1.03-0.34,1.61-0.34C83.8,267.75,84.41,267.9,84.95,268.22z M83.57,273.64
		c0.36-0.2,0.64-0.47,0.86-0.81c0.21-0.34,0.32-0.73,0.32-1.16c0-0.67-0.21-1.22-0.64-1.66s-0.95-0.66-1.57-0.66
		c-0.56,0-1.02,0.14-1.4,0.41c-0.38,0.27-0.65,0.65-0.82,1.14v1.44c0.11,0.46,0.36,0.84,0.74,1.14c0.38,0.29,0.83,0.44,1.35,0.44
		C82.82,273.93,83.21,273.83,83.57,273.64z"/>
	<path class="st0" d="M90.1,262v13.26h-1.9V262H90.1z"/>
	<path class="st0" d="M92.48,264.78c0.23-0.2,0.48-0.3,0.77-0.3c0.27,0,0.52,0.1,0.74,0.3c0.22,0.2,0.33,0.44,0.33,0.72
		s-0.11,0.52-0.33,0.71s-0.47,0.29-0.74,0.29c-0.28,0-0.54-0.1-0.77-0.29c-0.23-0.19-0.34-0.43-0.34-0.71S92.25,264.98,92.48,264.78
		z M94.13,268.07v7.19h-1.9v-7.19H94.13z"/>
	<path class="st0" d="M107.26,268.34c0.41,0.4,0.63,0.92,0.65,1.56v5.36h-1.89v-4.62c-0.02-0.38-0.11-0.68-0.25-0.89
		c-0.15-0.21-0.39-0.33-0.73-0.35c-0.59,0-1.07,0.26-1.43,0.79s-0.55,1.14-0.56,1.84v3.23h-1.92v-4.62
		c-0.02-0.37-0.11-0.67-0.26-0.88c-0.15-0.22-0.41-0.33-0.76-0.36c-0.39,0-0.73,0.13-1.02,0.37c-0.29,0.25-0.52,0.58-0.69,0.99
		c-0.16,0.41-0.25,0.83-0.25,1.27v3.23h-1.9v-7.19h1.72l0.15,1.26c0.27-0.51,0.64-0.9,1.1-1.17c0.46-0.27,1-0.41,1.6-0.41
		c0.58,0,1.06,0.13,1.45,0.38s0.65,0.62,0.77,1.1c0.29-0.46,0.67-0.83,1.12-1.09c0.45-0.26,0.92-0.39,1.41-0.39
		C106.29,267.75,106.85,267.94,107.26,268.34z"/>
	<path class="st0" d="M115.13,273.25l0.87,1.41c-0.39,0.24-0.8,0.43-1.24,0.57s-0.87,0.21-1.27,0.21c-0.83,0-1.54-0.16-2.15-0.49
		s-1.07-0.78-1.39-1.36s-0.48-1.24-0.48-1.99c0-0.7,0.18-1.35,0.54-1.94s0.86-1.06,1.48-1.4c0.62-0.35,1.3-0.52,2.04-0.52
		c0.97,0,1.79,0.29,2.43,0.86s1.08,1.38,1.29,2.42l-5.54,1.87c0.19,0.29,0.45,0.52,0.77,0.68s0.67,0.24,1.05,0.24
		C114.04,273.81,114.58,273.63,115.13,273.25z M111.89,269.87c-0.38,0.42-0.57,0.96-0.57,1.63c0,0.13,0.01,0.22,0.02,0.29l3.77-1.34
		c-0.15-0.35-0.36-0.64-0.65-0.87s-0.65-0.34-1.1-0.34C112.76,269.24,112.27,269.45,111.89,269.87z"/>
	<path class="st0" d="M124.98,268.37c0.45,0.4,0.68,0.92,0.69,1.56v5.34h-1.9v-4.66c-0.02-0.37-0.13-0.67-0.33-0.88
		c-0.2-0.21-0.5-0.33-0.89-0.34c-0.59,0-1.07,0.25-1.45,0.76c-0.38,0.5-0.57,1.15-0.57,1.93v3.2h-1.9v-7.19h1.72l0.14,1.28
		c0.26-0.5,0.64-0.89,1.13-1.16c0.49-0.28,1.06-0.42,1.71-0.42C123.97,267.76,124.53,267.96,124.98,268.37z"/>
	<path class="st0" d="M130.39,264.91v3.16h1.87v1.5h-1.87v5.7h-1.9v-5.7h-1.24v-1.5h1.24v-3.16H130.39z"/>
	<path class="st0" d="M141.17,268.07v7.19h-1.9v-1.04c-0.26,0.31-0.61,0.59-1.05,0.84s-0.96,0.38-1.55,0.38
		c-0.69,0-1.31-0.14-1.85-0.43s-0.97-0.72-1.29-1.28c-0.32-0.57-0.48-1.25-0.48-2.06c0-0.78,0.16-1.47,0.49-2.07
		c0.33-0.59,0.77-1.05,1.32-1.38s1.15-0.48,1.81-0.48c1.17,0,2.04,0.43,2.62,1.29l0.14-0.97h1.74V268.07z M138.51,273.48
		c0.36-0.27,0.61-0.64,0.76-1.13v-1.56c-0.14-0.44-0.4-0.8-0.79-1.07s-0.84-0.41-1.35-0.41c-0.6,0-1.11,0.21-1.53,0.64
		c-0.42,0.42-0.63,0.97-0.63,1.62c0,0.43,0.1,0.82,0.31,1.17c0.2,0.35,0.48,0.63,0.82,0.83c0.34,0.2,0.71,0.31,1.1,0.31
		C137.71,273.88,138.15,273.75,138.51,273.48z"/>
	<path class="st0" d="M145.98,268.7c0.35-0.31,0.71-0.54,1.08-0.71c0.37-0.16,0.68-0.25,0.93-0.25l-0.08,1.9
		c-0.52-0.04-0.99,0.05-1.39,0.28c-0.41,0.23-0.73,0.55-0.95,0.95c-0.23,0.4-0.34,0.83-0.34,1.28v3.09h-1.9v-7.19h1.72l0.14,1.67
		C145.36,269.35,145.63,269,145.98,268.7z"/>
	<path class="st0" d="M156.55,268.07l-4.64,10.64h-1.87l1.68-3.76l-3.33-6.89h2.14l2.14,4.76l2.14-4.76h1.74V268.07z"/>
	<path class="st0" d="M165.24,268.7c0.35-0.31,0.71-0.54,1.08-0.71c0.37-0.16,0.68-0.25,0.93-0.25l-0.08,1.9
		c-0.52-0.04-0.99,0.05-1.39,0.28c-0.41,0.23-0.73,0.55-0.95,0.95c-0.23,0.4-0.34,0.83-0.34,1.28v3.09h-1.9v-7.19h1.72l0.14,1.67
		C164.62,269.35,164.89,269,165.24,268.7z"/>
	<path class="st0" d="M173.47,273.25l0.87,1.41c-0.39,0.24-0.8,0.43-1.24,0.57s-0.87,0.21-1.27,0.21c-0.83,0-1.54-0.16-2.15-0.49
		s-1.07-0.78-1.39-1.36c-0.32-0.58-0.48-1.24-0.48-1.99c0-0.7,0.18-1.35,0.54-1.94s0.86-1.06,1.48-1.4c0.62-0.35,1.3-0.52,2.04-0.52
		c0.97,0,1.79,0.29,2.43,0.86s1.08,1.38,1.29,2.42l-5.54,1.87c0.19,0.29,0.45,0.52,0.77,0.68s0.67,0.24,1.05,0.24
		C172.39,273.81,172.92,273.63,173.47,273.25z M170.23,269.87c-0.38,0.42-0.57,0.96-0.57,1.63c0,0.13,0.01,0.22,0.02,0.29l3.77-1.34
		c-0.15-0.35-0.36-0.64-0.65-0.87s-0.65-0.34-1.1-0.34C171.1,269.24,170.61,269.45,170.23,269.87z"/>
	<path class="st0" d="M177.58,269.73h-1.22v-1.68h1.22v-2.82c0-1.01,0.25-1.8,0.77-2.36c0.51-0.57,1.24-0.85,2.19-0.85
		c0.28,0,0.59,0.04,0.92,0.13c0.33,0.08,0.61,0.21,0.85,0.37l-0.8,1.38c-0.19-0.2-0.45-0.31-0.77-0.31c-0.84,0-1.26,0.57-1.26,1.7
		v2.77h2.24v1.68h-2.24v5.53h-1.9L177.58,269.73L177.58,269.73z"/>
	<path class="st0" d="M185.96,268.7c0.35-0.31,0.71-0.54,1.08-0.71s0.68-0.25,0.93-0.25l-0.08,1.9c-0.52-0.04-0.99,0.05-1.39,0.28
		s-0.73,0.55-0.95,0.95c-0.23,0.4-0.34,0.83-0.34,1.28v3.09h-1.9v-7.19h1.72l0.14,1.67C185.34,269.35,185.61,269,185.96,268.7z"/>
	<path class="st0" d="M194.19,273.25l0.87,1.41c-0.38,0.24-0.8,0.43-1.24,0.57s-0.87,0.21-1.27,0.21c-0.83,0-1.54-0.16-2.15-0.49
		s-1.07-0.78-1.39-1.36c-0.32-0.58-0.48-1.24-0.48-1.99c0-0.7,0.18-1.35,0.54-1.94s0.86-1.06,1.48-1.4c0.62-0.35,1.3-0.52,2.04-0.52
		c0.97,0,1.78,0.29,2.43,0.86c0.65,0.57,1.08,1.38,1.29,2.42l-5.54,1.87c0.19,0.29,0.45,0.52,0.76,0.68
		c0.32,0.16,0.67,0.24,1.05,0.24C193.11,273.81,193.65,273.63,194.19,273.25z M190.95,269.87c-0.38,0.42-0.57,0.96-0.57,1.63
		c0,0.13,0.01,0.22,0.02,0.29l3.77-1.34c-0.15-0.35-0.36-0.64-0.65-0.87s-0.65-0.34-1.1-0.34
		C191.82,269.24,191.33,269.45,190.95,269.87z"/>
	<path class="st0" d="M198.26,275.12c-0.49-0.2-0.9-0.48-1.22-0.84l0.8-1.07c0.6,0.59,1.21,0.88,1.84,0.88
		c0.34,0,0.62-0.07,0.84-0.2s0.33-0.33,0.33-0.59c0-0.27-0.11-0.48-0.34-0.61c-0.23-0.14-0.48-0.25-0.76-0.33s-0.46-0.14-0.54-0.16
		c-0.62-0.19-1.09-0.47-1.39-0.84s-0.46-0.8-0.46-1.3c0-0.4,0.1-0.77,0.3-1.11s0.5-0.63,0.9-0.84s0.89-0.32,1.47-0.32
		c0.54,0,1.02,0.06,1.42,0.19s0.78,0.32,1.13,0.59l-0.73,1.14c-0.2-0.19-0.45-0.35-0.74-0.46c-0.29-0.11-0.55-0.17-0.79-0.17
		c-0.29,0-0.54,0.07-0.73,0.2c-0.19,0.14-0.29,0.31-0.29,0.53c-0.01,0.26,0.08,0.46,0.29,0.59c0.2,0.13,0.53,0.27,0.99,0.42
		c0.19,0.06,0.32,0.1,0.37,0.12c0.57,0.18,1.01,0.43,1.33,0.76c0.32,0.32,0.48,0.75,0.48,1.27c0,0.7-0.25,1.29-0.76,1.76
		c-0.5,0.47-1.23,0.71-2.17,0.71C199.28,275.41,198.76,275.31,198.26,275.12z"/>
	<path class="st0" d="M210.74,268.37c0.45,0.4,0.68,0.92,0.69,1.56v5.34h-1.9v-4.66c-0.02-0.37-0.13-0.67-0.33-0.88
		s-0.5-0.33-0.89-0.34c-0.59,0-1.07,0.25-1.45,0.76s-0.57,1.15-0.57,1.92v3.2h-1.9V262h1.87v7.29c0.27-0.46,0.65-0.84,1.13-1.11
		c0.48-0.28,1.05-0.42,1.69-0.42C209.73,267.76,210.29,267.96,210.74,268.37z"/>
	<path class="st0" d="M224.56,268.34c0.41,0.4,0.63,0.92,0.65,1.56v5.36h-1.89v-4.62c-0.02-0.38-0.11-0.68-0.25-0.89
		s-0.39-0.33-0.73-0.35c-0.59,0-1.07,0.26-1.43,0.79c-0.36,0.53-0.55,1.14-0.56,1.84v3.23h-1.92v-4.62
		c-0.02-0.37-0.11-0.67-0.26-0.88c-0.15-0.22-0.41-0.33-0.76-0.36c-0.39,0-0.73,0.13-1.02,0.37c-0.29,0.25-0.52,0.58-0.69,0.99
		s-0.25,0.83-0.25,1.27v3.23h-1.9v-7.19h1.72l0.15,1.26c0.27-0.51,0.64-0.9,1.11-1.17c0.46-0.27,1-0.41,1.6-0.41
		c0.58,0,1.06,0.13,1.45,0.38s0.65,0.62,0.77,1.1c0.29-0.46,0.67-0.83,1.12-1.09s0.92-0.39,1.41-0.39
		C223.59,267.75,224.15,267.94,224.56,268.34z"/>
	<path class="st0" d="M232.42,273.25l0.87,1.41c-0.38,0.24-0.8,0.43-1.24,0.57s-0.87,0.21-1.27,0.21c-0.83,0-1.54-0.16-2.15-0.49
		s-1.07-0.78-1.39-1.36c-0.32-0.58-0.48-1.24-0.48-1.99c0-0.7,0.18-1.35,0.54-1.94s0.86-1.06,1.48-1.4c0.62-0.35,1.3-0.52,2.04-0.52
		c0.97,0,1.78,0.29,2.43,0.86c0.65,0.57,1.08,1.38,1.29,2.42l-5.54,1.87c0.19,0.29,0.45,0.52,0.76,0.68
		c0.32,0.16,0.67,0.24,1.05,0.24C231.34,273.81,231.88,273.63,232.42,273.25z M229.18,269.87c-0.38,0.42-0.57,0.96-0.57,1.63
		c0,0.13,0.01,0.22,0.02,0.29l3.77-1.34c-0.15-0.35-0.36-0.64-0.65-0.87s-0.65-0.34-1.1-0.34
		C230.05,269.24,229.56,269.45,229.18,269.87z"/>
	<path class="st0" d="M242.27,268.37c0.45,0.4,0.68,0.92,0.69,1.56v5.34h-1.9v-4.66c-0.02-0.37-0.13-0.67-0.33-0.88
		s-0.5-0.33-0.89-0.34c-0.59,0-1.07,0.25-1.45,0.76c-0.38,0.5-0.57,1.15-0.57,1.93v3.2h-1.9v-7.19h1.72l0.14,1.28
		c0.26-0.5,0.64-0.89,1.13-1.16c0.49-0.28,1.06-0.42,1.71-0.42C241.27,267.76,241.83,267.96,242.27,268.37z"/>
	<path class="st0" d="M247.69,264.91v3.16h1.87v1.5h-1.87v5.7h-1.9v-5.7h-1.24v-1.5h1.24v-3.16H247.69z"/>
	<path class="st0" d="M251.52,275.12c-0.49-0.2-0.9-0.48-1.22-0.84l0.8-1.07c0.6,0.59,1.21,0.88,1.84,0.88
		c0.34,0,0.62-0.07,0.84-0.2s0.33-0.33,0.33-0.59c0-0.27-0.11-0.48-0.34-0.61c-0.23-0.14-0.48-0.25-0.76-0.33s-0.46-0.14-0.54-0.16
		c-0.62-0.19-1.09-0.47-1.39-0.84s-0.46-0.8-0.46-1.3c0-0.4,0.1-0.77,0.3-1.11s0.5-0.63,0.9-0.84s0.89-0.32,1.47-0.32
		c0.54,0,1.02,0.06,1.42,0.19s0.78,0.32,1.13,0.59l-0.73,1.14c-0.2-0.19-0.45-0.35-0.74-0.46c-0.29-0.11-0.55-0.17-0.79-0.17
		c-0.29,0-0.54,0.07-0.73,0.2c-0.19,0.14-0.29,0.31-0.29,0.53c-0.01,0.26,0.08,0.46,0.29,0.59c0.2,0.13,0.53,0.27,0.99,0.42
		c0.19,0.06,0.32,0.1,0.37,0.12c0.57,0.18,1.01,0.43,1.33,0.76c0.32,0.32,0.48,0.75,0.48,1.27c0,0.7-0.25,1.29-0.76,1.76
		c-0.5,0.47-1.23,0.71-2.17,0.71C252.54,275.41,252.02,275.31,251.52,275.12z"/>
</g>
</svg>
