<?xml version="1.0" encoding="utf-8"?>
<!-- Generator: Adobe Illustrator 23.0.0, SVG Export Plug-In . SVG Version: 6.00 Build 0)  -->
<svg version="1.1" id="Layer_1" xmlns="http://www.w3.org/2000/svg" xmlns:xlink="http://www.w3.org/1999/xlink" x="0px" y="0px"
	 viewBox="0 0 300 600" style="enable-background:new 0 0 300 600;" xml:space="preserve">
<style type="text/css">
	.st0{fill:#768961;}
</style>
<g>
	<path class="st0" d="M114.52,238v10.47h6.1v1.9h-8.09V238H114.52z"/>
	<path class="st0" d="M122.61,239.9c0.23-0.2,0.48-0.3,0.77-0.3c0.27,0,0.52,0.1,0.74,0.3s0.33,0.44,0.33,0.72s-0.11,0.52-0.33,0.71
		s-0.47,0.29-0.74,0.29c-0.28,0-0.54-0.1-0.77-0.29c-0.23-0.19-0.34-0.43-0.34-0.71S122.39,240.09,122.61,239.9z M124.26,243.19
		v7.19h-1.9v-7.19H124.26z"/>
	<path class="st0" d="M133.49,243.19l-3.94,7.38h-0.08l-4.13-7.38h2.26l1.97,4.11l1.8-4.11H133.49z"/>
	<path class="st0" d="M139.44,248.37l0.87,1.41c-0.39,0.24-0.8,0.43-1.24,0.57s-0.87,0.21-1.27,0.21c-0.83,0-1.54-0.16-2.15-0.49
		s-1.07-0.78-1.39-1.36c-0.32-0.58-0.48-1.24-0.48-1.99c0-0.7,0.18-1.35,0.54-1.94s0.86-1.06,1.48-1.4c0.62-0.35,1.3-0.52,2.04-0.52
		c0.97,0,1.79,0.29,2.43,0.86s1.08,1.38,1.29,2.42l-5.54,1.87c0.19,0.29,0.45,0.52,0.77,0.68c0.32,0.16,0.67,0.24,1.05,0.24
		C138.36,248.93,138.9,248.74,139.44,248.37z M136.2,244.99c-0.38,0.42-0.57,0.96-0.57,1.63c0,0.12,0.01,0.22,0.02,0.29l3.77-1.34
		c-0.15-0.35-0.36-0.64-0.65-0.87c-0.28-0.23-0.65-0.34-1.1-0.34C137.07,244.36,136.58,244.57,136.2,244.99z"/>
	<path class="st0" d="M158.88,243.46c0.41,0.4,0.63,0.92,0.65,1.56v5.35h-1.89v-4.62c-0.02-0.39-0.11-0.68-0.26-0.89
		s-0.39-0.33-0.73-0.35c-0.59,0-1.07,0.26-1.43,0.79c-0.36,0.53-0.55,1.14-0.56,1.84v3.23h-1.92v-4.62
		c-0.02-0.37-0.11-0.67-0.26-0.88s-0.4-0.33-0.76-0.36c-0.39,0-0.73,0.13-1.02,0.37c-0.3,0.25-0.53,0.58-0.69,0.99
		s-0.25,0.83-0.25,1.27v3.23h-1.9v-7.19h1.72l0.15,1.26c0.27-0.51,0.64-0.9,1.1-1.17s1-0.41,1.6-0.41c0.58,0,1.06,0.13,1.46,0.38
		c0.39,0.25,0.65,0.62,0.77,1.1c0.29-0.46,0.67-0.83,1.12-1.09s0.92-0.39,1.41-0.39C157.91,242.86,158.47,243.06,158.88,243.46z"/>
	<path class="st0" d="M168.58,243.19v7.19h-1.72l-0.12-1.29c-0.25,0.49-0.62,0.88-1.1,1.17c-0.49,0.29-1.04,0.43-1.67,0.43
		c-0.66,0-1.2-0.2-1.64-0.6c-0.44-0.4-0.66-0.92-0.67-1.56v-5.34h1.9v4.66c0.03,0.79,0.42,1.2,1.17,1.21c0.56,0,1.02-0.25,1.39-0.76
		s0.55-1.15,0.55-1.92v-3.18h1.91V243.19z"/>
	<path class="st0" d="M171.31,250.23c-0.49-0.2-0.9-0.48-1.22-0.84l0.8-1.07c0.6,0.59,1.21,0.88,1.84,0.88
		c0.34,0,0.62-0.07,0.84-0.2c0.22-0.13,0.33-0.33,0.33-0.59c0-0.27-0.11-0.48-0.34-0.61c-0.23-0.14-0.48-0.25-0.76-0.33
		s-0.46-0.14-0.54-0.16c-0.62-0.19-1.09-0.47-1.39-0.84s-0.46-0.8-0.46-1.3c0-0.4,0.1-0.77,0.3-1.11s0.5-0.63,0.9-0.84
		c0.4-0.21,0.89-0.32,1.47-0.32c0.54,0,1.02,0.06,1.42,0.19s0.78,0.32,1.13,0.59l-0.73,1.14c-0.2-0.19-0.45-0.35-0.74-0.46
		c-0.29-0.11-0.55-0.17-0.79-0.17c-0.29,0-0.54,0.07-0.73,0.2c-0.19,0.14-0.29,0.31-0.29,0.53c-0.01,0.26,0.08,0.46,0.29,0.59
		c0.2,0.13,0.53,0.27,0.99,0.42c0.19,0.06,0.32,0.1,0.37,0.12c0.57,0.18,1.01,0.43,1.33,0.76c0.32,0.32,0.48,0.75,0.48,1.27
		c0,0.7-0.25,1.29-0.76,1.76c-0.5,0.47-1.23,0.71-2.17,0.71C172.33,250.53,171.8,250.43,171.31,250.23z"/>
	<path class="st0" d="M177.68,239.9c0.23-0.2,0.48-0.3,0.76-0.3c0.27,0,0.52,0.1,0.74,0.3s0.33,0.44,0.33,0.72s-0.11,0.52-0.33,0.71
		s-0.47,0.29-0.74,0.29c-0.28,0-0.54-0.1-0.76-0.29c-0.23-0.19-0.34-0.43-0.34-0.71S177.45,240.09,177.68,239.9z M179.32,243.19
		v7.19h-1.9v-7.19H179.32z"/>
	<path class="st0" d="M186.24,250.33c-0.46,0.15-0.92,0.23-1.39,0.23c-0.79,0-1.49-0.15-2.1-0.46c-0.61-0.31-1.07-0.75-1.4-1.32
		c-0.33-0.57-0.49-1.24-0.49-2.01c0-0.76,0.18-1.43,0.53-2s0.82-1.01,1.4-1.32s1.21-0.46,1.88-0.46c1.13,0,2.07,0.31,2.8,0.92
		l-0.95,1.24c-0.22-0.17-0.47-0.31-0.76-0.43s-0.6-0.18-0.93-0.18c-0.58,0-1.07,0.21-1.47,0.64c-0.4,0.42-0.6,0.95-0.6,1.59
		c0,0.63,0.21,1.16,0.64,1.59c0.42,0.42,0.97,0.64,1.62,0.64c0.57,0,1.04-0.16,1.43-0.48l0.95,1.19
		C187.08,249.97,186.69,250.18,186.24,250.33z"/>
</g>
</svg>
