<?xml version="1.0" encoding="utf-8"?>
<!-- Generator: Adobe Illustrator 23.0.0, SVG Export Plug-In . SVG Version: 6.00 Build 0)  -->
<svg version="1.1" id="Layer_1" xmlns="http://www.w3.org/2000/svg" xmlns:xlink="http://www.w3.org/1999/xlink" x="0px" y="0px"
	 viewBox="0 0 300 600" style="enable-background:new 0 0 300 600;" xml:space="preserve">
<style type="text/css">
	.st0{fill:#768961;}
</style>
<g>
	<path class="st0" d="M40.07,222.15c0.89,0.8,1.33,1.89,1.33,3.27c0,0.79-0.15,1.53-0.46,2.22c-0.31,0.69-0.8,1.26-1.49,1.7
		c-0.69,0.44-1.58,0.67-2.67,0.67H34.9v4.19h-2.61v-13.25h4.01C37.92,220.95,39.18,221.35,40.07,222.15z M37.94,227.14
		c0.3-0.22,0.52-0.48,0.65-0.78s0.2-0.59,0.2-0.86c0-0.47-0.14-0.92-0.41-1.36s-0.81-0.66-1.6-0.66H34.9v4h1.85
		C37.25,227.47,37.64,227.36,37.94,227.14z"/>
	<path class="st0" d="M45.85,220v14.2h-2.52V220H45.85z"/>
	<path class="st0" d="M56.36,226.34v7.87h-2.29l-0.18-1.26c-0.28,0.5-0.66,0.9-1.16,1.2s-1.08,0.44-1.75,0.44
		c-0.72,0-1.32-0.22-1.8-0.67c-0.48-0.44-0.73-1.01-0.74-1.69v-5.89h2.52v4.95c0.04,0.77,0.39,1.15,1.06,1.15
		c0.55,0,0.99-0.27,1.32-0.81c0.33-0.54,0.5-1.24,0.5-2.09v-3.2H56.36z"/>
	<path class="st0" d="M59.69,234.02c-0.56-0.23-1.03-0.55-1.4-0.95l1.04-1.39c0.7,0.65,1.35,0.97,1.96,0.97
		c0.32,0,0.58-0.05,0.78-0.15c0.2-0.1,0.3-0.25,0.3-0.46c0-0.24-0.11-0.42-0.34-0.55s-0.48-0.23-0.76-0.31s-0.47-0.14-0.57-0.16
		c-0.68-0.22-1.19-0.54-1.53-0.96s-0.5-0.92-0.5-1.47c0-0.42,0.11-0.83,0.33-1.23s0.57-0.73,1.04-0.99s1.05-0.39,1.75-0.39
		c0.65,0,1.2,0.07,1.66,0.2s0.89,0.35,1.31,0.65l-0.95,1.48c-0.24-0.19-0.51-0.35-0.8-0.48s-0.56-0.19-0.8-0.19
		c-0.29,0-0.52,0.06-0.7,0.18s-0.27,0.26-0.27,0.43c-0.01,0.25,0.09,0.44,0.31,0.57s0.57,0.26,1.04,0.39
		c0.07,0.02,0.15,0.05,0.22,0.07c0.08,0.02,0.16,0.05,0.24,0.07c1.24,0.41,1.85,1.15,1.85,2.23c0,0.5-0.13,0.97-0.38,1.39
		s-0.63,0.76-1.14,1.02s-1.13,0.39-1.86,0.39C60.86,234.36,60.25,234.25,59.69,234.02z"/>
	<path class="st0" d="M81.3,226.34v7.87h-2.52v-0.97c-0.76,0.79-1.63,1.19-2.63,1.19c-1.16,0-2.11-0.35-2.83-1.04
		c-0.73-0.7-1.09-1.73-1.09-3.1c0-0.86,0.18-1.62,0.53-2.28c0.35-0.65,0.83-1.16,1.41-1.52c0.59-0.36,1.22-0.54,1.89-0.54
		c0.7,0,1.25,0.11,1.66,0.32s0.77,0.51,1.08,0.89l0.16-0.81h2.34V226.34z M78.78,231.18v-1.93c-0.14-0.38-0.39-0.69-0.75-0.92
		c-0.35-0.23-0.77-0.34-1.25-0.34c-0.55,0-1.02,0.2-1.41,0.61c-0.39,0.41-0.58,0.92-0.58,1.55c0,0.41,0.1,0.78,0.29,1.13
		c0.19,0.34,0.45,0.61,0.76,0.8c0.32,0.19,0.66,0.29,1.04,0.29C77.75,232.37,78.39,231.97,78.78,231.18z"/>
	<path class="st0" d="M95.12,234.17c-0.52,0.17-1.04,0.25-1.54,0.25c-1.37,0-2.45-0.37-3.25-1.11s-1.2-1.75-1.2-3.05
		c0-0.84,0.2-1.58,0.58-2.21c0.39-0.63,0.9-1.11,1.54-1.44s1.32-0.5,2.05-0.5c1.31,0,2.37,0.35,3.19,1.04l-1.22,1.62
		c-0.52-0.41-1.09-0.61-1.73-0.61c-0.53,0-0.97,0.2-1.34,0.59s-0.55,0.89-0.55,1.49s0.2,1.1,0.59,1.5c0.4,0.4,0.91,0.6,1.55,0.6
		c0.55,0,1.01-0.15,1.37-0.45l1.26,1.58C96.08,233.78,95.64,234,95.12,234.17z"/>
	<path class="st0" d="M105.7,226.62c0.5,0.44,0.75,1.01,0.77,1.69v5.89h-2.52v-4.95c-0.04-0.77-0.42-1.15-1.15-1.15
		c-0.58,0-1.04,0.27-1.39,0.81s-0.52,1.24-0.52,2.09v3.2h-2.52V220h2.47v7.58c0.29-0.5,0.69-0.9,1.2-1.19s1.11-0.43,1.81-0.43
		C104.58,225.96,105.2,226.18,105.7,226.62z"/>
	<path class="st0" d="M117.52,226.34v7.87H115v-0.97c-0.76,0.79-1.63,1.19-2.63,1.19c-1.16,0-2.11-0.35-2.83-1.04
		c-0.73-0.7-1.09-1.73-1.09-3.1c0-0.86,0.18-1.62,0.53-2.28c0.35-0.65,0.83-1.16,1.41-1.52c0.59-0.36,1.22-0.54,1.89-0.54
		c0.7,0,1.25,0.11,1.66,0.32s0.77,0.51,1.08,0.89l0.16-0.81h2.34V226.34z M115,231.18v-1.93c-0.14-0.38-0.39-0.69-0.75-0.92
		c-0.35-0.23-0.77-0.34-1.25-0.34c-0.55,0-1.02,0.2-1.41,0.61c-0.39,0.41-0.58,0.92-0.58,1.55c0,0.41,0.1,0.78,0.29,1.13
		c0.19,0.34,0.45,0.61,0.76,0.8c0.32,0.19,0.66,0.29,1.04,0.29C113.97,232.37,114.6,231.97,115,231.18z"/>
	<path class="st0" d="M123.47,227c0.38-0.34,0.76-0.6,1.16-0.78c0.4-0.19,0.71-0.28,0.94-0.28l-0.13,2.52
		c-0.07-0.01-0.17-0.02-0.31-0.02c-0.5,0-0.95,0.13-1.33,0.4c-0.38,0.26-0.68,0.6-0.88,1.02s-0.31,0.84-0.31,1.27v3.08h-2.5v-7.87
		h2.27l0.2,1.8C122.79,227.72,123.09,227.34,123.47,227z"/>
	<path class="st0" d="M127.86,222.64c0.28-0.25,0.6-0.37,0.96-0.37c0.35,0,0.66,0.12,0.94,0.37s0.41,0.55,0.41,0.91
		s-0.14,0.66-0.41,0.9c-0.28,0.24-0.59,0.36-0.94,0.36c-0.36,0-0.68-0.12-0.96-0.36s-0.42-0.54-0.42-0.9
		C127.44,223.19,127.58,222.88,127.86,222.64z M130.01,226.34v7.87h-2.52v-7.87H130.01z"/>
	<path class="st0" d="M135.86,222.88v3.42h1.91v1.96h-1.91v5.94h-2.52v-5.94h-1.22v-1.96h1.22v-3.42H135.86z"/>
	<path class="st0" d="M147.83,226.34l-5.08,11.65h-2.43l1.89-4.19l-3.64-7.45h2.83l2.07,4.64l2.09-4.64L147.83,226.34L147.83,226.34
		z"/>
	<path class="st0" d="M158.51,227c0.38-0.34,0.76-0.6,1.16-0.78c0.4-0.19,0.71-0.28,0.94-0.28l-0.13,2.52
		c-0.07-0.01-0.17-0.02-0.31-0.02c-0.5,0-0.95,0.13-1.33,0.4c-0.38,0.26-0.68,0.6-0.88,1.02s-0.31,0.84-0.31,1.27v3.08h-2.5v-7.87
		h2.27l0.2,1.8C157.84,227.72,158.14,227.34,158.51,227z"/>
	<path class="st0" d="M170.73,226.34v7.87h-2.52v-0.97c-0.76,0.79-1.63,1.19-2.63,1.19c-1.16,0-2.11-0.35-2.83-1.04
		c-0.73-0.7-1.09-1.73-1.09-3.1c0-0.86,0.18-1.62,0.53-2.28c0.35-0.65,0.83-1.16,1.41-1.52c0.59-0.36,1.22-0.54,1.89-0.54
		c0.7,0,1.25,0.11,1.66,0.32s0.77,0.51,1.08,0.89l0.16-0.81h2.34V226.34z M168.21,231.18v-1.93c-0.14-0.38-0.39-0.69-0.75-0.92
		c-0.35-0.23-0.77-0.34-1.25-0.34c-0.55,0-1.02,0.2-1.41,0.61s-0.58,0.92-0.58,1.55c0,0.41,0.1,0.78,0.29,1.13
		c0.19,0.34,0.45,0.61,0.76,0.8c0.32,0.19,0.66,0.29,1.04,0.29C167.18,232.37,167.81,231.97,168.21,231.18z"/>
	<path class="st0" d="M182.23,226.3h2.38v2.23h-2.38v5.67h-2.52v-5.67h-3.11v5.67h-2.52v-5.67h-1.33v-2.23h1.33v-2.74
		c0-1.06,0.3-1.9,0.91-2.55c0.61-0.64,1.46-0.96,2.57-0.96c0.36,0,0.74,0.05,1.15,0.16c0.41,0.11,0.76,0.27,1.06,0.49l-1.06,1.82
		c-0.22-0.26-0.51-0.4-0.88-0.4s-0.67,0.13-0.89,0.38s-0.33,0.63-0.33,1.13v2.66h3.11v-2.74c0-1.06,0.3-1.9,0.91-2.55
		c0.61-0.64,1.46-0.96,2.57-0.96c0.36,0,0.74,0.05,1.15,0.16c0.41,0.11,0.76,0.27,1.06,0.49l-1.06,1.82
		c-0.22-0.26-0.51-0.4-0.88-0.4s-0.67,0.13-0.89,0.38s-0.33,0.63-0.33,1.13v2.68H182.23z M189.3,220v14.2h-2.52V220H189.3z"/>
	<path class="st0" d="M197.39,231.75l1.12,1.87c-0.43,0.24-0.89,0.43-1.37,0.58c-0.48,0.14-0.94,0.22-1.37,0.22
		c-0.94,0-1.74-0.18-2.42-0.53s-1.19-0.85-1.54-1.49c-0.35-0.64-0.52-1.38-0.52-2.21c0-0.77,0.2-1.48,0.6-2.12
		c0.4-0.65,0.95-1.16,1.65-1.54c0.7-0.38,1.46-0.57,2.29-0.57c1.13,0,2.05,0.33,2.78,0.99s1.2,1.6,1.41,2.83l-5.76,1.84
		c0.38,0.44,0.91,0.67,1.57,0.67C196.32,232.28,196.85,232.1,197.39,231.75z M194.27,228.5c-0.34,0.38-0.5,0.9-0.5,1.55v0.16
		l3.46-1.17c-0.25-0.74-0.79-1.12-1.6-1.12C195.06,227.92,194.61,228.11,194.27,228.5z"/>
	<path class="st0" d="M210.96,222.88v3.42h1.91v1.96h-1.91v5.94h-2.52v-5.94h-1.22v-1.96h1.22v-3.42H210.96z"/>
	<path class="st0" d="M214.75,228.01c0.38-0.64,0.91-1.14,1.6-1.5c0.69-0.37,1.47-0.55,2.35-0.55s1.65,0.18,2.31,0.55
		s1.18,0.87,1.54,1.5c0.36,0.64,0.54,1.36,0.54,2.16s-0.18,1.53-0.54,2.18s-0.87,1.16-1.54,1.52s-1.45,0.55-2.35,0.55
		c-0.88,0-1.65-0.17-2.33-0.51c-0.68-0.34-1.21-0.83-1.58-1.47c-0.38-0.64-0.57-1.39-0.57-2.27
		C214.18,229.37,214.37,228.65,214.75,228.01z M217.26,231.75c0.36,0.41,0.82,0.62,1.37,0.62c0.58,0,1.04-0.2,1.4-0.61
		c0.35-0.41,0.53-0.93,0.53-1.57c0-0.64-0.18-1.16-0.53-1.57s-0.82-0.61-1.4-0.61c-0.55,0-1.01,0.21-1.37,0.62
		c-0.36,0.41-0.54,0.93-0.54,1.56C216.72,230.81,216.9,231.33,217.26,231.75z"/>
	<path class="st0" d="M242.35,234.78l-3.15-7.85l-3.67,7.88l-5.33-13.77h3.06l2.61,7.67l2.02-5.06l-1.04-2.61h2.59l2.97,7.36
		l2.25-7.36h2.81L242.35,234.78z"/>
	<path class="st0" d="M252.36,220.95v13.25h-2.61v-13.25H252.36z"/>
	<path class="st0" d="M267.71,220.95v13.79h-0.07l-9.27-8.37l0.05,7.83h-2.65v-13.77h0.11l9.25,8.5l-0.05-7.97L267.71,220.95
		L267.71,220.95z"/>
</g>
</svg>
