<?xml version="1.0" encoding="utf-8"?>
<!-- Generator: Adobe Illustrator 23.0.0, SVG Export Plug-In . SVG Version: 6.00 Build 0)  -->
<svg version="1.1" id="Layer_1" xmlns="http://www.w3.org/2000/svg" xmlns:xlink="http://www.w3.org/1999/xlink" x="0px" y="0px"
	 viewBox="0 0 300 600" style="enable-background:new 0 0 300 600;" xml:space="preserve">
<style type="text/css">
	.st0{fill:#BB8C54;}
</style>
<g>
	<path class="st0" d="M45.51,250.15c0.37-0.62,0.87-1.11,1.52-1.47c0.65-0.35,1.39-0.53,2.21-0.53s1.56,0.18,2.21,0.53
		c0.64,0.35,1.14,0.84,1.49,1.46c0.35,0.62,0.52,1.31,0.52,2.08s-0.17,1.46-0.52,2.08c-0.35,0.62-0.84,1.11-1.49,1.47
		c-0.64,0.36-1.38,0.54-2.22,0.54c-0.82,0-1.55-0.17-2.2-0.5c-0.65-0.33-1.16-0.8-1.52-1.42c-0.37-0.62-0.55-1.34-0.55-2.17
		C44.96,251.46,45.15,250.77,45.51,250.15z M47.63,253.95c0.42,0.46,0.94,0.69,1.57,0.69c0.65,0,1.18-0.23,1.59-0.68
		s0.62-1.03,0.62-1.73s-0.21-1.27-0.62-1.74s-0.95-0.69-1.59-0.69c-0.62,0-1.15,0.24-1.57,0.71S47,251.56,47,252.23
		C47,252.92,47.21,253.49,47.63,253.95z"/>
	<path class="st0" d="M62.91,248.49v7.61h-1.82l-0.13-1.37c-0.26,0.52-0.65,0.93-1.17,1.23c-0.52,0.31-1.1,0.46-1.76,0.46
		c-0.7,0-1.28-0.21-1.74-0.64s-0.7-0.98-0.71-1.65v-5.65h2.02v4.93c0.04,0.84,0.45,1.27,1.24,1.28c0.59,0,1.08-0.27,1.47-0.81
		s0.58-1.22,0.58-2.03v-3.37L62.91,248.49L62.91,248.49z"/>
	<path class="st0" d="M68.52,249.16c0.37-0.32,0.75-0.57,1.14-0.75c0.39-0.17,0.72-0.26,0.98-0.26l-0.09,2.02
		c-0.55-0.05-1.04,0.05-1.48,0.3c-0.43,0.25-0.77,0.58-1.01,1.01c-0.24,0.43-0.36,0.88-0.36,1.36v3.28h-2v-7.61h1.82l0.14,1.76
		C67.86,249.85,68.15,249.48,68.52,249.16z"/>
	<path class="st0" d="M86.85,243v2.02H81v3.69h5.09v2H81v5.4h-2.11V243H86.85z"/>
	<path class="st0" d="M96.12,248.49v7.61H94.3l-0.13-1.37c-0.26,0.52-0.65,0.93-1.17,1.23c-0.52,0.31-1.1,0.46-1.76,0.46
		c-0.7,0-1.28-0.21-1.74-0.64s-0.7-0.98-0.71-1.65v-5.65h2.02v4.93c0.04,0.84,0.45,1.27,1.24,1.28c0.59,0,1.08-0.27,1.47-0.81
		s0.58-1.22,0.58-2.03v-3.37L96.12,248.49L96.12,248.49z"/>
	<path class="st0" d="M99.53,255.95c-0.52-0.21-0.95-0.51-1.29-0.89l0.85-1.13c0.64,0.62,1.28,0.94,1.94,0.94
		c0.36,0,0.66-0.07,0.89-0.21c0.23-0.14,0.35-0.34,0.35-0.62c0-0.29-0.12-0.5-0.36-0.65c-0.24-0.14-0.51-0.26-0.8-0.35
		c-0.29-0.09-0.48-0.15-0.57-0.17c-0.66-0.2-1.15-0.5-1.48-0.89s-0.49-0.85-0.49-1.38c0-0.42,0.11-0.81,0.32-1.18
		s0.53-0.66,0.95-0.89c0.43-0.23,0.95-0.34,1.56-0.34c0.58,0,1.08,0.07,1.5,0.2c0.43,0.13,0.83,0.34,1.2,0.63l-0.77,1.21
		c-0.22-0.2-0.48-0.37-0.78-0.49c-0.31-0.12-0.58-0.18-0.84-0.18c-0.31,0-0.57,0.07-0.77,0.22s-0.31,0.33-0.31,0.56
		c-0.01,0.28,0.09,0.48,0.31,0.62s0.56,0.29,1.04,0.44c0.2,0.06,0.34,0.1,0.4,0.13c0.6,0.19,1.07,0.46,1.4,0.8
		c0.34,0.34,0.5,0.79,0.5,1.34c0,0.74-0.27,1.37-0.8,1.86s-1.3,0.75-2.29,0.75C100.61,256.27,100.05,256.16,99.53,255.95z"/>
	<path class="st0" d="M106.79,245.01c0.24-0.21,0.51-0.31,0.81-0.31c0.29,0,0.55,0.11,0.78,0.31c0.23,0.21,0.35,0.47,0.35,0.77
		s-0.12,0.55-0.35,0.76c-0.23,0.2-0.5,0.31-0.78,0.31c-0.3,0-0.57-0.1-0.81-0.31c-0.24-0.2-0.36-0.46-0.36-0.76
		C106.43,245.47,106.55,245.22,106.79,245.01z M108.54,248.49v7.61h-2.02v-7.61H108.54z"/>
	<path class="st0" d="M111.23,250.15c0.37-0.62,0.87-1.11,1.52-1.47c0.65-0.35,1.39-0.53,2.21-0.53s1.56,0.18,2.21,0.53
		c0.64,0.35,1.14,0.84,1.49,1.46c0.35,0.62,0.52,1.31,0.52,2.08s-0.17,1.46-0.52,2.08s-0.84,1.11-1.49,1.47
		c-0.64,0.36-1.38,0.54-2.22,0.54c-0.82,0-1.55-0.17-2.2-0.5c-0.65-0.33-1.16-0.8-1.52-1.42c-0.37-0.62-0.55-1.34-0.55-2.17
		C110.68,251.46,110.86,250.77,111.23,250.15z M113.34,253.95c0.42,0.46,0.94,0.69,1.57,0.69c0.65,0,1.18-0.23,1.59-0.68
		s0.62-1.03,0.62-1.73s-0.21-1.27-0.62-1.74s-0.95-0.69-1.59-0.69c-0.62,0-1.15,0.24-1.57,0.71s-0.63,1.05-0.63,1.72
		C112.71,252.92,112.92,253.49,113.34,253.95z"/>
	<path class="st0" d="M128.04,248.81c0.47,0.43,0.72,0.98,0.73,1.65v5.65h-2.02v-4.93c-0.02-0.4-0.14-0.71-0.35-0.94
		s-0.53-0.35-0.95-0.36c-0.62,0-1.14,0.27-1.54,0.8s-0.6,1.21-0.6,2.04v3.38h-2.02v-7.61h1.82l0.14,1.35
		c0.28-0.53,0.68-0.94,1.2-1.23s1.13-0.44,1.81-0.44C126.98,248.17,127.57,248.38,128.04,248.81z"/>
	<path class="st0" d="M148.39,256.68l-3.1-7.81l-3.47,7.85l-5.24-13.64h2.45l3.06,8.75l2.18-5.58l-1.26-3.17h2.07l3.37,8.5l2.81-8.5
		h2.25L148.39,256.68z"/>
	<path class="st0" d="M161.87,248.49v7.61h-2.02V255c-0.28,0.32-0.65,0.62-1.12,0.89s-1.01,0.41-1.64,0.41
		c-0.73,0-1.39-0.15-1.96-0.46c-0.58-0.31-1.03-0.76-1.37-1.36s-0.5-1.33-0.5-2.18c0-0.83,0.17-1.56,0.52-2.19s0.81-1.12,1.39-1.46
		c0.58-0.34,1.22-0.51,1.92-0.51c1.24,0,2.16,0.46,2.77,1.37l0.14-1.03h1.87V248.49z M159.05,254.22c0.38-0.28,0.64-0.68,0.8-1.2
		v-1.66c-0.14-0.47-0.42-0.85-0.84-1.13c-0.41-0.29-0.89-0.43-1.43-0.43c-0.64,0-1.18,0.22-1.62,0.67s-0.67,1.02-0.67,1.72
		c0,0.46,0.11,0.87,0.32,1.24c0.22,0.37,0.5,0.67,0.86,0.88c0.36,0.22,0.75,0.32,1.17,0.32
		C158.21,254.65,158.68,254.5,159.05,254.22z"/>
	<path class="st0" d="M167.41,245.14v3.35h1.98v1.58h-1.98v6.03h-2.02v-6.03h-1.31v-1.58h1.31v-3.35H167.41z"/>
	<path class="st0" d="M176.76,253.98l0.92,1.49c-0.41,0.25-0.85,0.45-1.31,0.6c-0.46,0.15-0.92,0.23-1.35,0.23
		c-0.88,0-1.64-0.17-2.28-0.52c-0.64-0.35-1.13-0.83-1.48-1.44c-0.34-0.61-0.51-1.31-0.51-2.11c0-0.74,0.19-1.43,0.58-2.05
		s0.91-1.12,1.57-1.49c0.66-0.37,1.38-0.55,2.16-0.55c1.03,0,1.89,0.3,2.57,0.91c0.68,0.61,1.14,1.46,1.37,2.56l-5.87,1.98
		c0.2,0.31,0.47,0.55,0.81,0.72c0.33,0.17,0.71,0.25,1.12,0.25C175.61,254.57,176.18,254.38,176.76,253.98z M173.33,250.4
		c-0.4,0.44-0.6,1.02-0.6,1.73c0,0.13,0.01,0.23,0.02,0.31l4-1.42c-0.16-0.37-0.38-0.68-0.68-0.92c-0.3-0.24-0.69-0.36-1.17-0.36
		C174.25,249.73,173.73,249.95,173.33,250.4z"/>
	<path class="st0" d="M183.79,249.16c0.37-0.32,0.75-0.57,1.14-0.75c0.39-0.17,0.72-0.26,0.98-0.26l-0.09,2.02
		c-0.55-0.05-1.04,0.05-1.48,0.3c-0.43,0.25-0.77,0.58-1.01,1.01c-0.24,0.43-0.36,0.88-0.36,1.36v3.28h-2.02v-7.61h1.82l0.14,1.76
		C183.13,249.85,183.42,249.48,183.79,249.16z"/>
	<path class="st0" d="M202.12,243v2.02h-5.85v3.69h5.09v2h-5.09v5.4h-2.11V243H202.12z"/>
	<path class="st0" d="M208.94,253.98l0.92,1.49c-0.41,0.25-0.85,0.45-1.31,0.6c-0.46,0.15-0.92,0.23-1.35,0.23
		c-0.88,0-1.64-0.17-2.28-0.52c-0.64-0.35-1.13-0.83-1.48-1.44c-0.34-0.61-0.51-1.31-0.51-2.11c0-0.74,0.19-1.43,0.58-2.05
		s0.91-1.12,1.57-1.49c0.66-0.37,1.38-0.55,2.16-0.55c1.03,0,1.89,0.3,2.57,0.91c0.68,0.61,1.14,1.46,1.37,2.56l-5.87,1.98
		c0.2,0.31,0.47,0.55,0.81,0.72c0.33,0.17,0.71,0.25,1.12,0.25C207.79,254.57,208.36,254.38,208.94,253.98z M205.51,250.4
		c-0.4,0.44-0.6,1.02-0.6,1.73c0,0.13,0.01,0.23,0.02,0.31l4-1.42c-0.16-0.37-0.38-0.68-0.68-0.92c-0.3-0.24-0.69-0.36-1.17-0.36
		C206.43,249.73,205.91,249.95,205.51,250.4z"/>
	<path class="st0" d="M221.13,248.49v7.61h-2.02V255c-0.28,0.32-0.65,0.62-1.12,0.89s-1.01,0.41-1.64,0.41
		c-0.73,0-1.39-0.15-1.96-0.46c-0.58-0.31-1.03-0.76-1.37-1.36s-0.5-1.33-0.5-2.18c0-0.83,0.17-1.56,0.52-2.19s0.81-1.12,1.39-1.46
		c0.58-0.34,1.22-0.51,1.92-0.51c1.24,0,2.16,0.46,2.77,1.37l0.14-1.03h1.87V248.49z M218.31,254.22c0.38-0.28,0.64-0.68,0.8-1.2
		v-1.66c-0.14-0.47-0.42-0.85-0.84-1.13c-0.41-0.29-0.89-0.43-1.43-0.43c-0.64,0-1.18,0.22-1.62,0.67s-0.67,1.02-0.67,1.72
		c0,0.46,0.11,0.87,0.32,1.24c0.22,0.37,0.5,0.67,0.86,0.88c0.36,0.22,0.75,0.32,1.17,0.32
		C217.47,254.65,217.93,254.5,218.31,254.22z"/>
	<path class="st0" d="M226.67,245.14v3.35h1.98v1.58h-1.98v6.03h-2.02v-6.03h-1.31v-1.58h1.31v-3.35H226.67z"/>
	<path class="st0" d="M237.96,248.49v7.61h-1.82l-0.13-1.37c-0.26,0.52-0.65,0.93-1.17,1.23c-0.52,0.31-1.1,0.46-1.76,0.46
		c-0.7,0-1.28-0.21-1.74-0.64s-0.7-0.98-0.71-1.65v-5.65h2.02v4.93c0.04,0.84,0.45,1.27,1.24,1.28c0.59,0,1.08-0.27,1.47-0.81
		s0.58-1.22,0.58-2.03v-3.37L237.96,248.49L237.96,248.49z"/>
	<path class="st0" d="M243.57,249.16c0.37-0.32,0.75-0.57,1.14-0.75c0.39-0.17,0.72-0.26,0.98-0.26l-0.09,2.02
		c-0.55-0.05-1.04,0.05-1.48,0.3c-0.43,0.25-0.77,0.58-1.01,1.01c-0.24,0.43-0.36,0.88-0.36,1.36v3.28h-2.02v-7.61h1.82l0.14,1.76
		C242.91,249.85,243.2,249.48,243.57,249.16z"/>
	<path class="st0" d="M252.81,253.98l0.92,1.49c-0.41,0.25-0.85,0.45-1.31,0.6c-0.46,0.15-0.92,0.23-1.35,0.23
		c-0.88,0-1.64-0.17-2.28-0.52c-0.64-0.35-1.13-0.83-1.48-1.44c-0.34-0.61-0.51-1.31-0.51-2.11c0-0.74,0.19-1.43,0.58-2.05
		s0.91-1.12,1.57-1.49c0.66-0.37,1.38-0.55,2.16-0.55c1.03,0,1.89,0.3,2.57,0.91c0.68,0.61,1.14,1.46,1.37,2.56l-5.87,1.98
		c0.2,0.31,0.47,0.55,0.81,0.72c0.33,0.17,0.71,0.25,1.12,0.25C251.66,254.57,252.23,254.38,252.81,253.98z M249.38,250.4
		c-0.4,0.44-0.6,1.02-0.6,1.73c0,0.13,0.01,0.23,0.02,0.31l4-1.42c-0.16-0.37-0.38-0.68-0.68-0.92c-0.3-0.24-0.69-0.36-1.17-0.36
		C250.3,249.73,249.78,249.95,249.38,250.4z"/>
</g>
</svg>
