<?xml version="1.0" encoding="utf-8"?>
<!-- Generator: Adobe Illustrator 23.0.0, SVG Export Plug-In . SVG Version: 6.00 Build 0)  -->
<svg version="1.1" id="Layer_1" xmlns="http://www.w3.org/2000/svg" xmlns:xlink="http://www.w3.org/1999/xlink" x="0px" y="0px"
	 viewBox="0 0 300 600" style="enable-background:new 0 0 300 600;" xml:space="preserve">
<style type="text/css">
	.st0{fill:#FFFFFF;}
	.st1{fill:#768961;}
</style>
<g>
	<rect x="34" y="342" class="st0" width="232" height="36"/>
	<g>
		<path class="st1" d="M91.05,363.1c0.2,0.4,0.6,0.7,1,0.9c0.4,0.2,0.8,0.3,1.3,0.3s0.9-0.1,1.3-0.3c0.4-0.2,0.7-0.5,1-0.9
			c0.2-0.4,0.3-0.7,0.3-1.1v-7.9h2.4v7.9c0,0.9-0.2,1.7-0.7,2.4c-0.5,0.7-1.1,1.3-1.8,1.7c-0.7,0.4-1.6,0.6-2.6,0.6
			c-0.9,0-1.8-0.2-2.6-0.6c-0.8-0.4-1.4-1-1.8-1.7c-0.4-0.7-0.7-1.5-0.7-2.4v-7.9h2.5v7.9C90.75,362.3,90.85,362.7,91.05,363.1z"/>
		<path class="st1" d="M107.95,359.2c0.5,0.3,1,0.8,1.3,1.4c0.3,0.6,0.5,1.3,0.5,2.2c0,0.8-0.2,1.5-0.5,2.1s-0.8,1-1.4,1.4
			c-0.6,0.3-1.3,0.5-2.1,0.5c-0.4,0-0.9-0.1-1.3-0.2c-0.4-0.2-0.8-0.4-1-0.7v4.3h-2.4v-11.3h2l0.2,0.9c0.9-0.7,1.9-1.1,2.9-1.1
			C106.85,358.7,107.45,358.9,107.95,359.2z M106.65,364.3c0.4-0.4,0.6-0.9,0.6-1.5s-0.2-1.1-0.6-1.5c-0.4-0.4-0.8-0.6-1.4-0.6
			c-0.5,0-0.9,0.1-1.2,0.3c-0.3,0.2-0.6,0.5-0.8,0.8v1.8c0.1,0.4,0.3,0.7,0.7,0.9c0.3,0.2,0.7,0.3,1.1,0.3
			C105.75,364.9,106.25,364.7,106.65,364.3z"/>
		<path class="st1" d="M120.15,355.9v3.2h1.8v1.9h-1.8v5.6h-2.4v-5.7h-1.2V359h1.2v-3.1H120.15z"/>
		<path class="st1" d="M123.75,360.7c0.4-0.6,0.9-1.1,1.5-1.4c0.7-0.3,1.4-0.5,2.2-0.5c0.8,0,1.6,0.2,2.2,0.5
			c0.6,0.3,1.1,0.8,1.5,1.4c0.4,0.6,0.5,1.3,0.5,2c0,0.8-0.2,1.4-0.5,2.1s-0.8,1.1-1.5,1.4c-0.6,0.3-1.4,0.5-2.2,0.5
			s-1.6-0.2-2.2-0.5c-0.6-0.3-1.1-0.8-1.5-1.4c-0.4-0.6-0.5-1.3-0.5-2.1C123.25,362,123.45,361.3,123.75,360.7z M126.15,364.2
			c0.3,0.4,0.8,0.6,1.3,0.6c0.5,0,1-0.2,1.3-0.6c0.3-0.4,0.5-0.9,0.5-1.5c0-0.6-0.2-1.1-0.5-1.5c-0.3-0.4-0.8-0.6-1.3-0.6
			s-1,0.2-1.3,0.6c-0.3,0.4-0.5,0.9-0.5,1.5C125.65,363.3,125.85,363.8,126.15,364.2z"/>
		<path class="st1" d="M146.85,364.2v2.4h-8.1l0.9-0.9c1.1-1.1,1.9-2,2.5-2.6c0.6-0.6,1.1-1.3,1.5-2c0.4-0.7,0.6-1.3,0.6-1.9
			c0-0.5-0.2-0.9-0.5-1.1s-0.7-0.4-1.3-0.4c-0.5,0-0.9,0.1-1.2,0.4c-0.3,0.3-0.4,0.6-0.4,0.9c0,0.7,0.2,1.2,0.7,1.7l-1.5,1.4
			c-0.3-0.1-0.6-0.4-0.8-0.8c-0.2-0.4-0.4-0.8-0.5-1.2s-0.2-0.8-0.2-1.1c0-0.6,0.2-1.2,0.5-1.8c0.3-0.6,0.9-1,1.5-1.4
			c0.7-0.4,1.5-0.5,2.4-0.5c0.7,0,1.4,0.2,2,0.5c0.6,0.3,1,0.8,1.4,1.4c0.3,0.6,0.5,1.2,0.5,1.8s-0.1,1.2-0.3,1.8
			c-0.2,0.6-0.5,1.1-0.9,1.6s-0.8,1.1-1.4,1.9L146.85,364.2L146.85,364.2z"/>
		<path class="st1" d="M150.65,365.9c-0.7-0.4-1.3-1.1-1.7-1.9c-0.4-0.9-0.6-1.9-0.6-3.2c0-3.8,1.6-5.7,4.7-5.7
			c0.9,0,1.7,0.2,2.4,0.6c0.7,0.4,1.3,1.1,1.7,1.9c0.4,0.9,0.6,1.9,0.6,3.2c0,1.3-0.2,2.4-0.6,3.2c-0.4,0.9-1,1.5-1.7,1.9
			s-1.5,0.6-2.4,0.6C152.15,366.6,151.35,366.4,150.65,365.9z M154.75,363.3c0.3-0.6,0.5-1.4,0.5-2.5c0-2.2-0.7-3.3-2.2-3.3
			c-0.8,0-1.3,0.3-1.7,0.9c-0.3,0.6-0.5,1.4-0.5,2.4s0.2,1.9,0.5,2.5c0.3,0.6,0.9,0.9,1.7,0.9
			C153.85,364.2,154.45,363.9,154.75,363.3z"/>
		<path class="st1" d="M159.65,360.7c-0.5-0.6-0.7-1.4-0.7-2.3c0-1,0.2-1.7,0.7-2.3c0.5-0.6,1.1-0.9,2-0.9s1.6,0.3,2,0.9
			c0.5,0.6,0.7,1.4,0.7,2.3c0,1-0.2,1.7-0.7,2.3c-0.5,0.6-1.1,0.9-2,0.9C160.85,361.6,160.15,361.3,159.65,360.7z M162.55,366.6
			h-2.3l8.2-11.4h2.4L162.55,366.6z M161.25,359.5c0.1,0.3,0.3,0.4,0.5,0.4s0.4-0.1,0.5-0.4s0.1-0.7,0.1-1.2c0-0.6,0-0.9-0.1-1.2
			s-0.3-0.3-0.5-0.3c-0.3,0-0.4,0.1-0.5,0.3s-0.1,0.6-0.1,1.2C161.05,358.8,161.15,359.2,161.25,359.5z M166.85,366.1
			c-0.5-0.6-0.7-1.4-0.7-2.3s0.2-1.7,0.7-2.3c0.5-0.6,1.1-0.9,2-0.9s1.6,0.3,2,0.9c0.5,0.6,0.7,1.4,0.7,2.3c0,1-0.2,1.7-0.7,2.3
			c-0.5,0.6-1.1,0.9-2,0.9C167.95,367,167.25,366.7,166.85,366.1z M168.35,365c0.1,0.3,0.3,0.4,0.5,0.4s0.4-0.1,0.5-0.4
			s0.1-0.7,0.1-1.2c0-0.6,0-0.9-0.1-1.2s-0.3-0.3-0.5-0.3c-0.3,0-0.4,0.1-0.5,0.3s-0.1,0.6-0.1,1.2
			C168.15,364.3,168.25,364.7,168.35,365z"/>
		<path class="st1" d="M179.45,357.1c0.6-1,1.3-1.8,2.3-2.4c1-0.6,2-0.9,3.2-0.9s2.2,0.3,3.2,0.9c1,0.6,1.8,1.4,2.3,2.4
			c0.6,1,0.9,2,0.9,3.2s-0.3,2.2-0.9,3.2c-0.6,1-1.4,1.7-2.3,2.3s-2,0.9-3.2,0.9s-2.2-0.3-3.2-0.9c-1-0.6-1.7-1.3-2.3-2.3
			s-0.9-2-0.9-3.2C178.55,359.2,178.85,358.1,179.45,357.1z M181.65,362.3c0.3,0.6,0.8,1.1,1.4,1.5c0.6,0.4,1.3,0.5,2,0.5
			s1.3-0.2,1.9-0.5c0.6-0.4,1-0.8,1.4-1.4s0.5-1.3,0.5-2s-0.2-1.4-0.5-2s-0.8-1.1-1.4-1.5c-0.6-0.4-1.2-0.5-1.9-0.5
			s-1.4,0.2-1.9,0.5c-0.6,0.4-1,0.8-1.4,1.5c-0.3,0.6-0.5,1.3-0.5,2C181.15,361,181.25,361.7,181.65,362.3z"/>
		<path class="st1" d="M201.65,354v2.4h-5.4v2.8h4.6v2.4h-4.6v4.9h-2.5V354H201.65L201.65,354z"/>
		<path class="st1" d="M211.85,354v2.4h-5.4v2.8h4.6v2.4h-4.6v4.9h-2.4V354H211.85L211.85,354z"/>
	</g>
</g>
</svg>
