<?xml version="1.0" encoding="utf-8"?>
<!-- Generator: Adobe Illustrator 26.0.3, SVG Export Plug-In . SVG Version: 6.00 Build 0)  -->
<svg version="1.1" id="Layer_1" xmlns="http://www.w3.org/2000/svg" xmlns:xlink="http://www.w3.org/1999/xlink" x="0px" y="0px"
	 viewBox="0 0 970 250" style="enable-background:new 0 0 970 250;" xml:space="preserve">
<style type="text/css">
	.st0{fill:#CEFFFF;}
</style>
<g>
	<path class="st0" d="M188.4,53.6h-13.9v-8.9h37.8v8.9h-13.8v38.6h-10.2V53.6z"/>
	<path class="st0" d="M227.3,57c10.2,0,17.2,7.7,17.2,18.9v2H219c0.6,4.3,4.1,8,9.9,8c3.4,0,6.6-1.2,9.2-3.4l4,5.8
		c-3.4,3.1-8.8,4.8-14.2,4.8c-10.5,0-18.4-7-18.4-18.1C209.5,65,216.9,57,227.3,57z M218.9,71.8h16.9c-0.2-3.3-2.5-7.6-8.5-7.6
		C221.7,64.2,219.3,68.4,218.9,71.8L218.9,71.8z"/>
	<path class="st0" d="M299.7,84h-21.2l-3,8.2h-11.1l18.4-47.5h12.7l18.3,47.5h-11L299.7,84z M281.2,75.2H297l-7.9-21.8L281.2,75.2z"
		/>
	<path class="st0" d="M341.1,71.4c0-4.8-2.5-6.4-6.3-6.4c-3.1,0-6,1.5-7.8,4v23.2h-9V57.8h9v4.5c3-3.4,7.4-5.4,12-5.3
		c7.5,0,11.2,4.3,11.2,10.9v24.2h-9L341.1,71.4z"/>
	<path class="st0" d="M379.8,88.6c-2.4,2.8-6.4,4.4-10.9,4.4c-5.5,0-12-3.7-12-11.4c0-8,6.5-11,12-11c4.5,0,8.6,1.4,10.9,4.2v-4.7
		c0-3.5-3-5.8-7.5-5.8c-3.7,0-7.3,1.4-10,4l-3.4-6c4.2-3.6,9.5-5.5,15-5.4c7.8,0,15,3.1,15,13v22.2h-9L379.8,88.6z M379.8,79.6
		c-1.5-2-4.3-3-7.2-3c-3.6,0-6.5,1.8-6.5,5.2s2.9,5,6.5,5c2.9,0,5.8-1,7.2-3V79.6z"/>
	<path class="st0" d="M421,87.9c-3.1,3.4-7.5,5.3-12.1,5.2c-7.5,0-11.1-4.1-11.1-10.8V57.8h9v20.8c0,4.8,2.5,6.3,6.3,6.3
		c3.1,0,6-1.5,7.9-3.9V57.8h9v34.4h-9V87.9z"/>
	<path class="st0" d="M468.3,53.6h-13.9v-8.9h37.8v8.9h-13.8v38.6h-10.2V53.6z"/>
	<path class="st0" d="M497.6,47.4c0-3,2.4-5.4,5.4-5.4s5.4,2.4,5.4,5.4c0,3-2.4,5.4-5.4,5.4C500.1,52.8,497.7,50.4,497.6,47.4z
		 M498.6,57.8h9v34.4h-9V57.8z"/>
	<path class="st0" d="M559.2,70.5c0-3.2-1.4-5.5-5.1-5.5c-2.8,0.1-5.5,1.6-7.1,4v23.2h-9.1V70.5c0-3.2-1.4-5.5-5.1-5.5
		c-2.9,0.2-5.5,1.6-7.1,4v23.2h-9V57.8h9v4.5c1.4-2.1,6-5.3,11.2-5.3c5,0,8.2,2.3,9.5,6.3c2.7-3.9,7.1-6.2,11.8-6.2
		c6.3,0,10.1,3.3,10.1,10.4v24.8h-9.1V70.5z"/>
	<path class="st0" d="M592.8,57C603,57,610,64.7,610,75.9v2h-25.6c0.6,4.3,4,8,9.9,8c3.4,0,6.6-1.2,9.2-3.4l4,5.8
		c-3.4,3.1-8.8,4.8-14.2,4.8C582.9,93.1,575,86,575,75C575,65,582.3,57,592.8,57z M584.3,71.8h16.9c-0.2-3.3-2.5-7.6-8.5-7.6
		C587.1,64.2,584.7,68.4,584.3,71.8z"/>
	<path class="st0" d="M620.9,81.5c3.2,0,5.8,2.6,5.8,5.8S624,93,620.9,93c-3.2,0-5.8-2.6-5.8-5.8C615.1,84.1,617.7,81.5,620.9,81.5z
		"/>
</g>
</svg>
