<?xml version="1.0" encoding="utf-8"?>
<!-- Generator: Adobe Illustrator 26.0.3, SVG Export Plug-In . SVG Version: 6.00 Build 0)  -->
<svg version="1.1" id="Layer_1" xmlns="http://www.w3.org/2000/svg" xmlns:xlink="http://www.w3.org/1999/xlink" x="0px" y="0px"
	 viewBox="0 0 970 250" style="enable-background:new 0 0 970 250;" xml:space="preserve">
<style type="text/css">
	.st0{fill:#FFFFFF;}
	.st1{clip-path:url(#SVGID_00000109714866139678651920000006640227459983921545_);}
</style>
<g>
	<path class="st0" d="M834.7,187.8v-17.5h11.7v2.3h-9.1v5.1h8.9v2.3h-8.9v7.8L834.7,187.8z"/>
	<path class="st0" d="M848.9,171.6c0-0.8,0.7-1.5,1.5-1.5c0.8,0,1.5,0.7,1.5,1.5c0,0,0,0,0,0c0,0.8-0.7,1.5-1.5,1.5c0,0,0,0,0,0
		C849.6,173.1,848.9,172.4,848.9,171.6z M849.2,187.8v-12.6h2.3v12.6H849.2z"/>
	<path class="st0" d="M855.4,184.5c1.1,1.1,2.7,1.8,4.2,1.8c1.8,0,2.7-0.7,2.7-1.8c0-1.2-1.4-1.7-3.1-2c-2.2-0.5-4.7-1.1-4.7-3.8
		c0-2,1.7-3.7,4.8-3.7c1.8-0.1,3.5,0.6,4.8,1.8l-1,1.6c-1-1-2.3-1.6-3.7-1.6c-1.6,0-2.6,0.6-2.6,1.6s1.4,1.5,2.9,1.8
		c2.2,0.5,4.8,1.1,4.8,4c0,2.2-1.8,3.9-5.1,3.9c-2,0.1-3.9-0.6-5.3-2L855.4,184.5z"/>
	<path class="st0" d="M876.1,187.8v-8.1c0-2.1-1.1-2.7-2.7-2.7c-1.4,0-2.7,0.7-3.5,1.8v9h-2.4v-17.4h2.4v6.6
		c1.1-1.3,2.8-2.1,4.5-2.1c2.7,0,4.1,1.4,4.1,4v8.9H876.1z"/>
	<path class="st0" d="M884.6,175.2v13.6c0,2.6-1.4,4.1-4,4.1c-0.5,0-1,0-1.4-0.1l0.3-2c0.3,0.1,0.6,0.1,0.9,0.1
		c1.1,0,1.9-0.6,1.9-2.1v-13.6H884.6z M881.9,171.6c0-0.8,0.7-1.5,1.5-1.5c0.8,0,1.5,0.7,1.5,1.5c0,0,0,0,0,0c0,0.8-0.7,1.5-1.5,1.5
		c0,0,0,0,0,0C882.6,173.1,881.9,172.4,881.9,171.6L881.9,171.6z"/>
	<path class="st0" d="M893.9,174.9c3.8,0,6.2,3,6.2,6.8v0.6h-10c0.1,2.3,2,4,4.3,3.9c1.4,0,2.7-0.5,3.8-1.5l1.1,1.6
		c-1.4,1.3-3.2,2-5.1,1.9c-3.7,0.1-6.7-2.9-6.7-6.5S890.2,174.9,893.9,174.9L893.9,174.9z M890,180.6h7.7c0-2.1-1.6-3.8-3.7-3.8
		c0,0-0.1,0-0.1,0C891.8,176.8,890.1,178.5,890,180.6z"/>
	<path class="st0" d="M903.5,185v-7.8h-2.1v-2.1h2.1v-3.4h2.3v3.4h2.6v2.1h-2.6v7.3c0,0.9,0.4,1.5,1.2,1.5c0.5,0,0.9-0.2,1.3-0.5
		l0.6,1.8c-0.7,0.6-1.6,0.9-2.5,0.8C904.5,188.2,903.5,187,903.5,185z"/>
	<path class="st0" d="M847,211.6l-9.7-13.4v13.4h-2.6v-17.5h2.7l9.5,13.1v-13.1h2.6v17.5H847z"/>
	<path class="st0" d="M852.7,211.6v-2.1l9.4-13h-9.4v-2.3h12.8v2.1l-9.4,13h9.6v2.3H852.7z"/>
	<g>
		<defs>
			<rect id="SVGID_1_" width="970" height="250"/>
		</defs>
		<clipPath id="SVGID_00000109750037465188697050000001203799913663735976_">
			<use xlink:href="#SVGID_1_"  style="overflow:visible;"/>
		</clipPath>
		<g style="clip-path:url(#SVGID_00000109750037465188697050000001203799913663735976_);">
			<path class="st0" d="M811.2,191.9c-4.7,6.5-9.3,13-14,19.5l-0.2,0.2c-0.3,0.4-0.6,0.4-0.9,0c-1-1.4-2-2.8-3-4.2
				c-3.5-4.9-7.1-9.9-10.7-14.8c-1.6-2.1-2.8-4.6-3.5-7.1c-0.3-1.4-0.5-2.8-0.5-4.2c-0.1-10.1,8-18.3,18.1-18.4
				c9-0.1,16.7,6.3,18.2,15.2C815.4,183,814.2,188,811.2,191.9 M815.8,177.2c-1.8-8.9-9.4-15.4-18.5-15.8
				c-10.9-0.4-20,8.2-20.4,19.1c0,0.9,0,1.8,0.1,2.7c0.4,3.5,1.7,6.9,3.9,9.7c5,6.8,9.9,13.7,14.9,20.5c0.5,0.7,1,0.7,1.5,0
				c1.5-2,2.9-4,4.3-5.9c3.7-5.1,7.5-10.2,11.1-15.4c2.3-3.3,3.5-7.1,3.5-11.1C816,179.8,816,178.5,815.8,177.2"/>
			<path class="st0" d="M796.5,193.2c-6.7,0-12.1-5.4-12.1-12.1c0-6.7,5.4-12.1,12.1-12.1c6.7,0,12.1,5.4,12.1,12.1c0,0,0,0,0,0.1
				C808.6,187.8,803.1,193.2,796.5,193.2 M814.5,178.1c-1.7-9.9-11.1-16.6-21.1-14.9c-8.8,1.5-15.3,9.2-15.2,18.2
				c0,1.4,0.2,2.8,0.5,4.2c0.7,2.6,1.9,5,3.5,7.1c3.6,4.9,7.1,9.9,10.7,14.8c1,1.4,2,2.8,3,4.2c0.3,0.4,0.6,0.4,0.9,0l0.2-0.2
				c4.7-6.5,9.3-13,14-19.5C814.1,187.9,815.3,182.9,814.5,178.1"/>
			<path class="st0" d="M796.5,191.8c-5.9,0-10.8-4.8-10.8-10.8s4.8-10.8,10.8-10.8s10.8,4.8,10.8,10.8c0,0,0,0,0,0
				C807.3,187,802.5,191.8,796.5,191.8 M796.5,169c-6.7,0-12.1,5.4-12.1,12.1c0,6.7,5.4,12.1,12.1,12.1c6.7,0,12.1-5.4,12.1-12
				C808.6,174.5,803.2,169,796.5,169"/>
		</g>
	</g>
</g>
</svg>
