<?xml version="1.0" encoding="utf-8"?>
<!-- Generator: Adobe Illustrator 26.0.3, SVG Export Plug-In . SVG Version: 6.00 Build 0)  -->
<svg version="1.1" id="Layer_1" xmlns="http://www.w3.org/2000/svg" xmlns:xlink="http://www.w3.org/1999/xlink" x="0px" y="0px"
	 viewBox="0 0 970 250" style="enable-background:new 0 0 970 250;" xml:space="preserve">
<style type="text/css">
	.st0{fill:#FFFFFF;}
	.st1{clip-path:url(#SVGID_00000094617600930294722820000017858973515017025674_);}
</style>
<g>
	<path class="st0" d="M641.3,187.8v-15.2h-5.4v-2.3h13.4v2.3h-5.4v15.2H641.3z"/>
	<path class="st0" d="M654.7,174.9c3.8,0,6.2,3,6.2,6.8v0.6h-10c0.1,2.3,2,4,4.3,3.9c1.4,0,2.7-0.5,3.8-1.5l1.1,1.6
		c-1.4,1.3-3.2,2-5.1,1.9c-3.7,0.1-6.7-2.9-6.7-6.5S651,174.9,654.7,174.9L654.7,174.9z M650.8,180.6h7.7c0-2.1-1.6-3.8-3.7-3.8
		c0,0-0.1,0-0.1,0C652.5,176.8,650.8,178.5,650.8,180.6L650.8,180.6z"/>
	<path class="st0" d="M683,187.8l-1.4-3.6H673l-1.4,3.6h-2.9l6.9-17.5h3.3l6.9,17.5H683z M677.3,172.6l-3.5,9.2h7L677.3,172.6z"/>
	<path class="st0" d="M696.5,187.8v-8.1c0-2.1-1.1-2.8-2.7-2.8c-1.4,0-2.7,0.7-3.5,1.8v9H688v-12.6h2.4v1.8c1.1-1.3,2.8-2.1,4.5-2.1
		c2.7,0,4.1,1.4,4.1,4.1v8.9L696.5,187.8z"/>
	<path class="st0" d="M710.4,187.8v-1.4c-1.1,1.1-2.6,1.8-4.1,1.7c-2.3,0.1-4.3-1.7-4.4-4c0-0.1,0-0.1,0-0.2c0-2.9,2.3-4.1,4.4-4.1
		c1.6-0.1,3.1,0.5,4.1,1.7v-2.1c0-1.6-1.3-2.5-3.1-2.5c-1.4,0-2.8,0.6-3.8,1.7l-1-1.6c1.4-1.4,3.2-2.1,5.2-2.1
		c2.8,0,5.1,1.2,5.1,4.4v8.5H710.4z M710.4,182.9c-0.8-1-2-1.5-3.2-1.4c-1.4-0.2-2.7,0.7-2.9,2.1c-0.2,1.4,0.7,2.7,2.1,2.9
		c0.3,0.1,0.6,0.1,0.9,0c1.2,0.1,2.5-0.5,3.2-1.4V182.9z"/>
	<path class="st0" d="M725.1,187.8v-1.7c-1.2,1.3-2.8,2-4.5,2c-2.7,0-4-1.4-4-4v-8.9h2.4v8.1c0,2.1,1,2.7,2.7,2.7
		c1.4,0,2.7-0.7,3.5-1.8v-9.1h2.4v12.6L725.1,187.8z"/>
	<path class="st0" d="M645.3,193.9c2.7-0.1,5.3,1.2,6.9,3.5l-2.1,1.2c-1.1-1.5-2.9-2.4-4.8-2.4c-3.6,0-6.4,2.8-6.4,6.7
		s2.7,6.7,6.4,6.7c1.6,0,3.2-0.6,4.4-1.7v-3.1h-5.6v-2.3h8.2v6.4c-1.8,2-4.3,3.1-7,3.1c-5,0-9-4.1-9-9.1S640.4,193.9,645.3,193.9
		L645.3,193.9z"/>
	<path class="st0" d="M655.7,211.6v-17.5h2.3v17.5H655.7z"/>
	<path class="st0" d="M661,205.3c-0.2-3.5,2.5-6.4,5.9-6.6c0.2,0,0.3,0,0.5,0c4,0,6.4,3,6.4,6.6s-2.4,6.6-6.4,6.6
		S661,208.9,661,205.3z M671.3,205.3c0-2.4-1.4-4.5-3.9-4.5s-3.9,2.1-3.9,4.5s1.4,4.6,3.9,4.6S671.3,207.7,671.3,205.3L671.3,205.3z
		"/>
	<path class="st0" d="M687.7,211.6l-3.1-9.7l-3.1,9.7H679l-4-12.6h2.5l2.9,9.6l3.2-9.6h2l3.2,9.6l2.9-9.6h2.5l-4,12.6L687.7,211.6z"
		/>
	<path class="st0" d="M707.1,211.6l-3.1-9.7l-3.1,9.7h-2.4l-4-12.6h2.5l2.9,9.6l3.1-9.6h2l3.2,9.6l2.9-9.6h2.5l-4,12.6L707.1,211.6z
		"/>
	<path class="st0" d="M714.8,205.3c-0.2-3.5,2.5-6.4,5.9-6.6c0.2,0,0.3,0,0.5,0c4,0,6.4,3,6.4,6.6s-2.4,6.6-6.4,6.6
		S714.8,208.9,714.8,205.3z M725.2,205.3c0-2.4-1.4-4.5-3.9-4.5s-3.9,2.1-3.9,4.5s1.4,4.6,3.9,4.6S725.2,207.7,725.2,205.3z"/>
	<path class="st0" d="M730.6,211.6V199h2.3v1.9c1-1.3,2.5-2.2,4.1-2.2v2.4c-0.3-0.1-0.5-0.1-0.8-0.1c-1.3,0.1-2.5,0.8-3.3,1.8v8.8
		L730.6,211.6z"/>
	<path class="st0" d="M754.8,211.6v-8.4c0-1.5-0.7-2.4-2.2-2.4c-1.3,0.1-2.4,0.7-3.1,1.8v9.1h-2.3v-8.4c0-1.5-0.6-2.4-2.2-2.4
		c-1.3,0.1-2.4,0.8-3.1,1.8v9h-2.4V199h2.4v1.8c1-1.3,2.5-2,4.1-2.1c1.6-0.1,3,0.8,3.4,2.4c1-1.4,2.5-2.3,4.3-2.4
		c2.3,0,3.6,1.3,3.6,3.8v9.1L754.8,211.6z"/>
	<path class="st0" d="M760.9,208.2c1.1,1.1,2.6,1.8,4.2,1.8c1.8,0,2.7-0.7,2.7-1.8c0-1.3-1.4-1.7-3.1-2c-2.2-0.5-4.7-1.1-4.7-3.8
		c0-2,1.7-3.7,4.8-3.7c1.8-0.1,3.5,0.6,4.8,1.8l-1,1.6c-1-1-2.3-1.6-3.8-1.5c-1.6,0-2.6,0.6-2.6,1.6s1.4,1.5,2.9,1.8
		c2.2,0.5,4.8,1.1,4.8,4c0,2.2-1.8,3.9-5.1,3.9c-2,0.1-3.9-0.6-5.3-2L760.9,208.2z"/>
	<g>
		<defs>
			<rect id="SVGID_1_" width="970" height="250"/>
		</defs>
		<clipPath id="SVGID_00000144308696343105540630000002063202024374255003_">
			<use xlink:href="#SVGID_1_"  style="overflow:visible;"/>
		</clipPath>
		<g style="clip-path:url(#SVGID_00000144308696343105540630000002063202024374255003_);">
			<path class="st0" d="M613.5,191.9c-4.7,6.5-9.3,13-14,19.5l-0.2,0.2c-0.3,0.4-0.6,0.4-0.9,0c-1-1.4-2-2.8-3-4.2
				c-3.5-4.9-7.1-9.9-10.7-14.8c-1.6-2.1-2.8-4.6-3.5-7.1c-0.3-1.4-0.5-2.8-0.5-4.2c-0.1-9.1,6.5-16.9,15.5-18.3
				c9.8-1.5,19.1,5.2,20.7,15C617.7,182.9,616.5,187.9,613.5,191.9 M618,177.2c-1.8-8.9-9.4-15.4-18.5-15.8
				c-10.9-0.3-20,8.3-20.3,19.2c0,0.9,0,1.7,0.1,2.6c0.4,3.5,1.7,6.9,3.9,9.7c5,6.8,9.9,13.7,14.9,20.5c0.5,0.7,1,0.7,1.5,0
				c1.5-2,2.9-4,4.3-5.9c3.7-5.1,7.5-10.2,11.1-15.4c2.3-3.3,3.5-7.1,3.5-11.1C618.4,179.7,618.3,178.4,618,177.2"/>
			<path class="st0" d="M598.8,193.2c-6.7,0-12.1-5.4-12.1-12.1c0-6.7,5.4-12.1,12.1-12.1c6.7,0,12.1,5.4,12.1,12.1c0,0,0,0,0,0.1
				C610.9,187.8,605.4,193.2,598.8,193.2 M616.8,178.1c-1.7-9.8-10.9-16.5-20.7-15c-9,1.4-15.6,9.2-15.5,18.3c0,1.4,0.2,2.8,0.5,4.2
				c0.7,2.6,1.9,5,3.5,7.1c3.6,4.9,7.1,9.9,10.7,14.8c1,1.4,2,2.8,3,4.2c0.3,0.4,0.6,0.4,0.9,0l0.2-0.2c4.7-6.5,9.3-13,14-19.5
				C616.4,187.9,617.6,182.9,616.8,178.1"/>
			<path class="st0" d="M598.8,191.8c-5.9,0-10.8-4.8-10.8-10.8c0-5.9,4.8-10.8,10.8-10.8c5.9,0,10.8,4.8,10.8,10.8c0,0,0,0,0,0
				C609.6,187,604.7,191.8,598.8,191.8 M598.8,169c-6.7,0-12.1,5.4-12.1,12.1c0,6.7,5.4,12.1,12.1,12.1c6.7,0,12.1-5.4,12.1-12
				C610.9,174.5,605.5,169,598.8,169"/>
		</g>
	</g>
</g>
</svg>
