<svg xmlns="http://www.w3.org/2000/svg" viewBox="0 0 236 159.95"><defs><style>.cls-1{fill:#d68c4d;}.cls-2{fill:#eba661;}.cls-3{fill:#c76b30;}.cls-4{fill:#e8ba82;}.cls-5{fill:#f0ba82;}.cls-6{fill:#e59957;}.cls-7{fill:#d98240;}.cls-8{fill:#d68f54;}</style></defs><title>Asset 1</title><g id="Layer_2" data-name="Layer 2"><g id="Layer_1-2" data-name="Layer 1"><polygon class="cls-1" points="36.81 139.16 117.98 84.91 117.98 22.16 36.81 42.95 36.81 139.16"/><polygon class="cls-2" points="36.81 139.16 117.98 159.95 117.98 63.74 36.81 42.95 36.81 139.16"/><polygon class="cls-2" points="199.16 139.16 117.98 84.91 117.98 22.16 199.16 42.95 199.16 139.16"/><polygon class="cls-1" points="117.98 63.74 117.98 159.95 199.16 139.16 199.16 42.95 117.98 63.74"/><path class="cls-3" d="M199.16,43h0L199,43l.12.07ZM118.35,64.06l32.94,28,47.87-12.11V74.55L154.82,85.91Z"/><polygon class="cls-4" points="117.82 63.74 154.82 85.91 236 65.11 198.99 42.95 117.82 63.74"/><polygon class="cls-5" points="154.82 0 117.82 22.16 198.99 42.95 236 20.79 154.82 0"/><polygon class="cls-6" points="81.18 0 0 20.79 37 42.95 118.17 22.16 81.18 0"/><polygon class="cls-3" points="36.84 42.95 36.84 42.96 117.9 63.72 117.92 63.72 36.84 42.95"/><polygon class="cls-7" points="36.84 42.96 36.84 79.91 84.71 92.02 117.94 63.81 117.82 63.74 117.9 63.72 36.84 42.96"/><polygon class="cls-8" points="117.9 63.72 117.83 63.74 117.94 63.81 118.01 63.74 117.92 63.72 117.9 63.72"/><polygon class="cls-5" points="0 65.11 81.18 85.91 118.17 63.74 37 42.95 0 65.11"/></g></g></svg>