<svg xmlns="http://www.w3.org/2000/svg" viewBox="0 0 114.59 170.11"><defs><style>.cls-1{fill:#231f20;}</style></defs><title>t3-160</title><g id="Layer_2" data-name="Layer 2"><g id="Layer_1-2" data-name="Layer 1"><path class="cls-1" d="M27.16,21.05V17.5h2.95V11.81L24.4,3.56H21.83V0H32.36V3.56H30.29l3.09,5.13,3.14-5.13H34.35V0h9.27V3.56H41l-5.45,8.25V17.5h2.93v3.55Z"/><path class="cls-1" d="M45.45,21.05V17.5H48V3.56H45.45V0H64V6.67H60V3.56H53.45V8.42h5.27V12H53.45V17.5H60V14.35h4v6.7Z"/><path class="cls-1" d="M78.23,17.5v3.55H67.13V17.5h2.68V3.56H67.13V0h11.1a8.89,8.89,0,0,1,6,1.82,6.12,6.12,0,0,1,2.12,4.89,6.72,6.72,0,0,1-.75,3.18,5.7,5.7,0,0,1-1.89,2.2,7.28,7.28,0,0,1-2.65,1,20.52,20.52,0,0,1-3.74.28h-2V17.5ZM75.29,9.9h.82c1.88,0,3.08-.31,3.62-.92a3.31,3.31,0,0,0,.81-2.27,3.31,3.31,0,0,0-.56-2,2.27,2.27,0,0,0-1.28-1,10.33,10.33,0,0,0-2.38-.19h-1Z"/><path class="cls-1" d="M86.94,26.59V24.32c1.65-.17,2.48-1.17,2.48-3v-.28H86.94V16h5v4.71a9.72,9.72,0,0,1-.49,3.5A3.35,3.35,0,0,1,89.84,26,6.32,6.32,0,0,1,86.94,26.59Z"/><path class="cls-1" d="M29.51,58.25V54.7h2.95V49l-5.7-8.25H24.18V37.2H34.72v3.56H32.65l3.09,5.13,3.14-5.13H36.7V37.2H46v3.56H43.39L37.94,49V54.7h2.94v3.55Z"/><path class="cls-1" d="M58.7,36.87q5.44,0,8.58,3.14a11,11,0,0,1,0,15.36c-2.09,2.1-4.95,3.14-8.57,3.14S52,57.44,50,55.28a10.72,10.72,0,0,1-3-7.59A10.54,10.54,0,0,1,50.11,40C52.18,37.92,55.05,36.87,58.7,36.87Zm0,3.84a5.42,5.42,0,0,0-4.11,1.82,7.58,7.58,0,0,0-1.69,5.33,7.17,7.17,0,0,0,1.67,5,5.33,5.33,0,0,0,4.13,1.86,5.41,5.41,0,0,0,4.12-1.82,7.46,7.46,0,0,0,1.69-5.26,7.42,7.42,0,0,0-1.62-5A5.24,5.24,0,0,0,58.7,40.71Z"/><path class="cls-1" d="M72.19,40.76V37.2H82.25v3.56H80.17v9.52A16.24,16.24,0,0,0,80.33,53a2.31,2.31,0,0,0,.84,1.38A2.71,2.71,0,0,0,82.9,55a3,3,0,0,0,1.78-.52,2.26,2.26,0,0,0,.92-1.29A15.72,15.72,0,0,0,85.8,50V40.76h-2V37.2h8.39v3.56H89.57V51.29a14.68,14.68,0,0,1-.23,3.13,4.63,4.63,0,0,1-1,1.94,5.6,5.6,0,0,1-2.37,1.55,9.8,9.8,0,0,1-3.56.6,10.69,10.69,0,0,1-4-.66A5.41,5.41,0,0,1,76,56.11a5.57,5.57,0,0,1-1-2.17,20.28,20.28,0,0,1-.23-3.66V40.76Z"/><path class="cls-1" d="M34.83,91.9v3.56H28.41l-4.75-9.22H21.25V91.9h2.63v3.56h-11V91.9h2.89V78H12.88V74.4h12.7q3.59,0,5.17,1.81a6.08,6.08,0,0,1,1.58,4.09c0,2.4-1.22,4.14-3.65,5.24L32.1,91.9Zm-13.58-9h1.88q3.48,0,3.48-2.49a2.17,2.17,0,0,0-.8-1.83,3.51,3.51,0,0,0-2.18-.6H21.25Z"/><path class="cls-1" d="M36.67,95.46V91.9h2.52V78H36.67V74.4H55.22v6.68h-4V78H44.67v4.86h5.27v3.55H44.67V91.9H51.2V88.75h4v6.71Z"/><path class="cls-1" d="M78.86,91.9v3.56H68.5V91.9h2.7l-1-3.62H64.73L63.61,91.9h2.82v3.56H57.1V91.9h2.61L63.81,78H61V74.4H74.75V78H71.92L76.34,91.9Zm-9.52-6.71-1.76-6.34-1.89,6.34Z"/><path class="cls-1" d="M80.58,95.46V91.9h3.19V78H80.58V74.4h10a26.45,26.45,0,0,1,5.07.39A8.87,8.87,0,0,1,99.3,76.5a9.39,9.39,0,0,1,2.82,3.55,11.38,11.38,0,0,1,1,4.93,11.81,11.81,0,0,1-.74,4.19,9.85,9.85,0,0,1-1.84,3.21A8.15,8.15,0,0,1,98,94.31a10.84,10.84,0,0,1-2.81.93,26.51,26.51,0,0,1-4,.22Zm8.65-3.56h1.32a9.56,9.56,0,0,0,3.79-.62,4.8,4.8,0,0,0,2.25-2.19A8.51,8.51,0,0,0,97.44,85a8.93,8.93,0,0,0-.86-4.09,4.77,4.77,0,0,0-2.31-2.32A9.49,9.49,0,0,0,90.55,78H89.23Z"/><path class="cls-1" d="M19.25,132.66V129.1h3.17V115.16H19.25v4.9H15.63V111.6H34.72v8.46H31.15v-4.9H27.89V129.1h3.17v3.56Z"/><path class="cls-1" d="M37,132.66V129.1h2.63V115.16H37V111.6H47.19v3.56H45v4.61h5.73v-4.61H48.58V111.6h10.1v3.56H56V129.1h2.64v3.56H48.58V129.1h2.13v-5.75H45v5.75h2.21v3.56Z"/><path class="cls-1" d="M82.22,129.1v3.56H71.87V129.1h2.69l-1-3.62H68.1L67,129.1h2.81v3.56H60.47V129.1h2.6l4.11-13.94h-2.8V111.6H78.12v3.56H75.29l4.42,13.94Zm-9.52-6.71-1.76-6.34-1.89,6.34Z"/><path class="cls-1" d="M85.8,132.66V129.1H89V115.16H85.8v4.9H82.18V111.6h19.09v8.46H97.7v-4.9H94.44V129.1h3.17v3.56Z"/><path class="cls-1" d="M22,166.3v3.56H15.53l-4.75-9.22H8.37v5.66H11v3.56H0V166.3H2.89V152.36H0V148.8H12.7q3.59,0,5.17,1.81a6.08,6.08,0,0,1,1.58,4.09c0,2.4-1.22,4.14-3.65,5.24l3.42,6.36Zm-13.58-9h1.88q3.48,0,3.48-2.49a2.17,2.17,0,0,0-.8-1.83,3.53,3.53,0,0,0-2.18-.6H8.37Z"/><path class="cls-1" d="M23.62,169.86V166.3h3.2V152.36h-3.2V148.8h11.9v3.56H32.3V166.3h3.22v3.56Z"/><path class="cls-1" d="M51,162.79v-3.56h9.87a11.51,11.51,0,0,1-1.38,6.07,9.56,9.56,0,0,1-4,3.53,13.46,13.46,0,0,1-5.92,1.28q-5.71,0-8.76-3.06a10.52,10.52,0,0,1-3-7.76,10.92,10.92,0,0,1,1.51-5.77,9.81,9.81,0,0,1,4.07-3.78,12.3,12.3,0,0,1,5.56-1.27,9.7,9.7,0,0,1,6.6,2.06V148.8H59v7.48H55.44a5.21,5.21,0,0,0-2.23-3,6.37,6.37,0,0,0-3.57-1.09A5.84,5.84,0,0,0,45.36,154a6.69,6.69,0,0,0-1.77,4.93,7.66,7.66,0,0,0,1.8,5.49,5.82,5.82,0,0,0,4.39,1.88,5.17,5.17,0,0,0,3.16-.92,4.72,4.72,0,0,0,1.74-2.57Z"/><path class="cls-1" d="M63.27,169.86V166.3H65.9V152.36H63.27V148.8H73.44v3.56H71.23V157H77v-4.61H74.83V148.8h10.1v3.56H82.29V166.3h2.64v3.56H74.83V166.3H77v-5.75H71.23v5.75h2.21v3.56Z"/><path class="cls-1" d="M90.84,169.86V166.3H94V152.36H90.84v4.9H87.22V148.8h19.09v8.46h-3.57v-4.9H99.48V166.3h3.17v3.56Z"/><path class="cls-1" d="M109.53,169.86v-5.07h5.06v5.07Zm1.41-7.35-1.3-7.94V148.8h4.67v5.77l-1.19,7.94Z"/></g></g></svg>