<svg xmlns="http://www.w3.org/2000/svg" viewBox="0 0 134.99 10.59"><defs><style>.cls-1{fill:#ffede5;}</style></defs><title>stubbornfat</title><g id="Layer_2" data-name="Layer 2"><g id="Layer_1-2" data-name="Layer 1"><path class="cls-1" d="M6.32,2a.46.46,0,0,1-.18.22.41.41,0,0,1-.25.07.68.68,0,0,1-.32-.11l-.42-.25a3.05,3.05,0,0,0-.57-.24,2.18,2.18,0,0,0-.77-.12,2.39,2.39,0,0,0-.69.1,1.4,1.4,0,0,0-.5.27,1,1,0,0,0-.31.41,1.46,1.46,0,0,0-.1.52.89.89,0,0,0,.21.61A1.69,1.69,0,0,0,3,3.89a5.47,5.47,0,0,0,.76.3l.88.29a7.25,7.25,0,0,1,.87.36,3.43,3.43,0,0,1,.77.51,2.49,2.49,0,0,1,.54.76A2.77,2.77,0,0,1,7,7.21a3.58,3.58,0,0,1-.24,1.31A2.93,2.93,0,0,1,6,9.58a3.42,3.42,0,0,1-1.13.72,4.21,4.21,0,0,1-1.52.26,4.5,4.5,0,0,1-1-.1,5.73,5.73,0,0,1-.92-.27,5.8,5.8,0,0,1-.82-.43A4.72,4.72,0,0,1,0,9.2l.56-.92a.63.63,0,0,1,.19-.17A.48.48,0,0,1,1,8a.69.69,0,0,1,.39.15c.14.1.3.21.49.32a4.06,4.06,0,0,0,.66.33A2.53,2.53,0,0,0,3.45,9,1.87,1.87,0,0,0,4.72,8.6a1.41,1.41,0,0,0,.45-1.12A1.11,1.11,0,0,0,5,6.81a1.8,1.8,0,0,0-.54-.43,4.59,4.59,0,0,0-.77-.29l-.87-.27a7.81,7.81,0,0,1-.87-.34A2.85,2.85,0,0,1,1.16,5a2.22,2.22,0,0,1-.54-.81A3,3,0,0,1,.41,3a2.86,2.86,0,0,1,.23-1.1A2.91,2.91,0,0,1,1.3.91,3.3,3.3,0,0,1,2.36.25,3.76,3.76,0,0,1,3.79,0,4.88,4.88,0,0,1,5.48.29a3.7,3.7,0,0,1,1.31.8Z"/><path class="cls-1" d="M18.59.11V1.69H15.48v8.75H13.56V1.69H10.44V.11Z"/><path class="cls-1" d="M26.82,8.89a2.62,2.62,0,0,0,1-.18,2.2,2.2,0,0,0,.74-.52A2.45,2.45,0,0,0,29,7.37a3.54,3.54,0,0,0,.16-1.07V.11h1.92V6.3a4.71,4.71,0,0,1-.3,1.7,3.8,3.8,0,0,1-2.2,2.24,4.84,4.84,0,0,1-1.79.32A4.75,4.75,0,0,1,25,10.24,3.8,3.8,0,0,1,22.84,8a4.71,4.71,0,0,1-.3-1.7V.11h1.92V6.29a3.2,3.2,0,0,0,.17,1.07,2.19,2.19,0,0,0,.46.82,2.05,2.05,0,0,0,.73.53A2.66,2.66,0,0,0,26.82,8.89Z"/><path class="cls-1" d="M35.92,10.44V.11h3.57a6.69,6.69,0,0,1,1.73.2A3.31,3.31,0,0,1,42.4.86a2.15,2.15,0,0,1,.67.86,3,3,0,0,1,.22,1.14,2.28,2.28,0,0,1-.11.7,2,2,0,0,1-.33.62,2.29,2.29,0,0,1-.58.53,3.68,3.68,0,0,1-.82.4c1.42.32,2.13,1.08,2.13,2.3a2.85,2.85,0,0,1-.25,1.21,2.73,2.73,0,0,1-.73,1,3.41,3.41,0,0,1-1.18.63,5,5,0,0,1-1.6.23Zm1.92-5.85h1.54a2.52,2.52,0,0,0,1.48-.36,1.3,1.3,0,0,0,.51-1.14,1.33,1.33,0,0,0-.46-1.15,2.36,2.36,0,0,0-1.42-.34H37.84Zm0,1.32v3h1.95a2.6,2.6,0,0,0,.9-.13,1.56,1.56,0,0,0,.58-.34,1.24,1.24,0,0,0,.31-.5,1.74,1.74,0,0,0,.1-.61,1.64,1.64,0,0,0-.11-.6,1.15,1.15,0,0,0-.33-.46A1.81,1.81,0,0,0,40.65,6a3.56,3.56,0,0,0-.86-.1Z"/><path class="cls-1" d="M48.09,10.44V.11h3.56a6.63,6.63,0,0,1,1.73.2,3.31,3.31,0,0,1,1.18.55,2.17,2.17,0,0,1,.68.86,3,3,0,0,1,.21,1.14,2.28,2.28,0,0,1-.11.7,2,2,0,0,1-.33.62,2.42,2.42,0,0,1-.57.53,3.77,3.77,0,0,1-.83.4c1.42.32,2.13,1.08,2.13,2.3a2.85,2.85,0,0,1-.25,1.21,2.62,2.62,0,0,1-.73,1,3.45,3.45,0,0,1-1.17.63,5,5,0,0,1-1.6.23ZM50,4.59h1.53A2.58,2.58,0,0,0,53,4.23a1.3,1.3,0,0,0,.51-1.14,1.36,1.36,0,0,0-.46-1.15,2.39,2.39,0,0,0-1.43-.34H50Zm0,1.32v3h2a2.57,2.57,0,0,0,.89-.13,1.49,1.49,0,0,0,.58-.34,1.26,1.26,0,0,0,.32-.5,2,2,0,0,0,.09-.61,1.64,1.64,0,0,0-.1-.6,1.28,1.28,0,0,0-.34-.46A1.71,1.71,0,0,0,52.81,6a3.44,3.44,0,0,0-.86-.1Z"/><path class="cls-1" d="M70.16,5.28a5.72,5.72,0,0,1-.38,2.1,4.88,4.88,0,0,1-1.07,1.68,4.64,4.64,0,0,1-1.65,1.1,5.9,5.9,0,0,1-4.27,0,4.77,4.77,0,0,1-1.66-1.1,5,5,0,0,1-1.07-1.68,5.72,5.72,0,0,1-.37-2.1,5.72,5.72,0,0,1,.37-2.1A5,5,0,0,1,61.13,1.5,4.77,4.77,0,0,1,62.79.4a5.9,5.9,0,0,1,4.27,0,4.78,4.78,0,0,1,1.65,1.1,4.88,4.88,0,0,1,1.07,1.68A5.72,5.72,0,0,1,70.16,5.28Zm-2,0A4.83,4.83,0,0,0,68,3.75a3.18,3.18,0,0,0-.65-1.14,2.64,2.64,0,0,0-1-.72,3.47,3.47,0,0,0-1.36-.25,3.52,3.52,0,0,0-1.37.25,2.67,2.67,0,0,0-1,.72,3.18,3.18,0,0,0-.65,1.14,4.82,4.82,0,0,0-.23,1.53,4.76,4.76,0,0,0,.23,1.52A3.31,3.31,0,0,0,62.53,8a2.76,2.76,0,0,0,1,.71,3.52,3.52,0,0,0,1.37.25,3.47,3.47,0,0,0,1.36-.25,2.72,2.72,0,0,0,1-.71A3.31,3.31,0,0,0,68,6.8,4.77,4.77,0,0,0,68.18,5.28Z"/><path class="cls-1" d="M76.51,6.41v4H74.59V.11h3.15a6.73,6.73,0,0,1,1.81.22,3.51,3.51,0,0,1,1.24.61,2.47,2.47,0,0,1,.71.94,3.18,3.18,0,0,1,.22,1.21,3.19,3.19,0,0,1-.15,1,2.83,2.83,0,0,1-.45.84,2.84,2.84,0,0,1-.71.67,4,4,0,0,1-1,.46,1.76,1.76,0,0,1,.63.59l2.59,3.81H80.93a.83.83,0,0,1-.43-.1.86.86,0,0,1-.29-.28L78,6.75a.93.93,0,0,0-.27-.26.84.84,0,0,0-.43-.08Zm0-1.38h1.2a3,3,0,0,0,1-.14,1.75,1.75,0,0,0,.66-.37A1.39,1.39,0,0,0,79.71,4a1.88,1.88,0,0,0,.13-.72A1.45,1.45,0,0,0,79.32,2a2.47,2.47,0,0,0-1.58-.42H76.51Z"/><path class="cls-1" d="M88,.13a.42.42,0,0,1,.16,0,.51.51,0,0,1,.13.09l.14.16,5.42,6.91c0-.17,0-.33,0-.49s0-.31,0-.45V.11h1.7V10.44h-1a.82.82,0,0,1-.37-.07.87.87,0,0,1-.3-.26l-5.4-6.87a3.4,3.4,0,0,1,0,.45c0,.15,0,.29,0,.41v6.34h-1.7V.11h1Z"/><path class="cls-1" d="M112.45.26V1.79h-4.58V4.85h3.86V6.38h-3.86v4.21h-1.94V.26Z"/><path class="cls-1" d="M124.84,10.59h-1.49a.69.69,0,0,1-.41-.12.87.87,0,0,1-.23-.31l-.77-2.11h-4.28l-.77,2.11a.76.76,0,0,1-.23.3.61.61,0,0,1-.41.13h-1.49L118.82.26h2Zm-6.69-3.9h3.3l-1.26-3.43c-.06-.16-.12-.34-.19-.54s-.14-.44-.2-.68l-.2.68c-.06.21-.13.39-.19.55Z"/><path class="cls-1" d="M135,.26V1.84h-3.11v8.75H130V1.84h-3.12V.26Z"/></g></g></svg>