<svg xmlns="http://www.w3.org/2000/svg" viewBox="0 0 164 62.65"><defs><style>.cls-1{fill:#64656b;}.cls-2{fill:#9a8479;}.cls-3{fill:#a5714e;}</style></defs><title>logo-200</title><g id="Layer_2" data-name="Layer 2"><g id="Layer_1-2" data-name="Layer 1"><path class="cls-1" d="M64.34,58.61H62.16l-.68,1.66h-.32l2.36-5.77,2.37,5.77H65Zm-2.05-.32h1.92l-1-2.34Z"/><path class="cls-1" d="M72.41,55H70.68v5.31h-.82V55H68.14v-.32h4.27Z"/><path class="cls-1" d="M84.23,55H82.51v5.31h-.83V55H80v-.32h4.27Z"/><path class="cls-1" d="M92.27,60.27h-.83V57.55h-3v2.72h-.83V54.64h.83v2.6h3v-2.6h.83Z"/><path class="cls-1" d="M96.64,55v2.28H98.7v.31H96.64V60H99.1v.32H95.81V54.64H99.1V55Z"/><path class="cls-1" d="M107.74,57.79v2.48h-.83V54.64h1.52c1.12,0,2,.45,2,1.58s-.93,1.57-2,1.57Zm0-.32h.48c1,0,1.39-.42,1.39-1.25S109.2,55,108.22,55h-.48Z"/><path class="cls-1" d="M115.9,58.61h-2.17l-.68,1.66h-.33l2.37-5.77,2.36,5.77h-.87Zm-2.05-.32h1.93l-1-2.34Z"/><path class="cls-1" d="M121.81,57.79l3,2.48h-.48L121.57,58v2.29h-.83V54.64h1.58c1.12,0,2.06.45,2.06,1.58s-.94,1.57-2.06,1.57Zm.31-.32c1,0,1.38-.42,1.38-1.25S123.1,55,122.12,55h-.55v2.51Z"/><path class="cls-1" d="M128.73,57.89l2.52-3.25h.41L130,56.73l2.28,3.54h-1l-1.82-2.87-.79,1v1.85h-.83V54.64h.83Z"/><path class="cls-2" d="M108.48,37.57v0Z"/><path class="cls-2" d="M107.62,36.83h-.06l.07,0Z"/><path class="cls-3" d="M163.85,29.65C161.74,14.54,143.92,3.86,122,5.18c-14.07.85-25.94,9-36.17,15.74l-1.39.92c-1,.63-1.89,1.24-2.81,1.82-.55.36-1.1.7-1.65,1l-1.49.91c.43-1.14.89-2.28,1.39-3.4,1.08-2.45,1.84-3.68,2.27-3.68,0,0,.07,0,.14.1a2.06,2.06,0,0,1,.24,1.46A14.66,14.66,0,0,1,82,22.52c0,.18-.11.36-.16.54,1-.58,1.85-1.13,2.69-1.74.23-1.77.11-3.95-1.74-4.49a2,2,0,0,0-1.13,0,4.1,4.1,0,0,0-.56.24,4.33,4.33,0,0,0-.89.89A10.08,10.08,0,0,0,79,19.87a36.66,36.66,0,0,0-1.49,3.57c-.37,1-.75,2.13-1.12,3.37C75.13,27.46,74,28,72.8,28.53c-3.59,1.53-9.58,2.22-13.17.71C49.6,25,44.67,8.13,33,2.18,27.54-.57,22.27-.42,17.27,1A17.61,17.61,0,0,0,7.21,8.33c-2.48,3.9-5.88,11.69-.79,20a22.68,22.68,0,0,0,4.14,5.54l.88.91a20.5,20.5,0,0,0-4.53,2.39,16.06,16.06,0,0,0-6.52,10C-1.81,57.31,6,61.16,8,61.9a12.2,12.2,0,0,0,15.64-7.34c2.19-6.12.29-10.23-4.36-15.35h0l-.18-.2h0c-1.16-1.24-2.79-2.92-4.28-4.43a17.39,17.39,0,0,1,14.44,3.5,6.45,6.45,0,0,0-1.19,2.19,6.69,6.69,0,0,0-.08,4,4.2,4.2,0,0,0,.51,1.19,1,1,0,0,0,.11.17A3.44,3.44,0,0,0,29,46l.11.11v0a2.91,2.91,0,0,0,.88.61c2,1,4.63,0,6.06-2.26a6.25,6.25,0,0,0,.38-.72v0c1.24.8,4.78,3.16,11.74-5.71-.33,2.14-.67,4.24-1,6.3q-1.6,3.32-3,7a48.49,48.49,0,0,0-2,6.65c-.44,2-.39,3.25.13,3.8a1.4,1.4,0,0,0,1,.37.79.79,0,0,0,.44-.07c2-1.21,3.43-5.91,5.27-17.23a.43.43,0,0,1,0-.17c1-2.12,2-4.53,3.59-6.24,1.91-2,5.85-2.48,5.51.82a4.84,4.84,0,0,1-5.3,4.05l-.58.07a.91.91,0,0,0-.62.31.75.75,0,0,0-.2.61.91.91,0,0,0,.29.62c.16.15,11.08,7.19,21.55-4.44C72.71,43,72.35,45,72.3,45.6a.8.8,0,0,0,.58.92.78.78,0,0,0,1-.31c.82-1.2,4.07-5.38,6.71-5.8,1.06-.17,1.63.69,2.12,1.33.86,1.14,2.8,4.34,5.47,4.9,4.42.91,8.82-3.38,10.94-5.82a6,6,0,0,0,.53,4.53l.12.18a3.87,3.87,0,0,0,1.1,1c2.14,1.35,5.19.35,6.8-2.22a6.35,6.35,0,0,0,.41-.77v0c1.28.83,5.62,2.19,12-4.5a3.58,3.58,0,0,0,2.22.8,4.52,4.52,0,0,0,2.8-.74.61.61,0,0,1,.3-.11c.15,0,.19.08.14.19-.13.26-4,6,.39,7.61,2.69,1,5.72-.25,9-3.48A4.83,4.83,0,0,0,135.4,45a3.52,3.52,0,0,0,1.83,1.87c2.17.93,4.91-.62,6.13-3.46a7,7,0,0,0,.43-1.35s0-.06,0-.09a7.13,7.13,0,0,0,1.51,2.14h0c3.24,3.33,8.85,4.34,12.71,1.72C162.16,43,164.66,35.51,163.85,29.65ZM43.54,60.55c.41-2,2-9.13,3.41-11.64C46.83,52.32,45.34,57.89,43.54,60.55ZM14.86,38.48h0a32.31,32.31,0,0,1,5.61,8.32,9.27,9.27,0,0,1,.91,4.68A9.41,9.41,0,0,1,6.69,58.63C.38,54.28.58,47.16,3.68,42a15.16,15.16,0,0,1,8.41-6.53C13,36.5,14.1,37.65,14.86,38.48Zm20.76,1.59A3.81,3.81,0,0,1,35,41.61a1.57,1.57,0,0,1-.76-2.82.87.87,0,0,1,.85,0A1.15,1.15,0,0,1,35.62,40.07ZM73.5,38.9c-5.26,7-12.57,8.32-17.87,6.09,0,0,4.64-.86,5.29-4.53.8-4.48-4.57-8.48-10.81-1.08a.22.22,0,0,1-.23.1c-.08,0-.1-.09-.08-.21.16-1,.31-2,.44-2.94a.89.89,0,0,0-.34-.85.83.83,0,0,0-.9-.14.81.81,0,0,0-.53.72c-2.43,3.34-7,8.35-10.91,6.6-.17-.09-.31-.17-.43-.25a5.49,5.49,0,0,0-.05-4.28l0,0a1.56,1.56,0,0,0-.84-.73l-.07,0-.25-.08a2.68,2.68,0,0,0-3,3.56,2.8,2.8,0,0,0,1.19,1.74c.28.21.44.33-.25,1-1.82,1.87-6,1.06-4.4-3.47,1.27-3.64,4.34-2.55,4.52-3s-.21-.84-.93-.91a2.93,2.93,0,0,0-1.14.14,5.18,5.18,0,0,0-2,1.15A18,18,0,0,0,14.26,34l-.66-.67-.89-.91A17.83,17.83,0,0,1,9.79,11c3-4.52,7.71-8.23,13.27-8.61,12.42-.84,18.85,10.85,25.62,19.08,3.54,4.29,8,8.84,13.77,9.65,3.81.53,7.45-.07,13.53-3.1-.1.35-.2.7-.3,1.07C75.24,30.62,74.29,35,73.5,38.9Zm33.74.69a4.11,4.11,0,0,1-.68,1.65,1.64,1.64,0,0,1-1.15-.69,1.31,1.31,0,0,1-.37-.73,1.58,1.58,0,0,1,.59-1.56,1.07,1.07,0,0,1,1-.08A1.2,1.2,0,0,1,107.24,39.59Zm13.5-2.05a4.18,4.18,0,0,1,.26-2.42c.24-.36.49-.47.74-.34s.42.43.27.93A4.51,4.51,0,0,1,120.74,37.54Zm41.12-1.83c-.33,2.67-1.8,9.3-7.46,10.71-3.08.77-6.2-.75-8.35-3.23a6.54,6.54,0,0,1-1.56-3.61,2.86,2.86,0,0,0-.07-.36.64.64,0,0,0-.59-.59c-.35-.06-.56.17-.65.51a20.49,20.49,0,0,1-1.44,4.32c-1.19,2.36-3.32,1.5-4.22.24-1.52-2.12.4-8.56,6-7.22.9.22,1.17.19,1.23-.06.13-.52-.12-.9-1.11-1.07-2.2-.38-6.06.24-8.08,4.86-.11.25-.22.47-.29.68a8.27,8.27,0,0,0-.24,1v0c-2.95,4.35-7.2,5-8.7,2.44-.75-1.27.4-3.55,1.12-4.78.18-.36.31-.65.4-.87a1.76,1.76,0,0,0,.09-.75.93.93,0,0,0-.38-.72,1.36,1.36,0,0,0-.77-.29,1.83,1.83,0,0,0-.67.08,5.66,5.66,0,0,0-.66.35c-2.62,2.23-4.07,1.75-4.25.66,0,0,3.07-3.28,1.44-4.74-.45-.41-1.05-.41-1.82.05a3.85,3.85,0,0,0-1.35,1.82,4.25,4.25,0,0,0,.31,3.46c-2.79,2.71-6.84,5.37-10.44,3.74a3.51,3.51,0,0,1-.46-.27,5.9,5.9,0,0,0-.06-4.57s0,0,0,0a1.7,1.7,0,0,0-.9-.78l-.07,0-.27-.08a2.85,2.85,0,0,0-3.24,3.79,2.92,2.92,0,0,0,1.28,1.86c.29.22.46.35-.27,1.1-1.94,2-6.4,1.25-4.57-3.52,1.43-3.72,4.5-2.9,4.69-3.39s-.22-1-1-1c-1.93,0-3.85,1.75-4.83,4C97,42,92.68,45.74,88.9,45.19c-1.3-.19-2.38-1.39-3.47-2.67-2.12-2.47-2.15-4.18-4.2-4.64-3.5-.79-6.88,4.23-6.88,4.23s.53-1.94.85-3.62l.21-.31.07-.1L77,35.89c.45-.65,5.18-8.7,6.62-11.5-1,.61-2,1.16-2.87,1.67-2.23,5.76-5,9.27-5.08,9.22-.27-.16.59-3.08,1.38-5.61.27-.9.58-1.79.89-2.67.42-.22.85-.46,1.29-.71.59-.32,1.19-.66,1.82-1,.94-.55,1.93-1.13,3-1.77l1.61-1c2.77-1.72,5.9-3.72,9.48-6.08,6.22-4.09,20.81-13.71,40.72-8.67C164,14.88,162.05,34.12,161.86,35.71Z"/></g></g></svg>