<?xml version="1.0" encoding="utf-8"?>
<!-- Generator: Adobe Illustrator 24.0.2, SVG Export Plug-In . SVG Version: 6.00 Build 0)  -->
<svg version="1.1" id="Layer_1" xmlns="http://www.w3.org/2000/svg" xmlns:xlink="http://www.w3.org/1999/xlink" x="0px" y="0px"
	 viewBox="0 0 336 280" style="enable-background:new 0 0 336 280;" xml:space="preserve">
<style type="text/css">
	.st0{fill:#FFFFFF;}
</style>
<title>336 x 280 2</title>
<g>
	<g>
		<path class="st0" d="M124.2,55.9l4.3-1.2c0.3,1.3,1.5,2.3,2.9,2.2c1.6,0,2.6-0.7,2.6-1.8s-0.9-1.7-2.6-2.1l-1.8-0.4
			c-3.3-0.8-5.2-2.7-5.2-5.5c0-3.5,2.7-5.7,7.1-5.7c5.8,0,7,4,7,4l-4.3,1.4c-0.4-1.1-1.5-1.8-2.7-1.7c-1.4,0-2.3,0.6-2.3,1.7
			c0,1.3,0.9,1.7,2.7,2.1l1.9,0.5c3.2,0.7,5,2.7,5,5.5c0,3.6-2.9,5.9-7.4,5.9C125.1,60.7,124.2,55.9,124.2,55.9z"/>
		<path class="st0" d="M142.5,41.7h3.9l0.7,2.6c1.2-1.9,3.5-3,6.4-3c4.4,0,7.1,3,7.1,7.7v11.3h-4.9V50c0-2.7-1.3-4.1-3.7-4.1
			c-2.3-0.1-4.4,1.7-4.5,4c0,0.2,0,0.3,0,0.5v9.8h-4.9L142.5,41.7z"/>
		<path class="st0" d="M164.2,51c0-5.6,4.3-9.7,10.1-9.7s10.1,3.9,10.1,9.7c0,5.5-4.3,9.6-10.1,9.6S164.2,56.6,164.2,51z M179.4,51
			c0.2-2.7-1.8-4.9-4.5-5.1c-0.2,0-0.4,0-0.6,0c-2.8,0-5.1,2.3-5.1,5.1c0,2.8,2.3,5.1,5.1,5.1C177.1,56.1,179.4,53.8,179.4,51
			C179.4,51,179.4,51,179.4,51L179.4,51z"/>
		<path class="st0" d="M214.5,41.7l-6.4,18.5h-4.4L200.1,49l-0.3-1.7l-0.3,1.7l-3.3,11.2h-4.5l-6.6-18.5h5.2l3.5,11.3l0.4,2.2
			l0.3-2.2l3.3-11.3h4.1l3.3,11.3l0.3,2.2l0.4-2.2l3.4-11.3L214.5,41.7z"/>
		<path class="st0" d="M137.7,85.9h3.8l0.7,3.4c0.9-2.4,3.2-3.7,6.4-3.7c0.4,0,0.7,0,1.1,0.1l-0.3,5h-0.7c-4.3,0-6,1.8-6,6.7v7.1
			h-4.9L137.7,85.9z"/>
		<path class="st0" d="M167.8,93v11.4h-3.6l-0.7-2.4c-1.2,1.9-3.3,2.8-6.4,2.8c-4.3,0-6.7-2.2-6.7-5.9s2.6-5.7,7.2-5.7
			c1.8,0,3.7,0.3,5.4,0.9v-0.8c0-2.4-1.4-3.7-3.8-3.7c-1.8,0-3.5,0.5-5,1.5l-2.7-3.4c2.4-1.6,5.2-2.4,8-2.3
			C164.6,85.5,167.8,88.4,167.8,93z M163,97.6v-0.4c-1.3-0.4-2.6-0.7-3.9-0.7c-2.4,0-3.6,0.8-3.6,2.3s1.1,2.4,3.3,2.4
			C161.1,101.2,163,99.7,163,97.6z"/>
		<path class="st0" d="M172.1,80.1c0-1.7,1.3-3,3-3s3,1.3,3,3c0.1,1.6-1.2,2.9-2.8,3c-0.1,0-0.1,0-0.2,0c-1.6,0.1-2.9-1.1-3-2.7
			C172.1,80.3,172.1,80.2,172.1,80.1z M172.7,85.9h4.9v18.5h-4.9V85.9z"/>
		<path class="st0" d="M182.6,85.9h3.9l0.7,2.6c1.2-1.9,3.5-3,6.4-3c4.4,0,7.1,3,7.1,7.7v11.3h-4.9V94.2c0-2.7-1.3-4-3.7-4
			c-2.3-0.1-4.4,1.7-4.5,4c0,0.2,0,0.3,0,0.5v9.8h-4.9V85.9z"/>
		<path class="st0" d="M121.4,124.3c0-1.7,1.3-3,3-3s3,1.3,3,3c0,1.6-1.3,2.9-2.9,2.9c0,0-0.1,0-0.1,0c-1.6,0.1-2.9-1.1-3-2.7
			C121.4,124.5,121.4,124.4,121.4,124.3z M121.9,130.2h4.9v18.5h-4.9V130.2z"/>
		<path class="st0" d="M131.9,130.1h3.9l0.7,2.6c1.2-1.9,3.5-3,6.4-3c4.4,0,7.1,2.9,7.1,7.7v11.3H145v-10.2c0-2.7-1.3-4.1-3.7-4.1
			c-2.3-0.1-4.4,1.6-4.5,4c0,0.2,0,0.3,0,0.5v9.8h-4.9L131.9,130.1z"/>
		<path class="st0" d="M174.4,139.4c0,5.7-3.8,9.7-8.9,9.7c-2.5,0.1-4.8-1-6.3-3l-0.7,2.5h-3.7v-27.4h4.9v10.9
			c1.5-1.6,3.7-2.5,5.9-2.4C170.8,129.7,174.4,133.7,174.4,139.4z M169.4,139.4c0-3-1.8-5.1-4.7-5.1c-2.8-0.2-5.3,1.9-5.5,4.7
			s1.9,5.3,4.7,5.5c2.8,0.2,5.3-1.9,5.5-4.7C169.4,139.7,169.4,139.5,169.4,139.4z"/>
		<path class="st0" d="M177.3,139.4c0-5.6,4.3-9.6,10.1-9.6s10.1,3.9,10.1,9.6c0,5.5-4.3,9.6-10.1,9.6S177.3,145,177.3,139.4z
			 M192.5,139.4c0.2-2.7-1.8-4.9-4.5-5.1c-0.2,0-0.4,0-0.6,0c-2.8,0-5.1,2.3-5.1,5.1c0,2.8,2.3,5.1,5.1,5.1
			C190.2,144.5,192.5,142.3,192.5,139.4C192.5,139.4,192.5,139.4,192.5,139.4z"/>
		<path class="st0" d="M212.1,148.7l-4.1-5.8l-4.2,5.8h-5.9l7-9.4l-6.7-9.2h5.9l3.8,5.6l3.8-5.6h5.9l-6.7,9.2l7.1,9.4L212.1,148.7z"
			/>
	</g>
</g>
</svg>
