<?xml version="1.0" encoding="utf-8"?>
<!-- Generator: Adobe Illustrator 24.0.2, SVG Export Plug-In . SVG Version: 6.00 Build 0)  -->
<svg version="1.1" id="Layer_1" xmlns="http://www.w3.org/2000/svg" xmlns:xlink="http://www.w3.org/1999/xlink" x="0px" y="0px"
	 viewBox="0 0 336 280" style="enable-background:new 0 0 336 280;" xml:space="preserve">
<style type="text/css">
	.st0{fill:#323E60;}
	.st1{fill:#FFFFFF;}
	.st2{fill:#7BB6DE;}
	.st3{clip-path:url(#SVGID_2_);}
	.st4{clip-path:url(#SVGID_4_);}
	.st5{clip-path:url(#SVGID_6_);}
</style>
<rect class="st0" width="336" height="280"/>
<g>
	<path class="st1" d="M83.8,142.6h-5v12.6h-3v-12.6h-5v-2.7h13L83.8,142.6z"/>
	<path class="st1" d="M85.6,139.5h2.8v6.3c0.9-1,2.1-1.5,3.5-1.5c2.5,0,4.1,1.7,4.1,4.4v6.5h-2.8v-5.9c0-1.5-0.8-2.4-2.1-2.4
		c-1.4,0-2.6,1-2.6,2.4c0,0.1,0,0.1,0,0.2v5.6h-2.8V139.5z"/>
	<path class="st1" d="M108.9,150.8h-8c0.2,1.3,1.3,2.3,2.7,2.1c0.9,0.1,1.9-0.4,2.3-1.2l2.5,1.1c-1.6,2.6-5,3.5-7.7,1.9
		c-2.6-1.6-3.5-5-1.9-7.7c1-1.7,2.9-2.7,4.9-2.7c3.1,0,5.2,2.3,5.2,5.6C108.9,150.4,108.9,150.8,108.9,150.8z M106.2,148.7
		c-0.2-1.2-1.3-2.1-2.5-1.9c-1.3-0.1-2.4,0.7-2.7,1.9H106.2z"/>
	<path class="st1" d="M115.7,144.6h3l2,6.5l0.2,1.2l0.2-1.2l1.9-6.5h2.4l1.9,6.5l0.2,1.2l0.2-1.2l2.2-7.1c0.9-2.8,2.1-4,4.2-4.5
		l1,2.5c-1.4,0.4-2,1-2.6,2.7l-3.6,10.5h-2.6l-2-6.5l-0.2-1l-0.1,1l-1.9,6.5h-2.6L115.7,144.6z"/>
	<path class="st1" d="M132.9,149.9c0-3,2.4-5.5,5.5-5.5c0.1,0,0.2,0,0.3,0c3.4,0,5.8,2.3,5.8,5.5c-0.1,3.2-2.8,5.7-6,5.6
		C135.4,155.3,133,152.9,132.9,149.9z M141.6,149.9c0.1-1.5-1-2.8-2.6-2.9c-0.1,0-0.2,0-0.4,0c-1.6,0-2.9,1.3-2.9,2.9
		c0,1.6,1.3,2.9,2.9,2.9C140.3,152.8,141.6,151.5,141.6,149.9C141.6,149.9,141.6,149.9,141.6,149.9z"/>
	<path class="st1" d="M146.7,144.6h2.2l0.4,1.9c0.6-1.4,2.1-2.3,3.7-2.1c0.2,0,0.4,0,0.6,0.1l-0.2,2.9H153c-2.4,0-3.5,1-3.5,3.8v4.1
		h-2.8V144.6z"/>
	<path class="st1" d="M155.3,139.5h2.9v15.7h-2.8L155.3,139.5z"/>
	<path class="st1" d="M173,138.5c-1,0.3-1.6,1.3-1.4,2.3v14.5h-2.1l-0.4-1.5c-0.9,1.1-2.2,1.8-3.7,1.7c-3,0-5.1-2.3-5.1-5.5
		s2.2-5.6,5.1-5.6c1.2,0,2.5,0.4,3.3,1.4v-5.2c-0.2-2.1,1.2-4,3.3-4.5L173,138.5z M168.8,149.9c0.1-1.5-1.1-2.8-2.6-2.9
		c-0.1,0-0.1,0-0.2,0c-1.6,0.1-2.9,1.5-2.8,3.1c0.1,1.5,1.3,2.7,2.8,2.8c1.5,0,2.8-1.2,2.9-2.7C168.8,150,168.8,150,168.8,149.9z"/>
	<path class="st1" d="M179.4,149.9c0-3,2.4-5.5,5.4-5.5c0.1,0,0.2,0,0.3,0c2.1,0,4,1.1,4.9,3l-2.6,1c-0.4-0.8-1.3-1.3-2.2-1.4
		c-1.6,0.1-2.9,1.4-2.8,3c0.1,1.5,1.2,2.7,2.7,2.8c1.1,0.1,2-0.5,2.5-1.5l2.6,1c-1.4,2.8-4.8,3.9-7.5,2.5
		C180.7,153.9,179.5,152,179.4,149.9L179.4,149.9z"/>
	<path class="st1" d="M201.4,148.7v6.6h-2.1l-0.4-1.4c-0.7,1.1-1.9,1.6-3.7,1.6c-2.4,0-3.9-1.2-3.9-3.4s1.5-3.3,4.1-3.3
		c1,0,2.1,0.1,3.1,0.5v-0.4c0.1-1.1-0.7-2-1.8-2.1c-0.1,0-0.3,0-0.4,0c-1,0-2,0.3-2.9,0.8l-1.5-1.9c1.3-0.9,2.9-1.4,4.6-1.3
		C199.5,144.4,201.4,146,201.4,148.7z M198.6,151.3V151c-0.7-0.3-1.5-0.4-2.2-0.4c-1.4,0-2.1,0.4-2.1,1.4s0.6,1.4,1.9,1.4
		C197.4,153.4,198.4,152.6,198.6,151.3C198.6,151.3,198.6,151.3,198.6,151.3L198.6,151.3z"/>
	<path class="st1" d="M217.4,157.6v2.4c-0.3,0-0.6,0.1-0.9,0.1c-3.1,0-4.9-1.8-4.9-4.8v-5.9c0-1.5-0.8-2.3-2.1-2.3
		c-1.3-0.1-2.5,1-2.6,2.3c0,0.1,0,0.2,0,0.3v5.6h-2.8v-10.6h2.3l0.4,1.5c0.8-1.2,2.2-1.8,3.6-1.7c2.5,0,4.1,1.7,4.1,4.4v6.4
		c0,1.7,0.8,2.5,2.6,2.5H217.4z"/>
	<path class="st1" d="M221.8,144.6h3l2,6.5l0.2,1.2l0.2-1.2l1.9-6.5h2.4l1.9,6.5l0.2,1.2l0.2-1.2l2.2-7.1c0.9-2.8,2.1-4,4.2-4.5
		l1,2.5c-1.4,0.4-2,1-2.6,2.7l-3.6,10.5h-2.5l-2.1-6.5l-0.2-1l-0.1,1l-1.9,6.5h-2.6L221.8,144.6z"/>
	<path class="st1" d="M248.8,148.7v6.6h-2l-0.4-1.4c-0.7,1.1-1.9,1.6-3.7,1.6c-2.4,0-3.9-1.2-3.9-3.4s1.5-3.3,4.1-3.3
		c1.1,0,2.1,0.1,3.1,0.5v-0.4c0.1-1.1-0.8-2-1.9-2.1c-0.1,0-0.2,0-0.3,0c-1,0-2,0.3-2.9,0.8l-1.5-1.9c1.3-0.9,2.9-1.4,4.6-1.3
		C246.9,144.4,248.8,146,248.8,148.7z M246,151.3V151c-0.7-0.3-1.5-0.4-2.2-0.4c-1.4,0-2.1,0.4-2.1,1.4s0.6,1.4,1.9,1.4
		C244.8,153.4,245.9,152.6,246,151.3C246,151.3,246,151.3,246,151.3z"/>
	<path class="st1" d="M251.3,141.2c0-0.9,0.8-1.7,1.7-1.7s1.7,0.8,1.7,1.7c0,0.9-0.7,1.7-1.6,1.7c0,0-0.1,0-0.1,0
		c-0.9,0-1.7-0.7-1.7-1.6C251.3,141.3,251.3,141.3,251.3,141.2z M251.6,144.6h2.8v10.6h-2.8V144.6z"/>
	<path class="st1" d="M265.1,154.8c-0.9,0.5-2,0.7-3,0.7c-2.8,0-4.1-1.4-4.1-4.1V147h-1.9v-2.1c1.6-0.1,2.4-1.2,2.5-3.2h2.2v2.9h3.6
		v2.4h-3.6v4.1c0,1.3,0.4,1.8,1.6,1.8c0.6,0,1.3-0.2,1.8-0.6L265.1,154.8z"/>
</g>
<g>
	<path class="st2" d="M118.9,188.7h98.3c8.5,0,15.4,6.9,15.4,15.4l0,0c0,8.5-6.9,15.4-15.4,15.4h-98.3c-8.5,0-15.4-6.9-15.4-15.4
		l0,0C103.5,195.6,110.4,188.7,118.9,188.7z"/>
	<path class="st1" d="M141.9,205.7v1.6h-5.6v-8.6h1.6v7L141.9,205.7z"/>
	<path class="st1" d="M148.5,204.8h-4.5c0.1,0.7,0.8,1.3,1.5,1.2c0.5,0.1,1-0.2,1.3-0.7l1.4,0.6c-0.9,1.5-2.9,1.9-4.4,0.9
		c-0.9-0.6-1.4-1.6-1.4-2.6c0-1.7,1.3-3,2.9-3.1c0.1,0,0.1,0,0.2,0c1.6,0,2.9,1.2,2.9,2.8c0,0.1,0,0.2,0,0.3
		C148.6,204.6,148.5,204.8,148.5,204.8z M147,203.6c-0.1-0.7-0.7-1.2-1.4-1.1c-0.7-0.1-1.4,0.4-1.5,1.1H147z"/>
	<path class="st1" d="M154.8,203.6v3.7h-1.1l-0.2-0.8c-0.5,0.7-1.3,1-2.1,0.9c-1.4,0-2.2-0.7-2.2-1.9s0.8-1.8,2.3-1.8
		c0.6,0,1.2,0.1,1.7,0.3v-0.2c0-0.6-0.4-1.1-1-1.2c-0.1,0-0.2,0-0.2,0c-0.6,0-1.1,0.1-1.6,0.4l-0.9-1.1c0.8-0.5,1.6-0.8,2.6-0.7
		C153.8,201.2,154.8,202.1,154.8,203.6z M153.3,205.1v-0.1c-0.4-0.1-0.8-0.2-1.2-0.2c-0.8,0-1.2,0.2-1.2,0.8s0.4,0.8,1.1,0.8
		C152.6,206.3,153.2,205.8,153.3,205.1C153.3,205.1,153.3,205.1,153.3,205.1z"/>
	<path class="st1" d="M156.4,201.3h1.2l0.2,1.1c0.3-0.8,1.1-1.3,2-1.2c0.1,0,0.2,0,0.4,0l-0.1,1.6h-0.2c-1.4,0-1.9,0.6-1.9,2.1v2.3
		h-1.6L156.4,201.3z"/>
	<path class="st1" d="M161.1,201.3h1.2l0.2,0.8c0.5-0.7,1.2-1.1,2.1-1c1.2,0,2.3,0.9,2.3,2.1c0,0.1,0,0.2,0,0.3v3.6h-1.6V204
		c0-0.9-0.4-1.3-1.2-1.3c-0.7,0-1.4,0.5-1.4,1.3c0,0.1,0,0.1,0,0.2v3.1h-1.6V201.3z"/>
	<path class="st1" d="M181.1,203.7v3.6h-1.6V204c0-0.9-0.4-1.3-1.1-1.3c-0.7,0-1.3,0.5-1.3,1.2c0,0.1,0,0.1,0,0.2v3.1h-1.6V204
		c0-0.9-0.4-1.3-1.1-1.3c-0.7,0-1.3,0.5-1.3,1.2c0,0.1,0,0.1,0,0.2v3.1h-1.6v-5.9h1.2l0.2,0.8c0.4-0.7,1.2-1,1.9-1
		c0.7-0.1,1.4,0.3,1.8,1c0.5-0.7,1.3-1,2.2-1c1.2,0,2.2,1,2.2,2.2C181.1,203.4,181.1,203.6,181.1,203.7z"/>
	<path class="st1" d="M182.3,204.3c0-1.7,1.3-3.1,3-3.1c0.1,0,0.1,0,0.2,0c1.7-0.1,3.1,1.1,3.2,2.7c0,0.1,0,0.2,0,0.3
		c0,1.8-1.5,3.2-3.2,3.2C183.7,207.5,182.3,206.1,182.3,204.3L182.3,204.3z M187.1,204.3c0.1-0.8-0.6-1.6-1.4-1.6
		c-0.1,0-0.1,0-0.2,0c-0.9,0-1.6,0.6-1.6,1.5c0,0,0,0.1,0,0.1c0,0.9,0.7,1.6,1.6,1.6S187.1,205.2,187.1,204.3
		C187.1,204.3,187.1,204.3,187.1,204.3L187.1,204.3z"/>
	<path class="st1" d="M190,201.3h1.2l0.2,1.1c0.3-0.8,1.1-1.3,2-1.2c0.1,0,0.2,0,0.4,0l-0.1,1.6h-0.2c-1.4,0-1.9,0.6-1.9,2.1v2.3
		h-1.6L190,201.3z"/>
	<path class="st1" d="M200.3,204.8h-4.4c0.1,0.7,0.7,1.3,1.5,1.2c0.5,0.1,1-0.2,1.3-0.7l1.4,0.6c-0.9,1.5-2.9,1.9-4.4,0.9
		c-0.9-0.6-1.4-1.6-1.4-2.6c0-1.7,1.3-3,2.9-3.1c0.1,0,0.1,0,0.2,0c1.6,0,2.9,1.2,2.9,2.8c0,0.1,0,0.2,0,0.3
		C200.3,204.6,200.3,204.8,200.3,204.8z M198.7,203.6c-0.1-0.7-0.7-1.2-1.4-1.1c-0.7-0.1-1.4,0.4-1.5,1.1H198.7z"/>
</g>
<g>
	<rect x="124.2" y="75.6" class="st1" width="3.2" height="15.9"/>
	<g>
		<defs>
			<rect id="SVGID_1_" x="87.7" y="60.5" width="160.5" height="53.6"/>
		</defs>
		<clipPath id="SVGID_2_">
			<use xlink:href="#SVGID_1_"  style="overflow:visible;"/>
		</clipPath>
		<g class="st3">
			<path class="st1" d="M141.1,91.8c-4.6,0-8.5-3.1-8.5-8.3s3.9-8.3,8.5-8.3c2,0,3.9,0.5,5.5,1.6v2.9c-1.4-1.3-3.3-2-5.2-2
				c-3.1,0-5.5,2.1-5.5,5.7s2.3,5.7,5.5,5.7c1.9,0,3.8-0.7,5.2-2v2.9C144.9,91.2,143,91.7,141.1,91.8"/>
		</g>
	</g>
	<polygon class="st1" points="158.9,78.1 158.9,91.4 155.7,91.4 155.7,78.1 150.3,78.1 150.3,75.6 164.3,75.6 164.3,78.1 	"/>
	<g>
		<defs>
			<rect id="SVGID_3_" x="87.7" y="60.5" width="160.5" height="53.6"/>
		</defs>
		<clipPath id="SVGID_4_">
			<use xlink:href="#SVGID_3_"  style="overflow:visible;"/>
		</clipPath>
		<g class="st4">
			<path class="st1" d="M175.7,77.7c-3.2,0-5.3,2.4-5.3,5.8s2.1,5.8,5.3,5.8s5.2-2.4,5.2-5.8S178.8,77.7,175.7,77.7 M175.7,91.9
				c-4.6-0.1-8.3-3.9-8.2-8.6c0.1-4.6,3.9-8.3,8.6-8.2c4.6,0.1,8.2,3.8,8.2,8.4c0,4.6-3.7,8.3-8.3,8.4
				C175.9,91.9,175.8,91.9,175.7,91.9"/>
			<path class="st1" d="M192.5,82.8h2.5c2,0,2.7-1.1,2.7-2.5s-0.7-2.5-2.7-2.5h-2.5V82.8z M200.7,91.6c-1.9,0-3.4-0.8-4.6-3.1
				l-1.7-3.4h-1.9v6.3h-3.2V75.6h6.2c3.8,0,5.4,2.2,5.4,4.8c0.1,2.2-1.4,4.1-3.5,4.5l1.6,2.7c0.8,1.4,1.5,1.8,2.6,1.8
				c0.3,0,0.6,0,0.9-0.1v2C201.9,91.5,201.3,91.6,200.7,91.6"/>
		</g>
	</g>
	<rect x="208.1" y="75.6" class="st1" width="3.2" height="15.9"/>
	<g>
		<defs>
			<rect id="SVGID_5_" x="87.7" y="60.5" width="160.5" height="53.6"/>
		</defs>
		<clipPath id="SVGID_6_">
			<use xlink:href="#SVGID_5_"  style="overflow:visible;"/>
		</clipPath>
		<g class="st5">
			<path class="st1" d="M94.8,75.1c-0.9,0.3-1.9,0.2-2.8-0.1c-0.8-0.3-1.4-1-1.7-1.8c-0.3-0.8-0.3-1.7,0.1-2.4
				c0.3-0.7,1.1-1,1.8-0.9c1,0.1,1.9,0.5,2.6,1.2c0.9,0.7,1.6,1.4,2.3,2.2l0.6,0.7C96.8,74.4,95.8,74.8,94.8,75.1 M163.3,62.9
				c-9.2-2.6-18.9-3.1-28.4-1.7c-9.4,1.5-18.6,4.2-27.4,8.1c-2.2,0.9-4.3,1.8-6.6,2.9l-0.9,0.5c-0.3-0.4-0.6-0.8-1-1.2
				c-0.8-1-1.8-1.8-2.8-2.6c-1.1-0.9-2.5-1.4-3.9-1.6c-1.7-0.1-3.3,0.7-4.1,2.2c-0.7,1.4-0.8,3-0.2,4.4c0.5,1.4,1.7,2.6,3.1,3.1
				c1.3,0.5,2.8,0.5,4.2,0.1c1.3-0.4,2.5-0.9,3.7-1.5c0.7,1,1.3,2.1,2,3.2l7.4,12.1l0,0c0.4,0.7,1.3,0.9,2,0.5
				c0.2-0.1,0.4-0.3,0.5-0.5l9-15.2c0.1-0.1,0.1-0.2,0.1-0.3h-3.3l-7.1,12l-6.3-9.9c-0.6-1-1.3-2-2-3l0.6-0.3c2-1,4.2-2,6.4-2.9
				c8.5-3.9,17.5-6.7,26.8-8.4c9.3-1.6,18.7-1.2,27.8,1.2c0.3,0.1,0.6-0.1,0.7-0.4S163.6,63.1,163.3,62.9L163.3,62.9"/>
			<path class="st1" d="M245.7,95.7c-0.2,0.7-0.8,1.3-1.6,1.4c-0.9,0-1.8-0.3-2.6-0.8c-0.9-0.6-1.7-1.4-2.5-2.2
				c-0.3-0.3-0.6-0.7-0.9-1.1c0.6-0.3,1.3-0.6,2-0.8c1-0.4,2-0.5,3-0.4c0.9,0.2,1.7,0.7,2.1,1.4C245.8,93.9,246,94.8,245.7,95.7
				 M247.4,91.9c-0.8-1.3-2.2-2.2-3.8-2.4c-1.4-0.2-2.8,0-4.2,0.5c-0.9,0.3-1.7,0.7-2.6,1.2c-0.6-0.9-1.2-1.9-1.8-2.8l-7.6-12.4l0,0
				c-0.4-0.7-1.3-0.9-2-0.5c-0.2,0.1-0.4,0.3-0.5,0.5l-9,15.2c-0.1,0.1-0.1,0.2-0.1,0.3h3.3l7.1-12l6.5,10.2
				c0.6,0.9,1.1,1.8,1.8,2.7c-0.6,0.3-1.1,0.6-1.7,0.9c-2.2,1-4.4,2.2-6.5,3.3c-8.6,4.6-16.8,9.7-26,12.6c-9.2,2.9-18.8,4-28.4,3.3
				c-0.3,0-0.6,0.3-0.6,0.6c0,0.3,0.2,0.5,0.5,0.6c9.8,0.9,19.6-0.2,29-3c9.4-2.9,17.9-7.9,26.4-12.3c2.1-1.1,4.3-2.2,6.5-3.2
				c0.7-0.3,1.4-0.7,2-1c0.4,0.5,0.9,1.1,1.3,1.6c0.9,1,1.9,1.9,3,2.6c1.3,0.9,2.8,1.4,4.4,1.2c0.9-0.1,1.7-0.5,2.3-1.1
				c0.6-0.6,1-1.3,1.3-2.1C248.4,94.9,248.2,93.2,247.4,91.9"/>
			<path class="st1" d="M154.3,101h-0.8v1.4h0.8c0.6,0,0.8-0.3,0.8-0.7S154.8,101,154.3,101 M153.5,100.4h0.7c0.4,0,0.6-0.2,0.6-0.6
				s-0.2-0.6-0.6-0.6h-0.7V100.4z M154.5,103h-1.8v-4.5h1.7c1,0,1.4,0.5,1.4,1.2c0,0.4-0.2,0.7-0.5,0.9c0.4,0.2,0.7,0.6,0.7,1.1
				C156,102.4,155.5,103,154.5,103"/>
			<path class="st1" d="M159.9,103.1c-1.3,0-2.3-1-2.3-2.3c0-1.3,1-2.3,2.3-2.3c0.6,0,1.1,0.1,1.6,0.5v0.8c-0.4-0.4-0.9-0.6-1.5-0.6
				c-0.9,0.1-1.5,0.8-1.5,1.7c0.1,0.8,0.7,1.4,1.5,1.5c0.5,0,1.1-0.2,1.5-0.6v0.8C161,102.9,160.4,103.1,159.9,103.1"/>
			<path class="st1" d="M163.4,104l-0.1-0.2c0.3-0.2,0.5-0.4,0.5-0.8h-0.4v-0.9h0.9v0.8C164.1,103.4,163.8,103.8,163.4,104"/>
			<path class="st1" d="M170.6,103.1c-1.3,0-2.3-1-2.3-2.3c0-1.3,1-2.3,2.3-2.3c0.6,0,1.1,0.1,1.6,0.5v0.8c-0.4-0.4-0.9-0.6-1.5-0.6
				c-0.9,0.1-1.5,0.8-1.5,1.7c0.1,0.8,0.7,1.4,1.5,1.5c0.5,0,1.1-0.2,1.5-0.6v0.8C171.7,102.9,171.1,103.1,170.6,103.1"/>
		</g>
	</g>
	<path class="st1" d="M175.8,99.6l-0.7,1.6h1.3L175.8,99.6z M177.1,103l-0.5-1.1h-1.8l-0.4,1.1h-0.9l1.9-4.5h0.7l1.9,4.5H177.1z"/>
	<polygon class="st1" points="182.8,103 180.4,100 180.4,103 179.6,103 179.6,98.5 180.2,98.5 182.6,101.5 182.6,98.5 183.4,98.5 
		183.4,103 	"/>
	<path class="st1" d="M187.2,99.6l-0.7,1.6h1.3L187.2,99.6z M188.6,103l-0.5-1.1h-1.8l-0.5,1.1H185l1.9-4.5h0.7l1.9,4.5H188.6z"/>
	<path class="st1" d="M192.6,99.2h-0.6v3h0.6c1.2,0,1.7-0.6,1.7-1.5S193.8,99.2,192.6,99.2 M192.6,103H191v-4.5h1.6
		c1.8,0,2.6,1,2.6,2.2S194.5,103,192.6,103"/>
	<path class="st1" d="M198.5,99.6l-0.7,1.6h1.3L198.5,99.6z M199.8,103l-0.5-1.1h-1.8l-0.4,1.1h-0.9l1.9-4.5h0.7l1.9,4.5H199.8z"/>
</g>
</svg>
