<?xml version="1.0" encoding="utf-8"?>
<!-- Generator: Adobe Illustrator 19.0.0, SVG Export Plug-In . SVG Version: 6.00 Build 0)  -->
<svg version="1.1" id="Layer_1" xmlns="http://www.w3.org/2000/svg" xmlns:xlink="http://www.w3.org/1999/xlink" x="0px" y="0px"
	 viewBox="-263 380.5786 84 32.4214" style="enable-background:new -263 380.5786 84 32.4214;" xml:space="preserve">
<style type="text/css">
	.st0{fill:#FCD800;}
	.st1{enable-background:new    ;}
	.st2{fill:#231F20;}
</style>
<g id="XMLID_11226_">
	<g id="XMLID_11230_">
		<rect x="-263" y="380.5786" class="st0" width="84" height="32.4214"/>
	</g>
	<g class="st1">
		<path class="st2" d="M-253.46,392.7896v-1.4014h3.8877c0,1.0059-0.1821,1.8027-0.5459,2.3906
			c-0.3638,0.5889-0.8921,1.0518-1.5859,1.3896s-1.4717,0.5068-2.3345,0.5068c-1.4985,0-2.6484-0.4014-3.4492-1.2051
			c-0.8013-0.8027-1.2017-1.8223-1.2017-3.0586c0-0.8584,0.1987-1.6162,0.5962-2.2744s0.9321-1.1543,1.604-1.4883
			s1.4014-0.5,2.1885-0.5c1.1128,0,1.9795,0.2695,2.5996,0.8105v-0.6797h1.4072v2.9453h-1.4072
			c-0.147-0.4971-0.439-0.8887-0.8765-1.1748s-0.9063-0.4287-1.4072-0.4287c-0.6597,0-1.2222,0.2334-1.6875,0.7002
			c-0.4648,0.4668-0.6973,1.1143-0.6973,1.9414c0,0.9453,0.2363,1.666,0.7095,2.1611c0.4727,0.4951,1.0493,0.7422,1.729,0.7422
			c0.501,0,0.916-0.1211,1.2461-0.3633c0.3301-0.2432,0.5586-0.5811,0.686-1.0137H-253.46z"/>
	</g>
	<g class="st1">
		<path class="st2" d="M-248.8691,395.5737v-1.4014h0.9961v-5.4912h-0.9961v-1.4014h7.3105v2.6289h-1.5859v-1.2275h-2.5703v1.9141
			h2.0752v1.4014h-2.0752v2.1758h2.5703v-1.2402h1.5859v2.6416H-248.8691z"/>
		<path class="st2" d="M-239.3286,395.5737v-1.4014h1.2461v-5.4912h-1.2461v1.9316h-1.4253v-3.333h7.519v3.333h-1.4072v-1.9316
			h-1.2817v5.4912h1.2461v1.4014H-239.3286z"/>
	</g>
	<g class="st1">
		<path class="st2" d="M-258.7368,407.4429v-2.8262h1.4067c0.0161,0.5166,0.1514,0.8975,0.4058,1.1416s0.5444,0.3672,0.8706,0.3672
			c0.2544,0,0.4688-0.0889,0.644-0.2656c0.1748-0.1768,0.2622-0.3848,0.2622-0.623c0-0.2549-0.0854-0.4678-0.2563-0.6416
			c-0.1709-0.1729-0.4834-0.3691-0.9375-0.5908c-0.9595-0.4609-1.6104-0.8691-1.9531-1.2236s-0.5142-0.832-0.5142-1.4336
			c0-0.7246,0.2266-1.2861,0.6797-1.6846s0.9678-0.5977,1.5444-0.5977c0.6597,0,1.1704,0.2578,1.5322,0.7725v-0.6885h1.4014v2.5225
			h-1.4014c-0.0435-0.3896-0.1777-0.6914-0.4023-0.9033c-0.2246-0.2129-0.4858-0.3193-0.7842-0.3193
			c-0.2305,0-0.4253,0.0615-0.5845,0.1846c-0.1587,0.123-0.2383,0.2842-0.2383,0.4834c0,0.1709,0.0654,0.333,0.1968,0.4854
			c0.1313,0.1533,0.5151,0.3701,1.1519,0.6514c0.6128,0.2725,1.083,0.5195,1.4106,0.7402c0.3271,0.2207,0.5864,0.5078,0.7769,0.8594
			c0.1904,0.3525,0.2861,0.7588,0.2861,1.2207c0,0.8193-0.2388,1.4365-0.7158,1.8496c-0.4771,0.4141-1.0415,0.6211-1.6934,0.6211
			c-0.7275,0-1.2881-0.2695-1.6816-0.8086v0.707H-258.7368z"/>
	</g>
	<g class="st1">
		<path class="st2" d="M-251.2773,407.4429v-1.4014h1.2461v-5.4912h-1.2461v1.9316h-1.4253v-3.333h7.519v3.333h-1.4072v-1.9316
			h-1.2817v5.4912h1.2461v1.4014H-251.2773z"/>
	</g>
	<g class="st1">
		<path class="st2" d="M-239.9565,399.0181c1.4312,0,2.5571,0.4131,3.3779,1.2402c0.8208,0.8262,1.2314,1.834,1.2314,3.0225
			c0,1.1924-0.4116,2.2012-1.2344,3.0264s-1.9478,1.2373-3.375,1.2373c-1.4829,0-2.6216-0.4248-3.4165-1.2734
			c-0.7954-0.8486-1.1929-1.8457-1.1929-2.9902c0-1.1846,0.4087-2.1914,1.2256-3.0195
			C-242.5234,399.4321-241.3955,399.0181-239.9565,399.0181z M-239.9565,400.5317c-0.6362,0-1.1758,0.2393-1.6191,0.7158
			c-0.4429,0.4775-0.6646,1.1768-0.6646,2.0986c0,0.8154,0.2188,1.4668,0.6558,1.9561c0.4375,0.4893,0.98,0.7334,1.6279,0.7334
			c0.6357,0,1.1768-0.2393,1.6216-0.7188c0.4453-0.4785,0.668-1.1689,0.668-2.0713c0-0.8076-0.2124-1.4609-0.6377-1.9619
			C-238.7305,400.7827-239.2808,400.5317-239.9565,400.5317z"/>
	</g>
	<g class="st1">
		<path class="st2" d="M-226.1304,406.0415v1.4014h-2.5269l-1.8726-3.6309h-0.9492v2.2295h1.0376v1.4014h-4.335v-1.4014h1.1387
			v-5.4912h-1.1387v-1.4014h5.0024c0.9424,0,1.6211,0.2373,2.0366,0.7119c0.415,0.4756,0.623,1.0137,0.623,1.6133
			c0,0.9424-0.479,1.6299-1.437,2.0635l1.3477,2.5039H-226.1304z M-231.479,402.4878h0.7393c0.9146,0,1.3716-0.3262,1.3716-0.9775
			c0-0.3223-0.1045-0.5625-0.313-0.7217c-0.209-0.1592-0.4961-0.2383-0.8618-0.2383h-0.936V402.4878z"/>
	</g>
	<g class="st1">
		<path class="st2" d="M-217.9824,406.0415v1.4014h-4.0786v-1.4014h1.0615l-0.3936-1.4248h-2.1523l-0.4414,1.4248h1.1089v1.4014
			h-3.6729v-1.4014h1.0254l1.6162-5.4912h-1.103v-1.4014h5.4146v1.4014h-1.1157l1.7417,5.4912H-217.9824z M-221.7329,403.3999
			l-0.6919-2.498l-0.7451,2.498H-221.7329z"/>
	</g>
	<g class="st1">
		<path class="st2" d="M-212.6514,404.6587v-1.4014h3.8877c0,1.0059-0.1826,1.8027-0.5459,2.3906
			c-0.3643,0.5889-0.8926,1.0518-1.5859,1.3896c-0.6943,0.3379-1.4717,0.5068-2.335,0.5068c-1.498,0-2.6484-0.4014-3.4492-1.2051
			c-0.8008-0.8027-1.2012-1.8223-1.2012-3.0586c0-0.8584,0.1982-1.6162,0.5957-2.2744s0.9326-1.1543,1.6045-1.4883
			s1.4014-0.5,2.1885-0.5c1.1123,0,1.9795,0.2695,2.5996,0.8105v-0.6797h1.4072v2.9453h-1.4072
			c-0.1475-0.4971-0.4395-0.8887-0.877-1.1748s-0.9063-0.4287-1.4072-0.4287c-0.6592,0-1.2217,0.2334-1.6875,0.7002
			c-0.4648,0.4668-0.6973,1.1143-0.6973,1.9414c0,0.9453,0.2363,1.666,0.71,2.1611c0.4727,0.4951,1.0488,0.7422,1.7285,0.7422
			c0.501,0,0.916-0.1211,1.2461-0.3633c0.3301-0.2432,0.5586-0.5811,0.6865-1.0137H-212.6514z"/>
	</g>
	<g class="st1">
		<path class="st2" d="M-208.0488,407.4429v-1.4014h0.9961v-5.4912h-0.9961v-1.4014h7.3105v2.6289h-1.5859v-1.2275h-2.5703v1.9141
			h2.0752v1.4014h-2.0752v2.1758h2.5703v-1.2402h1.5859v2.6416H-208.0488z"/>
	</g>
	<g id="XMLID_11227_">
		<polygon class="st2" points="-190.0528,397.1581 -190.0528,392.9038 -186.369,395.0314 -182.6842,397.1581 -186.369,399.2856 
			-190.0528,401.4123 		"/>
	</g>
</g>
</svg>
