<?xml version="1.0" encoding="utf-8"?>
<!-- Generator: Adobe Illustrator 25.2.1, SVG Export Plug-In . SVG Version: 6.00 Build 0)  -->
<svg version="1.1" id="Layer_1" xmlns="http://www.w3.org/2000/svg" xmlns:xlink="http://www.w3.org/1999/xlink" x="0px" y="0px"
	 viewBox="0 0 300 600" style="enable-background:new 0 0 300 600;" xml:space="preserve">
<style type="text/css">
	.st0{clip-path:url(#SVGID_2_);}
	.st1{fill:#009970;}
</style>
<g>
	<defs>
		<rect id="SVGID_1_" width="300" height="600"/>
	</defs>
	<clipPath id="SVGID_2_">
		<use xlink:href="#SVGID_1_"  style="overflow:visible;"/>
	</clipPath>
	<g class="st0">
		<path class="st1" d="M55.8,136.7h-1.1L28.5,99.4v37.3h-2V96.2h2l25.4,35.9V96.2h2L55.8,136.7z"/>
		<path class="st1" d="M94.1,131.6c-6.1,6.9-16.6,7.6-23.5,1.5c-0.5-0.5-1.1-1-1.5-1.5c-3.4-3.8-5.1-8.8-5.1-15.1s1.7-11.3,5.1-15
			c6-6.9,16.4-7.7,23.4-1.7c0.6,0.5,1.2,1.1,1.7,1.7c3.4,3.8,5.1,8.8,5.1,15S97.5,127.7,94.1,131.6z M92.7,102.9
			c-5-6.2-14.1-7.1-20.3-2c-0.7,0.6-1.4,1.3-2,2c-2.9,3.5-4.3,8-4.3,13.5s1.4,10.1,4.3,13.6c5.1,6.2,14.3,7,20.5,1.8
			c0.7-0.6,1.3-1.2,1.8-1.8c2.9-3.5,4.3-8.1,4.3-13.6S95.6,106.4,92.7,102.9z"/>
		<path class="st1" d="M102.2,96.2H135v2h-15.4v38.5h-2V98.2h-15.3V96.2z"/>
		<path class="st1" d="M154.1,130.4c3.3,3.3,7.8,5,12.5,4.8c6.3,0,10.1-3.4,10.1-8.4c0.1-1.9-0.6-3.7-1.9-5
			c-1.8-1.5-3.8-2.7-5.9-3.6l-6-2.6c-2-0.9-3.9-2.1-5.6-3.4c-1.9-1.4-2.8-3.6-2.8-6.5c0-3.4,1.2-5.8,3.6-7.5
			c2.4-1.7,5.3-2.5,8.2-2.5c4,0,7.8,1.2,11.1,3.4v2.5c-3.1-2.7-7-4.1-11.1-4c-5.3,0-9.7,2.7-9.7,8c0,4.3,3.2,6.3,7.7,8.2l6.2,2.7
			c5.8,2.6,8.4,5.3,8.4,10.3c0.1,2.9-1.2,5.7-3.4,7.5c-2.5,2-5.6,3-8.7,2.9c-5.5,0-9.8-1.7-12.5-4.2L154.1,130.4z"/>
		<path class="st1" d="M214.4,131.6c-6.1,6.9-16.6,7.6-23.5,1.5c-0.5-0.5-1.1-1-1.5-1.5c-3.4-3.8-5.1-8.8-5.1-15.1s1.7-11.3,5.1-15
			c6-6.9,16.4-7.7,23.4-1.7c0.6,0.5,1.2,1.1,1.7,1.7c3.4,3.8,5.1,8.8,5.1,15S217.8,127.7,214.4,131.6z M213.1,102.9
			c-5-6.2-14.1-7.1-20.3-2c-0.7,0.6-1.4,1.3-2,2c-2.9,3.5-4.4,8-4.4,13.5s1.5,10.1,4.4,13.6c5.1,6.2,14.3,7,20.5,1.8
			c0.7-0.6,1.3-1.2,1.8-1.8c2.9-3.5,4.4-8.1,4.4-13.6S216,106.4,213.1,102.9z"/>
		<path class="st1" d="M53.5,184.3v-12.9H42.3v-1.8h13.1v15.2c-3.8,4.4-9,5.5-13.7,5.5c-4.9,0-9.5-2-12.8-5.6
			c-3.5-3.8-5.3-8.8-5.3-15.2s1.8-11.6,5.3-15.2c3.3-3.6,8.1-5.6,13-5.5c4.3-0.1,8.6,1.3,12,4v2.5c-3.3-3-7.6-4.7-12-4.6
			c-4.4-0.1-8.7,1.7-11.6,5c-3,3.3-4.6,7.9-4.6,13.8s1.5,10.5,4.6,13.9c2.9,3.3,7.1,5.1,11.4,5C46.7,188.3,50,187.3,53.5,184.3z"/>
		<path class="st1" d="M92.2,184.6c-6.1,6.9-16.6,7.6-23.5,1.5c-0.5-0.5-1.1-1-1.5-1.5c-3.4-3.8-5.1-8.8-5.1-15.1s1.7-11.3,5.1-15.1
			c6-6.9,16.4-7.7,23.4-1.7c0.6,0.5,1.2,1.1,1.7,1.7c3.4,3.8,5.1,8.8,5.1,15.1S95.6,180.7,92.2,184.6z M90.8,155.9
			c-5-6.2-14.1-7.1-20.3-2c-0.7,0.6-1.4,1.3-2,2c-2.9,3.5-4.4,8-4.4,13.5s1.4,10.1,4.4,13.6c5.1,6.2,14.3,7,20.5,1.8
			c0.7-0.6,1.3-1.2,1.8-1.8c2.9-3.5,4.4-8.1,4.4-13.6S93.7,159.4,90.8,155.9L90.8,155.9z"/>
		<path class="st1" d="M133.1,184.6c-6.1,6.9-16.6,7.6-23.5,1.5c-0.5-0.5-1.1-1-1.5-1.5c-3.4-3.8-5.1-8.8-5.1-15.1
			s1.7-11.3,5.1-15.1c6-6.9,16.4-7.7,23.4-1.7c0.6,0.5,1.2,1.1,1.7,1.7c3.4,3.8,5.1,8.8,5.1,15.1S136.4,180.7,133.1,184.6z
			 M131.7,155.9c-5-6.2-14.1-7.1-20.3-2c-0.7,0.6-1.4,1.3-2,2c-2.9,3.5-4.3,8-4.3,13.5s1.4,10.1,4.3,13.6c5.1,6.2,14.3,7,20.5,1.8
			c0.7-0.6,1.3-1.2,1.8-1.8c2.9-3.5,4.4-8.1,4.4-13.6S134.6,159.4,131.7,155.9L131.7,155.9z"/>
		<path class="st1" d="M146.3,149.2h11.8c5.8,0,10.6,1.9,14.2,5.5s5.5,8.6,5.5,14.7s-1.9,11.1-5.5,14.8s-8.4,5.5-14.2,5.5h-11.8
			V149.2z M158.2,187.7c5.2,0,9.4-1.6,12.6-5s4.8-7.8,4.8-13.3s-1.6-9.9-4.8-13.3s-7.4-5-12.6-5h-9.9v36.6L158.2,187.7z"/>
		<path class="st1" d="M202.6,189.7h-2v-40.5h2V189.7z"/>
		<path class="st1" d="M242.9,189.7h-1.1l-26.3-37.3v37.3h-2v-40.5h2l25.4,35.9v-35.9h2L242.9,189.7z"/>
		<path class="st1" d="M49.1,228.6H30.2l-5.6,14.1h-2l16.2-40.5h1.8l16.2,40.5h-2L49.1,228.6z M31,226.6h17.3L39.7,205L31,226.6z"/>
		<path class="st1" d="M75.1,202.2h32.7v2H92.5v38.5h-2v-38.6H75.1V202.2z"/>
		<path class="st1" d="M140,202.2v2h-22.6v16.6h20.5v2h-20.5v18H140v2h-24.6v-40.6H140z"/>
		<path class="st1" d="M149.4,242.7v-40.5h13.4c7.7,0,12.8,3.9,12.8,11c0,6.4-4.1,10.2-10.4,10.9l12.5,18.6h-2.4l-12.5-18.5h-11.4
			v18.5L149.4,242.7z M151.4,222.3h11.3c6.8,0,10.9-3.3,10.9-9.1s-4.1-9-10.9-9h-11.2L151.4,222.3z"/>
		<path class="st1" d="M203.9,233.1l-16.4-26.7v36.3h-2v-40.5h1.7l16.8,27.4l16.8-27.4h1.5v40.5h-2v-36.3l-16.3,26.7H203.9z"/>
		<path class="st1" d="M26.5,255.2h11.8c5.8,0,10.6,1.8,14.2,5.5s5.5,8.6,5.5,14.7s-1.8,11.1-5.5,14.8s-8.4,5.5-14.2,5.5H26.5V255.2
			z M38.4,293.7c5.2,0,9.4-1.6,12.6-5s4.8-7.8,4.8-13.3s-1.6-9.9-4.8-13.3s-7.4-5-12.6-5h-9.9v36.6L38.4,293.7z"/>
		<path class="st1" d="M90.7,255.2v2H68.1v16.6h20.5v2H68.1v18h22.6v2H66.1v-40.6H90.7z"/>
		<path class="st1" d="M102.2,277.3v18.4h-2.1v-40.5h13.8c7.7,0,12.9,3.9,12.9,11c0,7.3-5.1,11.1-12.9,11.1L102.2,277.3z
			 M124.8,266.2c0-5.8-4.1-9-10.9-9h-11.7v18.1h11.7C120.7,275.3,124.8,272,124.8,266.2z"/>
		<path class="st1" d="M162,290.6c-6.1,6.9-16.6,7.6-23.5,1.5c-0.5-0.5-1.1-1-1.5-1.5c-3.4-3.8-5.1-8.8-5.1-15.1s1.7-11.3,5.1-15
			c6-6.9,16.4-7.7,23.4-1.7c0.6,0.5,1.2,1.1,1.7,1.7c3.4,3.8,5.1,8.8,5.1,15S165.3,286.7,162,290.6z M160.6,261.9
			c-5-6.2-14.1-7.1-20.3-2c-0.7,0.6-1.4,1.3-2,2c-2.9,3.5-4.4,8-4.4,13.5s1.5,10.1,4.4,13.6c5.1,6.2,14.3,7,20.5,1.8
			c0.7-0.6,1.3-1.2,1.8-1.8c2.9-3.5,4.4-8,4.4-13.6S163.5,265.4,160.6,261.9L160.6,261.9z"/>
		<path class="st1" d="M172.1,289.5c3.3,3.3,7.8,5,12.5,4.8c6.3,0,10.1-3.4,10.1-8.5c0.1-1.9-0.6-3.7-1.9-5
			c-1.8-1.5-3.8-2.7-5.9-3.6l-6-2.6c-2-0.9-3.9-2.1-5.6-3.4c-1.9-1.4-2.8-3.6-2.8-6.5c0-3.4,1.2-5.8,3.6-7.5
			c2.4-1.7,5.3-2.5,8.2-2.5c4,0,7.8,1.2,11.1,3.4v2.5c-3.1-2.7-7-4.1-11.1-4c-5.3,0-9.7,2.7-9.7,8c0,4.3,3.2,6.3,7.6,8.2l6.2,2.7
			c5.8,2.6,8.4,5.3,8.4,10.3c0.1,2.9-1.2,5.7-3.4,7.5c-2.5,2-5.6,3-8.7,2.9c-5.5,0-9.8-1.7-12.5-4.2L172.1,289.5z"/>
		<path class="st1" d="M207.2,295.7h-2v-40.5h2V295.7z"/>
		<path class="st1" d="M214.7,255.2h32.7v2h-15.4v38.5h-2v-38.6h-15.3V255.2z"/>
		<path class="st1" d="M247.5,292.3c1,0,1.8,0.7,1.8,1.7c0,1-0.7,1.8-1.7,1.8s-1.8-0.7-1.8-1.7c0,0,0,0,0-0.1
			C245.8,293.1,246.6,292.3,247.5,292.3z"/>
	</g>
</g>
</svg>
