<?xml version="1.0" encoding="utf-8"?>
<!-- Generator: Adobe Illustrator 24.0.3, SVG Export Plug-In . SVG Version: 6.00 Build 0)  -->
<svg version="1.1" id="Layer_1" xmlns="http://www.w3.org/2000/svg" xmlns:xlink="http://www.w3.org/1999/xlink" x="0px" y="0px"
	 viewBox="0 0 300 600" style="enable-background:new 0 0 300 600;" xml:space="preserve">
<style type="text/css">
	.st0{clip-path:url(#SVGID_2_);}
	.st1{clip-path:url(#SVGID_4_);}
	.st2{clip-path:url(#SVGID_6_);}
	.st3{fill:#F57D20;}
	.st4{fill:#FFFFFF;}
</style>
<title>slide4_NZ</title>
<g>
	<g id="Layer_1_1_">
		<g>
			<defs>
				<rect id="SVGID_1_" width="300" height="600"/>
			</defs>
			<clipPath id="SVGID_2_">
				<use xlink:href="#SVGID_1_"  style="overflow:visible;"/>
			</clipPath>
			<g class="st0">
				<g>
					<defs>
						<rect id="SVGID_3_" width="300" height="600"/>
					</defs>
					<clipPath id="SVGID_4_">
						<use xlink:href="#SVGID_3_"  style="overflow:visible;"/>
					</clipPath>
					<g class="st1">
						<g id="_3">
							<g>
								<defs>
									<rect id="SVGID_5_" width="300" height="600"/>
								</defs>
								<clipPath id="SVGID_6_">
									<use xlink:href="#SVGID_5_"  style="overflow:visible;"/>
								</clipPath>
								<g class="st2">
									<path class="st3" d="M19.4,339.9c3.5,0,6.4-2.9,6.4-6.4s-2.9-6.4-6.4-6.4c-3.5,0-6.4,2.9-6.4,6.4
										C13,337,15.8,339.9,19.4,339.9C19.4,339.9,19.4,339.9,19.4,339.9"/>
								</g>
							</g>
							<path class="st4" d="M37.2,342.2l7.1-0.2c0.3,2.8,1.1,5.7,4.2,5.7c2.7,0,3.6-2.2,3.6-4.3c0-2.3-1.5-4.2-4-6.5l-4.3-4.2
								c-3.7-3.4-6-6.6-6-10.9c0-5.5,3.6-10.1,10.8-10.1c5.2,0,9.9,2.6,10.3,11l-6.7,0.2c-0.4-3.2-1.3-5.4-4-5.4
								c-2.2,0-3.4,1.6-3.4,3.8s2.3,4.3,4.4,6.3l4,3.8c4,3.7,6.2,7.2,6.2,11.6c0,5.9-4.1,10.4-11,10.4S37.7,349.2,37.2,342.2z"/>
							<path class="st4" d="M69,312.3h10.4l8.4,40.6h-7.7l-2-9.8h-8.8l-1.9,9.8h-7L69,312.3z M76.9,337.3l-3.1-16.8h-0.2l-3.2,16.8
								H76.9z"/>
							<path class="st4" d="M85.4,312.3H93l5,27.5h0.2l5-27.5h6.9l-8.2,40.8h-8L85.4,312.3z"/>
							<path class="st4" d="M111.7,312.3h19.7v6.1h-12.2v10.5h9.7v6.1h-9.7v11.7h12.2v6.1h-19.8V312.3z"/>
							<path class="st4" d="M138.5,327.1v-14.7h3.7v14.5c-0.1,1,0.6,2,1.7,2.1c0.1,0,0.2,0,0.3,0c1,0.1,1.9-0.7,2-1.7
								c0-0.1,0-0.2,0-0.4v-14.5h3.4V327c0,3.2-2.4,5.1-5.6,5.1S138.5,330.5,138.5,327.1z"/>
							<path class="st4" d="M152.2,312.4h5.8c3.4,0,4.9,2.1,4.9,5.8c0,3.9-1.6,6.3-5.1,6.3h-2v7.2h-3.6L152.2,312.4z M157.3,321.7
								c1.4,0,2.1-1.1,2.1-3.4c0-2-0.6-3.1-2-3.1h-1.6v6.4H157.3z"/>
							<path class="st4" d="M141.7,337.1h-3.9v-2.9h11.4v2.9h-3.8v16.4h-3.6L141.7,337.1z"/>
							<path class="st4" d="M150.5,348.8V339c0-3.3,2.5-5.1,5.7-5.1s5.7,1.6,5.7,5v9.7c0,3.5-2.5,5.2-5.7,5.2
								C152.8,353.9,150.5,352.2,150.5,348.8z M158.2,348.8v-10c0-1.1-0.9-2-2.1-2c-1.1,0-2,0.9-2,2.1v9.9c0,1.1,0.9,2,2,2
								C157.3,350.8,158.2,349.9,158.2,348.8z"/>
							<path class="st3" d="M178.2,351.3c-4.6-0.5-9-3.2-9.3-9.4l7-0.2c0.2,2.5,1.3,4.4,4.1,4.4c1.7,0.1,3.2-1.2,3.3-2.9
								c0-0.2,0-0.3,0-0.5c0-1.9-1.5-4.1-3.8-6.1l-4-3.7c-3.4-3.1-5.8-6-5.8-9.8c0-4.5,2.9-8.2,8.6-8.9v-3.5h4.8v3.6
								c3.8,0.6,7,3,7.3,8.9l-6.3,0.1c-0.3-3.1-1.8-4.3-3.9-4.3c-1.8-0.1-3.3,1.2-3.4,2.9c0,0.2,0,0.4,0,0.5c0,2,1.9,3.8,3.8,5.6
								l3.9,3.7c3.1,3,5.8,6.2,5.8,10.2c0.1,4.4-3,8.1-7.3,8.9v4h-4.9L178.2,351.3z"/>
							<path class="st3" d="M195.9,319.3l-3.3,0.7l-1-5.2l7.3-2.6h4.2v40.6h-7.3L195.9,319.3z"/>
							<path class="st3" d="M218.3,318.4h-12.6v-6h20.3v5.2c-5.9,9.9-9,22.6-9,35.4h-7.4C209.7,339.3,213.9,326.1,218.3,318.4z"/>
							<path class="st3" d="M228.1,344.8v-3.6h6.8v3.1c-0.2,1.7,1.1,3.3,2.9,3.4c0.2,0,0.3,0,0.5,0c2.1,0,3.2-1.4,3.2-4.1v-7.8
								c0-2.3-1.2-3.8-3.3-3.8c-1.4,0.1-2.7,0.9-3.3,2.2l-6.3-0.4l0.8-21.4h18v6h-12c0,0.1-0.2,7.8-0.4,10.4c1.7-1.3,3.8-1.9,6-1.9
								c4.2,0,7.9,2.2,7.9,8v9.1c0,6.2-4.7,9.7-10.6,9.7C231.6,353.5,228.1,350.1,228.1,344.8z"/>
							<path class="st3" d="M251.9,344.4v-23.8c0-6,5.1-8.9,10.7-8.9s10.8,2.9,10.8,8.9v23.8c0,6.1-4.9,9-10.8,9
								S251.9,350.5,251.9,344.4z M266,344.6v-24.1c0-1.6-1.2-2.9-3.4-2.9s-3.3,1.4-3.3,2.9v24.2c0,1.7,1.3,3,3,3c0.1,0,0.2,0,0.3,0
								C265,347.6,266,346.1,266,344.6L266,344.6z"/>
							<path class="st3" d="M275.8,313.3h1.1l1.1,4.5h-1.1l-0.6-2.7l-0.6,2.7h-1.1L275.8,313.3z"/>
						</g>
					</g>
				</g>
			</g>
		</g>
	</g>
</g>
</svg>
