<?xml version="1.0" encoding="utf-8"?>
<!-- Generator: Adobe Illustrator 24.0.3, SVG Export Plug-In . SVG Version: 6.00 Build 0)  -->
<svg version="1.1" id="Layer_1" xmlns="http://www.w3.org/2000/svg" xmlns:xlink="http://www.w3.org/1999/xlink" x="0px" y="0px"
	 viewBox="0 0 300 600" style="enable-background:new 0 0 300 600;" xml:space="preserve">
<style type="text/css">
	.st0{clip-path:url(#SVGID_2_);}
	.st1{clip-path:url(#SVGID_4_);}
	.st2{fill:#F57D20;}
</style>
<title>slide1b</title>
<g>
	<g id="Layer_1_1_">
		<g>
			<defs>
				<rect id="SVGID_1_" width="300" height="600"/>
			</defs>
			<clipPath id="SVGID_2_">
				<use xlink:href="#SVGID_1_"  style="overflow:visible;"/>
			</clipPath>
			<g class="st0">
				<g>
					<defs>
						<rect id="SVGID_3_" width="300" height="600"/>
					</defs>
					<clipPath id="SVGID_4_">
						<use xlink:href="#SVGID_3_"  style="overflow:visible;"/>
					</clipPath>
					<g class="st1">
						<path class="st2" d="M40.2,378.9h-6.4v-3.3h10.2v2.8c-3.1,6-4.6,12.6-4.5,19.3h-3.8C35.8,391.2,37.3,384.7,40.2,378.9z"/>
						<path class="st2" d="M46,393.3v-2h3.4v1.7c-0.1,0.9,0.5,1.7,1.4,1.8c0.1,0,0.2,0,0.3,0c1,0,1.6-0.8,1.6-2.2v-4.2
							c0-1.3-0.6-2-1.7-2c-0.7,0.1-1.4,0.5-1.7,1.2l-3.2-0.2l0.4-11.7h9.1v3.2h-6c0,0-0.1,4.2-0.2,5.6c0.9-0.7,1.9-1,3-1
							c2.1,0,4,1.2,4,4.3v5c0.1,2.8-2.1,5.1-4.9,5.1c-0.2,0-0.4,0-0.5,0C47.8,398,46,396.2,46,393.3z"/>
						<path class="st2" d="M58.4,387h5.9v2.9h-5.9V387z"/>
						<path class="st2" d="M67.9,379.4l-1.6,0.4l-0.5-2.8l3.7-1.4h2.1v22.1h-3.7V379.4z"/>
						<path class="st2" d="M76.7,379.4l-1.6,0.4l-0.5-2.8l3.7-1.4h2.1v22.1h-3.7V379.4z"/>
						<path class="st2" d="M83.8,393.3v-2h3.4v1.7c-0.1,0.9,0.5,1.7,1.4,1.8c0.1,0,0.2,0,0.3,0c1,0,1.6-0.8,1.6-2.2v-4.2
							c0-1.3-0.6-2-1.7-2c-0.7,0.1-1.4,0.5-1.7,1.2l-3.2-0.3l0.4-11.7h9.1v3.2h-6c0,0-0.1,4.2-0.2,5.6c0.9-0.7,1.9-1,3-1
							c2.1,0,4,1.2,4,4.3v5c0.1,2.8-2,5.1-4.8,5.2c-0.2,0-0.4,0-0.6,0C85.6,398,83.8,396.2,83.8,393.3z"/>
						<path class="st2" d="M96.9,375.6h3.9v9.1h4.3v-9.1h3.9v22.1h-3.9v-9.4h-4.3v9.4h-3.9V375.6z"/>
						<path class="st2" d="M111.8,375.6h6.2c3.6,0,5.3,2.4,5.3,6.6c0,4.4-1.7,7.2-5.5,7.2h-2.2v8.3h-3.9V375.6z M117.4,386.2
							c1.5,0,2.2-1.3,2.2-3.8c0-2.3-0.6-3.5-2.2-3.5h-1.7v7.3H117.4z"/>
						<path class="st2" d="M130.4,375.6h10.1v3.3h-6.2v5.8h5v3.4h-5v9.6h-3.9L130.4,375.6z"/>
						<path class="st2" d="M142.3,392.2v-11.1c0-3.8,2.7-5.8,6.2-5.8s6.1,1.8,6.1,5.7v11.1c0,4-2.7,5.9-6.2,5.9
							C144.8,398,142.3,396.1,142.3,392.2z M150.6,392.2v-11.4c0.1-1.2-0.9-2.2-2.1-2.3c-1.2-0.1-2.2,0.9-2.3,2.1c0,0.1,0,0.2,0,0.3
							v11.3c-0.1,1.2,0.8,2.3,2,2.3c1.2,0.1,2.3-0.8,2.3-2C150.6,392.4,150.6,392.3,150.6,392.2L150.6,392.2z"/>
						<path class="st2" d="M157.1,392.4v-16.8h4v16.6c-0.2,1.2,0.6,2.2,1.8,2.4c0.1,0,0.3,0,0.4,0c1.4,0,2.1-1,2.1-2.4v-16.6h3.7
							v16.6c0,3.7-2.6,5.8-6.1,5.8S157.1,396.2,157.1,392.4z"/>
						<path class="st2" d="M171.9,375.6h6c3.6,0,5.8,2.1,5.8,6.4c0,3.1-1.1,5-2.7,5.8l2.9,9.8h-4.1l-2.4-9h-1.6v9h-3.9L171.9,375.6z
							 M177.6,385.8c1.4,0,2.2-1,2.2-3.5c0-2.1-0.6-3.4-2.2-3.4h-1.7v6.9H177.6z"/>
						<path class="st2" d="M185.6,391.9l3.6-0.1c0.2,1.5,0.6,3.1,2.2,3.1c1.4,0,1.8-1.2,1.8-2.3s-0.8-2.3-2-3.5l-2.2-2.3
							c-1.9-1.8-3.1-3.6-3.1-5.9c-0.2-2.9,2-5.3,4.9-5.5c0.2,0,0.5,0,0.7,0c2.7,0,5.1,1.4,5.3,6l-3.4,0.1c-0.2-1.7-0.6-2.9-2-2.9
							c-1.1,0-1.8,0.9-1.8,2.1s1.2,2.4,2.3,3.4l2,2.1c2,2,3.2,3.9,3.2,6.4c0.2,3-2.1,5.5-5.1,5.7c-0.2,0-0.4,0-0.6,0
							C187.9,398,185.8,395.7,185.6,391.9z"/>
						<path class="st2" d="M202.2,378.9h-4.2v-3.3h12.3v3.3h-4.1v18.8h-3.9L202.2,378.9z"/>
						<path class="st2" d="M212.4,375.6h6c3.6,0,5.8,2.1,5.8,6.4c0,3.1-1.1,5-2.7,5.8l2.9,9.8h-4.1l-2.4-9h-1.6v9h-3.9L212.4,375.6z
							 M218,385.8c1.4,0,2.2-1,2.2-3.5c0-2.1-0.6-3.4-2.2-3.4h-1.7v6.9H218z"/>
						<path class="st2" d="M226.5,392.2v-11.1c0-3.8,2.7-5.8,6.2-5.8s6.1,1.8,6.1,5.7v11.1c0,4-2.7,5.9-6.2,5.9
							C229,398,226.5,396.1,226.5,392.2z M234.8,392.2v-11.4c0-1.2-1-2.2-2.2-2.1c-1.2,0-2.2,1-2.1,2.2l0,0v11.3
							c0,1.2,1,2.2,2.2,2.2C233.9,394.4,234.8,393.4,234.8,392.2L234.8,392.2z"/>
						<path class="st2" d="M241.5,375.6h3.9v10l4.6-10h3.9l-4,8.6l4.1,13.5h-4.2l-2.8-10.2l-1.5,2.8v7.3h-3.9L241.5,375.6z"/>
						<path class="st2" d="M255.9,375.6H266v3.3h-6.2v5.7h5v3.4h-5v6.4h6.3v3.3h-10.1V375.6z"/>
					</g>
				</g>
			</g>
		</g>
	</g>
</g>
</svg>
