<?xml version="1.0" encoding="utf-8"?>
<!-- Generator: Adobe Illustrator 25.3.1, SVG Export Plug-In . SVG Version: 6.00 Build 0)  -->
<svg version="1.1" id="Layer_1" xmlns="http://www.w3.org/2000/svg" xmlns:xlink="http://www.w3.org/1999/xlink" x="0px" y="0px"
	 viewBox="0 0 300 627" style="enable-background:new 0 0 300 627;" xml:space="preserve">
<style type="text/css">
	.st0{fill:#00B07D;}
	.st1{fill:#FFFFFF;}
</style>
<g>
	<g>
		<path class="st0" d="M0,0v627h300V0H0z M286.9,384.8c0,19.7-0.6,33.1-3.5,47.5c-2.7,13.3-6.8,24.8-12.6,35
			c-6.8,12.2-14.4,22-23.1,29.9c-26.4,24.1-60.9,37.4-97.1,37.4s-70.7-13.3-97.2-37.4c-8.7-7.9-16.3-17.7-23.1-29.9
			c-5.7-10.2-9.8-21.7-12.6-35c-3-14.3-3.5-27.7-3.5-47.5v-50.1c0-19.7,0.6-33.1,3.5-47.5c2.7-13.3,6.8-24.8,12.6-35
			c6.8-12.2,14.4-22,23.1-29.9c26.4-24.1,60.9-37.4,97.1-37.4s70.7,13.3,97.2,37.4c8.7,7.9,16.3,17.7,23.1,29.9
			c5.7,10.2,9.8,21.7,12.6,35c3,14.3,3.5,27.7,3.5,47.4L286.9,384.8L286.9,384.8z"/>
	</g>
</g>
<g>
	<path class="st1" d="M57.9,45.4h12.5c6.1,0,9.3,2.6,9.3,7.5c0,2.4-1.4,4.7-3.6,5.7c2.7,1,4.4,3.6,4.3,6.5c0,4.8-3.3,7.7-9.4,7.7
		H57.9V45.4z M69.5,56.1c2,0,3.1-0.8,3.1-2.3s-1.1-2.3-3.1-2.3H65v4.6H69.5z M65,66.6h5.2c1.9,0,3-1,3-2.5s-1.1-2.5-3-2.5H65V66.6z"
		/>
	<path class="st1" d="M81.6,62.6c-0.2-5.6,4.3-10.3,9.9-10.5c0.2,0,0.4,0,0.5,0c6.3,0,9.8,4.5,9.8,10.4v1.6H88.6
		c0.4,2.2,1.8,3.3,3.6,3.3c1.5,0.1,3-0.8,3.5-2.3l5.9,1.8c-1.5,4.1-5.5,6.1-9.5,6.1C85.8,73.2,81.6,68.9,81.6,62.6z M88.8,60.2h6.1
		c0-1.5-1.3-2.7-2.8-2.7C90.4,57.5,89,58.6,88.8,60.2z"/>
	<path class="st1" d="M105,65.5c2,1.5,4.5,2.4,7,2.5c1.4,0,2.4-0.3,2.4-1.1c0-1-1-1.1-4.3-1.6s-6.9-1.5-6.9-5.9s4-7.1,9.1-7.1
		c3.2-0.1,6.3,0.9,8.9,2.9l-3,4.4c-1.6-1.3-3.6-2-5.7-2.1c-1.2,0-2,0.3-2,1.1s1,1,3.4,1.4c3.8,0.7,7.7,1.7,7.7,6.2
		c0,4.7-4.3,7.2-9.9,7.2c-3.3,0-7.4-1-9.4-2.7L105,65.5z"/>
	<path class="st1" d="M124.6,58.5h-2.4v-5.9h2.4v-5.3h7.1v5.3h3.7v5.9h-3.7v6.4c0,1.6,0.8,1.9,2.2,1.9c0.5,0,1.1,0,1.6-0.1v5.9
		c-1.3,0.2-2.7,0.3-4,0.3c-4.7,0-7-1.7-7-5.8L124.6,58.5z"/>
	<path class="st1" d="M145.7,45.4h7.5v21H165v6.3h-19.2V45.4H145.7z"/>
	<path class="st1" d="M166.6,45.4h7.3V51h-7.3V45.4z M173.8,72.7h-7.2V52.6h7.2V72.7z"/>
	<path class="st1" d="M188.8,50.6c-0.4,0-0.9-0.1-1.4-0.1c-1.4,0-2.1,0.4-2.1,1.7v0.4h3.4v5.9h-3.4v14.2h-7.2V58.5h-2.4v-5.9h2.4
		v-0.7c0-4.4,2.2-6.8,8.1-6.8c0.8,0,1.7,0.1,2.5,0.2L188.8,50.6z"/>
	<path class="st1" d="M189.5,62.6c-0.2-5.6,4.2-10.3,9.9-10.5c0.2,0,0.4,0,0.6,0c6.3,0,9.8,4.5,9.8,10.4v1.6h-13.3
		c0.4,2.2,1.8,3.3,3.6,3.3c1.5,0.1,3-0.8,3.5-2.3l5.9,1.8C208,71,204,73,200,73C193.7,73.2,189.5,68.9,189.5,62.6z M196.7,60.2h6
		c0-1.5-1.3-2.7-2.8-2.7c0,0,0,0-0.1,0C198.3,57.5,196.9,58.7,196.7,60.2L196.7,60.2z"/>
	<path class="st1" d="M212.8,58.8v-9.1h-3.7v-4.3h12.2v4.3h-3.7v9.1C217.6,58.8,212.8,58.8,212.8,58.8z M229.2,58.8l-2.3-7.2v7.2
		h-4.2V45.4h6l1.9,6.3l1.8-6.3h5.9v13.4H234v-7.2l-2.3,7.2C231.7,58.8,229.2,58.8,229.2,58.8z"/>
	<path class="st1" d="M69.3,90.6c-0.5,0-0.9-0.1-1.4-0.1c-1.4,0-2.1,0.4-2.1,1.7v0.4h3.4v5.9h-3.4v14.2h-7.2V98.5h-2.4v-5.9h2.4
		v-0.7c0-4.4,2.2-6.8,8.2-6.8c0.8,0,1.7,0.1,2.5,0.2V90.6z"/>
	<path class="st1" d="M80.3,113.2c-6.1,0-10.3-4.3-10.3-10.5s4.2-10.5,10.3-10.5s10.3,4.3,10.3,10.5S86.5,113.2,80.3,113.2z
		 M80.3,107.3c1.9,0,3.2-1.6,3.2-4.7S82.3,98,80.3,98s-3.2,1.6-3.2,4.7S78.4,107.3,80.3,107.3z"/>
	<path class="st1" d="M106.4,99.4c-0.6-0.1-1.2-0.2-1.8-0.2c-2.5,0-4.5,1.4-4.5,4.1v9.4h-7.2V92.6h7.2V95c1.1-1.6,3-2.5,5-2.5
		c0.4,0,0.9,0,1.3,0.1V99.4z"/>
	<path class="st1" d="M117.1,105.5c2,1.5,4.5,2.4,7,2.5c1.4,0,2.4-0.3,2.4-1.1c0-1-1-1.1-4.3-1.6s-6.9-1.5-6.9-5.9s4-7.1,9.1-7.1
		c3.2-0.1,6.3,0.9,8.9,2.9l-3.1,4.4c-1.6-1.3-3.6-2-5.7-2.1c-1.2,0-2,0.3-2,1.1s1,1,3.4,1.4c3.8,0.7,7.6,1.7,7.6,6.2
		c0,4.7-4.3,7.2-9.9,7.2c-3.3,0-7.4-1-9.4-2.7L117.1,105.5z"/>
	<path class="st1" d="M134.7,102.6c-0.2-5.6,4.2-10.3,9.9-10.5c0.2,0,0.4,0,0.6,0c6.3,0,9.8,4.5,9.8,10.4v1.6h-13.2
		c0.4,2.2,1.8,3.3,3.6,3.3c1.5,0.1,3-0.8,3.5-2.3l5.9,1.8c-1.5,4.1-5.5,6.1-9.5,6.1C138.9,113.2,134.7,108.9,134.7,102.6z
		 M141.8,100.2h6c0-1.5-1.3-2.7-2.8-2.7c0,0,0,0-0.1,0C143.4,97.5,142.1,98.7,141.8,100.2z"/>
	<path class="st1" d="M157.1,92.6h7.2v1.9c1.4-1.5,3.4-2.3,5.5-2.3c4.1,0,6.7,2.9,6.7,7.3v13.3h-7.2v-11.3c0-1.7-0.7-2.9-2.3-2.9
		c-1.5,0-2.7,1.2-2.7,2.6c0,0.1,0,0.2,0,0.3v11.2h-7.2V92.6z"/>
	<path class="st1" d="M179.7,85.4h7.3V91h-7.3V85.4z M187,112.7h-7.2V92.6h7.2V112.7z"/>
	<path class="st1" d="M199.5,113.2c-6.1,0-10.4-4.3-10.4-10.5s4.2-10.5,10.4-10.5s10.3,4.3,10.3,10.5S205.6,113.2,199.5,113.2z
		 M199.5,107.3c1.9,0,3.2-1.6,3.2-4.7s-1.3-4.7-3.2-4.7s-3.2,1.6-3.2,4.7S197.5,107.3,199.5,107.3z"/>
	<path class="st1" d="M225.5,99.4c-0.6-0.1-1.2-0.2-1.8-0.2c-2.5,0-4.5,1.4-4.5,4.1v9.4H212V92.6h7.2V95c1.1-1.6,3-2.5,4.9-2.5
		c0.4,0,0.9,0,1.3,0.1L225.5,99.4z"/>
	<path class="st1" d="M56.7,142.6c0-5.8,3.1-10.5,8.5-10.5c2-0.1,3.9,0.8,5.2,2.3v-9.1h7.2v27.3h-7.2v-1.9c-1.3,1.6-3.2,2.4-5.2,2.4
		C59.8,153.2,56.7,148.4,56.7,142.6z M67.3,138.2c-2.1,0-3.3,1.9-3.3,4.4s1.1,4.4,3.3,4.4c1.9,0,3.2-1.4,3.2-3.9v-1
		C70.5,139.6,69.2,138.2,67.3,138.2z"/>
	<path class="st1" d="M90.3,153.2c-6.1,0-10.4-4.3-10.4-10.5s4.2-10.5,10.4-10.5s10.3,4.3,10.3,10.5S96.4,153.2,90.3,153.2z
		 M90.3,147.3c1.9,0,3.2-1.6,3.2-4.7s-1.2-4.7-3.2-4.7s-3.3,1.6-3.3,4.6S88.3,147.3,90.3,147.3z"/>
	<path class="st1" d="M111.8,159.8c-5.3,0-9-2.2-9.9-6.1l6.9-1.3c0.5,1.4,1.8,2.3,3.3,2.1c2,0,3.6-1,3.6-3.5v-1.2
		c-1.3,1.5-3.3,2.3-5.3,2.2c-5.5,0-8.5-4.4-8.5-9.9s3-9.9,8.5-9.9c2-0.1,4,0.8,5.3,2.3v-1.9h7.3V150
		C123,156.4,118.3,159.8,111.8,159.8z M112.5,138c-2.1,0-3.2,1.7-3.2,4.1s1.1,4.1,3.2,4.1c1.9,0,3.2-1.3,3.2-3.7v-0.8
		C115.7,139.2,114.4,138,112.5,138L112.5,138z"/>
	<path class="st1" d="M127.3,145.5c2,1.5,4.5,2.4,7,2.5c1.4,0,2.4-0.3,2.4-1.1c0-1-1-1.1-4.3-1.6s-6.9-1.5-6.9-5.9s4-7.1,9.1-7.1
		c3.2-0.1,6.3,0.9,8.8,2.8l-3.1,4.4c-1.6-1.3-3.6-2-5.7-2.1c-1.2,0-2,0.3-2,1.1s1,1,3.4,1.4c3.8,0.7,7.7,1.7,7.7,6.2
		c0,4.7-4.3,7.2-9.9,7.2c-3.3,0-7.4-1-9.4-2.7L127.3,145.5z"/>
	<path class="st1" d="M145.9,144.9h8.1v7.8h-8.1V144.9z"/>
</g>
<g>
	<g>
		<path class="st1" d="M82.5,567l2.2,9.4l2.2-9.4h4.4l-4.1,15.8H83l-2.3-9.3l-2.3,9.3h-4.1L70.1,567h4.5l2.2,9.4L79,567H82.5z"/>
		<path class="st1" d="M90.8,576.9c0-3.5,2.6-6,6-6c3.6,0,5.6,2.6,5.6,6v0.9h-7.6c0.2,1.3,1,1.9,2.1,1.9c1,0,1.7-0.4,2-1.3l3.4,1
			c-0.9,2.3-3.2,3.5-5.5,3.5C93.2,583,90.8,580.5,90.8,576.9z M95,575.6h3.5c0-0.8-0.6-1.6-1.6-1.6C95.9,574,95.2,574.5,95,575.6z"
			/>
		<path class="st1" d="M113.5,583c-3.5,0-6-2.5-6-6.1c0-3.6,2.4-6.1,6-6.1c3.5,0,5.9,2.5,5.9,6.1C119.4,580.6,117,583,113.5,583z
			 M113.5,579.7c1.1,0,1.8-0.9,1.8-2.7c0-1.8-0.7-2.7-1.8-2.7c-1.1,0-1.9,0.9-1.9,2.7C111.6,578.8,112.3,579.7,113.5,579.7z"/>
		<path class="st1" d="M120.7,571.2h4.2v1.1c0.6-0.7,1.7-1.3,3.2-1.3c2.3,0,3.9,1.6,3.9,4.2v7.7h-4.2v-6.5c0-1-0.4-1.7-1.3-1.7
			c-0.8,0-1.5,0.5-1.5,1.7v6.5h-4.2V571.2z"/>
		<path class="st1" d="M137.9,582.8h-4.2V567h4.2V582.8z"/>
		<path class="st1" d="M141.7,586.8c-0.7,0-1.1,0-1.5-0.1v-3.2c0.3,0,0.5,0.1,0.9,0.1c0.7,0,1.2-0.2,1.4-0.9l0.2-0.5l-4-11h4.3
			l2,6.4l2-6.4h4.1l-4.1,11.2C145.8,585.2,144.7,586.8,141.7,586.8z"/>
		<path class="st1" d="M156.1,567h4.2v5.2c0.6-0.7,1.7-1.3,3.2-1.3c2.3,0,3.9,1.6,3.9,4.2v7.7h-4.2v-6.5c0-1-0.4-1.7-1.3-1.7
			c-0.8,0-1.5,0.5-1.5,1.7v6.5h-4.2V567z"/>
		<path class="st1" d="M174.5,583c-3.5,0-6-2.5-6-6.1c0-3.6,2.4-6.1,6-6.1s5.9,2.5,5.9,6.1C180.4,580.6,178,583,174.5,583z
			 M174.5,579.7c1.1,0,1.8-0.9,1.8-2.7c0-1.8-0.7-2.7-1.8-2.7c-1.1,0-1.9,0.9-1.9,2.7C172.6,578.8,173.4,579.7,174.5,579.7z"/>
		<path class="st1" d="M185.9,581.7v4.9h-4.2v-15.4h4.2v1.1c0.6-0.8,1.7-1.3,3-1.3c3.1,0,4.9,2.7,4.9,6.1c0,3.3-1.8,6.1-4.9,6.1
			C187.6,583,186.5,582.5,185.9,581.7z M185.9,577.3c0,1.4,0.7,2.3,1.8,2.3c1.2,0,1.9-1.1,1.9-2.5c0-1.4-0.7-2.5-1.9-2.5
			c-1.1,0-1.8,0.8-1.8,2.3V577.3z"/>
		<path class="st1" d="M194.5,576.9c0-3.5,2.6-6,6-6c3.6,0,5.6,2.6,5.6,6v0.9h-7.6c0.2,1.3,1,1.9,2.1,1.9c1,0,1.7-0.4,2-1.3l3.4,1
			c-0.9,2.3-3.2,3.5-5.5,3.5C196.9,583,194.5,580.5,194.5,576.9z M198.6,575.6h3.5c0-0.8-0.6-1.6-1.6-1.6
			C199.6,574,198.9,574.5,198.6,575.6z"/>
	</g>
	<g>
		<path class="st1" d="M73.1,611.7c-0.7,0-1.1,0-1.5-0.1v-3.2c0.3,0,0.5,0.1,0.9,0.1c0.7,0,1.2-0.2,1.4-0.9l0.2-0.5l-4-11h4.3l2,6.4
			l2-6.4h4.1l-4.1,11.2C77.2,610.1,76.1,611.7,73.1,611.7z"/>
		<path class="st1" d="M88,608c-3.5,0-6-2.5-6-6.1c0-3.6,2.4-6.1,6-6.1c3.5,0,5.9,2.5,5.9,6.1C93.9,605.5,91.5,608,88,608z
			 M88,604.6c1.1,0,1.8-0.9,1.8-2.7c0-1.8-0.7-2.7-1.8-2.7c-1.1,0-1.9,0.9-1.9,2.7C86.1,603.7,86.8,604.6,88,604.6z"/>
		<path class="st1" d="M106.3,607.7h-4.2v-1.1c-0.6,0.7-1.7,1.3-3.1,1.3c-2.3,0-4-1.6-4-4.2v-7.7h4.2v6.7c0,0.9,0.4,1.6,1.4,1.6
			c0.8,0,1.5-0.5,1.5-1.7v-6.6h4.2V607.7z"/>
		<path class="st1" d="M117.9,604.6c1,0,1.5-0.7,1.7-1.7l3.6,1.2c-0.4,2-2.3,3.9-5.4,3.9c-3.5,0-5.9-2.5-5.9-6.1
			c0-3.6,2.4-6.1,5.9-6.1c3.1,0,5,1.9,5.4,3.8l-3.6,1.3c-0.2-1-0.7-1.7-1.7-1.7c-1.2,0-1.9,1-1.9,2.7
			C116,603.6,116.7,604.6,117.9,604.6z"/>
		<path class="st1" d="M123.7,604.5c0-2.6,2.3-3.5,4.9-3.8l2.2-0.3v-0.2c0-0.7-0.4-1.1-1.3-1.1c-0.8,0-1.3,0.4-1.4,1.2l-4-0.5
			c0.4-2.1,2.4-3.9,5.6-3.9c3.2,0,5.2,1.4,5.2,4.1v4.1c0,0.5,0.2,0.7,0.8,0.6v3c-2.1,0.4-3.8,0.1-4.5-0.9c-0.8,0.7-1.9,1.2-3.4,1.2
			C125.4,608,123.7,606.5,123.7,604.5z M130.8,602.9l-1.7,0.2c-0.8,0.1-1.3,0.4-1.3,1c0,0.6,0.4,0.9,1.1,0.9c1,0,1.9-0.5,1.9-1.5
			V602.9z"/>
		<path class="st1" d="M137,596.2h4.2v1.1c0.6-0.7,1.7-1.3,3.2-1.3c2.3,0,3.9,1.6,3.9,4.2v7.7H144v-6.5c0-1-0.4-1.7-1.3-1.7
			c-0.8,0-1.5,0.5-1.5,1.7v6.5H137V596.2z"/>
		<path class="st1" d="M158.5,599.8l3.1-3.6h4.8l-4,4.2l4.3,7.4H162l-2.5-4.3l-1,1.1v3.2h-4.2V592h4.2V599.8z"/>
		<path class="st1" d="M166.2,601.9c0-3.5,2.6-6,6-6c3.6,0,5.6,2.6,5.6,6v0.9h-7.6c0.2,1.3,1,1.9,2.1,1.9c1,0,1.7-0.4,2-1.3l3.4,1
			c-0.9,2.3-3.2,3.5-5.5,3.5C168.6,608,166.2,605.5,166.2,601.9z M170.3,600.5h3.5c0-0.8-0.6-1.6-1.6-1.6
			C171.3,599,170.6,599.5,170.3,600.5z"/>
		<path class="st1" d="M178.6,601.9c0-3.5,2.6-6,6-6c3.6,0,5.6,2.6,5.6,6v0.9h-7.6c0.2,1.3,1,1.9,2.1,1.9c1,0,1.7-0.4,2-1.3l3.4,1
			c-0.9,2.3-3.2,3.5-5.5,3.5C181,608,178.6,605.5,178.6,601.9z M182.7,600.5h3.5c0-0.8-0.6-1.6-1.6-1.6
			C183.6,599,183,599.5,182.7,600.5z"/>
		<path class="st1" d="M195.7,606.6v4.9h-4.2v-15.4h4.2v1.1c0.6-0.8,1.7-1.3,3-1.3c3.1,0,4.9,2.7,4.9,6.1c0,3.3-1.8,6.1-4.9,6.1
			C197.3,608,196.2,607.4,195.7,606.6z M195.7,602.2c0,1.4,0.7,2.3,1.8,2.3c1.2,0,1.9-1.1,1.9-2.5c0-1.4-0.7-2.5-1.9-2.5
			c-1.1,0-1.8,0.8-1.8,2.3V602.2z"/>
		<path class="st1" d="M220.4,607.7h-4.2v-1.1c-0.6,0.7-1.7,1.3-3.1,1.3c-2.3,0-3.9-1.6-3.9-4.2v-7.7h4.2v6.7c0,0.9,0.4,1.6,1.4,1.6
			c0.8,0,1.5-0.5,1.5-1.7v-6.6h4.2V607.7z"/>
		<path class="st1" d="M226.4,606.6v4.9h-4.2v-15.4h4.2v1.1c0.6-0.8,1.7-1.3,3-1.3c3.1,0,4.9,2.7,4.9,6.1c0,3.3-1.8,6.1-4.9,6.1
			C228.1,608,227,607.4,226.4,606.6z M226.4,602.2c0,1.4,0.7,2.3,1.8,2.3c1.2,0,1.9-1.1,1.9-2.5c0-1.4-0.7-2.5-1.9-2.5
			c-1.1,0-1.8,0.8-1.8,2.3V602.2z"/>
		<path class="st1" d="M235.3,603.3h4.7v4.5h-4.7V603.3z"/>
	</g>
</g>
</svg>
