<svg xmlns="http://www.w3.org/2000/svg" viewBox="0 0 81.99 12.76"><defs><style>.cls-1{fill:#ffede5;}</style></defs><title>t1</title><g id="Layer_2" data-name="Layer 2"><g id="Layer_1-2" data-name="Layer 1"><path class="cls-1" d="M4.11,2V4.89H6.83V6.17H4.11V9.06H2.71V6.17H0V4.89H2.71V2Z"/><path class="cls-1" d="M12.68.12a.33.33,0,0,1,.15.05A.38.38,0,0,1,13,.26a1,1,0,0,1,.14.15l5.32,6.77c0-.16,0-.32,0-.48s0-.3,0-.43V.11H20V10.23h-1a.82.82,0,0,1-.37-.07.71.71,0,0,1-.28-.25L13.1,3.17c0,.15,0,.3,0,.45s0,.28,0,.4v6.21H11.49V.11h1.19Z"/><path class="cls-1" d="M25.18,2.94a4,4,0,0,1,1.46.26,3.16,3.16,0,0,1,1.11.73,3.3,3.3,0,0,1,.72,1.17,4.31,4.31,0,0,1,.25,1.53,4.4,4.4,0,0,1-.25,1.54,3.3,3.3,0,0,1-.72,1.17,3,3,0,0,1-1.11.74,4,4,0,0,1-1.46.26,4,4,0,0,1-1.46-.26,3.13,3.13,0,0,1-1.13-.74,3.3,3.3,0,0,1-.72-1.17,4.4,4.4,0,0,1-.25-1.54,4.31,4.31,0,0,1,.25-1.53,3.3,3.3,0,0,1,.72-1.17,3.24,3.24,0,0,1,1.13-.73A4,4,0,0,1,25.18,2.94Zm0,6.07a1.5,1.5,0,0,0,1.32-.6,3,3,0,0,0,.44-1.77,3,3,0,0,0-.44-1.77,1.51,1.51,0,0,0-1.32-.61,1.54,1.54,0,0,0-1.35.62,3,3,0,0,0-.43,1.76,3,3,0,0,0,.43,1.76A1.54,1.54,0,0,0,25.18,9Z"/><path class="cls-1" d="M38.58,2a.46.46,0,0,1-.18.22.48.48,0,0,1-.24.06.62.62,0,0,1-.32-.1,4.37,4.37,0,0,0-.41-.25,3.25,3.25,0,0,0-.56-.24,2.37,2.37,0,0,0-.75-.11,2,2,0,0,0-.68.1,1.34,1.34,0,0,0-.49.26,1,1,0,0,0-.3.4,1.27,1.27,0,0,0-.1.52.92.92,0,0,0,.2.59,1.6,1.6,0,0,0,.53.41,5.32,5.32,0,0,0,.75.3l.86.28a8.93,8.93,0,0,1,.85.35,3,3,0,0,1,.75.51A2.22,2.22,0,0,1,39,6a2.65,2.65,0,0,1,.2,1.07A3.65,3.65,0,0,1,39,8.35a3.05,3.05,0,0,1-.69,1,3.19,3.19,0,0,1-1.1.7,4.08,4.08,0,0,1-1.49.26,5.13,5.13,0,0,1-1-.1,4.37,4.37,0,0,1-.89-.27,3.88,3.88,0,0,1-.81-.42A4,4,0,0,1,32.38,9l.55-.91A.69.69,0,0,1,33.11,8a.44.44,0,0,1,.24-.07.64.64,0,0,1,.38.15l.48.31a3.28,3.28,0,0,0,.65.32,2.42,2.42,0,0,0,.9.15A1.84,1.84,0,0,0,37,8.42a1.36,1.36,0,0,0,.44-1.09,1,1,0,0,0-.2-.65,1.64,1.64,0,0,0-.53-.43A4.35,4.35,0,0,0,36,6l-.85-.25a9,9,0,0,1-.86-.34,2.87,2.87,0,0,1-.74-.51A2.24,2.24,0,0,1,33,4.07a2.84,2.84,0,0,1-.2-1.16A2.71,2.71,0,0,1,33,1.83,2.82,2.82,0,0,1,33.65.9a3.12,3.12,0,0,1,1-.65A3.66,3.66,0,0,1,36.1,0a4.61,4.61,0,0,1,1.65.28A4,4,0,0,1,39,1.06Z"/><path class="cls-1" d="M42.29,3.05V7.62a1.54,1.54,0,0,0,.3,1A1.1,1.1,0,0,0,43.5,9a1.93,1.93,0,0,0,.85-.2,3.38,3.38,0,0,0,.74-.55V3.05h1.73v7.18H45.76a.42.42,0,0,1-.44-.31l-.12-.57a4.25,4.25,0,0,1-.46.4,2.72,2.72,0,0,1-.51.32,2.64,2.64,0,0,1-.58.2,2.86,2.86,0,0,1-.67.08,2.61,2.61,0,0,1-1-.2,2.15,2.15,0,0,1-.76-.57,2.45,2.45,0,0,1-.46-.86,3.48,3.48,0,0,1-.16-1.1V3.05Z"/><path class="cls-1" d="M48.8,10.23V3.05h1a.51.51,0,0,1,.37.1.57.57,0,0,1,.14.34l.1.86a3.49,3.49,0,0,1,.91-1,1.92,1.92,0,0,1,1.16-.38,1.52,1.52,0,0,1,.88.24l-.22,1.3a.38.38,0,0,1-.09.18.36.36,0,0,1-.19.05,1.35,1.35,0,0,1-.29-.05,2,2,0,0,0-.48,0,1.48,1.48,0,0,0-.93.3,2.42,2.42,0,0,0-.65.87v4.47Z"/><path class="cls-1" d="M57.15,2.93A4.07,4.07,0,0,1,58,3a3,3,0,0,1,.74.28h2.06v.64a.37.37,0,0,1-.08.25.49.49,0,0,1-.29.13l-.64.12c0,.12.08.25.11.38a3,3,0,0,1,0,.43,2.12,2.12,0,0,1-.21,1,2.09,2.09,0,0,1-.59.73,2.52,2.52,0,0,1-.89.47,3.59,3.59,0,0,1-1.11.16,4.07,4.07,0,0,1-.79-.07A.55.55,0,0,0,56,8a.35.35,0,0,0,.2.32,1.91,1.91,0,0,0,.53.14,5.35,5.35,0,0,0,.73,0,8.19,8.19,0,0,1,.85,0,6,6,0,0,1,.85.12,2.52,2.52,0,0,1,.74.28,1.52,1.52,0,0,1,.52.52,1.57,1.57,0,0,1,.2.83,2.06,2.06,0,0,1-.23.93,2.57,2.57,0,0,1-.68.8,3.62,3.62,0,0,1-1.09.57,4.74,4.74,0,0,1-1.47.21,5.39,5.39,0,0,1-1.42-.16,3.07,3.07,0,0,1-1-.42,1.77,1.77,0,0,1-.59-.6,1.45,1.45,0,0,1-.2-.72,1.2,1.2,0,0,1,.31-.84,2.2,2.2,0,0,1,.85-.55,1.21,1.21,0,0,1-.42-.39,1.13,1.13,0,0,1-.16-.64,1,1,0,0,1,.05-.33,1.8,1.8,0,0,1,.17-.34,1.77,1.77,0,0,1,.71-.59,2.24,2.24,0,0,1-.86-.78,2.08,2.08,0,0,1-.31-1.15,2.18,2.18,0,0,1,.21-1,2.13,2.13,0,0,1,.6-.74,2.55,2.55,0,0,1,.9-.46A3.79,3.79,0,0,1,57.15,2.93ZM59,10.54a.5.5,0,0,0-.12-.35,1.05,1.05,0,0,0-.34-.22,3.24,3.24,0,0,0-.51-.11,6.13,6.13,0,0,0-.62,0h-.67a3,3,0,0,1-.67-.08,1.82,1.82,0,0,0-.47.38.79.79,0,0,0-.18.51.7.7,0,0,0,.09.35.87.87,0,0,0,.31.29,1.56,1.56,0,0,0,.53.18,3.75,3.75,0,0,0,.81.07,4,4,0,0,0,.83-.08,2.3,2.3,0,0,0,.58-.2.92.92,0,0,0,.33-.32A.76.76,0,0,0,59,10.54ZM57.15,6.47a1.6,1.6,0,0,0,.56-.09,1.08,1.08,0,0,0,.39-.24.91.91,0,0,0,.24-.37,1.51,1.51,0,0,0,.08-.48,1.1,1.1,0,0,0-.32-.84,1.63,1.63,0,0,0-1.91,0,1.14,1.14,0,0,0-.32.84,1.4,1.4,0,0,0,.08.47,1.23,1.23,0,0,0,.24.38,1.22,1.22,0,0,0,.4.24A1.6,1.6,0,0,0,57.15,6.47Z"/><path class="cls-1" d="M65,2.94a3.35,3.35,0,0,1,1.25.22,2.7,2.7,0,0,1,1,.63,3,3,0,0,1,.64,1,3.79,3.79,0,0,1,.23,1.39,3,3,0,0,1,0,.32.66.66,0,0,1-.07.2.25.25,0,0,1-.12.11.56.56,0,0,1-.2,0H63.29a2.46,2.46,0,0,0,.59,1.62A1.84,1.84,0,0,0,65.25,9,2.3,2.3,0,0,0,66,8.9a2.93,2.93,0,0,0,.53-.21l.4-.22a.7.7,0,0,1,.33-.1.48.48,0,0,1,.18,0,.53.53,0,0,1,.14.12l.5.63a2.85,2.85,0,0,1-.64.57,3.69,3.69,0,0,1-.75.36,3.64,3.64,0,0,1-.79.19,5.32,5.32,0,0,1-.78.06,3.73,3.73,0,0,1-1.39-.25,3.15,3.15,0,0,1-1.12-.73,3.45,3.45,0,0,1-.75-1.21,4.69,4.69,0,0,1-.28-1.66,3.93,3.93,0,0,1,.24-1.38A3.38,3.38,0,0,1,62.48,4a3.28,3.28,0,0,1,1.09-.76A3.52,3.52,0,0,1,65,2.94Zm0,1.24a1.57,1.57,0,0,0-1.18.43,2,2,0,0,0-.55,1.21h3.25a2.2,2.2,0,0,0-.09-.64,1.63,1.63,0,0,0-.28-.52,1.42,1.42,0,0,0-.48-.35A1.54,1.54,0,0,0,65.05,4.18Z"/><path class="cls-1" d="M69.67,10.23V3.05h1a.53.53,0,0,1,.37.1.63.63,0,0,1,.14.34l.1.86a3.61,3.61,0,0,1,.9-1,2,2,0,0,1,1.17-.38,1.54,1.54,0,0,1,.88.24L74,4.46a.26.26,0,0,1-.09.18.33.33,0,0,1-.19.05,1.28,1.28,0,0,1-.28-.05,2.11,2.11,0,0,0-.49,0,1.45,1.45,0,0,0-.92.3,2.31,2.31,0,0,0-.65.87v4.47Z"/><path class="cls-1" d="M78.08,12.21a.75.75,0,0,1-.2.28.64.64,0,0,1-.38.09H76.22L77.56,9.7,74.65,3.05h1.52a.46.46,0,0,1,.32.1.87.87,0,0,1,.17.22L78.19,7.1a2.43,2.43,0,0,1,.13.38c0,.13.07.26.1.39q.06-.21.12-.39c0-.13.09-.26.15-.39l1.44-3.72a.58.58,0,0,1,.18-.23.52.52,0,0,1,.29-.09H82Z"/></g></g></svg>