<svg xmlns="http://www.w3.org/2000/svg" viewBox="0 0 18.99 31.24"><defs><style>.cls-1{fill:#ffda00;}</style></defs><title>Asset10</title><g id="Layer_2" data-name="Layer 2"><g id="Layer_1-2" data-name="Layer 1"><path class="cls-1" d="M5.32,12.82h9.5l-1.39,5.95H7ZM14,20.09a.65.65,0,0,0,.64-.51L19,.81A.66.66,0,0,0,18.48,0a.65.65,0,0,0-.79.49l-2.57,11H2.77a.66.66,0,1,0,0,1.32H4l1.64,5.95H1.71a.66.66,0,0,0,0,1.32H7.78v7.12c-1.5.4-6.07,1.62-7.27,1.9a.66.66,0,0,0,.15,1.3l.15,0c1.41-.32,7.2-1.87,7.75-2,.55.15,6.34,1.7,7.76,2l.15,0a.67.67,0,0,0,.64-.51.66.66,0,0,0-.5-.79c-1.27-.3-6.35-1.65-7.51-2V20.09Z"/><path class="cls-1" d="M8.44,28.77a.67.67,0,0,0-.66.66v1.15a.66.66,0,0,0,1.32,0V29.43a.67.67,0,0,0-.66-.66"/></g></g></svg>