<?xml version="1.0" encoding="UTF-8"?><svg id="Layer_2" xmlns="http://www.w3.org/2000/svg" xmlns:xlink="http://www.w3.org/1999/xlink" viewBox="0 0 250 250"><defs><style>.cls-1{fill:none;}.cls-2{clip-path:url(#clippath);}.cls-3{fill:#00b6b6;}</style><clipPath id="clippath"><rect class="cls-1" width="250" height="250"/></clipPath></defs><g id="Layer_1-2"><g id="concept2-250x250"><g class="cls-2"><g><path class="cls-3" d="M12,228.37h1.92v3.46h3.55v-3.46h1.92v8.74h-1.92v-3.51h-3.55v3.51h-1.92v-8.74Z"/><path class="cls-3" d="M20.97,233.81v-.03c0-1.91,1.36-3.48,3.31-3.48,2.24,0,3.26,1.74,3.26,3.63,0,.15-.01,.32-.02,.5h-4.66c.19,.86,.79,1.31,1.64,1.31,.64,0,1.1-.2,1.62-.69l1.09,.96c-.62,.77-1.52,1.25-2.74,1.25-2.01,0-3.5-1.41-3.5-3.46Zm4.72-.56c-.11-.85-.61-1.42-1.41-1.42s-1.3,.56-1.45,1.42h2.86Z"/><path class="cls-3" d="M28.55,235.2v-.02c0-1.46,1.11-2.14,2.7-2.14,.67,0,1.16,.11,1.64,.27v-.11c0-.79-.49-1.22-1.44-1.22-.72,0-1.24,.14-1.85,.36l-.47-1.45c.74-.32,1.46-.54,2.6-.54,1.04,0,1.79,.27,2.26,.75,.5,.5,.72,1.24,.72,2.14v3.89h-1.84v-.72c-.46,.51-1.1,.85-2.02,.85-1.26,0-2.3-.72-2.3-2.05Zm4.36-.44v-.34c-.32-.15-.75-.25-1.21-.25-.81,0-1.31,.32-1.31,.92v.02c0,.51,.42,.81,1.04,.81,.89,0,1.49-.49,1.49-1.17Z"/><path class="cls-3" d="M36.43,228h1.9v9.12h-1.9v-9.12Z"/><path class="cls-3" d="M40.43,235.22v-3.17h-.8v-1.62h.8v-1.71h1.9v1.71h1.57v1.62h-1.57v2.86c0,.44,.19,.65,.61,.65,.35,0,.66-.09,.94-.24v1.52c-.4,.24-.86,.39-1.5,.39-1.16,0-1.95-.46-1.95-2.01Z"/><path class="cls-3" d="M45.3,228h1.9v3.37c.44-.56,1-1.07,1.96-1.07,1.44,0,2.27,.95,2.27,2.49v4.33h-1.9v-3.73c0-.9-.42-1.36-1.15-1.36s-1.19,.46-1.19,1.36v3.73h-1.9v-9.12Z"/><path class="cls-3" d="M52.81,238.69l.64-1.37c.25,.15,.56,.26,.81,.26,.32,0,.5-.1,.66-.44l-2.62-6.72h2.01l1.52,4.56,1.46-4.56h1.97l-2.57,6.86c-.51,1.36-1.06,1.87-2.2,1.87-.69,0-1.2-.17-1.69-.46Z"/><path class="cls-3" d="M64.34,228.37h2.07l2.3,3.7,2.3-3.7h2.07v8.74h-1.91v-5.71l-2.46,3.73h-.05l-2.44-3.7v5.67h-1.89v-8.74Z"/><path class="cls-3" d="M74.66,233.81v-.03c0-1.91,1.36-3.48,3.31-3.48,2.24,0,3.26,1.74,3.26,3.63,0,.15-.01,.32-.02,.5h-4.66c.19,.86,.79,1.31,1.64,1.31,.64,0,1.1-.2,1.62-.69l1.09,.96c-.62,.77-1.52,1.25-2.74,1.25-2.01,0-3.5-1.41-3.5-3.46Zm4.72-.56c-.11-.85-.61-1.42-1.41-1.42s-1.3,.56-1.45,1.42h2.86Z"/><path class="cls-3" d="M82.24,235.2v-.02c0-1.46,1.11-2.14,2.7-2.14,.67,0,1.16,.11,1.64,.27v-.11c0-.79-.49-1.22-1.44-1.22-.72,0-1.24,.14-1.85,.36l-.47-1.45c.74-.32,1.46-.54,2.6-.54,1.04,0,1.79,.27,2.26,.75,.5,.5,.72,1.24,.72,2.14v3.89h-1.84v-.72c-.46,.51-1.1,.85-2.02,.85-1.26,0-2.3-.72-2.3-2.05Zm4.36-.44v-.34c-.32-.15-.75-.25-1.21-.25-.81,0-1.31,.32-1.31,.92v.02c0,.51,.42,.81,1.04,.81,.89,0,1.49-.49,1.49-1.17Z"/><path class="cls-3" d="M90.12,228h1.9v9.12h-1.9v-9.12Z"/><path class="cls-3" d="M93.28,236.23l.81-1.25c.72,.52,1.49,.8,2.11,.8,.55,0,.8-.2,.8-.5v-.02c0-.41-.65-.55-1.39-.77-.94-.27-2-.71-2-2.01v-.03c0-1.36,1.1-2.12,2.45-2.12,.85,0,1.77,.29,2.5,.77l-.72,1.31c-.66-.39-1.32-.62-1.81-.62s-.7,.2-.7,.46v.02c0,.37,.64,.55,1.36,.8,.94,.31,2.02,.76,2.02,1.99v.03c0,1.49-1.11,2.16-2.56,2.16-.94,0-1.99-.31-2.87-1.01Z"/><path class="cls-3" d="M104.03,228.37h3.41c2.75,0,4.65,1.89,4.65,4.35v.02c0,2.46-1.9,4.37-4.65,4.37h-3.41v-8.74Zm3.41,7.01c1.57,0,2.64-1.06,2.64-2.61v-.03c0-1.55-1.06-2.64-2.64-2.64h-1.49v5.27h1.49Z"/><path class="cls-3" d="M113.27,233.81v-.03c0-1.91,1.36-3.48,3.31-3.48,2.24,0,3.26,1.74,3.26,3.63,0,.15-.01,.32-.02,.5h-4.66c.19,.86,.79,1.31,1.64,1.31,.64,0,1.1-.2,1.62-.69l1.09,.96c-.62,.77-1.52,1.25-2.74,1.25-2.01,0-3.5-1.41-3.5-3.46Zm4.72-.56c-.11-.85-.61-1.42-1.41-1.42s-1.3,.56-1.45,1.42h2.86Z"/><path class="cls-3" d="M121.34,228h1.9v9.12h-1.9v-9.12Z"/><path class="cls-3" d="M125.06,228h2v1.69h-2v-1.69Zm.05,2.42h1.9v6.7h-1.9v-6.7Z"/><path class="cls-3" d="M128.2,230.42h2.01l1.5,4.48,1.51-4.48h1.97l-2.64,6.75h-1.72l-2.64-6.75Z"/><path class="cls-3" d="M135.59,233.81v-.03c0-1.91,1.36-3.48,3.31-3.48,2.24,0,3.26,1.74,3.26,3.63,0,.15-.01,.32-.02,.5h-4.66c.19,.86,.79,1.31,1.64,1.31,.64,0,1.1-.2,1.62-.69l1.09,.96c-.62,.77-1.52,1.25-2.74,1.25-2.01,0-3.5-1.41-3.5-3.46Zm4.72-.56c-.11-.85-.61-1.42-1.41-1.42s-1.3,.56-1.45,1.42h2.86Z"/><path class="cls-3" d="M143.58,230.42h1.9v1.35c.39-.92,1.01-1.52,2.14-1.47v1.99h-.1c-1.26,0-2.04,.76-2.04,2.36v2.47h-1.9v-6.7Z"/><path class="cls-3" d="M148.28,233.81v-.03c0-1.91,1.36-3.48,3.31-3.48,2.24,0,3.26,1.74,3.26,3.63,0,.15-.01,.32-.02,.5h-4.66c.19,.86,.79,1.31,1.64,1.31,.64,0,1.1-.2,1.62-.69l1.09,.96c-.62,.77-1.52,1.25-2.74,1.25-2.01,0-3.5-1.41-3.5-3.46Zm4.72-.56c-.11-.85-.61-1.42-1.41-1.42s-1.3,.56-1.45,1.42h2.86Z"/><path class="cls-3" d="M155.97,233.78v-.02c0-2.24,1.46-3.46,3.05-3.46,1.01,0,1.64,.46,2.09,1v-3.3h1.9v9.12h-1.9v-.96c-.46,.62-1.1,1.09-2.09,1.09-1.56,0-3.05-1.22-3.05-3.46Zm5.16,0v-.02c0-1.11-.74-1.85-1.62-1.85s-1.64,.72-1.64,1.85v.02c0,1.11,.75,1.85,1.64,1.85s1.62-.74,1.62-1.85Z"/></g></g></g></g></svg>