<?xml version="1.0" encoding="utf-8"?>
<!-- Generator: Adobe Illustrator 26.0.3, SVG Export Plug-In . SVG Version: 6.00 Build 0)  -->
<svg version="1.1" id="Layer_1" xmlns="http://www.w3.org/2000/svg" xmlns:xlink="http://www.w3.org/1999/xlink" x="0px" y="0px"
	 viewBox="0 0 300 600" style="enable-background:new 0 0 300 600;" xml:space="preserve">
<style type="text/css">
	.st0{clip-path:url(#SVGID_00000072262805046366610860000000462112880642324116_);}
	.st1{clip-path:url(#SVGID_00000025444186319732816450000015849619747994453642_);}
	.st2{fill:#FFFFFF;}
</style>
<g>
	<defs>
		<rect id="SVGID_1_" width="300" height="600"/>
	</defs>
	<clipPath id="SVGID_00000138536901364106849970000001878624372145472898_">
		<use xlink:href="#SVGID_1_"  style="overflow:visible;"/>
	</clipPath>
	<g style="clip-path:url(#SVGID_00000138536901364106849970000001878624372145472898_);">
		<g>
			<defs>
				<rect id="SVGID_00000020359238443781403650000008816274390384558262_" width="300" height="600"/>
			</defs>
			<clipPath id="SVGID_00000132790424346316027040000016427980926960469381_">
				<use xlink:href="#SVGID_00000020359238443781403650000008816274390384558262_"  style="overflow:visible;"/>
			</clipPath>
			<g style="clip-path:url(#SVGID_00000132790424346316027040000016427980926960469381_);">
				<path class="st2" d="M39.9,177.4c0,1.7-0.7,2.6-2,2.6H25.6c-0.9,0-1.5-0.3-1.8-0.8c-0.2-0.6-0.3-1.2-0.3-1.8v-34.8
					c0-1.8,0.7-2.6,2-2.6h11.9c0.5-0.1,1,0.1,1.4,0.3c0.3,0.3,0.5,1,0.5,2v2.2c0,1.3-0.3,2.1-0.9,2.3c-0.3,0.1-0.7,0.2-1,0.2h-5.9
					c-0.5,0-0.9,0.1-1,0.4c-0.1,0.3-0.1,0.6-0.1,0.9v5.6c0,0.4,0,0.7,0.2,1.1c0.1,0.1,0.4,0.2,0.9,0.2h3c1.2,0,1.7,0.7,1.7,2.1v3.1
					c0,1.3-0.6,2-1.7,2h-3c-0.3,0-0.6,0-0.9,0.2c-0.2,0.2-0.2,0.5-0.2,0.7v8.4c0,0.9,0.4,1.3,1.3,1.3h5.9c1.4,0,2.1,0.9,2.1,2.6
					V177.4z"/>
				<path class="st2" d="M60.3,177.8c0.3,1.5,0,2.2-0.9,2.2h-4.7c-0.8,0.1-1.6-0.5-1.6-1.4c0,0,0-0.1,0-0.1l-2.1-12.4
					c-0.1-0.5-0.3-0.7-0.6-0.7s-0.5,0.2-0.5,0.7l-2.2,12.4c0,0.9-0.8,1.5-1.6,1.5h-4.7c-0.9,0-1.3-0.7-1-2.2l4-18.6l-4-17.1
					c-0.1-0.3-0.1-0.6-0.1-0.9c0-0.8,0.4-1.2,1.3-1.2h4.6c0.8,0,1.4,0.5,1.5,1.6l2.2,11.3c0.1,0.5,0.3,0.8,0.5,0.8s0.4-0.3,0.5-0.8
					l2.2-11.3c0.2-1.1,0.7-1.6,1.5-1.6h4.5c0.9,0,1.3,0.4,1.3,1.2c0,0.3-0.1,0.6-0.2,0.9l-4,17.1L60.3,177.8z"/>
				<path class="st2" d="M77.6,144.8c0.1,0.7-0.1,1.3-0.4,1.9c-0.5,0.3-1,0.5-1.6,0.4H71c-1.1-0.1-2,0.7-2.1,1.8
					c-0.3,3.7-0.5,7.5-0.3,11.2c0,5.6,0,8.1-0.1,7.4c0.2,3.6,1,5.4,2.4,5.4h4.7c1.3,0,1.9,0.7,1.9,2.1v2.9c0,1.4-0.6,2.2-1.8,2.2
					h-7.1c-3,0-5-1.2-5.9-3.7s-1.3-7.6-1.3-15.6c0-12.5-0.1-15.3-0.2-8.3c-0.1-2.9,0.4-5.8,1.4-8.6c0.8-2.4,3.1-4,5.7-3.9h7.4
					c1.2,0,1.9,0.7,1.9,2.1V144.8z"/>
				<path class="st2" d="M99.8,179.1c0.1,0.6-0.2,0.9-0.9,0.9h-5.7c-0.6,0-0.9-0.4-1-1.1l-1.2-8.5c0-0.5-0.5-0.9-1-0.9h-2.5
					c-0.5,0-1,0.3-1,0.9c0,0,0,0,0,0.1l-1,8.6c0,0.6-0.4,1-1,1c0,0-0.1,0-0.1,0h-5.5c-0.8,0-1.1-0.3-1-0.9l4.9-36.8
					c0-1.3,1-2.3,2.3-2.3c0.1,0,0.1,0,0.2,0h7c1.3,0,2.1,0.8,2.3,2.3L99.8,179.1z M90.3,161.8L89.1,148c0-0.6-0.2-0.9-0.5-0.9
					s-0.4,0.3-0.5,0.9l-1,13.7c-0.1,0.4,0.2,0.7,0.8,0.7h1.5C90,162.4,90.3,162.2,90.3,161.8z"/>
				<path class="st2" d="M121.6,141.6l-5.9,36.8c-0.2,1.1-0.7,1.6-1.6,1.6h-6.3c-0.9,0-1.4-0.5-1.6-1.6l-6-36.8
					c-0.2-1.1,0.2-1.6,1.1-1.6h4.6c0.9,0,1.5,0.6,1.6,1.9l2.9,22.8c0.1,0.6,0.3,0.9,0.6,0.9s0.4-0.3,0.5-0.9l2.9-22.8
					c0.2-1.3,0.7-1.9,1.6-1.9h4.6C121.4,140,121.8,140.5,121.6,141.6z"/>
				<path class="st2" d="M142.5,179.1c0.1,0.6-0.2,0.9-0.9,0.9h-5.7c-0.6,0-0.9-0.4-1-1.1l-1.1-8.5c0-0.5-0.5-0.9-1-0.9h-2.5
					c-0.5,0-1,0.4-1,0.9c0,0,0,0,0,0.1l-1,8.6c0,0.6-0.4,1-1,1c0,0-0.1,0-0.1,0h-5.5c-0.8,0-1.1-0.3-1-0.9l4.9-36.8
					c0-1.3,1-2.3,2.3-2.3c0.1,0,0.2,0,0.3,0h7c1.3,0,2.1,0.8,2.3,2.3L142.5,179.1z M133,161.8l-1.1-13.8c0-0.6-0.2-0.9-0.5-0.9
					s-0.4,0.3-0.5,0.9l-1,13.7c-0.1,0.4,0.2,0.7,0.8,0.7h1.5C132.8,162.4,133,162.2,133,161.8z"/>
				<path class="st2" d="M161.4,144.6c0,1.4-0.4,2.2-1.1,2.4c-0.3,0.1-0.5,0.1-0.8,0.1h-3.1c-0.5,0-0.8,0.4-0.8,1.2v29.1
					c0.1,0.7-0.1,1.4-0.4,2.1c-0.2,0.4-0.8,0.6-1.6,0.6h-3.1c-1.1,0-1.7-0.4-1.9-1.2c-0.1-0.4-0.1-0.9-0.1-1.3v-29.3
					c0-0.8-0.3-1.2-0.8-1.2h-3.1c-0.5,0-1-0.1-1.4-0.4c-0.4-0.6-0.6-1.3-0.5-2v-2.1c0-1.3,0.2-2.1,0.8-2.4c0.4-0.2,0.8-0.3,1.2-0.2
					h14.6c1.3,0,1.9,0.8,1.9,2.4L161.4,144.6z"/>
				<path class="st2" d="M181.9,159.9c0,7.4-0.4,12.4-1.2,14.8c-1.3,3.9-4.1,5.8-8.4,5.8c-4.3,0-7.2-1.9-8.5-5.8
					c-0.8-2.4-1.2-7.4-1.2-14.8c0-7.4,0.4-12.3,1.2-14.6c1.3-3.8,4.1-5.7,8.5-5.7s7.2,1.9,8.4,5.7
					C181.5,147.7,181.9,152.6,181.9,159.9z M174.9,159.9c0.1-3.5,0-6.9-0.4-10.3c-0.3-1.6-1-2.4-2.3-2.4s-2,0.8-2.3,2.4
					c-0.3,3.4-0.4,6.9-0.4,10.3c-0.1,3.5,0,7,0.4,10.5c0.3,1.7,1.1,2.5,2.3,2.5s2-0.8,2.3-2.5C174.9,166.9,175,163.4,174.9,159.9z"
					/>
				<path class="st2" d="M203.7,179.2c0,0.6-0.4,0.8-1.1,0.8h-4.7c-0.9,0-1.4-0.6-1.6-1.7l-2.5-14.4c-0.1-0.4-0.3-0.5-0.7-0.5h-0.9
					c-0.4,0-0.6,0.2-0.6,0.5v13.6c0,1.7-0.7,2.5-2,2.5h-3.2c-0.9,0-1.5-0.3-1.7-0.9c-0.2-0.6-0.2-1.1-0.2-1.7v-34.8
					c0-1.8,0.7-2.7,2.1-2.7h8.6c5.5,0,8.2,4.1,8.2,12.4c0,4.2-1.1,7.2-3.2,9l3.5,17.1C203.6,178.7,203.7,178.9,203.7,179.2z
					 M196.4,151.4c0-2.9-0.7-4.4-2.1-4.4h-1.9c-0.5,0-0.8,0.3-0.8,0.8v7.3c0,0.7,0.2,1.1,0.6,1.1h2
					C195.6,156.2,196.4,154.6,196.4,151.4z"/>
				<path class="st2" d="M221.7,173.6c0,4.3-2.1,6.4-6.4,6.4h-8.9c-0.6,0.1-1.2-0.1-1.6-0.5c-0.3-0.6-0.4-1.3-0.4-1.9v-2.1
					c0-1.2,0.2-2,0.6-2.2c0.4-0.2,0.8-0.3,1.3-0.3h6.2c0.8,0.1,1.5-0.4,1.6-1.2c0-0.1,0-0.3,0-0.4c0-0.5-0.1-0.9-0.4-1.3l-6.8-12.8
					c-1.7-3.1-2.7-6.5-2.8-10c0-2.7,0.6-4.6,1.9-5.7c1.1-1.1,3-1.6,5.6-1.6h6.9c1.1,0,1.7,0.7,1.7,2.2v2.6c0,1.5-0.6,2.3-1.8,2.3
					H213c-1.2,0-1.8,0.6-1.8,1.7c0,0.6,0.2,1.3,0.5,1.8l6.4,11.8C220.5,166.9,221.7,170.7,221.7,173.6z"/>
			</g>
		</g>
	</g>
</g>
</svg>
