<?xml version="1.0" encoding="utf-8"?>
<!-- Generator: Adobe Illustrator 26.0.3, SVG Export Plug-In . SVG Version: 6.00 Build 0)  -->
<svg version="1.1" id="Layer_1" xmlns="http://www.w3.org/2000/svg" xmlns:xlink="http://www.w3.org/1999/xlink" x="0px" y="0px"
	 viewBox="0 0 300 600" style="enable-background:new 0 0 300 600;" xml:space="preserve">
<style type="text/css">
	.st0{fill:#FFFFFF;}
</style>
<g>
	<g>
		<path class="st0" d="M39.9,177.4c0,1.7-0.7,2.6-2,2.6H25.6c-0.9,0-1.5-0.3-1.8-0.8c-0.2-0.6-0.3-1.2-0.3-1.9v-34.7
			c0-1.8,0.7-2.6,2-2.6h11.9c0.5,0,1,0.1,1.4,0.3c0.4,0.6,0.6,1.3,0.5,2v2.2c0,1.3-0.3,2.1-0.9,2.3c-0.3,0.1-0.7,0.2-1,0.2h-5.9
			c-0.5,0-0.9,0.1-1,0.4c-0.1,0.3-0.1,0.6-0.1,0.9v5.6c0,0.4,0,0.7,0.2,1.1c0.1,0.1,0.4,0.2,0.9,0.2h3c1.2,0,1.7,0.7,1.7,2.1v3
			c0,1.3-0.6,2-1.7,2h-3c-0.5,0-0.8,0.1-0.9,0.2c-0.1,0.2-0.2,0.5-0.2,0.7v8.4c0,0.9,0.4,1.3,1.3,1.3h5.9c1.4,0,2.1,0.9,2.1,2.6
			V177.4z"/>
		<path class="st0" d="M60.3,177.8c0.3,1.5,0,2.2-0.9,2.2h-4.7c-0.8,0.1-1.6-0.6-1.6-1.4c0,0,0-0.1,0-0.1l-2.1-12.4
			c-0.1-0.5-0.3-0.7-0.6-0.7s-0.5,0.2-0.5,0.7l-2.2,12.4c0,0.8-0.8,1.5-1.6,1.5h-4.7c-0.9,0-1.3-0.7-1-2.2l4-18.5l-4-17.1
			c-0.1-0.3-0.1-0.6-0.1-0.9c0-0.8,0.4-1.2,1.3-1.2h4.6c0.8,0,1.4,0.5,1.5,1.6l2.2,11.3c0.1,0.5,0.3,0.8,0.5,0.8s0.4-0.3,0.5-0.8
			l2.2-11.3c0.2-1.1,0.7-1.6,1.5-1.6h4.5c0.9,0,1.3,0.4,1.3,1.2c0,0.3-0.1,0.6-0.2,0.9l-4,17.1L60.3,177.8z"/>
		<path class="st0" d="M77.6,144.8c0.1,0.7-0.1,1.3-0.4,1.9c-0.5,0.3-1,0.5-1.6,0.4H71c-1.1-0.1-2,0.7-2.1,1.8
			c-0.3,3.7-0.5,7.5-0.3,11.2c0,5.6,0,8.1-0.1,7.4c0.2,3.6,1,5.4,2.4,5.4h4.7c1.3,0,1.9,0.7,1.9,2v2.9c0,1.4-0.6,2.2-1.8,2.2h-7.1
			c-3,0-5-1.2-5.9-3.7s-1.3-7.6-1.3-15.6c0-12.5-0.1-15.3-0.2-8.3c-0.1-2.9,0.4-5.8,1.4-8.6c0.9-2.4,3.1-4,5.7-3.9h7.4
			c1.2,0,1.9,0.7,1.9,2.1V144.8z"/>
		<path class="st0" d="M99.8,179.1c0.1,0.6-0.2,0.9-0.9,0.9h-5.7c-0.6,0-0.9-0.4-1-1.1l-1.2-8.5c0-0.5-0.5-0.9-1-0.9h-2.5
			c-0.5,0-1,0.3-1,0.9c0,0,0,0.1,0,0.1l-1,8.6c0,0.6-0.4,1-1,1c0,0-0.1,0-0.1,0h-5.5c-0.8,0-1.1-0.3-1-0.9l4.9-36.8
			c0-1.3,1-2.3,2.3-2.3c0.1,0,0.1,0,0.2,0h7c1.3,0,2.1,0.8,2.3,2.3L99.8,179.1z M90.3,161.8L89.1,148c0-0.6-0.2-0.9-0.5-0.9
			s-0.4,0.3-0.5,0.9l-1,13.7c-0.1,0.4,0.2,0.7,0.8,0.7h1.5C90,162.4,90.3,162.2,90.3,161.8z"/>
		<path class="st0" d="M121.5,141.6l-5.9,36.8c-0.2,1.1-0.7,1.6-1.6,1.6h-6.3c-0.9,0-1.4-0.5-1.6-1.6l-5.9-36.8
			c-0.2-1.1,0.2-1.6,1.1-1.6h4.6c0.9,0,1.5,0.6,1.6,1.9l2.9,22.8c0.1,0.6,0.3,0.9,0.6,0.9s0.4-0.3,0.5-0.9l2.9-22.8
			c0.2-1.3,0.7-1.9,1.6-1.9h4.6C121.4,140,121.7,140.5,121.5,141.6z"/>
		<path class="st0" d="M142.4,179.1c0.1,0.6-0.2,0.9-0.9,0.9h-5.7c-0.6,0-0.9-0.4-1-1.1l-1.1-8.5c0-0.5-0.5-0.9-1-0.9h-2.5
			c-0.5,0-1,0.4-1,0.9c0,0,0,0,0,0.1l-1,8.6c0,0.6-0.4,1-1,1c0,0-0.1,0-0.1,0h-5.5c-0.8,0-1.1-0.3-1-0.9l4.9-36.8
			c0-1.3,1-2.3,2.3-2.3c0.1,0,0.1,0,0.2,0h7c1.3,0,2.1,0.8,2.3,2.3L142.4,179.1z M132.9,161.8l-1.1-13.8c0-0.6-0.2-0.9-0.5-0.9
			s-0.4,0.3-0.5,0.9l-1,13.7c-0.1,0.4,0.2,0.7,0.8,0.7h1.5C132.7,162.4,133,162.2,132.9,161.8L132.9,161.8z"/>
		<path class="st0" d="M161.3,144.6c0,1.4-0.4,2.2-1.1,2.4c-0.3,0.1-0.5,0.1-0.8,0.1h-3.1c-0.5,0-0.8,0.4-0.8,1.2v29.1
			c0.1,0.7-0.1,1.4-0.4,2.1c-0.2,0.4-0.8,0.6-1.6,0.6h-3.1c-1.1,0-1.7-0.4-1.9-1.2c-0.1-0.4-0.1-0.9-0.1-1.3v-29.3
			c0-0.8-0.3-1.2-0.8-1.2h-3.1c-0.5,0-1-0.1-1.4-0.4c-0.4-0.6-0.6-1.3-0.5-2.1v-2.1c0-1.3,0.2-2.1,0.8-2.4c0.4-0.2,0.8-0.3,1.2-0.2
			h14.6c1.3,0,1.9,0.8,1.9,2.4L161.3,144.6z"/>
		<path class="st0" d="M181.8,159.9c0,7.4-0.4,12.4-1.2,14.8c-1.3,3.9-4.1,5.8-8.4,5.8c-4.3,0-7.2-1.9-8.5-5.8
			c-0.8-2.4-1.2-7.4-1.2-14.8c0-7.4,0.4-12.3,1.2-14.6c1.3-3.8,4.1-5.7,8.5-5.7c4.4,0,7.2,1.9,8.4,5.7
			C181.4,147.7,181.8,152.6,181.8,159.9z M174.8,159.9c0.1-3.5,0-6.9-0.4-10.3c-0.3-1.6-1-2.4-2.3-2.4s-2,0.8-2.3,2.4
			c-0.3,3.4-0.4,6.9-0.4,10.3c-0.1,3.5,0,7,0.4,10.5c0.3,1.7,1,2.6,2.3,2.6c1.2,0,2-0.9,2.3-2.6
			C174.7,166.9,174.9,163.4,174.8,159.9z"/>
		<path class="st0" d="M203.6,179.2c0,0.6-0.4,0.9-1.1,0.9h-4.7c-0.9,0-1.4-0.6-1.6-1.7l-2.5-14.4c-0.1-0.4-0.3-0.5-0.7-0.5h-0.9
			c-0.4,0-0.6,0.2-0.6,0.5v13.6c0,1.7-0.7,2.5-2,2.5h-3.2c-0.9,0-1.5-0.3-1.7-0.9c-0.2-0.6-0.2-1.1-0.2-1.7v-34.7
			c0-1.8,0.7-2.7,2.1-2.7h8.6c5.5,0,8.2,4.1,8.2,12.4c0,4.2-1.1,7.2-3.2,9l3.5,17C203.5,178.6,203.6,178.9,203.6,179.2z
			 M196.2,151.5c0-2.9-0.7-4.4-2.1-4.4h-1.9c-0.5,0-0.8,0.3-0.8,0.8v7.3c0,0.7,0.2,1.1,0.6,1.1h2
			C195.5,156.3,196.2,154.7,196.2,151.5L196.2,151.5z"/>
		<path class="st0" d="M221.6,173.6c0,4.3-2.1,6.4-6.4,6.4h-8.9c-0.6,0.1-1.2-0.1-1.6-0.5c-0.3-0.6-0.4-1.3-0.4-1.9v-2.1
			c0-1.2,0.2-2,0.6-2.3c0.4-0.2,0.8-0.3,1.3-0.3h6.2c0.8,0.1,1.5-0.4,1.6-1.2c0-0.1,0-0.3,0-0.4c0-0.5-0.1-0.9-0.4-1.4l-6.8-12.8
			c-1.7-3.1-2.7-6.5-2.8-10c0-2.7,0.6-4.6,1.9-5.7s3.1-1.7,5.6-1.6h6.9c1.1,0,1.7,0.7,1.7,2.2v2.6c0,1.5-0.6,2.3-1.8,2.3h-5.4
			c-1.2,0-1.8,0.6-1.8,1.7c0,0.6,0.2,1.3,0.5,1.8l6.5,11.9C220.4,166.9,221.6,170.7,221.6,173.6z"/>
	</g>
</g>
</svg>
