<?xml version="1.0" encoding="utf-8"?>
<!-- Generator: Adobe Illustrator 26.0.3, SVG Export Plug-In . SVG Version: 6.00 Build 0)  -->
<svg version="1.1" id="Layer_1" xmlns="http://www.w3.org/2000/svg" xmlns:xlink="http://www.w3.org/1999/xlink" x="0px" y="0px"
	 viewBox="0 0 300 600" style="enable-background:new 0 0 300 600;" xml:space="preserve">
<style type="text/css">
	.st0{fill:#FFFFFF;}
</style>
<g>
	<g>
		<path class="st0" d="M42.8,75.2c0,0.6-0.4,0.8-1.1,0.8H37c-0.9,0-1.4-0.6-1.6-1.7l-2.5-14.4c-0.1-0.3-0.3-0.5-0.7-0.5h-0.9
			c-0.4,0-0.6,0.2-0.6,0.5v13.6c0,1.7-0.7,2.5-2,2.5h-3.2c-0.9,0-1.5-0.3-1.7-0.9c-0.2-0.6-0.2-1.1-0.2-1.7V38.7
			c0-1.8,0.7-2.7,2-2.7h8.6c5.5,0,8.2,4.1,8.2,12.4c0,4.2-1.1,7.2-3.2,9l3.5,17C42.7,74.7,42.8,74.9,42.8,75.2z M35.5,47.5
			c0-2.9-0.7-4.4-2-4.4h-1.9c-0.5,0-0.8,0.3-0.8,0.8v7.3c0,0.7,0.2,1.1,0.6,1.1h2C34.7,52.2,35.5,50.7,35.5,47.5z"/>
		<path class="st0" d="M60.9,73.4c0,1.7-0.7,2.6-2,2.6H46.7c-0.9,0-1.5-0.3-1.8-0.8c-0.2-0.6-0.3-1.2-0.3-1.8V38.6
			c0-1.8,0.7-2.6,2-2.6h11.9c0.5-0.1,1,0.1,1.4,0.3c0.3,0.3,0.5,1,0.5,2v2.2c0,1.3-0.3,2.1-0.9,2.3c-0.3,0.1-0.7,0.2-1.1,0.2h-5.9
			c-0.5,0-0.9,0.1-1,0.4c-0.1,0.3-0.1,0.6-0.1,0.9V50c0,0.3,0,0.7,0.2,1c0.1,0.1,0.4,0.2,0.9,0.2h3c1.2,0,1.7,0.7,1.7,2v3
			c0,1.3-0.6,2-1.7,2h-3c-0.3,0-0.6,0-0.9,0.2c-0.2,0.2-0.2,0.5-0.2,0.7v8.4c0,0.9,0.4,1.3,1.3,1.3h6c1.4,0,2.1,0.9,2.1,2.6V73.4z"
			/>
		<path class="st0" d="M78.2,40.7c0,1.6-0.6,2.4-1.9,2.4h-5.5c-0.5,0-0.8,0.1-1,0.4c-0.1,0.4-0.1,0.8-0.1,1.2v5.5
			c0,0.7,0.2,1.1,0.8,1.1h3.4c0.8,0,1.3,0.2,1.6,0.6c0.2,0.6,0.3,1.2,0.3,1.8v2.1c0,1.7-0.6,2.6-1.9,2.6h-3c-0.5,0-0.8,0.1-1,0.4
			c-0.1,0.4-0.1,0.8-0.1,1.2v13.6c0,1.7-0.6,2.5-1.8,2.5h-3.3c-1,0-1.6-0.3-1.8-1c-0.1-0.5-0.2-1-0.2-1.5V38.8
			c0-1.4,0.3-2.2,0.8-2.5c0.4-0.2,0.8-0.3,1.2-0.2h11.4c1.4,0,2.1,0.8,2.1,2.6V40.7z"/>
		<path class="st0" d="M87,73.5c0.1,0.7-0.1,1.3-0.3,1.9C86.4,75.8,85.9,76,85,76h-3c-0.6,0.1-1.1-0.1-1.6-0.4
			c-0.4-0.6-0.6-1.4-0.5-2.2V38.7c0-1.8,0.7-2.7,2-2.7h3.2c1.2,0,1.9,0.9,1.9,2.7L87,73.5z"/>
		<path class="st0" d="M110.4,73.3c0.1,0.8-0.1,1.6-0.6,2.3c-0.4,0.3-1,0.5-1.6,0.4h-2.8c-0.5,0-1.1-0.1-1.5-0.3
			c-0.4-0.4-0.7-1-0.8-1.5l-5-14.9c-0.2-0.6-0.4-0.8-0.7-0.8s-0.3,0.4-0.3,1.1v13.9c0,1.8-0.6,2.6-1.9,2.6h-3.1
			c-1.4,0-2.2-0.9-2.2-2.7V38.6c-0.1-0.8,0.1-1.6,0.6-2.2c0.5-0.3,1-0.4,1.6-0.4H95c0.5,0,1.1,0.1,1.5,0.3c0.4,0.4,0.7,1,0.8,1.5
			l5,14.9c0.2,0.6,0.4,0.8,0.7,0.8s0.3-0.4,0.3-1.1V38.6c0-1.8,0.6-2.6,1.8-2.6h3.1c1.4,0,2.2,0.9,2.2,2.7L110.4,73.3z"/>
		<path class="st0" d="M129.9,73.4c0,1.7-0.7,2.6-2,2.6h-12.3c-0.9,0-1.5-0.3-1.8-0.8c-0.2-0.6-0.3-1.2-0.3-1.8V38.6
			c0-1.8,0.7-2.6,2-2.6h11.9c0.5-0.1,1,0.1,1.4,0.3c0.4,0.3,0.5,1,0.5,2v2.2c0,1.3-0.3,2.1-0.9,2.3c-0.3,0.1-0.7,0.2-1.1,0.2h-5.9
			c-0.6,0-0.9,0.1-1,0.4c-0.1,0.3-0.1,0.6-0.1,0.9V50c0,0.4,0,0.7,0.2,1.1c0.1,0.1,0.4,0.2,0.9,0.2h3c1.2,0,1.7,0.7,1.7,2v3
			c0,1.3-0.6,2-1.7,2h-3c-0.3,0-0.6,0-0.9,0.2c-0.2,0.2-0.2,0.5-0.2,0.7v8.4c0,0.9,0.4,1.3,1.3,1.3h5.9c1.4,0,2.1,0.9,2.1,2.6
			L129.9,73.4z"/>
		<path class="st0" d="M151,56c0.1,4.3-0.1,8.6-0.6,12.9c-0.4,2.8-1.2,4.8-2.3,5.8c-1,0.9-2.5,1.3-4.7,1.3h-9.7
			c-1,0-1.6-0.2-1.9-0.8c-0.2-0.6-0.3-1.2-0.2-1.8V38.7c0-1.8,0.6-2.7,1.9-2.7h10.3c2.9-0.2,5.5,1.7,6.1,4.5
			C150.6,42.9,151,48.1,151,56z M143.9,56.6c0-4.9,0-8-0.1-9.4c-0.1-1.9-0.4-3.1-0.9-3.5c-0.7-0.5-1.5-0.6-2.3-0.5
			c-0.6-0.1-1.1,0-1.6,0.3c-0.3,0.2-0.4,0.7-0.4,1.5v22.4c0,0.8,0.1,1.2,0.3,1.4c0.6,0.2,1.2,0.3,1.9,0.2c0.8,0.1,1.5-0.1,2.1-0.5
			c0.4-0.5,0.7-1.6,0.9-3.2C143.8,63.7,143.9,60.9,143.9,56.6L143.9,56.6z"/>
	</g>
</g>
</svg>
