<?xml version="1.0" encoding="utf-8"?>
<!-- Generator: Adobe Illustrator 26.0.3, SVG Export Plug-In . SVG Version: 6.00 Build 0)  -->
<svg version="1.1" id="Layer_1" xmlns="http://www.w3.org/2000/svg" xmlns:xlink="http://www.w3.org/1999/xlink" x="0px" y="0px"
	 viewBox="0 0 300 600" style="enable-background:new 0 0 300 600;" xml:space="preserve">
<style type="text/css">
	.st0{fill:#FFFFFF;}
</style>
<g>
	<g>
		<path class="st0" d="M43,129.1c0.3,0.3,0.5,0.6,0.5,1c0,0.4-0.3,0.6-0.8,0.9l-4,1.8c-0.2,0.1-0.4,0.1-0.6,0.1
			c-0.4,0-0.9-0.4-1.5-1.2l-2.6-3.3h-0.7h-0.7c-4.3,0-7.1-1.9-8.4-5.8c-0.8-2.4-1.2-7.3-1.2-14.7c0-7.4,0.4-12.3,1.2-14.7
			c1.3-3.8,4.1-5.7,8.4-5.7s7.2,1.9,8.5,5.7c0.8,2.4,1.2,7.2,1.2,14.7c0,4.9-0.1,8.4-0.3,10.4c-0.4,3.2-1.1,5.6-2.3,7.2L43,129.1z
			 M35.3,107.9c0.1-3.5,0-6.9-0.4-10.3c-0.3-1.6-1.1-2.4-2.3-2.4s-2,0.8-2.3,2.4c-0.3,3.4-0.4,6.9-0.3,10.3c-0.1,3.5,0,7,0.4,10.5
			c0.3,1.7,1.1,2.5,2.3,2.5c1.5,0,2.5-1.8,2.7-5.4L35.3,107.9z"/>
		<path class="st0" d="M63.9,116.6c0,3.8-0.6,6.6-1.7,8.4c-1.5,2.3-4.2,3.5-8.1,3.5s-6.4-1-7.8-3c-1.2-1.7-1.8-4.6-1.8-8.6V90.6
			c-0.1-0.7,0.1-1.4,0.3-2c0.4-0.5,1.1-0.7,1.8-0.6h3.2c0.8,0,1.3,0.2,1.5,0.7c0.2,0.6,0.3,1.2,0.3,1.8v27.4c0,2.1,0.9,3.1,2.6,3.1
			s2.5-1,2.5-3.2V90.5c-0.1-0.7,0.1-1.3,0.4-1.9c0.2-0.3,0.8-0.5,1.5-0.5H62c1,0,1.5,0.3,1.7,0.9c0.1,0.5,0.2,1.1,0.2,1.6
			L63.9,116.6z"/>
		<path class="st0" d="M87,127.1c0.1,0.6-0.2,0.9-0.9,0.9h-5.7c-0.6,0-0.9-0.4-1-1.1l-1.1-8.5c0-0.5-0.5-0.9-1-0.9h-2.5
			c-0.5,0-1,0.3-1,0.9c0,0,0,0,0,0.1l-1,8.6c0,0.6-0.4,1-1,1c0,0-0.1,0-0.1,0h-5.5c-0.8,0-1.1-0.3-1-0.9L70,90.3
			c0-1.3,1-2.3,2.3-2.3c0.1,0,0.1,0,0.2,0h7c1.3,0,2.1,0.8,2.3,2.3L87,127.1z M77.5,109.8L76.4,96c0-0.6-0.2-0.9-0.5-0.9
			s-0.4,0.3-0.5,0.9l-1,13.7c-0.1,0.4,0.2,0.7,0.8,0.7h1.5C77.3,110.4,77.6,110.2,77.5,109.8L77.5,109.8z"/>
		<path class="st0" d="M103.7,125.4c0,1.7-0.8,2.6-2.2,2.6H90.8c-0.9,0-1.4-0.2-1.7-0.6c-0.3-0.6-0.4-1.3-0.3-2V90.6
			c0-1.7,0.7-2.6,2-2.6h3.2c0.8,0,1.4,0.2,1.6,0.7c0.2,0.6,0.3,1.2,0.3,1.9v29.1c0,0.8,0.3,1.2,1,1.2h4.9c1.3,0,2,0.8,2,2.5
			L103.7,125.4z"/>
		<path class="st0" d="M112.5,125.5c0.1,0.7-0.1,1.3-0.3,1.9c-0.2,0.4-0.8,0.6-1.7,0.6h-3c-0.6,0.1-1.1-0.1-1.6-0.4
			c-0.4-0.6-0.6-1.4-0.5-2.2V90.7c0-1.8,0.7-2.7,2-2.7h3.2c1.2,0,1.9,0.9,1.9,2.7L112.5,125.5z"/>
		<path class="st0" d="M132.8,92.6c0,1.4-0.4,2.2-1.1,2.4c-0.3,0.1-0.5,0.1-0.8,0.1h-3.1c-0.5,0-0.8,0.4-0.8,1.2v29.1
			c0.1,0.7-0.1,1.4-0.4,2.1c-0.2,0.4-0.8,0.6-1.6,0.6H122c-1.1,0-1.7-0.4-1.9-1.2c-0.1-0.4-0.1-0.9-0.1-1.3V96.3
			c0-0.8-0.3-1.2-0.8-1.2h-3.1c-0.5,0-1-0.1-1.3-0.3c-0.4-0.6-0.6-1.3-0.5-2v-2.1c0-1.3,0.3-2.1,0.8-2.4c0.4-0.2,0.8-0.3,1.2-0.2
			h14.6c1.3,0,1.9,0.8,1.9,2.4L132.8,92.6z"/>
		<path class="st0" d="M153.4,90.1l-6.6,22.6v12.7c0.1,0.7-0.1,1.5-0.4,2.1c-0.4,0.4-1,0.5-1.6,0.5h-3.1c-0.9,0-1.4-0.2-1.7-0.6
			c-0.3-0.6-0.4-1.3-0.3-2v-12.7l-6.6-22.6c-0.4-1.4,0-2.1,1.1-2.1h4c0.8,0,1.3,0.5,1.6,1.4l3.1,13c0.1,0.4,0.3,0.6,0.4,0.6
			s0.3-0.2,0.4-0.6l3-13c0.2-1,0.8-1.4,1.6-1.4h4C153.4,88,153.8,88.7,153.4,90.1z"/>
	</g>
</g>
</svg>
