<?xml version="1.0" encoding="utf-8"?>
<!-- Generator: Adobe Illustrator 26.0.3, SVG Export Plug-In . SVG Version: 6.00 Build 0)  -->
<svg version="1.1" id="Layer_1" xmlns="http://www.w3.org/2000/svg" xmlns:xlink="http://www.w3.org/1999/xlink" x="0px" y="0px"
	 viewBox="0 0 300 600" style="enable-background:new 0 0 300 600;" xml:space="preserve">
<style type="text/css">
	.st0{fill:#FFFFFF;}
</style>
<g>
	<g>
		<path class="st0" d="M31,448l-2.5,15.3c-0.1,0.5-0.3,0.7-0.7,0.7h-2.6c-0.4,0-0.6-0.2-0.7-0.7L22.1,448c-0.1-0.5,0.1-0.7,0.5-0.7
			h1.9c0.4,0,0.6,0.3,0.7,0.8l1.2,9.5c0,0.2,0.1,0.4,0.2,0.4s0.2-0.1,0.2-0.4l1.2-9.5c0.1-0.5,0.3-0.8,0.7-0.8h1.9
			C30.9,447.3,31.1,447.5,31,448z"/>
		<path class="st0" d="M39.4,455.6c0.1,2.1-0.1,4.1-0.5,6.2c-0.4,1.5-1.9,2.6-3.5,2.4c-1.6,0.1-3.1-0.9-3.5-2.4
			c-0.4-2-0.6-4.1-0.5-6.2c-0.1-2,0.1-4.1,0.5-6.1c0.5-1.5,1.9-2.5,3.5-2.4c1.6-0.2,3.1,0.8,3.5,2.4
			C39.4,451.5,39.5,453.6,39.4,455.6z M36.5,455.6c0-1.4,0-2.9-0.2-4.3c-0.1-0.7-0.4-1-0.9-1s-0.8,0.3-1,1c-0.1,1.4-0.2,2.9-0.2,4.3
			c0,1.5,0,2.9,0.2,4.4c0.1,0.7,0.4,1.1,1,1.1s0.8-0.4,1-1.1C36.5,458.5,36.5,457.1,36.5,455.6z"/>
		<path class="st0" d="M46.7,462.9c0,0.7-0.3,1.1-0.9,1.1h-4.5c-0.4,0-0.6-0.1-0.7-0.3c-0.1-0.3-0.2-0.5-0.1-0.8v-14.5
			c0-0.7,0.3-1.1,0.8-1.1h1.3c0.3,0,0.6,0.1,0.7,0.3c0.1,0.2,0.1,0.5,0.1,0.8v12.1c0,0.4,0.1,0.5,0.4,0.5h2c0.6,0,0.8,0.4,0.8,1
			L46.7,462.9z"/>
		<path class="st0" d="M54.4,448L52,463.3c-0.1,0.5-0.3,0.7-0.7,0.7h-2.7c-0.4,0-0.6-0.2-0.7-0.7L45.5,448c-0.1-0.5,0.1-0.7,0.5-0.7
			h1.9c0.4,0,0.6,0.3,0.7,0.8l1.2,9.5c0,0.2,0.1,0.4,0.2,0.4s0.2-0.1,0.2-0.4l1.2-9.5c0.1-0.5,0.3-0.8,0.7-0.8H54
			C54.4,447.3,54.5,447.5,54.4,448z"/>
		<path class="st0" d="M62.8,455.6c0.1,2.1-0.1,4.1-0.5,6.2c-0.4,1.5-1.9,2.6-3.5,2.4c-1.6,0.1-3.1-0.9-3.5-2.4
			c-0.4-2-0.6-4.1-0.5-6.2c-0.1-2,0.1-4.1,0.5-6.1c0.5-1.5,1.9-2.5,3.5-2.4c1.6-0.2,3.1,0.8,3.5,2.4
			C62.8,451.5,62.9,453.6,62.8,455.6z M59.9,455.6c0-1.4,0-2.9-0.2-4.3c-0.1-0.7-0.4-1-0.9-1s-0.8,0.3-1,1c-0.1,1.4-0.2,2.9-0.2,4.3
			c0,1.5,0,2.9,0.2,4.4c0.1,0.7,0.4,1.1,1,1.1s0.8-0.4,1-1.1C59.9,458.5,60,457.1,59.9,455.6z"/>
		<path class="st0" d="M74,462.9c0,0.7-0.3,1.1-0.8,1.1h-5.1c-0.4,0-0.6-0.1-0.7-0.3c-0.1-0.2-0.1-0.5-0.1-0.8v-14.5
			c0-0.7,0.3-1.1,0.8-1.1h5c0.2,0,0.4,0,0.6,0.1c0.2,0.1,0.2,0.4,0.2,0.8v0.9c0,0.5-0.1,0.9-0.4,1c-0.1,0-0.3,0.1-0.4,0.1h-2.5
			c-0.2,0-0.4,0.1-0.4,0.2c0,0.1,0,0.3,0,0.4v2.3c0,0.2,0,0.3,0.1,0.4c0,0.1,0.2,0.1,0.4,0.1h1.2c0.5,0,0.7,0.3,0.7,0.9v1.3
			c0,0.5-0.2,0.8-0.7,0.8h-1.3c-0.1,0-0.3,0-0.4,0.1c-0.1,0.1-0.1,0.2-0.1,0.3v3.5c0,0.3,0.1,0.5,0.4,0.5c0,0,0.1,0,0.1,0h2.5
			c0.6,0,0.9,0.4,0.9,1.1L74,462.9z"/>
		<path class="st0" d="M81.1,449.3c0,0.3,0,0.5-0.2,0.8c-0.2,0.1-0.4,0.2-0.7,0.2h-1.9c-0.4,0-0.8,0.3-0.9,0.7
			c-0.1,1.6-0.2,3.1-0.1,4.7c0,2.3,0,3.4,0,3.1c0.1,1.5,0.4,2.2,1,2.2h2c0.5,0,0.8,0.3,0.8,0.9v1.2c0,0.6-0.2,0.9-0.8,0.9h-3
			c-1.1,0.1-2.1-0.5-2.4-1.5c-0.5-2.1-0.7-4.3-0.6-6.5c0-5.2,0-6.4-0.1-3.5c0-1.2,0.2-2.4,0.6-3.6c0.4-1,1.3-1.7,2.4-1.6h3.1
			c0.5,0,0.8,0.3,0.8,0.9L81.1,449.3z"/>
		<path class="st0" d="M89.8,463.6c0,0.2-0.2,0.4-0.4,0.4h-2c-0.4,0-0.6-0.2-0.7-0.7l-1-6c0-0.1-0.1-0.2-0.3-0.2h-0.3
			c-0.2,0-0.3,0.1-0.3,0.2v5.7c0,0.7-0.3,1-0.8,1h-1.4c-0.4,0-0.6-0.1-0.7-0.4c-0.1-0.2-0.1-0.5-0.1-0.7v-14.5
			c0-0.8,0.3-1.1,0.9-1.1h3.6c2.3,0,3.4,1.7,3.4,5.1c0.1,1.4-0.4,2.8-1.3,3.7l1.4,7.1C89.8,463.4,89.8,463.5,89.8,463.6z
			 M86.8,452.1c0-1.2-0.3-1.8-0.9-1.8h-0.8c-0.2,0-0.3,0.1-0.3,0.3v3c0,0.3,0.1,0.5,0.2,0.5h0.8C86.5,454.1,86.8,453.4,86.8,452.1
			L86.8,452.1z"/>
		<path class="st0" d="M96.8,459.2c0.1,1.3-0.1,2.6-0.7,3.7c-0.6,0.8-1.5,1.2-2.4,1.1h-2.8c-0.4,0-0.6-0.1-0.7-0.2
			c-0.1-0.2-0.2-0.5-0.2-0.8v-0.9c0-0.5,0.1-0.9,0.3-1c0.2-0.1,0.3-0.1,0.5-0.1h2c0.2,0,0.4,0,0.6-0.1c0.2-0.2,0.3-0.8,0.3-1.8
			c0-1.2-0.3-1.9-0.8-1.9h-1.4c-0.2,0-0.4,0-0.5-0.1c-0.2-0.3-0.2-0.6-0.2-0.9v-1c0-0.4,0.1-0.8,0.4-1.1l1.8-1.4
			c0.4-0.3,0.7-0.8,0.7-1.4c0-0.8-0.3-1.1-0.8-1.1h-2c-0.4,0-0.6-0.1-0.7-0.2c-0.1-0.2-0.2-0.5-0.1-0.7v-0.9c0-0.3,0-0.6,0.1-0.8
			c0.1-0.2,0.3-0.3,0.7-0.3h2.9c0.8-0.1,1.6,0.2,2.1,0.8c0.6,1,0.8,2.2,0.7,3.3c0,1.8-0.5,2.9-1.5,3.4c0.4,0.3,0.7,0.6,1,1
			C96.7,456.9,96.9,458,96.8,459.2z"/>
		<path class="st0" d="M104,458.9c0.1,1.3-0.1,2.7-0.7,3.9c-0.4,0.8-1.3,1.3-2.2,1.2H98c-0.5,0-0.8-0.1-0.8-0.4c0-0.2,0-0.4,0-0.6
			v-0.9c0-0.6,0.1-0.9,0.4-1c0.2,0,0.3-0.1,0.5-0.1h1.9c0.6,0,0.9-0.8,0.9-2.3s-0.3-2.3-0.9-2.3h-1.7c-0.6,0-0.9-0.2-0.9-0.8v-7.2
			c0-0.8,0.3-1.1,0.8-1.1h4.7c0.6,0,0.8,0.4,0.8,1.1v0.9c0,0.7-0.3,1-0.8,1h-2.2c-0.1,0-0.2,0-0.3,0.1c-0.1,0.1-0.1,0.3-0.1,0.5v2.3
			c0,0.3,0.1,0.5,0.3,0.5h0.5c0.8-0.1,1.5,0.3,1.9,0.9C103.7,455.2,104,456.7,104,458.9z"/>
		<path class="st0" d="M111.1,458.9c0.1,1.3-0.1,2.7-0.7,3.9c-0.4,0.8-1.3,1.3-2.2,1.2h-3c-0.5,0-0.7-0.1-0.8-0.4c0-0.2,0-0.4,0-0.6
			v-0.9c0-0.6,0.1-0.9,0.4-1c0.2,0,0.3-0.1,0.5-0.1h2c0.6,0,0.9-0.8,0.9-2.3s-0.3-2.3-0.9-2.3h-1.7c-0.6,0-0.9-0.2-0.9-0.8v-7.2
			c0-0.8,0.3-1.1,0.8-1.1h4.5c0.6,0,0.8,0.4,0.8,1.1v0.9c0,0.7-0.3,1-0.8,1h-2.2c-0.1,0-0.2,0-0.3,0.1c-0.1,0.1-0.1,0.3-0.1,0.5v2.3
			c0,0.3,0.1,0.5,0.3,0.5h0.5c0.8-0.1,1.5,0.3,1.9,0.9C110.8,455.2,111.1,456.7,111.1,458.9z"/>
		<path class="st0" d="M118.7,462.9c0,0.7-0.3,1.1-0.8,1.1h-5.1c-0.4,0-0.6-0.1-0.7-0.3c-0.1-0.2-0.1-0.5-0.1-0.8v-14.5
			c0-0.7,0.3-1.1,0.8-1.1h4.9c0.2,0,0.4,0,0.6,0.1c0.2,0.1,0.2,0.4,0.2,0.8v0.9c0,0.5-0.1,0.9-0.4,1c-0.1,0.1-0.3,0.1-0.4,0.1h-2.4
			c-0.2,0-0.4,0.1-0.4,0.2c0,0.1,0,0.3,0,0.4v2.3c0,0.2,0,0.3,0.1,0.4c0,0.1,0.2,0.1,0.4,0.1h1.2c0.5,0,0.7,0.3,0.7,0.9v1.3
			c0,0.5-0.2,0.8-0.7,0.8h-1.2c-0.1,0-0.3,0-0.4,0.1c-0.1,0.1-0.1,0.2-0.1,0.3v3.5c0,0.3,0.1,0.5,0.4,0.5c0,0,0.1,0,0.1,0h2.5
			c0.6,0,0.9,0.4,0.9,1.1L118.7,462.9z"/>
		<path class="st0" d="M125.6,462.9c0,0.7-0.3,1.1-0.9,1.1h-4.5c-0.4,0-0.6-0.1-0.7-0.3c-0.1-0.3-0.2-0.5-0.1-0.8v-14.5
			c0-0.7,0.3-1.1,0.8-1.1h1.3c0.3,0,0.6,0.1,0.7,0.3c0.1,0.2,0.1,0.5,0.1,0.8v12.1c0,0.4,0.1,0.5,0.4,0.5h2c0.6,0,0.8,0.4,0.8,1
			L125.6,462.9z"/>
	</g>
</g>
</svg>
