<?xml version="1.0" encoding="utf-8"?>
<!-- Generator: Adobe Illustrator 23.0.3, SVG Export Plug-In . SVG Version: 6.00 Build 0)  -->
<svg version="1.1" id="Layer_1" xmlns="http://www.w3.org/2000/svg" xmlns:xlink="http://www.w3.org/1999/xlink" x="0px" y="0px"
	 viewBox="0 0 89.9 13.3" style="enable-background:new 0 0 89.9 13.3;" xml:space="preserve">
<style type="text/css">
	.st0{fill:#231F20;}
</style>
<title>tc_1</title>
<g>
	<g id="Layer_1-2">
		<path class="st0" d="M11.3,9.5V8.1h1.2V2.7h-1.2v1.9H10V1.3h7.3v3.3h-1.4V2.7h-1.2v5.4h1.2v1.4C15.9,9.5,11.3,9.5,11.3,9.5z"/>
		<path class="st0" d="M26.7,8.2v1.3h-2.4l-0.7-0.9C22.9,9.2,22,9.6,21,9.6c-0.7,0-1.5-0.2-2.1-0.7c-0.5-0.4-0.8-1.1-0.8-1.8
			c0-0.5,0.2-1,0.5-1.4c0.5-0.6,1.1-1,1.8-1.2C20,4.1,19.7,3.6,19.7,3c0-0.5,0.2-1.1,0.7-1.3c0.4-0.3,1-0.5,1.5-0.5
			c0.6,0,1.1,0.2,1.5,0.5c0.4,0.2,0.7,0.7,0.7,1.1c-0.1,0.8-0.6,1.6-1.4,1.9l1.1,1.5c0.4-0.6,0.8-1.1,1.1-1.7h2v1.3h-1
			c-0.2,0.6-0.6,1.1-1,1.5l0.7,0.8H26.7z M21.2,5.5C20.4,5.8,20,6.3,20,6.9c0,0.3,0.2,0.6,0.4,0.8c0.2,0.2,0.7,0.4,1,0.4
			c0.5,0,1.1-0.2,1.4-0.7L21.2,5.5z M21.8,3.7c0.5-0.2,0.8-0.5,0.8-0.8c0-0.2-0.1-0.3-0.2-0.4c-0.2-0.1-0.3-0.2-0.5-0.2
			c-0.2,0-0.3,0.1-0.5,0.2c-0.1,0.1-0.2,0.2-0.2,0.4C21.4,3.2,21.7,3.4,21.8,3.7z"/>
		<path class="st0" d="M34.5,1.4h1.4v2.8h-1.4c-0.2-0.9-1.1-1.5-2-1.5c-0.7-0.1-1.4,0.2-1.8,0.8s-0.7,1.2-0.7,2s0.2,1.4,0.7,1.9
			c0.4,0.5,1,0.7,1.6,0.7c0.5,0,1.1-0.2,1.5-0.6c0.4-0.4,0.7-1,0.8-1.5l1.6,0.7c-0.5,1.8-2.2,3-4,2.8c-1.2,0.1-2.4-0.3-3.3-1.1
			c-0.7-0.8-1.1-1.9-1.1-3c0-0.8,0.2-1.5,0.6-2.3C28.8,2.5,29.3,2,30,1.6c0.7-0.2,1.4-0.4,2.1-0.4c0.9,0,1.7,0.2,2.4,0.7V1.4z"/>
		<path class="st0" d="M37.2,9.5v-2h1.3c0,0.2,0.2,0.5,0.4,0.7c0.2,0.2,0.6,0.2,0.9,0.2c0.2,0,0.5,0,0.7-0.2
			c0.2-0.1,0.2-0.2,0.2-0.4c0-0.2-0.1-0.2-0.2-0.3c-0.3-0.1-0.6-0.2-0.9-0.2c-0.7-0.1-1.4-0.3-2-0.7c-0.4-0.2-0.7-0.7-0.6-1.2
			c0-0.5,0.2-0.9,0.6-1.1c0.4-0.3,1-0.5,1.5-0.5c0.5,0,1,0.1,1.5,0.2V3.8h1.3v1.6h-1.3c-0.1-0.4-0.6-0.6-1.2-0.6
			c-0.5,0-0.8,0.2-0.8,0.4c0,0.1,0.1,0.2,0.2,0.2c0.2,0.1,0.6,0.2,0.8,0.2c0.6,0.1,1.1,0.2,1.6,0.3c0.3,0.1,0.6,0.3,0.8,0.6
			c0.2,0.3,0.3,0.7,0.3,1.1c0,0.5-0.2,1-0.6,1.4c-0.5,0.4-1.1,0.6-1.7,0.5c-0.5,0.1-1-0.1-1.4-0.4v0.3L37.2,9.5z"/>
		<path class="st0" d="M54,8.1v1.4h-4V8.1h1.1l-0.4-1.4h-2.1l-0.4,1.4h1.1v1.4h-3.6V8.1h1l1.6-5.4h-1.1V1.4h5.3v1.4h-1.1l1.7,5.4
			L54,8.1L54,8.1z M50.3,5.6l-0.7-2.4l-0.7,2.4H50.3z"/>
		<path class="st0" d="M58.1,10.7V12h-3.9v-1.3h1V5.1h-0.8V3.8h2.6v0.7c0.4-0.5,1.1-0.8,1.7-0.8c0.7,0,1.4,0.3,1.8,0.9
			c0.4,0.6,0.7,1.3,0.7,2s-0.2,1.5-0.7,2.1c-0.4,0.6-1.1,0.8-1.8,0.8c-0.7,0-1.2-0.2-1.6-0.7v1.8L58.1,10.7z M59.1,6.6
			c0-0.4-0.1-0.8-0.3-1.1c-0.2-0.2-0.5-0.4-0.8-0.3c-0.3,0-0.7,0.2-0.8,0.4c-0.2,0.3-0.3,0.7-0.3,1.1s0.1,0.7,0.3,1.1
			C57.3,8,57.6,8.2,58,8.2c0.3,0,0.7-0.1,0.8-0.3C59.1,7.4,59.2,7.1,59.1,6.6L59.1,6.6z"/>
		<path class="st0" d="M65.5,10.7V12h-3.9v-1.3h1V5.1h-0.8V3.8h2.6v0.7c0.4-0.5,1.1-0.8,1.7-0.8c0.7,0,1.4,0.3,1.8,0.9
			s0.7,1.3,0.7,2.1c0,0.7-0.2,1.5-0.7,2.1c-0.4,0.6-1.1,0.8-1.8,0.8c-0.7,0-1.2-0.2-1.6-0.7v1.8L65.5,10.7z M66.6,6.6
			c0-0.4-0.1-0.8-0.3-1.1c-0.2-0.2-0.5-0.4-0.8-0.3c-0.3,0-0.7,0.2-0.8,0.4c-0.2,0.3-0.3,0.7-0.3,1.1s0.1,0.7,0.3,1.1
			c0.2,0.2,0.5,0.4,0.8,0.4c0.3,0,0.7-0.1,0.8-0.3C66.5,7.4,66.7,7.1,66.6,6.6L66.6,6.6z"/>
		<path class="st0" d="M69.4,9.5V8.2h0.9V2.7h-0.9V1.4h2.7v6.8h0.8v1.3L69.4,9.5z"/>
		<path class="st0" d="M74.4,12.1v-1.3h1.1l0.4-1l-2-4.6H73V3.8h3.4v1.3h-0.7l0.9,2.5l1-2.5h-0.7V3.8h3v1.3h-0.8l-2.7,6.9H74.4z"/>
	</g>
</g>
</svg>
