<svg xmlns="http://www.w3.org/2000/svg" viewBox="0 0 272.23 63.82"><defs><style>.cls-1{fill:#fff;}.cls-2{fill:#ffe800;}.cls-3{fill:#0b6c76;}</style></defs><title>slideB</title><g id="Layer_2" data-name="Layer 2"><g id="Layer_1-2" data-name="Layer 1"><path class="cls-1" d="M104.93,51.27v3.24h-1V47.63h2.41a2,2,0,0,1,1.34.41,1.81,1.81,0,0,1,.68,1.41,1.85,1.85,0,0,1-.68,1.42,1.73,1.73,0,0,1-.81.36l2.47,3.28h-1.19l-2.45-3.24Zm1.37-.93a1.06,1.06,0,0,0,.83-.26.88.88,0,0,0,.26-.63.9.9,0,0,0-.26-.63,1.06,1.06,0,0,0-.83-.25h-1.37v1.77Z"/><polygon class="cls-1" points="116.85 50.34 116.85 51.27 113.96 51.27 113.96 53.58 117.64 53.58 117.64 54.51 112.97 54.51 112.97 47.63 117.54 47.63 117.54 48.57 113.96 48.57 113.96 50.34 116.85 50.34 116.85 50.34"/><polygon class="cls-1" points="123.76 54.51 123.11 54.51 121.08 47.63 122.03 47.63 123.47 52.62 125.05 47.63 125.7 47.63 127.27 52.62 128.72 47.63 129.66 47.63 127.63 54.51 126.99 54.51 125.37 49.42 123.76 54.51 123.76 54.51"/><path class="cls-1" d="M137.52,52.74h-2.91l-.71,1.77h-1l2.85-6.88h.69l2.86,6.88h-1l-.72-1.77ZM135,51.81h2.12l-1.06-2.56L135,51.81Z"/><path class="cls-1" d="M144.05,51.27v3.24h-1V47.63h2.41a2,2,0,0,1,1.34.41,1.81,1.81,0,0,1,.68,1.41,1.85,1.85,0,0,1-.68,1.42,1.73,1.73,0,0,1-.81.36l2.47,3.28h-1.19l-2.45-3.24Zm1.37-.93a1.08,1.08,0,0,0,.83-.26.92.92,0,0,0,.25-.63.94.94,0,0,0-.25-.63,1.08,1.08,0,0,0-.83-.25h-1.37v1.77Z"/><path class="cls-1" d="M152.09,54.51V47.63h2.07a3.77,3.77,0,0,1,2.36.65,3.54,3.54,0,0,1,0,5.59,3.81,3.81,0,0,1-2.37.64Zm4-5.36a2.79,2.79,0,0,0-2-.58h-1v5h1a2.84,2.84,0,0,0,2-.58,2.65,2.65,0,0,0,0-3.85Z"/><path class="cls-1" d="M162,52.76a2.23,2.23,0,0,0,1.72.9A1.13,1.13,0,0,0,165,52.6c0-1.07-1.49-1.19-2.42-1.8a1.8,1.8,0,0,1-.89-1.55,2,2,0,0,1,2.13-1.87,2.88,2.88,0,0,1,1.88.71l-.59.73a1.92,1.92,0,0,0-1.25-.48,1,1,0,0,0-1.17.94c0,.9,1.5,1.09,2.4,1.69a1.85,1.85,0,0,1,.91,1.6,2,2,0,0,1-2.17,2,3.14,3.14,0,0,1-2.46-1.17l.69-.68Z"/><path class="cls-1" d="M167.69,53.83v.37h-.16v-.83h.3a.33.33,0,0,1,.19.06.28.28,0,0,1,.07.17.24.24,0,0,1-.07.17.26.26,0,0,1-.09,0l.31.38h-.19l-.3-.37Zm.14-.14.08,0a.14.14,0,0,0,0-.07.14.14,0,0,0,0-.06.15.15,0,0,0-.08,0h-.14v.18Z"/><path class="cls-1" d="M167.83,54.6a.81.81,0,1,1,.8-.81.81.81,0,0,1-.8.81Zm0-1.48a.68.68,0,1,0,.67.67.67.67,0,0,0-.67-.67Z"/><path class="cls-1" d="M136.38,37.66a2.07,2.07,0,0,0-.89-.23,1.27,1.27,0,0,0-1.06.6v4.8h-1.88V36.1h1.72l.11.71a1.68,1.68,0,0,1,1.41-.85,1.86,1.86,0,0,1,.59.1v1.6Zm4.45-1.6a1.81,1.81,0,0,0-.59-.1,1.7,1.7,0,0,0-1.41.85l-.1-.71H137v6.73h1.88V38a1.27,1.27,0,0,1,1.06-.6,2,2,0,0,1,.88.23v-1.6Zm-9.43,2v4.8h-1.72l-.11-.7a2.34,2.34,0,0,1-1.81.84A1.8,1.8,0,0,1,126,41.05c0-2.38,2.8-2.72,3.58-2.8v-.19c0-.39-.33-.79-1.2-.79a3.28,3.28,0,0,0-1.75.59V36.48a5.4,5.4,0,0,1,2.35-.52c1.73,0,2.47.78,2.47,2.07Zm-1.87,1.54c-.6,0-1.69.2-1.69,1.14a.77.77,0,0,0,.74.82c.53,0,.95-.38.95-1.24v-.72Zm-10.31-5.46,1.69,3.62-.66,1.42-2.82-6-2.14,1L117,37.72c-.14.29-.35.74-.69,1.48-.77,1.64-1.37,2.1-2.43,2.1a2.76,2.76,0,0,1-.85-.15l-1,2.14a4.25,4.25,0,0,0,1.6.33c1.25,0,2.17-.81,3-2.53l1-2.11,1.79,3.85H122l-1.13-2.43L121.5,39l1.79,3.85h2.61l-4.53-9.72-2.15,1Zm37.48,2V33.88l-1.87.87V36.1h-.61v1.17h.61v5.56h1.87V37.27h1V36.1Zm-15.16,6.73h1.88V36.1h-1.88v6.73Zm11.18-8.95-1.88.87V36.1h-.6v1.17h.6v5.56h1.88V37.27h.95V36.1h-.95V33.88Zm-2.92,5V40c0,1.6-.78,2.95-2.71,2.95s-2.7-1.34-2.7-2.95V38.91c0-1.61.78-2.95,2.7-2.95s2.71,1.35,2.71,2.95Zm-1.89-.27c0-.8-.2-1.37-.82-1.37s-.81.57-.81,1.37v1.65c0,.8.19,1.37.81,1.37s.82-.57.82-1.37V38.64Z"/><path class="cls-1" d="M147.83,61.71A1.67,1.67,0,1,1,146.16,60a1.66,1.66,0,0,1,1.67,1.67"/><path class="cls-1" d="M151.8,61.71a1.51,1.51,0,1,1-1.5-1.52,1.51,1.51,0,0,1,1.5,1.52"/><path class="cls-1" d="M155.79,61.71a1.36,1.36,0,1,1-1.36-1.36,1.36,1.36,0,0,1,1.36,1.36"/><path class="cls-1" d="M159.77,61.71a1.2,1.2,0,1,1-1.2-1.2,1.2,1.2,0,0,1,1.2,1.2"/><path class="cls-1" d="M163.75,61.71a1.05,1.05,0,1,1-1.05-1.05,1,1,0,0,1,1.05,1.05"/><path class="cls-1" d="M167.73,61.71a.9.9,0,1,1-.9-.9.89.89,0,0,1,.9.9"/><path class="cls-1" d="M142.83,61.71A1.85,1.85,0,1,1,141,59.85a1.85,1.85,0,0,1,1.85,1.86"/><path class="cls-1" d="M123.23,61.71A1.67,1.67,0,1,0,124.9,60a1.66,1.66,0,0,0-1.67,1.67"/><path class="cls-1" d="M119.26,61.71a1.51,1.51,0,1,0,3,0,1.51,1.51,0,1,0-3,0"/><path class="cls-1" d="M115.27,61.71a1.36,1.36,0,1,0,1.36-1.36,1.36,1.36,0,0,0-1.36,1.36"/><path class="cls-1" d="M111.29,61.71a1.21,1.21,0,1,0,1.2-1.2,1.2,1.2,0,0,0-1.2,1.2"/><path class="cls-1" d="M107.31,61.71a1,1,0,1,0,1-1.05,1,1,0,0,0-1,1.05"/><path class="cls-1" d="M103.33,61.71a.9.9,0,0,0,1.79,0,.9.9,0,1,0-1.79,0"/><path class="cls-1" d="M128.23,61.71a1.85,1.85,0,1,0,1.85-1.86,1.85,1.85,0,0,0-1.85,1.86"/><path class="cls-1" d="M133.46,61.71a2.11,2.11,0,1,0,2.1-2.11,2.11,2.11,0,0,0-2.1,2.11"/><polygon class="cls-1" points="182.07 63.76 181.6 63.76 181.6 31.76 182.07 31.76 182.07 63.76 182.07 63.76"/><polygon class="cls-1" points="90.17 63.76 89.7 63.76 89.7 31.76 90.17 31.76 90.17 63.76 90.17 63.76"/><path class="cls-1" d="M259.9,58.3l0-.12a.06.06,0,0,0-.09,0,1.19,1.19,0,0,1-.52.14c-.47,0-.55-.32-.55-.72V55.2h1s.08,0,.08-.07v-.3c0-.06,0-.07-.09-.07h-1V53.59c0-.08-.05-.11-.08-.11a.1.1,0,0,0-.09.08l-.42,1a.28.28,0,0,1-.24.21h-.52a.08.08,0,0,0-.09.09v.25a.1.1,0,0,0,.09.09h.71v2.56c0,.59.37.81,1.1.81a1.46,1.46,0,0,0,.73-.2.06.06,0,0,0,0-.07M257,57.48c0-1.31-2.26-1.18-2.26-1.95,0-.35.3-.53.7-.53.7,0,1,.11,1.25.79,0,0,0,.08.07.08s.06-.08.06-.11l0-.88a.11.11,0,0,0-.09-.1,11.65,11.65,0,0,0-1.22-.1c-.91,0-1.24.44-1.24,1,0,1.29,2.23,1,2.23,2,0,.38-.43.58-.77.58a1.22,1.22,0,0,1-1.4-.91.1.1,0,0,0-.09-.1c-.07,0-.08.05-.07.11s0,.32.05.47,0,.34,0,.47.06.1.12.12a5.51,5.51,0,0,0,1.26.18c.76,0,1.39-.23,1.39-1.13M252.83,56a.28.28,0,0,1-.23.3,2.11,2.11,0,0,1-.47,0h-.91c-.09,0-.14-.06-.13-.16.09-.7.45-1.17,1-1.17s.78.32.78,1m.69.38a1.49,1.49,0,0,0-1.47-1.68,1.78,1.78,0,0,0-1.68,1.94c0,1.44.84,2,1.65,2a1.52,1.52,0,0,0,1.36-.79s0,0,0-.07l-.14-.12s-.05,0-.07,0a1.3,1.3,0,0,1-1,.54c-.5,0-1.1-.35-1.14-1.4a.19.19,0,0,1,.19-.18h2.07c.1,0,.2-.13.2-.26m-3.39,2.09c0-.05-.07-.08-.15-.1l-.25-.05a.4.4,0,0,1-.31-.4V55.46l0-.58c0-.08-.05-.11-.12-.11h-1c-.08,0-.15,0-.15.07s.07.07.15.1l.19.05a.4.4,0,0,1,.29.41v2c0,.42-.61.7-1,.7a.76.76,0,0,1-.84-.81V55.48c0-.36.05-.46.11-.52s.12-.08.12-.13,0-.06-.12-.06h-1.23c-.08,0-.14,0-.14.07s.06.07.14.1L246,55a.4.4,0,0,1,.29.41v1.79a1.25,1.25,0,0,0,1.26,1.42,1.4,1.4,0,0,0,1.12-.51,0,0,0,0,1,.09,0l.14.32a.16.16,0,0,0,.15.09h.9c.08,0,.14,0,.14-.07M245.68,56a.11.11,0,0,0-.12-.09h-1.33q-.12,0-.12.06c0,.06.06.07.12.13a.43.43,0,0,1,.1.32v.88c0,.54-.63.93-1.12.93-1.23,0-1.56-1.27-1.56-2.25s.16-2.53,1.43-2.53c.89,0,1.24.39,1.45,1.28,0,.06.05.1.1.1s.06,0,.06-.13V53.31c0-.05-.05-.12-.1-.12-.5,0-1-.12-1.53-.12-1.23,0-2.25,1-2.25,2.76,0,1.91,1.1,2.78,2.36,2.78a1.93,1.93,0,0,0,1-.27.18.18,0,0,1,.21,0l.55.25.12,0s.07,0,.07-.08a.07.07,0,0,0,0-.07.41.41,0,0,1-.07-.25V56.53a.37.37,0,0,1,.29-.4l.28-.06c.08,0,.12,0,.12-.08"/><path class="cls-1" d="M270.5,50.26a.42.42,0,0,1-.06.19,1.11,1.11,0,0,1-.84.51c-.52,0-1-.38-1-1.54,0-1,.39-1.62,1-1.62s.91.3.91.92v1.54Zm1.35,1s-.06-.08-.14-.1l-.28,0a.38.38,0,0,1-.29-.4V46.21l0-.59a.12.12,0,0,0-.13-.11h-1.21c-.08,0-.15,0-.15.07s.08.09.15.1l.37.06a.36.36,0,0,1,.29.39v1.42c0,.05,0,.08-.08.06a2.7,2.7,0,0,0-.87-.13,1.77,1.77,0,0,0-1.64,1.94c0,1.44.72,2,1.53,2a1.3,1.3,0,0,0,1-.44s.05,0,.07,0a.07.07,0,0,1,.06,0l.12.24c0,.07.07.11.14.11h.92c.08,0,.14,0,.14-.07m-5.15-2.47a.27.27,0,0,1-.22.3,2.15,2.15,0,0,1-.48,0h-.9A.13.13,0,0,1,265,49c.09-.71.45-1.17,1-1.17s.78.32.78,1m.7.38a1.5,1.5,0,0,0-1.48-1.68,1.78,1.78,0,0,0-1.68,2c0,1.43.84,2,1.65,2a1.51,1.51,0,0,0,1.36-.79.06.06,0,0,0,0-.07l-.15-.11s0,0-.07,0a1.24,1.24,0,0,1-.95.54c-.5,0-1.09-.35-1.13-1.39a.18.18,0,0,1,.19-.18h2.06c.11,0,.21-.15.21-.27M264,47.67c0-.07-.09-.12-.14-.14a1.67,1.67,0,0,0-.31-.05,1.32,1.32,0,0,0-1.17.63s0,0-.05,0a.07.07,0,0,1-.06,0l-.13-.42a.13.13,0,0,0-.14-.1h-.9c-.08,0-.14,0-.14.07s.06.08.14.1l.28,0a.37.37,0,0,1,.29.39V50.7a.39.39,0,0,1-.28.4l-.19,0c-.08,0-.14.06-.14.11s.06.06.14.06h1.6c.08,0,.14,0,.14-.07s-.06-.07-.14-.1l-.19,0a.4.4,0,0,1-.29-.4V48.79a.8.8,0,0,1,.1-.38.9.9,0,0,1,.74-.43c.27,0,.44.06.52.27s.05.26.14.26.08-.06.09-.14l.09-.7Zm-3.08,0c0-.07-.09-.12-.14-.14a1.44,1.44,0,0,0-.31-.05,1.29,1.29,0,0,0-1.16.63s0,0-.05,0a.06.06,0,0,1-.06,0l-.14-.42a.13.13,0,0,0-.14-.1H258c-.08,0-.15,0-.15.07s.07.08.15.1l.28,0a.38.38,0,0,1,.29.39V50.7a.4.4,0,0,1-.29.4l-.18,0c-.08,0-.15.06-.15.11s.07.06.15.06h1.59c.08,0,.15,0,.15-.07s-.07-.07-.15-.1l-.18,0a.39.39,0,0,1-.3-.4V48.79a.8.8,0,0,1,.11-.38.88.88,0,0,1,.73-.43c.28,0,.44.06.53.27s0,.26.14.26.07-.06.08-.14l.09-.7ZM257,48.78a.27.27,0,0,1-.22.3,2.15,2.15,0,0,1-.48,0h-.9c-.1,0-.14-.06-.13-.16.09-.71.44-1.17.95-1.17s.78.32.78,1m.7.38a1.5,1.5,0,0,0-1.48-1.68,1.78,1.78,0,0,0-1.68,2c0,1.43.84,2,1.66,2a1.53,1.53,0,0,0,1.36-.79s0,0,0-.07l-.14-.11a.05.05,0,0,0-.08,0,1.24,1.24,0,0,1-.94.54c-.5,0-1.1-.35-1.14-1.39a.18.18,0,0,1,.19-.18h2.06c.11,0,.21-.15.21-.27m-3.21-3.38c0-.05,0-.11,0-.14a1.21,1.21,0,0,0-.76-.21c-.71,0-1.24.31-1.24,1.13v1H252a.08.08,0,0,0-.09.09v.24A.08.08,0,0,0,252,48h.46v2.69c0,.27,0,.39-.11.45s-.11.08-.11.13,0,.06.11.06h1.33c.08,0,.15,0,.15-.07s-.07-.08-.15-.1l-.27,0a.39.39,0,0,1-.31-.4V48l1.23,0s.09,0,.09-.06v-.32c0-.05-.05-.06-.09-.06h-1.23V46.35a.56.56,0,0,1,.52-.63.88.88,0,0,1,.64.48s0,0,.08,0,.09,0,.1-.08l.05-.37Zm-3.73,3a.27.27,0,0,1-.22.3,2.15,2.15,0,0,1-.48,0h-.9A.12.12,0,0,1,249,49c.08-.71.44-1.17,1-1.17s.78.32.78,1m.7.38A1.5,1.5,0,0,0,250,47.48a1.78,1.78,0,0,0-1.68,2c0,1.43.84,2,1.65,2a1.52,1.52,0,0,0,1.36-.79s0,0,0-.07l-.14-.11s0,0-.07,0a1.24,1.24,0,0,1-.95.54c-.5,0-1.09-.35-1.13-1.39a.18.18,0,0,1,.19-.18h2.06c.11,0,.21-.15.21-.27m-3.39-1.49c0-.07-.09-.12-.15-.14a1.45,1.45,0,0,0-.3-.05,1.31,1.31,0,0,0-1.17.63l0,0a.08.08,0,0,1-.07,0l-.13-.42a.13.13,0,0,0-.14-.1h-.9c-.08,0-.14,0-.14.07s.06.08.14.1l.28,0a.37.37,0,0,1,.29.39V50.7a.39.39,0,0,1-.28.4l-.19,0c-.08,0-.14.06-.14.11s.06.06.14.06h1.6c.08,0,.14,0,.14-.07s-.06-.07-.14-.1l-.19,0a.4.4,0,0,1-.29-.4V48.79a.8.8,0,0,1,.1-.38.92.92,0,0,1,.74-.43c.27,0,.44.06.52.27s.05.26.14.26.08-.06.09-.14l.09-.7Zm-3.91-.25c0,1-.68,1.27-1.51,1.27h-.46a.18.18,0,0,1-.17-.16v-2a.22.22,0,0,1,.23-.2h.49c1,0,1.42.34,1.42,1.1m.79,0c0-1.09-.87-1.49-1.89-1.49H240.6c-.08,0-.14,0-.14.07s.06.09.14.09l.37.06a.37.37,0,0,1,.29.4v4.17a.37.37,0,0,1-.27.4c-.08,0-.15.06-.15.11s.07.06.15.06h1.6c.08,0,.14,0,.14-.06s-.07-.09-.14-.11l-.28,0a.4.4,0,0,1-.3-.4V49.18a.17.17,0,0,1,.17-.15h.58c1.47,0,2.18-.68,2.18-1.58"/><path class="cls-1" d="M270.89,43.06a.42.42,0,0,1-.06.19,1.11,1.11,0,0,1-.84.51c-.53,0-1-.38-1-1.54,0-1,.38-1.62,1-1.62s.92.3.92.92v1.54Zm1.34,1s-.05-.08-.14-.1l-.27-.05a.38.38,0,0,1-.29-.4V39l0-.59a.12.12,0,0,0-.13-.11h-1.21c-.08,0-.15,0-.15.08s.07.08.15.09l.36.06a.36.36,0,0,1,.3.39v1.42s0,.08-.08.06a2.7,2.7,0,0,0-.87-.13,1.76,1.76,0,0,0-1.63,1.94c0,1.44.71,2,1.52,2a1.32,1.32,0,0,0,1-.43s0-.05.07-.05a.06.06,0,0,1,.06.05L271,44c0,.06.07.1.14.1h.91c.09,0,.14,0,.14-.07m-5.16-1.69c0,.64-.18,1.53-1,1.53S265,42.79,265,42.12s.19-1.46,1-1.46,1.05,1,1.05,1.7m.7-.12a1.74,1.74,0,1,0-1.73,2,1.79,1.79,0,0,0,1.73-2m-4.69.12c0,.64-.18,1.53-1,1.53S261,42.79,261,42.12s.2-1.46,1-1.46,1,1,1,1.7m.7-.12a1.74,1.74,0,1,0-1.73,2,1.78,1.78,0,0,0,1.73-2m-3.56-1.81s-.07-.06-.15-.06H259c-.08,0-.13,0-.13.05a.08.08,0,0,0,.07.08l.22.1c.11.06.13.17.09.31l-.61,2.38c0,.05-.09.05-.11,0l-.94-2.78s-.09,0-.17,0-.16,0-.17,0l-1,2.72c0,.05-.1.05-.11,0l-.56-2.32a.27.27,0,0,1,.1-.31l.18-.1a.09.09,0,0,0,.06-.08s-.05-.05-.14-.05h-1.27c-.08,0-.14,0-.14.07s.05.07.13.1l.17.06a.26.26,0,0,1,.19.19l1,3.33c0,.07.13.09.25.09s.23,0,.25-.09l.9-2.44s.12,0,.13,0l.83,2.44c0,.05.13.09.25.09s.24,0,.26-.09l1.1-3.34a.44.44,0,0,1,.24-.23c.07,0,.11-.06.11-.12m-5.79,0c0-.08-.09-.12-.14-.14a1.06,1.06,0,0,0-.31,0,1.32,1.32,0,0,0-1.17.63.05.05,0,0,1,0,0,.08.08,0,0,1-.07,0l-.13-.43a.13.13,0,0,0-.14-.1h-.9c-.07,0-.14,0-.14.07s.07.08.14.1l.28.05a.38.38,0,0,1,.3.39V43.5a.39.39,0,0,1-.29.4l-.19.05c-.08,0-.14.06-.14.11s.06.06.14.06h1.6c.08,0,.15,0,.15-.07s-.07-.07-.15-.1L253,43.9a.39.39,0,0,1-.29-.4V41.59a.84.84,0,0,1,.11-.38.88.88,0,0,1,.73-.43c.28,0,.44.06.53.28s0,.26.13.26.08-.07.09-.15l.09-.7Zm-4.32,2.72c0,.4-.45.68-1,.68s-.7-.31-.7-.78a.53.53,0,0,1,.44-.51l1.18-.34c.06,0,.09,0,.09.07v.88Zm1.34.86s-.06-.08-.14-.1L251,43.9a.39.39,0,0,1-.29-.4V41.61c0-1-.54-1.33-1.43-1.33-.39,0-.76.08-1.13.11a.08.08,0,0,0-.09.08v1.08a.05.05,0,0,0,0,.05s.06,0,.06,0c.15-.66.4-.94,1.08-.94.32,0,.81.15.81.58v.35c0,.27-.21.37-.47.45-.42.13-.91.19-1.25.33a1,1,0,0,0-.61.92,1,1,0,0,0,1.1,1,1.92,1.92,0,0,0,1.12-.33.18.18,0,0,1,.11,0,.1.1,0,0,1,.09.06l.07.12a.17.17,0,0,0,.16.1h.88c.08,0,.14,0,.14-.07m-4-.15-.05-.12s-.06,0-.09,0a1.19,1.19,0,0,1-.51.13c-.48,0-.56-.31-.56-.72V40.8l1,0a.07.07,0,0,0,.08-.08v-.3s0-.07-.09-.07h-1V39.19c0-.08,0-.11-.08-.11s-.07,0-.09.08l-.42,1a.28.28,0,0,1-.24.2h-.52a.08.08,0,0,0-.09.09v.26a.1.1,0,0,0,.09.08h.71v2.56c0,.59.37.81,1.1.81a1.36,1.36,0,0,0,.73-.2s0,0,0-.07m-2.94-1.21c0-2-3-1.48-3-2.92,0-.47.4-.71.91-.71a1.47,1.47,0,0,1,1.69,1.3.08.08,0,0,0,.07.07s.07,0,.07-.1V39a.11.11,0,0,0-.12-.12,16.41,16.41,0,0,0-1.72-.16,1.39,1.39,0,0,0-1.54,1.42c0,1.81,3,1.31,3,2.86,0,.61-.53.89-1.14.89a1.65,1.65,0,0,1-1.79-1.32s0-.07-.08-.07-.06.06-.06.1l.14,1.39a.15.15,0,0,0,.13.11,14.69,14.69,0,0,0,1.58.16c1,0,1.87-.42,1.87-1.52"/><path class="cls-1" d="M230.4,53.11c0,2.1-2.56,2.48-4.16,2.48s-4.4-.62-4.4-2.68c0-.59.21-1.57.92-1.81.56,0,2.74-.08,4.25-.08,2.48,0,3.39.56,3.39,2.09M228.66,43a2.71,2.71,0,0,1-2.86,3c-2.28,0-3.37-1.5-3.37-3.69a2.65,2.65,0,0,1,2.9-2.92c2.27,0,3.33,1.35,3.33,3.57m4.7-3.46v-.73c0-.21-.12-.24-.33-.24l-4.9.21a6.44,6.44,0,0,0-2.57-.51c-2.95,0-5.29,1.75-5.29,4.4a4.13,4.13,0,0,0,2.57,3.84c.12.06.18.12.18.21s-.06.15-.2.21a2.3,2.3,0,0,0-1.36,2.12,1.88,1.88,0,0,0,.71,1.42,3.63,3.63,0,0,0-2,3.13c0,2.69,2.55,3.64,4.85,3.64,2.89,0,7-1.07,7-4.64,0-2.81-1.8-3.49-4.4-3.49-1.36,0-2.95.12-3.49.12-.88,0-1.24-.47-1.24-1,0-.71.77-1.16,1.78-1.16h.85c3,0,5.26-1.77,5.26-4.4a3.89,3.89,0,0,0-1-2.74l3.22-.09c.21,0,.33-.09.33-.3M216.79,44.9c0,3.31-1.27,5.35-3.28,5.35-2.3,0-3-1-3-3V42.12a1.05,1.05,0,0,1,.21-.62,3.55,3.55,0,0,1,2.74-1.68c1.74,0,3.34,1.24,3.34,5.08m2.25,0c0-4.76-2.37-6.59-5.06-6.59a4.38,4.38,0,0,0-3.16,1.45.41.41,0,0,1-.24.15c-.08,0-.14-.06-.2-.15L210,39a.5.5,0,0,0-.47-.35h-3.34c-.26,0-.47.06-.47.24s.21.29.47.32l1.21.18a1.23,1.23,0,0,1,1,1.33V54.79A2.16,2.16,0,0,1,208,56.3c-.17.18-.38.24-.38.41s.12.21.38.21h4.41c.26,0,.47-.06.47-.24s-.21-.26-.47-.32l-.92-.18a1.28,1.28,0,0,1-1-1.33V51c0-.15.08-.26.26-.2a9,9,0,0,0,2.87.47c2.86,0,5.41-2.51,5.41-6.41m-13.53,2.66c0-4.32-7.45-3.87-7.45-6.41,0-1.18,1-1.77,2.31-1.77,2.3,0,3.39.38,4.13,2.6.06.14.12.26.24.26s.17-.23.17-.35l0-2.93a.32.32,0,0,0-.3-.29,35.53,35.53,0,0,0-4-.36c-3,0-4.1,1.48-4.1,3.49,0,4.25,7.35,3.37,7.35,6.47,0,1.27-1.42,1.92-2.51,1.92-2.42,0-3.78-.56-4.63-3a.35.35,0,0,0-.33-.33c-.21,0-.24.18-.21.35.06.42.12,1.07.15,1.57s.09,1.12.12,1.56a.48.48,0,0,0,.38.39,17.68,17.68,0,0,0,4.17.59c2.51,0,4.58-.77,4.58-3.75"/><path class="cls-1" d="M237.82,50.3l-1-1.26,1.61-.29v-.12l-1.61-.29,1-1.25-.08-.11-1.42.82V46.16h-.13l-.56,1.54-1-1.25-.12.06L235,48l-1.61-.28a.61.61,0,0,0,0,.12l1.42.82-1.42.82a.61.61,0,0,0,0,.12l1.61-.28-.56,1.54.12.06,1-1.25.56,1.54.13,0V49.57l1.42.83.08-.1"/><path class="cls-1" d="M75.26,45.57l-2.52-2.89H71.05v.23c.52,0,.59.07.59.5v2.41c0,.87-.17,1-.6,1V47H72.6v-.23c-.5,0-.66-.11-.66-.62V43.3l3.37,3.81h.25V43.5c0-.53.29-.59.57-.59v-.23H74.57v.23c.4,0,.69.07.69.59v2.07Z"/><path class="cls-1" d="M68.27,42.56a2.28,2.28,0,1,0,2.35,2.28,2.23,2.23,0,0,0-2.35-2.28Zm0,4.35c-.81,0-1.17-.72-1.17-2.07s.36-2.07,1.17-2.07,1.18.72,1.18,2.07-.37,2.07-1.18,2.07Z"/><path class="cls-1" d="M62.67,46.43c0,.31-.1.34-.54.34V47h2.16v-.23c-.44,0-.54,0-.54-.34V43.11c0-.16.07-.23.23-.23a1.82,1.82,0,0,1,1.35,1l.17-.06-.26-1.27h-.17a.89.89,0,0,1-.43.12H61.78a.83.83,0,0,1-.22,0,.75.75,0,0,1-.2-.09h-.18l-.26,1.27.17.06a1.81,1.81,0,0,1,1.36-1c.15,0,.22.07.22.23v3.32Z"/><path class="cls-1" d="M57.47,46.43c0,.31-.1.34-.54.34V47H61l.32-1.26h-.2a1.93,1.93,0,0,1-2,1c-.48,0-.57-.08-.57-.3V43.25c0-.31.1-.34.54-.34v-.23H56.93v.23c.44,0,.54,0,.54.34v3.18Z"/><path class="cls-1" d="M55.82,46.33l-.71-1.1a.67.67,0,0,0-.56-.39v0c.69,0,1.11-.4,1.11-.94s-.48-1.2-1.88-1.2H51.62v.23c.44,0,.54,0,.54.34v3.18c0,.31-.1.34-.54.34V47h2.16v-.23c-.44,0-.54,0-.54-.34V44.91c.45,0,.61.06.73.28L55,47h1.48v-.23c-.25,0-.38,0-.64-.44Zm-2.2-1.62h-.38v-1.8h.24c.89,0,1.11.52,1.11.91a.85.85,0,0,1-1,.89Z"/><path class="cls-1" d="M50.42,46.3,48.6,42.79c-.08-.13-.11-.18-.14-.18a3.84,3.84,0,0,1-.73.7.25.25,0,0,1,.13.19.41.41,0,0,1-.07.21L46.7,46c-.27.59-.44.78-.85.78V47h1.56v-.23c-.42,0-.59-.12-.59-.29a1.31,1.31,0,0,1,.25-.59h2a1.7,1.7,0,0,1,.31.69c0,.15-.13.19-.58.19V47h2.34v-.23c-.38,0-.49-.08-.69-.47Zm-3.25-.66L48,43.82l.89,1.82Z"/><path class="cls-1" d="M45.06,45.51c-.38.78-1,1.38-1.66,1.38s-1.39-.51-1.39-2,.59-2.05,1.43-2.05A1.85,1.85,0,0,1,45.06,44h.17V42.61h-.15a.4.4,0,0,1-.32.18,10.85,10.85,0,0,0-1.43-.23,2.31,2.31,0,0,0-2.49,2.35,2.24,2.24,0,0,0,2.37,2.2,7.08,7.08,0,0,0,1.55-.29c.15,0,.25.1.32.29h.15v-1.6Z"/><path class="cls-1" d="M31.75,47h3.76L36,45.69h-.18c-.63.84-1,1.1-1.64,1.1h-1l2.72-4v-.12h-3.7l-.4,1.21h.15a2.06,2.06,0,0,1,1.59-1h1l-2.71,3.93V47Z"/><path class="cls-1" d="M28.41,46.43c0,.31-.1.34-.54.34V47H30v-.23c-.44,0-.55,0-.55-.34V43.11a.2.2,0,0,1,.23-.23,1.81,1.81,0,0,1,1.36,1l.17-.06L31,42.56H30.8a.89.89,0,0,1-.43.12H27.52l-.23,0a1.21,1.21,0,0,1-.2-.09h-.17l-.26,1.27.16.06a1.83,1.83,0,0,1,1.36-1,.2.2,0,0,1,.23.23v3.32Z"/><path class="cls-1" d="M24.5,46.43c0,.31-.1.34-.55.34V47h2.17v-.23c-.45,0-.55,0-.55-.34V43.25c0-.31.1-.34.55-.34v-.23H24v.23c.45,0,.55,0,.55.34v3.18Z"/><path class="cls-1" d="M22.75,46.33,22,45.23a.65.65,0,0,0-.56-.39v0c.7,0,1.12-.4,1.12-.94s-.49-1.2-1.88-1.2H18.54v.23c.45,0,.55,0,.55.34v3.18c0,.31-.1.34-.55.34V47h2.17v-.23c-.45,0-.55,0-.55-.34V44.91c.46,0,.61.06.73.28l1,1.81h1.48v-.23c-.25,0-.37,0-.63-.44Zm-2.21-1.62h-.38v-1.8h.25c.88,0,1.1.52,1.1.91a.85.85,0,0,1-1,.89Z"/><path class="cls-1" d="M11.68,46.43c0,.31-.1.34-.55.34V47h4l.34-1.26h-.2a1.86,1.86,0,0,1-1.85,1c-.58,0-.66-.08-.66-.26V44.87H13c.78,0,1.13.21,1.26.82h.18V43.77H14.3c-.18.64-.46.88-1.26.88h-.29V43.19c0-.25.08-.28.4-.28a2.35,2.35,0,0,1,2,1h.17l-.43-1.19H11.13v.23c.45,0,.55,0,.55.34v3.18Z"/><path class="cls-1" d="M8.83,46.43c0,.31-.1.34-.55.34V47h2.17v-.23c-.45,0-.55,0-.55-.34V43.25c0-.31.1-.34.55-.34v-.23H8.28v.23c.45,0,.55,0,.55.34v1.32H6.63V43.25c0-.31.1-.34.55-.34v-.23H5v.23c.44,0,.54,0,.54.34v3.18c0,.31-.1.34-.54.34V47H7.18v-.23c-.45,0-.55,0-.55-.34V44.87h2.2v1.56Z"/><path class="cls-1" d="M1.75,46.43c0,.31-.1.34-.54.34V47H3.38v-.23c-.45,0-.55,0-.55-.34V43.11c0-.16.07-.23.22-.23a1.8,1.8,0,0,1,1.36,1l.17-.06-.26-1.27H4.15a.89.89,0,0,1-.43.12H.86a.83.83,0,0,1-.22,0,.75.75,0,0,1-.2-.09H.26L0,43.83l.17.06a1.81,1.81,0,0,1,1.36-1c.15,0,.22.07.22.23v3.32Z"/><polygon class="cls-1" points="37.35 45.15 38.79 45.15 39.4 44.28 37.96 44.28 37.35 45.15 37.35 45.15"/><path class="cls-1" d="M75.26,45.57l-2.52-2.89H71.05v.23c.51,0,.59.07.59.5v2.41c0,.87-.18,1-.61,1V47h1.56v-.22c-.49,0-.65-.11-.65-.62V43.3l3.36,3.81h.26V43.5c0-.53.28-.59.57-.59v-.23H74.57v.23c.39,0,.69.07.69.59v2.07Z"/><path class="cls-1" d="M68.27,42.57a2.27,2.27,0,1,0,2.35,2.27,2.23,2.23,0,0,0-2.35-2.27Zm0,4.34c-.81,0-1.18-.72-1.18-2.07s.37-2.07,1.18-2.07,1.17.72,1.17,2.07-.37,2.07-1.17,2.07Z"/><path class="cls-1" d="M62.67,46.43c0,.3-.1.34-.54.34V47h2.16v-.22c-.44,0-.55,0-.55-.34V43.11a.2.2,0,0,1,.23-.23,1.81,1.81,0,0,1,1.36,1l.17-.06-.26-1.26h-.18a1,1,0,0,1-.43.11H61.78a.91.91,0,0,1-.23,0l-.2-.08h-.17l-.26,1.26.16.06a1.81,1.81,0,0,1,1.36-1c.16,0,.23.07.23.23v3.32Z"/><path class="cls-1" d="M57.47,46.43c0,.3-.1.34-.54.34V47H61l.33-1.25h-.2a1.93,1.93,0,0,1-2,1c-.48,0-.57-.08-.57-.3V43.25c0-.31.1-.34.54-.34v-.23H56.93v.23c.44,0,.54,0,.54.34v3.18Z"/><path class="cls-1" d="M55.82,46.33l-.71-1.1a.67.67,0,0,0-.57-.39v0c.7,0,1.12-.4,1.12-.94s-.49-1.2-1.88-1.2H51.62v.23c.44,0,.54,0,.54.34v3.18c0,.3-.1.34-.54.34V47h2.16v-.22c-.44,0-.54,0-.54-.34V44.91c.45,0,.61.06.73.28L55,47h1.49v-.22c-.25,0-.38,0-.64-.44Zm-2.21-1.62h-.37v-1.8h.24c.89,0,1.11.52,1.11.91,0,.66-.46.89-1,.89Z"/><path class="cls-1" d="M50.42,46.3,48.6,42.79c-.08-.13-.11-.18-.14-.18a3.84,3.84,0,0,1-.73.7.25.25,0,0,1,.13.19.41.41,0,0,1-.07.21L46.7,46c-.28.59-.44.78-.85.78V47h1.56v-.22c-.42,0-.59-.12-.59-.29a1.31,1.31,0,0,1,.25-.59h2a1.7,1.7,0,0,1,.31.69c0,.15-.13.19-.58.19V47h2.34v-.22c-.38,0-.49-.08-.69-.47Zm-3.25-.66L48,43.82l.89,1.82Z"/><path class="cls-1" d="M45.06,45.51c-.38.78-1,1.38-1.66,1.38s-1.39-.51-1.39-2,.59-2.05,1.43-2.05A1.85,1.85,0,0,1,45.06,44h.17V42.61h-.15a.4.4,0,0,1-.32.18,11.63,11.63,0,0,0-1.43-.22,2.3,2.3,0,0,0-2.49,2.34,2.25,2.25,0,0,0,2.37,2.2,7.08,7.08,0,0,0,1.55-.29c.15,0,.25.1.32.29h.15v-1.6Z"/><path class="cls-1" d="M31.75,47h3.76l.46-1.3h-.18c-.63.84-1,1.1-1.64,1.1h-1l2.72-4v-.12h-3.7l-.4,1.21h.15a2.06,2.06,0,0,1,1.6-1h1l-2.71,3.93V47Z"/><path class="cls-1" d="M28.41,46.43c0,.3-.1.34-.54.34V47H30v-.22c-.44,0-.54,0-.54-.34V43.11c0-.16.07-.23.22-.23a1.81,1.81,0,0,1,1.36,1l.17-.06L31,42.57H30.8a.93.93,0,0,1-.42.11H27.52a.83.83,0,0,1-.22,0,1.38,1.38,0,0,1-.2-.08h-.18l-.26,1.26.17.06a1.82,1.82,0,0,1,1.35-1c.16,0,.23.07.23.23v3.32Z"/><path class="cls-1" d="M24.5,46.43c0,.3-.1.34-.55.34V47h2.17v-.22c-.45,0-.55,0-.55-.34V43.25c0-.31.1-.34.55-.34v-.23H24v.23c.45,0,.55,0,.55.34v3.18Z"/><path class="cls-1" d="M22.75,46.33,22,45.23a.67.67,0,0,0-.57-.39v0c.7,0,1.12-.4,1.12-.94s-.49-1.2-1.88-1.2H18.54v.23c.45,0,.55,0,.55.34v3.18c0,.3-.1.34-.55.34V47h2.17v-.22c-.45,0-.55,0-.55-.34V44.91c.46,0,.62.06.73.28l1,1.8h1.49v-.22c-.26,0-.38,0-.64-.44Zm-2.21-1.62h-.38v-1.8h.25c.89,0,1.1.52,1.1.91a.85.85,0,0,1-1,.89Z"/><path class="cls-1" d="M11.68,46.43c0,.3-.1.34-.54.34V47h4l.34-1.25h-.2a1.86,1.86,0,0,1-1.85,1c-.58,0-.65-.08-.65-.26V44.87H13c.78,0,1.13.21,1.26.82h.18V43.77H14.3c-.18.64-.46.88-1.26.88h-.28V43.19c0-.25.07-.28.39-.28a2.34,2.34,0,0,1,2,1h.18L15,42.68H11.14v.23c.44,0,.54,0,.54.34v3.18Z"/><path class="cls-1" d="M8.83,46.43c0,.3-.1.34-.54.34V47h2.16v-.22c-.44,0-.55,0-.55-.34V43.25c0-.31.11-.34.55-.34v-.23H8.29v.23c.44,0,.54,0,.54.34v1.32H6.63V43.25c0-.31.1-.34.55-.34v-.23H5v.23c.45,0,.55,0,.55.34v3.18c0,.3-.1.34-.55.34V47H7.18v-.22c-.45,0-.55,0-.55-.34V44.87h2.2v1.56Z"/><path class="cls-1" d="M1.76,46.43c0,.3-.1.34-.55.34V47H3.38v-.22c-.45,0-.55,0-.55-.34V43.11a.2.2,0,0,1,.23-.23,1.81,1.81,0,0,1,1.36,1l.17-.06-.26-1.26H4.15a1,1,0,0,1-.43.11H.87a.91.91,0,0,1-.23,0l-.2-.08H.26L0,43.83l.16.06a1.81,1.81,0,0,1,1.36-1,.2.2,0,0,1,.23.23v3.32Z"/><polygon class="cls-1" points="37.35 45.15 38.79 45.15 39.4 44.28 37.96 44.28 37.35 45.15 37.35 45.15"/><path class="cls-1" d="M3.47,54.26,2.18,52.43h-1v1.83H.74V49.77H2.52A1.3,1.3,0,0,1,4,51.09a1.26,1.26,0,0,1-1.29,1.32L4,54.26Zm0-3.17a.9.9,0,0,0-1-.92H1.19V52H2.48a.9.9,0,0,0,1-.94Z"/><polygon class="cls-1" points="6.15 54.26 6.15 49.77 9.15 49.77 9.15 50.17 6.59 50.17 6.59 51.76 9.11 51.76 9.11 52.16 6.59 52.16 6.59 53.86 9.15 53.86 9.15 54.26 6.15 54.26 6.15 54.26"/><polygon class="cls-1" points="14.83 54.26 13.71 50.48 12.61 54.26 12.13 54.26 10.79 49.77 11.28 49.77 12.38 53.62 13.52 49.77 13.92 49.77 15.05 53.62 16.16 49.77 16.65 49.77 15.31 54.26 14.83 54.26 14.83 54.26"/><path class="cls-1" d="M20.23,49.77l1.93,4.49h-.51l-.47-1.08H18.74l-.46,1.08h-.51l1.93-4.49Zm-.27.49-1.07,2.51H21L20,50.26Z"/><path class="cls-1" d="M26.71,54.26l-1.29-1.83h-1v1.83H24V49.77h1.78a1.3,1.3,0,0,1,1.43,1.32,1.26,1.26,0,0,1-1.29,1.32l1.36,1.85Zm0-3.17a.9.9,0,0,0-1-.92H24.43V52h1.29a.9.9,0,0,0,1-.94Z"/><path class="cls-1" d="M29.39,54.26V49.77h1.5a2.25,2.25,0,1,1,0,4.49ZM32.79,52a1.77,1.77,0,0,0-1.9-1.85H29.83v3.69h1.06A1.76,1.76,0,0,0,32.79,52Z"/><path class="cls-1" d="M35.09,53.64l.27-.32a2,2,0,0,0,1.46.65c.88,0,1.21-.44,1.21-.9,0-1.3-2.8-.57-2.8-2.17,0-.73.69-1.22,1.54-1.22a2.13,2.13,0,0,1,1.61.64l-.26.31a1.73,1.73,0,0,0-1.35-.56c-.61,0-1.08.35-1.08.82,0,1.12,2.82.47,2.82,2.17,0,.7-.52,1.3-1.7,1.3a2.2,2.2,0,0,1-1.72-.72Z"/><path class="cls-2" d="M66.77,0s-9,0-9,9v3.67s0,9,9,9H205.46s9,0,9-9V9s0-9-9-9Z"/><path class="cls-3" d="M111.44,9.09a2.11,2.11,0,0,0-2.32-2.19H106v7.84h3.37a2.36,2.36,0,0,0,2.5-2.4,1.91,1.91,0,0,0-1.48-1.79,1.53,1.53,0,0,0,1.07-1.46Zm-3.79.91V8.37H109c.49,0,.74.33.74.82A.74.74,0,0,1,109,10Zm1.57,1.37a.89.89,0,0,1,.88.94.89.89,0,0,1-.84,1h-1.61v-1.9Zm5.21-.53a2.32,2.32,0,1,1,2.31,2.37,2.34,2.34,0,0,1-2.31-2.37Zm-1.66,0a4,4,0,1,0,4-4,4,4,0,0,0-4,4Zm10.55,0a2.32,2.32,0,1,1,2.31,2.37,2.33,2.33,0,0,1-2.31-2.37Zm-1.66,0a4,4,0,1,0,4-4,4,4,0,0,0-4,4Zm11.87-.06,3-3.88h-2l-1.85,2.57V6.9H131v7.84h1.69V12.08L135,14.74h2.16l-3.67-4ZM146.46,6.9h-1.68v4.69L142.1,6.9h-1.53v7.84h1.66V10L145,14.74h1.49V6.9Zm3,3.94a2.32,2.32,0,1,1,2.31,2.37,2.33,2.33,0,0,1-2.31-2.37Zm-1.67,0a4,4,0,1,0,4-4,4,4,0,0,0-4,4Zm15.07,1-1-3.83h-1.37c-.34,1.26-.69,2.59-1,3.83L157.94,6.9h-1.8l2.64,7.84h1.32l1.08-4.12,1.11,4.12h1.3l2.67-7.84h-1.81l-1.54,4.94Z"/></g></g></svg>