<?xml version="1.0" encoding="UTF-8"?>
<svg id="Layer_1" data-name="Layer 1" xmlns="http://www.w3.org/2000/svg" xmlns:xlink="http://www.w3.org/1999/xlink" viewBox="0 0 160 600">
  <defs>
    <style>
      .cls-1 {
        fill: #171d21;
      }

      .cls-1, .cls-2 {
        stroke-width: 0px;
      }

      .cls-2 {
        fill: none;
      }

      .cls-3 {
        clip-path: url(#clippath);
      }
    </style>
    <clipPath id="clippath">
      <rect class="cls-2" width="160" height="600"/>
    </clipPath>
  </defs>
  <g class="cls-3">
    <path class="cls-1" d="M13.12,89.97h2.95v8.45h.14c.13-.34.32-.69.57-1.06.23-.34.51-.63.81-.87.32-.25.7-.44,1.14-.57.47-.14.97-.22,1.52-.22,1.41,0,2.54.46,3.41,1.38.87.92,1.3,2.23,1.3,3.92v8.99h-2.95v-8.55c0-2.22-.97-3.33-2.9-3.33-.34,0-.71.05-1.11.14-.32.11-.65.26-.97.46-.27.16-.5.42-.68.76-.18.29-.27.64-.27,1.06v9.47h-2.95v-20.03ZM34.11,110.32c-1.05,0-1.97-.17-2.76-.51-.81-.34-1.51-.83-2.08-1.46-.6-.65-1.04-1.42-1.33-2.3-.31-.92-.46-1.93-.46-3.03s.15-2.11.46-3.03c.29-.88.73-1.65,1.33-2.3.58-.63,1.27-1.12,2.08-1.46.79-.34,1.71-.51,2.76-.51s1.98.17,2.79.51c.83.36,1.52.85,2.08,1.46.56.61.99,1.38,1.3,2.3.31.92.46,1.93.46,3.03s-.15,2.11-.46,3.03c-.31.92-.74,1.69-1.3,2.3-.56.61-1.25,1.1-2.08,1.46-.81.34-1.74.51-2.79.51ZM34.11,108c1.08,0,1.95-.33,2.6-1,.63-.67.95-1.64.95-2.92v-2.11c0-1.28-.32-2.27-.95-2.95-.65-.65-1.52-.97-2.6-.97s-1.94.32-2.57.97c-.65.67-.97,1.65-.97,2.95v2.11c0,1.3.32,2.27.97,2.92.61.67,1.47,1,2.57,1ZM42.35,110v-13.97h2.52v1.81h.14c.18-.58.5-1.09.95-1.54.18-.18.46-.32.84-.43.38-.11.76-.16,1.14-.16.87,0,1.51.21,1.92.62.43.43.7.98.81,1.65h.11c.22-.63.58-1.18,1.08-1.65.23-.22.51-.37.84-.46.34-.11.79-.16,1.35-.16s1.06.1,1.52.3c.47.2.81.48,1.03.84.23.4.4.86.49,1.38.09.51.14,1.15.14,1.95v9.83h-2.52v-9.45c0-.92-.13-1.58-.38-1.98-.14-.2-.35-.34-.62-.43-.27-.11-.55-.16-.84-.16-.23,0-.49.05-.76.14-.25.07-.46.18-.62.32-.32.29-.49.76-.49,1.41v10.15h-2.52v-9.45c0-.63-.03-1.07-.08-1.33-.04-.27-.11-.51-.22-.7-.27-.36-.76-.54-1.46-.54-.25,0-.51.05-.79.14-.25.07-.45.18-.6.32-.31.31-.46.78-.46,1.41v10.15h-2.52ZM65.76,110.32c-1.1,0-2.06-.17-2.87-.51-.87-.36-1.58-.85-2.14-1.46-.6-.65-1.04-1.42-1.33-2.3-.31-.92-.46-1.92-.46-3,0-1.14.16-2.15.49-3.03.29-.87.73-1.64,1.33-2.33.58-.63,1.26-1.12,2.06-1.46.79-.34,1.7-.51,2.71-.51s1.88.16,2.65.49c.81.36,1.49.84,2.03,1.43.58.63,1.01,1.36,1.3,2.19.29.81.43,1.75.43,2.81v1.11h-10.02v.46c0,1.1.34,1.99,1.03,2.68.67.7,1.62,1.06,2.84,1.06.92,0,1.7-.2,2.33-.6.63-.38,1.15-.89,1.54-1.54l1.84,1.62c-.45.78-1.16,1.46-2.14,2.06-.96.56-2.17.84-3.63.84ZM65.54,97.95c-.54,0-1.02.09-1.43.27-.47.2-.85.45-1.14.76-.32.34-.58.74-.76,1.19-.18.43-.27.93-.27,1.49v.19h7.01v-.27c0-1.1-.31-1.99-.92-2.65-.61-.65-1.44-.97-2.49-.97ZM90.03,110h-2.98c-1.17,0-2.03-.31-2.57-.92-.56-.63-.84-1.44-.84-2.41v-13.32h-2.38v-2.25h5.14v16.65h3.63v2.25ZM99.06,110.32c-1.05,0-1.97-.17-2.76-.51-.81-.34-1.51-.83-2.08-1.46-.6-.65-1.04-1.42-1.33-2.3-.31-.92-.46-1.93-.46-3.03s.15-2.11.46-3.03c.29-.88.73-1.65,1.33-2.3.58-.63,1.27-1.12,2.08-1.46.79-.34,1.71-.51,2.76-.51s1.98.17,2.79.51c.83.36,1.53.85,2.08,1.46.56.61.99,1.38,1.3,2.3.31.92.46,1.93.46,3.03s-.15,2.11-.46,3.03c-.31.92-.74,1.69-1.3,2.3-.56.61-1.25,1.1-2.08,1.46-.81.34-1.74.51-2.79.51ZM99.06,108c1.08,0,1.95-.33,2.6-1,.63-.67.95-1.64.95-2.92v-2.11c0-1.28-.32-2.27-.95-2.95-.65-.65-1.52-.97-2.6-.97s-1.94.32-2.57.97c-.65.67-.97,1.65-.97,2.95v2.11c0,1.3.32,2.27.97,2.92.61.67,1.47,1,2.57,1ZM119.4,110c-.85,0-1.48-.22-1.89-.65-.45-.45-.71-1.02-.79-1.71h-.14c-.27.87-.76,1.53-1.46,1.98-.74.47-1.65.7-2.73.7-1.43,0-2.56-.38-3.41-1.14-.85-.74-1.27-1.77-1.27-3.09s.5-2.37,1.52-3.11c1.01-.7,2.54-1.06,4.6-1.06h2.68v-1.08c0-1.89-1-2.84-3-2.84-.9,0-1.63.17-2.19.51-.54.32-1.01.79-1.41,1.41l-1.76-1.43c.42-.76,1.08-1.42,2-1.98.96-.54,2.17-.81,3.63-.81,1.77,0,3.16.42,4.17,1.27,1.01.85,1.52,2.08,1.52,3.68v7.01h1.76v2.33h-1.81ZM113.23,108.16c.96,0,1.74-.22,2.35-.65.61-.43.92-.99.92-1.68v-2.03h-2.62c-2.13,0-3.19.64-3.19,1.92v.54c0,.65.23,1.12.68,1.41.47.33,1.09.49,1.87.49ZM123.5,110v-13.97h2.95v2.38h.14c.13-.34.32-.69.57-1.06.23-.34.5-.63.81-.87.32-.25.7-.44,1.14-.57.47-.14.97-.22,1.51-.22,1.41,0,2.55.46,3.41,1.38.87.92,1.3,2.23,1.3,3.92v8.99h-2.95v-8.55c0-2.22-.97-3.33-2.9-3.33-.34,0-.71.05-1.11.14-.33.11-.65.26-.98.46-.27.16-.5.42-.68.76-.18.29-.27.64-.27,1.06v9.47h-2.95Z"/>
  </g>
</svg>