<?xml version="1.0" encoding="UTF-8"?>
<svg id="Layer_1" data-name="Layer 1" xmlns="http://www.w3.org/2000/svg" viewBox="0 0 160 600">
  <defs>
    <style>
      .cls-1 {
        fill: #171d21;
        stroke-width: 0px;
      }
    </style>
  </defs>
  <path class="cls-1" d="M10.93,151v-7.09h1.38v7.09h-1.38ZM11.62,142.82c-.24,0-.45-.08-.62-.24-.17-.16-.25-.36-.25-.58s.08-.42.25-.58c.17-.16.38-.24.62-.24s.44.08.61.24c.17.16.26.35.26.58s-.09.42-.26.58c-.17.16-.37.24-.61.24ZM15.81,146.79v4.21h-1.38v-7.09h1.32v1.15h.09c.16-.38.42-.68.77-.9.35-.23.79-.34,1.32-.34.48,0,.91.1,1.27.3.36.2.64.5.84.9.2.4.3.89.3,1.47v4.51h-1.38v-4.34c0-.51-.13-.92-.4-1.21-.27-.29-.64-.44-1.1-.44-.32,0-.6.07-.85.21-.25.14-.44.34-.59.61-.14.26-.21.58-.21.96ZM27.03,153.66c-.21,0-.39-.02-.56-.05-.17-.03-.3-.06-.38-.1l.33-1.13c.25.07.48.1.67.09.2,0,.37-.08.52-.22.15-.14.29-.37.41-.68l.17-.47-2.59-7.18h1.48l1.8,5.5h.07l1.8-5.5h1.48l-2.92,8.04c-.14.37-.31.68-.52.94-.21.26-.46.45-.75.58-.29.13-.62.19-1.01.19ZM36.52,151.14c-.66,0-1.24-.15-1.74-.46-.5-.31-.88-.73-1.15-1.28s-.41-1.19-.41-1.92.14-1.38.41-1.93c.27-.55.66-.98,1.15-1.28.5-.31,1.08-.46,1.74-.46s1.24.15,1.74.46c.5.3.88.73,1.15,1.28.27.55.41,1.19.41,1.93s-.14,1.37-.41,1.92c-.27.55-.66.97-1.15,1.28-.5.3-1.08.46-1.74.46ZM36.53,149.98c.43,0,.79-.11,1.07-.34.28-.23.49-.53.63-.91.14-.38.21-.79.21-1.25s-.07-.87-.21-1.25c-.14-.38-.34-.69-.63-.92-.28-.23-.64-.35-1.07-.35s-.79.12-1.08.35c-.28.23-.49.54-.63.92-.14.38-.2.79-.2,1.25s.07.87.2,1.25c.14.38.35.68.63.91.29.23.65.34,1.08.34ZM46.12,148.06v-4.15h1.38v7.09h-1.36v-1.23h-.07c-.16.38-.42.69-.78.95-.36.25-.8.37-1.33.37-.46,0-.86-.1-1.21-.3-.35-.2-.62-.5-.82-.9-.2-.4-.3-.89-.3-1.47v-4.51h1.38v4.34c0,.48.13.87.4,1.15.27.29.62.43,1.04.43.26,0,.52-.07.77-.19.26-.13.47-.33.64-.59.17-.26.26-.59.25-1ZM49.62,151v-7.09h1.33v1.13h.07c.13-.38.36-.68.68-.9.33-.22.7-.33,1.12-.33.09,0,.19,0,.3,0,.12,0,.21.01.28.02v1.32c-.06-.02-.15-.03-.3-.05-.14-.02-.28-.03-.42-.03-.33,0-.62.07-.87.21-.25.14-.45.32-.6.57-.15.24-.22.51-.22.82v4.33h-1.38ZM58.57,153.66v-9.75h1.35v1.15h.12c.08-.15.2-.32.35-.51.15-.19.36-.36.63-.51.27-.15.62-.22,1.06-.22.57,0,1.08.14,1.53.43.45.29.8.71,1.06,1.25.26.54.39,1.2.39,1.97s-.13,1.42-.38,1.97c-.26.54-.61.96-1.05,1.26-.45.29-.96.44-1.53.44-.43,0-.78-.07-1.06-.22-.27-.15-.48-.31-.64-.51s-.27-.37-.36-.52h-.08v3.76h-1.38ZM59.92,147.46c0,.5.07.93.22,1.31.14.38.35.67.63.88.27.21.61.31,1.01.31s.76-.11,1.03-.33c.28-.22.49-.52.63-.9.14-.38.22-.8.22-1.28s-.07-.89-.21-1.26c-.14-.37-.35-.67-.63-.88-.28-.21-.62-.32-1.04-.32s-.74.1-1.02.31c-.27.21-.48.49-.62.86-.14.37-.21.8-.21,1.29ZM69.84,151.14c-.66,0-1.24-.15-1.74-.46-.5-.31-.88-.73-1.15-1.28-.27-.55-.41-1.19-.41-1.92s.14-1.38.41-1.93c.27-.55.66-.98,1.15-1.28.5-.31,1.08-.46,1.74-.46s1.24.15,1.74.46c.5.3.88.73,1.15,1.28.27.55.41,1.19.41,1.93s-.14,1.37-.41,1.92c-.27.55-.66.97-1.15,1.28-.5.3-1.08.46-1.74.46ZM69.85,149.98c.43,0,.79-.11,1.07-.34.28-.23.49-.53.63-.91.14-.38.21-.79.21-1.25s-.07-.87-.21-1.25c-.14-.38-.34-.69-.63-.92-.28-.23-.64-.35-1.07-.35s-.79.12-1.08.35c-.28.23-.49.54-.63.92-.14.38-.2.79-.2,1.25s.07.87.2,1.25c.14.38.35.68.63.91.29.23.65.34,1.08.34ZM77.93,151.14c-.69,0-1.28-.15-1.77-.47-.49-.31-.87-.75-1.14-1.3-.26-.55-.4-1.18-.4-1.89s.14-1.36.41-1.91c.27-.55.65-.99,1.14-1.3.49-.31,1.07-.47,1.74-.47.54,0,1.02.1,1.44.3.42.2.76.47,1.02.83.26.36.42.77.47,1.25h-1.34c-.07-.33-.24-.62-.51-.86-.26-.24-.61-.36-1.05-.36-.38,0-.72.1-1.01.31-.29.2-.51.49-.67.86-.16.37-.24.81-.24,1.31s.08.96.24,1.34c.16.38.38.67.66.87.29.21.63.31,1.02.31.26,0,.5-.05.71-.14.22-.1.4-.24.54-.42.15-.18.25-.4.31-.66h1.34c-.05.46-.2.87-.45,1.23-.25.36-.58.64-1,.85-.42.21-.9.31-1.46.31ZM83.85,148.6v-1.68s.23,0,.23,0l2.83-3h1.65l-3.22,3.42h-.22l-1.27,1.27ZM82.58,151v-9.46h1.38v9.46h-1.38ZM87.06,151l-2.54-3.37.95-.97,3.28,4.34h-1.69ZM92.84,151.14c-.7,0-1.3-.15-1.81-.45-.5-.3-.89-.72-1.16-1.27-.27-.55-.41-1.19-.41-1.92s.14-1.37.41-1.92c.27-.55.66-.99,1.14-1.3.49-.31,1.07-.47,1.73-.47.4,0,.79.07,1.16.2.38.13.71.34,1.01.62.3.28.53.65.71,1.1.17.45.26.99.26,1.64v.49h-5.64v-1.03h4.28c0-.36-.07-.68-.22-.96-.15-.28-.36-.51-.62-.67-.26-.16-.58-.24-.93-.24-.39,0-.73.1-1.02.29-.29.19-.51.43-.66.74-.15.3-.23.63-.23.98v.81c0,.47.08.88.25,1.21.17.33.4.59.71.76.3.17.65.26,1.06.26.26,0,.5-.04.72-.11.22-.08.4-.19.56-.34.16-.15.28-.34.36-.56l1.31.24c-.1.38-.29.72-.56,1.01-.27.29-.6.51-1.01.67-.4.16-.86.24-1.38.24ZM100.99,143.91v1.11h-3.87v-1.11h3.87ZM98.15,142.21h1.38v6.71c0,.27.04.47.12.6.08.13.18.22.31.27.13.05.27.07.42.07.11,0,.21,0,.29-.02.08-.01.15-.03.19-.04l.25,1.14c-.08.03-.19.06-.34.09-.15.03-.33.05-.55.05-.36,0-.7-.06-1.02-.19-.31-.13-.57-.34-.76-.63-.19-.28-.29-.64-.29-1.07v-6.99ZM105.43,147.08c0,1.16-.15,2.23-.46,3.2-.3.97-.75,1.87-1.33,2.69h-1.26c.23-.3.44-.68.64-1.12.2-.44.37-.93.52-1.45.15-.53.26-1.08.35-1.64.08-.57.12-1.12.12-1.67,0-.73-.07-1.47-.22-2.22-.14-.75-.34-1.45-.59-2.09-.25-.64-.52-1.17-.82-1.57h1.26c.58.82,1.03,1.72,1.33,2.69.31.97.46,2.04.46,3.2Z"/>
</svg>