<?xml version="1.0" encoding="UTF-8"?>
<svg id="Layer_2" data-name="Layer 2" xmlns="http://www.w3.org/2000/svg" viewBox="0 0 163.6 35.6">
  <defs>
    <style>
      .cls-1 {
        fill: #fff;
        stroke-width: 0px;
      }
    </style>
  </defs>
  <g id="Layer_1-2" data-name="Layer 1">
    <path class="cls-1" d="M145.8,35.6H17.8C7.98,35.6,0,27.62,0,17.8S7.98,0,17.8,0h128c9.82,0,17.8,7.98,17.8,17.8s-7.98,17.8-17.8,17.8ZM17.8,1.6C8.87,1.6,1.6,8.87,1.6,17.8s7.27,16.2,16.2,16.2h128c8.93,0,16.2-7.27,16.2-16.2s-7.27-16.2-16.2-16.2H17.8Z"/>
    <path class="cls-1" d="M25.47,16.08l-1.52.17c-.04-.15-.12-.3-.23-.43-.1-.14-.25-.24-.42-.33-.18-.08-.4-.12-.66-.12-.35,0-.64.08-.88.23-.23.15-.35.35-.35.59,0,.21.07.37.23.5.16.13.42.24.78.32l1.21.26c.67.15,1.17.37,1.5.69.33.31.5.72.5,1.23,0,.45-.13.84-.39,1.18-.26.34-.61.6-1.07.79-.46.19-.98.29-1.57.29-.87,0-1.57-.18-2.1-.54-.53-.37-.84-.88-.95-1.53l1.63-.16c.07.32.23.56.47.73.24.16.55.24.94.24s.72-.08.96-.24c.24-.16.36-.36.36-.61,0-.2-.08-.37-.24-.5-.15-.13-.39-.23-.72-.3l-1.21-.25c-.68-.14-1.18-.38-1.51-.72-.33-.34-.49-.77-.48-1.28,0-.44.12-.82.36-1.14.24-.32.58-.57,1.01-.75.43-.18.93-.27,1.5-.27.83,0,1.49.18,1.96.53.48.35.78.83.89,1.43ZM30.14,21.44c-.71,0-1.32-.15-1.84-.44-.51-.3-.91-.72-1.19-1.27-.28-.55-.42-1.19-.42-1.93s.14-1.37.42-1.92c.28-.55.67-.98,1.17-1.29.5-.31,1.09-.47,1.77-.47.44,0,.85.07,1.24.21.39.14.74.35,1.03.65.3.29.54.67.71,1.12.17.45.26.98.26,1.61v.51h-5.81v-1.13h4.21c0-.32-.07-.61-.21-.85-.14-.25-.33-.45-.57-.6-.24-.14-.52-.22-.84-.22-.34,0-.64.08-.9.25-.26.16-.46.38-.6.65-.14.26-.21.56-.22.87v.98c0,.41.08.77.23,1.06.15.29.36.52.63.67.27.15.59.23.95.23.24,0,.46-.03.66-.1.2-.07.37-.17.51-.31.15-.14.25-.3.33-.5l1.56.17c-.1.41-.29.77-.56,1.08-.27.3-.62.54-1.05.71-.43.17-.92.25-1.47.25ZM37.84,21.44c-.71,0-1.32-.15-1.84-.44-.51-.3-.91-.72-1.19-1.27-.28-.55-.42-1.19-.42-1.93s.14-1.37.42-1.92c.28-.55.67-.98,1.17-1.29.5-.31,1.09-.47,1.77-.47.44,0,.85.07,1.24.21.39.14.74.35,1.03.65.3.29.54.67.71,1.12.17.45.26.98.26,1.61v.51h-5.81v-1.13h4.21c0-.32-.07-.61-.21-.85-.14-.25-.33-.45-.57-.6-.24-.14-.52-.22-.84-.22-.34,0-.64.08-.9.25-.26.16-.46.38-.6.65-.14.26-.21.56-.22.87v.98c0,.41.08.77.23,1.06.15.29.36.52.63.67.27.15.59.23.95.23.24,0,.46-.03.66-.1.2-.07.37-.17.51-.31.15-.14.25-.3.33-.5l1.56.17c-.1.41-.29.77-.56,1.08-.27.3-.62.54-1.05.71-.43.17-.92.25-1.47.25ZM47.1,21.3l-2-7.09h1.7l1.25,4.99h.06l1.27-4.99h1.68l1.28,4.96h.07l1.23-4.96h1.71l-2.01,7.09h-1.74l-1.33-4.79h-.1l-1.33,4.79h-1.75ZM58.18,17.14v4.15h-1.67v-9.45h1.63v3.57h.08c.17-.4.42-.72.77-.95.35-.23.8-.35,1.34-.35.49,0,.92.1,1.29.31.37.21.65.51.85.9.2.4.3.88.3,1.45v4.52h-1.67v-4.26c0-.48-.12-.85-.37-1.11-.24-.27-.58-.4-1.02-.4-.3,0-.56.07-.8.19-.23.13-.41.31-.54.55-.13.24-.19.53-.19.87ZM66.53,21.44c-.45,0-.85-.08-1.21-.24-.36-.16-.64-.4-.85-.72-.21-.32-.31-.71-.31-1.17,0-.4.07-.73.22-.99.15-.26.35-.47.6-.63.26-.16.54-.28.86-.36.32-.08.66-.14,1-.18.42-.04.75-.08,1.01-.11.26-.04.45-.09.56-.17.12-.08.18-.2.18-.36v-.03c0-.35-.1-.62-.31-.81-.21-.19-.5-.29-.89-.29-.41,0-.73.09-.97.27-.24.18-.4.39-.48.63l-1.56-.22c.12-.43.33-.79.61-1.08.28-.29.63-.51,1.04-.66.41-.15.86-.22,1.36-.22.34,0,.68.04,1.02.12.34.08.65.21.93.4.28.18.51.43.67.74.17.31.26.71.26,1.18v4.75h-1.61v-.97h-.06c-.1.2-.24.38-.43.55-.18.17-.41.31-.69.41-.27.1-.6.15-.96.15ZM66.96,20.21c.33,0,.63-.07.87-.2.25-.14.44-.31.57-.54.14-.22.2-.46.2-.73v-.83c-.05.04-.14.08-.27.12-.12.04-.26.07-.42.1-.15.03-.31.05-.46.07-.15.02-.28.04-.39.06-.25.03-.47.09-.67.17-.2.08-.35.18-.47.32-.11.14-.17.31-.17.53,0,.31.11.54.34.7.23.16.51.24.86.24ZM75.49,14.21v1.29h-4.08v-1.29h4.08ZM72.42,12.51h1.67v6.66c0,.23.03.4.1.52.07.12.16.2.28.24s.24.07.38.07c.11,0,.2,0,.29-.02.09-.02.16-.03.2-.04l.28,1.31c-.09.03-.22.06-.38.1-.16.04-.36.06-.6.06-.42.01-.8-.05-1.13-.19-.34-.14-.6-.36-.8-.66-.19-.3-.29-.67-.29-1.11v-6.93ZM81.15,23.96c-.23,0-.44-.02-.63-.05-.19-.03-.34-.07-.46-.12l.39-1.3c.24.07.46.1.65.1.19,0,.36-.06.5-.18.15-.11.27-.3.37-.57l.14-.38-2.57-7.24h1.77l1.63,5.36h.07l1.64-5.36h1.78l-2.84,7.95c-.13.38-.31.7-.53.96-.22.27-.49.48-.8.62-.31.15-.69.22-1.13.22ZM90.45,21.44c-.69,0-1.29-.15-1.8-.46-.51-.3-.9-.73-1.18-1.28-.28-.55-.42-1.19-.42-1.92s.14-1.37.42-1.92c.28-.55.67-.98,1.18-1.28.51-.3,1.11-.46,1.8-.46s1.29.15,1.8.46c.51.3.9.73,1.18,1.28.28.55.42,1.19.42,1.92s-.14,1.37-.42,1.92c-.28.55-.67.97-1.18,1.28-.51.3-1.11.46-1.8.46ZM90.46,20.1c.38,0,.69-.1.94-.31.25-.21.44-.49.56-.84.13-.35.19-.74.19-1.17s-.06-.83-.19-1.18c-.12-.35-.31-.63-.56-.84-.25-.21-.57-.31-.94-.31s-.7.1-.96.31c-.25.21-.44.49-.57.84-.12.35-.18.74-.18,1.18s.06.82.18,1.17c.13.35.32.63.57.84.26.21.58.31.96.31ZM99.79,18.32v-4.11h1.67v7.09h-1.62v-1.26h-.07c-.16.4-.42.72-.79.97-.36.25-.81.38-1.34.38-.47,0-.88-.1-1.23-.31-.35-.21-.63-.51-.83-.91-.2-.4-.3-.88-.3-1.45v-4.52h1.67v4.26c0,.45.12.81.37,1.07.25.26.57.4.97.4.25,0,.49-.06.72-.18.23-.12.42-.3.57-.54.15-.24.23-.54.23-.9ZM104.79,11.84v.94c0,.27-.05.55-.16.85-.1.29-.24.57-.42.83-.18.26-.38.49-.61.67l-.78-.5c.17-.26.32-.53.44-.83.13-.3.19-.63.19-1.01v-.95h1.33ZM107.82,11.84v9.45h-1.67v-9.45h1.67ZM111.21,11.84v9.45h-1.67v-9.45h1.67ZM121.76,16.08l-1.52.17c-.04-.15-.12-.3-.23-.43-.11-.14-.25-.24-.43-.33-.18-.08-.4-.12-.65-.12-.35,0-.64.08-.88.23-.23.15-.35.35-.35.59,0,.21.07.37.23.5.16.13.42.24.78.32l1.21.26c.67.15,1.17.37,1.5.69.33.31.5.72.5,1.23,0,.45-.13.84-.39,1.18-.26.34-.61.6-1.07.79-.46.19-.98.29-1.57.29-.87,0-1.57-.18-2.1-.54-.53-.37-.85-.88-.95-1.53l1.63-.16c.07.32.23.56.47.73.24.16.55.24.94.24s.72-.08.96-.24c.24-.16.36-.36.36-.61,0-.2-.08-.37-.24-.5-.15-.13-.39-.23-.72-.3l-1.21-.25c-.68-.14-1.18-.38-1.51-.72-.33-.34-.49-.77-.49-1.28,0-.44.11-.82.35-1.14.24-.32.58-.57,1.01-.75.43-.18.93-.27,1.5-.27.83,0,1.49.18,1.96.53.48.35.78.83.89,1.43ZM125.33,21.44c-.45,0-.85-.08-1.21-.24-.36-.16-.64-.4-.85-.72-.21-.32-.31-.71-.31-1.17,0-.4.07-.73.22-.99.15-.26.35-.47.6-.63.26-.16.54-.28.86-.36.32-.08.66-.14,1-.18.42-.04.75-.08,1.01-.11.26-.04.45-.09.56-.17.12-.08.18-.2.18-.36v-.03c0-.35-.1-.62-.31-.81-.21-.19-.5-.29-.89-.29-.41,0-.73.09-.97.27-.24.18-.4.39-.48.63l-1.56-.22c.12-.43.33-.79.61-1.08.28-.29.63-.51,1.04-.66.41-.15.86-.22,1.36-.22.34,0,.68.04,1.02.12.34.08.65.21.93.4.28.18.51.43.67.74.17.31.26.71.26,1.18v4.75h-1.61v-.97h-.05c-.1.2-.25.38-.43.55-.18.17-.41.31-.69.41-.27.1-.6.15-.96.15ZM125.76,20.21c.34,0,.63-.07.87-.2.25-.14.43-.31.57-.54.13-.22.2-.46.2-.73v-.83c-.05.04-.14.08-.27.12-.12.04-.26.07-.41.1-.15.03-.31.05-.46.07-.15.02-.28.04-.39.06-.25.03-.47.09-.67.17-.2.08-.35.18-.47.32-.11.14-.17.31-.17.53,0,.31.11.54.34.7.22.16.51.24.86.24ZM136.83,14.21l-2.53,7.09h-1.85l-2.52-7.09h1.78l1.63,5.27h.07l1.63-5.27h1.78ZM140.89,21.44c-.71,0-1.32-.15-1.84-.44-.51-.3-.91-.72-1.19-1.27-.28-.55-.42-1.19-.42-1.93s.14-1.37.42-1.92c.28-.55.67-.98,1.17-1.29.5-.31,1.09-.47,1.77-.47.44,0,.85.07,1.24.21.39.14.74.35,1.03.65.3.29.54.67.71,1.12.17.45.26.98.26,1.61v.51h-5.81v-1.13h4.21c0-.32-.07-.61-.21-.85-.14-.25-.32-.45-.57-.6-.24-.14-.52-.22-.84-.22-.34,0-.64.08-.9.25-.26.16-.46.38-.6.65-.14.26-.21.56-.22.87v.98c0,.41.08.77.23,1.06.15.29.36.52.63.67.27.15.59.23.95.23.24,0,.46-.03.66-.1.2-.07.37-.17.51-.31.14-.14.25-.3.33-.5l1.56.17c-.1.41-.29.77-.56,1.08-.27.3-.62.54-1.05.71-.43.17-.92.25-1.47.25Z"/>
  </g>
</svg>