<svg id="Layer_1" data-name="Layer 1" xmlns="http://www.w3.org/2000/svg" xmlns:xlink="http://www.w3.org/1999/xlink" viewBox="0 0 300 600"><defs><style>.cls-1{fill:none;}.cls-2{clip-path:url(#clip-path);}.cls-3{fill:#fff;}</style><clipPath id="clip-path"><rect class="cls-1" width="300" height="600"/></clipPath></defs><g class="cls-2"><path class="cls-3" d="M42,253.74c1.55,0,2.15,1.07,2.15,2.49s-.6,2.58-2.15,2.58H25.41c-1.51,0-2.67-.73-2.67-2.32V233.18c0-1.59,1.16-2.32,2.67-2.32H41.53c1.59,0,2.2,1.12,2.2,2.54s-.61,2.49-2.2,2.49H28.33v6.19H38.44c1.59,0,2.19,1.08,2.19,2.5s-.6,2.49-2.19,2.49H28.33v6.67Z"/><path class="cls-3" d="M56.41,242.26c-2.88,0-3.44.38-3.44,3.26v11.4c0,1.59-1.16,2.23-2.62,2.23s-2.71-.64-2.71-2.23V245.09c0-6.58,2.11-7.78,8.86-7.78,4.38,0,5.5,1,5.5,2.67a2.21,2.21,0,0,1-2.32,2.45C58.82,242.43,58,242.26,56.41,242.26Z"/><path class="cls-3" d="M63.42,244.06c0-4,2.75-6.75,9.59-6.75,6.28,0,7.48,1.16,7.48,3.05,0,1.38-.56,2.11-2.32,2.11-1.29,0-2.58-.47-5.68-.47-2.58,0-3.74.51-3.74,1.55,0,3.35,12.6.68,12.6,8.9,0,4.77-3.35,6.79-9.46,6.79-7.39,0-8.34-1.12-8.34-2.88,0-1.51.6-2.32,2.36-2.32,1.34,0,2.76.51,5.81.51,2.75,0,4.3-.56,4.3-1.85C76,249.52,63.42,252,63.42,244.06Z"/><path class="cls-3" d="M86,240.28c0-1.94,1.64-3,8.09-3,7.95,0,9.93,1.25,9.93,7.1v8.12c0,5.68-2.54,6.71-9.93,6.71s-9.29-1-9.29-6.84c0-4.77,1.16-6.7,9-6.7h4.9v-.86c0-2.11-.82-2.63-4-2.63s-5.16.52-6.41.52C86.55,242.73,86,241.78,86,240.28ZM98.68,250h-5.2c-3,0-3.53.51-3.53,2.19s.65,2.32,4.26,2.32,4.47-.43,4.47-1.63Z"/><path class="cls-3" d="M118.33,254.47c1.29,0,2-.13,2.92-.13,1.42,0,2,.73,2,2.11,0,2-.94,2.79-5.76,2.79-4.08,0-6.1-1.12-6.1-5.93V242.64H109.3c-1.51,0-2.06-1-2.06-2.45s.55-2.45,2.06-2.45h2.11v-3.4c0-1.54,1.2-2.19,2.62-2.19s2.71.65,2.71,2.19v3.4h4.43c1.5,0,1.93,1.08,1.93,2.45s-.43,2.45-1.93,2.45h-4.43v10.24A1.43,1.43,0,0,0,118.33,254.47Z"/><path class="cls-3" d="M135.27,242.51h-8.12c-1.55,0-2.11-1-2.11-2.36s.56-2.41,2.11-2.41h12.51c2,0,3.05,1.16,3.05,2.62a4.54,4.54,0,0,1-1.29,2.93L131.75,254h8.9c1.55,0,2.1,1,2.1,2.36s-.55,2.41-2.1,2.41H127.49c-2,0-3.14-1.16-3.14-2.67a4.38,4.38,0,0,1,1.25-2.88Z"/><path class="cls-3" d="M159.14,240.19a3.59,3.59,0,0,1,3.78-2.79,3.51,3.51,0,0,1,3.66,2.79L170.27,252h.61l3.87-12.6c1-3.31,6.62-2.54,5.11,1.67l-5.5,15.36a3.67,3.67,0,0,1-3.7,2.79,3.81,3.81,0,0,1-3.91-2.79l-3.66-11.79h-.6l-3.83,11.79a3.56,3.56,0,0,1-3.65,2.79,3.91,3.91,0,0,1-4-2.79l-5.24-15.36c-1.42-4.12,4.3-4.94,5.11-1.72L154.75,252h.6Z"/><path class="cls-3" d="M184.12,240.28c0-1.94,1.63-3,8.08-3,8,0,9.94,1.25,9.94,7.1v8.12c0,5.68-2.54,6.71-9.94,6.71s-9.28-1-9.28-6.84c0-4.77,1.16-6.7,9-6.7h4.9v-.86c0-2.11-.82-2.63-4-2.63s-5.16.52-6.41.52C184.72,242.73,184.12,241.78,184.12,240.28ZM196.85,250h-5.21c-3,0-3.52.51-3.52,2.19s.64,2.32,4.26,2.32,4.47-.43,4.47-1.63Z"/><path class="cls-3" d="M223.46,235.85c0-1.51,1.21-2.11,2.63-2.11s2.58.6,2.58,2.11v8.94c0,5.76-2.93,7-9.85,7a22,22,0,0,1-5.42-.52h-.13v2.67h8.56c5.8,0,7.61,1.59,7.61,6,0,5.46-2.75,7.3-11.14,7.3-7.56,0-10.23-1.63-10.23-7.18V244.1c0-6,2.62-6.79,9.85-6.79a24,24,0,0,1,5.41.47h.13Zm0,8.56V242.3a35.92,35.92,0,0,0-5.37-.35c-4.43,0-4.82.56-4.82,2.28v.91c0,1.67.6,2,5.08,2C223.08,247.16,223.46,246.77,223.46,244.41Zm-10.19,15.17c0,2.5.95,3,5.12,3,4.69,0,5.85-.51,5.85-2.28,0-1.33-.65-1.72-3.36-1.72h-7.61Z"/><path class="cls-3" d="M252.27,256.23a2.07,2.07,0,0,1-1.8,2.37,32.07,32.07,0,0,1-7,.64c-7.7,0-10.19-1.89-10.19-8.13v-5.59c0-6.58,2.79-8.21,10-8.21,7.05,0,9.33,1.81,9.33,8.08v2.46c0,1.84-.69,2.49-2.28,2.49H238.6v1.07c0,2.24,1.55,3.1,4.64,3.1,2.33,0,5.21-.39,6.8-.39S252.27,254.6,252.27,256.23ZM238.6,246.08h8.77v-.94c0-2.54-.94-3.19-4.38-3.19-3.23,0-4.39.56-4.39,3.19Z"/><path class="cls-3" d="M263.45,246.64v10.28c0,1.59-1.2,2.23-2.66,2.23s-2.67-.64-2.67-2.23V246.38c0-8,1.94-9.07,9.72-9.07s9.85,1.08,9.85,9.07v10.54c0,1.59-1.21,2.23-2.67,2.23s-2.62-.64-2.62-2.23V246.64c0-3.91-.61-4.56-4.56-4.56S263.45,242.73,263.45,246.64Z"/><path class="cls-3" d="M95.37,297.77v10.15c0,1.59-1.2,2.23-2.67,2.23S90,309.51,90,307.92V297.38c0-3.61-.78-4.17-3.83-4.17-3.31,0-3.74.64-3.74,4.56v10.15c0,1.59-1.2,2.23-2.67,2.23s-2.66-.64-2.66-2.23V297.38c0-8,2.23-9.07,9.07-9.07,3,0,5.07.34,6.45,1.16,1.33-.82,3.4-1.16,6.41-1.16,6.79,0,9.16,1.07,9.16,9.07v10.54c0,1.59-1.25,2.23-2.71,2.23s-2.63-.64-2.63-2.23V297.77c0-3.92-.51-4.56-3.82-4.56S95.37,293.85,95.37,297.77Z"/><path class="cls-3" d="M116.91,280.57a3.06,3.06,0,0,1,3,3.05,3,3,0,0,1-3,3,3,3,0,0,1-3-3A3,3,0,0,1,116.91,280.57Zm2.67,27.35c0,1.59-1.21,2.23-2.67,2.23s-2.66-.64-2.66-2.23V290.67c0-1.59,1.2-2.28,2.66-2.28s2.67.69,2.67,2.28Z"/><path class="cls-3" d="M144.35,307.23a2.07,2.07,0,0,1-1.81,2.36,31.21,31.21,0,0,1-7,.65c-7.7,0-10.19-1.89-10.19-8.13v-5.59c0-6.58,2.79-8.21,10-8.21,7,0,9.33,1.8,9.33,8.08v2.45c0,1.85-.69,2.5-2.28,2.5H130.67v1.07c0,2.24,1.55,3.1,4.65,3.1,2.32,0,5.2-.39,6.79-.39S144.35,305.59,144.35,307.23Zm-13.68-10.15h8.77v-.95c0-2.53-.94-3.18-4.38-3.18-3.23,0-4.39.56-4.39,3.18Z"/><path class="cls-3" d="M158.62,305.46c1.29,0,2-.12,2.92-.12,1.42,0,2,.73,2,2.1,0,2-.95,2.8-5.77,2.8-4.08,0-6.1-1.12-6.1-5.94V293.64h-2.11c-1.5,0-2.06-1-2.06-2.45s.56-2.45,2.06-2.45h2.11v-3.4c0-1.55,1.2-2.19,2.62-2.19s2.71.64,2.71,2.19v3.4h4.43c1.5,0,1.93,1.07,1.93,2.45s-.43,2.45-1.93,2.45H157v10.23A1.42,1.42,0,0,0,158.62,305.46Z"/><path class="cls-3" d="M185.28,307.23a2.07,2.07,0,0,1-1.81,2.36,31.09,31.09,0,0,1-7,.65c-7.7,0-10.19-1.89-10.19-8.13v-5.59c0-6.58,2.79-8.21,10-8.21,7.06,0,9.33,1.8,9.33,8.08v2.45c0,1.85-.68,2.5-2.27,2.5H171.61v1.07c0,2.24,1.55,3.1,4.64,3.1,2.32,0,5.2-.39,6.79-.39S185.28,305.59,185.28,307.23Zm-13.67-10.15h8.77v-.95c0-2.53-.95-3.18-4.39-3.18-3.22,0-4.38.56-4.38,3.18Z"/><path class="cls-3" d="M196.46,297.64v10.28c0,1.59-1.2,2.23-2.67,2.23s-2.66-.64-2.66-2.23V297.38c0-8,1.93-9.07,9.72-9.07s9.84,1.07,9.84,9.07v10.54c0,1.59-1.2,2.23-2.66,2.23s-2.62-.64-2.62-2.23V297.64c0-3.91-.61-4.56-4.56-4.56S196.46,293.73,196.46,297.64Z"/><path class="cls-3" d="M219.77,303.49a3.32,3.32,0,0,1,3.31,3.35,3.23,3.23,0,0,1-3.31,3.31,3.17,3.17,0,0,1-3.27-3.31A3.26,3.26,0,0,1,219.77,303.49Zm2.19-3.74a2,2,0,0,1-2.19,1.8,1.94,1.94,0,0,1-2.11-1.8l-1.08-15.61c-.12-1.81,1.6-2.71,3.32-2.71s3.26.86,3.14,2.71Z"/></g></svg>