<svg xmlns="http://www.w3.org/2000/svg" viewBox="0 0 136.92 37.74"><defs><style>.cls-1{fill:#172983;}.cls-2{fill:#fff;}</style></defs><g id="Layer_2" data-name="Layer 2"><g id="Layer_1-2" data-name="Layer 1"><rect class="cls-1" width="136.92" height="37.74" rx="7.1"/><path class="cls-2" d="M19.62,21V15.31c0-.54.42-.75.9-.75s.95.21.95.75V21.1c0,2.3-.77,2.94-3.14,2.94-2.17,0-3.08-.33-3.08-2.94v-.25c0-.54.4-.76.9-.76s.89.22.89.76V21c0,1.37.26,1.51,1.29,1.51S19.62,22.35,19.62,21Zm10.14,2.1a.69.69,0,0,1-.6.78,10.72,10.72,0,0,1-2.31.21c-2.54,0-3.36-.63-3.36-2.68V19.51c0-2.17.92-2.71,3.3-2.71s3.08.6,3.08,2.67v.81c0,.61-.22.82-.75.82H25.25v.36c0,.73.51,1,1.53,1,.77,0,1.72-.13,2.24-.13S29.76,22.51,29.76,23.05ZM25.25,19.7h2.89v-.32c0-.83-.31-1.05-1.45-1.05s-1.44.19-1.44,1.05Zm9.22,2.76c.43,0,.67,0,1,0,.47,0,.67.24.67.7,0,.65-.32.92-1.91.92-1.34,0-2-.37-2-2V18.56h-.7c-.49,0-.68-.34-.68-.81s.19-.81.68-.81h.7V15.82c0-.51.4-.72.87-.72s.89.21.89.72v1.12h1.46c.5,0,.64.36.64.81s-.14.81-.64.81H34v3.38A.46.46,0,0,0,34.47,22.46Zm5.6-3.94H37.39c-.52,0-.7-.33-.7-.78s.18-.8.7-.8h4.12a.89.89,0,0,1,1,.87,1.49,1.49,0,0,1-.42,1l-3.2,3.55h2.94c.51,0,.7.33.7.78s-.19.8-.7.8H37.5c-.67,0-1-.39-1-.88a1.45,1.45,0,0,1,.41-.95Zm6.51,3.94c.43,0,.67,0,1,0,.47,0,.67.24.67.7,0,.65-.32.92-1.91.92-1.34,0-2-.37-2-2V18.56h-.7c-.49,0-.68-.34-.68-.81s.19-.81.68-.81h.7V15.82c0-.51.4-.72.86-.72s.9.21.9.72v1.12h1.46c.5,0,.64.36.64.81s-.14.81-.64.81H46.06v3.38A.46.46,0,0,0,46.58,22.46Zm6.17-2.12c0-3,.88-3.54,3.4-3.54s3.39.51,3.39,3.54S58.73,24,56.15,24a8,8,0,0,1-1.57-.19h0v1.82c0,.54-.42.74-.9.74s-.88-.2-.88-.74Zm3.4-2c-1.18,0-1.64.14-1.64,2s.36,2.1,1.64,2.1,1.65-.19,1.65-2.1S57.46,18.38,56.15,18.38Zm8,.05c-1,0-1.13.13-1.13,1.08v3.76c0,.53-.38.74-.87.74s-.89-.21-.89-.74v-3.9c0-2.17.69-2.57,2.92-2.57,1.45,0,1.82.34,1.82.88a.73.73,0,0,1-.77.81C64.94,18.49,64.68,18.43,64.14,18.43Zm5.75-1.63c2.54,0,3.42.7,3.42,3.69S72.43,24,69.89,24s-3.4-.54-3.4-3.55S67.33,16.8,69.89,16.8Zm0,5.66c1.28,0,1.66-.15,1.66-2s-.38-2.08-1.66-2.08-1.64.18-1.64,2.08S68.59,22.46,69.89,22.46ZM77.65,16c-.53,0-.64.16-.64.74v.25h1.26c.52,0,.71.34.71.81s-.19.81-.71.81H77v4.71c0,.53-.39.74-.88.74s-.87-.21-.87-.74V18.56h-.68c-.51,0-.7-.34-.7-.81s.19-.81.7-.81h.68v-.21c0-1.84.53-2.34,2.39-2.34,1.64,0,1.88.2,1.88.87a.72.72,0,0,1-.82.73C78.45,16,78,16,77.65,16Zm3.23-1.56a1,1,0,0,1,1,1,1,1,0,0,1-1,1,1,1,0,0,1-1-1A1,1,0,0,1,80.88,14.39Zm.88,8.88c0,.53-.4.74-.88.74S80,23.8,80,23.27V17.7c0-.53.4-.76.88-.76s.88.23.88.76Zm4.62-.81c.42,0,.66,0,1,0,.47,0,.67.24.67.7,0,.65-.31.92-1.9.92-1.35,0-2-.37-2-2V18.56H83.4c-.5,0-.69-.34-.69-.81s.19-.81.69-.81h.69V15.82c0-.51.4-.72.87-.72s.89.21.89.72v1.12h1.46c.5,0,.64.36.64.81s-.14.81-.64.81H85.85v3.38A.47.47,0,0,0,86.38,22.46ZM90,14.25a1,1,0,0,1,1,1,1,1,0,0,1-1,1,1,1,0,0,1-1-1A1,1,0,0,1,90,14.25Zm.88,9c0,.53-.4.74-.88.74s-.88-.21-.88-.74V17.58c0-.52.4-.75.88-.75s.88.23.88.75ZM99,23.05a.69.69,0,0,1-.6.78,10.72,10.72,0,0,1-2.31.21c-2.54,0-3.36-.63-3.36-2.68V19.51c0-2.17.92-2.71,3.3-2.71s3.08.6,3.08,2.67v.81c0,.61-.23.82-.75.82H94.52v.36c0,.73.52,1,1.54,1,.76,0,1.71-.13,2.24-.13S99,22.51,99,23.05ZM94.52,19.7h2.9v-.32c0-.83-.31-1.05-1.45-1.05s-1.45.19-1.45,1.05Zm9.35-1.27c-1,0-1.14.13-1.14,1.08v3.76c0,.53-.38.74-.87.74s-.89-.21-.89-.74v-3.9c0-2.17.7-2.57,2.92-2.57,1.45,0,1.82.34,1.82.88a.73.73,0,0,1-.77.81C104.66,18.49,104.4,18.43,103.87,18.43Zm8.78,4.62a.69.69,0,0,1-.59.78,10.93,10.93,0,0,1-2.32.21c-2.54,0-3.36-.63-3.36-2.68V19.51c0-2.17.92-2.71,3.31-2.71s3.07.6,3.07,2.67v.81c0,.61-.22.82-.75.82h-3.87v.36c0,.73.51,1,1.53,1,.77,0,1.72-.13,2.24-.13S112.65,22.51,112.65,23.05Zm-4.51-3.35H111v-.32c0-.83-.31-1.05-1.44-1.05s-1.45.19-1.45,1.05Zm8.2.18v3.39c0,.53-.39.74-.88.74s-.88-.21-.88-.74V19.8c0-2.64.64-3,3.21-3s3.25.36,3.25,3v3.47c0,.53-.4.74-.88.74s-.86-.21-.86-.74V19.88c0-1.29-.2-1.5-1.51-1.5S116.34,18.59,116.34,19.88Z"/></g></g></svg>