<svg id="Layer_1" data-name="Layer 1" xmlns="http://www.w3.org/2000/svg" xmlns:xlink="http://www.w3.org/1999/xlink" viewBox="0 0 600 500"><defs><style>.cls-1{fill:none;}.cls-2{clip-path:url(#clip-path);}.cls-3{fill:#fff;}</style><clipPath id="clip-path"><rect class="cls-1" width="600" height="500"/></clipPath></defs><g class="cls-2"><g class="cls-2"><path class="cls-3" d="M230.65,280.65c-.84,0-1.51-.36-1.51-1.28V266.25c0-.89.7-1.3,1.54-1.3s1.51.41,1.51,1.3v11.56h6.67c.87,0,1.2.63,1.2,1.42s-.33,1.42-1.2,1.42Z"/><path class="cls-3" d="M252.09,279.21a1.16,1.16,0,0,1-1,1.32,17.83,17.83,0,0,1-3.91.36c-4.3,0-5.69-1.06-5.69-4.54v-3.12c0-3.67,1.56-4.58,5.59-4.58s5.21,1,5.21,4.51v1.37c0,1-.39,1.39-1.27,1.39h-6.56v.6c0,1.25.87,1.73,2.59,1.73,1.3,0,2.91-.22,3.8-.22S252.09,278.29,252.09,279.21Zm-7.64-5.67h4.9V273c0-1.41-.53-1.77-2.45-1.77s-2.45.31-2.45,1.77Z"/><path class="cls-3" d="M255.23,270.3c0-1.08.91-1.65,4.51-1.65,4.44,0,5.55.69,5.55,4v4.53c0,3.17-1.42,3.75-5.55,3.75s-5.18-.58-5.18-3.82c0-2.66.64-3.74,5-3.74h2.73v-.48c0-1.18-.45-1.47-2.25-1.47s-2.88.29-3.58.29C255.56,271.67,255.23,271.14,255.23,270.3Zm7.1,5.45h-2.9c-1.66,0-2,.29-2,1.22s.36,1.3,2.38,1.3,2.49-.24,2.49-.91Z"/><path class="cls-3" d="M267.73,272.41c0-2.23,1.54-3.76,5.35-3.76,3.51,0,4.18.64,4.18,1.7,0,.77-.31,1.18-1.3,1.18-.71,0-1.44-.27-3.16-.27-1.44,0-2.09.29-2.09.87,0,1.87,7,.38,7,5,0,2.67-1.87,3.8-5.28,3.8-4.13,0-4.66-.63-4.66-1.61s.34-1.3,1.32-1.3c.75,0,1.54.29,3.24.29,1.54,0,2.4-.31,2.4-1C274.76,275.46,267.73,276.85,267.73,272.41Z"/><path class="cls-3" d="M281.39,264.33a1.69,1.69,0,1,1,0,3.38,1.69,1.69,0,0,1,0-3.38Zm1.49,15.26c0,.89-.67,1.25-1.49,1.25s-1.49-.36-1.49-1.25V270c0-.89.67-1.28,1.49-1.28s1.49.39,1.49,1.28Z"/><path class="cls-3" d="M289.21,273.85v5.74c0,.89-.67,1.25-1.49,1.25s-1.48-.36-1.48-1.25v-5.88c0-4.46,1.08-5.06,5.42-5.06s5.5.6,5.5,5.06v5.88c0,.89-.68,1.25-1.49,1.25s-1.47-.36-1.47-1.25v-5.74c0-2.18-.33-2.54-2.54-2.54S289.21,271.67,289.21,273.85Z"/><path class="cls-3" d="M309.11,267.83c0-.84.67-1.18,1.46-1.18s1.44.34,1.44,1.18v5c0,3.22-1.63,3.89-5.49,3.89a12.17,12.17,0,0,1-3-.29h-.07v1.49h4.78c3.24,0,4.25.89,4.25,3.34,0,3-1.54,4.08-6.22,4.08-4.23,0-5.71-.91-5.71-4v-8.88c0-3.36,1.46-3.79,5.49-3.79a13.54,13.54,0,0,1,3,.26h.07Zm0,4.78v-1.18a19.58,19.58,0,0,0-3-.19c-2.47,0-2.69.31-2.69,1.27v.5c0,.94.34,1.13,2.83,1.13S309.11,273.93,309.11,272.61Zm-5.69,8.47c0,1.39.53,1.65,2.86,1.65,2.61,0,3.26-.28,3.26-1.27,0-.74-.36-1-1.87-1h-4.25Z"/><path class="cls-3" d="M318.54,274.77v4.8c0,.91-.72,1.27-1.56,1.27s-1.56-.36-1.56-1.27V266.34c0-.86.58-1.3,1.44-1.3h6.26c3.72,0,5.14,1.06,5.14,4.78,0,2.95-.89,4.95-5.14,4.95Zm0-2.74h4.58c1.49,0,2-.62,2-2.18s-.53-2-2-2h-4.56Z"/><path class="cls-3" d="M332.34,280.65c-.84,0-1.51-.36-1.51-1.28V266.25c0-.89.69-1.3,1.53-1.3s1.52.41,1.52,1.3v11.56h6.67c.86,0,1.2.63,1.2,1.42s-.34,1.42-1.2,1.42Z"/><path class="cls-3" d="M353.05,275.2v-9.08c0-.91.72-1.27,1.56-1.27s1.54.36,1.54,1.27v9.37c0,5-2.43,5.4-6.63,5.4s-6.5-.41-6.5-5.4v-9.37c0-.91.72-1.27,1.56-1.27s1.56.36,1.56,1.27v9.08c0,2.47.91,2.88,3.38,2.88S353.05,277.67,353.05,275.2Z"/><path class="cls-3" d="M364.93,280.89c-2.81,0-5.66-.34-5.66-1.95a1.29,1.29,0,0,1,1.22-1.44c1.2,0,3.15.48,4.44.48,2.35,0,3.58-.53,3.58-2,0-3.5-9.12.58-9.12-6.55,0-3.17,2-4.64,6.6-4.64,2.78,0,5,.37,5,1.76a1.3,1.3,0,0,1-1.35,1.39c-1.15,0-2.71-.34-3.93-.34-2.26,0-3.27.68-3.27,1.8,0,3.6,9.1-.4,9.1,6.36C371.58,279.13,369.73,280.89,364.93,280.89Z"/><path class="cls-3" d="M50.62,328.29c-1.54,0-2.7-.64-2.7-2.28V302.66c0-1.59,1.16-2.32,2.7-2.32h9.29c8.9,0,12.82,2,12.82,14.1s-4.82,13.85-12.82,13.85Zm2.89-5.07H59.7c4.86,0,7.44-1.12,7.44-8.82s-2.45-9-7.44-9H53.51Z"/><path class="cls-3" d="M78.53,309.76c0-1.94,1.64-3,8.09-3,7.95,0,9.93,1.25,9.93,7.1V322c0,5.68-2.54,6.71-9.93,6.71s-9.29-1-9.29-6.84c0-4.77,1.16-6.71,9-6.71h4.9v-.85c0-2.11-.82-2.63-4-2.63s-5.16.52-6.41.52C79.13,312.21,78.53,311.26,78.53,309.76Zm12.73,9.76h-5.2c-3,0-3.53.51-3.53,2.19s.65,2.32,4.26,2.32,4.47-.43,4.47-1.63Z"/><path class="cls-3" d="M100.93,313.54c0-4,2.76-6.75,9.59-6.75,6.28,0,7.48,1.16,7.48,3,0,1.38-.55,2.11-2.32,2.11-1.29,0-2.58-.47-5.67-.47-2.58,0-3.74.51-3.74,1.55,0,3.35,12.6.68,12.6,8.9,0,4.77-3.36,6.79-9.46,6.79-7.4,0-8.35-1.12-8.35-2.88,0-1.51.61-2.32,2.37-2.32,1.33,0,2.75.51,5.8.51,2.76,0,4.3-.56,4.3-1.85C113.53,319,100.93,321.5,100.93,313.54Z"/><path class="cls-3" d="M151.24,321H139l-2.32,5.59c-1.42,3.4-7.27,2.28-5.51-1.67l10-22.23a4.18,4.18,0,0,1,4-2.8,4.24,4.24,0,0,1,4,2.8l10,22.23c1.72,3.87-4.09,5.07-5.51,1.72Zm-6.45-13.93-3.78,9h8.17l-3.78-9Z"/><path class="cls-3" d="M168.53,326.4c0,1.59-1.2,2.23-2.71,2.23s-2.71-.64-2.71-2.23V301.76c0-1.59,1.25-2.28,2.71-2.28s2.71.69,2.71,2.28Z"/><path class="cls-3" d="M180,326.4c0,1.59-1.21,2.23-2.71,2.23s-2.71-.64-2.71-2.23V301.76c0-1.59,1.25-2.28,2.71-2.28s2.71.69,2.71,2.28Z"/><path class="cls-3" d="M185.9,319.13c-1.46,0-2.06-1.12-2.06-2.45s.6-2.41,2.06-2.41H195c1.47,0,2.11,1.08,2.11,2.41s-.64,2.45-2.11,2.45Z"/><path class="cls-3" d="M200.43,328.29c-1.59,0-2.14-1-2.14-2.45s.55-2.45,2.14-2.45H203v-18.1h-2.58c-1.59,0-2.14-1-2.14-2.46s.55-2.49,2.14-2.49h10.75c1.6,0,2.15,1,2.15,2.49s-.55,2.46-2.15,2.46H208.6v18.1h2.58c1.6,0,2.15,1,2.15,2.45s-.55,2.45-2.15,2.45Z"/><path class="cls-3" d="M222.88,316.12V326.4c0,1.59-1.2,2.23-2.67,2.23s-2.66-.64-2.66-2.23V315.86c0-8,1.93-9.07,9.72-9.07s9.84,1.08,9.84,9.07V326.4c0,1.59-1.2,2.23-2.66,2.23s-2.63-.64-2.63-2.23V316.12c0-3.91-.6-4.56-4.55-4.56S222.88,312.21,222.88,316.12Z"/><path class="cls-3" d="M248.21,315v5.68c0,1.89.81,3.18,4.25,3.18,2.15,0,3.36-.43,5.08-.43,1.55,0,2.1.94,2.1,2.36a2.22,2.22,0,0,1-1.84,2.41,21.84,21.84,0,0,1-5.55.56c-7.31,0-9.37-2.58-9.37-7.87v-6c0-6.15,2.36-8,9.71-8,6.58,0,7,1.08,7,3,0,1.38-.47,2.24-2,2.24s-2.79-.39-5.16-.39C249.15,311.65,248.21,312.68,248.21,315Z"/><path class="cls-3" d="M269,326.4c0,1.59-1.2,2.23-2.7,2.23s-2.71-.64-2.71-2.23V301.76c0-1.59,1.24-2.28,2.71-2.28s2.7.69,2.7,2.28Z"/><path class="cls-3" d="M289.06,319.39V309.11c0-1.59,1.16-2.23,2.62-2.23s2.66.64,2.66,2.23v10.54c0,8-2,9.07-9.71,9.07s-9.68-1.07-9.68-9.07V309.11c0-1.59,1.16-2.23,2.67-2.23s2.66.64,2.66,2.23v10.28c0,3.91.39,4.56,4.35,4.56S289.06,323.3,289.06,319.39Z"/><path class="cls-3" d="M298.39,313.54c0-4,2.75-6.75,9.59-6.75,6.27,0,7.48,1.16,7.48,3,0,1.38-.56,2.11-2.32,2.11-1.29,0-2.58-.47-5.68-.47-2.58,0-3.74.51-3.74,1.55,0,3.35,12.6.68,12.6,8.9,0,4.77-3.36,6.79-9.46,6.79-7.4,0-8.34-1.12-8.34-2.88,0-1.51.6-2.32,2.36-2.32,1.33,0,2.75.51,5.81.51,2.75,0,4.3-.56,4.3-1.85C311,319,298.39,321.5,298.39,313.54Z"/><path class="cls-3" d="M322.85,299.05a3.07,3.07,0,0,1,3.06,3.05,3,3,0,0,1-3.06,3,3,3,0,0,1-3-3A3,3,0,0,1,322.85,299.05Zm2.67,27.35c0,1.59-1.21,2.23-2.67,2.23s-2.66-.64-2.66-2.23V309.16c0-1.6,1.2-2.28,2.66-2.28s2.67.68,2.67,2.28Z"/><path class="cls-3" d="M340.31,321.8l5.25-12.9c1.37-3.4,6.88-2.28,5.11,1.67l-6.88,15.35c-.9,2-2.06,2.8-3.69,2.8a4.09,4.09,0,0,1-3.92-2.8l-6.62-15.35c-1.63-3.82,3.79-5.16,5.12-1.72l5,12.95Z"/><path class="cls-3" d="M373,325.71a2.08,2.08,0,0,1-1.81,2.37,32.07,32.07,0,0,1-7,.64c-7.69,0-10.19-1.89-10.19-8.13V315c0-6.58,2.8-8.21,10-8.21,7.05,0,9.33,1.81,9.33,8.08v2.46c0,1.84-.68,2.49-2.28,2.49H359.32v1.07c0,2.24,1.54,3.1,4.64,3.1,2.32,0,5.2-.39,6.79-.39S373,324.08,373,325.71Zm-13.67-10.15h8.77v-.94c0-2.54-.95-3.19-4.39-3.19-3.22,0-4.38.56-4.38,3.19Z"/><path class="cls-3" d="M379.61,319.13c-1.46,0-2.06-1.12-2.06-2.45s.6-2.41,2.06-2.41h9.07c1.47,0,2.11,1.08,2.11,2.41s-.64,2.45-2.11,2.45Z"/><path class="cls-3" d="M397.76,328.29c-1.51,0-2.71-.64-2.71-2.28V302.49c0-1.59,1.24-2.32,2.75-2.32s2.71.73,2.71,2.32v20.73h11.95c1.55,0,2.15,1.11,2.15,2.53s-.6,2.54-2.15,2.54Z"/><path class="cls-3" d="M436.16,325.71a2.08,2.08,0,0,1-1.81,2.37,32.07,32.07,0,0,1-7,.64c-7.7,0-10.19-1.89-10.19-8.13V315c0-6.58,2.8-8.21,10-8.21,7.05,0,9.33,1.81,9.33,8.08v2.46c0,1.84-.69,2.49-2.28,2.49H422.48v1.07c0,2.24,1.55,3.1,4.65,3.1,2.32,0,5.2-.39,6.79-.39S436.16,324.08,436.16,325.71Zm-13.68-10.15h8.77v-.94c0-2.54-.94-3.19-4.38-3.19-3.23,0-4.39.56-4.39,3.19Z"/><path class="cls-3" d="M441.79,309.76c0-1.94,1.63-3,8.08-3,8,0,9.93,1.25,9.93,7.1V322c0,5.68-2.53,6.71-9.93,6.71s-9.29-1-9.29-6.84c0-4.77,1.17-6.71,9-6.71h4.91v-.85c0-2.11-.82-2.63-4-2.63s-5.16.52-6.4.52C442.39,312.21,441.79,311.26,441.79,309.76Zm12.73,9.76h-5.21c-3,0-3.52.51-3.52,2.19S446.43,324,450,324s4.48-.43,4.48-1.63Z"/><path class="cls-3" d="M464.19,313.54c0-4,2.75-6.75,9.59-6.75,6.28,0,7.48,1.16,7.48,3,0,1.38-.56,2.11-2.32,2.11-1.29,0-2.58-.47-5.68-.47-2.58,0-3.74.51-3.74,1.55,0,3.35,12.6.68,12.6,8.9,0,4.77-3.35,6.79-9.46,6.79-7.39,0-8.34-1.12-8.34-2.88,0-1.51.6-2.32,2.37-2.32,1.33,0,2.75.51,5.8.51,2.75,0,4.3-.56,4.3-1.85C476.79,319,464.19,321.5,464.19,313.54Z"/><path class="cls-3" d="M488.66,299.05a3.07,3.07,0,0,1,3,3.05,3,3,0,0,1-3,3,3,3,0,0,1-3-3A3,3,0,0,1,488.66,299.05Zm2.66,27.35c0,1.59-1.2,2.23-2.66,2.23S486,328,486,326.4V309.16c0-1.6,1.21-2.28,2.67-2.28s2.66.68,2.66,2.28Z"/><path class="cls-3" d="M502.68,316.12V326.4c0,1.59-1.21,2.23-2.67,2.23s-2.67-.64-2.67-2.23V315.86c0-8,1.94-9.07,9.72-9.07s9.85,1.08,9.85,9.07V326.4c0,1.59-1.2,2.23-2.67,2.23s-2.62-.64-2.62-2.23V316.12c0-3.91-.6-4.56-4.56-4.56S502.68,312.21,502.68,316.12Z"/><path class="cls-3" d="M538.32,305.33c0-1.51,1.21-2.11,2.62-2.11s2.58.6,2.58,2.11v8.94c0,5.76-2.92,7-9.84,7a22,22,0,0,1-5.42-.52h-.13v2.67h8.56c5.8,0,7.61,1.59,7.61,6,0,5.46-2.75,7.3-11.14,7.3-7.57,0-10.23-1.63-10.23-7.18V313.58c0-6,2.62-6.79,9.84-6.79a24.06,24.06,0,0,1,5.42.47h.13Zm0,8.56v-2.11a35.92,35.92,0,0,0-5.37-.35c-4.43,0-4.82.56-4.82,2.28v.91c0,1.67.6,2,5.08,2C537.93,316.64,538.32,316.25,538.32,313.89Zm-10.19,15.17c0,2.5,1,3,5.12,3,4.68,0,5.85-.52,5.85-2.28,0-1.33-.65-1.72-3.36-1.72h-7.61Z"/><path class="cls-3" d="M548.6,324.63c.52-2.19,1.72-2.83,3.1-2.83a2.19,2.19,0,0,1,2.49,2.32,5,5,0,0,1-.47,2l-3.19,7.14a2.37,2.37,0,0,1-2,1.37,1.92,1.92,0,0,1-1.85-1.89,3.19,3.19,0,0,1,.08-.69Z"/><path class="cls-3" d="M81.41,369.79c0,9.11-2.66,10.92-10.36,10.92s-10.28-1.81-10.28-10.92,2.54-11,10.28-11a21.76,21.76,0,0,1,5,.56v-6.11c0-1.59,1.24-2.28,2.7-2.28s2.71.69,2.71,2.28Zm-10.36,6.14c3.91,0,5-.64,5-6.23,0-5.76-1.12-6.15-5-6.15s-5,.39-5,6.15C66.1,375.29,67.09,375.93,71.05,375.93Z"/><path class="cls-3" d="M87.56,361.75c0-1.94,1.64-3,8.09-3,7.95,0,9.93,1.24,9.93,7.09V374c0,5.68-2.54,6.71-9.93,6.71s-9.29-1-9.29-6.84c0-4.77,1.16-6.71,9-6.71h4.9v-.86c0-2.1-.82-2.62-4-2.62s-5.16.52-6.41.52C88.16,364.2,87.56,363.25,87.56,361.75Zm12.73,9.76h-5.2c-3,0-3.53.51-3.53,2.19s.65,2.32,4.26,2.32,4.47-.43,4.47-1.63Z"/><path class="cls-3" d="M110,365.53c0-4,2.76-6.75,9.59-6.75,6.28,0,7.49,1.16,7.49,3.05,0,1.38-.56,2.11-2.33,2.11-1.29,0-2.58-.48-5.67-.48-2.58,0-3.74.52-3.74,1.55,0,3.36,12.6.69,12.6,8.9,0,4.78-3.36,6.8-9.46,6.8-7.4,0-8.35-1.12-8.35-2.88,0-1.51.61-2.33,2.37-2.33,1.33,0,2.75.52,5.8.52,2.76,0,4.3-.56,4.3-1.85C122.56,371,110,373.48,110,365.53Z"/><path class="cls-3" d="M161.13,377.7a2.06,2.06,0,0,1-1.8,2.36,31.21,31.21,0,0,1-7,.65c-7.7,0-10.19-1.89-10.19-8.13V367c0-6.58,2.79-8.21,10-8.21,7,0,9.33,1.8,9.33,8.08v2.45c0,1.85-.69,2.5-2.28,2.5H147.46v1.07c0,2.24,1.55,3.1,4.64,3.1,2.33,0,5.21-.39,6.8-.39S161.13,376.06,161.13,377.7Zm-13.67-10.15h8.77v-.95c0-2.53-.94-3.18-4.38-3.18-3.23,0-4.39.56-4.39,3.18Z"/><path class="cls-3" d="M175.75,363.72c-2.88,0-3.44.39-3.44,3.27v11.4c0,1.59-1.16,2.23-2.62,2.23S167,380,167,378.39V366.56c0-6.58,2.11-7.78,8.86-7.78,4.39,0,5.5,1,5.5,2.66a2.2,2.2,0,0,1-2.32,2.45C178.16,363.89,177.39,363.72,175.75,363.72Z"/><path class="cls-3" d="M182.76,365.53c0-4,2.75-6.75,9.59-6.75,6.28,0,7.48,1.16,7.48,3.05,0,1.38-.56,2.11-2.32,2.11-1.29,0-2.58-.48-5.67-.48-2.58,0-3.75.52-3.75,1.55,0,3.36,12.6.69,12.6,8.9,0,4.78-3.35,6.8-9.46,6.8-7.39,0-8.34-1.12-8.34-2.88,0-1.51.6-2.33,2.37-2.33,1.33,0,2.75.52,5.8.52,2.75,0,4.3-.56,4.3-1.85C195.36,371,182.76,373.48,182.76,365.53Z"/><path class="cls-3" d="M212,375.93c1.29,0,2-.12,2.92-.12,1.42,0,2,.73,2,2.1,0,2-.94,2.8-5.76,2.8-4.08,0-6.1-1.12-6.1-5.94V364.11h-2.11c-1.51,0-2.06-1-2.06-2.45s.55-2.45,2.06-2.45H205v-3.4c0-1.55,1.2-2.19,2.62-2.19s2.71.64,2.71,2.19v3.4h4.43c1.5,0,1.93,1.07,1.93,2.45s-.43,2.45-1.93,2.45h-4.43v10.23A1.42,1.42,0,0,0,212,375.93Z"/><path class="cls-3" d="M236,368.11v10.28c0,1.59-1.21,2.23-2.67,2.23s-2.66-.64-2.66-2.23V367.85c0-8,1.93-9.07,9.71-9.07s9.85,1.07,9.85,9.07v10.54c0,1.59-1.2,2.23-2.67,2.23S245,380,245,378.39V368.11c0-3.91-.6-4.56-4.56-4.56S236,364.2,236,368.11Z"/><path class="cls-3" d="M265.75,358.78c7.7,0,10.36,2.1,10.36,11.18s-2.66,10.75-10.36,10.75-10.32-1.64-10.32-10.75S258,358.78,265.75,358.78Zm0,17.15c3.87,0,5-.47,5-6.06,0-5.76-1.16-6.32-5-6.32s-5,.56-5,6.32C260.76,375.46,261.79,375.93,265.75,375.93Z"/><path class="cls-3" d="M286.35,367v5.67c0,1.9.81,3.19,4.25,3.19,2.15,0,3.36-.43,5.08-.43,1.55,0,2.11.94,2.11,2.36a2.24,2.24,0,0,1-1.85,2.41,21.84,21.84,0,0,1-5.55.56c-7.31,0-9.37-2.58-9.37-7.87v-6c0-6.15,2.36-8,9.71-8,6.58,0,7.06,1.07,7.06,3,0,1.37-.48,2.23-2,2.23s-2.79-.38-5.16-.38C287.29,363.64,286.35,364.67,286.35,367Z"/><path class="cls-3" d="M307.07,359.29a27.37,27.37,0,0,1,4.78-.51c7.31,0,9.37,1.07,9.37,9.07v10.54c0,1.59-1.2,2.23-2.67,2.23s-2.62-.64-2.62-2.23V368.11c0-3.91-.56-4.56-4.51-4.56a24.86,24.86,0,0,0-4.35.43v14.41c0,1.59-1.2,2.23-2.71,2.23s-2.7-.64-2.7-2.23V353.75c0-1.59,1.24-2.28,2.7-2.28s2.71.69,2.71,2.28Z"/><path class="cls-3" d="M351.32,369.57c-1.59,0-2.19-1.07-2.19-2.45s.6-2.58,2.19-2.58h7.78c1.46,0,2.67.73,2.67,2.41,0,10.62-2.58,13.76-12,13.76-8.64,0-12.73-1.89-12.73-14.15,0-11.87,3.62-14.66,13.33-14.66a55.38,55.38,0,0,1,8.17.6,2.46,2.46,0,0,1,1.9,2.67c0,1.41-.56,2.4-2.11,2.4-2.07,0-4.86-.56-7.78-.56-5.89,0-7.92.78-7.92,9.46,0,8.22,2.45,9.16,7.31,9.16,4.69,0,6.41-1.72,6.28-6.06Z"/><path class="cls-3" d="M386.28,377.7a2.07,2.07,0,0,1-1.81,2.36,31.21,31.21,0,0,1-7,.65c-7.69,0-10.19-1.89-10.19-8.13V367c0-6.58,2.8-8.21,10-8.21,7,0,9.33,1.8,9.33,8.08v2.45c0,1.85-.69,2.5-2.28,2.5H372.6v1.07c0,2.24,1.55,3.1,4.65,3.1,2.32,0,5.2-.39,6.79-.39S386.28,376.06,386.28,377.7ZM372.6,367.55h8.78v-.95c0-2.53-.95-3.18-4.39-3.18-3.23,0-4.39.56-4.39,3.18Z"/><path class="cls-3" d="M397.54,378.39c0,1.59-1.2,2.23-2.71,2.23s-2.71-.64-2.71-2.23V353.75c0-1.59,1.25-2.28,2.71-2.28s2.71.69,2.71,2.28Z"/><path class="cls-3" d="M423.34,369.79c0,9.11-2.66,10.92-10.36,10.92s-10.28-1.81-10.28-10.92,2.54-11,10.28-11a21.76,21.76,0,0,1,4.95.56v-6.11c0-1.59,1.24-2.28,2.7-2.28s2.71.69,2.71,2.28ZM413,375.93c3.91,0,5-.64,5-6.23,0-5.76-1.12-6.15-5-6.15s-4.94.39-4.94,6.15C408,375.29,409,375.93,413,375.93Z"/><path class="cls-3" d="M437.83,365.53c0-4,2.76-6.75,9.59-6.75,6.28,0,7.48,1.16,7.48,3.05,0,1.38-.55,2.11-2.32,2.11-1.29,0-2.58-.48-5.67-.48-2.58,0-3.74.52-3.74,1.55,0,3.36,12.59.69,12.59,8.9,0,4.78-3.35,6.8-9.46,6.8-7.39,0-8.34-1.12-8.34-2.88,0-1.51.61-2.33,2.37-2.33,1.33,0,2.75.52,5.8.52,2.75,0,4.3-.56,4.3-1.85C450.43,371,437.83,373.48,437.83,365.53Z"/><path class="cls-3" d="M459.68,369.48c0-9.15,2.66-10.7,10.32-10.7s10.27,1.55,10.27,10.7-2.45,11.23-10.27,11.23a25.92,25.92,0,0,1-4.78-.56h-.12v5.5c0,1.64-1.29,2.24-2.76,2.24s-2.66-.6-2.66-2.24ZM470,363.55c-3.57,0-5,.43-5,6,0,5.76,1.12,6.36,5,6.36s5-.6,5-6.36C475,364,474,363.55,470,363.55Z"/><path class="cls-3" d="M485.61,361.75c0-1.94,1.63-3,8.08-3,7.95,0,9.93,1.24,9.93,7.09V374c0,5.68-2.53,6.71-9.93,6.71s-9.29-1-9.29-6.84c0-4.77,1.16-6.71,9-6.71h4.9v-.86c0-2.1-.81-2.62-4-2.62s-5.16.52-6.41.52C486.21,364.2,485.61,363.25,485.61,361.75Zm12.72,9.76h-5.2c-3,0-3.53.51-3.53,2.19s.65,2.32,4.26,2.32,4.47-.43,4.47-1.63Z"/><path class="cls-3" d="M518.33,363.72c-2.88,0-3.44.39-3.44,3.27v11.4c0,1.59-1.16,2.23-2.62,2.23s-2.71-.64-2.71-2.23V366.56c0-6.58,2.1-7.78,8.86-7.78,4.38,0,5.5,1,5.5,2.66a2.2,2.2,0,0,1-2.32,2.45C520.74,363.89,520,363.72,518.33,363.72Z"/><path class="cls-3" d="M535.74,375.93c1.29,0,2-.12,2.93-.12,1.42,0,2,.73,2,2.1,0,2-1,2.8-5.76,2.8-4.09,0-6.11-1.12-6.11-5.94V364.11h-2.11c-1.5,0-2.06-1-2.06-2.45s.56-2.45,2.06-2.45h2.11v-3.4c0-1.55,1.2-2.19,2.62-2.19s2.71.64,2.71,2.19v3.4h4.43c1.51,0,1.94,1.07,1.94,2.45s-.43,2.45-1.94,2.45h-4.43v10.23A1.42,1.42,0,0,0,535.74,375.93Z"/></g></g></svg>