<svg id="Layer_1" data-name="Layer 1" xmlns="http://www.w3.org/2000/svg" xmlns:xlink="http://www.w3.org/1999/xlink" viewBox="0 0 600 500"><defs><style>.cls-1{fill:none;}.cls-2{clip-path:url(#clip-path);}.cls-3{fill:#fff;}</style><clipPath id="clip-path"><rect class="cls-1" width="600" height="500"/></clipPath></defs><g class="cls-2"><path class="cls-3" d="M119.86,185.18,138,214.44h.28V184.62c0-2.59,1.89-3.78,4.27-3.78s4.2,1.19,4.2,3.78v35.56c0,5.32-3.36,7.42-6.23,7.42-4.06,0-5.74-2.17-7.21-4.48L115,193.79h-.14v29.89c0,2.59-2,3.78-4.34,3.78-2.59,0-4.2-1.19-4.2-3.78V188.12c0-5.32,3.22-7.35,6.16-7.35C116.57,180.77,118.39,182.8,119.86,185.18Z"/><path class="cls-3" d="M187.76,222.7c0,2.1-.63,3.22-2.94,3.85a51.2,51.2,0,0,1-11.41,1c-12.53,0-16.59-3.08-16.59-13.23v-9.1c0-10.71,4.55-13.37,16.31-13.37,11.48,0,15.19,2.94,15.19,13.16v4c0,3-1.12,4.06-3.71,4.06H165.5v1.75c0,3.64,2.52,5,7.56,5,3.78,0,8.47-.63,11.06-.63S187.76,220,187.76,222.7ZM165.5,206.18h14.28v-1.54c0-4.13-1.54-5.18-7.14-5.18-5.25,0-7.14.91-7.14,5.18Z"/><path class="cls-3" d="M220.17,212.41V195.68c0-2.59,1.89-3.64,4.27-3.64s4.34,1.05,4.34,3.64v17.15c0,13-3.22,14.77-15.82,14.77s-15.75-1.75-15.75-14.77V195.68c0-2.59,1.89-3.64,4.34-3.64s4.34,1.05,4.34,3.64v16.73c0,6.37.63,7.42,7.07,7.42S220.17,218.78,220.17,212.41Z"/><path class="cls-3" d="M269,222.7c0,2.1-.63,3.22-2.94,3.85a51.2,51.2,0,0,1-11.41,1c-12.53,0-16.59-3.08-16.59-13.23v-9.1c0-10.71,4.55-13.37,16.31-13.37,11.48,0,15.19,2.94,15.19,13.16v4c0,3-1.12,4.06-3.71,4.06H246.77v1.75c0,3.64,2.52,5,7.56,5,3.78,0,8.47-.63,11.06-.63S269,220,269,222.7Zm-22.26-16.52h14.28v-1.54c0-4.13-1.54-5.18-7.14-5.18-5.25,0-7.14.91-7.14,5.18Z"/><path class="cls-3" d="M322,208.84l10.71,10.64c4.9,4.83-1.75,11.13-6.51,6l-13.86-14.77c-4-4.27-2-8.89,2.17-8.89h3.08c4.34,0,5.88-1.89,5.88-6.44s-1.54-5.81-5.95-5.81H304.66v34.16c0,2.66-2.1,3.71-4.55,3.71s-4.55-1.05-4.55-3.71V185.18c0-2.52,1.68-3.78,4.2-3.78h17.78c10.85,0,15,3.08,15,13.93,0,7.7-2,11.62-10.57,13.3Z"/><path class="cls-3" d="M371.23,222.7c0,2.1-.63,3.22-2.94,3.85a51.2,51.2,0,0,1-11.41,1c-12.53,0-16.59-3.08-16.59-13.23v-9.1c0-10.71,4.55-13.37,16.31-13.37,11.48,0,15.19,2.94,15.19,13.16v4c0,3-1.12,4.06-3.71,4.06H349v1.75c0,3.64,2.52,5,7.56,5,3.78,0,8.47-.63,11.06-.63S371.23,220,371.23,222.7ZM349,206.18h14.28v-1.54c0-4.13-1.54-5.18-7.14-5.18-5.25,0-7.14.91-7.14,5.18Z"/><path class="cls-3" d="M385.08,179.29a5,5,0,0,1,5,5,4.93,4.93,0,0,1-5,4.9,4.81,4.81,0,0,1-4.83-4.9A4.88,4.88,0,0,1,385.08,179.29Zm4.34,44.53c0,2.59-2,3.64-4.34,3.64s-4.34-1.05-4.34-3.64V195.75c0-2.59,2-3.71,4.34-3.71s4.34,1.12,4.34,3.71Z"/><path class="cls-3" d="M412.17,187.7c-2.59,0-3.15.77-3.15,3.64v1.26h6.23c2.6,0,3.51,1.68,3.51,4s-.91,4-3.51,4H409v23.24c0,2.59-1.89,3.64-4.34,3.64s-4.27-1.05-4.27-3.64V200.58h-3.36c-2.52,0-3.43-1.68-3.43-4s.91-4,3.43-4h3.36v-1c0-9.1,2.59-11.55,11.76-11.55,8.13,0,9.32,1,9.32,4.27,0,2.38-1.75,3.64-4.06,3.64C416.17,187.91,413.71,187.7,412.17,187.7Z"/><path class="cls-3" d="M453.06,222.7c0,2.1-.63,3.22-2.94,3.85a51.2,51.2,0,0,1-11.41,1c-12.54,0-16.6-3.08-16.6-13.23v-9.1c0-10.71,4.55-13.37,16.31-13.37,11.49,0,15.2,2.94,15.2,13.16v4c0,3-1.12,4.06-3.71,4.06H430.79v1.75c0,3.64,2.52,5,7.57,5,3.78,0,8.47-.63,11.06-.63S453.06,220,453.06,222.7Zm-22.27-16.52h14.29v-1.54c0-4.13-1.54-5.18-7.15-5.18-5.25,0-7.14.91-7.14,5.18Z"/><path class="cls-3" d="M471.25,207.09v16.73c0,2.59-2,3.64-4.34,3.64s-4.34-1.05-4.34-3.64V206.67c0-13,3.15-14.77,15.82-14.77s16,1.75,16,14.77v17.15c0,2.59-2,3.64-4.35,3.64s-4.27-1.05-4.27-3.64V207.09c0-6.37-1-7.42-7.42-7.42S471.25,200.72,471.25,207.09Z"/><path class="cls-3" d="M197.21,291.37,192,295.43v8.4c0,2.59-2,3.64-4.41,3.64s-4.41-1.05-4.41-3.64V263.72c0-2.6,2-3.72,4.41-3.72s4.41,1.12,4.41,3.72V286.4h.14l14-12.74a6.46,6.46,0,0,1,3.92-1.54c3.29,0,5.88,3.92,1.68,7.56l-7.7,6.58,9.24,13.16c4.2,5.95-2.8,11-6.65,5.81Z"/><path class="cls-3" d="M221,276.74c0-3.15,2.66-4.83,13.16-4.83,13,0,16.17,2,16.17,11.55v13.23c0,9.24-4.13,10.92-16.17,10.92s-15.12-1.68-15.12-11.13c0-7.77,1.89-10.92,14.7-10.92h8v-1.4c0-3.43-1.33-4.27-6.58-4.27s-8.4.84-10.43.84C222,280.73,221,279.19,221,276.74Zm20.72,15.89h-8.47c-4.83,0-5.74.84-5.74,3.57,0,2.94,1,3.78,6.93,3.78s7.28-.7,7.28-2.66Z"/><path class="cls-3" d="M282.89,292.42V275.69c0-2.59,1.89-3.64,4.27-3.64s4.34,1.05,4.34,3.64v17.15c0,13-3.22,14.77-15.82,14.77s-15.75-1.75-15.75-14.77V275.69c0-2.59,1.89-3.64,4.34-3.64s4.34,1.05,4.34,3.64v16.73c0,6.37.63,7.42,7.07,7.42S282.89,298.79,282.89,292.42Z"/><path class="cls-3" d="M315,267.71c-2.59,0-3.15.77-3.15,3.64v1.26H318c2.59,0,3.5,1.68,3.5,4s-.91,4-3.5,4H311.8v23.24c0,2.59-1.89,3.64-4.34,3.64s-4.27-1.05-4.27-3.64V280.59h-3.36c-2.52,0-3.43-1.68-3.43-4s.91-4,3.43-4h3.36v-1.05c0-9.1,2.59-11.56,11.76-11.56,8.12,0,9.31,1,9.31,4.28,0,2.38-1.75,3.64-4.06,3.64C318.94,267.92,316.49,267.71,315,267.71Z"/><path class="cls-3" d="M355.83,302.71c0,2.1-.63,3.22-2.94,3.85a51.2,51.2,0,0,1-11.41,1.05c-12.53,0-16.6-3.08-16.6-13.23v-9.1c0-10.71,4.56-13.37,16.32-13.37,11.48,0,15.19,2.94,15.19,13.16v4c0,3-1.12,4.06-3.71,4.06H333.57v1.75c0,3.64,2.52,5,7.56,5,3.78,0,8.47-.63,11.06-.63S355.83,300.05,355.83,302.71Zm-22.26-16.52h14.28v-1.54c0-4.13-1.54-5.18-7.14-5.18-5.25,0-7.14.91-7.14,5.18Z"/><path class="cls-3" d="M374,287.1v16.73c0,2.59-2,3.64-4.34,3.64s-4.35-1.05-4.35-3.64V286.68c0-13,3.16-14.77,15.83-14.77s16,1.75,16,14.77v17.15c0,2.59-2,3.64-4.34,3.64s-4.27-1.05-4.27-3.64V287.1c0-6.37-1-7.42-7.42-7.42S374,280.73,374,287.1Z"/><path class="cls-3" d="M412,296.62a5.41,5.41,0,0,1,5.39,5.46,5.26,5.26,0,0,1-5.39,5.39,5.17,5.17,0,0,1-5.32-5.39A5.31,5.31,0,0,1,412,296.62Zm3.57-6.09a3.33,3.33,0,0,1-3.57,2.94,3.15,3.15,0,0,1-3.43-2.94l-1.75-25.41c-.21-2.94,2.59-4.41,5.39-4.41s5.32,1.4,5.11,4.41Z"/></g></svg>