<?xml version="1.0" encoding="utf-8"?>
<!-- Generator: Adobe Illustrator 25.3.1, SVG Export Plug-In . SVG Version: 6.00 Build 0)  -->
<svg version="1.1" id="Layer_1" xmlns="http://www.w3.org/2000/svg" xmlns:xlink="http://www.w3.org/1999/xlink" x="0px" y="0px"
	 viewBox="0 0 424.2 90" style="enable-background:new 0 0 424.2 90;" xml:space="preserve">
<style type="text/css">
	.st0{clip-path:url(#SVGID_2_);}
	.st1{fill:#61C1C4;}
</style>
<g id="Layer_2_1_">
	<g id="Layer_1-2">
		<g>
			<defs>
				<rect id="SVGID_1_" width="372" height="90"/>
			</defs>
			<clipPath id="SVGID_2_">
				<use xlink:href="#SVGID_1_"  style="overflow:visible;"/>
			</clipPath>
			<g class="st0">
				<path class="st1" d="M306.8,0c6.5,0,10.9,0.2,15.7,1.2c4.1,0.8,8,2.2,11.6,4.1c3.7,2,7,4.6,9.9,7.7c16.4,18.2,16.4,45.9,0,64.1
					c-2.9,3-6.2,5.6-9.9,7.6c-3.6,2-7.5,3.4-11.5,4.2c-4.7,1-9.2,1.2-15.7,1.2H-18.6c-6.5,0-10.9-0.2-15.7-1.2
					c-4-0.8-7.9-2.2-11.5-4.1c-3.7-2-7-4.6-9.9-7.6c-8-8.8-12.3-20.2-12.3-32.1c0-11.8,4.3-23.3,12.3-32.1c2.9-3.1,6.2-5.6,9.9-7.6
					c3.6-2,7.5-3.4,11.5-4.1c4.7-1,9.2-1.2,15.7-1.2H306.8z"/>
			</g>
		</g>
	</g>
</g>
</svg>
