<svg id="Layer_1" data-name="Layer 1" xmlns="http://www.w3.org/2000/svg" xmlns:xlink="http://www.w3.org/1999/xlink" viewBox="0 0 728 90"><defs><style>.cls-1{fill:none;}.cls-2{clip-path:url(#clip-path);}.cls-3{clip-path:url(#clip-path-3);}.cls-4{clip-path:url(#clip-path-4);}.cls-5{clip-path:url(#clip-path-5);}.cls-6{fill:#221e1f;}.cls-7{fill:#fff;}.cls-8{clip-path:url(#clip-path-6);}.cls-9{clip-path:url(#clip-path-8);}.cls-10{clip-path:url(#clip-path-9);}</style><clipPath id="clip-path"><rect class="cls-1" x="-748" width="728" height="90"/></clipPath><clipPath id="clip-path-3"><rect class="cls-1" x="-313.01" y="30.56" width="59.44" height="59.08"/></clipPath><clipPath id="clip-path-4"><rect class="cls-1" x="-33516" y="-32677" width="65535" height="65535"/></clipPath><clipPath id="clip-path-5"><rect class="cls-1" width="728" height="90"/></clipPath><clipPath id="clip-path-6"><rect class="cls-1" x="2244" width="728" height="90"/></clipPath><clipPath id="clip-path-8"><rect class="cls-1" x="2678.99" y="30.56" width="59.44" height="59.08"/></clipPath><clipPath id="clip-path-9"><rect class="cls-1" x="-30524" y="-32677" width="65535" height="65535"/></clipPath></defs><g class="cls-5"><path class="cls-6" d="M448.37,71.8v-.91a2.84,2.84,0,0,1-1.68-.69,2.06,2.06,0,0,1-.65-1.59l1.33,0a1.24,1.24,0,0,0,1,1.18V68.32l-.5-.08a1.74,1.74,0,0,1-1.67-1.77c0-1.14.84-1.88,2.17-2v-.78h.73v.79a2.13,2.13,0,0,1,2.14,2.18l-1.3,0a1.1,1.1,0,0,0-.84-1.06v1.4l.43.08c1.26.22,1.84.81,1.84,1.82a1.62,1.62,0,0,1-.65,1.38,2.8,2.8,0,0,1-1.62.54v.89Zm0-4.84V65.63c-.5.05-.78.29-.78.71S447.92,66.87,448.37,67Zm.73,1.49v1.34c.52-.05.86-.3.86-.7S449.62,68.53,449.1,68.45Z"/><path class="cls-6" d="M461.43,74.22v2.47H452V74.61l3.41-2.76a18.21,18.21,0,0,0,2.06-1.91,2.58,2.58,0,0,0,.65-1.72,1.44,1.44,0,0,0-1.57-1.61c-1.18,0-1.69.84-1.69,2a3.42,3.42,0,0,0,.14,1l-2.9-.08a5.88,5.88,0,0,1-.16-1.16,4,4,0,0,1,1.3-3.13,4.83,4.83,0,0,1,3.41-1.2A4.64,4.64,0,0,1,460,65.24a3.63,3.63,0,0,1,1.2,2.8,4,4,0,0,1-.89,2.67A15.65,15.65,0,0,1,458,72.87l-1.7,1.35Z"/><path class="cls-6" d="M471.44,74.22v2.47H462V74.61l3.42-2.76a19.13,19.13,0,0,0,2.06-1.91,2.57,2.57,0,0,0,.64-1.72,1.44,1.44,0,0,0-1.57-1.61c-1.17,0-1.68.84-1.68,2a3.83,3.83,0,0,0,.13,1l-2.9-.08a5.86,5.86,0,0,1-.15-1.16,4,4,0,0,1,1.29-3.13,4.83,4.83,0,0,1,3.41-1.2A4.64,4.64,0,0,1,470,65.24a3.63,3.63,0,0,1,1.2,2.8,4,4,0,0,1-.88,2.67A16.29,16.29,0,0,1,468,72.87l-1.7,1.35Z"/><path class="cls-6" d="M479.22,71a3.4,3.4,0,0,1-3,1.44,4.31,4.31,0,0,1-3.16-1.14,4,4,0,0,1-1.15-2.9,3.91,3.91,0,0,1,1.33-3.12,5.05,5.05,0,0,1,3.43-1.16,4.66,4.66,0,0,1,3.9,1.71A7.13,7.13,0,0,1,482,70.42a7.62,7.62,0,0,1-1.36,4.66,4.55,4.55,0,0,1-4,1.84c-2.6,0-4.33-1.39-4.56-3.82l2.78-.06a1.64,1.64,0,0,0,1.82,1.53C478.28,74.57,479.14,73.1,479.22,71Zm-2.49-4.55a1.89,1.89,0,1,0,2,1.89A1.81,1.81,0,0,0,476.73,66.43Z"/><rect class="cls-7" x="444.3" y="40.35" width="41" height="16.55"/><path class="cls-6" d="M451,49.59c.05,1,.83,1.41,1.71,1.41s1.26-.31,1.26-.78-.42-.6-1.06-.73l-1.36-.24a2.09,2.09,0,0,1-2-2.1c0-1.43,1.13-2.32,2.88-2.32,2,0,3,1,3.08,2.59l-1.61,0a1.32,1.32,0,0,0-1.48-1.27c-.74,0-1.15.3-1.15.8s.33.56.85.67l1.36.24c1.48.26,2.17,1,2.17,2.19a1.9,1.9,0,0,1-.87,1.7,3.72,3.72,0,0,1-2.1.57,3.88,3.88,0,0,1-2.38-.7,2.36,2.36,0,0,1-.94-2Z"/><path class="cls-6" d="M458.39,52.23h-1.74V45h3.06c1.88,0,3,.89,3,2.44s-1.1,2.46-3,2.46h-1.32Zm1.26-3.77c1,0,1.35-.36,1.35-1s-.4-1.05-1.35-1.05h-1.26v2.09Z"/><path class="cls-6" d="M465.15,45v5.82h3.69v1.44h-5.45V45Z"/><path class="cls-6" d="M471.47,45v7.26h-1.75V45Z"/><path class="cls-6" d="M474.86,52.23V46.41h-2.52V45h6.83v1.44H476.6v5.82Z"/></g></svg>