<?xml version="1.0" encoding="utf-8"?>
<!-- Generator: Adobe Illustrator 25.4.1, SVG Export Plug-In . SVG Version: 6.00 Build 0)  -->
<svg version="1.1" id="Layer_1" xmlns="http://www.w3.org/2000/svg" xmlns:xlink="http://www.w3.org/1999/xlink" x="0px" y="0px"
	 viewBox="0 0 728 90" style="enable-background:new 0 0 728 90;" xml:space="preserve">
<style type="text/css">
	.st0{clip-path:url(#SVGID_00000051370124085234388660000014470560205758020762_);}
	.st1{fill:#EAB8B9;}
</style>
<g>
	<g>
		<defs>
			<rect id="SVGID_1_" width="728" height="90"/>
		</defs>
		<clipPath id="SVGID_00000159458111158233995360000014213669112762476171_">
			<use xlink:href="#SVGID_1_"  style="overflow:visible;"/>
		</clipPath>
		<g style="clip-path:url(#SVGID_00000159458111158233995360000014213669112762476171_);">
			<path class="st1" d="M591.1,82.9c-0.1-0.4-0.2-0.7-0.2-1.1c0.1-0.5-0.3-0.9-0.8-1c-0.1,0-0.1,0-0.2,0h-1.5v2.1h-0.7v-5.2h2.1
				c1.3,0,2,0.6,2,1.5c0,0.7-0.5,1.3-1.2,1.3c0.6,0.1,1,0.6,1,1.1c0.1,0.8,0.1,1,0.3,1.2L591.1,82.9z M589.8,80.2
				c0.9,0,1.3-0.3,1.3-1s-0.4-1-1.3-1h-1.4v1.9L589.8,80.2z"/>
			<path class="st1" d="M595.9,81.7c-0.1,0.8-0.9,1.4-1.7,1.3c-1,0.1-1.8-0.7-1.9-1.7c0-0.1,0-0.1,0-0.2c-0.1-1,0.6-1.9,1.7-2
				c0.1,0,0.1,0,0.2,0c0.9,0,1.7,0.7,1.7,1.6c0,0.1,0,0.1,0,0.2v0.3H593c0,0.7,0.5,1.2,1.2,1.2h0c0.5,0.1,1-0.3,1.1-0.8L595.9,81.7z
				 M595.2,80.8c0.1-0.5-0.3-1-0.9-1.1c0,0-0.1,0-0.1,0c-0.6,0-1.1,0.5-1.1,1.1H595.2z"/>
			<path class="st1" d="M599.4,82.2c-0.2,0.5-0.7,0.9-1.3,0.8c-1-0.2-1.8-1.1-1.6-2.2c0.1-0.8,0.8-1.5,1.6-1.6
				c0.6,0,1.1,0.3,1.3,0.9v-2.4h0.6v5.2h-0.7L599.4,82.2z M599.4,81c0.1-0.6-0.4-1.2-1-1.2c0,0-0.1,0-0.1,0c-0.7,0-1.1,0.5-1.1,1.3
				s0.4,1.4,1.1,1.4c0.6,0,1.1-0.5,1.2-1.1c0,0,0-0.1,0-0.1V81z"/>
			<path class="st1" d="M604.7,82.9h-2.2v-5.2h2.1c1.3,0,1.8,0.6,1.8,1.4c0,0.6-0.4,1-1,1.1c0.7,0.1,1.1,0.6,1.1,1.3
				C606.6,82.4,605.9,82.9,604.7,82.9z M603.2,79.9h1.5c0.8,0,1.1-0.3,1.1-0.8s-0.3-0.8-1.1-0.8h-1.5V79.9z M603.2,80.5v1.8h1.5
				c0.8,0,1.2-0.3,1.2-0.9s-0.4-0.9-1.2-0.9H603.2z"/>
			<path class="st1" d="M607.3,77.7h0.7v0.8h-0.7L607.3,77.7z M608,79.3v3.6h-0.7v-3.6L608,79.3z"/>
			<path class="st1" d="M611.1,80c-0.2-0.1-0.4-0.2-0.6-0.2c-0.5,0-0.9,0.5-0.9,1.2v1.9H609v-3.6h0.7V80c0.1-0.5,0.5-0.8,1-0.8
				c0.2,0,0.4,0,0.5,0.2L611.1,80z"/>
			<path class="st1" d="M614.3,82.2c-0.2,0.5-0.7,0.9-1.3,0.8c-1-0.2-1.8-1.1-1.6-2.2c0.1-0.8,0.8-1.5,1.6-1.6
				c0.6,0,1.1,0.3,1.3,0.9v-2.4h0.7v5.2h-0.7L614.3,82.2z M614.3,81c0.1-0.6-0.4-1.2-1-1.2c0,0-0.1,0-0.1,0c-0.7,0-1.1,0.5-1.1,1.3
				s0.4,1.4,1.1,1.4c0.6,0,1.1-0.5,1.2-1.1c0,0,0-0.1,0-0.1V81z"/>
			<path class="st1" d="M619.1,82.9l-2.1-5.2h0.7l1.8,4.4l0,0l1.7-4.4h0.8l-2.1,5.2L619.1,82.9z"/>
			<path class="st1" d="M625.4,81.7c-0.1,0.8-0.9,1.4-1.7,1.3c-1,0.1-1.8-0.7-1.8-1.7c0-0.1,0-0.1,0-0.2c-0.1-1,0.6-1.9,1.7-2
				c0.1,0,0.1,0,0.2,0c0.9,0,1.7,0.7,1.7,1.6c0,0.1,0,0.2,0,0.2v0.3h-2.9c0,0.7,0.5,1.2,1.2,1.2h0c0.5,0.1,1-0.3,1.1-0.8L625.4,81.7
				z M624.8,80.8c0.1-0.5-0.3-1-0.9-1.1c0,0-0.1,0-0.1,0c-0.6,0-1.1,0.5-1.1,1.1H624.8z"/>
			<path class="st1" d="M626.8,82.9h-0.7v-3.6h0.7v0.6c0.2-0.4,0.7-0.7,1.2-0.7c0.9,0,1.3,0.6,1.3,1.5v2.2h-0.7v-2.2
				c0-0.6-0.3-1-0.9-1c-0.6,0-1,0.4-1,1c0,0,0,0.1,0,0.1L626.8,82.9z"/>
			<path class="st1" d="M630.4,79.8h-0.5v-0.4h0.2c0.3-0.1,0.4-0.2,0.5-0.6l0.1-0.5h0.4v1h1v0.5h-1V82c0,0.3,0.1,0.5,0.5,0.5
				c0.2,0,0.5-0.1,0.7-0.2v0.5c-0.3,0.2-0.6,0.3-0.9,0.3c-0.5,0-0.9-0.2-0.9-0.9V79.8z"/>
			<path class="st1" d="M635.2,79.3h0.7v3.6h-0.7v-0.6c-0.2,0.5-0.7,0.8-1.2,0.7c-0.9,0-1.3-0.6-1.3-1.5v-2.2h0.7v2.2
				c0,0.6,0.3,1,0.8,1c0.6,0,1-0.4,1-1c0,0,0-0.1,0-0.1L635.2,79.3z"/>
			<path class="st1" d="M639,80c-0.2-0.1-0.4-0.2-0.6-0.2c-0.5,0-0.9,0.5-0.9,1.2v1.9h-0.7v-3.6h0.7V80c0.1-0.5,0.5-0.8,1-0.8
				c0.2,0,0.4,0,0.5,0.2L639,80z"/>
			<path class="st1" d="M642.8,81.7c-0.1,0.8-0.9,1.4-1.7,1.3c-1,0.1-1.8-0.7-1.9-1.7c0-0.1,0-0.1,0-0.2c-0.1-1,0.6-1.9,1.7-2
				c0.1,0,0.1,0,0.2,0c0.9,0,1.7,0.7,1.7,1.6c0,0.1,0,0.2,0,0.2v0.3h-2.9c0,0.7,0.5,1.2,1.2,1.2h0c0.5,0.1,1-0.3,1.1-0.8L642.8,81.7
				z M642.1,80.8c0.1-0.5-0.3-1-0.9-1.1c0,0-0.1,0-0.1,0c-0.6,0-1.1,0.5-1.1,1.1H642.1z"/>
			<path class="st1" d="M643.8,81.7c0.1,0.5,0.6,0.9,1.1,0.8c0.5,0,0.8-0.2,0.8-0.5s-0.2-0.4-0.7-0.5l-0.6-0.1
				c-0.7-0.1-1.1-0.4-1.1-1s0.6-1.1,1.4-1.1s1.5,0.4,1.6,1.3h-0.5c0-0.5-0.5-0.9-1-0.8c0,0,0,0,0,0c-0.5,0-0.8,0.2-0.8,0.5
				s0.2,0.4,0.5,0.5l0.7,0.1c0.7,0.1,1.2,0.4,1.2,1.1s-0.6,1.1-1.5,1.1s-1.6-0.4-1.7-1.3L643.8,81.7z"/>
			<path class="st1" d="M649.3,77.7v4.6h2.9v0.6h-3.6v-5.2H649.3z"/>
			<path class="st1" d="M652.9,77.7h0.7v0.8h-0.7V77.7z M653.6,79.3v3.6h-0.7v-3.6L653.6,79.3z"/>
			<path class="st1" d="M658.7,79.2c0.9,0,1.3,0.7,1.3,1.5v2.2h-0.7v-2.2c0-0.6-0.2-1-0.8-1c-0.6,0-1,0.5-0.9,1.1c0,0,0,0,0,0v2.1
				h-0.7v-2.2c0-0.6-0.2-1-0.8-1c-0.6,0-1,0.5-0.9,1.1c0,0,0,0,0,0v2.1h-0.7v-3.6h0.7v0.6c0.2-0.5,0.6-0.8,1.2-0.7
				c0.5,0,1,0.3,1.2,0.8C657.7,79.5,658.2,79.2,658.7,79.2z"/>
			<path class="st1" d="M660.9,77.7h0.7v0.8h-0.7V77.7z M661.6,79.3v3.6h-0.7v-3.6L661.6,79.3z"/>
			<path class="st1" d="M662.7,79.8h-0.5v-0.4h0.2c0.3-0.1,0.4-0.2,0.5-0.6l0.1-0.5h0.4v1h1v0.5h-1V82c0,0.3,0.1,0.5,0.4,0.5
				c0.2,0,0.5-0.1,0.7-0.2v0.5c-0.3,0.2-0.6,0.3-0.9,0.3c-0.5,0-0.9-0.2-0.9-0.9V79.8z"/>
			<path class="st1" d="M668.3,81.7c-0.1,0.8-0.9,1.4-1.7,1.3c-1,0.1-1.8-0.7-1.9-1.7c0-0.1,0-0.1,0-0.2c-0.1-1,0.6-1.9,1.7-2
				c0.1,0,0.1,0,0.2,0c0.9,0,1.7,0.7,1.7,1.6c0,0.1,0,0.2,0,0.2v0.3h-2.9c0,0.7,0.5,1.2,1.2,1.2c0.5,0.1,1-0.3,1.1-0.8L668.3,81.7z
				 M667.6,80.8c0.1-0.5-0.3-1-0.9-1.1c0,0-0.1,0-0.1,0c-0.6,0-1.1,0.5-1.1,1.1H667.6z"/>
			<path class="st1" d="M671.8,82.2c-0.2,0.5-0.7,0.9-1.3,0.8c-1-0.2-1.8-1.1-1.6-2.2c0.1-0.8,0.8-1.5,1.6-1.6
				c0.6,0,1.1,0.3,1.3,0.9v-2.4h0.7v5.2h-0.7V82.2z M671.8,81c0.1-0.6-0.4-1.2-1-1.2c0,0-0.1,0-0.1,0c-0.7,0-1.1,0.5-1.1,1.3
				s0.4,1.4,1.1,1.4c0.6,0,1.1-0.5,1.1-1.1c0,0,0-0.1,0-0.1V81z"/>
			<path class="st1" d="M673.2,82.1h0.8v0.8h-0.8V82.1z"/>
		</g>
	</g>
</g>
</svg>
