<svg xmlns="http://www.w3.org/2000/svg" viewBox="0 0 113.42 31.26"><defs><style>.cls-1{fill:#172983;}.cls-2{fill:#fff;}</style></defs><g id="Layer_2" data-name="Layer 2"><g id="Layer_1-2" data-name="Layer 1"><rect class="cls-1" width="113.42" height="31.26" rx="5.88"/><path class="cls-2" d="M16.26,17.35V12.68c0-.45.34-.62.74-.62s.79.17.79.62v4.8c0,1.9-.64,2.43-2.6,2.43-1.8,0-2.55-.27-2.55-2.43v-.21c0-.45.33-.63.74-.63s.74.18.74.63v.08c0,1.14.21,1.26,1.07,1.26S16.26,18.51,16.26,17.35Zm8.4,1.74a.58.58,0,0,1-.5.65,8.65,8.65,0,0,1-1.91.17c-2.11,0-2.79-.51-2.79-2.22V16.16c0-1.8.76-2.25,2.74-2.25s2.55.5,2.55,2.22v.67c0,.5-.19.68-.62.68H20.92v.29c0,.61.42.85,1.27.85.63,0,1.42-.11,1.86-.11S24.66,18.64,24.66,19.09Zm-3.74-2.78h2.4v-.25c0-.7-.26-.88-1.2-.88s-1.2.16-1.2.88Zm7.64,2.3c.35,0,.55,0,.8,0s.55.2.55.58c0,.54-.25.76-1.57.76-1.12,0-1.67-.3-1.67-1.62V15.37h-.58c-.41,0-.56-.28-.56-.67s.15-.67.56-.67h.58V13.1c0-.42.33-.6.71-.6s.75.18.75.6V14h1.21c.41,0,.53.3.53.67s-.12.67-.53.67H28.13v2.8A.39.39,0,0,0,28.56,18.61Zm4.63-3.27H31c-.42,0-.58-.27-.58-.65S30.55,14,31,14h3.42c.55,0,.84.32.84.72a1.26,1.26,0,0,1-.35.8l-2.65,2.94h2.43c.43,0,.58.27.58.65s-.15.66-.58.66h-3.6a.75.75,0,0,1-.85-.73,1.17,1.17,0,0,1,.34-.79Zm5.4,3.27c.36,0,.56,0,.8,0s.56.2.56.58c0,.54-.26.76-1.58.76-1.12,0-1.67-.3-1.67-1.62V15.37h-.58c-.41,0-.56-.28-.56-.67s.15-.67.56-.67h.58V13.1c0-.42.33-.6.72-.6s.74.18.74.6V14h1.21c.41,0,.53.3.53.67s-.12.67-.53.67H38.16v2.8A.39.39,0,0,0,38.59,18.61Zm5.1-1.77c0-2.5.73-2.93,2.83-2.93s2.81.43,2.81,2.93-.67,3.07-2.81,3.07a7.26,7.26,0,0,1-1.31-.15h0v1.51c0,.44-.36.61-.76.61s-.73-.17-.73-.61Zm2.83-1.62c-1,0-1.37.12-1.37,1.65s.31,1.74,1.37,1.74,1.36-.17,1.36-1.74S47.6,15.22,46.52,15.22Zm6.62,0c-.79,0-.94.1-.94.89v3.12c0,.43-.32.61-.72.61s-.74-.18-.74-.61V16c0-1.8.58-2.13,2.42-2.13,1.2,0,1.51.29,1.51.73a.6.6,0,0,1-.64.67C53.8,15.31,53.59,15.27,53.14,15.27Zm4.76-1.36c2.11,0,2.84.58,2.84,3.06S60,19.91,57.9,19.91s-2.82-.44-2.82-2.94S55.77,13.91,57.9,13.91Zm0,4.7c1.06,0,1.38-.13,1.38-1.66S59,15.22,57.9,15.22s-1.36.15-1.36,1.73S56.82,18.61,57.9,18.61Zm6.42-5.4c-.43,0-.53.13-.53.61V14h1.05c.44,0,.59.28.59.67s-.15.67-.59.67H63.79v3.91c0,.43-.31.61-.72.61s-.72-.18-.72-.61V15.37h-.57c-.42,0-.57-.28-.57-.67s.15-.67.57-.67h.57v-.17c0-1.53.43-1.95,2-1.95,1.37,0,1.57.17,1.57.72a.61.61,0,0,1-.68.61ZM67,11.91a.84.84,0,0,1,.83.84.82.82,0,0,1-.83.82.81.81,0,0,1-.82-.82A.83.83,0,0,1,67,11.91Zm.73,7.37c0,.43-.33.61-.73.61s-.73-.18-.73-.61V14.66c0-.44.33-.63.73-.63s.73.19.73.63Zm3.82-.67c.35,0,.55,0,.8,0s.55.2.55.58c0,.54-.26.76-1.58.76-1.11,0-1.67-.3-1.67-1.62V15.37h-.57c-.42,0-.57-.28-.57-.67s.15-.67.57-.67h.57V13.1c0-.42.33-.6.72-.6s.74.18.74.6V14h1.21c.41,0,.53.3.53.67s-.12.67-.53.67H71.12v2.8A.39.39,0,0,0,71.56,18.61Zm3-6.81a.83.83,0,1,1,0,1.66.83.83,0,0,1,0-1.66Zm.73,7.48c0,.43-.33.61-.73.61s-.73-.18-.73-.61V14.56c0-.43.33-.62.73-.62s.73.19.73.62Zm6.78-.19a.58.58,0,0,1-.5.65,8.73,8.73,0,0,1-1.91.17c-2.11,0-2.79-.51-2.79-2.22V16.16c0-1.8.76-2.25,2.74-2.25s2.55.5,2.55,2.22v.67c0,.5-.19.68-.62.68H78.31v.29c0,.61.42.85,1.27.85.63,0,1.42-.11,1.86-.11S82.05,18.64,82.05,19.09Zm-3.74-2.78h2.4v-.25c0-.7-.26-.88-1.2-.88s-1.2.16-1.2.88Zm7.73-1c-.78,0-.94.1-.94.89v3.12c0,.43-.31.61-.71.61s-.75-.18-.75-.61V16c0-1.8.58-2.13,2.43-2.13,1.2,0,1.5.29,1.5.73a.6.6,0,0,1-.63.67C86.7,15.31,86.49,15.27,86,15.27Zm7.29,3.82a.58.58,0,0,1-.5.65,8.77,8.77,0,0,1-1.92.17c-2.1,0-2.78-.51-2.78-2.22V16.16c0-1.8.76-2.25,2.74-2.25s2.55.5,2.55,2.22v.67c0,.5-.19.68-.62.68H89.58v.29c0,.61.43.85,1.27.85.64,0,1.43-.11,1.86-.11S93.33,18.64,93.33,19.09Zm-3.75-2.78H92v-.25c0-.7-.25-.88-1.2-.88s-1.2.16-1.2.88Zm6.8.16v2.81c0,.43-.33.61-.73.61s-.73-.18-.73-.61V16.4c0-2.19.53-2.49,2.66-2.49s2.7.3,2.7,2.49v2.88c0,.43-.33.61-.73.61s-.72-.18-.72-.61V16.47c0-1.07-.17-1.25-1.25-1.25S96.38,15.4,96.38,16.47Z"/></g></g></svg>