<svg id="Layer_1" data-name="Layer 1" xmlns="http://www.w3.org/2000/svg" xmlns:xlink="http://www.w3.org/1999/xlink" viewBox="0 0 160 600"><defs><style>.cls-1{fill:none;}.cls-2{clip-path:url(#clip-path);}.cls-3{fill:#706f6f;}</style><clipPath id="clip-path"><rect class="cls-1" width="160" height="600"/></clipPath></defs><g class="cls-2"><g class="cls-2"><path class="cls-3" d="M20.52,22.29c1.09,0,1.37-.26,3.16-.26,1.33,0,1.72.22,1.72.89v.87H22.54c-3.2,0-3.75,1.05-3.75,3.45,0,3,1,3.43,4.67,3.43,3.4,0,4.63-.46,4.63-3.34v-4.1c0-2.66-.92-3.69-4.3-3.69-3.93,0-4.34.42-4.34,1.53,0,.7.28,1.22,1.07,1.22m4.88,5.17c0,.59-.52.79-2,.79s-2-.27-2-1.07.31-1.07,1.64-1.07H25.4Zm15.21-5.37c1.57,0,1.81.31,1.81,2.29v5c0,.81.59,1.14,1.33,1.14s1.35-.33,1.35-1.14V24.14c0-4.05-1.09-4.6-4.49-4.6a7,7,0,0,0-3.18.68,6.55,6.55,0,0,0-3.15-.68c-3.4,0-4.49.55-4.49,4.6v5.24c0,.81.61,1.14,1.35,1.14s1.33-.33,1.33-1.14v-5c0-2,.24-2.29,1.81-2.29s1.81.31,1.81,1.79v5.5c0,.81.61,1.14,1.36,1.14s1.35-.33,1.35-1.14V24.14c0-1.74.31-2.05,1.81-2.05m7.94.2c1.09,0,1.37-.26,3.16-.26,1.33,0,1.73.22,1.73.89v.87H50.58c-3.21,0-3.76,1.05-3.76,3.45,0,3,1,3.43,4.67,3.43,3.41,0,4.63-.46,4.63-3.34v-4.1c0-2.66-.92-3.69-4.3-3.69-3.93,0-4.34.42-4.34,1.53,0,.7.28,1.22,1.07,1.22m4.82,5.17c0,.59-.52.79-2,.79s-2-.27-2-1.07.31-1.07,1.64-1.07h2.33Zm11.7-7.72a13.86,13.86,0,0,0-2.36-.2c-3.55,0-4.88.33-4.88,3.45v8.2c0,2.82,1.54,3.3,4.93,3.3,3.62,0,5-.68,5-3.56,0-2.36-.92-3.34-4-3.34H60.36v-.94a14.72,14.72,0,0,0,2.35.11c3.58,0,4.89-.56,4.89-3.53V18.91c0-.77-.57-1.07-1.24-1.07s-1.29.3-1.29,1.07Zm-2.36,4.64c-2.12,0-2.36-.08-2.36-1.2V23.1c0-1,.61-1.16,2.36-1.16a21.63,21.63,0,0,1,2.36.15V23c0,1.11-.27,1.39-2.36,1.39m-2.36,5.48h2.81c1.44,0,2.08.24,2.08,1.18s-.79,1.09-2.47,1.09-2.42-.2-2.42-.92Z"/><path d="M117.4,21.8v8.36c0,.31.22.46.52.46s.53-.15.53-.43V21.76c0-.28-.25-.43-.53-.43a.46.46,0,0,0-.52.47M86.35,30.06c0-.26-.11-.47-.49-.47H79.7v-11c0-.33-.28-.45-.55-.45s-.58.14-.58.45V30a.45.45,0,0,0,.47.47h6.82c.38,0,.49-.19.49-.45m8.58-4.59H89.08V24.1c0-1.27.73-2,3-2s2.85.71,2.85,1.85Zm1,0V24.1c0-2-1-2.84-3.86-2.84S88,22,88,24.18v3.28c0,2.13,1,3.24,4.22,3.24a13.92,13.92,0,0,0,3.14-.28c.32-.1.36-.26.36-.43,0-.34-.15-.47-.36-.47a30.42,30.42,0,0,1-3.12.26c-2.37,0-3.19-.82-3.19-2.36V26.35h6.11c.5,0,.79-.3.79-.88m9,2.64c0,1.45-.54,1.71-3,1.71-2.27,0-2.83-.43-2.83-1.82s.45-1.78,2.58-1.78H105Zm1.05,0V23.94c0-2.05-.84-2.68-3.86-2.68a21.06,21.06,0,0,0-3.29.22.46.46,0,0,0-.36.49.39.39,0,0,0,.38.43,28.29,28.29,0,0,1,3.18-.26c2.15,0,2.9.37,2.9,1.66v1.54h-3.24c-3,0-3.65.69-3.65,2.75s.77,2.61,3.84,2.61,4.1-.34,4.1-2.62m3.3-4.44c0-1,.92-1.5,2.62-1.5a19.49,19.49,0,0,1,2.46.26.43.43,0,0,0,.44-.49c0-.26-.13-.32-.43-.41a9.38,9.38,0,0,0-2.3-.24c-2.47,0-3.84.73-3.84,2.41,0,3.53,6,1.84,6,4.56,0,1-.81,1.59-2.74,1.59a17.23,17.23,0,0,1-3-.41.4.4,0,0,0-.43.45c0,.22.1.35.36.45a9.39,9.39,0,0,0,2.94.39c2.81,0,3.93-.88,3.93-2.46,0-3.61-6-2.17-6-4.6m9.36-4.74a.76.76,0,0,0-1.51,0,.76.76,0,0,0,1.51,0m10.76,11.26V25c0-3.34-1-3.71-3.94-3.71-3.16,0-3.93.37-3.93,3.71v5.19c0,.31.22.46.52.46s.53-.15.53-.43V24.93c0-2.51.45-2.79,2.88-2.79,2.06,0,2.89.28,2.89,2.79v5.26c0,.28.24.43.52.43a.47.47,0,0,0,.53-.46m4.08-5.79V24c0-1.5.6-1.89,2.9-1.89a19,19,0,0,1,3.22.26v1.72c0,1.75-.33,2.12-3.16,2.12-2.46,0-3-.23-3-1.87m0,5.37H137c2.53,0,3.15.49,3.15,1.69,0,1.46-.94,1.85-3.3,1.85s-3.35-.35-3.35-1.59Zm0-.91v-2h.05a10.48,10.48,0,0,0,3,.28c3.22,0,4.18-.51,4.18-2.79V20.08c0-.25-.28-.42-.56-.42a.48.48,0,0,0-.53.42V21.5a16.86,16.86,0,0,0-3.2-.24c-3.05,0-4,.48-4,2.83v7.58c0,1.95,1.31,2.49,4.38,2.49s4.37-.52,4.37-2.82c0-1.88-.88-2.51-4.14-2.51Z"/></g></g></svg>