<svg xmlns="http://www.w3.org/2000/svg" viewBox="0 0 728 90"><defs><style>.cls-1{fill:#fff;}.cls-2{fill:#ff3008;}</style></defs><g id="Layer_1" data-name="Layer 1"><rect class="cls-1" x="336.17" y="24.6" width="91.76" height="33.99"/><path class="cls-1" d="M156.76,33h3.42V42.4a3.55,3.55,0,1,0,7.08,0V33h3.42V42.4a7,7,0,0,1-13.92,0Z"/><path class="cls-1" d="M174.79,45.25a3.52,3.52,0,0,0,.79.64,4,4,0,0,0,2.17.62c1,0,1.37-.35,1.37-.8,0-1.26-5.7-1-5.7-4.68,0-1.83,1.59-3.43,4.45-3.43a6.27,6.27,0,0,1,3.24.87,5.42,5.42,0,0,1,1.1.85l-1.83,1.94a3.83,3.83,0,0,0-.66-.46,3.69,3.69,0,0,0-1.85-.46c-.8,0-1.14.35-1.14.69,0,1.25,5.7,1,5.7,4.68,0,1.91-1.6,3.54-4.68,3.54a6.57,6.57,0,0,1-3.56-1,5.43,5.43,0,0,1-1.23-1Z"/><path class="cls-1" d="M194.53,47.42a5.68,5.68,0,0,1-1.24.91,7.16,7.16,0,0,1-3.56.92,5.83,5.83,0,1,1-.11-11.65,5.61,5.61,0,0,1,5.59,5.6,7.4,7.4,0,0,1-.07,1l0,.39H187a2.87,2.87,0,0,0,3,1.94,4,4,0,0,0,2.22-.62,3.1,3.1,0,0,0,.75-.64ZM192,42.28a2.59,2.59,0,0,0-5,0Z"/><path class="cls-1" d="M202.28,37.83h3.08v1.6h.12a3.93,3.93,0,0,1,.87-.91A4.29,4.29,0,0,1,209,37.6c2.64,0,5,2.42,5,5.82s-2.38,5.83-5,5.83a4.29,4.29,0,0,1-2.67-.92,3.93,3.93,0,0,1-.87-.91h-.12v6.39h-3.08ZM211,43.42a2.86,2.86,0,1,0-2.86,3A2.85,2.85,0,0,0,211,43.42Z"/><path class="cls-1" d="M216.32,37.83h3.08v1.6h.11a5.24,5.24,0,0,1,.85-.91,3.79,3.79,0,0,1,2.46-.92h.23v3.31l-.25,0a5.68,5.68,0,0,0-.78-.07,2.68,2.68,0,0,0-2.62,3V49h-3.08Z"/><path class="cls-1" d="M230,37.6a5.83,5.83,0,1,1-5.94,5.82A5.87,5.87,0,0,1,230,37.6Zm2.85,5.82a2.85,2.85,0,1,0-2.85,3A2.84,2.84,0,0,0,232.86,43.42Z"/><path class="cls-1" d="M238.22,37.83h3.08v1.6h.12a3.75,3.75,0,0,1,.73-.91,3.4,3.4,0,0,1,2.35-.92,3.74,3.74,0,0,1,2.56,1,3.89,3.89,0,0,1,.75.95h.11a4.46,4.46,0,0,1,.94-.95,4.36,4.36,0,0,1,2.72-1c2.19,0,3.88,1.72,3.88,4.46v7h-3.08V42.51a1.7,1.7,0,0,0-1.83-1.94,2.11,2.11,0,0,0-2.17,2.28V49H245.3V42.51a1.69,1.69,0,0,0-1.83-1.94,2.12,2.12,0,0,0-2.17,2.28V49h-3.08Z"/><path class="cls-1" d="M263.67,37.6a5.83,5.83,0,1,1-5.94,5.82A5.87,5.87,0,0,1,263.67,37.6Zm2.85,5.82a2.85,2.85,0,1,0-2.85,3A2.84,2.84,0,0,0,266.52,43.42Z"/><path class="cls-1" d="M286.6,47a4.57,4.57,0,0,1-1.14,1.14,5.87,5.87,0,1,1-3.54-10.5,5.81,5.81,0,0,1,3.54,1.15,4.57,4.57,0,0,1,1.14,1.14l-1.94,1.94a4,4,0,0,0-.73-.69,3.47,3.47,0,0,0-2-.68,3,3,0,0,0,0,5.93,3.47,3.47,0,0,0,2-.68,4,4,0,0,0,.73-.69Z"/><path class="cls-1" d="M293.56,37.6a5.83,5.83,0,1,1-5.93,5.82A5.88,5.88,0,0,1,293.56,37.6Zm2.86,5.82a2.86,2.86,0,1,0-2.86,3A2.85,2.85,0,0,0,296.42,43.42Z"/><path class="cls-1" d="M309.77,47.42h-.12a4.1,4.1,0,0,1-.86.91,4.39,4.39,0,0,1-2.68.92c-2.64,0-5-2.4-5-5.83s2.38-5.82,5-5.82a4.39,4.39,0,0,1,2.68.92,4.1,4.1,0,0,1,.86.91h.12V33h3.08V49h-3.08Zm.11-4a2.86,2.86,0,1,0-2.85,3A2.85,2.85,0,0,0,309.88,43.42Z"/><path class="cls-1" d="M326,47.42a5.61,5.61,0,0,1-1.23.91,7.19,7.19,0,0,1-3.56.92,5.83,5.83,0,1,1-.12-11.65,5.61,5.61,0,0,1,5.59,5.6c0,.43,0,.73-.06,1l0,.39h-8.1a2.87,2.87,0,0,0,3,1.94,4,4,0,0,0,2.22-.62,2.76,2.76,0,0,0,.75-.64Zm-2.51-5.14a2.59,2.59,0,0,0-5,0Z"/><path class="cls-2" d="M346.18,33H352c4.91,0,8.45,3.54,8.45,8s-3.54,8-8.45,8h-5.82ZM352,45.82a4.8,4.8,0,1,0,0-9.59h-2.39v9.59Z"/><path class="cls-2" d="M363.37,33h5.82c4.9,0,8.44,3.54,8.44,8s-3.54,8-8.44,8h-5.82Zm5.82,12.78a4.8,4.8,0,1,0,0-9.59h-2.4v9.59Z"/><path class="cls-2" d="M381,44.57a5.43,5.43,0,0,0,.93.86,4.29,4.29,0,0,0,2.49.85c1.83,0,2.74-.91,2.74-1.94s-.89-1.94-2.51-1.94h-1.83v-3h1.6c1.37,0,2.17-.8,2.17-1.83s-.8-1.82-2.17-1.82a3.43,3.43,0,0,0-2.08.8,4.84,4.84,0,0,0-.77.8l-2.29-2.29a7.15,7.15,0,0,1,1.37-1.18,7.27,7.27,0,0,1,4.11-1.21c3.2,0,5.37,2.16,5.37,4.45a3.36,3.36,0,0,1-1.26,2.69,5.24,5.24,0,0,1-1.25.73,5.32,5.32,0,0,1,1.53.85,3.91,3.91,0,0,1,1.55,3.15c0,2.48-2.29,4.79-5.94,4.79a8.33,8.33,0,0,1-4.52-1.26,7,7,0,0,1-1.53-1.25Z"/><path class="cls-2" d="M398.35,33h3.54l-3.43,5.25.23,0a3.53,3.53,0,0,1,.57-.07,5.57,5.57,0,0,1,5.37,5.6,6.07,6.07,0,0,1-12.1,0,6.53,6.53,0,0,1,.68-2.77,8,8,0,0,1,.69-1.11Zm2.74,10.73a2.51,2.51,0,1,0-2.51,2.51A2.39,2.39,0,0,0,401.09,43.77Z"/><path class="cls-2" d="M408.62,44.57a5.43,5.43,0,0,0,.93.86,4.29,4.29,0,0,0,2.49.85c1.83,0,2.86-1,2.86-2.4a2.44,2.44,0,0,0-2.74-2.4,3.14,3.14,0,0,0-2,.64,3.56,3.56,0,0,0-.66.62l-2.4-.34.58-9.36h9.7v3.19h-6.74l-.11,2.86a1.82,1.82,0,0,1,.61-.28,4.48,4.48,0,0,1,1.67-.29,5.26,5.26,0,0,1,5.59,5.36c0,3.08-2.39,5.48-6.05,5.48a8.36,8.36,0,0,1-4.52-1.26,7,7,0,0,1-1.53-1.25Z"/></g></svg>