<svg xmlns="http://www.w3.org/2000/svg" viewBox="0 0 104.39 28.75"><defs><style>.cls-1{fill:#17a3a9;}.cls-2{fill:#fff;}</style></defs><g id="Layer_2" data-name="Layer 2"><g id="Layer_1-2" data-name="Layer 1"><rect class="cls-1" width="104.39" height="28.75" rx="14.38"/><path class="cls-2" d="M20.93,10.73a3.65,3.65,0,1,1-3.8,3.65A3.7,3.7,0,0,1,20.93,10.73Zm0,5.9a2.25,2.25,0,1,0-2.25-2.25A2.24,2.24,0,0,0,20.93,16.63Z"/><path class="cls-2" d="M26.58,10.88h3.1a2.26,2.26,0,0,1,2.45,2.35,2.22,2.22,0,0,1-.6,1.63,1.81,1.81,0,0,1-.6.42l1.45,2.59H30.73l-1.25-2.29h-1.4v2.29h-1.5Zm3.05,3.3a1,1,0,0,0,0-1.9H28.08v1.9Z"/><path class="cls-2" d="M34.13,10.88h2.55a3.5,3.5,0,1,1,0,7H34.13Zm2.55,5.6a2.1,2.1,0,1,0,0-4.2h-1v4.2Z"/><path class="cls-2" d="M42.23,10.88h5.2v1.4h-3.7v1.35h2.9V15h-2.9v1.5h3.8v1.39h-5.3Z"/><path class="cls-2" d="M49.38,10.88h3.1a2.26,2.26,0,0,1,2.45,2.35,2.22,2.22,0,0,1-.6,1.63,1.81,1.81,0,0,1-.6.42l1.45,2.59H53.53l-1.25-2.29h-1.4v2.29h-1.5Zm3,3.3a.95.95,0,0,0,0-1.9H50.88v1.9Z"/><path class="cls-2" d="M59.53,10.88h1.35l3.4,4.35V10.88h1.5v7H64.43L61,13.53v4.34h-1.5Z"/><path class="cls-2" d="M71.43,10.73a3.65,3.65,0,1,1-3.8,3.65A3.7,3.7,0,0,1,71.43,10.73Zm0,5.9a2.25,2.25,0,1,0-2.25-2.25A2.24,2.24,0,0,0,71.43,16.63Z"/><path class="cls-2" d="M76.13,10.88h1.55l1.45,4.7h.05l1.45-4.7H82l1.45,4.7h0L85,10.88h1.55l-2.3,7H82.78l-1.42-4.54H81.3l-1.42,4.54H78.43Z"/></g></g></svg>