<svg xmlns="http://www.w3.org/2000/svg" viewBox="0 0 728 90"><defs><style>.cls-1{fill:#fff;}</style></defs><g id="Layer_1" data-name="Layer 1"><path class="cls-1" d="M225.57,79.65h-1.76v-.56h4.12v.56h-1.76v5h-.6Z"/><path class="cls-1" d="M231.49,84a1.73,1.73,0,0,1-.41.4,2,2,0,0,1-1.19.4,2,2,0,0,1,0-4,1.82,1.82,0,0,1,1.84,1.91c0,.09,0,.16,0,.21l0,.08h-3.12a1.38,1.38,0,0,0,1.36,1.28,1.51,1.51,0,0,0,.92-.32,1.62,1.62,0,0,0,.32-.32Zm-.36-1.48a1.3,1.3,0,0,0-1.28-1.19,1.36,1.36,0,0,0-1.32,1.19Z"/><path class="cls-1" d="M232.69,80.85h.56v.52a1.77,1.77,0,0,1,.31-.3,1.64,1.64,0,0,1,1-.3h.16v.56h-.24a1.18,1.18,0,0,0-1.2,1.23v2.12h-.56Z"/><path class="cls-1" d="M235.45,80.85H236v.48a1,1,0,0,1,.26-.28,1.29,1.29,0,0,1,.82-.28,1.43,1.43,0,0,1,1,.34,1.27,1.27,0,0,1,.27.34,1.21,1.21,0,0,1,.3-.34,1.58,1.58,0,0,1,1-.34,1.45,1.45,0,0,1,1.48,1.64v2.27h-.56V82.41c0-.74-.39-1.12-1-1.12a1.13,1.13,0,0,0-1,1.27v2.12H238V82.41c0-.73-.39-1.12-1-1.12a1.13,1.13,0,0,0-1,1.27v2.12h-.56Z"/><path class="cls-1" d="M242.45,83.68a1.16,1.16,0,0,0,.26.28,1.06,1.06,0,0,0,.74.28c.57,0,.84-.28.84-.64,0-.88-2.08-.44-2.08-1.76a1.18,1.18,0,0,1,1.28-1.07,1.73,1.73,0,0,1,.92.26,1.35,1.35,0,0,1,.32.26l-.4.4a.8.8,0,0,0-.21-.2,1.1,1.1,0,0,0-.63-.2.65.65,0,0,0-.72.55c0,.84,2.08.41,2.08,1.76a1.24,1.24,0,0,1-1.4,1.16,1.75,1.75,0,0,1-1.06-.33,1.26,1.26,0,0,1-.34-.35Z"/><path class="cls-1" d="M249.85,84.16a1.26,1.26,0,0,1-.3.31,1.61,1.61,0,0,1-.94.29,1.27,1.27,0,0,1-1.36-1.12c0-.64.39-1,1.12-1.16l1.48-.23a.91.91,0,0,0-1-1,1.29,1.29,0,0,0-.79.28,2.44,2.44,0,0,0-.29.27l-.36-.35a1.63,1.63,0,0,1,.38-.36,1.7,1.7,0,0,1,1.06-.36,1.46,1.46,0,0,1,1.52,1.48v2.43h-.56Zm0-1.44-1.32.24c-.48.09-.72.32-.72.68s.28.6.8.6A1.2,1.2,0,0,0,249.85,83Z"/><path class="cls-1" d="M251.69,80.85h.56v.56a1.34,1.34,0,0,1,.31-.32,1.49,1.49,0,0,1,.93-.32,1.51,1.51,0,0,1,1.56,1.64v2.27h-.56V82.41a1,1,0,0,0-1-1.12,1.19,1.19,0,0,0-1.2,1.27v2.12h-.56Z"/><path class="cls-1" d="M259.25,84.12a1.44,1.44,0,0,1-.33.32,1.64,1.64,0,0,1-1,.32,2,2,0,0,1,0-4,1.64,1.64,0,0,1,1,.32,1.44,1.44,0,0,1,.33.32V79.09h.56v5.59h-.56Zm0-1.36a1.42,1.42,0,0,0-1.32-1.47,1.48,1.48,0,0,0,0,2.95A1.43,1.43,0,0,0,259.25,82.76Z"/><path class="cls-1" d="M266.05,84a1.83,1.83,0,0,1-.43.4,2,2,0,1,1-1.17-3.59,1.94,1.94,0,0,1,1.15.38,2.46,2.46,0,0,1,.41.38l-.4.39a1.47,1.47,0,0,0-.3-.31,1.33,1.33,0,0,0-.86-.32,1.48,1.48,0,0,0,0,2.95,1.49,1.49,0,0,0,.89-.32,1.57,1.57,0,0,0,.31-.32Z"/><path class="cls-1" d="M266.57,82.76a2,2,0,1,1,2,2A2,2,0,0,1,266.57,82.76Zm3.36,0a1.4,1.4,0,1,0-1.4,1.48A1.43,1.43,0,0,0,269.93,82.76Z"/><path class="cls-1" d="M271.49,80.85h.56v.56a1.3,1.3,0,0,1,.3-.32,1.55,1.55,0,0,1,.94-.32,1.51,1.51,0,0,1,1.56,1.64v2.27h-.56V82.41a1,1,0,0,0-1-1.12,1.19,1.19,0,0,0-1.2,1.27v2.12h-.56Z"/><path class="cls-1" d="M279.05,84.12a1.44,1.44,0,0,1-.33.32,1.64,1.64,0,0,1-1,.32,2,2,0,0,1,0-4,1.64,1.64,0,0,1,1,.32,1.44,1.44,0,0,1,.33.32V79.09h.56v5.59h-.56Zm0-1.36a1.42,1.42,0,0,0-1.32-1.47,1.48,1.48,0,0,0,0,2.95A1.43,1.43,0,0,0,279.05,82.76Z"/><path class="cls-1" d="M281.21,79.21a.36.36,0,1,1-.36.36A.36.36,0,0,1,281.21,79.21Zm-.28,1.64h.56v3.83h-.56Z"/><path class="cls-1" d="M283.09,81.37h-.72v-.52h.44c.22,0,.32-.14.32-.4v-.88h.52v1.28h.84v.52h-.84v2.27c0,.41.2.6.52.6a1.38,1.38,0,0,0,.37,0s.11,0,.15-.07v.52l-.16.07a1.35,1.35,0,0,1-.38.05,1,1,0,0,1-1.06-1.12Z"/><path class="cls-1" d="M285.93,79.21a.36.36,0,1,1-.36.36A.36.36,0,0,1,285.93,79.21Zm-.28,1.64h.56v3.83h-.56Z"/><path class="cls-1" d="M287.21,82.76a2,2,0,1,1,2,2A2,2,0,0,1,287.21,82.76Zm3.36,0a1.4,1.4,0,1,0-1.4,1.48A1.43,1.43,0,0,0,290.57,82.76Z"/><path class="cls-1" d="M292.13,80.85h.56v.56a1.3,1.3,0,0,1,.3-.32,1.56,1.56,0,0,1,2.5,1.32v2.27h-.56V82.41a1,1,0,0,0-1-1.12,1.19,1.19,0,0,0-1.2,1.27v2.12h-.56Z"/><path class="cls-1" d="M296.81,83.68a1.35,1.35,0,0,0,.25.28,1.09,1.09,0,0,0,.75.28c.57,0,.84-.28.84-.64,0-.88-2.08-.44-2.08-1.76a1.18,1.18,0,0,1,1.28-1.07,1.73,1.73,0,0,1,.92.26,1.35,1.35,0,0,1,.32.26l-.4.4a.8.8,0,0,0-.21-.2,1.1,1.1,0,0,0-.63-.2.65.65,0,0,0-.72.55c0,.84,2.08.41,2.08,1.76a1.24,1.24,0,0,1-1.4,1.16,1.75,1.75,0,0,1-1.06-.33,1.26,1.26,0,0,1-.34-.35Z"/><path class="cls-1" d="M304.21,84.16a1.3,1.3,0,0,1-.31.31,1.58,1.58,0,0,1-.93.29,1.27,1.27,0,0,1-1.36-1.12c0-.64.39-1,1.12-1.16l1.48-.23a.91.91,0,0,0-1-1,1.26,1.26,0,0,0-.79.28,1.86,1.86,0,0,0-.29.27l-.36-.35a1.58,1.58,0,0,1,.37-.36,1.73,1.73,0,0,1,1.07-.36,1.46,1.46,0,0,1,1.52,1.48v2.43h-.56Zm0-1.44-1.32.24c-.48.09-.72.32-.72.68s.28.6.8.6A1.2,1.2,0,0,0,304.21,83Z"/><path class="cls-1" d="M306.05,80.85h.56v.56a1.26,1.26,0,0,1,.33-.32,1.61,1.61,0,0,1,1-.32,2,2,0,0,1,0,4,1.61,1.61,0,0,1-1-.32,1.26,1.26,0,0,1-.33-.32v2.24h-.56Zm3.2,1.91a1.37,1.37,0,0,0-1.32-1.47,1.48,1.48,0,0,0,0,2.95A1.37,1.37,0,0,0,309.25,82.76Z"/><path class="cls-1" d="M310.81,80.85h.56v.56a1.26,1.26,0,0,1,.33-.32,1.61,1.61,0,0,1,1-.32,2,2,0,0,1,0,4,1.61,1.61,0,0,1-1-.32,1.26,1.26,0,0,1-.33-.32v2.24h-.56Zm3.2,1.91a1.37,1.37,0,0,0-1.32-1.47,1.48,1.48,0,0,0,0,2.95A1.37,1.37,0,0,0,314,82.76Z"/><path class="cls-1" d="M315.61,79.09h.56v5.59h-.56Z"/><path class="cls-1" d="M317.21,85.76l.13,0a.73.73,0,0,0,.27,0c.36,0,.57-.19.72-.6l.2-.56L317,80.85h.6L318.81,84l1.24-3.11h.6l-1.76,4.39c-.32.8-.65,1.12-1.2,1.12a1.2,1.2,0,0,1-.35,0l-.13,0Z"/><path class="cls-1" d="M321.29,84a.37.37,0,0,1,.4.4.4.4,0,1,1-.8,0A.37.37,0,0,1,321.29,84Z"/><path class="cls-1" d="M327.73,79.09h.56l2.31,5.59H330l-.63-1.56h-2.64l-.64,1.56h-.64Zm1.36,3.47L328,79.93l-1.08,2.63Z"/><path class="cls-1" d="M336.29,83.6a3.05,3.05,0,0,1-.6.59,2.84,2.84,0,0,1-1.72.57A2.88,2.88,0,1,1,334,79a2.81,2.81,0,0,1,1.71.58,3.48,3.48,0,0,1,.57.58l-.4.36a1.79,1.79,0,0,0-.47-.48,2.19,2.19,0,0,0-1.41-.48,2.32,2.32,0,0,0,0,4.63,2.31,2.31,0,0,0,1.44-.48,2.18,2.18,0,0,0,.48-.48Z"/><path class="cls-1" d="M338.53,79.65h-1.76v-.56h4.12v.56h-1.76v5h-.6Z"/><path class="cls-1" d="M343.33,79.09h2.12a1.76,1.76,0,1,1,0,3.51h-1.52v2.08h-.6Zm2.12,3a1.2,1.2,0,1,0,0-2.39h-1.52V82Z"/><path class="cls-1" d="M351.33,84a1.94,1.94,0,0,1-.41.4,2,2,0,0,1-1.19.4,2,2,0,0,1,0-4,1.83,1.83,0,0,1,1.84,1.91,1,1,0,0,1,0,.21V83h-3.12a1.38,1.38,0,0,0,1.36,1.28,1.53,1.53,0,0,0,.92-.32,1.62,1.62,0,0,0,.32-.32ZM351,82.48a1.3,1.3,0,0,0-1.28-1.19,1.36,1.36,0,0,0-1.32,1.19Z"/><path class="cls-1" d="M352.53,80.85h.56v.52a1.48,1.48,0,0,1,.31-.3,1.64,1.64,0,0,1,1-.3h.16v.56h-.24a1.18,1.18,0,0,0-1.2,1.23v2.12h-.56Z"/><path class="cls-1" d="M355.29,80.85h.56v.48a1.12,1.12,0,0,1,.25-.28,1.32,1.32,0,0,1,.83-.28,1.42,1.42,0,0,1,1,.34,1.3,1.3,0,0,1,.28.34,1.17,1.17,0,0,1,.29-.34,1.61,1.61,0,0,1,1-.34A1.45,1.45,0,0,1,361,82.41v2.27h-.56V82.41c0-.74-.39-1.12-.95-1.12a1.13,1.13,0,0,0-1,1.27v2.12h-.56V82.41c0-.73-.4-1.12-1-1.12a1.13,1.13,0,0,0-1,1.27v2.12h-.56Z"/><path class="cls-1" d="M362.53,79.21a.36.36,0,1,1-.36.36A.36.36,0,0,1,362.53,79.21Zm-.28,1.64h.56v3.83h-.56Z"/><path class="cls-1" d="M364.41,81.37h-.72v-.52h.44c.21,0,.32-.14.32-.4v-.88H365v1.28h.84v.52H365v2.27c0,.41.2.6.52.6a1,1,0,0,0,.52-.12v.52l-.16.07a1.42,1.42,0,0,1-.39.05,1,1,0,0,1-1-1.12Z"/><path class="cls-1" d="M368.85,79.09h.52l3.43,4.51V79.09h.6v5.59h-.52l-3.43-4.51v4.51h-.6Z"/><path class="cls-1" d="M374.61,82.76a2,2,0,1,1,2,2A2,2,0,0,1,374.61,82.76Zm3.36,0a1.4,1.4,0,1,0-1.4,1.48A1.43,1.43,0,0,0,378,82.76Z"/><path class="cls-1" d="M379.73,84a.38.38,0,0,1,.4.4.37.37,0,0,1-.4.4.37.37,0,0,1-.4-.4A.37.37,0,0,1,379.73,84Z"/><path class="cls-1" d="M383.93,79.65h-1.76v-.56h4.11v.56h-1.75v5h-.6Z"/><path class="cls-1" d="M387.29,79.09h2.12a1.76,1.76,0,1,1,0,3.51h-1.52v2.08h-.6Zm2.12,3a1.2,1.2,0,1,0,0-2.39h-1.52V82Z"/><path class="cls-1" d="M397,84.12v.56h-3.59c0-2.35,3-2.43,3-4a1.06,1.06,0,0,0-1.19-1.08,1.11,1.11,0,0,0-1,.48,1.06,1.06,0,0,0-.22.48l-.52-.24a1.75,1.75,0,0,1,.32-.64,1.82,1.82,0,0,1,3.19,1c0,1.72-2.43,2-2.92,3.47Z"/><path class="cls-1" d="M398.85,80.21h-1v-.36a1.41,1.41,0,0,0,1-.4,1.26,1.26,0,0,0,.24-.36h.44v5.59h-.6Z"/><path class="cls-1" d="M402.69,79h.52l-2.4,7.35h-.52Z"/><path class="cls-1" d="M403.69,81.88c0-1.79,1.08-2.87,2.24-2.87s2.23,1.08,2.23,2.87-1.08,2.88-2.23,2.88S403.69,83.68,403.69,81.88Zm3.87,0c0-1.51-.8-2.31-1.63-2.31s-1.64.8-1.64,2.31.8,2.32,1.64,2.32S407.56,83.4,407.56,81.88Z"/><path class="cls-1" d="M409.13,81.88c0-1.79,1.08-2.87,2.24-2.87s2.23,1.08,2.23,2.87-1.08,2.88-2.23,2.88S409.13,83.68,409.13,81.88Zm3.87,0c0-1.51-.8-2.31-1.63-2.31s-1.64.8-1.64,2.31.8,2.32,1.64,2.32S413,83.4,413,81.88Z"/><path class="cls-1" d="M417,79.65h-2.87v-.56h3.51v.56l-2.47,5h-.64Z"/><path class="cls-1" d="M420,79.09h.6l-1.31,2.08.16,0a1.65,1.65,0,0,1,.43,0,1.81,1.81,0,0,1,1.88,1.83,1.92,1.92,0,0,1-3.83,0,1.9,1.9,0,0,1,.2-.85,1.27,1.27,0,0,1,.2-.34Zm-.16,5.11a1.28,1.28,0,1,0-1.31-1.28A1.22,1.22,0,0,0,419.84,84.2Z"/><path class="cls-1" d="M423.17,82a1.47,1.47,0,0,1,.48-.31,1.41,1.41,0,0,1-.36-.27,1.19,1.19,0,0,1-.36-.89,1.64,1.64,0,0,1,3.27,0,1.19,1.19,0,0,1-.36.89,1.41,1.41,0,0,1-.36.27A1.47,1.47,0,0,1,426,82a1.38,1.38,0,0,1,.48,1.08,1.88,1.88,0,0,1-3.75,0A1.38,1.38,0,0,1,423.17,82Zm1.39,2.24A1.19,1.19,0,0,0,425.84,83a1.28,1.28,0,0,0-2.55,0A1.19,1.19,0,0,0,424.56,84.2Zm0-2.79a.93.93,0,1,0-1-.92A.94.94,0,0,0,424.56,81.41Z"/><path class="cls-1" d="M427.77,84a.38.38,0,0,1,.4.4.37.37,0,0,1-.4.4.37.37,0,0,1-.4-.4A.37.37,0,0,1,427.77,84Z"/><path class="cls-1" d="M431,83.52a2,2,0,0,0,.37.34,1.94,1.94,0,0,0,1.15.34c.84,0,1.28-.43,1.28-1,0-1.43-3-.64-3-2.63a1.63,1.63,0,0,1,1.8-1.52,2.14,2.14,0,0,1,1.23.36,1.77,1.77,0,0,1,.41.36l-.4.4a1.38,1.38,0,0,0-.31-.28,1.63,1.63,0,0,0-.93-.28c-.76,0-1.2.45-1.2,1,0,1.43,3,.64,3,2.63,0,.92-.68,1.6-1.88,1.6a2.5,2.5,0,0,1-1.42-.41,1.9,1.9,0,0,1-.46-.43Z"/><path class="cls-1" d="M437.28,79.09h.56l2.32,5.59h-.64l-.64-1.56h-2.64l-.64,1.56H435Zm1.36,3.47-1.08-2.63-1.08,2.63Z"/><path class="cls-1" d="M442.6,79.09h.6v5h2.88v.56H442.6Z"/><path class="cls-1" d="M447.16,79.21a.36.36,0,1,1-.36.36A.36.36,0,0,1,447.16,79.21Zm-.28,1.64h.56v3.83h-.56Z"/><path class="cls-1" d="M452,84a2.13,2.13,0,0,1-1.6.8,2,2,0,0,1,0-4,1.92,1.92,0,0,1,1.15.38,2.13,2.13,0,0,1,.41.38l-.4.39a1.72,1.72,0,0,0-.29-.31,1.38,1.38,0,0,0-.87-.32,1.48,1.48,0,0,0,0,2.95,1.49,1.49,0,0,0,.89-.32,1.57,1.57,0,0,0,.31-.32Z"/><path class="cls-1" d="M456,84a1.73,1.73,0,0,1-.41.4,2,2,0,0,1-1.19.4,2,2,0,0,1,0-4,1.82,1.82,0,0,1,1.84,1.91c0,.09,0,.16,0,.21l0,.08H453a1.38,1.38,0,0,0,1.36,1.28,1.48,1.48,0,0,0,.92-.32,1.62,1.62,0,0,0,.32-.32Zm-.36-1.48a1.3,1.3,0,0,0-1.28-1.19A1.36,1.36,0,0,0,453,82.48Z"/><path class="cls-1" d="M457.2,80.85h.56v.56a1.34,1.34,0,0,1,.31-.32,1.49,1.49,0,0,1,.93-.32,1.51,1.51,0,0,1,1.56,1.64v2.27H460V82.41a1,1,0,0,0-1-1.12,1.19,1.19,0,0,0-1.2,1.27v2.12h-.56Z"/><path class="cls-1" d="M465.08,84a2.13,2.13,0,0,1-1.6.8,2,2,0,0,1,0-4,1.92,1.92,0,0,1,1.15.38,2.13,2.13,0,0,1,.41.38l-.4.39a1.72,1.72,0,0,0-.29-.31,1.38,1.38,0,0,0-.87-.32,1.48,1.48,0,0,0,0,2.95,1.49,1.49,0,0,0,.89-.32,1.57,1.57,0,0,0,.31-.32Z"/><path class="cls-1" d="M469.12,84a1.73,1.73,0,0,1-.41.4,2,2,0,0,1-1.19.4,2,2,0,0,1,0-4,1.82,1.82,0,0,1,1.84,1.91,1.06,1.06,0,0,1,0,.21l0,.08h-3.12a1.38,1.38,0,0,0,1.36,1.28,1.48,1.48,0,0,0,.92-.32,1.62,1.62,0,0,0,.32-.32Zm-.36-1.48a1.3,1.3,0,0,0-1.28-1.19,1.36,1.36,0,0,0-1.32,1.19Z"/><path class="cls-1" d="M472.2,79.09h.52l3.44,4.51V79.09h.6v5.59h-.52l-3.44-4.51v4.51h-.6Z"/><path class="cls-1" d="M478,82.76a2,2,0,1,1,2,2A2,2,0,0,1,478,82.76Zm3.36,0a1.4,1.4,0,1,0-1.4,1.48A1.43,1.43,0,0,0,481.32,82.76Z"/><path class="cls-1" d="M483.08,84a.37.37,0,0,1,.4.4.4.4,0,1,1-.8,0A.37.37,0,0,1,483.08,84Z"/><path class="cls-1" d="M487.28,79.65h-1.76v-.56h4.12v.56h-1.76v5h-.6Z"/><path class="cls-1" d="M493.72,84.12v.56h-3.6c0-2.35,3-2.43,3-4a1.06,1.06,0,0,0-1.2-1.08,1.11,1.11,0,0,0-1,.48,1.19,1.19,0,0,0-.23.48l-.52-.24a1.92,1.92,0,0,1,.32-.64,1.69,1.69,0,0,1,1.4-.64,1.66,1.66,0,0,1,1.8,1.64c0,1.72-2.44,2-2.92,3.47Z"/><path class="cls-1" d="M495.56,80.21h-1v-.36a1.39,1.39,0,0,0,1-.4,1,1,0,0,0,.24-.36h.44v5.59h-.6Z"/><path class="cls-1" d="M499.4,79h.52l-2.4,7.35H497Z"/><path class="cls-1" d="M503,79.65h-2.88v-.56h3.52v.56l-2.48,5h-.64Z"/><path class="cls-1" d="M505.24,80.21h-1v-.36a1.39,1.39,0,0,0,1-.4,1,1,0,0,0,.24-.36h.44v5.59h-.6Z"/><path class="cls-1" d="M510.6,84.12v.56H507c0-2.35,3-2.43,3-4a1.06,1.06,0,0,0-1.2-1.08,1.11,1.11,0,0,0-1,.48,1.19,1.19,0,0,0-.23.48l-.52-.24a1.92,1.92,0,0,1,.32-.64,1.69,1.69,0,0,1,1.4-.64,1.66,1.66,0,0,1,1.8,1.64c0,1.72-2.44,2-2.92,3.47Z"/><path class="cls-1" d="M511.92,84a.37.37,0,0,1,.4.4.4.4,0,0,1-.8,0A.37.37,0,0,1,511.92,84Z"/></g></svg>