<svg xmlns="http://www.w3.org/2000/svg" viewBox="0 0 728 90"><defs><style>.cls-1{fill:#fff;}</style></defs><g id="Layer_1" data-name="Layer 1"><path class="cls-1" d="M26.21,57.3a5.51,5.51,0,1,1,0,11H22.4a.27.27,0,0,1-.28-.27V57.61a.28.28,0,0,1,.28-.28Zm-1.73,2.13V66.2h1.73a3.35,3.35,0,0,0,3.3-3.39,3.3,3.3,0,0,0-3.21-3.38H24.48Z"/><path class="cls-1" d="M40.21,57.07a5.75,5.75,0,1,1-6,5.74,5.83,5.83,0,0,1,6-5.74m0,9.35a3.62,3.62,0,1,0-3.62-3.62,3.62,3.62,0,0,0,3.62,3.62"/><path class="cls-1" d="M54.43,57.07a5.75,5.75,0,1,1-6,5.74,5.83,5.83,0,0,1,6-5.74m0,9.35a3.62,3.62,0,1,0-3.62-3.62h0a3.62,3.62,0,0,0,3.62,3.62"/><path class="cls-1" d="M63.53,57.59a.29.29,0,0,1,.28-.28H68.4a3.63,3.63,0,0,1,3.78,3.62,3.57,3.57,0,0,1-2,3.23l2.13,3.75a.29.29,0,0,1-.08.38.25.25,0,0,1-.17,0H70.23a.26.26,0,0,1-.25-.15l-2-3.7h-2v3.57a.28.28,0,0,1-.28.27H63.82a.27.27,0,0,1-.27-.27Zm4.81,1.84H65.9v2.91h2.44A1.43,1.43,0,0,0,69.83,61v0a1.43,1.43,0,0,0-1.39-1.49h-.1"/><path class="cls-1" d="M80.08,57.35a5.51,5.51,0,1,1,0,11H76.26A.27.27,0,0,1,76,68.1V57.63a.28.28,0,0,1,.27-.28Zm-1.74,2.13v6.77h1.74a3.35,3.35,0,0,0,3.29-3.39,3.3,3.3,0,0,0-3.21-3.38H78.34Z"/><path class="cls-1" d="M90.81,65.71l-.88,2.41a.27.27,0,0,1-.27.19H87.77a.27.27,0,0,1-.3-.25.22.22,0,0,1,0-.14L91.6,57.48a.27.27,0,0,1,.27-.18H94a.29.29,0,0,1,.28.18l4.1,10.44a.28.28,0,0,1-.13.36.27.27,0,0,1-.15,0H96.2a.27.27,0,0,1-.27-.19l-.88-2.41ZM92.93,60l-1.34,3.63h2.68Z"/><path class="cls-1" d="M100.58,60.28c0-1.73,1.5-3.23,3.86-3.23a4.91,4.91,0,0,1,3.42,1.29.3.3,0,0,1,0,.41l-1.06,1.06a.29.29,0,0,1-.39,0h0a2.75,2.75,0,0,0-1.82-.72c-1,0-1.65.55-1.65,1.18,0,2,5.58.86,5.58,4.8,0,2-1.5,3.46-4.17,3.46a5.58,5.58,0,0,1-4-1.6.28.28,0,0,1,0-.4l1-1a.27.27,0,0,1,.38,0h0a3.55,3.55,0,0,0,2.41,1c1.18,0,2-.63,2-1.42,0-2-5.58-.86-5.58-4.8"/><path class="cls-1" d="M118.65,57.58V61.7h-4.72V57.58a.27.27,0,0,0-.27-.28h-1.81a.27.27,0,0,0-.27.28V68a.28.28,0,0,0,.27.28h1.79a.28.28,0,0,0,.28-.28v-4.2h4.72V68a.28.28,0,0,0,.27.28h1.82A.28.28,0,0,0,121,68V57.58a.27.27,0,0,0-.27-.28h-1.8a.28.28,0,0,0-.28.27h0"/><path class="cls-1" d="M89.66,26.55a11.29,11.29,0,0,0-10-6H47.85a1.1,1.1,0,0,0-.77,1.87l6.92,7a3.27,3.27,0,0,0,2.31,1H78.72a2.89,2.89,0,0,1,.41,5.76H63.32a1.1,1.1,0,0,0-1.09,1.11,1.16,1.16,0,0,0,.32.76l6.92,7a3.29,3.29,0,0,0,2.31,1h7c9.08,0,16-9.71,10.88-19.36"/></g></svg>