<?xml version="1.0" encoding="utf-8"?>
<!-- Generator: Adobe Illustrator 26.0.3, SVG Export Plug-In . SVG Version: 6.00 Build 0)  -->
<svg version="1.1" id="Layer_1" xmlns="http://www.w3.org/2000/svg" xmlns:xlink="http://www.w3.org/1999/xlink" x="0px" y="0px"
	 viewBox="0 0 970 250" style="enable-background:new 0 0 970 250;" xml:space="preserve">
<style type="text/css">
	.st0{fill:#FFFFFF;}
	.st1{fill:#CDBBFF;}
</style>
<g>
	<g>
		<path class="st0" d="M39.9,43.2h27.6v7.1H48.2v8.5h18.9V66H48.2v9h19.3v7.2H39.9V43.2z"/>
		<path class="st0" d="M84.8,72.7l-6.5,9.5h-8.2l10-14.5L70.7,54H79l5.8,8.7l5.8-8.7h8.3l-9.5,13.7l10.1,14.5h-8.3L84.8,72.7z"/>
		<path class="st0" d="M103.3,93V54h7.4v3.6c2.1-2.7,5.3-4.3,8.7-4.3c7.2,0,12.5,5.4,12.5,14.8S126.7,83,119.4,83
			c-3.4,0-6.7-1.6-8.7-4.3V93H103.3z M117.1,59.9c-2.5,0.1-4.8,1.2-6.4,3.2v10c1.6,2,3.9,3.1,6.4,3.2c4.3,0,7.1-3.3,7.1-8.2
			S121.3,59.9,117.1,59.9L117.1,59.9z"/>
		<path class="st0" d="M137.5,43.2h7.4v39h-7.4V43.2z"/>
		<path class="st0" d="M150.5,68.1c0-8,5.6-14.8,14.9-14.8s15,6.8,15,14.8s-5.6,14.9-15,14.9S150.5,76.1,150.5,68.1z M172.6,68.1
			c0-4.4-2.6-8.2-7.3-8.2s-7.2,3.8-7.2,8.2s2.6,8.2,7.2,8.2S172.6,72.5,172.6,68.1z"/>
		<path class="st0" d="M185.9,54h7.4v3.9c2.2-2.7,5.5-4.4,9-4.5v7.3c-0.7-0.2-1.3-0.2-2-0.2c-2.5,0-5.7,1.4-7,3.2v18.6h-7.4V54z"/>
		<path class="st0" d="M219.7,53.2c8.4,0,14.2,6.3,14.2,15.6v1.6h-21c0.5,3.6,3.3,6.6,8.1,6.6c2.8,0,5.4-1,7.6-2.8l3.3,4.8
			c-2.8,2.6-7.2,3.9-11.6,3.9c-8.6,0-15.1-5.8-15.1-14.9C205.1,59.9,211.1,53.2,219.7,53.2z M212.7,65.4h14
			c-0.2-3.6-3.2-6.4-6.8-6.3c-0.1,0-0.1,0-0.2,0C216.1,59.1,213.1,61.8,212.7,65.4L212.7,65.4z"/>
		<path class="st1" d="M254.4,43.2h15.4c12.2,0,20.7,7.8,20.7,19.5s-8.5,19.5-20.7,19.5h-15.4V43.2z M269.8,74.9
			c7.7,0,12.2-5.6,12.2-12.2c0-6.9-4.2-12.2-12.2-12.2h-7.1v24.4H269.8z"/>
		<path class="st1" d="M315.3,78.6c-2.6,2.8-6.2,4.3-10,4.3c-6.2,0-9.1-3.4-9.1-8.9V54h7.4v17.1c0,3.9,2,5.2,5.2,5.2
			c2.5,0,4.9-1.2,6.4-3.2V54h7.4v28.2h-7.4L315.3,78.6z"/>
		<path class="st1" d="M330.9,73.3c2.7,2.3,6.2,3.7,9.8,3.9c3.2,0,4.7-1.1,4.7-2.9c0-2-2.5-2.7-5.7-3.3c-4.9-0.9-11.1-2.1-11.1-8.8
			c0-4.7,4.2-8.9,11.6-8.9c4.1-0.1,8.2,1.3,11.4,3.9l-3,5.1c-2.3-2.1-5.3-3.3-8.4-3.3c-2.7,0-4.4,1-4.4,2.6s2.2,2.4,5.4,3
			c4.9,0.9,11.4,2.2,11.4,9.2c0,5.2-4.4,9.1-12.2,9.1c-4.9,0-9.6-1.6-12.6-4.4L330.9,73.3z"/>
		<path class="st1" d="M368.8,71.3l-3.4,3.7v7.2H358v-39h7.4v23.3L376.1,54h9.1l-11.2,12.8l11.5,15.4h-9.3L368.8,71.3z"/>
		<path class="st1" d="M391.8,87.1c1.9,0,3.2-0.5,3.9-2l1-2.4L385.3,54h8l7.4,19.7L408,54h8l-13.3,32.8c-2.1,5.3-5.9,6.7-10.7,6.8
			c-1.2,0-2.5-0.2-3.7-0.4l1.1-6.7C390.2,86.9,391,87.1,391.8,87.1z"/>
		<path class="st1" d="M415.9,87.6c2.1-1.2,3.7-3.1,4.5-5.4c-0.4,0.1-0.7,0.2-1.1,0.2c-2.2,0-4-1.8-4-4c0-0.1,0-0.2,0-0.3
			c0-2.5,2-4.6,4.6-4.7c2.8,0,5.3,2.2,5.3,6c-0.1,4.4-2.4,8.4-6,10.9L415.9,87.6z"/>
		<path class="st1" d="M480.3,54.1l-11,28.1h-3.6l-11-28.1v28.1h-8.3v-39H458l9.5,24.3l9.5-24.3h11.7v39h-8.4L480.3,54.1z"/>
		<path class="st1" d="M495.4,45.3c0-2.5,2-4.5,4.5-4.4c2.5,0,4.4,2,4.4,4.5c0,2.5-2,4.4-4.4,4.4C497.4,49.8,495.4,47.8,495.4,45.3z
			 M496.2,53.9h7.4v28.3h-7.4V53.9z"/>
		<path class="st1" d="M511,43.2h7.4v39H511V43.2z"/>
		<path class="st1" d="M527.4,60.5h-4.7V54h4.7v-1.6c0-6.1,4-9.8,9.5-9.8c1.9,0,3.7,0.4,5.4,1.2l-1.5,5.2c-0.7-0.4-1.6-0.6-2.4-0.6
			c-2.1,0-3.5,1.4-3.5,4.1V54h5.7v6.5h-5.7v21.7h-7.5L527.4,60.5z"/>
		<path class="st1" d="M543.1,68.1c0-8,5.6-14.8,14.9-14.8s15,6.8,15,14.8s-5.6,14.9-15,14.9S543.1,76.1,543.1,68.1z M565.3,68.1
			c0-4.4-2.6-8.2-7.2-8.2s-7.2,3.8-7.2,8.2s2.6,8.2,7.2,8.2S565.3,72.5,565.3,68.1z"/>
		<path class="st1" d="M578.5,54h7.4v3.9c2.2-2.7,5.5-4.4,9-4.5v7.3c-0.7-0.2-1.3-0.2-2-0.2c-2.5,0-5.7,1.4-7,3.2v18.6h-7.4V54z"/>
		<path class="st1" d="M619,78.6c-2.1,2.7-5.3,4.3-8.7,4.3c-7.1,0-12.5-5.4-12.5-14.8c0-9.2,5.3-14.9,12.5-14.9
			c3.4,0,6.7,1.6,8.7,4.3V43.2h7.5v39H619V78.6z M619,63.1c-1.5-2-3.9-3.2-6.4-3.2c-4.2,0-7.1,3.3-7.1,8.2s2.9,8.2,7.1,8.2
			c2.5,0,4.9-1.2,6.4-3.2V63.1z"/>
	</g>
</g>
</svg>
