<?xml version="1.0" encoding="utf-8"?>
<!-- Generator: Adobe Illustrator 26.0.3, SVG Export Plug-In . SVG Version: 6.00 Build 0)  -->
<svg version="1.1" id="Layer_1" xmlns="http://www.w3.org/2000/svg" xmlns:xlink="http://www.w3.org/1999/xlink" x="0px" y="0px"
	 viewBox="0 0 970 250" style="enable-background:new 0 0 970 250;" xml:space="preserve">
<style type="text/css">
	.st0{fill:#FFFFFF;}
	.st1{fill:#80919E;}
</style>
<g>
	<g>
		<path class="st0" d="M62.6,108C47.9,108,36,119.9,36,134.6c0,14.7,11.9,26.6,26.6,26.6h123.8c14.7,0,26.6-11.9,26.6-26.6
			c0-14.7-11.9-26.6-26.6-26.6H62.6z"/>
		<path class="st1" d="M60.8,124.1h9c4.2,0,6.5,2.8,6.5,6.2s-2.3,6.1-6.5,6.1h-4.9v6.9h-4.1V124.1z M69.2,127.6h-4.3v5.3h4.3
			c1.5,0.1,2.7-1,2.8-2.5s-1-2.7-2.5-2.8C69.4,127.6,69.3,127.6,69.2,127.6z"/>
		<path class="st1" d="M78.7,124.1h3.7v19.2h-3.7V124.1z"/>
		<path class="st1" d="M94.3,141.9c-1.1,1.2-2.8,1.8-4.4,1.8c-2.6,0.1-4.7-1.9-4.8-4.4c0-0.1,0-0.1,0-0.2c0-3.3,2.6-4.4,4.8-4.4
			c1.6-0.1,3.3,0.5,4.4,1.7v-1.9c0-1.4-1.2-2.3-3.1-2.3c-1.5,0-3,0.6-4.1,1.6l-1.4-2.5c1.7-1.4,3.9-2.2,6.1-2.2
			c3.2,0,6.1,1.3,6.1,5.3v9h-3.7V141.9z M94.3,138.2c-0.7-0.8-1.8-1.3-2.9-1.2c-1.4,0-2.6,0.8-2.6,2.1s1.2,2,2.6,2
			c1.1,0.1,2.2-0.4,2.9-1.2L94.3,138.2z"/>
		<path class="st1" d="M111.1,134.9c0-1.9-1-2.6-2.6-2.6c-1.3,0-2.4,0.6-3.2,1.6v9.4h-3.7v-13.9h3.7v1.8c1.2-1.4,3-2.2,4.9-2.2
			c3.1,0,4.5,1.7,4.5,4.4v9.8h-3.7V134.9z"/>
		<path class="st1" d="M129.9,130.4v12.9h-4.1v-19.2h4.2l8.9,12.5v-12.5h4.1v19.2h-3.9L129.9,130.4z"/>
		<path class="st1" d="M145.9,136.3c0-4.1,3.2-7.4,7.3-7.4c4.1,0,7.4,3.2,7.4,7.3c0,4.1-3.2,7.4-7.3,7.4c0,0,0,0-0.1,0
			c-3.9,0.2-7.2-2.8-7.3-6.7C145.9,136.7,145.9,136.5,145.9,136.3z M156.8,136.3c0-2.2-1.3-4-3.6-4s-3.6,1.9-3.6,4s1.3,4.1,3.6,4.1
			S156.8,138.5,156.8,136.3L156.8,136.3z"/>
		<path class="st1" d="M172.6,133.8l-2.9,9.5h-3.9l-4.2-13.9h3.8l2.6,9.4l3.1-9.4h3.3l3.1,9.4l2.6-9.4h3.8l-4.2,13.9h-3.9
			L172.6,133.8z"/>
		<path class="st1" d="M186.3,138.9c1.3,0,2.3,1,2.3,2.3c0,1.3-1,2.3-2.3,2.3c-1.3,0-2.3-1-2.3-2.3l0,0
			C184,140,185,138.9,186.3,138.9z"/>
	</g>
</g>
</svg>
