<?xml version="1.0" encoding="utf-8"?>
<!-- Generator: Adobe Illustrator 26.0.3, SVG Export Plug-In . SVG Version: 6.00 Build 0)  -->
<svg version="1.1" id="Layer_1" xmlns="http://www.w3.org/2000/svg" xmlns:xlink="http://www.w3.org/1999/xlink" x="0px" y="0px"
	 viewBox="0 0 970 250" style="enable-background:new 0 0 970 250;" xml:space="preserve">
<style type="text/css">
	.st0{fill:#FFFFFF;}
	.st1{clip-path:url(#SVGID_00000152229776827882891200000004848699656107802806_);}
</style>
<g>
	<path class="st0" d="M822.2,192.2v-14.6h9.8v1.9h-7.6v4.3h7.4v1.9h-7.4v6.5L822.2,192.2z"/>
	<path class="st0" d="M834,178.6c-0.1-0.7,0.5-1.3,1.2-1.4c0.7-0.1,1.3,0.5,1.4,1.2c0,0.1,0,0.2,0,0.2c-0.1,0.7-0.7,1.2-1.4,1.2
		C834.5,179.7,834.1,179.2,834,178.6z M834.3,192.2v-10.6h2v10.6H834.3z"/>
	<path class="st0" d="M838.7,186.9c0.1-2.9,2.6-5.2,5.5-5.1s5.2,2.6,5.1,5.5c-0.1,2.9-2.5,5.1-5.3,5.1c-2.9,0.1-5.3-2.2-5.3-5.1
		C838.7,187.2,838.7,187,838.7,186.9z M847.3,186.9c0-2-1.2-3.8-3.3-3.8s-3.3,1.8-3.3,3.8s1.2,3.8,3.3,3.8S847.3,188.9,847.3,186.9
		L847.3,186.9z"/>
	<path class="st0" d="M851.9,192.2v-10.6h2v1.6c0.8-1.1,2.1-1.8,3.5-1.9v2c-0.2-0.1-0.5-0.1-0.7-0.1c-1.1,0.1-2.1,0.6-2.8,1.5v7.3
		L851.9,192.2z"/>
	<path class="st0" d="M866.8,192.2v-1.5c-0.8,1.1-2.1,1.8-3.5,1.8c-2.8,0-4.7-2.1-4.7-5.5s2-5.5,4.7-5.5c1.4,0,2.7,0.7,3.5,1.8v-5.6
		h2v14.6H866.8z M866.8,184.7c-0.7-1-1.8-1.5-2.9-1.6c-2,0-3.2,1.6-3.2,3.8s1.2,3.8,3.2,3.8c1.2,0,2.3-0.6,2.9-1.5V184.7z"/>
	<path class="st0" d="M871.9,192.2v-14.6h2v14.6H871.9z"/>
	<path class="st0" d="M883.5,192.2V191c-0.9,0.9-2.1,1.5-3.5,1.4c-1.9,0.1-3.6-1.4-3.7-3.3c0-0.1,0-0.1,0-0.2c0-1.9,1.5-3.4,3.3-3.5
		c0.1,0,0.2,0,0.3,0c1.3-0.1,2.6,0.4,3.5,1.4v-1.7c0-1.3-1.1-2.1-2.6-2.1c-1.2,0-2.3,0.5-3.2,1.4l-0.8-1.4c1.2-1.1,2.7-1.8,4.3-1.7
		c2.3,0,4.2,1,4.2,3.7v7.1L883.5,192.2z M883.5,188.1c-0.7-0.8-1.7-1.2-2.7-1.2c-1.2-0.2-2.2,0.6-2.4,1.8c-0.2,1.2,0.6,2.2,1.8,2.4
		c0.2,0,0.4,0,0.6,0c1,0,2-0.4,2.7-1.2V188.1z"/>
	<path class="st0" d="M895.7,192.2v-6.8c0-1.8-0.9-2.3-2.2-2.3c-1.1,0-2.2,0.6-2.9,1.5v7.5h-2v-10.6h2v1.5c0.9-1.1,2.3-1.7,3.7-1.8
		c2.2,0,3.4,1.2,3.4,3.4v7.4H895.7z"/>
	<path class="st0" d="M908.3,192.2v-1.5c-0.8,1.1-2.1,1.8-3.5,1.8c-2.8,0-4.7-2.1-4.7-5.5s2-5.5,4.7-5.5c1.4,0,2.7,0.7,3.5,1.8v-5.6
		h2v14.6H908.3z M908.3,184.7c-0.7-1-1.8-1.5-2.9-1.6c-2,0-3.2,1.6-3.2,3.8s1.2,3.8,3.2,3.8c1.2,0,2.3-0.6,2.9-1.5V184.7z"/>
	<path class="st0" d="M832.4,212v-6.5h-8v6.5h-2.2v-14.6h2.2v6.1h8v-6.1h2.2V212H832.4z"/>
	<path class="st0" d="M842.5,201.2c3.2,0,5.1,2.5,5.1,5.7v0.5h-8.3c0.1,1.9,1.7,3.3,3.6,3.3c1.2,0,2.3-0.4,3.1-1.2l0.9,1.3
		c-1.1,1.1-2.7,1.6-4.2,1.6c-3.1-0.1-5.5-2.6-5.4-5.7C837.3,203.7,839.6,201.4,842.5,201.2L842.5,201.2z M839.2,206h6.4
		c0-1.7-1.4-3.1-3.1-3.2c0,0-0.1,0-0.1,0C840.7,202.8,839.3,204.2,839.2,206z"/>
	<path class="st0" d="M850,212v-14.6h2V212H850z"/>
	<path class="st0" d="M854.8,198.4c0-0.7,0.6-1.3,1.3-1.3c0.7,0,1.3,0.6,1.3,1.3c0,0.7-0.6,1.3-1.2,1.3c0,0,0,0,0,0
		C855.4,199.7,854.8,199.1,854.8,198.4z M855.1,212v-10.5h2V212H855.1z"/>
	<path class="st0" d="M864.9,201.2c1.5-0.1,3,0.6,4,1.9l-1.3,1.2c-0.6-0.8-1.5-1.3-2.5-1.3c-2.1,0-3.4,1.6-3.4,3.8s1.3,3.8,3.4,3.8
		c1,0,2-0.5,2.5-1.3l1.3,1.2c-0.9,1.2-2.4,1.9-4,1.9c-3.1-0.1-5.4-2.7-5.3-5.8C859.8,203.6,862.1,201.3,864.9,201.2L864.9,201.2z"/>
	<path class="st0" d="M870.4,206.7c0.1-2.9,2.6-5.2,5.5-5.1s5.2,2.6,5.1,5.5c-0.1,2.9-2.5,5.1-5.3,5.1c-2.9,0.1-5.3-2.2-5.3-5.1
		C870.4,207,870.4,206.9,870.4,206.7z M879,206.7c0-2-1.2-3.8-3.3-3.8s-3.3,1.8-3.3,3.8s1.2,3.8,3.3,3.8S879,208.7,879,206.7z"/>
	<path class="st0" d="M885.5,216h-2v-14.5h2v1.5c0.8-1.1,2.1-1.8,3.5-1.8c2.8,0,4.7,2.1,4.7,5.5s-2,5.6-4.7,5.6
		c-1.4,0-2.7-0.7-3.5-1.8L885.5,216z M888.4,202.9c-1.2,0-2.3,0.6-2.9,1.6v4.5c0.7,1,1.8,1.5,2.9,1.6c2,0,3.2-1.6,3.2-3.8
		S890.4,202.9,888.4,202.9L888.4,202.9z"/>
	<path class="st0" d="M896.5,209.7v-6.5h-1.8v-1.7h1.8v-2.9h2v2.9h2.1v1.7h-2.2v6c0,0.7,0.3,1.3,1,1.3c0.4,0,0.8-0.1,1.1-0.4
		l0.5,1.5c-0.6,0.5-1.3,0.7-2,0.7c-1.3,0.1-2.4-0.8-2.5-2.1C896.5,210,896.5,209.8,896.5,209.7z"/>
	<path class="st0" d="M907.5,201.2c3.2,0,5.1,2.5,5.1,5.7v0.5h-8.3c0.1,1.9,1.7,3.3,3.6,3.3c1.2,0,2.3-0.4,3.1-1.2l0.9,1.3
		c-1.1,1.1-2.7,1.6-4.2,1.6c-3.1-0.1-5.5-2.6-5.4-5.7C902.3,203.7,904.6,201.4,907.5,201.2L907.5,201.2z M904.2,206h6.4
		c0-1.7-1.4-3.1-3.1-3.2c0,0-0.1,0-0.1,0C905.7,202.8,904.3,204.2,904.2,206z"/>
	<path class="st0" d="M915.1,212v-10.5h2v1.6c0.8-1.1,2.1-1.8,3.5-1.9v2c-0.2,0-0.4-0.1-0.7-0.1c-1.1,0.1-2.1,0.6-2.8,1.5v7.3H915.1
		z"/>
	<path class="st0" d="M922.5,209.2c0.9,0.9,2.2,1.5,3.5,1.5c1.5,0,2.3-0.6,2.3-1.5c0-1.1-1.2-1.4-2.5-1.7c-1.8-0.4-3.9-0.9-3.9-3.2
		c0-1.7,1.4-3.1,4-3.1c1.5,0,2.9,0.5,4,1.5l-0.9,1.4c-0.8-0.9-1.9-1.3-3.1-1.3c-1.3,0-2.2,0.5-2.2,1.4s1.1,1.2,2.4,1.5
		c1.8,0.4,4,0.9,4,3.3c0,1.8-1.5,3.2-4.3,3.2c-1.6,0.1-3.2-0.5-4.4-1.6L922.5,209.2z"/>
	<g>
		<defs>
			<rect id="SVGID_1_" width="970" height="250"/>
		</defs>
		<clipPath id="SVGID_00000004514182856125147060000001117815168941914788_">
			<use xlink:href="#SVGID_1_"  style="overflow:visible;"/>
		</clipPath>
		<g style="clip-path:url(#SVGID_00000004514182856125147060000001117815168941914788_);">
			<path class="st0" d="M802.6,195.6c-3.9,5.4-7.8,10.8-11.7,16.3l-0.1,0.2c-0.3,0.3-0.5,0.3-0.8,0c-0.8-1.2-1.7-2.3-2.5-3.5
				c-3-4.1-5.9-8.3-8.9-12.4c-1.4-1.8-2.4-3.8-2.9-6c-2-8.1,2.9-16.4,11.1-18.4c0.5-0.1,0.9-0.2,1.4-0.3c8.2-1.2,15.9,4.3,17.3,12.5
				C806.1,188.1,805.1,192.3,802.6,195.6 M806.4,183.3c-1.5-7.4-7.9-12.9-15.4-13.1c-9.1-0.3-16.7,6.9-16.9,16c0,0.7,0,1.5,0.1,2.2
				c0.3,2.9,1.4,5.7,3.2,8.1c4.1,5.7,8.3,11.4,12.4,17.1c0.4,0.6,0.8,0.6,1.2,0l3.6-5c3.1-4.3,6.2-8.5,9.3-12.8
				c1.9-2.7,2.9-5.9,3-9.3C806.7,185.4,806.6,184.3,806.4,183.3"/>
			<path class="st0" d="M790.3,196.6c-5.6,0-10.1-4.5-10-10.1c0-5.6,4.5-10.1,10.1-10s10.1,4.5,10,10.1c0,0,0,0,0,0
				C800.4,192.2,795.9,196.6,790.3,196.6 M805.3,184c-1.4-8.3-9.2-13.9-17.5-12.5c-7.4,1.2-12.8,7.7-12.7,15.2
				c0,1.2,0.2,2.3,0.5,3.5c0.6,2.2,1.6,4.2,2.9,6c3,4.1,6,8.2,8.9,12.4c0.8,1.2,1.7,2.3,2.5,3.5c0.2,0.3,0.5,0.3,0.8,0
				c0.1-0.1,0.1-0.1,0.1-0.2c3.9-5.4,7.8-10.8,11.7-16.3C805.1,192.3,806.1,188.1,805.3,184"/>
			<path class="st0" d="M790.3,195.5c-5,0-9-4-9-9s4-9,9-9s9,4,9,9l0,0C799.3,191.5,795.3,195.5,790.3,195.5 M790.3,176.5
				c-5.6,0-10.1,4.5-10.1,10.1s4.5,10.1,10.1,10.1c5.6,0,10.1-4.5,10.1-10C800.4,181,795.9,176.5,790.3,176.5
				C790.4,176.5,790.4,176.5,790.3,176.5"/>
		</g>
	</g>
</g>
</svg>
