<?xml version="1.0" encoding="utf-8"?>
<!-- Generator: Adobe Illustrator 26.0.3, SVG Export Plug-In . SVG Version: 6.00 Build 0)  -->
<svg version="1.1" id="Layer_1" xmlns="http://www.w3.org/2000/svg" xmlns:xlink="http://www.w3.org/1999/xlink" x="0px" y="0px"
	 viewBox="0 0 970 250" style="enable-background:new 0 0 970 250;" xml:space="preserve">
<style type="text/css">
	.st0{fill:#FFFFFF;}
	.st1{clip-path:url(#SVGID_00000094581510636390819410000013390228191619790258_);}
</style>
<g>
	<g>
		<path class="st0" d="M844.5,192.2v-14.6h9.8v1.9h-7.6v4.3h7.5v1.9h-7.5v6.5L844.5,192.2z"/>
		<path class="st0" d="M856.5,192.2v-14.6h2v14.6H856.5z"/>
		<path class="st0" d="M861.4,194.6c0.3,0.1,0.6,0.2,0.9,0.2c0.7,0.1,1.3-0.3,1.5-1l0.6-1.4l-4.3-10.7h2.1l3.3,8.3l3.3-8.3h2.1
			l-5.2,12.5c-0.5,1.4-1.9,2.4-3.4,2.3c-0.4,0-0.8-0.1-1.2-0.2L861.4,194.6z"/>
		<path class="st0" d="M844.5,212v-14.6h9.8v1.9h-7.6v4.3h7.5v1.9h-7.5v6.5H844.5z"/>
		<path class="st0" d="M856.2,198.4c0-0.7,0.6-1.3,1.3-1.3c0.7,0,1.3,0.6,1.3,1.3c0,0.7-0.6,1.3-1.2,1.3c0,0,0,0,0,0
			C856.8,199.7,856.3,199.1,856.2,198.4z M856.5,212v-10.5h2V212H856.5z"/>
		<path class="st0" d="M861,206.7c0.1-2.9,2.6-5.2,5.5-5.1s5.2,2.6,5.1,5.5c-0.1,2.9-2.5,5.1-5.3,5.1c-2.9,0.1-5.3-2.2-5.3-5.1
			C861,207,861,206.9,861,206.7z M869.6,206.7c0-2-1.2-3.8-3.3-3.8s-3.3,1.8-3.3,3.8s1.2,3.8,3.3,3.8S869.6,208.7,869.6,206.7
			L869.6,206.7z"/>
		<path class="st0" d="M874.1,212v-10.5h2v1.6c0.8-1.1,2.1-1.8,3.5-1.9v2c-0.2,0-0.5-0.1-0.7-0.1c-1.1,0.1-2.1,0.6-2.8,1.5v7.3
			H874.1z"/>
		<path class="st0" d="M889,212v-1.5c-0.8,1.1-2.1,1.7-3.5,1.8c-2.8,0-4.7-2.1-4.7-5.5s2-5.5,4.7-5.5c1.4,0,2.7,0.7,3.5,1.8v-5.6h2
			V212H889z M889,204.5c-0.7-1-1.8-1.5-2.9-1.6c-2,0-3.2,1.6-3.2,3.8s1.2,3.8,3.2,3.8c1.2,0,2.3-0.6,2.9-1.5V204.5z"/>
		<path class="st0" d="M894.1,212v-14.6h2V212H894.1z"/>
		<path class="st0" d="M905.7,212v-1.1c-0.9,0.9-2.1,1.5-3.5,1.4c-1.9,0.1-3.6-1.4-3.7-3.3c0-0.1,0-0.1,0-0.2c0-1.9,1.5-3.4,3.3-3.5
			c0.1,0,0.2,0,0.3,0c1.3-0.1,2.6,0.4,3.5,1.4V205c0-1.3-1.1-2.1-2.6-2.1c-1.2,0-2.4,0.5-3.2,1.4l-0.8-1.4c1.1-1.1,2.7-1.8,4.3-1.7
			c2.3,0,4.2,1,4.2,3.7v7.1H905.7z M905.7,207.9c-0.7-0.8-1.7-1.2-2.7-1.2c-1.2-0.2-2.2,0.6-2.4,1.8c-0.2,1.2,0.6,2.2,1.8,2.4
			c0.2,0,0.4,0,0.6,0c1,0,2-0.4,2.7-1.2V207.9z"/>
		<path class="st0" d="M918,212v-6.7c0-1.8-0.9-2.3-2.2-2.3c-1.1,0-2.2,0.6-2.9,1.5v7.5h-2v-10.5h2v1.5c0.9-1.1,2.3-1.7,3.7-1.7
			c2.2,0,3.4,1.2,3.4,3.4v7.4H918z"/>
		<path class="st0" d="M930.5,212v-1.5c-0.8,1.1-2.1,1.8-3.5,1.8c-2.8,0-4.7-2.1-4.7-5.5s2-5.5,4.7-5.5c1.4,0,2.7,0.7,3.5,1.8v-5.6
			h2V212H930.5z M930.5,204.5c-0.7-1-1.8-1.5-2.9-1.6c-2,0-3.2,1.6-3.2,3.8s1.2,3.8,3.2,3.8c1.2,0,2.2-0.6,2.9-1.5V204.5z"/>
		<g>
			<defs>
				<rect id="SVGID_1_" width="970" height="250"/>
			</defs>
			<clipPath id="SVGID_00000108276525884406639980000002397935753038625199_">
				<use xlink:href="#SVGID_1_"  style="overflow:visible;"/>
			</clipPath>
			<g style="clip-path:url(#SVGID_00000108276525884406639980000002397935753038625199_);">
				<path class="st0" d="M824.8,195.6l-11.7,16.3L813,212c-0.3,0.3-0.5,0.3-0.8,0l-2.5-3.5c-3-4.1-5.9-8.3-8.9-12.4
					c-1.4-1.8-2.4-3.8-2.9-6c-2-8.1,2.9-16.4,11.1-18.4c0.5-0.1,0.9-0.2,1.4-0.3c8.2-1.2,15.9,4.4,17.2,12.6
					C828.3,188.1,827.3,192.3,824.8,195.6 M828.6,183.3c-1.5-7.4-7.9-12.9-15.5-13.1c-9.1-0.3-16.7,6.9-16.9,16c0,0.7,0,1.5,0.1,2.2
					c0.3,2.9,1.4,5.7,3.2,8.1c4.1,5.7,8.3,11.4,12.4,17.1c0.4,0.6,0.8,0.6,1.2,0c1.2-1.7,2.4-3.3,3.6-5c3.1-4.3,6.2-8.5,9.3-12.8
					c1.9-2.7,2.9-5.9,3-9.3C828.9,185.4,828.8,184.3,828.6,183.3"/>
				<path class="st0" d="M812.6,196.6c-5.6,0-10.1-4.5-10-10.1c0-5.6,4.5-10.1,10.1-10s10.1,4.5,10,10.1c0,0,0,0,0,0
					C822.6,192.2,818.1,196.6,812.6,196.6 M827.6,184c-1.4-8.3-9.3-13.8-17.6-12.4c-7.4,1.3-12.7,7.7-12.6,15.1
					c0,1.2,0.2,2.3,0.5,3.5c0.6,2.2,1.6,4.2,2.9,6c3,4.1,6,8.2,8.9,12.4l2.5,3.5c0.2,0.3,0.5,0.3,0.8,0l0.1-0.2l11.7-16.3
					C827.3,192.3,828.3,188.1,827.6,184"/>
				<path class="st0" d="M812.6,195.5c-5,0-9-4-9-9s4-9,9-9s9,4,9,9l0,0C821.6,191.5,817.6,195.5,812.6,195.5 M812.6,176.5
					c-5.6,0-10.1,4.5-10.1,10.1s4.5,10.1,10.1,10.1c5.6,0,10.1-4.5,10.1-10C822.7,181,818.2,176.5,812.6,176.5
					C812.6,176.5,812.6,176.5,812.6,176.5"/>
			</g>
		</g>
	</g>
</g>
</svg>
