<?xml version="1.0" encoding="utf-8"?>
<!-- Generator: Adobe Illustrator 26.0.3, SVG Export Plug-In . SVG Version: 6.00 Build 0)  -->
<svg version="1.1" id="Layer_1" xmlns="http://www.w3.org/2000/svg" xmlns:xlink="http://www.w3.org/1999/xlink" x="0px" y="0px"
	 viewBox="0 0 970 250" style="enable-background:new 0 0 970 250;" xml:space="preserve">
<style type="text/css">
	.st0{fill:#FFFFFF;}
	.st1{clip-path:url(#SVGID_00000067197459217995187430000016277972927646594441_);}
</style>
<g>
	<g>
		<path class="st0" d="M784.7,192.2v-14.6h9.8v1.9h-7.6v4.3h7.5v1.9h-7.5v6.5L784.7,192.2z"/>
		<path class="st0" d="M796.5,178.6c0-0.7,0.6-1.3,1.3-1.3c0.7,0,1.3,0.6,1.3,1.3c0,0,0,0,0,0c0,0.7-0.6,1.2-1.2,1.2c0,0,0,0,0,0
			C797,179.9,796.5,179.3,796.5,178.6z M796.8,192.2v-10.6h2v10.6H796.8z"/>
		<path class="st0" d="M801.2,186.9c0.1-2.9,2.6-5.2,5.5-5.1s5.2,2.6,5.1,5.5c-0.1,2.9-2.5,5.1-5.3,5.1c-2.9,0.1-5.3-2.2-5.3-5.1
			C801.2,187.2,801.2,187,801.2,186.9z M809.8,186.9c0-2-1.2-3.8-3.3-3.8s-3.3,1.8-3.3,3.8s1.2,3.8,3.3,3.8S809.8,188.9,809.8,186.9
			z"/>
		<path class="st0" d="M814.3,192.2v-10.6h2v1.6c0.8-1.1,2.1-1.8,3.5-1.9v2c-0.2-0.1-0.5-0.1-0.7-0.1c-1.1,0.1-2.1,0.6-2.8,1.5v7.3
			L814.3,192.2z"/>
		<path class="st0" d="M829.2,192.2v-1.5c-0.8,1.1-2.1,1.8-3.5,1.8c-2.8,0-4.7-2.1-4.7-5.5s2-5.5,4.7-5.5c1.4,0,2.7,0.7,3.5,1.8
			v-5.6h2v14.6H829.2z M829.2,184.7c-0.7-1-1.8-1.5-2.9-1.6c-2,0-3.2,1.6-3.2,3.8s1.2,3.8,3.2,3.8c1.2,0,2.3-0.6,2.9-1.5V184.7z"/>
		<path class="st0" d="M834.3,192.2v-14.6h2v14.6H834.3z"/>
		<path class="st0" d="M845.9,192.2V191c-0.9,0.9-2.1,1.5-3.5,1.4c-1.9,0.1-3.6-1.4-3.7-3.3c0-0.1,0-0.1,0-0.2
			c0-1.9,1.4-3.4,3.3-3.5c0.1,0,0.2,0,0.3,0c1.3-0.1,2.6,0.4,3.5,1.4v-1.7c0-1.3-1.1-2.1-2.6-2.1c-1.2,0-2.4,0.5-3.2,1.4l-0.8-1.4
			c1.2-1.1,2.7-1.8,4.3-1.7c2.3,0,4.2,1,4.2,3.7v7.1L845.9,192.2z M845.9,188.1c-0.7-0.8-1.7-1.2-2.7-1.2c-1.2-0.2-2.2,0.6-2.4,1.8
			c-0.2,1.2,0.6,2.2,1.8,2.4c0.2,0,0.4,0,0.6,0c1,0,2-0.4,2.7-1.2V188.1z"/>
		<path class="st0" d="M858.2,192.2v-6.8c0-1.8-0.9-2.3-2.2-2.3c-1.1,0-2.2,0.6-2.9,1.5v7.5h-2v-10.6h2v1.5c0.9-1.1,2.3-1.7,3.7-1.8
			c2.2,0,3.4,1.2,3.4,3.4v7.4H858.2z"/>
		<path class="st0" d="M870.8,192.2v-1.5c-0.8,1.1-2.1,1.8-3.5,1.8c-2.8,0-4.7-2.1-4.7-5.5s2-5.5,4.7-5.5c1.4,0,2.7,0.7,3.5,1.8
			v-5.6h2v14.6H870.8z M870.8,184.7c-0.7-1-1.8-1.5-2.9-1.6c-2,0-3.2,1.6-3.2,3.8s1.2,3.8,3.2,3.8c1.2,0,2.3-0.6,2.9-1.5V184.7z"/>
		<path class="st0" d="M794.9,212v-6.5h-8.1v6.5h-2.2v-14.6h2.2v6.1h8.1v-6.1h2.2V212H794.9z"/>
		<path class="st0" d="M800,198.4c0.1-0.7,0.7-1.2,1.4-1.2c0.6,0.1,1.1,0.5,1.2,1.2c-0.1,0.7-0.7,1.2-1.4,1.2
			C800.5,199.5,800.1,199.1,800,198.4z M800.3,212v-10.5h2V212H800.3z"/>
		<path class="st0" d="M805.4,209.2c0.9,0.9,2.2,1.5,3.5,1.5c1.5,0,2.3-0.6,2.3-1.5c0-1.1-1.2-1.4-2.6-1.7c-1.8-0.4-3.9-0.9-3.9-3.2
			c0-1.7,1.4-3.1,4-3.1c1.5,0,2.9,0.5,4,1.5l-0.9,1.4c-0.8-0.9-1.9-1.3-3.1-1.3c-1.3,0-2.2,0.5-2.2,1.4s1.1,1.2,2.4,1.5
			c1.8,0.4,4,0.9,4,3.3c0,1.8-1.5,3.2-4.3,3.2c-1.6,0.1-3.2-0.5-4.4-1.6L805.4,209.2z"/>
		<path class="st0" d="M816,209.7v-6.5h-1.7v-1.7h1.7v-2.9h2v2.9h2.1v1.7H818v6c0,0.7,0.3,1.3,1,1.3c0.4,0,0.8-0.1,1.1-0.4l0.5,1.5
			c-0.6,0.5-1.3,0.7-2.1,0.7c-1.3,0.1-2.4-0.8-2.5-2C816,210,816,209.8,816,209.7z"/>
		<path class="st0" d="M821.6,206.7c0.1-2.9,2.6-5.2,5.5-5.1s5.2,2.6,5.1,5.5c-0.1,2.9-2.5,5.1-5.3,5.1c-2.9,0.1-5.3-2.2-5.3-5.1
			C821.6,207,821.6,206.9,821.6,206.7z M830.2,206.7c0-2-1.2-3.8-3.3-3.8s-3.3,1.8-3.3,3.8s1.2,3.8,3.3,3.8S830.2,208.7,830.2,206.7
			L830.2,206.7z"/>
		<path class="st0" d="M834.8,212v-10.5h2v1.6c0.8-1.1,2.1-1.8,3.5-1.9v2c-0.2,0-0.5-0.1-0.7-0.1c-1.1,0.1-2.1,0.6-2.8,1.5v7.3
			H834.8z"/>
		<path class="st0" d="M841.8,198.4c0-0.7,0.6-1.3,1.3-1.3c0.7,0,1.3,0.6,1.3,1.3c0,0.7-0.6,1.3-1.2,1.3c0,0,0,0,0,0
			C842.4,199.7,841.8,199.1,841.8,198.4z M842.1,212v-10.5h2V212H842.1z"/>
		<path class="st0" d="M851.9,201.2c1.5-0.1,3,0.6,4,1.9l-1.3,1.2c-0.6-0.8-1.5-1.3-2.5-1.3c-2.1,0-3.4,1.6-3.4,3.8s1.3,3.8,3.4,3.8
			c1,0,2-0.5,2.5-1.3l1.3,1.2c-0.9,1.2-2.4,1.9-4,1.9c-3.1-0.1-5.4-2.7-5.3-5.8C846.8,203.6,849.1,201.3,851.9,201.2L851.9,201.2z"
			/>
		<path class="st0" d="M862.9,204.7c-0.1-4,3-7.4,7-7.5c0.1,0,0.3,0,0.4,0c2.3-0.1,4.5,1.1,5.8,3.1l-1.8,1c-0.9-1.3-2.3-2.1-3.9-2.1
			c-3.1,0.2-5.4,2.8-5.3,5.9c0.2,2.8,2.4,5.1,5.3,5.3c1.6,0,3.1-0.8,3.9-2.1l1.8,1c-1.2,2-3.4,3.1-5.8,3.1c-4,0.1-7.4-3.1-7.5-7.1
			C862.9,205,862.9,204.9,862.9,204.7z"/>
		<path class="st0" d="M878.2,212v-10.5h2v1.6c0.8-1.1,2.1-1.8,3.5-1.9v2c-0.2,0-0.5-0.1-0.7-0.1c-1.1,0.1-2.1,0.6-2.8,1.5v7.3
			H878.2z"/>
		<path class="st0" d="M892.8,212v-1.4c-1,1.1-2.3,1.7-3.8,1.7c-2.2,0-3.4-1.1-3.4-3.4v-7.4h2v6.8c0,1.8,0.9,2.3,2.2,2.3
			c1.1,0,2.2-0.6,2.9-1.5v-7.6h2V212H892.8z"/>
		<path class="st0" d="M897.5,198.4c0.1-0.7,0.7-1.2,1.4-1.2c0.6,0.1,1.1,0.5,1.2,1.2c-0.1,0.7-0.7,1.2-1.4,1.2
			C898.1,199.5,897.6,199.1,897.5,198.4z M897.8,212v-10.5h2V212H897.8z"/>
		<path class="st0" d="M903,209.2c0.9,0.9,2.2,1.5,3.5,1.5c1.5,0,2.3-0.6,2.3-1.5c0-1.1-1.2-1.4-2.5-1.7c-1.8-0.4-3.9-0.9-3.9-3.2
			c0-1.7,1.4-3.1,4-3.1c1.5,0,2.9,0.5,4,1.5l-0.9,1.4c-0.8-0.9-1.9-1.3-3.1-1.3c-1.3,0-2.2,0.5-2.2,1.4s1.1,1.2,2.4,1.5
			c1.8,0.4,4,0.9,4,3.3c0,1.8-1.5,3.2-4.3,3.2c-1.6,0.1-3.2-0.5-4.4-1.6L903,209.2z"/>
		<path class="st0" d="M917.8,201.2c3.2,0,5.1,2.5,5.1,5.7v0.5h-8.3c0.1,1.9,1.7,3.3,3.6,3.3c1.2,0,2.3-0.4,3.1-1.2l0.9,1.3
			c-1.1,1.1-2.7,1.6-4.2,1.6c-3.1-0.1-5.5-2.6-5.4-5.7C912.6,203.7,914.9,201.4,917.8,201.2L917.8,201.2z M914.5,206h6.5
			c0-1.7-1.4-3.1-3.1-3.2c0,0-0.1,0-0.1,0C916,202.8,914.6,204.2,914.5,206z"/>
		<path class="st0" d="M925.4,209.2c0.9,0.9,2.2,1.5,3.5,1.5c1.5,0,2.3-0.6,2.3-1.5c0-1.1-1.2-1.4-2.5-1.7c-1.8-0.4-3.9-0.9-3.9-3.2
			c0-1.7,1.4-3.1,4-3.1c1.5,0,2.9,0.5,4,1.5l-0.9,1.4c-0.8-0.9-1.9-1.3-3.1-1.3c-1.3,0-2.2,0.5-2.2,1.4s1.1,1.2,2.4,1.5
			c1.8,0.4,4,0.9,4,3.3c0,1.8-1.5,3.2-4.3,3.2c-1.6,0.1-3.2-0.5-4.4-1.6L925.4,209.2z"/>
		<g>
			<defs>
				<rect id="SVGID_1_" width="970" height="250"/>
			</defs>
			<clipPath id="SVGID_00000157272842899558146740000002879540239546026130_">
				<use xlink:href="#SVGID_1_"  style="overflow:visible;"/>
			</clipPath>
			<g style="clip-path:url(#SVGID_00000157272842899558146740000002879540239546026130_);">
				<path class="st0" d="M765,195.6c-3.9,5.4-7.8,10.8-11.7,16.3l-0.1,0.2c-0.3,0.3-0.5,0.3-0.8,0l-2.5-3.5c-3-4.1-5.9-8.3-8.9-12.4
					c-1.4-1.8-2.4-3.8-2.9-6c-2-8.1,2.9-16.4,11.1-18.4c0.5-0.1,0.9-0.2,1.4-0.3c8.2-1.3,15.9,4.3,17.3,12.5
					C768.5,188.1,767.5,192.3,765,195.6 M768.8,183.3c-1.5-7.4-7.9-12.9-15.5-13.1c-9.1-0.3-16.7,6.9-16.9,16c0,0.7,0,1.5,0.1,2.2
					c0.3,2.9,1.4,5.7,3.2,8.1c4.1,5.7,8.3,11.4,12.4,17.1c0.4,0.6,0.8,0.6,1.2,0c1.2-1.7,2.4-3.3,3.6-5c3.1-4.3,6.2-8.5,9.3-12.8
					c1.9-2.7,2.9-5.9,3-9.3C769.1,185.4,769,184.4,768.8,183.3"/>
				<path class="st0" d="M752.8,196.6c-5.6,0-10.1-4.5-10-10.1c0-5.6,4.5-10.1,10.1-10s10.1,4.5,10,10.1c0,0,0,0,0,0
					C762.8,192.2,758.3,196.6,752.8,196.6 M767.8,184c-1.4-8.3-9.3-13.8-17.6-12.4c-7.4,1.3-12.7,7.7-12.6,15.1
					c0,1.2,0.2,2.3,0.5,3.5c0.6,2.2,1.6,4.2,2.9,6c3,4.1,6,8.2,8.9,12.4l2.5,3.5c0.2,0.3,0.5,0.3,0.8,0l0.1-0.2
					c3.9-5.4,7.8-10.8,11.7-16.3C767.5,192.3,768.5,188.1,767.8,184"/>
				<path class="st0" d="M752.8,195.5c-5,0-9-4-9-9s4-9,9-9s9,4,9,9l0,0C761.8,191.5,757.8,195.5,752.8,195.5 M752.8,176.5
					c-5.6,0-10.1,4.5-10.1,10.1s4.5,10.1,10.1,10.1c5.6,0,10.1-4.5,10.1-10C762.9,181,758.4,176.5,752.8,176.5
					C752.8,176.5,752.8,176.5,752.8,176.5"/>
			</g>
		</g>
	</g>
</g>
</svg>
