<?xml version="1.0" encoding="utf-8"?>
<!-- Generator: Adobe Illustrator 26.0.3, SVG Export Plug-In . SVG Version: 6.00 Build 0)  -->
<svg version="1.1" id="Layer_1" xmlns="http://www.w3.org/2000/svg" xmlns:xlink="http://www.w3.org/1999/xlink" x="0px" y="0px"
	 viewBox="0 0 970 250" style="enable-background:new 0 0 970 250;" xml:space="preserve">
<style type="text/css">
	.st0{fill:#FFFFFF;}
	.st1{clip-path:url(#SVGID_00000091718452741354443290000015440966710991755967_);}
</style>
<g>
	<g>
		<path class="st0" d="M707.7,192.2l-3-11.2l-3,11.2h-2.3l-4.2-14.6h2.4l3,11.7l3.2-11.7h1.8l3.2,11.7l3-11.7h2.5l-4.2,14.6H707.7z"
			/>
		<path class="st0" d="M715.7,178.6c0-0.7,0.6-1.3,1.3-1.3c0.7,0,1.3,0.6,1.3,1.3c0,0,0,0,0,0c0,0.7-0.6,1.2-1.3,1.2c0,0,0,0,0,0
			C716.3,179.9,715.7,179.3,715.7,178.6z M716,192.2v-10.6h2v10.6H716z"/>
		<path class="st0" d="M728.2,192.2v-6.8c0-1.8-0.9-2.3-2.2-2.3c-1.2,0-2.2,0.6-2.9,1.5v7.5h-2v-10.6h2v1.5c0.9-1.1,2.3-1.7,3.7-1.8
			c2.2,0,3.4,1.2,3.4,3.4v7.4H728.2z"/>
		<path class="st0" d="M734.2,193.4c0.8,1,2.1,1.5,3.4,1.4c1.6,0,3.3-0.8,3.3-3v-1.4c-0.8,1.1-2.1,1.8-3.5,1.8c-2.7,0-4.7-2-4.7-5.4
			s2-5.4,4.7-5.4c1.4,0,2.7,0.7,3.5,1.8v-1.5h2v10.1c0,3.6-2.6,4.7-5.2,4.7c-1.6,0.1-3.2-0.5-4.3-1.6L734.2,193.4z M740.8,184.7
			c-0.7-1-1.8-1.5-2.9-1.6c-2,0-3.2,1.5-3.2,3.7s1.2,3.7,3.2,3.7c1.2,0,2.3-0.6,2.9-1.6V184.7z"/>
		<path class="st0" d="M746,189.4c0.9,0.9,2.2,1.5,3.5,1.5c1.5,0,2.3-0.6,2.3-1.5c0-1.1-1.2-1.4-2.6-1.7c-1.8-0.4-3.9-0.9-3.9-3.2
			c0-1.7,1.4-3.1,4-3.1c1.5,0,2.9,0.5,4,1.5l-0.9,1.4c-0.8-0.9-2-1.3-3.1-1.3c-1.3,0-2.2,0.5-2.2,1.4s1.1,1.2,2.5,1.5
			c1.8,0.4,4,0.9,4,3.3c0,1.8-1.5,3.2-4.3,3.2c-1.6,0.1-3.2-0.5-4.4-1.6L746,189.4z"/>
		<path class="st0" d="M708.5,212h-2.6c-0.4-0.4-0.9-0.9-1.4-1.4c-1.1,1.1-2.6,1.7-4.2,1.7c-2.5,0-4.6-1.4-4.6-4.1
			c0-2.3,1.5-3.4,3.2-4.3c-0.6-1-1-2.1-1.1-3.2c0.1-2,1.7-3.5,3.7-3.4c0,0,0.1,0,0.1,0c2,0,3.5,1.1,3.5,2.9c0,2.2-1.8,3.1-3.7,4.1
			c0.5,0.7,1.1,1.4,1.6,1.9s1.1,1.2,1.6,1.8c0.6-1,1.1-2.1,1.5-3.2l1.6,0.7c-0.5,1.3-1.2,2.5-2,3.7C706.5,210.1,707.4,211,708.5,212
			z M703.3,209.4c-0.8-0.8-1.5-1.6-1.9-2.1c-0.6-0.7-1.2-1.4-1.7-2.2c-1.1,0.5-1.8,1.6-1.9,2.9c0,1.4,1.1,2.6,2.6,2.7
			c0.1,0,0.1,0,0.2,0C701.6,210.6,702.6,210.2,703.3,209.4z M700.6,203c1.4-0.7,2.7-1.4,2.7-2.8c0-0.8-0.6-1.5-1.4-1.5
			c-0.1,0-0.1,0-0.2,0c-1,0-1.9,0.8-1.9,1.9c0,0,0,0.1,0,0.1C699.9,201.5,700.1,202.3,700.6,203z"/>
		<path class="st0" d="M727.3,212l-3-11.2l-3,11.2h-2.3l-4.2-14.6h2.4l3,11.7l3.2-11.7h1.8l3.2,11.7l3-11.7h2.5l-4.2,14.6H727.3z"/>
		<path class="st0" d="M741.2,212v-1.1c-0.9,0.9-2.1,1.5-3.5,1.4c-1.9,0.1-3.6-1.4-3.7-3.3c0-0.1,0-0.1,0-0.2c0-1.9,1.5-3.4,3.4-3.5
			c0.1,0,0.2,0,0.3,0c1.3-0.1,2.6,0.4,3.5,1.4V205c0-1.3-1.1-2.1-2.6-2.1c-1.2,0-2.3,0.5-3.2,1.4l-0.9-1.4c1.2-1.2,2.7-1.8,4.4-1.8
			c2.3,0,4.2,1,4.2,3.7v7.1H741.2z M741.2,207.9c-0.7-0.8-1.7-1.2-2.7-1.2c-1.2-0.2-2.2,0.6-2.4,1.8c-0.2,1.2,0.6,2.2,1.8,2.4
			c0.2,0,0.4,0,0.6,0c1,0,2-0.4,2.7-1.2V207.9z"/>
		<path class="st0" d="M746.7,209.7v-6.5H745v-1.7h1.7v-2.9h2v2.9h2.1v1.7h-2.1v6c0,0.7,0.3,1.3,1,1.3c0.4,0,0.8-0.1,1.1-0.4
			l0.5,1.5c-0.6,0.5-1.3,0.7-2.1,0.7c-1.3,0.1-2.4-0.8-2.5-2C746.7,210,746.7,209.9,746.7,209.7z"/>
		<path class="st0" d="M757.6,201.2c3.2,0,5.1,2.5,5.1,5.7v0.5h-8.3c0.1,1.9,1.7,3.3,3.6,3.3c1.2,0,2.3-0.4,3.1-1.2l0.9,1.3
			c-1.1,1.1-2.7,1.6-4.2,1.6c-3.1-0.1-5.5-2.6-5.4-5.7C752.5,203.7,754.8,201.4,757.6,201.2L757.6,201.2z M754.4,206h6.4
			c0-1.7-1.4-3.1-3.1-3.2c0,0-0.1,0-0.1,0C755.9,202.8,754.5,204.2,754.4,206z"/>
		<path class="st0" d="M765.2,212v-10.5h2v1.6c0.8-1.1,2.1-1.8,3.5-1.9v2c-0.2,0-0.5-0.1-0.7-0.1c-1.1,0.1-2.1,0.6-2.8,1.5v7.3
			H765.2z"/>
		<g>
			<defs>
				<rect id="SVGID_1_" width="970" height="250"/>
			</defs>
			<clipPath id="SVGID_00000027578543985377784800000005095494586533758616_">
				<use xlink:href="#SVGID_1_"  style="overflow:visible;"/>
			</clipPath>
			<g style="clip-path:url(#SVGID_00000027578543985377784800000005095494586533758616_);">
				<path class="st0" d="M677,195.6c-3.9,5.4-7.8,10.8-11.7,16.3l-0.1,0.2c-0.3,0.3-0.5,0.3-0.8,0c-0.8-1.2-1.7-2.3-2.5-3.5
					c-3-4.1-5.9-8.3-8.9-12.4c-1.4-1.8-2.4-3.8-3-6c-0.3-1.1-0.4-2.3-0.5-3.5c0-7.6,5.5-14.1,13-15.2c8.2-1.2,15.8,4.4,17.2,12.5
					C680.5,188.1,679.5,192.3,677,195.6 M680.8,183.3c-1.5-7.4-7.9-12.9-15.4-13.1c-9.1-0.3-16.7,6.9-16.9,16c0,0.7,0,1.4,0.1,2.2
					c0.3,2.9,1.4,5.7,3.2,8.1c4.1,5.7,8.3,11.4,12.4,17.1c0.4,0.6,0.8,0.6,1.3,0l3.6-5c3.1-4.3,6.2-8.5,9.2-12.8
					c1.9-2.7,3-5.9,3-9.3C681.1,185.4,681,184.4,680.8,183.3"/>
				<path class="st0" d="M664.7,196.6c-5.6,0-10.1-4.5-10-10.1c0-5.6,4.5-10.1,10.1-10s10.1,4.5,10,10.1c0,0,0,0,0,0
					C674.8,192.2,670.2,196.6,664.7,196.6 M679.7,184c-1.4-8.2-9.1-13.7-17.3-12.5c-7.5,1.2-13,7.6-13,15.2c0,1.2,0.2,2.3,0.5,3.5
					c0.6,2.2,1.6,4.2,3,6c3,4.1,6,8.2,8.9,12.4c0.9,1.2,1.7,2.3,2.5,3.5c0.2,0.3,0.5,0.3,0.8,0l0.1-0.2c3.9-5.4,7.8-10.8,11.7-16.3
					C679.4,192.3,680.4,188.1,679.7,184"/>
				<path class="st0" d="M664.7,195.5c-5,0-9-4-9-9s4-9,9-9s9,4,9,9l0,0C673.7,191.5,669.7,195.5,664.7,195.5 M664.7,176.5
					c-5.6,0-10.1,4.5-10.1,10.1s4.5,10.1,10.1,10.1c5.6,0,10.1-4.5,10.1-10C674.8,181,670.3,176.5,664.7,176.5
					C664.7,176.5,664.7,176.5,664.7,176.5"/>
			</g>
		</g>
	</g>
</g>
</svg>
