<?xml version="1.0" encoding="utf-8"?>
<!-- Generator: Adobe Illustrator 26.0.3, SVG Export Plug-In . SVG Version: 6.00 Build 0)  -->
<svg version="1.1" id="Layer_1" xmlns="http://www.w3.org/2000/svg" xmlns:xlink="http://www.w3.org/1999/xlink" x="0px" y="0px"
	 viewBox="0 0 970 250" style="enable-background:new 0 0 970 250;" xml:space="preserve">
<style type="text/css">
	.st0{clip-path:url(#SVGID_00000016793336317657195890000008449569345423589815_);}
	.st1{fill:#FFFFFF;}
</style>
<g>
	<g>
		<g>
			<defs>
				<rect id="SVGID_1_" x="796.8" y="153" width="137.2" height="61"/>
			</defs>
			<clipPath id="SVGID_00000054235843227975424740000016607468931581320372_">
				<use xlink:href="#SVGID_1_"  style="overflow:visible;"/>
			</clipPath>
			<g style="clip-path:url(#SVGID_00000054235843227975424740000016607468931581320372_);">
				<path class="st1" d="M810.6,153.6h6.5v60h-6.5V153.6z M927,153.6h-7.7v60h8c4.5,0,6.7-2.2,6.7-6.6v-47
					C934.2,155.6,932,153.7,927,153.6 M928,205.3c0,1.4-0.4,2.1-1.5,2.1h-0.6v-47.7h0.6c1.2,0,1.5,0.4,1.5,2.1V205.3z M796.8,213.7
					h6.6v-26.9l5.1-4.1v-7.9l-5.1,4.2v-19.3h5.1v-6.1h-11.7V213.7z M861,153.7h-7.7v60h8c4.5,0,6.7-2.2,6.7-6.6V160
					C868.2,155.6,866,153.7,861,153.7 M862.1,205.3c0,1.4-0.4,2.1-1.5,2.1h-0.6v-47.7h0.6c1.2,0,1.5,0.4,1.5,2.1V205.3z M827.1,153
					c-5.1,0-7.6,3.1-7.6,10v42.4c0,6,2.3,8.6,7.3,8.6c2.5,0.1,4.8-1,6.4-2.9c0.9-1,1.2-2.6,1.2-5.1v-44.6
					C834.4,155.9,831.9,153,827.1,153 M828.3,205.9c0,1.5-0.3,2.1-1.2,2.1s-1.3-0.6-1.3-2v-44.5c0-1.7,0.3-2.1,1.3-2.1
					s1.2,0.4,1.2,2.2V205.9z M911.3,188.3l-4.2-34.7h-6.9v53.9l-9.2-53.9h-1.8l-8.1,53.8h-4v-53.8h-6.8v60h16l3.9-32.6l5.2,32.6
					h10.9v-30.1l3.7,30.1h7.2v-60h-5.8L911.3,188.3z M848.6,185.6c1.5-0.9,2.5-3.1,2.5-5.4v-19.9c0-4.2-2.5-6.6-7.2-6.6h-7.3v60h6.4
					v-24.9h0.6c0.7,0,1.2,0.2,1.2,0.6v24.4h6.5v-22.4C851.3,188.1,850.5,186.5,848.6,185.6 M844.9,181.1c0,1.4-0.2,1.7-1,1.7
					c-0.2,0-0.5,0-0.7-0.1v-22.9h0.6c1,0,1.3,0.3,1.3,1.9L844.9,181.1z"/>
			</g>
		</g>
	</g>
</g>
</svg>
