<svg width="198" height="32" viewBox="0 0 198 32" fill="none" xmlns="http://www.w3.org/2000/svg">
<path d="M16 0.799805H182C190.395 0.799807 197.2 7.60527 197.2 16C197.2 24.3947 190.395 31.2002 182 31.2002H16C7.60527 31.2002 0.799805 24.3947 0.799805 16C0.799805 7.73652 7.39413 1.01291 15.6074 0.804688L16 0.799805Z" stroke="white" stroke-width="1.6"/>
<path d="M17.9659 15.1847L16.5597 15.3381C16.5199 15.196 16.4503 15.0625 16.3509 14.9375C16.2543 14.8125 16.1236 14.7116 15.9588 14.6349C15.794 14.5582 15.5923 14.5199 15.3537 14.5199C15.0327 14.5199 14.7628 14.5895 14.544 14.7287C14.3281 14.8679 14.2216 15.0483 14.2244 15.2699C14.2216 15.4602 14.2912 15.6151 14.4332 15.7344C14.5781 15.8537 14.8168 15.9517 15.1491 16.0284L16.2656 16.267C16.8849 16.4006 17.3452 16.6122 17.6463 16.902C17.9503 17.1918 18.1037 17.571 18.1065 18.0398C18.1037 18.4517 17.983 18.8153 17.7443 19.1307C17.5085 19.4432 17.1804 19.6875 16.7599 19.8636C16.3395 20.0398 15.8565 20.1278 15.3111 20.1278C14.5099 20.1278 13.8651 19.9602 13.3764 19.625C12.8878 19.2869 12.5966 18.8168 12.5028 18.2145L14.0071 18.0696C14.0753 18.3651 14.2202 18.5881 14.4418 18.7386C14.6634 18.8892 14.9517 18.9645 15.3068 18.9645C15.6733 18.9645 15.9673 18.8892 16.1889 18.7386C16.4134 18.5881 16.5256 18.402 16.5256 18.1804C16.5256 17.9929 16.4531 17.8381 16.3082 17.7159C16.1662 17.5937 15.9446 17.5 15.6435 17.4347L14.527 17.2003C13.8991 17.0696 13.4347 16.8494 13.1335 16.5398C12.8324 16.2273 12.6832 15.8324 12.6861 15.3551C12.6832 14.9517 12.7926 14.6023 13.0142 14.3068C13.2386 14.0085 13.5497 13.7784 13.9474 13.6165C14.348 13.4517 14.8097 13.3693 15.3324 13.3693C16.0994 13.3693 16.7031 13.5327 17.1435 13.8594C17.5866 14.1861 17.8608 14.6278 17.9659 15.1847ZM22.2763 20.1278C21.62 20.1278 21.0533 19.9915 20.576 19.7188C20.1016 19.4432 19.7365 19.054 19.4808 18.5511C19.2251 18.0455 19.0973 17.4503 19.0973 16.7656C19.0973 16.0923 19.2251 15.5014 19.4808 14.9929C19.7393 14.4815 20.1001 14.0838 20.5632 13.7997C21.0263 13.5128 21.5703 13.3693 22.1953 13.3693C22.5987 13.3693 22.9794 13.4347 23.3374 13.5653C23.6982 13.6932 24.0163 13.892 24.2919 14.1619C24.5703 14.4318 24.7891 14.7756 24.9482 15.1932C25.1072 15.608 25.1868 16.1023 25.1868 16.6761V17.1491H19.8217V16.1094H23.7081C23.7053 15.8139 23.6413 15.5511 23.5163 15.321C23.3913 15.0881 23.2166 14.9048 22.9922 14.7713C22.7706 14.6378 22.5121 14.571 22.2166 14.571C21.9013 14.571 21.6243 14.6477 21.3857 14.8011C21.147 14.9517 20.9609 15.1506 20.8274 15.3977C20.6967 15.642 20.63 15.9105 20.6271 16.2031V17.1108C20.6271 17.4915 20.6967 17.8182 20.8359 18.0909C20.9751 18.3608 21.1697 18.5682 21.4197 18.7131C21.6697 18.8551 21.9624 18.9261 22.2976 18.9261C22.522 18.9261 22.7251 18.8949 22.907 18.8324C23.0888 18.767 23.2464 18.6719 23.38 18.5469C23.5135 18.4219 23.6143 18.267 23.6825 18.0824L25.1229 18.2443C25.032 18.625 24.8587 18.9574 24.603 19.2415C24.3501 19.5227 24.0263 19.7415 23.6314 19.8977C23.2365 20.0511 22.7848 20.1278 22.2763 20.1278ZM29.3896 20.1278C28.7333 20.1278 28.1665 19.9915 27.6893 19.7188C27.2148 19.4432 26.8498 19.054 26.5941 18.5511C26.3384 18.0455 26.2106 17.4503 26.2106 16.7656C26.2106 16.0923 26.3384 15.5014 26.5941 14.9929C26.8526 14.4815 27.2134 14.0838 27.6765 13.7997C28.1396 13.5128 28.6836 13.3693 29.3086 13.3693C29.712 13.3693 30.0927 13.4347 30.4506 13.5653C30.8114 13.6932 31.1296 13.892 31.4052 14.1619C31.6836 14.4318 31.9023 14.7756 32.0614 15.1932C32.2205 15.608 32.3001 16.1023 32.3001 16.6761V17.1491H26.935V16.1094H30.8214C30.8185 15.8139 30.7546 15.5511 30.6296 15.321C30.5046 15.0881 30.3299 14.9048 30.1055 14.7713C29.8839 14.6378 29.6254 14.571 29.3299 14.571C29.0146 14.571 28.7376 14.6477 28.4989 14.8011C28.2603 14.9517 28.0742 15.1506 27.9407 15.3977C27.81 15.642 27.7433 15.9105 27.7404 16.2031V17.1108C27.7404 17.4915 27.81 17.8182 27.9492 18.0909C28.0884 18.3608 28.283 18.5682 28.533 18.7131C28.783 18.8551 29.0756 18.9261 29.4109 18.9261C29.6353 18.9261 29.8384 18.8949 30.0202 18.8324C30.2021 18.767 30.3597 18.6719 30.4933 18.5469C30.6268 18.4219 30.7276 18.267 30.7958 18.0824L32.2362 18.2443C32.1452 18.625 31.9719 18.9574 31.7163 19.2415C31.4634 19.5227 31.1396 19.7415 30.7447 19.8977C30.3498 20.0511 29.8981 20.1278 29.3896 20.1278ZM38.1243 16.1648V20H36.5817V11.2727H38.0902V14.5668H38.1669C38.3203 14.1974 38.5575 13.9062 38.8786 13.6932C39.2024 13.4773 39.6143 13.3693 40.1143 13.3693C40.5689 13.3693 40.9652 13.4645 41.3033 13.6548C41.6413 13.8452 41.9027 14.1236 42.0874 14.4901C42.2749 14.8565 42.3686 15.304 42.3686 15.8324V20H40.826V16.071C40.826 15.6307 40.7124 15.2884 40.4851 15.044C40.2607 14.7969 39.9453 14.6733 39.5391 14.6733C39.2663 14.6733 39.022 14.733 38.8061 14.8523C38.593 14.9687 38.4254 15.1378 38.3033 15.3594C38.1839 15.581 38.1243 15.8494 38.1243 16.1648ZM46.7962 20.1278C46.157 20.1278 45.603 19.9872 45.1342 19.706C44.6655 19.4247 44.3018 19.0312 44.0433 18.5256C43.7876 18.0199 43.6598 17.429 43.6598 16.7528C43.6598 16.0767 43.7876 15.4844 44.0433 14.9759C44.3018 14.4673 44.6655 14.0724 45.1342 13.7912C45.603 13.5099 46.157 13.3693 46.7962 13.3693C47.4354 13.3693 47.9893 13.5099 48.4581 13.7912C48.9268 14.0724 49.2891 14.4673 49.5447 14.9759C49.8033 15.4844 49.9325 16.0767 49.9325 16.7528C49.9325 17.429 49.8033 18.0199 49.5447 18.5256C49.2891 19.0312 48.9268 19.4247 48.4581 19.706C47.9893 19.9872 47.4354 20.1278 46.7962 20.1278ZM46.8047 18.892C47.1513 18.892 47.4411 18.7969 47.674 18.6065C47.907 18.4134 48.0803 18.1548 48.1939 17.831C48.3104 17.5071 48.3686 17.1463 48.3686 16.7486C48.3686 16.348 48.3104 15.9858 48.1939 15.6619C48.0803 15.3352 47.907 15.0753 47.674 14.8821C47.4411 14.6889 47.1513 14.5923 46.8047 14.5923C46.4496 14.5923 46.1541 14.6889 45.9183 14.8821C45.6854 15.0753 45.5107 15.3352 45.3942 15.6619C45.2805 15.9858 45.2237 16.348 45.2237 16.7486C45.2237 17.1463 45.2805 17.5071 45.3942 17.831C45.5107 18.1548 45.6854 18.4134 45.9183 18.6065C46.1541 18.7969 46.4496 18.892 46.8047 18.892ZM52.4052 20L50.5558 13.4545H52.1282L53.2788 18.0568H53.3384L54.5146 13.4545H56.07L57.2461 18.0312H57.31L58.4435 13.4545H60.0202L58.1665 20H56.56L55.3327 15.5767H55.2433L54.016 20H52.4052ZM64.0739 20V13.4545H65.5483V14.5668H65.625C65.7614 14.1918 65.9872 13.8991 66.3026 13.6889C66.6179 13.4759 66.9943 13.3693 67.4318 13.3693C67.875 13.3693 68.2486 13.4773 68.5526 13.6932C68.8594 13.9062 69.0753 14.1974 69.2003 14.5668H69.2685C69.4134 14.2031 69.6577 13.9134 70.0014 13.6974C70.348 13.4787 70.7585 13.3693 71.233 13.3693C71.8352 13.3693 72.3267 13.5597 72.7074 13.9403C73.0881 14.321 73.2784 14.8764 73.2784 15.6065V20H71.7315V15.8452C71.7315 15.4389 71.6236 15.142 71.4077 14.9545C71.1918 14.7642 70.9276 14.669 70.6151 14.669C70.2429 14.669 69.9517 14.7855 69.7415 15.0185C69.5341 15.2486 69.4304 15.5483 69.4304 15.9176V20H67.9176V15.7812C67.9176 15.4432 67.8153 15.1733 67.6108 14.9716C67.4091 14.7699 67.1449 14.669 66.8182 14.669C66.5966 14.669 66.3949 14.7259 66.2131 14.8395C66.0313 14.9503 65.8864 15.108 65.7784 15.3125C65.6705 15.5142 65.6165 15.75 65.6165 16.0199V20H64.0739ZM79.0153 17.2472V13.4545H80.5579V20H79.0621V18.8366H78.994C78.8462 19.2031 78.6033 19.5028 78.2653 19.7358C77.93 19.9687 77.5167 20.0852 77.0252 20.0852C76.5962 20.0852 76.217 19.9901 75.8874 19.7997C75.5607 19.6065 75.305 19.3267 75.1204 18.9602C74.9357 18.5909 74.8434 18.1449 74.8434 17.6222V13.4545H76.386V17.3835C76.386 17.7983 76.4996 18.1278 76.7269 18.3722C76.9542 18.6165 77.2525 18.7386 77.6218 18.7386C77.8491 18.7386 78.0692 18.6832 78.2823 18.5724C78.4954 18.4616 78.6701 18.2969 78.8065 18.0781C78.9457 17.8565 79.0153 17.5795 79.0153 17.2472ZM84.9993 20.1278C84.3459 20.1278 83.7848 19.9844 83.3161 19.6974C82.8501 19.4105 82.4908 19.0142 82.2379 18.5085C81.9879 18 81.8629 17.4148 81.8629 16.7528C81.8629 16.0881 81.9908 15.5014 82.2464 14.9929C82.5021 14.4815 82.8629 14.0838 83.3288 13.7997C83.7976 13.5128 84.3516 13.3693 84.9908 13.3693C85.522 13.3693 85.9922 13.4673 86.4013 13.6634C86.8132 13.8565 87.1413 14.1307 87.3857 14.4858C87.63 14.8381 87.7692 15.25 87.8033 15.7216H86.3288C86.2692 15.4062 86.1271 15.1435 85.9027 14.9332C85.6811 14.7202 85.3842 14.6136 85.0121 14.6136C84.6967 14.6136 84.4197 14.6989 84.1811 14.8693C83.9425 15.0369 83.7564 15.2784 83.6229 15.5938C83.4922 15.9091 83.4268 16.2869 83.4268 16.7273C83.4268 17.1733 83.4922 17.5568 83.6229 17.8778C83.7536 18.196 83.9368 18.4418 84.1726 18.6151C84.4112 18.7855 84.6911 18.8707 85.0121 18.8707C85.2393 18.8707 85.4425 18.8281 85.6214 18.7429C85.8033 18.6548 85.9553 18.5284 86.0774 18.3636C86.1996 18.1989 86.2834 17.9986 86.3288 17.7628H87.8033C87.7663 18.2259 87.63 18.6364 87.3942 18.9943C87.1584 19.3494 86.8374 19.6278 86.4311 19.8295C86.0249 20.0284 85.5476 20.1278 84.9993 20.1278ZM90.6126 16.1648V20H89.07V11.2727H90.5785V14.5668H90.6552C90.8086 14.1974 91.0458 13.9062 91.3668 13.6932C91.6907 13.4773 92.1026 13.3693 92.6026 13.3693C93.0572 13.3693 93.4535 13.4645 93.7915 13.6548C94.1296 13.8452 94.391 14.1236 94.5756 14.4901C94.7631 14.8565 94.8569 15.304 94.8569 15.8324V20H93.3143V16.071C93.3143 15.6307 93.2006 15.2884 92.9734 15.044C92.7489 14.7969 92.4336 14.6733 92.0273 14.6733C91.7546 14.6733 91.5103 14.733 91.2944 14.8523C91.0813 14.9687 90.9137 15.1378 90.7915 15.3594C90.6722 15.581 90.6126 15.8494 90.6126 16.1648ZM100.365 22.4545C100.154 22.4545 99.9599 22.4375 99.7809 22.4034C99.6048 22.3722 99.4641 22.3352 99.359 22.2926L99.717 21.0909C99.9414 21.1563 100.142 21.1875 100.318 21.1847C100.494 21.1818 100.649 21.1264 100.782 21.0185C100.919 20.9134 101.034 20.7372 101.127 20.4901L101.26 20.1364L98.886 13.4545H100.522L102.031 18.3977H102.099L103.612 13.4545H105.252L102.632 20.7926C102.51 21.1392 102.348 21.4361 102.146 21.6832C101.944 21.9332 101.697 22.1236 101.404 22.2543C101.115 22.3878 100.768 22.4545 100.365 22.4545ZM108.952 20.1278C108.313 20.1278 107.759 19.9872 107.29 19.706C106.822 19.4247 106.458 19.0312 106.2 18.5256C105.944 18.0199 105.816 17.429 105.816 16.7528C105.816 16.0767 105.944 15.4844 106.2 14.9759C106.458 14.4673 106.822 14.0724 107.29 13.7912C107.759 13.5099 108.313 13.3693 108.952 13.3693C109.592 13.3693 110.146 13.5099 110.614 13.7912C111.083 14.0724 111.445 14.4673 111.701 14.9759C111.96 15.4844 112.089 16.0767 112.089 16.7528C112.089 17.429 111.96 18.0199 111.701 18.5256C111.445 19.0312 111.083 19.4247 110.614 19.706C110.146 19.9872 109.592 20.1278 108.952 20.1278ZM108.961 18.892C109.308 18.892 109.597 18.7969 109.83 18.6065C110.063 18.4134 110.237 18.1548 110.35 17.831C110.467 17.5071 110.525 17.1463 110.525 16.7486C110.525 16.348 110.467 15.9858 110.35 15.6619C110.237 15.3352 110.063 15.0753 109.83 14.8821C109.597 14.6889 109.308 14.5923 108.961 14.5923C108.606 14.5923 108.31 14.6889 108.075 14.8821C107.842 15.0753 107.667 15.3352 107.55 15.6619C107.437 15.9858 107.38 16.348 107.38 16.7486C107.38 17.1463 107.437 17.5071 107.55 17.831C107.667 18.1548 107.842 18.4134 108.075 18.6065C108.31 18.7969 108.606 18.892 108.961 18.892ZM117.57 17.2472V13.4545H119.113V20H117.617V18.8366H117.549C117.401 19.2031 117.158 19.5028 116.82 19.7358C116.485 19.9687 116.071 20.0852 115.58 20.0852C115.151 20.0852 114.772 19.9901 114.442 19.7997C114.115 19.6065 113.86 19.3267 113.675 18.9602C113.49 18.5909 113.398 18.1449 113.398 17.6222V13.4545H114.941V17.3835C114.941 17.7983 115.054 18.1278 115.282 18.3722C115.509 18.6165 115.807 18.7386 116.176 18.7386C116.404 18.7386 116.624 18.6832 116.837 18.5724C117.05 18.4616 117.225 18.2969 117.361 18.0781C117.5 17.8565 117.57 17.5795 117.57 17.2472ZM126.531 20.1278C125.877 20.1278 125.316 19.9844 124.847 19.6974C124.381 19.4105 124.022 19.0142 123.769 18.5085C123.519 18 123.394 17.4148 123.394 16.7528C123.394 16.0881 123.522 15.5014 123.778 14.9929C124.033 14.4815 124.394 14.0838 124.86 13.7997C125.329 13.5128 125.883 13.3693 126.522 13.3693C127.053 13.3693 127.523 13.4673 127.933 13.6634C128.344 13.8565 128.673 14.1307 128.917 14.4858C129.161 14.8381 129.3 15.25 129.335 15.7216H127.86C127.8 15.4062 127.658 15.1435 127.434 14.9332C127.212 14.7202 126.915 14.6136 126.543 14.6136C126.228 14.6136 125.951 14.6989 125.712 14.8693C125.474 15.0369 125.288 15.2784 125.154 15.5938C125.023 15.9091 124.958 16.2869 124.958 16.7273C124.958 17.1733 125.023 17.5568 125.154 17.8778C125.285 18.196 125.468 18.4418 125.704 18.6151C125.942 18.7855 126.222 18.8707 126.543 18.8707C126.771 18.8707 126.974 18.8281 127.153 18.7429C127.335 18.6548 127.487 18.5284 127.609 18.3636C127.731 18.1989 127.815 17.9986 127.86 17.7628H129.335C129.298 18.2259 129.161 18.6364 128.925 18.9943C128.69 19.3494 128.369 19.6278 127.962 19.8295C127.556 20.0284 127.079 20.1278 126.531 20.1278ZM133.456 20.1278C132.817 20.1278 132.263 19.9872 131.794 19.706C131.326 19.4247 130.962 19.0312 130.703 18.5256C130.448 18.0199 130.32 17.429 130.32 16.7528C130.32 16.0767 130.448 15.4844 130.703 14.9759C130.962 14.4673 131.326 14.0724 131.794 13.7912C132.263 13.5099 132.817 13.3693 133.456 13.3693C134.096 13.3693 134.65 13.5099 135.118 13.7912C135.587 14.0724 135.949 14.4673 136.205 14.9759C136.463 15.4844 136.593 16.0767 136.593 16.7528C136.593 17.429 136.463 18.0199 136.205 18.5256C135.949 19.0312 135.587 19.4247 135.118 19.706C134.65 19.9872 134.096 20.1278 133.456 20.1278ZM133.465 18.892C133.811 18.892 134.101 18.7969 134.334 18.6065C134.567 18.4134 134.74 18.1548 134.854 17.831C134.971 17.5071 135.029 17.1463 135.029 16.7486C135.029 16.348 134.971 15.9858 134.854 15.6619C134.74 15.3352 134.567 15.0753 134.334 14.8821C134.101 14.6889 133.811 14.5923 133.465 14.5923C133.11 14.5923 132.814 14.6889 132.578 14.8821C132.346 15.0753 132.171 15.3352 132.054 15.6619C131.941 15.9858 131.884 16.348 131.884 16.7486C131.884 17.1463 131.941 17.5071 132.054 17.831C132.171 18.1548 132.346 18.4134 132.578 18.6065C132.814 18.7969 133.11 18.892 133.465 18.892ZM142.074 17.2472V13.4545H143.616V20H142.121V18.8366H142.053C141.905 19.2031 141.662 19.5028 141.324 19.7358C140.989 19.9687 140.575 20.0852 140.084 20.0852C139.655 20.0852 139.276 19.9901 138.946 19.7997C138.619 19.6065 138.364 19.3267 138.179 18.9602C137.994 18.5909 137.902 18.1449 137.902 17.6222V13.4545H139.445V17.3835C139.445 17.7983 139.558 18.1278 139.786 18.3722C140.013 18.6165 140.311 18.7386 140.68 18.7386C140.908 18.7386 141.128 18.6832 141.341 18.5724C141.554 18.4616 141.729 18.2969 141.865 18.0781C142.004 17.8565 142.074 17.5795 142.074 17.2472ZM146.745 11.2727V20H145.203V11.2727H146.745ZM150.761 20.1151C150.246 20.1151 149.786 19.983 149.38 19.7188C148.974 19.4545 148.653 19.071 148.417 18.5682C148.181 18.0653 148.063 17.4545 148.063 16.7358C148.063 16.0085 148.183 15.3949 148.421 14.8949C148.663 14.392 148.988 14.0128 149.397 13.7571C149.806 13.4986 150.262 13.3693 150.765 13.3693C151.148 13.3693 151.464 13.4347 151.711 13.5653C151.958 13.6932 152.154 13.848 152.299 14.0298C152.444 14.2088 152.556 14.3778 152.636 14.5369H152.7V11.2727H154.246V20H152.729V18.9688H152.636C152.556 19.1278 152.441 19.2969 152.29 19.4759C152.14 19.652 151.941 19.8026 151.694 19.9276C151.447 20.0526 151.136 20.1151 150.761 20.1151ZM151.191 18.8494C151.518 18.8494 151.796 18.7614 152.026 18.5852C152.256 18.4062 152.431 18.1577 152.55 17.8395C152.67 17.5213 152.729 17.1506 152.729 16.7273C152.729 16.304 152.67 15.9361 152.55 15.6236C152.434 15.3111 152.261 15.0682 152.031 14.8949C151.803 14.7216 151.523 14.6349 151.191 14.6349C150.847 14.6349 150.56 14.7244 150.33 14.9034C150.1 15.0824 149.927 15.3295 149.81 15.6449C149.694 15.9602 149.636 16.321 149.636 16.7273C149.636 17.1364 149.694 17.5014 149.81 17.8224C149.93 18.1406 150.104 18.392 150.335 18.5767C150.567 18.7585 150.853 18.8494 151.191 18.8494ZM164.04 15.1847L162.634 15.3381C162.594 15.196 162.525 15.0625 162.425 14.9375C162.328 14.8125 162.198 14.7116 162.033 14.6349C161.868 14.5582 161.667 14.5199 161.428 14.5199C161.107 14.5199 160.837 14.5895 160.618 14.7287C160.402 14.8679 160.296 15.0483 160.299 15.2699C160.296 15.4602 160.365 15.6151 160.507 15.7344C160.652 15.8537 160.891 15.9517 161.223 16.0284L162.34 16.267C162.959 16.4006 163.419 16.6122 163.721 16.902C164.025 17.1918 164.178 17.571 164.181 18.0398C164.178 18.4517 164.057 18.8153 163.819 19.1307C163.583 19.4432 163.255 19.6875 162.834 19.8636C162.414 20.0398 161.931 20.1278 161.385 20.1278C160.584 20.1278 159.939 19.9602 159.451 19.625C158.962 19.2869 158.671 18.8168 158.577 18.2145L160.081 18.0696C160.15 18.3651 160.294 18.5881 160.516 18.7386C160.738 18.8892 161.026 18.9645 161.381 18.9645C161.748 18.9645 162.042 18.8892 162.263 18.7386C162.488 18.5881 162.6 18.402 162.6 18.1804C162.6 17.9929 162.527 17.8381 162.382 17.7159C162.24 17.5937 162.019 17.5 161.718 17.4347L160.601 17.2003C159.973 17.0696 159.509 16.8494 159.208 16.5398C158.907 16.2273 158.757 15.8324 158.76 15.3551C158.757 14.9517 158.867 14.6023 159.088 14.3068C159.313 14.0085 159.624 13.7784 160.022 13.6165C160.422 13.4517 160.884 13.3693 161.407 13.3693C162.174 13.3693 162.777 13.5327 163.218 13.8594C163.661 14.1861 163.935 14.6278 164.04 15.1847ZM167.336 20.1321C166.922 20.1321 166.548 20.0582 166.216 19.9105C165.886 19.7599 165.625 19.5384 165.431 19.2457C165.241 18.9531 165.146 18.5923 165.146 18.1634C165.146 17.794 165.214 17.4886 165.35 17.2472C165.487 17.0057 165.673 16.8125 165.909 16.6676C166.145 16.5227 166.41 16.4134 166.706 16.3395C167.004 16.2628 167.312 16.2074 167.63 16.1733C168.014 16.1335 168.325 16.098 168.564 16.0668C168.802 16.0327 168.975 15.9815 169.083 15.9134C169.194 15.8423 169.25 15.733 169.25 15.5852V15.5597C169.25 15.2386 169.154 14.9901 168.964 14.8139C168.774 14.6378 168.5 14.5497 168.142 14.5497C167.764 14.5497 167.464 14.6321 167.243 14.7969C167.024 14.9616 166.876 15.1562 166.799 15.3807L165.359 15.1761C165.473 14.7784 165.66 14.446 165.922 14.179C166.183 13.9091 166.502 13.7074 166.88 13.5739C167.258 13.4375 167.676 13.3693 168.133 13.3693C168.449 13.3693 168.762 13.4062 169.075 13.4801C169.387 13.554 169.673 13.6761 169.931 13.8466C170.19 14.0142 170.397 14.2429 170.554 14.5327C170.713 14.8224 170.792 15.1847 170.792 15.6193V20H169.309V19.1009H169.258C169.164 19.2827 169.032 19.4531 168.862 19.6122C168.694 19.7685 168.483 19.8949 168.227 19.9915C167.974 20.0852 167.677 20.1321 167.336 20.1321ZM167.737 18.9986C168.047 18.9986 168.315 18.9375 168.542 18.8153C168.77 18.6903 168.944 18.5256 169.066 18.321C169.191 18.1165 169.254 17.8935 169.254 17.652V16.8807C169.206 16.9205 169.123 16.9574 169.007 16.9915C168.893 17.0256 168.765 17.0554 168.623 17.081C168.481 17.1065 168.341 17.1293 168.201 17.1491C168.062 17.169 167.941 17.1861 167.839 17.2003C167.609 17.2315 167.403 17.2827 167.221 17.3537C167.039 17.4247 166.896 17.5241 166.791 17.652C166.686 17.777 166.633 17.9389 166.633 18.1378C166.633 18.4219 166.737 18.6364 166.944 18.7812C167.152 18.9261 167.416 18.9986 167.737 18.9986ZM177.956 13.4545L175.625 20H173.92L171.589 13.4545H173.234L174.738 18.3168H174.806L176.315 13.4545H177.956ZM181.698 20.1278C181.042 20.1278 180.475 19.9915 179.998 19.7188C179.523 19.4432 179.158 19.054 178.903 18.5511C178.647 18.0455 178.519 17.4503 178.519 16.7656C178.519 16.0923 178.647 15.5014 178.903 14.9929C179.161 14.4815 179.522 14.0838 179.985 13.7997C180.448 13.5128 180.992 13.3693 181.617 13.3693C182.021 13.3693 182.401 13.4347 182.759 13.5653C183.12 13.6932 183.438 13.892 183.714 14.1619C183.992 14.4318 184.211 14.7756 184.37 15.1932C184.529 15.608 184.609 16.1023 184.609 16.6761V17.1491H179.244V16.1094H183.13C183.127 15.8139 183.063 15.5511 182.938 15.321C182.813 15.0881 182.638 14.9048 182.414 14.7713C182.192 14.6378 181.934 14.571 181.638 14.571C181.323 14.571 181.046 14.6477 180.808 14.8011C180.569 14.9517 180.383 15.1506 180.249 15.3977C180.119 15.642 180.052 15.9105 180.049 16.2031V17.1108C180.049 17.4915 180.119 17.8182 180.258 18.0909C180.397 18.3608 180.592 18.5682 180.842 18.7131C181.092 18.8551 181.384 18.9261 181.719 18.9261C181.944 18.9261 182.147 18.8949 182.329 18.8324C182.511 18.767 182.668 18.6719 182.802 18.5469C182.935 18.4219 183.036 18.267 183.104 18.0824L184.545 18.2443C184.454 18.625 184.281 18.9574 184.025 19.2415C183.772 19.5227 183.448 19.7415 183.053 19.8977C182.658 20.0511 182.207 20.1278 181.698 20.1278Z" fill="white"/>
</svg>
