<svg width="300" height="250" viewBox="0 0 300 250" fill="none" xmlns="http://www.w3.org/2000/svg">
<rect width="300" height="250" fill="#171D21"/>
<g clip-path="url(#clip0_3_99)">
<path d="M136.384 56.4847V32H127.956V36.8724H130.371V57.2594C130.646 59.7386 132.31 61.1619 134.935 61.1619H138.821V56.4893H136.381L136.386 56.4847H136.384Z" fill="white"/>
<path d="M150.649 40.2615C144.148 40.2615 140.11 44.2255 140.11 50.9468C140.11 57.6682 144.15 61.5922 150.649 61.5922C157.149 61.5922 161.189 57.6728 161.189 50.9468C161.189 44.2208 157.149 40.2615 150.649 40.2615ZM154.658 52.3133C154.658 55.1675 153.199 56.8029 150.654 56.8029C148.109 56.8029 146.65 55.1675 146.65 52.3133V49.542C146.65 46.6878 148.109 45.0524 150.654 45.0524C153.199 45.0524 154.658 46.6878 154.658 49.542V52.3133Z" fill="white"/>
<path d="M211.351 54.1931C209.336 54.1931 207.702 55.8161 207.702 57.8173C207.702 59.8186 209.341 61.4416 211.351 61.4416C213.361 61.4416 215 59.8186 215 57.8173C215 55.8161 213.361 54.1931 211.351 54.1931Z" fill="white"/>
<path d="M181.753 56.4893V48.1971C181.753 43.0804 178.49 40.2615 172.567 40.2615C168.314 40.2615 164.992 41.7585 163.45 44.3638L163.359 44.5159L166.899 47.6392L167.039 47.447C168.314 45.7287 169.807 44.9632 171.884 44.9632C174.354 44.9632 175.41 45.9992 175.41 48.4261V48.8042H172.321C166.042 48.8042 162.859 50.993 162.859 55.3135C162.859 59.0423 165.343 61.3432 169.679 61.6261C169.858 61.6384 170.104 61.6476 170.394 61.6476C171.401 61.6476 174.304 61.4708 176.021 59.359C176.053 59.359 176.331 59.359 176.331 59.359C177.069 61.0143 179.051 61.1511 180.443 61.1511H183.707V56.4832H181.744L181.753 56.4878V56.4893ZM175.419 52.4132V54.6495C175.419 56.2987 174.052 57.3593 171.932 57.3593C170.123 57.3593 169.084 56.6461 169.084 55.4011V54.6096C169.084 52.7959 170.937 52.4132 172.492 52.4132H175.422H175.417H175.419Z" fill="white"/>
<path d="M97.9897 40.7411V53.8979C97.9897 55.7854 96.2243 56.6477 94.5819 56.6477C92.4258 56.6477 91.3361 55.3904 91.3361 52.9066V42.6316C91.2442 41.8369 90.5468 40.824 89.2827 40.738H85V53.6981C85 58.5659 87.5874 61.5938 92.1113 61.5938C95.0552 61.5938 96.942 60.8345 97.9851 59.382H98.2995V61.1204H104.324V40.7411H97.9897Z" fill="white"/>
<path d="M114.073 61.125V47.9681C114.073 46.0807 115.838 45.2184 117.481 45.2184C119.637 45.2184 120.727 46.4757 120.727 48.9595V59.2345C120.818 60.0291 121.516 61.042 122.78 61.1281H127.061V48.168C127.061 43.3002 124.474 40.2723 119.95 40.2723C117.006 40.2723 115.119 41.0316 114.076 42.4841H113.762V40.7457H107.737V61.1235H114.071L114.073 61.125Z" fill="white"/>
<path d="M192.581 61.125V47.9681C192.581 46.0807 194.347 45.2184 195.989 45.2184C198.145 45.2184 199.235 46.4757 199.235 48.9595V59.2345C199.327 60.0291 200.024 61.042 201.288 61.1281H205.569V48.168C205.569 43.3002 202.982 40.2723 198.458 40.2723C195.514 40.2723 193.627 41.0316 192.584 42.4841H192.27V40.7457H186.245V61.1235H192.58L192.581 61.125Z" fill="white"/>
</g>
<defs>
<clipPath id="clip0_3_99">
<rect width="130" height="29.6491" fill="white" transform="translate(85 32)"/>
</clipPath>
</defs>
</svg>
