<svg width="300" height="250" viewBox="0 0 300 250" fill="none" xmlns="http://www.w3.org/2000/svg">
<g clip-path="url(#clip0_3_78)">
<rect width="300" height="250" fill="white"/>
<rect x="15.5" y="92.5" width="269" height="30" rx="2.5" fill="white" stroke="#D2D2D2"/>
<path d="M15.7938 85V76.9522H17.2516V83.7779H20.7961V85H15.7938ZM24.6314 85.1179C24.042 85.1179 23.5311 84.9882 23.0989 84.7289C22.6666 84.4695 22.3313 84.1067 22.0929 83.6404C21.8571 83.1741 21.7392 82.6292 21.7392 82.0057C21.7392 81.3822 21.8571 80.836 22.0929 80.367C22.3313 79.8981 22.6666 79.534 23.0989 79.2746C23.5311 79.0153 24.042 78.8856 24.6314 78.8856C25.2208 78.8856 25.7317 79.0153 26.1639 79.2746C26.5962 79.534 26.9302 79.8981 27.166 80.367C27.4044 80.836 27.5236 81.3822 27.5236 82.0057C27.5236 82.6292 27.4044 83.1741 27.166 83.6404C26.9302 84.1067 26.5962 84.4695 26.1639 84.7289C25.7317 84.9882 25.2208 85.1179 24.6314 85.1179ZM24.6393 83.9783C24.9589 83.9783 25.2261 83.8905 25.4409 83.715C25.6557 83.5369 25.8155 83.2985 25.9203 82.9998C26.0277 82.7012 26.0814 82.3685 26.0814 82.0017C26.0814 81.6324 26.0277 81.2983 25.9203 80.9997C25.8155 80.6984 25.6557 80.4587 25.4409 80.2806C25.2261 80.1024 24.9589 80.0134 24.6393 80.0134C24.3118 80.0134 24.0393 80.1024 23.8219 80.2806C23.6071 80.4587 23.446 80.6984 23.3386 80.9997C23.2338 81.2983 23.1814 81.6324 23.1814 82.0017C23.1814 82.3685 23.2338 82.7012 23.3386 82.9998C23.446 83.2985 23.6071 83.5369 23.8219 83.715C24.0393 83.8905 24.3118 83.9783 24.6393 83.9783ZM30.4678 85.1218C30.0853 85.1218 29.7408 85.0537 29.4343 84.9175C29.1304 84.7786 28.8894 84.5743 28.7113 84.3045C28.5358 84.0346 28.448 83.7019 28.448 83.3064C28.448 82.9658 28.5109 82.6842 28.6366 82.4615C28.7624 82.2388 28.934 82.0607 29.1514 81.9271C29.3688 81.7935 29.6138 81.6926 29.8862 81.6245C30.1613 81.5538 30.4455 81.5027 30.7389 81.4712C31.0926 81.4346 31.3795 81.4018 31.5995 81.373C31.8196 81.3416 31.9794 81.2944 32.0789 81.2315C32.1811 81.166 32.2322 81.0652 32.2322 80.929V80.9054C32.2322 80.6094 32.1444 80.3801 31.9689 80.2177C31.7934 80.0553 31.5406 79.9741 31.2105 79.9741C30.8621 79.9741 30.5857 80.05 30.3814 80.202C30.1796 80.3539 30.0434 80.5334 29.9727 80.7403L28.6445 80.5517C28.7493 80.185 28.9222 79.8784 29.1632 79.6322C29.4042 79.3833 29.6989 79.1973 30.0473 79.0742C30.3958 78.9484 30.7809 78.8856 31.2026 78.8856C31.4934 78.8856 31.7829 78.9196 32.0711 78.9877C32.3592 79.0559 32.6225 79.1685 32.8609 79.3257C33.0993 79.4803 33.2906 79.6911 33.4346 79.9583C33.5813 80.2256 33.6547 80.5596 33.6547 80.9604V85H32.2872V84.1709H32.24C32.1536 84.3385 32.0318 84.4957 31.8746 84.6424C31.72 84.7865 31.5249 84.9031 31.2891 84.9921C31.0559 85.0786 30.7822 85.1218 30.4678 85.1218ZM30.8372 84.0765C31.1227 84.0765 31.3703 84.0202 31.5799 83.9076C31.7895 83.7923 31.9506 83.6404 32.0632 83.4517C32.1785 83.2631 32.2361 83.0575 32.2361 82.8348V82.1235C32.1916 82.1602 32.1156 82.1943 32.0082 82.2257C31.9034 82.2572 31.7855 82.2847 31.6545 82.3082C31.5236 82.3318 31.3939 82.3528 31.2655 82.3711C31.1371 82.3894 31.0258 82.4052 30.9315 82.4183C30.7193 82.4471 30.5294 82.4942 30.3617 82.5597C30.194 82.6252 30.0617 82.7169 29.9648 82.8348C29.8679 82.9501 29.8194 83.0994 29.8194 83.2828C29.8194 83.5447 29.915 83.7425 30.1063 83.8761C30.2975 84.0097 30.5412 84.0765 30.8372 84.0765ZM36.5076 81.4634V85H35.0851V78.9642H36.4447V79.9898H36.5154C36.6543 79.6518 36.8756 79.3833 37.1795 79.1842C37.486 78.9851 37.8646 78.8856 38.3152 78.8856C38.7317 78.8856 39.0945 78.9746 39.4037 79.1528C39.7154 79.3309 39.9564 79.589 40.1267 79.9269C40.2996 80.2649 40.3848 80.6748 40.3821 81.1569V85H38.9596V81.3769C38.9596 80.9735 38.8548 80.6578 38.6453 80.4299C38.4383 80.202 38.1514 80.088 37.7847 80.088C37.5358 80.088 37.3144 80.143 37.1206 80.2531C36.9293 80.3605 36.7787 80.5164 36.6687 80.7207C36.5613 80.925 36.5076 81.1726 36.5076 81.4634ZM46.3099 85.1218C45.9274 85.1218 45.5829 85.0537 45.2764 84.9175C44.9725 84.7786 44.7315 84.5743 44.5534 84.3045C44.3779 84.0346 44.2901 83.7019 44.2901 83.3064C44.2901 82.9658 44.353 82.6842 44.4787 82.4615C44.6045 82.2388 44.7761 82.0607 44.9935 81.9271C45.2109 81.7935 45.4559 81.6926 45.7283 81.6245C46.0034 81.5538 46.2876 81.5027 46.581 81.4712C46.9347 81.4346 47.2216 81.4018 47.4416 81.373C47.6617 81.3416 47.8215 81.2944 47.921 81.2315C48.0232 81.166 48.0743 81.0652 48.0743 80.929V80.9054C48.0743 80.6094 47.9865 80.3801 47.811 80.2177C47.6355 80.0553 47.3827 79.9741 47.0526 79.9741C46.7042 79.9741 46.4278 80.05 46.2235 80.202C46.0217 80.3539 45.8855 80.5334 45.8148 80.7403L44.4866 80.5517C44.5914 80.185 44.7643 79.8784 45.0053 79.6322C45.2463 79.3833 45.541 79.1973 45.8894 79.0742C46.2379 78.9484 46.623 78.8856 47.0447 78.8856C47.3355 78.8856 47.625 78.9196 47.9132 78.9877C48.2013 79.0559 48.4646 79.1685 48.703 79.3257C48.9414 79.4803 49.1327 79.6911 49.2767 79.9583C49.4234 80.2256 49.4968 80.5596 49.4968 80.9604V85H48.1293V84.1709H48.0821C47.9957 84.3385 47.8739 84.4957 47.7167 84.6424C47.5621 84.7865 47.367 84.9031 47.1312 84.9921C46.898 85.0786 46.6243 85.1218 46.3099 85.1218ZM46.6793 84.0765C46.9648 84.0765 47.2124 84.0202 47.422 83.9076C47.6316 83.7923 47.7927 83.6404 47.9053 83.4517C48.0206 83.2631 48.0782 83.0575 48.0782 82.8348V82.1235C48.0337 82.1602 47.9577 82.1943 47.8503 82.2257C47.7455 82.2572 47.6276 82.2847 47.4966 82.3082C47.3657 82.3318 47.236 82.3528 47.1076 82.3711C46.9792 82.3894 46.8679 82.4052 46.7736 82.4183C46.5614 82.4471 46.3715 82.4942 46.2038 82.5597C46.0361 82.6252 45.9038 82.7169 45.8069 82.8348C45.71 82.9501 45.6615 83.0994 45.6615 83.2828C45.6615 83.5447 45.7571 83.7425 45.9484 83.8761C46.1396 84.0097 46.3833 84.0765 46.6793 84.0765ZM50.9272 85V78.9642H52.2868V79.9898H52.3575C52.4833 79.644 52.6915 79.3742 52.9823 79.1803C53.2731 78.9838 53.6202 78.8856 54.0237 78.8856C54.4323 78.8856 54.7768 78.9851 55.0571 79.1842C55.3401 79.3807 55.5392 79.6492 55.6544 79.9898H55.7173C55.8509 79.6545 56.0762 79.3873 56.3932 79.1882C56.7128 78.9864 57.0914 78.8856 57.5289 78.8856C58.0842 78.8856 58.5374 79.0611 58.8885 79.4121C59.2395 79.7632 59.4151 80.2753 59.4151 80.9486V85H57.9886V81.1687C57.9886 80.794 57.8891 80.5203 57.69 80.3474C57.4909 80.1719 57.2472 80.0841 56.9591 80.0841C56.6159 80.0841 56.3474 80.1915 56.1535 80.4063C55.9623 80.6185 55.8666 80.8949 55.8666 81.2355V85H54.4716V81.1097C54.4716 80.798 54.3773 80.5491 54.1887 80.3631C54.0027 80.1771 53.7591 80.0841 53.4578 80.0841C53.2535 80.0841 53.0675 80.1365 52.8998 80.2413C52.7321 80.3434 52.5985 80.4888 52.499 80.6775C52.3994 80.8635 52.3497 81.0809 52.3497 81.3298V85H50.9272ZM63.491 85.1179C62.9016 85.1179 62.3907 84.9882 61.9585 84.7289C61.5262 84.4695 61.1909 84.1067 60.9525 83.6404C60.7167 83.1741 60.5988 82.6292 60.5988 82.0057C60.5988 81.3822 60.7167 80.836 60.9525 80.367C61.1909 79.8981 61.5262 79.534 61.9585 79.2746C62.3907 79.0153 62.9016 78.8856 63.491 78.8856C64.0804 78.8856 64.5913 79.0153 65.0235 79.2746C65.4558 79.534 65.7898 79.8981 66.0256 80.367C66.264 80.836 66.3832 81.3822 66.3832 82.0057C66.3832 82.6292 66.264 83.1741 66.0256 83.6404C65.7898 84.1067 65.4558 84.4695 65.0235 84.7289C64.5913 84.9882 64.0804 85.1179 63.491 85.1179ZM63.4989 83.9783C63.8185 83.9783 64.0857 83.8905 64.3005 83.715C64.5153 83.5369 64.6751 83.2985 64.7799 82.9998C64.8873 82.7012 64.941 82.3685 64.941 82.0017C64.941 81.6324 64.8873 81.2983 64.7799 80.9997C64.6751 80.6984 64.5153 80.4587 64.3005 80.2806C64.0857 80.1024 63.8185 80.0134 63.4989 80.0134C63.1714 80.0134 62.8989 80.1024 62.6815 80.2806C62.4667 80.4587 62.3056 80.6984 62.1982 80.9997C62.0934 81.2983 62.041 81.6324 62.041 82.0017C62.041 82.3685 62.0934 82.7012 62.1982 82.9998C62.3056 83.2985 62.4667 83.5369 62.6815 83.715C62.8989 83.8905 63.1714 83.9783 63.4989 83.9783ZM71.4376 82.4615V78.9642H72.8601V85H71.4808V83.9272H71.418C71.2817 84.2652 71.0577 84.5415 70.746 84.7564C70.4369 84.9712 70.0557 85.0786 69.6025 85.0786C69.2069 85.0786 68.8572 84.9908 68.5533 84.8153C68.252 84.6372 68.0162 84.3791 67.846 84.0412C67.6757 83.7006 67.5905 83.2893 67.5905 82.8073V78.9642H69.013V82.5872C69.013 82.9697 69.1178 83.2736 69.3274 83.4989C69.537 83.7242 69.8121 83.8368 70.1526 83.8368C70.3622 83.8368 70.5652 83.7858 70.7617 83.6836C70.9582 83.5814 71.1193 83.4295 71.245 83.2278C71.3734 83.0234 71.4376 82.768 71.4376 82.4615ZM75.7454 81.4634V85H74.3229V78.9642H75.6825V79.9898H75.7533C75.8921 79.6518 76.1135 79.3833 76.4174 79.1842C76.7239 78.9851 77.1024 78.8856 77.553 78.8856C77.9695 78.8856 78.3324 78.9746 78.6415 79.1528C78.9532 79.3309 79.1943 79.589 79.3645 79.9269C79.5374 80.2649 79.6226 80.6748 79.62 81.1569V85H78.1975V81.3769C78.1975 80.9735 78.0927 80.6578 77.8831 80.4299C77.6761 80.202 77.3893 80.088 77.0225 80.088C76.7736 80.088 76.5523 80.143 76.3584 80.2531C76.1672 80.3605 76.0165 80.5164 75.9065 80.7207C75.7991 80.925 75.7454 81.1726 75.7454 81.4634ZM84.08 78.9642V80.0644H80.6102V78.9642H84.08ZM81.4669 77.5181H82.8894V83.1845C82.8894 83.3758 82.9182 83.5225 82.9758 83.6246C83.0361 83.7242 83.1147 83.7923 83.2116 83.829C83.3085 83.8657 83.4159 83.884 83.5338 83.884C83.6229 83.884 83.7041 83.8775 83.7775 83.8644C83.8534 83.8513 83.9111 83.8395 83.9504 83.829L84.1901 84.9411C84.1141 84.9673 84.0054 84.9961 83.8639 85.0275C83.7251 85.0589 83.5548 85.0773 83.3531 85.0825C82.9968 85.093 82.6759 85.0393 82.3903 84.9214C82.1048 84.8009 81.8782 84.6149 81.7105 84.3634C81.5455 84.1119 81.4642 83.7975 81.4669 83.4203V77.5181Z" fill="#171D21"/>
<rect x="15.5" y="147.5" width="269" height="30" rx="2.5" fill="white" stroke="#D2D2D2"/>
<path d="M15.7938 140V131.952H17.2516V138.778H20.7961V140H15.7938ZM24.6314 140.118C24.042 140.118 23.5311 139.988 23.0989 139.729C22.6666 139.47 22.3313 139.107 22.0929 138.64C21.8571 138.174 21.7392 137.629 21.7392 137.006C21.7392 136.382 21.8571 135.836 22.0929 135.367C22.3313 134.898 22.6666 134.534 23.0989 134.275C23.5311 134.015 24.042 133.886 24.6314 133.886C25.2208 133.886 25.7317 134.015 26.1639 134.275C26.5962 134.534 26.9302 134.898 27.166 135.367C27.4044 135.836 27.5236 136.382 27.5236 137.006C27.5236 137.629 27.4044 138.174 27.166 138.64C26.9302 139.107 26.5962 139.47 26.1639 139.729C25.7317 139.988 25.2208 140.118 24.6314 140.118ZM24.6393 138.978C24.9589 138.978 25.2261 138.891 25.4409 138.715C25.6557 138.537 25.8155 138.298 25.9203 138C26.0277 137.701 26.0814 137.368 26.0814 137.002C26.0814 136.632 26.0277 136.298 25.9203 136C25.8155 135.698 25.6557 135.459 25.4409 135.281C25.2261 135.102 24.9589 135.013 24.6393 135.013C24.3118 135.013 24.0393 135.102 23.8219 135.281C23.6071 135.459 23.446 135.698 23.3386 136C23.2338 136.298 23.1814 136.632 23.1814 137.002C23.1814 137.368 23.2338 137.701 23.3386 138C23.446 138.298 23.6071 138.537 23.8219 138.715C24.0393 138.891 24.3118 138.978 24.6393 138.978ZM30.4678 140.122C30.0853 140.122 29.7408 140.054 29.4343 139.917C29.1304 139.779 28.8894 139.574 28.7113 139.304C28.5358 139.035 28.448 138.702 28.448 138.306C28.448 137.966 28.5109 137.684 28.6366 137.461C28.7624 137.239 28.934 137.061 29.1514 136.927C29.3688 136.793 29.6138 136.693 29.8862 136.624C30.1613 136.554 30.4455 136.503 30.7389 136.471C31.0926 136.435 31.3795 136.402 31.5995 136.373C31.8196 136.342 31.9794 136.294 32.0789 136.232C32.1811 136.166 32.2322 136.065 32.2322 135.929V135.905C32.2322 135.609 32.1444 135.38 31.9689 135.218C31.7934 135.055 31.5406 134.974 31.2105 134.974C30.8621 134.974 30.5857 135.05 30.3814 135.202C30.1796 135.354 30.0434 135.533 29.9727 135.74L28.6445 135.552C28.7493 135.185 28.9222 134.878 29.1632 134.632C29.4042 134.383 29.6989 134.197 30.0473 134.074C30.3958 133.948 30.7809 133.886 31.2026 133.886C31.4934 133.886 31.7829 133.92 32.0711 133.988C32.3592 134.056 32.6225 134.169 32.8609 134.326C33.0993 134.48 33.2906 134.691 33.4346 134.958C33.5813 135.226 33.6547 135.56 33.6547 135.96V140H32.2872V139.171H32.24C32.1536 139.339 32.0318 139.496 31.8746 139.642C31.72 139.786 31.5249 139.903 31.2891 139.992C31.0559 140.079 30.7822 140.122 30.4678 140.122ZM30.8372 139.077C31.1227 139.077 31.3703 139.02 31.5799 138.908C31.7895 138.792 31.9506 138.64 32.0632 138.452C32.1785 138.263 32.2361 138.057 32.2361 137.835V137.124C32.1916 137.16 32.1156 137.194 32.0082 137.226C31.9034 137.257 31.7855 137.285 31.6545 137.308C31.5236 137.332 31.3939 137.353 31.2655 137.371C31.1371 137.389 31.0258 137.405 30.9315 137.418C30.7193 137.447 30.5294 137.494 30.3617 137.56C30.194 137.625 30.0617 137.717 29.9648 137.835C29.8679 137.95 29.8194 138.099 29.8194 138.283C29.8194 138.545 29.915 138.743 30.1063 138.876C30.2975 139.01 30.5412 139.077 30.8372 139.077ZM36.5076 136.463V140H35.0851V133.964H36.4447V134.99H36.5154C36.6543 134.652 36.8756 134.383 37.1795 134.184C37.486 133.985 37.8646 133.886 38.3152 133.886C38.7317 133.886 39.0945 133.975 39.4037 134.153C39.7154 134.331 39.9564 134.589 40.1267 134.927C40.2996 135.265 40.3848 135.675 40.3821 136.157V140H38.9596V136.377C38.9596 135.973 38.8548 135.658 38.6453 135.43C38.4383 135.202 38.1514 135.088 37.7847 135.088C37.5358 135.088 37.3144 135.143 37.1206 135.253C36.9293 135.36 36.7787 135.516 36.6687 135.721C36.5613 135.925 36.5076 136.173 36.5076 136.463ZM47.587 133.964V135.064H44.1172V133.964H47.587ZM44.9738 132.518H46.3964V138.185C46.3964 138.376 46.4252 138.522 46.4828 138.625C46.5431 138.724 46.6217 138.792 46.7186 138.829C46.8155 138.866 46.9229 138.884 47.0408 138.884C47.1299 138.884 47.2111 138.877 47.2844 138.864C47.3604 138.851 47.418 138.839 47.4573 138.829L47.697 139.941C47.6211 139.967 47.5124 139.996 47.3709 140.028C47.232 140.059 47.0618 140.077 46.86 140.083C46.5038 140.093 46.1828 140.039 45.8973 139.921C45.6117 139.801 45.3851 139.615 45.2175 139.363C45.0524 139.112 44.9712 138.798 44.9738 138.42V132.518ZM51.384 140.118C50.7788 140.118 50.2562 139.992 49.8161 139.741C49.3786 139.487 49.0419 139.128 48.8062 138.664C48.5704 138.198 48.4525 137.649 48.4525 137.017C48.4525 136.397 48.5704 135.852 48.8062 135.383C49.0446 134.911 49.3773 134.544 49.8043 134.282C50.2313 134.018 50.733 133.886 51.3093 133.886C51.6813 133.886 52.0324 133.946 52.3624 134.066C52.6951 134.184 52.9886 134.368 53.2427 134.616C53.4994 134.865 53.7011 135.182 53.8478 135.567C53.9945 135.95 54.0679 136.406 54.0679 136.935V137.371H49.1205V136.412H52.7043C52.7017 136.14 52.6427 135.898 52.5275 135.685C52.4122 135.471 52.2511 135.302 52.0441 135.178C51.8398 135.055 51.6014 134.994 51.329 134.994C51.0382 134.994 50.7827 135.064 50.5627 135.206C50.3426 135.345 50.171 135.528 50.0479 135.756C49.9274 135.981 49.8658 136.229 49.8632 136.499V137.336C49.8632 137.687 49.9274 137.988 50.0558 138.24C50.1841 138.488 50.3636 138.68 50.5941 138.813C50.8247 138.944 51.0945 139.01 51.4036 139.01C51.6106 139.01 51.7979 138.981 51.9656 138.923C52.1332 138.863 52.2786 138.775 52.4017 138.66C52.5249 138.545 52.6179 138.402 52.6807 138.232L54.0089 138.381C53.9251 138.732 53.7653 139.039 53.5295 139.301C53.2964 139.56 52.9977 139.762 52.6336 139.906C52.2694 140.047 51.8529 140.118 51.384 140.118ZM55.2713 140V133.964H56.6506V134.97H56.7135C56.8235 134.622 57.0121 134.353 57.2793 134.165C57.5492 133.973 57.857 133.878 58.2028 133.878C58.2814 133.878 58.3691 133.882 58.4661 133.89C58.5656 133.895 58.6481 133.904 58.7136 133.917V135.226C58.6534 135.205 58.5577 135.186 58.4268 135.171C58.2984 135.152 58.174 135.143 58.0535 135.143C57.7941 135.143 57.5609 135.199 57.354 135.312C57.1496 135.422 56.9885 135.575 56.8706 135.772C56.7528 135.968 56.6938 136.195 56.6938 136.452V140H55.2713ZM59.6587 140V133.964H61.0183V134.99H61.0891C61.2148 134.644 61.4231 134.374 61.7139 134.18C62.0046 133.984 62.3518 133.886 62.7552 133.886C63.1639 133.886 63.5084 133.985 63.7887 134.184C64.0716 134.381 64.2707 134.649 64.386 134.99H64.4488C64.5824 134.654 64.8077 134.387 65.1247 134.188C65.4443 133.986 65.8229 133.886 66.2604 133.886C66.8158 133.886 67.269 134.061 67.62 134.412C67.9711 134.763 68.1466 135.275 68.1466 135.949V140H66.7201V136.169C66.7201 135.794 66.6206 135.52 66.4215 135.347C66.2224 135.172 65.9788 135.084 65.6906 135.084C65.3474 135.084 65.0789 135.192 64.885 135.406C64.6938 135.619 64.5982 135.895 64.5982 136.235V140H63.2032V136.11C63.2032 135.798 63.1089 135.549 62.9202 135.363C62.7342 135.177 62.4906 135.084 62.1893 135.084C61.985 135.084 61.799 135.136 61.6313 135.241C61.4637 135.343 61.3301 135.489 61.2305 135.677C61.131 135.863 61.0812 136.081 61.0812 136.33V140H59.6587Z" fill="#171D21"/>
<rect x="15.5" y="202.5" width="125" height="30" rx="2.5" fill="white" stroke="#D2D2D2"/>
<path d="M80.7314 224.059V216.51H81.7751V217.4H81.8645C81.9265 217.285 82.0158 217.153 82.1326 217.003C82.2494 216.853 82.4114 216.722 82.6187 216.61C82.826 216.495 83.1001 216.438 83.4408 216.438C83.8841 216.438 84.2797 216.55 84.6276 216.774C84.9755 216.998 85.2483 217.321 85.4461 217.743C85.6463 218.165 85.7464 218.672 85.7464 219.266C85.7464 219.859 85.6475 220.368 85.4497 220.792C85.2519 221.214 84.9802 221.539 84.6347 221.768C84.2892 221.994 83.8948 222.107 83.4516 222.107C83.118 222.107 82.8451 222.051 82.633 221.939C82.4233 221.827 82.2589 221.696 82.1397 221.546C82.0206 221.396 81.9288 221.262 81.8645 221.146H81.8002V224.059H80.7314ZM81.7787 219.255C81.7787 219.641 81.8347 219.979 81.9467 220.27C82.0587 220.561 82.2208 220.788 82.4328 220.953C82.6449 221.115 82.9047 221.196 83.2121 221.196C83.5314 221.196 83.7983 221.111 84.0128 220.942C84.2272 220.77 84.3893 220.538 84.4989 220.245C84.6109 219.952 84.6669 219.622 84.6669 219.255C84.6669 218.893 84.6121 218.567 84.5025 218.279C84.3952 217.991 84.2332 217.763 84.0163 217.596C83.8019 217.429 83.5338 217.346 83.2121 217.346C82.9023 217.346 82.6402 217.426 82.4257 217.586C82.2136 217.745 82.0528 217.968 81.9431 218.254C81.8335 218.54 81.7787 218.874 81.7787 219.255ZM87.648 222.068C87.4526 222.068 87.2846 221.999 87.144 221.861C87.0034 221.72 86.9331 221.551 86.9331 221.353C86.9331 221.158 87.0034 220.991 87.144 220.853C87.2846 220.712 87.4526 220.642 87.648 220.642C87.8434 220.642 88.0114 220.712 88.152 220.853C88.2926 220.991 88.3629 221.158 88.3629 221.353C88.3629 221.484 88.3295 221.604 88.2628 221.714C88.1985 221.821 88.1127 221.907 88.0054 221.971C87.8982 222.036 87.7791 222.068 87.648 222.068ZM91.3922 222.122C91.0443 222.122 90.7298 222.057 90.4486 221.929C90.1674 221.797 89.9446 221.608 89.7802 221.36C89.6181 221.112 89.5371 220.809 89.5371 220.449C89.5371 220.139 89.5967 219.884 89.7158 219.684C89.835 219.484 89.9958 219.325 90.1984 219.208C90.4009 219.092 90.6273 219.003 90.8775 218.944C91.1277 218.884 91.3827 218.839 91.6425 218.808C91.9713 218.77 92.2382 218.739 92.4431 218.715C92.6481 218.689 92.797 218.647 92.8899 218.59C92.9829 218.533 93.0293 218.44 93.0293 218.311V218.286C93.0293 217.974 92.9412 217.732 92.7648 217.561C92.5909 217.389 92.3311 217.303 91.9856 217.303C91.6258 217.303 91.3422 217.383 91.1349 217.543C90.9299 217.7 90.7882 217.875 90.7095 218.068L89.7051 217.839C89.8242 217.506 89.9982 217.236 90.227 217.031C90.4581 216.824 90.7238 216.674 91.0241 216.581C91.3243 216.486 91.6401 216.438 91.9713 216.438C92.1905 216.438 92.4229 216.464 92.6683 216.517C92.9162 216.567 93.1473 216.66 93.3618 216.796C93.5786 216.931 93.7562 217.126 93.8944 217.378C94.0326 217.628 94.1017 217.954 94.1017 218.354V222H93.0579V221.249H93.015C92.9459 221.388 92.8423 221.523 92.7041 221.657C92.5659 221.79 92.3883 221.901 92.1715 221.989C91.9546 222.077 91.6949 222.122 91.3922 222.122ZM91.6246 221.264C91.9201 221.264 92.1727 221.205 92.3824 221.089C92.5945 220.972 92.7553 220.819 92.8649 220.631C92.9769 220.44 93.0329 220.237 93.0329 220.02V219.312C92.9948 219.35 92.9209 219.386 92.8113 219.419C92.7041 219.45 92.5813 219.478 92.4431 219.501C92.3049 219.523 92.1703 219.543 92.0392 219.562C91.9082 219.579 91.7985 219.593 91.7104 219.605C91.5031 219.631 91.3136 219.675 91.142 219.737C90.9728 219.799 90.837 219.889 90.7345 220.005C90.6345 220.12 90.5844 220.272 90.5844 220.463C90.5844 220.727 90.6821 220.928 90.8775 221.063C91.0729 221.197 91.3219 221.264 91.6246 221.264ZM96.2294 222.068C96.034 222.068 95.866 221.999 95.7254 221.861C95.5848 221.72 95.5145 221.551 95.5145 221.353C95.5145 221.158 95.5848 220.991 95.7254 220.853C95.866 220.712 96.034 220.642 96.2294 220.642C96.4248 220.642 96.5928 220.712 96.7334 220.853C96.874 220.991 96.9443 221.158 96.9443 221.353C96.9443 221.484 96.9109 221.604 96.8442 221.714C96.7799 221.821 96.6941 221.907 96.5868 221.971C96.4796 222.036 96.3605 222.068 96.2294 222.068ZM101.008 222V214.679H102.112V221.049H105.429V222H101.008ZM106.603 222V216.51H107.672V222H106.603ZM107.143 215.662C106.957 215.662 106.798 215.601 106.664 215.477C106.533 215.35 106.468 215.2 106.468 215.026C106.468 214.85 106.533 214.7 106.664 214.576C106.798 214.45 106.957 214.386 107.143 214.386C107.329 214.386 107.487 214.45 107.619 214.576C107.752 214.7 107.819 214.85 107.819 215.026C107.819 215.2 107.752 215.35 107.619 215.477C107.487 215.601 107.329 215.662 107.143 215.662ZM113.807 216.51L111.816 222H110.672L108.677 216.51H109.825L111.215 220.735H111.273L112.659 216.51H113.807ZM116.991 222.111C116.45 222.111 115.984 221.995 115.593 221.764C115.205 221.531 114.904 221.203 114.692 220.781C114.483 220.357 114.378 219.86 114.378 219.291C114.378 218.728 114.483 218.233 114.692 217.804C114.904 217.375 115.2 217.04 115.579 216.799C115.96 216.558 116.406 216.438 116.916 216.438C117.226 216.438 117.526 216.489 117.816 216.592C118.107 216.694 118.368 216.855 118.599 217.074C118.83 217.294 119.013 217.578 119.146 217.929C119.28 218.277 119.346 218.7 119.346 219.198V219.577H114.982V218.776H118.299C118.299 218.495 118.242 218.246 118.127 218.029C118.013 217.81 117.852 217.637 117.645 217.51C117.44 217.384 117.199 217.321 116.923 217.321C116.623 217.321 116.36 217.395 116.136 217.543C115.915 217.688 115.743 217.879 115.622 218.115C115.503 218.348 115.443 218.602 115.443 218.876V219.501C115.443 219.868 115.507 220.181 115.636 220.438C115.767 220.695 115.949 220.892 116.183 221.028C116.416 221.161 116.689 221.228 117.002 221.228C117.204 221.228 117.389 221.199 117.556 221.142C117.722 221.083 117.867 220.994 117.988 220.878C118.11 220.761 118.203 220.617 118.267 220.445L119.278 220.627C119.197 220.925 119.052 221.186 118.842 221.41C118.635 221.632 118.374 221.805 118.06 221.929C117.747 222.05 117.391 222.111 116.991 222.111ZM123.196 222V216.51H124.265V222H123.196ZM123.736 215.662C123.55 215.662 123.39 215.601 123.257 215.477C123.126 215.35 123.06 215.2 123.06 215.026C123.06 214.85 123.126 214.7 123.257 214.576C123.39 214.45 123.55 214.386 123.736 214.386C123.922 214.386 124.08 214.45 124.211 214.576C124.345 214.7 124.411 214.85 124.411 215.026C124.411 215.2 124.345 215.35 124.211 215.477C124.08 215.601 123.922 215.662 123.736 215.662ZM126.771 218.74V222H125.703V216.51H126.729V217.403H126.796C126.923 217.113 127.121 216.879 127.39 216.703C127.661 216.526 128.003 216.438 128.416 216.438C128.79 216.438 129.117 216.517 129.399 216.674C129.68 216.829 129.898 217.06 130.053 217.367C130.208 217.675 130.285 218.055 130.285 218.508V222H129.216V218.636C129.216 218.238 129.113 217.927 128.905 217.703C128.698 217.477 128.413 217.364 128.051 217.364C127.803 217.364 127.583 217.418 127.39 217.525C127.199 217.632 127.048 217.789 126.936 217.997C126.826 218.202 126.771 218.449 126.771 218.74Z" fill="#929292"/>
<path d="M20.8669 186.952H22.3247V192.21C22.3247 192.786 22.1885 193.293 21.9161 193.731C21.6462 194.168 21.2664 194.51 20.7765 194.756C20.2866 195 19.7142 195.122 19.0593 195.122C18.4017 195.122 17.828 195 17.3381 194.756C16.8482 194.51 16.4684 194.168 16.1985 193.731C15.9287 193.293 15.7938 192.786 15.7938 192.21V186.952H17.2516V192.088C17.2516 192.424 17.325 192.722 17.4717 192.984C17.621 193.246 17.8306 193.452 18.1004 193.601C18.3703 193.748 18.6899 193.821 19.0593 193.821C19.4286 193.821 19.7482 193.748 20.0181 193.601C20.2905 193.452 20.5001 193.246 20.6468 192.984C20.7935 192.722 20.8669 192.424 20.8669 192.088V186.952ZM25.269 191.463V195H23.8465V188.964H25.2061V189.99H25.2768C25.4157 189.652 25.637 189.383 25.9409 189.184C26.2474 188.985 26.626 188.886 27.0766 188.886C27.4931 188.886 27.8559 188.975 28.1651 189.153C28.4768 189.331 28.7178 189.589 28.8881 189.927C29.061 190.265 29.1462 190.675 29.1435 191.157V195H27.721V191.377C27.721 190.973 27.6162 190.658 27.4067 190.43C27.1997 190.202 26.9128 190.088 26.5461 190.088C26.2972 190.088 26.0758 190.143 25.882 190.253C25.6907 190.36 25.5401 190.516 25.4301 190.721C25.3227 190.925 25.269 191.173 25.269 191.463ZM32.0121 186.952V195H30.5896V186.952H32.0121ZM36.1077 195.118C35.5183 195.118 35.0075 194.988 34.5752 194.729C34.1429 194.47 33.8076 194.107 33.5692 193.64C33.3335 193.174 33.2156 192.629 33.2156 192.006C33.2156 191.382 33.3335 190.836 33.5692 190.367C33.8076 189.898 34.1429 189.534 34.5752 189.275C35.0075 189.015 35.5183 188.886 36.1077 188.886C36.6972 188.886 37.208 189.015 37.6403 189.275C38.0725 189.534 38.4065 189.898 38.6423 190.367C38.8807 190.836 38.9999 191.382 38.9999 192.006C38.9999 192.629 38.8807 193.174 38.6423 193.64C38.4065 194.107 38.0725 194.47 37.6403 194.729C37.208 194.988 36.6972 195.118 36.1077 195.118ZM36.1156 193.978C36.4352 193.978 36.7024 193.891 36.9172 193.715C37.132 193.537 37.2918 193.298 37.3966 193C37.504 192.701 37.5577 192.368 37.5577 192.002C37.5577 191.632 37.504 191.298 37.3966 191C37.2918 190.698 37.132 190.459 36.9172 190.281C36.7024 190.102 36.4352 190.013 36.1156 190.013C35.7881 190.013 35.5157 190.102 35.2982 190.281C35.0834 190.459 34.9223 190.698 34.8149 191C34.7101 191.298 34.6577 191.632 34.6577 192.002C34.6577 192.368 34.7101 192.701 34.8149 193C34.9223 193.298 35.0834 193.537 35.2982 193.715C35.5157 193.891 35.7881 193.978 36.1156 193.978ZM41.9441 195.122C41.5617 195.122 41.2172 195.054 40.9107 194.917C40.6068 194.779 40.3658 194.574 40.1876 194.304C40.0121 194.035 39.9243 193.702 39.9243 193.306C39.9243 192.966 39.9872 192.684 40.113 192.461C40.2387 192.239 40.4103 192.061 40.6277 191.927C40.8452 191.793 41.0901 191.693 41.3626 191.624C41.6376 191.554 41.9219 191.503 42.2153 191.471C42.5689 191.435 42.8558 191.402 43.0759 191.373C43.2959 191.342 43.4557 191.294 43.5553 191.232C43.6574 191.166 43.7085 191.065 43.7085 190.929V190.905C43.7085 190.609 43.6208 190.38 43.4452 190.218C43.2697 190.055 43.0169 189.974 42.6868 189.974C42.3384 189.974 42.062 190.05 41.8577 190.202C41.656 190.354 41.5197 190.533 41.449 190.74L40.1208 190.552C40.2256 190.185 40.3985 189.878 40.6395 189.632C40.8805 189.383 41.1753 189.197 41.5237 189.074C41.8721 188.948 42.2572 188.886 42.679 188.886C42.9698 188.886 43.2592 188.92 43.5474 188.988C43.8356 189.056 44.0989 189.169 44.3373 189.326C44.5757 189.48 44.7669 189.691 44.911 189.958C45.0577 190.226 45.131 190.56 45.131 190.96V195H43.7635V194.171H43.7164C43.6299 194.339 43.5081 194.496 43.3509 194.642C43.1964 194.786 43.0012 194.903 42.7654 194.992C42.5323 195.079 42.2585 195.122 41.9441 195.122ZM42.3135 194.077C42.5991 194.077 42.8466 194.02 43.0562 193.908C43.2658 193.792 43.4269 193.64 43.5396 193.452C43.6548 193.263 43.7125 193.057 43.7125 192.835V192.124C43.6679 192.16 43.5919 192.194 43.4845 192.226C43.3797 192.257 43.2619 192.285 43.1309 192.308C42.9999 192.332 42.8702 192.353 42.7418 192.371C42.6135 192.389 42.5021 192.405 42.4078 192.418C42.1956 192.447 42.0057 192.494 41.838 192.56C41.6704 192.625 41.5381 192.717 41.4412 192.835C41.3442 192.95 41.2958 193.099 41.2958 193.283C41.2958 193.545 41.3914 193.743 41.5826 193.876C41.7739 194.01 42.0175 194.077 42.3135 194.077ZM47.9839 191.463V195H46.5614V188.964H47.921V189.99H47.9918C48.1306 189.652 48.352 189.383 48.6559 189.184C48.9624 188.985 49.3409 188.886 49.7915 188.886C50.208 188.886 50.5709 188.975 50.88 189.153C51.1918 189.331 51.4328 189.589 51.603 189.927C51.7759 190.265 51.8611 190.675 51.8585 191.157V195H50.436V191.377C50.436 190.973 50.3312 190.658 50.1216 190.43C49.9146 190.202 49.6278 190.088 49.261 190.088C49.0121 190.088 48.7908 190.143 48.5969 190.253C48.4057 190.36 48.255 190.516 48.145 190.721C48.0376 190.925 47.9839 191.173 47.9839 191.463ZM56.0494 195V188.964H57.4287V189.97H57.4915C57.6016 189.622 57.7902 189.353 58.0574 189.165C58.3272 188.973 58.635 188.878 58.9808 188.878C59.0594 188.878 59.1472 188.882 59.2441 188.89C59.3437 188.895 59.4262 188.904 59.4917 188.917V190.226C59.4314 190.205 59.3358 190.186 59.2048 190.171C59.0765 190.152 58.952 190.143 58.8315 190.143C58.5722 190.143 58.339 190.199 58.132 190.312C57.9277 190.422 57.7666 190.575 57.6487 190.772C57.5308 190.968 57.4719 191.195 57.4719 191.452V195H56.0494ZM62.0656 195.122C61.6831 195.122 61.3386 195.054 61.0321 194.917C60.7282 194.779 60.4872 194.574 60.309 194.304C60.1335 194.035 60.0457 193.702 60.0457 193.306C60.0457 192.966 60.1086 192.684 60.2344 192.461C60.3601 192.239 60.5317 192.061 60.7491 191.927C60.9666 191.793 61.2115 191.693 61.484 191.624C61.759 191.554 62.0433 191.503 62.3367 191.471C62.6904 191.435 62.9772 191.402 63.1973 191.373C63.4173 191.342 63.5771 191.294 63.6767 191.232C63.7788 191.166 63.8299 191.065 63.8299 190.929V190.905C63.8299 190.609 63.7422 190.38 63.5666 190.218C63.3911 190.055 63.1383 189.974 62.8082 189.974C62.4598 189.974 62.1834 190.05 61.9791 190.202C61.7774 190.354 61.6412 190.533 61.5704 190.74L60.2422 190.552C60.347 190.185 60.5199 189.878 60.7609 189.632C61.0019 189.383 61.2967 189.197 61.6451 189.074C61.9935 188.948 62.3786 188.886 62.8004 188.886C63.0912 188.886 63.3806 188.92 63.6688 188.988C63.957 189.056 64.2203 189.169 64.4587 189.326C64.6971 189.48 64.8883 189.691 65.0324 189.958C65.1791 190.226 65.2524 190.56 65.2524 190.96V195H63.8849V194.171H63.8378C63.7513 194.339 63.6295 194.496 63.4723 194.642C63.3178 194.786 63.1226 194.903 62.8868 194.992C62.6537 195.079 62.3799 195.122 62.0656 195.122ZM62.4349 194.077C62.7205 194.077 62.968 194.02 63.1776 193.908C63.3872 193.792 63.5483 193.64 63.661 193.452C63.7762 193.263 63.8339 193.057 63.8339 192.835V192.124C63.7893 192.16 63.7134 192.194 63.6059 192.226C63.5012 192.257 63.3833 192.285 63.2523 192.308C63.1213 192.332 62.9916 192.353 62.8633 192.371C62.7349 192.389 62.6236 192.405 62.5292 192.418C62.317 192.447 62.1271 192.494 61.9595 192.56C61.7918 192.625 61.6595 192.717 61.5626 192.835C61.4656 192.95 61.4172 193.099 61.4172 193.283C61.4172 193.545 61.5128 193.743 61.704 193.876C61.8953 194.01 62.1389 194.077 62.4349 194.077ZM69.6968 188.964V190.064H66.227V188.964H69.6968ZM67.0836 187.518H68.5061V193.185C68.5061 193.376 68.5349 193.522 68.5926 193.625C68.6528 193.724 68.7314 193.792 68.8284 193.829C68.9253 193.866 69.0327 193.884 69.1506 193.884C69.2397 193.884 69.3209 193.877 69.3942 193.864C69.4702 193.851 69.5278 193.839 69.5671 193.829L69.8068 194.941C69.7308 194.967 69.6221 194.996 69.4807 195.028C69.3418 195.059 69.1715 195.077 68.9698 195.083C68.6135 195.093 68.2926 195.039 68.0071 194.921C67.7215 194.801 67.4949 194.615 67.3273 194.363C67.1622 194.112 67.081 193.798 67.0836 193.42V187.518ZM73.4938 195.118C72.8886 195.118 72.366 194.992 71.9258 194.741C71.4884 194.487 71.1517 194.128 70.9159 193.664C70.6802 193.198 70.5623 192.649 70.5623 192.017C70.5623 191.397 70.6802 190.852 70.9159 190.383C71.1543 189.911 71.487 189.544 71.9141 189.282C72.3411 189.018 72.8428 188.886 73.4191 188.886C73.7911 188.886 74.1421 188.946 74.4722 189.066C74.8049 189.184 75.0983 189.368 75.3524 189.616C75.6092 189.865 75.8109 190.182 75.9576 190.567C76.1043 190.95 76.1777 191.406 76.1777 191.935V192.371H71.2303V191.412H74.8141C74.8115 191.14 74.7525 190.898 74.6373 190.685C74.522 190.471 74.3609 190.302 74.1539 190.178C73.9496 190.055 73.7112 189.994 73.4387 189.994C73.1479 189.994 72.8925 190.064 72.6725 190.206C72.4524 190.345 72.2808 190.528 72.1577 190.756C72.0372 190.981 71.9756 191.229 71.973 191.499V192.336C71.973 192.687 72.0372 192.988 72.1656 193.24C72.2939 193.488 72.4734 193.68 72.7039 193.813C72.9344 193.944 73.2043 194.01 73.5134 194.01C73.7204 194.01 73.9077 193.981 74.0753 193.923C74.243 193.863 74.3884 193.775 74.5115 193.66C74.6346 193.545 74.7276 193.402 74.7905 193.232L76.1187 193.381C76.0349 193.732 75.8751 194.039 75.6393 194.301C75.4061 194.56 75.1075 194.762 74.7434 194.906C74.3792 195.047 73.9627 195.118 73.4938 195.118Z" fill="#171D21"/>
<rect x="159.5" y="202.5" width="125" height="30" rx="2.5" fill="white" stroke="#D2D2D2"/>
<path d="M258.074 224.059V216.51H259.118V217.4H259.207C259.269 217.285 259.358 217.153 259.475 217.003C259.592 216.853 259.754 216.722 259.961 216.61C260.169 216.495 260.443 216.438 260.783 216.438C261.227 216.438 261.622 216.55 261.97 216.774C262.318 216.998 262.591 217.321 262.789 217.743C262.989 218.165 263.089 218.672 263.089 219.266C263.089 219.859 262.99 220.368 262.792 220.792C262.595 221.214 262.323 221.539 261.977 221.768C261.632 221.994 261.237 222.107 260.794 222.107C260.461 222.107 260.188 222.051 259.976 221.939C259.766 221.827 259.602 221.696 259.482 221.546C259.363 221.396 259.271 221.262 259.207 221.146H259.143V224.059H258.074ZM259.121 219.255C259.121 219.641 259.177 219.979 259.289 220.27C259.401 220.561 259.563 220.788 259.775 220.953C259.988 221.115 260.247 221.196 260.555 221.196C260.874 221.196 261.141 221.111 261.355 220.942C261.57 220.77 261.732 220.538 261.841 220.245C261.953 219.952 262.009 219.622 262.009 219.255C262.009 218.893 261.955 218.567 261.845 218.279C261.738 217.991 261.576 217.763 261.359 217.596C261.144 217.429 260.876 217.346 260.555 217.346C260.245 217.346 259.983 217.426 259.768 217.586C259.556 217.745 259.395 217.968 259.286 218.254C259.176 218.54 259.121 218.874 259.121 219.255ZM264.991 222.068C264.795 222.068 264.627 221.999 264.487 221.861C264.346 221.72 264.276 221.551 264.276 221.353C264.276 221.158 264.346 220.991 264.487 220.853C264.627 220.712 264.795 220.642 264.991 220.642C265.186 220.642 265.354 220.712 265.495 220.853C265.635 220.991 265.705 221.158 265.705 221.353C265.705 221.484 265.672 221.604 265.605 221.714C265.541 221.821 265.455 221.907 265.348 221.971C265.241 222.036 265.122 222.068 264.991 222.068ZM268.735 222.122C268.387 222.122 268.072 222.057 267.791 221.929C267.51 221.797 267.287 221.608 267.123 221.36C266.961 221.112 266.88 220.809 266.88 220.449C266.88 220.139 266.939 219.884 267.058 219.684C267.178 219.484 267.338 219.325 267.541 219.208C267.744 219.092 267.97 219.003 268.22 218.944C268.47 218.884 268.725 218.839 268.985 218.808C269.314 218.77 269.581 218.739 269.786 218.715C269.991 218.689 270.14 218.647 270.233 218.59C270.325 218.533 270.372 218.44 270.372 218.311V218.286C270.372 217.974 270.284 217.732 270.107 217.561C269.933 217.389 269.674 217.303 269.328 217.303C268.968 217.303 268.685 217.383 268.477 217.543C268.273 217.7 268.131 217.875 268.052 218.068L267.048 217.839C267.167 217.506 267.341 217.236 267.57 217.031C267.801 216.824 268.066 216.674 268.367 216.581C268.667 216.486 268.983 216.438 269.314 216.438C269.533 216.438 269.765 216.464 270.011 216.517C270.259 216.567 270.49 216.66 270.704 216.796C270.921 216.931 271.099 217.126 271.237 217.378C271.375 217.628 271.444 217.954 271.444 218.354V222H270.401V221.249H270.358C270.289 221.388 270.185 221.523 270.047 221.657C269.908 221.79 269.731 221.901 269.514 221.989C269.297 222.077 269.037 222.122 268.735 222.122ZM268.967 221.264C269.263 221.264 269.515 221.205 269.725 221.089C269.937 220.972 270.098 220.819 270.208 220.631C270.32 220.44 270.376 220.237 270.376 220.02V219.312C270.337 219.35 270.264 219.386 270.154 219.419C270.047 219.45 269.924 219.478 269.786 219.501C269.648 219.523 269.513 219.543 269.382 219.562C269.251 219.579 269.141 219.593 269.053 219.605C268.846 219.631 268.656 219.675 268.485 219.737C268.315 219.799 268.18 219.889 268.077 220.005C267.977 220.12 267.927 220.272 267.927 220.463C267.927 220.727 268.025 220.928 268.22 221.063C268.416 221.197 268.665 221.264 268.967 221.264ZM273.572 222.068C273.377 222.068 273.209 221.999 273.068 221.861C272.927 221.72 272.857 221.551 272.857 221.353C272.857 221.158 272.927 220.991 273.068 220.853C273.209 220.712 273.377 220.642 273.572 220.642C273.767 220.642 273.935 220.712 274.076 220.853C274.217 220.991 274.287 221.158 274.287 221.353C274.287 221.484 274.254 221.604 274.187 221.714C274.122 221.821 274.037 221.907 273.929 221.971C273.822 222.036 273.703 222.068 273.572 222.068Z" fill="#929292"/>
<path d="M166.985 190.976C166.985 191.843 166.822 192.586 166.498 193.204C166.175 193.82 165.735 194.291 165.177 194.619C164.622 194.946 163.992 195.11 163.287 195.11C162.582 195.11 161.951 194.946 161.393 194.619C160.838 194.289 160.398 193.816 160.073 193.2C159.751 192.582 159.589 191.841 159.589 190.976C159.589 190.109 159.751 189.368 160.073 188.752C160.398 188.134 160.838 187.661 161.393 187.333C161.951 187.006 162.582 186.842 163.287 186.842C163.992 186.842 164.622 187.006 165.177 187.333C165.735 187.661 166.175 188.134 166.498 188.752C166.822 189.368 166.985 190.109 166.985 190.976ZM165.519 190.976C165.519 190.366 165.424 189.851 165.232 189.432C165.044 189.01 164.782 188.692 164.446 188.477C164.111 188.259 163.725 188.151 163.287 188.151C162.85 188.151 162.463 188.259 162.128 188.477C161.793 188.692 161.529 189.01 161.338 189.432C161.149 189.851 161.055 190.366 161.055 190.976C161.055 191.587 161.149 192.103 161.338 192.524C161.529 192.944 161.793 193.262 162.128 193.479C162.463 193.694 162.85 193.801 163.287 193.801C163.725 193.801 164.111 193.694 164.446 193.479C164.782 193.262 165.044 192.944 165.232 192.524C165.424 192.103 165.519 191.587 165.519 190.976ZM171.314 188.964V190.064H167.844V188.964H171.314ZM168.701 187.518H170.124V193.185C170.124 193.376 170.152 193.522 170.21 193.625C170.27 193.724 170.349 193.792 170.446 193.829C170.543 193.866 170.65 193.884 170.768 193.884C170.857 193.884 170.938 193.877 171.012 193.864C171.088 193.851 171.145 193.839 171.185 193.829L171.424 194.941C171.348 194.967 171.24 194.996 171.098 195.028C170.959 195.059 170.789 195.077 170.587 195.083C170.231 195.093 169.91 195.039 169.625 194.921C169.339 194.801 169.112 194.615 168.945 194.363C168.78 194.112 168.699 193.798 168.701 193.42V187.518ZM174.056 191.463V195H172.634V186.952H174.025V189.99H174.095C174.237 189.649 174.456 189.381 174.752 189.184C175.05 188.985 175.43 188.886 175.891 188.886C176.31 188.886 176.676 188.973 176.988 189.149C177.299 189.324 177.54 189.581 177.711 189.919C177.884 190.257 177.97 190.67 177.97 191.157V195H176.548V191.377C176.548 190.971 176.443 190.655 176.233 190.43C176.026 190.202 175.735 190.088 175.361 190.088C175.109 190.088 174.884 190.143 174.685 190.253C174.488 190.36 174.334 190.516 174.221 190.721C174.111 190.925 174.056 191.173 174.056 191.463ZM182.092 195.118C181.487 195.118 180.964 194.992 180.524 194.741C180.087 194.487 179.75 194.128 179.514 193.664C179.279 193.198 179.161 192.649 179.161 192.017C179.161 191.397 179.279 190.852 179.514 190.383C179.753 189.911 180.085 189.544 180.512 189.282C180.939 189.018 181.441 188.886 182.018 188.886C182.39 188.886 182.741 188.946 183.071 189.066C183.403 189.184 183.697 189.368 183.951 189.616C184.208 189.865 184.409 190.182 184.556 190.567C184.703 190.95 184.776 191.406 184.776 191.935V192.371H179.829V191.412H183.413C183.41 191.14 183.351 190.898 183.236 190.685C183.12 190.471 182.959 190.302 182.752 190.178C182.548 190.055 182.31 189.994 182.037 189.994C181.746 189.994 181.491 190.064 181.271 190.206C181.051 190.345 180.879 190.528 180.756 190.756C180.636 190.981 180.574 191.229 180.571 191.499V192.336C180.571 192.687 180.636 192.988 180.764 193.24C180.892 193.488 181.072 193.68 181.302 193.813C181.533 193.944 181.803 194.01 182.112 194.01C182.319 194.01 182.506 193.981 182.674 193.923C182.841 193.863 182.987 193.775 183.11 193.66C183.233 193.545 183.326 193.402 183.389 193.232L184.717 193.381C184.633 193.732 184.473 194.039 184.238 194.301C184.005 194.56 183.706 194.762 183.342 194.906C182.978 195.047 182.561 195.118 182.092 195.118ZM185.98 195V188.964H187.359V189.97H187.422C187.532 189.622 187.72 189.353 187.988 189.165C188.257 188.973 188.565 188.878 188.911 188.878C188.99 188.878 189.077 188.882 189.174 188.89C189.274 188.895 189.356 188.904 189.422 188.917V190.226C189.362 190.205 189.266 190.186 189.135 190.171C189.007 190.152 188.882 190.143 188.762 190.143C188.502 190.143 188.269 190.199 188.062 190.312C187.858 190.422 187.697 190.575 187.579 190.772C187.461 190.968 187.402 191.195 187.402 191.452V195H185.98ZM193.112 195V188.964H194.491V189.97H194.554C194.664 189.622 194.852 189.353 195.12 189.165C195.39 188.973 195.697 188.878 196.043 188.878C196.122 188.878 196.21 188.882 196.306 188.89C196.406 188.895 196.489 188.904 196.554 188.917V190.226C196.494 190.205 196.398 190.186 196.267 190.171C196.139 190.152 196.014 190.143 195.894 190.143C195.634 190.143 195.401 190.199 195.194 190.312C194.99 190.422 194.829 190.575 194.711 190.772C194.593 190.968 194.534 191.195 194.534 191.452V195H193.112ZM199.128 195.122C198.745 195.122 198.401 195.054 198.094 194.917C197.791 194.779 197.549 194.574 197.371 194.304C197.196 194.035 197.108 193.702 197.108 193.306C197.108 192.966 197.171 192.684 197.297 192.461C197.422 192.239 197.594 192.061 197.811 191.927C198.029 191.793 198.274 191.693 198.546 191.624C198.821 191.554 199.106 191.503 199.399 191.471C199.753 191.435 200.04 191.402 200.26 191.373C200.48 191.342 200.639 191.294 200.739 191.232C200.841 191.166 200.892 191.065 200.892 190.929V190.905C200.892 190.609 200.804 190.38 200.629 190.218C200.453 190.055 200.201 189.974 199.871 189.974C199.522 189.974 199.246 190.05 199.041 190.202C198.84 190.354 198.703 190.533 198.633 190.74L197.305 190.552C197.409 190.185 197.582 189.878 197.823 189.632C198.064 189.383 198.359 189.197 198.707 189.074C199.056 188.948 199.441 188.886 199.863 188.886C200.153 188.886 200.443 188.92 200.731 188.988C201.019 189.056 201.283 189.169 201.521 189.326C201.759 189.48 201.951 189.691 202.095 189.958C202.241 190.226 202.315 190.56 202.315 190.96V195H200.947V194.171H200.9C200.814 194.339 200.692 194.496 200.535 194.642C200.38 194.786 200.185 194.903 199.949 194.992C199.716 195.079 199.442 195.122 199.128 195.122ZM199.497 194.077C199.783 194.077 200.03 194.02 200.24 193.908C200.45 193.792 200.611 193.64 200.723 193.452C200.839 193.263 200.896 193.057 200.896 192.835V192.124C200.852 192.16 200.776 192.194 200.668 192.226C200.563 192.257 200.446 192.285 200.315 192.308C200.184 192.332 200.054 192.353 199.926 192.371C199.797 192.389 199.686 192.405 199.592 192.418C199.379 192.447 199.189 192.494 199.022 192.56C198.854 192.625 198.722 192.717 198.625 192.835C198.528 192.95 198.479 193.099 198.479 193.283C198.479 193.545 198.575 193.743 198.766 193.876C198.958 194.01 199.201 194.077 199.497 194.077ZM206.759 188.964V190.064H203.289V188.964H206.759ZM204.146 187.518H205.568V193.185C205.568 193.376 205.597 193.522 205.655 193.625C205.715 193.724 205.794 193.792 205.891 193.829C205.988 193.866 206.095 193.884 206.213 193.884C206.302 193.884 206.383 193.877 206.457 193.864C206.533 193.851 206.59 193.839 206.629 193.829L206.869 194.941C206.793 194.967 206.684 194.996 206.543 195.028C206.404 195.059 206.234 195.077 206.032 195.083C205.676 195.093 205.355 195.039 205.069 194.921C204.784 194.801 204.557 194.615 204.39 194.363C204.225 194.112 204.143 193.798 204.146 193.42V187.518ZM210.556 195.118C209.951 195.118 209.428 194.992 208.988 194.741C208.551 194.487 208.214 194.128 207.978 193.664C207.742 193.198 207.625 192.649 207.625 192.017C207.625 191.397 207.742 190.852 207.978 190.383C208.217 189.911 208.549 189.544 208.976 189.282C209.403 189.018 209.905 188.886 210.481 188.886C210.853 188.886 211.204 188.946 211.535 189.066C211.867 189.184 212.161 189.368 212.415 189.616C212.672 189.865 212.873 190.182 213.02 190.567C213.167 190.95 213.24 191.406 213.24 191.935V192.371H208.293V191.412H211.876C211.874 191.14 211.815 190.898 211.7 190.685C211.584 190.471 211.423 190.302 211.216 190.178C211.012 190.055 210.774 189.994 210.501 189.994C210.21 189.994 209.955 190.064 209.735 190.206C209.515 190.345 209.343 190.528 209.22 190.756C209.1 190.981 209.038 191.229 209.035 191.499V192.336C209.035 192.687 209.1 192.988 209.228 193.24C209.356 193.488 209.536 193.68 209.766 193.813C209.997 193.944 210.267 194.01 210.576 194.01C210.783 194.01 210.97 193.981 211.138 193.923C211.305 193.863 211.451 193.775 211.574 193.66C211.697 193.545 211.79 193.402 211.853 193.232L213.181 193.381C213.097 193.732 212.937 194.039 212.702 194.301C212.468 194.56 212.17 194.762 211.806 194.906C211.442 195.047 211.025 195.118 210.556 195.118Z" fill="#171D21"/>
<path d="M274 161.47L269.56 165.91L265.119 161.47" stroke="#171D21"/>
<path d="M17.0151 244.065C16.7258 244.065 16.4657 244.009 16.2349 243.898C16.0056 243.786 15.8225 243.632 15.6855 243.437C15.5486 243.241 15.4755 243.018 15.4663 242.767H16.1587C16.1757 242.971 16.2657 243.137 16.4288 243.268C16.5919 243.399 16.7873 243.464 17.0151 243.464C17.1967 243.464 17.3575 243.423 17.4975 243.34C17.6391 243.255 17.7499 243.139 17.8299 242.991C17.9115 242.844 17.9522 242.675 17.9522 242.486C17.9522 242.293 17.9107 242.122 17.8276 241.971C17.7445 241.82 17.6299 241.702 17.4837 241.616C17.339 241.529 17.1728 241.486 16.9851 241.484C16.842 241.484 16.6981 241.509 16.5534 241.558C16.4088 241.607 16.2918 241.672 16.2026 241.752L15.5494 241.655L15.8148 239.273H18.4139V239.884H16.408L16.258 241.207H16.2857C16.378 241.118 16.5004 241.043 16.6527 240.983C16.8066 240.923 16.9712 240.893 17.1467 240.893C17.4344 240.893 17.6906 240.962 17.9153 241.099C18.1415 241.235 18.3192 241.422 18.4485 241.659C18.5793 241.895 18.6439 242.166 18.6424 242.472C18.6439 242.778 18.5747 243.051 18.4347 243.291C18.2962 243.531 18.1038 243.721 17.8576 243.859C17.6129 243.996 17.3321 244.065 17.0151 244.065ZM19.7781 244.044C19.6519 244.044 19.5434 243.999 19.4526 243.91C19.3618 243.819 19.3164 243.71 19.3164 243.582C19.3164 243.456 19.3618 243.348 19.4526 243.259C19.5434 243.168 19.6519 243.123 19.7781 243.123C19.9042 243.123 20.0127 243.168 20.1035 243.259C20.1943 243.348 20.2397 243.456 20.2397 243.582C20.2397 243.667 20.2182 243.745 20.1751 243.815C20.1335 243.885 20.0781 243.94 20.0089 243.982C19.9396 244.023 19.8627 244.044 19.7781 244.044ZM21.0557 243.077V242.5L23.0985 239.273H23.5532V240.122H23.2646L21.8035 242.435V242.472H24.6034V243.077H21.0557ZM23.297 244V242.901L23.3016 242.638V239.273H23.9779V244H23.297ZM27.0536 244.078C26.6889 244.077 26.3773 243.981 26.1188 243.79C25.8603 243.599 25.6625 243.321 25.5256 242.957C25.3886 242.592 25.3201 242.153 25.3201 241.639C25.3201 241.126 25.3886 240.688 25.5256 240.325C25.6641 239.962 25.8626 239.685 26.1211 239.494C26.3812 239.304 26.692 239.208 27.0536 239.208C27.4152 239.208 27.7253 239.304 27.9838 239.497C28.2424 239.687 28.4401 239.964 28.5771 240.328C28.7156 240.689 28.7848 241.126 28.7848 241.639C28.7848 242.154 28.7163 242.594 28.5794 242.959C28.4424 243.322 28.2447 243.6 27.9862 243.792C27.7276 243.983 27.4168 244.078 27.0536 244.078ZM27.0536 243.462C27.3737 243.462 27.6238 243.306 27.8038 242.994C27.9854 242.681 28.0762 242.23 28.0762 241.639C28.0762 241.246 28.0346 240.915 27.9515 240.644C27.87 240.371 27.7522 240.165 27.5984 240.025C27.446 239.884 27.2644 239.813 27.0536 239.813C26.7351 239.813 26.485 239.97 26.3034 240.284C26.1219 240.598 26.0303 241.049 26.0288 241.639C26.0288 242.033 26.0695 242.366 26.1511 242.638C26.2342 242.909 26.3519 243.114 26.5043 243.254C26.6566 243.393 26.8397 243.462 27.0536 243.462ZM32.0712 243.114V242.864C32.0712 242.686 32.1081 242.523 32.182 242.375C32.2574 242.226 32.3666 242.106 32.5097 242.017C32.6544 241.926 32.829 241.881 33.0337 241.881C33.243 241.881 33.4184 241.926 33.56 242.015C33.7015 242.104 33.8085 242.223 33.8808 242.373C33.9547 242.522 33.9916 242.686 33.9916 242.864V243.114C33.9916 243.292 33.9547 243.456 33.8808 243.605C33.807 243.753 33.6985 243.872 33.5554 243.963C33.4138 244.052 33.2399 244.097 33.0337 244.097C32.826 244.097 32.6505 244.052 32.5074 243.963C32.3643 243.872 32.2558 243.753 32.182 243.605C32.1081 243.456 32.0712 243.292 32.0712 243.114ZM32.609 242.864V243.114C32.609 243.246 32.6405 243.366 32.7036 243.474C32.7667 243.581 32.8767 243.635 33.0337 243.635C33.1891 243.635 33.2976 243.581 33.3592 243.474C33.4207 243.366 33.4515 243.246 33.4515 243.114V242.864C33.4515 242.732 33.4215 242.612 33.3615 242.504C33.303 242.397 33.1937 242.343 33.0337 242.343C32.8798 242.343 32.7706 242.397 32.7059 242.504C32.6413 242.612 32.609 242.732 32.609 242.864ZM29.6937 240.408V240.159C29.6937 239.981 29.7306 239.817 29.8045 239.667C29.8799 239.518 29.9891 239.399 30.1322 239.31C30.2769 239.22 30.4515 239.176 30.6562 239.176C30.8655 239.176 31.0409 239.22 31.1825 239.31C31.3241 239.399 31.431 239.518 31.5033 239.667C31.5757 239.817 31.6118 239.981 31.6118 240.159V240.408C31.6118 240.587 31.5749 240.751 31.501 240.9C31.4287 241.048 31.321 241.167 31.1779 241.258C31.0363 241.347 30.8624 241.392 30.6562 241.392C30.4469 241.392 30.2707 241.347 30.1276 241.258C29.986 241.167 29.8783 241.048 29.8045 240.9C29.7306 240.751 29.6937 240.587 29.6937 240.408ZM30.2338 240.159V240.408C30.2338 240.541 30.2646 240.661 30.3261 240.768C30.3892 240.876 30.4992 240.93 30.6562 240.93C30.8101 240.93 30.9178 240.876 30.9794 240.768C31.0425 240.661 31.074 240.541 31.074 240.408V240.159C31.074 240.027 31.044 239.907 30.984 239.799C30.924 239.691 30.8147 239.637 30.6562 239.637C30.5023 239.637 30.3931 239.691 30.3284 239.799C30.2653 239.907 30.2338 240.027 30.2338 240.159ZM29.913 244L33.163 239.273H33.7146L30.4646 244H29.913ZM36.7159 245.33V240.455H37.3899V241.029H37.4476C37.4876 240.955 37.5453 240.87 37.6207 240.773C37.6961 240.676 37.8008 240.592 37.9347 240.519C38.0685 240.445 38.2455 240.408 38.4656 240.408C38.7518 240.408 39.0072 240.481 39.2319 240.625C39.4566 240.77 39.6328 240.979 39.7605 241.251C39.8897 241.523 39.9544 241.851 39.9544 242.234C39.9544 242.617 39.8905 242.946 39.7628 243.22C39.6351 243.492 39.4596 243.702 39.2365 243.85C39.0134 243.996 38.7587 244.069 38.4725 244.069C38.257 244.069 38.0808 244.033 37.9439 243.961C37.8085 243.888 37.7023 243.804 37.6254 243.707C37.5484 243.61 37.4892 243.524 37.4476 243.448H37.4061V245.33H36.7159ZM37.3922 242.227C37.3922 242.477 37.4284 242.695 37.5007 242.883C37.573 243.071 37.6777 243.218 37.8146 243.324C37.9516 243.428 38.1193 243.481 38.3178 243.481C38.524 243.481 38.6964 243.426 38.8349 243.317C38.9734 243.206 39.078 243.056 39.1488 242.867C39.2211 242.677 39.2573 242.464 39.2573 242.227C39.2573 241.993 39.2219 241.783 39.1511 241.597C39.0819 241.411 38.9772 241.264 38.8372 241.156C38.6987 241.049 38.5256 240.995 38.3178 240.995C38.1178 240.995 37.9485 241.046 37.81 241.149C37.6731 241.252 37.5692 241.396 37.4984 241.581C37.4276 241.766 37.3922 241.981 37.3922 242.227ZM41.1824 244.044C41.0562 244.044 40.9477 243.999 40.8569 243.91C40.7661 243.819 40.7207 243.71 40.7207 243.582C40.7207 243.456 40.7661 243.348 40.8569 243.259C40.9477 243.168 41.0562 243.123 41.1824 243.123C41.3085 243.123 41.417 243.168 41.5078 243.259C41.5986 243.348 41.644 243.456 41.644 243.582C41.644 243.667 41.6225 243.745 41.5794 243.815C41.5378 243.885 41.4824 243.94 41.4132 243.982C41.3439 244.023 41.267 244.044 41.1824 244.044ZM43.6002 244.078C43.3756 244.078 43.1724 244.037 42.9909 243.954C42.8093 243.869 42.6654 243.747 42.5592 243.587C42.4546 243.427 42.4023 243.231 42.4023 242.998C42.4023 242.798 42.4407 242.634 42.5177 242.504C42.5946 242.375 42.6985 242.273 42.8293 242.197C42.9601 242.122 43.1063 242.065 43.2678 242.026C43.4294 241.988 43.5941 241.959 43.7618 241.939C43.9742 241.914 44.1465 241.894 44.2789 241.879C44.4112 241.862 44.5074 241.835 44.5674 241.798C44.6274 241.761 44.6574 241.701 44.6574 241.618V241.602C44.6574 241.4 44.6005 241.244 44.4866 241.133C44.3743 241.022 44.2065 240.967 43.9834 240.967C43.751 240.967 43.5679 241.019 43.434 241.122C43.3017 241.223 43.2101 241.336 43.1594 241.461L42.5107 241.313C42.5877 241.098 42.7 240.924 42.8477 240.792C42.997 240.658 43.1686 240.561 43.3625 240.501C43.5564 240.439 43.7603 240.408 43.9742 240.408C44.1157 240.408 44.2658 240.425 44.4243 240.459C44.5843 240.491 44.7336 240.551 44.8721 240.639C45.0121 240.727 45.1267 240.852 45.216 241.015C45.3052 241.177 45.3499 241.387 45.3499 241.646V244H44.6759V243.515H44.6482C44.6035 243.605 44.5366 243.692 44.4474 243.778C44.3581 243.865 44.2435 243.936 44.1034 243.993C43.9634 244.05 43.7957 244.078 43.6002 244.078ZM43.7503 243.525C43.9411 243.525 44.1042 243.487 44.2396 243.411C44.3766 243.336 44.4804 243.238 44.5512 243.116C44.6236 242.993 44.6597 242.861 44.6597 242.721V242.264C44.6351 242.289 44.5874 242.312 44.5166 242.333C44.4474 242.353 44.3681 242.371 44.2789 242.387C44.1896 242.4 44.1027 242.413 44.018 242.426C43.9334 242.437 43.8626 242.446 43.8057 242.453C43.6718 242.47 43.5494 242.499 43.4387 242.539C43.3294 242.579 43.2417 242.637 43.1755 242.712C43.1109 242.786 43.0786 242.884 43.0786 243.007C43.0786 243.178 43.1417 243.308 43.2678 243.395C43.394 243.481 43.5548 243.525 43.7503 243.525ZM46.7239 244.044C46.5977 244.044 46.4892 243.999 46.3984 243.91C46.3076 243.819 46.2622 243.71 46.2622 243.582C46.2622 243.456 46.3076 243.348 46.3984 243.259C46.4892 243.168 46.5977 243.123 46.7239 243.123C46.85 243.123 46.9585 243.168 47.0493 243.259C47.1401 243.348 47.1855 243.456 47.1855 243.582C47.1855 243.667 47.164 243.745 47.1209 243.815C47.0793 243.885 47.0239 243.94 46.9547 243.982C46.8854 244.023 46.8085 244.044 46.7239 244.044ZM51.2474 244.072C50.9043 244.072 50.6088 243.994 50.3611 243.838C50.1148 243.681 49.9256 243.465 49.7932 243.19C49.6609 242.914 49.5947 242.599 49.5947 242.243C49.5947 241.883 49.6624 241.566 49.7979 241.29C49.9333 241.013 50.1241 240.797 50.3703 240.642C50.6165 240.486 50.9066 240.408 51.2405 240.408C51.5098 240.408 51.7499 240.458 51.9607 240.558C52.1715 240.657 52.3415 240.795 52.4708 240.974C52.6016 241.152 52.6793 241.361 52.7039 241.599H52.0322C51.9953 241.433 51.9107 241.29 51.7783 241.17C51.6475 241.05 51.4721 240.99 51.252 240.99C51.0597 240.99 50.8912 241.041 50.7465 241.142C50.6034 241.242 50.4919 241.386 50.4118 241.572C50.3318 241.756 50.2918 241.975 50.2918 242.227C50.2918 242.486 50.3311 242.709 50.4095 242.897C50.488 243.084 50.5988 243.23 50.7419 243.333C50.8866 243.436 51.0566 243.488 51.252 243.488C51.3828 243.488 51.5013 243.464 51.6075 243.416C51.7152 243.367 51.8052 243.297 51.8776 243.206C51.9514 243.115 52.003 243.006 52.0322 242.878H52.7039C52.6793 243.107 52.6047 243.312 52.48 243.492C52.3554 243.672 52.1884 243.814 51.9791 243.917C51.7714 244.02 51.5275 244.072 51.2474 244.072ZM54.9354 244.072C54.603 244.072 54.313 243.995 54.0652 243.843C53.8175 243.691 53.6251 243.478 53.4881 243.204C53.3512 242.93 53.2827 242.61 53.2827 242.243C53.2827 241.876 53.3512 241.554 53.4881 241.279C53.6251 241.003 53.8175 240.789 54.0652 240.637C54.313 240.485 54.603 240.408 54.9354 240.408C55.2678 240.408 55.5579 240.485 55.8056 240.637C56.0534 240.789 56.2457 241.003 56.3827 241.279C56.5196 241.554 56.5881 241.876 56.5881 242.243C56.5881 242.61 56.5196 242.93 56.3827 243.204C56.2457 243.478 56.0534 243.691 55.8056 243.843C55.5579 243.995 55.2678 244.072 54.9354 244.072ZM54.9377 243.492C55.1532 243.492 55.3317 243.435 55.4732 243.321C55.6148 243.208 55.7194 243.056 55.7872 242.867C55.8564 242.677 55.891 242.469 55.891 242.241C55.891 242.015 55.8564 241.807 55.7872 241.618C55.7194 241.427 55.6148 241.274 55.4732 241.159C55.3317 241.043 55.1532 240.985 54.9377 240.985C54.7207 240.985 54.5407 241.043 54.3976 241.159C54.256 241.274 54.1506 241.427 54.0814 241.618C54.0137 241.807 53.9798 242.015 53.9798 242.241C53.9798 242.469 54.0137 242.677 54.0814 242.867C54.1506 243.056 54.256 243.208 54.3976 243.321C54.5407 243.435 54.7207 243.492 54.9377 243.492ZM57.3585 244V240.455H58.021V241.032H58.0648C58.1387 240.836 58.2595 240.684 58.4272 240.575C58.5949 240.464 58.7958 240.408 59.0297 240.408C59.2666 240.408 59.4651 240.464 59.6252 240.575C59.7868 240.685 59.906 240.838 59.983 241.032H60.0199C60.1045 240.842 60.2392 240.692 60.4238 240.579C60.6085 240.465 60.8285 240.408 61.084 240.408C61.4056 240.408 61.668 240.509 61.8711 240.711C62.0758 240.912 62.1781 241.216 62.1781 241.623V244H61.4879V241.687C61.4879 241.447 61.4225 241.273 61.2917 241.165C61.1609 241.058 61.0047 241.004 60.8232 241.004C60.5985 241.004 60.4238 241.073 60.2992 241.212C60.1745 241.349 60.1122 241.525 60.1122 241.74V244H59.4244V241.643C59.4244 241.451 59.3643 241.296 59.2443 241.179C59.1243 241.062 58.9681 241.004 58.7757 241.004C58.6449 241.004 58.5241 241.039 58.4134 241.108C58.3041 241.175 58.2156 241.27 58.1479 241.392C58.0817 241.513 58.0487 241.654 58.0487 241.814V244H57.3585ZM63.1031 245.33V240.455H63.7771V241.029H63.8348C63.8748 240.955 63.9325 240.87 64.0079 240.773C64.0833 240.676 64.188 240.592 64.3219 240.519C64.4557 240.445 64.6327 240.408 64.8528 240.408C65.139 240.408 65.3944 240.481 65.6191 240.625C65.8438 240.77 66.02 240.979 66.1477 241.251C66.2769 241.523 66.3416 241.851 66.3416 242.234C66.3416 242.617 66.2777 242.946 66.15 243.22C66.0223 243.492 65.8468 243.702 65.6237 243.85C65.4006 243.996 65.1459 244.069 64.8597 244.069C64.6443 244.069 64.4681 244.033 64.3311 243.961C64.1957 243.888 64.0895 243.804 64.0126 243.707C63.9356 243.61 63.8764 243.524 63.8348 243.448H63.7933V245.33H63.1031ZM63.7794 242.227C63.7794 242.477 63.8156 242.695 63.8879 242.883C63.9602 243.071 64.0649 243.218 64.2018 243.324C64.3388 243.428 64.5065 243.481 64.705 243.481C64.9112 243.481 65.0836 243.426 65.2221 243.317C65.3606 243.206 65.4652 243.056 65.536 242.867C65.6083 242.677 65.6445 242.464 65.6445 242.227C65.6445 241.993 65.6091 241.783 65.5383 241.597C65.4691 241.411 65.3644 241.264 65.2244 241.156C65.0859 241.049 64.9128 240.995 64.705 240.995C64.505 240.995 64.3357 241.046 64.1972 241.149C64.0603 241.252 63.9564 241.396 63.8856 241.581C63.8148 241.766 63.7794 241.981 63.7794 242.227ZM68.1466 244.078C67.9219 244.078 67.7188 244.037 67.5372 243.954C67.3557 243.869 67.2118 243.747 67.1056 243.587C67.001 243.427 66.9486 243.231 66.9486 242.998C66.9486 242.798 66.9871 242.634 67.0641 242.504C67.141 242.375 67.2449 242.273 67.3757 242.197C67.5065 242.122 67.6527 242.065 67.8142 242.026C67.9758 241.988 68.1405 241.959 68.3082 241.939C68.5206 241.914 68.6929 241.894 68.8252 241.879C68.9576 241.862 69.0538 241.835 69.1138 241.798C69.1738 241.761 69.2038 241.701 69.2038 241.618V241.602C69.2038 241.4 69.1469 241.244 69.033 241.133C68.9206 241.022 68.7529 240.967 68.5298 240.967C68.2974 240.967 68.1143 241.019 67.9804 241.122C67.8481 241.223 67.7565 241.336 67.7057 241.461L67.0571 241.313C67.1341 241.098 67.2464 240.924 67.3941 240.792C67.5434 240.658 67.715 240.561 67.9089 240.501C68.1028 240.439 68.3067 240.408 68.5206 240.408C68.6621 240.408 68.8122 240.425 68.9707 240.459C69.1307 240.491 69.28 240.551 69.4185 240.639C69.5585 240.727 69.6731 240.852 69.7624 241.015C69.8516 241.177 69.8963 241.387 69.8963 241.646V244H69.2223V243.515H69.1946C69.1499 243.605 69.083 243.692 68.9937 243.778C68.9045 243.865 68.7898 243.936 68.6498 243.993C68.5098 244.05 68.342 244.078 68.1466 244.078ZM68.2967 243.525C68.4875 243.525 68.6506 243.487 68.786 243.411C68.923 243.336 69.0268 243.238 69.0976 243.116C69.1699 242.993 69.2061 242.861 69.2061 242.721V242.264C69.1815 242.289 69.1338 242.312 69.063 242.333C68.9937 242.353 68.9145 242.371 68.8252 242.387C68.736 242.4 68.649 242.413 68.5644 242.426C68.4798 242.437 68.409 242.446 68.3521 242.453C68.2182 242.47 68.0958 242.499 67.985 242.539C67.8758 242.579 67.7881 242.637 67.7219 242.712C67.6573 242.786 67.625 242.884 67.625 243.007C67.625 243.178 67.688 243.308 67.8142 243.395C67.9404 243.481 68.1012 243.525 68.2967 243.525ZM70.8155 244V240.455H71.4826V241.018H71.5195C71.5842 240.827 71.698 240.677 71.8612 240.568C72.0258 240.457 72.212 240.401 72.4197 240.401C72.4628 240.401 72.5136 240.403 72.5721 240.406C72.6321 240.409 72.679 240.413 72.7129 240.418V241.078C72.6852 241.07 72.6359 241.062 72.5652 241.052C72.4944 241.042 72.4236 241.036 72.3528 241.036C72.1897 241.036 72.0443 241.071 71.9165 241.14C71.7904 241.208 71.6903 241.302 71.6165 241.424C71.5426 241.544 71.5057 241.681 71.5057 241.835V244H70.8155ZM73.3101 244V240.455H74.0003V244H73.3101ZM73.6587 239.907C73.5387 239.907 73.4356 239.867 73.3494 239.787C73.2648 239.706 73.2224 239.609 73.2224 239.497C73.2224 239.383 73.2648 239.286 73.3494 239.206C73.4356 239.124 73.5387 239.083 73.6587 239.083C73.7787 239.083 73.8811 239.124 73.9657 239.206C74.0519 239.286 74.0949 239.383 74.0949 239.497C74.0949 239.609 74.0519 239.706 73.9657 239.787C73.8811 239.867 73.7787 239.907 73.6587 239.907ZM77.5856 241.32L76.96 241.431C76.9339 241.351 76.8923 241.275 76.8354 241.202C76.78 241.13 76.7046 241.071 76.6092 241.025C76.5138 240.979 76.3945 240.955 76.2514 240.955C76.056 240.955 75.8929 240.999 75.7621 241.087C75.6313 241.173 75.5659 241.285 75.5659 241.422C75.5659 241.54 75.6097 241.636 75.6974 241.708C75.7852 241.78 75.9267 241.839 76.1222 241.886L76.6854 242.015C77.0116 242.09 77.2547 242.206 77.4148 242.363C77.5748 242.52 77.6548 242.724 77.6548 242.975C77.6548 243.188 77.5933 243.377 77.4702 243.543C77.3486 243.708 77.1786 243.837 76.96 243.931C76.7431 244.025 76.4915 244.072 76.2053 244.072C75.8082 244.072 75.4843 243.987 75.2335 243.818C74.9827 243.647 74.8288 243.404 74.7718 243.091L75.4389 242.989C75.4805 243.163 75.5659 243.294 75.6951 243.384C75.8244 243.471 75.9929 243.515 76.2006 243.515C76.4268 243.515 76.6077 243.468 76.7431 243.374C76.8785 243.279 76.9462 243.163 76.9462 243.026C76.9462 242.915 76.9047 242.822 76.8216 242.747C76.74 242.671 76.6146 242.614 76.4453 242.576L75.8452 242.444C75.5143 242.369 75.2696 242.249 75.1112 242.084C74.9542 241.92 74.8757 241.711 74.8757 241.459C74.8757 241.249 74.9342 241.066 75.0511 240.909C75.1681 240.752 75.3297 240.63 75.5359 240.542C75.7421 240.453 75.9783 240.408 76.2445 240.408C76.6277 240.408 76.9293 240.491 77.1493 240.658C77.3694 240.822 77.5148 241.043 77.5856 241.32ZM79.9071 244.072C79.5747 244.072 79.2846 243.995 79.0369 243.843C78.7891 243.691 78.5968 243.478 78.4598 243.204C78.3229 242.93 78.2544 242.61 78.2544 242.243C78.2544 241.876 78.3229 241.554 78.4598 241.279C78.5968 241.003 78.7891 240.789 79.0369 240.637C79.2846 240.485 79.5747 240.408 79.9071 240.408C80.2395 240.408 80.5295 240.485 80.7773 240.637C81.0251 240.789 81.2174 241.003 81.3544 241.279C81.4913 241.554 81.5598 241.876 81.5598 242.243C81.5598 242.61 81.4913 242.93 81.3544 243.204C81.2174 243.478 81.0251 243.691 80.7773 243.843C80.5295 243.995 80.2395 244.072 79.9071 244.072ZM79.9094 243.492C80.1248 243.492 80.3033 243.435 80.4449 243.321C80.5865 243.208 80.6911 243.056 80.7588 242.867C80.8281 242.677 80.8627 242.469 80.8627 242.241C80.8627 242.015 80.8281 241.807 80.7588 241.618C80.6911 241.427 80.5865 241.274 80.4449 241.159C80.3033 241.043 80.1248 240.985 79.9094 240.985C79.6924 240.985 79.5124 241.043 79.3693 241.159C79.2277 241.274 79.1223 241.427 79.053 241.618C78.9853 241.807 78.9515 242.015 78.9515 242.241C78.9515 242.469 78.9853 242.677 79.053 242.867C79.1223 243.056 79.2277 243.208 79.3693 243.321C79.5124 243.435 79.6924 243.492 79.9094 243.492ZM83.0203 241.895V244H82.3302V240.455H82.9926V241.032H83.0365C83.118 240.844 83.2458 240.693 83.4197 240.579C83.5951 240.465 83.8159 240.408 84.0821 240.408C84.3237 240.408 84.5353 240.459 84.7169 240.561C84.8985 240.661 85.0393 240.81 85.1393 241.009C85.2393 241.207 85.2893 241.452 85.2893 241.745V244H84.5992V241.828C84.5992 241.571 84.5322 241.37 84.3983 241.225C84.2645 241.079 84.0806 241.006 83.8467 241.006C83.6866 241.006 83.5443 241.041 83.4197 241.11C83.2965 241.179 83.1988 241.281 83.1265 241.415C83.0557 241.547 83.0203 241.707 83.0203 241.895ZM87.9351 244V240.455H88.6022V241.018H88.6392C88.7038 240.827 88.8177 240.677 88.9808 240.568C89.1454 240.457 89.3316 240.401 89.5394 240.401C89.5825 240.401 89.6332 240.403 89.6917 240.406C89.7517 240.409 89.7987 240.413 89.8325 240.418V241.078C89.8048 241.07 89.7556 241.062 89.6848 241.052C89.614 241.042 89.5432 241.036 89.4724 241.036C89.3093 241.036 89.1639 241.071 89.0362 241.14C88.91 241.208 88.81 241.302 88.7361 241.424C88.6622 241.544 88.6253 241.681 88.6253 241.835V244H87.9351ZM91.4298 244.078C91.2052 244.078 91.002 244.037 90.8204 243.954C90.6389 243.869 90.495 243.747 90.3888 243.587C90.2842 243.427 90.2318 243.231 90.2318 242.998C90.2318 242.798 90.2703 242.634 90.3473 242.504C90.4242 242.375 90.5281 242.273 90.6589 242.197C90.7897 242.122 90.9359 242.065 91.0974 242.026C91.259 241.988 91.4237 241.959 91.5914 241.939C91.8038 241.914 91.9761 241.894 92.1084 241.879C92.2408 241.862 92.337 241.835 92.397 241.798C92.457 241.761 92.487 241.701 92.487 241.618V241.602C92.487 241.4 92.4301 241.244 92.3162 241.133C92.2039 241.022 92.0361 240.967 91.813 240.967C91.5806 240.967 91.3975 241.019 91.2636 241.122C91.1313 241.223 91.0397 241.336 90.9889 241.461L90.3403 241.313C90.4173 241.098 90.5296 240.924 90.6773 240.792C90.8266 240.658 90.9982 240.561 91.1921 240.501C91.386 240.439 91.5899 240.408 91.8038 240.408C91.9453 240.408 92.0954 240.425 92.2539 240.459C92.4139 240.491 92.5632 240.551 92.7017 240.639C92.8417 240.727 92.9563 240.852 93.0456 241.015C93.1348 241.177 93.1795 241.387 93.1795 241.646V244H92.5055V243.515H92.4778C92.4331 243.605 92.3662 243.692 92.2769 243.778C92.1877 243.865 92.073 243.936 91.933 243.993C91.793 244.05 91.6253 244.078 91.4298 244.078ZM91.5799 243.525C91.7707 243.525 91.9338 243.487 92.0692 243.411C92.2062 243.336 92.31 243.238 92.3808 243.116C92.4531 242.993 92.4893 242.861 92.4893 242.721V242.264C92.4647 242.289 92.417 242.312 92.3462 242.333C92.2769 242.353 92.1977 242.371 92.1084 242.387C92.0192 242.4 91.9322 242.413 91.8476 242.426C91.763 242.437 91.6922 242.446 91.6353 242.453C91.5014 242.47 91.379 242.499 91.2682 242.539C91.159 242.579 91.0713 242.637 91.0051 242.712C90.9405 242.786 90.9082 242.884 90.9082 243.007C90.9082 243.178 90.9713 243.308 91.0974 243.395C91.2236 243.481 91.3844 243.525 91.5799 243.525ZM95.7537 240.455V241.009H93.8171V240.455H95.7537ZM94.3365 239.605H95.0266V242.959C95.0266 243.093 95.0466 243.194 95.0866 243.261C95.1267 243.328 95.1782 243.373 95.2413 243.398C95.3059 243.421 95.3759 243.432 95.4513 243.432C95.5067 243.432 95.5552 243.428 95.5968 243.421C95.6383 243.413 95.6706 243.407 95.6937 243.402L95.8184 243.972C95.7783 243.988 95.7214 244.003 95.6475 244.018C95.5737 244.035 95.4814 244.045 95.3706 244.046C95.189 244.049 95.0197 244.017 94.8627 243.949C94.7058 243.882 94.5788 243.777 94.4819 243.635C94.3849 243.494 94.3365 243.316 94.3365 243.102V239.605ZM98.0071 244.072C97.6578 244.072 97.357 243.997 97.1046 243.848C96.8538 243.697 96.6599 243.485 96.5229 243.213C96.3875 242.939 96.3198 242.618 96.3198 242.25C96.3198 241.887 96.3875 241.567 96.5229 241.29C96.6599 241.013 96.8507 240.797 97.0954 240.642C97.3416 240.486 97.6294 240.408 97.9587 240.408C98.1587 240.408 98.3526 240.441 98.5403 240.508C98.7281 240.574 98.8966 240.678 99.0459 240.819C99.1951 240.961 99.3128 241.145 99.399 241.371C99.4852 241.596 99.5283 241.869 99.5283 242.19V242.435H96.7099V241.918H98.852C98.852 241.736 98.815 241.576 98.7412 241.436C98.6673 241.294 98.5634 241.182 98.4296 241.101C98.2972 241.019 98.1418 240.979 97.9633 240.979C97.7694 240.979 97.6001 241.026 97.4555 241.122C97.3124 241.215 97.2016 241.339 97.1231 241.491C97.0462 241.642 97.0077 241.806 97.0077 241.983V242.387C97.0077 242.624 97.0492 242.825 97.1323 242.991C97.217 243.157 97.3347 243.284 97.4855 243.372C97.6363 243.458 97.8125 243.501 98.0141 243.501C98.1449 243.501 98.2641 243.483 98.3718 243.446C98.4796 243.408 98.5727 243.351 98.6511 243.275C98.7296 243.2 98.7896 243.107 98.8312 242.996L99.4844 243.114C99.4321 243.306 99.3382 243.474 99.2028 243.619C99.0689 243.762 98.9004 243.874 98.6973 243.954C98.4957 244.032 98.2657 244.072 98.0071 244.072ZM101.275 241.932L101.319 240.958L100.497 241.486L100.246 241.048L101.118 240.602L100.246 240.157L100.497 239.718L101.319 240.247L101.275 239.273H101.776L101.732 240.247L102.554 239.718L102.805 240.157L101.933 240.602L102.805 241.048L102.554 241.486L101.732 240.958L101.776 241.932H101.275Z" fill="#404042" fill-opacity="0.6"/>
</g>
<defs>
<clipPath id="clip0_3_78">
<rect width="300" height="250" fill="white"/>
</clipPath>
</defs>
</svg>
