<?xml version="1.0" encoding="utf-8"?>
<!-- Generator: Adobe Illustrator 25.2.3, SVG Export Plug-In . SVG Version: 6.00 Build 0)  -->
<svg version="1.1" id="Layer_1" xmlns="http://www.w3.org/2000/svg" xmlns:xlink="http://www.w3.org/1999/xlink" x="0px" y="0px"
	 viewBox="0 0 320 100" style="enable-background:new 0 0 320 100;" xml:space="preserve">
<style type="text/css">
	.st0{fill:#064854;}
	.st1{fill:#FFFFFF;}
	.st2{fill:#76A8A5;}
</style>
<g id="Overlays">
	<rect x="8" y="8.1" class="st0" width="304" height="83.9"/>
	<path class="st1" d="M55.9,35.1h0.4c0.1,0,0.3,0,0.4,0c0-0.2-0.1-0.5-0.1-0.7s-0.1-0.4-0.1-0.7s-0.1-0.3-0.1-0.5s0-0.2,0-0.3
		c0-0.1,0-0.1-0.1-0.2c0,0-0.1,0-0.2,0H56c0,0.2-0.1,0.4-0.1,0.6L55.7,34c0,0.2-0.1,0.4-0.1,0.6c0,0.2-0.1,0.4-0.1,0.6L55.9,35.1
		L55.9,35.1z M57.6,38.2c-0.1,0-0.2,0-0.3,0c-0.1-0.3-0.1-0.6-0.2-0.9s-0.1-0.6-0.2-0.9h-0.7h-1c-0.1,0.6-0.2,1.1-0.4,1.7h-0.3h-0.8
		h-0.2c0.1-0.5,0.2-1.1,0.3-1.7s0.3-1.2,0.4-1.8s0.3-1.2,0.5-1.8s0.3-1.1,0.4-1.7h0.3h1.1h0.8c0,0.2,0.1,0.5,0.2,0.8
		s0.2,0.8,0.3,1.2s0.2,0.9,0.3,1.4s0.2,1,0.3,1.4s0.2,0.8,0.2,1.2c0,0.2,0.1,0.4,0.1,0.7v0.3L57.6,38.2z"/>
	<path class="st1" d="M66.8,38.1h-0.4h-0.7h-0.3c0-0.4-0.1-0.8-0.1-1.2c0-0.4,0-0.8,0-1.2s0-0.8,0-1.2v-1.2h-0.1
		c-0.1,0.3-0.1,0.6-0.2,0.9c-0.1,0.3-0.2,0.5-0.3,0.8s-0.2,0.5-0.4,0.8s-0.3,0.5-0.4,0.8c-0.1,0-0.2,0-0.3,0.1c-0.1,0-0.2,0-0.3,0
		H63h-0.2l-0.2,0l-0.3-0.1c-0.2-0.5-0.4-1-0.6-1.5c-0.2-0.5-0.4-1-0.5-1.6h-0.1v1.6c0,0.5,0,1,0,1.5c0,0.5,0,1,0,1.5h-0.3h-0.3h-0.5
		c-0.2,0-0.3,0-0.5,0c0-0.5-0.1-1-0.1-1.6s0-1.1,0-1.6s0-1.1,0-1.6s0-1.1,0-1.6v-0.3c0-0.1,0-0.2,0-0.3h0.6H61c0.1,0,0.2,0,0.3,0
		l0.3,0.1c0.2,0.7,0.4,1.3,0.7,2c0.3,0.6,0.5,1.3,0.8,1.9c0.2-0.5,0.3-0.9,0.5-1.2s0.3-0.7,0.4-1s0.2-0.6,0.3-0.9
		c0.1-0.3,0.2-0.6,0.3-0.9h0.5h1.2h0.3c0.1,0.5,0.1,1,0.1,1.6c0,0.5,0,1.1,0,1.6s0,1.1,0,1.6s0,1.1,0,1.6L66.8,38.1z"/>
	<path class="st1" d="M69.3,34.3c0,0,0.1,0,0.2,0h0.7c0.2,0,0.5,0,0.7-0.1c0.2-0.1,0.4-0.2,0.5-0.3c0.1-0.2,0.2-0.4,0.2-0.6
		c0-0.2,0-0.4-0.1-0.6c-0.1-0.1-0.2-0.2-0.4-0.3c-0.2-0.1-0.3-0.1-0.5-0.2c-0.2,0-0.4,0-0.6,0h-0.4c-0.1,0-0.1,0-0.2,0
		c-0.1,0-0.1,0.1-0.1,0.1c0,0.2,0,0.4,0,0.6s0,0.4,0,0.6s0,0.2,0,0.3C69.3,34,69.3,34.1,69.3,34.3 M67.7,38c0-0.3-0.1-0.6-0.1-0.9
		c0-0.3,0-0.6,0-0.9s0-0.6,0-1s0-0.6,0-0.9s0-0.5,0-0.8s0-0.6,0-0.8s0-0.6,0-0.8c0-0.3,0-0.5,0.1-0.8c0.1,0,0.2-0.1,0.3-0.1h1.3
		c0.3,0,0.7,0,1.1,0c0.3,0,0.7,0.1,1,0.1c0.3,0.1,0.6,0.2,0.9,0.4c0.3,0.2,0.5,0.4,0.6,0.7c0.2,0.3,0.2,0.7,0.2,1
		c0,0.3-0.1,0.7-0.2,1c-0.2,0.3-0.4,0.5-0.6,0.7c-0.3,0.2-0.6,0.4-0.9,0.5c-0.4,0.1-0.7,0.2-1.1,0.2h-0.9c0,0.2,0,0.5,0,0.7
		s0,0.5,0,0.7s0,0.3,0,0.5c0,0.2,0,0.3,0,0.5c-0.1,0-0.3,0.1-0.4,0h-0.8C68,38,67.9,38,67.7,38"/>
	<path class="st1" d="M77.5,33.9c0.1,0,0.3,0,0.4,0c0.1,0,0.2-0.1,0.3-0.1c0.2-0.1,0.4-0.4,0.3-0.6c0-0.2,0-0.3-0.1-0.5
		c-0.1-0.1-0.2-0.2-0.4-0.2c-0.2-0.1-0.3-0.1-0.5-0.1h-2.1c-0.1,0-0.2,0-0.3,0c-0.1,0-0.1,0.1-0.1,0.2s0,0.3,0,0.5v0.8
		c0,0,0,0.1,0.1,0.1h0.1L77.5,33.9z M75,36.9C75.1,36.9,75.1,36.9,75,36.9l2.5,0.1c0.2,0,0.4,0,0.6-0.1c0.2-0.1,0.4-0.2,0.5-0.3
		c0.1-0.2,0.2-0.4,0.2-0.6c0-0.2-0.1-0.4-0.2-0.5c-0.2-0.1-0.3-0.2-0.5-0.2c-0.2-0.1-0.4-0.1-0.6-0.1h-2.2c-0.1,0-0.1,0-0.2,0
		c0,0.1,0,0.1,0,0.2c0,0.2,0,0.5,0,0.8S75,36.6,75,36.9 M79.4,34.3c0.3,0.2,0.6,0.4,0.8,0.6c0.2,0.3,0.3,0.6,0.3,0.9
		c0,0.4-0.1,0.8-0.2,1.2c-0.1,0.3-0.3,0.5-0.6,0.7c-0.2,0.2-0.5,0.3-0.8,0.4c-0.3,0.1-0.7,0.1-1,0.2c-0.3,0-2.3,0-2.7,0h-1h-0.3
		c-0.1,0-0.1,0-0.2,0c-0.1,0-0.1-0.1-0.1-0.1c0-0.1,0-0.2,0-0.3v-6.2c0-0.1,0.1-0.3,0.2-0.3c0.2-0.1,0.4-0.1,0.6-0.1
		c0.2,0,0.4,0,0.7,0h2.2c0.3,0,0.7,0,1,0c0.3,0,0.6,0.1,0.9,0.2c0.3,0.1,0.5,0.3,0.7,0.5c0.2,0.3,0.3,0.6,0.3,1
		c0,0.3-0.1,0.5-0.2,0.7C79.8,33.9,79.6,34.1,79.4,34.3L79.4,34.3z"/>
	<path class="st1" d="M84.2,38.1c-0.5,0-1,0-1.5,0c-0.5,0-1,0-1.5-0.1c-0.1-0.5-0.1-1-0.1-1.4c0-0.5,0-1,0-1.6s0-1.1,0-1.6
		s0-1,0-1.5v-0.8h0.4h4.1h0.5c0,0.2,0,0.4,0,0.6v0.3c0,0.1,0,0.2,0,0.3h-0.3h-0.3H84c-0.4,0-0.9,0-1.3,0.1c0,0.1,0,0.1,0,0.2v1.2
		c0.4,0,0.8,0,1.1,0c0.4,0,1.2,0,1.6,0c0,0,0,0,0,0.1c0,0,0,0.1,0,0.2L85.4,35c0,0,0,0.1-0.1,0.1h-0.2c-0.1,0-0.1,0-0.2,0h-1.3
		c-0.3,0-0.6,0-0.9,0v0.6v0.9c0.2,0.1,0.4,0.1,0.6,0.1c0.3,0,0.6,0,0.9,0c0.3,0,1,0,1.3,0c0.3,0,0.5,0,0.8,0c0,0.1,0,0.2,0,0.3
		c0,0.1,0,0.2,0,0.3s0,0.2,0,0.3s0,0.2,0,0.3L84.2,38.1z"/>
	<path class="st1" d="M87,31.2h0.5H88c0.1,0,0.3,0,0.4,0c0.1,0.6,0.1,1.3,0.1,1.9v2.8c0,0.3,0,0.6,0,0.9c0.5,0,1,0,1.5,0
		c0.4,0,0.8,0,1.2,0c0,0.2,0.1,0.3,0.1,0.5c0,0.2,0,0.3,0,0.5c0,0.1,0,0.2,0,0.3c-0.1,0-0.3,0-0.4,0h-1.9c-0.6,0-1.3,0-1.9-0.1
		c-0.1-0.5-0.1-1-0.1-1.5s0-1,0-1.6s0-1,0-1.6s0-1,0-1.5L87,31.2z"/>
	<path class="st1" d="M91.7,31.2h0.5h0.5c0.2,0,0.3,0,0.5,0c0.1,0.6,0.1,1.3,0.1,1.9v2.8c0,0.3,0,0.6,0,0.9c0.5,0,1,0,1.5,0
		c0.4,0,0.8,0,1.2,0c0,0.2,0.1,0.3,0.1,0.5c0,0.2,0,0.3,0,0.5c0,0.1,0,0.2,0,0.3c-0.1,0-0.3,0-0.4,0h-1.9c-0.6,0-1.3,0-1.9-0.1
		c0-0.5-0.1-1-0.1-1.5s0-1,0-1.6s0-1,0-1.6s0-1,0-1.5L91.7,31.2z"/>
	<path class="st1" d="M49.8,38.1c-0.5,0-1,0-1.5,0c-0.5,0-1,0-1.5-0.1c-0.1-0.5-0.1-1-0.1-1.4c0-0.5,0-1,0-1.6s0-1.1,0-1.6
		s0-1,0-1.5v-0.8h0.4h4.7h0.5c0,0.2,0,0.4,0,0.6v0.3c0,0.1,0,0.2,0,0.3H52h-0.3h-2.2c-0.4,0-0.9,0-1.3,0.1c0,0.1,0,0.1,0,0.2v4
		c0.2,0.1,0.4,0.1,0.6,0.1c0.3,0,0.6,0,0.9,0c0.3,0,1.5,0,1.8,0c0.3,0,0.5,0,0.8,0c0,0.1,0,0.2,0,0.3c0,0.1,0,0.2,0,0.3
		c0,0.1,0,0.2,0,0.3c0,0.1,0,0.2,0,0.3L49.8,38.1z"/>
	<path class="st1" d="M100.6,34.3c0,0,0.1,0.1,0.1,0.1c0,0,0.1,0,0.1,0h0.7c0.5,0,1,0,1.5-0.1c0.2-0.1,0.4-0.1,0.5-0.3
		c0.1-0.2,0.2-0.4,0.2-0.6c0-0.2-0.1-0.4-0.2-0.6c-0.1-0.1-0.3-0.2-0.5-0.3c-0.5-0.1-1-0.1-1.4-0.1H101c-0.1,0-0.1,0-0.2,0
		c0,0-0.1,0-0.1,0.1c0,0,0,0.1,0,0.1v0.6c0,0.1,0,0.3,0,0.4L100.6,34.3z M103.9,38.2c-0.1-0.1-0.2-0.3-0.3-0.5
		c-0.1-0.2-0.2-0.5-0.3-0.8s-0.2-0.5-0.3-0.8s-0.2-0.4-0.2-0.6c-0.4,0-0.8-0.1-1.2-0.1h-0.7h-0.3c0,0.1,0,0.2,0,0.3v0.3v1
		c0,0.3,0,0.7,0,1l-0.5,0.1h-1c-0.1-0.2-0.1-0.3-0.1-0.5c0-0.3,0-0.7,0-1.1s0-0.9,0-1.3s0-1,0-1.4s0-0.8,0-1.2V32c0-0.1,0-0.2,0-0.4
		c0-0.1,0-0.2,0-0.4c0.2,0,0.5,0,0.7,0h1.6c0.3,0,1.4,0,1.7,0.1c0.3,0,0.6,0.1,0.8,0.2c0.3,0.1,0.5,0.2,0.7,0.4
		c0.2,0.2,0.4,0.4,0.5,0.6c0.1,0.3,0.2,0.6,0.2,0.9c0,0.2,0,0.4-0.1,0.6c0,0.2-0.1,0.3-0.2,0.5c-0.1,0.2-0.2,0.3-0.3,0.4
		c-0.2,0.1-0.3,0.3-0.5,0.4c0.1,0.2,0.2,0.5,0.3,0.7c0.1,0.2,0.2,0.5,0.4,0.7s0.2,0.5,0.3,0.7c0.1,0.2,0.2,0.5,0.2,0.7h-0.1h-0.1
		H103.9z"/>
	<path class="st1" d="M107.4,38.3h-1.2h-0.1c0-0.2,0-2.5,0-2.7s0-0.9,0-1v-2.3c0-0.2,0-0.3,0-0.5v-0.5h0.4h0.4h0.7h0.1h0.1
		c0,1.1,0.1,5.6,0,7L107.4,38.3z"/>
	<path class="st1" d="M111.8,38.3h-1.5c-0.1-0.3-0.2-0.5-0.3-0.8c-0.1-0.4-0.2-0.8-0.3-1.2s-0.2-0.9-0.4-1.4s-0.2-1-0.3-1.4
		s-0.2-0.8-0.3-1.2s-0.1-0.6-0.1-0.8h0.2h1.2c0.2,0.4,0.4,0.8,0.6,1.3c0.2,0.4,0.3,0.9,0.4,1.3s0.2,0.9,0.3,1.4s0.2,0.9,0.3,1.3h0.1
		c0-0.2,0.1-0.4,0.2-0.7s0.2-0.6,0.2-1s0.2-0.7,0.3-1.1s0.2-0.8,0.3-1.1s0.2-0.6,0.3-0.9c0.1-0.2,0.2-0.4,0.3-0.5h1.4
		c0,0.3-0.1,0.5-0.1,0.8c-0.1,0.3-0.2,0.8-0.3,1.2l-0.4,1.4c-0.2,0.5-0.3,1-0.5,1.4s-0.3,0.9-0.4,1.3s-0.2,0.7-0.3,0.9L111.8,38.3z"
		/>
	<path class="st1" d="M118.1,38.2c-0.5,0-1,0-1.5,0c-0.5,0-1,0-1.5-0.1c-0.1-0.5-0.1-1-0.1-1.4c0-0.5,0-1,0-1.6s0-1.1,0-1.6
		s0-1,0-1.5v-0.8c0.1,0,0.3,0,0.4,0h4.2h1.3c0,0.2,0,0.4,0,0.6v0.3c0,0.1,0,0.2,0,0.3h-0.3h-1.1h-1.8c-0.4,0-0.9,0-1.3,0.1
		c0,0.1,0,0.1,0,0.2v0.2v1c0.4,0,0.7,0,1.1,0c0.4,0,1.3,0,1.8,0c0.3,0,0.3,0,0,0.1c0,0,0,0.1,0,0.2l-0.1,0.9c0,0,0,0.1-0.1,0.1h-0.2
		h-0.7h-1.1c-0.3,0-0.6,0-0.9,0v0.6v0.9c0.2,0.1,0.4,0.1,0.6,0.1c0.3,0,0.6,0,0.9,0h1.4c0.3,0,1.3,0,1.6,0c0,0.1,0,0.2,0,0.3
		s0,0.2,0,0.3s0,0.2,0,0.3s0,0.2,0,0.3L118.1,38.2z"/>
	<path class="st1" d="M123.1,34.3c0,0,0.1,0.1,0.1,0.1h0.1h1.5c0.2,0,0.5,0,0.7-0.1c0.2,0,0.4-0.1,0.5-0.2c0.1-0.2,0.2-0.4,0.2-0.6
		c0-0.2-0.1-0.4-0.2-0.6c-0.1-0.1-0.3-0.2-0.5-0.3c-0.2-0.1-0.4-0.1-0.6-0.1h-1.5c-0.1,0-0.1,0-0.2,0c0,0-0.1,0.1-0.1,0.1
		c0,0,0,0.1,0,0.1v0.6c0,0.1,0,0.3,0,0.4L123.1,34.3z M128.4,36.9c0,0.2,0.1,0.4,0.1,0.5c0,0.2,0,0.4,0.1,0.6c0,0.1,0,0.2-0.1,0.2
		c-0.1,0-0.2,0.1-0.3,0.1c-0.1,0-0.2,0-0.3,0h-0.3c-0.3,0-0.5,0-0.8-0.2c-0.2-0.1-0.4-0.3-0.6-0.4c-0.2-0.2-0.3-0.4-0.5-0.6
		c-0.1-0.3-0.3-0.5-0.4-0.8l-0.2-0.7c-0.1,0-0.2-0.1-0.3-0.1h-1.4h-0.3c0,0.1,0,0.2,0,0.3v0.3v1c0,0.3,0,0.7,0,1l-0.5,0.1h-1
		c-0.1-0.2-0.1-0.3-0.1-0.5c0-0.3,0-0.7,0-1.1s0-0.9,0-1.3s0-1,0-1.4s0-0.8,0-1.2v-0.7c0-0.1,0-0.2,0-0.4c0-0.1,0-0.2,0-0.4
		c0.2,0,0.5-0.1,0.7,0h2.5c0.3,0,0.6,0,0.9,0.1c0.3,0,0.6,0.1,0.8,0.2c0.3,0.1,0.5,0.2,0.7,0.4c0.2,0.2,0.4,0.4,0.5,0.6
		c0.1,0.3,0.2,0.6,0.2,0.9c0,0.2,0,0.4-0.1,0.6c0,0.2-0.1,0.3-0.2,0.5c-0.1,0.2-0.3,0.3-0.4,0.4c-0.2,0.1-0.4,0.3-0.6,0.4
		c0.1,0.2,0.1,0.4,0.2,0.5c0.1,0.2,0.2,0.4,0.3,0.5c0.1,0.1,0.2,0.3,0.4,0.4c0.1,0.1,0.2,0.1,0.4,0.1h0.2
		C128.1,36.8,128.2,36.8,128.4,36.9L128.4,36.9z"/>
	<path class="st1" d="M96.1,64.9L96.1,64.9h-0.2h-0.2c-0.1,0-0.3,0-0.4,0.1c-0.1,0.1-0.2,0.1-0.4,0.2l-0.1,0.1l-0.2,0.1
		c-0.1,0-0.2,0.1-0.3,0.2l-0.2,0.1c-0.1,0.1-0.2,0.1-0.2,0.2l0,0c-0.1,0.1-0.3,0.2-0.4,0.2c-0.2,0-0.4,0.1-0.6,0.1
		c-0.2,0-0.4,0-0.5-0.1h-0.2H92h-0.2l0,0l-0.3-0.2l-0.3-0.2l-0.1-0.1c-0.1-0.1-0.3-0.2-0.4-0.3l-0.2-0.1L90.4,65
		c-0.1,0-0.1-0.1-0.2-0.1h-0.1L90,64.8c-0.2-0.1-0.3-0.1-0.5-0.2c-0.2,0-0.4,0-0.6,0h-0.2c-0.2,0-0.4,0-0.6,0
		c-0.2,0-0.4,0.1-0.6,0.2c-0.1,0.1-0.2,0.1-0.3,0.2L87,65.2l-0.1,0.1c-0.1,0.1-0.2,0.1-0.3,0.2c-0.1,0.1-0.2,0.1-0.3,0.2L86,65.7
		l-0.1,0.1c-0.1,0.1-0.2,0.1-0.3,0.2h-0.1C85.3,66,85.2,66,85,66c-0.2,0-0.4,0-0.6,0c-0.1,0-0.2-0.1-0.3-0.2l-0.2-0.1
		c-0.1,0-0.1-0.1-0.2-0.2l-0.2-0.2c-0.1-0.1-0.2-0.1-0.3-0.2L83,65.2c-0.2-0.1-0.3-0.2-0.5-0.2c-0.2-0.1-0.4-0.1-0.6-0.1h-0.2
		c-0.1,0-0.3-0.1-0.4-0.1h-0.2c-0.2,0-0.3,0-0.5,0c-0.2,0-0.3,0.1-0.5,0.2H80h-0.1c-0.2,0-0.3,0.1-0.4,0.2l-0.4,0.3L79,65.4l0,0l0,0
		c0,0.2,0,0.3,0.1,0.5l0.1,0.1c0.1,0.1,0.1,0.1,0.2,0.1c0.1,0,0.1,0,0.2-0.1h0.1l0.1-0.1c0.1-0.1,0.3-0.2,0.5-0.3
		c0.2-0.1,0.3-0.2,0.5-0.2c0.1,0,0.2,0,0.3,0h0.3c0.2,0,0.4,0,0.6,0c0.2,0,0.3,0.1,0.5,0.2c0.1,0,0.1,0.1,0.2,0.2l0.2,0.2
		c0.1,0.1,0.3,0.2,0.5,0.3l0,0c0.1,0.1,0.2,0.1,0.4,0.1c0.1,0,0.2,0,0.2,0.1h0.1c0.1,0.1,0.3,0.1,0.5,0.1c0.2,0,0.4,0.1,0.6,0.1
		c0.2,0,0.3,0,0.4-0.1h0.2h0.2c0.1,0,0.3,0,0.4-0.1c0.1,0,0.3-0.1,0.4-0.2l0.1-0.1l0.2-0.1c0.1,0,0.2-0.1,0.3-0.2l0.2-0.1l0.2-0.2
		l0,0c0.1-0.1,0.3-0.1,0.4-0.2c0.4-0.1,0.7-0.1,1.1,0h0.1h0.1h0.2l0.1,0.1l0.3,0.2l0.3,0.2l0.1,0.1l0.4,0.3l0.2,0.1l0.1,0.1
		c0.1,0,0.1,0.1,0.2,0.1h0.1l0.2,0.1c0.1,0.1,0.3,0.1,0.5,0.2c0.2,0,0.4,0,0.6,0h0.2c0.2,0,0.4,0,0.6,0c0.2,0,0.4-0.1,0.6-0.2
		c0.1,0,0.2-0.1,0.3-0.2l0.2-0.1l0.1-0.1L95,66c0.1-0.1,0.2-0.1,0.3-0.2l0.2-0.1l0.1-0.1c0.1-0.1,0.2-0.1,0.3-0.2H96h0.2l0.1-0.2
		c0,0,0-0.1,0-0.1c0-0.1,0.1-0.3,0-0.3S96.1,64.8,96.1,64.9"/>
	<path class="st1" d="M96,66.8c0,0-0.1,0-0.2,0c-0.2,0-0.4,0.1-0.6,0.1c-0.1,0-0.2,0.1-0.3,0.2c0,0-0.1,0.1-0.1,0.1l-0.1,0.1
		c-0.1,0.1-0.2,0.1-0.3,0.2c-0.1,0.1-0.3,0.2-0.4,0.2c-0.1,0.1-0.3,0.1-0.5,0.1h-0.1C93.2,68,93.1,68,93,68c-0.1,0-0.3,0-0.4,0h-0.2
		h-0.1c-0.2,0-0.3,0-0.5-0.1c-0.1,0-0.2-0.1-0.3-0.2l-0.1-0.1l-0.1-0.1L91,67.4c-0.1,0-0.2-0.1-0.3-0.1l-0.3-0.2l0,0l0,0
		c-0.1-0.1-0.2-0.1-0.3-0.1C90.1,67,90,67,89.9,66.9c-0.2-0.1-0.4-0.1-0.7-0.1c-0.1,0-0.3,0-0.4,0h-0.3c-0.1,0-0.2,0-0.3,0
		c-0.1,0-0.2,0-0.3,0c-0.1,0-0.3,0.1-0.4,0.1c-0.1,0-0.1,0.1-0.2,0.1l-0.2,0.1c-0.1,0-0.2,0.1-0.4,0.1c-0.1,0.1-0.2,0.1-0.2,0.2
		l-0.2,0.1c-0.1,0.1-0.2,0.1-0.3,0.2L86,67.8c-0.1,0.1-0.3,0.1-0.5,0.1h-0.1C85.3,68,85.2,68,85,68c-0.2,0-0.4,0-0.6-0.1
		c-0.2,0-0.3-0.1-0.5-0.2l-0.2-0.1l-0.3-0.1l-0.2-0.1c-0.1-0.1-0.2-0.1-0.3-0.2c-0.2-0.1-0.3-0.2-0.5-0.2l0,0l-0.2-0.1
		c-0.1-0.1-0.3-0.1-0.4-0.2c-0.2,0-0.4,0-0.6,0c-0.2,0-0.4,0-0.6,0.1h-0.1h-0.2c-0.1,0-0.3,0-0.4,0.1c-0.1,0-0.2,0.1-0.3,0.2
		c-0.1,0-0.1,0.1-0.2,0.1l-0.4,0.3c-0.1,0.2-0.1,0.4,0,0.5c0.1,0.2,0.4,0.2,0.6,0.1l0,0c0,0,0,0,0.1,0c0.1-0.1,0.1-0.1,0.2-0.2
		c0-0.1,0.1-0.1,0.2-0.2c0.2-0.1,0.3-0.2,0.5-0.2c0.2,0,0.4-0.1,0.6-0.1c0.2,0,0.4,0,0.6,0.1l0,0c0.2,0,0.3,0.1,0.5,0.2
		c0.2,0.1,0.3,0.2,0.4,0.3l0.2,0.1c0.1,0.1,0.2,0.1,0.3,0.2l0.1,0.1c0.1,0.1,0.3,0.2,0.4,0.2c0.1,0,0.3,0.1,0.4,0.1h0.2l0.2,0.1
		c0.1,0.1,0.3,0.1,0.4,0.1c0.2,0,0.4,0,0.6,0c0.1,0,0.3-0.1,0.4-0.1l0.2-0.1c0.1,0,0.1,0,0.2-0.1c0.1,0,0.2-0.1,0.3-0.1
		c0.1-0.1,0.2-0.1,0.2-0.2c0-0.1,0.1-0.2,0.2-0.3c0.1-0.1,0.2-0.1,0.3-0.2l0.2-0.1l0.1-0.1c0.1-0.1,0.2-0.1,0.3-0.2
		c0.1,0,0.2,0,0.2,0c0.1,0,0.2,0,0.3,0h0.2c0.1,0,0.3,0,0.4,0h0.2c0.2,0,0.3,0,0.4,0.1c0.1,0.1,0.2,0.1,0.3,0.2l0.2,0.1
		c0.1,0,0.1,0.1,0.2,0.1l0.1,0.1l0.1,0.1l0,0l0.2,0.2l0.1,0.1l0.4,0.1l0,0c0.1,0,0.3,0,0.4,0h0.3h0.2c0.2,0,0.3,0.1,0.5,0.1
		c0.2,0,0.4,0,0.6-0.1l0,0c0.2,0,0.4-0.1,0.6-0.1c0.1,0,0.2-0.1,0.3-0.2c0,0,0.1-0.1,0.1-0.1c0.1,0,0.1-0.1,0.2-0.1
		c0.1,0,0.2-0.1,0.3-0.1l0,0c0.1-0.1,0.2-0.2,0.3-0.2h0.1c0.1-0.1,0.2-0.1,0.3-0.1c0.1-0.1,0.2-0.2,0.2-0.3c0-0.2-0.1-0.4-0.2-0.5"
		/>
	<path class="st1" d="M96.4,63.4l-0.1-0.2c0-0.1-0.1-0.2-0.1-0.3c-0.1,0-0.1,0-0.2-0.1h-0.1c-0.1,0-0.3,0.1-0.4,0.1L95.3,63
		l-0.2,0.1c-0.1,0-0.2,0.1-0.4,0.1c-0.1,0.1-0.2,0.1-0.2,0.2l-0.1,0.1c-0.1,0.1-0.2,0.1-0.3,0.2L94,63.8l-0.1,0.1
		c-0.1,0.1-0.2,0.1-0.3,0.1c-0.1,0-0.2,0-0.2,0c-0.1,0-0.2,0-0.3,0h-0.2c-0.1,0-0.3,0-0.4,0h-0.2c-0.2,0-0.3,0-0.4-0.1
		c-0.1-0.1-0.2-0.1-0.3-0.2l-0.2-0.1l-0.2-0.1l-0.1-0.1l-0.1-0.1l0,0l-0.2-0.2L90.4,63c-0.1-0.1-0.3-0.1-0.4-0.1c-0.1,0-0.3,0-0.4,0
		h-0.3H89c-0.2,0-0.3,0-0.5,0c-0.2,0-0.4,0-0.6,0l0,0c-0.2,0-0.4,0.1-0.6,0.1c-0.1,0-0.2,0.1-0.3,0.2l-0.1,0.1l-0.2,0.1
		c-0.1,0-0.2,0.1-0.3,0.1l0,0c-0.1,0.1-0.2,0.2-0.3,0.2H86c-0.1,0.1-0.2,0.1-0.4,0.2C85.4,64,85.2,64,85,64c-0.2,0-0.3,0-0.5,0
		c-0.2,0-0.3-0.1-0.4-0.2l-0.2-0.1c-0.1,0-0.2-0.1-0.3-0.1l-0.1-0.1c-0.1-0.1-0.2-0.1-0.3-0.2c0,0-0.1-0.1-0.1-0.1
		c-0.1-0.1-0.2-0.1-0.3-0.2c-0.1,0-0.3-0.1-0.4-0.1h-0.2c-0.2,0-0.4,0-0.6,0h-0.2c-0.1,0-0.3,0-0.4,0L80.3,63h-0.1
		c-0.2,0-0.3,0.1-0.4,0.2l-0.2,0.1l0,0c-0.2,0.1-0.3,0.2-0.5,0.3c0,0,0,0,0,0.1c0,0.1,0.1,0.2,0.1,0.3l0,0l0,0c0,0,0,0.1,0.1,0.1
		l0.1,0.1c0.1,0.1,0.2,0.1,0.3,0c0.1-0.1,0.3-0.2,0.4-0.2l0.1,0c0.2-0.1,0.4-0.1,0.6-0.2h0.2c0.1,0,0.3-0.1,0.4-0.1
		c0.1,0,0.3,0,0.4,0.1H82c0.2,0,0.3,0.1,0.5,0.2l0.3,0.2l0.1,0.1c0.1,0.1,0.2,0.1,0.3,0.2l0.2,0.1l0.1,0.1c0.1,0.1,0.2,0.1,0.3,0.2
		c0.1,0,0.3,0,0.4,0c0.1,0,0.2,0,0.2,0c0.2,0,0.4,0,0.6,0h0.2c0.1,0,0.2,0,0.4,0c0.2,0,0.4-0.1,0.6-0.1c0.1,0,0.2-0.1,0.3-0.2
		l0.1-0.1l0.1-0.1l0.3-0.2l0.4-0.2c0.1-0.1,0.3-0.1,0.5-0.2h0.2c0.1,0,0.2-0.1,0.4-0.1c0.1,0,0.3,0,0.4,0h0.2h0.1
		c0.2,0,0.3,0,0.5,0.1c0.1,0,0.2,0.1,0.3,0.2l0.1,0.1h0.1l0.2,0.2c0.1,0.1,0.2,0.1,0.3,0.1l0.3,0.2h0.1c0.1,0.1,0.2,0.1,0.3,0.1
		c0.1,0.1,0.2,0.1,0.3,0.1c0.2,0.1,0.4,0.1,0.7,0.1c0.1,0,0.3,0,0.4,0H93h0.2h0.1c0.3-0.1,0.6-0.1,0.9-0.2s0.4-0.1,0.6-0.2l0.1-0.1
		c0,0,0.1-0.1,0.1-0.1c0.1-0.1,0.2-0.1,0.3-0.2l0.2-0.1c0.2,0,0.3-0.1,0.5-0.1l0,0h0.1C96.2,63.6,96.3,63.5,96.4,63.4L96.4,63.4"/>
	<rect x="101" y="65.1" class="st2" width="44" height="0.6"/>
	<rect x="30.2" y="65.1" class="st2" width="43.6" height="0.6"/>
	<path class="st1" d="M26.7,51.2c0-0.7,0.1-1.4,0.3-2.1c0.2-0.6,0.5-1.3,0.8-1.8c0.4-0.5,0.8-0.9,1.4-1.2c0.6-0.3,1.3-0.5,2-0.5
		c0.4,0,0.8,0,1.1,0.1c0.4,0.1,0.8,0.2,1.1,0.4c0.3,0.2,0.7,0.4,1,0.7c0.3,0.3,0.5,0.6,0.7,0.9c-0.1,0.2-0.3,0.3-0.5,0.5
		c-0.2,0.1-0.3,0.3-0.5,0.4c-0.1,0.1-0.3,0.2-0.5,0.3c-0.1,0.1-0.2,0.1-0.4,0.2c-0.1-0.4-0.4-0.7-0.8-0.9c-0.3-0.2-0.7-0.2-1.1-0.2
		c-0.4,0-0.8,0.1-1.1,0.2c-0.3,0.2-0.5,0.4-0.7,0.7c-0.2,0.3-0.3,0.7-0.4,1c-0.1,0.4-0.1,0.9-0.1,1.3c0,0.3,0,0.7,0.1,1
		c0,0.3,0.1,0.7,0.3,1c0.1,0.3,0.4,0.6,0.7,0.8c0.4,0.2,0.8,0.3,1.2,0.3c0.2,0,0.5,0,0.7-0.1c0.2-0.1,0.4-0.2,0.5-0.3
		c0.2-0.1,0.3-0.3,0.5-0.5l0.5-0.7c0.3,0,0.6,0.1,0.9,0.3c0.3,0.2,0.6,0.3,0.9,0.5c-0.1,0.4-0.3,0.8-0.5,1.2c-0.2,0.4-0.5,0.7-0.9,1
		c-0.4,0.3-0.8,0.5-1.2,0.7c-1.1,0.4-2.4,0.3-3.5-0.2c-0.6-0.3-1-0.6-1.4-1.1c-0.4-0.5-0.6-1.1-0.8-1.7
		C26.8,52.6,26.7,51.9,26.7,51.2z"/>
	<path class="st1" d="M44.9,56.5c-0.7,0-1.5-0.1-2.2-0.5c-0.6-0.3-1.1-0.7-1.4-1.2c-0.4-0.6-0.7-1.2-0.8-1.8
		c-0.2-0.7-0.3-1.4-0.2-2.1c0-0.6,0.1-1.3,0.3-1.9c0.2-0.6,0.5-1.2,0.8-1.7c0.4-0.5,0.8-0.9,1.3-1.2c0.6-0.3,1.2-0.5,1.8-0.5
		c0.7,0,1.4,0.1,2.1,0.4c0.6,0.3,1.1,0.7,1.5,1.2c0.4,0.5,0.7,1.1,0.9,1.8c0.2,0.7,0.3,1.4,0.3,2.1c0,0.7-0.1,1.3-0.3,2
		c-0.2,0.6-0.4,1.2-0.8,1.8c-0.4,0.5-0.9,0.9-1.4,1.2C46.2,56.3,45.6,56.5,44.9,56.5z M44.8,54.3c0.4,0,0.8-0.1,1.2-0.3
		c0.3-0.2,0.5-0.5,0.7-0.8c0.2-0.3,0.3-0.7,0.4-1.1c0.1-0.4,0.1-0.8,0.1-1.2c0-0.4,0-0.7-0.1-1.1c-0.1-0.3-0.2-0.7-0.3-1
		c-0.2-0.3-0.4-0.6-0.7-0.8c-0.7-0.4-1.6-0.4-2.3,0.1c-0.3,0.3-0.6,0.6-0.7,1c-0.2,0.4-0.3,0.8-0.3,1.3c-0.1,0.4-0.1,0.9-0.1,1.3
		c0,0.3,0.1,0.7,0.2,1c0.1,0.3,0.2,0.6,0.4,0.9c0.2,0.3,0.4,0.5,0.7,0.6C44.1,54.2,44.4,54.3,44.8,54.3z"/>
	<path class="st1" d="M55.1,45.8h0.7h0.7c0.2,0,0.4,0,0.7,0c0.1,1,0.1,1.9,0.1,2.9v4.2c0,0.5,0,0.9,0,1.4c0.7,0,1.4,0,2.2,0
		c0.7,0,1.4,0,2.1,0.1c0,0.2,0.1,0.5,0.1,0.7c0,0.3,0,0.5,0,0.7c0,0.2,0,0.3,0,0.5c-0.3,0-0.6,0-0.9,0h-2.8c-0.9,0-1.8,0-2.8-0.1
		C55,55.5,55,54.7,55,53.9s0-1.6,0-2.4s0-1.6,0-2.4s0-1.6,0-2.3L55.1,45.8z"/>
	<path class="st1" d="M66.9,45.8h0.7h0.7c0.2,0,0.4,0,0.7,0c0.1,1,0.1,1.9,0.1,2.9v4.2c0,0.5,0,0.9,0,1.4c0.7,0,1.4,0,2.1,0
		c0.7,0,1.4,0,2.1,0.1c0,0.2,0.1,0.5,0.1,0.7c0,0.3,0,0.5,0,0.7c0,0.2,0,0.3,0,0.5c-0.3,0-0.6,0-0.9,0h-2.8c-0.9,0-1.9,0-2.8-0.1
		c-0.1-0.8-0.1-1.5-0.1-2.3s0-1.6,0-2.4s0-1.6,0-2.4s0-1.6,0-2.3L66.9,45.8z"/>
	<path class="st1" d="M83.1,56.3c-0.7,0-1.4,0-2.2,0.1c-0.7,0-1.4,0-2.1-0.1c-0.1-0.7-0.1-1.4-0.1-2.2c0-0.8,0-1.6,0-2.4
		s0-1.6,0.1-2.4s0-1.5,0-2.2v-1.3c0.2,0,0.4,0,0.6,0h5.4h0.8c0,0.3,0,0.6,0,1v0.5c0,0.1,0,0.3,0,0.4h-0.4h-0.4c-0.6,0-1.2,0-1.9,0
		c-0.6,0-1.3,0-1.9,0.1c0,0.1,0,0.2,0,0.3V50c0.5,0,1.1,0,1.6,0c0.5,0,1.1,0,1.8,0c0,0,0,0,0,0.1s0,0.2,0,0.2l-0.1,1.3
		c0,0.1,0,0.1-0.1,0.1l-0.2,0.1c-0.1,0-0.2,0-0.3,0h-1.4c-0.4,0-0.9,0-1.3,0v0.9v1.5c0.3,0.1,0.6,0.2,0.9,0.2c0.4,0,0.8,0,1.2,0h1.3
		c0.4,0,0.8,0,1.1,0c0,0.2,0,0.4,0.1,0.5c0,0.2,0,0.3,0,0.5c0,0.2,0,0.3,0,0.5c0,0.2,0,0.3-0.1,0.5L83.1,56.3z"/>
	<path class="st1" d="M90.7,51.2c0-0.7,0.1-1.4,0.3-2.1c0.2-0.6,0.4-1.3,0.8-1.8c0.4-0.5,0.8-0.9,1.4-1.2c0.6-0.3,1.3-0.5,2-0.5
		c0.4,0,0.8,0,1.2,0.1c0.4,0.1,0.8,0.2,1.1,0.4c0.4,0.2,0.7,0.4,1,0.7c0.3,0.3,0.5,0.6,0.7,0.9c-0.1,0.2-0.3,0.3-0.5,0.5
		c-0.2,0.1-0.3,0.3-0.5,0.4c-0.2,0.1-0.3,0.2-0.5,0.3c-0.1,0.1-0.2,0.1-0.4,0.2c-0.1-0.4-0.4-0.7-0.8-0.9c-0.3-0.2-0.7-0.2-1.1-0.2
		c-0.4,0-0.8,0.1-1.1,0.2c-0.3,0.2-0.5,0.4-0.7,0.7c-0.2,0.3-0.3,0.7-0.4,1c-0.1,0.4-0.1,0.9-0.1,1.3c0,0.3,0,0.7,0.1,1
		c0,0.3,0.1,0.7,0.3,1c0.2,0.3,0.4,0.6,0.7,0.8c0.4,0.2,0.8,0.3,1.2,0.3c0.2,0,0.5,0,0.7-0.1c0.2-0.1,0.4-0.2,0.5-0.3
		c0.2-0.1,0.3-0.3,0.4-0.5l0.5-0.7c0.3,0,0.7,0.1,0.9,0.3c0.3,0.2,0.6,0.3,0.8,0.5c-0.1,0.4-0.3,0.8-0.5,1.2c-0.2,0.4-0.5,0.7-0.9,1
		c-0.4,0.3-0.8,0.5-1.2,0.7c-0.5,0.2-1,0.3-1.5,0.2c-0.7,0-1.3-0.1-1.9-0.4c-0.6-0.2-1.1-0.6-1.5-1.1c-0.4-0.5-0.7-1.1-0.8-1.7
		C90.8,52.6,90.7,51.9,90.7,51.2z"/>
	<path class="st1" d="M106.7,56.3c0-0.3,0-0.6,0-0.8c0-1.3,0-2.5,0-3.8s0-2.5-0.1-3.8c-0.4,0-0.9,0-1.3,0H104c0-0.2,0-0.5-0.1-0.7
		s0-0.5,0-0.7s0-0.2,0-0.3c0-0.1,0-0.2,0-0.3c0.9,0,1.8-0.1,2.7-0.1h2.7c0.4,0,0.8,0,1.1,0s0.8,0,1.1,0.1c0.1,0.2,0.1,0.5,0.1,0.8
		v0.7v0.5h-0.7h-1.1c-0.4,0-0.7,0-1.1,0c0,0.7-0.1,1.4,0,2.1s0,1.4,0,2.1s0,1.4,0,2.1c0,0.7,0,1.4-0.1,2.1c-0.2,0-0.5,0.1-0.7,0.1
		h-0.7L106.7,56.3z"/>
	<path class="st1" d="M119,56.3h-1.8H117c0-0.2,0-0.5-0.1-0.7s0-0.5,0-0.7v-7.7c0-0.2,0-0.5,0-0.7s0-0.5,0.1-0.7h0.6h0.6h1h0.1h0.1
		c0,1.7,0,3.5,0,5.3s0,3.5-0.1,5.2L119,56.3z"/>
	<path class="st1" d="M129.7,56.5c-0.7,0-1.5-0.1-2.1-0.5c-0.6-0.3-1.1-0.7-1.4-1.2c-0.4-0.6-0.7-1.2-0.8-1.8
		c-0.2-0.7-0.2-1.4-0.2-2.1c0-0.6,0.1-1.3,0.3-1.9c0.2-0.6,0.5-1.2,0.8-1.7c0.4-0.5,0.8-0.9,1.3-1.2c0.6-0.3,1.2-0.5,1.8-0.5
		c0.7,0,1.4,0.1,2.1,0.4c0.6,0.3,1.1,0.7,1.5,1.2c0.4,0.5,0.7,1.1,0.9,1.7c0.2,0.7,0.3,1.4,0.3,2.1c0,0.7-0.1,1.3-0.3,2
		c-0.2,0.6-0.4,1.2-0.8,1.8c-0.4,0.5-0.8,1-1.4,1.3C131.1,56.4,130.4,56.5,129.7,56.5z M129.6,54.3c0.4,0,0.8-0.1,1.1-0.3
		c0.3-0.2,0.5-0.5,0.7-0.8c0.2-0.3,0.3-0.7,0.4-1.1c0.1-0.4,0.1-0.8,0.1-1.2c0-0.4,0-0.7-0.1-1.1c-0.1-0.3-0.2-0.7-0.4-1
		c-0.2-0.3-0.4-0.6-0.7-0.8c-0.3-0.2-0.7-0.3-1.1-0.3c-0.4,0-0.9,0.1-1.2,0.4c-0.3,0.3-0.6,0.6-0.7,1c-0.2,0.4-0.3,0.8-0.3,1.3
		c0,0.4-0.1,0.9-0.1,1.3c0,0.3,0.1,0.7,0.2,1c0.1,0.3,0.2,0.6,0.4,0.9c0.2,0.3,0.4,0.5,0.7,0.6C128.9,54.3,129.2,54.3,129.6,54.3z"
		/>
	<path class="st1" d="M147.5,56.3h-1.2c-0.4,0-0.8,0-1.2-0.1c-0.3-0.6-0.6-1.2-0.9-1.8s-0.6-1.2-0.8-1.8s-0.5-1.2-0.7-1.8
		c-0.2-0.6-0.4-1.3-0.6-1.9h-0.1v2c0,0.9,0,1.8,0.1,2.7c0,0.9,0,1.8-0.1,2.7c-0.2,0-0.3,0-0.5,0h-1.7c0-0.4,0-0.9-0.1-1.3
		s0-0.9,0-1.3v-6.4c0-0.5,0-1.1,0-1.6h0.9h1.1c0.2,0,0.4,0,0.5,0l0.6,0.1c0.3,0.6,0.5,1.3,0.8,1.9s0.6,1.3,0.9,1.9s0.6,1.3,0.8,1.9
		s0.5,1.3,0.7,1.9h0.1v-1.1c0-0.4,0-0.8,0-1.1c0-0.9,0-1.8-0.1-2.7c0-0.9,0-1.8,0-2.7c0.2,0,0.3-0.1,0.5-0.1h0.5h0.6
		c0.2,0,0.4,0,0.6,0c0.1,0.7,0.1,1.4,0.1,2.1s0,1.4,0,2.1s0,1.4,0,2.2s0,1.4,0,2.1v1c0,0.3,0,0.7,0,1L147.5,56.3z"/>
</g>
</svg>
