<?xml version="1.0" encoding="utf-8"?>
<!-- Generator: Adobe Illustrator 24.2.3, SVG Export Plug-In . SVG Version: 6.00 Build 0)  -->
<svg version="1.1" id="Background" xmlns="http://www.w3.org/2000/svg" xmlns:xlink="http://www.w3.org/1999/xlink" x="0px" y="0px"
	 viewBox="0 0 320 100" style="enable-background:new 0 0 320 100;" xml:space="preserve">
<style type="text/css">
	.st0{fill:#76ABA8;}
	.st1{fill:#76ACA9;}
	.st2{fill:#FFFFFF;}
	.st3{fill:#044854;}
</style>
<path class="st0" d="M343,66.7L343,66.7L343,66.7l-0.5,0.1c-0.2,0-0.4,0-0.6,0.1c-0.3,0-0.7,0.1-1,0.2c-0.3,0.1-0.6,0.3-0.9,0.6
	c-0.1,0.1-0.2,0.2-0.4,0.2c-0.2,0.1-0.4,0.2-0.5,0.3c-0.3,0.1-0.5,0.3-0.7,0.4c-0.1,0.1-0.3,0.2-0.4,0.3c-0.2,0.2-0.4,0.3-0.6,0.5
	l-0.1,0.1c-0.3,0.2-0.7,0.4-1.1,0.5c-0.5,0.1-0.9,0.2-1.4,0.2c-0.5,0-0.9-0.1-1.3-0.2L333,70h-0.2l-0.4-0.1l-0.2-0.2l-0.6-0.4
	c-0.3-0.2-0.5-0.4-0.8-0.6l-0.3-0.2c-0.3-0.3-0.6-0.5-1-0.8l-0.4-0.3l-0.3-0.2c-0.2-0.1-0.4-0.2-0.6-0.2l-0.2-0.1
	c-0.2-0.1-0.3-0.1-0.5-0.2c-0.4-0.2-0.8-0.4-1.2-0.4c-0.5-0.1-1-0.1-1.4-0.1h-0.6c-0.5,0-1,0-1.5,0.1c-0.5,0.1-1.1,0.2-1.5,0.4
	c-0.3,0.1-0.6,0.3-0.9,0.6l-0.4,0.3l-0.3,0.2c-0.3,0.2-0.6,0.4-0.9,0.6c-0.2,0.2-0.5,0.3-0.7,0.4c-0.2,0.1-0.3,0.2-0.5,0.3l-0.3,0.2
	c-0.3,0.2-0.5,0.3-0.8,0.4l-0.2,0.1c-0.4,0.1-0.8,0.2-1.2,0.2c-0.5,0-1,0-1.5-0.1c-0.3-0.1-0.6-0.3-0.8-0.4l-0.4-0.3
	c-0.2-0.1-0.4-0.3-0.5-0.4c-0.1-0.1-0.3-0.3-0.5-0.4c-0.2-0.2-0.5-0.3-0.7-0.4c-0.2-0.1-0.4-0.2-0.6-0.3c-0.4-0.3-0.9-0.5-1.3-0.7
	c-0.5-0.2-1-0.3-1.5-0.4l-0.4-0.1c-0.4-0.1-0.8-0.2-1.1-0.2h-0.4c-0.4,0-0.8,0-1.2,0c-0.4,0.1-0.8,0.2-1.2,0.4l-0.2,0.1l-0.3,0.1
	c-0.4,0.1-0.8,0.3-1.1,0.5c-0.4,0.2-0.7,0.5-1,0.7l-0.2,0.1l-0.1,0.1l0,0c0,0.4,0.1,0.9,0.3,1.3l0.2,0.2c0.1,0.2,0.3,0.3,0.5,0.3
	c0.2,0,0.4-0.1,0.5-0.2l0.2-0.2l0.2-0.1c0.4-0.3,0.8-0.5,1.1-0.8c0.4-0.3,0.8-0.5,1.2-0.6c0.3,0,0.5,0,0.8,0c0.2,0,0.4,0,0.7,0
	c0.5,0,0.9,0,1.4,0.1c0.4,0.1,0.9,0.3,1.2,0.5c0.2,0.1,0.4,0.3,0.5,0.4c0.1,0.2,0.3,0.3,0.5,0.4c0.4,0.3,0.8,0.5,1.1,0.8l0,0
	c0.3,0.2,0.6,0.3,0.9,0.3c0.2,0,0.4,0.1,0.6,0.2l0.3,0.1c0.4,0.2,0.8,0.3,1.1,0.4c0.5,0.1,1,0.2,1.6,0.2c0.4,0,0.8-0.1,1.1-0.2
	l0.4-0.1l0.6-0.1c0.3,0,0.7-0.1,1-0.2c0.3-0.1,0.6-0.3,0.9-0.6l0.4-0.2c0.2-0.1,0.4-0.2,0.5-0.3c0.3-0.1,0.5-0.3,0.7-0.4l0.4-0.3
	c0.2-0.2,0.4-0.3,0.7-0.4l0.1-0.1c0.3-0.2,0.7-0.4,1.1-0.5c0.5-0.1,0.9-0.2,1.4-0.2c0.5,0,0.9,0.1,1.3,0.2l0.4,0.1h0.1l0.4,0.1
	c0.1,0.1,0.1,0.1,0.2,0.2l0.6,0.4c0.3,0.2,0.5,0.4,0.8,0.6l0.3,0.2c0.3,0.3,0.7,0.5,1,0.8l0.4,0.3l0.3,0.2c0.2,0.1,0.3,0.2,0.5,0.2
	l0.2,0.1c0.1,0.1,0.3,0.2,0.5,0.2c0.4,0.2,0.8,0.4,1.2,0.5c0.5,0,0.9,0,1.4,0h0.6c0.5,0,1,0,1.5-0.1c0.5-0.1,1-0.2,1.5-0.4
	c0.3-0.1,0.6-0.3,0.9-0.6c0.1-0.1,0.2-0.2,0.4-0.3l0.3-0.2c0.3-0.2,0.6-0.4,0.9-0.6c0.2-0.2,0.5-0.3,0.7-0.4l0.5-0.3l0.3-0.2
	c0.3-0.2,0.5-0.3,0.9-0.4l0.2-0.1l0.5-0.1c0.1,0,0.2-0.4,0.2-0.4c0-0.1,0-0.1,0-0.2c0-0.3,0.1-0.7,0-0.9s-0.4-0.3-0.6-0.4"/>
<path class="st0" d="M342.8,72.2c-0.1-0.1-0.2,0-0.4,0c-0.5,0.1-1,0.2-1.5,0.4c-0.3,0.1-0.6,0.3-0.8,0.5c-0.1,0.1-0.2,0.2-0.4,0.2
	l-0.3,0.2c-0.3,0.2-0.5,0.3-0.8,0.5c-0.3,0.3-0.7,0.5-1,0.7c-0.4,0.2-0.8,0.3-1.2,0.4c-0.1,0-0.2,0.1-0.4,0.1
	c-0.3,0.1-0.6,0.2-0.9,0.2c-0.3,0-0.7,0-1-0.1l-0.5-0.1h-0.2c-0.4,0-0.8-0.1-1.2-0.2c-0.3-0.1-0.6-0.2-0.9-0.4l-0.3-0.2l-0.3-0.2
	l-0.6-0.5c-0.2-0.1-0.5-0.2-0.7-0.3c-0.2-0.2-0.5-0.3-0.7-0.5h-0.1l0,0c-0.2-0.2-0.4-0.2-0.7-0.2c-0.2-0.1-0.4-0.3-0.6-0.3
	c-0.5-0.2-1.1-0.3-1.6-0.3c-0.3,0-0.6,0-1,0.1c-0.2,0-0.5,0.1-0.7,0.1c-0.2,0-0.4,0-0.6-0.1c-0.3-0.1-0.6-0.1-0.9-0.1
	c-0.3,0.1-0.7,0.2-1,0.4c-0.1,0.1-0.3,0.1-0.4,0.2l-0.5,0.2c-0.6,0.1-1.1,0.4-1.5,0.9c-0.1,0.1-0.2,0.2-0.4,0.3
	c-0.2,0.2-0.5,0.3-0.7,0.4l-0.4,0.2c-0.4,0.2-0.8,0.3-1.2,0.4h-0.1c-0.4,0.1-0.7,0.2-1.1,0.2c-0.5,0-0.9-0.1-1.4-0.2
	c-0.4-0.1-0.8-0.3-1.2-0.5c-0.2-0.1-0.4-0.2-0.5-0.3c-0.2-0.1-0.5-0.2-0.7-0.4c-0.1-0.1-0.3-0.2-0.4-0.4c-0.2-0.2-0.4-0.4-0.6-0.6
	c-0.4-0.2-0.8-0.4-1.2-0.6l-0.1-0.1c-0.1,0-0.3-0.1-0.4-0.2c-0.3-0.2-0.6-0.3-1-0.4c-0.5-0.1-1.1-0.1-1.6-0.1
	c-0.5,0-0.9,0.1-1.4,0.2h-0.2l-0.5,0.1c-0.4,0-0.7,0.1-1.1,0.2c-0.3,0.1-0.6,0.3-0.8,0.6c-0.1,0.1-0.2,0.2-0.4,0.3
	c-0.4,0.2-0.7,0.5-1.1,0.8c-0.1,0.5-0.1,1,0.1,1.5c0.4,0.3,0.9,0.7,1.5,0.2l0.1-0.1l0.1-0.1c0.2-0.1,0.3-0.3,0.5-0.5
	c0.1-0.2,0.3-0.3,0.5-0.4c0.4-0.3,0.8-0.4,1.3-0.6c0.5-0.1,1-0.2,1.4-0.2c0.5,0,0.9,0.1,1.4,0.2h0.1c0.5,0.1,0.9,0.3,1.3,0.5
	c0.4,0.2,0.7,0.5,1.1,0.8c0.1,0.1,0.3,0.2,0.4,0.3c0.2,0.2,0.4,0.4,0.7,0.6l0.3,0.2c0.3,0.2,0.6,0.4,1,0.6c0.3,0.1,0.7,0.2,1,0.2
	c0.2,0,0.4,0,0.6,0.1c0.2,0,0.3,0.1,0.5,0.2c0.3,0.1,0.7,0.2,1,0.2c0.5,0,1-0.1,1.5-0.1c0.3-0.1,0.7-0.2,1-0.3l0.4-0.2
	c0.2-0.1,0.3-0.1,0.5-0.2c0.3-0.1,0.6-0.2,0.9-0.3c0.2-0.2,0.4-0.3,0.6-0.6c0.1-0.1,0.2-0.3,0.3-0.4c0.2-0.2,0.5-0.3,0.7-0.4
	l0.4-0.2l0.3-0.2c0.2-0.2,0.5-0.3,0.8-0.4c0.2,0,0.4,0,0.6,0.1c0.2,0.1,0.5,0.1,0.8,0.1h0.5c0.3,0,0.7,0,1,0h0.4
	c0.4,0,0.8,0.1,1.1,0.3c0.3,0.1,0.6,0.3,0.8,0.5l0.4,0.3c0.2,0.1,0.4,0.2,0.5,0.3l0.3,0.2l0.3,0.2h0.1c0.2,0.1,0.4,0.3,0.6,0.4
	l0.3,0.2l0.9,0.3h0.1c0.3,0.1,0.7,0.1,1,0.1c0.2,0,0.5,0,0.8,0l0.6,0.1c0.4,0.1,0.8,0.1,1.2,0.1c0.5,0,0.9-0.1,1.4-0.1h0.1
	c0.5-0.1,1-0.2,1.5-0.3c0.3-0.1,0.6-0.3,0.9-0.5l0.3-0.2c0.2-0.1,0.4-0.2,0.6-0.3c0.3-0.1,0.5-0.2,0.7-0.3l0.1-0.1
	c0.3-0.2,0.6-0.4,0.9-0.6l0.2-0.1c0.3-0.2,0.6-0.3,0.9-0.4c0.2-0.3,0.6-0.6,0.6-0.8c-0.1-0.5-0.2-1-0.4-1.5"/>
<path class="st0" d="M343.6,62.6c0-0.2-0.1-0.3-0.1-0.5c-0.1-0.3-0.2-0.6-0.3-0.9c-0.1-0.1-0.3-0.1-0.4-0.2l-0.4,0
	c-0.4,0.1-0.7,0.2-1,0.4c-0.1,0.1-0.3,0.1-0.4,0.2l-0.5,0.2c-0.3,0.1-0.6,0.2-0.9,0.3c-0.2,0.2-0.4,0.3-0.6,0.6
	c-0.1,0.1-0.2,0.3-0.3,0.4c-0.2,0.2-0.5,0.3-0.7,0.4l-0.4,0.2l-0.3,0.2c-0.2,0.2-0.5,0.3-0.8,0.4c-0.2,0-0.4,0-0.6,0
	c-0.2-0.1-0.5-0.1-0.8-0.1h-0.5c-0.3,0-0.7,0-1,0l-0.4-0.1c-0.4,0-0.8-0.1-1.1-0.3c-0.3-0.1-0.6-0.3-0.8-0.5l-0.4-0.3
	c-0.2-0.1-0.4-0.2-0.5-0.3l-0.3-0.2l-0.3-0.2l-0.1-0.1l-0.6-0.4l-0.4-0.3c-0.3-0.3-0.7-0.3-1-0.2c-0.3-0.1-0.7-0.1-1.1-0.1
	c-0.2,0-0.5,0-0.8,0l-0.6-0.1c-0.4-0.1-0.8-0.1-1.2-0.1c-0.5,0-0.9,0-1.4,0.1h-0.1c-0.5,0.1-1,0.2-1.5,0.3c-0.3,0.1-0.6,0.3-0.9,0.5
	c-0.1,0.1-0.2,0.2-0.3,0.2c-0.2,0.1-0.4,0.2-0.6,0.3c-0.3,0.1-0.5,0.2-0.7,0.3l-0.1,0.1c-0.3,0.2-0.6,0.4-0.9,0.6l-0.2,0.1
	c-0.3,0.2-0.6,0.3-0.9,0.4c-0.4,0.1-0.9,0.1-1.3,0.1c-0.4,0-0.9,0-1.3-0.1c-0.4-0.1-0.8-0.2-1.1-0.5c-0.2-0.1-0.4-0.2-0.5-0.2
	c-0.2-0.1-0.4-0.2-0.6-0.3c-0.1-0.1-0.2-0.2-0.4-0.3c-0.2-0.2-0.4-0.4-0.7-0.5c-0.1-0.1-0.2-0.2-0.3-0.2c-0.3-0.2-0.5-0.4-0.8-0.5
	c-0.3-0.1-0.7-0.2-1-0.2l-0.5,0c-0.5-0.1-1-0.1-1.5-0.1c-0.2,0-0.4,0-0.6,0c-0.4,0-0.7,0-1.1,0c-0.4,0.1-0.9,0.2-1.3,0.3l-0.4,0.1
	c-0.4,0.1-0.7,0.2-1.1,0.4l-0.4,0.2l0,0c-0.4,0.2-0.9,0.4-1.2,0.7c0,0.1,0,0.1,0,0.2c0,0.3,0.1,0.6,0.3,0.9l0.1,0l-0.1,0.1
	c0.1,0.1,0.1,0.2,0.2,0.3c0.1,0.1,0.2,0.2,0.4,0.2c0.3,0.1,0.6,0,0.9-0.2c0.3-0.2,0.7-0.4,1.1-0.5l0.3-0.1c0.5-0.2,1-0.3,1.5-0.4
	c0.2,0,0.4-0.1,0.6-0.1c0.3-0.1,0.7-0.1,1-0.2c0.4,0,0.7,0.1,1.1,0.2l0.2,0.1c0.4,0.1,0.8,0.2,1.2,0.5c0.2,0.1,0.4,0.3,0.6,0.5
	l0.3,0.3c0.2,0.2,0.5,0.3,0.7,0.4c0.1,0.1,0.3,0.2,0.5,0.3c0.1,0.1,0.3,0.2,0.4,0.3c0.2,0.2,0.5,0.4,0.8,0.5
	c0.3,0.1,0.6,0.1,0.9,0.1c0.2,0,0.4,0,0.6,0c0.5,0.1,1,0.1,1.5,0.1c0.2,0,0.4,0,0.6,0c0.3,0,0.6,0,0.9,0c0.5-0.1,1-0.2,1.5-0.4
	c0.3-0.1,0.6-0.3,0.8-0.5c0.1-0.1,0.2-0.2,0.3-0.2c0.1-0.1,0.2-0.1,0.3-0.2c0.3-0.2,0.6-0.3,0.8-0.5c0.3-0.2,0.7-0.5,1-0.7
	c0.4-0.2,0.8-0.3,1.2-0.4l0.4-0.1c0.3-0.1,0.6-0.2,0.9-0.2c0.3,0,0.7,0,1,0.1l0.5,0.1h0.2c0.4,0,0.8,0.1,1.2,0.2
	c0.3,0.1,0.6,0.3,0.9,0.4l0.3,0.2l0.3,0.2c0.2,0.2,0.4,0.3,0.6,0.5c0.2,0.1,0.5,0.3,0.7,0.3l0.7,0.5h0.1l0,0
	c0.2,0.1,0.4,0.2,0.7,0.2c0.2,0.1,0.4,0.3,0.6,0.3c0.5,0.2,1.1,0.3,1.6,0.3c0.3,0,0.7,0,1-0.1c0.2,0,0.5-0.1,0.7-0.1
	c0.2,0,0.4,0,0.6,0.1h0.2c0.8-0.2,1.5-0.4,2.3-0.7c0.5-0.2,1-0.4,1.4-0.6c0.1-0.1,0.2-0.2,0.3-0.3c0.1-0.1,0.2-0.2,0.4-0.3
	c0.2-0.2,0.5-0.3,0.7-0.4l0.4-0.2c0.4-0.2,0.8-0.3,1.2-0.4h0.1l0.2,0C343.3,63,343.5,62.8,343.6,62.6L343.6,62.6"/>
<path class="st1" d="M240,61L240,61h0.3l0,0H240z"/>
<path class="st2" d="M239.2,61.8v-1.6h0.8h0.2l0.8,0.1v1.3l-0.7,0.1H240L239.2,61.8z"/>
<path class="st1" d="M250.5,69.7l0.1-0.2l2.1-3l-2.7-2.4l-0.1-0.1v-0.2l0.4-3.6l-3.5-0.9h-0.2l-0.1-0.2l-1.3-3.4l-3.5,0.9l-0.2,0
	l-0.1-0.1l-2.7-2.4l-2.7,2.4l-0.1,0.1l-0.2,0l-3.5-0.9l-1.3,3.4l-0.1,0.2h-0.2l-3.5,0.9l0.4,3.6V64l-0.1,0.1l-2.7,2.4l2.1,3l0.1,0.2
	l-0.1,0.2l-1.3,3.4l3.2,1.7l0.2,0.1v0.2l0.4,3.6h3.8l0.1,0.2l2,3l3.2-1.7l0.2-0.1l0.2,0.1l3.3,1.7l2.1-3l0.1-0.2h3.8l0.4-3.6V75
	l0.2-0.1l3.2-1.7l-1.3-3.4L250.5,69.7z M248.1,69.6l-0.3,1.4l-0.5,1.4l-0.8,1.3l-0.9,1.3l-1.2,0.9l-1.3,0.8l-1.4,0.6l-1.5,0.4h-1.5
	l-1.5-0.1l-1.4-0.4l-1.4-0.6l-1.3-0.7l-1.2-1l-0.9-1.3l-1-1.2l-0.6-1.4l-0.3-1.5l-0.1-1.5l0.1-1.5l0.4-1.5l0.7-1.3l0.7-1.4l1-1.2
	l1.2-0.9l1.2-0.9l1.5-0.4l1.4-0.4h1.5l1.5,0.1l1.5,0.2l1.4,0.6l1.3,0.8l1.2,1l1,1.2l0.7,1.4l0.7,1.4l0.2,1.5l0.2,1.5L248.1,69.6z"/>
<path class="st2" d="M235.1,83l-2.3-3.4h-4.1l-0.5-4.1l-3.6-1.9l1.5-3.9l-2.3-3.4l3.1-2.7l-0.5-4l4-1l1.4-3.8l4,1l3.1-2.7l3,2.7l4-1
	l1.4,3.8l4,1l-0.5,4l3.1,2.7l-2.3,3.4l1.4,3.8l-3.6,1.9l-0.5,4.1h-4.1l-2.4,3.4l-3.6-2L235.1,83z M238.7,79.4l3.1,1.6l2-2.9h3.6
	l0.4-3.5l3.2-1.6l-1.3-3.3l0.3-0.5l1.7-2.4l-2.7-2.4l0.4-3.5L246,60l-1.2-3.3l-3.4,0.8l-2.6-2.4l-2.7,2.3l-3.4-0.8l-1.2,3.3
	l-3.5,0.8l0.4,3.5l-2.7,2.4l2,2.9l-1.3,3.3l3.1,1.6l0.4,3.5h3.6l2,2.9L238.7,79.4z M238.7,78.4l-1.6-0.1l-1.6-0.4l-1.5-0.6l-1.4-0.7
	l-1.3-1.1l-0.9-1.3l-0.9-1.3l-0.7-1.6l-0.3-1.6l-0.1-1.6l0.1-1.7l0.4-1.6l0.7-1.4l0.7-1.5l1.1-1.3l1.3-1l1.4-1l3.1-0.9h1.6l1.6,0.1
	l1.6,0.2l1.6,0.7l1.4,0.8l1.2,1.1l1.1,1.3l0.7,1.5l0.8,1.4l0.5,3.2l-0.3,1.7l-0.3,1.5l-0.6,1.5l-0.8,1.4l-1,1.3l-1.4,1l-1.4,0.8
	l-1.5,0.8l-1.6,0.4L238.7,78.4z M237.3,76.9l1.4,0.1h1.4l1.3-0.3l1.3-0.6l1.2-0.7l1.1-0.8l0.9-1.1l0.7-1.2l0.5-1.3l0.3-1.4l0.2-1.4
	l-0.4-2.8l-0.7-1.3l-0.6-1.3l-0.9-1l-1-0.9l-1.2-0.7l-1.3-0.5l-1.4-0.2l-1.4-0.1h-1.4l-2.7,0.8l-1.1,0.8l-1.1,0.9l-0.9,1l-0.7,1.3
	l-0.6,1.3l-0.3,1.3l-0.1,1.4l0.1,1.4l0.2,1.4l0.5,1.2l0.9,1.2l0.8,1.2l1,0.8l1.3,0.6l1.3,0.5L237.3,76.9z"/>
<path class="st1" d="M237.2,75.6h0.2l-0.2-0.1C237.2,75.5,237.2,75.6,237.2,75.6z"/>
<path class="st2" d="M240.2,76.7l-3.7-0.5l-0.1-0.6c0,0,0-0.1,0-0.1l0,0l-0.2-1.6L240.2,76.7z"/>
<circle class="st2" cx="238.8" cy="68.4" r="10.6"/>
<path class="st3" d="M244.9,69.4L244.9,69.4L244.9,69.4L244.9,69.4L244.9,69.4l0.1-0.6l0,0c0-0.1-0.1-0.1-0.2-0.2l0,0h-0.1
	c0,0,0-0.1-0.1-0.1l-0.2-0.2c-0.1-0.1-0.2-0.2-0.3-0.2l-0.1-0.1l-0.4-0.3c0,0-0.1-0.1-0.2-0.1c0,0-0.1-0.1-0.1-0.1
	c-0.1-0.1-0.1-0.1-0.2-0.1H243c-0.1,0-0.1-0.1-0.2-0.1c-0.1-0.1-0.3-0.2-0.4-0.2c-0.2,0-0.4,0-0.5,0h-0.2c-0.2,0-0.4,0-0.6,0
	c-0.2,0-0.4,0.1-0.6,0.2c-0.1,0.1-0.2,0.1-0.3,0.2l-0.1,0.1l-0.1,0.1c-0.1,0.1-0.2,0.2-0.3,0.2c-0.1,0.1-0.2,0.1-0.3,0.2l-0.2,0.1
	l-0.1,0.1c-0.1,0.1-0.2,0.1-0.3,0.2h-0.1c-0.1,0-0.3,0.1-0.4,0.1c-0.2,0-0.4,0-0.6,0c-0.1,0-0.2-0.1-0.3-0.2l-0.1-0.1
	c-0.1-0.1-0.1-0.1-0.2-0.2c-0.1-0.1-0.1-0.1-0.2-0.2c-0.1-0.1-0.2-0.1-0.3-0.2c-0.1,0-0.2-0.1-0.2-0.1c-0.2-0.1-0.3-0.2-0.5-0.3
	c-0.2-0.1-0.4-0.1-0.6-0.2L235,67c-0.1,0-0.3-0.1-0.4-0.1h-0.1c-0.1,0-0.3,0-0.4,0c-0.2,0-0.3,0.1-0.5,0.2h-0.1h-0.1
	c-0.1,0.1-0.3,0.1-0.4,0.2c-0.1,0.1-0.3,0.2-0.4,0.3h-0.1l0,0l0,0c0,0.2,0,0.4,0.1,0.5l0.1,0.1c0,0.1,0.1,0.1,0.2,0.1
	c0.1,0,0.1,0,0.2-0.1l0.1-0.1l0.1-0.1c0.1-0.1,0.3-0.2,0.4-0.3c0.1-0.1,0.3-0.2,0.5-0.2c0.1,0,0.2,0,0.3,0h0.2c0.2,0,0.3,0,0.5,0
	c0.2,0.1,0.3,0.1,0.5,0.2c0.1,0.1,0.1,0.1,0.2,0.2c0.1,0.1,0.1,0.1,0.2,0.2c0.1,0.1,0.3,0.2,0.4,0.3l0,0c0.1,0.1,0.2,0.1,0.3,0.1
	L237,69h0.1c0.1,0.1,0.3,0.1,0.4,0.2c0.2,0,0.4,0.1,0.6,0.1c0.1,0,0.3,0,0.4-0.1h0.2c0.1,0,0.1,0,0.2,0c0.1,0,0.3,0,0.4-0.1
	c0.1-0.1,0.2-0.1,0.3-0.2l0.1-0.1l0.2-0.1c0.1-0.1,0.2-0.1,0.3-0.2l0.2-0.1c0.1-0.1,0.1-0.1,0.2-0.2l0,0c0.1-0.1,0.3-0.2,0.4-0.2
	c0.2-0.1,0.4-0.1,0.5-0.1c0.2,0,0.3,0,0.5,0.1h0.1h0.1h0.1l0.1,0.1l0.2,0.2l0.3,0.2l0.1,0.1l0.4,0.3c0,0,0.1,0.1,0.2,0.1
	c0,0,0.1,0.1,0.1,0.1c0.1,0,0.1,0.1,0.2,0.1h0.1l0.2,0.1C244.4,69.3,244.6,69.3,244.9,69.4L244.9,69.4L244.9,69.4L244.9,69.4z"/>
<path class="st3" d="M244.3,71.5L244.3,71.5c0.2,0,0.3,0,0.4,0l0,0h0.1h0.1l0,0l0,0l0,0v-0.7h-0.1c0,0,0-0.1-0.1-0.1l-0.1-0.1
	l-0.2-0.1c-0.1,0-0.2-0.1-0.3-0.2l-0.1-0.1l-0.1-0.1l-0.2-0.2c-0.1-0.1-0.2-0.1-0.3-0.1l-0.3-0.2l0,0l0,0c-0.1-0.1-0.2-0.1-0.3-0.1
	c-0.1-0.1-0.2-0.1-0.2-0.1c-0.2-0.1-0.4-0.1-0.6-0.2c-0.1,0-0.2,0-0.4,0h-0.3c-0.1,0-0.2,0-0.2,0c-0.1,0-0.2,0-0.3,0
	c-0.1,0-0.3,0.1-0.4,0.2l-0.2,0.1l-0.2,0.1c-0.1,0-0.2,0.1-0.4,0.2c-0.1,0.1-0.2,0.1-0.2,0.2c0,0.1-0.1,0.1-0.1,0.1l-0.3,0.2
	l-0.1,0.1c-0.1,0.1-0.3,0.1-0.4,0.2h-0.1c-0.3,0.1-0.7,0.1-1,0c-0.2-0.1-0.3-0.1-0.5-0.2l-0.2-0.1c-0.1,0-0.2-0.1-0.3-0.2
	c-0.1,0-0.1-0.1-0.1-0.2c-0.1-0.1-0.2-0.2-0.2-0.2c-0.2-0.1-0.3-0.2-0.5-0.2l0,0l-0.1-0.1c-0.1-0.1-0.3-0.1-0.4-0.2
	c-0.2,0-0.4,0-0.6,0c-0.2,0-0.4,0-0.5,0.1h0h-0.2c-0.1,0-0.3,0-0.4,0.1c-0.1,0.1-0.2,0.1-0.3,0.2l-0.1,0.1c-0.1,0.1-0.3,0.2-0.4,0.3
	c-0.1,0.2-0.1,0.4,0,0.6c0.1,0.1,0.3,0.3,0.6,0.1l0,0h0.1c0.1-0.1,0.1-0.1,0.2-0.2c0-0.1,0.1-0.1,0.2-0.2c0.1-0.1,0.3-0.2,0.5-0.2
	c0.2-0.1,0.4-0.1,0.6-0.1c0.2,0,0.4,0,0.5,0.1l0,0c0.2,0,0.3,0.1,0.5,0.2c0.1,0.1,0.3,0.2,0.4,0.3c0.1,0,0.1,0.1,0.1,0.2
	c0.1,0.1,0.2,0.2,0.3,0.2l0.1,0.1c0.1,0.1,0.2,0.2,0.4,0.2c0.1,0,0.3,0.1,0.4,0.1h0.2l0.2,0.1c0.1,0.1,0.3,0.1,0.4,0.1
	c0.2,0,0.4,0,0.6-0.1c0.1,0,0.3-0.1,0.4-0.1c0,0,0.1-0.1,0.1-0.1l0.2-0.1c0.1,0,0.2-0.1,0.3-0.1c0.1-0.1,0.2-0.1,0.2-0.2l0.1-0.2
	l0.3-0.2l0.1-0.1l0.1-0.1c0.1-0.1,0.2-0.1,0.3-0.2c0.1,0,0.2,0,0.2,0c0.1,0,0.2,0,0.3,0h0.2c0.1,0,0.3,0,0.4,0h0.1
	c0.1,0,0.3,0.1,0.4,0.1c0.1,0.1,0.2,0.1,0.3,0.2l0.1,0.1c0.2,0.1,0.6,0.4,0.3,0.2l0.1,0.1l0,0c0.1,0.1,0.1,0.1,0.2,0.2l0.1,0.1
	L244.3,71.5z"/>
<path class="st3" d="M245,66.2l-0.2-0.1c-0.1,0-0.2,0-0.3-0.1c-0.1-0.1-0.2-0.1-0.3-0.2l-0.1-0.1c-0.1-0.1-0.1-0.1-0.2-0.1l-0.1-0.1
	c0,0-0.1-0.1-0.1-0.1l0,0l-0.2-0.2l-0.2-0.1c-0.1-0.1-0.3-0.1-0.4-0.1c-0.1,0-0.3,0-0.4,0h-0.3H242c-0.2,0-0.3-0.1-0.5-0.1
	c-0.2,0-0.3,0-0.5,0.1l0,0c-0.2,0-0.4,0.1-0.6,0.1c-0.1,0.1-0.2,0.1-0.3,0.2l-0.1,0.1l-0.2,0.1c-0.1,0-0.2,0.1-0.3,0.2l0,0
	c-0.1,0.1-0.2,0.2-0.3,0.2h-0.1c-0.1,0.1-0.2,0.1-0.3,0.2c-0.2,0-0.3,0-0.5,0c-0.2,0-0.3,0-0.5-0.1c-0.2,0-0.3-0.1-0.4-0.2l-0.2-0.1
	c-0.1,0-0.2-0.1-0.2-0.1l-0.1-0.1c-0.1-0.1-0.2-0.2-0.3-0.2l-0.1-0.1c-0.1-0.1-0.2-0.2-0.3-0.2c-0.1,0-0.2-0.1-0.4-0.1h-0.2
	c-0.2,0-0.4,0-0.6,0h-0.2c-0.1,0-0.3,0-0.4,0c-0.2,0-0.3,0.1-0.5,0.1h-0.1c-0.1,0.1-0.3,0.1-0.4,0.2l-0.1,0.1l0,0
	c-0.2,0.1-0.3,0.2-0.5,0.3c0,0,0,0.1,0,0.1c0,0.1,0.1,0.2,0.1,0.4l0,0l0,0c0,0,0,0.1,0.1,0.1c0,0,0.1,0.1,0.1,0.1
	c0.1,0,0.2,0,0.3-0.1c0.1-0.1,0.3-0.2,0.4-0.2h0.1c0.2-0.1,0.4-0.1,0.6-0.2l0.2-0.1c0.1,0,0.3-0.1,0.4-0.1c0.1,0,0.3,0,0.4,0.1h0.1
	c0.2,0,0.3,0.1,0.4,0.2c0.1,0.1,0.2,0.1,0.2,0.2l0.1,0.1c0.1,0.1,0.2,0.1,0.3,0.2l0.2,0.1l0.1,0.1c0.1,0.1,0.2,0.2,0.3,0.2
	c0.1,0,0.2,0.1,0.4,0.1h0.2c0.2,0,0.4,0,0.6,0h0.2c0.1,0,0.2,0,0.4,0c0.2,0,0.4-0.1,0.6-0.2c0.1-0.1,0.2-0.1,0.3-0.2l0.1-0.1
	l0.1-0.1c0.1-0.1,0.2-0.1,0.3-0.2c0.1-0.1,0.3-0.2,0.4-0.3c0.1-0.1,0.3-0.1,0.4-0.2h0.1c0.1,0,0.2-0.1,0.4-0.1c0.1,0,0.2,0,0.4,0
	h0.2h0.1c0.1,0,0.3,0,0.4,0.1c0.1,0,0.2,0.1,0.3,0.2l0.1,0.1l0.1,0.1l0.2,0.2c0.1,0.1,0.2,0.1,0.3,0.1l0.3,0.2l0,0l0,0
	c0.1,0.1,0.2,0.1,0.3,0.1c0.1,0.1,0.2,0.1,0.2,0.1c0.1,0,0.3,0.1,0.4,0.1l0,0c0,0,0.1,0,0,0s0,0,0.1,0s0,0,0,0l0,0l0,0
	C245.1,66.7,245.1,66.5,245,66.2L245,66.2z"/>
<path class="st1" d="M240,61L240,61h0.3l0,0H240z"/>
<path class="st1" d="M250.5,69.7l0.1-0.2l2.1-3l-2.7-2.4l-0.1-0.1v-0.2l0.4-3.6l-3.5-0.9h-0.2l-0.1-0.2l-1.3-3.4l-3.5,0.9l-0.2,0
	l-0.1-0.1l-2.7-2.4l-2.7,2.4l-0.1,0.1l-0.2,0l-3.5-0.9l-1.3,3.4l-0.1,0.2h-0.2l-3.5,0.9l0.4,3.6V64l-0.1,0.1l-2.7,2.4l2.1,3l0.1,0.2
	l-0.1,0.2l-1.3,3.4l3.2,1.7l0.2,0.1v0.2l0.4,3.6h3.8l0.1,0.2l2,3l3.2-1.7l0.2-0.1l0.2,0.1l3.3,1.7l2.1-3l0.1-0.2h3.8l0.4-3.6V75
	l0.2-0.1l3.2-1.7l-1.3-3.4L250.5,69.7z M248.1,69.6l-0.3,1.4l-0.5,1.4l-0.8,1.3l-0.9,1.3l-1.2,0.9l-1.3,0.8l-1.4,0.6l-1.5,0.4h-1.5
	l-1.5-0.1l-1.4-0.4l-1.4-0.6l-1.3-0.7l-1.2-1l-0.9-1.3l-1-1.2l-0.6-1.4l-0.3-1.5l-0.1-1.5l0.1-1.5l0.4-1.5l0.7-1.3l0.7-1.4l1-1.2
	l1.2-0.9l1.2-0.9l1.5-0.4l1.4-0.4h1.5l1.5,0.1l1.5,0.2l1.4,0.6l1.3,0.8l1.2,1l1,1.2l0.7,1.4l0.7,1.4l0.2,1.5l0.2,1.5L248.1,69.6z"/>
<path class="st1" d="M237.2,75.6h0.2l-0.2-0.1C237.2,75.5,237.2,75.6,237.2,75.6z"/>
</svg>
