<?xml version="1.0" encoding="utf-8"?>
<!-- Generator: Adobe Illustrator 24.2.3, SVG Export Plug-In . SVG Version: 6.00 Build 0)  -->
<svg version="1.1" id="Background" xmlns="http://www.w3.org/2000/svg" xmlns:xlink="http://www.w3.org/1999/xlink" x="0px" y="0px"
	 viewBox="0 0 320 100" style="enable-background:new 0 0 320 100;" xml:space="preserve">
<style type="text/css">
	.st0{enable-background:new    ;}
	.st1{fill:#FFFFFF;}
</style>
<g class="st0">
	<path class="st1" d="M258.7,68.2c0-0.8,0.1-1.6,0.2-2.5s0.4-1.6,0.8-2.3s0.9-1.2,1.6-1.7c0.7-0.4,1.5-0.6,2.5-0.6s1.9,0.2,2.5,0.6
		c0.7,0.4,1.2,1,1.6,1.7c0.4,0.7,0.6,1.4,0.8,2.3c0.1,0.8,0.2,1.7,0.2,2.5c0,0.8-0.1,1.6-0.2,2.5c-0.1,0.8-0.4,1.6-0.8,2.3
		c-0.4,0.7-0.9,1.2-1.6,1.7c-0.7,0.4-1.5,0.6-2.5,0.6s-1.9-0.2-2.5-0.6c-0.7-0.4-1.2-1-1.6-1.7c-0.4-0.7-0.6-1.4-0.8-2.3
		S258.7,69,258.7,68.2z M261.6,68.2c0,0.4,0,0.8,0,1.3s0.1,1,0.3,1.4s0.4,0.9,0.6,1.2c0.3,0.3,0.7,0.5,1.2,0.5
		c0.5,0,0.9-0.2,1.2-0.5c0.3-0.3,0.5-0.7,0.7-1.2s0.2-0.9,0.3-1.4s0-0.9,0-1.3s0-0.8,0-1.3s-0.1-1-0.3-1.4c-0.1-0.5-0.4-0.9-0.7-1.2
		c-0.3-0.3-0.7-0.5-1.2-0.5c-0.5,0-0.9,0.2-1.2,0.5c-0.3,0.3-0.5,0.7-0.6,1.2c-0.1,0.5-0.2,0.9-0.3,1.4S261.6,67.8,261.6,68.2z"/>
</g>
</svg>
