<?xml version="1.0" encoding="utf-8"?>
<!-- Generator: Adobe Illustrator 24.2.3, SVG Export Plug-In . SVG Version: 6.00 Build 0)  -->
<svg version="1.1" id="Background" xmlns="http://www.w3.org/2000/svg" xmlns:xlink="http://www.w3.org/1999/xlink" x="0px" y="0px"
	 viewBox="0 0 320 100" style="enable-background:new 0 0 320 100;" xml:space="preserve">
<style type="text/css">
	.st0{enable-background:new    ;}
	.st1{fill:#FFFFFF;}
</style>
<g class="st0">
	<path class="st1" d="M268,63.9h-5.4l-0.1,2.1c0.3-0.1,0.7-0.2,1.2-0.2c0.7,0,1.3,0.1,1.9,0.3s1.1,0.5,1.5,0.9
		c0.4,0.4,0.7,0.9,1,1.4c0.2,0.6,0.3,1.2,0.3,1.9c0,0.8-0.1,1.5-0.4,2.1c-0.3,0.6-0.6,1.1-1.1,1.5c-0.5,0.4-1,0.7-1.7,1
		c-0.6,0.2-1.3,0.3-2.1,0.3c-1.2,0-2.2-0.3-3-0.9c-0.8-0.6-1.3-1.5-1.6-2.6l3-0.7c0.1,0.5,0.3,0.9,0.6,1.2c0.3,0.3,0.8,0.5,1.3,0.5
		c0.6,0,1.1-0.2,1.5-0.6s0.6-0.9,0.6-1.5c0-0.5-0.1-0.8-0.3-1.1c-0.2-0.3-0.4-0.5-0.7-0.7c-0.3-0.2-0.6-0.3-1-0.4
		c-0.4-0.1-0.7-0.1-1.1-0.1c-0.5,0-1,0-1.4,0.1c-0.5,0.1-0.9,0.2-1.4,0.4l0.2-7.6h8.3V63.9z"/>
	<path class="st1" d="M270.1,68.2c0-0.8,0.1-1.6,0.2-2.5s0.4-1.6,0.8-2.3s0.9-1.2,1.6-1.7c0.7-0.4,1.5-0.6,2.5-0.6s1.9,0.2,2.5,0.6
		c0.7,0.4,1.2,1,1.6,1.7c0.4,0.7,0.6,1.4,0.8,2.3c0.1,0.8,0.2,1.7,0.2,2.5c0,0.8-0.1,1.6-0.2,2.5c-0.1,0.8-0.4,1.6-0.8,2.3
		c-0.4,0.7-0.9,1.2-1.6,1.7c-0.7,0.4-1.5,0.6-2.5,0.6s-1.9-0.2-2.5-0.6c-0.7-0.4-1.2-1-1.6-1.7c-0.4-0.7-0.6-1.4-0.8-2.3
		S270.1,69,270.1,68.2z M273,68.2c0,0.4,0,0.8,0,1.3s0.1,1,0.3,1.4s0.4,0.9,0.6,1.2c0.3,0.3,0.7,0.5,1.2,0.5c0.5,0,0.9-0.2,1.2-0.5
		c0.3-0.3,0.5-0.7,0.7-1.2s0.2-0.9,0.3-1.4s0-0.9,0-1.3s0-0.8,0-1.3s-0.1-1-0.3-1.4c-0.1-0.5-0.4-0.9-0.7-1.2
		c-0.3-0.3-0.7-0.5-1.2-0.5c-0.5,0-0.9,0.2-1.2,0.5c-0.3,0.3-0.5,0.7-0.6,1.2c-0.1,0.5-0.2,0.9-0.3,1.4S273,67.8,273,68.2z"/>
</g>
</svg>
