<svg xmlns="http://www.w3.org/2000/svg" viewBox="0 0 188.7 13.59"><defs><style>.cls-1{fill:#fff;}</style></defs><title>t2a-320x50</title><g id="Layer_2" data-name="Layer 2"><g id="Layer_1-2" data-name="Layer 1"><path class="cls-1" d="M0,2.48a1.25,1.25,0,0,1,.13-.59A1.07,1.07,0,0,1,.4,1.52q.13-.1.18-.09a1.39,1.39,0,0,0,.9.33,1.23,1.23,0,0,0,.84-.31A1.27,1.27,0,0,0,2.75.62h.66c.66,0,1,.33,1,1V9.51c0,.68-.32,1-1,1H3.13c-.64,0-.95-.33-.95-1V3.44a1.4,1.4,0,0,1-.85.26,1.33,1.33,0,0,1-.95-.34A1.13,1.13,0,0,1,0,2.48Z"/><path class="cls-1" d="M6.16,6.06v-1A4.78,4.78,0,0,1,7.29,1.75,4,4,0,0,1,10.41.52a4,4,0,0,1,3.11,1.22,4.72,4.72,0,0,1,1.14,3.34V6a4.74,4.74,0,0,1-1.14,3.35,4.05,4.05,0,0,1-3.13,1.23A4,4,0,0,1,7.28,9.4,4.75,4.75,0,0,1,6.16,6.06Zm2.22.06a3.18,3.18,0,0,0,.52,2,1.8,1.8,0,0,0,1.51.68,1.78,1.78,0,0,0,1.5-.67,3.12,3.12,0,0,0,.53-1.95V4.89a3.13,3.13,0,0,0-.54-2,1.8,1.8,0,0,0-1.51-.68,1.75,1.75,0,0,0-1.49.67,3.14,3.14,0,0,0-.52,2Z"/><path class="cls-1" d="M15.8,6.06v-1a4.78,4.78,0,0,1,1.13-3.35A4,4,0,0,1,20.05.52a4,4,0,0,1,3.11,1.22,4.71,4.71,0,0,1,1.13,3.34V6a4.78,4.78,0,0,1-1.13,3.35A4.07,4.07,0,0,1,20,10.62,4,4,0,0,1,16.92,9.4,4.75,4.75,0,0,1,15.8,6.06ZM18,6.12a3.18,3.18,0,0,0,.52,2,1.8,1.8,0,0,0,1.51.68,1.78,1.78,0,0,0,1.5-.67,3.12,3.12,0,0,0,.52-1.95V4.89a3.13,3.13,0,0,0-.53-2A1.8,1.8,0,0,0,20,2.25a1.78,1.78,0,0,0-1.5.67,3.2,3.2,0,0,0-.51,2Z"/><path class="cls-1" d="M25.14,3V2.89a2.23,2.23,0,0,1,.68-1.67A2.49,2.49,0,0,1,27.61.56a2.46,2.46,0,0,1,1.77.65,2.22,2.22,0,0,1,.68,1.67V3a2.22,2.22,0,0,1-.69,1.67,2.76,2.76,0,0,1-3.55,0A2.19,2.19,0,0,1,25.14,3Zm.79,6.84a1.13,1.13,0,0,1,.41-.76L33.88.53s.12,0,.28,0a1.31,1.31,0,0,1,.45.26.61.61,0,0,1,.22.44,1.25,1.25,0,0,1-.39.78l-7.57,8.55s-.12,0-.27,0a1.57,1.57,0,0,1-.45-.27A.57.57,0,0,1,25.93,9.85Zm.68-6.8a1.18,1.18,0,0,0,.27.81,1,1,0,0,0,.73.31.91.91,0,0,0,.71-.3,1.13,1.13,0,0,0,.28-.82V2.83A1.09,1.09,0,0,0,28.31,2a.91.91,0,0,0-.71-.3,1,1,0,0,0-.72.29,1.18,1.18,0,0,0-.27.82Zm4.14,5.2V8.13a2.19,2.19,0,0,1,.69-1.67,2.72,2.72,0,0,1,3.54,0,2.17,2.17,0,0,1,.69,1.67v.11A2.19,2.19,0,0,1,35,9.9a2.45,2.45,0,0,1-1.77.65,2.48,2.48,0,0,1-1.78-.64A2.16,2.16,0,0,1,30.75,8.25Zm1.47,0a1.16,1.16,0,0,0,.27.8,1,1,0,0,0,.73.3.94.94,0,0,0,.71-.29,1.13,1.13,0,0,0,.28-.81V8.06a1.13,1.13,0,0,0-.28-.81.94.94,0,0,0-.72-.31.92.92,0,0,0-.72.3,1.19,1.19,0,0,0-.27.82Z"/><path class="cls-1" d="M38.88,6.76A3.72,3.72,0,0,1,40,4,3.79,3.79,0,0,1,42.74,3a3.57,3.57,0,0,1,2.31.66A1.81,1.81,0,0,1,45.86,5a.78.78,0,0,1-.28.63,1.57,1.57,0,0,1-.57.3c-.19,0-.3,0-.32,0a1.82,1.82,0,0,0-1.86-1.19,1.93,1.93,0,0,0-1.44.59,2.09,2.09,0,0,0-.56,1.49,2.17,2.17,0,0,0,.56,1.53,1.9,1.9,0,0,0,1.44.6,1.84,1.84,0,0,0,1.86-1.2s.11,0,.31,0a1.35,1.35,0,0,1,.58.3.8.8,0,0,1,.28.64A1.8,1.8,0,0,1,45,10a3.51,3.51,0,0,1-2.29.67,3.71,3.71,0,0,1-3.86-3.86Z"/><path class="cls-1" d="M46.6,8.47a2,2,0,0,1,1.15-1.86A8.3,8.3,0,0,1,51.31,6h.25c0-.93-.51-1.4-1.51-1.4a1.87,1.87,0,0,0-1.81,1.09s-.11,0-.34,0a1.51,1.51,0,0,1-.68-.24.72.72,0,0,1-.35-.64,1.55,1.55,0,0,1,.87-1.31,4.56,4.56,0,0,1,2.45-.55q3.48,0,3.48,3v4.34c0,.05-.08.1-.25.15a1.69,1.69,0,0,1-.56.08A1.18,1.18,0,0,1,51.6,9.38a2.88,2.88,0,0,1-2.54,1.21,2.57,2.57,0,0,1-1.8-.59A2,2,0,0,1,46.6,8.47Zm2-.15a.77.77,0,0,0,.3.64,1.28,1.28,0,0,0,.83.25,1.84,1.84,0,0,0,1.29-.47,1.52,1.52,0,0,0,.51-1.18V7.13l-.39,0a5.19,5.19,0,0,0-1.91.3A.9.9,0,0,0,48.63,8.32Z"/><path class="cls-1" d="M55.17,9.48V3.27s0,0,.11-.09a1,1,0,0,1,.29-.11A1.83,1.83,0,0,1,56,3a1.21,1.21,0,0,1,1.29,1.22A1.78,1.78,0,0,1,59,2.94a1.45,1.45,0,0,1,1,.32,1.12,1.12,0,0,1,.36.88,1.19,1.19,0,0,1-.16.64,1.17,1.17,0,0,1-.32.38c-.11.07-.17.1-.19.08a1.42,1.42,0,0,0-1-.37c-1,0-1.48.8-1.48,2.39V9.47c0,.67-.31,1-.93,1h-.22C55.49,10.48,55.17,10.15,55.17,9.48Z"/><path class="cls-1" d="M61.39,9.48V.27s0-.06.1-.1l.3-.09a1.75,1.75,0,0,1,.4,0q1.32,0,1.32,1.68V4.19a2.63,2.63,0,0,1,2.37-1.25A3.13,3.13,0,0,1,68.32,4a4.05,4.05,0,0,1,1,2.81,4,4,0,0,1-1,2.75,3.14,3.14,0,0,1-2.46,1.07,2.88,2.88,0,0,1-1.43-.35,2.25,2.25,0,0,1-.91-.9V9.5c0,.65-.31,1-.94,1h-.22C61.71,10.48,61.39,10.15,61.39,9.48Zm2.12-2.19a1.61,1.61,0,0,0,.54,1.21A1.88,1.88,0,0,0,65.34,9a1.75,1.75,0,0,0,1.37-.59,2.33,2.33,0,0,0,.51-1.57,2.28,2.28,0,0,0-.51-1.55,1.71,1.71,0,0,0-1.36-.59,1.84,1.84,0,0,0-1.84,1.2Z"/><path class="cls-1" d="M70.07,6.77A3.72,3.72,0,0,1,71.17,4,3.88,3.88,0,0,1,74,2.94,3.8,3.8,0,0,1,76.81,4,3.78,3.78,0,0,1,77.89,6.8,3.69,3.69,0,0,1,76.8,9.57a4.31,4.31,0,0,1-5.65,0A3.74,3.74,0,0,1,70.07,6.77Zm1.86,0a2.21,2.21,0,0,0,.59,1.58A1.91,1.91,0,0,0,74,9a1.88,1.88,0,0,0,1.46-.62A2.2,2.2,0,0,0,76,6.8a2.29,2.29,0,0,0-.58-1.59A1.89,1.89,0,0,0,74,4.58a2,2,0,0,0-1.47.62A2.22,2.22,0,0,0,71.93,6.77Z"/><path class="cls-1" d="M79.1,9.48V3.27s0,0,.1-.09a1.12,1.12,0,0,1,.3-.11,1.75,1.75,0,0,1,.4,0,1.2,1.2,0,0,1,1.27,1.17,2.8,2.8,0,0,1,2.42-1.25,2.45,2.45,0,0,1,2,.84A3.32,3.32,0,0,1,86.3,6V9.48c0,.67-.31,1-.93,1h-.23c-.64,0-1-.34-1-1V6.25a1.73,1.73,0,0,0-.35-1.16,1.22,1.22,0,0,0-1-.42,1.68,1.68,0,0,0-1.61,1V9.47c0,.67-.31,1-.94,1h-.22C79.42,10.48,79.1,10.15,79.1,9.48Z"/><path class="cls-1" d="M90.36,9.48V3.27s0,0,.1-.09a1.12,1.12,0,0,1,.3-.11,1.74,1.74,0,0,1,.39,0,1.21,1.21,0,0,1,1.28,1.17,2.78,2.78,0,0,1,2.41-1.25,2.46,2.46,0,0,1,2,.84A3.37,3.37,0,0,1,97.56,6V9.48c0,.67-.31,1-.93,1H96.4c-.64,0-1-.34-1-1V6.25a1.73,1.73,0,0,0-.35-1.16,1.23,1.23,0,0,0-1-.42,1.68,1.68,0,0,0-1.61,1V9.47c0,.67-.32,1-.94,1h-.22C90.68,10.48,90.36,10.15,90.36,9.48Z"/><path class="cls-1" d="M98.66,6.82A3.8,3.8,0,0,1,99.74,4a3.65,3.65,0,0,1,2.75-1.1,3.55,3.55,0,0,1,2.63,1,3.6,3.6,0,0,1,1,2.64v.15a.83.83,0,0,1-.12.44.46.46,0,0,1-.38.14h-5.06a1.75,1.75,0,0,0,.68,1.2A2.3,2.3,0,0,0,102.7,9a2.26,2.26,0,0,0,2.08-1s.09,0,.25,0a1.27,1.27,0,0,1,.5.28.77.77,0,0,1,.26.58,1.54,1.54,0,0,1-.86,1.23,4.25,4.25,0,0,1-2.31.55,4,4,0,0,1-2.88-1A3.65,3.65,0,0,1,98.66,6.82Zm1.92-.72h3.6a1.76,1.76,0,0,0-.49-1.23,1.62,1.62,0,0,0-1.22-.46,1.84,1.84,0,0,0-1.26.47A2,2,0,0,0,100.58,6.1Z"/><path class="cls-1" d="M107.25,7.59V4.05c0-.68.31-1,.93-1h.23c.64,0,1,.35,1,1V7.3a1.76,1.76,0,0,0,.35,1.17,1.29,1.29,0,0,0,1,.42,1.66,1.66,0,0,0,1.57-1V4.06c0-.69.32-1,1-1h.21c.64,0,1,.35,1,1v6.19s0,.06-.1.1a1.73,1.73,0,0,1-.3.1,1.84,1.84,0,0,1-.39,0,1.2,1.2,0,0,1-1.28-1.13,2.77,2.77,0,0,1-2.4,1.27,2.46,2.46,0,0,1-2-.84A3.33,3.33,0,0,1,107.25,7.59Z"/><path class="cls-1" d="M115.44,4V3.88c0-.52.3-.77.89-.77h.35V2.17c0-.67.32-1,1-1h.17c.63,0,1,.34,1,1v.94H120c.57,0,.85.24.85.74V4c0,.52-.29.78-.86.78h-1.3V7.89q0,1.08.81,1.08a1.14,1.14,0,0,0,.94-.49s.06,0,.15,0a.82.82,0,0,1,.24.29,1,1,0,0,1,.12.48,1.13,1.13,0,0,1-.53.94,2.39,2.39,0,0,1-1.4.38c-1.59,0-2.38-.83-2.38-2.5V4.75h-.35C115.74,4.75,115.44,4.51,115.44,4Z"/><path class="cls-1" d="M122.05,9.48V3.27s0,0,.1-.09a1.12,1.12,0,0,1,.3-.11,1.74,1.74,0,0,1,.39,0,1.22,1.22,0,0,1,1.3,1.22,1.77,1.77,0,0,1,1.78-1.3,1.41,1.41,0,0,1,1,.32,1.09,1.09,0,0,1,.37.88,1.19,1.19,0,0,1-.16.64,1.07,1.07,0,0,1-.33.38c-.1.07-.16.1-.18.08a1.42,1.42,0,0,0-1-.37c-1,0-1.48.8-1.48,2.39V9.47c0,.67-.31,1-.94,1H123C122.37,10.48,122.05,10.15,122.05,9.48Z"/><path class="cls-1" d="M127.79,8.47a2,2,0,0,1,1.15-1.86A8.21,8.21,0,0,1,132.49,6h.25c0-.93-.51-1.4-1.51-1.4a1.87,1.87,0,0,0-1.81,1.09s-.11,0-.34,0a1.55,1.55,0,0,1-.68-.24.71.71,0,0,1-.34-.64,1.55,1.55,0,0,1,.87-1.31,4.52,4.52,0,0,1,2.44-.55q3.48,0,3.48,3v4.34c0,.05-.08.1-.25.15a1.65,1.65,0,0,1-.56.08,1.18,1.18,0,0,1-1.26-1.14,2.88,2.88,0,0,1-2.54,1.21,2.57,2.57,0,0,1-1.8-.59A1.94,1.94,0,0,1,127.79,8.47Zm2-.15a.77.77,0,0,0,.3.64,1.28,1.28,0,0,0,.83.25,1.84,1.84,0,0,0,1.29-.47,1.52,1.52,0,0,0,.51-1.18V7.13l-.39,0a5.23,5.23,0,0,0-1.91.3A.9.9,0,0,0,129.81,8.32Z"/><path class="cls-1" d="M136.41,9.48V.23s0-.06.11-.09a1,1,0,0,1,.3-.1,1.72,1.72,0,0,1,.39,0c.87,0,1.32.56,1.32,1.69V9.48c0,.67-.31,1-.93,1h-.23C136.73,10.48,136.41,10.15,136.41,9.48Z"/><path class="cls-1" d="M142.32,6.82A3.8,3.8,0,0,1,143.4,4a3.65,3.65,0,0,1,2.75-1.1,3.55,3.55,0,0,1,2.63,1,3.6,3.6,0,0,1,1,2.64v.15a.83.83,0,0,1-.12.44.46.46,0,0,1-.38.14h-5.06a1.75,1.75,0,0,0,.68,1.2,2.3,2.3,0,0,0,1.45.44,2.26,2.26,0,0,0,2.08-1s.09,0,.25,0a1.34,1.34,0,0,1,.5.28.77.77,0,0,1,.26.58,1.53,1.53,0,0,1-.87,1.23,4.19,4.19,0,0,1-2.3.55,4,4,0,0,1-2.88-1A3.65,3.65,0,0,1,142.32,6.82Zm1.91-.72h3.61a1.76,1.76,0,0,0-.49-1.23,1.62,1.62,0,0,0-1.22-.46,1.84,1.84,0,0,0-1.26.47A2.07,2.07,0,0,0,144.23,6.1Z"/><path class="cls-1" d="M151,9.48V3.27s0,0,.1-.09a1.12,1.12,0,0,1,.3-.11,1.74,1.74,0,0,1,.39,0,1.22,1.22,0,0,1,1.28,1.17,2.78,2.78,0,0,1,2.41-1.25,2.46,2.46,0,0,1,2,.84A3.37,3.37,0,0,1,158.17,6V9.48c0,.67-.31,1-.93,1H157c-.64,0-1-.34-1-1V6.25a1.78,1.78,0,0,0-.35-1.16,1.24,1.24,0,0,0-1-.42,1.71,1.71,0,0,0-1.62,1V9.47c0,.67-.31,1-.93,1h-.22C151.3,10.48,151,10.15,151,9.48Z"/><path class="cls-1" d="M159.27,6.82A3.8,3.8,0,0,1,160.35,4a3.67,3.67,0,0,1,2.75-1.1,3.48,3.48,0,0,1,3.64,3.66v.15a.83.83,0,0,1-.12.44.45.45,0,0,1-.38.14h-5.05a1.71,1.71,0,0,0,.68,1.2,2.28,2.28,0,0,0,1.45.44,2.24,2.24,0,0,0,2.07-1s.1,0,.26,0a1.34,1.34,0,0,1,.5.28.76.76,0,0,1,.25.58,1.54,1.54,0,0,1-.86,1.23,4.19,4.19,0,0,1-2.3.55,4,4,0,0,1-2.89-1A3.65,3.65,0,0,1,159.27,6.82Zm1.92-.72h3.6a1.8,1.8,0,0,0-.48-1.23,1.66,1.66,0,0,0-1.23-.46,1.81,1.81,0,0,0-1.25.47A2,2,0,0,0,161.19,6.1Z"/><path class="cls-1" d="M167.93,9.48V3.27s0,0,.1-.09a1.12,1.12,0,0,1,.3-.11,1.74,1.74,0,0,1,.39,0A1.22,1.22,0,0,1,170,4.24a1.77,1.77,0,0,1,1.78-1.3,1.41,1.41,0,0,1,1,.32,1.09,1.09,0,0,1,.37.88,1.2,1.2,0,0,1-.17.64,1,1,0,0,1-.32.38c-.1.07-.16.1-.18.08a1.42,1.42,0,0,0-1-.37c-1,0-1.48.8-1.48,2.39V9.47c0,.67-.32,1-.94,1h-.22C168.25,10.48,167.93,10.15,167.93,9.48Z"/><path class="cls-1" d="M173.11,11.55a1.56,1.56,0,0,1,.62-1.25,3.47,3.47,0,0,1,1.67-.64.86.86,0,0,1-.25-.68,1,1,0,0,1,.49-.85,2.83,2.83,0,0,1-1.47-.91,2.25,2.25,0,0,1-.53-1.51,2.45,2.45,0,0,1,.94-2A3.55,3.55,0,0,1,177,3a4.07,4.07,0,0,1,1.59.32l.31-.6a1.2,1.2,0,0,1,1-.74.87.87,0,0,1,.59.22,1.29,1.29,0,0,1,.37.43c.07.15.09.23.07.25l-1.27,1.22a2.34,2.34,0,0,1,.65,1.63,2.31,2.31,0,0,1-.92,1.9A3.82,3.82,0,0,1,177,8.3h-.1a.43.43,0,0,0,0,.17.31.31,0,0,0,.07.21.55.55,0,0,0,.26.15l.37.12.56.14.63.17c1.42.37,2.13,1,2.12,2a1.87,1.87,0,0,1-1,1.68,5.66,5.66,0,0,1-2.91.63,6.32,6.32,0,0,1-2.88-.5A1.62,1.62,0,0,1,173.11,11.55Zm2-.12c0,.55.6.82,1.81.82a3.47,3.47,0,0,0,1.41-.23.73.73,0,0,0,.49-.67.44.44,0,0,0-.05-.22.56.56,0,0,0-.16-.19,1.42,1.42,0,0,0-.23-.14l-.32-.1-.34-.08-.41-.1-.39-.1a3.44,3.44,0,0,0-1.31.32A.8.8,0,0,0,175.13,11.43ZM176,4.69a1.34,1.34,0,0,0-.38,1,1.33,1.33,0,0,0,.39,1,1.38,1.38,0,0,0,1,.38,1.45,1.45,0,0,0,1-.38,1.33,1.33,0,0,0,.39-1,1.31,1.31,0,0,0-.39-1,1.46,1.46,0,0,0-1-.38A1.37,1.37,0,0,0,176,4.69Z"/><path class="cls-1" d="M181.05,3.64s0-.11.12-.21a1.59,1.59,0,0,1,.44-.28A1.25,1.25,0,0,1,182.2,3c.57,0,1,.36,1.18,1.07L185,8.26l1.42-4.17c.22-.71.6-1.08,1.16-1.08a1.38,1.38,0,0,1,.57.13,1.57,1.57,0,0,1,.45.27c.1.09.14.16.12.2l-3.33,8.66c-.27.69-.66,1-1.19,1a1.31,1.31,0,0,1-.57-.13,1.59,1.59,0,0,1-.44-.26c-.1-.09-.14-.15-.12-.2L184.26,10a.77.77,0,0,1-.69-.48Z"/></g></g></svg>