<svg xmlns="http://www.w3.org/2000/svg" viewBox="0 0 107.33 9.47"><defs><style>.cls-1{fill:#fff;}</style></defs><title>t2b-320x50</title><g id="Layer_2" data-name="Layer 2"><g id="Layer_1-2" data-name="Layer 1"><path class="cls-1" d="M0,7.32A2,2,0,0,1,1.15,5.46a8.26,8.26,0,0,1,3.56-.63H5c0-.93-.5-1.4-1.5-1.4A1.88,1.88,0,0,0,1.63,4.52s-.11,0-.34,0a1.59,1.59,0,0,1-.68-.24.71.71,0,0,1-.34-.64,1.55,1.55,0,0,1,.87-1.31,4.55,4.55,0,0,1,2.44-.55q3.5,0,3.49,3V9.14s-.09.1-.26.15a1.59,1.59,0,0,1-.55.09A1.18,1.18,0,0,1,5,8.23,2.91,2.91,0,0,1,2.45,9.44,2.54,2.54,0,0,1,.66,8.85,2,2,0,0,1,0,7.32Zm2-.15a.79.79,0,0,0,.31.65,1.32,1.32,0,0,0,.83.24,1.8,1.8,0,0,0,1.28-.47A1.52,1.52,0,0,0,5,6.41V6L4.56,6a5.45,5.45,0,0,0-1.91.3A.9.9,0,0,0,2,7.17Z"/><path class="cls-1" d="M7.84,2.87V2.73c0-.52.3-.77.88-.77h.36V1c0-.68.32-1,1-1h.18c.63,0,.95.34.95,1V2h1.27c.57,0,.85.24.85.74v.12q0,.78-.87.78H11.13V6.74q0,1.08.81,1.08a1.15,1.15,0,0,0,.94-.49s.06,0,.15,0a.82.82,0,0,1,.24.29,1,1,0,0,1,.12.48,1.13,1.13,0,0,1-.53.94,2.39,2.39,0,0,1-1.4.38c-1.59,0-2.38-.83-2.38-2.5V3.6H8.72C8.14,3.6,7.84,3.36,7.84,2.87Z"/><path class="cls-1" d="M17,8.33V2.12s0-.05.1-.09a1.12,1.12,0,0,1,.3-.11,1.72,1.72,0,0,1,.39,0A1.2,1.2,0,0,1,19.07,3a2.79,2.79,0,0,1,2.41-1.25,2.46,2.46,0,0,1,2,.84,3.37,3.37,0,0,1,.68,2.19V8.33c0,.67-.31,1-.93,1H23c-.64,0-1-.34-1-1V5.1a1.78,1.78,0,0,0-.35-1.16,1.23,1.23,0,0,0-1-.42,1.68,1.68,0,0,0-1.61,1V8.32c0,.67-.32,1-.94,1H18C17.32,9.33,17,9,17,8.33Z"/><path class="cls-1" d="M25.31,5.62a3.68,3.68,0,0,1,1.1-2.76,3.85,3.85,0,0,1,2.84-1.07,3.83,3.83,0,0,1,2.8,1.07,3.78,3.78,0,0,1,1.08,2.79A3.65,3.65,0,0,1,32,8.42a3.87,3.87,0,0,1-2.82,1.05,3.85,3.85,0,0,1-2.83-1.06A3.74,3.74,0,0,1,25.31,5.62Zm1.86,0a2.21,2.21,0,0,0,.59,1.58,1.91,1.91,0,0,0,1.47.62,1.88,1.88,0,0,0,1.46-.62,2.16,2.16,0,0,0,.58-1.55,2.24,2.24,0,0,0-.58-1.59,1.89,1.89,0,0,0-1.46-.63,2,2,0,0,0-1.47.62A2.22,2.22,0,0,0,27.17,5.62Z"/><path class="cls-1" d="M36.48,5.67a3.8,3.8,0,0,1,1.08-2.78,3.67,3.67,0,0,1,2.75-1.1A3.48,3.48,0,0,1,44,5.45V5.6a.83.83,0,0,1-.12.44.46.46,0,0,1-.38.14H38.4a1.68,1.68,0,0,0,.68,1.2,2.28,2.28,0,0,0,1.45.44,2.24,2.24,0,0,0,2.07-1s.1,0,.26,0a1.24,1.24,0,0,1,.5.29.72.72,0,0,1,.25.57,1.52,1.52,0,0,1-.86,1.23,4.19,4.19,0,0,1-2.3.55,4,4,0,0,1-2.89-1A3.65,3.65,0,0,1,36.48,5.67ZM38.4,5H42a1.8,1.8,0,0,0-.48-1.23,1.66,1.66,0,0,0-1.23-.46A1.8,1.8,0,0,0,39,3.73,2,2,0,0,0,38.4,5Z"/><path class="cls-1" d="M44.37,8.66l2.22-3L44.38,2.57s0-.11.12-.23A1.35,1.35,0,0,1,44.94,2a1.27,1.27,0,0,1,.62-.16,1.29,1.29,0,0,1,1.18.77l1.24,2,1.25-1.95a1.29,1.29,0,0,1,1.15-.77A1.35,1.35,0,0,1,51,2a1.6,1.6,0,0,1,.46.32c.08.09.12.15.11.19s0,0,0,0L49.35,5.63l2.2,3s0,.11-.1.22A1.47,1.47,0,0,1,51,9.2a1.33,1.33,0,0,1-.65.16A1.24,1.24,0,0,1,49.2,8.6L48,6.65,46.72,8.6a1.28,1.28,0,0,1-1.16.76,1.34,1.34,0,0,1-.63-.16,1.6,1.6,0,0,1-.46-.32c-.08-.09-.11-.15-.11-.19S44.36,8.66,44.37,8.66Z"/><path class="cls-1" d="M52.08,2.87V2.73c0-.52.3-.77.88-.77h.36V1c0-.68.32-1,1-1h.18c.63,0,.95.34.95,1V2h1.27c.57,0,.85.24.85.74v.12q0,.78-.87.78h-1.3V6.74c0,.72.27,1.08.82,1.08a1.15,1.15,0,0,0,.94-.49s.06,0,.14,0a.74.74,0,0,1,.25.29,1,1,0,0,1,.12.48,1.13,1.13,0,0,1-.53.94,2.42,2.42,0,0,1-1.41.38c-1.58,0-2.38-.83-2.37-2.5V3.6H53C52.38,3.6,52.08,3.36,52.08,2.87Z"/><path class="cls-1" d="M58.69,8.33V2.12s0-.05.1-.09a1.12,1.12,0,0,1,.3-.11,1.72,1.72,0,0,1,.39,0,1.21,1.21,0,0,1,1.3,1.21,1.77,1.77,0,0,1,1.78-1.3,1.41,1.41,0,0,1,1,.32,1.09,1.09,0,0,1,.37.88,1.2,1.2,0,0,1-.17.64,1.06,1.06,0,0,1-.32.38c-.1.07-.16.1-.18.08a1.42,1.42,0,0,0-1-.37c-1,0-1.48.8-1.48,2.39V8.32c0,.67-.32,1-.94,1h-.22C59,9.33,58.69,9,58.69,8.33Z"/><path class="cls-1" d="M64.42,7.32a2,2,0,0,1,1.15-1.86,8.3,8.3,0,0,1,3.56-.63h.25c0-.93-.51-1.4-1.51-1.4a1.87,1.87,0,0,0-1.81,1.09s-.11,0-.34,0A1.51,1.51,0,0,1,65,4.29a.72.72,0,0,1-.35-.64,1.55,1.55,0,0,1,.87-1.31A4.56,4.56,0,0,1,68,1.79q3.48,0,3.48,3V9.14s-.08.1-.25.15a1.69,1.69,0,0,1-.56.09,1.18,1.18,0,0,1-1.26-1.15,2.88,2.88,0,0,1-2.54,1.21,2.57,2.57,0,0,1-1.8-.59A2,2,0,0,1,64.42,7.32Zm2-.15a.81.81,0,0,0,.3.65,1.34,1.34,0,0,0,.83.24,1.84,1.84,0,0,0,1.29-.47,1.52,1.52,0,0,0,.51-1.18V6L69,6a5.41,5.41,0,0,0-1.91.3A.9.9,0,0,0,66.45,7.17Z"/><path class="cls-1" d="M75.15,5.61a3.67,3.67,0,0,1,1.08-2.73A3.78,3.78,0,0,1,79,1.8a3.6,3.6,0,0,1,2.32.66,1.81,1.81,0,0,1,.81,1.34.79.79,0,0,1-.29.63,1.57,1.57,0,0,1-.57.3c-.19,0-.3,0-.32,0a1.83,1.83,0,0,0-1.86-1.19,1.89,1.89,0,0,0-1.43.59,2.05,2.05,0,0,0-.57,1.49,2.13,2.13,0,0,0,.57,1.53,1.86,1.86,0,0,0,1.43.6A1.84,1.84,0,0,0,81,6.54s.12,0,.31,0a1.18,1.18,0,0,1,.58.29.82.82,0,0,1,.29.64A1.83,1.83,0,0,1,81.3,8.8a3.54,3.54,0,0,1-2.3.67,3.7,3.7,0,0,1-3.85-3.86Z"/><path class="cls-1" d="M82.85,5.62A3.68,3.68,0,0,1,84,2.86a4.25,4.25,0,0,1,5.64,0,3.78,3.78,0,0,1,1.08,2.79,3.69,3.69,0,0,1-1.09,2.77,3.88,3.88,0,0,1-2.83,1.05,3.84,3.84,0,0,1-2.82-1.06A3.74,3.74,0,0,1,82.85,5.62Zm1.86,0A2.21,2.21,0,0,0,85.3,7.2a1.91,1.91,0,0,0,1.47.62,1.88,1.88,0,0,0,1.46-.62,2.2,2.2,0,0,0,.58-1.55,2.29,2.29,0,0,0-.58-1.59,1.89,1.89,0,0,0-1.46-.63,2,2,0,0,0-1.47.62A2.22,2.22,0,0,0,84.71,5.62Z"/><path class="cls-1" d="M91.38,7.69a.72.72,0,0,1,.15-.43A1.29,1.29,0,0,1,91.84,7c.11-.06.17-.08.19-.06a3.29,3.29,0,0,0,2.42.9c.85,0,1.28-.21,1.28-.63a.48.48,0,0,0-.31-.46,6.19,6.19,0,0,0-1.1-.28.46.46,0,0,1-.15,0l-.57-.13c-.12,0-.3-.08-.55-.15a2.57,2.57,0,0,1-.57-.26A3.33,3.33,0,0,1,92,5.48,1.26,1.26,0,0,1,91.69,5a2.08,2.08,0,0,1-.11-.69,2.23,2.23,0,0,1,.83-1.79,3.45,3.45,0,0,1,2.23-.68,4,4,0,0,1,2.19.5,1.41,1.41,0,0,1,.77,1.22.66.66,0,0,1-.16.44,1.4,1.4,0,0,1-.33.32c-.11.07-.17.1-.19.08a2.78,2.78,0,0,0-2.14-.91c-.83,0-1.25.22-1.25.64a.43.43,0,0,0,.29.42,7,7,0,0,0,1,.28l.27.06.68.16a6.83,6.83,0,0,1,.7.23,2.46,2.46,0,0,1,.68.37,1.65,1.65,0,0,1,.43.55,1.62,1.62,0,0,1,.2.81,2.15,2.15,0,0,1-.86,1.81,3.78,3.78,0,0,1-2.36.66,4.59,4.59,0,0,1-2.35-.5A1.48,1.48,0,0,1,91.38,7.69Z"/><path class="cls-1" d="M98.45,2.87V2.73c0-.52.3-.77.88-.77h.36V1c0-.68.32-1,1-1h.18c.63,0,1,.34,1,1V2h1.27c.57,0,.85.24.85.74v.12q0,.78-.87.78h-1.3V6.74c0,.72.27,1.08.82,1.08a1.15,1.15,0,0,0,.94-.49s.06,0,.14,0a.74.74,0,0,1,.25.29,1,1,0,0,1,.12.48,1.13,1.13,0,0,1-.53.94,2.42,2.42,0,0,1-1.41.38c-1.58,0-2.38-.83-2.37-2.5V3.6h-.36C98.75,3.6,98.45,3.36,98.45,2.87Z"/><path class="cls-1" d="M105.05,8.39V8.17a.88.88,0,0,1,1-1h.27a.89.89,0,0,1,1,1v.22a.89.89,0,0,1-1,1H106A.88.88,0,0,1,105.05,8.39Z"/></g></g></svg>