<svg xmlns="http://www.w3.org/2000/svg" xmlns:xlink="http://www.w3.org/1999/xlink" viewBox="0 0 970 250"><defs><style>.cls-1,.cls-6{fill:none;}.cls-2{clip-path:url(#clip-path);}.cls-3{fill:#da290b;}.cls-4{fill:#701010;}.cls-5{fill:#fff;}.cls-6{stroke:#810b00;stroke-miterlimit:10;stroke-width:2.53px;}.cls-7{fill:#810b00;}.cls-8{fill:#bcbec0;}.cls-9{fill:#231f20;}.cls-10{fill:#eb2227;}.cls-11{fill:#f47b30;}.cls-12{fill:#ffc216;}</style><clipPath id="clip-path"><rect class="cls-1" x="-712.44" y="-33.98" width="625.13" height="337.46"/></clipPath></defs><g id="Layer_1" data-name="Layer 1"><g class="cls-2"><g id="_Clip_Group_Background" data-name="&lt;Clip Group&gt; Background"><path class="cls-3" d="M52.07,113.5a72,72,0,0,0-4.86-7.94c-2.6-2.66-8.57-24.81-10.65-30.13S20.7,48,18.62,46.19s-6.76-4-9.36-6.64-10.39-18.61-14.81-23-10.92-4.88-15.08-6.21-8.06,4.88-8.06,4.88h-7.8c-1.55,0-7.79,12-9.87,13.29s-9.62-.89-11.7,0c-1.31.56-11.36,10.76-19.16,18.81-4.89-3.11-9.61-5.53-12.14-5.27a84.65,84.65,0,0,1-14,0L-116.13,31.3c-12.05-.67-15.4-10-22.1-7.37s-25.44.67-26.78,4c-.61,1.54-6.51,4.8-13,8.05-7.57-4.57-16.6-9.92-17.83-10.23-2.08-.52-9.62.78-11.7,0s-8.32-7.8-9.88-7.8h-7.8s-5.72-3.3-8.06-2.86c-4.16.78-10.65,1-15.07,3.64s-12.22,12-14.82,13.51-7.28,2.86-9.36,3.9-15.85,14-17.93,17.16c0,0-4,3.34-10.29,8-8-.43-17.27,3.8-24.63,8L-325.9,58l-3.33-3-1.49.07v0l-3.32.16-1.47.07-3.21.15.15,3.14.72,15.49.13,2.69a24,24,0,0,1-4.78,1l-.69-14.72-3.33-3-1.49.07v0l-4.78.22-3.06,3.29.7,15.06-2.58.07-.7-15-3.33-3-1.49.07v0l-4.78.22-3.07,3.3.68,14.4c-1.74,0-3.45-.1-5.11-.18l2.92-19.11-4.67.22-1.65,10.74-2.71-10.54h-.05l-2.49.12h-.05l-1.72,10.75-2.64-10.54-4.67.21,4.2,16.77c-1-.19-1.84-.39-2.57-.61a24.47,24.47,0,0,0-7-.65l-.42-9,4.53-11.23-4.67.22-2.43,6-3-5.77-4.67.22,5.55,10.76.42,9c-.86.07-1.74.16-2.64.26l-.06-1.35-6.47.3-.8-17.24-4.67.22.91,19.71-1.77.32-.15-3.24-6.47.3-.8-17.24-4.67.22.91,19.46c-1.55-.29-2.93-.53-4.06-.7-.23,0-.5,0-.75-.07l.6-.64L-434.93,61l-3.32-3-1.49.06v0l-4.79.22-3.06,3.29.72,15.5.82.72-3.81.55-1-21.4-4.67.22.4,8.61-3.59.17-.4-8.61-4.67.21.58,12.48.77,16.23-3.19,2.51a96.88,96.88,0,0,0-13.71,2c-15.36,3.54-33.37,45.55-33.37,45.55l-.14.41C-521,145-530,154.45-531.35,155.84c-2.35,2.52-9.49,20.75-12.43,28.79s-6.81,9.6-6.81,9.6c-23.11,5-24.88,15.65-30.51,11.63s-44.76-2.52-44.76-2.52l-25.52,26.11s-15.76,3.59-27.23,8.69S-712,268.7-712,268.7c-1.29,34.52-3.71,187-3.71,187H75.41V125.83A181.08,181.08,0,0,0,52.07,113.5ZM-330.51,59.66l.58,12.35-.59.36-2.72.13-.59-12.68Zm-17.28,5.06.59,12.68-3.32.16-.6-12.68Zm-15.25.71.59,12.68-3.32.16-.59-12.68Zm-19.4,5.14,1.26,7.66-1.79-.16Zm-57.09-7.89.59,12.68-3.32.16-.59-12.69Zm-19,7.88,3.6-.17.38,8.31c-1.13-1.13-2.68,3-4,1.63Z"/></g></g><path class="cls-4" d="M165.48,84.52H175l-.7,3.33h-5.64l-.37,1.8h4.27l-.67,3.07h-4.27l-.78,3.76H163Z"/><path class="cls-4" d="M182,84.18c3.88,0,6.32,2.68,6.32,5.89A7,7,0,0,1,181,96.82c-3.87,0-6.32-2.68-6.32-5.89A7,7,0,0,1,182,84.18Zm-.77,9.22a3.21,3.21,0,0,0,3.25-3.24,2.58,2.58,0,0,0-2.65-2.56,3.21,3.21,0,0,0-3.24,3.24A2.57,2.57,0,0,0,181.2,93.4Z"/><path class="cls-4" d="M191.33,84.52h5.33a4,4,0,0,1,4.18,3.93,4.35,4.35,0,0,1-1.31,3.13,5.61,5.61,0,0,1-1.32.93l1.27,4h-3.69l-1-3.42h-1.4l-.71,3.42H188.8Zm4.53,5.3A1.11,1.11,0,0,0,197,88.69c0-.6-.34-.92-1-.92h-1.49l-.44,2Z"/><path class="cls-4" d="M208.6,92.21,206,84.52h3.93l1,4.53H211l2.92-4.53h4.44l-5.89,7.69-.91,4.27h-3.84Z"/><path class="cls-4" d="M224.18,84.18c3.87,0,6.31,2.68,6.31,5.89a7,7,0,0,1-7.25,6.75c-3.88,0-6.32-2.68-6.32-5.89A7,7,0,0,1,224.18,84.18Zm-.77,9.22a3.21,3.21,0,0,0,3.24-3.24A2.57,2.57,0,0,0,224,87.6a3.21,3.21,0,0,0-3.25,3.24A2.57,2.57,0,0,0,223.41,93.4Z"/><path class="cls-4" d="M233.32,84.52h3.84l-1.42,6.73a2.18,2.18,0,0,0-.05.41,1.51,1.51,0,0,0,1.57,1.66,2,2,0,0,0,2-1.69l1.5-7.11h3.85L243,92a6,6,0,0,1-6,4.8c-3.26,0-5.21-2.09-5.21-4.82a4.43,4.43,0,0,1,.14-1.11Z"/><path class="cls-4" d="M247,84.52h5.33a4,4,0,0,1,4.18,3.93,4.35,4.35,0,0,1-1.31,3.13,5.61,5.61,0,0,1-1.32.93l1.27,4h-3.69l-1-3.42H249l-.71,3.42h-3.85Zm4.53,5.3a1.11,1.11,0,0,0,1.14-1.13c0-.6-.34-.92-1-.92h-1.49l-.44,2Z"/><path class="cls-4" d="M272.68,94.94a6.52,6.52,0,0,1-1.32.94,7.75,7.75,0,0,1-3.79.94A5.9,5.9,0,0,1,261.32,91a7,7,0,0,1,7.27-6.8,6.65,6.65,0,0,1,4.2,1.38A5,5,0,0,1,274,87l-2.71,2.27a4,4,0,0,0-.68-.8,3.3,3.3,0,0,0-5.47,2.35,2.59,2.59,0,0,0,2.77,2.63,4.47,4.47,0,0,0,2.05-.51,3.35,3.35,0,0,0,.78-.53Z"/><path class="cls-4" d="M276.26,84.52h3.84l-.88,4.19h3.58l.89-4.19h3.84l-2.53,12h-3.84l.92-4.36H278.5l-.92,4.36h-3.85Z"/><path class="cls-4" d="M293.05,84.52h4.35l1.83,12H295.3l-.2-2.31h-3.5l-1.16,2.31h-4.27Zm1.84,7-.22-3.33h-.09l-1.65,3.33Z"/><path class="cls-4" d="M302.71,84.52H306l3.16,6,1.28-6h3.84l-2.52,12h-3.33l-3.16-6-1.28,6h-3.84Z"/><path class="cls-4" d="M326.11,94.94a6.52,6.52,0,0,1-1.32.94,7.75,7.75,0,0,1-3.79.94A5.9,5.9,0,0,1,314.75,91a7,7,0,0,1,7.28-6.8,6.67,6.67,0,0,1,4.2,1.38A5.35,5.35,0,0,1,327.46,87l-2.72,2.27a3.66,3.66,0,0,0-.68-.8,3.29,3.29,0,0,0-5.46,2.35,2.58,2.58,0,0,0,2.76,2.63,4.44,4.44,0,0,0,2.05-.51,3.64,3.64,0,0,0,.79-.53Z"/><path class="cls-4" d="M329.69,84.52h9.48l-.67,3.16h-5.63l-.31,1.45h4.27l-.58,2.74H332l-.31,1.45h5.81l-.67,3.16h-9.64Z"/><path class="cls-4" d="M346.31,88h-3.16l.74-3.5H354l-.73,3.5h-3.16l-1.79,8.46h-3.84Z"/><path class="cls-4" d="M361,84.18c3.87,0,6.32,2.68,6.32,5.89a7,7,0,0,1-7.26,6.75c-3.88,0-6.32-2.68-6.32-5.89A7,7,0,0,1,361,84.18Zm-.77,9.22a3.21,3.21,0,0,0,3.24-3.24,2.57,2.57,0,0,0-2.64-2.56,3.21,3.21,0,0,0-3.25,3.24A2.58,2.58,0,0,0,360.27,93.4Z"/><path class="cls-4" d="M372.55,84.52h3.84l.22,6.58h.09L380,84.52h3.07l.48,6.58h.08l3-6.58H391l-6.45,12h-3.42l-.6-6.32h-.07l-3.26,6.32H374Z"/><path class="cls-4" d="M392.16,84.52H396l-2.52,12h-3.85Z"/><path class="cls-4" d="M398.55,84.52h3.33l3.16,6,1.28-6h3.84l-2.53,12H404.3l-3.15-6-1.28,6H396Z"/><path class="cls-4" d="M419.49,84.52h4.35l1.83,12h-3.93l-.2-2.31H418l-1.17,2.31h-4.26Zm1.84,7-.22-3.33H421l-1.65,3.33Z"/><path class="cls-5" d="M76.62,108.91h8.61l-4,18.75H92.34l-1.68,8H71Z"/><path class="cls-5" d="M109.84,108.14c8.69,0,14.16,6,14.16,13.21,0,8.38-7.08,15.11-16.26,15.11-8.69,0-14.16-6-14.16-13.2C93.58,114.88,100.66,108.14,109.84,108.14Zm-1.72,20.67a7.19,7.19,0,0,0,7.27-7.27,5.78,5.78,0,0,0-5.93-5.74,7.19,7.19,0,0,0-7.27,7.27A5.78,5.78,0,0,0,108.12,128.81Z"/><path class="cls-5" d="M128.49,126.21a8.38,8.38,0,0,0,1.41,1.6,6,6,0,0,0,4,1.57c1.65,0,2.45-.76,2.45-1.68,0-2.64-9.72-3.71-9.72-10.64,0-4.71,4-8.92,10.91-8.92a14.07,14.07,0,0,1,8.07,2.26,9.72,9.72,0,0,1,2.38,2.26l-5.78,4.82a4.35,4.35,0,0,0-.92-1.11,4.64,4.64,0,0,0-3.18-1.15c-1.41,0-2.1.58-2.1,1.34,0,2.68,9.76,3.79,9.76,10.72,0,4.78-4.56,9.18-11.29,9.18a15.36,15.36,0,0,1-8.88-2.68,13.19,13.19,0,0,1-2.83-2.68Z"/><path class="cls-5" d="M167.29,108.91h9.76l4.1,26.79h-8.81l-.46-5.17H164l-2.6,5.17h-9.57Zm4.14,15.69-.5-7.46h-.19L167,124.6Z"/><path class="cls-5" d="M188.05,108.91h7.46l7.08,13.51,2.87-13.51h8.61l-5.66,26.79H201l-7.08-13.47L191,135.7h-8.61Z"/><path class="cls-5" d="M229.31,120.77h12.44l-2.45,11.75a13.53,13.53,0,0,1-2.91,2,17.52,17.52,0,0,1-8.26,2c-8.46,0-14-6-14-13.08,0-8.54,7.08-15.24,16.3-15.24a14.92,14.92,0,0,1,9.42,3.1,11.76,11.76,0,0,1,2.75,3.1l-6.08,5.09a8.65,8.65,0,0,0-1.53-1.8,7.39,7.39,0,0,0-12.25,5.29c0,3.25,2.34,5.89,6.2,5.89a9.27,9.27,0,0,0,2.45-.31l.92-.34.61-2.6h-4.59Z"/><path class="cls-5" d="M248.34,108.91h21.24L268.09,116H255.46l-.69,3.25h9.56l-1.3,6.12h-9.56l-.69,3.26h13l-1.49,7.08H242.67Z"/><path class="cls-5" d="M273.65,108.91h8.61l-4,18.75h11.1l-1.68,8H268Z"/><path class="cls-5" d="M295.21,108.91h21.24L315,116H302.33l-.69,3.25h9.57l-1.3,6.12h-9.57l-.69,3.26h13l-1.49,7.08H289.55Z"/><path class="cls-5" d="M319.18,126.21a8.78,8.78,0,0,0,1.42,1.6,6,6,0,0,0,4,1.57c1.65,0,2.45-.76,2.45-1.68,0-2.64-9.72-3.71-9.72-10.64,0-4.71,4-8.92,10.91-8.92a14.09,14.09,0,0,1,8.07,2.26,9.5,9.5,0,0,1,2.37,2.26l-5.77,4.82a4.35,4.35,0,0,0-.92-1.11,4.64,4.64,0,0,0-3.18-1.15c-1.41,0-2.1.58-2.1,1.34,0,2.68,9.75,3.79,9.75,10.72,0,4.78-4.55,9.18-11.28,9.18a15.36,15.36,0,0,1-8.88-2.68,13.48,13.48,0,0,1-2.84-2.68Z"/><path class="cls-5" d="M351.1,108.91h8.61l-2,9.38h8l2-9.38h8.61L370.7,135.7h-8.62l2.07-9.76h-8l-2.06,9.76h-8.61Z"/><path class="cls-5" d="M392.67,108.14c8.69,0,14.16,6,14.16,13.21,0,8.38-7.08,15.11-16.26,15.11-8.69,0-14.16-6-14.16-13.2C376.41,114.88,383.49,108.14,392.67,108.14ZM391,128.81a7.19,7.19,0,0,0,7.27-7.27,5.78,5.78,0,0,0-5.93-5.74,7.19,7.19,0,0,0-7.27,7.27A5.78,5.78,0,0,0,391,128.81Z"/><path class="cls-5" d="M412.74,108.91h8.61l-4,18.75h11.1l-1.68,8H407.08Z"/><path class="cls-5" d="M434.3,108.91h8.61l-5.67,26.79h-8.61Z"/><path class="cls-5" d="M447.72,108.91h9.45c8.42,0,13.09,5.7,13.09,12.44,0,7.8-7.12,14.35-15.62,14.35H442.05ZM455,128.43a6.58,6.58,0,0,0,6.62-6.89,5.28,5.28,0,0,0-5.55-5.36H454.8l-2.61,12.25Z"/><path class="cls-5" d="M482.14,108.91h9.76L496,135.7h-8.81l-.45-5.17h-7.85l-2.6,5.17h-9.57Zm4.14,15.69-.5-7.46h-.19l-3.71,7.46Z"/><path class="cls-5" d="M503,126.13,497,108.91h8.8l2.26,10.14h.19l6.55-10.14h9.95l-13.21,17.22-2,9.57h-8.61Z"/><rect class="cls-6" x="131.66" y="18.83" width="322.47" height="44.71"/><path class="cls-5" d="M156.84,33.63A7.39,7.39,0,1,1,149.16,41,7.47,7.47,0,0,1,156.84,33.63Zm0,11.92A4.55,4.55,0,1,0,152.29,41,4.53,4.53,0,0,0,156.84,45.55Z"/><path class="cls-5" d="M166.75,38.17h2.72v1.42h.11a4.75,4.75,0,0,1,.74-.81,3.43,3.43,0,0,1,2.19-.81h.2V40.9l-.22,0a4.88,4.88,0,0,0-.69-.06,2.38,2.38,0,0,0-2.33,2.63v4.65h-2.72Z"/><path class="cls-5" d="M181.3,46.67h-.1a3.67,3.67,0,0,1-.77.81,3.88,3.88,0,0,1-2.36.8c-2.35,0-4.45-2.12-4.45-5.15s2.1-5.16,4.45-5.16a3.88,3.88,0,0,1,2.36.81,3.46,3.46,0,0,1,.77.81h.1V33.93H184V48.08H181.3Zm.1-3.54a2.53,2.53,0,1,0-2.52,2.63A2.52,2.52,0,0,0,181.4,43.13Z"/><path class="cls-5" d="M195.66,46.67a5.6,5.6,0,0,1-1.1.81,6.41,6.41,0,0,1-3.15.8,5.16,5.16,0,1,1-.1-10.31,5,5,0,0,1,4.95,5,8.24,8.24,0,0,1-.06.87l0,.34H189a2.56,2.56,0,0,0,2.63,1.72,3.41,3.41,0,0,0,2-.55,2.47,2.47,0,0,0,.67-.56Zm-2.23-4.55a2.3,2.3,0,0,0-4.45,0Z"/><path class="cls-5" d="M198.29,38.17H201v1.42h.11a4.75,4.75,0,0,1,.74-.81,3.43,3.43,0,0,1,2.19-.81h.2V40.9l-.22,0a4.88,4.88,0,0,0-.69-.06A2.38,2.38,0,0,0,201,43.43v4.65h-2.72Z"/><path class="cls-5" d="M208,38.17h2.93L212.74,44h.1l1.92-5.87H217L218.91,44h.1l1.82-5.87h2.93l-3.48,9.91H217.8l-1.88-5.76h-.09L214,48.08h-2.48Z"/><path class="cls-5" d="M226.35,33.83a1.54,1.54,0,0,1,1.55,1.51,1.57,1.57,0,1,1-1.55-1.51ZM225,38.17h2.73v9.91H225Z"/><path class="cls-5" d="M231.14,40.9h-1.72V38.38h.91c.75,0,1.11-.41,1.11-1.22V35.34h2.43v3h2.22V40.9h-2.22v3.34a1.25,1.25,0,0,0,1.31,1.42,2.6,2.6,0,0,0,.79-.11,1.5,1.5,0,0,0,.32-.1V48c-.16.06-.34.1-.52.16a5.66,5.66,0,0,1-1.3.14c-2,0-3.33-1.29-3.33-3.64Z"/><path class="cls-5" d="M238.52,33.93h2.73v5.66h.1a4.43,4.43,0,0,1,.75-.81,3.37,3.37,0,0,1,2.18-.81c2,0,3.64,1.62,3.64,4.15v6h-2.73V42.52a1.72,1.72,0,0,0-1.82-1.92,2.1,2.1,0,0,0-2.12,2.23v5.25h-2.73Z"/><path class="cls-5" d="M263.59,46.26a4.21,4.21,0,0,1-1,1,5.2,5.2,0,1,1-3.14-9.3,5.24,5.24,0,0,1,3.14,1,4.44,4.44,0,0,1,1,1l-1.72,1.71a3.41,3.41,0,0,0-.65-.6,3,3,0,0,0-1.78-.61,2.63,2.63,0,0,0,0,5.26,3.07,3.07,0,0,0,1.78-.61,3.15,3.15,0,0,0,.65-.61Z"/><path class="cls-5" d="M269.75,38a5.16,5.16,0,1,1-5.25,5.16A5.2,5.2,0,0,1,269.75,38Zm2.53,5.16a2.53,2.53,0,1,0-2.53,2.63A2.53,2.53,0,0,0,272.28,43.13Z"/><path class="cls-5" d="M284.11,46.67H284a3.78,3.78,0,0,1-3.14,1.61c-2.34,0-4.44-2.12-4.44-5.15s2.1-5.16,4.44-5.16a3.91,3.91,0,0,1,2.37.81,3.68,3.68,0,0,1,.77.81h.1V33.93h2.73V48.08h-2.73Zm.1-3.54a2.53,2.53,0,1,0-2.53,2.63A2.53,2.53,0,0,0,284.21,43.13Z"/><path class="cls-5" d="M298.46,46.67a5.24,5.24,0,0,1-1.09.81,6.47,6.47,0,0,1-3.15.8,5.16,5.16,0,1,1-.1-10.31,5,5,0,0,1,4.95,5,8.24,8.24,0,0,1-.06.87l0,.34h-7.18a2.55,2.55,0,0,0,2.63,1.72,3.41,3.41,0,0,0,2-.55,2.63,2.63,0,0,0,.67-.56Zm-2.22-4.55a2.3,2.3,0,0,0-4.45,0Z"/><rect class="cls-7" x="316.91" y="18.83" width="137.22" height="44.71"/><path class="cls-5" d="M336.24,32.61h5.39a7.45,7.45,0,0,1,7.79,7.4c0,4.93-4.11,8.79-9.36,8.79h-7.24Zm4.07,12.26a4.5,4.5,0,0,0,4.6-4.65,3.43,3.43,0,0,0-3.63-3.68H339.8L338,44.87Z"/><path class="cls-5" d="M357.74,32.61h4.85L365.3,48.8h-4.51l-.44-3.47H355l-1.88,3.47h-5ZM360,41.75l-.46-4.63h-.1L357,41.75Z"/><path class="cls-5" d="M369.2,43.46a4.19,4.19,0,0,0,.88,1,3.77,3.77,0,0,0,2.61,1c1.27,0,2-.67,2-1.38,0-1.88-6.24-2.2-6.24-6.59,0-2.78,2.56-5.32,6.35-5.32a7.77,7.77,0,0,1,4.49,1.27,6.23,6.23,0,0,1,1.29,1.27l-3,2.64a3,3,0,0,0-.63-.67,3.19,3.19,0,0,0-2-.69c-1.08,0-1.71.6-1.71,1.17,0,1.9,6.22,2.18,6.22,6.57,0,3-2.45,5.55-6.61,5.55a8.18,8.18,0,0,1-5.09-1.6,6.18,6.18,0,0,1-1.52-1.59Z"/><path class="cls-5" d="M384.32,32.61h4.39l-1.25,5.9h5.9l1.24-5.9H399L395.57,48.8h-4.39l1.3-6.13h-5.9l-1.29,6.13H380.9Z"/><path class="cls-5" d="M410.9,44.63,410,48.8H398c1.29-8.79,9.71-8.09,9.71-11.1a1.4,1.4,0,0,0-1.55-1.39,2.35,2.35,0,0,0-1.64.65,3.41,3.41,0,0,0-.58.62l-3.4-1.89a7.57,7.57,0,0,1,1.53-1.76,6.94,6.94,0,0,1,4.71-1.78c3.47,0,5.67,2.27,5.67,5,0,4.76-6.36,5.57-7.56,7.51Z"/><path class="cls-5" d="M416.44,32.61h4.39l-2.54,12h7l-.88,4.17H413Z"/><path class="cls-5" d="M434.36,32.61h4.85l2.71,16.19h-4.51L437,45.33h-5.32l-1.87,3.47h-5Zm2.21,9.14-.46-4.63H436l-2.45,4.63Z"/><path class="cls-8" d="M380.78,156.55c0,4,0,10.07,0,10.36v24a4,4,0,0,1-4,3.9l-56.05,0v-.08a21,21,0,0,1,1.8-42l54.4,0a3.91,3.91,0,0,1,3.9,3.91"/><path class="cls-9" d="M379.16,156.55a2.29,2.29,0,0,0-2.28-2.29l-54.4,0a19.43,19.43,0,0,0-.18,38.85h0l54.43,0a2.43,2.43,0,0,0,2.43-2.33v-24c0-.19,0-4.84,0-10.29"/><path class="cls-10" d="M377.54,156.55a.67.67,0,0,0-.19-.47.69.69,0,0,0-.47-.19l-46.61,0a19.43,19.43,0,0,1,0,35.61l46.5,0a.8.8,0,0,0,.8-.78l0-7.22V166.79c0-.3,0-4.74,0-10.24"/><path class="cls-11" d="M322.43,186.87c-6.64,0-12.43-2.7-15.49-6.68a16.78,16.78,0,0,0,31,0c-3.06,4-8.85,6.68-15.48,6.68"/><path class="cls-11" d="M306.94,167.24c3.06-4,8.85-6.68,15.49-6.68s12.42,2.69,15.48,6.68a16.78,16.78,0,0,0-31,0"/><path class="cls-5" d="M340.21,173.71a17.79,17.79,0,1,0-17.78,17.78,17.81,17.81,0,0,0,17.78-17.78m-33.27,6.48c3.06,4,8.85,6.68,15.49,6.68s12.42-2.7,15.48-6.68a16.78,16.78,0,0,1-31,0m31-12.95c-3.06-4-8.85-6.68-15.48-6.68s-12.43,2.69-15.49,6.68a16.78,16.78,0,0,1,31,0m1.28,5.83h-7.7v1h7.71c-.27,6.53-7.69,11.78-16.77,11.78s-16.51-5.25-16.78-11.78h5.7v-1h-5.69c.46-6.41,7.8-11.51,16.77-11.51s16.3,5.1,16.76,11.5"/><polygon class="cls-5" points="314.73 172.99 314.73 180.45 312.22 180.45 312.22 166.62 315.1 166.62 316.81 174.12 316.81 166.62 319.39 166.62 319.39 180.45 316.4 180.45 314.73 172.99"/><path class="cls-5" d="M326.88,177.9c0,1.85-.77,2.55-2.37,2.55h-4.12V166.62h4.12c1.6,0,2.37.7,2.37,2.55v1.56c0,1.61-.47,2.32-1.55,2.51,1.08.18,1.55.9,1.55,2.49Zm-2.8-8.73a.46.46,0,0,0-.43-.51h-.47v3.56h.45a.46.46,0,0,0,.45-.49Zm0,5.62a.47.47,0,0,0-.45-.49h-.45v4.11h.47a.46.46,0,0,0,.43-.51Z"/><polygon class="cls-5" points="327.83 166.62 330.61 166.62 330.61 178.3 332.63 178.3 332.63 180.45 327.83 180.45 327.83 166.62"/><path class="cls-5" d="M359.69,189.53c-8.53,0-13.4-1.37-15.12-4.23a4.22,4.22,0,0,1-.51-1.75V166.82s0-.14,0-.36v-.84c0-.14,0-.28,0-.39.45-3.56,5.77-7.09,15.61-7.09s15.16,3.53,15.62,7.09a11.88,11.88,0,0,1,0,1.59v16.73a4.15,4.15,0,0,1-.52,1.75c-1.71,2.86-6.58,4.23-15.12,4.23"/><path class="cls-5" d="M373,188.26c.12,0,.22,0,.22-.15s-.1-.14-.2-.14h-.19v.29Zm-.17.52h-.14v-.93H373c.22,0,.33.08.33.26a.24.24,0,0,1-.24.26l.27.41h-.16l-.25-.4h-.16Zm.18.23a.68.68,0,1,0-.66-.68.66.66,0,0,0,.66.68m-.83-.68a.83.83,0,1,1,.83.81.81.81,0,0,1-.83-.81"/><path class="cls-12" d="M359.64,188.57c9.16,0,13.8-1.61,14.63-4.68.14-.56-.32-.74-.78-.74h-27.7c-.46,0-.91.18-.78.74.84,3.07,5.47,4.68,14.63,4.68"/><path class="cls-12" d="M359.65,159.1c-9.16,0-14,3.14-14.63,6.3a.73.73,0,0,0,.78,1h27.7a.73.73,0,0,0,.78-1c-.59-3.16-5.47-6.3-14.63-6.3"/><path class="cls-10" d="M371.48,169.19l-.58-.92a.89.89,0,0,0-1-.27.62.62,0,0,0-.39.86l1.14,1.88a.65.65,0,0,1,.13.38v1.36c0,.38.46.56.78.56s.78-.18.78-.56v-1.36a.55.55,0,0,1,.12-.38l1.15-1.88a.63.63,0,0,0-.39-.86.87.87,0,0,0-1,.27l-.59.92q-.08.12-.15,0M368,175.56c-.23.15,0,.45.18.43s1.05-.75.72-1.49a.54.54,0,0,0-.5-.33.53.53,0,0,0-.54.52.48.48,0,0,0,.28.48c.07,0,0,.08,0,.11a.58.58,0,0,1-.18.28m3.1,6.06A2.77,2.77,0,0,1,369,181a.83.83,0,0,1-.07-1.07.75.75,0,0,1,1.08-.28,1.28,1.28,0,0,0,.86.21.54.54,0,0,0,.55-.6c0-.31-.28-.42-.48-.46l-.44-.09a2,2,0,0,1-1.71-1.8,2.49,2.49,0,0,1,2.62-2.7h0a2.13,2.13,0,0,1,1.8.64.8.8,0,0,1,.08,1.06.76.76,0,0,1-1.09.27,1.14,1.14,0,0,0-.73-.2.47.47,0,0,0-.49.51c0,.25.28.37.45.42l.5.12a2.12,2.12,0,0,1,1.75,2,2.35,2.35,0,0,1-2.62,2.55m-3.6-5.88L366,177.53a.48.48,0,0,0-.07.62c.26.35,1.43,1.71,1.43,1.71a.93.93,0,0,1,0,1.43c-.8.7-1.25.1-1.25.1l-1.89-2.29s-.2-.19-.2.15v1.57c0,.56-.61.82-1,.82s-1-.26-1-.82V175c0-.56.61-.82,1-.82s1,.26,1,.82v1.55c0,.2.13.21.21.09l1.71-2a.92.92,0,0,1,1.41-.11.8.8,0,0,1,.14,1.22m-19.68,5.87a1.84,1.84,0,0,0,2-2.08V175c0-.56-.61-.82-1-.82s-1,.26-1,.82v4.17c.05.67-.38.84-.55.35a.73.73,0,0,0-1-.35.82.82,0,0,0-.42,1,1.92,1.92,0,0,0,2,1.47m5.63-2.69h-.68a.08.08,0,0,1-.08-.12l.33-1.08c0-.16.17-.18.22,0l.33,1.09c0,.1,0,.12-.12.12m.67,1.64.1.33a1.09,1.09,0,0,0,1.14.7.89.89,0,0,0,.72-1.08l-1.74-5.6a1.23,1.23,0,0,0-1.21-.73c-.4,0-1.06.18-1.22.73l-1.74,5.6a.9.9,0,0,0,.73,1.08,1.07,1.07,0,0,0,1.13-.7l.1-.33a.15.15,0,0,1,.17-.13h1.67c.12,0,.13,0,.15.13m3.93-2.64c0,1,.38,1.88,1.47,1.88a1.23,1.23,0,0,0,.69-.21.84.84,0,0,1,1.16.3.85.85,0,0,1-.08,1.12,2.46,2.46,0,0,1-1.88.66,3.77,3.77,0,0,1,0-7.52,2.37,2.37,0,0,1,1.88.67.9.9,0,0,1-1.08,1.41,1.2,1.2,0,0,0-.69-.21c-1.09,0-1.47.91-1.47,1.9Zm-10.52-6.76c-.1,0-.19,0-.19.15v1.16c0,.38-.46.56-.78.56s-.78-.18-.78-.56v-4c0-.38.47-.56.78-.56s.78.18.78.56v1.06a.16.16,0,0,0,.18.17h.79a.15.15,0,0,0,.17-.17V168.5c0-.38.47-.56.79-.56s.78.18.78.56v4c0,.38-.47.56-.78.56s-.79-.18-.79-.56v-1.16c0-.12-.08-.15-.17-.15Zm15.65,0a.66.66,0,1,1,0-1.31h1.1c.39,0,.63.15.63.52v1.42c0,.81-1,1.25-2.17,1.25a2.41,2.41,0,0,1-2.63-2.62,2.5,2.5,0,0,1,2.64-2.59,2.69,2.69,0,0,1,1.83.54.58.58,0,0,1,.06.8.65.65,0,0,1-.88.2,1.76,1.76,0,0,0-.93-.22c-.82,0-1.11.61-1.11,1.29s.35,1.25,1,1.25.69-.15.67-.42c0-.1,0-.11-.2-.11m4.05-1.08a.54.54,0,0,0,.57-.55c0-.34-.11-.55-.59-.55-.18,0-.23,0-.28.11v.9c0,.1.11.09.3.09m1.43.73c-.07.06-.06.1,0,.15l.85,1.1c.22.29,0,.7-.28.88a.89.89,0,0,1-1-.1L367,171.42c-.06-.07-.15,0-.15.05v1c0,.37-.45.53-.76.53s-.76-.16-.76-.53v-4c0-.36.4-.56.76-.56h1.44a1.6,1.6,0,0,1,1.72,1.51,1.55,1.55,0,0,1-.67,1.36m-16.09,2.25c.93,0,2-.61,2-1.47v-3.15c0-.38-.45-.54-.76-.54s-.77.16-.77.54v2.84c0,.21-.25.33-.47.33s-.48-.12-.48-.33v-2.84c0-.38-.45-.54-.76-.54s-.77.16-.77.54v3.15c0,.86,1.07,1.47,2,1.47m4.06-2.09v1.49c0,.34-.47.58-.79.58s-.79-.19-.79-.58v-4c0-.39.47-.6.79-.6a1,1,0,0,1,.84.47l1.25,1.58c.1.12.25.14.25,0v-1.48c0-.39.46-.6.78-.6s.79.21.79.6v4c0,.39-.47.58-.79.58s-.46,0-.79-.42L356.8,171c-.07-.09-.21-.11-.21,0"/><path class="cls-5" d="M397.36,161.16v2.45a3.56,3.56,0,0,1-.47,2.13,2.67,2.67,0,0,1-3.32,0,3.51,3.51,0,0,1-.47-2.13v-2.45a3.5,3.5,0,0,1,.47-2.12,2.67,2.67,0,0,1,3.32,0A3.5,3.5,0,0,1,397.36,161.16Zm-1.57-.35a2.43,2.43,0,0,0-.12-1,.47.47,0,0,0-.44-.21.45.45,0,0,0-.44.22,2.4,2.4,0,0,0-.12.95V164a2.33,2.33,0,0,0,.12.95.55.55,0,0,0,.88,0,2.4,2.4,0,0,0,.12-.95Z"/><path class="cls-5" d="M398.62,158.58h3.18v1.17h-1.61v2h1.52v1.17h-1.52v3.29h-1.57Z"/><path class="cls-5" d="M402.85,158.58H406v1.17h-1.61v2h1.51v1.17h-1.51v3.29h-1.57Z"/><path class="cls-5" d="M407.11,158.58h1.57v7.61h-1.57Z"/><path class="cls-5" d="M414.1,160.68v.3h-1.52v-.17a2.68,2.68,0,0,0-.11-.95.48.48,0,0,0-.81,0,2.4,2.4,0,0,0-.12.95V164a2.4,2.4,0,0,0,.12.95.42.42,0,0,0,.42.23.4.4,0,0,0,.39-.21,2.23,2.23,0,0,0,.11-.84v-.42h1.52v.41a2.62,2.62,0,0,1-.44,1.75,2.7,2.7,0,0,1-3.22-.09,3.53,3.53,0,0,1-.46-2.13v-2.45a3.5,3.5,0,0,1,.47-2.12,2,2,0,0,1,1.67-.58,2,2,0,0,1,1.54.5A2.56,2.56,0,0,1,414.1,160.68Z"/><path class="cls-5" d="M415.27,158.58h1.57v7.61h-1.57Z"/><path class="cls-5" d="M419.13,158.58h2l1.26,7.61h-1.52l-.2-1.59h-1.32l-.27,1.59h-1.38Zm.95,1.31-.52,3.53h1l-.41-3.53Z"/><path class="cls-5" d="M423.24,158.58h1.57V165h1.81v1.17h-3.38Z"/><path class="cls-5" d="M434.1,161.16v2.45a3.56,3.56,0,0,1-.47,2.13,2.67,2.67,0,0,1-3.32,0,3.53,3.53,0,0,1-.46-2.13v-2.45a3.51,3.51,0,0,1,.46-2.12,2.67,2.67,0,0,1,3.32,0A3.5,3.5,0,0,1,434.1,161.16Zm-1.57-.35a2.43,2.43,0,0,0-.12-1,.46.46,0,0,0-.44-.21.46.46,0,0,0-.44.22,2.4,2.4,0,0,0-.12.95V164a2.33,2.33,0,0,0,.12.95.55.55,0,0,0,.88,0,2.4,2.4,0,0,0,.12-.95Z"/><path class="cls-5" d="M435.36,158.58h2.06l1.13,6.44h.1l-.11-6.44h1.28v7.61h-2.08l-1.11-6.45h-.1l.1,6.45h-1.27Z"/><path class="cls-5" d="M441,162.82h2.16v1.43H441Z"/><path class="cls-5" d="M444.27,158.58h1.51a4.54,4.54,0,0,1,1.34.14,1.63,1.63,0,0,1,.75.47,1.91,1.91,0,0,1,.41.83,6.3,6.3,0,0,1,.13,1.41v1.91a6.46,6.46,0,0,1-.13,1.42,1.91,1.91,0,0,1-.41.83,1.7,1.7,0,0,1-.75.46,5,5,0,0,1-1.34.14h-1.51Zm1.59,1.17V165H446a.92.92,0,0,0,.65-.18.88.88,0,0,0,.18-.63v-3.66a.85.85,0,0,0-.18-.62.92.92,0,0,0-.65-.18Z"/><path class="cls-5" d="M449.67,158.58h3.13v1.17h-1.56v1.87h1.45v1.18h-1.45V165h1.69v1.17h-3.26Z"/><path class="cls-5" d="M454,158.58h2.15l.68,5.46h.08l.78-5.46h2.12v7.61h-1.3V160h-.1l-.89,6.24h-1.4l-.79-6.24h-.1v6.24H454Z"/><path class="cls-5" d="M462.07,158.58h2l1.25,7.61h-1.52l-.2-1.59H462.3l-.26,1.59h-1.39Zm.95,1.31-.52,3.53h1l-.41-3.53Z"/><path class="cls-5" d="M466.19,158.58h2.05l1.13,6.44h.1l-.11-6.44h1.28v7.61h-2.07l-1.11-6.45h-.11l.11,6.45h-1.27Z"/><path class="cls-5" d="M471.93,158.58h1.51a4.46,4.46,0,0,1,1.33.14,1.63,1.63,0,0,1,.75.47,1.92,1.92,0,0,1,.42.83,6.4,6.4,0,0,1,.12,1.41v1.91a6.56,6.56,0,0,1-.12,1.42,1.92,1.92,0,0,1-.42.83,1.59,1.59,0,0,1-.75.46,4.93,4.93,0,0,1-1.33.14h-1.51Zm1.59,1.17V165h.14a1,1,0,0,0,.66-.18.88.88,0,0,0,.18-.63v-3.66a.85.85,0,0,0-.18-.62,1,1,0,0,0-.66-.18Z"/><path class="cls-5" d="M393.12,169.17h1.52a4.45,4.45,0,0,1,1.33.15,1.63,1.63,0,0,1,.75.47,1.87,1.87,0,0,1,.41.82,5.84,5.84,0,0,1,.13,1.42v1.9a5.84,5.84,0,0,1-.13,1.42,1.85,1.85,0,0,1-.41.83,1.66,1.66,0,0,1-.75.47,4.93,4.93,0,0,1-1.33.14h-1.52Zm1.59,1.18v5.26h.15a1,1,0,0,0,.65-.17.88.88,0,0,0,.18-.63v-3.66a.83.83,0,0,0-.18-.62.92.92,0,0,0-.65-.18Z"/><path class="cls-5" d="M398.53,169.17h3.12v1.18H400.1v1.87h1.44v1.18H400.1v2.21h1.68v1.18h-3.25Z"/><path class="cls-5" d="M402.87,169.17h1.57v6.44h1.81v1.18h-3.38Z"/><path class="cls-5" d="M407,169.17h1.58v7.62H407Z"/><path class="cls-5" d="M409.42,169.17H411l.68,5.66h.11l.65-5.66h1.32l-1.26,7.62H410.8Z"/><path class="cls-5" d="M414.54,169.17h3.13v1.18h-1.56v1.87h1.45v1.18h-1.45v2.21h1.69v1.18h-3.26Z"/><path class="cls-5" d="M418.89,169.17h1.9a2.45,2.45,0,0,1,1.61.42,1.65,1.65,0,0,1,.49,1.35v.32a1.83,1.83,0,0,1-.35,1.22,1.9,1.9,0,0,1-1.16.51,1.6,1.6,0,0,1,1.17.49,2.31,2.31,0,0,1,.34,1.44v1.87h-1.57v-2.34a1.08,1.08,0,0,0-.16-.73.93.93,0,0,0-.63-.15h-.17v3.22h-1.47Zm1.47,1.14v2.14h.14a.8.8,0,0,0,.63-.19,1,1,0,0,0,.18-.68v-.4a1,1,0,0,0-.18-.68.8.8,0,0,0-.63-.19Z"/><path class="cls-5" d="M423.55,169.17h1.59l.66,3.21h.08l.63-3.21h1.4l-1.42,4.55v3.07h-1.56v-3.07Z"/><path class="cls-5" d="M431.2,169.17h1.64a2.62,2.62,0,0,1,1.78.48,2.1,2.1,0,0,1,.51,1.6v.49a2.18,2.18,0,0,1-.49,1.58,2.1,2.1,0,0,1-1.54.5h-.43v3H431.2Zm1.47,1.14v2.38h.14a.72.72,0,0,0,.59-.21,1.27,1.27,0,0,0,.17-.76v-.45a1.25,1.25,0,0,0-.17-.75.72.72,0,0,0-.59-.21Z"/><path class="cls-5" d="M436.77,169.17h2l1.26,7.62h-1.52l-.2-1.6H437l-.27,1.6h-1.39Zm1,1.31-.51,3.53h1l-.42-3.53Z"/><path class="cls-5" d="M440.89,169.17h1.91a2.43,2.43,0,0,1,1.6.42,1.65,1.65,0,0,1,.49,1.35v.32a1.83,1.83,0,0,1-.35,1.22,1.88,1.88,0,0,1-1.16.51,1.64,1.64,0,0,1,1.18.49,2.38,2.38,0,0,1,.33,1.44v1.87h-1.57v-2.34a1.15,1.15,0,0,0-.15-.73,1,1,0,0,0-.64-.15h-.17v3.22h-1.47Zm1.47,1.14v2.14h.14a.84.84,0,0,0,.64-.19,1,1,0,0,0,.17-.68v-.4a1,1,0,0,0-.17-.68.84.84,0,0,0-.64-.19Z"/><path class="cls-5" d="M445.71,169.17h4v1.18h-1.18v6.44h-1.61v-6.44h-1.17Z"/><path class="cls-5" d="M450.56,169.17h2.06l1.13,6.44h.1l-.11-6.44H455v7.62h-2.08l-1.11-6.45h-.1l.1,6.45h-1.27Z"/><path class="cls-5" d="M456.3,169.17h3.13v1.18h-1.56v1.87h1.45v1.18h-1.45v2.21h1.69v1.18H456.3Z"/><path class="cls-5" d="M460.65,169.17h1.9a2.45,2.45,0,0,1,1.61.42,1.65,1.65,0,0,1,.49,1.35v.32a1.83,1.83,0,0,1-.35,1.22,1.9,1.9,0,0,1-1.16.51,1.6,1.6,0,0,1,1.17.49,2.31,2.31,0,0,1,.34,1.44v1.87h-1.57v-2.34a1.08,1.08,0,0,0-.16-.73.93.93,0,0,0-.63-.15h-.17v3.22h-1.47Zm1.47,1.14v2.14h.14a.8.8,0,0,0,.63-.19,1,1,0,0,0,.18-.68v-.4a1,1,0,0,0-.18-.68.8.8,0,0,0-.63-.19Z"/><path class="cls-5" d="M397.36,182.35v2.45a3.56,3.56,0,0,1-.47,2.13,2.68,2.68,0,0,1-3.32,0,3.57,3.57,0,0,1-.47-2.14v-2.45a3.5,3.5,0,0,1,.47-2.12,2.7,2.7,0,0,1,3.32,0A3.5,3.5,0,0,1,397.36,182.35Zm-1.57-.35a2.33,2.33,0,0,0-.12-.95.55.55,0,0,0-.88,0,2.43,2.43,0,0,0-.12.95v3.15a2.33,2.33,0,0,0,.12.95.55.55,0,0,0,.88,0,2.4,2.4,0,0,0,.12-.95Z"/><path class="cls-5" d="M398.62,179.77h3.18V181h-1.61v2h1.52v1.17h-1.52v3.29h-1.57Z"/><path class="cls-5" d="M405,179.77h4V181h-1.17v6.43h-1.62V181H405Z"/><path class="cls-5" d="M409.86,179.77h1.56v3h1.08v-3h1.57v7.61H412.5V184h-1.08v3.42h-1.56Z"/><path class="cls-5" d="M415.35,179.77h3.12V181h-1.55v1.86h1.45V184h-1.45v2.22h1.69v1.17h-3.26Z"/><path class="cls-5" d="M422.24,179.77h2.05l1.13,6.44h.11l-.12-6.44h1.28v7.61h-2.07l-1.11-6.44h-.11l.11,6.44h-1.27Z"/><path class="cls-5" d="M428,179.77h1.9a2.51,2.51,0,0,1,1.61.41,1.68,1.68,0,0,1,.49,1.35v.32a1.74,1.74,0,0,1-.29,1.05,1.42,1.42,0,0,1-.87.52,1.49,1.49,0,0,1,.95.5,1.53,1.53,0,0,1,.33,1v.68a1.68,1.68,0,0,1-.49,1.35,2.51,2.51,0,0,1-1.61.41h-2Zm1.47,1.12v2h.14a.86.86,0,0,0,.63-.18.85.85,0,0,0,.18-.62v-.4a.83.83,0,0,0-.18-.62.86.86,0,0,0-.63-.18Zm0,3.09v2.3h.17a1,1,0,0,0,.72-.2,1,1,0,0,0,.2-.73v-.44a1,1,0,0,0-.2-.73,1,1,0,0,0-.72-.2Z"/><path class="cls-5" d="M433.19,179.77h1.57v6.44h1.81v1.17h-3.38Z"/></g></svg>