<?xml version="1.0" encoding="UTF-8"?><svg xmlns="http://www.w3.org/2000/svg" viewBox="0 0 970 250"><defs><style>.e{fill:#fff;}</style></defs><g id="a"/><g id="b"/><g id="c"/><g id="d"><g><path class="e" d="M88.07,89.81h29.94l-2.1,9.98h-17.81l-.97,4.59h13.49l-1.83,8.63h-13.49l-.97,4.59h18.34l-2.1,9.98h-30.48l7.99-37.77Z"/><path class="e" d="M134.53,89.81h13.76l5.77,37.77h-12.41l-.65-7.28h-11.06l-3.67,7.28h-13.49l21.74-37.77Zm5.83,22.12l-.7-10.52h-.27l-5.23,10.52h6.21Z"/><path class="e" d="M165.98,100.87h-9.98l2.32-11.06h32.1l-2.32,11.06h-9.98l-5.67,26.71h-12.14l5.67-26.71Z"/><path class="e" d="M210.71,114.09l-8.36-24.28h12.41l3.18,14.3h.27l9.23-14.3h14.03l-18.61,24.28-2.86,13.49h-12.14l2.86-13.49Z"/><path class="e" d="M259.3,88.73c12.25,0,19.96,8.47,19.96,18.61,0,11.82-9.98,21.31-22.93,21.31-12.25,0-19.96-8.47-19.96-18.61,0-11.82,9.98-21.31,22.93-21.31Zm-2.43,29.14c5.67,0,10.25-4.42,10.25-10.25,0-4.32-3.45-8.09-8.36-8.09-5.67,0-10.25,4.42-10.25,10.25,0,4.32,3.45,8.09,8.36,8.09Z"/><path class="e" d="M287.64,89.81h12.14l-4.48,21.26c-.05,.27-.16,.86-.16,1.29,0,2.97,1.73,5.23,4.96,5.23s5.61-2.32,6.26-5.34l4.75-22.45h12.14l-5.02,23.69c-1.89,8.96-9.5,15.16-18.88,15.16-10.3,0-16.46-6.58-16.46-15.22,0-1.67,.22-2.43,.43-3.51l4.32-20.12Z"/><path class="e" d="M330.4,89.81h16.83c7.82,0,13.22,5.5,13.22,12.41,0,4.59-2.05,7.77-4.15,9.87-1.24,1.19-2.59,2.16-4.16,2.97l3.99,12.52h-11.65l-3.24-10.79h-4.42l-2.27,10.79h-12.14l7.99-37.77Zm14.3,16.73c2.1,0,3.62-1.56,3.62-3.56,0-1.89-1.08-2.91-3.24-2.91h-4.69l-1.4,6.47h5.72Z"/><path class="e" d="M376.85,89.81h12.14l.7,20.77h.27l10.36-20.77h9.71l1.51,20.77h.27l9.55-20.77h13.76l-20.4,37.77h-10.79l-1.89-19.96h-.22l-10.31,19.96h-10.25l-4.42-37.77Z"/><path class="e" d="M445.88,89.81h13.76l5.77,37.77h-12.41l-.65-7.28h-11.06l-3.67,7.28h-13.49l21.74-37.77Zm5.83,22.12l-.7-10.52h-.27l-5.23,10.52h6.21Z"/><path class="e" d="M475.91,114.09l-8.36-24.28h12.41l3.18,14.3h.27l9.23-14.3h14.03l-18.61,24.28-2.86,13.49h-12.14l2.86-13.49Z"/></g></g></svg>