<svg xmlns="http://www.w3.org/2000/svg" viewBox="0 0 155.69 34.03"><defs><style>.cls-1{fill:#fff;}.cls-2{fill:#ff3008;}</style></defs><g id="Layer_2" data-name="Layer 2"><g id="Layer_1-2" data-name="Layer 1"><rect class="cls-1" width="155.69" height="34.03" rx="17.01"/><path class="cls-2" d="M24.8,14.14H21.91v-2h8v2H27v8.1H24.8Z"/><path class="cls-2" d="M31.7,12.11h7.52v2H33.87v1.95h4.19V18H33.87v2.17h5.5v2H31.7Z"/><path class="cls-2" d="M41.56,12.11h2.17v8.1h4.7v2H41.56Z"/><path class="cls-2" d="M50.27,12.11h2.17v8.1h4.7v2H50.27Z"/><path class="cls-2" d="M62.25,12.11h2l3.47,4.34,3.47-4.34H73.1V22.24H70.93V15.58l-3.25,4-3.26-4v6.66H62.25Z"/><path class="cls-2" d="M76,12.11h7.52v2H78.12v1.95h4.19V18H78.12v2.17h5.49v2H76Z"/><path class="cls-2" d="M89.09,12.11h2l3.48,4.34L98,12.11h2V22.24H97.77V15.58l-3.25,4-3.26-4v6.66H89.09Z"/><path class="cls-2" d="M107.63,11.89a5.28,5.28,0,1,1-5.5,5.28A5.35,5.35,0,0,1,107.63,11.89Zm0,8.54a3.26,3.26,0,1,0-3.25-3.26A3.25,3.25,0,0,0,107.63,20.43Z"/><path class="cls-2" d="M115.32,12.11h4.49a3.27,3.27,0,0,1,3.54,3.4,3.22,3.22,0,0,1-.87,2.36,2.58,2.58,0,0,1-.87.61l2.1,3.76h-2.39l-1.8-3.33h-2v3.33h-2.17Zm4.41,4.77a1.37,1.37,0,1,0,0-2.74h-2.24v2.74Z"/><path class="cls-2" d="M125.76,12.11h7.52v2h-5.35v1.95h4.2V18h-4.2v2.17h5.5v2h-7.67Z"/></g></g></svg>