<?xml version="1.0" encoding="UTF-8"?><svg xmlns="http://www.w3.org/2000/svg" viewBox="0 0 970 250"><defs><style>.e{fill:#fff;}</style></defs><g id="a"/><g id="b"/><g id="c"/><g id="d"><g><path class="e" d="M244.88,41.1c5.35,0,9.39,4.04,9.39,9.13s-4.05,9.13-9.39,9.13h-6.31c-.26,0-.47-.21-.47-.47v-17.32c0-.26,.21-.47,.47-.47h6.31Zm-2.87,3.52v11.22h2.87c3,0,5.48-2.48,5.48-5.61s-2.35-5.61-5.48-5.61h-2.87Z"/><path class="e" d="M268.08,40.71c5.61,0,9.92,4.31,9.92,9.52s-4.31,9.52-9.92,9.52-9.92-4.31-9.92-9.52,4.31-9.52,9.92-9.52m0,15.53c3.26,0,6.03-2.61,6.03-6s-2.77-6-6.03-6-6,2.61-6,6,2.74,6,6,6"/><path class="e" d="M291.66,40.71c5.61,0,9.92,4.31,9.92,9.52s-4.31,9.52-9.92,9.52-9.92-4.31-9.92-9.52,4.31-9.52,9.92-9.52m0,15.53c3.26,0,6.03-2.61,6.03-6s-2.77-6-6.03-6-6,2.61-6,6,2.74,6,6,6"/><path class="e" d="M306.76,41.57c0-.26,.21-.47,.47-.47h7.62c3.65,0,6.26,2.66,6.26,6,0,3.91-3.26,5.35-3.26,5.35l3.51,6.21c.18,.32-.05,.71-.41,.71h-3.08c-.17,0-.33-.09-.41-.25l-3.39-6.15h-3.39v5.92c0,.26-.21,.47-.47,.47h-2.97c-.26,0-.47-.21-.47-.47v-17.32Zm7.96,3.05h-4.05v4.83h4.05c1.43,0,2.48-1.04,2.48-2.35,0-1.44-1.04-2.48-2.48-2.48"/><path class="e" d="M334.16,41.18c5.35,0,9.39,4.04,9.39,9.13s-4.05,9.13-9.39,9.13h-6.31c-.26,0-.47-.21-.47-.47v-17.32c0-.26,.21-.47,.47-.47h6.31Zm-2.87,3.52v11.22h2.87c3,0,5.48-2.48,5.48-5.61s-2.35-5.61-5.48-5.61h-2.87Z"/><path class="e" d="M351.97,55.04l-1.45,3.99c-.07,.19-.25,.31-.44,.31h-3.15c-.33,0-.56-.34-.44-.65l6.8-17.32c.07-.18,.25-.3,.44-.3h3.53c.19,0,.37,.12,.44,.3l6.8,17.32c.12,.31-.11,.65-.44,.65h-3.15c-.2,0-.38-.12-.45-.31l-1.45-3.99h-7.05Zm3.52-9.39l-2.22,6h4.44l-2.22-6Z"/><path class="e" d="M368.17,46.04c0-2.87,2.48-5.35,6.39-5.35,3.1,0,4.97,1.46,5.68,2.14,.19,.18,.19,.48,.01,.67l-1.76,1.76c-.18,.17-.46,.19-.64,.02-.49-.44-1.55-1.19-3.03-1.19-1.57,0-2.73,.91-2.73,1.96,0,3.39,9.26,1.44,9.26,7.96,0,3.26-2.48,5.74-6.92,5.74-3.6,0-5.82-1.86-6.6-2.65-.18-.18-.18-.48,0-.67l1.69-1.69c.18-.18,.47-.19,.66-.01,.59,.56,1.97,1.63,3.99,1.63s3.25-1.04,3.25-2.35c0-3.39-9.25-1.43-9.25-7.96"/><path class="e" d="M398.13,41.55v6.83h-7.83v-6.83c0-.26-.21-.47-.47-.47h-2.97c-.26,0-.47,.21-.47,.47v17.32c0,.26,.21,.47,.47,.47h2.97c.26,0,.47-.21,.47-.47v-6.96h7.83v6.96c0,.26,.21,.47,.47,.47h2.97c.26,0,.47-.21,.47-.47v-17.32c0-.26-.21-.47-.47-.47h-2.97c-.26,0-.47,.21-.47,.47"/><path class="e" d="M222.64,43.47c-1.98-3.76-5.92-6.07-10.15-6.07h-32.17c-.98,0-1.47,1.19-.78,1.89l7.01,7.05c.62,.62,1.46,.97,2.34,.97h22.68c1.36,0,2.6,.92,2.9,2.26,.42,1.9-1.02,3.59-2.84,3.59h-15.63c-.98,0-1.47,1.19-.78,1.89l7.01,7.05c.62,.62,1.46,.97,2.34,.97h7.07c9.2,0,16.15-9.83,11.02-19.6"/></g></g></svg>