<svg xmlns="http://www.w3.org/2000/svg" viewBox="0 0 185.82 37.08"><defs><style>.cls-1{fill:#fff;}</style></defs><title>bottom</title><g id="Layer_2" data-name="Layer 2"><g id="Layer_1-2" data-name="Layer 1"><path class="cls-1" d="M3.62,3.52v11c0,2.14-.9,2.85-2.72,2.85a7,7,0,0,1-.9-.06V15.7H.48c.78,0,1.07-.3,1.07-1.4V3.52ZM3.62,0V2.07H1.55V0Z"/><path class="cls-1" d="M9.13,3.26c3,0,3.85,2.22,3.85,5.41s-1,5.42-3.85,5.42S5.3,11.87,5.3,8.67,6.15,3.26,9.13,3.26Zm0,9.3c1.52,0,1.79-1.26,1.79-3.89,0-2.27-.27-3.88-1.79-3.88S7.37,6.4,7.37,8.67C7.37,11.3,7.64,12.56,9.13,12.56Z"/><path class="cls-1" d="M18,3.26c3,0,3.85,2.22,3.85,5.41s-1,5.42-3.85,5.42-3.83-2.22-3.83-5.42S15,3.26,18,3.26Zm0,9.3c1.51,0,1.78-1.26,1.78-3.89,0-2.27-.27-3.88-1.78-3.88S16.24,6.4,16.24,8.67C16.24,11.3,16.51,12.56,18,12.56Z"/><path class="cls-1" d="M23.44,3.52h1.95V4.73h.06a3,3,0,0,1,2.64-1.47c1.57,0,2.57.7,2.57,2.79v7.78H28.59V6.76c0-1.34-.4-1.86-1.43-1.86-.85,0-1.65.67-1.65,2v6.92H23.44Z"/><path class="cls-1" d="M37.92,12.56h0a2.2,2.2,0,0,1-2.26,1.53c-2.41,0-3.37-2-3.37-5.55,0-4.58,1.61-5.28,3.18-5.28a2.41,2.41,0,0,1,2.34,1.47h0V.15h2.07V13.83H37.92ZM36,4.9c-1.19,0-1.61,1-1.61,3.74,0,2.33.31,3.81,1.75,3.81S37.92,11,37.92,8.79C37.92,6.32,37.63,4.9,36,4.9Z"/><path class="cls-1" d="M48.62,11.68c0,.38.23.73.54.73a.88.88,0,0,0,.35-.06v1.34a2.43,2.43,0,0,1-1,.25c-.92,0-1.68-.36-1.74-1.36h0a2.68,2.68,0,0,1-2.57,1.51c-1.64,0-2.68-.92-2.68-2.89,0-2.3,1-2.77,2.4-3.23l1.6-.44c.75-.21,1.21-.43,1.21-1.33s-.32-1.53-1.42-1.53c-1.37,0-1.57,1-1.57,2h-2c0-2.18.9-3.38,3.62-3.38,1.82,0,3.27.7,3.27,2.52ZM46.67,8.39a12.94,12.94,0,0,1-2.3.95A1.71,1.71,0,0,0,43.53,11c0,.86.42,1.55,1.28,1.55,1.25,0,1.86-.94,1.86-2.45Z"/><path class="cls-1" d="M50.83.15H52.9V13.83H50.83Z"/><path class="cls-1" d="M60.25,12.62h-.06a3,3,0,0,1-2.64,1.47c-1.53,0-2.57-.7-2.57-3.37V3.52h2.07v7.4c0,1.14.52,1.53,1.4,1.53a1.62,1.62,0,0,0,1.68-1.73V3.52H62.2V13.83h-2Z"/><path class="cls-1" d="M64.19,3.52h2V4.79h0A2.42,2.42,0,0,1,68.5,3.26c2.36,0,3.32,2,3.32,5.55,0,4.33-1.77,5.28-3.18,5.28a2.4,2.4,0,0,1-2.34-1.47h0V17.2H64.19Zm3.72,8.93c1.19,0,1.72-.88,1.72-3.74,0-2.33-.3-3.81-1.74-3.81s-1.74,1.46-1.74,3.66C66.15,11,66.45,12.45,67.91,12.45Z"/><path class="cls-1" d="M73.27,7.32h5V9.27h-5Z"/><path class="cls-1" d="M80.24.15h2.07V13.83H80.24Z"/><path class="cls-1" d="M86.18,8.94v.6c0,1.38.17,3.14,1.72,3.14s1.65-1.69,1.65-2.3h2a3.4,3.4,0,0,1-3.62,3.71c-1.68,0-3.77-.49-3.77-5.26,0-2.7.58-5.57,3.81-5.57,2.87,0,3.64,1.72,3.64,4.59V8.94Zm3.31-1.41V7c0-1.3-.42-2.3-1.59-2.3-1.32,0-1.72,1.3-1.72,2.65v.21Z"/><path class="cls-1" d="M93.36,0h2.07V2.07H93.36Zm0,3.52h2.07V13.83H93.36Z"/><path class="cls-1" d="M102,6.53V6.26c0-.82-.29-1.59-1.36-1.59-.82,0-1.47.39-1.47,1.34s.36,1.13,1.45,1.52L101.9,8a2.78,2.78,0,0,1,2.24,3c0,2.21-1.6,3.14-3.69,3.14-2.61,0-3.39-1.2-3.39-3.19v-.39H98.9v.33c0,1.19.42,1.84,1.61,1.84s1.68-.58,1.68-1.52a1.5,1.5,0,0,0-1.13-1.51l-1.68-.59a2.75,2.75,0,0,1-2.21-3c0-1.93,1.4-2.83,3.53-2.83,2.62,0,3.21,1.53,3.21,2.81v.46Z"/><path class="cls-1" d="M110.94,12.62h-.06a2.94,2.94,0,0,1-2.64,1.47c-1.53,0-2.56-.7-2.56-3.37V3.52h2.06v7.4c0,1.14.52,1.53,1.4,1.53a1.63,1.63,0,0,0,1.69-1.73V3.52h2.07V13.83h-2Z"/><path class="cls-1" d="M114.89,3.52H117V5.13h0a2.55,2.55,0,0,1,2.4-1.87,1.62,1.62,0,0,1,.5.07V5.44a3.84,3.84,0,0,0-.87-.12c-.93,0-2.06.43-2.06,2.34v6.17h-2.07Z"/><path class="cls-1" d="M122.61,8.94v.6c0,1.38.17,3.14,1.72,3.14S126,11,126,10.38h2a3.4,3.4,0,0,1-3.62,3.71c-1.68,0-3.77-.49-3.77-5.26,0-2.7.57-5.57,3.81-5.57C127.22,3.26,128,5,128,7.85V8.94Zm3.31-1.41V7c0-1.3-.42-2.3-1.59-2.3s-1.72,1.3-1.72,2.65v.21Z"/><path class="cls-1" d="M129.21,11.3h2.19v2.53h-2.19Z"/><path class="cls-1" d="M140.55,10.07c-.13,2.47-1,4-3.52,4-3,0-3.83-2.22-3.83-5.42S134,3.26,137,3.26s3.54,2.41,3.54,3.69H138.5c0-1-.27-2.2-1.47-2.16-1.5,0-1.77,1.61-1.77,3.88s.27,3.89,1.77,3.89c1.15,0,1.57-.94,1.57-2.49Z"/><path class="cls-1" d="M145.53,3.26c3,0,3.85,2.22,3.85,5.41s-1,5.42-3.85,5.42-3.83-2.22-3.83-5.42S142.54,3.26,145.53,3.26Zm0,9.3c1.51,0,1.78-1.26,1.78-3.89,0-2.27-.27-3.88-1.78-3.88s-1.76,1.61-1.76,3.88C143.77,11.3,144,12.56,145.53,12.56Z"/><path class="cls-1" d="M151.06,3.52h2V4.73h.06a2.86,2.86,0,0,1,2.47-1.47,2.23,2.23,0,0,1,2.39,1.57,2.8,2.8,0,0,1,2.6-1.57c1.46,0,2.51.74,2.51,2.73v7.84H161V6.76c0-1.34-.4-1.86-1.24-1.86s-1.65.67-1.65,2v6.92H156V6.76c0-1.34-.4-1.86-1.26-1.86s-1.63.67-1.63,2v6.92h-2.07Z"/><path class="cls-1" d="M165.35,11.3h2.18v2.53h-2.18Z"/><path class="cls-1" d="M176.5,11.68c0,.38.23.73.53.73a.85.85,0,0,0,.35-.06v1.34a2.39,2.39,0,0,1-1,.25c-.92,0-1.68-.36-1.74-1.36h0A2.66,2.66,0,0,1,172,14.09c-1.65,0-2.68-.92-2.68-2.89,0-2.3,1-2.77,2.39-3.23l1.61-.44c.74-.21,1.2-.43,1.2-1.33s-.32-1.53-1.41-1.53c-1.38,0-1.57,1-1.57,2h-2c0-2.18.9-3.38,3.62-3.38,1.82,0,3.28.7,3.28,2.52Zm-2-3.29a12.84,12.84,0,0,1-2.29.95A1.7,1.7,0,0,0,171.4,11c0,.86.42,1.55,1.29,1.55,1.24,0,1.85-.94,1.85-2.45Z"/><path class="cls-1" d="M183.87,12.62h-.06a2.94,2.94,0,0,1-2.64,1.47c-1.53,0-2.57-.7-2.57-3.37V3.52h2.07v7.4c0,1.14.52,1.53,1.4,1.53a1.63,1.63,0,0,0,1.69-1.73V3.52h2.06V13.83h-1.95Z"/><path class="cls-1" d="M3.37,33.78c0,.79.36,1.76,1.46,1.76,2,0,2.16-2.7,2.16-4.67l-.06,0a2.78,2.78,0,0,1-2.64,1.44c-1.86,0-3.35-1.34-3.35-4,0-3.12,1.28-5,4.15-5,3.43,0,4.08,2.6,4.08,6.49,0,4.06-.74,7.34-4.33,7.34-2.37,0-3.65-1.08-3.65-3.3Zm1.55-9c-1.34,0-1.8,1.32-1.8,2.91,0,1.88.56,2.93,1.8,2.93,1.59,0,1.88-1.4,1.88-3S6.2,24.78,4.92,24.78Z"/><path class="cls-1" d="M10.05,31.89l4.7-8.64H17V32h1.47v1.74H17v3.05H14.9V33.76H10.05Zm4.85-5.46h0l-3,5.59H14.9Z"/><path class="cls-1" d="M23.44,23.25c2.6,0,4.06,1.65,4.06,6.91S26,37.08,23.44,37.08s-4.06-1.65-4.06-6.92S20.84,23.25,23.44,23.25Zm0,12.29c1.49,0,1.88-1.43,1.88-5.38s-.39-5.38-1.88-5.38-1.88,1.44-1.88,5.38S22,35.54,23.44,35.54Z"/><path class="cls-1" d="M32.63,23.25c2.61,0,4.06,1.65,4.06,6.91s-1.45,6.92-4.06,6.92-4.06-1.65-4.06-6.92S30,23.25,32.63,23.25Zm0,12.29c1.5,0,1.88-1.43,1.88-5.38s-.38-5.38-1.88-5.38-1.87,1.44-1.87,5.38S31.14,35.54,32.63,35.54Z"/><path class="cls-1" d="M42.23,31.89l4.69-8.64h2.22V32h1.48v1.74H49.14v3.05H47.07V33.76H42.23Zm4.84-5.46h0L44,32h3.08Z"/><path class="cls-1" d="M57.3,26.54c0-.78-.36-1.76-1.45-1.76-2.05,0-2.17,2.7-2.17,4.67l.06,0a2.79,2.79,0,0,1,2.64-1.43c1.86,0,3.35,1.34,3.35,4,0,3.12-1.28,5-4.15,5-3.43,0-4.08-2.61-4.08-6.5,0-4.06.75-7.33,4.33-7.33,2.37,0,3.65,1.07,3.65,3.29Zm-1.55,9c1.34,0,1.8-1.32,1.8-2.91,0-1.87-.56-2.93-1.8-2.93-1.59,0-1.88,1.4-1.88,3S54.47,35.54,55.75,35.54Z"/><path class="cls-1" d="M64.81,23.25c2.6,0,4.06,1.65,4.06,6.91s-1.46,6.92-4.06,6.92-4.06-1.65-4.06-6.92S62.2,23.25,64.81,23.25Zm0,12.29c1.49,0,1.87-1.43,1.87-5.38s-.38-5.38-1.87-5.38-1.88,1.44-1.88,5.38S63.31,35.54,64.81,35.54Z"/><path class="cls-1" d="M74,23.25c2.6,0,4.06,1.65,4.06,6.91S76.6,37.08,74,37.08s-4.06-1.65-4.06-6.92S71.4,23.25,74,23.25Zm0,12.29c1.49,0,1.88-1.43,1.88-5.38s-.39-5.38-1.88-5.38-1.88,1.44-1.88,5.38S72.51,35.54,74,35.54Z"/></g></g></svg>