<svg xmlns="http://www.w3.org/2000/svg" viewBox="0 0 101.65 41.98"><defs><style>.cls-1{fill:#fff;}</style></defs><title>find</title><g id="Layer_2" data-name="Layer 2"><g id="Layer_1-2" data-name="Layer 1"><polygon class="cls-1" points="0 0 20.84 0 20.84 10.48 11.91 10.48 11.91 15.03 20.43 15.03 20.43 25.8 11.73 25.8 11.73 41.98 0 41.98 0 0"/><rect class="cls-1" x="22.61" width="11.73" height="41.98"/><polygon class="cls-1" points="36.69 0 50.14 0 56.26 17.62 56.26 0 68 0 68 41.98 54.55 41.98 48.42 22.86 48.42 41.98 36.69 41.98 36.69 0"/><path class="cls-1" d="M88.89,20.27c0-3.8-.74-6.56-2.17-8.23-.86-1-2-1.39-4.53-1.33V30.58c5,0,6.7-2.54,6.7-10.31M70.29,0H84.54c6,0,10.42,2,13.28,5.93,2.29,3.17,3.83,9.16,3.83,14.8a27.18,27.18,0,0,1-3.49,13.36C95.13,39.5,90.55,42,83.8,42H70.29Z"/></g></g></svg>