<svg xmlns="http://www.w3.org/2000/svg" viewBox="0 0 83.61 43.39"><defs><style>.cls-1{fill:#fff;}</style></defs><title>t1</title><g id="Layer_2" data-name="Layer 2"><g id="Layer_1-2" data-name="Layer 1"><path class="cls-1" d="M0,0H2.61L4.75,12.6h0L6.93,0H9.65l2.18,12.67h0L14,0h2.56L13.33,16.21h-3L8.24,4h0L6.13,16.21h-3Z"/><path class="cls-1" d="M17.87,0h2.45V5.31l.07.05a3.51,3.51,0,0,1,3-1.68c1.86,0,3.05.84,3.05,3.31v9.22H24V7.83c0-1.59-.47-2.2-1.7-2.2-1,0-1.95.8-1.95,2.39v8.19H17.87Z"/><path class="cls-1" d="M36.8,13.67c0,.45.27.86.64.86a.93.93,0,0,0,.4-.07v1.59a2.82,2.82,0,0,1-1.2.3c-1.09,0-2-.43-2.07-1.61h0a3.18,3.18,0,0,1-3,1.79c-2,0-3.18-1.09-3.18-3.43,0-2.72,1.18-3.29,2.84-3.84l1.9-.52c.89-.25,1.43-.5,1.43-1.57S34.1,5.36,32.8,5.36c-1.63,0-1.86,1.16-1.86,2.34H28.63c0-2.59,1.06-4,4.29-4,2.15,0,3.88.84,3.88,3ZM34.48,9.76a15.6,15.6,0,0,1-2.72,1.14,2,2,0,0,0-1,2c0,1,.5,1.84,1.52,1.84,1.48,0,2.2-1.11,2.2-2.9Z"/><path class="cls-1" d="M38.21,4h1.68V.52h2.45V4h2V5.81h-2V13.1c0,1,.27,1.3,1.11,1.3a5.26,5.26,0,0,0,.89-.07v1.81a8,8,0,0,1-2,.21c-1.66,0-2.47-.46-2.47-3V5.81H38.21Z"/><path class="cls-1" d="M47.72,10.42v.71c0,1.63.2,3.72,2,3.72s2-2,2-2.73H54a4,4,0,0,1-4.29,4.41c-2,0-4.47-.59-4.47-6.24,0-3.21.68-6.61,4.51-6.61,3.41,0,4.32,2,4.32,5.45v1.29Zm3.93-1.68V8.08c0-1.54-.5-2.72-1.89-2.72-1.57,0-2,1.54-2,3.13v.25Z"/><path class="cls-1" d="M55.1,4h2.63l2.13,9.62h0L61.84,4h2.61L61.23,16.21H58.36Z"/><path class="cls-1" d="M67.9,10.42v.71c0,1.63.2,3.72,2,3.72s2-2,2-2.73h2.31a4,4,0,0,1-4.29,4.41c-2,0-4.47-.59-4.47-6.24,0-3.21.68-6.61,4.51-6.61,3.41,0,4.32,2,4.32,5.45v1.29Zm3.93-1.68V8.08c0-1.54-.5-2.72-1.89-2.72-1.56,0-2,1.54-2,3.13v.25Z"/><path class="cls-1" d="M76.3,4h2.45V5.9h0a3,3,0,0,1,2.83-2.22,1.74,1.74,0,0,1,.59.09v2.5a4.27,4.27,0,0,0-1-.14c-1.11,0-2.45.5-2.45,2.77v7.31H76.3Z"/><path class="cls-1" d="M2.68,27l2.11,9.18h0l2-9.18H9.35L6,39.66C5,43,4.25,43.43,1.73,43.39a6.51,6.51,0,0,1-1-.1V41.34a4.25,4.25,0,0,0,.79.09c.84,0,1.39-.18,1.66-1l.32-1L.05,27Z"/><path class="cls-1" d="M14.78,26.67c3.56,0,4.56,2.64,4.56,6.43s-1.15,6.43-4.56,6.43-4.54-2.64-4.54-6.43S11.24,26.67,14.78,26.67Zm0,11c1.79,0,2.11-1.5,2.11-4.61,0-2.7-.32-4.61-2.11-4.61s-2.09,1.91-2.09,4.61C12.69,36.21,13,37.71,14.78,37.71Z"/><path class="cls-1" d="M27.47,37.78H27.4a3.5,3.5,0,0,1-3.13,1.75c-1.82,0-3-.84-3-4V27h2.45v8.77c0,1.36.61,1.81,1.66,1.81a1.91,1.91,0,0,0,2-2V27h2.46V39.21H27.47Z"/><path class="cls-1" d="M32.14,27H34.6V28.9h0a3,3,0,0,1,2.84-2.23,1.75,1.75,0,0,1,.59.1v2.49a5,5,0,0,0-1-.13c-1.11,0-2.45.5-2.45,2.77v7.31H32.14Z"/><path class="cls-1" d="M43.9,27h2.55l1.7,9.63h0L50,27h2.77l1.82,9.63h0L56.32,27h2.45L56,39.21H53.23l-1.9-9.49h0l-1.75,9.49H46.67Z"/><path class="cls-1" d="M60.29,23h2.46v5.31l.06,0a3.55,3.55,0,0,1,3-1.68c1.86,0,3,.84,3,3.32v9.22H66.4V30.83c0-1.59-.48-2.2-1.7-2.2-1,0-2,.79-2,2.38v8.2H60.29Z"/><path class="cls-1" d="M72.73,27l2.12,9.18h0l2-9.18h2.57L76.05,39.66c-1,3.34-1.75,3.77-4.27,3.73a6.51,6.51,0,0,1-1-.1V41.34a4.46,4.46,0,0,0,.8.09c.84,0,1.38-.18,1.66-1l.31-1L70.1,27Z"/><path class="cls-1" d="M81,27.58h2.59v3H81Zm0,8.63h2.59v3C83.61,41,83,42.32,81,42.7V41.39a1.69,1.69,0,0,0,1.13-1.84v-.34H81Z"/></g></g></svg>