<svg xmlns="http://www.w3.org/2000/svg" viewBox="0 0 165.88 41.98"><defs><style>.cls-1{fill:#fff;}</style></defs><title>t4</title><g id="Layer_2" data-name="Layer 2"><g id="Layer_1-2" data-name="Layer 1"><path class="cls-1" d="M146.1,41h19.78V30.74h-8.32V26h7.77V15.65h-7.77v-4.3h8.32V.88H146.1Zm-13.55,0h11.29V.88H132.55Zm-2-24.35H115.69v9.37h3.47v.88c0,2.7-.66,3.69-2.42,3.69-2.92,0-4.19-2.75-4.19-9.2,0-7.22,2-10.25,6.83-10.25,2.81,0,4.57.89,7.05,3.59v-13A18.48,18.48,0,0,0,118.22,0C107.37,0,100.6,8.15,100.6,21.27c0,12.94,6,20.71,15.86,20.71,9,0,14.11-6,14.11-16.58ZM87.6,41H98.89V.88H87.6ZM68.81,25,70.3,12.73,71.84,25ZM54.43,41H66.55l1.1-6.11H73L74.1,41H86.38L78.39.88H61.81ZM37.24,10.58H38.4c2,0,2.92,1.1,2.92,3.52,0,2.26-1,3.42-2.92,3.42H37.24ZM25.78,41h11.3V27.11h1.15L42.09,41h12L48.26,23.91c3.64-2.64,4.85-5.12,4.85-10.25a13,13,0,0,0-3.75-9.75c-2.31-2.26-4.68-3-9.47-3H25.78Zm-1.93-1.1V25.67a3.52,3.52,0,0,1-.38.61c-1.71,3-3,3.86-5.57,3.86-3.69,0-5.61-3.09-5.61-9.15s2.09-9.53,5.83-9.53c2.48,0,4,1,5.73,3.75V1.82l-.66-.22C19.56.28,18.29,0,16.09,0c-5.35,0-10,2.48-12.4,6.61C1.32,10.52,0,16,0,21.71,0,34.05,6,42,15.21,42c2.53,0,4.4-.44,8.64-2"/></g></g></svg>