<svg xmlns="http://www.w3.org/2000/svg" viewBox="0 0 117.59 41.98"><defs><style>.cls-1{fill:#fff;}</style></defs><title>your</title><g id="Layer_2" data-name="Layer 2"><g id="Layer_1-2" data-name="Layer 1"><polygon class="cls-1" points="11.52 0.99 14.87 14.21 18.22 0.99 29.3 0.99 20.14 27.38 20.14 40.99 9.16 40.99 9.16 27.38 0 0.99 11.52 0.99"/><path class="cls-1" d="M37.92,20.85a21.53,21.53,0,0,0,1.15,7,3.53,3.53,0,0,0,3.24,2.36c2.79,0,4.44-3.46,4.44-9.28s-1.7-9.22-4.44-9.22-4.39,3.41-4.39,9.11m20.68.66C58.6,34.19,52.4,42,42.31,42,32,42,26.06,34.19,26.06,20.91,26.06,7.79,32.15,0,42.36,0,52.73,0,58.6,7.74,58.6,21.51"/><path class="cls-1" d="M71.33,1V26c0,2.47.72,3.51,2.36,3.51s2.36-1,2.36-3.51V1H87.3V27.16c0,9.94-4.39,14.65-13.61,14.65S60.08,37.1,60.08,27.16V1Z"/><path class="cls-1" d="M100.8,17.56H102c1.92,0,2.91-1.15,2.91-3.4,0-2.42-.93-3.51-2.91-3.51H100.8ZM89.39,1h14c4.77,0,7.13.77,9.43,3a13,13,0,0,1,3.74,9.71c0,5.1-1.21,7.57-4.83,10.21L117.59,41h-12l-3.84-13.88h-1.15V41H89.39Z"/></g></g></svg>