<svg width="300" height="600" viewBox="0 0 300 600" fill="none" xmlns="http://www.w3.org/2000/svg">
<path d="M18.4318 169.774C18.4318 168.528 18.5959 167.381 18.924 166.334C19.2521 165.286 19.7311 164.32 20.3608 163.435H21.723C21.4777 163.763 21.2491 164.166 21.0369 164.643C20.8248 165.121 20.6392 165.644 20.4801 166.214C20.321 166.781 20.1967 167.37 20.1072 167.979C20.0178 168.586 19.973 169.184 19.973 169.774C19.973 170.563 20.0509 171.362 20.2067 172.17C20.3625 172.979 20.5729 173.73 20.8381 174.423C21.1032 175.115 21.3982 175.68 21.723 176.118H20.3608C19.7311 175.233 19.2521 174.267 18.924 173.219C18.5959 172.172 18.4318 171.024 18.4318 169.774ZM25.7926 174.169C25.3087 174.169 24.8712 174.08 24.4801 173.901C24.089 173.718 23.7791 173.455 23.5504 173.11C23.325 172.765 23.2124 172.343 23.2124 171.842C23.2124 171.411 23.2952 171.057 23.4609 170.778C23.6267 170.5 23.8504 170.28 24.1321 170.117C24.4138 169.955 24.7287 169.832 25.0767 169.749C25.4247 169.666 25.7793 169.603 26.1406 169.56C26.598 169.507 26.9692 169.464 27.2543 169.431C27.5393 169.395 27.7464 169.337 27.8757 169.257C28.005 169.178 28.0696 169.048 28.0696 168.869V168.835C28.0696 168.4 27.947 168.064 27.7017 167.825C27.4597 167.587 27.0985 167.467 26.6179 167.467C26.1174 167.467 25.723 167.578 25.4347 167.8C25.1496 168.019 24.9524 168.263 24.843 168.531L23.446 168.213C23.6117 167.749 23.8537 167.375 24.1719 167.089C24.4934 166.801 24.8629 166.592 25.2805 166.463C25.6981 166.33 26.1373 166.264 26.598 166.264C26.9029 166.264 27.2261 166.301 27.5675 166.374C27.9122 166.443 28.2337 166.572 28.532 166.761C28.8336 166.95 29.0805 167.22 29.2727 167.572C29.465 167.92 29.5611 168.372 29.5611 168.929V174H28.1094V172.956H28.0497C27.9536 173.148 27.8094 173.337 27.6172 173.523C27.4249 173.708 27.178 173.862 26.8764 173.985C26.5748 174.108 26.2135 174.169 25.7926 174.169ZM26.1158 172.976C26.5267 172.976 26.8781 172.895 27.1697 172.732C27.4647 172.57 27.6884 172.358 27.8409 172.096C27.9967 171.831 28.0746 171.547 28.0746 171.246V170.261C28.0215 170.314 27.9188 170.364 27.7663 170.411C27.6172 170.454 27.4465 170.492 27.2543 170.525C27.062 170.555 26.8748 170.583 26.6925 170.609C26.5102 170.633 26.3577 170.652 26.2351 170.669C25.9467 170.705 25.6832 170.767 25.4446 170.853C25.2093 170.939 25.0204 171.063 24.8778 171.226C24.7386 171.385 24.669 171.597 24.669 171.862C24.669 172.23 24.8049 172.509 25.0767 172.697C25.3485 172.883 25.6948 172.976 26.1158 172.976ZM33.3075 169.466V174H31.821V166.364H33.2479V167.607H33.3423C33.518 167.202 33.7931 166.877 34.1676 166.632C34.5454 166.387 35.0211 166.264 35.5944 166.264C36.1148 166.264 36.5705 166.374 36.9616 166.592C37.3527 166.808 37.656 167.129 37.8714 167.557C38.0869 167.984 38.1946 168.513 38.1946 169.143V174H36.7081V169.322C36.7081 168.768 36.5639 168.336 36.2756 168.024C35.9872 167.709 35.5911 167.552 35.0873 167.552C34.7426 167.552 34.4361 167.626 34.1676 167.776C33.9024 167.925 33.692 168.143 33.5362 168.432C33.3837 168.717 33.3075 169.062 33.3075 169.466ZM43.3269 174.149C42.7104 174.149 42.1602 173.992 41.6763 173.677C41.1957 173.359 40.8179 172.906 40.5428 172.32C40.271 171.73 40.1351 171.022 40.1351 170.197C40.1351 169.371 40.2726 168.665 40.5477 168.079C40.8262 167.492 41.2073 167.043 41.6912 166.732C42.1751 166.42 42.7236 166.264 43.3368 166.264C43.8108 166.264 44.1919 166.344 44.4803 166.503C44.7719 166.659 44.9973 166.841 45.1564 167.05C45.3188 167.259 45.4448 167.442 45.5342 167.602H45.6237V163.818H47.1102V174H45.6585V172.812H45.5342C45.4448 172.974 45.3155 173.16 45.1465 173.369C44.9807 173.577 44.7521 173.76 44.4604 173.915C44.1687 174.071 43.7909 174.149 43.3269 174.149ZM43.655 172.881C44.0825 172.881 44.4438 172.769 44.7388 172.543C45.0371 172.315 45.2625 171.998 45.4149 171.594C45.5707 171.189 45.6486 170.719 45.6486 170.182C45.6486 169.652 45.5724 169.187 45.4199 168.79C45.2674 168.392 45.0437 168.082 44.7487 167.86C44.4538 167.638 44.0892 167.527 43.655 167.527C43.2075 167.527 42.8347 167.643 42.5364 167.875C42.2381 168.107 42.0127 168.424 41.8602 168.825C41.7111 169.226 41.6365 169.678 41.6365 170.182C41.6365 170.692 41.7128 171.151 41.8652 171.559C42.0177 171.967 42.2431 172.29 42.5413 172.528C42.843 172.764 43.2142 172.881 43.655 172.881ZM53.4969 176.864V166.364H54.9487V167.602H55.0729C55.1591 167.442 55.2834 167.259 55.4458 167.05C55.6082 166.841 55.8336 166.659 56.1219 166.503C56.4103 166.344 56.7915 166.264 57.2654 166.264C57.8819 166.264 58.4321 166.42 58.916 166.732C59.3999 167.043 59.7794 167.492 60.0545 168.079C60.3329 168.665 60.4721 169.371 60.4721 170.197C60.4721 171.022 60.3345 171.73 60.0594 172.32C59.7844 172.906 59.4065 173.359 58.9259 173.677C58.4453 173.992 57.8968 174.149 57.2803 174.149C56.8163 174.149 56.4368 174.071 56.1418 173.915C55.8502 173.76 55.6215 173.577 55.4558 173.369C55.29 173.16 55.1624 172.974 55.0729 172.812H54.9835V176.864H53.4969ZM54.9536 170.182C54.9536 170.719 55.0315 171.189 55.1873 171.594C55.3431 171.998 55.5684 172.315 55.8634 172.543C56.1584 172.769 56.5197 172.881 56.9472 172.881C57.3914 172.881 57.7626 172.764 58.0609 172.528C58.3592 172.29 58.5845 171.967 58.737 171.559C58.8928 171.151 58.9707 170.692 58.9707 170.182C58.9707 169.678 58.8944 169.226 58.742 168.825C58.5928 168.424 58.3674 168.107 58.0658 167.875C57.7675 167.643 57.3947 167.527 56.9472 167.527C56.5164 167.527 56.1518 167.638 55.8535 167.86C55.5585 168.082 55.3348 168.392 55.1823 168.79C55.0299 169.187 54.9536 169.652 54.9536 170.182ZM67.2549 170.833V166.364H68.7464V174H67.2848V172.678H67.2052C67.0296 173.085 66.7478 173.425 66.36 173.697C65.9756 173.965 65.4966 174.099 64.9233 174.099C64.4327 174.099 63.9985 173.992 63.6207 173.776C63.2462 173.558 62.9512 173.234 62.7358 172.807C62.5236 172.379 62.4176 171.851 62.4176 171.221V166.364H63.9041V171.042C63.9041 171.562 64.0483 171.977 64.3366 172.285C64.625 172.593 64.9995 172.747 65.4602 172.747C65.7386 172.747 66.0153 172.678 66.2904 172.538C66.5688 172.399 66.7992 172.189 66.9815 171.907C67.1671 171.625 67.2582 171.267 67.2549 170.833ZM74.5884 166.364V167.557H70.4172V166.364H74.5884ZM71.5358 164.534H73.0223V171.758C73.0223 172.046 73.0654 172.263 73.1516 172.409C73.2378 172.552 73.3488 172.649 73.4847 172.702C73.6239 172.752 73.7747 172.777 73.9371 172.777C74.0564 172.777 74.1608 172.769 74.2503 172.752C74.3398 172.736 74.4094 172.722 74.4591 172.712L74.7276 173.94C74.6414 173.973 74.5188 174.007 74.3597 174.04C74.2006 174.076 74.0017 174.096 73.7631 174.099C73.372 174.106 73.0074 174.036 72.6693 173.891C72.3313 173.745 72.0578 173.519 71.849 173.214C71.6402 172.91 71.5358 172.527 71.5358 172.066V164.534ZM80.4978 174V166.364H81.9247V167.607H82.0191C82.1782 167.186 82.4384 166.857 82.7997 166.622C83.1609 166.384 83.5934 166.264 84.0972 166.264C84.6077 166.264 85.0352 166.384 85.3799 166.622C85.7279 166.861 85.9848 167.189 86.1505 167.607H86.2301C86.4123 167.199 86.7024 166.874 87.1001 166.632C87.4978 166.387 87.9718 166.264 88.522 166.264C89.2147 166.264 89.7798 166.481 90.2173 166.915C90.6581 167.35 90.8785 168.004 90.8785 168.879V174H89.392V169.018C89.392 168.501 89.2511 168.127 88.9694 167.895C88.6877 167.663 88.3513 167.547 87.9602 167.547C87.4763 167.547 87.1001 167.696 86.8316 167.994C86.5631 168.289 86.4289 168.669 86.4289 169.133V174H84.9474V168.924C84.9474 168.51 84.8181 168.177 84.5596 167.925C84.3011 167.673 83.9647 167.547 83.5504 167.547C83.2686 167.547 83.0085 167.621 82.7698 167.771C82.5345 167.916 82.3439 168.12 82.1981 168.382C82.0556 168.644 81.9843 168.947 81.9843 169.292V174H80.4978ZM96.3675 174.154C95.6516 174.154 95.0268 173.99 94.4932 173.662C93.9596 173.334 93.5453 172.875 93.2503 172.285C92.9553 171.695 92.8078 171.005 92.8078 170.217C92.8078 169.424 92.9553 168.732 93.2503 168.138C93.5453 167.545 93.9596 167.085 94.4932 166.756C95.0268 166.428 95.6516 166.264 96.3675 166.264C97.0834 166.264 97.7081 166.428 98.2418 166.756C98.7754 167.085 99.1897 167.545 99.4847 168.138C99.7796 168.732 99.9271 169.424 99.9271 170.217C99.9271 171.005 99.7796 171.695 99.4847 172.285C99.1897 172.875 98.7754 173.334 98.2418 173.662C97.7081 173.99 97.0834 174.154 96.3675 174.154ZM96.3724 172.906C96.8365 172.906 97.2209 172.784 97.5259 172.538C97.8308 172.293 98.0562 171.967 98.202 171.559C98.3511 171.151 98.4257 170.702 98.4257 170.212C98.4257 169.724 98.3511 169.277 98.202 168.869C98.0562 168.458 97.8308 168.129 97.5259 167.88C97.2209 167.631 96.8365 167.507 96.3724 167.507C95.9051 167.507 95.5173 167.631 95.2091 167.88C94.9042 168.129 94.6771 168.458 94.528 168.869C94.3822 169.277 94.3092 169.724 94.3092 170.212C94.3092 170.702 94.3822 171.151 94.528 171.559C94.6771 171.967 94.9042 172.293 95.2091 172.538C95.5173 172.784 95.9051 172.906 96.3724 172.906ZM101.866 174V166.364H103.303V167.577H103.383C103.522 167.166 103.767 166.843 104.119 166.607C104.473 166.369 104.874 166.249 105.322 166.249C105.414 166.249 105.524 166.253 105.65 166.259C105.779 166.266 105.88 166.274 105.953 166.284V167.706C105.893 167.689 105.787 167.671 105.635 167.651C105.482 167.628 105.33 167.616 105.177 167.616C104.826 167.616 104.513 167.691 104.238 167.84C103.966 167.986 103.751 168.19 103.592 168.452C103.432 168.71 103.353 169.005 103.353 169.337V174H101.866ZM110.537 174.154C109.785 174.154 109.137 173.993 108.593 173.672C108.053 173.347 107.635 172.891 107.34 172.305C107.049 171.715 106.903 171.024 106.903 170.232C106.903 169.449 107.049 168.76 107.34 168.163C107.635 167.567 108.046 167.101 108.573 166.766C109.104 166.432 109.724 166.264 110.433 166.264C110.864 166.264 111.281 166.335 111.686 166.478C112.09 166.621 112.453 166.844 112.774 167.149C113.096 167.454 113.349 167.85 113.535 168.337C113.721 168.821 113.813 169.41 113.813 170.102V170.629H107.743V169.516H112.357C112.357 169.125 112.277 168.778 112.118 168.477C111.959 168.172 111.735 167.931 111.447 167.756C111.162 167.58 110.827 167.492 110.443 167.492C110.025 167.492 109.661 167.595 109.349 167.8C109.041 168.003 108.802 168.268 108.633 168.596C108.467 168.921 108.385 169.274 108.385 169.655V170.525C108.385 171.035 108.474 171.469 108.653 171.827C108.835 172.185 109.089 172.459 109.414 172.648C109.738 172.833 110.118 172.926 110.552 172.926C110.834 172.926 111.091 172.886 111.323 172.807C111.555 172.724 111.755 172.601 111.924 172.439C112.093 172.277 112.223 172.076 112.312 171.837L113.719 172.091C113.606 172.505 113.404 172.868 113.112 173.18C112.824 173.488 112.461 173.728 112.024 173.901C111.59 174.07 111.094 174.154 110.537 174.154ZM119.728 174V166.364H121.214V174H119.728ZM120.479 165.185C120.22 165.185 119.998 165.099 119.812 164.927C119.63 164.751 119.539 164.542 119.539 164.3C119.539 164.055 119.63 163.846 119.812 163.674C119.998 163.498 120.22 163.411 120.479 163.411C120.737 163.411 120.958 163.498 121.14 163.674C121.325 163.846 121.418 164.055 121.418 164.3C121.418 164.542 121.325 164.751 121.14 164.927C120.958 165.099 120.737 165.185 120.479 165.185ZM124.981 169.466V174H123.494V166.364H124.921V167.607H125.016C125.191 167.202 125.466 166.877 125.841 166.632C126.219 166.387 126.694 166.264 127.268 166.264C127.788 166.264 128.244 166.374 128.635 166.592C129.026 166.808 129.329 167.129 129.545 167.557C129.76 167.984 129.868 168.513 129.868 169.143V174H128.381V169.322C128.381 168.768 128.237 168.336 127.949 168.024C127.66 167.709 127.264 167.552 126.761 167.552C126.416 167.552 126.109 167.626 125.841 167.776C125.576 167.925 125.365 168.143 125.209 168.432C125.057 168.717 124.981 169.062 124.981 169.466ZM137.066 176.864C136.844 176.864 136.642 176.845 136.46 176.809C136.277 176.776 136.141 176.739 136.052 176.7L136.41 175.482C136.682 175.554 136.924 175.586 137.136 175.576C137.348 175.566 137.535 175.487 137.698 175.337C137.863 175.188 138.009 174.945 138.135 174.607L138.319 174.099L135.525 166.364H137.116L139.05 172.29H139.129L141.063 166.364H142.659L139.512 175.019C139.366 175.417 139.181 175.753 138.955 176.028C138.73 176.307 138.461 176.516 138.15 176.655C137.838 176.794 137.477 176.864 137.066 176.864ZM147.293 174.154C146.577 174.154 145.952 173.99 145.419 173.662C144.885 173.334 144.471 172.875 144.176 172.285C143.881 171.695 143.733 171.005 143.733 170.217C143.733 169.424 143.881 168.732 144.176 168.138C144.471 167.545 144.885 167.085 145.419 166.756C145.952 166.428 146.577 166.264 147.293 166.264C148.009 166.264 148.634 166.428 149.167 166.756C149.701 167.085 150.115 167.545 150.41 168.138C150.705 168.732 150.853 169.424 150.853 170.217C150.853 171.005 150.705 171.695 150.41 172.285C150.115 172.875 149.701 173.334 149.167 173.662C148.634 173.99 148.009 174.154 147.293 174.154ZM147.298 172.906C147.762 172.906 148.146 172.784 148.451 172.538C148.756 172.293 148.982 171.967 149.128 171.559C149.277 171.151 149.351 170.702 149.351 170.212C149.351 169.724 149.277 169.277 149.128 168.869C148.982 168.458 148.756 168.129 148.451 167.88C148.146 167.631 147.762 167.507 147.298 167.507C146.831 167.507 146.443 167.631 146.135 167.88C145.83 168.129 145.603 168.458 145.454 168.869C145.308 169.277 145.235 169.724 145.235 170.212C145.235 170.702 145.308 171.151 145.454 171.559C145.603 171.967 145.83 172.293 146.135 172.538C146.443 172.784 146.831 172.906 147.298 172.906ZM157.629 170.833V166.364H159.121V174H157.659V172.678H157.58C157.404 173.085 157.122 173.425 156.734 173.697C156.35 173.965 155.871 174.099 155.298 174.099C154.807 174.099 154.373 173.992 153.995 173.776C153.621 173.558 153.326 173.234 153.11 172.807C152.898 172.379 152.792 171.851 152.792 171.221V166.364H154.278V171.042C154.278 171.562 154.423 171.977 154.711 172.285C154.999 172.593 155.374 172.747 155.835 172.747C156.113 172.747 156.39 172.678 156.665 172.538C156.943 172.399 157.174 172.189 157.356 171.907C157.541 171.625 157.633 171.267 157.629 170.833ZM161.398 174V166.364H162.835V167.577H162.914C163.054 167.166 163.299 166.843 163.65 166.607C164.005 166.369 164.406 166.249 164.853 166.249C164.946 166.249 165.056 166.253 165.182 166.259C165.311 166.266 165.412 166.274 165.485 166.284V167.706C165.425 167.689 165.319 167.671 165.167 167.651C165.014 167.628 164.862 167.616 164.709 167.616C164.358 167.616 164.045 167.691 163.77 167.84C163.498 167.986 163.282 168.19 163.123 168.452C162.964 168.71 162.885 169.005 162.885 169.337V174H161.398ZM171.036 176.864V166.364H172.488V167.602H172.612C172.698 167.442 172.823 167.259 172.985 167.05C173.148 166.841 173.373 166.659 173.661 166.503C173.95 166.344 174.331 166.264 174.805 166.264C175.421 166.264 175.971 166.42 176.455 166.732C176.939 167.043 177.319 167.492 177.594 168.079C177.872 168.665 178.011 169.371 178.011 170.197C178.011 171.022 177.874 171.73 177.599 172.32C177.324 172.906 176.946 173.359 176.465 173.677C175.985 173.992 175.436 174.149 174.82 174.149C174.356 174.149 173.976 174.071 173.681 173.915C173.389 173.76 173.161 173.577 172.995 173.369C172.829 173.16 172.702 172.974 172.612 172.812H172.523V176.864H171.036ZM172.493 170.182C172.493 170.719 172.571 171.189 172.727 171.594C172.882 171.998 173.108 172.315 173.403 172.543C173.698 172.769 174.059 172.881 174.487 172.881C174.931 172.881 175.302 172.764 175.6 172.528C175.898 172.29 176.124 171.967 176.276 171.559C176.432 171.151 176.51 170.692 176.51 170.182C176.51 169.678 176.434 169.226 176.281 168.825C176.132 168.424 175.907 168.107 175.605 167.875C175.307 167.643 174.934 167.527 174.487 167.527C174.056 167.527 173.691 167.638 173.393 167.86C173.098 168.082 172.874 168.392 172.722 168.79C172.569 169.187 172.493 169.652 172.493 170.182ZM183.173 174.154C182.458 174.154 181.833 173.99 181.299 173.662C180.766 173.334 180.351 172.875 180.056 172.285C179.761 171.695 179.614 171.005 179.614 170.217C179.614 169.424 179.761 168.732 180.056 168.138C180.351 167.545 180.766 167.085 181.299 166.756C181.833 166.428 182.458 166.264 183.173 166.264C183.889 166.264 184.514 166.428 185.048 166.756C185.581 167.085 185.996 167.545 186.291 168.138C186.586 168.732 186.733 169.424 186.733 170.217C186.733 171.005 186.586 171.695 186.291 172.285C185.996 172.875 185.581 173.334 185.048 173.662C184.514 173.99 183.889 174.154 183.173 174.154ZM183.178 172.906C183.642 172.906 184.027 172.784 184.332 172.538C184.637 172.293 184.862 171.967 185.008 171.559C185.157 171.151 185.232 170.702 185.232 170.212C185.232 169.724 185.157 169.277 185.008 168.869C184.862 168.458 184.637 168.129 184.332 167.88C184.027 167.631 183.642 167.507 183.178 167.507C182.711 167.507 182.323 167.631 182.015 167.88C181.71 168.129 181.483 168.458 181.334 168.869C181.188 169.277 181.115 169.724 181.115 170.212C181.115 170.702 181.188 171.151 181.334 171.559C181.483 171.967 181.71 172.293 182.015 172.538C182.323 172.784 182.711 172.906 183.178 172.906ZM191.889 174.154C191.15 174.154 190.514 173.987 189.98 173.652C189.45 173.314 189.042 172.848 188.757 172.255C188.472 171.662 188.329 170.982 188.329 170.217C188.329 169.441 188.475 168.757 188.767 168.163C189.059 167.567 189.47 167.101 190 166.766C190.53 166.432 191.155 166.264 191.874 166.264C192.454 166.264 192.971 166.372 193.425 166.587C193.879 166.799 194.246 167.098 194.524 167.482C194.806 167.867 194.973 168.316 195.026 168.83H193.579C193.5 168.472 193.318 168.163 193.033 167.905C192.751 167.646 192.373 167.517 191.899 167.517C191.485 167.517 191.122 167.626 190.81 167.845C190.502 168.061 190.262 168.369 190.089 168.77C189.917 169.168 189.831 169.638 189.831 170.182C189.831 170.739 189.915 171.219 190.084 171.624C190.253 172.028 190.492 172.341 190.8 172.563C191.112 172.785 191.478 172.896 191.899 172.896C192.181 172.896 192.436 172.845 192.665 172.742C192.897 172.636 193.091 172.485 193.246 172.29C193.405 172.094 193.516 171.859 193.579 171.584H195.026C194.973 172.078 194.812 172.518 194.544 172.906C194.275 173.294 193.916 173.599 193.465 173.821C193.018 174.043 192.492 174.154 191.889 174.154ZM198.263 171.41L198.253 169.595H198.512L201.554 166.364H203.334L199.864 170.043H199.63L198.263 171.41ZM196.896 174V163.818H198.382V174H196.896ZM201.718 174L198.984 170.371L200.008 169.332L203.543 174H201.718ZM207.945 174.154C207.193 174.154 206.545 173.993 206.002 173.672C205.461 173.347 205.044 172.891 204.749 172.305C204.457 171.715 204.311 171.024 204.311 170.232C204.311 169.449 204.457 168.76 204.749 168.163C205.044 167.567 205.455 167.101 205.982 166.766C206.512 166.432 207.132 166.264 207.841 166.264C208.272 166.264 208.69 166.335 209.094 166.478C209.498 166.621 209.861 166.844 210.183 167.149C210.504 167.454 210.758 167.85 210.943 168.337C211.129 168.821 211.222 169.41 211.222 170.102V170.629H205.151V169.516H209.765C209.765 169.125 209.686 168.778 209.526 168.477C209.367 168.172 209.144 167.931 208.855 167.756C208.57 167.58 208.235 167.492 207.851 167.492C207.433 167.492 207.069 167.595 206.757 167.8C206.449 168.003 206.21 168.268 206.041 168.596C205.876 168.921 205.793 169.274 205.793 169.655V170.525C205.793 171.035 205.882 171.469 206.061 171.827C206.244 172.185 206.497 172.459 206.822 172.648C207.147 172.833 207.526 172.926 207.96 172.926C208.242 172.926 208.499 172.886 208.731 172.807C208.963 172.724 209.164 172.601 209.333 172.439C209.502 172.277 209.631 172.076 209.72 171.837L211.127 172.091C211.015 172.505 210.812 172.868 210.521 173.18C210.232 173.488 209.869 173.728 209.432 173.901C208.998 174.07 208.502 174.154 207.945 174.154ZM216.716 166.364V167.557H212.545V166.364H216.716ZM213.663 164.534H215.15V171.758C215.15 172.046 215.193 172.263 215.279 172.409C215.365 172.552 215.476 172.649 215.612 172.702C215.751 172.752 215.902 172.777 216.064 172.777C216.184 172.777 216.288 172.769 216.378 172.752C216.467 172.736 216.537 172.722 216.586 172.712L216.855 173.94C216.769 173.973 216.646 174.007 216.487 174.04C216.328 174.076 216.129 174.096 215.89 174.099C215.499 174.106 215.135 174.036 214.797 173.891C214.459 173.745 214.185 173.519 213.976 173.214C213.768 172.91 213.663 172.527 213.663 172.066V164.534ZM221.499 169.774C221.499 171.024 221.335 172.172 221.007 173.219C220.678 174.267 220.199 175.233 219.57 176.118H218.208C218.453 175.79 218.681 175.387 218.894 174.91C219.106 174.433 219.291 173.911 219.45 173.344C219.61 172.774 219.734 172.184 219.823 171.574C219.913 170.964 219.958 170.364 219.958 169.774C219.958 168.989 219.88 168.192 219.724 167.383C219.568 166.574 219.358 165.823 219.092 165.131C218.827 164.438 218.532 163.873 218.208 163.435H219.57C220.199 164.32 220.678 165.286 221.007 166.334C221.335 167.381 221.499 168.528 221.499 169.774Z" fill="#171D21"/>
</svg>
