<?xml version="1.0" encoding="UTF-8"?>
<svg id="Layer_1" data-name="Layer 1" xmlns="http://www.w3.org/2000/svg" viewBox="0 0 300 600">
  <defs>
    <style>
      .cls-1 {
        fill: #171d21;
        stroke-width: 0px;
      }
    </style>
  </defs>
  <path class="cls-1" d="M32.3,88.99h-.23c-.21.58-.52,1.15-.91,1.73-.39.55-.86,1.03-1.41,1.46-.61.46-1.24.79-1.91,1-.79.24-1.64.36-2.55.36-2.37,0-4.28-.77-5.73-2.32-1.46-1.55-2.18-3.75-2.18-6.6v-15.11h4.96v14.38c0,3.73,1.62,5.6,4.87,5.6.67,0,1.29-.09,1.87-.27.52-.12,1.06-.36,1.64-.73.42-.27.82-.7,1.18-1.27.27-.52.41-1.11.41-1.78v-15.93h4.96v23.48h-4.96v-4.01ZM43.07,93v-23.48h4.96v4.01h.23c.21-.58.53-1.17.96-1.78.39-.58.85-1.06,1.37-1.46.55-.42,1.18-.74,1.91-.96.79-.24,1.64-.36,2.55-.36,2.37,0,4.28.77,5.73,2.32,1.46,1.55,2.18,3.75,2.18,6.6v15.11h-4.96v-14.38c0-3.73-1.62-5.6-4.87-5.6-.58,0-1.2.08-1.87.23-.55.18-1.09.44-1.64.77-.46.27-.83.7-1.14,1.27-.3.49-.46,1.08-.46,1.77v15.93h-4.96ZM82.83,93h-5.01c-1.97,0-3.41-.52-4.32-1.55-.94-1.06-1.41-2.41-1.41-4.05v-22.39h-4.01v-3.78h8.65v27.99h6.1v3.78ZM98.01,93.55c-1.76,0-3.31-.29-4.64-.86-1.37-.58-2.53-1.4-3.5-2.46-1-1.09-1.74-2.38-2.23-3.87-.52-1.55-.77-3.25-.77-5.1s.26-3.55.77-5.1c.49-1.49,1.23-2.78,2.23-3.87.97-1.06,2.14-1.88,3.5-2.46,1.33-.58,2.88-.86,4.64-.86s3.32.29,4.69.86c1.39.61,2.56,1.43,3.5,2.46.94,1.03,1.67,2.32,2.18,3.87.52,1.55.77,3.25.77,5.1s-.26,3.55-.77,5.1c-.52,1.55-1.24,2.84-2.18,3.87-.94,1.03-2.11,1.85-3.5,2.46-1.37.58-2.93.86-4.69.86ZM98.01,89.63c1.82,0,3.28-.56,4.37-1.68,1.06-1.12,1.59-2.76,1.59-4.92v-3.55c0-2.15-.53-3.81-1.59-4.96-1.09-1.09-2.55-1.64-4.37-1.64s-3.26.55-4.32,1.64c-1.09,1.12-1.64,2.78-1.64,4.96v3.55c0,2.18.55,3.82,1.64,4.92,1.03,1.12,2.47,1.68,4.32,1.68ZM132.22,93c-1.43,0-2.49-.36-3.19-1.09-.76-.76-1.2-1.71-1.32-2.87h-.23c-.46,1.46-1.27,2.56-2.46,3.32-1.24.79-2.78,1.18-4.6,1.18-2.4,0-4.31-.64-5.73-1.91-1.43-1.24-2.14-2.97-2.14-5.19s.85-3.99,2.55-5.23c1.7-1.18,4.28-1.77,7.74-1.77h4.5v-1.82c0-3.19-1.68-4.78-5.05-4.78-1.52,0-2.75.29-3.69.86-.91.55-1.7,1.34-2.37,2.37l-2.96-2.41c.7-1.27,1.82-2.38,3.37-3.32,1.61-.91,3.64-1.37,6.1-1.37,2.97,0,5.31.71,7.01,2.14,1.7,1.43,2.55,3.49,2.55,6.19v11.79h2.96v3.91h-3.05ZM121.84,89.91c1.61,0,2.93-.36,3.96-1.09,1.03-.73,1.55-1.67,1.55-2.82v-3.41h-4.41c-3.58,0-5.37,1.08-5.37,3.23v.91c0,1.09.38,1.88,1.14,2.37.79.55,1.84.82,3.14.82ZM139.12,93v-23.48h4.96v4.01h.23c.21-.58.53-1.17.96-1.78.39-.58.85-1.06,1.37-1.46.55-.42,1.18-.74,1.91-.96.79-.24,1.64-.36,2.55-.36,2.37,0,4.28.77,5.73,2.32,1.46,1.55,2.18,3.75,2.18,6.6v15.11h-4.96v-14.38c0-3.73-1.62-5.6-4.87-5.6-.58,0-1.2.08-1.87.23-.55.18-1.09.44-1.64.77-.46.27-.84.7-1.14,1.27-.3.49-.46,1.08-.46,1.77v15.93h-4.96ZM192.67,69.52h5.01l-11.38,28.04c-.58,1.46-1.37,2.59-2.37,3.41-.97.76-2.4,1.14-4.28,1.14h-3.96v-4.01h5.55l2.14-5.42-9.47-23.17h5.19l3.73,9.83,2.91,8.06h.27l2.91-8.06,3.73-9.83ZM210.38,93.55c-1.76,0-3.31-.29-4.64-.86-1.36-.58-2.53-1.4-3.5-2.46-1-1.09-1.74-2.38-2.23-3.87-.52-1.55-.77-3.25-.77-5.1s.26-3.55.77-5.1c.49-1.49,1.23-2.78,2.23-3.87.97-1.06,2.14-1.88,3.5-2.46,1.34-.58,2.88-.86,4.64-.86s3.32.29,4.69.86c1.4.61,2.56,1.43,3.51,2.46.94,1.03,1.67,2.32,2.18,3.87.51,1.55.77,3.25.77,5.1s-.26,3.55-.77,5.1c-.52,1.55-1.24,2.84-2.18,3.87s-2.11,1.85-3.51,2.46c-1.36.58-2.93.86-4.69.86ZM210.38,89.63c1.82,0,3.28-.56,4.37-1.68,1.06-1.12,1.59-2.76,1.59-4.92v-3.55c0-2.15-.53-3.81-1.59-4.96-1.09-1.09-2.55-1.64-4.37-1.64s-3.26.55-4.32,1.64c-1.09,1.12-1.64,2.78-1.64,4.96v3.55c0,2.18.55,3.82,1.64,4.92,1.03,1.12,2.47,1.68,4.32,1.68ZM240.71,88.99h-.23c-.21.58-.52,1.15-.91,1.73-.39.55-.86,1.03-1.41,1.46-.61.46-1.24.79-1.91,1-.79.24-1.64.36-2.55.36-2.37,0-4.28-.77-5.73-2.32-1.46-1.55-2.18-3.75-2.18-6.6v-15.11h4.96v14.38c0,3.73,1.62,5.6,4.87,5.6.67,0,1.29-.09,1.87-.27.52-.12,1.06-.36,1.64-.73.43-.27.82-.7,1.18-1.27.27-.52.41-1.11.41-1.78v-15.93h4.96v23.48h-4.96v-4.01ZM251.12,88.99h6.24v-15.47h-6.24v-4.01h11.2v6.24h.27c.24-.91.55-1.7.91-2.37.36-.7.86-1.37,1.5-2,.58-.52,1.32-.97,2.23-1.37.91-.33,1.94-.5,3.1-.5h2.82v4.73h-4.64c-1.82,0-3.31.53-4.46,1.59-1.15,1.09-1.73,2.55-1.73,4.37v8.78h8.51v4.01h-19.71v-4.01Z"/>
</svg>