<?xml version="1.0" encoding="UTF-8"?>
<svg id="Layer_2" data-name="Layer 2" xmlns="http://www.w3.org/2000/svg" xmlns:xlink="http://www.w3.org/1999/xlink" viewBox="0 0 300 250">
  <defs>
    <style>
      .cls-1 {
        fill: none;
      }

      .cls-1, .cls-2 {
        stroke-width: 0px;
      }

      .cls-3 {
        clip-path: url(#clippath-1);
      }

      .cls-4 {
        clip-path: url(#clippath);
      }

      .cls-2 {
        fill: #fff;
      }
    </style>
    <clipPath id="clippath">
      <rect class="cls-1" width="300" height="250"/>
    </clipPath>
    <clipPath id="clippath-1">
      <rect class="cls-1" width="300" height="250"/>
    </clipPath>
  </defs>
  <g id="Layer_1-2" data-name="Layer 1">
    <g class="cls-4">
      <g class="cls-3">
        <g>
          <path class="cls-2" d="M28.33,40.41c-.82,0-1.48-.34-1.48-1.22v-12.58c0-.85.68-1.24,1.5-1.24s1.48.39,1.48,1.24v11.08h6.52c.84,0,1.17.6,1.17,1.36s-.33,1.36-1.17,1.36h-8.02Z"/>
          <path class="cls-2" d="M49.28,39.03c0,.69-.21,1.06-.99,1.26-.47.14-1.97.34-3.82.34-4.2,0-5.56-1.01-5.56-4.35v-2.99c0-3.52,1.52-4.39,5.46-4.39s5.09.97,5.09,4.32v1.31c0,.99-.38,1.33-1.24,1.33h-6.4v.58c0,1.2.84,1.66,2.53,1.66,1.27,0,2.84-.21,3.71-.21s1.22.25,1.22,1.13ZM41.82,33.6h4.78v-.51c0-1.36-.52-1.7-2.39-1.7-1.76,0-2.39.3-2.39,1.7v.51Z"/>
          <path class="cls-2" d="M52.35,30.5c0-1.03.89-1.59,4.41-1.59,4.34,0,5.42.67,5.42,3.79v4.35c0,3.04-1.38,3.59-5.42,3.59s-5.07-.55-5.07-3.66c0-2.55.63-3.59,4.92-3.59h2.67v-.46c0-1.13-.45-1.4-2.21-1.4s-2.81.28-3.49.28c-.92,0-1.24-.51-1.24-1.31ZM59.3,35.72h-2.84c-1.62,0-1.92.28-1.92,1.17,0,.97.35,1.24,2.32,1.24s2.44-.23,2.44-.87v-1.54Z"/>
          <path class="cls-2" d="M64.58,32.52c0-2.14,1.5-3.61,5.23-3.61,3.42,0,4.08.62,4.08,1.63,0,.74-.3,1.13-1.27,1.13-.7,0-1.41-.25-3.1-.25-1.41,0-2.04.28-2.04.83,0,1.79,6.87.37,6.87,4.76,0,2.55-1.83,3.63-5.16,3.63-4.03,0-4.55-.6-4.55-1.54,0-.8.33-1.24,1.29-1.24.73,0,1.5.28,3.17.28,1.5,0,2.34-.3,2.34-.99,0-1.7-6.87-.37-6.87-4.62Z"/>
          <path class="cls-2" d="M77.92,24.77c.92,0,1.67.74,1.67,1.63s-.75,1.61-1.67,1.61-1.62-.71-1.62-1.61.7-1.63,1.62-1.63ZM79.38,39.4c0,.85-.66,1.2-1.45,1.2s-1.45-.34-1.45-1.2v-9.22c0-.85.66-1.22,1.45-1.22s1.45.37,1.45,1.22v9.22Z"/>
          <path class="cls-2" d="M85.57,33.9v5.5c0,.85-.66,1.2-1.45,1.2s-1.45-.34-1.45-1.2v-5.63c0-4.28,1.06-4.85,5.3-4.85s5.37.57,5.37,4.85v5.63c0,.85-.66,1.2-1.45,1.2s-1.43-.34-1.43-1.2v-5.5c0-2.09-.33-2.44-2.49-2.44s-2.39.34-2.39,2.44Z"/>
          <path class="cls-2" d="M105.02,28.13c0-.8.66-1.13,1.43-1.13s1.41.32,1.41,1.13v4.78c0,3.08-1.59,3.72-5.37,3.72-1.48,0-2.25-.11-2.96-.28h-.07v1.43h4.67c3.17,0,4.15.85,4.15,3.2,0,2.92-1.5,3.91-6.07,3.91-4.13,0-5.58-.87-5.58-3.84v-8.51c0-3.22,1.43-3.63,5.37-3.63,1.1,0,2.27.07,2.96.25h.07v-1.04ZM105.02,32.71v-1.13c-.59-.09-1.59-.18-2.93-.18-2.42,0-2.63.3-2.63,1.22v.48c0,.9.33,1.08,2.77,1.08,2.58,0,2.79-.21,2.79-1.47ZM99.46,40.82c0,1.33.52,1.59,2.79,1.59,2.56,0,3.19-.28,3.19-1.22,0-.71-.35-.92-1.83-.92h-4.15v.55Z"/>
          <path class="cls-2" d="M115.62,32.52c0-2.14,1.5-3.61,5.23-3.61,3.42,0,4.08.62,4.08,1.63,0,.74-.3,1.13-1.27,1.13-.7,0-1.41-.25-3.1-.25-1.41,0-2.04.28-2.04.83,0,1.79,6.87.37,6.87,4.76,0,2.55-1.83,3.63-5.16,3.63-4.03,0-4.55-.6-4.55-1.54,0-.8.33-1.24,1.29-1.24.73,0,1.5.28,3.17.28,1.5,0,2.34-.3,2.34-.99,0-1.7-6.87-.37-6.87-4.62Z"/>
          <path class="cls-2" d="M137.84,39.03c0,.69-.21,1.06-.99,1.26-.47.14-1.97.34-3.82.34-4.2,0-5.56-1.01-5.56-4.35v-2.99c0-3.52,1.52-4.39,5.46-4.39s5.09.97,5.09,4.32v1.31c0,.99-.38,1.33-1.24,1.33h-6.4v.58c0,1.2.84,1.66,2.53,1.66,1.27,0,2.84-.21,3.71-.21s1.22.25,1.22,1.13ZM130.38,33.6h4.78v-.51c0-1.36-.52-1.7-2.39-1.7-1.76,0-2.39.3-2.39,1.7v.51Z"/>
          <path class="cls-2" d="M143.94,33.9v5.5c0,.85-.66,1.2-1.45,1.2s-1.45-.34-1.45-1.2v-5.63c0-4.28,1.06-4.85,5.3-4.85s5.37.57,5.37,4.85v5.63c0,.85-.66,1.2-1.45,1.2s-1.43-.34-1.43-1.2v-5.5c0-2.09-.33-2.44-2.49-2.44s-2.39.34-2.39,2.44Z"/>
          <path class="cls-2" d="M159.52,31.7h-4.43c-.84,0-1.15-.53-1.15-1.26s.3-1.29,1.15-1.29h6.83c1.08,0,1.67.62,1.67,1.4,0,.48-.23,1.06-.7,1.56l-5.28,5.75h4.85c.84,0,1.15.53,1.15,1.26s-.3,1.29-1.15,1.29h-7.18c-1.1,0-1.71-.62-1.71-1.43,0-.48.21-1.04.68-1.54l5.28-5.75Z"/>
          <path class="cls-2" d="M165.78,30.5c0-1.03.89-1.59,4.41-1.59,4.34,0,5.42.67,5.42,3.79v4.35c0,3.04-1.38,3.59-5.42,3.59s-5.07-.55-5.07-3.66c0-2.55.63-3.59,4.92-3.59h2.67v-.46c0-1.13-.45-1.4-2.21-1.4s-2.81.28-3.49.28c-.92,0-1.24-.51-1.24-1.31ZM172.72,35.72h-2.84c-1.62,0-1.92.28-1.92,1.17,0,.97.35,1.24,2.32,1.24s2.44-.23,2.44-.87v-1.54Z"/>
          <path class="cls-2" d="M184.29,34.64c0-4.9,1.45-5.73,5.63-5.73s5.61.83,5.61,5.73-1.34,6-5.61,6c-.8,0-1.99-.16-2.6-.3h-.07v2.94c0,.87-.7,1.2-1.5,1.2s-1.45-.32-1.45-1.2v-8.65ZM189.92,31.46c-1.95,0-2.72.23-2.72,3.22s.61,3.4,2.72,3.4,2.72-.32,2.72-3.4-.56-3.22-2.72-3.22Z"/>
          <path class="cls-2" d="M208.57,39.03c0,.69-.21,1.06-.99,1.26-.47.14-1.97.34-3.82.34-4.2,0-5.56-1.01-5.56-4.35v-2.99c0-3.52,1.52-4.39,5.46-4.39s5.09.97,5.09,4.32v1.31c0,.99-.38,1.33-1.24,1.33h-6.4v.58c0,1.2.84,1.66,2.53,1.66,1.27,0,2.84-.21,3.71-.21s1.22.25,1.22,1.13ZM201.11,33.6h4.78v-.51c0-1.36-.52-1.7-2.39-1.7-1.76,0-2.39.3-2.39,1.7v.51Z"/>
          <path class="cls-2" d="M214.67,33.9v5.5c0,.85-.66,1.2-1.45,1.2s-1.45-.34-1.45-1.2v-5.63c0-4.28,1.06-4.85,5.3-4.85s5.37.57,5.37,4.85v5.63c0,.85-.66,1.2-1.45,1.2s-1.43-.34-1.43-1.2v-5.5c0-2.09-.33-2.44-2.49-2.44s-2.39.34-2.39,2.44Z"/>
          <path class="cls-2" d="M224.88,32.52c0-2.14,1.5-3.61,5.23-3.61,3.42,0,4.08.62,4.08,1.63,0,.74-.3,1.13-1.27,1.13-.7,0-1.41-.25-3.1-.25-1.41,0-2.04.28-2.04.83,0,1.79,6.87.37,6.87,4.76,0,2.55-1.83,3.63-5.16,3.63-4.03,0-4.55-.6-4.55-1.54,0-.8.33-1.24,1.29-1.24.73,0,1.5.28,3.17.28,1.5,0,2.34-.3,2.34-.99,0-1.7-6.87-.37-6.87-4.62Z"/>
          <path class="cls-2" d="M238.22,24.77c.92,0,1.67.74,1.67,1.63s-.75,1.61-1.67,1.61-1.62-.71-1.62-1.61.7-1.63,1.62-1.63ZM239.68,39.4c0,.85-.66,1.2-1.45,1.2s-1.45-.34-1.45-1.2v-9.22c0-.85.66-1.22,1.45-1.22s1.45.37,1.45,1.22v9.22Z"/>
          <path class="cls-2" d="M253.19,39.03c0,.69-.21,1.06-.99,1.26-.47.14-1.97.34-3.82.34-4.2,0-5.56-1.01-5.56-4.35v-2.99c0-3.52,1.52-4.39,5.46-4.39s5.09.97,5.09,4.32v1.31c0,.99-.38,1.33-1.24,1.33h-6.4v.58c0,1.2.84,1.66,2.53,1.66,1.27,0,2.84-.21,3.71-.21s1.22.25,1.22,1.13ZM245.73,33.6h4.78v-.51c0-1.36-.52-1.7-2.39-1.7-1.76,0-2.39.3-2.39,1.7v.51Z"/>
          <path class="cls-2" d="M261.17,31.56c-1.57,0-1.88.21-1.88,1.75v6.09c0,.85-.63,1.2-1.43,1.2s-1.48-.34-1.48-1.2v-6.32c0-3.52,1.15-4.16,4.83-4.16,2.39,0,3,.55,3,1.42,0,.78-.45,1.31-1.27,1.31-.47,0-.89-.09-1.78-.09Z"/>
          <path class="cls-2" d="M267.52,24.77c.92,0,1.67.74,1.67,1.63s-.75,1.61-1.67,1.61-1.62-.71-1.62-1.61.7-1.63,1.62-1.63ZM268.98,39.4c0,.85-.66,1.2-1.45,1.2s-1.45-.34-1.45-1.2v-9.22c0-.85.66-1.22,1.45-1.22s1.45.37,1.45,1.22v9.22Z"/>
        </g>
      </g>
    </g>
  </g>
</svg>