<?xml version="1.0" encoding="UTF-8"?>
<svg id="Layer_2" data-name="Layer 2" xmlns="http://www.w3.org/2000/svg" xmlns:xlink="http://www.w3.org/1999/xlink" viewBox="0 0 300 250">
  <defs>
    <style>
      .cls-1 {
        fill: none;
      }

      .cls-1, .cls-2 {
        stroke-width: 0px;
      }

      .cls-3 {
        clip-path: url(#clippath-1);
      }

      .cls-4 {
        clip-path: url(#clippath);
      }

      .cls-2 {
        fill: #fff;
      }
    </style>
    <clipPath id="clippath">
      <rect class="cls-1" width="300" height="250"/>
    </clipPath>
    <clipPath id="clippath-1">
      <rect class="cls-1" width="300" height="250"/>
    </clipPath>
  </defs>
  <g id="Layer_1-2" data-name="Layer 1">
    <g class="cls-4">
      <g class="cls-3">
        <g>
          <path class="cls-2" d="M29.41,61.27v3.04c0,1.01.45,1.7,2.32,1.7,1.17,0,1.83-.23,2.77-.23.84,0,1.15.51,1.15,1.26,0,.71-.33,1.1-1.01,1.29-.33.09-1.31.3-3.03.3-3.99,0-5.11-1.38-5.11-4.21v-3.22c0-3.29,1.29-4.3,5.3-4.3,3.59,0,3.85.57,3.85,1.61,0,.74-.26,1.2-1.1,1.2s-1.52-.21-2.81-.21c-1.81,0-2.32.55-2.32,1.77Z"/>
          <path class="cls-2" d="M42.48,56.9c4.2,0,5.65,1.13,5.65,5.98s-1.45,5.75-5.65,5.75-5.63-.87-5.63-5.75,1.38-5.98,5.63-5.98ZM42.48,66.08c2.11,0,2.74-.25,2.74-3.24s-.63-3.38-2.74-3.38-2.72.3-2.72,3.38.56,3.24,2.72,3.24Z"/>
          <path class="cls-2" d="M53.85,61.89v5.5c0,.85-.66,1.2-1.45,1.2s-1.45-.34-1.45-1.2v-5.63c0-4.28,1.06-4.85,5.3-4.85s5.37.57,5.37,4.85v5.63c0,.85-.66,1.2-1.45,1.2s-1.43-.34-1.43-1.2v-5.5c0-2.09-.33-2.44-2.49-2.44s-2.39.34-2.39,2.44Z"/>
          <path class="cls-2" d="M72.08,68.4c-.82,0-1.48-.34-1.48-1.22v-12.58c0-.85.68-1.24,1.5-1.24s1.48.39,1.48,1.24v11.08h6.52c.84,0,1.17.6,1.17,1.36s-.33,1.36-1.17,1.36h-8.02Z"/>
          <path class="cls-2" d="M93.03,67.02c0,.69-.21,1.06-.99,1.26-.47.14-1.97.34-3.82.34-4.2,0-5.56-1.01-5.56-4.35v-2.99c0-3.52,1.52-4.39,5.46-4.39s5.09.97,5.09,4.32v1.31c0,.99-.38,1.33-1.24,1.33h-6.4v.58c0,1.2.84,1.66,2.53,1.66,1.27,0,2.84-.21,3.71-.21s1.22.25,1.22,1.13ZM85.57,61.59h4.78v-.51c0-1.36-.52-1.7-2.39-1.7-1.76,0-2.39.3-2.39,1.7v.51Z"/>
          <path class="cls-2" d="M96.11,58.49c0-1.03.89-1.59,4.41-1.59,4.34,0,5.42.67,5.42,3.79v4.35c0,3.04-1.38,3.59-5.42,3.59s-5.07-.55-5.07-3.66c0-2.55.63-3.59,4.92-3.59h2.67v-.46c0-1.13-.45-1.4-2.21-1.4s-2.81.28-3.49.28c-.92,0-1.24-.51-1.24-1.31ZM103.05,63.71h-2.84c-1.62,0-1.92.28-1.92,1.17,0,.97.35,1.24,2.32,1.24s2.44-.23,2.44-.87v-1.54Z"/>
          <path class="cls-2" d="M108.33,60.51c0-2.14,1.5-3.61,5.23-3.61,3.42,0,4.08.62,4.08,1.63,0,.74-.3,1.13-1.27,1.13-.7,0-1.41-.25-3.1-.25-1.41,0-2.04.28-2.04.83,0,1.79,6.87.37,6.87,4.76,0,2.55-1.83,3.63-5.16,3.63-4.03,0-4.55-.6-4.55-1.54,0-.8.33-1.24,1.29-1.24.73,0,1.5.28,3.17.28,1.5,0,2.34-.3,2.34-.99,0-1.7-6.87-.37-6.87-4.62Z"/>
          <path class="cls-2" d="M121.7,52.76c.92,0,1.67.74,1.67,1.63s-.75,1.61-1.67,1.61-1.62-.71-1.62-1.61.7-1.63,1.62-1.63ZM123.15,67.39c0,.85-.66,1.2-1.45,1.2s-1.45-.34-1.45-1.2v-9.22c0-.85.66-1.22,1.45-1.22s1.45.37,1.45,1.22v9.22Z"/>
          <path class="cls-2" d="M129.35,61.89v5.5c0,.85-.66,1.2-1.45,1.2s-1.45-.34-1.45-1.2v-5.63c0-4.28,1.06-4.85,5.3-4.85s5.37.57,5.37,4.85v5.63c0,.85-.66,1.2-1.45,1.2s-1.43-.34-1.43-1.2v-5.5c0-2.09-.33-2.44-2.49-2.44s-2.39.34-2.39,2.44Z"/>
          <path class="cls-2" d="M148.79,56.12c0-.8.66-1.13,1.43-1.13s1.41.32,1.41,1.13v4.78c0,3.08-1.59,3.72-5.37,3.72-1.48,0-2.25-.11-2.96-.28h-.07v1.43h4.67c3.17,0,4.15.85,4.15,3.2,0,2.92-1.5,3.91-6.07,3.91-4.13,0-5.58-.87-5.58-3.84v-8.51c0-3.22,1.43-3.63,5.37-3.63,1.1,0,2.27.07,2.96.25h.07v-1.04ZM148.79,60.7v-1.13c-.59-.09-1.59-.18-2.93-.18-2.42,0-2.63.3-2.63,1.22v.48c0,.9.33,1.08,2.77,1.08,2.58,0,2.79-.21,2.79-1.47ZM143.23,68.82c0,1.33.52,1.59,2.79,1.59,2.56,0,3.19-.28,3.19-1.22,0-.71-.35-.92-1.83-.92h-4.15v.55Z"/>
          <path class="cls-2" d="M158.01,62.77v4.6c0,.87-.7,1.22-1.52,1.22s-1.52-.34-1.52-1.22v-12.67c0-.83.56-1.24,1.41-1.24h6.12c3.64,0,5.02,1.01,5.02,4.58,0,2.83-.87,4.74-5.02,4.74h-4.48ZM158.01,60.15h4.48c1.45,0,1.97-.6,1.97-2.09s-.52-1.91-1.99-1.91h-4.46v4Z"/>
          <path class="cls-2" d="M171.5,68.4c-.82,0-1.48-.34-1.48-1.22v-12.58c0-.85.68-1.24,1.5-1.24s1.48.39,1.48,1.24v11.08h6.52c.84,0,1.17.6,1.17,1.36s-.33,1.36-1.17,1.36h-8.02Z"/>
          <path class="cls-2" d="M191.75,63.18v-8.69c0-.87.7-1.22,1.52-1.22s1.5.34,1.5,1.22v8.97c0,4.78-2.37,5.17-6.47,5.17s-6.36-.39-6.36-5.17v-8.97c0-.87.7-1.22,1.52-1.22s1.52.34,1.52,1.22v8.69c0,2.37.89,2.76,3.31,2.76s3.45-.39,3.45-2.76Z"/>
          <path class="cls-2" d="M203.36,68.63c-2.74,0-5.53-.32-5.53-1.86,0-.76.45-1.38,1.2-1.38,1.17,0,3.07.46,4.34.46,2.3,0,3.5-.51,3.5-1.91,0-3.36-8.91.55-8.91-6.28,0-3.04,1.95-4.44,6.45-4.44,2.72,0,4.92.34,4.92,1.68,0,.83-.56,1.33-1.31,1.33-1.13,0-2.65-.32-3.85-.32-2.2,0-3.19.64-3.19,1.72,0,3.45,8.89-.39,8.89,6.09,0,3.22-1.81,4.9-6.5,4.9Z"/>
          <path class="cls-2" d="M213.64,65.02c1.01,0,1.81.8,1.81,1.79s-.8,1.77-1.81,1.77-1.78-.74-1.78-1.77.75-1.79,1.78-1.79Z"/>
        </g>
      </g>
    </g>
  </g>
</svg>