<?xml version="1.0" encoding="UTF-8"?>
<svg id="Layer_2" data-name="Layer 2" xmlns="http://www.w3.org/2000/svg" xmlns:xlink="http://www.w3.org/1999/xlink" viewBox="0 0 300 250">
  <defs>
    <style>
      .cls-1 {
        fill: #000;
      }

      .cls-1, .cls-2 {
        stroke-width: 0px;
      }

      .cls-2 {
        fill: none;
      }

      .cls-3 {
        clip-path: url(#clippath);
      }
    </style>
    <clipPath id="clippath">
      <rect class="cls-2" width="300" height="250"/>
    </clipPath>
  </defs>
  <g id="Layer_1-2" data-name="Layer 1">
    <g class="cls-3">
      <g>
        <path class="cls-1" d="M28.32,67.35c0,.37-.34.53-.67.53s-.67-.15-.67-.53v-13.36c0-.33.22-.55.56-.55h5.9c3.14,0,4.31,1.01,4.31,3.94s-1.26,4.16-4.71,4.16h-4.71v5.81ZM28.32,60.46h4.58c2.49,0,3.5-.62,3.5-3.01,0-2.27-.88-2.93-3.03-2.93h-5.05v5.94Z"/>
        <path class="cls-1" d="M41.88,61.19v6.18c0,.33-.29.51-.63.51-.36,0-.63-.18-.63-.55v-6.09c0-3.92.92-4.36,4.71-4.36,3.57,0,4.71.44,4.71,4.36v6.09c0,.37-.29.55-.63.55s-.63-.18-.63-.51v-6.18c0-2.95-.99-3.28-3.46-3.28-2.92,0-3.46.33-3.46,3.28Z"/>
        <path class="cls-1" d="M62.7,67.13c0,.2-.04.4-.43.51-.56.18-2.16.33-3.77.33-3.82,0-5.05-1.3-5.05-3.81v-3.85c0-2.53,1.53-3.43,4.89-3.43s4.62.97,4.62,3.34v1.61c0,.68-.34,1.03-.94,1.03h-7.32v1.25c0,1.8.99,2.77,3.82,2.77,1.8,0,3.39-.31,3.75-.31.25,0,.43.15.43.55ZM54.71,61.83h7v-1.74c0-1.34-.67-2.18-3.41-2.18s-3.59.81-3.59,2.31v1.61Z"/>
        <path class="cls-1" d="M74.01,63.65v-6.18c0-.33.29-.51.63-.51s.63.18.63.55v6.09c0,3.92-1.05,4.36-4.62,4.36-3.79,0-4.62-.44-4.62-4.36v-6.09c0-.37.27-.55.63-.55.34,0,.63.18.63.51v6.18c0,2.95.45,3.28,3.37,3.28,2.47,0,3.37-.33,3.37-3.28Z"/>
        <path class="cls-1" d="M87.12,57.91c.58-.79,1.89-1.03,3.75-1.03,3.39,0,4.42.44,4.42,4.36v6.09c0,.37-.29.55-.63.55s-.63-.18-.63-.51v-6.18c0-2.95-.7-3.28-3.17-3.28s-3.16.33-3.16,3.28v6.14c0,.37-.29.55-.63.55s-.63-.18-.63-.51v-6.18c0-2.95-.65-3.28-3.16-3.28s-3.17.33-3.17,3.28v6.18c0,.33-.29.51-.63.51-.36,0-.63-.18-.63-.55v-6.09c0-3.92,1.03-4.36,4.42-4.36,2.06,0,3.19.24,3.79,1.03h.04Z"/>
        <path class="cls-1" d="M98.85,57.71c0-.31.16-.51.43-.57.4-.09,1.98-.26,3.95-.26,3.61,0,4.62.75,4.62,3.15v4.86c0,2.68-1.12,3.08-4.92,3.08s-4.6-.64-4.6-3.06.76-3.23,4.38-3.23h3.88v-1.8c0-1.52-.9-1.96-3.48-1.96-2.22,0-3.19.31-3.82.31-.22,0-.45-.18-.45-.51ZM106.59,62.71h-3.91c-2.56,0-3.1.55-3.1,2.09,0,1.63.67,2.13,3.39,2.13,2.96,0,3.61-.31,3.61-2v-2.22Z"/>
        <path class="cls-1" d="M113.93,57.1h3.41c.38,0,.49.22.49.53s-.11.51-.54.51h-3.37v7.26c0,1.08.56,1.5,1.75,1.5.56,0,1.48-.13,1.75-.13s.49.13.49.51c0,.26-.11.44-.43.53-.31.09-1.33.18-2.04.18-1.77,0-2.78-.57-2.78-2.53v-7.3h-2.16c-.36,0-.47-.2-.47-.51s.11-.53.47-.53h2.16v-2.42c0-.37.27-.55.63-.55.34,0,.63.18.63.51v2.46Z"/>
        <path class="cls-1" d="M120.86,53.22c.49,0,.9.4.9.88s-.4.88-.9.88-.92-.4-.92-.88.4-.88.92-.88ZM121.49,67.37c0,.33-.29.51-.63.51-.36,0-.63-.18-.63-.55v-9.81c0-.37.27-.55.63-.55.34,0,.63.18.63.51v9.9Z"/>
        <path class="cls-1" d="M124.86,60.59c0-2.49,1.14-3.72,4.98-3.72,1.66,0,2.72.15,3.1.26.38.11.52.29.52.55,0,.37-.27.53-.56.53-.36,0-1.59-.26-3.1-.26-2.85,0-3.68.95-3.68,2.57v3.74c0,1.8.99,2.62,3.7,2.62,1.62,0,2.78-.33,3.23-.33.25,0,.54.09.54.53,0,.26-.11.42-.43.53-.45.15-1.86.35-3.57.35-3.59,0-4.74-1.23-4.74-3.76v-3.61Z"/>
        <path class="cls-1" d="M136.55,53.22c.49,0,.9.4.9.88s-.4.88-.9.88-.92-.4-.92-.88.4-.88.92-.88ZM137.18,67.37c0,.33-.29.51-.63.51-.36,0-.63-.18-.63-.55v-9.81c0-.37.27-.55.63-.55.34,0,.63.18.63.51v9.9Z"/>
        <path class="cls-1" d="M141.55,65.96c.56,0,1.01.44,1.01.95,0,.57-.45.99-1.01.99s-.99-.42-.99-.99c0-.51.45-.95.99-.95Z"/>
      </g>
    </g>
  </g>
</svg>