<?xml version="1.0" encoding="utf-8"?>
<!-- Generator: Adobe Illustrator 25.2.1, SVG Export Plug-In . SVG Version: 6.00 Build 0)  -->
<svg version="1.1" id="Layer_1" xmlns="http://www.w3.org/2000/svg" xmlns:xlink="http://www.w3.org/1999/xlink" x="0px" y="0px"
	 viewBox="0 0 728 90" style="enable-background:new 0 0 728 90;" xml:space="preserve">
<style type="text/css">
	.st0{clip-path:url(#SVGID_2_);}
	.st1{enable-background:new    ;}
	.st2{fill:#EE4627;}
</style>
<g>
	<g>
		<defs>
			<rect id="SVGID_1_" x="191.7" y="14.3" width="194.8" height="37.7"/>
		</defs>
		<clipPath id="SVGID_2_">
			<use xlink:href="#SVGID_1_"  style="overflow:visible;"/>
		</clipPath>
		<g class="st0">
			<g class="st1">
				<path class="st2" d="M205,32.1h-3.3v-6.4l-4.9-8.1h3.7l2.9,4.9l2.9-4.9h3.7l-4.9,8.1L205,32.1L205,32.1z"/>
			</g>
			<g class="st1">
				<path class="st2" d="M224.5,24.9c0,3.1-1.7,7.5-7.2,7.5s-7.2-4.4-7.2-7.5c0-3,1.7-7.5,7.2-7.5C222.8,17.4,224.5,21.8,224.5,24.9
					z M221.1,24.9c0-1.1-0.5-4.3-3.8-4.3c-3.4,0-3.8,3.3-3.8,4.3c0,1.1,0.5,4.4,3.8,4.4C220.7,29.2,221.1,25.9,221.1,24.9z"/>
				<path class="st2" d="M235.1,26.4v-8.8h3.3v8.8c0,2.5-1.5,5.8-5.8,5.8s-5.8-3.4-5.8-5.8v-8.8h3.3v8.8c0,0.8,0.5,2.8,2.5,2.8
					C234.6,29.2,235.1,27.2,235.1,26.4z"/>
				<path class="st2" d="M244.8,32.1h-3.3V17.6h5.5c4,0,5.2,2.8,5.2,4.8s-1.1,3.5-2.7,4.3l2.5,5.4h-3.6l-2.3-4.9h-1.5v4.9H244.8z
					 M249,22.4c0-0.6-0.3-1.7-1.8-1.7h-2.4v3.5h2.4C248.6,24.1,249,22.9,249,22.4z"/>
				<path class="st2" d="M268.4,32.2l-3.8-7.1l-2.4,7h-3.5l5.5-14.6h0.2l4.1,8.3l4.1-8.3h0.2l5.5,14.6h-3.5l-2.4-7l-3.8,7.1
					C268.6,32.2,268.4,32.2,268.4,32.2z"/>
				<path class="st2" d="M283.6,26.5V29h6.7v3.1h-10V17.6h10v3.1h-6.7v2.7h5.2v3.1C288.8,26.5,283.6,26.5,283.6,26.5z"/>
				<path class="st2" d="M292.8,32.1V17.6h5.2c5.5,0,7.2,4.2,7.2,7.2c0,3.1-1.7,7.3-7.2,7.3H292.8z M298,29c3.4,0,3.8-3.1,3.8-4.2
					s-0.5-4.2-3.8-4.2h-1.9V29H298z"/>
				<path class="st2" d="M311,32.1h-3.3V17.6h3.3V32.1z"/>
				<path class="st2" d="M326.9,32.1h-3.7l-1.3-3h-4.1l-1.3,3h-3.7l6.9-14.6h0.3L326.9,32.1z M318.9,26.5h1.9l-1-2.3L318.9,26.5z"/>
			</g>
			<g class="st1">
				<path class="st2" d="M198.2,50.7V36.2h5.2c5.5,0,7.2,4.2,7.2,7.2c0,3.1-1.7,7.3-7.2,7.3H198.2z M203.4,47.6
					c3.4,0,3.8-3.1,3.8-4.2c0-1.1-0.5-4.2-3.8-4.2h-1.9v8.3h1.9V47.6z"/>
				<path class="st2" d="M216.4,50.7h-3.3V36.2h3.3V50.7z"/>
				<path class="st2" d="M225.7,42c2,0.7,4.2,1.7,4.2,4.3c0,2.5-2.2,4.5-5.4,4.5c-2.1,0-3.9-0.6-5.7-1.6l1.5-2.8
					c1.4,0.7,2.8,1.2,4.1,1.2c1.1,0,2-0.5,2-1.2c0-0.9-1.1-1.3-2.5-1.7c-2.1-0.7-4.7-1.5-4.7-4.5c0-2.7,2-4.3,4.8-4.3
					c1,0,3,0.1,5.6,1.4l-1.2,2.8c-0.7-0.3-2.8-1.1-4.1-1.1c-0.9,0-1.7,0.3-1.7,1.1C222.7,41.1,224.1,41.5,225.7,42z"/>
				<path class="st2" d="M235.8,50.7h-3.3V36.2h3.3V50.7z"/>
				<path class="st2" d="M239.3,36l8.5,7.5v-7.3h3.3v14.5l-0.2,0.1l-8.5-7.6v7.5h-3.3V36.1L239.3,36z"/>
			</g>
			<g class="st1">
				<path class="st2" d="M257.7,45.1v5.6h-3.3V36.2h10v3.1h-6.7V42h5.3v3.1H257.7z"/>
			</g>
			<g class="st1">
				<path class="st2" d="M279.8,43.4c0,3.1-1.7,7.5-7.2,7.5s-7.2-4.4-7.2-7.5c0-3,1.7-7.5,7.2-7.5C278.1,36,279.8,40.4,279.8,43.4z
					 M276.4,43.4c0-1.1-0.5-4.3-3.8-4.3c-3.4,0-3.8,3.3-3.8,4.3c0,1.1,0.5,4.4,3.8,4.4C276,47.8,276.4,44.5,276.4,43.4z"/>
				<path class="st2" d="M285.6,50.7h-3.3V36.2h5.5c4,0,5.2,2.8,5.2,4.8s-1.1,3.5-2.7,4.3l2.5,5.4h-3.6l-2.3-4.9h-1.5v4.9H285.6z
					 M289.8,41c0-0.6-0.3-1.7-1.8-1.7h-2.4v3.5h2.4C289.4,42.7,289.8,41.5,289.8,41z"/>
				<path class="st2" d="M303.9,50.8l-3.8-7.1l-2.4,7h-3.5l5.5-14.6h0.2l4.1,8.3l4.1-8.3h0.2l5.5,14.6h-3.5l-2.4-7l-3.8,7.1
					C304.1,50.8,303.9,50.8,303.9,50.8z"/>
			</g>
			<g class="st1">
				<path class="st2" d="M328.3,50.7h-3.7l-1.3-3h-4.1l-1.3,3h-3.7l6.9-14.6h0.3L328.3,50.7z M320.3,45.1h1.9l-1-2.3L320.3,45.1z"/>
			</g>
			<g class="st1">
				<path class="st2" d="M330.7,39.3h-3.8v-3.1h11v3.1h-3.8v11.4h-3.3V39.3H330.7z"/>
				<path class="st2" d="M343.4,50.7h-3.3V36.2h3.3V50.7z"/>
				<path class="st2" d="M360.3,43.4c0,3.1-1.7,7.5-7.2,7.5s-7.2-4.4-7.2-7.5c0-3,1.7-7.5,7.2-7.5C358.6,36,360.3,40.4,360.3,43.4z
					 M356.9,43.4c0-1.1-0.5-4.3-3.8-4.3c-3.4,0-3.8,3.3-3.8,4.3c0,1.1,0.5,4.4,3.8,4.4C356.4,47.8,356.9,44.5,356.9,43.4z"/>
				<path class="st2" d="M362.9,36l8.5,7.5v-7.3h3.3v14.5l-0.2,0.1l-8.5-7.6v7.5h-3.3V36.1L362.9,36z"/>
			</g>
		</g>
	</g>
</g>
</svg>
