<?xml version="1.0" encoding="utf-8"?>
<!-- Generator: Adobe Illustrator 25.2.1, SVG Export Plug-In . SVG Version: 6.00 Build 0)  -->
<svg version="1.1" id="Layer_1" xmlns="http://www.w3.org/2000/svg" xmlns:xlink="http://www.w3.org/1999/xlink" x="0px" y="0px"
	 viewBox="0 0 728 90" style="enable-background:new 0 0 728 90;" xml:space="preserve">
<style type="text/css">
	.st0{fill:#EE4627;}
</style>
<rect x="19.7" y="28" width="2.4" height="2.4"/>
<rect x="19.7" y="32" width="2.4" height="2.4"/>
<rect x="24.1" y="28" width="2.4" height="2.4"/>
<rect x="24.1" y="32" width="2.4" height="2.4"/>
<rect x="15.3" y="28" width="2.4" height="2.4"/>
<rect x="15.3" y="32" width="2.4" height="2.4"/>
<path class="st0" d="M28.1,47.2c0,3.9,3.1,7,6.9,7.1s7-3.1,7.1-6.9c0-3.7-2.8-6.8-6.5-7H15.3v2.4h20c2.5,0.1,4.5,2.2,4.4,4.7
	c-0.1,2.5-2.2,4.5-4.7,4.4c-2.5-0.1-4.4-2.1-4.4-4.6"/>
<path class="st0" d="M24,47.2c0,6.1,4.9,11.1,11,11.1s11.1-4.9,11.1-11c0-5.9-4.6-10.8-10.5-11.1H15.3v2.4h20c4.8,0.1,8.6,4,8.5,8.8
	s-4,8.6-8.8,8.5c-4.7-0.1-8.5-3.9-8.5-8.6"/>
<path class="st0" d="M50.2,47.2c0-8.2-6.5-14.8-14.6-15.1h-6.7v2.4h6.3c7,0.1,12.7,5.8,12.7,12.9C47.8,54.4,42.1,60,35,60
	c-3.3,0-6.4-1.3-8.8-3.6l-1.7,1.7c6,5.8,15.6,5.7,21.4-0.4C48.7,54.9,50.2,51.1,50.2,47.2"/>
<path class="st0" d="M35.5,28L35.5,28C35.3,28,35.6,28,35.5,28h-6.6v2.4h6.5c9.3,0.3,16.6,8.1,16.3,17.4c-0.3,9-7.6,16.2-16.6,16.3
	v2.4c10.6,0.1,19.3-8.4,19.5-19.1S46.1,28.1,35.5,28L35.5,28"/>
<path d="M161.9,46.8v-1.7h-2.9v-1.5h3.7v-1.7h-5.5v7.9h5.5v-1.7h-3.7v-1.4H161.9z M152.7,45.5h-1.3v-1.9h1.3c0.5,0,1,0.3,1,0.8
	c0,0,0,0.1,0,0.1C153.7,45,153.3,45.5,152.7,45.5C152.7,45.5,152.7,45.5,152.7,45.5 M151.3,47.2h0.8l1.2,2.7h2l-1.4-3
	c0.9-0.4,1.5-1.3,1.5-2.3c0-1.4-1.1-2.6-2.6-2.6c-0.1,0-0.2,0-0.3,0h-3v7.9h1.8L151.3,47.2z M144.1,49.9h1.9v-6.3h2.1v-1.7h-6v1.7
	h2.1L144.1,49.9z M134,41.9v8h1.8v-4.1l4.7,4.1h0.1v-8h-1.8v4l-4.7-4.1L134,41.9z M131.3,46.8v-1.7h-2.9v-1.5h3.7v-1.7h-5.5v7.9h5.5
	v-1.7h-3.7v-1.4L131.3,46.8z M125,43.4c-0.8-1-1.9-1.6-3.2-1.6c-2.1-0.1-3.9,1.6-3.9,3.7c0,0.1,0,0.3,0,0.4
	c-0.2,2.1,1.4,3.9,3.5,4.1c0.1,0,0.3,0,0.4,0c1.2,0,2.4-0.5,3.2-1.4l-1-1.2c-0.6,0.5-1.3,0.9-2.1,0.9c-1.3-0.1-2.3-1.3-2.1-2.6
	c0.1-1.1,1-2,2.1-2.1c0.8,0.1,1.5,0.4,2,1L125,43.4z M109.1,44.1c0-0.4,0.4-0.6,0.9-0.6c0.8,0.1,1.5,0.3,2.3,0.6l0.7-1.5
	c-0.9-0.5-2-0.7-3-0.8c-1.3-0.1-2.5,0.8-2.6,2.1c0,0.1,0,0.2,0,0.3c0,1.6,1.4,2.1,2.6,2.4c0.8,0.2,1.4,0.5,1.4,1s-0.5,0.7-1.1,0.7
	c-0.8-0.1-1.6-0.3-2.3-0.7l-0.8,1.5c1,0.6,2,0.9,3.1,0.9c1.7,0,2.9-1.1,2.9-2.5s-1.2-2-2.3-2.4C110,44.8,109.2,44.6,109.1,44.1
	 M104.9,46.8v-1.7h-2.9v-1.5h3.7v-1.7h-5.5v7.9h5.5v-1.7h-3.7v-1.4L104.9,46.8z M98,41.9h-1.8v7.9H98V41.9z M89.4,48.1v-4.6h1.1
	c1.3,0.1,2.2,1.2,2.1,2.4c-0.1,1.1-1,2.1-2.1,2.1H89.4z M90.5,49.8c2,0.1,3.8-1.4,3.9-3.5c0-0.2,0-0.4,0-0.5c0.2-2-1.4-3.8-3.4-4
	c-0.2,0-0.4,0-0.5,0h-2.8v7.9L90.5,49.8z M82.3,48.2c-1.1,0-1.4-1.1-1.4-1.5v-4.8h-1.8v4.8c0,1.8,1.4,3.2,3.2,3.2
	c1.8,0,3.2-1.4,3.2-3.2v-4.8h-1.8v4.8C83.7,47.1,83.4,48.2,82.3,48.2 M73.8,49.8h1.8v-6.2h2.1v-1.7h-6v1.7h2.1L73.8,49.8z
	 M66.6,44.1c0-0.4,0.4-0.6,0.9-0.6c0.8,0.1,1.5,0.3,2.3,0.6l0.7-1.5c-0.9-0.5-2-0.7-3-0.8c-1.3-0.1-2.5,0.8-2.6,2.1
	c0,0.1,0,0.2,0,0.3c0,1.6,1.4,2.1,2.6,2.4c0.7,0.2,1.3,0.5,1.3,1s-0.5,0.7-1.1,0.7c-0.8-0.1-1.6-0.3-2.3-0.7l-0.8,1.5
	c1,0.6,2,0.9,3.1,0.9c1.7,0,2.9-1.1,2.9-2.5s-1.2-2-2.3-2.4C67.5,44.8,66.7,44.6,66.6,44.1"/>
<path d="M149.1,32.5c0-0.4,0.4-0.6,0.9-0.6c0.8,0.1,1.5,0.3,2.3,0.6l0.7-1.5c-0.9-0.5-2-0.7-3-0.8c-1.3-0.1-2.5,0.8-2.6,2.1
	c0,0.1,0,0.2,0,0.3c0,1.6,1.4,2.1,2.6,2.5c0.7,0.2,1.4,0.5,1.4,1s-0.5,0.7-1.1,0.7c-0.8-0.1-1.6-0.3-2.3-0.7l-0.8,1.5
	c1,0.6,2,0.9,3.1,0.9c1.4,0.2,2.8-0.9,2.9-2.3c0,0,0-0.1,0-0.1c0-1.5-1.2-2-2.3-2.4C150,33.2,149.2,33,149.1,32.5 M144.9,35.2v-1.8
	H142V32h3.7v-1.7h-5.5v7.9h5.5v-1.7H142v-1.4L144.9,35.2z M134.9,38.3h1.8V32h2.1v-1.7h-6V32h2.1L134.9,38.3z M128.9,34l0.5,1.3h-1
	L128.9,34z M129,30.3h-0.2l-3.8,8h2l0.7-1.7h2.2l0.7,1.7h2L129,30.3z M121.2,38.3h1.8V32h2v-1.7h-6V32h2.1L121.2,38.3z M113.9,32.5
	c0-0.4,0.4-0.6,0.9-0.6c0.8,0.1,1.5,0.3,2.3,0.6l0.6-1.6c-0.9-0.5-2-0.7-3-0.8c-1.3-0.2-2.5,0.7-2.7,2c0,0.1,0,0.2,0,0.3
	c0,1.6,1.4,2.1,2.6,2.5c0.7,0.2,1.3,0.5,1.3,1s-0.5,0.7-1.1,0.7c-0.8-0.1-1.6-0.3-2.3-0.7l-0.8,1.5c1,0.6,2,0.9,3.1,0.9
	c1.4,0.2,2.8-0.9,2.9-2.3c0,0,0-0.1,0-0.1c0-1.5-1.2-2-2.3-2.4C114.7,33.2,113.9,33,113.9,32.5 M102,36.6V32h1
	c1.2,0,2.1,0.9,2.1,2.1c0,0.1,0,0.1,0,0.2c0.1,1.2-0.8,2.2-1.9,2.3c-0.1,0-0.1,0-0.2,0L102,36.6z M103,38.3c2.1,0.1,3.8-1.4,3.9-3.5
	c0-0.2,0-0.3,0-0.5c0.2-2-1.4-3.8-3.4-4c-0.2,0-0.3,0-0.5,0h-2.8v7.9L103,38.3z M97.5,35.3v-1.8h-2.8V32h3.7v-1.7h-5.5v7.9h5.5v-1.7
	h-3.7v-1.4L97.5,35.3z M87.5,38.2h1.8V32h2.1v-1.7h-6V32h2.1V38.2z M84,30.3h-1.8v7.9H84V30.3z M73.4,30.2v8h1.8v-4.1l4.7,4.1h0.1
	v-8h-1.8v4L73.4,30.2L73.4,30.2z M68.1,36.7c-1.1,0-1.4-1.1-1.4-1.5v-4.8h-1.8v4.8c0,1.8,1.4,3.2,3.2,3.2c1.8,0,3.2-1.4,3.2-3.2
	v-4.8h-1.8v4.8C69.4,35.5,69.1,36.7,68.1,36.7"/>
<path class="st0" d="M111.6,57c0-0.3,0.3-0.5,0.7-0.5c0.6,0.1,1.3,0.2,1.8,0.5l0.5-1.2c-0.8-0.4-1.6-0.6-2.5-0.6
	c-1-0.1-2,0.6-2.1,1.7c0,0.1,0,0.2,0,0.2c0,1.3,1.2,1.7,2.1,2c0.6,0.2,1.1,0.4,1.1,0.8s-0.4,0.5-0.9,0.5c-0.6,0-1.3-0.2-1.8-0.5
	l-0.6,1.3c0.8,0.5,1.6,0.7,2.5,0.7c1.2,0.1,2.2-0.7,2.4-1.9c0,0,0-0.1,0-0.1c0-1.2-1-1.6-1.9-1.9C112.3,57.6,111.7,57.4,111.6,57
	 M106.8,58.2h-1.1v-1.5h1c0.4,0,0.8,0.3,0.8,0.7c0,0,0,0.1,0,0.1C107.5,57.8,107.2,58.2,106.8,58.2
	C106.7,58.2,106.7,58.2,106.8,58.2 M105.6,59.5h0.7l1,2.2h1.6l-1.1-2.4c0.8-0.3,1.3-1.1,1.2-1.9c0-1.2-0.9-2.1-2.1-2.1
	c-0.1,0-0.2,0-0.3,0h-2.5v6.4h1.5L105.6,59.5z M100,58.2l0.4,1h-0.8L100,58.2z M100.1,55.2h-0.2l-3,6.5h1.6l0.6-1.3h1.8l0.6,1.3h1.7
	L100.1,55.2z M90.5,55.2v6.5h1.5v-3.3l3.8,3.4h0.1v-6.5h-1.5v3.2L90.5,55.2L90.5,55.2z M88.7,55.2h-1.5v6.4h1.5L88.7,55.2z
	 M83.7,60.3h-1.1v-1.2h1.1c0.6,0,0.7,0.4,0.7,0.6S84.3,60.3,83.7,60.3 M83.7,57.9h-1.1v-1.2h1.1c0.6,0,0.7,0.5,0.7,0.6
	C84.4,57.6,84.1,57.9,83.7,57.9C83.7,57.9,83.7,57.9,83.7,57.9 M85.8,57.2c0-0.9-0.6-2-2.3-2h-2.4v6.4h2.4c1.8,0,2.3-1.1,2.3-2
	c0-0.5-0.4-1-0.8-1.2C85.5,58.3,85.8,57.8,85.8,57.2 M79,59.2v-1.4h-2.3v-1.2h3v-1.4h-4.5v6.4h4.4v-1.4h-3v-1.1L79,59.2z M69.3,55.2
	l-1.6,3.3l-1.5-3.3h-1.6l3.1,6.5h0.1l1.6-3.2l1.6,3.2h0.1l3.1-6.5h-1.6L71,58.6L69.3,55.2L69.3,55.2z"/>
</svg>
