<svg xmlns="http://www.w3.org/2000/svg" viewBox="0 0 111.69 23.3"><defs><style>.cls-1{fill:#ffede5;}</style></defs><title>freezeaway</title><g id="Layer_2" data-name="Layer 2"><g id="Layer_1-2" data-name="Layer 1"><path class="cls-1" d="M13,.23C12.74,2,12.57,3.12,12.5,3.6q0,.07-.18.06c-.11,0-.15,0-.13-.09a3.44,3.44,0,0,0-.82-2.25A2.7,2.7,0,0,0,9.31.49h-1A4.4,4.4,0,0,0,7.17.6.88.88,0,0,0,6.65,1a4.22,4.22,0,0,0-.3,1.07l-1,5.58H8.05a2.77,2.77,0,0,0,1.71-.45,2.37,2.37,0,0,0,.78-1.48s.05-.08.16-.08a.3.3,0,0,1,.11,0s.06.06,0,.09c-.07.52-.17,1.06-.31,1.65l-.1.56-.39,2.55c0,.07-.07.1-.18.1s-.14,0-.12-.13c0-.27.05-.47.05-.59,0-1.06-.65-1.59-1.93-1.59H5.25l-1,5.53a4.05,4.05,0,0,0-.08.72.91.91,0,0,0,.49.92,4.83,4.83,0,0,0,1.85.23s0,.05,0,.16,0,.15,0,.15l-1,0-2.7,0-1.57,0-1.16,0s0-.05,0-.15,0-.16.05-.16a3.65,3.65,0,0,0,1.15-.13,1,1,0,0,0,.56-.5A3.88,3.88,0,0,0,2.08,14L4.19,2.08a7.24,7.24,0,0,0,.1-.82A.8.8,0,0,0,4,.5,2.36,2.36,0,0,0,2.83.31c-.05,0-.08,0-.08-.16s0-.15.08-.15h10C13,0,13.05.08,13,.23Z"/><path class="cls-1" d="M20.88,6.38a1.07,1.07,0,0,1,.46,1,1.16,1.16,0,0,1-.33.66,1,1,0,0,1-.7.29,1.33,1.33,0,0,1-.92-.46,3.09,3.09,0,0,0-.31-.23.56.56,0,0,0-.33-.1c-.33,0-.72.46-1.19,1.4a23.11,23.11,0,0,0-1.31,3.37,27.18,27.18,0,0,0-.87,3.45.57.57,0,0,1-.38.34,2.47,2.47,0,0,1-.86.13c-.51,0-.77-.06-.77-.18l.13-.54c0-.14.08-.32.13-.56s.1-.51.15-.83l1-5.4a7.21,7.21,0,0,0,.1-.85c0-.55-.17-.82-.51-.82s-.88.33-1.52,1a.1.1,0,0,1-.08,0,.18.18,0,0,1-.12-.26,8.32,8.32,0,0,1,1.6-1.49,2.59,2.59,0,0,1,1.43-.47,1,1,0,0,1,.86.35,1.74,1.74,0,0,1,.27,1.07,7.45,7.45,0,0,1-.13,1.21l-.51,2.93a19,19,0,0,1,1.64-4c.6-1,1.24-1.55,1.91-1.55A1.85,1.85,0,0,1,20.88,6.38Z"/><path class="cls-1" d="M29,6.13a1,1,0,0,1,.51.92c0,.78-.58,1.51-1.74,2.18a12.72,12.72,0,0,1-4.17,1.44,11,11,0,0,0-.11,1.21,4.29,4.29,0,0,0,.67,2.51,2.24,2.24,0,0,0,1.93.94,4.21,4.21,0,0,0,1.23-.2,3.81,3.81,0,0,0,1.19-.6h0a.16.16,0,0,1,.14.08c.05.05.05.09,0,.12a5.68,5.68,0,0,1-3.94,1.65,3.15,3.15,0,0,1-2.57-1,4.13,4.13,0,0,1-.87-2.7,7.17,7.17,0,0,1,.13-1.32,7.07,7.07,0,0,1,1.11-2.63,7,7,0,0,1,2.19-2.07,5.38,5.38,0,0,1,2.82-.8A2.79,2.79,0,0,1,29,6.13ZM27.26,7.41A.8.8,0,0,0,27,6.74a1,1,0,0,0-.69-.23,1.94,1.94,0,0,0-1.63,1,7.28,7.28,0,0,0-1,2.73q3.24-.72,3.55-2.55A2.94,2.94,0,0,0,27.26,7.41Z"/><path class="cls-1" d="M38.06,6.13a1,1,0,0,1,.51.92c0,.78-.58,1.51-1.73,2.18a12.78,12.78,0,0,1-4.18,1.44,11,11,0,0,0-.11,1.21,4.29,4.29,0,0,0,.67,2.51,2.24,2.24,0,0,0,1.93.94,4.28,4.28,0,0,0,1.24-.2,3.87,3.87,0,0,0,1.18-.6h0a.18.18,0,0,1,.15.08c0,.05,0,.09,0,.12a5.66,5.66,0,0,1-3.94,1.65,3.16,3.16,0,0,1-2.57-1,4.13,4.13,0,0,1-.87-2.7,7.17,7.17,0,0,1,.13-1.32,6.93,6.93,0,0,1,1.12-2.63A6.85,6.85,0,0,1,33.8,6.61a5.38,5.38,0,0,1,2.82-.8A2.79,2.79,0,0,1,38.06,6.13ZM36.31,7.41A.82.82,0,0,0,36,6.74a1,1,0,0,0-.7-.23,1.94,1.94,0,0,0-1.63,1,7.28,7.28,0,0,0-1,2.73q3.24-.72,3.55-2.55A2.94,2.94,0,0,0,36.31,7.41Z"/><path class="cls-1" d="M47.75,5.86s.11,0,.18.13.09.14,0,.16l-6.76,7.63.26,0a9,9,0,0,1,1.49.15l1,.18a16.33,16.33,0,0,0,1.88.26,1,1,0,0,0,.68-.25,2,2,0,0,0,.48-.81s0,0,.07,0a.32.32,0,0,1,.16,0s.07,0,0,.09a13.77,13.77,0,0,1-.63,1.84,2,2,0,0,1-.55.77,1.36,1.36,0,0,1-.78.19,8.69,8.69,0,0,1-1.47-.15c-.58-.11-.94-.17-1.1-.18a13.65,13.65,0,0,0-2.52-.36,1.66,1.66,0,0,0-.72.15,2.58,2.58,0,0,0-.69.59h0s-.09-.05-.16-.14-.11-.15-.09-.17l6.78-7.58-.25,0A12.73,12.73,0,0,1,43,8.05a8.3,8.3,0,0,0-1.65-.28,1.1,1.1,0,0,0-.74.24,2.13,2.13,0,0,0-.52.81s-.06.08-.13.08a.17.17,0,0,1-.12-.05.15.15,0,0,1,0-.16,16.38,16.38,0,0,1,.71-1.89,1.53,1.53,0,0,1,.58-.72,1.88,1.88,0,0,1,1-.14,16.12,16.12,0,0,1,2,.33,17.15,17.15,0,0,0,2.29.36A1.66,1.66,0,0,0,47,6.48a2.58,2.58,0,0,0,.69-.59Z"/><path class="cls-1" d="M56,6.13a1,1,0,0,1,.52.92c0,.78-.58,1.51-1.74,2.18a12.69,12.69,0,0,1-4.18,1.44c-.06.55-.1.95-.1,1.21a4.22,4.22,0,0,0,.67,2.51,2.24,2.24,0,0,0,1.93.94,4.26,4.26,0,0,0,1.23-.2,3.81,3.81,0,0,0,1.19-.6h0a.16.16,0,0,1,.14.08c0,.05,0,.09,0,.12a5.68,5.68,0,0,1-3.94,1.65,3.15,3.15,0,0,1-2.57-1,4.13,4.13,0,0,1-.87-2.7,8.08,8.08,0,0,1,.12-1.32,7.26,7.26,0,0,1,1.12-2.63A7,7,0,0,1,51.7,6.61a5.37,5.37,0,0,1,2.81-.8A2.74,2.74,0,0,1,56,6.13ZM54.21,7.41a.8.8,0,0,0-.29-.67,1,1,0,0,0-.69-.23,1.93,1.93,0,0,0-1.63,1,7.28,7.28,0,0,0-1,2.73q3.24-.72,3.54-2.55A1.94,1.94,0,0,0,54.21,7.41Z"/><path class="cls-1" d="M73.25,14.07a.14.14,0,0,1,.12.09c0,.06,0,.1,0,.14a8.8,8.8,0,0,1-1.54,1.5,2.26,2.26,0,0,1-1.34.5,1.06,1.06,0,0,1-.87-.34,1.75,1.75,0,0,1-.28-1.1,5.64,5.64,0,0,1,.1-1.08l.36-2a10.86,10.86,0,0,1-2.43,3.42,4.14,4.14,0,0,1-2.71,1.26,1.6,1.6,0,0,1-1.24-.48A2.09,2.09,0,0,1,63,14.48a8,8,0,0,1,1.11-3.82,12.3,12.3,0,0,1,2.78-3.45A5,5,0,0,1,70,5.81,3,3,0,0,1,71,6a2.25,2.25,0,0,1,.81.5,3,3,0,0,0,.74-.87s.07-.06.1-.06a.42.42,0,0,1,.16,0s.07,0,0,.07l-1.49,8.12a3.56,3.56,0,0,0-.08.65,1.07,1.07,0,0,0,.1.48.33.33,0,0,0,.29.18c.32,0,.82-.33,1.49-1C73.19,14.07,73.21,14.07,73.25,14.07ZM68,13.68a9.27,9.27,0,0,0,1.66-2.52,6.37,6.37,0,0,0,.66-2.52,1.85,1.85,0,0,0-.38-1.25,1.39,1.39,0,0,0-1.11-.45,2.41,2.41,0,0,0-1.59.66A5.41,5.41,0,0,0,65.9,9.4,9.35,9.35,0,0,0,65.12,12a7,7,0,0,0-.1,1.18q0,1.59,1,1.59A2.75,2.75,0,0,0,68,13.68Z"/><path class="cls-1" d="M88.8,8.13a11.16,11.16,0,0,1-.07,1.2,10.15,10.15,0,0,1-1,3.55,8.23,8.23,0,0,1-1.94,2.57,3.43,3.43,0,0,1-2.2,1,2.29,2.29,0,0,1-2.14-1.65,4.22,4.22,0,0,1-3,1.65,2.18,2.18,0,0,1-1.76-.76A3.12,3.12,0,0,1,76,13.6a5.52,5.52,0,0,1,.08-.87,14.62,14.62,0,0,1,1.65-4.14,1.23,1.23,0,0,0,.18-.52c0-.13-.11-.2-.31-.2H76.36a2.36,2.36,0,0,0-1.31.26,1.7,1.7,0,0,0-.62.95c0,.05-.07.07-.16.07a.13.13,0,0,1-.12-.05.1.1,0,0,1,0-.13,13.17,13.17,0,0,1,.71-1.78,1.88,1.88,0,0,1,.73-.83,2.52,2.52,0,0,1,1.21-.24h2.36c.19,0,.29,0,.29.1a.51.51,0,0,1-.08.21c-.38.86-.72,1.75-1,2.69a13.53,13.53,0,0,0-.59,2.37,4.52,4.52,0,0,0-.08.8,2.8,2.8,0,0,0,.5,1.75,1.63,1.63,0,0,0,1.35.64,2.47,2.47,0,0,0,1.65-.77,8.26,8.26,0,0,1-.23-2,15.27,15.27,0,0,1,.2-2.24A8.4,8.4,0,0,1,82,6.93,1.53,1.53,0,0,1,83.25,6c.68,0,1,.52,1,1.57a10.3,10.3,0,0,1-.11,1,12.22,12.22,0,0,1-1.74,4.83,2.6,2.6,0,0,0,2.21,1.26,2.24,2.24,0,0,0,1.41-.56,4.21,4.21,0,0,0,1.15-1.6,5.67,5.67,0,0,0,.45-2.31,2.43,2.43,0,0,0-.21-1.09,4.48,4.48,0,0,0-.64-.94,3.67,3.67,0,0,1-.44-.57A1.15,1.15,0,0,1,86.21,7a1,1,0,0,1,.37-.85,1.45,1.45,0,0,1,.91-.28C88.37,5.89,88.8,6.63,88.8,8.13Zm-7.2,2.28a6,6,0,0,0,.49,2.37,7.9,7.9,0,0,0,.8-1.53,7,7,0,0,0,.44-1.63c0-.28,0-.46,0-.54a1.24,1.24,0,0,0-.2-.77.59.59,0,0,0-.52-.26c-.48,0-.8.43-1,1.28A8.43,8.43,0,0,0,81.6,10.41Z"/><path class="cls-1" d="M100.35,14.07c.05,0,.09,0,.13.09a.12.12,0,0,1,0,.14,8.8,8.8,0,0,1-1.55,1.5,2.23,2.23,0,0,1-1.33.5,1.07,1.07,0,0,1-.88-.34,1.75,1.75,0,0,1-.28-1.1,5.64,5.64,0,0,1,.1-1.08l.36-2a10.55,10.55,0,0,1-2.43,3.42,4.14,4.14,0,0,1-2.71,1.26,1.58,1.58,0,0,1-1.23-.48,2,2,0,0,1-.44-1.45,8,8,0,0,1,1.12-3.82A12.1,12.1,0,0,1,94,7.21a5,5,0,0,1,3.15-1.4,3,3,0,0,1,1,.17,2.09,2.09,0,0,1,.81.5,3,3,0,0,0,.74-.87.15.15,0,0,1,.11-.06.42.42,0,0,1,.15,0s.07,0,0,.07l-1.49,8.12a3.56,3.56,0,0,0-.08.65,1,1,0,0,0,.11.48.31.31,0,0,0,.28.18c.33,0,.82-.33,1.49-1C100.29,14.07,100.31,14.07,100.35,14.07Zm-5.26-.39a9.27,9.27,0,0,0,1.66-2.52,6.41,6.41,0,0,0,.67-2.52A1.85,1.85,0,0,0,97,7.39a1.37,1.37,0,0,0-1.1-.45,2.46,2.46,0,0,0-1.6.66A5.53,5.53,0,0,0,93,9.4,9.36,9.36,0,0,0,92.22,12a7,7,0,0,0-.1,1.18q0,1.59,1,1.59A2.75,2.75,0,0,0,95.09,13.68Z"/><path class="cls-1" d="M111.37,6.33a2.07,2.07,0,0,1,.32,1.23q0,2-2.06,5.82a36.7,36.7,0,0,1-4.7,6.88q-2.66,3-4.35,3c-.91,0-1.36-.37-1.36-1.11a1.91,1.91,0,0,1,0-.28,1.2,1.2,0,0,1,.45-.75,1.46,1.46,0,0,1,.89-.25,3.53,3.53,0,0,1,1,.18,4.31,4.31,0,0,0,.93.15,1.9,1.9,0,0,0,1-.36,8.87,8.87,0,0,0,1.8-1.95V17.74a32.25,32.25,0,0,0-.72-7.74c-.48-1.83-1.14-2.75-2-2.75a1.12,1.12,0,0,0-.65.23,2.1,2.1,0,0,0-.56.62c0,.05-.06.08-.15.08s-.17,0-.15-.16a3.94,3.94,0,0,1,1.26-1.53A2.67,2.67,0,0,1,104,5.91a2.11,2.11,0,0,1,1.75,1.17,9.4,9.4,0,0,1,1.13,3.21,24.24,24.24,0,0,1,.38,4.55c0,.65,0,1.15,0,1.49.68-1.08,1.28-2.12,1.8-3.11a11.65,11.65,0,0,0,1-2.24,4,4,0,0,0,.13-1.05,2.84,2.84,0,0,0-.14-.93,5.57,5.57,0,0,0-.4-.82,3.28,3.28,0,0,1-.3-.59,1.7,1.7,0,0,1-.09-.54,1.06,1.06,0,0,1,.36-.84,1.4,1.4,0,0,1,1-.32A1.06,1.06,0,0,1,111.37,6.33Z"/></g></g></svg>