<svg id="Layer_1" data-name="Layer 1" xmlns="http://www.w3.org/2000/svg" viewBox="0 0 728 90"><defs><style>.cls-1{fill:#fff;}</style></defs><path class="cls-1" d="M410,41.49h-5.51V21.32h8.82c5,0,8,2.36,8,6.88s-3.06,6.86-8,6.86H410Zm3-11c1.94,0,2.87-.87,2.87-2.28S415,25.93,413,25.93h-3v4.55Z"/><path class="cls-1" d="M432.48,31.66a8.17,8.17,0,0,0-1.35-.11,3,3,0,0,0-3.29,3v6.91H422.5V26.66h5.34V28.4a4.32,4.32,0,0,1,3.65-1.82,9.17,9.17,0,0,1,1,.05Z"/><path class="cls-1" d="M433.27,34.05A7.51,7.51,0,0,1,441,26.32c4.67,0,7.22,3.35,7.22,7.7v1.21h-9.75a2.68,2.68,0,0,0,2.67,2.47A2.45,2.45,0,0,0,443.66,36L448,37.33a7.21,7.21,0,0,1-7,4.5A7.37,7.37,0,0,1,433.27,34.05Zm5.28-1.77H443a2,2,0,0,0-2.1-2A2.37,2.37,0,0,0,438.55,32.28Z"/><path class="cls-1" d="M453.18,41.49l-5.25-14.83h5.45L456,34.92l2.52-8.26h5.23l-5.28,14.83Z"/><path class="cls-1" d="M463.41,34.05a7.51,7.51,0,0,1,7.7-7.73c4.66,0,7.22,3.35,7.22,7.7v1.21h-9.75a2.68,2.68,0,0,0,2.67,2.47A2.46,2.46,0,0,0,473.81,36l4.38,1.32a7.22,7.22,0,0,1-7,4.5A7.37,7.37,0,0,1,463.41,34.05Zm5.29-1.77h4.46a2,2,0,0,0-2.11-2A2.36,2.36,0,0,0,468.7,32.28Z"/><path class="cls-1" d="M480.05,26.66h5.33V28a5.52,5.52,0,0,1,4.05-1.72c3,0,5,2.11,5,5.37v9.8h-5.34V33.18c0-1.24-.53-2.14-1.71-2.14a2,2,0,0,0-2,2.16v8.29h-5.33Z"/><path class="cls-1" d="M497.36,31h-1.8V26.66h1.8V22.73h5.25v3.93h2.75V31h-2.75v4.74c0,1.18.56,1.44,1.63,1.44a8.31,8.31,0,0,0,1.21-.09v4.33a17.6,17.6,0,0,1-2.95.22c-3.49,0-5.14-1.23-5.14-4.3Z"/><path class="cls-1" d="M507.39,21.32h5.36v4.16h-5.36Zm5.33,20.17h-5.33V26.66h5.33Z"/><path class="cls-1" d="M522,41.83c-4.53,0-7.64-3.15-7.64-7.75s3.11-7.76,7.64-7.76,7.61,3.15,7.61,7.76S526.52,41.83,522,41.83Zm0-4.3c1.43,0,2.36-1.15,2.36-3.45s-.93-3.46-2.36-3.46-2.39,1.18-2.39,3.46S520.54,37.53,522,37.53Z"/><path class="cls-1" d="M531.3,26.66h5.34V28a5.49,5.49,0,0,1,4-1.72c3,0,5,2.11,5,5.37v9.8h-5.33V33.18c0-1.24-.54-2.14-1.72-2.14a2,2,0,0,0-2,2.16v8.29H531.3Z"/><path class="cls-1" d="M553.52,21.32h5.37v4.16h-5.37Zm5.34,20.17h-5.34V26.66h5.34Z"/><path class="cls-1" d="M562.09,36.15a9.36,9.36,0,0,0,5.2,1.83c1,0,1.74-.25,1.74-.84s-.76-.79-3.17-1.21-5.09-1.12-5.09-4.38,2.92-5.23,6.74-5.23A10.28,10.28,0,0,1,574,28.4l-2.25,3.26a6.89,6.89,0,0,0-4.18-1.55c-.87,0-1.46.26-1.46.79s.76.73,2.5,1c2.81.51,5.65,1.24,5.65,4.58S571.08,41.8,567,41.8c-2.44,0-5.45-.76-6.91-2Z"/><path class="cls-1" d="M405,59.93h-1.8V55.6H405V51.67h5.25V55.6H413v4.33h-2.75v4.74c0,1.18.56,1.44,1.63,1.44a8.31,8.31,0,0,0,1.21-.09v4.33a17.6,17.6,0,0,1-2.95.22c-3.49,0-5.14-1.23-5.14-4.3Z"/><path class="cls-1" d="M415.06,50.26h5.33V57a5.52,5.52,0,0,1,4.05-1.72c3,0,5,2.11,5,5.37v9.8h-5.34V62.12c0-1.24-.53-2.14-1.71-2.14a2,2,0,0,0-2,2.17v8.28h-5.33Z"/><path class="cls-1" d="M431,63a7.51,7.51,0,0,1,7.7-7.73c4.66,0,7.22,3.35,7.22,7.7v1.21h-9.75a2.67,2.67,0,0,0,2.67,2.47A2.45,2.45,0,0,0,441.38,65l4.38,1.32a7.21,7.21,0,0,1-7,4.5A7.37,7.37,0,0,1,431,63Zm5.28-1.77h4.47a2,2,0,0,0-2.11-2A2.38,2.38,0,0,0,436.27,61.22Z"/><path class="cls-1" d="M458.41,69v1.4h-5.34V50.26h5.34V57a4.74,4.74,0,0,1,3.85-1.72c4,0,6.29,3.49,6.29,7.76s-2.27,7.75-6.29,7.75A4.79,4.79,0,0,1,458.41,69Zm0-5.65c0,1.86,1,2.89,2.36,2.89,1.57,0,2.42-1.4,2.42-3.25s-.85-3.26-2.42-3.26c-1.4,0-2.36,1-2.36,2.92Z"/><path class="cls-1" d="M469.51,63a7.51,7.51,0,0,1,7.7-7.73c4.66,0,7.22,3.35,7.22,7.7v1.21h-9.75a2.67,2.67,0,0,0,2.67,2.47A2.47,2.47,0,0,0,479.91,65l4.38,1.32a7.24,7.24,0,0,1-7,4.5A7.37,7.37,0,0,1,469.51,63Zm5.28-1.77h4.47a2,2,0,0,0-2.11-2A2.38,2.38,0,0,0,474.79,61.22Z"/><path class="cls-1" d="M486.82,65.09a9.36,9.36,0,0,0,5.2,1.83c1,0,1.74-.25,1.74-.84s-.76-.79-3.18-1.21-5.08-1.12-5.08-4.38,2.92-5.23,6.74-5.23a10.32,10.32,0,0,1,6.52,2.08l-2.25,3.26a6.89,6.89,0,0,0-4.18-1.54c-.87,0-1.46.25-1.46.78s.75.73,2.5,1c2.8.51,5.64,1.24,5.64,4.58s-3.2,5.28-7.27,5.28c-2.45,0-5.45-.76-6.91-2Z"/><path class="cls-1" d="M501.35,59.93h-1.8V55.6h1.8V51.67h5.25V55.6h2.75v4.33H506.6v4.74c0,1.18.56,1.44,1.63,1.44a8.31,8.31,0,0,0,1.21-.09v4.33a17.68,17.68,0,0,1-2.95.22c-3.49,0-5.14-1.23-5.14-4.3Z"/><path class="cls-1" d="M522.08,70.43h-5.34V55.6h5.34V57a5.33,5.33,0,0,1,4-1.72,4.83,4.83,0,0,1,4.18,2,6.2,6.2,0,0,1,4.61-2c3,0,5,2.11,5,5.37v9.8h-5.34V62.12c0-1.24-.5-2.14-1.68-2.14A1.91,1.91,0,0,0,531,62.15v8.28h-5.34V62.12c0-1.24-.51-2.14-1.69-2.14a1.92,1.92,0,0,0-1.88,2.17Z"/><path class="cls-1" d="M541.53,63a7.51,7.51,0,0,1,7.69-7.73c4.67,0,7.22,3.35,7.22,7.7v1.21H546.7a2.66,2.66,0,0,0,2.66,2.47A2.45,2.45,0,0,0,551.92,65l4.38,1.32a7.21,7.21,0,0,1-7,4.5A7.37,7.37,0,0,1,541.53,63Zm5.28-1.77h4.46a2,2,0,0,0-2.1-2A2.37,2.37,0,0,0,546.81,61.22Z"/><path class="cls-1" d="M557.46,63c0-4.27,2.27-7.76,6.29-7.76A4.74,4.74,0,0,1,567.6,57V50.26h5.34V70.43H567.6V69a4.79,4.79,0,0,1-3.85,1.74C559.73,70.77,557.46,67.29,557.46,63Zm7.78-3.26c-1.57,0-2.42,1.4-2.42,3.26s.85,3.25,2.42,3.25c1.4,0,2.36-1,2.36-2.89v-.7C567.6,60.8,566.64,59.76,565.24,59.76Z"/><path class="cls-1" d="M575.36,50.26h5.36v4.16h-5.36Zm5.33,20.17h-5.33V55.6h5.33Z"/><path class="cls-1" d="M590,66.44c1.24,0,1.94-1,2.17-2.19l4.66,1.58c-.51,2.52-3,4.94-6.88,4.94-4.5,0-7.61-3.18-7.61-7.75s3.11-7.76,7.61-7.76c3.93,0,6.35,2.39,6.85,4.89l-4.63,1.6c-.23-1.23-.93-2.16-2.17-2.16-1.54,0-2.41,1.29-2.41,3.43S588.45,66.44,590,66.44Z"/><path class="cls-1" d="M598.23,50.26h5.36v4.16h-5.36Zm5.34,20.17h-5.34V55.6h5.34Z"/><path class="cls-1" d="M606,55.6h5.33V57a5.52,5.52,0,0,1,4.05-1.72c3,0,5,2.11,5,5.37v9.8H615V62.12c0-1.24-.53-2.14-1.71-2.14a2,2,0,0,0-2,2.17v8.28H606Z"/><path class="cls-1" d="M621.89,63a7.51,7.51,0,0,1,7.69-7.73c4.67,0,7.22,3.35,7.22,7.7v1.21h-9.74a2.66,2.66,0,0,0,2.66,2.47A2.45,2.45,0,0,0,632.28,65l4.38,1.32a7.21,7.21,0,0,1-7,4.5A7.37,7.37,0,0,1,621.89,63Zm5.28-1.77h4.46a2,2,0,0,0-2.1-2A2.37,2.37,0,0,0,627.17,61.22Z"/></svg>