<svg id="Layer_1" data-name="Layer 1" xmlns="http://www.w3.org/2000/svg" xmlns:xlink="http://www.w3.org/1999/xlink" viewBox="0 0 728 90"><defs><style>.cls-1{fill:none;}.cls-2{clip-path:url(#clip-path);}.cls-3{clip-path:url(#clip-path-3);}.cls-4{clip-path:url(#clip-path-4);}.cls-5{clip-path:url(#clip-path-5);}.cls-6{clip-path:url(#clip-path-7);}.cls-7{clip-path:url(#clip-path-8);}.cls-8{clip-path:url(#clip-path-9);}.cls-9{fill:#221e1f;}</style><clipPath id="clip-path"><rect class="cls-1" x="-3740" width="728" height="90"/></clipPath><clipPath id="clip-path-3"><rect class="cls-1" x="-3305.01" y="30.56" width="59.44" height="59.08"/></clipPath><clipPath id="clip-path-4"><rect class="cls-1" x="-36508" y="-32677" width="65535" height="65535"/></clipPath><clipPath id="clip-path-5"><rect class="cls-1" x="-748" width="728" height="90"/></clipPath><clipPath id="clip-path-7"><rect class="cls-1" x="-313.01" y="30.56" width="59.44" height="59.08"/></clipPath><clipPath id="clip-path-8"><rect class="cls-1" x="-33516" y="-32677" width="65535" height="65535"/></clipPath><clipPath id="clip-path-9"><rect class="cls-1" width="728" height="90"/></clipPath></defs><g class="cls-8"><path class="cls-9" d="M56.48,54.9V40.2H50V36H68.12v4.2H61.55V54.9Z"/><path class="cls-9" d="M74.9,54.9H70V36H74.9v7.53a4.58,4.58,0,0,1,4.32-2.37c3.66,0,4.83,2.55,4.83,5.34v8.4H79.19V47.79c0-1.83-.51-2.79-2-2.79-1.65,0-2.31,1.32-2.31,3.33Z"/><path class="cls-9" d="M99.71,50.49C99,53.55,96.56,55.26,93,55.26c-4.29,0-7.35-2.58-7.35-6.84A7.05,7.05,0,0,1,93,41.16c4.47,0,6.84,3.06,6.84,6.69V49.2H90.41a2.54,2.54,0,0,0,2.79,2.43,2.49,2.49,0,0,0,2.61-1.5Zm-4.53-3.63a2.19,2.19,0,0,0-2.28-2.22,2.29,2.29,0,0,0-2.43,2.22Z"/><path class="cls-9" d="M110.63,54.9h-3.75V36h4.86v7.83a4.45,4.45,0,0,1,4.41-2.67c3.93,0,5.94,3.12,5.94,7.05s-2,7-6,7a4.84,4.84,0,0,1-4.59-2.67Zm1.11-6.6c0,2,1.05,3.21,2.7,3.21,1.89,0,2.76-1.35,2.76-3.3s-.87-3.27-2.76-3.27c-1.65,0-2.7,1.26-2.7,3.18Z"/><path class="cls-9" d="M123.83,36h4.92v4.26h-4.92Zm4.89,5.52V54.9h-4.86V41.52Z"/><path class="cls-9" d="M136.07,36V54.9h-4.86V36Z"/><path class="cls-9" d="M143.42,36V54.9h-4.86V36Z"/><path class="cls-9" d="M145.49,49.74h5.16V54.9h-5.16Z"/></g></svg>