<?xml version="1.0" encoding="utf-8"?>
<!-- Generator: Adobe Illustrator 26.0.3, SVG Export Plug-In . SVG Version: 6.00 Build 0)  -->
<svg version="1.1" id="Layer_1" xmlns="http://www.w3.org/2000/svg" xmlns:xlink="http://www.w3.org/1999/xlink" x="0px" y="0px"
	 viewBox="0 0 300 250" style="enable-background:new 0 0 300 250;" xml:space="preserve">
<style type="text/css">
	.st0{fill:#CDFFFF;}
</style>
<g>
	<g>
		<path class="st0" d="M46.8,73h-6.9v-4.4h18.9V73h-6.9v19.3h-5.1V73z"/>
		<path class="st0" d="M66.2,74.7c5.1,0,8.6,3.8,8.6,9.4v1H62.1c0.3,2.4,2.5,4.2,4.9,4c1.7,0,3.3-0.6,4.6-1.7l2,2.9
			c-2,1.6-4.5,2.5-7.1,2.4c-5.2,0-9.2-3.5-9.2-9c-0.2-4.8,3.6-8.9,8.4-9C65.9,74.7,66.1,74.7,66.2,74.7z M62,82.1h8.4
			c-0.1-2.2-2-3.9-4.2-3.8c0,0,0,0,0,0C64,78.2,62.2,79.9,62,82.1z"/>
		<path class="st0" d="M102.2,88.2H91.7l-1.5,4.1h-5.5l9.2-23.7h6.3l9.1,23.7h-5.5L102.2,88.2z M93,83.8h7.8L97,73L93,83.8z"/>
		<path class="st0" d="M122.9,81.9c0-2.4-1.2-3.2-3.2-3.2c-1.5,0-3,0.8-3.9,2v11.6h-4.5V75.1h4.5v2.2c1.5-1.7,3.7-2.7,6-2.7
			c3.8,0,5.6,2.1,5.6,5.5v12.1h-4.5V81.9z"/>
		<path class="st0" d="M142.2,90.5c-1.4,1.5-3.4,2.3-5.4,2.2c-3.1,0.2-5.8-2.3-6-5.4c0-0.1,0-0.2,0-0.3c0-4,3.2-5.5,6-5.5
			c2-0.1,4,0.6,5.4,2.1v-2.4c0-1.7-1.5-2.9-3.8-2.9c-1.9,0-3.7,0.7-5,2l-1.7-3c2.1-1.8,4.8-2.7,7.5-2.7c3.9,0,7.5,1.6,7.5,6.5v11.1
			h-4.5V90.5z M142.2,86c-0.9-1-2.2-1.6-3.6-1.5c-1.8,0-3.2,0.9-3.2,2.6s1.4,2.5,3.2,2.5c1.4,0.1,2.7-0.5,3.6-1.5V86z"/>
		<path class="st0" d="M162.8,90.1c-1.5,1.7-3.7,2.6-6,2.6c-3.8,0-5.5-2.1-5.5-5.4V75.1h4.5v10.4c0,2.4,1.2,3.2,3.2,3.2
			c1.5,0,3-0.8,3.9-2V75.1h4.5v17.2h-4.5L162.8,90.1z"/>
	</g>
</g>
</svg>
