<?xml version="1.0" encoding="utf-8"?>
<!-- Generator: Adobe Illustrator 26.0.3, SVG Export Plug-In . SVG Version: 6.00 Build 0)  -->
<svg version="1.1" id="Layer_1" xmlns="http://www.w3.org/2000/svg" xmlns:xlink="http://www.w3.org/1999/xlink" x="0px" y="0px"
	 viewBox="0 0 300 250" style="enable-background:new 0 0 300 250;" xml:space="preserve">
<style type="text/css">
	.st0{fill:#CDBBFF;}
</style>
<g>
	<g>
		<path class="st0" d="M41.7,98.8c1.5,1.6,3.7,2.5,5.9,2.5c2.2,0,3.2-1,3.2-2.1c0-1.4-1.6-1.9-3.8-2.4c-3-0.7-6.9-1.5-6.9-5.7
			c0-3.1,2.7-5.6,7-5.6c2.7-0.1,5.3,0.8,7.2,2.6L52.2,91c-1.5-1.3-3.4-2-5.3-2c-1.8,0-2.7,0.8-2.7,1.9s1.6,1.6,3.7,2.1
			c3.1,0.7,7,1.6,7,5.7c0,3.4-2.4,6-7.4,6c-2.9,0.1-5.8-0.9-7.9-2.9L41.7,98.8z"/>
		<path class="st0" d="M56.6,97.7c0-3.9,3.1-7.1,7.1-7.2c3.9,0,7.1,3.1,7.2,7.1c0,3.9-3.1,7.1-7.1,7.2c0,0,0,0-0.1,0
			c-3.8,0.2-6.9-2.8-7.1-6.5C56.6,98,56.6,97.9,56.6,97.7z M67.2,97.7c0-2.1-1.2-3.9-3.5-3.9s-3.4,1.8-3.4,3.9s1.2,3.9,3.4,3.9
			S67.2,99.8,67.2,97.7z"/>
		<path class="st0" d="M82.5,102.7c-1.2,1.3-2.9,2-4.7,2c-3,0-4.3-1.6-4.3-4.2V91H77v8.2c-0.2,1.2,0.6,2.3,1.8,2.5
			c0.2,0,0.5,0,0.7,0c1.2,0,2.3-0.6,3.1-1.5V91h3.5v13.4h-3.6V102.7z"/>
		<path class="st0" d="M98.7,96.3c0.2-1.2-0.6-2.3-1.8-2.5c-0.2,0-0.4,0-0.7,0c-1.2,0-2.3,0.6-3.1,1.6v9.1h-3.5V91h3.5v1.8
			c1.2-1.4,2.9-2.1,4.7-2.1c3,0,4.4,1.7,4.4,4.3v9.5h-3.5V96.3z"/>
		<path class="st0" d="M114.9,102.7c-1,1.3-2.5,2.1-4.2,2.1c-3.4,0-6-2.6-6-7s2.5-7.1,6-7.1c1.6,0,3.2,0.8,4.2,2.1v-6.9h3.6v18.6
			h-3.6V102.7z M114.9,95.3c-0.7-1-1.9-1.5-3.1-1.5c-2,0-3.4,1.6-3.4,3.9s1.4,3.9,3.4,3.9c1.2,0,2.3-0.6,3.1-1.5V95.3z"/>
		<path class="st0" d="M123.8,100.2c1.2,0,2.3,1,2.3,2.2c0,1.2-1,2.3-2.2,2.3c-1.2,0-2.3-1-2.3-2.2c0,0,0,0,0,0
			C121.6,101.2,122.6,100.2,123.8,100.2z"/>
	</g>
</g>
</svg>
