<?xml version="1.0" encoding="utf-8"?>
<!-- Generator: Adobe Illustrator 26.0.3, SVG Export Plug-In . SVG Version: 6.00 Build 0)  -->
<svg version="1.1" id="Layer_1" xmlns="http://www.w3.org/2000/svg" xmlns:xlink="http://www.w3.org/1999/xlink" x="0px" y="0px"
	 viewBox="0 0 300 250" style="enable-background:new 0 0 300 250;" xml:space="preserve">
<style type="text/css">
	.st0{fill:#CDBBFF;}
</style>
<g>
	<g>
		<path class="st0" d="M57,66l-5.2,13.3H50L44.8,66v13.3h-4V60.7h5.5l4.5,11.6l4.5-11.6H61v18.6h-4V66z"/>
		<path class="st0" d="M64.2,61.8c0-1.2,1-2.1,2.1-2.1c1.2,0,2.1,1,2.1,2.1c0,1.2-0.9,2.1-2.1,2.1C65.2,63.9,64.2,62.9,64.2,61.8z
			 M64.6,65.9h3.5v13.4h-3.5V65.9z"/>
		<path class="st0" d="M71.6,60.7h3.5v18.6h-3.5V60.7z"/>
		<path class="st0" d="M79.4,69h-2.2v-3.1h2.2v-0.7c-0.2-2.4,1.6-4.5,4-4.7c0.2,0,0.4,0,0.6,0c0.9,0,1.8,0.2,2.6,0.6l-0.7,2.5
			c-0.3-0.2-0.7-0.3-1.1-0.3c-1,0-1.7,0.7-1.7,2v0.7h2.7V69H83v10.3h-3.6V69z"/>
		<path class="st0" d="M86.9,72.6c0-3.9,3.1-7.1,7.1-7.2c3.9,0,7.1,3.1,7.2,7.1c0,3.9-3.1,7.1-7.1,7.2c0,0,0,0-0.1,0
			c-3.8,0.2-6.9-2.8-7.1-6.5C86.9,73,86.9,72.8,86.9,72.6z M97.5,72.6c0-2.1-1.2-3.9-3.4-3.9s-3.4,1.8-3.4,3.9s1.2,3.9,3.4,3.9
			S97.4,74.7,97.5,72.6z"/>
		<path class="st0" d="M103.7,65.9h3.5v1.8c1.1-1.3,2.6-2.1,4.3-2.1V69c-0.3-0.1-0.7-0.1-1-0.1c-1.3,0-2.5,0.6-3.3,1.5v8.9h-3.5
			L103.7,65.9z"/>
		<path class="st0" d="M123,77.6c-1,1.3-2.5,2.1-4.2,2.1c-3.4,0-6-2.6-6-7.1s2.5-7.1,6-7.1c1.6,0,3.2,0.8,4.2,2.1v-6.8h3.6v18.6H123
			V77.6z M123,70.2c-0.7-0.9-1.8-1.5-3-1.5c-2,0-3.4,1.6-3.4,3.9s1.4,3.9,3.4,3.9c1.2,0,2.3-0.6,3-1.5V70.2z"/>
		<path class="st0" d="M153.2,79.3h-4.5c-0.4-0.4-0.9-0.9-1.4-1.4c-1.4,1.1-3.2,1.7-5,1.7c-3.4,0-6.2-1.8-6.2-5.4
			c0-2.8,1.9-4.3,4-5.4c-0.7-1.2-1.1-2.6-1.2-4c0-2.5,2.2-4.5,5.3-4.5c2.6,0,4.9,1.5,4.9,3.9c0,2.8-2.3,4-4.6,5.1
			c0.6,0.8,1.1,1.4,1.6,2s1.1,1.3,1.6,1.9c0.7-1.1,1.3-2.3,1.7-3.6l2.8,1.3c-0.7,1.6-1.6,3.1-2.6,4.5
			C150.8,76.8,151.9,78,153.2,79.3z M145.4,75.9c-0.8-0.9-1.6-1.8-2.1-2.3c-0.6-0.8-1.2-1.6-1.9-2.4c-1,0.6-1.6,1.7-1.6,2.8
			c-0.1,1.6,1.1,2.9,2.7,2.9c0.1,0,0.1,0,0.2,0C143.7,76.8,144.6,76.5,145.4,75.9z M143.2,67.5c1.6-0.7,2.8-1.5,2.8-2.9
			c0-0.8-0.6-1.5-1.4-1.6c-0.1,0-0.1,0-0.2,0c-1.1,0-2,0.8-2,1.8c0,0.1,0,0.1,0,0.2C142.5,65.9,142.7,66.7,143.2,67.5z"/>
		<path class="st0" d="M162.4,60.7h7.3c5.8,0,9.9,3.7,9.9,9.3s-4,9.3-9.9,9.3h-7.3V60.7z M169.7,75.8c3.1,0.2,5.7-2.2,5.8-5.3
			c0-0.2,0-0.4,0-0.6c0-3.3-2-5.8-5.8-5.8h-3.4v11.7H169.7z"/>
		<path class="st0" d="M181.5,72.6c0-3.9,3.1-7.1,7.1-7.2c3.9,0,7.1,3.1,7.2,7.1s-3.1,7.1-7.1,7.2c0,0,0,0-0.1,0
			c-3.8,0.2-6.9-2.8-7.1-6.5C181.5,73,181.5,72.8,181.5,72.6z M192,72.6c0-2.1-1.2-3.9-3.4-3.9s-3.4,1.8-3.4,3.9s1.2,3.9,3.4,3.9
			S192,74.7,192,72.6L192,72.6z"/>
		<path class="st0" d="M207.4,77.6c-1.2,1.3-2.9,2-4.7,2c-2.9,0-4.4-1.6-4.4-4.2v-9.5h3.5V74c-0.2,1.2,0.6,2.3,1.8,2.5
			c0.2,0,0.5,0,0.7,0c1.2,0,2.3-0.6,3.1-1.5v-9.1h3.5v13.4h-3.5V77.6z"/>
		<path class="st0" d="M214.4,60.7h3.6v6.9c1-1.3,2.5-2.1,4.1-2.1c3.4,0,6,2.7,6,7.1s-2.6,7.1-6,7.1c-1.6,0-3.2-0.8-4.1-2.1v1.7
			h-3.5L214.4,60.7z M221,76.5c2.1,0,3.4-1.6,3.4-3.9s-1.4-3.9-3.4-3.9c-1.2,0-2.3,0.6-3,1.6V75C218.7,75.9,219.8,76.5,221,76.5z"/>
		<path class="st0" d="M231.4,76v-7h-2.2v-3.1h2.2v-3.7h3.6v3.7h2.7V69H235v6c0,0.8,0.4,1.5,1.2,1.5c0.4,0,0.9-0.1,1.2-0.4l0.8,2.7
			c-0.8,0.6-1.9,0.9-2.9,0.9C232.8,79.7,231.4,78.4,231.4,76z"/>
		<path class="st0" d="M241,69h-2.2v-3.1h2.2v-0.7c-0.2-2.4,1.6-4.5,4-4.7c0.2,0,0.4,0,0.6,0c0.9,0,1.8,0.2,2.6,0.6l-0.7,2.5
			c-0.4-0.2-0.7-0.3-1.1-0.3c-1,0-1.7,0.7-1.7,2v0.7h2.7V69h-2.7v10.3H241V69z"/>
		<path class="st0" d="M258.4,77.6c-1.2,1.3-2.9,2-4.7,2c-3,0-4.4-1.6-4.4-4.2v-9.5h3.5V74c-0.2,1.2,0.6,2.3,1.8,2.5
			c0.2,0,0.5,0,0.7,0c1.2,0,2.3-0.6,3.1-1.5v-9.1h3.5v13.4h-3.5V77.6z"/>
		<path class="st0" d="M265.4,60.7h3.5v18.6h-3.5V60.7z"/>
	</g>
</g>
</svg>
