<?xml version="1.0" encoding="utf-8"?>
<!-- Generator: Adobe Illustrator 26.0.3, SVG Export Plug-In . SVG Version: 6.00 Build 0)  -->
<svg version="1.1" id="Layer_1" xmlns="http://www.w3.org/2000/svg" xmlns:xlink="http://www.w3.org/1999/xlink" x="0px" y="0px"
	 viewBox="0 0 300 250" style="enable-background:new 0 0 300 250;" xml:space="preserve">
<style type="text/css">
	.st0{fill:#FFFFFF;}
</style>
<g>
	<g>
		<path class="st0" d="M49.8,77.6c-1.2,1.3-2.9,2-4.7,2c-3,0-4.3-1.6-4.3-4.2v-9.5h3.5V74c-0.2,1.2,0.6,2.3,1.8,2.5
			c0.2,0,0.5,0,0.7,0c1.2,0,2.3-0.6,3.1-1.5v-9.1h3.5v13.4h-3.5V77.6z"/>
		<path class="st0" d="M66,71.2c0.2-1.2-0.6-2.3-1.8-2.5c-0.2,0-0.4,0-0.7,0c-1.2,0-2.3,0.6-3.1,1.6v9h-3.6V65.9h3.5v1.8
			c1.2-1.4,2.9-2.1,4.7-2.1c2.9,0,4.4,1.7,4.4,4.3v9.5H66V71.2z"/>
		<path class="st0" d="M73,65.9h3.5v1.8c1-1.3,2.6-2.1,4.3-2.1V69c-0.3-0.1-0.7-0.1-1-0.1c-1.3,0-2.5,0.6-3.3,1.5v8.9H73V65.9z"/>
		<path class="st0" d="M89.1,65.5c4,0,6.7,3,6.7,7.4v0.8h-10c0.3,1.9,2,3.3,3.9,3.1c1.3,0,2.6-0.5,3.6-1.3l1.6,2.3
			c-1.6,1.3-3.5,1.9-5.5,1.9c-3.9,0.1-7.1-3-7.2-6.9S85.2,65.6,89.1,65.5L89.1,65.5z M85.8,71.3h6.6c-0.1-1.7-1.5-3.1-3.2-3
			c0,0-0.1,0-0.1,0C87.4,68.3,85.9,69.6,85.8,71.3z"/>
		<path class="st0" d="M106.5,77.9c-1.1,1.2-2.7,1.8-4.3,1.7c-2.5,0.1-4.6-1.8-4.7-4.3c0-0.1,0-0.1,0-0.2c0-3.2,2.5-4.3,4.7-4.3
			c1.6-0.1,3.2,0.5,4.3,1.7v-1.9c0-1.4-1.2-2.3-3-2.3c-1.4,0-2.8,0.6-3.9,1.6l-1.3-2.4c1.6-1.4,3.7-2.2,5.9-2.1
			c3.1,0,5.9,1.2,5.9,5.1v8.7h-3.5V77.9z M106.5,74.4c-0.7-0.8-1.8-1.2-2.8-1.2c-1.4,0-2.5,0.7-2.5,2s1.1,2,2.5,2
			c1.1,0.1,2.1-0.4,2.8-1.2V74.4z"/>
		<path class="st0" d="M119.8,65.5c2.1-0.1,4.1,0.8,5.3,2.5l-2.3,2.2c-0.6-1-1.7-1.5-2.8-1.5c-2.2,0.2-3.8,2-3.6,4.2
			c0.1,1.9,1.7,3.5,3.6,3.6c1.1,0,2.2-0.5,2.8-1.4l2.3,2.2c-1.3,1.7-3.2,2.6-5.3,2.4c-3.9,0-7.1-3.2-7.1-7.1
			C112.8,68.7,115.9,65.5,119.8,65.5L119.8,65.5z"/>
		<path class="st0" d="M136.6,71.1c0-1.9-1-2.4-2.5-2.4c-1.2,0-2.3,0.6-3,1.6v9h-3.5V60.7h3.5v6.9c1.2-1.4,2.9-2.1,4.7-2.1
			c3,0,4.4,1.6,4.4,4.2v9.6h-3.5L136.6,71.1z"/>
		<path class="st0" d="M151.7,77.9c-1.1,1.2-2.7,1.8-4.3,1.7c-2.5,0.1-4.6-1.8-4.7-4.3c0-0.1,0-0.1,0-0.2c0-3.2,2.5-4.3,4.7-4.3
			c1.6-0.1,3.2,0.5,4.3,1.7v-1.9c0-1.4-1.2-2.3-2.9-2.3c-1.5,0-2.9,0.6-3.9,1.6l-1.3-2.4c1.6-1.4,3.7-2.2,5.9-2.1
			c3.1,0,5.9,1.2,5.9,5.1v8.7h-3.5V77.9z M151.7,74.4c-0.7-0.8-1.8-1.2-2.8-1.2c-1.4,0-2.5,0.7-2.5,2s1.1,2,2.5,2
			c1.1,0.1,2.1-0.4,2.8-1.2V74.4z"/>
		<path class="st0" d="M158.7,60.7h3.5v6.9c1-1.3,2.5-2.1,4.1-2.1c3.4,0,6,2.7,6,7.1s-2.6,7.1-6,7.1c-1.6,0-3.2-0.8-4.1-2.1v1.7
			h-3.5V60.7z M165.3,76.5c2.1,0,3.4-1.6,3.4-3.9s-1.4-3.9-3.4-3.9c-1.2,0-2.3,0.6-3,1.6V75C163,75.9,164.1,76.5,165.3,76.5
			L165.3,76.5z"/>
		<path class="st0" d="M175,60.7h3.5v18.6H175V60.7z"/>
		<path class="st0" d="M188.2,65.5c4,0,6.7,3,6.7,7.4v0.8h-10c0.3,1.9,2,3.3,3.9,3.1c1.3,0,2.6-0.5,3.6-1.3l1.6,2.3
			c-1.6,1.3-3.5,1.9-5.5,1.9c-3.9,0.1-7.1-3.1-7.2-7C181.2,68.8,184.3,65.6,188.2,65.5z M184.9,71.3h6.6c-0.1-1.7-1.5-3.1-3.2-3
			c0,0-0.1,0-0.1,0C186.4,68.3,185,69.6,184.9,71.3L184.9,71.3z"/>
	</g>
</g>
</svg>
