<?xml version="1.0" encoding="utf-8"?>
<!-- Generator: Adobe Illustrator 26.0.3, SVG Export Plug-In . SVG Version: 6.00 Build 0)  -->
<svg version="1.1" id="Layer_1" xmlns="http://www.w3.org/2000/svg" xmlns:xlink="http://www.w3.org/1999/xlink" x="0px" y="0px"
	 viewBox="0 0 300 250" style="enable-background:new 0 0 300 250;" xml:space="preserve">
<style type="text/css">
	.st0{clip-path:url(#SVGID_00000134222629068745749720000011939228496583971723_);}
	.st1{fill:#FFFFFF;}
	.st2{fill:#80919E;}
</style>
<g>
	<g>
		<g>
			<defs>
				<rect id="SVGID_1_" width="300" height="250"/>
			</defs>
			<clipPath id="SVGID_00000109030909296042678990000009267516546682995621_">
				<use xlink:href="#SVGID_1_"  style="overflow:visible;"/>
			</clipPath>
			<g style="clip-path:url(#SVGID_00000109030909296042678990000009267516546682995621_);">
				<path class="st1" d="M54.8,139.4c-8.7,0-15.8,7.1-15.8,15.8c0,8.7,7.1,15.8,15.8,15.8h73.4c8.7,0,15.8-7.1,15.8-15.8
					c0-8.7-7.1-15.8-15.8-15.8H54.8z"/>
			</g>
		</g>
		<path class="st2" d="M53.7,149H59c2,0,3.7,1.6,3.7,3.7s-1.6,3.7-3.7,3.7h-2.9v4.1h-2.4V149z M58.7,151.1h-2.6v3.1h2.6
			c0.9,0.1,1.6-0.6,1.7-1.4c0.1-0.9-0.6-1.6-1.4-1.7C58.9,151.1,58.8,151.1,58.7,151.1L58.7,151.1z"/>
		<path class="st2" d="M64.3,149h2.2v11.4h-2.2V149z"/>
		<path class="st2" d="M73.6,159.5c-0.7,0.7-1.6,1.1-2.6,1.1c-1.5,0.1-2.8-1.1-2.9-2.6c0,0,0-0.1,0-0.1c0-1.4,1.2-2.6,2.6-2.6
			c0.1,0,0.2,0,0.3,0c1-0.1,1.9,0.3,2.6,1v-1.1c0-0.8-0.7-1.4-1.8-1.4c-0.9,0-1.8,0.4-2.4,1l-0.8-1.4c1-0.9,2.3-1.3,3.6-1.3
			c1.9,0,3.6,0.8,3.6,3.1v5.3h-2.2V159.5z M73.6,157.4c-0.4-0.5-1.1-0.8-1.7-0.7c-0.9,0-1.6,0.4-1.6,1.2s0.7,1.2,1.6,1.2
			c0.7,0,1.3-0.2,1.7-0.7V157.4z"/>
		<path class="st2" d="M83.5,155.4c0.1-0.7-0.4-1.4-1.1-1.5c-0.1,0-0.3,0-0.4,0c-0.8,0-1.5,0.4-1.9,1v5.6h-2.2v-8.3h2.2v1.1
			c0.7-0.8,1.8-1.3,2.9-1.3c1.3-0.2,2.5,0.8,2.7,2.1c0,0.2,0,0.4,0,0.6v5.8h-2.2V155.4z"/>
		<path class="st2" d="M94.7,152.7v7.7h-2.4V149h2.5l5.3,7.4V149h2.4v11.4h-2.3L94.7,152.7z"/>
		<path class="st2" d="M104.2,156.2c0-2.4,1.9-4.4,4.3-4.4c2.4,0,4.4,1.9,4.4,4.3c0,2.4-1.9,4.4-4.3,4.4c0,0,0,0,0,0
			c-2.3,0.1-4.3-1.7-4.4-4C104.2,156.5,104.2,156.4,104.2,156.2z M110.7,156.2c-0.2-1.2-1.2-2-2.4-1.8c-1.2,0.2-2,1.2-1.8,2.4
			c0.1,1.1,1,1.8,2.1,1.8c1.2,0,2.2-1,2.1-2.2C110.7,156.4,110.7,156.3,110.7,156.2z"/>
		<path class="st2" d="M120,154.8l-1.8,5.6H116l-2.5-8.3h2.3l1.5,5.6l1.8-5.6h1.9l1.8,5.6l1.5-5.6h2.3l-2.5,8.3h-2.3L120,154.8z"/>
		<path class="st2" d="M128.2,157.8c0.8-0.1,1.4,0.5,1.5,1.3c0.1,0.8-0.5,1.4-1.3,1.5c-0.1,0-0.2,0-0.2,0c-0.8-0.1-1.3-0.7-1.3-1.5
			C127,158.4,127.5,157.8,128.2,157.8z"/>
	</g>
</g>
</svg>
