<svg xmlns="http://www.w3.org/2000/svg" viewBox="0 0 140 134.16"><defs><style>.cls-1{fill:#fbd703;}.cls-2{fill:#010101;}</style></defs><title>txt1160</title><g id="Layer_2" data-name="Layer 2"><g id="Layer_1-2" data-name="Layer 1"><polygon class="cls-1" points="0 0 0 125.67 49.34 125.67 49.34 125.9 69.86 134.16 90.55 125.9 90.55 125.67 140 125.67 140 0 0 0"/><path class="cls-2" d="M22.43,33.72V21.83H20.27v-2h6.14a22.88,22.88,0,0,1,3.92.26A6.78,6.78,0,0,1,33,21.29a6.53,6.53,0,0,1,2.06,2.54,8.45,8.45,0,0,1,.77,3.67,10.44,10.44,0,0,1-.74,4.09,6,6,0,0,1-1.95,2.59,7.46,7.46,0,0,1-2.86,1.19A22.37,22.37,0,0,1,26,35.7H20.27v-2Zm2.39,0h1.26a16.9,16.9,0,0,0,3.32-.26,5.29,5.29,0,0,0,2.07-.9,4.35,4.35,0,0,0,1.37-1.91,7.86,7.86,0,0,0,.53-3,6.66,6.66,0,0,0-.87-3.5,4,4,0,0,0-2.2-1.88,14.36,14.36,0,0,0-4.12-.43H24.82Z"/><path class="cls-2" d="M49.52,30.73H40.24a4,4,0,0,0,1.21,2.48,3.59,3.59,0,0,0,2.57.94,4.21,4.21,0,0,0,3.59-1.82l1.91.84a5.72,5.72,0,0,1-2.43,2.15A7.18,7.18,0,0,1,44,36a6.3,6.3,0,0,1-4.33-1.58,5.4,5.4,0,0,1-1.79-4.26A5.47,5.47,0,0,1,39.6,26a5.66,5.66,0,0,1,4-1.64,5.93,5.93,0,0,1,4,1.6A6.23,6.23,0,0,1,49.52,30.73Zm-2.23-1.57a4,4,0,0,0-1.21-2.11,3.38,3.38,0,0,0-2.41-.94,3.21,3.21,0,0,0-2.22.85,3.69,3.69,0,0,0-1.13,2.2Z"/><path class="cls-2" d="M61.68,24.66v4.18H59.74a2.63,2.63,0,0,0-1-1.84,3.11,3.11,0,0,0-1.93-.64,3,3,0,0,0-2.37,1,4,4,0,0,0-.91,2.7,4.56,4.56,0,0,0,.87,2.76,2.91,2.91,0,0,0,2.51,1.19,3.42,3.42,0,0,0,3.3-2.17l1.79.85A5.24,5.24,0,0,1,56.84,36a5.08,5.08,0,0,1-4.12-1.79,6.19,6.19,0,0,1-1.51-4.13A5.58,5.58,0,0,1,52.85,26a5.25,5.25,0,0,1,3.79-1.62,4.61,4.61,0,0,1,3.1,1.08v-.78Z"/><path class="cls-2" d="M65,33.78v-12H63V19.84h4.12V33.78h1.69V35.7H63V33.78Z"/><path class="cls-2" d="M82.3,33.78V35.7H78.23V34.44a6.15,6.15,0,0,1-3.65,1.45,3.24,3.24,0,0,1-1.83-.49,2.28,2.28,0,0,1-1-1.25,9.18,9.18,0,0,1-.24-2.48V26.59H70V24.66h3.73v6.73A11.58,11.58,0,0,0,73.78,33a1.07,1.07,0,0,0,.4.7A1.27,1.27,0,0,0,75,34a5.14,5.14,0,0,0,3.22-1.43v-6h-2V24.66h4.11v9.12Z"/><path class="cls-2" d="M83.23,26.59V24.66h1.44V23l2.17-2v3.68h2v1.93h-2V32A4.93,4.93,0,0,0,87,33.54c.09.2.33.3.71.3a3.3,3.3,0,0,0,1.19-.22v2a4.91,4.91,0,0,1-1.67.3,2.76,2.76,0,0,1-1.61-.44,1.9,1.9,0,0,1-.77-1.1,10.82,10.82,0,0,1-.16-2.28V26.59Z"/><path class="cls-2" d="M90.28,26.59V24.66h1.44V23l2.16-2v3.68h2.05v1.93H93.88V32A4.81,4.81,0,0,0,94,33.54c.09.2.33.3.71.3a3.3,3.3,0,0,0,1.19-.22v2a4.91,4.91,0,0,1-1.67.3,2.74,2.74,0,0,1-1.61-.44,1.86,1.86,0,0,1-.77-1.1,10.82,10.82,0,0,1-.16-2.28V26.59Z"/><path class="cls-2" d="M109.14,30.73H99.86a4,4,0,0,0,1.21,2.48,3.58,3.58,0,0,0,2.56.94,4.23,4.23,0,0,0,3.6-1.82l1.91.84a5.72,5.72,0,0,1-2.43,2.15,7.18,7.18,0,0,1-3.12.7,6.3,6.3,0,0,1-4.33-1.58,5.36,5.36,0,0,1-1.79-4.26A5.47,5.47,0,0,1,99.22,26a5.66,5.66,0,0,1,4-1.64,5.93,5.93,0,0,1,4,1.6A6.23,6.23,0,0,1,109.14,30.73Zm-2.23-1.57a4,4,0,0,0-1.21-2.11,3.39,3.39,0,0,0-2.41-.94,3.17,3.17,0,0,0-2.22.85,3.64,3.64,0,0,0-1.13,2.2Z"/><path class="cls-2" d="M112.75,33.78V26.59h-2.23V24.66h4v2.49a4.38,4.38,0,0,1,1-1.61,3.32,3.32,0,0,1,1.38-.84,7.37,7.37,0,0,1,2-.21h.57v2.19H119a7,7,0,0,0-2.47.33,2.22,2.22,0,0,0-1.2,1.21,8.3,8.3,0,0,0-.4,3.13v2.43h2.41V35.7h-6.8V33.78Z"/><path class="cls-2" d="M42.38,59l-3-9.29H38.08V47.8h4.65v1.93H41.29l2.11,6.66,2.11-6.66h-1.2V47.8h5.33v1.93H48.43l2.11,6.66,2.12-6.66H51.14V47.8h5v1.93H54.54l-3,9.29h-2L47,51l-2.57,8Z"/><path class="cls-2" d="M58.6,56.91V49.73H56.89V47.8h3.87v9.11h1.71v1.93H56.89V56.91Zm-.31-12.86a1.25,1.25,0,0,1,.37-.91,1.23,1.23,0,0,1,.94-.39,1.27,1.27,0,0,1,.92.37,1.24,1.24,0,0,1,.39.93,1.31,1.31,0,0,1-1.31,1.31,1.24,1.24,0,0,1-.93-.39A1.29,1.29,0,0,1,58.29,44.05Z"/><path class="cls-2" d="M63.65,49.73V47.8h1.44V46.1l2.16-2V47.8h2v1.93h-2v5.36a5.25,5.25,0,0,0,.14,1.59q.15.3.72.3a3.22,3.22,0,0,0,1.18-.23v2a4.86,4.86,0,0,1-1.66.3A2.74,2.74,0,0,1,66,58.58a1.89,1.89,0,0,1-.78-1.1,11.77,11.77,0,0,1-.15-2.28V49.73Z"/><path class="cls-2" d="M72.46,56.91v-12h-2V43h4.16v6.08a6.06,6.06,0,0,1,3.7-1.57,3.24,3.24,0,0,1,1.81.46,2.26,2.26,0,0,1,1,1.2,7.12,7.12,0,0,1,.26,2.18v5.58h1.88v1.93h-4V52.09a11.57,11.57,0,0,0-.08-1.68,1.13,1.13,0,0,0-.44-.7,1.37,1.37,0,0,0-.85-.27,6,6,0,0,0-3.19,1.43v6h1.92v1.93H70.47V56.91Z"/><path class="cls-2" d="M101.31,56.91v1.93H97.53V57.49A4.93,4.93,0,0,1,94,59a3.84,3.84,0,0,1-2.62-1A3.37,3.37,0,0,1,91.47,53a4.18,4.18,0,0,1,2.84-1,5.38,5.38,0,0,1,3,.94V51.8a4,4,0,0,0-.16-1.3,1.65,1.65,0,0,0-.75-.82,2.89,2.89,0,0,0-1.53-.36,2.5,2.5,0,0,0-2.36,1.3l-2.08-.55a5,5,0,0,1,4.77-2.58,6,6,0,0,1,2.15.34,3.06,3.06,0,0,1,1.35.86,2.83,2.83,0,0,1,.6,1.15,9.11,9.11,0,0,1,.15,2v5.11Zm-4-2.18a4.57,4.57,0,0,0-2.84-1.09,2.19,2.19,0,0,0-1.5.52,1.7,1.7,0,0,0-.61,1.36,1.76,1.76,0,0,0,.53,1.3,2,2,0,0,0,1.44.52,4.3,4.3,0,0,0,3-1.32Z"/><path class="cls-2" d="M21.35,82V79.29h2.12V68.79H21.35V66.11H28L33.84,76V68.79H31.78V66.11H38.9v2.68H36.67v13.3H33.14L26.3,70.33v9h2V82Z"/><path class="cls-2" d="M52.5,79.43V82H47.2V81.1a5,5,0,0,1-3,1,4.49,4.49,0,0,1-2.84-.93,3,3,0,0,1-1.19-2.51A3.35,3.35,0,0,1,41.42,76,4.8,4.8,0,0,1,44.65,75a7,7,0,0,1,2.55.56v-.68a1.82,1.82,0,0,0-.57-1.38,2.13,2.13,0,0,0-1.53-.54,2.75,2.75,0,0,0-2,.86l-2.84-.51q1.23-2.61,5.35-2.61a8.25,8.25,0,0,1,2.64.36,3.74,3.74,0,0,1,1.57.93,3.29,3.29,0,0,1,.72,1.25,8.15,8.15,0,0,1,.21,2.2v4Zm-5.3-1.54a4.28,4.28,0,0,0-2-.8,1.87,1.87,0,0,0-1.1.35,1.2,1.2,0,0,0-.5,1,1.47,1.47,0,0,0,.4,1,1.34,1.34,0,0,0,1,.43,3.46,3.46,0,0,0,2.21-1.15Z"/><path class="cls-2" d="M53.28,73.48V70.93h1.4V69.2l3.52-2.53v4.26h2v2.55h-2v4.78a1.6,1.6,0,0,0,.17.88c.11.15.36.22.76.22a3.28,3.28,0,0,0,1.1-.23v2.44a7,7,0,0,1-2.66.56,2.55,2.55,0,0,1-2.89-2.88V73.48Z"/><path class="cls-2" d="M61.85,73.48V70.93h5.2v8.5h1.64V82H61.85V79.43h1.68v-6Zm1.55-5.71a1.94,1.94,0,0,1,3.3-1.37,1.9,1.9,0,0,1,.56,1.37,1.85,1.85,0,0,1-.57,1.36,1.88,1.88,0,0,1-1.36.56,1.95,1.95,0,0,1-1.93-1.92Z"/><path class="cls-2" d="M75.83,82.22a5.85,5.85,0,0,1-4.12-1.54,6.19,6.19,0,0,1,0-8.48,6.29,6.29,0,0,1,8.25,0,5.48,5.48,0,0,1,1.68,4.24A5.54,5.54,0,0,1,80,80.66,5.83,5.83,0,0,1,75.83,82.22Zm0-2.73a2,2,0,0,0,1.59-.76A3.71,3.71,0,0,0,78,76.37a3.62,3.62,0,0,0-.59-2.2,1.91,1.91,0,0,0-1.61-.8c-1.45,0-2.18,1-2.18,3.15a3.87,3.87,0,0,0,.54,2.13A1.82,1.82,0,0,0,75.82,79.49Z"/><path class="cls-2" d="M83.36,73.48V70.93h5.21v1a5.34,5.34,0,0,1,3.24-1.2q3.34,0,3.34,4.27v4.4h1.66V82H91.63V75.29a2.21,2.21,0,0,0-.25-1.23.93.93,0,0,0-.8-.33,3.48,3.48,0,0,0-2,.72v5h1.7V82H83.36V79.43h1.69v-6Z"/><path class="cls-2" d="M110.41,79.43V82H105.1V81.1a5,5,0,0,1-3,1,4.46,4.46,0,0,1-2.83-.93,3,3,0,0,1-1.19-2.51A3.37,3.37,0,0,1,99.32,76,4.85,4.85,0,0,1,102.56,75a6.93,6.93,0,0,1,2.54.56v-.68a1.85,1.85,0,0,0-.56-1.38,2.15,2.15,0,0,0-1.53-.54,2.75,2.75,0,0,0-2,.86l-2.84-.51q1.23-2.61,5.35-2.61a8.25,8.25,0,0,1,2.64.36,3.63,3.63,0,0,1,1.56.93,3.19,3.19,0,0,1,.73,1.25,8.15,8.15,0,0,1,.21,2.2v4Zm-5.31-1.54a4.28,4.28,0,0,0-2-.8,1.89,1.89,0,0,0-1.1.35,1.19,1.19,0,0,0-.49,1,1.47,1.47,0,0,0,.4,1,1.3,1.3,0,0,0,1,.43,3.44,3.44,0,0,0,2.21-1.15Z"/><path class="cls-2" d="M111.59,82V79.43h1.74V68.65h-1.74V66.11h5.26V79.43h1.58V82Z"/><path class="cls-2" d="M5.14,105.11V99.7H7.83a3,3,0,0,0,.77,2.18,2.35,2.35,0,0,0,1.67.7,1.72,1.72,0,0,0,1.24-2.92,6.86,6.86,0,0,0-1.79-1.13A13.81,13.81,0,0,1,6,96.19a3.8,3.8,0,0,1-1-2.74,4,4,0,0,1,1.3-3.22,4.32,4.32,0,0,1,3-1.15,3.37,3.37,0,0,1,2.93,1.48V89.24h2.68v4.83H12.18a2.66,2.66,0,0,0-.77-1.73,2.1,2.1,0,0,0-1.5-.61,1.77,1.77,0,0,0-1.11.35,1.12,1.12,0,0,0-.46.93,1.4,1.4,0,0,0,.38.92,7.31,7.31,0,0,0,2.2,1.25,17.81,17.81,0,0,1,2.7,1.42,4.58,4.58,0,0,1,1.48,1.64,4.75,4.75,0,0,1,.55,2.33,4.44,4.44,0,0,1-1.37,3.54A4.78,4.78,0,0,1,11,105.3a3.74,3.74,0,0,1-3.21-1.55v1.36Z"/><path class="cls-2" d="M16.87,96.61V94.07h1.4V92.33L21.8,89.8v4.27h2v2.54h-2v4.79a1.6,1.6,0,0,0,.16.87c.11.15.36.22.76.22a3.25,3.25,0,0,0,1.11-.22v2.44a7,7,0,0,1-2.66.55c-1.93,0-2.9-1-2.9-2.87V96.61Z"/><path class="cls-2" d="M31.16,105.36A5.86,5.86,0,0,1,27,103.81a6.15,6.15,0,0,1,0-8.47,6.26,6.26,0,0,1,8.25,0,6.19,6.19,0,0,1,0,8.45A5.8,5.8,0,0,1,31.16,105.36Zm0-2.74a2,2,0,0,0,1.59-.75,3.72,3.72,0,0,0,.61-2.36,3.58,3.58,0,0,0-.6-2.21,1.88,1.88,0,0,0-1.6-.79c-1.45,0-2.18,1-2.18,3.14a3.87,3.87,0,0,0,.54,2.13A1.82,1.82,0,0,0,31.15,102.62Z"/><path class="cls-2" d="M46.25,102.56v2.55H38.48v-2.55h2v-6H38.6V94.07h5.15v2.8a4,4,0,0,1,1.35-2.09,3.74,3.74,0,0,1,2.49-.88h.57v3.33a7,7,0,0,0-2.18.29,2.63,2.63,0,0,0-1.39,1.3A4.94,4.94,0,0,0,44,101.2v1.36Z"/><path class="cls-2" d="M61.61,102.56v2.55H56.3v-.88a5,5,0,0,1-3,1,4.46,4.46,0,0,1-2.83-.93,3,3,0,0,1-1.19-2.51,3.38,3.38,0,0,1,1.25-2.66,4.85,4.85,0,0,1,3.24-1.07,7.15,7.15,0,0,1,2.54.56V98a1.82,1.82,0,0,0-.57-1.39,2.12,2.12,0,0,0-1.52-.54,2.76,2.76,0,0,0-2,.87l-2.83-.52q1.23-2.61,5.34-2.61a8.27,8.27,0,0,1,2.65.36,3.63,3.63,0,0,1,1.56.93,3.4,3.4,0,0,1,.73,1.25,8.24,8.24,0,0,1,.21,2.21v4ZM56.3,101a4.28,4.28,0,0,0-2-.8,1.83,1.83,0,0,0-1.1.36,1.17,1.17,0,0,0-.49,1,1.49,1.49,0,0,0,.39,1,1.34,1.34,0,0,0,1,.44,3.46,3.46,0,0,0,2.21-1.16Z"/><path class="cls-2" d="M76.15,94.07v2.54H74.32v8.16c0,3.64-1.92,5.47-5.77,5.47a8.29,8.29,0,0,1-4.93-1.2l1.72-2.34a5,5,0,0,0,2.68.82,3.18,3.18,0,0,0,2-.6,2.79,2.79,0,0,0,.81-2.35v-.84a5.15,5.15,0,0,1-3.36,1.53,4.12,4.12,0,0,1-3.26-1.6,6.13,6.13,0,0,1-1.35-4.09,6,6,0,0,1,1.39-4.08,4.35,4.35,0,0,1,3.4-1.59,3.94,3.94,0,0,1,3.18,1.52V94.07Zm-5.34,5.55a3.43,3.43,0,0,0-.59-2.11,1.94,1.94,0,0,0-1.62-.78,1.85,1.85,0,0,0-1.61.8,3.6,3.6,0,0,0-.55,2.06,3.35,3.35,0,0,0,.58,2,1.84,1.84,0,0,0,1.58.8,2,2,0,0,0,1.56-.74A3,3,0,0,0,70.81,99.62Z"/><path class="cls-2" d="M85.79,101.78l2.74.87a5.91,5.91,0,0,1-5.38,2.71,6.42,6.42,0,0,1-4.56-1.54,5.31,5.31,0,0,1-1.63-4,5.8,5.8,0,0,1,6-6,5.54,5.54,0,0,1,3.27,1,5,5,0,0,1,1.92,2.38,8.93,8.93,0,0,1,.54,3.19H80.45a2.63,2.63,0,0,0,1,2.13,3.08,3.08,0,0,0,1.84.63A3.71,3.71,0,0,0,85.79,101.78Zm-.67-3.43a2.79,2.79,0,0,0-.72-1.57,2.14,2.14,0,0,0-1.64-.65c-1.29,0-2,.74-2.26,2.22Z"/><path class="cls-2" d="M108.21,103.18v1.93h-4.07v-1.27a6.13,6.13,0,0,1-3.65,1.45,3.2,3.2,0,0,1-1.83-.49,2.31,2.31,0,0,1-1-1.25,9.13,9.13,0,0,1-.24-2.48V96H95.9V94.07h3.73v6.72a11.75,11.75,0,0,0,.07,1.65,1.06,1.06,0,0,0,.39.69,1.31,1.31,0,0,0,.84.28,5.14,5.14,0,0,0,3.21-1.44V96h-2V94.07h4.12v9.11Z"/><path class="cls-2" d="M113.17,94.07V95.4A6.72,6.72,0,0,1,117,93.9a3,3,0,0,1,1.78.5,2.36,2.36,0,0,1,.91,1.25,7.76,7.76,0,0,1,.22,2.14v5.39h1.86v1.93h-4V97.89a2.46,2.46,0,0,0-.37-1.64,1.23,1.23,0,0,0-.93-.38,5.61,5.61,0,0,0-3.25,1.4v5.91h1.91v1.93h-6v-1.93H111V96h-1.94V94.07Z"/><path class="cls-2" d="M124.3,103.18V96h-1.71V94.07h3.88v9.11h1.71v1.93h-5.59v-1.93ZM124,90.31a1.27,1.27,0,0,1,.38-.91,1.23,1.23,0,0,1,.94-.39,1.29,1.29,0,0,1,.92.38,1.29,1.29,0,0,1,0,1.85,1.26,1.26,0,0,1-.92.39,1.24,1.24,0,0,1-.93-.39A1.27,1.27,0,0,1,124,90.31Z"/><path class="cls-2" d="M129.36,96V94.07h1.43v-1.7l2.17-2v3.69h2V96h-2v5.36a5.25,5.25,0,0,0,.14,1.59c.1.21.33.31.71.31A3.27,3.27,0,0,0,135,103v2a4.86,4.86,0,0,1-1.66.3,2.72,2.72,0,0,1-1.61-.44,1.89,1.89,0,0,1-.78-1.1,11.56,11.56,0,0,1-.16-2.28V96Z"/></g></g></svg>