<svg xmlns="http://www.w3.org/2000/svg" viewBox="0 0 140 110.49"><defs><style>.cls-1{fill:#fff;}.cls-2{fill:#010101;}</style></defs><title>txt3160</title><g id="Layer_2" data-name="Layer 2"><g id="Layer_1-2" data-name="Layer 1"><polygon class="cls-1" points="0 0 0 102 49.4 102 49.4 102.24 69.92 110.49 90.61 102.24 90.61 102 140 102 140 0 0 0"/><path class="cls-2" d="M35,28h5.77c0,.2,0,.39,0,.55a6.89,6.89,0,0,1-2.19,5.34,8.22,8.22,0,0,1-5.78,2c-2.87,0-5-.81-6.41-2.44a8.58,8.58,0,0,1-2.11-5.79,8.24,8.24,0,0,1,2.15-5.82,7.62,7.62,0,0,1,5.85-2.31,8,8,0,0,1,5.57,2V19.83h2V25h-2a5.72,5.72,0,0,0-2-2.33,5.66,5.66,0,0,0-3.33-1,5.11,5.11,0,0,0-4.1,1.75,6.25,6.25,0,0,0-1.51,4.23,6,6,0,0,0,1.72,4.51,6,6,0,0,0,7.51.61A4,4,0,0,0,37.82,30H35Z"/><path class="cls-2" d="M54.37,30.72H45.08a4,4,0,0,0,1.21,2.47,3.61,3.61,0,0,0,2.57,1,4.21,4.21,0,0,0,3.59-1.82l1.92.84a5.91,5.91,0,0,1-2.43,2.15,7.26,7.26,0,0,1-3.13.7,6.35,6.35,0,0,1-4.33-1.58,5.4,5.4,0,0,1-1.79-4.26A5.47,5.47,0,0,1,44.44,26a5.69,5.69,0,0,1,4-1.65,5.94,5.94,0,0,1,4,1.61A6.26,6.26,0,0,1,54.37,30.72Zm-2.24-1.57A3.91,3.91,0,0,0,50.92,27a3.33,3.33,0,0,0-2.4-.94,3.17,3.17,0,0,0-2.23.85,3.69,3.69,0,0,0-1.13,2.2Z"/><path class="cls-2" d="M55.94,26.58V24.65h1.44V23l2.16-2v3.68h2v1.93h-2v5.36a4.81,4.81,0,0,0,.15,1.59c.09.2.33.3.71.3a3,3,0,0,0,1.18-.23v2a5.09,5.09,0,0,1-1.66.29,2.67,2.67,0,0,1-1.61-.44,1.83,1.83,0,0,1-.77-1.1,10.82,10.82,0,0,1-.16-2.28V26.58Z"/><path class="cls-2" d="M73.77,35.5l-3.62-8.92H68.31V24.65h5.46v1.93H72.45l2.38,6.11,2.34-6.11H75.71V24.65h5.35v1.93H79.42L74,40.64H70.3V38.75h2.15Z"/><path class="cls-2" d="M81,30.17A5.61,5.61,0,0,1,82.68,26a6,6,0,0,1,8.21,0,5.52,5.52,0,0,1,1.71,4.21,5.58,5.58,0,0,1-1.7,4.22,6,6,0,0,1-8.24,0A5.67,5.67,0,0,1,81,30.17Zm2.3,0a3.64,3.64,0,0,0,1,2.67,3.34,3.34,0,0,0,2.49,1,3.3,3.3,0,0,0,2.5-1.06,3.7,3.7,0,0,0,1-2.66,3.65,3.65,0,0,0-1-2.68,3.33,3.33,0,0,0-2.48-1,3.27,3.27,0,0,0-2.52,1.08A3.74,3.74,0,0,0,83.29,30.17Z"/><path class="cls-2" d="M106.41,33.76v1.93h-4.07V34.42a6.09,6.09,0,0,1-3.65,1.45,3.23,3.23,0,0,1-1.83-.48,2.3,2.3,0,0,1-1-1.26,9.13,9.13,0,0,1-.24-2.48V26.58H94.1V24.65h3.73v6.73A14.26,14.26,0,0,0,97.89,33a1.14,1.14,0,0,0,.4.7,1.28,1.28,0,0,0,.84.27,5.14,5.14,0,0,0,3.21-1.44v-6h-2V24.65h4.12v9.11Z"/><path class="cls-2" d="M109.38,33.76V26.58h-2.23V24.65h4v2.49a4.27,4.27,0,0,1,1-1.61,3.1,3.1,0,0,1,1.37-.84,7.37,7.37,0,0,1,2-.21h.57v2.19h-.43a6.93,6.93,0,0,0-2.47.33,2.19,2.19,0,0,0-1.21,1.2,8.37,8.37,0,0,0-.4,3.13v2.43H114v1.93h-6.8V33.76Z"/><path class="cls-2" d="M14.69,56.9V49.7h-1.6V47.79h1.6v-1.6a3.64,3.64,0,0,1,.86-2.78,2.93,2.93,0,0,1,2-.77,2.68,2.68,0,0,1,2.91,2.55l-1.93.29c-.08-.7-.36-1.06-.84-1.06a.69.69,0,0,0-.67.34,3.61,3.61,0,0,0-.18,1.44v1.59h1.89V49.7H16.86v7.2H19v1.92H13.09V56.9Z"/><path class="cls-2" d="M22,56.9V49.71H20.26V47.79h3.87V56.9h1.72v1.92H20.26V56.9ZM21.66,44a1.26,1.26,0,0,1,.37-.91,1.24,1.24,0,0,1,.94-.39,1.3,1.3,0,0,1,.93.38A1.31,1.31,0,1,1,22,45,1.3,1.3,0,0,1,21.66,44Z"/><path class="cls-2" d="M29.05,56.9V49.71H26.83V47.79h4v2.48a4.48,4.48,0,0,1,1-1.61,3.29,3.29,0,0,1,1.37-.84,7.43,7.43,0,0,1,2-.2h.57V49.8h-.43a6.7,6.7,0,0,0-2.47.34,2.19,2.19,0,0,0-1.21,1.2,8.57,8.57,0,0,0-.39,3.13V56.9h2.4v1.92H26.83V56.9Z"/><path class="cls-2" d="M37,58.82V55H39v.36a1.8,1.8,0,0,0,.84,1.28,3,3,0,0,0,1.74.5,3.36,3.36,0,0,0,1.67-.36,1.13,1.13,0,0,0,.63-1,1,1,0,0,0-.52-.92,7.07,7.07,0,0,0-2.06-.55A6.59,6.59,0,0,1,38,53.09a2.85,2.85,0,0,1-1-2.23,3,3,0,0,1,1.06-2.32,4.09,4.09,0,0,1,2.8-.92,5.33,5.33,0,0,1,2.69.64v-.47h1.92v3.66H43.57v-.68A2.87,2.87,0,0,0,41,49.42a2.47,2.47,0,0,0-1.41.37,1.13,1.13,0,0,0-.55,1,.88.88,0,0,0,.51.87,10.46,10.46,0,0,0,2.18.49,11.15,11.15,0,0,1,2.43.59,3,3,0,0,1,1.36,1.11,3.06,3.06,0,0,1,.55,1.82A2.94,2.94,0,0,1,44.9,58.1a4.87,4.87,0,0,1-3.07.91A4.79,4.79,0,0,1,39,58.2v.62Z"/><path class="cls-2" d="M47.45,49.71V47.79h1.44v-1.7l2.17-2v3.69h2v1.92h-2v5.36a5.25,5.25,0,0,0,.14,1.59c.1.21.33.31.71.31a3.27,3.27,0,0,0,1.19-.23v2a4.9,4.9,0,0,1-1.66.3,2.72,2.72,0,0,1-1.61-.44,1.89,1.89,0,0,1-.78-1.1,11.56,11.56,0,0,1-.16-2.28V49.71Z"/><path class="cls-2" d="M62.22,56.9V49.71H60.39V47.79h4v1.39a6.18,6.18,0,0,1,3.84-1.56,2.6,2.6,0,0,1,2.6,1.72,6.62,6.62,0,0,1,4-1.72,3,3,0,0,1,1.76.47,2.28,2.28,0,0,1,.93,1.2,7.15,7.15,0,0,1,.24,2.13V56.9H79.7v1.92H75.61v-7a8.07,8.07,0,0,0-.08-1.35,1.11,1.11,0,0,0-.44-.65,1.38,1.38,0,0,0-.84-.26A5.31,5.31,0,0,0,71.09,51V56.9H73v1.92H68.93V51.61A3,3,0,0,0,68.61,50a1.16,1.16,0,0,0-1.06-.49A5.92,5.92,0,0,0,64.39,51V56.9h1.94v1.92H60.25V56.9Z"/><path class="cls-2" d="M80.73,53.31a5.59,5.59,0,0,1,1.69-4.2,5.68,5.68,0,0,1,4.11-1.63,5.79,5.79,0,0,1,4.1,1.61,6,6,0,0,1,0,8.43,5.72,5.72,0,0,1-4.1,1.62,5.66,5.66,0,0,1-5.8-5.83Zm2.29,0A3.68,3.68,0,0,0,84,56a3.51,3.51,0,0,0,5,0,3.74,3.74,0,0,0,1-2.67,3.64,3.64,0,0,0-1-2.67,3.34,3.34,0,0,0-2.49-1.05A3.29,3.29,0,0,0,84,50.65,3.75,3.75,0,0,0,83,53.3Z"/><path class="cls-2" d="M98,47.79v1.33a6.72,6.72,0,0,1,3.81-1.5,2.92,2.92,0,0,1,1.77.5,2.33,2.33,0,0,1,.92,1.25,7.76,7.76,0,0,1,.22,2.14V56.9h1.86v1.92h-4V51.61a2.41,2.41,0,0,0-.38-1.64,1.24,1.24,0,0,0-.92-.38A5.58,5.58,0,0,0,98,51V56.9h1.91v1.92h-6V56.9H95.8V49.71H93.86V47.79Z"/><path class="cls-2" d="M107.32,49.71V47.79h1.44v-1.7l2.17-2v3.69h2v1.92h-2v5.36a5.25,5.25,0,0,0,.14,1.59c.09.21.33.31.71.31a3.27,3.27,0,0,0,1.19-.23v2a4.91,4.91,0,0,1-1.67.3,2.7,2.7,0,0,1-1.6-.44,1.89,1.89,0,0,1-.78-1.1,10.82,10.82,0,0,1-.16-2.28V49.71Z"/><path class="cls-2" d="M116.14,56.9v-12h-2V43h4.16v6.09A6,6,0,0,1,122,47.48a3.29,3.29,0,0,1,1.8.45,2.34,2.34,0,0,1,1,1.21,7.13,7.13,0,0,1,.25,2.18V56.9h1.88v1.92h-4V52.07a11.5,11.5,0,0,0-.08-1.67,1.15,1.15,0,0,0-.44-.7,1.39,1.39,0,0,0-.85-.27,6,6,0,0,0-3.2,1.42v6h1.92v1.92h-6.08V56.9Z"/><path class="cls-2" d="M38.78,82V79.28h2.27V68.78H38.78V66.1H53V71h-3V68.78H45.18v3.67h3.43v2.68H45.18v4.15h2.44V82Z"/><path class="cls-2" d="M70.27,79.28V82H65.44L61.86,75H60v4.27h2V82H53.74V79.28h2.18V68.78H53.74V66.1h9.57a4.91,4.91,0,0,1,3.89,1.36,4.54,4.54,0,0,1,1.19,3.08,4.11,4.11,0,0,1-2.75,3.95l2.58,4.79ZM60,72.48h1.42c1.75,0,2.62-.62,2.62-1.87a1.64,1.64,0,0,0-.6-1.38,2.68,2.68,0,0,0-1.64-.45H60Z"/><path class="cls-2" d="M71,82V79.28h1.91V68.78H71V66.1H85v5H82V68.78H77v3.66h4v2.68H77v4.16H82V76.91h3v5Z"/><path class="cls-2" d="M86.58,82V79.28h1.91V68.78H86.58V66.1h14v5h-3V68.78H92.61v3.66h4v2.68h-4v4.16h4.92V76.91h3v5Z"/></g></g></svg>