<?xml version="1.0" encoding="UTF-8"?><svg id="Layer_2" xmlns="http://www.w3.org/2000/svg" viewBox="0 0 136.43 18.1"><defs><style>.cls-1{fill:none;stroke:#27346b;stroke-miterlimit:10;stroke-width:.99px;}</style></defs><g id="Layer_3"><g><path class="cls-1" d="M4.89,5.7H.61L1.6,.96H15.36l-.99,4.74h-4.28l-2.43,11.44H2.46L4.89,5.7Z"/><path class="cls-1" d="M25.41,.49c5.25,0,8.55,3.63,8.55,7.98,0,5.06-4.28,9.13-9.83,9.13-5.25,0-8.55-3.63-8.55-7.97C15.59,4.56,19.86,.49,25.41,.49Zm-1.04,12.48c2.43,0,4.39-1.9,4.39-4.39,0-1.85-1.48-3.47-3.58-3.47-2.43,0-4.39,1.9-4.39,4.39,0,1.85,1.48,3.47,3.58,3.47Z"/><path class="cls-1" d="M46.22,5.7h-4.28l.99-4.74h13.75l-.99,4.74h-4.28l-2.43,11.44h-5.2l2.43-11.44Z"/><path class="cls-1" d="M59.19,.96h5.2l-1.2,5.66h4.85l1.2-5.66h5.2l-3.42,16.18h-5.2l1.25-5.89h-4.85l-1.25,5.89h-5.2L59.19,.96Z"/><path class="cls-1" d="M78.52,.96h12.83l-.9,4.28h-7.63l-.42,1.96h5.78l-.79,3.7h-5.78l-.42,1.96h7.86l-.9,4.28h-13.06L78.52,.96Z"/><path class="cls-1" d="M100.25,.96h5.2l-1.92,9.11c-.02,.12-.07,.37-.07,.56,0,1.27,.74,2.24,2.13,2.24s2.4-.99,2.68-2.29l2.03-9.62h5.2l-2.15,10.15c-.81,3.84-4.07,6.5-8.09,6.5-4.42,0-7.05-2.82-7.05-6.52,0-.72,.09-1.04,.18-1.5l1.85-8.62Z"/><path class="cls-1" d="M119.38,.96h5.2l-1.18,5.55,5.69-5.55h6.13l-7.19,7.05,3.75,9.13h-5.76l-2.17-5.29-1.94,1.8-.74,3.49h-5.2L119.38,.96Z"/></g></g></svg>