<?xml version="1.0" encoding="UTF-8"?><svg id="Layer_3" xmlns="http://www.w3.org/2000/svg" viewBox="0 0 320 50"><defs><style>.cls-1{fill:#273b6b;}</style></defs><path class="cls-1" d="M138.82,35.48h.6l1.59,2.04,1.59-2.04h.6v4.2h-.66v-3.09l-1.53,1.95-1.53-1.95v3.09h-.66v-4.2Z"/><path class="cls-1" d="M144.55,35.54c.19,0,.36,.15,.36,.36s-.17,.36-.36,.36-.36-.15-.36-.36,.17-.36,.36-.36Zm-.3,1.26h.6v2.88h-.6v-2.88Z"/><path class="cls-1" d="M145.72,36.8h.6v.42c.06-.09,.13-.17,.22-.24,.15-.12,.37-.24,.68-.24,.66,0,1.14,.47,1.14,1.26v1.68h-.6v-1.68c0-.43-.27-.69-.66-.69-.45,0-.78,.33-.78,.81v1.56h-.6v-2.88Z"/><path class="cls-1" d="M151.78,36.74c.84,0,1.5,.66,1.5,1.5s-.66,1.5-1.5,1.5-1.5-.66-1.5-1.5,.66-1.5,1.5-1.5Zm.9,1.5c0-.54-.39-.93-.9-.93s-.9,.38-.9,.93,.39,.93,.9,.93,.9-.38,.9-.93Z"/><path class="cls-1" d="M153.94,36.8h.6v.39c.07-.08,.14-.16,.22-.22,.14-.11,.36-.23,.65-.23h.15v.63h-.08s-.1-.03-.16-.03c-.41,0-.78,.36-.78,.87v1.47h-.6v-2.88Z"/><path class="cls-1" d="M158.2,39.26c-.06,.09-.14,.17-.23,.24-.16,.12-.41,.24-.75,.24-.72,0-1.35-.63-1.35-1.5s.63-1.5,1.35-1.5c.34,0,.59,.12,.75,.24,.1,.07,.17,.15,.23,.24v-1.74h.6v4.2h-.6v-.42Zm0-1.02c0-.54-.39-.93-.87-.93s-.87,.38-.87,.93,.39,.93,.87,.93,.87-.38,.87-.93Z"/><path class="cls-1" d="M162.21,39.2c-.08,.1-.18,.19-.3,.27-.21,.14-.5,.27-.93,.27-.84,0-1.5-.66-1.5-1.5s.66-1.5,1.47-1.5,1.41,.59,1.41,1.41c0,.09-.01,.16-.02,.22v.08h-2.23c.07,.39,.41,.72,.9,.72,.26,0,.47-.1,.61-.19,.08-.05,.16-.12,.23-.2l.36,.42Zm-.48-1.26c-.09-.39-.35-.66-.78-.66-.46,0-.72,.27-.84,.66h1.62Z"/><path class="cls-1" d="M163.03,36.8h.6v.39c.07-.08,.14-.16,.22-.22,.14-.11,.36-.23,.65-.23h.15v.63h-.08s-.1-.03-.16-.03c-.41,0-.78,.36-.78,.87v1.47h-.6v-2.88Z"/><path class="cls-1" d="M166.54,38.66c.07,.09,.15,.17,.25,.24,.17,.12,.44,.24,.8,.24,.54,0,.84-.29,.84-.63,0-.93-2.22-.36-2.22-1.92,0-.61,.46-1.04,1.11-1.14v-.6h.6v.58c.34,.05,.61,.19,.79,.31,.1,.07,.19,.14,.26,.22l-.45,.45c-.07-.07-.14-.14-.22-.19-.14-.1-.37-.2-.65-.2-.51,0-.78,.26-.78,.57,0,.93,2.22,.36,2.22,1.92,0,.64-.48,1.1-1.17,1.2v.6h-.6v-.59c-.43-.05-.72-.2-.93-.34-.12-.08-.22-.17-.3-.27l.45-.45Z"/><path class="cls-1" d="M172.36,39.05v.63h-2.82c0-1.89,2.16-1.94,2.16-2.97,0-.39-.27-.66-.75-.66-.32,0-.52,.14-.64,.29-.07,.08-.13,.18-.17,.28l-.54-.24c.05-.18,.14-.34,.26-.48,.2-.24,.53-.48,1.09-.48,.84,0,1.41,.57,1.41,1.29,0,1.23-1.56,1.41-2.04,2.34h2.04Z"/><path class="cls-1" d="M173.02,37.58c0-1.37,.78-2.16,1.74-2.16s1.74,.79,1.74,2.16-.78,2.16-1.74,2.16-1.74-.79-1.74-2.16Zm1.74-1.56c-.57,0-1.08,.51-1.08,1.56s.51,1.56,1.08,1.56,1.08-.51,1.08-1.56-.51-1.56-1.08-1.56Z"/><path class="cls-1" d="M177.1,39.35c0-.21,.18-.39,.39-.39s.39,.18,.39,.39-.18,.39-.39,.39-.39-.18-.39-.39Z"/><path class="cls-1" d="M179.5,35.48h.69l1.29,3.36,1.29-3.36h.69l-1.62,4.2h-.72l-1.62-4.2Z"/><path class="cls-1" d="M184.18,35.54c.19,0,.36,.15,.36,.36s-.17,.36-.36,.36-.36-.15-.36-.36,.17-.36,.36-.36Zm-.3,1.26h.6v2.88h-.6v-2.88Z"/><path class="cls-1" d="M185.47,38.81c.06,.08,.12,.14,.2,.2,.14,.1,.31,.19,.55,.19,.34,0,.51-.17,.51-.36,0-.48-1.53-.23-1.53-1.26,0-.45,.39-.84,1.05-.84,.34,0,.6,.1,.77,.2,.1,.05,.19,.12,.25,.19l-.39,.39s-.1-.08-.17-.12c-.11-.07-.27-.12-.46-.12-.31,0-.45,.15-.45,.3,0,.48,1.53,.24,1.53,1.26,0,.48-.41,.9-1.11,.9-.38,0-.66-.13-.85-.27-.12-.08-.21-.17-.29-.27l.39-.39Z"/><path class="cls-1" d="M188.29,35.54c.19,0,.36,.15,.36,.36s-.17,.36-.36,.36-.36-.15-.36-.36,.17-.36,.36-.36Zm-.3,1.26h.6v2.88h-.6v-2.88Z"/><path class="cls-1" d="M189.76,37.37h-.54v-.57h.33c.19,0,.27-.09,.27-.33v-.63h.54v.96h.66v.57h-.66v1.35c0,.3,.14,.45,.42,.45,.09,0,.17-.02,.23-.04l.1-.05v.57l-.13,.05c-.08,.02-.19,.04-.32,.04-.58,0-.9-.33-.9-.96v-1.41Z"/><path class="cls-1" d="M193.12,35.48h.6v4.2h-.6v-4.2Z"/><path class="cls-1" d="M195.91,36.74c.84,0,1.5,.66,1.5,1.5s-.66,1.5-1.5,1.5-1.5-.66-1.5-1.5,.66-1.5,1.5-1.5Zm.9,1.5c0-.54-.39-.93-.9-.93s-.9,.38-.9,.93,.39,.93,.9,.93,.9-.38,.9-.93Z"/><path class="cls-1" d="M198.07,36.8h.6v.42c.06-.09,.13-.17,.22-.24,.15-.12,.37-.24,.68-.24,.66,0,1.14,.47,1.14,1.26v1.68h-.6v-1.68c0-.43-.27-.69-.66-.69-.45,0-.78,.33-.78,.81v1.56h-.6v-2.88Z"/><path class="cls-1" d="M203.71,39.26c-.06,.09-.14,.17-.23,.24-.16,.12-.41,.24-.75,.24-.72,0-1.35-.63-1.35-1.5s.63-1.5,1.35-1.5c.34,0,.59,.12,.75,.24,.1,.07,.17,.15,.23,.24v-1.74h.6v4.2h-.6v-.42Zm0-1.02c0-.54-.39-.93-.87-.93s-.87,.38-.87,.93,.39,.93,.87,.93,.87-.38,.87-.93Z"/><path class="cls-1" d="M206.5,36.74c.84,0,1.5,.66,1.5,1.5s-.66,1.5-1.5,1.5-1.5-.66-1.5-1.5,.66-1.5,1.5-1.5Zm.9,1.5c0-.54-.39-.93-.9-.93s-.9,.38-.9,.93,.39,.93,.9,.93,.9-.38,.9-.93Z"/><path class="cls-1" d="M208.66,36.8h.6v.42c.06-.09,.13-.17,.22-.24,.15-.12,.37-.24,.68-.24,.66,0,1.14,.47,1.14,1.26v1.68h-.6v-1.68c0-.43-.27-.69-.66-.69-.45,0-.78,.33-.78,.81v1.56h-.6v-2.88Z"/><path class="cls-1" d="M214.69,39.14c-.09,.11-.19,.21-.31,.3-.21,.15-.51,.3-.92,.3-.84,0-1.5-.66-1.5-1.5s.66-1.5,1.5-1.5c.41,0,.71,.14,.91,.29,.11,.08,.22,.18,.29,.28l-.42,.39c-.05-.07-.12-.14-.2-.19-.14-.1-.32-.2-.58-.2-.51,0-.9,.38-.9,.93s.39,.93,.9,.93c.26,0,.46-.1,.59-.21,.08-.06,.15-.13,.22-.21l.42,.39Z"/><path class="cls-1" d="M216.94,39.26c-.06,.09-.14,.17-.23,.24-.16,.12-.39,.24-.7,.24-.58,0-.96-.39-.96-.84,0-.48,.33-.81,.84-.9l1.05-.18c0-.31-.24-.54-.6-.54-.23,0-.41,.1-.55,.2-.08,.05-.14,.12-.2,.19l-.39-.39c.08-.1,.17-.19,.29-.27,.19-.14,.47-.27,.85-.27,.72,0,1.2,.48,1.2,1.11v1.83h-.6v-.42Zm0-.96l-.84,.15c-.31,.05-.45,.2-.45,.39,0,.21,.17,.39,.48,.39,.45,0,.81-.36,.81-.84v-.09Z"/><path class="cls-1" d="M218.41,35.48h.6v4.2h-.6v-4.2Z"/><path class="cls-1" d="M219.91,35.48h.6v4.2h-.6v-4.2Z"/><path class="cls-1" d="M221.71,35.54c.19,0,.36,.15,.36,.36s-.17,.36-.36,.36-.36-.15-.36-.36,.17-.36,.36-.36Zm-.3,1.26h.6v2.88h-.6v-2.88Z"/><path class="cls-1" d="M222.88,36.8h.6v.42c.06-.09,.13-.17,.22-.24,.15-.12,.37-.24,.68-.24,.66,0,1.14,.47,1.14,1.26v1.68h-.6v-1.68c0-.43-.27-.69-.66-.69-.45,0-.78,.33-.78,.81v1.56h-.6v-2.88Z"/><path class="cls-1" d="M226.69,39.95c.07,.08,.14,.15,.22,.21,.14,.11,.34,.21,.59,.21,.54,0,.9-.35,.9-.93v-.27c-.06,.08-.14,.16-.23,.23-.16,.11-.39,.22-.7,.22-.69,0-1.29-.6-1.29-1.44s.6-1.44,1.29-1.44c.31,0,.54,.11,.7,.23,.09,.07,.17,.14,.23,.22v-.39h.6v2.64c0,.87-.63,1.5-1.5,1.5-.41,0-.71-.15-.92-.3-.12-.09-.22-.19-.31-.3l.42-.39Zm1.71-1.77c0-.51-.36-.87-.81-.87s-.81,.36-.81,.87,.36,.87,.81,.87,.81-.36,.81-.87Z"/><path class="cls-1" d="M229.69,39.35c0-.21,.18-.39,.39-.39s.39,.18,.39,.39-.18,.39-.39,.39-.39-.18-.39-.39Z"/><path class="cls-1" d="M233.71,39.14c-.09,.11-.19,.21-.31,.3-.21,.15-.51,.3-.92,.3-.84,0-1.5-.66-1.5-1.5s.66-1.5,1.5-1.5c.41,0,.71,.14,.9,.29,.11,.08,.22,.18,.29,.28l-.42,.39c-.05-.07-.12-.14-.2-.19-.14-.1-.32-.2-.58-.2-.51,0-.9,.38-.9,.93s.39,.93,.9,.93c.26,0,.46-.1,.59-.21,.08-.06,.15-.13,.22-.21l.42,.39Z"/><path class="cls-1" d="M235.54,36.74c.84,0,1.5,.66,1.5,1.5s-.66,1.5-1.5,1.5-1.5-.66-1.5-1.5,.66-1.5,1.5-1.5Zm.9,1.5c0-.54-.39-.93-.9-.93s-.9,.38-.9,.93,.39,.93,.9,.93,.9-.38,.9-.93Z"/><path class="cls-1" d="M237.7,36.8h.6v.42c.05-.09,.11-.17,.19-.24,.14-.12,.34-.24,.65-.24s.54,.12,.68,.24c.08,.07,.16,.15,.22,.24,.05-.09,.13-.17,.22-.24,.16-.12,.41-.24,.77-.24,.57,0,1.05,.48,1.05,1.23v1.71h-.6v-1.71c0-.43-.26-.66-.6-.66-.39,0-.69,.3-.69,.78v1.59h-.6v-1.71c0-.43-.26-.66-.6-.66-.39,0-.69,.3-.69,.78v1.59h-.6v-2.88Z"/><path class="cls-1" d="M244.39,37.37h-.45v-.57h.45v-.42c0-.63,.32-.96,.9-.96,.14,0,.25,.02,.32,.05,.04,.02,.08,.03,.13,.04v.57l-.1-.04c-.07-.02-.14-.05-.23-.05-.28,0-.42,.15-.42,.45v.36h.69v.57h-.69v2.31h-.6v-2.31Z"/><path class="cls-1" d="M247.6,36.74c.84,0,1.5,.66,1.5,1.5s-.66,1.5-1.5,1.5-1.5-.66-1.5-1.5,.66-1.5,1.5-1.5Zm.9,1.5c0-.54-.39-.93-.9-.93s-.9,.38-.9,.93,.39,.93,.9,.93,.9-.38,.9-.93Z"/><path class="cls-1" d="M249.76,36.8h.6v.39c.07-.08,.14-.16,.22-.22,.14-.11,.36-.23,.65-.23h.15v.63h-.08s-.1-.03-.16-.03c-.41,0-.78,.36-.78,.87v1.47h-.6v-2.88Z"/><path class="cls-1" d="M253.27,37.37h-.45v-.57h.45v-.42c0-.63,.32-.96,.9-.96,.14,0,.25,.02,.32,.05,.04,.02,.08,.03,.12,.04v.57l-.1-.04c-.07-.02-.14-.05-.23-.05-.28,0-.42,.15-.42,.45v.36h.69v.57h-.69v2.31h-.6v-2.31Z"/><path class="cls-1" d="M255.16,36.8h.6v1.68c0,.43,.27,.69,.66,.69,.45,0,.78-.33,.78-.81v-1.56h.6v2.88h-.6v-.42c-.07,.09-.14,.17-.23,.24-.15,.12-.37,.24-.67,.24-.66,0-1.14-.47-1.14-1.26v-1.68Z"/><path class="cls-1" d="M258.67,35.48h.6v4.2h-.6v-4.2Z"/><path class="cls-1" d="M260.17,35.48h.6v4.2h-.6v-4.2Z"/><path class="cls-1" d="M263.86,36.11h-1.26v-.63h3.18v.63h-1.26v3.57h-.66v-3.57Z"/><path class="cls-1" d="M268.54,38.48c.04-.07,.08-.15,.12-.24,.07-.15,.12-.36,.12-.6h.54c0,.36-.1,.68-.2,.92-.05,.14-.12,.26-.19,.37,.04,.05,.08,.1,.13,.14,.09,.07,.2,.13,.32,.13,.04,0,.08,0,.12-.01l.05-.02v.54l-.05,.02s-.11,.01-.21,.01c-.23,0-.4-.1-.53-.21-.07-.06-.14-.13-.19-.21-.08,.08-.19,.16-.3,.23-.2,.11-.48,.22-.84,.22-.75,0-1.23-.48-1.23-1.08,0-.41,.19-.71,.4-.91,.12-.11,.26-.22,.41-.29-.11-.11-.21-.23-.3-.35-.15-.21-.3-.49-.3-.76,0-.54,.42-.96,1.05-.96s1.02,.43,1.02,.93c0,.34-.19,.61-.38,.82-.11,.12-.23,.23-.37,.32l.81,.99Zm-1.2-.63c-.1,.07-.19,.14-.27,.23-.14,.14-.27,.34-.27,.58,0,.3,.27,.57,.66,.57,.24,0,.43-.07,.55-.15,.07-.04,.14-.1,.2-.15l-.87-1.08Zm.33-.97c.12-.14,.24-.33,.24-.5,0-.24-.18-.42-.45-.42-.3,0-.48,.18-.48,.42,0,.17,.11,.35,.22,.5,.07,.08,.14,.17,.23,.25,.09-.08,.17-.17,.24-.25Z"/><path class="cls-1" d="M273.9,38.9c-.13,.16-.27,.29-.44,.42-.29,.21-.72,.42-1.29,.42-1.26,0-2.22-.96-2.22-2.16s.96-2.16,2.22-2.16c.58,0,1,.2,1.28,.41,.16,.12,.31,.25,.43,.4l-.42,.42c-.08-.11-.19-.22-.32-.31-.22-.16-.54-.32-.97-.32-.87,0-1.56,.69-1.56,1.56s.69,1.56,1.56,1.56c.43,0,.76-.16,.98-.33,.13-.1,.25-.2,.34-.33l.42,.42Z"/><path class="cls-1" d="M274.63,38.81c.06,.08,.13,.14,.2,.2,.14,.1,.31,.19,.54,.19,.34,0,.51-.17,.51-.36,0-.48-1.53-.23-1.53-1.26,0-.45,.4-.84,1.05-.84,.34,0,.6,.1,.77,.2,.1,.05,.19,.12,.25,.19l-.39,.39s-.1-.08-.17-.12c-.11-.07-.27-.12-.46-.12-.31,0-.45,.15-.45,.3,0,.48,1.53,.24,1.53,1.26,0,.48-.41,.9-1.11,.9-.38,0-.66-.13-.85-.27-.11-.08-.21-.17-.29-.27l.39-.39Z"/><path class="cls-1" d="M276.97,39.35c0-.21,.18-.39,.39-.39s.39,.18,.39,.39-.18,.39-.39,.39-.39-.18-.39-.39Z"/><path class="cls-1" d="M144.01,42.48h.6l2.31,3.09v-3.09h.66v4.2h-.6l-2.31-3.09v3.09h-.66v-4.2Z"/><path class="cls-1" d="M148.81,45.66c.07,.09,.15,.17,.25,.24,.17,.12,.44,.24,.8,.24,.55,0,.84-.29,.84-.63,0-.93-2.22-.36-2.22-1.92,0-.63,.55-1.17,1.44-1.17,.43,0,.76,.13,.98,.27,.13,.08,.25,.17,.33,.27l-.45,.45c-.07-.07-.14-.14-.22-.19-.14-.1-.37-.2-.65-.2-.51,0-.78,.26-.78,.57,0,.93,2.22,.36,2.22,1.92,0,.66-.57,1.23-1.5,1.23-.51,0-.89-.15-1.13-.31-.14-.09-.26-.2-.37-.32l.45-.45Z"/><path class="cls-1" d="M151.6,42.48h.69l1.02,3.15,.99-3.15h.66l.99,3.15,1.02-3.15h.69l-1.38,4.2h-.66l-.99-3.15-.99,3.15h-.66l-1.38-4.2Z"/><path class="cls-1" d="M160.24,43.11h-1.26v-.63h3.18v.63h-1.26v3.57h-.66v-3.57Z"/><path class="cls-1" d="M162.88,42.48h1.68c.82,0,1.41,.6,1.41,1.35s-.59,1.35-1.41,1.35h-1.02v1.5h-.66v-4.2Zm1.68,2.1c.42,0,.75-.33,.75-.75s-.33-.75-.75-.75h-1.02v1.5h1.02Z"/><path class="cls-1" d="M168.04,42.42h.54l-1.8,5.52h-.54l1.8-5.52Z"/><path class="cls-1" d="M168.91,44.58c0-1.37,.78-2.16,1.74-2.16s1.74,.79,1.74,2.16-.78,2.16-1.74,2.16-1.74-.79-1.74-2.16Zm1.74-1.56c-.57,0-1.08,.51-1.08,1.56s.51,1.56,1.08,1.56,1.08-.51,1.08-1.56-.51-1.56-1.08-1.56Z"/><path class="cls-1" d="M175.75,46.05v.63h-2.82c0-1.89,2.16-1.94,2.16-2.97,0-.39-.27-.66-.75-.66-.32,0-.52,.14-.64,.29-.07,.08-.13,.18-.17,.28l-.54-.24c.05-.18,.14-.34,.26-.48,.2-.24,.53-.48,1.09-.48,.84,0,1.41,.57,1.41,1.29,0,1.23-1.56,1.41-2.04,2.34h2.04Z"/><path class="cls-1" d="M176.41,44.58c0-1.37,.78-2.16,1.74-2.16s1.74,.79,1.74,2.16-.78,2.16-1.74,2.16-1.74-.79-1.74-2.16Zm1.74-1.56c-.57,0-1.08,.51-1.08,1.56s.51,1.56,1.08,1.56,1.08-.51,1.08-1.56-.51-1.56-1.08-1.56Z"/><path class="cls-1" d="M182.02,42.48h.72l-.96,1.47h.07s.11-.03,.2-.03c.81,0,1.44,.63,1.44,1.41s-.63,1.41-1.5,1.41-1.5-.63-1.5-1.41c0-.24,.07-.47,.15-.64,.04-.1,.1-.2,.15-.29l1.23-1.92Zm-.03,3.66c.48,0,.84-.36,.84-.81s-.36-.81-.84-.81-.84,.36-.84,.81,.36,.81,.84,.81Z"/><path class="cls-1" d="M186.79,46.05v.63h-2.82c0-1.89,2.16-1.94,2.16-2.97,0-.39-.27-.66-.75-.66-.32,0-.52,.14-.64,.29-.07,.08-.13,.18-.17,.28l-.54-.24c.05-.18,.14-.34,.26-.48,.2-.24,.53-.48,1.09-.48,.84,0,1.41,.57,1.41,1.29,0,1.23-1.56,1.41-2.04,2.34h2.04Z"/><path class="cls-1" d="M187.39,46.35c0-.21,.18-.39,.39-.39s.39,.18,.39,.39-.18,.39-.39,.39-.39-.18-.39-.39Z"/><path class="cls-1" d="M191.44,42.48h.72l1.68,4.2h-.69l-.42-1.08h-1.86l-.42,1.08h-.69l1.68-4.2Zm1.05,2.52l-.69-1.74-.69,1.74h1.38Z"/><path class="cls-1" d="M198.06,45.9c-.13,.16-.27,.29-.44,.42-.29,.21-.72,.42-1.29,.42-1.26,0-2.22-.96-2.22-2.16s.96-2.16,2.22-2.16c.58,0,.99,.2,1.28,.41,.16,.12,.3,.25,.43,.4l-.42,.42c-.08-.11-.19-.22-.32-.31-.22-.16-.54-.32-.97-.32-.87,0-1.56,.69-1.56,1.56s.69,1.56,1.56,1.56c.43,0,.76-.16,.98-.33,.13-.1,.25-.2,.34-.33l.42,.42Z"/><path class="cls-1" d="M199.63,43.11h-1.26v-.63h3.18v.63h-1.26v3.57h-.66v-3.57Z"/><path class="cls-1" d="M204.13,43.11h-1.26v-.63h3.18v.63h-1.26v3.57h-.66v-3.57Z"/><path class="cls-1" d="M206.77,42.48h1.68c.82,0,1.41,.6,1.41,1.35s-.59,1.35-1.41,1.35h-1.02v1.5h-.66v-4.2Zm1.68,2.1c.42,0,.75-.33,.75-.75s-.33-.75-.75-.75h-1.02v1.5h1.02Z"/><path class="cls-1" d="M214.23,46.05v.63h-2.82c0-1.89,2.16-1.94,2.16-2.97,0-.39-.27-.66-.75-.66-.32,0-.52,.14-.64,.29-.07,.08-.12,.18-.17,.28l-.54-.24c.05-.18,.14-.34,.26-.48,.2-.24,.53-.48,1.09-.48,.84,0,1.41,.57,1.41,1.29,0,1.23-1.56,1.41-2.04,2.34h2.04Z"/><path class="cls-1" d="M217.59,46.05v.63h-2.82c0-1.89,2.16-1.94,2.16-2.97,0-.39-.27-.66-.75-.66-.32,0-.52,.14-.64,.29-.07,.08-.13,.18-.17,.28l-.54-.24c.05-.18,.14-.34,.26-.48,.2-.24,.53-.48,1.09-.48,.84,0,1.41,.57,1.41,1.29,0,1.23-1.56,1.41-2.04,2.34h2.04Z"/><path class="cls-1" d="M219.73,42.42h.54l-1.8,5.52h-.54l1.8-5.52Z"/><path class="cls-1" d="M220.6,44.58c0-1.37,.78-2.16,1.74-2.16s1.74,.79,1.74,2.16-.78,2.16-1.74,2.16-1.74-.79-1.74-2.16Zm1.74-1.56c-.57,0-1.08,.51-1.08,1.56s.51,1.56,1.08,1.56,1.08-.51,1.08-1.56-.51-1.56-1.08-1.56Z"/><path class="cls-1" d="M225.37,43.47h-.75v-.42c.54-.07,.75-.27,.9-.57h.51v4.2h-.66v-3.21Z"/><path class="cls-1" d="M227.32,45.66c.07,.09,.15,.17,.25,.24,.17,.12,.41,.24,.77,.24,.54,0,.87-.33,.87-.81s-.32-.81-.87-.81c-.26,0-.44,.11-.58,.21-.08,.07-.14,.13-.2,.21l-.48-.06,.15-2.4h2.37v.63h-1.8l-.06,1.02c.05-.04,.12-.07,.19-.1,.13-.05,.29-.11,.53-.11,.82,0,1.41,.59,1.41,1.41s-.6,1.41-1.53,1.41c-.5,0-.86-.15-1.1-.31-.14-.09-.26-.2-.37-.32l.45-.45Z"/><path class="cls-1" d="M233.07,46.05v.63h-2.82c0-1.89,2.16-1.94,2.16-2.97,0-.39-.27-.66-.75-.66-.32,0-.52,.14-.64,.29-.07,.08-.12,.18-.17,.28l-.54-.24c.05-.18,.14-.34,.26-.48,.2-.24,.53-.48,1.09-.48,.84,0,1.41,.57,1.41,1.29,0,1.23-1.56,1.41-2.04,2.34h2.04Z"/><path class="cls-1" d="M234.37,43.47h-.75v-.42c.54-.07,.75-.27,.9-.57h.51v4.2h-.66v-3.21Z"/><path class="cls-1" d="M235.9,46.35c0-.21,.18-.39,.39-.39s.39,.18,.39,.39-.18,.39-.39,.39-.39-.18-.39-.39Z"/><path class="cls-1" d="M238.84,45.66c.07,.09,.15,.17,.25,.24,.17,.12,.44,.24,.8,.24,.55,0,.84-.29,.84-.63,0-.93-2.22-.36-2.22-1.92,0-.63,.55-1.17,1.44-1.17,.43,0,.76,.13,.98,.27,.13,.08,.25,.17,.33,.27l-.45,.45c-.07-.07-.14-.14-.22-.19-.14-.1-.37-.2-.65-.2-.51,0-.78,.26-.78,.57,0,.93,2.22,.36,2.22,1.92,0,.66-.57,1.23-1.5,1.23-.51,0-.89-.15-1.13-.31-.14-.09-.26-.2-.37-.32l.45-.45Z"/><path class="cls-1" d="M243.37,42.48h.72l1.68,4.2h-.69l-.42-1.08h-1.86l-.42,1.08h-.69l1.68-4.2Zm1.05,2.52l-.69-1.74-.69,1.74h1.38Z"/><path class="cls-1" d="M248.29,43.11h-1.26v-.63h3.18v.63h-1.26v3.57h-.66v-3.57Z"/><path class="cls-1" d="M253.36,46.05v.63h-2.82c0-1.89,2.16-1.94,2.16-2.97,0-.39-.27-.66-.75-.66-.32,0-.52,.14-.64,.29-.07,.08-.13,.18-.17,.28l-.54-.24c.05-.18,.14-.34,.26-.48,.2-.24,.53-.48,1.09-.48,.84,0,1.41,.57,1.41,1.29,0,1.23-1.56,1.41-2.04,2.34h2.04Z"/><path class="cls-1" d="M256.71,46.05v.63h-2.82c0-1.89,2.16-1.94,2.16-2.97,0-.39-.27-.66-.75-.66-.32,0-.52,.14-.64,.29-.07,.08-.13,.18-.17,.28l-.54-.24c.05-.18,.14-.34,.26-.48,.2-.24,.53-.48,1.09-.48,.84,0,1.41,.57,1.41,1.29,0,1.23-1.56,1.41-2.04,2.34h2.04Z"/><path class="cls-1" d="M258.85,42.42h.54l-1.8,5.52h-.54l1.8-5.52Z"/><path class="cls-1" d="M260.35,43.47h-.75v-.42c.54-.07,.76-.27,.9-.57h.51v4.2h-.66v-3.21Z"/><path class="cls-1" d="M262.57,43.47h-.75v-.42c.54-.07,.76-.27,.9-.57h.51v4.2h-.66v-3.21Z"/><path class="cls-1" d="M265.81,45.21l-.07,.02s-.12,.01-.21,.01c-.81,0-1.44-.63-1.44-1.41s.63-1.41,1.5-1.41,1.5,.63,1.5,1.41c0,.24-.08,.47-.15,.65-.04,.1-.1,.2-.15,.28l-1.23,1.92h-.72l.96-1.47Zm-.21-.57c.48,0,.84-.36,.84-.81s-.36-.81-.84-.81-.84,.36-.84,.81,.36,.81,.84,.81Z"/><path class="cls-1" d="M267.7,44.58c0-1.37,.78-2.16,1.74-2.16s1.74,.79,1.74,2.16-.78,2.16-1.74,2.16-1.74-.79-1.74-2.16Zm1.74-1.56c-.57,0-1.08,.51-1.08,1.56s.51,1.56,1.08,1.56,1.08-.51,1.08-1.56-.51-1.56-1.08-1.56Z"/><path class="cls-1" d="M271.78,46.35c0-.21,.18-.39,.39-.39s.39,.18,.39,.39-.18,.39-.39,.39-.39-.18-.39-.39Z"/></svg>