<svg id="Layer_1" data-name="Layer 1" xmlns="http://www.w3.org/2000/svg" xmlns:xlink="http://www.w3.org/1999/xlink" viewBox="0 0 728 90"><defs><style>.cls-1{fill:none;}.cls-2{clip-path:url(#clip-path);}.cls-3{clip-path:url(#clip-path-3);}.cls-4{clip-path:url(#clip-path-4);}.cls-5{clip-path:url(#clip-path-5);}.cls-6{fill:#221e1f;}</style><clipPath id="clip-path"><rect class="cls-1" x="-2992" width="728" height="90"/></clipPath><clipPath id="clip-path-3"><rect class="cls-1" x="-2557.01" y="30.56" width="59.44" height="59.08"/></clipPath><clipPath id="clip-path-4"><rect class="cls-1" x="-35760" y="-32677" width="65535" height="65535"/></clipPath><clipPath id="clip-path-5"><rect class="cls-1" width="728" height="90"/></clipPath></defs><g class="cls-5"><path class="cls-6" d="M59.69,36c5.79,0,8.88,3.69,9.24,8.4L64,44.58c-.3-2.1-1.44-4-4.38-4-2.79,0-4.41,2.07-4.41,5.28s1.62,5.28,4.41,5.28c2.94,0,4.08-2,4.38-4.05l4.89.21c-.36,4.71-3.45,8.37-9.24,8.37A9.41,9.41,0,0,1,50,45.81,9.41,9.41,0,0,1,59.69,36Z"/><path class="cls-6" d="M75.65,55.26H70.79V36.36h4.86v7.53A4.58,4.58,0,0,1,80,41.52c3.66,0,4.83,2.55,4.83,5.34v8.4H79.94V48.15c0-1.83-.51-2.79-2-2.79-1.65,0-2.31,1.32-2.31,3.33Z"/><path class="cls-6" d="M99.8,51.33c0,.69.3,1,.81,1a2.77,2.77,0,0,0,1.08-.21v2.58a5.13,5.13,0,0,1-3,.87,3.3,3.3,0,0,1-3.39-2.37c-.78,1.56-2.31,2.37-4.44,2.37-2.61,0-4.32-1.35-4.32-3.63,0-2.58,1.86-3.69,4.77-4.2L95,47.1v-.21c0-1.11-.51-1.77-1.68-1.77a1.81,1.81,0,0,0-1.83,1.68L87,46.5c.42-2.94,2.61-5,6.63-5,3.54,0,6.15,1.53,6.15,5.25ZM95,49.47l-2,.36c-1.17.24-1.86.6-1.86,1.47,0,.69.54,1.14,1.35,1.14A2.51,2.51,0,0,0,95,49.68Z"/><path class="cls-6" d="M106.37,50.85c.18,1.11,1.08,1.74,2.55,1.74,1.08,0,1.65-.39,1.65-.93s-.3-.87-1.23-1l-2-.3c-3.24-.51-5-1.56-5-4.29s2.31-4.53,6.06-4.53,6.15,1.71,6.42,4.5l-4,.12c-.18-1-1-1.56-2.52-1.56-.93,0-1.47.36-1.47,1s.36.69.81.75l2.61.45c3,.48,4.74,1.83,4.74,4.44,0,2.82-2.4,4.44-6.21,4.44s-6.45-1.47-6.72-4.71Z"/><path class="cls-6" d="M116.9,36.36h4.92v4.26H116.9Zm4.89,5.52V55.26h-4.86V41.88Z"/><path class="cls-6" d="M129.29,55.26h-4.86V41.88h4.86v2a4.58,4.58,0,0,1,4.32-2.37c3.66,0,4.83,2.55,4.83,5.34v8.4h-4.86V48.15c0-1.83-.51-2.79-2-2.79-1.65,0-2.31,1.32-2.31,3.33Z"/><path class="cls-6" d="M147.05,50.67a9.76,9.76,0,0,1-2.91-.39.77.77,0,0,0-.27.63c0,.45.33.81,1.14.81h5.55c3,0,4.56,1.59,4.56,3.84,0,3.33-4.05,4.86-8.4,4.86-3.81,0-7.11-.75-7.11-3.27a2.46,2.46,0,0,1,2.55-2.22,2.74,2.74,0,0,1-1.92-2.61,3,3,0,0,1,2.28-2.82,3.91,3.91,0,0,1-1.92-3.39c0-2.85,2.7-4.59,6.45-4.59a8.42,8.42,0,0,1,4.29,1.08,5,5,0,0,1,3.75-2.07v3.66a9.2,9.2,0,0,0-2,.21,3.61,3.61,0,0,1,.42,1.71C153.56,48.93,150.83,50.67,147.05,50.67Zm-.3,7.23c2.25,0,3.9-.45,3.9-1.26,0-.57-.42-.78-1.23-.78H144.5a.8.8,0,0,0-.9.81C143.6,57.63,145,57.9,146.75,57.9Zm.36-13.71c-.81,0-1.41.75-1.41,1.92s.6,2,1.41,2,1.41-.75,1.41-2S147.92,44.19,147.11,44.19Z"/><path class="cls-6" d="M169.73,40a2.42,2.42,0,0,0-1.32-.36c-.81,0-1.23.63-1.23,1.47v.75h2.58v3.36h-2.58v10h-4.8v-10h-1.92V41.88h1.92v-.57c0-3.48,1.74-5.31,4.86-5.31a6.48,6.48,0,0,1,3,.63Zm6.3-3.66v18.9h-4.86V36.36Z"/><path class="cls-6" d="M191.18,51.33c0,.69.3,1,.81,1a2.77,2.77,0,0,0,1.08-.21v2.58a5.13,5.13,0,0,1-3,.87,3.3,3.3,0,0,1-3.39-2.37c-.78,1.56-2.31,2.37-4.44,2.37-2.61,0-4.32-1.35-4.32-3.63,0-2.58,1.86-3.69,4.77-4.2l3.75-.63v-.21c0-1.11-.51-1.77-1.68-1.77a1.81,1.81,0,0,0-1.83,1.68l-4.5-.3c.42-2.94,2.61-5,6.63-5,3.54,0,6.15,1.53,6.15,5.25Zm-4.77-1.86-2,.36c-1.17.24-1.86.6-1.86,1.47,0,.69.54,1.14,1.35,1.14a2.51,2.51,0,0,0,2.49-2.76Z"/><path class="cls-6" d="M195,45.24h-1.8v-3l1-.15c1.35-.21,1.77-.93,2.1-2.16l.45-1.74h3.06v3.69h3.48v3.36h-3.48v4.89c0,1.14.54,1.59,1.53,1.59a5.39,5.39,0,0,0,2.07-.45v3.15a6.29,6.29,0,0,1-4,1.2c-2.25,0-4.38-.93-4.38-4.08Z"/><path class="cls-6" d="M205.7,45.24h-1.8v-3l1-.15c1.35-.21,1.77-.93,2.1-2.16l.45-1.74h3.06v3.69H214v3.36H210.5v4.89c0,1.14.54,1.59,1.53,1.59a5.39,5.39,0,0,0,2.07-.45v3.15a6.29,6.29,0,0,1-4,1.2c-2.25,0-4.38-.93-4.38-4.08Z"/><path class="cls-6" d="M215.93,36.36h4.92v4.26h-4.92Zm4.89,5.52V55.26H216V41.88Z"/><path class="cls-6" d="M236.78,50.85c-.69,3.06-3.15,4.77-6.69,4.77-4.29,0-7.35-2.58-7.35-6.84A7.05,7.05,0,0,1,230,41.52c4.47,0,6.84,3.06,6.84,6.69v1.35h-9.39A2.54,2.54,0,0,0,230.27,52a2.49,2.49,0,0,0,2.61-1.5Zm-4.53-3.63A2.19,2.19,0,0,0,230,45a2.29,2.29,0,0,0-2.43,2.22Z"/><path class="cls-6" d="M242.12,50.85c.18,1.11,1.08,1.74,2.55,1.74,1.08,0,1.65-.39,1.65-.93s-.3-.87-1.23-1l-2-.3c-3.24-.51-5-1.56-5-4.29s2.31-4.53,6.06-4.53,6.15,1.71,6.42,4.5l-4,.12c-.18-1-1-1.56-2.52-1.56-.93,0-1.47.36-1.47,1s.36.69.81.75l2.61.45c3,.48,4.74,1.83,4.74,4.44,0,2.82-2.4,4.44-6.21,4.44s-6.45-1.47-6.72-4.71Z"/><path class="cls-6" d="M264.68,55.62c-4.38,0-7.32-2.88-7.32-7s2.94-7,7.32-7,7.32,2.91,7.32,7S269,55.62,264.68,55.62Zm0-3.66c1.68,0,2.43-1.38,2.43-3.39s-.75-3.39-2.43-3.39-2.43,1.38-2.43,3.39S263,52,264.68,52Z"/><path class="cls-6" d="M277.52,55.26l-5-13.38h5.1l2.9,8.31h.13l2.91-8.31h4.71l-5,13.38Z"/><path class="cls-6" d="M302.87,50.85c-.7,3.06-3.16,4.77-6.7,4.77-4.28,0-7.34-2.58-7.34-6.84a7.05,7.05,0,0,1,7.29-7.26c4.46,0,6.84,3.06,6.84,6.69v1.35h-9.39A2.54,2.54,0,0,0,296.36,52a2.48,2.48,0,0,0,2.6-1.5Zm-4.54-3.63A2.18,2.18,0,0,0,296.06,45a2.3,2.3,0,0,0-2.44,2.22Z"/><path class="cls-6" d="M315,46.62a4.32,4.32,0,0,0-2.3-.57c-1.8,0-2.92.84-2.92,3.09v6.12h-4.85V41.88h4.85v2.37a3.9,3.9,0,0,1,3.67-2.73,3.19,3.19,0,0,1,1.85.51Z"/><path class="cls-6" d="M326,55.26h-3.75V36.36h4.86v7.83a4.45,4.45,0,0,1,4.41-2.67c3.93,0,5.94,3.12,5.94,7s-2,7-6,7A4.84,4.84,0,0,1,326.8,53Zm1.11-6.6c0,2,1.05,3.21,2.7,3.21,1.89,0,2.76-1.35,2.76-3.3s-.87-3.27-2.76-3.27c-1.65,0-2.7,1.26-2.7,3.18Z"/><path class="cls-6" d="M339.31,36.36h4.92v4.26h-4.92Zm4.89,5.52V55.26h-4.86V41.88Z"/><path class="cls-6" d="M351.7,36.36v18.9h-4.86V36.36Z"/><path class="cls-6" d="M359.2,36.36v18.9h-4.86V36.36Z"/><path class="cls-6" d="M365.11,50.85c.18,1.11,1.08,1.74,2.55,1.74,1.08,0,1.65-.39,1.65-.93s-.3-.87-1.23-1l-2-.3c-3.24-.51-5-1.56-5-4.29s2.31-4.53,6.06-4.53,6.15,1.71,6.42,4.5l-4,.12c-.18-1-1-1.56-2.52-1.56-.93,0-1.47.36-1.47,1s.36.69.81.75l2.61.45c3,.48,4.74,1.83,4.74,4.44,0,2.82-2.4,4.44-6.21,4.44s-6.45-1.47-6.72-4.71Z"/><path class="cls-6" d="M380,49a5,5,0,0,1,2-3.84c1.2-1,2.13-1.68,2.13-3a1.72,1.72,0,0,0-1.89-1.77c-1.71,0-2.31,1.2-2.31,2.73a5,5,0,0,0,.21,1.56l-5-.15a9.28,9.28,0,0,1-.24-1.77c0-4,3-6.69,7.35-6.69,4.59,0,7.2,2.58,7.2,5.82,0,2.46-1.5,3.84-3.21,5.1-1,.72-1.47,1.29-1.53,2Zm-.24,1.14h5.16v5.16h-5.16Z"/></g></svg>