<svg id="Layer_1" data-name="Layer 1" xmlns="http://www.w3.org/2000/svg" xmlns:xlink="http://www.w3.org/1999/xlink" viewBox="0 0 728 90"><defs><style>.cls-1{fill:none;}.cls-2{clip-path:url(#clip-path);}.cls-3{clip-path:url(#clip-path-3);}.cls-4{clip-path:url(#clip-path-4);}.cls-5{clip-path:url(#clip-path-5);}.cls-6{clip-path:url(#clip-path-7);}.cls-7{clip-path:url(#clip-path-8);}.cls-8{clip-path:url(#clip-path-9);}.cls-9{fill:#221e1f;}</style><clipPath id="clip-path"><rect class="cls-1" x="-3740" width="728" height="90"/></clipPath><clipPath id="clip-path-3"><rect class="cls-1" x="-3305.01" y="30.56" width="59.44" height="59.08"/></clipPath><clipPath id="clip-path-4"><rect class="cls-1" x="-36508" y="-32677" width="65535" height="65535"/></clipPath><clipPath id="clip-path-5"><rect class="cls-1" x="-748" width="728" height="90"/></clipPath><clipPath id="clip-path-7"><rect class="cls-1" x="-313.01" y="30.56" width="59.44" height="59.08"/></clipPath><clipPath id="clip-path-8"><rect class="cls-1" x="-33516" y="-32677" width="65535" height="65535"/></clipPath><clipPath id="clip-path-9"><rect class="cls-1" width="728" height="90"/></clipPath></defs><g class="cls-8"><path class="cls-9" d="M59.84,55.26H50V36.36h9.21c4.86,0,7.05,2,7.05,5.22a3.77,3.77,0,0,1-3.36,3.87,4.48,4.48,0,0,1,3.93,4.62C66.83,53.34,64.25,55.26,59.84,55.26ZM55,43.86h3.6c1.74,0,2.43-.78,2.43-1.68s-.69-1.77-2.43-1.77H55Zm0,3.81v3.51H59c1.77,0,2.55-.72,2.55-1.74S60.8,47.67,59,47.67Z"/><path class="cls-9" d="M68.72,47.76V36.36h5.07V46.92c0,2.88.9,4.41,3.51,4.41s3.51-1.53,3.51-4.41V36.36h5.1v11.4c0,5.52-3.75,7.86-8.61,7.86S68.72,53.28,68.72,47.76Z"/><path class="cls-9" d="M97.49,36c5.79,0,8.88,3.69,9.24,8.4l-4.89.18c-.3-2.1-1.44-4-4.38-4-2.79,0-4.41,2.07-4.41,5.28s1.62,5.28,4.41,5.28c2.94,0,4.08-2,4.38-4.05l4.89.21c-.36,4.71-3.45,8.37-9.24,8.37a9.41,9.41,0,0,1-9.69-9.81A9.41,9.41,0,0,1,97.49,36Z"/><path class="cls-9" d="M120.71,55.26l-5.25-7.53-1.65,1.8v5.73h-5.1V36.36h5.1V44l6.78-7.65h5.85l-7.29,8,7.65,10.86Z"/><path class="cls-9" d="M134.6,45.24h-1.8v-3l1-.15c1.35-.21,1.77-.93,2.1-2.16l.45-1.74h3.06v3.69h3.48v3.36H139.4v4.89c0,1.14.54,1.59,1.53,1.59a5.39,5.39,0,0,0,2.07-.45v3.15a6.29,6.29,0,0,1-4,1.2c-2.25,0-4.38-.93-4.38-4.08Z"/><path class="cls-9" d="M150.17,55.26h-4.86V36.36h4.86v7.53a4.58,4.58,0,0,1,4.32-2.37c3.66,0,4.83,2.55,4.83,5.34v8.4h-4.86V48.15c0-1.83-.51-2.79-2-2.79-1.65,0-2.31,1.32-2.31,3.33Z"/><path class="cls-9" d="M175.58,50.85c-.69,3.06-3.15,4.77-6.69,4.77-4.29,0-7.35-2.58-7.35-6.84a7.05,7.05,0,0,1,7.29-7.26c4.47,0,6.84,3.06,6.84,6.69v1.35h-9.39A2.54,2.54,0,0,0,169.07,52a2.49,2.49,0,0,0,2.61-1.5Zm-4.53-3.63A2.19,2.19,0,0,0,168.77,45a2.29,2.29,0,0,0-2.43,2.22Z"/><path class="cls-9" d="M195.86,41.52c3.69,0,4.77,2.55,4.77,5.34v8.4h-4.86V48.15c0-1.83-.33-2.79-1.8-2.79-1.62,0-2.16,1.32-2.16,3.33v6.57H187V48.15c0-1.83-.36-2.79-1.83-2.79S183,46.68,183,48.69v6.57H178.1V41.88H183v2a4.35,4.35,0,0,1,4.17-2.37c2.37,0,3.6,1.08,4.17,2.64A4.84,4.84,0,0,1,195.86,41.52Z"/><path class="cls-9" d="M203.15,50.1h5.16v5.16h-5.16Z"/></g></svg>