<svg xmlns="http://www.w3.org/2000/svg" viewBox="0 0 320 50"><defs><style>.cls-1{fill:#fff;}.cls-2{fill:#004c52;}</style></defs><g id="Layer_1" data-name="Layer 1"><path class="cls-1" d="M154,35.77h1.36V34.41h.92v1.36h1.36v1h-1.36v1.36h-.92V36.77H154Z"/><path class="cls-2" d="M158.74,37.05a1.76,1.76,0,0,0,.35.31,1.72,1.72,0,0,0,1,.29c.64,0,.92-.28.92-.64,0-.95-2.8-.53-2.8-2.48,0-.8.56-1.35,1.48-1.6v-.72h1v.72a2.59,2.59,0,0,1,1,.41,3,3,0,0,1,.38.31l-.8.8a2.2,2.2,0,0,0-.28-.24,1.37,1.37,0,0,0-.76-.24c-.61,0-.84.24-.84.56,0,.95,2.8.53,2.8,2.48a1.78,1.78,0,0,1-1.52,1.68v.72h-1v-.72a3.22,3.22,0,0,1-1.29-.48,2.22,2.22,0,0,1-.43-.36Z"/><path class="cls-2" d="M163.49,34.53h-1v-.76a1.52,1.52,0,0,0,.91-.42,1.31,1.31,0,0,0,.24-.34h1v5.6h-1.2Z"/><path class="cls-2" d="M165.65,35.81c0-1.8,1.12-2.92,2.4-2.92s2.39,1.12,2.39,2.92-1.11,2.92-2.39,2.92S165.65,37.61,165.65,35.81Zm3.6,0c0-1.2-.6-1.8-1.2-1.8s-1.2.6-1.2,1.8.6,1.8,1.2,1.8S169.25,37,169.25,35.81Z"/><path class="cls-2" d="M171.4,37.41l.92.52-1.12,1.72-.64-.36Z"/><path class="cls-2" d="M172.83,35.81c0-1.8,1.12-2.92,2.4-2.92s2.4,1.12,2.4,2.92-1.12,2.92-2.4,2.92S172.83,37.61,172.83,35.81Zm3.6,0c0-1.2-.6-1.8-1.2-1.8s-1.2.6-1.2,1.8.6,1.8,1.2,1.8S176.43,37,176.43,35.81Z"/><path class="cls-2" d="M178.26,35.81c0-1.8,1.12-2.92,2.4-2.92s2.4,1.12,2.4,2.92-1.12,2.92-2.4,2.92S178.26,37.61,178.26,35.81Zm3.6,0c0-1.2-.6-1.8-1.2-1.8s-1.2.6-1.2,1.8.6,1.8,1.2,1.8S181.86,37,181.86,35.81Z"/><path class="cls-2" d="M183.7,35.81c0-1.8,1.11-2.92,2.39-2.92s2.4,1.12,2.4,2.92-1.12,2.92-2.4,2.92S183.7,37.61,183.7,35.81Zm3.59,0c0-1.2-.6-1.8-1.2-1.8s-1.19.6-1.19,1.8.59,1.8,1.19,1.8S187.29,37,187.29,35.81Z"/><path class="cls-2" d="M191,33h1.2v5.6H191Z"/><path class="cls-2" d="M193.43,33h1.08l2.72,3.48V33h1.2v5.6h-1.08l-2.72-3.48v3.48h-1.2Z"/><path class="cls-2" d="M201.21,33h2.36a1.88,1.88,0,1,1,0,3.76h-1.16v1.84h-1.2Zm2.32,2.64a.76.76,0,1,0,0-1.52h-1.12v1.52Z"/><path class="cls-2" d="M206.49,33H209a1.92,1.92,0,0,1,1.47,3.19,1.37,1.37,0,0,1-.48.33l1.16,2.08H209.8l-1-1.84h-1.12v1.84h-1.2Zm2.44,2.64a.76.76,0,0,0,0-1.52h-1.24v1.52Z"/><path class="cls-2" d="M212,33h1.2v5.6H212Z"/><path class="cls-2" d="M214.07,37.49l2.84-3.36h-2.72V33h4.24v1.12l-2.84,3.36h2.92v1.12h-4.44Z"/><path class="cls-2" d="M219.42,33h4.16v1.12h-3v1.08h2.32v1.08h-2.32v1.2h3v1.12h-4.24Z"/><path class="cls-2" d="M224.81,37.05a1.76,1.76,0,0,0,.35.31,1.72,1.72,0,0,0,1,.29c.64,0,.92-.28.92-.64,0-.95-2.8-.53-2.8-2.48,0-.88.76-1.64,2-1.64a2.6,2.6,0,0,1,1.41.39,2.56,2.56,0,0,1,.47.37l-.8.8a1.68,1.68,0,0,0-.28-.24,1.37,1.37,0,0,0-.76-.24c-.6,0-.84.24-.84.56,0,.95,2.8.53,2.8,2.48a1.88,1.88,0,0,1-2.12,1.72,3.07,3.07,0,0,1-1.62-.44,1.94,1.94,0,0,1-.53-.44Z"/></g></svg>