<?xml version="1.0" encoding="utf-8"?>
<!-- Generator: Adobe Illustrator 25.2.1, SVG Export Plug-In . SVG Version: 6.00 Build 0)  -->
<svg version="1.1" id="Layer_1" xmlns="http://www.w3.org/2000/svg" xmlns:xlink="http://www.w3.org/1999/xlink" x="0px" y="0px"
	 viewBox="0 0 320 250" style="enable-background:new 0 0 320 250;" xml:space="preserve">
<style type="text/css">
	.st0{clip-path:url(#SVGID_2_);}
	.st1{enable-background:new    ;}
	.st2{fill:#EE4627;}
</style>
<g>
	<defs>
		<rect id="SVGID_1_" x="27.7" y="93.1" width="181.6" height="40"/>
	</defs>
	<clipPath id="SVGID_2_">
		<use xlink:href="#SVGID_1_"  style="overflow:visible;"/>
	</clipPath>
	<g class="st0">
		<g class="st1">
			<path class="st2" d="M39.7,109.6l-3.8-7.1l-2.4,6.9h-3.5L35.5,95h0.2l4.1,8.2l4.1-8.2h0.2l5.4,14.4h-3.5l-2.4-6.9l-3.8,7.1H39.7z
				"/>
			<path class="st2" d="M54.7,103.9v2.5h6.6v3h-9.9V95.1h9.9v3h-6.6v2.7h5.2v3H54.7z"/>
			<path class="st2" d="M63.8,109.4V95.1h5.2c5.4,0,7.1,4.2,7.1,7.1c0,3.1-1.7,7.2-7.1,7.2H63.8z M68.9,106.4c3.3,0,3.8-3.1,3.8-4.1
				s-0.5-4.1-3.8-4.1H67v8.2H68.9z"/>
			<path class="st2" d="M81.8,109.4h-3.3V95.1h3.3V109.4z"/>
			<path class="st2" d="M97.5,109.4h-3.7l-1.2-3h-4l-1.2,3h-3.7L90.4,95h0.3L97.5,109.4z M89.6,103.9h1.9l-0.9-2.3L89.6,103.9z"/>
		</g>
		<g class="st1">
			<path class="st2" d="M31.6,130.1v-14.3h5.2c5.4,0,7.1,4.2,7.1,7.1c0,3.1-1.7,7.2-7.1,7.2H31.6z M36.7,127.1
				c3.3,0,3.8-3.1,3.8-4.1s-0.5-4.1-3.8-4.1h-1.9v8.2H36.7z"/>
			<path class="st2" d="M49.5,130.1h-3.3v-14.3h3.3V130.1z"/>
			<path class="st2" d="M58.8,121.6c2,0.7,4.2,1.7,4.2,4.3c0,2.5-2.2,4.4-5.3,4.4c-2.1,0-3.8-0.6-5.7-1.6l1.5-2.7
				c1.4,0.7,2.8,1.2,4.1,1.2c1.1,0,2-0.5,2-1.2c0-0.9-1.1-1.3-2.5-1.7c-2.1-0.7-4.7-1.5-4.7-4.4c0-2.7,2-4.3,4.7-4.3
				c0.9,0,2.9,0.1,5.5,1.4l-1.2,2.8c-0.7-0.3-2.8-1.1-4.1-1.1c-0.9,0-1.7,0.3-1.6,1C55.7,120.6,57.2,121,58.8,121.6z"/>
			<path class="st2" d="M68.7,130.1h-3.3v-14.3h3.3V130.1z"/>
			<path class="st2" d="M72.1,115.6l8.4,7.4v-7.2h3.3v14.4l-0.2,0.1l-8.4-7.5v7.4h-3.3v-14.4L72.1,115.6z"/>
		</g>
		<g class="st1">
			<path class="st2" d="M90.3,124.6v5.5h-3.3v-14.3H97v3h-6.6v2.7h5.2v3H90.3z"/>
		</g>
		<g class="st1">
			<path class="st2" d="M112.2,122.9c0,3.1-1.7,7.4-7.1,7.4c-5.4,0-7.1-4.3-7.1-7.4c0-3,1.7-7.4,7.1-7.4
				C110.5,115.6,112.2,120,112.2,122.9z M108.9,122.9c0-1.1-0.5-4.3-3.8-4.3c-3.3,0-3.8,3.2-3.8,4.3s0.5,4.3,3.8,4.3
				C108.4,127.3,108.9,124,108.9,122.9z"/>
			<path class="st2" d="M117.9,130.1h-3.3v-14.3h5.5c4,0,5.2,2.8,5.2,4.7c0,2-1.1,3.5-2.6,4.2l2.5,5.4h-3.6l-2.2-4.8h-1.5V130.1z
				 M122,120.5c0-0.6-0.3-1.7-1.8-1.7h-2.3v3.4h2.4C121.7,122.2,122,121.1,122,120.5z"/>
			<path class="st2" d="M135.9,130.2l-3.8-7.1l-2.4,6.9h-3.5l5.4-14.4h0.2l4.1,8.2l4.1-8.2h0.2l5.4,14.4h-3.5l-2.4-6.9l-3.8,7.1
				H135.9z"/>
		</g>
		<g class="st1">
			<path class="st2" d="M160.1,130.1h-3.7l-1.2-3h-4l-1.2,3h-3.7l6.8-14.4h0.3L160.1,130.1z M152.2,124.6h1.9l-0.9-2.3L152.2,124.6z
				"/>
		</g>
		<g class="st1">
			<path class="st2" d="M162.5,118.9h-3.7v-3h10.8v3h-3.8v11.3h-3.3V118.9z"/>
			<path class="st2" d="M175,130.1h-3.3v-14.3h3.3V130.1z"/>
			<path class="st2" d="M191.6,122.9c0,3.1-1.7,7.4-7.1,7.4c-5.4,0-7.1-4.3-7.1-7.4c0-3,1.7-7.4,7.1-7.4
				C190,115.6,191.6,120,191.6,122.9z M188.3,122.9c0-1.1-0.5-4.3-3.8-4.3c-3.3,0-3.8,3.2-3.8,4.3s0.5,4.3,3.8,4.3
				C187.8,127.3,188.3,124,188.3,122.9z"/>
			<path class="st2" d="M194.3,115.6l8.4,7.4v-7.2h3.3v14.4l-0.2,0.1l-8.4-7.5v7.4h-3.3v-14.4L194.3,115.6z"/>
		</g>
	</g>
</g>
</svg>
