<svg xmlns="http://www.w3.org/2000/svg" viewBox="0 0 123.26 25.3"><defs><style>.cls-1{fill:#ee4627;}.cls-2{fill:#fff;}</style></defs><g id="Layer_2" data-name="Layer 2"><g id="Layer_1-2" data-name="Layer 1"><rect class="cls-1" width="123.26" height="25.3"/><path class="cls-2" d="M18.74,15.68H17.36V9.57H19.7a2,2,0,0,1,2.2,2,2,2,0,0,1-1.12,1.81l1.07,2.29H20.32l-1-2h-.62Zm1.77-4.1a.7.7,0,0,0-.77-.72h-1v1.46h1A.73.73,0,0,0,20.51,11.58Z"/><path class="cls-2" d="M24.63,13.31v1.07h2.83v1.3H23.24V9.57h4.22v1.3H24.63V12h2.21v1.3Z"/><path class="cls-2" d="M31.28,13.61V12.33h2.57v2.48a3,3,0,0,1-2.28.94,2.93,2.93,0,0,1-3-3.14,2.94,2.94,0,0,1,3-3.13,3,3,0,0,1,2.32,1.06l-.86,1a2.32,2.32,0,0,0-1.46-.69A1.65,1.65,0,0,0,30,12.6c0,.45.2,1.86,1.61,1.86a1.62,1.62,0,0,0,.87-.25v-.6Z"/><path class="cls-2" d="M36.71,15.68h-1.4V9.57h1.4Z"/><path class="cls-2" d="M41,12c.85.3,1.78.72,1.78,1.83a2,2,0,0,1-2.26,1.9,4.85,4.85,0,0,1-2.42-.67l.62-1.17a4.27,4.27,0,0,0,1.75.53c.45,0,.83-.22.83-.53s-.47-.55-1-.73c-.88-.29-2-.63-2-1.89a1.81,1.81,0,0,1,2-1.82,5.21,5.21,0,0,1,2.35.59l-.51,1.19a6.06,6.06,0,0,0-1.75-.46c-.36,0-.71.11-.7.44S40.35,11.78,41,12Z"/><path class="cls-2" d="M45.17,10.87H43.58V9.57h4.61v1.3H46.58v4.81H45.17Z"/><path class="cls-2" d="M50.88,13.31v1.07h2.83v1.3H49.48V9.57h4.23v1.3H50.88V12h2.21v1.3Z"/><path class="cls-2" d="M56.52,15.68H55.13V9.57h2.34a2,2,0,0,1,2.21,2,1.94,1.94,0,0,1-1.13,1.81l1.07,2.29H58.1l-1-2h-.62Zm1.76-4.1a.7.7,0,0,0-.77-.72h-1v1.46h1A.72.72,0,0,0,58.28,11.58Z"/><path class="cls-2" d="M65.13,13.31v2.37H63.74V9.57H68v1.3H65.13V12h2.22v1.3Z"/><path class="cls-2" d="M74.83,12.61a3,3,0,1,1-6.06,0,3,3,0,1,1,6.06,0Zm-1.42,0a1.62,1.62,0,1,0-3.22,0c0,.46.2,1.85,1.61,1.85S73.41,13.07,73.41,12.61Z"/><path class="cls-2" d="M77.64,15.68H76.25V9.57h2.34a2,2,0,0,1,2.21,2,1.94,1.94,0,0,1-1.13,1.81l1.08,2.29H79.22l-1-2h-.62Zm1.76-4.1a.7.7,0,0,0-.76-.72h-1v1.46h1A.72.72,0,0,0,79.4,11.58Z"/><path class="cls-2" d="M86.25,13.31v2.37H84.87V9.57h4.21v1.3H86.25V12h2.22v1.3Z"/><path class="cls-2" d="M91.89,15.68H90.5V9.57h2.34a2,2,0,0,1,2.21,2,1.94,1.94,0,0,1-1.13,1.81L95,15.68H93.47l-1-2h-.62Zm1.76-4.1a.7.7,0,0,0-.77-.72h-1v1.46h1A.72.72,0,0,0,93.65,11.58Z"/><path class="cls-2" d="M97.78,13.31v1.07h2.83v1.3H96.38V9.57h4.23v1.3H97.78V12H100v1.3Z"/><path class="cls-2" d="M103.43,13.31v1.07h2.82v1.3H102V9.57h4.22v1.3h-2.82V12h2.2v1.3Z"/></g></g></svg>