<svg id="Layer_1" data-name="Layer 1" xmlns="http://www.w3.org/2000/svg" xmlns:xlink="http://www.w3.org/1999/xlink" viewBox="0 0 640 832"><defs><style>.cls-1{fill:none;}.cls-2{clip-path:url(#clip-path);}.cls-3{fill:#fff;}</style><clipPath id="clip-path"><rect class="cls-1" width="640" height="832"/></clipPath></defs><g class="cls-2"><path class="cls-3" d="M119,372.36c2.88,0,4,2,4,4.64s-1.12,4.8-4,4.8H88.2c-2.8,0-5-1.36-5-4.32V334.12c0-3,2.16-4.32,5-4.32h30c3,0,4.08,2.08,4.08,4.72s-1.12,4.64-4.08,4.64H93.64v11.52h18.8c3,0,4.08,2,4.08,4.64S115.4,360,112.44,360H93.64v12.4Z"/><path class="cls-3" d="M145.88,351c-5.36,0-6.4.72-6.4,6.08v21.2c0,3-2.16,4.16-4.88,4.16s-5-1.2-5-4.16v-22c0-12.24,3.92-14.48,16.48-14.48,8.16,0,10.24,1.92,10.24,5,0,2.72-1.52,4.56-4.32,4.56C150.36,351.32,148.92,351,145.88,351Z"/><path class="cls-3" d="M158.92,354.36c0-7.44,5.12-12.56,17.84-12.56,11.68,0,13.92,2.16,13.92,5.68,0,2.56-1,3.92-4.32,3.92-2.4,0-4.8-.88-10.56-.88-4.8,0-7,1-7,2.88,0,6.24,23.44,1.28,23.44,16.56,0,8.88-6.24,12.64-17.6,12.64-13.76,0-15.52-2.08-15.52-5.36,0-2.8,1.12-4.32,4.4-4.32,2.48,0,5.12,1,10.8,1,5.12,0,8-1,8-3.44C182.36,364.52,158.92,369.16,158.92,354.36Z"/><path class="cls-3" d="M200.84,347.32c0-3.6,3-5.52,15-5.52,14.8,0,18.48,2.32,18.48,13.2v15.12c0,10.56-4.72,12.48-18.48,12.48s-17.28-1.92-17.28-12.72c0-8.88,2.16-12.48,16.8-12.48h9.12v-1.6c0-3.92-1.52-4.88-7.52-4.88s-9.6,1-11.92,1C202,351.88,200.84,350.12,200.84,347.32Zm23.68,18.16h-9.68c-5.52,0-6.56,1-6.56,4.08,0,3.36,1.2,4.32,7.92,4.32s8.32-.8,8.32-3Z"/><path class="cls-3" d="M261.08,373.72c2.4,0,3.76-.24,5.44-.24,2.64,0,3.76,1.36,3.76,3.92,0,3.68-1.76,5.2-10.72,5.2-7.6,0-11.36-2.08-11.36-11V351.72h-3.92c-2.8,0-3.84-1.92-3.84-4.56s1-4.56,3.84-4.56h3.92v-6.32c0-2.88,2.24-4.08,4.88-4.08,2.8,0,5,1.2,5,4.08v6.32h8.24c2.8,0,3.6,2,3.6,4.56s-.8,4.56-3.6,4.56h-8.24v19A2.65,2.65,0,0,0,261.08,373.72Z"/><path class="cls-3" d="M292.68,351.48H277.56c-2.88,0-3.92-1.84-3.92-4.4s1-4.48,3.92-4.48h23.28c3.68,0,5.68,2.16,5.68,4.88a8.44,8.44,0,0,1-2.4,5.44l-18,20h16.56c2.88,0,3.92,1.84,3.92,4.4s-1,4.48-3.92,4.48H278.2c-3.76,0-5.84-2.16-5.84-5a8.12,8.12,0,0,1,2.32-5.36Z"/><path class="cls-3" d="M337.08,347.16a6.71,6.71,0,0,1,7-5.2c2.64,0,5.52,1,6.8,5.2l6.88,22h1.12l7.2-23.44c1.92-6.16,12.32-4.72,9.52,3.12L365.4,377.4c-1.36,3.84-3.84,5.2-6.88,5.2a7.09,7.09,0,0,1-7.28-5.2l-6.8-21.92h-1.12L336.2,377.4c-1.28,3.92-3.84,5.2-6.8,5.2a7.27,7.27,0,0,1-7.36-5.2l-9.76-28.56c-2.64-7.68,8-9.2,9.52-3.2l7.12,23.52H330Z"/><path class="cls-3" d="M383.56,347.32c0-3.6,3-5.52,15-5.52,14.8,0,18.48,2.32,18.48,13.2v15.12c0,10.56-4.72,12.48-18.48,12.48s-17.28-1.92-17.28-12.72c0-8.88,2.16-12.48,16.8-12.48h9.12v-1.6c0-3.92-1.52-4.88-7.52-4.88s-9.6,1-11.92,1C384.68,351.88,383.56,350.12,383.56,347.32Zm23.68,18.16h-9.68c-5.52,0-6.56,1-6.56,4.08,0,3.36,1.2,4.32,7.92,4.32s8.32-.8,8.32-3Z"/><path class="cls-3" d="M456.76,339.08c0-2.8,2.24-3.92,4.88-3.92s4.8,1.12,4.8,3.92v16.64c0,10.72-5.44,13-18.32,13a40.93,40.93,0,0,1-10.08-1h-.24v5h15.92c10.8,0,14.16,3,14.16,11.12,0,10.16-5.12,13.6-20.72,13.6-14.08,0-19-3-19-13.36v-29.6c0-11.2,4.88-12.64,18.32-12.64a44.42,44.42,0,0,1,10.08.88h.24Zm0,15.92v-3.92a66.92,66.92,0,0,0-10-.64c-8.24,0-9,1-9,4.24v1.68c0,3.12,1.12,3.76,9.44,3.76C456,360.12,456.76,359.4,456.76,355Zm-19,28.24c0,4.64,1.76,5.52,9.52,5.52,8.72,0,10.88-1,10.88-4.24,0-2.48-1.2-3.2-6.24-3.2H437.8Z"/><path class="cls-3" d="M510.36,377c0,2.4-.72,3.68-3.36,4.4a58.51,58.51,0,0,1-13,1.2c-14.32,0-19-3.52-19-15.12v-10.4c0-12.24,5.2-15.28,18.64-15.28,13.12,0,17.36,3.36,17.36,15v4.56c0,3.44-1.28,4.64-4.24,4.64H484.92v2c0,4.16,2.88,5.76,8.64,5.76,4.32,0,9.68-.72,12.64-.72S510.36,374,510.36,377Zm-25.44-18.88h16.32v-1.76c0-4.72-1.76-5.92-8.16-5.92-6,0-8.16,1-8.16,5.92Z"/><path class="cls-3" d="M531.16,359.16v19.12c0,3-2.24,4.16-5,4.16s-5-1.2-5-4.16v-19.6c0-14.88,3.6-16.88,18.08-16.88s18.32,2,18.32,16.88v19.6c0,3-2.24,4.16-5,4.16s-4.88-1.2-4.88-4.16V359.16c0-7.28-1.12-8.48-8.48-8.48S531.16,351.88,531.16,359.16Z"/><path class="cls-3" d="M218.36,449.4v18.88c0,3-2.24,4.16-5,4.16s-5-1.2-5-4.16v-19.6c0-6.72-1.44-7.76-7.12-7.76-6.16,0-7,1.2-7,8.48v18.88c0,3-2.24,4.16-5,4.16s-5-1.2-5-4.16v-19.6c0-14.88,4.16-16.88,16.88-16.88,5.52,0,9.44.64,12,2.16,2.48-1.52,6.32-2.16,11.92-2.16,12.64,0,17,2,17,16.88v19.6c0,3-2.32,4.16-5,4.16s-4.88-1.2-4.88-4.16V449.4c0-7.28-1-8.48-7.12-8.48S218.36,442.12,218.36,449.4Z"/><path class="cls-3" d="M258.44,417.4a5.7,5.7,0,0,1,5.68,5.68,5.63,5.63,0,0,1-5.68,5.6,5.5,5.5,0,0,1-5.52-5.6A5.57,5.57,0,0,1,258.44,417.4Zm5,50.88c0,3-2.24,4.16-5,4.16s-5-1.2-5-4.16V436.2c0-3,2.24-4.24,5-4.24s5,1.28,5,4.24Z"/><path class="cls-3" d="M309.48,467c0,2.4-.72,3.68-3.36,4.4a58.51,58.51,0,0,1-13,1.2c-14.32,0-19-3.52-19-15.12v-10.4c0-12.24,5.2-15.28,18.64-15.28,13.12,0,17.36,3.36,17.36,15v4.56c0,3.44-1.28,4.64-4.24,4.64H284v2c0,4.16,2.88,5.76,8.64,5.76,4.32,0,9.68-.72,12.64-.72S309.48,464,309.48,467ZM284,448.12h16.32v-1.76c0-4.72-1.76-5.92-8.16-5.92-6,0-8.16,1-8.16,5.92Z"/><path class="cls-3" d="M336,463.72c2.4,0,3.76-.24,5.44-.24,2.64,0,3.76,1.36,3.76,3.92,0,3.68-1.76,5.2-10.72,5.2-7.6,0-11.36-2.08-11.36-11V441.72h-3.92c-2.8,0-3.84-1.92-3.84-4.56s1-4.56,3.84-4.56h3.92v-6.32c0-2.88,2.24-4.08,4.88-4.08,2.8,0,5,1.2,5,4.08v6.32h8.24c2.8,0,3.6,2,3.6,4.56s-.8,4.56-3.6,4.56h-8.24v19A2.65,2.65,0,0,0,336,463.72Z"/><path class="cls-3" d="M385.64,467c0,2.4-.72,3.68-3.36,4.4a58.51,58.51,0,0,1-13,1.2c-14.32,0-19-3.52-19-15.12v-10.4c0-12.24,5.2-15.28,18.64-15.28,13.12,0,17.36,3.36,17.36,15v4.56c0,3.44-1.28,4.64-4.24,4.64H360.2v2c0,4.16,2.88,5.76,8.64,5.76,4.32,0,9.68-.72,12.64-.72S385.64,464,385.64,467ZM360.2,448.12h16.32v-1.76c0-4.72-1.76-5.92-8.16-5.92-6,0-8.16,1-8.16,5.92Z"/><path class="cls-3" d="M406.44,449.16v19.12c0,3-2.24,4.16-5,4.16s-5-1.2-5-4.16v-19.6c0-14.88,3.6-16.88,18.08-16.88s18.32,2,18.32,16.88v19.6c0,3-2.24,4.16-5,4.16s-4.88-1.2-4.88-4.16V449.16c0-7.28-1.12-8.48-8.48-8.48S406.44,441.88,406.44,449.16Z"/><path class="cls-3" d="M449.8,460a6.18,6.18,0,0,1,6.16,6.24,6,6,0,0,1-6.16,6.16,5.9,5.9,0,0,1-6.08-6.16A6.06,6.06,0,0,1,449.8,460Zm4.08-7a3.8,3.8,0,0,1-4.08,3.36,3.6,3.6,0,0,1-3.92-3.36l-2-29c-.24-3.36,3-5,6.16-5,3,0,6.08,1.6,5.84,5Z"/></g></svg>