<svg xmlns="http://www.w3.org/2000/svg" viewBox="0 0 210.65 58.06"><defs><style>.cls-1{fill:#fff;}.cls-2{fill:#172983;}</style></defs><g id="Layer_2" data-name="Layer 2"><g id="Layer_1-2" data-name="Layer 1"><rect class="cls-1" width="210.65" height="58.06" rx="10.92"/><path class="cls-2" d="M30.19,32.22V23.55c0-.82.64-1.15,1.38-1.15S33,22.73,33,23.55v8.91C33,36,31.85,37,28.21,37c-3.34,0-4.74-.5-4.74-4.52v-.39c0-.83.61-1.16,1.37-1.16s1.38.33,1.38,1.16v.15c0,2.12.39,2.34,2,2.34S30.19,34.39,30.19,32.22Zm15.6,3.24a1.06,1.06,0,0,1-.92,1.2,16.28,16.28,0,0,1-3.56.32c-3.91,0-5.17-1-5.17-4.12V30c0-3.34,1.41-4.17,5.08-4.17S46,26.76,46,30V31.2c0,.94-.35,1.26-1.16,1.26h-6V33c0,1.13.79,1.57,2.36,1.57,1.18,0,2.64-.19,3.45-.19S45.79,34.63,45.79,35.46ZM38.84,30.3H43.3v-.48c0-1.29-.48-1.61-2.23-1.61s-2.23.28-2.23,1.61ZM53,34.56c.65,0,1-.07,1.48-.07.72,0,1,.38,1,1.07,0,1-.48,1.42-2.93,1.42-2.07,0-3.1-.56-3.1-3V28.56H48.45c-.76,0-1.05-.53-1.05-1.25s.29-1.24,1.05-1.24h1.07V24.34c0-.79.61-1.11,1.33-1.11s1.38.32,1.38,1.11v1.73h2.25c.76,0,1,.54,1,1.24s-.22,1.25-1,1.25H52.23v5.19A.73.73,0,0,0,53,34.56Zm8.6-6.07H57.52c-.79,0-1.07-.5-1.07-1.2s.28-1.22,1.07-1.22h6.35a1.37,1.37,0,0,1,1.55,1.33,2.31,2.31,0,0,1-.65,1.48l-4.92,5.46h4.52c.79,0,1.07.5,1.07,1.2s-.28,1.23-1.07,1.23H57.69c-1,0-1.59-.59-1.59-1.36A2.19,2.19,0,0,1,56.73,34Zm10,6.07c.65,0,1-.07,1.48-.07.72,0,1,.38,1,1.07,0,1-.48,1.42-2.93,1.42-2.07,0-3.1-.56-3.1-3V28.56H67.08c-.76,0-1-.53-1-1.25s.29-1.24,1-1.24h1.07V24.34c0-.79.61-1.11,1.33-1.11s1.38.32,1.38,1.11v1.73h2.25c.76,0,1,.54,1,1.24s-.22,1.25-1,1.25H70.86v5.19A.73.73,0,0,0,71.67,34.56Zm9.48-3.28c0-4.65,1.35-5.43,5.24-5.43s5.22.78,5.22,5.43S90.36,37,86.39,37A13.42,13.42,0,0,1,84,36.7H83.9v2.79c0,.83-.66,1.14-1.4,1.14s-1.35-.31-1.35-1.14Zm5.24-3c-1.81,0-2.54.22-2.54,3.06s.57,3.23,2.54,3.23,2.53-.31,2.53-3.23S88.4,28.27,86.39,28.27Zm12.29.09c-1.46,0-1.74.2-1.74,1.66V35.8c0,.81-.59,1.14-1.34,1.14s-1.37-.33-1.37-1.14v-6c0-3.34,1.07-3.95,4.5-3.95,2.22,0,2.79.52,2.79,1.35a1.12,1.12,0,0,1-1.18,1.25C99.91,28.45,99.51,28.36,98.68,28.36Zm8.85-2.51c3.91,0,5.26,1.07,5.26,5.67S111.44,37,107.53,37s-5.24-.83-5.24-5.46S103.58,25.85,107.53,25.85Zm0,8.71c2,0,2.56-.24,2.56-3.08s-.59-3.21-2.56-3.21-2.53.29-2.53,3.21S105.52,34.56,107.53,34.56Zm11.93-10c-.81,0-1,.24-1,1.13v.4h2c.8,0,1.09.52,1.09,1.24s-.29,1.25-1.09,1.25h-2V35.8c0,.81-.59,1.14-1.35,1.14s-1.33-.33-1.33-1.14V28.56h-1.05c-.79,0-1.07-.53-1.07-1.25s.28-1.24,1.07-1.24h1.05v-.33c0-2.84.8-3.6,3.67-3.6,2.53,0,2.9.3,2.9,1.33a1.13,1.13,0,0,1-1.27,1.13C120.7,24.6,119.94,24.54,119.46,24.54Zm5-2.4A1.54,1.54,0,0,1,126,23.69a1.53,1.53,0,0,1-1.55,1.52,1.49,1.49,0,0,1-1.5-1.52A1.51,1.51,0,0,1,124.43,22.14Zm1.36,13.66c0,.81-.61,1.14-1.36,1.14s-1.35-.33-1.35-1.14V27.22c0-.8.61-1.15,1.35-1.15s1.36.35,1.36,1.15Zm7.1-1.24c.65,0,1-.07,1.48-.07.72,0,1,.38,1,1.07,0,1-.48,1.42-2.93,1.42-2.07,0-3.1-.56-3.1-3V28.56H128.3c-.76,0-1.05-.53-1.05-1.25s.29-1.24,1.05-1.24h1.07V24.34c0-.79.61-1.11,1.33-1.11s1.38.32,1.38,1.11v1.73h2.25c.76,0,1,.54,1,1.24s-.22,1.25-1,1.25h-2.25v5.19A.73.73,0,0,0,132.89,34.56Zm5.54-12.64A1.55,1.55,0,0,1,140,23.47,1.53,1.53,0,0,1,138.43,25a1.5,1.5,0,0,1-1.5-1.53A1.52,1.52,0,0,1,138.43,21.92Zm1.36,13.88c0,.81-.61,1.14-1.36,1.14s-1.35-.33-1.35-1.14V27.05c0-.81.61-1.16,1.35-1.16s1.36.35,1.36,1.16Zm12.58-.34a1.06,1.06,0,0,1-.92,1.2,16.2,16.2,0,0,1-3.56.32c-3.91,0-5.17-1-5.17-4.12V30c0-3.34,1.42-4.17,5.08-4.17s4.74.91,4.74,4.1V31.2c0,.94-.35,1.26-1.16,1.26h-6V33c0,1.13.79,1.57,2.36,1.57,1.18,0,2.64-.19,3.45-.19S152.37,34.63,152.37,35.46Zm-7-5.16h4.46v-.48c0-1.29-.48-1.61-2.23-1.61s-2.23.28-2.23,1.61Zm14.37-1.94c-1.46,0-1.74.2-1.74,1.66V35.8c0,.81-.59,1.14-1.33,1.14s-1.38-.33-1.38-1.14v-6c0-3.34,1.07-3.95,4.5-3.95,2.22,0,2.79.52,2.79,1.35a1.12,1.12,0,0,1-1.18,1.25C161,28.45,160.62,28.36,159.79,28.36Zm13.52,7.1a1.05,1.05,0,0,1-.92,1.2,16.08,16.08,0,0,1-3.55.32c-3.91,0-5.18-1-5.18-4.12V30c0-3.34,1.42-4.17,5.09-4.17s4.74.91,4.74,4.1V31.2c0,.94-.35,1.26-1.16,1.26h-6V33c0,1.13.78,1.57,2.36,1.57,1.18,0,2.64-.19,3.45-.19S173.31,34.63,173.31,35.46Zm-6.94-5.16h4.45v-.48c0-1.29-.48-1.61-2.22-1.61s-2.23.28-2.23,1.61Zm12.62.29V35.8c0,.81-.61,1.14-1.35,1.14s-1.36-.33-1.36-1.14V30.45c0-4.06,1-4.6,4.94-4.6s5,.54,5,4.6V35.8c0,.81-.61,1.14-1.35,1.14s-1.34-.33-1.34-1.14V30.59c0-2-.3-2.32-2.31-2.32S179,28.6,179,30.59Z"/></g></g></svg>