<svg id="Layer_1" data-name="Layer 1" xmlns="http://www.w3.org/2000/svg" xmlns:xlink="http://www.w3.org/1999/xlink" viewBox="0 0 970 250"><defs><style>.cls-1{fill:none;}.cls-2{clip-path:url(#clip-path);}.cls-3{fill:#221e1f;}.cls-4{clip-path:url(#clip-path-2);}.cls-5{clip-path:url(#clip-path-4);}.cls-6{clip-path:url(#clip-path-5);}.cls-7{clip-path:url(#clip-path-6);}.cls-8{clip-path:url(#clip-path-8);}.cls-9{clip-path:url(#clip-path-9);}.cls-10{clip-path:url(#clip-path-10);}.cls-11{clip-path:url(#clip-path-12);}.cls-12{clip-path:url(#clip-path-13);}.cls-13{clip-path:url(#clip-path-14);}.cls-14{clip-path:url(#clip-path-16);}.cls-15{clip-path:url(#clip-path-17);}</style><clipPath id="clip-path"><rect class="cls-1" width="970" height="250"/></clipPath><clipPath id="clip-path-2"><rect class="cls-1" x="990" width="970" height="250"/></clipPath><clipPath id="clip-path-4"><rect class="cls-1" x="1551.94" y="129.11" width="121.62" height="120.89"/></clipPath><clipPath id="clip-path-5"><rect class="cls-1" x="-31778" y="-32517" width="65535" height="65535"/></clipPath><clipPath id="clip-path-6"><rect class="cls-1" x="1980" width="970" height="250"/></clipPath><clipPath id="clip-path-8"><rect class="cls-1" x="2541.94" y="129.11" width="121.62" height="120.89"/></clipPath><clipPath id="clip-path-9"><rect class="cls-1" x="-30788" y="-32517" width="65535" height="65535"/></clipPath><clipPath id="clip-path-10"><rect class="cls-1" x="3960" width="970" height="250"/></clipPath><clipPath id="clip-path-12"><rect class="cls-1" x="4521.94" y="129.11" width="121.62" height="120.89"/></clipPath><clipPath id="clip-path-13"><rect class="cls-1" x="-28808" y="-32517" width="65535" height="65535"/></clipPath><clipPath id="clip-path-14"><rect class="cls-1" x="4950" width="970" height="250"/></clipPath><clipPath id="clip-path-16"><rect class="cls-1" x="5511.94" y="129.11" width="121.62" height="120.89"/></clipPath><clipPath id="clip-path-17"><rect class="cls-1" x="-27818" y="-32517" width="65535" height="65535"/></clipPath></defs><g class="cls-2"><path class="cls-3" d="M49.48,196.6v-6.79h3.88v-1.15c0-7,4.37-10.74,10.86-10.74,5.1,0,8.62,2.55,9.71,7l-6,1.88a2.74,2.74,0,0,0-2.6-1.88c-1.64,0-2.25,1.33-2.25,3v1.82h6.86v6.79H63.07v20.27H53.36V196.6Z"/><path class="cls-3" d="M85.46,217.6c-8.86,0-14.8-5.83-14.8-14.26s5.94-14.26,14.8-14.26,14.8,5.89,14.8,14.26S94.26,217.6,85.46,217.6Zm0-7.41c3.4,0,4.91-2.79,4.91-6.85s-1.51-6.86-4.91-6.86-4.92,2.79-4.92,6.86S82,210.19,85.46,210.19Z"/><path class="cls-3" d="M124.53,199.39a8.82,8.82,0,0,0-4.67-1.15c-3.64,0-5.88,1.7-5.88,6.25v12.38h-9.83V189.81H114v4.79a7.87,7.87,0,0,1,7.4-5.52,6.52,6.52,0,0,1,3.76,1Z"/><path class="cls-3" d="M140.07,196.6h-3.64v-6.06l2-.31c2.73-.42,3.58-1.88,4.25-4.36l.91-3.52h6.18v7.46h7v6.79h-7v9.89c0,2.31,1.1,3.22,3.1,3.22a10.8,10.8,0,0,0,4.18-.91v6.37a12.68,12.68,0,0,1-8.13,2.43c-4.55,0-8.85-1.89-8.85-8.26Z"/><path class="cls-3" d="M170.65,216.87h-9.83V178.65h9.83v15.22c1.45-3,4.67-4.79,8.73-4.79,7.4,0,9.77,5.16,9.77,10.8v17h-9.83V202.49c0-3.7-1-5.64-4-5.64-3.34,0-4.67,2.67-4.67,6.73Z"/><path class="cls-3" d="M219.49,208.92c0,1.39.6,2,1.63,2a5.68,5.68,0,0,0,2.19-.42v5.21a10.32,10.32,0,0,1-6.13,1.76c-3.34,0-6-1.69-6.85-4.79-1.58,3.16-4.68,4.79-9,4.79-5.28,0-8.74-2.73-8.74-7.34,0-5.21,3.76-7.46,9.65-8.49l7.58-1.27v-.43c0-2.24-1-3.58-3.4-3.58-2.18,0-3.27,1.4-3.7,3.4l-9.1-.61c.85-5.94,5.28-10.07,13.41-10.07,7.16,0,12.44,3.09,12.44,10.62Zm-9.65-3.76-4,.73c-2.37.48-3.77,1.21-3.77,3,0,1.39,1.1,2.3,2.73,2.3,2.79,0,5-2.06,5-5.58Z"/><path class="cls-3" d="M226.83,196.6h-3.64v-6.06l2-.31c2.73-.42,3.58-1.88,4.25-4.36l.91-3.52h6.19v7.46h7v6.79h-7v9.89c0,2.31,1.09,3.22,3.09,3.22a10.88,10.88,0,0,0,4.19-.91v6.37a12.72,12.72,0,0,1-8.13,2.43c-4.55,0-8.86-1.89-8.86-8.26Z"/><path class="cls-3" d="M259.47,196.6h-3.64v-6.06l2-.31c2.73-.42,3.58-1.88,4.25-4.36l.91-3.52h6.19v7.46h7v6.79h-7v9.89c0,2.31,1.09,3.22,3.09,3.22a10.84,10.84,0,0,0,4.19-.91v6.37a12.7,12.7,0,0,1-8.13,2.43c-4.55,0-8.86-1.89-8.86-8.26Z"/><path class="cls-3" d="M290.05,216.87h-9.83V178.65h9.83v15.22c1.46-3,4.67-4.79,8.74-4.79,7.4,0,9.76,5.16,9.76,10.8v17h-9.82V202.49c0-3.7-1-5.64-4-5.64-3.34,0-4.67,2.67-4.67,6.73Z"/><path class="cls-3" d="M313.53,178.65h10v8.61h-10Zm9.89,11.16v27.06h-9.83V189.81Z"/><path class="cls-3" d="M338.59,216.87h-9.83V189.81h9.83v4.06c1.45-3,4.67-4.79,8.74-4.79,7.4,0,9.76,5.16,9.76,10.8v17h-9.83V202.49c0-3.7-1-5.64-4-5.64-3.34,0-4.67,2.67-4.67,6.73Z"/><path class="cls-3" d="M374.51,207.58a20,20,0,0,1-5.89-.78,1.56,1.56,0,0,0-.54,1.27c0,.91.66,1.64,2.3,1.64H381.6c6.13,0,9.23,3.21,9.23,7.76,0,6.74-8.19,9.83-17,9.83-7.71,0-14.38-1.51-14.38-6.61,0-2.37,2.12-4.25,5.16-4.49a5.55,5.55,0,0,1-3.89-5.28c0-2.61,1.7-4.61,4.62-5.7a7.92,7.92,0,0,1-3.89-6.86c0-5.76,5.46-9.28,13.05-9.28a17.07,17.07,0,0,1,8.67,2.18,10.08,10.08,0,0,1,7.59-4.18v7.4a18.25,18.25,0,0,0-3.95.43,7.22,7.22,0,0,1,.85,3.45C387.67,204.07,382.15,207.58,374.51,207.58Zm-.61,14.63c4.55,0,7.89-.91,7.89-2.55,0-1.16-.85-1.58-2.49-1.58h-9.95a1.62,1.62,0,0,0-1.82,1.64C367.53,221.66,370.26,222.21,373.9,222.21Zm.73-27.73c-1.64,0-2.85,1.52-2.85,3.88s1.21,3.95,2.85,3.95,2.85-1.52,2.85-3.95S376.27,194.48,374.63,194.48Z"/><path class="cls-3" d="M393.2,206.43h10.43v10.44H393.2Z"/></g></svg>