<svg id="Layer_1" data-name="Layer 1" xmlns="http://www.w3.org/2000/svg" xmlns:xlink="http://www.w3.org/1999/xlink" viewBox="0 0 970 250"><defs><style>.cls-1{fill:none;}.cls-2{clip-path:url(#clip-path);}.cls-3{fill:#221e1f;}.cls-4{clip-path:url(#clip-path-2);}.cls-5{clip-path:url(#clip-path-4);}.cls-6{clip-path:url(#clip-path-5);}.cls-7{clip-path:url(#clip-path-6);}.cls-8{clip-path:url(#clip-path-8);}.cls-9{clip-path:url(#clip-path-9);}.cls-10{clip-path:url(#clip-path-10);}.cls-11{clip-path:url(#clip-path-12);}.cls-12{clip-path:url(#clip-path-13);}.cls-13{clip-path:url(#clip-path-14);}.cls-14{clip-path:url(#clip-path-16);}.cls-15{clip-path:url(#clip-path-17);}</style><clipPath id="clip-path"><rect class="cls-1" width="970" height="250"/></clipPath><clipPath id="clip-path-2"><rect class="cls-1" x="990" width="970" height="250"/></clipPath><clipPath id="clip-path-4"><rect class="cls-1" x="1551.94" y="129.11" width="121.62" height="120.89"/></clipPath><clipPath id="clip-path-5"><rect class="cls-1" x="-31778" y="-32517" width="65535" height="65535"/></clipPath><clipPath id="clip-path-6"><rect class="cls-1" x="1980" width="970" height="250"/></clipPath><clipPath id="clip-path-8"><rect class="cls-1" x="2541.94" y="129.11" width="121.62" height="120.89"/></clipPath><clipPath id="clip-path-9"><rect class="cls-1" x="-30788" y="-32517" width="65535" height="65535"/></clipPath><clipPath id="clip-path-10"><rect class="cls-1" x="3960" width="970" height="250"/></clipPath><clipPath id="clip-path-12"><rect class="cls-1" x="4521.94" y="129.11" width="121.62" height="120.89"/></clipPath><clipPath id="clip-path-13"><rect class="cls-1" x="-28808" y="-32517" width="65535" height="65535"/></clipPath><clipPath id="clip-path-14"><rect class="cls-1" x="4950" width="970" height="250"/></clipPath><clipPath id="clip-path-16"><rect class="cls-1" x="5511.94" y="129.11" width="121.62" height="120.89"/></clipPath><clipPath id="clip-path-17"><rect class="cls-1" x="-27818" y="-32517" width="65535" height="65535"/></clipPath></defs><g class="cls-2"><path class="cls-3" d="M76.36,55.13,91.58,93.35h-11L77.75,86H62.83L60,93.35H49.6L64.83,55.13ZM65.8,78.24h9L70.41,67h-.24Z"/><path class="cls-3" d="M100.87,84.43c.36,2.24,2.18,3.52,5.16,3.52,2.18,0,3.33-.79,3.33-1.88s-.6-1.76-2.48-2.07l-4-.6c-6.55-1-10-3.16-10-8.68,0-5.34,4.67-9.16,12.26-9.16,7.82,0,12.43,3.46,13,9.1L110,74.9c-.36-1.94-2.06-3.15-5.09-3.15-1.89,0-3,.73-3,1.94,0,.91.73,1.4,1.64,1.52l5.28.91c6.07,1,9.58,3.7,9.58,9,0,5.7-4.85,9-12.55,9-7.47,0-13-3-13.59-9.53Z"/><path class="cls-3" d="M132.06,93.35h-9.83V55.13h9.83v20.5l9.28-9.34h11.53L141.7,76.91l11.53,16.44h-11l-7.77-11-2.36,2.42Z"/><path class="cls-3" d="M167.31,73.08h-3.64V67l2-.31c2.73-.42,3.58-1.88,4.25-4.36l.91-3.52H177v7.46h7v6.79h-7V83c0,2.31,1.09,3.22,3.09,3.22a10.88,10.88,0,0,0,4.19-.91v6.37a12.72,12.72,0,0,1-8.13,2.43c-4.55,0-8.86-1.88-8.86-8.26Z"/><path class="cls-3" d="M197.89,93.35h-9.83V55.13h9.83V70.35c1.45-3,4.67-4.79,8.73-4.79,7.41,0,9.77,5.16,9.77,10.8v17h-9.83V79c0-3.7-1-5.64-4-5.64-3.34,0-4.67,2.67-4.67,6.73Z"/><path class="cls-3" d="M246.73,85.4c0,1.39.6,2,1.64,2a5.67,5.67,0,0,0,2.18-.42V92.2A10.4,10.4,0,0,1,244.42,94c-3.33,0-5.94-1.69-6.85-4.79-1.58,3.16-4.67,4.79-9,4.79-5.28,0-8.74-2.73-8.74-7.34,0-5.21,3.76-7.46,9.65-8.49l7.58-1.27v-.43c0-2.24-1-3.58-3.4-3.58-2.18,0-3.27,1.4-3.7,3.4l-9.1-.61c.85-5.94,5.28-10.07,13.41-10.07,7.16,0,12.44,3.1,12.44,10.62Zm-9.65-3.76-4,.73c-2.37.48-3.76,1.21-3.76,3,0,1.39,1.09,2.3,2.73,2.3,2.79,0,5-2.06,5-5.58Z"/><path class="cls-3" d="M254.07,73.08h-3.64V67l2-.31c2.73-.42,3.58-1.88,4.25-4.36l.91-3.52h6.19v7.46h7v6.79h-7V83c0,2.31,1.09,3.22,3.09,3.22a10.84,10.84,0,0,0,4.19-.91v6.37a12.7,12.7,0,0,1-8.13,2.43c-4.55,0-8.86-1.88-8.86-8.26Z"/><path class="cls-3" d="M321.66,65.56c7.46,0,9.65,5.16,9.65,10.8v17h-9.83V79c0-3.7-.67-5.64-3.64-5.64-3.28,0-4.37,2.67-4.37,6.73V93.35h-9.83V79c0-3.7-.73-5.64-3.7-5.64-3.22,0-4.37,2.67-4.37,6.73V93.35h-9.83V66.29h9.83v4.06c1.46-3,4.37-4.79,8.43-4.79,4.8,0,7.28,2.19,8.44,5.34C313.89,67.87,317.11,65.56,321.66,65.56Z"/><path class="cls-3" d="M361.64,85.4c0,1.39.61,2,1.64,2a5.68,5.68,0,0,0,2.19-.42V92.2A10.4,10.4,0,0,1,359.34,94c-3.34,0-5.95-1.69-6.86-4.79-1.57,3.16-4.67,4.79-9,4.79-5.27,0-8.73-2.73-8.73-7.34,0-5.21,3.76-7.46,9.64-8.49L352,76.85v-.43c0-2.24-1-3.58-3.4-3.58-2.18,0-3.28,1.4-3.7,3.4l-9.1-.61c.85-5.94,5.28-10.07,13.41-10.07,7.16,0,12.43,3.1,12.43,10.62ZM352,81.64l-4,.73c-2.36.48-3.76,1.21-3.76,3,0,1.39,1.09,2.3,2.73,2.3,2.79,0,5-2.06,5-5.58Z"/><path class="cls-3" d="M369,73.08h-3.64V67l2-.31c2.73-.42,3.58-1.88,4.25-4.36l.91-3.52h6.18v7.46h7v6.79h-7V83c0,2.31,1.1,3.22,3.1,3.22a10.88,10.88,0,0,0,4.19-.91v6.37a12.72,12.72,0,0,1-8.13,2.43c-4.55,0-8.86-1.88-8.86-8.26Z"/><path class="cls-3" d="M416.67,84.43c-1.39,6.19-6.37,9.65-13.52,9.65-8.68,0-14.87-5.22-14.87-13.84S394.59,65.56,403,65.56c9,0,13.84,6.19,13.84,13.53v2.73h-19c.24,3.34,2.67,4.91,5.64,4.91,2.67,0,4.37-.91,5.28-3Zm-9.16-7.34a4.43,4.43,0,0,0-4.61-4.49c-3.15,0-4.55,1.94-4.91,4.49Z"/></g></svg>