<svg xmlns="http://www.w3.org/2000/svg" viewBox="0 0 109 28"><defs><style>.cls-1{fill:#76aba8;}.cls-2{fill:#fff;}</style></defs><g id="Layer_2" data-name="Layer 2"><g id="Background"><rect class="cls-1" width="109" height="28"/><path class="cls-2" d="M20.19,10.55h1.58v5.74h2.95v1.46H20.19Z"/><path class="cls-2" d="M25.75,10.55h4.9V12H27.34v1.35h3.12v1.46H27.34v1.47h3.49v1.46H25.75Z"/><path class="cls-2" d="M34.58,10.55h1.31L39,17.75H37.23l-.62-1.52h-2.8l-.6,1.52H31.46Zm.61,2.09-.88,2.24h1.76Z"/><path class="cls-2" d="M39.85,10.55h2.79c1.47,0,2.71.51,2.71,2.18a1.86,1.86,0,0,1-1.55,2l1.83,3h-1.9l-1.51-2.88h-.78v2.88H39.85Zm1.59,3h.93c.58,0,1.34,0,1.34-.81s-.66-.83-1.24-.83h-1Z"/><path class="cls-2" d="M46.54,10.55H48.7l3.06,5h0v-5h1.58v7.2H51.3l-3.15-5.13h0v5.13H46.54Z"/><path class="cls-2" d="M58.05,10.55h2.4l1.66,4.7h0l1.67-4.7h2.39v7.2H64.61V12.23h0l-1.9,5.52H61.48l-1.82-5.52h0v5.52H58.05Z"/><path class="cls-2" d="M71.26,10.36a3.65,3.65,0,0,1,3.89,3.79,3.89,3.89,0,0,1-7.78,0A3.65,3.65,0,0,1,71.26,10.36Zm0,6.11a2.17,2.17,0,0,0,2.24-2.32,2.24,2.24,0,1,0-4.48,0A2.18,2.18,0,0,0,71.26,16.47Z"/><path class="cls-2" d="M76.33,10.55h2.79c1.47,0,2.72.51,2.72,2.18a1.86,1.86,0,0,1-1.56,2l1.83,3h-1.9L78.7,14.87h-.78v2.88H76.33Zm1.59,3h.93c.58,0,1.34,0,1.34-.81s-.65-.83-1.23-.83h-1Z"/><path class="cls-2" d="M83.09,10.55H88V12H84.67v1.35H87.8v1.46H84.67v1.47h3.49v1.46H83.09Z"/></g></g></svg>