<?xml version="1.0" encoding="utf-8"?>
<!-- Generator: Adobe Illustrator 24.2.3, SVG Export Plug-In . SVG Version: 6.00 Build 0)  -->
<svg version="1.1" id="Layer_1" xmlns="http://www.w3.org/2000/svg" xmlns:xlink="http://www.w3.org/1999/xlink" x="0px" y="0px"
	 viewBox="0 0 109 28" style="enable-background:new 0 0 109 28;" xml:space="preserve">
<style type="text/css">
	.st0{fill:#FFFFFF;}
	.st1{fill:#76ABA8;}
</style>
<g id="Layer_2_1_">
	<g id="Background">
		<rect class="st0" width="109" height="28"/>
		<path class="st1" d="M20.2,10.6h1.6v5.7h3v1.5h-4.5V10.6z"/>
		<path class="st1" d="M25.8,10.6h4.9V12h-3.3v1.4h3.1v1.5h-3.1v1.5h3.5v1.5h-5.1V10.6z"/>
		<path class="st1" d="M34.6,10.6h1.3l3.1,7.2h-1.8l-0.6-1.5h-2.8l-0.6,1.5h-1.8L34.6,10.6z M35.2,12.6l-0.9,2.2h1.8L35.2,12.6z"/>
		<path class="st1" d="M39.8,10.6h2.8c1.5,0,2.7,0.5,2.7,2.2c0.1,1-0.6,1.8-1.5,2l1.8,3h-1.9l-1.5-2.9h-0.8v2.9h-1.6V10.6z
			 M41.4,13.6h0.9c0.6,0,1.3,0,1.3-0.8s-0.7-0.8-1.2-0.8h-1L41.4,13.6z"/>
		<path class="st1" d="M46.5,10.6h2.2l3.1,5l0,0v-5h1.6v7.2h-2l-3.2-5.1l0,0v5.1h-1.6V10.6z"/>
		<path class="st1" d="M58,10.6h2.4l1.7,4.7l0,0l1.7-4.7h2.4v7.2h-1.6v-5.5l0,0l-1.9,5.5h-1.2l-1.8-5.5l0,0v5.5H58V10.6z"/>
		<path class="st1" d="M71.3,10.4c2-0.1,3.8,1.4,3.9,3.4c0,0.1,0,0.3,0,0.4c0,2.1-1.7,3.9-3.9,3.9c-2.1,0-3.9-1.7-3.9-3.9
			c-0.1-2,1.5-3.7,3.5-3.8C71,10.3,71.1,10.4,71.3,10.4z M71.3,16.5c1.2,0,2.2-0.9,2.2-2.1c0-0.1,0-0.2,0-0.2c0-1.2-1-2.2-2.2-2.2
			c-1.2,0-2.2,1-2.2,2.2c-0.1,1.2,0.8,2.2,2,2.3C71.1,16.5,71.2,16.5,71.3,16.5z"/>
		<path class="st1" d="M76.3,10.6h2.8c1.5,0,2.7,0.5,2.7,2.2c0.1,1-0.6,1.8-1.6,2l1.8,3h-1.9l-1.5-2.9h-0.8v2.9h-1.6V10.6z
			 M77.9,13.6h0.9c0.6,0,1.3,0,1.3-0.8s-0.7-0.8-1.2-0.8h-1L77.9,13.6z"/>
		<path class="st1" d="M83.1,10.6H88V12h-3.3v1.4h3.1v1.5h-3.1v1.5h3.5v1.5h-5.1V10.6z"/>
	</g>
</g>
</svg>
