<?xml version="1.0" encoding="utf-8"?>
<!-- Generator: Adobe Illustrator 25.2.3, SVG Export Plug-In . SVG Version: 6.00 Build 0)  -->
<svg version="1.1" id="Layer_1" xmlns="http://www.w3.org/2000/svg" xmlns:xlink="http://www.w3.org/1999/xlink" x="0px" y="0px"
	 viewBox="0 0 320 50" style="enable-background:new 0 0 320 50;" xml:space="preserve">
<style type="text/css">
	.st0{clip-path:url(#SVGID_2_);}
	.st1{fill:#064854;}
	.st2{fill:#76A9A6;}
	.st3{fill:#FFFFFF;}
	.st4{fill:#76A8A5;}
</style>
<g id="Overlays">
	<g>
		<defs>
			<rect id="SVGID_1_" x="3" y="3" width="314" height="44"/>
		</defs>
		<clipPath id="SVGID_2_">
			<use xlink:href="#SVGID_1_"  style="overflow:visible;"/>
		</clipPath>
		<g class="st0">
			
				<image style="overflow:visible;enable-background:new    ;" width="2200" height="1461" xlink:href="../../../../brief/Generic Display 1_Folder/Links/Low-Res-Texture.jpg"  transform="matrix(0.19 0 0 0.19 -67 -78)">
			</image>
			<rect y="0.1" class="st1" width="320" height="49.9"/>
		</g>
	</g>
	<rect x="187.6" y="11.1" class="st2" width="108.7" height="27.8"/>
	<path class="st3" d="M207.7,21.5h1.6v5.7h2.9v1.5h-4.5V21.5z"/>
	<path class="st3" d="M213.2,21.5h4.9V23h-3.3v1.4h3.2v1.5h-3.1v1.5h3.5v1.5h-5.1L213.2,21.5z"/>
	<path class="st3" d="M222.1,21.5h1.3l3.1,7.2h-1.8l-0.6-1.5h-2.8l-0.6,1.5H219L222.1,21.5z M222.7,23.6l-0.9,2.2h1.8L222.7,23.6z"
		/>
	<path class="st3" d="M227.4,21.5h2.8c1.5,0,2.7,0.5,2.7,2.2c0.1,1-0.6,1.8-1.6,2l1.8,3h-1.9l-1.5-2.9h-0.8v2.9h-1.6L227.4,21.5z
		 M228.9,24.5h0.9c0.6,0,1.3,0,1.3-0.8s-0.7-0.8-1.2-0.8h-1L228.9,24.5z"/>
	<path class="st3" d="M234,21.5h2.2l3.1,5l0,0v-5h1.6v7.2h-2l-3.1-5.1l0,0v5.1H234V21.5z"/>
	<path class="st3" d="M245.6,21.5h2.4l1.7,4.7l0,0l1.7-4.7h2.4v7.2h-1.6v-5.5l0,0l-1.9,5.5H249l-1.8-5.5l0,0v5.5h-1.6L245.6,21.5z"
		/>
	<path class="st3" d="M258.8,21.4c2-0.1,3.8,1.4,3.9,3.4c0,0.1,0,0.3,0,0.4c0,2.1-1.7,3.9-3.9,3.9c-2.1,0-3.9-1.7-3.9-3.9
		c-0.1-2,1.5-3.7,3.5-3.8C258.5,21.3,258.6,21.4,258.8,21.4z M258.8,27.5c1.2,0,2.2-0.9,2.2-2.1c0-0.1,0-0.2,0-0.2
		c0-1.2-1-2.2-2.2-2.2c-1.2,0-2.2,1-2.2,2.2c-0.1,1.2,0.8,2.2,2,2.3C258.6,27.5,258.7,27.5,258.8,27.5z"/>
	<path class="st3" d="M263.8,21.5h2.8c1.5,0,2.7,0.5,2.7,2.2c0.1,1-0.6,1.8-1.6,2l1.8,3h-1.9l-1.5-2.9h-0.8v2.9h-1.6V21.5z
		 M265.4,24.5h0.9c0.6,0,1.3,0,1.3-0.8s-0.6-0.8-1.2-0.8h-1L265.4,24.5z"/>
	<path class="st3" d="M270.6,21.5h4.9V23h-3.3v1.4h3.1v1.5h-3.1v1.5h3.5v1.5h-5.1V21.5z"/>
	<path class="st3" d="M68.9,15h0.3c0.1,0,0.2,0,0.3,0c0-0.2,0-0.3-0.1-0.5L69.3,14c0-0.1,0-0.2-0.1-0.3c0-0.1,0-0.1,0-0.2
		c0,0,0-0.1,0-0.1c0,0-0.1,0-0.1,0H69c0,0.1-0.1,0.3-0.1,0.4c0,0.1-0.1,0.3-0.1,0.4l-0.1,0.4c0,0.1,0,0.3-0.1,0.4L68.9,15L68.9,15z
		 M70.1,17.2h-0.2c0-0.2-0.1-0.4-0.1-0.6s-0.1-0.4-0.1-0.6h-0.5h-0.7c-0.1,0.4-0.2,0.8-0.3,1.2h-0.2h-0.6h-0.2
		c0.1-0.4,0.1-0.8,0.2-1.2s0.2-0.8,0.3-1.2s0.2-0.8,0.3-1.2s0.2-0.8,0.3-1.2h0.2h0.8h0.6c0,0.1,0.1,0.3,0.1,0.6s0.1,0.6,0.2,0.9
		s0.1,0.7,0.2,1l0.2,1c0.1,0.3,0.1,0.6,0.2,0.8s0.1,0.4,0.1,0.5v0.2H70.1z"/>
	<path class="st3" d="M76.6,17.1h-0.3h-0.5h-0.2c0-0.3,0-0.5,0-0.8v-0.9c0-0.3,0-0.6,0-0.9v-0.8l0,0c0,0.2-0.1,0.4-0.2,0.6
		c-0.1,0.2-0.2,0.4-0.2,0.6s-0.2,0.4-0.3,0.6s-0.2,0.4-0.3,0.6l-0.2,0h-0.2h-0.4h-0.2L73.4,16L73,14.9c-0.1-0.4-0.3-0.7-0.4-1.1
		h-0.1v1.2c0,0.4,0,0.7,0,1.1c0,0.4,0,0.7,0,1.1h-0.2h-0.2h-0.3c-0.1,0-0.2,0-0.3,0c0-0.4,0-0.7-0.1-1.1v-1.1v-1.1
		c0-0.4,0-0.8,0-1.1v-0.2c0-0.1,0-0.1,0-0.2h0.4h0.5h0.2l0.2,0.1c0.2,0.5,0.3,0.9,0.5,1.4s0.4,0.9,0.6,1.4l0.3-0.9
		c0.1-0.2,0.2-0.5,0.3-0.7l0.2-0.6c0.1-0.2,0.2-0.4,0.2-0.6h0.3h0.8h0.2c0,0.4,0.1,0.7,0.1,1.1s0,0.8,0,1.1v1.1c0,0.4,0,0.8,0,1.1
		L76.6,17.1z"/>
	<path class="st3" d="M78.4,14.4h0.1H79c0.2,0,0.3,0,0.5-0.1c0.1,0,0.3-0.1,0.4-0.2c0.1-0.1,0.2-0.3,0.2-0.4c0-0.1,0-0.3-0.1-0.4
		c-0.1-0.1-0.2-0.2-0.3-0.2c-0.1-0.1-0.2-0.1-0.4-0.1c-0.1,0-0.3,0-0.4,0h-0.3c0,0-0.1,0-0.1,0c0,0,0,0.1,0,0.1c0,0.1,0,0.3,0,0.4
		s0,0.3,0,0.4s0,0.2,0,0.2C78.4,14.2,78.4,14.3,78.4,14.4 M77.3,17.1c0-0.2-0.1-0.4-0.1-0.6c0-0.2,0-0.4,0-0.7s0-0.4,0-0.7
		s0-0.4,0-0.6s0-0.4,0-0.6s0-0.4,0-0.6c0-0.2,0-0.4,0-0.6c0-0.2,0-0.4,0.1-0.5h0.2h1.7c0.2,0,0.5,0.1,0.7,0.1c0.2,0,0.4,0.1,0.6,0.2
		c0.2,0.1,0.3,0.3,0.4,0.5c0.1,0.2,0.2,0.5,0.2,0.7c0,0.3-0.1,0.5-0.2,0.7c-0.1,0.2-0.3,0.4-0.5,0.5c-0.2,0.1-0.4,0.3-0.7,0.3
		c-0.2,0.1-0.5,0.1-0.8,0.1h-0.3c-0.1,0-0.2,0-0.3,0c0,0.2,0,0.3,0,0.5v0.5c0,0.1,0,0.2,0,0.4c0,0.1,0,0.2,0,0.4c-0.1,0-0.2,0-0.3,0
		h-0.6C77.5,17.1,77.4,17.1,77.3,17.1"/>
	<path class="st3" d="M84.2,14.1c0.1,0,0.2,0,0.3,0c0.1,0,0.2,0,0.2-0.1c0.1,0,0.1-0.1,0.2-0.2c0-0.1,0.1-0.2,0.1-0.3
		c0-0.1,0-0.2-0.1-0.3c-0.1-0.1-0.2-0.1-0.3-0.2c-0.1,0-0.2-0.1-0.3-0.1c-0.1,0-1.4,0-1.5,0h-0.2c0,0-0.1,0.1-0.1,0.2v0.3
		c0,0.1,0,0.2,0,0.3V14c0,0,0,0.1,0.1,0.1L84.2,14.1L84.2,14.1z M82.5,16.3C82.5,16.3,82.5,16.3,82.5,16.3h1.8c0.2,0,0.3,0,0.4-0.1
		c0.1,0,0.2-0.1,0.3-0.2c0.1-0.1,0.1-0.3,0.1-0.4c0-0.1-0.1-0.3-0.2-0.4c-0.1-0.1-0.2-0.1-0.4-0.2c-0.1,0-0.3,0-0.4,0h-1.6
		c0,0-0.1,0-0.1,0c0,0,0,0.1,0,0.1c0,0.2,0,0.4,0,0.6S82.5,16,82.5,16.3 M85.6,14.4c0.2,0.1,0.4,0.3,0.6,0.4
		c0.1,0.2,0.2,0.4,0.2,0.6c0,0.3,0,0.5-0.2,0.8c-0.1,0.2-0.2,0.4-0.4,0.5c-0.2,0.1-0.4,0.2-0.6,0.2c-0.2,0.1-0.5,0.1-0.7,0.1
		c-0.2,0-1.7,0-1.9,0h-0.9c0,0-0.1,0-0.1,0c0,0-0.1,0-0.1-0.1c0-0.1,0-0.1,0-0.2v-4.4c0-0.1,0.1-0.2,0.2-0.2c0.1,0,0.3-0.1,0.4-0.1
		h0.5c0.2,0,1.4,0,1.6,0s0.5,0,0.7,0c0.2,0,0.4,0.1,0.7,0.2c0.2,0.1,0.4,0.2,0.5,0.4c0.1,0.2,0.2,0.4,0.2,0.7
		C86.1,13.8,85.9,14.1,85.6,14.4L85.6,14.4z"/>
	<path class="st3" d="M89,17.1h-1.1c-0.3,0-0.7,0-1-0.1c0-0.3-0.1-0.6-0.1-1V15v-1.1c0-0.4,0-0.7,0-1.1v-0.6h0.3h2.9h0.4
		c0,0.1,0,0.3,0,0.4v0.2c0,0.1,0,0.1,0,0.2h-0.2h-1.4c-0.3,0-0.6,0-0.9,0c0,0,0,0.1,0,0.1v0.9c0.3,0,0.5,0,0.8,0h1.1c0,0,0,0,0,0.1
		v0.1v0.6c0,0,0,0,0,0.1h-0.1H88V16c0.1,0.1,0.3,0.1,0.4,0.1H89h0.9c0.2,0,0.4,0,0.6,0c0,0.1,0,0.2,0,0.2c0,0.1,0,0.2,0,0.2
		c0,0.1,0,0.2,0,0.2c0,0.1,0,0.2,0,0.2L89,17.1z"/>
	<path class="st3" d="M91,12.2h0.3h0.3H92c0,0.4,0.1,0.9,0.1,1.3v2c0,0.2,0,0.4,0,0.6c0.3,0,0.7,0,1,0c0.3,0,0.6,0,0.9,0
		c0,0.1,0,0.2,0,0.4c0,0.1,0,0.2,0,0.3c0,0.1,0,0.2,0,0.2c-0.1,0-0.2,0-0.3,0h-1.3c-0.4,0-0.9,0-1.4-0.1c0-0.3-0.1-0.7-0.1-1
		c0-0.4,0-0.7,0-1.1s0-0.7,0-1.1s0-0.7,0-1.1L91,12.2z"/>
	<path class="st3" d="M94.3,12.2h0.3H95h0.3c0,0.4,0.1,0.9,0.1,1.3v2c0,0.2,0,0.4,0,0.6c0.3,0,0.7,0,1,0c0.3,0,0.6,0,0.9,0
		c0,0.1,0,0.2,0,0.4c0,0.1,0,0.2,0,0.3c0,0.1,0,0.2,0,0.2c-0.1,0-0.2,0-0.3,0h-1.3c-0.4,0-0.9,0-1.4-0.1c0-0.3-0.1-0.7-0.1-1
		c0-0.4,0-0.7,0-1.1s0-0.7,0-1.1s0-0.7,0-1.1L94.3,12.2z"/>
	<path class="st3" d="M64.5,17.1h-1.1c-0.3,0-0.7,0-1-0.1c0-0.3-0.1-0.7-0.1-1c0-0.4,0-0.7,0-1.1s0-0.8,0-1.1s0-0.7,0-1.1v-0.6h0.3
		H66h0.4c0,0.1,0,0.3,0,0.4v0.2c0,0.1,0,0.1,0,0.2h-0.2h-1.8c-0.3,0-0.6,0-0.9,0c0,0,0,0.1,0,0.1V16c0.1,0.1,0.3,0.1,0.4,0.1h0.6
		h1.3c0.2,0,0.4,0,0.6,0c0,0.1,0,0.2,0,0.2c0,0.1,0,0.2,0,0.2c0,0.1,0,0.2,0,0.2v0.2L64.5,17.1z"/>
	<path class="st3" d="M100.7,14.4C100.7,14.4,100.7,14.5,100.7,14.4l0.6,0.1c0.3,0,0.7,0,1-0.1c0.1,0,0.3-0.1,0.4-0.2
		c0.1-0.1,0.2-0.3,0.2-0.4c0-0.1,0-0.3-0.1-0.4c-0.1-0.1-0.2-0.2-0.4-0.2c-0.3,0-0.7-0.1-1-0.1h-0.4c0,0-0.1,0-0.1,0
		c0,0-0.1,0-0.1,0.1c0,0,0,0.1,0,0.1s0,0.1,0,0.1s0,0.2,0,0.3L100.7,14.4L100.7,14.4z M103,17.2c-0.1-0.1-0.1-0.2-0.2-0.3
		c-0.1-0.2-0.2-0.3-0.2-0.5l-0.2-0.6l-0.2-0.4c-0.3,0-0.6,0-0.8-0.1h-0.5h-0.2c0,0.1,0,0.1,0,0.2v0.2c0,0.2,0,0.5,0,0.7
		c0,0.2,0,0.5,0,0.7c-0.1,0-0.3,0-0.4,0h-0.7c0-0.1-0.1-0.2-0.1-0.4c0-0.2,0-0.5,0-0.8s0-0.6,0-1v-1c0-0.3,0-0.6,0-0.9v-0.5
		c0-0.1,0-0.2,0-0.2c0-0.1,0-0.2,0-0.2c0.2,0,0.3,0,0.5,0h1.1c0.2,0,1,0,1.2,0.1c0.2,0,0.4,0.1,0.6,0.1c0.2,0.1,0.4,0.1,0.5,0.3
		c0.2,0.1,0.3,0.3,0.3,0.4c0.1,0.2,0.1,0.4,0.1,0.7c0,0.1,0,0.3,0,0.4c0,0.1-0.1,0.2-0.1,0.4c-0.1,0.1-0.2,0.2-0.2,0.3l-0.3,0.3
		c0,0.2,0.1,0.3,0.2,0.5l0.2,0.5c0.1,0.2,0.2,0.3,0.2,0.5c0.1,0.2,0.1,0.3,0.1,0.5H104L103,17.2L103,17.2z"/>
	<path class="st3" d="M105.5,17.2h-1c0-0.1,0-1.8,0-1.9s0-0.6,0-0.7V13c0-0.1,0-0.2,0-0.3v-0.3h0.3h0.8h0.1l0,0
		C105.6,13.1,105.7,16.3,105.5,17.2L105.5,17.2z"/>
	<path class="st3" d="M108.6,17.2h-1.1c-0.1-0.2-0.1-0.4-0.2-0.6c-0.1-0.3-0.2-0.6-0.2-0.9s-0.2-0.7-0.3-1s-0.2-0.7-0.2-1
		s-0.1-0.6-0.2-0.9c0-0.2-0.1-0.4-0.1-0.6h0.1h0.8c0.2,0.3,0.3,0.6,0.4,0.9c0.1,0.3,0.2,0.6,0.3,0.9s0.2,0.6,0.2,1s0.1,0.6,0.2,1
		h0.1c0-0.1,0-0.3,0.1-0.5l0.2-0.7c0.1-0.3,0.1-0.5,0.2-0.8s0.2-0.5,0.2-0.8s0.2-0.4,0.2-0.6c0-0.1,0.1-0.3,0.2-0.4h1
		c0,0.2,0,0.4-0.1,0.6c-0.1,0.2-0.1,0.5-0.2,0.8c-0.1,0.3-0.2,0.6-0.3,1s-0.2,0.7-0.3,1l-0.3,0.9c-0.1,0.2-0.2,0.4-0.2,0.6
		L108.6,17.2z"/>
	<path class="st3" d="M113.1,17.1H112c-0.3,0-0.7,0-1-0.1c0-0.3-0.1-0.7-0.1-1c0-0.4,0-0.7,0-1.1s0-0.8,0-1.1s0-0.7,0-1v-0.6h0.3h4
		c0,0.1,0,0.3,0,0.4v0.2c0,0.1,0,0.1,0,0.2H115h-0.8H113c-0.3,0-0.6,0-0.9,0.1c0,0,0,0.1,0,0.1v0.9c0.3,0,0.5,0,0.8,0h1.3l0,0v0.1
		l-0.1,0.6c0,0,0,0,0,0.1H114h-1.3l-0.7,0v1.1c0.1,0.1,0.3,0.1,0.4,0.1h0.6h1c0.2,0,1,0,1.1,0c0,0.1,0,0.2,0,0.2v0.2
		c0,0.1,0,0.2,0,0.2v0.2L113.1,17.1z"/>
	<path class="st3" d="M116.6,14.4C116.6,14.4,116.6,14.4,116.6,14.4l0.2,0.1h1.1c0.2,0,0.3,0,0.5-0.1c0.1,0,0.3-0.1,0.4-0.2
		c0.1-0.1,0.2-0.3,0.2-0.4c0-0.1,0-0.3-0.2-0.4c-0.1-0.1-0.2-0.2-0.3-0.2c-0.1,0-0.3-0.1-0.4-0.1h-1.1h-0.1c0,0,0,0-0.1,0.1
		c0,0,0,0.1,0,0.1c0,0,0,0.1,0,0.1s0,0.2,0,0.3L116.6,14.4L116.6,14.4z M120.4,16.2l0.1,0.4c0,0.1,0,0.3,0,0.4c0,0.1,0,0.1-0.1,0.1
		l-0.2,0.1h-0.2h-0.2c-0.2,0-0.4,0-0.6-0.1c-0.2-0.1-0.3-0.2-0.4-0.3c-0.1-0.1-0.2-0.3-0.3-0.5c-0.1-0.2-0.2-0.4-0.3-0.6l-0.1-0.5
		c-0.1,0-0.1-0.1-0.2-0.1h-1.2c0,0.1,0,0.2,0,0.2v0.2c0,0.2,0,0.5,0,0.7c0,0.2,0,0.5,0,0.7c-0.1,0-0.3,0-0.4,0h-0.7
		c0-0.1-0.1-0.2-0.1-0.4c0-0.2,0-0.5,0-0.8s0-0.6,0-1v-1c0-0.3,0-0.6,0-0.8v-0.5c0-0.1,0-0.2,0-0.2c0-0.1,0-0.2,0-0.2
		c0.2,0,0.3,0,0.5,0h1.8c0.2,0,0.4,0,0.7,0.1c0.2,0,0.4,0.1,0.6,0.1c0.2,0.1,0.4,0.2,0.5,0.3c0.2,0.1,0.3,0.3,0.3,0.4
		c0.1,0.2,0.1,0.4,0.1,0.6c0,0.1,0,0.3,0,0.4c0,0.1-0.1,0.2-0.2,0.4c-0.1,0.1-0.2,0.2-0.3,0.3c-0.1,0.1-0.3,0.2-0.4,0.3
		c0,0.1,0.1,0.3,0.2,0.4c0.1,0.1,0.1,0.2,0.2,0.4c0.1,0.1,0.2,0.2,0.3,0.3c0.1,0.1,0.2,0.1,0.3,0.1h0.2
		C120.2,16.1,120.3,16.1,120.4,16.2L120.4,16.2z"/>
	<path class="st3" d="M97.4,36.1L97.4,36.1h-0.1h-0.2c-0.1,0-0.2,0-0.3,0c-0.1,0-0.2,0.1-0.3,0.1l-0.1,0.1l-0.2,0.1
		c-0.1,0-0.1,0.1-0.2,0.1L96,36.7l-0.2,0.1l0,0c-0.1,0.1-0.2,0.1-0.3,0.1c-0.1,0-0.3,0.1-0.4,0.1c-0.1,0-0.3,0-0.4-0.1h-0.1l0,0
		h-0.1c0,0,0,0-0.1,0l-0.2-0.1L94,36.6l-0.1-0.1l-0.3-0.2l-0.1-0.1l-0.1-0.1c0,0-0.1-0.1-0.2,0h-0.1l-0.1-0.1
		C93,36.1,92.9,36,92.8,36c-0.1,0-0.3,0-0.4,0h-0.2c-0.3,0-0.6,0-0.9,0.1c-0.1,0-0.2,0.1-0.2,0.2L91,36.4h-0.1l-0.2,0.2l-0.2,0.1
		l-0.1,0.1h-0.1c-0.1,0-0.2,0.1-0.2,0.1h-0.1c-0.1,0-0.2,0-0.3,0c-0.1,0-0.3,0-0.4,0c-0.1,0-0.2-0.1-0.2-0.1l-0.1-0.1
		c-0.1,0-0.1-0.1-0.2-0.1l-0.1-0.1c-0.1,0-0.1-0.1-0.2-0.1l-0.2-0.1c-0.1-0.1-0.2-0.1-0.4-0.2c-0.1,0-0.3-0.1-0.4-0.1h-0.1
		c-0.1,0-0.2,0-0.3,0h-0.1c-0.1,0-0.2,0-0.3,0c-0.1,0-0.2,0.1-0.3,0.1H86H86l-0.3,0.1l-0.3,0.2l0,0l0,0l0,0c0,0.1,0,0.2,0.1,0.3
		l0.1,0.1c0,0,0.1,0.1,0.2,0.1c0,0,0.1,0,0.1,0l0,0l0,0c0.1-0.1,0.2-0.1,0.3-0.2c0.1-0.1,0.2-0.1,0.4-0.2c0.1,0,0.1,0,0.2,0h0.2
		c0.1,0,0.3,0,0.4,0c0.1,0,0.2,0.1,0.4,0.1c0.1,0,0.1,0.1,0.1,0.1c0,0,0.1,0.1,0.1,0.1l0.3,0.2l0,0c0.1,0,0.2,0.1,0.3,0.1h0.2h0.1
		c0.1,0,0.2,0.1,0.3,0.1c0.1,0,0.3,0,0.4,0c0.1,0,0.2,0,0.3,0H90h0.2c0.1,0,0.2,0,0.3,0c0.1,0,0.2-0.1,0.2-0.1l0.1-0.1L91,37
		c0.1,0,0.1-0.1,0.2-0.1l0.1-0.1l0.2-0.1l0,0c0.1-0.1,0.2-0.1,0.3-0.1c0.1,0,0.3-0.1,0.4-0.1c0.1,0,0.3,0,0.4,0.1h0.1l0,0h0.1h0.1
		l0.2,0.1l0.2,0.1l0.1,0.1c0.1,0.1,0.2,0.1,0.3,0.2l0.1,0.1l0.1,0.1c0,0,0.1,0.1,0.2,0H94l0.1,0.1c0.1,0.1,0.2,0.1,0.3,0.1h0.6
		c0.1,0,0.3,0,0.4,0c0.2,0,0.3-0.1,0.4-0.1c0.1,0,0.2-0.1,0.2-0.1l0.1-0.1h0.1l0.2-0.2c0.1,0,0.1-0.1,0.2-0.1l0.1-0.1l0.1,0
		c0.1-0.1,0.2-0.1,0.2-0.1h0.1h0.2l0.1-0.1c0,0,0,0,0-0.1c0-0.1,0-0.2,0-0.2S97.5,36.1,97.4,36.1"/>
	<path class="st3" d="M97.4,37.5c0,0-0.1,0-0.1,0c-0.1,0-0.3,0.1-0.4,0.1c-0.1,0-0.2,0.1-0.2,0.1l-0.1,0.1h-0.1
		c-0.1,0-0.2,0.1-0.2,0.1c-0.1,0.1-0.2,0.1-0.3,0.2c-0.1,0.1-0.2,0.1-0.3,0.1h-0.1c-0.1,0-0.2,0-0.3,0h-0.3h-0.1h-0.1h-0.3l-0.2-0.1
		h-0.1H94L93.8,38c-0.1,0-0.1-0.1-0.2-0.1l-0.2-0.1l0,0l0,0c-0.1,0-0.1-0.1-0.2,0c-0.1,0-0.1-0.1-0.2-0.1c-0.2,0-0.3-0.1-0.5-0.1
		c-0.1,0-0.2,0-0.3,0h-0.2h-0.2c-0.1,0-0.2,0-0.2,0c-0.1,0-0.2,0-0.3,0.1l-0.1,0h-0.1c-0.1,0-0.2,0-0.2,0.1c-0.1,0-0.1,0.1-0.2,0.1
		L90.6,38l-0.2,0.1l-0.1,0.1c-0.1,0-0.2,0.1-0.3,0.1l0,0c-0.1,0-0.2,0-0.3,0c-0.1,0-0.3,0-0.4,0c-0.1,0-0.2-0.1-0.3-0.1L88.7,38
		l-0.2-0.1l-0.1-0.1c-0.1-0.1-0.1-0.1-0.2-0.1c-0.1-0.1-0.2-0.1-0.4-0.2l0,0l-0.1,0c-0.1,0-0.2-0.1-0.3-0.1c-0.2,0-0.3,0-0.5,0
		c-0.1,0-0.3,0-0.4,0l0,0h-0.2c-0.1,0-0.2,0-0.3,0.1c-0.1,0-0.2,0.1-0.2,0.1c0,0-0.1,0.1-0.1,0.1l-0.3,0.2c0,0.1,0,0.3,0,0.4
		c0.1,0.1,0.3,0.1,0.4,0l0,0l0,0c0.1,0,0.1-0.1,0.1-0.1c0,0,0.1-0.1,0.1-0.1c0.1-0.1,0.2-0.1,0.4-0.1c0.1,0,0.3-0.1,0.4-0.1
		c0.1,0,0.3,0,0.4,0.1l0,0c0.1,0,0.3,0.1,0.4,0.1l0.3,0.2l0.1,0.1l0.2,0.2h0.1c0.1,0.1,0.2,0.1,0.3,0.2c0.1,0,0.2,0,0.3,0h0.2h0.2
		c0.1,0,0.2,0.1,0.3,0.1c0.1,0,0.3,0,0.4,0c0.1,0,0.2-0.1,0.3-0.1h0.1h0.1c0.1,0,0.2,0,0.2-0.1c0.1,0,0.1-0.1,0.2-0.1
		c0,0,0.1-0.1,0.1-0.1c0.1,0,0.1-0.1,0.2-0.1l0.1-0.1h0.1c0.1,0,0.1-0.1,0.2-0.1c0.1,0,0.1,0,0.2,0H92h0.4h0.1c0.1,0,0.2,0,0.3,0.1
		l0.2,0.1l0.1,0.1l0.2,0.1h0.1h0.1l0,0l0.2,0.1l0.1,0.1l0.3,0.1l0,0c0.1,0,0.2,0,0.3,0h0.2h0.2c0.1,0,0.2,0,0.3,0s0.3,0,0.4,0l0,0
		c0.1,0,0.3,0,0.4-0.1c0.1,0,0.2-0.1,0.2-0.1l0.1-0.1l0.2-0.1c0.1,0,0.1-0.1,0.2-0.1l0,0l0.2-0.2l0,0c0.1-0.1,0.2-0.1,0.2-0.1
		c0-0.1,0.2-0.2,0.2-0.2c0-0.1-0.1-0.3-0.1-0.4"/>
	<path class="st3" d="M97.6,35.1c0,0,0-0.1,0-0.1c0-0.1-0.1-0.2-0.1-0.2h-0.1h-0.1c-0.1,0-0.2,0.1-0.3,0.1h-0.1h-0.1
		c-0.1,0-0.2,0-0.3,0.1c-0.1,0-0.1,0.1-0.2,0.1l-0.1,0.1l-0.2,0.1L96,35.3h-0.1c-0.1,0-0.1,0.1-0.2,0.1c-0.1,0-0.1,0-0.2,0h-0.2
		h-0.5c-0.1,0-0.2,0-0.3-0.1l-0.2-0.1l-0.2,0l-0.2-0.1l-0.1,0h-0.1l0,0l-0.2-0.1l-0.1-0.1c-0.1-0.1-0.2-0.1-0.3,0
		c-0.1,0-0.2,0-0.3,0h-0.2h-0.2c-0.1,0-0.2,0-0.3,0c-0.1,0-0.3,0-0.4,0l0,0c-0.1,0-0.3,0-0.4,0.1c-0.1,0-0.2,0.1-0.2,0.1l-0.1,0.1
		l-0.2,0.1c-0.1,0-0.1,0.1-0.2,0.1l0,0l-0.2,0.2l0,0c-0.1,0-0.2,0.1-0.3,0.1c-0.1,0-0.2,0-0.4,0c-0.1,0-0.2,0-0.4,0
		c-0.1,0-0.2-0.1-0.3-0.1l-0.2-0.1c-0.1,0-0.1,0-0.2-0.1l-0.1-0.1L88.2,35l-0.1-0.1c-0.1-0.1-0.2-0.1-0.2-0.1h-0.3h-0.2
		c-0.1,0-0.3,0-0.4,0h-0.5l-0.4,0.1h-0.1c-0.1,0-0.2,0.1-0.3,0.1h-0.1l0,0c-0.1,0-0.2,0.1-0.4,0.2c0,0,0,0,0,0.1
		c0,0.1,0,0.1,0.1,0.2l0,0l0.1,0.1c0,0,0.1,0,0.1,0c0.1,0,0.2,0,0.2,0c0.1-0.1,0.2-0.1,0.3-0.1h0.1c0.1-0.1,0.3-0.1,0.4-0.1h0.2
		c0.1,0,0.2,0,0.3,0c0.1,0,0.2,0,0.3,0h0.1c0.1,0,0.2,0.1,0.3,0.1l0.2,0.1l0.1,0.1l0.2,0.1l0.1,0.1l0.1,0.1c0.1,0.1,0.1,0.1,0.2,0.1
		c0.1,0,0.2,0,0.3,0h0.2h0.4H90c0.1,0,0.3-0.1,0.4-0.1c0.1,0,0.2-0.1,0.2-0.1l0.1-0.1l0.1-0.1l0.2-0.1c0.1-0.1,0.2-0.1,0.3-0.2
		c0.1-0.1,0.2-0.1,0.3-0.1h0.1c0.1,0,0.2,0,0.3,0c0.1,0,0.2,0,0.3,0h0.2c0.1,0,0.2,0,0.3,0c0.1,0,0.2,0.1,0.2,0.1c0,0,0.1,0,0.1,0
		c0,0,0.1,0,0.1,0l0.2,0.1c0.1,0,0.1,0.1,0.2,0.1l0.2,0.1l0,0l0,0c0.1,0,0.1,0.1,0.2,0c0.1,0,0.1,0.1,0.2,0.1c0.2,0,0.3,0.1,0.5,0.1
		c0.1,0,0.2,0.1,0.3,0.1h0.2h0.2l0,0c0.2-0.1,0.4-0.1,0.7-0.2l0.4-0.2l0.1-0.1l0.1-0.1l0.2-0.1h0.1c0.1-0.1,0.2-0.1,0.3-0.1h0.1
		C97.4,35.2,97.5,35.2,97.6,35.1L97.6,35.1"/>
	<rect x="100.9" y="36.3" class="st4" width="31.3" height="0.5"/>
	<rect x="50.6" y="36.3" class="st4" width="30.9" height="0.5"/>
	<path class="st3" d="M48.1,26.4c0-0.5,0.1-1,0.2-1.5c0.1-0.5,0.3-0.9,0.6-1.3c0.3-0.4,0.6-0.7,1-0.9c0.4-0.2,0.9-0.4,1.4-0.3
		c0.3,0,0.6,0,0.8,0.1c0.3,0.1,0.5,0.1,0.8,0.3c0.2,0.1,0.5,0.3,0.7,0.5c0.2,0.2,0.4,0.4,0.5,0.7c-0.1,0.1-0.2,0.2-0.3,0.3
		c-0.1,0.1-0.2,0.2-0.4,0.3c-0.1,0.1-0.2,0.1-0.3,0.2c-0.1,0-0.2,0.1-0.2,0.2c-0.1-0.3-0.3-0.5-0.6-0.6C52,24,51.8,24,51.5,24
		c-0.3,0-0.6,0-0.8,0.2c-0.2,0.1-0.4,0.3-0.5,0.5c-0.1,0.2-0.2,0.5-0.3,0.8c-0.1,0.3-0.1,0.7-0.1,1c0,0.2,0,0.5,0,0.7
		c0,0.3,0.1,0.5,0.2,0.7c0.1,0.2,0.3,0.4,0.5,0.5c0.4,0.2,0.9,0.3,1.3,0.1c0.1,0,0.3-0.1,0.4-0.2c0.1-0.1,0.2-0.2,0.3-0.4l0.3-0.5
		c0.2,0,0.5,0.1,0.7,0.2l0.6,0.3c-0.1,0.3-0.2,0.6-0.4,0.8c-0.2,0.3-0.4,0.5-0.6,0.7c-0.3,0.2-0.5,0.4-0.9,0.5
		c-0.8,0.3-1.7,0.2-2.5-0.1c-0.4-0.2-0.7-0.5-1-0.8c-0.3-0.4-0.5-0.8-0.6-1.2C48.1,27.5,48.1,26.9,48.1,26.4z"/>
	<path class="st3" d="M61,30.2c-0.5,0-1-0.1-1.5-0.3c-0.4-0.2-0.7-0.5-1-0.9c-0.3-0.4-0.5-0.8-0.6-1.3c-0.1-0.5-0.2-1-0.2-1.5
		c0-0.4,0.1-0.9,0.2-1.3c0.1-0.4,0.3-0.9,0.6-1.2c0.3-0.4,0.6-0.7,1-0.9c0.4-0.2,0.9-0.4,1.3-0.3c0.5,0,1,0.1,1.5,0.3
		c0.4,0.2,0.8,0.5,1,0.8c0.3,0.4,0.5,0.8,0.7,1.2c0.1,0.5,0.2,1,0.2,1.5c0,0.5-0.1,1-0.2,1.4c-0.1,0.5-0.3,0.9-0.6,1.3
		c-0.3,0.4-0.6,0.7-1,0.9C62,30.1,61.5,30.2,61,30.2z M61,28.6c0.3,0,0.6-0.1,0.8-0.2c0.2-0.1,0.4-0.3,0.5-0.6
		c0.1-0.2,0.2-0.5,0.3-0.8c0-0.3,0.1-0.6,0.1-0.8c0-0.3,0-0.5-0.1-0.8c0-0.3-0.1-0.5-0.2-0.7c-0.1-0.2-0.3-0.4-0.5-0.6
		c-0.2-0.2-0.5-0.2-0.8-0.2c-0.3,0-0.6,0.1-0.9,0.3c-0.2,0.2-0.4,0.4-0.5,0.7c-0.1,0.3-0.2,0.6-0.2,0.9c0,0.3-0.1,0.6-0.1,0.9
		c0,0.2,0,0.5,0.1,0.7c0.1,0.2,0.2,0.4,0.3,0.6c0.1,0.2,0.3,0.3,0.5,0.4C60.5,28.6,60.7,28.6,61,28.6z"/>
	<path class="st3" d="M68.3,22.5c0.2,0,0.3,0,0.5,0h0.5c0.2,0,0.3,0,0.5,0c0.1,0.7,0.1,1.3,0.1,2v3c0,0.3,0,0.6,0,1c0.5,0,1,0,1.5,0
		c0.5,0,1,0,1.5,0c0,0.2,0.1,0.4,0.1,0.5c0,0.2,0,0.4,0,0.5c0,0.1,0,0.2,0,0.4c-0.2,0-0.4,0-0.7,0h-2c-0.7,0-1.3,0-2-0.1
		c0-0.5-0.1-1.1-0.1-1.7s0-1.1,0-1.7v-1.7c0-0.6,0-1.1,0-1.6L68.3,22.5z"/>
	<path class="st3" d="M76.7,22.5c0.2,0,0.3,0,0.5,0h0.5h0.5c0.1,0.7,0.1,1.3,0.1,2v3c0,0.3,0,0.6,0,1c0.5,0,1,0,1.5,0
		c0.5,0,1,0,1.5,0c0,0.1,0,0.3,0.1,0.5s0,0.4,0,0.5c0,0.1,0,0.2,0,0.4c-0.2,0-0.4,0-0.7,0h-2c-0.7,0-1.3,0-2-0.1
		c0-0.5-0.1-1.1-0.1-1.7s0-1.1,0-1.7v-1.7c0-0.6,0-1.1,0-1.6L76.7,22.5z"/>
	<path class="st3" d="M88.2,30.1c-0.5,0-1,0-1.5,0c-0.5,0-1,0-1.5-0.1c-0.1-0.5-0.1-1-0.1-1.5v-1.7c0-0.6,0-1.1,0-1.7s0-1.1,0-1.6
		v-0.9h0.4h3.9h0.5c0,0.2,0,0.5,0,0.7v0.3c0,0.1,0,0.2,0,0.3h-0.3c-0.1,0-0.2,0-0.3,0H88c-0.4,0-0.9,0-1.3,0.1c0,0.1,0,0.1,0,0.2
		v1.3c0.4,0,0.8,0,1.2,0c0.4,0,0.8,0,1.3,0c0,0,0,0,0,0.1c0,0.1,0,0.1,0,0.2L89,26.7c0,0,0,0.1-0.1,0.1c0,0-0.1,0-0.2,0h-0.2h-1
		c-0.3,0-0.6,0-0.9,0v0.6v1c0.2,0.1,0.4,0.1,0.6,0.1c0.3,0,0.6,0,0.9,0h0.9c0.3,0,0.5,0,0.8,0c0,0.1,0,0.2,0,0.4s0,0.2,0,0.4
		s0,0.2,0,0.4s0,0.2,0,0.4L88.2,30.1z"/>
	<path class="st3" d="M93.6,26.4c0-0.5,0.1-1,0.2-1.5c0.1-0.5,0.3-0.9,0.6-1.3c0.3-0.4,0.6-0.7,1-0.9c0.4-0.2,0.9-0.4,1.4-0.3
		c0.3,0,0.6,0,0.8,0.1c0.3,0.1,0.5,0.1,0.8,0.3c0.2,0.1,0.5,0.3,0.7,0.5c0.2,0.2,0.4,0.4,0.5,0.7c-0.1,0.1-0.2,0.2-0.3,0.3
		c-0.1,0.1-0.2,0.2-0.4,0.3c-0.1,0.1-0.2,0.1-0.3,0.2c-0.1,0-0.2,0.1-0.2,0.2c-0.1-0.3-0.3-0.5-0.6-0.6C97.5,24,97.3,24,97,24
		c-0.3,0-0.6,0-0.8,0.2c-0.2,0.1-0.4,0.3-0.5,0.5c-0.1,0.2-0.2,0.5-0.3,0.8c-0.1,0.3-0.1,0.7-0.1,1c0,0.2,0,0.5,0,0.7
		c0,0.3,0.1,0.5,0.2,0.7c0.1,0.2,0.3,0.4,0.5,0.5c0.2,0.2,0.5,0.2,0.8,0.2c0.2,0,0.3,0,0.5-0.1c0.1,0,0.3-0.1,0.4-0.2
		c0.1-0.1,0.2-0.2,0.3-0.4c0.1-0.1,0.2-0.3,0.3-0.5c0.2,0,0.5,0.1,0.7,0.2l0.6,0.3c-0.1,0.3-0.2,0.6-0.4,0.8
		c-0.2,0.3-0.4,0.5-0.6,0.7c-0.3,0.2-0.5,0.4-0.9,0.5c-0.8,0.3-1.7,0.2-2.5-0.1c-0.4-0.2-0.7-0.5-1-0.8c-0.3-0.4-0.5-0.8-0.6-1.2
		C93.7,27.4,93.6,26.9,93.6,26.4z"/>
	<path class="st3" d="M105,30c0-0.2,0-0.4,0-0.6c0-0.9,0-1.8,0-2.7s0-1.8-0.1-2.7c-0.3,0-0.6,0-0.9,0c-0.3,0-0.6,0-0.9,0
		c0-0.2,0-0.3,0-0.5s0-0.3,0-0.5c0-0.1,0-0.2,0-0.2c0-0.1,0-0.1,0-0.2c0.6,0,1.3-0.1,1.9-0.1h1.9h0.8c0.3,0,0.5,0,0.8,0.1
		c0,0.2,0.1,0.4,0.1,0.5c0,0.2,0,0.4,0,0.5V24l-0.5,0h-0.8c-0.2,0-0.5,0-0.8,0c0,0.5,0,1,0,1.5s0,1,0,1.5s0,1,0,1.5
		c0,0.5,0,1-0.1,1.5c-0.2,0-0.3,0.1-0.5,0h-0.5L105,30z"/>
	<path class="st3" d="M113.7,30h-1.3h-0.1v-0.5c0-0.2,0-0.3,0-0.5v-5.5c0-0.2,0-0.3,0-0.5v-0.5c0.1,0,0.3,0,0.4,0h0.4h0.7h0.1h0.1
		c0,1.2,0,2.5,0,3.7s0,2.5-0.1,3.7L113.7,30z"/>
	<path class="st3" d="M121.3,30.2c-0.5,0-1-0.1-1.5-0.3c-0.4-0.2-0.7-0.5-1-0.9c-0.3-0.4-0.5-0.8-0.6-1.3c-0.1-0.5-0.2-1-0.2-1.5
		c0-0.4,0.1-0.9,0.2-1.3c0.1-0.4,0.3-0.9,0.6-1.2c0.3-0.4,0.6-0.7,1-0.9c0.4-0.2,0.9-0.4,1.3-0.3c0.5,0,1,0.1,1.5,0.3
		c0.4,0.2,0.7,0.5,1,0.8c0.3,0.4,0.5,0.8,0.6,1.2c0.1,0.5,0.2,1,0.2,1.5c0,0.5-0.1,0.9-0.2,1.4c-0.1,0.5-0.3,0.9-0.6,1.3
		c-0.3,0.4-0.6,0.7-1,0.9C122.3,30.1,121.8,30.2,121.3,30.2z M121.2,28.6c0.3,0,0.6-0.1,0.8-0.2c0.2-0.1,0.4-0.3,0.5-0.6
		c0.1-0.2,0.2-0.5,0.3-0.8c0-0.3,0.1-0.6,0.1-0.8c0-0.3,0-0.5-0.1-0.8c0-0.3-0.1-0.5-0.2-0.7c-0.1-0.2-0.3-0.4-0.5-0.6
		c-0.2-0.2-0.5-0.2-0.8-0.2c-0.3,0-0.6,0.1-0.9,0.3c-0.2,0.2-0.4,0.4-0.5,0.7c-0.1,0.3-0.2,0.6-0.2,0.9c0,0.3-0.1,0.6-0.1,0.9
		c0,0.2,0,0.5,0.1,0.7c0.1,0.2,0.2,0.4,0.3,0.6c0.1,0.2,0.3,0.3,0.5,0.4C120.7,28.6,121,28.6,121.2,28.6z"/>
	<path class="st3" d="M134,30h-0.8c-0.3,0-0.6,0-0.8-0.1c-0.2-0.4-0.4-0.8-0.6-1.2s-0.4-0.8-0.6-1.2s-0.4-0.9-0.5-1.3
		c-0.2-0.4-0.3-0.9-0.4-1.3h-0.1v1.4c0,0.6,0,1.3,0,1.9c0,0.6,0,1.3,0,1.9h-0.4h-1.3v-0.9c0-0.3,0-0.6,0-0.9v-4.5v-1.1h1.4
		c0.1,0,0.3,0,0.4,0l0.4,0c0.2,0.5,0.4,0.9,0.6,1.4l0.6,1.4c0.2,0.4,0.4,0.9,0.6,1.4c0.2,0.5,0.4,0.9,0.5,1.4h0c0-0.3,0-0.5,0-0.8
		s0-0.5,0-0.8c0-0.6,0-1.3,0-1.9c0-0.6,0-1.3,0-1.9c0.1,0,0.2,0,0.4,0h0.8h0.4c0,0.5,0.1,1,0.1,1.5s0,1,0,1.5s0,1,0,1.5s0,1,0,1.5
		v0.7c0,0.2,0,0.5,0,0.7L134,30z"/>
</g>
</svg>
