<svg id="Layer_1" data-name="Layer 1" xmlns="http://www.w3.org/2000/svg" xmlns:xlink="http://www.w3.org/1999/xlink" viewBox="0 0 728 90"><defs><style>.cls-1{fill:none;}.cls-2{clip-path:url(#clip-path);}.cls-3{clip-path:url(#clip-path-3);}.cls-4{clip-path:url(#clip-path-4);}.cls-5{clip-path:url(#clip-path-5);}.cls-6{fill:#fff;}.cls-7{fill:#221e1f;}.cls-8{clip-path:url(#clip-path-6);}.cls-9{clip-path:url(#clip-path-8);}.cls-10{clip-path:url(#clip-path-9);}.cls-11{clip-path:url(#clip-path-10);}.cls-12{clip-path:url(#clip-path-12);}.cls-13{clip-path:url(#clip-path-13);}</style><clipPath id="clip-path"><rect class="cls-1" x="-1496" width="728" height="90"/></clipPath><clipPath id="clip-path-3"><rect class="cls-1" x="-1061.01" y="30.56" width="59.44" height="59.08"/></clipPath><clipPath id="clip-path-4"><rect class="cls-1" x="-34264" y="-32677" width="65535" height="65535"/></clipPath><clipPath id="clip-path-5"><rect class="cls-1" width="728" height="90"/></clipPath><clipPath id="clip-path-6"><rect class="cls-1" x="1496" width="728" height="90"/></clipPath><clipPath id="clip-path-8"><rect class="cls-1" x="1930.99" y="30.56" width="59.44" height="59.08"/></clipPath><clipPath id="clip-path-9"><rect class="cls-1" x="-31272" y="-32677" width="65535" height="65535"/></clipPath><clipPath id="clip-path-10"><rect class="cls-1" x="2992" width="728" height="90"/></clipPath><clipPath id="clip-path-12"><rect class="cls-1" x="3426.99" y="30.56" width="59.44" height="59.08"/></clipPath><clipPath id="clip-path-13"><rect class="cls-1" x="-29776" y="-32677" width="65535" height="65535"/></clipPath></defs><g class="cls-5"><rect class="cls-6" x="32" y="23.31" width="92.07" height="40.13"/><path class="cls-7" d="M99.28,49.29V37.93h2.39c3.46,0,5.47,2.13,5.47,5.65s-2,5.71-5.47,5.71Zm-4.42,3.49H102a10,10,0,0,0,7.1-2.45,8.64,8.64,0,0,0,2.65-6.72,8.64,8.64,0,0,0-2.65-6.72,10,10,0,0,0-7.1-2.45h-7.1ZM80,34.44H75.8V52.78h4.07V41.08l8.5,11.7h3.52V34.44h-4v11Zm-6.6,14.7H63.63V45.27h7.42V41.69H63.63V38.08h9.55V34.44H59.29V52.78H73.44ZM41.05,46.26a6,6,0,0,0,2.35,5.09,9.76,9.76,0,0,0,6,1.78,9.41,9.41,0,0,0,5.29-1.46,4.78,4.78,0,0,0,2.19-4.28c0-3-1.75-4.86-5.47-5.53L48,41.25c-1.31-.26-2.15-.64-2.15-1.69,0-1.25,1-2,2.91-2,2.09,0,3.61,1.07,3.72,3.2l4.08-.12c-.09-4-2.8-6.55-7.77-6.55-4.43,0-7.28,2.24-7.28,5.85,0,3.12,2.07,4.75,5,5.3l3.43.61c1.6.32,2.68.64,2.68,1.83s-1.22,2-3.17,2c-2.24,0-4.19-1-4.34-3.55Z"/></g></svg>