<?xml version="1.0" encoding="utf-8"?>
<!-- Generator: Adobe Illustrator 25.4.1, SVG Export Plug-In . SVG Version: 6.00 Build 0)  -->
<svg version="1.1" id="Layer_1" xmlns="http://www.w3.org/2000/svg" xmlns:xlink="http://www.w3.org/1999/xlink" x="0px" y="0px"
	 viewBox="0 0 728 90" style="enable-background:new 0 0 728 90;" xml:space="preserve">
<style type="text/css">
	.st0{fill:#221E1F;}
</style>
<g>
	<path class="st0" d="M38.4,55.6V42.2h-5.9v-3.8H49v3.8h-6v13.4H38.4z"/>
	<path class="st0" d="M54.2,55.9c-4,0-6.7-2.6-6.7-6.4s2.7-6.5,6.7-6.5s6.7,2.7,6.7,6.5S58.2,55.9,54.2,55.9z M54.2,52.6
		c1.5,0,2.2-1.3,2.2-3.1s-0.7-3.1-2.2-3.1S52,47.7,52,49.5S52.7,52.6,54.2,52.6z"/>
	<path class="st0" d="M63.1,46.5h-1.6v-2.7l0.9-0.1c1.2-0.2,1.6-0.8,1.9-2l0.4-1.6h2.8v3.4h3.2v3.1h-3.2v4.5c0,1,0.5,1.5,1.4,1.5
		c0.6,0,1.3-0.1,1.9-0.4v2.9c-1.1,0.8-2.4,1.2-3.7,1.1c-2.1,0-4-0.8-4-3.7V46.5z"/>
	<path class="st0" d="M83.9,52c0,0.6,0.3,0.9,0.7,0.9c0.3,0,0.7-0.1,1-0.2v2.4c-0.8,0.5-1.8,0.8-2.8,0.8c-1.4,0.1-2.7-0.8-3.1-2.2
		c-0.8,1.5-2.4,2.3-4.1,2.2c-2.4,0-3.9-1.2-3.9-3.3c0-2.3,1.7-3.4,4.4-3.8l3.4-0.6V48c0-1-0.5-1.6-1.5-1.6c-0.9,0-1.6,0.7-1.7,1.5
		l-4.1-0.3c0.4-2.7,2.4-4.5,6.1-4.5c3.2,0,5.6,1.4,5.6,4.8L83.9,52z M79.5,50.3l-1.8,0.3C76.7,50.9,76,51.2,76,52c0,0.6,0.5,1,1.2,1
		c1.3,0,2.3-1,2.3-2.3c0-0.1,0-0.2,0-0.2V50.3z"/>
	<path class="st0" d="M91.4,38.3v17.3h-4.4V38.3H91.4z"/>
	<path class="st0" d="M98.2,38.3v17.3h-4.4V38.3H98.2z"/>
	<path class="st0" d="M102.6,60l1.8-4.2l-5-12.4h4.7l2.7,7.2h0.1l2.8-7.2h4.4L107,60H102.6z"/>
	<path class="st0" d="M124.5,55.6H120V43.4h4.4v1.8c0.8-1.4,2.4-2.3,4-2.2c3.3,0,4.4,2.3,4.4,4.9v7.7h-4.4v-6.5
		c0-1.7-0.5-2.5-1.8-2.5s-2.1,1.2-2.1,3L124.5,55.6z"/>
	<path class="st0" d="M141.2,55.9c-4,0-6.7-2.6-6.7-6.4s2.7-6.5,6.7-6.5s6.7,2.7,6.7,6.5S145.1,55.9,141.2,55.9z M141.2,52.6
		c1.5,0,2.2-1.3,2.2-3.1s-0.7-3.1-2.2-3.1s-2.2,1.3-2.2,3.1S139.6,52.6,141.2,52.6z"/>
	<path class="st0" d="M150,46.5h-1.6v-2.7l0.9-0.1c1.2-0.2,1.6-0.8,1.9-2l0.4-1.6h2.8v3.4h3.2v3.1h-3.2v4.5c0,1,0.5,1.5,1.4,1.5
		c0.7,0,1.3-0.1,1.9-0.4v2.9c-1.1,0.8-2.4,1.2-3.7,1.1c-2,0-4-0.8-4-3.7L150,46.5z"/>
	<path class="st0" d="M175.8,52c0,0.6,0.3,0.9,0.7,0.9c0.3,0,0.7-0.1,1-0.2v2.4c-0.8,0.5-1.8,0.8-2.8,0.8c-1.4,0.1-2.7-0.8-3.1-2.2
		c-0.8,1.5-2.4,2.3-4.1,2.2c-2.4,0-4-1.2-4-3.3c0-2.3,1.7-3.4,4.4-3.8l3.4-0.6V48c0-1-0.5-1.6-1.5-1.6c-0.9,0-1.6,0.7-1.7,1.5
		l-4.1-0.3c0.4-2.7,2.4-4.5,6.1-4.5c3.2,0,5.6,1.4,5.6,4.8L175.8,52z M171.4,50.3l-1.8,0.3c-1.1,0.2-1.7,0.5-1.7,1.3
		c0,0.6,0.5,1,1.2,1c1.3,0,2.3-1,2.3-2.3c0-0.1,0-0.2,0-0.2V50.3z"/>
	<path class="st0" d="M190.9,50.3L190.9,50.3l2.3-6.9h4l-3.9,12.2H189l-1.8-6.9h-0.1l-1.8,6.9H181l-3.9-12.2h4.4l2.2,6.9h0.1
		l1.8-6.9h3.5L190.9,50.3z"/>
	<path class="st0" d="M202.8,55.6h-4.4V38.3h4.4v9.3l4.2-4.2h5.2l-5,4.8l5.2,7.4h-5l-3.5-5l-1.1,1.1V55.6z"/>
	<path class="st0" d="M225.9,50.3L225.9,50.3l2.3-6.9h4l-3.9,12.2H224l-1.8-6.9h-0.1l-1.8,6.9H216l-3.9-12.2h4.4l2.2,6.9h0.1
		l1.8-6.9h3.5L225.9,50.3z"/>
	<path class="st0" d="M244.6,52c0,0.6,0.3,0.9,0.7,0.9c0.3,0,0.7-0.1,1-0.2v2.4c-0.8,0.5-1.8,0.8-2.8,0.8c-1.4,0.1-2.7-0.8-3.1-2.2
		c-0.8,1.5-2.4,2.3-4.1,2.2c-2.4,0-3.9-1.2-3.9-3.3c0-2.3,1.7-3.4,4.4-3.8l3.4-0.6V48c0-1-0.5-1.6-1.5-1.6c-0.9,0-1.6,0.6-1.7,1.5
		l-4.1-0.3c0.4-2.7,2.4-4.5,6.1-4.5c3.2,0,5.6,1.4,5.6,4.8L244.6,52z M240.2,50.3l-1.8,0.3c-1.1,0.2-1.7,0.5-1.7,1.3
		c0,0.6,0.5,1,1.2,1c1.3,0,2.3-1,2.3-2.3c0-0.1,0-0.2,0-0.2L240.2,50.3z"/>
	<path class="st0" d="M256.8,47.7c-0.6-0.4-1.4-0.5-2.1-0.5c-1.7,0-2.7,0.8-2.7,2.8v5.6h-4.4V43.4h4.4v2.2c0.5-1.5,1.8-2.5,3.4-2.5
		c0.6,0,1.2,0.1,1.7,0.5L256.8,47.7z"/>
	<path class="st0" d="M267,53.5c-0.7,1.6-2.3,2.5-4,2.4c-3.6,0-5.4-2.8-5.4-6.4s1.8-6.5,5.4-6.5c1.7-0.1,3.3,0.8,4,2.4v-7.2h4.4
		v17.3H267V53.5z M267,49.4c0-1.8-1-2.9-2.4-2.9c-1.8,0-2.5,1.2-2.5,3s0.8,3,2.5,3c1.5,0,2.4-1.2,2.4-2.9V49.4z"/>
	<path class="st0" d="M291.3,50.3h0.1l2.2-6.9h4l-3.9,12.2h-4.4l-1.8-6.9h-0.1l-1.8,6.9h-4.4l-3.9-12.2h4.4l2.2,6.9h0.1l1.8-6.9h3.5
		L291.3,50.3z"/>
	<path class="st0" d="M298.8,38.3h4.5v3.9h-4.5V38.3z M303.2,43.3v12.3h-4.4V43.4L303.2,43.3z"/>
	<path class="st0" d="M306.1,46.5h-1.6v-2.7l0.9-0.1c1.2-0.2,1.6-0.8,1.9-2l0.4-1.6h2.8v3.4h3.2v3.1h-3.2v4.5c0,1,0.5,1.5,1.4,1.5
		c0.7,0,1.3-0.2,1.9-0.4v2.9c-1.1,0.8-2.4,1.2-3.7,1.1c-2,0-4-0.8-4-3.7V46.5z"/>
	<path class="st0" d="M319.9,55.6h-4.4V38.3h4.4v6.9c0.8-1.4,2.3-2.3,3.9-2.2c3.4,0,4.4,2.3,4.4,4.9v7.7h-4.4v-6.5
		c0-1.7-0.5-2.5-1.8-2.5c-1.5,0-2.1,1.2-2.1,3L319.9,55.6z"/>
	<path class="st0" d="M344.6,55.6h-9V38.3h8.4c4.4,0,6.4,1.9,6.4,4.8c0.1,1.8-1.3,3.3-3.1,3.5c2.1,0.2,3.7,2.1,3.6,4.2
		C351,53.8,348.6,55.6,344.6,55.6z M340.1,45.2h3.3c1.6,0,2.2-0.7,2.2-1.5S345,42,343.4,42h-3.3V45.2z M340.1,48.7v3.2h3.7
		c1.6,0,2.3-0.7,2.3-1.6s-0.7-1.6-2.4-1.6H340.1z"/>
	<path class="st0" d="M352.7,48.8V38.3h4.6V48c0,2.6,0.8,4,3.2,4s3.2-1.4,3.2-4v-9.7h4.7v10.4c0,5-3.4,7.2-7.9,7.2
		S352.7,53.8,352.7,48.8z"/>
	<path class="st0" d="M379,38c5.3,0,8.1,3.4,8.4,7.7l-4.5,0.2c-0.3-1.9-1.3-3.7-4-3.7s-4,1.9-4,4.8s1.5,4.8,4,4.8s3.7-1.8,4-3.7
		l4.5,0.2c-0.3,4.3-3.1,7.7-8.4,7.7c-4.7,0.1-8.7-3.6-8.9-8.3c0-0.2,0-0.4,0-0.7c-0.2-4.7,3.5-8.7,8.3-8.9C378.6,38,378.8,38,379,38
		z"/>
	<path class="st0" d="M400.2,55.6l-4.8-6.9l-1.5,1.6v5.2h-4.7V38.3h4.7v7l6.2-7h5.3l-6.7,7.3l7,9.9H400.2z"/>
	<path class="st0" d="M406.7,50.9h4.7v4.7h-4.7V50.9z"/>
</g>
</svg>
