<svg xmlns="http://www.w3.org/2000/svg" viewBox="0 0 144.85 19.5"><defs><style>.cls-1{fill:#fff;}</style></defs><g id="Layer_2" data-name="Layer 2"><g id="Layer_1-2" data-name="Layer 1"><path class="cls-1" d="M0,13.58l1.09-1.29A7.49,7.49,0,0,0,6.46,14.5c2.1,0,3.48-1.12,3.48-2.66v-.05c0-1.45-.78-2.27-4.06-3C2.28,8,.63,6.88.63,4.31v0C.63,1.81,2.79,0,5.76,0a8.19,8.19,0,0,1,5.5,1.92l-1,1.36A6.87,6.87,0,0,0,5.72,1.59c-2,0-3.33,1.11-3.33,2.52v0c0,1.47.8,2.3,4.24,3s5.1,2,5.1,4.43v0c0,2.68-2.24,4.42-5.34,4.42A9.14,9.14,0,0,1,0,13.58Z"/><path class="cls-1" d="M14.85,11.48V4.31h1.73v6.75c0,2.14,1.16,3.48,3.19,3.48a3.41,3.41,0,0,0,3.46-3.62V4.31h1.7V15.86h-1.7v-2a4.39,4.39,0,0,1-3.95,2.26C16.49,16.11,14.85,14.23,14.85,11.48Z"/><path class="cls-1" d="M28.79,4.31h1.72V6.63a5.21,5.21,0,0,1,4.43-2.56,5.63,5.63,0,0,1,5.52,6v0a5.66,5.66,0,0,1-5.52,6,5.24,5.24,0,0,1-4.43-2.46v5.78H28.79Zm9.9,5.81v0a4.16,4.16,0,0,0-4.07-4.46,4.3,4.3,0,0,0-4.17,4.44v0a4.29,4.29,0,0,0,4.17,4.46C36.86,14.56,38.69,12.91,38.69,10.12Z"/><path class="cls-1" d="M43.63,4.31h1.72V6.63a5.2,5.2,0,0,1,4.42-2.56,5.63,5.63,0,0,1,5.52,6v0a5.66,5.66,0,0,1-5.52,6,5.22,5.22,0,0,1-4.42-2.46v5.78H43.63Zm9.89,5.81v0a4.15,4.15,0,0,0-4.06-4.46,4.3,4.3,0,0,0-4.18,4.44v0a4.29,4.29,0,0,0,4.18,4.46C51.69,14.56,53.52,12.91,53.52,10.12Z"/><path class="cls-1" d="M57.75,10.14v0a6,6,0,0,1,12,0v0a6,6,0,0,1-6.06,6A5.92,5.92,0,0,1,57.75,10.14Zm10.27,0v0a4.37,4.37,0,0,0-4.29-4.52,4.27,4.27,0,0,0-4.22,4.47v0a4.33,4.33,0,0,0,4.27,4.49A4.26,4.26,0,0,0,68,10.14Z"/><path class="cls-1" d="M72.89,4.31h1.72v3a5,5,0,0,1,4.71-3.22V6h-.13c-2.52,0-4.58,1.81-4.58,5.3v4.6H72.89Z"/><path class="cls-1" d="M82.54,12.8v-7H80.93V4.31h1.61V.83h1.72V4.31h3.67V5.83H84.26v6.75a1.71,1.71,0,0,0,1.95,1.92,3.59,3.59,0,0,0,1.67-.4v1.47a4.35,4.35,0,0,1-2.08.49A2.94,2.94,0,0,1,82.54,12.8Z"/><path class="cls-1" d="M97,18.92l.58-1.36a3.59,3.59,0,0,0,1.81.42c1,0,1.67-.53,2.36-2.16L96.5,4.31h1.9l4.2,9.63,3.71-9.63h1.83l-4.85,11.93c-1,2.39-2.1,3.26-3.84,3.26A5.21,5.21,0,0,1,97,18.92Z"/><path class="cls-1" d="M109.5,10.14v0a6,6,0,0,1,12,0v0a6,6,0,0,1-6.06,6A5.92,5.92,0,0,1,109.5,10.14Zm10.28,0v0a4.37,4.37,0,0,0-4.29-4.52,4.27,4.27,0,0,0-4.22,4.47v0a4.33,4.33,0,0,0,4.27,4.49A4.26,4.26,0,0,0,119.78,10.14Z"/><path class="cls-1" d="M124.47,11.48V4.31h1.72v6.75c0,2.14,1.16,3.48,3.2,3.48a3.41,3.41,0,0,0,3.46-3.62V4.31h1.7V15.86h-1.7v-2a4.41,4.41,0,0,1-4,2.26C126.1,16.11,124.47,14.23,124.47,11.48Z"/><path class="cls-1" d="M138.41,4.31h1.72v3a5,5,0,0,1,4.72-3.22V6h-.14c-2.52,0-4.58,1.81-4.58,5.3v4.6h-1.72Z"/></g></g></svg>