<svg xmlns="http://www.w3.org/2000/svg" viewBox="0 0 154.72 42.72"><defs><style>.cls-1{fill:#fff;}</style></defs><g id="Layer_2" data-name="Layer 2"><g id="Layer_1-2" data-name="Layer 1"><path class="cls-1" d="M18.78,9.48a19.55,19.55,0,0,0,.38-2.27,15,15,0,0,0,.08-2.32.67.67,0,0,1,0-.26.58.58,0,0,0-.05-.25,6.18,6.18,0,0,0-1.71.45c-.56.24-1.11.52-1.66.82a22.56,22.56,0,0,0-2.75,2,23.93,23.93,0,0,0-2.2,2.19,24.36,24.36,0,0,0-1.88,2.5A22,22,0,0,0,7.31,15c-.48.9-.92,1.84-1.33,2.83s-.71,1.78-1,2.68a7.63,7.63,0,0,0-.34,2.83c0,.17.07.35.11.53a2.39,2.39,0,0,0,.15.54,2.33,2.33,0,0,0,.15.36,0,0,0,0,0,.05,0,.47.47,0,0,0,.23.12.78.78,0,0,1,.28.13.34.34,0,0,1,.21.1,5.79,5.79,0,0,0,.63.18,6,6,0,0,1,.64.18,22.94,22.94,0,0,0,3.19.38c1.07,0,2.15.17,3.24.33a15.92,15.92,0,0,1,3.67,1.08,10,10,0,0,1,2,1.37,13.94,13.94,0,0,1,1.07,1.1,4,4,0,0,1,.77,1.3A3.47,3.47,0,0,1,21.23,33a3.94,3.94,0,0,1-.61,1.48,8.17,8.17,0,0,1-.74,1.17c-.29.37-.59.75-.9,1.12a19.11,19.11,0,0,1-4,3.57,11.13,11.13,0,0,1-2.5,1.43c-.41.17-.85.34-1.33.51l-.69.2-.64.21a.86.86,0,0,1-.61,0l-.56-.23a4.24,4.24,0,0,1-.76-.48,5,5,0,0,1-.67-.64,3.45,3.45,0,0,1-.45-.56,2.48,2.48,0,0,1-.31-.66.59.59,0,0,1,.31-.72,6,6,0,0,0,.61-.25,5.36,5.36,0,0,1,.56-.26,8.91,8.91,0,0,0,1.17-.66,1.16,1.16,0,0,0-.25.15L9.4,38l.61-.38a21.3,21.3,0,0,0,3.93-3.06c.3-.31.59-.62.86-1s.55-.65.82-1,.48-.63.71-1a6.7,6.7,0,0,0,.61-1.07.9.9,0,0,0,.11-.41l-.54-.1L16,30c-.92-.1-1.85-.16-2.78-.18a17.23,17.23,0,0,1-2.78-.28A14.85,14.85,0,0,1,7.87,29a9.62,9.62,0,0,1-3-1.43,8.17,8.17,0,0,1-1.46-1,13.41,13.41,0,0,1-1.25-1.25A12,12,0,0,1,1,23.68a6.74,6.74,0,0,1-.76-1.81A7.08,7.08,0,0,1,.09,19a13.44,13.44,0,0,1,.74-2.75,34.68,34.68,0,0,1,2.24-4.8c.41-.71.84-1.41,1.3-2.11s1-1.37,1.46-2A14.22,14.22,0,0,1,7.38,5.45c.56-.58,1.15-1.16,1.76-1.74s1.36-1.12,2-1.63A13.13,13.13,0,0,1,13.38.75c.37-.16.75-.32,1.14-.45A4.52,4.52,0,0,1,15.72,0a4.17,4.17,0,0,1,1.48,0A5.9,5.9,0,0,1,19.55,1a11.43,11.43,0,0,1,2,1.55,7.22,7.22,0,0,1,1.47,2.07,5.14,5.14,0,0,1,.44,1.22c.08.41.16.84.23,1.28a7,7,0,0,1,0,1.58,15.44,15.44,0,0,1-.23,1.58,24.32,24.32,0,0,1-1.86,5.89,28,28,0,0,1-3.19,5.33.38.38,0,0,1-.43.15l-.53-.1a2.24,2.24,0,0,1-.77-.35q-.36-.26-.66-.51A4.11,4.11,0,0,1,15,19.37a2.08,2.08,0,0,1-.16-.46.55.55,0,0,1,.11-.46,27.65,27.65,0,0,0,2.34-4.18A28.62,28.62,0,0,0,18.78,9.48Zm4.95-2.3v0Z"/><path class="cls-1" d="M37.6,30c.17.17.36.36.56.58a2.51,2.51,0,0,1,.46.69.84.84,0,0,1,.05.92A5.34,5.34,0,0,1,38,33.29a5.72,5.72,0,0,1-.92.92c-.34.27-.7.53-1.07.77a9.68,9.68,0,0,1-2.5,1,11.73,11.73,0,0,1-1.33.12A4.92,4.92,0,0,1,30.87,36a8.49,8.49,0,0,1-2.17-.79,10.2,10.2,0,0,1-1.86-1.3,12.39,12.39,0,0,1-1.53-1.74,8.24,8.24,0,0,1-1.07-2,5.32,5.32,0,0,1-.33-1.32c-.05-.45-.1-.89-.13-1.33A11.58,11.58,0,0,1,24,24.73c.19-.92.42-1.82.69-2.71a21.19,21.19,0,0,1,1.12-2.73,12.83,12.83,0,0,1,1.58-2.47,9.2,9.2,0,0,1,2.24-1.89A4.51,4.51,0,0,1,31,14.37a10.29,10.29,0,0,1,1.53-.2,4.87,4.87,0,0,1,2.27.46,11.07,11.07,0,0,1,2,1.22,8,8,0,0,1,1,1,5.48,5.48,0,0,1,.79,1.25A4.72,4.72,0,0,1,39.08,20a3.23,3.23,0,0,1-.18,1.33c-.15.41-.31.83-.48,1.27a10,10,0,0,1-.59,1.18c-.22.37-.47.74-.74,1.12a12.43,12.43,0,0,1-1.78,2c-.38.3-.76.59-1.15.86a5.33,5.33,0,0,1-1.3.67,4.18,4.18,0,0,1-1.71.15A5.21,5.21,0,0,1,29.49,28a2.73,2.73,0,0,1-.48-.25l-.49-.31q-.11.76-.18,1.53a8.69,8.69,0,0,0,0,1.53,5.92,5.92,0,0,0,.3,1.53l.62.08.61,0a7.57,7.57,0,0,0,1.66-.38A10.18,10.18,0,0,0,33,31.1a11.46,11.46,0,0,0,2.24-1.89.6.6,0,0,1,.46-.18,1.91,1.91,0,0,1,.51.13,2.26,2.26,0,0,1,.74.33C37.18,29.65,37.4,29.81,37.6,30ZM33.32,18.71a7.68,7.68,0,0,0-2.2,2.16,19.05,19.05,0,0,0-1.48,2.68c-.1.27-.19.52-.28.74s-.17.47-.28.74a3.77,3.77,0,0,0,1.33-.51,8.34,8.34,0,0,0,2.27-2,12.08,12.08,0,0,0,1.55-2.6,7.52,7.52,0,0,0,.28-.84,8.93,8.93,0,0,0,.23-.89A5.87,5.87,0,0,0,33.32,18.71Z"/><path class="cls-1" d="M47.75,18.91a58.18,58.18,0,0,0-.56,6.48,59.37,59.37,0,0,0,.15,6.53c0,.3.07.62.1.94a9.21,9.21,0,0,0,.16.94c0,.17.06.36.1.56s.07.41.1.62a1.89,1.89,0,0,1,.51,1.22.47.47,0,0,1-.13.46,1.39,1.39,0,0,1-.43.25h-.31a1.7,1.7,0,0,1-.61-.12l-.56-.23A9.37,9.37,0,0,1,44.33,35a4.13,4.13,0,0,1-.69-1A10.59,10.59,0,0,1,43.16,33a5.74,5.74,0,0,1-.51-1.58c0-.21-.06-.41-.08-.62a4.5,4.5,0,0,0-.07-.56,49.8,49.8,0,0,1-.18-9.13,60.45,60.45,0,0,1,1.35-9,.59.59,0,0,1,.33-.44,1.53,1.53,0,0,1,.49-.07,1.82,1.82,0,0,1,.89.23,6.62,6.62,0,0,1,.79.48,5.92,5.92,0,0,1,.89.74,7.68,7.68,0,0,1,.74.84,4.45,4.45,0,0,1,.43.66,1,1,0,0,1,.13.77C48.12,16.48,47.92,17.69,47.75,18.91Z"/><path class="cls-1" d="M65.7,30c.17.17.36.36.56.58a2.51,2.51,0,0,1,.46.69.82.82,0,0,1,0,.92,5.34,5.34,0,0,1-.66,1.12,5.72,5.72,0,0,1-.92.92c-.34.27-.7.53-1.07.77a9.68,9.68,0,0,1-2.5,1,11.77,11.77,0,0,1-1.32.12A5,5,0,0,1,59,36a8.63,8.63,0,0,1-2.17-.79,10.2,10.2,0,0,1-1.86-1.3,12.39,12.39,0,0,1-1.53-1.74,8.24,8.24,0,0,1-1.07-2A5.32,5.32,0,0,1,52,28.81c0-.45-.1-.89-.13-1.33a11.58,11.58,0,0,1,.23-2.75c.19-.92.42-1.82.69-2.71a21.19,21.19,0,0,1,1.12-2.73,12.83,12.83,0,0,1,1.58-2.47,9.06,9.06,0,0,1,2.25-1.89,4.36,4.36,0,0,1,1.37-.56,10.29,10.29,0,0,1,1.53-.2,4.87,4.87,0,0,1,2.27.46,11.07,11.07,0,0,1,2,1.22,8,8,0,0,1,1,1,5.48,5.48,0,0,1,.79,1.25A4.72,4.72,0,0,1,67.18,20,3.23,3.23,0,0,1,67,21.31c-.15.41-.31.83-.48,1.27a10,10,0,0,1-.59,1.18c-.22.37-.47.74-.74,1.12a12.43,12.43,0,0,1-1.78,2c-.38.3-.76.59-1.15.86a5.33,5.33,0,0,1-1.3.67,4.18,4.18,0,0,1-1.71.15A5.21,5.21,0,0,1,57.59,28a2.73,2.73,0,0,1-.48-.25l-.49-.31c-.07.51-.12,1-.18,1.53a9.77,9.77,0,0,0,0,1.53,5.92,5.92,0,0,0,.3,1.53l.62.08.61,0a7.57,7.57,0,0,0,1.66-.38,9.73,9.73,0,0,0,1.5-.69,11.46,11.46,0,0,0,2.24-1.89.6.6,0,0,1,.46-.18,1.91,1.91,0,0,1,.51.13,2.26,2.26,0,0,1,.74.33C65.28,29.65,65.5,29.81,65.7,30ZM61.42,18.71a7.68,7.68,0,0,0-2.2,2.16,18,18,0,0,0-1.47,2.68c-.11.27-.2.52-.28.74s-.18.47-.29.74a3.77,3.77,0,0,0,1.33-.51,8.34,8.34,0,0,0,2.27-2,12.54,12.54,0,0,0,1.56-2.6c.1-.27.19-.55.28-.84s.16-.59.23-.89A5.77,5.77,0,0,0,61.42,18.71Z"/><path class="cls-1" d="M91,33.85c.06.17.13.34.18.51a.56.56,0,0,1-.13.51.45.45,0,0,1-.49.21L90,35a4.35,4.35,0,0,1-1.53-1,8.11,8.11,0,0,1-1.33-1.35,8.73,8.73,0,0,1-1-1.66,9,9,0,0,1-.81-2.25l-.51-2.34c-.07-.38-.15-.74-.23-1.1s-.17-.72-.23-1.09c-.34.27-.67.53-1,.79a11.68,11.68,0,0,0-.92.84,22.92,22.92,0,0,0-3.9,4.89c-1.07,1.81-2.08,3.62-3,5.46a1,1,0,0,0-.05.28.76.76,0,0,1,0,.28.64.64,0,0,1-.33.41,1.12,1.12,0,0,1-.53.08,1.72,1.72,0,0,1-.59-.16l-.49-.23A4.07,4.07,0,0,1,72,35.74a2.51,2.51,0,0,1-.77-.81.61.61,0,0,1-.15-.26.63.63,0,0,0-.16-.25l-.2-.54c-.07-.19-.14-.36-.2-.54a2.09,2.09,0,0,1,0-.56,3,3,0,0,1-.11-.76,4.36,4.36,0,0,0,0-.72c0-.37,0-.75,0-1.14V29a22.49,22.49,0,0,1,.46-4,15.12,15.12,0,0,1,.43-2c.19-.63.4-1.27.64-1.91s.49-1.36.77-2l.81-2q.41-1,.84-1.86c.29-.6.59-1.2.9-1.82.06-.17.22-.23.46-.2a2.13,2.13,0,0,1,.56.15,4,4,0,0,1,.69.28,2.53,2.53,0,0,1,.58.44,4.26,4.26,0,0,1,1.12,1.12c.07.14.18.33.34.59a.71.71,0,0,1,.12.63q-.36,1-.66,2t-.66,2c-.17.58-.34,1.18-.51,1.79s-.34,1.21-.51,1.78q-.11.32-.21.72l.59-.67c.19-.2.38-.42.59-.66a23,23,0,0,1,2-1.83q.55-.47,1.17-.9A8.57,8.57,0,0,1,82.12,20l.74-.18a1.76,1.76,0,0,1,.79,0,5.13,5.13,0,0,1,1.92.84A5.77,5.77,0,0,1,87,22.23a5.15,5.15,0,0,1,.74,1.83c.12.65.26,1.29.43,1.94s.27,1.09.38,1.63.25,1.11.39,1.68l.28,1.28a6.14,6.14,0,0,0,.38,1.22,1.8,1.8,0,0,1,.08.21.8.8,0,0,0,.07.2,1.09,1.09,0,0,1,.16.26s0,.05,0,.05,0,0,0,0A4.29,4.29,0,0,1,91,33.85Z"/><path class="cls-1" d="M99.26,34.82a2,2,0,0,1,0,.41.43.43,0,0,1-.26.36.79.79,0,0,1-.71.07,3.62,3.62,0,0,1-.71-.28,9.1,9.1,0,0,1-2.12-1.65,7.15,7.15,0,0,1-1.45-2.27,0,0,0,0,1,0,.05,4.43,4.43,0,0,1-.56-1.68c0-.28-.06-.56-.08-.85s0-.58-.08-.89,0-.76-.07-1.17a6.35,6.35,0,0,1,.07-1.23c.07-.81.17-1.59.31-2.34a23.59,23.59,0,0,1,1.38-4.54.75.75,0,0,1,.35-.46h.41a1.72,1.72,0,0,1,.79.2,3.94,3.94,0,0,1,.69.46,7,7,0,0,1,1.48,1.38,5.71,5.71,0,0,0,.33.64.74.74,0,0,1,.13.64,22.45,22.45,0,0,0-.74,4.08,21.94,21.94,0,0,0,0,4.13,1,1,0,0,0,0-.23,1,1,0,0,1,0-.23,3.15,3.15,0,0,1,.06.61,2.48,2.48,0,0,0,0,.56c0,.27.05.54.07.82a4.55,4.55,0,0,0,.13.81,2.69,2.69,0,0,1,0,.44,1.89,1.89,0,0,0,.05.38l.1.43a.82.82,0,0,1,0,.44C99,34,99,34,99,34s0,.06,0,.13.09.22.16.36v.25ZM101,14.22a2.74,2.74,0,0,1,.31,1.27,2.16,2.16,0,0,1-.51,1.33l-.49.49a1.77,1.77,0,0,1-.58.38,1.73,1.73,0,0,1-.69.07,2.83,2.83,0,0,1-.69-.12,5.72,5.72,0,0,1-1.17-.56,7.55,7.55,0,0,1-1-.77,5.73,5.73,0,0,1-.87-.84,6.43,6.43,0,0,1-.71-1,3.37,3.37,0,0,1-.41-1.12,2.11,2.11,0,0,1,.15-1.2,3.44,3.44,0,0,1,1.33-1.89.7.7,0,0,1,.71-.2l.28.07a1.27,1.27,0,0,0,.28,0,3.14,3.14,0,0,1,1,.48l.87.64a6.42,6.42,0,0,1,.69.69,6.15,6.15,0,0,1,.58.79v0c.21.24.39.47.57.69A2.78,2.78,0,0,1,101,14.22Z"/><path class="cls-1" d="M121,33.45c.06.1.14.24.22.4a1.84,1.84,0,0,1,.18.49.58.58,0,0,1,0,.43c-.07.14-.22.21-.46.21a1.34,1.34,0,0,1-.51-.11l-.51-.2a3.26,3.26,0,0,1-.74-.46,4.61,4.61,0,0,1-.63-.61,13.13,13.13,0,0,1-1.13-1.53,16.06,16.06,0,0,1-.91-1.68,9.58,9.58,0,0,1-.51-1.48,11.85,11.85,0,0,1-.31-1.53c-.14.27-.26.52-.38.74l-.38.69c-.58,1.08-1.2,2.16-1.84,3.23a19.27,19.27,0,0,1-2.24,3l-.79.76a4.26,4.26,0,0,1-.85.61,2.28,2.28,0,0,1-1.83.06,9.18,9.18,0,0,1-1.69-.82A10.55,10.55,0,0,1,103.82,34a4.81,4.81,0,0,1-1.09-2.2,4.08,4.08,0,0,1-.16-1.17V29.42a34.85,34.85,0,0,1,.36-4,29.65,29.65,0,0,1,.87-4,22.69,22.69,0,0,1,1.45-3.78,20.07,20.07,0,0,1,2.17-3.44.51.51,0,0,1,.51-.21,3.05,3.05,0,0,1,.56.16,2.3,2.3,0,0,1,.79.38l.79.59a4.61,4.61,0,0,1,.61.63,4.07,4.07,0,0,1,.51.79c.07.18.13.34.18.51a.59.59,0,0,1-.08.51,23.44,23.44,0,0,0-1.83,3.32c-.17.48-.33.93-.49,1.35s-.29.88-.43,1.35a18.71,18.71,0,0,0-.61,2.6c-.14.85-.24,1.72-.31,2.6,0,.21-.06.42-.07.64s0,.44-.08.64a4,4,0,0,0,.41-.46c.68-.88,1.31-1.79,1.91-2.73S111,25,111.6,24s1.2-1.89,1.86-2.8a19.32,19.32,0,0,1,2.22-2.56.63.63,0,0,1,.54-.2l.53.1a2.66,2.66,0,0,1,.69.31,3.44,3.44,0,0,1,.59.46,6.2,6.2,0,0,1,1.09,1,2.15,2.15,0,0,1,.54,1.41,34,34,0,0,1-.08,3.51,23,23,0,0,0,0,3.52c.07.58.15,1.15.25,1.71a9.74,9.74,0,0,0,.46,1.66,3,3,0,0,0,.36.82l0,.1a.65.65,0,0,1,.15.2A1,1,0,0,0,121,33.45Z"/><path class="cls-1" d="M154.49,16.06a3.67,3.67,0,0,1,.23,1.12,4.7,4.7,0,0,1-.08,1.12c-.06.75-.16,1.48-.28,2.19s-.23,1.45-.33,2.2-.16,1.43-.28,2.16-.23,1.47-.33,2.22-.14,1.43-.2,2.14-.14,1.45-.21,2.2c0,.37,0,.74,0,1.09a5.92,5.92,0,0,1-.1,1.1c0,.34-.06.68-.08,1s0,.7,0,1.07a.32.32,0,0,1-.23.33,1.47,1.47,0,0,1-.44.08,1.1,1.1,0,0,1-.58-.16l-.54-.3a4.55,4.55,0,0,1-.66-.46,7.1,7.1,0,0,1-.56-.51c-.14-.17-.29-.37-.46-.61a1.73,1.73,0,0,1-.31-.67,10.4,10.4,0,0,1-.15-1.12c0-.37-.09-.74-.15-1.12s-.05-.81-.05-1.2v-1.2a32.92,32.92,0,0,1,.3-3.72c.17-1.22.37-2.46.61-3.72.07-.31.13-.61.18-.92s.11-.61.18-.92c-.17.21-.32.41-.46.61l-.41.62c-.27.37-.53.75-.79,1.14s-.52.78-.79,1.15l-.79,1.3c-.25.43-.5.86-.74,1.3q-.81,1.34-1.5,2.73c-.46.94-.95,1.86-1.46,2.78l-.3.61a2,2,0,0,1-.41.56,4.47,4.47,0,0,1-.53.46,1.47,1.47,0,0,1-.59.26,1.6,1.6,0,0,1-.87,0,4.6,4.6,0,0,1-.81-.33,3.8,3.8,0,0,1-1-.64c-.29-.25-.57-.51-.84-.79a5.11,5.11,0,0,1-.76-1.07,10.57,10.57,0,0,1-.57-1.17,8.1,8.1,0,0,1-.3-1.12l-.21-1.13a2,2,0,0,0-.17.23,1.54,1.54,0,0,1-.18.23,11.48,11.48,0,0,0-.74.92c-.22.31-.45.61-.69.92s-.46.68-.66,1l-.62,1c-.37.68-.74,1.36-1.12,2s-.76,1.36-1.17,2c-.07.17-.15.34-.23.51a1.35,1.35,0,0,1-.33.41,1.27,1.27,0,0,1-1.12.41,4.6,4.6,0,0,1-1.16-.36A6.4,6.4,0,0,1,125.21,34a4.53,4.53,0,0,1-.36-.64,4.58,4.58,0,0,1-.25-.74,5.67,5.67,0,0,1-.15-.84c0-.29-.07-.59-.1-.89a1.11,1.11,0,0,0,0,.23,2,2,0,0,1,0,.22c-.07-.67-.12-1.34-.15-2s0-1.3,0-1.94c0-1.09,0-2.16.07-3.21s.15-2.11.28-3.17.33-2.1.48-3.16.31-2.11.48-3.16a.42.42,0,0,1,.25-.33,1.34,1.34,0,0,1,.46-.08,1.4,1.4,0,0,1,.73.2l.63.41a4.63,4.63,0,0,1,1.36,1.33l.33.56a.91.91,0,0,1,.13.61c-.07.55-.13,1.07-.18,1.58s-.11,1-.18,1.58c-.07,1.09-.13,2.19-.2,3.29s-.1,2.21-.1,3.29c.27-.4.53-.82.79-1.25a9.1,9.1,0,0,1,.84-1.19,13.51,13.51,0,0,1,1.37-1.64,11.81,11.81,0,0,1,.9-.79,5.24,5.24,0,0,1,1-.63,1.67,1.67,0,0,1,.82-.11,7.73,7.73,0,0,1,.81.16,4.79,4.79,0,0,1,1.61.94A8.24,8.24,0,0,1,138.17,24a7.69,7.69,0,0,1,.69,1.3,12.18,12.18,0,0,1,.48,1.4.46.46,0,0,1,0,.23.41.41,0,0,0,.06.23,6.35,6.35,0,0,0,.43-.81,6.46,6.46,0,0,1,.43-.82c.72-1.46,1.46-2.91,2.25-4.33q.45-.87,1-1.71c.36-.56.72-1.12,1.1-1.66s.76-.95,1.17-1.43.85-.95,1.33-1.43l.71-.63a8.86,8.86,0,0,1,.71-.59c.28-.2.56-.42.85-.64a2.24,2.24,0,0,1,.94-.43,2.48,2.48,0,0,1,1.68.43,7,7,0,0,1,1.38,1.15A4.17,4.17,0,0,1,154.49,16.06Z"/></g></g></svg>