<svg xmlns="http://www.w3.org/2000/svg" viewBox="0 0 161.09 44.93"><defs><style>.cls-1{fill:#fff;}</style></defs><g id="Layer_2" data-name="Layer 2"><g id="Layer_1-2" data-name="Layer 1"><path class="cls-1" d="M26.68,24.37a8.91,8.91,0,0,1,0,2.87,24.1,24.1,0,0,1-.7,2.88,29.77,29.77,0,0,1-2,4.82,28.26,28.26,0,0,1-2.81,4.37A21.07,21.07,0,0,1,17.51,43a9,9,0,0,1-4.76,1.92,8.77,8.77,0,0,1-3.23-.27A12.64,12.64,0,0,1,6.4,43.05a13.93,13.93,0,0,1-4.91-5.47A14.31,14.31,0,0,1,0,32.07a23.94,23.94,0,0,1,.34-5.69A33.37,33.37,0,0,1,1.8,21.06,38.2,38.2,0,0,1,4,16c.37-.74.76-1.45,1.17-2.11S6,12.54,6.4,11.83s.91-1.31,1.39-1.95S8.79,8.64,9.35,8a18.36,18.36,0,0,1,1.78-1.75,13.28,13.28,0,0,1,2-1.42c.41-.23.82-.44,1.23-.64a4.14,4.14,0,0,1,1.33-.42,3.63,3.63,0,0,0,.5,0,3.89,3.89,0,0,1,.51,0c.44.08.81.15,1.11.22a8.18,8.18,0,0,1,1.73.73,15.74,15.74,0,0,1,2.59,1.78,12,12,0,0,1,2.17,2.4,10.47,10.47,0,0,1,1.4,2.87A7.27,7.27,0,0,1,26,14.9a.5.5,0,0,1-.28.42,1.59,1.59,0,0,1-.5.08,1.49,1.49,0,0,1-.81-.22l-.7-.45a5,5,0,0,1-1.5-1.45l-.34-.58a1.17,1.17,0,0,1-.11-.7v-.78a5.43,5.43,0,0,0-.16-.84c-.08-.26-.15-.52-.23-.78a1.43,1.43,0,0,1-.08-.22,2,2,0,0,0-.08-.22A1.07,1.07,0,0,1,21,8.88a.69.69,0,0,0-.22-.28.24.24,0,0,0-.17-.06,5.67,5.67,0,0,0-.84,0,7.81,7.81,0,0,0-2.56.89c-.45.3-.88.61-1.28.92s-.82.64-1.23,1A24.56,24.56,0,0,0,11,15.62,21.59,21.59,0,0,0,9.54,18c-.42.84-.82,1.68-1.19,2.54-.23.52-.43,1-.62,1.56l-.55,1.56a30.42,30.42,0,0,0-1.45,6c-.15,1-.25,1.94-.31,2.92a20.44,20.44,0,0,0,0,2.93c.07.52.16,1,.25,1.53a7.58,7.58,0,0,0,.42,1.48,7.81,7.81,0,0,0,.44.95l.34.5S7,40,7,40a.1.1,0,0,1,.08.05l.51.17.72.08c.22,0,.46,0,.73,0a8.46,8.46,0,0,0,3.39-1.11,11.58,11.58,0,0,0,1.12-.81c.33-.28.67-.57,1-.87a24.53,24.53,0,0,0,3.21-3.81,24,24,0,0,0,2.37-4.44,21.2,21.2,0,0,0,1.22-3.4A16.18,16.18,0,0,0,21.78,24a8.06,8.06,0,0,0,.11-1.9.26.26,0,0,0,0-.11.2.2,0,0,1,0-.11,9.49,9.49,0,0,0-1.61.67,15.8,15.8,0,0,0-1.51,1.11A13.57,13.57,0,0,0,17.38,25a9.34,9.34,0,0,0-.7.75l-.64.75a2.64,2.64,0,0,0-.39.34l-.34.33-.36.33a2.33,2.33,0,0,0-.31.34.5.5,0,0,1-.53.22l-.58-.11a2.08,2.08,0,0,1-.84-.42c-.26-.2-.52-.4-.78-.58a4.74,4.74,0,0,1-1.17-1.45,3,3,0,0,1-.19-.53.5.5,0,0,1,.14-.53c.11-.19.22-.38.33-.59s.22-.39.34-.58a5.42,5.42,0,0,1,.33-.5c.11-.15.24-.32.39-.5a25.37,25.37,0,0,1,1.67-1.93,14.54,14.54,0,0,1,2-1.7,8.55,8.55,0,0,1,1.17-.69,4.28,4.28,0,0,1,1.28-.42,4.9,4.9,0,0,1,1.87,0,5.8,5.8,0,0,1,1.7.64,9.78,9.78,0,0,1,3.62,3.23,11.6,11.6,0,0,1,.81,1.42A5.1,5.1,0,0,1,26.68,24.37Z"/><path class="cls-1" d="M46.64,26.77a6.1,6.1,0,0,1-.06,1.42c-.07.47-.17.92-.28,1.37a25.28,25.28,0,0,1-2.28,6,27.14,27.14,0,0,1-1.73,2.59,11.9,11.9,0,0,1-2.17,2.2,7.67,7.67,0,0,1-1.4,1,4.31,4.31,0,0,1-1.61.56,5.05,5.05,0,0,1-2.48-.17,10.06,10.06,0,0,1-2.32-1.11,9.91,9.91,0,0,1-2-1.76,8.94,8.94,0,0,1-1.48-2.25,6.85,6.85,0,0,1-.56-1.59c-.11-.54-.2-1.11-.27-1.7a9.53,9.53,0,0,1,.39-3.51.93.93,0,0,1-.06-.39c0-.26.06-.51.08-.73a4.32,4.32,0,0,1,.14-.72,7.4,7.4,0,0,1,1.09-2.68A16,16,0,0,1,31.42,23a10,10,0,0,1,1.12-.9q.55-.39,1.17-.78c.48-.29,1-.58,1.47-.86a11.1,11.1,0,0,1,1.54-.7,5.7,5.7,0,0,1,3.4-.39,8.07,8.07,0,0,1,3,1.29A9.27,9.27,0,0,1,45.41,23,6.08,6.08,0,0,1,46.64,26.77Zm-6.36,2.62c.19-.52.37-1.05.56-1.59a14.71,14.71,0,0,0,.45-1.59c.11-.41.2-.79.28-1.14a9.21,9.21,0,0,0,.16-1.14,6.55,6.55,0,0,0-1.28.47L39.22,25a18.28,18.28,0,0,0-1.95,1.34c-.33.26-.67.51-1,.75a8,8,0,0,0-1,.81,2.25,2.25,0,0,0-.39.36,2.25,2.25,0,0,1-.39.36c0,.08-.07.16-.11.26s-.07.17-.11.25a16.23,16.23,0,0,0-1.23,7.19l.17.83a6.93,6.93,0,0,0,.73-.25q.33-.13.66-.3a8.61,8.61,0,0,0,1.82-1.48c.53-.58,1-1.18,1.53-1.81A20.26,20.26,0,0,0,40.28,29.39Z"/><path class="cls-1" d="M66.59,26.77a5.6,5.6,0,0,1-.06,1.42,12.31,12.31,0,0,1-.28,1.37,25.28,25.28,0,0,1-2.28,6,27.14,27.14,0,0,1-1.73,2.59,11.9,11.9,0,0,1-2.17,2.2,7.67,7.67,0,0,1-1.4,1,4.25,4.25,0,0,1-1.61.56,5.06,5.06,0,0,1-2.48-.17,10,10,0,0,1-4.35-2.87,8.94,8.94,0,0,1-1.48-2.25,6.39,6.39,0,0,1-.55-1.59,17.23,17.23,0,0,1-.28-1.7,9.53,9.53,0,0,1,.39-3.51.93.93,0,0,1-.06-.39c0-.26.07-.51.09-.73a2.94,2.94,0,0,1,.14-.72,7.21,7.21,0,0,1,1.08-2.68A16,16,0,0,1,51.37,23a11,11,0,0,1,1.12-.9q.55-.39,1.17-.78c.48-.29,1-.58,1.48-.86a10.48,10.48,0,0,1,1.53-.7,5.71,5.71,0,0,1,3.4-.39,8,8,0,0,1,3,1.29A9.27,9.27,0,0,1,65.36,23,6.08,6.08,0,0,1,66.59,26.77Zm-6.35,2.62c.18-.52.37-1.05.55-1.59a12.73,12.73,0,0,0,.45-1.59c.11-.41.2-.79.28-1.14a9.21,9.21,0,0,0,.16-1.14,6.55,6.55,0,0,0-1.28.47c-.41.21-.82.42-1.22.64a16.45,16.45,0,0,0-2,1.34c-.34.26-.67.51-1,.75a7.18,7.18,0,0,0-.94.81,2.77,2.77,0,0,0-.4.36,2.25,2.25,0,0,1-.39.36l-.11.26a1.89,1.89,0,0,1-.11.25,16,16,0,0,0-1.22,7.19l.16.83a6.93,6.93,0,0,0,.73-.25l.67-.3a8.56,8.56,0,0,0,1.81-1.48c.54-.58,1-1.18,1.53-1.81A20.84,20.84,0,0,0,60.24,29.39Z"/><path class="cls-1" d="M81.44,23.79c0,.24-.17.8-.28,1.25a15.31,15.31,0,0,1-.46,1.73c-.12.39-.38,1.17-.57,1.74a22.21,22.21,0,0,1-2.34,4.32c-.31.46-1,1.35-1.56,2a9.09,9.09,0,0,1-1.86,1.61l-.68.33a5.08,5.08,0,0,1-.75.28l-.17-.92a17.69,17.69,0,0,1,.21-4,17.5,17.5,0,0,1,1-3.9l.11-.27.1-.23a.27.27,0,0,1,.09-.1,2.73,2.73,0,0,0,.33-.34,2.5,2.5,0,0,1,.4-.4A8.06,8.06,0,0,1,76,26l1-.82a18.22,18.22,0,0,1,2-1.46c.27-.16.83-.48,1.25-.7a6.22,6.22,0,0,1,1.09-.46.15.15,0,0,1,.21.16,9.21,9.21,0,0,1-.16,1m10.86-21L92,2.12a4.46,4.46,0,0,0-.66-.76A5.22,5.22,0,0,0,90.47.7c-.08-.07-.33-.23-.55-.37a2.47,2.47,0,0,0-.69-.28,1.53,1.53,0,0,0-.64,0c-.14,0-.31.19-.39.45-.52,1.62-1.37,5-1.91,7.43q-.67,3.14-1.21,6.32h0c-.61,1.4-1.45,3.18-1.87,4-.08.15-.25.42-.38.62a3.5,3.5,0,0,0-.31.61,8.3,8.3,0,0,0-2.09-.74,5.43,5.43,0,0,0-2.15,0,5.53,5.53,0,0,0-1.54.49,6.84,6.84,0,0,0-1.36.88,12.38,12.38,0,0,0-2.18,2.11,27.33,27.33,0,0,0-1.8,2.44,22.89,22.89,0,0,0-2.66,5.78A16.82,16.82,0,0,0,68,33.26a7.79,7.79,0,0,0,.06,3,7.21,7.21,0,0,0,1.1,2.44A12.14,12.14,0,0,0,71,40.74a9.62,9.62,0,0,0,1.52,1.16,6.82,6.82,0,0,0,1.71.79,7.48,7.48,0,0,0,2.4.26,4.6,4.6,0,0,0,1.48-.56,5.67,5.67,0,0,0,1.3-1,10.94,10.94,0,0,0,.94-1.11,14.29,14.29,0,0,0,.83-1.23Q82.38,37,83.4,35c0,.23.07.69.1,1a7.16,7.16,0,0,0,.22,1.19c0,.15.15.46.22.69s.15.45.22.68.39.6.61.91l.61.85a6.58,6.58,0,0,0,.53.52c.1.1.34.3.52.45a4.25,4.25,0,0,0,.61.31c.14.07.44.18.67.26a.84.84,0,0,0,.71-.06c.26-.11.34-.36.23-.74a.77.77,0,0,0-.06-.34v.06a2.05,2.05,0,0,0,0-.51.69.69,0,0,0,0-.2.64.64,0,0,1,0-.2v-.68c0-.38,0-2.93.09-5.69l.13-7.63c0-.79.15-2.44.22-3.67,0-.81.21-2.46.39-3.67.12-.81.37-2.41.55-3.59.11-.77.41-2.35.67-3.53.19-.87.59-2.64.88-3.95.19-.86.63-2.63,1-4a.9.9,0,0,0-.11-.71"/><path class="cls-1" d="M116.2,37.83c.08.19.14.37.2.56a.61.61,0,0,1-.14.56.49.49,0,0,1-.53.22l-.59-.11A4.8,4.8,0,0,1,113.47,38,8.49,8.49,0,0,1,112,36.52a9.78,9.78,0,0,1-1.11-1.81,9.48,9.48,0,0,1-.89-2.45c-.19-.86-.38-1.71-.56-2.57-.08-.41-.16-.81-.25-1.2S109,27.7,109,27.3c-.38.29-.73.58-1.06.86s-.67.58-1,.92a25.2,25.2,0,0,0-4.26,5.35c-1.17,2-2.28,4-3.31,6a1,1,0,0,0-.06.31.94.94,0,0,1-.06.31.65.65,0,0,1-.36.44,1.2,1.2,0,0,1-.58.09,2.08,2.08,0,0,1-.65-.17l-.52-.25a4.48,4.48,0,0,1-1.62-1.23,2.69,2.69,0,0,1-.84-.89.64.64,0,0,1-.16-.28.88.88,0,0,0-.17-.28c-.08-.18-.15-.38-.22-.58s-.15-.4-.23-.59a3.16,3.16,0,0,1,0-.61,3.23,3.23,0,0,1-.11-.84,5.12,5.12,0,0,0-.06-.78c0-.41-.06-.82-.06-1.25V32.53a24.81,24.81,0,0,1,.51-4.34A14.92,14.92,0,0,1,94.55,26c.2-.68.44-1.38.7-2.09s.53-1.48.83-2.2.6-1.46.89-2.2.61-1.39.92-2,.64-1.31,1-2c.07-.19.24-.26.5-.23a2.27,2.27,0,0,1,.61.17,4.49,4.49,0,0,1,.76.31,3,3,0,0,1,.64.47,4.61,4.61,0,0,1,1.22,1.23c.08.15.2.36.37.64a.78.78,0,0,1,.13.69c-.26.75-.5,1.49-.72,2.23s-.47,1.49-.72,2.23-.38,1.29-.56,1.95-.37,1.32-.56,1.95c-.07.23-.15.49-.22.78.22-.26.43-.5.64-.72s.42-.46.64-.72a25.74,25.74,0,0,1,2.23-2c.41-.34.84-.66,1.28-1a9.24,9.24,0,0,1,1.39-.8c.26-.08.53-.14.81-.2a1.84,1.84,0,0,1,.87,0,5.34,5.34,0,0,1,2.09.92,6,6,0,0,1,1.59,1.64,5.61,5.61,0,0,1,.8,2c.13.7.29,1.41.48,2.12l.42,1.78c.13.59.26,1.21.41,1.84s.22,1,.31,1.39a6.7,6.7,0,0,0,.42,1.34c0,.08.06.15.08.22a2.09,2.09,0,0,0,.08.23.91.91,0,0,1,.17.28s0,.05,0,.05,0,0,0,.06A4.52,4.52,0,0,1,116.2,37.83Z"/><path class="cls-1" d="M132.76,33.59c.18.19.39.4.61.65a2.65,2.65,0,0,1,.5.75.92.92,0,0,1,.06,1,7,7,0,0,1-.73,1.23,6.75,6.75,0,0,1-1,1,12.4,12.4,0,0,1-1.17.84,9.93,9.93,0,0,1-2.73,1.11,14.5,14.5,0,0,1-1.45.14,5.45,5.45,0,0,1-1.45-.14,9,9,0,0,1-2.37-.86,11.67,11.67,0,0,1-2-1.42,14.12,14.12,0,0,1-1.67-1.9,9.27,9.27,0,0,1-1.17-2.23,6.28,6.28,0,0,1-.36-1.45c-.05-.48-.1-1-.14-1.45a12.8,12.8,0,0,1,.25-3c.21-1,.46-2,.75-3a25.3,25.3,0,0,1,1.23-3,13.74,13.74,0,0,1,1.73-2.71,9.84,9.84,0,0,1,2.45-2.06,4.8,4.8,0,0,1,1.51-.61,10.54,10.54,0,0,1,1.67-.22,5.26,5.26,0,0,1,2.48.5,11.34,11.34,0,0,1,2.2,1.34,7.68,7.68,0,0,1,1.14,1.14,6.81,6.81,0,0,1,.87,1.36,5.34,5.34,0,0,1,.44,2,3.47,3.47,0,0,1-.19,1.45l-.53,1.39a10.19,10.19,0,0,1-.64,1.28q-.37.62-.81,1.23a12.91,12.91,0,0,1-1.95,2.17c-.41.34-.83.65-1.26.95a5.94,5.94,0,0,1-1.42.73,4.6,4.6,0,0,1-1.87.16,5.63,5.63,0,0,1-1.81-.55,3.84,3.84,0,0,1-.53-.28c-.16-.11-.34-.23-.53-.34-.07.56-.13,1.12-.19,1.67a9.43,9.43,0,0,0,0,1.68,6.7,6.7,0,0,0,.34,1.67c.22,0,.44.06.66.08l.67,0a7.9,7.9,0,0,0,1.82-.42,9.72,9.72,0,0,0,1.64-.75,12.65,12.65,0,0,0,2.45-2.06.6.6,0,0,1,.5-.2,2.3,2.3,0,0,1,.56.14,2.7,2.7,0,0,1,.81.36C132.3,33.23,132.53,33.41,132.76,33.59Zm-4.69-12.31a8.3,8.3,0,0,0-2.39,2.37,19.07,19.07,0,0,0-1.62,2.92c-.11.3-.21.57-.31.81l-.3.81a4.26,4.26,0,0,0,1.45-.56,9.26,9.26,0,0,0,2.48-2.23,14.43,14.43,0,0,0,1.7-2.84c.11-.3.21-.61.3-.92a10,10,0,0,0,.25-1A6.82,6.82,0,0,0,128.07,21.28Z"/><path class="cls-1" d="M147.47,34.15a3,3,0,0,1,.17,2.45,4.4,4.4,0,0,1-1.17,1.84,9.7,9.7,0,0,1-3.29,2.34,10.06,10.06,0,0,1-1.84.67l-1.17.23a3.61,3.61,0,0,1-2.59-.56,6.94,6.94,0,0,1-1.15-1,3.42,3.42,0,0,1-.78-1.17,1.5,1.5,0,0,1-.11-.62.42.42,0,0,0,.06-.14.81.81,0,0,1,.05-.14l.31-.19a1.46,1.46,0,0,1,.31-.14l.5-.17c.15-.07.3-.14.44-.19a4.43,4.43,0,0,0,.45-.2l.86-.42.87-.41a17.07,17.07,0,0,0,2-1.4,5.9,5.9,0,0,0,.78-.67,4.06,4.06,0,0,0,.61-.78,4.06,4.06,0,0,1-1.17-.67,20.15,20.15,0,0,1-2.87-2.06A10.08,10.08,0,0,1,136.43,28a5.16,5.16,0,0,1-.5-1.33,3.74,3.74,0,0,1-.05-1.45,5.45,5.45,0,0,1,.33-1.09c.15-.35.3-.7.45-1a18,18,0,0,1,2-3.32,14,14,0,0,1,2.73-2.7,1.14,1.14,0,0,1,1.12-.11,2.29,2.29,0,0,1,.86.42c.28.2.53.4.75.58a4.29,4.29,0,0,1,1.23,1.51,1.83,1.83,0,0,1,.22.53.52.52,0,0,1-.11.58,16,16,0,0,0-3.79,5.19c-.18.52-.35,1.06-.5,1.64a5.53,5.53,0,0,0-.17,1.7v.06l.67.5a3.39,3.39,0,0,0,.39.22.05.05,0,0,0,.06.06,5.25,5.25,0,0,0,.89.44,4.65,4.65,0,0,1,.89.45l.92.56a5.59,5.59,0,0,1,.92.66,12.94,12.94,0,0,1,1,1A4.68,4.68,0,0,1,147.47,34.15Z"/><path class="cls-1" d="M160.73,34.15a3,3,0,0,1,.17,2.45,4.4,4.4,0,0,1-1.17,1.84,11.19,11.19,0,0,1-5.13,3l-1.17.23a3.61,3.61,0,0,1-2.59-.56,6.49,6.49,0,0,1-1.14-1,3.42,3.42,0,0,1-.78-1.17,1.35,1.35,0,0,1-.11-.62.59.59,0,0,0,.05-.14.52.52,0,0,1,.06-.14l.3-.19a1.73,1.73,0,0,1,.31-.14l.5-.17a4.32,4.32,0,0,1,.45-.19,3.49,3.49,0,0,0,.44-.2l.87-.42.86-.41a17.07,17.07,0,0,0,1.95-1.4,5.9,5.9,0,0,0,.78-.67,4.09,4.09,0,0,0,.62-.78,4.06,4.06,0,0,1-1.17-.67A19.6,19.6,0,0,1,152,30.75,9.73,9.73,0,0,1,149.7,28a5.16,5.16,0,0,1-.5-1.33,3.74,3.74,0,0,1-.06-1.45,5.49,5.49,0,0,1,.34-1.09c.14-.35.29-.7.44-1a18.57,18.57,0,0,1,2-3.32,14,14,0,0,1,2.73-2.7,1.12,1.12,0,0,1,1.11-.11,2.33,2.33,0,0,1,.87.42c.28.2.53.4.75.58a4.41,4.41,0,0,1,1.23,1.51,2.64,2.64,0,0,1,.22.53.54.54,0,0,1-.11.58,16,16,0,0,0-3.79,5.19,15,15,0,0,0-.5,1.64,5.23,5.23,0,0,0-.17,1.7v.06l.67.5a3.39,3.39,0,0,0,.39.22s0,.06,0,.06a5.33,5.33,0,0,0,.9.44,5,5,0,0,1,.89.45l.92.56A6,6,0,0,1,159,32c.33.3.65.63,1,1A4.17,4.17,0,0,1,160.73,34.15Z"/></g></g></svg>