<svg xmlns="http://www.w3.org/2000/svg" viewBox="0 0 213.96 19.88"><defs><style>.cls-1{fill:#fff;}</style></defs><g id="Layer_2" data-name="Layer 2"><g id="Layer_1-2" data-name="Layer 1"><path class="cls-1" d="M0,4.76H1.72V7.08A5.2,5.2,0,0,1,6.14,4.51a5.64,5.64,0,0,1,5.52,6v0a5.65,5.65,0,0,1-5.52,6A5.21,5.21,0,0,1,1.72,14.1v5.78H0Zm9.9,5.81v-.05A4.17,4.17,0,0,0,5.83,6.05,4.31,4.31,0,0,0,1.65,10.5v0A4.31,4.31,0,0,0,5.83,15C8.06,15,9.9,13.36,9.9,10.57Z"/><path class="cls-1" d="M14,13v-.05c0-2.48,2-3.77,4.94-3.77a12.16,12.16,0,0,1,3.53.49V9.27c0-2-1.25-3.13-3.42-3.13A8.1,8.1,0,0,0,15.5,7L15,5.56a9.46,9.46,0,0,1,4.2-1,5.16,5.16,0,0,1,3.73,1.27,4.6,4.6,0,0,1,1.21,3.4v7.06h-1.7V14.59a5.06,5.06,0,0,1-4.16,2C16.11,16.55,14,15.32,14,13Zm8.49-.9V11a12.06,12.06,0,0,0-3.37-.49c-2.15,0-3.38.94-3.38,2.32v0c0,1.45,1.34,2.3,2.91,2.3C20.73,15.17,22.45,13.89,22.45,12.06Z"/><path class="cls-1" d="M27.05,10.59v-.05a6,6,0,0,1,10.55-4l-1.14,1.2A4.68,4.68,0,0,0,33,6a4.26,4.26,0,0,0-4.13,4.47v0A4.31,4.31,0,0,0,33.06,15a4.74,4.74,0,0,0,3.53-1.72l1.1,1a6,6,0,0,1-10.64-3.75Z"/><path class="cls-1" d="M40.52,0h1.72V11.26l6.24-6.5h2.14l-4.85,5,5,6.59H48.72l-4.13-5.39-2.35,2.37v3H40.52Z"/><path class="cls-1" d="M57.79,15.08a4.78,4.78,0,0,0,3.64-1.63l1.07,1a6,6,0,0,1-4.75,2.17,5.75,5.75,0,0,1-5.77-6c0-3.35,2.35-6,5.54-6,3.42,0,5.39,2.73,5.39,6.12a5,5,0,0,1,0,.61H53.72A4,4,0,0,0,57.79,15.08Zm3.37-5.23C61,7.75,59.76,6,57.48,6c-2,0-3.51,1.66-3.76,3.89Z"/><path class="cls-1" d="M65.25,10.57v-.05a5.67,5.67,0,0,1,5.52-6A5.2,5.2,0,0,1,75.19,7V0h1.72V16.31H75.19V14a5.18,5.18,0,0,1-4.42,2.57A5.63,5.63,0,0,1,65.25,10.57Zm10,0v0a4.29,4.29,0,0,0-4.18-4.45C68.85,6.05,67,7.71,67,10.5v0A4.15,4.15,0,0,0,71.08,15,4.31,4.31,0,0,0,75.26,10.54Z"/><path class="cls-1" d="M87.46,4.76h1.72V6.7a4.21,4.21,0,0,1,3.73-2.19,4,4,0,0,1,3.71,2.3,4.59,4.59,0,0,1,4.06-2.3c2.66,0,4.29,1.79,4.29,4.65v7.15h-1.72V9.56c0-2.23-1.12-3.48-3-3.48s-3.2,1.29-3.2,3.57v6.66h-1.7V9.52c0-2.17-1.14-3.44-3-3.44a3.34,3.34,0,0,0-3.21,3.64v6.59H87.46Z"/><path class="cls-1" d="M108.52,11.93V4.76h1.72V11.5c0,2.15,1.16,3.49,3.2,3.49a3.41,3.41,0,0,0,3.46-3.62V4.76h1.7V16.31h-1.7v-2a4.4,4.4,0,0,1-4,2.25C110.15,16.55,108.52,14.68,108.52,11.93Z"/><path class="cls-1" d="M121.5,14.83l.87-1.23a6.76,6.76,0,0,0,4,1.48c1.39,0,2.39-.72,2.39-1.83V13.2c0-1.16-1.36-1.61-2.88-2-1.81-.51-3.82-1.14-3.82-3.26v0c0-2,1.65-3.3,3.93-3.3a7.93,7.93,0,0,1,4.16,1.27l-.79,1.3A6.46,6.46,0,0,0,126,6c-1.37,0-2.24.71-2.24,1.67v.05c0,1.09,1.43,1.52,3,2,1.79.53,3.71,1.23,3.71,3.3v.05c0,2.19-1.81,3.46-4.11,3.46A8,8,0,0,1,121.5,14.83Z"/><path class="cls-1" d="M133.59,0h1.72V6.77a4.37,4.37,0,0,1,3.95-2.26c2.79,0,4.42,1.88,4.42,4.63v7.17H142V9.56c0-2.14-1.16-3.48-3.19-3.48a3.39,3.39,0,0,0-3.46,3.62v6.61h-1.72Z"/><path class="cls-1" d="M147.35,4.76h1.72v3a4.94,4.94,0,0,1,4.71-3.21V6.41h-.13c-2.53,0-4.58,1.81-4.58,5.3v4.6h-1.72Z"/><path class="cls-1" d="M155.21,10.59v-.05a6,6,0,0,1,12,0v0a6,6,0,0,1-6.05,6A5.92,5.92,0,0,1,155.21,10.59Zm10.28,0v-.05A4.37,4.37,0,0,0,161.2,6,4.27,4.27,0,0,0,157,10.5v0A4.34,4.34,0,0,0,161.24,15,4.27,4.27,0,0,0,165.49,10.59Z"/><path class="cls-1" d="M169.64,10.59v-.05a6,6,0,0,1,12,0v0a6,6,0,0,1-6.05,6A5.92,5.92,0,0,1,169.64,10.59Zm10.28,0v-.05A4.37,4.37,0,0,0,175.63,6a4.26,4.26,0,0,0-4.22,4.47v0A4.33,4.33,0,0,0,175.67,15,4.27,4.27,0,0,0,179.92,10.59Z"/><path class="cls-1" d="M184.79,4.76h1.72V6.7a4.21,4.21,0,0,1,3.73-2.19A4,4,0,0,1,194,6.81,4.59,4.59,0,0,1,198,4.51c2.66,0,4.29,1.79,4.29,4.65v7.15h-1.72V9.56c0-2.23-1.12-3.48-3-3.48s-3.2,1.29-3.2,3.57v6.66h-1.7V9.52c0-2.17-1.14-3.44-3-3.44a3.34,3.34,0,0,0-3.21,3.64v6.59h-1.72Z"/><path class="cls-1" d="M205.07,14.83l.87-1.23a6.76,6.76,0,0,0,4,1.48c1.39,0,2.39-.72,2.39-1.83V13.2c0-1.16-1.36-1.61-2.88-2-1.81-.51-3.82-1.14-3.82-3.26v0c0-2,1.65-3.3,3.93-3.3a7.87,7.87,0,0,1,4.15,1.27l-.78,1.3A6.46,6.46,0,0,0,209.52,6c-1.37,0-2.24.71-2.24,1.67v.05c0,1.09,1.43,1.52,3,2C212,10.25,214,11,214,13v.05c0,2.19-1.81,3.46-4.11,3.46A8,8,0,0,1,205.07,14.83Z"/></g></g></svg>