<?xml version="1.0" encoding="utf-8"?>
<!-- Generator: Adobe Illustrator 23.0.0, SVG Export Plug-In . SVG Version: 6.00 Build 0)  -->
<svg version="1.1" id="Layer_1" xmlns="http://www.w3.org/2000/svg" xmlns:xlink="http://www.w3.org/1999/xlink" x="0px" y="0px"
	 viewBox="0 0 300 600" style="enable-background:new 0 0 300 600;" xml:space="preserve">
<style type="text/css">
	.st0{fill:#060866;}
	.st1{fill:#FFFFFF;}
</style>
<g>
	<polygon class="st0" points="178,251 178,219 61,219 61,251 11,251 11,287 196,287 196,251 	"/>
	<g>
		<path class="st1" d="M69,232.3h4.47v2.1c1.29-1.8,2.91-2.43,4.77-2.43c4.32,0,5.49,3.45,5.49,7.35v8.37h-4.47v-8.28
			c0-2.13-0.78-3.75-2.85-3.75s-2.94,1.65-2.94,3.78v8.25H69V232.3z"/>
		<path class="st1" d="M93.99,231.97c4.5,0,8.46,3.24,8.46,8.01c0,4.8-3.96,8.04-8.46,8.04c-4.47,0-8.46-3.21-8.46-8.04
			C85.53,235.18,89.52,231.97,93.99,231.97z M93.99,244.18c2.22,0,4.11-1.8,4.11-4.2c0-2.37-1.89-4.17-4.11-4.17
			c-2.19,0-4.11,1.77-4.11,4.17C89.88,242.41,91.8,244.18,93.99,244.18z"/>
		<path class="st1" d="M109.68,232.3h4.26v3.51h-4.26v7.2c0,0.66,0.27,1.35,1.14,1.35s1.17-0.72,1.17-1.44
			c0-0.45-0.12-1.08-0.21-1.32h3.54c0.27,0.57,0.36,1.29,0.36,1.83c0,2.28-1.5,4.59-5.13,4.59c-2.7,0-5.34-0.96-5.34-5.43v-6.78
			h-2.31v-3.51h2.64l0.69-3.78h3.45V232.3z"/>
		<path class="st1" d="M128.94,232.3h4.26v3.51h-4.26v7.2c0,0.66,0.27,1.35,1.14,1.35s1.17-0.72,1.17-1.44
			c0-0.45-0.12-1.08-0.21-1.32h3.54c0.27,0.57,0.36,1.29,0.36,1.83c0,2.28-1.5,4.59-5.13,4.59c-2.7,0-5.34-0.96-5.34-5.43v-6.78
			h-2.31v-3.51h2.64l0.69-3.78h3.45V232.3z"/>
		<path class="st1" d="M136.29,226h4.47v8.4c1.29-1.8,2.91-2.43,4.77-2.43c4.32,0,5.49,3.45,5.49,7.35v8.37h-4.47v-8.28
			c0-2.13-0.78-3.75-2.85-3.75c-2.07,0-2.94,1.65-2.94,3.78v8.25h-4.47V226z"/>
		<path class="st1" d="M168.81,244.99c-2.19,2.4-5.1,3.03-7.17,3.03c-5.7,0-8.82-3.57-8.82-7.95c0-4.53,3.54-8.1,8.49-8.1
			c4.26,0,8.34,2.94,8.34,9.06h-12.39c0.09,1.92,1.86,3.33,4.71,3.33c1.59,0,3.18-0.81,4.26-1.83L168.81,244.99z M157.35,238.33
			h7.71c-0.3-1.98-2.31-2.73-3.81-2.73C159.81,235.6,157.89,236.26,157.35,238.33z"/>
	</g>
	<g>
		<path class="st1" d="M29.38,260.75h3.12l2.79,8.85l2.67-9.27h4.92l-1.2,3.51l-4.29,11.88h-3.81l-2.64-8.73l-2.64,8.73h-3.81
			l-4.29-11.88l-1.2-3.51h4.92l2.67,9.27L29.38,260.75z"/>
		<path class="st1" d="M48.76,263.69c0.51-2.79,2.88-3.69,4.23-3.69c0.51,0,0.66,0.03,1.14,0.12v4.41
			c-0.63-0.15-1.44-0.21-1.89-0.21c-1.68,0-3.36,0.99-3.36,3.03v8.37h-4.47v-15.39h4.35V263.69z"/>
		<path class="st1" d="M62.86,260c4.5,0,8.46,3.24,8.46,8.01c0,4.8-3.96,8.04-8.46,8.04c-4.47,0-8.46-3.21-8.46-8.04
			C54.4,263.21,58.39,260,62.86,260z M62.86,272.21c2.22,0,4.11-1.8,4.11-4.2c0-2.37-1.89-4.17-4.11-4.17
			c-2.19,0-4.11,1.77-4.11,4.17C58.75,270.44,60.67,272.21,62.86,272.21z"/>
		<path class="st1" d="M73.3,260.33h4.47v2.1c1.29-1.8,2.91-2.43,4.77-2.43c4.32,0,5.49,3.45,5.49,7.35v8.37h-4.47v-8.28
			c0-2.13-0.78-3.75-2.85-3.75c-2.07,0-2.94,1.65-2.94,3.78v8.25H73.3V260.33z"/>
		<path class="st1" d="M106.69,274.64c0,6.06-3.96,8.43-8.34,8.43c-3.42,0-5.73-0.87-7.29-2.13l1.77-3.48
			c0.9,0.78,2.91,1.74,4.62,1.74c2.31,0,4.77-0.69,4.77-4.05v-1.68c-1.11,1.59-2.58,2.58-4.83,2.58c-4.68,0-7.5-3.6-7.5-8.1
			c0-4.32,2.61-7.95,7.41-7.95c2.07,0,3.87,1.02,4.92,2.43v-2.1h4.47V274.64z M98.32,272.42c2.19,0,4.02-1.41,4.02-4.2
			c0-2.85-1.71-4.59-4.14-4.59c-2.46,0-3.84,1.98-3.84,4.35C94.36,270.44,95.86,272.42,98.32,272.42z"/>
		<path class="st1" d="M123.58,260c4.5,0,8.46,3.24,8.46,8.01c0,4.8-3.96,8.04-8.46,8.04c-4.47,0-8.46-3.21-8.46-8.04
			C115.12,263.21,119.11,260,123.58,260z M123.58,272.21c2.22,0,4.11-1.8,4.11-4.2c0-2.37-1.89-4.17-4.11-4.17
			c-2.19,0-4.11,1.77-4.11,4.17C119.47,270.44,121.39,272.21,123.58,272.21z"/>
		<path class="st1" d="M134.02,260.33h4.47v2.1c1.29-1.8,2.91-2.43,4.77-2.43c4.32,0,5.49,3.45,5.49,7.35v8.37h-4.47v-8.28
			c0-2.13-0.78-3.75-2.85-3.75c-2.07,0-2.94,1.65-2.94,3.78v8.25h-4.47V260.33z"/>
		<path class="st1" d="M166.54,273.02c-2.19,2.4-5.1,3.03-7.17,3.03c-5.7,0-8.82-3.57-8.82-7.95c0-4.53,3.54-8.1,8.49-8.1
			c4.26,0,8.34,2.94,8.34,9.06h-12.39c0.09,1.92,1.86,3.33,4.71,3.33c1.59,0,3.18-0.81,4.26-1.83L166.54,273.02z M155.08,266.36
			h7.71c-0.3-1.98-2.31-2.73-3.81-2.73C157.54,263.63,155.62,264.29,155.08,266.36z"/>
		<path class="st1" d="M171.13,270.29c0.45,1.77,2.01,2.31,3.24,2.31c0.99,0,2.01-0.39,2.01-1.17c0-0.51-0.3-0.87-1.14-1.17
			l-2.7-1.14c-3.66-1.29-3.84-3.72-3.84-4.41c0-3.09,2.73-4.71,6.03-4.71c1.77,0,4.11,0.48,5.55,3.24l-3.45,1.59
			c-0.39-1.23-1.5-1.47-2.19-1.47c-0.84,0-1.71,0.48-1.71,1.26c0,0.66,0.66,1.02,1.44,1.32l2.31,0.9c3.63,1.05,3.96,3.42,3.96,4.44
			c0,3.15-2.91,4.77-6.3,4.77c-2.28,0-5.4-0.72-6.45-3.93L171.13,270.29z"/>
		<path class="st1" d="M184.87,270.83c1.59,0,2.85,1.14,2.85,2.64c0,1.47-1.26,2.58-2.85,2.58c-1.62,0-2.82-1.11-2.82-2.58
			C182.05,271.97,183.25,270.83,184.87,270.83z"/>
	</g>
</g>
</svg>
