<?xml version="1.0" encoding="utf-8"?>
<!-- Generator: Adobe Illustrator 26.0.1, SVG Export Plug-In . SVG Version: 6.00 Build 0)  -->
<svg version="1.1" id="Layer_1" xmlns="http://www.w3.org/2000/svg" xmlns:xlink="http://www.w3.org/1999/xlink" x="0px" y="0px"
	 viewBox="0 0 300 600" style="enable-background:new 0 0 300 600;" xml:space="preserve">
<style type="text/css">
	.st0{fill:#FFFFFF;}
</style>
<g>
	<g>
		<path class="st0" d="M76.5,465.3c-0.1-6.8,5.3-12.5,12.1-12.6c0.2,0,0.3,0,0.5,0c4.4,0,7.7,1.6,9.9,4.9l-3,2.1
			c-1.5-2.3-4.1-3.7-6.9-3.5c-5.1,0-8.7,3.9-8.7,9.2s3.6,9.2,8.7,9.2c2.9,0.1,5.7-1.4,7.3-3.9l2.9,2.1c-2.2,3.4-6.1,5.4-10.2,5.3
			c-6.9,0.1-12.5-5.3-12.6-12.2C76.5,465.7,76.5,465.5,76.5,465.3z"/>
		<path class="st0" d="M111.4,452.7h0.4l10.8,24.9h-4l-1.4-3.5h-11.3l-1.4,3.5h-3.7L111.4,452.7z M115.8,470.9l-3.1-7.7
			c-0.5-1.2-0.9-2.4-1.2-3.7c-0.3,1.2-0.7,2.5-1.2,3.7l-3.1,7.7H115.8z"/>
		<path class="st0" d="M142.8,477.6h-4.4l-4.4-6.5c-0.7,0.1-1.4,0.1-2.1,0.1h-2.3v6.3h-3.8V453h6.2c6.8,0,10.6,3.5,10.6,9.2
			c0,3.8-1.7,6.4-4.9,7.8L142.8,477.6z M131.8,468c4.9,0,6.9-2.1,6.9-5.8s-2-5.8-6.9-5.8h-2.2V468H131.8z"/>
		<path class="st0" d="M147.3,453h15.6v3.4h-11.8v9.6h10.5v3.3h-10.5v5h12.3v3.4h-16.2V453z"/>
		<path class="st0" d="M167.6,453h15.6v3.4h-11.8v9.6h10.5v3.3h-10.5v5h12.3v3.4h-16.2V453z"/>
		<path class="st0" d="M205,477.6h-4.4l-4.4-6.5c-0.7,0.1-1.4,0.1-2.1,0.1h-2.3v6.3H188V453h6.2c6.8,0,10.6,3.5,10.6,9.2
			c0,3.8-1.7,6.4-4.9,7.8L205,477.6z M194,468c4.9,0,6.8-2.1,6.8-5.8s-2-5.8-6.8-5.8h-2.2V468H194z"/>
		<path class="st0" d="M207,472.8l3.1-1.7c1.2,1.9,2.6,3.4,5.6,3.4c2.5,0,4.3-1.3,4.3-3.4s-1.4-3.1-4.1-4.3l-1.6-0.7
			c-3.6-1.6-5.8-3.4-5.8-7.2c0-3.6,2.8-6.3,6.9-6.3c2.9-0.2,5.7,1.3,7,3.9l-3,1.9c-0.7-1.5-2.3-2.5-3.9-2.4c-1.6-0.2-3,1-3.2,2.6
			c0,0.1,0,0.2,0,0.3c0,1.9,1.1,2.7,3.6,3.8l1.6,0.7c4.2,1.9,6.4,3.8,6.4,7.8c0,4.3-3.4,6.8-8,6.8S208.3,475.6,207,472.8z"/>
	</g>
</g>
</svg>
