<?xml version="1.0" encoding="utf-8"?>
<!-- Generator: Adobe Illustrator 26.0.1, SVG Export Plug-In . SVG Version: 6.00 Build 0)  -->
<svg version="1.1" id="Layer_1" xmlns="http://www.w3.org/2000/svg" xmlns:xlink="http://www.w3.org/1999/xlink" x="0px" y="0px"
	 viewBox="0 0 300 600" style="enable-background:new 0 0 300 600;" xml:space="preserve">
<style type="text/css">
	.st0{fill:#FFFFFF;}
</style>
<g>
	<g>
		<path class="st0" d="M83,431.9c-1-1-2.3-2.8-2.3-2.8c0.2,1.2,0.3,2.4,0.3,3.6v13.6h-3.6v-24.9h0.5L91.5,436c0.9,1,2.3,2.8,2.3,2.8
			s-0.2-2.2-0.2-3.5v-13.6h3.6v24.9h-0.5L83,431.9z"/>
		<path class="st0" d="M102.7,437.6v-16h3.8v15.8c0,4,2,5.8,5.5,5.8s5.6-1.8,5.6-5.8v-15.7h3.8v16c0,6-4,9-9.4,9
			S102.7,443.6,102.7,437.6z"/>
		<path class="st0" d="M144.1,446.3h-4.4l-4.4-6.5c-0.7,0.1-1.4,0.1-2.1,0.1h-2.3v6.3H127v-24.6h6.2c6.8,0,10.6,3.5,10.6,9.2
			c0.2,3.4-1.8,6.6-4.9,7.8L144.1,446.3z M133.1,436.6c4.9,0,6.8-2.1,6.8-5.8s-2-5.8-6.8-5.8h-2.2v11.6H133.1z"/>
		<path class="st0" d="M146,441.5l3.1-1.7c1.2,1.9,2.6,3.4,5.6,3.4c2.5,0,4.3-1.3,4.3-3.4s-1.4-3.1-4.1-4.3l-1.6-0.7
			c-3.6-1.6-5.8-3.4-5.8-7.2c0-3.6,2.8-6.3,6.9-6.3c2.9-0.2,5.7,1.3,7,3.9l-3,1.9c-0.7-1.5-2.3-2.5-3.9-2.4c-1.6-0.2-3,1-3.2,2.5
			c0,0.1,0,0.2,0,0.3c0,1.9,1.1,2.7,3.6,3.8l1.6,0.7c4.2,1.9,6.4,3.8,6.4,7.8c0,4.3-3.4,6.8-8,6.8S147.4,444.3,146,441.5z"/>
		<path class="st0" d="M167.1,421.6h3.9v24.6h-3.8L167.1,421.6z"/>
		<path class="st0" d="M182.2,431.9c-1-1-2.3-2.8-2.3-2.8c0.1,1.2,0.2,2.4,0.3,3.5v13.6h-3.6v-24.9h0.5l13.6,14.6
			c0.9,1,2.3,2.8,2.3,2.8s-0.2-2.2-0.2-3.5v-13.6h3.6v24.9h-0.5L182.2,431.9z"/>
		<path class="st0" d="M200.7,434c-0.2-6.7,5-12.4,11.7-12.6c0.3,0,0.6,0,0.9,0c3.8,0,6.7,1,8.7,3.3l-2.6,2.6
			c-1.6-1.7-3.8-2.6-6.2-2.4c-5.1,0-8.7,3.9-8.7,9.2c-0.2,4.9,3.5,9,8.4,9.2c0.3,0,0.5,0,0.8,0c2.1,0.1,4.3-0.5,6.1-1.6v-4.4h-6.6
			v-3.4h10.1v9.6c-2.7,2.1-6.1,3.3-9.6,3.1C206.2,446.6,200.7,441.3,200.7,434z"/>
	</g>
</g>
</svg>
