<?xml version="1.0" encoding="utf-8"?>
<!-- Generator: Adobe Illustrator 26.0.1, SVG Export Plug-In . SVG Version: 6.00 Build 0)  -->
<svg version="1.1" id="Layer_1" xmlns="http://www.w3.org/2000/svg" xmlns:xlink="http://www.w3.org/1999/xlink" x="0px" y="0px"
	 viewBox="0 0 300 600" style="enable-background:new 0 0 300 600;" xml:space="preserve">
<style type="text/css">
	.st0{fill:#FFFFFF;}
</style>
<g>
	<g>
		<path class="st0" d="M60.7,457.4h-7V453h19.1v4.5h-7v20.2h-5.1V457.4z"/>
		<path class="st0" d="M75.7,453h5.1v12.6h10.5V453h5.1v24.6h-5.1v-7.5H80.8v7.5h-5.1V453z"/>
		<path class="st0" d="M100.5,465.3c0-7,5.7-12.8,12.7-12.8c7,0,12.8,5.7,12.8,12.7c0,7-5.7,12.8-12.7,12.8c0,0,0,0,0,0
			c-6.9,0.2-12.6-5.3-12.7-12.2C100.5,465.6,100.5,465.5,100.5,465.3z M120.7,465.3c0-4.6-3-8.1-7.5-8.1s-7.5,3.5-7.5,8.1
			s3,8.1,7.5,8.1S120.7,469.9,120.7,465.3z"/>
		<path class="st0" d="M129.8,468.7V453h5.1v15.4c0,3.6,1.6,5,4.9,5s4.9-1.4,4.9-5V453h5.1v15.7c0,6.2-4.3,9.2-9.9,9.2
			S129.8,474.9,129.8,468.7z"/>
		<path class="st0" d="M153.6,465.3c0-7.3,5.1-12.6,12.6-12.6c4,0,6.9,1.1,9,3.4l-3.4,3.4c-1.4-1.6-3.4-2.4-5.5-2.2
			c-4.4,0-7.4,3.4-7.4,8s3,8.1,8.1,8.1c1.7,0,3.3-0.3,4.8-0.9v-3.6h-5.9v-4.5h10.6V475c-2.8,2-6.1,3-9.5,3
			C158.9,478,153.6,472.6,153.6,465.3z"/>
		<path class="st0" d="M181.1,453h5.1v12.6h10.5V453h5.1v24.6h-5.1v-7.5h-10.5v7.5h-5.1V453z"/>
		<path class="st0" d="M211.8,457.4h-7V453h19.1v4.5h-7v20.2h-5.1L211.8,457.4z"/>
		<path class="st0" d="M231.3,463.5h1.7c3,0,4.1-1.6,4.1-3.4c0-1.7-1.3-3-3-3c-1.6-0.1-3.2,0.9-3.8,2.4l-3.9-2.3
			c1.3-2.9,3.9-4.4,7.8-4.4c5.2,0,8,3.6,8,7.4s-2.2,6.5-6.2,7.1v2.1h-4.6L231.3,463.5z M230.4,474.8c0-1.7,1.4-3.1,3.1-3
			s3.1,1.4,3,3.1c0,1.7-1.4,3-3,3c-1.7,0-3-1.3-3.1-2.9C230.4,474.9,230.4,474.8,230.4,474.8L230.4,474.8z"/>
	</g>
</g>
</svg>
