<?xml version="1.0" encoding="utf-8"?>
<!-- Generator: Adobe Illustrator 26.0.1, SVG Export Plug-In . SVG Version: 6.00 Build 0)  -->
<svg version="1.1" id="Layer_1" xmlns="http://www.w3.org/2000/svg" xmlns:xlink="http://www.w3.org/1999/xlink" x="0px" y="0px"
	 viewBox="0 0 300 600" style="enable-background:new 0 0 300 600;" xml:space="preserve">
<style type="text/css">
	.st0{fill:#FFFFFF;}
</style>
<g>
	<g>
		<path class="st0" d="M76.8,515.4h0.4L88,540.3h-4l-1.4-3.5H71.3l-1.4,3.5h-3.7L76.8,515.4z M81.2,533.6l-3.1-7.7
			c-0.6-1.5-1.2-3.7-1.2-3.7c-0.3,1.2-0.7,2.5-1.2,3.7l-3.1,7.7H81.2z"/>
		<path class="st0" d="M93.8,519h-7.3v-3.4H105v3.4h-7.3v21.3h-3.8V519z"/>
		<path class="st0" d="M133.8,540.3h-4.4l-4.4-6.5c-0.7,0.1-1.4,0.1-2.1,0.1h-2.3v6.3h-3.8v-24.6h6.2c6.8,0,10.6,3.5,10.6,9.2
			c0,3.8-1.7,6.4-4.9,7.8L133.8,540.3z M122.8,530.7c4.9,0,6.9-2.1,6.9-5.8s-2-5.8-6.8-5.8h-2.2v11.6H122.8z"/>
		<path class="st0" d="M143.9,532.5l-9.3-16.8h4.2l5.6,10.1c0.6,1.1,1.1,2.3,1.5,3.5c0.4-1.2,0.9-2.4,1.5-3.5l5.4-10.1h3.9
			l-8.9,16.6v8h-3.8L143.9,532.5z"/>
		<path class="st0" d="M159.9,515.4h0.4l11.8,13.8l11.7-13.8h0.4v24.9h-3.7v-12.8c0-1.4,0.1-3.5,0.1-3.5c-0.7,1-1.4,2-2.2,3
			l-6.2,7.5h-0.4l-6.2-7.5c-0.9-1.1-2.2-3-2.2-3s0.1,2.2,0.1,3.5v12.8h-3.6V515.4z"/>
		<path class="st0" d="M197.9,515.4h0.4l10.8,24.9h-4l-1.4-3.5h-11.2l-1.5,3.5h-3.7L197.9,515.4z M202.3,533.6l-3.1-7.7
			c-0.5-1.2-0.9-2.4-1.2-3.7c-0.3,1.2-0.7,2.5-1.2,3.7l-3.1,7.7H202.3z"/>
		<path class="st0" d="M217.9,525.9c-1-1-2.3-2.8-2.3-2.8c0.1,1.2,0.2,2.4,0.3,3.5v13.6h-3.6v-24.9h0.5l13.6,14.6
			c0.9,1,2.3,2.8,2.3,2.8s-0.2-2.2-0.2-3.6v-13.5h3.6v24.9h-0.5L217.9,525.9z"/>
	</g>
</g>
</svg>
