<?xml version="1.0" encoding="utf-8"?>
<!-- Generator: Adobe Illustrator 26.0.1, SVG Export Plug-In . SVG Version: 6.00 Build 0)  -->
<svg version="1.1" id="Layer_1" xmlns="http://www.w3.org/2000/svg" xmlns:xlink="http://www.w3.org/1999/xlink" x="0px" y="0px"
	 viewBox="0 0 300 600" style="enable-background:new 0 0 300 600;" xml:space="preserve">
<style type="text/css">
	.st0{fill:#FFFFFF;}
</style>
<g>
	<g>
		<path class="st0" d="M20.6,451.9h6.2c6.8,0,10.6,3.7,10.6,9.4s-3.8,9.4-10.6,9.4h-2.4v5.9h-3.8V451.9z M26.7,467.3
			c4.9,0,6.8-2.3,6.8-6s-2-6-6.8-6h-2.2v12H26.7z"/>
		<path class="st0" d="M58.3,476.5h-4.4l-4.4-6.5c-0.7,0.1-1.4,0.1-2.1,0.1H45v6.3h-3.8v-24.6h6.2c6.8,0,10.6,3.5,10.6,9.2
			c0,3.8-1.7,6.4-4.9,7.8L58.3,476.5z M47.3,466.9c4.9,0,6.8-2.1,6.8-5.8s-2-5.8-6.8-5.8H45v11.6L47.3,466.9z"/>
		<path class="st0" d="M61,464.2c0-7,5.6-12.7,12.6-12.8c7,0,12.7,5.6,12.8,12.6s-5.6,12.7-12.6,12.8c0,0,0,0,0,0
			c-6.9,0.2-12.6-5.3-12.7-12.1C61,464.6,61,464.4,61,464.2z M82.5,464.2c0-5.2-3.6-9.2-8.8-9.2s-8.8,4-8.8,9.2s3.7,9.2,8.8,9.2
			S82.5,469.5,82.5,464.2L82.5,464.2z"/>
		<path class="st0" d="M90.7,451.9H106v3.4H94.5v9.9h10.4v3.4H94.5v8h-3.8V451.9z"/>
		<path class="st0" d="M109.4,451.9h15.7v3.4h-11.8v9.6h10.5v3.3h-10.5v5h12.3v3.4h-16.2V451.9z"/>
		<path class="st0" d="M127.8,471.8l3.2-1.8c1.2,1.9,2.6,3.5,5.6,3.5c2.5,0,4.3-1.3,4.3-3.4s-1.4-3.1-4.1-4.3l-1.6-0.7
			c-3.6-1.6-5.8-3.4-5.8-7.2s2.8-6.3,6.9-6.3c2.9-0.2,5.7,1.3,7,3.9l-3,1.9c-0.7-1.5-2.3-2.5-3.9-2.4c-1.6-0.2-3,1-3.2,2.6
			c0,0.1,0,0.2,0,0.3c0,1.8,1.1,2.7,3.6,3.8l1.6,0.7c4.2,1.9,6.4,3.8,6.4,7.8c0,4.3-3.4,6.8-8,6.8S129.2,474.6,127.8,471.8z"/>
		<path class="st0" d="M147,471.8l3.1-1.8c1.2,1.9,2.6,3.5,5.6,3.5c2.5,0,4.3-1.3,4.3-3.4s-1.4-3.1-4.1-4.3l-1.6-0.7
			c-3.6-1.6-5.8-3.4-5.8-7.2s2.8-6.3,6.9-6.3c2.9-0.2,5.7,1.3,7,3.9l-3,1.9c-0.7-1.6-2.3-2.5-4-2.4c-1.6-0.2-3,1-3.2,2.5
			c0,0.1,0,0.2,0,0.3c0,1.8,1,2.7,3.6,3.8l1.6,0.7c4.2,1.9,6.4,3.8,6.4,7.8c0,4.3-3.4,6.8-8,6.8S148.3,474.6,147,471.8z"/>
		<path class="st0" d="M167.9,451.9h3.8v24.6h-3.8V451.9z"/>
		<path class="st0" d="M176,464.2c0-7,5.6-12.7,12.6-12.8c7,0,12.7,5.6,12.8,12.6c0,7-5.6,12.7-12.6,12.8c0,0,0,0,0,0
			c-6.9,0.2-12.6-5.3-12.7-12.1C176,464.6,176,464.4,176,464.2z M197.5,464.2c0-5.2-3.6-9.2-8.8-9.2s-8.8,4-8.8,9.2s3.7,9.2,8.8,9.2
			S197.5,469.5,197.5,464.2z"/>
		<path class="st0" d="M211.2,462.2c-1-1-2.3-2.8-2.3-2.8c0.1,1.2,0.2,2.4,0.3,3.5v13.6h-3.6v-24.9h0.5l13.6,14.6
			c0.9,1,2.3,2.8,2.3,2.8s-0.2-2.2-0.2-3.5v-13.6h3.6v24.9h-0.5L211.2,462.2z"/>
		<path class="st0" d="M238.9,451.7h0.4l10.8,24.9h-4l-1.4-3.5h-11.2l-1.4,3.5h-3.7L238.9,451.7z M243.4,469.9l-3.1-7.7
			c-0.5-1.2-0.9-2.4-1.2-3.7c-0.3,1.2-0.7,2.5-1.2,3.7l-3.1,7.7H243.4z"/>
		<path class="st0" d="M253.2,451.9h3.8v21.3h11.4v3.4h-15.2V451.9z"/>
		<path class="st0" d="M270.3,471.8l3.2-1.7c1.1,1.9,2.6,3.5,5.6,3.5c2.5,0,4.3-1.3,4.3-3.4s-1.5-3.1-4.1-4.3l-1.6-0.7
			c-3.6-1.6-5.8-3.4-5.8-7.2s2.8-6.3,6.9-6.3c2.9-0.2,5.7,1.3,7,3.9l-3,1.9c-0.7-1.6-2.3-2.5-4-2.4c-1.6-0.2-3,1-3.2,2.6
			c0,0.1,0,0.2,0,0.3c0,1.8,1,2.7,3.5,3.8l1.6,0.7c4.2,1.9,6.4,3.8,6.4,7.8c0,4.3-3.4,6.8-8,6.8S271.7,474.6,270.3,471.8z"/>
	</g>
</g>
</svg>
