<?xml version="1.0" encoding="utf-8"?>
<!-- Generator: Adobe Illustrator 26.0.1, SVG Export Plug-In . SVG Version: 6.00 Build 0)  -->
<svg version="1.1" id="Layer_1" xmlns="http://www.w3.org/2000/svg" xmlns:xlink="http://www.w3.org/1999/xlink" x="0px" y="0px"
	 viewBox="0 0 300 600" style="enable-background:new 0 0 300 600;" xml:space="preserve">
<style type="text/css">
	.st0{fill:#FFFFFF;}
</style>
<g>
	<g>
		<path class="st0" d="M79.2,487.7h-7.3v-3.4h18.4v3.4H83V509h-3.8L79.2,487.7z"/>
		<path class="st0" d="M99.4,484.1h0.4l10.8,24.9h-4l-1.4-3.5H93.9l-1.4,3.5h-3.7L99.4,484.1z M103.8,502.3l-3.1-7.7
			c-0.5-1.2-0.9-2.4-1.2-3.7c-0.3,1.2-0.7,2.5-1.2,3.7l-3.1,7.7H103.8z"/>
		<path class="st0" d="M119.3,494.8l8-10.4h4.3l-8.7,11.5l9.7,13.1h-4.6l-7.6-10.3l-2.7,3.2v7.1h-3.8v-24.7h3.8v10.1
			c0,1.2-0.1,2.4-0.3,3.6C117.9,496.9,118.5,495.8,119.3,494.8z"/>
		<path class="st0" d="M135.7,484.3h15.6v3.4h-11.8v9.6H150v3.3h-10.4v5h12.3v3.4h-16.1V484.3z"/>
		<path class="st0" d="M163.5,496.6c0-7,5.6-12.7,12.6-12.7c7,0,12.7,5.6,12.7,12.6c0,7-5.6,12.7-12.6,12.7c0,0,0,0,0,0
			c-6.9,0.2-12.6-5.3-12.7-12.1C163.5,497,163.5,496.8,163.5,496.6z M185,496.6c0-5.2-3.6-9.2-8.8-9.2s-8.8,4-8.8,9.2
			s3.6,9.2,8.8,9.2S185,501.9,185,496.6L185,496.6z"/>
		<path class="st0" d="M193.3,484.3h15.3v3.4h-11.5v9.9h10.4v3.4h-10.4v8h-3.8V484.3z"/>
		<path class="st0" d="M212.3,484.3h15.3v3.4h-11.5v9.9h10.4v3.4h-10.4v8h-3.8L212.3,484.3z"/>
	</g>
</g>
</svg>
