<?xml version="1.0" encoding="utf-8"?>
<!-- Generator: Adobe Illustrator 26.0.1, SVG Export Plug-In . SVG Version: 6.00 Build 0)  -->
<svg version="1.1" id="Layer_1" xmlns="http://www.w3.org/2000/svg" xmlns:xlink="http://www.w3.org/1999/xlink" x="0px" y="0px"
	 viewBox="0 0 300 600" style="enable-background:new 0 0 300 600;" xml:space="preserve">
<style type="text/css">
	.st0{clip-path:url(#SVGID_00000161626445844387717270000011407222323407345319_);}
	.st1{fill:#FF6C7C;}
	.st2{fill:#FFFFFF;}
</style>
<g>
	<g>
		<g>
			<defs>
				<rect id="SVGID_1_" y="0" width="300" height="600"/>
			</defs>
			<clipPath id="SVGID_00000178898363006330825720000013719536272414153095_">
				<use xlink:href="#SVGID_1_"  style="overflow:visible;"/>
			</clipPath>
			<g style="clip-path:url(#SVGID_00000178898363006330825720000013719536272414153095_);">
				<path class="st1" d="M58.9,523.6h182.1c5.5,0,9.9,4.5,9.9,10l0,0v27.2c0,5.5-4.5,9.9-9.9,9.9l0,0H58.9c-5.5,0-9.9-4.5-9.9-9.9v0
					v-27.2C49,528,53.5,523.6,58.9,523.6C58.9,523.6,58.9,523.6,58.9,523.6z"/>
			</g>
		</g>
		<path class="st2" d="M67.7,538h3.9v15.4H80v3.4H67.7V538z"/>
		<path class="st2" d="M82.5,538h12.4v3.4h-8.5v6h7.5v3.3h-7.5v2.7h8.9v3.4H82.5V538z"/>
		<path class="st2" d="M105.6,537.9h0.3l8.6,18.9h-4l-0.9-2.1H102l-0.9,2.1h-3.8L105.6,537.9z M108.1,551.4l-1.3-3.2
			c-0.6-1.3-1.1-3.4-1.1-3.4c-0.3,1.1-0.7,2.3-1.1,3.4l-1.4,3.2H108.1z"/>
		<path class="st2" d="M130.5,556.8H126l-3.1-4.8c-0.4,0.1-0.7,0.1-1.1,0.1h-1.3v4.7h-3.9V538h5.2c5.2,0,8.4,2.5,8.4,7.1
			c0.2,2.5-1.3,4.9-3.6,5.8L130.5,556.8z M121.7,548.8c3.1,0,4.5-1,4.5-3.6s-1.4-3.7-4.5-3.7h-1.2v7.3H121.7z"/>
		<path class="st2" d="M139.1,548.1c-0.8-0.8-1.5-1.7-2.2-2.6c0.1,1.1,0.2,2.3,0.3,3.4v7.9h-3.6v-18.9h0.4l9.4,8.9
			c0.8,0.8,1.5,1.7,2.2,2.6c0,0-0.2-2.1-0.2-3.4V538h3.6v18.9h-0.4L139.1,548.1z"/>
		<path class="st2" d="M158.4,537.8h0.3l9.2,10.2l9.1-10.1h0.3v18.9h-3.7v-7c0-1.3,0.1-3.3,0.1-3.3s-1.1,1.7-2,2.6l-3.8,4.1h-0.4
			l-3.6-4.2c-0.9-1-2-2.6-2-2.6s0.1,2,0.1,3.3v7h-3.7L158.4,537.8z"/>
		<path class="st2" d="M180.6,547.4c0-5.4,4.3-9.7,9.6-9.8s9.7,4.3,9.8,9.6s-4.3,9.7-9.6,9.8c0,0-0.1,0-0.1,0
			c-5.2,0.1-9.6-4-9.7-9.3C180.5,547.6,180.5,547.5,180.6,547.4z M196,547.4c0-3.5-2.3-6.2-5.7-6.2s-5.7,2.7-5.7,6.2
			s2.3,6.2,5.7,6.2S196,550.9,196,547.4L196,547.4z"/>
		<path class="st2" d="M217,556.8h-4.5l-3.1-4.8c-0.4,0.1-0.7,0.1-1.1,0.1H207v4.7h-3.9V538h5.2c5.2,0,8.4,2.5,8.4,7.1
			c0.2,2.5-1.3,4.9-3.6,5.8L217,556.8z M208.2,548.8c3.1,0,4.5-1,4.5-3.6s-1.4-3.7-4.5-3.7H207v7.3H208.2z"/>
		<path class="st2" d="M220,538h12.4v3.4h-8.6v6h7.5v3.3h-7.5v2.7h8.9v3.4H220V538z"/>
	</g>
</g>
</svg>
