<?xml version="1.0" encoding="utf-8"?>
<!-- Generator: Adobe Illustrator 24.0.2, SVG Export Plug-In . SVG Version: 6.00 Build 0)  -->
<svg version="1.1" id="Layer_1" xmlns="http://www.w3.org/2000/svg" xmlns:xlink="http://www.w3.org/1999/xlink" x="0px" y="0px"
	 viewBox="0 0 300 250" style="enable-background:new 0 0 300 250;" xml:space="preserve">
<style type="text/css">
	.st0{fill:#FFFFFF;}
</style>
<title>300 x 250 2</title>
<path class="st0" d="M75.5,160.6c-0.1-5.2,4.2-9.5,9.4-9.6c0.1,0,0.3,0,0.4,0c3.6-0.1,6.9,1.9,8.5,5.2l-4.5,1.8
	c-0.8-1.5-2.3-2.4-3.9-2.4c-2.6,0-4.8,2-4.8,4.6c0,0.1,0,0.2,0,0.4c0,3,1.9,5.1,4.6,5.1c1.8,0.1,3.5-0.9,4.3-2.5L94,165
	c-2.4,4.8-8.3,6.8-13.1,4.3C77.6,167.6,75.5,164.3,75.5,160.6L75.5,160.6z"/>
<path class="st0" d="M113.8,158.5v11.4h-3.6l-0.7-2.4c-1.2,1.9-3.3,2.8-6.4,2.8c-4.3,0-6.7-2.2-6.7-5.9s2.6-5.7,7.2-5.7
	c1.8,0,3.7,0.3,5.4,0.9v-0.8c0-2.4-1.4-3.6-3.8-3.6c-1.8,0-3.5,0.5-5,1.5l-2.7-3.4c2.4-1.6,5.2-2.4,8-2.3
	C110.5,151,113.8,153.9,113.8,158.5z M108.9,163.1v-0.4c-1.3-0.4-2.6-0.7-3.9-0.7c-2.4,0-3.7,0.8-3.7,2.4s1.1,2.4,3.3,2.4
	C107.1,166.6,108.9,165.1,108.9,163.1z"/>
<path class="st0" d="M141.8,174.2v4.1c-0.5,0.1-1,0.1-1.5,0.1c-5.4,0-8.5-3.1-8.5-8.4v-10.3c0-2.7-1.3-4-3.7-4
	c-2.3-0.1-4.4,1.7-4.5,4c0,0.2,0,0.3,0,0.5v9.8h-4.9v-18.6h4l0.6,2.6c1.1-1.9,3.4-3,6.3-3c4.4,0,7.1,2.9,7.1,7.7v11.1
	c0,3,1.5,4.4,4.5,4.4L141.8,174.2z"/>
<path class="st0" d="M149.3,151.4h5.2l3.4,11.3l0.4,2.2l0.3-2.2l3.3-11.3h4.1l3.4,11.3l0.3,2.2l0.4-2.2l3.9-12.4
	c1.5-4.9,3.7-6.9,7.4-7.9l1.7,4.4c-2.4,0.6-3.5,1.7-4.5,4.8l-6.3,18.4h-4.4l-3.6-11.3l-0.3-1.7l-0.3,1.7l-3.3,11.3h-4.5L149.3,151.4
	z"/>
<path class="st0" d="M196.5,158.5v11.4h-3.6l-0.7-2.4c-1.2,1.9-3.3,2.8-6.4,2.8c-4.3,0-6.7-2.2-6.7-5.9s2.6-5.7,7.2-5.7
	c1.8,0,3.7,0.3,5.4,0.9v-0.8c0-2.4-1.4-3.6-3.8-3.6c-1.8,0-3.5,0.5-5,1.5l-2.6-3.4c2.4-1.6,5.2-2.4,8-2.3
	C193.2,151,196.5,153.9,196.5,158.5z M191.6,163.1v-0.4c-1.3-0.4-2.6-0.7-3.9-0.7c-2.4,0-3.6,0.8-3.6,2.4s1.1,2.4,3.3,2.4
	C189.8,166.6,191.6,165.1,191.6,163.1L191.6,163.1z"/>
<path class="st0" d="M200.8,145.6c0-1.7,1.3-3,3-3s3,1.3,3,3c0,1.6-1.2,2.9-2.8,3c-0.1,0-0.1,0-0.2,0c-1.6,0.1-2.9-1.1-3-2.7
	C200.8,145.7,200.8,145.6,200.8,145.6z M201.3,151.4h4.9v18.5h-4.9V151.4z"/>
<path class="st0" d="M225,169.2c-1.7,0.8-3.5,1.2-5.3,1.1c-4.8,0-7.1-2.4-7.1-7.2v-7.5h-3.4v-3.7c2.8-0.2,4.2-2,4.4-5.5h3.9v5h6.3
	v4.2h-6.3v7.1c0,2.3,0.7,3.1,2.8,3.1c1.1,0,2.2-0.3,3.1-1L225,169.2z"/>
</svg>
