<?xml version="1.0" encoding="utf-8"?>
<!-- Generator: Adobe Illustrator 24.0.2, SVG Export Plug-In . SVG Version: 6.00 Build 0)  -->
<svg version="1.1" id="Layer_1" xmlns="http://www.w3.org/2000/svg" xmlns:xlink="http://www.w3.org/1999/xlink" x="0px" y="0px"
	 viewBox="0 0 300 250" style="enable-background:new 0 0 300 250;" xml:space="preserve">
<style type="text/css">
	.st0{fill:#FFFFFF;}
</style>
<title>300 x 250 2</title>
<g>
	<g>
		<path class="st0" d="M105.2,38.4l4.3-1.2c0.3,1.3,1.5,2.3,2.9,2.2c1.6,0,2.6-0.7,2.6-1.8s-0.8-1.7-2.6-2.1l-1.8-0.4
			c-3.3-0.8-5.2-2.7-5.2-5.5c0-3.5,2.7-5.7,7.1-5.7c5.8,0,7,4,7,4l-4.3,1.4c-0.4-1.1-1.5-1.8-2.7-1.7c-1.4,0-2.3,0.6-2.3,1.7
			c0,1.3,0.9,1.7,2.7,2.1l1.9,0.5c3.2,0.7,5,2.7,5,5.5c0,3.6-2.9,5.9-7.4,5.9C106.1,43.2,105.2,38.4,105.2,38.4z"/>
		<path class="st0" d="M123.5,24.2h3.9l0.7,2.6c1.2-1.9,3.5-3,6.4-3c4.4,0,7.1,3,7.1,7.7v11.3h-4.9V32.5c0-2.7-1.3-4.1-3.7-4.1
			c-2.3-0.1-4.4,1.7-4.5,4c0,0.2,0,0.3,0,0.5v9.8h-4.9L123.5,24.2z"/>
		<path class="st0" d="M145.2,33.5c0-5.6,4.3-9.6,10.1-9.6s10.1,3.9,10.1,9.6c0,5.5-4.3,9.6-10.1,9.6S145.2,39.1,145.2,33.5z
			 M160.4,33.5c0.2-2.7-1.8-4.9-4.5-5.1c-0.2,0-0.4,0-0.6,0c-2.7-0.1-5,2-5.1,4.7c0,0.2,0,0.3,0,0.5c-0.1,2.8,2.1,5.2,4.9,5.3
			s5.2-2.1,5.3-4.9C160.4,33.8,160.4,33.7,160.4,33.5z"/>
		<path class="st0" d="M195.5,24.2l-6.4,18.5h-4.4l-3.6-11.3l-0.3-1.7l-0.3,1.7l-3.3,11.3h-4.5l-6.6-18.5h5.2l3.5,11.3l0.4,2.2
			l0.3-2.2l3.3-11.3h4.1l3.4,11.3l0.3,2.2l0.4-2.2l3.4-11.3H195.5z"/>
		<path class="st0" d="M118.7,68.4h3.8l0.7,3.4c0.9-2.4,3.2-3.7,6.4-3.7c0.4,0,0.7,0,1.1,0.1l-0.3,5h-0.7c-4.3,0-6,1.8-6,6.7V87
			h-4.9L118.7,68.4z"/>
		<path class="st0" d="M148.8,75.6V87h-3.6l-0.7-2.4c-1.2,1.9-3.3,2.8-6.4,2.8c-4.3,0-6.7-2.2-6.7-5.9s2.6-5.7,7.2-5.7
			c1.8,0,3.7,0.3,5.4,0.9v-0.8c0-2.4-1.4-3.7-3.8-3.7c-1.8,0-3.5,0.5-5,1.5l-2.7-3.4c2.4-1.6,5.2-2.4,8-2.3
			C145.6,68,148.8,71,148.8,75.6z M144,80.1v-0.4c-1.3-0.4-2.6-0.7-3.9-0.7c-2.4,0-3.6,0.8-3.6,2.4s1.1,2.3,3.3,2.3
			C142.1,83.7,144,82.2,144,80.1z"/>
		<path class="st0" d="M153.1,62.6c0-1.7,1.3-3,3-3s3,1.3,3,3c0,1.6-1.3,2.9-2.9,2.9c0,0-0.1,0-0.1,0c-1.6,0.1-2.9-1.1-3-2.7
			C153.1,62.8,153.1,62.7,153.1,62.6z M153.7,68.5h4.9V87h-4.9V68.5z"/>
		<path class="st0" d="M163.6,68.4h3.9l0.7,2.6c1.2-1.9,3.5-3,6.4-3c4.4,0,7.1,2.9,7.1,7.7V87h-4.9V76.7c0-2.7-1.3-4-3.7-4
			c-2.3-0.1-4.4,1.7-4.5,4c0,0.2,0,0.3,0,0.5V87h-4.9V68.4z"/>
		<path class="st0" d="M102.4,106.8c0-1.7,1.3-3,3-3s3,1.3,3,3c0,1.6-1.3,2.9-2.9,2.9c0,0-0.1,0-0.1,0c-1.6,0.1-2.9-1.1-3-2.7
			C102.4,107,102.4,106.9,102.4,106.8z M102.9,112.7h4.9v18.5h-4.9V112.7z"/>
		<path class="st0" d="M112.8,112.7h3.9l0.7,2.6c1.2-1.9,3.5-3,6.4-3c4.4,0,7.1,2.9,7.1,7.7v11.3H126V121c0-2.7-1.3-4-3.7-4
			c-2.3-0.1-4.4,1.6-4.5,4c0,0.2,0,0.3,0,0.5v9.8h-4.9L112.8,112.7z"/>
		<path class="st0" d="M155.4,121.9c0,5.7-3.8,9.7-8.9,9.7c-2.5,0.1-4.8-1-6.3-3l-0.7,2.5h-3.7v-27.4h4.9v10.9
			c1.5-1.6,3.7-2.5,5.9-2.4C151.8,112.3,155.4,116.2,155.4,121.9z M150.4,121.9c0-3-1.8-5-4.7-5c-2.8-0.2-5.3,1.9-5.5,4.7
			c-0.2,2.8,1.9,5.3,4.7,5.5s5.3-1.9,5.5-4.7C150.4,122.2,150.4,122.1,150.4,121.9z"/>
		<path class="st0" d="M158.3,122c0-5.6,4.3-9.7,10.1-9.7s10.1,3.9,10.1,9.7c0,5.5-4.3,9.6-10.1,9.6S158.3,127.6,158.3,122z
			 M173.5,122c0.2-2.7-1.8-4.9-4.5-5.1c-0.2,0-0.4,0-0.6,0c-2.8,0-5.1,2.3-5.1,5.1c0,2.8,2.3,5.1,5.1,5.1
			C171.2,127.1,173.5,124.8,173.5,122C173.5,122,173.5,122,173.5,122z"/>
		<path class="st0" d="M193.1,131.2l-4.2-5.8l-4.2,5.8h-5.9l7-9.4l-6.7-9.2h5.9l3.8,5.6l3.8-5.6h5.9l-6.6,9.2l7.1,9.4H193.1z"/>
	</g>
</g>
</svg>
