<?xml version="1.0" encoding="utf-8"?>
<!-- Generator: Adobe Illustrator 24.0.2, SVG Export Plug-In . SVG Version: 6.00 Build 0)  -->
<svg version="1.1" id="Layer_1" xmlns="http://www.w3.org/2000/svg" xmlns:xlink="http://www.w3.org/1999/xlink" x="0px" y="0px"
	 viewBox="0 0 300 250" style="enable-background:new 0 0 300 250;" xml:space="preserve">
<style type="text/css">
	.st0{fill:#FFFFFF;}
</style>
<title>300 x 250 2</title>
<path class="st0" d="M143,70h-8.8v22h-5.1V70H124c-3.7,0-6,2.1-6,5.6c-0.2,2.8,1.9,5.3,4.8,5.6l-1,4.7c-5.5-0.8-9-4.6-9-10.2
	c0-6.3,4.3-10.4,11.2-10.4H143V70z"/>
<path class="st0" d="M146.9,64.5h4.9v11c1.2-1.7,3.4-2.5,6-2.5c4.4,0,7.2,3,7.2,7.7v11.3h-4.9V81.7c0-2.7-1.3-4.1-3.8-4.1
	c-2.4-0.1-4.4,1.8-4.5,4.2c0,0.1,0,0.2,0,0.3v9.8h-4.9L146.9,64.5z"/>
<path class="st0" d="M187.7,84.2h-13.9c0.4,2.4,2,3.7,4.6,3.7c2,0,3.3-0.7,4.1-2.1l4.4,2c-1.9,3.1-4.7,4.5-8.6,4.5
	c-5.1,0.1-9.4-3.9-9.5-9c0-0.2,0-0.4,0-0.7c0-5.6,4.1-9.6,9.8-9.6c5.5,0,9.1,4,9.1,9.7C187.7,83.5,187.7,84.2,187.7,84.2z
	 M182.9,80.6c-0.2-2-1.9-3.4-4.4-3.4s-4.2,1.1-4.7,3.4H182.9z"/>
</svg>
