<?xml version="1.0" encoding="utf-8"?>
<!-- Generator: Adobe Illustrator 24.0.2, SVG Export Plug-In . SVG Version: 6.00 Build 0)  -->
<svg version="1.1" id="Layer_1" xmlns="http://www.w3.org/2000/svg" xmlns:xlink="http://www.w3.org/1999/xlink" x="0px" y="0px"
	 viewBox="0 0 300 250" style="enable-background:new 0 0 300 250;" xml:space="preserve">
<style type="text/css">
	.st0{fill:#FFFFFF;}
</style>
<title>300 x 250 3</title>
<path class="st0" d="M74.1,107.2v8.5h-1.8l-0.3-2.3c-1.2,1.7-3.2,2.6-5.3,2.5c-4.1,0.1-7.5-3.2-7.6-7.3c0-0.1,0-0.3,0-0.4
	c-0.1-4.2,3.2-7.6,7.3-7.7c0.1,0,0.3,0,0.4,0c2.9-0.1,5.5,1.4,6.8,4l-2.7,1c-0.8-1.5-2.4-2.4-4.1-2.3c-2.8,0.1-4.9,2.5-4.8,5.3
	c0.1,2.6,2.2,4.7,4.8,4.8c2.2,0.1,4.1-1.5,4.3-3.7h-4.6v-2.3L74.1,107.2z"/>
<path class="st0" d="M86.7,111.3h-7.8c0.2,1.3,1.3,2.2,2.6,2.1c0.9,0.1,1.8-0.4,2.3-1.2l2.5,1.1c-1.7,2.6-5.1,3.3-7.6,1.6
	c-1.5-1-2.5-2.7-2.5-4.5c-0.1-2.9,2.2-5.3,5.1-5.4c0.1,0,0.3,0,0.4,0c3.1,0,5.1,2.2,5.1,5.5C86.8,110.9,86.7,111.3,86.7,111.3z
	 M84.1,109.3c-0.2-1.2-1.2-2-2.4-1.9c-1.2-0.1-2.4,0.7-2.6,1.9H84.1z"/>
<path class="st0" d="M96.6,115.2c-0.9,0.5-2,0.7-3,0.6c-2.7,0-4-1.3-4-4v-4.2h-1.8v-2.1c1.6-0.1,2.4-1.1,2.5-3.1h2.2v2.8h3.5v2.4
	h-3.5v4c0,1.3,0.4,1.7,1.6,1.8c0.6,0,1.2-0.2,1.8-0.5L96.6,115.2z"/>
<path class="st0" d="M103.4,110.4c0-3,2.4-5.4,5.4-5.4c0.1,0,0.2,0,0.3,0c2.9-0.2,5.5,2,5.7,4.9c0,0.2,0,0.3,0,0.5
	c-0.1,3.1-2.8,5.6-5.9,5.4C105.9,115.8,103.5,113.4,103.4,110.4z M111.9,110.4c0.1-1.5-1-2.8-2.5-2.9c-0.1,0-0.2,0-0.3,0
	c-1.6,0-2.9,1.3-2.9,2.9c0,1.6,1.3,2.9,2.9,2.9C110.6,113.3,111.9,112,111.9,110.4z"/>
<path class="st0" d="M126.9,115.6h-2.2l-0.4-1.6c-0.8,1.2-2.1,1.9-3.6,1.9c-2.4,0-4-1.6-4-4.3v-6.3h2.8v5.8c0,1.5,0.7,2.3,2,2.3
	c1.3,0.1,2.5-0.9,2.6-2.3c0-0.1,0-0.2,0-0.3v-5.5h2.8L126.9,115.6z"/>
<path class="st0" d="M137.4,115.2c-0.9,0.5-2,0.7-3,0.6c-2.7,0-4-1.3-4-4v-4.2h-1.9v-2.1c1.6-0.1,2.4-1.1,2.5-3.1h2.2v2.8h3.5v2.4
	h-3.5v4c0,1.3,0.4,1.7,1.6,1.8c0.6,0,1.2-0.2,1.8-0.5L137.4,115.2z"/>
<path class="st0" d="M153.9,109.2v6.4h-2l-0.4-1.4c-0.8,1.1-2.2,1.7-3.6,1.6c-2.4,0-3.8-1.2-3.8-3.3s1.5-3.2,4-3.2c1,0,2,0.1,3,0.5
	v-0.4c0.1-1-0.7-1.9-1.8-2c-0.1,0-0.2,0-0.4,0c-1,0-2,0.3-2.8,0.8l-1.5-1.9c1.3-0.9,2.9-1.4,4.5-1.3
	C152.1,105,153.9,106.6,153.9,109.2z M151.2,111.8v-0.2c-0.7-0.3-1.4-0.4-2.2-0.4c-1.4,0-2.1,0.4-2.1,1.3s0.6,1.3,1.9,1.3
	C150,113.9,151,113.1,151.2,111.8C151.2,111.9,151.2,111.8,151.2,111.8z"/>
<path class="st0" d="M156.6,105.2h2.2l0.4,1.4c0.8-1.1,2.2-1.8,3.6-1.7c2.4,0,4,1.7,4,4.3v6.3H164v-5.8c0-1.5-0.8-2.3-2.1-2.3
	c-1.3-0.1-2.4,0.9-2.5,2.2c0,0.1,0,0.2,0,0.3v5.5h-2.8L156.6,105.2z"/>
<path class="st0" d="M179.8,100.2v15.4h-2.1l-0.4-1.5c-0.8,1.1-2.2,1.8-3.6,1.7c-2.9,0-5-2.2-5-5.4s2.1-5.4,5-5.4
	c1.2,0,2.4,0.4,3.2,1.3v-6.1L179.8,100.2z M177.1,110.4c0.1-1.5-1.1-2.8-2.6-2.9c-0.1,0-0.1,0-0.2,0c-1.6,0.1-2.8,1.5-2.7,3
	c0.1,1.5,1.2,2.6,2.7,2.7c1.5,0,2.8-1.2,2.8-2.7C177.1,110.6,177.1,110.5,177.1,110.4L177.1,110.4z"/>
<path class="st0" d="M198.1,111.3h-7.8c0.2,1.3,1.3,2.2,2.6,2.1c0.9,0.1,1.8-0.4,2.3-1.2l2.5,1.1c-1.7,2.6-5.1,3.3-7.6,1.6
	c-1.5-1-2.5-2.7-2.5-4.5c-0.1-2.9,2.2-5.3,5.1-5.4c0.1,0,0.3,0,0.4,0c3.1,0,5.1,2.2,5.1,5.5C198.1,110.9,198.1,111.3,198.1,111.3z
	 M195.4,109.3c-0.2-1.2-1.2-2-2.4-1.9c-1.2-0.1-2.4,0.7-2.6,1.9H195.4z"/>
<path class="st0" d="M200.2,105.2h2.2l0.4,1.4c0.8-1.1,2.2-1.8,3.6-1.7c2.4,0,4,1.7,4,4.3v6.3h-2.8v-5.8c0-1.5-0.7-2.3-2.1-2.3
	c-1.3-0.1-2.4,0.9-2.5,2.2c0,0.1,0,0.2,0,0.3v5.5h-2.8L200.2,105.2z"/>
<path class="st0" d="M211,120.3l0.2-2.4h0.2c1.1,0,1.6-0.5,1.6-1.7v-10.9h2.8v10.9c0,2.7-1.4,4.3-4,4.3
	C211.6,120.4,211.3,120.3,211,120.3z M212.8,101.9c0.1-0.9,0.9-1.6,1.8-1.6c0.8,0.1,1.5,0.7,1.6,1.6c0,0.9-0.7,1.6-1.6,1.7
	c0,0-0.1,0-0.1,0c-0.9,0-1.6-0.6-1.7-1.5C212.8,102,212.8,102,212.8,101.9z"/>
<path class="st0" d="M218,110.4c0-3,2.4-5.4,5.3-5.4c0.1,0,0.2,0,0.4,0c2.9-0.2,5.5,2,5.6,4.9c0,0.2,0,0.3,0,0.5
	c-0.1,3.1-2.8,5.6-5.9,5.4C220.5,115.7,218.1,113.4,218,110.4L218,110.4z M226.5,110.4c0.1-1.5-1-2.8-2.5-2.9c-0.1,0-0.2,0-0.3,0
	c-1.6,0-2.9,1.3-2.9,2.9s1.3,2.9,2.9,2.9S226.5,112,226.5,110.4z"/>
<path class="st0" d="M230,119.8l0.9-2.4c0.4,0.2,0.8,0.4,1.2,0.4c0.6,0,1.2-0.4,1.3-1l0.6-1.4l-4.5-10.1h3.2l2.6,6.7l0.2,1.1
	l0.2-1.1l2.6-6.7h3.1l-5.3,12.3c-0.9,2.1-1.9,2.9-3.8,2.9C231.5,120.4,230.7,120.2,230,119.8z"/>
<path class="st0" d="M76.6,136v6.4h-2l-0.4-1.4c-0.7,1.1-1.9,1.6-3.6,1.6c-2.4,0-3.8-1.2-3.8-3.3s1.5-3.2,4-3.2c1,0,2,0.1,3,0.5
	v-0.4c0.1-1-0.7-1.9-1.8-2c-0.1,0-0.2,0-0.4,0c-1,0-2,0.3-2.8,0.8l-1.5-1.9c1.3-0.9,2.9-1.4,4.5-1.3C74.8,131.8,76.6,133.4,76.6,136
	z M73.9,138.6v-0.2c-0.7-0.2-1.4-0.3-2.2-0.3c-1.4,0-2,0.4-2,1.3s0.6,1.3,1.9,1.3c1.2,0.1,2.2-0.8,2.3-2
	C73.9,138.7,73.9,138.6,73.9,138.6L73.9,138.6z"/>
<path class="st0" d="M79.3,132h2.2l0.4,1.4c0.8-1.1,2.2-1.8,3.6-1.7c2.4,0,4,1.6,4,4.3v6.3h-2.8v-5.8c0-1.5-0.8-2.3-2.1-2.3
	c-1.3-0.1-2.4,0.9-2.5,2.3c0,0.1,0,0.2,0,0.3v5.5h-2.8V132z"/>
<path class="st0" d="M107.5,138.1h-7.8c0.2,1.3,1.3,2.2,2.6,2.1c0.9,0.1,1.8-0.4,2.3-1.2l2.5,1.1c-1.7,2.6-5.1,3.3-7.6,1.6
	c-1.5-1-2.5-2.7-2.5-4.5c-0.1-2.9,2.2-5.3,5.1-5.4c0.1,0,0.3,0,0.4,0c3.1,0,5.1,2.2,5.1,5.5C107.6,137.7,107.5,138.1,107.5,138.1z
	 M104.9,136.1c-0.2-1.2-1.2-2-2.4-1.9c-1.2-0.1-2.4,0.7-2.7,1.9H104.9z"/>
<path class="st0" d="M118.6,136v6.4h-2l-0.4-1.4c-0.7,1.1-1.9,1.6-3.6,1.6c-2.4,0-3.8-1.2-3.8-3.3s1.5-3.2,4-3.2c1,0,2,0.1,3,0.5
	v-0.4c0.1-1-0.7-1.9-1.8-2c-0.1,0-0.2,0-0.4,0c-1,0-2,0.3-2.8,0.8l-1.5-1.9c1.3-0.9,2.9-1.4,4.5-1.3
	C116.8,131.8,118.6,133.4,118.6,136z M115.8,138.6v-0.2c-0.7-0.2-1.4-0.4-2.2-0.4c-1.4,0-2,0.4-2,1.3s0.6,1.3,1.9,1.3
	C114.7,140.7,115.7,139.8,115.8,138.6C115.8,138.6,115.8,138.6,115.8,138.6L115.8,138.6z"/>
<path class="st0" d="M121.3,132h2.1l0.4,1.9c0.6-1.4,2.1-2.2,3.6-2.1c0.2,0,0.4,0,0.6,0.1l-0.2,2.8h-0.4c-2.4,0-3.4,1-3.4,3.8v4
	h-2.8V132z"/>
<path class="st0" d="M129.6,127.1h2.8v15.4h-2.8V127.1z"/>
<path class="st0" d="M135.1,128.8c0.1-0.9,0.9-1.6,1.8-1.6c0.8,0.1,1.5,0.7,1.6,1.6c0,0.9-0.7,1.6-1.6,1.7c0,0-0.1,0-0.1,0
	c-0.9,0-1.6-0.6-1.7-1.5C135,128.9,135,128.8,135.1,128.8z M135.3,132h2.8v10.4h-2.8V132z"/>
<path class="st0" d="M150.9,138.1h-7.8c0.1,1.3,1.3,2.2,2.6,2.1c0.9,0.1,1.9-0.4,2.3-1.2l2.5,1.1c-1.7,2.6-5.1,3.3-7.6,1.7
	c-1.6-1-2.5-2.7-2.5-4.6c-0.1-2.9,2.2-5.3,5.1-5.4c0.1,0,0.3,0,0.4,0c3.1,0,5.1,2.2,5.1,5.5C150.9,137.7,150.9,138.1,150.9,138.1z
	 M148.2,136.1c-0.1-1.2-1.2-2-2.4-1.9c0,0,0,0,0,0c-1.2-0.1-2.4,0.7-2.6,1.9H148.2z"/>
<path class="st0" d="M153,132h2.1l0.4,1.9c0.6-1.4,2.1-2.2,3.6-2.1c0.2,0,0.4,0,0.6,0.1l-0.2,2.8h-0.4c-2.4,0-3.4,1-3.4,3.8v4H153
	V132z"/>
<path class="st0" d="M166.4,140l2.4-0.7c0.2,0.8,0.9,1.3,1.6,1.2c0.9,0,1.4-0.4,1.4-1s-0.5-1-1.4-1.2l-1-0.2
	c-1.9-0.4-2.9-1.5-2.9-3.1c0-1.9,1.5-3.2,4-3.2c3.3,0,3.9,2.2,3.9,2.2l-2.4,0.8c-0.2-0.6-0.8-1-1.5-0.9c-0.8,0-1.3,0.3-1.3,0.9
	s0.5,0.9,1.5,1.2l1.1,0.3c1.8,0.4,2.8,1.5,2.8,3.1c0,2-1.6,3.3-4.2,3.3C167,142.7,166.4,140,166.4,140z"/>
<path class="st0" d="M187.8,137.2c0,3.2-2.1,5.4-5,5.4c-1.2,0-2.4-0.5-3.2-1.3v5.6h-2.8V132h2.1l0.4,1.4c0.9-1.1,2.2-1.7,3.6-1.7
	C185.7,131.8,187.8,134,187.8,137.2z M184.9,137.2c0.1-1.5-1-2.8-2.5-2.9c-0.1,0-0.1,0-0.2,0c-1.6,0.1-2.8,1.5-2.7,3
	c0.1,1.5,1.2,2.6,2.7,2.7c1.5,0,2.7-1.2,2.7-2.7C184.9,137.4,184.9,137.3,184.9,137.2z"/>
<path class="st0" d="M189.9,132h2.1l0.4,1.9c0.6-1.4,2.1-2.2,3.6-2.1c0.2,0,0.4,0,0.6,0.1l-0.2,2.8h-0.4c-2.4,0-3.4,1-3.4,3.8v4
	h-2.8V132z"/>
<path class="st0" d="M198,128.8c0.1-0.9,0.9-1.6,1.8-1.6c0.8,0.1,1.5,0.7,1.6,1.6c0,0.9-0.7,1.6-1.6,1.7c0,0-0.1,0-0.1,0
	c-0.9,0-1.6-0.6-1.7-1.5C198,128.9,198,128.8,198,128.8z M198.3,132h2.8v10.4h-2.8V132z"/>
<path class="st0" d="M203.9,132h2.2l0.4,1.4c0.8-1.1,2.2-1.8,3.6-1.7c2.4,0,4,1.6,4,4.3v6.3h-2.8v-5.8c0-1.5-0.7-2.3-2.1-2.3
	c-1.3-0.1-2.4,0.9-2.5,2.3c0,0.1,0,0.2,0,0.3v5.5h-2.8L203.9,132z"/>
<path class="st0" d="M227.1,133.4l-1.8,0.4c0.4,0.6,0.5,1.3,0.5,2c0,2.3-1.9,4-4.5,4c-0.8,0-1.7-0.2-2.4-0.6
	c-0.6,0.1-0.9,0.4-0.9,0.8s0.5,0.9,1.4,0.9h3.5c2.2,0,3.5,1,3.5,2.8c0,2.1-2,3.5-5.6,3.5c-3,0-4.5-1-4.5-2.9c0-0.7,0.3-1.4,0.8-1.8
	c-0.9-0.4-1.5-1.3-1.5-2.3c0-1,0.6-2,1.7-2.3c-0.4-0.6-0.7-1.4-0.7-2.2c0-2.3,2-4,4.6-4h5.8L227.1,133.4z M222.3,142.9h-2.6
	c-0.4,0.2-0.7,0.6-0.7,1.1c0,0.8,0.6,1.2,2.1,1.2c1.9,0,2.7-0.4,2.7-1.3C223.7,143.2,223.3,142.9,222.3,142.9L222.3,142.9z
	 M223.3,135.8c0-1-0.8-1.8-1.9-1.8c0,0-0.1,0-0.1,0c-1-0.1-1.9,0.5-2.1,1.5c-0.1,1,0.5,1.9,1.5,2.1c0.2,0,0.4,0,0.5,0
	c1,0.1,1.9-0.7,2-1.7C223.3,135.9,223.3,135.9,223.3,135.8L223.3,135.8z"/>
<path class="st0" d="M228.6,140.9c0-0.9,0.7-1.7,1.6-1.7c0,0,0.1,0,0.1,0c0.9-0.1,1.7,0.7,1.8,1.6c0,0.1,0,0.1,0,0.2
	c0,0.9-0.7,1.7-1.7,1.7c0,0-0.1,0-0.1,0c-0.9,0-1.7-0.7-1.7-1.6C228.6,141,228.6,141,228.6,140.9z"/>
</svg>
