<svg id="Layer_1" data-name="Layer 1" xmlns="http://www.w3.org/2000/svg" viewBox="0 0 728 90"><defs><style>.cls-1{fill:#fff;}</style></defs><path class="cls-1" d="M417.42,23.37,420,34.08l2.51-10.71h5l-4.75,18.06H418l-2.66-10.66-2.67,10.66h-4.73l-4.75-18.06h5.13l2.54,10.71,2.52-10.71Z"/><path class="cls-1" d="M427.08,34.76A6.72,6.72,0,0,1,434,27.85c4.18,0,6.46,3,6.46,6.89v1.08h-8.72A2.4,2.4,0,0,0,434.1,38a2.21,2.21,0,0,0,2.29-1.51l3.92,1.19a6.47,6.47,0,0,1-6.29,4A6.6,6.6,0,0,1,427.08,34.76Zm4.73-1.58h4a1.82,1.82,0,0,0-1.89-1.79A2.13,2.13,0,0,0,431.81,33.18Z"/><path class="cls-1" d="M453,41.73a6.56,6.56,0,0,1-6.84-6.94,6.83,6.83,0,1,1,13.66,0A6.55,6.55,0,0,1,453,41.73Zm0-3.85c1.29,0,2.11-1,2.11-3.09s-.82-3.09-2.11-3.09-2.13,1.05-2.13,3.09S451.72,37.88,453,37.88Z"/><path class="cls-1" d="M461.38,28.15h4.78v1.23a4.92,4.92,0,0,1,3.62-1.53c2.69,0,4.45,1.88,4.45,4.8v8.78h-4.78V34c0-1.1-.47-1.91-1.53-1.91A1.75,1.75,0,0,0,466.16,34v7.42h-4.78Z"/><path class="cls-1" d="M481.17,41.43H476.4V23.37h4.77Z"/><path class="cls-1" d="M485.65,46a16,16,0,0,1-1.74-.07V42.26a6,6,0,0,0,1,.07,1.42,1.42,0,0,0,1.58-1l.23-.55L482.1,28.15H487l2.32,7.29,2.26-7.29h4.68L491.48,41C490.33,44.17,489,46,485.65,46Z"/><path class="cls-1" d="M502.17,23.37H507v6a4.92,4.92,0,0,1,3.62-1.53c2.69,0,4.45,1.88,4.45,4.8v8.78h-4.78V34c0-1.1-.47-1.91-1.53-1.91A1.75,1.75,0,0,0,507,34v7.42h-4.78Z"/><path class="cls-1" d="M523.3,41.73a6.56,6.56,0,0,1-6.84-6.94,6.83,6.83,0,1,1,13.65,0A6.54,6.54,0,0,1,523.3,41.73Zm0-3.85c1.28,0,2.11-1,2.11-3.09s-.83-3.09-2.11-3.09-2.14,1.05-2.14,3.09S522,37.88,523.3,37.88Z"/><path class="cls-1" d="M536.42,40.17v5.61h-4.78V28.15h4.78v1.23a4.29,4.29,0,0,1,3.45-1.53c3.59,0,5.63,3.12,5.63,6.94s-2,6.94-5.63,6.94A4.28,4.28,0,0,1,536.42,40.17Zm0-5.05c0,1.66.86,2.59,2.11,2.59,1.41,0,2.17-1.26,2.17-2.92s-.76-2.92-2.17-2.92c-1.25,0-2.11.93-2.11,2.62Z"/><path class="cls-1" d="M546.38,34.76a6.72,6.72,0,0,1,6.89-6.91c4.18,0,6.46,3,6.46,6.89v1.08H551A2.38,2.38,0,0,0,553.4,38a2.19,2.19,0,0,0,2.28-1.51l3.93,1.19a6.47,6.47,0,0,1-6.29,4A6.6,6.6,0,0,1,546.38,34.76Zm4.73-1.58h4a1.82,1.82,0,0,0-1.89-1.79A2.12,2.12,0,0,0,551.11,33.18Z"/><path class="cls-1" d="M406.64,72.76a16,16,0,0,1-1.74-.07V69a5.91,5.91,0,0,0,1,.08,1.42,1.42,0,0,0,1.58-1l.23-.55-4.63-12.65H408l2.31,7.29,2.27-7.29h4.67l-4.75,12.87C411.31,70.93,410,72.76,406.64,72.76Z"/><path class="cls-1" d="M423.81,68.49A6.56,6.56,0,0,1,417,61.55a6.83,6.83,0,1,1,13.66,0A6.55,6.55,0,0,1,423.81,68.49Zm0-3.85c1.28,0,2.11-1,2.11-3.09s-.83-3.1-2.11-3.1-2.14,1.06-2.14,3.1S422.5,64.64,423.81,64.64Z"/><path class="cls-1" d="M444.91,68.18h-4.78V67a4.73,4.73,0,0,1-3.54,1.54c-2.67,0-4.53-1.89-4.53-4.81V54.91h4.78v7.62c0,1.08.48,1.83,1.56,1.83a1.71,1.71,0,0,0,1.73-1.91V54.91h4.78Z"/><path class="cls-1" d="M458.19,64.61c1.11,0,1.73-.85,1.94-2l4.17,1.41c-.45,2.26-2.64,4.43-6.16,4.43a6.58,6.58,0,0,1-6.82-6.94,6.57,6.57,0,0,1,6.82-6.94c3.52,0,5.68,2.13,6.13,4.37l-4.14,1.43c-.21-1.1-.83-1.93-1.94-1.93-1.38,0-2.16,1.15-2.16,3.07S456.81,64.61,458.19,64.61Z"/><path class="cls-1" d="M465,64.49c0-2.94,2.64-4,5.61-4.35l2.47-.33v-.2c0-.81-.43-1.31-1.51-1.31a1.47,1.47,0,0,0-1.64,1.33l-4.6-.52c.5-2.44,2.72-4.5,6.44-4.5s6,1.63,6,4.75v4.7c0,.58.23.81,1,.7v3.4c-2.42.5-4.3.1-5.18-1.08a5.34,5.34,0,0,1-3.87,1.36C466.84,68.44,465,66.8,465,64.49ZM473,62.65l-1.94.28c-.88.12-1.51.4-1.51,1.16s.5,1,1.31,1c1.13,0,2.14-.58,2.14-1.73Z"/><path class="cls-1" d="M480.17,54.91H485v1.23a4.9,4.9,0,0,1,3.62-1.53c2.69,0,4.45,1.88,4.45,4.8v8.77h-4.78V60.74c0-1.11-.48-1.91-1.53-1.91A1.75,1.75,0,0,0,485,60.77v7.41h-4.78Z"/><path class="cls-1" d="M504.84,59l3.57-4.12h5.5l-4.55,4.83,4.88,8.44h-5.38L506,63.31l-1.18,1.23v3.64h-4.78V50.13h4.78Z"/><path class="cls-1" d="M513.81,61.52a6.73,6.73,0,0,1,6.9-6.91c4.17,0,6.46,3,6.46,6.89v1.08h-8.73a2.4,2.4,0,0,0,2.39,2.21,2.2,2.2,0,0,0,2.29-1.51L527,64.46a6.46,6.46,0,0,1-6.28,4A6.6,6.6,0,0,1,513.81,61.52Zm4.73-1.58h4a1.82,1.82,0,0,0-1.89-1.79A2.13,2.13,0,0,0,518.54,59.94Z"/><path class="cls-1" d="M528,61.52a6.72,6.72,0,0,1,6.89-6.91c4.18,0,6.47,3,6.47,6.89v1.08h-8.73A2.4,2.4,0,0,0,535,64.79a2.21,2.21,0,0,0,2.29-1.51l3.92,1.18a6.48,6.48,0,0,1-6.29,4A6.6,6.6,0,0,1,528,61.52Zm4.73-1.58h4a1.82,1.82,0,0,0-1.89-1.79A2.13,2.13,0,0,0,532.75,59.94Z"/><path class="cls-1" d="M547.71,66.93v5.61h-4.78V54.91h4.78v1.23a4.26,4.26,0,0,1,3.45-1.53c3.59,0,5.63,3.11,5.63,6.94s-2,6.94-5.63,6.94A4.31,4.31,0,0,1,547.71,66.93Zm0-5.06c0,1.66.86,2.59,2.11,2.59,1.41,0,2.17-1.25,2.17-2.91s-.76-2.92-2.17-2.92c-1.25,0-2.11.93-2.11,2.61Z"/><path class="cls-1" d="M576.05,68.18h-4.77V67a4.77,4.77,0,0,1-3.55,1.54c-2.67,0-4.53-1.89-4.53-4.81V54.91H568v7.62c0,1.08.48,1.83,1.56,1.83a1.71,1.71,0,0,0,1.74-1.91V54.91h4.77Z"/><path class="cls-1" d="M583,66.93v5.61h-4.77V54.91H583v1.23a4.26,4.26,0,0,1,3.45-1.53c3.6,0,5.63,3.11,5.63,6.94s-2,6.94-5.63,6.94A4.31,4.31,0,0,1,583,66.93Zm0-5.06c0,1.66.86,2.59,2.12,2.59s2.16-1.25,2.16-2.91-.75-2.92-2.16-2.92-2.12.93-2.12,2.61Z"/><path class="cls-1" d="M593.33,63.05h5.36v5.13h-5.36Z"/></svg>