<svg id="Layer_1" data-name="Layer 1" xmlns="http://www.w3.org/2000/svg" xmlns:xlink="http://www.w3.org/1999/xlink" viewBox="0 0 300 250"><defs><style>.cls-1{fill:none;}.cls-2{clip-path:url(#clip-path);}.cls-3{fill:#fff;}</style><clipPath id="clip-path"><rect class="cls-1" width="300" height="250"/></clipPath></defs><g class="cls-2"><g class="cls-2"><path class="cls-3" d="M49.29,50.58c-.46,0-.87-.08-1.37-.08-1.45,0-2.06.38-2.06,1.71v.39h3.39v5.86H45.86V72.71H38.63V58.46H36.19V52.6h2.44v-.73c0-4.38,2.25-6.82,8.15-6.82a17.23,17.23,0,0,1,2.51.2Z"/><path class="cls-3" d="M60.34,73.16C54.2,73.16,50,68.9,50,62.65S54.2,52.14,60.34,52.14,70.66,56.4,70.66,62.65,66.47,73.16,60.34,73.16Zm0-5.83c1.94,0,3.2-1.56,3.2-4.68S62.28,58,60.34,58s-3.24,1.6-3.24,4.68S58.36,67.33,60.34,67.33Z"/><path class="cls-3" d="M86.38,59.38a9.9,9.9,0,0,0-1.82-.16c-2.48,0-4.46,1.41-4.46,4.12v9.37H72.86V52.6H80.1V55a5.87,5.87,0,0,1,5-2.48,12,12,0,0,1,1.33.08Z"/><path class="cls-3" d="M103.33,72.71H96.09V52.6h7.24v1.86a7.24,7.24,0,0,1,5.45-2.32,6.59,6.59,0,0,1,5.67,2.7,8.36,8.36,0,0,1,6.25-2.7c4.07,0,6.78,2.86,6.78,7.27v13.3h-7.24V61.43c0-1.67-.69-2.89-2.28-2.89-1.34,0-2.56,1-2.56,2.93V72.71h-7.23V61.43c0-1.67-.69-2.89-2.29-2.89-1.33,0-2.55,1-2.55,2.93Z"/><path class="cls-3" d="M129.57,62.61A10.17,10.17,0,0,1,140,52.14c6.33,0,9.79,4.53,9.79,10.43v1.64H136.58c.42,2.17,1.75,3.35,3.61,3.35a3.33,3.33,0,0,0,3.47-2.28l5.94,1.79c-1.48,4.07-5.52,6.09-9.52,6.09C133.76,73.16,129.57,68.86,129.57,62.61Zm7.16-2.4h6.05a2.74,2.74,0,0,0-2.85-2.7A3.2,3.2,0,0,0,136.73,60.21Z"/><path class="cls-3" d="M38.59,96.46H36.15V90.6h2.44V85.26h7.12V90.6h3.73v5.86H45.71v6.44c0,1.6.76,1.94,2.21,1.94a12.91,12.91,0,0,0,1.64-.11v5.86a23.73,23.73,0,0,1-4,.31c-4.72,0-7-1.68-7-5.83Z"/><path class="cls-3" d="M61.1,111.16c-6.13,0-10.36-4.26-10.36-10.51S55,90.14,61.1,90.14s10.32,4.26,10.32,10.51S67.23,111.16,61.1,111.16Zm0-5.83c1.94,0,3.2-1.56,3.2-4.68S63,96,61.1,96s-3.24,1.6-3.24,4.68S59.12,105.33,61.1,105.33Z"/><path class="cls-3" d="M83,111.16c-6.13,0-10.36-4.26-10.36-10.51S76.83,90.14,83,90.14s10.32,4.26,10.32,10.51S89.09,111.16,83,111.16Zm0-5.83c1.94,0,3.2-1.56,3.2-4.68S84.9,96,83,96s-3.24,1.6-3.24,4.68S81,105.33,83,105.33Z"/></g></g></svg>