<?xml version="1.0" encoding="utf-8"?>
<!-- Generator: Adobe Illustrator 22.1.0, SVG Export Plug-In . SVG Version: 6.00 Build 0)  -->
<svg version="1.1" id="Layer_1" xmlns="http://www.w3.org/2000/svg" xmlns:xlink="http://www.w3.org/1999/xlink" x="0px" y="0px"
	 viewBox="0 0 728 90" style="enable-background:new 0 0 728 90;" xml:space="preserve">
<style type="text/css">
	.st0{fill:#594F77;}
	.st1{fill:#FFFFFF;}
</style>
<g>
	<polygon class="st0" points="167.6,7.4 167.6,82.6 263.3,82.6 263.3,7.4 167.6,7.4 	"/>
	<g>
		<path class="st1" d="M223.5,21.8h-16.1c-0.8,0-1.5,0.7-1.5,1.5v0v5.5v15.6c0,0.8,0.7,1.5,1.5,1.5h16.1c0.8,0,1.5-0.7,1.5-1.5V28.8
			v-5.5v0C225,22.5,224.4,21.8,223.5,21.8L223.5,21.8z M206.9,23.3c0-0.3,0.2-0.5,0.5-0.5h16.1c0.3,0,0.5,0.2,0.5,0.5v5.5
			c0,0.3-0.2,0.5-0.5,0.5h-16.1c-0.3,0-0.5-0.2-0.5-0.5V23.3L206.9,23.3z M223.5,44.9h-16.1c-0.3,0-0.5-0.2-0.5-0.5V30.3
			c0.2,0.1,0.3,0.1,0.5,0.1h16.1c0.2,0,0.3,0,0.5-0.1v14.2C224,44.7,223.8,44.9,223.5,44.9L223.5,44.9z"/>
		<path class="st1" d="M209.5,28.3h12.1c0.6,0,1-0.5,1-1v-2.5c0-0.6-0.5-1-1-1h-12.1c-0.6,0-1,0.5-1,1v2.5
			C208.5,27.9,208.9,28.3,209.5,28.3L209.5,28.3z M209.5,24.8h12.1v2.5h-12.1V24.8L209.5,24.8z"/>
		<path class="st1" d="M211.5,31.4h-2c-0.6,0-1,0.5-1,1v1.5c0,0.6,0.5,1,1,1h2c0.6,0,1-0.5,1-1v-1.5C212.5,31.8,212,31.4,211.5,31.4
			L211.5,31.4z M209.5,33.9v-1.5h2l0,1.5H209.5L209.5,33.9z"/>
		<path class="st1" d="M216.5,31.4h-2c-0.6,0-1,0.5-1,1v1.5c0,0.6,0.5,1,1,1h2c0.6,0,1-0.5,1-1v-1.5
			C217.5,31.8,217.1,31.4,216.5,31.4L216.5,31.4z M214.5,33.9v-1.5h2l0,1.5H214.5L214.5,33.9z"/>
		<path class="st1" d="M221.5,31.4h-2c-0.6,0-1,0.5-1,1v1.5c0,0.6,0.5,1,1,1h2c0.6,0,1-0.5,1-1v-1.5
			C222.5,31.8,222.1,31.4,221.5,31.4L221.5,31.4z M219.5,33.9v-1.5h2v1.5H219.5L219.5,33.9z"/>
		<path class="st1" d="M211.5,35.9h-2c-0.6,0-1,0.5-1,1v1.5c0,0.6,0.5,1,1,1h2c0.6,0,1-0.5,1-1v-1.5C212.5,36.3,212,35.9,211.5,35.9
			L211.5,35.9z M209.5,38.4v-1.5h2l0,1.5H209.5L209.5,38.4z"/>
		<path class="st1" d="M216.5,35.9h-2c-0.6,0-1,0.5-1,1v1.5c0,0.6,0.5,1,1,1h2c0.6,0,1-0.5,1-1v-1.5
			C217.5,36.3,217.1,35.9,216.5,35.9L216.5,35.9z M214.5,38.4v-1.5h2l0,1.5H214.5L214.5,38.4z"/>
		<path class="st1" d="M221.5,35.9h-2c-0.6,0-1,0.5-1,1v1.5c0,0.6,0.5,1,1,1h2c0.6,0,1-0.5,1-1v-1.5
			C222.5,36.3,222.1,35.9,221.5,35.9L221.5,35.9z M219.5,38.4v-1.5h2v1.5H219.5L219.5,38.4z"/>
		<path class="st1" d="M216.5,40.4h-2c-0.6,0-1,0.5-1,1v1.5c0,0.6,0.5,1,1,1h2c0.6,0,1-0.5,1-1v-1.5
			C217.5,40.9,217.1,40.4,216.5,40.4L216.5,40.4z M214.5,42.9v-1.5h2l0,1.5H214.5L214.5,42.9z"/>
		<path class="st1" d="M211.5,40.4h-2c-0.6,0-1,0.5-1,1v1.5c0,0.6,0.5,1,1,1h2c0.6,0,1-0.5,1-1v-1.5C212.5,40.9,212,40.4,211.5,40.4
			L211.5,40.4z M209.5,42.9v-1.5h2l0,1.5H209.5L209.5,42.9z"/>
		<path class="st1" d="M221.5,40.4h-2c-0.6,0-1,0.5-1,1v1.5c0,0.6,0.5,1,1,1h2c0.6,0,1-0.5,1-1v-1.5
			C222.5,40.9,222.1,40.4,221.5,40.4L221.5,40.4z M219.5,42.9v-1.5h2v1.5H219.5L219.5,42.9z"/>
	</g>
	<g>
		<g>
			<path class="st1" d="M186.8,60.3h2.3c1.1,0,2,0.1,2.6,0.8c0.4,0.5,0.5,1,0.5,1.4c0,0.9-0.4,1.6-1,2c-0.6,0.4-1.3,0.4-1.7,0.4
				h-1.1v2.9h-1.6V60.3z M188.4,63.7h0.6c0.5,0,1.5,0,1.5-1.2c0-1-0.9-1-1.3-1h-0.8V63.7z"/>
			<path class="st1" d="M196,67.8c-0.1-0.3-0.1-0.6-0.1-0.7c-0.6,0.8-1.3,0.8-1.6,0.8c-0.8,0-1.1-0.2-1.3-0.4
				c-0.3-0.3-0.5-0.7-0.5-1.2c0-0.4,0.1-1.2,1.1-1.6c0.6-0.3,1.6-0.3,2.1-0.3c0-0.3,0-0.5-0.1-0.7c-0.1-0.4-0.5-0.4-0.7-0.4
				c-0.2,0-0.5,0.1-0.6,0.3c-0.1,0.2-0.1,0.3-0.1,0.5h-1.5c0-0.3,0-0.8,0.6-1.2c0.5-0.3,1.1-0.4,1.6-0.4c0.4,0,1.4,0.1,1.9,0.7
				c0.4,0.4,0.4,1.1,0.4,1.3l0,2.1c0,0.5,0,0.9,0.1,1.3H196z M194.1,66.2c0,0.4,0.2,0.8,0.8,0.8c0.3,0,0.5-0.1,0.7-0.3
				c0.3-0.3,0.3-0.7,0.3-1.3C194.8,65.3,194.1,65.6,194.1,66.2z"/>
		</g>
		<g>
			<path class="st1" d="M199.6,62.6l1.2,3.7l1.2-3.7h1.5l-2,5.2l-0.6,2.1h-1.6l0.7-2l-2-5.3H199.6z"/>
			<path class="st1" d="M207.1,60.3h1.5v7.6h-1.5V60.3z"/>
			<path class="st1" d="M211.3,65.6c0,0.3,0,1.4,1.1,1.4c0.4,0,0.8-0.1,0.9-0.7h1.4c0,0.3-0.1,0.7-0.5,1.2c-0.4,0.4-1.1,0.6-1.9,0.6
				c-0.5,0-1.3-0.1-1.9-0.7c-0.5-0.5-0.7-1.2-0.7-2.1c0-0.9,0.2-1.9,1.1-2.5c0.4-0.3,0.9-0.4,1.5-0.4c0.8,0,1.7,0.3,2.1,1.3
				c0.4,0.7,0.3,1.5,0.3,1.9H211.3z M213.3,64.6c0-0.2,0-1.2-0.9-1.2c-0.7,0-1,0.6-1,1.2H213.3z"/>
			<path class="st1" d="M217,66.3c0,0.3,0.2,0.7,0.9,0.7c0.6,0,0.8-0.3,0.8-0.6c0-0.2-0.1-0.4-0.7-0.6l-1-0.3
				c-0.4-0.1-1.3-0.4-1.3-1.5c0-1,0.9-1.7,2.3-1.7c1.1,0,2,0.5,2,1.6h-1.4c0-0.6-0.5-0.6-0.8-0.6c-0.4,0-0.7,0.2-0.7,0.5
				c0,0.4,0.3,0.4,0.7,0.6l1,0.3c1,0.3,1.4,0.8,1.4,1.5c0,0.9-0.8,1.8-2.4,1.8c-0.7,0-1.3-0.1-1.8-0.6c-0.3-0.4-0.4-0.8-0.4-1H217z"
				/>
			<path class="st1" d="M222.2,66.3c0,0.3,0.2,0.7,0.9,0.7c0.6,0,0.8-0.3,0.8-0.6c0-0.2-0.1-0.4-0.7-0.6l-1-0.3
				c-0.4-0.1-1.3-0.4-1.3-1.5c0-1,0.9-1.7,2.3-1.7c1.1,0,2,0.5,2,1.6h-1.4c0-0.6-0.5-0.6-0.8-0.6c-0.4,0-0.7,0.2-0.7,0.5
				c0,0.4,0.3,0.4,0.7,0.6l1,0.3c1,0.3,1.4,0.8,1.4,1.5c0,0.9-0.8,1.8-2.4,1.8c-0.7,0-1.3-0.1-1.8-0.6c-0.3-0.4-0.4-0.8-0.4-1H222.2
				z"/>
			<path class="st1" d="M232.4,67.8c-0.5,0.1-1,0.2-1.2,0.2c-1.6,0-1.6-1-1.6-1.4v-2.9h-1v-1h1v-1l1.5-0.6v1.6h1.3v1h-1.3V66
				c0,0.5,0,0.8,0.7,0.8c0.2,0,0.3,0,0.5,0V67.8z"/>
			<path class="st1" d="M236.5,67.8c-0.1-0.3-0.1-0.6-0.1-0.7c-0.6,0.8-1.3,0.8-1.6,0.8c-0.8,0-1.1-0.2-1.3-0.4
				c-0.3-0.3-0.5-0.7-0.5-1.2c0-0.4,0.1-1.2,1.1-1.6c0.6-0.3,1.6-0.3,2.1-0.3c0-0.3,0-0.5-0.1-0.7c-0.1-0.4-0.5-0.4-0.7-0.4
				c-0.2,0-0.5,0.1-0.6,0.3c-0.1,0.2-0.1,0.3-0.1,0.5h-1.5c0-0.3,0-0.8,0.6-1.2c0.5-0.3,1.1-0.4,1.6-0.4c0.4,0,1.4,0.1,1.9,0.7
				c0.4,0.4,0.4,1.1,0.4,1.3l0,2.1c0,0.5,0,0.9,0.1,1.3H236.5z M234.6,66.2c0,0.4,0.2,0.8,0.8,0.8c0.3,0,0.5-0.1,0.7-0.3
				c0.3-0.3,0.3-0.7,0.3-1.3C235.3,65.3,234.6,65.6,234.6,66.2z"/>
			<path class="st1" d="M240.4,62.6l1,1.7l1-1.7h1.6l-1.7,2.6l1.8,2.7h-1.8l-1.1-1.9l-1.1,1.9h-1.6l1.8-2.8l-1.7-2.4H240.4z"/>
		</g>
	</g>
</g>
</svg>
