<?xml version="1.0" encoding="utf-8"?>
<!-- Generator: Adobe Illustrator 22.1.0, SVG Export Plug-In . SVG Version: 6.00 Build 0)  -->
<svg version="1.1" id="Layer_1" xmlns="http://www.w3.org/2000/svg" xmlns:xlink="http://www.w3.org/1999/xlink" x="0px" y="0px"
	 viewBox="0 0 728 90" style="enable-background:new 0 0 728 90;" xml:space="preserve">
<style type="text/css">
	.st0{fill:#FFFFFF;}
</style>
<path class="st0" d="M128.1,30.7c0.1-0.1,0.2-0.1,0.3,0c2.2,1,3.4,3.3,3.4,5.7c0,0.2-0.1,0.4-0.3,0.4h-10.8c-0.2,0-0.3-0.1-0.3-0.3
	c0-2.4,1.2-4.7,3.4-5.7c0.1,0,0.3,0,0.3,0C125.3,31.6,126.9,31.6,128.1,30.7L128.1,30.7z M126.1,23.1c1.9,0,3.3,1.7,3.3,3.6
	c0,1.9-1.4,3.6-3.3,3.6c-2,0-3.4-1.7-3.4-3.6C122.8,24.8,124.2,23.1,126.1,23.1L126.1,23.1z"/>
</svg>
