<?xml version="1.0" encoding="utf-8"?>
<!-- Generator: Adobe Illustrator 22.1.0, SVG Export Plug-In . SVG Version: 6.00 Build 0)  -->
<svg version="1.1" id="Layer_1" xmlns="http://www.w3.org/2000/svg" xmlns:xlink="http://www.w3.org/1999/xlink" x="0px" y="0px"
	 viewBox="0 0 728 90" style="enable-background:new 0 0 728 90;" xml:space="preserve">
<style type="text/css">
	.st0{fill:#FFFFFF;}
	.st1{fill:#B78CAE;}
</style>
<g>
	<g>
		<path class="st0" d="M186.3,27.7h6.6c3.1,0,5.7,0.2,7.5,2.3c1.1,1.4,1.3,2.9,1.3,4c0,2.5-1,4.6-2.7,5.7c-1.6,1-3.7,1-4.9,1h-3.1
			v8.3h-4.7V27.7z M190.8,37.4h1.8c1.5,0,4.2,0,4.2-3.3c0-2.9-2.5-2.9-3.8-2.9h-2.3V37.4z"/>
		<path class="st0" d="M203.7,27.7h4.4v21.5h-4.4V27.7z"/>
		<path class="st0" d="M215.6,34.1v8.9c0,1.3,0,3.3,2.3,3.3c2.8,0,2.8-2.1,2.8-4.7v-7.6h4.5V44c0.1,3.2,0.1,3.6,0.1,4
			c0,0.4,0.1,0.7,0.1,1.1h-4.3l-0.1-2c-0.4,0.7-1.6,2.4-4.4,2.4c-2,0-3.7-0.9-4.5-2c-1-1.2-1-3.3-1-4v-9.3H215.6z"/>
		<path class="st0" d="M231.8,44.8c0.1,0.9,0.7,2,2.5,2c1.6,0,2.3-0.9,2.3-1.8c0-0.7-0.4-1.2-2.1-1.7l-2.7-0.7
			c-1.2-0.4-3.8-1.1-3.8-4.2c0-2.9,2.7-4.7,6.6-4.7c3.1,0,5.6,1.4,5.7,4.4h-4c-0.1-1.7-1.5-1.8-2.1-1.8c-1.2,0-2.1,0.6-2.1,1.5
			c0,1,0.7,1.2,2,1.6l2.7,0.7c2.7,0.7,4,2.1,4,4.2c0,2.6-2.2,5.2-6.9,5.2c-1.9,0-3.8-0.4-5.1-1.8c-1-1-1.1-2.2-1.1-2.9H231.8z"/>
		<path class="st0" d="M253.5,44.8c0.1,0.9,0.7,2,2.5,2c1.6,0,2.3-0.9,2.3-1.8c0-0.7-0.4-1.2-2.1-1.7l-2.7-0.7
			c-1.2-0.4-3.8-1.1-3.8-4.2c0-2.9,2.7-4.7,6.6-4.7c3.1,0,5.6,1.4,5.7,4.4h-4c-0.1-1.7-1.5-1.8-2.1-1.8c-1.2,0-2.1,0.6-2.1,1.5
			c0,1,0.7,1.2,2,1.6l2.7,0.7c2.7,0.7,4,2.1,4,4.2c0,2.6-2.2,5.2-6.9,5.2c-1.9,0-3.8-0.4-5.1-1.8c-1-1-1.1-2.2-1.1-2.9H253.5z"/>
		<path class="st0" d="M271.7,33.8c5.4,0,7.8,3.7,7.8,7.9c0,4.2-2.4,8-7.9,8c-4.3,0-7.7-2.6-7.7-7.9C264,38.1,265.8,33.8,271.7,33.8
			z M271.8,46.6c1.9,0,3.2-1.2,3.2-5.1c0-2-0.4-4.7-3.3-4.7c-3.2,0-3.2,3.7-3.2,5.1C268.5,45.1,269.6,46.6,271.8,46.6z"/>
	</g>
	<g>
		<g>
			<path class="st1" d="M287.4,36.9c0-0.9-0.1-1.9-0.1-2.8h4.2l0.1,1.9c0.5-0.7,1.6-2.3,4.6-2.3c3.4,0,4.4,2.1,4.7,2.8
				c1.2-2.4,3.3-2.8,4.8-2.8c3,0,4.2,1.8,4.6,2.4c0.8,1.3,0.7,3.1,0.7,4.4v8.5h-4.4v-8.8c0-1.6-0.2-3.4-2.5-3.4
				c-2.6,0-2.7,2.5-2.7,4.7v7.5H297v-8.9c0-1.2,0-3.3-2.5-3.3c-2.8,0-2.8,2.4-2.8,3.4v8.8h-4.4V36.9z"/>
			<path class="st1" d="M318.8,34.1V43c0,1.3,0,3.3,2.3,3.3c2.8,0,2.8-2.1,2.8-4.7v-7.6h4.5V44c0.1,3.2,0.1,3.6,0.1,4
				c0,0.4,0.1,0.7,0.1,1.1h-4.3l-0.1-2c-0.4,0.7-1.6,2.4-4.4,2.4c-2,0-3.7-0.9-4.5-2c-1-1.2-1-3.3-1-4v-9.3H318.8z"/>
		</g>
		<g>
			<path class="st1" d="M339.9,39.4c-0.1-0.5-0.2-2.8-1.9-2.8c-2.1,0-2.3,3.1-2.3,4.8c0,0.8,0.1,3.5,1.1,4.6
				c0.4,0.4,0.9,0.5,1.2,0.5c0.5,0,1.8-0.2,2-2.9h4.3c-0.1,1.2-0.2,3-1.9,4.4c-1.1,0.9-2.4,1.4-4.3,1.4c-2,0-3.7-0.4-5.1-2
				c-1.3-1.5-1.9-3.5-1.9-5.9c0-6.8,5-7.8,7-7.8c2.8,0,6.1,1.5,6.1,5.6H339.9z"/>
			<path class="st1" d="M346.6,27.7h4.4v8.5c0.5-0.7,1.6-2.3,4.3-2.3c2.2,0,3.7,1.1,4.4,2c0.5,0.7,1,2.1,1,4.1v9.1h-4.4v-9
				c0-0.9,0-3.3-2.5-3.3c-1.2,0-2.8,0.7-2.8,3.1l0,9.2h-4.4V27.7z"/>
		</g>
		<g>
			<path class="st1" d="M371.8,36.9c0-0.9-0.1-1.9-0.1-2.8h4.2l0.1,1.9c0.5-0.7,1.6-2.3,4.6-2.3c3.4,0,4.4,2.1,4.7,2.8
				c1.2-2.4,3.3-2.8,4.8-2.8c3,0,4.2,1.8,4.6,2.4c0.8,1.3,0.7,3.1,0.7,4.4v8.5h-4.4v-8.8c0-1.6-0.2-3.4-2.5-3.4
				c-2.6,0-2.7,2.5-2.7,4.7v7.5h-4.4v-8.9c0-1.2,0-3.3-2.5-3.3c-2.8,0-2.8,2.4-2.8,3.4v8.8h-4.4V36.9z"/>
			<path class="st1" d="M406.1,33.7c5.4,0,7.8,3.7,7.8,7.9c0,4.2-2.4,8-7.9,8c-4.3,0-7.7-2.6-7.7-7.9
				C398.4,38.1,400.2,33.7,406.1,33.7z M406.2,46.6c1.9,0,3.2-1.2,3.2-5.1c0-2-0.4-4.7-3.3-4.7c-3.2,0-3.2,3.7-3.2,5.1
				C402.9,45.1,404,46.6,406.2,46.6z"/>
			<path class="st1" d="M416.5,37.8c0-0.7-0.1-2.9-0.2-3.7h4.1l0.1,2.9c0.6-1.3,1.5-3.1,5.1-2.9V38c-4.5-0.4-4.7,1.9-4.7,3.7v7.4
				h-4.4V37.8z"/>
			<path class="st1" d="M430.8,42.7c0,1,0,4,3.1,4c1.1,0,2.2-0.4,2.6-2.1h4c-0.1,0.7-0.2,2-1.4,3.3c-1.1,1.2-3.1,1.8-5.3,1.8
				c-1.3,0-3.7-0.2-5.3-1.9c-1.4-1.4-1.9-3.4-1.9-5.8c0-2.4,0.6-5.3,3.1-7.1c1.2-0.8,2.6-1.2,4.2-1.2c2.1,0,4.7,0.8,6.1,3.6
				c1,2,1,4.2,0.9,5.5H430.8z M436.4,39.9c0-0.7-0.1-3.4-2.6-3.4c-1.9,0-2.7,1.6-2.8,3.4H436.4z"/>
		</g>
	</g>
</g>
</svg>
