<?xml version="1.0" encoding="utf-8"?>
<!-- Generator: Adobe Illustrator 22.1.0, SVG Export Plug-In . SVG Version: 6.00 Build 0)  -->
<svg version="1.1" id="Layer_1" xmlns="http://www.w3.org/2000/svg" xmlns:xlink="http://www.w3.org/1999/xlink" x="0px" y="0px"
	 viewBox="0 0 728 90" style="enable-background:new 0 0 728 90;" xml:space="preserve">
<style type="text/css">
	.st0{fill:#B68CAE;}
	.st1{fill:#382E5F;}
	.st2{font-family:'FreightDispProBlack-Regular';}
	.st3{font-size:24.7746px;}
	.st4{fill:#B78CAE;}
	.st5{fill:#594F77;}
</style>
<g>
	<polygon class="st0" points="279,12.4 278.5,12.4 278.5,64.8 415.8,64.8 415.8,11.9 278.5,11.9 278.5,12.4 279,12.4 279,12.9 
		414.8,12.9 414.8,63.9 279.5,63.9 279.5,12.4 279,12.4 279,12.9 279,12.4 	"/>
	<text transform="matrix(1 0 0 1 141.3019 28.7969)" class="st1 st2 st3"> </text>
	<text transform="matrix(1 0 0 1 123.7003 51.8047)" class="st1 st2 st3"> </text>
	<g>
		<g>
			<g>
				<path class="st1" d="M31.9,28.4l0.9-0.1c0.7-0.1,1.1-0.3,1.1-0.4V14.2c0-0.1-0.1-0.2-0.2-0.2c-0.1,0-0.5-0.1-1.1-0.2l-0.6-0.1
					l-0.1-0.5H39c2.4,0,4.2,0.3,5.3,0.8c1.1,0.6,1.6,1.5,1.6,2.7c0,0.9-0.4,1.6-1.2,2.2c-0.8,0.6-1.9,1-3.2,1.2v0.1
					c1.5,0.1,2.8,0.6,3.7,1.3s1.4,1.6,1.4,2.8c0,3-2.4,4.4-7.2,4.4h-7.6L31.9,28.4z M38.2,20.3c1,0,1.9-0.2,2.6-0.8
					c0.7-0.6,1-1.4,1-2.5c0-1-0.3-1.8-1-2.4c-0.7-0.6-1.5-0.8-2.5-0.8l-0.4,0v6.4H38.2z M39.1,28.3c0.9-0.1,1.7-0.5,2.3-1.2
					s0.9-1.6,0.9-2.6c0-1.1-0.4-2-1.2-2.7c-0.8-0.7-1.7-1-2.8-1c-0.3,0-0.5,0-0.5,0V28l1.1,0.3L39.1,28.3z"/>
				<path class="st1" d="M55.4,27L55.4,27c-1.7,1.5-3.2,2.2-4.4,2.2c-0.7,0-1.3-0.3-2-0.9c-0.6-0.6-0.9-1.6-0.8-3l0-6.5
					c0-0.1-0.4-0.3-1.2-0.3l-0.4,0l-0.1-0.4h5.3l-0.1,6.6c0,0.9,0.1,1.5,0.5,1.8c0.3,0.3,0.8,0.5,1.5,0.5c0.5,0,1-0.2,1.6-0.5v-7.6
					c0-0.1-0.1-0.2-0.2-0.3c-0.1,0-0.5-0.1-1-0.1l-0.4,0l-0.1-0.4H59v7.9c0,0.6,0.1,1,0.2,1.2s0.3,0.4,0.7,0.5l0.7,0.2l0,0.3
					l-5.1,1.2L55.4,27z"/>
				<path class="st1" d="M60.6,28.4l0.3,0c0.4,0,0.6-0.1,0.8-0.1c0.1,0,0.2-0.1,0.2-0.3v-6.5c0-0.7-0.1-1.2-0.2-1.4
					c-0.1-0.2-0.4-0.4-0.9-0.5l-0.5-0.1l0-0.3l5.1-1.4V28c0,0.1,0.1,0.2,0.2,0.2c0.1,0,0.5,0.1,1,0.2l0.2,0l0.1,0.4h-6.5L60.6,28.4z
					 M62.1,15.7c-0.4-0.4-0.6-0.9-0.6-1.5c0-0.6,0.2-1,0.6-1.5s0.9-0.6,1.5-0.6c0.6,0,1.2,0.2,1.6,0.6s0.6,0.9,0.6,1.5
					c0,0.6-0.2,1.1-0.6,1.5s-0.9,0.6-1.6,0.6C63,16.3,62.4,16.1,62.1,15.7z"/>
				<path class="st1" d="M67.5,28.4l0.3,0c0.4,0,0.6-0.1,0.7-0.1c0.1-0.1,0.2-0.2,0.2-0.3V15.6c0-0.6-0.1-1-0.2-1.2
					s-0.3-0.4-0.7-0.5l-0.6-0.3l0-0.3l5.1-1.4v16c0,0.2,0.3,0.3,1,0.4l0.3,0l0.1,0.4h-6.3L67.5,28.4z"/>
			</g>
			<g>
				<path class="st1" d="M82.4,27L82.4,27c-0.5,0.6-1.1,1.1-1.8,1.5c-0.7,0.4-1.4,0.6-2.1,0.6c-1.3,0-2.3-0.5-3.2-1.6
					c-0.9-1-1.3-2.3-1.3-3.8c0-1.9,0.6-3.3,1.9-4.4c1.3-1.1,2.7-1.6,4.4-1.6c0.8,0,1.5,0.1,2,0.3c0,0,0,0,0,0v-2.6
					c0-0.6-0.1-1-0.2-1.2c-0.1-0.2-0.3-0.4-0.7-0.4l-0.9-0.3l0-0.3l5.3-1v14.1c0,0.6,0.1,1,0.2,1.2s0.3,0.4,0.7,0.5l0.7,0.2l0,0.3
					l-5.1,0.8V27z M82.4,26.3v-6.1c-0.4-0.6-0.8-1.1-1.2-1.4c-0.4-0.4-0.8-0.6-1.1-0.6c-0.7,0-1.2,0.4-1.6,1.3
					c-0.4,0.9-0.6,2-0.6,3.3c0,1.3,0.2,2.3,0.7,3.1s1.1,1.2,1.9,1.2C81.2,27.2,81.8,26.9,82.4,26.3z"/>
			</g>
			<g>
				<path class="st1" d="M94.1,28.4l1.1-0.2c0.7-0.1,1-0.2,1.1-0.4l1.1-5.8l-2.2-5.9c-0.3-0.8-0.6-1.4-0.8-1.7s-0.6-0.5-1.1-0.5
					l-0.4-0.1l0-0.4h8.2l-0.1,0.4l-0.5,0.1c-0.7,0.1-1.2,0.2-1.4,0.5s-0.2,0.7,0,1.2L101,21l0.1,0l2.2-3c0.7-0.9,1.2-1.6,1.5-2.1
					c0.3-0.5,0.5-0.9,0.5-1.2c0-0.3,0-0.5-0.3-0.7s-0.6-0.2-1.2-0.3l-0.6-0.1l0-0.4h5.8l-0.1,0.4l-0.6,0.1c-0.7,0.1-1.3,0.4-1.7,0.8
					c-0.5,0.5-1.4,1.7-2.8,3.6l-2.4,3.3l-1.2,6.2c0,0.1,0,0.2,0.2,0.2c0.1,0,0.4,0.1,0.9,0.2l0.8,0.1v0.4H94L94.1,28.4z"/>
				<path class="st1" d="M106.4,27.7c-0.8-0.9-1.3-2.1-1.3-3.6c0-1.7,0.6-3.3,1.9-4.6c1.2-1.4,2.7-2.1,4.2-2.1
					c1.3,0,2.3,0.5,3.2,1.5c0.9,1,1.3,2.2,1.3,3.7c0,1.7-0.6,3.2-1.8,4.5c-1.2,1.3-2.7,2-4.3,2C108.3,29.1,107.2,28.7,106.4,27.7z
					 M112,24.3c0.5-1.6,0.8-3,0.8-4.2c0-0.6-0.1-1.1-0.3-1.5c-0.2-0.3-0.5-0.5-0.8-0.5c-0.5,0-0.9,0.4-1.4,1.1
					c-0.5,0.7-1,1.8-1.4,3.2c-0.4,1.5-0.7,2.8-0.7,4c0,0.6,0.1,1.1,0.3,1.4c0.2,0.3,0.5,0.5,0.8,0.5C110.3,28.4,111.2,27.1,112,24.3
					z"/>
			</g>
			<g>
				<path class="st1" d="M124.5,28.4c-0.6-0.5-0.9-0.9-0.9-1.2c0-0.4,0.2-1.1,0.5-2.2c0.3-1.1,0.7-2.1,1.1-3l-0.2,0
					c-1.7,3.3-2.9,5.3-3.5,5.9c-0.8,0.8-1.5,1.1-2.2,1.1c-0.8,0-1.4-0.2-1.9-0.6s-0.7-0.9-0.7-1.4c0-0.7,0.4-2.1,1.2-4.1l1.3-3.3
					l-1.1-0.1l-1.6,2.3l-0.3-0.2c0.6-1.1,1.3-2.1,2-2.9c0.8-0.8,1.4-1.2,2-1.2c0.3,0,0.8,0.3,1.4,0.8s0.9,0.9,0.9,1.3
					c0,0.1,0,0.3-0.1,0.4c0,0.1-0.1,0.3-0.2,0.6c-0.1,0.2-0.2,0.5-0.2,0.7s-0.2,0.5-0.4,1s-0.3,0.8-0.4,1.2
					c-0.6,1.5-0.9,2.3-0.9,2.6c0,0.1,0.1,0.3,0.4,0.5c0.3,0.2,0.5,0.3,0.8,0.3c0.7,0,1.9-2,3.8-5.9l0.9-2.9l3.5,0l-1.3,4l-1.4,5.2
					l1,0.2l1.6-2.1l0.2,0.2c-0.5,1.1-1.2,2-1.9,2.8c-0.8,0.8-1.4,1.1-1.9,1.1C125.6,29.1,125.1,28.9,124.5,28.4z"/>
				<path class="st1" d="M129.9,28.8l1.3-4l1.3-5.1l-1.1-0.1l-1.5,2.3l-0.3-0.2c0.5-1.1,1.2-2.1,1.9-2.9s1.4-1.2,1.9-1.2
					c0.3,0,0.8,0.2,1.5,0.6c0.7,0.4,1,0.8,1,1.1c0,0.6-0.5,2.2-1.5,5h0.1c1.6-3.1,2.5-4.9,2.9-5.2c0.4-0.6,0.8-1,1.1-1.2
					s0.8-0.3,1.3-0.3c0.6,0,1.1,0.2,1.5,0.6c0.5,0.4,0.7,0.9,0.7,1.6c0,0.6-0.2,1.2-0.6,1.6c-0.4,0.5-0.8,0.7-1.4,0.7
					c-0.8,0-1.3-0.4-1.6-1.1c-0.2-0.7,0-1.3,0.5-1.7l-0.8-0.2c-0.6,0.3-1.9,2.4-3.8,6.4l-1,3.5L129.9,28.8z"/>
			</g>
			<g>
				<path class="st1" d="M51.4,39.3c-0.4-1-0.7-1.6-1-1.9c-0.3-0.3-0.6-0.5-1.1-0.5l-0.5-0.1l-0.1-0.4H57l-0.1,0.4l-0.8,0
					c-0.6,0-0.9,0.2-1,0.4c-0.1,0.2,0,0.6,0.2,1.2l3.4,9.1h0.1l2.5-7l-0.4-1.2c-0.3-0.9-0.6-1.5-0.9-1.9c-0.3-0.4-0.6-0.5-1-0.6
					l-0.7-0.1l-0.1-0.4h8.5l-0.1,0.4l-0.7,0c-0.6,0-0.9,0.2-1.1,0.4c-0.1,0.2-0.1,0.7,0.1,1.4l2.8,8.7h0.1l2.1-6.1
					c0.2-0.7,0.4-1.1,0.5-1.4s0.2-0.6,0.3-1c0.1-0.4,0.1-0.7,0.1-0.8c0-0.1-0.1-0.3-0.2-0.5c-0.1-0.2-0.3-0.3-0.5-0.4
					c-0.2-0.1-0.5-0.1-0.9-0.2l-0.6-0.1l-0.1-0.4h5.8l0,0.4l-0.4,0.1c-0.8,0.1-1.4,0.4-1.7,0.8c-0.3,0.4-0.8,1.6-1.4,3.5l-3.9,10.9
					h-1.3l-3.7-10.7h-0.1l-4,10.7h-1.3L51.4,39.3z"/>
				<path class="st1" d="M73.6,50.6c-1-1-1.5-2.4-1.5-4c0-1.7,0.6-3.2,1.8-4.4s2.6-1.8,4.4-1.8c1.4,0,2.5,0.4,3.3,1.1
					c0.8,0.7,1.2,1.6,1.2,2.6c0,0.3,0,0.5-0.1,0.7c-3.8,0-6-0.1-6.7-0.1c0,0.1,0,0.4,0,0.8c0,1.3,0.3,2.4,1,3.2
					c0.6,0.8,1.5,1.2,2.6,1.2c1.3,0,2.4-0.6,3-1.9l0.3,0.1c-0.9,2.6-2.7,3.9-5.3,3.9C75.9,52.2,74.7,51.7,73.6,50.6z M79.4,44.4
					c0-0.9-0.1-1.7-0.3-2.3s-0.6-0.9-1.1-0.9c-0.5,0-0.9,0.3-1.3,0.9s-0.6,1.4-0.7,2.4L79.4,44.4z"/>
			</g>
			<g>
				<path class="st1" d="M90.5,51.5c-0.4-0.4-0.7-1-0.7-1.7l-0.1,0c-0.7,0.8-1.3,1.4-1.8,1.8c-0.5,0.4-1.1,0.6-1.8,0.6
					c-0.7,0-1.4-0.2-1.9-0.7s-0.8-1.1-0.8-1.8c0-1,0.5-1.8,1.4-2.4s2.6-1.3,4.9-1.9l0-0.7c0-0.9-0.2-1.6-0.6-2.2
					c-0.4-0.6-1.1-0.8-1.9-0.8c-0.9,0-1.3,0.2-1.3,0.5c0,0,0.1,0.2,0.4,0.6c0.3,0.4,0.4,0.7,0.4,1c0,0.4-0.2,0.7-0.5,1
					S85.6,45,85.1,45c-0.5,0-0.9-0.1-1.2-0.4c-0.3-0.2-0.5-0.6-0.5-1c0-0.9,0.6-1.6,1.9-2.2c1.3-0.6,2.6-0.9,4-0.9
					c1.4,0,2.5,0.3,3.1,1c0.6,0.6,0.9,1.7,0.9,3.1L93.2,49c0,0.9,0.2,1.3,0.9,1.3c0.3,0,0.6-0.3,1.1-0.8l0.2,0.3
					c-1.2,1.6-2.3,2.3-3.3,2.3C91.5,52.1,91,51.9,90.5,51.5z M89.7,49.2l0.1-3.5c-1.1,0.3-1.9,0.7-2.3,1.1c-0.4,0.4-0.7,0.9-0.7,1.6
					c0,0.5,0.1,0.9,0.4,1.2c0.3,0.3,0.6,0.4,1.1,0.4C88.8,50,89.2,49.7,89.7,49.2z"/>
				<path class="st1" d="M95.1,51.4l0.3,0c0.4,0,0.6-0.1,0.7-0.1s0.2-0.2,0.2-0.3V38.6c0-0.6-0.1-1-0.2-1.2s-0.3-0.4-0.7-0.5
					l-0.6-0.3l0-0.3l5.1-1.4v16c0,0.2,0.3,0.3,1,0.4l0.3,0l0.1,0.4H95L95.1,51.4z"/>
				<path class="st1" d="M103,48.5l0.1-5.8l-2-0.1l0.6-1.2l2.2-1.7l2-1.6l0.5,0l0,2.9h3.8l-0.3,1.5h-3.5l-0.1,5.2
					c0,0.9,0.1,1.6,0.4,2c0.3,0.4,0.8,0.6,1.5,0.6c0.8,0,1.4-0.2,2-0.7l0.1,0.3c-1.3,1.4-2.7,2.1-4.1,2.1
					C104,52.1,103,50.9,103,48.5z"/>
				<path class="st1" d="M110.1,51.4l0.3,0c0.4,0,0.6-0.1,0.8-0.1c0.1,0,0.2-0.1,0.2-0.3V38.6c0-0.6-0.1-1-0.2-1.2s-0.3-0.4-0.7-0.5
					l-0.7-0.3l0-0.3l5.1-1.4v7.7h0c1.8-1.4,3.2-2.2,4.3-2.2c0.8,0,1.5,0.3,2.1,0.9c0.5,0.6,0.8,1.5,0.8,2.9v6.5
					c0,0.2,0.4,0.3,1.2,0.4l0.3,0l0.1,0.4h-6.4l0.1-0.4l0.4,0c0.2,0,0.4,0,0.6-0.1c0.1,0,0.2-0.1,0.2-0.1c0,0,0-0.1,0-0.2v-5.8
					c0-0.9-0.2-1.5-0.5-1.8c-0.3-0.3-0.8-0.5-1.4-0.5c-0.6,0-1.2,0.2-1.7,0.5V51c0,0.2,0.3,0.3,1,0.4l0.4,0l0.1,0.4h-6.4L110.1,51.4
					z"/>
			</g>
			<g>
				<path class="st1" d="M43.4,74.3L43,69.8h0.8l1.3,2.9c1,1.2,2.2,1.8,3.6,1.8c1,0,1.8-0.2,2.3-0.7c0.5-0.5,0.8-1.1,0.8-1.9
					c0-0.4-0.1-0.8-0.2-1.1c-0.2-0.3-0.3-0.6-0.5-0.8c-0.2-0.2-0.5-0.4-0.9-0.6s-0.8-0.4-1-0.5s-0.7-0.3-1.3-0.5
					c-1.5-0.5-2.6-1.1-3.3-1.7c-0.8-0.6-1.1-1.5-1.1-2.8c0-1.4,0.5-2.6,1.6-3.5c1.1-0.9,2.4-1.4,4.1-1.4c1,0,2.2,0.2,3.6,0.6
					l1.2-0.4l0.1,4.8h-0.7l-2.2-4c-0.6-0.3-1.3-0.4-2.1-0.4c-0.8,0-1.5,0.2-2,0.6c-0.5,0.4-0.8,0.9-0.8,1.6c0,0.4,0.1,0.7,0.2,1
					c0.2,0.3,0.5,0.6,0.9,0.8c0.4,0.2,0.8,0.4,1.1,0.5s0.8,0.3,1.4,0.5c0.7,0.2,1.4,0.5,1.9,0.7c0.5,0.2,1,0.6,1.5,0.9
					c0.5,0.4,0.8,0.9,1.1,1.4c0.2,0.6,0.3,1.2,0.3,1.9c0,1.5-0.6,2.8-1.7,3.8c-1.1,1-2.6,1.6-4.3,1.6C46.5,75.1,44.8,74.9,43.4,74.3
					z"/>
				<path class="st1" d="M57.2,73.6c-1-1-1.5-2.4-1.5-4c0-1.7,0.6-3.2,1.8-4.4s2.6-1.8,4.4-1.8c1.4,0,2.5,0.4,3.3,1.1
					s1.2,1.6,1.2,2.6c0,0.3,0,0.5-0.1,0.7c-3.8,0-6-0.1-6.7-0.1c0,0.1,0,0.4,0,0.8c0,1.3,0.3,2.4,1,3.2c0.6,0.8,1.5,1.2,2.6,1.2
					c1.3,0,2.4-0.6,3-1.9l0.3,0.1c-0.9,2.6-2.7,3.9-5.3,3.9C59.4,75.2,58.2,74.7,57.2,73.6z M62.9,67.4c0-0.9-0.1-1.7-0.3-2.3
					s-0.6-0.9-1.1-0.9c-0.5,0-0.9,0.3-1.3,0.9c-0.4,0.6-0.6,1.4-0.7,2.4L62.9,67.4z"/>
			</g>
			<g>
				<path class="st1" d="M66.8,74.4l0.3,0c0.4,0,0.6-0.1,0.8-0.1c0.1,0,0.2-0.1,0.2-0.3v-6.5c0-0.7-0.1-1.2-0.2-1.5
					c-0.1-0.2-0.4-0.4-0.9-0.5l-0.5-0.1l0-0.3l5.2-1.4l0,2.2h0c1.6-1.5,3-2.2,4.2-2.2c0.8,0,1.5,0.3,2,0.9c0.3,0.4,0.6,0.8,0.7,1.3
					l0.1,0c1.6-1.5,3-2.2,4.3-2.2c0.8,0,1.4,0.3,2,0.9c0.6,0.6,0.8,1.8,0.8,3.6v5.9c0,0.1,0,0.1,0,0.2c0,0,0.1,0.1,0.3,0.1
					c0.2,0,0.5,0.1,0.8,0.1l0.3,0l0.1,0.4h-6.4l0.1-0.4l0.4,0c0.2,0,0.4,0,0.6-0.1c0.1,0,0.2-0.1,0.2-0.1c0,0,0-0.1,0-0.2v-5.8
					c0-0.9-0.2-1.5-0.5-1.8c-0.3-0.3-0.8-0.5-1.5-0.5c-0.8,0-1.3,0.2-1.5,0.6V74c0,0.1,0.1,0.2,0.2,0.2c0.1,0,0.4,0.1,0.8,0.2l0.3,0
					l0.1,0.4h-6.3l0.1-0.4l0.4,0c0.5,0,0.8-0.2,0.8-0.4v-5.8c0-0.9-0.2-1.5-0.5-1.8c-0.3-0.3-0.8-0.5-1.5-0.5c-0.5,0-1,0.1-1.5,0.4
					V74c0,0.1,0.1,0.2,0.2,0.3s0.4,0.1,0.8,0.1l0.3,0l0.1,0.4h-6.4L66.8,74.4z"/>
				<path class="st1" d="M87.9,74.4l0.3,0c0.4,0,0.6-0.1,0.8-0.1c0.1,0,0.2-0.1,0.2-0.3v-6.5c0-0.7-0.1-1.2-0.2-1.5
					c-0.1-0.2-0.4-0.4-0.9-0.5l-0.5-0.1l0-0.3l5.1-1.4V74c0,0.1,0.1,0.2,0.2,0.2c0.1,0,0.5,0.1,1,0.2l0.2,0l0.1,0.4h-6.5L87.9,74.4z
					 M89.4,61.7c-0.4-0.4-0.6-0.9-0.6-1.5s0.2-1,0.6-1.5s0.9-0.6,1.5-0.6c0.6,0,1.2,0.2,1.6,0.6s0.6,0.9,0.6,1.5s-0.2,1.1-0.6,1.5
					c-0.4,0.4-0.9,0.6-1.6,0.6C90.3,62.3,89.8,62.1,89.4,61.7z"/>
			</g>
			<g>
				<path class="st1" d="M94.9,74.4l0.3,0c0.4,0,0.6-0.1,0.8-0.1c0.1,0,0.2-0.1,0.2-0.3v-6.5c0-0.7-0.1-1.2-0.2-1.5
					c-0.1-0.2-0.4-0.4-0.9-0.5l-0.5-0.1l0-0.3l5.2-1.4l0,2.1h0c1.8-1.4,3.2-2.2,4.3-2.2c0.8,0,1.4,0.3,2,0.9
					c0.6,0.6,0.8,1.5,0.8,2.9v6.5c0,0.2,0.4,0.3,1.2,0.4l0.3,0l0.1,0.4h-6.4l0.1-0.4l0.4,0c0.4,0,0.6-0.1,0.7-0.1
					c0.1-0.1,0.1-0.2,0.1-0.3v-5.8c0-0.9-0.2-1.5-0.5-1.8c-0.3-0.3-0.8-0.5-1.5-0.5c-0.6,0-1.2,0.2-1.7,0.5V74c0,0.2,0.3,0.3,1,0.4
					l0.4,0l0,0.4h-6.4L94.9,74.4z"/>
				<path class="st1" d="M115.8,74.5c-0.4-0.4-0.7-1-0.7-1.7l-0.1,0c-0.7,0.8-1.3,1.4-1.8,1.8c-0.5,0.4-1.1,0.6-1.8,0.6
					c-0.7,0-1.4-0.2-1.9-0.7s-0.8-1.1-0.8-1.8c0-1,0.5-1.8,1.4-2.4s2.6-1.3,4.9-1.9l0-0.7c0-0.9-0.2-1.6-0.6-2.2
					c-0.4-0.6-1.1-0.8-1.9-0.8c-0.9,0-1.3,0.2-1.3,0.5c0,0,0.1,0.2,0.4,0.6s0.4,0.7,0.4,1c0,0.4-0.2,0.7-0.5,1s-0.7,0.4-1.2,0.4
					c-0.5,0-0.9-0.1-1.2-0.4c-0.3-0.2-0.5-0.6-0.5-1c0-0.9,0.6-1.6,1.9-2.2c1.3-0.6,2.6-0.9,4-0.9c1.4,0,2.5,0.3,3.1,1
					c0.6,0.6,0.9,1.7,0.9,3.1l-0.2,4.4c0,0.9,0.2,1.3,0.9,1.3c0.3,0,0.6-0.3,1.1-0.8l0.2,0.3c-1.2,1.6-2.3,2.3-3.3,2.3
					C116.7,75.1,116.2,74.9,115.8,74.5z M114.9,72.2l0.1-3.5c-1.1,0.3-1.9,0.7-2.3,1.1c-0.4,0.4-0.7,0.9-0.7,1.6
					c0,0.5,0.1,0.9,0.4,1.2c0.3,0.3,0.6,0.4,1.1,0.4C114,73,114.5,72.7,114.9,72.2z"/>
			</g>
		</g>
		<g>
			<path class="st1" d="M120.3,74.4l0.3,0c0.4,0,0.6-0.1,0.8-0.1c0.1,0,0.2-0.1,0.2-0.3v-6.5c0-0.7-0.1-1.2-0.2-1.5
				c-0.1-0.2-0.4-0.4-0.9-0.5l-0.5-0.1l0-0.3l5.2-1.4l0,3.7h0.1c0.8-2.5,2-3.7,3.3-3.7c0.6,0,1.1,0.2,1.4,0.5
				c0.4,0.3,0.5,0.8,0.5,1.5c0,0.4-0.2,0.8-0.5,1.2c-0.3,0.4-0.7,0.5-1.2,0.5c-0.9,0-1.6-0.5-1.9-1.5c-0.7,0.2-1.3,1.1-1.8,2.8v5.4
				c0,0.2,0.4,0.4,1.2,0.4l0.4,0l0.1,0.4h-6.7L120.3,74.4z"/>
		</g>
	</g>
	<g>
		<path class="st1" d="M180.8,56.4h12.1v3h-8V64h7.5v3.1h-7.5v8h-4V56.4z"/>
		<path class="st1" d="M194.9,56.4h7.2c2.1,0,4.2,0,5.7,1.3c1.2,1,1.6,2.4,1.6,3.6c0,3.5-3,4.3-3.9,4.6c2.8,0.3,3,1.9,3.4,4.3
			c0.3,2.2,0.4,3.1,0.6,3.6c0.2,0.8,0.4,1,0.6,1.3h-4.4c-0.2-1-0.8-5.8-1-6.5c-0.4-1.1-1.3-1.1-2-1.1H199v7.6h-4.1V56.4z
			 M198.8,64.6h3.2c0.5,0,1.4,0,2-0.5c0.3-0.2,1-0.9,1-2.2c0-1.3-0.6-1.9-1-2.1c-0.6-0.4-1.4-0.4-2.6-0.4h-2.7V64.6z"/>
		<path class="st1" d="M212.4,56.4h12.5v3.1h-8.5v4.4h8V67h-8v5h8.8v3.1h-12.8V56.4z"/>
		<path class="st1" d="M228,56.4h12.5v3.1H232v4.4h8V67h-8v5h8.8v3.1H228V56.4z"/>
	</g>
	<g>
		<g>
			<g>
				<g>
					<path class="st4" d="M178.3,29.2c-0.1,3.1,2,3.4,2.6,3.4v-5.5c-3.3-0.9-6.4-2.1-6.4-6.3c0-1.1,0.2-2.6,1.6-4.1
						c1.8-1.9,3.9-2.1,5-2.2v-2.6h1.7v2.5c1.6,0.1,3.5,0.4,5,1.9c1.5,1.5,1.5,3.2,1.6,4.3h-4.2c-0.1-2.3-1.1-2.7-2.4-2.9v5.5
						c3.5,0.9,6.8,1.9,6.8,6.4c0,2.5-1.4,4.1-2.6,5c-1.6,1.1-3.3,1.3-4.4,1.3v3.1H181V36c-3,0.1-4.7-1.4-5.1-1.8
						c-1.3-1.2-1.6-2.8-1.7-4.9H178.3z M181.1,17.8c-1.6,0.1-2.4,1.1-2.4,2.4c0,1.8,1.1,2.2,2.4,2.6V17.8z M182.7,32.7
						c1.3-0.1,2.5-1,2.5-2.6c0-1.3-0.7-2.1-2.5-2.6V32.7z"/>
				</g>
			</g>
			<g>
				<g>
					<path class="st4" d="M191.2,31.5l5.6-5.1c1-0.9,2.1-1.9,3.3-3.3c1.2-1.5,1.5-2.1,1.5-3.1c0-1.6-1-2.8-2.6-2.8
						c-2.5,0-2.7,2.5-2.7,3.2h-4.8c0-0.9,0-2.5,1.3-4.1c1.2-1.6,3.5-2.4,6.2-2.4c4.7,0,7.3,2.5,7.3,5.9c0,2.2-0.9,5.1-10.3,12.7
						c3.1-0.1,3.5-0.1,6-0.1c3.3-0.1,3.7-0.1,4.4-0.1v3.6h-15.2V31.5z"/>
				</g>
			</g>
		</g>
		<g>
			<g>
				<g>
					<path class="st4" d="M213.1,30.6c0.1,1.3,1,2.1,2.3,2.1c3.2,0,3.5-3.4,3.4-6.3c-1.6,1.4-3,1.5-3.9,1.5c-5.3,0-6.7-4.2-6.7-6.8
						c0-4,2.9-7.1,7.7-7.1c7.5,0,7.6,7.1,7.6,10.6c0,9.2-3.1,11.8-8.4,11.8c-1.2,0-6.7,0-6.7-5.7H213.1z M218.7,20.8
						c0-1.9-1-3.3-2.9-3.3c-2.2,0-3,1.8-3,3.4c0,0.7,0.2,3.4,2.9,3.4C218,24.3,218.7,22.3,218.7,20.8z"/>
				</g>
			</g>
		</g>
		<g>
			<g>
				<g>
					<path class="st4" d="M225,23.1h2.3v2.4H225V23.1z"/>
				</g>
			</g>
			<g>
				<g>
					<path class="st4" d="M233.2,12.7c1.8,0,2.8,1,3.3,1.7c0.7,1,1.1,2.2,1.1,4.6c0,2.9-0.7,6.8-4.5,6.8c-3.2,0-4.4-3.1-4.4-6.5
						C228.8,17.6,229.2,12.7,233.2,12.7z M234.6,16.3c-0.1-0.3-0.4-1.5-1.4-1.5c-0.8,0-1.1,0.7-1.2,1.1c-0.4,1.3-0.4,3.2-0.4,3.5
						c0,2.2,0.3,4.2,1.7,4.2c1.4,0,1.7-2.5,1.7-4.2C235,18.6,234.9,17.1,234.6,16.3z"/>
				</g>
			</g>
		</g>
		<g>
			<g>
				<g>
					<path class="st4" d="M243.3,12.7c1.8,0,2.8,1,3.3,1.7c0.7,1,1.1,2.2,1.1,4.6c0,2.9-0.7,6.8-4.5,6.8c-3.2,0-4.4-3.1-4.4-6.5
						C238.9,17.6,239.3,12.7,243.3,12.7z M244.7,16.3c-0.1-0.3-0.4-1.5-1.4-1.5c-0.8,0-1.1,0.7-1.2,1.1c-0.4,1.3-0.4,3.2-0.4,3.5
						c0,2.2,0.3,4.2,1.7,4.2c1.4,0,1.7-2.5,1.7-4.2C245,18.6,245,17.1,244.7,16.3z"/>
				</g>
			</g>
		</g>
		<path class="st4" d="M186.6,43.1h2c0.9,0,1.7,0.1,2.3,0.7c0.3,0.4,0.4,0.9,0.4,1.2c0,0.7-0.3,1.4-0.8,1.7
			c-0.5,0.3-1.1,0.3-1.5,0.3H188v2.5h-1.4V43.1z M188,45.9h0.6c0.5,0,1.3,0,1.3-1c0-0.9-0.7-0.9-1.1-0.9H188V45.9z"/>
		<path class="st4" d="M192.1,43.1h4.4v1h-3v1.5h2.8v1h-2.8v1.7h3.1v1.1h-4.5V43.1z"/>
		<path class="st4" d="M197.6,43.1h2.5c0.7,0,1.5,0,2,0.4c0.4,0.3,0.6,0.8,0.6,1.2c0,1.2-1,1.5-1.4,1.6c1,0.1,1.1,0.6,1.2,1.5
			c0.1,0.7,0.2,1.1,0.2,1.2c0.1,0.3,0.1,0.4,0.2,0.5h-1.5c-0.1-0.4-0.3-2-0.4-2.2c-0.1-0.4-0.5-0.4-0.7-0.4h-1.2v2.6h-1.4V43.1z
			 M199,45.8h1.1c0.2,0,0.5,0,0.7-0.2c0.1-0.1,0.4-0.3,0.4-0.7c0-0.4-0.2-0.6-0.3-0.7c-0.2-0.1-0.5-0.1-0.9-0.1H199V45.8z"/>
		<path class="st4" d="M207.7,44.1h-1.9v-1.1h5.3v1.1h-1.9v5.3h-1.4V44.1z"/>
		<path class="st4" d="M211.8,43.1h1.4v6.4h-1.4V43.1z"/>
		<path class="st4" d="M218.2,45.1c0-0.2-0.1-1.1-1.1-1.1c-1,0-1.5,1.1-1.5,2.4c0,0.4,0,2.2,1.4,2.2c0.6,0,1.1-0.4,1.2-1.2h1.5
			c0,0.4-0.1,1-0.6,1.5c-0.6,0.6-1.3,0.7-1.9,0.7c-2.3,0-3-1.6-3-3.2c0-2,1.2-3.3,3-3.3c1.4,0,2.4,0.8,2.4,2.1H218.2z"/>
		<path class="st4" d="M220.6,43.1h1.4v2.7l2.2-2.7h1.6l-2.4,2.8l2.6,3.5h-1.7l-2.3-3.2v3.2h-1.4V43.1z"/>
		<path class="st4" d="M226.8,43.1h4.4v1h-3v1.5h2.8v1h-2.8v1.7h3.1v1.1h-4.5V43.1z"/>
		<path class="st4" d="M233.9,44.1h-1.9v-1.1h5.3v1.1h-1.9v5.3h-1.4V44.1z"/>
	</g>
	<g>
		<g>
			<path class="st5" d="M300.4,21.6l1.1,5.2l1.4-5.2h1.7l1.3,5.2l1.2-5.2h1.5l-1.8,6.9H305l-1.3-5.3l-1.4,5.3h-1.7l-1.7-6.9H300.4z"
				/>
			<path class="st5" d="M309.3,21.5h1.5v7h-1.5V21.5z"/>
			<path class="st5" d="M313.9,22.7h-2.1v-1.2h5.8v1.2h-2.1v5.8h-1.5V22.7z"/>
			<path class="st5" d="M318.5,21.5h1.5v2.8h2.7v-2.8h1.6v7h-1.5v-3H320v3h-1.5V21.5z"/>
		</g>
		<g>
			<path class="st5" d="M328.4,21.5h2.2c1,0,1.9,0.1,2.5,0.8c0.4,0.4,0.4,0.9,0.4,1.3c0,0.8-0.3,1.5-0.9,1.8
				c-0.5,0.3-1.2,0.3-1.6,0.3h-1v2.7h-1.6V21.5z M329.9,24.7h0.6c0.5,0,1.4,0,1.4-1.1c0-0.9-0.8-0.9-1.3-0.9h-0.8V24.7z"/>
			<path class="st5" d="M334.4,21.5h2.7c0.8,0,1.6,0,2.2,0.5c0.4,0.4,0.6,0.9,0.6,1.3c0,1.3-1.1,1.6-1.5,1.7
				c1.1,0.1,1.2,0.7,1.3,1.6c0.1,0.8,0.2,1.2,0.2,1.3c0.1,0.3,0.1,0.4,0.2,0.5h-1.7c-0.1-0.4-0.3-2.1-0.4-2.4
				c-0.1-0.4-0.5-0.4-0.8-0.4H336v2.8h-1.6V21.5z M335.9,24.6h1.2c0.2,0,0.5,0,0.8-0.2c0.1-0.1,0.4-0.3,0.4-0.8
				c0-0.5-0.2-0.7-0.4-0.8c-0.2-0.2-0.5-0.2-1-0.2h-1V24.6z"/>
		</g>
		<g>
			<path class="st5" d="M344.3,21.4c0.8,0,1.8,0.2,2.5,0.9c0.8,0.8,0.9,1.9,0.9,2.6c0,1-0.3,2.1-0.9,2.7c-0.8,0.9-2,1-2.5,1
				c-0.9,0-1.9-0.3-2.5-1c-0.8-0.8-0.9-2-0.9-2.6C340.8,23.3,341.7,21.4,344.3,21.4z M343,27c0.2,0.3,0.6,0.6,1.3,0.6
				c0.6,0,1-0.2,1.3-0.6c0.2-0.3,0.5-0.9,0.5-2c0-0.3,0-0.8-0.2-1.2c-0.3-0.9-0.9-1.2-1.6-1.2c-0.6,0-1,0.2-1.3,0.6
				c-0.4,0.5-0.5,1.2-0.5,2C342.4,25.7,342.5,26.5,343,27z"/>
			<path class="st5" d="M348.8,21.5h2.5l1.5,5.1l1.6-5.1h2.4v7h-1.5v-6l-1.9,6h-1.3l-1.9-6v6h-1.4V21.5z"/>
		</g>
		<g>
			<path class="st5" d="M361.6,21.4c0.8,0,1.8,0.2,2.5,0.9c0.8,0.8,0.9,1.9,0.9,2.6c0,1-0.3,2.1-0.9,2.7c-0.8,0.9-2,1-2.5,1
				c-0.9,0-1.9-0.3-2.5-1c-0.8-0.8-0.9-2-0.9-2.6C358.1,23.3,359,21.4,361.6,21.4z M360.3,27c0.2,0.3,0.6,0.6,1.3,0.6
				c0.6,0,1-0.2,1.3-0.6c0.2-0.3,0.5-0.9,0.5-2c0-0.3,0-0.8-0.2-1.2c-0.3-0.9-0.9-1.2-1.6-1.2c-0.6,0-1,0.2-1.3,0.6
				c-0.4,0.5-0.5,1.2-0.5,2C359.7,25.7,359.8,26.5,360.3,27z"/>
			<path class="st5" d="M372.9,23.8c0-0.2-0.1-1.2-1.2-1.2c-1.1,0-1.6,1.2-1.6,2.6c0,0.4,0,2.4,1.5,2.4c0.6,0,1.3-0.4,1.3-1.3h1.6
				c0,0.4-0.1,1.1-0.6,1.6c-0.6,0.6-1.4,0.8-2.1,0.8c-2.5,0-3.3-1.8-3.3-3.5c0-2.2,1.3-3.7,3.3-3.7c1.6,0,2.7,0.9,2.7,2.3H372.9z"/>
			<path class="st5" d="M378.7,21.4c0.8,0,1.8,0.2,2.5,0.9c0.8,0.8,0.9,1.9,0.9,2.6c0,1-0.3,2.1-0.9,2.7c-0.8,0.9-2,1-2.5,1
				c-0.9,0-1.9-0.3-2.5-1c-0.8-0.8-0.9-2-0.9-2.6C375.3,23.3,376.2,21.4,378.7,21.4z M377.4,27c0.2,0.3,0.6,0.6,1.3,0.6
				c0.6,0,1-0.2,1.3-0.6c0.2-0.3,0.5-0.9,0.5-2c0-0.3,0-0.8-0.2-1.2c-0.3-0.9-0.9-1.2-1.6-1.2c-0.6,0-1,0.2-1.3,0.6
				c-0.4,0.5-0.5,1.2-0.5,2C376.9,25.7,377,26.5,377.4,27z"/>
			<path class="st5" d="M383.3,21.5l2.4,0c0.4,0,1.6,0,2.5,0.6c0.9,0.6,1.2,1.7,1.2,2.7c0,2.1-1.2,3.3-2.5,3.5
				c-0.3,0-0.6,0.1-1.3,0.1h-2.2V21.5z M384.8,27.3c0.2,0,0.4,0,0.6,0c0.7,0,1.2,0,1.7-0.5c0.6-0.6,0.6-1.6,0.6-2
				c0-1-0.3-1.9-1.3-2.1c-0.3-0.1-0.7-0.1-1.6-0.1V27.3z"/>
			<path class="st5" d="M390.5,21.5h4.8v1.1h-3.3v1.7h3v1.1h-3v1.9h3.4v1.2h-4.9V21.5z"/>
		</g>
		<g>
			<path class="st4" d="M302.2,33.6l3.8,11.1l3.8-11.1h3.1l-5.3,14.1h-3.4l-5.3-14.1H302.2z"/>
			<path class="st4" d="M314.6,33.5h3.1v14.1h-3.1V33.5z"/>
			<path class="st4" d="M320.5,33.6h4.5c2.1,0,3.8,0.1,5,1.5c0.8,0.9,0.9,1.9,0.9,2.6c0,1.6-0.7,3-1.8,3.7c-1.1,0.7-2.5,0.7-3.3,0.7
				h-2.1v5.5h-3.2V33.6z M323.6,40h1.2c1,0,2.9,0,2.9-2.1c0-1.9-1.7-1.9-2.6-1.9h-1.6V40z"/>
			<path class="st4" d="M339.5,33.3c1.5,0,3.7,0.4,5.1,1.9c1.5,1.7,1.8,3.9,1.8,5.3c0,2-0.6,4.2-1.8,5.5c-1.6,1.8-4,2-5.2,2
				c-1.9,0-3.8-0.6-5.1-1.9c-1.6-1.6-1.8-4-1.8-5.3C332.5,37.1,334.3,33.3,339.5,33.3z M336.9,44.7c0.4,0.6,1.2,1.1,2.6,1.1
				c1.3,0,2.1-0.4,2.7-1.3c0.5-0.7,1-1.8,1-4c0-0.7-0.1-1.7-0.4-2.5c-0.6-1.7-1.8-2.5-3.3-2.5c-1.2,0-2.1,0.5-2.7,1.2
				c-0.8,1-1.1,2.5-1.1,4.1C335.8,42.1,336,43.6,336.9,44.7z"/>
		</g>
		<g>
			<path class="st4" d="M349,33.6h9.4v2.3h-6.3v3.5h5.8v2.3h-5.8v6H349V33.6z"/>
			<path class="st4" d="M360.2,33.6h9.4v2.3h-6.3v3.5h5.8v2.3h-5.8v6h-3.1V33.6z"/>
		</g>
		<g>
			<path class="st4" d="M371.5,33.6h9.7v2.3h-6.6v3.4h6.2v2.3h-6.2v3.8h6.8v2.3h-9.9V33.6z"/>
			<path class="st4" d="M383.8,33.6h5.6c1.6,0,3.2,0,4.4,1c0.9,0.8,1.3,1.8,1.3,2.7c0,2.6-2.3,3.3-3,3.5c2.2,0.2,2.4,1.4,2.6,3.2
				c0.2,1.7,0.3,2.3,0.4,2.7c0.2,0.6,0.3,0.8,0.4,1h-3.4c-0.1-0.8-0.6-4.4-0.8-4.9c-0.3-0.8-1-0.8-1.6-0.8H387v5.7h-3.2V33.6z
				 M386.9,39.8h2.5c0.4,0,1.1,0,1.6-0.4c0.2-0.2,0.8-0.6,0.8-1.6c0-1-0.5-1.4-0.8-1.6c-0.5-0.3-1.1-0.3-2-0.3h-2.1V39.8z"/>
		</g>
	</g>
</g>
</svg>
