<?xml version="1.0" encoding="utf-8"?>
<!-- Generator: Adobe Illustrator 22.1.0, SVG Export Plug-In . SVG Version: 6.00 Build 0)  -->
<svg version="1.1" id="Layer_1" xmlns="http://www.w3.org/2000/svg" xmlns:xlink="http://www.w3.org/1999/xlink" x="0px" y="0px"
	 viewBox="0 0 728 90" style="enable-background:new 0 0 728 90;" xml:space="preserve">
<style type="text/css">
	.st0{fill:#FFFFFF;}
</style>
<g>
	<g>
		<polygon class="st0" points="617.4,26.7 622.2,31.8 613,40.6 610.5,38 603.7,44.4 606.2,47.1 605,48.3 600.1,43.1 617.4,26.7 		
			"/>
		<polygon class="st0" points="607,47.6 612.2,42.7 620.7,51.7 618.3,53.9 625,61 627.5,58.5 628.4,59.5 623.1,64.5 607,47.6 		"/>
		<g>
			<polygon class="st0" points="627.2,57 622.3,51.9 631.6,43 634.1,45.6 641.1,39 638.6,36.3 639.9,35 644.9,40.3 627.2,57 			"/>
			<polygon class="st0" points="637.5,37 632,42 623.4,33 626,30.6 619.4,23.7 616.8,26.1 615.9,25.2 621.4,19.9 637.5,36.9 
				637.5,37 			"/>
		</g>
	</g>
	<path class="st0" d="M697.8,54.3l0.3,0.3v7.3c0,0.8,0.1,1.4,0.3,1.6c0.2,0.2,0.5,0.4,1.1,0.4h0.1v0.9h-5.4v-0.9h0.1
		c0.5,0,0.9-0.1,1-0.4c0.2-0.2,0.3-0.8,0.3-1.6v-5.1l-1.2-0.7v-0.3L697.8,54.3L697.8,54.3z"/>
	<path class="st0" d="M695.3,50.3c0-0.4,0.2-0.7,0.5-1c0.3-0.3,0.7-0.5,1-0.5c0.4,0,0.8,0.1,1.1,0.4c0.3,0.3,0.4,0.6,0.4,1.1
		c0,0.4-0.1,0.8-0.4,1.1c-0.3,0.3-0.6,0.4-1.1,0.4c-0.4,0-0.7-0.2-1-0.5C695.5,51,695.3,50.7,695.3,50.3L695.3,50.3z"/>
	<path class="st0" d="M691.5,63.7c-0.3,0.3-0.7,0.5-1.2,0.7c-0.4,0.1-0.9,0.2-1.5,0.2c-1,0-1.6-0.2-2-0.7c-0.4-0.5-0.6-1.3-0.6-2.5
		v-5.7h-1.5v-0.6l3.4-3h0.6v2.4h2.2v1.1h-2.2v5.3c0,1,0.1,1.6,0.3,1.9c0.2,0.3,0.5,0.4,0.9,0.4c0.2,0,0.3,0,0.5-0.1
		c0.2-0.1,0.4-0.1,0.6-0.2L691.5,63.7L691.5,63.7z"/>
	<path class="st0" d="M680.5,54.3l0.3,0.3v7.3c0,0.8,0.1,1.4,0.3,1.6c0.2,0.2,0.5,0.4,1.1,0.4h0.1v0.9h-5.4v-0.9h0.1
		c0.5,0,0.9-0.1,1-0.4c0.2-0.2,0.3-0.8,0.3-1.6v-5.1l-1.2-0.7v-0.3L680.5,54.3L680.5,54.3z"/>
	<path class="st0" d="M678,50.3c0-0.4,0.2-0.7,0.5-1c0.3-0.3,0.7-0.5,1-0.5c0.4,0,0.8,0.1,1.1,0.4c0.3,0.3,0.4,0.6,0.4,1.1
		c0,0.4-0.1,0.8-0.4,1.1c-0.3,0.3-0.6,0.4-1.1,0.4c-0.4,0-0.7-0.2-1-0.5C678.1,51,678,50.7,678,50.3L678,50.3z"/>
	<path class="st0" d="M669.9,57.6c0-0.8-0.1-1.3-0.4-1.5c-0.2-0.3-0.7-0.4-1.3-0.4v-0.9l4.2-0.2v7.6c0,1.1,0.1,2,1.4,1.7l0,0.9
		l-3.9,0v-1.2c-0.8,0.4-1.4,0.7-2,0.9c-0.6,0.2-1.1,0.3-1.7,0.3c-1.1,0-1.8-0.3-2.3-0.9c-0.4-0.6-0.7-1.7-0.7-3.2v-3.1
		c0-0.7-0.1-1.2-0.3-1.5c-0.2-0.3-0.6-0.4-1.2-0.5v-0.9l4-0.2v6.4c0,1,0.1,1.6,0.4,2c0.2,0.3,0.6,0.5,1.2,0.5c0.3,0,0.7-0.1,1.1-0.2
		c0.4-0.1,0.9-0.4,1.4-0.7V57.6L669.9,57.6z"/>
	<path class="st0" d="M658.2,67.3c0,0.8,0.1,1.4,0.3,1.6c0.2,0.2,0.5,0.4,1.1,0.4h0.1v0.8h-5.5v-0.8h0.3c0.5,0,0.9-0.1,1.1-0.3
		c0.2-0.2,0.3-0.8,0.3-1.6v-3.5c-0.4,0.3-0.9,0.5-1.4,0.7c-0.4,0.1-0.8,0.2-1.2,0.2v-1.2c0.2,0,0.3,0,0.5,0c0.3,0,0.6-0.1,1-0.2
		c0.3-0.1,0.7-0.3,1.1-0.5l0,0v-5c0-0.8-0.2-1.4-0.6-1.8c-0.4-0.4-1-0.6-1.7-0.6c-0.1,0-0.1,0-0.2,0v-1c0.1,0,0.1,0,0.2,0
		c0.6,0,1.2,0.1,1.7,0.2c0.5,0.1,1,0.3,1.4,0.6l1.1-0.6h0.7V67.3L658.2,67.3z M653.1,64.6c-0.1,0-0.2,0-0.4,0
		c-1.4,0-2.6-0.4-3.5-1.3c-0.9-0.9-1.4-2-1.4-3.5c0-1.5,0.5-2.8,1.6-3.9c1-1,2.2-1.5,3.7-1.6v1c-0.8,0-1.4,0.4-1.8,1
		c-0.5,0.7-0.7,1.6-0.7,2.7c0,1.3,0.3,2.4,0.8,3.2c0.5,0.7,1,1.1,1.7,1.2V64.6L653.1,64.6z"/>
	<path class="st0" d="M644.8,62.8c-0.7,0.6-1.4,1.1-2.1,1.4c-0.7,0.3-1.4,0.5-2,0.5l-0.1,0v-1.8c0.4,0.2,0.8,0.3,1.3,0.3
		c0.4,0,0.8-0.1,1.2-0.2c0.4-0.2,0.8-0.4,1.3-0.7L644.8,62.8L644.8,62.8L644.8,62.8z M640.6,54.5c0.1,0,0.3,0,0.4,0
		c1.1,0,2,0.4,2.6,1.1c0.7,0.7,1.1,1.6,1.1,2.8h-4.1v-1h1.6l0,0c0-0.6-0.2-1.2-0.5-1.5c-0.3-0.4-0.6-0.5-1.1-0.5c0,0-0.1,0-0.1,0
		V54.5L640.6,54.5z M640.6,64.7c-1.3,0-2.3-0.5-3.2-1.4c-0.9-0.9-1.3-2.1-1.3-3.4c0-0.9,0.2-1.7,0.5-2.5c0.4-0.8,0.9-1.4,1.6-2
		c0.4-0.3,0.8-0.6,1.3-0.7c0.3-0.1,0.7-0.2,1-0.2v0.8c-0.4,0-0.8,0.2-1,0.5c-0.3,0.4-0.5,0.9-0.6,1.5h1.6v1h-1.8c0,0.1,0,0.3,0,0.4
		c0,0.1,0,0.3,0,0.5c0,1.2,0.3,2.1,0.9,2.8c0.3,0.4,0.6,0.6,1,0.8V64.7L640.6,64.7z"/>
</g>
</svg>
