<?xml version="1.0" encoding="utf-8"?>
<!-- Generator: Adobe Illustrator 25.4.1, SVG Export Plug-In . SVG Version: 6.00 Build 0)  -->
<svg version="1.1" id="Layer_1" xmlns="http://www.w3.org/2000/svg" xmlns:xlink="http://www.w3.org/1999/xlink" x="0px" y="0px"
	 viewBox="0 0 300 600" style="enable-background:new 0 0 300 600;" xml:space="preserve">
<style type="text/css">
	.st0{fill:#FFFFFF;}
</style>
<path class="st0" d="M136.3,155.9c-5,0-8.5-2.1-8.5-8.6c0-1.4,0.2-2.8,0.5-4.1l7-0.2c-0.2,1.4-0.3,2.7-0.3,4.1
	c0,2.7,0.3,3.3,1.3,3.3c0.9,0,1.1-0.6,1.1-2.9c0-4.4-0.8-5.4-3.5-6.8l-2.1-1.1c-3.4-1.7-4.2-5.6-4.2-9.5c0-5.7,3.2-8.6,8.4-8.6
	s8.2,2.6,8.2,7.4c0,1-0.1,2.1-0.4,3.1l-6.8,0.5c0.2-1.1,0.2-2.2,0.3-3.3c0-1.9-0.1-2.5-1.1-2.5s-1.1,0.6-1.1,2.2
	c0,3.1,0.8,4.3,2.7,5.2l2.2,1.1c4,2,5.2,5.2,5.2,11.1S142.3,155.9,136.3,155.9z"/>
</svg>
