<?xml version="1.0" encoding="utf-8"?>
<!-- Generator: Adobe Illustrator 26.5.0, SVG Export Plug-In . SVG Version: 6.00 Build 0)  -->
<svg version="1.1" id="Layer_3" xmlns="http://www.w3.org/2000/svg" xmlns:xlink="http://www.w3.org/1999/xlink" x="0px" y="0px"
	 viewBox="0 0 300 600" style="enable-background:new 0 0 300 600;" xml:space="preserve">
<style type="text/css">
	.st0{fill:#ECFBFB;}
	.st1{clip-path:url(#SVGID_00000139253607098060125600000001183876133773948089_);}
	.st2{fill-rule:evenodd;clip-rule:evenodd;fill:#C6E6F5;}
	.st3{clip-path:url(#SVGID_00000039822051118703134850000012822339045290335136_);}
	.st4{clip-path:url(#SVGID_00000019661747523150216730000015084604242722183565_);}
	.st5{fill:#273479;}
	.st6{fill:#FFFFFF;}
	.st7{fill:#FF3008;}
	.st8{fill:#27346B;}
	.st9{fill:#FBF6FA;}
	.st10{fill:#E01E28;}
	.st11{fill:none;stroke:#FF3008;stroke-width:0.35;stroke-miterlimit:10;}
	.st12{fill-rule:evenodd;clip-rule:evenodd;fill:#FFFFFF;}
</style>
<g>
	<rect x="-4.1" y="-6" class="st0" width="307.5" height="609.8"/>
	<g>
		<defs>
			<rect id="SVGID_1_" x="-14.7" y="343.1" width="318.1" height="153.3"/>
		</defs>
		<clipPath id="SVGID_00000128465078764812425410000006075723658891586963_">
			<use xlink:href="#SVGID_1_"  style="overflow:visible;"/>
		</clipPath>
		<g style="clip-path:url(#SVGID_00000128465078764812425410000006075723658891586963_);">
			<polygon class="st2" points="129.3,380.8 125.5,373.6 120.4,373.6 116.7,380.8 116.7,395.5 110.1,395.5 110.1,372.5 102.7,372.5 
				102,372.5 100.7,372.5 100.7,399.5 93.7,399.5 93.7,384.7 90.3,384.7 90.3,383.3 87.7,383.3 87.1,383.3 85.2,383.3 85.2,384.7 
				81.8,384.7 81.8,401.2 79.7,401.2 79.7,376.3 67.7,376.3 67.7,401.2 65.4,401.2 65.4,371.6 61.6,369.7 60.7,369.7 60.7,368.1 
				53.5,368.1 53.5,369.7 52.8,369.7 49.3,371.6 49.3,397.1 47.2,397.1 47.2,386.9 40.8,382.2 31.8,382.2 31.8,402.3 29.2,402.3 
				29.2,388.7 15,388.7 15,393.5 12.1,393.5 12.1,380 0.5,380 0.5,401.6 -3.5,401.6 -4.2,401.6 -8.4,401.6 -8.4,395.4 -19.9,395.4 
				-19.9,400.6 -24.2,400.6 -24.2,386.4 -34.2,386.4 -34.2,396.7 -38.2,396.7 -38.2,379.6 -49.7,379.6 -49.7,396.2 -51.7,396.2 
				-53.5,391.5 -56.5,391.1 -56.5,385.9 -64.8,385.9 -64.8,401.1 -69.1,401.1 -69.1,371.9 -84.2,368.7 -84.2,406.2 -86.6,406.2 
				-86.6,380.2 -88.6,380.2 -88.6,379.2 -94.3,379.2 -94.3,380.2 -96.3,380.2 -96.3,397.1 -99.1,397.1 -99.1,380.2 -107.4,380.2 
				-107.4,395.2 -108.8,395.2 -108.8,375.9 -112.9,375.9 -112.9,374.5 -120,374.5 -120,375.9 -122.9,375.9 -122.9,394.5 
				-125.4,394.5 -125.4,383.5 -127,382.2 -137,382.2 -137.8,383.5 -140.9,383.5 -140.9,394.5 -144.4,394.5 -144.4,366.7 
				-146.3,366.7 -146.3,365.7 -152.4,365.7 -154,366.7 -156.4,366.7 -156.4,368.5 -162.1,368.5 -162.1,378.8 -176.5,378.8 
				-176.5,391.3 -179,391.3 -179,372.3 -196.1,372.3 -196.1,386.7 -198.5,386.7 -198.5,382.2 -210.1,382.2 -210.1,386.6 
				-211.5,386.6 -211.5,370.9 -223.1,370.9 -223.1,400.4 -226,400.4 -226,376.2 -237.6,376.2 -237.6,381 -242.7,381 -242.7,366.1 
				-242.7,363.5 -242.7,361.4 -249.3,361.4 -249.3,363.5 -258,363.5 -258,390.6 -262.3,390.6 -262.3,385.6 -274.3,385.6 
				-274.3,390.5 -276.3,390.5 -276.3,369.9 -278.7,367 -291.4,371.1 -291.4,396.3 -293.5,396.3 -293.5,385.9 -305.1,385.9 
				-305.1,396.3 -307.2,396.3 -307.2,382.4 -312.9,376.1 -322.2,376.1 -322.2,593.3 507,593.3 507,402.3 504.9,402.3 504.9,386.2 
				493.3,386.2 493.3,393.5 490.4,393.5 490.4,380 478.8,380 478.8,401.6 476.2,401.6 476.2,395.4 444.3,395.4 444.3,404.3 
				440,404.3 440,386.4 430,386.4 426,396.7 426,379.6 420.6,379.6 420.6,394.7 418.6,394.7 416.8,391.5 416.2,391.5 416.2,404 
				413.8,404 413.8,385.9 403.3,385.9 403.3,392.4 401.2,392.4 401.2,371.9 386.9,368.7 386.9,406.2 385.3,406.2 385.3,380.2 
				383.2,380.2 383.2,379.2 376,379.2 376,380.2 374,380.2 374,397.1 371.2,397.1 371.2,389.1 370.9,389.1 367.1,391.3 367.1,375.9 
				365.4,375.9 365.4,374.5 364,374.5 364,371.9 360.1,371.9 360.1,374.5 359,374.5 359,375.9 356.9,375.9 356.9,393.7 350.3,393.7 
				350.3,383.5 348.7,383.5 348.7,382.2 344.8,382.2 344,383.5 340.9,383.5 340.9,398.3 336.8,398.3 336.8,376.5 334.9,376.5 
				334.9,371.5 325.9,371.5 324.3,376.5 322,376.5 322,401.2 315.1,401.2 315.1,378.8 303.2,378.8 303.2,401.2 299.1,401.2 
				299.1,372.3 297.2,372.3 293.3,368.5 289.4,372.3 286.9,372.3 286.9,401.2 279.8,401.2 279.8,382.2 268.2,382.2 266.8,370.9 
				255.2,370.9 255.2,400.4 252.3,400.4 252.3,376.2 246.6,376.2 246.6,378 241.5,378 241.4,381.3 234.1,381.3 234.1,378.8 
				232.7,378.8 232.7,377 219.8,377 219.8,378.8 218.4,378.8 218.4,395.3 212.7,395.3 212.7,372.3 208.7,372.3 208.7,370.9 
				204.1,370.9 204.1,372.3 200.1,372.3 200.1,397.6 197.7,393.6 197.7,374.7 196.5,374.7 196.5,373.3 188.8,373.3 188.8,374.7 
				186.2,374.7 184.7,362.6 173.2,362.6 173.2,394.6 170.2,394.6 170.2,376.2 158.6,376.2 155.5,382.2 152.8,382.2 151.5,385.9 
				130.7,385.9 129.3,386.9 129.3,380.8 			"/>
		</g>
	</g>
	<g>
		<defs>
			<rect id="SVGID_00000090271237705122735120000010085026116642103485_" x="-102.5" y="326.3" width="271.5" height="173.6"/>
		</defs>
		<clipPath id="SVGID_00000098211469811776841870000004839477469163913395_">
			<use xlink:href="#SVGID_00000090271237705122735120000010085026116642103485_"  style="overflow:visible;"/>
		</clipPath>
		<g style="clip-path:url(#SVGID_00000098211469811776841870000004839477469163913395_);">
			<g>
				<defs>
					<rect id="SVGID_00000017510446364717317740000006984041070498237625_" x="-14.7" y="325.7" width="183.8" height="173.2"/>
				</defs>
				<clipPath id="SVGID_00000087399249322679114930000017431678223660440747_">
					<use xlink:href="#SVGID_00000017510446364717317740000006984041070498237625_"  style="overflow:visible;"/>
				</clipPath>
				<g style="clip-path:url(#SVGID_00000087399249322679114930000017431678223660440747_);">
					<g>
						<g>
							<path class="st5" d="M251.1,453.9v-0.7h-17.2v-11.9c6.1-2.3,11.6-4.8,16.6-7.5v-1.6c-4.9,2.7-10.5,5.2-16.6,7.6v-1.8
								c6.1-2.4,11.7-5,16.6-7.7v-1.6c-13.6,7.6-31.9,14.5-55.5,17.5c-0.6-0.6-1.5-0.9-2.4-0.9s-1.7,0.3-2.4,0.9
								c-36.5-4.6-60.1-18.7-73.7-29.9c-15.2-12.6-21.3-24.3-21.4-24.4l-1.2,0.6c0,0.1,2.1,4,6.7,9.7v2.3c-4.7-5.8-6.8-9.8-6.8-9.9
								l-1.3,0.6c0,0.1,2.5,4.8,8.1,11.4v46.5h-3.8v0.7h3.8v2.8h-3.8v3h154.4v-3h-2v-2.8L251.1,453.9L251.1,453.9z M233.4,453.1
								h-9.7v-8.5c3.4-1,6.6-2.1,9.7-3.2V453.1z M121.1,425.3c2.9,2.1,6.2,4.2,9.8,6.3v21.5h-9.8V425.3L121.1,425.3z M120.7,453.1
								h-9.8v-36c1.1,1,2.2,1.9,3.4,2.9c1.9,1.6,4.1,3.3,6.5,5L120.7,453.1L120.7,453.1z M213.2,445.9c-3.2,0.7-6.6,1.4-10.1,2v-1.6
								c3.5-0.6,6.9-1.3,10.1-2V445.9z M213.6,444.2c3.4-0.8,6.6-1.7,9.7-2.6v1.8c-3.1,0.9-6.3,1.8-9.7,2.5V444.2L213.6,444.2z
								 M202.6,448c-2.1,0.3-4.2,0.6-6.4,0.9c0,0,0,0,0-0.1c0-0.5-0.1-1-0.3-1.5c2.3-0.3,4.5-0.6,6.7-1V448z M188.9,448.9
								c-2.1-0.3-4.2-0.6-6.2-0.9v-1.6c2.1,0.4,4.3,0.7,6.6,1C189,447.8,188.9,448.3,188.9,448.9
								C188.9,448.9,188.9,448.9,188.9,448.9L188.9,448.9z M182.2,447.9c-3.5-0.6-6.9-1.2-10.1-2v-1.7c3.2,0.8,6.6,1.4,10.1,2V447.9
								z M171.7,445.9c-3.4-0.8-6.6-1.6-9.7-2.5v-1.8c3.1,0.9,6.3,1.8,9.7,2.6V445.9L171.7,445.9z M161.6,443.2
								c-3.4-1-6.6-2.1-9.7-3.3v-1.8c3.1,1.2,6.3,2.3,9.7,3.3V443.2L161.6,443.2z M151.5,439.8c-3.5-1.3-6.8-2.7-9.8-4.2v-1.9
								c3.1,1.5,6.4,2.9,9.8,4.2V439.8L151.5,439.8z M141.2,435.4c-3.5-1.7-6.8-3.4-9.8-5.2v-2c3,1.8,6.3,3.5,9.8,5.2V435.4
								L141.2,435.4z M130.9,430c-3.6-2.1-6.9-4.3-9.8-6.4v-2.1c2.9,2.1,6.2,4.3,9.8,6.5V430z M131.3,431.9c3,1.7,6.3,3.5,9.8,5.1
								v16.2h-9.8V431.9L131.3,431.9z M141.6,437.2c3.1,1.4,6.4,2.8,9.8,4.1v11.9h-9.8V437.2z M151.9,441.4c3.1,1.1,6.3,2.2,9.7,3.2
								v8.5h-9.7V441.4z M162,444.8c3.1,0.9,6.3,1.8,9.7,2.5v5.9H162V444.8L162,444.8z M172.1,447.4c3.2,0.7,6.6,1.4,10.1,2v3.8
								h-10.1V447.4z M182.7,449.4c2.1,0.3,4.3,0.6,6.6,0.9c0.3,0.6,0.7,1.2,1.3,1.5h-1.3v1.3h-6.6L182.7,449.4L182.7,449.4z
								 M194.6,451.9c0.6-0.4,1-0.9,1.3-1.5c2.3-0.3,4.5-0.6,6.7-0.9v3.7h-6.7v-1.3H194.6L194.6,451.9z M203.1,449.3
								c3.5-0.6,6.9-1.2,10.1-2v5.8h-10.1V449.3z M213.6,447.3c3.4-0.8,6.6-1.6,9.7-2.5v8.4h-9.7V447.3z M233.4,439.9
								c-3.1,1.2-6.3,2.2-9.7,3.3v-1.8c3.4-1,6.6-2.2,9.7-3.3V439.9L233.4,439.9z M120.6,421.2v2.1c-2-1.5-3.8-2.9-5.5-4.3
								c-1.5-1.3-3-2.5-4.3-3.8V413c1.5,1.4,3.1,2.8,4.8,4.2C117.1,418.5,118.8,419.8,120.6,421.2L120.6,421.2z M101,402.6
								c2.4,3,5.6,6.4,9.4,10v2.2c-3.8-3.6-7-7-9.4-9.9V402.6L101,402.6z M101,407.1c2.5,2.9,5.6,6.2,9.4,9.6v36.4H101V407.1
								L101,407.1z M101.7,456.7H101v-2.8h0.8V456.7z M105.1,456.7h-2.7v-2.8h2.7V456.7z M108.6,456.7h-2.7v-2.8h2.7V456.7z
								 M109.2,456.7v-2.8h1.2v2.8H109.2z M112,456.7h-1.2v-2.8h1.2V456.7z M115.4,456.7h-2.7v-2.8h2.7V456.7z M118.8,456.7h-2.7
								v-2.8h2.7V456.7z M119.5,456.7v-2.8h1.2v2.8H119.5z M122.2,456.7h-1.1v-2.8h1.1V456.7z M125.6,456.7h-2.7v-2.8h2.7V456.7z
								 M129,456.7h-2.7v-2.8h2.7V456.7z M129.7,456.7v-2.8h1.2v2.8H129.7z M132.4,456.7h-1.1v-2.8h1.1V456.7z M135.8,456.7h-2.7
								v-2.8h2.7V456.7z M139.2,456.7h-2.7v-2.8h2.7V456.7z M139.9,456.7v-2.8h1.3v2.8H139.9z M142.7,456.7h-1v-2.8h1V456.7z
								 M146.1,456.7h-2.7v-2.8h2.7V456.7z M149.5,456.7h-2.7v-2.8h2.7V456.7z M150.2,456.7v-2.8h1.3v2.8H150.2z M152.9,456.7h-1
								v-2.8h1V456.7z M156.3,456.7h-2.7v-2.8h2.7V456.7z M159.7,456.7H157v-2.8h2.7V456.7z M160.4,456.7v-2.8h1.2v2.8H160.4z
								 M163.1,456.7H162v-2.8h1.1V456.7z M166.5,456.7h-2.7v-2.8h2.7V456.7z M169.9,456.7h-2.7v-2.8h2.7V456.7z M170.6,456.7v-2.8
								h1.1v2.8H170.6z M173.3,456.7h-1.2v-2.8h1.2V456.7z M176.8,456.7H174v-2.8h2.7V456.7z M180.2,456.7h-2.7v-2.8h2.7V456.7z
								 M180.8,456.7v-2.8h1.5v2.8H180.8z M183.8,456.7h-1.1v-2.8h1.1V456.7z M187.3,456.7h-2.7v-2.8h2.7V456.7z M187.9,453.9h1.4
								v2.8h-1.4V453.9z M197.4,456.7H196v-2.8h1.4V456.7z M200.8,456.7h-2.7v-2.8h2.7V456.7z M201.5,456.7v-2.8h1.2v2.8H201.5z
								 M204.2,456.7h-1.1v-2.8h1.1V456.7z M207.6,456.7h-2.7v-2.8h2.7V456.7z M211.1,456.7h-2.7v-2.8h2.7V456.7z M211.7,456.7v-2.8
								h1.5v2.8H211.7z M214.5,456.7h-0.8v-2.8h0.8V456.7z M217.9,456.7h-2.7v-2.8h2.7V456.7z M221.3,456.7h-2.7v-2.8h2.7V456.7z
								 M222,456.7v-2.8h1.4v2.8H222z M224.7,456.7h-0.9v-2.8h0.9V456.7z M228.1,456.7h-2.7v-2.8h2.7V456.7z M231.5,456.7h-2.7v-2.8
								h2.7V456.7z M232.2,456.7v-2.8h1.3v2.8H232.2z M234.9,456.7h-1v-2.8h1V456.7z M238.3,456.7h-2.7v-2.8h2.7V456.7z
								 M241.7,456.7H239v-2.8h2.7V456.7z M245.1,456.7h-2.7v-2.8h2.7V456.7z M248.6,456.7h-2.7v-2.8h2.7V456.7z"/>
							<circle class="st6" cx="192.6" cy="448.8" r="2"/>
						</g>
						<g>
							<g>
								<g>
									
										<rect x="9" y="383.7" transform="matrix(0.7071 -0.7071 0.7071 0.7071 -267.4521 122.4191)" class="st5" width="10" height="0.8"/>
									
										<rect x="13.7" y="379" transform="matrix(0.7071 -0.7071 0.7071 0.7071 -267.4435 122.4204)" class="st5" width="0.8" height="10"/>
								</g>
								<g>
									
										<rect x="2" y="383.7" transform="matrix(0.7071 -0.7071 0.7071 0.7071 -269.5024 117.4697)" class="st5" width="10" height="0.8"/>
									
										<rect x="6.7" y="379" transform="matrix(0.7071 -0.7071 0.7071 0.7071 -269.5005 117.4737)" class="st5" width="0.8" height="10"/>
								</g>
								<g>
									
										<rect x="-5" y="383.7" transform="matrix(0.7071 -0.7071 0.7071 0.7071 -271.5486 112.5243)" class="st5" width="10" height="0.8"/>
									
										<rect x="-0.3" y="379" transform="matrix(0.7071 -0.7071 0.7071 0.7071 -271.5406 112.534)" class="st5" width="0.8" height="10"/>
								</g>
							</g>
							<g>
								<g>
									
										<rect x="41.5" y="379.1" transform="matrix(0.7071 -0.7071 0.7071 0.7071 -259.3154 142.0945)" class="st5" width="0.8" height="10"/>
									
										<rect x="36.9" y="383.7" transform="matrix(0.7071 -0.7071 0.7071 0.7071 -259.3086 142.1048)" class="st5" width="10" height="0.8"/>
								</g>
								<g>
									
										<rect x="48.5" y="379" transform="matrix(0.7071 -0.7071 0.7071 0.7071 -257.2537 147.0373)" class="st5" width="0.8" height="10"/>
									
										<rect x="43.9" y="383.7" transform="matrix(0.7071 -0.7071 0.7071 0.7071 -257.2602 147.0448)" class="st5" width="10" height="0.8"/>
								</g>
								<g>
									
										<rect x="55.5" y="379.1" transform="matrix(0.7071 -0.7071 0.7071 0.7071 -255.2203 151.9859)" class="st5" width="0.8" height="10"/>
									
										<rect x="50.8" y="383.7" transform="matrix(0.7071 -0.7071 0.7071 0.7071 -255.213 151.9877)" class="st5" width="10" height="0.8"/>
								</g>
							</g>
							<g>
								<g>
									
										<rect x="62.6" y="379.1" transform="matrix(0.7071 -0.7071 0.7071 0.7071 -253.1202 157.0559)" class="st5" width="0.8" height="10"/>
									
										<rect x="58" y="383.7" transform="matrix(0.7071 -0.7071 0.7071 0.7071 -253.1129 157.0577)" class="st5" width="10" height="0.8"/>
								</g>
								<g>
									
										<rect x="69.6" y="379" transform="matrix(0.7071 -0.7071 0.7071 0.7071 -251.0585 161.9987)" class="st5" width="0.8" height="10"/>
									
										<rect x="65" y="383.7" transform="matrix(0.7071 -0.7071 0.7071 0.7071 -251.0616 162.0048)" class="st5" width="10" height="0.8"/>
								</g>
								<g>
									
										<rect x="76.6" y="379.1" transform="matrix(0.7071 -0.7071 0.7071 0.7071 -249.025 166.9473)" class="st5" width="0.8" height="10"/>
									
										<rect x="72" y="383.7" transform="matrix(0.7071 -0.7071 0.7071 0.7071 -249.0143 166.9477)" class="st5" width="10" height="0.8"/>
								</g>
							</g>
							<g>
								<g>
									
										<rect x="20.6" y="379" transform="matrix(0.7071 -0.7071 0.7071 0.7071 -265.4296 127.3249)" class="st5" width="0.8" height="10"/>
									
										<rect x="16" y="383.7" transform="matrix(0.7071 -0.7071 0.7071 0.7071 -265.4277 127.3206)" class="st5" width="10" height="0.8"/>
								</g>
								<g>
									
										<rect x="27.6" y="379.1" transform="matrix(0.7071 -0.7071 0.7071 0.7071 -263.382 132.2735)" class="st5" width="0.8" height="10"/>
									
										<rect x="23" y="383.7" transform="matrix(0.7071 -0.7071 0.7071 0.7071 -263.3805 132.2777)" class="st5" width="10" height="0.8"/>
								</g>
								<g>
									
										<rect x="34.6" y="379" transform="matrix(0.7071 -0.7071 0.7071 0.7071 -261.3274 137.2192)" class="st5" width="0.8" height="10"/>
									
										<rect x="30" y="383.7" transform="matrix(0.7071 -0.7071 0.7071 0.7071 -261.3291 137.2248)" class="st5" width="10" height="0.8"/>
								</g>
							</g>
							<rect x="-22.9" y="379.6" class="st5" width="91.8" height="1.6"/>
							<rect x="-22.9" y="387.1" class="st5" width="91.8" height="1.6"/>
						</g>
						<path class="st5" d="M-21.5,456.7v2.9h89.1v-2.9h-5v-2.8h5v-0.7h-89.1v0.7h5v2.8H-21.5z M59.1,453.9h2.7v2.8h-2.7V453.9z
							 M55.7,453.9h2.7v2.8h-2.7V453.9z M52.3,453.9H55v2.8h-2.7V453.9z M48.9,453.9h2.7v2.8h-2.7V453.9z M45.5,453.9h2.7v2.8h-2.7
							V453.9z M42.1,453.9h2.7v2.8h-2.7V453.9z M38.7,453.9h2.7v2.8h-2.7V453.9z M35.3,453.9H38v2.8h-2.7V453.9z M31.9,453.9h2.7
							v2.8h-2.7V453.9z M28.5,453.9h2.7v2.8h-2.7V453.9z M25,453.9h2.7v2.8H25V453.9z M21.6,453.9h2.7v2.8h-2.7V453.9z M18.2,453.9
							H21v2.8h-2.7V453.9z M14.8,453.9h2.7v2.8h-2.7V453.9z M11.4,453.9h2.7v2.8h-2.7V453.9z M8,453.9h2.7v2.8H8
							C8,456.7,8,453.9,8,453.9z M4.6,453.9h2.7v2.8H4.6V453.9z M1.2,453.9H4v2.8H1.2L1.2,453.9L1.2,453.9z M-2.2,453.9h2.8v2.8
							h-2.7L-2.2,453.9L-2.2,453.9z M-5.6,453.9h2.8v2.8h-2.7L-5.6,453.9L-5.6,453.9z M-9.1,453.9h2.7v2.8h-2.7V453.9z M-12.5,453.9
							h2.7v2.8h-2.7C-12.5,456.7-12.5,453.9-12.5,453.9z M-15.9,453.9h2.7v2.8h-2.7C-15.9,456.7-15.9,453.9-15.9,453.9z"/>
						
							<rect x="-26.2" y="464.7" transform="matrix(0.9317 -0.3633 0.3633 0.9317 -169.6553 28.4757)" class="st5" width="34.2" height="1.2"/>
						
							<rect x="53.2" y="448.2" transform="matrix(0.3633 -0.9317 0.9317 0.3633 -399.2864 346.396)" class="st5" width="1.2" height="34.2"/>
						<polygon class="st7" points="81.8,342.2 72.7,370 91,370 						"/>
						<polygon class="st7" points="88.6,359.1 89.1,359.1 96.3,359.1 96.8,359.1 96.8,361.6 95.9,361.6 95.9,465 89.5,465 
							89.5,361.6 88.6,361.6 						"/>
						<polygon class="st7" points="92.7,348.9 89.4,359.2 95.9,359.2 						"/>
						<rect x="71.8" y="368.3" class="st7" width="19.7" height="96.7"/>
						<g>
							<rect x="75.6" y="400.9" class="st6" width="12.2" height="6.5"/>
							<g>
								<rect x="84.4" y="401.4" class="st5" width="2.7" height="5.2"/>
								<rect x="80.3" y="401.4" class="st5" width="2.7" height="5.2"/>
								<rect x="76.2" y="401.4" class="st5" width="2.7" height="5.2"/>
							</g>
						</g>
						<g>
							<rect x="75.6" y="420.5" class="st6" width="12.2" height="6.5"/>
							<g>
								<rect x="84.4" y="421.1" class="st5" width="2.7" height="5.2"/>
								<rect x="80.3" y="421.1" class="st5" width="2.7" height="5.2"/>
								<rect x="76.2" y="421.1" class="st5" width="2.7" height="5.2"/>
							</g>
						</g>
						<polygon class="st6" points="81.8,355.8 86.2,359.6 86.2,368.8 77.5,368.8 77.5,359.6 						"/>
						<g>
							<rect x="78.8" y="363.7" class="st5" width="2.8" height="4"/>
							<rect x="78.8" y="360.2" class="st5" width="2.8" height="2.8"/>
						</g>
						<g>
							<rect x="82.3" y="363.7" class="st5" width="2.8" height="4"/>
							<rect x="82.3" y="360.2" class="st5" width="2.8" height="2.8"/>
						</g>
						<polygon class="st7" points="66.6,359.1 67,359.1 74.3,359.1 74.7,359.1 74.7,361.6 73.9,361.6 73.9,465 67.4,465 67.4,361.6 
							66.6,361.6 						"/>
						<g>
							<rect x="67" y="375.7" class="st5" width="29.3" height="1.1"/>
							<g>
								<rect x="67" y="392.2" class="st5" width="29.3" height="1.1"/>
								<rect x="67" y="397.1" class="st5" width="29.3" height="1.1"/>
							</g>
							<g>
								<rect x="67" y="412.1" class="st5" width="29.3" height="1.1"/>
								<rect x="67" y="417" class="st5" width="29.3" height="1.1"/>
							</g>
							<g>
								<rect x="67" y="432.1" class="st5" width="29.3" height="1.1"/>
								<rect x="67" y="437" class="st5" width="29.3" height="1.1"/>
							</g>
						</g>
						<polygon class="st7" points="70.6,348.9 67.4,359.2 73.8,359.2 						"/>
						<g>
							<rect x="75.6" y="379.1" class="st6" width="12.2" height="10.7"/>
							<rect x="76.4" y="383.4" class="st5" width="2.9" height="5.8"/>
							<rect x="80.2" y="383.4" class="st5" width="2.9" height="5.8"/>
							<rect x="84" y="383.4" class="st5" width="2.9" height="5.8"/>
							<rect x="76.4" y="379.8" class="st5" width="2.9" height="2.8"/>
							<rect x="80.2" y="379.8" class="st5" width="2.9" height="2.8"/>
							<rect x="84" y="379.8" class="st5" width="2.9" height="2.8"/>
						</g>
						<g>
							<rect x="75.6" y="440.3" class="st6" width="12.2" height="10.7"/>
							<rect x="76.4" y="444.6" class="st5" width="2.9" height="5.8"/>
							<rect x="80.2" y="444.6" class="st5" width="2.9" height="5.8"/>
							<rect x="84" y="444.6" class="st5" width="2.9" height="5.8"/>
							<rect x="76.4" y="441" class="st5" width="2.9" height="2.8"/>
							<rect x="80.2" y="441" class="st5" width="2.9" height="2.8"/>
							<rect x="84" y="441" class="st5" width="2.9" height="2.8"/>
						</g>
						<rect x="63.6" y="453.1" class="st8" width="35.7" height="26.4"/>
					</g>
				</g>
			</g>
		</g>
	</g>
	<g>
		<g>
			<rect x="165.5" y="385.2" class="st8" width="26.6" height="105.4"/>
			<path class="st9" d="M169.2,393.5c-0.4,0-0.8,0.4-0.8,0.8v93.5h1.6v-93.5C170,393.9,169.6,393.5,169.2,393.5L169.2,393.5z"/>
			<path class="st9" d="M172.4,393.5c-0.4,0-0.8,0.4-0.8,0.8v93.5h1.6v-93.5C173.2,393.9,172.8,393.5,172.4,393.5L172.4,393.5z"/>
			<path class="st9" d="M175.6,393.5c-0.4,0-0.8,0.4-0.8,0.8v93.5h1.6v-93.5C176.4,393.9,176,393.5,175.6,393.5L175.6,393.5z"/>
			<path class="st9" d="M178.8,393.5c-0.4,0-0.8,0.4-0.8,0.8v93.5h1.6v-93.5C179.6,393.9,179.2,393.5,178.8,393.5L178.8,393.5z"/>
			<path class="st9" d="M182,393.5c-0.4,0-0.8,0.4-0.8,0.8v93.5h1.6v-93.5C182.8,393.9,182.4,393.5,182,393.5L182,393.5z"/>
			<path class="st9" d="M185.2,393.5c-0.4,0-0.8,0.4-0.8,0.8v93.5h1.6v-93.5C186,393.9,185.6,393.5,185.2,393.5L185.2,393.5z"/>
			<path class="st9" d="M188.4,393.5c-0.4,0-0.8,0.4-0.8,0.8v93.5h1.6v-93.5C189.2,393.9,188.8,393.5,188.4,393.5L188.4,393.5z"/>
			<g>
				<rect x="165.5" y="407.7" class="st7" width="26.6" height="1.3"/>
				<rect x="165.5" y="411.3" class="st7" width="26.6" height="1.3"/>
			</g>
			<g>
				<rect x="165.5" y="427" class="st7" width="26.6" height="1.3"/>
				<rect x="165.5" y="430.6" class="st7" width="26.6" height="1.3"/>
			</g>
			<g>
				<rect x="165.5" y="446.3" class="st7" width="26.6" height="1.3"/>
				<rect x="165.5" y="449.9" class="st7" width="26.6" height="1.3"/>
			</g>
			<g>
				<rect x="165.5" y="465.5" class="st10" width="26.6" height="1.3"/>
				<rect x="165.5" y="469.2" class="st10" width="26.6" height="1.3"/>
			</g>
		</g>
		<g>
			<rect x="165.5" y="352.5" class="st8" width="26.6" height="9.4"/>
			<g>
				<path class="st9" d="M169.2,354.1c-0.4,0-0.8,0.4-0.8,0.8v7h1.6v-7C170,354.5,169.6,354.1,169.2,354.1L169.2,354.1z"/>
				<path class="st9" d="M171.9,354.1c-0.4,0-0.8,0.4-0.8,0.8v7h1.6v-7C172.7,354.5,172.4,354.1,171.9,354.1L171.9,354.1z"/>
				<path class="st9" d="M174.7,354.1c-0.4,0-0.8,0.4-0.8,0.8v7h1.6v-7C175.5,354.5,175.1,354.1,174.7,354.1L174.7,354.1z"/>
				<path class="st9" d="M177.4,354.1c-0.4,0-0.8,0.4-0.8,0.8v7h1.6v-7C178.2,354.5,177.9,354.1,177.4,354.1L177.4,354.1z"/>
				<path class="st9" d="M180.2,354.1c-0.4,0-0.8,0.4-0.8,0.8v7h1.6v-7C181,354.5,180.6,354.1,180.2,354.1L180.2,354.1z"/>
				<path class="st9" d="M182.9,354.1c-0.4,0-0.8,0.4-0.8,0.8v7h1.6v-7C183.7,354.5,183.3,354.1,182.9,354.1L182.9,354.1z"/>
				<path class="st9" d="M185.6,354.1c-0.4,0-0.8,0.4-0.8,0.8v7h1.6v-7C186.4,354.5,186.1,354.1,185.6,354.1L185.6,354.1z"/>
				<path class="st9" d="M188.4,354.1c-0.4,0-0.8,0.4-0.8,0.8v7h1.6v-7C189.2,354.5,188.8,354.1,188.4,354.1L188.4,354.1z"/>
			</g>
		</g>
		<g>
			<rect x="171.8" y="329.4" class="st8" width="14.1" height="8.2"/>
			<path class="st9" d="M174.8,331.8c-0.4,0-0.7,0.3-0.7,0.7v5.1h1.3v-5.1C175.5,332.1,175.2,331.8,174.8,331.8z"/>
			<path class="st9" d="M177.5,331.8c-0.4,0-0.7,0.3-0.7,0.7v5.1h1.3v-5.1C178.1,332.1,177.8,331.8,177.5,331.8z"/>
			<path class="st9" d="M180.1,331.8c-0.4,0-0.7,0.3-0.7,0.7v5.1h1.3v-5.1C180.8,332.1,180.5,331.8,180.1,331.8z"/>
			<path class="st9" d="M182.7,331.8c-0.4,0-0.7,0.3-0.7,0.7v5.1h1.3v-5.1C183.4,332.1,183.1,331.8,182.7,331.8z"/>
		</g>
		<g>
			<rect x="162.8" y="360.1" class="st7" width="32" height="30.5"/>
			<g>
				<rect x="164.6" y="363.1" class="st9" width="1.6" height="21.3"/>
				<rect x="168.2" y="361.1" class="st9" width="21.1" height="1"/>
				<rect x="191.4" y="361.1" class="st9" width="1.6" height="1"/>
				<rect x="164.5" y="361.1" class="st9" width="1.6" height="1"/>
				<rect x="164.6" y="385.7" class="st9" width="1.6" height="3.7"/>
				<rect x="191.4" y="363.1" class="st9" width="1.6" height="21.3"/>
				<rect x="191.4" y="385.7" class="st9" width="1.6" height="3.7"/>
			</g>
			<g>
				<rect x="168.2" y="363.1" class="st7" width="21.1" height="21.1"/>
				<circle class="st8" cx="178.8" cy="373.7" r="8.5"/>
				<circle class="st6" cx="178.8" cy="373.7" r="7.6"/>
				<path class="st7" d="M178.8,368.6c-2.8,0-5.1,2.3-5.1,5.1s2.3,5.1,5.1,5.1s5.1-2.3,5.1-5.1S181.6,368.6,178.8,368.6z
					 M178.8,378.5c-2.7,0-4.9-2.2-4.9-4.9s2.2-4.9,4.9-4.9s4.9,2.2,4.9,4.9S181.5,378.5,178.8,378.5z"/>
				<polyline class="st11" points="178.6,370.5 178.6,374.3 180.4,375.7 				"/>
			</g>
			<g>
				<path class="st9" d="M169.2,385.7c-0.4,0-0.8,0.4-0.8,0.8v2.2c0,0.4,0.4,0.8,0.8,0.8s0.8-0.4,0.8-0.8v-2.2
					C170,386,169.6,385.7,169.2,385.7z"/>
				<path class="st9" d="M171.6,385.7c-0.4,0-0.8,0.4-0.8,0.8v2.2c0,0.4,0.4,0.8,0.8,0.8s0.8-0.4,0.8-0.8v-2.2
					C172.4,386,172,385.7,171.6,385.7z"/>
				<path class="st9" d="M174,385.7c-0.4,0-0.8,0.4-0.8,0.8v2.2c0,0.4,0.4,0.8,0.8,0.8s0.8-0.4,0.8-0.8v-2.2
					C174.8,386,174.4,385.7,174,385.7z"/>
				<path class="st9" d="M176.4,385.7c-0.4,0-0.8,0.4-0.8,0.8v2.2c0,0.4,0.4,0.8,0.8,0.8s0.8-0.4,0.8-0.8v-2.2
					C177.2,386,176.8,385.7,176.4,385.7z"/>
				<path class="st9" d="M178.8,385.7c-0.4,0-0.8,0.4-0.8,0.8v2.2c0,0.4,0.4,0.8,0.8,0.8s0.8-0.4,0.8-0.8v-2.2
					C179.6,386,179.2,385.7,178.8,385.7z"/>
				<path class="st9" d="M181.2,385.7c-0.4,0-0.8,0.4-0.8,0.8v2.2c0,0.4,0.4,0.8,0.8,0.8s0.8-0.4,0.8-0.8v-2.2
					C182,386,181.6,385.7,181.2,385.7z"/>
				<path class="st9" d="M183.6,385.7c-0.4,0-0.8,0.4-0.8,0.8v2.2c0,0.4,0.4,0.8,0.8,0.8s0.8-0.4,0.8-0.8v-2.2
					C184.4,386,184,385.7,183.6,385.7z"/>
				<path class="st9" d="M186,385.7c-0.4,0-0.8,0.4-0.8,0.8v2.2c0,0.4,0.4,0.8,0.8,0.8s0.8-0.4,0.8-0.8v-2.2
					C186.8,386,186.4,385.7,186,385.7z"/>
				<path class="st9" d="M188.4,385.7c-0.4,0-0.8,0.4-0.8,0.8v2.2c0,0.4,0.4,0.8,0.8,0.8s0.8-0.4,0.8-0.8v-2.2
					C189.2,386,188.8,385.7,188.4,385.7z"/>
			</g>
		</g>
		<path class="st7" d="M191.4,348.9H190c-1.4-1.7-3.6-5-4.2-10.2h0.7v-1.5H171v1.5h0.7c-0.6,5.2-2.7,8.6-4.2,10.2h-3v3.9H193v-3.9
			H191.4L191.4,348.9z"/>
		<path class="st7" d="M185.4,328.2c-3.1-6-6.6-28.8-6.6-28.8s-3.5,22.8-6.6,28.8l-0.7,0H171v1.5h15.6v-1.5h-0.4L185.4,328.2
			L185.4,328.2z"/>
	</g>
	<g>
		<g>
			<path class="st8" d="M34.1,393.7c-3.7,0-6.7,2.9-6.7,6.5v8.9c0,3.6,3,5.1,6.7,5.1s6.7-1.5,6.7-5.1v-8.9
				C40.8,396.6,37.7,393.7,34.1,393.7z"/>
			<path class="st6" d="M30.9,418.4c0.9-0.6,1.6-1.6,1.4-3.3l3.7-0.1c-0.3,0-0.1,1.3-0.1,1.5c0.1,0.8,0.6,1.3,1.1,1.7
				c0.1,0.1,0.2,0.1,0.2,0.1C37.2,418.3,34.6,420.2,30.9,418.4L30.9,418.4z"/>
			<g>
				<path class="st6" d="M39.2,411c0-1.3-0.8-1.1-1.1-0.9c-0.3-2.9-1.9-3-3.9-3c-2.1,0-3.9-0.1-4.1,3c-0.3-0.1-1.1-0.4-1.2,0.9
					c0,1.2,0.8,1.4,1.2,1.4c0.2,2.3,1.2,4.6,3.9,4.7c2.9,0,3.8-2.4,4-4.7C38.5,412.4,39.2,412.2,39.2,411L39.2,411z"/>
				<path class="st8" d="M34.2,406.4c-2.2,0-4.1-0.1-4.1,3.8c0,2.7,0.7,6.1,4,6.2c3.5,0,4.1-3.6,4.1-6.1
					C38.1,406.5,36.4,406.4,34.2,406.4L34.2,406.4z M34,415.8c-3-0.1-3.6-3.2-3.6-5.6c0-3.5,1.7-3.4,3.8-3.4c2,0,3.6,0.1,3.6,3.5
					C37.8,412.5,37.3,415.8,34,415.8L34,415.8z"/>
			</g>
			<path class="st5" d="M28.7,410.7h10.8c0,0-0.3-6-5.5-6S28.7,410.7,28.7,410.7z"/>
		</g>
		<g>
			<path class="st8" d="M28.6,476.1C28.6,476.1,28.6,476.1,28.6,476.1l-2.9,1.1c0,0-1.6,0.5-1.4,1.2h8.5l0-2.1
				C32.9,476.2,28.6,476.1,28.6,476.1z"/>
			<path class="st8" d="M41.1,441H27.2c0,0-1.5,7.7,0.9,24c0,0,0.9,8,0.6,10.5l4.5,0.2c0-1.7,0.1-7.6,0.2-14.7c0,0,0.2-6.3,0.7-12.2
				c0.5,5.9,0.7,12.2,0.7,12.2c0.1,7.1,0.2,13,0.2,14.7l4.5-0.2c-0.2-2.5,0.6-10.5,0.6-10.5C42.6,448.7,41.1,441,41.1,441L41.1,441z
				"/>
			<path class="st8" d="M42.5,477.2l-2.9-1.1c0,0,0,0,0,0l-4.2,0.2l0,2.1h8.5C44.2,477.6,42.5,477.2,42.5,477.2z"/>
		</g>
		<g>
			<g>
				<path class="st7" d="M25.5,448.5c0.2,0.2,0.4,0.5,0.6,0.5c0.2,0.1,0.4,0,0.5-0.1c0.1-0.1,0-0.3-0.1-0.4
					c-0.4-0.8-1.3-2.2-2.3-2.1c-0.2,0-1.9,0.7-1.9,0.7c0.1,0.4,0,1.3,0,1.3c-0.1,1.7,1.1,3,1.1,3c0.2,0.3,0.8,0.7,1.1,0.9
					c0.3,0.2,0.7,0.3,1.1,0.3c0.4,0,0.7-0.3,0.9-0.6c0.1-0.3,0-0.6-0.1-0.9c-0.1-0.3-0.4-0.5-0.5-0.8c-0.2-0.2-1.3-1.8-0.7-1.8
					C25.3,448.4,25.4,448.4,25.5,448.5L25.5,448.5z"/>
				<path class="st7" d="M25.5,421.2c0,0-7.7,12-3.3,26.2l3.4-0.5c0,0-4-13.9,2-20.1L25.5,421.2L25.5,421.2z"/>
				<path class="st8" d="M21.3,443.8c0.2,1.2,0.5,2.4,0.9,3.6l3.4-0.5c0,0-0.4-1.4-0.8-3.5L21.3,443.8L21.3,443.8z"/>
			</g>
			<g>
				<path class="st7" d="M42.8,448.5c-0.2,0.2-0.4,0.5-0.6,0.5c-0.2,0.1-0.4,0-0.5-0.1c-0.1-0.1,0-0.3,0.1-0.4
					c0.4-0.8,1.3-2.2,2.3-2.1c0.2,0,1.9,0.7,1.9,0.7c-0.2,0.4,0,1.3,0,1.3c0.1,1.7-1.1,3-1.1,3c-0.2,0.3-0.8,0.7-1.1,0.9
					c-0.3,0.2-0.7,0.3-1.1,0.3c-0.4,0-0.7-0.3-0.9-0.6c-0.1-0.3,0-0.6,0.1-0.9c0.1-0.3,0.3-0.5,0.5-0.8c0.2-0.2,1.3-1.8,0.7-1.8
					C43,448.4,42.9,448.4,42.8,448.5L42.8,448.5z"/>
				<path class="st7" d="M42.7,421.2c0,0,7.9,12,3.5,26.2l-3.4-0.5c0,0,3.8-13.9-2.2-20.1C40.5,426.8,42.7,421.2,42.7,421.2z"/>
				<path class="st8" d="M43.4,443.4c-0.3,2.1-0.7,3.5-0.7,3.5l3.4,0.5c0.4-1.2,0.7-2.4,0.9-3.5L43.4,443.4L43.4,443.4z"/>
			</g>
			<g>
				<g>
					<path class="st7" d="M40.8,434.8l1.5,10.9l-6.6,1.2h-3.1l-6.9-1.2l1.8-10.9l-2.1-13.6c0.6-0.8,1.6-1.2,2.5-1.6l3.1-1.4H37
						l3.1,1.4c0.2,0.1,1.9,0.8,2.5,1.6C42.6,421.2,40.8,434.8,40.8,434.8z"/>
					<polygon class="st6" points="41,436.5 40.8,434.8 27.6,434.8 27.3,436.5 					"/>
					<rect x="33.9" y="418.1" class="st6" width="0.5" height="28.8"/>
				</g>
				<path class="st5" d="M31.1,418.1c0,0,0.7,0.7,3.1,0.7s2.9-0.7,2.9-0.7l-0.7-0.9c0,0-1.9,1.1-4.5,0L31.1,418.1L31.1,418.1z"/>
				<g>
					<path class="st6" d="M35.5,420.3c0,0.2-0.2,0.4-0.4,0.4s-0.4-0.2-0.4-0.4s0.2-0.4,0.4-0.4S35.5,420.1,35.5,420.3z"/>
					<path class="st6" d="M35.5,422.2c0,0.2-0.2,0.4-0.4,0.4s-0.4-0.2-0.4-0.4s0.2-0.4,0.4-0.4S35.5,422,35.5,422.2z"/>
					<path class="st6" d="M35.5,424.1c0,0.2-0.2,0.4-0.4,0.4s-0.4-0.2-0.4-0.4s0.2-0.4,0.4-0.4S35.5,423.9,35.5,424.1z"/>
					<path class="st6" d="M35.5,426c0,0.2-0.2,0.4-0.4,0.4s-0.4-0.2-0.4-0.4s0.2-0.4,0.4-0.4S35.5,425.8,35.5,426z"/>
					<path class="st6" d="M35.5,427.9c0,0.2-0.2,0.4-0.4,0.4s-0.4-0.2-0.4-0.4s0.2-0.4,0.4-0.4S35.5,427.6,35.5,427.9z"/>
					<path class="st6" d="M35.5,429.8c0,0.2-0.2,0.4-0.4,0.4s-0.4-0.2-0.4-0.4s0.2-0.4,0.4-0.4S35.5,429.5,35.5,429.8z"/>
					<path class="st6" d="M35.5,431.6c0,0.2-0.2,0.4-0.4,0.4s-0.4-0.2-0.4-0.4s0.2-0.4,0.4-0.4S35.5,431.4,35.5,431.6z"/>
					<path class="st6" d="M35.5,433.5c0,0.2-0.2,0.4-0.4,0.4s-0.4-0.2-0.4-0.4s0.2-0.4,0.4-0.4S35.5,433.3,35.5,433.5z"/>
				</g>
				<path class="st8" d="M32.7,434.7h2.9c0.3,0,0.5,0.2,0.5,0.5v1c0,0.3-0.2,0.5-0.5,0.5h-2.9c-0.3,0-0.5-0.2-0.5-0.5v-1
					C32.1,434.9,32.4,434.7,32.7,434.7z"/>
			</g>
		</g>
	</g>
	<g>
		<polygon class="st7" points="267.1,401.6 294.4,496.6 300.7,496.6 267.1,394.7 233.5,496.6 239.8,496.6 		"/>
		<rect x="217.8" y="473.7" class="st8" width="100.9" height="4.9"/>
	</g>
	<rect x="-5.8" y="478.2" class="st8" width="309.1" height="128.8"/>
	<g>
		<path class="st6" d="M74,501.9c-10.8,0-20.7,1.3-20.7,1.3v33c0,4.4,1.8,7.6,5.1,9.5l15.6,9l15.6-9c3.3-1.9,5.1-5.1,5.1-9.5v-33
			C94.7,503.2,84.8,501.9,74,501.9L74,501.9z M93.4,536.3v0.2c0,0.3,0,0.5,0,0.8c-0.2,3.3-1.7,5.8-4.4,7.3l-15,8.7l-15-8.7
			c-2.7-1.6-4.1-4-4.4-7.3l0,0c0-0.3,0-0.5,0-0.8v-5.2l0,0V522l0,0v-17.6c0,0,9.4-1.2,19.4-1.2s19.4,1.2,19.4,1.2V536.3L93.4,536.3z
			"/>
		<path class="st6" d="M56,505.6v17.2L74,533.2l18.1-10.4v-17.2c0,0-9-1-18.1-1S56,505.6,56,505.6L56,505.6z M80.6,508.9h2.8v8.3
			h5.5v2.4h-6.5c0,0-0.9-1-1.7-2.1L80.6,508.9L80.6,508.9z M79.3,512.6c0,1.4-0.6,2.6-1.6,3.2c0.4,0.4,3.2,3.8,3.2,3.8h-3.4
			l-2.6-3.2h-1.3v3.2h-2.8v-7.2h2.8v1.7h1.6c0.9,0,1.4-0.5,1.4-1.4c0-1-0.5-1.5-1.6-1.5h-5.8v8.4h-2.6l-3.8-5.9h0v5.9h-2.6v-10.7
			h2.6l3.7,5.9h0.1v-6h8.7C77.7,508.9,79.2,510.3,79.3,512.6L79.3,512.6z"/>
		<polygon class="st6" points="56,528.8 56,532 74,542.5 92.1,532 92.1,528.8 74,539.2 		"/>
		<path class="st6" d="M56.1,538.1c0.4,2.4,1.6,4.2,3.6,5.3l14.3,8.3l14.3-8.3c2-1.2,3.2-2.9,3.6-5.3L74,548.4L56.1,538.1z"/>
	</g>
	<g>
		<path class="st6" d="M117.7,512.8c2.7,0,4.8,2.1,4.8,4.6s-2.1,4.6-4.8,4.6s-4.8-2.1-4.8-4.6S115,512.8,117.7,512.8z M117.7,520.3
			c1.6,0,2.9-1.3,2.9-2.9s-1.3-2.9-2.9-2.9s-2.9,1.3-2.9,2.9S116.1,520.3,117.7,520.3z"/>
		<path class="st6" d="M124.5,513h6.5v1.8h-4.6v2.1h3.6v1.8h-3.6v3.2h-1.9L124.5,513L124.5,513z"/>
		<path class="st6" d="M132.7,513h6.5v1.8h-4.6v2.1h3.6v1.8h-3.6v3.2h-1.9L132.7,513L132.7,513z"/>
		<path class="st6" d="M141,513h1.9v8.9H141V513z"/>
		<path class="st6" d="M153.4,520.3c-0.3,0.3-0.6,0.6-0.9,0.9c-0.6,0.4-1.6,0.9-2.9,0.9c-2.7,0-4.8-2.1-4.8-4.6s2.1-4.6,4.8-4.6
			c1.2,0,2.2,0.4,2.8,0.9c0.4,0.3,0.7,0.6,0.9,0.9l-1.3,1.3c-0.2-0.2-0.4-0.4-0.6-0.6c-0.4-0.3-1-0.6-1.8-0.6
			c-1.6,0-2.9,1.3-2.9,2.9s1.3,2.9,2.9,2.9c0.8,0,1.4-0.3,1.9-0.6c0.2-0.2,0.5-0.4,0.6-0.6L153.4,520.3L153.4,520.3z"/>
		<path class="st6" d="M155.1,513h1.9v8.9h-1.9V513z"/>
		<path class="st6" d="M161.8,513h2.2l3.4,8.9h-2l-0.8-2h-3.4l-0.8,2h-2L161.8,513L161.8,513z M163.9,518.1l-1.1-2.9h-0.1l-1.1,2.9
			H163.9L163.9,518.1z"/>
		<path class="st6" d="M168.8,513h1.9v7.1h4.1v1.8h-6V513z"/>
		<path class="st6" d="M179.3,513h3.2c2.7,0,4.7,2,4.7,4.4s-2,4.4-4.7,4.4h-3.2V513L179.3,513z M182.6,520.1c1.6,0,2.7-1.1,2.7-2.7
			s-1.1-2.7-2.7-2.7h-1.3v5.3L182.6,520.1L182.6,520.1z"/>
		<path class="st6" d="M189.2,513h6.6v1.8h-4.7v1.7h3.7v1.7h-3.7v1.9h4.8v1.8h-6.7L189.2,513L189.2,513z"/>
		<path class="st6" d="M198,513h1.9v7.1h4.1v1.8h-6V513z"/>
		<path class="st6" d="M205.5,513h1.9v8.9h-1.9V513z"/>
		<path class="st6" d="M208.8,513h2l2.3,6.5h0.1l2.3-6.5h2l-3.3,8.9h-2.2L208.8,513L208.8,513z"/>
		<path class="st6" d="M219.1,513h6.6v1.8H221v1.7h3.7v1.7H221v1.9h4.8v1.8h-6.7L219.1,513L219.1,513z"/>
		<path class="st6" d="M227.8,513h3.9c1.9,0,3.1,1.2,3.1,3c0,1-0.4,1.7-0.8,2.1c-0.2,0.2-0.5,0.4-0.8,0.5l1.8,3.3h-2.1l-1.6-2.9
			h-1.8v2.9h-1.9L227.8,513L227.8,513z M231.7,517.2c0.7,0,1.2-0.5,1.2-1.2s-0.5-1.2-1.2-1.2h-2v2.4L231.7,517.2L231.7,517.2z"/>
		<path class="st6" d="M238.9,518.7l-3.4-5.7h2.2l2.1,3.8h0.1l2.1-3.8h2.2l-3.4,5.7v3.2h-1.9L238.9,518.7L238.9,518.7z"/>
		<path class="st6" d="M113.5,525.8h3.8c1.9,0,3.2,1.3,3.2,3s-1.3,3-3.2,3h-1.8v2.9h-1.9L113.5,525.8L113.5,525.8z M117.2,530
			c0.8,0,1.3-0.5,1.3-1.2s-0.5-1.2-1.3-1.2h-1.8v2.4L117.2,530L117.2,530z"/>
		<path class="st6" d="M124,525.8h2.2l3.4,8.9h-2l-0.8-2h-3.4l-0.8,2h-2L124,525.8L124,525.8z M126.2,530.9l-1.1-2.9h-0.1l-1.1,2.9
			H126.2L126.2,530.9z"/>
		<path class="st6" d="M131,525.8h3.9c1.9,0,3.1,1.2,3.1,3c0,1-0.4,1.7-0.8,2.1c-0.2,0.2-0.5,0.4-0.8,0.5l1.8,3.3h-2.1l-1.6-2.9
			h-1.8v2.9H131L131,525.8L131,525.8z M134.9,530c0.7,0,1.2-0.5,1.2-1.2s-0.5-1.2-1.2-1.2h-2v2.4L134.9,530L134.9,530z"/>
		<path class="st6" d="M141.8,527.6h-2.5v-1.8h7v1.8h-2.5v7.1h-1.9L141.8,527.6L141.8,527.6z"/>
		<path class="st6" d="M147.8,525.8h1.7l4.3,5.5v-5.5h1.9v8.9H154l-4.3-5.5v5.5h-1.9V525.8z"/>
		<path class="st6" d="M158.2,525.8h6.6v1.8h-4.7v1.7h3.7v1.7h-3.7v1.9h4.8v1.8h-6.7L158.2,525.8L158.2,525.8z"/>
		<path class="st6" d="M167,525.8h3.9c1.9,0,3.1,1.2,3.1,3c0,1-0.4,1.7-0.8,2.1c-0.2,0.2-0.5,0.4-0.8,0.5l1.8,3.3h-2.1l-1.6-2.9
			h-1.8v2.9H167L167,525.8L167,525.8z M170.9,530c0.7,0,1.2-0.5,1.2-1.2s-0.5-1.2-1.2-1.2h-2v2.4L170.9,530L170.9,530z"/>
		<path class="st6" d="M183.3,525.6c2.7,0,4.8,2.1,4.8,4.6s-2.1,4.6-4.8,4.6s-4.8-2.1-4.8-4.6S180.6,525.6,183.3,525.6z
			 M183.3,533.1c1.6,0,2.9-1.3,2.9-2.9s-1.3-2.9-2.9-2.9s-2.9,1.3-2.9,2.9S181.7,533.1,183.3,533.1z"/>
		<path class="st6" d="M190.1,525.8h6.5v1.8H192v2.1h3.6v1.8H192v3.2h-1.9L190.1,525.8L190.1,525.8z"/>
		<path class="st6" d="M203,527.6h-2.5v-1.8h7v1.8h-2.5v7.1H203L203,527.6L203,527.6z"/>
		<path class="st6" d="M208.9,525.8h1.9v3.5h3.8v-3.5h1.9v8.9h-1.9v-3.6h-3.8v3.6h-1.9V525.8z"/>
		<path class="st6" d="M219.1,525.8h6.6v1.8H221v1.7h3.7v1.7H221v1.9h4.8v1.8h-6.7L219.1,525.8L219.1,525.8z"/>
		<path class="st6" d="M230.6,525.8h1.7l4.3,5.5v-5.5h1.9v8.9h-1.7l-4.3-5.5v5.5h-1.9V525.8z"/>
		<path class="st6" d="M241.1,525.8h3.9c1.9,0,3.1,1.2,3.1,3c0,1-0.4,1.7-0.8,2.1c-0.2,0.2-0.5,0.4-0.8,0.5l1.8,3.3h-2.1l-1.6-2.9
			H243v2.9h-1.9L241.1,525.8L241.1,525.8z M244.9,530c0.7,0,1.2-0.5,1.2-1.2s-0.5-1.2-1.2-1.2h-2v2.4L244.9,530L244.9,530z"/>
		<path class="st6" d="M250.3,525.8h1.9v7.1h4.1v1.8h-6L250.3,525.8L250.3,525.8z"/>
	</g>
	<g>
		<path class="st6" d="M36.8,567.3h0.7l2.9,3.8l2.9-3.8H44v7h-0.8v-5.7l-2.8,3.7l-2.8-3.7v5.7h-0.8
			C36.9,574.3,36.9,567.3,36.8,567.3z"/>
		<path class="st6" d="M46.2,567.5c0.2,0,0.5,0.2,0.5,0.5s-0.2,0.5-0.5,0.5s-0.5-0.2-0.5-0.5S45.9,567.5,46.2,567.5z M45.8,569.5
			h0.7v4.8h-0.7V569.5z"/>
		<path class="st6" d="M48.1,569.5h0.7v0.7c0.1-0.2,0.2-0.3,0.4-0.4c0.3-0.2,0.6-0.4,1.2-0.4c1.2,0,2,0.8,2,2v2.8h-0.7v-2.8
			c0-0.8-0.5-1.4-1.3-1.4c-0.8,0-1.5,0.6-1.5,1.6v2.7h-0.7V569.5L48.1,569.5z"/>
		<path class="st6" d="M55.7,571.9c0-1.4,1.1-2.5,2.5-2.5s2.5,1.1,2.5,2.5s-1.1,2.5-2.5,2.5S55.7,573.3,55.7,571.9z M59.9,571.9
			c0-1-0.8-1.8-1.8-1.8s-1.8,0.8-1.8,1.8s0.8,1.8,1.8,1.8S59.9,573,59.9,571.9z"/>
		<path class="st6" d="M61.8,569.5h0.7v0.7c0.1-0.1,0.2-0.3,0.4-0.4c0.3-0.2,0.7-0.4,1.2-0.4h0.2v0.7H64c-0.8,0-1.5,0.6-1.5,1.5v2.7
			h-0.7L61.8,569.5L61.8,569.5z"/>
		<path class="st6" d="M68.8,573.6c-0.1,0.2-0.2,0.3-0.4,0.4c-0.3,0.2-0.7,0.4-1.2,0.4c-1.3,0-2.3-1-2.3-2.5s1.1-2.5,2.3-2.5
			c0.6,0,1,0.2,1.2,0.4c0.2,0.1,0.3,0.2,0.4,0.4v-2.9h0.7v7h-0.7V573.6L68.8,573.6z M68.8,571.9c0-1-0.8-1.8-1.7-1.8
			c-0.9,0-1.7,0.8-1.7,1.8s0.7,1.8,1.7,1.8C68,573.8,68.8,573,68.8,571.9z"/>
		<path class="st6" d="M75.2,573.4c-0.1,0.2-0.3,0.3-0.5,0.5c-0.3,0.2-0.8,0.5-1.5,0.5c-1.3,0-2.4-1.1-2.4-2.5s1.1-2.5,2.3-2.5
			s2.3,1,2.3,2.4c0,0.1,0,0.2,0,0.3l0,0.1h-3.9c0.1,0.8,0.8,1.6,1.7,1.6c0.5,0,0.9-0.2,1.2-0.4c0.2-0.1,0.3-0.2,0.4-0.4L75.2,573.4z
			 M74.7,571.6c-0.1-0.8-0.8-1.5-1.6-1.5s-1.5,0.7-1.7,1.5H74.7z"/>
		<path class="st6" d="M76.7,569.5h0.7v0.7c0.1-0.1,0.2-0.3,0.4-0.4c0.3-0.2,0.7-0.4,1.2-0.4h0.2v0.7h-0.3c-0.8,0-1.5,0.6-1.5,1.5
			v2.7h-0.7L76.7,569.5L76.7,569.5z"/>
		<path class="st6" d="M82.2,572.8c0.1,0.2,0.3,0.3,0.5,0.4c0.3,0.2,0.8,0.4,1.4,0.4c1.1,0,1.6-0.5,1.6-1.3c0-1.8-3.8-0.8-3.8-3.3
			c0-0.9,0.7-1.8,1.9-1.9v-1h0.7v1c0.6,0.1,1,0.3,1.3,0.5c0.2,0.1,0.3,0.2,0.4,0.4l-0.5,0.5c-0.1-0.1-0.2-0.2-0.4-0.3
			c-0.3-0.2-0.6-0.3-1.2-0.3c-1,0-1.5,0.6-1.5,1.2c0,1.8,3.8,0.8,3.8,3.3c0,1-0.7,1.8-1.9,2v1h-0.7v-1c-0.7-0.1-1.2-0.3-1.6-0.6
			c-0.2-0.1-0.4-0.3-0.5-0.5L82.2,572.8L82.2,572.8z"/>
		<path class="st6" d="M91.8,573.6v0.7h-4.5c0-3,3.8-3,3.8-5c0-0.8-0.5-1.3-1.5-1.3c-0.6,0-1,0.3-1.2,0.6c-0.1,0.2-0.2,0.4-0.3,0.6
			l-0.7-0.3c0.1-0.3,0.2-0.6,0.4-0.8c0.3-0.4,0.8-0.8,1.8-0.8c1.4,0,2.2,0.9,2.2,2c0,2.2-3.1,2.5-3.7,4.3H91.8z"/>
		<path class="st6" d="M93,570.8c0-2.2,1.4-3.6,2.8-3.6s2.8,1.3,2.8,3.6s-1.3,3.6-2.8,3.6S93,573.1,93,570.8z M97.8,570.8
			c0-1.9-1-2.9-2.1-2.9s-2.1,1-2.1,2.9s1,2.9,2.1,2.9S97.8,572.7,97.8,570.8z"/>
		<path class="st6" d="M100.2,573.4c0.3,0,0.5,0.2,0.5,0.5s-0.2,0.5-0.5,0.5s-0.5-0.2-0.5-0.5S99.9,573.4,100.2,573.4z"/>
		<path class="st6" d="M103.7,567.3h0.8l2.3,6l2.3-6h0.8l-2.8,7h-0.7L103.7,567.3L103.7,567.3z"/>
		<path class="st6" d="M111.2,567.5c0.2,0,0.4,0.2,0.4,0.5s-0.2,0.5-0.4,0.5s-0.4-0.2-0.4-0.5S110.9,567.5,111.2,567.5z
			 M110.8,569.5h0.7v4.8h-0.7V569.5z"/>
		<path class="st6" d="M113.2,573.1c0.1,0.1,0.2,0.2,0.3,0.3c0.2,0.2,0.5,0.3,0.9,0.3c0.7,0,1.1-0.3,1.1-0.8c0-1.1-2.6-0.5-2.6-2.2
			c0-0.7,0.6-1.3,1.6-1.3c0.5,0,0.9,0.2,1.2,0.3c0.2,0.1,0.3,0.2,0.4,0.3l-0.5,0.5c-0.1-0.1-0.2-0.2-0.3-0.2
			c-0.2-0.1-0.4-0.2-0.8-0.2c-0.6,0-0.9,0.3-0.9,0.7c0,1,2.6,0.5,2.6,2.2c0,0.8-0.7,1.5-1.8,1.5c-0.6,0-1-0.2-1.3-0.4
			c-0.2-0.1-0.3-0.3-0.4-0.4L113.2,573.1L113.2,573.1z"/>
		<path class="st6" d="M117.8,567.5c0.2,0,0.4,0.2,0.4,0.5s-0.2,0.5-0.4,0.5s-0.4-0.2-0.4-0.5S117.5,567.5,117.8,567.5z
			 M117.4,569.5h0.7v4.8h-0.7V569.5z"/>
		<path class="st6" d="M120.1,570.2h-0.9v-0.7h0.6c0.3,0,0.4-0.2,0.4-0.5v-1.1h0.7v1.6h1.1v0.7h-1.1v2.8c0,0.5,0.2,0.8,0.7,0.8
			c0.2,0,0.3,0,0.5-0.1c0.1,0,0.1,0,0.2-0.1v0.7c-0.1,0-0.1,0-0.2,0.1c-0.1,0-0.3,0.1-0.5,0.1c-0.8,0-1.3-0.5-1.3-1.4
			C120.1,573,120.1,570.2,120.1,570.2z"/>
		<path class="st6" d="M125.4,567.3h0.7v7h-0.7V567.3z"/>
		<path class="st6" d="M127.4,571.9c0-1.4,1.1-2.5,2.4-2.5s2.4,1.1,2.4,2.5s-1.1,2.5-2.4,2.5S127.4,573.3,127.4,571.9z M131.6,571.9
			c0-1-0.8-1.8-1.8-1.8s-1.8,0.8-1.8,1.8s0.8,1.8,1.8,1.8S131.6,573,131.6,571.9z"/>
		<path class="st6" d="M133.6,569.5h0.7v0.7c0.1-0.2,0.2-0.3,0.4-0.4c0.3-0.2,0.6-0.4,1.2-0.4c1.1,0,1.9,0.8,1.9,2v2.8h-0.7v-2.8
			c0-0.8-0.5-1.4-1.3-1.4c-0.9,0-1.5,0.6-1.5,1.6v2.7h-0.7V569.5L133.6,569.5z"/>
		<path class="st6" d="M143,573.6c-0.1,0.2-0.2,0.3-0.4,0.4c-0.3,0.2-0.7,0.4-1.2,0.4c-1.3,0-2.4-1-2.4-2.5s1.1-2.5,2.4-2.5
			c0.6,0,1,0.2,1.2,0.4c0.2,0.1,0.3,0.2,0.4,0.4v-2.9h0.7v7H143V573.6L143,573.6z M143,571.9c0-1-0.8-1.8-1.6-1.8
			c-0.9,0-1.6,0.8-1.6,1.8s0.7,1.8,1.6,1.8C142.2,573.8,143,573,143,571.9z"/>
		<path class="st6" d="M145.1,571.9c0-1.4,1.1-2.5,2.4-2.5s2.4,1.1,2.4,2.5s-1.1,2.5-2.4,2.5S145.1,573.3,145.1,571.9z M149.2,571.9
			c0-1-0.8-1.8-1.8-1.8s-1.8,0.8-1.8,1.8s0.8,1.8,1.8,1.8S149.2,573,149.2,571.9z"/>
		<path class="st6" d="M151.2,569.5h0.7v0.7c0.1-0.2,0.2-0.3,0.4-0.4c0.3-0.2,0.6-0.4,1.2-0.4c1.1,0,1.9,0.8,1.9,2v2.8h-0.7v-2.8
			c0-0.8-0.5-1.4-1.3-1.4c-0.9,0-1.5,0.6-1.5,1.6v2.7h-0.7V569.5L151.2,569.5z"/>
		<path class="st6" d="M161,573.4c-0.1,0.2-0.3,0.3-0.5,0.5c-0.4,0.2-0.8,0.5-1.5,0.5c-1.3,0-2.4-1.1-2.4-2.5s1.1-2.5,2.4-2.5
			c0.6,0,1.1,0.2,1.4,0.5c0.2,0.1,0.4,0.3,0.5,0.5l-0.5,0.5c-0.1-0.2-0.2-0.3-0.4-0.4c-0.2-0.2-0.6-0.4-1.1-0.4
			c-0.9,0-1.7,0.8-1.7,1.8s0.8,1.8,1.7,1.8c0.5,0,0.8-0.2,1.1-0.4c0.1-0.1,0.3-0.2,0.4-0.4L161,573.4L161,573.4z"/>
		<path class="st6" d="M165,573.7c-0.1,0.1-0.2,0.3-0.4,0.4c-0.3,0.2-0.6,0.4-1.2,0.4c-1,0-1.7-0.7-1.7-1.4c0-0.8,0.5-1.3,1.4-1.5
			l1.9-0.3c0-0.7-0.5-1.2-1.2-1.2c-0.4,0-0.8,0.2-1,0.3c-0.1,0.1-0.2,0.2-0.4,0.3l-0.4-0.5c0.1-0.2,0.3-0.3,0.5-0.5
			c0.3-0.2,0.7-0.5,1.3-0.5c1.1,0,1.9,0.8,1.9,1.8v3H165V573.7L165,573.7z M165,571.9l-1.6,0.3c-0.6,0.1-0.9,0.4-0.9,0.8
			c0,0.4,0.4,0.8,1,0.8c0.9,0,1.6-0.6,1.6-1.6L165,571.9L165,571.9z"/>
		<path class="st6" d="M167.4,567.3h0.7v7h-0.7V567.3z"/>
		<path class="st6" d="M169.8,567.3h0.7v7h-0.7V567.3z"/>
		<path class="st6" d="M172.5,567.5c0.2,0,0.4,0.2,0.4,0.5s-0.2,0.5-0.4,0.5s-0.4-0.2-0.4-0.5S172.2,567.5,172.5,567.5z
			 M172.1,569.5h0.7v4.8h-0.7V569.5z"/>
		<path class="st6" d="M174.4,569.5h0.7v0.7c0.1-0.2,0.2-0.3,0.4-0.4c0.3-0.2,0.6-0.4,1.2-0.4c1.1,0,1.9,0.8,1.9,2v2.8h-0.7v-2.8
			c0-0.8-0.5-1.4-1.3-1.4c-0.9,0-1.5,0.6-1.5,1.6v2.7h-0.7V569.5L174.4,569.5z"/>
		<path class="st6" d="M180.6,575c0.1,0.2,0.2,0.3,0.4,0.4c0.3,0.2,0.6,0.4,1.1,0.4c0.9,0,1.6-0.8,1.6-1.8v-0.5
			c-0.1,0.1-0.2,0.3-0.4,0.4c-0.3,0.2-0.7,0.4-1.2,0.4c-1.2,0-2.2-1-2.2-2.4s1-2.4,2.2-2.4c0.6,0,1,0.2,1.2,0.4
			c0.1,0.1,0.3,0.2,0.4,0.4v-0.7h0.7v4.5c0,1.3-1.1,2.4-2.4,2.4c-0.7,0-1.2-0.2-1.5-0.5c-0.2-0.2-0.4-0.3-0.5-0.5L180.6,575
			L180.6,575z M183.8,571.8c0-1-0.7-1.8-1.6-1.8c-0.8,0-1.6,0.8-1.6,1.8s0.7,1.8,1.6,1.8C183,573.6,183.8,572.8,183.8,571.8z"/>
		<path class="st6" d="M186.3,573.4c0.3,0,0.5,0.2,0.5,0.5s-0.2,0.5-0.5,0.5s-0.5-0.2-0.5-0.5S186,573.4,186.3,573.4z"/>
		<path class="st6" d="M192.2,573.4c-0.1,0.2-0.3,0.3-0.5,0.5c-0.4,0.2-0.8,0.5-1.5,0.5c-1.3,0-2.4-1.1-2.4-2.5s1.1-2.5,2.4-2.5
			c0.6,0,1.1,0.2,1.4,0.5c0.2,0.1,0.4,0.3,0.5,0.5l-0.5,0.5c-0.1-0.2-0.2-0.3-0.4-0.4c-0.2-0.2-0.6-0.4-1.1-0.4
			c-0.9,0-1.7,0.8-1.7,1.8s0.8,1.8,1.7,1.8c0.5,0,0.8-0.2,1.1-0.4c0.1-0.1,0.3-0.2,0.4-0.4L192.2,573.4L192.2,573.4z"/>
		<path class="st6" d="M192.9,571.9c0-1.4,1.1-2.5,2.4-2.5s2.4,1.1,2.4,2.5s-1.1,2.5-2.4,2.5S192.9,573.3,192.9,571.9z M197.1,571.9
			c0-1-0.8-1.8-1.8-1.8s-1.8,0.8-1.8,1.8s0.8,1.8,1.8,1.8S197.1,573,197.1,571.9z"/>
		<path class="st6" d="M199,569.5h0.7v0.6c0.1-0.1,0.2-0.2,0.3-0.3c0.2-0.2,0.6-0.3,1-0.3c0.6,0,1,0.2,1.2,0.4
			c0.1,0.1,0.2,0.3,0.3,0.4c0.1-0.2,0.2-0.3,0.4-0.4c0.3-0.2,0.7-0.4,1.3-0.4c1.1,0,1.9,0.7,1.9,2v2.8h-0.7v-2.8
			c0-0.9-0.5-1.4-1.2-1.4s-1.3,0.6-1.3,1.6v2.7h-0.7v-2.8c0-0.9-0.5-1.4-1.2-1.4s-1.3,0.6-1.3,1.6v2.7H199L199,569.5L199,569.5z"/>
		<path class="st6" d="M210.1,570.2h-0.8v-0.7h0.8v-0.9c0-0.9,0.5-1.4,1.3-1.4c0.2,0,0.4,0,0.5,0.1c0.1,0,0.1,0,0.2,0.1v0.7
			l-0.2-0.1c-0.1,0-0.3-0.1-0.5-0.1c-0.4,0-0.6,0.2-0.6,0.8v0.9h1.1v0.7h-1.1v4.2h-0.7V570.2z"/>
		<path class="st6" d="M212.6,571.9c0-1.4,1.1-2.5,2.4-2.5s2.4,1.1,2.4,2.5s-1.1,2.5-2.4,2.5S212.6,573.3,212.6,571.9z M216.8,571.9
			c0-1-0.8-1.8-1.8-1.8s-1.8,0.8-1.8,1.8s0.8,1.8,1.8,1.8S216.8,573,216.8,571.9z"/>
		<path class="st6" d="M218.8,569.5h0.7v0.7c0.1-0.1,0.2-0.3,0.4-0.4c0.3-0.2,0.6-0.4,1.2-0.4h0.2v0.7H221c-0.8,0-1.5,0.6-1.5,1.5
			v2.7h-0.7V569.5L218.8,569.5z"/>
		<path class="st6" d="M224.4,570.2h-0.8v-0.7h0.8v-0.9c0-0.9,0.5-1.4,1.3-1.4c0.2,0,0.4,0,0.5,0.1c0.1,0,0.1,0,0.2,0.1v0.7
			l-0.2-0.1c-0.1,0-0.3-0.1-0.5-0.1c-0.4,0-0.6,0.2-0.6,0.8v0.9h1.1v0.7h-1.1v4.2h-0.7V570.2z"/>
		<path class="st6" d="M227.4,569.5h0.7v2.8c0,0.8,0.6,1.5,1.4,1.5c0.8,0,1.4-0.6,1.4-1.6v-2.7h0.7v4.8h-0.7v-0.7
			c-0.1,0.1-0.2,0.3-0.4,0.4c-0.3,0.2-0.6,0.4-1.2,0.4c-1.1,0-1.9-0.8-1.9-2.1V569.5z"/>
		<path class="st6" d="M233.2,567.3h0.7v7h-0.7V567.3z"/>
		<path class="st6" d="M235.6,567.3h0.7v7h-0.7V567.3z"/>
		<path class="st6" d="M241.7,568h-2.2v-0.7h5.1v0.7h-2.2v6.3h-0.8V568z"/>
		<path class="st6" d="M249.3,572.6c0.1-0.1,0.1-0.3,0.2-0.5c0.1-0.3,0.2-0.7,0.2-1.2h0.6c0,0.7-0.2,1.2-0.3,1.6
			c-0.1,0.2-0.2,0.4-0.3,0.6c0.1,0.1,0.1,0.2,0.2,0.3c0.1,0.2,0.3,0.3,0.6,0.3c0.1,0,0.1,0,0.2,0l0.1,0v0.7l-0.1,0
			c-0.1,0-0.2,0-0.2,0c-0.4,0-0.6-0.2-0.8-0.4c-0.1-0.1-0.2-0.2-0.3-0.4c-0.1,0.2-0.3,0.3-0.5,0.4c-0.3,0.2-0.8,0.4-1.4,0.4
			c-1.2,0-2-0.8-2-1.7c0-0.6,0.3-1.1,0.7-1.5c0.2-0.2,0.4-0.4,0.7-0.6c-0.2-0.2-0.4-0.4-0.5-0.6c-0.3-0.4-0.5-0.8-0.5-1.3
			c0-0.8,0.7-1.5,1.6-1.5s1.6,0.7,1.6,1.5c0,0.5-0.3,1-0.6,1.4c-0.2,0.2-0.4,0.4-0.6,0.6L249.3,572.6L249.3,572.6z M247.3,571.1
			c-0.2,0.2-0.4,0.3-0.6,0.5c-0.3,0.3-0.6,0.7-0.6,1.1c0,0.6,0.5,1,1.4,1c0.4,0,0.8-0.2,1-0.3c0.1-0.1,0.3-0.2,0.4-0.3L247.3,571.1
			L247.3,571.1z M247.9,569.8c0.2-0.3,0.5-0.6,0.5-1c0-0.5-0.4-0.9-0.9-0.9s-0.9,0.4-0.9,0.9c0,0.3,0.2,0.7,0.4,1
			c0.1,0.2,0.3,0.3,0.4,0.5C247.6,570.1,247.7,569.9,247.9,569.8z"/>
		<path class="st6" d="M258.2,573c-0.2,0.3-0.5,0.5-0.7,0.7c-0.5,0.4-1.2,0.7-2.2,0.7c-2,0-3.6-1.6-3.6-3.6s1.6-3.6,3.6-3.6
			c1,0,1.7,0.4,2.1,0.7c0.3,0.2,0.5,0.5,0.7,0.7l-0.5,0.5c-0.2-0.2-0.4-0.4-0.6-0.6c-0.4-0.3-1-0.6-1.8-0.6c-1.6,0-2.9,1.2-2.9,2.9
			s1.2,2.9,2.9,2.9c0.8,0,1.4-0.3,1.8-0.6c0.2-0.2,0.4-0.4,0.6-0.6L258.2,573L258.2,573z"/>
		<path class="st6" d="M259.5,573.1c0.1,0.1,0.2,0.2,0.3,0.3c0.2,0.2,0.5,0.3,0.9,0.3c0.7,0,1-0.3,1-0.8c0-1.1-2.6-0.5-2.6-2.2
			c0-0.7,0.6-1.3,1.6-1.3c0.5,0,0.9,0.2,1.1,0.3c0.1,0.1,0.3,0.2,0.4,0.3l-0.5,0.5c-0.1-0.1-0.2-0.2-0.3-0.2
			c-0.2-0.1-0.4-0.2-0.8-0.2c-0.5,0-0.9,0.3-0.9,0.7c0,1,2.6,0.5,2.6,2.2c0,0.8-0.7,1.5-1.8,1.5c-0.6,0-1-0.2-1.3-0.4
			c-0.2-0.1-0.3-0.3-0.4-0.4L259.5,573.1L259.5,573.1z"/>
		<path class="st6" d="M264,573.4c0.3,0,0.5,0.2,0.5,0.5s-0.2,0.5-0.5,0.5s-0.5-0.2-0.5-0.5S263.6,573.4,264,573.4z"/>
		<path class="st6" d="M45.7,579.2h0.7l4.3,5.7v-5.7h0.8v7h-0.7l-4.3-5.7v5.7h-0.8V579.2z"/>
		<path class="st6" d="M53.3,584.7c0.1,0.2,0.3,0.3,0.5,0.4c0.3,0.2,0.8,0.4,1.4,0.4c1,0,1.6-0.5,1.6-1.3c0-1.8-3.8-0.8-3.8-3.3
			c0-1,0.9-1.9,2.2-1.9c0.7,0,1.2,0.2,1.5,0.5c0.2,0.1,0.4,0.3,0.5,0.5l-0.5,0.5c-0.1-0.1-0.2-0.2-0.4-0.3c-0.3-0.2-0.6-0.3-1.2-0.3
			c-1,0-1.5,0.6-1.5,1.2c0,1.8,3.8,0.8,3.8,3.3c0,1.2-0.8,2-2.3,2c-0.8,0-1.4-0.2-1.8-0.5c-0.2-0.2-0.4-0.3-0.6-0.5L53.3,584.7z"/>
		<path class="st6" d="M58.2,579.2H59l1.8,5.8l1.9-5.8h0.7l1.9,5.8l1.8-5.8H68l-2.3,7h-0.8l-1.8-5.8l-1.8,5.8h-0.8
			C60.5,586.2,58.2,579.2,58.2,579.2z"/>
		<path class="st6" d="M72.4,579.9h-2.2v-0.7h5.2v0.7h-2.2v6.3h-0.8C72.5,586.2,72.5,579.9,72.4,579.9z"/>
		<path class="st6" d="M76.7,579.2h2.7c1.3,0,2.2,1,2.2,2.2s-0.9,2.2-2.2,2.2h-1.9v2.6h-0.8V579.2z M79.3,582.9
			c0.9,0,1.5-0.6,1.5-1.5s-0.6-1.5-1.5-1.5h-1.9v3H79.3z"/>
		<path class="st6" d="M85.1,579.1h0.7l-3,9.2h-0.7L85.1,579.1z"/>
		<path class="st6" d="M86.3,582.7c0-2.2,1.4-3.6,2.8-3.6s2.8,1.3,2.8,3.6s-1.3,3.6-2.8,3.6S86.4,584.9,86.3,582.7z M91.2,582.7
			c0-1.9-1-2.9-2.1-2.9s-2.1,1-2.1,2.9s1,2.9,2.1,2.9S91.2,584.6,91.2,582.7z"/>
		<path class="st6" d="M97.4,585.5v0.7h-4.5c0-3,3.8-3,3.8-5c0-0.8-0.5-1.3-1.5-1.3c-0.6,0-1,0.3-1.2,0.6c-0.1,0.2-0.2,0.4-0.3,0.6
			l-0.7-0.3c0.1-0.3,0.2-0.6,0.4-0.8c0.3-0.4,0.8-0.8,1.8-0.8c1.4,0,2.2,0.9,2.2,2c0,2.2-3.1,2.5-3.7,4.3H97.4z"/>
		<path class="st6" d="M98.7,582.7c0-2.2,1.4-3.6,2.8-3.6s2.8,1.3,2.8,3.6s-1.3,3.6-2.8,3.6S98.7,584.9,98.7,582.7z M103.5,582.7
			c0-1.9-1-2.9-2.1-2.9s-2.1,1-2.1,2.9s1,2.9,2.1,2.9S103.5,584.6,103.5,582.7z"/>
		<path class="st6" d="M108,579.2h0.8l-1.7,2.6l0.2,0c0.1,0,0.3,0,0.6,0c1.4,0,2.3,1,2.3,2.3s-1,2.3-2.4,2.3s-2.4-1-2.4-2.3
			c0-0.4,0.1-0.8,0.2-1.1c0.1-0.2,0.2-0.3,0.2-0.4C105.9,582.5,108,579.2,108,579.2z M107.8,585.6c1,0,1.7-0.6,1.7-1.6
			s-0.7-1.6-1.7-1.6s-1.7,0.6-1.7,1.6S106.8,585.6,107.8,585.6z"/>
		<path class="st6" d="M115.6,585.5v0.7h-4.5c0-3,3.8-3,3.8-5c0-0.8-0.5-1.3-1.5-1.3c-0.6,0-1,0.3-1.2,0.6c-0.1,0.2-0.2,0.4-0.3,0.6
			l-0.7-0.3c0.1-0.3,0.2-0.6,0.4-0.8c0.3-0.4,0.8-0.8,1.8-0.8c1.4,0,2.2,0.9,2.2,2c0,2.2-3.1,2.5-3.7,4.3H115.6z"/>
		<path class="st6" d="M117.3,585.3c0.3,0,0.5,0.2,0.5,0.5s-0.2,0.5-0.5,0.5s-0.5-0.2-0.5-0.5S117,585.3,117.3,585.3z"/>
		<path class="st6" d="M123.5,579.2h0.7l2.9,7h-0.8l-0.8-2h-3.3l-0.8,2h-0.8L123.5,579.2L123.5,579.2z M125.2,583.5l-1.3-3.3
			l-1.3,3.3H125.2z"/>
		<path class="st6" d="M134.2,584.8c-0.2,0.3-0.4,0.5-0.7,0.7c-0.5,0.4-1.2,0.7-2.2,0.7c-2,0-3.6-1.6-3.6-3.6s1.6-3.6,3.6-3.6
			c1,0,1.7,0.4,2.1,0.7c0.3,0.2,0.5,0.5,0.7,0.7l-0.5,0.5c-0.2-0.2-0.4-0.4-0.6-0.6c-0.4-0.3-1-0.6-1.8-0.6c-1.6,0-2.9,1.2-2.9,2.9
			s1.2,2.9,2.9,2.9c0.8,0,1.4-0.3,1.8-0.6c0.2-0.2,0.4-0.4,0.6-0.6L134.2,584.8L134.2,584.8z"/>
		<path class="st6" d="M137.1,579.9h-2.2v-0.7h5.1v0.7h-2.2v6.3h-0.8V579.9z"/>
		<path class="st6" d="M144.4,579.9h-2.2v-0.7h5.1v0.7h-2.2v6.3h-0.8V579.9z"/>
		<path class="st6" d="M148.6,579.2h2.6c1.3,0,2.2,1,2.2,2.2s-0.9,2.2-2.2,2.2h-1.9v2.6h-0.8V579.2z M151.2,582.9
			c0.9,0,1.5-0.6,1.5-1.5s-0.6-1.5-1.5-1.5h-1.9v3H151.2z"/>
		<path class="st6" d="M160.7,585.5v0.7h-4.5c0-3,3.8-3,3.8-5c0-0.8-0.5-1.3-1.5-1.3c-0.6,0-1,0.3-1.2,0.6c-0.1,0.2-0.2,0.4-0.3,0.6
			l-0.6-0.3c0.1-0.3,0.2-0.6,0.4-0.8c0.3-0.4,0.8-0.8,1.8-0.8c1.4,0,2.2,0.9,2.2,2c0,2.2-3.1,2.5-3.6,4.3H160.7z"/>
		<path class="st6" d="M166.2,585.5v0.7h-4.5c0-3,3.8-3,3.8-5c0-0.8-0.5-1.3-1.5-1.3c-0.6,0-1,0.3-1.2,0.6c-0.1,0.2-0.2,0.4-0.3,0.6
			l-0.6-0.3c0.1-0.3,0.2-0.6,0.4-0.8c0.3-0.4,0.8-0.8,1.8-0.8c1.4,0,2.2,0.9,2.2,2c0,2.2-3.1,2.5-3.6,4.3H166.2z"/>
		<path class="st6" d="M169.9,579.1h0.6l-3,9.2h-0.6L169.9,579.1z"/>
		<path class="st6" d="M171.1,582.7c0-2.2,1.4-3.6,2.8-3.6s2.8,1.3,2.8,3.6s-1.4,3.6-2.8,3.6S171.1,584.9,171.1,582.7L171.1,582.7z
			 M176,582.7c0-1.9-1-2.9-2.1-2.9s-2.1,1-2.1,2.9s1,2.9,2.1,2.9S175.9,584.6,176,582.7L176,582.7z"/>
		<path class="st6" d="M179,580.6h-1.3v-0.5c0.6,0,1-0.3,1.2-0.5c0.1-0.1,0.2-0.3,0.3-0.5h0.6v7H179V580.6z"/>
		<path class="st6" d="M182.1,584.7c0.1,0.2,0.3,0.3,0.4,0.4c0.3,0.2,0.8,0.4,1.4,0.4c1,0,1.6-0.6,1.6-1.6s-0.6-1.6-1.6-1.6
			c-0.5,0-0.9,0.2-1.2,0.4c-0.1,0.1-0.3,0.2-0.4,0.4h-0.6l0.2-4h3.8v0.7h-3.1l-0.1,2.2c0.1-0.1,0.2-0.1,0.4-0.2
			c0.2-0.1,0.6-0.2,1-0.2c1.4,0,2.4,1,2.4,2.3s-0.9,2.3-2.4,2.3c-0.8,0-1.3-0.2-1.7-0.5c-0.2-0.2-0.4-0.3-0.6-0.5L182.1,584.7
			L182.1,584.7z"/>
		<path class="st6" d="M191.5,585.5v0.7H187c0-3,3.8-3,3.8-5c0-0.8-0.5-1.3-1.5-1.3c-0.6,0-1,0.3-1.2,0.6c-0.1,0.2-0.2,0.4-0.3,0.6
			l-0.6-0.3c0.1-0.3,0.2-0.6,0.4-0.8c0.3-0.4,0.8-0.8,1.8-0.8c1.4,0,2.2,0.9,2.2,2c0,2.2-3.1,2.5-3.6,4.3H191.5z"/>
		<path class="st6" d="M193.9,580.6h-1.3v-0.5c0.6,0,1-0.3,1.2-0.5c0.1-0.1,0.2-0.3,0.3-0.5h0.6v7h-0.8V580.6z"/>
		<path class="st6" d="M196.7,585.3c0.3,0,0.5,0.2,0.5,0.5s-0.2,0.5-0.5,0.5s-0.5-0.2-0.5-0.5S196.4,585.3,196.7,585.3z"/>
		<path class="st6" d="M200.8,584.7c0.1,0.2,0.3,0.3,0.5,0.4c0.3,0.2,0.8,0.4,1.4,0.4c1.1,0,1.6-0.5,1.6-1.3c0-1.8-3.8-0.8-3.8-3.3
			c0-1,0.9-1.9,2.2-1.9c0.7,0,1.2,0.2,1.5,0.5c0.2,0.1,0.4,0.3,0.5,0.5l-0.5,0.5c-0.1-0.1-0.2-0.2-0.4-0.3c-0.3-0.2-0.6-0.3-1.2-0.3
			c-1,0-1.5,0.6-1.5,1.2c0,1.8,3.8,0.8,3.8,3.3c0,1.2-0.9,2-2.4,2c-0.8,0-1.4-0.2-1.8-0.5c-0.2-0.2-0.4-0.3-0.6-0.5L200.8,584.7z"/>
		<path class="st6" d="M208.6,579.2h0.7l2.9,7h-0.8l-0.8-2h-3.3l-0.8,2h-0.8L208.6,579.2L208.6,579.2z M210.3,583.5l-1.4-3.3
			l-1.4,3.3H210.3L210.3,583.5z"/>
		<path class="st6" d="M216.6,579.9h-2.2v-0.7h5.1v0.7h-2.2v6.3h-0.8V579.9z"/>
		<path class="st6" d="M224.6,585.5v0.7h-4.5c0-3,3.8-3,3.8-5c0-0.8-0.5-1.3-1.5-1.3c-0.6,0-1,0.3-1.2,0.6c-0.1,0.2-0.2,0.4-0.3,0.6
			l-0.6-0.3c0.1-0.3,0.2-0.6,0.4-0.8c0.3-0.4,0.8-0.8,1.8-0.8c1.4,0,2.2,0.9,2.2,2c0,2.2-3.1,2.5-3.6,4.3H224.6z"/>
		<path class="st6" d="M230.1,585.5v0.7h-4.5c0-3,3.8-3,3.8-5c0-0.8-0.5-1.3-1.5-1.3c-0.6,0-1,0.3-1.2,0.6c-0.1,0.2-0.2,0.4-0.3,0.6
			l-0.6-0.3c0.1-0.3,0.2-0.6,0.4-0.8c0.3-0.4,0.8-0.8,1.8-0.8c1.4,0,2.2,0.9,2.2,2c0,2.2-3.1,2.5-3.6,4.3H230.1z"/>
		<path class="st6" d="M233.8,579.1h0.6l-3,9.2h-0.6L233.8,579.1z"/>
		<path class="st6" d="M236.1,580.6h-1.3v-0.5c0.6,0,1-0.3,1.2-0.5c0.1-0.1,0.2-0.3,0.3-0.5h0.6v7h-0.8V580.6z"/>
		<path class="st6" d="M239.6,580.6h-1.3v-0.5c0.6,0,1-0.3,1.2-0.5c0.1-0.1,0.2-0.3,0.3-0.5h0.6v7h-0.8V580.6z"/>
		<path class="st6" d="M245,583.6c-0.1,0-0.1,0-0.2,0c-0.1,0-0.3,0-0.6,0c-1.4,0-2.4-1-2.4-2.3s1-2.3,2.4-2.3s2.4,1,2.4,2.3
			c0,0.4-0.1,0.8-0.2,1.1c-0.1,0.2-0.2,0.3-0.2,0.4l-2.1,3.3h-0.8L245,583.6L245,583.6z M244.3,583c1,0,1.6-0.6,1.6-1.6
			s-0.6-1.6-1.6-1.6s-1.6,0.6-1.6,1.6S243.3,583,244.3,583z"/>
		<path class="st6" d="M247.9,582.7c0-2.2,1.4-3.6,2.8-3.6s2.8,1.3,2.8,3.6s-1.4,3.6-2.8,3.6S247.9,584.9,247.9,582.7L247.9,582.7z
			 M252.8,582.7c0-1.9-1-2.9-2.1-2.9s-2.1,1-2.1,2.9s1,2.9,2.1,2.9S252.7,584.6,252.8,582.7L252.8,582.7z"/>
		<path class="st6" d="M255.1,585.3c0.3,0,0.5,0.2,0.5,0.5s-0.2,0.5-0.5,0.5s-0.5-0.2-0.5-0.5S254.8,585.3,255.1,585.3z"/>
	</g>
	<g>
		<path class="st5" d="M117.5,404.1c0,0,4.7-6.2,15.5-6.2s15.5,6.2,15.5,6.2l-1.4,0.9H119L117.5,404.1L117.5,404.1z"/>
		<path class="st7" d="M118.9,405.1v6.4h28.3v-6.4c0,0-4.2-5.6-14.1-5.6S118.9,405.1,118.9,405.1z"/>
		<g>
			<rect x="117.9" y="410.4" class="st7" width="30.4" height="68.4"/>
			<polygon class="st6" points="120.7,413.8 120.7,478.8 121.3,478.8 121.3,414.4 144.9,414.4 144.9,478.8 145.4,478.8 145.4,413.8 
							"/>
			<g>
				<rect x="129" y="432.2" class="st6" width="8.2" height="7.1"/>
				<rect x="129" y="448.2" class="st6" width="8.2" height="7.1"/>
				<rect x="124.6" y="440.2" class="st6" width="3.6" height="7.1"/>
				<rect x="129" y="440.2" class="st6" width="8.2" height="7.1"/>
				<rect x="124.6" y="432.2" class="st6" width="3.6" height="7.1"/>
				<rect x="124.6" y="424.2" class="st6" width="3.6" height="7.1"/>
				<rect x="129" y="464.2" class="st6" width="8.2" height="6"/>
				<rect x="129" y="456.2" class="st6" width="8.2" height="7.1"/>
				<rect x="129" y="424.2" class="st6" width="8.2" height="7.1"/>
				<rect x="129" y="417.4" class="st6" width="8.2" height="6"/>
				<rect x="138" y="417.4" class="st6" width="3.6" height="6"/>
				<rect x="124.6" y="448.2" class="st6" width="3.6" height="7.1"/>
				<rect x="138" y="424.2" class="st6" width="3.6" height="7.1"/>
				<rect x="124.6" y="417.4" class="st6" width="3.6" height="6"/>
				<rect x="138" y="464.2" class="st6" width="3.6" height="6"/>
				<rect x="124.6" y="464.2" class="st6" width="3.6" height="6"/>
				<rect x="138" y="432.2" class="st6" width="3.6" height="7.1"/>
				<rect x="138" y="456.2" class="st6" width="3.6" height="7.1"/>
				<rect x="124.6" y="456.2" class="st6" width="3.6" height="7.1"/>
				<rect x="138" y="448.2" class="st6" width="3.6" height="7.1"/>
				<rect x="138" y="440.2" class="st6" width="3.6" height="7.1"/>
			</g>
		</g>
		<path class="st12" d="M133.1,402.4c0.2,0,0.3,0.2,0.3,0.4v0.8c0.1,0,0.2-0.1,0.3-0.1c0-0.1,0.1-0.2,0.3-0.2c0.1,0,0.2,0,0.2,0.1
			c0,0,0.1,0,0.1,0c0-0.1,0.1-0.2,0.3-0.2c0.1,0,0.2,0.1,0.2,0.2h0c0,0,0.1,0,0.1,0c0-0.1,0.1-0.2,0.3-0.2c0.1,0,0.2,0.1,0.3,0.2
			c0,0,0.1,0,0.1,0c0-0.1,0.1-0.2,0.2-0.2c0.1,0,0.3,0.1,0.3,0.3c0,0,0,0.1,0,0.1c0,0,0.1,0,0.1,0c0.1-0.1,0.1-0.1,0.2-0.1
			c0.1,0,0.3,0.1,0.3,0.3c0,0.1,0,0.1-0.1,0.2c0,0,0,0,0.1,0.1c0,0,0.1,0,0.1,0c0.1,0,0.3,0.1,0.3,0.3c0,0.1-0.1,0.2-0.2,0.3
			c0,0,0,0.1,0,0.1c0.1,0,0.2,0.1,0.2,0.3c0,0.1-0.1,0.3-0.2,0.3c0,0,0,0.1,0,0.1c0.1,0,0.1,0.1,0.1,0.2c0,0.1-0.1,0.3-0.3,0.3
			c0,0,0,0,0,0c-0.3,0.7-0.6,1.3-0.8,2c-0.1,0.2-0.4,0.3-0.6,0.3c-1.2-0.4-3.1-0.4-4.3,0c-0.2,0.1-0.5,0-0.6-0.3
			c-0.3-0.7-0.5-1.3-0.8-2c0,0,0,0,0,0c-0.1,0-0.3-0.1-0.3-0.3c0-0.1,0-0.2,0.1-0.2c0,0,0-0.1,0-0.1c-0.1,0-0.2-0.1-0.2-0.3
			c0-0.1,0.1-0.2,0.2-0.3c0,0,0-0.1,0-0.1c-0.1,0-0.2-0.1-0.2-0.3c0-0.1,0.1-0.3,0.3-0.3c0,0,0.1,0,0.1,0c0,0,0-0.1,0.1-0.1
			c-0.1,0-0.1-0.1-0.1-0.2c0-0.1,0.1-0.3,0.3-0.3c0.1,0,0.2,0,0.2,0.1c0,0,0.1,0,0.1,0c0,0,0-0.1,0-0.1c0-0.1,0.1-0.3,0.3-0.3
			c0.1,0,0.2,0.1,0.2,0.2c0,0,0.1,0,0.1,0c0-0.1,0.1-0.2,0.3-0.2c0.1,0,0.2,0.1,0.3,0.2c0,0,0.1,0,0.1,0h0c0-0.1,0.1-0.2,0.2-0.2
			c0.1,0,0.2,0.1,0.3,0.2c0,0,0.1,0,0.1,0c0.1-0.1,0.1-0.1,0.2-0.1c0.1,0,0.2,0.1,0.3,0.2c0.1,0,0.2,0.1,0.3,0.1v-0.8
			c0-0.2,0.1-0.4,0.3-0.4v-0.2c0,0,0-0.1-0.1-0.1h-0.1v0c0,0.1-0.1,0.1-0.1,0.1l0,0c-0.1,0-0.1-0.1-0.1-0.2l0-0.3
			c0-0.1,0.1-0.1,0.1-0.1c0.1,0,0.1,0.1,0.1,0.1h0.1c0.1,0,0.1,0,0.1-0.1v0c0,0,0-0.1-0.1-0.1c-0.1,0-0.1-0.1-0.1-0.1
			s0.1-0.1,0.1-0.1h0.4c0.1,0,0.1,0.1,0.1,0.1c0,0.1-0.1,0.1-0.1,0.1c-0.1,0-0.1,0-0.1,0.1v0c0,0,0,0.1,0.1,0.1h0.1
			c0-0.1,0.1-0.1,0.1-0.1c0.1,0,0.1,0,0.1,0.1l0,0.3c0,0.1-0.1,0.1-0.1,0.2c-0.1,0-0.1,0-0.1-0.1v0h-0.1c-0.1,0-0.1,0-0.1,0.1
			L133.1,402.4L133.1,402.4L133.1,402.4z M131,405.8L131,405.8c0-0.5,0.4-0.6,0.6-0.1c0,0,0.1,0.1,0.1,0.1c0.1,0,0.2,0,0.2,0.1
			c0,0.1,0,0.2,0,0.3c0,0.2-0.1,0.2-0.2,0.1c0,0-0.1-0.1-0.1-0.1c-0.1,0-0.1,0.3,0,0.4c0,0.1,0.1,0.1,0.1,0.2c0,0.1,0.1,0.1,0.2,0.1
			c0.2,0,0.4,0,0.6-0.1c0.1,0,0.2-0.1,0.2-0.2v-0.3c0-0.1-0.1-0.1-0.1-0.1l0,0c0,0-0.1,0-0.1,0c0,0,0,0,0,0.1c0,0.1-0.1,0.2-0.1,0.2
			c-0.1,0-0.2-0.1-0.2-0.2l-0.1-0.7c0,0,0-0.1,0.1-0.1h0.1c0.1,0,0.2,0.1,0.2,0.2v0c0,0,0,0.1,0.1,0.1h0c0.1,0,0.1,0,0.1-0.1v-0.3
			c0-0.1-0.1-0.1-0.1-0.1h-0.2c-0.1,0-0.2-0.1-0.2-0.2c0-0.1,0.1-0.2,0.2-0.2c0.1,0,0.1-0.1,0.1-0.2v-0.5c-0.6-0.2-1.1-0.3-1.5-0.3
			c-0.5,0-0.8,0.1-1.1,0.2c-0.2,0.2-0.3,0.5-0.2,0.9c0,0.2,0.1,0.4,0.2,0.6c0.2,0,0.3,0.1,0.4,0.3c0.1,0.2,0.1,0.6,0.2,0.8
			c0,0,0,0,0,0l0.2,0.3c0,0,0.1,0.1,0.1,0.1c0.1,0,0.1,0,0.2,0c0.1,0,0.1-0.1,0.1-0.1c0-0.1,0-0.2,0-0.3c0-0.1-0.1-0.3-0.2-0.4
			c-0.1,0-0.1,0.1-0.1,0.1c0,0.2-0.1,0.1-0.2,0c0-0.1-0.1-0.2-0.1-0.3s0.1-0.2,0.2-0.2C131,405.9,131,405.8,131,405.8L131,405.8
			L131,405.8z M134.9,405.8L134.9,405.8c0,0,0,0.1,0.1,0.1c0.1,0,0.2,0.1,0.2,0.2c0,0.1,0,0.2-0.1,0.3c-0.1,0.1-0.2,0.2-0.2,0
			c0,0,0-0.1-0.1-0.1c-0.1,0-0.2,0.2-0.2,0.4c0,0.1,0,0.2,0,0.3c0,0.1,0,0.1,0.1,0.1c0.1,0,0.1,0,0.2,0c0.1,0,0.1,0,0.1-0.1l0.2-0.3
			c0,0,0,0,0,0c0.1-0.1,0.1-0.5,0.2-0.8c0.1-0.1,0.2-0.2,0.4-0.3c0.1-0.2,0.2-0.4,0.2-0.6c0.1-0.4,0-0.7-0.3-0.9
			c-0.2-0.2-0.6-0.3-1.1-0.2c-0.4,0-0.9,0.1-1.5,0.3v0.5c0,0.1,0,0.2,0.1,0.2c0.1,0,0.2,0.1,0.2,0.2c0,0.1-0.1,0.2-0.2,0.2h-0.3
			c-0.1,0-0.1,0-0.1,0.1v0.3c0,0.1,0.1,0.1,0.1,0.1h0c0,0,0.1,0,0.1-0.1v0c0-0.1,0.1-0.2,0.2-0.2h0.1c0,0,0.1,0,0.1,0.1l0,0.7
			c0,0.1-0.1,0.2-0.2,0.2c-0.1,0-0.1,0-0.1-0.2c0,0,0,0,0-0.1c0,0,0,0-0.1,0l0,0c-0.1,0-0.1,0-0.1,0.1v0.3c0,0.1,0.1,0.2,0.2,0.2
			c0.2,0,0.4,0,0.6,0.1c0.1,0,0.2,0,0.2-0.1c0-0.1,0.1-0.1,0.1-0.2c0.1-0.1,0-0.3,0-0.4c-0.1,0-0.1,0-0.1,0.1
			c-0.1,0.1-0.2,0.1-0.2-0.1c0-0.1,0-0.2,0-0.3c0-0.1,0.1-0.1,0.2-0.1c0.1,0,0.1,0,0.1-0.1C134.6,405.2,135,405.3,134.9,405.8
			L134.9,405.8z"/>
	</g>
</g>
</svg>
