<?xml version="1.0" encoding="UTF-8"?><svg id="Layer_2" xmlns="http://www.w3.org/2000/svg" viewBox="0 0 185.52 34.59"><defs><style>.cls-1{fill:#ff3008;}</style></defs><g id="Layer_3"><g><path class="cls-1" d="M0,.94H10.52l.61,17.99h.23L20.33,.94h8.41l1.31,17.99h.23L38.56,.94h11.92l-17.67,32.72h-9.35l-1.64-17.29h-.19l-8.93,17.29H3.83L0,.94Z"/><path class="cls-1" d="M58.54,.94h11.92l5,32.72h-10.75l-.56-6.31h-9.58l-3.18,6.31h-11.68L58.54,.94Zm5.05,19.16l-.61-9.11h-.23l-4.53,9.11h5.37Z"/><path class="cls-1" d="M84.68,21.97L77.43,.94h10.75l2.76,12.39h.23L99.17,.94h12.15l-16.12,21.03-2.48,11.68h-10.52l2.48-11.68Z"/><path class="cls-1" d="M128.29,10.52h-8.65l2.01-9.58h27.81l-2.01,9.58h-8.65l-4.91,23.14h-10.52l4.91-23.14Z"/><path class="cls-1" d="M168.23,0c10.61,0,17.29,7.34,17.29,16.12,0,10.24-8.65,18.46-19.86,18.46-10.61,0-17.29-7.34-17.29-16.12,0-10.24,8.65-18.46,19.86-18.46Zm-2.1,25.24c4.91,0,8.88-3.83,8.88-8.88,0-3.74-2.99-7.01-7.24-7.01-4.91,0-8.88,3.83-8.88,8.88,0,3.74,2.99,7.01,7.24,7.01Z"/></g></g></svg>