<?xml version="1.0" encoding="UTF-8"?><svg id="Layer_2" xmlns="http://www.w3.org/2000/svg" viewBox="0 0 228.29 13.32"><defs><style>.cls-1{fill:#27346b;}</style></defs><g id="Layer_3"><g><path class="cls-1" d="M0,.36H9.54V3.6H3.42v2.16h4.68v3.06H3.42v4.14H0V.36Z"/><path class="cls-1" d="M17.55,0c4.03,0,7.02,2.97,7.02,6.66s-2.99,6.66-7.02,6.66-7.02-2.97-7.02-6.66S13.52,0,17.55,0Zm0,10.17c1.96,0,3.51-1.53,3.51-3.51s-1.55-3.51-3.51-3.51-3.51,1.55-3.51,3.51,1.53,3.51,3.51,3.51Z"/><path class="cls-1" d="M26.7,.36h5.94c2.68,0,4.59,1.89,4.59,4.32,0,1.37-.52,2.25-1.08,2.81-.31,.32-.67,.59-1.08,.79l2.61,4.68h-3.6l-2.07-3.96h-1.89v3.96h-3.42V.36Zm5.76,5.58c.81,0,1.35-.54,1.35-1.26s-.54-1.26-1.35-1.26h-2.34v2.52h2.34Z"/><path class="cls-1" d="M46.41,8.46L41.91,.36h3.78l2.4,4.95h.07L50.55,.36h3.78l-4.5,8.1v4.5h-3.42v-4.5Z"/><path class="cls-1" d="M61.11,0c4.03,0,7.02,2.97,7.02,6.66s-2.99,6.66-7.02,6.66-7.02-2.97-7.02-6.66,2.99-6.66,7.02-6.66Zm0,10.17c1.96,0,3.51-1.53,3.51-3.51s-1.55-3.51-3.51-3.51-3.51,1.55-3.51,3.51,1.53,3.51,3.51,3.51Z"/><path class="cls-1" d="M70.13,.36h3.42V7.74c0,1.44,.99,2.43,2.34,2.43s2.34-.99,2.34-2.43V.36h3.42V7.74c0,3.24-2.36,5.58-5.76,5.58s-5.76-2.34-5.76-5.58V.36Z"/><path class="cls-1" d="M91.64,.36h3.78l4.77,12.6h-3.69l-.9-2.7h-4.14l-.9,2.7h-3.69L91.64,.36Zm3.06,7.11l-1.13-3.6h-.07l-1.13,3.6h2.34Z"/><path class="cls-1" d="M101.55,.36h2.97l5.4,6.93V.36h3.42V12.96h-2.97l-5.4-6.93v6.93h-3.42V.36Z"/><path class="cls-1" d="M116.23,.36h4.68c4.05,0,6.84,2.79,6.84,6.3s-2.79,6.3-6.84,6.3h-4.68V.36Zm4.68,9.54c1.96,0,3.33-1.37,3.33-3.24s-1.37-3.24-3.33-3.24h-1.26v6.48h1.26Z"/><path class="cls-1" d="M134.59,9.18c.2,.2,.43,.38,.68,.54,.43,.27,1.06,.54,1.84,.54,1.08,0,1.62-.54,1.62-1.17s-.54-1.17-1.62-1.17h-1.26v-2.79h1.26c.92,0,1.35-.45,1.35-1.08s-.43-1.08-1.35-1.08c-.63,0-1.15,.23-1.51,.5-.22,.14-.4,.31-.56,.49l-1.98-2.07c.32-.34,.72-.67,1.17-.94,.77-.49,1.89-.95,3.33-.95,2.79,0,4.5,1.71,4.5,3.6,0,1.06-.52,1.71-1.08,2.12-.31,.23-.67,.43-1.08,.58,.47,.16,.88,.38,1.26,.67,.63,.49,1.26,1.26,1.26,2.48,0,2.07-1.8,3.87-4.95,3.87-1.53,0-2.74-.5-3.58-1.03-.49-.31-.9-.67-1.28-1.04l1.98-2.07Z"/><path class="cls-1" d="M148.45,.36h9.54V3.6h-6.12v2.16h4.68v3.06h-4.68v4.14h-3.42V.36Z"/><path class="cls-1" d="M159.85,.36h5.94c2.68,0,4.59,1.89,4.59,4.32,0,1.37-.52,2.25-1.08,2.81-.31,.32-.67,.59-1.08,.79l2.61,4.68h-3.6l-2.07-3.96h-1.89v3.96h-3.42V.36Zm5.76,5.58c.81,0,1.35-.54,1.35-1.26s-.54-1.26-1.35-1.26h-2.34v2.52h2.34Z"/><path class="cls-1" d="M172.73,.36h3.42V12.96h-3.42V.36Z"/><path class="cls-1" d="M178.99,.36h9.63V3.42h-6.21v1.8h4.77v2.88h-4.77v1.8h6.39v3.06h-9.81V.36Z"/><path class="cls-1" d="M191.12,.36h2.97l5.4,6.93V.36h3.42V12.96h-2.97l-5.4-6.93v6.93h-3.42V.36Z"/><path class="cls-1" d="M205.79,.36h4.68c4.05,0,6.84,2.79,6.84,6.3s-2.79,6.3-6.84,6.3h-4.68V.36Zm4.68,9.54c1.96,0,3.33-1.37,3.33-3.24s-1.37-3.24-3.33-3.24h-1.26v6.48h1.26Z"/><path class="cls-1" d="M220.28,9c.22,.25,.47,.49,.74,.68,.49,.34,1.15,.67,1.96,.67,1.08,0,1.62-.52,1.62-1.08,0-1.71-5.94-.99-5.94-5.4,0-1.98,1.8-3.87,4.77-3.87,1.53,0,2.63,.45,3.35,.9,.41,.27,.77,.56,1.06,.9l-1.98,2.16c-.16-.18-.34-.34-.56-.49-.36-.27-.88-.5-1.51-.5-1.01,0-1.44,.45-1.44,.9,0,1.71,5.94,.99,5.94,5.4,0,2.16-1.87,4.05-4.95,4.05-1.73,0-2.95-.52-3.8-1.08-.49-.31-.9-.67-1.24-1.08l1.98-2.16Z"/></g></g></svg>