<?xml version="1.0" encoding="UTF-8"?><svg id="Layer_2" xmlns="http://www.w3.org/2000/svg" viewBox="0 0 218.31 13.32"><defs><style>.cls-1{fill:#27346b;}</style></defs><g id="Layer_3"><g><path class="cls-1" d="M4.77,.36h3.78l4.77,12.6h-3.69l-.9-2.7H4.59l-.9,2.7H0L4.77,.36Zm3.06,7.11l-1.13-3.6h-.07l-1.13,3.6h2.34Z"/><path class="cls-1" d="M18.63,.36h3.42V4.95h4.59V.36h3.42V12.96h-3.42v-4.77h-4.59v4.77h-3.42V.36Z"/><path class="cls-1" d="M39.21,0c4.03,0,7.02,2.97,7.02,6.66s-2.99,6.66-7.02,6.66-7.02-2.97-7.02-6.66,2.99-6.66,7.02-6.66Zm0,10.17c1.96,0,3.51-1.53,3.51-3.51s-1.55-3.51-3.51-3.51-3.51,1.55-3.51,3.51,1.53,3.51,3.51,3.51Z"/><path class="cls-1" d="M48.36,.36h3.42V9.72h5.49v3.24h-8.91V.36Z"/><path class="cls-1" d="M58.84,.36h3.42V12.96h-3.42V.36Z"/><path class="cls-1" d="M65.11,.36h4.68c4.05,0,6.84,2.79,6.84,6.3s-2.79,6.3-6.84,6.3h-4.68V.36Zm4.68,9.54c1.96,0,3.33-1.37,3.33-3.24s-1.37-3.24-3.33-3.24h-1.26v6.48h1.26Z"/><path class="cls-1" d="M81.5,.36h3.78l4.77,12.6h-3.69l-.9-2.7h-4.14l-.9,2.7h-3.69L81.5,.36Zm3.06,7.11l-1.13-3.6h-.07l-1.13,3.6h2.34Z"/><path class="cls-1" d="M93.23,8.46L88.73,.36h3.78l2.39,4.95h.07l2.4-4.95h3.78l-4.5,8.1v4.5h-3.42v-4.5Z"/><path class="cls-1" d="M108.8,3.42h-3.51V.36h10.44V3.42h-3.51V12.96h-3.42V3.42Z"/><path class="cls-1" d="M123.61,0c4.03,0,7.02,2.97,7.02,6.66s-2.99,6.66-7.02,6.66-7.02-2.97-7.02-6.66,2.99-6.66,7.02-6.66Zm0,10.17c1.96,0,3.51-1.53,3.51-3.51s-1.55-3.51-3.51-3.51-3.51,1.55-3.51,3.51,1.53,3.51,3.51,3.51Z"/><path class="cls-1" d="M136.75,.36h3.42V9.72h5.49v3.24h-8.91V.36Z"/><path class="cls-1" d="M153.6,0c4.03,0,7.02,2.97,7.02,6.66s-2.99,6.66-7.02,6.66-7.02-2.97-7.02-6.66,2.99-6.66,7.02-6.66Zm0,10.17c1.96,0,3.51-1.53,3.51-3.51s-1.55-3.51-3.51-3.51-3.51,1.55-3.51,3.51,1.53,3.51,3.51,3.51Z"/><path class="cls-1" d="M162.75,.36h2.97l5.4,6.93V.36h3.42V12.96h-2.97l-5.4-6.93v6.93h-3.42V.36Z"/><path class="cls-1" d="M177.42,.36h4.68c4.05,0,6.84,2.79,6.84,6.3s-2.79,6.3-6.84,6.3h-4.68V.36Zm4.68,9.54c1.96,0,3.33-1.37,3.33-3.24s-1.37-3.24-3.33-3.24h-1.26v6.48h1.26Z"/><path class="cls-1" d="M197.37,0c4.03,0,7.02,2.97,7.02,6.66s-2.99,6.66-7.02,6.66-7.02-2.97-7.02-6.66,2.99-6.66,7.02-6.66Zm0,10.17c1.96,0,3.51-1.53,3.51-3.51s-1.55-3.51-3.51-3.51-3.51,1.55-3.51,3.51,1.53,3.51,3.51,3.51Z"/><path class="cls-1" d="M206.52,.36h2.97l5.4,6.93V.36h3.42V12.96h-2.97l-5.4-6.93v6.93h-3.42V.36Z"/></g></g></svg>