<?xml version="1.0" encoding="UTF-8"?><svg id="Layer_2" xmlns="http://www.w3.org/2000/svg" viewBox="0 0 213.14 13.32"><defs><style>.cls-1{fill:red;}</style></defs><g id="Layer_3"><g><path class="cls-1" d="M0,.36H9.54V3.6H3.42v2.16h4.68v3.06H3.42v4.14H0V.36Z"/><path class="cls-1" d="M17.55,0c4.03,0,7.02,2.97,7.02,6.66s-2.99,6.66-7.02,6.66-7.02-2.97-7.02-6.66S13.52,0,17.55,0Zm0,10.17c1.96,0,3.51-1.53,3.51-3.51s-1.55-3.51-3.51-3.51-3.51,1.55-3.51,3.51,1.53,3.51,3.51,3.51Z"/><path class="cls-1" d="M26.7,.36h5.94c2.68,0,4.59,1.89,4.59,4.32,0,1.37-.52,2.25-1.08,2.81-.31,.32-.67,.59-1.08,.79l2.61,4.68h-3.6l-2.07-3.96h-1.89v3.96h-3.42V.36Zm5.76,5.58c.81,0,1.35-.54,1.35-1.26s-.54-1.26-1.35-1.26h-2.34v2.52h2.34Z"/><path class="cls-1" d="M46.77,.36h3.78l4.77,12.6h-3.69l-.9-2.7h-4.14l-.9,2.7h-3.69L46.77,.36Zm3.06,7.11l-1.13-3.6h-.07l-1.13,3.6h2.34Z"/><path class="cls-1" d="M72.42,10.89c-.4,.45-.86,.86-1.41,1.22-.92,.63-2.29,1.21-4.09,1.21-4.03,0-7.02-2.97-7.02-6.66s2.99-6.66,7.02-6.66c1.8,0,3.13,.59,4.05,1.22,.52,.36,.97,.76,1.35,1.21l-2.07,2.34c-.27-.31-.58-.58-.92-.81-.59-.41-1.4-.81-2.41-.81-1.98,0-3.51,1.55-3.51,3.51s1.53,3.51,3.51,3.51c1.01,0,1.82-.4,2.45-.81,.36-.23,.68-.5,.97-.81l2.07,2.34Z"/><path class="cls-1" d="M74.11,.36h3.42V4.95h4.59V.36h3.42V12.96h-3.42v-4.77h-4.59v4.77h-3.42V.36Z"/><path class="cls-1" d="M91.68,.36h3.78l4.77,12.6h-3.69l-.9-2.7h-4.14l-.9,2.7h-3.69L91.68,.36Zm3.06,7.11l-1.13-3.6h-.07l-1.13,3.6h2.34Z"/><path class="cls-1" d="M101.59,.36h2.97l5.4,6.93V.36h3.42V12.96h-2.97l-5.4-6.93v6.93h-3.42V.36Z"/><path class="cls-1" d="M128.02,10.89c-.4,.45-.86,.86-1.41,1.22-.92,.63-2.29,1.21-4.09,1.21-4.03,0-7.02-2.97-7.02-6.66s2.99-6.66,7.02-6.66c1.8,0,3.13,.59,4.05,1.22,.52,.36,.97,.76,1.35,1.21l-2.07,2.34c-.27-.31-.58-.58-.92-.81-.59-.41-1.4-.81-2.41-.81-1.98,0-3.51,1.55-3.51,3.51s1.53,3.51,3.51,3.51c1.01,0,1.82-.4,2.45-.81,.36-.23,.68-.5,.97-.81l2.07,2.34Z"/><path class="cls-1" d="M129.71,.36h9.63V3.42h-6.21v1.8h4.77v2.88h-4.77v1.8h6.39v3.06h-9.81V.36Z"/><path class="cls-1" d="M148.07,3.42h-3.51V.36h10.44V3.42h-3.51V12.96h-3.42V3.42Z"/><path class="cls-1" d="M162.87,0c4.03,0,7.02,2.97,7.02,6.66s-2.99,6.66-7.02,6.66-7.02-2.97-7.02-6.66,2.99-6.66,7.02-6.66Zm0,10.17c1.96,0,3.51-1.53,3.51-3.51s-1.55-3.51-3.51-3.51-3.51,1.55-3.51,3.51,1.53,3.51,3.51,3.51Z"/><path class="cls-1" d="M174.57,.36h3.69l1.98,7.38h.09l2.25-7.38h3.06l2.25,7.38h.09l1.98-7.38h3.69l-4.14,12.6h-3.06l-2.3-7.56h-.07l-2.3,7.56h-3.06L174.57,.36Z"/><path class="cls-1" d="M195.08,.36h3.42V12.96h-3.42V.36Z"/><path class="cls-1" d="M201.34,.36h2.97l5.4,6.93V.36h3.42V12.96h-2.97l-5.4-6.93v6.93h-3.42V.36Z"/></g></g></svg>