<?xml version="1.0" encoding="UTF-8"?><svg id="Layer_2" xmlns="http://www.w3.org/2000/svg" viewBox="0 0 76.51 10.91"><defs><style>.cls-1{fill:#27346b;}</style></defs><g id="Layer_3"><g><path class="cls-1" d="M0,.29H2.8V6.34c0,1.18,.81,1.99,1.92,1.99s1.92-.81,1.92-1.99V.29h2.8V6.34c0,2.65-1.93,4.57-4.72,4.57S0,8.99,0,6.34V.29Z"/><path class="cls-1" d="M12.46,7.37c.18,.21,.38,.4,.6,.56,.4,.28,.94,.55,1.61,.55,.88,0,1.33-.43,1.33-.88,0-1.4-4.86-.81-4.86-4.42,0-1.62,1.47-3.17,3.91-3.17,1.25,0,2.15,.37,2.74,.74,.34,.22,.63,.46,.87,.74l-1.62,1.77c-.13-.15-.28-.28-.46-.4-.29-.22-.72-.41-1.24-.41-.83,0-1.18,.37-1.18,.74,0,1.4,4.86,.81,4.86,4.42,0,1.77-1.53,3.32-4.05,3.32-1.42,0-2.42-.43-3.11-.88-.4-.25-.74-.55-1.02-.88l1.62-1.77Z"/><path class="cls-1" d="M20.69,.29h7.89V2.8h-5.09v1.47h3.91v2.36h-3.91v1.47h5.23v2.51h-8.03V.29Z"/><path class="cls-1" d="M43.4,8.92c-.32,.37-.71,.71-1.15,1-.75,.52-1.87,.99-3.35,.99-3.3,0-5.75-2.43-5.75-5.45s2.45-5.45,5.75-5.45c1.47,0,2.57,.49,3.32,1,.43,.29,.8,.62,1.11,.99l-1.69,1.92c-.22-.25-.47-.47-.75-.66-.49-.34-1.15-.66-1.98-.66-1.62,0-2.87,1.27-2.87,2.87s1.25,2.87,2.87,2.87c.83,0,1.49-.32,2-.66,.29-.19,.56-.41,.8-.66l1.7,1.92Z"/><path class="cls-1" d="M49.78,0c3.3,0,5.75,2.43,5.75,5.45s-2.45,5.45-5.75,5.45-5.75-2.43-5.75-5.45,2.45-5.45,5.75-5.45Zm0,8.33c1.61,0,2.88-1.25,2.88-2.87s-1.27-2.87-2.88-2.87-2.87,1.27-2.87,2.87,1.25,2.87,2.87,2.87Z"/><path class="cls-1" d="M57.29,.29h3.83c3.32,0,5.6,2.28,5.6,5.16s-2.28,5.16-5.6,5.16h-3.83V.29Zm3.83,7.81c1.61,0,2.73-1.12,2.73-2.65s-1.12-2.65-2.73-2.65h-1.03v5.31h1.03Z"/><path class="cls-1" d="M68.48,.29h7.89V2.8h-5.09v1.47h3.91v2.36h-3.91v1.47h5.23v2.51h-8.03V.29Z"/></g></g></svg>