<?xml version="1.0" encoding="UTF-8"?><svg id="Layer_2" xmlns="http://www.w3.org/2000/svg" viewBox="0 0 189.62 21.84"><defs><style>.cls-1{fill:#ff3008;}</style></defs><g id="Layer_3"><g><path class="cls-1" d="M55.88,3.15c4.55,0,7.99,3.44,7.99,7.77s-3.44,7.77-7.99,7.77h-5.37c-.22,0-.4-.18-.4-.4V3.55c0-.22,.18-.4,.4-.4h5.37Zm-2.44,3V15.7h2.44c2.55,0,4.66-2.11,4.66-4.77s-2-4.78-4.66-4.78h-2.44Z"/><path class="cls-1" d="M75.62,2.82c4.78,0,8.44,3.66,8.44,8.11s-3.66,8.1-8.44,8.1-8.44-3.66-8.44-8.1,3.66-8.11,8.44-8.11m0,13.21c2.78,0,5.13-2.22,5.13-5.11s-2.36-5.11-5.13-5.11-5.1,2.22-5.1,5.11,2.33,5.11,5.1,5.11"/><path class="cls-1" d="M95.68,2.82c4.78,0,8.44,3.66,8.44,8.11s-3.66,8.1-8.44,8.1-8.44-3.66-8.44-8.1,3.66-8.11,8.44-8.11m0,13.21c2.78,0,5.13-2.22,5.13-5.11s-2.36-5.11-5.13-5.11-5.1,2.22-5.1,5.11,2.33,5.11,5.1,5.11"/><path class="cls-1" d="M108.53,3.55c0-.22,.18-.4,.4-.4h6.48c3.11,0,5.33,2.26,5.33,5.11,0,3.33-2.78,4.55-2.78,4.55l2.99,5.28c.15,.27-.04,.6-.35,.6h-2.62c-.15,0-.28-.08-.35-.21l-2.88-5.23h-2.89v5.04c0,.22-.18,.4-.4,.4h-2.53c-.22,0-.4-.18-.4-.4V3.55Zm6.77,2.59h-3.44v4.11h3.44c1.22,0,2.11-.89,2.11-2,0-1.22-.89-2.11-2.11-2.11"/><path class="cls-1" d="M131.86,3.22c4.55,0,7.99,3.44,7.99,7.77s-3.44,7.77-7.99,7.77h-5.37c-.22,0-.4-.18-.4-.4V3.62c0-.22,.18-.4,.4-.4h5.37Zm-2.44,3V15.77h2.44c2.55,0,4.66-2.11,4.66-4.78s-2-4.78-4.66-4.78h-2.44Z"/><path class="cls-1" d="M147.01,15.01l-1.24,3.4c-.06,.16-.21,.27-.38,.27h-2.68c-.28,0-.48-.29-.37-.55l5.79-14.74c.06-.15,.21-.26,.38-.26h3c.17,0,.31,.1,.37,.26l5.79,14.74c.1,.26-.09,.55-.37,.55h-2.68c-.17,0-.32-.11-.38-.27l-1.24-3.4h-6Zm3-7.99l-1.89,5.11h3.78l-1.89-5.11Z"/><path class="cls-1" d="M160.8,7.35c0-2.44,2.11-4.55,5.44-4.55,2.64,0,4.23,1.24,4.83,1.82,.16,.15,.16,.41,.01,.57l-1.5,1.5c-.15,.15-.39,.16-.55,.02-.42-.37-1.32-1.01-2.58-1.01-1.33,0-2.32,.78-2.32,1.67,0,2.89,7.88,1.22,7.88,6.77,0,2.78-2.11,4.88-5.89,4.88-3.06,0-4.95-1.59-5.62-2.26-.15-.16-.15-.41,0-.57l1.44-1.44c.15-.15,.4-.16,.56,0,.5,.48,1.67,1.38,3.4,1.38s2.76-.89,2.76-2c0-2.89-7.87-1.22-7.87-6.77"/><path class="cls-1" d="M186.29,3.53v5.82h-6.66V3.53c0-.22-.18-.4-.4-.4h-2.53c-.22,0-.4,.18-.4,.4v14.74c0,.22,.18,.4,.4,.4h2.53c.22,0,.4-.18,.4-.4v-5.93h6.66v5.93c0,.22,.18,.4,.4,.4h2.53c.22,0,.4-.18,.4-.4V3.53c0-.22-.18-.4-.4-.4h-2.53c-.22,0-.4,.18-.4,.4"/><path class="cls-1" d="M36.95,5.17c-1.69-3.2-5.04-5.17-8.64-5.17H.94C.1,0-.31,1.02,.28,1.61L6.24,7.61c.53,.53,1.24,.83,1.99,.83H27.53c1.16,0,2.21,.78,2.46,1.92,.36,1.62-.87,3.05-2.41,3.05H14.27c-.83,0-1.25,1.02-.66,1.61l5.96,6c.53,.53,1.24,.83,1.99,.83h6.01c7.83,0,13.75-8.37,9.38-16.68"/></g></g></svg>