<?xml version="1.0" encoding="utf-8"?>
<!-- Generator: Adobe Illustrator 25.4.1, SVG Export Plug-In . SVG Version: 6.00 Build 0)  -->
<svg version="1.1" id="Layer_1" xmlns="http://www.w3.org/2000/svg" xmlns:xlink="http://www.w3.org/1999/xlink" x="0px" y="0px"
	 viewBox="0 0 970 250" style="enable-background:new 0 0 970 250;" xml:space="preserve">
<style type="text/css">
	.st0{fill:#FFFFFF;}
</style>
<path class="st0" d="M418.4,128.1c-0.6-2.3-0.9-4.8-0.8-7.2v-4.8c0-3.4-0.4-4.4-2.1-4.4h-0.6V128h-9.2V88.7h12.5
	c5.5,0,9.1,2.9,9.1,10c0,6.2-1.3,8.6-6.3,9.2c4.7,0.3,5.5,4.2,5.6,10.4c0,3.6,0.7,8.4,1.7,9.9L418.4,128.1z M415.6,94.4h-0.7V105
	h1.3c1.3,0,1.6-1.1,1.6-5.3S417.6,94.4,415.6,94.4z"/>
</svg>
