<?xml version="1.0" encoding="utf-8"?>
<!-- Generator: Adobe Illustrator 25.4.1, SVG Export Plug-In . SVG Version: 6.00 Build 0)  -->
<svg version="1.1" id="Layer_1" xmlns="http://www.w3.org/2000/svg" xmlns:xlink="http://www.w3.org/1999/xlink" x="0px" y="0px"
	 viewBox="0 0 970 250" style="enable-background:new 0 0 970 250;" xml:space="preserve">
<style type="text/css">
	.st0{fill:#FFFFFF;}
</style>
<g>
	<path class="st0" d="M53.8,150.2l-1.2-7.2h-5.5l-1.1,7.3h-9.9l8.7-49h10.7l10.1,49L53.8,150.2z M50.8,127.4
		c-0.2-2.3-0.8-7.1-1-11.8c-0.2,4.8-0.6,9.8-0.9,12c-0.4,3.7-0.8,8.2-0.8,8.2h3.6C51.8,135.7,51.2,131.1,50.8,127.4z"/>
	<path class="st0" d="M85,150.2c0,0-4.7-14.5-5.8-18.1c-0.8-2.6-1.5-5.2-1.9-7.8c0.4,6.6,0.4,7.7,0.4,13.4v12.5H67.3v-48.9h10.1
		c0,0,4.2,14.3,5.1,17.4c0.7,2.1,1.2,4.3,1.6,6.6c-0.2-4.8-0.3-9.5-0.3-14.4v-9.6h10.4v48.9H85z"/>
	<path class="st0" d="M110.5,150.2H97.9v-48.9h11.7c10.1,0,15.8,3.8,15.8,26C125.4,145.7,119.4,150.2,110.5,150.2z M110.2,110h-0.9
		v31h0.9c2.2,0,3.4-1.5,3.4-14.3C113.6,110.8,112.7,110,110.2,110z"/>
	<path class="st0" d="M149.3,150.2h-12.5v-48.9h11.7c10.1,0,15.8,3.8,15.8,26C164.2,145.7,158.2,150.2,149.3,150.2z M149,110h-0.9
		v31h0.9c2.2,0,3.4-1.5,3.4-14.3C152.4,110.8,151.5,110,149,110z"/>
	<path class="st0" d="M167,150.2v-48.9h11.4v48.9H167z"/>
	<path class="st0" d="M194.2,151.3c-7.4,0-12.6-3.1-12.6-12.7c0-2.1,0.3-4.1,0.8-6.1l10.3-0.3c-0.3,2-0.4,4-0.4,6.1
		c0,4,0.4,4.9,2,4.9c1.3,0,1.7-1,1.7-4.2c0-6.4-1.1-8-5.2-10.1l-3.1-1.6c-5-2.6-6.1-8.3-6.1-14c0-8.3,4.7-12.7,12.4-12.7
		s12.1,3.8,12.1,11c0,1.5-0.2,3.1-0.6,4.6l-10,0.8c0.2-1.6,0.4-3.2,0.4-4.8c0-2.8-0.2-3.6-1.6-3.6c-1.3,0-1.6,0.9-1.6,3.2
		c0,4.5,1.2,6.3,3.9,7.7l3.3,1.7c5.9,3,7.6,7.7,7.6,16.4C207.4,146.4,203,151.3,194.2,151.3z"/>
	<path class="st0" d="M223.1,151.3c-8.9,0-13.6-4.2-13.6-23.6c0-20.8,3.9-27.1,13.7-27.1c8,0,12.1,4.5,12.1,12.4
		c0,2.6-0.2,5.1-0.5,7.7l-10.4,0.2c0.3-2.1,0.4-4.2,0.4-6.2c0-4.3,0-5.6-1.7-5.6s-1.9,1.2-1.9,17.3c0,14.9,0.3,15.7,2.2,15.7
		s1.8-2.6,1.8-7c0-2.2-0.1-4.3-0.4-6.4l10.7,0.1c0.3,2.6,0.5,5.3,0.4,7.9C235.9,146,231,151.3,223.1,151.3z"/>
	<path class="st0" d="M251.2,151.3c-9,0-13.6-5-13.6-25.6c0-19.6,4.2-25.2,13.6-25.2s14,5,14,25.2
		C265.2,146.6,259.8,151.3,251.2,151.3z M251.4,109c-1.7,0-2,0.9-2,16.8c0,15,0.1,16.3,2,16.3s2-1.3,2-16.3
		C253.4,109.8,253,109,251.4,109L251.4,109z"/>
	<path class="st0" d="M281.4,151.3c-9.2,0-13.4-4.2-13.4-11.2v-38.7h11.4V138c0,2.8,0.2,4,2,4s1.8-1.1,1.8-4v-36.7h11.5v38.8
		C294.7,146.5,290.8,151.3,281.4,151.3z"/>
	<path class="st0" d="M316,150.2c0,0-4.6-14.5-5.8-18.1c-0.8-2.6-1.5-5.2-1.9-7.8c0.4,6.6,0.5,7.7,0.5,13.4v12.5h-10.3v-48.9h10.1
		c0,0,4.2,14.3,5.1,17.4c0.7,2.1,1.2,4.3,1.6,6.6c-0.3-4.8-0.3-9.5-0.3-14.4v-9.6h10.4v48.9H316z"/>
	<path class="st0" d="M346.1,110v40.2h-11.4V110h-7v-8.7h25.5v8.7H346.1z"/>
	<path class="st0" d="M367.6,151.3c-7.4,0-12.5-3.1-12.5-12.7c0-2.1,0.3-4.1,0.8-6.1l10.2-0.3c-0.3,2-0.4,4-0.4,6.1
		c0,4,0.4,4.9,2,4.9c1.3,0,1.7-1,1.7-4.2c0-6.4-1.1-8-5.2-10.1l-3.1-1.6c-5-2.6-6.1-8.3-6.1-14c0-8.3,4.7-12.7,12.4-12.7
		s12.1,3.8,12.1,11c0,1.5-0.2,3.1-0.6,4.6l-10,0.8c0.2-1.6,0.4-3.2,0.4-4.8c0-2.8-0.2-3.6-1.6-3.6c-1.3,0-1.6,0.9-1.6,3.2
		c0,4.5,1.2,6.3,4,7.7l3.3,1.7c5.9,3,7.6,7.7,7.6,16.4C380.8,146.4,376.4,151.3,367.6,151.3z"/>
</g>
</svg>
