<?xml version="1.0" encoding="utf-8"?>
<!-- Generator: Adobe Illustrator 25.4.1, SVG Export Plug-In . SVG Version: 6.00 Build 0)  -->
<svg version="1.1" id="Layer_1" xmlns="http://www.w3.org/2000/svg" xmlns:xlink="http://www.w3.org/1999/xlink" x="0px" y="0px"
	 viewBox="0 0 970 250" style="enable-background:new 0 0 970 250;" xml:space="preserve">
<style type="text/css">
	.st0{fill:#FFFFFF;}
</style>
<path class="st0" d="M255.2,129c-6,0-10.1-2.5-10.1-10.2c0-1.7,0.2-3.3,0.6-4.9l8.3-0.2c-0.2,1.6-0.4,3.2-0.4,4.9c0,3.2,0.3,4,1.6,4
	c1.1,0,1.3-0.8,1.3-3.4c0-5.2-0.9-6.5-4.2-8.1l-2.5-1.3c-4.1-2.1-4.9-6.7-4.9-11.3c0-6.7,3.8-10.2,10-10.2s9.8,3,9.8,8.8
	c0,1.2-0.2,2.5-0.5,3.7l-8.1,0.6c0.2-1.3,0.3-2.6,0.3-3.9c0-2.3-0.1-2.9-1.3-2.9s-1.3,0.7-1.3,2.6c0,3.7,1,5.1,3.2,6.2l2.7,1.3
	c4.8,2.4,6.2,6.2,6.2,13.3C265.9,125.1,262.3,129,255.2,129z"/>
</svg>
