<?xml version="1.0" encoding="utf-8"?>
<!-- Generator: Adobe Illustrator 25.4.1, SVG Export Plug-In . SVG Version: 6.00 Build 0)  -->
<svg version="1.1" id="Layer_1" xmlns="http://www.w3.org/2000/svg" xmlns:xlink="http://www.w3.org/1999/xlink" x="0px" y="0px"
	 viewBox="0 0 970 250" style="enable-background:new 0 0 970 250;" xml:space="preserve">
<style type="text/css">
	.st0{fill:#FFFFFF;}
</style>
<g>
	<path class="st0" d="M58.8,85.3L57,82.7c-0.6,1.7-2.7,3.1-6.2,3.1c-8.4,0-13.8-2.9-13.8-23.6c0-22.4,5-27,14.5-27
		c7.9,0,11.3,3.7,11.3,12.8c0,2.1-0.3,4.1-0.9,6.1l-10,0.3c0.5-2.3,0.8-4.6,0.8-7c0-2.2-0.1-3.8-1.6-3.8c-2,0-2.4,1-2.4,18.2
		c0,14.1,0.5,14.9,2.5,14.9c2.3,0,2.3-2.8,2.3-5.2c0-2-0.1-4.1-0.2-6.1h-2.7v-7h12.5v26.8H58.8z"/>
	<path class="st0" d="M66.4,84.9V36h21v8.7h-9.6v10.5h8.4v9.6h-8.4v10.9h11.1v9.2L66.4,84.9z"/>
	<path class="st0" d="M107.7,44.7v40.2H96.3V44.7h-7V36h25.6v8.7H107.7z"/>
	<path class="st0" d="M138.3,84.9h-12.6V36h11.7c10.1,0,15.8,3.8,15.8,26C153.2,80.4,147.2,84.9,138.3,84.9z M138.1,44.7h-0.9v31
		h0.9c2.2,0,3.4-1.5,3.4-14.3C141.5,45.5,140.5,44.7,138.1,44.7z"/>
	<path class="st0" d="M156.1,84.9V36h21v8.7h-9.6v10.5h8.4v9.6h-8.4v10.9h11.1v9.2L156.1,84.9z"/>
	<path class="st0" d="M197.2,84.9l-1.1-7.3h-5.5l-1.1,7.3h-9.9l8.7-49h10.7l10.1,49H197.2z M194.2,62.1c-0.2-2.3-0.8-7.1-1-11.8
		c-0.2,4.8-0.6,9.8-0.9,12c-0.4,3.7-0.8,8.2-0.8,8.2h3.6C195.1,70.4,194.5,65.8,194.2,62.1L194.2,62.1z"/>
	<path class="st0" d="M210.7,84.9V36h11.4v39.7h9.8v9.2L210.7,84.9z"/>
	<path class="st0" d="M245.7,86c-7.4,0-12.6-3.1-12.6-12.7c0-2.1,0.3-4.1,0.8-6.1l10.3-0.3c-0.3,2-0.4,4-0.4,6c0,4,0.4,4.9,2,4.9
		c1.3,0,1.7-1,1.7-4.2c0-6.4-1.1-8-5.2-10.1l-3.1-1.6c-5-2.5-6.1-8.3-6.1-14c0-8.4,4.7-12.7,12.4-12.7s12.1,3.8,12.1,11
		c0,1.5-0.2,3.1-0.6,4.6l-10,0.8c0.2-1.6,0.4-3.2,0.4-4.8c0-2.8-0.2-3.6-1.7-3.6c-1.3,0-1.6,0.9-1.6,3.2c0,4.5,1.2,6.3,4,7.7
		l3.3,1.7c5.9,3,7.6,7.6,7.6,16.4C258.9,81.1,254.5,86,245.7,86z"/>
	<path class="st0" d="M270.9,88.4c-0.4,1.4-1.2,2.8-2.2,3.9c-1.2,1.4-2.7,2.5-4.3,3.4l-2.2-4.2c1-0.6,1.8-1.5,2.4-2.4
		c0.6-1,0.9-2.1,0.9-3.2v-1h-4.4V73.8h10.5v9.9C271.6,85.3,271.4,86.9,270.9,88.4z"/>
	<path class="st0" d="M299.4,84.9c-0.7-2.9-1.1-5.9-1-8.9v-5.9c0-4.2-0.5-5.4-2.6-5.4h-0.7v20.3h-11.4V36h15.5
		c6.8,0,11.3,3.6,11.3,12.4c0,7.7-1.7,10.7-7.8,11.4c5.9,0.4,6.9,5.2,6.9,12.9c0.1,4.5,0.8,10.4,2.1,12.2L299.4,84.9z M296,43.1
		h-0.9v13.1h1.7c1.6,0,2-1.4,2-6.6S298.4,43.1,296,43.1z"/>
	<path class="st0" d="M313.4,84.9V36h21v8.7h-9.6v10.5h8.4v9.6h-8.4v10.9h11.1v9.2L313.4,84.9z"/>
	<path class="st0" d="M367.5,84.9h-9.3l-1.8-14.3c-0.6-5.5-1.3-10.2-1.3-10.2s-0.5,4.7-1.2,10.2s-2,14.3-2,14.3h-10L335.8,36h10.6
		c0,0,1,10.3,1.6,17c0.3,3.3,0.4,11.8,0.4,11.8s0-8.5,0.5-11.9c1-6.5,2-12.6,2.5-16.9h7.9c0.8,5.9,1.4,10.4,2.2,17
		c0.7,5.3,0.8,11.8,0.8,11.8c-0.1-4,0.1-7.9,0.5-11.8c0.8-6.6,2-17,2-17h9.8L367.5,84.9z"/>
	<path class="st0" d="M390.9,84.9l-1.1-7.3h-5.5l-1.1,7.3h-9.9l8.7-49h10.7l10.1,49H390.9z M387.9,62.1c-0.3-2.3-0.8-7.1-1-11.8
		c-0.2,4.8-0.6,9.8-0.9,12c-0.4,3.7-0.8,8.2-0.8,8.2h3.6C388.8,70.4,388.2,65.8,387.9,62.1L387.9,62.1z"/>
	<path class="st0" d="M420.2,84.9c-0.7-2.9-1.1-5.9-1-8.9v-5.9c0-4.2-0.5-5.4-2.6-5.4h-0.7v20.3h-11.4V36h15.5
		c6.8,0,11.3,3.6,11.3,12.4c0,7.7-1.6,10.7-7.8,11.4c5.9,0.4,6.9,5.2,6.9,12.9c0.1,4.5,0.8,10.4,2.1,12.2L420.2,84.9z M416.7,43.1
		h-0.9v13.1h1.6c1.6,0,2-1.4,2-6.6S419.1,43.1,416.7,43.1z"/>
	<path class="st0" d="M446.7,84.9h-12.6V36h11.7c10.1,0,15.8,3.8,15.8,26C461.6,80.4,455.6,84.9,446.7,84.9z M446.4,44.7h-0.9v31
		h0.9c2.2,0,3.4-1.5,3.4-14.3C449.8,45.5,448.8,44.7,446.4,44.7z"/>
	<path class="st0" d="M476.5,86c-7.4,0-12.6-3.1-12.6-12.7c0-2.1,0.3-4.1,0.8-6.1l10.3-0.4c-0.3,2-0.4,4-0.5,6c0,4,0.4,4.9,2,4.9
		c1.3,0,1.6-1,1.6-4.2c0-6.4-1.1-8-5.2-10.1l-3.1-1.6c-5-2.5-6.1-8.3-6.1-14c0-8.4,4.7-12.7,12.4-12.7s12.1,3.8,12.1,11
		c0,1.5-0.2,3.1-0.6,4.6l-10,0.8c0.2-1.6,0.3-3.2,0.3-4.9c0-2.8-0.2-3.6-1.7-3.6c-1.3,0-1.6,0.9-1.6,3.2c0,4.5,1.2,6.3,4,7.7
		l3.2,1.7c5.9,3,7.6,7.6,7.6,16.4C489.7,81.1,485.3,86,476.5,86z"/>
</g>
</svg>
