<?xml version="1.0" encoding="utf-8"?>
<!-- Generator: Adobe Illustrator 25.4.1, SVG Export Plug-In . SVG Version: 6.00 Build 0)  -->
<svg version="1.1" id="Layer_1" xmlns="http://www.w3.org/2000/svg" xmlns:xlink="http://www.w3.org/1999/xlink" x="0px" y="0px"
	 viewBox="0 0 970 250" style="enable-background:new 0 0 970 250;" xml:space="preserve">
<style type="text/css">
	.st0{fill:#FFFFFF;}
</style>
<path class="st0" d="M47.8,129c-7.1,0-11-3.4-11-19.1c0-16.8,3.1-21.8,11-21.8c6.5,0,9.8,3.7,9.8,10c0,2.1-0.1,4.1-0.4,6.2l-8.4,0.2
	c0.2-1.7,0.3-3.3,0.4-5c0-3.5,0-4.5-1.3-4.5s-1.5,0.9-1.5,14c0,12,0.2,12.6,1.8,12.6s1.4-2,1.4-5.7c0-1.7-0.1-3.5-0.3-5.2l8.6,0.1
	c0.3,2.1,0.4,4.2,0.4,6.4C58.1,124.8,54.1,129,47.8,129z"/>
</svg>
