<?xml version="1.0" encoding="utf-8"?>
<!-- Generator: Adobe Illustrator 25.4.1, SVG Export Plug-In . SVG Version: 6.00 Build 0)  -->
<svg version="1.1" id="Layer_1" xmlns="http://www.w3.org/2000/svg" xmlns:xlink="http://www.w3.org/1999/xlink" x="0px" y="0px"
	 viewBox="0 0 970 250" style="enable-background:new 0 0 970 250;" xml:space="preserve">
<style type="text/css">
	.st0{fill:#FFFFFF;}
</style>
<path class="st0" d="M60,181.3c-3,0-4.6-0.7-5.8-2.3c-2,1.6-4.5,2.4-7,2.3c-6.3,0-10.5-4.2-10.5-11.5c0-5.9,3.8-10.4,8.3-13.4
	c-0.4-1.3-1.6-4.8-1.6-7.4c0-5,2.7-8.3,8.3-8.3c5.4,0,8,2.6,8,7.1c0,3.6-3.5,7-6.5,9.4c0,0,0.8,2.5,1.4,4.1c0.7,1.9,1.7,4.8,1.7,4.8
	c0.6-1.6,1.1-3.3,1.5-5c0.5-2.2,0.8-4.5,0.9-6.8h5.9c-0.2,3.6-0.7,7.2-1.7,10.8c-0.8,2.8-2,5.5-3.3,8.1c0.5,1.4,1.1,2.5,2,2.5
	s1.2-0.5,1.2-1.6c0-0.6-0.1-1.2-0.4-1.8l4.4-0.5c0.4,0.9,0.6,2,0.6,3C67.2,179,64.3,181.3,60,181.3z M49.1,168.2
	c-0.8-2.2-2.1-5.6-2.1-5.6c-1.3,1.6-1.7,4.4-1.4,6.8c0.3,2.9,1.3,5,3.5,5c0.7,0,1.5-0.3,2-0.8C51.2,173.7,49.9,170.3,49.1,168.2z
	 M52.1,145.8c-0.7,0-0.9,0.6-0.9,2.3c0,1.4,0.2,2.7,0.6,4.1c0.9-1.2,1.4-2.8,1.4-4.3C53.2,146.3,53,145.8,52.1,145.8L52.1,145.8z"/>
</svg>
