<?xml version="1.0" encoding="utf-8"?>
<!-- Generator: Adobe Illustrator 24.2.0, SVG Export Plug-In . SVG Version: 6.00 Build 0)  -->
<svg version="1.1" id="Layer_1" xmlns="http://www.w3.org/2000/svg" xmlns:xlink="http://www.w3.org/1999/xlink" x="0px" y="0px"
	 viewBox="0 0 300 600" style="enable-background:new 0 0 300 600;" xml:space="preserve">
<style type="text/css">
	.st0{clip-path:url(#SVGID_2_);}
	.st1{fill:#FFFFFF;}
</style>
<g>
	<defs>
		<rect id="SVGID_1_" y="0" width="300" height="600"/>
	</defs>
	<clipPath id="SVGID_2_">
		<use xlink:href="#SVGID_1_"  style="overflow:visible;"/>
	</clipPath>
	<g class="st0">
		<path class="st1" d="M47.2,323.2h9.7c5.7,0,9.3,2.9,9.3,7.9v0.1c0,5.4-4.1,8.2-9.7,8.2h-3.1v6.4h-6.2V323.2z M56.4,334.4
			c2.2,0,3.6-1.2,3.6-3v-0.1c0-1.9-1.4-2.9-3.6-2.9h-3v6L56.4,334.4z"/>
		<path class="st1" d="M67.6,328.4h6.1v3.5c1-2.4,2.6-3.9,5.5-3.8v6.4h-0.5c-3.2,0-5,1.8-5,5.8v5.4h-6.1V328.4z"/>
		<path class="st1" d="M78.7,340.8L78.7,340.8c0-3.7,2.7-5.5,6.8-5.5c1.4,0,2.8,0.2,4.2,0.7v-0.3c0-1.8-1.1-2.9-3.5-2.9
			c-1.7,0-3.3,0.4-4.8,1l-1.3-4.3c2.2-0.9,4.6-1.4,7.1-1.4c3.1,0,5.2,0.7,6.6,2.1s1.9,3.1,1.9,5.5v10h-6V344
			c-1.3,1.5-3.2,2.3-5.2,2.2C81.3,346.2,78.7,344.2,78.7,340.8z M89.8,339.5v-0.8c-0.8-0.3-1.6-0.5-2.4-0.5c-1.8,0-2.8,0.8-2.8,2.2
			v0.1c0,1.1,0.8,1.9,1.9,1.9c0.1,0,0.2,0,0.3,0c1.5,0.1,2.9-1,3-2.5C89.8,339.7,89.8,339.6,89.8,339.5z"/>
		<path class="st1" d="M97.2,337.1L97.2,337.1c-0.1-5,3.9-9.1,8.9-9.2c0.1,0,0.3,0,0.4,0c3-0.2,5.8,1.3,7.4,3.9l-4.1,3.1
			c-0.7-1.1-1.9-1.8-3.3-1.8c-2,0.1-3.6,1.8-3.5,3.8c0,0,0,0,0,0.1v0.1c0,2.3,1.4,4,3.5,4c1.3,0,2.6-0.7,3.3-1.8l4.1,3
			c-1.7,2.6-4.6,4.2-7.7,4c-5,0.1-9.1-3.9-9.1-8.9C97.2,337.3,97.2,337.2,97.2,337.1z"/>
		<path class="st1" d="M116.4,340.4v-7.1h-2.1v-4.9h2.1v-4.4h6.1v4.4h4.1v4.9h-4.1v5.9c0,1.2,0.6,1.7,1.7,1.7c0.8,0,1.6-0.2,2.3-0.6
			v4.8c-1.3,0.7-2.8,1-4.3,1C118.6,346.1,116.4,344.5,116.4,340.4z"/>
		<path class="st1" d="M128.3,322.3h6.4v4.5h-6.4V322.3z M128.4,328.4h6.1v17.4h-6.1V328.4z"/>
		<path class="st1" d="M136.3,337.1L136.3,337.1c-0.1-5,3.9-9.1,8.9-9.2c0.1,0,0.3,0,0.4,0c3-0.2,5.8,1.3,7.4,3.9L149,335
			c-0.7-1.1-1.9-1.8-3.3-1.8c-2,0.1-3.6,1.8-3.4,3.8c0,0,0,0,0,0.1v0.1c0,2.3,1.4,4,3.5,4c1.3,0,2.6-0.7,3.4-1.8l4.1,3
			c-1.7,2.6-4.6,4.2-7.7,4c-5,0.1-9.1-3.9-9.2-8.8C136.3,337.4,136.3,337.3,136.3,337.1z"/>
		<path class="st1" d="M153.2,337.1L153.2,337.1c0-5.2,3.6-9.2,8.8-9.2c6,0,8.8,4.4,8.8,9.5c0,0.4,0,0.8,0,1.3h-11.7
			c0.4,1.8,2,3,3.8,2.9c1.5,0,2.9-0.7,3.9-1.8l3.4,2.8c-1.8,2.3-4.6,3.6-7.5,3.5C157.1,346.2,153.2,342.5,153.2,337.1z M165.1,335.6
			c-0.2-1.9-1.4-3.2-3.1-3.2s-2.7,1.2-3,3.2H165.1z"/>
		<path class="st1" d="M179.8,337.1L179.8,337.1c0-5.7,3.6-9.2,7.7-9.2c2.1-0.1,4,0.9,5.3,2.5v-8.2h6.2v23.5h-6.1v-2.3
			c-1.2,1.7-3.2,2.7-5.3,2.7C183.4,346.2,179.8,342.7,179.8,337.1z M193,337.1L193,337.1c0.2-2.1-1.2-3.8-3.2-4
			c-2-0.2-3.7,1.2-4,3.2c0,0.3,0,0.5,0,0.8v0.1c-0.2,2,1.2,3.7,3.2,4c2,0.2,3.7-1.2,4-3.2C193,337.6,193,337.3,193,337.1L193,337.1z
			"/>
		<path class="st1" d="M200.6,337.1L200.6,337.1c0.1-5.2,4.3-9.3,9.4-9.2c0.1,0,0.1,0,0.2,0c5.6,0,9.6,4.1,9.6,9.1v0.1
			c0,5-4.1,9.1-9.7,9.1S200.6,342.1,200.6,337.1z M213.9,337.1L213.9,337.1c0.1-2.2-1.5-4-3.6-4.1c0,0-0.1,0-0.1,0
			c-2,0-3.7,1.7-3.6,3.7c0,0.1,0,0.2,0,0.2v0.1c-0.1,2.1,1.5,3.8,3.6,3.9c0,0,0.1,0,0.1,0c2,0,3.7-1.6,3.7-3.7
			C213.9,337.2,213.9,337.2,213.9,337.1z"/>
		<path class="st1" d="M220.8,337.1L220.8,337.1c0-5.2,3.6-9.2,8.8-9.2c6,0,8.8,4.4,8.8,9.5c0,0.4,0,0.8,0,1.3h-11.7
			c0.4,1.8,2,3,3.8,2.9c1.5,0,2.9-0.7,3.9-1.8l3.4,2.8c-1.8,2.3-4.6,3.6-7.5,3.5C224.7,346.2,220.8,342.5,220.8,337.1z M232.7,335.6
			c-0.2-1.9-1.4-3.2-3.1-3.2s-2.7,1.2-3,3.2H232.7z"/>
		<path class="st1" d="M238.8,343.6l2.3-3.7c1.8,1.2,3.8,1.9,6,2c1.1,0,1.6-0.3,1.6-0.9v-0.1c0-0.7-1-1-2.8-1.5
			c-3.4-0.9-6.2-2.1-6.2-5.5v-0.1c0-3.7,3-5.8,7-5.8c2.5,0,5,0.7,7.2,2l-2.1,3.9c-1.6-0.9-3.3-1.5-5.2-1.6c-0.9,0-1.4,0.4-1.4,0.9
			v0.1c0,0.7,1,1,2.8,1.5c3.4,1,6.2,2.2,6.2,5.5v0.1c0,3.8-2.9,5.8-7.1,5.8C244.1,346.2,241.2,345.3,238.8,343.6z"/>
		<path class="st1" d="M43.5,362.4h6.1v2.4c1.2-1.7,3.1-2.7,5.2-2.7c2.1-0.1,4,1,5,2.8c1.4-1.8,3.6-2.9,5.9-2.8c3.7,0,6,2.3,6,6.4
			v11.4h-6.2v-9.5c0-1.9-0.9-2.9-2.4-2.9s-2.5,1-2.5,2.9v9.5h-6.1v-9.5c0-1.9-1-2.9-2.4-2.9s-2.5,1-2.5,2.9v9.5h-6.1V362.4z"/>
		<path class="st1" d="M73,374.8L73,374.8c0-3.7,2.7-5.5,6.8-5.5c1.4,0,2.8,0.2,4.2,0.7v-0.3c0-1.8-1.1-2.9-3.5-2.9
			c-1.7,0-3.3,0.4-4.8,1l-1.3-4.3c2.2-0.9,4.6-1.4,7.1-1.4c3.1,0,5.2,0.7,6.6,2.1s1.9,3.1,1.9,5.5v10h-6V378
			c-1.3,1.5-3.2,2.3-5.2,2.2C75.6,380.2,73,378.2,73,374.8z M84.1,373.5v-0.8c-0.8-0.3-1.6-0.4-2.4-0.5c-1.8,0-2.8,0.8-2.8,2.2v0.1
			c0,1.1,0.9,1.9,1.9,1.9c0.1,0,0.1,0,0.2,0c1.5,0.2,2.9-1,3.1-2.5C84.1,373.7,84.1,373.6,84.1,373.5L84.1,373.5z"/>
		<path class="st1" d="M92.2,356.3h6.1v11.9l4.7-5.8h6.9l-6.1,7l6.2,10.5h-6.8l-3.5-6l-1.6,1.8v4.1h-6.1V356.3z"/>
		<path class="st1" d="M109.1,371.1L109.1,371.1c0-5.2,3.6-9.2,8.8-9.2c6,0,8.8,4.4,8.8,9.5c0,0.4,0,0.8,0,1.3h-11.7
			c0.4,1.8,2,3,3.8,2.9c1.5,0,2.9-0.7,3.9-1.8l3.4,2.8c-1.8,2.3-4.6,3.6-7.5,3.5C112.9,380.2,109.1,376.5,109.1,371.1z M120.9,369.6
			c-0.2-1.9-1.4-3.2-3.1-3.2s-2.7,1.2-3,3.2H120.9z"/>
		<path class="st1" d="M136.3,362.4h6.1v2.3c1.2-1.7,3.2-2.7,5.3-2.7c4.2,0,7.7,3.5,7.7,9v0.1c0,5.7-3.6,9.1-7.7,9.1
			c-2.1,0.1-4-0.9-5.3-2.5v7.3h-6.1V362.4z M149.4,371.1L149.4,371.1c0.2-2.1-1.3-3.8-3.2-4c-2-0.2-3.7,1.3-3.9,3.2
			c0,0.2,0,0.4,0,0.7v0.1c-0.2,2,1.3,3.7,3.2,3.9c2,0.2,3.7-1.3,3.9-3.2C149.5,371.5,149.5,371.3,149.4,371.1L149.4,371.1z"/>
		<path class="st1" d="M156.5,371.1L156.5,371.1c0-5.2,3.6-9.2,8.8-9.2c6,0,8.8,4.4,8.8,9.5c0,0.4,0,0.8,0,1.3h-11.7
			c0.4,1.8,2,3,3.8,2.9c1.5,0,2.9-0.7,3.9-1.8l3.4,2.8c-1.8,2.3-4.6,3.6-7.6,3.5C160.4,380.2,156.5,376.5,156.5,371.1z M168.3,369.6
			c-0.2-1.9-1.4-3.2-3.1-3.2s-2.7,1.2-3,3.2H168.3z"/>
		<path class="st1" d="M175.8,362.4h6.1v3.5c1-2.4,2.6-3.9,5.5-3.8v6.4h-0.5c-3.2,0-5,1.8-5,5.8v5.4h-6.1V362.4z"/>
		<path class="st1" d="M189.7,367.2h-2v-4.8h2v-0.4c-0.1-1.6,0.4-3.3,1.5-4.5c1.2-1.1,2.9-1.7,4.6-1.5c1.4,0,2.7,0.1,4,0.5v4.3
			c-0.7-0.2-1.5-0.4-2.3-0.4c-1.1,0-1.7,0.5-1.7,1.6v0.4h4v4.7h-3.9v12.5h-6.1L189.7,367.2z"/>
		<path class="st1" d="M199.7,371.1L199.7,371.1c0-5.2,3.6-9.2,8.8-9.2c6,0,8.8,4.4,8.8,9.5c0,0.4,0,0.8,0,1.3h-11.7
			c0.4,1.8,2,3,3.8,2.9c1.5,0,2.9-0.7,3.9-1.8l3.4,2.8c-1.8,2.3-4.6,3.7-7.6,3.5C203.6,380.2,199.7,376.5,199.7,371.1z M211.6,369.6
			c-0.2-1.9-1.4-3.2-3.1-3.2s-2.7,1.2-3,3.2H211.6z"/>
		<path class="st1" d="M218.3,371.1L218.3,371.1c0-5,3.9-9.1,8.9-9.2c0.1,0,0.3,0,0.4,0c3-0.2,5.8,1.3,7.4,3.9l-4.1,3.1
			c-0.7-1.1-1.9-1.8-3.2-1.8c-2,0.1-3.6,1.8-3.5,3.8c0,0,0,0,0,0.1v0.1c0,2.3,1.4,4,3.5,4c1.3,0,2.6-0.7,3.4-1.8l4.1,3
			c-1.7,2.6-4.6,4.2-7.7,4c-5,0.1-9.1-3.9-9.1-8.9C218.3,371.3,218.3,371.2,218.3,371.1z"/>
		<path class="st1" d="M237.5,374.4v-7.1h-2.1v-4.9h2.1v-4.4h6.1v4.4h4.1v4.9h-4.1v5.9c0,1.2,0.6,1.7,1.7,1.7c0.8,0,1.6-0.2,2.3-0.6
			v4.8c-1.3,0.7-2.8,1-4.2,1C239.6,380.1,237.5,378.5,237.5,374.4z"/>
		<path class="st1" d="M249.9,377.5c0-1.6,1.3-2.8,2.8-2.8c0.8,0,1.5,0.3,2,0.8c1.1,1.1,1.1,2.9,0,4s-2.9,1.1-4,0
			C250.2,379,249.9,378.2,249.9,377.5z"/>
	</g>
</g>
</svg>
