<?xml version="1.0" encoding="utf-8"?>
<!-- Generator: Adobe Illustrator 24.2.0, SVG Export Plug-In . SVG Version: 6.00 Build 0)  -->
<svg version="1.1" id="Layer_1" xmlns="http://www.w3.org/2000/svg" xmlns:xlink="http://www.w3.org/1999/xlink" x="0px" y="0px"
	 viewBox="0 0 300 600" style="enable-background:new 0 0 300 600;" xml:space="preserve">
<style type="text/css">
	.st0{clip-path:url(#SVGID_2_);}
	.st1{fill:#4FC6E0;}
</style>
<g>
	<defs>
		<rect id="SVGID_1_" y="0" width="300" height="600"/>
	</defs>
	<clipPath id="SVGID_2_">
		<use xlink:href="#SVGID_1_"  style="overflow:visible;"/>
	</clipPath>
	<g class="st0">
		<path class="st1" d="M29.7,289.2h10.7c3.5,0,5.8,0.9,7.3,2.4c1.4,1.4,2.1,3.3,2,5.2v0.1c0.1,3.1-1.7,5.9-4.6,7l5.4,7.9h-7.2
			l-4.5-6.9H36v6.8h-6.3V289.2z M40.1,300c2.1,0,3.4-1,3.4-2.7v-0.1c0-1.8-1.3-2.7-3.4-2.7H36v5.4L40.1,300z"/>
		<path class="st1" d="M50.8,306.8L50.8,306.8c0-3.7,2.7-5.6,6.8-5.6c1.4,0,2.8,0.2,4.2,0.7v-0.3c0-1.8-1.1-2.9-3.5-2.9
			c-1.7,0-3.3,0.4-4.8,1l-1.3-4.3c2.2-0.9,4.6-1.4,7.1-1.4c3.1,0,5.2,0.7,6.6,2.1s1.9,3.1,1.9,5.5v10h-6V310
			c-1.3,1.5-3.2,2.3-5.2,2.2C53.3,312.2,50.8,310.2,50.8,306.8z M61.9,305.5v-0.8c-0.8-0.3-1.6-0.4-2.4-0.5c-1.8,0-2.8,0.8-2.8,2.2
			v0.1c0,1.1,0.9,1.9,1.9,1.9c0.1,0,0.1,0,0.2,0c1.5,0.1,2.9-1,3.1-2.5C61.9,305.7,61.9,305.6,61.9,305.5z"/>
		<path class="st1" d="M70,288.3h6.3v4.5H70V288.3z M70.1,294.4h6.1v17.4h-6.1L70.1,294.4z"/>
		<path class="st1" d="M77.4,309.6l2.3-3.7c1.8,1.2,3.8,1.9,6,2c1.1,0,1.6-0.3,1.6-0.9v-0.1c0-0.7-1-1-2.8-1.5
			c-3.4-0.9-6.2-2.1-6.2-5.5v-0.1c0-3.7,3-5.8,7-5.8c2.5,0,5,0.7,7.2,2l-2.1,3.9c-1.6-1-3.3-1.5-5.2-1.6c-0.9,0-1.4,0.4-1.4,0.9v0.1
			c0,0.7,1,1,2.8,1.5c3.4,1,6.2,2.2,6.2,5.5v0.1c0,3.8-2.9,5.8-7.1,5.8C82.7,312.2,79.8,311.3,77.4,309.6z"/>
		<path class="st1" d="M94.3,288.3h6.3v4.5h-6.3V288.3z M94.5,294.4h6.1v17.4h-6.1L94.5,294.4z"/>
		<path class="st1" d="M103.1,294.4h6.1v2.5c1.2-1.7,3.1-2.8,5.2-2.8c3.7,0,5.9,2.5,5.9,6.4v11.4h-6.1v-9.4c0-1.9-1-3-2.5-3
			s-2.6,1-2.6,3v9.4h-6.1V294.4z"/>
		<path class="st1" d="M122.4,315l2-4.1c1.8,1.1,3.9,1.7,6.1,1.6c3,0,4.6-1.5,4.6-4.3v-0.7c-1.3,1.7-3.3,2.6-5.4,2.6
			c-4.3,0-7.8-3.1-7.8-8.1v-0.1c0-5,3.5-8.1,7.5-8.1c2.1-0.1,4.1,0.8,5.5,2.5v-2.1h6.1v13.2c0,3.2-0.7,5.5-2.2,7s-4,2.5-7.7,2.5
			C128.1,317.1,125.1,316.4,122.4,315z M135.1,302.1L135.1,302.1c-0.1-2-1.9-3.5-3.8-3.4c-1.8,0.1-3.2,1.5-3.3,3.3v0.1
			c0.1,2,1.9,3.5,3.8,3.3C133.5,305.3,134.9,303.9,135.1,302.1z"/>
		<path class="st1" d="M150.7,303.1L150.7,303.1c0-5,3.9-9.1,8.9-9.2c0.1,0,0.3,0,0.4,0c3-0.2,5.8,1.3,7.4,3.9l-4.1,3.1
			c-0.7-1.1-1.9-1.8-3.2-1.8c-2,0.1-3.6,1.8-3.5,3.8c0,0,0,0,0,0.1v0.1c0,2.3,1.4,4,3.5,4c1.3,0,2.6-0.7,3.4-1.8l4.1,3
			c-1.7,2.6-4.6,4.2-7.7,4c-5,0.1-9.1-3.9-9.1-8.9C150.7,303.4,150.7,303.3,150.7,303.1z"/>
		<path class="st1" d="M168,306.8L168,306.8c0-3.7,2.7-5.6,6.8-5.6c1.4,0,2.8,0.2,4.2,0.7v-0.3c0-1.8-1.1-2.9-3.5-2.9
			c-1.7,0-3.3,0.4-4.8,1l-1.3-4.3c2.2-0.9,4.6-1.4,7.1-1.4c3.1,0,5.2,0.7,6.6,2.1s1.9,3.1,1.9,5.5v10h-6V310
			c-1.3,1.5-3.2,2.3-5.2,2.2C170.5,312.2,168,310.2,168,306.8z M179,305.5v-0.8c-0.8-0.3-1.6-0.4-2.4-0.5c-1.8,0-2.8,0.8-2.8,2.2
			v0.1c0,1.1,0.9,1.9,1.9,1.9c0.1,0,0.2,0,0.2,0c1.5,0.1,2.9-1,3-2.5C179,305.7,179,305.6,179,305.5z"/>
		<path class="st1" d="M187.1,294.4h6.1v2.3c1.2-1.7,3.2-2.7,5.3-2.7c4.2,0,7.7,3.5,7.7,9v0.1c0,5.7-3.6,9.1-7.7,9.1
			c-2.1,0.1-4-0.9-5.3-2.5v7.3h-6.1V294.4z M200.3,303.1L200.3,303.1c0.2-2.1-1.3-3.8-3.2-4c-2-0.2-3.7,1.3-3.9,3.2
			c0,0.2,0,0.4,0,0.7v0.1c-0.2,2,1.3,3.7,3.2,3.9c2,0.2,3.7-1.3,3.9-3.2C200.3,303.5,200.3,303.3,200.3,303.1L200.3,303.1z"/>
		<path class="st1" d="M208,288.3h6.4v4.5H208V288.3z M208.1,294.4h6.1v17.4h-6.1V294.4z"/>
		<path class="st1" d="M217.8,306.4v-7.1h-2.1v-4.9h2.1v-4.4h6.1v4.4h4.1v4.9h-4.1v5.9c0,1.2,0.6,1.7,1.7,1.7c0.8,0,1.6-0.2,2.3-0.6
			v4.8c-1.3,0.7-2.8,1-4.2,1C220,312.1,217.8,310.5,217.8,306.4z"/>
		<path class="st1" d="M228.8,306.8L228.8,306.8c0-3.7,2.7-5.6,6.8-5.6c1.4,0,2.8,0.2,4.2,0.7v-0.3c0-1.8-1.1-2.9-3.5-2.9
			c-1.7,0-3.3,0.4-4.8,1l-1.2-4.3c2.2-0.9,4.6-1.4,7.1-1.4c3.1,0,5.2,0.7,6.6,2.1s1.9,3.1,1.9,5.5v10h-6V310
			c-1.3,1.5-3.2,2.3-5.2,2.2C231.3,312.2,228.8,310.2,228.8,306.8z M239.9,305.5v-0.8c-0.8-0.3-1.6-0.5-2.4-0.5
			c-1.8,0-2.8,0.8-2.8,2.2v0.1c0,1.1,0.9,1.9,1.9,1.9c0.1,0,0.1,0,0.2,0c1.5,0.1,2.9-1,3-2.5C239.9,305.7,239.9,305.6,239.9,305.5z"
			/>
		<path class="st1" d="M248.2,288.3h6.1v23.5h-6.1V288.3z"/>
		<path class="st1" d="M260.5,299l0.3-0.3c3.7-0.3,5-1.2,5-2.6v-0.1c0-1.1-0.9-1.8-2.4-1.8c-1.8,0.1-3.4,0.9-4.7,2.1l-3.2-4.2
			c2.2-2.2,5.2-3.5,8.3-3.4c4.7,0,8.1,2.5,8.1,6.8v0.1c0,4.1-2.7,5.8-6.3,6.7l-0.4,2.1h-3.9L260.5,299z M259.9,306.3h6.4v5.5h-6.4
			V306.3z"/>
	</g>
</g>
</svg>
