<?xml version="1.0" encoding="utf-8"?>
<!-- Generator: Adobe Illustrator 24.2.0, SVG Export Plug-In . SVG Version: 6.00 Build 0)  -->
<svg version="1.1" id="Layer_1" xmlns="http://www.w3.org/2000/svg" xmlns:xlink="http://www.w3.org/1999/xlink" x="0px" y="0px"
	 viewBox="0 0 300 600" style="enable-background:new 0 0 300 600;" xml:space="preserve">
<style type="text/css">
	.st0{clip-path:url(#SVGID_2_);}
	.st1{clip-path:url(#SVGID_4_);}
	.st2{clip-path:url(#SVGID_6_);}
	.st3{clip-path:url(#SVGID_8_);}
	.st4{fill:#D2CFB2;}
	.st5{fill:#58C7DD;}
</style>
<g>
	<defs>
		<rect id="SVGID_1_" y="0" width="300" height="600"/>
	</defs>
	<clipPath id="SVGID_2_">
		<use xlink:href="#SVGID_1_"  style="overflow:visible;"/>
	</clipPath>
	<g class="st0">
		<g>
			<defs>
				<rect id="SVGID_3_" x="66.6" y="126" width="166.9" height="28"/>
			</defs>
			<clipPath id="SVGID_4_">
				<use xlink:href="#SVGID_3_"  style="overflow:visible;"/>
			</clipPath>
			<g class="st1">
				<g>
					<g>
						<defs>
							<rect id="SVGID_5_" x="-32768" y="-32167" width="65535" height="65535"/>
						</defs>
						<clipPath id="SVGID_6_">
							<use xlink:href="#SVGID_5_"  style="overflow:visible;"/>
						</clipPath>
						<g class="st2">
							<g>
								<defs>
									<rect id="SVGID_7_" x="71.3" y="127" width="157.5" height="26"/>
								</defs>
								<clipPath id="SVGID_8_">
									<use xlink:href="#SVGID_7_"  style="overflow:visible;"/>
								</clipPath>
								<g class="st3">
									<path class="st4" d="M176.4,152.5h19.9v-5.8h-13.1v-3.9h11.7v-5.4h-11.7v-3.7h13v-5.7h-19.7V152.5z M206.3,152.9
										c2.3,0,4.4-1.1,5.7-2.9v2.5h6.6V127h-6.6v8.9c-1.4-1.8-3.5-2.8-5.8-2.7c-4.5,0-8.4,3.7-8.4,9.9v0.1
										C197.9,149.1,201.8,152.9,206.3,152.9 M208.3,147.4c-2.2-0.1-3.9-1.9-3.9-4.1c0-0.1,0-0.1,0-0.2V143
										c-0.2-2.1,1.3-4.1,3.4-4.3c2.1-0.2,4.1,1.3,4.3,3.4c0,0.3,0,0.6,0,0.9v0.1c0.2,2.2-1.5,4.1-3.7,4.3
										C208.5,147.4,208.4,147.4,208.3,147.4 M228.3,147.3c-0.7-1.1-1.9-1.8-3.1-1.8c-1,0-1.9,0.4-2.6,1.1
										c-1.4,1.4-1.5,3.7-0.1,5.1c0,0,0,0,0.1,0.1c0.7,0.7,1.6,1.1,2.6,1.1c1,0,1.9-0.4,2.6-1.1c0.7-0.7,1-1.6,1-2.6
										C228.7,148.5,228.5,147.9,228.3,147.3"/>
									<path class="st5" d="M71.3,152.5H78v-24.4h-6.8V152.5z M81.8,152.5h6.6v-10.2c0-2.1,1.2-3.2,2.8-3.2s2.7,1.1,2.7,3.2v10.2
										h6.6v-12.4c0-4.3-2.4-7-6.4-7c-2.3,0-4.4,1.2-5.7,3.1v-2.6h-6.6V152.5z M109,152.7h6l7.6-19h-6.8l-3.7,11l-3.6-11h-7
										L109,152.7z M132.6,153c3.2,0.1,6.2-1.3,8.2-3.8l-3.7-3c-1.1,1.2-2.6,1.9-4.2,1.9c-1.9,0.1-3.7-1.2-4.1-3.1h12.6
										c0-0.4,0-0.9,0-1.4c0-5.6-3-10.3-9.5-10.3c-5.6,0-9.5,4.4-9.5,9.9v0.1C122.4,149,126.6,153,132.6,153 M128.7,141.6
										c0.4-2.1,1.5-3.4,3.3-3.4s3.1,1.3,3.3,3.4H128.7z M151.5,153c4.6,0,7.7-2.2,7.7-6.3v-0.1c0-3.7-3-5-6.7-6
										c-2-0.6-3.1-0.9-3.1-1.7v-0.1c0-0.6,0.5-0.9,1.5-0.9c2,0.1,3.9,0.8,5.6,1.8l2.3-4.2c-2.3-1.4-5-2.2-7.8-2.2
										c-4.4,0-7.6,2.2-7.6,6.3v0.1c0,3.8,3,5,6.7,6c2,0.6,3.1,0.9,3.1,1.6v0.1c0,0.7-0.6,1-1.7,1c-2.3-0.1-4.6-0.8-6.5-2.2
										l-2.5,4C145.2,152,148.3,153,151.5,153 M168.8,153c1.6,0,3.2-0.4,4.6-1.1v-5.2c-0.8,0.4-1.6,0.6-2.5,0.6
										c-1.2,0-1.8-0.6-1.8-1.9V139h4.4v-5.3H169v-4.8h-6.6v4.8h-2.2v5.3h2.2v7.7C162.4,151.2,164.8,153,168.8,153"/>
								</g>
							</g>
						</g>
					</g>
				</g>
			</g>
		</g>
	</g>
</g>
</svg>
