<svg id="Layer_1" data-name="Layer 1" xmlns="http://www.w3.org/2000/svg" xmlns:xlink="http://www.w3.org/1999/xlink" viewBox="0 0 300 600"><defs><style>.cls-1{fill:none;}.cls-2{clip-path:url(#clip-path);}.cls-3{clip-path:url(#clip-path-2);}.cls-4{fill:#fff;}.cls-5{clip-path:url(#clip-path-3);}.cls-6{clip-path:url(#clip-path-6);}.cls-7{clip-path:url(#clip-path-7);}.cls-8{fill:#130c0e;}.cls-9{clip-path:url(#clip-path-8);}.cls-10{isolation:isolate;}</style><clipPath id="clip-path"><rect class="cls-1" width="300" height="600"/></clipPath><clipPath id="clip-path-2"><rect class="cls-1" x="61.22" y="500" width="177.56" height="58.96"/></clipPath><clipPath id="clip-path-3"><rect class="cls-1" x="61.22" y="500" width="177.56" height="58.96"/></clipPath><clipPath id="clip-path-6"><rect class="cls-1" x="320" width="300" height="600"/></clipPath><clipPath id="clip-path-7"><rect class="cls-1" x="320" y="20" width="300" height="580"/></clipPath><clipPath id="clip-path-8"><rect class="cls-1" x="386.55" y="125.99" width="166.89" height="28.01"/></clipPath></defs><g class="cls-2"><g class="cls-3"><path class="cls-4" d="M69.81,536c.1-.12,2.17,8.24,13.7,6.81-2.26-5.45-9.31-9-10.93-9.1.31-.24,2.34-1.76,2.66-1.94-.44,1.47,6.18,7.61,11.29,5.91-1.36-4.16-7-7.68-8.43-7.74.61-.31,1.22-.79,1.85-1.09-.33.79,4.53,5.55,9.72,5.17.06-2.47-5.57-7.18-6.66-6.81.52-.27,1.31-.74,1.55-.86.74,1.7,5.54,5.33,8.84,4.74-2.7-5.72-6.14-6.06-6.17-6.06l1.61-.79c0,1.54,4.74,5,8,4.19-.67-2.55-3.27-5-5.82-5.27l1.75-.82c-.27.48,3.72,3.81,7.5,3.6-1.83-4.43-4.33-4.53-5.23-4.69.51-.23,1.06-.54,1.6-.82.21.57,2.27,3.49,7.26,2.75a6.56,6.56,0,0,0-5.27-3.7c.71-.42,1.24-.59,1.75-.88.36.41,1.6,3,6.65,2.09a5.64,5.64,0,0,0-4.3-3.35c.43-.26.94-.54,1.28-.74a5.94,5.94,0,0,0,5.69,1.66c-.53-1.54-2.5-2.47-4.27-2.53.77-.49,1.49-1,1.48-1,.25.6,1.76,2,5.27,1.08-1.13-2.21-4-1.93-4-1.92.7-.51.9-.7,1.44-1.11a3.39,3.39,0,0,0,4.52.71,3.16,3.16,0,0,0-3.42-1.65c.38-.38.71-.66,1-1-.13.33,2.11,1.51,4.09,0a3.83,3.83,0,0,0-3.1-1.07c.23-.32.29-.3.59-.7a2.63,2.63,0,0,0,3.43-.32,3.19,3.19,0,0,0-2.93-.36l.64-1a2.06,2.06,0,0,0,2.85-.54,3.25,3.25,0,0,0-2.43-.22s.2-.42.31-.61c3.51.43,2.31-3.67,1.52-6-13.26,20.18-30.89,5.9-52.45,18.59a18.12,18.12,0,0,0-1.11,8.21,11.24,11.24,0,0,0,.14,1.13,15,15,0,0,0,.82,3.49c.43,1.24.9,2.07,1.43,3.34.31-.23.67-.5.92-.71-1-1.37-4.21-9.68-.18-14.53,3.82-.06,4.25,10.88,3.61,12,0,0,1.78-1.17,2.46-1.59-.82-.33-3.71-9.83,1.11-13.79,0,0,4.31,1.65,2.52,11.68.73-.48,1.76-.91,2.77-1.43-.55-1-3.49-8.14,1.22-11.88,2.53,1,2.4,8.88,1.41,10.59.81-.37,1.68-.83,2.5-1.2-1.49-.69-1.38-8.07,1.13-10.08,2.79,2.63,2.11,7,1.42,9l2.09-.87c-1.66-3.14-.89-6.94.89-8.43q2,1.31,1.11,7.59c.59-.24.93-.42,1.51-.63-.36-.69-1.32-5,1.14-7.27,2.19,1,1.41,5.8,1.25,6.28,0,0,1.28-.5,1.26-.54-.43-.92-.73-4.44,1.29-6.14.81.58,1.66,2.18.89,5.21.47-.23,1-.43,1.46-.65-.69-.77-.19-3.85.84-5.09,1.24.55,1.77,3.22,1.32,4.11.31-.16.71-.35,1.22-.64-.4-.62-.53-3.5.68-4.28,1.19.81,1.07,2.92,1,3.39.35-.22,1.34-.73,1.31-.75a2.65,2.65,0,0,1,.44-3.68c1.23.28,1.25,2.57,1.14,2.72.48-.32,1.24-.87,1.62-1.15-1.12-.24-1-2.05-.38-2.85.74.15,1.27.6,1.51,1.93.29-.26,1-.81,1.18-1.06a1.49,1.49,0,0,1-.48-2.5,2,2,0,0,1,1.38,1.58,7.24,7.24,0,0,0,.73-.86,1.83,1.83,0,0,1-.5-2.2c.64-.06,1.21.8,1.3,1.17l.63-.91c-.36-.3-1.11-1.15-.45-1.89.72,0,1,.58,1.14,1.1-7.29,14.32-36.77,16.78-52.15,34,0,0-1.6,1.67-1.6,2.48v5.82h.32A28.28,28.28,0,0,1,69.81,536"/></g><g class="cls-5"><path class="cls-4" d="M125.86,500.33a3,3,0,1,0,3,2.89,3,3,0,0,0-3-2.89m2.68,2.89a2.61,2.61,0,1,1-2.67-2.54,2.6,2.6,0,0,1,2.67,2.54"/><polygon class="cls-4" points="125.56 502.69 125.56 502.34 124 502.34 124 502.69 124.58 502.69 124.58 504.5 124.97 504.5 124.97 502.69 125.56 502.69"/><polygon class="cls-4" points="127.71 504.5 127.71 502.33 127.32 502.33 126.68 503.56 126.05 502.33 125.66 502.33 125.66 504.5 126.05 504.5 126.05 503.09 126.5 503.99 126.86 503.99 127.32 503.09 127.32 504.5 127.71 504.5"/><polygon class="cls-4" points="120.53 550.09 118.41 550.09 118.41 556.78 116.83 556.78 116.83 550.09 114.71 550.09 114.71 548.67 120.53 548.67 120.53 550.09"/><path class="cls-4" d="M125.44,554.28h-3.71a1.36,1.36,0,0,0,.34,1,1.26,1.26,0,0,0,1,.36,1.84,1.84,0,0,0,1.35-.56l.9.88a3.1,3.1,0,0,1-1,.69,3.18,3.18,0,0,1-1.3.24c-1.83,0-2.74-1-2.74-3a3.26,3.26,0,0,1,.72-2.24,2.33,2.33,0,0,1,1.86-.79,2.41,2.41,0,0,1,1.92.81,3,3,0,0,1,.67,2Zm-1.46-1a1.54,1.54,0,0,0-.14-.63,1.1,1.1,0,0,0-2,0,1.54,1.54,0,0,0-.13.63Z"/><polygon class="cls-4" points="134.41 550.09 132.29 550.09 132.29 556.78 130.71 556.78 130.71 550.09 128.59 550.09 128.59 548.67 134.41 548.67 134.41 550.09"/><path class="cls-4" d="M139.4,556.78H138v-.51a2,2,0,0,1-1.46.57,2,2,0,0,1-1.5-.51,1.82,1.82,0,0,1-.51-1.34,1.63,1.63,0,0,1,.52-1.24,2.13,2.13,0,0,1,1.5-.49h1.4V553c0-.62-.37-.94-1.1-.94a1.44,1.44,0,0,0-1.14.49l-.94-.92a2.29,2.29,0,0,1,.93-.65,3.62,3.62,0,0,1,1.21-.17c1.69,0,2.53.7,2.53,2.1Zm-1.49-2.18v-.32h-1.17c-.55,0-.82.22-.82.67s.28.68.85.68a1.12,1.12,0,0,0,1-.37,1.16,1.16,0,0,0,.14-.66"/><path class="cls-4" d="M145.68,556.78h-1.45v-.54a1.93,1.93,0,0,1-1.48.61,1.89,1.89,0,0,1-1.4-.52,2.28,2.28,0,0,1-.6-1.69v-3.79h1.49v3.59a1.07,1.07,0,0,0,.31.84.94.94,0,0,0,.66.24.92.92,0,0,0,.66-.24,1.08,1.08,0,0,0,.32-.84v-3.59h1.49Z"/><path class="cls-4" d="M151.49,551.34l-1.12,1.13a1.06,1.06,0,0,0-.78-.36.89.89,0,0,0-.65.27,1.09,1.09,0,0,0-.31.83v3.58h-1.48v-5.94h1.45v.57a1.84,1.84,0,0,1,1.49-.64,1.91,1.91,0,0,1,1.4.56"/></g><g class="cls-3"><path class="cls-4" d="M156.65,556.78H155.2v-.51a2,2,0,0,1-1.46.57,2,2,0,0,1-1.5-.51,1.85,1.85,0,0,1-.5-1.34,1.59,1.59,0,0,1,.52-1.24,2.11,2.11,0,0,1,1.5-.49h1.4V553c0-.62-.37-.94-1.1-.94a1.44,1.44,0,0,0-1.14.49l-.94-.92a2.33,2.33,0,0,1,.92-.65,3.64,3.64,0,0,1,1.22-.17c1.69,0,2.53.7,2.53,2.1Zm-1.49-2.18v-.32H154c-.55,0-.83.22-.83.67s.29.68.85.68a1.14,1.14,0,0,0,1-.37,1.25,1.25,0,0,0,.14-.66"/><path class="cls-4" d="M163,553.81a9.28,9.28,0,0,1-.07,1.37,2.1,2.1,0,0,1-.53,1.14,1.94,1.94,0,0,1-1.44.53,1.84,1.84,0,0,1-1.44-.59V559h-1.48v-8.11h1.43v.56a1.92,1.92,0,0,1,1.49-.63,2,2,0,0,1,1.44.54,2,2,0,0,1,.53,1.14,9.06,9.06,0,0,1,.07,1.35m-1.49,0a3.67,3.67,0,0,0-.12-1.12.85.85,0,0,0-.87-.57.87.87,0,0,0-.88.57,3.67,3.67,0,0,0-.12,1.12,3.75,3.75,0,0,0,.12,1.13.87.87,0,0,0,.88.58.85.85,0,0,0,.87-.58,3.75,3.75,0,0,0,.12-1.13"/></g><g class="cls-5"><path class="cls-4" d="M168.75,556.78H167.3v-.51a2,2,0,0,1-1.46.57,2,2,0,0,1-1.5-.51,1.81,1.81,0,0,1-.5-1.34,1.62,1.62,0,0,1,.51-1.24,2.16,2.16,0,0,1,1.51-.49h1.39V553c0-.62-.36-.94-1.1-.94a1.44,1.44,0,0,0-1.13.49l-.94-.92A2.26,2.26,0,0,1,165,551a3.64,3.64,0,0,1,1.22-.17c1.68,0,2.53.7,2.53,2.1Zm-1.5-2.18v-.32h-1.16c-.55,0-.83.22-.83.67s.28.68.85.68a1.14,1.14,0,0,0,1-.37,1.26,1.26,0,0,0,.13-.66"/><polygon class="cls-4" points="177.94 550.09 175.82 550.09 175.82 556.78 174.24 556.78 174.24 550.09 172.12 550.09 172.12 548.67 177.94 548.67 177.94 550.09"/><path class="cls-4" d="M183,556.78h-1.45v-.54a1.93,1.93,0,0,1-1.48.61,1.89,1.89,0,0,1-1.4-.52,2.28,2.28,0,0,1-.6-1.69v-3.79h1.49v3.59a1.08,1.08,0,0,0,.32.84,1,1,0,0,0,1.31,0,1.08,1.08,0,0,0,.32-.84v-3.59H183Z"/><path class="cls-4" d="M189.32,556.78h-1.5v-3.62a1.07,1.07,0,0,0-.3-.82,1,1,0,0,0-.65-.22.89.89,0,0,0-.64.22,1.06,1.06,0,0,0-.31.82v3.62h-1.49v-8.1h1.49v2.72a1.93,1.93,0,0,1,1.42-.62,1.87,1.87,0,0,1,1.48.62,2.29,2.29,0,0,1,.5,1.55Z"/><path class="cls-4" d="M195.5,553.81a5.52,5.52,0,0,1-.13,1.36,2.09,2.09,0,0,1-.54,1,2.42,2.42,0,0,1-1.85.73,2.39,2.39,0,0,1-1.83-.73,2,2,0,0,1-.53-1,5,5,0,0,1-.14-1.36,3.3,3.3,0,0,1,.68-2.31,2.39,2.39,0,0,1,1.82-.72,2.43,2.43,0,0,1,1.84.72,3.3,3.3,0,0,1,.68,2.31m-1.49,0a2.09,2.09,0,0,0-.34-1.43.9.9,0,0,0-.69-.27.89.89,0,0,0-.67.27,2.09,2.09,0,0,0-.34,1.43,2.13,2.13,0,0,0,.34,1.45.92.92,0,0,0,.67.26.94.94,0,0,0,.69-.26,2.13,2.13,0,0,0,.34-1.45"/><path class="cls-4" d="M201.66,556.79h-1.49V553.2a1.07,1.07,0,0,0-.32-.85,1,1,0,0,0-.65-.24,1,1,0,0,0-.67.24,1.1,1.1,0,0,0-.32.85v3.59h-1.48v-5.94h1.45v.55a2,2,0,0,1,1.48-.62,1.9,1.9,0,0,1,1.4.53,2.27,2.27,0,0,1,.6,1.68Z"/><path class="cls-4" d="M207.85,553.81a5.45,5.45,0,0,1-.14,1.36,2.08,2.08,0,0,1-.53,1,2.43,2.43,0,0,1-1.85.73,2.39,2.39,0,0,1-1.83-.73,2.09,2.09,0,0,1-.54-1,5.52,5.52,0,0,1-.13-1.36,3.26,3.26,0,0,1,.68-2.31,2.39,2.39,0,0,1,1.82-.72,2.43,2.43,0,0,1,1.84.72,3.3,3.3,0,0,1,.68,2.31m-1.49,0a2.14,2.14,0,0,0-.34-1.43.9.9,0,0,0-.69-.27.87.87,0,0,0-.67.27,2.09,2.09,0,0,0-.34,1.43,2.13,2.13,0,0,0,.34,1.45.9.9,0,0,0,.67.26.94.94,0,0,0,.69-.26,2.19,2.19,0,0,0,.34-1.45"/><rect class="cls-4" x="178.98" y="549.02" width="3.28" height="0.75"/><path class="cls-4" d="M211.11,530.82H207.2V520h3.91a3.9,3.9,0,0,1,2.86,1c1.12,1.12,1.11,2.48,1.1,3.92v.8c0,1.49,0,2.89-1.1,4a3.94,3.94,0,0,1-2.86,1m-1.72-2h1.53a1.81,1.81,0,0,0,1.52-.64c.38-.47.45-1.22.45-2.84s-.07-2.29-.45-2.76a1.83,1.83,0,0,0-1.52-.64h-1.53Z"/><path class="cls-4" d="M166.38,530.82h-7.14v-7.23a6.92,6.92,0,0,1,.33-2.7,1.85,1.85,0,0,1,1.78-.87h5v2H162.5a1.09,1.09,0,0,0-.79.28,1.41,1.41,0,0,0-.29.93v1.21h4.23v2h-4.23v2.5h5Z"/><path class="cls-4" d="M132.35,520H125.2v7.23a6.76,6.76,0,0,0,.34,2.71,1.83,1.83,0,0,0,1.78.86h5v-2h-3.89a1.05,1.05,0,0,1-.78-.27,1.44,1.44,0,0,1-.29-.94v-1.2h4.23v-2h-4.23V522h5Z"/><path class="cls-4" d="M180.42,528.86h4.86v2h-7.05v-9.4h0a1.26,1.26,0,0,0-.7-1.3h0s0,0,0,0a0,0,0,0,1,0-.05h1.29c.86,0,1.55.27,1.6,2.33Z"/><polygon class="cls-4" points="122.98 530.82 121.04 530.82 116.88 524.36 116.88 530.82 114.69 530.82 114.69 520.02 116.63 520.02 120.8 526.47 120.8 520.02 122.98 520.02 122.98 530.82"/><path class="cls-4" d="M202.78,524.86v-3.65a1.11,1.11,0,0,0-.63-1.09h0s0,0,0,0a0,0,0,0,1,0-.05h1.26c1,0,1.52.72,1.54,2.26v8.54H203l-4.17-6.46v6.46h-2.18V520h1.93l4.17,6.45Z"/><path class="cls-4" d="M192,521.08a1.32,1.32,0,0,0-1.3-1.05h-.8L186,530.82h2.27l.65-1.89h3.74l.63,1.89h2.28Zm-2.48,6,1.28-3.71,1.25,3.71Z"/><path class="cls-4" d="M173.55,521.08a1.3,1.3,0,0,0-1.29-1.05h-.8l-3.93,10.8h2.28l.65-1.89h3.73l.63,1.89h2.28Zm-2.47,6,1.28-3.71,1.24,3.71Z"/><path class="cls-4" d="M137.72,526.64l1.92-6.62h1.63l1.92,6.62,1.64-6.62h2.28l-2.9,10.8h-1.82l-1.93-6.38-1.94,6.38h-1.81l-2.48-9.26c-.23-.9-.5-1.2-1.11-1.44h0s0,0,0,0a0,0,0,0,1,0-.05h1.44a1.76,1.76,0,0,1,1.88,1.5Z"/><path class="cls-4" d="M156.88,522.86a5.45,5.45,0,0,0,.71-2.25V520h-6.94v2H155l-4.53,7.1v1.74h7.13v-2H153Z"/><path class="cls-4" d="M134.6,536.54a1.06,1.06,0,0,0-1-.84h-.64l-3.14,8.65h1.82l.52-1.52h3l.51,1.52h1.82Zm-2,4.8,1-3,1,3Z"/><path class="cls-4" d="M141.69,544.34h-3.13V535.7h3.13a3.11,3.11,0,0,1,2.29.83,3.94,3.94,0,0,1,.88,3.13v.65a4.12,4.12,0,0,1-.88,3.21,3.14,3.14,0,0,1-2.29.82m-1.38-1.56h1.22a1.49,1.49,0,0,0,1.23-.52c.3-.37.35-1,.35-2.27s-.05-1.84-.35-2.21a1.49,1.49,0,0,0-1.23-.51h-1.22Z"/><path class="cls-4" d="M209.25,544.35H207.5V535.7h3.36a2.71,2.71,0,1,1,0,5.42h-1.61Zm0-4.81h1.52a1.14,1.14,0,1,0,0-2.27h-1.52Z"/><polygon class="cls-4" points="188.32 544.35 186.57 544.35 186.57 537.26 184.33 537.26 184.33 535.7 190.56 535.7 190.56 537.26 188.32 537.26 188.32 544.35"/><polygon class="cls-4" points="118.6 544.35 116.85 544.35 116.85 537.26 114.61 537.26 114.61 535.7 120.84 535.7 120.84 537.26 118.6 537.26 118.6 544.35"/><path class="cls-4" d="M181.33,539.57v-2.92a.88.88,0,0,0-.51-.87h0v0a0,0,0,0,1,0,0h1c.81,0,1.22.57,1.23,1.81v6.83h-1.55l-3.34-5.17v5.17h-1.75V535.7H178l3.34,5.16Z"/><path class="cls-4" d="M222.8,538v-1.15a1,1,0,0,0-.56-1h0a0,0,0,0,1,0,0s0,0,0,0h1c.69,0,1.25.23,1.29,1.88v6.76H222.8Z"/><path class="cls-4" d="M238.78,544.35h-5.72v-5.79a5.43,5.43,0,0,1,.27-2.17,1.46,1.46,0,0,1,1.42-.69h4v1.57h-3.11a.83.83,0,0,0-.63.22,1.12,1.12,0,0,0-.23.75v1h3.38v1.57h-3.38v2h4Z"/><path class="cls-4" d="M197.53,544.34h-5.72v-5.78a5.43,5.43,0,0,1,.27-2.17,1.47,1.47,0,0,1,1.42-.69h4v1.56h-3.11a.87.87,0,0,0-.63.22,1.22,1.22,0,0,0-.23.76v1h3.38v1.57h-3.38v2h4Z"/><path class="cls-4" d="M174.82,544.35H169.1v-5.79a5.43,5.43,0,0,1,.27-2.17,1.46,1.46,0,0,1,1.42-.69h4v1.57h-3.11a.83.83,0,0,0-.63.22,1.12,1.12,0,0,0-.23.75v1h3.38v1.57h-3.38v2h4Z"/><path class="cls-4" d="M152,544.35h-5.73v-5.79a5.43,5.43,0,0,1,.27-2.17,1.47,1.47,0,0,1,1.42-.69h4v1.57h-3.12a.84.84,0,0,0-.63.22,1.17,1.17,0,0,0-.23.75v1h3.39v1.57H148v2h4Z"/><path class="cls-4" d="M158.73,544.39c-1.85,0-2.87-.93-2.87-2.63a2.86,2.86,0,0,1,1.49-2.29,2.75,2.75,0,0,1-.81-1.78,2.3,2.3,0,0,1,4.57,0,1.81,1.81,0,0,1-.9,1.53l-.54.39,1.31,1.55a2.71,2.71,0,0,0,.36-1.36v-.07H163v.08a4.29,4.29,0,0,1-.88,2.62l1.58,1.86H161.5l-.6-.7a3.15,3.15,0,0,1-2.17.77m-.45-3.85a1.39,1.39,0,0,0-.77,1.19,1.13,1.13,0,0,0,1.21,1.11,1.65,1.65,0,0,0,1.15-.43Zm.59-3.43a.58.58,0,0,0-.63.62,1.54,1.54,0,0,0,.5.85l.3-.2c.31-.22.46-.42.46-.65a.59.59,0,0,0-.63-.62"/><path class="cls-4" d="M221.48,544.35h-2l-1.68-3.42h-1.14v3.42h-1.75V535.7h3.4a2.62,2.62,0,0,1,2.82,2.66,2.34,2.34,0,0,1-1.55,2.27Zm-4.84-4.9h1.54a1.1,1.1,0,1,0,0-2.19h-1.54Z"/><path class="cls-4" d="M206,544.35h-2l-1.67-3.42H201.2v3.42h-1.75V535.7h3.4a2.61,2.61,0,0,1,2.81,2.66,2.33,2.33,0,0,1-1.55,2.27Zm-4.84-4.9h1.54a1.1,1.1,0,1,0,0-2.19H201.2Z"/><path class="cls-4" d="M129,544.34h-2l-1.67-3.41h-1.15v3.41h-1.75V535.7h3.4a2.62,2.62,0,0,1,2.82,2.66,2.34,2.34,0,0,1-1.55,2.27Zm-4.84-4.89h1.54a1.09,1.09,0,1,0,0-2.18h-1.54Z"/><path class="cls-4" d="M231.27,539.93a2.86,2.86,0,0,0-1.65-.67l-1-.14a1.55,1.55,0,0,1-.78-.33.8.8,0,0,1-.24-.59c0-.63.51-1,1.29-1a2.7,2.7,0,0,1,1.3.27h0a.73.73,0,0,0,.89-.1l.67-.67,0,0a3.74,3.74,0,0,0-2.79-1c-1.84,0-3,1-3,2.64a2.3,2.3,0,0,0,.63,1.72,2.94,2.94,0,0,0,1.68.72l1,.14a1.25,1.25,0,0,1,.74.29.93.93,0,0,1,.26.7c0,.67-.52,1-1.48,1a2.75,2.75,0,0,1-2-.71l0,0-1.14,1.14,0,0a4,4,0,0,0,3.15,1.15c1.93,0,3.22-1.06,3.22-2.64a2.45,2.45,0,0,0-.68-1.85"/></g></g><g class="cls-6"><g class="cls-7"><path class="cls-8" d="M470,666c166.35,0,301.21-134.86,301.21-301.21S636.35,63.58,470,63.58,168.79,198.44,168.79,364.79,303.65,666,470,666"/></g></g></svg>