<?xml version="1.0" encoding="utf-8"?>
<!-- Generator: Adobe Illustrator 23.0.3, SVG Export Plug-In . SVG Version: 6.00 Build 0)  -->
<svg version="1.1" id="Layer_1" xmlns="http://www.w3.org/2000/svg" xmlns:xlink="http://www.w3.org/1999/xlink" x="0px" y="0px"
	 viewBox="0 0 160 600" style="enable-background:new 0 0 160 600;" xml:space="preserve">
<g>
	<path d="M49.8,560.1c0.8,0,1.4,0.2,1.8,0.6l-0.3,0.6c-0.4-0.3-1-0.5-1.5-0.5c-1.4,0-2.2,1-2.2,2.2c0,1.2,0.8,2.2,2.2,2.2
		c0.6,0,1.2-0.2,1.5-0.5l0.3,0.6c-0.5,0.4-1,0.6-1.8,0.6c-1.9,0-3-1.3-3-2.9C46.7,561.5,47.9,560.1,49.8,560.1z"/>
	<path d="M53,564.7l-0.4,1.2h-0.8l2.2-5.6h0.9l2.2,5.6h-0.8l-0.4-1.2H53z M55.5,564l-1.1-3l-1.1,3H55.5z"/>
	<path d="M57.6,565.8v-5.6h2.3c1.1,0,1.7,0.8,1.7,1.8c0,0.8-0.5,1.5-1.3,1.7c0.1,0.6,0.4,1.6,1.1,1.6c0.3,0,0.5-0.1,0.7-0.3l0.3,0.5
		c-0.3,0.3-0.6,0.4-1,0.4c-1.3,0-1.7-1.5-1.8-2.2h-1.1v2.1H57.6z M59.8,563.1c0.6,0,1-0.4,1-1.1c0-0.6-0.4-1.1-1-1.1h-1.4v2.2H59.8z
		"/>
	<path d="M66.4,565.8h-3.6v-5.6h3.6v0.7h-2.8v1.9H66v0.7h-2.4v1.8h2.8V565.8z"/>
	<path d="M69.4,564.3c0.1,0.5,0.6,0.9,1.3,0.9c0.7,0,1.2-0.4,1.2-0.9c0-0.4-0.4-0.7-0.8-0.9l-0.8-0.3c-1.1-0.4-1.3-1-1.3-1.5
		c0-1,0.8-1.5,1.8-1.5c1,0,1.7,0.6,1.8,1.3l-0.7,0.2c-0.1-0.6-0.5-0.8-1.1-0.8c-0.5,0-1,0.3-1,0.8c0,0.2,0.1,0.6,0.7,0.8l0.8,0.3
		c0.9,0.3,1.4,0.9,1.4,1.5c0,1-0.8,1.6-2,1.6c-1.1,0-1.9-0.6-2.1-1.4L69.4,564.3z"/>
	<path d="M74.1,564.1c0,0.8,0.4,1.1,0.8,1.1c0.4,0,1.3-0.3,1.3-1.5v-1.9H77v4h-0.8V565c-0.2,0.6-0.7,0.9-1.3,0.9
		c-0.9,0-1.5-0.5-1.5-1.8v-2.3h0.8V564.1z"/>
	<path d="M80.2,565.9c-0.5,0-1.1-0.2-1.4-0.7v2.4H78v-5.8h0.8v0.6c0.4-0.5,0.9-0.7,1.4-0.7c1.2,0,2,0.9,2,2.1S81.4,565.9,80.2,565.9
		z M80.1,565.2c0.8,0,1.3-0.6,1.3-1.4s-0.5-1.4-1.3-1.4c-0.8,0-1.4,0.6-1.4,1.4C78.7,564.6,79.3,565.2,80.1,565.2z"/>
	<path d="M86.6,565.2c-0.5,0.6-1.2,0.7-1.8,0.7c-1.4,0-2.3-0.9-2.3-2.1c0-1.2,0.9-2.1,2.2-2.1c1.1,0,2,0.7,2,2.2h-3.4
		c0,0.8,0.6,1.3,1.5,1.3c0.5,0,0.9-0.2,1.3-0.5L86.6,565.2z M83.4,563.3H86c-0.2-0.7-0.8-0.9-1.2-0.9
		C84.3,562.4,83.7,562.6,83.4,563.3z"/>
	<path d="M88.2,562.7c0.1-0.6,0.6-1,1.1-1c0.1,0,0.3,0,0.4,0.1v0.8c-0.1-0.1-0.3-0.1-0.4-0.1c-0.3,0-1,0.1-1,1.8v1.5h-0.8v-4h0.8
		V562.7z"/>
	<path d="M91.9,565.8v-5.6h2.2c1.1,0,1.7,0.8,1.7,1.8s-0.6,1.7-1.7,1.7h-1.4v2.1H91.9z M94,563.1c0.6,0,1-0.4,1-1.1
		c0-0.6-0.4-1.1-1-1.1h-1.3v2.2H94z"/>
	<path d="M97.5,564.6c0,0.4,0.2,0.6,0.5,0.6c0.2,0,0.5-0.1,0.5-0.4c0-0.1,0-0.2-0.1-0.3c0.2,0,0.4,0,0.7,0c0.1,0.2,0.1,0.4,0.1,0.4
		c0,0.6-0.4,1-1.2,1c-0.6,0-1.2-0.3-1.2-1.4v-2.1H96v-0.6h0.7l0.2-1.2h0.6v1.2h1.3v0.6h-1.3V564.6z"/>
	<path d="M102.3,561.8h0.9l-2.5,5.8H100l0.7-1.9l-1.7-3.9h0.9l1.2,3L102.3,561.8z"/>
	<path d="M108.9,565.8h-3.4v-5.6h0.8v4.9h2.6V565.8z"/>
	<path d="M110.1,564.6c0,0.4,0.2,0.6,0.5,0.6c0.2,0,0.5-0.1,0.5-0.4c0-0.1,0-0.2-0.1-0.3c0.2,0,0.4,0,0.7,0c0.1,0.2,0.1,0.4,0.1,0.4
		c0,0.6-0.4,1-1.2,1c-0.6,0-1.2-0.3-1.2-1.4v-2.1h-0.7v-0.6h0.7l0.2-1.2h0.6v1.2h1.3v0.6h-1.3V564.6z"/>
	<path d="M113.9,561.7c0.5,0,1.1,0.2,1.4,0.7V560h0.8v5.8h-0.8v-0.6c-0.4,0.5-0.9,0.7-1.4,0.7c-1.2,0-2-0.9-2-2.1
		S112.7,561.7,113.9,561.7z M114,562.4c-0.8,0-1.3,0.6-1.3,1.4s0.5,1.4,1.3,1.4c0.8,0,1.4-0.6,1.4-1.4
		C115.4,563,114.8,562.4,114,562.4z"/>
	<path d="M119.5,563.6c0,1.7,0.8,2.9,1.2,3.5l-0.5,0.3c-0.4-0.5-1.5-1.8-1.5-3.8c0-2,1-3.3,1.5-3.8l0.5,0.3
		C120.3,560.6,119.5,561.8,119.5,563.6z"/>
	<path d="M125.3,560.2v0.7h-1.9v4.9h-0.8v-4.9h-1.9v-0.7H125.3z"/>
	<path d="M125.9,562.7c0.1-0.6,0.6-1,1.1-1c0.1,0,0.3,0,0.4,0.1v0.8c-0.1-0.1-0.3-0.1-0.4-0.1c-0.3,0-1,0.1-1,1.8v1.5h-0.8v-4h0.8
		V562.7z"/>
	<path d="M128.5,564.1c0,0.8,0.4,1.1,0.8,1.1c0.4,0,1.3-0.3,1.3-1.5v-1.9h0.8v4h-0.8V565c-0.2,0.6-0.7,0.9-1.3,0.9
		c-0.9,0-1.5-0.5-1.5-1.8v-2.3h0.8V564.1z"/>
	<path d="M134.2,562.8c-0.1-0.4-0.4-0.4-0.6-0.4c-0.4,0-0.6,0.2-0.6,0.5c0,0.3,0.2,0.4,0.5,0.5l0.6,0.2c0.8,0.2,1,0.7,1,1.1
		c0,0.8-0.7,1.2-1.4,1.2c-0.7,0-1.4-0.4-1.5-1l0.7-0.2c0.1,0.3,0.5,0.6,0.9,0.6c0.4,0,0.7-0.2,0.7-0.5c0-0.3-0.2-0.4-0.5-0.5
		l-0.5-0.2c-0.6-0.2-1-0.5-1-1.1c0-0.7,0.5-1.2,1.3-1.2c0.6,0,1.1,0.2,1.3,1L134.2,562.8z"/>
	<path d="M136.6,564.6c0,0.4,0.2,0.6,0.5,0.6c0.2,0,0.5-0.1,0.5-0.4c0-0.1,0-0.2-0.1-0.3c0.2,0,0.4,0,0.7,0c0.1,0.2,0.1,0.4,0.1,0.4
		c0,0.6-0.4,1-1.2,1c-0.6,0-1.2-0.3-1.2-1.4v-2.1h-0.7v-0.6h0.7l0.2-1.2h0.6v1.2h1.3v0.6h-1.3V564.6z"/>
	<path d="M142.5,565.2c-0.5,0.6-1.2,0.7-1.8,0.7c-1.4,0-2.3-0.9-2.3-2.1c0-1.2,0.9-2.1,2.2-2.1c1.1,0,2,0.7,2,2.2h-3.4
		c0,0.8,0.6,1.3,1.5,1.3c0.5,0,0.9-0.2,1.3-0.5L142.5,565.2z M139.3,563.3h2.5c-0.2-0.7-0.8-0.9-1.2-0.9
		C140.2,562.4,139.6,562.6,139.3,563.3z"/>
	<path d="M147,565.2c-0.5,0.6-1.2,0.7-1.8,0.7c-1.4,0-2.3-0.9-2.3-2.1c0-1.2,0.9-2.1,2.2-2.1c1.1,0,2,0.7,2,2.2h-3.4
		c0,0.8,0.6,1.3,1.5,1.3c0.5,0,0.9-0.2,1.3-0.5L147,565.2z M143.8,563.3h2.5c-0.2-0.7-0.8-0.9-1.2-0.9
		C144.7,562.4,144.1,562.6,143.8,563.3z"/>
	<path d="M147.7,559.7c0.4,0.5,1.5,1.8,1.5,3.8c0,2-1,3.4-1.5,3.8l-0.5-0.3c0.4-0.6,1.2-1.8,1.2-3.5c0-1.7-0.8-3-1.2-3.5
		L147.7,559.7z"/>
	<path d="M74,574.3l-0.4,1.2h-0.8l2.2-5.6h0.9l2.2,5.6h-0.8l-0.4-1.2H74z M76.5,573.6l-1.1-3l-1.1,3H76.5z"/>
	<path d="M81.4,572.6c0.9,0.1,1.3,0.7,1.3,1.4c0,0.9-0.8,1.5-1.9,1.5h-2.2v-5.6h2c1.1,0,1.8,0.5,1.8,1.4
		C82.5,571.9,82.1,572.4,81.4,572.6z M80.3,572.3c1,0,1.3-0.5,1.3-1c0-0.6-0.5-0.8-1-0.8h-1.2v1.8H80.3z M79.4,572.9v1.8h1.4
		c0.6,0,1-0.3,1-0.9c0-0.5-0.4-1-1.4-1H79.4z"/>
	<path d="M84.4,571.3v4.1h-0.8v-5.6h0.6l3.1,4.1v-4.1h0.8v5.6h-0.6L84.4,571.3z"/>
	<path d="M92.8,573.5c-1,0-2-0.7-2-1.9c0-1.1,0.8-1.9,2-1.9c1.4,0,2.2,1.1,2.2,2.8c0,1.7-0.8,3-2.4,3c-0.7,0-1.3-0.3-1.6-0.6
		l0.5-0.5c0.2,0.3,0.6,0.4,1,0.4c1,0,1.6-0.9,1.6-2.2C94,573.3,93.4,573.5,92.8,573.5z M92.9,570.4c-0.7,0-1.3,0.5-1.3,1.2
		c0,0.7,0.6,1.2,1.3,1.2s1.3-0.5,1.3-1.2C94.2,570.9,93.6,570.4,92.9,570.4z"/>
	<path d="M95.4,570.7l1.9-0.9h0.4v5.6h-0.8v-4.7l-1.3,0.6L95.4,570.7z"/>
	<path d="M102.7,575.5c-1.5,0-2.4-1.3-2.4-2.9c0-1.6,0.9-2.9,2.4-2.9s2.4,1.3,2.4,2.9C105.1,574.2,104.2,575.5,102.7,575.5z
		 M102.7,570.4c-1,0-1.6,1-1.6,2.2c0,1.2,0.6,2.2,1.6,2.2s1.6-1,1.6-2.2C104.4,571.4,103.7,570.4,102.7,570.4z"/>
	<path d="M108.1,575.5c-1.5,0-2.4-1.3-2.4-2.9c0-1.6,0.9-2.9,2.4-2.9c1.5,0,2.4,1.3,2.4,2.9C110.6,574.2,109.6,575.5,108.1,575.5z
		 M108.1,570.4c-1,0-1.6,1-1.6,2.2c0,1.2,0.6,2.2,1.6,2.2s1.6-1,1.6-2.2C109.8,571.4,109.2,570.4,108.1,570.4z"/>
	<path d="M113.5,571.8c1,0,2,0.7,2,1.9c0,1.1-0.8,1.9-2,1.9c-1.4,0-2.3-1.1-2.3-2.8c0-1.7,0.8-3,2.4-3c0.7,0,1.3,0.3,1.6,0.6
		l-0.5,0.5c-0.2-0.3-0.6-0.4-1-0.4c-0.9,0-1.6,0.8-1.6,2.1C112.4,572,113,571.8,113.5,571.8z M113.4,574.8c0.7,0,1.3-0.5,1.3-1.2
		c0-0.7-0.6-1.2-1.3-1.2c-0.7,0-1.4,0.5-1.4,1.2C112,574.4,112.7,574.8,113.4,574.8z"/>
	<path d="M120.2,571.8c1,0,2,0.7,2,1.9c0,1.1-0.8,1.9-2,1.9c-1.4,0-2.3-1.1-2.3-2.8c0-1.7,0.8-3,2.4-3c0.7,0,1.3,0.3,1.6,0.6
		l-0.5,0.5c-0.2-0.3-0.6-0.4-1-0.4c-0.9,0-1.6,0.8-1.6,2.1C119,572,119.6,571.8,120.2,571.8z M120.1,574.8c0.7,0,1.3-0.5,1.3-1.2
		c0-0.7-0.6-1.2-1.3-1.2c-0.7,0-1.4,0.5-1.4,1.2C118.7,574.4,119.4,574.8,120.1,574.8z"/>
	<path d="M122.4,569.8h4v0.5l-2.8,5.1h-0.9l2.8-4.9h-3.2V569.8z"/>
	<path d="M129.2,575.5c-1.5,0-2.4-1.3-2.4-2.9c0-1.6,0.9-2.9,2.4-2.9c1.5,0,2.4,1.3,2.4,2.9C131.6,574.2,130.6,575.5,129.2,575.5z
		 M129.2,570.4c-1,0-1.6,1-1.6,2.2c0,1.2,0.6,2.2,1.6,2.2s1.6-1,1.6-2.2C130.8,571.4,130.2,570.4,129.2,570.4z"/>
	<path d="M136.4,575.5c-1.5,0-2.4-1.3-2.4-2.9c0-1.6,0.9-2.9,2.4-2.9s2.4,1.3,2.4,2.9C138.9,574.2,137.9,575.5,136.4,575.5z
		 M136.4,570.4c-1,0-1.6,1-1.6,2.2c0,1.2,0.6,2.2,1.6,2.2s1.6-1,1.6-2.2C138.1,571.4,137.5,570.4,136.4,570.4z"/>
	<path d="M141.8,571.8c1,0,2,0.7,2,1.9c0,1.1-0.8,1.9-2,1.9c-1.4,0-2.3-1.1-2.3-2.8c0-1.7,0.8-3,2.4-3c0.7,0,1.3,0.3,1.6,0.6
		l-0.5,0.5c-0.2-0.3-0.6-0.4-1-0.4c-0.9,0-1.6,0.8-1.6,2.1C140.7,572,141.2,571.8,141.8,571.8z M141.7,574.8c0.7,0,1.3-0.5,1.3-1.2
		c0-0.7-0.6-1.2-1.3-1.2c-0.7,0-1.4,0.5-1.4,1.2C140.3,574.4,141,574.8,141.7,574.8z"/>
	<path d="M146.7,575.5c-1.5,0-2.4-1.3-2.4-2.9c0-1.6,0.9-2.9,2.4-2.9s2.4,1.3,2.4,2.9C149.1,574.2,148.2,575.5,146.7,575.5z
		 M146.7,570.4c-1,0-1.6,1-1.6,2.2c0,1.2,0.6,2.2,1.6,2.2c1,0,1.6-1,1.6-2.2C148.3,571.4,147.7,570.4,146.7,570.4z"/>
	<path d="M103.2,583.9l-0.4,1.2h-0.8l2.2-5.6h0.9l2.2,5.6h-0.8l-0.4-1.2H103.2z M105.7,583.2l-1.1-3l-1.1,3H105.7z"/>
	<path d="M107.8,585v-5.6h3.6v0.7h-2.8v1.9h2.4v0.7h-2.4v2.4H107.8z"/>
	<path d="M112.3,583.5c0.1,0.5,0.6,0.9,1.3,0.9c0.7,0,1.2-0.4,1.2-0.9c0-0.4-0.4-0.7-0.8-0.9l-0.8-0.3c-1.1-0.4-1.3-1-1.3-1.5
		c0-1,0.8-1.5,1.8-1.5c1,0,1.7,0.6,1.8,1.3l-0.7,0.2c-0.1-0.6-0.5-0.8-1.1-0.8c-0.5,0-1,0.3-1,0.8c0,0.2,0.1,0.6,0.7,0.8l0.8,0.3
		c0.9,0.3,1.4,0.9,1.4,1.5c0,1-0.8,1.6-2,1.6c-1.1,0-1.9-0.6-2.1-1.4L112.3,583.5z"/>
	<path d="M119.9,585h-3.4v-5.6h0.8v4.9h2.6V585z"/>
	<path d="M123,584.4c0.3,0,1.2,0,1.3,0h1.6v0.7h-4l-0.1-0.5l2.3-2.1c0.4-0.4,0.8-0.8,0.8-1.3c0-0.7-0.5-1.1-1.2-1.1
		c-0.9,0-1.2,0.6-1.2,0.9h-0.8c0-0.6,0.4-1.6,2-1.6c1.2,0,2,0.7,2,1.7c0,0.9-0.5,1.4-1,1.8L123,584.4L123,584.4z"/>
	<path d="M129.7,583.2c0-0.6-0.6-1.1-1.3-1.1c-0.2,0-0.6,0-0.8,0.3l-0.4-0.5l1.8-1.8h-2.5v-0.7h3.8v0.5l-1.7,1.6
		c0.9,0,1.9,0.6,1.9,1.7c0,1.1-0.8,1.9-2.2,1.9c-0.9,0-1.6-0.3-1.9-0.6l0.5-0.5c0.5,0.4,0.9,0.5,1.5,0.5
		C129.2,584.4,129.7,583.8,129.7,583.2z"/>
	<path d="M131.5,584c0.3,0.2,1,0.5,1.5,0.5c1,0,1.4-0.6,1.4-1.3c0-0.6-0.4-1.2-1.3-1.2c-0.5,0-1,0.2-1.3,0.4l-0.6-0.2l0.2-2.7h3.3
		v0.7h-2.6l-0.1,1.7c0.3-0.3,0.8-0.4,1.2-0.4c1.2,0,2,0.9,2,1.9c0,1.2-0.8,2-2.2,2c-0.8,0-1.5-0.3-1.9-0.6L131.5,584z"/>
	<path d="M136.8,584.4c0.3,0,1.2,0,1.3,0h1.6v0.7h-4l-0.1-0.5l2.3-2.1c0.4-0.4,0.8-0.8,0.8-1.3c0-0.7-0.5-1.1-1.2-1.1
		c-0.9,0-1.2,0.6-1.2,0.9h-0.8c0-0.6,0.4-1.6,2-1.6c1.2,0,2,0.7,2,1.7c0,0.9-0.5,1.4-1,1.8L136.8,584.4L136.8,584.4z"/>
	<path d="M141.4,584.4c0.3,0,1.2,0,1.3,0h1.6v0.7h-4l-0.1-0.5l2.3-2.1c0.4-0.4,0.8-0.8,0.8-1.3c0-0.7-0.5-1.1-1.2-1.1
		c-0.9,0-1.2,0.6-1.2,0.9h-0.8c0-0.6,0.4-1.6,2-1.6c1.2,0,2,0.7,2,1.7c0,0.9-0.5,1.4-1,1.8L141.4,584.4L141.4,584.4z"/>
	<path d="M147.2,581.4c1,0,2,0.7,2,1.9c0,1.1-0.8,1.9-2,1.9c-1.4,0-2.3-1.1-2.3-2.8c0-1.7,0.8-3,2.4-3c0.7,0,1.3,0.3,1.6,0.6
		l-0.5,0.5c-0.2-0.3-0.6-0.4-1-0.4c-0.9,0-1.6,0.8-1.6,2.1C146.1,581.6,146.7,581.4,147.2,581.4z M147.1,584.4
		c0.7,0,1.3-0.5,1.3-1.2c0-0.7-0.6-1.2-1.3-1.2c-0.7,0-1.4,0.5-1.4,1.2C145.8,584,146.4,584.4,147.1,584.4z"/>
</g>
</svg>
