<?xml version="1.0" encoding="UTF-8"?>
<svg id="Layer_2" data-name="Layer 2" xmlns="http://www.w3.org/2000/svg" xmlns:xlink="http://www.w3.org/1999/xlink" viewBox="0 0 970 250">
  <defs>
    <style>
      .cls-1 {
        fill: none;
      }

      .cls-1, .cls-2 {
        stroke-width: 0px;
      }

      .cls-3 {
        clip-path: url(#clippath-1);
      }

      .cls-4 {
        clip-path: url(#clippath);
      }

      .cls-2 {
        fill: #fff;
      }
    </style>
    <clipPath id="clippath">
      <rect class="cls-1" width="970" height="250"/>
    </clipPath>
    <clipPath id="clippath-1">
      <rect class="cls-1" width="970" height="250"/>
    </clipPath>
  </defs>
  <g id="Layer_1-2" data-name="Layer 1">
    <g class="cls-4">
      <g class="cls-3">
        <g>
          <path class="cls-2" d="M55.21,64.12c-1.28,0-2.31-.54-2.31-1.91v-19.69c0-1.33,1.06-1.94,2.35-1.94s2.31.61,2.31,1.94v17.35h10.21c1.32,0,1.84.94,1.84,2.12s-.51,2.12-1.84,2.12h-12.56Z"/>
          <path class="cls-2" d="M88,61.96c0,1.08-.33,1.66-1.54,1.98-.73.22-3.08.54-5.98.54-6.57,0-8.7-1.58-8.7-6.8v-4.68c0-5.51,2.39-6.88,8.55-6.88s7.97,1.51,7.97,6.77v2.05c0,1.55-.59,2.09-1.95,2.09h-10.02v.9c0,1.87,1.32,2.59,3.96,2.59,1.98,0,4.44-.32,5.8-.32s1.91.4,1.91,1.76ZM76.33,53.47h7.49v-.79c0-2.12-.81-2.66-3.75-2.66-2.75,0-3.74.47-3.74,2.66v.79Z"/>
          <path class="cls-2" d="M92.81,48.61c0-1.62,1.39-2.48,6.9-2.48,6.79,0,8.48,1.04,8.48,5.94v6.8c0,4.75-2.17,5.62-8.48,5.62s-7.93-.86-7.93-5.72c0-4,.99-5.62,7.71-5.62h4.19v-.72c0-1.76-.7-2.2-3.45-2.2s-4.41.43-5.47.43c-1.43,0-1.95-.79-1.95-2.05ZM103.68,56.78h-4.44c-2.53,0-3.01.43-3.01,1.84,0,1.51.55,1.94,3.63,1.94s3.82-.36,3.82-1.37v-2.41Z"/>
          <path class="cls-2" d="M111.95,51.77c0-3.35,2.35-5.65,8.19-5.65,5.36,0,6.39.97,6.39,2.56,0,1.15-.48,1.76-1.98,1.76-1.1,0-2.2-.4-4.85-.4-2.2,0-3.19.43-3.19,1.3,0,2.81,10.76.58,10.76,7.45,0,4-2.86,5.69-8.08,5.69-6.31,0-7.12-.94-7.12-2.41,0-1.26.51-1.94,2.02-1.94,1.14,0,2.35.43,4.96.43,2.35,0,3.67-.47,3.67-1.55,0-2.66-10.76-.58-10.76-7.24Z"/>
          <path class="cls-2" d="M132.87,39.64c1.43,0,2.61,1.15,2.61,2.56s-1.17,2.52-2.61,2.52-2.53-1.12-2.53-2.52,1.1-2.56,2.53-2.56ZM135.15,62.54c0,1.33-1.03,1.87-2.28,1.87s-2.28-.54-2.28-1.87v-14.43c0-1.33,1.03-1.91,2.28-1.91s2.28.58,2.28,1.91v14.43Z"/>
          <path class="cls-2" d="M144.84,53.93v8.6c0,1.33-1.03,1.87-2.28,1.87s-2.28-.54-2.28-1.87v-8.82c0-6.7,1.65-7.6,8.3-7.6s8.41.9,8.41,7.6v8.82c0,1.33-1.03,1.87-2.28,1.87s-2.24-.54-2.24-1.87v-8.6c0-3.28-.51-3.82-3.89-3.82s-3.75.54-3.75,3.82Z"/>
          <path class="cls-2" d="M175.28,44.9c0-1.26,1.03-1.76,2.24-1.76s2.2.5,2.2,1.76v7.49c0,4.82-2.5,5.83-8.41,5.83-2.31,0-3.52-.18-4.63-.43h-.11v2.23h7.31c4.96,0,6.5,1.33,6.5,5,0,4.57-2.35,6.12-9.51,6.12-6.46,0-8.74-1.37-8.74-6.01v-13.32c0-5.04,2.24-5.69,8.41-5.69,1.72,0,3.56.11,4.62.4h.11v-1.62ZM175.28,52.06v-1.76c-.92-.14-2.5-.29-4.59-.29-3.78,0-4.11.47-4.11,1.91v.76c0,1.4.51,1.69,4.33,1.69,4.04,0,4.37-.32,4.37-2.3ZM166.58,64.77c0,2.09.81,2.48,4.37,2.48,4,0,4.99-.43,4.99-1.91,0-1.12-.55-1.44-2.86-1.44h-6.5v.86Z"/>
          <path class="cls-2" d="M191.88,51.77c0-3.35,2.35-5.65,8.19-5.65,5.36,0,6.39.97,6.39,2.56,0,1.15-.48,1.76-1.98,1.76-1.1,0-2.2-.4-4.85-.4-2.2,0-3.19.43-3.19,1.3,0,2.81,10.76.58,10.76,7.45,0,4-2.86,5.69-8.08,5.69-6.31,0-7.12-.94-7.12-2.41,0-1.26.51-1.94,2.02-1.94,1.14,0,2.35.43,4.96.43,2.35,0,3.67-.47,3.67-1.55,0-2.66-10.76-.58-10.76-7.24Z"/>
          <path class="cls-2" d="M226.65,61.96c0,1.08-.33,1.66-1.54,1.98-.73.22-3.08.54-5.98.54-6.57,0-8.7-1.58-8.7-6.8v-4.68c0-5.51,2.39-6.88,8.55-6.88s7.97,1.51,7.97,6.77v2.05c0,1.55-.59,2.09-1.95,2.09h-10.02v.9c0,1.87,1.32,2.59,3.96,2.59,1.98,0,4.44-.32,5.8-.32s1.91.4,1.91,1.76ZM214.98,53.47h7.49v-.79c0-2.12-.81-2.66-3.75-2.66-2.75,0-3.74.47-3.74,2.66v.79Z"/>
          <path class="cls-2" d="M236.2,53.93v8.6c0,1.33-1.03,1.87-2.28,1.87s-2.28-.54-2.28-1.87v-8.82c0-6.7,1.65-7.6,8.3-7.6s8.41.9,8.41,7.6v8.82c0,1.33-1.03,1.87-2.28,1.87s-2.24-.54-2.24-1.87v-8.6c0-3.28-.51-3.82-3.89-3.82s-3.75.54-3.75,3.82Z"/>
          <path class="cls-2" d="M260.58,50.48h-6.94c-1.32,0-1.8-.83-1.8-1.98s.48-2.02,1.8-2.02h10.68c1.69,0,2.61.97,2.61,2.2,0,.76-.37,1.66-1.1,2.45l-8.26,9h7.6c1.32,0,1.8.83,1.8,1.98s-.48,2.02-1.8,2.02h-11.23c-1.73,0-2.68-.97-2.68-2.23,0-.76.33-1.62,1.06-2.41l8.26-9Z"/>
          <path class="cls-2" d="M270.39,48.61c0-1.62,1.4-2.48,6.9-2.48,6.79,0,8.48,1.04,8.48,5.94v6.8c0,4.75-2.17,5.62-8.48,5.62s-7.93-.86-7.93-5.72c0-4,.99-5.62,7.71-5.62h4.19v-.72c0-1.76-.7-2.2-3.45-2.2s-4.41.43-5.47.43c-1.43,0-1.95-.79-1.95-2.05ZM281.26,56.78h-4.44c-2.53,0-3.01.43-3.01,1.84,0,1.51.55,1.94,3.63,1.94s3.82-.36,3.82-1.37v-2.41Z"/>
          <path class="cls-2" d="M299.36,55.08c0-7.67,2.28-8.96,8.81-8.96s8.77,1.3,8.77,8.96-2.09,9.4-8.77,9.4c-1.25,0-3.12-.25-4.08-.47h-.11v4.61c0,1.37-1.1,1.87-2.35,1.87s-2.28-.5-2.28-1.87v-13.53ZM308.17,50.12c-3.05,0-4.26.36-4.26,5.04s.95,5.33,4.26,5.33,4.26-.5,4.26-5.33-.88-5.04-4.26-5.04Z"/>
          <path class="cls-2" d="M337.36,61.96c0,1.08-.33,1.66-1.54,1.98-.73.22-3.08.54-5.98.54-6.57,0-8.7-1.58-8.7-6.8v-4.68c0-5.51,2.39-6.88,8.55-6.88s7.97,1.51,7.97,6.77v2.05c0,1.55-.59,2.09-1.95,2.09h-10.02v.9c0,1.87,1.32,2.59,3.96,2.59,1.98,0,4.44-.32,5.8-.32s1.91.4,1.91,1.76ZM325.69,53.47h7.49v-.79c0-2.12-.81-2.66-3.75-2.66-2.75,0-3.74.47-3.74,2.66v.79Z"/>
          <path class="cls-2" d="M346.91,53.93v8.6c0,1.33-1.03,1.87-2.28,1.87s-2.28-.54-2.28-1.87v-8.82c0-6.7,1.65-7.6,8.3-7.6s8.41.9,8.41,7.6v8.82c0,1.33-1.03,1.87-2.28,1.87s-2.24-.54-2.24-1.87v-8.6c0-3.28-.51-3.82-3.89-3.82s-3.75.54-3.75,3.82Z"/>
          <path class="cls-2" d="M362.88,51.77c0-3.35,2.35-5.65,8.19-5.65,5.36,0,6.39.97,6.39,2.56,0,1.15-.48,1.76-1.98,1.76-1.1,0-2.2-.4-4.85-.4-2.2,0-3.19.43-3.19,1.3,0,2.81,10.76.58,10.76,7.45,0,4-2.86,5.69-8.08,5.69-6.31,0-7.12-.94-7.12-2.41,0-1.26.51-1.94,2.02-1.94,1.14,0,2.35.43,4.96.43,2.35,0,3.67-.47,3.67-1.55,0-2.66-10.76-.58-10.76-7.24Z"/>
          <path class="cls-2" d="M383.78,39.64c1.43,0,2.61,1.15,2.61,2.56s-1.17,2.52-2.61,2.52-2.53-1.12-2.53-2.52,1.1-2.56,2.53-2.56ZM386.05,62.54c0,1.33-1.03,1.87-2.28,1.87s-2.28-.54-2.28-1.87v-14.43c0-1.33,1.03-1.91,2.28-1.91s2.28.58,2.28,1.91v14.43Z"/>
          <path class="cls-2" d="M407.2,61.96c0,1.08-.33,1.66-1.54,1.98-.73.22-3.08.54-5.98.54-6.57,0-8.7-1.58-8.7-6.8v-4.68c0-5.51,2.39-6.88,8.55-6.88s7.97,1.51,7.97,6.77v2.05c0,1.55-.59,2.09-1.95,2.09h-10.02v.9c0,1.87,1.32,2.59,3.96,2.59,1.98,0,4.44-.32,5.8-.32s1.91.4,1.91,1.76ZM395.53,53.47h7.49v-.79c0-2.12-.81-2.66-3.75-2.66-2.75,0-3.74.47-3.74,2.66v.79Z"/>
          <path class="cls-2" d="M419.69,50.26c-2.46,0-2.94.32-2.94,2.74v9.54c0,1.33-.99,1.87-2.24,1.87s-2.31-.54-2.31-1.87v-9.9c0-5.51,1.8-6.52,7.56-6.52,3.74,0,4.7.86,4.7,2.23,0,1.22-.7,2.05-1.98,2.05-.73,0-1.4-.14-2.79-.14Z"/>
          <path class="cls-2" d="M429.64,39.64c1.43,0,2.61,1.15,2.61,2.56s-1.17,2.52-2.61,2.52-2.53-1.12-2.53-2.52,1.1-2.56,2.53-2.56ZM431.92,62.54c0,1.33-1.03,1.87-2.28,1.87s-2.28-.54-2.28-1.87v-14.43c0-1.33,1.03-1.91,2.28-1.91s2.28.58,2.28,1.91v14.43Z"/>
        </g>
      </g>
    </g>
  </g>
</svg>