<?xml version="1.0" encoding="UTF-8"?>
<svg id="Layer_2" data-name="Layer 2" xmlns="http://www.w3.org/2000/svg" xmlns:xlink="http://www.w3.org/1999/xlink" viewBox="0 0 970 250">
  <defs>
    <style>
      .cls-1 {
        fill: none;
      }

      .cls-1, .cls-2 {
        stroke-width: 0px;
      }

      .cls-3 {
        clip-path: url(#clippath-1);
      }

      .cls-4 {
        clip-path: url(#clippath);
      }

      .cls-2 {
        fill: #fff;
      }
    </style>
    <clipPath id="clippath">
      <rect class="cls-1" width="970" height="250"/>
    </clipPath>
    <clipPath id="clippath-1">
      <rect class="cls-1" width="970" height="250"/>
    </clipPath>
  </defs>
  <g id="Layer_1-2" data-name="Layer 1">
    <g class="cls-4">
      <g class="cls-3">
        <g>
          <path class="cls-2" d="M57.67,55.3v7.2c0,1.37-1.1,1.91-2.39,1.91s-2.39-.54-2.39-1.91v-19.83c0-1.3.88-1.94,2.2-1.94h9.58c5.69,0,7.86,1.58,7.86,7.16,0,4.43-1.36,7.42-7.86,7.42h-7.01ZM57.67,51.2h7.01c2.28,0,3.08-.94,3.08-3.28s-.81-2.99-3.12-2.99h-6.98v6.26Z"/>
          <path class="cls-2" d="M78.42,39.64c1.43,0,2.61,1.15,2.61,2.56s-1.17,2.52-2.61,2.52-2.53-1.12-2.53-2.52,1.1-2.56,2.53-2.56ZM80.7,62.54c0,1.33-1.03,1.87-2.28,1.87s-2.28-.54-2.28-1.87v-14.43c0-1.33,1.03-1.91,2.28-1.91s2.28.58,2.28,1.91v14.43Z"/>
          <path class="cls-2" d="M97.84,56.67v-8.6c0-1.33.99-1.87,2.24-1.87s2.28.54,2.28,1.87v8.82c0,6.7-1.69,7.6-8.3,7.6s-8.26-.9-8.26-7.6v-8.82c0-1.33.99-1.87,2.28-1.87s2.28.54,2.28,1.87v8.6c0,3.28.33,3.82,3.71,3.82s3.78-.54,3.78-3.82ZM91.68,42.63c-.51-.36-.73-.83-.73-1.26,0-.9.88-1.73,1.87-1.73.48,0,.92.18,1.4.65l2.46,2.45c.33.32.48.72.48,1.04,0,.72-.66,1.3-1.51,1.3-.37,0-.73-.11-1.1-.36l-2.86-2.09Z"/>
          <path class="cls-2" d="M123.55,50.26c-2.46,0-2.94.32-2.94,2.74v9.54c0,1.33-.99,1.87-2.24,1.87s-2.31-.54-2.31-1.87v-9.9c0-5.51,1.8-6.52,7.56-6.52,3.74,0,4.7.86,4.7,2.23,0,1.22-.7,2.05-1.98,2.05-.73,0-1.4-.14-2.79-.14Z"/>
          <path class="cls-2" d="M146.27,61.96c0,1.08-.33,1.66-1.54,1.98-.73.22-3.08.54-5.98.54-6.57,0-8.7-1.58-8.7-6.8v-4.68c0-5.51,2.39-6.88,8.55-6.88s7.97,1.51,7.97,6.77v2.05c0,1.55-.59,2.09-1.95,2.09h-10.02v.9c0,1.87,1.32,2.59,3.97,2.59,1.98,0,4.44-.32,5.8-.32s1.91.4,1.91,1.76ZM134.6,53.47h7.49v-.79c0-2.12-.81-2.66-3.75-2.66-2.75,0-3.74.47-3.74,2.66v.79Z"/>
          <path class="cls-2" d="M155.9,62.54c0,1.33-1.03,1.87-2.31,1.87s-2.31-.54-2.31-1.87v-20.62c0-1.33,1.06-1.91,2.31-1.91s2.31.58,2.31,1.91v20.62Z"/>
          <path class="cls-2" d="M161.19,48.61c0-1.62,1.4-2.48,6.9-2.48,6.79,0,8.48,1.04,8.48,5.94v6.8c0,4.75-2.17,5.62-8.48,5.62s-7.93-.86-7.93-5.72c0-4,.99-5.62,7.71-5.62h4.19v-.72c0-1.76-.7-2.2-3.45-2.2s-4.41.43-5.47.43c-1.43,0-1.95-.79-1.95-2.05ZM172.05,56.78h-4.44c-2.53,0-3.01.43-3.01,1.84,0,1.51.55,1.94,3.63,1.94s3.82-.36,3.82-1.37v-2.41Z"/>
          <path class="cls-2" d="M187.99,58.25l-4.63,5.18c-.66.72-1.17.97-1.87.97-1.1,0-2.06-.9-2.06-2.02,0-.4.11-.94.48-1.33l5.29-5.98-4.77-5.36c-.4-.47-.59-1.08-.59-1.48,0-1.15,1.03-2.02,2.17-2.02.66,0,1.21.25,1.69.79l4.33,4.86,4.33-4.86c.33-.4,1.14-.79,1.65-.79,1.06,0,2.13.86,2.13,2.02,0,.43-.15.97-.59,1.48l-4.74,5.33,5.32,5.9c.44.5.48.97.48,1.33,0,1.15-1.03,2.09-2.17,2.09-.55,0-1.14-.25-1.76-.94l-4.7-5.18Z"/>
          <path class="cls-2" d="M213.14,53.93v8.6c0,1.33-1.03,1.87-2.28,1.87s-2.28-.54-2.28-1.87v-8.82c0-6.7,1.65-7.6,8.3-7.6s8.41.9,8.41,7.6v8.82c0,1.33-1.03,1.87-2.28,1.87s-2.24-.54-2.24-1.87v-8.6c0-3.28-.51-3.82-3.89-3.82s-3.75.54-3.75,3.82Z"/>
          <path class="cls-2" d="M246.45,61.96c0,1.08-.33,1.66-1.54,1.98-.73.22-3.08.54-5.98.54-6.57,0-8.7-1.58-8.7-6.8v-4.68c0-5.51,2.39-6.88,8.55-6.88s7.97,1.51,7.97,6.77v2.05c0,1.55-.59,2.09-1.95,2.09h-10.02v.9c0,1.87,1.32,2.59,3.96,2.59,1.98,0,4.44-.32,5.8-.32s1.91.4,1.91,1.76ZM234.77,53.47h7.49v-.79c0-2.12-.81-2.66-3.74-2.66-2.75,0-3.74.47-3.74,2.66v.79Z"/>
          <path class="cls-2" d="M256.07,62.54c0,1.33-1.03,1.87-2.31,1.87s-2.31-.54-2.31-1.87v-20.62c0-1.33,1.06-1.91,2.31-1.91s2.31.58,2.31,1.91v20.62Z"/>
          <path class="cls-2" d="M265.83,62.54c0,1.33-1.03,1.87-2.31,1.87s-2.31-.54-2.31-1.87v-20.62c0-1.33,1.06-1.91,2.31-1.91s2.31.58,2.31,1.91v20.62Z"/>
          <path class="cls-2" d="M271.12,48.61c0-1.62,1.4-2.48,6.9-2.48,6.79,0,8.48,1.04,8.48,5.94v6.8c0,4.75-2.17,5.62-8.48,5.62s-7.93-.86-7.93-5.72c0-4,.99-5.62,7.71-5.62h4.19v-.72c0-1.76-.7-2.2-3.45-2.2s-4.41.43-5.47.43c-1.43,0-1.95-.79-1.95-2.05ZM281.99,56.78h-4.44c-2.53,0-3.01.43-3.01,1.84,0,1.51.55,1.94,3.63,1.94s3.82-.36,3.82-1.37v-2.41Z"/>
          <path class="cls-2" d="M307.66,58.68l4.48-10.8c1.17-2.84,5.87-1.91,4.37,1.4l-5.87,12.85c-.77,1.69-1.76,2.34-3.16,2.34-1.62,0-2.68-.86-3.34-2.34l-5.65-12.85c-1.4-3.2,3.23-4.32,4.37-1.44l4.3,10.83h.51Z"/>
          <path class="cls-2" d="M322.24,39.64c1.43,0,2.61,1.15,2.61,2.56s-1.17,2.52-2.61,2.52-2.53-1.12-2.53-2.52,1.1-2.56,2.53-2.56ZM324.51,62.54c0,1.33-1.03,1.87-2.28,1.87s-2.28-.54-2.28-1.87v-14.43c0-1.33,1.03-1.91,2.28-1.91s2.28.58,2.28,1.91v14.43Z"/>
          <path class="cls-2" d="M336.48,60.48c1.1,0,1.73-.11,2.5-.11,1.21,0,1.73.61,1.73,1.76,0,1.66-.81,2.34-4.92,2.34-3.49,0-5.21-.94-5.21-4.97v-8.93h-1.8c-1.29,0-1.76-.86-1.76-2.05s.48-2.05,1.76-2.05h1.8v-2.84c0-1.3,1.03-1.84,2.24-1.84,1.29,0,2.31.54,2.31,1.84v2.84h3.78c1.29,0,1.65.9,1.65,2.05s-.37,2.05-1.65,2.05h-3.78v8.57c0,1.01.62,1.33,1.36,1.33Z"/>
          <path class="cls-2" d="M343.72,48.61c0-1.62,1.4-2.48,6.9-2.48,6.79,0,8.48,1.04,8.48,5.94v6.8c0,4.75-2.17,5.62-8.48,5.62s-7.93-.86-7.93-5.72c0-4,.99-5.62,7.71-5.62h4.19v-.72c0-1.76-.7-2.2-3.45-2.2s-4.41.43-5.47.43c-1.43,0-1.95-.79-1.95-2.05ZM354.58,56.78h-4.44c-2.53,0-3.01.43-3.01,1.84,0,1.51.55,1.94,3.63,1.94s3.82-.36,3.82-1.37v-2.41Z"/>
          <path class="cls-2" d="M365.6,58.83c1.58,0,2.83,1.26,2.83,2.81s-1.25,2.77-2.83,2.77-2.79-1.15-2.79-2.77,1.17-2.81,2.79-2.81Z"/>
        </g>
      </g>
    </g>
  </g>
</svg>