<?xml version="1.0" encoding="UTF-8"?>
<svg id="Layer_2" data-name="Layer 2" xmlns="http://www.w3.org/2000/svg" xmlns:xlink="http://www.w3.org/1999/xlink" viewBox="0 0 970 250">
  <defs>
    <style>
      .cls-1 {
        fill: #000;
      }

      .cls-1, .cls-2, .cls-3 {
        stroke-width: 0px;
      }

      .cls-2 {
        fill: none;
      }

      .cls-4 {
        clip-path: url(#clippath-1);
      }

      .cls-5 {
        clip-path: url(#clippath);
      }

      .cls-3 {
        fill: #4d4d4d;
      }
    </style>
    <clipPath id="clippath">
      <rect class="cls-2" width="970" height="250"/>
    </clipPath>
    <clipPath id="clippath-1">
      <rect class="cls-2" width="970" height="250"/>
    </clipPath>
  </defs>
  <g id="Layer_1-2" data-name="Layer 1">
    <g class="cls-5">
      <g class="cls-4">
        <path class="cls-3" d="M813.11,160.16c1.97,0,2.48-.47,5.7-.47,2.4,0,3.11.39,3.11,1.61v1.57h-5.15c-5.78,0-6.76,1.89-6.76,6.21,0,5.35,1.85,6.17,8.41,6.17,6.14,0,8.34-.83,8.34-6.02v-7.39c0-4.8-1.65-6.65-7.75-6.65-7.08,0-7.83.75-7.83,2.75,0,1.26.51,2.2,1.93,2.2M821.92,169.48c0,1.06-.94,1.42-3.54,1.42-2.83,0-3.62-.47-3.62-1.93,0-1.65.55-1.93,2.95-1.93h4.21v2.44ZM849.33,159.8c2.83,0,3.26.55,3.26,4.13v9.01c0,1.45,1.06,2.04,2.4,2.04s2.44-.59,2.44-2.04v-9.44c0-7.32-1.97-8.3-8.1-8.3-2.44,0-4.49.55-5.74,1.22-1.34-.71-3.15-1.22-5.66-1.22-6.14,0-8.1.98-8.1,8.3v9.44c0,1.45,1.1,2.04,2.44,2.04s2.4-.59,2.4-2.04v-9.01c0-3.58.43-4.13,3.27-4.13,2.63,0,3.26.55,3.26,3.23v9.91c0,1.45,1.1,2.04,2.44,2.04s2.44-.59,2.44-2.04v-9.44c0-3.15.55-3.7,3.27-3.7M863.63,160.16c1.97,0,2.48-.47,5.7-.47,2.4,0,3.11.39,3.11,1.61v1.57h-5.15c-5.78,0-6.76,1.89-6.76,6.21,0,5.35,1.85,6.17,8.41,6.17,6.13,0,8.34-.83,8.34-6.02v-7.39c0-4.8-1.65-6.65-7.75-6.65-7.08,0-7.83.75-7.83,2.75,0,1.26.51,2.2,1.93,2.2M872.33,169.48c0,1.06-.94,1.42-3.54,1.42-2.83,0-3.62-.47-3.62-1.93,0-1.65.55-1.93,2.95-1.93h4.21v2.44ZM893.41,155.56c-1.06-.2-2.67-.35-4.25-.35-6.41,0-8.81.59-8.81,6.21v14.79c0,5.07,2.79,5.94,8.89,5.94,6.53,0,8.97-1.22,8.97-6.41,0-4.25-1.65-6.02-7.28-6.02h-6.02v-1.69c1.14.2,2.55.2,4.25.2,6.45,0,8.81-1.02,8.81-6.37v-7.79c0-1.38-1.02-1.93-2.24-1.93-1.3,0-2.32.55-2.32,1.93v1.49ZM889.15,163.93c-3.81,0-4.25-.16-4.25-2.16v-.16c0-1.73,1.1-2.08,4.25-2.08,1.38,0,3.07.12,4.25.27v1.61c0,2-.47,2.52-4.25,2.52M884.9,173.8h5.07c2.59,0,3.73.43,3.73,2.12,0,1.57-1.42,1.97-4.45,1.97-2.83,0-4.36-.35-4.36-1.65v-2.44Z"/>
        <path class="cls-1" d="M811.97,211.97h10.82c.66,0,.86.36.86.82s-.2.79-.86.79h-11.98c-.49,0-.82-.33-.82-.82v-20.04c0-.56.49-.79,1.02-.79.46,0,.95.2.95.79v19.25Z"/>
        <path class="cls-1" d="M828.45,204.73h10.26v-2.6c0-2.01-.99-3.26-5-3.26s-5.26,1.22-5.26,3.46v2.4ZM840.17,212.66c0,.3-.07.59-.62.76-.82.26-3.16.49-5.53.49-5.59,0-7.4-1.94-7.4-5.69v-5.76c0-3.78,2.24-5.13,7.17-5.13s6.78,1.45,6.78,5v2.4c0,1.02-.49,1.55-1.38,1.55h-10.73v1.88c0,2.7,1.45,4.15,5.59,4.15,2.63,0,4.97-.46,5.5-.46.36,0,.62.23.62.82"/>
        <path class="cls-1" d="M856.35,206.05h-5.72c-3.75,0-4.54.82-4.54,3.13,0,2.44.99,3.19,4.97,3.19,4.34,0,5.3-.46,5.3-2.99v-3.32ZM845,198.58c0-.46.23-.76.62-.85.59-.13,2.9-.4,5.79-.4,5.3,0,6.78,1.12,6.78,4.71v7.27c0,4.01-1.65,4.61-7.21,4.61s-6.74-.95-6.74-4.57,1.12-4.84,6.42-4.84h5.69v-2.7c0-2.27-1.32-2.93-5.1-2.93-3.26,0-4.67.46-5.59.46-.33,0-.66-.26-.66-.76"/>
        <path class="cls-1" d="M872.63,209.57c0-4.77-10.5-1.81-10.5-7.99,0-2.96,2.4-4.24,6.74-4.24,1.74,0,3.26.2,4.05.43.53.16.76.26.76.72,0,.66-.43.86-.79.86-.53,0-2.17-.46-4.31-.46-2.99,0-4.6.95-4.6,2.63,0,4.28,10.49,1.74,10.49,8.09,0,2.76-1.97,4.31-6.91,4.31-2.83,0-4.64-.49-5.16-.69-.46-.16-.62-.39-.62-.79,0-.66.43-.79.76-.79.79,0,2.37.72,5.3.72,3.39,0,4.8-1.02,4.8-2.8"/>
        <path class="cls-1" d="M880.03,213.03c0,.49-.43.76-.92.76-.53,0-.92-.26-.92-.82v-14.67c0-.56.39-.82.92-.82.49,0,.92.26.92.76v14.81ZM879.11,191.87c.72,0,1.32.59,1.32,1.32s-.59,1.32-1.32,1.32-1.35-.59-1.35-1.32.59-1.32,1.35-1.32"/>
        <path class="cls-1" d="M887.33,203.78v9.25c0,.49-.43.76-.92.76-.53,0-.92-.26-.92-.82v-9.11c0-5.86,1.35-6.51,6.91-6.51,5.23,0,6.91.66,6.91,6.51v9.11c0,.56-.43.82-.92.82s-.92-.26-.92-.76v-9.25c0-4.41-1.45-4.9-5.07-4.9-4.28,0-5.07.49-5.07,4.9"/>
        <path class="cls-1" d="M906.48,215.66c0,2.17,1.91,2.8,5.89,2.8s5.79-.69,5.79-3.26c0-2.1-1.09-2.96-5.53-2.96h-6.15v3.42ZM917.24,202.36v-3.03c-1.78-.26-3.19-.46-5.66-.46-4.05,0-5.1.69-5.1,3.32v.59c0,2.9.89,3.29,5.2,3.29,4.97,0,5.56-.66,5.56-3.72M917.24,195.26c0-.43.43-.72.92-.72s.99.3.99.72v7.47c0,4.01-1.68,4.9-7.34,4.9-2.86,0-4.21-.2-5.23-.49h-.1v3.49h6.25c5.73,0,7.27,1.12,7.27,4.41,0,4.05-2.37,4.97-7.67,4.97s-7.7-.95-7.7-4.38v-13.33c0-4.11,1.61-4.97,6.98-4.97,2.24,0,3.72.1,5.63.43v-2.5Z"/>
      </g>
    </g>
  </g>
</svg>