<svg xmlns="http://www.w3.org/2000/svg" viewBox="0 0 728 90"><defs><style>.cls-1{fill:#fff;}</style></defs><g id="Layer_2" data-name="Layer 2"><g id="Layer_2-2" data-name="Layer 2"><g id="Layer_1-2" data-name="Layer 1-2"><path class="cls-1" d="M27.06,60.2v6.61h1.69a3.31,3.31,0,0,0,.09-6.61H27.06Zm1.69-2.09a5.4,5.4,0,1,1,0,10.8H25a.26.26,0,0,1-.27-.27V58.43a.26.26,0,0,1,.27-.27Z"/><path class="cls-1" d="M42.43,67.05a3.55,3.55,0,1,0-3.55-3.54,3.61,3.61,0,0,0,3.55,3.54m0-9.16a5.62,5.62,0,1,1-5.86,5.62,5.7,5.7,0,0,1,5.86-5.62"/><path class="cls-1" d="M56.34,67.05a3.55,3.55,0,1,0-3.54-3.54h0a3.58,3.58,0,0,0,3.54,3.54m0-9.16a5.62,5.62,0,1,1-5.85,5.62,5.71,5.71,0,0,1,5.85-5.62"/><path class="cls-1" d="M70,60.2H67.57v2.85H70a1.39,1.39,0,0,0,1.46-1.34v-.06A1.42,1.42,0,0,0,70,60.2a.06.06,0,0,0-.08,0m-4.7-1.8a.26.26,0,0,1,.27-.27H70a3.57,3.57,0,0,1,3.71,3.55,3.46,3.46,0,0,1-1.94,3.14l2.07,3.66a.26.26,0,0,1-.08.37.35.35,0,0,1-.16.06H71.79a.28.28,0,0,1-.24-.14l-2-3.62h-2v3.49a.25.25,0,0,1-.27.27H65.56a.26.26,0,0,1-.27-.27Z"/><path class="cls-1" d="M79.74,60.23v6.61h1.7a3.27,3.27,0,0,0,3.22-3.31,3.23,3.23,0,0,0-3.14-3.3H79.74Zm1.7-2.07a5.4,5.4,0,1,1,0,10.8H77.7a.26.26,0,0,1-.27-.27V58.43a.26.26,0,0,1,.27-.27Z"/><path class="cls-1" d="M94,60.79l-1.32,3.55H95.3Zm-2.07,5.54-.86,2.36a.27.27,0,0,1-.27.19H89c-.14,0-.27-.11-.3-.24s0-.11,0-.14l4-10.2a.33.33,0,0,1,.27-.19h2.1a.27.27,0,0,1,.26.19l4,10.2a.26.26,0,0,1-.14.35.21.21,0,0,1-.13,0H97.2a.25.25,0,0,1-.26-.19l-.86-2.36Z"/><path class="cls-1" d="M101.48,61c0-1.7,1.47-3.17,3.76-3.17a4.87,4.87,0,0,1,3.36,1.26.3.3,0,0,1,0,.4l-1,1a.26.26,0,0,1-.38,0h0a2.57,2.57,0,0,0-1.77-.7c-.91,0-1.61.54-1.61,1.16,0,2,5.45.83,5.45,4.7,0,1.93-1.48,3.38-4.08,3.38a5.45,5.45,0,0,1-3.9-1.56.28.28,0,0,1,0-.4l1-1a.25.25,0,0,1,.37,0h0a3.54,3.54,0,0,0,2.37,1c1.15,0,1.9-.61,1.9-1.39,0-2-5.42-.86-5.42-4.7"/><path class="cls-1" d="M119.18,58.38v4h-4.62v-4a.25.25,0,0,0-.27-.27h-1.77a.25.25,0,0,0-.27.27v10.2a.25.25,0,0,0,.27.27h1.74a.25.25,0,0,0,.27-.27V64.47h4.62v4.11a.25.25,0,0,0,.27.27h1.77a.25.25,0,0,0,.27-.27V58.38a.25.25,0,0,0-.27-.27h-1.74a.25.25,0,0,0-.27.27Z"/><path class="cls-1" d="M90.81,28.05A11,11,0,0,0,81,22.16H49.92A1.09,1.09,0,0,0,49.17,24l6.77,6.82a3.25,3.25,0,0,0,2.26.94H80.09a2.82,2.82,0,0,1,.41,5.62H65.05A1.08,1.08,0,0,0,64,38.44a1.13,1.13,0,0,0,.3.75L71,46A3.24,3.24,0,0,0,73.3,47h6.82C89,47,95.75,37.45,90.81,28.05"/></g></g></g></svg>