<?xml version="1.0" encoding="utf-8"?>
<!-- Generator: Adobe Illustrator 16.0.0, SVG Export Plug-In . SVG Version: 6.00 Build 0)  -->
<!DOCTYPE svg PUBLIC "-//W3C//DTD SVG 1.1//EN" "http://www.w3.org/Graphics/SVG/1.1/DTD/svg11.dtd">
<svg version="1.1" id="Layer_1" xmlns="http://www.w3.org/2000/svg" xmlns:xlink="http://www.w3.org/1999/xlink" x="0px" y="0px"
	 width="91px" height="90px" viewBox="0 0 91 90" enable-background="new 0 0 91 90" xml:space="preserve">
<rect fill="#B3DDD2" width="91" height="90"/>
<g>
	<path fill="#BE9E71" d="M69.021,67.177c-7.476,5.124-13.02,7.224-19.656,7.224c-5.208,0-10.079-1.344-14.531-3.948
		c-8.988-5.292-14.784-15.036-14.784-25.367c0-5.208,1.344-10.081,4.032-14.7c5.292-9.072,14.615-14.532,25.283-14.532
		c7.393,0,14.448,2.772,19.824,7.56l1.176,1.176l-2.1,2.184l-0.672-0.672l-0.504-0.42c-4.788-4.452-11.088-6.888-17.725-6.888
		c-4.703,0-9.071,1.176-13.104,3.528c-8.148,4.704-13.188,13.356-13.188,22.764c0,4.703,1.176,9.071,3.527,13.104
		c4.704,8.063,13.356,13.104,22.764,13.104c5.712,0,10.5-1.68,16.632-5.712l-4.703-6.972c-4.788,3.024-7.98,4.2-11.929,4.2
		c-3.023,0-5.88-0.84-8.651-2.437c-5.46-3.275-8.988-9.323-8.988-15.287c0-3.108,0.84-6.048,2.437-8.82
		c3.275-5.628,8.735-8.82,15.203-8.82c3.696,0,7.141,1.092,10.248,3.192c0.168,0.168,0.336,0.252,0.588,0.336l1.849-2.1
		l-0.672-0.588c-3.948-2.604-7.896-3.864-12.013-3.864c-5.46,0-10.668,2.1-14.615,6.132c-3.948,3.948-6.048,9.072-6.048,14.532
		c0,5.46,2.1,10.668,6.048,14.615c3.947,3.948,9.155,6.132,14.615,6.132c3.948,0,7.561-1.092,11.004-3.359l1.681,2.52
		c-3.948,2.521-8.148,3.78-12.685,3.78c-6.3,0-12.264-2.521-16.716-6.972c-4.452-4.452-6.972-10.416-6.972-16.716
		c0-6.3,2.52-12.096,6.972-16.8c4.62-4.452,10.416-6.888,16.716-6.888c5.124,0,9.744,1.512,13.692,4.536
		c1.092,0.672,1.848,1.26,2.268,1.68l0.925,0.924l-5.628,6.636l-1.261-0.924c-0.42-0.42-0.924-0.84-1.512-1.176
		c-2.436-1.764-5.292-2.688-8.484-2.688c-2.604,0-4.956,0.672-7.224,1.932c-4.536,2.604-7.392,7.308-7.392,12.769
		c0,2.52,0.672,4.871,2.1,7.14c2.688,4.536,7.476,7.476,12.516,7.476c3.612,0,6.217-1.008,11.509-4.452l1.344-0.84l7.979,12.013
		L69.021,67.177z"/>
</g>
</svg>
