<?xml version="1.0" encoding="utf-8"?>
<!-- Generator: Adobe Illustrator 16.0.0, SVG Export Plug-In . SVG Version: 6.00 Build 0)  -->
<!DOCTYPE svg PUBLIC "-//W3C//DTD SVG 1.1//EN" "http://www.w3.org/Graphics/SVG/1.1/DTD/svg11.dtd">
<svg version="1.1" id="Layer_1" xmlns="http://www.w3.org/2000/svg" xmlns:xlink="http://www.w3.org/1999/xlink" x="0px" y="0px"
	 width="506px" height="89.5px" viewBox="0 0 506 89.5" enable-background="new 0 0 506 89.5" xml:space="preserve">
<rect fill="#FFFFFF" width="212" height="89.5"/>
<g>
	<path fill="#BE9E71" d="M40.084,33.023c0.036,0.216-0.018,0.504-0.36,0.612l-0.63,0.162c-0.342,0.09-0.648-0.018-0.738-0.396
		c-0.27-1.134-0.81-1.566-1.873-1.566c-1.369,0-1.818,0.828-1.818,1.513c0,0.594,0.18,1.134,0.756,1.44l3.097,1.62
		c1.098,0.576,1.729,1.747,1.729,2.935c0,2.035-1.369,3.583-3.763,3.583c-1.477,0-3.691-0.846-3.691-3.691
		c0-0.522,0.522-0.522,0.522-0.522h0.72c0,0,0.504,0,0.504,0.522c0,1.621,1.063,1.98,1.945,1.98c1.458,0,2.017-1.026,2.017-1.873
		c0-0.576-0.252-1.152-1.134-1.603l-2.593-1.333c-1.657-0.846-1.854-2.178-1.854-3.115c0-2.071,1.638-3.223,3.565-3.223
		C38.662,30.07,39.833,31.331,40.084,33.023z"/>
	<path fill="#BE9E71" d="M50.326,30.196c0.522,0,0.522,0.504,0.522,0.504v0.702c0,0,0,0.504-0.504,0.504h-4.627v3.691h3.421
		c0.522,0,0.522,0.504,0.522,0.504v0.703c0,0,0,0.504-0.504,0.504h-3.439v3.781h4.609c0.522,0,0.522,0.504,0.522,0.504v0.703
		c0,0,0,0.504-0.504,0.504H43.97V30.196H50.326z"/>
	<path fill="#BE9E71" d="M61.18,30.196c0.522,0,0.522,0.504,0.522,0.504v0.702c0,0,0,0.504-0.504,0.504h-4.627v3.691h3.421
		c0.522,0,0.522,0.504,0.522,0.504v0.703c0,0,0,0.504-0.504,0.504h-3.439v3.781h4.609c0.522,0,0.522,0.504,0.522,0.504v0.703
		c0,0,0,0.504-0.504,0.504h-6.374V30.196H61.18z"/>
	<path fill="#BE9E71" d="M77.542,30.196c0.522,0,0.522,0.504,0.522,0.504v0.684c0,0,0,0.522-0.522,0.522h-2.376v10.371
		c0,0.522-0.504,0.522-0.504,0.522h-0.72c0,0-0.522,0-0.522-0.522V31.907H71.06c-0.522,0-0.522-0.504-0.522-0.504v-0.684
		c0,0,0-0.522,0.522-0.522H77.542z"/>
	<path fill="#BE9E71" d="M82.922,30.196c0,0,0.54,0,0.54,0.522v4.699h3.979v-4.699c0-0.522,0.504-0.522,0.504-0.522h0.702
		c0,0,0.54,0,0.54,0.522v11.56c0,0.522-0.522,0.522-0.522,0.522h-0.702c0,0-0.522,0-0.522-0.522v-5.15h-3.979v5.15
		c0,0.522-0.522,0.522-0.522,0.522h-0.703c0,0-0.522,0-0.522-0.522v-11.56c0-0.522,0.504-0.522,0.504-0.522H82.922z"/>
	<path fill="#BE9E71" d="M99.897,30.196c0.522,0,0.522,0.504,0.522,0.504v0.702c0,0,0,0.504-0.504,0.504h-4.627v3.691h3.421
		c0.522,0,0.522,0.504,0.522,0.504v0.703c0,0,0,0.504-0.504,0.504h-3.439v3.781h4.609c0.522,0,0.522,0.504,0.522,0.504v0.703
		c0,0,0,0.504-0.504,0.504h-6.374V30.196H99.897z"/>
	<path fill="#BE9E71" d="M110.695,30.196c0.198,0,0.432,0.144,0.504,0.432l1.765,9.921l1.657-8.949
		c0.108-0.522,0.36-0.522,0.558-0.522h0.756c0.162,0,0.468,0,0.576,0.522l1.638,8.949l1.783-9.939
		c0.072-0.288,0.306-0.432,0.504-0.432h0.811c0,0,0.576,0,0.45,0.576l-2.215,11.595c-0.09,0.45-0.558,0.45-0.558,0.45h-1.513
		c0,0-0.468,0-0.594-0.504l-1.261-7.796l-1.278,7.85c-0.09,0.45-0.558,0.45-0.558,0.45h-1.53c0,0-0.432,0-0.541-0.45l-2.214-11.577
		c-0.126-0.576,0.45-0.576,0.45-0.576H110.695z"/>
	<path fill="#BE9E71" d="M132.621,34.175v4.664c0,2.287-1.044,4.087-3.727,4.087c-2.683,0-3.745-1.8-3.745-4.087v-4.664
		c0-2.287,1.063-4.105,3.745-4.105C131.577,30.07,132.621,31.889,132.621,34.175z M126.896,34.175v4.664
		c0,1.656,0.774,2.376,1.999,2.376c1.225,0,1.981-0.72,1.981-2.376v-4.664c0-1.657-0.756-2.395-1.981-2.395
		C127.67,31.78,126.896,32.519,126.896,34.175z"/>
	<path fill="#BE9E71" d="M140,30.196c2.683,0,3.763,1.44,3.763,3.745c0,1.999-0.756,2.989-2.179,3.565l1.296,2.737
		c0.324,0.558,0.612,0.846,0.936,0.846h0.27c0.522,0,0.522,0.54,0.522,0.54v0.63c0,0,0,0.54-0.522,0.54h-0.378
		c-1.08,0-1.674-0.558-2.467-1.944l-1.404-3.061h-1.26v4.483c0,0.522-0.504,0.522-0.504,0.522h-0.72c0,0-0.522,0-0.522-0.522V30.196
		H140z M138.578,36.084H140c1.44,0,2.017-0.72,2.017-2.179c0-1.639-0.792-2.017-2.017-2.017h-1.422V36.084z"/>
	<path fill="#BE9E71" d="M149.593,30.196c0,0,0.522,0,0.522,0.522v10.371h3.583c0.54,0,0.54,0.504,0.54,0.504v0.685
		c0,0,0,0.522-0.54,0.522h-5.33V30.718c0-0.522,0.504-0.522,0.504-0.522H149.593z"/>
	<path fill="#BE9E71" d="M161.474,30.196c2.683,0,3.709,1.8,3.709,4.069v4.465c0,2.269-1.026,4.069-3.709,4.069h-3.601V30.196
		H161.474z M159.619,41.107h1.854c1.225,0,1.962-0.738,1.962-2.377v-4.465c0-1.638-0.738-2.376-1.962-2.376h-1.854V41.107z"/>
</g>
<g>
	<path fill="#BE9E71" d="M37.042,49.196c2.683,0,3.709,1.8,3.709,4.069v4.465c0,2.269-1.026,4.069-3.709,4.069H33.44V49.196H37.042z
		 M35.187,60.107h1.854c1.224,0,1.962-0.738,1.962-2.377v-4.465c0-1.639-0.738-2.377-1.962-2.377h-1.854V60.107z"/>
	<path fill="#BE9E71" d="M46.149,49.196c0,0,0.54,0,0.54,0.521v11.56c0,0.522-0.522,0.522-0.522,0.522h-0.703
		c0,0-0.522,0-0.522-0.522v-11.56c0-0.521,0.504-0.521,0.504-0.521H46.149z"/>
	<path fill="#BE9E71" d="M56.716,49.196c0.522,0,0.522,0.504,0.522,0.504v0.738c0,0-0.054,0.468-0.522,0.468h-4.267v3.691h3.079
		c0.522,0,0.522,0.504,0.522,0.504v0.738c0,0-0.054,0.469-0.522,0.469h-3.079v5.005C52.395,61.8,51.927,61.8,51.927,61.8h-0.703
		c0,0-0.522,0-0.522-0.522V49.196H56.716z"/>
	<path fill="#BE9E71" d="M67.209,49.196c0.522,0,0.522,0.504,0.522,0.504v0.738c0,0-0.054,0.468-0.522,0.468h-4.267v3.691h3.079
		c0.522,0,0.522,0.504,0.522,0.504v0.738c0,0-0.054,0.469-0.522,0.469h-3.079v5.005C62.888,61.8,62.42,61.8,62.42,61.8h-0.702
		c0,0-0.522,0-0.522-0.522V49.196H67.209z"/>
	<path fill="#BE9E71" d="M78.045,49.196c0.522,0,0.522,0.504,0.522,0.504v0.702c0,0,0,0.504-0.504,0.504h-4.627v3.691h3.421
		c0.522,0,0.522,0.504,0.522,0.504v0.702c0,0,0,0.505-0.504,0.505h-3.439v3.78h4.609c0.522,0,0.522,0.505,0.522,0.505v0.702
		c0,0,0,0.504-0.504,0.504h-6.374V49.196H78.045z"/>
	<path fill="#BE9E71" d="M85.73,49.196c2.683,0,3.763,1.44,3.763,3.745c0,1.998-0.756,2.988-2.179,3.564l1.296,2.737
		c0.324,0.558,0.612,0.846,0.936,0.846h0.27c0.522,0,0.522,0.541,0.522,0.541v0.63c0,0,0,0.54-0.522,0.54h-0.378
		c-1.08,0-1.674-0.559-2.467-1.944l-1.404-3.062h-1.26v4.483c0,0.522-0.504,0.522-0.504,0.522h-0.72c0,0-0.522,0-0.522-0.522V49.196
		H85.73z M84.308,55.084h1.422c1.44,0,2.017-0.721,2.017-2.179c0-1.639-0.792-2.017-2.017-2.017h-1.422V55.084z"/>
	<path fill="#BE9E71" d="M100.455,49.196c0.522,0,0.522,0.504,0.522,0.504v0.702c0,0,0,0.504-0.504,0.504h-4.627v3.691h3.421
		c0.522,0,0.522,0.504,0.522,0.504v0.702c0,0,0,0.505-0.504,0.505h-3.439v3.78h4.609c0.522,0,0.522,0.505,0.522,0.505v0.702
		c0,0,0,0.504-0.504,0.504h-6.374V49.196H100.455z"/>
	<path fill="#BE9E71" d="M106.556,49.196c0,0,0.36,0,0.558,0.396l3.799,9.075l-0.108-8.949c0,0,0-0.521,0.522-0.521h0.702
		c0,0,0.522,0,0.522,0.521v11.56c0,0,0,0.522-0.522,0.522h-1.081c0,0-0.396,0-0.558-0.378l-3.781-9.093l0.09,8.948
		c0,0,0,0.522-0.522,0.522h-0.703c0,0-0.522,0-0.522-0.522v-11.56c0,0,0-0.521,0.522-0.521H106.556z"/>
	<path fill="#BE9E71" d="M123.207,49.196c0.522,0,0.522,0.504,0.522,0.504v0.685c0,0,0,0.521-0.522,0.521h-2.376v10.371
		c0,0.522-0.504,0.522-0.504,0.522h-0.72c0,0-0.522,0-0.522-0.522V50.906h-2.359c-0.522,0-0.522-0.504-0.522-0.504v-0.685
		c0,0,0-0.521,0.522-0.521H123.207z"/>
	<path fill="#BE9E71" d="M128.605,49.196c0,0,0.522,0,0.522,0.521v10.371h3.583c0.54,0,0.54,0.505,0.54,0.505v0.684
		c0,0,0,0.522-0.54,0.522h-5.33V49.718c0-0.521,0.504-0.521,0.504-0.521H128.605z"/>
	<path fill="#BE9E71" d="M135.643,49.196c0.198,0,0.414,0.144,0.504,0.432l2.485,6.23h0.18l2.214-6.23
		c0.09-0.288,0.306-0.432,0.504-0.432h0.864c0.216,0,0.648,0,0.45,0.576l-4.213,11.595c-0.162,0.433-0.306,0.433-0.504,0.433h-0.829
		c-0.216,0-0.648,0-0.45-0.576l1.17-3.205h-0.162c-0.144,0-0.27-0.126-0.324-0.27l-3.205-7.977
		c-0.216-0.486-0.018-0.576,0.324-0.576H135.643z"/>
</g>
<polyline fill="none" stroke="#BE9E71" points="75.5,68 75.5,77 505.5,77 505.5,13 75.5,13 75.5,23.6 "/>
</svg>
