<svg height="90" viewBox="0 0 970 90" width="970" xmlns="http://www.w3.org/2000/svg"><path d="m371.248535 53h-4.232422l-6.832031-11.8808594h-.09668l.107632 1.7909278c.064314 1.1841017.09647 2.0838657.09647 2.6993066v7.390625h-2.975586v-15.7050781h4.200195l6.821289 11.7626953h.075196l-.054761-1.0850063c-.070915-1.4761297-.106372-2.557487-.106372-3.2440953v-7.4335937h2.99707zm6.305664-6.0263672c0 1.188808.195148 2.0875621.585449 2.6962891.390302.608727 1.025875.9130859 1.906739.9130859.873702 0 1.502114-.3025686 1.885254-.9077148.38314-.6051463.574707-1.5056907.574707-2.7016602 0-1.188808-.193358-2.0804007-.580078-2.6748047-.386721-.594404-1.020504-.8916015-1.901368-.8916015-.873702 0-1.503904.2954072-1.890625.8862304-.38672.5908233-.580078 1.4842063-.580078 2.6801758zm8.303711 0c0 1.9550879-.51562 3.484044-1.546875 4.5869141s-2.467113 1.6542969-4.307617 1.6542969c-1.153001 0-2.169918-.2524389-3.050781-.7573243-.880864-.5048853-1.557615-1.2299757-2.030274-2.1752929-.472658-.9453173-.708984-2.0481708-.708984-3.3085938 0-1.9622494.512039-3.4876248 1.536133-4.5761719 1.024093-1.0885471 2.463532-1.6328125 4.318359-1.6328125 1.153001 0 2.169918.2506486 3.050781.7519532.880864.5013046 1.557615 1.2210239 2.030274 2.1591796.472658.9381558.708984 2.0374286.708984 3.2978516zm9.410156-6.2089844c.444013 0 .812824.0322263 1.106446.0966797l-.247071 3.0722657c-.264975-.071615-.587237-.1074219-.966796-.1074219-1.045579 0-1.860186.268552-2.443848.805664-.583662.5371121-.875488 1.2890577-.875488 2.2558594v6.1123047h-3.276368v-12.0097656h2.481446l.483398 2.0195312h.161133c.372398-.6731804.875485-1.2156555 1.509277-1.6274414.633793-.4117859 1.323076-.6176758 2.067871-.6176758zm9.925782 2.6855469h-2.835938v9.5498047h-3.276367v-9.5498047h-1.804688v-1.5791015l1.804688-.8808594v-.8808594c0-1.3678454.336585-2.3668588 1.009766-2.9970703.67318-.6302115 1.750969-.9453125 3.233398-.9453125 1.131516 0 2.137691.1682926 3.018555.5048828l-.837891 2.40625c-.658857-.2076833-1.267575-.3115234-1.826172-.3115234-.465497 0-.802082.1378567-1.009765.4135742-.207684.2757175-.311524.6284158-.311524 1.0581054v.7519532h2.835938zm4.490234 3.5234375c0 1.188808.195148 2.0875621.585449 2.6962891.390302.608727 1.025875.9130859 1.906739.9130859.873702 0 1.502114-.3025686 1.885253-.9077148.38314-.6051463.574707-1.5056907.574707-2.7016602 0-1.188808-.193357-2.0804007-.580078-2.6748047-.38672-.594404-1.020503-.8916015-1.901367-.8916015-.873702 0-1.503904.2954072-1.890625.8862304-.386721.5908233-.580078 1.4842063-.580078 2.6801758zm8.303711 0c0 1.9550879-.51562 3.484044-1.546875 4.5869141s-2.467113 1.6542969-4.307617 1.6542969c-1.153001 0-2.169918-.2524389-3.050781-.7573243-.880864-.5048853-1.557615-1.2299757-2.030274-2.1752929-.472659-.9453173-.708984-2.0481708-.708984-3.3085938 0-1.9622494.512039-3.4876248 1.536133-4.5761719 1.024093-1.0885471 2.463532-1.6328125 4.318359-1.6328125 1.153 0 2.169917.2506486 3.050781.7519532s1.557615 1.2210239 2.030274 2.1591796c.472658.9381558.708984 2.0374286.708984 3.2978516zm5.983398 6.0263672h-3.276367v-16.7148438h3.276367zm6.584961-6.53125 1.428711-1.8261719 3.362305-3.6523437h3.695312l-4.769531 5.2099609 5.059571 6.7998047h-3.78125l-3.458985-4.8662109-1.407226 1.1279297v3.7382812h-3.276368v-16.7148438h3.276368v7.4550782l-.171875 2.7285156zm13.137696-9.1738281.15039.2363281c-.358074 1.4108143-.988276 3.1259665-1.890625 5.1455078h-2.352539l.235732-1.0327451c.373988-1.6759824.653482-3.1256689.838487-4.3490908zm10.505859 12.1386719c0 1.2317769-.427893 2.1699186-1.283691 2.8144531-.855799.6445344-2.135897.9667969-3.840332.9667969-.873703 0-1.618487-.0590815-2.234375-.1772461-.615889-.1181647-1.192381-.2918283-1.729493-.5209961v-2.7070313c.608727.2864598 1.29443.5263662 2.057129.7197266.762699.1933603 1.434079.290039 2.01416.290039 1.188808 0 1.783204-.3437465 1.783204-1.03125 0-.2578138-.078776-.4672843-.236329-.6284179-.157552-.1611336-.429685-.343749-.816406-.5478516l-.363042-.1832751c-.263074-.1277368-.568238-.2665808-.915496-.4165332l-.268337-.1145472c-.923833-.3867206-1.602374-.74479-2.035644-1.0742187-.433271-.3294287-.748372-.7071919-.945313-1.1333008s-.29541-.9506805-.29541-1.5737305c0-1.0670626.41357-1.8924124 1.240723-2.4760742.827152-.5836618 1.999829-.8754883 3.518066-.8754883 1.446622 0 2.853834.3151011 4.22168.9453125l-.988281 2.3632813c-.601566-.2578138-1.163735-.4690747-1.686524-.6337891-.522789-.1647143-1.056312-.2470703-1.600586-.2470703-.966802 0-1.450195.2613906-1.450195.7841797 0 .2936213.15576.5478505.467285.7626953.239635.1652653.698557.3919725 1.376778.6801259l.669609.2759288c.938155.3795592 1.625649.7340478 2.0625 1.0634766.436851.3294287.759113.7089822.966797 1.1386718.207683.4296897.311523.9417288.311523 1.5361329zm17.488281-12.1386719h3.362305l-5.338867 15.7050781h-3.63086l-5.328125-15.7050781h3.362305l2.954102 9.3457031c.164714.551435.334797 1.1941695.510254 1.9282227l.153374.6594522c.087529.3899013.145616.6803363.174262.8713095l.041632-.2898965c.112133-.6852083.366808-1.7415634.764032-3.1690879zm10.054688 5.8007812c-.694665 0-1.238931.2202127-1.632813.6606446-.393882.4404318-.619466 1.0652628-.676758 1.8745117h4.597657c-.014323-.8092489-.225584-1.4340799-.633789-1.8745117-.408206-.4404319-.959632-.6606446-1.654297-.6606446zm.461914 10.1191407c-1.933604 0-3.444656-.5335234-4.533203-1.600586s-1.632813-2.5781152-1.632813-4.5332031c0-2.0123799.503088-3.5681911 1.509278-4.6674805 1.006189-1.0992893 2.397289-1.6489258 4.173339-1.6489258 1.697275 0 3.01855.4833936 3.963868 1.4501954.945317.9668017 1.417968 2.3024003 1.417968 4.0068359v1.5898437h-7.745117c.035808.9309943.311521 1.657875.827149 2.1806641.515627.5227891 1.238927.7841797 2.169921.7841797.723311 0 1.407224-.0751946 2.051758-.225586.644535-.1503913 1.317705-.3902978 2.019532-.7197265v2.5351562c-.57292.2864598-1.185219.4995111-1.836915.6391602-.651695.1396491-1.446609.2094727-2.384765.2094727zm18.648437-.2148438h-3.276367v-7.0146484c0-1.7330816-.644525-2.5996094-1.933594-2.5996094-.916671 0-1.579099.3115203-1.987304.9345703s-.612305 1.6328055-.612305 3.0292969v5.6503906h-3.276367v-16.7148438h3.276367l-.002089 3.5676c-.006962.3202758-.031331.8892102-.073106 1.7068141l-.075196.9667969h.171875c.730473-1.1744851 1.890617-1.7617188 3.480469-1.7617188 1.410815 0 2.481442.3795535 3.211914 1.1386719.730473.7591184 1.095703 1.8476492 1.095703 3.265625zm3.233399-15.1142578c0-1.0670626.594395-1.600586 1.783203-1.600586s1.783203.5335234 1.783203 1.600586c0 .5084661-.148599.9041327-.445801 1.1870117s-.742998.4243164-1.337402.4243164c-1.188808 0-1.783203-.537104-1.783203-1.6113281zm3.416015 15.1142578h-3.276367v-12.0097656h3.276367zm8.314454.2148438c-3.7383 0-5.607422-2.0517373-5.607422-6.1552735 0-2.0410258.508458-3.6004178 1.52539-4.6782226 1.016932-1.0778049 2.474275-1.6166993 4.372071-1.6166993 1.389329 0 2.635411.2721327 3.738281.8164063l-.966797 2.5351562c-.515628-.2076833-.995441-.3777662-1.439453-.5102539-.444013-.1324876-.888019-.1987304-1.332031-.1987304-1.704436 0-2.556641 1.2102743-2.556641 3.6308593 0 2.3489701.852205 3.5234375 2.556641 3.5234375.630211 0 1.213864-.0841463 1.750976-.2524414s1.074216-.431476 1.611328-.7895508v2.803711c-.52995.3365902-1.065264.5693353-1.605957.6982422s-1.222815.1933594-2.046386.1933594zm9.710937-.2148438h-3.276367v-16.7148438h3.276367zm8.411133-9.9042969c-.694665 0-1.23893.2202127-1.632813.6606446-.393882.4404318-.619466 1.0652628-.676757 1.8745117h4.597656c-.014323-.8092489-.225584-1.4340799-.633789-1.8745117-.408205-.4404319-.959632-.6606446-1.654297-.6606446zm.461914 10.1191407c-1.933604 0-3.444656-.5335234-4.533203-1.600586s-1.632813-2.5781152-1.632813-4.5332031c0-2.0123799.503088-3.5681911 1.509278-4.6674805 1.00619-1.0992893 2.397289-1.6489258 4.173339-1.6489258 1.697275 0 3.01855.4833936 3.963868 1.4501954.945317.9668017 1.417968 2.3024003 1.417968 4.0068359v1.5898437h-7.745117c.035808.9309943.311521 1.657875.827149 2.1806641.515627.5227891 1.238927.7841797 2.169922.7841797.72331 0 1.407223-.0751946 2.051757-.225586.644535-.1503913 1.317705-.3902978 2.019532-.7197265v2.5351562c-.57292.2864598-1.185219.4995111-1.836914.6391602-.651696.1396491-1.44661.2094727-2.384766.2094727zm19.49707-9.0341797h6.230469v8.1425781c-1.009771.3294287-1.960445.5603834-2.852051.6928711-.891606.1324876-1.802892.1987305-2.733887.1987305-2.370454 0-4.180495-.6964449-5.430175-2.0893555-1.249681-1.3929106-1.874512-3.3927279-1.874512-5.9995117 0-2.535169.72509-4.5117117 2.175293-5.9296875 1.450203-1.4179759 3.460762-2.1269532 6.031738-2.1269532 1.611336 0 3.165357.3222624 4.66211.9667969l-1.106446 2.6640625c-1.145839-.5729195-2.33821-.859375-3.577148-.859375-1.43946 0-2.592444.4833936-3.458985 1.4501953-.86654.9668017-1.299804 2.2665934-1.299804 3.8994141 0 1.7044356.349117 3.0060176 1.047363 3.9047851.698246.8987676 1.713372 1.3481446 3.04541 1.3481446.694665 0 1.400062-.0716139 2.116211-.2148438v-3.2763672h-2.975586zm16.414063-3.4160157c.444012 0 .812824.0322263 1.106445.0966797l-.24707 3.0722657c-.264976-.071615-.587238-.1074219-.966797-.1074219-1.045578 0-1.860186.268552-2.443848.805664-.583662.5371121-.875488 1.2890577-.875488 2.2558594v6.1123047h-3.276367v-12.0097656h2.481445l.483398 2.0195312h.161133c.372398-.6731804.875485-1.2156555 1.509278-1.6274414.633792-.4117859 1.323075-.6176758 2.067871-.6176758zm10.914062 12.2353516-.633789-1.6328125h-.085937c-.551435.6946649-1.118975 1.1762682-1.702637 1.4448242s-1.344559.4028321-2.282715.4028321c-1.153 0-2.060706-.3294238-2.723144-.9882813-.662439-.6588575-.993653-1.5969991-.993653-2.8144531 0-1.274746.445797-2.214678 1.337403-2.8198242.891606-.6051463 2.236156-.9399411 4.033691-1.0043946l2.083984-.0644531v-.5263672c0-1.217454-.62304-1.8261719-1.86914-1.8261719-.95964 0-2.087559.2900362-3.383789.8701172l-1.084961-2.2128906c1.382168-.7233109 2.914705-1.0849609 4.597656-1.0849609 1.611336 0 2.846675.3509079 3.706055 1.0527343.859379.7018265 1.289062 1.7688731 1.289062 3.2011719v8.0029297zm-.966797-5.5644531-1.267578.0429687c-.952479.028646-1.661456.2005193-2.126953.515625-.465497.3151058-.698242.7949187-.698242 1.4394532 0 .9238327.529943 1.3857421 1.589844 1.3857421.759118 0 1.366046-.2184223 1.8208-.6552734.454755-.4368511.682129-1.0169235.682129-1.7402344zm13.223633 5.7792969c-1.410814 0-2.517248-.5120392-3.319336-1.5361329h-.171875l.122042 1.1182063c.033222.3298501.049833.537192.049833.6220281v4.8662109h-3.276367v-17.2949218h2.664063l.461914 1.5576172h.15039c.76628-1.1888081 1.90136-1.7832032 3.405274-1.7832032 1.417975 0 2.52799.5478461 3.330078 1.6435547.802087 1.0957086 1.203125 2.6175033 1.203125 4.5654297 0 1.2819075-.187987 2.3955031-.563965 3.3408203-.375979.9453173-.911292 1.6650366-1.605957 2.1591797s-1.511063.741211-2.449219.741211zm-.966797-9.8291016c-.809249 0-1.400063.2488582-1.772461.746582-.372397.4977239-.565755 1.319493-.580078 2.465332v.3544922c0 1.289069.191567 2.2128879.574707 2.7714844.38314.5585966.990068.8378906 1.820801.8378906 1.468106 0 2.202148-1.2102743 2.202148-3.6308593 0-1.1816466-.180825-2.0678682-.54248-2.6586914-.361655-.5908233-.929195-.8862305-1.702637-.8862305zm19.378907 9.6142578h-3.276368v-7.0146484c0-1.7330816-.644524-2.5996094-1.933593-2.5996094-.916672 0-1.5791.3115203-1.987305.9345703s-.612305 1.6328055-.612305 3.0292969v5.6503906h-3.276367v-16.7148438h3.276367l-.002089 3.5676c-.006962.3202758-.031331.8892102-.073106 1.7068141l-.075195.9667969h.171875c.730472-1.1744851 1.890617-1.7617188 3.480468-1.7617188 1.410815 0 2.481442.3795535 3.211914 1.1386719.730473.7591184 1.095704 1.8476492 1.095704 3.265625zm3.233398-15.1142578c0-1.0670626.594395-1.600586 1.783203-1.600586s1.783203.5335234 1.783203 1.600586c0 .5084661-.148599.9041327-.445801 1.1870117s-.742998.4243164-1.337402.4243164c-1.188808 0-1.783203-.537104-1.783203-1.6113281zm3.416016 15.1142578h-3.276368v-12.0097656h3.276368zm8.314453.2148438c-3.7383 0-5.607422-2.0517373-5.607422-6.1552735 0-2.0410258.508458-3.6004178 1.52539-4.6782226 1.016933-1.0778049 2.474275-1.6166993 4.372071-1.6166993 1.38933 0 2.635411.2721327 3.738281.8164063l-.966797 2.5351562c-.515627-.2076833-.99544-.3777662-1.439453-.5102539-.444013-.1324876-.888019-.1987304-1.332031-.1987304-1.704436 0-2.556641 1.2102743-2.556641 3.6308593 0 2.3489701.852205 3.5234375 2.556641 3.5234375.630211 0 1.213864-.0841463 1.750976-.2524414s1.074216-.431476 1.611328-.7895508v2.803711c-.52995.3365902-1.065264.5693353-1.605957.6982422-.540692.1289069-1.222814.1933594-2.046386.1933594zm14.813476-3.78125c0 1.2317769-.427893 2.1699186-1.283691 2.8144531-.855799.6445344-2.135897.9667969-3.840332.9667969-.873702 0-1.618487-.0590815-2.234375-.1772461-.615889-.1181647-1.19238-.2918283-1.729492-.5209961v-2.7070313c.608727.2864598 1.294429.5263662 2.057129.7197266.762699.1933603 1.434079.290039 2.01416.290039 1.188808 0 1.783203-.3437465 1.783203-1.03125 0-.2578138-.078775-.4672843-.236328-.6284179s-.429686-.343749-.816407-.5478516l-.363042-.1832751c-.263073-.1277368-.568238-.2665808-.915496-.4165332l-.268337-.1145472c-.923832-.3867206-1.602374-.74479-2.035644-1.0742187s-.748371-.7071919-.945313-1.1333008c-.196941-.4261089-.29541-.9506805-.29541-1.5737305 0-1.0670626.41357-1.8924124 1.240723-2.4760742s1.99983-.8754883 3.518066-.8754883c1.446622 0 2.853835.3151011 4.22168.9453125l-.988281 2.3632813c-.601566-.2578138-1.163735-.4690747-1.686524-.6337891-.522789-.1647143-1.056312-.2470703-1.600586-.2470703-.966801 0-1.450195.2613906-1.450195.7841797 0 .2936213.15576.5478505.467285.7626953.239635.1652653.698558.3919725 1.376778.6801259l.669609.2759288c.938156.3795592 1.625649.7340478 2.0625 1.0634766.436851.3294287.759114.7089822.966797 1.1386718.207683.4296897.311523.9417288.311523 1.5361329zm17.574219 3.5664062h-9.044922v-15.7050781h9.044922v2.7285156h-5.714844v3.4482422h5.317383v2.7285156h-5.317383v4.0498047h5.714844zm5.478516-6.1337891-3.867188-5.8759765h3.716797l2.331055 3.8242187 2.352539-3.8242187h3.716797l-3.910157 5.8759765 4.092774 6.1337891h-3.727539l-2.524414-4.1142578-2.535157 4.1142578h-3.716796zm16.854492 6.3486329c-1.410815 0-2.517249-.5120392-3.319336-1.5361329h-.171875l.122042 1.1182063c.033222.3298501.049833.537192.049833.6220281v4.8662109h-3.276367v-17.2949218h2.664062l.461914 1.5576172h.150391c.76628-1.1888081 1.90136-1.7832032 3.405273-1.7832032 1.417976 0 2.527991.5478461 3.330078 1.6435547.802088 1.0957086 1.203125 2.6175033 1.203125 4.5654297 0 1.2819075-.187986 2.3955031-.563964 3.3408203-.375979.9453173-.911292 1.6650366-1.605957 2.1591797s-1.511063.741211-2.449219.741211zm-.966797-9.8291016c-.809249 0-1.400063.2488582-1.772461.746582-.372398.4977239-.565755 1.319493-.580078 2.465332v.3544922c0 1.289069.191567 2.2128879.574707 2.7714844.38314.5585966.990067.8378906 1.820801.8378906 1.468106 0 2.202148-1.2102743 2.202148-3.6308593 0-1.1816466-.180825-2.0678682-.54248-2.6586914-.361656-.5908233-.929196-.8862305-1.702637-.8862305zm13.266602-.2900391c-.694665 0-1.238931.2202127-1.632813.6606446-.393882.4404318-.619466 1.0652628-.676758 1.8745117h4.597656c-.014323-.8092489-.225583-1.4340799-.633789-1.8745117-.408205-.4404319-.959632-.6606446-1.654296-.6606446zm.461914 10.1191407c-1.933604 0-3.444656-.5335234-4.533204-1.600586-1.088547-1.0670626-1.632812-2.5781152-1.632812-4.5332031 0-2.0123799.503087-3.5681911 1.509277-4.6674805 1.00619-1.0992893 2.39729-1.6489258 4.17334-1.6489258 1.697274 0 3.01855.4833936 3.963867 1.4501954.945318.9668017 1.417969 2.3024003 1.417969 4.0068359v1.5898437h-7.745117c.035807.9309943.311521 1.657875.827148 2.1806641.515628.5227891 1.238928.7841797 2.169922.7841797.723311 0 1.407224-.0751946 2.051758-.225586.644535-.1503913 1.317705-.3902978 2.019531-.7197265v2.5351562c-.572919.2864598-1.185218.4995111-1.836914.6391602s-1.44661.2094727-2.384765.2094727zm14.265625-12.4501954c.444012 0 .812824.0322263 1.106445.0966797l-.24707 3.0722657c-.264976-.071615-.587238-.1074219-.966797-.1074219-1.045578 0-1.860186.268552-2.443848.805664-.583662.5371121-.875488 1.2890577-.875488 2.2558594v6.1123047h-3.276367v-12.0097656h2.481445l.483398 2.0195312h.161133c.372398-.6731804.875485-1.2156555 1.509277-1.6274414.633793-.4117859 1.323076-.6176758 2.067872-.6176758zm8.346679 9.8398438c.57292 0 1.260413-.1253243 2.0625-.3759766v2.4384766c-.81641.3652362-1.819004.5478516-3.007812.5478516-1.310554 0-2.264808-.3312142-2.862793-.9936524s-.896973-1.6560806-.896973-2.980957v-5.7900391h-1.568359v-1.3857422l1.804687-1.0957031.945313-2.5351562h2.094726v2.5566406h3.362305v2.4599609h-3.362305v5.7900391c0 .4654971.130696.8092437.39209 1.03125.261395.2220063.606932.3330078 1.036621.3330078zm12.869141-1.1708984c0 1.2317769-.427893 2.1699186-1.283692 2.8144531-.855798.6445344-2.135896.9667969-3.840332.9667969-.873702 0-1.618486-.0590815-2.234375-.1772461-.615888-.1181647-1.19238-.2918283-1.729492-.5209961v-2.7070313c.608727.2864598 1.29443.5263662 2.057129.7197266.762699.1933603 1.434079.290039 2.01416.290039 1.188808 0 1.783203-.3437465 1.783203-1.03125 0-.2578138-.078775-.4672843-.236328-.6284179s-.429685-.343749-.816406-.5478516l-.363042-.1832751c-.263074-.1277368-.568238-.2665808-.915497-.4165332l-.268336-.1145472c-.923833-.3867206-1.602374-.74479-2.035644-1.0742187-.433271-.3294287-.748372-.7071919-.945313-1.1333008s-.29541-.9506805-.29541-1.5737305c0-1.0670626.41357-1.8924124 1.240723-2.4760742.827152-.5836618 1.999829-.8754883 3.518066-.8754883 1.446622 0 2.853834.3151011 4.22168.9453125l-.988282 2.3632813c-.601565-.2578138-1.163734-.4690747-1.686523-.6337891-.522789-.1647143-1.056312-.2470703-1.600586-.2470703-.966802 0-1.450195.2613906-1.450195.7841797 0 .2936213.15576.5478505.467285.7626953.239634.1652653.698557.3919725 1.376778.6801259l.669609.2759288c.938155.3795592 1.625648.7340478 2.0625 1.0634766.436851.3294287.759113.7089822.966796 1.1386718.207684.4296897.311524.9417288.311524 1.5361329z" fill="#fff"/></svg>