<svg xmlns="http://www.w3.org/2000/svg" viewBox="0 0 358.45 21.33"><defs><style>.cls-1{fill:#fff;}</style></defs><title>t1-468</title><g id="Layer_2" data-name="Layer 2"><g id="Layer_1-2" data-name="Layer 1"><path class="cls-1" d="M0,11.22A9.81,9.81,0,0,1,2.83,4,10,10,0,0,1,10.2,1.13a10.17,10.17,0,0,1,5.46,1.29c1.38.85,2.07,1.82,2.07,2.89a1.8,1.8,0,0,1-.56,1.33,2.81,2.81,0,0,1-1.1.72c-.36.11-.57.13-.63.07a5.52,5.52,0,0,0-2.16-1.9,6.37,6.37,0,0,0-2.86-.68A5.58,5.58,0,0,0,6.13,6.66a6.63,6.63,0,0,0-1.69,4.72A6.78,6.78,0,0,0,6,16a5.25,5.25,0,0,0,4.14,1.77,5.55,5.55,0,0,0,3.4-1,3.78,3.78,0,0,0,1.56-2.69v-.51H11.66a2.93,2.93,0,0,1-1.61-.35,1.39,1.39,0,0,1-.5-1.21v-.17a1.37,1.37,0,0,1,.51-1.22,3,3,0,0,1,1.61-.35h5.5q1.89,0,1.83,2.1v8.23s-.06.09-.19.16a2.16,2.16,0,0,1-.56.18,3.68,3.68,0,0,1-.73.07c-1.4,0-2.18-.85-2.33-2.54q-1.83,2.74-6,2.76a8.51,8.51,0,0,1-6.68-2.82A10.48,10.48,0,0,1,0,11.22Z"/><path class="cls-1" d="M21.9,19V6.62s.06-.1.2-.17a2.65,2.65,0,0,1,.6-.22,3.46,3.46,0,0,1,.78-.09,2.42,2.42,0,0,1,2.59,2.43A3.56,3.56,0,0,1,29.64,6a2.88,2.88,0,0,1,2,.65,2.21,2.21,0,0,1,.73,1.76A2.47,2.47,0,0,1,32,9.66a2.45,2.45,0,0,1-.65.76c-.21.14-.33.19-.37.15a2.72,2.72,0,0,0-1.91-.74q-3,0-3,4.78V19c0,1.35-.62,2-1.87,2h-.44Q21.9,21.05,21.9,19Z"/><path class="cls-1" d="M33.16,13.73a7.62,7.62,0,0,1,2.16-5.56A7.37,7.37,0,0,1,40.82,6,7.05,7.05,0,0,1,46.08,8a7.21,7.21,0,0,1,2,5.28v.29a1.69,1.69,0,0,1-.24.89.89.89,0,0,1-.76.28H37a3.46,3.46,0,0,0,1.36,2.41,4.69,4.69,0,0,0,2.9.87,4.49,4.49,0,0,0,4.14-2s.2,0,.52.06a2.39,2.39,0,0,1,1,.57,1.46,1.46,0,0,1,.51,1.15,3,3,0,0,1-1.73,2.46,8.48,8.48,0,0,1-4.61,1.1,8,8,0,0,1-5.76-2.07A7.33,7.33,0,0,1,33.16,13.73ZM37,12.29h7.2a3.54,3.54,0,0,0-1-2.45,3.29,3.29,0,0,0-2.46-.93,3.58,3.58,0,0,0-2.5.94A4,4,0,0,0,37,12.29Z"/><path class="cls-1" d="M49.5,13.73a7.62,7.62,0,0,1,2.16-5.56A7.38,7.38,0,0,1,57.16,6,7.05,7.05,0,0,1,62.42,8a7.17,7.17,0,0,1,2,5.28v.29a1.69,1.69,0,0,1-.24.89.88.88,0,0,1-.76.28H53.33a3.5,3.5,0,0,0,1.36,2.41,4.69,4.69,0,0,0,2.9.87,4.5,4.5,0,0,0,4.15-2s.19,0,.51.06a2.39,2.39,0,0,1,1,.57,1.46,1.46,0,0,1,.51,1.15A3,3,0,0,1,62,20.23a8.52,8.52,0,0,1-4.61,1.1,8,8,0,0,1-5.77-2.07A7.33,7.33,0,0,1,49.5,13.73Zm3.84-1.44h7.21a3.54,3.54,0,0,0-1-2.45,3.29,3.29,0,0,0-2.45-.93,3.61,3.61,0,0,0-2.51.94A4.05,4.05,0,0,0,53.34,12.29Z"/><path class="cls-1" d="M66.67,19V6.62s.06-.1.2-.17a2.65,2.65,0,0,1,.6-.22,3.46,3.46,0,0,1,.78-.09,2.42,2.42,0,0,1,2.56,2.34A5.54,5.54,0,0,1,75.63,6a4.92,4.92,0,0,1,4.08,1.68A6.79,6.79,0,0,1,81.07,12v7q0,2-1.86,2h-.46c-1.28,0-1.92-.67-1.92-2V12.59a3.51,3.51,0,0,0-.7-2.32,2.43,2.43,0,0,0-2-.85,3.38,3.38,0,0,0-3.23,1.93V19c0,1.35-.62,2-1.87,2h-.44Q66.67,21.05,66.67,19Z"/><path class="cls-1" d="M83.11,13.73a7.62,7.62,0,0,1,2.16-5.56A7.38,7.38,0,0,1,90.77,6,7.05,7.05,0,0,1,96,8a7.17,7.17,0,0,1,2,5.28v.29a1.69,1.69,0,0,1-.24.89.88.88,0,0,1-.76.28H86.94a3.5,3.5,0,0,0,1.36,2.41,4.71,4.71,0,0,0,2.9.87,4.5,4.5,0,0,0,4.15-2s.19,0,.52.06a2.43,2.43,0,0,1,1,.57,1.46,1.46,0,0,1,.51,1.15,3,3,0,0,1-1.72,2.46A8.52,8.52,0,0,1,91,21.33a8,8,0,0,1-5.77-2.07A7.33,7.33,0,0,1,83.11,13.73ZM87,12.29h7.21a3.54,3.54,0,0,0-1-2.45,3.29,3.29,0,0,0-2.45-.93,3.61,3.61,0,0,0-2.51.94A4.05,4.05,0,0,0,87,12.29Z"/><path class="cls-1" d="M100.28,19V6.62s.06-.1.2-.17a2.65,2.65,0,0,1,.6-.22,3.46,3.46,0,0,1,.78-.09,2.42,2.42,0,0,1,2.59,2.43A3.56,3.56,0,0,1,108,6a2.88,2.88,0,0,1,2,.65,2.22,2.22,0,0,1,.74,1.76,2.48,2.48,0,0,1-.33,1.29,2.45,2.45,0,0,1-.65.76c-.21.14-.33.19-.37.15a2.7,2.7,0,0,0-1.91-.74q-3,0-3,4.78V19c0,1.35-.62,2-1.87,2h-.44Q100.28,21.05,100.28,19Z"/><path class="cls-1" d="M117.51,19.05V.63c0-.06.07-.12.21-.19a2.55,2.55,0,0,1,.59-.19,3.48,3.48,0,0,1,.79-.09q2.64,0,2.64,3.38V8.48A5.25,5.25,0,0,1,126.48,6a6.25,6.25,0,0,1,4.89,2.11,8.09,8.09,0,0,1,1.89,5.61,8,8,0,0,1-1.91,5.52,6.29,6.29,0,0,1-4.93,2.13,5.63,5.63,0,0,1-2.85-.7,4.53,4.53,0,0,1-1.83-1.8v.26c0,1.31-.62,2-1.86,2h-.44C118.15,21.05,117.51,20.38,117.51,19.05Zm4.23-4.37a3.18,3.18,0,0,0,1.09,2.41,3.7,3.7,0,0,0,2.57.94,3.45,3.45,0,0,0,2.74-1.18,4.62,4.62,0,0,0,1-3.14,4.53,4.53,0,0,0-1-3.1,3.39,3.39,0,0,0-2.71-1.19,3.7,3.7,0,0,0-3.69,2.4Z"/><path class="cls-1" d="M134.69,13.73a7.62,7.62,0,0,1,2.16-5.56A7.38,7.38,0,0,1,142.35,6,7.05,7.05,0,0,1,147.61,8a7.17,7.17,0,0,1,2,5.28v.29a1.69,1.69,0,0,1-.24.89.88.88,0,0,1-.76.28H138.52a3.5,3.5,0,0,0,1.36,2.41,4.69,4.69,0,0,0,2.9.87,4.5,4.5,0,0,0,4.15-2s.19,0,.51.06a2.39,2.39,0,0,1,1,.57,1.46,1.46,0,0,1,.51,1.15,3,3,0,0,1-1.72,2.46,8.52,8.52,0,0,1-4.61,1.1,8,8,0,0,1-5.77-2.07A7.33,7.33,0,0,1,134.69,13.73Zm3.84-1.44h7.21a3.54,3.54,0,0,0-1-2.45,3.29,3.29,0,0,0-2.45-.93,3.61,3.61,0,0,0-2.51.94A4,4,0,0,0,138.53,12.29Z"/><path class="cls-1" d="M151.85,19V.47c0-.06.07-.12.21-.19a2.84,2.84,0,0,1,.6-.19,3.46,3.46,0,0,1,.78-.09q2.66,0,2.65,3.39V8.56A5.25,5.25,0,0,1,160.82,6a4.86,4.86,0,0,1,4.08,1.73,7,7,0,0,1,1.35,4.45V19q0,2-1.86,2h-.45c-1.28,0-1.92-.67-1.92-2V12.68a3.66,3.66,0,0,0-.72-2.4,2.39,2.39,0,0,0-1.94-.86,3.17,3.17,0,0,0-2.38.92,3.46,3.46,0,0,0-.89,2.52V19c0,1.35-.62,2-1.87,2h-.44C152.5,21.05,151.85,20.38,151.85,19Z"/><path class="cls-1" d="M169,1.91a1.71,1.71,0,0,1,.63-1.4A2.69,2.69,0,0,1,171.36,0a2.78,2.78,0,0,1,1.75.5,1.72,1.72,0,0,1,.63,1.42,1.74,1.74,0,0,1-.63,1.43,2.67,2.67,0,0,1-1.75.52,2.64,2.64,0,0,1-1.74-.52A1.75,1.75,0,0,1,169,1.91ZM169.24,19V8.19c0-1.36.63-2,1.89-2h.44c1.26,0,1.89.68,1.9,2.05V19q0,2-1.86,2h-.45Q169.24,21.05,169.24,19Z"/><path class="cls-1" d="M176.62,19V6.62s.07-.1.2-.17a2.65,2.65,0,0,1,.6-.22,3.48,3.48,0,0,1,.79-.09,2.41,2.41,0,0,1,2.55,2.34A5.55,5.55,0,0,1,185.59,6a4.91,4.91,0,0,1,4.07,1.68A6.74,6.74,0,0,1,191,12v7q0,2-1.86,2h-.46c-1.28,0-1.92-.67-1.92-2V12.59a3.51,3.51,0,0,0-.7-2.32,2.42,2.42,0,0,0-2-.85,3.38,3.38,0,0,0-3.23,1.93V19c0,1.35-.62,2-1.87,2h-.44Q176.62,21.05,176.62,19Z"/><path class="cls-1" d="M193.09,13.71A8.12,8.12,0,0,1,195,8.08a6.33,6.33,0,0,1,5-2.12,6,6,0,0,1,2.77.63,5,5,0,0,1,1.92,1.65V.63c0-.06.07-.12.21-.19a2.66,2.66,0,0,1,.6-.19,3.59,3.59,0,0,1,.78-.09c1.76,0,2.65,1.13,2.65,3.37V19.05c0,1.33-.62,2-1.86,2h-.45a1.72,1.72,0,0,1-1.93-2v-.47a5.14,5.14,0,0,1-4.74,2.71,6.27,6.27,0,0,1-4.9-2.12A8,8,0,0,1,193.09,13.71Zm4.09,0a4.57,4.57,0,0,0,1,3.12,3.42,3.42,0,0,0,2.7,1.2,3.75,3.75,0,0,0,2.61-1,3.21,3.21,0,0,0,1.08-2.5v-2.8A3.65,3.65,0,0,0,201,9.42a3.53,3.53,0,0,0-2.78,1.17A4.53,4.53,0,0,0,197.18,13.71Z"/><path class="cls-1" d="M215.67,8.13V7.85c0-1,.59-1.55,1.77-1.55h.71V4.44c0-1.36.64-2,1.93-2.05h.35c1.26,0,1.9.68,1.9,2.05V6.3h2.54c1.13,0,1.7.5,1.7,1.49V8c0,1-.58,1.55-1.73,1.56h-2.6v6.28q0,2.16,1.62,2.16a2.32,2.32,0,0,0,1.89-1s.12,0,.29.1a1.55,1.55,0,0,1,.49.58,1.83,1.83,0,0,1,.23.95,2.26,2.26,0,0,1-1.06,1.89,4.69,4.69,0,0,1-2.8.76q-4.77,0-4.75-5V9.59h-.71C216.26,9.59,215.67,9.11,215.67,8.13Z"/><path class="cls-1" d="M228.74,19V.47c0-.06.07-.12.2-.19a2.84,2.84,0,0,1,.6-.19,3.48,3.48,0,0,1,.79-.09Q233,0,233,3.39V8.56A5.25,5.25,0,0,1,237.71,6a4.86,4.86,0,0,1,4.07,1.73,7,7,0,0,1,1.36,4.45V19q0,2-1.86,2h-.46c-1.28,0-1.92-.67-1.92-2V12.68a3.65,3.65,0,0,0-.71-2.4,2.42,2.42,0,0,0-1.95-.86,3.19,3.19,0,0,0-2.38.92,3.51,3.51,0,0,0-.89,2.52V19c0,1.35-.62,2-1.87,2h-.44C229.38,21.05,228.74,20.38,228.74,19Z"/><path class="cls-1" d="M245.18,13.73a7.58,7.58,0,0,1,2.17-5.56A7.37,7.37,0,0,1,252.85,6,7,7,0,0,1,258.1,8a7.18,7.18,0,0,1,2,5.28v.29a1.69,1.69,0,0,1-.24.89.9.9,0,0,1-.77.28H249a3.48,3.48,0,0,0,1.37,2.41,4.67,4.67,0,0,0,2.9.87,4.49,4.49,0,0,0,4.14-2s.19,0,.52.06a2.43,2.43,0,0,1,1,.57,1.46,1.46,0,0,1,.51,1.15,3,3,0,0,1-1.72,2.46,8.5,8.5,0,0,1-4.61,1.1,8,8,0,0,1-5.76-2.07A7.33,7.33,0,0,1,245.18,13.73ZM249,12.29h7.21a3.54,3.54,0,0,0-1-2.45,3.31,3.31,0,0,0-2.46-.93,3.58,3.58,0,0,0-2.5.94A4,4,0,0,0,249,12.29Z"/><path class="cls-1" d="M266.3,17.77a1.48,1.48,0,0,1,.3-.87,2.17,2.17,0,0,1,.62-.6c.21-.13.33-.18.37-.14A6.56,6.56,0,0,0,272.42,18Q275,18,275,16.71a.94.94,0,0,0-.63-.91,10.53,10.53,0,0,0-2.19-.57,2.74,2.74,0,0,1-.32-.07l-1.12-.26-1.1-.32a4.29,4.29,0,0,1-1.15-.52,8.1,8.1,0,0,1-.89-.71,2.42,2.42,0,0,1-.68-1,4,4,0,0,1-.22-1.38,4.4,4.4,0,0,1,1.66-3.58A6.79,6.79,0,0,1,272.8,6a8.15,8.15,0,0,1,4.4,1,2.89,2.89,0,0,1,1.54,2.44,1.43,1.43,0,0,1-.33.9,2.89,2.89,0,0,1-.66.62c-.22.14-.34.2-.38.16a5.58,5.58,0,0,0-4.29-1.81q-2.49,0-2.49,1.29a.84.84,0,0,0,.57.83,12.13,12.13,0,0,0,2,.55l.54.13,1.37.33a13.89,13.89,0,0,1,1.39.45,4.78,4.78,0,0,1,1.37.74,3.7,3.7,0,0,1,.86,1.1,3.28,3.28,0,0,1,.39,1.61A4.32,4.32,0,0,1,277.37,20a7.6,7.6,0,0,1-4.71,1.31,9.11,9.11,0,0,1-4.71-1A2.93,2.93,0,0,1,266.3,17.77Z"/><path class="cls-1" d="M280.65,13.61a7.35,7.35,0,0,1,2.18-5.47A7.53,7.53,0,0,1,288.36,6,7.15,7.15,0,0,1,293,7.31,3.62,3.62,0,0,1,294.61,10a1.54,1.54,0,0,1-.57,1.24,2.63,2.63,0,0,1-1.14.6c-.38.08-.59.08-.63,0a3.67,3.67,0,0,0-3.73-2.38,3.79,3.79,0,0,0-2.87,1.18,4.13,4.13,0,0,0-1.12,3,4.29,4.29,0,0,0,1.12,3.06,3.77,3.77,0,0,0,2.87,1.2,3.7,3.7,0,0,0,3.73-2.4c0-.07.22-.08.61,0a2.42,2.42,0,0,1,1.16.59,1.63,1.63,0,0,1,.57,1.29A3.64,3.64,0,0,1,293,20a7.16,7.16,0,0,1-4.6,1.34,7.43,7.43,0,0,1-7.71-7.72Z"/><path class="cls-1" d="M295.88,13.73A7.62,7.62,0,0,1,298,8.17,7.38,7.38,0,0,1,303.54,6,7,7,0,0,1,308.8,8a7.17,7.17,0,0,1,2,5.28v.29a1.69,1.69,0,0,1-.24.89.88.88,0,0,1-.76.28H299.71a3.5,3.5,0,0,0,1.36,2.41A4.71,4.71,0,0,0,304,18a4.5,4.5,0,0,0,4.15-2s.19,0,.52.06a2.43,2.43,0,0,1,1,.57,1.46,1.46,0,0,1,.51,1.15,3,3,0,0,1-1.72,2.46,8.52,8.52,0,0,1-4.61,1.1A8,8,0,0,1,298,19.26,7.33,7.33,0,0,1,295.88,13.73Zm3.84-1.44h7.21a3.54,3.54,0,0,0-1-2.45,3.27,3.27,0,0,0-2.45-.93,3.57,3.57,0,0,0-2.5.94A4,4,0,0,0,299.72,12.29Z"/><path class="cls-1" d="M313.05,19V6.62s.07-.1.2-.17a2.65,2.65,0,0,1,.6-.22,3.48,3.48,0,0,1,.79-.09,2.41,2.41,0,0,1,2.55,2.34A5.55,5.55,0,0,1,322,6a4.91,4.91,0,0,1,4.07,1.68A6.74,6.74,0,0,1,327.45,12v7q0,2-1.86,2h-.46c-1.28,0-1.92-.67-1.92-2V12.59a3.51,3.51,0,0,0-.7-2.32,2.43,2.43,0,0,0-2-.85,3.38,3.38,0,0,0-3.23,1.93V19c0,1.35-.62,2-1.87,2H315Q313,21.05,313.05,19Z"/><path class="cls-1" d="M329.49,13.73a7.58,7.58,0,0,1,2.17-5.56A7.35,7.35,0,0,1,337.16,6,7,7,0,0,1,342.41,8a7.18,7.18,0,0,1,2,5.28v.29a1.69,1.69,0,0,1-.24.89.92.92,0,0,1-.77.28H333.32a3.48,3.48,0,0,0,1.37,2.41,4.67,4.67,0,0,0,2.9.87,4.49,4.49,0,0,0,4.14-2s.19,0,.52.06a2.43,2.43,0,0,1,1,.57,1.46,1.46,0,0,1,.51,1.15A3,3,0,0,1,342,20.23a8.5,8.5,0,0,1-4.61,1.1,8,8,0,0,1-5.76-2.07A7.3,7.3,0,0,1,329.49,13.73Zm3.84-1.44h7.21a3.58,3.58,0,0,0-1-2.45,3.31,3.31,0,0,0-2.46-.93,3.57,3.57,0,0,0-2.5.94A4,4,0,0,0,333.33,12.29Z"/><path class="cls-1" d="M345.66,17.77a1.48,1.48,0,0,1,.3-.87,2.17,2.17,0,0,1,.62-.6c.21-.13.33-.18.37-.14A6.56,6.56,0,0,0,351.79,18c1.71,0,2.57-.42,2.57-1.26a.94.94,0,0,0-.63-.91,10.53,10.53,0,0,0-2.19-.57l-.31-.07-1.13-.26-1.1-.32a4.29,4.29,0,0,1-1.15-.52,7.21,7.21,0,0,1-.88-.71,2.35,2.35,0,0,1-.69-1,4,4,0,0,1-.22-1.38,4.4,4.4,0,0,1,1.66-3.58A6.8,6.8,0,0,1,352.17,6a8.13,8.13,0,0,1,4.39,1,2.87,2.87,0,0,1,1.54,2.44,1.43,1.43,0,0,1-.33.9,3.08,3.08,0,0,1-.65.62c-.22.14-.35.2-.39.16a5.58,5.58,0,0,0-4.28-1.81q-2.49,0-2.49,1.29a.84.84,0,0,0,.57.83,11.94,11.94,0,0,0,2,.55l.54.13,1.37.33a13.89,13.89,0,0,1,1.39.45,4.78,4.78,0,0,1,1.37.74,3.54,3.54,0,0,1,.86,1.1,3.28,3.28,0,0,1,.39,1.61A4.32,4.32,0,0,1,356.73,20,7.6,7.6,0,0,1,352,21.27a9.11,9.11,0,0,1-4.71-1A2.93,2.93,0,0,1,345.66,17.77Z"/></g></g></svg>