<svg xmlns="http://www.w3.org/2000/svg" viewBox="0 0 274.01 19.93"><defs><style>.cls-1{fill:#fff;}</style></defs><title>t2a-468</title><g id="Layer_2" data-name="Layer 2"><g id="Layer_1-2" data-name="Layer 1"><path class="cls-1" d="M0,3.64a1.89,1.89,0,0,1,.2-.87,1.56,1.56,0,0,1,.39-.54c.13-.11.22-.15.26-.14a2,2,0,0,0,1.32.5,1.85,1.85,0,0,0,1.24-.46A1.93,1.93,0,0,0,4,.9H5A1.31,1.31,0,0,1,6.45,2.4V13.94A1.31,1.31,0,0,1,5,15.44H4.59c-.93,0-1.4-.5-1.4-1.5V5A1.93,1.93,0,0,1,2,5.42a2,2,0,0,1-1.4-.49A1.64,1.64,0,0,1,0,3.64Z"/><path class="cls-1" d="M8.92,8.88V7.48a7,7,0,0,1,1.66-4.91A5.89,5.89,0,0,1,15.15.76a5.92,5.92,0,0,1,4.58,1.8,7,7,0,0,1,1.66,4.9v1.4a6.92,6.92,0,0,1-1.68,4.91,5.94,5.94,0,0,1-4.58,1.81,5.88,5.88,0,0,1-4.56-1.8A7,7,0,0,1,8.92,8.88Zm3.26.1A4.67,4.67,0,0,0,13,11.85a2.63,2.63,0,0,0,2.2,1,2.63,2.63,0,0,0,2.21-1A4.6,4.6,0,0,0,18.13,9V7.18a4.58,4.58,0,0,0-.78-2.87,2.62,2.62,0,0,0-2.22-1,2.61,2.61,0,0,0-2.19,1,4.64,4.64,0,0,0-.76,2.88Z"/><path class="cls-1" d="M23,8.88V7.48a7,7,0,0,1,1.66-4.91A5.89,5.89,0,0,1,29.18.76a5.9,5.9,0,0,1,4.57,1.8,6.91,6.91,0,0,1,1.66,4.9v1.4a7,7,0,0,1-1.67,4.91,5.94,5.94,0,0,1-4.58,1.81,5.88,5.88,0,0,1-4.56-1.8A7,7,0,0,1,23,8.88Zm3.26.1A4.6,4.6,0,0,0,27,11.85a2.94,2.94,0,0,0,4.41,0A4.6,4.6,0,0,0,32.16,9V7.18a4.58,4.58,0,0,0-.78-2.87,2.62,2.62,0,0,0-2.22-1,2.63,2.63,0,0,0-2.2,1,4.71,4.71,0,0,0-.75,2.88Z"/><path class="cls-1" d="M36.54,4.42V4.24a3.21,3.21,0,0,1,1-2.45,3.62,3.62,0,0,1,2.61-1,3.58,3.58,0,0,1,2.6,1,3.24,3.24,0,0,1,1,2.44v.17a3.23,3.23,0,0,1-1,2.46,4,4,0,0,1-5.2,0A3.2,3.2,0,0,1,36.54,4.42Zm1.16,10a1.71,1.71,0,0,1,.6-1.12L49.36.78s.18,0,.41,0a1.91,1.91,0,0,1,.66.39.85.85,0,0,1,.32.64A1.85,1.85,0,0,1,50.18,3L39.08,15.53c0,.05-.17,0-.39,0a1.91,1.91,0,0,1-.66-.39A.84.84,0,0,1,37.7,14.45Zm1-10a1.69,1.69,0,0,0,.4,1.18,1.36,1.36,0,0,0,1.07.45,1.33,1.33,0,0,0,1-.44,1.69,1.69,0,0,0,.41-1.19V4.16A1.69,1.69,0,0,0,41.2,3a1.5,1.5,0,0,0-2.11,0,1.74,1.74,0,0,0-.39,1.21Zm6.07,7.62v-.18a3.21,3.21,0,0,1,1-2.45,4,4,0,0,1,5.2,0,3.21,3.21,0,0,1,1,2.45v.17a3.18,3.18,0,0,1-1,2.45,3.62,3.62,0,0,1-2.59,1,3.67,3.67,0,0,1-2.62-1A3.21,3.21,0,0,1,44.77,12.1Zm2.15.06a1.65,1.65,0,0,0,.41,1.17,1.5,1.5,0,0,0,2.11,0,1.64,1.64,0,0,0,.41-1.18v-.33a1.69,1.69,0,0,0-.42-1.2,1.47,1.47,0,0,0-2.11,0,1.78,1.78,0,0,0-.4,1.21Z"/><path class="cls-1" d="M56.48,9.92a5.42,5.42,0,0,1,1.59-4,5.56,5.56,0,0,1,4.07-1.57,5.21,5.21,0,0,1,3.39,1,2.65,2.65,0,0,1,1.19,2,1.14,1.14,0,0,1-.42.91,2,2,0,0,1-.84.44c-.28.06-.43.06-.46,0a2.71,2.71,0,0,0-2.73-1.75,2.77,2.77,0,0,0-2.11.87,3,3,0,0,0-.82,2.19,3.13,3.13,0,0,0,.82,2.24,2.75,2.75,0,0,0,2.11.88A2.7,2.7,0,0,0,65,11.28s.16-.06.45,0a1.79,1.79,0,0,1,.85.44,1.17,1.17,0,0,1,.42.94,2.67,2.67,0,0,1-1.22,1.94,5.17,5.17,0,0,1-3.36,1,5.44,5.44,0,0,1-5.66-5.66Z"/><path class="cls-1" d="M67.69,12.43A2.89,2.89,0,0,1,69.38,9.7a12.06,12.06,0,0,1,5.22-.92H75c0-1.37-.73-2.06-2.2-2.06a2.73,2.73,0,0,0-2.66,1.59s-.17,0-.5,0a2.07,2.07,0,0,1-1-.36,1,1,0,0,1-.5-.93,2.29,2.29,0,0,1,1.28-1.93A6.76,6.76,0,0,1,73,4.31q5.11,0,5.11,4.42v6.36c0,.07-.12.15-.37.23a2.66,2.66,0,0,1-.82.12A1.74,1.74,0,0,1,75,13.75a4.24,4.24,0,0,1-3.73,1.78,3.77,3.77,0,0,1-2.63-.86A2.84,2.84,0,0,1,67.69,12.43Zm3-.23a1.15,1.15,0,0,0,.45,1,2,2,0,0,0,1.22.35,2.64,2.64,0,0,0,1.88-.68A2.22,2.22,0,0,0,75,11.09v-.63l-.57,0a7.65,7.65,0,0,0-2.8.44A1.33,1.33,0,0,0,70.66,12.2Z"/><path class="cls-1" d="M80.15,13.9V4.79s0-.07.15-.13a1.49,1.49,0,0,1,.44-.15,2.25,2.25,0,0,1,.58-.07,1.77,1.77,0,0,1,1.89,1.78,2.61,2.61,0,0,1,2.62-1.91,2.17,2.17,0,0,1,1.46.47,1.67,1.67,0,0,1,.53,1.29,1.84,1.84,0,0,1-.24.95,1.68,1.68,0,0,1-.47.55c-.15.11-.25.14-.28.12a2,2,0,0,0-1.4-.55c-1.45,0-2.17,1.17-2.17,3.51v3.24c0,1-.46,1.48-1.37,1.48h-.33Q80.15,15.37,80.15,13.9Z"/><path class="cls-1" d="M89.16,13.91V.4c0-.05,0-.09.15-.14a1.9,1.9,0,0,1,.44-.14,2.79,2.79,0,0,1,.58-.07c1.29,0,1.94.83,1.94,2.48V6.15a3.82,3.82,0,0,1,3.47-1.84,4.57,4.57,0,0,1,3.58,1.54A5.92,5.92,0,0,1,100.71,10a5.84,5.84,0,0,1-1.4,4,4.62,4.62,0,0,1-3.61,1.57,4.15,4.15,0,0,1-2.09-.51,3.28,3.28,0,0,1-1.34-1.32v.19c0,1-.46,1.43-1.37,1.43h-.33A1.27,1.27,0,0,1,89.16,13.91Zm3.11-3.21a2.31,2.31,0,0,0,.79,1.77,2.72,2.72,0,0,0,1.89.69,2.55,2.55,0,0,0,2-.87,3.41,3.41,0,0,0,.75-2.3A3.37,3.37,0,0,0,97,7.71a2.52,2.52,0,0,0-2-.87,2.71,2.71,0,0,0-2.7,1.76Z"/><path class="cls-1" d="M101.78,9.93a5.4,5.4,0,0,1,1.61-4,5.67,5.67,0,0,1,4.16-1.57,5.59,5.59,0,0,1,4.11,1.57,5.55,5.55,0,0,1,1.58,4.1A5.4,5.4,0,0,1,111.65,14a5.73,5.73,0,0,1-4.14,1.54A5.63,5.63,0,0,1,103.37,14,5.47,5.47,0,0,1,101.78,9.93Zm2.73,0a3.2,3.2,0,0,0,.86,2.32,2.83,2.83,0,0,0,2.16.91,2.78,2.78,0,0,0,2.14-.91,3.21,3.21,0,0,0,.84-2.28,3.32,3.32,0,0,0-.84-2.33,2.79,2.79,0,0,0-2.14-.92,2.86,2.86,0,0,0-2.16.91A3.19,3.19,0,0,0,104.51,9.93Z"/><path class="cls-1" d="M114.92,13.9V4.79s0-.07.15-.13a1.41,1.41,0,0,1,.43-.15,2.3,2.3,0,0,1,.58-.07A1.78,1.78,0,0,1,118,6.15a4,4,0,0,1,3.53-1.84,3.61,3.61,0,0,1,3,1.23,5,5,0,0,1,1,3.21V13.9c0,1-.46,1.47-1.37,1.47h-.33c-.94,0-1.41-.49-1.41-1.48V9.17a2.59,2.59,0,0,0-.51-1.7,1.81,1.81,0,0,0-1.47-.63A2.49,2.49,0,0,0,118,8.26v5.63c0,1-.46,1.48-1.37,1.48h-.32Q114.92,15.37,114.92,13.9Z"/><path class="cls-1" d="M131.21,13.9V4.79s0-.07.15-.13a1.41,1.41,0,0,1,.43-.15,2.3,2.3,0,0,1,.58-.07,1.78,1.78,0,0,1,1.88,1.71,4,4,0,0,1,3.53-1.84,3.61,3.61,0,0,1,3,1.23,5,5,0,0,1,1,3.21V13.9c0,1-.46,1.47-1.37,1.47h-.33c-.94,0-1.41-.49-1.41-1.48V9.17a2.59,2.59,0,0,0-.51-1.7,1.81,1.81,0,0,0-1.47-.63,2.49,2.49,0,0,0-2.37,1.42v5.63c0,1-.46,1.48-1.37,1.48h-.32Q131.21,15.37,131.21,13.9Z"/><path class="cls-1" d="M143.27,10a5.62,5.62,0,0,1,1.58-4.08,5.44,5.44,0,0,1,4-1.61,5.18,5.18,0,0,1,3.85,1.5,5.26,5.26,0,0,1,1.48,3.87v.21a1.18,1.18,0,0,1-.17.65.65.65,0,0,1-.56.21h-7.41a2.56,2.56,0,0,0,1,1.77,3.43,3.43,0,0,0,2.13.64,3.29,3.29,0,0,0,3-1.5s.14,0,.38.05a1.75,1.75,0,0,1,.73.41,1.07,1.07,0,0,1,.37.85,2.24,2.24,0,0,1-1.26,1.8,6.19,6.19,0,0,1-3.38.81,5.88,5.88,0,0,1-4.23-1.52A5.4,5.4,0,0,1,143.27,10ZM146.08,9h5.29a2.59,2.59,0,0,0-.72-1.8,2.37,2.37,0,0,0-1.8-.68,2.64,2.64,0,0,0-1.83.69A3,3,0,0,0,146.08,9Z"/><path class="cls-1" d="M155.76,11.13V5.94c0-1,.45-1.5,1.36-1.5h.34c.93,0,1.4.5,1.4,1.51v4.76a2.57,2.57,0,0,0,.53,1.71,1.87,1.87,0,0,0,1.5.62,2.45,2.45,0,0,0,2.31-1.42V6c0-1,.47-1.51,1.39-1.51h.3c1,0,1.42.5,1.42,1.5V15s-.05.09-.15.14a2,2,0,0,1-.45.15,2.76,2.76,0,0,1-.57.06,1.76,1.76,0,0,1-1.87-1.65,4.11,4.11,0,0,1-3.53,1.86,3.62,3.62,0,0,1-3-1.24A5,5,0,0,1,155.76,11.13Z"/><path class="cls-1" d="M167.67,5.9V5.69q0-1.14,1.29-1.14h.52V3.19c0-1,.47-1.5,1.42-1.5h.25c.93,0,1.39.5,1.39,1.5V4.55h1.87c.83,0,1.25.37,1.25,1.1v.17c0,.76-.42,1.14-1.27,1.15h-1.91v4.6c0,1.06.4,1.59,1.19,1.59a1.71,1.71,0,0,0,1.39-.72s.08,0,.21.07a1.3,1.3,0,0,1,.36.42,1.49,1.49,0,0,1,.17.71A1.65,1.65,0,0,1,175,15a3.47,3.47,0,0,1-2.06.56q-3.48,0-3.48-3.68V7H169C168.1,7,167.67,6.61,167.67,5.9Z"/><path class="cls-1" d="M177.25,13.9V4.79s.05-.07.15-.13a1.39,1.39,0,0,1,.44-.15,2.22,2.22,0,0,1,.57-.07,1.77,1.77,0,0,1,1.9,1.78,2.6,2.6,0,0,1,2.61-1.91,2.15,2.15,0,0,1,1.46.47,1.64,1.64,0,0,1,.54,1.29,1.84,1.84,0,0,1-.24.95,1.68,1.68,0,0,1-.47.55c-.16.11-.25.14-.28.12a2,2,0,0,0-1.4-.55c-1.45,0-2.18,1.17-2.18,3.51v3.24c0,1-.45,1.48-1.37,1.48h-.32Q177.25,15.37,177.25,13.9Z"/><path class="cls-1" d="M185.55,12.43a2.89,2.89,0,0,1,1.69-2.73,12.06,12.06,0,0,1,5.22-.92h.35c0-1.37-.74-2.06-2.21-2.06A2.73,2.73,0,0,0,188,8.31s-.17,0-.5,0a2,2,0,0,1-1-.36,1,1,0,0,1-.51-.93,2.31,2.31,0,0,1,1.28-1.93,6.8,6.8,0,0,1,3.59-.8c3.4,0,5.11,1.47,5.11,4.42v6.36c0,.07-.13.15-.38.23a2.55,2.55,0,0,1-.81.12,1.74,1.74,0,0,1-1.85-1.69,4.24,4.24,0,0,1-3.73,1.78,3.8,3.8,0,0,1-2.64-.86A2.86,2.86,0,0,1,185.55,12.43Zm3-.23a1.13,1.13,0,0,0,.46,1,1.93,1.93,0,0,0,1.21.35,2.68,2.68,0,0,0,1.89-.68,2.25,2.25,0,0,0,.74-1.73v-.63l-.57,0a7.65,7.65,0,0,0-2.8.44A1.33,1.33,0,0,0,188.51,12.2Z"/><path class="cls-1" d="M198.09,13.9V.34s0-.09.15-.14a2.56,2.56,0,0,1,.44-.14,2.91,2.91,0,0,1,.57-.06c1.29,0,1.94.83,1.95,2.48V13.9c0,1-.46,1.47-1.37,1.47h-.33Q198.09,15.37,198.09,13.9Z"/><path class="cls-1" d="M206.53,10a5.59,5.59,0,0,1,1.59-4.08,5.42,5.42,0,0,1,4-1.61A5.2,5.2,0,0,1,216,5.81a5.3,5.3,0,0,1,1.48,3.87v.21a1.17,1.17,0,0,1-.18.65.65.65,0,0,1-.56.21h-7.41a2.54,2.54,0,0,0,1,1.77,3.38,3.38,0,0,0,2.12.64,3.28,3.28,0,0,0,3-1.5s.15,0,.38.05a1.69,1.69,0,0,1,.73.41A1.08,1.08,0,0,1,217,13a2.23,2.23,0,0,1-1.27,1.8,6.17,6.17,0,0,1-3.38.81,5.84,5.84,0,0,1-4.22-1.52A5.37,5.37,0,0,1,206.53,10ZM209.35,9h5.28a2.63,2.63,0,0,0-.71-1.8,2.4,2.4,0,0,0-1.8-.68,2.65,2.65,0,0,0-1.84.69A2.92,2.92,0,0,0,209.35,9Z"/><path class="cls-1" d="M219.12,13.9V4.79s0-.07.15-.13a1.49,1.49,0,0,1,.44-.15,2.22,2.22,0,0,1,.57-.07,1.78,1.78,0,0,1,1.88,1.71,4.06,4.06,0,0,1,3.54-1.84,3.63,3.63,0,0,1,3,1.23,5,5,0,0,1,1,3.21V13.9c0,1-.46,1.47-1.37,1.47H228c-.94,0-1.41-.49-1.41-1.48V9.17a2.59,2.59,0,0,0-.51-1.7,1.78,1.78,0,0,0-1.47-.63,2.51,2.51,0,0,0-2.37,1.42v5.63c0,1-.45,1.48-1.37,1.48h-.32Q219.12,15.37,219.12,13.9Z"/><path class="cls-1" d="M231.18,10a5.62,5.62,0,0,1,1.58-4.08,5.46,5.46,0,0,1,4-1.61,5.16,5.16,0,0,1,3.85,1.5,5.27,5.27,0,0,1,1.49,3.87v.21a1.26,1.26,0,0,1-.18.65.65.65,0,0,1-.56.21H234a2.54,2.54,0,0,0,1,1.77,3.38,3.38,0,0,0,2.12.64,3.29,3.29,0,0,0,3-1.5s.14,0,.38.05a1.75,1.75,0,0,1,.73.41,1.08,1.08,0,0,1,.38.85,2.25,2.25,0,0,1-1.27,1.8,6.19,6.19,0,0,1-3.38.81,5.88,5.88,0,0,1-4.23-1.52A5.4,5.4,0,0,1,231.18,10ZM234,9h5.29a2.63,2.63,0,0,0-.71-1.8,2.4,2.4,0,0,0-1.8-.68,2.65,2.65,0,0,0-1.84.69A3,3,0,0,0,234,9Z"/><path class="cls-1" d="M243.77,13.9V4.79s0-.07.15-.13a1.41,1.41,0,0,1,.43-.15,2.3,2.3,0,0,1,.58-.07,1.77,1.77,0,0,1,1.9,1.78,2.6,2.6,0,0,1,2.61-1.91,2.15,2.15,0,0,1,1.46.47,1.64,1.64,0,0,1,.54,1.29,1.84,1.84,0,0,1-.24.95,1.69,1.69,0,0,1-.48.55c-.15.11-.24.14-.27.12a2,2,0,0,0-1.4-.55c-1.45,0-2.18,1.17-2.18,3.51v3.24c0,1-.45,1.48-1.37,1.48h-.32Q243.77,15.37,243.77,13.9Z"/><path class="cls-1" d="M251.25,16.94a2.26,2.26,0,0,1,.92-1.83,5,5,0,0,1,2.44-.94,1.27,1.27,0,0,1-.37-1,1.5,1.5,0,0,1,.73-1.25,4.24,4.24,0,0,1-2.16-1.33A3.34,3.34,0,0,1,252,8.38a3.63,3.63,0,0,1,1.38-2.9,5.28,5.28,0,0,1,3.51-1.15,5.89,5.89,0,0,1,2.32.46l.46-.88a1.74,1.74,0,0,1,1.54-1.07,1.35,1.35,0,0,1,.87.31,1.92,1.92,0,0,1,.54.64c.1.22.13.34.1.37l-1.86,1.78a3.46,3.46,0,0,1,.95,2.4,3.37,3.37,0,0,1-1.34,2.78,5.56,5.56,0,0,1-3.57,1.06h-.15a.75.75,0,0,0,0,.24.48.48,0,0,0,.1.31.9.9,0,0,0,.39.23c.19.06.37.12.54.16l.81.22.93.24q3.12.81,3.12,3A2.77,2.77,0,0,1,261.09,19a8.32,8.32,0,0,1-4.26.92,9.19,9.19,0,0,1-4.23-.73A2.4,2.4,0,0,1,251.25,16.94Zm3-.18c0,.81.88,1.21,2.65,1.21a4.94,4.94,0,0,0,2.07-.34,1.08,1.08,0,0,0,.72-1,.71.71,0,0,0-.31-.6,1.76,1.76,0,0,0-.34-.2,2.75,2.75,0,0,0-.46-.15l-.51-.13-.59-.14-.58-.14a4.75,4.75,0,0,0-1.93.47A1.14,1.14,0,0,0,254.22,16.76Zm1.22-9.88a2,2,0,0,0-.56,1.46,2,2,0,0,0,.57,1.46,2,2,0,0,0,1.47.56,2.09,2.09,0,0,0,1.49-.56A2,2,0,0,0,259,8.34a1.94,1.94,0,0,0-.58-1.46,2.12,2.12,0,0,0-1.52-.55A2,2,0,0,0,255.44,6.88Z"/><path class="cls-1" d="M262.79,5.34c0-.06,0-.16.18-.31a2.72,2.72,0,0,1,.64-.42,2,2,0,0,1,.86-.19q1.26,0,1.74,1.56l2.33,6.14L270.62,6c.32-1,.89-1.58,1.71-1.58a2.1,2.1,0,0,1,.82.18,2.43,2.43,0,0,1,.66.4c.16.14.22.24.19.3L269.11,18c-.39,1-1,1.52-1.75,1.52a2.13,2.13,0,0,1-.84-.19,3,3,0,0,1-.64-.38c-.14-.13-.2-.23-.17-.29l1.78-4a1.14,1.14,0,0,1-1-.71Z"/></g></g></svg>