<svg xmlns="http://www.w3.org/2000/svg" viewBox="0 0 167.6 150.87"><defs><style>.cls-1{fill:#a5714e;}</style></defs><title>t1-en-600</title><g id="Layer_2" data-name="Layer 2"><g id="Layer_1-2" data-name="Layer 1"><path class="cls-1" d="M18.34.59V24.07L1.29,6.34V23.68H0V.2L17.05,17.93V.59Z"/><path class="cls-1" d="M34.7,16.88h-9L23,23.68H21.64L31.35,0l9.7,23.68H37.48Zm-8.42-1.29h7.89L30.22,6Z"/><path class="cls-1" d="M57.59,1.89H50.52V23.68H47.14V1.89H40.07V.59H57.59Z"/><path class="cls-1" d="M77.88,14.31c0,3.23-.38,5.83-2.47,7.87a7.91,7.91,0,0,1-5.71,1.89,9.45,9.45,0,0,1-6.17-1.85c-2.35-2-2.87-4.76-2.87-9.4V.59h3.39V13.48c0,4.08.16,6,1.3,7.51a5.09,5.09,0,0,0,4.35,1.79,6.81,6.81,0,0,0,4.74-1.5c1.87-1.73,2.13-4.38,2.13-7V.59h1.31Z"/><path class="cls-1" d="M86.22,13.5,98.44,23.68H96.51L85.25,14.31v9.37h-3.4V.59h6.48c4.61,0,8.43,1.86,8.43,6.46s-3.82,6.45-8.43,6.45Zm1.26-1.29c4,0,5.69-1.74,5.69-5.16s-1.66-5.16-5.69-5.16H85.25V12.21Z"/><path class="cls-1" d="M112.59,16.88h-8.94l-2.79,6.8H99.53L109.24,0,119,23.68h-3.57Zm-8.42-1.29h7.89L108.12,6Z"/><path class="cls-1" d="M122.25.59h3.4v21.8h8.9v1.29h-12.3Z"/><path class="cls-1" d="M138,.59h3.4v21.8h8.91v1.29H138Z"/><path class="cls-1" d="M156.58,13.33,149.07.59H153l6.58,11.21L166.1.59h1.5L160,13.6V23.68h-3.4Z"/><path class="cls-1" d="M37.6,43.88a8.89,8.89,0,0,0-4.84-1.52c-2.19,0-4.12,1-4.12,3s1.76,3.11,4.56,5c4,2.68,6.73,4.7,6.73,8.34,0,4.66-4.42,6.07-7.92,6.07a11.09,11.09,0,0,1-6.73-2.07v-2A10.33,10.33,0,0,0,32,63.46c2.85,0,4.79-1.4,4.79-3.81,0-2.16-1.49-3.59-4.67-5.85-3.91-2.8-6.31-4.54-6.31-7.54,0-3.69,3.52-5.19,7-5.19a12.37,12.37,0,0,1,4.81,1Z"/><path class="cls-1" d="M46.83,42.69v9.36H55.3v1.29H46.83v9.85H57v1.29H43.43V41.39H57v1.3Z"/><path class="cls-1" d="M65.19,54.3,77.42,64.48H75.48L64.23,55.11v9.37h-3.4V41.39H67.3c4.61,0,8.43,1.86,8.43,6.46S71.91,54.3,67.3,54.3ZM66.45,53c4,0,5.7-1.73,5.7-5.15s-1.67-5.16-5.7-5.16H64.23V53Z"/><path class="cls-1" d="M83.4,42.69v9.36h8.47v1.29H83.4v9.85H93.52v1.29H80V41.39H93.52v1.3Z"/><path class="cls-1" d="M115.73,41.39V64.87l-17-17.73V64.48H97.39V41l17,17.73V41.39Z"/><path class="cls-1" d="M123.45,42.69v9.36h8.47v1.29h-8.47v9.85h10.12v1.29H120.05V41.39h13.52v1.3Z"/><path class="cls-1" d="M138.6,68.37a4.34,4.34,0,0,0,1.32-3,3.75,3.75,0,0,0-.11-.93,1.63,1.63,0,0,1-1,.35,1.6,1.6,0,0,1-1.69-1.64A1.83,1.83,0,0,1,139,61.32c1.43,0,2.19,1.31,2.19,3.07a5.93,5.93,0,0,1-2.63,4.92Z"/><path class="cls-1" d="M6.15,86.59l7.24,17.56,7.27-17.56H22l-9.71,23.48L2.58,86.59Z"/><path class="cls-1" d="M25.35,86.59h3.39v23.09H25.35Z"/><path class="cls-1" d="M33.26,109.68V86.59h4.91c4.32,0,7.72,1.31,7.72,5,0,2.4-1.48,3.91-3.62,4.69,3.86.75,6.49,3.16,6.49,6.68,0,4.45-4.21,6.7-9.08,6.7Zm3.4-21.79v8h1.78c3.2,0,4.27-1.82,4.27-4.17s-1.07-3.87-4.27-3.87Zm0,9.33v11.17h2.72c4,0,5.8-2.23,5.8-5.46s-1.79-5.71-5.8-5.71Z"/><path class="cls-1" d="M56.41,99.5l12.22,10.18H66.7l-11.26-9.37v9.37H52V86.59h6.48c4.61,0,8.43,1.86,8.43,6.46s-3.82,6.45-8.43,6.45Zm1.26-1.29c4,0,5.7-1.74,5.7-5.16s-1.67-5.16-5.7-5.16H55.44V98.21Z"/><path class="cls-1" d="M82.78,102.88H73.84l-2.79,6.8H69.72L79.43,86l9.71,23.68H85.57Zm-8.41-1.29h7.88L78.31,92Z"/><path class="cls-1" d="M110.78,86.59v23.48l-17-17.73v17.34H92.44V86.2l17,17.73V86.59Z"/><path class="cls-1" d="M131.88,87.89H124.8v21.79h-3.38V87.89h-7.07v-1.3h17.53Z"/><path class="cls-1" d="M135.45,86.59h3.4v21.8h8.9v1.29h-12.3Z"/><path class="cls-1" d="M154,99.33,146.5,86.59h3.87L157,97.8l6.58-11.21H165l-7.61,13v10.08H154Z"/><path class="cls-1" d="M51.8,141.11c0,3.23-.38,5.83-2.47,7.87a7.91,7.91,0,0,1-5.71,1.89A9.45,9.45,0,0,1,37.45,149c-2.35-2-2.87-4.76-2.87-9.4V127.39H38v12.89c0,4.08.15,6,1.29,7.51a5.09,5.09,0,0,0,4.35,1.79,6.79,6.79,0,0,0,4.74-1.5c1.87-1.73,2.13-4.38,2.13-7V127.39H51.8Z"/><path class="cls-1" d="M60.14,140.3l12.23,10.18H70.43l-11.25-9.37v9.37h-3.4V127.39h6.47c4.61,0,8.43,1.86,8.43,6.46s-3.82,6.45-8.43,6.45ZM61.4,139c4,0,5.7-1.73,5.7-5.15s-1.67-5.16-5.7-5.16H59.18V139Z"/><path class="cls-1" d="M75,150.48V127.39h4.91c4.32,0,7.72,1.31,7.72,5,0,2.4-1.48,3.91-3.62,4.69,3.86.75,6.49,3.16,6.49,6.68,0,4.45-4.21,6.7-9.07,6.7Zm3.4-21.79v8h1.79c3.19,0,4.26-1.82,4.26-4.17s-1.07-3.87-4.26-3.87Zm0,9.33v11.17h2.72c4,0,5.8-2.23,5.8-5.46S85.08,138,81.07,138Z"/><path class="cls-1" d="M104.72,143.68H95.78L93,150.48H91.66l9.71-23.68,9.71,23.68h-3.57Zm-8.42-1.29h7.89l-3.94-9.64Z"/><path class="cls-1" d="M132.72,127.39v23.48l-17-17.73v17.34h-1.29V127l17,17.73V127.39Z"/></g></g></svg>