<svg xmlns="http://www.w3.org/2000/svg" viewBox="0 0 184.31 146.37"><defs><style>.cls-1{fill:#a5714e;}</style></defs><title>t3-en-600</title><g id="Layer_2" data-name="Layer 2"><g id="Layer_1-2" data-name="Layer 1"><path class="cls-1" d="M56.13,23.53S66.69,15.32,66.69,6.25c0-3.26-1.31-5-3.79-5-3.82,0-5.32,3.88-5.35,4V2.94S59.14,0,63.63,0s6.48,2.79,6.48,6.32c0,6.41-7.11,12.56-8.77,14H72.13l-1.21,3.23Z"/><path class="cls-1" d="M87.28,9.37a7.53,7.53,0,0,1-1.94-4.8C85.34,2,86.77,0,90,0c2.72,0,4.29,1.53,4.29,3.72s-1.48,3.57-3.44,5l7.53,9.66A13.5,13.5,0,0,0,100,12.49h1.29a15.52,15.52,0,0,1-2.09,7l3.16,4.05h-4L97,21.88A11.47,11.47,0,0,1,89.86,24c-5.44,0-8.38-2.48-8.38-6.33,0-3.19,1.75-5.27,5.9-8.14Zm1,1.24A8.39,8.39,0,0,0,85,17.29c0,3,1.51,5.39,5.46,5.39a9.17,9.17,0,0,0,5.81-1.84ZM90,7.67a5.26,5.26,0,0,0,1.92-4c0-1.26-.48-2.4-2-2.4S88,2.48,88,3.5C88,4.33,88.14,5.29,90,7.67Z"/><path class="cls-1" d="M116.21,10.44a7.81,7.81,0,0,1,3.37-.84A5,5,0,0,0,122.08,5c0-2.23-1-3.74-3.37-3.74-3.79,0-5.37,3.81-5.44,4V2.92s1.51-2.92,6-2.92c3.82,0,6,2.16,6,5.1a5.82,5.82,0,0,1-2.6,4.88,7,7,0,0,1,5.19,7c0,4.18-3,7-8.74,7-5,0-6.84-2.08-6.84-2.08V19.94a7.64,7.64,0,0,0,6.16,2.74c3.55,0,5.91-2,5.91-5.55,0-2.38-1.12-5.45-4-6a14.12,14.12,0,0,1-4.41.63Z"/><path class="cls-1" d="M12.81,64.33V41.24h4.91c4.32,0,7.72,1.31,7.72,5,0,2.39-1.48,3.91-3.62,4.69,3.86.75,6.49,3.16,6.49,6.68,0,4.45-4.21,6.7-9.08,6.7Zm3.4-21.8v8H18c3.2,0,4.27-1.82,4.27-4.16S21.19,42.53,18,42.53Zm0,9.34V63h2.72c4,0,5.8-2.22,5.8-5.45s-1.79-5.71-5.8-5.71Z"/><path class="cls-1" d="M35,42.53V51.9h8.47v1.29H35V63H45.11v1.3H31.59V41.24H45.11v1.29Z"/><path class="cls-1" d="M49,64.33V41.24h6.36C62.4,41.24,68,45.87,68,52.78S62.4,64.33,55.34,64.33Zm3.4-1.3h2.89c5.07,0,9.15-3.84,9.15-10.25s-4.08-10.25-9.15-10.25H52.38Z"/><path class="cls-1" d="M75.76,54.14,88,64.33H86L74.79,55v9.37h-3.4V41.24h6.48c4.6,0,8.43,1.85,8.43,6.46s-3.83,6.44-8.43,6.44ZM77,52.85c4,0,5.69-1.73,5.69-5.15S81.05,42.53,77,42.53H74.79V52.85Z"/><path class="cls-1" d="M101.55,64.77c-7,0-12.41-4.95-12.41-12,0-6.86,5.42-12,12.41-12s12.39,5.12,12.39,12C113.94,59.82,108.53,64.77,101.55,64.77Zm8.74-12c0-6.27-3.51-10.69-8.74-10.69s-8.74,4.42-8.74,10.69,3.5,10.7,8.74,10.7S110.29,59.09,110.29,52.78Z"/><path class="cls-1" d="M129.17,64.77c-7,0-12.41-4.95-12.41-12,0-6.86,5.43-12,12.41-12s12.39,5.12,12.39,12C141.56,59.82,136.16,64.77,129.17,64.77Zm8.74-12c0-6.27-3.5-10.69-8.74-10.69s-8.74,4.42-8.74,10.69,3.51,10.7,8.74,10.7S137.91,59.09,137.91,52.78Z"/><path class="cls-1" d="M172.11,64.33h-3.5l-2.68-16.27-9,16.66L147.53,48l-2.66,16.31h-1.33l3.88-23.48L158,59.91l10.2-19.06Z"/><path class="cls-1" d="M13.05,98.33H4.11l-2.78,6.8H0L9.71,81.45l9.7,23.68H15.84ZM4.64,97h7.89L8.58,87.4Z"/><path class="cls-1" d="M26.11,94.94v10.19h-3.4V82h6.22c4.61,0,8.43,1.85,8.43,6.46s-3.82,6.44-8.43,6.44Zm0-1.29h2c4,0,5.7-1.73,5.7-5.15s-1.67-5.17-5.7-5.17h-2Z"/><path class="cls-1" d="M49.4,98.33H40.46l-2.79,6.8H36.35l9.7-23.68,9.71,23.68H52.19ZM41,97h7.88L44.93,87.4Z"/><path class="cls-1" d="M63.43,94.94l12.22,10.19H73.71L62.46,95.76v9.37h-3.4V82h6.47C70.14,82,74,83.89,74,88.5s-3.82,6.44-8.43,6.44Zm1.25-1.29c4,0,5.7-1.73,5.7-5.15s-1.67-5.17-5.7-5.17H62.46V93.65Z"/><path class="cls-1" d="M93.77,83.33H86.7v21.8H83.32V83.33H76.24V82H93.77Z"/><path class="cls-1" d="M123.5,105.13H120l-2.69-16.27-9,16.66-9.4-16.7-2.67,16.31H94.93L98.8,81.65l10.63,19.06,10.2-19.06Z"/><path class="cls-1" d="M130.88,83.33V92.7h8.47V94h-8.47v9.84H141v1.3H127.48V82H141v1.29Z"/><path class="cls-1" d="M163.21,82v23.48L146.16,87.79v17.34h-1.29V81.65l17,17.73V82Z"/><path class="cls-1" d="M184.31,83.33h-7.07v21.8h-3.38V83.33h-7.07V82h17.52Z"/><path class="cls-1" d="M7.57,135.74l12.22,10.19H17.86L6.6,136.56v9.37H3.21V122.84H9.68c4.61,0,8.43,1.86,8.43,6.46s-3.82,6.44-8.43,6.44Zm1.26-1.29c4,0,5.7-1.73,5.7-5.15s-1.67-5.17-5.7-5.17H6.6v10.32Z"/><path class="cls-1" d="M25.78,124.13v9.37h8.47v1.29H25.78v9.84H35.89v1.3H22.38V122.84H35.89v1.29Z"/><path class="cls-1" d="M51.18,125.32a9,9,0,0,0-4.85-1.51c-2.19,0-4.11,1-4.11,3s1.75,3.11,4.55,5c4,2.69,6.74,4.71,6.74,8.35,0,4.66-4.42,6.07-7.93,6.07a11.06,11.06,0,0,1-6.73-2.08v-2a10.33,10.33,0,0,0,6.75,2.74c2.86,0,4.8-1.4,4.8-3.81,0-2.16-1.5-3.59-4.68-5.85-3.91-2.8-6.31-4.54-6.31-7.55,0-3.69,3.52-5.18,7-5.18a12.43,12.43,0,0,1,4.81,1Z"/><path class="cls-1" d="M57.21,122.84H60.6v23.09H57.21Z"/><path class="cls-1" d="M65.12,145.93V122.84h6.36c7,0,12.64,4.63,12.64,11.54s-5.59,11.55-12.64,11.55Zm3.4-1.3h2.89c5.06,0,9.14-3.84,9.14-10.25s-4.08-10.25-9.14-10.25H68.52Z"/><path class="cls-1" d="M90.92,124.13v9.37h8.47v1.29H90.92v9.84H101v1.3H87.52V122.84H101v1.29Z"/><path class="cls-1" d="M123.26,122.84v23.48l-17.05-17.73v17.34h-1.29V122.45l17,17.73V122.84Z"/><path class="cls-1" d="M146.29,126.05a11.81,11.81,0,0,0-7-2.36c-5.24,0-8.72,4.3-8.72,10.69s3.48,10.7,8.7,10.7a11.4,11.4,0,0,0,7.7-3.1v2.13a13.07,13.07,0,0,1-7.72,2.26c-7.19,0-12.37-5.08-12.37-12s5.18-12,12.37-12a15.65,15.65,0,0,1,7.09,1.63Z"/><path class="cls-1" d="M154.47,124.13v9.37h8.46v1.29h-8.46v9.84h10.11v1.3H151.07V122.84h13.51v1.29Z"/><path class="cls-1" d="M179.87,125.32a9,9,0,0,0-4.85-1.51c-2.19,0-4.11,1-4.11,3s1.75,3.11,4.55,5c4,2.69,6.73,4.71,6.73,8.35,0,4.66-4.41,6.07-7.92,6.07a11.06,11.06,0,0,1-6.73-2.08v-2a10.33,10.33,0,0,0,6.75,2.74c2.86,0,4.79-1.4,4.79-3.81,0-2.16-1.49-3.59-4.67-5.85-3.91-2.8-6.31-4.54-6.31-7.55,0-3.69,3.52-5.18,7-5.18a12.43,12.43,0,0,1,4.81,1Z"/></g></g></svg>