<?xml version="1.0" encoding="utf-8"?>
<!-- Generator: Adobe Illustrator 23.0.4, SVG Export Plug-In . SVG Version: 6.00 Build 0)  -->
<svg version="1.1" id="Layer_1" xmlns="http://www.w3.org/2000/svg" xmlns:xlink="http://www.w3.org/1999/xlink" x="0px" y="0px"
	 viewBox="0 0 320 100" style="enable-background:new 0 0 320 100;" xml:space="preserve">
<style type="text/css">
	.st0{fill:#FFFFFF;}
</style>
<title>320 x 100 3</title>
<path class="st0" d="M114.9,45.7c0-0.4,0.4-0.8,0.8-0.8s0.8,0.4,0.8,0.8c0,0.4-0.4,0.8-0.8,0.8C115.2,46.5,114.9,46.1,114.9,45.7z
	 M115.1,48h1.1v7h-1.1V48z"/>
<path class="st0" d="M118.7,48h0.9l0.2,1.1c0.6-0.9,1.6-1.3,2.6-1.3c1.5-0.1,2.8,1.1,2.8,2.6c0,0.1,0,0.3,0,0.4V55h-1.1v-4
	c0-1.4-0.7-2.1-1.9-2.1c-1.2-0.1-2.3,0.9-2.3,2.1c0,0.1,0,0.2,0,0.2V55h-1.1L118.7,48L118.7,48z"/>
</svg>
