<?xml version="1.0" encoding="utf-8"?>
<!-- Generator: Adobe Illustrator 23.0.4, SVG Export Plug-In . SVG Version: 6.00 Build 0)  -->
<svg version="1.1" id="Layer_1" xmlns="http://www.w3.org/2000/svg" xmlns:xlink="http://www.w3.org/1999/xlink" x="0px" y="0px"
	 viewBox="0 0 320 100" style="enable-background:new 0 0 320 100;" xml:space="preserve">
<style type="text/css">
	.st0{fill:#FFFFFF;}
</style>
<title>320 x 100 3</title>
<path class="st0" d="M248.3,50.4V55h-0.8l-0.2-1c-0.6,0.8-1.5,1.3-2.5,1.2c-1.7,0-2.6-0.8-2.6-2.2s1-2.2,2.8-2.2
	c0.8,0,1.5,0.1,2.3,0.4v-0.6c0.1-0.9-0.6-1.7-1.6-1.7c-0.1,0-0.2,0-0.3,0c-0.8,0-1.5,0.2-2.2,0.7l-0.6-0.9c0.8-0.5,1.8-0.8,2.8-0.8
	C247.1,47.8,248.3,48.9,248.3,50.4z M247.2,52.4V52c-0.6-0.3-1.3-0.4-2-0.4c-1.2,0-1.9,0.4-1.9,1.2s0.6,1.2,1.8,1.2
	S247.2,53.4,247.2,52.4L247.2,52.4z"/>
<path class="st0" d="M250.6,44.4h1.1V55h-1.1V44.4z"/>
<path class="st0" d="M254.3,44.4h1.1V55h-1.1V44.4z"/>
</svg>
