<?xml version="1.0" encoding="utf-8"?>
<!-- Generator: Adobe Illustrator 23.0.4, SVG Export Plug-In . SVG Version: 6.00 Build 0)  -->
<svg version="1.1" id="Layer_1" xmlns="http://www.w3.org/2000/svg" xmlns:xlink="http://www.w3.org/1999/xlink" x="0px" y="0px"
	 viewBox="0 0 320 100" style="enable-background:new 0 0 320 100;" xml:space="preserve">
<style type="text/css">
	.st0{fill:#FFFFFF;}
</style>
<title>320 x 100 3</title>
<path class="st0" d="M71,48.3c0,2.2-1.6,3.7-4,3.7h-1.9v3h-2V44.7H67C69.4,44.7,71,46.1,71,48.3z M69,48.3c0-1-0.7-1.8-1.7-1.8
	c-0.1,0-0.2,0-0.3,0h-1.9v3.6H67C68.2,50.1,69,49.4,69,48.3z"/>
<path class="st0" d="M78.3,52.8h-4.7L72.8,55h-2.1l4.2-10.3h2.3L81.3,55h-2.2L78.3,52.8z M77.6,51.1l-1.6-4L76,46.6l-0.1,0.5l-1.5,4
	H77.6z"/>
<path class="st0" d="M81.9,50.6v-5.9h2v5.9c-0.1,1.4,1,2.6,2.4,2.7s2.6-1,2.7-2.4c0-0.1,0-0.2,0-0.3v-5.9h1.9v5.9
	c0,2.5-2,4.5-4.5,4.5S81.9,53.1,81.9,50.6L81.9,50.6z"/>
<path class="st0" d="M92.7,52.5l1.8-0.5c0.2,0.9,0.9,1.5,1.8,1.5c1,0,1.7-0.5,1.7-1.2s-0.5-1.2-1.4-1.5l-1.2-0.3
	c-1.7-0.5-2.5-1.5-2.5-3c0-1.8,1.3-2.9,3.4-2.9c1.5-0.1,3,0.8,3.5,2.3l-1.7,0.6c-0.2-0.8-0.9-1.3-1.7-1.2c-0.9,0-1.5,0.4-1.5,1.2
	s0.5,1.2,1.5,1.5l1.2,0.3c1.4,0.2,2.4,1.5,2.4,2.9c0,1.9-1.4,3-3.6,3C94.6,55.2,93.1,54.1,92.7,52.5z"/>
<path class="st0" d="M109,53.2V55h-7V44.7h7v1.7h-5V49h4.8v1.7H104v2.6H109z"/>
</svg>
