<?xml version="1.0" encoding="utf-8"?>
<!-- Generator: Adobe Illustrator 23.0.4, SVG Export Plug-In . SVG Version: 6.00 Build 0)  -->
<svg version="1.1" id="Layer_1" xmlns="http://www.w3.org/2000/svg" xmlns:xlink="http://www.w3.org/1999/xlink" x="0px" y="0px"
	 viewBox="0 0 320 100" style="enable-background:new 0 0 320 100;" xml:space="preserve">
<style type="text/css">
	.st0{fill:#FFFFFF;}
</style>
<title>320 x 100 3</title>
<path class="st0" d="M160.5,47.9h2.4v1.6h-2.4V55h-1.9v-5.5h-1.3v-1.6h1.3v-0.8c-0.1-1.4,0.9-2.7,2.3-2.8c0.2,0,0.3,0,0.5,0
	c0.7,0,1.5,0.2,2.1,0.7l-0.6,1.5c-0.3-0.3-0.7-0.5-1.2-0.5c-0.6-0.1-1.1,0.4-1.2,0.9c0,0.1,0,0.2,0,0.3L160.5,47.9z"/>
<path class="st0" d="M164.1,44.5h1.9V55h-1.9V44.5z"/>
<path class="st0" d="M174.2,50.6V55h-1.4l-0.3-0.9c-0.6,0.8-1.5,1.2-2.5,1.1c-1.6,0-2.6-0.8-2.6-2.3s1-2.2,2.8-2.2
	c0.7,0,1.4,0.1,2.1,0.3v-0.3c0.1-0.7-0.5-1.4-1.2-1.4c-0.1,0-0.2,0-0.3,0c-0.7,0-1.4,0.2-1.9,0.6l-1-1.3c0.9-0.6,2-0.9,3.1-0.9
	C173,47.7,174.2,48.8,174.2,50.6z M172.4,52.4v-0.2c-0.5-0.2-1-0.3-1.5-0.3c-0.9,0-1.4,0.3-1.4,0.9s0.4,0.9,1.3,0.9
	C171.5,53.8,172.3,53.3,172.4,52.4L172.4,52.4z"/>
<path class="st0" d="M179.9,55h-2l-3-7.1h2.1l1.8,4.6l0.1,0.6l0.1-0.6l1.8-4.6h2.1L179.9,55z"/>
<path class="st0" d="M183.1,51.5c0-2,1.6-3.7,3.7-3.7c0.1,0,0.2,0,0.2,0c2-0.1,3.7,1.4,3.9,3.4c0,0.1,0,0.2,0,0.3
	c0,2.1-1.7,3.9-3.9,3.9C184.8,55.3,183.1,53.6,183.1,51.5z M188.9,51.5c0.1-1-0.7-1.9-1.7-2c-0.1,0-0.2,0-0.3,0c-1.1,0-2,0.9-2,2
	s0.9,2,2,2S188.9,52.6,188.9,51.5z"/>
<path class="st0" d="M199.2,55h-1.5l-0.3-1.1c-0.5,0.9-1.5,1.4-2.5,1.3c-1.5,0.1-2.7-1.1-2.7-2.5c0-0.2,0-0.3,0-0.5v-4.3h1.9v3.9
	c0,1,0.5,1.6,1.4,1.6c0.9,0.1,1.7-0.6,1.8-1.6c0-0.1,0-0.1,0-0.2v-3.8h1.9L199.2,55z"/>
<path class="st0" d="M201.2,47.9h1.5l0.3,1.3c0.4-1,1.4-1.5,2.4-1.4c0.1,0,0.3,0,0.4,0l-0.1,1.9h-0.3c-1.6,0-2.3,0.7-2.3,2.6V55
	h-1.9L201.2,47.9L201.2,47.9z"/>
</svg>
