<?xml version="1.0" encoding="utf-8"?>
<!-- Generator: Adobe Illustrator 23.0.4, SVG Export Plug-In . SVG Version: 6.00 Build 0)  -->
<svg version="1.1" id="Layer_1" xmlns="http://www.w3.org/2000/svg" xmlns:xlink="http://www.w3.org/1999/xlink" x="0px" y="0px"
	 viewBox="0 0 320 100" style="enable-background:new 0 0 320 100;" xml:space="preserve">
<style type="text/css">
	.st0{fill:#FFFFFF;}
</style>
<title>320 x 100 3</title>
<path class="st0" d="M135.7,54.7c-0.6,0.3-1.2,0.4-1.8,0.4c-1.6,0-2.4-0.8-2.4-2.5V49h-1.4v-0.8c1.1,0,1.6-0.6,1.6-2.2h0.9v2h2.7v1
	h-2.7v3.6c0,1.1,0.4,1.6,1.4,1.6c0.5,0,0.9-0.1,1.3-0.4L135.7,54.7z"/>
<path class="st0" d="M137.2,44.4h1.1V49c0.6-0.8,1.5-1.2,2.5-1.2c1.5-0.1,2.8,1.1,2.9,2.6c0,0.1,0,0.3,0,0.4V55h-1.1v-4
	c0-1.4-0.7-2.1-1.9-2.1c-1.2-0.1-2.3,0.9-2.3,2.1c0,0.1,0,0.1,0,0.2V55h-1.1L137.2,44.4L137.2,44.4z"/>
<path class="st0" d="M152.5,51.9h-5.8c0.1,1.3,1.2,2.3,2.4,2.2c0.9,0.1,1.7-0.4,2.1-1.1l0.9,0.4c-0.6,1.1-1.9,1.8-3.2,1.7
	c-2-0.1-3.5-1.9-3.4-3.9c0.1-1.9,1.7-3.4,3.5-3.4s3.3,1.4,3.4,3.3c0,0.1,0,0.3,0,0.4C152.5,51.6,152.5,51.8,152.5,51.9z M151.5,50.9
	c0-1.2-1-2.1-2.2-2.1c-0.1,0-0.1,0-0.2,0c-1.3-0.1-2.3,0.9-2.5,2.1H151.5z"/>
</svg>
