<?xml version="1.0" encoding="utf-8"?>
<!-- Generator: Adobe Illustrator 23.0.4, SVG Export Plug-In . SVG Version: 6.00 Build 0)  -->
<svg version="1.1" id="Layer_1" xmlns="http://www.w3.org/2000/svg" xmlns:xlink="http://www.w3.org/1999/xlink" x="0px" y="0px"
	 viewBox="0 0 320 100" style="enable-background:new 0 0 320 100;" xml:space="preserve">
<style type="text/css">
	.st0{fill-rule:evenodd;clip-rule:evenodd;fill:#47AB34;}
	.st1{fill:#FFFFFF;}
</style>
<g transform="translate(147 57)">
	<path class="st0" d="M0,0h161.6v31.2H0V0z"/>
	<g>
		<g transform="translate(11.2 4)">
			<path class="st1" d="M5.7,8C4.8,8,4.2,8.3,3.8,8.9c-0.5,0.6-0.7,1.5-0.7,2.6c0,2.3,0.9,3.4,2.6,3.4c0.7,0,1.6-0.2,2.6-0.5v1.8
				c-0.8,0.4-1.8,0.5-2.8,0.5c-1.5,0-2.6-0.5-3.4-1.4s-1.2-2.2-1.2-3.9c0-1.1,0.2-2,0.6-2.8c0.4-0.8,0.9-1.4,1.7-1.8
				s1.6-0.6,2.6-0.6c1,0,2,0.2,3,0.7L8,8.7C7.6,8.5,7.2,8.3,6.8,8.2S6,8,5.7,8z M12.1,12.7c0,0.8,0.1,1.4,0.4,1.8s0.7,0.6,1.2,0.6
				c0.6,0,1-0.2,1.2-0.6c0.3-0.4,0.4-1,0.4-1.8c0-0.8-0.1-1.4-0.4-1.8c-0.3-0.4-0.7-0.6-1.2-0.6c-0.6,0-1,0.2-1.2,0.6
				S12.1,11.9,12.1,12.7z M17.5,12.7c0,1.3-0.3,2.3-1,3c-0.7,0.7-1.6,1.1-2.8,1.1c-0.8,0-1.4-0.2-2-0.5s-1-0.8-1.3-1.4
				s-0.5-1.3-0.5-2.2c0-1.3,0.3-2.3,1-3s1.6-1.1,2.8-1.1c0.8,0,1.4,0.2,2,0.5s1,0.8,1.3,1.4C17.4,11.1,17.5,11.8,17.5,12.7z
				 M26.6,16.6h-2.1V12c0-0.6-0.1-1-0.3-1.3s-0.5-0.4-1-0.4c-0.6,0-1,0.2-1.3,0.6c-0.3,0.4-0.4,1.1-0.4,2v3.7h-2.1V8.7H21l0.3,1h0.1
				c0.2-0.4,0.6-0.7,1-0.9s0.9-0.3,1.4-0.3c0.9,0,1.6,0.2,2.1,0.7c0.5,0.5,0.7,1.2,0.7,2.1L26.6,16.6z M32.2,15
				c0.4,0,0.8-0.1,1.3-0.2v1.6c-0.5,0.2-1.2,0.4-2,0.4c-0.9,0-1.5-0.2-1.9-0.7s-0.6-1.1-0.6-2v-3.8h-1V9.4l1.2-0.7l0.6-1.7h1.4v1.7
				h2.2v1.6h-2.2v3.8c0,0.3,0.1,0.5,0.3,0.7S32,15,32.2,15z M40.2,16.6l-0.4-1.1h-0.1c-0.4,0.5-0.7,0.8-1.1,0.9
				c-0.4,0.2-0.9,0.3-1.5,0.3c-0.8,0-1.3-0.2-1.8-0.6c-0.4-0.4-0.7-1-0.7-1.8c0-0.8,0.3-1.4,0.9-1.8c0.6-0.4,1.5-0.6,2.6-0.7l1.4,0
				v-0.3c0-0.8-0.4-1.2-1.2-1.2c-0.6,0-1.4,0.2-2.2,0.6l-0.7-1.4c0.9-0.5,1.9-0.7,3-0.7c1.1,0,1.9,0.2,2.4,0.7s0.8,1.2,0.8,2.1v5.2
				L40.2,16.6z M39.6,13l-0.8,0c-0.6,0-1.1,0.1-1.4,0.3s-0.5,0.5-0.5,0.9c0,0.6,0.3,0.9,1,0.9c0.5,0,0.9-0.1,1.2-0.4
				c0.3-0.3,0.4-0.7,0.4-1.1L39.6,13z M47.2,16.7c-2.4,0-3.7-1.3-3.7-4c0-1.3,0.3-2.4,1-3.1s1.6-1.1,2.9-1.1c0.9,0,1.7,0.2,2.4,0.5
				l-0.6,1.7c-0.3-0.1-0.7-0.2-0.9-0.3s-0.6-0.1-0.9-0.1c-1.1,0-1.7,0.8-1.7,2.4c0,1.5,0.6,2.3,1.7,2.3c0.4,0,0.8-0.1,1.1-0.2
				c0.4-0.1,0.7-0.3,1.1-0.5v1.8c-0.3,0.2-0.7,0.4-1.1,0.5C48.2,16.7,47.8,16.7,47.2,16.7z M54.8,15c0.4,0,0.8-0.1,1.3-0.2v1.6
				c-0.5,0.2-1.2,0.4-2,0.4c-0.9,0-1.5-0.2-1.9-0.7s-0.6-1.1-0.6-2v-3.8h-1V9.4l1.2-0.7l0.6-1.7h1.4v1.7h2.2v1.6h-2.2v3.8
				c0,0.3,0.1,0.5,0.3,0.7S54.5,15,54.8,15z M67.2,16.6l-0.3-1h-0.1c-0.2,0.4-0.6,0.6-1,0.8c-0.4,0.2-0.9,0.3-1.4,0.3
				c-0.9,0-1.6-0.2-2.1-0.7c-0.5-0.5-0.7-1.2-0.7-2.1V8.7h2.1v4.6c0,0.6,0.1,1,0.3,1.3c0.2,0.3,0.5,0.4,1,0.4c0.6,0,1-0.2,1.3-0.6
				c0.3-0.4,0.4-1.1,0.4-2V8.7h2.1v7.9H67.2z M76.7,14.3c0,0.8-0.3,1.4-0.8,1.8c-0.6,0.4-1.4,0.6-2.5,0.6c-0.6,0-1.1,0-1.5-0.1
				s-0.8-0.2-1.1-0.3v-1.8c0.4,0.2,0.8,0.3,1.3,0.5s0.9,0.2,1.3,0.2c0.8,0,1.2-0.2,1.2-0.7c0-0.2-0.1-0.3-0.2-0.4s-0.3-0.2-0.5-0.4
				c-0.2-0.1-0.5-0.2-0.8-0.4l-0.2-0.1c-0.6-0.3-1-0.5-1.3-0.7s-0.5-0.5-0.6-0.7c-0.1-0.3-0.2-0.6-0.2-1c0-0.7,0.3-1.2,0.8-1.6
				s1.3-0.6,2.3-0.6c0.9,0,1.9,0.2,2.8,0.6L76,10.8c-0.4-0.2-0.8-0.3-1.1-0.4s-0.7-0.2-1-0.2c-0.6,0-0.9,0.2-0.9,0.5
				c0,0.2,0.1,0.4,0.3,0.5c0.2,0.1,0.5,0.3,1,0.5l0.4,0.2c0.6,0.2,1.1,0.5,1.3,0.7c0.3,0.2,0.5,0.5,0.6,0.7
				C76.6,13.5,76.7,13.9,76.7,14.3z M85.6,15c0.4,0,0.8-0.1,1.3-0.2v1.6c-0.5,0.2-1.2,0.4-2,0.4c-0.9,0-1.5-0.2-1.9-0.7
				s-0.6-1.1-0.6-2v-3.8h-1V9.4l1.2-0.7l0.6-1.7h1.4v1.7h2.2v1.6h-2.2v3.8c0,0.3,0.1,0.5,0.3,0.7S85.3,15,85.6,15z M90.3,12.7
				c0,0.8,0.1,1.4,0.4,1.8s0.7,0.6,1.2,0.6c0.6,0,1-0.2,1.2-0.6c0.3-0.4,0.4-1,0.4-1.8c0-0.8-0.1-1.4-0.4-1.8
				c-0.3-0.4-0.7-0.6-1.2-0.6c-0.6,0-1,0.2-1.2,0.6S90.3,11.9,90.3,12.7z M95.7,12.7c0,1.3-0.3,2.3-1,3c-0.7,0.7-1.6,1.1-2.8,1.1
				c-0.8,0-1.4-0.2-2-0.5s-1-0.8-1.3-1.4c-0.3-0.6-0.5-1.3-0.5-2.2c0-1.3,0.3-2.3,1-3s1.6-1.1,2.8-1.1c0.8,0,1.4,0.2,2,0.5
				s1,0.8,1.3,1.4C95.6,11.1,95.7,11.8,95.7,12.7z M100.1,16.7c-0.9,0-1.6-0.4-2.2-1.1c-0.5-0.7-0.8-1.7-0.8-3c0-1.3,0.3-2.3,0.8-3
				s1.3-1.1,2.2-1.1c1,0,1.7,0.4,2.3,1.2h0.1c-0.1-0.6-0.2-1.1-0.2-1.6V5.7h2.2v10.9h-1.6l-0.4-1h-0.1
				C101.8,16.4,101.1,16.7,100.1,16.7z M100.8,15c0.5,0,1-0.2,1.2-0.5s0.4-0.9,0.4-1.6v-0.2c0-0.8-0.1-1.4-0.4-1.8
				c-0.3-0.4-0.7-0.5-1.3-0.5c-0.5,0-0.8,0.2-1.1,0.6s-0.4,1-0.4,1.8s0.1,1.4,0.4,1.7S100.3,15,100.8,15z M111.8,16.6l-0.4-1.1h-0.1
				c-0.4,0.5-0.7,0.8-1.1,0.9c-0.4,0.2-0.9,0.3-1.5,0.3c-0.8,0-1.3-0.2-1.8-0.6s-0.7-1-0.7-1.8c0-0.8,0.3-1.4,0.9-1.8
				c0.6-0.4,1.5-0.6,2.6-0.7l1.4,0v-0.3c0-0.8-0.4-1.2-1.2-1.2c-0.6,0-1.4,0.2-2.2,0.6L107,9.3c0.9-0.5,1.9-0.7,3-0.7
				c1.1,0,1.9,0.2,2.4,0.7s0.8,1.2,0.8,2.1v5.2L111.8,16.6z M111.1,13l-0.8,0c-0.6,0-1.1,0.1-1.4,0.3s-0.5,0.5-0.5,0.9
				c0,0.6,0.3,0.9,1,0.9c0.5,0,0.9-0.1,1.2-0.4c0.3-0.3,0.4-0.7,0.4-1.1V13z M114.4,8.7h2.3l1.5,4.4c0.1,0.4,0.2,0.8,0.3,1.4h0
				c0.1-0.5,0.2-0.9,0.3-1.4l1.5-4.4h2.3l-3.3,8.9c-0.3,0.8-0.7,1.4-1.3,1.8c-0.6,0.4-1.2,0.6-2,0.6c-0.4,0-0.7,0-1.1-0.1v-1.7
				c0.3,0.1,0.5,0.1,0.8,0.1c0.4,0,0.7-0.1,1-0.3s0.5-0.6,0.7-1.1l0.1-0.4L114.4,8.7z"/>
		</g>
		<path class="st1" d="M149.6,15.6l-4.2-5.2h-2.9c-0.2,0-0.2,0.1-0.1,0.3l3.7,4.7c0.1,0.1,0.1,0.4,0,0.5l-3.7,4.7
			c-0.1,0.1-0.1,0.3,0.1,0.3h2.9L149.6,15.6z"/>
	</g>
</g>
</svg>
