<?xml version="1.0" encoding="utf-8"?>
<!-- Generator: Adobe Illustrator 24.0.2, SVG Export Plug-In . SVG Version: 6.00 Build 0)  -->
<svg version="1.1" id="Layer_1" xmlns="http://www.w3.org/2000/svg" xmlns:xlink="http://www.w3.org/1999/xlink" x="0px" y="0px"
	 viewBox="0 0 970 250" style="enable-background:new 0 0 970 250;" xml:space="preserve">
<style type="text/css">
	.st0{fill:#FFFFFF;}
</style>
<title>970 x 250 2</title>
<path class="st0" d="M85.5,100h-11v27.4h-6.3V100h-6.4c-4.7,0-7.5,2.7-7.5,7c-0.2,3.5,2.4,6.6,5.9,7l-1.2,5.8
	c-6.9-1-11.2-5.8-11.2-12.8c0-7.9,5.4-13,14-13h23.7V100z"/>
<path class="st0" d="M90.5,93.2h6.2V107c1.6-2.1,4.2-3.2,7.6-3.2c5.5,0,9,3.7,9,9.6v14.1H107v-12.8c0-3.4-1.7-5.2-4.7-5.2
	c-3-0.1-5.6,2.3-5.7,5.3c0,0.1,0,0.3,0,0.4v12.2h-6.1V93.2z"/>
<path class="st0" d="M141.4,117.9H124c0.6,3,2.5,4.7,5.8,4.7c2.5,0,4.1-0.9,5.1-2.7l5.5,2.5c-2.4,3.8-5.8,5.7-10.7,5.7
	c-6.9,0-11.9-5.1-11.9-12.1s5.1-12,12.3-12c6.8,0,11.4,4.9,11.4,12.2C141.5,116.9,141.4,117.9,141.4,117.9z M135.5,113.3
	c-0.2-2.5-2.3-4.2-5.4-4.2s-5.2,1.4-5.9,4.2H135.5z"/>
</svg>
