<svg id="Layer_1" data-name="Layer 1" xmlns="http://www.w3.org/2000/svg" xmlns:xlink="http://www.w3.org/1999/xlink" viewBox="0 0 300 600"><defs><style>.cls-1,.cls-35{fill:none;}.cls-2{clip-path:url(#clip-path);}.cls-3{clip-path:url(#clip-path-3);}.cls-4{clip-path:url(#clip-path-4);}.cls-5{clip-path:url(#clip-path-5);}.cls-6{clip-path:url(#clip-path-7);}.cls-7{clip-path:url(#clip-path-8);}.cls-8{clip-path:url(#clip-path-9);}.cls-9{clip-path:url(#clip-path-11);}.cls-10{clip-path:url(#clip-path-12);}.cls-11{clip-path:url(#clip-path-13);}.cls-12{clip-path:url(#clip-path-15);}.cls-13{clip-path:url(#clip-path-16);}.cls-14{clip-path:url(#clip-path-17);}.cls-15{clip-path:url(#clip-path-19);}.cls-16{clip-path:url(#clip-path-20);}.cls-17{clip-path:url(#clip-path-21);}.cls-18{clip-path:url(#clip-path-23);}.cls-19{clip-path:url(#clip-path-24);}.cls-20{clip-path:url(#clip-path-25);}.cls-21{clip-path:url(#clip-path-27);}.cls-22{clip-path:url(#clip-path-28);}.cls-23{clip-path:url(#clip-path-29);}.cls-24{clip-path:url(#clip-path-31);}.cls-25{clip-path:url(#clip-path-32);}.cls-26{clip-path:url(#clip-path-33);}.cls-27{clip-path:url(#clip-path-35);}.cls-28{clip-path:url(#clip-path-36);}.cls-29{clip-path:url(#clip-path-37);}.cls-30{fill:#221e1f;}.cls-31{clip-path:url(#clip-path-38);}.cls-32{clip-path:url(#clip-path-39);}.cls-33{clip-path:url(#clip-path-40);}.cls-34{clip-path:url(#clip-path-41);}.cls-35{stroke:#221e1f;stroke-width:4.14px;}.cls-36{clip-path:url(#clip-path-42);}.cls-37{clip-path:url(#clip-path-43);}.cls-38{clip-path:url(#clip-path-44);}</style><clipPath id="clip-path"><rect class="cls-1" x="-2880" width="300" height="600"/></clipPath><clipPath id="clip-path-3"><rect class="cls-1" x="-2799.15" y="364.8" width="138.3" height="137.47"/></clipPath><clipPath id="clip-path-4"><rect class="cls-1" x="-35648" y="-32167" width="65535" height="65535"/></clipPath><clipPath id="clip-path-5"><rect class="cls-1" x="-2560" width="300" height="600"/></clipPath><clipPath id="clip-path-7"><rect class="cls-1" x="-2479.15" y="364.8" width="138.3" height="137.47"/></clipPath><clipPath id="clip-path-8"><rect class="cls-1" x="-35328" y="-32167" width="65535" height="65535"/></clipPath><clipPath id="clip-path-9"><rect class="cls-1" x="-2240" width="300" height="600"/></clipPath><clipPath id="clip-path-11"><rect class="cls-1" x="-2159.15" y="364.8" width="138.3" height="137.47"/></clipPath><clipPath id="clip-path-12"><rect class="cls-1" x="-35008" y="-32167" width="65535" height="65535"/></clipPath><clipPath id="clip-path-13"><rect class="cls-1" x="-1920" width="300" height="600"/></clipPath><clipPath id="clip-path-15"><rect class="cls-1" x="-1839.15" y="364.8" width="138.3" height="137.47"/></clipPath><clipPath id="clip-path-16"><rect class="cls-1" x="-34688" y="-32167" width="65535" height="65535"/></clipPath><clipPath id="clip-path-17"><rect class="cls-1" x="-1600" width="300" height="600"/></clipPath><clipPath id="clip-path-19"><rect class="cls-1" x="-1519.15" y="364.8" width="138.3" height="137.47"/></clipPath><clipPath id="clip-path-20"><rect class="cls-1" x="-34368" y="-32167" width="65535" height="65535"/></clipPath><clipPath id="clip-path-21"><rect class="cls-1" x="-1280" width="300" height="600"/></clipPath><clipPath id="clip-path-23"><rect class="cls-1" x="-1199.15" y="364.8" width="138.3" height="137.47"/></clipPath><clipPath id="clip-path-24"><rect class="cls-1" x="-34048" y="-32167" width="65535" height="65535"/></clipPath><clipPath id="clip-path-25"><rect class="cls-1" x="-960" width="300" height="600"/></clipPath><clipPath id="clip-path-27"><rect class="cls-1" x="-879.15" y="364.8" width="138.3" height="137.47"/></clipPath><clipPath id="clip-path-28"><rect class="cls-1" x="-33728" y="-32167" width="65535" height="65535"/></clipPath><clipPath id="clip-path-29"><rect class="cls-1" x="-640" width="300" height="600"/></clipPath><clipPath id="clip-path-31"><rect class="cls-1" x="-559.15" y="364.8" width="138.3" height="137.47"/></clipPath><clipPath id="clip-path-32"><rect class="cls-1" x="-33408" y="-32167" width="65535" height="65535"/></clipPath><clipPath id="clip-path-33"><rect class="cls-1" x="-320" width="300" height="600"/></clipPath><clipPath id="clip-path-35"><rect class="cls-1" x="-239.15" y="364.8" width="138.3" height="137.47"/></clipPath><clipPath id="clip-path-36"><rect class="cls-1" x="-33088" y="-32167" width="65535" height="65535"/></clipPath><clipPath id="clip-path-37"><rect class="cls-1" width="300" height="600"/></clipPath><clipPath id="clip-path-38"><rect class="cls-1" x="320" width="300" height="600"/></clipPath><clipPath id="clip-path-39"><rect class="cls-1" x="400.85" y="364.8" width="138.3" height="137.47"/></clipPath><clipPath id="clip-path-40"><rect class="cls-1" x="-32448" y="-32167" width="65535" height="65535"/></clipPath><clipPath id="clip-path-41"><rect class="cls-1" x="384.37" y="28.79" width="171.25" height="216.95" rx="39.1"/></clipPath><clipPath id="clip-path-42"><rect class="cls-1" x="640" width="300" height="600"/></clipPath><clipPath id="clip-path-43"><rect class="cls-1" x="720.85" y="364.8" width="138.3" height="137.47"/></clipPath><clipPath id="clip-path-44"><rect class="cls-1" x="-32128" y="-32167" width="65535" height="65535"/></clipPath></defs><g class="cls-29"><path class="cls-30" d="M53.79,66.73c.26,3.33,2.82,4.47,5.77,4.47,2.48,0,4.08-.89,4.08-2.36S62.09,67,60.07,66.65l-4.85-.84c-4.33-.8-7.36-3.25-7.36-7.88,0-5.39,4.21-8.63,10.82-8.63C66,49.3,70,52.88,70.09,58.78l-6.57.12c-.21-2.73-2.19-4-4.93-4-2.35,0-3.7.93-3.7,2.4,0,1.22,1,1.69,2.65,2l5,.89c5.56,1,8.08,3.87,8.08,8.2,0,5.65-4.88,8.47-11.07,8.47-7.2,0-12.33-3.5-12.33-9.9Z"/><path class="cls-30" d="M80.19,83.07H73.37V57.55h6.82V60.8c.93-2.23,3-3.75,6.19-3.75,5.51,0,8.33,4.38,8.33,9.89s-2.82,9.9-8.33,9.9c-3.16,0-5.26-1.52-6.19-3.71Zm0-16c0,2.74,1.47,4.5,3.79,4.5,2.65,0,3.87-1.89,3.87-4.63S86.63,62.35,84,62.35c-2.32,0-3.79,1.77-3.79,4.47Z"/><path class="cls-30" d="M104.23,49.81V76.33H97.41V49.81Z"/><path class="cls-30" d="M107.89,49.81h6.9v6h-6.9Zm6.86,7.74V76.33h-6.82V57.55Z"/><path class="cls-30" d="M119.13,62.27h-2.52V58.06l1.39-.21c1.89-.3,2.48-1.31,2.94-3l.63-2.44h4.3v5.17h4.88v4.72h-4.88v6.86c0,1.6.75,2.23,2.14,2.23a7.43,7.43,0,0,0,2.91-.63v4.42a8.78,8.78,0,0,1-5.64,1.69c-3.16,0-6.15-1.31-6.15-5.73Z"/><path class="cls-30" d="M139.72,53.85c3.7,0,5.55-1.26,6.52-4h5.6V76.33h-7.16V58.57h-5Z"/><path class="cls-30" d="M168.89,76.33h-5.26V49.81h6.82v11c.93-2.23,3-3.75,6.19-3.75,5.51,0,8.33,4.38,8.33,9.89s-2.82,9.9-8.46,9.9a6.8,6.8,0,0,1-6.44-3.75Zm1.56-9.26c0,2.74,1.47,4.5,3.79,4.5,2.65,0,3.87-1.89,3.87-4.63s-1.22-4.59-3.87-4.59c-2.32,0-3.79,1.77-3.79,4.47Z"/><path class="cls-30" d="M187.63,49.81h6.9v6h-6.9Zm6.86,7.74V76.33h-6.82V57.55Z"/><path class="cls-30" d="M205,49.81V76.33h-6.82V49.81Z"/><path class="cls-30" d="M215.54,49.81V76.33h-6.82V49.81Z"/></g><g class="cls-31"><g class="cls-34"><line class="cls-35" x1="759.38" y1="-212.13" x2="179.46" y2="319.27"/><line class="cls-35" x1="698.91" y1="-278.12" x2="118.99" y2="253.27"/><line class="cls-35" x1="819.85" y1="-146.13" x2="239.94" y2="385.26"/><line class="cls-35" x1="668.67" y1="-311.12" x2="88.76" y2="220.28"/><line class="cls-35" x1="789.61" y1="-179.13" x2="209.7" y2="352.26"/><line class="cls-35" x1="729.14" y1="-245.12" x2="149.23" y2="286.27"/><line class="cls-35" x1="850.08" y1="-113.14" x2="270.17" y2="418.25"/><line class="cls-35" x1="774.5" y1="-195.63" x2="194.58" y2="335.76"/><line class="cls-35" x1="714.02" y1="-261.62" x2="134.11" y2="269.77"/><line class="cls-35" x1="834.97" y1="-129.64" x2="255.05" y2="401.76"/><line class="cls-35" x1="683.79" y1="-294.62" x2="103.87" y2="236.77"/><line class="cls-35" x1="804.73" y1="-162.63" x2="224.82" y2="368.76"/><line class="cls-35" x1="744.26" y1="-228.63" x2="164.35" y2="302.77"/><line class="cls-35" x1="865.2" y1="-96.64" x2="285.29" y2="434.75"/><line class="cls-35" x1="766.94" y1="-203.88" x2="187.02" y2="327.51"/><line class="cls-35" x1="706.47" y1="-269.87" x2="126.55" y2="261.52"/><line class="cls-35" x1="827.41" y1="-137.89" x2="247.49" y2="393.51"/><line class="cls-35" x1="676.23" y1="-302.87" x2="96.32" y2="228.53"/><line class="cls-35" x1="797.17" y1="-170.88" x2="217.26" y2="360.51"/><line class="cls-35" x1="736.7" y1="-236.88" x2="156.79" y2="294.52"/><line class="cls-35" x1="857.64" y1="-104.89" x2="277.73" y2="426.5"/><line class="cls-35" x1="782.05" y1="-187.38" x2="202.14" y2="344.01"/><line class="cls-35" x1="721.58" y1="-253.37" x2="141.67" y2="278.02"/><line class="cls-35" x1="880.32" y1="-80.14" x2="300.41" y2="451.25"/><line class="cls-35" x1="842.53" y1="-121.39" x2="262.61" y2="410.01"/><line class="cls-35" x1="691.35" y1="-286.37" x2="111.43" y2="245.02"/><line class="cls-35" x1="812.29" y1="-154.38" x2="232.38" y2="377.01"/><line class="cls-35" x1="751.82" y1="-220.38" x2="171.9" y2="311.02"/><line class="cls-35" x1="872.76" y1="-88.39" x2="292.85" y2="443"/></g></g></svg>