<svg id="Layer_1" data-name="Layer 1" xmlns="http://www.w3.org/2000/svg" xmlns:xlink="http://www.w3.org/1999/xlink" viewBox="0 0 300 600"><defs><style>.cls-1,.cls-35{fill:none;}.cls-2{clip-path:url(#clip-path);}.cls-3{clip-path:url(#clip-path-3);}.cls-4{clip-path:url(#clip-path-4);}.cls-5{clip-path:url(#clip-path-5);}.cls-6{clip-path:url(#clip-path-7);}.cls-7{clip-path:url(#clip-path-8);}.cls-8{clip-path:url(#clip-path-9);}.cls-9{clip-path:url(#clip-path-11);}.cls-10{clip-path:url(#clip-path-12);}.cls-11{clip-path:url(#clip-path-13);}.cls-12{clip-path:url(#clip-path-15);}.cls-13{clip-path:url(#clip-path-16);}.cls-14{clip-path:url(#clip-path-17);}.cls-15{clip-path:url(#clip-path-19);}.cls-16{clip-path:url(#clip-path-20);}.cls-17{clip-path:url(#clip-path-21);}.cls-18{clip-path:url(#clip-path-23);}.cls-19{clip-path:url(#clip-path-24);}.cls-20{clip-path:url(#clip-path-25);}.cls-21{clip-path:url(#clip-path-27);}.cls-22{clip-path:url(#clip-path-28);}.cls-23{clip-path:url(#clip-path-29);}.cls-24{clip-path:url(#clip-path-31);}.cls-25{clip-path:url(#clip-path-32);}.cls-26{clip-path:url(#clip-path-33);}.cls-27{clip-path:url(#clip-path-35);}.cls-28{clip-path:url(#clip-path-36);}.cls-29{clip-path:url(#clip-path-37);}.cls-30{fill:#221e1f;}.cls-31{clip-path:url(#clip-path-38);}.cls-32{clip-path:url(#clip-path-39);}.cls-33{clip-path:url(#clip-path-40);}.cls-34{clip-path:url(#clip-path-41);}.cls-35{stroke:#221e1f;stroke-width:4.14px;}.cls-36{clip-path:url(#clip-path-42);}.cls-37{clip-path:url(#clip-path-43);}.cls-38{clip-path:url(#clip-path-44);}</style><clipPath id="clip-path"><rect class="cls-1" x="-2880" width="300" height="600"/></clipPath><clipPath id="clip-path-3"><rect class="cls-1" x="-2799.15" y="364.8" width="138.3" height="137.47"/></clipPath><clipPath id="clip-path-4"><rect class="cls-1" x="-35648" y="-32167" width="65535" height="65535"/></clipPath><clipPath id="clip-path-5"><rect class="cls-1" x="-2560" width="300" height="600"/></clipPath><clipPath id="clip-path-7"><rect class="cls-1" x="-2479.15" y="364.8" width="138.3" height="137.47"/></clipPath><clipPath id="clip-path-8"><rect class="cls-1" x="-35328" y="-32167" width="65535" height="65535"/></clipPath><clipPath id="clip-path-9"><rect class="cls-1" x="-2240" width="300" height="600"/></clipPath><clipPath id="clip-path-11"><rect class="cls-1" x="-2159.15" y="364.8" width="138.3" height="137.47"/></clipPath><clipPath id="clip-path-12"><rect class="cls-1" x="-35008" y="-32167" width="65535" height="65535"/></clipPath><clipPath id="clip-path-13"><rect class="cls-1" x="-1920" width="300" height="600"/></clipPath><clipPath id="clip-path-15"><rect class="cls-1" x="-1839.15" y="364.8" width="138.3" height="137.47"/></clipPath><clipPath id="clip-path-16"><rect class="cls-1" x="-34688" y="-32167" width="65535" height="65535"/></clipPath><clipPath id="clip-path-17"><rect class="cls-1" x="-1600" width="300" height="600"/></clipPath><clipPath id="clip-path-19"><rect class="cls-1" x="-1519.15" y="364.8" width="138.3" height="137.47"/></clipPath><clipPath id="clip-path-20"><rect class="cls-1" x="-34368" y="-32167" width="65535" height="65535"/></clipPath><clipPath id="clip-path-21"><rect class="cls-1" x="-1280" width="300" height="600"/></clipPath><clipPath id="clip-path-23"><rect class="cls-1" x="-1199.15" y="364.8" width="138.3" height="137.47"/></clipPath><clipPath id="clip-path-24"><rect class="cls-1" x="-34048" y="-32167" width="65535" height="65535"/></clipPath><clipPath id="clip-path-25"><rect class="cls-1" x="-960" width="300" height="600"/></clipPath><clipPath id="clip-path-27"><rect class="cls-1" x="-879.15" y="364.8" width="138.3" height="137.47"/></clipPath><clipPath id="clip-path-28"><rect class="cls-1" x="-33728" y="-32167" width="65535" height="65535"/></clipPath><clipPath id="clip-path-29"><rect class="cls-1" x="-640" width="300" height="600"/></clipPath><clipPath id="clip-path-31"><rect class="cls-1" x="-559.15" y="364.8" width="138.3" height="137.47"/></clipPath><clipPath id="clip-path-32"><rect class="cls-1" x="-33408" y="-32167" width="65535" height="65535"/></clipPath><clipPath id="clip-path-33"><rect class="cls-1" x="-320" width="300" height="600"/></clipPath><clipPath id="clip-path-35"><rect class="cls-1" x="-239.15" y="364.8" width="138.3" height="137.47"/></clipPath><clipPath id="clip-path-36"><rect class="cls-1" x="-33088" y="-32167" width="65535" height="65535"/></clipPath><clipPath id="clip-path-37"><rect class="cls-1" width="300" height="600"/></clipPath><clipPath id="clip-path-38"><rect class="cls-1" x="320" width="300" height="600"/></clipPath><clipPath id="clip-path-39"><rect class="cls-1" x="400.85" y="364.8" width="138.3" height="137.47"/></clipPath><clipPath id="clip-path-40"><rect class="cls-1" x="-32448" y="-32167" width="65535" height="65535"/></clipPath><clipPath id="clip-path-41"><rect class="cls-1" x="384.37" y="28.79" width="171.25" height="216.95" rx="39.1"/></clipPath><clipPath id="clip-path-42"><rect class="cls-1" x="640" width="300" height="600"/></clipPath><clipPath id="clip-path-43"><rect class="cls-1" x="720.85" y="364.8" width="138.3" height="137.47"/></clipPath><clipPath id="clip-path-44"><rect class="cls-1" x="-32128" y="-32167" width="65535" height="65535"/></clipPath></defs><g class="cls-29"><path class="cls-30" d="M57.54,205.83a17.61,17.61,0,0,0-1.94.08v-5.09a15.06,15.06,0,0,0,2,.08,2.79,2.79,0,0,0,3-2.78,2.69,2.69,0,0,0-3-2.9c-2.32,0-3.5,1.89-3.5,4.38l-6.86-.3c0-5.47,3.92-9.85,10.57-9.85,6.27,0,9.85,3.2,9.85,7.92A5.58,5.58,0,0,1,63,203.05c3.49.59,5.43,2.95,5.43,6.19,0,5-4.21,7.74-10.4,7.74-6.94,0-11-3.74-11-9.64l7,.21c.09,2.53,1.65,3.67,4,3.67,1.64,0,3.08-.84,3.08-2.53C61.08,206.75,59.56,205.83,57.54,205.83Z"/><path class="cls-30" d="M76.7,202.42V197.7h2.69v-.8c0-4.88,3-7.45,7.54-7.45,3.53,0,6,1.77,6.73,4.88l-4.17,1.31a1.92,1.92,0,0,0-1.81-1.31c-1.13,0-1.55.93-1.55,2.11v1.26h4.75v4.72H86.13v14.06H79.39V202.42Z"/><path class="cls-30" d="M106.54,204.36a6,6,0,0,0-3.24-.81c-2.52,0-4.08,1.18-4.08,4.34v8.59H92.4V197.7h6.82V201a5.45,5.45,0,0,1,5.14-3.83,4.6,4.6,0,0,1,2.61.71Z"/><path class="cls-30" d="M109,190h6.9v6H109Zm6.86,7.74v18.78h-6.82V197.7Z"/><path class="cls-30" d="M138.29,210.29c-1,4.29-4.42,6.69-9.39,6.69-6,0-10.32-3.62-10.32-9.59a9.9,9.9,0,0,1,10.24-10.19c6.27,0,9.59,4.29,9.59,9.39v1.89H125.24c.17,2.32,1.85,3.41,3.91,3.41,1.85,0,3-.63,3.66-2.1Zm-6.36-5.09a3.08,3.08,0,0,0-3.2-3.12,3.21,3.21,0,0,0-3.41,3.12Z"/><path class="cls-30" d="M148,216.48h-6.82V197.7H148v2.82a6.43,6.43,0,0,1,6.06-3.32c5.14,0,6.78,3.58,6.78,7.49v11.79H154v-10c0-2.57-.71-3.91-2.78-3.91-2.31,0-3.24,1.85-3.24,4.67Z"/><path class="cls-30" d="M177.82,213.28c-.89,2.19-3,3.7-6.15,3.7-5.56,0-8.34-4.33-8.34-9.89s2.78-9.89,8.34-9.89c3.12,0,5.26,1.51,6.15,3.75V190h6.82v26.52h-6.82Zm0-6.32c0-2.69-1.48-4.46-3.75-4.46-2.69,0-3.87,1.9-3.87,4.59s1.18,4.63,3.87,4.63c2.27,0,3.75-1.77,3.75-4.5Z"/><path class="cls-30" d="M192.93,210.29c.25,1.56,1.52,2.44,3.58,2.44,1.51,0,2.31-.54,2.31-1.3s-.42-1.22-1.72-1.43l-2.78-.42c-4.55-.72-6.95-2.19-6.95-6s3.25-6.35,8.51-6.35c5.43,0,8.63,2.4,9,6.31l-5.6.17c-.25-1.35-1.43-2.19-3.54-2.19-1.3,0-2.06.51-2.06,1.35,0,.63.5,1,1.14,1l3.66.63c4.21.68,6.65,2.57,6.65,6.23,0,4-3.37,6.23-8.72,6.23-5.17,0-9-2.06-9.43-6.6Z"/><path class="cls-30" d="M207.54,209.24h7.24v7.24h-7.24Z"/></g><g class="cls-31"><g class="cls-34"><line class="cls-35" x1="759.38" y1="-212.13" x2="179.46" y2="319.27"/><line class="cls-35" x1="698.91" y1="-278.12" x2="118.99" y2="253.27"/><line class="cls-35" x1="819.85" y1="-146.13" x2="239.94" y2="385.26"/><line class="cls-35" x1="668.67" y1="-311.12" x2="88.76" y2="220.28"/><line class="cls-35" x1="789.61" y1="-179.13" x2="209.7" y2="352.26"/><line class="cls-35" x1="729.14" y1="-245.12" x2="149.23" y2="286.27"/><line class="cls-35" x1="850.08" y1="-113.14" x2="270.17" y2="418.25"/><line class="cls-35" x1="774.5" y1="-195.63" x2="194.58" y2="335.76"/><line class="cls-35" x1="714.02" y1="-261.62" x2="134.11" y2="269.77"/><line class="cls-35" x1="834.97" y1="-129.64" x2="255.05" y2="401.76"/><line class="cls-35" x1="683.79" y1="-294.62" x2="103.87" y2="236.77"/><line class="cls-35" x1="804.73" y1="-162.63" x2="224.82" y2="368.76"/><line class="cls-35" x1="744.26" y1="-228.63" x2="164.35" y2="302.77"/><line class="cls-35" x1="865.2" y1="-96.64" x2="285.29" y2="434.75"/><line class="cls-35" x1="766.94" y1="-203.88" x2="187.02" y2="327.51"/><line class="cls-35" x1="706.47" y1="-269.87" x2="126.55" y2="261.52"/><line class="cls-35" x1="827.41" y1="-137.89" x2="247.49" y2="393.51"/><line class="cls-35" x1="676.23" y1="-302.87" x2="96.32" y2="228.53"/><line class="cls-35" x1="797.17" y1="-170.88" x2="217.26" y2="360.51"/><line class="cls-35" x1="736.7" y1="-236.88" x2="156.79" y2="294.52"/><line class="cls-35" x1="857.64" y1="-104.89" x2="277.73" y2="426.5"/><line class="cls-35" x1="782.05" y1="-187.38" x2="202.14" y2="344.01"/><line class="cls-35" x1="721.58" y1="-253.37" x2="141.67" y2="278.02"/><line class="cls-35" x1="880.32" y1="-80.14" x2="300.41" y2="451.25"/><line class="cls-35" x1="842.53" y1="-121.39" x2="262.61" y2="410.01"/><line class="cls-35" x1="691.35" y1="-286.37" x2="111.43" y2="245.02"/><line class="cls-35" x1="812.29" y1="-154.38" x2="232.38" y2="377.01"/><line class="cls-35" x1="751.82" y1="-220.38" x2="171.9" y2="311.02"/><line class="cls-35" x1="872.76" y1="-88.39" x2="292.85" y2="443"/></g></g></svg>