<svg id="Layer_1" data-name="Layer 1" xmlns="http://www.w3.org/2000/svg" xmlns:xlink="http://www.w3.org/1999/xlink" viewBox="0 0 300 600"><defs><style>.cls-1,.cls-35{fill:none;}.cls-2{clip-path:url(#clip-path);}.cls-3{clip-path:url(#clip-path-3);}.cls-4{clip-path:url(#clip-path-4);}.cls-5{clip-path:url(#clip-path-5);}.cls-6{clip-path:url(#clip-path-7);}.cls-7{clip-path:url(#clip-path-8);}.cls-8{clip-path:url(#clip-path-9);}.cls-9{clip-path:url(#clip-path-11);}.cls-10{clip-path:url(#clip-path-12);}.cls-11{clip-path:url(#clip-path-13);}.cls-12{clip-path:url(#clip-path-15);}.cls-13{clip-path:url(#clip-path-16);}.cls-14{clip-path:url(#clip-path-17);}.cls-15{clip-path:url(#clip-path-19);}.cls-16{clip-path:url(#clip-path-20);}.cls-17{clip-path:url(#clip-path-21);}.cls-18{clip-path:url(#clip-path-23);}.cls-19{clip-path:url(#clip-path-24);}.cls-20{clip-path:url(#clip-path-25);}.cls-21{clip-path:url(#clip-path-27);}.cls-22{clip-path:url(#clip-path-28);}.cls-23{clip-path:url(#clip-path-29);}.cls-24{clip-path:url(#clip-path-31);}.cls-25{clip-path:url(#clip-path-32);}.cls-26{clip-path:url(#clip-path-33);}.cls-27{clip-path:url(#clip-path-35);}.cls-28{clip-path:url(#clip-path-36);}.cls-29{clip-path:url(#clip-path-37);}.cls-30{fill:#221e1f;}.cls-31{clip-path:url(#clip-path-38);}.cls-32{clip-path:url(#clip-path-39);}.cls-33{clip-path:url(#clip-path-40);}.cls-34{clip-path:url(#clip-path-41);}.cls-35{stroke:#221e1f;stroke-width:4.14px;}.cls-36{clip-path:url(#clip-path-42);}.cls-37{clip-path:url(#clip-path-43);}.cls-38{clip-path:url(#clip-path-44);}</style><clipPath id="clip-path"><rect class="cls-1" x="-2880" width="300" height="600"/></clipPath><clipPath id="clip-path-3"><rect class="cls-1" x="-2799.15" y="364.8" width="138.3" height="137.47"/></clipPath><clipPath id="clip-path-4"><rect class="cls-1" x="-35648" y="-32167" width="65535" height="65535"/></clipPath><clipPath id="clip-path-5"><rect class="cls-1" x="-2560" width="300" height="600"/></clipPath><clipPath id="clip-path-7"><rect class="cls-1" x="-2479.15" y="364.8" width="138.3" height="137.47"/></clipPath><clipPath id="clip-path-8"><rect class="cls-1" x="-35328" y="-32167" width="65535" height="65535"/></clipPath><clipPath id="clip-path-9"><rect class="cls-1" x="-2240" width="300" height="600"/></clipPath><clipPath id="clip-path-11"><rect class="cls-1" x="-2159.15" y="364.8" width="138.3" height="137.47"/></clipPath><clipPath id="clip-path-12"><rect class="cls-1" x="-35008" y="-32167" width="65535" height="65535"/></clipPath><clipPath id="clip-path-13"><rect class="cls-1" x="-1920" width="300" height="600"/></clipPath><clipPath id="clip-path-15"><rect class="cls-1" x="-1839.15" y="364.8" width="138.3" height="137.47"/></clipPath><clipPath id="clip-path-16"><rect class="cls-1" x="-34688" y="-32167" width="65535" height="65535"/></clipPath><clipPath id="clip-path-17"><rect class="cls-1" x="-1600" width="300" height="600"/></clipPath><clipPath id="clip-path-19"><rect class="cls-1" x="-1519.15" y="364.8" width="138.3" height="137.47"/></clipPath><clipPath id="clip-path-20"><rect class="cls-1" x="-34368" y="-32167" width="65535" height="65535"/></clipPath><clipPath id="clip-path-21"><rect class="cls-1" x="-1280" width="300" height="600"/></clipPath><clipPath id="clip-path-23"><rect class="cls-1" x="-1199.15" y="364.8" width="138.3" height="137.47"/></clipPath><clipPath id="clip-path-24"><rect class="cls-1" x="-34048" y="-32167" width="65535" height="65535"/></clipPath><clipPath id="clip-path-25"><rect class="cls-1" x="-960" width="300" height="600"/></clipPath><clipPath id="clip-path-27"><rect class="cls-1" x="-879.15" y="364.8" width="138.3" height="137.47"/></clipPath><clipPath id="clip-path-28"><rect class="cls-1" x="-33728" y="-32167" width="65535" height="65535"/></clipPath><clipPath id="clip-path-29"><rect class="cls-1" x="-640" width="300" height="600"/></clipPath><clipPath id="clip-path-31"><rect class="cls-1" x="-559.15" y="364.8" width="138.3" height="137.47"/></clipPath><clipPath id="clip-path-32"><rect class="cls-1" x="-33408" y="-32167" width="65535" height="65535"/></clipPath><clipPath id="clip-path-33"><rect class="cls-1" x="-320" width="300" height="600"/></clipPath><clipPath id="clip-path-35"><rect class="cls-1" x="-239.15" y="364.8" width="138.3" height="137.47"/></clipPath><clipPath id="clip-path-36"><rect class="cls-1" x="-33088" y="-32167" width="65535" height="65535"/></clipPath><clipPath id="clip-path-37"><rect class="cls-1" width="300" height="600"/></clipPath><clipPath id="clip-path-38"><rect class="cls-1" x="320" width="300" height="600"/></clipPath><clipPath id="clip-path-39"><rect class="cls-1" x="400.85" y="364.8" width="138.3" height="137.47"/></clipPath><clipPath id="clip-path-40"><rect class="cls-1" x="-32448" y="-32167" width="65535" height="65535"/></clipPath><clipPath id="clip-path-41"><rect class="cls-1" x="384.37" y="28.79" width="171.25" height="216.95" rx="39.1"/></clipPath><clipPath id="clip-path-42"><rect class="cls-1" x="640" width="300" height="600"/></clipPath><clipPath id="clip-path-43"><rect class="cls-1" x="720.85" y="364.8" width="138.3" height="137.47"/></clipPath><clipPath id="clip-path-44"><rect class="cls-1" x="-32128" y="-32167" width="65535" height="65535"/></clipPath></defs><g class="cls-29"><path class="cls-30" d="M46.3,111.58v-4.71H49v-.8c0-4.89,3-7.45,7.54-7.45,3.54,0,6,1.76,6.74,4.88l-4.17,1.3a1.92,1.92,0,0,0-1.81-1.3c-1.14,0-1.56.92-1.56,2.1v1.27h4.76v4.71H55.73v14.06H49V111.58Z"/><path class="cls-30" d="M71.26,126.15c-6.14,0-10.27-4-10.27-9.9s4.13-9.89,10.27-9.89,10.28,4.09,10.28,9.89S77.37,126.15,71.26,126.15Zm0-5.14c2.36,0,3.41-1.93,3.41-4.76s-1-4.75-3.41-4.75-3.41,1.93-3.41,4.75S68.87,121,71.26,121Z"/><path class="cls-30" d="M98.38,113.52a6.08,6.08,0,0,0-3.25-.8c-2.52,0-4.08,1.18-4.08,4.33v8.59H84.23V106.87h6.82v3.32a5.46,5.46,0,0,1,5.14-3.83,4.52,4.52,0,0,1,2.61.72Z"/><path class="cls-30" d="M128.18,119.71v5.93H107.64v-5.13l7.32-5.77c4-3.24,5.39-4.63,5.39-7.16a2.58,2.58,0,0,0-2.86-2.9c-2.19,0-3,1.68-3,3.83a7,7,0,0,0,.29,2.19l-7-.21a13.85,13.85,0,0,1-.33-2.49c0-5.68,4.21-9.38,10.31-9.38,6.44,0,10.11,3.62,10.11,8.54,0,4.59-2.36,6.74-6.61,10L118,119.71Z"/><path class="cls-30" d="M144.81,132.38H138V106.87h6.82v3.24c.93-2.23,3-3.75,6.19-3.75,5.51,0,8.33,4.38,8.33,9.89s-2.82,9.9-8.33,9.9c-3.16,0-5.26-1.52-6.19-3.71Zm0-16c0,2.74,1.47,4.51,3.79,4.51,2.65,0,3.87-1.9,3.87-4.64s-1.22-4.58-3.87-4.58c-2.32,0-3.79,1.76-3.79,4.46Z"/><path class="cls-30" d="M162,99.12h6.9v6H162Zm6.86,7.75v18.77H162V106.87Z"/><path class="cls-30" d="M172,111.79v-4.92h16.47v4.63L180,120.72h8.68v4.92H171.8V121l8.33-9.18Z"/><path class="cls-30" d="M191,111.79v-4.92h16.47v4.63L199,120.72h8.68v4.92H190.83V121l8.33-9.18Z"/><path class="cls-30" d="M228.17,120.13c0,1,.42,1.39,1.13,1.39a3.92,3.92,0,0,0,1.52-.3v3.62a7.16,7.16,0,0,1-4.25,1.22,4.63,4.63,0,0,1-4.76-3.32c-1.09,2.19-3.24,3.32-6.23,3.32-3.66,0-6.06-1.89-6.06-5.09,0-3.62,2.61-5.18,6.69-5.89l5.26-.89v-.29c0-1.56-.71-2.49-2.35-2.49a2.53,2.53,0,0,0-2.57,2.36l-6.32-.42c.59-4.13,3.67-7,9.31-7,5,0,8.63,2.15,8.63,7.37Zm-6.7-2.61-2.77.5c-1.65.34-2.62.84-2.62,2.07,0,1,.76,1.6,1.9,1.6,1.94,0,3.49-1.44,3.49-3.88Z"/><path class="cls-30" d="M237.39,119.45c.25,1.56,1.51,2.45,3.58,2.45,1.51,0,2.31-.55,2.31-1.31s-.42-1.22-1.72-1.43l-2.78-.42c-4.55-.72-6.95-2.19-6.95-6s3.24-6.36,8.5-6.36c5.44,0,8.63,2.4,9,6.32l-5.6.16c-.25-1.34-1.43-2.18-3.53-2.18-1.31,0-2.06.5-2.06,1.34,0,.63.5,1,1.13,1l3.66.64c4.21.67,6.66,2.56,6.66,6.23,0,4-3.37,6.23-8.72,6.23-5.18,0-9-2.07-9.43-6.61Z"/></g><g class="cls-31"><g class="cls-34"><line class="cls-35" x1="759.38" y1="-212.13" x2="179.46" y2="319.27"/><line class="cls-35" x1="698.91" y1="-278.12" x2="118.99" y2="253.27"/><line class="cls-35" x1="819.85" y1="-146.13" x2="239.94" y2="385.26"/><line class="cls-35" x1="668.67" y1="-311.12" x2="88.76" y2="220.28"/><line class="cls-35" x1="789.61" y1="-179.13" x2="209.7" y2="352.26"/><line class="cls-35" x1="729.14" y1="-245.12" x2="149.23" y2="286.27"/><line class="cls-35" x1="850.08" y1="-113.14" x2="270.17" y2="418.25"/><line class="cls-35" x1="774.5" y1="-195.63" x2="194.58" y2="335.76"/><line class="cls-35" x1="714.02" y1="-261.62" x2="134.11" y2="269.77"/><line class="cls-35" x1="834.97" y1="-129.64" x2="255.05" y2="401.76"/><line class="cls-35" x1="683.79" y1="-294.62" x2="103.87" y2="236.77"/><line class="cls-35" x1="804.73" y1="-162.63" x2="224.82" y2="368.76"/><line class="cls-35" x1="744.26" y1="-228.63" x2="164.35" y2="302.77"/><line class="cls-35" x1="865.2" y1="-96.64" x2="285.29" y2="434.75"/><line class="cls-35" x1="766.94" y1="-203.88" x2="187.02" y2="327.51"/><line class="cls-35" x1="706.47" y1="-269.87" x2="126.55" y2="261.52"/><line class="cls-35" x1="827.41" y1="-137.89" x2="247.49" y2="393.51"/><line class="cls-35" x1="676.23" y1="-302.87" x2="96.32" y2="228.53"/><line class="cls-35" x1="797.17" y1="-170.88" x2="217.26" y2="360.51"/><line class="cls-35" x1="736.7" y1="-236.88" x2="156.79" y2="294.52"/><line class="cls-35" x1="857.64" y1="-104.89" x2="277.73" y2="426.5"/><line class="cls-35" x1="782.05" y1="-187.38" x2="202.14" y2="344.01"/><line class="cls-35" x1="721.58" y1="-253.37" x2="141.67" y2="278.02"/><line class="cls-35" x1="880.32" y1="-80.14" x2="300.41" y2="451.25"/><line class="cls-35" x1="842.53" y1="-121.39" x2="262.61" y2="410.01"/><line class="cls-35" x1="691.35" y1="-286.37" x2="111.43" y2="245.02"/><line class="cls-35" x1="812.29" y1="-154.38" x2="232.38" y2="377.01"/><line class="cls-35" x1="751.82" y1="-220.38" x2="171.9" y2="311.02"/><line class="cls-35" x1="872.76" y1="-88.39" x2="292.85" y2="443"/></g></g></svg>