<svg id="Layer_1" data-name="Layer 1" xmlns="http://www.w3.org/2000/svg" xmlns:xlink="http://www.w3.org/1999/xlink" viewBox="0 0 300 600"><defs><style>.cls-1,.cls-35{fill:none;}.cls-2{clip-path:url(#clip-path);}.cls-3{clip-path:url(#clip-path-3);}.cls-4{clip-path:url(#clip-path-4);}.cls-5{clip-path:url(#clip-path-5);}.cls-6{clip-path:url(#clip-path-7);}.cls-7{clip-path:url(#clip-path-8);}.cls-8{clip-path:url(#clip-path-9);}.cls-9{clip-path:url(#clip-path-11);}.cls-10{clip-path:url(#clip-path-12);}.cls-11{clip-path:url(#clip-path-13);}.cls-12{clip-path:url(#clip-path-15);}.cls-13{clip-path:url(#clip-path-16);}.cls-14{clip-path:url(#clip-path-17);}.cls-15{clip-path:url(#clip-path-19);}.cls-16{clip-path:url(#clip-path-20);}.cls-17{clip-path:url(#clip-path-21);}.cls-18{clip-path:url(#clip-path-23);}.cls-19{clip-path:url(#clip-path-24);}.cls-20{clip-path:url(#clip-path-25);}.cls-21{clip-path:url(#clip-path-27);}.cls-22{clip-path:url(#clip-path-28);}.cls-23{clip-path:url(#clip-path-29);}.cls-24{clip-path:url(#clip-path-31);}.cls-25{clip-path:url(#clip-path-32);}.cls-26{clip-path:url(#clip-path-33);}.cls-27{clip-path:url(#clip-path-35);}.cls-28{clip-path:url(#clip-path-36);}.cls-29{clip-path:url(#clip-path-37);}.cls-30{fill:#221e1f;}.cls-31{clip-path:url(#clip-path-38);}.cls-32{clip-path:url(#clip-path-39);}.cls-33{clip-path:url(#clip-path-40);}.cls-34{clip-path:url(#clip-path-41);}.cls-35{stroke:#221e1f;stroke-width:4.14px;}.cls-36{clip-path:url(#clip-path-42);}.cls-37{clip-path:url(#clip-path-43);}.cls-38{clip-path:url(#clip-path-44);}</style><clipPath id="clip-path"><rect class="cls-1" x="-2880" width="300" height="600"/></clipPath><clipPath id="clip-path-3"><rect class="cls-1" x="-2799.15" y="364.8" width="138.3" height="137.47"/></clipPath><clipPath id="clip-path-4"><rect class="cls-1" x="-35648" y="-32167" width="65535" height="65535"/></clipPath><clipPath id="clip-path-5"><rect class="cls-1" x="-2560" width="300" height="600"/></clipPath><clipPath id="clip-path-7"><rect class="cls-1" x="-2479.15" y="364.8" width="138.3" height="137.47"/></clipPath><clipPath id="clip-path-8"><rect class="cls-1" x="-35328" y="-32167" width="65535" height="65535"/></clipPath><clipPath id="clip-path-9"><rect class="cls-1" x="-2240" width="300" height="600"/></clipPath><clipPath id="clip-path-11"><rect class="cls-1" x="-2159.15" y="364.8" width="138.3" height="137.47"/></clipPath><clipPath id="clip-path-12"><rect class="cls-1" x="-35008" y="-32167" width="65535" height="65535"/></clipPath><clipPath id="clip-path-13"><rect class="cls-1" x="-1920" width="300" height="600"/></clipPath><clipPath id="clip-path-15"><rect class="cls-1" x="-1839.15" y="364.8" width="138.3" height="137.47"/></clipPath><clipPath id="clip-path-16"><rect class="cls-1" x="-34688" y="-32167" width="65535" height="65535"/></clipPath><clipPath id="clip-path-17"><rect class="cls-1" x="-1600" width="300" height="600"/></clipPath><clipPath id="clip-path-19"><rect class="cls-1" x="-1519.15" y="364.8" width="138.3" height="137.47"/></clipPath><clipPath id="clip-path-20"><rect class="cls-1" x="-34368" y="-32167" width="65535" height="65535"/></clipPath><clipPath id="clip-path-21"><rect class="cls-1" x="-1280" width="300" height="600"/></clipPath><clipPath id="clip-path-23"><rect class="cls-1" x="-1199.15" y="364.8" width="138.3" height="137.47"/></clipPath><clipPath id="clip-path-24"><rect class="cls-1" x="-34048" y="-32167" width="65535" height="65535"/></clipPath><clipPath id="clip-path-25"><rect class="cls-1" x="-960" width="300" height="600"/></clipPath><clipPath id="clip-path-27"><rect class="cls-1" x="-879.15" y="364.8" width="138.3" height="137.47"/></clipPath><clipPath id="clip-path-28"><rect class="cls-1" x="-33728" y="-32167" width="65535" height="65535"/></clipPath><clipPath id="clip-path-29"><rect class="cls-1" x="-640" width="300" height="600"/></clipPath><clipPath id="clip-path-31"><rect class="cls-1" x="-559.15" y="364.8" width="138.3" height="137.47"/></clipPath><clipPath id="clip-path-32"><rect class="cls-1" x="-33408" y="-32167" width="65535" height="65535"/></clipPath><clipPath id="clip-path-33"><rect class="cls-1" x="-320" width="300" height="600"/></clipPath><clipPath id="clip-path-35"><rect class="cls-1" x="-239.15" y="364.8" width="138.3" height="137.47"/></clipPath><clipPath id="clip-path-36"><rect class="cls-1" x="-33088" y="-32167" width="65535" height="65535"/></clipPath><clipPath id="clip-path-37"><rect class="cls-1" width="300" height="600"/></clipPath><clipPath id="clip-path-38"><rect class="cls-1" x="320" width="300" height="600"/></clipPath><clipPath id="clip-path-39"><rect class="cls-1" x="400.85" y="364.8" width="138.3" height="137.47"/></clipPath><clipPath id="clip-path-40"><rect class="cls-1" x="-32448" y="-32167" width="65535" height="65535"/></clipPath><clipPath id="clip-path-41"><rect class="cls-1" x="384.37" y="28.79" width="171.25" height="216.95" rx="39.1"/></clipPath><clipPath id="clip-path-42"><rect class="cls-1" x="640" width="300" height="600"/></clipPath><clipPath id="clip-path-43"><rect class="cls-1" x="720.85" y="364.8" width="138.3" height="137.47"/></clipPath><clipPath id="clip-path-44"><rect class="cls-1" x="-32128" y="-32167" width="65535" height="65535"/></clipPath></defs><g class="cls-29"><path class="cls-30" d="M53.5,171.06H48.24V144.54h6.82v11c.92-2.24,3-3.75,6.19-3.75,5.51,0,8.33,4.38,8.33,9.89s-2.82,9.9-8.46,9.9a6.8,6.8,0,0,1-6.44-3.75Zm1.56-9.26c0,2.74,1.47,4.5,3.78,4.5,2.66,0,3.88-1.89,3.88-4.63s-1.22-4.59-3.88-4.59c-2.31,0-3.78,1.77-3.78,4.47Z"/><path class="cls-30" d="M91.05,164.87c-1,4.3-4.42,6.7-9.39,6.7-6,0-10.31-3.62-10.31-9.6a9.9,9.9,0,0,1,10.23-10.19c6.27,0,9.6,4.29,9.6,9.39v1.89H78c.17,2.32,1.85,3.41,3.92,3.41,1.85,0,3-.63,3.66-2.1Zm-6.36-5.09a3.07,3.07,0,0,0-3.19-3.12,3.23,3.23,0,0,0-3.42,3.12Z"/><path class="cls-30" d="M94.63,157H92.1v-4.21l1.39-.21c1.9-.3,2.49-1.31,3-3l.63-2.44h4.3v5.17h4.88V157h-4.88v6.86c0,1.6.75,2.23,2.14,2.23a7.65,7.65,0,0,0,2.91-.63v4.42a8.86,8.86,0,0,1-5.64,1.69c-3.16,0-6.15-1.31-6.15-5.73Z"/><path class="cls-30" d="M128.31,162.94h.17l3.36-10.66H138l-5.94,18.78h-6.69l-2.74-10.61h-.16l-2.74,10.61H113l-5.94-18.78h6.78l3.37,10.66h.16l2.74-10.66h5.43Z"/><path class="cls-30" d="M158.28,164.87c-1,4.3-4.42,6.7-9.39,6.7-6,0-10.31-3.62-10.31-9.6a9.9,9.9,0,0,1,10.23-10.19c6.27,0,9.6,4.29,9.6,9.39v1.89H145.23c.17,2.32,1.85,3.41,3.92,3.41,1.85,0,3-.63,3.66-2.1Zm-6.35-5.09a3.08,3.08,0,0,0-3.2-3.12,3.21,3.21,0,0,0-3.41,3.12Z"/><path class="cls-30" d="M180.05,164.87c-1,4.3-4.42,6.7-9.39,6.7-6,0-10.32-3.62-10.32-9.6a9.9,9.9,0,0,1,10.24-10.19c6.27,0,9.59,4.29,9.59,9.39v1.89H167c.17,2.32,1.85,3.41,3.91,3.41,1.85,0,3-.63,3.66-2.1Zm-6.36-5.09a3.08,3.08,0,0,0-3.2-3.12,3.21,3.21,0,0,0-3.41,3.12Z"/><path class="cls-30" d="M189.77,171.06H183V152.28h6.82v2.83a6.42,6.42,0,0,1,6.06-3.33c5.14,0,6.78,3.58,6.78,7.49v11.79h-6.82v-10c0-2.57-.71-3.91-2.78-3.91-2.31,0-3.24,1.85-3.24,4.67Z"/></g><g class="cls-31"><g class="cls-34"><line class="cls-35" x1="759.38" y1="-212.13" x2="179.46" y2="319.27"/><line class="cls-35" x1="698.91" y1="-278.12" x2="118.99" y2="253.27"/><line class="cls-35" x1="819.85" y1="-146.13" x2="239.94" y2="385.26"/><line class="cls-35" x1="668.67" y1="-311.12" x2="88.76" y2="220.28"/><line class="cls-35" x1="789.61" y1="-179.13" x2="209.7" y2="352.26"/><line class="cls-35" x1="729.14" y1="-245.12" x2="149.23" y2="286.27"/><line class="cls-35" x1="850.08" y1="-113.14" x2="270.17" y2="418.25"/><line class="cls-35" x1="774.5" y1="-195.63" x2="194.58" y2="335.76"/><line class="cls-35" x1="714.02" y1="-261.62" x2="134.11" y2="269.77"/><line class="cls-35" x1="834.97" y1="-129.64" x2="255.05" y2="401.76"/><line class="cls-35" x1="683.79" y1="-294.62" x2="103.87" y2="236.77"/><line class="cls-35" x1="804.73" y1="-162.63" x2="224.82" y2="368.76"/><line class="cls-35" x1="744.26" y1="-228.63" x2="164.35" y2="302.77"/><line class="cls-35" x1="865.2" y1="-96.64" x2="285.29" y2="434.75"/><line class="cls-35" x1="766.94" y1="-203.88" x2="187.02" y2="327.51"/><line class="cls-35" x1="706.47" y1="-269.87" x2="126.55" y2="261.52"/><line class="cls-35" x1="827.41" y1="-137.89" x2="247.49" y2="393.51"/><line class="cls-35" x1="676.23" y1="-302.87" x2="96.32" y2="228.53"/><line class="cls-35" x1="797.17" y1="-170.88" x2="217.26" y2="360.51"/><line class="cls-35" x1="736.7" y1="-236.88" x2="156.79" y2="294.52"/><line class="cls-35" x1="857.64" y1="-104.89" x2="277.73" y2="426.5"/><line class="cls-35" x1="782.05" y1="-187.38" x2="202.14" y2="344.01"/><line class="cls-35" x1="721.58" y1="-253.37" x2="141.67" y2="278.02"/><line class="cls-35" x1="880.32" y1="-80.14" x2="300.41" y2="451.25"/><line class="cls-35" x1="842.53" y1="-121.39" x2="262.61" y2="410.01"/><line class="cls-35" x1="691.35" y1="-286.37" x2="111.43" y2="245.02"/><line class="cls-35" x1="812.29" y1="-154.38" x2="232.38" y2="377.01"/><line class="cls-35" x1="751.82" y1="-220.38" x2="171.9" y2="311.02"/><line class="cls-35" x1="872.76" y1="-88.39" x2="292.85" y2="443"/></g></g></svg>