<svg xmlns="http://www.w3.org/2000/svg" viewBox="0 0 94.23 36"><defs><style>.cls-1{fill:#64656b;}.cls-2{fill:#9a8479;}.cls-3{fill:#a5714e;}</style></defs><title>logo-468_1</title><g id="Layer_2" data-name="Layer 2"><g id="Layer_1-2" data-name="Layer 1"><path class="cls-1" d="M37,33.68H35.72l-.39,1h-.19l1.36-3.32,1.36,3.32h-.5Zm-1.18-.18H36.9l-.56-1.35Z"/><path class="cls-1" d="M41.6,31.58h-1v3.05h-.47V31.58h-1V31.4H41.6Z"/><path class="cls-1" d="M48.4,31.58h-1v3.05h-.48V31.58H46V31.4H48.4Z"/><path class="cls-1" d="M53,34.63h-.48V33.07H50.8v1.56h-.47V31.4h.47v1.49h1.74V31.4H53Z"/><path class="cls-1" d="M55.53,31.58v1.31h1.18v.18H55.53v1.38h1.41v.18H55.05V31.4h1.89v.18Z"/><path class="cls-1" d="M61.91,33.2v1.43h-.48V31.4h.87c.65,0,1.18.26,1.18.9s-.53.9-1.18.9Zm0-.18h.28c.56,0,.79-.24.79-.72s-.23-.72-.79-.72h-.28Z"/><path class="cls-1" d="M66.6,33.68H65.35l-.39,1h-.19l1.36-3.32,1.36,3.32H67Zm-1.18-.18h1.1L66,32.15Z"/><path class="cls-1" d="M70,33.2l1.71,1.43h-.27l-1.57-1.31v1.31h-.48V31.4h.91c.64,0,1.18.26,1.18.9s-.54.9-1.18.9Zm.18-.18c.56,0,.79-.24.79-.72s-.23-.72-.79-.72h-.31V33Z"/><path class="cls-1" d="M74,33.27l1.45-1.87h.23l-.93,1.19,1.31,2h-.56l-1-1.65-.45.59v1.06h-.48V31.4H74Z"/><path class="cls-2" d="M62.33,21.59h0Z"/><path class="cls-2" d="M61.84,21.16h0l0,0Z"/><path class="cls-3" d="M94.15,17C92.94,8.35,82.69,2.22,70.09,3c-8.08.49-14.9,5.15-20.78,9l-.8.53-1.61,1-.95.59-.86.52c.25-.66.52-1.31.8-2,.63-1.4,1.06-2.11,1.31-2.11l.08.06a1.19,1.19,0,0,1,.14.84,8.62,8.62,0,0,1-.32,1.4l-.09.31c.56-.33,1.06-.65,1.55-1,.13-1,.06-2.27-1-2.58a1.11,1.11,0,0,0-.65,0,1.83,1.83,0,0,0-.32.14,2.28,2.28,0,0,0-.51.51,6.1,6.1,0,0,0-.71,1.11,20.41,20.41,0,0,0-.85,2.05c-.22.58-.43,1.22-.65,1.93a22.16,22.16,0,0,1-2,1c-2.06.88-5.5,1.28-7.57.41C28.5,14.37,25.66,4.67,18.93,1.25a12,12,0,0,0-9-.69A10.18,10.18,0,0,0,4.14,4.78C2.72,7,.76,11.5,3.69,16.3a13.38,13.38,0,0,0,2.38,3.19l.5.51A12.19,12.19,0,0,0,4,21.38,9.27,9.27,0,0,0,.22,27.12,7,7,0,0,0,13.6,31.35c1.26-3.52.17-5.88-2.5-8.82h0a1.14,1.14,0,0,0-.11-.11h0c-.67-.71-1.61-1.67-2.46-2.54a10,10,0,0,1,8.29,2,3.83,3.83,0,0,0-.68,1.26,3.91,3.91,0,0,0-.05,2.29,2.37,2.37,0,0,0,.3.69l.06.1.2.24.06.06h0a1.5,1.5,0,0,0,.51.35,2.81,2.81,0,0,0,3.48-1.3c.08-.14.15-.27.22-.42h0c.71.46,2.75,1.81,6.75-3.29-.19,1.23-.39,2.44-.6,3.62-.61,1.27-1.19,2.61-1.72,4a28.12,28.12,0,0,0-1.17,3.82c-.24,1.14-.22,1.87.08,2.18a.77.77,0,0,0,.55.22.55.55,0,0,0,.26,0c1.13-.7,2-3.4,3-9.9a.3.3,0,0,1,0-.1,13.49,13.49,0,0,1,2.07-3.59c1.09-1.17,3.36-1.42,3.16.48A2.78,2.78,0,0,1,30.3,24.9l-.33,0a.57.57,0,0,0-.35.18.43.43,0,0,0-.12.35.51.51,0,0,0,.17.36c.09.08,6.36,4.13,12.38-2.55-.27,1.4-.48,2.56-.51,2.92a.47.47,0,0,0,.34.53.46.46,0,0,0,.59-.18c.47-.69,2.33-3.09,3.85-3.33.61-.1.93.4,1.21.76.5.66,1.61,2.5,3.15,2.82,2.54.52,5.07-1.94,6.29-3.35a3.43,3.43,0,0,0,.3,2.61l.07.1a2.4,2.4,0,0,0,.63.6,2.94,2.94,0,0,0,3.91-1.28,4.78,4.78,0,0,0,.23-.45h0c.73.47,3.23,1.25,6.92-2.59a2.07,2.07,0,0,0,1.27.46,2.56,2.56,0,0,0,1.61-.43.42.42,0,0,1,.18-.06c.08,0,.11,0,.08.11s-2.3,3.45.22,4.37c1.54.56,3.29-.14,5.16-2a2.83,2.83,0,0,0,.24.94,2.05,2.05,0,0,0,1,1.08c1.25.53,2.83-.36,3.53-2a4,4,0,0,0,.24-.77v-.06a4.2,4.2,0,0,0,.87,1.23h0a5.91,5.91,0,0,0,7.3,1C93.18,24.69,94.61,20.4,94.15,17ZM25,34.79a33.83,33.83,0,0,1,2-6.68A15.73,15.73,0,0,1,25,34.79ZM8.54,22.11h0a18.59,18.59,0,0,1,3.22,4.78,5.28,5.28,0,0,1,.52,2.69,5.43,5.43,0,0,1-5.17,5,5.34,5.34,0,0,1-3.26-.93C.22,31.19.33,27.1,2.11,24.15A8.69,8.69,0,0,1,7,20.4C7.49,21,8.1,21.63,8.54,22.11ZM20.46,23a2.15,2.15,0,0,1-.36.89.93.93,0,0,1-.78-.73.92.92,0,0,1,.34-.89.5.5,0,0,1,.49,0A.65.65,0,0,1,20.46,23Zm21.78-.67c-3,4-7.23,4.78-10.27,3.5,0,0,2.66-.49,3-2.6.45-2.58-2.63-4.87-6.22-.62,0,.05-.08.07-.13.05s-.06-.05-.05-.11c.1-.59.18-1.16.26-1.69a.5.5,0,0,0-.2-.49.47.47,0,0,0-.52-.08.46.46,0,0,0-.3.41c-1.39,1.92-4,4.8-6.27,3.79l-.24-.14a3.21,3.21,0,0,0,0-2.46v0a1,1,0,0,0-.49-.42h0l-.14,0a1.54,1.54,0,0,0-1.75,2,1.56,1.56,0,0,0,.69,1c.15.12.25.19-.15.59-1,1.08-3.44.61-2.53-2,.73-2.09,2.5-1.46,2.6-1.73s-.12-.49-.53-.52a1.62,1.62,0,0,0-.66.08,2.88,2.88,0,0,0-1.16.66,10.3,10.3,0,0,0-9-2l-.37-.39-.52-.52A10.24,10.24,0,0,1,5.63,6.32a10.33,10.33,0,0,1,7.62-4.95C20.39.89,24.08,7.61,28,12.33c2,2.47,4.59,5.08,7.91,5.55,2.19.31,4.29,0,7.78-1.78-.06.2-.12.4-.17.61C43.23,17.59,42.68,20.11,42.24,22.35Zm19.38.4a2.31,2.31,0,0,1-.39.95,1,1,0,0,1-.66-.4.82.82,0,0,1-.22-.42.92.92,0,0,1,.35-.9.6.6,0,0,1,.58,0A.69.69,0,0,1,61.62,22.75Zm7.76-1.18a2.32,2.32,0,0,1,.15-1.39c.14-.21.28-.27.42-.19s.24.24.16.53A2.54,2.54,0,0,1,69.38,21.57ZM93,20.52c-.19,1.54-1,5.34-4.28,6.16a4.94,4.94,0,0,1-4.8-1.86,3.82,3.82,0,0,1-.9-2.08,2,2,0,0,0,0-.21.36.36,0,0,0-.33-.33c-.21,0-.33.1-.38.29A12.42,12.42,0,0,1,81.45,25a1.34,1.34,0,0,1-2.43.14c-.87-1.22.23-4.92,3.43-4.15.52.13.67.11.71,0,.07-.3-.08-.52-.64-.62a4.25,4.25,0,0,0-4.64,2.79,3.18,3.18,0,0,0-.17.4,4.16,4.16,0,0,0-.14.56v0c-1.69,2.5-4.14,2.86-5,1.4-.43-.72.23-2,.64-2.74a3.8,3.8,0,0,0,.23-.5,1,1,0,0,0,.06-.44.58.58,0,0,0-.22-.41.77.77,0,0,0-.45-.16,1.05,1.05,0,0,0-.38,0l-.38.2c-1.5,1.28-2.34,1-2.44.38,0,0,1.76-1.88.83-2.72-.26-.24-.6-.23-1,0a2.09,2.09,0,0,0-.77,1,2.44,2.44,0,0,0,.17,2c-1.6,1.56-3.92,3.09-6,2.15l-.26-.16a3.34,3.34,0,0,0,0-2.62v0a1.05,1.05,0,0,0-.52-.45h0l-.16,0a1.64,1.64,0,0,0-1.86,2.18,1.71,1.71,0,0,0,.73,1.06c.17.13.27.2-.15.64-1.12,1.14-3.68.72-2.63-2,.82-2.14,2.59-1.66,2.7-1.95s-.13-.55-.57-.55a3.44,3.44,0,0,0-2.78,2.29c-1.5,1.45-4,3.6-6.15,3.28a3.67,3.67,0,0,1-2-1.53C47.87,23,47.85,22,46.67,21.76c-2-.45-4,2.44-4,2.44s.31-1.12.49-2.09l.12-.17,0-.06.88-1.26c.26-.37,3-5,3.81-6.61-.59.36-1.13.67-1.65,1a18.36,18.36,0,0,1-2.92,5.3,12.21,12.21,0,0,1,.79-3.22c.16-.52.34-1,.52-1.54l.74-.4,1-.59c.54-.32,1.11-.65,1.71-1l.93-.56c1.59-1,3.39-2.14,5.45-3.49,3.57-2.35,12-7.88,23.4-5C94.21,8.55,93.11,19.6,93,20.52Z"/></g></g></svg>