<svg xmlns="http://www.w3.org/2000/svg" viewBox="0 0 79.17 16.51"><defs><style>.cls-1{fill:#a5714e;}</style></defs><title>t4-ch-468x60</title><g id="Layer_2" data-name="Layer 2"><g id="Layer_2-2" data-name="Layer 2"><path class="cls-1" d="M5.6,10.32a37.89,37.89,0,0,1,2.5,4.59l-1.2.66c-.2-.48-.49-1.13-.83-1.8C1.53,15.38.94,15.63.56,15.92A5.42,5.42,0,0,0,0,14.55a1.21,1.21,0,0,0,.76-1.14V1H7.62V9.4H2.09v4.43l3.44-1.12c-.36-.65-.74-1.29-1.06-1.85ZM2.09,2.16V4.5H6.3V2.16Zm4.21,6V5.71H2.09V8.19Zm8.86,3.17c0,.76-.16,1.14-.65,1.35A6.71,6.71,0,0,1,11.9,13a4.27,4.27,0,0,0-.39-1.28c.93,0,1.76,0,2,0s.35-.08.35-.33v-9H10.59V16.46H9.27V1.06h5.89Z"/><path class="cls-1" d="M24.73,0H26V16.46H24.73V10.17h-2v.44a12,12,0,0,1-1.3,5.88,3.29,3.29,0,0,0-1-.65,10.73,10.73,0,0,0,1.13-5.27v-.4h-1V9h4.12V6.34H21.37V.72h1.18V5.17h2.18ZM36.4,1.89C34.83,5.78,31.07,8,27.29,9.06a3.84,3.84,0,0,0-.67-1A14.66,14.66,0,0,0,32,5.56a13.52,13.52,0,0,0-2.26-2.41,16.87,16.87,0,0,1-2.65,1.5c-.2-.22-.6-.62-.83-.83A12.37,12.37,0,0,0,31.45,0l1.3.38a9,9,0,0,1-1,1.15h3.64l.23-.05Zm.59,8.5H34.67v4.3c0,.76-.16,1.14-.7,1.35a8.82,8.82,0,0,1-2.84.24A4.63,4.63,0,0,0,30.69,15c1.08,0,2.06,0,2.33,0s.37-.07.37-.33V10.39h-6.8V9.2h6.8V6.66h1.28V9.2H37ZM30.53,5.83c-1.31.2-2.56.36-3.65.53l-.24-1c1-.09,2.36-.27,3.82-.45Zm-1.62,5a13.82,13.82,0,0,1,2.38,2.88l-1.1.69a13.38,13.38,0,0,0-2.31-3Zm1.71-8.3,0,0a14.26,14.26,0,0,1,2.29,2.32,8.58,8.58,0,0,0,1.87-2.34Z"/><path class="cls-1" d="M57.66,3a25.42,25.42,0,0,1-2.74,2.18,12.48,12.48,0,0,0,3.39,2.09,5,5,0,0,0-.92,1.1,14,14,0,0,1-4.27-3.1v.92H46.68V5.31A15.66,15.66,0,0,1,42.25,8.5a5.31,5.31,0,0,0-.83-1,12.55,12.55,0,0,0,3.63-2.38,11.83,11.83,0,0,0-2.28-1.82l.72-.75a11.55,11.55,0,0,1,2.36,1.8,12.54,12.54,0,0,0,1.8-2.52h-4.9V.68h5.53l.25-.05.88.45A12.13,12.13,0,0,1,47,5h5.95a16.15,16.15,0,0,1-3-4.59L51.09.05a13,13,0,0,0,1.24,2.24A22.39,22.39,0,0,0,54.65.16l1,.72A26.63,26.63,0,0,1,52.94,3.1a15.3,15.3,0,0,0,1.21,1.36,22.54,22.54,0,0,0,2.5-2.17Zm-3.8,9.58c-.38.77-.83,1.62-1.21,2.3h5.12V16H42V14.85H47a9.81,9.81,0,0,0-1-2.23l1.2-.38a9.63,9.63,0,0,1,1.1,2.24l-1.11.37h4.16a17.05,17.05,0,0,0,1.31-2.64Zm1-.45H44.68V7.62H54.87ZM53.46,8.73H46V11h7.47Z"/><path class="cls-1" d="M68.42,10.57c-1.82.92-3.78,1.87-5.29,2.59l-.53-1.31c.69-.29,1.53-.65,2.45-1.06V5.15H63V3.89h2.1V.14h1.24V3.89h1.95V5.15H66.29v5.06l1.84-.83ZM71.77,8.5A11,11,0,0,1,71,9.76h7.75a4.64,4.64,0,0,1-.06.54c-.27,3.71-.55,5.11-1.06,5.63a1.42,1.42,0,0,1-1,.45c-.39,0-1.06,0-1.78,0a2.26,2.26,0,0,0-.31-1.08c.67.05,1.26.07,1.53.07s.42,0,.54-.2c.31-.32.58-1.46.81-4.28H76a12.5,12.5,0,0,1-3.67,5.63,3.87,3.87,0,0,0-1-.77,10.58,10.58,0,0,0,3.51-4.86H73.14a13.71,13.71,0,0,1-4.38,4.86,3.5,3.5,0,0,0-.88-.83,11.82,11.82,0,0,0,4.05-4H70.11a12.34,12.34,0,0,1-2.34,2,5.7,5.7,0,0,0-.92-.83,10.26,10.26,0,0,0,3.57-3.6H67.9V7.36H79.17V8.5Zm6.12-2.14H69.66V.54h8.23ZM76.65,1.55H70.89V3h5.76Zm0,2.36H70.89V5.35h5.76Z"/></g></g></svg>