<?xml version="1.0" encoding="utf-8"?>
<!-- Generator: Adobe Illustrator 24.2.3, SVG Export Plug-In . SVG Version: 6.00 Build 0)  -->
<svg version="1.1" id="Layer_1" xmlns="http://www.w3.org/2000/svg" xmlns:xlink="http://www.w3.org/1999/xlink" x="0px" y="0px"
	 viewBox="0 0 100 30" style="enable-background:new 0 0 100 30;" xml:space="preserve">
<style type="text/css">
	.st0{fill:#FFFFFF;}
	.st1{fill:#76ABA8;}
</style>
<rect class="st0" width="100" height="30"/>
<g>
	<path class="st1" d="M12.8,11.1h1.7v6.3h3.2V19h-5L12.8,11.1z"/>
	<path class="st1" d="M18.9,11.1h5.4v1.6h-3.6v1.5h3.4v1.6h-3.4v1.6h3.8V19h-5.6C18.9,19,18.9,11.1,18.9,11.1z"/>
	<path class="st1" d="M28.6,11.1H30l3.4,7.9h-2l-0.7-1.7h-3L27.1,19h-1.9L28.6,11.1z M29.2,13.4l-1,2.4h1.9L29.2,13.4z"/>
	<path class="st1" d="M34.3,11.1h3c1.6,0,3,0.6,3,2.4c0.1,1.1-0.6,2-1.7,2.2l2,3.3h-2.1l-1.7-3.1H36V19h-1.7V11.1z M36.1,14.4h1
		c0.6,0,1.5,0,1.5-0.9s-0.7-0.9-1.3-0.9h-1.1v1.8H36.1z"/>
	<path class="st1" d="M41.7,11.1H44l3.4,5.5l0,0v-5.5h1.7V19h-2.2l-3.5-5.6l0,0V19h-1.8L41.7,11.1L41.7,11.1z"/>
	<path class="st1" d="M54.3,11.1h2.6l1.8,5.1l0,0l1.8-5.1h2.7V19h-1.7v-6l0,0l-2.1,6H58l-2-6.1l0,0V19h-1.8L54.3,11.1L54.3,11.1z"/>
	<path class="st1" d="M68.7,10.9c2.2-0.1,4.1,1.5,4.2,3.7c0,0.1,0,0.3,0,0.4c-0.1,2.3-2.1,4.2-4.5,4c-2.2-0.1-3.9-1.9-4-4
		c-0.1-2.2,1.6-4.1,3.8-4.1C68.5,10.9,68.6,10.9,68.7,10.9z M68.7,17.6c1.3,0,2.4-1,2.5-2.3c0-0.1,0-0.2,0-0.2
		c0-1.4-1.1-2.5-2.5-2.5s-2.4,1.1-2.4,2.5l0,0c-0.1,1.3,0.9,2.4,2.2,2.5C68.6,17.6,68.7,17.6,68.7,17.6z"/>
	<path class="st1" d="M74.3,11.1h3c1.6,0,3,0.6,3,2.4c0.1,1.1-0.6,2-1.7,2.2l2,3.3h-2.1l-1.6-3.2H76V19h-1.7V11.1z M76,14.4h1
		c0.6,0,1.5,0,1.5-0.9s-0.7-0.9-1.3-0.9H76V14.4z"/>
	<path class="st1" d="M81.7,11.1H87v1.6h-3.6v1.5h3.5v1.6h-3.5v1.6h3.8V19h-5.6L81.7,11.1L81.7,11.1z"/>
</g>
</svg>
