<?xml version="1.0" encoding="utf-8"?>
<!-- Generator: Adobe Illustrator 24.2.3, SVG Export Plug-In . SVG Version: 6.00 Build 0)  -->
<svg version="1.1" id="Layer_3" xmlns="http://www.w3.org/2000/svg" xmlns:xlink="http://www.w3.org/1999/xlink" x="0px" y="0px"
	 viewBox="0 0 160 600" style="enable-background:new 0 0 160 600;" xml:space="preserve">
<style type="text/css">
	.st0{enable-background:new    ;}
	.st1{fill:#FFFFFF;}
</style>
<g class="st0">
	<path class="st1" d="M81.5,556.4l-3.4,3l-2-2.3l5.5-4.6h3.3v16.8h-3.4V556.4z"/>
	<path class="st1" d="M89.5,560.8c0-1,0.1-2,0.3-3c0.2-1,0.5-2,1-2.8c0.5-0.8,1.1-1.5,1.9-2c0.8-0.5,1.8-0.8,3.1-0.8
		c1.2,0,2.3,0.3,3.1,0.8c0.8,0.5,1.4,1.2,1.9,2c0.5,0.8,0.8,1.8,1,2.8c0.2,1,0.3,2,0.3,3s-0.1,2-0.3,3c-0.2,1-0.5,2-1,2.8
		c-0.5,0.8-1.1,1.5-1.9,2s-1.8,0.8-3.1,0.8c-1.2,0-2.3-0.3-3.1-0.8s-1.4-1.2-1.9-2c-0.5-0.8-0.8-1.8-1-2.8
		C89.6,562.8,89.5,561.8,89.5,560.8z M93.1,560.8c0,0.4,0,1,0.1,1.6c0,0.6,0.1,1.2,0.3,1.8c0.2,0.6,0.4,1,0.8,1.4
		c0.4,0.4,0.9,0.6,1.5,0.6c0.6,0,1.1-0.2,1.5-0.6c0.4-0.4,0.6-0.9,0.8-1.4c0.2-0.6,0.3-1.2,0.3-1.8c0-0.6,0.1-1.1,0.1-1.6
		s0-1-0.1-1.6s-0.1-1.2-0.3-1.8c-0.2-0.6-0.4-1-0.8-1.4c-0.4-0.4-0.9-0.6-1.5-0.6c-0.6,0-1.1,0.2-1.5,0.6c-0.4,0.4-0.6,0.9-0.8,1.4
		c-0.2,0.6-0.3,1.2-0.3,1.8C93.1,559.8,93.1,560.4,93.1,560.8z"/>
	<path class="st1" d="M103.5,560.8c0-1,0.1-2,0.3-3c0.2-1,0.5-2,1-2.8c0.5-0.8,1.1-1.5,1.9-2c0.8-0.5,1.8-0.8,3.1-0.8
		c1.2,0,2.3,0.3,3.1,0.8c0.8,0.5,1.4,1.2,1.9,2c0.5,0.8,0.8,1.8,1,2.8c0.2,1,0.3,2,0.3,3s-0.1,2-0.3,3c-0.2,1-0.5,2-1,2.8
		c-0.5,0.8-1.1,1.5-1.9,2s-1.8,0.8-3.1,0.8c-1.2,0-2.3-0.3-3.1-0.8s-1.4-1.2-1.9-2c-0.5-0.8-0.8-1.8-1-2.8
		C103.6,562.8,103.5,561.8,103.5,560.8z M107.1,560.8c0,0.4,0,1,0.1,1.6c0,0.6,0.1,1.2,0.3,1.8c0.2,0.6,0.4,1,0.8,1.4
		c0.4,0.4,0.9,0.6,1.5,0.6c0.6,0,1.1-0.2,1.5-0.6s0.6-0.9,0.8-1.4c0.2-0.6,0.3-1.2,0.3-1.8c0-0.6,0.1-1.1,0.1-1.6s0-1-0.1-1.6
		c0-0.6-0.1-1.2-0.3-1.8s-0.4-1-0.8-1.4c-0.4-0.4-0.9-0.6-1.5-0.6c-0.6,0-1.1,0.2-1.5,0.6c-0.4,0.4-0.6,0.9-0.8,1.4
		s-0.3,1.2-0.3,1.8C107.1,559.8,107.1,560.4,107.1,560.8z"/>
</g>
</svg>
