<svg id="Layer_1" data-name="Layer 1" xmlns="http://www.w3.org/2000/svg" xmlns:xlink="http://www.w3.org/1999/xlink" viewBox="0 0 728 90"><defs><style>.cls-1{fill:none;}.cls-2{clip-path:url(#clip-path);}.cls-3{clip-path:url(#clip-path-3);}.cls-4{clip-path:url(#clip-path-4);}.cls-5{clip-path:url(#clip-path-5);}.cls-6{fill:#221e1f;}.cls-7{fill:#fff;}.cls-8{clip-path:url(#clip-path-6);}.cls-9{clip-path:url(#clip-path-8);}.cls-10{clip-path:url(#clip-path-9);}.cls-11{clip-path:url(#clip-path-10);}.cls-12{clip-path:url(#clip-path-12);}.cls-13{clip-path:url(#clip-path-13);}.cls-14{clip-path:url(#clip-path-14);}.cls-15{clip-path:url(#clip-path-16);}.cls-16{clip-path:url(#clip-path-17);}</style><clipPath id="clip-path"><rect class="cls-1" x="-748" width="728" height="90"/></clipPath><clipPath id="clip-path-3"><rect class="cls-1" x="-313.01" y="30.56" width="59.44" height="59.08"/></clipPath><clipPath id="clip-path-4"><rect class="cls-1" x="-33516" y="-32677" width="65535" height="65535"/></clipPath><clipPath id="clip-path-5"><rect class="cls-1" width="728" height="90"/></clipPath><clipPath id="clip-path-6"><rect class="cls-1" x="748" width="728" height="90"/></clipPath><clipPath id="clip-path-8"><rect class="cls-1" x="1182.99" y="30.56" width="59.44" height="59.08"/></clipPath><clipPath id="clip-path-9"><rect class="cls-1" x="-32020" y="-32677" width="65535" height="65535"/></clipPath><clipPath id="clip-path-10"><rect class="cls-1" x="2244" width="728" height="90"/></clipPath><clipPath id="clip-path-12"><rect class="cls-1" x="2678.99" y="30.56" width="59.44" height="59.08"/></clipPath><clipPath id="clip-path-13"><rect class="cls-1" x="-30524" y="-32677" width="65535" height="65535"/></clipPath><clipPath id="clip-path-14"><rect class="cls-1" x="3740" width="728" height="90"/></clipPath><clipPath id="clip-path-16"><rect class="cls-1" x="4174.99" y="30.56" width="59.44" height="59.08"/></clipPath><clipPath id="clip-path-17"><rect class="cls-1" x="-29028" y="-32677" width="65535" height="65535"/></clipPath></defs><g class="cls-5"><path class="cls-6" d="M454.37,71.8v-.91a2.84,2.84,0,0,1-1.68-.69,2.06,2.06,0,0,1-.65-1.59l1.33,0a1.24,1.24,0,0,0,1,1.18V68.32l-.5-.08a1.74,1.74,0,0,1-1.67-1.77c0-1.14.84-1.88,2.17-2v-.78h.73v.79a2.13,2.13,0,0,1,2.14,2.18l-1.3,0a1.1,1.1,0,0,0-.84-1.06v1.4l.43.08c1.26.22,1.84.81,1.84,1.82a1.62,1.62,0,0,1-.65,1.38,2.8,2.8,0,0,1-1.62.54v.89Zm0-4.84V65.63c-.5.05-.78.29-.78.71S453.92,66.87,454.37,67Zm.73,1.49v1.34c.52-.05.86-.3.86-.7S455.62,68.53,455.1,68.45Z"/><path class="cls-6" d="M457.81,67V64.34h9.27v2.27a10.31,10.31,0,0,0-3,4.79,24.43,24.43,0,0,0-.57,5.29H460.3a16.26,16.26,0,0,1,.86-5.35A12.9,12.9,0,0,1,463.84,67Z"/><path class="cls-6" d="M476.44,66.94H471c0,.28-.05.63-.11,1.08s-.12.79-.18,1a3.41,3.41,0,0,1,2.33-.74,4.07,4.07,0,0,1,3.22,1.23,4.44,4.44,0,0,1,1.08,3A4,4,0,0,1,476,75.75a4.87,4.87,0,0,1-3.35,1.17c-3.19,0-4.94-1.78-4.84-4.58l2.86.21a2,2,0,1,0,2-2,2,2,0,0,0-1.8,1L468,71.3c.14-.85.32-1.94.49-3.34a34.53,34.53,0,0,0,.32-3.62h7.63Z"/><rect class="cls-7" x="435.38" y="40.35" width="58.67" height="16.55"/><path class="cls-6" d="M445,52.23a3.22,3.22,0,0,1-.3-1.44c-.06-.82-.43-1.08-1.15-1.08h-1.47v2.52h-1.72V45h3.51c1.88,0,2.8.89,2.8,2.27a1.77,1.77,0,0,1-1.57,1.86,1.46,1.46,0,0,1,1.29,1.45c.06.53.11.91.14,1.14a.94.94,0,0,0,.25.54Zm-1.41-3.87c.91,0,1.36-.28,1.36-1s-.45-1-1.36-1h-1.51v2Z"/><path class="cls-6" d="M453.23,52.23h-5.6V45h5.5v1.44h-3.78v1.43h2.94v1.42h-2.94v1.53h3.88Z"/><path class="cls-6" d="M459.2,51.92a3.86,3.86,0,0,1-1.82.45A3.77,3.77,0,1,1,460,45.88a3.58,3.58,0,0,1,1.08,2.72,3.73,3.73,0,0,1-.95,2.57l.62.73-1,.76Zm-1-1.19-.74-.86.94-.77.7.82a2.87,2.87,0,0,0,.27-1.32,2,2,0,1,0-3.89,0,2,2,0,0,0,1.93,2.26A2.22,2.22,0,0,0,458.17,50.73Z"/><path class="cls-6" d="M462.84,51.67a2.72,2.72,0,0,1-.93-2.3V45h1.74v4.15c0,1.15.42,1.78,1.48,1.78s1.49-.61,1.49-1.77V45h1.74v4.4a2.7,2.7,0,0,1-.94,2.3,3.67,3.67,0,0,1-2.29.7A3.71,3.71,0,0,1,462.84,51.67Z"/><path class="cls-6" d="M475.07,52.23h-5.6V45H475v1.44h-3.78v1.43h2.94v1.42h-2.94v1.53h3.88Z"/><path class="cls-6" d="M477.15,49.59c.06,1,.83,1.41,1.72,1.41s1.26-.31,1.26-.78-.43-.6-1.06-.73l-1.37-.24a2.09,2.09,0,0,1-2-2.1c0-1.43,1.13-2.32,2.89-2.32,2,0,3,1,3.08,2.59l-1.62,0a1.32,1.32,0,0,0-1.48-1.27c-.73,0-1.15.3-1.15.8s.34.56.85.67l1.37.24c1.47.26,2.16,1,2.16,2.19a1.89,1.89,0,0,1-.86,1.7,3.75,3.75,0,0,1-2.1.57,3.91,3.91,0,0,1-2.39-.7,2.38,2.38,0,0,1-.93-2Z"/><path class="cls-6" d="M484.65,52.23V46.41h-2.53V45H489v1.44h-2.56v5.82Z"/></g></svg>