<?xml version="1.0" encoding="UTF-8"?><svg id="PART_1" xmlns="http://www.w3.org/2000/svg" viewBox="0 0 848.75 154.47"><defs><style>.cls-1{fill:#fff;}</style></defs><path class="cls-1" d="M62.34,128.48h0c-13.95-1.27-29.16-12.89-34.23-27.26l-4.65,1.48c5.71,16.06,22.4,29.58,38.88,30.43v16.48c-30.01-.85-49.24-21.13-57.69-41.84l-4.65,1.48c9.3,22.19,29.58,44.38,62.34,45.01h0v-25.78Z"/><path class="cls-1" d="M622.53,88.61c1.32,0,2.38-1.07,2.38-2.38s-1.07-2.38-2.38-2.38-2.38,1.07-2.38,2.38,1.07,2.38,2.38,2.38Z"/><path class="cls-1" d="M610.19,88.61c1.32,0,2.38-1.07,2.38-2.38s-1.07-2.38-2.38-2.38-2.38,1.07-2.38,2.38,1.07,2.38,2.38,2.38Z"/><path class="cls-1" d="M616.36,88.61c1.32,0,2.38-1.07,2.38-2.38s-1.07-2.38-2.38-2.38-2.38,1.07-2.38,2.38,1.07,2.38,2.38,2.38Z"/><path class="cls-1" d="M604.03,88.61c1.32,0,2.38-1.07,2.38-2.38s-1.07-2.38-2.38-2.38-2.38,1.07-2.38,2.38,1.07,2.38,2.38,2.38Z"/><path class="cls-1" d="M597.86,88.61c1.32,0,2.38-1.07,2.38-2.38s-1.07-2.38-2.38-2.38-2.38,1.07-2.38,2.38,1.07,2.38,2.38,2.38Z"/><circle class="cls-1" cx="622.53" cy="80.03" r="2.38"/><circle class="cls-1" cx="610.19" cy="80.03" r="2.38"/><path class="cls-1" d="M616.36,82.41c1.32,0,2.38-1.07,2.38-2.38s-1.07-2.38-2.38-2.38-2.38,1.07-2.38,2.38,1.07,2.38,2.38,2.38Z"/><circle class="cls-1" cx="604.03" cy="80.03" r="2.38"/><circle class="cls-1" cx="597.86" cy="80.03" r="2.38"/><circle class="cls-1" cx="622.53" cy="73.83" r="2.38"/><circle class="cls-1" cx="610.19" cy="73.83" r="2.38"/><path class="cls-1" d="M616.36,76.21c1.32,0,2.38-1.07,2.38-2.38s-1.07-2.38-2.38-2.38-2.38,1.07-2.38,2.38,1.07,2.38,2.38,2.38Z"/><circle class="cls-1" cx="604.03" cy="73.83" r="2.38"/><circle class="cls-1" cx="597.86" cy="73.83" r="2.38"/><path class="cls-1" d="M622.53,70.02c1.32,0,2.38-1.07,2.38-2.38s-1.07-2.38-2.38-2.38-2.38,1.07-2.38,2.38,1.07,2.38,2.38,2.38Z"/><path class="cls-1" d="M610.19,70.02c1.32,0,2.38-1.07,2.38-2.38s-1.07-2.38-2.38-2.38-2.38,1.07-2.38,2.38,1.07,2.38,2.38,2.38Z"/><path class="cls-1" d="M616.36,70.02c1.32,0,2.38-1.07,2.38-2.38s-1.07-2.38-2.38-2.38-2.38,1.07-2.38,2.38,1.07,2.38,2.38,2.38Z"/><path class="cls-1" d="M604.03,70.02c1.32,0,2.38-1.07,2.38-2.38s-1.07-2.38-2.38-2.38-2.38,1.07-2.38,2.38,1.07,2.38,2.38,2.38Z"/><path class="cls-1" d="M597.86,70.02c1.32,0,2.38-1.07,2.38-2.38s-1.07-2.38-2.38-2.38-2.38,1.07-2.38,2.38,1.07,2.38,2.38,2.38Z"/><path class="cls-1" d="M622.53,63.82c1.32,0,2.38-1.07,2.38-2.38s-1.07-2.38-2.38-2.38-2.38,1.07-2.38,2.38,1.07,2.38,2.38,2.38Z"/><path class="cls-1" d="M610.19,63.82c1.32,0,2.38-1.07,2.38-2.38s-1.07-2.38-2.38-2.38-2.38,1.07-2.38,2.38,1.07,2.38,2.38,2.38Z"/><path class="cls-1" d="M616.36,63.82c1.32,0,2.38-1.07,2.38-2.38s-1.07-2.38-2.38-2.38-2.38,1.07-2.38,2.38,1.07,2.38,2.38,2.38Z"/><path class="cls-1" d="M604.03,63.82c1.32,0,2.38-1.07,2.38-2.38s-1.07-2.38-2.38-2.38-2.38,1.07-2.38,2.38,1.07,2.38,2.38,2.38Z"/><path class="cls-1" d="M597.86,63.82c1.32,0,2.38-1.07,2.38-2.38s-1.07-2.38-2.38-2.38-2.38,1.07-2.38,2.38,1.07,2.38,2.38,2.38Z"/><circle class="cls-1" cx="622.53" cy="55.24" r="2.38"/><circle class="cls-1" cx="610.19" cy="55.24" r="2.38"/><path class="cls-1" d="M616.36,57.62c1.32,0,2.38-1.07,2.38-2.38s-1.07-2.38-2.38-2.38-2.38,1.07-2.38,2.38,1.07,2.38,2.38,2.38Z"/><circle class="cls-1" cx="604.03" cy="55.24" r="2.38"/><circle class="cls-1" cx="597.86" cy="55.24" r="2.38"/><circle class="cls-1" cx="622.53" cy="49.04" r="2.38"/><circle class="cls-1" cx="610.19" cy="49.04" r="2.38"/><path class="cls-1" d="M616.36,51.43c1.32,0,2.38-1.07,2.38-2.38s-1.07-2.38-2.38-2.38-2.38,1.07-2.38,2.38,1.07,2.38,2.38,2.38Z"/><circle class="cls-1" cx="604.03" cy="49.04" r="2.38"/><circle class="cls-1" cx="597.86" cy="49.04" r="2.38"/><circle class="cls-1" cx="622.53" cy="42.85" r="2.38"/><circle class="cls-1" cx="610.19" cy="42.85" r="2.38"/><path class="cls-1" d="M616.36,45.23c1.32,0,2.38-1.07,2.38-2.38s-1.07-2.38-2.38-2.38-2.38,1.07-2.38,2.38,1.07,2.38,2.38,2.38Z"/><circle class="cls-1" cx="604.03" cy="42.85" r="2.38"/><circle class="cls-1" cx="597.86" cy="42.85" r="2.38"/><path class="cls-1" d="M622.53,39.03c1.32,0,2.38-1.07,2.38-2.38s-1.07-2.38-2.38-2.38-2.38,1.07-2.38,2.38,1.07,2.38,2.38,2.38Z"/><path class="cls-1" d="M610.19,39.03c1.32,0,2.38-1.07,2.38-2.38s-1.07-2.38-2.38-2.38-2.38,1.07-2.38,2.38,1.07,2.38,2.38,2.38Z"/><path class="cls-1" d="M616.36,39.03c1.32,0,2.38-1.07,2.38-2.38s-1.07-2.38-2.38-2.38-2.38,1.07-2.38,2.38,1.07,2.38,2.38,2.38Z"/><path class="cls-1" d="M604.03,39.03c1.32,0,2.38-1.07,2.38-2.38s-1.07-2.38-2.38-2.38-2.38,1.07-2.38,2.38,1.07,2.38,2.38,2.38Z"/><path class="cls-1" d="M597.86,39.03c1.32,0,2.38-1.07,2.38-2.38s-1.07-2.38-2.38-2.38-2.38,1.07-2.38,2.38,1.07,2.38,2.38,2.38Z"/><path class="cls-1" d="M622.53,32.84c1.32,0,2.38-1.07,2.38-2.38s-1.07-2.38-2.38-2.38-2.38,1.07-2.38,2.38,1.07,2.38,2.38,2.38Z"/><path class="cls-1" d="M610.19,32.84c1.32,0,2.38-1.07,2.38-2.38s-1.07-2.38-2.38-2.38-2.38,1.07-2.38,2.38,1.07,2.38,2.38,2.38Z"/><path class="cls-1" d="M616.36,32.84c1.32,0,2.38-1.07,2.38-2.38s-1.07-2.38-2.38-2.38-2.38,1.07-2.38,2.38,1.07,2.38,2.38,2.38Z"/><path class="cls-1" d="M604.03,32.84c1.32,0,2.38-1.07,2.38-2.38s-1.07-2.38-2.38-2.38-2.38,1.07-2.38,2.38,1.07,2.38,2.38,2.38Z"/><path class="cls-1" d="M597.86,32.84c1.32,0,2.38-1.07,2.38-2.38s-1.07-2.38-2.38-2.38-2.38,1.07-2.38,2.38,1.07,2.38,2.38,2.38Z"/><circle class="cls-1" cx="622.53" cy="24.26" r="2.38"/><circle class="cls-1" cx="610.19" cy="24.26" r="2.38"/><path class="cls-1" d="M616.36,26.64c1.32,0,2.38-1.07,2.38-2.38s-1.07-2.38-2.38-2.38-2.38,1.07-2.38,2.38,1.07,2.38,2.38,2.38Z"/><circle class="cls-1" cx="604.03" cy="24.26" r="2.38"/><circle class="cls-1" cx="597.86" cy="24.26" r="2.38"/><circle class="cls-1" cx="622.53" cy="18.06" r="2.38"/><circle class="cls-1" cx="610.19" cy="18.06" r="2.38"/><path class="cls-1" d="M616.36,20.44c1.32,0,2.38-1.07,2.38-2.38s-1.07-2.38-2.38-2.38-2.38,1.07-2.38,2.38,1.07,2.38,2.38,2.38Z"/><circle class="cls-1" cx="604.03" cy="18.06" r="2.38"/><circle class="cls-1" cx="597.86" cy="18.06" r="2.38"/><path class="cls-1" d="M622.53,14.25c1.32,0,2.38-1.07,2.38-2.38s-1.07-2.38-2.38-2.38-2.38,1.07-2.38,2.38,1.07,2.38,2.38,2.38Z"/><path class="cls-1" d="M610.19,14.25c1.32,0,2.38-1.07,2.38-2.38s-1.07-2.38-2.38-2.38-2.38,1.07-2.38,2.38,1.07,2.38,2.38,2.38Z"/><path class="cls-1" d="M616.36,14.25c1.32,0,2.38-1.07,2.38-2.38s-1.07-2.38-2.38-2.38-2.38,1.07-2.38,2.38,1.07,2.38,2.38,2.38Z"/><path class="cls-1" d="M604.03,14.25c1.32,0,2.38-1.07,2.38-2.38s-1.07-2.38-2.38-2.38-2.38,1.07-2.38,2.38,1.07,2.38,2.38,2.38Z"/><path class="cls-1" d="M597.86,14.25c1.32,0,2.38-1.07,2.38-2.38s-1.07-2.38-2.38-2.38-2.38,1.07-2.38,2.38,1.07,2.38,2.38,2.38Z"/><path class="cls-1" d="M622.53,8.05c1.32,0,2.38-1.07,2.38-2.38s-1.07-2.38-2.38-2.38-2.38,1.07-2.38,2.38,1.07,2.38,2.38,2.38Z"/><path class="cls-1" d="M610.19,8.05c1.32,0,2.38-1.07,2.38-2.38s-1.07-2.38-2.38-2.38-2.38,1.07-2.38,2.38,1.07,2.38,2.38,2.38Z"/><path class="cls-1" d="M616.36,8.05c1.32,0,2.38-1.07,2.38-2.38s-1.07-2.38-2.38-2.38-2.38,1.07-2.38,2.38,1.07,2.38,2.38,2.38Z"/><path class="cls-1" d="M604.03,8.05c1.32,0,2.38-1.07,2.38-2.38s-1.07-2.38-2.38-2.38-2.38,1.07-2.38,2.38,1.07,2.38,2.38,2.38Z"/><path class="cls-1" d="M597.86,8.05c1.32,0,2.38-1.07,2.38-2.38s-1.07-2.38-2.38-2.38-2.38,1.07-2.38,2.38,1.07,2.38,2.38,2.38Z"/><path class="cls-1" d="M622.53,150.86c1.32,0,2.38-1.07,2.38-2.38s-1.07-2.38-2.38-2.38-2.38,1.07-2.38,2.38,1.07,2.38,2.38,2.38Z"/><path class="cls-1" d="M610.19,150.86c1.32,0,2.38-1.07,2.38-2.38s-1.07-2.38-2.38-2.38-2.38,1.07-2.38,2.38,1.07,2.38,2.38,2.38Z"/><path class="cls-1" d="M616.36,150.86c1.32,0,2.38-1.07,2.38-2.38s-1.07-2.38-2.38-2.38-2.38,1.07-2.38,2.38,1.07,2.38,2.38,2.38Z"/><path class="cls-1" d="M604.03,150.86c1.32,0,2.38-1.07,2.38-2.38s-1.07-2.38-2.38-2.38-2.38,1.07-2.38,2.38,1.07,2.38,2.38,2.38Z"/><path class="cls-1" d="M597.86,150.86c1.32,0,2.38-1.07,2.38-2.38s-1.07-2.38-2.38-2.38-2.38,1.07-2.38,2.38,1.07,2.38,2.38,2.38Z"/><circle class="cls-1" cx="622.53" cy="142.28" r="2.38"/><circle class="cls-1" cx="610.19" cy="142.28" r="2.38"/><path class="cls-1" d="M616.36,144.66c1.32,0,2.38-1.07,2.38-2.38s-1.07-2.38-2.38-2.38-2.38,1.07-2.38,2.38,1.07,2.38,2.38,2.38Z"/><circle class="cls-1" cx="604.03" cy="142.28" r="2.38"/><circle class="cls-1" cx="597.86" cy="142.28" r="2.38"/><circle class="cls-1" cx="622.53" cy="136.08" r="2.38"/><circle class="cls-1" cx="610.19" cy="136.08" r="2.38"/><path class="cls-1" d="M616.36,138.47c1.32,0,2.38-1.07,2.38-2.38s-1.07-2.38-2.38-2.38-2.38,1.07-2.38,2.38,1.07,2.38,2.38,2.38Z"/><circle class="cls-1" cx="604.03" cy="136.08" r="2.38"/><circle class="cls-1" cx="597.86" cy="136.08" r="2.38"/><circle class="cls-1" cx="622.53" cy="129.89" r="2.38"/><circle class="cls-1" cx="610.19" cy="129.89" r="2.38"/><path class="cls-1" d="M616.36,132.27c1.32,0,2.38-1.07,2.38-2.38s-1.07-2.38-2.38-2.38-2.38,1.07-2.38,2.38,1.07,2.38,2.38,2.38Z"/><circle class="cls-1" cx="604.03" cy="129.89" r="2.38"/><circle class="cls-1" cx="597.86" cy="129.89" r="2.38"/><path class="cls-1" d="M622.53,126.07c1.32,0,2.38-1.07,2.38-2.38s-1.07-2.38-2.38-2.38-2.38,1.07-2.38,2.38,1.07,2.38,2.38,2.38Z"/><path class="cls-1" d="M610.19,126.07c1.32,0,2.38-1.07,2.38-2.38s-1.07-2.38-2.38-2.38-2.38,1.07-2.38,2.38,1.07,2.38,2.38,2.38Z"/><path class="cls-1" d="M616.36,126.07c1.32,0,2.38-1.07,2.38-2.38s-1.07-2.38-2.38-2.38-2.38,1.07-2.38,2.38,1.07,2.38,2.38,2.38Z"/><path class="cls-1" d="M604.03,126.07c1.32,0,2.38-1.07,2.38-2.38s-1.07-2.38-2.38-2.38-2.38,1.07-2.38,2.38,1.07,2.38,2.38,2.38Z"/><path class="cls-1" d="M597.86,126.07c1.32,0,2.38-1.07,2.38-2.38s-1.07-2.38-2.38-2.38-2.38,1.07-2.38,2.38,1.07,2.38,2.38,2.38Z"/><path class="cls-1" d="M622.53,119.88c1.32,0,2.38-1.07,2.38-2.38s-1.07-2.38-2.38-2.38-2.38,1.07-2.38,2.38,1.07,2.38,2.38,2.38Z"/><path class="cls-1" d="M610.19,119.88c1.32,0,2.38-1.07,2.38-2.38s-1.07-2.38-2.38-2.38-2.38,1.07-2.38,2.38,1.07,2.38,2.38,2.38Z"/><path class="cls-1" d="M616.36,119.88c1.32,0,2.38-1.07,2.38-2.38s-1.07-2.38-2.38-2.38-2.38,1.07-2.38,2.38,1.07,2.38,2.38,2.38Z"/><path class="cls-1" d="M604.03,119.88c1.32,0,2.38-1.07,2.38-2.38s-1.07-2.38-2.38-2.38-2.38,1.07-2.38,2.38,1.07,2.38,2.38,2.38Z"/><path class="cls-1" d="M597.86,119.88c1.32,0,2.38-1.07,2.38-2.38s-1.07-2.38-2.38-2.38-2.38,1.07-2.38,2.38,1.07,2.38,2.38,2.38Z"/><circle class="cls-1" cx="622.53" cy="111.3" r="2.38"/><circle class="cls-1" cx="610.19" cy="111.3" r="2.38"/><path class="cls-1" d="M616.36,113.68c1.32,0,2.38-1.07,2.38-2.38s-1.07-2.38-2.38-2.38-2.38,1.07-2.38,2.38,1.07,2.38,2.38,2.38Z"/><circle class="cls-1" cx="604.03" cy="111.3" r="2.38"/><circle class="cls-1" cx="597.86" cy="111.3" r="2.38"/><circle class="cls-1" cx="622.53" cy="105.1" r="2.38"/><circle class="cls-1" cx="610.19" cy="105.1" r="2.38"/><path class="cls-1" d="M616.36,107.48c1.32,0,2.38-1.07,2.38-2.38s-1.07-2.38-2.38-2.38-2.38,1.07-2.38,2.38,1.07,2.38,2.38,2.38Z"/><circle class="cls-1" cx="604.03" cy="105.1" r="2.38"/><circle class="cls-1" cx="597.86" cy="105.1" r="2.38"/><path class="cls-1" d="M622.53,101.29c1.32,0,2.38-1.07,2.38-2.38s-1.07-2.38-2.38-2.38-2.38,1.07-2.38,2.38,1.07,2.38,2.38,2.38Z"/><path class="cls-1" d="M610.19,101.29c1.32,0,2.38-1.07,2.38-2.38s-1.07-2.38-2.38-2.38-2.38,1.07-2.38,2.38,1.07,2.38,2.38,2.38Z"/><path class="cls-1" d="M616.36,101.29c1.32,0,2.38-1.07,2.38-2.38s-1.07-2.38-2.38-2.38-2.38,1.07-2.38,2.38,1.07,2.38,2.38,2.38Z"/><path class="cls-1" d="M604.03,101.29c1.32,0,2.38-1.07,2.38-2.38s-1.07-2.38-2.38-2.38-2.38,1.07-2.38,2.38,1.07,2.38,2.38,2.38Z"/><path class="cls-1" d="M597.86,101.29c1.32,0,2.38-1.07,2.38-2.38s-1.07-2.38-2.38-2.38-2.38,1.07-2.38,2.38,1.07,2.38,2.38,2.38Z"/><path class="cls-1" d="M622.53,95.09c1.32,0,2.38-1.07,2.38-2.38s-1.07-2.38-2.38-2.38-2.38,1.07-2.38,2.38,1.07,2.38,2.38,2.38Z"/><path class="cls-1" d="M610.19,95.09c1.32,0,2.38-1.07,2.38-2.38s-1.07-2.38-2.38-2.38-2.38,1.07-2.38,2.38,1.07,2.38,2.38,2.38Z"/><path class="cls-1" d="M616.36,95.09c1.32,0,2.38-1.07,2.38-2.38s-1.07-2.38-2.38-2.38-2.38,1.07-2.38,2.38,1.07,2.38,2.38,2.38Z"/><path class="cls-1" d="M604.03,95.09c1.32,0,2.38-1.07,2.38-2.38s-1.07-2.38-2.38-2.38-2.38,1.07-2.38,2.38,1.07,2.38,2.38,2.38Z"/><path class="cls-1" d="M597.86,95.09c1.32,0,2.38-1.07,2.38-2.38s-1.07-2.38-2.38-2.38-2.38,1.07-2.38,2.38,1.07,2.38,2.38,2.38Z"/></svg>