<?xml version="1.0" encoding="UTF-8"?><svg id="PART_2" xmlns="http://www.w3.org/2000/svg" viewBox="0 0 848.75 154.47"><defs><style>.cls-1{fill:#fff;}</style></defs><rect class="cls-1" x="626.46" y="125.1" width="80.25" height="26.2"/><rect class="cls-1" x="626.46" y="64.66" width="69.69" height="25.36"/><polygon class="cls-1" points="729.16 125.29 765.72 125.29 846.64 23.03 846.64 3.38 730.62 3.38 730.62 29.16 806.7 29.16 729.16 125.29"/><rect class="cls-1" x="458.35" y="29.9" width="28.31" height="120.8"/><path class="cls-1" d="M262.44,76.76c0,.05,0,.11,0,.16,0,27.47-17.75,50.08-46.49,50.08s-46.49-22.61-46.49-50.08h.21c0-.05,0-.11,0-.16h-28.32c.03,43.08,30.66,77.08,74.59,77.08h.21c43.94,0,74.57-33.99,74.59-77.08h-28.32Z"/><path class="cls-1" d="M88.33,67.83l-36.77-11.83c-9.3-2.75-14.16-7.4-14.16-13.74,0-4.65,2.11-8.45,6.55-11.62,5.71-3.59,11.62-4.44,18.38-4.44,.6,0,1.23,.02,1.88,.07V.72c-1.19-.05-2.38-.09-3.57-.09C36.14,.63,7.61,15,7.61,42.9c0,20.5,15.85,31.91,33.81,37.83l37.4,11.83c8.45,2.54,19.86,7.19,19.86,17.75,0,13.74-17.33,18.6-28.32,18.6-2.53,0-8.03-.42-8.03-.42v25.78c2.11,.21,6.76,.21,6.76,.21,17.33,0,31.49-4.65,42.48-13.74,10.99-8.66,16.48-19.44,16.48-32.33,0-24.94-18.6-33.81-39.73-40.57Z"/></svg>