<svg width="728" height="90" viewBox="0 0 728 90" fill="none" xmlns="http://www.w3.org/2000/svg">
<g clip-path="url(#clip0_0_1435)">
<path d="M678.716 79.1617H679.87C680.615 79.1617 681.069 78.7747 681.069 78.1461C681.069 77.6728 680.737 77.3234 680.262 77.2771V77.2571C680.62 77.197 680.899 76.8626 680.899 76.4795C680.899 75.9373 680.489 75.5879 679.855 75.5879H678.716C678.523 75.5879 678.404 75.7119 678.404 75.9197V78.8311C678.404 79.039 678.523 79.1629 678.716 79.1629V79.1617ZM679.029 77.093V76.085H679.698C680.071 76.085 680.282 76.2603 680.282 76.5734C680.282 76.9052 680.038 77.093 679.601 77.093H679.029ZM679.029 78.6633V77.5463H679.7C680.18 77.5463 680.431 77.7367 680.431 78.1011C680.431 78.4655 680.187 78.6633 679.726 78.6633H679.028H679.029Z" fill="#171D21"/>
<path d="M683.845 79.2201C684.732 79.2201 685.282 78.6804 685.282 77.9003V75.8768C685.282 75.6664 685.165 75.5449 684.971 75.5449C684.778 75.5449 684.659 75.6664 684.659 75.8768V77.844C684.659 78.3323 684.363 78.6642 683.844 78.6642C683.325 78.6642 683.032 78.3323 683.032 77.844V75.8768C683.032 75.6664 682.915 75.5449 682.719 75.5449C682.523 75.5449 682.406 75.6664 682.406 75.8768V77.9003C682.406 78.6804 682.958 79.2201 683.843 79.2201H683.845Z" fill="#171D21"/>
<path d="M687.107 79.2029C687.304 79.2029 687.42 79.0814 687.42 78.871V75.8758C687.42 75.6654 687.304 75.5439 687.107 75.5439C686.911 75.5439 686.794 75.6654 686.794 75.8758V78.871C686.794 79.0814 686.913 79.2029 687.107 79.2029Z" fill="#171D21"/>
<path d="M689.242 79.1616H690.894C691.066 79.1616 691.18 79.0576 691.18 78.8911C691.18 78.7245 691.063 78.6206 690.894 78.6206H689.555V75.8758C689.555 75.6654 689.438 75.5439 689.242 75.5439C689.045 75.5439 688.929 75.6654 688.929 75.8758V78.8285C688.929 79.0363 689.048 79.1603 689.242 79.1603V79.1616Z" fill="#171D21"/>
<path d="M693.167 79.2026C693.364 79.2026 693.48 79.0811 693.48 78.8707V76.1259H694.28C694.449 76.1259 694.566 76.022 694.566 75.8554C694.566 75.6889 694.452 75.585 694.28 75.585H692.058C691.887 75.585 691.772 75.6889 691.772 75.8554C691.772 76.022 691.889 76.1259 692.058 76.1259H692.858V78.8707C692.858 79.0811 692.975 79.2026 693.168 79.2026H693.167Z" fill="#171D21"/>
<path d="M698.046 79.1617H699.199C699.945 79.1617 700.399 78.7747 700.399 78.1461C700.399 77.6728 700.067 77.3234 699.592 77.2771V77.2571C699.95 77.197 700.228 76.8626 700.228 76.4795C700.228 75.9373 699.819 75.5879 699.185 75.5879H698.046C697.852 75.5879 697.733 75.7119 697.733 75.9197V78.8311C697.733 79.039 697.852 79.1629 698.046 79.1629V79.1617ZM698.359 77.093V76.085H699.027C699.4 76.085 699.611 76.2603 699.611 76.5734C699.611 76.9052 699.367 77.093 698.931 77.093H698.359ZM698.359 78.6633V77.5463H699.03C699.51 77.5463 699.761 77.7367 699.761 78.1011C699.761 78.4655 699.516 78.6633 699.056 78.6633H698.358H698.359Z" fill="#171D21"/>
<path d="M702.982 79.2029C703.179 79.2029 703.295 79.0814 703.295 78.871V77.7516L704.386 76.0498C704.432 75.976 704.451 75.9083 704.451 75.8345C704.451 75.6679 704.317 75.5439 704.143 75.5439C704.019 75.5439 703.942 75.5953 703.864 75.7293L702.995 77.1418H702.98L702.113 75.7293C702.033 75.5903 701.958 75.5439 701.827 75.5439C701.65 75.5439 701.516 75.6679 701.516 75.8357C701.516 75.9071 701.536 75.9772 701.579 76.0486L702.672 77.7503V78.8698C702.672 79.0802 702.789 79.2016 702.982 79.2016V79.2029Z" fill="#171D21"/>
<mask id="mask0_0_1435" style="mask-type:luminance" maskUnits="userSpaceOnUse" x="706" y="70" width="13" height="14">
<path d="M718.999 70.7642H706.252V83.9999H718.999V70.7642Z" fill="white"/>
</mask>
<g mask="url(#mask0_0_1435)">
<path d="M712.618 83.9862L706.252 77.3745L712.618 70.7642L718.986 77.3745L712.618 83.9862Z" fill="url(#paint0_linear_0_1435)"/>
<path d="M712.618 83.9862L706.252 77.3745L712.618 70.7642L718.986 77.3745L712.618 83.9862Z" fill="url(#paint1_linear_0_1435)"/>
<path d="M715.036 78.0444L712.617 83.9861L718.985 77.3745L717.33 75.6577L715.035 78.0444H715.036Z" fill="url(#paint2_linear_0_1435)"/>
<path d="M715.036 78.0444L712.617 83.9861L718.985 77.3745L717.33 75.6577L715.035 78.0444H715.036Z" fill="url(#paint3_linear_0_1435)"/>
<path opacity="0.4" d="M715.036 78.0444L712.617 83.9861L718.985 77.3745L717.33 75.6577L715.035 78.0444H715.036Z" fill="url(#paint4_linear_0_1435)"/>
</g>
<path d="M669.821 67.5774H666.196V57.1953C666.352 57.1515 666.577 57.1077 666.869 57.0651C667.159 57.0213 667.476 57 667.817 57C668.527 57 669.039 57.1202 669.351 57.3594C669.664 57.5986 669.82 58.0594 669.82 58.7418V67.5786L669.821 67.5774ZM666.196 65.6402H669.821V71.364C669.664 71.4078 669.441 71.4517 669.149 71.4942C668.857 71.5381 668.542 71.5594 668.201 71.5594C667.504 71.5594 666.996 71.4354 666.676 71.1887C666.356 70.942 666.196 70.485 666.196 69.8175V65.6389V65.6402Z" fill="#171D21"/>
<path d="M682.15 66.0973C682.15 67.2581 681.919 68.2599 681.457 69.1013C680.994 69.9428 680.348 70.5927 679.516 71.0498C678.685 71.5068 677.701 71.736 676.563 71.736C675.426 71.736 674.46 71.5106 673.621 71.061C672.781 70.6115 672.131 69.9654 671.67 69.1239C671.208 68.2824 670.977 67.2744 670.977 66.0986C670.977 64.9227 671.211 63.9585 671.681 63.1171C672.15 62.2756 672.804 61.6257 673.643 61.1686C674.482 60.7116 675.455 60.4824 676.563 60.4824C677.672 60.4824 678.664 60.7141 679.495 61.1786C680.327 61.6432 680.977 62.2956 681.446 63.1371C681.915 63.9786 682.15 64.9653 682.15 66.0973ZM676.563 63.3763C675.981 63.3763 675.522 63.6117 675.188 64.0838C674.855 64.5558 674.688 65.227 674.688 66.0973C674.688 66.9676 674.851 67.6788 675.179 68.1434C675.505 68.608 675.967 68.8396 676.565 68.8396C677.162 68.8396 677.623 68.6042 677.951 68.1321C678.277 67.6613 678.442 66.9826 678.442 66.0973C678.442 65.212 678.275 64.5734 677.941 64.095C677.607 63.6167 677.149 63.3763 676.566 63.3763H676.563Z" fill="#171D21"/>
<path d="M687.596 60.4824C689.145 60.4824 690.385 60.8055 691.316 61.4504C692.247 62.0965 692.712 63.1008 692.712 64.4644V69.3393C692.712 69.7162 692.609 70.0255 692.403 70.2646C692.197 70.5038 691.952 70.7104 691.667 70.8845C691.212 71.16 690.657 71.3703 690.004 71.5156C689.35 71.6608 688.603 71.7335 687.765 71.7335C686.272 71.7335 685.075 71.4392 684.172 70.8519C683.269 70.2646 682.817 69.3756 682.817 68.186C682.817 67.1842 683.112 66.4154 683.702 65.8794C684.292 65.3422 685.191 65.0091 686.399 64.8777L689.193 64.5734V64.4206C689.193 63.9999 689.011 63.6993 688.649 63.5178C688.286 63.3362 687.765 63.246 687.082 63.246C686.555 63.246 686.033 63.3036 685.514 63.4201C684.995 63.5365 684.529 63.6818 684.118 63.8559C683.932 63.7256 683.777 63.5265 683.649 63.2573C683.522 62.9893 683.458 62.7101 683.458 62.4196C683.458 61.7234 683.821 61.23 684.545 60.9395C684.957 60.7804 685.444 60.664 686.006 60.5914C686.568 60.5187 687.096 60.4824 687.594 60.4824H687.596ZM687.766 69.0362C688.008 69.0362 688.274 69.0112 688.566 68.9598C688.857 68.9085 689.074 68.8396 689.216 68.7532V67.0114L687.681 67.1416C687.283 67.1704 686.956 67.2581 686.7 67.4033C686.444 67.5486 686.316 67.7665 686.316 68.0557C686.316 68.345 686.426 68.5817 686.646 68.7632C686.866 68.9448 687.24 69.035 687.765 69.035L687.766 69.0362Z" fill="#171D21"/>
<path d="M704.407 64.5746V66.5769H700.782V64.6836C700.782 64.234 700.65 63.9034 700.387 63.6931C700.123 63.4827 699.779 63.3775 699.353 63.3775C699.068 63.3775 698.802 63.4138 698.553 63.4865C698.304 63.5591 698.066 63.653 697.839 63.7695V66.5769H694.214V63.2686C694.214 62.8766 694.296 62.5573 694.459 62.3106C694.622 62.064 694.847 61.8398 695.131 61.6357C695.615 61.2876 696.226 61.0083 696.965 60.798C697.704 60.5876 698.515 60.4824 699.397 60.4824C701.003 60.4824 702.239 60.8418 703.106 61.5593C703.974 62.2781 704.407 63.2823 704.407 64.5734V64.5746ZM694.215 65.6415H697.84V71.3653C697.683 71.4091 697.46 71.453 697.168 71.4955C696.876 71.5394 696.56 71.5607 696.219 71.5607C695.523 71.5607 695.015 71.4367 694.695 71.19C694.374 70.9433 694.215 70.4863 694.215 69.8188V65.6402V65.6415ZM700.783 65.6415H704.408V71.3653C704.251 71.4091 704.028 71.453 703.736 71.4955C703.444 71.5394 703.128 71.5607 702.787 71.5607C702.091 71.5607 701.583 71.4367 701.263 71.19C700.942 70.9433 700.783 70.4863 700.783 69.8188V65.6402V65.6415Z" fill="#171D21"/>
<path d="M659.549 63.4215C659.574 63.4215 659.6 63.4215 659.626 63.4215C659.652 63.4215 659.677 63.4215 659.703 63.4215C660.129 63.4215 660.462 63.5305 660.704 63.7483C660.959 63.9512 661.087 64.278 661.087 64.7288V69.8704C661.087 70.2335 661.13 70.5315 661.214 70.7632C661.314 70.9811 661.449 71.1551 661.619 71.2866C661.79 71.4181 661.996 71.5045 662.236 71.5483C662.492 71.5921 662.776 71.6134 663.088 71.6134C663.399 71.6134 663.727 71.5921 664.025 71.5483C664.338 71.5045 664.565 71.4607 664.707 71.4181V64.5986C664.707 63.3201 664.274 62.3258 663.408 61.6133C662.542 60.8871 661.306 60.5239 659.702 60.5239C659.676 60.5239 659.65 60.5239 659.625 60.5239C659.599 60.5239 659.573 60.5239 659.547 60.5239C657.943 60.5239 656.707 60.8871 655.841 61.6133C654.975 62.3246 654.542 63.3201 654.542 64.5986V67.8468C654.685 67.8906 654.911 67.9345 655.224 67.977C655.522 68.0209 655.835 68.0422 656.162 68.0422C656.488 68.0422 656.758 68.0209 657.013 67.977C657.255 67.9332 657.461 67.8468 657.631 67.7153C657.802 67.5851 657.937 67.4098 658.036 67.1919C658.121 66.959 658.164 66.6622 658.164 66.2991V64.7288C658.164 64.278 658.291 63.9512 658.548 63.7483C658.789 63.5305 659.123 63.4215 659.549 63.4215Z" fill="#171D21"/>
<path d="M653.161 68.7158C653.135 68.7158 653.109 68.7158 653.084 68.7158C653.058 68.7158 653.032 68.7158 653.006 68.7158C652.581 68.7158 652.247 68.6069 652.005 68.389C651.75 68.1862 651.621 67.8593 651.621 67.4085V62.267C651.621 61.9039 651.578 61.6058 651.494 61.3742C651.394 61.1563 651.259 60.9822 651.089 60.8508C650.918 60.7205 650.712 60.6329 650.472 60.589C650.217 60.5452 649.932 60.5239 649.621 60.5239C649.309 60.5239 648.981 60.5452 648.683 60.589C648.37 60.6329 648.144 60.6767 648.001 60.7193V67.5388C648.001 68.8173 648.434 69.8115 649.3 70.524C650.166 71.2503 651.402 71.6134 653.006 71.6134C653.032 71.6134 653.058 71.6134 653.084 71.6134C653.109 71.6134 653.135 71.6134 653.161 71.6134C654.765 71.6134 656.001 71.2503 656.867 70.524C657.733 69.8128 658.166 68.8173 658.166 67.5388V64.2906C658.024 64.2467 657.797 64.2029 657.484 64.1603C657.186 64.1165 656.873 64.0952 656.547 64.0952C656.22 64.0952 655.95 64.1165 655.695 64.1603C655.454 64.2042 655.248 64.2906 655.078 64.422C654.908 64.5523 654.773 64.7276 654.673 64.9455C654.589 65.1784 654.546 65.4751 654.546 65.8383V67.4085C654.546 67.8593 654.418 68.1862 654.162 68.389C653.92 68.6069 653.587 68.7158 653.161 68.7158Z" fill="#171D21"/>
</g>
<defs>
<linearGradient id="paint0_linear_0_1435" x1="706.252" y1="77.3758" x2="718.986" y2="77.3758" gradientUnits="userSpaceOnUse">
<stop offset="0.32" stop-color="#FEEA00"/>
<stop offset="0.46" stop-color="#FFE800"/>
<stop offset="0.6" stop-color="#FFE200"/>
<stop offset="0.74" stop-color="#FFD600"/>
<stop offset="0.8" stop-color="#FFD000"/>
</linearGradient>
<linearGradient id="paint1_linear_0_1435" x1="709.381" y1="74.1263" x2="718.724" y2="83.1243" gradientUnits="userSpaceOnUse">
<stop stop-color="#FEEA00"/>
<stop offset="0.17" stop-color="#FFE500" stop-opacity="0.7"/>
<stop offset="0.42" stop-color="#FFD700" stop-opacity="0.21"/>
<stop offset="0.53" stop-color="#FFD000" stop-opacity="0"/>
</linearGradient>
<linearGradient id="paint2_linear_0_1435" x1="711.329" y1="79.8225" x2="724.832" y2="79.8225" gradientUnits="userSpaceOnUse">
<stop stop-color="#F18700"/>
<stop offset="0.06" stop-color="#F28B00"/>
<stop offset="0.13" stop-color="#F49600"/>
<stop offset="0.2" stop-color="#F8AA00"/>
<stop offset="0.27" stop-color="#F9AD00" stop-opacity="0.94"/>
<stop offset="0.33" stop-color="#FAB500" stop-opacity="0.88"/>
<stop offset="0.38" stop-color="#FDC100" stop-opacity="0.83"/>
<stop offset="0.42" stop-color="#FFD200" stop-opacity="0.79"/>
<stop offset="0.46" stop-color="#FFE400" stop-opacity="0.75"/>
<stop offset="0.7" stop-color="#FEEA00" stop-opacity="0.3"/>
</linearGradient>
<linearGradient id="paint3_linear_0_1435" x1="714.089" y1="79.2415" x2="716.195" y2="80.5683" gradientUnits="userSpaceOnUse">
<stop stop-color="#F18700"/>
<stop offset="0.49" stop-color="#FEC900" stop-opacity="0"/>
</linearGradient>
<linearGradient id="paint4_linear_0_1435" x1="713.991" y1="79.1176" x2="717.009" y2="81.1955" gradientUnits="userSpaceOnUse">
<stop offset="0.02"/>
<stop offset="0.48" stop-color="#FEC900" stop-opacity="0"/>
</linearGradient>
<clipPath id="clip0_0_1435">
<rect width="71" height="27" fill="white" transform="translate(648 57)"/>
</clipPath>
</defs>
</svg>
