<svg xmlns="http://www.w3.org/2000/svg" viewBox="0 0 500.3 683.25"><defs><style>.cls-1{fill:#61c1c4;}</style></defs><g id="Layer_2" data-name="Layer 2"><g id="Layer_1-2" data-name="Layer 1"><path class="cls-1" d="M0,274.72c0-36.16,1-60.75,6.48-87.1,5-24.42,12.53-45.44,23-64.19C42.07,101.05,56,83.1,72,68.55,120.47,24.36,183.76,0,250.15,0A263.79,263.79,0,0,1,428.36,68.59c16,14.51,29.87,32.46,42.42,54.84,10.51,18.75,18.05,39.77,23.06,64.25,5.43,26.29,6.46,50.88,6.46,87V408.53c0,36.16-1,60.75-6.48,87.1-5,24.42-12.53,45.44-23,64.19-12.55,22.38-26.44,40.33-42.45,54.88-48.5,44.19-111.79,68.55-178.18,68.55A263.79,263.79,0,0,1,71.94,614.66c-16-14.51-29.87-32.46-42.42-54.84-10.51-18.75-18-39.77-23.06-64.25C1,469.27,0,444.69,0,408.53Z"/></g></g></svg>