<svg id="TEXT" xmlns="http://www.w3.org/2000/svg" viewBox="0 0 300 250"><defs><style>.cls-1{fill:#fff;}</style></defs><path class="cls-1" d="M98.26,141.33a7.14,7.14,0,0,1-1.51,1.12,8.87,8.87,0,0,1-4.37,1.12,7.14,7.14,0,1,1-.14-14.28,6.87,6.87,0,0,1,6.86,6.86c0,.53-.06.9-.08,1.2l-.06.48H89a3.53,3.53,0,0,0,3.64,2.38,4.83,4.83,0,0,0,2.72-.76,3.49,3.49,0,0,0,.92-.78ZM95.18,135A3.18,3.18,0,0,0,89,135Z"/><path class="cls-1" d="M103.86,136.29l-4.62-6.72h4.34l2.6,4.2h.12l2.6-4.2h4.34l-4.62,6.72,4.9,7h-4.34l-2.88-4.48h-.12l-2.88,4.48H99Z"/><path class="cls-1" d="M114.5,129.57h3.78v2h.14a5.09,5.09,0,0,1,1.06-1.12,5.34,5.34,0,0,1,3.28-1.12c3.25,0,6.16,3,6.16,7.14s-2.91,7.14-6.16,7.14a5.34,5.34,0,0,1-3.28-1.12,5.09,5.09,0,0,1-1.06-1.12h-.14v7.84H114.5Zm10.64,6.86a3.5,3.5,0,1,0-3.5,3.64A3.5,3.5,0,0,0,125.14,136.43Z"/><path class="cls-1" d="M143.34,141.33a7.14,7.14,0,0,1-1.51,1.12,8.87,8.87,0,0,1-4.37,1.12,7.14,7.14,0,1,1-.14-14.28,6.87,6.87,0,0,1,6.86,6.86c0,.53-.06.9-.08,1.2l-.06.48H134.1a3.53,3.53,0,0,0,3.64,2.38,4.83,4.83,0,0,0,2.72-.76,3.49,3.49,0,0,0,.92-.78Zm-3.08-6.3a3.18,3.18,0,0,0-6.16,0Z"/><path class="cls-1" d="M146.28,129.57h3.78v2h.14a6.49,6.49,0,0,1,1-1.12,4.66,4.66,0,0,1,3-1.12h.28v4.06l-.31-.06a8.06,8.06,0,0,0-.95-.08c-1.82,0-3.22,1.4-3.22,3.64v6.44h-3.78Z"/><path class="cls-1" d="M158.12,123.55a2.15,2.15,0,0,1,2.16,2.1,2.17,2.17,0,0,1-2.18,2.1,2.15,2.15,0,0,1-2.16-2.1A2.17,2.17,0,0,1,158.12,123.55Zm-1.9,6H160v13.72h-3.78Z"/><path class="cls-1" d="M175.26,141.33a7.14,7.14,0,0,1-1.51,1.12,8.9,8.9,0,0,1-4.37,1.12,7.14,7.14,0,1,1-.14-14.28,6.87,6.87,0,0,1,6.86,6.86c0,.53-.06.9-.08,1.2l-.06.48H166a3.53,3.53,0,0,0,3.64,2.38,4.86,4.86,0,0,0,2.72-.76,3.49,3.49,0,0,0,.92-.78Zm-3.08-6.3a3.18,3.18,0,0,0-6.16,0Z"/><path class="cls-1" d="M178.2,129.57H182v2h.14a6.49,6.49,0,0,1,1-1.12,4.66,4.66,0,0,1,3-1.12c2.8,0,5,2.24,5,5.74v8.26h-3.78v-7.7a2.38,2.38,0,0,0-2.52-2.66A2.91,2.91,0,0,0,182,136v7.28H178.2Z"/><path class="cls-1" d="M206.34,140.77a6,6,0,0,1-1.4,1.4,7.14,7.14,0,1,1,0-11.48,6,6,0,0,1,1.4,1.4L204,134.47a4.82,4.82,0,0,0-.9-.84,4.2,4.2,0,0,0-2.46-.84,3.64,3.64,0,0,0,0,7.28,4.2,4.2,0,0,0,2.46-.84,4.82,4.82,0,0,0,.9-.84Z"/><path class="cls-1" d="M220.06,141.33a7.14,7.14,0,0,1-1.51,1.12,8.9,8.9,0,0,1-4.37,1.12,7.14,7.14,0,1,1-.14-14.28,6.87,6.87,0,0,1,6.86,6.86c0,.53-.06.9-.08,1.2l-.06.48h-9.94a3.53,3.53,0,0,0,3.64,2.38,4.86,4.86,0,0,0,2.72-.76,3.49,3.49,0,0,0,.92-.78ZM217,135a3.18,3.18,0,0,0-6.16,0Z"/></svg>