<svg id="TEXT" xmlns="http://www.w3.org/2000/svg" viewBox="0 0 300 250"><defs><style>.cls-1{fill:#fff;}</style></defs><path class="cls-1" d="M66.06,105.83a5.42,5.42,0,0,0,1.21,1.06,6,6,0,0,0,3.41,1c2.24,0,3.22-1,3.22-2.24,0-3.33-9.8-1.85-9.8-8.68,0-3.08,2.66-5.74,7.14-5.74a9.41,9.41,0,0,1,4.93,1.34,9.19,9.19,0,0,1,1.65,1.32L75,96.73a6.58,6.58,0,0,0-1-.84,4.82,4.82,0,0,0-2.66-.84c-2.13,0-2.94.84-2.94,2,0,3.33,9.8,1.85,9.8,8.68,0,3.22-2.8,6-7.42,6a10.61,10.61,0,0,1-5.68-1.54,7.42,7.42,0,0,1-1.88-1.54Z"/><path class="cls-1" d="M81.32,101.35H78.94v-3.5H80.2c1,0,1.54-.56,1.54-1.68V93.65H85.1v4.2h3.08v3.5H85.1V106a1.73,1.73,0,0,0,1.82,2,4.25,4.25,0,0,0,1.09-.14,2,2,0,0,0,.45-.14v3.5c-.22.08-.48.14-.73.22a7.25,7.25,0,0,1-1.79.2c-2.8,0-4.62-1.79-4.62-5Z"/><path class="cls-1" d="M98.12,109.61H98a5.7,5.7,0,0,1-1,1,4.85,4.85,0,0,1-3,1,3.9,3.9,0,0,1-4.2-3.92c0-2.24,1.51-4,4.06-4.4l4.34-.78a2.19,2.19,0,0,0-2.38-1.82,3.61,3.61,0,0,0-2.27.78,4.52,4.52,0,0,0-.81.76L90.42,100A7.36,7.36,0,0,1,96,97.29c3.5,0,5.88,2.41,5.88,5.46v8.54H98.12Zm0-4.48-3.08.56c-1,.2-1.54.7-1.54,1.4,0,.87.56,1.4,1.68,1.4a2.91,2.91,0,0,0,2.94-3.08Z"/><path class="cls-1" d="M105.68,101.35H103.3v-3.5h1.26c1,0,1.54-.56,1.54-1.68V93.65h3.36v4.2h3.08v3.5h-3.08V106a1.73,1.73,0,0,0,1.82,2,4.25,4.25,0,0,0,1.09-.14,2,2,0,0,0,.45-.14v3.5c-.22.08-.47.14-.73.22a7.25,7.25,0,0,1-1.79.2c-2.8,0-4.62-1.79-4.62-5Z"/><path class="cls-1" d="M127.1,109.33a7.14,7.14,0,0,1-1.51,1.12,8.87,8.87,0,0,1-4.37,1.12,7.14,7.14,0,1,1-.14-14.28,6.87,6.87,0,0,1,6.86,6.86,10.45,10.45,0,0,1-.08,1.2l-.06.48h-9.94a3.53,3.53,0,0,0,3.64,2.38,4.83,4.83,0,0,0,2.72-.76,3.49,3.49,0,0,0,.92-.78ZM124,103a3.18,3.18,0,0,0-6.16,0Z"/><path class="cls-1" d="M141.66,97.29a7.14,7.14,0,1,1-7.28,7.14A7.2,7.2,0,0,1,141.66,97.29Zm3.5,7.14a3.5,3.5,0,1,0-3.5,3.64A3.5,3.5,0,0,0,145.16,104.43Z"/><path class="cls-1" d="M151.88,101.35h-2.1v-3.5h2.1v-1.4c0-3.25,1.82-5,4.62-5a7.71,7.71,0,0,1,1.79.22c.25.09.51.14.73.2v3.5a3.74,3.74,0,0,1-.45-.14,4.31,4.31,0,0,0-1.09-.14,1.73,1.73,0,0,0-1.82,2v.84h3.08v3.5h-3.08v9.94h-3.78Z"/><path class="cls-1" d="M176,91.27a10.23,10.23,0,1,1-10.64,10.22A10.36,10.36,0,0,1,176,91.27Zm0,16.52a6.3,6.3,0,1,0-6.3-6.3A6.27,6.27,0,0,0,176,107.79Z"/><path class="cls-1" d="M189,97.57h3.78v2h.14a6.49,6.49,0,0,1,1-1.12,4.66,4.66,0,0,1,3-1.12h.28v4.06l-.31-.06a8.06,8.06,0,0,0-1-.08c-1.82,0-3.22,1.4-3.22,3.64v6.44H189Z"/><path class="cls-1" d="M200.82,91.55a2.15,2.15,0,0,1,2.16,2.1,2.17,2.17,0,0,1-2.18,2.1,2.15,2.15,0,0,1-2.16-2.1A2.17,2.17,0,0,1,200.82,91.55Zm-1.9,6h3.78v13.72h-3.78Z"/><path class="cls-1" d="M207.74,112a5.71,5.71,0,0,0,1,.84,4.82,4.82,0,0,0,2.66.84,3.57,3.57,0,0,0,3.64-3.78v-1.12h-.14a5.63,5.63,0,0,1-1,1.12,4.9,4.9,0,0,1-3.19,1.12c-3.05,0-5.88-2.8-5.88-6.86s2.83-6.86,5.88-6.86a4.9,4.9,0,0,1,3.19,1.12,5.63,5.63,0,0,1,1,1.12H215v-2h3.78v12.32a7.1,7.1,0,0,1-7.42,7.28,7.81,7.81,0,0,1-4.54-1.4,6.61,6.61,0,0,1-1.48-1.4Zm7.28-7.84a3.22,3.22,0,1,0-3.22,3.36A3.19,3.19,0,0,0,215,104.15Z"/><path class="cls-1" d="M223.64,91.55a2.15,2.15,0,0,1,2.16,2.1,2.17,2.17,0,0,1-2.18,2.1,2.15,2.15,0,0,1-2.16-2.1A2.17,2.17,0,0,1,223.64,91.55Zm-1.9,6h3.78v13.72h-3.78Z"/><path class="cls-1" d="M228.46,97.57h3.78v2h.14a6.49,6.49,0,0,1,1-1.12,4.66,4.66,0,0,1,3-1.12c2.8,0,5,2.24,5,5.74v8.26H237.7v-7.7a2.38,2.38,0,0,0-2.52-2.66,2.91,2.91,0,0,0-2.94,3.08v7.28h-3.78Z"/></svg>