<svg xmlns="http://www.w3.org/2000/svg" viewBox="0 0 300 250"><defs><style>.cls-1{fill:#fff;}</style></defs><g id="TEXT"><path class="cls-1" d="M46.3,115.24h3.19l2,6.38h.11l2.09-6.38h2.42l2.09,6.38h.11l2-6.38h3.19L59.68,126H57l-2-6.27h-.09L52.79,126H50.08Z"/><path class="cls-1" d="M73.91,124.48a5.25,5.25,0,0,1-1.19.88,7,7,0,0,1-3.43.88A5.61,5.61,0,1,1,69.18,115a5.4,5.4,0,0,1,5.39,5.39,9.46,9.46,0,0,1-.06,1l-.05.37H66.65a2.77,2.77,0,0,0,2.86,1.87,3.81,3.81,0,0,0,2.14-.59,2.88,2.88,0,0,0,.72-.62Zm-2.42-5a2.5,2.5,0,0,0-4.84,0Z"/><path class="cls-1" d="M85.9,124.48a5.25,5.25,0,0,1-1.19.88,7,7,0,0,1-3.43.88A5.61,5.61,0,1,1,81.17,115a5.4,5.4,0,0,1,5.39,5.39,9.46,9.46,0,0,1-.06,1l0,.37H78.64a2.77,2.77,0,0,0,2.86,1.87,3.81,3.81,0,0,0,2.14-.59,2.88,2.88,0,0,0,.72-.62Zm-2.42-5a2.5,2.5,0,0,0-4.84,0Z"/><path class="cls-1" d="M88.32,110.62h3v9l3.85-4.4h3.52l-4,4.51L98.88,126H95.47l-2.75-4.18-1.43,1.65V126h-3Z"/><path class="cls-1" d="M109.11,124.48a5.25,5.25,0,0,1-1.19.88,7,7,0,0,1-3.43.88,5.61,5.61,0,1,1-.11-11.22,5.4,5.4,0,0,1,5.39,5.39,9.46,9.46,0,0,1-.06,1l0,.37h-7.81a2.77,2.77,0,0,0,2.86,1.87,3.81,3.81,0,0,0,2.14-.59,2.88,2.88,0,0,0,.72-.62Zm-2.42-5a2.5,2.5,0,0,0-4.84,0Z"/><path class="cls-1" d="M111.42,115.24h3v1.54h.11a5.25,5.25,0,0,1,.82-.88,3.62,3.62,0,0,1,2.37-.88c2.2,0,4,1.76,4,4.51V126h-3v-6a1.87,1.87,0,0,0-2-2.09,2.28,2.28,0,0,0-2.31,2.42V126h-3Z"/><path class="cls-1" d="M131.66,124.48h-.11a3.83,3.83,0,0,1-.83.88,4.24,4.24,0,0,1-2.58.88c-2.55,0-4.84-2.31-4.84-5.61s2.29-5.61,4.84-5.61a4.24,4.24,0,0,1,2.58.88,4,4,0,0,1,.83.88h.11v-6.16h3V126h-3Zm.11-3.85a2.75,2.75,0,1,0-2.75,2.86A2.75,2.75,0,0,0,131.77,120.63Z"/><path class="cls-1" d="M142.62,110.51a1.69,1.69,0,0,1,1.69,1.65,1.71,1.71,0,0,1-1.72,1.65,1.69,1.69,0,0,1-1.69-1.65A1.71,1.71,0,0,1,142.62,110.51Zm-1.5,4.73h3V126h-3Z"/><path class="cls-1" d="M146.4,115.24h3v1.54h.11a5.64,5.64,0,0,1,.81-.88,3.67,3.67,0,0,1,2.38-.88c2.2,0,4,1.76,4,4.51V126h-3v-6a1.87,1.87,0,0,0-2-2.09,2.28,2.28,0,0,0-2.31,2.42V126h-3Z"/><path class="cls-1" d="M163.56,110.62h6.49c3.08,0,4.95,1.87,4.95,4.07a3.4,3.4,0,0,1-2.09,3.19,4.35,4.35,0,0,1,1.43.75,3.73,3.73,0,0,1,1.43,3c0,2.4-2,4.4-5.28,4.4h-6.93Zm6.27,5.94a1.55,1.55,0,1,0,0-3.08h-3v3.08Zm.44,6.6a1.88,1.88,0,1,0,0-3.74h-3.41v3.74Z"/><path class="cls-1" d="M177.64,115.24h3v1.54h.11a5.25,5.25,0,0,1,.82-.88,3.62,3.62,0,0,1,2.37-.88h.22v3.19l-.24,0a5.47,5.47,0,0,0-.75-.07,2.58,2.58,0,0,0-2.53,2.86V126h-3Z"/><path class="cls-1" d="M187,110.51a1.69,1.69,0,0,1,1.69,1.65,1.71,1.71,0,0,1-1.72,1.65,1.69,1.69,0,0,1-1.69-1.65A1.71,1.71,0,0,1,187,110.51Zm-1.5,4.73h3V126h-3Z"/><path class="cls-1" d="M191.39,122.39a3.33,3.33,0,0,0,.77.62,3.81,3.81,0,0,0,2.09.59c1,0,1.32-.33,1.32-.77,0-1.21-5.5-1-5.5-4.51,0-1.76,1.54-3.3,4.29-3.3a6,6,0,0,1,3.12.84,5.37,5.37,0,0,1,1.06.81l-1.76,1.87a4,4,0,0,0-.64-.44,3.55,3.55,0,0,0-1.78-.44c-.77,0-1.1.33-1.1.66,0,1.21,5.5,1,5.5,4.51,0,1.85-1.54,3.41-4.51,3.41a6.24,6.24,0,0,1-3.43-1,4.83,4.83,0,0,1-1.19-1Z"/><path class="cls-1" d="M200.3,110.62h3v6.16h.11a4.17,4.17,0,0,1,3.41-1.76c2.55,0,4.84,2.33,4.84,5.61s-2.29,5.61-4.84,5.61a4.14,4.14,0,0,1-2.57-.88,3.88,3.88,0,0,1-.84-.88h-.11V126h-3Zm8.36,10a2.75,2.75,0,1,0-2.75,2.86A2.75,2.75,0,0,0,208.66,120.63Z"/><path class="cls-1" d="M219.33,124.7h-.11a4.54,4.54,0,0,1-.81.77,3.83,3.83,0,0,1-2.38.77,3.07,3.07,0,0,1-3.3-3.08,3.48,3.48,0,0,1,3.19-3.45l3.41-.62a1.72,1.72,0,0,0-1.87-1.43,2.83,2.83,0,0,0-1.78.62,3,3,0,0,0-.64.59l-1.76-1.76a5.86,5.86,0,0,1,1.12-1,5.68,5.68,0,0,1,3.28-1.06,4.33,4.33,0,0,1,4.62,4.29V126h-3Zm0-3.52-2.42.44c-.77.16-1.21.55-1.21,1.1s.44,1.1,1.32,1.1a2.28,2.28,0,0,0,2.31-2.42Z"/><path class="cls-1" d="M224.61,115.24h3v1.54h.11a5.64,5.64,0,0,1,.81-.88,3.67,3.67,0,0,1,2.38-.88c2.2,0,4,1.76,4,4.51V126h-3v-6a1.87,1.87,0,0,0-2-2.09,2.28,2.28,0,0,0-2.31,2.42V126h-3Z"/><path class="cls-1" d="M246.83,124.48a5.49,5.49,0,0,1-1.19.88,7,7,0,0,1-3.43.88A5.61,5.61,0,1,1,242.1,115a5.4,5.4,0,0,1,5.39,5.39,6.88,6.88,0,0,1-.07,1l0,.37h-7.81a2.77,2.77,0,0,0,2.86,1.87,3.75,3.75,0,0,0,2.13-.59,2.76,2.76,0,0,0,.73-.62Zm-2.42-5a2.5,2.5,0,0,0-4.84,0Z"/></g></svg>