<svg id="TEXT" xmlns="http://www.w3.org/2000/svg" viewBox="0 0 300 250"><defs><style>.cls-1{fill:#ff3008;}</style></defs><path class="cls-1" d="M71,184.42h2.72V181.7h1.84v2.72h2.72v2H75.52v2.72H73.68v-2.72H71Z"/><path class="cls-1" d="M85.68,187a3.42,3.42,0,0,0,.69.61,3.47,3.47,0,0,0,1.95.59c1.28,0,1.84-.56,1.84-1.28,0-1.91-5.6-1.06-5.6-5,0-1.76,1.52-3.28,4.08-3.28a5.45,5.45,0,0,1,2.82.76,4.8,4.8,0,0,1,.94.76l-1.6,1.6a3.23,3.23,0,0,0-.56-.48,2.77,2.77,0,0,0-1.52-.48c-1.22,0-1.68.48-1.68,1.12,0,1.9,5.6,1.05,5.6,5,0,1.84-1.6,3.44-4.24,3.44a6.06,6.06,0,0,1-3.25-.88,4.27,4.27,0,0,1-1.07-.88Z"/><path class="cls-1" d="M100.72,178.66a5.84,5.84,0,1,1-6.08,5.84A5.92,5.92,0,0,1,100.72,178.66Zm0,9.44a3.6,3.6,0,1,0-3.6-3.6A3.59,3.59,0,0,0,100.72,188.1Z"/><path class="cls-1" d="M113.92,178.9h2.16l3.84,4.8,3.84-4.8h2.16v11.2h-2.4v-7.36l-3.6,4.48-3.6-4.48v7.36h-2.4Z"/><path class="cls-1" d="M129.52,178.9h2.4v6.56a2.48,2.48,0,1,0,5,0V178.9h2.4v6.56a4.88,4.88,0,0,1-9.76,0Z"/><path class="cls-1" d="M153,188.1a5.86,5.86,0,0,1-1.2,1.12,6.22,6.22,0,0,1-3.6,1.12,5.84,5.84,0,1,1,0-11.68,6.09,6.09,0,0,1,3.54,1.12A5.73,5.73,0,0,1,153,180.9l-1.6,1.6a4.44,4.44,0,0,0-.82-.8,3.73,3.73,0,0,0-2.3-.8,3.6,3.6,0,0,0,0,7.2,4,4,0,0,0,2.38-.8,3.67,3.67,0,0,0,.82-.8Z"/><path class="cls-1" d="M155.6,178.9H158v4.4h4.8v-4.4h2.4v11.2h-2.4v-4.56H158v4.56h-2.4Z"/><path class="cls-1" d="M173,178.9h2.16l3.84,4.8,3.84-4.8H185v11.2h-2.4v-7.36l-3.6,4.48-3.6-4.48v7.36H173Z"/><path class="cls-1" d="M194.08,178.66A5.84,5.84,0,1,1,188,184.5,5.92,5.92,0,0,1,194.08,178.66Zm0,9.44a3.6,3.6,0,1,0-3.6-3.6A3.59,3.59,0,0,0,194.08,188.1Z"/><path class="cls-1" d="M203.12,178.9h5a3.61,3.61,0,0,1,3.92,3.76,3.56,3.56,0,0,1-1,2.61,3,3,0,0,1-1,.67l2.32,4.16h-2.64l-2-3.68h-2.24v3.68h-2.4Zm4.88,5.28a1.52,1.52,0,0,0,0-3h-2.48v3Z"/><path class="cls-1" d="M215.2,178.9h8.32v2.24H217.6v2.16h4.64v2.16H217.6v2.4h6.08v2.24H215.2Z"/><path class="cls-1" d="M226.48,178.9H229l-.4,7.76h-1.76Zm1.28,8.8a1.28,1.28,0,1,1-1.28,1.28A1.26,1.26,0,0,1,227.76,187.7Z"/></svg>