<svg id="Logos" xmlns="http://www.w3.org/2000/svg" viewBox="0 0 300 250"><defs><style>.cls-1{fill:#fff;}</style></defs><g id="Layer_2" data-name="Layer 2"><g id="Layer_1-2" data-name="Layer 1-2"><path class="cls-1" d="M152.44,70V75.4h1.37a2.65,2.65,0,0,0,2.62-2.68A2.63,2.63,0,0,0,153.88,70h-1.44Zm1.37-1.7a4.38,4.38,0,1,1,0,8.76h-3a.21.21,0,0,1-.22-.22V68.6a.21.21,0,0,1,.22-.22Z"/><path class="cls-1" d="M164.9,75.6A2.88,2.88,0,1,0,162,72.72a2.92,2.92,0,0,0,2.87,2.88m0-7.43a4.56,4.56,0,1,1-4.75,4.55,4.63,4.63,0,0,1,4.75-4.55"/><path class="cls-1" d="M176.19,75.6a2.88,2.88,0,1,0-2.87-2.88h0a2.91,2.91,0,0,0,2.87,2.88m0-7.43a4.56,4.56,0,1,1-4.75,4.55,4.63,4.63,0,0,1,4.75-4.55"/><path class="cls-1" d="M187.24,70H185.3v2.31h1.94a1.13,1.13,0,0,0,1.18-1.09v0A1.15,1.15,0,0,0,187.31,70a0,0,0,0,0-.07,0m-3.81-1.46a.21.21,0,0,1,.22-.22h3.64a2.89,2.89,0,0,1,3,2.88,2.79,2.79,0,0,1-1.57,2.55l1.68,3a.21.21,0,0,1-.06.31.38.38,0,0,1-.13,0h-1.49a.21.21,0,0,1-.19-.11l-1.61-2.94H185.3v2.83a.2.2,0,0,1-.21.22h-1.42a.21.21,0,0,1-.22-.22Z"/><path class="cls-1" d="M195.18,70.06v5.36h1.37a2.68,2.68,0,0,0,.06-5.36h-1.43Zm1.37-1.68a4.39,4.39,0,1,1,0,8.77h-3a.21.21,0,0,1-.22-.22V68.6a.21.21,0,0,1,.22-.22Z"/><path class="cls-1" d="M206.75,70.52l-1.07,2.88h2.11ZM205.07,75l-.7,1.92a.22.22,0,0,1-.21.15h-1.51a.24.24,0,0,1-.24-.2.15.15,0,0,1,0-.1l3.25-8.29a.27.27,0,0,1,.22-.15h1.7a.23.23,0,0,1,.22.15l3.24,8.29a.21.21,0,0,1-.11.28.18.18,0,0,1-.1,0h-1.51a.23.23,0,0,1-.22-.15L208.43,75Z"/><path class="cls-1" d="M212.81,70.72a2.77,2.77,0,0,1,3.05-2.58,3.92,3.92,0,0,1,2.72,1,.24.24,0,0,1,0,.33l-.85.85a.22.22,0,0,1-.3,0h0a2.11,2.11,0,0,0-1.44-.57c-.74,0-1.31.44-1.31.94,0,1.61,4.43.67,4.43,3.81,0,1.57-1.2,2.75-3.32,2.75A4.43,4.43,0,0,1,212.63,76a.24.24,0,0,1,0-.32l.81-.81a.2.2,0,0,1,.3,0h0a2.87,2.87,0,0,0,1.92.78c.94,0,1.55-.5,1.55-1.13,0-1.63-4.4-.7-4.4-3.81"/><path class="cls-1" d="M227.17,68.56v3.27h-3.75V68.56a.21.21,0,0,0-.22-.22h-1.44a.2.2,0,0,0-.21.22v8.28a.2.2,0,0,0,.21.22h1.42a.21.21,0,0,0,.22-.22V73.51h3.75v3.33a.21.21,0,0,0,.22.22h1.43a.2.2,0,0,0,.22-.22V68.56a.2.2,0,0,0-.22-.22h-1.41a.21.21,0,0,0-.22.22Z"/><path class="cls-1" d="M204.16,44a9,9,0,0,0-8-4.77H171a.88.88,0,0,0-.61,1.48l5.5,5.54a2.61,2.61,0,0,0,1.83.76h17.76a2.29,2.29,0,0,1,.33,4.56H183.25a.87.87,0,0,0-.87.87,1,1,0,0,0,.24.61l5.49,5.53a2.65,2.65,0,0,0,1.84.77h5.53c7.24,0,12.69-7.72,8.68-15.35"/></g></g><rect class="cls-1" x="130.83" y="28.97" width="3.93" height="58.51"/><g id="RGB_NRL_TP_M_SYM_BLK_POS"><polygon class="cls-1" points="103.01 44.35 103.01 50.88 93.71 56.25 84.41 50.88 84.41 44.35 93.71 49.71 103.01 44.35"/><polygon class="cls-1" points="93.71 61.61 84.41 56.25 84.41 62.78 93.71 68.15 103.01 62.78 103.01 56.25 93.71 61.61"/><path class="cls-1" d="M103,29.1v5.58h7.43v33.1a5.55,5.55,0,0,1-2.78,5.2L93.71,81,79.76,73A5.59,5.59,0,0,1,77,67.78V34.68h7.44V29.1h-13V67.78a11.18,11.18,0,0,0,5.57,10l16.74,9.67,16.73-9.67a11.17,11.17,0,0,0,5.58-10V29.1Z"/><path class="cls-1" d="M100.46,24.26l-.37,2.06a.88.88,0,0,1-.88.74H96.79l-1.22,7.19a.85.85,0,0,1-.88.77H92l1.44-8H90.08L90.45,25a.89.89,0,0,1,.88-.75Z"/><path class="cls-1" d="M97.06,31.72l-.47,2.73a1.9,1.9,0,0,1-1.92,1.63H90.73l1.4-7.69c-.32-.11-.64-.21-1-.29A5.76,5.76,0,0,0,89.93,28a3.32,3.32,0,0,0-1.08.15,2.12,2.12,0,0,0-1,.64,2.26,2.26,0,0,0-.5,1.49c0,1.77,1.39,4.23,3.77,6.23a10.67,10.67,0,0,0,6.16,2.76,2.52,2.52,0,0,0,2-.78,2.22,2.22,0,0,0,.49-1.51c0-1.47-1-3.44-2.72-5.21"/></g></svg>