<svg xmlns="http://www.w3.org/2000/svg" viewBox="0 0 75.46 38.58"><defs><style>.cls-1{fill:#a5714e;}</style></defs><title>t1-ch-320x100</title><g id="Layer_2" data-name="Layer 2"><g id="Layer_2-2" data-name="Layer 2"><path class="cls-1" d="M6.79,15.16c0,.61-.13.92-.58,1.1A6.08,6.08,0,0,1,4,16.48a3.66,3.66,0,0,0-.4-1.07c.83,0,1.55,0,1.77,0s.31-.07.31-.27V13.41H2.05A6.33,6.33,0,0,1,.92,16.6a3.94,3.94,0,0,0-.85-.88A6.57,6.57,0,0,0,1,11.85V7.92H6.79ZM4.57,5.89h3v1H.13v-1H3.31V4.72H.9v-1H3.31V2.67H.41v-1h2.9V.05H4.57V1.66H7.33v1H4.57V3.75H6.88v1H4.57Zm1.07,6.57V11.18H2.14v.69c0,.19,0,.37,0,.59ZM2.14,9v1.26h3.5V9Zm14.37.56H15.34V12.3h-3.1V15c0,.7-.12,1-.59,1.22a6.61,6.61,0,0,1-2.2.22,4.74,4.74,0,0,0-.39-1.19c.73,0,1.45,0,1.67,0S11,15.21,11,15V12.3H8.37V11.18H11V9.51H7.6V8.32H11V6.77H8.43V5.65h6.91V8.32h1.17Zm-.59-8.32A43.72,43.72,0,0,1,8,2.5a3.44,3.44,0,0,0-.36-.95A45.84,45.84,0,0,0,15,.27ZM9.18,5.58a9.42,9.42,0,0,0-1-2.37l1-.38a9.16,9.16,0,0,1,1.1,2.32Zm2.2-.32a12,12,0,0,0-.74-2.52l1-.22A10.52,10.52,0,0,1,12.46,5Zm.86,3.06h1.95V6.77H12.24Zm1.95,1.19H12.24v1.67h1.95ZM13.32,4.9A16.49,16.49,0,0,0,14.6,2.18l1.14.34c-.45,1-1,2-1.41,2.72Z"/><path class="cls-1" d="M25.79,4H19.94V2.9h3A16.29,16.29,0,0,0,21.49.54l1-.54a18.58,18.58,0,0,1,1.53,2.43l-.83.47h2.57ZM20.48,7.76h4.79V8.82H20.48Zm4.83,7.71H21.62v.84H20.48v-6h4.83Zm0-9.06H20.5V5.35h4.79Zm-3.67,5v3h2.55v-3Zm8.78-1.8c-1.15,0-1.58-.27-1.69-1.15A15.73,15.73,0,0,1,26.3,9.94a7.81,7.81,0,0,0-.79-1,20,20,0,0,0,3.18-2V2.72h1.25V6A16.42,16.42,0,0,0,33.81.63L34.94,1a19.2,19.2,0,0,1-5,6.48v.44c0,.45.09.54.63.54H32.4c.49,0,.58-.29.63-2.06a3.77,3.77,0,0,0,1.1.49c-.12,2.14-.47,2.7-1.6,2.7Zm-4.71-2.9a10.3,10.3,0,0,0,1.24-3.2l1,.37a11.85,11.85,0,0,1-1.26,3.33ZM35.19,15h1V16H25.76V15h1.15V10.53h8.28ZM28,15h1.35V11.6H28Zm3.48-12A12.25,12.25,0,0,0,28.64,1L29.38.2a11.9,11.9,0,0,1,2.86,1.87Zm-1.16,8.7V15H31.7V11.6Zm2.36,0V15h1.39V11.6Zm1.64-8a13,13,0,0,1,1.87,3.51l-1,.41a13.66,13.66,0,0,0-1.82-3.56Z"/><path class="cls-1" d="M55.82,7.91V9.09H48.31a13.58,13.58,0,0,1-.21,1.39h7.43v1.17H47.77c-.84,2.47-2.77,4-7.49,4.81a4.52,4.52,0,0,0-.7-1.21c4.16-.59,5.92-1.75,6.74-3.6h-6V10.48h6.42a11.15,11.15,0,0,0,.24-1.39H39.87V7.91h7.22V6.39h-5.6V5.22h5.6V3.76H40.5V2.56h3.8A10.11,10.11,0,0,0,42.91.47L44.06,0a8.73,8.73,0,0,1,1.59,2.27L45,2.56h4.74A20.3,20.3,0,0,0,51.29,0l1.36.42a24.92,24.92,0,0,1-1.44,2.14h3.84v1.2H48.42V5.22h5.76V6.39H48.42V7.91Zm-7.36,3.94a44.54,44.54,0,0,1,7.34,3.56l-.63,1.16a42.06,42.06,0,0,0-7.29-3.73Z"/><path class="cls-1" d="M65.07,13.52a19,19,0,0,1-4.66,2.69,7.91,7.91,0,0,0-1-1,15.75,15.75,0,0,0,4.4-2.2ZM75.46,6.86V8H59.65V6.86h7.29a6.33,6.33,0,0,0-.54-.81l1-.34H61.69v-5H73.48v5H67.63a7.76,7.76,0,0,1,.74,1.15Zm-7.2,5.71v2.64c0,.67-.16,1-.69,1.12a9.36,9.36,0,0,1-2.61.18,4.76,4.76,0,0,0-.37-1.08c.91,0,1.78,0,2,0s.31-.09.31-.29V12.57H62.1V8.9h11v3.67ZM63,2.75h9.21V1.64H63Zm0,2h9.21V3.64H63Zm.44,6.79h8.41V9.89H63.4Zm7.24,1.53a25.29,25.29,0,0,1,4.77,2.27l-.9.88a25.52,25.52,0,0,0-4.72-2.38Z"/><path class="cls-1" d="M5.35,34.12c-1.71.72-3.51,1.4-4.92,2L0,34.77,2.11,34V27.67H.22V26.43H2.11V22.27H3.35v4.16H5.06v1.24H3.35v5.91l1.75-.65ZM16,28.25a20.3,20.3,0,0,1-2.52,6.07c.43,1.72,1,2.73,1.57,2.73.34,0,.52-.88.59-2.95a2.71,2.71,0,0,0,1,.68c-.2,2.71-.58,3.53-1.75,3.53-1,0-1.76-1-2.32-2.7a12.84,12.84,0,0,1-3,2.83,5.07,5.07,0,0,0-.93-.92,12.22,12.22,0,0,0,3.55-3.4,49.28,49.28,0,0,1-.87-8.07H7.06v2.41H10.5s0,.38,0,.54c-.06,4.11-.13,5.55-.47,6a1.14,1.14,0,0,1-.92.5,10.73,10.73,0,0,1-1.62,0,2.92,2.92,0,0,0-.3-1.13c.61.05,1.17.05,1.4.05s.36,0,.43-.18.27-1.42.33-4.64H7.06v.79c0,2.52-.31,5.94-2.23,8.18a4.29,4.29,0,0,0-1-.85c1.81-2.07,2-5,2-7.35V24.81h5.42q-.06-1.35-.06-2.76h1.28c0,.94,0,1.88,0,2.76h2.41a12.56,12.56,0,0,0-2.07-2l.9-.58a10.47,10.47,0,0,1,2.14,2l-.9.61h1.32v1.24H12.51a57.4,57.4,0,0,0,.58,6.48,18.39,18.39,0,0,0,1.64-4.48Z"/><path class="cls-1" d="M28.6,26v2.43h5.84v6.3c0,.77-.18,1.17-.76,1.4a11,11,0,0,1-3.15.24A4.91,4.91,0,0,0,30.06,35c1.23,0,2.31,0,2.61,0s.42-.11.42-.36v-5H28.6v8.74H27.25V29.74H23v6.68H21.71v-8h5.54V26H20V24.68h7.67a21.76,21.76,0,0,0-1.19-2.36l1.28-.39a16.17,16.17,0,0,1,1.41,2.66l-.24.09H36V26Z"/><path class="cls-1" d="M44.82,26.5a19.69,19.69,0,0,1-1.46,2.22v9.76H42.1V30.23a18.4,18.4,0,0,1-2,2,12,12,0,0,0-.71-1.28,17,17,0,0,0,4.31-4.86Zm-.16-3.89a17.53,17.53,0,0,1-4.3,4.29,7.11,7.11,0,0,0-.71-1.1,13,13,0,0,0,3.75-3.67Zm6.07,7.85v1.41H55V33H50.73v1.53h5.09v1.19H50.73v2.77H49.41V35.72H44.57V34.53h4.84V33h-4V31.87h4V30.46h-3.8V29.33h3.8V27.8H44.84V26.63h4.57V25.1H45.69V24h3.72V22.07h1.32V24h4v2.67H56V27.8H54.71v2.66Zm0-3.83h2.68V25.1H50.73Zm0,2.7h2.68V27.8H50.73Z"/><path class="cls-1" d="M75.42,26.23s0,.51,0,.69c-.2,7.54-.36,10-1,10.8a1.41,1.41,0,0,1-1.2.67,13.06,13.06,0,0,1-2.18,0,3.66,3.66,0,0,0-.38-1.26c.87.07,1.66.08,2,.08a.68.68,0,0,0,.65-.28c.41-.53.63-2.9.81-9.44H71.55c-.21,4.79-1,8.72-4.21,11.09a4.72,4.72,0,0,0-1-.95c.29-.2.54-.42.79-.63-2.73.32-5.52.63-7.54.85l-.2-1.18c1.08-.09,2.43-.21,3.91-.36V34.77H59.9v-1h3.41v-1.1H59.94V27.29h3.37V26.16H59.42v-1h3.89V23.93c-1.15.09-2.33.16-3.39.2a4.16,4.16,0,0,0-.32-1,55,55,0,0,0,7.76-.88l.66,1a32,32,0,0,1-3.51.52v1.32h3.82v1H64.51v1.13H68v5.35h-3.5v1.1H68v1H64.51v1.42c1.17-.11,2.4-.23,3.6-.38v.09c1.57-2.12,2-5,2.2-8.41h-2.1V26.23h2.14c0-1.26,0-2.57,0-3.94h1.26c0,1.35,0,2.68,0,3.94ZM61,29.51h2.27v-1.3H61Zm2.27,2.2V30.39H61v1.32Zm1.2-3.5v1.3h2.36v-1.3Zm2.36,2.18H64.51v1.32h2.36Z"/></g></g></svg>