<svg xmlns="http://www.w3.org/2000/svg" viewBox="0 0 75.39 16.51"><defs><style>.cls-1{fill:#a5714e;}</style></defs><title>t4-ch-320x100</title><g id="Layer_2" data-name="Layer 2"><g id="Layer_2-2" data-name="Layer 2"><path class="cls-1" d="M5.6,10.32a37.89,37.89,0,0,1,2.5,4.59l-1.2.66c-.2-.48-.49-1.13-.83-1.8C1.53,15.38.94,15.63.56,15.92A5.81,5.81,0,0,0,0,14.55a1.21,1.21,0,0,0,.76-1.14V1H7.62V9.4H2.09v4.43l3.44-1.12c-.36-.65-.74-1.29-1.07-1.85ZM2.09,2.16V4.5H6.3V2.16Zm4.21,6V5.71H2.09V8.19Zm8.86,3.17c0,.76-.16,1.14-.65,1.35A6.74,6.74,0,0,1,11.9,13a4.58,4.58,0,0,0-.39-1.28c.93,0,1.76,0,2,0s.35-.08.35-.33v-9H10.59V16.46H9.27V1.06h5.89Z"/><path class="cls-1" d="M23.47,0h1.24V16.46H23.47V10.17h-2v.44a12,12,0,0,1-1.3,5.88,3.29,3.29,0,0,0-1-.65,10.73,10.73,0,0,0,1.13-5.27v-.4h-1V9h4.12V6.34H20.11V.72h1.18V5.17h2.18ZM35.14,1.89C33.57,5.78,29.81,8,26,9.06a3.84,3.84,0,0,0-.67-1,14.66,14.66,0,0,0,5.42-2.51,13.24,13.24,0,0,0-2.27-2.41,16.34,16.34,0,0,1-2.64,1.5c-.2-.22-.6-.62-.83-.83A12.37,12.37,0,0,0,30.19,0l1.29.38a8.18,8.18,0,0,1-1,1.15H34.1l.23-.05Zm.59,8.5H33.41v4.3c0,.76-.16,1.14-.7,1.35a8.82,8.82,0,0,1-2.84.24A4.63,4.63,0,0,0,29.43,15c1.08,0,2.05,0,2.33,0s.37-.07.37-.33V10.39h-6.8V9.2h6.8V6.66h1.28V9.2h2.32ZM29.27,5.83c-1.31.2-2.56.36-3.65.53l-.24-1c1-.09,2.36-.27,3.82-.45Zm-1.62,5A13.82,13.82,0,0,1,30,13.7l-1.1.69a14,14,0,0,0-2.31-3Zm1.71-8.3,0,0a14.26,14.26,0,0,1,2.29,2.32A8.77,8.77,0,0,0,33.5,2.52Z"/><path class="cls-1" d="M55.14,3A25.42,25.42,0,0,1,52.4,5.15a12.48,12.48,0,0,0,3.39,2.09,5,5,0,0,0-.92,1.1,14,14,0,0,1-4.27-3.1v.92H44.15V5.31A15.39,15.39,0,0,1,39.72,8.5a5.26,5.26,0,0,0-.82-1,12.73,12.73,0,0,0,3.64-2.38,12.23,12.23,0,0,0-2.29-1.82L41,2.54a11.55,11.55,0,0,1,2.36,1.8,12.54,12.54,0,0,0,1.8-2.52h-4.9V.68h5.53L46,.63l.88.45A12.3,12.3,0,0,1,44.44,5h5.94a16.12,16.12,0,0,1-3-4.59L48.57.05a13,13,0,0,0,1.24,2.24A23.46,23.46,0,0,0,52.13.16l1,.72A26.63,26.63,0,0,1,50.42,3.1a15.3,15.3,0,0,0,1.21,1.36,22.54,22.54,0,0,0,2.5-2.17Zm-3.8,9.58c-.38.77-.83,1.62-1.21,2.3h5.12V16H39.49V14.85h4.93a9.33,9.33,0,0,0-1-2.23l1.2-.38a9.63,9.63,0,0,1,1.1,2.24l-1.11.37h4.15a16.27,16.27,0,0,0,1.32-2.64Zm1-.45H42.16V7.62H52.35ZM50.94,8.73H43.47V11h7.47Z"/><path class="cls-1" d="M64.64,10.57c-1.82.92-3.78,1.87-5.29,2.59l-.53-1.31c.69-.29,1.53-.65,2.45-1.06V5.15h-2.1V3.89h2.1V.14h1.25V3.89h1.94V5.15H62.52v5.06l1.83-.83ZM68,8.5a12.57,12.57,0,0,1-.78,1.26H75a4.64,4.64,0,0,1-.06.54c-.27,3.71-.56,5.11-1.06,5.63a1.42,1.42,0,0,1-1,.45c-.39,0-1.06,0-1.78,0a2.26,2.26,0,0,0-.31-1.08c.67.05,1.26.07,1.53.07s.42,0,.54-.2c.31-.32.58-1.46.82-4.28H72.22a12.5,12.5,0,0,1-3.67,5.63,3.87,3.87,0,0,0-1-.77,10.58,10.58,0,0,0,3.51-4.86H69.36A13.71,13.71,0,0,1,65,15.74a3.5,3.5,0,0,0-.88-.83,11.91,11.91,0,0,0,4.05-4H66.33a12.34,12.34,0,0,1-2.34,2,5.7,5.7,0,0,0-.92-.83,10.26,10.26,0,0,0,3.57-3.6H64.12V7.36H75.39V8.5Zm6.12-2.14H65.88V.54h8.23ZM72.87,1.55H67.11V3h5.76Zm0,2.36H67.11V5.35h5.76Z"/></g></g></svg>