<svg xmlns="http://www.w3.org/2000/svg" viewBox="0 0 19.97 36.79"><defs><style>.cls-1{fill:#ffda00;}</style></defs><title>Asset5</title><g id="Layer_2" data-name="Layer 2"><g id="Layer_1-2" data-name="Layer 1"><path class="cls-1" d="M1.49,35.3V21.84H5.91v2a.74.74,0,0,0,.75.75h6.66a.74.74,0,0,0,.74-.75v-2h4.42V35.3Zm17-32.39H1.5V1.5h17ZM6.66,7.17h6.66a.74.74,0,0,0,.74-.75v-2h4.42V17h-17V4.4H5.91v2a.74.74,0,0,0,.75.75M7.4,4.4h5.17V5.68H7.4ZM1.49,18.52h17v1.83h-17ZM7.4,21.84h5.17v1.28H7.4ZM19.23,0H.75A.75.75,0,0,0,0,.75V36a.74.74,0,0,0,.75.75H19.23A.74.74,0,0,0,20,36V.75A.75.75,0,0,0,19.23,0"/><path class="cls-1" d="M7.84,9.11h4.29a.75.75,0,1,0,0-1.5H7.84a.75.75,0,0,0,0,1.5"/><path class="cls-1" d="M12.13,25.33H7.84a.75.75,0,0,0,0,1.5h4.29a.75.75,0,1,0,0-1.5"/></g></g></svg>