<svg xmlns="http://www.w3.org/2000/svg" viewBox="0 0 242.31 16.06"><defs><style>.cls-1{fill:#231f20;}</style></defs><title>t1-97090</title><g id="Layer_2" data-name="Layer 2"><g id="Layer_1-2" data-name="Layer 1"><path class="cls-1" d="M9.85,10.63V8h7.32a8.47,8.47,0,0,1-1,4.5,7,7,0,0,1-3,2.62,10,10,0,0,1-4.4.95,8.8,8.8,0,0,1-6.5-2.27A7.8,7.8,0,0,1,0,8,8.09,8.09,0,0,1,1.12,3.75a7.29,7.29,0,0,1,3-2.81A9.14,9.14,0,0,1,8.27,0a7.2,7.2,0,0,1,4.89,1.53V.25h2.65V5.79H13.16a3.89,3.89,0,0,0-1.65-2.21,4.74,4.74,0,0,0-2.65-.81A4.33,4.33,0,0,0,5.68,4.09,5,5,0,0,0,4.37,7.75a5.63,5.63,0,0,0,1.34,4.07A4.33,4.33,0,0,0,9,13.22a3.83,3.83,0,0,0,2.35-.69,3.5,3.5,0,0,0,1.29-1.9Z"/><path class="cls-1" d="M19.05,15.87V13.23h1.87V2.89H19.05V.25H32.82v5h-3V2.89H25v3.6H28.9V9.13H25v4.1h4.84V10.89h3v5Z"/><path class="cls-1" d="M37.32,15.87V13.23h2.34V2.89H37.32V6.53H34.63V.25H48.79V6.53H46.14V2.89H43.73V13.23h2.35v2.64Z"/><path class="cls-1" d="M71.32,13.23v2.64H63.64V13.23h2l-.74-2.68H60.84L60,13.23H62.1v2.64H55.18V13.23h1.94l3-10.34H58.08V.25h10.2V2.89h-2.1l3.28,10.34Zm-7.06-5L63,3.55l-1.41,4.7Z"/><path class="cls-1" d="M77.7,15.87V13.23h2.24V2.89H77.7V.25h14V5.07h-3V2.89H84V6.5h3.38V9.14H84v4.09h2.4v2.64Z"/><path class="cls-1" d="M109.41,13.23v2.64h-4.76L101.12,9H99.34v4.2h2v2.64H93.13V13.23h2.14V2.89H93.13V.25h9.42a4.86,4.86,0,0,1,3.83,1.34,4.46,4.46,0,0,1,1.18,3,4.06,4.06,0,0,1-2.71,3.88l2.54,4.72ZM99.34,6.54h1.39c1.72,0,2.58-.62,2.58-1.84a1.61,1.61,0,0,0-.59-1.36,2.6,2.6,0,0,0-1.62-.45H99.34Z"/><path class="cls-1" d="M110.82,15.87V13.23h1.87V2.89h-1.87V.25h13.77v5h-3V2.89h-4.84v3.6h3.91V9.13h-3.91v4.1h4.84V10.89h3v5Z"/><path class="cls-1" d="M127,15.87V13.23h1.88V2.89H127V.25h13.77v5h-3V2.89H132.9v3.6h3.91V9.13H132.9v4.1h4.84V10.89h3v5Z"/><path class="cls-1" d="M147.92,15.87V13.23h2V2.89h-2V.25h7.83l3.43,9.15L162.63.25h8V2.89h-2V13.23h2v2.64h-7.87V13.23h1.89V2.89h-.37l-4.84,13h-1.68l-4.9-13h-.37V13.23h2v2.64Z"/><path class="cls-1" d="M181.05,0a8.56,8.56,0,0,1,6.36,2.34A7.74,7.74,0,0,1,189.73,8a7.75,7.75,0,0,1-2.32,5.7,8.6,8.6,0,0,1-6.36,2.33,8.4,8.4,0,0,1-6.44-2.4A8,8,0,0,1,172.37,8a7.8,7.8,0,0,1,2.31-5.69A8.52,8.52,0,0,1,181.05,0Zm0,2.85A4,4,0,0,0,178,4.2a5.64,5.64,0,0,0-1.25,4A5.34,5.34,0,0,0,178,11.84a4.11,4.11,0,0,0,6.12,0A5.55,5.55,0,0,0,185.36,8a5.5,5.5,0,0,0-1.2-3.69A3.88,3.88,0,0,0,181.05,2.85Z"/><path class="cls-1" d="M191.47,15.87V13.23h2.09V2.89h-2.09V.25H198L203.78,10V2.89h-2V.25h7V2.89h-2.19V16h-3.48L196.34,4.4v8.83h2v2.64Z"/><path class="cls-1" d="M213,15.87V13.23h2.35V2.89H213V6.53h-2.68V.25h14.16V6.53h-2.65V2.89h-2.42V13.23h2.35v2.64Z"/><path class="cls-1" d="M226.24,15.87V13.23h1.95V2.89h-1.95V.25h7.55V2.89h-1.64V6.31h4.25V2.89h-1.58V.25h7.49V2.89h-2V13.23h2v2.64h-7.49V13.23h1.58V9h-4.25v4.27h1.64v2.64Z"/></g></g></svg>