<svg xmlns="http://www.w3.org/2000/svg" viewBox="0 0 237.77 29.36"><defs><style>.cls-1{fill:#231f20;}.cls-2{fill:#fff;}</style></defs><title>t4-97090</title><g id="Layer_2" data-name="Layer 2"><g id="Layer_1-2" data-name="Layer 1"><polygon class="cls-1" points="8.16 0 0 14.68 8.16 29.36 229.61 29.36 237.77 14.68 229.61 0 8.16 0"/><path class="cls-2" d="M33.08,8.08A7.12,7.12,0,0,1,38.38,10a6.45,6.45,0,0,1,1.94,4.74,6.49,6.49,0,0,1-1.94,4.75,7.17,7.17,0,0,1-5.3,1.94,7,7,0,0,1-5.36-2,6.61,6.61,0,0,1-1.87-4.69A6.5,6.5,0,0,1,27.77,10,7.14,7.14,0,0,1,33.08,8.08Zm0,2.38a3.35,3.35,0,0,0-2.54,1.12,4.7,4.7,0,0,0-1,3.29,4.42,4.42,0,0,0,1,3.07,3.29,3.29,0,0,0,2.55,1.15A3.33,3.33,0,0,0,35.63,18a4.59,4.59,0,0,0,1-3.25,4.56,4.56,0,0,0-1-3.07A3.22,3.22,0,0,0,33.08,10.46Z"/><path class="cls-2" d="M41.78,21.3V19.1h1.74V10.48H41.78V8.29h5.47L52,16.4V10.48h-1.7V8.29h5.84v2.19H54.36V21.39h-2.9l-5.62-9.64V19.1h1.64v2.2Z"/><path class="cls-2" d="M57.52,21.3V19.1h1.56V10.48H57.52V8.29H69v4.12H66.5V10.48h-4v3h3.26v2.2H62.47V19.1h4v-2H69V21.3Z"/><path class="cls-2" d="M75,21.3V19.1h1.68V10.48H75V8.29h6.53l2.85,7.62,2.87-7.62h6.65v2.19H92.2V19.1h1.68v2.2H87.34V19.1h1.57V10.48H88.6l-4,10.82H83.16L79.08,10.48h-.3V19.1h1.7v2.2Z"/><path class="cls-2" d="M102.6,8.08A7.14,7.14,0,0,1,107.9,10a6.48,6.48,0,0,1,1.93,4.74,6.49,6.49,0,0,1-1.94,4.75,7.16,7.16,0,0,1-5.29,1.94,7,7,0,0,1-5.37-2,6.66,6.66,0,0,1-1.87-4.69A6.47,6.47,0,0,1,97.29,10,7.11,7.11,0,0,1,102.6,8.08Zm0,2.38a3.32,3.32,0,0,0-2.54,1.12,4.66,4.66,0,0,0-1,3.29,4.47,4.47,0,0,0,1,3.07,3.42,3.42,0,0,0,5.1,0,4.59,4.59,0,0,0,1-3.25,4.61,4.61,0,0,0-1-3.07A3.23,3.23,0,0,0,102.6,10.46Z"/><path class="cls-2" d="M111.3,21.3V19.1H113V10.48H111.3V8.29h5.46l4.79,8.11V10.48h-1.69V8.29h5.83v2.19h-1.82V21.39H121l-5.61-9.64V19.1H117v2.2Z"/><path class="cls-2" d="M129.26,21.3V19.1h2V10.48h-2v3H127V8.29h11.8v5.23h-2.21v-3h-2V19.1h2v2.2Z"/><path class="cls-2" d="M140.3,21.3V19.1h1.63V10.48H140.3V8.29h6.29v2.19h-1.37v2.86h3.54V10.48h-1.32V8.29h6.24v2.19h-1.62V19.1h1.62v2.2h-6.24V19.1h1.32V15.55h-3.54V19.1h1.37v2.2Z"/><path class="cls-2" d="M159.58,21.3V19.1h1.86V10.48h-1.86V8.29h11.65v4h-2.49V10.48h-3.91v3h2.81v2.2h-2.81v3.4h2v2.2Z"/><path class="cls-2" d="M186,19.1v2.2h-4l-2.94-5.7h-1.49v3.5h1.63v2.2h-6.8V19.1h1.78V10.48h-1.78V8.29h7.85a4.06,4.06,0,0,1,3.19,1.11,3.76,3.76,0,0,1,1,2.53,3.38,3.38,0,0,1-2.26,3.24l2.12,3.93Zm-8.39-5.58h1.16c1.44,0,2.15-.51,2.15-1.53a1.33,1.33,0,0,0-.49-1.13,2.19,2.19,0,0,0-1.35-.38h-1.47Z"/><path class="cls-2" d="M187.21,21.3V19.1h1.56V10.48h-1.56V8.29h11.47v4.12h-2.49V10.48h-4v3h3.26v2.2h-3.26V19.1h4v-2h2.49V21.3Z"/><path class="cls-2" d="M200.69,21.3V19.1h1.57V10.48h-1.57V8.29h11.47v4.12h-2.48V10.48h-4v3h3.26v2.2h-3.26V19.1h4v-2h2.48V21.3Z"/></g></g></svg>