<svg width="300" height="50" viewBox="0 0 300 50" fill="none" xmlns="http://www.w3.org/2000/svg">
<path d="M11.0913 21.6149H11.0126C10.9392 21.8143 10.8343 22.0136 10.6978 22.213C10.5614 22.4019 10.3988 22.5698 10.2099 22.7167C10 22.8741 9.77969 22.9895 9.54883 23.063C9.27601 23.1469 8.9822 23.1889 8.6674 23.1889C7.84892 23.1889 7.18785 22.9213 6.68417 22.3861C6.18049 21.851 5.92865 21.0902 5.92865 20.1039V14.8782H7.64431V19.852C7.64431 21.1427 8.2057 21.788 9.32848 21.788C9.55933 21.788 9.77444 21.7565 9.97381 21.6936C10.1522 21.6516 10.3411 21.5677 10.5404 21.4417C10.6874 21.3473 10.8238 21.2004 10.9497 21.001C11.0441 20.8226 11.0913 20.618 11.0913 20.3872V14.8782H12.807V23H11.0913V21.6149ZM14.8149 23V14.8782H16.5306V16.2633H16.6093C16.6827 16.0639 16.7929 15.8593 16.9398 15.6495C17.0762 15.4501 17.2336 15.2822 17.412 15.1458C17.6009 14.9989 17.8213 14.8887 18.0731 14.8152C18.3459 14.7313 18.6397 14.6893 18.9545 14.6893C19.773 14.6893 20.4341 14.9569 20.9378 15.4921C21.4414 16.0272 21.6933 16.788 21.6933 17.7743V23H19.9776V18.0262C19.9776 16.7355 19.4162 16.0902 18.2935 16.0902C18.0941 16.0902 17.879 16.1164 17.6481 16.1689C17.4592 16.2318 17.2704 16.321 17.0815 16.4365C16.9241 16.5309 16.7929 16.6778 16.688 16.8772C16.5831 17.0451 16.5306 17.2497 16.5306 17.491V23H14.8149ZM28.5649 23H26.8335C26.1514 23 25.653 22.8216 25.3382 22.4648C25.0129 22.0976 24.8502 21.6306 24.8502 21.064V13.32H23.4651V12.0135H26.4557V21.6936H28.5649V23ZM33.8163 23.1889C33.2077 23.1889 32.6726 23.0892 32.2109 22.8898C31.7387 22.6904 31.3347 22.4071 30.9989 22.0399C30.6526 21.6621 30.3955 21.2161 30.2276 20.702C30.0492 20.1668 29.9601 19.5792 29.9601 18.9391C29.9601 18.299 30.0492 17.7114 30.2276 17.1762C30.3955 16.6621 30.6526 16.2161 30.9989 15.8383C31.3347 15.4711 31.7387 15.1878 32.2109 14.9884C32.6726 14.789 33.2077 14.6893 33.8163 14.6893C34.4249 14.6893 34.9653 14.789 35.4375 14.9884C35.9202 15.1983 36.3242 15.4816 36.6495 15.8383C36.9748 16.1951 37.2266 16.6411 37.405 17.1762C37.5834 17.7114 37.6726 18.299 37.6726 18.9391C37.6726 19.5792 37.5834 20.1668 37.405 20.702C37.2266 21.2371 36.9748 21.6831 36.6495 22.0399C36.3242 22.3966 35.9202 22.68 35.4375 22.8898C34.9653 23.0892 34.4249 23.1889 33.8163 23.1889ZM33.8163 21.8352C34.4459 21.8352 34.9496 21.6411 35.3274 21.2529C35.6946 20.8646 35.8783 20.298 35.8783 19.553V18.3252C35.8783 17.5802 35.6946 17.0083 35.3274 16.6096C34.9496 16.2318 34.4459 16.043 33.8163 16.043C33.1867 16.043 32.6883 16.2318 32.321 16.6096C31.9433 16.9978 31.7544 17.5697 31.7544 18.3252V19.553C31.7544 20.3085 31.9433 20.8751 32.321 21.2529C32.6778 21.6411 33.1762 21.8352 33.8163 21.8352ZM45.646 23C45.1528 23 44.7855 22.8741 44.5442 22.6222C44.2819 22.3599 44.1297 22.0294 44.0877 21.6306H44.009C43.8516 22.1343 43.5683 22.5173 43.1591 22.7796C42.7289 23.0525 42.1989 23.1889 41.5693 23.1889C40.7404 23.1889 40.0793 22.9685 39.5861 22.5278C39.0929 22.0976 38.8463 21.4995 38.8463 20.7335C38.8463 19.957 39.1402 19.3536 39.7278 18.9234C40.3154 18.5141 41.2073 18.3095 42.4036 18.3095H43.9618V17.6799C43.9618 16.5781 43.3794 16.0272 42.2147 16.0272C41.69 16.0272 41.265 16.1269 40.9397 16.3263C40.6249 16.5152 40.3521 16.788 40.1213 17.1448L39.0982 16.3105C39.3395 15.8698 39.7278 15.4868 40.2629 15.1615C40.8191 14.8467 41.5221 14.6893 42.3721 14.6893C43.4004 14.6893 44.2084 14.9359 44.796 15.4291C45.3837 15.9223 45.6775 16.6358 45.6775 17.5697V21.6464H46.7006V23H45.646ZM42.0573 21.9297C42.6134 21.9297 43.0699 21.8038 43.4267 21.5519C43.7834 21.3001 43.9618 20.9748 43.9618 20.5761V19.3956H42.435C41.1968 19.3956 40.5777 19.7681 40.5777 20.5131V20.8279C40.5777 21.2057 40.7089 21.4785 40.9712 21.6464C41.2441 21.8352 41.6061 21.9297 42.0573 21.9297ZM48.0317 23V14.8782H49.7473V16.2633H49.826C49.8995 16.0639 50.0097 15.8593 50.1566 15.6495C50.293 15.4501 50.4504 15.2822 50.6288 15.1458C50.8176 14.9989 51.038 14.8887 51.2898 14.8152C51.5627 14.7313 51.8565 14.6893 52.1713 14.6893C52.9898 14.6893 53.6508 14.9569 54.1545 15.4921C54.6582 16.0272 54.91 16.788 54.91 17.7743V23H53.1944V18.0262C53.1944 16.7355 52.633 16.0902 51.5102 16.0902C51.3108 16.0902 51.0957 16.1164 50.8649 16.1689C50.676 16.2318 50.4871 16.321 50.2982 16.4365C50.1408 16.5309 50.0097 16.6778 49.9047 16.8772C49.7998 17.0451 49.7473 17.2497 49.7473 17.491V23H48.0317ZM66.5508 14.8782H68.2822L64.3472 24.574C64.1478 25.0777 63.875 25.4712 63.5287 25.7545C63.1929 26.0168 62.6998 26.148 62.0492 26.148H60.6798V24.7629H62.6001L63.3399 22.8898L60.066 14.8782H61.8603L63.151 18.278L64.1583 21.064H64.2528L65.2601 18.278L66.5508 14.8782ZM72.6742 23.1889C72.0656 23.1889 71.5305 23.0892 71.0688 22.8898C70.5966 22.6904 70.1926 22.4071 69.8568 22.0399C69.5105 21.6621 69.2534 21.2161 69.0855 20.702C68.9072 20.1668 68.818 19.5792 68.818 18.9391C68.818 18.299 68.9072 17.7114 69.0855 17.1762C69.2534 16.6621 69.5105 16.2161 69.8568 15.8383C70.1926 15.4711 70.5966 15.1878 71.0688 14.9884C71.5305 14.789 72.0656 14.6893 72.6742 14.6893C73.2828 14.6893 73.8233 14.789 74.2954 14.9884C74.7781 15.1983 75.1821 15.4816 75.5074 15.8383C75.8327 16.1951 76.0846 16.6411 76.2629 17.1762C76.4413 17.7114 76.5305 18.299 76.5305 18.9391C76.5305 19.5792 76.4413 20.1668 76.2629 20.702C76.0846 21.2371 75.8327 21.6831 75.5074 22.0399C75.1821 22.3966 74.7781 22.68 74.2954 22.8898C73.8233 23.0892 73.2828 23.1889 72.6742 23.1889ZM72.6742 21.8352C73.3038 21.8352 73.8075 21.6411 74.1853 21.2529C74.5525 20.8646 74.7362 20.298 74.7362 19.553V18.3252C74.7362 17.5802 74.5525 17.0083 74.1853 16.6096C73.8075 16.2318 73.3038 16.043 72.6742 16.043C72.0446 16.043 71.5462 16.2318 71.1789 16.6096C70.8012 16.9978 70.6123 17.5697 70.6123 18.3252V19.553C70.6123 20.3085 70.8012 20.8751 71.1789 21.2529C71.5357 21.6411 72.0341 21.8352 72.6742 21.8352ZM83.166 21.6149H83.0873C83.0138 21.8143 82.9089 22.0136 82.7725 22.213C82.6361 22.4019 82.4734 22.5698 82.2846 22.7167C82.0747 22.8741 81.8543 22.9895 81.6235 23.063C81.3507 23.1469 81.0568 23.1889 80.742 23.1889C79.9236 23.1889 79.2625 22.9213 78.7588 22.3861C78.2551 21.851 78.0033 21.0902 78.0033 20.1039V14.8782H79.719V19.852C79.719 21.1427 80.2803 21.788 81.4031 21.788C81.634 21.788 81.8491 21.7565 82.0485 21.6936C82.2268 21.6516 82.4157 21.5677 82.6151 21.4417C82.762 21.3473 82.8984 21.2004 83.0243 21.001C83.1188 20.8226 83.166 20.618 83.166 20.3872V14.8782H84.8816V23H83.166V21.6149ZM86.7637 21.6149H88.92V16.2633H86.7637V14.8782H90.6357V17.0346H90.7301C90.8141 16.7198 90.919 16.447 91.0449 16.2161C91.1708 15.9748 91.344 15.7439 91.5643 15.5235C91.7637 15.3452 92.0208 15.1878 92.3356 15.0513C92.6504 14.9359 93.0072 14.8782 93.4059 14.8782H94.3818V16.5152H92.7763C92.1467 16.5152 91.6325 16.6988 91.2338 17.0661C90.8351 17.4438 90.6357 17.9475 90.6357 18.5771V21.6149H93.579V23H86.7637V21.6149ZM99.6322 11.3525H101.348V16.2633H101.427C101.5 16.0639 101.61 15.8593 101.757 15.6495C101.893 15.4501 102.051 15.2822 102.229 15.1458C102.418 14.9989 102.638 14.8887 102.89 14.8152C103.163 14.7313 103.457 14.6893 103.772 14.6893C104.59 14.6893 105.251 14.9569 105.755 15.4921C106.259 16.0272 106.51 16.788 106.51 17.7743V23H104.795V18.0262C104.795 16.7355 104.233 16.0902 103.111 16.0902C102.911 16.0902 102.696 16.1164 102.465 16.1689C102.276 16.2318 102.088 16.321 101.899 16.4365C101.741 16.5309 101.61 16.6778 101.505 16.8772C101.4 17.0451 101.348 17.2497 101.348 17.491V23H99.6322V11.3525ZM111.84 23.1889C111.231 23.1889 110.696 23.0892 110.234 22.8898C109.762 22.6904 109.358 22.4071 109.022 22.0399C108.676 21.6621 108.419 21.2161 108.251 20.702C108.072 20.1668 107.983 19.5792 107.983 18.9391C107.983 18.299 108.072 17.7114 108.251 17.1762C108.419 16.6621 108.676 16.2161 109.022 15.8383C109.358 15.4711 109.762 15.1878 110.234 14.9884C110.696 14.789 111.231 14.6893 111.84 14.6893C112.448 14.6893 112.989 14.789 113.461 14.9884C113.943 15.1983 114.347 15.4816 114.673 15.8383C114.998 16.1951 115.25 16.6411 115.428 17.1762C115.607 17.7114 115.696 18.299 115.696 18.9391C115.696 19.5792 115.607 20.1668 115.428 20.702C115.25 21.2371 114.998 21.6831 114.673 22.0399C114.347 22.3966 113.943 22.68 113.461 22.8898C112.989 23.0892 112.448 23.1889 111.84 23.1889ZM111.84 21.8352C112.469 21.8352 112.973 21.6411 113.351 21.2529C113.718 20.8646 113.901 20.298 113.901 19.553V18.3252C113.901 17.5802 113.718 17.0083 113.351 16.6096C112.973 16.2318 112.469 16.043 111.84 16.043C111.21 16.043 110.712 16.2318 110.344 16.6096C109.967 16.9978 109.778 17.5697 109.778 18.3252V19.553C109.778 20.3085 109.967 20.8751 110.344 21.2529C110.701 21.6411 111.199 21.8352 111.84 21.8352ZM116.633 23V14.8782H118.097V15.9328H118.176C118.281 15.597 118.465 15.2979 118.727 15.0356C118.832 14.9307 118.994 14.8467 119.215 14.7838C119.435 14.7208 119.656 14.6893 119.876 14.6893C120.38 14.6893 120.752 14.81 120.993 15.0513C121.245 15.3032 121.403 15.6232 121.466 16.0115H121.529C121.655 15.6442 121.864 15.3242 122.158 15.0513C122.295 14.9254 122.457 14.8362 122.646 14.7838C122.845 14.7208 123.108 14.6893 123.433 14.6893C123.758 14.6893 124.052 14.747 124.315 14.8625C124.587 14.9779 124.787 15.1405 124.913 15.3504C125.049 15.5813 125.144 15.8488 125.196 16.1531C125.248 16.447 125.275 16.8247 125.275 17.2864V23H123.811V17.5068C123.811 16.9716 123.737 16.5886 123.591 16.3578C123.507 16.2423 123.386 16.1584 123.228 16.1059C123.071 16.043 122.908 16.0115 122.741 16.0115C122.604 16.0115 122.457 16.0377 122.3 16.0902C122.153 16.1322 122.032 16.1951 121.938 16.2791C121.749 16.447 121.655 16.7198 121.655 17.0975V23H120.191V17.5068C120.191 17.1395 120.175 16.8824 120.143 16.7355C120.122 16.5781 120.081 16.4417 120.018 16.3263C119.86 16.1164 119.577 16.0115 119.168 16.0115C119.021 16.0115 118.869 16.0377 118.711 16.0902C118.564 16.1322 118.449 16.1951 118.365 16.2791C118.186 16.4574 118.097 16.7303 118.097 17.0975V23H116.633ZM130.243 23.1889C129.603 23.1889 129.046 23.0892 128.574 22.8898C128.071 22.68 127.656 22.3966 127.331 22.0399C126.985 21.6621 126.727 21.2161 126.56 20.702C126.381 20.1668 126.292 19.5844 126.292 18.9548C126.292 18.2938 126.386 17.7061 126.575 17.192C126.743 16.6883 127 16.2371 127.347 15.8383C127.682 15.4711 128.081 15.1878 128.543 14.9884C129.005 14.789 129.529 14.6893 130.117 14.6893C130.694 14.6893 131.208 14.7838 131.659 14.9726C132.132 15.1825 132.525 15.4606 132.84 15.8069C133.176 16.1741 133.427 16.5991 133.595 17.0818C133.763 17.554 133.847 18.0996 133.847 18.7187V19.3641H128.023V19.6317C128.023 20.2717 128.223 20.7912 128.622 21.1899C129.01 21.5991 129.561 21.8038 130.274 21.8038C130.809 21.8038 131.261 21.6883 131.628 21.4575C131.995 21.2371 132.294 20.9381 132.525 20.5603L133.595 21.5047C133.333 21.9559 132.918 22.3547 132.352 22.7009C131.796 23.0262 131.093 23.1889 130.243 23.1889ZM130.117 15.9957C129.802 15.9957 129.524 16.0482 129.283 16.1531C129.01 16.2686 128.789 16.4155 128.622 16.5939C128.433 16.7932 128.286 17.0241 128.181 17.2864C128.076 17.5383 128.023 17.8268 128.023 18.1521V18.2623H132.1V18.1049C132.1 17.4648 131.922 16.9506 131.565 16.5624C131.208 16.1846 130.725 15.9957 130.117 15.9957ZM144.355 23H142.623C141.941 23 141.443 22.8216 141.128 22.4648C140.803 22.0976 140.64 21.6306 140.64 21.064V13.32H139.255V12.0135H142.246V21.6936H144.355V23ZM149.606 23.1889C148.998 23.1889 148.462 23.0892 148.001 22.8898C147.528 22.6904 147.124 22.4071 146.789 22.0399C146.442 21.6621 146.185 21.2161 146.017 20.702C145.839 20.1668 145.75 19.5792 145.75 18.9391C145.75 18.299 145.839 17.7114 146.017 17.1762C146.185 16.6621 146.442 16.2161 146.789 15.8383C147.124 15.4711 147.528 15.1878 148.001 14.9884C148.462 14.789 148.998 14.6893 149.606 14.6893C150.215 14.6893 150.755 14.789 151.227 14.9884C151.71 15.1983 152.114 15.4816 152.439 15.8383C152.765 16.1951 153.016 16.6411 153.195 17.1762C153.373 17.7114 153.462 18.299 153.462 18.9391C153.462 19.5792 153.373 20.1668 153.195 20.702C153.016 21.2371 152.765 21.6831 152.439 22.0399C152.114 22.3966 151.71 22.68 151.227 22.8898C150.755 23.0892 150.215 23.1889 149.606 23.1889ZM149.606 21.8352C150.236 21.8352 150.739 21.6411 151.117 21.2529C151.484 20.8646 151.668 20.298 151.668 19.553V18.3252C151.668 17.5802 151.484 17.0083 151.117 16.6096C150.739 16.2318 150.236 16.043 149.606 16.043C148.977 16.043 148.478 16.2318 148.111 16.6096C147.733 16.9978 147.544 17.5697 147.544 18.3252V19.553C147.544 20.3085 147.733 20.8751 148.111 21.2529C148.468 21.6411 148.966 21.8352 149.606 21.8352ZM161.436 23C160.943 23 160.575 22.8741 160.334 22.6222C160.072 22.3599 159.919 22.0294 159.878 21.6306H159.799C159.641 22.1343 159.358 22.5173 158.949 22.7796C158.519 23.0525 157.989 23.1889 157.359 23.1889C156.53 23.1889 155.869 22.9685 155.376 22.5278C154.883 22.0976 154.636 21.4995 154.636 20.7335C154.636 19.957 154.93 19.3536 155.518 18.9234C156.105 18.5141 156.997 18.3095 158.193 18.3095H159.752V17.6799C159.752 16.5781 159.169 16.0272 158.004 16.0272C157.48 16.0272 157.055 16.1269 156.73 16.3263C156.415 16.5152 156.142 16.788 155.911 17.1448L154.888 16.3105C155.129 15.8698 155.518 15.4868 156.053 15.1615C156.609 14.8467 157.312 14.6893 158.162 14.6893C159.19 14.6893 159.998 14.9359 160.586 15.4291C161.173 15.9223 161.467 16.6358 161.467 17.5697V21.6464H162.49V23H161.436ZM157.847 21.9297C158.403 21.9297 158.86 21.8038 159.216 21.5519C159.573 21.3001 159.752 20.9748 159.752 20.5761V19.3956H158.225C156.987 19.3956 156.368 19.7681 156.368 20.5131V20.8279C156.368 21.2057 156.499 21.4785 156.761 21.6464C157.034 21.8352 157.396 21.9297 157.847 21.9297ZM163.821 23V14.8782H165.537V16.2633H165.616C165.689 16.0639 165.799 15.8593 165.946 15.6495C166.083 15.4501 166.24 15.2822 166.419 15.1458C166.607 14.9989 166.828 14.8887 167.08 14.8152C167.352 14.7313 167.646 14.6893 167.961 14.6893C168.78 14.6893 169.441 14.9569 169.944 15.4921C170.448 16.0272 170.7 16.788 170.7 17.7743V23H168.984V18.0262C168.984 16.7355 168.423 16.0902 167.3 16.0902C167.101 16.0902 166.886 16.1164 166.655 16.1689C166.466 16.2318 166.277 16.321 166.088 16.4365C165.931 16.5309 165.799 16.6778 165.695 16.8772C165.59 17.0451 165.537 17.2497 165.537 17.491V23H163.821Z" fill="#171D21"/>
</svg>
