<svg id="Layer_1" data-name="Layer 1" xmlns="http://www.w3.org/2000/svg" xmlns:xlink="http://www.w3.org/1999/xlink" viewBox="0 0 970 250"><defs><style>.cls-1{fill:none;}.cls-2{clip-path:url(#clip-path);}</style><clipPath id="clip-path"><rect class="cls-1" width="970" height="250"/></clipPath></defs><g class="cls-2"><path d="M71.9,126V74.71h38.72V86.1H85.73v9.84h18.71v11.23H85.73V126Z"/><path d="M141.2,102.53a11.71,11.71,0,0,0-6.26-1.55c-4.88,0-7.89,2.28-7.89,8.38V126H113.87V89.68h13.18V96.1A10.55,10.55,0,0,1,137,88.7a8.59,8.59,0,0,1,5,1.39Z"/><path d="M146,74.71h13.34V86.26H146Zm13.25,15V126H146.08V89.68Z"/><path d="M202.52,114c-1.87,8.29-8.54,12.93-18.13,12.93-11.63,0-19.93-7-19.93-18.55s8.46-19.68,19.76-19.68c12.12,0,18.55,8.3,18.55,18.14v3.66H177.31c.33,4.47,3.58,6.59,7.57,6.59,3.57,0,5.85-1.22,7.07-4.07Zm-12.28-9.84c-.16-3.26-2.27-6-6.18-6-4.23,0-6.1,2.6-6.59,6Z"/><path d="M221.31,126H208.14V89.68h13.17v5.45c1.95-4,6.26-6.43,11.71-6.43,9.93,0,13.1,6.92,13.1,14.48V126H232.94V106.68c0-5-1.38-7.57-5.37-7.57-4.47,0-6.26,3.58-6.26,9Z"/><path d="M278.89,119.77c-1.7,4.23-5.85,7.16-11.87,7.16-10.73,0-16.1-8.38-16.1-19.11S256.29,88.7,267,88.7c6,0,10.17,2.93,11.87,7.24V74.71h13.18V126H278.89Zm0-12.2c0-5.2-2.84-8.62-7.23-8.62-5.21,0-7.49,3.66-7.49,8.87s2.28,8.94,7.49,8.94c4.39,0,7.23-3.41,7.23-8.7Z"/></g></svg>