<svg id="Layer_1" data-name="Layer 1" xmlns="http://www.w3.org/2000/svg" xmlns:xlink="http://www.w3.org/1999/xlink" viewBox="0 0 970 250"><defs><style>.cls-1{fill:none;}.cls-2{clip-path:url(#clip-path);}</style><clipPath id="clip-path"><rect class="cls-1" width="970" height="250"/></clipPath></defs><g class="cls-2"><path d="M331.64,139H318.46V89.68h13.18v6.26c1.79-4.31,5.85-7.24,11.95-7.24,10.66,0,16.11,8.46,16.11,19.12s-5.45,19.11-16.11,19.11c-6.1,0-10.16-2.93-11.95-7.16Zm0-30.9c0,5.29,2.85,8.7,7.32,8.7,5.12,0,7.48-3.66,7.48-8.94S344.08,99,339,99c-4.47,0-7.32,3.42-7.32,8.62Z"/><path d="M398.82,115.3c0,1.87.81,2.68,2.19,2.68a7.42,7.42,0,0,0,2.93-.57v7a13.9,13.9,0,0,1-8.21,2.36c-4.47,0-8-2.28-9.19-6.43-2.12,4.23-6.26,6.43-12,6.43-7.07,0-11.71-3.66-11.71-9.85,0-7,5-10,12.93-11.38l10.17-1.71v-.57c0-3-1.39-4.8-4.56-4.8-2.92,0-4.39,1.87-5,4.56l-12.2-.82c1.14-8,7.08-13.5,18-13.5,9.59,0,16.67,4.15,16.67,14.24Zm-12.93-5-5.37,1c-3.17.65-5,1.63-5,4,0,1.87,1.46,3.09,3.66,3.09,3.74,0,6.75-2.77,6.75-7.48Z"/><path d="M411.59,139l5.2-12.52L402,89.68h13.83l8.05,21.23h.33l8.21-21.23h12.93L424.52,139Z"/></g></svg>