<svg id="Layer_1" data-name="Layer 1" xmlns="http://www.w3.org/2000/svg" xmlns:xlink="http://www.w3.org/1999/xlink" viewBox="0 0 970 250"><defs><style>.cls-1{fill:none;}.cls-2{clip-path:url(#clip-path);}.cls-3{fill:#eab8b9;}</style><clipPath id="clip-path"><rect class="cls-1" width="970" height="250"/></clipPath></defs><g class="cls-2"><g class="cls-2"><path class="cls-3" d="M26.7,230.87a2.81,2.81,0,0,1-.21-1.13.91.91,0,0,0-1-1H24v2.1h-.7v-5.2h2.11c1.32,0,2,.61,2,1.54a1.24,1.24,0,0,1-1.18,1.29,1.12,1.12,0,0,1,1,1.12c.07.76.09,1.06.26,1.25Zm-1.33-2.67c.88,0,1.28-.33,1.28-1s-.4-1-1.28-1H24v1.94Z"/><path class="cls-3" d="M31.52,229.66A1.61,1.61,0,0,1,29.83,231,1.76,1.76,0,0,1,28,229.12a1.84,1.84,0,0,1,1.82-2,1.66,1.66,0,0,1,1.73,1.8v.28H28.66a1.19,1.19,0,0,0,1.18,1.19,1,1,0,0,0,1.11-.84Zm-.69-.87a1,1,0,0,0-1-1.11,1.16,1.16,0,0,0-1.12,1.11Z"/><path class="cls-3" d="M35,230.12a1.36,1.36,0,0,1-1.3.85,1.92,1.92,0,0,1,0-3.81A1.36,1.36,0,0,1,35,228v-2.35h.68v5.2H35ZM35,229a1.13,1.13,0,0,0-1.14-1.24c-.71,0-1.11.53-1.11,1.35s.4,1.35,1.11,1.35A1.13,1.13,0,0,0,35,229.17Z"/><path class="cls-3" d="M40.32,230.87H38.11v-5.2h2.12c1.29,0,1.82.56,1.82,1.39a1.12,1.12,0,0,1-1,1.11,1.24,1.24,0,0,1,1.13,1.27C42.19,230.34,41.53,230.87,40.32,230.87Zm-1.52-3h1.45c.76,0,1.08-.33,1.08-.83s-.32-.83-1.08-.83H38.8Zm0,.55v1.81h1.5c.78,0,1.18-.33,1.18-.9s-.4-.91-1.18-.91Z"/><path class="cls-3" d="M42.93,225.67h.71v.78h-.71Zm.71,1.59v3.61H43v-3.61Z"/><path class="cls-3" d="M46.72,228a1,1,0,0,0-.56-.15c-.52,0-.91.47-.91,1.16v1.91h-.68v-3.61h.68V228a1.15,1.15,0,0,1,1-.84.73.73,0,0,1,.51.17Z"/><path class="cls-3" d="M49.92,230.12a1.36,1.36,0,0,1-1.3.85,1.92,1.92,0,0,1,0-3.81,1.36,1.36,0,0,1,1.3.86v-2.35h.68v5.2h-.68Zm0-1.16a1.13,1.13,0,0,0-1.14-1.24c-.71,0-1.11.53-1.11,1.35s.4,1.35,1.11,1.35a1.13,1.13,0,0,0,1.14-1.25Z"/><path class="cls-3" d="M54.73,230.87l-2.09-5.2h.74L55.14,230h0l1.71-4.37h.73l-2.1,5.2Z"/><path class="cls-3" d="M61.05,229.66A1.6,1.6,0,0,1,59.37,231a1.77,1.77,0,0,1-1.86-1.85,1.85,1.85,0,0,1,1.83-2,1.67,1.67,0,0,1,1.73,1.8v.28H58.2a1.18,1.18,0,0,0,1.18,1.19,1,1,0,0,0,1.1-.84Zm-.68-.87a1,1,0,0,0-1-1.11,1.17,1.17,0,0,0-1.13,1.11Z"/><path class="cls-3" d="M62.46,230.87h-.68v-3.61h.68v.65a1.29,1.29,0,0,1,1.2-.75c.94,0,1.32.63,1.32,1.47v2.24H64.3v-2.18c0-.6-.29-1-.86-1a1,1,0,0,0-1,1.09Z"/><path class="cls-3" d="M66,227.76h-.54v-.37l.23,0c.34-.07.41-.24.5-.58l.1-.51h.39v1h1v.5h-1V230c0,.32.13.47.45.47a1.37,1.37,0,0,0,.67-.22v.46a1.4,1.4,0,0,1-.92.31c-.51,0-.88-.24-.88-.94Z"/><path class="cls-3" d="M70.82,227.26h.69v3.61h-.69v-.64a1.25,1.25,0,0,1-1.18.74c-.94,0-1.29-.62-1.29-1.46v-2.25H69v2.18c0,.6.26,1,.83,1a1,1,0,0,0,.95-1.1Z"/><path class="cls-3" d="M74.6,228a1,1,0,0,0-.56-.15c-.52,0-.91.47-.91,1.16v1.91h-.68v-3.61h.68V228a1.12,1.12,0,0,1,1-.84.76.76,0,0,1,.52.17Z"/><path class="cls-3" d="M78.39,229.66A1.61,1.61,0,0,1,76.7,231a1.76,1.76,0,0,1-1.85-1.85,1.84,1.84,0,0,1,1.82-2A1.66,1.66,0,0,1,78.4,229v.28H75.53a1.18,1.18,0,0,0,1.18,1.19,1,1,0,0,0,1.11-.84Zm-.69-.87a1,1,0,0,0-1-1.11,1.16,1.16,0,0,0-1.12,1.11Z"/><path class="cls-3" d="M79.46,229.62a.94.94,0,0,0,1.07.85c.48,0,.84-.18.84-.54s-.24-.46-.69-.54l-.61-.1c-.68-.11-1.08-.4-1.08-1s.55-1.11,1.38-1.11,1.52.45,1.59,1.28l-.55,0c-.09-.56-.42-.81-1-.81-.45,0-.75.2-.75.53s.18.44.56.51l.67.1c.73.13,1.16.4,1.16,1.05S81.37,231,80.53,231s-1.58-.42-1.65-1.31Z"/><path class="cls-3" d="M85,225.67v4.61h2.9v.59H84.24v-5.2Z"/><path class="cls-3" d="M88.51,225.67h.71v.78h-.71Zm.7,1.59v3.61h-.69v-3.61Z"/><path class="cls-3" d="M94.37,227.16c.94,0,1.27.66,1.27,1.47v2.24H95v-2.18c0-.6-.24-1-.8-1a1,1,0,0,0-.92,1.09v2.07h-.69v-2.18c0-.6-.24-1-.8-1a1,1,0,0,0-.91,1.09v2.07h-.69v-3.61h.69v.65a1.18,1.18,0,0,1,1.14-.75,1.13,1.13,0,0,1,1.18.79A1.3,1.3,0,0,1,94.37,227.16Z"/><path class="cls-3" d="M96.52,225.67h.71v.78h-.71Zm.7,1.59v3.61h-.68v-3.61Z"/><path class="cls-3" d="M98.28,227.76h-.55v-.37l.23,0c.34-.07.42-.24.5-.58l.1-.51H99v1h1v.5H99V230c0,.32.13.47.45.47a1.44,1.44,0,0,0,.68-.22v.46a1.43,1.43,0,0,1-.93.31c-.51,0-.87-.24-.87-.94Z"/><path class="cls-3" d="M104,229.66a1.6,1.6,0,0,1-1.68,1.31,1.77,1.77,0,0,1-1.86-1.85,1.85,1.85,0,0,1,1.83-2A1.67,1.67,0,0,1,104,229v.28h-2.87a1.18,1.18,0,0,0,1.18,1.19,1,1,0,0,0,1.1-.84Zm-.68-.87a1,1,0,0,0-1-1.11,1.17,1.17,0,0,0-1.13,1.11Z"/><path class="cls-3" d="M107.42,230.12a1.36,1.36,0,0,1-1.3.85,1.92,1.92,0,0,1,0-3.81,1.36,1.36,0,0,1,1.3.86v-2.35h.68v5.2h-.68Zm0-1.16a1.13,1.13,0,0,0-1.15-1.24c-.71,0-1.11.53-1.11,1.35s.4,1.35,1.11,1.35a1.14,1.14,0,0,0,1.15-1.25Z"/><path class="cls-3" d="M108.88,230h.82v.83h-.82Z"/></g></g></svg>