<?xml version="1.0" encoding="UTF-8"?><svg xmlns="http://www.w3.org/2000/svg" viewBox="0 0 227.21 67.59"><defs><style>.d{fill:none;stroke:#ff3008;stroke-miterlimit:10;stroke-width:1.5px;}.e{fill:#ff3008;}</style></defs><g id="a"/><g id="b"><g id="c"><g><path class="d" d="M.75,1.77H12.21V13.99L22.14,1.77h12.73l-11.97,14.77,12.99,20.88h-12.99l-7.64-12.22-3.06,3.57v8.66H.75V1.77Z"/><path class="d" d="M39.16,1.77h11.46V37.42h-11.46V1.77Z"/><path class="d" d="M67.05,1.77h12.99l12.99,35.65h-12.22l-2.04-6.88h-10.44l-2.04,6.88h-12.22L67.05,1.77Zm9.42,20.88l-2.8-9.93h-.25l-2.8,9.93h5.86Z"/><path class="d" d="M126.84,.75c11.66,0,20.12,8.4,20.12,18.85s-8.46,18.85-20.12,18.85-20.12-8.4-20.12-18.85S115.17,.75,126.84,.75Zm0,27.5c4.89,0,8.66-3.77,8.66-8.66s-3.77-8.66-8.66-8.66-8.66,3.77-8.66,8.66,3.77,8.66,8.66,8.66Z"/><path class="d" d="M152.61,1.77h17.57c7.9,0,13.5,5.6,13.5,12.73,0,3.72-1.43,6.21-2.8,7.84-.87,.97-1.78,1.73-2.8,2.34l6.88,12.73h-11.97l-5.09-10.19h-3.82v10.19h-11.46V1.77Zm16.3,15.79c2.04,0,3.31-1.27,3.31-3.06s-1.27-3.06-3.31-3.06h-4.84v6.11h4.84Z"/><path class="d" d="M200.16,1.77h12.99l12.99,35.65h-12.22l-2.04-6.88h-10.44l-2.04,6.88h-12.22L200.16,1.77Zm9.42,20.88l-2.8-9.93h-.25l-2.8,9.93h5.86Z"/><path class="e" d="M28.96,51.08h5.5l2.18,8.83h.11l2.52-8.83h4.13l2.52,8.83h.11l2.18-8.83h5.5l-5.27,16.05h-4.47l-2.59-8.48h-.09l-2.59,8.48h-4.47l-5.27-16.05Z"/><path class="e" d="M54.98,51.08h12.73v4.24h-7.57v1.95h5.73v3.67h-5.73v1.95h7.8v4.24h-12.96v-16.05Z"/><path class="e" d="M70.35,51.08h5.16v11.24h6.65v4.82h-11.81v-16.05Z"/><path class="e" d="M84.1,51.08h5.16v11.24h6.65v4.82h-11.81v-16.05Z"/><path class="e" d="M97.86,51.08h5.16v16.05h-5.16v-16.05Z"/><path class="e" d="M106.23,51.08h4.47l5.96,7.68v-7.68h5.16v16.05h-4.47l-5.96-7.68v7.68h-5.16v-16.05Z"/><path class="e" d="M132.94,58.19h7.45v6.19c-.53,.6-1.15,1.12-1.86,1.61-1.21,.8-3,1.6-5.37,1.6-5.25,0-9.06-3.78-9.06-8.49s3.81-8.49,9.06-8.49c2.36,0,4.08,.76,5.25,1.56,.69,.46,1.26,.96,1.74,1.54l-3.1,3.33c-.27-.34-.6-.64-.99-.92-.64-.46-1.61-.92-2.8-.92-2.29,0-4.01,1.7-4.01,3.9s1.7,3.9,3.9,3.9c.85,0,1.47-.16,1.9-.34,.25-.09,.46-.21,.62-.34v-1.26h-2.75v-2.87Z"/><path class="e" d="M145.67,55.78h-4.24v-4.7h13.65v4.7h-4.24v11.35h-5.16v-11.35Z"/><path class="e" d="M164.7,50.62c5.25,0,9.06,3.78,9.06,8.49s-3.81,8.49-9.06,8.49-9.06-3.78-9.06-8.49,3.81-8.49,9.06-8.49Zm0,12.38c2.2,0,3.9-1.7,3.9-3.9s-1.7-3.9-3.9-3.9-3.9,1.7-3.9,3.9,1.7,3.9,3.9,3.9Z"/><path class="e" d="M176.05,51.08h4.47l5.96,7.68v-7.68h5.16v16.05h-4.47l-5.96-7.68v7.68h-5.16v-16.05Z"/></g></g></g></svg>