<?xml version="1.0" encoding="UTF-8"?><svg xmlns="http://www.w3.org/2000/svg" xmlns:xlink="http://www.w3.org/1999/xlink" viewBox="0 0 300 758"><defs><style>.e,.f{fill:none;}.g{fill:#fff;}.h{fill:#ff3008;}.f{stroke:#fff;stroke-miterlimit:10;}.i{clip-path:url(#d);}</style><clipPath id="d"><rect class="e" width="300" height="758"/></clipPath></defs><g id="a"/><g id="b"><g id="c"><g class="i"><g><path class="h" d="M118.06,27.21c3.73,0,6.56,2.82,6.56,6.38s-2.82,6.38-6.56,6.38h-4.41c-.18,0-.33-.15-.33-.33v-12.09c0-.18,.15-.33,.33-.33h4.41Zm-2,2.46v7.84h2c2.1,0,3.83-1.73,3.83-3.92s-1.64-3.92-3.83-3.92h-2Z"/><path class="h" d="M134.25,26.94c3.92,0,6.92,3.01,6.92,6.65s-3.01,6.65-6.92,6.65-6.92-3.01-6.92-6.65,3.01-6.65,6.92-6.65m0,10.84c2.28,0,4.21-1.82,4.21-4.19s-1.93-4.19-4.21-4.19-4.19,1.82-4.19,4.19,1.91,4.19,4.19,4.19"/><path class="h" d="M150.72,26.94c3.92,0,6.92,3.01,6.92,6.65s-3.01,6.65-6.92,6.65-6.92-3.01-6.92-6.65,3.01-6.65,6.92-6.65m0,10.84c2.28,0,4.21-1.82,4.21-4.19s-1.93-4.19-4.21-4.19-4.19,1.82-4.19,4.19,1.91,4.19,4.19,4.19"/><path class="h" d="M161.26,27.54c0-.18,.15-.33,.33-.33h5.32c2.55,0,4.37,1.86,4.37,4.19,0,2.73-2.28,3.73-2.28,3.73l2.45,4.34c.12,.22-.03,.49-.29,.49h-2.15c-.12,0-.23-.07-.29-.17l-2.36-4.29h-2.37v4.13c0,.18-.15,.33-.33,.33h-2.07c-.18,0-.33-.15-.33-.33v-12.09Zm5.56,2.13h-2.82v3.37h2.82c1,0,1.73-.73,1.73-1.64,0-1-.73-1.73-1.73-1.73"/><path class="h" d="M180.39,27.27c3.73,0,6.56,2.82,6.56,6.38s-2.82,6.38-6.56,6.38h-4.41c-.18,0-.33-.15-.33-.33v-12.09c0-.18,.15-.33,.33-.33h4.41Zm-2,2.46v7.84h2c2.1,0,3.83-1.73,3.83-3.92s-1.64-3.92-3.83-3.92h-2Z"/><path class="h" d="M192.82,36.95l-1.01,2.79c-.05,.13-.17,.22-.31,.22h-2.2c-.23,0-.39-.23-.31-.45l4.75-12.09c.05-.13,.17-.21,.31-.21h2.46c.14,0,.26,.08,.31,.21l4.75,12.09c.09,.22-.07,.45-.31,.45h-2.2c-.14,0-.26-.09-.31-.22l-1.01-2.79h-4.92Zm2.46-6.56l-1.55,4.19h3.1l-1.55-4.19Z"/><path class="h" d="M204.14,30.66c0-2,1.73-3.73,4.46-3.73,2.17,0,3.47,1.02,3.97,1.49,.13,.12,.13,.33,0,.46l-1.23,1.23c-.12,.12-.32,.13-.45,.02-.34-.31-1.08-.83-2.11-.83-1.09,0-1.91,.64-1.91,1.37,0,2.37,6.46,1,6.46,5.56,0,2.28-1.73,4.01-4.83,4.01-2.51,0-4.06-1.3-4.61-1.85-.13-.13-.12-.34,0-.47l1.18-1.18c.13-.13,.33-.13,.46,0,.41,.39,1.37,1.14,2.79,1.14s2.27-.73,2.27-1.64c0-2.37-6.46-1-6.46-5.56"/><path class="h" d="M225.06,27.53v4.77h-5.47v-4.77c0-.18-.15-.33-.33-.33h-2.07c-.18,0-.33,.15-.33,.33v12.09c0,.18,.15,.33,.33,.33h2.07c.18,0,.33-.15,.33-.33v-4.86h5.47v4.86c0,.18,.15,.33,.33,.33h2.07c.18,0,.33-.15,.33-.33v-12.09c0-.18-.15-.33-.33-.33h-2.07c-.18,0-.33,.15-.33,.33"/><path class="h" d="M102.53,28.87c-1.38-2.63-4.13-4.24-7.09-4.24h-22.46c-.68,0-1.03,.83-.54,1.32l4.89,4.92c.43,.44,1.02,.68,1.63,.68h15.83c.95,0,1.82,.64,2.02,1.58,.29,1.33-.71,2.5-1.98,2.5h-10.92c-.68,0-1.03,.83-.54,1.32l4.89,4.92c.43,.44,1.02,.68,1.63,.68h4.93c6.42,0,11.28-6.87,7.69-13.68"/></g><g><path class="f" d="M66.03,573.26h6.99l6.81,8.73,6.81-8.73h6.99v24.45h-7.86v-13.1l-5.94,7.51-5.94-7.51v13.1h-7.86v-24.45Z"/><path class="f" d="M111.4,572.56c8,0,13.8,5.76,13.8,12.92s-5.8,12.92-13.8,12.92-13.8-5.76-13.8-12.92,5.8-12.92,13.8-12.92Zm0,18.86c3.35,0,5.94-2.58,5.94-5.94s-2.58-5.94-5.94-5.94-5.94,2.58-5.94,5.94,2.58,5.94,5.94,5.94Z"/><path class="f" d="M129.16,573.26h12.05c5.41,0,9.26,3.84,9.26,8.73,0,2.55-.98,4.26-1.92,5.38-.59,.66-1.22,1.19-1.92,1.61l4.72,8.73h-8.21l-3.49-6.99h-2.62v6.99h-7.86v-24.45Zm11.18,10.83c1.4,0,2.27-.87,2.27-2.1s-.87-2.1-2.27-2.1h-3.32v4.19h3.32Z"/><path class="f" d="M154.88,573.26h19.38v6.46h-11.53v2.97h8.73v5.59h-8.73v2.97h11.88v6.46h-19.73v-24.45Z"/><path class="f" d="M191.56,580.42h-6.46v-7.16h20.78v7.16h-6.46v17.29h-7.86v-17.29Z"/><path class="f" d="M221.57,572.56c8,0,13.8,5.76,13.8,12.92s-5.8,12.92-13.8,12.92-13.8-5.76-13.8-12.92,5.8-12.92,13.8-12.92Zm0,18.86c3.35,0,5.94-2.58,5.94-5.94s-2.58-5.94-5.94-5.94-5.94,2.58-5.94,5.94,2.58,5.94,5.94,5.94Z"/><path class="g" d="M46.52,620.69l-8.73-15.72h8.56l4.02,9.26h.17l4.02-9.26h8.56l-8.73,15.72v8.73h-7.86v-8.73Z"/><path class="g" d="M75.86,604.27c8,0,13.8,5.76,13.8,12.92s-5.8,12.92-13.8,12.92-13.8-5.76-13.8-12.92,5.8-12.92,13.8-12.92Zm0,18.86c3.35,0,5.94-2.58,5.94-5.94s-2.58-5.94-5.94-5.94-5.94,2.58-5.94,5.94,2.58,5.94,5.94,5.94Z"/><path class="g" d="M92.8,604.97h7.86v14.15c0,2.13,1.71,3.84,3.67,3.84s3.67-1.71,3.67-3.84v-14.15h7.86v14.15c0,6.29-4.68,11-11.53,11s-11.53-4.71-11.53-11v-14.15Z"/><path class="g" d="M120.4,604.97h12.05c5.41,0,9.26,3.84,9.26,8.73,0,2.55-.98,4.26-1.92,5.38-.59,.66-1.22,1.19-1.92,1.61l4.72,8.73h-8.21l-3.49-6.99h-2.62v6.99h-7.86v-24.45Zm11.18,10.83c1.4,0,2.27-.87,2.27-2.1s-.87-2.1-2.27-2.1h-3.32v4.19h3.32Z"/><path class="g" d="M152.88,604.97h9.78c7.68,0,13.27,5.62,13.27,12.22s-5.59,12.22-13.27,12.22h-9.78v-24.45Zm9.61,17.81c3.35,0,5.59-2.24,5.59-5.59s-2.24-5.59-5.59-5.59h-1.75v11.18h1.75Z"/><path class="g" d="M191.83,604.27c8,0,13.8,5.76,13.8,12.92s-5.8,12.92-13.8,12.92-13.8-5.76-13.8-12.92,5.8-12.92,13.8-12.92Zm0,18.86c3.35,0,5.94-2.58,5.94-5.94s-2.58-5.94-5.94-5.94-5.94,2.58-5.94,5.94,2.58,5.94,5.94,5.94Z"/><path class="g" d="M221.52,604.27c8,0,13.8,5.76,13.8,12.92s-5.8,12.92-13.8,12.92-13.8-5.76-13.8-12.92,5.8-12.92,13.8-12.92Zm0,18.86c3.35,0,5.94-2.58,5.94-5.94s-2.58-5.94-5.94-5.94-5.94,2.58-5.94,5.94,2.58,5.94,5.94,5.94Z"/><path class="g" d="M238.81,604.97h12.05c5.41,0,9.26,3.84,9.26,8.73,0,2.55-.98,4.26-1.92,5.38-.59,.66-1.22,1.19-1.92,1.61l4.72,8.73h-8.21l-3.49-6.99h-2.62v6.99h-7.86v-24.45Zm11.18,10.83c1.4,0,2.27-.87,2.27-2.1s-.87-2.1-2.27-2.1h-3.32v4.19h3.32Z"/></g><g><path class="g" d="M72.08,542.93h3.3l4.4,5.67v-5.67h3.81v11.84h-3.3l-4.4-5.67v5.67h-3.81v-11.84Z"/><path class="g" d="M91.97,542.59c3.88,0,6.68,2.79,6.68,6.26s-2.81,6.26-6.68,6.26-6.68-2.79-6.68-6.26,2.81-6.26,6.68-6.26Zm0,9.14c1.62,0,2.88-1.25,2.88-2.88s-1.25-2.88-2.88-2.88-2.88,1.25-2.88,2.88,1.25,2.88,2.88,2.88Z"/><path class="g" d="M98.58,542.93h4.06l1.61,6.51h.08l1.86-6.51h3.05l1.86,6.51h.08l1.61-6.51h4.06l-3.89,11.84h-3.3l-1.91-6.26h-.07l-1.91,6.26h-3.3l-3.89-11.84Z"/><path class="g" d="M120.84,542.93h4.74c3.72,0,6.43,2.72,6.43,5.92s-2.71,5.92-6.43,5.92h-4.74v-11.84Zm4.65,8.63c1.62,0,2.71-1.08,2.71-2.71s-1.08-2.71-2.71-2.71h-.85v5.42h.85Z"/><path class="g" d="M133.7,542.93h9.39v3.13h-5.58v1.44h4.23v2.71h-4.23v1.44h5.75v3.13h-9.56v-11.84Z"/><path class="g" d="M145.05,542.93h3.81v8.29h4.91v3.55h-8.72v-11.84Z"/><path class="g" d="M155.21,542.93h3.81v11.84h-3.81v-11.84Z"/><path class="g" d="M159.95,542.93h4.06l2.12,8.04h.08l2.12-8.04h4.06l-4.06,11.84h-4.32l-4.06-11.84Z"/><path class="g" d="M173.32,542.93h9.39v3.13h-5.58v1.44h4.23v2.71h-4.23v1.44h5.75v3.13h-9.56v-11.84Z"/><path class="g" d="M184.66,542.93h5.84c2.62,0,4.48,1.86,4.48,4.23,0,1.24-.47,2.06-.93,2.61-.29,.32-.59,.58-.93,.78l2.28,4.23h-3.98l-1.69-3.38h-1.27v3.38h-3.81v-11.84Zm5.42,5.25c.68,0,1.1-.42,1.1-1.01s-.42-1.02-1.1-1.02h-1.61v2.03h1.61Z"/><path class="g" d="M196.85,542.93h3.81v11.84h-3.81v-11.84Z"/><path class="g" d="M203.03,542.93h3.3l4.4,5.67v-5.67h3.81v11.84h-3.3l-4.4-5.67v5.67h-3.81v-11.84Z"/><path class="g" d="M222.75,548.17h5.5v4.57c-.39,.44-.85,.83-1.37,1.18-.9,.59-2.22,1.18-3.96,1.18-3.88,0-6.68-2.79-6.68-6.26s2.81-6.26,6.68-6.26c1.74,0,3.01,.56,3.88,1.15,.51,.34,.93,.71,1.29,1.13l-2.28,2.45c-.2-.25-.44-.47-.73-.68-.47-.34-1.18-.68-2.07-.68-1.69,0-2.96,1.25-2.96,2.88s1.25,2.88,2.88,2.88c.63,0,1.08-.12,1.4-.25,.19-.07,.34-.15,.46-.25v-.93h-2.03v-2.12Z"/></g></g></g></g></svg>