<?xml version="1.0" encoding="utf-8"?>
<!-- Generator: Adobe Illustrator 16.0.0, SVG Export Plug-In . SVG Version: 6.00 Build 0)  -->
<!DOCTYPE svg PUBLIC "-//W3C//DTD SVG 1.1//EN" "http://www.w3.org/Graphics/SVG/1.1/DTD/svg11.dtd">
<svg version="1.1" id="Layer_1" xmlns="http://www.w3.org/2000/svg" xmlns:xlink="http://www.w3.org/1999/xlink" x="0px" y="0px"
	 width="49.678px" height="49.932px" viewBox="0 0 49.678 49.932" enable-background="new 0 0 49.678 49.932" xml:space="preserve">
<polygon fill="#FFFFFF" stroke="#AFAFAF" stroke-width="0.1" stroke-miterlimit="10" points="37.586,0.05 13.422,0.05 
	13.422,49.882 49.628,49.882 49.628,12.091 "/>
<polygon fill="#4F5F80" points="49.628,12.091 37.587,0.05 37.587,12.091 "/>
<path fill="#4F5F80" d="M42.416,27.487c0,1.657-1.342,3-3,3H3c-1.657,0-3-1.343-3-3v-9.751c0-1.656,1.343-3,3-3h36.416
	c1.658,0,3,1.344,3,3V27.487z"/>
<g>
	<path fill="#FFFFFF" d="M13.88,24.023c0,0.516-0.187,0.921-0.556,1.217c-0.372,0.297-0.887,0.445-1.547,0.445
		c-0.608,0-1.147-0.114-1.615-0.344v-1.123c0.385,0.172,0.71,0.293,0.978,0.362c0.266,0.07,0.51,0.105,0.731,0.105
		c0.265,0,0.468-0.051,0.61-0.151c0.141-0.102,0.212-0.253,0.212-0.453c0-0.111-0.031-0.211-0.093-0.298
		c-0.063-0.087-0.155-0.171-0.274-0.252c-0.123-0.081-0.368-0.209-0.74-0.387c-0.349-0.163-0.609-0.32-0.784-0.472
		c-0.174-0.15-0.313-0.326-0.417-0.526c-0.104-0.2-0.156-0.435-0.156-0.702c0-0.505,0.17-0.901,0.514-1.189
		c0.341-0.289,0.813-0.434,1.417-0.434c0.297,0,0.58,0.035,0.848,0.105c0.271,0.07,0.552,0.169,0.846,0.297l-0.391,0.939
		c-0.304-0.125-0.557-0.212-0.754-0.261c-0.2-0.05-0.396-0.074-0.588-0.074c-0.229,0-0.404,0.053-0.526,0.16
		c-0.122,0.106-0.184,0.245-0.184,0.417c0,0.106,0.025,0.2,0.074,0.279c0.05,0.079,0.128,0.156,0.235,0.229
		c0.108,0.075,0.364,0.208,0.768,0.4c0.533,0.255,0.898,0.511,1.096,0.767C13.781,23.339,13.88,23.651,13.88,24.023z"/>
	<path fill="#FFFFFF" d="M16.657,24.737c0.208,0,0.458-0.045,0.749-0.137v0.886c-0.297,0.133-0.661,0.199-1.093,0.199
		c-0.476,0-0.823-0.12-1.039-0.361c-0.218-0.239-0.326-0.601-0.326-1.082V22.14h-0.569v-0.503l0.655-0.398l0.344-0.921h0.761v0.929
		h1.221v0.894h-1.221v2.103c0,0.169,0.047,0.294,0.143,0.374C16.375,24.697,16.501,24.737,16.657,24.737z"/>
	<path fill="#FFFFFF" d="M21.058,25.607l-0.23-0.593h-0.031c-0.2,0.252-0.407,0.426-0.617,0.525
		c-0.214,0.096-0.489,0.146-0.83,0.146c-0.419,0-0.749-0.12-0.988-0.359c-0.241-0.239-0.361-0.579-0.361-1.021
		c0-0.463,0.161-0.804,0.486-1.024c0.322-0.219,0.812-0.341,1.464-0.364l0.757-0.023v-0.191c0-0.442-0.226-0.663-0.679-0.663
		c-0.349,0-0.758,0.105-1.229,0.316l-0.395-0.804c0.502-0.263,1.059-0.395,1.67-0.395c0.585,0,1.034,0.128,1.346,0.383
		c0.313,0.255,0.469,0.643,0.469,1.162v2.906H21.058z M20.706,23.587l-0.46,0.016c-0.346,0.011-0.604,0.072-0.772,0.188
		c-0.169,0.114-0.254,0.288-0.254,0.522c0,0.335,0.192,0.503,0.577,0.503c0.276,0,0.496-0.079,0.662-0.238
		c0.164-0.158,0.247-0.369,0.247-0.632V23.587z"/>
	<path fill="#FFFFFF" d="M24.95,24.737c0.208,0,0.458-0.045,0.749-0.137v0.886c-0.296,0.133-0.66,0.199-1.092,0.199
		c-0.477,0-0.823-0.12-1.039-0.361c-0.219-0.239-0.326-0.601-0.326-1.082V22.14h-0.57v-0.503l0.656-0.398l0.343-0.921h0.761v0.929
		h1.221v0.894h-1.221v2.103c0,0.169,0.047,0.294,0.143,0.374C24.668,24.697,24.794,24.737,24.95,24.737z"/>
	<path fill="#FFFFFF" d="M26.53,20.119c0-0.388,0.216-0.581,0.647-0.581s0.647,0.193,0.647,0.581c0,0.185-0.055,0.329-0.162,0.43
		c-0.108,0.104-0.27,0.155-0.485,0.155C26.746,20.704,26.53,20.509,26.53,20.119z M27.771,25.607h-1.189v-4.361h1.189V25.607z"/>
	<path fill="#FFFFFF" d="M30.79,25.686c-1.357,0-2.036-0.745-2.036-2.235c0-0.741,0.185-1.307,0.554-1.699
		c0.369-0.391,0.898-0.587,1.588-0.587c0.505,0,0.957,0.099,1.357,0.297l-0.352,0.921c-0.187-0.076-0.361-0.137-0.522-0.187
		c-0.161-0.047-0.322-0.071-0.483-0.071c-0.619,0-0.929,0.439-0.929,1.318c0,0.854,0.31,1.279,0.929,1.279
		c0.229,0,0.44-0.029,0.636-0.092c0.195-0.06,0.39-0.156,0.585-0.286v1.018c-0.192,0.122-0.388,0.207-0.582,0.254
		C31.336,25.662,31.089,25.686,30.79,25.686z"/>
</g>
<g>
	<path fill="#4F5F80" d="M26.722,42.011c0,0.713-0.258,1.274-0.77,1.686c-0.516,0.41-1.229,0.616-2.143,0.616
		c-0.844,0-1.59-0.159-2.238-0.476V42.28c0.533,0.238,0.984,0.405,1.355,0.503c0.367,0.097,0.705,0.146,1.012,0.146
		c0.367,0,0.648-0.07,0.846-0.211c0.195-0.14,0.295-0.349,0.295-0.626c0-0.155-0.043-0.292-0.131-0.413
		c-0.086-0.12-0.213-0.237-0.379-0.35c-0.17-0.111-0.51-0.29-1.025-0.534c-0.482-0.228-0.844-0.445-1.086-0.654
		s-0.434-0.452-0.578-0.729s-0.217-0.602-0.217-0.973c0-0.698,0.236-1.248,0.713-1.647c0.471-0.4,1.127-0.601,1.963-0.601
		c0.41,0,0.803,0.049,1.174,0.146c0.375,0.097,0.764,0.234,1.17,0.41l-0.539,1.303c-0.422-0.173-0.771-0.294-1.045-0.362
		c-0.277-0.068-0.547-0.103-0.814-0.103c-0.316,0-0.561,0.074-0.729,0.222c-0.17,0.147-0.254,0.34-0.254,0.578
		c0,0.147,0.033,0.277,0.102,0.387c0.068,0.11,0.176,0.217,0.326,0.317c0.15,0.104,0.504,0.288,1.063,0.555
		c0.738,0.354,1.244,0.708,1.52,1.063C26.585,41.062,26.722,41.495,26.722,42.011z"/>
	<path fill="#4F5F80" d="M32.659,36.305h1.691l-2.686,7.899h-1.826l-2.68-7.899h1.691l1.486,4.7c0.082,0.277,0.166,0.602,0.256,0.97
		c0.088,0.371,0.143,0.626,0.164,0.771c0.041-0.331,0.176-0.911,0.406-1.74L32.659,36.305z"/>
	<path fill="#4F5F80" d="M38.345,39.768h3.133v4.096c-0.508,0.166-0.984,0.283-1.436,0.348c-0.445,0.067-0.906,0.102-1.373,0.102
		c-1.193,0-2.104-0.35-2.732-1.052c-0.629-0.699-0.943-1.706-0.943-3.018c0-1.275,0.367-2.27,1.094-2.982
		c0.732-0.713,1.742-1.07,3.035-1.07c0.811,0,1.592,0.162,2.346,0.486l-0.557,1.341c-0.576-0.289-1.176-0.433-1.801-0.433
		c-0.723,0-1.303,0.243-1.738,0.729c-0.438,0.486-0.654,1.14-0.654,1.961c0,0.857,0.176,1.514,0.525,1.966
		c0.354,0.452,0.863,0.677,1.533,0.677c0.35,0,0.705-0.036,1.064-0.108v-1.647h-1.496V39.768z"/>
</g>
</svg>
