<?xml version="1.0" encoding="utf-8"?>
<!-- Generator: Adobe Illustrator 23.0.3, SVG Export Plug-In . SVG Version: 6.00 Build 0)  -->
<svg version="1.1" id="Layer_1" xmlns="http://www.w3.org/2000/svg" xmlns:xlink="http://www.w3.org/1999/xlink" x="0px" y="0px"
	 viewBox="0 0 728 90" style="enable-background:new 0 0 728 90;" xml:space="preserve">
<style type="text/css">
	.st0{fill:#060866;}
	.st1{fill:#FFFFFF;}
</style>
<rect x="44" y="56" class="st0" width="210" height="27"/>
<g>
	<path class="st1" d="M49,63.6h3.2v1.5c0.9-1.3,2.1-1.8,3.4-1.8c3.1,0,4,2.5,4,5.3v6h-3.2v-6c0-1.5-0.6-2.7-2.1-2.7
		c-1.5,0-2.1,1.2-2.1,2.7v6H49V63.6z"/>
	<path class="st1" d="M67.1,63.3c3.3,0,6.1,2.3,6.1,5.8c0,3.5-2.9,5.8-6.1,5.8c-3.2,0-6.1-2.3-6.1-5.8
		C60.9,65.6,63.8,63.3,67.1,63.3z M67.1,72.1c1.6,0,3-1.3,3-3c0-1.7-1.4-3-3-3c-1.6,0-3,1.3-3,3C64.1,70.9,65.5,72.1,67.1,72.1z"/>
	<path class="st1" d="M78.4,63.6h3.1v2.5h-3.1v5.2c0,0.5,0.2,1,0.8,1s0.8-0.5,0.8-1c0-0.3-0.1-0.8-0.2-1h2.6
		c0.2,0.4,0.3,0.9,0.3,1.3c0,1.6-1.1,3.3-3.7,3.3c-2,0-3.9-0.7-3.9-3.9v-4.9h-1.7v-2.5h1.9l0.5-2.7h2.5V63.6z"/>
	<path class="st1" d="M92.3,63.6h3.1v2.5h-3.1v5.2c0,0.5,0.2,1,0.8,1s0.8-0.5,0.8-1c0-0.3-0.1-0.8-0.2-1h2.6
		c0.2,0.4,0.3,0.9,0.3,1.3c0,1.6-1.1,3.3-3.7,3.3c-2,0-3.9-0.7-3.9-3.9v-4.9h-1.7v-2.5h1.9l0.5-2.7h2.5V63.6z"/>
	<path class="st1" d="M97.6,59h3.2v6.1c0.9-1.3,2.1-1.8,3.4-1.8c3.1,0,4,2.5,4,5.3v6h-3.2v-6c0-1.5-0.6-2.7-2.1-2.7
		c-1.5,0-2.1,1.2-2.1,2.7v6h-3.2V59z"/>
	<path class="st1" d="M121.1,72.7c-1.6,1.7-3.7,2.2-5.2,2.2c-4.1,0-6.4-2.6-6.4-5.7c0-3.3,2.6-5.9,6.1-5.9c3.1,0,6,2.1,6,6.5h-9
		c0.1,1.4,1.3,2.4,3.4,2.4c1.1,0,2.3-0.6,3.1-1.3L121.1,72.7z M112.9,67.9h5.6c-0.2-1.4-1.7-2-2.8-2
		C114.6,65.9,113.3,66.4,112.9,67.9z"/>
	<path class="st1" d="M133.5,63.9h2.3l2,6.4l1.9-6.7h3.6l-0.9,2.5l-3.1,8.6h-2.8l-1.9-6.3l-1.9,6.3H130l-3.1-8.6l-0.9-2.5h3.6
		l1.9,6.7L133.5,63.9z"/>
	<path class="st1" d="M147.5,66c0.4-2,2.1-2.7,3.1-2.7c0.4,0,0.5,0,0.8,0.1v3.2c-0.5-0.1-1-0.2-1.4-0.2c-1.2,0-2.4,0.7-2.4,2.2v6
		h-3.2V63.6h3.1V66z"/>
	<path class="st1" d="M157.7,63.3c3.3,0,6.1,2.3,6.1,5.8c0,3.5-2.9,5.8-6.1,5.8c-3.2,0-6.1-2.3-6.1-5.8
		C151.6,65.6,154.5,63.3,157.7,63.3z M157.7,72.1c1.6,0,3-1.3,3-3c0-1.7-1.4-3-3-3c-1.6,0-3,1.3-3,3
		C154.8,70.9,156.2,72.1,157.7,72.1z"/>
	<path class="st1" d="M165.3,63.6h3.2v1.5c0.9-1.3,2.1-1.8,3.4-1.8c3.1,0,4,2.5,4,5.3v6h-3.2v-6c0-1.5-0.6-2.7-2.1-2.7
		c-1.5,0-2.1,1.2-2.1,2.7v6h-3.2V63.6z"/>
	<path class="st1" d="M189.4,73.9c0,4.4-2.9,6.1-6,6.1c-2.5,0-4.1-0.6-5.3-1.5l1.3-2.5c0.6,0.6,2.1,1.3,3.3,1.3
		c1.7,0,3.4-0.5,3.4-2.9V73c-0.8,1.1-1.9,1.9-3.5,1.9c-3.4,0-5.4-2.6-5.4-5.9c0-3.1,1.9-5.7,5.4-5.7c1.5,0,2.8,0.7,3.6,1.8v-1.5h3.2
		V73.9z M183.4,72.3c1.6,0,2.9-1,2.9-3c0-2.1-1.2-3.3-3-3.3c-1.8,0-2.8,1.4-2.8,3.1C180.5,70.9,181.6,72.3,183.4,72.3z"/>
	<path class="st1" d="M201.6,63.3c3.3,0,6.1,2.3,6.1,5.8c0,3.5-2.9,5.8-6.1,5.8c-3.2,0-6.1-2.3-6.1-5.8
		C195.5,65.6,198.4,63.3,201.6,63.3z M201.6,72.1c1.6,0,3-1.3,3-3c0-1.7-1.4-3-3-3c-1.6,0-3,1.3-3,3
		C198.7,70.9,200.1,72.1,201.6,72.1z"/>
	<path class="st1" d="M209.2,63.6h3.2v1.5c0.9-1.3,2.1-1.8,3.4-1.8c3.1,0,4,2.5,4,5.3v6h-3.2v-6c0-1.5-0.6-2.7-2.1-2.7
		c-1.5,0-2.1,1.2-2.1,2.7v6h-3.2V63.6z"/>
	<path class="st1" d="M232.7,72.7c-1.6,1.7-3.7,2.2-5.2,2.2c-4.1,0-6.4-2.6-6.4-5.7c0-3.3,2.6-5.9,6.1-5.9c3.1,0,6,2.1,6,6.5h-9
		c0.1,1.4,1.3,2.4,3.4,2.4c1.1,0,2.3-0.6,3.1-1.3L232.7,72.7z M224.4,67.9h5.6c-0.2-1.4-1.7-2-2.8-2
		C226.2,65.9,224.8,66.4,224.4,67.9z"/>
	<path class="st1" d="M236,70.7c0.3,1.3,1.5,1.7,2.3,1.7c0.7,0,1.5-0.3,1.5-0.8c0-0.4-0.2-0.6-0.8-0.8l-2-0.8
		c-2.6-0.9-2.8-2.7-2.8-3.2c0-2.2,2-3.4,4.4-3.4c1.3,0,3,0.3,4,2.3l-2.5,1.1c-0.3-0.9-1.1-1.1-1.6-1.1c-0.6,0-1.2,0.3-1.2,0.9
		c0,0.5,0.5,0.7,1,1l1.7,0.6c2.6,0.8,2.9,2.5,2.9,3.2c0,2.3-2.1,3.4-4.6,3.4c-1.6,0-3.9-0.5-4.7-2.8L236,70.7z"/>
	<path class="st1" d="M245.9,71.1c1.1,0,2.1,0.8,2.1,1.9c0,1.1-0.9,1.9-2.1,1.9c-1.2,0-2-0.8-2-1.9C243.9,72,244.8,71.1,245.9,71.1z
		"/>
</g>
</svg>
