<svg height="250" viewBox="0 0 300 250" width="300" xmlns="http://www.w3.org/2000/svg" xmlns:xlink="http://www.w3.org/1999/xlink"><linearGradient id="a" x1=".17767%" x2="100.177285%" y1="50.000017%" y2="50.000017%"><stop offset="0" stop-color="#dbdada"/><stop offset="1" stop-color="#929191"/></linearGradient><mask id="b" fill="#fff"><path d="m109.788066 0c-.590321.21436227-1.447793.46873884-2.57529.76170061-1.128934.29296177-2.164508.53876384-3.112467.7388353l.041653.23722758c.359075.01286173.647772.06716684.863217.16005716.214009.09146124.393547.24437299.537177.46016434.173793.2286531.288697.49732048.346149.80314398.056016.30725259.086178.78313684.086178 1.42479457v8.81028936c0 .7717042-.037343 1.3233298-.109159 1.6520186-.070378.3286888-.211136.5487674-.417964.663094-.2097.1143265-.557285.1872097-1.045628.2172204v.2129332h6.957448v-.2129332c-.486906-.0300107-.837364-.1028939-1.044191-.2172204-.209701-.1143266-.347586-.3372633-.419401-.6745266-.073251-.3344052-.107722-.8817435-.107722-1.640586zm-7.389775 0c-.59032.21436227-1.447793.46873884-2.5738536.76170061-1.1289335.29296177-2.1673799.53876384-3.1139031.7388353l.0416528.23722758c.3605118.01286173.6477723.06716684.8632176.16005716.2154453.09146124.3949831.24437299.537177.46016434.1737926.2286531.2886968.49732048.3447125.80314398.0588884.30725259.0861782.78313684.0861782 1.42479457v8.81028936c0 .7717042-.0359076 1.3233298-.1062864 1.6520186-.0732514.3286888-.214009.5487674-.4208365.663094-.1982097.1100393-.5271229.1814934-.983867.2129332-.5572853-.0371562-.9939211-.1714899-1.3099076-.4044302-.3303495-.2429439-.693734-.7359771-1.0887171-1.4805288-.394983-.7416934-.9953574-2.0478742-1.7996866-3.9228295l-2.7792447-6.66523762c-.3145502-.75598428-.6879887-1.72204358-1.1188794-2.89246159-.5888839.72740264-1.2222931 1.38049303-1.8959188 1.95927117-.6750621.57877813-1.2653823.98320829-1.768088 1.21186138.3303495.314398.6104284.68738835.8402367 1.11468381l-2.1745614 5.72347265c-.3734386 1.0289389-.8230012 1.937835-1.3472515 2.72383-.5256866.7845659-1.0815355 1.4062165-1.6689831 1.8635226-.5888839.4573062-1.1792041.714541-1.7666517.7731333v.2129332h6.6572606v-.2129332c-.675062-.0443015-1.2007486-.3015363-1.5741872-.7731333s-.5587215-1.101822-.5587215-1.887817c0-.4130047.0416527-.8160057.1292672-1.2090032.0847418-.3929975.2211905-.8531619.4079098-1.3833512h4.3519956l.475416 1.1132547c.6032469 1.4162201.9048704 2.3951411.9048704 2.9381922 0 .3858521-.1278309.6759557-.3777475.8674527-.2513529.1943551-.6348456.3043944-1.1519144.3344051v.2129332h8.5517432 6.9588845v-.2129332c-.488343-.0300107-.835928-.1028939-1.044192-.2172204-.208264-.1143266-.347585-.3372633-.420837-.6745266-.070379-.3344052-.106286-.8817435-.106286-1.640586zm-16.0736577 5.10182208 2.2190869 5.31618432h-4.2011839zm-78.43933436-2.58377992c-.67506202.57877813-1.26394591.98320829-1.76665168 1.21186138.3303495.314398.60899213.68738835.84023678 1.11468381l-2.1759978 5.72347265c-.37343856 1.0289389-.82156484 1.937835-1.34725144 2.72383-.52425029.7845659-1.08009923 1.4062165-1.67041943 1.8635226-.58744759.4573062-1.17633148.714541-1.76521537.7731333v.2129332h6.65726058v-.2129332c-.67506202-.0443015-1.19931232-.3015363-1.57275088-.7731333-.37200226-.471597-.56015785-1.101822-.56015785-1.887817 0-.4130047.04308907-.8160057.1292672-1.2090032s.22262683-.8531619.40934612-1.3833512h4.35199559l.47397971 1.1132547c.60324693 1.4162201.90487033 2.3951411.90487033 2.9381922 0 .3858521-.1249582.6759557-.3763111.8674527-.2513529.1943551-.63771819.3043944-1.15335067.3344051v.2129332h8.68244667v-.2129332c-.5903202-.0300107-1.0485006-.1657735-1.3788501-.4087174s-.6922977-.7359771-1.0887171-1.4805288c-.3949831-.7416934-.9939211-2.0478742-1.796814-3.9228295l-2.780681-6.66523762c-.3159865-.75598428-.689425-1.72204358-1.12175199-2.89246159-.58744759.72740264-1.21942055 1.38049303-1.89448257 1.95927117zm-.75405864 2.58377992 2.21908686 5.31618432h-4.19974756zm163.2501047-3.33404787c-.402164.27867095-.710969.67166845-.926414 1.17899249-.214009.50732405-.323168 1.10468025-.323168 1.79063952v.40728831c-.603247.02858164-1.098772.08288675-1.486573.16005717-.387802.0785995-.782785.21150411-1.184949.39728474-.705225.2986781-1.249583.67452662-1.637385 1.12611647-.389238.44873169-.581702.93319043-.581702 1.4462308 0 .57163272.175229 1.06180779.528559 1.46766702.350458.40728827.864654.72597357 1.539716.95462667-.861781.4587352-1.493754.9289032-1.895919 1.414791-.403601.4858878-.603247 1.0146481-.603247 1.5862808 0 .5444802.199646 1.0003573.603247 1.3704895.402165.3729903.983867.6430868 1.745107.8160057-.732514.2572347-1.288363.5573419-1.670419.9003215-.38062.3429797-.570212.7131118-.570212 1.1146838 0 .4287246.1939.7988568.581702 1.1161129.387802.3129689.940778.5559129 1.658929.7274027.718151.1729189 1.565569.2572347 2.542255.2572347 1.251019 0 2.391443-.1857806 3.425581-.5573419 1.034137-.3729904 1.848521-.8831726 2.444586-1.5319757.596065-.6502322.894816-1.3690604.894816-2.1550554 0-.6002144-.169483-1.13612-.505578-1.607717-.338967-.471597-.807202-.8388711-1.411885-1.1032512-.603247-.2643801-1.285491-.3958557-2.045295-.3958557-.245607 0-.726768.0128618-1.44492.0400143-.646335.0443016-1.136115.0657378-1.465028.0657378-.631973 0-1.127497-.035727-1.486572-.1057521-.359076-.0728831-.620483-.192926-.787094-.3658449-.163739-.1714898-.245608-.4001429-.245608-.6859593 0-.1714898.034472-.314398.106287-.4287245.071815-.1143266.1939-.2429439.366257-.3858521.473979.1429082.912052.2472311 1.314216.3115398.400728.0643087.818692.0957485 1.251019.0957485.904871 0 1.733617-.14005 2.487676-.418721.752622-.2786709 1.350124-.6602358 1.788196-1.14612358.438072-.48588781.65639-1.01464809.65639-1.58628081 0-.38585209-.114904-.75312612-.344712-1.10468024-.229809-.34869597-.551541-.65166131-.969504-.90889604-.445254-.25866381-.926415-.46445159-1.443484-.62307967-.517069-.157199-.99823-.24294391-1.443484-.25723473h-.47398v-.19149696c0-.48588782.057453-.83887102.172357-1.05180422.114904-.21579135.301623-.3215434.560158-.3215434.114904 0 .226935.03572704.333222.10575205.109159.07431226.270024.22293676.486906.45158985.226936.23008218.440945.39442659.634846.49303323.1939.10003573.412218.15005359.65639.15005359.272897 0 .52425-.07574134.754058-.22579493.231245-.15005359.413655-.34869596.550104-.59878528.135013-.2515184.203955-.5259021.203955-.82600929 0-.33011789-.086178-.62879599-.258534-.89889246-.172357-.27295462-.405038-.4873169-.700916-.6445159-.294442-.157199-.620482-.23579849-.979558-.23579849-.531432 0-.999666.13862093-1.400395.41729189zm-2.28372 8.42443729c-.229808-.47731332-.344712-1.22472311-.344712-2.2393712 0-.87173991.107722-1.51196856.323167-1.91925688.215446-.40585923.552977-.61164701 1.012594-.61164701.488342 0 .851727.24437299 1.08728.73168989.238426.48445873.356203 1.22043587.356203 2.20650232 0 .91461236-.103414 1.56913183-.311677 1.96070028-.2097.3944265-.550104.5916398-1.024084.5916398-.504142 0-.870399-.2415148-1.098771-.7202572zm-.215445 9.1103966c-.588884-.2072169-1.048501-.4958914-1.37885-.8674527-.33035-.3715613-.494088-.7931404-.494088-1.2647374 0-.1714898.034471-.350125.106286-.5344766.071815-.1872097.157993-.3444087.258534-.4730261.100542-.1286173.193901-.192926.281516-.192926.31455.0428724.606119.0743122.871835.0971775.265716.0200072.541486.0314398.828746.0314398.129268 0 .525687-.0142908 1.18495-.0428724l1.163404-.0428725c.774167 0 1.375978.1357628 1.799687.4072884.423709.2715255.634846.6573776.634846 1.1575562 0 .3987139-.136449.7545552-.409346 1.0618078-.272898.3072526-.656391.5459093-1.153351.7173991-.495524.1714898-1.058555.2572347-1.689091.2572347-.748314 0-1.416194-.104323-2.005078-.3115398zm-50.062313-17.45909256v.21436227c.47398.03001072 2.262176.08431583 2.491985.1729189.229808.08431583.416527.22865309.558721.42729547.116341.157199.19821.32440157.24848.50303679.050271.17863523.087615.44301537.109159.79456949.020109.34869597.031599.86745267.031599 1.55341194v6.9667738c0 .6859593-.01149 1.204716-.031599 1.553412-.021544.3515541-.058888.6145052-.109159.7945695-.05027.1786352-.132139.3458378-.24848.5030368-.142194.2000714-.328913.3444087-.558721.4287245-.229809.0843158-2.018005.1429082-2.491985.1729189v.2129332h9.687859v-.2129332c-.47398-.0300107-.821565-.0886031-1.045628-.1729189-.222627-.0843158-.412219-.2286531-.570212-.4287245-.114905-.157199-.19821-.3286889-.247044-.5144695-.050271-.1857806-.087615-.4501608-.107723-.7931404-.021545-.3429796-.033035-.8574491-.033035-1.5434084v-3.42979631h.387802c.473979 0 .886198.13147553 1.239528.39585566.350458.26438014.692298.70453735 1.022648 1.31904255.28726.5001786.614737 1.1575562.979558 1.9721329.366257.8145766.858908 1.9506966 1.476518 3.4083601h6.313985v-.2129332c-.504142-.0443015-.890508-.122901-1.164841-.2372276-.271462-.1143265-.525687-.3258306-.754059-.6316541-.229808-.3072526-.531432-.8117185-.906307-1.5119686l-1.226602-2.3365488c-.344712-.628796-.653517-1.1075384-.926415-1.4347981-.272897-.3301179-.574521-.57734906-.90487-.74169347-.33035-.1643444-.76124-.28867452-1.292672-.37299035 1.192131-.1729189 2.114237-.5187567 2.769191-1.04180064.652081-.52161487.979558-1.17327617.979558-1.96070025 0-.55734191-.179538-1.08896035-.538614-1.59771347-.360512-.50589496-.847418-.91747053-1.465028-1.23186853-.703788-.35727045-1.519608-.61164701-2.444586-.76027152-.926415-.15005359-2.178871-.22579493-3.760239-.22579493zm7.684217.25866381h.603247c.573085 0 1.031265.06430868 1.368796.19149696.337531.12861737.613301.33726331.828746.62022151.445254.58735263.667881 1.42908182.667881 2.53233298 0 1.170418-.2255 2.02072168-.679371 2.54948195-.452435.52876028-1.179204.79314041-2.186052.79314041h-.603247zm65.041508 3.50267953c-.705225.30725259-1.256765.72883172-1.660366 1.2647374-.400728.53590568-.60181 1.13326188-.60181 1.7920686 0 .52876027.127831 1.00035727.387801 1.41479102.258535.4130046.667881.7959985 1.228039 1.1446945.560158.3501251 1.298417.6902465 2.21765 1.0189353l1.055682.3844231c.502706.1886388.901998.3701321 1.197876.5487674.29157.1772061.504142.3815648.634846.6102179.129267.2300822.193901.4987496.193901.8160057 0 .4558771-.145067.8288675-.430891 1.1118257-.288697.2872454-.676498.4301536-1.164841.4301536-.601811 0-1.217984-.2115041-1.841339-.6330832-.623355-.4215792-1.225166-1.0175063-1.799687-1.7892105-.573085-.7717042-1.084408-1.6720257-1.528225-2.7023937h-.215446l.215446 4.2672383c.93216.3429796 1.829848.6187924 2.693066.8245802.860345.2072169 1.558388.3115399 2.08982.3115399.919233 0 1.739362-.1686317 2.464694-.5030368.725333-.3358343 1.294109-.7974277 1.703455-1.3833512.409346-.5844945.614737-1.2504466.614737-1.9935692 0-.7574133-.259971-1.3962129-.775603-1.9192569-.518505-.5201857-1.351561-.96748834-2.500602-1.34047869l-1.465028-.47016792c-1.348688-.44301536-2.02375-1.09324759-2.02375-1.9492676 0-.25866381.067506-.49732047.203955-.71882815.136448-.22293676.318859-.39728474.548667-.52590211.229808-.12861736.481161-.19435512.755495-.19435512.443817 0 .917797.16863165 1.421939.50446588.502706.33583422.979558.79599857 1.431993 1.38335119.453872.58592355.828747 1.24330118 1.13037 1.97070383h.216882l-.216882-3.51411219c-.775603-.21436227-1.463592-.37156127-2.068275-.47302608-.60181-.09860664-1.184949-.14862451-1.745107-.14862451-.876144 0-1.666111.15434084-2.368462.46016435zm-11.947162.31153983c-.897689.51446946-1.604349 1.21471955-2.122854 2.10075027-.517069.88603073-.775604 1.85780636-.775604 2.91532692 0 1.0146481.248481 1.9449803.744005 2.7867095.495524.8431583 1.177768 1.5048232 2.046731 1.9835656.868962.4787424 1.834157.7173991 2.897021.7173991.833055 0 1.602913-.1600572 2.306701-.4816006.702352-.3215434 1.305599-.7831369 1.809741-1.3833512.300187-.3715613.555849-.7431226.764113-1.1146838.208264-.3715613.426582-.8645945.657826-1.4790997l-.195337-.0843158c-.445254.6559485-.936469 1.1318328-1.475082 1.4233655-.54005.2929617-1.187822.4401572-1.949062.4401572-1.193567 0-2.086947-.3286889-2.683013-.9860665-.596065-.6573776-.901997-1.6577349-.91636-3.00107181h7.13124c-.070379-.57163273-.175229-1.04037156-.311678-1.40335835-.136448-.36584494-.334658-.72740264-.593193-1.08324401-.486906-.67166845-1.116006-1.19185423-1.884428-1.56484459-.768422-.37013219-1.597168-.55734191-2.487675-.55734191-1.077227 0-2.065403.25723473-2.963092.77170418zm1.562697.56877457c.315986-.7073955.766985-1.06323687 1.355869-1.06323687.359076 0 .642027.11289746.851727.33440514.206828.2200786.370566.57591997.485471 1.06037871.056015.30010718.096232.64737406.117776 1.04037156.021545.39442658.031599.93890675.031599 1.64058592h-3.316422c0-1.30189353.156557-2.30510897.47398-3.01250446zm-22.598778-1.1475527c-.402165.12861736-.807202.34012147-1.216548.63308324-.409346.29153269-.866091.69596285-1.368796 1.2104323v-2.03644159c-1.09159.38585209-2.074021.70310826-2.951601.95319757-.877581.2515184-1.788197.48302966-2.736156.69739193l.043089.21436227c.359076.03001072.646336.08860307.860345.18292247.216882.09289032.39642.23865667.54005.4401572.172356.22722401.28726.49446231.344712.80314398.057452.30725259.086178.78885317.086178 1.4462308v3.51411215c0 .7717042-.040216 1.3233298-.119213 1.6520186-.078996.3286888-.229808.5487674-.450999.663094-.222626.1143265-.607555.1872097-1.15335.2172204v.2129332h6.549538v-.2129332c-.315987-.0443015-.541486-.1200429-.679371-.2257949-.135013-.1086102-.228372-.297249-.278643-.5687746-.05027-.2715255-.068942-.7073955-.054579-1.3076098v-6.30225084c.561594-.50017864 1.098771-.75026796 1.61584-.75026796.201082 0 .387801.05001787.561594.15148268.17092.09860664.300187.22865309.386365.384423.100541.18578064.165175.43301179.193901.7388353.028726.30725259.043089.88317256.043089 1.72775992v4.0500179c.012927.6002143-.002873 1.0360843-.053143 1.3076098-.051707.2715256-.145067.4601644-.281516.5687746-.135012.105752-.363384.1814934-.677934.2257949v.2129332h6.117211v-.2129332c-.415092-.0443015-.709533-.1157556-.880453-.2172204-.173793-.0986067-.288697-.2829582-.346149-.5559129-.057452-.2715255-.078997-.7145409-.064634-1.329046v-5.55198289c0-.57163273-.035907-1.02893891-.107722-1.37334763-.071816-.34012147-.201083-.62736691-.386366-.85602-.203955-.28581637-.49696-.50732405-.884762-.66309396-.387802-.15862809-.825874-.23722759-1.314216-.23722759-.488343 0-.933597.06430869-1.335761.19292605zm-15.823741.25723473c-1.127498.30010718-2.101311.67881386-2.920003 1.13612004-.662135.35727045-1.151914.73311897-1.476518 1.12611647-.323168.39442658-.482598.8174348-.482598 1.27474098 0 .44301536.139321.80457306.417964 1.0818149.281515.278671.643463.418721 1.088717.418721.61761 0 1.131806-.1986424 1.541152-.6002144.40791-.40014287.65639-.93604855.742568-1.607717.086179-.68738835.14794-1.12182923.183847-1.30760986.034471-.18578064.103414-.37156127.203955-.55591283.129267-.27295462.326041-.48302965.593193-.63451232.264279-.14862451.555849-.22436585.871835-.22436585.416528 0 .739696.17148982.969504.51589854.114904.17006073.193901.43872811.23699.80314398.043089.36441586.064634.91032511.064634 1.64058592v1.11468382c-1.551207.4415863-2.815153.8774562-3.791838 1.3047517-.805766.3301179-1.43343.6416577-1.884429.9346195-.453871.2929618-.775603.6002144-.969503.9203287-.195338.3229725-.29157.6973919-.29157 1.1275455 0 .4558771.127831.8631655.387802 1.2204359.258534.3572705.61761.6359414 1.077226.8360129.459617.1986423.991049.3001072 1.594296.3001072.847418 0 1.575623-.1600572 2.186052-.4816006.611864-.3215434 1.176331-.8403001 1.691964-1.554841.14363.7002501.390674 1.2132904.742568 1.5448374.35333.3272597.831619.4916042 1.433429.4916042.529996 0 1.072918-.1329047 1.627331-.3972848.55154-.262951 1.202185-.7016792 1.949062-1.3176134l-.129267-.1500536c-.201083.1143265-.363385.1900679-.484034.2257949-.123522.0357271-.24848.052876-.377748.052876-.185283 0-.350457-.0400143-.494088-.1171847-.145066-.0785995-.245607-.1900679-.304496-.332976-.056015-.1271883-.094796-.2815292-.117776-.4615935-.020109-.1786352-.031599-.4744551-.031599-.8888888v-4.93033231c0-.61450518-.060325-1.100393-.183847-1.45766345-.122085-.35727045-.340403-.65737764-.65639-.90032154-.242735-.21436228-.52425-.36870311-.840237-.46016435-.315986-.0943194-.689425-.14005002-1.120315-.14005002-.904871 0-1.921773.14862451-3.047833.45016078zm-.183847 8.85316179c-.215445-.3444087-.323168-.8360128-.323168-1.4790996 0-.5573419.076124-1.0103609.226936-1.3604859.150811-.3501251.407909-.645945.775603-.890318.366257-.2429439.879017-.4730261 1.539716-.6859593v3.3240443c0 .4987496-.114904.8917471-.346149 1.1775635-.228372.2858163-.544359.4301536-.945087.4301536-.403601 0-.71097-.1729189-.927851-.5158986zm-75.9085701-8.84315822c-.7037881.30725259-1.2567644.72883172-1.658929 1.2647374s-.6018106 1.13326188-.6018106 1.7920686c0 .52876027.1278309 1.00035727.3878016 1.41479102.2570981.4130046.6664442.7959985 1.2280383 1.1446945.5572853.3501251 1.2984172.6902465 2.2176506 1.0189353l1.0556821.3844231c.5027057.1886388.9019977.3701321 1.1964397.5487674.2930056.1772061.5055784.3815648.6348456.6102179.1307034.2300822.1939007.4987496.1939007.8160057 0 .4558771-.1436302.8288675-.4308906 1.1118257-.2872604.2872454-.675062.4301536-1.1634048.4301536-.6032469 0-1.2179842-.2115041-1.8413394-.6330832-.6247914-.4215792-1.2251657-1.0175063-1.7996866-1.7892105s-1.0844081-1.6720257-1.5296618-2.7023937h-.214009l.214009 4.2672383c.9335964.3429796 1.8312853.6187924 2.6930666.8245802.8617813.2072169 1.5583878.3115399 2.0898196.3115399.9192334 0 1.7407983-.1686317 2.4661309-.5030368.7253326-.3358343 1.2926719-.7974277 1.7020181-1.3833512.4107824-.5844945.6147373-1.2504466.6147373-1.9935692 0-.7574133-.2585344-1.3962129-.7756032-1.9192569-.5170688-.5201857-1.350124-.96748834-2.4991658-1.34047869l-1.4650282-.47016792c-1.350124-.44301536-2.0266224-1.09324759-2.0266224-1.9492676 0-.25866381.0689425-.49732047.2053913-.71882815.137885-.22293676.3202953-.39728474.5501037-.52590211.2298083-.12861736.4811612-.19435512.7540586-.19435512.4438174 0 .9192334.16863165 1.4219392.50446588.5027057.33583422.9809944.79599857 1.4334295 1.38335119.4524352.58592355.8287464 1.24330118 1.1303699 1.97070383h.2154453l-.2154453-3.51411219c-.7756032-.21436227-1.4650283-.37156127-2.0682752-.47302608-.6032469-.09860664-1.1849493-.14862451-1.7451071-.14862451-.8761443 0-1.6661105.15434084-2.3698986.46016435zm-10.9877116 0c-.7037881.30725259-1.2567644.72883172-1.6589291 1.2647374-.4021646.53590568-.6018106 1.13326188-.6018106 1.7920686 0 .52876027.1278309 1.00035727.3878016 1.41479102.2570981.4130046.6664442.7959985 1.2280384 1.1446945.5587215.3501251 1.2984172.6902465 2.2176505 1.0189353l1.0556821.3844231c.5027058.1886388.9019978.3701321 1.1964398.5487674.2944419.1772061.5055783.3815648.6348455.6102179.1307035.2300822.1953371.4987496.1953371.8160057 0 .4558771-.1450665.8288675-.4323269 1.1118257-.2872605.2872454-.6750621.4301536-1.1634048.4301536-.6032469 0-1.2165479-.2115041-1.8427757-.6330832-.6233551-.4215792-1.2237295-1.0175063-1.796814-1.7892105-.5759572-.7717042-1.0858445-1.6720257-1.5310981-2.7023937h-.2140091l.2140091 4.2672383c.9335964.3429796 1.8312852.6187924 2.6945028.8245802.860345.2072169 1.5569516.3115399 2.0883834.3115399.9192334 0 1.7407982-.1686317 2.4661308-.5030368.7253326-.3358343 1.292672-.7974277 1.7034544-1.3833512.4093461-.5844945.613301-1.2504466.613301-1.9935692 0-.7574133-.2585343-1.3962129-.7756031-1.9192569-.5170688-.5201857-1.3515604-.96748834-2.4991658-1.34047869l-1.4650282-.47016792c-1.3501241-.44301536-2.0251861-1.09324759-2.0251861-1.9492676 0-.25866381.0675062-.49732047.2053912-.71882815.1364487-.22293676.3188591-.39728474.5486674-.52590211.2298084-.12861736.4811613-.19435512.755495-.19435512.4438174 0 .9177971.16863165 1.4205028.50446588.5027058.33583422.9809944.79599857 1.4334296 1.38335119.4524352.58592355.8301827 1.24330118 1.1303698 1.97070383h.2154453l-.2154453-3.51411219c-.7756032-.21436227-1.4650282-.37156127-2.0682751-.47302608-.6032469-.09860664-1.1849493-.14862451-1.7451072-.14862451-.8761443 0-1.6661105.15434084-2.3698985.46016435zm-12.6566948.29010361c-.9134882.50017863-1.630203 1.17899249-2.1544533 2.03644158-.5256866.85744909-.7870936 1.8077885-.7870936 2.85101823 0 1.0432297.261407 1.9935691.7870936 2.8510182.5242503.8574491 1.2409651 1.536263 2.1544533 2.0378707.9106156.4987495 1.9131545.7488389 3.0047441.7488389 1.0915897 0 2.0926923-.2472312 3.0061805-.7402644.9120519-.4930333 1.6330756-1.1632726 2.1645074-2.0135763s.7971477-1.7834941.7971477-2.7981422c0-.90032154-.1608659-1.70203644-.4854702-2.39942836-.3231679-.70167918-.8158196-1.33047517-1.4750823-1.88781708-.5888839-.48588782-1.2093664-.84744552-1.8643202-1.08324402-.6535175-.2357985-1.3673597-.35298321-2.1429629-.35298321-1.0915896 0-2.0941285.25008932-3.0047441.75026796zm1.8643202 9.60342981c-.4323269-.5987853-.6477723-2.1722044-.6477723-4.71597 0-1.05752055.0430891-1.97927832.1292672-2.76527332.0861782-.785995.2010823-1.3361915.3447126-1.65058949.2872604-.628796.7253326-.94462308 1.3142164-.94462308.4897791 0 .8761444.20864594 1.1634048.62307967.4308907.63022508.646336 2.22222222.646336 4.77884962 0 1.0289389-.0416528 1.9421222-.1292672 2.7352626-.0861781.7917113-.2010823 1.3404787-.3447125 1.6391568-.2886968.6273669-.7253326.943194-1.3142165.943194-.4883428 0-.8761443-.2129332-1.1619685-.6430868zm-8.7485165-9.57199001c-.5170688.52304394-.9910485 1.35619864-1.4219392 2.49803501v-3.27974277c-1.2208568.44301537-2.1544532.76170061-2.8007892.95319757-.646336.19435513-1.5512064.42586639-2.7146111.69739193l.0445253.21436227c.3576393.03001072.6448997.08860307.860345.18292247.2154454.09289032.3949831.23865667.5386134.4401572.1723562.22722401.2872604.49446231.3447125.80314398.0574521.30725259.0861781.78885317.0861781 1.4462308v3.51411215c0 .7717042-.0402165 1.3233298-.1192131 1.6520186s-.2298083.5487674-.4524352.663094c-.2226268.1143265-.6061195.1872097-1.1519143.2172204v.2129332h7.2605075v-.2129332c-.5457948-.0300107-.9292875-.1028939-1.1519144-.2172204-.2240631-.1143266-.3734385-.3344052-.4524351-.663094-.0789967-.3286888-.1192131-.8803144-.1192131-1.6520186v-2.6780993c0-.6573776.0114904-1.16470167.0315986-1.52197212.0229809-.35727045.0574521-.64308682.1077227-.85744909s.1335761-.42300822.2484803-.62165059c.1723562-.30010718.3935468-.45016077.6678805-.45016077.1149042 0 .2269357.03286888.3346584.09717756.1077226.0628796.2183179.17434798.3332221.33297607.1723563.2429439.2987508.41014648.3763112.50160771.0789966.09289032.1623021.17577707.2484802.24580207.1292672.11575563.2829516.2043587.4639256.26866739.1795378.06573776.3619482.09717756.5486675.09717756.3030597 0 .5817024-.0785995.8402367-.23722758.2585344-.15576992.4596167-.37013219.603247-.64165774.1436302-.27152554.2154453-.57877813.2154453-.92175777 0-.34297963-.0861781-.65737763-.2570981-.94462308-.1737926-.2829582-.4107824-.51018221-.7109696-.67452661-.3030597-.16291533-.6334092-.24580208-.9924848-.24580208-.6879887 0-1.2926719.26152198-1.8097407.78170776zm-15.1357523-.01000358c-.9249786.51446946-1.6546202 1.21471955-2.186052 2.10075027-.5314318.88603073-.7971477 1.86495177-.7971477 2.93533402 0 1.0446588.2369899 1.9807074.7109696 2.8081458.4739797.8302965 1.1246246 1.4805288 1.9490621 1.9506967.8258737.4730261 1.763779.7088246 2.8122796.7088246 1.2064939 0 2.2593033-.3358343 3.1555559-1.0075027.8991252-.6716685 1.6560564-1.693462 2.2736663-3.0653805l-.2585343-.1286174c-.5027058.5001787-1.0125931.8688818-1.5296619 1.1046803-.5170687.2357985-1.0844081.3529832-1.702018.3529832-.7325141 0-1.3788501-.174348-1.939008-.5244731-.5601578-.350125-.9910485-.8474455-1.2926719-1.4919614-.3016235-.6430868-.4524352-1.3847803-.4524352-2.22650944 0-.74455163.10485-1.41907824.3131139-2.0278671.2068275-.60735977.4883427-1.08753126.8388004-1.44623079.3518941-.35727046.7440046-.53733476 1.1748952-.53733476.3734386 0 .6865524.12433011.936469.36584494.2513529.24294391.3777475.5501965.3777475.92175777 0 .12718828-.014363.26580922-.0445254.40728832-.0272897.14290818-.0703788.314398-.1278309.51589853-.0861781.25723473-.1436302.46302251-.1723562.62022151-.0287261.157199-.0430891.314398-.0430891.471597 0 .35727045.0789966.6759557.2369899.95319757.1579932.28010004.3734385.50160775.6463359.66595215.2728975.1629153.5817024.245802.9264149.245802.3289132 0 .631973-.0828867.9048704-.245802.2728974-.1643444.4854702-.3944266.6362819-.68738838.1493754-.29296177.2240631-.61736334.2240631-.97463379 0-.64308682-.199646-1.23472669-.6018106-1.78063595-.4021646-.541622-.9493957-.97034655-1.6373845-1.28474455-.689425-.31296891-1.4506652-.471597-2.2837204-.471597-1.1059527 0-2.1228546.25723473-3.0492695.77170418z" fill="#fff" fill-rule="evenodd"/></mask><path d="m109.788066 0c-.590321.21436227-1.447793.46873884-2.57529.76170061-1.128934.29296177-2.164508.53876384-3.112467.7388353l.041653.23722758c.359075.01286173.647772.06716684.863217.16005716.214009.09146124.393547.24437299.537177.46016434.173793.2286531.288697.49732048.346149.80314398.056016.30725259.086178.78313684.086178 1.42479457v8.81028936c0 .7717042-.037343 1.3233298-.109159 1.6520186-.070378.3286888-.211136.5487674-.417964.663094-.2097.1143265-.557285.1872097-1.045628.2172204v.2129332h6.957448v-.2129332c-.486906-.0300107-.837364-.1028939-1.044191-.2172204-.209701-.1143266-.347586-.3372633-.419401-.6745266-.073251-.3344052-.107722-.8817435-.107722-1.640586zm-7.389775 0c-.59032.21436227-1.447793.46873884-2.5738536.76170061-1.1289335.29296177-2.1673799.53876384-3.1139031.7388353l.0416528.23722758c.3605118.01286173.6477723.06716684.8632176.16005716.2154453.09146124.3949831.24437299.537177.46016434.1737926.2286531.2886968.49732048.3447125.80314398.0588884.30725259.0861782.78313684.0861782 1.42479457v8.81028936c0 .7717042-.0359076 1.3233298-.1062864 1.6520186-.0732514.3286888-.214009.5487674-.4208365.663094-.1982097.1100393-.5271229.1814934-.983867.2129332-.5572853-.0371562-.9939211-.1714899-1.3099076-.4044302-.3303495-.2429439-.693734-.7359771-1.0887171-1.4805288-.394983-.7416934-.9953574-2.0478742-1.7996866-3.9228295l-2.7792447-6.66523762c-.3145502-.75598428-.6879887-1.72204358-1.1188794-2.89246159-.5888839.72740264-1.2222931 1.38049303-1.8959188 1.95927117-.6750621.57877813-1.2653823.98320829-1.768088 1.21186138.3303495.314398.6104284.68738835.8402367 1.11468381l-2.1745614 5.72347265c-.3734386 1.0289389-.8230012 1.937835-1.3472515 2.72383-.5256866.7845659-1.0815355 1.4062165-1.6689831 1.8635226-.5888839.4573062-1.1792041.714541-1.7666517.7731333v.2129332h6.6572606v-.2129332c-.675062-.0443015-1.2007486-.3015363-1.5741872-.7731333s-.5587215-1.101822-.5587215-1.887817c0-.4130047.0416527-.8160057.1292672-1.2090032.0847418-.3929975.2211905-.8531619.4079098-1.3833512h4.3519956l.475416 1.1132547c.6032469 1.4162201.9048704 2.3951411.9048704 2.9381922 0 .3858521-.1278309.6759557-.3777475.8674527-.2513529.1943551-.6348456.3043944-1.1519144.3344051v.2129332h8.5517432 6.9588845v-.2129332c-.488343-.0300107-.835928-.1028939-1.044192-.2172204-.208264-.1143266-.347585-.3372633-.420837-.6745266-.070379-.3344052-.106286-.8817435-.106286-1.640586zm-16.0736577 5.10182208 2.2190869 5.31618432h-4.2011839zm-78.43933436-2.58377992c-.67506202.57877813-1.26394591.98320829-1.76665168 1.21186138.3303495.314398.60899213.68738835.84023678 1.11468381l-2.1759978 5.72347265c-.37343856 1.0289389-.82156484 1.937835-1.34725144 2.72383-.52425029.7845659-1.08009923 1.4062165-1.67041943 1.8635226-.58744759.4573062-1.17633148.714541-1.76521537.7731333v.2129332h6.65726058v-.2129332c-.67506202-.0443015-1.19931232-.3015363-1.57275088-.7731333-.37200226-.471597-.56015785-1.101822-.56015785-1.887817 0-.4130047.04308907-.8160057.1292672-1.2090032s.22262683-.8531619.40934612-1.3833512h4.35199559l.47397971 1.1132547c.60324693 1.4162201.90487033 2.3951411.90487033 2.9381922 0 .3858521-.1249582.6759557-.3763111.8674527-.2513529.1943551-.63771819.3043944-1.15335067.3344051v.2129332h8.68244667v-.2129332c-.5903202-.0300107-1.0485006-.1657735-1.3788501-.4087174s-.6922977-.7359771-1.0887171-1.4805288c-.3949831-.7416934-.9939211-2.0478742-1.796814-3.9228295l-2.780681-6.66523762c-.3159865-.75598428-.689425-1.72204358-1.12175199-2.89246159-.58744759.72740264-1.21942055 1.38049303-1.89448257 1.95927117zm-.75405864 2.58377992 2.21908686 5.31618432h-4.19974756zm163.2501047-3.33404787c-.402164.27867095-.710969.67166845-.926414 1.17899249-.214009.50732405-.323168 1.10468025-.323168 1.79063952v.40728831c-.603247.02858164-1.098772.08288675-1.486573.16005717-.387802.0785995-.782785.21150411-1.184949.39728474-.705225.2986781-1.249583.67452662-1.637385 1.12611647-.389238.44873169-.581702.93319043-.581702 1.4462308 0 .57163272.175229 1.06180779.528559 1.46766702.350458.40728827.864654.72597357 1.539716.95462667-.861781.4587352-1.493754.9289032-1.895919 1.414791-.403601.4858878-.603247 1.0146481-.603247 1.5862808 0 .5444802.199646 1.0003573.603247 1.3704895.402165.3729903.983867.6430868 1.745107.8160057-.732514.2572347-1.288363.5573419-1.670419.9003215-.38062.3429797-.570212.7131118-.570212 1.1146838 0 .4287246.1939.7988568.581702 1.1161129.387802.3129689.940778.5559129 1.658929.7274027.718151.1729189 1.565569.2572347 2.542255.2572347 1.251019 0 2.391443-.1857806 3.425581-.5573419 1.034137-.3729904 1.848521-.8831726 2.444586-1.5319757.596065-.6502322.894816-1.3690604.894816-2.1550554 0-.6002144-.169483-1.13612-.505578-1.607717-.338967-.471597-.807202-.8388711-1.411885-1.1032512-.603247-.2643801-1.285491-.3958557-2.045295-.3958557-.245607 0-.726768.0128618-1.44492.0400143-.646335.0443016-1.136115.0657378-1.465028.0657378-.631973 0-1.127497-.035727-1.486572-.1057521-.359076-.0728831-.620483-.192926-.787094-.3658449-.163739-.1714898-.245608-.4001429-.245608-.6859593 0-.1714898.034472-.314398.106287-.4287245.071815-.1143266.1939-.2429439.366257-.3858521.473979.1429082.912052.2472311 1.314216.3115398.400728.0643087.818692.0957485 1.251019.0957485.904871 0 1.733617-.14005 2.487676-.418721.752622-.2786709 1.350124-.6602358 1.788196-1.14612358.438072-.48588781.65639-1.01464809.65639-1.58628081 0-.38585209-.114904-.75312612-.344712-1.10468024-.229809-.34869597-.551541-.65166131-.969504-.90889604-.445254-.25866381-.926415-.46445159-1.443484-.62307967-.517069-.157199-.99823-.24294391-1.443484-.25723473h-.47398v-.19149696c0-.48588782.057453-.83887102.172357-1.05180422.114904-.21579135.301623-.3215434.560158-.3215434.114904 0 .226935.03572704.333222.10575205.109159.07431226.270024.22293676.486906.45158985.226936.23008218.440945.39442659.634846.49303323.1939.10003573.412218.15005359.65639.15005359.272897 0 .52425-.07574134.754058-.22579493.231245-.15005359.413655-.34869596.550104-.59878528.135013-.2515184.203955-.5259021.203955-.82600929 0-.33011789-.086178-.62879599-.258534-.89889246-.172357-.27295462-.405038-.4873169-.700916-.6445159-.294442-.157199-.620482-.23579849-.979558-.23579849-.531432 0-.999666.13862093-1.400395.41729189zm-2.28372 8.42443729c-.229808-.47731332-.344712-1.22472311-.344712-2.2393712 0-.87173991.107722-1.51196856.323167-1.91925688.215446-.40585923.552977-.61164701 1.012594-.61164701.488342 0 .851727.24437299 1.08728.73168989.238426.48445873.356203 1.22043587.356203 2.20650232 0 .91461236-.103414 1.56913183-.311677 1.96070028-.2097.3944265-.550104.5916398-1.024084.5916398-.504142 0-.870399-.2415148-1.098771-.7202572zm-.215445 9.1103966c-.588884-.2072169-1.048501-.4958914-1.37885-.8674527-.33035-.3715613-.494088-.7931404-.494088-1.2647374 0-.1714898.034471-.350125.106286-.5344766.071815-.1872097.157993-.3444087.258534-.4730261.100542-.1286173.193901-.192926.281516-.192926.31455.0428724.606119.0743122.871835.0971775.265716.0200072.541486.0314398.828746.0314398.129268 0 .525687-.0142908 1.18495-.0428724l1.163404-.0428725c.774167 0 1.375978.1357628 1.799687.4072884.423709.2715255.634846.6573776.634846 1.1575562 0 .3987139-.136449.7545552-.409346 1.0618078-.272898.3072526-.656391.5459093-1.153351.7173991-.495524.1714898-1.058555.2572347-1.689091.2572347-.748314 0-1.416194-.104323-2.005078-.3115398zm-50.062313-17.45909256v.21436227c.47398.03001072 2.262176.08431583 2.491985.1729189.229808.08431583.416527.22865309.558721.42729547.116341.157199.19821.32440157.24848.50303679.050271.17863523.087615.44301537.109159.79456949.020109.34869597.031599.86745267.031599 1.55341194v6.9667738c0 .6859593-.01149 1.204716-.031599 1.553412-.021544.3515541-.058888.6145052-.109159.7945695-.05027.1786352-.132139.3458378-.24848.5030368-.142194.2000714-.328913.3444087-.558721.4287245-.229809.0843158-2.018005.1429082-2.491985.1729189v.2129332h9.687859v-.2129332c-.47398-.0300107-.821565-.0886031-1.045628-.1729189-.222627-.0843158-.412219-.2286531-.570212-.4287245-.114905-.157199-.19821-.3286889-.247044-.5144695-.050271-.1857806-.087615-.4501608-.107723-.7931404-.021545-.3429796-.033035-.8574491-.033035-1.5434084v-3.42979631h.387802c.473979 0 .886198.13147553 1.239528.39585566.350458.26438014.692298.70453735 1.022648 1.31904255.28726.5001786.614737 1.1575562.979558 1.9721329.366257.8145766.858908 1.9506966 1.476518 3.4083601h6.313985v-.2129332c-.504142-.0443015-.890508-.122901-1.164841-.2372276-.271462-.1143265-.525687-.3258306-.754059-.6316541-.229808-.3072526-.531432-.8117185-.906307-1.5119686l-1.226602-2.3365488c-.344712-.628796-.653517-1.1075384-.926415-1.4347981-.272897-.3301179-.574521-.57734906-.90487-.74169347-.33035-.1643444-.76124-.28867452-1.292672-.37299035 1.192131-.1729189 2.114237-.5187567 2.769191-1.04180064.652081-.52161487.979558-1.17327617.979558-1.96070025 0-.55734191-.179538-1.08896035-.538614-1.59771347-.360512-.50589496-.847418-.91747053-1.465028-1.23186853-.703788-.35727045-1.519608-.61164701-2.444586-.76027152-.926415-.15005359-2.178871-.22579493-3.760239-.22579493zm7.684217.25866381h.603247c.573085 0 1.031265.06430868 1.368796.19149696.337531.12861737.613301.33726331.828746.62022151.445254.58735263.667881 1.42908182.667881 2.53233298 0 1.170418-.2255 2.02072168-.679371 2.54948195-.452435.52876028-1.179204.79314041-2.186052.79314041h-.603247zm65.041508 3.50267953c-.705225.30725259-1.256765.72883172-1.660366 1.2647374-.400728.53590568-.60181 1.13326188-.60181 1.7920686 0 .52876027.127831 1.00035727.387801 1.41479102.258535.4130046.667881.7959985 1.228039 1.1446945.560158.3501251 1.298417.6902465 2.21765 1.0189353l1.055682.3844231c.502706.1886388.901998.3701321 1.197876.5487674.29157.1772061.504142.3815648.634846.6102179.129267.2300822.193901.4987496.193901.8160057 0 .4558771-.145067.8288675-.430891 1.1118257-.288697.2872454-.676498.4301536-1.164841.4301536-.601811 0-1.217984-.2115041-1.841339-.6330832-.623355-.4215792-1.225166-1.0175063-1.799687-1.7892105-.573085-.7717042-1.084408-1.6720257-1.528225-2.7023937h-.215446l.215446 4.2672383c.93216.3429796 1.829848.6187924 2.693066.8245802.860345.2072169 1.558388.3115399 2.08982.3115399.919233 0 1.739362-.1686317 2.464694-.5030368.725333-.3358343 1.294109-.7974277 1.703455-1.3833512.409346-.5844945.614737-1.2504466.614737-1.9935692 0-.7574133-.259971-1.3962129-.775603-1.9192569-.518505-.5201857-1.351561-.96748834-2.500602-1.34047869l-1.465028-.47016792c-1.348688-.44301536-2.02375-1.09324759-2.02375-1.9492676 0-.25866381.067506-.49732047.203955-.71882815.136448-.22293676.318859-.39728474.548667-.52590211.229808-.12861736.481161-.19435512.755495-.19435512.443817 0 .917797.16863165 1.421939.50446588.502706.33583422.979558.79599857 1.431993 1.38335119.453872.58592355.828747 1.24330118 1.13037 1.97070383h.216882l-.216882-3.51411219c-.775603-.21436227-1.463592-.37156127-2.068275-.47302608-.60181-.09860664-1.184949-.14862451-1.745107-.14862451-.876144 0-1.666111.15434084-2.368462.46016435zm-11.947162.31153983c-.897689.51446946-1.604349 1.21471955-2.122854 2.10075027-.517069.88603073-.775604 1.85780636-.775604 2.91532692 0 1.0146481.248481 1.9449803.744005 2.7867095.495524.8431583 1.177768 1.5048232 2.046731 1.9835656.868962.4787424 1.834157.7173991 2.897021.7173991.833055 0 1.602913-.1600572 2.306701-.4816006.702352-.3215434 1.305599-.7831369 1.809741-1.3833512.300187-.3715613.555849-.7431226.764113-1.1146838.208264-.3715613.426582-.8645945.657826-1.4790997l-.195337-.0843158c-.445254.6559485-.936469 1.1318328-1.475082 1.4233655-.54005.2929617-1.187822.4401572-1.949062.4401572-1.193567 0-2.086947-.3286889-2.683013-.9860665-.596065-.6573776-.901997-1.6577349-.91636-3.00107181h7.13124c-.070379-.57163273-.175229-1.04037156-.311678-1.40335835-.136448-.36584494-.334658-.72740264-.593193-1.08324401-.486906-.67166845-1.116006-1.19185423-1.884428-1.56484459-.768422-.37013219-1.597168-.55734191-2.487675-.55734191-1.077227 0-2.065403.25723473-2.963092.77170418zm1.562697.56877457c.315986-.7073955.766985-1.06323687 1.355869-1.06323687.359076 0 .642027.11289746.851727.33440514.206828.2200786.370566.57591997.485471 1.06037871.056015.30010718.096232.64737406.117776 1.04037156.021545.39442658.031599.93890675.031599 1.64058592h-3.316422c0-1.30189353.156557-2.30510897.47398-3.01250446zm-22.598778-1.1475527c-.402165.12861736-.807202.34012147-1.216548.63308324-.409346.29153269-.866091.69596285-1.368796 1.2104323v-2.03644159c-1.09159.38585209-2.074021.70310826-2.951601.95319757-.877581.2515184-1.788197.48302966-2.736156.69739193l.043089.21436227c.359076.03001072.646336.08860307.860345.18292247.216882.09289032.39642.23865667.54005.4401572.172356.22722401.28726.49446231.344712.80314398.057452.30725259.086178.78885317.086178 1.4462308v3.51411215c0 .7717042-.040216 1.3233298-.119213 1.6520186-.078996.3286888-.229808.5487674-.450999.663094-.222626.1143265-.607555.1872097-1.15335.2172204v.2129332h6.549538v-.2129332c-.315987-.0443015-.541486-.1200429-.679371-.2257949-.135013-.1086102-.228372-.297249-.278643-.5687746-.05027-.2715255-.068942-.7073955-.054579-1.3076098v-6.30225084c.561594-.50017864 1.098771-.75026796 1.61584-.75026796.201082 0 .387801.05001787.561594.15148268.17092.09860664.300187.22865309.386365.384423.100541.18578064.165175.43301179.193901.7388353.028726.30725259.043089.88317256.043089 1.72775992v4.0500179c.012927.6002143-.002873 1.0360843-.053143 1.3076098-.051707.2715256-.145067.4601644-.281516.5687746-.135012.105752-.363384.1814934-.677934.2257949v.2129332h6.117211v-.2129332c-.415092-.0443015-.709533-.1157556-.880453-.2172204-.173793-.0986067-.288697-.2829582-.346149-.5559129-.057452-.2715255-.078997-.7145409-.064634-1.329046v-5.55198289c0-.57163273-.035907-1.02893891-.107722-1.37334763-.071816-.34012147-.201083-.62736691-.386366-.85602-.203955-.28581637-.49696-.50732405-.884762-.66309396-.387802-.15862809-.825874-.23722759-1.314216-.23722759-.488343 0-.933597.06430869-1.335761.19292605zm-15.823741.25723473c-1.127498.30010718-2.101311.67881386-2.920003 1.13612004-.662135.35727045-1.151914.73311897-1.476518 1.12611647-.323168.39442658-.482598.8174348-.482598 1.27474098 0 .44301536.139321.80457306.417964 1.0818149.281515.278671.643463.418721 1.088717.418721.61761 0 1.131806-.1986424 1.541152-.6002144.40791-.40014287.65639-.93604855.742568-1.607717.086179-.68738835.14794-1.12182923.183847-1.30760986.034471-.18578064.103414-.37156127.203955-.55591283.129267-.27295462.326041-.48302965.593193-.63451232.264279-.14862451.555849-.22436585.871835-.22436585.416528 0 .739696.17148982.969504.51589854.114904.17006073.193901.43872811.23699.80314398.043089.36441586.064634.91032511.064634 1.64058592v1.11468382c-1.551207.4415863-2.815153.8774562-3.791838 1.3047517-.805766.3301179-1.43343.6416577-1.884429.9346195-.453871.2929618-.775603.6002144-.969503.9203287-.195338.3229725-.29157.6973919-.29157 1.1275455 0 .4558771.127831.8631655.387802 1.2204359.258534.3572705.61761.6359414 1.077226.8360129.459617.1986423.991049.3001072 1.594296.3001072.847418 0 1.575623-.1600572 2.186052-.4816006.611864-.3215434 1.176331-.8403001 1.691964-1.554841.14363.7002501.390674 1.2132904.742568 1.5448374.35333.3272597.831619.4916042 1.433429.4916042.529996 0 1.072918-.1329047 1.627331-.3972848.55154-.262951 1.202185-.7016792 1.949062-1.3176134l-.129267-.1500536c-.201083.1143265-.363385.1900679-.484034.2257949-.123522.0357271-.24848.052876-.377748.052876-.185283 0-.350457-.0400143-.494088-.1171847-.145066-.0785995-.245607-.1900679-.304496-.332976-.056015-.1271883-.094796-.2815292-.117776-.4615935-.020109-.1786352-.031599-.4744551-.031599-.8888888v-4.93033231c0-.61450518-.060325-1.100393-.183847-1.45766345-.122085-.35727045-.340403-.65737764-.65639-.90032154-.242735-.21436228-.52425-.36870311-.840237-.46016435-.315986-.0943194-.689425-.14005002-1.120315-.14005002-.904871 0-1.921773.14862451-3.047833.45016078zm-.183847 8.85316179c-.215445-.3444087-.323168-.8360128-.323168-1.4790996 0-.5573419.076124-1.0103609.226936-1.3604859.150811-.3501251.407909-.645945.775603-.890318.366257-.2429439.879017-.4730261 1.539716-.6859593v3.3240443c0 .4987496-.114904.8917471-.346149 1.1775635-.228372.2858163-.544359.4301536-.945087.4301536-.403601 0-.71097-.1729189-.927851-.5158986zm-75.9085701-8.84315822c-.7037881.30725259-1.2567644.72883172-1.658929 1.2647374s-.6018106 1.13326188-.6018106 1.7920686c0 .52876027.1278309 1.00035727.3878016 1.41479102.2570981.4130046.6664442.7959985 1.2280383 1.1446945.5572853.3501251 1.2984172.6902465 2.2176506 1.0189353l1.0556821.3844231c.5027057.1886388.9019977.3701321 1.1964397.5487674.2930056.1772061.5055784.3815648.6348456.6102179.1307034.2300822.1939007.4987496.1939007.8160057 0 .4558771-.1436302.8288675-.4308906 1.1118257-.2872604.2872454-.675062.4301536-1.1634048.4301536-.6032469 0-1.2179842-.2115041-1.8413394-.6330832-.6247914-.4215792-1.2251657-1.0175063-1.7996866-1.7892105s-1.0844081-1.6720257-1.5296618-2.7023937h-.214009l.214009 4.2672383c.9335964.3429796 1.8312853.6187924 2.6930666.8245802.8617813.2072169 1.5583878.3115399 2.0898196.3115399.9192334 0 1.7407983-.1686317 2.4661309-.5030368.7253326-.3358343 1.2926719-.7974277 1.7020181-1.3833512.4107824-.5844945.6147373-1.2504466.6147373-1.9935692 0-.7574133-.2585344-1.3962129-.7756032-1.9192569-.5170688-.5201857-1.350124-.96748834-2.4991658-1.34047869l-1.4650282-.47016792c-1.350124-.44301536-2.0266224-1.09324759-2.0266224-1.9492676 0-.25866381.0689425-.49732047.2053913-.71882815.137885-.22293676.3202953-.39728474.5501037-.52590211.2298083-.12861736.4811612-.19435512.7540586-.19435512.4438174 0 .9192334.16863165 1.4219392.50446588.5027057.33583422.9809944.79599857 1.4334295 1.38335119.4524352.58592355.8287464 1.24330118 1.1303699 1.97070383h.2154453l-.2154453-3.51411219c-.7756032-.21436227-1.4650283-.37156127-2.0682752-.47302608-.6032469-.09860664-1.1849493-.14862451-1.7451071-.14862451-.8761443 0-1.6661105.15434084-2.3698986.46016435zm-10.9877116 0c-.7037881.30725259-1.2567644.72883172-1.6589291 1.2647374-.4021646.53590568-.6018106 1.13326188-.6018106 1.7920686 0 .52876027.1278309 1.00035727.3878016 1.41479102.2570981.4130046.6664442.7959985 1.2280384 1.1446945.5587215.3501251 1.2984172.6902465 2.2176505 1.0189353l1.0556821.3844231c.5027058.1886388.9019978.3701321 1.1964398.5487674.2944419.1772061.5055783.3815648.6348455.6102179.1307035.2300822.1953371.4987496.1953371.8160057 0 .4558771-.1450665.8288675-.4323269 1.1118257-.2872605.2872454-.6750621.4301536-1.1634048.4301536-.6032469 0-1.2165479-.2115041-1.8427757-.6330832-.6233551-.4215792-1.2237295-1.0175063-1.796814-1.7892105-.5759572-.7717042-1.0858445-1.6720257-1.5310981-2.7023937h-.2140091l.2140091 4.2672383c.9335964.3429796 1.8312852.6187924 2.6945028.8245802.860345.2072169 1.5569516.3115399 2.0883834.3115399.9192334 0 1.7407982-.1686317 2.4661308-.5030368.7253326-.3358343 1.292672-.7974277 1.7034544-1.3833512.4093461-.5844945.613301-1.2504466.613301-1.9935692 0-.7574133-.2585343-1.3962129-.7756031-1.9192569-.5170688-.5201857-1.3515604-.96748834-2.4991658-1.34047869l-1.4650282-.47016792c-1.3501241-.44301536-2.0251861-1.09324759-2.0251861-1.9492676 0-.25866381.0675062-.49732047.2053912-.71882815.1364487-.22293676.3188591-.39728474.5486674-.52590211.2298084-.12861736.4811613-.19435512.755495-.19435512.4438174 0 .9177971.16863165 1.4205028.50446588.5027058.33583422.9809944.79599857 1.4334296 1.38335119.4524352.58592355.8301827 1.24330118 1.1303698 1.97070383h.2154453l-.2154453-3.51411219c-.7756032-.21436227-1.4650282-.37156127-2.0682751-.47302608-.6032469-.09860664-1.1849493-.14862451-1.7451072-.14862451-.8761443 0-1.6661105.15434084-2.3698985.46016435zm-12.6566948.29010361c-.9134882.50017863-1.630203 1.17899249-2.1544533 2.03644158-.5256866.85744909-.7870936 1.8077885-.7870936 2.85101823 0 1.0432297.261407 1.9935691.7870936 2.8510182.5242503.8574491 1.2409651 1.536263 2.1544533 2.0378707.9106156.4987495 1.9131545.7488389 3.0047441.7488389 1.0915897 0 2.0926923-.2472312 3.0061805-.7402644.9120519-.4930333 1.6330756-1.1632726 2.1645074-2.0135763s.7971477-1.7834941.7971477-2.7981422c0-.90032154-.1608659-1.70203644-.4854702-2.39942836-.3231679-.70167918-.8158196-1.33047517-1.4750823-1.88781708-.5888839-.48588782-1.2093664-.84744552-1.8643202-1.08324402-.6535175-.2357985-1.3673597-.35298321-2.1429629-.35298321-1.0915896 0-2.0941285.25008932-3.0047441.75026796zm1.8643202 9.60342981c-.4323269-.5987853-.6477723-2.1722044-.6477723-4.71597 0-1.05752055.0430891-1.97927832.1292672-2.76527332.0861782-.785995.2010823-1.3361915.3447126-1.65058949.2872604-.628796.7253326-.94462308 1.3142164-.94462308.4897791 0 .8761444.20864594 1.1634048.62307967.4308907.63022508.646336 2.22222222.646336 4.77884962 0 1.0289389-.0416528 1.9421222-.1292672 2.7352626-.0861781.7917113-.2010823 1.3404787-.3447125 1.6391568-.2886968.6273669-.7253326.943194-1.3142165.943194-.4883428 0-.8761443-.2129332-1.1619685-.6430868zm-8.7485165-9.57199001c-.5170688.52304394-.9910485 1.35619864-1.4219392 2.49803501v-3.27974277c-1.2208568.44301537-2.1544532.76170061-2.8007892.95319757-.646336.19435513-1.5512064.42586639-2.7146111.69739193l.0445253.21436227c.3576393.03001072.6448997.08860307.860345.18292247.2154454.09289032.3949831.23865667.5386134.4401572.1723562.22722401.2872604.49446231.3447125.80314398.0574521.30725259.0861781.78885317.0861781 1.4462308v3.51411215c0 .7717042-.0402165 1.3233298-.1192131 1.6520186s-.2298083.5487674-.4524352.663094c-.2226268.1143265-.6061195.1872097-1.1519143.2172204v.2129332h7.2605075v-.2129332c-.5457948-.0300107-.9292875-.1028939-1.1519144-.2172204-.2240631-.1143266-.3734385-.3344052-.4524351-.663094-.0789967-.3286888-.1192131-.8803144-.1192131-1.6520186v-2.6780993c0-.6573776.0114904-1.16470167.0315986-1.52197212.0229809-.35727045.0574521-.64308682.1077227-.85744909s.1335761-.42300822.2484803-.62165059c.1723562-.30010718.3935468-.45016077.6678805-.45016077.1149042 0 .2269357.03286888.3346584.09717756.1077226.0628796.2183179.17434798.3332221.33297607.1723563.2429439.2987508.41014648.3763112.50160771.0789966.09289032.1623021.17577707.2484802.24580207.1292672.11575563.2829516.2043587.4639256.26866739.1795378.06573776.3619482.09717756.5486675.09717756.3030597 0 .5817024-.0785995.8402367-.23722758.2585344-.15576992.4596167-.37013219.603247-.64165774.1436302-.27152554.2154453-.57877813.2154453-.92175777 0-.34297963-.0861781-.65737763-.2570981-.94462308-.1737926-.2829582-.4107824-.51018221-.7109696-.67452661-.3030597-.16291533-.6334092-.24580208-.9924848-.24580208-.6879887 0-1.2926719.26152198-1.8097407.78170776zm-15.1357523-.01000358c-.9249786.51446946-1.6546202 1.21471955-2.186052 2.10075027-.5314318.88603073-.7971477 1.86495177-.7971477 2.93533402 0 1.0446588.2369899 1.9807074.7109696 2.8081458.4739797.8302965 1.1246246 1.4805288 1.9490621 1.9506967.8258737.4730261 1.763779.7088246 2.8122796.7088246 1.2064939 0 2.2593033-.3358343 3.1555559-1.0075027.8991252-.6716685 1.6560564-1.693462 2.2736663-3.0653805l-.2585343-.1286174c-.5027058.5001787-1.0125931.8688818-1.5296619 1.1046803-.5170687.2357985-1.0844081.3529832-1.702018.3529832-.7325141 0-1.3788501-.174348-1.939008-.5244731-.5601578-.350125-.9910485-.8474455-1.2926719-1.4919614-.3016235-.6430868-.4524352-1.3847803-.4524352-2.22650944 0-.74455163.10485-1.41907824.3131139-2.0278671.2068275-.60735977.4883427-1.08753126.8388004-1.44623079.3518941-.35727046.7440046-.53733476 1.1748952-.53733476.3734386 0 .6865524.12433011.936469.36584494.2513529.24294391.3777475.5501965.3777475.92175777 0 .12718828-.014363.26580922-.0445254.40728832-.0272897.14290818-.0703788.314398-.1278309.51589853-.0861781.25723473-.1436302.46302251-.1723562.62022151-.0287261.157199-.0430891.314398-.0430891.471597 0 .35727045.0789966.6759557.2369899.95319757.1579932.28010004.3734385.50160775.6463359.66595215.2728975.1629153.5817024.245802.9264149.245802.3289132 0 .631973-.0828867.9048704-.245802.2728974-.1643444.4854702-.3944266.6362819-.68738838.1493754-.29296177.2240631-.61736334.2240631-.97463379 0-.64308682-.199646-1.23472669-.6018106-1.78063595-.4021646-.541622-.9493957-.97034655-1.6373845-1.28474455-.689425-.31296891-1.4506652-.471597-2.2837204-.471597-1.1059527 0-2.1228546.25723473-3.0492695.77170418z" fill="url(#a)" fill-rule="evenodd" mask="url(#b)" transform="translate(51 180)"/></svg>