<svg height="250" viewBox="0 0 300 250" width="300" xmlns="http://www.w3.org/2000/svg" xmlns:xlink="http://www.w3.org/1999/xlink"><linearGradient id="a" x1="-.000072%" x2="99.999385%" y1="50.000247%" y2="50.000247%"><stop offset="0" stop-color="#d49442"/><stop offset="1" stop-color="#936f44"/></linearGradient><path d="m194.833042.5-3.808733 5.98757009c-1.351092 1.99585669-3.315575 3.57369001-5.895488 4.72940171-2.581951 1.1577608-5.459389 1.7356166-8.632314 1.7356166-3.494906 0-6.749345-.6372807-9.765357-1.9159404-3.25444-3.03271862-6.865502-4.54907791-10.835226-4.54907791-2.938573 0-5.655022.79711319-8.157496 2.39543786-2.502475 1.59627555-4.46492 3.75196465-5.895488 6.46501835-1.42853 2.7151028-2.141776 5.6699543-2.141776 8.8604562 0 3.2724673.713246 6.2683015 2.141776 8.9813551 1.430568 2.7130537 3.393013 4.8687429 5.895488 6.4629693 2.502474 1.6003738 5.218923 2.3954378 8.157496 2.3954378 2.934498 0 5.636682-.795064 8.096361-2.3954378 2.45968-1.5942264 4.426201-3.7499156 5.89345-6.4629693 1.469287-2.7130536 2.202911-5.6679051 2.202911-8.8625053 0-2.3114234-.315866-4.3892454-.949636-6.2252697-.637846-1.8360242-1.630276-3.6699993-2.97933-5.5080726 1.82591.8790785 3.411353 1.4958679 4.764483 1.8565155 1.349054.3585985 2.814265.5389223 4.405822.5389223 1.905386 0 3.751674-.3790898 5.536827-1.1372695 1.785153-.7602287 3.790393-2.0142989 6.013683-3.772456l-48.58428 81.4202977h1.546725l54.65706-91zm-41.855313 37.8966876c-.831441-1.3954604-1.469286-3.3114008-1.905385-5.7457722-.436099-2.4343715-.654149-5.2478327-.654149-8.4424329 0-3.1126348.21805-5.9056047.654149-8.3830079.436099-2.473305 1.053566-4.3871963 1.846288-5.7457723.792722-1.35652682 1.707714-2.03479023 2.738864-2.03479023 1.587482 0 2.875401 1.49586795 3.869869 4.48965303.992431 2.9917359 1.489666 6.9650071 1.489666 11.9136661 0 3.0327186-.238428 5.7888041-.715284 8.262109-.476856 2.4753541-1.112664 4.3912946-1.905386 5.7478214-.79476 1.3565269-1.66492 2.0347903-2.618632 2.0347903-1.033188 0-1.964483-.6967056-2.8-2.0962643zm-64.9542938-28.0178117c-4.6055313 2.596253-8.4978166 6.0879777-11.6707423 10.4772231-2.6206696 3.4322997-4.6055313 7.4445045-5.9545852 12.0325159-1.3510917 4.5921097-2.0235808 9.6001937-2.0235808 15.0283501 0 10.8563129 2.6573508 19.9155352 7.978166 27.1797159 2.0643377 2.795019 4.503639 5.2888153 7.3240174 7.483438 2.814265 2.1966718 5.7752548 3.8933549 8.8687045 5.0900493 3.0975255 1.1946452 6.1114993 1.7929924 9.0521102 1.7929924 2.934498 0 5.95051-.5983472 9.048035-1.7929924 3.097526-1.1966944 6.052402-2.8749353 8.872781-5.0306244 2.814265-2.1556892 5.257642-4.6699768 7.321979-7.5428629 2.62067-3.5941814 4.603494-7.6432706 5.952548-12.1534149 1.349053-4.5080952 2.025618-9.3194623 2.025618-14.4279538 0-5.7478214-.656186-10.8952464-1.964483-15.4484226-1.310335-4.5470288-3.317613-8.6186584-6.013683-12.2107906-3.174963-4.3113783-7.065211-7.7826116-11.668704-10.4177982-4.605532-2.63518657-9.131587-3.95073071-13.574091-3.95073071-4.4486167 0-8.9726342 1.29915107-13.5740898 3.89130581zm7.0835517 67.8304398c-1.3898108-6.4650184-2.0847162-16.5242181-2.0847162-30.1735009s.6949054-23.7269247 2.0847162-30.2329257c1.3877729-6.5060011 3.5499272-9.75797703 6.4905381-9.75797703 2.934498 0 5.09869 3.23353373 6.488501 9.69650293 1.387773 6.4670675 2.082679 16.7250332 2.082679 30.7738972 0 13.331667-.694906 23.2289851-2.082679 29.6940035-1.389811 6.4650183-3.554003 9.7006012-6.488501 9.7006012-2.9406109 0-5.1027652-3.2355829-6.4905381-9.7006012zm-81.2713246-66.092774c-4.52401747 3.7519647-7.89868996 9.4977369-10.11994178 17.241415h1.1901019c1.50800582-3.0327186 3.35225618-5.2293904 5.53682678-6.5859172 2.1825328-1.3565269 4.9010189-2.0347903 8.1574964-2.0347903 2.7775837 0 5.2189228.5983472 7.3219796 1.7970907 2.1030568 1.1946452 3.7496361 2.8523948 4.9417758 4.9671012 1.1901019 2.1167557 1.7871907 4.5695693 1.7871907 7.3645883 0 4.0695805-1.2512373 8.0817852-3.7516739 12.0325159-2.5004367 3.9507307-6.5700146 8.3625166-12.204658 13.2312595-4.7624454 3.9917134-8.17787479 7.1637731-10.24221249 9.5182283-2.0643377 2.3565043-3.49286754 4.8093179-4.28558952 7.3645882-.79475983 2.5552703-1.35109171 6.1863361-1.66695779 10.8972956h37.0317322c1.3490538 0 2.6593886.0368844 3.9310043.1168007h4.1653567c1.8259097.0799162 3.077147.3176158 3.7537117.7171969.6724891.4016303 1.0882097 1.1208764 1.2491995 2.1577383h1.1901019c1.5874818-6.3051859 2.7388646-10.735414 3.4541484-13.2906843.7152839-2.5532212 2.1804949-7.2641807 4.4058224-14.1308293h-1.1921397c-1.2695779 2.2376545-2.6614265 3.9138463-4.1673945 5.0306244-1.5059679 1.1188272-3.631441 1.8770069-6.3682678 2.2745389-2.7388646.4016303-6.6902474.5983472-11.8500728.5983472h-29.1737991c1.98282387-2.3134725 3.8882096-4.2089216 5.7181951-5.6883965 1.8238719-1.4753766 4.0655021-2.8892792 6.7269286-4.2478552 2.6573508-1.3585759 6.2887919-2.8749352 10.8943232-4.551127 4.8419214-1.8360242 8.1371179-3.1741088 9.8835516-4.0101556 1.7464338-.840145 3.6497817-2.016348 5.7161573-3.5327073 7.619505-5.268324 11.4302765-11.8931748 11.4302765-19.8766016 0-4.3892454-1.1106259-8.3235831-3.3339156-11.7927672-2.2232896-3.4732825-5.3187773-6.2068275-9.2885007-8.20268417-3.9697234-1.99380756-8.4142649-2.99378504-13.3356623-2.99378504-7.144687 0-12.9790393 1.87700691-17.5050946 5.62897161zm158.0756917 44.1813821c-2.500437 1.5962756-4.46492 3.7519647-5.89345 6.4650184-1.42853 2.7151028-2.143814 5.7088878-2.143814 8.9813551 0 3.1925511.715284 6.1474026 2.143814 8.8604562 1.42853 2.7151028 3.393013 4.8687429 5.89345 6.4650184 2.500436 1.5962755 5.218923 2.3933887 8.155458 2.3933887 2.936536 0 5.636681-.7971132 8.098399-2.3933887s4.424163-3.7314734 5.89345-6.4055935c1.467249-2.6720709 2.204949-5.6064311 2.204949-8.7989822 0-3.2745164-.715284-6.2867436-2.143814-9.0428291-1.42853-2.7540364-3.395051-4.9281677-5.89345-6.5244433-2.502474-1.5962755-5.222998-2.3933887-8.159534-2.3933887-2.936535 0-5.655022.7971132-8.155458 2.3933887zm5.239301 29.5136797c-.833479-1.3954604-1.469287-3.3093517-1.905386-5.7478214-.438137-2.4323223-.654148-5.2457835-.654148-8.4403837 0-3.1126348.216011-5.9056047.654148-8.3809588.436099-2.473305 1.051529-4.3892454 1.846288-5.7478214.792722-1.3565268 1.705677-2.0347902 2.736827-2.0347902 1.58952 0 2.877438 1.4958679 3.869869 4.489653.992431 2.993785 1.489665 6.9650071 1.489665 11.9157152 0 3.0327186-.238427 5.786755-.713246 8.2600599-.476855 2.4753541-1.112663 4.3933437-1.905385 5.7457723-.796798 1.3606251-1.666958 2.0388885-2.62067 2.0388885-1.033188 0-1.964483-.6987547-2.797962-2.0983134z" fill="url(#a)" fill-rule="evenodd" transform="translate(51 79)"/></svg>