<?xml version="1.0" encoding="utf-8"?>
<!-- Generator: Adobe Illustrator 23.0.0, SVG Export Plug-In . SVG Version: 6.00 Build 0)  -->
<svg version="1.1" id="Layer_1" xmlns="http://www.w3.org/2000/svg" xmlns:xlink="http://www.w3.org/1999/xlink" x="0px" y="0px"
	 viewBox="0 0 300 600" style="enable-background:new 0 0 300 600;" xml:space="preserve">
<style type="text/css">
	.st0{fill:#FFFFFF;}
	.st1{fill:#FF408E;}
</style>
<g>
	<g>
		<image style="overflow:visible;" width="275" height="141" xlink:href="9520F7CC.png"  transform="matrix(1 0 0 1 13 205)">
		</image>
	</g>
	<g>
		<g>
			<path class="st0" d="M80.4,275.5c-0.5,0-0.9-0.3-1-0.7l-1.4-3.9h-8.5l-1.3,3.9c-0.2,0.4-0.6,0.7-1,0.7H55.8
				c-0.4,0-0.7-0.2-0.9-0.5c-0.2-0.3-0.2-0.7-0.1-1l12.5-31.8c0.2-0.4,0.6-0.7,1-0.7h11.4c0.5,0,0.9,0.3,1,0.7L93.1,274
				c0.1,0.3,0.1,0.7-0.1,1c-0.2,0.3-0.5,0.5-0.9,0.5H80.4z M90.5,273.3l-11.5-29.6h-9.9l-11.7,29.6h8.9l1.3-3.9
				c0.2-0.4,0.6-0.7,1-0.7h10.1c0.5,0,0.9,0.3,1,0.7l1.4,3.9H90.5z M71.2,262.7c-0.4,0-0.7-0.2-0.9-0.5c-0.2-0.3-0.3-0.7-0.2-1
				l2.6-7.9c0.1-0.4,0.6-0.8,1-0.8c0.5,0,0.9,0.3,1,0.8l2.6,7.9c0.1,0.3,0,0.7-0.2,1c-0.2,0.3-0.5,0.5-0.9,0.5H71.2z M74.9,260.5
				l-1.1-3.3l-1.1,3.3H74.9z"/>
			<path class="st1" d="M79.7,241.9c0.3,0,0.6,0.2,0.7,0.5l12.4,31.8c0.1,0.2,0.1,0.5-0.1,0.7c-0.1,0.2-0.4,0.3-0.6,0.3H80.4
				c-0.3,0-0.6-0.2-0.7-0.5l-1.5-4.2h-9.1l-1.4,4.2c-0.1,0.3-0.4,0.5-0.7,0.5H55.8c-0.2,0-0.5-0.1-0.6-0.3c-0.1-0.2-0.2-0.5-0.1-0.7
				l12.5-31.8c0.1-0.3,0.4-0.5,0.7-0.5H79.7 M56.9,273.7h9.7l1.4-4.2c0.1-0.3,0.4-0.5,0.7-0.5h10.1c0.3,0,0.6,0.2,0.7,0.5l1.5,4.2
				H91l-11.8-30.3H68.8L56.9,273.7 M73.8,253c0.3,0,0.6,0.2,0.7,0.5l2.6,7.9c0.1,0.2,0,0.5-0.1,0.7c-0.1,0.2-0.4,0.3-0.6,0.3h-5.2
				c-0.2,0-0.5-0.1-0.6-0.3c-0.1-0.2-0.2-0.4-0.1-0.7l2.6-7.9C73.2,253.2,73.5,253,73.8,253C73.8,253,73.8,253,73.8,253 M72.2,260.9
				h3.2l-1.6-4.8L72.2,260.9 M79.7,241.2H68.3c-0.6,0-1.1,0.4-1.4,0.9l-12.5,31.8c-0.2,0.5-0.1,1,0.2,1.4c0.3,0.4,0.7,0.6,1.2,0.6
				h11.3c0.6,0,1.2-0.4,1.4-1l1.2-3.7h8l1.3,3.7c0.2,0.6,0.8,1,1.4,1h11.6c0.5,0,0.9-0.2,1.2-0.6c0.3-0.4,0.3-0.9,0.2-1.4L81,242.1
				C80.8,241.5,80.3,241.2,79.7,241.2L79.7,241.2z M69.3,244.1h9.4L89.9,273h-8.5l-1.3-3.7c-0.2-0.6-0.8-1-1.4-1H68.7
				c-0.6,0-1.2,0.4-1.4,1l-1.2,3.7h-8.1L69.3,244.1L69.3,244.1z M73.8,252.3L73.8,252.3L73.8,252.3L73.8,252.3c-0.6,0-1.2,0.4-1.4,1
				l-2.6,7.9c-0.1,0.4-0.1,0.9,0.2,1.3c0.3,0.4,0.7,0.6,1.2,0.6h5.2c0.5,0,0.9-0.2,1.2-0.6c0.3-0.4,0.4-0.9,0.2-1.3l-2.6-7.9
				C75,252.7,74.5,252.3,73.8,252.3L73.8,252.3z M73.3,260.1l0.6-1.7l0.6,1.7H73.3L73.3,260.1z"/>
		</g>
		<g>
			<path class="st0" d="M113.3,275.5c-0.4,0-0.7-0.2-0.9-0.5l-6.6-9.8v9.2c0,0.6-0.5,1.1-1.1,1.1H94.3c-0.6,0-1.1-0.5-1.1-1.1v-31.8
				c0-0.6,0.5-1.1,1.1-1.1h10.3c0.6,0,1.1,0.5,1.1,1.1v8.5l6.6-9.1c0.2-0.3,0.5-0.5,0.9-0.5h12.6c0.4,0,0.8,0.2,1,0.6
				c0.2,0.4,0.1,0.8-0.1,1.2l-11.4,13.9l12,16.6c0.2,0.3,0.3,0.8,0.1,1.1c-0.2,0.4-0.6,0.6-1,0.6H113.3z M124.3,273.3L113,257.8
				c-0.3-0.4-0.3-1,0-1.3l10.5-12.8h-9.7l-8.2,11.3c-0.2,0.3-0.5,0.5-0.9,0.5c-0.7,0-1.2-0.5-1.2-1.1v-10.6h-8.1v29.6h8.2v-11.6
				c0-0.6,0.5-1.1,1.1-1.1h0.1c0.4,0,0.7,0.2,0.9,0.5l8.2,12.2H124.3z"/>
			<path class="st1" d="M125.8,241.9c0.3,0,0.5,0.2,0.7,0.4c0.1,0.3,0.1,0.6-0.1,0.8l-11.6,14.1L127,274c0.2,0.2,0.2,0.5,0.1,0.8
				c-0.1,0.2-0.4,0.4-0.7,0.4h-13.1c-0.2,0-0.5-0.1-0.6-0.3l-7.2-10.8v10.4c0,0.4-0.3,0.7-0.7,0.7H94.3c-0.4,0-0.7-0.3-0.7-0.7
				v-31.8c0-0.4,0.3-0.7,0.7-0.7h10.3c0.4,0,0.7,0.3,0.7,0.7v9.6l7.3-10c0.1-0.2,0.4-0.3,0.6-0.3H125.8 M104.7,255.1
				c-0.4,0-0.7-0.3-0.7-0.7v-11h-8.9v30.3h8.9v-11.9c0-0.4,0.3-0.7,0.7-0.7h0.1c0.2,0,0.5,0.1,0.6,0.3l8.3,12.3H125l-11.7-16.1
				c-0.2-0.3-0.2-0.6,0-0.9l11-13.4h-10.7l-8.3,11.4C105.2,255,105,255.1,104.7,255.1L104.7,255.1 M125.8,241.2h-12.6
				c-0.5,0-0.9,0.2-1.2,0.6l-5.9,8.2v-7.3c0-0.8-0.7-1.5-1.5-1.5H94.3c-0.8,0-1.5,0.7-1.5,1.5v31.8c0,0.8,0.7,1.5,1.5,1.5h10.4
				c0.8,0,1.5-0.7,1.5-1.5v-8l5.9,8.8c0.3,0.4,0.7,0.6,1.2,0.6h13.1c0.6,0,1.1-0.3,1.3-0.8c0.3-0.5,0.2-1.1-0.1-1.5l-11.9-16.3
				l11.2-13.7c0.4-0.4,0.4-1,0.2-1.5C126.9,241.5,126.4,241.2,125.8,241.2L125.8,241.2z M114,244.1h8.7l-10,12.2
				c-0.4,0.5-0.4,1.2-0.1,1.8l10.9,14.9h-9.5l-8.1-12c-0.3-0.4-0.7-0.6-1.2-0.6h-0.1c-0.8,0-1.5,0.7-1.5,1.5V273h-7.5v-28.9h7.4
				v10.3c0,0.8,0.7,1.5,1.5,1.5h0.1c0.5,0,0.9-0.2,1.2-0.6L114,244.1L114,244.1z"/>
		</g>
		<g>
			<path class="st0" d="M135.6,275.5c-0.6,0-1.1-0.5-1.1-1.1v-21.7h-6.7c-0.6,0-1.1-0.5-1.1-1.1v-9c0-0.6,0.5-1.1,1.1-1.1h26.3
				c0.6,0,1.1,0.5,1.1,1.1v9c0,0.6-0.5,1.1-1.1,1.1h-6.7v21.7c0,0.6-0.5,1.1-1.1,1.1H135.6z M145.2,273.3v-21.7
				c0-0.6,0.5-1.1,1.1-1.1h6.7v-6.8h-24.1v6.8h6.7c0.6,0,1.1,0.5,1.1,1.1v21.7H145.2z"/>
			<path class="st1" d="M154.1,241.9c0.4,0,0.7,0.3,0.7,0.7v9c0,0.4-0.3,0.7-0.7,0.7H147v22c0,0.4-0.3,0.7-0.7,0.7h-10.7
				c-0.4,0-0.7-0.3-0.7-0.7v-22h-7.1c-0.4,0-0.7-0.3-0.7-0.7v-9c0-0.4,0.3-0.7,0.7-0.7H154.1 M128.5,250.9h7.1
				c0.4,0,0.7,0.3,0.7,0.7v22h9.2v-22c0-0.4,0.3-0.7,0.7-0.7h7.1v-7.6h-24.9V250.9 M154.1,241.2h-26.3c-0.8,0-1.5,0.7-1.5,1.5v9
				c0,0.8,0.7,1.5,1.5,1.5h6.4v21.3c0,0.8,0.7,1.5,1.5,1.5h10.7c0.8,0,1.5-0.7,1.5-1.5v-21.3h6.4c0.8,0,1.5-0.7,1.5-1.5v-9
				C155.5,241.8,154.9,241.2,154.1,241.2L154.1,241.2z M129.2,244.1h23.4v6.1h-6.4c-0.8,0-1.5,0.7-1.5,1.5V273H137v-21.3
				c0-0.8-0.7-1.5-1.5-1.5h-6.4V244.1L129.2,244.1z"/>
		</g>
		<g>
			<path class="st0" d="M157.4,275.5c-0.6,0-1.1-0.5-1.1-1.1v-31.8c0-0.6,0.5-1.1,1.1-1.1h10.8c0.6,0,1.1,0.5,1.1,1.1v31.8
				c0,0.6-0.5,1.1-1.1,1.1H157.4z M167,273.3v-29.6h-8.6v29.6H167z"/>
			<path class="st1" d="M168.1,241.9c0.4,0,0.7,0.3,0.7,0.7v31.8c0,0.4-0.3,0.7-0.7,0.7h-10.8c-0.4,0-0.7-0.3-0.7-0.7v-31.8
				c0-0.4,0.3-0.7,0.7-0.7H168.1 M158.1,273.7h9.3v-30.3h-9.3V273.7 M168.1,241.2h-10.8c-0.8,0-1.5,0.7-1.5,1.5v31.8
				c0,0.8,0.7,1.5,1.5,1.5h10.8c0.8,0,1.5-0.7,1.5-1.5v-31.8C169.6,241.8,169,241.2,168.1,241.2L168.1,241.2z M158.8,244.1h7.9V273
				h-7.9V244.1L158.8,244.1z"/>
		</g>
		<g>
			<path class="st0" d="M190.3,276.4c-2.6,0-5.1-0.4-7.4-1.3c-2.3-0.9-4.3-2.1-6-3.7c-1.7-1.6-3-3.5-4-5.7c-1-2.2-1.4-4.7-1.4-7.4
				c0-2.7,0.5-5.2,1.4-7.3c1-2.2,2.3-4.1,4-5.6c1.7-1.5,3.7-2.7,6-3.5c2.3-0.8,4.8-1.2,7.4-1.2s5.1,0.4,7.4,1.2c2.3,0.8,4.3,2,6,3.5
				c1.7,1.5,3,3.4,4,5.6c1,2.2,1.4,4.6,1.4,7.3c0,2.7-0.5,5.2-1.4,7.4c-1,2.2-2.3,4.2-4,5.7c-1.7,1.6-3.7,2.8-6,3.7
				C195.4,276,192.9,276.4,190.3,276.4z M190.3,242.8c-2.4,0-4.6,0.4-6.6,1.1c-2,0.7-3.8,1.8-5.2,3.1c-1.5,1.3-2.6,3-3.4,4.9
				c-0.8,1.9-1.3,4.1-1.3,6.5c0,2.4,0.4,4.6,1.3,6.5c0.8,1.9,2,3.6,3.5,5c1.5,1.4,3.2,2.5,5.2,3.2c2,0.8,4.3,1.1,6.6,1.1
				c2.4,0,4.6-0.4,6.6-1.1c2-0.8,3.8-1.8,5.3-3.2c1.5-1.4,2.6-3.1,3.5-5c0.8-1.9,1.3-4.1,1.3-6.5c0-2.4-0.4-4.6-1.3-6.5
				c-0.8-1.9-2-3.5-3.5-4.9c-1.5-1.3-3.2-2.4-5.3-3.1C194.9,243.2,192.7,242.8,190.3,242.8z M190.3,266.5c-1,0-2-0.2-3-0.6
				c-0.9-0.4-1.7-1-2.4-1.7c-0.6-0.7-1.2-1.6-1.5-2.6c-0.4-1-0.5-2.1-0.5-3.2c0-1.1,0.2-2.2,0.5-3.2c0.4-1,0.9-1.8,1.5-2.5
				c0.7-0.7,1.5-1.2,2.4-1.6c0.9-0.4,1.9-0.6,2.9-0.6c1,0,2,0.2,2.9,0.6c0.9,0.4,1.7,0.9,2.4,1.6c0.7,0.7,1.2,1.5,1.6,2.5
				c0.4,1,0.5,2,0.5,3.2c0,1.2-0.2,2.3-0.5,3.2c-0.4,1-0.9,1.9-1.5,2.6c-0.7,0.7-1.5,1.3-2.4,1.7
				C192.3,266.3,191.3,266.5,190.3,266.5z M190.3,252.6c-0.7,0-1.4,0.1-2.1,0.4c-0.6,0.3-1.2,0.6-1.6,1.1c-0.4,0.5-0.8,1.1-1.1,1.8
				c-0.3,0.7-0.4,1.5-0.4,2.4c0,0.9,0.1,1.8,0.4,2.5c0.3,0.7,0.6,1.4,1.1,1.9c0.4,0.5,1,0.9,1.6,1.2c0.6,0.3,1.3,0.4,2.1,0.4l0,0
				c0.7,0,1.4-0.1,2-0.4c0.6-0.3,1.2-0.7,1.6-1.2c0.5-0.5,0.8-1.2,1.1-1.9c0.3-0.7,0.4-1.6,0.4-2.5c0-0.9-0.1-1.7-0.4-2.4
				c-0.3-0.7-0.6-1.3-1.1-1.8c-0.5-0.5-1-0.9-1.6-1.1C191.7,252.8,191,252.6,190.3,252.6z"/>
			<path class="st1" d="M190.3,241c2.6,0,5,0.4,7.3,1.2c2.2,0.8,4.2,2,5.9,3.5c1.7,1.5,3,3.3,3.9,5.5c0.9,2.1,1.4,4.6,1.4,7.2
				c0,2.6-0.5,5.1-1.4,7.3c-0.9,2.2-2.2,4.1-3.9,5.6c-1.7,1.5-3.6,2.7-5.9,3.6c-2.2,0.8-4.7,1.3-7.3,1.3c-2.6,0-5-0.4-7.3-1.3
				c-2.2-0.8-4.2-2-5.8-3.6c-1.6-1.5-2.9-3.4-3.9-5.6c-0.9-2.2-1.4-4.6-1.4-7.3c0-2.6,0.5-5.1,1.4-7.2c0.9-2.1,2.2-4,3.9-5.5
				c1.6-1.5,3.6-2.7,5.8-3.5C185.3,241.4,187.7,241,190.3,241 M190.3,274.6c2.4,0,4.7-0.4,6.8-1.2c2.1-0.8,3.9-1.9,5.4-3.3
				c1.5-1.4,2.7-3.1,3.6-5.1c0.9-2,1.3-4.2,1.3-6.7c0-2.4-0.4-4.7-1.3-6.6c-0.9-1.9-2-3.6-3.6-5c-1.5-1.4-3.3-2.4-5.4-3.2
				c-2.1-0.7-4.3-1.1-6.8-1.1c-2.4,0-4.7,0.4-6.8,1.1c-2.1,0.7-3.9,1.8-5.3,3.2c-1.5,1.4-2.7,3-3.5,5c-0.9,1.9-1.3,4.2-1.3,6.6
				c0,2.4,0.4,4.7,1.3,6.7c0.9,2,2,3.7,3.5,5.1c1.5,1.4,3.3,2.5,5.4,3.3C185.6,274.2,187.9,274.6,190.3,274.6 M190.3,250.8
				c1,0,1.9,0.2,2.8,0.6c0.8,0.4,1.6,0.9,2.2,1.5c0.6,0.7,1.1,1.5,1.5,2.4c0.3,0.9,0.5,2,0.5,3.1c0,1.1-0.2,2.2-0.5,3.1
				c-0.3,1-0.8,1.8-1.5,2.5c-0.6,0.7-1.4,1.3-2.2,1.6c-0.9,0.4-1.8,0.6-2.8,0.6c-1,0-1.9-0.2-2.8-0.6c-0.9-0.4-1.6-0.9-2.3-1.6
				c-0.6-0.7-1.1-1.5-1.4-2.5c-0.3-0.9-0.5-2-0.5-3.1c0-1.1,0.2-2.1,0.5-3.1c0.3-0.9,0.8-1.8,1.5-2.4c0.6-0.7,1.4-1.2,2.2-1.5
				C188.4,251,189.3,250.8,190.3,250.8 M190.3,264.7c0.8,0,1.5-0.2,2.2-0.5c0.7-0.3,1.3-0.7,1.8-1.3c0.5-0.6,0.9-1.2,1.2-2
				c0.3-0.8,0.4-1.7,0.4-2.6c0-0.9-0.1-1.8-0.4-2.6c-0.3-0.8-0.7-1.4-1.2-1.9c-0.5-0.5-1.1-0.9-1.8-1.2c-0.7-0.3-1.4-0.4-2.2-0.4
				c-0.8,0-1.5,0.1-2.2,0.4c-0.7,0.3-1.3,0.7-1.8,1.2c-0.5,0.5-0.9,1.2-1.1,1.9c-0.3,0.8-0.4,1.6-0.4,2.6c0,1,0.1,1.8,0.4,2.6
				c0.3,0.8,0.7,1.5,1.2,2c0.5,0.5,1.1,1,1.7,1.3C188.8,264.6,189.5,264.7,190.3,264.7 M190.3,240.3c-2.7,0-5.2,0.4-7.5,1.3
				c-2.3,0.8-4.4,2.1-6.1,3.6c-1.7,1.6-3.1,3.5-4.1,5.7c-1,2.2-1.5,4.7-1.5,7.5c0,2.7,0.5,5.3,1.5,7.5c1,2.3,2.3,4.2,4,5.9
				c1.7,1.6,3.8,2.9,6.1,3.7c2.3,0.9,4.8,1.3,7.5,1.3c2.7,0,5.2-0.4,7.5-1.3c2.3-0.9,4.4-2.1,6.1-3.7c1.7-1.6,3.1-3.6,4.1-5.9
				c1-2.3,1.5-4.8,1.5-7.5c0-2.7-0.5-5.3-1.5-7.5c-1-2.2-2.4-4.2-4.1-5.7c-1.7-1.6-3.8-2.8-6.1-3.6
				C195.5,240.7,193,240.3,190.3,240.3L190.3,240.3z M190.3,273.9c-2.3,0-4.5-0.4-6.5-1.1c-2-0.7-3.7-1.8-5.1-3.1
				c-1.4-1.3-2.6-3-3.4-4.9c-0.8-1.9-1.2-4.1-1.2-6.4c0-2.3,0.4-4.5,1.2-6.3c0.8-1.9,1.9-3.5,3.4-4.7c1.4-1.3,3.1-2.3,5.1-3
				c2-0.7,4.2-1.1,6.5-1.1s4.5,0.4,6.5,1.1c2,0.7,3.7,1.7,5.1,3c1.4,1.3,2.6,2.9,3.4,4.7c0.8,1.9,1.2,4,1.2,6.3
				c0,2.3-0.4,4.5-1.2,6.4c-0.8,1.9-2,3.5-3.4,4.9c-1.4,1.3-3.2,2.4-5.1,3.1C194.8,273.5,192.6,273.9,190.3,273.9L190.3,273.9z
				 M190.3,250.1c-1.1,0-2.1,0.2-3.1,0.6c-1,0.4-1.8,1-2.5,1.7c-0.7,0.7-1.2,1.6-1.6,2.7c-0.4,1-0.6,2.1-0.6,3.3
				c0,1.2,0.2,2.3,0.6,3.4c0.4,1,0.9,2,1.6,2.7c0.7,0.8,1.5,1.4,2.5,1.8c1,0.4,2,0.6,3.1,0.6c1.1,0,2.1-0.2,3.1-0.6
				c0.9-0.4,1.8-1,2.5-1.8c0.7-0.8,1.2-1.7,1.6-2.7c0.4-1,0.6-2.2,0.6-3.4c0-1.2-0.2-2.3-0.6-3.3c-0.4-1-0.9-1.9-1.6-2.7
				c-0.7-0.7-1.5-1.3-2.5-1.7C192.4,250.3,191.4,250.1,190.3,250.1L190.3,250.1z M190.3,264c-0.7,0-1.3-0.1-1.9-0.4
				c-0.6-0.3-1.1-0.6-1.5-1.1c-0.4-0.5-0.8-1.1-1-1.8c-0.3-0.7-0.4-1.5-0.4-2.4c0-0.8,0.1-1.6,0.4-2.3c0.2-0.7,0.6-1.2,1-1.7
				c0.4-0.4,0.9-0.8,1.5-1c0.6-0.3,1.2-0.4,1.9-0.4c0.7,0,1.3,0.1,1.9,0.4c0.6,0.3,1.1,0.6,1.5,1c0.4,0.4,0.8,1,1,1.6
				c0.3,0.7,0.4,1.5,0.4,2.3c0,0.9-0.1,1.7-0.4,2.4c-0.2,0.7-0.6,1.3-1,1.8c-0.4,0.5-0.9,0.9-1.5,1.1C191.6,263.9,191,264,190.3,264
				L190.3,264z"/>
		</g>
		<g>
			<path class="st0" d="M230.3,275.5c-0.4,0-0.8-0.2-0.9-0.5l-6.8-11.8l0.3,11.2c0,0.3-0.1,0.6-0.3,0.8s-0.5,0.3-0.8,0.3h-10.2
				c-0.6,0-1.1-0.5-1.1-1.1v-31.8c0-0.6,0.5-1.1,1.1-1.1h10.6c0.4,0,0.8,0.2,1,0.6l7.1,12.6l-0.3-12c0-0.3,0.1-0.6,0.3-0.8
				c0.2-0.2,0.5-0.3,0.8-0.3h10.2c0.6,0,1.1,0.5,1.1,1.1v31.8c0,0.6-0.5,1.1-1.1,1.1H230.3z M240.1,273.3v-29.6h-7.9l0.4,15
				c0,0.3-0.1,0.6-0.3,0.8c-0.2,0.2-0.5,0.3-0.8,0.3h-0.2c-0.4,0-0.8-0.2-1-0.6l-8.8-15.6h-8.9v29.6h7.9l-0.4-14.1
				c0-0.3,0.1-0.6,0.3-0.8s0.5-0.3,0.8-0.3h0.2c0.4,0,0.8,0.2,0.9,0.5l8.5,14.6H240.1z"/>
			<path class="st1" d="M241.2,241.9c0.4,0,0.7,0.3,0.7,0.7v31.8c0,0.4-0.3,0.7-0.7,0.7h-10.9c-0.3,0-0.5-0.1-0.6-0.4l-7.5-13
				l0.4,12.6c0,0.2-0.1,0.4-0.2,0.5c-0.1,0.1-0.3,0.2-0.5,0.2h-10.2c-0.4,0-0.7-0.3-0.7-0.7v-31.8c0-0.4,0.3-0.7,0.7-0.7h10.6
				c0.3,0,0.5,0.1,0.6,0.4l7.8,13.9l-0.4-13.5c0-0.2,0.1-0.4,0.2-0.5c0.1-0.1,0.3-0.2,0.5-0.2H241.2 M231.3,259.5
				c-0.3,0-0.5-0.1-0.6-0.4l-8.9-15.8h-9.5v30.3h8.7l-0.4-14.4c0-0.2,0.1-0.4,0.2-0.5c0.1-0.1,0.3-0.2,0.5-0.2h0.2
				c0.3,0,0.5,0.1,0.6,0.4l8.6,14.8h9.8v-30.3h-8.7l0.4,15.4c0,0.2-0.1,0.4-0.2,0.5c-0.1,0.1-0.3,0.2-0.5,0.2H231.3 M241.2,241.2
				H231c-0.4,0-0.8,0.2-1,0.4c-0.3,0.3-0.4,0.7-0.4,1.1l0.3,10.6l-6.4-11.3c-0.3-0.5-0.7-0.7-1.3-0.7h-10.6c-0.8,0-1.5,0.7-1.5,1.5
				v31.8c0,0.8,0.7,1.5,1.5,1.5h10.2c0.4,0,0.8-0.2,1-0.4c0.3-0.3,0.4-0.7,0.4-1.1l-0.3-9.7l6.1,10.5c0.3,0.4,0.7,0.7,1.3,0.7h10.9
				c0.8,0,1.5-0.7,1.5-1.5v-31.8C242.7,241.8,242,241.2,241.2,241.2L241.2,241.2z M232.5,244.1h7.2V273h-8.6l-8.4-14.5
				c-0.3-0.4-0.7-0.7-1.3-0.7h-0.2c-0.4,0-0.8,0.2-1,0.4c-0.3,0.3-0.4,0.7-0.4,1.1l0.4,13.7h-7.2v-28.9h8.3l8.7,15.4
				c0.3,0.5,0.7,0.7,1.3,0.7h0.2c0.4,0,0.8-0.2,1-0.4c0.3-0.3,0.4-0.7,0.4-1.1L232.5,244.1L232.5,244.1z"/>
		</g>
		<g>
			<path class="st0" d="M50.4,309.6c-0.6,0-1.1-0.5-1.1-1.1v-20.1c0-0.6,0.5-1.1,1.1-1.1H59c1.1,0,2.2,0.1,3.2,0.4
				c1.1,0.2,2.1,0.7,3,1.3c0.9,0.6,1.7,1.4,2.2,2.5c0.6,1,0.8,2.3,0.8,3.8c0,1.4-0.3,2.7-0.8,3.7c-0.5,1-1.3,1.9-2.2,2.5
				c-0.9,0.6-1.9,1.1-3,1.4c-1.1,0.3-2.2,0.4-3.3,0.4h-0.8v5.4c0,0.6-0.5,1.1-1.1,1.1H50.4z M56,307.4V302c0-0.6,0.5-1.1,1.1-1.1H59
				c0.9,0,1.9-0.1,2.8-0.3c0.9-0.2,1.6-0.6,2.3-1c0.6-0.4,1.1-1,1.5-1.8c0.4-0.7,0.6-1.6,0.6-2.7c0-1.1-0.2-2-0.6-2.7
				c-0.4-0.7-0.9-1.3-1.5-1.7c-0.7-0.4-1.4-0.8-2.3-0.9c-0.9-0.2-1.8-0.3-2.8-0.3h-7.5v17.9H56z M57.1,298c-0.6,0-1.1-0.5-1.1-1.1
				v-3.2c0-0.6,0.5-1.1,1.1-1.1h1.4c0.3,0,0.6,0,0.9,0.1c0.4,0.1,0.7,0.2,1,0.4c0.4,0.2,0.7,0.5,0.9,0.9c0.2,0.4,0.3,0.8,0.3,1.3
				c0,1.3-0.6,1.9-1.2,2.2c-0.6,0.4-1.3,0.5-2,0.5H57.1z M58.5,295.8c0.3,0,0.6-0.1,0.8-0.2c0,0,0.1-0.1,0.1-0.4c0-0.2,0-0.2,0-0.2
				c-0.2-0.1-0.3-0.1-0.4-0.2c-0.2,0-0.4-0.1-0.5-0.1h-0.3v1H58.5z"/>
			<path class="st1" d="M59,287.7c1.1,0,2.1,0.1,3.2,0.3c1.1,0.2,2,0.6,2.9,1.2c0.9,0.6,1.6,1.4,2.1,2.3c0.5,1,0.8,2.2,0.8,3.6
				c0,1.4-0.3,2.5-0.8,3.5c-0.5,1-1.2,1.8-2.1,2.4c-0.8,0.6-1.8,1-2.9,1.3c-1,0.3-2.1,0.4-3.2,0.4h-1.2v5.7c0,0.4-0.3,0.7-0.7,0.7
				h-6.7c-0.4,0-0.7-0.3-0.7-0.7v-20.1c0-0.4,0.3-0.7,0.7-0.7H59 M51.1,307.8h5.3V302c0-0.4,0.3-0.7,0.7-0.7H59c1,0,1.9-0.1,2.9-0.3
				c0.9-0.2,1.7-0.6,2.4-1.1c0.7-0.5,1.2-1.1,1.6-1.9c0.4-0.8,0.6-1.7,0.6-2.8c0-1.2-0.2-2.1-0.6-2.9c-0.4-0.8-1-1.4-1.6-1.8
				c-0.7-0.5-1.5-0.8-2.4-1c-0.9-0.2-1.9-0.3-2.8-0.3h-7.9V307.8 M58.5,292.9c0.3,0,0.6,0,0.9,0.1c0.3,0.1,0.6,0.2,0.9,0.3
				c0.3,0.2,0.6,0.4,0.7,0.7c0.2,0.3,0.3,0.7,0.3,1.1c0,1.1-0.5,1.6-1,1.9c-0.5,0.3-1.1,0.5-1.8,0.5h-1.4c-0.4,0-0.7-0.3-0.7-0.7
				v-3.2c0-0.4,0.3-0.7,0.7-0.7H58.5 M57.8,296.2h0.7c0.4,0,0.7-0.1,1-0.3c0.1-0.1,0.3-0.2,0.3-0.7c0-0.3,0-0.4-0.1-0.4
				c0-0.1-0.1-0.1-0.2-0.2c-0.1-0.1-0.3-0.1-0.4-0.2c-0.2,0-0.4-0.1-0.6-0.1h-0.7V296.2 M59,286.9h-8.6c-0.8,0-1.5,0.7-1.5,1.5v20.1
				c0,0.8,0.7,1.5,1.5,1.5h6.7c0.8,0,1.5-0.7,1.5-1.5v-5H59c1.2,0,2.3-0.1,3.4-0.4c1.2-0.3,2.2-0.8,3.1-1.4c0.9-0.7,1.7-1.6,2.3-2.6
				c0.6-1.1,0.9-2.4,0.9-3.9c0-1.5-0.3-2.9-0.9-4c-0.6-1.1-1.4-1.9-2.3-2.6c-0.9-0.6-2-1.1-3.1-1.3C61.2,287.1,60.1,286.9,59,286.9
				L59,286.9z M51.8,289.9H59c0.9,0,1.8,0.1,2.7,0.3c0.8,0.2,1.5,0.5,2.1,0.9c0.6,0.4,1,0.9,1.4,1.6c0.4,0.6,0.5,1.5,0.5,2.5
				c0,1-0.2,1.8-0.5,2.5c-0.4,0.7-0.8,1.2-1.4,1.6c-0.6,0.4-1.3,0.8-2.1,1c-0.9,0.2-1.8,0.3-2.7,0.3h-1.9c-0.8,0-1.5,0.7-1.5,1.5v5
				h-3.8V289.9L51.8,289.9z M58.5,292.2h-1.4c-0.8,0-1.5,0.7-1.5,1.5v3.2c0,0.8,0.7,1.5,1.5,1.5h1.4c0.8,0,1.5-0.2,2.2-0.6
				c0.9-0.5,1.3-1.4,1.3-2.5c0-0.6-0.1-1.1-0.4-1.5c-0.2-0.4-0.6-0.8-1-1c-0.3-0.2-0.7-0.3-1.1-0.4
				C59.2,292.2,58.8,292.2,58.5,292.2L58.5,292.2z M58.5,295.4v-0.3c0.1,0,0.3,0,0.4,0c0,0,0.1,0,0.1,0c0,0,0,0,0,0c0,0,0,0.1,0,0.1
				C58.9,295.4,58.7,295.4,58.5,295.4L58.5,295.4z"/>
		</g>
		<g>
			<path class="st0" d="M69.8,309.6c-0.6,0-1.1-0.5-1.1-1.1v-20.1c0-0.6,0.5-1.1,1.1-1.1h13.8c0.6,0,1.1,0.5,1.1,1.1v5.6
				c0,0.5-0.3,0.9-0.7,1c0.2,0.2,0.3,0.4,0.3,0.7v5.2c0,0.3-0.1,0.6-0.3,0.8h0.2c0.6,0,1.1,0.5,1.1,1.1v5.6c0,0.6-0.5,1.1-1.1,1.1
				H69.8z M83,307.4V304h-6.9c-0.6,0-1.1-0.5-1.1-1.1V301c0-0.6,0.5-1.1,1.1-1.1H82v-3.1h-5.9c-0.6,0-1.1-0.5-1.1-1.1V294
				c0-0.6,0.5-1.1,1.1-1.1h6.4v-3.4H70.9v17.9H83z"/>
			<path class="st1" d="M83.6,287.7c0.4,0,0.7,0.3,0.7,0.7v5.6c0,0.4-0.3,0.7-0.7,0.7h-6.7v0.3h6.3c0.4,0,0.7,0.3,0.7,0.7v5.2
				c0,0.4-0.3,0.7-0.7,0.7h-6.3v0.4h7.2c0.4,0,0.7,0.3,0.7,0.7v5.6c0,0.4-0.3,0.7-0.7,0.7H69.8c-0.4,0-0.7-0.3-0.7-0.7v-20.1
				c0-0.4,0.3-0.7,0.7-0.7H83.6 M70.5,307.8h12.8v-4.2h-7.2c-0.4,0-0.7-0.3-0.7-0.7V301c0-0.4,0.3-0.7,0.7-0.7h6.3v-3.8h-6.3
				c-0.4,0-0.7-0.3-0.7-0.7V294c0-0.4,0.3-0.7,0.7-0.7h6.7v-4.2H70.5V307.8 M83.6,286.9H69.8c-0.8,0-1.5,0.7-1.5,1.5v20.1
				c0,0.8,0.7,1.5,1.5,1.5h14.3c0.8,0,1.5-0.7,1.5-1.5v-5.6c0-0.7-0.4-1.2-1-1.4c0.1-0.2,0.1-0.3,0.1-0.5v-5.2c0-0.2,0-0.4-0.1-0.6
				c0.3-0.3,0.6-0.7,0.6-1.2v-5.6C85,287.6,84.4,286.9,83.6,286.9L83.6,286.9z M71.2,289.9h10.9v2.7h-6c-0.8,0-1.5,0.7-1.5,1.5v1.7
				c0,0.8,0.7,1.5,1.5,1.5h5.5v2.3h-5.5c-0.8,0-1.5,0.7-1.5,1.5v1.9c0,0.8,0.7,1.5,1.5,1.5h6.5v2.7H71.2V289.9L71.2,289.9z"/>
		</g>
		<g>
			<path class="st0" d="M95.9,310.2c-1.7,0-3.2-0.2-4.5-0.7c-1.3-0.5-2.4-1.2-3.3-2c-0.9-0.9-1.6-1.9-2-3.1
				c-0.4-1.1-0.6-2.4-0.6-3.7v-12.2c0-0.6,0.5-1.1,1.1-1.1h6.8c0.6,0,1.1,0.5,1.1,1.1v11.5c0,0.7,0.1,1.2,0.4,1.5
				c0.3,0.3,0.6,0.4,1.1,0.4s0.9-0.1,1.1-0.4c0.3-0.3,0.4-0.9,0.4-1.5v-11.5c0-0.6,0.5-1.1,1.1-1.1h6.7c0.6,0,1.1,0.5,1.1,1.1v12.2
				c0,1.3-0.2,2.6-0.7,3.7c-0.5,1.2-1.2,2.2-2.1,3.1c-0.9,0.9-2,1.5-3.3,2C99.1,309.9,97.6,310.2,95.9,310.2z M87.7,300.6
				c0,1.1,0.2,2.1,0.5,3c0.3,0.9,0.8,1.6,1.5,2.3c0.7,0.6,1.5,1.2,2.5,1.5c1,0.4,2.3,0.6,3.7,0.6c1.4,0,2.7-0.2,3.8-0.6
				c1-0.4,1.9-0.9,2.6-1.6c0.7-0.6,1.2-1.4,1.5-2.3c0.4-0.9,0.5-1.9,0.5-2.9v-11.1h-4.5v10.4c0,1.2-0.3,2.2-1,3
				c-0.7,0.8-1.6,1.2-2.8,1.2c-1.2,0-2.1-0.4-2.8-1.2c-0.6-0.7-1-1.7-1-3v-10.4h-4.6V300.6z"/>
			<path class="st1" d="M105.4,287.7c0.4,0,0.7,0.3,0.7,0.7v12.2c0,1.3-0.2,2.5-0.7,3.6c-0.4,1.1-1.1,2.1-2,2.9
				c-0.9,0.8-1.9,1.5-3.2,1.9c-1.3,0.5-2.7,0.7-4.4,0.7c-1.7,0-3.1-0.2-4.4-0.7c-1.3-0.5-2.3-1.1-3.2-1.9c-0.9-0.8-1.5-1.8-1.9-3
				c-0.4-1.1-0.6-2.3-0.6-3.6v-12.2c0-0.4,0.3-0.7,0.7-0.7h6.8c0.4,0,0.7,0.3,0.7,0.7v11.5c0,0.8,0.2,1.4,0.5,1.8
				c0.3,0.4,0.8,0.6,1.4,0.6c0.6,0,1.1-0.2,1.4-0.6c0.3-0.4,0.5-1,0.5-1.8v-11.5c0-0.4,0.3-0.7,0.7-0.7H105.4 M96,303.7
				c-1.1,0-1.9-0.4-2.5-1.1c-0.6-0.7-0.9-1.6-0.9-2.7v-10.7h-5.3v11.5c0,1.1,0.2,2.1,0.5,3.1c0.3,0.9,0.9,1.7,1.6,2.4
				c0.7,0.7,1.6,1.2,2.7,1.6c1.1,0.4,2.4,0.6,3.8,0.6c1.5,0,2.8-0.2,3.9-0.6c1.1-0.4,2-0.9,2.7-1.6c0.7-0.7,1.3-1.5,1.6-2.4
				c0.4-0.9,0.6-2,0.6-3.1v-11.5h-5.3v10.7c0,1.1-0.3,2.1-0.9,2.7C97.9,303.3,97.1,303.7,96,303.7 M105.4,286.9h-6.7
				c-0.8,0-1.5,0.7-1.5,1.5v11.5c0,0.6-0.1,1-0.3,1.3c-0.1,0.1-0.3,0.3-0.9,0.3c-0.5,0-0.8-0.2-0.9-0.3c-0.2-0.3-0.3-0.7-0.3-1.3
				v-11.5c0-0.8-0.7-1.5-1.5-1.5h-6.8c-0.8,0-1.5,0.7-1.5,1.5v12.2c0,1.4,0.2,2.7,0.7,3.8c0.5,1.2,1.2,2.3,2.1,3.2
				c0.9,0.9,2.1,1.6,3.4,2.1c1.3,0.5,2.9,0.7,4.6,0.7c1.7,0,3.3-0.2,4.6-0.7c1.4-0.5,2.5-1.2,3.5-2.1c0.9-0.9,1.7-2,2.2-3.2
				c0.5-1.2,0.7-2.5,0.7-3.9v-12.2C106.9,287.6,106.2,286.9,105.4,286.9L105.4,286.9z M100.1,289.9h3.8v10.7c0,1-0.2,1.9-0.5,2.8
				c-0.3,0.8-0.8,1.6-1.5,2.2c-0.6,0.6-1.5,1.1-2.5,1.5c-1,0.4-2.2,0.6-3.6,0.6c-1.4,0-2.6-0.2-3.6-0.6c-1-0.4-1.8-0.9-2.4-1.5
				c-0.6-0.6-1.1-1.3-1.4-2.1c-0.3-0.9-0.5-1.8-0.5-2.8v-10.7h3.8v10c0,1.3,0.4,2.4,1,3.2c0.8,0.9,1.8,1.3,3.1,1.3
				c1.3,0,2.3-0.5,3.1-1.3c0.7-0.8,1-1.9,1-3.2V289.9L100.1,289.9z"/>
		</g>
		<g>
			<path class="st0" d="M119.1,310.1c-1.7,0-3.3-0.3-4.8-0.8c-1.5-0.5-2.8-1.3-3.9-2.3c-1.1-1-2-2.3-2.6-3.7
				c-0.6-1.4-0.9-3.1-0.9-4.8c0-1.8,0.3-3.4,0.9-4.8c0.6-1.4,1.5-2.7,2.6-3.7c1.1-1,2.4-1.8,3.8-2.4c1.4-0.5,3-0.8,4.6-0.8
				c1.7,0,3.3,0.3,4.8,0.8c1.6,0.6,2.9,1.4,3.8,2.4c0.4,0.4,0.4,1,0.1,1.5l-3,3.6h2.5c0.6,0,1.1,0.5,1.1,1.1v11
				c0,0.4-0.2,0.7-0.5,0.9c-0.5,0.3-1.1,0.6-1.8,0.9c-0.7,0.3-1.4,0.5-2.1,0.7c-0.7,0.2-1.5,0.3-2.3,0.4
				C120.7,310,119.9,310.1,119.1,310.1z M118.9,288.9c-1.4,0-2.7,0.2-3.9,0.7c-1.2,0.4-2.2,1.1-3.1,1.9c-0.9,0.8-1.6,1.8-2.1,3
				c-0.5,1.2-0.8,2.5-0.8,3.9s0.3,2.8,0.8,3.9c0.5,1.2,1.2,2.2,2.1,3c0.9,0.8,1.9,1.5,3.2,1.9c1.2,0.4,2.6,0.7,4.1,0.7
				c0.7,0,1.4,0,2.1-0.1c0.7-0.1,1.4-0.2,2.1-0.4c0.6-0.2,1.3-0.3,1.8-0.6c0.3-0.1,0.6-0.3,0.9-0.4v-9.2h-7v3.1h2.1
				c0.6,0,1.1,0.5,1.1,1.1v1.5c0,0.4-0.2,0.8-0.6,1c-0.3,0.2-0.6,0.3-1.1,0.3c-0.4,0.1-0.7,0.1-1,0.1c-1.9,0-3.4-0.6-4.3-1.7
				c-0.9-1.1-1.3-2.5-1.3-4.1c0-0.8,0.2-1.6,0.5-2.3c0.3-0.7,0.7-1.3,1.2-1.8c0.5-0.5,1.1-0.9,1.7-1.2c0.7-0.3,1.3-0.4,2-0.4
				c1,0,1.9,0.2,2.6,0.6c0.3,0.2,0.6,0.3,0.9,0.6l2.5-3c-0.6-0.5-1.4-0.9-2.3-1.2C121.7,289.2,120.3,288.9,118.9,288.9z
				 M116.8,296.1c-0.2,0.2-0.3,0.5-0.5,0.8c-0.2,0.4-0.3,0.9-0.3,1.5c0,1.1,0.2,2,0.8,2.6V296.1z M120,295c-0.2,0-0.5-0.1-0.7-0.1
				c-0.2,0-0.4,0-0.6,0.1H120z"/>
			<path class="st1" d="M118.9,287.1c1.6,0,3.2,0.3,4.7,0.8c1.5,0.5,2.8,1.3,3.7,2.3c0.3,0.3,0.3,0.7,0,1l-3.5,4.2h3.2
				c0.4,0,0.7,0.3,0.7,0.7v11c0,0.3-0.1,0.5-0.4,0.6c-0.5,0.3-1.1,0.6-1.7,0.8c-0.6,0.2-1.3,0.5-2,0.6c-0.7,0.2-1.5,0.3-2.2,0.4
				c-0.8,0.1-1.6,0.2-2.4,0.2c-1.7,0-3.2-0.3-4.7-0.8c-1.4-0.5-2.7-1.3-3.8-2.3c-1.1-1-1.9-2.2-2.5-3.6c-0.6-1.4-0.9-3-0.9-4.7
				c0-1.7,0.3-3.3,0.9-4.7c0.6-1.4,1.4-2.6,2.5-3.6c1-1,2.3-1.8,3.7-2.3C115.7,287.4,117.3,287.1,118.9,287.1 M119.1,308.3
				c0.7,0,1.4,0,2.1-0.1c0.7-0.1,1.4-0.2,2.1-0.4c0.7-0.2,1.3-0.4,1.9-0.6c0.4-0.2,0.8-0.3,1.2-0.5v-9.8h-7.8v3.8h2.5
				c0.4,0,0.7,0.3,0.7,0.7v1.5c0,0.3-0.1,0.5-0.4,0.6c-0.2,0.1-0.6,0.2-1,0.3c-0.3,0.1-0.7,0.1-1,0.1c-1.8,0-3.2-0.5-4.1-1.6
				c-0.8-1-1.3-2.3-1.3-3.9c0-0.8,0.1-1.5,0.4-2.2c0.3-0.6,0.7-1.2,1.1-1.7c0.5-0.5,1-0.8,1.6-1.1c0.6-0.3,1.2-0.4,1.9-0.4
				c0.9,0,1.8,0.2,2.4,0.5c0.4,0.2,0.8,0.5,1.1,0.7l3-3.6c-0.7-0.6-1.6-1.1-2.7-1.5c-1.3-0.5-2.7-0.7-4.2-0.7c-1.4,0-2.8,0.2-4,0.7
				c-1.2,0.5-2.3,1.1-3.2,2c-0.9,0.9-1.6,1.9-2.2,3.1c-0.5,1.2-0.8,2.6-0.8,4.1c0,1.5,0.3,2.9,0.8,4.1c0.5,1.2,1.3,2.2,2.2,3.1
				c0.9,0.8,2,1.5,3.3,2C116.2,308,117.6,308.3,119.1,308.3 M119.5,302.5c0.2,0,0.5,0,0.8-0.1c0,0,0.1,0,0.1,0v-0.3h-2.5
				c-0.4,0-0.7-0.3-0.7-0.7v-5.3c0-0.4,0.3-0.7,0.7-0.7h3.8c-0.2-0.2-0.4-0.3-0.7-0.4c-0.5-0.2-1.1-0.4-1.8-0.4
				c-0.4,0-0.9,0.1-1.3,0.3c-0.4,0.2-0.8,0.4-1.1,0.8c-0.3,0.3-0.6,0.8-0.8,1.2c-0.2,0.5-0.3,1-0.3,1.6c0,1.2,0.3,2.2,0.9,3
				C117.2,302.1,118.2,302.5,119.5,302.5 M118.9,286.4c-1.7,0-3.3,0.3-4.8,0.8c-1.5,0.6-2.8,1.4-3.9,2.4c-1.1,1.1-2,2.3-2.7,3.8
				c-0.6,1.5-1,3.1-1,5c0,1.8,0.3,3.5,1,5c0.6,1.5,1.6,2.8,2.7,3.8c1.1,1,2.5,1.9,4,2.4c1.5,0.5,3.2,0.8,4.9,0.8
				c0.8,0,1.6-0.1,2.5-0.2c0.8-0.1,1.6-0.3,2.3-0.4c0.7-0.2,1.5-0.4,2.1-0.7c0.7-0.3,1.3-0.6,1.9-0.9c0.4-0.3,0.7-0.7,0.7-1.3v-11
				c0-0.8-0.7-1.5-1.5-1.5h-1.7l2.5-3c0.5-0.6,0.4-1.4-0.1-2c-1-1-2.4-1.9-4-2.4C122.3,286.7,120.6,286.4,118.9,286.4L118.9,286.4z
				 M119.1,307.5c-1.4,0-2.8-0.2-4-0.6c-1.2-0.4-2.2-1-3-1.8c-0.8-0.8-1.5-1.7-2-2.8c-0.5-1.1-0.7-2.4-0.7-3.8
				c0-1.4,0.2-2.7,0.7-3.8c0.5-1.1,1.2-2.1,2-2.9c0.8-0.8,1.8-1.4,3-1.8c1.2-0.4,2.4-0.7,3.7-0.7c1.4,0,2.7,0.2,4,0.7
				c0.7,0.3,1.3,0.6,1.9,0.9l-2,2.5c-0.2-0.1-0.4-0.3-0.6-0.4c-0.8-0.4-1.7-0.6-2.8-0.6c-0.7,0-1.5,0.1-2.2,0.4
				c-0.7,0.3-1.3,0.7-1.9,1.3c-0.5,0.5-0.9,1.2-1.3,1.9c-0.3,0.7-0.5,1.6-0.5,2.5c0,1.7,0.5,3.2,1.4,4.4c1,1.2,2.6,1.8,4.6,1.8
				c0.4,0,0.7,0,1.1-0.1c0.5-0.1,0.9-0.2,1.2-0.4c0.5-0.3,0.8-0.7,0.8-1.3v-1.5c0-0.8-0.7-1.5-1.5-1.5h-1.8v-2.4h6.3v8.6
				c-0.2,0.1-0.5,0.2-0.7,0.3c-0.6,0.2-1.2,0.4-1.8,0.6c-0.6,0.2-1.3,0.3-2,0.4C120.5,307.5,119.8,307.5,119.1,307.5L119.1,307.5z
				 M116.4,299.1c0-0.2,0-0.4,0-0.6c0-0.2,0-0.3,0-0.5V299.1L116.4,299.1z"/>
		</g>
		<g>
			<path class="st0" d="M130.5,309.6c-0.6,0-1.1-0.5-1.1-1.1v-20.1c0-0.6,0.5-1.1,1.1-1.1h13.8c0.6,0,1.1,0.5,1.1,1.1v5.6
				c0,0.5-0.3,0.9-0.7,1c0.2,0.2,0.3,0.4,0.3,0.7v5.2c0,0.3-0.1,0.6-0.3,0.8h0.2c0.6,0,1.1,0.5,1.1,1.1v5.6c0,0.6-0.5,1.1-1.1,1.1
				H130.5z M143.7,307.4V304h-6.9c-0.6,0-1.1-0.5-1.1-1.1V301c0-0.6,0.5-1.1,1.1-1.1h5.9v-3.1h-5.9c-0.6,0-1.1-0.5-1.1-1.1V294
				c0-0.6,0.5-1.1,1.1-1.1h6.4v-3.4h-11.6v17.9H143.7z"/>
			<path class="st1" d="M144.3,287.7c0.4,0,0.7,0.3,0.7,0.7v5.6c0,0.4-0.3,0.7-0.7,0.7h-6.7v0.3h6.3c0.4,0,0.7,0.3,0.7,0.7v5.2
				c0,0.4-0.3,0.7-0.7,0.7h-6.3v0.4h7.2c0.4,0,0.7,0.3,0.7,0.7v5.6c0,0.4-0.3,0.7-0.7,0.7h-14.3c-0.4,0-0.7-0.3-0.7-0.7v-20.1
				c0-0.4,0.3-0.7,0.7-0.7H144.3 M131.2,307.8h12.8v-4.2h-7.2c-0.4,0-0.7-0.3-0.7-0.7V301c0-0.4,0.3-0.7,0.7-0.7h6.3v-3.8h-6.3
				c-0.4,0-0.7-0.3-0.7-0.7V294c0-0.4,0.3-0.7,0.7-0.7h6.7v-4.2h-12.4V307.8 M144.3,286.9h-13.8c-0.8,0-1.5,0.7-1.5,1.5v20.1
				c0,0.8,0.7,1.5,1.5,1.5h14.3c0.8,0,1.5-0.7,1.5-1.5v-5.6c0-0.7-0.4-1.2-1-1.4c0.1-0.2,0.1-0.3,0.1-0.5v-5.2c0-0.2,0-0.4-0.1-0.6
				c0.3-0.3,0.6-0.7,0.6-1.2v-5.6C145.8,287.6,145.1,286.9,144.3,286.9L144.3,286.9z M132,289.9h10.9v2.7h-6c-0.8,0-1.5,0.7-1.5,1.5
				v1.7c0,0.8,0.7,1.5,1.5,1.5h5.5v2.3h-5.5c-0.8,0-1.5,0.7-1.5,1.5v1.9c0,0.8,0.7,1.5,1.5,1.5h6.5v2.7H132V289.9L132,289.9z"/>
		</g>
		<g>
			<path class="st0" d="M157.9,310.2c-1.7,0-3.3-0.3-4.8-0.8c-1.5-0.6-2.8-1.4-3.9-2.4c-1.1-1-2-2.3-2.6-3.8
				c-0.6-1.5-0.9-3.1-0.9-4.8c0-1.8,0.3-3.4,0.9-4.8c0.6-1.4,1.5-2.7,2.6-3.7c1.1-1,2.4-1.8,3.9-2.3c1.5-0.5,3.1-0.8,4.8-0.8
				s3.3,0.3,4.8,0.8c1.5,0.5,2.8,1.3,3.9,2.3c1.1,1,2,2.2,2.6,3.7c0.6,1.4,0.9,3,0.9,4.8c0,1.8-0.3,3.4-0.9,4.8
				c-0.6,1.5-1.5,2.7-2.6,3.8c-1.1,1-2.4,1.8-3.9,2.4C161.2,309.9,159.6,310.2,157.9,310.2z M157.9,288.9c-1.5,0-2.8,0.2-4.1,0.7
				c-1.2,0.4-2.3,1.1-3.2,1.9c-0.9,0.8-1.6,1.8-2.1,2.9c-0.5,1.2-0.8,2.5-0.8,3.9c0,1.5,0.3,2.8,0.8,4c0.5,1.2,1.2,2.2,2.1,3
				c0.9,0.8,1.9,1.5,3.2,1.9c1.2,0.5,2.6,0.7,4,0.7s2.8-0.2,4-0.7c1.2-0.5,2.3-1.1,3.2-1.9c0.9-0.8,1.6-1.8,2.1-3
				c0.5-1.2,0.8-2.5,0.8-4c0-1.4-0.3-2.8-0.8-3.9c-0.5-1.1-1.2-2.1-2.1-2.9c-0.9-0.8-2-1.4-3.2-1.9
				C160.7,289.2,159.3,288.9,157.9,288.9z M157.9,303.9c-0.7,0-1.4-0.1-2-0.4c-0.6-0.3-1.2-0.7-1.6-1.2c-0.4-0.5-0.8-1.1-1-1.8
				c-0.2-0.7-0.4-1.4-0.4-2.2c0-0.8,0.1-1.5,0.4-2.2c0.3-0.7,0.6-1.3,1.1-1.7c0.5-0.5,1-0.9,1.6-1.1c0.6-0.3,1.3-0.4,2-0.4
				c0.7,0,1.4,0.1,2,0.4c0.6,0.3,1.2,0.6,1.6,1.1c0.5,0.5,0.8,1.1,1.1,1.7c0.2,0.7,0.4,1.4,0.4,2.2c0,0.8-0.1,1.5-0.4,2.2
				c-0.2,0.7-0.6,1.3-1.1,1.8c-0.5,0.5-1,0.9-1.6,1.2C159.3,303.8,158.6,303.9,157.9,303.9z M157.9,295.1c-0.4,0-0.8,0.1-1.2,0.2
				c-0.4,0.2-0.6,0.4-0.9,0.6c-0.2,0.3-0.4,0.6-0.6,1c-0.2,0.4-0.2,0.9-0.2,1.4c0,0.5,0.1,1,0.2,1.4c0.2,0.4,0.4,0.8,0.6,1.1
				c0.2,0.3,0.5,0.5,0.9,0.6c0.3,0.2,0.7,0.2,1.1,0.2l0,0c0.4,0,0.8-0.1,1.1-0.2c0.3-0.2,0.6-0.4,0.9-0.7c0.3-0.3,0.5-0.6,0.6-1.1
				c0.2-0.4,0.2-0.9,0.2-1.4c0-0.5-0.1-1-0.2-1.4c-0.1-0.4-0.3-0.7-0.6-1c-0.3-0.3-0.6-0.5-0.9-0.6
				C158.6,295.2,158.3,295.1,157.9,295.1z"/>
			<path class="st1" d="M157.9,287.1c1.7,0,3.2,0.3,4.7,0.8c1.4,0.5,2.7,1.3,3.8,2.2c1.1,1,1.9,2.2,2.5,3.6c0.6,1.4,0.9,2.9,0.9,4.6
				c0,1.7-0.3,3.3-0.9,4.7c-0.6,1.4-1.5,2.6-2.5,3.6c-1.1,1-2.3,1.8-3.8,2.3c-1.4,0.5-3,0.8-4.7,0.8c-1.7,0-3.2-0.3-4.7-0.8
				c-1.4-0.5-2.7-1.3-3.8-2.3c-1.1-1-1.9-2.2-2.5-3.6c-0.6-1.4-0.9-3-0.9-4.7c0-1.7,0.3-3.3,0.9-4.6c0.6-1.4,1.5-2.6,2.5-3.6
				c1.1-1,2.3-1.7,3.8-2.2C154.6,287.4,156.2,287.1,157.9,287.1 M157.9,308.3c1.5,0,2.9-0.2,4.2-0.7c1.3-0.5,2.4-1.2,3.3-2
				c0.9-0.9,1.7-1.9,2.2-3.1c0.5-1.2,0.8-2.6,0.8-4.1c0-1.5-0.3-2.9-0.8-4.1c-0.5-1.2-1.3-2.2-2.2-3.1c-0.9-0.8-2-1.5-3.3-2
				c-1.3-0.5-2.7-0.7-4.2-0.7c-1.5,0-2.9,0.2-4.2,0.7c-1.3,0.5-2.4,1.1-3.3,2c-0.9,0.8-1.6,1.9-2.2,3.1c-0.5,1.2-0.8,2.6-0.8,4.1
				c0,1.5,0.3,2.9,0.8,4.1c0.5,1.2,1.3,2.3,2.2,3.1c0.9,0.9,2,1.5,3.3,2C155,308.1,156.4,308.3,157.9,308.3 M157.8,293.3
				c0.6,0,1.3,0.1,1.9,0.4c0.6,0.2,1.1,0.6,1.5,1c0.4,0.4,0.8,1,1,1.6c0.2,0.6,0.3,1.3,0.3,2c0,0.7-0.1,1.4-0.3,2.1
				c-0.2,0.6-0.6,1.2-1,1.7c-0.4,0.5-0.9,0.8-1.5,1.1c-0.6,0.3-1.2,0.4-1.9,0.4c-0.7,0-1.3-0.1-1.9-0.4c-0.6-0.3-1.1-0.6-1.5-1.1
				c-0.4-0.5-0.7-1-1-1.7c-0.2-0.6-0.3-1.3-0.3-2.1c0-0.7,0.1-1.4,0.3-2c0.2-0.6,0.6-1.2,1-1.6c0.4-0.4,0.9-0.8,1.5-1
				C156.6,293.4,157.2,293.3,157.8,293.3 M157.9,302.1c0.4,0,0.9-0.1,1.3-0.3c0.4-0.2,0.7-0.4,1-0.7c0.3-0.3,0.5-0.7,0.7-1.2
				c0.2-0.5,0.3-1,0.3-1.6c0-0.6-0.1-1.1-0.3-1.5c-0.2-0.4-0.4-0.8-0.7-1.1c-0.3-0.3-0.6-0.5-1-0.7c-0.4-0.2-0.8-0.3-1.3-0.3
				c-0.5,0-0.9,0.1-1.3,0.3c-0.4,0.2-0.7,0.4-1,0.7c-0.3,0.3-0.5,0.7-0.7,1.1c-0.2,0.5-0.3,1-0.3,1.5c0,0.6,0.1,1.1,0.3,1.6
				c0.2,0.5,0.4,0.9,0.7,1.2c0.3,0.3,0.6,0.6,1,0.7C157,302,157.4,302.1,157.9,302.1 M157.9,286.4c-1.8,0-3.4,0.3-4.9,0.8
				c-1.5,0.6-2.9,1.4-4,2.4c-1.1,1-2,2.3-2.7,3.8c-0.6,1.5-1,3.1-1,4.9c0,1.8,0.3,3.5,1,5c0.6,1.5,1.5,2.8,2.7,3.9
				c1.1,1.1,2.5,1.9,4,2.5c1.5,0.6,3.2,0.9,4.9,0.9c1.8,0,3.4-0.3,4.9-0.9c1.5-0.6,2.9-1.4,4-2.5c1.1-1.1,2.1-2.4,2.7-3.9
				c0.6-1.5,1-3.2,1-5c0-1.8-0.3-3.5-1-4.9c-0.6-1.5-1.6-2.8-2.7-3.8c-1.1-1-2.5-1.8-4-2.4C161.3,286.6,159.6,286.4,157.9,286.4
				L157.9,286.4z M157.9,307.6c-1.4,0-2.7-0.2-3.9-0.7c-1.2-0.4-2.2-1.1-3-1.9c-0.8-0.8-1.5-1.8-2-2.9c-0.5-1.1-0.7-2.4-0.7-3.8
				c0-1.4,0.2-2.7,0.7-3.8c0.5-1.1,1.2-2,2-2.8c0.8-0.8,1.9-1.4,3-1.8c1.2-0.4,2.5-0.7,3.9-0.7c1.4,0,2.7,0.2,3.9,0.7
				c1.2,0.4,2.2,1,3.1,1.8c0.8,0.8,1.5,1.7,2,2.8c0.5,1.1,0.7,2.4,0.7,3.8c0,1.4-0.2,2.7-0.7,3.8c-0.5,1.1-1.2,2.1-2,2.9
				c-0.9,0.8-1.9,1.4-3.1,1.9C160.6,307.4,159.3,307.6,157.9,307.6L157.9,307.6z M157.8,292.6L157.8,292.6c-0.8,0-1.5,0.1-2.2,0.4
				c-0.7,0.3-1.3,0.7-1.8,1.2c-0.5,0.5-0.9,1.1-1.1,1.9c-0.3,0.7-0.4,1.5-0.4,2.3c0,0.8,0.1,1.6,0.4,2.3c0.3,0.7,0.6,1.4,1.1,1.9
				c0.5,0.6,1.1,1,1.8,1.3c0.7,0.3,1.4,0.5,2.2,0.5c0.8,0,1.5-0.2,2.2-0.5c0.7-0.3,1.3-0.7,1.7-1.3c0.5-0.5,0.9-1.2,1.1-1.9
				c0.3-0.7,0.4-1.5,0.4-2.3c0-0.8-0.1-1.6-0.4-2.3c-0.3-0.7-0.7-1.4-1.2-1.9c-0.5-0.5-1.1-0.9-1.7-1.2
				C159.4,292.7,158.6,292.6,157.8,292.6L157.8,292.6z M157.9,301.4c-0.4,0-0.7-0.1-1-0.2c-0.3-0.1-0.5-0.3-0.8-0.6
				c-0.2-0.3-0.4-0.6-0.5-1c-0.1-0.4-0.2-0.8-0.2-1.3c0-0.5,0.1-0.9,0.2-1.3c0.1-0.4,0.3-0.6,0.5-0.9c0.2-0.2,0.5-0.4,0.8-0.5
				c0.3-0.1,0.7-0.2,1-0.2c0.4,0,0.7,0.1,1,0.2c0.3,0.1,0.6,0.3,0.8,0.5c0.2,0.2,0.4,0.5,0.5,0.8c0.1,0.4,0.2,0.8,0.2,1.3
				c0,0.5-0.1,0.9-0.2,1.3c-0.1,0.4-0.3,0.7-0.5,0.9c-0.2,0.2-0.5,0.4-0.8,0.6C158.5,301.3,158.2,301.4,157.9,301.4L157.9,301.4z"/>
		</g>
		<g>
			<path class="st0" d="M174.3,309.6c-0.6,0-1.1-0.5-1.1-1.1v-13.3h-3.8c-0.6,0-1.1-0.5-1.1-1.1v-5.7c0-0.6,0.5-1.1,1.1-1.1H186
				c0.6,0,1.1,0.5,1.1,1.1v5.7c0,0.6-0.5,1.1-1.1,1.1h-3.8v13.3c0,0.6-0.5,1.1-1.1,1.1H174.3z M179.9,307.4v-13.3
				c0-0.6,0.5-1.1,1.1-1.1h3.8v-3.5h-14.4v3.5h3.8c0.6,0,1.1,0.5,1.1,1.1v13.3H179.9z"/>
			<path class="st1" d="M186,287.7c0.4,0,0.7,0.3,0.7,0.7v5.7c0,0.4-0.3,0.7-0.7,0.7h-4.2v13.7c0,0.4-0.3,0.7-0.7,0.7h-6.8
				c-0.4,0-0.7-0.3-0.7-0.7v-13.7h-4.2c-0.4,0-0.7-0.3-0.7-0.7v-5.7c0-0.4,0.3-0.7,0.7-0.7H186 M170.1,293.4h4.2
				c0.4,0,0.7,0.3,0.7,0.7v13.7h5.3v-13.7c0-0.4,0.3-0.7,0.7-0.7h4.2v-4.2h-15.2V293.4 M186,286.9h-16.6c-0.8,0-1.5,0.7-1.5,1.5v5.7
				c0,0.8,0.7,1.5,1.5,1.5h3.5v12.9c0,0.8,0.7,1.5,1.5,1.5h6.8c0.8,0,1.5-0.7,1.5-1.5v-12.9h3.5c0.8,0,1.5-0.7,1.5-1.5v-5.7
				C187.4,287.6,186.8,286.9,186,286.9L186,286.9z M170.8,289.9h13.7v2.8H181c-0.8,0-1.5,0.7-1.5,1.5V307h-3.8v-12.9
				c0-0.8-0.7-1.5-1.5-1.5h-3.5V289.9L170.8,289.9z"/>
		</g>
		<g>
			<path class="st0" d="M194.5,309.6c-0.6,0-1.1-0.5-1.1-1.1v-5.3c0-0.3,0.1-0.6,0.4-0.9l6.5-5.2c-0.1,0-0.1,0-0.2,0l-0.1,0
				l-6.4-0.7c-0.6-0.1-1-0.6-1-1.2c0.1-1.5,0.5-2.7,1.2-3.8c0.6-1.1,1.4-2,2.3-2.7c0.9-0.7,2-1.2,3.1-1.6c1.1-0.3,2.3-0.5,3.4-0.5
				c1.1,0,2.2,0.1,3.2,0.4c1.1,0.3,2.1,0.7,3,1.3c0.9,0.6,1.6,1.4,2.2,2.4c0.6,1,0.9,2.2,0.9,3.5c0,0.9-0.1,1.8-0.4,2.6
				c-0.3,0.7-0.6,1.4-1,2c-0.4,0.6-0.9,1.1-1.4,1.5c-0.5,0.4-1,0.8-1.5,1.2l-0.2,0.1h3.5c0.6,0,1.1,0.5,1.1,1.1v5.6
				c0,0.6-0.5,1.1-1.1,1.1H194.5z M209.6,307.4v-3.5h-5.8c-0.5,0-0.9-0.3-1-0.8c-0.1-0.5,0-0.9,0.4-1.2l3-2.1c0.5-0.3,1-0.7,1.4-1.1
				c0.4-0.3,0.8-0.7,1.1-1.2c0.3-0.4,0.5-0.9,0.7-1.4c0.2-0.5,0.3-1.1,0.3-1.8c0-1-0.2-1.8-0.6-2.5c-0.4-0.7-0.9-1.2-1.5-1.7
				c-0.6-0.4-1.4-0.8-2.2-1c-0.9-0.2-1.8-0.3-2.7-0.3c-1,0-1.9,0.1-2.8,0.4c-0.9,0.3-1.7,0.7-2.4,1.2c-0.7,0.5-1.3,1.2-1.8,2
				c-0.3,0.5-0.6,1.2-0.7,1.9l4.3,0.5c0.1-0.5,0.4-0.9,0.7-1.3c0.6-0.7,1.3-1.1,2.2-1.1c0.8,0,1.5,0.3,2,0.8
				c0.4,0.5,0.6,1.1,0.6,1.7c0,0.5-0.2,1.1-0.5,1.6c-0.3,0.4-0.6,0.8-1,1.1l-7.5,6v3.6H209.6z M202,294.8c-0.2,0-0.4,0.1-0.5,0.3
				c-0.2,0.2-0.3,0.6-0.3,1.1c0,0.1,0,0.2-0.1,0.4l0.6-0.5c0.2-0.2,0.4-0.4,0.6-0.6c0.1-0.1,0.1-0.2,0.1-0.3c0-0.1,0-0.2-0.1-0.3
				l0,0C202.3,294.8,202.2,294.8,202,294.8z"/>
			<path class="st1" d="M202.6,287.1c1,0,2.1,0.1,3.1,0.4c1.1,0.3,2,0.7,2.8,1.3c0.8,0.6,1.5,1.3,2.1,2.3c0.5,0.9,0.8,2.1,0.8,3.4
				c0,0.9-0.1,1.7-0.4,2.4c-0.2,0.7-0.6,1.3-1,1.9c-0.4,0.5-0.9,1-1.4,1.5c-0.5,0.4-1,0.8-1.5,1.2l-1.1,0.8h4.6
				c0.4,0,0.7,0.3,0.7,0.7v5.6c0,0.4-0.3,0.7-0.7,0.7h-16.3c-0.4,0-0.7-0.3-0.7-0.7v-5.2c0-0.2,0.1-0.4,0.3-0.6l7.9-6.4c0,0,0,0,0,0
				c0.3-0.2,0.5-0.4,0.6-0.7c0.1-0.2,0.2-0.3,0.2-0.5c0-0.2-0.1-0.4-0.2-0.5c-0.1-0.1-0.4-0.2-0.6-0.2c-0.3,0-0.6,0.1-0.8,0.4
				c-0.3,0.3-0.4,0.8-0.4,1.3c0,0.2-0.1,0.4-0.3,0.5c-0.1,0.1-0.3,0.2-0.5,0.2c0,0-0.1,0-0.1,0l-6.4-0.7c-0.4,0-0.7-0.4-0.6-0.8
				c0.1-1.4,0.5-2.6,1.1-3.7c0.6-1,1.4-1.9,2.2-2.6c0.9-0.7,1.9-1.2,3-1.5C200.3,287.3,201.5,287.1,202.6,287.1 M199.4,295.3
				c0.1-0.6,0.3-1,0.7-1.4c0.5-0.6,1.2-0.9,1.9-0.9c0.7,0,1.3,0.2,1.7,0.7c0.3,0.4,0.5,0.9,0.5,1.5c0,0.5-0.1,0.9-0.4,1.4
				c-0.3,0.4-0.6,0.7-0.9,1l-7.7,6.1v4.2H210v-4.2h-6.2c-0.3,0-0.6-0.2-0.7-0.5c-0.1-0.3,0-0.6,0.3-0.8l3-2.1c0.5-0.3,1-0.7,1.4-1.1
				c0.4-0.4,0.8-0.8,1.1-1.2c0.3-0.4,0.6-0.9,0.8-1.5c0.2-0.6,0.3-1.2,0.3-2c0-1-0.2-1.9-0.6-2.6c-0.4-0.7-1-1.3-1.6-1.8
				c-0.7-0.5-1.5-0.8-2.4-1c-0.9-0.2-1.8-0.3-2.8-0.3c-1,0-2,0.1-2.9,0.4c-0.9,0.3-1.8,0.7-2.5,1.3c-0.7,0.6-1.4,1.3-1.9,2.1
				c-0.4,0.7-0.7,1.5-0.8,2.4L199.4,295.3 M202.6,286.4c-1.2,0-2.4,0.2-3.5,0.5c-1.2,0.3-2.3,0.9-3.2,1.6c-1,0.7-1.8,1.7-2.4,2.8
				c-0.7,1.1-1.1,2.5-1.2,4c-0.1,0.8,0.5,1.5,1.3,1.6l5.8,0.7l-5.8,4.6c-0.3,0.3-0.5,0.7-0.5,1.1v5.2c0,0.8,0.7,1.5,1.5,1.5h16.3
				c0.8,0,1.5-0.7,1.5-1.5v-5.6c0-0.8-0.7-1.5-1.5-1.5h-2.4c0.3-0.2,0.6-0.4,0.8-0.7c0.5-0.5,1-1,1.5-1.6c0.5-0.6,0.8-1.3,1.1-2.1
				c0.3-0.8,0.4-1.7,0.4-2.7c0-1.4-0.3-2.7-0.9-3.7c-0.6-1-1.4-1.9-2.3-2.5c-0.9-0.6-1.9-1.1-3.1-1.4
				C204.8,286.5,203.7,286.4,202.6,286.4L202.6,286.4z M195.3,294.1c0.1-0.5,0.3-1,0.6-1.4c0.4-0.8,1-1.4,1.7-1.9
				c0.7-0.5,1.4-0.9,2.3-1.1c0.9-0.3,1.8-0.4,2.7-0.4c0.9,0,1.7,0.1,2.6,0.3c0.8,0.2,1.5,0.5,2.1,0.9c0.6,0.4,1,0.9,1.4,1.5
				c0.3,0.6,0.5,1.4,0.5,2.3c0,0.7-0.1,1.2-0.2,1.7c-0.2,0.5-0.4,0.9-0.7,1.3c-0.3,0.4-0.6,0.8-1,1.1c-0.4,0.4-0.9,0.7-1.4,1.1
				l-3,2.1c-0.5,0.4-0.7,1-0.5,1.6c0.2,0.6,0.8,1,1.4,1h5.5v2.7h-13.4v-3.1l7.4-5.9c0.4-0.3,0.8-0.7,1.1-1.1
				c0.4-0.6,0.6-1.1,0.6-1.8c0-0.7-0.2-1.4-0.7-1.9c-0.4-0.4-1-1-2.2-1c-1,0-1.9,0.4-2.5,1.2c-0.3,0.3-0.5,0.7-0.6,1.1L195.3,294.1
				L195.3,294.1z M201.6,295.6c0-0.1,0.1-0.3,0.2-0.4c0.1-0.1,0.1-0.1,0.2-0.1c0,0,0,0,0,0c0,0,0,0,0,0.1
				C201.9,295.4,201.8,295.5,201.6,295.6L201.6,295.6z"/>
		</g>
		<g>
			<path class="st0" d="M222.4,310.2c-1.3,0-2.6-0.2-3.6-0.5c-1-0.4-2-0.9-2.7-1.5c-0.8-0.6-1.4-1.4-1.9-2.2
				c-0.5-0.8-0.9-1.6-1.2-2.5c-0.3-0.9-0.5-1.7-0.6-2.6c-0.1-0.9-0.2-1.7-0.2-2.5c0-0.8,0.1-1.6,0.2-2.5c0.1-0.9,0.3-1.7,0.6-2.6
				c0.3-0.9,0.7-1.7,1.2-2.5c0.5-0.8,1.1-1.5,1.9-2.1c0.8-0.6,1.7-1.1,2.7-1.4c1-0.3,2.2-0.5,3.6-0.5c2,0,3.7,0.4,5.1,1.2
				c1.3,0.8,2.4,1.7,3.1,2.9c0.7,1.1,1.2,2.4,1.5,3.8c0.3,1.3,0.4,2.6,0.4,3.7c0,0.8-0.1,1.6-0.2,2.5c-0.1,0.9-0.3,1.8-0.6,2.6
				c-0.3,0.9-0.7,1.7-1.1,2.5c-0.5,0.8-1.1,1.6-1.9,2.2c-0.8,0.6-1.7,1.1-2.7,1.5C224.9,310,223.7,310.2,222.4,310.2z M222.4,288.9
				c-1.1,0-2.1,0.1-2.9,0.4c-0.8,0.3-1.5,0.6-2,1.1c-0.6,0.5-1,1-1.4,1.6c-0.4,0.6-0.7,1.3-0.9,2c-0.2,0.7-0.4,1.4-0.5,2.2
				c-0.1,0.8-0.1,1.5-0.1,2.2c0,0.7,0,1.5,0.1,2.2c0.1,0.7,0.3,1.5,0.5,2.2c0.2,0.7,0.5,1.4,0.9,2c0.4,0.6,0.9,1.2,1.4,1.6
				c0.6,0.5,1.2,0.8,2,1.1c0.8,0.3,1.8,0.4,2.9,0.4s2.1-0.1,2.9-0.4c0.8-0.3,1.5-0.7,2.1-1.1c0.6-0.5,1-1,1.4-1.6
				c0.4-0.6,0.7-1.3,0.9-2c0.2-0.7,0.4-1.5,0.5-2.2c0.1-0.8,0.1-1.5,0.1-2.2c0-1-0.1-2.2-0.3-3.3c-0.2-1.1-0.6-2.1-1.2-3
				c-0.6-0.9-1.4-1.6-2.4-2.2C225.4,289.2,224,288.9,222.4,288.9z M222.4,304.3c-0.7,0-1.4-0.3-1.8-0.8c-0.4-0.4-0.7-0.9-0.9-1.5
				c-0.2-0.5-0.3-1.2-0.4-1.8c-0.1-0.6-0.1-1.2-0.1-1.8c0-0.6,0-1.2,0.1-1.7c0.1-0.6,0.2-1.2,0.4-1.8c0.2-0.6,0.5-1.1,0.9-1.5
				c0.5-0.5,1.1-0.8,1.8-0.8c0.7,0,1.3,0.3,1.8,0.8c0.4,0.4,0.7,0.9,0.9,1.5c0.2,0.5,0.3,1.1,0.3,1.7c0.1,0.6,0.1,1.2,0.1,1.7
				c0,0.6,0,1.2-0.1,1.8c-0.1,0.6-0.2,1.2-0.3,1.8c-0.2,0.6-0.5,1.2-0.9,1.6C223.7,304,223.1,304.3,222.4,304.3z M222.4,294.7
				c-0.1,0-0.2,0-0.2,0.1c-0.2,0.2-0.3,0.4-0.4,0.7c-0.1,0.4-0.2,0.8-0.3,1.3c-0.1,0.5-0.1,1-0.1,1.5c0,0.5,0,1,0.1,1.6
				c0,0.5,0.1,1,0.3,1.3c0.1,0.3,0.2,0.6,0.4,0.7c0,0,0.1,0.1,0.2,0.1c0.1,0,0.2,0,0.2-0.1c0.2-0.2,0.3-0.4,0.4-0.7
				c0.1-0.4,0.2-0.9,0.3-1.4c0.1-0.5,0.1-1.1,0.1-1.6c0-0.5,0-1-0.1-1.5c0-0.5-0.1-0.9-0.3-1.3c-0.1-0.3-0.2-0.5-0.4-0.7
				C222.6,294.8,222.5,294.7,222.4,294.7z"/>
			<path class="st1" d="M222.4,287.1c2,0,3.6,0.4,4.9,1.1c1.3,0.7,2.3,1.7,3,2.8c0.7,1.1,1.2,2.3,1.5,3.7c0.3,1.3,0.4,2.5,0.4,3.7
				c0,0.8-0.1,1.6-0.2,2.4c-0.1,0.9-0.3,1.7-0.6,2.6c-0.3,0.8-0.6,1.7-1.1,2.4c-0.5,0.8-1.1,1.5-1.8,2.1c-0.7,0.6-1.6,1.1-2.6,1.4
				c-1,0.3-2.2,0.5-3.5,0.5c-1.3,0-2.5-0.2-3.5-0.5c-1-0.3-1.9-0.8-2.6-1.4c-0.7-0.6-1.3-1.3-1.8-2.1c-0.5-0.8-0.9-1.6-1.1-2.4
				c-0.3-0.8-0.5-1.7-0.6-2.5c-0.1-0.8-0.2-1.7-0.2-2.4c0-0.8,0.1-1.6,0.2-2.4c0.1-0.9,0.3-1.7,0.6-2.5c0.3-0.8,0.7-1.6,1.1-2.4
				c0.5-0.8,1.1-1.4,1.8-2c0.7-0.6,1.6-1,2.6-1.4C219.9,287.3,221.1,287.1,222.4,287.1 M222.4,308.3c1.1,0,2.2-0.1,3-0.4
				c0.8-0.3,1.6-0.7,2.2-1.2c0.6-0.5,1.1-1.1,1.5-1.7c0.4-0.7,0.7-1.4,1-2.1c0.2-0.7,0.4-1.5,0.5-2.3c0.1-0.8,0.2-1.6,0.2-2.2
				c0-1.1-0.1-2.2-0.4-3.4c-0.2-1.1-0.7-2.2-1.3-3.2c-0.6-0.9-1.4-1.7-2.5-2.3c-1.1-0.6-2.5-0.9-4.2-0.9c-1.1,0-2.2,0.1-3,0.4
				c-0.8,0.3-1.6,0.7-2.2,1.1c-0.6,0.5-1.1,1-1.5,1.7c-0.4,0.6-0.7,1.3-1,2.1c-0.2,0.7-0.4,1.5-0.5,2.2c-0.1,0.8-0.2,1.5-0.2,2.2
				c0,0.7,0.1,1.5,0.2,2.3c0.1,0.8,0.3,1.5,0.5,2.3c0.2,0.7,0.6,1.4,1,2.1c0.4,0.6,0.9,1.2,1.5,1.7c0.6,0.5,1.3,0.9,2.2,1.2
				C220.2,308.2,221.2,308.3,222.4,308.3 M222.4,292.9c0.6,0,1.2,0.2,1.6,0.6c0.4,0.4,0.6,0.8,0.8,1.4c0.2,0.5,0.3,1.1,0.3,1.7
				c0.1,0.6,0.1,1.2,0.1,1.7c0,0.6,0,1.2-0.1,1.8c-0.1,0.6-0.2,1.2-0.3,1.7c-0.2,0.6-0.4,1.1-0.8,1.4c-0.4,0.4-1,0.7-1.6,0.7
				c-0.6,0-1.2-0.2-1.6-0.7c-0.3-0.4-0.6-0.8-0.8-1.4c-0.2-0.5-0.3-1.1-0.3-1.7c-0.1-0.6-0.1-1.2-0.1-1.8c0-0.6,0-1.1,0.1-1.7
				c0.1-0.6,0.2-1.2,0.3-1.7c0.2-0.6,0.4-1,0.8-1.4C221.2,293.1,221.8,292.9,222.4,292.9 M222.4,302.5c0.2,0,0.4-0.1,0.5-0.2
				c0.2-0.2,0.3-0.5,0.5-0.9c0.1-0.4,0.2-0.9,0.3-1.4c0.1-0.6,0.1-1.1,0.1-1.6c0-0.5,0-1-0.1-1.6c-0.1-0.5-0.1-1-0.3-1.4
				c-0.1-0.3-0.3-0.6-0.5-0.8c-0.1-0.1-0.3-0.2-0.5-0.2c-0.2,0-0.4,0.1-0.5,0.2c-0.2,0.2-0.3,0.5-0.5,0.8c-0.1,0.4-0.2,0.9-0.3,1.4
				c-0.1,0.5-0.1,1.1-0.1,1.6c0,0.5,0,1.1,0.1,1.6c0.1,0.5,0.1,1,0.3,1.4c0.1,0.4,0.3,0.7,0.5,0.9
				C222,302.4,222.2,302.5,222.4,302.5 M222.4,286.4c-1.4,0-2.6,0.2-3.7,0.5c-1.1,0.4-2,0.9-2.8,1.5c-0.8,0.6-1.5,1.4-2,2.2
				c-0.5,0.8-0.9,1.7-1.2,2.5c-0.3,0.9-0.5,1.8-0.6,2.7c-0.1,0.9-0.2,1.7-0.2,2.5c0,0.8,0.1,1.7,0.2,2.5c0.1,0.9,0.3,1.8,0.6,2.7
				c0.3,0.9,0.7,1.8,1.2,2.6c0.5,0.8,1.2,1.6,2,2.3c0.8,0.7,1.7,1.2,2.8,1.6c1.1,0.4,2.3,0.6,3.7,0.6c1.4,0,2.6-0.2,3.7-0.6
				c1.1-0.4,2-0.9,2.8-1.6c0.8-0.7,1.5-1.4,2-2.3c0.5-0.8,0.9-1.7,1.2-2.6c0.3-0.9,0.5-1.8,0.6-2.7c0.1-0.9,0.2-1.7,0.2-2.5
				c0-1.2-0.1-2.5-0.4-3.8c-0.3-1.4-0.8-2.7-1.6-3.9c-0.8-1.2-1.9-2.2-3.3-3C226.3,286.8,224.5,286.4,222.4,286.4L222.4,286.4z
				 M222.4,307.6c-1.1,0-2-0.1-2.8-0.4c-0.8-0.3-1.4-0.6-1.9-1.1c-0.5-0.4-1-1-1.3-1.5c-0.4-0.6-0.7-1.3-0.9-1.9
				c-0.2-0.7-0.4-1.4-0.5-2.1c-0.1-0.7-0.1-1.5-0.1-2.2c0-0.7,0-1.4,0.1-2.1c0.1-0.7,0.3-1.4,0.5-2.1c0.2-0.7,0.5-1.3,0.9-1.9
				c0.4-0.6,0.8-1.1,1.3-1.5c0.5-0.4,1.2-0.8,1.9-1c0.8-0.3,1.7-0.4,2.8-0.4c1.6,0,2.9,0.3,3.8,0.8c1,0.6,1.7,1.2,2.2,2.1
				c0.6,0.9,0.9,1.8,1.2,2.9c0.2,1.1,0.3,2.2,0.3,3.2c0,0.7,0,1.4-0.1,2.2c-0.1,0.7-0.3,1.5-0.5,2.2c-0.2,0.7-0.5,1.3-0.9,2
				c-0.3,0.6-0.8,1.1-1.3,1.5c-0.5,0.4-1.2,0.8-2,1.1C224.4,307.5,223.4,307.6,222.4,307.6L222.4,307.6z M222.4,292.2
				c-0.8,0-1.5,0.3-2.1,0.9c-0.4,0.4-0.7,1-0.9,1.6c-0.2,0.6-0.3,1.2-0.4,1.8c-0.1,0.6-0.1,1.2-0.1,1.8c0,0.6,0,1.2,0.1,1.8
				c0.1,0.7,0.2,1.3,0.4,1.9c0.2,0.7,0.5,1.2,0.9,1.7c0.5,0.6,1.3,0.9,2.1,0.9c0.8,0,1.6-0.3,2.1-0.9c0.4-0.5,0.8-1,1-1.7
				c0.2-0.6,0.3-1.2,0.4-1.9c0.1-0.6,0.1-1.2,0.1-1.8c0-0.6,0-1.2-0.1-1.8c-0.1-0.7-0.2-1.3-0.4-1.8c-0.2-0.7-0.5-1.2-1-1.7
				C223.9,292.5,223.2,292.2,222.4,292.2L222.4,292.2z M222.4,301.7c-0.1-0.1-0.2-0.3-0.3-0.6c-0.1-0.4-0.2-0.8-0.2-1.3
				c-0.1-0.5-0.1-1-0.1-1.5c0-0.5,0-1,0.1-1.5c0-0.4,0.1-0.9,0.2-1.2c0.1-0.2,0.2-0.4,0.3-0.5l0,0c0.1,0.1,0.2,0.3,0.2,0.5
				c0.1,0.4,0.2,0.8,0.2,1.2c0.1,0.5,0.1,1,0.1,1.5c0,0.5,0,1-0.1,1.5c0,0.5-0.1,0.9-0.2,1.3C222.6,301.4,222.5,301.6,222.4,301.7
				L222.4,301.7z"/>
		</g>
		<g>
			<path class="st0" d="M242.2,310.2c-1.1,0-2.2-0.1-3.3-0.4c-1.1-0.3-2.1-0.7-3-1.3c-0.9-0.6-1.7-1.4-2.2-2.3
				c-0.6-1-0.9-2.1-0.9-3.5c0-1.3,0.4-2.5,1.1-3.5c0.3-0.4,0.7-0.9,1.2-1.2c-0.3-0.3-0.6-0.6-0.9-0.9c-0.7-0.9-1.1-2-1.1-3.3
				c0-1.2,0.3-2.3,0.8-3.3c0.5-0.9,1.3-1.6,2.2-2.2c0.8-0.5,1.8-0.9,2.9-1.2c1-0.2,2.1-0.4,3.2-0.4c1.1,0,2.2,0.1,3.2,0.4
				c1.1,0.3,2.1,0.7,2.9,1.2c0.9,0.6,1.6,1.3,2.2,2.2c0.6,0.9,0.9,2,0.9,3.3c0,1.3-0.4,2.4-1,3.3c-0.3,0.4-0.6,0.7-0.9,0.9
				c0.4,0.3,0.8,0.7,1.1,1.1c0.8,1,1.2,2.2,1.2,3.6c0,1.3-0.3,2.5-0.9,3.5c-0.6,0.9-1.3,1.7-2.2,2.3c-0.9,0.6-1.9,1-3,1.3
				C244.5,310,243.4,310.2,242.2,310.2z M242.2,288.9c-0.9,0-1.8,0.1-2.7,0.3c-0.8,0.2-1.6,0.5-2.2,0.9c-0.6,0.4-1.1,0.9-1.5,1.5
				c-0.3,0.6-0.5,1.3-0.5,2.1c0,0.8,0.2,1.4,0.6,2c0.5,0.6,1,1,1.7,1.2c0.4,0.2,0.7,0.6,0.7,1c0,0.5-0.3,0.9-0.7,1.1
				c-0.8,0.3-1.5,0.8-2,1.5c-0.5,0.6-0.7,1.3-0.7,2.2c0,0.9,0.2,1.7,0.6,2.3c0.4,0.7,0.9,1.2,1.6,1.6c0.7,0.4,1.4,0.8,2.3,1
				c0.9,0.2,1.9,0.3,2.8,0.3c0,0,0,0,0,0c1,0,1.9-0.1,2.8-0.3c0.9-0.2,1.6-0.5,2.3-1c0.6-0.4,1.2-1,1.6-1.6c0.4-0.6,0.6-1.4,0.6-2.3
				c0-0.9-0.2-1.6-0.7-2.2c-0.5-0.6-1.1-1.1-1.9-1.4c-0.4-0.2-0.7-0.6-0.7-1c0-0.6,0.3-1,0.8-1.1c0.7-0.2,1.2-0.6,1.7-1.2
				c0.4-0.5,0.6-1.2,0.6-2c0-0.8-0.2-1.5-0.5-2.1c-0.4-0.6-0.9-1.1-1.5-1.5c-0.6-0.4-1.4-0.7-2.2-0.9
				C244,289,243.1,288.9,242.2,288.9z M242.2,305c-0.9,0-1.6-0.3-2.1-0.9c-0.5-0.5-0.7-1.2-0.7-1.9c0-0.7,0.2-1.3,0.7-1.9
				c0.5-0.6,1.2-0.9,2.2-0.9c0.9,0,1.6,0.3,2.2,0.9c0.5,0.5,0.7,1.2,0.7,1.9c0,0.7-0.2,1.3-0.7,1.9C243.9,304.8,243.1,305,242.2,305
				z M242.2,301.7c-0.1,0-0.4,0-0.5,0.1c-0.1,0.1-0.2,0.3-0.2,0.4c0,0.2,0,0.3,0.2,0.4c0.1,0.1,0.4,0.1,0.5,0.1c0.1,0,0.4,0,0.5-0.1
				c0.1-0.1,0.2-0.3,0.2-0.4c0-0.2-0.1-0.3-0.2-0.4C242.6,301.7,242.4,301.7,242.2,301.7z M242.2,297c-0.8,0-1.5-0.3-2-0.8
				c-0.5-0.5-0.7-1.1-0.7-1.8c0-0.6,0.3-1.2,0.7-1.8c0.5-0.5,1.2-0.8,2-0.8s1.5,0.3,2,0.8c0.5,0.5,0.7,1.1,0.7,1.8
				c0,0.7-0.2,1.3-0.7,1.8C243.7,296.7,243,297,242.2,297z M242.2,293.9c-0.3,0-0.4,0.1-0.4,0.1c-0.1,0.2-0.1,0.2-0.1,0.3
				c0,0,0,0.1,0.2,0.3c0,0,0.1,0.1,0.4,0.1c0.3,0,0.4-0.1,0.4-0.1c0.2-0.2,0.2-0.3,0.2-0.3c0,0,0-0.1-0.1-0.3
				C242.6,294,242.5,293.9,242.2,293.9z"/>
			<path class="st1" d="M242.2,287.1c1,0,2.1,0.1,3.1,0.4c1,0.2,2,0.6,2.8,1.1c0.8,0.5,1.5,1.2,2.1,2.1c0.5,0.9,0.8,1.9,0.8,3.1
				c0,1.2-0.3,2.2-1,3.1c-0.3,0.5-0.8,0.8-1.2,1.2c0.5,0.4,1,0.8,1.4,1.3c0.7,0.9,1.1,2.1,1.1,3.4c0,1.3-0.3,2.4-0.8,3.3
				c-0.5,0.9-1.3,1.6-2.1,2.2c-0.9,0.6-1.8,1-2.9,1.2c-1,0.2-2.1,0.4-3.2,0.4c-1.1,0-2.2-0.1-3.2-0.4c-1.1-0.2-2.1-0.7-2.9-1.2
				c-0.9-0.6-1.6-1.3-2.1-2.2c-0.5-0.9-0.8-2-0.8-3.3c0-1.3,0.4-2.4,1.1-3.3c0.4-0.6,0.9-1,1.5-1.4c-0.5-0.3-0.9-0.7-1.2-1.2
				c-0.7-0.9-1-1.9-1-3.1c0-1.2,0.3-2.2,0.8-3.1c0.5-0.9,1.2-1.6,2-2.1c0.8-0.5,1.8-0.9,2.8-1.1
				C240.1,287.2,241.2,287.1,242.2,287.1 M242.2,308.3c1,0,2-0.1,2.9-0.3c0.9-0.2,1.7-0.6,2.4-1c0.7-0.4,1.3-1,1.7-1.7
				c0.4-0.7,0.6-1.5,0.6-2.5c0-1-0.3-1.8-0.8-2.5c-0.6-0.7-1.2-1.2-2.1-1.5c-0.3-0.1-0.5-0.4-0.5-0.7V298c0-0.3,0.2-0.6,0.5-0.7
				c0.8-0.3,1.4-0.7,1.8-1.3c0.5-0.6,0.7-1.3,0.7-2.2c0-0.9-0.2-1.7-0.6-2.3c-0.4-0.7-0.9-1.2-1.6-1.6c-0.7-0.4-1.5-0.7-2.3-1
				c-0.9-0.2-1.8-0.3-2.8-0.3c-0.9,0-1.9,0.1-2.8,0.3c-0.9,0.2-1.7,0.5-2.4,1c-0.6,0.4-1.2,0.9-1.6,1.6c-0.4,0.6-0.6,1.4-0.6,2.3
				c0,0.9,0.2,1.6,0.7,2.2c0.5,0.6,1.1,1.1,1.8,1.4c0.3,0.1,0.5,0.4,0.5,0.7v0.1c0,0.3-0.2,0.6-0.4,0.7c-0.9,0.4-1.6,0.9-2.1,1.6
				c-0.5,0.7-0.8,1.5-0.8,2.4c0,1,0.2,1.8,0.6,2.5c0.4,0.7,1,1.3,1.7,1.7c0.7,0.5,1.5,0.8,2.4,1
				C240.3,308.2,241.3,308.3,242.2,308.3 M242.2,292.1c0.7,0,1.3,0.2,1.7,0.7c0.4,0.5,0.6,1,0.6,1.5c0,0.6-0.2,1.1-0.6,1.5
				c-0.4,0.5-1,0.7-1.8,0.7c-0.7,0-1.3-0.2-1.8-0.7c-0.4-0.5-0.6-1-0.6-1.5c0-0.6,0.2-1.1,0.6-1.5
				C240.9,292.4,241.5,292.1,242.2,292.1 M242.2,295.1c0.4,0,0.6-0.1,0.7-0.2c0.2-0.2,0.3-0.4,0.3-0.6c0-0.1,0-0.3-0.2-0.5
				c-0.1-0.1-0.3-0.2-0.7-0.2s-0.6,0.1-0.7,0.2c-0.2,0.2-0.2,0.4-0.2,0.5c0,0.1,0,0.3,0.3,0.6C241.6,295,241.8,295.1,242.2,295.1
				 M242.2,299.9c0.8,0,1.4,0.3,1.9,0.8c0.4,0.5,0.6,1,0.6,1.6c0,0.6-0.2,1.2-0.6,1.6c-0.4,0.5-1.1,0.7-1.9,0.7
				c-0.8,0-1.4-0.2-1.9-0.7c-0.4-0.5-0.6-1-0.6-1.6c0-0.6,0.2-1.2,0.6-1.6C240.8,300.2,241.4,299.9,242.2,299.9 M242.2,303.2
				c0.6,0,0.7-0.2,0.8-0.3c0.2-0.2,0.3-0.4,0.3-0.7c0-0.3-0.1-0.5-0.3-0.7c-0.1-0.1-0.2-0.3-0.8-0.3c-0.6,0-0.7,0.2-0.8,0.3
				c-0.2,0.2-0.3,0.4-0.3,0.7c0,0.3,0.1,0.5,0.3,0.7C241.5,303,241.7,303.2,242.2,303.2 M242.2,286.4L242.2,286.4
				c-1.1,0-2.2,0.1-3.3,0.4c-1.1,0.3-2.1,0.7-3,1.2c-0.9,0.6-1.7,1.4-2.3,2.3c-0.6,1-0.9,2.1-0.9,3.4c0,1.4,0.4,2.6,1.2,3.6
				c0.2,0.2,0.4,0.5,0.6,0.7c-0.3,0.3-0.7,0.6-0.9,1c-0.8,1.1-1.2,2.3-1.2,3.7c0,1.4,0.3,2.6,0.9,3.7c0.6,1,1.4,1.8,2.3,2.4
				c0.9,0.6,2,1,3.1,1.3c1.1,0.2,2.2,0.4,3.4,0.4c1.1,0,2.3-0.1,3.4-0.4c1.1-0.3,2.2-0.7,3.1-1.3c1-0.6,1.8-1.5,2.4-2.4
				c0.6-1,0.9-2.3,0.9-3.7c0-1.5-0.4-2.7-1.3-3.8c-0.3-0.3-0.5-0.6-0.8-0.9c0.2-0.2,0.4-0.5,0.6-0.7c0.7-1,1.1-2.2,1.1-3.5
				c0-1.3-0.3-2.5-0.9-3.5c-0.6-0.9-1.3-1.7-2.3-2.3c-0.9-0.6-1.9-1-3-1.2C244.4,286.5,243.3,286.4,242.2,286.4L242.2,286.4z
				 M242.2,307.6c-0.9,0-1.8-0.1-2.7-0.3c-0.8-0.2-1.6-0.5-2.2-0.9c-0.6-0.4-1.1-0.9-1.4-1.5c-0.3-0.6-0.5-1.3-0.5-2.2
				c0-0.8,0.2-1.4,0.6-1.9c0.5-0.6,1.1-1,1.8-1.4c0.5-0.2,0.9-0.8,0.9-1.3V298c0-0.6-0.4-1.1-0.9-1.4c-0.6-0.2-1.1-0.6-1.5-1.1
				c-0.4-0.5-0.6-1-0.6-1.7c0-0.8,0.2-1.4,0.5-1.9c0.3-0.6,0.8-1,1.3-1.4c0.6-0.4,1.3-0.7,2.1-0.9c0.9-0.2,1.7-0.3,2.6-0.3
				c0.9,0,1.7,0.1,2.6,0.3c0.8,0.2,1.5,0.5,2.1,0.9c0.6,0.4,1,0.8,1.4,1.4c0.3,0.5,0.5,1.2,0.5,1.9c0,0.7-0.2,1.3-0.5,1.8
				c-0.4,0.5-0.8,0.8-1.5,1c-0.6,0.2-1,0.8-1,1.4v0.1c0,0.6,0.4,1.2,0.9,1.4c0.7,0.3,1.3,0.7,1.8,1.3c0.4,0.6,0.6,1.2,0.6,2
				c0,0.9-0.2,1.6-0.5,2.2c-0.4,0.6-0.9,1.1-1.4,1.5c-0.6,0.4-1.4,0.7-2.2,0.9C244.1,307.5,243.2,307.6,242.2,307.6L242.2,307.6z
				 M242.2,291.4c-0.9,0-1.7,0.3-2.3,0.9c-0.6,0.6-0.8,1.3-0.8,2c0,0.7,0.3,1.4,0.8,2c0.6,0.6,1.4,1,2.3,1c0.9,0,1.7-0.3,2.3-1
				c0.5-0.6,0.8-1.3,0.8-2c0-0.7-0.3-1.4-0.8-2C243.9,291.7,243.1,291.4,242.2,291.4L242.2,291.4z M242.1,294.3c0,0,0.1,0,0.2,0
				c0.1,0,0.2,0,0.2,0c0,0,0,0,0,0c0,0,0,0,0,0c0,0,0,0,0,0c0,0,0,0-0.1,0C242.1,294.4,242.1,294.4,242.1,294.3
				C242.1,294.4,242.1,294.4,242.1,294.3C242.1,294.3,242.1,294.3,242.1,294.3C242.1,294.3,242.1,294.3,242.1,294.3L242.1,294.3z
				 M242.2,299.2c-1,0-1.9,0.4-2.4,1c-0.5,0.6-0.8,1.3-0.8,2.1c0,0.8,0.3,1.5,0.8,2.1c0.6,0.6,1.4,1,2.4,1c1,0,1.8-0.3,2.4-1
				c0.5-0.6,0.8-1.3,0.8-2.1c0-0.8-0.3-1.5-0.8-2.1C244.1,299.5,243.2,299.2,242.2,299.2L242.2,299.2z M242,302.1c0,0,0.1,0,0.2,0
				c0.1,0,0.2,0,0.2,0c0.1,0.1,0.1,0.1,0.1,0.2c0,0.1,0,0.1-0.1,0.2c0,0-0.1,0-0.3,0c-0.2,0-0.3,0-0.3,0c0,0,0-0.1,0-0.2
				C241.9,302.2,241.9,302.2,242,302.1L242,302.1z"/>
		</g>
	</g>
</g>
</svg>
