<svg xmlns="http://www.w3.org/2000/svg" viewBox="0 0 249.46 64.87"><defs><style>.cls-1{fill:#fff;}</style></defs><title>copy2</title><g id="Layer_2" data-name="Layer 2"><g id="CTA"><path class="cls-1" d="M2.11,64.52H0L5.88,51H7.6l5.82,13.55H11.27L9.9,61.19H3.46Zm2-5H9.21L6.68,53.17Z"/><path class="cls-1" d="M22,64.87a5.6,5.6,0,0,1-2.33-.45A4.72,4.72,0,0,1,18,63.22a5.07,5.07,0,0,1-1-1.71,6.39,6.39,0,0,1-.31-2V51h1.89V59.4a5.3,5.3,0,0,0,.18,1.36A3.41,3.41,0,0,0,19.36,62a2.9,2.9,0,0,0,1,.86,3.48,3.48,0,0,0,1.6.33,3.46,3.46,0,0,0,1.59-.33A3,3,0,0,0,24.63,62a3.59,3.59,0,0,0,.56-1.22,5.76,5.76,0,0,0,.17-1.36V51h1.9v8.54a6.39,6.39,0,0,1-.32,2,4.75,4.75,0,0,1-1,1.71,4.68,4.68,0,0,1-1.64,1.2A5.65,5.65,0,0,1,22,64.87Z"/><path class="cls-1" d="M34.26,64.52H32.37V51h8.46v1.67H34.26v4.21h6.15v1.63H34.26Z"/><path class="cls-1" d="M51.85,51H56.5a9.07,9.07,0,0,1,2.61.39,6.89,6.89,0,0,1,2.35,1.2,6.12,6.12,0,0,1,1.7,2.11,6.64,6.64,0,0,1,.65,3.08,6.43,6.43,0,0,1-.65,3,6.31,6.31,0,0,1-1.7,2.11,7.36,7.36,0,0,1-2.35,1.24,8.46,8.46,0,0,1-2.61.41H51.85Zm1.9,11.89h2.37a7.5,7.5,0,0,0,2.27-.34,5.44,5.44,0,0,0,1.8-1,4.44,4.44,0,0,0,1.17-1.61,5.34,5.34,0,0,0,.43-2.16,5.49,5.49,0,0,0-.43-2.22,4.4,4.4,0,0,0-1.17-1.6,5.4,5.4,0,0,0-1.8-1,7.5,7.5,0,0,0-2.27-.33H53.75Z"/><path class="cls-1" d="M70.23,62.84h7.08v1.68h-9V51H77v1.67H70.23V56.7h6.39v1.62H70.23Z"/><path class="cls-1" d="M91.3,61.81h0V51h1.89V64.52H90.84L83.68,53.46h0V64.52H81.75V51h2.47Z"/><path class="cls-1" d="M105.14,51h4.13a8.72,8.72,0,0,1,2,.22,4.48,4.48,0,0,1,1.53.68,3.08,3.08,0,0,1,1,1.17,3.85,3.85,0,0,1,.35,1.7,3.8,3.8,0,0,1-.38,1.75,3.18,3.18,0,0,1-1,1.18,4.4,4.4,0,0,1-1.57.68,8.17,8.17,0,0,1-2,.22H107v5.95h-1.89ZM107,57h2a6.4,6.4,0,0,0,1.28-.12,3.11,3.11,0,0,0,1-.38,1.77,1.77,0,0,0,.65-.68,2.08,2.08,0,0,0,.23-1,1.86,1.86,0,0,0-.89-1.69,2.77,2.77,0,0,0-1-.36,7,7,0,0,0-1.25-.11h-2Z"/><path class="cls-1" d="M120.33,62.84h7.09v1.68h-9V51h8.69v1.67h-6.8V56.7h6.4v1.62h-6.4Z"/><path class="cls-1" d="M137,64.87a5.61,5.61,0,0,1-2.34-.45,4.82,4.82,0,0,1-1.65-1.2,4.88,4.88,0,0,1-1-1.71,6.39,6.39,0,0,1-.32-2V51h1.9V59.4a5.28,5.28,0,0,0,.17,1.36,3.41,3.41,0,0,0,.56,1.22,2.93,2.93,0,0,0,1,.86,4,4,0,0,0,3.18,0,2.8,2.8,0,0,0,1-.86,3.41,3.41,0,0,0,.56-1.22,5.28,5.28,0,0,0,.17-1.36V51h1.9v8.54a6.39,6.39,0,0,1-.32,2,4.88,4.88,0,0,1-1,1.71,4.82,4.82,0,0,1-1.65,1.2A5.6,5.6,0,0,1,137,64.87Z"/><path class="cls-1" d="M157.62,53.77a4.29,4.29,0,0,0-1.56-1.07,5.61,5.61,0,0,0-4.26,0,4.71,4.71,0,0,0-1.62,1.18,5.33,5.33,0,0,0-1,1.73,6.1,6.1,0,0,0-.36,2.1,6.17,6.17,0,0,0,.36,2.12,5.07,5.07,0,0,0,1,1.74,4.63,4.63,0,0,0,1.64,1.15,5.3,5.3,0,0,0,2.18.43,8,8,0,0,0,1.76-.18,5.11,5.11,0,0,0,1.4-.49V58.73h-3V57.12H159v6.56a9.51,9.51,0,0,1-2.34.88,11.35,11.35,0,0,1-2.75.31,7.86,7.86,0,0,1-2.92-.53,6.73,6.73,0,0,1-2.29-1.47,6.6,6.6,0,0,1-1.49-2.26,7.46,7.46,0,0,1-.54-2.88,7.35,7.35,0,0,1,.55-2.9,6.47,6.47,0,0,1,1.51-2.24,6.75,6.75,0,0,1,2.29-1.44,7.67,7.67,0,0,1,2.87-.52,8.2,8.2,0,0,1,2.9.48,6.14,6.14,0,0,1,2.11,1.28Z"/><path class="cls-1" d="M166.1,62.84h7.08v1.68h-9V51h8.68v1.67H166.1V56.7h6.39v1.62H166.1Z"/><path class="cls-1" d="M191.29,57.73a7.28,7.28,0,0,1-.55,2.88A6.63,6.63,0,0,1,187,64.34a8,8,0,0,1-5.73,0A6.84,6.84,0,0,1,179,62.87a6.74,6.74,0,0,1-1.49-2.26,8,8,0,0,1,0-5.78A6.56,6.56,0,0,1,179,52.59a6.76,6.76,0,0,1,2.27-1.44,8.15,8.15,0,0,1,5.73,0,6.71,6.71,0,0,1,2.28,1.44,6.58,6.58,0,0,1,1.5,2.24A7.35,7.35,0,0,1,191.29,57.73Zm-2,0a6.1,6.1,0,0,0-.36-2.1,5.51,5.51,0,0,0-1-1.73,4.77,4.77,0,0,0-1.61-1.18,5.28,5.28,0,0,0-2.14-.43,5.13,5.13,0,0,0-2.11.43,4.77,4.77,0,0,0-1.61,1.18,5.46,5.46,0,0,0-1,1.73,5.88,5.88,0,0,0-.37,2.1,6,6,0,0,0,.37,2.12,5.05,5.05,0,0,0,1,1.74A4.79,4.79,0,0,0,182,62.74a4.9,4.9,0,0,0,2.1.43,5.1,5.1,0,0,0,2.13-.43,4.73,4.73,0,0,0,1.62-1.15,5.24,5.24,0,0,0,1-1.74A6.17,6.17,0,0,0,189.24,57.73Z"/><path class="cls-1" d="M200,64.52h-1.9V52.64h-4.34V51H204.3v1.67H200Z"/><path class="cls-1" d="M222.6,64.52h-8.84V62.74l5.4-5.35a8.5,8.5,0,0,0,1.05-1.33,2.81,2.81,0,0,0,.44-1.55,2.27,2.27,0,0,0-.71-1.7,2.37,2.37,0,0,0-.76-.47,2.69,2.69,0,0,0-.94-.16,2.31,2.31,0,0,0-1.7.66,3,3,0,0,0-.85,1.69l-1.81-.3a4,4,0,0,1,.48-1.43,4.39,4.39,0,0,1,.95-1.15,4.33,4.33,0,0,1,1.33-.75,4.75,4.75,0,0,1,1.62-.27,5.18,5.18,0,0,1,1.62.25,4.22,4.22,0,0,1,1.36.72,3.44,3.44,0,0,1,.95,1.21,3.73,3.73,0,0,1,.35,1.67,3.87,3.87,0,0,1-.17,1.2,4.5,4.5,0,0,1-.47,1,5.75,5.75,0,0,1-.69,1c-.27.3-.55.6-.85.89L216,62.86h6.64Z"/><path class="cls-1" d="M231.62,50.63a3.76,3.76,0,0,1,2.07.55,4.42,4.42,0,0,1,1.44,1.53A7.37,7.37,0,0,1,236,55a13.73,13.73,0,0,1,.27,2.78,13.59,13.59,0,0,1-.27,2.78,7.27,7.27,0,0,1-.83,2.26,4.39,4.39,0,0,1-1.44,1.52,3.77,3.77,0,0,1-2.07.56,3.84,3.84,0,0,1-2.09-.56,4.21,4.21,0,0,1-1.44-1.52,7.28,7.28,0,0,1-.84-2.26,13.61,13.61,0,0,1-.26-2.78,13.74,13.74,0,0,1,.26-2.78,7.37,7.37,0,0,1,.84-2.26,4.24,4.24,0,0,1,1.44-1.53A3.83,3.83,0,0,1,231.62,50.63Zm0,1.55a1.87,1.87,0,0,0-1.38.54,3.67,3.67,0,0,0-.83,1.38,7.85,7.85,0,0,0-.41,1.81,14.17,14.17,0,0,0,0,3.68,7.65,7.65,0,0,0,.41,1.8,3.58,3.58,0,0,0,.83,1.36,1.84,1.84,0,0,0,1.38.55,1.77,1.77,0,0,0,1.35-.55,4,4,0,0,0,.83-1.36,8.18,8.18,0,0,0,.42-1.8,15.44,15.44,0,0,0,0-3.68,8.41,8.41,0,0,0-.42-1.81,4.1,4.1,0,0,0-.83-1.38A1.8,1.8,0,0,0,231.62,52.18Z"/><path class="cls-1" d="M246.89,57.39a3.26,3.26,0,0,1,1,.45,3.61,3.61,0,0,1,.81.75,3.43,3.43,0,0,1,.54,1,3.51,3.51,0,0,1,.21,1.22,3.81,3.81,0,0,1-1.35,3,4.52,4.52,0,0,1-1.45.79,5.29,5.29,0,0,1-1.74.28,5.35,5.35,0,0,1-1.75-.28,4.47,4.47,0,0,1-1.46-.79,3.81,3.81,0,0,1-1.35-3,3.55,3.55,0,0,1,.21-1.24,3.23,3.23,0,0,1,.55-1,3.34,3.34,0,0,1,.82-.73,3.83,3.83,0,0,1,1-.45v0a3.19,3.19,0,0,1-1.5-1.11,3.13,3.13,0,0,1-.59-1.92,3.43,3.43,0,0,1,.33-1.52,3.61,3.61,0,0,1,.88-1.17,3.92,3.92,0,0,1,1.29-.74,4.9,4.9,0,0,1,3.15,0,3.85,3.85,0,0,1,1.29.72,3.68,3.68,0,0,1,.87,1.15,3.46,3.46,0,0,1,.33,1.52,3.28,3.28,0,0,1-.59,1.94,3,3,0,0,1-1.5,1.13Zm-4.63,3.34a2.78,2.78,0,0,0,.19,1.06,2.2,2.2,0,0,0,.55.81,2.56,2.56,0,0,0,.84.53,2.85,2.85,0,0,0,1.08.19,2.81,2.81,0,0,0,1.06-.19,2.52,2.52,0,0,0,.83-.53,2.33,2.33,0,0,0,.55-.81,2.78,2.78,0,0,0,.2-1.06,2.65,2.65,0,0,0-.2-1,2.53,2.53,0,0,0-.55-.81,2.39,2.39,0,0,0-.83-.54,3.05,3.05,0,0,0-2.12,0,2.43,2.43,0,0,0-.84.54,2.4,2.4,0,0,0-.56.81A2.65,2.65,0,0,0,242.26,60.73Zm.42-6.36a2.28,2.28,0,0,0,.16.87A2.08,2.08,0,0,0,244,56.41a2.35,2.35,0,0,0,.89.17,2.29,2.29,0,0,0,.87-.17,2.58,2.58,0,0,0,.71-.47,2.14,2.14,0,0,0,.65-1.57,2.18,2.18,0,0,0-.18-.89,2.28,2.28,0,0,0-.48-.71,2.21,2.21,0,0,0-.7-.47,2.49,2.49,0,0,0-.87-.16,2.56,2.56,0,0,0-.89.16,2.06,2.06,0,0,0-1.18,1.18A2.35,2.35,0,0,0,242.68,54.37Z"/><path class="cls-1" d="M1.12,42.17,9,27.33H.1V21.57H16.51v4.92L9.15,42.17Z"/><path class="cls-1" d="M26.84,21.57,24,29.77H19.19l2.15-8.2Z"/><path class="cls-1" d="M38.25,42.75a10.09,10.09,0,0,1-3.32-.49A7.65,7.65,0,0,1,30.78,39a10.67,10.67,0,0,1-1.07-2.33,13.35,13.35,0,0,1-.56-2.47A20.47,20.47,0,0,1,29,31.75a20.09,20.09,0,0,1,.16-2.38,12.8,12.8,0,0,1,.56-2.45,10.44,10.44,0,0,1,1.07-2.27,7.55,7.55,0,0,1,4.15-3.18A10.38,10.38,0,0,1,38.25,21a9.26,9.26,0,0,1,4.65,1,8,8,0,0,1,2.82,2.62,10,10,0,0,1,1.4,3.49,18.81,18.81,0,0,1,.38,3.62,18.47,18.47,0,0,1-.16,2.4,14,14,0,0,1-.55,2.49A11.16,11.16,0,0,1,45.72,39a7.33,7.33,0,0,1-1.7,2,8.07,8.07,0,0,1-2.46,1.34A10.07,10.07,0,0,1,38.25,42.75Zm0-15.8a1.37,1.37,0,0,0-1,.44,3,3,0,0,0-.64,1.13,7.17,7.17,0,0,0-.32,1.56,16,16,0,0,0-.09,1.67,17,17,0,0,0,.09,1.73,7.62,7.62,0,0,0,.32,1.62,3.17,3.17,0,0,0,.64,1.18,1.35,1.35,0,0,0,1,.45,1.4,1.4,0,0,0,1.06-.45A3,3,0,0,0,40,35.1a8.34,8.34,0,0,0,.3-1.62,17,17,0,0,0,.09-1.73,16,16,0,0,0-.09-1.67,7.85,7.85,0,0,0-.3-1.56,2.89,2.89,0,0,0-.64-1.13A1.43,1.43,0,0,0,38.25,27Z"/><path class="cls-1" d="M58.61,42.75a10.07,10.07,0,0,1-3.31-.49A7.65,7.65,0,0,1,51.15,39a10.71,10.71,0,0,1-1.08-2.33,14.19,14.19,0,0,1-.55-2.47,18.54,18.54,0,0,1-.16-2.42,18.18,18.18,0,0,1,.16-2.38,13.58,13.58,0,0,1,.55-2.45,10.48,10.48,0,0,1,1.08-2.27,7.55,7.55,0,0,1,4.15-3.18A10.36,10.36,0,0,1,58.61,21a9.3,9.3,0,0,1,4.66,1,8,8,0,0,1,2.82,2.62,10,10,0,0,1,1.4,3.49,18.81,18.81,0,0,1,.38,3.62,20.42,20.42,0,0,1-.16,2.4,13.2,13.2,0,0,1-.56,2.49A10.64,10.64,0,0,1,66.09,39a7.33,7.33,0,0,1-1.7,2,8.07,8.07,0,0,1-2.46,1.34A10.09,10.09,0,0,1,58.61,42.75Zm0-15.8a1.37,1.37,0,0,0-1,.44,2.89,2.89,0,0,0-.64,1.13,6.63,6.63,0,0,0-.32,1.56,16,16,0,0,0-.09,1.67,17,17,0,0,0,.09,1.73,7,7,0,0,0,.32,1.62,3,3,0,0,0,.64,1.18,1.34,1.34,0,0,0,1,.45,1.42,1.42,0,0,0,1.07-.45,3,3,0,0,0,.64-1.18,9.17,9.17,0,0,0,.3-1.62,17,17,0,0,0,.09-1.73,16,16,0,0,0-.09-1.67,8.64,8.64,0,0,0-.3-1.56,2.89,2.89,0,0,0-.64-1.13A1.45,1.45,0,0,0,58.61,27Z"/><path class="cls-1" d="M79,42.75a10.07,10.07,0,0,1-3.31-.49,7.79,7.79,0,0,1-2.45-1.34,7.7,7.7,0,0,1-1.7-2,10.26,10.26,0,0,1-1.08-2.33,14.19,14.19,0,0,1-.55-2.47,18.54,18.54,0,0,1-.16-2.42,18.18,18.18,0,0,1,.16-2.38,13.58,13.58,0,0,1,.55-2.45,10,10,0,0,1,1.08-2.27,7.8,7.8,0,0,1,1.7-1.89,7.91,7.91,0,0,1,2.45-1.29A10.36,10.36,0,0,1,79,21a9.32,9.32,0,0,1,4.66,1,8,8,0,0,1,2.82,2.62,10.16,10.16,0,0,1,1.4,3.49,18.81,18.81,0,0,1,.38,3.62,20.42,20.42,0,0,1-.16,2.4,14,14,0,0,1-.56,2.49A10.64,10.64,0,0,1,86.46,39a7.51,7.51,0,0,1-1.7,2,8.07,8.07,0,0,1-2.46,1.34A10.14,10.14,0,0,1,79,42.75ZM79,27a1.4,1.4,0,0,0-1,.44,3.16,3.16,0,0,0-.64,1.13A7.82,7.82,0,0,0,77,30.08c0,.57-.08,1.13-.08,1.67s0,1.14.08,1.73a8.3,8.3,0,0,0,.32,1.62,3.31,3.31,0,0,0,.64,1.18,1.46,1.46,0,0,0,2.11,0,2.79,2.79,0,0,0,.64-1.18A8.32,8.32,0,0,0,81,33.48a17,17,0,0,0,.09-1.73A16,16,0,0,0,81,30.08a7.83,7.83,0,0,0-.31-1.56A2.66,2.66,0,0,0,80,27.39,1.41,1.41,0,0,0,79,27Z"/><path class="cls-1" d="M90.56,38.88a3.66,3.66,0,0,1,1.15-2.66A4.44,4.44,0,0,1,93,35.4a3.86,3.86,0,0,1,1.5-.3,3.51,3.51,0,0,1,1.44.3,4.24,4.24,0,0,1,1.21.82,3.81,3.81,0,0,1,.83,1.19,3.65,3.65,0,0,1,.3,1.47,3.74,3.74,0,0,1-.3,1.49,3.59,3.59,0,0,1-.83,1.19,3.93,3.93,0,0,1-1.21.78,3.51,3.51,0,0,1-1.44.3,3.86,3.86,0,0,1-1.5-.3,4.12,4.12,0,0,1-1.25-.78,3.48,3.48,0,0,1-.84-1.19A3.75,3.75,0,0,1,90.56,38.88Z"/><path class="cls-1" d="M100.51,32.13h15.72v3.49H100.51Z"/><path class="cls-1" d="M100.72,26.33a3,3,0,0,1,.22-1.18,2.71,2.71,0,0,1,.63-.89,2.76,2.76,0,0,1,.93-.58,3.33,3.33,0,0,1,1.14-.2,3.52,3.52,0,0,1,1.18.2,2.83,2.83,0,0,1,.93.55l-1.11,1.33a1,1,0,0,0-.38-.3,1.36,1.36,0,0,0-.51-.1,1.26,1.26,0,0,0-.43.08,1,1,0,0,0-.34.23,1.1,1.1,0,0,0-.23.37,1.3,1.3,0,0,0-.09.49,1.19,1.19,0,0,0,.09.47,1.13,1.13,0,0,0,.24.36.89.89,0,0,0,.34.23,1,1,0,0,0,.42.08,1,1,0,0,0,.54-.13,1.14,1.14,0,0,0,.35-.3l1.11,1.33a2.59,2.59,0,0,1-.9.58,3.07,3.07,0,0,1-1.21.22A3.12,3.12,0,0,1,102.5,29a2.62,2.62,0,0,1-.93-.58,2.76,2.76,0,0,1-.63-.9A2.84,2.84,0,0,1,100.72,26.33Z"/><path class="cls-1" d="M109.54,27h-1.48V29h-1.81V23.63h1.8v1.83h1.48V23.63h1.81V29h-1.8Z"/><path class="cls-1" d="M114.12,25.71h1.64v1.48h-1.63V29h-1.78V23.63H116v1.52h-1.86Z"/><path class="cls-1" d="M4.9,13a4.11,4.11,0,0,1-1.71-.33A3.41,3.41,0,0,1,2,11.76a3.55,3.55,0,0,1-.71-1.26A4.79,4.79,0,0,1,1,9V2.78H2.43V9a3.83,3.83,0,0,0,.13,1,2.5,2.5,0,0,0,.41.89,2.14,2.14,0,0,0,.76.63,2.54,2.54,0,0,0,1.17.24,2.6,2.6,0,0,0,1.17-.24,2.14,2.14,0,0,0,.76-.63A2.5,2.5,0,0,0,7.24,10a3.83,3.83,0,0,0,.13-1V2.78H8.76V9a4.79,4.79,0,0,1-.23,1.46,3.55,3.55,0,0,1-.71,1.26,3.41,3.41,0,0,1-1.21.88A4.08,4.08,0,0,1,4.9,13ZM2.67.86a.82.82,0,0,1,.25-.6A.82.82,0,0,1,3.54,0a.84.84,0,0,1,.62.25.79.79,0,0,1,.25.61.78.78,0,0,1-.25.59.84.84,0,0,1-.62.25.82.82,0,0,1-.62-.26A.8.8,0,0,1,2.67.86Zm2.72,0a.82.82,0,0,1,.25-.6A.82.82,0,0,1,6.26,0a.84.84,0,0,1,.62.25.79.79,0,0,1,.25.61.78.78,0,0,1-.25.59.84.84,0,0,1-.62.25.82.82,0,0,1-.62-.26A.8.8,0,0,1,5.39.86Z"/><path class="cls-1" d="M12.51,2.78h3.42a4.7,4.7,0,0,1,1.12.13,2.84,2.84,0,0,1,1,.42,2.2,2.2,0,0,1,.71.77,2.28,2.28,0,0,1,.28,1.19,2.06,2.06,0,0,1-.48,1.39,2.47,2.47,0,0,1-1.26.77v0a2.8,2.8,0,0,1,.88.25A2.17,2.17,0,0,1,19.35,9a2.58,2.58,0,0,1,.16.94A2.51,2.51,0,0,1,18.42,12a3.9,3.9,0,0,1-1.19.52,5.65,5.65,0,0,1-1.45.18H12.51ZM13.9,7h1.81a3.08,3.08,0,0,0,.75-.1,1.76,1.76,0,0,0,.62-.28,1.27,1.27,0,0,0,.42-.47,1.42,1.42,0,0,0,.16-.7,1.22,1.22,0,0,0-.59-1.14,3.15,3.15,0,0,0-1.59-.35H13.9Zm0,4.56h1.74a5.12,5.12,0,0,0,.87-.08,2.44,2.44,0,0,0,.8-.27,1.74,1.74,0,0,0,.58-.53,1.54,1.54,0,0,0,.22-.84,1.38,1.38,0,0,0-.61-1.27,3.2,3.2,0,0,0-1.74-.4H13.9Z"/><path class="cls-1" d="M24.31,11.48H29.5v1.24H22.92V2.78h6.37V4h-5V7H29V8.17H24.31Z"/><path class="cls-1" d="M34.15,12.72H32.76V2.78h3.18a6.06,6.06,0,0,1,1.37.15,3.18,3.18,0,0,1,1.13.47,2.24,2.24,0,0,1,.76.85,2.63,2.63,0,0,1,.28,1.28,2.39,2.39,0,0,1-.67,1.77,3.12,3.12,0,0,1-1.74.85l2.78,4.57H38.16L35.64,8.29H34.15Zm0-5.59h1.6a5.14,5.14,0,0,0,.91-.08,2.33,2.33,0,0,0,.74-.28,1.47,1.47,0,0,0,.5-.49,1.44,1.44,0,0,0,.18-.75,1.44,1.44,0,0,0-.18-.75,1.64,1.64,0,0,0-.49-.49A2.13,2.13,0,0,0,36.7,4,3.89,3.89,0,0,0,35.85,4h-1.7Z"/><path class="cls-1" d="M137.31,35.54v6.63h-6.9V21.57h8.85a14.45,14.45,0,0,1,3.08.33A8.11,8.11,0,0,1,145.05,23,6,6,0,0,1,147,25.16a7,7,0,0,1,.73,3.34,6.76,6.76,0,0,1-.72,3.25,6.18,6.18,0,0,1-1.89,2.19,7.82,7.82,0,0,1-2.7,1.22,13.15,13.15,0,0,1-3.13.38Zm0-8.59v3.32h1.45a2.73,2.73,0,0,0,1.44-.39,1.43,1.43,0,0,0,.66-1.33,1.58,1.58,0,0,0-.18-.8,1.23,1.23,0,0,0-.48-.48,2.11,2.11,0,0,0-.68-.24,3.92,3.92,0,0,0-.76-.08Z"/><path class="cls-1" d="M150.31,21.57h8.88a14.58,14.58,0,0,1,3,.31A7.65,7.65,0,0,1,164.88,23a5.83,5.83,0,0,1,1.9,2.07,6.47,6.47,0,0,1,.73,3.24,5.84,5.84,0,0,1-3.6,5.56l5.23,8.35h-7.95l-3.95-7.36H157v7.36h-6.73Zm6.67,8.7h1.35a5.4,5.4,0,0,0,.77-.06,2.3,2.3,0,0,0,.78-.25,1.79,1.79,0,0,0,.61-.52,1.49,1.49,0,0,0,.24-.89,1.67,1.67,0,0,0-.2-.87,1.4,1.4,0,0,0-.52-.48,2,2,0,0,0-.69-.2,6.06,6.06,0,0,0-.7-.05H157Z"/><path class="cls-1" d="M176.82,21.57h7.36l8,20.6h-7.54l-1.08-3h-6.54l-1,3H168.7ZM174,17.21a2.79,2.79,0,0,1,.23-1.11,3,3,0,0,1,.64-.92,3.22,3.22,0,0,1,.93-.62,2.71,2.71,0,0,1,1.14-.24,2.56,2.56,0,0,1,1.1.24,2.93,2.93,0,0,1,.92.62,3.13,3.13,0,0,1,.63.92,2.82,2.82,0,0,1,0,2.23,3.17,3.17,0,0,1-.63.9,3,3,0,0,1-4.1,0A2.69,2.69,0,0,1,174,17.21Zm6.4,11.55-1.69,5.09h3.35Zm.85-11.55a2.63,2.63,0,0,1,.23-1.11,2.82,2.82,0,0,1,.64-.92,3.09,3.09,0,0,1,.93-.62,2.7,2.7,0,0,1,1.13-.24,2.64,2.64,0,0,1,1.11.24,2.9,2.9,0,0,1,1.54,1.54,2.71,2.71,0,0,1,0,2.23,3,3,0,0,1-.62.9,2.9,2.9,0,0,1-.92.61,3,3,0,0,1-1.11.22,2.91,2.91,0,0,1-2.08-.82A2.68,2.68,0,0,1,181.25,17.21Z"/><path class="cls-1" d="M199.81,30.53l.32,11.64h-6.46V21.57h9.06l3.73,11.09h.14l3.24-11.09h9.35v20.6h-6.75l.2-11.58-.17,0-3.84,11.61h-4.89L200,30.53Z"/><path class="cls-1" d="M223,21.57h7v20.6h-7Z"/><path class="cls-1" d="M233.82,21.57H248v5.76h-7.65v1.78h7.19v5.38h-7.19v1.92h8.15v5.76H233.82Z"/></g></g></svg>