<svg xmlns="http://www.w3.org/2000/svg" xmlns:xlink="http://www.w3.org/1999/xlink" viewBox="0 0 615.11 677.01"><defs><style>.cls-1{fill:url(#linear-gradient);}.cls-2{fill:url(#linear-gradient-2);}.cls-3{fill:url(#linear-gradient-3);}.cls-4{fill:url(#linear-gradient-4);}.cls-5{fill:url(#linear-gradient-5);}.cls-6{fill:url(#linear-gradient-6);}.cls-7{fill:url(#linear-gradient-7);}.cls-8{fill:url(#linear-gradient-8);}.cls-9{fill:url(#linear-gradient-9);}.cls-10{fill:url(#linear-gradient-10);}.cls-11{fill:url(#linear-gradient-11);}.cls-12{fill:url(#linear-gradient-12);}.cls-13{fill:url(#linear-gradient-13);}.cls-14{fill:url(#linear-gradient-14);}.cls-15{fill:url(#linear-gradient-15);}.cls-16{fill:url(#linear-gradient-16);}.cls-17{fill:url(#linear-gradient-17);}.cls-18{fill:url(#linear-gradient-18);}.cls-19{fill:url(#linear-gradient-19);}.cls-20{fill:url(#linear-gradient-20);}.cls-21{fill:url(#linear-gradient-21);}.cls-22{fill:url(#linear-gradient-22);}.cls-23{fill:url(#linear-gradient-23);}.cls-24{fill:url(#linear-gradient-24);}.cls-25{fill:url(#linear-gradient-25);}.cls-26{fill:url(#linear-gradient-26);}.cls-27{fill:url(#linear-gradient-27);}.cls-28{fill:url(#linear-gradient-28);}.cls-29{fill:url(#linear-gradient-29);}.cls-30{fill:url(#linear-gradient-30);}.cls-31{fill:url(#linear-gradient-31);}.cls-32{fill:url(#linear-gradient-32);}.cls-33{fill:url(#linear-gradient-33);}.cls-34{fill:url(#linear-gradient-34);}.cls-35{fill:url(#linear-gradient-35);}.cls-36{fill:url(#linear-gradient-36);}.cls-37{fill:url(#linear-gradient-37);}.cls-38{fill:url(#linear-gradient-38);}.cls-39{fill:url(#linear-gradient-39);}.cls-40{fill:url(#linear-gradient-40);}.cls-41{fill:url(#linear-gradient-41);}.cls-42{fill:url(#linear-gradient-42);}</style><linearGradient id="linear-gradient" x1="407.96" y1="-235.09" x2="483.06" y2="-8.31" gradientTransform="matrix(0.94, -0.34, 0.34, 0.94, -149.62, 506.47)" gradientUnits="userSpaceOnUse"><stop offset="0" stop-color="#0d3970"/><stop offset="0.18" stop-color="#0b305f"/><stop offset="0.46" stop-color="#082649"/><stop offset="0.74" stop-color="#071f3c"/><stop offset="1" stop-color="#061d38"/></linearGradient><linearGradient id="linear-gradient-2" x1="465.12" y1="-257.23" x2="457.61" y2="64.66" gradientTransform="matrix(0.94, -0.34, 0.34, 0.94, -149.62, 506.47)" gradientUnits="userSpaceOnUse"><stop offset="0" stop-color="#0a2e5c"/><stop offset="1" stop-color="#061d38"/></linearGradient><linearGradient id="linear-gradient-3" x1="249.96" y1="1351.73" x2="327.03" y2="1584.47" gradientTransform="matrix(0.71, 0.43, -0.43, 0.72, 880.56, -919.2)" xlink:href="#linear-gradient-2"/><linearGradient id="linear-gradient-4" x1="651.48" y1="-466.7" x2="389.06" y2="-230.68" gradientTransform="matrix(0.83, -0.45, 0.27, 0.85, 126.61, 805.38)" xlink:href="#linear-gradient"/><linearGradient id="linear-gradient-5" x1="4245.2" y1="321.28" x2="4320.3" y2="548.07" gradientTransform="matrix(-0.66, -0.01, -0.01, 0.86, 3202.81, -92.14)" xlink:href="#linear-gradient-2"/><linearGradient id="linear-gradient-6" x1="4302.36" y1="299.14" x2="4294.85" y2="621.03" gradientTransform="matrix(-0.66, -0.01, -0.01, 0.86, 3202.81, -92.14)" xlink:href="#linear-gradient"/><linearGradient id="linear-gradient-7" x1="463.52" y1="-232.58" x2="491.55" y2="45.26" xlink:href="#linear-gradient"/><linearGradient id="linear-gradient-8" x1="519.84" y1="-333.85" x2="459.76" y2="59.63" xlink:href="#linear-gradient-2"/><linearGradient id="linear-gradient-9" x1="1297.51" y1="-1443.17" x2="1323.24" y2="-1188.2" gradientTransform="matrix(0.44, -0.9, 0.74, 0.36, 594.57, 2057.56)" xlink:href="#linear-gradient-2"/><linearGradient id="linear-gradient-10" x1="1346.14" y1="-1546.49" x2="1289.72" y2="-1176.92" gradientTransform="matrix(0.44, -0.9, 0.74, 0.36, 594.57, 2057.56)" xlink:href="#linear-gradient"/><linearGradient id="linear-gradient-11" x1="3090.64" y1="672.23" x2="3118.42" y2="947.55" gradientTransform="matrix(-1.22, -0.24, -0.15, 0.78, 4309.53, 390.52)" xlink:href="#linear-gradient-2"/><linearGradient id="linear-gradient-12" x1="3143.7" y1="567.86" x2="3083.63" y2="961.33" gradientTransform="matrix(-1.22, -0.24, -0.15, 0.78, 4309.53, 390.52)" xlink:href="#linear-gradient"/><linearGradient id="linear-gradient-13" x1="305.82" y1="-224.88" x2="472.03" y2="-1.61" xlink:href="#linear-gradient-2"/><linearGradient id="linear-gradient-14" x1="343.23" y1="-244.75" x2="452.11" y2="7.55" xlink:href="#linear-gradient"/><linearGradient id="linear-gradient-15" x1="331.54" y1="-230.46" x2="487.23" y2="-5.69" xlink:href="#linear-gradient"/><linearGradient id="linear-gradient-16" x1="376.58" y1="-232.82" x2="467.69" y2="5.97" xlink:href="#linear-gradient-2"/><linearGradient id="linear-gradient-17" x1="598.58" y1="-940.62" x2="754.28" y2="-715.83" gradientTransform="matrix(0.67, -0.69, 0.63, 0.62, 209.04, 1347.25)" xlink:href="#linear-gradient-2"/><linearGradient id="linear-gradient-18" x1="643.62" y1="-942.98" x2="734.74" y2="-704.17" gradientTransform="matrix(0.67, -0.69, 0.63, 0.62, 209.04, 1347.25)" xlink:href="#linear-gradient"/><linearGradient id="linear-gradient-19" x1="181.33" y1="572.3" x2="337.03" y2="797.08" gradientTransform="matrix(0.89, 0.14, -0.14, 0.88, 194.15, -405.92)" xlink:href="#linear-gradient"/><linearGradient id="linear-gradient-20" x1="226.38" y1="569.94" x2="317.49" y2="808.74" gradientTransform="matrix(0.89, 0.14, -0.14, 0.88, 194.15, -405.92)" xlink:href="#linear-gradient-2"/><linearGradient id="linear-gradient-21" x1="795.19" y1="2109.35" x2="950.87" y2="2334.11" gradientTransform="matrix(0.52, 0.67, -0.58, 0.45, 1298.16, -1274.14)" xlink:href="#linear-gradient"/><linearGradient id="linear-gradient-22" x1="840.23" y1="2106.99" x2="931.34" y2="2345.77" gradientTransform="matrix(0.52, 0.67, -0.58, 0.45, 1298.16, -1274.14)" xlink:href="#linear-gradient-2"/><linearGradient id="linear-gradient-23" x1="1836.69" y1="-1917.8" x2="1992.37" y2="-1693.03" gradientTransform="matrix(0.07, 0.85, 0.73, -0.06, 1345.63, -1295.61)" xlink:href="#linear-gradient"/><linearGradient id="linear-gradient-24" x1="1881.73" y1="-1920.16" x2="1972.84" y2="-1681.38" gradientTransform="matrix(0.07, 0.85, 0.73, -0.06, 1345.63, -1295.61)" xlink:href="#linear-gradient-2"/><linearGradient id="linear-gradient-25" x1="150.3" y1="1309.5" x2="305.99" y2="1534.28" gradientTransform="matrix(0.68, 0.39, -0.41, 0.7, 836.85, -826.76)" xlink:href="#linear-gradient"/><linearGradient id="linear-gradient-26" x1="195.35" y1="1307.14" x2="286.46" y2="1545.93" gradientTransform="matrix(0.68, 0.39, -0.41, 0.7, 836.85, -826.76)" xlink:href="#linear-gradient-2"/><linearGradient id="linear-gradient-27" x1="537.27" y1="-229.97" x2="479.7" y2="56.37" xlink:href="#linear-gradient-2"/><linearGradient id="linear-gradient-28" x1="509.26" y1="-302.63" x2="504.76" y2="87.85" xlink:href="#linear-gradient"/><linearGradient id="linear-gradient-29" x1="1590.03" y1="-1962.14" x2="1529.96" y2="-1663.39" gradientTransform="matrix(0.16, -0.68, 0.7, 0.16, 1216.01, 1778.41)" xlink:href="#linear-gradient"/><linearGradient id="linear-gradient-30" x1="1557.97" y1="-2040.92" x2="1553.22" y2="-1629.89" gradientTransform="matrix(0.16, -0.68, 0.7, 0.16, 1216.01, 1778.41)" xlink:href="#linear-gradient-2"/><linearGradient id="linear-gradient-31" x1="820.09" y1="34.81" x2="515.39" y2="128.21" gradientTransform="translate(-149.8 516.83) rotate(-19.99)" xlink:href="#linear-gradient-2"/><linearGradient id="linear-gradient-32" x1="666.62" y1="22.45" x2="609.84" y2="140.55" gradientTransform="translate(-149.8 516.83) rotate(-19.99)" xlink:href="#linear-gradient"/><linearGradient id="linear-gradient-33" x1="3386.57" y1="-694.89" x2="3329" y2="-408.54" gradientTransform="matrix(-0.8, 0.6, 0.58, 0.78, 3213.94, -1265.01)" xlink:href="#linear-gradient-2"/><linearGradient id="linear-gradient-34" x1="3358.56" y1="-767.54" x2="3354.05" y2="-377.07" gradientTransform="matrix(-0.8, 0.6, 0.58, 0.78, 3213.94, -1265.01)" xlink:href="#linear-gradient"/><linearGradient id="linear-gradient-35" x1="3052.48" y1="-860.02" x2="2995.29" y2="-575.57" gradientTransform="matrix(-0.75, 0.72, 0.63, 0.66, 2932.11, -1361.29)" xlink:href="#linear-gradient-2"/><linearGradient id="linear-gradient-36" x1="265.94" y1="-196.35" x2="471.19" y2="74.98" xlink:href="#linear-gradient"/><linearGradient id="linear-gradient-37" x1="2116.4" y1="-2104.04" x2="2057.51" y2="-1811.15" gradientTransform="matrix(-0.09, 0.82, 0.66, 0.07, 1672.25, -1096.3)" xlink:href="#linear-gradient-2"/><linearGradient id="linear-gradient-38" x1="705.89" y1="-1619.53" x2="905.45" y2="-1355.71" gradientTransform="matrix(0.37, -0.69, 0.62, 0.39, 818.05, 1614.41)" xlink:href="#linear-gradient"/><linearGradient id="linear-gradient-39" x1="591.84" y1="-279.64" x2="487.46" y2="140.88" xlink:href="#linear-gradient-2"/><linearGradient id="linear-gradient-40" x1="574.92" y1="-332.77" x2="505.84" y2="93.74" xlink:href="#linear-gradient"/><linearGradient id="linear-gradient-41" x1="484.39" y1="135.92" x2="472.38" y2="348.43" gradientTransform="matrix(1, -0.05, 0.05, 1, -107.12, 355.85)" gradientUnits="userSpaceOnUse"><stop offset="0" stop-color="#061d38"/><stop offset="1" stop-color="#0a2e5c"/></linearGradient><linearGradient id="linear-gradient-42" x1="446.86" y1="180.43" x2="478.8" y2="180.43" gradientTransform="translate(-143.76 432.56) rotate(-16.99)" gradientUnits="userSpaceOnUse"><stop offset="0.05" stop-color="#061d38"/><stop offset="1" stop-color="#061d38"/></linearGradient></defs><title>l3</title><g id="Layer_2" data-name="Layer 2"><g id="leaves_state_1-3" data-name="leaves state 1-3"><path class="cls-1" d="M355.5,479.91S265.23,302.22,252.45,277C240,252.42,152.14,71,147.72,61.82c2.62,4.27,28.58,47.32,40.71,70.48a2.16,2.16,0,0,0,.22.43c2,4.18,3.42,7,3.76,7.65a.43.43,0,0,1,.09.16S306.2,364.27,354.83,478.3c.19.44.35.8.44,1.06S355.43,479.71,355.5,479.91Z"/><path class="cls-2" d="M354.83,478.3C306.2,364.27,192.5,140.54,192.5,140.54a.43.43,0,0,0-.09-.16c-.34-.67-1.72-3.47-3.76-7.65a2.16,2.16,0,0,1-.22-.43c-9.55-19.33-32.62-66.87-34-76.49,0,0,103.68,191,114.14,212.76C278.45,289.18,347.42,460,354.83,478.3Z"/><path class="cls-3" d="M355.44,476.87c33.06-58.37,63.92-118.22,92.72-178.38,29.38-61.36,57.95-123.54,83.43-186.67-1.18,4-13.63,44.38-21.82,65a2.3,2.3,0,0,0-.15.38c-1.57,3.64-2.61,6.08-2.86,6.67a.38.38,0,0,1-.05.15C465,284.41,415.91,383.9,356.31,475.56c-.24.36-.42.66-.57.86S355.55,476.72,355.44,476.87Z"/><path class="cls-4" d="M356.31,475.56S465,284.41,506.71,184a.38.38,0,0,0,.05-.15c.25-.59,1.29-3,2.86-6.67a2.3,2.3,0,0,1,.15-.38c7.16-16.87,16.51-41.51,21.77-47.87-20.37,58.9-41.66,120.45-68.84,175C433.72,362.16,356.31,475.56,356.31,475.56Z"/><path class="cls-5" d="M355.59,477.28s18.31-169,20.88-193C379,260.87,395,89.51,395.79,80.83c-.72,4.18-7.7,46.29-10.31,68.43a2.59,2.59,0,0,1,0,.41c-.38,4-.65,6.6-.71,7.24a.27.27,0,0,0,0,.15s-23.07,212.87-29,318.73c0,.42,0,.75-.05,1S355.59,477.1,355.59,477.28Z"/><path class="cls-6" d="M355.66,475.79c6-105.86,29-318.73,29-318.73a.27.27,0,0,1,0-.15c.06-.64.33-3.29.71-7.24a2.59,2.59,0,0,0,0-.41c1.82-18.31,6-63.24,4.85-71.4,0,0-23.82,183.57-25.68,204.12C362.89,301.42,356.36,458.88,355.66,475.79Z"/><path class="cls-7" d="M355.55,478.55a7.09,7.09,0,0,1,.37,1.21S263.83,244.2,240.27,181.4c-22.12-58.86-62.78-139.88-67.76-149.77L238,154.72s38.41,105.48,51.16,140C301.31,327.67,350.8,464.05,355.55,478.55Z"/><path class="cls-8" d="M355.55,478.55c-4.75-14.5-54.24-150.88-66.44-183.84-12.75-34.51-51.16-140-51.16-140-43.71-107.33-49-136.79-49-136.79,4.35,11.59,90.19,218.4,98.17,238.42C294.69,275.45,350.5,461.7,355.55,478.55Z"/><path class="cls-9" d="M354.45,479a5.88,5.88,0,0,1,.91.51s-190.87-84.72-241.1-108c-47.1-21.81-86.92-35.38-95.68-38.13l61,14.3S183,392.59,210.43,405.53C236.68,417.89,343.3,473.12,354.45,479Z"/><path class="cls-10" d="M354.45,479C343.3,473.12,235.33,421.3,209.08,409,181.61,396,98,356,98,356c-88.13-37.34-87.37-39.29-87.37-39.29,9.27,4.3,159.61,61.93,175.93,69C202.15,392.53,341.81,471.83,354.45,479Z"/><path class="cls-11" d="M356.77,477.15a4.41,4.41,0,0,0-.11,1S403.86,281.4,415.26,229C426,179.86,437.44,111.35,440.76,103l-29.89,104s-17.75,88-23.78,116.78C381.32,351.33,358.58,465.07,356.77,477.15Z"/><path class="cls-12" d="M356.77,477.15c1.81-12.08,24.55-125.82,30.32-153.32,6-28.8,23.78-116.78,23.78-116.78C434.47,117.32,433,93,433,93c-2.1,9.67-49.53,182.63-53.72,199.36C375.23,308.3,358.31,463.14,356.77,477.15Z"/><path class="cls-13" d="M353.69,480.21c-16-18.11-165.38-206.71-197.06-247.29C124.7,192,72.4,104.94,70.78,102.2c.39.47,3.32,4.11,7.78,9.59a.24.24,0,0,0,.06.08.36.36,0,0,1,.12.18c3.8,5.24,65.53,90.67,104.36,139.36,35.49,44.52,137.1,180.4,164.81,219.07a.83.83,0,0,0,.12.17C350,474,351.92,477.14,353.69,480.21Z"/><path class="cls-14" d="M347.91,470.48C320.2,431.81,218.59,295.93,183.1,251.41,144.27,202.72,82.54,117.29,78.74,112.05c16.73,20.58,54.24,66.74,59.32,72.29,6.58,7.21,90.29,109.81,112.69,140.08C271.58,352.62,319.41,422.94,347.91,470.48Z"/><path class="cls-15" d="M354.42,479.85a.19.19,0,0,1-.09-.09c-.1-.19-.24-.4-.39-.63s-.2-.31-.29-.47c-10.27-16.55-99.34-159.64-121-195.8-23-38.42-123.89-188.71-125.35-198.37l.07.1L129,116.8S229.64,258.21,245.12,287.35C260.22,315.66,349.53,471.36,354.42,479.85Z"/><path class="cls-16" d="M354.42,479.85c-4.89-8.49-94.2-164.19-109.3-192.5C229.64,258.21,129,116.8,129,116.8l-21.6-32.21c3.14,4,104.12,131.31,137.31,187C277.43,326.47,350.25,471.49,354.42,479.85Z"/><path class="cls-17" d="M355.74,480.6a.13.13,0,0,1-.11,0c-.16-.11-.35-.21-.56-.34s-.29-.16-.42-.25c-14.82-9-143.15-86.5-174.87-106.46C146.05,352.32,5.09,274.11.29,266.87l.09.05,30.2,16.77s137.55,71.05,161.43,88C215.26,388.14,348.46,475.83,355.74,480.6Z"/><path class="cls-18" d="M355.74,480.6c-7.28-4.77-140.48-92.46-163.73-108.91-23.88-16.95-161.43-88-161.43-88L.38,266.92c4.12,1.84,136.73,61.31,185.41,92.1C233.84,389.39,349.11,475.61,355.74,480.6Z"/><path class="cls-19" d="M358.41,476.24a.13.13,0,0,1,0-.11c0-.19,0-.41,0-.66s0-.33,0-.49c-1-17.35-9.54-167.51-11-205.1-1.62-39.94-16.41-200.8-13.37-209V61l3.16,34.46s18.52,153.87,18.16,183.29C354.92,307.4,358.21,467.5,358.41,476.24Z"/><path class="cls-20" d="M358.41,476.24c-.2-8.74-3.49-168.84-3.18-197.47.36-29.42-18.16-183.29-18.16-183.29L333.91,61c.78,4.44,25.62,147.45,27.81,205.23C363.88,323.26,358.73,467.91,358.41,476.24Z"/><path class="cls-21" d="M354.51,479.19a.1.1,0,0,1,0-.1c.1-.11.21-.26.34-.42s.16-.22.25-.33C364,467,440.79,369,460.44,344.91c20.86-25.64,99.34-134.28,105.86-137.32l0,.07-16.82,23.27S477.31,337.69,460.9,355.57C445,373,359.18,473.68,354.51,479.19Z"/><path class="cls-22" d="M354.51,479.19C359.18,473.68,445,373,460.9,355.57c16.41-17.88,88.53-124.64,88.53-124.64l16.82-23.27c-1.92,3.24-63.83,107.45-94.11,144.43C442.26,388.59,359.3,474.26,354.51,479.19Z"/><path class="cls-23" d="M353.88,477.43a.1.1,0,0,0-.09,0l-.54-.09c-.13,0-.27-.05-.4-.07-14.19-2.34-137-22.74-167.78-27.25-32.7-4.81-163.95-31.91-170.83-29.74h.09l28.13,5.8s125.3,30,149.48,32.1C215.45,460.22,346.72,476.52,353.88,477.43Z"/><path class="cls-24" d="M353.88,477.43c-7.16-.91-138.43-17.21-161.94-19.28-24.18-2.1-149.48-32.1-149.48-32.1l-28.13-5.8c3.6,1.1,119.65,36.11,167,42.92C228,469.91,347,477,353.88,477.43Z"/><path class="cls-25" d="M356.66,478.16a.14.14,0,0,1,0-.11c.07-.16.13-.35.2-.57s.08-.29.13-.43c5-15,47.85-144.95,59.1-177.28C428,265.4,469.41,124.5,474.59,118.49l0,.1-8.87,30.18s-36,136.1-46.08,161C409.85,333.9,359.4,470.68,356.66,478.16Z"/><path class="cls-26" d="M356.66,478.16c2.74-7.48,53.19-144.26,62.95-168.44,10.05-24.85,46.08-161,46.08-161l8.87-30.18c-.84,4-28.13,132.81-45.53,182.47C411.87,350.07,359.68,471.19,356.66,478.16Z"/><path class="cls-27" d="M317.52,269.37c7.26,26.75,36.9,197.11,38.76,207.74l-85-348.49L238.93,0C251.41,27.05,310,241.75,317.52,269.37Z"/><path class="cls-28" d="M271.25,128.62l85,348.49,0,.18a2.48,2.48,0,0,1,.06.33c-3.68-10.26-49.52-175.71-54.07-194s-65.86-263-65.86-263S253.88,66.82,271.25,128.62Z"/><path class="cls-29" d="M197.94,430.15C249,445,301,464.16,353.45,479.23A2471,2471,0,0,1,90,403.23c-30.36-11-60.15-22.28-90-34.16C66.58,387.56,133.05,411.24,197.94,430.15Z"/><path class="cls-30" d="M90,403.23a2471,2471,0,0,0,263.43,76l.14,0,.26.07a1486.07,1486.07,0,0,1-153.07-34.85A1969.11,1969.11,0,0,1,10.58,379C37.25,386.59,63.63,394.89,90,403.23Z"/><path class="cls-31" d="M479.93,397.38c-37.32,30-81.47,55.26-123.79,79.72q100-70.19,193.38-148.52,33.38-28.9,65.59-59.24C578.06,318,526.39,360.07,479.93,397.38Z"/><path class="cls-32" d="M549.52,328.58q-93.58,78.6-193.38,148.52l-.11.06a1.1,1.1,0,0,1-.2.11c35.45-28.78,71.34-58,106.5-86.15,45.68-36.5,92.73-74,137-113.49C599.37,277.63,580.67,299.14,549.52,328.58Z"/><path class="cls-33" d="M204.37,333.5c17.7,20.13,139.72,134.67,147.33,141.82L115.78,220.93,29.23,126.27C44.25,150.86,186.11,312.71,204.37,333.5Z"/><path class="cls-34" d="M115.78,220.93,351.7,475.32l.12.13.24.22c-6.29-8.46-115.22-133.74-127.57-147.17L47.43,135.14S75.22,173.94,115.78,220.93Z"/><path class="cls-35" d="M198.35,365.15C217.54,381.9,348,473.62,356.09,479.36L101.41,269.69,9.1,194.86C26,216.44,178.55,347.83,198.35,365.15Z"/><path class="cls-36" d="M101.41,269.69,356.09,479.36l.14.1.25.17c-6.92-7.24-125.1-111.72-138.44-122.81S6.75,176.56,6.75,176.56,57.39,230.44,101.41,269.69Z"/><path class="cls-37" d="M201.45,496.92c51.49-1.47,104.54-10.09,155.2-19A2393.4,2393.4,0,0,1,110.42,491c-29,.12-58.23-.45-87.28-1.7C80.55,500.51,144.55,498.55,201.45,496.92Z"/><path class="cls-38" d="M110.42,491a2393.4,2393.4,0,0,0,246.23-13.16l.13,0,.23-.05c-58.84,3.36-118.08,5-176.67,6.36-48.7,1.11-98.69-.67-147.88-4.29A424.1,424.1,0,0,0,110.42,491Z"/><path class="cls-39" d="M304.1,35.29c11,59.82,37.88,207.51,39.76,230.48,2.41,28.81,16.56,155.17,13.55,210.39-.66-17.21-37.28-307-37.28-307a.24.24,0,0,1,0-.12.54.54,0,0,0,0-.25c-.11-2.07-.39-4.81-.82-8.07,0-.22-.06-.42-.07-.64s0-.37-.07-.55C316.67,135.79,310.05,73.8,304.1,35.29Z"/><path class="cls-40" d="M291.71,16.56c1.44,6.79,22.44,105.81,27.42,142.92,0,.18,0,.37.07.55s.06.42.07.64c.43,3.26.71,6,.82,8.07a.54.54,0,0,1,0,.25.24.24,0,0,0,0,.12S356.75,459,357.41,476.16a2.28,2.28,0,0,0,0,.36,3.68,3.68,0,0,1,0,.39c-.32,5-28.61-182.44-31.62-209.7C322.87,240.59,293.1,26.59,291.71,16.56Z"/><rect class="cls-41" x="379.4" y="470.63" width="7.51" height="209.71" transform="translate(-149.6 134.85) rotate(-16.75)"/><polygon class="cls-42" points="350.35 479.7 339.13 479.78 341.34 477.57 336.55 475.27 341.71 473.01 338.14 470.93 341.88 470.51 340.37 466.54 343.86 466.87 342.69 463.26 346.24 466.74 344.49 462.53 348.36 465.02 347.77 462.01 350.63 463.21 352.21 460.94 355.33 464.74 355.92 461.02 357.79 464.09 359.47 462.35 360.96 466.49 364.5 466.71 363.53 469.86 367.95 468.77 357.41 477.25 350.35 479.7"/></g></g></svg>