<svg xmlns="http://www.w3.org/2000/svg" viewBox="0 0 728 90"><defs><style>.cls-1{fill:#701010;}.cls-2{fill:#fff;}</style></defs><g id="Layer_1" data-name="Layer 1"><path class="cls-1" d="M226.4,21.93h8l-.59,2.8h-4.73l-.32,1.5h3.59l-.56,2.59h-3.59L227.51,32h-3.23Z"/><path class="cls-1" d="M240.28,21.64a5,5,0,0,1,5.31,4.95,5.83,5.83,0,0,1-6.1,5.67,5,5,0,0,1-5.31-4.95A5.84,5.84,0,0,1,240.28,21.64Zm-.65,7.75a2.7,2.7,0,0,0,2.73-2.73,2.17,2.17,0,0,0-2.22-2.15,2.7,2.7,0,0,0-2.73,2.73A2.16,2.16,0,0,0,239.63,29.39Z"/><path class="cls-1" d="M248.17,21.93h4.48a3.31,3.31,0,0,1,3.51,3.3,3.62,3.62,0,0,1-1.1,2.63,5,5,0,0,1-1.11.79L255,32h-3.1l-.86-2.88h-1.18l-.6,2.88H246Zm3.8,4.45a.93.93,0,0,0,1-.95c0-.5-.28-.78-.86-.78h-1.25l-.37,1.73Z"/><path class="cls-1" d="M262.69,28.39l-2.23-6.46h3.3l.85,3.8h.07l2.46-3.8h3.73l-4.95,6.46L265.16,32h-3.24Z"/><path class="cls-1" d="M275.8,21.64a5,5,0,0,1,5.32,4.95A5.84,5.84,0,0,1,275,32.26a5,5,0,0,1-5.31-4.95A5.85,5.85,0,0,1,275.8,21.64Zm-.64,7.75a2.7,2.7,0,0,0,2.72-2.73,2.16,2.16,0,0,0-2.22-2.15,2.7,2.7,0,0,0-2.73,2.73A2.17,2.17,0,0,0,275.16,29.39Z"/><path class="cls-1" d="M283.5,21.93h3.23l-1.19,5.65a2.62,2.62,0,0,0,0,.35,1.27,1.27,0,0,0,1.32,1.39,1.72,1.72,0,0,0,1.67-1.42l1.26-6H293l-1.34,6.3a5,5,0,0,1-5,4c-2.74,0-4.38-1.75-4.38-4a4.3,4.3,0,0,1,.11-.93Z"/><path class="cls-1" d="M295,21.93h4.48a3.32,3.32,0,0,1,3.52,3.3,3.63,3.63,0,0,1-1.11,2.63,4.89,4.89,0,0,1-1.1.79L301.88,32h-3.1l-.86-2.88h-1.18l-.6,2.88h-3.23Zm3.81,4.45a.93.93,0,0,0,1-.95c0-.5-.29-.78-.86-.78h-1.25l-.37,1.73Z"/><path class="cls-1" d="M316.62,30.68a5,5,0,0,1-1.11.79,6.45,6.45,0,0,1-3.19.79,5,5,0,0,1-5.25-4.91,5.84,5.84,0,0,1,6.11-5.71,5.64,5.64,0,0,1,3.54,1.16,4.48,4.48,0,0,1,1,1.16l-2.28,1.91a3.32,3.32,0,0,0-.58-.67,2.62,2.62,0,0,0-1.83-.69,2.7,2.7,0,0,0-2.76,2.67,2.17,2.17,0,0,0,2.32,2.21,3.76,3.76,0,0,0,1.73-.43,3.45,3.45,0,0,0,.66-.44Z"/><path class="cls-1" d="M319.64,21.93h3.24l-.75,3.51h3l.75-3.51h3.23L327,32h-3.23l.77-3.66h-3L320.75,32h-3.23Z"/><path class="cls-1" d="M333.77,21.93h3.66L339,32h-3.3L335.5,30h-2.95l-1,1.94H328Zm1.55,5.88-.18-2.8h-.08l-1.39,2.8Z"/><path class="cls-1" d="M341.91,21.93h2.8L347.37,27l1.08-5.06h3.23L349.55,32h-2.8l-2.65-5.06L343,32h-3.23Z"/><path class="cls-1" d="M361.6,30.68a5,5,0,0,1-1.1.79,6.51,6.51,0,0,1-3.19.79,5,5,0,0,1-5.26-4.91,5.85,5.85,0,0,1,6.12-5.71,5.61,5.61,0,0,1,3.53,1.16,4.53,4.53,0,0,1,1,1.16l-2.29,1.91a3.27,3.27,0,0,0-.57-.67,2.67,2.67,0,0,0-1.84-.69,2.7,2.7,0,0,0-2.76,2.67,2.18,2.18,0,0,0,2.33,2.21,3.71,3.71,0,0,0,1.72-.43,2.92,2.92,0,0,0,.66-.44Z"/><path class="cls-1" d="M364.63,21.93h8L372,24.58H367.3L367,25.8h3.59l-.49,2.3h-3.59l-.26,1.22h4.89L370.62,32H362.5Z"/><path class="cls-1" d="M378.6,24.87H376l.61-2.94h8.55l-.62,2.94h-2.66L380.33,32H377.1Z"/><path class="cls-1" d="M391,21.64a5,5,0,0,1,5.32,4.95,5.84,5.84,0,0,1-6.11,5.67,5,5,0,0,1-5.31-4.95A5.85,5.85,0,0,1,391,21.64Zm-.64,7.75a2.7,2.7,0,0,0,2.72-2.73,2.16,2.16,0,0,0-2.22-2.15,2.7,2.7,0,0,0-2.73,2.73A2.17,2.17,0,0,0,390.36,29.39Z"/><path class="cls-1" d="M400.68,21.93h3.24l.18,5.52h.07l2.76-5.52h2.58l.41,5.52H410l2.54-5.52h3.66L410.76,32h-2.87l-.5-5.32h-.06L404.59,32h-2.73Z"/><path class="cls-1" d="M417.19,21.93h3.23L418.3,32h-3.23Z"/><path class="cls-1" d="M422.58,21.93h2.8L428,27l1.08-5.06h3.23L430.21,32h-2.8l-2.65-5.06L423.68,32h-3.23Z"/><path class="cls-1" d="M440.18,21.93h3.66L445.38,32h-3.3L441.91,30h-3L438,32H434.4Zm1.55,5.88-.18-2.8h-.07l-1.4,2.8Z"/><path class="cls-2" d="M172,40.68h6.41l-3,14h8.26l-1.25,6H167.81Z"/><path class="cls-2" d="M196.86,40.11c6.47,0,10.55,4.47,10.55,9.83,0,6.25-5.28,11.26-12.12,11.26-6.47,0-10.54-4.47-10.54-9.83C184.75,45.13,190,40.11,196.86,40.11ZM195.58,55.5A5.36,5.36,0,0,0,201,50.09a4.31,4.31,0,0,0-4.42-4.28,5.36,5.36,0,0,0-5.42,5.42A4.3,4.3,0,0,0,195.58,55.5Z"/><path class="cls-2" d="M210.83,53.56a5.8,5.8,0,0,0,1,1.2,4.51,4.51,0,0,0,3,1.17c1.22,0,1.82-.57,1.82-1.25,0-2-7.24-2.77-7.24-7.93,0-3.5,3-6.64,8.13-6.64a10.56,10.56,0,0,1,6,1.68,7.5,7.5,0,0,1,1.77,1.68L221,47.07a3.14,3.14,0,0,0-.68-.83,3.44,3.44,0,0,0-2.37-.86c-1,0-1.56.43-1.56,1,0,2,7.26,2.82,7.26,8,0,3.56-3.39,6.84-8.4,6.84a11.45,11.45,0,0,1-6.62-2,10.34,10.34,0,0,1-2.11-2Z"/><path class="cls-2" d="M239.74,40.68H247l3.05,20H243.5l-.34-3.84h-5.85l-1.93,3.84h-7.13Zm3.07,11.69-.37-5.56h-.14l-2.76,5.56Z"/><path class="cls-2" d="M255.28,40.68h5.55l5.28,10.06,2.13-10.06h6.42l-4.22,20h-5.56l-5.27-10-2.14,10h-6.41Z"/><path class="cls-2" d="M286.09,49.52h9.26l-1.82,8.75a10.46,10.46,0,0,1-2.17,1.48,13,13,0,0,1-6.15,1.45c-6.3,0-10.44-4.47-10.44-9.74,0-6.36,5.28-11.35,12.15-11.35a11.12,11.12,0,0,1,7,2.31A8.57,8.57,0,0,1,296,44.73l-4.53,3.79a6.59,6.59,0,0,0-1.14-1.34,5.49,5.49,0,0,0-9.12,3.93,4.31,4.31,0,0,0,4.61,4.39,6.93,6.93,0,0,0,1.83-.23l.68-.25.46-1.94h-3.42Z"/><path class="cls-2" d="M300.34,40.68h15.82L315.05,46h-9.41l-.51,2.43h7.12l-1,4.56h-7.12l-.52,2.42h9.69l-1.11,5.27h-16.1Z"/><path class="cls-2" d="M319.27,40.68h6.41l-3,14H331l-1.26,6H315.05Z"/><path class="cls-2" d="M335.41,40.68h15.82L350.12,46h-9.4l-.52,2.43h7.13l-1,4.56h-7.13l-.51,2.42h9.69l-1.11,5.27H331.2Z"/><path class="cls-2" d="M353.34,53.56a6.15,6.15,0,0,0,1.06,1.2,4.46,4.46,0,0,0,3,1.17c1.23,0,1.82-.57,1.82-1.25,0-2-7.24-2.77-7.24-7.93,0-3.5,3-6.64,8.13-6.64a10.53,10.53,0,0,1,6,1.68,7.5,7.5,0,0,1,1.77,1.68l-4.3,3.6a3.18,3.18,0,0,0-.69-.83,3.39,3.39,0,0,0-2.36-.86c-1.06,0-1.57.43-1.57,1,0,2,7.27,2.82,7.27,8,0,3.56-3.4,6.84-8.41,6.84a11.45,11.45,0,0,1-6.62-2,10.29,10.29,0,0,1-2.1-2Z"/><path class="cls-2" d="M377.12,40.68h6.41l-1.48,7h6l1.48-7h6.41l-4.22,20H385.3l1.54-7.27h-6l-1.54,7.27H372.9Z"/><path class="cls-2" d="M408.16,40.11c6.47,0,10.55,4.47,10.55,9.83,0,6.25-5.28,11.26-12.12,11.26-6.47,0-10.54-4.47-10.54-9.83C396.05,45.13,401.32,40.11,408.16,40.11ZM406.88,55.5a5.35,5.35,0,0,0,5.41-5.41,4.3,4.3,0,0,0-4.41-4.28,5.36,5.36,0,0,0-5.42,5.42A4.3,4.3,0,0,0,406.88,55.5Z"/><path class="cls-2" d="M423.19,40.68h6.41l-3,14h8.27l-1.26,6H419Z"/><path class="cls-2" d="M439.33,40.68h6.42l-4.22,20h-6.42Z"/><path class="cls-2" d="M449.4,40.68h7c6.27,0,9.75,4.25,9.75,9.26,0,5.82-5.3,10.69-11.63,10.69h-9.38Zm5.39,14.54a4.9,4.9,0,0,0,4.93-5.13,3.93,3.93,0,0,0-4.14-4h-.91l-1.94,9.12Z"/><path class="cls-2" d="M475.13,40.68h7.27l3.05,20h-6.56l-.34-3.84h-5.84l-1.94,3.84h-7.13Zm3.08,11.69-.37-5.56h-.14l-2.77,5.56Z"/><path class="cls-2" d="M490.74,53.51l-4.42-12.83h6.55l1.69,7.55h.14l4.87-7.55H507l-9.83,12.83-1.51,7.12h-6.41Z"/></g></svg>