<svg xmlns="http://www.w3.org/2000/svg" viewBox="0 0 148.44 31"><defs><style>.cls-1{fill:#fff;}.cls-2{fill:#ff3008;}</style></defs><g id="Layer_2" data-name="Layer 2"><g id="Layer_1-2" data-name="Layer 1"><rect class="cls-1" width="148.44" height="31" rx="15.5"/><path class="cls-2" d="M20.6,12.06h-3V10h8.25v2.1h-3v8.4H20.6Z"/><path class="cls-2" d="M27.5,10h7.8v2.1H29.75v2H34.1v2H29.75v2.25h5.7v2.1h-8Z"/><path class="cls-2" d="M37.47,10h2.25v8.4H44.6v2.1H37.47Z"/><path class="cls-2" d="M46.25,10H48.5v8.4h4.87v2.1H46.25Z"/><path class="cls-2" d="M58.17,10h2l3.6,4.5L67.39,10h2v10.5H67.17v-6.9l-3.37,4.2-3.38-4.2v6.9H58.17Z"/><path class="cls-2" d="M72.12,10h7.8v2.1H74.37v2h4.35v2H74.37v2.25h5.7v2.1H72.12Z"/><path class="cls-2" d="M85.25,10h2l3.6,4.5,3.6-4.5h2v10.5H94.25v-6.9l-3.38,4.2-3.37-4.2v6.9H85.25Z"/><path class="cls-2" d="M104.22,9.74a5.48,5.48,0,1,1-5.7,5.47A5.54,5.54,0,0,1,104.22,9.74Zm0,8.85a3.38,3.38,0,1,0-3.37-3.38A3.36,3.36,0,0,0,104.22,18.59Z"/><path class="cls-2" d="M111.94,10h4.66a3.39,3.39,0,0,1,3.67,3.53,3.34,3.34,0,0,1-.9,2.44,2.82,2.82,0,0,1-.9.63l2.17,3.9h-2.47L116.3,17h-2.11v3.45h-2.25Zm4.58,4.95a1.35,1.35,0,0,0,1.42-1.42,1.36,1.36,0,0,0-1.42-1.43h-2.33v2.85Z"/><path class="cls-2" d="M122.52,10h7.8v2.1h-5.55v2h4.35v2h-4.35v2.25h5.7v2.1h-8Z"/></g></g></svg>