<svg xmlns="http://www.w3.org/2000/svg" xmlns:xlink="http://www.w3.org/1999/xlink" viewBox="0 0 728 90"><defs><style>.cls-1{fill:none;}.cls-2{clip-path:url(#clip-path);}.cls-3{fill:#da290b;}.cls-4{fill:#fff;}</style><clipPath id="clip-path"><rect class="cls-1" x="-335.2" y="-35.16" width="315.22" height="170.17"/></clipPath></defs><g id="Layer_1" data-name="Layer 1"><g class="cls-2"><g id="_Clip_Group_Background" data-name="&lt;Clip Group&gt; Background"><path class="cls-3" d="M50.3,39.21a38.43,38.43,0,0,0-2.45-4C46.54,33.86,43.52,22.69,42.48,20s-8-13.85-9-14.75-3.41-2-4.72-3.35S23.47-7.47,21.24-9.7s-5.5-2.46-7.6-3.13-4.06,2.46-4.06,2.46H5.64c-.78,0-3.93,6-5,6.7s-4.85-.45-5.9,0c-.65.28-5.72,5.43-9.66,9.48C-17.36,4.25-19.74,3-21,3.15a43,43,0,0,1-7.08,0l-6.42-5.4C-40.59-2.58-42.28-7.31-45.66-6s-12.83.34-13.5,2c-.31.77-3.29,2.41-6.56,4.06-3.82-2.31-8.37-5-9-5.16-1.05-.27-4.85.39-5.9,0S-84.81-9-85.59-9h-3.93s-2.89-1.66-4.07-1.44c-2.09.39-5.37.53-7.6,1.84s-6.16,6-7.47,6.81-3.67,1.44-4.72,2a68.18,68.18,0,0,0-9,8.65s-2,1.68-5.19,4c-4-.21-8.71,1.92-12.42,4l-.27-5.69L-142,9.73l-.75,0v0l-1.68.08-.74,0-1.61.07.07,1.58.36,7.82.07,1.35a11.46,11.46,0,0,1-2.41.51l-.35-7.42-1.68-1.5-.75,0v0l-2.41.12-1.55,1.66.36,7.59-1.3,0-.36-7.56-1.68-1.5-.75,0v0l-2.41.11-1.54,1.66.34,7.27c-.88,0-1.74-.05-2.58-.1l1.47-9.63-2.35.11L-167,17.5l-1.37-5.32h0l-1.25.06h0l-.86,5.42-1.33-5.31-2.36.11,2.12,8.45a10.41,10.41,0,0,1-1.3-.31,12.57,12.57,0,0,0-3.53-.33l-.21-4.54,2.28-5.66-2.36.11-1.22,3-1.5-2.91-2.36.11,2.8,5.42.22,4.56-1.34.13,0-.68-3.26.15-.41-8.69-2.35.11.46,9.94-.89.16-.08-1.63-3.26.15-.41-8.69-2.35.11.46,9.81c-.78-.15-1.48-.27-2.05-.36l-.37,0,.3-.32-.37-7.81-1.68-1.5-.75,0v0l-2.41.12-1.54,1.66.36,7.81.41.37-1.92.27-.5-10.79-2.36.11.2,4.34-1.81.09-.2-4.35-2.35.11.29,6.3.39,8.18-1.61,1.26a48.91,48.91,0,0,0-6.91,1c-7.75,1.78-16.83,23-16.83,23l-.07.21c-4.13,4.19-8.67,8.93-9.33,9.64-1.19,1.27-4.78,10.46-6.27,14.51s-3.43,4.84-3.43,4.84c-11.65,2.54-12.55,7.9-15.39,5.87s-22.57-1.27-22.57-1.27l-12.87,13.16a91.15,91.15,0,0,0-13.73,4.38c-5.78,2.57-16.84,15.41-16.84,15.41-.65,17.41-1.87,94.29-1.87,94.29H62.07V45.42A90.94,90.94,0,0,0,50.3,39.21ZM-142.62,12.06l.29,6.22-.29.19-1.37.06-.3-6.39Zm-8.71,2.55L-151,21l-1.68.08-.3-6.39ZM-159,15l.3,6.39-1.68.08-.29-6.4Zm-9.78,2.59.63,3.86-.9-.08Zm-28.79-4,.3,6.39-1.68.08-.3-6.39Zm-9.57,4,1.81-.08.2,4.19c-.57-.57-1.36,1.5-2,.82Z"/></g></g><path class="cls-4" d="M260.34,67.6h.24l1.86,2.49,1.85-2.49h.24v4.2h-.3V68.17l-1.79,2.4-1.8-2.4V71.8h-.3Z"/><path class="cls-4" d="M265.88,67.69a.21.21,0,1,1,0,.42.21.21,0,0,1,0-.42Zm-.14,1.23H266V71.8h-.27Z"/><path class="cls-4" d="M267.05,68.92h.27v.51a1.21,1.21,0,0,1,1-.57,1.17,1.17,0,0,1,1.17,1.23V71.8h-.27V70.09a.89.89,0,0,0-.9-1,1,1,0,0,0-1,1.05V71.8h-.27Z"/><path class="cls-4" d="M271.46,70.36a1.44,1.44,0,1,1,1.44,1.5A1.47,1.47,0,0,1,271.46,70.36Zm2.61,0a1.2,1.2,0,0,0-1.17-1.23,1.23,1.23,0,0,0,0,2.46A1.2,1.2,0,0,0,274.07,70.36Z"/><path class="cls-4" d="M275.15,68.92h.27v.51a1.05,1.05,0,0,1,.24-.28,1.14,1.14,0,0,1,.78-.29h.12v.27h-.12a1,1,0,0,0-1,1.05V71.8h-.27Z"/><path class="cls-4" d="M279.35,71.23a1.3,1.3,0,0,1-.26.31,1.23,1.23,0,0,1-.85.32,1.51,1.51,0,0,1,0-3,1.23,1.23,0,0,1,.85.32,1.3,1.3,0,0,1,.26.31V67.6h.27v4.2h-.27Zm0-.87a1.1,1.1,0,1,0-1.11,1.23A1.16,1.16,0,0,0,279.35,70.36Z"/><path class="cls-4" d="M283,71.26a1.32,1.32,0,0,1-.28.3,1.37,1.37,0,0,1-.85.3,1.47,1.47,0,0,1-1.42-1.5,1.43,1.43,0,0,1,1.38-1.5,1.38,1.38,0,0,1,1.32,1.5v.12h-2.43a1.19,1.19,0,0,0,1.15,1.11,1.11,1.11,0,0,0,.7-.26.88.88,0,0,0,.22-.25Zm-.12-1.05a1.06,1.06,0,0,0-1.05-1.08,1.17,1.17,0,0,0-1.11,1.08Z"/><path class="cls-4" d="M284,68.92h.27v.51a1.05,1.05,0,0,1,.24-.28,1.14,1.14,0,0,1,.78-.29h.12v.27h-.12a1,1,0,0,0-1,1.05V71.8H284Z"/><path class="cls-4" d="M287,71a1,1,0,0,0,.28.27,1.54,1.54,0,0,0,.89.27c.72,0,1.07-.36,1.07-.87,0-1.14-2.33-.6-2.33-2a1.15,1.15,0,0,1,1.13-1.1v-.61h.3v.6a1.75,1.75,0,0,1,.81.27,2.1,2.1,0,0,1,.27.24l-.21.21a1,1,0,0,0-.24-.21,1.43,1.43,0,0,0-.75-.21c-.65,0-1,.36-1,.81,0,1.14,2.34.6,2.34,2a1.17,1.17,0,0,1-1.2,1.15v.62h-.3v-.61a1.7,1.7,0,0,1-.94-.33,1.82,1.82,0,0,1-.32-.29Z"/><path class="cls-4" d="M292.85,71.5v.3h-2.64c0-1.66,2.34-1.8,2.34-3.06a.92.92,0,0,0-1-.9,1,1,0,0,0-.82.38,1.06,1.06,0,0,0-.18.37l-.26-.12a1.05,1.05,0,0,1,.23-.46,1.33,1.33,0,0,1,2.34.73c0,1.35-2,1.55-2.31,2.76Z"/><path class="cls-4" d="M293.61,69.7c0-1.35.8-2.16,1.61-2.16s1.62.81,1.62,2.16-.8,2.16-1.62,2.16S293.61,71.05,293.61,69.7Zm2.93,0c0-1.2-.66-1.86-1.32-1.86s-1.32.66-1.32,1.86.67,1.86,1.32,1.86S296.54,70.9,296.54,69.7Z"/><path class="cls-4" d="M297.83,71.41a.21.21,0,1,1,0,.42.21.21,0,1,1,0-.42Z"/><path class="cls-4" d="M303.86,71a2.66,2.66,0,0,1-.44.45,2.08,2.08,0,0,1-1.3.45,2.16,2.16,0,0,1,0-4.32,2.08,2.08,0,0,1,1.29.45,2.24,2.24,0,0,1,.42.45l-.21.18a1.71,1.71,0,0,0-.37-.39,1.8,1.8,0,0,0-1.13-.39,1.86,1.86,0,0,0,0,3.72,1.92,1.92,0,0,0,1.15-.39,2,2,0,0,0,.38-.39Z"/><path class="cls-4" d="M304.38,70.36a1.44,1.44,0,1,1,1.43,1.5A1.47,1.47,0,0,1,304.38,70.36Zm2.6,0a1.17,1.17,0,1,0-1.17,1.23A1.2,1.2,0,0,0,307,70.36Z"/><path class="cls-4" d="M308.06,68.92h.27v.48a1.35,1.35,0,0,1,.2-.27.91.91,0,0,1,.67-.27,1,1,0,0,1,.74.33,1.19,1.19,0,0,1,.22.33,1.46,1.46,0,0,1,.22-.33,1,1,0,0,1,.77-.33,1.12,1.12,0,0,1,1.08,1.23V71.8H312V70.09a.85.85,0,0,0-.81-1c-.48,0-.87.39-.87,1.05V71.8H310V70.09a.85.85,0,0,0-.81-1c-.48,0-.87.39-.87,1.05V71.8h-.27Z"/><path class="cls-4" d="M313.22,68.92h.27v.57a1.63,1.63,0,0,1,.27-.31,1.18,1.18,0,0,1,.84-.32,1.51,1.51,0,0,1,0,3,1.18,1.18,0,0,1-.84-.32,1.63,1.63,0,0,1-.27-.31v1.83h-.27Zm2.46,1.44a1.1,1.1,0,1,0-1.08,1.23A1.15,1.15,0,0,0,315.68,70.36Z"/><path class="cls-4" d="M319.1,71.26a1.17,1.17,0,0,1-.29.3,1.35,1.35,0,0,1-.85.3,1.47,1.47,0,0,1-1.41-1.5,1.43,1.43,0,0,1,1.38-1.5,1.38,1.38,0,0,1,1.32,1.5v.12h-2.43A1.18,1.18,0,0,0,318,71.59a1.12,1.12,0,0,0,.71-.26.88.88,0,0,0,.22-.25ZM319,70.21a1.06,1.06,0,0,0-1.05-1.08,1.17,1.17,0,0,0-1.11,1.08Z"/><path class="cls-4" d="M320.3,69.19h-.57v-.27h.39a.21.21,0,0,0,.21-.24V68h.24v1h.66v.27h-.66v1.89c0,.33.18.51.45.51a.78.78,0,0,0,.28,0l.11,0v.27l-.11,0a.78.78,0,0,1-.28,0,.68.68,0,0,1-.72-.78Z"/><path class="cls-4" d="M322.34,67.69a.21.21,0,1,1-.21.21A.21.21,0,0,1,322.34,67.69Zm-.15,1.23h.27V71.8h-.27Z"/><path class="cls-4" d="M323.75,69.19h-.57v-.27h.39a.21.21,0,0,0,.21-.24V68H324v1h.66v.27H324v1.89c0,.33.18.51.45.51a.78.78,0,0,0,.28,0l.11,0v.27l-.11,0a.78.78,0,0,1-.28,0,.68.68,0,0,1-.72-.78Z"/><path class="cls-4" d="M325.79,67.69a.21.21,0,1,1-.21.21A.21.21,0,0,1,325.79,67.69Zm-.15,1.23h.27V71.8h-.27Z"/><path class="cls-4" d="M326.75,70.36a1.44,1.44,0,1,1,1.44,1.5A1.47,1.47,0,0,1,326.75,70.36Zm2.61,0a1.17,1.17,0,1,0-1.17,1.23A1.2,1.2,0,0,0,329.36,70.36Z"/><path class="cls-4" d="M330.44,68.92h.27v.51a1.21,1.21,0,0,1,1-.57,1.17,1.17,0,0,1,1.17,1.23V71.8h-.27V70.09a.89.89,0,0,0-.9-1,1,1,0,0,0-1,1.05V71.8h-.27Z"/><path class="cls-4" d="M337.4,71.26a1.37,1.37,0,0,1-.29.3,1.35,1.35,0,0,1-.85.3,1.5,1.5,0,0,1,0-3,1.35,1.35,0,0,1,.85.3,1.18,1.18,0,0,1,.29.3l-.21.18a.92.92,0,0,0-.23-.25,1.09,1.09,0,0,0-.7-.26,1.23,1.23,0,0,0,0,2.46,1.09,1.09,0,0,0,.7-.26.92.92,0,0,0,.23-.25Z"/><path class="cls-4" d="M338.18,67.6h.27v4.2h-.27Z"/><path class="cls-4" d="M339.29,70.36a1.44,1.44,0,1,1,1.44,1.5A1.47,1.47,0,0,1,339.29,70.36Zm2.61,0a1.17,1.17,0,1,0-1.17,1.23A1.2,1.2,0,0,0,341.9,70.36Z"/><path class="cls-4" d="M342.92,71.17a2.18,2.18,0,0,0,.22.21.93.93,0,0,0,.59.21c.48,0,.75-.27.75-.6,0-.72-1.65-.39-1.65-1.35a.87.87,0,0,1,.93-.78,1.3,1.3,0,0,1,.67.21,1.15,1.15,0,0,1,.23.21l-.21.21a1,1,0,0,0-.17-.18.87.87,0,0,0-.52-.18c-.43,0-.66.24-.66.51,0,.69,1.65.35,1.65,1.35a.92.92,0,0,1-1,.87,1.32,1.32,0,0,1-.76-.24,1.51,1.51,0,0,1-.26-.24Z"/><path class="cls-4" d="M347.9,71.26a1.37,1.37,0,0,1-.29.3,1.35,1.35,0,0,1-.85.3,1.47,1.47,0,0,1-1.41-1.5,1.43,1.43,0,0,1,1.38-1.5,1.38,1.38,0,0,1,1.32,1.5v.12h-2.43a1.18,1.18,0,0,0,1.14,1.11,1.09,1.09,0,0,0,.7-.26.92.92,0,0,0,.23-.25Zm-.12-1.05a1.06,1.06,0,0,0-1-1.08,1.16,1.16,0,0,0-1.11,1.08Z"/><path class="cls-4" d="M348.8,71.17a2.18,2.18,0,0,0,.22.21.91.91,0,0,0,.59.21c.48,0,.75-.27.75-.6,0-.72-1.65-.39-1.65-1.35a.87.87,0,0,1,.93-.78,1.3,1.3,0,0,1,.67.21,1.15,1.15,0,0,1,.23.21l-.21.21a1,1,0,0,0-.17-.18.87.87,0,0,0-.52-.18c-.43,0-.66.24-.66.51,0,.69,1.65.35,1.65,1.35a.92.92,0,0,1-1,.87,1.39,1.39,0,0,1-1-.48Z"/><path class="cls-4" d="M355.07,71.5v.3h-2.64c0-1.66,2.34-1.8,2.34-3.06a.92.92,0,0,0-1-.9.94.94,0,0,0-.81.38,1.06,1.06,0,0,0-.18.37l-.27-.12a1.33,1.33,0,0,1,.23-.46,1.25,1.25,0,0,1,1-.47,1.23,1.23,0,0,1,1.32,1.2c0,1.35-2,1.55-2.31,2.76Z"/><path class="cls-4" d="M357.68,70.12l-.14.06a1.41,1.41,0,0,1-.4.06,1.35,1.35,0,1,1,1.38-1.35,1.59,1.59,0,0,1-.15.64,2.2,2.2,0,0,1-.15.26l-1.26,2h-.33Zm-.54-.18a1.05,1.05,0,1,0-1.08-1A1,1,0,0,0,357.14,69.94Z"/><path class="cls-4" d="M360.68,67.54h.3l-1.83,5.52h-.3Z"/><path class="cls-4" d="M361.58,71a1.72,1.72,0,0,0,.27.27,1.39,1.39,0,0,0,.81.27,1,1,0,0,0,1.11-1,1,1,0,0,0-1-1.05,1.18,1.18,0,0,0-.74.25.9.9,0,0,0-.22.26h-.24l.15-2.37h2.13v.3h-1.86l-.09,1.59a.94.94,0,0,1,.23-.16,1.25,1.25,0,0,1,.64-.17,1.35,1.35,0,1,1-.06,2.7,1.51,1.51,0,0,1-1-.32,1.35,1.35,0,0,1-.32-.31Z"/><path class="cls-4" d="M366.23,67.54h.3l-1.83,5.52h-.3Z"/><path class="cls-4" d="M369.47,71.5v.3h-2.64c0-1.66,2.34-1.8,2.34-3.06a.92.92,0,0,0-1-.9.94.94,0,0,0-.81.38,1.06,1.06,0,0,0-.18.37l-.27-.12a1.33,1.33,0,0,1,.23-.46,1.25,1.25,0,0,1,1-.47,1.23,1.23,0,0,1,1.32,1.2c0,1.35-2.05,1.55-2.31,2.76Z"/><path class="cls-4" d="M372.77,71.5v.3h-2.64c0-1.66,2.34-1.8,2.34-3.06a.92.92,0,0,0-1-.9.94.94,0,0,0-.81.38,1.06,1.06,0,0,0-.18.37l-.27-.12a1.33,1.33,0,0,1,.23-.46,1.25,1.25,0,0,1,1-.47,1.23,1.23,0,0,1,1.32,1.2c0,1.35-2,1.55-2.31,2.76Z"/><path class="cls-4" d="M373.73,71.41a.21.21,0,1,1-.21.21A.21.21,0,0,1,373.73,71.41Z"/><path class="cls-4" d="M166.3,74.8h.33l1.47,3.75,1.47-3.75h.33L168.25,79H168Z"/><path class="cls-4" d="M170.62,74.89a.21.21,0,1,1-.21.21A.21.21,0,0,1,170.62,74.89Zm-.15,1.23h.27V79h-.27Z"/><path class="cls-4" d="M171.73,78.37a2.18,2.18,0,0,0,.22.21.93.93,0,0,0,.59.21c.48,0,.75-.27.75-.6,0-.72-1.65-.39-1.65-1.35a.88.88,0,0,1,.93-.78,1.3,1.3,0,0,1,.67.21,1.15,1.15,0,0,1,.23.21l-.21.21a1,1,0,0,0-.17-.18.87.87,0,0,0-.52-.18c-.43,0-.66.24-.66.51,0,.69,1.65.35,1.65,1.35a.92.92,0,0,1-1,.87,1.39,1.39,0,0,1-1-.48Z"/><path class="cls-4" d="M174.55,74.89a.21.21,0,1,1-.21.21A.21.21,0,0,1,174.55,74.89Zm-.15,1.23h.27V79h-.27Z"/><path class="cls-4" d="M176,76.39h-.57v-.27h.39a.21.21,0,0,0,.21-.24v-.72h.24v1h.66v.27h-.66v1.89c0,.33.18.51.45.51a.82.82,0,0,0,.28-.05l.11,0V79L177,79a.82.82,0,0,1-.28,0c-.46,0-.72-.27-.72-.78Z"/><path class="cls-4" d="M178.51,76.12h.3l.81,2.43.78-2.43h.24l.78,2.46.81-2.46h.3l-1,2.88h-.27l-.78-2.43L179.74,79h-.27Z"/><path class="cls-4" d="M182.77,76.12h.3l.81,2.43.78-2.43h.24l.78,2.46.81-2.46h.3l-1,2.88h-.27l-.78-2.43L184,79h-.27Z"/><path class="cls-4" d="M187,76.12h.3l.81,2.43.78-2.43h.24l.78,2.46.81-2.46h.3l-1,2.88h-.27L189,76.57,188.26,79H188Z"/><path class="cls-4" d="M191.53,78.61a.21.21,0,1,1-.21.21A.21.21,0,0,1,191.53,78.61Z"/><path class="cls-4" d="M192.79,74.8H194a2.1,2.1,0,1,1,0,4.2h-1.23ZM194,78.7a1.8,1.8,0,1,0,0-3.6h-.93v3.6Z"/><path class="cls-4" d="M198.85,78.49a1.1,1.1,0,0,1-.25.28,1.14,1.14,0,0,1-.8.29.88.88,0,0,1-1-.81c0-.46.32-.78.87-.87l1.14-.18a.78.78,0,0,0-.81-.87,1.06,1.06,0,0,0-.62.21.88.88,0,0,0-.22.21l-.18-.18a.93.93,0,0,1,.27-.25,1.22,1.22,0,0,1,.75-.26,1.06,1.06,0,0,1,1.08,1.14V79h-.27Zm0-1-1.08.18c-.46.07-.66.29-.66.6a.62.62,0,0,0,.69.54,1,1,0,0,0,1-1.05Z"/><path class="cls-4" d="M200.05,78.37a2.18,2.18,0,0,0,.22.21.91.91,0,0,0,.59.21c.48,0,.75-.27.75-.6,0-.72-1.65-.39-1.65-1.35a.87.87,0,0,1,.93-.78,1.3,1.3,0,0,1,.67.21,1.15,1.15,0,0,1,.23.21l-.21.21a1,1,0,0,0-.17-.18.87.87,0,0,0-.52-.18c-.43,0-.66.24-.66.51,0,.69,1.65.35,1.65,1.35a.92.92,0,0,1-1,.87,1.39,1.39,0,0,1-1-.48Z"/><path class="cls-4" d="M202.72,74.8H203v1.83a1.23,1.23,0,0,1,.23-.28,1.11,1.11,0,0,1,.76-.29,1.17,1.17,0,0,1,1.17,1.23V79h-.27V77.29a.89.89,0,0,0-.9-1,1,1,0,0,0-1,1V79h-.27Z"/><path class="cls-4" d="M208.57,78.7V79h-2.64c0-1.66,2.34-1.8,2.34-3.06a.92.92,0,0,0-1-.9.94.94,0,0,0-.81.38,1.06,1.06,0,0,0-.18.37l-.27-.12a1.33,1.33,0,0,1,.23-.46,1.25,1.25,0,0,1,1-.47,1.23,1.23,0,0,1,1.32,1.2c0,1.35-2,1.55-2.31,2.76Z"/><path class="cls-4" d="M209.59,74.8h.3v3.9h2.25V79h-2.55Z"/><path class="cls-4" d="M214.12,74.8h.3l1.74,4.2h-.33l-.51-1.23h-2.1L212.71,79h-.33Zm1.08,2.67-.93-2.25-.93,2.25Z"/><path class="cls-4" d="M216.88,78.61a.21.21,0,1,1-.21.21A.21.21,0,0,1,216.88,78.61Z"/><path class="cls-4" d="M220.33,78.46a1.37,1.37,0,0,1-.29.3,1.35,1.35,0,0,1-.85.3,1.5,1.5,0,0,1,0-3,1.35,1.35,0,0,1,.85.3,1.18,1.18,0,0,1,.29.3l-.21.18a1.13,1.13,0,0,0-.23-.26,1.15,1.15,0,0,0-.7-.25,1.23,1.23,0,0,0,0,2.46,1.09,1.09,0,0,0,.7-.26.92.92,0,0,0,.23-.25Z"/><path class="cls-4" d="M220.81,77.56a1.44,1.44,0,1,1,1.44,1.5A1.47,1.47,0,0,1,220.81,77.56Zm2.61,0a1.17,1.17,0,1,0-1.17,1.23A1.2,1.2,0,0,0,223.42,77.56Z"/><path class="cls-4" d="M224.5,76.12h.27v.48a1.05,1.05,0,0,1,.2-.27.91.91,0,0,1,.67-.27,1,1,0,0,1,.74.33,1.46,1.46,0,0,1,.22.33,1.15,1.15,0,0,1,.21-.33,1.06,1.06,0,0,1,.78-.33,1.12,1.12,0,0,1,1.08,1.23V79h-.27V77.29a.85.85,0,0,0-.81-1c-.48,0-.87.39-.87,1V79h-.27V77.29a.85.85,0,0,0-.81-1c-.48,0-.87.39-.87,1V79h-.27Z"/><path class="cls-4" d="M231,76.39h-.48v-.27H231v-.6c0-.51.26-.78.72-.78a.82.82,0,0,1,.28.05l.11,0v.27l-.11,0a.82.82,0,0,0-.28,0c-.27,0-.45.17-.45.51v.6H232v.27h-.72V79H231Z"/><path class="cls-4" d="M232.48,77.56a1.44,1.44,0,1,1,1.44,1.5A1.47,1.47,0,0,1,232.48,77.56Zm2.61,0a1.17,1.17,0,1,0-1.17,1.23A1.2,1.2,0,0,0,235.09,77.56Z"/><path class="cls-4" d="M236.17,76.12h.27v.51a1.05,1.05,0,0,1,.24-.28,1.12,1.12,0,0,1,.78-.29h.12v.27h-.12a1,1,0,0,0-1,1V79h-.27Z"/><path class="cls-4" d="M240.07,75.1h-1.38v-.3h3.06v.3h-1.38V79h-.3Z"/><path class="cls-4" d="M244.57,78.13a1.91,1.91,0,0,0,.15-.32,2.6,2.6,0,0,0,.15-.85h.27a2.59,2.59,0,0,1-.2,1,2.25,2.25,0,0,1-.19.38,1.73,1.73,0,0,0,.17.21.54.54,0,0,0,.37.21l.12,0h.06V79h-.06l-.12,0a.79.79,0,0,1-.52-.24,2.31,2.31,0,0,1-.2-.24,1.26,1.26,0,0,1-.31.25,1.54,1.54,0,0,1-.86.26,1,1,0,0,1-1.11-1,1.32,1.32,0,0,1,.42-.9,2.27,2.27,0,0,1,.42-.33,2.3,2.3,0,0,1-.33-.38,1.39,1.39,0,0,1-.33-.79.89.89,0,0,1,.93-.9.84.84,0,0,1,.9.87,1.3,1.3,0,0,1-.41.85,2.71,2.71,0,0,1-.4.35ZM243.28,77a1.55,1.55,0,0,0-.36.31,1.09,1.09,0,0,0-.36.74c0,.45.29.75.84.75a1.25,1.25,0,0,0,.74-.23,1.07,1.07,0,0,0,.25-.22Zm.4-.67a1.15,1.15,0,0,0,.35-.71.58.58,0,0,0-.63-.6.62.62,0,0,0-.66.63,1.2,1.2,0,0,0,.3.66,3,3,0,0,0,.3.33A3.39,3.39,0,0,0,243.68,76.32Z"/><path class="cls-4" d="M249.76,78.16a2.73,2.73,0,0,1-.45.45,2,2,0,0,1-1.29.45,2.16,2.16,0,0,1,0-4.32,2.08,2.08,0,0,1,1.28.45,2.29,2.29,0,0,1,.43.45l-.21.18a1.71,1.71,0,0,0-.37-.39A1.85,1.85,0,0,0,248,75a1.86,1.86,0,0,0,0,3.72,1.86,1.86,0,0,0,1.14-.39,2.06,2.06,0,0,0,.39-.39Z"/><path class="cls-4" d="M250.48,78.37a1.47,1.47,0,0,0,.22.21.91.91,0,0,0,.59.21c.48,0,.75-.27.75-.6,0-.72-1.65-.39-1.65-1.35a.87.87,0,0,1,.93-.78,1.23,1.23,0,0,1,.66.21,1.21,1.21,0,0,1,.24.21l-.21.21a.77.77,0,0,0-.18-.18.82.82,0,0,0-.51-.18c-.43,0-.66.24-.66.51,0,.69,1.65.35,1.65,1.35a.92.92,0,0,1-1,.87,1.32,1.32,0,0,1-.76-.24,1.51,1.51,0,0,1-.26-.24Z"/><path class="cls-4" d="M253.21,78.61a.21.21,0,1,1-.21.21A.21.21,0,0,1,253.21,78.61Z"/><path class="cls-4" d="M255.67,74.8h.24l2.79,3.63V74.8h.3V79h-.24L256,75.37V79h-.3Z"/><path class="cls-4" d="M260.14,78.22a1.44,1.44,0,0,0,.28.27,1.54,1.54,0,0,0,.89.27c.73,0,1.08-.36,1.08-.87,0-1.14-2.34-.6-2.34-2a1.19,1.19,0,0,1,1.32-1.11,1.65,1.65,0,0,1,.89.26,1.26,1.26,0,0,1,.31.25l-.21.21a1,1,0,0,0-.25-.21,1.36,1.36,0,0,0-.74-.21c-.66,0-1,.36-1,.81,0,1.14,2.34.6,2.34,2a1.22,1.22,0,0,1-1.38,1.17,1.74,1.74,0,0,1-1-.32,1.67,1.67,0,0,1-.34-.31Z"/><path class="cls-4" d="M263.05,74.8h.33l1.17,3.72,1.2-3.72h.3l1.2,3.72,1.17-3.72h.33L267.4,79h-.3l-1.2-3.72L264.7,79h-.3Z"/><path class="cls-4" d="M270.58,74.8h1.5a1.29,1.29,0,1,1,0,2.58h-1.2V79h-.3Zm1.5,2.28a1,1,0,1,0,0-2h-1.2v2Z"/><path class="cls-4" d="M276.43,78.46a1.37,1.37,0,0,1-.29.3,1.35,1.35,0,0,1-.85.3,1.47,1.47,0,0,1-1.41-1.5,1.43,1.43,0,0,1,1.38-1.5,1.38,1.38,0,0,1,1.32,1.5v.12h-2.43a1.18,1.18,0,0,0,1.14,1.11,1.09,1.09,0,0,0,.7-.26.92.92,0,0,0,.23-.25Zm-.12-1a1.06,1.06,0,0,0-1.05-1.08,1.17,1.17,0,0,0-1.11,1.08Z"/><path class="cls-4" d="M277.39,76.12h.27v.51a1.05,1.05,0,0,1,.24-.28,1.12,1.12,0,0,1,.78-.29h.12v.27h-.12a1,1,0,0,0-1,1V79h-.27Z"/><path class="cls-4" d="M279.4,76.12h.27v.48a1.05,1.05,0,0,1,.2-.27.91.91,0,0,1,.67-.27,1,1,0,0,1,.74.33,1.19,1.19,0,0,1,.22.33,1.15,1.15,0,0,1,.21-.33,1.07,1.07,0,0,1,.78-.33,1.12,1.12,0,0,1,1.08,1.23V79h-.27V77.29a.85.85,0,0,0-.81-1c-.48,0-.87.39-.87,1V79h-.27V77.29a.85.85,0,0,0-.81-1c-.48,0-.87.39-.87,1V79h-.27Z"/><path class="cls-4" d="M284.74,74.89a.21.21,0,1,1-.21.21A.21.21,0,0,1,284.74,74.89Zm-.15,1.23h.27V79h-.27Z"/><path class="cls-4" d="M286.15,76.39h-.57v-.27H286a.21.21,0,0,0,.21-.24v-.72h.24v1h.66v.27h-.66v1.89c0,.33.18.51.45.51a.82.82,0,0,0,.28-.05l.11,0V79l-.11,0a.82.82,0,0,1-.28,0c-.46,0-.72-.27-.72-.78Z"/><path class="cls-4" d="M289.36,74.8h.24l2.79,3.63V74.8h.3V79h-.24l-2.79-3.63V79h-.3Z"/><path class="cls-4" d="M293.65,77.56a1.44,1.44,0,1,1,1.44,1.5A1.47,1.47,0,0,1,293.65,77.56Zm2.61,0a1.17,1.17,0,1,0-1.17,1.23A1.2,1.2,0,0,0,296.26,77.56Z"/><path class="cls-4" d="M297.43,78.61a.21.21,0,1,1-.21.21A.21.21,0,0,1,297.43,78.61Z"/><path class="cls-4" d="M300.55,75.1h-1.38v-.3h3.06v.3h-1.38V79h-.3Z"/><path class="cls-4" d="M303,74.8h1.5a1.29,1.29,0,1,1,0,2.58h-1.2V79H303Zm1.5,2.28a1,1,0,1,0,0-2h-1.2v2Z"/><path class="cls-4" d="M308,74.74h.3l-1.83,5.51h-.3Z"/><path class="cls-4" d="M308.71,76.9c0-1.35.8-2.16,1.62-2.16s1.62.81,1.62,2.16-.81,2.16-1.62,2.16S308.71,78.25,308.71,76.9Zm2.94,0c0-1.2-.67-1.86-1.32-1.86S309,75.7,309,76.9s.67,1.86,1.32,1.86S311.65,78.1,311.65,76.9Z"/><path class="cls-4" d="M313.39,75.34a1,1,0,0,1-.19.17,1.12,1.12,0,0,1-.62.16v-.24a.9.9,0,0,0,.65-.31,2,2,0,0,0,.22-.32h.24V79h-.3Z"/><path class="cls-4" d="M316.75,75.1h-2.28v-.3h2.61v.3L315.16,79h-.33Z"/><path class="cls-4" d="M318.85,74.8h.33l-1.05,1.68a.59.59,0,0,1,.14-.06,1.35,1.35,0,1,1-1,1.29,1.52,1.52,0,0,1,.15-.65,1.5,1.5,0,0,1,.15-.25Zm-.18,4a1.05,1.05,0,1,0-1.08-1.05A1,1,0,0,0,318.67,78.76Z"/><path class="cls-4" d="M322.6,75.1h-2.28v-.3h2.61v.3L321,79h-.33Z"/><path class="cls-4" d="M323.17,78.61a.21.21,0,1,1-.21.21A.21.21,0,0,1,323.17,78.61Z"/><path class="cls-4" d="M327.85,74.8h.3l1.74,4.2h-.33l-.51-1.23H327L326.44,79h-.33Zm1.08,2.67L328,75.22l-.93,2.25Z"/><path class="cls-4" d="M334.12,78.16a2.73,2.73,0,0,1-.45.45,2,2,0,0,1-1.29.45,2.16,2.16,0,0,1,0-4.32,2.08,2.08,0,0,1,1.28.45,2.29,2.29,0,0,1,.43.45l-.21.18a1.76,1.76,0,0,0-.38-.39,1.8,1.8,0,0,0-1.12-.39,1.86,1.86,0,0,0,0,3.72,1.88,1.88,0,0,0,1.14-.39,2.06,2.06,0,0,0,.39-.39Z"/><path class="cls-4" d="M335.89,75.1h-1.38v-.3h3.06v.3h-1.38V79h-.3Z"/><path class="cls-4" d="M339.37,74.8h1.5a1.29,1.29,0,1,1,0,2.58h-1.2V79h-.3Zm1.5,2.28a1,1,0,1,0,0-2h-1.2v2Z"/><path class="cls-4" d="M345.22,78.46a1.64,1.64,0,0,1-.29.3,1.35,1.35,0,0,1-.85.3,1.47,1.47,0,0,1-1.41-1.5,1.43,1.43,0,0,1,1.38-1.5,1.38,1.38,0,0,1,1.32,1.5v.12h-2.43a1.17,1.17,0,0,0,1.14,1.11,1.09,1.09,0,0,0,.7-.26.92.92,0,0,0,.23-.25Zm-.12-1a1.07,1.07,0,0,0-1.05-1.08,1.16,1.16,0,0,0-1.11,1.08Z"/><path class="cls-4" d="M346.18,76.12h.27v.51a1.05,1.05,0,0,1,.24-.28,1.12,1.12,0,0,1,.78-.29h.12v.27h-.12a1,1,0,0,0-1,1V79h-.27Z"/><path class="cls-4" d="M348.19,76.12h.27v.48a1.05,1.05,0,0,1,.2-.27.89.89,0,0,1,.67-.27,1,1,0,0,1,.73.33,1.5,1.5,0,0,1,.23.33,1.15,1.15,0,0,1,.21-.33,1,1,0,0,1,.78-.33,1.12,1.12,0,0,1,1.08,1.23V79h-.27V77.29a.85.85,0,0,0-.81-1c-.48,0-.87.39-.87,1V79h-.27V77.29a.85.85,0,0,0-.81-1c-.48,0-.87.39-.87,1V79h-.27Z"/><path class="cls-4" d="M353.53,74.89a.21.21,0,1,1-.21.21A.21.21,0,0,1,353.53,74.89Zm-.15,1.23h.27V79h-.27Z"/><path class="cls-4" d="M354.94,76.39h-.57v-.27h.39a.21.21,0,0,0,.21-.24v-.72h.24v1h.66v.27h-.66v1.89c0,.33.18.51.45.51a.72.72,0,0,0,.27-.05l.12,0V79l-.12,0a.72.72,0,0,1-.27,0c-.46,0-.72-.27-.72-.78Z"/><path class="cls-4" d="M358.15,74.8h.24l2.79,3.63V74.8h.3V79h-.24l-2.79-3.63V79h-.3Z"/><path class="cls-4" d="M362.44,77.56a1.44,1.44,0,1,1,1.44,1.5A1.47,1.47,0,0,1,362.44,77.56Zm2.61,0a1.17,1.17,0,1,0-1.17,1.23A1.2,1.2,0,0,0,365.05,77.56Z"/><path class="cls-4" d="M366.22,78.61a.21.21,0,1,1-.21.21A.21.21,0,0,1,366.22,78.61Z"/><path class="cls-4" d="M369.34,75.1H368v-.3H371v.3h-1.38V79h-.3Z"/><path class="cls-4" d="M371.8,74.8h1.5a1.29,1.29,0,1,1,0,2.58h-1.2V79h-.3Zm1.5,2.28a1,1,0,1,0,0-2h-1.2v2Z"/><path class="cls-4" d="M378.94,78.7V79H376.3c0-1.66,2.34-1.8,2.34-3.06a.92.92,0,0,0-1-.9.94.94,0,0,0-.81.38.8.8,0,0,0-.18.37l-.27-.12a1.17,1.17,0,0,1,.23-.46,1.22,1.22,0,0,1,1-.47,1.23,1.23,0,0,1,1.32,1.2c0,1.35-2.05,1.55-2.31,2.76Z"/><path class="cls-4" d="M382.24,78.7V79H379.6c0-1.66,2.34-1.8,2.34-3.06a.92.92,0,0,0-1-.9.94.94,0,0,0-.81.38.8.8,0,0,0-.18.37l-.27-.12a1.17,1.17,0,0,1,.23-.46,1.22,1.22,0,0,1,1-.47,1.23,1.23,0,0,1,1.32,1.2c0,1.35-2.05,1.55-2.31,2.76Z"/><path class="cls-4" d="M384.43,74.74h.3l-1.83,5.51h-.3Z"/><path class="cls-4" d="M385.12,76.9c0-1.35.8-2.16,1.62-2.16s1.62.81,1.62,2.16-.81,2.16-1.62,2.16S385.12,78.25,385.12,76.9Zm2.93,0c0-1.2-.66-1.86-1.31-1.86s-1.32.66-1.32,1.86.66,1.86,1.32,1.86S388.05,78.1,388.05,76.9Z"/><path class="cls-4" d="M389.14,76.9c0-1.35.8-2.16,1.62-2.16s1.62.81,1.62,2.16-.81,2.16-1.62,2.16S389.14,78.25,389.14,76.9Zm2.93,0c0-1.2-.66-1.86-1.31-1.86s-1.32.66-1.32,1.86.66,1.86,1.32,1.86S392.07,78.1,392.07,76.9Z"/><path class="cls-4" d="M393.37,78.22a1.33,1.33,0,0,0,.26.27,1.42,1.42,0,0,0,.82.27,1,1,0,0,0,1.1-1.05,1,1,0,0,0-1-1,1.1,1.1,0,0,0-.74.26.92.92,0,0,0-.23.25h-.23l.15-2.37h2.12v.3h-1.85l-.1,1.59a1,1,0,0,1,.24-.16,1.22,1.22,0,0,1,.64-.17,1.35,1.35,0,1,1-.06,2.7,1.57,1.57,0,0,1-1-.32,1.3,1.3,0,0,1-.31-.31Z"/><path class="cls-4" d="M396.79,78.22a1.33,1.33,0,0,0,.26.27,1.42,1.42,0,0,0,.82.27,1,1,0,0,0,1.1-1.05,1,1,0,0,0-1-1,1.1,1.1,0,0,0-.74.26.92.92,0,0,0-.23.25h-.23l.15-2.37H399v.3h-1.85l-.1,1.59a1,1,0,0,1,.24-.16,1.22,1.22,0,0,1,.64-.17,1.35,1.35,0,1,1-.06,2.7,1.57,1.57,0,0,1-1-.32,1.3,1.3,0,0,1-.31-.31Z"/><path class="cls-4" d="M401.49,74.8h.33l-1,1.68a.59.59,0,0,1,.14-.06,1.33,1.33,0,0,1,.39-.06,1.35,1.35,0,1,1-1.37,1.35,1.52,1.52,0,0,1,.15-.65,1,1,0,0,1,.15-.25Zm-.18,4a1.05,1.05,0,1,0-1.07-1.05A1,1,0,0,0,401.31,78.76Z"/><path class="cls-4" d="M403.62,78.61a.21.21,0,1,1,0,.42.21.21,0,0,1,0-.42Z"/><path class="cls-4" d="M405.91,78.22a1,1,0,0,0,.28.27,1.54,1.54,0,0,0,.89.27c.72,0,1.07-.36,1.07-.87,0-1.14-2.33-.6-2.33-2a1.18,1.18,0,0,1,1.31-1.11,1.66,1.66,0,0,1,.9.26,1.05,1.05,0,0,1,.3.25l-.21.21a1,1,0,0,0-.24-.21,1.43,1.43,0,0,0-.75-.21c-.65,0-1,.36-1,.81,0,1.14,2.34.6,2.34,2a1.22,1.22,0,0,1-1.38,1.17,1.69,1.69,0,0,1-1-.32,1.45,1.45,0,0,1-.34-.31Z"/><path class="cls-4" d="M410.65,74.8h.3l1.73,4.2h-.32l-.51-1.23h-2.1L409.24,79h-.33Zm1.07,2.67-.93-2.25-.92,2.25Z"/><path class="cls-4" d="M414.49,74.8h.3v3.9H417V79h-2.55Z"/><path class="cls-4" d="M417.85,74.89a.21.21,0,1,1-.21.21A.21.21,0,0,1,417.85,74.89Zm-.15,1.23H418V79h-.27Z"/><path class="cls-4" d="M421.36,78.46a1.64,1.64,0,0,1-.29.3,1.38,1.38,0,0,1-.86.3,1.5,1.5,0,0,1,0-3,1.44,1.44,0,0,1,1.15.6l-.22.18a1.09,1.09,0,0,0-.22-.26,1.15,1.15,0,0,0-.71-.25,1.23,1.23,0,0,0,0,2.46,1.1,1.1,0,0,0,.71-.26.88.88,0,0,0,.22-.25Z"/><path class="cls-4" d="M424.38,78.46a1.32,1.32,0,0,1-.28.3,1.4,1.4,0,0,1-.86.3,1.47,1.47,0,0,1-1.4-1.5,1.42,1.42,0,0,1,1.37-1.5,1.38,1.38,0,0,1,1.32,1.5v.12h-2.42a1.16,1.16,0,0,0,1.13,1.11,1.1,1.1,0,0,0,.71-.26.88.88,0,0,0,.22-.25Zm-.12-1a1.06,1.06,0,0,0-1.05-1.08,1.15,1.15,0,0,0-1.1,1.08Z"/><path class="cls-4" d="M425.35,76.12h.27v.51a1,1,0,0,1,.23-.28,1.06,1.06,0,0,1,.75-.29,1.17,1.17,0,0,1,1.17,1.23V79h-.27V77.29a.89.89,0,0,0-.9-1,1,1,0,0,0-1,1V79h-.27Z"/><path class="cls-4" d="M431.1,78.46a1.32,1.32,0,0,1-.28.3,1.4,1.4,0,0,1-.86.3,1.5,1.5,0,0,1,0-3,1.4,1.4,0,0,1,.86.3,1.14,1.14,0,0,1,.28.3l-.21.18a1.09,1.09,0,0,0-.22-.26,1.18,1.18,0,0,0-.71-.25,1.23,1.23,0,0,0,0,2.46,1.12,1.12,0,0,0,.71-.26.88.88,0,0,0,.22-.25Z"/><path class="cls-4" d="M434.13,78.46a1.32,1.32,0,0,1-.28.3,1.4,1.4,0,0,1-.86.3,1.47,1.47,0,0,1-1.4-1.5,1.42,1.42,0,0,1,1.37-1.5,1.38,1.38,0,0,1,1.32,1.5v.12h-2.42A1.16,1.16,0,0,0,433,78.79a1.1,1.1,0,0,0,.71-.26.88.88,0,0,0,.22-.25Zm-.12-1A1.06,1.06,0,0,0,433,76.33a1.15,1.15,0,0,0-1.1,1.08Z"/><path class="cls-4" d="M436.45,74.8h.24l2.78,3.63V74.8h.3V79h-.24l-2.78-3.63V79h-.3Z"/><path class="cls-4" d="M440.74,77.56a1.44,1.44,0,1,1,1.44,1.5A1.47,1.47,0,0,1,440.74,77.56Zm2.6,0a1.17,1.17,0,1,0-1.16,1.23A1.2,1.2,0,0,0,443.34,77.56Z"/><path class="cls-4" d="M444.52,78.61a.21.21,0,0,1,0,.42.21.21,0,1,1,0-.42Z"/><path class="cls-4" d="M447.63,75.1h-1.37v-.3h3.05v.3h-1.37V79h-.31Z"/><path class="cls-4" d="M452.38,78.7V79h-2.64c0-1.66,2.33-1.8,2.33-3.06a.92.92,0,0,0-1-.9.93.93,0,0,0-.8.38.8.8,0,0,0-.18.37l-.28-.12a1.19,1.19,0,0,1,.24-.46,1.21,1.21,0,0,1,1-.47,1.24,1.24,0,0,1,1.33,1.2c0,1.35-2.05,1.55-2.31,2.76Z"/><path class="cls-4" d="M455.67,78.7V79H453c0-1.66,2.34-1.8,2.34-3.06a.92.92,0,0,0-1-.9,1,1,0,0,0-.82.38.9.9,0,0,0-.17.37l-.27-.12a1.05,1.05,0,0,1,.23-.46,1.33,1.33,0,0,1,2.34.73c0,1.35-2,1.55-2.3,2.76Z"/><path class="cls-4" d="M457.87,74.74h.29l-1.82,5.51H456Z"/><path class="cls-4" d="M458.29,77.68l2.09-2.88h.36v2.94h.54V78h-.54v1h-.3V78h-2.15Zm2.15.06V75.19l-1.85,2.55Z"/><path class="cls-4" d="M461.79,78.22a1.44,1.44,0,0,0,.28.27,1.41,1.41,0,0,0,.83.27.91.91,0,1,0,0-1.8h-.38v-.3h.38a.82.82,0,1,0,0-1.62,1.27,1.27,0,0,0-.73.24,1.14,1.14,0,0,0-.25.24l-.21-.24A1.31,1.31,0,0,1,462,75a1.59,1.59,0,0,1,.89-.27,1.16,1.16,0,0,1,1.23,1.11.9.9,0,0,1-.34.74,1.28,1.28,0,0,1-.34.19,1.47,1.47,0,0,1,.41.22,1.05,1.05,0,0,1,.42.86,1.29,1.29,0,0,1-1.38,1.2,1.55,1.55,0,0,1-1-.32,1.35,1.35,0,0,1-.32-.31Z"/><path class="cls-4" d="M465.7,75.34a1.12,1.12,0,0,1-.2.17,1.07,1.07,0,0,1-.62.16v-.24a.86.86,0,0,0,.65-.31,1.21,1.21,0,0,0,.22-.32H466V79h-.29Z"/><path class="cls-4" d="M467.25,78.61a.21.21,0,1,1,0,.42.21.21,0,1,1,0-.42Z"/></g></svg>