<?xml version="1.0" encoding="utf-8"?>
<!-- Generator: Adobe Illustrator 16.0.0, SVG Export Plug-In . SVG Version: 6.00 Build 0)  -->
<!DOCTYPE svg PUBLIC "-//W3C//DTD SVG 1.1//EN" "http://www.w3.org/Graphics/SVG/1.1/DTD/svg11.dtd">
<svg version="1.1" id="Layer_1" xmlns="http://www.w3.org/2000/svg" xmlns:xlink="http://www.w3.org/1999/xlink" x="0px" y="0px"
	 width="159.619px" height="44.475px" viewBox="0 0 159.619 44.475" enable-background="new 0 0 159.619 44.475"
	 xml:space="preserve">
<g>
	<path fill="#FFFFFF" d="M1.118,3.004C1.03,2.631,0.79,2.521,0.417,2.521H0V0.088h1.864c1.096,0,1.688,0.264,1.93,1.271l2.127,9.274
		c0.197,0.877,0.263,1.646,0.263,1.646h0.044c0,0,0.088-0.745,0.328-1.646L9.385,0.131h2.435l2.675,10.503
		c0.241,0.899,0.307,1.646,0.307,1.646h0.044c0,0,0.066-0.767,0.264-1.646l2.148-9.274c0.219-1.009,0.811-1.271,1.908-1.271h1.885
		v2.435h-0.416c-0.395,0-0.614,0.109-0.702,0.481l-3.245,12.652h-3.311l-2.369-8.814c-0.262-0.986-0.395-1.93-0.395-1.93H10.57
		c0,0-0.132,0.921-0.417,1.93l-2.478,8.814H4.342L1.118,3.004z"/>
	<path fill="#FFFFFF" d="M27.743,4.21c3.201,0,4.955,2.347,4.955,5.307c0,0.328-0.065,1.03-0.065,1.03h-7.718
		c0.219,1.974,1.666,3.004,3.354,3.004c1.799,0,3.137-1.25,3.137-1.25l1.162,1.931c0,0-1.711,1.688-4.496,1.688
		c-3.705,0-6.008-2.675-6.008-5.854C22.063,6.622,24.388,4.21,27.743,4.21z M29.849,8.617c-0.045-1.337-0.965-2.258-2.105-2.258
		c-1.426,0-2.434,0.854-2.741,2.258H29.849z"/>
	<path fill="#FFFFFF" d="M36.451,2.938c0-0.329-0.175-0.482-0.481-0.482h-0.878V0.088h2.653c1.031,0,1.491,0.46,1.491,1.491v11.249
		c0,0.307,0.175,0.482,0.482,0.482h0.854v2.346h-2.631c-1.053,0-1.491-0.438-1.491-1.491L36.451,2.938L36.451,2.938z"/>
	<path fill="#FFFFFF" d="M55.948,4.21c3.42,0,6.139,2.435,6.139,5.854c0,3.441-2.719,5.854-6.139,5.854
		c-3.399,0-6.118-2.412-6.118-5.854C49.83,6.644,52.549,4.21,55.948,4.21z M55.948,13.551c1.819,0,3.332-1.402,3.332-3.485
		c0-2.062-1.513-3.486-3.332-3.486c-1.799,0-3.312,1.425-3.312,3.486C52.637,12.147,54.149,13.551,55.948,13.551z"/>
	<path fill="#FFFFFF" d="M65.73,6.688h-1.382V4.473h1.382V4.144C65.73,0.482,68.734,0,70.292,0c0.569,0,0.942,0.066,0.942,0.066
		v2.368c0,0-0.241-0.044-0.57-0.044c-0.789,0-2.149,0.196-2.149,1.819v0.264h2.391v2.214h-2.391v8.968H65.73V6.688z"/>
	<path fill="#FFFFFF" d="M81.347,7.324c0-0.329-0.176-0.482-0.481-0.482h-0.877V4.473h2.566c0.985,0,1.469,0.46,1.469,1.25v0.328
		c0,0.241-0.045,0.482-0.045,0.482h0.045c0.481-0.943,1.688-2.324,3.945-2.324c2.479,0,3.903,1.293,3.903,4.254v4.363
		c0,0.307,0.176,0.482,0.481,0.482h0.877v2.346h-2.652c-1.053,0-1.49-0.438-1.49-1.491v-5.13c0-1.359-0.352-2.28-1.755-2.28
		c-1.491,0-2.608,0.943-3.004,2.28c-0.153,0.46-0.22,0.965-0.22,1.491v5.131h-2.762V7.324L81.347,7.324z"/>
	<path fill="#FFFFFF" d="M96.653,7.324c0-0.329-0.174-0.482-0.481-0.482h-0.877V4.473h2.653c1.029,0,1.47,0.46,1.47,1.49v6.863
		c0,0.307,0.175,0.482,0.481,0.482h0.877v2.346h-2.652c-1.031,0-1.471-0.438-1.471-1.491V7.324z M96.786,0.088h2.412v2.565h-2.412
		V0.088z"/>
	<path fill="#FFFFFF" d="M108.806,4.21c3.2,0,4.954,2.347,4.954,5.307c0,0.328-0.065,1.03-0.065,1.03h-7.719
		c0.221,1.974,1.668,3.004,3.355,3.004c1.798,0,3.136-1.25,3.136-1.25l1.162,1.931c0,0-1.711,1.688-4.495,1.688
		c-3.705,0-6.008-2.675-6.008-5.854C103.126,6.622,105.45,4.21,108.806,4.21z M110.909,8.617c-0.044-1.337-0.965-2.258-2.104-2.258
		c-1.427,0-2.435,0.854-2.742,2.258H110.909z"/>
	<path fill="#FFFFFF" d="M117.622,6.688h-1.447V4.473h1.514V1.425h2.719v3.049h2.544v2.214h-2.544v4.517
		c0,1.842,1.447,2.105,2.215,2.105c0.307,0,0.504-0.044,0.504-0.044V15.7c0,0-0.352,0.066-0.854,0.066
		c-1.559,0-4.648-0.46-4.648-4.21V6.688H117.622z"/>
	<path fill="#FFFFFF" d="M138.741,4.21c3.421,0,6.14,2.435,6.14,5.854c0,3.441-2.719,5.854-6.14,5.854
		c-3.398,0-6.117-2.412-6.117-5.854C132.624,6.644,135.343,4.21,138.741,4.21z M138.741,13.551c1.82,0,3.333-1.402,3.333-3.485
		c0-2.062-1.513-3.486-3.333-3.486c-1.799,0-3.311,1.425-3.311,3.486C135.431,12.147,136.942,13.551,138.741,13.551z"/>
	<path fill="#FFFFFF" d="M148.524,7.324c0-0.329-0.176-0.482-0.482-0.482h-0.877V4.473h2.479c1.029,0,1.402,0.46,1.402,1.073
		c0,0.264,0,0.438,0,0.438h0.044c0,0,0.942-1.776,3.552-1.776c3.026,0,4.979,2.391,4.979,5.854c0,3.552-2.191,5.854-5.131,5.854
		c-2.215,0-3.201-1.469-3.201-1.469h-0.044c0,0,0.044,0.395,0.044,0.965v4.626h-2.764V7.324L148.524,7.324z M153.983,13.573
		c1.535,0,2.828-1.25,2.828-3.464c0-2.127-1.141-3.508-2.785-3.508c-1.446,0-2.807,1.052-2.807,3.529
		C151.222,11.862,152.142,13.573,153.983,13.573z"/>
	<path fill="#FFFFFF" d="M5.438,28.423c2.434,0,3.223,1.359,3.223,1.359h0.044c0,0-0.022-0.285-0.022-0.658V27.15
		c0-0.329-0.175-0.482-0.482-0.482H7.323V24.3h2.654c1.029,0,1.49,0.46,1.49,1.491V37.04c0,0.308,0.176,0.482,0.482,0.482h0.855
		v2.346H10.24c-1.009,0-1.382-0.482-1.382-1.14c0-0.241,0-0.417,0-0.417H8.815c0,0-0.922,1.819-3.486,1.819
		c-3.026,0-4.979-2.39-4.979-5.854C0.351,30.726,2.478,28.423,5.438,28.423z M8.749,34.256c0-1.731-0.898-3.441-2.763-3.441
		c-1.535,0-2.807,1.25-2.807,3.464c0,2.127,1.118,3.508,2.763,3.508C7.39,37.786,8.749,36.733,8.749,34.256z"/>
	<path fill="#FFFFFF" d="M20.79,28.423c3.201,0,4.956,2.347,4.956,5.307c0,0.329-0.065,1.03-0.065,1.03h-7.719
		c0.219,1.974,1.666,3.005,3.354,3.005c1.798,0,3.136-1.25,3.136-1.25l1.162,1.93c0,0-1.711,1.688-4.495,1.688
		c-3.706,0-6.008-2.675-6.008-5.854C15.111,30.835,17.436,28.423,20.79,28.423z M22.896,32.831
		c-0.044-1.337-0.965-2.258-2.105-2.258c-1.425,0-2.434,0.854-2.74,2.258H22.896z"/>
	<path fill="#FFFFFF" d="M36.847,26.735h-1.426v-2.435h7.126c2.917,0,4.956,2.039,4.956,5.065s-2.039,5.131-4.956,5.131h-2.829
		v5.372h-2.871V26.735z M42.021,32.041c1.623,0,2.544-1.052,2.544-2.675c0-1.601-0.921-2.631-2.5-2.631h-2.347v5.306H42.021z"/>
	<path fill="#FFFFFF" d="M55.992,32.853h0.351v-0.088c0-1.602-0.636-2.192-2.061-2.192c-0.505,0-1.492,0.131-1.492,0.746v0.592
		h-2.587v-1.184c0-2.083,2.938-2.303,4.101-2.303c3.728,0,4.824,1.952,4.824,4.451v4.166c0,0.308,0.175,0.482,0.482,0.482h0.877
		v2.346h-2.5c-1.031,0-1.426-0.57-1.426-1.228c0-0.285,0.022-0.482,0.022-0.482H56.54c0,0-0.855,1.974-3.377,1.974
		c-1.995,0-3.814-1.25-3.814-3.485C49.349,33.138,54.172,32.853,55.992,32.853z M53.843,37.961c1.491,0,2.544-1.579,2.544-2.938
		V34.76h-0.482c-1.447,0-3.749,0.197-3.749,1.755C52.155,37.26,52.703,37.961,53.843,37.961z"/>
	<path fill="#FFFFFF" d="M64.503,42.127c0.768,0,1.447-0.46,1.842-1.425l0.373-0.854l-3.728-8.398
		c-0.132-0.329-0.285-0.395-0.593-0.395h-0.328v-2.368h1.842c0.789,0,1.184,0.285,1.469,1.052l2.193,5.591
		c0.219,0.57,0.395,1.491,0.395,1.491h0.043c0,0,0.176-0.921,0.373-1.491l1.908-5.591c0.264-0.767,0.724-1.052,1.491-1.052h1.886
		v2.368H73.34c-0.329,0-0.505,0.064-0.636,0.395l-4.013,10.108c-0.79,2.017-2.368,2.916-4.034,2.916
		c-1.755,0-2.829-1.141-2.829-1.141l1.074-1.973C62.902,41.36,63.582,42.127,64.503,42.127z"/>
	<path fill="#FFFFFF" d="M76.873,31.537c0-0.329-0.176-0.481-0.482-0.481h-0.877v-2.368h2.543c0.986,0,1.491,0.417,1.491,1.358
		v0.658c0,0.417-0.044,0.702-0.044,0.702h0.044c0.504-1.601,1.842-2.873,3.553-2.873c0.24,0,0.504,0.044,0.504,0.044v2.741
		c0,0-0.285-0.044-0.68-0.044c-1.185,0-2.544,0.68-3.048,2.346c-0.153,0.548-0.241,1.162-0.241,1.82v4.429h-2.763V31.537z"/>
	<path fill="#FFFFFF" d="M91.61,28.423c3.42,0,6.14,2.435,6.14,5.854c0,3.441-2.72,5.854-6.14,5.854
		c-3.398,0-6.117-2.412-6.117-5.854C85.493,30.857,88.212,28.423,91.61,28.423z M91.61,37.764c1.82,0,3.332-1.403,3.332-3.486
		c0-2.062-1.512-3.486-3.332-3.486c-1.799,0-3.312,1.425-3.312,3.486C88.3,36.361,89.813,37.764,91.61,37.764z"/>
	<path fill="#FFFFFF" d="M101.151,27.151c0-0.329-0.176-0.482-0.482-0.482h-0.877v-2.368h2.652c1.031,0,1.492,0.46,1.492,1.491
		v11.249c0,0.308,0.174,0.482,0.481,0.482h0.854v2.346h-2.631c-1.054,0-1.492-0.438-1.492-1.491V27.151H101.151z"/>
	<path fill="#FFFFFF" d="M108.651,27.151c0-0.329-0.174-0.482-0.481-0.482h-0.877v-2.368h2.653c1.029,0,1.49,0.46,1.49,1.491v11.249
		c0,0.308,0.176,0.482,0.482,0.482h0.854v2.346h-2.631c-1.053,0-1.49-0.438-1.49-1.491V27.151L108.651,27.151z"/>
	<path fill="#FFFFFF" d="M117.578,34.322c0-3.18,3.616-3.684,3.616-5.942c0-1.029-0.92-1.819-2.125-1.819
		c-1.25,0-2.348,0.921-2.348,0.921l-1.535-1.908c0,0,1.515-1.579,4.123-1.579c2.479,0,4.779,1.535,4.779,4.122
		c0,3.618-3.814,4.035-3.814,6.403v0.854h-2.696V34.322z M117.578,37.282h2.696v2.587h-2.696V37.282z"/>
</g>
</svg>
