<svg id="Layer_1" data-name="Layer 1" xmlns="http://www.w3.org/2000/svg" xmlns:xlink="http://www.w3.org/1999/xlink" viewBox="0 0 300 600"><defs><style>.cls-1,.cls-4{fill:none;}.cls-2{clip-path:url(#clip-path);}.cls-3{fill:#009970;}.cls-4{stroke:#b2b2b2;stroke-width:0.5px;}</style><clipPath id="clip-path"><rect class="cls-1" width="300" height="600"/></clipPath></defs><g class="cls-2"><path class="cls-3" d="M24.73,66.3V38.67h9.14c5.22,0,8.73,2.66,8.73,7.52,0,4.36-2.79,6.92-7.11,7.42L44,66.3H42.37l-8.5-12.6H26.13V66.3Zm1.4-13.9h7.65c4.63,0,7.42-2.25,7.42-6.21S38.41,40,33.78,40H26.13Z"/><path class="cls-3" d="M66.13,38.67V40H50.75V51.36H64.69v1.35H50.75V65H66.13V66.3H49.35V38.67Z"/><path class="cls-3" d="M85.08,59.77,73.92,41.55V66.3H72.57V38.67h1.17L85.17,57.39,96.64,38.67h1V66.3H96.33V41.55L85.21,59.77Z"/><path class="cls-3" d="M121.93,38.67V40H106.54V51.36h13.95v1.35H106.54V65h15.39V66.3H105.15V38.67Z"/><path class="cls-3" d="M140.88,59.77,129.72,41.55V66.3h-1.35V38.67h1.17L141,57.39l11.47-18.72h1V66.3h-1.35V41.55L141,59.77Z"/><path class="cls-3" d="M178.63,58.83c0,4.68-3.28,7.47-8.86,7.47H161V38.67h8c5.58,0,8.64,2.57,8.64,7A5.59,5.59,0,0,1,176.07,50a7.94,7.94,0,0,1-3.38,1.93A6.75,6.75,0,0,1,178.63,58.83ZM169,51.4c4.63,0,7.24-1.88,7.24-5.66S173.59,40,169,40h-6.62V51.4ZM162.34,65H170c4.68,0,7.2-2.48,7.2-6.12s-2.52-6.16-7.2-6.16h-7.7Z"/><path class="cls-3" d="M200.82,38.67V40H185.43V51.36h13.95v1.35H185.43V65h15.39V66.3H184V38.67Z"/><path class="cls-3" d="M207.25,66.3V38.67h9.14c5.22,0,8.73,2.66,8.73,7.52,0,4.36-2.79,6.92-7.11,7.42l8.5,12.69h-1.62l-8.5-12.6h-7.74V66.3Zm1.4-13.9h7.65c4.63,0,7.42-2.25,7.42-6.21S220.93,40,216.3,40h-7.65Z"/><path class="cls-3" d="M38.5,76.67l7,25.06,6.93-25.06H53.8L46.11,104.3H44.89l-7-25L31,104.3H29.77L22.08,76.67h1.39l6.93,25.06,6.93-25.06Z"/><path class="cls-3" d="M80.31,76.67V104.3h-1.4V90.71H60V104.3H58.62V76.67H60V89.36h18.9V76.67Z"/><path class="cls-3" d="M104.56,76.67V78H89.17V89.36h14v1.35h-14V103h15.39v1.35H87.78V76.67Z"/><path class="cls-3" d="M131,104.3h-.76L112.35,78.88V104.3H111V76.67h1.35l17.32,24.48V76.67H131Z"/><path class="cls-3" d="M26.13,142.3h-1.4V114.67h1.4Z"/><path class="cls-3" d="M53.62,142.3h-.76L35,116.88V142.3H33.6V114.67H35l17.32,24.48V114.67h1.35Z"/><path class="cls-3" d="M58.75,114.67H81.07V116H70.59V142.3h-1.4V116H58.75Z"/><path class="cls-3" d="M103,114.67V116H87.6v11.34h14v1.35h-14V141H103v1.35H86.2V114.67Z"/><path class="cls-3" d="M109.42,142.3V114.67h9.14c5.22,0,8.73,2.66,8.73,7.52,0,4.36-2.79,6.92-7.11,7.42l8.5,12.69h-1.62l-8.5-12.6h-7.74v12.6Zm1.4-13.9h7.65c4.63,0,7.42-2.25,7.42-6.21S123.1,116,118.47,116h-7.65Z"/><path class="cls-3" d="M150.82,114.67V116H135.43v11.34h13.95v1.35H135.43V141h15.39v1.35H134V114.67Z"/><path class="cls-3" d="M155.19,138a11.42,11.42,0,0,0,8.5,3.29c4.28,0,6.89-2.34,6.89-5.76a4.38,4.38,0,0,0-1.31-3.42,15.47,15.47,0,0,0-4.05-2.48l-4.09-1.8a23.45,23.45,0,0,1-3.83-2.29,5.12,5.12,0,0,1-1.93-4.46A5.75,5.75,0,0,1,157.8,116a9.55,9.55,0,0,1,5.58-1.71,13,13,0,0,1,7.56,2.34v1.71a10.89,10.89,0,0,0-7.56-2.7c-3.6,0-6.62,1.85-6.62,5.44,0,2.93,2.16,4.28,5.22,5.59l4.23,1.84c4,1.8,5.76,3.6,5.76,7a6.43,6.43,0,0,1-2.34,5.13,9,9,0,0,1-5.94,2,12.47,12.47,0,0,1-8.5-2.84Z"/><path class="cls-3" d="M175.35,114.67h22.32V116H187.18V142.3h-1.39V116H175.35Z"/><path class="cls-3" d="M38.5,152.67l7,25.06,6.93-25.06H53.8L46.11,180.3H44.89l-7-25L31,180.3H29.77l-7.69-27.63h1.39l6.93,25.06,6.93-25.06Z"/><path class="cls-3" d="M72.43,170.67H59.56l-3.82,9.63h-1.4l11.07-27.63h1.22L77.7,180.3H76.3ZM60.1,169.32H71.89L66,154.61Z"/><path class="cls-3" d="M80.44,176A11.43,11.43,0,0,0,89,179.31c4.27,0,6.88-2.34,6.88-5.76a4.41,4.41,0,0,0-1.3-3.42,15.82,15.82,0,0,0-4-2.48l-4.1-1.8a23,23,0,0,1-3.82-2.29,5.1,5.1,0,0,1-1.94-4.46A5.75,5.75,0,0,1,83.05,154a9.57,9.57,0,0,1,5.58-1.71,12.9,12.9,0,0,1,7.56,2.34v1.71a10.88,10.88,0,0,0-7.56-2.7c-3.6,0-6.61,1.85-6.61,5.44,0,2.93,2.16,4.28,5.22,5.59l4.23,1.84c4,1.8,5.76,3.6,5.76,7a6.46,6.46,0,0,1-2.34,5.13,9.06,9.06,0,0,1-5.94,2,12.48,12.48,0,0,1-8.51-2.84Z"/><path class="cls-3" d="M26.13,218.3h-1.4V190.67h1.4Z"/><path class="cls-3" d="M53.62,218.3h-.76L35,192.88V218.3H33.6V190.67H35l17.32,24.48V190.67h1.35Z"/><path class="cls-3" d="M58.75,190.67H81.07V192H70.59V218.3h-1.4V192H58.75Z"/><path class="cls-3" d="M103,190.67V192H87.6v11.34h14v1.35h-14V217H103v1.35H86.2V190.67Z"/><path class="cls-3" d="M109.42,218.3V190.67h9.14c5.22,0,8.73,2.66,8.73,7.52,0,4.36-2.79,6.92-7.11,7.42l8.5,12.69h-1.62l-8.5-12.6h-7.74v12.6Zm1.4-13.9h7.65c4.63,0,7.42-2.25,7.42-6.21S123.1,192,118.47,192h-7.65Z"/><path class="cls-3" d="M150.82,190.67V192H135.43v11.34h13.95v1.35H135.43V217h15.39v1.35H134V190.67Z"/><path class="cls-3" d="M155.19,214a11.42,11.42,0,0,0,8.5,3.29c4.28,0,6.89-2.34,6.89-5.76a4.38,4.38,0,0,0-1.31-3.42,15.47,15.47,0,0,0-4.05-2.48l-4.09-1.8a23.45,23.45,0,0,1-3.83-2.29,5.12,5.12,0,0,1-1.93-4.46A5.75,5.75,0,0,1,157.8,192a9.55,9.55,0,0,1,5.58-1.71,13,13,0,0,1,7.56,2.34v1.71a10.89,10.89,0,0,0-7.56-2.7c-3.6,0-6.62,1.85-6.62,5.44,0,2.93,2.16,4.28,5.22,5.59l4.23,1.84c4,1.8,5.76,3.6,5.76,7a6.43,6.43,0,0,1-2.34,5.13,9,9,0,0,1-5.94,2,12.47,12.47,0,0,1-8.5-2.84Z"/><path class="cls-3" d="M174.76,190.67h22.32V192H186.6V218.3h-1.4V192H174.76Z"/><path class="cls-3" d="M203.61,218.3h-1.4V190.67h1.4Z"/><path class="cls-3" d="M231.1,218.3h-.76l-17.91-25.42V218.3h-1.35V190.67h1.35l17.32,24.48V190.67h1.35Z"/><path class="cls-3" d="M257,214.61v-8.82h-7.65v-1.22h9v10.35c-2.57,3-6.12,3.74-9.36,3.74a11.72,11.72,0,0,1-8.73-3.78c-2.39-2.57-3.6-6-3.6-10.4s1.21-7.87,3.6-10.39a11.72,11.72,0,0,1,8.86-3.78,12.87,12.87,0,0,1,8.19,2.75v1.71a11.58,11.58,0,0,0-8.19-3.11,10.22,10.22,0,0,0-7.92,3.42c-2.07,2.25-3.1,5.4-3.1,9.4s1,7.16,3.1,9.45a10.16,10.16,0,0,0,7.79,3.38A11.19,11.19,0,0,0,257,214.61Z"/><path class="cls-3" d="M274.75,201.69a6.08,6.08,0,0,0,1.53-4.13c0-3.56-2.25-5.94-6.39-5.94-3.1,0-5.89,2-7.83,4.23v-1.67a10.74,10.74,0,0,1,7.83-3.87c5,0,7.74,2.93,7.74,7.25a6.86,6.86,0,0,1-1.53,4.4c-1,1.31-2.07,2.52-3.15,3.74-1.39,1.57-1.93,2.52-2,3.91h-1.26a7.52,7.52,0,0,1,2.25-4.67ZM270.3,216a1.22,1.22,0,1,1-1.17,1.21A1.23,1.23,0,0,1,270.3,216Z"/><g class="cls-2"><rect class="cls-4" x="0.25" y="0.25" width="299.5" height="599.5"/></g></g></svg>