<?xml version="1.0" encoding="utf-8"?>
<!-- Generator: Adobe Illustrator 25.2.1, SVG Export Plug-In . SVG Version: 6.00 Build 0)  -->
<svg version="1.1" id="Layer_1" xmlns="http://www.w3.org/2000/svg" xmlns:xlink="http://www.w3.org/1999/xlink" x="0px" y="0px"
	 viewBox="0 0 300 600" style="enable-background:new 0 0 300 600;" xml:space="preserve">
<style type="text/css">
	.st0{fill:#009970;}
</style>
<g>
	<g>
		<path class="st0" d="M35.1,333l2.7-9.9h3l-4,13.9h-3.1l-2.5-9.7l-2.5,9.6h-3.1l-4-13.9h3.1l2.7,9.9l2.5-9.9h2.8L35.1,333z"/>
		<path class="st0" d="M45,320.8c-1.1,0-1.9-0.9-1.9-1.9c0-1.1,0.9-1.9,1.9-1.9c1.1,0,1.9,0.9,1.9,1.9C46.9,320,46.1,320.8,45,320.8
			z M46.5,337h-3.1v-13.9h3.1V337z"/>
		<path class="st0" d="M55.2,337h-3.1v-11.3h-2.8v-2.6h2.8v-3.7h3.1v3.7h3.1v2.6h-3.1V337z"/>
		<path class="st0" d="M61.1,316.7h3.1v7.8c1-1.1,2.3-1.7,3.8-1.6c3.1,0,4.9,2.1,4.9,5.2v9h-3.1v-8.5c0-1.7-0.8-2.9-2.6-2.9
			c-1.4,0-2.6,0.9-2.9,2.2v9.1h-3.1V316.7z"/>
		<path class="st0" d="M87,326.2l7.7-8.4h4l-8.7,9.2l9,10h-4.2l-7.9-8.8v8.8h-3.3v-19.2H87V326.2z"/>
		<path class="st0" d="M103,320.8c-1.1,0-1.9-0.9-1.9-1.9c0-1.1,0.9-1.9,1.9-1.9c1.1,0,1.9,0.9,1.9,1.9
			C104.9,320,104.1,320.8,103,320.8z M104.6,337h-3.1v-13.9h3.1V337z"/>
		<path class="st0" d="M120.7,333l2.7-9.9h3l-4,13.9h-3.1l-2.5-9.7l-2.5,9.6h-3.1l-4-13.9h3.1l2.7,9.9l2.4-9.9h2.8L120.7,333z"/>
		<path class="st0" d="M130.5,320.8c-1.1,0-1.9-0.9-1.9-1.9c0-1.1,0.9-1.9,1.9-1.9c1.1,0,1.9,0.9,1.9,1.9
			C132.4,320,131.5,320.8,130.5,320.8z M132,337h-3.1v-13.9h3.1V337z"/>
		<path class="st0" d="M154.4,317.8l3.6,14.2l3.5-14.2h3.1l-4.9,19.2h-3l-3.6-13.8l-3.7,13.8h-3l-4.9-19.2h3.2l3.5,14.2l3.7-14.2
			L154.4,317.8z"/>
		<path class="st0" d="M172.3,337.4c-4,0-6.9-2.8-6.9-7.1s2.7-7.4,6.4-7.4s5.9,2.7,5.9,6.8v1.1h-9.2c0,2.2,1.8,3.9,4,3.9
			c0.1,0,0.2,0,0.3,0c1.4,0,2.8-0.4,4-1.3v2.8C175.4,337,173.9,337.4,172.3,337.4z M168.7,328.4h6c0.1-1.6-1.1-2.9-2.7-2.9
			c-0.1,0-0.1,0-0.2,0C170.1,325.5,168.8,326.7,168.7,328.4L168.7,328.4z"/>
		<path class="st0" d="M188.4,328.1c0-1.6-1.3-2.5-3.2-2.5c-1.4,0-2.7,0.4-3.9,1.2V324c1.3-0.8,2.9-1.2,4.4-1.2
			c3.6,0,5.6,1.9,5.6,5.1v9.1h-3v-0.8c-1,0.7-2.2,1-3.4,1c-2.9,0-5.2-1.8-5.2-4.5c0-2.6,2.4-4.5,5.4-4.5c1.1,0,2.2,0.3,3.2,0.9
			V328.1z M188.4,332.1c-0.6-1-1.7-1.5-2.8-1.4c-1.4,0-2.9,0.6-2.9,2s1.4,2,2.9,2c1.1,0.1,2.2-0.4,2.8-1.4V332.1z"/>
		<path class="st0" d="M198.2,337h-3.1v-20.3h3.1V337z"/>
		<path class="st0" d="M206.9,337h-3.1v-11.3h-2.8v-2.6h2.8v-3.7h3.1v3.7h3.1v2.6h-3.1L206.9,337z"/>
		<path class="st0" d="M212.8,316.7h3.1v7.8c1-1.1,2.3-1.7,3.8-1.6c3.1,0,4.9,2.1,4.9,5.2v9h-3.1v-8.5c0-1.7-0.9-2.9-2.6-2.9
			c-1.4,0-2.6,0.9-2.9,2.2v9.1h-3.1L212.8,316.7z"/>
		<path class="st0" d="M32.3,365.8l-6-9.3V370h-3.2v-19.3h3l6.2,10l6.2-10h2.9V370h-3.2v-13.5L32.3,365.8L32.3,365.8z"/>
		<path class="st0" d="M53.3,361.1c0-1.6-1.3-2.5-3.2-2.5c-1.4,0-2.7,0.4-3.8,1.2v-2.9c1.3-0.8,2.9-1.2,4.4-1.2
			c3.6,0,5.6,1.9,5.6,5.1v9.2h-3v-0.8c-1,0.7-2.2,1-3.4,1c-2.9,0-5.2-1.8-5.2-4.5c0-2.6,2.3-4.5,5.4-4.5c1.1,0,2.2,0.3,3.2,0.9
			L53.3,361.1z M53.3,365.1c-0.6-1-1.7-1.5-2.8-1.4c-1.4,0-2.9,0.6-2.9,2s1.5,2,2.9,2c1.1,0.1,2.2-0.4,2.8-1.4V365.1z"/>
		<path class="st0" d="M60,356h3.1v1.3c1-1.1,2.3-1.7,3.8-1.6c3.1,0,4.9,2.1,4.9,5.2v9.1h-3.1v-8.5c0-1.7-0.8-2.9-2.6-2.9
			c-1.4,0-2.6,0.9-2.9,2.2v9.2H60V356z"/>
		<path class="st0" d="M83.2,361.1c0-1.6-1.2-2.5-3.2-2.5c-1.4,0-2.7,0.4-3.9,1.2v-2.9c1.3-0.8,2.9-1.2,4.4-1.2
			c3.6,0,5.6,1.9,5.6,5.1v9.2h-3v-0.8c-1,0.7-2.2,1-3.4,1c-2.9,0-5.2-1.8-5.2-4.5c0-2.6,2.3-4.5,5.4-4.5c1.1,0,2.2,0.3,3.2,0.9
			L83.2,361.1z M83.2,365.1c-0.6-1-1.7-1.5-2.8-1.4c-1.4,0-2.9,0.6-2.9,2s1.4,2,2.9,2c1.1,0.1,2.2-0.4,2.8-1.4V365.1z"/>
		<path class="st0" d="M98.9,368.6c-0.9,0.9-2.2,1.5-3.5,1.4c-4,0-6.4-3.4-6.4-7.1s2.4-7.1,6.4-7.1c1.3,0,2.6,0.5,3.5,1.4V356h3.1
			v12.8c0,5-3.7,6.8-7.1,6.8c-1.6,0-3.2-0.4-4.6-1.2v-3.3c1.2,1.2,2.9,1.8,4.6,1.8c2,0.2,3.8-1.4,4-3.4c0-0.1,0-0.3,0-0.4
			L98.9,368.6z M98.9,360.1c-0.6-1-1.8-1.7-3-1.7c-2.4,0-3.8,1.9-3.8,4.4s1.4,4.4,3.8,4.4c1.2,0,2.4-0.6,3-1.7V360.1z"/>
		<path class="st0" d="M111.9,370.3c-4,0-6.9-2.8-6.9-7.1s2.7-7.4,6.4-7.4s5.9,2.7,5.9,6.8v1.1H108c0,2.2,1.8,3.9,4,3.9
			c0.1,0,0.2,0,0.3,0c1.4,0,2.8-0.4,4-1.3v2.8C115,369.9,113.5,370.3,111.9,370.3z M108.2,361.3h6.1c0.1-1.5-1.1-2.9-2.7-2.9
			c-0.1,0-0.1,0-0.2,0C109.7,358.3,108.3,359.6,108.2,361.3L108.2,361.3z"/>
		<path class="st0" d="M129.2,368.8c-0.9,1-2.2,1.5-3.5,1.5c-4,0-6.5-3.2-6.5-7.3s2.4-7.3,6.5-7.3c1.3,0,2.6,0.5,3.5,1.5v-7.6h3.1
			V370h-3.1V368.8z M129.2,360.4c-0.6-1.1-1.7-1.8-3-1.9c-2.4,0-3.8,1.9-3.8,4.5s1.5,4.5,3.8,4.5c1.3,0,2.4-0.7,3-1.9V360.4z"/>
		<path class="st0" d="M143.4,370v-19.3h12.3v2.9h-9v5.7h8.4v2.9h-8.4v7.8H143.4z"/>
		<path class="st0" d="M169.8,370h-3.1v-1.3c-0.9,1.1-2.3,1.7-3.7,1.6c-3.2,0-4.9-2.1-4.9-5.2V356h3.1v8.5c0,1.7,0.8,2.9,2.6,2.9
			c1.4,0,2.6-0.9,2.9-2.2V356h3.1L169.8,370z"/>
		<path class="st0" d="M173.7,356h3.1v1.3c1-1.1,2.3-1.7,3.8-1.6c3.1,0,4.9,2.1,4.9,5.2v9.1h-3.1v-8.5c0-1.7-0.9-2.9-2.6-2.9
			c-1.4,0-2.6,0.9-2.9,2.2v9.2h-3.1L173.7,356z"/>
		<path class="st0" d="M198.3,368.8c-0.9,1-2.2,1.5-3.5,1.5c-4,0-6.5-3.2-6.5-7.3s2.4-7.3,6.5-7.3c1.3,0,2.6,0.5,3.5,1.5v-7.6h3.1
			V370h-3.1V368.8z M198.3,360.4c-0.6-1.1-1.7-1.8-3-1.9c-2.4,0-3.9,1.9-3.9,4.5s1.5,4.5,3.9,4.5c1.3,0,2.4-0.7,3-1.9V360.4z"/>
		<path class="st0" d="M204.7,365.6c1.3,1.2,2.9,1.9,4.7,2c1.4,0,2.4-0.5,2.4-1.5s-0.7-1.3-1.9-1.6l-1.5-0.5
			c-2.4-0.8-3.8-1.8-3.8-4.2s2.2-4.2,5.2-4.2c1.5,0,2.9,0.4,4.2,1.2v3.2c-1.1-1.1-2.6-1.7-4.2-1.8c-1.2,0-2.2,0.5-2.2,1.4
			s0.5,1.2,1.8,1.6l1.8,0.6c2.3,0.8,3.5,2,3.5,4.1c0,2.7-2.4,4.2-5.5,4.2c-1.7,0-3.3-0.5-4.7-1.4V365.6z"/>
		<path class="st0" d="M219.1,365.9c1.2,0,2.2,0.9,2.2,2.1s-0.9,2.2-2.1,2.2c-1.2,0-2.2-0.9-2.2-2.1c0,0,0,0,0-0.1
			C217,366.8,217.9,365.9,219.1,365.9C219.1,365.9,219.1,365.9,219.1,365.9z"/>
	</g>
</g>
</svg>
