<svg id="Layer_1" data-name="Layer 1" xmlns="http://www.w3.org/2000/svg" xmlns:xlink="http://www.w3.org/1999/xlink" viewBox="0 0 300 250"><defs><style>.cls-1{fill:none;}.cls-2{clip-path:url(#clip-path);}.cls-3{fill:#221e1f;}.cls-4{clip-path:url(#clip-path-2);}.cls-5{clip-path:url(#clip-path-4);}.cls-6{clip-path:url(#clip-path-5);}.cls-7{clip-path:url(#clip-path-6);}.cls-8{clip-path:url(#clip-path-8);}.cls-9{clip-path:url(#clip-path-9);}</style><clipPath id="clip-path"><rect class="cls-1" width="300" height="250"/></clipPath><clipPath id="clip-path-2"><rect class="cls-1" x="320" width="300" height="250"/></clipPath><clipPath id="clip-path-4"><rect class="cls-1" x="498.32" y="90.72" width="87.28" height="86.76"/></clipPath><clipPath id="clip-path-5"><rect class="cls-1" x="-32448" y="-32517" width="65535" height="65535"/></clipPath><clipPath id="clip-path-6"><rect class="cls-1" x="640" width="300" height="250"/></clipPath><clipPath id="clip-path-8"><rect class="cls-1" x="818.32" y="90.72" width="87.28" height="86.76"/></clipPath><clipPath id="clip-path-9"><rect class="cls-1" x="-32128" y="-32517" width="65535" height="65535"/></clipPath></defs><g class="cls-2"><path class="cls-3" d="M62.61,67.35H35.19V32.53H62.11v7.74H44.42V46H58.07v7.63H44.42v6H62.61Z"/><path class="cls-3" d="M89.64,60.11c0,1.27.55,1.83,1.49,1.83a5,5,0,0,0,2-.39V66.3a9.4,9.4,0,0,1-5.58,1.61,6.09,6.09,0,0,1-6.25-4.37c-1.44,2.88-4.25,4.37-8.18,4.37-4.81,0-8-2.49-8-6.69,0-4.76,3.43-6.8,8.79-7.74l6.91-1.16v-.39c0-2-.94-3.26-3.1-3.26-2,0-3,1.27-3.37,3.09l-8.29-.55C66.86,45.79,70.9,42,78.31,42c6.52,0,11.33,2.81,11.33,9.67Zm-8.79-3.43-3.65.67c-2.16.44-3.43,1.1-3.43,2.71,0,1.27,1,2.1,2.49,2.1,2.54,0,4.59-1.88,4.59-5.09Z"/><path class="cls-3" d="M96.61,48.89H93.29V43.36l1.82-.28c2.49-.38,3.27-1.71,3.87-4l.83-3.21h5.64v6.8h6.41v6.19h-6.41v9c0,2.1,1,2.93,2.82,2.93a9.93,9.93,0,0,0,3.82-.83v5.81A11.62,11.62,0,0,1,104.68,68c-4.15,0-8.07-1.72-8.07-7.52Z"/><path class="cls-3" d="M143.15,63.15C142,66,139.17,68,135.08,68c-7.29,0-10.94-5.7-10.94-13s3.65-13,10.94-13c4.09,0,6.91,2,8.07,4.92V32.53h9V67.35h-9Zm0-8.29c0-3.54-1.93-5.86-4.92-5.86-3.53,0-5.08,2.49-5.08,6s1.55,6.08,5.08,6.08c3,0,4.92-2.32,4.92-5.92Z"/><path class="cls-3" d="M156.92,32.53H166v7.85h-9.07Zm9,10.17V67.35h-9V42.7Z"/><path class="cls-3" d="M179.75,67.35H170.8V42.7h8.95v3.7c1.33-2.71,4.26-4.36,8-4.36,6.75,0,8.9,4.69,8.9,9.84V67.35h-9V54.25c0-3.37-.94-5.14-3.65-5.14-3,0-4.26,2.43-4.26,6.14Z"/><path class="cls-3" d="M210.16,67.35h-9V42.7h9v3.7c1.33-2.71,4.26-4.36,8-4.36,6.74,0,8.9,4.69,8.9,9.84V67.35h-9V54.25c0-3.37-.93-5.14-3.64-5.14-3,0-4.26,2.43-4.26,6.14Z"/><path class="cls-3" d="M256.16,59.23c-1.28,5.64-5.81,8.79-12.33,8.79-7.91,0-13.55-4.76-13.55-12.61A13,13,0,0,1,243.72,42c8.23,0,12.6,5.63,12.6,12.32v2.49H239c.22,3,2.43,4.48,5.14,4.48,2.43,0,4-.83,4.81-2.77Zm-8.35-6.69a4,4,0,0,0-4.2-4.09c-2.88,0-4.15,1.77-4.48,4.09Z"/><path class="cls-3" d="M278.55,51.43a8,8,0,0,0-4.26-1c-3.32,0-5.36,1.55-5.36,5.7V67.35h-9V42.7h9v4.37a7.15,7.15,0,0,1,6.74-5,6,6,0,0,1,3.43.93Z"/></g></svg>