<svg id="Layer_1" data-name="Layer 1" xmlns="http://www.w3.org/2000/svg" xmlns:xlink="http://www.w3.org/1999/xlink" viewBox="0 0 300 250"><defs><style>.cls-1{fill:none;}.cls-2{clip-path:url(#clip-path);}.cls-3{fill:#221e1f;}.cls-4{clip-path:url(#clip-path-2);}.cls-5{clip-path:url(#clip-path-4);}.cls-6{clip-path:url(#clip-path-5);}.cls-7{clip-path:url(#clip-path-6);}.cls-8{clip-path:url(#clip-path-8);}.cls-9{clip-path:url(#clip-path-9);}</style><clipPath id="clip-path"><rect class="cls-1" width="300" height="250"/></clipPath><clipPath id="clip-path-2"><rect class="cls-1" x="320" width="300" height="250"/></clipPath><clipPath id="clip-path-4"><rect class="cls-1" x="498.32" y="90.72" width="87.28" height="86.76"/></clipPath><clipPath id="clip-path-5"><rect class="cls-1" x="-32448" y="-32517" width="65535" height="65535"/></clipPath><clipPath id="clip-path-6"><rect class="cls-1" x="640" width="300" height="250"/></clipPath><clipPath id="clip-path-8"><rect class="cls-1" x="818.32" y="90.72" width="87.28" height="86.76"/></clipPath><clipPath id="clip-path-9"><rect class="cls-1" x="-32128" y="-32517" width="65535" height="65535"/></clipPath></defs><g class="cls-2"><path class="cls-3" d="M58,118.56c0,1.27.55,1.82,1.49,1.82a5,5,0,0,0,2-.39v4.76a9.47,9.47,0,0,1-5.58,1.6A6.09,6.09,0,0,1,49.67,122c-1.44,2.88-4.26,4.37-8.18,4.37-4.81,0-8-2.49-8-6.69,0-4.75,3.42-6.8,8.79-7.74l6.91-1.16v-.38c0-2-.94-3.27-3.1-3.27-2,0-3,1.27-3.37,3.1l-8.29-.55c.77-5.42,4.81-9.18,12.21-9.18,6.53,0,11.34,2.82,11.34,9.67Zm-8.79-3.43-3.65.66c-2.16.45-3.43,1.11-3.43,2.71,0,1.27,1,2.1,2.49,2.1,2.54,0,4.59-1.88,4.59-5.08Z"/><path class="cls-3" d="M73.05,125.8h-9V101.14h9v3.71c1.33-2.71,4.26-4.37,8-4.37,6.74,0,8.9,4.7,8.9,9.84V125.8H81V112.7c0-3.38-.94-5.14-3.65-5.14-3,0-4.26,2.43-4.26,6.13Z"/><path class="cls-3" d="M112.2,121.6c-1.16,2.87-4,4.86-8.08,4.86-7.29,0-10.94-5.69-10.94-13s3.65-13,10.94-13c4.1,0,6.92,2,8.08,4.92V91h9V125.8h-9Zm0-8.3c0-3.53-1.94-5.85-4.92-5.85-3.54,0-5.09,2.48-5.09,6s1.55,6.08,5.09,6.08c3,0,4.92-2.32,4.92-5.91Z"/><path class="cls-3" d="M142,117.67c.34,2,2,3.21,4.7,3.21,2,0,3-.72,3-1.71s-.55-1.61-2.26-1.88l-3.65-.56c-6-.94-9.12-2.87-9.12-7.9,0-4.87,4.25-8.35,11.16-8.35,7.14,0,11.34,3.15,11.83,8.29l-7.35.22c-.33-1.77-1.88-2.87-4.64-2.87-1.72,0-2.71.66-2.71,1.77,0,.83.66,1.27,1.49,1.38l4.81.83c5.53.88,8.74,3.37,8.74,8.18,0,5.2-4.43,8.18-11.45,8.18-6.8,0-11.88-2.71-12.38-8.68Z"/><path class="cls-3" d="M170.41,134.64h-8.95v-33.5h8.95v4.26c1.22-2.93,4-4.92,8.13-4.92,7.24,0,10.94,5.75,10.94,13s-3.7,13-10.94,13c-4.15,0-6.91-2-8.13-4.86Zm0-21c0,3.59,1.94,5.91,5,5.91,3.48,0,5.08-2.49,5.08-6.08s-1.6-6-5.08-6c-3,0-5,2.32-5,5.85Z"/><path class="cls-3" d="M202,91V125.8h-9V91Z"/><path class="cls-3" d="M206.79,91h9.07v7.85h-9.07Zm9,10.17V125.8h-9V101.14Z"/><path class="cls-3" d="M221.55,107.33h-3.32v-5.52l1.83-.28c2.49-.39,3.26-1.71,3.87-4l.83-3.21h5.64v6.8h6.41v6.19H230.4v9c0,2.1,1,2.93,2.81,2.93a10.08,10.08,0,0,0,3.82-.83v5.8a11.62,11.62,0,0,1-7.41,2.21c-4.14,0-8.07-1.71-8.07-7.52Z"/><path class="cls-3" d="M239.68,116.29h9.51v9.51h-9.51Z"/></g></svg>