<svg id="Layer_1" data-name="Layer 1" xmlns="http://www.w3.org/2000/svg" xmlns:xlink="http://www.w3.org/1999/xlink" viewBox="0 0 300 600"><defs><style>.cls-1{fill:none;}.cls-2{clip-path:url(#clip-path);}.cls-3{fill:#221e1f;}.cls-4{clip-path:url(#clip-path-2);}.cls-5{clip-path:url(#clip-path-4);}.cls-6{clip-path:url(#clip-path-5);}.cls-7{clip-path:url(#clip-path-6);}.cls-8{clip-path:url(#clip-path-8);}.cls-9{clip-path:url(#clip-path-9);}.cls-10{clip-path:url(#clip-path-10);}.cls-11{clip-path:url(#clip-path-12);}.cls-12{clip-path:url(#clip-path-13);}</style><clipPath id="clip-path"><rect class="cls-1" width="300" height="600"/></clipPath><clipPath id="clip-path-2"><rect class="cls-1" x="320" width="300" height="600"/></clipPath><clipPath id="clip-path-4"><rect class="cls-1" x="400.85" y="364.8" width="138.3" height="137.47"/></clipPath><clipPath id="clip-path-5"><rect class="cls-1" x="-32448" y="-32167" width="65535" height="65535"/></clipPath><clipPath id="clip-path-6"><rect class="cls-1" x="960" width="300" height="600"/></clipPath><clipPath id="clip-path-8"><rect class="cls-1" x="1040.85" y="364.8" width="138.3" height="137.47"/></clipPath><clipPath id="clip-path-9"><rect class="cls-1" x="-31808" y="-32167" width="65535" height="65535"/></clipPath><clipPath id="clip-path-10"><rect class="cls-1" x="1280" width="300" height="600"/></clipPath><clipPath id="clip-path-12"><rect class="cls-1" x="1360.85" y="364.8" width="138.3" height="137.47"/></clipPath><clipPath id="clip-path-13"><rect class="cls-1" x="-31488" y="-32167" width="65535" height="65535"/></clipPath></defs><g class="cls-2"><path class="cls-3" d="M237.74,111.93a6.91,6.91,0,0,0-3.68-.9c-2.87,0-4.63,1.33-4.63,4.92v9.75h-7.75V104.38h7.75v3.78a6.19,6.19,0,0,1,5.83-4.35,5.08,5.08,0,0,1,3,.81Z"/><path class="cls-3" d="M207,126.28c-7,0-11.67-4.59-11.67-11.24S200,103.81,207,103.81s11.66,4.63,11.66,11.23S213.89,126.28,207,126.28Zm0-5.84c2.68,0,3.87-2.2,3.87-5.4s-1.19-5.4-3.87-5.4-3.87,2.2-3.87,5.4S204.23,120.44,207,120.44Z"/><path class="cls-3" d="M178.61,109.74v-5.36h3.06v-.91c0-5.54,3.44-8.46,8.56-8.46,4,0,6.79,2,7.65,5.55L193.15,102a2.18,2.18,0,0,0-2.06-1.48c-1.29,0-1.77,1-1.77,2.39v1.43h5.4v5.36h-5.4v16h-7.65v-16Z"/><path class="cls-3" d="M48.41,160H45.54v-4.78l1.58-.23c2.15-.34,2.82-1.49,3.34-3.45l.72-2.77h4.88v5.88H61.6V160H56.06v7.8c0,1.81.86,2.53,2.44,2.53a8.5,8.5,0,0,0,3.29-.72v5a10,10,0,0,1-6.4,1.91c-3.59,0-7-1.48-7-6.5Z"/><path class="cls-3" d="M72.5,175.93H64.76V145.81H72.5v12c1.15-2.34,3.68-3.77,6.88-3.77,5.84,0,7.7,4.06,7.7,8.51v13.38H79.34V164.6c0-2.91-.82-4.44-3.16-4.44-2.63,0-3.68,2.1-3.68,5.3Z"/><path class="cls-3" d="M111,169.67c0,1.1.48,1.58,1.29,1.58a4.39,4.39,0,0,0,1.72-.34V175a8.14,8.14,0,0,1-4.83,1.39,5.26,5.26,0,0,1-5.4-3.78c-1.24,2.49-3.68,3.78-7.07,3.78-4.16,0-6.89-2.15-6.89-5.79,0-4.11,3-5.87,7.6-6.69l6-1v-.34c0-1.76-.81-2.82-2.68-2.82s-2.58,1.1-2.91,2.68L90.62,162c.66-4.68,4.15-7.93,10.56-7.93,5.64,0,9.8,2.43,9.8,8.36Zm-7.6-3-3.16.57c-1.86.38-3,1-3,2.34,0,1.1.86,1.82,2.15,1.82,2.2,0,4-1.63,4-4.4Z"/><path class="cls-3" d="M117,160h-2.87v-4.78l1.58-.23c2.15-.34,2.82-1.49,3.35-3.45l.71-2.77h4.88v5.88h5.54V160h-5.54v7.8c0,1.81.86,2.53,2.44,2.53a8.54,8.54,0,0,0,3.3-.72v5A10,10,0,0,1,124,176.5c-3.59,0-7-1.48-7-6.5Z"/><path class="cls-3" d="M142.72,160h-2.87v-4.78l1.57-.23c2.16-.34,2.83-1.49,3.35-3.45l.72-2.77h4.87v5.88h5.55V160h-5.55v7.8c0,1.81.87,2.53,2.44,2.53a8.5,8.5,0,0,0,3.3-.72v5a10,10,0,0,1-6.4,1.91c-3.59,0-7-1.48-7-6.5Z"/><path class="cls-3" d="M166.81,175.93h-7.75V145.81h7.75v12c1.14-2.34,3.68-3.77,6.88-3.77,5.83,0,7.7,4.06,7.7,8.51v13.38h-7.75V164.6c0-2.91-.81-4.44-3.15-4.44-2.63,0-3.68,2.1-3.68,5.3Z"/><path class="cls-3" d="M185.3,145.81h7.84v6.79H185.3Zm7.8,8.8v21.32h-7.75V154.61Z"/><path class="cls-3" d="M205.05,175.93H197.3V154.61h7.75v3.2c1.14-2.34,3.68-3.77,6.88-3.77,5.83,0,7.7,4.06,7.7,8.51v13.38h-7.75V164.6c0-2.91-.81-4.44-3.15-4.44-2.63,0-3.68,2.1-3.68,5.3Z"/><path class="cls-3" d="M233.34,168.62a15.49,15.49,0,0,1-4.63-.62,1.22,1.22,0,0,0-.43,1c0,.72.52,1.29,1.81,1.29h8.85c4.82,0,7.26,2.53,7.26,6.12,0,5.31-6.45,7.74-13.38,7.74-6.07,0-11.33-1.19-11.33-5.21,0-1.86,1.67-3.34,4.06-3.53a4.39,4.39,0,0,1-3.06-4.16c0-2.06,1.34-3.64,3.63-4.5a6.24,6.24,0,0,1-3.06-5.4c0-4.54,4.31-7.31,10.28-7.31a13.45,13.45,0,0,1,6.84,1.72,7.93,7.93,0,0,1,6-3.3v5.83a14.6,14.6,0,0,0-3.1.34,5.73,5.73,0,0,1,.67,2.72C243.72,165.84,239.37,168.62,233.34,168.62Zm-.48,11.52c3.59,0,6.22-.72,6.22-2,0-.91-.67-1.24-2-1.24h-7.84a1.27,1.27,0,0,0-1.43,1.29C227.85,179.71,230,180.14,232.86,180.14Zm.58-21.85c-1.29,0-2.25,1.2-2.25,3.06s1,3.11,2.25,3.11,2.25-1.2,2.25-3.11S234.73,158.29,233.44,158.29Z"/><path class="cls-3" d="M247.63,167.71h8.23v8.22h-8.23Z"/></g></svg>