<svg id="Layer_1" data-name="Layer 1" xmlns="http://www.w3.org/2000/svg" xmlns:xlink="http://www.w3.org/1999/xlink" viewBox="0 0 300 600"><defs><style>.cls-1{fill:none;}.cls-2{clip-path:url(#clip-path);}.cls-3{fill:#221e1f;}.cls-4{clip-path:url(#clip-path-2);}.cls-5{clip-path:url(#clip-path-4);}.cls-6{clip-path:url(#clip-path-5);}.cls-7{clip-path:url(#clip-path-6);}.cls-8{clip-path:url(#clip-path-8);}.cls-9{clip-path:url(#clip-path-9);}.cls-10{clip-path:url(#clip-path-10);}.cls-11{clip-path:url(#clip-path-12);}.cls-12{clip-path:url(#clip-path-13);}</style><clipPath id="clip-path"><rect class="cls-1" width="300" height="600"/></clipPath><clipPath id="clip-path-2"><rect class="cls-1" x="320" width="300" height="600"/></clipPath><clipPath id="clip-path-4"><rect class="cls-1" x="400.85" y="364.8" width="138.3" height="137.47"/></clipPath><clipPath id="clip-path-5"><rect class="cls-1" x="-32448" y="-32167" width="65535" height="65535"/></clipPath><clipPath id="clip-path-6"><rect class="cls-1" x="960" width="300" height="600"/></clipPath><clipPath id="clip-path-8"><rect class="cls-1" x="1040.85" y="364.8" width="138.3" height="137.47"/></clipPath><clipPath id="clip-path-9"><rect class="cls-1" x="-31808" y="-32167" width="65535" height="65535"/></clipPath><clipPath id="clip-path-10"><rect class="cls-1" x="1280" width="300" height="600"/></clipPath><clipPath id="clip-path-12"><rect class="cls-1" x="1360.85" y="364.8" width="138.3" height="137.47"/></clipPath><clipPath id="clip-path-13"><rect class="cls-1" x="-31488" y="-32167" width="65535" height="65535"/></clipPath></defs><g class="cls-2"><path class="cls-3" d="M55.92,75.47H47.84V45.35H61.08C69,45.35,73.56,49,73.56,55.68S69,66.05,61.08,66.05H55.92ZM60.7,59.55c3.63,0,5-1.29,5-3.82s-1.38-3.87-5-3.87H55.92v7.69Z"/><path class="cls-3" d="M95.92,69.21c0,1.1.48,1.58,1.29,1.58a4.44,4.44,0,0,0,1.73-.34v4.11A8.14,8.14,0,0,1,94.11,76a5.25,5.25,0,0,1-5.4-3.78C87.46,74.66,85,76,81.63,76c-4.16,0-6.88-2.15-6.88-5.78,0-4.12,3-5.88,7.6-6.7l6-1v-.34c0-1.76-.81-2.82-2.67-2.82s-2.59,1.1-2.92,2.68l-7.17-.48c.67-4.68,4.16-7.93,10.56-7.93,5.65,0,9.8,2.43,9.8,8.36Zm-7.6-3-3.15.57c-1.87.38-3,1-3,2.34,0,1.1.86,1.82,2.15,1.82,2.2,0,4-1.63,4-4.4Z"/><path class="cls-3" d="M104.62,83.12l3.06-7.36L99,54.15h8.13l4.73,12.48H112l4.83-12.48h7.6l-12.24,29Z"/><path class="cls-3" d="M135.83,59.5H133V54.72l1.58-.23c2.15-.34,2.82-1.49,3.35-3.45l.72-2.77h4.87v5.88H149V59.5h-5.55v7.8c0,1.81.86,2.53,2.44,2.53a8.5,8.5,0,0,0,3.3-.72v5A10,10,0,0,1,142.81,76c-3.58,0-7-1.48-7-6.5Z"/><path class="cls-3" d="M159.92,75.47h-7.74V45.35h7.74v12c1.15-2.34,3.69-3.77,6.89-3.77,5.83,0,7.7,4.06,7.7,8.51V75.47h-7.75V64.14c0-2.91-.81-4.44-3.15-4.44-2.63,0-3.69,2.1-3.69,5.3Z"/><path class="cls-3" d="M198.4,69.21c0,1.1.48,1.58,1.29,1.58a4.44,4.44,0,0,0,1.73-.34v4.11A8.14,8.14,0,0,1,196.59,76a5.25,5.25,0,0,1-5.4-3.78c-1.25,2.49-3.69,3.78-7.08,3.78-4.16,0-6.88-2.15-6.88-5.78,0-4.12,3-5.88,7.6-6.7l6-1v-.34c0-1.76-.81-2.82-2.67-2.82s-2.59,1.1-2.92,2.68L178,61.51c.67-4.68,4.16-7.93,10.56-7.93,5.65,0,9.8,2.43,9.8,8.36Zm-7.6-3-3.15.57c-1.87.38-3,1-3,2.34,0,1.1.86,1.82,2.15,1.82,2.2,0,4-1.63,4-4.4Z"/><path class="cls-3" d="M204.42,59.5h-2.86V54.72l1.57-.23c2.15-.34,2.82-1.49,3.35-3.45l.72-2.77h4.87v5.88h5.55V59.5h-5.55v7.8c0,1.81.86,2.53,2.44,2.53a8.5,8.5,0,0,0,3.3-.72v5A10,10,0,0,1,211.4,76c-3.58,0-7-1.48-7-6.5Z"/><path class="cls-3" d="M45.45,109.74v-5.36h3v-.91C48.5,97.93,52,95,57.06,95c4,0,6.79,2,7.65,5.55L60,102a2.17,2.17,0,0,0-2.06-1.48c-1.29,0-1.77,1-1.77,2.39v1.43h5.41v5.36H56.15v16H48.5v-16Z"/><path class="cls-3" d="M79.34,111.93a6.91,6.91,0,0,0-3.68-.9C72.79,111,71,112.36,71,116v9.75H63.27V104.38H71v3.78a6.19,6.19,0,0,1,5.83-4.35,5.14,5.14,0,0,1,3,.81Z"/><path class="cls-3" d="M82.16,95.58H90v6.79H82.16Zm7.79,8.8V125.7H82.2V104.38Z"/><path class="cls-3" d="M115.38,118.67c-1.1,4.88-5,7.61-10.66,7.61-6.84,0-11.71-4.12-11.71-10.9a11.24,11.24,0,0,1,11.61-11.57c7.13,0,10.9,4.87,10.9,10.66v2.15h-15c.19,2.63,2.1,3.87,4.45,3.87,2.1,0,3.44-.72,4.15-2.39Zm-7.22-5.78a3.5,3.5,0,0,0-3.63-3.54c-2.49,0-3.59,1.53-3.88,3.54Z"/><path class="cls-3" d="M126.42,125.7h-7.75V104.38h7.75v3.2c1.15-2.34,3.68-3.77,6.88-3.77,5.83,0,7.7,4.06,7.7,8.51V125.7h-7.75V114.37c0-2.91-.81-4.44-3.15-4.44-2.63,0-3.68,2.1-3.68,5.3Z"/><path class="cls-3" d="M160.26,122.07c-1,2.48-3.44,4.21-7,4.21-6.31,0-9.46-4.93-9.46-11.24s3.15-11.23,9.46-11.23c3.54,0,6,1.72,7,4.25V95.58H168V125.7h-7.75Zm0-7.17c0-3.06-1.67-5.07-4.25-5.07-3.06,0-4.4,2.15-4.4,5.21s1.34,5.26,4.4,5.26c2.58,0,4.25-2,4.25-5.12Z"/></g></svg>