<svg id="Layer_1" data-name="Layer 1" xmlns="http://www.w3.org/2000/svg" xmlns:xlink="http://www.w3.org/1999/xlink" viewBox="0 0 300 600"><defs><style>.cls-1{fill:none;}.cls-2{clip-path:url(#clip-path);}.cls-3{clip-path:url(#clip-path-3);}.cls-4{clip-path:url(#clip-path-4);}.cls-5{clip-path:url(#clip-path-5);}.cls-6{fill:#221e1f;}.cls-7{fill:#fff;}.cls-8{clip-path:url(#clip-path-6);}.cls-9{clip-path:url(#clip-path-8);}.cls-10{clip-path:url(#clip-path-9);}.cls-11{clip-path:url(#clip-path-10);}.cls-12{clip-path:url(#clip-path-12);}.cls-13{clip-path:url(#clip-path-13);}</style><clipPath id="clip-path"><rect class="cls-1" x="-320" width="300" height="600"/></clipPath><clipPath id="clip-path-3"><rect class="cls-1" x="-239.15" y="364.8" width="138.3" height="137.47"/></clipPath><clipPath id="clip-path-4"><rect class="cls-1" x="-33088" y="-32167" width="65535" height="65535"/></clipPath><clipPath id="clip-path-5"><rect class="cls-1" width="300" height="600"/></clipPath><clipPath id="clip-path-6"><rect class="cls-1" x="640" width="300" height="600"/></clipPath><clipPath id="clip-path-8"><rect class="cls-1" x="720.85" y="364.8" width="138.3" height="137.47"/></clipPath><clipPath id="clip-path-9"><rect class="cls-1" x="-32128" y="-32167" width="65535" height="65535"/></clipPath><clipPath id="clip-path-10"><rect class="cls-1" x="960" width="300" height="600"/></clipPath><clipPath id="clip-path-12"><rect class="cls-1" x="1040.85" y="364.8" width="138.3" height="137.47"/></clipPath><clipPath id="clip-path-13"><rect class="cls-1" x="-31808" y="-32167" width="65535" height="65535"/></clipPath></defs><g class="cls-5"><path class="cls-6" d="M133.39,347v-1.43a4.56,4.56,0,0,1-2.67-1.11,3.24,3.24,0,0,1-1-2.52l2.11-.08a2,2,0,0,0,1.58,1.87v-2.24l-.8-.14c-1.55-.27-2.65-1.14-2.65-2.81s1.34-3,3.45-3.1v-1.23h1.17v1.25c2.16.23,3.38,1.53,3.39,3.47l-2.07.07a1.75,1.75,0,0,0-1.32-1.69v2.22l.68.12c2,.36,2.91,1.29,2.91,2.9a2.6,2.6,0,0,1-1,2.2,4.54,4.54,0,0,1-2.57.85V347Zm0-7.68v-2.1c-.8.08-1.23.45-1.23,1.12S132.69,339.14,133.39,339.28Zm1.17,2.37v2.12c.82-.08,1.37-.47,1.37-1.11S135.38,341.78,134.56,341.65Z"/><path class="cls-6" d="M138.86,339.34V335.1H153.6v3.62a16.39,16.39,0,0,0-4.7,7.61,38.7,38.7,0,0,0-.91,8.41h-5.17a25.94,25.94,0,0,1,1.37-8.51,20.28,20.28,0,0,1,4.27-6.89Z"/><path class="cls-6" d="M168.47,339.25h-8.63c0,.44-.09,1-.19,1.71s-.19,1.25-.28,1.66a5.37,5.37,0,0,1,3.71-1.19,6.44,6.44,0,0,1,5.11,2,7,7,0,0,1,1.72,4.81,6.44,6.44,0,0,1-2.12,5.05,7.77,7.77,0,0,1-5.33,1.87c-5.08,0-7.86-2.84-7.7-7.3l4.55.34a3.1,3.1,0,1,0,6.2,0,3,3,0,0,0-3-3.22,3.12,3.12,0,0,0-2.87,1.53l-4.55-.34c.22-1.34.5-3.09.78-5.3a56.12,56.12,0,0,0,.5-5.77h12.12Z"/><rect class="cls-7" x="116.3" y="296.99" width="67.85" height="26.31"/><path class="cls-6" d="M130.52,311.67c.09,1.6,1.32,2.24,2.73,2.24,1.23,0,2-.49,2-1.24s-.68-1-1.69-1.16l-2.16-.39c-1.84-.34-3.14-1.37-3.14-3.33,0-2.28,1.8-3.69,4.59-3.69,3.13,0,4.84,1.58,4.89,4.13l-2.56.07a2.1,2.1,0,0,0-2.35-2c-1.17,0-1.83.48-1.83,1.27s.53.9,1.35,1.06l2.17.39c2.34.42,3.44,1.59,3.44,3.48a3,3,0,0,1-1.37,2.7,6,6,0,0,1-3.34.91,6.2,6.2,0,0,1-3.8-1.11,3.8,3.8,0,0,1-1.48-3.21Z"/><path class="cls-6" d="M148.38,315.88h-8.91V304.32h8.74v2.29h-6v2.28h4.68v2.25H142.2v2.44h6.18Z"/><path class="cls-6" d="M157.46,311.25v-6.93H160v11.56h-2.21l-5.36-7.38v7.38h-2.57V304.32h2.68Z"/><path class="cls-6" d="M161.87,304.32h4.48a6.26,6.26,0,0,1,4.47,1.54,6.2,6.2,0,0,1,0,8.47,6.26,6.26,0,0,1-4.47,1.55h-4.48Zm4.29,9.35c2.19,0,3.45-1.32,3.45-3.59a3.21,3.21,0,0,0-3.45-3.56h-1.5v7.15Z"/></g></svg>