<?xml version="1.0" encoding="UTF-8"?><svg id="Layer_2" xmlns="http://www.w3.org/2000/svg" viewBox="0 0 257.83 54.63"><defs><style>.cls-1{fill:#fff;}.cls-2{fill:#27346b;}</style></defs><g id="Layer_3"><g><rect class="cls-2" width="257.83" height="54.63"/><g><path class="cls-1" d="M28.8,41.14c-1.17-.13-3.14-.15-5.91-.08s-4.79,.09-6.06,.04c0-.43,.02-1.17,.06-2.2s.04-1.83,.02-2.39c0-.15-.02-.41-.06-.76-.04-.36-.04-.64-.02-.84,0-.13,.01-.38,.04-.75s.03-.64,0-.82c0-.2-.02-.48-.06-.84-.04-.36-.06-.64-.06-.84,0-.15,.02-.64,.08-1.45,0-.2-.01-.48-.04-.84-.03-.36-.04-.64-.04-.84,0-.48,0-1.19,.02-2.1,.01-.92,.02-1.59,.02-2.03,0-.23,0-.55-.02-.98s-.02-.73-.02-.94c.05-.87,.08-1.5,.08-1.91-.05-2.83-.05-4.77,0-5.82,.36-.1,.75-.16,1.19-.17,.43-.01,.95,0,1.55,.02s1,.04,1.21,.04v5.82c.02,1.35,.04,3.38,.04,6.08,0,.82,.01,1.43,.04,1.84,.03,.23,.04,.55,.04,.98v.94c.13,.82,.19,1.59,.19,2.33,0,.31-.03,.84-.08,1.61-.03,.36-.01,.92,.04,1.68,.08,.82,.13,1.25,.15,1.3,.15,.03,1.12,.04,2.91,.04,2.63,0,4.18,.03,4.67,.08,.33,1.51,.34,2.78,.04,3.83Z"/><path class="cls-1" d="M46.44,35.2c-.13,.46-.2,.84-.23,1.15,0,.08,0,.17,.02,.27,.01,.1,.02,.17,.02,.19,0,.05-.03,.13-.08,.25-.05,.11-.09,.21-.12,.29-.25,.79-.73,1.47-1.42,2.03-.08,.08-.16,.15-.25,.21-.09,.06-.19,.13-.31,.19-.12,.06-.2,.12-.25,.17-.36,.25-.64,.43-.84,.54-.41,.18-1.03,.41-1.88,.69l-.54,.12c-.59,.15-1.15,.18-1.68,.08l-.57-.11c-.08-.03-.18-.04-.31-.04h-.27c-.41-.1-.84-.31-1.3-.61-1.38-.82-2.36-1.76-2.95-2.83-.43-.71-.66-1.43-.69-2.14-.03-.1-.03-.22,0-.34s.03-.24,0-.34c0-.13,0-.25-.02-.38-.01-.13-.03-.27-.06-.44-.03-.17-.04-.3-.04-.4-.05-.13-.05-.46,0-.99,.05-.54,.08-.87,.08-1,0-.15,0-.37-.02-.65-.01-.28-.02-.48-.02-.61,0-.08,0-.19,.02-.34,.01-.15,.02-.27,.02-.34-.05-.94-.06-1.66-.04-2.14,.05-1.02,.08-1.77,.08-2.26-.05-.54-.04-2.01,.04-4.44,0-.05,0-.13-.02-.23-.01-.1-.02-.17-.02-.19,0-.84,.03-1.35,.08-1.53l.23-.73c.05-.2,.13-.4,.25-.59,.12-.19,.2-.33,.27-.42,.06-.09,.18-.22,.36-.4,.18-.18,.29-.31,.34-.38,.13-.15,.24-.28,.34-.38s.24-.2,.42-.31c.18-.1,.31-.17,.38-.21,.08-.04,.25-.11,.52-.23,.27-.12,.43-.18,.48-.21,.08-.03,.22-.09,.44-.19,.22-.1,.39-.18,.52-.23,.2-.08,.99-.2,2.37-.38,.69-.05,1.25,.01,1.68,.19,.13,.03,.68,.27,1.65,.73,.23,.13,.52,.32,.88,.57,.36,.2,.57,.36,.65,.46,.08,.08,.22,.31,.42,.69,.18,.28,.52,1.02,1.03,2.22,.13,.71,.2,1.77,.21,3.16,.01,1.39,.03,2.23,.06,2.51,.05,.82,.06,1.43,.04,1.84-.03,.31-.03,.74,0,1.3,.03,.56,.04,.92,.04,1.07v1.22c.13,1.76,.12,3.41-.04,4.94Zm-4.13-11.1c0-.18,0-.46-.02-.86-.01-.39-.02-.71-.02-.94,0-1.25-.01-1.92-.04-2.03-.13-.43-.4-.83-.8-1.19-.03,0-.06,0-.12-.02-.05-.01-.1-.03-.15-.04s-.09-.03-.11-.06l-.42-.27c-.31-.13-.57-.19-.8-.19-.54,0-1.25,.17-2.14,.5l-.42,.46-.27,.31c-.03,.08-.06,.19-.1,.34-.04,.15-.08,.28-.13,.38,.02,.51,.01,2.22-.04,5.13-.05,2.81-.04,4.91,.04,6.31,.02,.38,.04,.91,.04,1.57,0,.77,.02,1.24,.08,1.42,.18,.43,.28,.69,.31,.77,0,.1,.01,.17,.04,.19,0,.03,.02,.06,.06,.11,.04,.05,.06,.1,.06,.15,.08,.08,.18,.19,.31,.34,.13,.15,.24,.28,.34,.38,.1,.1,.22,.18,.34,.23,.23,.1,.69,.15,1.38,.15,.82-.03,1.48-.32,1.99-.88,.05-.05,.09-.1,.11-.15,.03-.05,.05-.09,.08-.11l.31-.5c.18-.71,.23-1.26,.15-1.64,.08-.15,.11-.28,.11-.38,.13-1.07,.14-2.17,.04-3.29l-.15-3.25c-.03-.61-.04-1.59-.04-2.95Z"/><path class="cls-1" d="M61.94,40.79c-.56-1.22-1.29-2.95-2.18-5.17-.1-.2-.24-.54-.4-1.01-.17-.47-.29-.78-.36-.94l-.42-1.26c-.23-.54-.64-1.44-1.24-2.72-.6-1.28-1.05-2.31-1.36-3.1,0-.1-.07-.32-.21-.65-.14-.33-.25-.5-.33-.5-.15-.02-.23,.13-.23,.46,0,.46,.01,.7,.04,.73,0,.08,0,.31-.02,.69-.01,.38-.02,.65-.02,.8,.05,2.4,.08,4.31,.08,5.74,.08,1.94,.12,2.95,.12,3.02,.03,.21,.01,.51-.04,.92-.05,.41-.08,.69-.08,.84-.03,.08-.04,.23-.04,.46v.46c-.03,.13-.05,.19-.08,.19,.08,.1,.1,.25,.08,.46s-.03,.4,0,.57c-1.17,.38-2.53,.4-4.06,.04-.05-.23-.06-.7-.02-1.4,.04-.7,.06-1.18,.06-1.44l-.11-1.45v-4.13c0-1.1,.01-1.93,.04-2.49,.03-.56,.04-1.41,.04-2.54s.01-1.98,.04-2.54c.05-1.07,.05-2.72,0-4.94-.05-2.22-.05-3.89,0-5.01,1.68-.2,2.96-.25,3.83-.15,.1,.18,.22,.45,.36,.82,.14,.37,.25,.63,.33,.78l.73,1.53c.05,.1,.19,.45,.42,1.03,.23,.59,.42,1.03,.57,1.34,.2,.43,.32,.68,.34,.73,.03,.08,.17,.47,.42,1.19,.28,.59,.68,1.52,1.19,2.81,.51,1.29,.92,2.25,1.22,2.89,.02,.05,.1,.2,.23,.46,.13,.25,.22,.46,.27,.61l.57,1.03c.05,0,.11-.01,.17-.04,.06-.02,.12-.02,.17,0,.05-.2,.09-.53,.12-.98,.03-.45,.05-.77,.08-.98,.08-.59,.09-1.44,.04-2.56-.03-.25-.04-1.39-.04-3.41v-5.55c0-1.02,.03-1.58,.08-1.68,1.58-.2,2.87-.19,3.86,.04,0,.41,.01,1.26,.04,2.54s.01,2.14-.04,2.54c-.08,2.04-.12,5-.12,8.88-.03,.43-.02,1.04,.02,1.82,.04,.78,.06,1.33,.06,1.66-.05,.41-.08,.7-.08,.88,.05,.64,.1,2.22,.15,4.74,0,1.76,.01,2.75,.04,2.98-1.96,.15-3.41,.13-4.32-.08Z"/><path class="cls-1" d="M85.47,30.23s-.01,.08-.04,.17c-.03,.09-.04,.16-.04,.21-.03,.28-.01,.7,.04,1.26,.08,.59,.04,1.56-.12,2.91-.03,.05-.01,.08,.04,.1,.05,.01,.08,.04,.08,.1-.03,.79-.23,1.58-.61,2.37-.03,.13-.1,.26-.23,.38-.41,.84-.77,1.39-1.07,1.65-.03,.05-.08,.09-.15,.12l-.04,.04c-.08,.05-.17,.14-.27,.27-.1,.13-.19,.22-.27,.27-.31,.23-.63,.4-.96,.5-.33,.13-1.05,.22-2.14,.27-3.95,.2-6.57,.27-7.84,.19-.2-1.71-.23-4.09-.08-7.16,.02-.36,.02-.87,0-1.53-.03-.66-.04-1.16-.04-1.49,0-1.15,.03-1.89,.08-2.22,0-.02-.03-.05-.08-.08s-.06-.06-.04-.12c-.05-.74-.05-1.56,0-2.45,0-.25-.01-.67-.04-1.24-.03-.57-.04-1.01-.04-1.32,.05-1.17,.08-1.86,.08-2.07-.05-.89-.08-3.09-.08-6.58,1.68-.1,4.09-.08,7.23,.08,.18,0,.42,.03,.73,.08,.31,.05,.51,.08,.61,.08,.08,.03,.41,.08,1,.15h.23l.46,.23,.42,.23c.64,.33,1.15,.68,1.53,1.03,.46,.48,.83,1.24,1.11,2.26,.05,.13,.18,.57,.38,1.34,.08,.43,.09,1.08,.04,1.95,0,2.04,.04,3.38,.11,4.02-.03,.03-.04,.11-.04,.27-.03,.23-.03,.56,0,1s.04,.71,.04,.84v1.91Zm-4.09-1.26c-.05-3.21-.05-5.38,0-6.5,.05-.94,.05-1.56,0-1.84-.18-.89-.57-1.49-1.19-1.8-.51-.31-1.12-.43-1.84-.38l-1.11,.08c-.69,0-1.07,.05-1.15,.15-.05,.05-.08,.15-.08,.31s0,.3,.02,.44c.01,.14,0,.27-.02,.4-.03,.41-.03,.96-.02,1.64,.01,.69,.02,1.22,.02,1.61-.05,.43-.08,.98-.08,1.63v1.17c0,1.2,.01,2.09,.04,2.68v1.88c.03,.43,.04,1.11,.04,2.03v1.91c.05,.77,.06,1.37,.04,1.8v.73s.04,.02,.04,.06,.01,.08,.04,.13c.18,.08,.47,.12,.88,.12,.94,.05,1.66,.03,2.14-.08,.94-.18,1.58-.5,1.91-.96l.12-.57c.15-.46,.23-.94,.23-1.45,.05-.31,.05-.6,0-.88-.03-1.1-.04-2.53-.04-4.29Z"/><path class="cls-1" d="M103.03,35.2c-.13,.46-.2,.84-.23,1.15,0,.08,0,.17,.02,.27,.01,.1,.02,.17,.02,.19,0,.05-.03,.13-.08,.25-.05,.11-.09,.21-.12,.29-.25,.79-.73,1.47-1.42,2.03-.08,.08-.16,.15-.25,.21-.09,.06-.19,.13-.31,.19-.12,.06-.2,.12-.25,.17-.36,.25-.64,.43-.84,.54-.41,.18-1.03,.41-1.88,.69l-.54,.12c-.59,.15-1.15,.18-1.68,.08l-.57-.11c-.08-.03-.18-.04-.31-.04h-.27c-.41-.1-.84-.31-1.3-.61-1.38-.82-2.36-1.76-2.95-2.83-.43-.71-.66-1.43-.69-2.14-.03-.1-.03-.22,0-.34s.03-.24,0-.34c0-.13,0-.25-.02-.38-.01-.13-.03-.27-.06-.44-.03-.17-.04-.3-.04-.4-.05-.13-.05-.46,0-.99,.05-.54,.08-.87,.08-1,0-.15,0-.37-.02-.65-.01-.28-.02-.48-.02-.61,0-.08,0-.19,.02-.34,.01-.15,.02-.27,.02-.34-.05-.94-.06-1.66-.04-2.14,.05-1.02,.08-1.77,.08-2.26-.05-.54-.04-2.01,.04-4.44,0-.05,0-.13-.02-.23-.01-.1-.02-.17-.02-.19,0-.84,.03-1.35,.08-1.53l.23-.73c.05-.2,.13-.4,.25-.59,.12-.19,.2-.33,.27-.42,.06-.09,.18-.22,.36-.4,.18-.18,.29-.31,.34-.38,.13-.15,.24-.28,.34-.38s.24-.2,.42-.31c.18-.1,.31-.17,.38-.21,.08-.04,.25-.11,.52-.23,.27-.12,.43-.18,.48-.21,.08-.03,.22-.09,.44-.19,.22-.1,.39-.18,.52-.23,.2-.08,.99-.2,2.37-.38,.69-.05,1.25,.01,1.68,.19,.13,.03,.68,.27,1.65,.73,.23,.13,.52,.32,.88,.57,.36,.2,.57,.36,.65,.46,.08,.08,.22,.31,.42,.69,.18,.28,.52,1.02,1.03,2.22,.13,.71,.2,1.77,.21,3.16,.01,1.39,.03,2.23,.06,2.51,.05,.82,.06,1.43,.04,1.84-.03,.31-.03,.74,0,1.3,.03,.56,.04,.92,.04,1.07v1.22c.13,1.76,.12,3.41-.04,4.94Zm-4.13-11.1c0-.18,0-.46-.02-.86-.01-.39-.02-.71-.02-.94,0-1.25-.01-1.92-.04-2.03-.13-.43-.4-.83-.8-1.19-.03,0-.06,0-.12-.02-.05-.01-.1-.03-.15-.04s-.09-.03-.11-.06l-.42-.27c-.31-.13-.57-.19-.8-.19-.54,0-1.25,.17-2.14,.5l-.42,.46-.27,.31c-.03,.08-.06,.19-.1,.34-.04,.15-.08,.28-.13,.38,.02,.51,.01,2.22-.04,5.13-.05,2.81-.04,4.91,.04,6.31,.02,.38,.04,.91,.04,1.57,0,.77,.02,1.24,.08,1.42,.18,.43,.28,.69,.31,.77,0,.1,.01,.17,.04,.19,0,.03,.02,.06,.06,.11,.04,.05,.06,.1,.06,.15,.08,.08,.18,.19,.31,.34,.13,.15,.24,.28,.34,.38,.1,.1,.22,.18,.34,.23,.23,.1,.69,.15,1.38,.15,.82-.03,1.48-.32,1.99-.88,.05-.05,.09-.1,.11-.15,.03-.05,.05-.09,.08-.11l.31-.5c.18-.71,.23-1.26,.15-1.64,.08-.15,.11-.28,.11-.38,.13-1.07,.14-2.17,.04-3.29l-.15-3.25c-.03-.61-.04-1.59-.04-2.95Z"/><path class="cls-1" d="M118.53,40.79c-.56-1.22-1.29-2.95-2.18-5.17-.1-.2-.24-.54-.4-1.01-.17-.47-.29-.78-.36-.94l-.42-1.26c-.23-.54-.64-1.44-1.24-2.72-.6-1.28-1.05-2.31-1.36-3.1,0-.1-.07-.32-.21-.65-.14-.33-.25-.5-.33-.5-.15-.02-.23,.13-.23,.46,0,.46,.01,.7,.04,.73,0,.08,0,.31-.02,.69-.01,.38-.02,.65-.02,.8,.05,2.4,.08,4.31,.08,5.74,.08,1.94,.12,2.95,.12,3.02,.03,.21,.01,.51-.04,.92-.05,.41-.08,.69-.08,.84-.03,.08-.04,.23-.04,.46v.46c-.03,.13-.05,.19-.08,.19,.08,.1,.1,.25,.08,.46s-.03,.4,0,.57c-1.17,.38-2.53,.4-4.06,.04-.05-.23-.06-.7-.02-1.4,.04-.7,.06-1.18,.06-1.44l-.11-1.45v-4.13c0-1.1,.01-1.93,.04-2.49,.03-.56,.04-1.41,.04-2.54s.01-1.98,.04-2.54c.05-1.07,.05-2.72,0-4.94-.05-2.22-.05-3.89,0-5.01,1.68-.2,2.96-.25,3.83-.15,.1,.18,.22,.45,.36,.82,.14,.37,.25,.63,.33,.78l.73,1.53c.05,.1,.19,.45,.42,1.03,.23,.59,.42,1.03,.57,1.34,.2,.43,.32,.68,.34,.73,.03,.08,.17,.47,.42,1.19,.28,.59,.68,1.52,1.19,2.81,.51,1.29,.92,2.25,1.22,2.89,.02,.05,.1,.2,.23,.46,.13,.25,.22,.46,.27,.61l.57,1.03c.05,0,.11-.01,.17-.04,.06-.02,.12-.02,.17,0,.05-.2,.09-.53,.12-.98,.03-.45,.05-.77,.08-.98,.08-.59,.09-1.44,.04-2.56-.03-.25-.04-1.39-.04-3.41v-5.55c0-1.02,.03-1.58,.08-1.68,1.58-.2,2.87-.19,3.86,.04,0,.41,.01,1.26,.04,2.54s.01,2.14-.04,2.54c-.08,2.04-.12,5-.12,8.88-.03,.43-.02,1.04,.02,1.82,.04,.78,.06,1.33,.06,1.66-.05,.41-.08,.7-.08,.88,.05,.64,.1,2.22,.15,4.74,0,1.76,.01,2.75,.04,2.98-1.96,.15-3.41,.13-4.32-.08Z"/><path class="cls-1" d="M141.29,36.05c-.08,.54-.31,1.14-.69,1.8-.23,.51-.43,.85-.61,1.03-.18,.25-.57,.56-1.19,.92-.13,.1-.33,.25-.61,.44-.28,.19-.49,.34-.61,.44-.08,.03-.36,.1-.86,.23-.5,.13-.89,.22-1.17,.27-.13,.03-.79,0-1.99-.08-.03,0-.13,0-.33,.02s-.3,0-.33-.02c-1.33-.13-2.32-.48-2.98-1.07-.05,0-.08-.03-.08-.08l.04-.08c-.08-.02-.27-.17-.57-.42-.08-.23-.13-.34-.15-.34h-.15c-.1-.1-.24-.29-.42-.57-.59-.82-.93-1.76-1.03-2.83-.13-1.89-.13-3.78,0-5.66,.02-.23,0-.57-.06-1.03-.06-.46-.1-.73-.1-.8-.03-.71-.01-1.76,.04-3.14l.12-2.79c0-1.35,.05-2.27,.15-2.75l.31-1.22c.13-.48,.34-.97,.65-1.45,.13-.13,.2-.19,.23-.19-.03-.08-.03-.15,0-.23,.08-.1,.38-.32,.92-.65,.1-.05,.27-.13,.5-.23,.23-.1,.39-.19,.5-.27,.05-.02,.25-.13,.61-.33,.36-.19,.62-.31,.8-.36,.33-.1,.97-.13,1.91-.08h.69c.48,.03,.85,.06,1.11,.11,.1,.03,.33,.06,.67,.1s.61,.1,.78,.17l.61,.19,.42,.38,1.11,1.03c.08,.1,.2,.28,.38,.54,.18,.25,.32,.47,.42,.65,.33,.56,.56,1.28,.69,2.14,.05,.41,.08,1.01,.08,1.82v1.47c-1.74,.23-3.06,.23-3.98,0,.03-.64,.04-1.22,.06-1.74,.01-.52-.07-1.01-.25-1.47-.18-.46-.46-.8-.84-1.03-.41-.31-.97-.43-1.68-.38-1.07,.03-1.91,.43-2.53,1.22-.33,.66-.41,1.96-.23,3.9,.03,.23,.03,.54,0,.94s-.04,.67-.04,.82c-.03,.25-.03,.61,0,1.05,.03,.45,.04,.73,.04,.86,0,.23-.01,.55-.04,.96-.03,.41-.04,.7-.04,.88,0,.15,0,.32,.02,.5,.01,.18,.02,.34,.02,.5v.13s0,.08,.02,.13,.02,.1,.02,.15v.75c0,.4,.03,.71,.08,.94-.05,.18-.08,.49-.08,.94s-.01,.81-.04,1.09c-.05,.43,0,.73,.15,.88,.02,.69,.36,1.22,.99,1.61,.1,.03,.4,.13,.88,.31,.64,.13,1.35,.05,2.14-.23l.69-.38,.31-.19c.03-.05,.05-.13,.08-.25,.02-.12,.05-.2,.08-.25,.18-.31,.28-.54,.31-.69,.03-.05,.03-.11,0-.17-.03-.06-.04-.11-.04-.13l.15-.8c0-.18-.03-.67-.08-1.49,.74-.31,2.1-.34,4.09-.11v1.84c0,1.05-.03,1.67-.08,1.88Z"/><path class="cls-1" d="M156.86,40.94c-.1-.48-.26-1.19-.48-2.1-.22-.92-.36-1.59-.44-2.03-.2-.71-.31-1.08-.31-1.11-.66-.05-1.64-.04-2.93,.02-1.29,.06-2.16,.1-2.62,.1-.08,.08-.2,.5-.38,1.26l-.31,1.34c-.08,.28-.17,.71-.29,1.3-.11,.59-.22,1.02-.33,1.3-1.5,.13-2.87,.14-4.09,.04,.13-.69,.32-1.77,.57-3.23,.25-1.47,.46-2.57,.61-3.31l.31-1.22c.15-.59,.33-1.48,.52-2.68s.36-2.1,.52-2.72l.34-1.26,.23-1.26c.08-.36,.34-1.67,.8-3.94,.05-.2,.12-.48,.21-.84,.09-.36,.17-.68,.23-.98,.06-.29,.11-.55,.13-.78,.43-2.45,.71-3.85,.84-4.21,1.28-.2,3.05-.2,5.32,0,.1,.64,.28,1.57,.54,2.79l.15,.54s.04,.28,.12,.77,.19,.93,.34,1.34c.1,.36,.31,1.22,.61,2.6,.08,.28,.18,.81,.31,1.59,.13,.78,.25,1.37,.38,1.78,.15,.48,.33,1.24,.52,2.28s.35,1.79,.48,2.28c.08,.31,.15,.76,.23,1.36,.08,.6,.17,1.05,.27,1.36,.03,.13,.09,.34,.19,.63,.1,.29,.18,.52,.23,.67,.23,1,.41,1.91,.54,2.75l.15,.57c.03,.05,.04,.12,.04,.19v.19c0,.05,.02,.1,.06,.15s.06,.09,.06,.11v.38c.02,.1,.06,.22,.1,.36,.04,.14,.07,.26,.1,.34,.02,.09,.05,.19,.08,.29,.05,.41,.08,.71,.08,.92-1.71,.13-3.05,.15-4.02,.08Zm-3.1-14.54c0-.08-.03-.19-.08-.34s-.09-.28-.11-.38l-.23-.8c-.15-.66-.28-1.15-.38-1.45v-.23c-.08,0-.14-.04-.19-.12-.05-.08-.13-.1-.23-.08-.05,.1-.1,.28-.13,.54-.04,.26-.07,.45-.1,.57l-.34,1.57c-.05,.21-.11,.5-.17,.88-.06,.38-.13,.73-.19,1.05-.06,.32-.13,.63-.21,.94l-.27,1.07-.08,.54c0,.05-.07,.27-.21,.67-.14,.4-.19,.71-.13,.94,.15,.03,1.48,0,3.98-.08,.05-.08,.05-.28,0-.61-.03-.1-.14-.75-.34-1.95-.21-1.2-.4-2.1-.57-2.72Z"/><path class="cls-1" d="M177.26,41.14c-1.17-.13-3.14-.15-5.91-.08s-4.79,.09-6.06,.04c0-.43,.02-1.17,.06-2.2s.04-1.83,.02-2.39c0-.15-.02-.41-.06-.76-.04-.36-.04-.64-.02-.84,0-.13,.01-.38,.04-.75s.03-.64,0-.82c0-.2-.02-.48-.06-.84-.04-.36-.06-.64-.06-.84,0-.15,.02-.64,.08-1.45,0-.2-.01-.48-.04-.84-.03-.36-.04-.64-.04-.84,0-.48,0-1.19,.02-2.1,.01-.92,.02-1.59,.02-2.03,0-.23,0-.55-.02-.98s-.02-.73-.02-.94c.05-.87,.08-1.5,.08-1.91-.05-2.83-.05-4.77,0-5.82,.36-.1,.75-.16,1.19-.17,.43-.01,.95,0,1.55,.02s1,.04,1.21,.04v5.82c.02,1.35,.04,3.38,.04,6.08,0,.82,.01,1.43,.04,1.84,.03,.23,.04,.55,.04,.98v.94c.13,.82,.19,1.59,.19,2.33,0,.31-.03,.84-.08,1.61-.03,.36-.01,.92,.04,1.68,.08,.82,.13,1.25,.15,1.3,.15,.03,1.12,.04,2.91,.04,2.63,0,4.18,.03,4.67,.08,.33,1.51,.34,2.78,.04,3.83Z"/><path class="cls-1" d="M193.9,41.14c-1.17-.13-3.14-.15-5.91-.08s-4.79,.09-6.06,.04c0-.43,.02-1.17,.06-2.2s.04-1.83,.02-2.39c0-.15-.02-.41-.06-.76-.04-.36-.04-.64-.02-.84,0-.13,.01-.38,.04-.75s.03-.64,0-.82c0-.2-.02-.48-.06-.84-.04-.36-.06-.64-.06-.84,0-.15,.02-.64,.08-1.45,0-.2-.01-.48-.04-.84-.03-.36-.04-.64-.04-.84,0-.48,0-1.19,.02-2.1,.01-.92,.02-1.59,.02-2.03,0-.23,0-.55-.02-.98s-.02-.73-.02-.94c.05-.87,.08-1.5,.08-1.91-.05-2.83-.05-4.77,0-5.82,.36-.1,.75-.16,1.19-.17,.43-.01,.95,0,1.55,.02s1,.04,1.21,.04v5.82c.02,1.35,.04,3.38,.04,6.08,0,.82,.01,1.43,.04,1.84,.03,.23,.04,.55,.04,.98v.94c.13,.82,.19,1.59,.19,2.33,0,.31-.03,.84-.08,1.61-.03,.36-.01,.92,.04,1.68,.08,.82,.13,1.25,.15,1.3,.15,.03,1.12,.04,2.91,.04,2.63,0,4.18,.03,4.67,.08,.33,1.51,.34,2.78,.04,3.83Z"/><path class="cls-1" d="M198.72,14.81c.66-.08,1.84-.11,3.52-.11,.03,0,.1,0,.23-.02s.2,0,.23,.06c.03,.66,.03,1.7,.02,3.1-.01,1.4,0,2.51,.02,3.33v4.86c0,.13,.01,.31,.04,.55,.03,.24,.04,.45,.06,.63,.01,.18,.02,.34,.02,.5,0,.03-.03,.06-.08,.11-.03,.03-.04,.06-.04,.12,0,.08,0,.2,.02,.38s.02,.32,.02,.42v2.22c-.03,1.15,0,2.86,.1,5.15,.09,2.28,.11,4,.06,5.15-.1-.1-.27-.13-.5-.08-.2,0-.49,.02-.86,.06-.37,.04-.61,.06-.71,.06-.21,0-.42,0-.63-.02-.22-.01-.47-.03-.75-.06s-.51-.04-.69-.04c.03-.41,.02-1.02-.02-1.84-.04-.82-.06-1.4-.06-1.76,0-.13,.01-.33,.04-.61,.03-.28,.04-.5,.04-.65,0-.31,.01-.94,.04-1.91,.03-.97,.01-1.63-.04-1.99-.05-.33-.08-.8-.08-1.42v-1.15c-.08-1.81-.09-4.54-.04-8.19,.02-.36,.02-.86,0-1.51-.03-.65-.04-1.08-.04-1.28v-2.79c0-.13,.01-.34,.04-.65,.02-.31,.04-.51,.04-.61Z"/><path class="cls-1" d="M219.12,40.79c-.56-1.22-1.29-2.95-2.18-5.17-.1-.2-.24-.54-.4-1.01-.17-.47-.29-.78-.36-.94l-.42-1.26c-.23-.54-.64-1.44-1.24-2.72-.6-1.28-1.05-2.31-1.36-3.1,0-.1-.07-.32-.21-.65-.14-.33-.25-.5-.33-.5-.15-.02-.23,.13-.23,.46,0,.46,.01,.7,.04,.73,0,.08,0,.31-.02,.69-.01,.38-.02,.65-.02,.8,.05,2.4,.08,4.31,.08,5.74,.08,1.94,.12,2.95,.12,3.02,.03,.21,.01,.51-.04,.92-.05,.41-.08,.69-.08,.84-.03,.08-.04,.23-.04,.46v.46c-.03,.13-.05,.19-.08,.19,.08,.1,.1,.25,.08,.46s-.03,.4,0,.57c-1.17,.38-2.53,.4-4.06,.04-.05-.23-.06-.7-.02-1.4,.04-.7,.06-1.18,.06-1.44l-.11-1.45v-4.13c0-1.1,.01-1.93,.04-2.49,.03-.56,.04-1.41,.04-2.54s.01-1.98,.04-2.54c.05-1.07,.05-2.72,0-4.94-.05-2.22-.05-3.89,0-5.01,1.68-.2,2.96-.25,3.83-.15,.1,.18,.22,.45,.36,.82,.14,.37,.25,.63,.33,.78l.73,1.53c.05,.1,.19,.45,.42,1.03,.23,.59,.42,1.03,.57,1.34,.2,.43,.32,.68,.34,.73,.03,.08,.17,.47,.42,1.19,.28,.59,.68,1.52,1.19,2.81,.51,1.29,.92,2.25,1.22,2.89,.02,.05,.1,.2,.23,.46,.13,.25,.22,.46,.27,.61l.57,1.03c.05,0,.11-.01,.17-.04,.06-.02,.12-.02,.17,0,.05-.2,.09-.53,.12-.98,.03-.45,.05-.77,.08-.98,.08-.59,.09-1.44,.04-2.56-.03-.25-.04-1.39-.04-3.41v-5.55c0-1.02,.03-1.58,.08-1.68,1.58-.2,2.87-.19,3.86,.04,0,.41,.01,1.26,.04,2.54s.01,2.14-.04,2.54c-.08,2.04-.12,5-.12,8.88-.03,.43-.02,1.04,.02,1.82,.04,.78,.06,1.33,.06,1.66-.05,.41-.08,.7-.08,.88,.05,.64,.1,2.22,.15,4.74,0,1.76,.01,2.75,.04,2.98-1.96,.15-3.41,.13-4.32-.08Z"/><path class="cls-1" d="M241.85,21.81c-.08,.77-.1,1.19-.08,1.26-1.1,.08-2.46,.04-4.09-.11,.18-1.35,.08-2.42-.31-3.21-.23-.51-.47-.84-.73-.99-.56-.43-1.19-.57-1.88-.42-.1,.03-.26,.08-.48,.17-.22,.09-.36,.15-.44,.17-.05,.03-.14,.06-.27,.12-.13,.05-.23,.09-.31,.11l-.42,.34c-.43,.31-.69,.74-.77,1.3-.03,.33-.02,.89,.02,1.68,.04,.79,.03,1.38-.02,1.76-.05,.43-.05,1.3,0,2.6,0,.1-.01,.25-.04,.46s-.04,.36-.04,.46c.05,.36,.08,.64,.08,.84,0,.1,0,.25-.02,.44-.01,.19-.02,.34-.02,.44-.05,2.27-.04,3.84,.04,4.71,.18,1.15,.31,1.81,.38,1.99l.12,.31c.05,.1,.17,.22,.36,.36,.19,.14,.3,.24,.33,.29,.94,.26,1.65,.33,2.1,.23,.56-.2,1.05-.43,1.45-.69l.27-.27c.56-.64,.78-1.67,.65-3.1-.03-.15-.04-.53-.04-1.13s-.06-1.03-.19-1.28c-.18,.05-.55,.07-1.13,.06s-.94-.02-1.09-.02c-.13-1.56-.05-2.77,.23-3.63h2.03c.25-.03,.59-.02,1.01,.02,.42,.04,.73,.06,.94,.06h.8c.87,0,1.36-.01,1.49-.04,.05,.61,.04,1.44-.04,2.49s-.12,1.79-.12,2.22c0,.51,.03,1.25,.08,2.22,0,1.05,.01,1.82,.04,2.33v.59c0,.22,.01,.39,.04,.52,0,.1,.03,.18,.08,.23v1.42c0,.08-.01,.22-.04,.42s-.04,.36-.04,.46c0,.46-.03,.75-.08,.88l.15,.12c-.33,.1-.75,.14-1.26,.11-.15-.03-.35-.07-.59-.13s-.4-.1-.48-.1l-.19-.8c-.03-.08-.05-.17-.08-.29-.03-.11-.05-.21-.08-.29-.03-.08-.06-.12-.12-.12-.1-.03-.17-.01-.21,.04-.04,.05-.07,.14-.1,.27-.13,.08-.2,.17-.23,.27l-1.26,.57c-.54,.31-1.01,.51-1.42,.61-.31,.08-.82,.12-1.53,.12-.61,.05-1.12,.03-1.53-.08-.13-.05-.27-.13-.42-.23-.08-.02-.19-.06-.34-.1-.15-.04-.29-.08-.4-.11-.12-.04-.21-.08-.29-.13-.25-.15-.65-.5-1.19-1.03-.08-.08-.32-.38-.73-.92-.71-.92-1.11-1.75-1.19-2.49-.05-.1-.07-.32-.06-.65,.01-.33,.02-.55,.02-.65,0-.05-.01-.12-.04-.19-.03-.08-.04-.13-.04-.15v-.98c0-.45-.01-.78-.04-1.01,0-.46,.01-.8,.04-1.03,0-.1,0-.25-.02-.46s-.02-.34-.02-.42c0-3.67-.01-5.75-.04-6.24-.1-.92-.14-1.85-.11-2.79,.05-1.48,.13-2.4,.23-2.75,.05-.15,.13-.24,.23-.27,0-.31,.18-.74,.54-1.3,.41-.69,.88-1.17,1.42-1.45,.1-.1,.28-.2,.54-.31,.25-.1,.45-.2,.57-.31,.18-.15,.56-.33,1.15-.54,1.17-.18,2.4-.25,3.67-.23,.18,.08,.42,.15,.73,.23,.31,.08,.51,.13,.61,.15,.31,.08,.62,.19,.96,.34,.46,.2,.92,.56,1.38,1.07l.42,.57c.31,.33,.61,.92,.92,1.76,.46,1.12,.64,2.21,.54,3.25Z"/></g></g></g></svg>