<?xml version="1.0" encoding="UTF-8"?><svg id="Layer_2" xmlns="http://www.w3.org/2000/svg" viewBox="0 0 436.4 22.2"><defs><style>.cls-1{fill:#27346b;}</style></defs><g id="Layer_3"><g><path class="cls-1" d="M7.95,.6h6.3l7.95,21h-6.15l-1.5-4.5H7.65l-1.5,4.5H0L7.95,.6Zm5.1,11.85l-1.89-6h-.12l-1.89,6h3.9Z"/><path class="cls-1" d="M31.05,.6h5.7v7.65h7.65V.6h5.7V21.6h-5.7v-7.95h-7.65v7.95h-5.7V.6Z"/><path class="cls-1" d="M65.23,0c6.72,0,11.7,4.95,11.7,11.1s-4.98,11.1-11.7,11.1-11.7-4.95-11.7-11.1S58.51,0,65.23,0Zm0,16.95c3.27,0,5.85-2.55,5.85-5.85s-2.58-5.85-5.85-5.85-5.85,2.58-5.85,5.85,2.55,5.85,5.85,5.85Z"/><path class="cls-1" d="M80.37,.6h5.7v15.6h9.15v5.4h-14.85V.6Z"/><path class="cls-1" d="M97.73,.6h5.7V21.6h-5.7V.6Z"/><path class="cls-1" d="M108.06,.6h7.8c6.75,0,11.4,4.65,11.4,10.5s-4.65,10.5-11.4,10.5h-7.8V.6Zm7.8,15.9c3.27,0,5.55-2.28,5.55-5.4s-2.28-5.4-5.55-5.4h-2.1v10.8h2.1Z"/><path class="cls-1" d="M135.25,.6h6.3l7.95,21h-6.15l-1.5-4.5h-6.9l-1.5,4.5h-6.15L135.25,.6Zm5.1,11.85l-1.89-6h-.12l-1.89,6h3.9Z"/><path class="cls-1" d="M154.66,14.1l-7.5-13.5h6.3l3.99,8.25h.12l3.99-8.25h6.3l-7.5,13.5v7.5h-5.7v-7.5Z"/><path class="cls-1" d="M180.61,5.7h-5.85V.6h17.4V5.7h-5.85v15.9h-5.7V5.7Z"/><path class="cls-1" d="M205.16,0c6.72,0,11.7,4.95,11.7,11.1s-4.98,11.1-11.7,11.1-11.7-4.95-11.7-11.1,4.98-11.1,11.7-11.1Zm0,16.95c3.27,0,5.85-2.55,5.85-5.85s-2.58-5.85-5.85-5.85-5.85,2.58-5.85,5.85,2.55,5.85,5.85,5.85Z"/><path class="cls-1" d="M227.06,.6h5.7v15.6h9.15v5.4h-14.85V.6Z"/><path class="cls-1" d="M255.03,0c6.72,0,11.7,4.95,11.7,11.1s-4.98,11.1-11.7,11.1-11.7-4.95-11.7-11.1,4.98-11.1,11.7-11.1Zm0,16.95c3.27,0,5.85-2.55,5.85-5.85s-2.58-5.85-5.85-5.85-5.85,2.58-5.85,5.85,2.55,5.85,5.85,5.85Z"/><path class="cls-1" d="M270.16,.6h4.95l9,11.55V.6h5.7V21.6h-4.95l-9-11.55v11.55h-5.7V.6Z"/><path class="cls-1" d="M294.51,.6h7.8c6.75,0,11.4,4.65,11.4,10.5s-4.65,10.5-11.4,10.5h-7.8V.6Zm7.8,15.9c3.27,0,5.55-2.28,5.55-5.4s-2.28-5.4-5.55-5.4h-2.1v10.8h2.1Z"/><path class="cls-1" d="M327.65,0c6.72,0,11.7,4.95,11.7,11.1s-4.98,11.1-11.7,11.1-11.7-4.95-11.7-11.1,4.98-11.1,11.7-11.1Zm0,16.95c3.27,0,5.85-2.55,5.85-5.85s-2.58-5.85-5.85-5.85-5.85,2.58-5.85,5.85,2.55,5.85,5.85,5.85Z"/><path class="cls-1" d="M342.78,.6h4.95l9,11.55V.6h5.7V21.6h-4.95l-9-11.55v11.55h-5.7V.6Z"/><path class="cls-1" d="M373.83,.6h15.9V6h-10.2v3.6h7.8v5.1h-7.8v6.9h-5.7V.6Z"/><path class="cls-1" d="M402.96,0c6.72,0,11.7,4.95,11.7,11.1s-4.98,11.1-11.7,11.1-11.7-4.95-11.7-11.1,4.98-11.1,11.7-11.1Zm0,16.95c3.27,0,5.85-2.55,5.85-5.85s-2.58-5.85-5.85-5.85-5.85,2.58-5.85,5.85,2.55,5.85,5.85,5.85Z"/><path class="cls-1" d="M418.1,.6h9.9c4.47,0,7.65,3.15,7.65,7.2,0,2.28-.87,3.75-1.8,4.68-.51,.54-1.11,.99-1.8,1.32l4.35,7.8h-6l-3.45-6.6h-3.15v6.6h-5.7V.6Zm9.6,9.3c1.35,0,2.25-.9,2.25-2.1s-.9-2.1-2.25-2.1h-3.9v4.2h3.9Z"/></g></g></svg>