<?xml version="1.0" encoding="UTF-8"?><svg id="Layer_3" xmlns="http://www.w3.org/2000/svg" viewBox="0 0 1920 180"><defs><style>.cls-1{fill:#27346b;}</style></defs><path class="cls-1" d="M438.63,38.61h3.92v8.46c0,1.65,1.13,2.79,2.68,2.79s2.68-1.13,2.68-2.79v-8.46h3.92v8.46c0,3.71-2.7,6.39-6.6,6.39s-6.6-2.68-6.6-6.39v-8.46Z"/><path class="cls-1" d="M456.02,48.51c.25,.29,.54,.56,.85,.78,.56,.39,1.32,.76,2.25,.76,1.24,0,1.86-.6,1.86-1.24,0-1.96-6.81-1.13-6.81-6.19,0-2.27,2.06-4.44,5.47-4.44,1.75,0,3.01,.52,3.84,1.03,.47,.31,.89,.64,1.22,1.03l-2.27,2.48c-.19-.21-.39-.39-.64-.56-.41-.31-1.01-.58-1.73-.58-1.16,0-1.65,.52-1.65,1.03,0,1.96,6.81,1.13,6.81,6.19,0,2.48-2.14,4.64-5.67,4.64-1.98,0-3.38-.6-4.35-1.24-.56-.35-1.03-.76-1.42-1.24l2.27-2.48Z"/><path class="cls-1" d="M467.51,38.61h11.04v3.51h-7.12v2.06h5.47v3.3h-5.47v2.06h7.32v3.51h-11.24v-14.44Z"/><path class="cls-1" d="M499.29,50.68c-.45,.52-.99,.99-1.61,1.4-1.05,.72-2.62,1.38-4.68,1.38-4.62,0-8.05-3.4-8.05-7.63s3.42-7.63,8.05-7.63c2.06,0,3.59,.68,4.64,1.4,.6,.41,1.11,.87,1.55,1.38l-2.37,2.68c-.31-.35-.66-.66-1.05-.93-.68-.47-1.61-.93-2.76-.93-2.27,0-4.02,1.77-4.02,4.02s1.75,4.02,4.02,4.02c1.16,0,2.08-.45,2.81-.93,.41-.27,.78-.58,1.11-.93l2.37,2.68Z"/><path class="cls-1" d="M508.18,38.2c4.62,0,8.04,3.4,8.04,7.63s-3.42,7.63-8.04,7.63-8.05-3.4-8.05-7.63,3.42-7.63,8.05-7.63Zm0,11.66c2.25,0,4.02-1.75,4.02-4.02s-1.77-4.02-4.02-4.02-4.02,1.77-4.02,4.02,1.75,4.02,4.02,4.02Z"/><path class="cls-1" d="M518.65,38.61h5.36c4.64,0,7.84,3.2,7.84,7.22s-3.2,7.22-7.84,7.22h-5.36v-14.44Zm5.36,10.93c2.25,0,3.82-1.57,3.82-3.71s-1.57-3.71-3.82-3.71h-1.44v7.43h1.44Z"/><path class="cls-1" d="M534.27,38.61h11.04v3.51h-7.12v2.06h5.47v3.3h-5.47v2.06h7.32v3.51h-11.24v-14.44Z"/></svg>