<?xml version="1.0" encoding="UTF-8"?><svg id="Layer_2" xmlns="http://www.w3.org/2000/svg" viewBox="0 0 309.5 22.2"><defs><style>.cls-1{fill:#27346b;}</style></defs><g id="Layer_3"><g><path class="cls-1" d="M7.5,14.1L0,.6H6.3l3.99,8.25h.12L14.4,.6h6.3l-7.5,13.5v7.5H7.5v-7.5Z"/><path class="cls-1" d="M31.87,0c6.72,0,11.7,4.95,11.7,11.1s-4.98,11.1-11.7,11.1-11.7-4.95-11.7-11.1S25.15,0,31.87,0Zm0,16.95c3.27,0,5.85-2.55,5.85-5.85s-2.58-5.85-5.85-5.85-5.85,2.58-5.85,5.85,2.55,5.85,5.85,5.85Z"/><path class="cls-1" d="M46.79,.6h5.7V12.9c0,2.4,1.65,4.05,3.9,4.05s3.9-1.65,3.9-4.05V.6h5.7V12.9c0,5.4-3.93,9.3-9.6,9.3s-9.6-3.9-9.6-9.3V.6Z"/><path class="cls-1" d="M82.64,.6h6.3l7.95,21h-6.15l-1.5-4.5h-6.9l-1.5,4.5h-6.15L82.64,.6Zm5.1,11.85l-1.89-6h-.12l-1.89,6h3.9Z"/><path class="cls-1" d="M99.05,.6h4.95l9,11.55V.6h5.7V21.6h-4.95l-9-11.55v11.55h-5.7V.6Z"/><path class="cls-1" d="M123.4,.6h7.8c6.75,0,11.4,4.65,11.4,10.5s-4.65,10.5-11.4,10.5h-7.8V.6Zm7.8,15.9c3.27,0,5.55-2.28,5.55-5.4s-2.28-5.4-5.55-5.4h-2.1v10.8h2.1Z"/><path class="cls-1" d="M154,15.3c.33,.33,.72,.63,1.14,.9,.72,.45,1.77,.9,3.06,.9,1.8,0,2.7-.9,2.7-1.95s-.9-1.95-2.7-1.95h-2.1v-4.65h2.1c1.53,0,2.25-.75,2.25-1.8s-.72-1.8-2.25-1.8c-1.05,0-1.92,.39-2.52,.84-.36,.24-.66,.51-.93,.81l-3.3-3.45c.54-.57,1.2-1.11,1.95-1.56,1.29-.81,3.15-1.59,5.55-1.59,4.65,0,7.5,2.85,7.5,6,0,1.77-.87,2.85-1.8,3.54-.51,.39-1.11,.72-1.8,.96,.78,.27,1.47,.63,2.1,1.11,1.05,.81,2.1,2.1,2.1,4.14,0,3.45-3,6.45-8.25,6.45-2.55,0-4.56-.84-5.97-1.71-.81-.51-1.5-1.11-2.13-1.74l3.3-3.45Z"/><path class="cls-1" d="M177.1,.6h15.9V6h-10.2v3.6h7.8v5.1h-7.8v6.9h-5.7V.6Z"/><path class="cls-1" d="M195.99,.6h9.9c4.47,0,7.65,3.15,7.65,7.2,0,2.28-.87,3.75-1.8,4.68-.51,.54-1.11,.99-1.8,1.32l4.35,7.8h-6l-3.45-6.6h-3.15v6.6h-5.7V.6Zm9.6,9.3c1.35,0,2.25-.9,2.25-2.1s-.9-2.1-2.25-2.1h-3.9v4.2h3.9Z"/><path class="cls-1" d="M217.34,.6h5.7V21.6h-5.7V.6Z"/><path class="cls-1" d="M227.67,.6h16.05V5.7h-10.35v3h7.95v4.8h-7.95v3h10.65v5.1h-16.35V.6Z"/><path class="cls-1" d="M247.77,.6h4.95l9,11.55V.6h5.7V21.6h-4.95l-9-11.55v11.55h-5.7V.6Z"/><path class="cls-1" d="M272.12,.6h7.8c6.75,0,11.4,4.65,11.4,10.5s-4.65,10.5-11.4,10.5h-7.8V.6Zm7.8,15.9c3.27,0,5.55-2.28,5.55-5.4s-2.28-5.4-5.55-5.4h-2.1v10.8h2.1Z"/><path class="cls-1" d="M296.15,15c.36,.42,.78,.81,1.23,1.14,.81,.57,1.92,1.11,3.27,1.11,1.8,0,2.7-.87,2.7-1.8,0-2.85-9.9-1.65-9.9-9,0-3.3,3-6.45,7.95-6.45,2.55,0,4.38,.75,5.58,1.5,.69,.45,1.29,.93,1.77,1.5l-3.3,3.6c-.27-.3-.57-.57-.93-.81-.6-.45-1.47-.84-2.52-.84-1.68,0-2.4,.75-2.4,1.5,0,2.85,9.9,1.65,9.9,9,0,3.6-3.12,6.75-8.25,6.75-2.88,0-4.92-.87-6.33-1.8-.81-.51-1.5-1.11-2.07-1.8l3.3-3.6Z"/></g></g></svg>