<?xml version="1.0" encoding="UTF-8"?><svg id="Layer_2" xmlns="http://www.w3.org/2000/svg" viewBox="0 0 198.39 96.32"><defs><style>.cls-1{fill:#ff3008;}</style></defs><g id="Layer_3"><g><path class="cls-1" d="M8.21,73.74c6.47,0,11.37,4.9,11.37,11.06s-4.89,11.05-11.37,11.05H.55c-.3,0-.55-.25-.55-.55v-20.94c0-.31,.25-.55,.55-.55l7.66-.07Zm-3.47,4.27v13.58h3.47c3.7-.05,6.66-3.09,6.61-6.79,.1-3.65-2.78-6.69-6.43-6.79-.06,0-.12,0-.18,0h-3.47Z"/><path class="cls-1" d="M36.29,73.27c6.79,0,12,5.21,12,11.52s-5.21,11.53-12,11.53-12-5.21-12-11.53,5.21-11.5,12-11.5m0,18.76c4.01,0,7.26-3.25,7.26-7.26s-3.25-7.26-7.26-7.26-7.26,3.25-7.26,7.26c0,4.01,3.25,7.26,7.26,7.26"/><path class="cls-1" d="M64.82,73.27c6.79,0,12,5.21,12,11.52s-5.21,11.53-12,11.53-12-5.21-12-11.53,5.21-11.5,12-11.5m0,18.76c4.01,0,7.27-3.25,7.27-7.26,0-4.01-3.25-7.27-7.26-7.27-4.01,0-7.27,3.25-7.27,7.26h0c0,4.01,3.25,7.26,7.26,7.27"/><path class="cls-1" d="M83.09,74.31c0-.3,.25-.55,.55-.55h9.22c4.41,0,7.58,3.22,7.58,7.27,.03,2.73-1.5,5.24-3.95,6.47l4.25,7.52c.17,.25,.1,.6-.15,.76-.1,.07-.22,.1-.35,.09h-3.73c-.21,0-.41-.11-.5-.3l-4.1-7.44h-4.1v7.16c0,.31-.25,.55-.55,.55h-3.59c-.3,0-.55-.25-.55-.55l-.02-20.98Zm9.63,3.69h-4.89v5.84h4.89c1.58,.07,2.93-1.15,3-2.74,0-.03,0-.07,0-.1,.06-1.6-1.2-2.95-2.8-3-.07,0-.14,0-.2,0"/><path class="cls-1" d="M116.28,73.84c6.48,0,11.37,4.89,11.37,11.06s-4.9,11.05-11.37,11.05h-7.65c-.3,0-.55-.25-.55-.55v-21.01c0-.31,.25-.55,.55-.55h7.65Zm-3.49,4.27v13.58h3.49c3.7-.05,6.66-3.09,6.61-6.79,.1-3.65-2.78-6.69-6.43-6.79-.06,0-.12,0-.18,0h-3.49Z"/><path class="cls-1" d="M137.81,90.61l-1.76,4.83c-.08,.24-.3,.39-.55,.38h-3.79c-.3,.03-.57-.19-.6-.5,0-.1,0-.2,.05-.29l8.24-20.94c.08-.23,.31-.38,.55-.36h4.27c.24-.01,.47,.13,.55,.36l8.23,20.94c.13,.28,.01,.6-.26,.73-.09,.04-.19,.06-.29,.05h-3.81c-.25,.01-.47-.14-.55-.38l-1.76-4.83h-8.52Zm4.27-11.37l-2.68,7.27h5.37l-2.68-7.27Z"/><path class="cls-1" d="M157.42,79.72c0-3.48,3-6.48,7.74-6.48,2.54-.06,5,.87,6.87,2.58,.22,.22,.22,.59,0,.81l-2.13,2.13c-.21,.22-.56,.22-.78,0,0,0,0,0,0,0-1-.91-2.3-1.43-3.66-1.44-1.9,0-3.31,1.1-3.31,2.37,0,4.1,11.2,1.74,11.2,9.63,0,3.95-3,6.94-8.37,6.94-2.98,.04-5.86-1.12-7.99-3.21-.22-.22-.22-.58,0-.81l2.04-2.04c.21-.22,.56-.23,.78-.01h.01c1.3,1.26,3.03,1.96,4.83,1.98,2.37,0,3.93-1.27,3.93-2.84,0-4.1-11.2-1.74-11.2-9.63"/><path class="cls-1" d="M193.68,74.29v8.27h-9.47v-8.27c0-.3-.25-.55-.55-.55h-3.61c-.31,0-.55,.25-.55,.55v20.94c0,.3,.25,.55,.55,.55h3.59c.3,0,.55-.25,.55-.55v-8.43h9.47v8.43c0,.3,.25,.55,.55,.55h3.63c.3,0,.55-.25,.55-.55v-20.94c0-.3-.25-.55-.55-.55h-3.59c-.3,0-.56,.23-.57,.53v.02"/><path class="cls-1" d="M135.51,12.04C131.55,4.61,123.8-.03,115.38,0H51.62c-1.22,.02-2.19,1.02-2.17,2.24,0,.57,.23,1.11,.63,1.51l13.89,13.97c1.23,1.23,2.89,1.93,4.63,1.93h44.95c3.19-.23,5.97,2.18,6.19,5.37,.23,3.19-2.18,5.97-5.37,6.19-.23,.02-.47,.02-.7,0h-31.01c-1.22,.01-2.19,1.01-2.18,2.23,0,.57,.23,1.11,.63,1.52l13.89,13.97c1.23,1.23,2.89,1.93,4.63,1.93h14.01c18.23,0,32.02-19.49,21.84-38.84"/></g></g></svg>