<?xml version="1.0" encoding="UTF-8"?><svg id="Layer_3" xmlns="http://www.w3.org/2000/svg" viewBox="0 0 1920 180"><defs><style>.cls-1{fill:#27346b;}</style></defs><g><path class="cls-1" d="M778.73,33.69c-17.83,0-34.25,2.19-34.25,2.19v54.66c0,7.29,2.92,12.51,8.38,15.67l25.87,14.94,25.87-14.94c5.47-3.16,8.38-8.38,8.38-15.67V35.88s-16.42-2.19-34.25-2.19Zm32.07,56.84v.36c0,.53-.02,.8-.05,1.29-.39,5.51-2.82,9.57-7.24,12.12l-24.78,14.31-24.78-14.31c-4.47-2.58-6.85-6.53-7.24-12.1h0c-.02-.51-.05-.78-.05-1.31v-8.62h0v-15.28h0v-29.18s15.55-1.94,32.07-1.94,32.07,1.94,32.07,1.94v52.71Z"/><path class="cls-1" d="M748.85,39.77v28.5l29.88,17.25,29.88-17.25v-28.5s-14.82-1.7-29.88-1.7-29.88,1.7-29.88,1.7Zm40.81,5.59h4.57v13.8h9.04v3.94h-10.76s-1.43-1.72-2.84-3.4v-14.33Zm-2.26,6.07c0,2.36-.95,4.23-2.67,5.3,.61,.7,5.3,6.36,5.3,6.36h-5.61l-4.3-5.3h-2.21v5.3h-4.54v-11.95h4.54v2.79h2.72c1.51,0,2.38-.9,2.38-2.38,0-1.63-.87-2.43-2.65-2.43h-9.6v13.97h-4.25l-6.22-9.81h-.07v9.81h-4.32v-17.73h4.28l6.07,9.84h.1v-9.84h14.33c4.15,0,6.73,2.28,6.73,6.07Z"/><polygon class="cls-1" points="748.85 78.17 748.85 83.54 778.73 100.79 808.61 83.54 808.61 78.17 778.73 95.42 748.85 78.17"/><path class="cls-1" d="M749.07,93.57c.63,3.98,2.6,6.9,5.98,8.84l23.69,13.68,23.69-13.68c3.38-1.94,5.32-4.86,5.98-8.84l-29.66,17.13-29.66-17.13Z"/></g><g><path class="cls-1" d="M845.91,56.79c4.54,0,7.98,3.47,7.98,7.67s-3.45,7.67-7.98,7.67-7.98-3.47-7.98-7.67,3.45-7.67,7.98-7.67Zm0,12.4c2.63,0,4.73-2.1,4.73-4.73s-2.1-4.73-4.73-4.73-4.73,2.1-4.73,4.73,2.1,4.73,4.73,4.73Z"/><path class="cls-1" d="M857.06,57.1h10.82v2.94h-7.67v3.47h5.99v2.94h-5.99v5.36h-3.15v-14.71Z"/><path class="cls-1" d="M870.63,57.1h10.82v2.94h-7.67v3.47h5.99v2.94h-5.99v5.36h-3.15v-14.71Z"/><path class="cls-1" d="M884.18,57.1h3.15v14.71h-3.15v-14.71Z"/><path class="cls-1" d="M904.78,69.18c-.44,.55-.97,1.03-1.58,1.47-1.07,.74-2.63,1.47-4.73,1.47-4.54,0-7.98-3.47-7.98-7.67s3.45-7.67,7.98-7.67c2.04,0,3.61,.74,4.64,1.47,.61,.44,1.11,.92,1.55,1.47l-2.1,2.1c-.32-.4-.67-.74-1.07-1.05-.69-.53-1.7-1.05-3.03-1.05-2.63,0-4.73,2.1-4.73,4.73s2.1,4.73,4.73,4.73c1.37,0,2.4-.53,3.13-1.05,.42-.32,.78-.65,1.07-1.05l2.1,2.1Z"/><path class="cls-1" d="M907.42,57.1h3.15v14.71h-3.15v-14.71Z"/><path class="cls-1" d="M918.46,57.1h3.57l5.67,14.71h-3.36l-1.26-3.36h-5.67l-1.26,3.36h-3.36l5.67-14.71Zm3.57,8.51l-1.74-4.83h-.08l-1.74,4.83h3.57Z"/><path class="cls-1" d="M929.97,57.1h3.15v11.77h6.83v2.94h-9.98v-14.71Z"/><path class="cls-1" d="M947.43,57.1h5.36c4.52,0,7.77,3.26,7.77,7.35s-3.26,7.35-7.77,7.35h-5.36v-14.71Zm5.36,11.77c2.63,0,4.52-1.89,4.52-4.41s-1.89-4.41-4.52-4.41h-2.21v8.83h2.21Z"/><path class="cls-1" d="M963.73,57.1h10.93v2.94h-7.77v2.84h6.09v2.84h-6.09v3.15h7.98v2.94h-11.14v-14.71Z"/><path class="cls-1" d="M978.18,57.1h3.15v11.77h6.83v2.94h-9.98v-14.71Z"/><path class="cls-1" d="M990.56,57.1h3.15v14.71h-3.15v-14.71Z"/><path class="cls-1" d="M996.04,57.1h3.36l3.85,10.82h.08l3.84-10.82h3.36l-5.46,14.71h-3.57l-5.46-14.71Z"/><path class="cls-1" d="M1012.89,57.1h10.93v2.94h-7.77v2.84h6.09v2.84h-6.09v3.15h7.98v2.94h-11.14v-14.71Z"/><path class="cls-1" d="M1027.34,57.1h6.51c3.15,0,5.15,2,5.15,4.94,0,1.68-.61,2.77-1.26,3.42-.36,.38-.78,.67-1.26,.88l3.05,5.46h-3.47l-2.63-4.83h-2.94v4.83h-3.15v-14.71Zm6.41,6.93c1.18,0,2-.82,2-2s-.82-2-2-2h-3.26v3.99h3.26Z"/><path class="cls-1" d="M1045.51,66.56l-5.57-9.46h3.68l3.42,6.3h.08l3.42-6.3h3.68l-5.57,9.46v5.25h-3.15v-5.25Z"/><path class="cls-1" d="M838.88,78.32h6.2c3.13,0,5.25,2.08,5.25,4.94s-2.12,4.94-5.25,4.94h-3.05v4.83h-3.15v-14.71Zm6.09,6.93c1.26,0,2.1-.82,2.1-2s-.84-2-2.1-2h-2.94v3.99h2.94Z"/><path class="cls-1" d="M856.29,78.32h3.57l5.67,14.71h-3.36l-1.26-3.36h-5.67l-1.26,3.36h-3.36l5.67-14.71Zm3.57,8.51l-1.74-4.83h-.08l-1.74,4.83h3.57Z"/><path class="cls-1" d="M867.79,78.32h6.51c3.15,0,5.15,2,5.15,4.94,0,1.68-.61,2.77-1.26,3.42-.36,.38-.78,.67-1.26,.88l3.05,5.46h-3.47l-2.63-4.83h-2.94v4.83h-3.15v-14.71Zm6.41,6.93c1.18,0,2-.82,2-2s-.82-2-2-2h-3.26v3.99h3.26Z"/><path class="cls-1" d="M885.62,81.26h-4.2v-2.94h11.56v2.94h-4.2v11.77h-3.15v-11.77Z"/><path class="cls-1" d="M895.38,78.32h2.84l7.14,9.14v-9.14h3.15v14.71h-2.84l-7.14-9.14v9.14h-3.15v-14.71Z"/><path class="cls-1" d="M912.61,78.32h10.93v2.94h-7.77v2.84h6.09v2.84h-6.09v3.15h7.98v2.94h-11.14v-14.71Z"/><path class="cls-1" d="M927.07,78.32h6.51c3.15,0,5.15,2,5.15,4.94,0,1.68-.61,2.77-1.26,3.42-.36,.38-.78,.67-1.26,.88l3.05,5.46h-3.47l-2.63-4.83h-2.94v4.83h-3.15v-14.71Zm6.41,6.93c1.18,0,2-.82,2-2s-.82-2-2-2h-3.26v3.99h3.26Z"/><path class="cls-1" d="M954.09,78.01c4.54,0,7.98,3.47,7.98,7.67s-3.45,7.67-7.98,7.67-7.98-3.47-7.98-7.67,3.45-7.67,7.98-7.67Zm0,12.4c2.63,0,4.73-2.1,4.73-4.73s-2.1-4.73-4.73-4.73-4.73,2.1-4.73,4.73,2.1,4.73,4.73,4.73Z"/><path class="cls-1" d="M965.23,78.32h10.82v2.94h-7.67v3.47h5.99v2.94h-5.99v5.36h-3.15v-14.71Z"/><path class="cls-1" d="M986.58,81.26h-4.2v-2.94h11.56v2.94h-4.2v11.77h-3.15v-11.77Z"/><path class="cls-1" d="M996.34,78.32h3.15v5.78h6.3v-5.78h3.15v14.71h-3.15v-5.99h-6.3v5.99h-3.15v-14.71Z"/><path class="cls-1" d="M1013.04,78.32h10.93v2.94h-7.77v2.84h6.09v2.84h-6.09v3.15h7.98v2.94h-11.14v-14.71Z"/><path class="cls-1" d="M1032.18,78.32h2.84l7.14,9.14v-9.14h3.15v14.71h-2.84l-7.14-9.14v9.14h-3.15v-14.71Z"/><path class="cls-1" d="M1049.41,78.32h6.51c3.15,0,5.15,2,5.15,4.94,0,1.68-.61,2.77-1.26,3.42-.36,.38-.78,.67-1.26,.88l3.05,5.46h-3.47l-2.63-4.83h-2.94v4.83h-3.15v-14.71Zm6.41,6.93c1.18,0,2-.82,2-2s-.82-2-2-2h-3.26v3.99h3.26Z"/><path class="cls-1" d="M1064.55,78.32h3.15v11.77h6.83v2.94h-9.98v-14.71Z"/></g></svg>