<?xml version="1.0" encoding="UTF-8"?><svg id="Layer_2" xmlns="http://www.w3.org/2000/svg" viewBox="0 0 133.91 133.91"><defs><style>.cls-1{fill:#fff;}.cls-2{fill:#ff3008;}.cls-3{fill:#27346b;}</style></defs><g id="Layer_3"><g><g><path class="cls-2" d="M66.22,111.89c-24.84-.4-44.73-20.95-44.32-45.79,.4-24.84,20.94-44.73,45.79-44.32,24.84,.4,44.73,20.94,44.32,45.79-.4,24.84-20.94,44.73-45.79,44.32Zm1.44-88.43c-23.92-.39-43.69,18.75-44.08,42.67-.39,23.92,18.75,43.69,42.67,44.08,23.92,.39,43.69-18.75,44.08-42.67,.39-23.92-18.75-43.69-42.67-44.08Z"/><g><rect class="cls-2" x="56.5" y="24.94" width=".58" height="33.92" transform="translate(-11.63 24.61) rotate(-22.24)"/><polygon class="cls-2" points="60.73 59.07 40.21 32.07 40.67 31.72 61.2 58.72 60.73 59.07"/><rect class="cls-2" x="45.44" y="33.39" width=".58" height="33.91" transform="translate(-22.08 55.67) rotate(-52.24)"/><rect class="cls-2" x="41.92" y="39.46" width=".59" height="33.92" transform="translate(-26.14 73.52) rotate(-67.24)"/><rect class="cls-2" x="40.09" y="46.23" width=".58" height="33.92" transform="translate(-27.68 94.67) rotate(-82.24)"/><polygon class="cls-2" points="57.23 68.36 23.58 72.63 23.51 72.05 57.15 67.78 57.23 68.36"/><rect class="cls-2" x="25.21" y="76.69" width="33.92" height=".58" transform="translate(-26 21.69) rotate(-22.24)"/><polygon class="cls-2" points="32.34 93.56 31.99 93.1 58.99 72.57 59.34 73.04 32.34 93.56"/><rect class="cls-2" x="33.66" y="87.75" width="33.91" height=".58" transform="translate(-49.97 74.09) rotate(-52.21)"/><rect class="cls-2" x="39.73" y="91.27" width="33.91" height=".59" transform="translate(-49.68 108.41) rotate(-67.24)"/><rect class="cls-2" x="46.5" y="93.1" width="33.92" height=".58" transform="translate(-37.62 143.71) rotate(-82.27)"/><polygon class="cls-2" points="72.9 110.19 72.32 110.27 68.05 76.62 68.63 76.55 72.9 110.19"/><rect class="cls-2" x="76.96" y="74.65" width=".58" height="33.92" transform="translate(-28.92 36.05) rotate(-22.24)"/><polygon class="cls-2" points="93.37 101.78 72.84 74.78 73.31 74.43 93.83 101.43 93.37 101.78"/><rect class="cls-2" x="88.02" y="66.2" width=".58" height="33.92" transform="translate(-31.51 102.05) rotate(-52.24)"/><rect class="cls-2" x="91.54" y="60.13" width=".59" height="33.91" transform="translate(-14.78 131.94) rotate(-67.24)"/><rect class="cls-2" x="93.37" y="53.36" width=".58" height="33.91" transform="translate(11.35 153.63) rotate(-82.24)"/><polygon class="cls-2" points="110.53 61.45 76.89 65.73 76.81 65.15 110.46 60.87 110.53 61.45"/><rect class="cls-2" x="74.91" y="56.23" width="33.92" height=".58" transform="translate(-14.56 38.98) rotate(-22.24)"/><polygon class="cls-2" points="75.05 60.93 74.7 60.46 101.7 39.94 102.05 40.41 75.05 60.93"/><rect class="cls-2" x="66.47" y="45.17" width="33.91" height=".58" transform="translate(-3.62 83.53) rotate(-52.21)"/><rect class="cls-2" x="60.4" y="41.65" width="33.92" height=".59" transform="translate(8.75 97.05) rotate(-67.24)"/><rect class="cls-2" x="53.63" y="39.82" width="33.91" height=".58" transform="translate(21.35 104.66) rotate(-82.27)"/><polygon class="cls-2" points="66 56.88 65.42 56.96 61.14 23.31 61.72 23.24 66 56.88"/></g></g><path class="cls-2" d="M66.95,6.04C33.37,6.04,6.15,33.26,6.15,66.83s27.22,60.8,60.8,60.8,60.8-27.22,60.8-60.8S100.53,6.04,66.95,6.04Zm0,118.91c-32.09,0-58.11-26.02-58.11-58.11S34.86,8.72,66.95,8.72s58.11,26.02,58.11,58.11-26.02,58.11-58.11,58.11Z"/><g><circle class="cls-3" cx="67.18" cy="3.44" r="3.44"/><circle class="cls-3" cx="50.74" cy="5.54" r="3.44" transform="translate(-.25 3.16) rotate(-3.56)"/><path class="cls-3" d="M38.38,10.11c.95,1.65,.39,3.75-1.26,4.7-1.65,.95-3.75,.39-4.7-1.26-.95-1.65-.39-3.75,1.26-4.7,1.65-.95,3.75-.39,4.7,1.26Z"/><path class="cls-3" d="M24.64,19.45c1.34,1.34,1.34,3.52,0,4.86-1.34,1.34-3.52,1.34-4.86,0-1.34-1.34-1.34-3.52,0-4.86,1.34-1.34,3.52-1.34,4.86,0Z"/><path class="cls-3" d="M13.78,32.02c1.65,.95,2.21,3.05,1.26,4.7-.95,1.65-3.05,2.21-4.7,1.26-1.65-.95-2.21-3.05-1.26-4.7,.95-1.65,3.05-2.21,4.7-1.26Z"/><circle class="cls-3" cx="5.66" cy="50.29" r="3.44" transform="translate(-7.99 1.56) rotate(-9.23)"/><circle class="cls-3" cx="3.44" cy="66.72" r="3.44"/><path class="cls-3" d="M4.65,79.84c1.84-.49,3.72,.6,4.21,2.43,.49,1.84-.6,3.72-2.43,4.21-1.83,.49-3.72-.6-4.21-2.43-.49-1.83,.6-3.72,2.43-4.21Z"/><circle class="cls-3" cx="11.83" cy="98.51" r="3.44" transform="translate(-64.98 35.71) rotate(-43.88)"/><circle class="cls-3" cx="21.88" cy="111.7" r="3.44"/><path class="cls-3" d="M32.02,120.12c.95-1.65,3.05-2.21,4.7-1.26,1.65,.95,2.21,3.05,1.26,4.7-.95,1.65-3.05,2.21-4.7,1.26-1.65-.95-2.21-3.05-1.26-4.7Z"/><circle class="cls-3" cx="50.29" cy="128.24" r="3.44" transform="translate(-22.06 11.02) rotate(-10.27)"/><circle class="cls-3" cx="66.72" cy="130.47" r="3.44"/><circle class="cls-3" cx="83.17" cy="128.36" r="3.44" transform="translate(-9.63 6.78) rotate(-4.41)"/><path class="cls-3" d="M95.53,123.79c-.95-1.65-.39-3.75,1.26-4.7,1.65-.95,3.75-.39,4.7,1.26,.95,1.65,.39,3.75-1.26,4.7-1.65,.95-3.75,.39-4.7-1.26Z"/><path class="cls-3" d="M109.27,114.46c-1.34-1.34-1.34-3.52,0-4.86s3.52-1.34,4.86,0c1.34,1.34,1.34,3.52,0,4.86-1.34,1.34-3.52,1.34-4.86,0Z"/><path class="cls-3" d="M120.12,101.89c-1.65-.95-2.21-3.05-1.26-4.7,.95-1.65,3.05-2.21,4.7-1.26,1.65,.95,2.21,3.05,1.26,4.7-.95,1.65-3.05,2.21-4.7,1.26Z"/><circle class="cls-3" cx="128.24" cy="83.61" r="3.44" transform="translate(38.72 207.81) rotate(-87.32)"/><circle class="cls-3" cx="130.47" cy="67.18" r="3.44"/><circle class="cls-3" cx="128.36" cy="50.74" r="3.44" transform="translate(76.92 178.82) rotate(-89.68)"/><path class="cls-3" d="M123.79,38.38c-1.65,.95-3.75,.39-4.7-1.26-.95-1.65-.39-3.75,1.26-4.7,1.65-.95,3.75-.39,4.7,1.26,.95,1.65,.39,3.75-1.26,4.7Z"/><circle class="cls-3" cx="112.03" cy="22.21" r="3.44"/><path class="cls-3" d="M101.89,13.78c-.95,1.65-3.05,2.21-4.7,1.26-1.65-.95-2.21-3.05-1.26-4.7,.95-1.65,3.05-2.21,4.7-1.26,1.65,.95,2.21,3.05,1.26,4.7Z"/><path class="cls-3" d="M86.94,6.55c-.49,1.83-2.38,2.92-4.21,2.43-1.83-.49-2.92-2.38-2.43-4.21,.49-1.83,2.38-2.92,4.21-2.43,1.83,.49,2.92,2.38,2.43,4.21Z"/></g><g><circle class="cls-3" cx="66.95" cy="66.83" r="11.42" transform="translate(-.11 133.56) rotate(-89.81)"/><circle class="cls-1" cx="66.95" cy="66.83" r="8.3" transform="translate(-.14 133.53) rotate(-89.78)"/><circle class="cls-2" cx="66.95" cy="66.83" r="3.52"/></g></g></g></svg>