<?xml version="1.0" encoding="utf-8"?>
<!-- Generator: Adobe Illustrator 25.2.1, SVG Export Plug-In . SVG Version: 6.00 Build 0)  -->
<svg version="1.1" id="Layer_1" xmlns="http://www.w3.org/2000/svg" xmlns:xlink="http://www.w3.org/1999/xlink" x="0px" y="0px"
	 viewBox="0 0 300 250" style="enable-background:new 0 0 300 250;" xml:space="preserve">
<style type="text/css">
	.st0{clip-path:url(#SVGID_2_);}
	.st1{enable-background:new    ;}
	.st2{fill:#009970;}
</style>
<g id="Layer_2_1_">
	<g id="Layer_1-2">
		<g>
			<defs>
				<rect id="SVGID_1_" width="300" height="250"/>
			</defs>
			<clipPath id="SVGID_2_">
				<use xlink:href="#SVGID_1_"  style="overflow:visible;"/>
			</clipPath>
			<g class="st0">
				<g class="st1">
					<path class="st2" d="M15.4,18h2.2v24.4h14.3v2H15.4V18z"/>
				</g>
				<g class="st1">
					<path class="st2" d="M53.9,41c-2.2,2.5-5,3.8-8.3,3.8c-3.3,0-6.1-1.2-8.3-3.8c-2.2-2.5-3.3-5.8-3.3-9.8c0-4,1.1-7.3,3.3-9.8
						c2.2-2.5,5-3.8,8.3-3.8c3.4,0,6.1,1.2,8.3,3.8c2.2,2.5,3.4,5.8,3.4,9.8C57.2,35.2,56.1,38.5,53.9,41z M52.4,22.9
						c-1.8-2.1-4-3.2-6.8-3.2s-5,1.1-6.8,3.2c-1.8,2.2-2.6,4.9-2.6,8.3c0,3.4,0.9,6.1,2.6,8.3c1.8,2.2,4,3.2,6.8,3.2
						s5.1-1.1,6.8-3.2c1.8-2.1,2.6-4.9,2.6-8.3C55,27.8,54.1,25.1,52.4,22.9z"/>
				</g>
				<g class="st1">
					<path class="st2" d="M60.5,39.6c2.5,2.3,5.1,3.1,8.2,3.1c3.8,0,6.2-1.9,6.2-4.9c0-2.6-1.5-3.7-4.7-5.1l-3.9-1.6
						c-1.4-0.6-2.7-1.3-3.9-2.3c-1.2-1-1.8-2.5-1.8-4.4c0-2.2,0.8-3.9,2.4-5s3.5-1.7,5.6-1.7c2.8,0,5.5,0.8,7.4,2.2v2.5
						c-2.1-1.7-4.4-2.7-7.4-2.7c-3.3,0-5.9,1.5-5.9,4.6c0,2.6,1.8,3.7,4.6,4.8l4.1,1.7c3.8,1.7,5.6,3.6,5.6,7c0,2.1-0.8,3.8-2.4,5.1
						s-3.6,1.9-6,1.9c-3.5,0-6.4-1.1-8.2-2.6V39.6z"/>
				</g>
				<g class="st1">
					<path class="st2" d="M80.2,18h21.5v2H92v24.4h-2.2V20h-9.6V18z"/>
					<path class="st2" d="M118.1,44.4h-2.2V18h2.2V44.4z"/>
					<path class="st2" d="M144.6,44.4h-1.5L127,21.5v22.9h-2.1V18h2.1l15.5,22V18h2.1V44.4z"/>
					<path class="st2" d="M149.3,18h21.5v2h-9.7v24.4h-2.2V20h-9.6V18z"/>
					<path class="st2" d="M191.9,18v2h-14.2v9.8h12.9v2h-12.9v10.6h14.2v2h-16.4V18H191.9z"/>
					<path class="st2" d="M197.7,18h9.1c5.2,0,8.5,2.6,8.5,7.4c0,4.3-2.6,6.7-6.8,7.2l8,11.8H214l-7.9-11.7h-6.3v11.7h-2.2V18z
						 M199.9,30.8h6.8c4,0,6.4-2,6.4-5.4c0-3.4-2.5-5.4-6.4-5.4h-6.8V30.8z"/>
					<path class="st2" d="M237.7,18v2h-14.2v9.8h12.9v2h-12.9v10.6h14.2v2h-16.4V18H237.7z"/>
				</g>
				<g class="st1">
					<path class="st2" d="M241.7,39.6c2.5,2.3,5.1,3.1,8.2,3.1c3.8,0,6.2-1.9,6.2-4.9c0-2.6-1.5-3.7-4.7-5.1l-3.9-1.6
						c-1.4-0.6-2.7-1.3-3.9-2.3c-1.2-1-1.8-2.5-1.8-4.4c0-2.2,0.8-3.9,2.4-5s3.5-1.7,5.6-1.7c2.8,0,5.5,0.8,7.4,2.2v2.5
						c-2.1-1.7-4.4-2.7-7.4-2.7c-3.3,0-5.9,1.5-5.9,4.6c0,2.6,1.8,3.7,4.6,4.8l4.1,1.7c3.8,1.7,5.6,3.6,5.6,7c0,2.1-0.8,3.8-2.4,5.1
						s-3.6,1.9-6,1.9c-3.5,0-6.5-1.1-8.2-2.6V39.6z"/>
				</g>
				<g class="st1">
					<path class="st2" d="M261.3,18h21.5v2h-9.7v24.4h-2.2V20h-9.6V18z"/>
				</g>
				<g class="st1">
					<path class="st2" d="M17.6,80.4h-2.2V54h2.2V80.4z"/>
					<path class="st2" d="M44.1,80.4h-1.5L26.5,57.5v22.9h-2.1V54h2.1L42,76V54h2.1V80.4z"/>
				</g>
				<g class="st1">
					<path class="st2" d="M76.8,54h2.4l-9.6,15.1v11.3h-2.2V69.2L57.8,54h2.4l8.3,13.1L76.8,54z"/>
				</g>
				<g class="st1">
					<path class="st2" d="M100.8,77c-2.2,2.5-5,3.8-8.3,3.8c-3.3,0-6.1-1.2-8.3-3.8c-2.2-2.5-3.3-5.8-3.3-9.8c0-4,1.1-7.3,3.3-9.8
						c2.2-2.5,5-3.8,8.3-3.8c3.4,0,6.1,1.2,8.3,3.8c2.2,2.5,3.4,5.8,3.4,9.8C104.1,71.2,103,74.5,100.8,77z M99.2,58.9
						c-1.8-2.1-4-3.2-6.8-3.2s-5,1.1-6.8,3.2c-1.8,2.2-2.6,4.9-2.6,8.3c0,3.4,0.9,6.1,2.6,8.3c1.8,2.2,4,3.2,6.8,3.2
						s5.1-1.1,6.8-3.2c1.8-2.1,2.6-4.9,2.6-8.3C101.9,63.8,101,61.1,99.2,58.9z"/>
					<path class="st2" d="M111.5,78.1c-1.9-1.8-2.9-4.5-2.9-8.1V54h2.2v15.7c0,6.1,3.4,9.1,7.9,9.1c2.3,0,4.2-0.7,5.7-2.2
						s2.3-3.8,2.3-6.8V54h2.2v16c0,3.6-1,6.3-3,8.1c-1.9,1.8-4.3,2.7-7.2,2.7S113.5,79.9,111.5,78.1z"/>
					<path class="st2" d="M135.2,54h9.1c5.2,0,8.5,2.6,8.5,7.4c0,4.3-2.6,6.7-6.8,7.2l8,11.8h-2.5l-7.9-11.7h-6.3v11.7h-2.2V54z
						 M137.3,66.8h6.8c4,0,6.4-2,6.4-5.4c0-3.4-2.5-5.4-6.4-5.4h-6.8V66.8z"/>
					<path class="st2" d="M166.2,54h21.5v2H178v24.4h-2.2V56h-9.6V54z"/>
					<path class="st2" d="M208.8,54v2h-14.2v9.8h12.9v2h-12.9v10.6h14.2v2h-16.4V54H208.8z"/>
					<path class="st2" d="M214.6,54h9.1c5.2,0,8.5,2.6,8.5,7.4c0,4.3-2.6,6.7-6.8,7.2l8,11.8h-2.5L223,68.8h-6.3v11.7h-2.2V54z
						 M216.8,66.8h6.8c4,0,6.5-2,6.5-5.4c0-3.4-2.5-5.4-6.5-5.4h-6.8V66.8z"/>
					<path class="st2" d="M250.3,74.4l-10-16.2v22.2h-2.2V54h1.9l10.3,16.8L260.7,54h1.8v26.4h-2.1V58.2l-9.9,16.2H250.3z"/>
				</g>
				<g class="st1">
					<path class="st2" d="M15.4,90h8c3.8,0,6.9,1.2,9.2,3.6c2.4,2.4,3.6,5.6,3.6,9.6c0,4-1.2,7.2-3.6,9.6c-2.4,2.4-5.4,3.6-9.2,3.6
						h-8V90z M23.4,114.4c3.2,0,5.8-1,7.7-3.1c1.9-2.1,2.9-4.8,2.9-8.1c0-3.4-0.9-6.1-2.9-8.1c-1.9-2.1-4.5-3.1-7.7-3.1h-5.8v22.4
						H23.4z"/>
					<path class="st2" d="M57.7,90v2H43.4v9.8h12.9v2H43.4v10.6h14.2v2H41.3V90H57.7z"/>
					<path class="st2" d="M65.6,105v11.4h-2.2V90h9.3c5.2,0,8.6,2.6,8.6,7.5c0,4.9-3.4,7.5-8.6,7.5H65.6z M79.1,97.5
						c0-3.4-2.4-5.5-6.5-5.5h-7.1v11h7.1C76.8,103,79.1,100.9,79.1,97.5z"/>
					<path class="st2" d="M104.4,113c-2.2,2.5-5,3.8-8.3,3.8c-3.3,0-6.1-1.2-8.3-3.8c-2.2-2.5-3.3-5.8-3.3-9.8c0-4,1.1-7.3,3.3-9.8
						c2.2-2.5,5-3.8,8.3-3.8c3.4,0,6.1,1.2,8.3,3.8c2.2,2.5,3.4,5.8,3.4,9.8C107.8,107.2,106.7,110.5,104.4,113z M102.9,94.9
						c-1.8-2.1-4-3.2-6.8-3.2s-5,1.1-6.8,3.2c-1.8,2.2-2.6,4.9-2.6,8.3c0,3.4,0.9,6.1,2.6,8.3c1.8,2.2,4,3.2,6.8,3.2
						s5.1-1.1,6.8-3.2c1.8-2.1,2.6-4.9,2.6-8.3C105.6,99.8,104.7,97.1,102.9,94.9z"/>
					<path class="st2" d="M111.1,111.6c2.5,2.3,5.1,3.1,8.2,3.1c3.8,0,6.2-1.9,6.2-4.9c0-2.6-1.5-3.7-4.7-5.1l-3.9-1.6
						c-1.4-0.6-2.7-1.3-3.9-2.3c-1.2-1-1.8-2.5-1.8-4.4c0-2.2,0.8-3.9,2.4-5s3.5-1.7,5.6-1.7c2.8,0,5.5,0.8,7.4,2.2v2.5
						c-2.1-1.7-4.4-2.7-7.4-2.7c-3.3,0-5.9,1.5-5.9,4.6c0,2.6,1.8,3.7,4.6,4.8l4.1,1.7c3.8,1.7,5.6,3.6,5.6,7c0,2.1-0.8,3.8-2.4,5.1
						s-3.6,1.9-6,1.9c-3.5,0-6.4-1.1-8.2-2.6V111.6z"/>
					<path class="st2" d="M135.1,116.4h-2.2V90h2.2V116.4z"/>
				</g>
				<g class="st1">
					<path class="st2" d="M139.8,90h21.5v2h-9.7v24.4h-2.2V92h-9.6V90z"/>
				</g>
				<g class="st1">
					<path class="st2" d="M175.4,100.5c0.9-1.1,1.4-2.3,1.4-3.7c0-3.1-1.9-5.1-5.5-5.1c-3.1,0-5.7,1.8-7.5,3.9v-2.4
						c1.6-1.9,4.5-3.6,7.6-3.6c4.8,0,7.6,2.8,7.6,7.1c0,1.5-0.5,2.9-1.5,4.2s-2,2.4-3,3.5c-1.4,1.5-1.8,2.5-1.8,3.7h-2.1
						c0.1-1.9,0.9-3.1,2.3-4.8L175.4,100.5z M171.5,113.2c0.9,0,1.6,0.8,1.6,1.7s-0.7,1.6-1.6,1.6c-0.9,0-1.6-0.7-1.6-1.6
						S170.6,113.2,171.5,113.2z"/>
				</g>
			</g>
		</g>
	</g>
</g>
</svg>
