<?xml version="1.0" encoding="utf-8"?>
<!-- Generator: Adobe Illustrator 25.2.1, SVG Export Plug-In . SVG Version: 6.00 Build 0)  -->
<svg version="1.1" id="Layer_1" xmlns="http://www.w3.org/2000/svg" xmlns:xlink="http://www.w3.org/1999/xlink" x="0px" y="0px"
	 viewBox="0 0 300 250" style="enable-background:new 0 0 300 250;" xml:space="preserve">
<style type="text/css">
	.st0{fill:#009970;}
</style>
<g id="_x36_">
	<path class="st0" d="M43.2,40.3l5.5-22.5h6.9l-8.7,33.5h-6.4l-5.9-22.1l-5.9,22.1h-6.4l-8.7-33.5h7l5.5,22.5L32,17.8h5.5L43.2,40.3
		z"/>
	<path class="st0" d="M87.7,51.2h-7.1l-3-8.1H65l-2.9,8.1h-7l12.8-33.5h6.9L87.7,51.2z M75.4,37.3l-4.1-11.1l-4.1,11.1H75.4z"/>
	<path class="st0" d="M110.9,17.8h8.4l-13.9,16l14.4,17.4h-8.6L98.7,36.1v15.2h-7V17.8h7v14.4L110.9,17.8z"/>
	<path class="st0" d="M146.3,23.9h-15.9v7.3h14.4v5.9h-14.4v8h15.9v6.2h-22.7V17.8h22.7V23.9z"/>
	<path class="st0" d="M15.7,80.3v-20h7v19.3c0,5.7,2.5,8.4,6.9,8.4s6.9-2.7,6.9-8.4V60.3h7v20c0,9.2-5.5,14-13.9,14
		C21.3,94.3,15.7,89.5,15.7,80.3z"/>
	<path class="st0" d="M56.4,93.7h-6.9V60.3h13.6c7.1,0,11.8,3.8,11.8,11c0,7.1-4.7,10.9-11.8,10.9h-6.7V93.7z M62.7,66.2h-6.3v10
		h6.3c3.7,0,5.3-2.1,5.3-5C68,68.2,66.3,66.2,62.7,66.2z"/>
	<path class="st0" d="M119.7,60.3L107.5,81v12.7h-6.9V81l-12-20.8h7.6l8.1,14.2l8.1-14.2L119.7,60.3L119.7,60.3z"/>
	<path class="st0" d="M135.3,94.3c-9.3,0-15.8-7.3-15.8-17.3s6.5-17.3,15.8-17.3s15.9,7.2,15.9,17.3C151.2,87,144.6,94.3,135.3,94.3
		z M135.3,65.9c-5.2,0-8.7,4.5-8.7,11.1s3.5,11.1,8.7,11.1c5.4,0,8.8-4.5,8.8-11.1S140.7,65.9,135.3,65.9z"/>
	<path class="st0" d="M155.5,80.3v-20h7v19.3c0,5.7,2.5,8.4,6.9,8.4s6.9-2.7,6.9-8.4V60.3h7v20c0,9.2-5.5,14-13.9,14
		C161.1,94.3,155.5,89.5,155.5,80.3z"/>
	<path class="st0" d="M196.2,93.7h-6.9V60.3H203c7,0,11.7,3.7,11.7,10.6c0,5.4-2.9,8.7-7.6,9.9l8.8,13h-7.8l-8.3-12.5h-3.7v12.4
		H196.2z M202.6,75.5c3.5,0,5.3-1.9,5.3-4.6c0-2.8-1.8-4.7-5.3-4.7h-6.4v9.3C196.2,75.5,202.6,75.5,202.6,75.5z"/>
	<path class="st0" d="M23,114.6v21.6h-6.8v-33.5h6.5l10.1,15.8l10.1-15.8h6.4v33.5h-6.9v-21.6L32.9,129h-0.2L23,114.6z"/>
	<path class="st0" d="M69.9,136.8c-9.3,0-15.8-7.3-15.8-17.3s6.5-17.3,15.8-17.3s15.9,7.2,15.9,17.3
		C85.7,129.5,79.2,136.8,69.9,136.8z M69.9,108.4c-5.2,0-8.7,4.5-8.7,11.1s3.5,11.1,8.7,11.1c5.4,0,8.8-4.5,8.8-11.1
		S75.3,108.4,69.9,108.4z"/>
	<path class="st0" d="M113.1,136.2l-15.8-22.3v22.3h-6.7v-33.5h6.5l14.8,21.1v-21.1h6.7v33.5H113.1z"/>
	<path class="st0" d="M147.7,108.9h-15.9v7.3h14.4v5.9h-14.4v8h15.9v6.2H125v-33.5h22.7V108.9z"/>
	<path class="st0" d="M181.6,102.8l-12.2,20.8v12.7h-6.9v-12.7l-12-20.8h7.6l8.1,14.2l8.1-14.2H181.6z"/>
</g>
</svg>
