<?xml version="1.0" encoding="utf-8"?>
<!-- Generator: Adobe Illustrator 27.7.0, SVG Export Plug-In . SVG Version: 6.00 Build 0)  -->
<svg version="1.1" id="Layer_1" xmlns="http://www.w3.org/2000/svg" xmlns:xlink="http://www.w3.org/1999/xlink" x="0px" y="0px"
	 viewBox="0 0 320 50" style="enable-background:new 0 0 320 50;" xml:space="preserve">
<style type="text/css">
	.st0{fill:#FFFFFF;}
</style>
<g>
	<path class="st0" d="M247.1,24.4c-0.8,0-1.3,0.6-1.3,1.2h2.6C248.4,25,248,24.4,247.1,24.4z"/>
	<path class="st0" d="M272.7,24.4c-0.8,0-1.3,0.6-1.3,1.2h2.6C274,25,273.6,24.4,272.7,24.4z"/>
	<path class="st0" d="M293.1,16H223c-1.5,0-2.7,1.2-2.7,2.7v12.6c0,1.5,1.2,2.7,2.7,2.7h70.1c1.5,0,2.7-1.2,2.7-2.7V18.7
		C295.8,17.2,294.6,16,293.1,16z M243.5,27.3c-0.7,0.8-1.8,1.4-3.1,1.4c-2.1,0-3.9-1.4-3.9-3.8c0-2.2,1.7-3.7,3.9-3.7
		c1.5,0,2.4,0.7,3,1.6l-1.3,0.7c-0.4-0.5-1-0.9-1.7-0.9c-1.3,0-2.2,1-2.2,2.3s1,2.3,2.2,2.3c0.6,0,1.3-0.3,1.5-0.5v-0.9H240v-1.4
		h3.4L243.5,27.3L243.5,27.3z M249.7,26.4h-3.9c0.1,0.6,0.6,1.2,1.5,1.2c0.5,0,1.1-0.2,1.3-0.5l0.6,0.9c-0.5,0.4-1.3,0.7-2.2,0.7
		c-1.6,0-2.8-1.1-2.8-2.7c0-1.5,1.1-2.7,2.7-2.7c1.5,0,2.6,1.2,2.6,2.9L249.7,26.4L249.7,26.4z M252.4,28.7c-1,0-1.4-0.5-1.4-1.4
		v-2.7h-0.9v-1.1h0.9V22h1.3v1.4h1.1v1.2h-1.1v2.3c0,0.4,0.2,0.5,0.4,0.5s0.4-0.1,0.5-0.2l0.3,1.1C253.4,28.6,253,28.7,252.4,28.7z
		 M259.6,28.7c-1.7,0-2.8-1.3-2.8-2.7s1.1-2.7,2.8-2.7s2.8,1.3,2.8,2.7C262.3,27.4,261.3,28.7,259.6,28.7z M266,23.4v1.2h-1.1v4.1
		h-1.3v-4.1h-0.9v-1.2h0.9v-0.3c0-1.2,0.7-1.8,1.8-1.8c0.4,0,0.7,0.1,1,0.2l-0.3,1c-0.1-0.1-0.3-0.1-0.5-0.1c-0.4,0-0.6,0.3-0.6,0.7
		v0.3C265,23.4,266,23.4,266,23.4z M269.6,22.5c-0.1-0.1-0.3-0.1-0.4-0.1c-0.4,0-0.6,0.3-0.6,0.7v0.3h1.1v1.2h-1.1v4.1h-1.3v-4.1
		h-0.9v-1.2h0.9v-0.3c0-1.2,0.7-1.8,1.8-1.8c0.4,0,0.7,0.1,1,0.2L269.6,22.5z M275.4,26.4h-3.9c0.1,0.6,0.6,1.2,1.5,1.2
		c0.4,0,1.1-0.2,1.3-0.5L275,28c-0.5,0.4-1.3,0.7-2.2,0.7c-1.6,0-2.8-1.1-2.8-2.7c0-1.5,1.1-2.7,2.7-2.7c1.5,0,2.6,1.2,2.6,2.9
		L275.4,26.4L275.4,26.4z M279.3,24.6c-0.1,0-0.3,0-0.4,0c-0.5,0-1.1,0.3-1.3,0.6v3.3h-1.3v-5.2h1.3V24c0.4-0.4,1-0.8,1.6-0.8
		L279.3,24.6L279.3,24.6z"/>
	<path class="st0" d="M259.6,24.5c-0.8,0-1.3,0.7-1.3,1.5s0.4,1.5,1.3,1.5s1.3-0.7,1.3-1.5S260.4,24.5,259.6,24.5z"/>
</g>
<g>
	<g>
		<path class="st0" d="M20.6,16c0.5,0.5,1.5,1.1,2.5,1.1c0.9,0,1.3-0.4,1.3-0.9c0-0.6-0.7-0.8-1.6-1c-1.3-0.3-3-0.7-3-2.4
			c0-1.3,1.1-2.4,3-2.4c1.2,0,2.3,0.4,3.1,1.1l-1,1.1c-0.6-0.6-1.5-0.9-2.3-0.9c-0.7,0-1.1,0.3-1.1,0.8s0.7,0.7,1.6,0.9
			c1.3,0.3,3,0.7,3,2.4c0,1.5-1,2.5-3.1,2.5c-1.5,0-2.6-0.5-3.3-1.2L20.6,16z"/>
		<path class="st0" d="M27.5,17v-3h-0.9v-1.3h0.9v-1.6H29v1.6h1.1V14H29v2.6c0,0.3,0.2,0.6,0.5,0.6c0.2,0,0.4-0.1,0.5-0.2l0.3,1.1
			c-0.2,0.2-0.6,0.3-1.2,0.3C28.1,18.6,27.5,18,27.5,17z"/>
		<path class="st0" d="M34.6,17.8c-0.4,0.5-1.1,0.7-1.8,0.7c-0.9,0-2-0.6-2-1.9s1.1-1.9,2-1.9c0.7,0,1.5,0.2,1.8,0.7v-0.7
			c0-0.5-0.5-0.9-1.2-0.9c-0.6,0-1.1,0.2-1.7,0.7l-0.5-1c0.7-0.6,1.6-0.9,2.5-0.9c1.3,0,2.5,0.5,2.5,2.2v3.7h-1.5V18L34.6,17.8
			L34.6,17.8z M34.6,16.3c-0.3-0.3-0.7-0.5-1.2-0.5c-0.6,0-1.1,0.3-1.1,0.9s0.5,0.8,1.1,0.8c0.5,0,0.9-0.2,1.2-0.5V16.3z"/>
		<path class="st0" d="M37.7,12.6h1.5v0.7c0.4-0.5,1.1-0.9,1.9-0.9v1.5c-0.2,0-0.3-0.1-0.4-0.1c-0.5,0-1.1,0.3-1.5,0.7v3.8h-1.5
			V12.6z"/>
		<path class="st0" d="M42.2,17v-3h-0.9v-1.3h0.9v-1.6h1.5v1.6h1.1V14h-1.1v2.6c0,0.3,0.2,0.6,0.5,0.6c0.2,0,0.4-0.1,0.5-0.2
			l0.3,1.1c-0.2,0.2-0.6,0.3-1.2,0.3C42.7,18.6,42.2,18,42.2,17z"/>
		<path class="st0" d="M51.6,12.5c1.1,0,1.9,0.5,2.3,1L53,14.4c-0.3-0.4-0.7-0.6-1.2-0.6c-0.9,0-1.6,0.7-1.6,1.7
			c0,0.9,0.6,1.7,1.6,1.7c0.5,0,0.9-0.2,1.2-0.6l0.9,0.9c-0.4,0.5-1.1,1-2.3,1c-1.8,0-3-1.2-3-3C48.5,13.8,49.8,12.5,51.6,12.5z"/>
		<path class="st0" d="M54.5,15.5c0-1.7,1.1-3,3-3s3,1.3,3,3s-1.1,3-3,3C55.6,18.6,54.5,17.1,54.5,15.5z M59,15.5
			c0-0.9-0.5-1.7-1.5-1.7S56,14.5,56,15.5c0,0.9,0.5,1.7,1.5,1.7S59,16.4,59,15.5z"/>
		<path class="st0" d="M61.2,15.5c0-1.7,1.1-3,3-3c1.9,0,3,1.3,3,3s-1.1,3-3,3C62.4,18.6,61.2,17.1,61.2,15.5z M65.7,15.5
			c0-0.9-0.5-1.7-1.5-1.7s-1.5,0.7-1.5,1.7c0,0.9,0.5,1.7,1.5,1.7S65.7,16.4,65.7,15.5z"/>
		<path class="st0" d="M70.6,16.2l-0.7,0.7v1.5h-1.5v-7.9h1.5v4.7l2.2-2.5H74l-2.3,2.6l2.3,3.1h-2L70.6,16.2z"/>
		<path class="st0" d="M74.6,10.9c0-0.5,0.4-0.9,0.9-0.9s0.9,0.4,0.9,0.9s-0.4,0.9-0.9,0.9C75,11.9,74.6,11.5,74.6,10.9z M74.7,12.6
			h1.5v5.8h-1.5V12.6z"/>
		<path class="st0" d="M81.6,14.9c0-0.8-0.4-1.1-1-1.1s-1,0.3-1.3,0.7v3.8h-1.5v-5.8h1.5v0.7c0.3-0.4,1.1-0.9,2-0.9
			c1.2,0,1.9,0.7,1.9,1.9v4h-1.5L81.6,14.9L81.6,14.9z"/>
		<path class="st0" d="M85.2,18.8c0.5,0.5,1.1,0.7,1.8,0.7s1.6-0.3,1.6-1.5v-0.5c-0.5,0.5-1.1,0.9-1.8,0.9c-1.5,0-2.5-1-2.5-3
			c0-1.9,1.1-3,2.5-3c0.7,0,1.3,0.3,1.8,0.9v-0.7h1.5V18c0,2.2-1.7,2.7-3.1,2.7c-0.9,0-1.7-0.2-2.4-0.8L85.2,18.8z M88.5,14.5
			c-0.3-0.4-0.8-0.7-1.3-0.7c-0.8,0-1.5,0.6-1.5,1.6s0.6,1.6,1.5,1.6c0.5,0,1-0.3,1.3-0.7V14.5z"/>
		<path class="st0" d="M94.8,14h-0.9v-1.3h0.9v-0.3c0-1.2,0.8-2,1.9-2c0.4,0,0.8,0.1,1.1,0.2l-0.3,1.1c-0.2-0.1-0.3-0.2-0.5-0.2
			c-0.4,0-0.7,0.3-0.7,0.8v0.2h1.1v1.3h-1.1v4.4h-1.5V14L94.8,14z"/>
		<path class="st0" d="M98.3,12.6h1.5v0.7c0.4-0.5,1.1-0.9,1.9-0.9v1.5c-0.2,0-0.3-0.1-0.4-0.1c-0.5,0-1.1,0.3-1.5,0.7v3.8h-1.5
			V12.6L98.3,12.6z"/>
		<path class="st0" d="M102.3,15.5c0-1.7,1.1-3,3-3s3,1.3,3,3s-1.1,3-3,3C103.4,18.6,102.3,17.1,102.3,15.5z M106.8,15.5
			c0-0.9-0.5-1.7-1.5-1.7s-1.5,0.7-1.5,1.7c0,0.9,0.5,1.7,1.5,1.7S106.8,16.4,106.8,15.5z"/>
		<path class="st0" d="M116.6,14.8c0-0.5-0.2-0.9-0.8-0.9c-0.5,0-0.9,0.3-1.1,0.7v3.8h-1.5v-3.6c0-0.5-0.2-0.9-0.8-0.9
			c-0.5,0-0.9,0.3-1.1,0.7v3.8h-1.5v-5.8h1.5v0.7c0.2-0.3,1-0.9,1.9-0.9c0.8,0,1.3,0.4,1.6,1c0.3-0.5,1.1-1,2-1c1,0,1.7,0.5,1.7,1.7
			v4.1H117v-3.5h-0.4V14.8z"/>
	</g>
	<g>
		<path class="st0" d="M71,37.8V32h1.1v0.5c0.3-0.4,0.8-0.6,1.3-0.6c1.1,0,1.9,0.8,1.9,2.2c0,1.4-0.8,2.2-1.9,2.2
			c-0.5,0-0.9-0.2-1.3-0.7v2.1H71V37.8z M73,32.9c-0.4,0-0.8,0.2-0.9,0.5v1.5c0.2,0.3,0.6,0.5,0.9,0.5c0.6,0,1-0.5,1-1.2
			S73.6,32.9,73,32.9z"/>
		<path class="st0" d="M77.9,31.9c1.2,0,2.1,0.9,2.1,2.3v0.3h-3.1c0.1,0.5,0.5,1,1.2,1c0.4,0,0.9-0.2,1.1-0.4l0.5,0.7
			c-0.4,0.4-1.1,0.6-1.7,0.6c-1.3,0-2.2-0.9-2.2-2.2C75.8,32.9,76.7,31.9,77.9,31.9z M76.9,33.7H79c-0.1-0.4-0.3-0.9-1-0.9
			S77,33.3,76.9,33.7z"/>
		<path class="st0" d="M80.8,32h1.1v0.6c0.3-0.4,0.8-0.7,1.3-0.7V33c0,0-0.1,0-0.2,0c-0.4,0-0.9,0.2-1,0.5v2.8h-1.1L80.8,32L80.8,32
			z"/>
		<path class="st0" d="M86.2,37.8V32h1.1v0.5c0.3-0.4,0.8-0.6,1.3-0.6c1.1,0,1.9,0.8,1.9,2.2c0,1.4-0.8,2.2-1.9,2.2
			c-0.5,0-0.9-0.2-1.3-0.7v2.1h-1.1V37.8z M88.3,32.9c-0.4,0-0.8,0.2-0.9,0.5v1.5c0.2,0.3,0.6,0.5,0.9,0.5c0.6,0,1-0.5,1-1.2
			C89.4,33.4,88.9,32.9,88.3,32.9z"/>
		<path class="st0" d="M91,34.1c0-1.2,0.8-2.2,2.2-2.2c1.4,0,2.2,1,2.2,2.2s-0.8,2.2-2.2,2.2C91.9,36.3,91,35.3,91,34.1z M94.3,34.1
			c0-0.7-0.4-1.2-1.1-1.2s-1.1,0.6-1.1,1.2s0.4,1.2,1.1,1.2C93.9,35.4,94.3,34.8,94.3,34.1z"/>
		<path class="st0" d="M96.3,32h1.1v0.6c0.3-0.4,0.8-0.7,1.3-0.7V33c-0.1,0-0.1,0-0.3,0c-0.4,0-0.9,0.2-1,0.5v2.8h-1.1V32z"/>
		<path class="st0" d="M99.6,35.2V33h-0.7v-0.9h0.7V31h1.1v1.1h0.9V33h-0.9v1.9c0,0.3,0.2,0.5,0.4,0.5c0.2,0,0.3-0.1,0.4-0.1
			l0.3,0.8c-0.2,0.2-0.5,0.3-0.9,0.3C100,36.3,99.6,35.9,99.6,35.2z"/>
		<path class="st0" d="M102.2,30.7c0-0.4,0.3-0.7,0.7-0.7s0.7,0.3,0.7,0.7c0,0.4-0.3,0.7-0.7,0.7S102.2,31.1,102.2,30.7z M102.4,32
			h1.1v4.2h-1.1V32z"/>
		<path class="st0" d="M104.2,34.1c0-1.2,0.8-2.2,2.2-2.2c1.4,0,2.2,1,2.2,2.2s-0.8,2.2-2.2,2.2C105.1,36.3,104.2,35.3,104.2,34.1z
			 M107.6,34.1c0-0.7-0.4-1.2-1.1-1.2s-1.1,0.6-1.1,1.2s0.4,1.2,1.1,1.2S107.6,34.8,107.6,34.1z"/>
		<path class="st0" d="M112.3,33.7c0-0.6-0.3-0.8-0.8-0.8s-0.8,0.3-0.9,0.5v2.9h-1.1v-4.2h1.1v0.5c0.3-0.3,0.8-0.7,1.5-0.7
			c0.9,0,1.3,0.5,1.3,1.3v3h-1.1V33.7L112.3,33.7z"/>
	</g>
</g>
<g>
	<path class="st0" d="M28.1,36.5v1.6h-1.7v-1.6c-1.9-0.2-3.3-0.9-4.2-1.9l1.4-1.9c0.7,0.7,1.7,1.3,2.9,1.5v-2.8
		c-1.9-0.5-3.9-1.2-3.9-3.6c0-1.8,1.5-3.4,3.9-3.6v-1.7h1.7v1.7c1.5,0.1,2.7,0.7,3.7,1.6l-1.4,1.9c-0.6-0.6-1.4-1-2.2-1.2V29
		c1.9,0.5,3.9,1.2,3.9,3.7C32,34.6,30.7,36.2,28.1,36.5z M26.6,28.6v-2.3c-0.9,0.1-1.4,0.6-1.4,1.2C25.1,28.1,25.7,28.4,26.6,28.6z
		 M27.9,34.2c1-0.1,1.5-0.7,1.5-1.3c0-0.7-0.6-1-1.5-1.2V34.2z"/>
	<path class="st0" d="M36.3,36.3v-8.7l-2,2l-1.5-1.5l3.8-3.8h2.2v12H36.3z"/>
	<path class="st0" d="M42.4,33.6c0.8,0,1.5,0.7,1.5,1.5s-0.7,1.5-1.5,1.5s-1.5-0.7-1.5-1.5C40.9,34.2,41.6,33.6,42.4,33.6z"/>
	<path class="st0" d="M47,33.3c0.6,0.6,1.3,0.9,2.4,0.9c1.9,0,3-1.6,3-3.5v-0.3c-0.6,0.8-1.8,1.5-3.1,1.5c-2.2,0-4.1-1.3-4.1-3.9
		c0-2.3,1.9-4.1,4.6-4.1c3.6,0,5.2,2.8,5.2,6.2c0,3.6-2,6.2-5.6,6.2c-1.5,0-2.7-0.5-3.5-1.2L47,33.3z M49.9,26.3
		c-1.4,0-2.1,1-2.1,1.8c0,1.3,1.1,1.8,2.2,1.8c0.9,0,1.8-0.4,2.3-1.1C52.3,27.7,51.6,26.3,49.9,26.3z"/>
	<path class="st0" d="M57.9,33.3c0.6,0.6,1.3,0.9,2.4,0.9c1.9,0,3-1.6,3-3.5v-0.3c-0.6,0.8-1.8,1.5-3.1,1.5c-2.2,0-4.1-1.3-4.1-3.9
		c0-2.3,1.9-4.1,4.6-4.1c3.6,0,5.2,2.8,5.2,6.2c0,3.6-2,6.2-5.6,6.2c-1.5,0-2.7-0.5-3.5-1.2L57.9,33.3z M60.9,26.3
		c-1.4,0-2.1,1-2.1,1.8c0,1.3,1.1,1.8,2.2,1.8c0.9,0,1.8-0.4,2.3-1.1C63.2,27.7,62.6,26.3,60.9,26.3z"/>
</g>
</svg>
