<?xml version="1.0" encoding="UTF-8"?><svg xmlns="http://www.w3.org/2000/svg" viewBox="0 0 267.86 65.17"><defs><style>.d{fill:#fcdacc;}.e{fill:#ff3008;}</style></defs><g id="a"/><g id="b"><g id="c"><g><rect class="d" x="0" y="0" width="267.86" height="65.17" rx="32.58" ry="32.58"/><g><path class="e" d="M48.19,21.69c6.56,0,11.43,4.83,11.43,10.84s-4.86,10.84-11.43,10.84-11.43-4.83-11.43-10.84,4.86-10.84,11.43-10.84Zm0,16.55c3.19,0,5.71-2.49,5.71-5.71s-2.52-5.71-5.71-5.71-5.71,2.52-5.71,5.71,2.49,5.71,5.71,5.71Z"/><path class="e" d="M63.27,22.28h9.67c4.37,0,7.47,3.08,7.47,7.03,0,2.23-.85,3.66-1.76,4.57-.5,.53-1.08,.97-1.76,1.29l4.25,7.62h-5.86l-3.37-6.45h-3.08v6.45h-5.57V22.28Zm9.38,9.08c1.32,0,2.2-.88,2.2-2.05s-.88-2.05-2.2-2.05h-3.81v4.1h3.81Z"/><path class="e" d="M84.43,22.28h7.62c6.59,0,11.13,4.54,11.13,10.25s-4.54,10.25-11.13,10.25h-7.62V22.28Zm7.62,15.53c3.19,0,5.42-2.23,5.42-5.27s-2.23-5.27-5.42-5.27h-2.05v10.55h2.05Z"/><path class="e" d="M106.84,22.28h15.67v4.98h-10.11v2.93h7.76v4.69h-7.76v2.93h10.4v4.98h-15.97V22.28Z"/><path class="e" d="M126.77,22.28h9.67c4.37,0,7.47,3.08,7.47,7.03,0,2.23-.85,3.66-1.76,4.57-.5,.53-1.08,.97-1.76,1.29l4.25,7.62h-5.86l-3.37-6.45h-3.08v6.45h-5.57V22.28Zm9.38,9.08c1.32,0,2.2-.88,2.2-2.05s-.88-2.05-2.2-2.05h-3.81v4.1h3.81Z"/><path class="e" d="M154.75,22.28h4.83l8.79,11.28v-11.28h5.57v20.51h-4.83l-8.79-11.28v11.28h-5.57V22.28Z"/><path class="e" d="M189.02,21.69c6.56,0,11.43,4.83,11.43,10.84s-4.86,10.84-11.43,10.84-11.43-4.83-11.43-10.84,4.86-10.84,11.43-10.84Zm0,16.55c3.19,0,5.71-2.49,5.71-5.71s-2.52-5.71-5.71-5.71-5.71,2.52-5.71,5.71,2.49,5.71,5.71,5.71Z"/><path class="e" d="M201.22,22.28h6.01l3.22,12.01h.15l3.66-12.01h4.98l3.66,12.01h.15l3.22-12.01h6.01l-6.74,20.51h-4.98l-3.75-12.3h-.12l-3.75,12.3h-4.98l-6.74-20.51Z"/></g></g></g></g></svg>