<?xml version="1.0" encoding="UTF-8"?><svg xmlns="http://www.w3.org/2000/svg" xmlns:xlink="http://www.w3.org/1999/xlink" viewBox="0 0 970 891"><defs><style>.e,.f{fill:none;}.g{fill:#fff;}.h{fill:#ff3008;}.i{clip-path:url(#d);}.f{stroke:#fff;stroke-miterlimit:10;stroke-width:2.2px;}</style><clipPath id="d"><rect class="e" width="970" height="891"/></clipPath></defs><g id="a"/><g id="b"><g id="c"><g class="i"><g><g><path class="h" d="M421.52,34.21c7.42,0,13.04,5.61,13.04,12.67s-5.61,12.67-13.04,12.67h-8.76c-.36,0-.66-.29-.66-.66v-24.03c0-.36,.29-.66,.66-.66h8.76Zm-3.98,4.89v15.57h3.98c4.17,0,7.6-3.44,7.6-7.79s-3.26-7.79-7.6-7.79h-3.98Z"/><path class="h" d="M453.71,33.67c7.79,0,13.76,5.97,13.76,13.22s-5.97,13.22-13.76,13.22-13.76-5.97-13.76-13.22,5.97-13.22,13.76-13.22m0,21.54c4.52,0,8.37-3.62,8.37-8.33s-3.84-8.33-8.37-8.33-8.32,3.62-8.32,8.33,3.8,8.33,8.32,8.33"/><path class="h" d="M486.42,33.67c7.79,0,13.76,5.97,13.76,13.22s-5.97,13.22-13.76,13.22-13.76-5.97-13.76-13.22,5.97-13.22,13.76-13.22m0,21.54c4.52,0,8.37-3.62,8.37-8.33s-3.84-8.33-8.37-8.33-8.32,3.62-8.32,8.33,3.8,8.33,8.32,8.33"/><path class="h" d="M507.37,34.86c0-.36,.29-.66,.66-.66h10.57c5.07,0,8.69,3.69,8.69,8.33,0,5.43-4.53,7.42-4.53,7.42l4.87,8.62c.25,.44-.07,.98-.57,.98h-4.28c-.24,0-.46-.13-.58-.34l-4.7-8.53h-4.71v8.22c0,.36-.29,.66-.66,.66h-4.12c-.36,0-.66-.29-.66-.66v-24.03Zm11.05,4.23h-5.61v6.7h5.61c1.99,0,3.44-1.45,3.44-3.26,0-1.99-1.45-3.44-3.44-3.44"/><path class="h" d="M545.41,34.32c7.42,0,13.04,5.61,13.04,12.67s-5.61,12.67-13.04,12.67h-8.76c-.36,0-.66-.29-.66-.66v-24.03c0-.36,.29-.66,.66-.66h8.76Zm-3.98,4.89v15.57h3.98c4.17,0,7.6-3.44,7.6-7.79s-3.26-7.79-7.6-7.79h-3.98Z"/><path class="h" d="M570.11,53.55l-2.02,5.54c-.09,.26-.34,.43-.62,.43h-4.37c-.46,0-.78-.47-.61-.9l9.44-24.03c.1-.25,.34-.42,.61-.42h4.9c.27,0,.51,.17,.61,.42l9.44,24.03c.17,.43-.15,.9-.61,.9h-4.37c-.28,0-.52-.17-.62-.43l-2.02-5.54h-9.78Zm4.89-13.04l-3.08,8.33h6.16l-3.08-8.33Z"/><path class="h" d="M592.59,41.06c0-3.98,3.44-7.42,8.87-7.42,4.3,0,6.9,2.02,7.88,2.97,.26,.25,.27,.66,.02,.92l-2.45,2.44c-.24,.24-.64,.26-.9,.03-.68-.61-2.15-1.65-4.2-1.65-2.17,0-3.79,1.27-3.79,2.72,0,4.71,12.84,1.99,12.84,11.04,0,4.53-3.44,7.97-9.6,7.97-4.99,0-8.08-2.59-9.16-3.68-.25-.26-.25-.67,0-.92l2.34-2.34c.25-.25,.66-.26,.91-.02,.81,.78,2.73,2.26,5.54,2.26s4.51-1.45,4.51-3.26c0-4.71-12.83-1.99-12.83-11.04"/><path class="h" d="M634.17,34.84v9.48h-10.86v-9.48c0-.36-.29-.66-.66-.66h-4.12c-.36,0-.66,.29-.66,.66v24.03c0,.36,.29,.66,.66,.66h4.12c.36,0,.66-.29,.66-.66v-9.66h10.86v9.66c0,.36,.29,.66,.66,.66h4.12c.36,0,.66-.29,.66-.66v-24.03c0-.36-.29-.66-.66-.66h-4.12c-.36,0-.66,.29-.66,.66"/><path class="h" d="M390.66,37.5c-2.75-5.22-8.21-8.43-14.09-8.43h-44.64c-1.36,0-2.04,1.66-1.08,2.62l9.72,9.78c.86,.86,2.03,1.35,3.24,1.35h31.47c1.89,0,3.61,1.28,4.02,3.14,.58,2.64-1.41,4.98-3.93,4.98h-21.69c-1.36,0-2.04,1.66-1.08,2.62l9.72,9.78c.86,.86,2.03,1.35,3.24,1.35h9.81c12.76,0,22.42-13.65,15.29-27.19"/></g><g><path class="g" d="M186.83,682.82h5.26l7.02,9.04v-9.04h6.07v18.9h-5.26l-7.02-9.04v9.04h-6.07v-18.9Z"/><path class="g" d="M218.55,682.28c6.18,0,10.66,4.45,10.66,9.99s-4.48,9.99-10.66,9.99-10.66-4.45-10.66-9.99,4.48-9.99,10.66-9.99Zm0,14.58c2.59,0,4.59-2,4.59-4.59s-2-4.59-4.59-4.59-4.59,2-4.59,4.59,2,4.59,4.59,4.59Z"/><path class="g" d="M229.09,682.82h6.48l2.56,10.39h.13l2.97-10.39h4.86l2.97,10.39h.14l2.56-10.39h6.48l-6.21,18.9h-5.26l-3.05-9.99h-.11l-3.05,9.99h-5.26l-6.21-18.9Z"/><path class="g" d="M264.59,682.82h7.56c5.94,0,10.26,4.35,10.26,9.45s-4.32,9.45-10.26,9.45h-7.56v-18.9Zm7.42,13.77c2.59,0,4.32-1.73,4.32-4.32s-1.73-4.32-4.32-4.32h-1.35v8.64h1.35Z"/><path class="g" d="M285.11,682.82h14.98v4.99h-8.91v2.29h6.75v4.32h-6.75v2.29h9.18v4.99h-15.25v-18.9Z"/><path class="g" d="M303.2,682.82h6.07v13.23h7.83v5.67h-13.9v-18.9Z"/><path class="g" d="M319.4,682.82h6.07v18.9h-6.07v-18.9Z"/><path class="g" d="M326.96,682.82h6.48l3.37,12.82h.13l3.37-12.82h6.48l-6.48,18.9h-6.88l-6.48-18.9Z"/><path class="g" d="M348.29,682.82h14.98v4.99h-8.91v2.29h6.75v4.32h-6.75v2.29h9.18v4.99h-15.25v-18.9Z"/><path class="g" d="M366.38,682.82h9.31c4.18,0,7.15,2.97,7.15,6.75,0,1.97-.76,3.29-1.49,4.16-.46,.51-.94,.92-1.48,1.24l3.64,6.75h-6.34l-2.7-5.4h-2.02v5.4h-6.07v-18.9Zm8.64,8.37c1.08,0,1.75-.67,1.75-1.62s-.67-1.62-1.75-1.62h-2.56v3.24h2.56Z"/><path class="g" d="M385.82,682.82h6.07v18.9h-6.07v-18.9Z"/><path class="g" d="M395.67,682.82h5.26l7.02,9.04v-9.04h6.07v18.9h-5.26l-7.02-9.04v9.04h-6.07v-18.9Z"/><path class="g" d="M427.13,691.19h8.77v7.29c-.62,.7-1.35,1.32-2.19,1.89-1.43,.94-3.54,1.89-6.32,1.89-6.18,0-10.66-4.45-10.66-9.99s4.48-9.99,10.66-9.99c2.78,0,4.8,.89,6.18,1.84,.81,.54,1.49,1.13,2.05,1.81l-3.64,3.91c-.32-.41-.7-.76-1.16-1.08-.76-.54-1.89-1.08-3.29-1.08-2.7,0-4.72,2-4.72,4.59s2,4.59,4.59,4.59c1,0,1.73-.19,2.24-.41,.3-.11,.54-.24,.73-.41v-1.48h-3.24v-3.37Z"/></g><g><path class="f" d="M151.76,732.47h13.4l13.06,16.75,13.07-16.75h13.4v46.9h-15.08v-25.12l-11.39,14.41-11.39-14.41v25.12h-15.08v-46.9Z"/><path class="f" d="M238.22,731.13c15.34,0,26.47,11.05,26.47,24.79s-11.12,24.79-26.47,24.79-26.47-11.05-26.47-24.79,11.12-24.79,26.47-24.79Zm0,36.18c6.43,0,11.39-4.96,11.39-11.39s-4.96-11.39-11.39-11.39-11.39,4.96-11.39,11.39,4.96,11.39,11.39,11.39Z"/><path class="f" d="M271.71,732.47h23.12c10.38,0,17.76,7.37,17.76,16.75,0,4.89-1.88,8.17-3.69,10.32-1.14,1.27-2.35,2.28-3.69,3.08l9.04,16.75h-15.74l-6.7-13.4h-5.02v13.4h-15.08v-46.9Zm21.44,20.77c2.68,0,4.36-1.68,4.36-4.02s-1.67-4.02-4.36-4.02h-6.36v8.04h6.36Z"/><path class="f" d="M320.49,732.47h37.19v12.39h-22.11v5.7h16.75v10.72h-16.75v5.7h22.78v12.39h-37.86v-46.9Z"/><path class="f" d="M390.84,746.2h-12.4v-13.74h39.87v13.74h-12.4v33.17h-15.07v-33.17Z"/><path class="f" d="M447.83,731.13c15.34,0,26.46,11.05,26.46,24.79s-11.12,24.79-26.46,24.79-26.46-11.05-26.46-24.79,11.12-24.79,26.46-24.79Zm0,36.18c6.43,0,11.39-4.96,11.39-11.39s-4.96-11.39-11.39-11.39-11.39,4.96-11.39,11.39,4.96,11.39,11.39,11.39Z"/><path class="g" d="M113.2,822.33l-16.75-30.15h16.42l7.71,17.76h.34l7.71-17.76h16.41l-16.75,30.15v16.75h-15.08v-16.75Z"/><path class="g" d="M169.48,790.84c15.34,0,26.46,11.06,26.46,24.79s-11.12,24.79-26.46,24.79-26.46-11.05-26.46-24.79,11.12-24.79,26.46-24.79Zm0,36.18c6.43,0,11.39-4.96,11.39-11.39s-4.96-11.39-11.39-11.39-11.39,4.96-11.39,11.39,4.96,11.39,11.39,11.39Z"/><path class="g" d="M201.98,792.18h15.07v27.14c0,4.09,3.28,7.37,7.04,7.37s7.04-3.28,7.04-7.37v-27.14h15.08v27.14c0,12.06-8.98,21.11-22.11,21.11s-22.11-9.04-22.11-21.11v-27.14Z"/><path class="g" d="M254.91,792.18h23.12c10.38,0,17.76,7.37,17.76,16.75,0,4.89-1.88,8.17-3.69,10.32-1.14,1.27-2.35,2.28-3.69,3.08l9.04,16.75h-15.74l-6.7-13.4h-5.02v13.4h-15.08v-46.9Zm21.44,20.77c2.68,0,4.36-1.67,4.36-4.02s-1.67-4.02-4.36-4.02h-6.36v8.04h6.36Z"/><path class="g" d="M317.21,792.18h18.76c14.74,0,25.46,10.79,25.46,23.45s-10.72,23.45-25.46,23.45h-18.76v-46.9Zm18.43,34.17c6.43,0,10.72-4.29,10.72-10.72s-4.29-10.72-10.72-10.72h-3.35v21.44h3.35Z"/><path class="g" d="M391.92,790.84c15.34,0,26.46,11.06,26.46,24.79s-11.12,24.79-26.46,24.79-26.47-11.05-26.47-24.79,11.12-24.79,26.47-24.79Zm0,36.18c6.43,0,11.39-4.96,11.39-11.39s-4.96-11.39-11.39-11.39-11.39,4.96-11.39,11.39,4.96,11.39,11.39,11.39Z"/><path class="g" d="M448.87,790.84c15.34,0,26.46,11.06,26.46,24.79s-11.12,24.79-26.46,24.79-26.47-11.05-26.47-24.79,11.12-24.79,26.47-24.79Zm0,36.18c6.43,0,11.39-4.96,11.39-11.39s-4.96-11.39-11.39-11.39-11.39,4.96-11.39,11.39,4.96,11.39,11.39,11.39Z"/><path class="g" d="M482.03,792.18h23.12c10.38,0,17.75,7.37,17.75,16.75,0,4.89-1.88,8.17-3.68,10.32-1.14,1.27-2.35,2.28-3.69,3.08l9.04,16.75h-15.75l-6.7-13.4h-5.03v13.4h-15.08v-46.9Zm21.44,20.77c2.68,0,4.36-1.67,4.36-4.02s-1.68-4.02-4.36-4.02h-6.37v8.04h6.37Z"/></g></g></g></g></g></svg>