<svg xmlns="http://www.w3.org/2000/svg" viewBox="0 0 300 518.52"><defs><style>.cls-1{fill:#00b7c6;opacity:0.95;}.cls-2{fill:#fff;}.cls-3{fill:#3c4c55;}.cls-4{fill:#f1663b;}.cls-5{fill:#93c848;}.cls-6{fill:#eae96d;}.cls-7{fill:#0ab4c2;}.cls-8{fill:#4ec3ce;}.cls-9{fill:#fab416;}.cls-10{fill:#fdce09;}.cls-11{fill:#c0dc92;}.cls-12{fill:#fbed23;}</style></defs><g id="Layer_2" data-name="Layer 2"><g id="Layer_1-2" data-name="Layer 1"><polygon class="cls-1" points="300 218.52 300 0 0 218.52 0 518.52 51.46 518.52 300 337.48 300 218.52"/><polygon class="cls-2" points="51.46 518.52 300 518.52 300 337.48 51.46 518.52"/><path class="cls-3" d="M177.8,467v-4.26h5.54V454h5.12v8.78h6.78V467h-6.78v12.94c0,1.8.57,2.21,1.49,2.21a2.6,2.6,0,0,0,1.54-.62l2,3.59a6.7,6.7,0,0,1-4.41,1.43c-3.33,0-5.74-1.64-5.74-6.51V467Z"/><path class="cls-3" d="M193.83,479.78V469.17H199v10.25a2.81,2.81,0,0,0,3.13,3.12c2.46,0,3.84-1.33,3.84-3.94v-9.43h5.13v17.52h-5.13v-2.25c-1.12,1.9-3,2.72-5.48,2.72-3.9,0-6.61-2.72-6.61-7.38"/><path class="cls-3" d="M242.38,482.85a6.58,6.58,0,0,0,4.56-1.69l3.08,3.07a9.68,9.68,0,0,1-7.53,2.93c-6.1,0-10-3.9-10-9.23A9.16,9.16,0,0,1,242,468.7c6.15,0,9.64,4.87,9.23,11H237.82c.51,1.95,2,3.18,4.56,3.18m3.44-6.76A3.64,3.64,0,0,0,242,473a3.92,3.92,0,0,0-4.1,3.08Z"/><rect class="cls-3" x="252.33" y="460.89" width="5.13" height="25.81"/><path class="cls-3" d="M223.16,468.7c-2.66,0-4.46.93-5.43,2.46v-2h-5.12v22.57h0c0,1.64-.6,2-1.49,2a2.63,2.63,0,0,1-1.53-.61l-2,3.58a6.64,6.64,0,0,0,4.4,1.44c3.34,0,5.74-1.64,5.74-6.51h0v-7c1,1.53,2.77,2.46,5.43,2.46,4.56,0,8.25-3.9,8.25-9.23s-3.69-9.23-8.25-9.23m-1.33,13.95c-2.61,0-4.2-1.85-4.2-4.72s1.59-4.72,4.2-4.72,4.31,1.85,4.31,4.72-1.7,4.72-4.31,4.72"/><path class="cls-3" d="M280.74,468.53h-4.11a2.57,2.57,0,0,1-.21,1.64c-.45.81-1.08,1.1-2.65.23h0a9.93,9.93,0,0,0-5.68-1.71c-5.38,0-9.58,3.9-9.58,9.23s4.2,9.23,9.58,9.23,9.59-3.9,9.59-9.23a9.87,9.87,0,0,0-.27-2.27,6.11,6.11,0,0,0,2.44-2.58,6.68,6.68,0,0,0,.89-4.55M268.09,482.8c-2.66,0-4.3-2.05-4.3-4.87s1.64-4.87,4.3-4.87,4.31,2.05,4.31,4.87-1.64,4.87-4.31,4.87"/><line class="cls-4" x1="229.51" y1="465.77" x2="238.36" y2="445.19"/><polygon class="cls-4" points="238.36 445.19 229.51 465.77 226.97 452.48 238.36 445.19"/><polygon class="cls-5" points="197.32 445.19 206.18 465.77 208.72 452.48 208.66 452.44 197.32 445.19"/><path class="cls-4" d="M231.38,438a2.84,2.84,0,1,0,2.84,2.84,2.84,2.84,0,0,0-2.84-2.84"/><path class="cls-5" d="M204.3,438a2.84,2.84,0,1,0,2.84,2.84A2.84,2.84,0,0,0,204.3,438"/><path class="cls-6" d="M217.84,433.13a2.84,2.84,0,1,0,2.84,2.84,2.84,2.84,0,0,0-2.84-2.84"/><polygon class="cls-7" points="211.25 439.21 208.72 452.48 213.3 455.4 217.84 448.79 211.25 439.21"/><polygon class="cls-8" points="208.72 452.48 206.18 465.77 213.3 455.4 208.72 452.48"/><polygon class="cls-6" points="224.43 439.21 217.84 448.79 222.38 455.4 226.97 452.48 224.43 439.21"/><polygon class="cls-9" points="226.97 452.48 222.38 455.4 229.51 465.77 226.97 452.48"/><polygon class="cls-5" points="217.84 448.79 213.3 455.4 213.41 455.48 217.84 458.31 222.27 455.48 222.38 455.4 217.84 448.79"/><polygon class="cls-10" points="222.38 455.4 222.27 455.48 217.84 458.31 229.51 465.77 222.38 455.4"/><polygon class="cls-11" points="213.3 455.4 206.18 465.77 217.84 458.31 213.41 455.48 213.3 455.4"/><polygon class="cls-12" points="217.84 458.31 206.18 465.77 229.51 465.77 217.84 458.31"/></g></g></svg>