<?xml version="1.0" encoding="utf-8"?>
<!-- Generator: Adobe Illustrator 25.0.0, SVG Export Plug-In . SVG Version: 6.00 Build 0)  -->
<svg version="1.1" id="_Layer_" xmlns="http://www.w3.org/2000/svg" xmlns:xlink="http://www.w3.org/1999/xlink" x="0px" y="0px"
	 viewBox="0 0 300 300" style="enable-background:new 0 0 300 300;" xml:space="preserve">
<style type="text/css">
	.st0{fill:#FFFFFF;}
</style>
<path class="st0" d="M50,25.2l0.3-1.7h1.3l0.4-1.6h1.7l-0.4,1.6h1.2l0.4-1.6h1.7l-0.4,1.6h1l-0.3,1.7h-1.2l-0.3,1.3h1.2l-0.3,1.7H55
	l-0.4,1.7h-1.7l0.4-1.7h-1.2l-0.4,1.7h-1.7l0.4-1.7h-0.9l0.3-1.7h1.1l0.3-1.3H50z M52.9,25.2l-0.3,1.3h1.2l0.3-1.3H52.9z"/>
<path class="st0" d="M58.4,20.9h2.3l1.2,4.3c0.2,1,0.4,1.9,0.5,2.9c0.4-0.9,0.8-1.9,1.3-2.8l2.5-4.4h2.4l-6.7,11.5h-0.2L58.4,20.9z"
	/>
<path class="st0" d="M68,30.2l0.9-5.1h2.2l-0.9,5.1c0,0.3,0,0.4,0.3,0.4H71l-0.3,1.7h-0.8C68.2,32.3,67.7,31.9,68,30.2z M69,22.5
	c0-0.7,0.6-1.3,1.3-1.4c0,0,0,0,0.1,0c0.8,0,1.4,0.6,1.4,1.3c0,0.8-0.6,1.4-1.3,1.4C69.6,23.9,69,23.3,69,22.5
	C69,22.6,69,22.6,69,22.5z"/>
<path class="st0" d="M71.7,31l1.5-1.1c0.3,0.5,0.9,0.9,1.6,0.8c0.7,0,0.8-0.2,0.8-0.4s-0.3-0.3-1.3-0.8c-1-0.3-1.6-1.2-1.6-2.2
	c0-1.5,1.1-2.3,2.7-2.3c0.9,0,1.9,0.4,2.5,1.1l-1.4,1.2c-0.2-0.4-0.6-0.6-1.1-0.6c-0.4,0-0.7,0.2-0.7,0.4s0.3,0.4,1,0.7
	c1.2,0.5,2,1,2,2.3s-1,2.3-3,2.3C73.5,32.5,72.3,32,71.7,31z"/>
<path class="st0" d="M79.2,30.2l0.9-5.1h2.2l-0.9,5.1c0,0.3,0,0.4,0.3,0.4h0.5L82,32.3h-0.8C79.5,32.3,78.9,31.9,79.2,30.2z
	 M80.3,22.5c0-0.8,0.6-1.4,1.4-1.4s1.4,0.6,1.4,1.4s-0.6,1.4-1.4,1.4c0,0,0,0,0,0C80.9,23.9,80.3,23.3,80.3,22.5
	C80.3,22.6,80.3,22.6,80.3,22.5z"/>
<path class="st0" d="M83.7,27l0.3-1.8h1l0.7-3.7h2.2l-0.7,3.7H89L88.7,27h-1.7l-0.5,2.7c-0.1,0.7,0.1,0.9,0.4,0.9
	c0.3,0,0.5-0.1,0.8-0.2l0.7,1.6c-0.5,0.4-1.2,0.6-1.9,0.6c-1.4,0-2.6-0.6-2.2-2.8l0.5-2.6H83.7z"/>
<path class="st0" d="M91.5,20.8h0.2l4.3,6.2l6.6-6.2h0.2l-2,11.5h-2.2l0.8-4.3c0.1-0.8,0.4-2.1,0.4-2.1c-0.4,0.6-0.9,1.2-1.4,1.7
	l-2.7,2.5h-0.2l-1.8-2.5c-0.4-0.6-1-1.7-1-1.7s-0.1,1.3-0.3,2.1l-0.8,4.3h-2.2L91.5,20.8z"/>
<path class="st0" d="M102.5,30.1l1.8-1.2c0.5,0.9,1.4,1.5,2.4,1.5c1,0,1.6-0.5,1.6-1.2s-0.4-0.9-1.4-1.6l-0.5-0.4
	c-1.4-0.9-2.1-1.9-2.1-3.4c0-1.7,1.2-3.1,3.6-3.1c1.2-0.1,2.4,0.5,3.1,1.4l-1.6,1.4c-0.4-0.5-0.9-0.8-1.6-0.9
	c-0.5-0.1-1.1,0.3-1.2,0.8c0,0.1,0,0.2,0,0.3c0,0.6,0.3,0.9,1.2,1.5l0.6,0.4c1.5,1,2.5,1.8,2.5,3.4c0,2.3-1.7,3.4-4,3.4
	C105,32.5,103.4,31.6,102.5,30.1z"/>
<path class="st0" d="M120.3,32.3h-2.4l-1.5-2.9c-0.2,0-0.3,0-0.5,0h-1.2l-0.5,2.8h-2.3l2-11.4h2.5c2.9,0,4.7,1.5,4.7,4
	c0.1,1.7-1,3.3-2.6,3.9L120.3,32.3z M115.9,27.5c1.8,0,2.8-0.8,2.8-2.5c0-1.5-0.9-2.1-2.5-2.1h-0.4l-0.8,4.6H115.9z"/>
<path class="st0" d="M125.8,30.6c0.6,0,1.2-0.2,1.7-0.6l1.3,1.4c-0.8,0.7-1.9,1-3,1c-2.6,0-4-1.6-4-3.7c-0.1-2,1.5-3.7,3.6-3.8
	c0.1,0,0.1,0,0.2,0c2.5,0,3.6,1.6,3.8,4l-5.3,0.6C124.3,30.3,125,30.7,125.8,30.6z M126.9,28c0-0.7-0.5-1.2-1.2-1.3c0,0-0.1,0-0.1,0
	c-0.8,0-1.6,0.6-1.6,1.4c0,0.1,0,0.1,0,0.2L126.9,28z"/>
<path class="st0" d="M129.9,31l1.5-1.1c0.3,0.5,0.9,0.9,1.6,0.8c0.7,0,0.9-0.2,0.9-0.4s-0.3-0.3-1.3-0.8c-1-0.3-1.6-1.2-1.6-2.2
	c0-1.5,1.1-2.3,2.7-2.3c0.9,0,1.9,0.4,2.5,1.1l-1.4,1.2c-0.2-0.4-0.6-0.6-1.1-0.6c-0.4,0-0.6,0.2-0.6,0.4s0.3,0.4,1,0.7
	c1.2,0.5,2,1,2,2.3s-1,2.3-3,2.3C131.7,32.5,130.5,32,129.9,31z"/>
<path class="st0" d="M138.2,25.2h2.2l-0.2,1c0.5-0.7,1.2-1.2,2.1-1.2c1.6,0,2.9,1.3,2.9,3.4c0,2.5-1.6,4-3.4,4
	c-1,0.1-1.9-0.5-2.4-1.4l-0.8,4.8h-2.2L138.2,25.2z M142.9,28.5c0.1-0.8-0.4-1.5-1.2-1.6c-0.1,0-0.2,0-0.3,0c-1,0-1.7,0.8-1.7,1.8
	c0,0.1,0,0.1,0,0.2c0,1,0.5,1.7,1.5,1.7S142.9,29.8,142.9,28.5z"/>
<path class="st0" d="M146.3,28.8c0-2.1,1.6-3.8,3.7-3.8c0.1,0,0.2,0,0.3,0c2-0.1,3.7,1.5,3.7,3.5c0,0.1,0,0.1,0,0.2
	c0,2.1-1.6,3.8-3.7,3.8c-0.1,0-0.2,0-0.3,0c-2,0.1-3.7-1.5-3.7-3.5C146.3,28.9,146.3,28.9,146.3,28.8z M151.7,28.6
	c0.1-0.8-0.5-1.6-1.3-1.7c-0.1,0-0.1,0-0.2,0c-1,0-1.6,0.8-1.6,1.9c-0.1,0.8,0.5,1.6,1.3,1.7c0.1,0,0.1,0,0.2,0
	C151.1,30.6,151.7,29.8,151.7,28.6z"/>
<path class="st0" d="M156.1,25.2h2.2l-0.3,1.3c0.4-0.9,1.4-1.5,2.4-1.5c1.6,0,2.5,1.3,2.1,3.3l-0.3,1.9c0,0.3,0.1,0.4,0.3,0.4h0.5
	l-0.3,1.7h-0.8c-1.6,0-2.2-0.4-1.9-2.1l0.3-1.8c0.2-1-0.2-1.4-1-1.4s-1.3,0.4-1.5,1.5l-0.7,3.9h-2.2L156.1,25.2z"/>
<path class="st0" d="M163.6,31l1.5-1.1c0.3,0.5,0.9,0.9,1.6,0.8c0.7,0,0.9-0.2,0.9-0.4s-0.3-0.3-1.3-0.8c-1-0.3-1.6-1.2-1.6-2.2
	c0-1.5,1.1-2.3,2.7-2.3c0.9,0,1.9,0.4,2.5,1.1l-1.4,1.2c-0.2-0.4-0.6-0.6-1.1-0.6c-0.4,0-0.7,0.2-0.7,0.4s0.3,0.4,1,0.7
	c1.2,0.5,2,1,2,2.3s-1,2.3-3,2.3C165.4,32.5,164.3,32,163.6,31z"/>
<path class="st0" d="M171.2,30.2l0.9-5.1h2.2l-0.9,5.1c0,0.3,0.1,0.4,0.3,0.4h0.5l-0.3,1.7h-0.8C171.5,32.3,170.9,31.9,171.2,30.2z
	 M172.3,22.5c0-0.7,0.6-1.3,1.3-1.4c0,0,0,0,0.1,0c0.8,0,1.4,0.6,1.4,1.4s-0.6,1.4-1.4,1.4S172.3,23.3,172.3,22.5
	C172.3,22.6,172.3,22.6,172.3,22.5z"/>
<path class="st0" d="M177.6,31l-0.2,1.3h-2.2l2.1-12.1h2.2l-1,5.9c0.4-0.7,1.2-1.1,2-1.1c1.6,0,2.9,1.3,2.9,3.4c0,2.5-1.6,4-3.4,4
	C179,32.5,178.1,31.9,177.6,31z M181.2,28.6c0.1-0.8-0.4-1.5-1.2-1.6c-0.1,0-0.2,0-0.2,0c-1,0-1.7,0.8-1.7,1.8c0,0.1,0,0.1,0,0.1
	c0,1,0.5,1.7,1.5,1.7S181.1,29.8,181.2,28.6L181.2,28.6z"/>
<path class="st0" d="M184.7,30.2l1.8-10h2.2l-1.8,10c-0.1,0.3,0,0.4,0.3,0.4h0.6l-0.3,1.7h-1C185,32.3,184.4,31.9,184.7,30.2z"/>
<path class="st0" d="M188.3,34.6l1.5-1.4c0.4,0.6,1.1,0.9,1.8,0.9c1,0,1.6-0.5,1.8-1.7l0.2-1.1c-0.5,0.7-1.3,1.1-2.2,1.1
	c-1.6,0-2.5-1.3-2.1-3.3l0.7-4h2.2l-0.7,3.9c-0.2,1,0.2,1.4,1,1.4s1.3-0.4,1.5-1.5l0.7-3.9h2.3l-1.3,7.5c-0.2,2.1-2,3.5-4.1,3.3
	c0,0,0,0-0.1,0C190.3,36.1,189.1,35.6,188.3,34.6z"/>
</svg>
