<?xml version="1.0" encoding="utf-8"?>
<!-- Generator: Adobe Illustrator 25.2.3, SVG Export Plug-In . SVG Version: 6.00 Build 0)  -->
<svg version="1.1" id="Layer_1" xmlns="http://www.w3.org/2000/svg" xmlns:xlink="http://www.w3.org/1999/xlink" x="0px" y="0px"
	 viewBox="0 0 970 250" style="enable-background:new 0 0 970 250;" xml:space="preserve">
<style type="text/css">
	.st0{fill:#FFFFFF;}
</style>
<g id="Button_1">
	<path class="st0" d="M376.3,93.5c-0.6-0.2-1.2-0.2-1.8-0.2c-0.6,0-1.3,0-1.9-0.1c-0.1-0.4-0.1-0.8-0.1-1.2c0-0.4,0-0.8,0-1.2
		c0-0.2,0-0.5,0.1-0.7c0.2-0.1,0.5-0.2,0.7-0.2h4c1.3,0,2.6,0,3.9,0.2c0,0.3,0.1,0.6,0.1,0.8s0,0.6,0,0.8c0,1.3-0.2,2.7-0.5,4
		c-0.3,1.2-0.9,2.4-1.6,3.4c-0.7,1-1.7,1.8-2.8,2.3c-1.2,0.6-2.6,0.9-4,0.9c-1.4,0-2.7-0.3-4-0.8c-1.1-0.5-2.1-1.3-2.9-2.3
		c-0.8-1-1.4-2.1-1.7-3.3c-0.4-1.3-0.6-2.6-0.6-4c0-1.5,0.2-3,0.5-4.4c0.3-1.4,0.9-2.6,1.6-3.8c0.7-1.1,1.7-2,2.9-2.7
		c1.4-0.7,2.9-1,4.4-1c0.7,0,1.5,0.1,2.2,0.2c0.7,0.1,1.4,0.4,2.1,0.7c0.6,0.3,1.2,0.8,1.7,1.3c0.5,0.6,0.8,1.3,1,2
		c-0.5,0.4-1.1,0.8-1.7,1.1c-0.6,0.3-1.3,0.5-2,0.6c-0.3-0.6-0.7-1.1-1.3-1.4c-0.6-0.2-1.3-0.3-1.9-0.3c-0.8,0-1.6,0.2-2.2,0.6
		c-0.6,0.4-1.1,1-1.5,1.6c-0.4,0.7-0.7,1.4-0.8,2.1c-0.2,0.7-0.3,1.5-0.3,2.2c0,0.8,0.1,1.6,0.2,2.4c0.1,0.8,0.4,1.6,0.7,2.3
		c0.3,0.7,0.8,1.3,1.4,1.8c0.7,0.5,1.5,0.7,2.3,0.7c1.2,0.1,2.3-0.4,3.1-1.2c0.7-0.9,1.1-2.1,1-3.2c0,0,0-0.1-0.1-0.1L376.3,93.5z"
		/>
	<path class="st0" d="M395,102.2c-1.4,0-2.9,0-4.4,0.1c-1.4,0.1-2.9,0-4.3-0.3c-0.2-1.5-0.3-2.9-0.3-4.4c0-1.6,0-3.2,0-4.9
		c0-1.7,0.1-3.3,0.1-4.9s0.1-3.1,0.1-4.6l0.1-2.6c0.4,0,0.9-0.1,1.3-0.1h1.3h9.7l1.5,0.1c0.1,0.6,0.1,1.3,0.1,1.9v0.9
		c0,0.3,0,0.6-0.1,0.9c-0.3,0-0.6,0-0.9,0.1s-0.6,0-0.9,0c-1.3,0-2.6,0-3.8-0.1c-1.3,0-2.6,0-3.8,0.2c0,0.2-0.1,0.4-0.1,0.6V86v3.2
		c1.1,0.1,2.2,0.1,3.3,0.1c1.1-0.1,2.3-0.1,3.7-0.1c0,0,0.1,0.1,0.1,0.2s0.1,0.3,0.1,0.5l-0.2,2.7c0,0.1-0.1,0.2-0.2,0.2
		c-0.1,0.1-0.3,0.1-0.4,0.1c-0.2,0-0.4,0.1-0.6,0.1l-0.5,0h-2.6c-0.9,0-1.8,0-2.6,0l-0.1,1.8v2.9c0.6,0.3,1.2,0.4,1.8,0.4
		c0.8,0.1,1.7,0.1,2.5,0c0.9,0,1.8-0.1,2.7-0.1c0.8-0.1,1.5-0.1,2.3,0c0.1,0.4,0.1,0.7,0.1,1.1c0,0.3,0,0.7,0,1.1c0,0.3,0,0.7-0.1,1
		c0,0.3-0.1,0.7-0.1,1L395,102.2z"/>
	<path class="st0" d="M408.5,102.2c-0.1-0.6-0.1-1.2-0.1-1.7c0-2.6,0-5.1,0-7.7s0-5.1-0.2-7.7c-0.9,0-1.8-0.1-2.7-0.1
		s-1.8,0-2.7-0.1c0-0.5-0.1-1-0.1-1.4s0-0.9,0-1.4c0-0.2,0-0.5,0-0.7c0-0.2,0-0.4,0.1-0.6c1.8-0.1,3.6-0.2,5.4-0.2h5.4
		c0.8,0,1.5,0,2.3,0s1.5,0.1,2.3,0.2c0.1,0.5,0.2,1,0.2,1.5c0,0.5,0,1,0,1.5l-0.1,1l-1.4,0.1c-0.8,0-1.5,0-2.2,0
		c-0.7,0-1.4,0-2.2,0.1c-0.1,1.4-0.1,2.8-0.1,4.3s0.1,2.9,0.1,4.3s0.1,2.9,0.1,4.3c0,1.4-0.1,2.8-0.3,4.2c-0.5,0.1-1,0.2-1.5,0.2
		h-1.5L408.5,102.2z"/>
	<path class="st0" d="M434.2,102.2c-0.1-0.6-0.1-1.2-0.1-1.7c0-2.6,0-5.1,0-7.7s0-5.1-0.2-7.7c-0.9,0-1.8-0.1-2.7-0.1
		s-1.8,0-2.7-0.1c0-0.5-0.1-1-0.1-1.4s0-0.9,0-1.4c0-0.2,0-0.5,0-0.7c0-0.2,0-0.4,0.1-0.6c1.8-0.1,3.6-0.2,5.4-0.2h5.4
		c0.8,0,1.5,0,2.3,0s1.5,0.1,2.3,0.2c0.1,0.5,0.2,1,0.2,1.5c0,0.5,0,1,0,1.5l-0.1,1l-1.4,0.1c-0.8,0-1.5,0-2.2,0
		c-0.7,0-1.4,0-2.2,0.1c-0.1,1.4-0.1,2.8-0.1,4.3s0.1,2.9,0.1,4.3s0.1,2.9,0.1,4.3c0,1.4-0.1,2.8-0.3,4.2c-0.5,0.1-1,0.2-1.5,0.2
		h-1.5L434.2,102.2z"/>
	<path class="st0" d="M452.7,100.2c0,0.4,0,0.9-0.1,1.3c0,0.2-0.2,0.5-0.4,0.6c-0.3,0.1-0.5,0.1-0.8,0.1H450h-0.9
		c-0.3,0-0.6,0-0.9-0.1c0-0.4-0.1-0.8-0.1-1.2s0-0.8,0-1.2v-3.8c0-1.2,0-2.5-0.1-3.8s-0.1-2.6-0.1-3.8s0-2.6,0-3.8s0.1-2.5,0.3-3.7
		c0.4-0.1,0.7-0.1,1.1-0.1h2.8c0.4,0.1,0.5,0.1,0.5,0.2c0,1.4,0,2.8,0,4.3s0,2.9,0,4.3l0.8-0.1c0.2,0,0.5,0,0.8,0h3.2l2-0.1
		c0.1-0.8,0.2-1.7,0.2-2.6v-2.6c0-0.6,0-1.1,0-1.6c0-0.5,0-1.1,0-1.7c0.2-0.1,0.4-0.2,0.6-0.2h0.6c0.5,0,1,0,1.5,0s1.1,0,1.5,0.1
		v1.8v17.4c0,0.4,0,0.7,0,1.1s-0.1,0.7-0.1,1.1c-0.4,0.1-0.7,0.1-1.1,0.1h-1.1h-1c-0.3,0-0.7,0-1-0.1c-0.2-1.4-0.2-2.9-0.2-4.3
		c0-1.5,0-2.9,0-4.3c-0.6-0.1-1.1-0.1-1.7-0.1H456c-0.5,0-1.1,0-1.6,0l-1.6,0.1c0,0.7-0.1,1.3-0.1,2s0,1.3,0,2L452.7,100.2z"/>
	<path class="st0" d="M478.4,102.2c-1.4,0-2.9,0-4.4,0.1c-1.4,0.1-2.9,0-4.3-0.3c-0.2-1.5-0.3-2.9-0.3-4.4c0-1.6,0-3.2,0-4.9
		c0-1.7,0.1-3.3,0.1-4.9s0.1-3.1,0.1-4.6l0.1-2.6c0.4,0,0.9-0.1,1.3-0.1h1.3h9.7l1.5,0.1c0.1,0.6,0.1,1.3,0.1,1.9v0.9
		c0,0.3,0,0.6-0.1,0.9c-0.3,0-0.6,0-0.9,0.1c-0.3,0-0.6,0-0.9,0c-1.3,0-2.5,0-3.8-0.1c-1.3,0-2.6,0-3.8,0.2c0,0.2-0.1,0.4-0.1,0.6
		V86v3.2c1.1,0.1,2.2,0.1,3.3,0.1c1.1-0.1,2.3-0.1,3.7-0.1c0,0,0.1,0.1,0.1,0.2s0.1,0.3,0.1,0.5l-0.2,2.7c0,0.1-0.1,0.2-0.2,0.2
		c-0.1,0.1-0.3,0.1-0.4,0.1c-0.2,0-0.4,0.1-0.6,0.1h-0.6h-2.6c-0.9,0-1.8,0-2.6,0l-0.1,1.8v2.9c0.6,0.3,1.2,0.4,1.8,0.4
		c0.8,0.1,1.7,0.1,2.5,0c0.9,0,1.8-0.1,2.7-0.1c0.8-0.1,1.5-0.1,2.3,0c0.1,0.4,0.1,0.7,0.1,1.1c0,0.3,0,0.7,0,1.1c0,0.3,0,0.7-0.1,1
		c0,0.3-0.1,0.7-0.1,1L478.4,102.2z"/>
	<path class="st0" d="M508.1,102.2c-0.4,0-0.8,0-1.1-0.1c-0.2-0.9-0.5-1.8-0.6-2.7s-0.4-1.8-0.6-2.7h-2.2c-1.2,0-2.4,0-3.5,0.1
		c-0.3,1.7-0.8,3.5-1.2,5.2l-1.1,0.1h-2h-0.7c-0.3,0-0.5-0.1-0.7-0.1c0.3-1.7,0.6-3.5,1.1-5.3s0.9-3.6,1.4-5.4s1-3.6,1.5-5.4
		s1-3.6,1.4-5.3l1.1-0.1c0.4,0,0.7,0,1.1,0h2.6c0.9,0,1.7,0,2.6,0.1c0.1,0.6,0.4,1.4,0.6,2.5s0.6,2.4,0.9,3.8s0.7,2.9,1,4.5
		s0.6,3,0.9,4.4s0.5,2.6,0.7,3.6c0.1,0.7,0.2,1.4,0.3,2.1l-0.1,0.8L508.1,102.2z M502.5,92.7h1.4c0.5,0,0.9,0,1.4-0.2
		c-0.1-0.7-0.2-1.4-0.3-2.1l-0.5-2c-0.1-0.3-0.1-0.5-0.1-0.8c0-0.3-0.1-0.7-0.2-1.1c-0.1-0.3-0.2-0.6-0.3-0.9
		c-0.1-0.2-0.3-0.4-0.6-0.4H503c-0.1,0-0.2,0-0.2,0c-0.1,0.6-0.2,1.2-0.4,1.8l-0.5,1.8c-0.2,0.6-0.3,1.2-0.5,1.8
		c-0.1,0.6-0.2,1.2-0.3,1.9c0.2,0,0.3,0,0.5,0L502.5,92.7L502.5,92.7z"/>
	<path class="st0" d="M515.5,102.2c-0.1-0.9-0.2-1.8-0.2-2.8c0-1-0.1-1.9-0.1-2.9s0-2,0-3s0-1.9,0-2.8c0-0.7,0-1.5,0-2.4
		s0-1.8-0.1-2.6s0-1.7,0-2.6c0-0.8,0.1-1.6,0.3-2.3c0.3-0.1,0.6-0.1,0.9-0.2h0.9c0.9,0,1.9,0,2.9,0s2.1,0,3.1,0c1,0.1,2,0.2,3,0.4
		c1,0.2,1.9,0.6,2.7,1.1c0.7,0.5,1.4,1.2,1.8,2c0.5,1,0.7,2.1,0.7,3.2c0,1.1-0.2,2.2-0.7,3.2c-0.5,0.9-1.1,1.7-1.9,2.3
		c-0.8,0.6-1.7,1.1-2.7,1.4c-1,0.3-2.1,0.5-3.2,0.5h-1.3c-0.5,0-0.9,0-1.4,0c0,0.7-0.1,1.4-0.1,2.1s0,1.4,0,2.1s0,1.1,0,1.6
		c0,0.5,0,1.1-0.1,1.6c-0.4,0.1-0.8,0.1-1.2,0.2h-2.3C516.3,102.2,515.9,102.2,515.5,102.2z M520.2,90.4c0.1,0.1,0.3,0.1,0.5,0.1
		c0.6,0,1.2,0,2,0c0.7,0,1.4-0.1,2-0.3c0.6-0.2,1.1-0.5,1.5-0.9c0.4-0.5,0.7-1.2,0.6-1.9c0-0.6-0.1-1.2-0.4-1.7
		c-0.3-0.4-0.7-0.8-1.1-1c-0.5-0.2-1-0.4-1.5-0.5c-0.6-0.1-1.2-0.1-1.7-0.1h-0.5c-0.2,0-0.4,0-0.6,0c-0.2,0-0.3,0.1-0.5,0.2
		c-0.1,0.1-0.2,0.2-0.2,0.4c0,0.6,0,1.2,0,1.8s0,1.2,0,1.8c0,0.3,0,0.7,0,1.1C520.1,89.7,520.2,90.1,520.2,90.4L520.2,90.4z"/>
	<path class="st0" d="M535.8,102.2c-0.1-0.9-0.2-1.8-0.2-2.8c0-1-0.1-1.9-0.1-2.9s0-2,0-3s0-1.9,0-2.8c0-0.7,0-1.5,0-2.4
		s0-1.8-0.1-2.6s0-1.7,0-2.6c0-0.8,0.1-1.6,0.3-2.3c0.3-0.1,0.6-0.1,0.9-0.2h0.9c0.9,0,1.9,0,2.9,0s2.1,0,3.1,0c1,0.1,2,0.2,3,0.4
		c0.9,0.2,1.8,0.6,2.6,1.1c0.7,0.5,1.4,1.2,1.8,2c0.5,1,0.7,2.1,0.7,3.2c0,1.1-0.2,2.2-0.7,3.2c-0.5,0.9-1.1,1.7-1.9,2.3
		c-0.8,0.6-1.7,1.1-2.7,1.4c-1,0.3-2.1,0.5-3.2,0.5h-1.3c-0.5,0-0.9,0-1.4,0c0,0.7-0.1,1.4-0.1,2.1s0,1.4,0,2.1s0,1.1,0,1.6
		c0,0.5,0,1.1-0.1,1.6c-0.4,0.1-0.8,0.1-1.2,0.2h-2.1C536.5,102.2,536.2,102.2,535.8,102.2z M540.5,90.4c0.1,0.1,0.3,0.1,0.5,0.1
		c0.6,0,1.2,0,1.9,0c0.7,0,1.4-0.1,2-0.3c0.6-0.2,1.1-0.5,1.5-0.9c0.4-0.5,0.6-1.2,0.6-1.9c0-0.6-0.1-1.2-0.4-1.7
		c-0.3-0.4-0.7-0.8-1.1-1c-0.5-0.2-1-0.4-1.5-0.5c-0.6-0.1-1.1-0.1-1.7-0.1h-0.5c-0.2,0-0.4,0-0.6,0c-0.2,0-0.3,0.1-0.5,0.2
		c-0.1,0.1-0.2,0.2-0.2,0.4c0,0.6,0,1.2,0,1.8s0,1.2,0,1.8c0,0.3,0,0.7,0,1.1C540.4,89.7,540.4,90.1,540.5,90.4z"/>
	<path class="st0" d="M559.2,102c-0.5,0.2-0.9,0.2-1.4,0.2c-0.4,0-0.7,0-1.1,0c-0.4,0-0.7-0.1-1.1-0.2c-0.2-0.4-0.3-0.7-0.3-1.1
		c-0.1-0.4-0.1-0.8-0.1-1.2c-0.1-0.5,0.1-1.1,0.4-1.5c0.4-0.3,1-0.4,1.5-0.4c0.4,0,0.7,0,1.1,0.1c0.3,0.1,0.7,0.1,1,0.2
		c0.3,0.6,0.5,1.4,0.5,2.1c0,0.3,0,0.7-0.1,1C559.5,101.5,559.4,101.7,559.2,102z"/>
	<path class="st0" d="M363.1,130.3c0-0.1,0.1-0.3,0.3-0.6c0.2-0.4,0.4-0.7,0.6-1c0.3-0.3,0.6-0.6,1-0.8c0.4-0.2,0.9-0.2,1.3,0
		c0.2,0.5,0.4,1,0.8,1.4c0.3,0.4,0.7,0.7,1.2,1c0.4,0.3,0.9,0.5,1.4,0.6c0.5,0.1,1,0.2,1.5,0.2c0.7,0,1.5-0.2,2-0.7
		c0.5-0.4,0.7-1,0.7-1.7c0-0.7-0.3-1.3-0.8-1.7c-0.6-0.5-1.2-0.9-1.9-1.2c-0.8-0.4-1.5-0.7-2.4-1.1c-0.8-0.3-1.7-0.8-2.4-1.3
		c-0.7-0.5-1.4-1.1-1.9-1.9c-0.5-0.8-0.8-1.8-0.8-2.8c-0.1-1.8,0.7-3.6,2.2-4.6c0.7-0.5,1.5-0.9,2.3-1.1c0.8-0.2,1.7-0.4,2.5-0.4
		c0.8,0,1.6,0.1,2.4,0.3c0.8,0.2,1.5,0.5,2.2,0.9c0.7,0.4,1.2,0.9,1.6,1.6c0.4,0.7,0.7,1.5,0.6,2.3c-0.1,0-0.3,0.1-0.6,0.3l-1,0.4
		c-0.4,0.2-0.7,0.3-1,0.4c-0.2,0.1-0.4,0.1-0.6,0.1c-0.4-0.7-1-1.3-1.7-1.8c-0.6-0.4-1.4-0.7-2.2-0.7c-0.6-0.1-1.3,0.2-1.7,0.6
		c-0.7,0.8-0.7,2.1,0.1,2.8c0,0,0.1,0,0.1,0.1c0.6,0.5,1.2,0.9,1.9,1.2c0.8,0.4,1.5,0.7,2.4,1.1c0.9,0.4,1.7,0.9,2.4,1.4
		c0.7,0.5,1.4,1.2,1.9,2c0.5,0.9,0.8,2,0.7,3c0,0.9-0.2,1.8-0.5,2.6c-0.3,0.8-0.8,1.4-1.5,2c-0.7,0.6-1.4,1-2.3,1.3
		c-1,0.3-2,0.5-3,0.5c-1.3,0-2.5-0.2-3.7-0.7c-0.9-0.4-1.7-0.9-2.4-1.5c-0.5-0.5-1-1.1-1.4-1.7C363.3,130.6,363.2,130.4,363.1,130.3
		z"/>
	<path class="st0" d="M387,134.6c-0.1-0.6-0.1-1.2-0.1-1.7c0-2.6,0-5.1,0-7.7c0-2.6,0-5.1-0.2-7.7c-0.9,0-1.8-0.1-2.7-0.1
		s-1.8,0-2.7-0.1c0-0.5-0.1-1-0.1-1.4s0-0.9,0-1.4c0-0.2,0-0.5,0-0.7c0-0.2,0-0.4,0.1-0.6c1.8-0.1,3.6-0.2,5.4-0.2h5.4
		c0.8,0,1.5,0,2.3,0c0.8,0,1.5,0.1,2.3,0.2c0.1,0.5,0.2,1,0.2,1.5c0,0.5,0,1,0,1.5l-0.1,1l-1.4,0.1c-0.7,0-1.5,0-2.2,0
		c-0.7,0-1.4,0-2.2,0.1c-0.1,1.4-0.1,2.8-0.1,4.3s0.1,2.9,0.1,4.3s0.1,2.9,0.1,4.3c0,1.4-0.1,2.8-0.2,4.2c-0.5,0.1-1,0.1-1.5,0.1
		h-1.5L387,134.6z"/>
	<path class="st0" d="M412.9,134.8c-0.4,0-0.8,0-1.1-0.1c-0.2-0.9-0.5-1.8-0.6-2.7s-0.4-1.8-0.6-2.7h-2.2c-1.2,0-2.3,0-3.5,0.1
		c-0.3,1.7-0.8,3.5-1.2,5.2l-1.1,0.1h-2h-0.7c-0.2,0-0.5-0.1-0.7-0.1c0.3-1.7,0.6-3.4,1-5.2c0.4-1.8,0.9-3.6,1.4-5.4
		c0.5-1.8,1-3.6,1.5-5.4c0.5-1.8,1-3.6,1.4-5.3l1.1-0.1h1.1h2.6c0.9,0,1.7,0,2.6,0.1c0.1,0.6,0.4,1.4,0.6,2.5s0.6,2.4,0.9,3.8
		s0.7,2.9,1,4.5s0.7,3,1,4.4c0.3,1.4,0.5,2.6,0.7,3.6c0.1,0.7,0.2,1.4,0.3,2.1l-0.1,0.8L412.9,134.8z M407.3,125.2h1.4
		c0.5,0,0.9,0,1.4-0.1c-0.1-0.7-0.2-1.4-0.3-2.1l-0.5-2c0-0.2-0.1-0.4-0.1-0.8c0-0.3-0.1-0.7-0.2-1c-0.1-0.3-0.2-0.6-0.3-0.9
		c-0.1-0.2-0.3-0.4-0.6-0.4h-0.3c-0.1,0-0.2,0-0.2,0c-0.1,0.6-0.2,1.2-0.4,1.8l-0.5,1.8c-0.2,0.6-0.3,1.2-0.5,1.8
		c-0.1,0.6-0.2,1.2-0.3,1.9c0.2,0,0.3,0,0.5,0L407.3,125.2L407.3,125.2z"/>
	<path class="st0" d="M424,127c0-0.6-0.2-1.2-0.4-1.7c-0.3-0.8-0.6-1.6-1-2.3c-0.4-0.8-0.9-1.7-1.4-2.6l-1.5-2.7
		c-0.5-0.9-0.9-1.7-1.3-2.5c-0.3-0.6-0.6-1.3-0.9-2l0.5-0.1c0.2,0,0.4,0,0.6,0c0.5,0,1.1,0,1.6,0c0.5,0,1.1,0,1.6,0
		c0.7,1.3,1.5,2.6,2.2,3.9c0.7,1.3,1.3,2.7,1.9,4.1h0.3c0.8-1.3,1.6-2.6,2.3-4c0.7-1.4,1.5-2.7,2.3-4h0.6h2.7c0.2,0,0.3,0,0.5,0
		l0.5,0.1c-0.2,0.6-0.5,1.1-0.8,1.7c-0.4,0.7-0.9,1.5-1.4,2.3s-1,1.7-1.6,2.7s-1.1,1.8-1.5,2.6s-0.8,1.5-1.1,2.1
		c-0.2,0.4-0.4,0.8-0.5,1.3v4.4c0,0.7,0,1.4,0,2.1c0,0.7,0,1.4,0,2.1c-0.5,0.1-1,0.1-1.4,0.1h-1.5c-0.4,0-0.8,0-1.1-0.1
		c-0.1-0.5-0.1-1.1-0.2-1.6V127z"/>
	<path class="st0" d="M444.9,130.3c0-0.1,0.1-0.3,0.3-0.6c0.2-0.4,0.4-0.7,0.6-1c0.3-0.3,0.6-0.6,1-0.8c0.4-0.2,0.9-0.2,1.3,0
		c0.2,0.5,0.4,1,0.8,1.4c0.3,0.4,0.7,0.7,1.1,1c0.4,0.3,0.9,0.5,1.4,0.6c0.5,0.1,1,0.2,1.5,0.2c0.7,0,1.5-0.2,2-0.7
		c0.5-0.4,0.7-1,0.7-1.7c0-0.7-0.3-1.3-0.8-1.7c-0.6-0.5-1.2-0.9-1.9-1.2c-0.8-0.4-1.5-0.7-2.4-1.1c-0.9-0.3-1.7-0.8-2.4-1.3
		c-0.7-0.5-1.4-1.1-1.9-1.9c-0.5-0.8-0.8-1.8-0.8-2.8c0-0.9,0.2-1.9,0.6-2.7c0.4-0.7,1-1.4,1.6-1.8c0.7-0.5,1.4-0.9,2.3-1.1
		c0.8-0.2,1.7-0.4,2.5-0.4c0.8,0,1.6,0.1,2.4,0.3c0.8,0.2,1.5,0.5,2.2,0.9c0.7,0.4,1.2,0.9,1.6,1.6c0.4,0.7,0.7,1.5,0.6,2.3
		l-0.6,0.3l-1,0.4c-0.4,0.2-0.7,0.3-1,0.4c-0.2,0.1-0.4,0.1-0.6,0.1c-0.4-0.7-1-1.3-1.7-1.8c-0.6-0.4-1.4-0.7-2.2-0.7
		c-0.6-0.1-1.3,0.2-1.7,0.6c-0.3,0.4-0.5,0.8-0.5,1.3c0,0.6,0.3,1.2,0.8,1.6c0.6,0.5,1.2,0.9,1.9,1.2c0.8,0.4,1.5,0.7,2.4,1.1
		c0.9,0.4,1.7,0.9,2.4,1.4c0.7,0.5,1.4,1.2,1.9,2c0.5,0.9,0.8,2,0.7,3c0,0.9-0.2,1.8-0.5,2.6c-0.3,0.8-0.8,1.4-1.5,2
		c-0.7,0.6-1.4,1.1-2.3,1.4c-1,0.3-2,0.5-3,0.5c-1.3,0-2.5-0.2-3.7-0.7c-0.9-0.4-1.7-1-2.5-1.6c-0.5-0.5-1-1-1.4-1.7
		C445.1,130.6,445,130.4,444.9,130.3z"/>
	<path class="st0" d="M477,134.8c-0.4,0-0.8,0-1.1-0.1c-0.2-0.9-0.5-1.8-0.6-2.7s-0.4-1.8-0.6-2.7h-2.2c-1.2,0-2.4,0-3.5,0.1
		c-0.3,1.7-0.8,3.5-1.2,5.2l-1.1,0.1h-2h-0.7c-0.2,0-0.5,0-0.7-0.1c0.3-1.7,0.6-3.4,1-5.2c0.4-1.8,0.9-3.6,1.4-5.4
		c0.5-1.8,1-3.6,1.5-5.4s1-3.6,1.4-5.3l1.1-0.1h1.1h2.6c0.9,0,1.7,0,2.6,0.1c0.1,0.6,0.4,1.4,0.6,2.5s0.6,2.4,0.9,3.8s0.7,2.9,1,4.5
		s0.6,3,0.9,4.4c0.3,1.4,0.5,2.6,0.7,3.6c0.1,0.7,0.2,1.4,0.3,2.1l-0.1,0.8L477,134.8z M471.4,125.2h1.4c0.5,0,0.9,0,1.4-0.1
		c-0.1-0.7-0.2-1.4-0.3-2.1c-0.1-0.7-0.3-1.4-0.4-2c-0.1-0.3-0.1-0.5-0.1-0.8c0-0.3-0.1-0.7-0.2-1c-0.1-0.3-0.2-0.6-0.3-0.9
		c-0.1-0.2-0.3-0.4-0.6-0.4h-0.2c-0.1,0-0.2,0-0.3,0c-0.1,0.6-0.2,1.2-0.4,1.8l-0.5,1.8c-0.2,0.6-0.3,1.2-0.5,1.8
		c-0.1,0.6-0.2,1.2-0.3,1.9c0.2,0,0.3,0,0.5,0L471.4,125.2L471.4,125.2z"/>
	<path class="st0" d="M496.2,126.6c-0.3,0-0.7,0-1,0h-3.7c-0.9,0-1.7,0-2.6,0.1c0,1.3,0,2.7,0,4c0,1.3,0,2.7-0.2,4
		c-0.5,0.1-1,0.1-1.6,0.1c-0.5,0-0.9,0-1.4,0s-1-0.1-1.4-0.1c-0.1-0.8-0.2-1.6-0.2-2.4v-7.7c0-1.9,0-3.8,0-5.7s0-3.8,0.2-5.7
		c1.7-0.1,3.5-0.1,5.2-0.1s3.5,0,5.2,0c0.7,0,1.4,0,2.2,0c0.7,0,1.4,0.1,2.1,0.1c0,0.4,0.1,0.9,0.1,1.4s0,1,0,1.4l-0.1,1.2
		c-0.5,0.1-1,0.1-1.6,0.1c-1.4,0-2.8,0-4.2,0s-2.8,0-4.2,0.1c0,0.6,0,1.2-0.1,1.8s0,1.2,0,1.8l0.1,1.6c0.4,0.1,0.7,0.1,1.1,0.1
		c0.4,0,0.8,0,1.1,0h2.5c0.8,0,1.6,0,2.5,0.1c0.1,0.7,0.1,1.3,0.1,2L496.2,126.6z"/>
	<path class="st0" d="M512.3,134.7c-1.4,0-2.9,0-4.4,0.1c-1.4,0.1-2.9,0-4.3-0.3c-0.2-1.5-0.3-2.9-0.3-4.4c0-1.6,0-3.2,0-4.9
		c0-1.7,0.1-3.3,0.1-4.9s0.1-3.1,0.1-4.6l0.1-2.6c0.4,0,0.9-0.1,1.3-0.1h1.3h9.7l1.5,0.1c0.1,0.6,0.1,1.3,0.1,1.9v0.8
		c0,0.3,0,0.6-0.1,0.9l-0.9,0.1c-0.3,0-0.6,0-0.9,0c-1.3,0-2.5,0-3.8-0.1c-1.3,0-2.6,0-3.8,0.2c0,0.2-0.1,0.4-0.1,0.6v0.6v3.2
		c1.1,0.1,2.2,0.1,3.3,0.1c1.1-0.1,2.3-0.1,3.7-0.1c0,0,0.1,0.1,0.1,0.2s0.1,0.3,0.1,0.5L515,125c0,0.1-0.1,0.2-0.2,0.2
		c-0.1,0.1-0.3,0.1-0.4,0.1c-0.2,0-0.4,0.1-0.6,0.1h-0.6h-2.6c-0.9,0-1.8,0-2.6,0.1l-0.1,1.8v2.9c0.6,0.3,1.2,0.4,1.8,0.4
		c0.8,0,1.6,0,2.5,0l2.7-0.1c0.8-0.1,1.5-0.1,2.3,0c0.1,0.4,0.1,0.7,0.1,1.1c0,0.4,0,0.7,0,1.1c0,0.3,0,0.7-0.1,1
		c0,0.3-0.1,0.7-0.1,1L512.3,134.7z"/>
	<path class="st0" d="M525.2,134.5c-0.5,0.2-0.9,0.2-1.4,0.2c-0.4,0-0.7,0-1.1-0.1c-0.3,0-0.7-0.1-1-0.2c-0.2-0.4-0.3-0.7-0.3-1.1
		c-0.1-0.4-0.1-0.8-0.1-1.2c-0.1-0.5,0.1-1.1,0.4-1.5c0.4-0.3,1-0.4,1.5-0.4c0.4,0,0.7,0,1,0.1c0.3,0.1,0.7,0.1,1,0.2
		c0.3,0.6,0.5,1.4,0.5,2.1c0,0.3,0,0.7-0.1,1C525.5,134,525.4,134.3,525.2,134.5z"/>
	<path class="st0" d="M376.7,155.5c0.9,0.5,1.7,1.1,2.4,1.9c0.6,0.8,0.9,1.8,0.9,2.9c0,1.1-0.2,2.3-0.6,3.3c-0.4,0.8-1,1.5-1.7,2.1
		c-0.7,0.5-1.6,0.9-2.5,1.1c-1,0.2-1.9,0.4-2.9,0.4c-1,0.1-2.1,0.1-3.1,0.1c-1,0-2,0-3,0h-0.9c-0.2,0-0.4,0-0.6-0.1
		c-0.2-0.1-0.3-0.2-0.3-0.4c-0.1-0.3-0.1-0.5-0.1-0.8v-19.1c0-0.5,0.3-0.9,0.7-1c0.5-0.2,1.1-0.3,1.7-0.3c0.6,0,1.3,0,2,0
		c0.7,0.1,1.2,0.1,1.6,0.1c1,0,2,0.1,3,0.2c0.9,0.1,1.9,0.3,2.7,0.7c0.8,0.4,1.5,0.9,2,1.7c0.6,0.9,0.8,1.9,0.8,2.9
		c0,0.8-0.2,1.6-0.6,2.3c-0.4,0.7-0.9,1.3-1.5,1.8L376.7,155.5z M368.8,163.3c0.1,0.1,0.1,0.2,0.2,0.2c0.1,0,0.2,0,0.3,0
		c0.6,0,1.2,0,1.9,0c0.6,0,1.3-0.1,1.9-0.3c0.6-0.2,1-0.5,1.4-0.9c0.4-0.5,0.6-1.2,0.6-1.9c0-0.6-0.2-1.2-0.6-1.6
		c-0.4-0.4-1-0.6-1.5-0.8c-0.6-0.2-1.3-0.3-1.9-0.3h-1.7c-0.2,0-0.4,0-0.6,0.2c-0.1,0.2-0.2,0.4-0.1,0.6c0,0.8,0,1.6,0,2.4
		S368.8,162.5,368.8,163.3L368.8,163.3z M371.2,153.9c0.4,0,0.8,0,1.2-0.1c0.4-0.1,0.7-0.2,1-0.4c0.3-0.2,0.5-0.4,0.7-0.7
		c0.2-0.4,0.3-0.8,0.3-1.2c0-0.5-0.1-1-0.4-1.4c-0.3-0.3-0.7-0.6-1.1-0.8c-0.5-0.2-0.9-0.3-1.4-0.4c-0.5,0-1-0.1-1.4-0.1
		c-0.3,0-0.6,0-0.9,0.1c-0.2,0-0.3,0.3-0.3,0.7s0,0.9,0,1.4s0,0.9,0,1.4v1.1c0,0.1,0.1,0.2,0.2,0.2c0.1,0,0.2,0.1,0.3,0.1H371.2z"/>
	<path class="st0" d="M393.4,167.2c-1.4,0-2.9,0-4.4,0.1c-1.4,0.1-2.9,0-4.3-0.3c-0.2-1.5-0.3-2.9-0.3-4.4c0-1.6,0-3.2,0-4.9
		c0-1.6,0.1-3.3,0.1-4.9s0.1-3.1,0.1-4.6l0.1-2.6c0.4,0,0.9-0.1,1.3-0.1h11l1.5,0.1c0.1,0.7,0.1,1.3,0.1,2v0.9c0,0.3,0,0.6-0.1,0.9
		l-0.9,0.1c-0.3,0-0.6,0-0.9,0c-1.3,0-2.5,0-3.8-0.1c-1.3,0-2.6,0-3.8,0.2c0,0.2-0.1,0.4-0.1,0.6v0.6v3.2c1.1,0.1,2.2,0.1,3.3,0.1
		c1.1-0.1,2.3-0.1,3.7-0.1c0,0,0.1,0.1,0.1,0.2s0.1,0.3,0.1,0.5l-0.2,2.7c0,0.1-0.1,0.2-0.2,0.2c-0.1,0.1-0.3,0.1-0.4,0.1
		c-0.2,0-0.4,0.1-0.5,0.1h-3.2c-0.9,0-1.8,0-2.6,0l-0.1,1.8v2.9c0.6,0.3,1.2,0.4,1.8,0.4c0.8,0.1,1.6,0.1,2.5,0l2.7-0.1
		c0.8-0.1,1.5-0.1,2.3,0c0.1,0.4,0.1,0.7,0.1,1.1s0,0.7,0,1.1c0,0.3,0,0.7-0.1,1l-0.1,1L393.4,167.2z"/>
	<path class="st0" d="M423.1,167.3c-0.3-0.5-0.6-1-0.8-1.5c-0.3-0.7-0.7-1.5-1-2.4s-0.7-1.7-1-2.5s-0.5-1.4-0.6-1.8
		c-0.4-0.1-0.7-0.2-1.1-0.2h-1.2h-0.8c-0.3,0-0.5,0-0.8,0.1c0,0.3-0.1,0.7-0.1,1v1c0,1,0,2,0.1,3c0,1,0,2-0.1,3
		c-0.5,0.1-1,0.2-1.5,0.2c-0.5,0-1,0-1.5,0h-1.3c-0.2-0.5-0.3-1.1-0.2-1.6c-0.1-0.9-0.1-2-0.1-3.3s0-2.7,0-4.2s0-2.9,0-4.3
		s0-2.6,0-3.7s0-1.8,0-2.3s0-0.7,0-1.1c0-0.4,0.1-0.7,0.1-1.1c0.7-0.1,1.4-0.2,2.1-0.2c0.7,0,1.4,0,2.1,0h2.6c0.9,0,1.8,0.1,2.7,0.2
		c0.8,0.1,1.7,0.3,2.5,0.6c0.8,0.3,1.5,0.7,2.1,1.2c0.6,0.5,1.1,1.2,1.4,1.9c0.4,0.9,0.6,1.9,0.5,2.9c0,0.6-0.1,1.3-0.2,1.9
		c-0.1,0.5-0.3,1.1-0.6,1.5c-0.3,0.5-0.6,0.9-1,1.3c-0.4,0.4-0.9,0.8-1.4,1.2c0.2,0.8,0.5,1.5,0.8,2.2c0.4,0.7,0.7,1.5,1.1,2.2
		s0.7,1.5,1,2.2c0.3,0.7,0.5,1.4,0.5,2.2c-0.1,0-0.3,0.1-0.4,0.1c-0.1,0-0.3,0-0.4,0.1L423.1,167.3z M415.8,155.2
		c0.1,0.1,0.2,0.2,0.3,0.2c0.1,0,0.3,0.1,0.4,0.1h1.9c0.7,0,1.3-0.1,1.9-0.3c0.6-0.2,1.1-0.5,1.5-0.9c0.4-0.5,0.7-1.2,0.6-1.8
		c0-0.6-0.2-1.3-0.6-1.8c-0.4-0.4-0.9-0.7-1.5-0.9c-0.6-0.2-1.2-0.3-1.9-0.3h-1.8c-0.2,0-0.4,0-0.6,0.1c-0.1,0.1-0.2,0.1-0.3,0.3
		c-0.1,0.1-0.1,0.3-0.1,0.4c0,0.2,0,0.4,0,0.6c0,0.4,0,0.8,0,1.2s0,0.8,0,1.2L415.8,155.2z"/>
	<path class="st0" d="M440.9,167.2c-1.4,0-2.9,0-4.4,0.1c-1.4,0.1-2.9,0-4.3-0.3c-0.2-1.5-0.3-2.9-0.3-4.4c0-1.6,0-3.2,0-4.9
		c0-1.6,0.1-3.3,0.1-4.9s0.1-3.1,0.1-4.6l0.1-2.6c0.4,0,0.9-0.1,1.3-0.1h11l1.5,0.1c0.1,0.7,0.1,1.3,0.1,2v0.9c0,0.3,0,0.6-0.1,0.9
		l-0.9,0.1c-0.3,0-0.6,0-0.9,0c-1.3,0-2.5,0-3.8-0.1c-1.3,0-2.6,0-3.8,0.2c0,0.2-0.1,0.4-0.1,0.6v0.6v3.2c1.1,0.1,2.2,0.1,3.3,0.1
		c1.1-0.1,2.3-0.1,3.7-0.1c0,0,0.1,0.1,0.1,0.2s0.1,0.3,0.1,0.5l-0.2,2.7c0,0.1-0.1,0.2-0.2,0.2c-0.1,0.1-0.3,0.1-0.4,0.1
		c-0.2,0-0.4,0.1-0.6,0.1h-3.2c-0.9,0-1.8,0-2.6,0l-0.1,1.8v2.9c0.6,0.3,1.2,0.4,1.8,0.4c0.8,0.1,1.6,0.1,2.5,0l2.7-0.1
		c0.8-0.1,1.5-0.1,2.3,0c0.1,0.4,0.1,0.7,0.1,1.1c0,0.4,0,0.7,0,1.1c0,0.3,0,0.7-0.1,1c0,0.3-0.1,0.7-0.1,1L440.9,167.2z"/>
	<path class="st0" d="M467.1,167.1h-1.5c-0.5,0-1,0-1.5-0.1c-0.6-1.6-1.1-3.2-1.6-4.9c-0.5-1.6-0.9-3.3-1.2-5h-0.2l-1.7,4.9
		c-0.6,1.6-1.1,3.3-1.6,5c-0.4,0.1-0.9,0.1-1.3,0.1s-0.9,0-1.3,0h-1.4c-0.5,0-0.9-0.1-1.3-0.2c-0.1-0.8-0.3-1.7-0.5-2.9
		s-0.4-2.3-0.6-3.6s-0.4-2.6-0.6-4s-0.4-2.7-0.6-3.9s-0.3-2.4-0.4-3.5s-0.1-2-0.1-2.8v-0.7c0.3,0,0.5,0,0.8,0h0.8h1.4
		c0.5,0,0.9,0,1.4,0c0.3,2.3,0.7,4.7,1,7c0.3,2.3,0.6,4.7,0.8,7l0.3,0.1c0.3-1.4,0.6-2.7,1.2-4c0.5-1.2,1-2.5,1.5-3.9
		c0.4-0.3,0.8-0.4,1.2-0.4c0.4,0,0.8,0,1.3,0c0.5,0,0.9,0,1.3,0c0.4,0,0.9,0.1,1.3,0.2c0.4,1.4,0.9,2.8,1.4,4.2
		c0.5,1.4,0.9,2.8,1.2,4.3h0.3c0.2-2.4,0.5-4.8,0.8-7.2s0.5-4.8,0.7-7.2c0.3-0.1,0.5-0.1,0.8-0.1h2.2c0.5,0,1,0,1.4,0.1
		c-0.1,1.8-0.2,3.5-0.4,5.3s-0.4,3.6-0.6,5.4s-0.5,3.6-0.8,5.4s-0.5,3.5-0.7,5.3L467.1,167.1z"/>
	<path class="st0" d="M489.5,167.2c-0.4,0-0.8,0-1.1-0.1c-0.2-0.9-0.5-1.8-0.6-2.7s-0.4-1.8-0.6-2.7h-2.2c-1.2,0-2.3,0-3.5,0.1
		c-0.3,1.7-0.8,3.5-1.2,5.2l-1.1,0.1h-2h-0.7c-0.3,0-0.5,0-0.7-0.1c0.3-1.7,0.6-3.5,1-5.3c0.4-1.8,0.9-3.6,1.4-5.4
		c0.5-1.8,1-3.6,1.5-5.4c0.5-1.8,1-3.6,1.4-5.3l1.1-0.1c0.4,0,0.7,0,1.1,0h2.6c0.9,0,1.7,0,2.6,0.1c0.1,0.6,0.4,1.4,0.6,2.5
		s0.6,2.4,0.9,3.9s0.7,2.9,1,4.5s0.6,3,0.9,4.4s0.5,2.6,0.7,3.6c0.1,0.7,0.2,1.4,0.3,2.1l-0.1,0.8L489.5,167.2z M483.9,157.7h1.4
		c0.5,0,0.9,0,1.4-0.1c-0.1-0.7-0.2-1.4-0.3-2.1c-0.1-0.7-0.3-1.4-0.4-2c-0.1-0.3-0.1-0.5-0.1-0.8c0-0.4-0.1-0.7-0.2-1.1
		c-0.1-0.3-0.2-0.6-0.3-0.9c-0.1-0.2-0.3-0.4-0.6-0.4h-0.2c-0.1,0-0.2,0-0.3,0c-0.1,0.6-0.2,1.2-0.4,1.8l-0.5,1.8
		c-0.2,0.6-0.3,1.2-0.5,1.8c-0.1,0.6-0.2,1.2-0.3,1.9c0.2,0,0.3,0,0.5,0L483.9,157.7L483.9,157.7z"/>
	<path class="st0" d="M508.8,167.3c-0.3-0.5-0.6-1-0.8-1.5c-0.3-0.7-0.7-1.5-1-2.4s-0.7-1.7-1-2.5s-0.5-1.4-0.6-1.8
		c-0.4-0.1-0.7-0.2-1.1-0.2l-1.2,0h-0.8c-0.3,0-0.5,0-0.8,0.1c0,0.3-0.1,0.7-0.1,1v1c0,1,0,2,0.1,3c0,1,0,2-0.1,3
		c-0.5,0.1-1,0.2-1.5,0.2c-0.5,0-1,0-1.5,0H497c-0.2-0.5-0.3-1.1-0.2-1.6c-0.1-0.9-0.1-2-0.1-3.3s0-2.7,0-4.2s0-2.9,0-4.3
		s0-2.6,0-3.7s0-1.8,0-2.3s0-0.7,0-1.1c0-0.4,0.1-0.7,0.1-1.1c0.7-0.1,1.4-0.2,2.1-0.2c0.7,0,1.4,0,2.1,0h2.6c0.9,0,1.8,0.1,2.7,0.2
		c0.8,0.1,1.7,0.3,2.5,0.6c0.8,0.3,1.5,0.7,2.1,1.2c0.6,0.5,1.1,1.2,1.4,1.9c0.4,0.9,0.5,1.9,0.5,2.9c0,0.6-0.1,1.3-0.2,1.9
		c-0.1,0.5-0.3,1.1-0.6,1.5c-0.3,0.5-0.6,0.9-1,1.3c-0.4,0.4-0.9,0.8-1.4,1.2c0.2,0.8,0.5,1.5,0.8,2.2c0.4,0.7,0.7,1.5,1.1,2.2
		s0.7,1.5,1,2.2c0.3,0.7,0.5,1.4,0.5,2.2c-0.1,0-0.3,0.1-0.4,0.1c-0.1,0-0.3,0-0.4,0.1L508.8,167.3z M501.4,155.2
		c0.1,0.1,0.2,0.2,0.3,0.2c0.1,0,0.3,0.1,0.4,0.1h1.9c0.7,0,1.3-0.1,2-0.3c0.6-0.2,1.1-0.5,1.5-0.9c0.4-0.5,0.7-1.2,0.6-1.8
		c0-0.6-0.2-1.3-0.6-1.8c-0.4-0.4-0.9-0.7-1.5-0.9c-0.6-0.2-1.2-0.3-1.9-0.3h-1.8c-0.2,0-0.4,0-0.6,0.1c-0.1,0.1-0.2,0.1-0.3,0.3
		c-0.1,0.1-0.1,0.3-0.1,0.4c0,0.2,0,0.4,0,0.6c0,0.4,0,0.8,0,1.2s0,0.8,0,1.2L501.4,155.2z"/>
	<path class="st0" d="M517.7,165.7V156c0-0.8,0-1.7-0.1-2.6s-0.1-1.8-0.1-2.6s0-1.8,0.1-2.6c0.1-0.8,0.2-1.7,0.5-2.5l4.4-0.1
		c1.8,0,3.6,0.2,5.4,0.5c1.4,0.3,2.8,0.9,3.9,1.9c1.1,1,1.9,2.2,2.3,3.6c0.6,1.8,0.8,3.8,0.8,5.7c0,1.3-0.2,2.6-0.5,3.9
		c-0.3,1-0.8,1.9-1.5,2.7c-0.6,0.7-1.4,1.3-2.3,1.8c-0.9,0.4-1.9,0.8-2.9,1c-1.1,0.2-2.2,0.4-3.3,0.4c-1.2,0.1-2.4,0.1-3.6,0.1h-1.5
		c-0.5,0-1-0.1-1.5-0.2L517.7,165.7z M522.7,162.9c0.2,0.1,0.5,0.1,0.7,0.1h0.7c1.7,0.1,3.3-0.5,4.6-1.6c1.1-1.3,1.6-3,1.5-4.6
		c0-1.1-0.1-2.2-0.3-3.2c-0.2-0.8-0.6-1.5-1.1-2.1c-0.6-0.5-1.2-0.9-2-1.1c-1-0.2-2-0.3-3.1-0.3h-0.5c-0.1,0-0.3,0-0.4,0.1
		c-0.2,2-0.2,3.9-0.2,5.9c0,2,0.1,4,0.1,5.9C522.6,162.2,522.6,162.6,522.7,162.9L522.7,162.9z"/>
	<path class="st0" d="M548.4,167.2c-1.4,0-2.9,0-4.4,0.1c-1.4,0.1-2.9,0-4.3-0.3c-0.2-1.5-0.3-2.9-0.3-4.4c0-1.6,0-3.2,0-4.9
		c0-1.6,0.1-3.3,0.1-4.9s0.1-3.1,0.1-4.6l0.1-2.6c0.4,0,0.8-0.1,1.3-0.1h11l1.5,0.1c0.1,0.7,0.1,1.3,0.1,2v0.9c0,0.3,0,0.6-0.1,0.9
		l-0.9,0.1c-0.3,0-0.6,0-0.9,0c-1.3,0-2.5,0-3.8-0.1c-1.3,0-2.6,0-3.8,0.2c0,0.2-0.1,0.4-0.1,0.6v0.6v3.2c1.1,0.1,2.2,0.1,3.3,0.1
		c1.1-0.1,2.3-0.1,3.7-0.1c0,0,0.1,0.1,0.1,0.2s0.1,0.3,0.1,0.5l-0.2,2.7c0,0.1-0.1,0.2-0.2,0.2c-0.1,0.1-0.3,0.1-0.4,0.1
		c-0.2,0-0.4,0.1-0.6,0.1h-3.2c-0.9,0-1.8,0-2.6,0l-0.1,1.8v2.9c0.6,0.3,1.2,0.4,1.8,0.4c0.8,0.1,1.6,0.1,2.5,0l2.7-0.1
		c0.8-0.1,1.5-0.1,2.3,0c0.1,0.4,0.1,0.7,0.1,1.1c0,0.4,0,0.7,0,1.1c0,0.3,0,0.7-0.1,1c0,0.3-0.1,0.7-0.1,1L548.4,167.2z"/>
	<path class="st0" d="M558.1,165.7V156c0-0.8,0-1.7-0.1-2.6s-0.1-1.8-0.1-2.6s0-1.8,0.1-2.6c0.1-0.8,0.2-1.7,0.5-2.5l4.4-0.1
		c1.8,0,3.6,0.2,5.4,0.5c1.4,0.3,2.7,0.9,3.9,1.8c1.1,1,1.9,2.2,2.3,3.6c0.6,1.8,0.8,3.8,0.8,5.7c0,1.3-0.2,2.6-0.5,3.9
		c-0.3,1-0.8,1.9-1.5,2.7c-0.6,0.7-1.4,1.3-2.3,1.8c-0.9,0.4-1.9,0.8-2.9,1c-1.1,0.2-2.2,0.4-3.3,0.4c-1.2,0.1-2.4,0.1-3.6,0.1h-1.5
		c-0.5,0-1-0.1-1.5-0.2L558.1,165.7z M563.1,162.9c0.2,0.1,0.5,0.1,0.7,0.1h0.7c1.7,0.1,3.3-0.5,4.5-1.6c1.1-1.3,1.6-3,1.5-4.6
		c0-1.1-0.1-2.2-0.3-3.2c-0.2-0.8-0.6-1.5-1.1-2.1c-0.6-0.6-1.3-0.9-2.1-1.1c-1-0.2-2-0.3-3-0.3h-0.5c-0.1,0-0.3,0-0.4,0.1
		c-0.2,2-0.2,3.9-0.2,5.9c0.1,2,0.1,4,0.1,5.9C563,162.2,563,162.6,563.1,162.9L563.1,162.9z"/>
	<path class="st0" d="M583.3,167c-0.5,0.2-0.9,0.2-1.4,0.2c-0.4,0-0.7,0-1.1-0.1c-0.4,0-0.7-0.1-1.1-0.2c-0.2-0.4-0.3-0.7-0.3-1.1
		c-0.1-0.4-0.1-0.8-0.1-1.2c-0.1-0.5,0.1-1.1,0.4-1.5c0.4-0.3,1-0.4,1.5-0.4c0.4,0,0.7,0,1.1,0.1c0.3,0.1,0.7,0.1,1,0.2
		c0.3,0.6,0.5,1.4,0.5,2.1c0,0.3,0,0.7-0.1,1C583.5,166.4,583.4,166.7,583.3,167z"/>
</g>
</svg>
