<?xml version="1.0" encoding="utf-8"?>
<!-- Generator: Adobe Illustrator 24.2.3, SVG Export Plug-In . SVG Version: 6.00 Build 0)  -->
<svg version="1.1" id="Layer_1" xmlns="http://www.w3.org/2000/svg" xmlns:xlink="http://www.w3.org/1999/xlink" x="0px" y="0px"
	 viewBox="0 0 970 250" style="enable-background:new 0 0 970 250;" xml:space="preserve">
<style type="text/css">
	.st0{fill:#76ABA8;}
	.st1{fill:#76ACA9;}
	.st2{fill:#FFFFFF;}
	.st3{fill:#044854;}
</style>
<g id="Overlays">
	<path class="st0" d="M999.3,185.9L999.3,185.9h-0.1H999l-0.7,0.1c-0.3,0-0.6,0.1-0.9,0.1c-0.6,0-1.1,0.1-1.6,0.3
		c-0.5,0.2-1,0.5-1.5,0.9c-0.2,0.1-0.4,0.3-0.6,0.4c-0.3,0.2-0.6,0.3-0.9,0.5c-0.4,0.2-0.8,0.4-1.2,0.7c-0.2,0.2-0.5,0.4-0.7,0.6
		c-0.3,0.3-0.6,0.6-1,0.8l-0.2,0.1c-0.5,0.4-1.1,0.7-1.8,0.9c-0.7,0.2-1.5,0.4-2.3,0.4c-0.7,0-1.5-0.1-2.2-0.4l-0.6-0.1l-0.2-0.1
		l-0.6-0.1c-0.1-0.1-0.2-0.2-0.3-0.3c-0.3-0.3-0.7-0.5-1-0.7s-0.9-0.6-1.3-0.9l-0.4-0.4c-0.5-0.4-1-0.9-1.6-1.2
		c-0.2-0.2-0.5-0.3-0.7-0.4l-0.5-0.4c-0.3-0.2-0.6-0.3-0.9-0.3l-0.4-0.2c-0.3-0.1-0.5-0.2-0.8-0.4c-0.6-0.4-1.2-0.6-1.9-0.7
		c-0.8-0.1-1.5-0.1-2.3-0.1h-0.9c-0.8,0-1.6,0-2.4,0.1c-0.9,0.1-1.7,0.4-2.5,0.7c-0.5,0.2-1,0.5-1.4,0.9c-0.2,0.2-0.4,0.3-0.6,0.5
		l-0.5,0.3c-0.5,0.3-1,0.6-1.4,1c-0.4,0.3-0.8,0.5-1.2,0.7c-0.3,0.1-0.5,0.3-0.8,0.4l-0.5,0.3c-0.4,0.3-0.9,0.6-1.4,0.7l-0.4,0.1
		c-0.6,0.2-1.2,0.3-1.9,0.3c-0.8,0-1.6,0-2.4-0.2c-0.5-0.2-0.9-0.4-1.3-0.7c-0.2-0.1-0.4-0.3-0.6-0.4c-0.3-0.2-0.6-0.5-0.9-0.7
		c-0.2-0.2-0.5-0.5-0.8-0.7c-0.4-0.3-0.8-0.5-1.2-0.7c-0.3-0.1-0.6-0.3-0.9-0.5c-0.7-0.4-1.4-0.8-2.1-1.1c-0.8-0.3-1.6-0.5-2.4-0.6
		c-0.2,0-0.4-0.1-0.7-0.1c-0.6-0.2-1.2-0.2-1.9-0.3h-0.7c-0.7,0-1.3,0-2,0.1c-0.7,0.1-1.4,0.4-2,0.7l-0.4,0.2l-0.5,0.2
		c-0.6,0.2-1.2,0.5-1.8,0.8c-0.6,0.4-1.1,0.8-1.6,1.2l-0.3,0.2l-0.2,0.1H930c0,0.7,0.2,1.4,0.5,2.1c0.1,0.1,0.3,0.2,0.4,0.4
		c0.2,0.3,0.5,0.5,0.8,0.5c0.3,0,0.6-0.1,0.8-0.3l0.3-0.2l0.3-0.2c0.6-0.5,1.2-0.9,1.8-1.2c0.6-0.4,1.3-0.8,2-1
		c0.4-0.1,0.8-0.1,1.3,0c0.3,0,0.7,0.1,1.1,0.1c0.7,0,1.5,0,2.2,0.2c0.7,0.2,1.4,0.4,2,0.8c0.3,0.2,0.6,0.5,0.8,0.7
		c0.2,0.3,0.5,0.5,0.8,0.7c0.6,0.4,1.2,0.9,1.9,1.3l0,0c0.5,0.3,1,0.4,1.5,0.5c0.3,0.1,0.7,0.2,1,0.3l0.5,0.2
		c0.6,0.3,1.2,0.5,1.8,0.6c0.8,0.2,1.7,0.3,2.5,0.3c0.6,0,1.2-0.1,1.8-0.3l0.7-0.1c0.3-0.1,0.6-0.1,0.9-0.1c0.6,0,1.1-0.1,1.6-0.3
		c0.5-0.2,1-0.5,1.5-0.9c0.2-0.1,0.4-0.3,0.6-0.4c0.3-0.2,0.6-0.3,0.9-0.5c0.4-0.2,0.8-0.4,1.2-0.7l0.7-0.6c0.3-0.3,0.6-0.6,1-0.8
		l0.2-0.1c0.5-0.4,1.1-0.7,1.8-0.9c0.7-0.2,1.5-0.4,2.3-0.4c0.7,0,1.5,0.1,2.2,0.4l0.6,0.1l0.3,0.1l0.6,0.1c0.1,0.1,0.2,0.2,0.3,0.3
		l1,0.7c0.4,0.3,0.9,0.6,1.3,0.9l0.5,0.4c0.5,0.4,1,0.9,1.6,1.2c0.2,0.2,0.5,0.3,0.7,0.4s0.3,0.2,0.5,0.4c0.3,0.2,0.6,0.3,0.9,0.3
		l0.4,0.2c0.2,0.1,0.5,0.2,0.8,0.4c0.6,0.4,1.2,0.6,1.9,0.7c0.8,0.1,1.5,0.1,2.3,0.1h1c0.8,0,1.6,0,2.4-0.1c0.9-0.1,1.7-0.4,2.5-0.7
		c0.5-0.2,1-0.5,1.4-0.9c0.2-0.2,0.4-0.3,0.6-0.5l0.5-0.3c0.5-0.3,1-0.6,1.4-1c0.4-0.3,0.8-0.5,1.2-0.7c0.3-0.1,0.5-0.3,0.8-0.4
		l0.5-0.3c0.4-0.3,0.9-0.6,1.4-0.7l0.4-0.1l0.8-0.2c0.2,0,0.4-0.7,0.4-0.7c0-0.1,0.1-0.2,0.1-0.4c0-0.5,0.2-1.1,0-1.5
		s-0.6-0.4-0.9-0.6"/>
	<path class="st0" d="M999,194.6c-0.2-0.1-0.4,0-0.6,0c-0.8,0.1-1.6,0.3-2.4,0.6c-0.5,0.2-1,0.5-1.4,0.8c-0.2,0.1-0.4,0.3-0.6,0.4
		c-0.2,0.1-0.4,0.2-0.5,0.3c-0.5,0.3-0.9,0.6-1.3,0.9c-0.5,0.4-1.1,0.8-1.7,1.1c-0.6,0.3-1.2,0.5-1.9,0.6l-0.6,0.1
		c-0.5,0.2-1,0.2-1.5,0.3c-0.5,0-1.1-0.1-1.6-0.1l-0.8-0.1h-0.4c-0.6,0-1.3-0.1-1.9-0.3c-0.5-0.2-1-0.4-1.4-0.7l-0.5-0.3l-0.5-0.2
		l-1-0.7c-0.4-0.2-0.7-0.4-1.1-0.5c-0.4-0.2-0.7-0.5-1.1-0.8l-0.1-0.1h-0.1c-0.3-0.3-0.7-0.4-1.1-0.3c-0.3-0.2-0.6-0.4-1-0.5
		c-0.9-0.3-1.8-0.4-2.7-0.6c-0.5,0-1,0-1.5,0.1c-0.4,0.1-0.8,0.1-1.2,0.1c-0.3,0-0.7-0.1-1-0.1c-0.5-0.1-1-0.1-1.4-0.1
		c-0.5,0.1-1.1,0.3-1.5,0.6c-0.2,0.1-0.4,0.2-0.7,0.3l-0.8,0.2c-0.5,0.1-1,0.3-1.5,0.6c-0.4,0.3-0.7,0.6-1,0.9
		c-0.2,0.2-0.4,0.4-0.6,0.5c-0.4,0.3-0.8,0.5-1.2,0.7l-0.6,0.3c-0.6,0.3-1.2,0.5-1.9,0.6l-0.2,0.1c-0.6,0.2-1.2,0.2-1.8,0.3
		c-0.8,0-1.5-0.1-2.2-0.3c-0.7-0.2-1.4-0.5-2-0.9c-0.3-0.2-0.6-0.3-0.9-0.5c-0.4-0.2-0.8-0.4-1.1-0.6c-0.2-0.2-0.4-0.4-0.6-0.6
		c-0.3-0.3-0.7-0.6-1-0.9c-0.6-0.4-1.3-0.7-2-1l-0.2-0.1c-0.2-0.1-0.4-0.2-0.7-0.3c-0.5-0.3-1.1-0.5-1.7-0.6
		c-0.9-0.1-1.7-0.2-2.6-0.1c-0.8,0-1.5,0.1-2.3,0.3l-0.3,0.1l-0.8,0.1c-0.6,0-1.2,0.2-1.8,0.4c-0.5,0.2-0.9,0.5-1.3,0.9
		c-0.2,0.2-0.4,0.4-0.6,0.5c-0.6,0.4-1.2,0.8-1.8,1.3c-0.2,0.8-0.2,1.6,0.1,2.4c0.6,0.5,1.4,1.1,2.4,0.4l0.2-0.1l0.2-0.2
		c0.3-0.2,0.6-0.5,0.8-0.8c0.2-0.3,0.5-0.5,0.7-0.7c0.6-0.4,1.3-0.7,2.1-0.9c0.8-0.2,1.5-0.3,2.3-0.4c0.8,0,1.5,0.2,2.2,0.4h0.1
		c0.7,0.2,1.4,0.5,2.1,0.9c0.6,0.4,1.2,0.8,1.8,1.3c0.2,0.2,0.4,0.4,0.6,0.6c0.3,0.3,0.7,0.6,1.1,0.9l0.4,0.3c0.5,0.4,1.1,0.7,1.7,1
		c0.5,0.2,1.1,0.3,1.6,0.3c0.3,0,0.6,0.1,0.9,0.1c0.3,0.1,0.5,0.2,0.8,0.3c0.5,0.2,1.1,0.4,1.7,0.4c0.8,0,1.6-0.1,2.5-0.2
		c0.6-0.1,1.1-0.3,1.6-0.6c0.2-0.1,0.4-0.2,0.6-0.3l0.8-0.2c0.5-0.1,1-0.3,1.5-0.6c0.4-0.3,0.7-0.6,1-0.9c0.2-0.2,0.3-0.4,0.5-0.6
		c0.4-0.3,0.7-0.5,1.1-0.7l0.7-0.4c0.2-0.1,0.3-0.2,0.5-0.3c0.4-0.3,0.8-0.5,1.3-0.6c0.3,0,0.7,0,1,0.1c0.4,0.1,0.8,0.1,1.2,0.1h0.9
		c0.5-0.1,1.1-0.1,1.6,0l0.6,0.1c0.6,0.1,1.2,0.2,1.8,0.4c0.5,0.2,0.9,0.5,1.4,0.9l0.6,0.4c0.3,0.2,0.6,0.4,0.9,0.5l0.5,0.3l0.5,0.4
		l0.1,0.1c0.3,0.2,0.6,0.4,0.9,0.7l0.5,0.4c0.5,0.1,1,0.3,1.5,0.4l0.2-0.1c0.6,0.1,1.1,0.2,1.7,0.1c0.4,0,0.8,0,1.2,0l0.9,0.1
		c0.7,0.1,1.3,0.2,2,0.2c0.8,0,1.5-0.1,2.2-0.2h0.2c0.8-0.1,1.6-0.3,2.4-0.5c0.5-0.2,1-0.5,1.4-0.8l0.5-0.4c0.3-0.2,0.6-0.3,0.9-0.4
		c0.4-0.1,0.8-0.3,1.2-0.6l0.2-0.1c0.4-0.4,0.9-0.7,1.4-1l0.3-0.2c0.4-0.3,0.9-0.5,1.4-0.6c0.3-0.4,0.9-1,0.9-1.3
		c-0.1-0.8-0.3-1.6-0.6-2.4"/>
	<path class="st0" d="M1000.3,179.2c-0.1-0.2-0.2-0.5-0.2-0.7c-0.2-0.5-0.3-1-0.4-1.5c-0.2-0.1-0.4-0.2-0.7-0.3l-0.6,0.1
		c-0.6,0.1-1.1,0.3-1.6,0.6c-0.2,0.1-0.4,0.2-0.6,0.3l-0.8,0.2c-0.5,0.1-1,0.3-1.5,0.6c-0.4,0.3-0.7,0.6-1,0.9
		c-0.2,0.2-0.3,0.4-0.5,0.6c-0.4,0.3-0.7,0.5-1.1,0.7l-0.7,0.4l-0.5,0.3c-0.4,0.3-0.8,0.5-1.3,0.6c-0.3,0-0.7,0-1-0.1
		c-0.4-0.1-0.8-0.1-1.2-0.1h-0.9c-0.5,0-1.1,0-1.6-0.1l-0.6-0.1c-0.6-0.1-1.2-0.2-1.8-0.4c-0.5-0.2-0.9-0.5-1.4-0.9l-0.6-0.4
		c-0.3-0.2-0.6-0.4-0.9-0.5l-0.5-0.3c-0.2-0.1-0.3-0.2-0.5-0.4c0,0-0.1-0.1-0.1-0.1l-0.9-0.7l-0.7-0.5c-0.4-0.4-1-0.5-1.6-0.3
		c-0.6-0.1-1.1-0.2-1.7-0.1c-0.4,0-0.8,0-1.2,0l-0.9-0.1c-0.7-0.1-1.3-0.2-2-0.2c-0.8,0-1.5,0.1-2.2,0.2h-0.2
		c-0.8,0.1-1.6,0.3-2.3,0.5c-0.5,0.2-1,0.5-1.4,0.8c-0.2,0.1-0.3,0.2-0.5,0.4c-0.3,0.2-0.6,0.3-0.9,0.4c-0.4,0.1-0.8,0.3-1.2,0.6
		l-0.2,0.1c-0.4,0.4-0.9,0.7-1.4,1l-0.3,0.2c-0.4,0.3-0.9,0.5-1.5,0.7c-0.7,0.1-1.4,0.2-2.1,0.2c-0.7,0-1.4-0.1-2.1-0.2
		c-0.6-0.2-1.3-0.4-1.8-0.8c-0.3-0.2-0.6-0.3-0.9-0.4c-0.4-0.1-0.7-0.3-1-0.5c-0.2-0.1-0.4-0.3-0.5-0.5c-0.3-0.3-0.7-0.6-1.1-0.9
		c-0.2-0.1-0.4-0.2-0.6-0.4c-0.4-0.4-0.9-0.6-1.4-0.9c-0.5-0.2-1-0.2-1.6-0.3l-0.9-0.1c-0.8-0.1-1.6-0.2-2.4-0.2c-0.3,0-0.7,0-1-0.1
		c-0.6-0.1-1.2-0.1-1.8,0c-0.7,0.1-1.4,0.3-2.1,0.5l-0.6,0.2c-0.6,0.2-1.2,0.5-1.8,0.8l-0.6,0.3h-0.1c-0.7,0.3-1.4,0.7-2,1.2
		c0,0.1,0,0.2-0.1,0.3c0.1,0.5,0.2,1,0.4,1.4l0.1-0.1l-0.1,0.1c0.1,0.2,0.2,0.4,0.3,0.6c0.2,0.1,0.4,0.2,0.6,0.3
		c0.5,0.2,1,0.1,1.4-0.2c0.5-0.4,1.1-0.7,1.8-0.9l0.5-0.2c0.8-0.3,1.6-0.5,2.5-0.7c0.3-0.1,0.7-0.1,1-0.2c0.5-0.2,1.1-0.2,1.7-0.3
		c0.6,0,1.2,0.1,1.7,0.3c0.1,0,0.3,0.1,0.4,0.1c0.7,0.2,1.3,0.4,1.9,0.7c0.4,0.2,0.7,0.5,1,0.8c0.2,0.1,0.4,0.3,0.6,0.5
		c0.4,0.3,0.7,0.5,1.1,0.7c0.2,0.1,0.5,0.3,0.8,0.4c0.2,0.1,0.4,0.3,0.6,0.5c0.4,0.4,0.8,0.7,1.3,0.9c0.5,0.1,1,0.2,1.5,0.2
		c0.3,0,0.6,0,0.9,0.1c0.8,0.1,1.6,0.2,2.4,0.2c0.3,0,0.6,0,0.9,0.1c0.5,0.1,1,0.1,1.5,0c0.8-0.1,1.6-0.3,2.4-0.6
		c0.5-0.2,1-0.5,1.4-0.8c0.2-0.1,0.4-0.3,0.6-0.4s0.4-0.2,0.5-0.3c0.5-0.3,0.9-0.6,1.3-0.9c0.5-0.4,1.1-0.8,1.7-1.1
		c0.6-0.3,1.2-0.5,1.9-0.6l0.6-0.1c0.5-0.2,1-0.3,1.5-0.3c0.5,0,1.1,0.1,1.6,0.1c0.3,0,0.5,0.1,0.8,0.1h0.4c0.6,0,1.3,0.1,1.9,0.3
		c0.5,0.2,1,0.4,1.4,0.7l0.5,0.3c0.2,0.1,0.3,0.2,0.5,0.2l1,0.7c0.3,0.2,0.7,0.4,1.1,0.5c0.4,0.2,0.7,0.5,1.2,0.8l0.1,0.1h0.1
		c0.3,0.3,0.7,0.4,1.1,0.3c0.3,0.2,0.6,0.4,1,0.5c0.9,0.3,1.8,0.5,2.7,0.6c0.5,0,1,0,1.5-0.1c0.4-0.1,0.8-0.1,1.2-0.1
		c0.3,0,0.7,0.1,1,0.1h0.3c1.2-0.4,2.5-0.7,3.8-1.1c0.8-0.3,1.5-0.6,2.3-1c0.2-0.2,0.4-0.3,0.5-0.5c0.2-0.2,0.4-0.4,0.6-0.5
		c0.4-0.3,0.8-0.5,1.2-0.7c0.2-0.1,0.4-0.2,0.6-0.3c0.6-0.3,1.2-0.5,1.9-0.6l0.2-0.1l0.4-0.1c0.4-0.3,0.7-0.7,0.9-1.2V179"/>
	<path class="st1" d="M832.1,176.5v0.1h0.5l0,0h-0.2L832.1,176.5z"/>
	<path class="st2" d="M830.9,177.9v-2.6h1.2h0.3l1.3,0.1v2.2l-1.1,0.1h-0.5L830.9,177.9z"/>
	<path class="st1" d="M849.2,190.7l0.2-0.3l3.4-4.8l-4.4-3.9l-0.2-0.2v-0.3l0.7-5.8l-5.7-1.4l-0.3-0.1l-0.1-0.3l-2.1-5.5l-5.6,1.4
		l-0.3,0.1l-0.2-0.2l-4.4-3.9l-4.4,3.9l-0.2,0.2l-0.3-0.1l-5.7-1.4l-2.1,5.5l-0.1,0.3l-0.3,0.1l-5.7,1.4l0.7,5.8v0.3l-0.2,0.2
		l-4.4,3.9l3.3,4.8l0.2,0.3l-0.1,0.3l-2.1,5.5l5.2,2.7l0.3,0.1v0.3l0.7,5.9h5.9h0.3l0.2,0.3l3.3,4.9l5.2-2.8l0.3-0.1l0.3,0.1
		l5.2,2.8l3.3-4.9l0.2-0.3h0.3h5.9l0.7-5.9v-0.3l0.3-0.1l5.2-2.7l-2.1-5.5L849.2,190.7z M845.3,190.5l-0.5,2.4l-0.8,2.3l-1.2,2.1
		l-1.5,2l-2,1.5l-2.1,1.2l-2.3,1l-2.4,0.6H830l-2.4-0.2l-2.3-0.6l-2.3-0.9l-2.2-1.1l-1.9-1.6l-1.4-2.1l-1.5-2l-1-2.3l-0.4-2.4
		l-0.2-2.5l0.1-2.5l0.6-2.4l1.1-2.2l1.1-2.2l1.6-1.9l2-1.5l2-1.4l2.4-0.7l2.4-0.7h2.5l2.4,0.2l2.4,0.4l2.3,1l2.2,1.2l1.9,1.6
		l1.6,1.9l1.1,2.2l1.2,2.2l0.3,2.4l0.3,2.4L845.3,190.5z"/>
	<path class="st2" d="M824.2,212.2l-3.8-5.5h-6.6l-0.8-6.6l-5.9-3.1l2.4-6.2l-3.8-5.4l5-4.4l-0.8-6.6l6.4-1.6l2.3-6.2l6.4,1.6l5-4.4
		l5,4.4l6.4-1.6l2.3,6.2l6.4,1.6l-0.8,6.6l5,4.4l-3.8,5.4l2.4,6.2l-5.9,3.1l-0.8,6.6h-6.6l-3.8,5.5l-6-3.1L824.2,212.2z M830,206.4
		l5.1,2.7l3.3-4.8h5.8l0.7-5.7l5.1-2.7l-2.1-5.4l0.5-0.8l2.8-4l-4.3-3.8l0.7-5.7l-5.6-1.4l-2-5.4l-5.6,1.4l-4.4-3.8l-4.3,3.8
		l-5.6-1.4l-2,5.4l-5.6,1.4l0.7,5.7l-4.3,3.8l3.3,4.7l-2.1,5.4l5.1,2.7l0.7,5.7h5.8l3.3,4.8L830,206.4z M830,204.8l-2.6-0.2
		l-2.6-0.7l-2.3-1l-2.3-1.2l-2.2-1.7l-1.5-2.2l-1.5-2.1l-1.1-2.5l-0.5-2.7l-0.3-2.5l0.1-2.7l0.7-2.6l1.2-2.3l1.2-2.3l1.8-2.1
		l2.1-1.6l2.2-1.6l5.1-1.5h2.7l2.6,0.2l2.6,0.4l2.5,1.1l2.2,1.3l2,1.7l1.8,2.1l1.2,2.3l1.2,2.4l0.9,5.2l-0.4,2.7l-0.5,2.5l-0.9,2.5
		l-1.3,2.3l-1.8,2.2l-2.2,1.7l-2.2,1.3l-2.3,1l-2.6,0.7L830,204.8z M827.8,202.2l2.3,0.2h2.3l2.2-0.6l2.1-0.9l2-1.2l1.8-1.4l1.4-1.8
		l1.2-2l0.8-2.1l0.5-2.3l0.4-2.2l-0.6-4.5l-1.1-2l-1-2.1l-1.5-1.7l-1.7-1.5l-2-1.1l-2.1-0.9l-2.2-0.4l-2.3-0.2h-2.2l-4.4,1.3
		l-1.8,1.3l-1.9,1.4l-1.4,1.7l-1,2.1l-1.1,2.1l-0.5,2.2l-0.1,2.3l0.2,2.3l0.4,2.2l0.9,2l1.4,1.9l1.3,1.9l1.7,1.4l2,1l2.2,0.9
		L827.8,202.2z"/>
	<path class="st1" d="M827.6,200.3h0.3l-0.3-0.2C827.6,200.1,827.6,200.2,827.6,200.3z"/>
	<path class="st2" d="M832.5,202.1l-6-0.8l-0.1-0.9c0,0,0-0.1,0-0.1v-0.1l-0.3-2.6L832.5,202.1z"/>
	<circle class="st2" cx="830.2" cy="188.5" r="17.2"/>
	<path class="st3" d="M840.1,190.2c0,0,0.1-0.1,0.1-0.1l0-0.1l0,0V190c0-0.3,0-0.6,0-0.9l-0.1-0.1c-0.1-0.1-0.2-0.2-0.2-0.3h-0.1
		l-0.2-0.1l-0.1-0.1c-0.1-0.1-0.3-0.2-0.4-0.3c-0.2-0.1-0.3-0.2-0.5-0.4l-0.2-0.2l-0.6-0.5l-0.3-0.2l-0.2-0.1
		c-0.1-0.1-0.2-0.1-0.3-0.1l-0.1-0.1l-0.3-0.1c-0.2-0.1-0.5-0.3-0.7-0.3c-0.3,0-0.6,0-0.9,0h-0.3c-0.3,0-0.6,0-0.9,0.1
		c-0.3,0.1-0.7,0.2-1,0.3c-0.2,0.1-0.4,0.2-0.5,0.4l-0.2,0.2l-0.2,0.1c-0.2,0.1-0.4,0.2-0.5,0.4c-0.1,0.1-0.3,0.2-0.4,0.3l-0.3,0.2
		l-0.2,0.1c-0.2,0.1-0.3,0.2-0.5,0.3h-0.1c-0.2,0.1-0.5,0.1-0.7,0.1c-0.3,0-0.6,0-0.9-0.1c-0.2-0.1-0.3-0.2-0.5-0.3
		c-0.1-0.1-0.1-0.1-0.2-0.2c-0.1-0.1-0.2-0.2-0.3-0.3c-0.1-0.1-0.2-0.2-0.3-0.3c-0.1-0.1-0.3-0.2-0.5-0.3c-0.1-0.1-0.2-0.1-0.3-0.2
		c-0.3-0.2-0.5-0.3-0.8-0.4c-0.3-0.1-0.6-0.2-0.9-0.2l-0.2-0.1c-0.2-0.1-0.5-0.1-0.7-0.1H823c-0.2,0-0.5,0-0.7,0
		c-0.3,0.1-0.5,0.2-0.8,0.3l-0.1,0.1l-0.2,0.1c-0.2,0.1-0.5,0.2-0.7,0.4c-0.2,0.1-0.4,0.3-0.6,0.5l-0.1,0.1h-0.1l0,0
		c0,0.3,0.1,0.6,0.2,0.9l0.1,0.1c0.1,0.1,0.2,0.2,0.3,0.2c0.1,0,0.2,0,0.3-0.1l0.1-0.1l0.1-0.1c0.2-0.2,0.5-0.4,0.7-0.5
		c0.2-0.2,0.5-0.3,0.8-0.4c0.2,0,0.3,0,0.5,0c0.1,0,0.3,0,0.4,0c0.3,0,0.6,0,0.8,0.1c0.3,0.1,0.5,0.2,0.8,0.3
		c0.1,0.1,0.2,0.2,0.3,0.3c0.1,0.1,0.2,0.2,0.3,0.3c0.2,0.2,0.5,0.4,0.7,0.5l0,0c0.2,0.1,0.4,0.2,0.6,0.2c0.1,0,0.2,0.1,0.4,0.1
		l0.2,0.1c0.2,0.1,0.5,0.2,0.7,0.3c0.3,0.1,0.7,0.1,1,0.1c0.2,0,0.5,0,0.7-0.1l0.3-0.1h0.3c0.2,0,0.4-0.1,0.6-0.1
		c0.2-0.1,0.4-0.2,0.5-0.4l0.2-0.2c0.1-0.1,0.2-0.1,0.3-0.2c0.2-0.1,0.3-0.2,0.5-0.3l0.3-0.2c0.1-0.1,0.3-0.2,0.4-0.3h0.1
		c0.2-0.2,0.4-0.3,0.7-0.4c0.3-0.1,0.6-0.1,0.9-0.2c0.3,0,0.6,0.1,0.8,0.1l0.2,0.1h0.1l0.2,0.1c0,0,0.1,0.1,0.1,0.1l0.4,0.3
		c0.2,0.1,0.3,0.2,0.5,0.4l0.2,0.1c0.2,0.2,0.4,0.4,0.6,0.5l0.3,0.2c0.1,0.1,0.1,0.1,0.2,0.2c0.1,0.1,0.2,0.1,0.3,0.1l0.1,0.1
		l0.3,0.1c0.2,0.1,0.5,0.3,0.7,0.3L840.1,190.2L840.1,190.2L840.1,190.2z"/>
	<path class="st3" d="M839.1,193.5L839.1,193.5c0.3,0,0.5,0.1,0.7,0.1l0,0h0.2h0.1l0,0l0,0l0.1-0.1l0,0l0.1-0.1l0,0l0,0
		c0-0.2,0-0.5,0-0.8l0,0l0,0l-0.1-0.1l-0.1-0.1c0,0-0.1-0.1-0.1-0.1c-0.1,0-0.2,0-0.3-0.1c-0.2-0.1-0.4-0.2-0.5-0.3l-0.2-0.1
		l-0.2-0.1l-0.4-0.3c-0.1-0.1-0.3-0.2-0.4-0.2l-0.4-0.3h0l0,0c-0.1-0.1-0.3-0.1-0.4-0.1c-0.1-0.1-0.2-0.2-0.4-0.2
		c-0.3-0.1-0.7-0.2-1-0.2c-0.2,0-0.4,0-0.6,0c-0.1,0-0.3,0-0.5,0.1c-0.1,0-0.3,0-0.4-0.1c-0.2,0-0.4,0-0.5,0c-0.2,0-0.4,0.1-0.6,0.2
		c-0.1,0-0.2,0.1-0.3,0.1l-0.3,0.1c-0.4,0.1-0.8,0.3-1,0.6c-0.1,0.1-0.1,0.2-0.2,0.2c-0.1,0.1-0.3,0.2-0.5,0.3l-0.2,0.1
		c-0.2,0.1-0.5,0.2-0.7,0.3h-0.1c-0.2,0.1-0.5,0.1-0.7,0.1c-0.3,0-0.6,0-0.8-0.1c-0.3-0.1-0.5-0.2-0.8-0.4c-0.1-0.1-0.2-0.1-0.3-0.2
		c-0.2-0.1-0.3-0.2-0.4-0.3c-0.1-0.1-0.2-0.2-0.2-0.2c-0.1-0.1-0.3-0.3-0.4-0.4c-0.2-0.2-0.5-0.3-0.8-0.4h-0.1l-0.2-0.1
		c-0.2-0.1-0.4-0.2-0.6-0.3c-0.3-0.1-0.7-0.1-1-0.1c-0.3,0-0.6,0-0.9,0.1h-0.1H822c-0.2,0-0.4,0.1-0.7,0.2c-0.2,0.1-0.3,0.2-0.5,0.4
		c-0.1,0.1-0.2,0.2-0.2,0.2c-0.2,0.2-0.5,0.3-0.7,0.5c-0.1,0.3-0.1,0.7,0,1c0.2,0.2,0.5,0.5,0.9,0.1l0.1-0.1l0.1-0.1
		c0.1-0.1,0.2-0.2,0.3-0.3c0.1-0.1,0.2-0.2,0.3-0.3c0.2-0.2,0.5-0.3,0.8-0.4c0.3-0.1,0.6-0.1,0.9-0.2c0.3,0,0.6,0.1,0.8,0.2l0,0
		c0.3,0.1,0.5,0.2,0.8,0.4c0.2,0.2,0.5,0.4,0.7,0.5l0.2,0.2c0.1,0.1,0.3,0.3,0.4,0.4l0.2,0.1c0.2,0.2,0.4,0.3,0.6,0.4
		c0.2,0.1,0.4,0.1,0.6,0.1h0.3c0.1,0,0.2,0.1,0.3,0.1c0.2,0.1,0.4,0.2,0.6,0.2c0.3,0,0.6,0,0.9-0.1c0.2,0,0.4-0.1,0.6-0.2l0.2-0.1
		l0.3-0.1c0.2,0,0.4-0.1,0.5-0.2c0.1-0.1,0.3-0.2,0.4-0.4c0.1-0.1,0.1-0.2,0.2-0.2c0.1-0.1,0.3-0.2,0.4-0.3l0.2-0.1l0.2-0.1
		c0.1-0.1,0.3-0.2,0.5-0.3c0.1,0,0.2,0,0.4,0c0.2,0,0.3,0.1,0.5,0.1h0.3c0.2,0,0.4,0,0.6,0h0.2c0.2,0,0.5,0.1,0.7,0.2
		c0.2,0.1,0.4,0.2,0.5,0.4l0.2,0.2c0.3,0.2,1,0.6,0.5,0.4l0.2,0.1h0l0.3,0.3l0.2,0.2L839.1,193.5z"/>
	<path class="st3" d="M840.2,185l-0.3-0.2c-0.1,0-0.3-0.1-0.4-0.1c-0.2-0.1-0.4-0.2-0.5-0.4l-0.2-0.2c-0.1-0.1-0.2-0.1-0.3-0.2
		l-0.2-0.1c-0.1-0.1-0.1-0.1-0.2-0.1l0,0l-0.3-0.3l-0.3-0.2c-0.2-0.2-0.4-0.2-0.6-0.1c-0.2-0.1-0.4-0.1-0.7-0.1c-0.2,0-0.3,0-0.5,0
		l-0.4-0.1c-0.3-0.1-0.5-0.1-0.8-0.1c-0.3,0-0.6,0-0.8,0.1h-0.1c-0.3,0-0.6,0.1-0.9,0.2c-0.2,0.1-0.4,0.2-0.5,0.3l-0.2,0.1
		c-0.1,0.1-0.2,0.1-0.3,0.2c-0.2,0.1-0.3,0.1-0.4,0.2l-0.1,0.1c-0.2,0.1-0.3,0.3-0.5,0.4l-0.1,0.1c-0.2,0.1-0.4,0.2-0.6,0.3
		c-0.3,0.1-0.5,0.1-0.8,0.1c-0.3,0-0.5,0-0.8-0.1c-0.2-0.1-0.5-0.2-0.7-0.3l-0.3-0.2c-0.1-0.1-0.3-0.1-0.4-0.2l-0.2-0.2
		c-0.1-0.1-0.3-0.3-0.4-0.4l-0.2-0.2c-0.2-0.1-0.3-0.3-0.5-0.4c-0.2-0.1-0.4-0.1-0.6-0.1h-0.3c-0.3,0-0.6-0.1-0.9-0.1h-0.4
		c-0.2,0-0.4,0-0.7,0c-0.3,0-0.5,0.1-0.8,0.2l-0.2,0.1c-0.2,0.1-0.5,0.2-0.7,0.3l-0.2,0.1l0,0c-0.3,0.1-0.5,0.3-0.8,0.5
		c0,0,0,0.1,0,0.1c0,0.2,0.1,0.4,0.2,0.6l0,0v0.1c0,0.1,0.1,0.1,0.1,0.2c0.1,0.1,0.1,0.1,0.2,0.1c0.2,0.1,0.4,0,0.5-0.1
		c0.2-0.2,0.4-0.3,0.7-0.4l0.2-0.1c0.3-0.1,0.6-0.2,0.9-0.3l0.4-0.1c0.4-0.1,0.9-0.1,1.3,0h0.1c0.3,0.1,0.5,0.2,0.7,0.3
		c0.1,0.1,0.3,0.2,0.4,0.3l0.2,0.2c0.1,0.1,0.3,0.2,0.4,0.3l0.3,0.2c0.1,0.1,0.1,0.1,0.2,0.2c0.1,0.2,0.3,0.3,0.5,0.4
		c0.2,0.1,0.4,0.1,0.6,0.1c0.1,0,0.2,0,0.4,0c0.3,0.1,0.6,0.1,0.9,0.1h0.4c0.2,0,0.4,0,0.6,0c0.3-0.1,0.6-0.1,0.9-0.2
		c0.2-0.1,0.4-0.2,0.5-0.4c0.1-0.1,0.1-0.1,0.2-0.2l0.2-0.1c0.2-0.1,0.3-0.2,0.5-0.4c0.2-0.2,0.4-0.3,0.7-0.5
		c0.2-0.1,0.5-0.2,0.7-0.3c0.1,0,0.1,0,0.2-0.1c0.2-0.1,0.4-0.1,0.6-0.1c0.2,0,0.4,0,0.6,0.1l0.3,0.1h0.1c0.2,0,0.5,0.1,0.7,0.1
		c0.2,0.1,0.4,0.2,0.5,0.3l0.2,0.1l0.2,0.1l0.4,0.3c0.1,0.1,0.3,0.2,0.4,0.2l0.4,0.4l0,0l0,0c0.1,0.1,0.3,0.1,0.4,0.1
		c0.1,0.1,0.2,0.2,0.4,0.2c0.2,0.1,0.5,0.1,0.7,0.2h0.1c0,0,0.1-0.1,0,0c0,0,0,0,0.1-0.1l0.1-0.1l0,0l0,0v-0.1
		C840.3,185.8,840.3,185.4,840.2,185L840.2,185z"/>
	<path class="st1" d="M832.1,176.5v0.1h0.5l0,0h-0.2L832.1,176.5z"/>
	<path class="st1" d="M849.2,190.7l0.2-0.3l3.4-4.8l-4.4-3.9l-0.2-0.2v-0.3l0.7-5.8l-5.7-1.4l-0.3-0.1l-0.1-0.3l-2.1-5.5l-5.6,1.4
		l-0.3,0.1l-0.2-0.2l-4.4-3.9l-4.4,3.9l-0.2,0.2l-0.3-0.1l-5.7-1.4l-2.1,5.5l-0.1,0.3l-0.3,0.1l-5.7,1.4l0.7,5.8v0.3l-0.2,0.2
		l-4.4,3.9l3.3,4.8l0.2,0.3l-0.1,0.3l-2.1,5.5l5.2,2.7l0.3,0.1v0.3l0.7,5.9h5.9h0.3l0.2,0.3l3.3,4.9l5.2-2.8l0.3-0.1l0.3,0.1
		l5.2,2.8l3.3-4.9l0.2-0.3h0.3h5.9l0.7-5.9v-0.3l0.3-0.1l5.2-2.7l-2.1-5.5L849.2,190.7z M845.3,190.5l-0.5,2.4l-0.8,2.3l-1.2,2.1
		l-1.5,2l-2,1.5l-2.1,1.2l-2.3,1l-2.4,0.6H830l-2.4-0.2l-2.3-0.6l-2.3-0.9l-2.2-1.1l-1.9-1.6l-1.4-2.1l-1.5-2l-1-2.3l-0.4-2.4
		l-0.2-2.5l0.1-2.5l0.6-2.4l1.1-2.2l1.1-2.2l1.6-1.9l2-1.5l2-1.4l2.4-0.7l2.4-0.7h2.5l2.4,0.2l2.4,0.4l2.3,1l2.2,1.2l1.9,1.6
		l1.6,1.9l1.1,2.2l1.2,2.2l0.3,2.4l0.3,2.4L845.3,190.5z"/>
	<path class="st1" d="M827.6,200.3h0.3l-0.3-0.2C827.6,200.1,827.6,200.2,827.6,200.3z"/>
</g>
</svg>
