<svg xmlns="http://www.w3.org/2000/svg" viewBox="0 0 970 250"><defs><style>.cls-1{fill:#074854;}</style></defs><g id="Overlays"><path class="cls-1" d="M103.82,97.88h.77a3.27,3.27,0,0,0,.78-.09,11,11,0,0,0-.19-1.3c-.09-.43-.18-.85-.25-1.28s-.11-.68-.14-.94a5.16,5.16,0,0,0-.1-.61.64.64,0,0,0-.15-.32.4.4,0,0,0-.3-.1h-.15a.39.39,0,0,0-.15,0c-.06.38-.14.76-.23,1.14l-.3,1.14c-.09.38-.18.76-.26,1.14a8.91,8.91,0,0,0-.17,1.17l.29,0h.55Zm3.21,5.94a3.68,3.68,0,0,1-.66-.06c-.13-.56-.25-1.11-.36-1.66s-.23-1.11-.37-1.67h-1.26q-1,0-2,.06c-.19,1.08-.43,2.16-.71,3.25l-.64,0H99.86a3,3,0,0,1-.42,0,2.65,2.65,0,0,1-.42-.06c.14-1.06.34-2.16.6-3.28s.53-2.25.82-3.39.59-2.27.88-3.39.56-2.23.78-3.31l.63,0,.63,0h1.51c.49,0,1,0,1.5,0,.09.35.21.88.37,1.59s.33,1.51.52,2.4.38,1.82.57,2.79.38,1.87.54,2.72.3,1.59.4,2.23a9,9,0,0,1,.16,1.28l0,.5Z"/><path class="cls-1" d="M124.83,103.74a5.74,5.74,0,0,1-.71,0h-1.36a5,5,0,0,1-.66,0c-.08-.74-.12-1.5-.13-2.26s0-1.53,0-2.3,0-1.53,0-2.3,0-1.53,0-2.28h-.12a14.5,14.5,0,0,1-.49,1.68c-.19.52-.39,1-.61,1.51s-.45,1-.7,1.49-.5,1-.75,1.59a3.61,3.61,0,0,0-.55.12,2.16,2.16,0,0,1-.56.08h-.62l-.45,0a4.5,4.5,0,0,1-.44-.1l-.58-.19-1.17-3a25.19,25.19,0,0,1-1-3l-.14,0,0,3.16c0,1,0,2,.1,2.92a23.68,23.68,0,0,1,0,2.92l-.51,0a4.53,4.53,0,0,1-.52,0H112a6.84,6.84,0,0,1-.91-.06q-.12-1.5-.15-3t0-3.09c0-1,0-2.08.07-3.11s0-2,0-3v-.56a3.6,3.6,0,0,1,0-.56l1.18,0h1.42a3.16,3.16,0,0,1,.68.08l.67.16a38.83,38.83,0,0,0,1.36,3.8c.51,1.23,1,2.48,1.48,3.74.35-.91.68-1.71,1-2.4s.55-1.32.79-1.91l.66-1.68c.2-.54.4-1.12.58-1.75a7.38,7.38,0,0,1,.93-.06h1.56l.68,0,.68,0c.12,1,.19,2,.22,3s0,2.06,0,3.1,0,2.07-.07,3.11-.05,2-.05,3Z"/><path class="cls-1" d="M129.73,96.31a.65.65,0,0,0,.29.06c.39,0,.82,0,1.28,0a4.84,4.84,0,0,0,1.29-.2,2.23,2.23,0,0,0,1-.58,1.55,1.55,0,0,0,.4-1.17,1.84,1.84,0,0,0-.28-1.08,1.91,1.91,0,0,0-.73-.62,3.19,3.19,0,0,0-1-.29,10.71,10.71,0,0,0-1.13-.07h-.71a1.31,1.31,0,0,0-.33.09.24.24,0,0,0-.13.23c0,.39,0,.77,0,1.15s0,.76,0,1.15c0,.21,0,.44,0,.68a2.28,2.28,0,0,0,.12.67m-3.08,7.33c-.08-.56-.14-1.14-.17-1.74s0-1.21,0-1.83,0-1.23,0-1.84,0-1.2,0-1.76,0-1,0-1.49,0-1.1,0-1.64,0-1.08,0-1.61a8.81,8.81,0,0,1,.19-1.44,2.51,2.51,0,0,1,.61-.1c.21,0,.41,0,.61,0l1.9,0q1,0,2,0a12.47,12.47,0,0,1,2,.27,5.06,5.06,0,0,1,1.68.67,3.55,3.55,0,0,1,1.16,1.27,4.19,4.19,0,0,1,.44,2,4.07,4.07,0,0,1-.47,2,4.33,4.33,0,0,1-1.25,1.44,5.49,5.49,0,0,1-1.78.88,7.2,7.2,0,0,1-2.07.3h-.88a6.88,6.88,0,0,0-.9,0c0,.42-.05.85-.05,1.29s0,.87,0,1.3,0,.68,0,1a4.38,4.38,0,0,1-.06,1,4.4,4.4,0,0,1-.77.09h-1.49a3.43,3.43,0,0,1-.71-.08"/><path class="cls-1" d="M145.48,95.56a4.15,4.15,0,0,0,.79-.07,1.89,1.89,0,0,0,.67-.23,1.17,1.17,0,0,0,.46-.45,1.37,1.37,0,0,0,.18-.74,1.3,1.3,0,0,0-.27-.88,1.77,1.77,0,0,0-.7-.49,3.49,3.49,0,0,0-.94-.22c-.33,0-3.83,0-4.12,0a3.18,3.18,0,0,0-.6,0c-.15,0-.22.18-.22.46s0,.58,0,.87,0,.57,0,.86v.72c0,.07,0,.12.15.14a.68.68,0,0,0,.21,0Zm-4.75,5.87a.26.26,0,0,0,.16.13.64.64,0,0,0,.2,0c.39,0,4,0,4.44,0a4.72,4.72,0,0,0,1.23-.21,2.11,2.11,0,0,0,.94-.58,1.59,1.59,0,0,0,.38-1.16,1.17,1.17,0,0,0-.42-1,2.8,2.8,0,0,0-1-.47,5,5,0,0,0-1.24-.16h-4.29a.5.5,0,0,0-.37.1.51.51,0,0,0-.09.35c0,.5,0,1,0,1.48s0,1,0,1.5m8.38-4.91a5,5,0,0,1,1.54,1.21,2.64,2.64,0,0,1,.6,1.78,4.48,4.48,0,0,1-.42,2.07,3.43,3.43,0,0,1-1.12,1.29,4.61,4.61,0,0,1-1.61.68,11.71,11.71,0,0,1-1.91.28c-.67,0-4.53.06-5.21,0l-1.95,0h-.56a.76.76,0,0,1-.37-.07.4.4,0,0,1-.2-.25,1.72,1.72,0,0,1-.06-.52V91.11a.63.63,0,0,1,.46-.62,3.46,3.46,0,0,1,1.09-.21,11,11,0,0,1,1.28,0c.43,0,4,0,4.21,0,.62,0,1.27,0,1.93.1a6.09,6.09,0,0,1,1.8.45,3.33,3.33,0,0,1,1.31,1,3,3,0,0,1,.51,1.85,3.15,3.15,0,0,1-1.36,2.53Z"/><path class="cls-1" d="M158.46,103.76c-.92,0-1.88,0-2.89.07a12.3,12.3,0,0,1-2.82-.17,21.37,21.37,0,0,1-.19-2.76q0-1.49,0-3c0-1,0-2.06.07-3.07s.05-2,.05-2.85l0-1.62.83,0h7.91l1,0c0,.4.06.81.06,1.22v.57a3.64,3.64,0,0,1,0,.57l-.57,0-.56,0c-.84,0-2.38,0-3.21,0a14,14,0,0,0-2.5.14,1.72,1.72,0,0,0,0,.39v.38l0,2a15.83,15.83,0,0,0,2.17,0c.72,0,2.22,0,3.12,0,0,0,0,0,.07.13s.05.18.07.29L161,97.72q0,.09-.12.15a1.36,1.36,0,0,1-.28.08,2.05,2.05,0,0,1-.37,0h-2.79c-.6,0-1.17,0-1.73,0l0,1.09v1.8a2.87,2.87,0,0,0,1.17.27c.52,0,1.07,0,1.65,0l2.47-.07a10.32,10.32,0,0,1,1.5,0,5.13,5.13,0,0,1,.09.67c0,.22,0,.44,0,.66a4.45,4.45,0,0,1,0,.65l-.09.63Z"/><path class="cls-1" d="M163.78,90.35l.91-.06.91,0a6.4,6.4,0,0,1,.88.06c.12,1.21.17,2.43.17,3.64v5.37c0,.57,0,1.14,0,1.73.95,0,1.91,0,2.86,0a14.49,14.49,0,0,1,2.38.1,7.17,7.17,0,0,1,.11.94c0,.36,0,.67,0,.93a3.51,3.51,0,0,1-.07.66,5.25,5.25,0,0,1-.79.06h-3.7c-1.24,0-2.47,0-3.7-.15-.09-1-.15-2-.17-3s0-2,0-3,0-2,.06-3,0-2,0-3Z"/><path class="cls-1" d="M172.83,90.35l.91-.06.91,0a6.51,6.51,0,0,1,.88.06c.11,1.21.17,2.43.17,3.64v5.37c0,.57,0,1.14,0,1.73.95,0,1.9,0,2.86,0a14.37,14.37,0,0,1,2.37.1,5.7,5.7,0,0,1,.12.94q0,.54,0,.93a3.52,3.52,0,0,1-.06.66,5.39,5.39,0,0,1-.8.06h-3.69c-1.24,0-2.47,0-3.7-.15-.1-1-.16-2-.18-3s0-2,0-3,0-2,.06-3,0-2,0-3Z"/><path class="cls-1" d="M91.94,103.76c-.92,0-1.88,0-2.89.07a12.3,12.3,0,0,1-2.82-.17A21.37,21.37,0,0,1,86,100.9q0-1.49,0-3c0-1,0-2.06.07-3.07s0-2,0-2.85l0-1.62.83,0h9l1,0a9.87,9.87,0,0,1,.07,1.22v.57a5.46,5.46,0,0,1,0,.57l-.57,0-.56,0c-.84,0-3.49,0-4.32,0a14,14,0,0,0-2.5.14,1.72,1.72,0,0,0,0,.39v7.67a2.87,2.87,0,0,0,1.17.27c.51,0,1.07,0,1.65,0l3.57-.07a10.46,10.46,0,0,1,1.51,0c0,.22.07.45.09.67s0,.44,0,.66a4.4,4.4,0,0,1,0,.65c0,.21,0,.42-.08.63Z"/><path class="cls-1" d="M190.14,96.39a.41.41,0,0,0,.21.14.73.73,0,0,0,.25,0l1.25,0a25.49,25.49,0,0,0,2.8-.18,2.26,2.26,0,0,0,1-.55,1.51,1.51,0,0,0,.4-1.14,1.43,1.43,0,0,0-.38-1.09,2.25,2.25,0,0,0-1-.54,24.61,24.61,0,0,0-2.76-.18h-1.2a.91.91,0,0,0-.38.06.4.4,0,0,0-.18.16.55.55,0,0,0,0,.27c0,.11,0,.24,0,.37s0,.5,0,.76,0,.49,0,.73Zm6.36,7.54A4.53,4.53,0,0,1,196,103c-.22-.46-.45-1-.67-1.48s-.43-1-.63-1.54l-.42-1.09a17.08,17.08,0,0,0-2.27-.15H190.7a3,3,0,0,0-.52,0,4,4,0,0,0,0,.6V100c0,.63,0,1.26.06,1.89a11.78,11.78,0,0,1-.06,1.88,6.15,6.15,0,0,1-1,.12c-.32,0-.66,0-1,0l-.86,0a2.89,2.89,0,0,1-.17-1c0-.57-.07-1.25-.08-2.06s0-1.68,0-2.61,0-1.84,0-2.7,0-1.62,0-2.28,0-1.14,0-1.42,0-.45,0-.68a5.08,5.08,0,0,1,.07-.67,6.33,6.33,0,0,1,1.38-.1l1.39,0c.54,0,1.11,0,1.72,0s2.71.06,3.28.13a8.44,8.44,0,0,1,1.63.39,4.74,4.74,0,0,1,1.37.74,3.37,3.37,0,0,1,.93,1.2,4.17,4.17,0,0,1,.34,1.79,4.55,4.55,0,0,1-.13,1.15,3.74,3.74,0,0,1-.4,1,4.24,4.24,0,0,1-.66.82,9.31,9.31,0,0,1-.92.76,6.42,6.42,0,0,0,.54,1.36c.24.46.47.93.7,1.39s.44.93.63,1.39a4.67,4.67,0,0,1,.35,1.34,1.49,1.49,0,0,1-.25.07l-.26,0Z"/><path class="cls-1" d="M203.26,104.07h-2.14l-.24,0-.26,0c0-.3-.05-4.84-.06-5.13s0-1.72,0-2V92.44c0-.3,0-.61,0-.91s0-.62.06-.92q.38,0,.75-.06l.76,0,1.32,0,.17,0,.12,0c0,2.19.17,10.8.06,13.42Z"/><path class="cls-1" d="M211.66,104h-2.91c-.14-.36-.31-.9-.51-1.61s-.43-1.51-.67-2.38-.49-1.8-.73-2.77l-.66-2.75c-.2-.87-.37-1.66-.5-2.36a11.49,11.49,0,0,1-.22-1.56,1.36,1.36,0,0,1,.36,0h2.24a16.21,16.21,0,0,1,1.07,2.4c.29.85.54,1.71.76,2.59s.41,1.75.58,2.63.35,1.74.54,2.57l.23,0c.06-.29.16-.72.3-1.28s.3-1.2.49-1.89l.6-2.16c.22-.75.44-1.46.65-2.12s.43-1.24.62-1.73a4.8,4.8,0,0,1,.51-1h2.7a7.21,7.21,0,0,1-.24,1.52c-.16.68-.37,1.44-.63,2.29s-.55,1.75-.86,2.7-.62,1.87-.92,2.76l-.83,2.43q-.37,1.11-.57,1.77Z"/><path class="cls-1" d="M223.81,103.85c-.92,0-1.88,0-2.89.07a12.3,12.3,0,0,1-2.82-.17,21.37,21.37,0,0,1-.19-2.76c0-1,0-2,0-3s0-2,.07-3.06.05-2,.05-2.85l.05-1.62c.27,0,.55,0,.83,0h8.2l2.53,0c0,.4.06.81.06,1.22v.57a3.64,3.64,0,0,1,0,.57l-.57,0c-.19,0-1.9,0-2.08,0-.84,0-2.67,0-3.5,0a14,14,0,0,0-2.5.14,1.69,1.69,0,0,0,0,.38v.39l0,2a15.94,15.94,0,0,0,2.18.05c.71,0,2.5-.05,3.39-.05,0,0,.06,0,.08.13s0,.18.07.29l-.12,1.67a.16.16,0,0,1-.12.15,1,1,0,0,1-.28.08c-.11,0-1.23,0-1.36,0h-2.09c-.6,0-1.17,0-1.73,0l0,1.1V101a3,3,0,0,0,1.17.27c.52,0,1.07,0,1.65,0l2.75-.07c.59,0,2.61,0,3,0a4.91,4.91,0,0,1,.09.67c0,.21,0,.44,0,.66a6.48,6.48,0,0,1,0,.65l-.09.63Z"/><path class="cls-1" d="M233.39,96.3a.41.41,0,0,0,.21.14.73.73,0,0,0,.25,0l3,0a5.12,5.12,0,0,0,1.27-.18,2.21,2.21,0,0,0,1-.55,1.51,1.51,0,0,0,.41-1.14,1.44,1.44,0,0,0-.39-1.09,2.27,2.27,0,0,0-1-.54,5,5,0,0,0-1.24-.18H234a.91.91,0,0,0-.38.06.4.4,0,0,0-.18.16.55.55,0,0,0,0,.27c0,.11,0,.24,0,.37s0,.5,0,.76,0,.49,0,.73Zm10.28,5a9.53,9.53,0,0,0,.17,1.07,6.36,6.36,0,0,1,.1,1.07.38.38,0,0,1-.23.35,1.71,1.71,0,0,1-.54.17,3.41,3.41,0,0,1-.63,0H242a3.57,3.57,0,0,1-1.51-.3,3.82,3.82,0,0,1-1.18-.85,6.59,6.59,0,0,1-.91-1.25,12.38,12.38,0,0,1-.71-1.51l-.46-1.29a1,1,0,0,0-.53-.15H234a3,3,0,0,0-.52,0,4,4,0,0,0,0,.6v.61q0,.95.06,1.89a11.78,11.78,0,0,1-.06,1.88,6.15,6.15,0,0,1-1,.12c-.32,0-.66,0-1,0l-.86,0a2.89,2.89,0,0,1-.17-1c0-.57-.07-1.25-.08-2.06s0-1.68,0-2.61,0-1.84,0-2.7,0-1.62,0-2.28,0-1.14,0-1.42,0-.45,0-.68a3.81,3.81,0,0,1,.07-.67,6.33,6.33,0,0,1,1.38-.1l1.39,0c.54,0,2.82,0,3.42,0a16.74,16.74,0,0,1,1.76.13,9.35,9.35,0,0,1,1.64.39,4.69,4.69,0,0,1,1.36.74,3.37,3.37,0,0,1,.93,1.2,4.17,4.17,0,0,1,.35,1.79,3.76,3.76,0,0,1-.16,1.15,3.3,3.3,0,0,1-.47,1,4.12,4.12,0,0,1-.8.82,10.67,10.67,0,0,1-1.11.76,5.83,5.83,0,0,0,.44,1.06,6.05,6.05,0,0,0,.65,1,3.53,3.53,0,0,0,.75.71,1.18,1.18,0,0,0,.74.25,2.8,2.8,0,0,1,.42,0,1.45,1.45,0,0,0,.56-.11Z"/><path class="cls-1" d="M181.41,155.39h-.07l-.07,0-.33.06-.43.05a3,3,0,0,0-.78.13,3.24,3.24,0,0,0-.69.38l-.27.17a3.29,3.29,0,0,1-.42.21,3.42,3.42,0,0,0-.57.3l-.32.24a3.08,3.08,0,0,1-.49.34l-.08.05a3.44,3.44,0,0,1-.85.38,4.58,4.58,0,0,1-1.09.16,4.24,4.24,0,0,1-1-.15l-.29-.06-.12,0-.29-.06-.14-.12-.5-.31c-.21-.13-.42-.26-.6-.39l-.21-.16c-.25-.19-.5-.37-.76-.54l-.33-.19a1.25,1.25,0,0,0-.22-.16.8.8,0,0,0-.42-.15l-.18-.07-.36-.16a3.1,3.1,0,0,0-.92-.31,6.46,6.46,0,0,0-1.1,0h-.43a8.25,8.25,0,0,0-1.14.05,6.29,6.29,0,0,0-1.19.31,2.48,2.48,0,0,0-.66.38,1.68,1.68,0,0,1-.29.2l-.25.15c-.24.14-.46.27-.67.41a3.81,3.81,0,0,1-.56.31l-.36.18-.23.14a2.3,2.3,0,0,1-.65.31l-.18,0a3.47,3.47,0,0,1-.9.14,5.51,5.51,0,0,1-1.12-.07,2.07,2.07,0,0,1-.61-.31L158,157a2.39,2.39,0,0,1-.42-.31,3.81,3.81,0,0,0-.36-.3,3,3,0,0,0-.57-.28,3.61,3.61,0,0,1-.44-.21,7.14,7.14,0,0,0-1-.47,6.09,6.09,0,0,0-1.15-.26l-.31-.06a3.83,3.83,0,0,0-.89-.12h-.3a5.59,5.59,0,0,0-.93,0,4.55,4.55,0,0,0-1,.28l-.19.07-.22.08a5.43,5.43,0,0,0-.85.36c-.27.17-.52.34-.76.51l-.13.09-.08.05,0,0a2,2,0,0,0,.24.9l.18.15a.53.53,0,0,0,.79.1l.14-.11.13-.09c.29-.2.6-.38.88-.54a3.93,3.93,0,0,1,1-.41,2,2,0,0,1,.6,0,4.41,4.41,0,0,0,.52,0,4.71,4.71,0,0,1,1.06.09,4,4,0,0,1,1,.35,2.34,2.34,0,0,1,.4.32,2.2,2.2,0,0,0,.36.3c.27.2.59.38.89.56l0,0a2.21,2.21,0,0,0,.7.22c.16,0,.31.07.45.12l.23.09a4.37,4.37,0,0,0,.88.27A8.11,8.11,0,0,0,160,159a3.73,3.73,0,0,0,.87-.12l.32-.06a3.29,3.29,0,0,1,.44-.05,2.82,2.82,0,0,0,.77-.13,3.54,3.54,0,0,0,.7-.38l.26-.18.43-.21a2.47,2.47,0,0,0,.56-.29l.33-.24a3.91,3.91,0,0,1,.48-.35l.09,0a3,3,0,0,1,.84-.38,4.67,4.67,0,0,1,1.1-.16,4.31,4.31,0,0,1,1,.15l.28.06.12,0,.29.06a.93.93,0,0,0,.15.13l.5.31c.21.13.42.26.59.39l.22.16c.25.19.49.37.76.54l.32.19.22.16a.71.71,0,0,0,.43.14l.18.07.36.16a2.78,2.78,0,0,0,.91.32,7.89,7.89,0,0,0,1.11,0h.43a8,8,0,0,0,1.13,0,6.39,6.39,0,0,0,1.2-.31,2.44,2.44,0,0,0,.65-.39l.3-.2.25-.14c.24-.14.46-.27.67-.42a3.76,3.76,0,0,1,.56-.3l.36-.19.23-.13a2.06,2.06,0,0,1,.65-.31l.17,0a3.43,3.43,0,0,1,.4-.09c.07,0,.19-.31.19-.31a.64.64,0,0,0,0-.15c0-.22.09-.49,0-.64s-.29-.18-.45-.26"/><path class="cls-1" d="M181.25,159.18c-.07-.05-.19,0-.28,0a7.78,7.78,0,0,0-1.13.26,2.39,2.39,0,0,0-.64.36l-.27.18-.26.14c-.22.12-.44.24-.63.37a7,7,0,0,1-.8.48,3.19,3.19,0,0,1-.9.28l-.28.07a3,3,0,0,1-.71.11,4.44,4.44,0,0,1-.75-.07l-.37,0-.17,0a4.52,4.52,0,0,1-.9-.13,2.76,2.76,0,0,1-.66-.29l-.26-.14-.23-.1-.48-.32a2.14,2.14,0,0,0-.54-.23l-.55-.35-.06,0,0,0a.77.77,0,0,0-.53-.13,2.3,2.3,0,0,0-.5-.23,7.74,7.74,0,0,0-1.27-.24,3,3,0,0,0-.73,0,3.68,3.68,0,0,1-.56.06,2.73,2.73,0,0,1-.49-.06,2.57,2.57,0,0,0-.68,0,2.38,2.38,0,0,0-.74.26,2.58,2.58,0,0,1-.31.13,2.47,2.47,0,0,1-.36.11,3,3,0,0,0-.69.25,2.63,2.63,0,0,0-.5.39,3,3,0,0,1-.27.23,3.81,3.81,0,0,1-.56.31l-.29.14a3.25,3.25,0,0,1-.91.27l-.11,0a3.85,3.85,0,0,1-.88.11,4.19,4.19,0,0,1-1.06-.14,3.61,3.61,0,0,1-.94-.37,3.23,3.23,0,0,0-.42-.2,3.06,3.06,0,0,1-.54-.28,2.38,2.38,0,0,1-.31-.26,3.47,3.47,0,0,0-.5-.39,5.66,5.66,0,0,0-1-.42l-.08,0-.31-.13a2.89,2.89,0,0,0-.8-.28,8.18,8.18,0,0,0-1.25-.06,6.78,6.78,0,0,0-1.08.11l-.14,0-.38.05a3.68,3.68,0,0,0-.84.16,2,2,0,0,0-.6.4,2,2,0,0,1-.3.23c-.28.17-.56.35-.85.56a1.5,1.5,0,0,0,0,1,.89.89,0,0,0,1.12.15l.09-.05.1-.07a2.59,2.59,0,0,0,.38-.35,1.23,1.23,0,0,1,.34-.31,3.65,3.65,0,0,1,1-.39,4.79,4.79,0,0,1,1.11-.16,4.12,4.12,0,0,1,1,.17h.06a3.94,3.94,0,0,1,1,.37,9,9,0,0,1,.85.57,2.34,2.34,0,0,1,.31.24,4.4,4.4,0,0,0,.52.39l.2.12a4.39,4.39,0,0,0,.78.42,3,3,0,0,0,.78.13l.44.05a2.54,2.54,0,0,1,.38.11,2.48,2.48,0,0,0,.81.17,8.37,8.37,0,0,0,1.17-.1,2.83,2.83,0,0,0,.76-.24,2.58,2.58,0,0,1,.31-.13l.38-.11a2.94,2.94,0,0,0,.69-.23,2.13,2.13,0,0,0,.47-.41,2,2,0,0,1,.26-.25,4.63,4.63,0,0,1,.54-.29l.32-.15.24-.14a1.79,1.79,0,0,1,.61-.28,1.63,1.63,0,0,1,.46,0,3.34,3.34,0,0,0,.58.06h.42a3.83,3.83,0,0,1,.77,0l.29,0a3.61,3.61,0,0,1,.87.18,4.68,4.68,0,0,1,.64.38l.29.19c.14.09.28.16.43.24l.25.13.25.15.07,0c.13.1.28.19.43.29l.26.17.72.2.1,0a3.69,3.69,0,0,0,.82.06H174l.44.07a6.82,6.82,0,0,0,1,.09,8.24,8.24,0,0,0,1.07-.09h.07a6.73,6.73,0,0,0,1.12-.22,3.3,3.3,0,0,0,.68-.36c.08,0,.16-.11.24-.15a2,2,0,0,1,.45-.18,2.5,2.5,0,0,0,.55-.25l.1-.07a4.46,4.46,0,0,1,.67-.43l.13-.07a2.37,2.37,0,0,1,.67-.28c.14-.19.44-.43.44-.56a3.88,3.88,0,0,0-.29-1"/><path class="cls-1" d="M181.87,152.53l-.11-.32a3.06,3.06,0,0,1-.2-.63l-.32-.11-.27,0a3,3,0,0,0-.77.25,1.88,1.88,0,0,1-.3.12,3.18,3.18,0,0,1-.38.11,3,3,0,0,0-.69.24,1.93,1.93,0,0,0-.47.4,1.5,1.5,0,0,1-.26.25,2.89,2.89,0,0,1-.55.29l-.31.16-.24.14a1.86,1.86,0,0,1-.61.27,1.27,1.27,0,0,1-.46,0,3.41,3.41,0,0,0-.58-.07h-.42a4.88,4.88,0,0,1-.78,0l-.28,0a4.15,4.15,0,0,1-.87-.19,3.33,3.33,0,0,1-.65-.38l-.29-.19-.42-.23-.25-.13-.26-.16-.06,0-.43-.29-.33-.22a.78.78,0,0,0-.75-.12,3.21,3.21,0,0,0-.82,0,5.62,5.62,0,0,1-.58,0c-.15,0-.3,0-.45-.06a6.53,6.53,0,0,0-1-.09,8.09,8.09,0,0,0-1.07.09h-.08a7.17,7.17,0,0,0-1.12.22,2.64,2.64,0,0,0-.67.36l-.25.15a2.89,2.89,0,0,1-.44.18,2.31,2.31,0,0,0-.55.25l-.1.07a6.9,6.9,0,0,1-.67.43l-.14.07a2.34,2.34,0,0,1-.7.29,5.15,5.15,0,0,1-1,.07,5.28,5.28,0,0,1-1-.09,2.69,2.69,0,0,1-.85-.33,3.69,3.69,0,0,0-.42-.17,2.24,2.24,0,0,1-.49-.22l-.27-.21a3.18,3.18,0,0,0-.52-.38l-.27-.18a2.64,2.64,0,0,0-.65-.36,3,3,0,0,0-.75-.12l-.41,0a9.15,9.15,0,0,0-1.14-.07l-.5,0a5.75,5.75,0,0,0-.83,0,7.19,7.19,0,0,0-1,.21l-.27.08a4,4,0,0,0-.86.34l-.29.13,0,0a5.57,5.57,0,0,0-1,.5.57.57,0,0,1,0,.14,2.18,2.18,0,0,0,.2.61l0,0,0,.05a1.14,1.14,0,0,0,.15.23.87.87,0,0,0,.27.14.7.7,0,0,0,.66-.1,3.81,3.81,0,0,1,.84-.37l.24-.08A4.77,4.77,0,0,1,152,153l.45-.09a3.6,3.6,0,0,1,.8-.12,4.72,4.72,0,0,1,.83.12l.19,0a3.09,3.09,0,0,1,.9.32,3.73,3.73,0,0,1,.48.33l.27.2a5.46,5.46,0,0,0,.54.3l.37.19a2.34,2.34,0,0,1,.27.2,1.92,1.92,0,0,0,.61.38,2.84,2.84,0,0,0,.72.09c.15,0,.31,0,.46,0a7.47,7.47,0,0,0,1.13.09l.45,0a2.89,2.89,0,0,0,.72,0,5.56,5.56,0,0,0,1.12-.26,2.35,2.35,0,0,0,.65-.36l.27-.17.25-.14a6.17,6.17,0,0,0,.63-.38,9,9,0,0,1,.81-.48,3.2,3.2,0,0,1,.9-.27L166,153a2.65,2.65,0,0,1,.72-.11,5.69,5.69,0,0,1,.74.06l.37.05h.18a5.39,5.39,0,0,1,.9.13,3.27,3.27,0,0,1,.66.3l.26.14.23.1.48.32a2,2,0,0,0,.54.22l.55.36.06,0h0a.75.75,0,0,0,.53.14,1.83,1.83,0,0,0,.49.22,9.21,9.21,0,0,0,1.27.25,3,3,0,0,0,.74-.05,5.07,5.07,0,0,1,.56,0,4.28,4.28,0,0,1,.49,0l.13,0c.6-.17,1.2-.28,1.8-.48.37-.12.73-.26,1.09-.41a1.86,1.86,0,0,0,.25-.22,1.89,1.89,0,0,1,.28-.23,3.81,3.81,0,0,1,.56-.31l.29-.14a3.25,3.25,0,0,1,.91-.27l.11,0,.18,0a2.53,2.53,0,0,0,.43-.5v0"/><rect class="cls-1" x="190.87" y="155.86" width="84.92" height="1.22"/><rect class="cls-1" x="54.18" y="155.86" width="84.06" height="1.22"/><path class="cls-1" d="M47.38,129a15.88,15.88,0,0,1,.53-4.12,10.65,10.65,0,0,1,1.61-3.49,8.08,8.08,0,0,1,2.7-2.43A7.71,7.71,0,0,1,56,118a10.16,10.16,0,0,1,2.23.25,8.68,8.68,0,0,1,2.15.74,8.09,8.09,0,0,1,1.85,1.24A5.79,5.79,0,0,1,63.6,122a5.42,5.42,0,0,1-.88.91,10.77,10.77,0,0,1-.95.69,8.75,8.75,0,0,1-.9.53,6,6,0,0,0-.69.44,3.23,3.23,0,0,0-1.54-1.74,4.89,4.89,0,0,0-2.07-.44,4.55,4.55,0,0,0-2.17.47A3.39,3.39,0,0,0,53,124.22a5.72,5.72,0,0,0-.7,2,15.9,15.9,0,0,0-.2,2.58,18.31,18.31,0,0,0,.12,2,6.12,6.12,0,0,0,.56,2,3.89,3.89,0,0,0,1.29,1.5,4,4,0,0,0,2.31.59,4.08,4.08,0,0,0,1.32-.19,3.28,3.28,0,0,0,1-.58,5.32,5.32,0,0,0,.87-.94c.27-.37.58-.8.92-1.29a4.07,4.07,0,0,1,1.8.53c.62.34,1.17.64,1.66.93a9.28,9.28,0,0,1-1,2.26,7.22,7.22,0,0,1-1.67,1.86A8,8,0,0,1,59,138.76a9,9,0,0,1-3,.47,8.6,8.6,0,0,1-3.71-.77,7.73,7.73,0,0,1-2.72-2.14,9.49,9.49,0,0,1-1.65-3.25A14.34,14.34,0,0,1,47.38,129Z"/><path class="cls-1" d="M82.53,139.26a8.92,8.92,0,0,1-4.14-.88A7.52,7.52,0,0,1,75.6,136,9.89,9.89,0,0,1,74,132.53a16.93,16.93,0,0,1-.49-4.13,12.34,12.34,0,0,1,.55-3.59,11,11,0,0,1,1.6-3.32,8.89,8.89,0,0,1,2.61-2.43,6.75,6.75,0,0,1,3.55-.94,8.83,8.83,0,0,1,4,.84,8.38,8.38,0,0,1,2.85,2.24,9.42,9.42,0,0,1,1.73,3.31,13.85,13.85,0,0,1,.58,4,14.4,14.4,0,0,1-.52,3.82,11.27,11.27,0,0,1-1.56,3.45,8.43,8.43,0,0,1-2.64,2.51A7.19,7.19,0,0,1,82.53,139.26ZM82.28,135a3.87,3.87,0,0,0,2.22-.6,4.5,4.5,0,0,0,1.39-1.55,6.71,6.71,0,0,0,.72-2.09,13.49,13.49,0,0,0,.19-2.25,13.31,13.31,0,0,0-.18-2.13,6.39,6.39,0,0,0-.67-2,4.07,4.07,0,0,0-1.33-1.52,3.64,3.64,0,0,0-2.15-.59,3.71,3.71,0,0,0-2.4.73,4.75,4.75,0,0,0-1.41,1.83,8.54,8.54,0,0,0-.67,2.43,19.89,19.89,0,0,0-.16,2.47,6.76,6.76,0,0,0,.28,1.95,5.53,5.53,0,0,0,.85,1.7,4.26,4.26,0,0,0,1.4,1.2A4,4,0,0,0,82.28,135Z"/><path class="cls-1" d="M102.21,118.52q.63-.06,1.32-.09l1.32,0a9,9,0,0,1,1.27.09c.16,1.84.24,3.68.24,5.53v8.16c0,.86,0,1.73.06,2.62q2.07.09,4.14,0a31.12,31.12,0,0,1,4.11.15,10.41,10.41,0,0,1,.17,1.43c0,.55,0,1,0,1.43a5.55,5.55,0,0,1-.09,1c-.6.06-1.21.09-1.82.09h-5.35a53.06,53.06,0,0,1-5.35-.23c-.14-1.47-.23-3-.26-4.5s0-3.06,0-4.59,0-3.07.09-4.6.06-3,.06-4.5Z"/><path class="cls-1" d="M125,118.52q.64-.06,1.32-.09l1.32,0a9.18,9.18,0,0,1,1.28.09c.16,1.84.24,3.68.24,5.53v8.16c0,.86,0,1.73.06,2.62q2.06.09,4.14,0a31.25,31.25,0,0,1,4.11.15,12.24,12.24,0,0,1,.17,1.43c0,.55,0,1,0,1.43a5.55,5.55,0,0,1-.09,1c-.61.06-1.21.09-1.82.09h-5.35a53.26,53.26,0,0,1-5.36-.23c-.14-1.47-.22-3-.25-4.5s0-3.06,0-4.59,0-3.07.09-4.6.06-3,.06-4.5Z"/><path class="cls-1" d="M156.22,138.93c-1.34,0-2.73,0-4.19.1a17.51,17.51,0,0,1-4.09-.25,38.69,38.69,0,0,1-.27-4.2c0-1.51,0-3.05,0-4.61s.05-3.12.1-4.66.08-3,.08-4.34l.06-2.45c.4,0,.81-.07,1.21-.08h10.44l1.45.06c.06.6.09,1.22.09,1.85v.86a6.36,6.36,0,0,1-.06.87l-.82.07a7.67,7.67,0,0,1-.82,0c-1.21,0-2.42,0-3.62-.06a20,20,0,0,0-3.62.21,2.44,2.44,0,0,0-.07.59v.59l0,3a21,21,0,0,0,3.16.08c1,0,2.19-.08,3.49-.08,0,0,.07.07.1.2l.11.44-.18,2.55a.25.25,0,0,1-.17.23,1.83,1.83,0,0,1-.41.12,4.08,4.08,0,0,1-.53.06h-3c-.86,0-1.7,0-2.5,0l-.07,1.67v2.73a4.1,4.1,0,0,0,1.7.41,23.63,23.63,0,0,0,2.4,0c.85,0,1.7-.06,2.55-.11a15.26,15.26,0,0,1,2.18,0,9.41,9.41,0,0,1,.12,1q0,.5,0,1a7.7,7.7,0,0,1-.06,1l-.12,1Z"/><path class="cls-1" d="M171,129a15.46,15.46,0,0,1,.53-4.12,10.65,10.65,0,0,1,1.61-3.49,8.14,8.14,0,0,1,2.69-2.43,7.75,7.75,0,0,1,3.81-.91,10.16,10.16,0,0,1,2.23.25A8.82,8.82,0,0,1,184,119a8.09,8.09,0,0,1,1.85,1.24,5.79,5.79,0,0,1,1.35,1.78,5.42,5.42,0,0,1-.88.91,10.77,10.77,0,0,1-1,.69,10,10,0,0,1-.9.53,6,6,0,0,0-.69.44,3.23,3.23,0,0,0-1.54-1.74,4.93,4.93,0,0,0-2.07-.44,4.53,4.53,0,0,0-2.17.47,3.48,3.48,0,0,0-1.37,1.32,5.92,5.92,0,0,0-.69,2,14.85,14.85,0,0,0-.2,2.58,18.31,18.31,0,0,0,.12,2,6.12,6.12,0,0,0,.56,2,3.73,3.73,0,0,0,1.29,1.5,3.92,3.92,0,0,0,2.3.59,4,4,0,0,0,1.32-.19,3.22,3.22,0,0,0,1-.58,4.93,4.93,0,0,0,.86-.94q.42-.56.93-1.29a4.07,4.07,0,0,1,1.8.53c.62.34,1.17.64,1.66.93a9.28,9.28,0,0,1-1,2.26,7.41,7.41,0,0,1-1.67,1.86,8,8,0,0,1-2.34,1.26,9,9,0,0,1-3,.47,8.6,8.6,0,0,1-3.71-.77,7.64,7.64,0,0,1-2.72-2.14,9.32,9.32,0,0,1-1.65-3.25A14,14,0,0,1,171,129Z"/><path class="cls-1" d="M201.86,138.87a15,15,0,0,1-.09-1.64c0-2.45,0-4.88,0-7.31s0-4.86-.19-7.31c-.85,0-1.7-.06-2.55-.07s-1.7,0-2.55-.08c0-.46-.07-.91-.1-1.35s0-.88,0-1.35c0-.22,0-.43,0-.64a4.09,4.09,0,0,1,.07-.6q2.58-.15,5.16-.15h5.15c.73,0,1.46,0,2.19,0s1.45.1,2.18.2a6.18,6.18,0,0,1,.2,1.44c0,.5,0,1,0,1.44l-.06.94-1.3.06q-1.06,0-2.07,0a18,18,0,0,0-2.06.06c-.08,1.34-.1,2.69-.07,4.06s.06,2.75.1,4.11.06,2.73.06,4.08a34,34,0,0,1-.24,4,5.87,5.87,0,0,1-1.38.13H203Z"/><path class="cls-1" d="M225.54,138.9h-3.09l-.36,0-.37-.06q-.06-.67-.09-1.32t0-1.32V121.31c0-.47,0-.93,0-1.4s.05-.93.09-1.39l1.09-.09c.37,0,.73,0,1.1,0l1.91.06a1,1,0,0,1,.24.06l.18.06q0,5,0,10.16t-.18,10.13Z"/><path class="cls-1" d="M246.23,139.26a8.92,8.92,0,0,1-4.14-.88A7.52,7.52,0,0,1,239.3,136a10.09,10.09,0,0,1-1.57-3.47,17.43,17.43,0,0,1-.48-4.13,12.34,12.34,0,0,1,.55-3.59,11,11,0,0,1,1.6-3.32,8.89,8.89,0,0,1,2.61-2.43,6.75,6.75,0,0,1,3.55-.94,8.86,8.86,0,0,1,4,.84,8.38,8.38,0,0,1,2.85,2.24,9.42,9.42,0,0,1,1.73,3.31,13.85,13.85,0,0,1,.58,4,14.83,14.83,0,0,1-.52,3.82,11.27,11.27,0,0,1-1.56,3.45,8.43,8.43,0,0,1-2.64,2.51A7.19,7.19,0,0,1,246.23,139.26ZM246,135a3.87,3.87,0,0,0,2.22-.6,4.5,4.5,0,0,0,1.39-1.55,6.71,6.71,0,0,0,.72-2.09,13.49,13.49,0,0,0,.19-2.25,13.31,13.31,0,0,0-.18-2.13,6.39,6.39,0,0,0-.67-2,4.16,4.16,0,0,0-1.33-1.52,4.26,4.26,0,0,0-4.55.14,4.75,4.75,0,0,0-1.41,1.83,8.54,8.54,0,0,0-.67,2.43,19.89,19.89,0,0,0-.16,2.47,6.76,6.76,0,0,0,.28,1.95,5.32,5.32,0,0,0,.85,1.7,4.26,4.26,0,0,0,1.4,1.2A4,4,0,0,0,246,135Z"/><path class="cls-1" d="M280.62,138.87q-1.15,0-2.28,0a19.48,19.48,0,0,1-2.27-.19c-.59-1.15-1.16-2.28-1.72-3.39s-1.08-2.24-1.59-3.38-1-2.3-1.38-3.48-.77-2.38-1.08-3.64h-.18l0,3.77c0,1.71,0,3.43.12,5.14a36.84,36.84,0,0,1-.12,5.14,5.56,5.56,0,0,1-1,.09h-2.88l-.45,0c-.05-.85-.08-1.7-.09-2.54s0-1.68,0-2.53v-9.22c0-1,0-2,0-3.07s0-2.05.08-3.08l1.79,0h2.12a6.18,6.18,0,0,1,1,.09l1.05.15c.51,1.21,1,2.43,1.59,3.65s1.11,2.45,1.65,3.67,1.07,2.45,1.57,3.67.93,2.45,1.32,3.69h.21l.06-2.14c0-.72,0-1.43,0-2.14,0-1.76,0-3.51-.11-5.25s-.05-3.48.05-5.24a7.18,7.18,0,0,1,1-.12l1,0h1.09a7.17,7.17,0,0,1,1.06.11c.13,1.31.2,2.66.23,4s0,2.76,0,4.14,0,2.77,0,4.14,0,2.73,0,4.06v2c0,.66,0,1.32,0,2Z"/></g></svg>