<?xml version="1.0" encoding="utf-8"?>
<!-- Generator: Adobe Illustrator 24.2.3, SVG Export Plug-In . SVG Version: 6.00 Build 0)  -->
<svg version="1.1" id="Layer_1" xmlns="http://www.w3.org/2000/svg" xmlns:xlink="http://www.w3.org/1999/xlink" x="0px" y="0px"
	 viewBox="0 0 970 250" style="enable-background:new 0 0 970 250;" xml:space="preserve">
<style type="text/css">
	.st0{enable-background:new    ;}
	.st1{fill:#FFFFFF;}
</style>
<g id="Overlays">
	<g class="st0">
		<path class="st1" d="M863,194.3l8.6-7.7c0.4-0.4,0.9-0.8,1.3-1.3s0.7-1.1,0.7-1.8c0-0.8-0.3-1.3-0.8-1.8c-0.5-0.4-1.2-0.6-1.9-0.6
			c-0.9,0-1.6,0.3-2.1,0.8c-0.5,0.5-0.8,1.2-0.8,2l-4.7-0.3c0.1-1.1,0.3-2.1,0.7-3c0.4-0.8,1-1.6,1.7-2.1s1.5-1,2.4-1.3
			c0.9-0.3,1.9-0.4,3-0.4c1,0,1.9,0.1,2.8,0.4c0.9,0.3,1.6,0.7,2.3,1.3c0.6,0.6,1.2,1.2,1.5,2.1c0.4,0.8,0.5,1.8,0.5,2.9
			c0,0.7-0.1,1.4-0.2,1.9s-0.3,1.1-0.6,1.6c-0.3,0.5-0.6,0.9-0.9,1.3s-0.7,0.8-1.2,1.2l-6.7,5.8h9.8v4.1H863V194.3z"/>
		<path class="st1" d="M881,188.2c0-1.3,0.1-2.7,0.4-4c0.2-1.4,0.7-2.6,1.3-3.7c0.6-1.1,1.5-2,2.5-2.7c1.1-0.7,2.4-1,4.1-1
			c1.6,0,3,0.3,4.1,1c1.1,0.7,1.9,1.6,2.5,2.7s1,2.3,1.3,3.7c0.2,1.4,0.4,2.7,0.4,4c0,1.3-0.1,2.7-0.4,4s-0.7,2.6-1.3,3.7
			s-1.5,2-2.5,2.7c-1.1,0.7-2.4,1.1-4.1,1.1c-1.7,0-3-0.3-4.1-1.1c-1.1-0.7-1.9-1.6-2.5-2.7c-0.6-1.1-1-2.3-1.3-3.7
			S881,189.5,881,188.2z M885.7,188.2c0,0.6,0,1.3,0.1,2.1c0.1,0.8,0.2,1.6,0.4,2.4c0.2,0.8,0.6,1.4,1,1.9c0.5,0.5,1.1,0.8,2,0.8
			c0.8,0,1.5-0.3,2-0.8c0.5-0.5,0.8-1.2,1.1-1.9c0.2-0.8,0.4-1.5,0.4-2.4c0.1-0.8,0.1-1.5,0.1-2.1c0-0.6,0-1.3-0.1-2.1
			c-0.1-0.8-0.2-1.6-0.4-2.3c-0.2-0.8-0.6-1.4-1.1-1.9c-0.5-0.5-1.1-0.8-2-0.8c-0.9,0-1.5,0.3-2,0.8c-0.5,0.5-0.8,1.2-1,1.9
			c-0.2,0.8-0.4,1.5-0.4,2.3C885.8,186.9,885.7,187.6,885.7,188.2z"/>
		<path class="st1" d="M899.6,188.2c0-1.3,0.1-2.7,0.4-4c0.2-1.4,0.7-2.6,1.3-3.7c0.6-1.1,1.5-2,2.5-2.7c1.1-0.7,2.4-1,4.1-1
			c1.6,0,3,0.3,4.1,1c1.1,0.7,1.9,1.6,2.5,2.7s1,2.3,1.3,3.7c0.2,1.4,0.4,2.7,0.4,4c0,1.3-0.1,2.7-0.4,4s-0.7,2.6-1.3,3.7
			s-1.5,2-2.5,2.7c-1.1,0.7-2.4,1.1-4.1,1.1c-1.7,0-3-0.3-4.1-1.1c-1.1-0.7-1.9-1.6-2.5-2.7c-0.6-1.1-1-2.3-1.3-3.7
			S899.6,189.5,899.6,188.2z M904.3,188.2c0,0.6,0,1.3,0.1,2.1c0.1,0.8,0.2,1.6,0.4,2.4c0.2,0.8,0.6,1.4,1,1.9
			c0.5,0.5,1.1,0.8,2,0.8c0.8,0,1.5-0.3,2-0.8c0.5-0.5,0.8-1.2,1.1-1.9c0.2-0.8,0.4-1.5,0.4-2.4c0.1-0.8,0.1-1.5,0.1-2.1
			c0-0.6,0-1.3-0.1-2.1c-0.1-0.8-0.2-1.6-0.4-2.3c-0.2-0.8-0.6-1.4-1.1-1.9c-0.5-0.5-1.1-0.8-2-0.8c-0.9,0-1.5,0.3-2,0.8
			c-0.5,0.5-0.8,1.2-1,1.9c-0.2,0.8-0.4,1.5-0.4,2.3C904.3,186.9,904.3,187.6,904.3,188.2z"/>
	</g>
</g>
</svg>
