<svg id="Layer_1" data-name="Layer 1" xmlns="http://www.w3.org/2000/svg" xmlns:xlink="http://www.w3.org/1999/xlink" viewBox="0 0 728 90"><defs><style>.cls-1{fill:none;}.cls-2{clip-path:url(#clip-path);}.cls-3{fill:#009970;}</style><clipPath id="clip-path"><rect class="cls-1" width="728" height="90"/></clipPath></defs><g class="cls-2"><g class="cls-2"><path class="cls-3" d="M27.76,70.15,30,61.93h2.53L29.17,73.51H26.56L24.5,65.45l-2.06,8.06H19.83L16.47,61.93h2.61l2.24,8.22,2-8.22h2.38Z"/><path class="cls-3" d="M35.92,60a1.59,1.59,0,1,1,1.62-1.59A1.63,1.63,0,0,1,35.92,60Zm1.31,13.48H34.62V61.93h2.61Z"/><path class="cls-3" d="M44.45,73.51H41.84V64.1H39.49V61.93h2.35v-3.1h2.61v3.1h2.6V64.1h-2.6Z"/><path class="cls-3" d="M49.35,56.56H52V63a4.08,4.08,0,0,1,3.13-1.36c2.6,0,4.09,1.72,4.09,4.3v7.54H56.57V66.42c0-1.44-.7-2.38-2.19-2.38A2.45,2.45,0,0,0,52,65.9v7.61H49.35Z"/><path class="cls-3" d="M70.89,64.46l6.41-7h3.37l-7.23,7.67,7.46,8.34H77.46l-6.57-7.33v7.33H68.17v-16h2.72Z"/><path class="cls-3" d="M84.21,60a1.59,1.59,0,1,1,1.62-1.59A1.63,1.63,0,0,1,84.21,60Zm1.3,13.48h-2.6V61.93h2.6Z"/><path class="cls-3" d="M98.89,70.15l2.24-8.22h2.53L100.3,73.51H97.69l-2.06-8.06-2.06,8.06H91L87.6,61.93h2.61l2.24,8.22,2-8.22h2.38Z"/><path class="cls-3" d="M107.05,60a1.59,1.59,0,1,1,1.62-1.59A1.62,1.62,0,0,1,107.05,60Zm1.31,13.48h-2.61V61.93h2.61Z"/><path class="cls-3" d="M127,57.5l3,11.79,2.89-11.79h2.61l-4.12,16h-2.5l-3-11.45-3.07,11.45H120.3l-4.12-16h2.66l2.89,11.79,3-11.79Z"/><path class="cls-3" d="M141.86,73.77c-3.36,0-5.74-2.32-5.74-5.94s2.25-6.16,5.32-6.16,4.88,2.27,4.88,5.69v.93h-7.64a3.28,3.28,0,0,0,3.55,3.24,5.41,5.41,0,0,0,3.31-1.07v2.29A6.08,6.08,0,0,1,141.86,73.77Zm-3.05-7.46h5a2.33,2.33,0,0,0-2.37-2.45A2.7,2.7,0,0,0,138.81,66.31Z"/><path class="cls-3" d="M155.21,66.1c0-1.3-1-2.06-2.66-2.06a5.69,5.69,0,0,0-3.21,1v-2.4a6.93,6.93,0,0,1,3.68-1c3,0,4.69,1.62,4.69,4.25v7.59h-2.5v-.65a4.69,4.69,0,0,1-2.84.86c-2.4,0-4.33-1.46-4.33-3.78s2-3.73,4.51-3.73a5.39,5.39,0,0,1,2.66.7Zm0,3.37a2.49,2.49,0,0,0-2.35-1.18c-1.19,0-2.39.53-2.39,1.65s1.2,1.67,2.39,1.67a2.49,2.49,0,0,0,2.35-1.18Z"/><path class="cls-3" d="M163.4,73.51h-2.61v-17h2.61Z"/><path class="cls-3" d="M170.62,73.51H168V64.1h-2.34V61.93H168v-3.1h2.61v3.1h2.61V64.1h-2.61Z"/><path class="cls-3" d="M175.52,56.56h2.61V63a4.09,4.09,0,0,1,3.13-1.36c2.61,0,4.09,1.72,4.09,4.3v7.54h-2.6V66.42c0-1.44-.71-2.38-2.19-2.38a2.46,2.46,0,0,0-2.43,1.86v7.61h-2.61Z"/><path class="cls-3" d="M202,70.07l-5-7.77V73.51h-2.66v-16h2.53l5.19,8.34,5.16-8.34h2.43v16H207V62.3l-4.91,7.77Z"/><path class="cls-3" d="M219.46,66.1c0-1.3-1-2.06-2.66-2.06a5.69,5.69,0,0,0-3.21,1v-2.4a6.91,6.91,0,0,1,3.68-1c3,0,4.69,1.62,4.69,4.25v7.59h-2.5v-.65a4.69,4.69,0,0,1-2.84.86c-2.4,0-4.33-1.46-4.33-3.78s2-3.73,4.51-3.73a5.39,5.39,0,0,1,2.66.7Zm0,3.37a2.5,2.5,0,0,0-2.35-1.18c-1.2,0-2.4.53-2.4,1.65s1.2,1.67,2.4,1.67a2.5,2.5,0,0,0,2.35-1.18Z"/><path class="cls-3" d="M225,61.93h2.61V63a4.07,4.07,0,0,1,3.12-1.36c2.61,0,4.1,1.72,4.1,4.3v7.54h-2.61V66.42c0-1.44-.7-2.38-2.19-2.38a2.45,2.45,0,0,0-2.42,1.86v7.61H225Z"/><path class="cls-3" d="M244.36,66.1c0-1.3-1-2.06-2.66-2.06a5.69,5.69,0,0,0-3.21,1v-2.4a6.93,6.93,0,0,1,3.68-1c3,0,4.69,1.62,4.69,4.25v7.59h-2.5v-.65a4.69,4.69,0,0,1-2.84.86c-2.4,0-4.33-1.46-4.33-3.78s1.95-3.73,4.51-3.73a5.39,5.39,0,0,1,2.66.7Zm0,3.37A2.49,2.49,0,0,0,242,68.29c-1.2,0-2.4.53-2.4,1.65s1.2,1.67,2.4,1.67a2.49,2.49,0,0,0,2.35-1.18Z"/><path class="cls-3" d="M257.4,72.36a4,4,0,0,1-2.92,1.2c-3.37,0-5.35-2.81-5.35-5.94s2-6,5.35-6a4,4,0,0,1,2.92,1.2v-.94H260V72.54c0,4.13-3.07,5.66-5.94,5.66a7.22,7.22,0,0,1-3.86-1V74.45a5.35,5.35,0,0,0,3.86,1.46,3.1,3.1,0,0,0,3.34-3.18Zm0-7A3,3,0,0,0,254.92,64c-2,0-3.16,1.53-3.16,3.65s1.15,3.65,3.16,3.65a2.94,2.94,0,0,0,2.48-1.39Z"/><path class="cls-3" d="M268.17,73.77c-3.37,0-5.74-2.32-5.74-5.94s2.24-6.16,5.32-6.16,4.87,2.27,4.87,5.69v.93H265a3.29,3.29,0,0,0,3.55,3.24,5.37,5.37,0,0,0,3.31-1.07v2.29A6.07,6.07,0,0,1,268.17,73.77Zm-3.06-7.46h5a2.34,2.34,0,0,0-2.38-2.45A2.71,2.71,0,0,0,265.11,66.31Z"/><path class="cls-3" d="M282.61,72.52a3.88,3.88,0,0,1-2.95,1.25c-3.36,0-5.37-2.69-5.37-6s2-6,5.37-6a3.88,3.88,0,0,1,2.95,1.25V56.56h2.61v17h-2.61Zm0-7a2.82,2.82,0,0,0-2.5-1.54c-2,0-3.21,1.59-3.21,3.73s1.22,3.73,3.21,3.73a2.82,2.82,0,0,0,2.5-1.54Z"/><path class="cls-3" d="M294.37,73.51v-16h10.22v2.4h-7.51v4.74h7V67h-7v6.49Z"/><path class="cls-3" d="M316.35,73.51h-2.61v-1.1a4.06,4.06,0,0,1-3.1,1.36c-2.63,0-4.07-1.72-4.07-4.3V61.93h2.61V69c0,1.44.7,2.38,2.16,2.38a2.43,2.43,0,0,0,2.4-1.85V61.93h2.61Z"/><path class="cls-3" d="M319.58,61.93h2.61V63a4.09,4.09,0,0,1,3.13-1.36c2.61,0,4.1,1.72,4.1,4.3v7.54h-2.61V66.42c0-1.44-.71-2.38-2.19-2.38a2.47,2.47,0,0,0-2.43,1.86v7.61h-2.61Z"/><path class="cls-3" d="M340,72.52a3.9,3.9,0,0,1-2.95,1.25c-3.36,0-5.37-2.69-5.37-6s2-6,5.37-6A3.9,3.9,0,0,1,340,62.92V56.56h2.61v17H340Zm0-7A2.82,2.82,0,0,0,337.5,64c-2,0-3.21,1.59-3.21,3.73s1.22,3.73,3.21,3.73a2.82,2.82,0,0,0,2.5-1.54Z"/><path class="cls-3" d="M345.32,69.91a6,6,0,0,0,3.91,1.7c1.12,0,2-.4,2-1.23s-.57-1-1.54-1.36l-1.25-.39c-2-.62-3.13-1.51-3.13-3.49s1.88-3.47,4.35-3.47a6.28,6.28,0,0,1,3.47,1v2.63a5.21,5.21,0,0,0-3.47-1.49c-1,0-1.85.45-1.85,1.2s.45,1,1.49,1.33l1.51.47c1.93.63,2.95,1.65,2.95,3.42,0,2.22-2,3.52-4.57,3.52a6.34,6.34,0,0,1-3.88-1.2Z"/><path class="cls-3" d="M357.34,70.09a1.8,1.8,0,1,1-1.77,1.8A1.77,1.77,0,0,1,357.34,70.09Z"/></g></g></svg>