<?xml version="1.0" encoding="UTF-8"?>
<svg id="Layer_2" data-name="Layer 2" xmlns="http://www.w3.org/2000/svg" xmlns:xlink="http://www.w3.org/1999/xlink" viewBox="0 0 300 600">
  <defs>
    <style>
      .cls-1 {
        fill: none;
      }

      .cls-2 {
        fill: #fff;
      }

      .cls-3 {
        clip-path: url(#clippath);
      }
    </style>
    <clipPath id="clippath">
      <rect class="cls-1" width="300" height="600"/>
    </clipPath>
  </defs>
  <g id="Layer_1-2" data-name="Layer 1">
    <g class="cls-3">
      <g>
        <g>
          <path class="cls-2" d="M21.88,473.83l-4.06-12.42h2.07l3.9,12.03,3.92-12.03h2.05l-4.05,12.42h-3.83Z"/>
          <path class="cls-2" d="M33.94,474.01c-2.66,0-4.21-2.2-4.21-4.68s1.51-4.68,4.17-4.68,4.4,2.18,4.13,5.31h-6.36c.09,1.64,1.03,2.59,2.39,2.59,1.16,0,1.66-.79,1.87-1.51h1.94c-.37,1.78-1.76,2.97-3.94,2.97ZM31.69,468.5h4.4c-.12-1.46-.89-2.4-2.19-2.4s-2.08.94-2.21,2.4Z"/>
          <path class="cls-2" d="M39.93,473.83v-9h1.89v1.76h.04c.37-1.26,1.3-1.94,2.67-1.94v1.96h-.3c-1.66,0-2.35.49-2.35,2.12v5.1h-1.94Z"/>
          <path class="cls-2" d="M47.23,473.83l-1.89-9h1.96l1.76,8.43,1.6-8.43h3.42l1.6,8.43,1.78-8.43h1.94l-1.89,9h-3.55l-1.6-8.43-1.6,8.43h-3.55Z"/>
          <path class="cls-2" d="M64.71,474.01c-2.66,0-4.21-2.2-4.21-4.68s1.52-4.68,4.17-4.68,4.4,2.18,4.13,5.31h-6.36c.09,1.64,1.03,2.59,2.39,2.59,1.16,0,1.66-.79,1.87-1.51h1.94c-.37,1.78-1.76,2.97-3.94,2.97ZM62.47,468.5h4.4c-.12-1.46-.89-2.4-2.19-2.4s-2.09.94-2.21,2.4Z"/>
          <path class="cls-2" d="M70.7,473.83v-9h1.89v1.76h.04c.37-1.26,1.3-1.94,2.6-1.94,1.96,0,2.92,1.35,2.92,3.33v5.85h-1.94v-5.28c0-1.67-.59-2.43-1.78-2.43s-1.78.83-1.78,2.3v5.4h-1.94Z"/>
          <path class="cls-2" d="M83.73,474.01c-2.42,0-3.74-2.16-3.74-4.68s1.37-4.68,3.74-4.68c1.35,0,2.39.81,2.82,2.05h.05v-5.29h1.91v12.42h-1.91v-1.89h-.05c-.43,1.24-1.46,2.07-2.82,2.07ZM84.35,472.55c1.5,0,2.32-1.31,2.32-3.22s-.82-3.22-2.32-3.22-2.32,1.3-2.32,3.22.84,3.22,2.32,3.22Z"/>
          <path class="cls-2" d="M93.76,474.01c-1.98,0-2.94-1.35-2.94-3.33v-5.85h1.94v5.26c0,1.67.57,2.43,1.73,2.43s1.75-.83,1.75-2.3v-5.38h1.94v9h-1.89v-1.76h-.04c-.37,1.24-1.21,1.94-2.5,1.94Z"/>
          <path class="cls-2" d="M100.57,473.83v-9h1.89v1.76h.04c.37-1.26,1.3-1.94,2.6-1.94,1.96,0,2.92,1.35,2.92,3.33v5.85h-1.94v-5.28c0-1.67-.59-2.43-1.78-2.43s-1.78.83-1.78,2.3v5.4h-1.94Z"/>
          <path class="cls-2" d="M114.4,477.07c-2.17,0-3.78-.97-3.97-2.94h1.92c.18,1.12,1.1,1.48,2.05,1.48,1.19,0,2.09-.65,2.09-2.16v-1.87h-.05c-.43,1.24-1.46,2.07-2.82,2.07-2.37,0-3.74-1.98-3.74-4.5s1.37-4.5,3.74-4.5c1.35,0,2.39.81,2.82,2.05h.05v-1.87h1.91v8.57c0,2.4-1.66,3.67-3.99,3.67ZM114.24,472.19c1.46,0,2.32-1.13,2.32-3.04s-.86-3.04-2.32-3.04-2.32,1.12-2.32,3.04.86,3.04,2.32,3.04Z"/>
          <path class="cls-2" d="M128.63,474.01c-2.66,0-4.21-2.2-4.21-4.68s1.51-4.68,4.17-4.68,4.4,2.18,4.13,5.31h-6.36c.09,1.64,1.03,2.59,2.39,2.59,1.16,0,1.66-.79,1.87-1.51h1.94c-.37,1.78-1.76,2.97-3.94,2.97ZM126.39,468.5h4.4c-.12-1.46-.89-2.4-2.19-2.4s-2.08.94-2.21,2.4Z"/>
          <path class="cls-2" d="M137.88,474.01c-2.42,0-3.74-2.16-3.74-4.68s1.37-4.68,3.74-4.68c1.35,0,2.39.81,2.82,2.05h.05v-5.29h1.91v12.42h-1.91v-1.89h-.05c-.43,1.24-1.46,2.07-2.82,2.07ZM138.51,472.55c1.5,0,2.32-1.31,2.32-3.22s-.82-3.22-2.32-3.22-2.32,1.3-2.32,3.22.84,3.22,2.32,3.22Z"/>
          <path class="cls-2" d="M148.75,474.01c-2.66,0-4.21-2.2-4.21-4.68s1.51-4.68,4.17-4.68,4.4,2.18,4.13,5.31h-6.36c.09,1.64,1.03,2.59,2.39,2.59,1.16,0,1.66-.79,1.87-1.51h1.94c-.37,1.78-1.76,2.97-3.94,2.97ZM146.51,468.5h4.4c-.12-1.46-.89-2.4-2.19-2.4s-2.08.94-2.21,2.4Z"/>
          <path class="cls-2" d="M154.74,461.4h1.94v12.42h-1.94v-12.42Z"/>
          <path class="cls-2" d="M162.4,474.01c-2.44,0-3.76-1.6-3.89-3.26h1.92c.11,1.15,1.02,1.8,1.98,1.8.87,0,1.69-.4,1.69-1.17,0-.5-.41-.92-1.44-1.15l-1.21-.27c-1.75-.38-2.78-1.22-2.78-2.65,0-1.64,1.57-2.67,3.48-2.67,2.1,0,3.6,1.21,3.72,2.84h-1.92c-.12-1.04-.93-1.39-1.8-1.39s-1.51.38-1.51,1.04c0,.59.5.79,1.64,1.06l1.21.27c1.92.43,2.57,1.4,2.57,2.75,0,1.75-1.6,2.77-3.65,2.77Z"/>
          <path class="cls-2" d="M170.53,473.83c-1.39,0-2.1-.67-2.1-1.98v-5.56h-1.48v-1.46h1.48v-2.05h1.94v2.05h2.12v1.46h-2.12v5.11c0,.76.27.97.94.97h1.1v1.46h-1.89Z"/>
          <path class="cls-2" d="M177.69,474.01c-2.66,0-4.21-2.2-4.21-4.68s1.51-4.68,4.17-4.68,4.4,2.18,4.13,5.31h-6.36c.09,1.64,1.03,2.59,2.39,2.59,1.16,0,1.66-.79,1.87-1.51h1.94c-.37,1.78-1.76,2.97-3.94,2.97ZM175.45,468.5h4.4c-.12-1.46-.89-2.4-2.19-2.4s-2.08.94-2.21,2.4Z"/>
          <path class="cls-2" d="M183.68,473.83v-9h1.89v1.76h.04c.37-1.26,1.3-1.94,2.67-1.94v1.96h-.3c-1.66,0-2.35.49-2.35,2.12v5.1h-1.94Z"/>
          <path class="cls-2" d="M193.8,473.83v-12.42h3.94l2.9,12.03,2.9-12.03h3.94v12.42h-2.01v-12.03l-2.89,12.03h-3.89l-2.89-12.03v12.03h-2.01Z"/>
          <path class="cls-2" d="M212.76,474.01c-1.85,0-3.15-1.17-3.15-2.81,0-1.85,1.6-2.54,3.58-2.75l2.26-.23v-.27c0-1.21-.68-1.84-1.8-1.84s-1.73.56-1.78,1.57h-1.94c.07-1.75,1.46-3.02,3.76-3.02s3.71,1.22,3.71,3.66v5.53h-1.87v-1.76h-.05c-.37,1.24-1.37,1.94-2.71,1.94ZM213.26,472.55c1.39,0,2.19-.95,2.19-2.67v-.31l-1.94.22c-1.18.13-1.85.56-1.85,1.42s.75,1.33,1.6,1.33Z"/>
          <path class="cls-2" d="M222.33,473.83c-1.39,0-2.1-.67-2.1-1.98v-5.56h-1.48v-1.46h1.48v-2.05h1.94v2.05h2.12v1.46h-2.12v5.11c0,.76.27.97.94.97h1.1v1.46h-1.89Z"/>
          <path class="cls-2" d="M229.49,474.01c-2.66,0-4.21-2.2-4.21-4.68s1.51-4.68,4.17-4.68,4.4,2.18,4.13,5.31h-6.36c.09,1.64,1.03,2.59,2.39,2.59,1.16,0,1.66-.79,1.87-1.51h1.94c-.37,1.78-1.76,2.97-3.94,2.97ZM227.25,468.5h4.4c-.12-1.46-.89-2.4-2.19-2.4s-2.08.94-2.21,2.4Z"/>
          <path class="cls-2" d="M235.48,473.83v-9h1.89v1.76h.04c.37-1.26,1.3-1.94,2.67-1.94v1.96h-.3c-1.66,0-2.35.49-2.35,2.12v5.1h-1.94Z"/>
          <path class="cls-2" d="M241.52,463.4v-2h2.07v2h-2.07ZM241.58,473.83v-9h1.94v9h-1.94Z"/>
          <path class="cls-2" d="M248.49,474.01c-1.85,0-3.15-1.17-3.15-2.81,0-1.85,1.6-2.54,3.58-2.75l2.26-.23v-.27c0-1.21-.68-1.84-1.8-1.84s-1.73.56-1.78,1.57h-1.94c.07-1.75,1.46-3.02,3.76-3.02s3.71,1.22,3.71,3.66v5.53h-1.87v-1.76h-.05c-.37,1.24-1.37,1.94-2.71,1.94ZM248.99,472.55c1.39,0,2.19-.95,2.19-2.67v-.31l-1.94.22c-1.18.13-1.85.56-1.85,1.42s.75,1.33,1.6,1.33Z"/>
          <path class="cls-2" d="M255.42,461.4h1.94v12.42h-1.94v-12.42Z"/>
          <path class="cls-2" d="M259.7,463.4v-2h2.07v2h-2.07ZM259.75,473.83v-9h1.94v9h-1.94Z"/>
          <path class="cls-2" d="M267.79,474.01c-2.66,0-4.21-2.2-4.21-4.68s1.51-4.68,4.17-4.68,4.4,2.18,4.13,5.31h-6.36c.09,1.64,1.03,2.59,2.39,2.59,1.16,0,1.66-.79,1.87-1.51h1.94c-.37,1.78-1.76,2.97-3.94,2.97ZM265.54,468.5h4.4c-.12-1.46-.89-2.4-2.19-2.4s-2.08.94-2.21,2.4Z"/>
          <path class="cls-2" d="M273.78,473.83v-9h1.89v1.76h.04c.37-1.26,1.3-1.94,2.6-1.94,1.96,0,2.92,1.35,2.92,3.33v5.85h-1.94v-5.28c0-1.67-.59-2.43-1.78-2.43s-1.78.83-1.78,2.3v5.4h-1.94Z"/>
        </g>
        <g>
          <path class="cls-2" d="M60.17,496.01c-2,0-2.97-1.35-2.97-3.33v-5.85h1.96v5.26c0,1.67.58,2.43,1.75,2.43s1.76-.83,1.76-2.3v-5.38h1.96v9h-1.91v-1.76h-.04c-.38,1.24-1.22,1.94-2.52,1.94Z"/>
          <path class="cls-2" d="M67.05,495.83v-9h1.91v1.76h.04c.38-1.26,1.31-1.94,2.63-1.94,1.98,0,2.95,1.35,2.95,3.33v5.85h-1.96v-5.28c0-1.67-.59-2.43-1.8-2.43s-1.8.83-1.8,2.3v5.4h-1.96Z"/>
          <path class="cls-2" d="M80.21,496.01c-2.45,0-3.78-2.16-3.78-4.68s1.39-4.68,3.78-4.68c1.37,0,2.41.81,2.84,2.05h.05v-5.29h1.93v12.42h-1.93v-1.89h-.05c-.43,1.24-1.48,2.07-2.84,2.07ZM80.84,494.55c1.51,0,2.34-1.31,2.34-3.22s-.83-3.22-2.34-3.22-2.34,1.3-2.34,3.22.85,3.22,2.34,3.22Z"/>
          <path class="cls-2" d="M91.58,485.4v-2h2.09v2h-2.09ZM91.64,495.83v-9h1.96v9h-1.96Z"/>
          <path class="cls-2" d="M96.01,495.83v-9h1.91v1.76h.04c.38-1.26,1.31-1.94,2.63-1.94,1.98,0,2.95,1.35,2.95,3.33v5.85h-1.96v-5.28c0-1.67-.59-2.43-1.8-2.43s-1.8.83-1.8,2.3v5.4h-1.96Z"/>
          <path class="cls-2" d="M105.87,495.83v-9h1.91v1.76h.04c.38-1.26,1.31-1.94,2.63-1.94,1.98,0,2.95,1.35,2.95,3.33v5.85h-1.96v-5.28c0-1.67-.59-2.43-1.8-2.43s-1.8.83-1.8,2.3v5.4h-1.96Z"/>
          <path class="cls-2" d="M119.64,496.01c-2.74,0-4.41-2.25-4.41-4.68s1.67-4.68,4.41-4.68,4.41,2.25,4.41,4.68-1.67,4.68-4.41,4.68ZM119.64,494.55c1.51,0,2.36-1.31,2.36-3.22s-.85-3.22-2.36-3.22-2.34,1.3-2.34,3.22.85,3.22,2.34,3.22Z"/>
          <path class="cls-2" d="M127.46,495.83l-2.47-9h1.98l2.29,8.43,2.3-8.43h1.96l-2.45,9h-3.62Z"/>
          <path class="cls-2" d="M137.63,496.01c-1.87,0-3.19-1.17-3.19-2.81,0-1.85,1.62-2.54,3.62-2.75l2.29-.23v-.27c0-1.21-.68-1.84-1.82-1.84s-1.75.56-1.8,1.57h-1.96c.07-1.75,1.48-3.02,3.8-3.02s3.75,1.22,3.75,3.66v5.53h-1.89v-1.76h-.05c-.38,1.24-1.39,1.94-2.74,1.94ZM138.13,494.55c1.4,0,2.21-.95,2.21-2.67v-.31l-1.96.22c-1.19.13-1.87.56-1.87,1.42s.76,1.33,1.62,1.33Z"/>
          <path class="cls-2" d="M147.27,495.83c-1.4,0-2.12-.67-2.12-1.98v-5.56h-1.49v-1.46h1.49v-2.05h1.96v2.05h2.14v1.46h-2.14v5.11c0,.76.27.97.95.97h1.12v1.46h-1.91Z"/>
          <path class="cls-2" d="M150.82,485.4v-2h2.09v2h-2.09ZM150.87,495.83v-9h1.96v9h-1.96Z"/>
          <path class="cls-2" d="M156.94,495.83l-2.47-9h1.98l2.29,8.43,2.3-8.43h1.96l-2.45,9h-3.62Z"/>
          <path class="cls-2" d="M168.21,496.01c-2.68,0-4.25-2.2-4.25-4.68s1.53-4.68,4.21-4.68,4.45,2.18,4.18,5.31h-6.43c.09,1.64,1.04,2.59,2.41,2.59,1.17,0,1.67-.79,1.89-1.51h1.96c-.38,1.78-1.78,2.97-3.98,2.97ZM165.94,490.5h4.45c-.13-1.46-.9-2.4-2.21-2.4s-2.11.94-2.23,2.4Z"/>
          <path class="cls-2" d="M174.25,495.83v-9h1.91v1.76h.04c.38-1.26,1.31-1.94,2.7-1.94v1.96h-.31c-1.67,0-2.38.49-2.38,2.12v5.1h-1.96Z"/>
          <path class="cls-2" d="M186.66,495.83v-10.75h-4.03v-1.67h10.08v1.67h-4.02v10.75h-2.03Z"/>
          <path class="cls-2" d="M196.12,496.01c-2.68,0-4.25-2.2-4.25-4.68s1.53-4.68,4.21-4.68,4.45,2.18,4.18,5.31h-6.43c.09,1.64,1.04,2.59,2.41,2.59,1.17,0,1.67-.79,1.89-1.51h1.96c-.38,1.78-1.78,2.97-3.98,2.97ZM193.86,490.5h4.45c-.13-1.46-.9-2.4-2.21-2.4s-2.11.94-2.23,2.4Z"/>
          <path class="cls-2" d="M206.01,496.01c-2.65,0-4.34-2.2-4.34-4.68s1.64-4.68,4.27-4.68c2.11,0,3.69,1.15,4.03,3.28h-1.98c-.22-1.15-.95-1.82-2.02-1.82-1.46,0-2.23,1.35-2.23,3.22s.83,3.22,2.32,3.22c1.04,0,1.8-.7,2-1.85h2c-.34,2.12-1.94,3.31-4.05,3.31Z"/>
          <path class="cls-2" d="M211.82,495.83v-12.42h1.91v5.19h.04c.38-1.26,1.31-1.94,2.63-1.94,1.98,0,2.95,1.35,2.95,3.33v5.85h-1.96v-5.28c0-1.67-.59-2.43-1.8-2.43s-1.8.83-1.8,2.3v5.4h-1.96Z"/>
          <path class="cls-2" d="M221.68,495.83v-9h1.91v1.76h.04c.38-1.26,1.31-1.94,2.63-1.94,1.98,0,2.95,1.35,2.95,3.33v5.85h-1.96v-5.28c0-1.67-.59-2.43-1.8-2.43s-1.8.83-1.8,2.3v5.4h-1.96Z"/>
          <path class="cls-2" d="M231.49,485.4v-2h2.09v2h-2.09ZM231.55,495.83v-9h1.96v9h-1.96Z"/>
          <path class="cls-2" d="M237.88,491.13v4.7h-1.96v-12.42h1.96v7.13l3.71-3.71h2.43l-3.94,3.96,4.12,5.04h-2.47l-3.85-4.7Z"/>
        </g>
      </g>
    </g>
  </g>
</svg>