<svg id="Layer_1" data-name="Layer 1" xmlns="http://www.w3.org/2000/svg" xmlns:xlink="http://www.w3.org/1999/xlink" viewBox="0 0 300 600"><defs><style>.cls-1{fill:none;}.cls-2{clip-path:url(#clip-path);}.cls-3{clip-path:url(#clip-path-3);}.cls-4{clip-path:url(#clip-path-4);}.cls-5{clip-path:url(#clip-path-5);}.cls-6{clip-path:url(#clip-path-7);}.cls-7{clip-path:url(#clip-path-8);}.cls-8{clip-path:url(#clip-path-9);}.cls-9{clip-path:url(#clip-path-11);}.cls-10{clip-path:url(#clip-path-12);}.cls-11{clip-path:url(#clip-path-13);}.cls-12{fill:#221e1f;}.cls-13{fill:#fff;}</style><clipPath id="clip-path"><rect class="cls-1" x="-1280" width="300" height="600"/></clipPath><clipPath id="clip-path-3"><rect class="cls-1" x="-1199.15" y="364.8" width="138.3" height="137.47"/></clipPath><clipPath id="clip-path-4"><rect class="cls-1" x="-34048" y="-32167" width="65535" height="65535"/></clipPath><clipPath id="clip-path-5"><rect class="cls-1" x="-960" width="300" height="600"/></clipPath><clipPath id="clip-path-7"><rect class="cls-1" x="-879.15" y="364.8" width="138.3" height="137.47"/></clipPath><clipPath id="clip-path-8"><rect class="cls-1" x="-33728" y="-32167" width="65535" height="65535"/></clipPath><clipPath id="clip-path-9"><rect class="cls-1" x="-320" width="300" height="600"/></clipPath><clipPath id="clip-path-11"><rect class="cls-1" x="-239.15" y="364.8" width="138.3" height="137.47"/></clipPath><clipPath id="clip-path-12"><rect class="cls-1" x="-33088" y="-32167" width="65535" height="65535"/></clipPath><clipPath id="clip-path-13"><rect class="cls-1" width="300" height="600"/></clipPath></defs><g class="cls-11"><path class="cls-12" d="M111.17,347v-1.43a4.56,4.56,0,0,1-2.67-1.11,3.25,3.25,0,0,1-1-2.52l2.12-.08a1.94,1.94,0,0,0,1.58,1.87v-2.24l-.8-.14c-1.56-.27-2.65-1.14-2.65-2.81s1.34-3,3.45-3.1v-1.23h1.16v1.25c2.17.23,3.38,1.53,3.4,3.47l-2.07.07a1.75,1.75,0,0,0-1.33-1.69v2.22l.69.12c2,.36,2.91,1.29,2.91,2.9a2.59,2.59,0,0,1-1,2.2,4.49,4.49,0,0,1-2.57.85V347Zm0-7.68v-2.1c-.8.08-1.24.45-1.24,1.12S110.46,339.14,111.17,339.28Zm1.16,2.37v2.12c.83-.08,1.37-.47,1.37-1.11S113.16,341.78,112.33,341.65Z"/><path class="cls-12" d="M131.37,346.39h2.68v4h-2.68v4.39h-4.65v-4.39H117V346l8.7-10.91h5.71Zm-10.38,0h5.73v-7.14Z"/><path class="cls-12" d="M135.08,349.41a4.77,4.77,0,0,1,3.71-4.77,4.42,4.42,0,0,1-3.09-4.46,4.62,4.62,0,0,1,2.06-4,10.22,10.22,0,0,1,10.53,0,4.62,4.62,0,0,1,2.06,4,4.42,4.42,0,0,1-3.09,4.46,4.77,4.77,0,0,1,3.71,4.77c0,3.49-2.93,5.71-7.95,5.71S135.08,352.9,135.08,349.41Zm4.76-.5c0,1.72,1.19,2.65,3.18,2.65s3.18-.93,3.18-2.65-1.15-2.58-3.18-2.58S139.84,347.26,139.84,348.91Zm.47-8.26c0,1.53,1.09,2.4,2.71,2.4s2.78-.87,2.78-2.4-1.12-2.49-2.78-2.49A2.4,2.4,0,0,0,140.31,340.65Z"/><path class="cls-12" d="M152.59,349.88h4.87v4.86h-4.87Z"/><path class="cls-12" d="M172.82,339.25h-8.63c0,.44-.09,1-.19,1.71a15.11,15.11,0,0,1-.28,1.66,5.37,5.37,0,0,1,3.71-1.19,6.44,6.44,0,0,1,5.11,2,7,7,0,0,1,1.72,4.81,6.44,6.44,0,0,1-2.12,5.05,7.75,7.75,0,0,1-5.33,1.87c-5.08,0-7.86-2.84-7.7-7.3l4.55.34a3.1,3.1,0,1,0,6.2,0,3,3,0,0,0-3-3.22,3.12,3.12,0,0,0-2.87,1.53l-4.55-.34c.22-1.34.5-3.09.78-5.3a56.12,56.12,0,0,0,.5-5.77h12.12Z"/><path class="cls-12" d="M190.59,352.47a9,9,0,0,1-12.72,0c-1.59-1.78-2.37-4.31-2.37-7.55s.78-5.73,2.37-7.51a8.89,8.89,0,0,1,12.72,0c1.59,1.78,2.37,4.27,2.37,7.51S192.18,350.69,190.59,352.47Zm-6.36-13.94c-2.61,0-3.74,2.06-3.74,6.39s1.13,6.39,3.74,6.39,3.74-2.05,3.74-6.39S186.85,338.53,184.23,338.53Z"/><rect class="cls-13" x="103.6" y="296.99" width="93.25" height="26.31"/><path class="cls-12" d="M118.91,315.88a5.34,5.34,0,0,1-.48-2.3c-.09-1.3-.68-1.72-1.83-1.72h-2.33v4h-2.73V304.32h5.57c3,0,4.46,1.41,4.46,3.61a2.82,2.82,0,0,1-2.49,3,2.34,2.34,0,0,1,2,2.31c.09.84.16,1.45.22,1.81a1.52,1.52,0,0,0,.38.87Zm-2.24-6.17c1.45,0,2.17-.44,2.17-1.56s-.72-1.59-2.17-1.59h-2.4v3.15Z"/><path class="cls-12" d="M132,315.88h-8.91V304.32h8.75v2.29h-6v2.28h4.68v2.25H125.8v2.44H132Z"/><path class="cls-12" d="M141.46,315.38a6.12,6.12,0,0,1-2.89.71,6,6,0,1,1,4.21-10.32,5.73,5.73,0,0,1,1.73,4.33,6,6,0,0,1-1.52,4.09l1,1.15-1.53,1.21Zm-1.63-1.89-1.17-1.37,1.48-1.23,1.12,1.3a4.6,4.6,0,0,0,.42-2.09c0-2.13-1.22-3.56-3.11-3.56s-3.07,1.43-3.07,3.56,1.21,3.59,3.07,3.59A3.87,3.87,0,0,0,139.83,313.49Z"/><path class="cls-12" d="M147.26,315a4.32,4.32,0,0,1-1.49-3.65v-7h2.77v6.6c0,1.84.66,2.83,2.35,2.83s2.36-1,2.36-2.81v-6.62H156v7a4.31,4.31,0,0,1-1.48,3.65,6.52,6.52,0,0,1-7.28,0Z"/><path class="cls-12" d="M166.7,315.88h-8.92V304.32h8.75v2.29h-6v2.28h4.68v2.25h-4.68v2.44h6.19Z"/><path class="cls-12" d="M170,311.67c.09,1.6,1.32,2.24,2.74,2.24,1.23,0,2-.49,2-1.24s-.68-1-1.69-1.16l-2.17-.39c-1.83-.34-3.13-1.37-3.13-3.33,0-2.28,1.8-3.69,4.58-3.69,3.14,0,4.85,1.58,4.9,4.13l-2.57.07a2.09,2.09,0,0,0-2.35-2c-1.17,0-1.83.48-1.83,1.27s.53.9,1.36,1.06L174,309c2.35.42,3.45,1.59,3.45,3.48a3,3,0,0,1-1.38,2.7,5.94,5.94,0,0,1-3.33.91,6.18,6.18,0,0,1-3.8-1.11,3.8,3.8,0,0,1-1.49-3.21Z"/><path class="cls-12" d="M181.91,315.88v-9.27h-4v-2.29h10.85v2.29h-4.07v9.27Z"/></g></svg>