<svg id="Layer_1" data-name="Layer 1" xmlns="http://www.w3.org/2000/svg" xmlns:xlink="http://www.w3.org/1999/xlink" viewBox="0 0 300 600"><defs><style>.cls-1{fill:none;}.cls-2{clip-path:url(#clip-path);}.cls-3{clip-path:url(#clip-path-3);}.cls-4{clip-path:url(#clip-path-4);}.cls-5{clip-path:url(#clip-path-5);}.cls-6{clip-path:url(#clip-path-7);}.cls-7{clip-path:url(#clip-path-8);}.cls-8{clip-path:url(#clip-path-9);}.cls-9{fill:#221e1f;}.cls-10{clip-path:url(#clip-path-10);}.cls-11{clip-path:url(#clip-path-12);}.cls-12{clip-path:url(#clip-path-13);}</style><clipPath id="clip-path"><rect class="cls-1" x="-960" width="300" height="600"/></clipPath><clipPath id="clip-path-3"><rect class="cls-1" x="-879.15" y="364.8" width="138.3" height="137.47"/></clipPath><clipPath id="clip-path-4"><rect class="cls-1" x="-33728" y="-32167" width="65535" height="65535"/></clipPath><clipPath id="clip-path-5"><rect class="cls-1" x="-640" width="300" height="600"/></clipPath><clipPath id="clip-path-7"><rect class="cls-1" x="-559.15" y="364.8" width="138.3" height="137.47"/></clipPath><clipPath id="clip-path-8"><rect class="cls-1" x="-33408" y="-32167" width="65535" height="65535"/></clipPath><clipPath id="clip-path-9"><rect class="cls-1" width="300" height="600"/></clipPath><clipPath id="clip-path-10"><rect class="cls-1" x="320" width="300" height="600"/></clipPath><clipPath id="clip-path-12"><rect class="cls-1" x="400.85" y="364.8" width="138.3" height="137.47"/></clipPath><clipPath id="clip-path-13"><rect class="cls-1" x="-32448" y="-32167" width="65535" height="65535"/></clipPath></defs><g class="cls-8"><path class="cls-9" d="M60.89,118.7a3.7,3.7,0,0,0-2.06-.56c-1.26,0-1.91,1-1.91,2.29v1.16h4v5.24h-4v15.6H49.44v-15.6h-3v-5.24h3v-.88c0-5.42,2.71-8.27,7.57-8.27a10,10,0,0,1,4.63,1ZM70.7,113v29.43H63.13V113Z"/><path class="cls-9" d="M94.3,136.31c0,1.08.46,1.54,1.26,1.54a4.36,4.36,0,0,0,1.68-.32v4a8,8,0,0,1-4.72,1.36,5.14,5.14,0,0,1-5.28-3.69c-1.21,2.43-3.59,3.69-6.91,3.69-4.07,0-6.73-2.1-6.73-5.65,0-4,2.9-5.75,7.43-6.55l5.84-1v-.32c0-1.73-.8-2.76-2.62-2.76s-2.52,1.07-2.85,2.62l-7-.47c.66-4.58,4.07-7.76,10.33-7.76,5.51,0,9.58,2.39,9.58,8.18Zm-7.43-2.9-3.08.56c-1.83.38-2.9.94-2.9,2.29,0,1.08.84,1.78,2.1,1.78,2.15,0,3.88-1.59,3.88-4.3Z"/><path class="cls-9" d="M100.19,126.83H97.38v-4.68l1.54-.23c2.11-.33,2.76-1.45,3.28-3.36l.7-2.71h4.76v5.74h5.42v5.24h-5.42v7.61c0,1.78.84,2.48,2.38,2.48a8.46,8.46,0,0,0,3.23-.7v4.9A9.79,9.79,0,0,1,107,143c-3.51,0-6.82-1.45-6.82-6.35Z"/><path class="cls-9" d="M116.91,126.83h-2.8v-4.68l1.54-.23c2.1-.33,2.76-1.45,3.27-3.36l.7-2.71h4.77v5.74h5.42v5.24h-5.42v7.61c0,1.78.84,2.48,2.38,2.48a8.5,8.5,0,0,0,3.23-.7v4.9a9.82,9.82,0,0,1-6.27,1.87c-3.5,0-6.82-1.45-6.82-6.35Z"/><path class="cls-9" d="M132.84,113h7.67v6.63h-7.67Zm7.62,8.59v20.84h-7.57V121.59Z"/><path class="cls-9" d="M165.32,135.56c-1.08,4.77-4.91,7.43-10.42,7.43-6.68,0-11.45-4-11.45-10.65A11,11,0,0,1,154.81,121c7,0,10.65,4.77,10.65,10.42v2.1H150.83c.19,2.57,2.06,3.79,4.35,3.79,2.06,0,3.36-.7,4.06-2.34Zm-7.06-5.65a3.41,3.41,0,0,0-3.55-3.46c-2.43,0-3.5,1.5-3.78,3.46Z"/><path class="cls-9" d="M173.63,135.56c.29,1.73,1.69,2.71,4,2.71,1.68,0,2.57-.6,2.57-1.44s-.47-1.36-1.92-1.59l-3.08-.47c-5.05-.8-7.71-2.43-7.71-6.68s3.6-7.06,9.44-7.06c6,0,9.57,2.67,10,7l-6.21.19c-.28-1.5-1.59-2.43-3.92-2.43-1.45,0-2.29.56-2.29,1.49,0,.7.56,1.08,1.26,1.17l4.06.7c4.67.75,7.38,2.85,7.38,6.92,0,4.39-3.73,6.91-9.67,6.91-5.74,0-10-2.29-10.46-7.33Z"/></g></svg>