<svg id="Layer_1" data-name="Layer 1" xmlns="http://www.w3.org/2000/svg" xmlns:xlink="http://www.w3.org/1999/xlink" viewBox="0 0 300 600"><defs><style>.cls-1{fill:none;}.cls-2{clip-path:url(#clip-path);}.cls-3{clip-path:url(#clip-path-3);}.cls-4{clip-path:url(#clip-path-4);}.cls-5{clip-path:url(#clip-path-5);}.cls-6{clip-path:url(#clip-path-7);}.cls-7{clip-path:url(#clip-path-8);}.cls-8{clip-path:url(#clip-path-9);}.cls-9{fill:#221e1f;}.cls-10{clip-path:url(#clip-path-10);}.cls-11{clip-path:url(#clip-path-12);}.cls-12{clip-path:url(#clip-path-13);}</style><clipPath id="clip-path"><rect class="cls-1" x="-960" width="300" height="600"/></clipPath><clipPath id="clip-path-3"><rect class="cls-1" x="-879.15" y="364.8" width="138.3" height="137.47"/></clipPath><clipPath id="clip-path-4"><rect class="cls-1" x="-33728" y="-32167" width="65535" height="65535"/></clipPath><clipPath id="clip-path-5"><rect class="cls-1" x="-640" width="300" height="600"/></clipPath><clipPath id="clip-path-7"><rect class="cls-1" x="-559.15" y="364.8" width="138.3" height="137.47"/></clipPath><clipPath id="clip-path-8"><rect class="cls-1" x="-33408" y="-32167" width="65535" height="65535"/></clipPath><clipPath id="clip-path-9"><rect class="cls-1" width="300" height="600"/></clipPath><clipPath id="clip-path-10"><rect class="cls-1" x="320" width="300" height="600"/></clipPath><clipPath id="clip-path-12"><rect class="cls-1" x="400.85" y="364.8" width="138.3" height="137.47"/></clipPath><clipPath id="clip-path-13"><rect class="cls-1" x="-32448" y="-32167" width="65535" height="65535"/></clipPath></defs><g class="cls-8"><path class="cls-9" d="M58.88,192c-6.82,0-11.4-4.49-11.4-11s4.58-11,11.4-11,11.4,4.53,11.4,11S65.66,192,58.88,192Zm0-5.7c2.62,0,3.79-2.15,3.79-5.28s-1.17-5.28-3.79-5.28S55.1,177.85,55.1,181,56.22,186.26,58.88,186.26Z"/><path class="cls-9" d="M78.88,191.4l-7.76-20.84h7.95L83.6,183.5h.19l4.53-12.94h7.33L87.9,191.4Z"/><path class="cls-9" d="M118.36,184.53c-1.07,4.77-4.9,7.43-10.42,7.43-6.68,0-11.44-4-11.44-10.65A11,11,0,0,1,107.85,170c7,0,10.65,4.77,10.65,10.42v2.1H103.88c.19,2.57,2.05,3.79,4.34,3.79,2.06,0,3.37-.7,4.07-2.34Zm-7-5.65a3.42,3.42,0,0,0-3.55-3.46c-2.43,0-3.51,1.5-3.79,3.46Z"/><path class="cls-9" d="M137.29,177.94a6.82,6.82,0,0,0-3.6-.88c-2.81,0-4.53,1.3-4.53,4.81v9.53h-7.57V170.56h7.57v3.69a6.05,6.05,0,0,1,5.7-4.25,5,5,0,0,1,2.89.79Z"/><path class="cls-9" d="M154.34,191.4H148.5V162h7.57v12.2c1-2.48,3.36-4.16,6.87-4.16,6.12,0,9.25,4.86,9.25,11s-3.13,11-9.39,11a7.52,7.52,0,0,1-7.15-4.16Zm1.73-10.28c0,3,1.63,5,4.2,5,2.95,0,4.3-2.1,4.3-5.14s-1.35-5.09-4.3-5.09c-2.57,0-4.2,2-4.2,5Z"/><path class="cls-9" d="M175.13,162h7.66v6.64h-7.66Zm7.62,8.6V191.4h-7.57V170.56Z"/><path class="cls-9" d="M194.43,162V191.4h-7.57V162Z"/><path class="cls-9" d="M206.11,162V191.4h-7.57V162Z"/><path class="cls-9" d="M215.32,184.53c.28,1.73,1.68,2.71,4,2.71,1.68,0,2.57-.61,2.57-1.45s-.47-1.35-1.92-1.59l-3.08-.46c-5.05-.8-7.71-2.43-7.71-6.68s3.6-7.06,9.44-7.06c6,0,9.58,2.66,10,7l-6.22.19c-.28-1.5-1.59-2.43-3.92-2.43-1.45,0-2.29.56-2.29,1.49,0,.7.56,1.08,1.26,1.17l4.06.7c4.68.75,7.39,2.85,7.39,6.91,0,4.4-3.74,6.92-9.68,6.92-5.74,0-10-2.29-10.46-7.34Z"/><path class="cls-9" d="M238.54,181.59a7.81,7.81,0,0,1,3.08-6c1.87-1.5,3.32-2.62,3.32-4.72a2.67,2.67,0,0,0-2.94-2.76c-2.67,0-3.6,1.87-3.6,4.25a7.64,7.64,0,0,0,.33,2.43l-7.76-.23a14.26,14.26,0,0,1-.37-2.76c0-6.3,4.67-10.42,11.44-10.42,7.15,0,11.22,4,11.22,9.07,0,3.83-2.34,6-5,7.94-1.5,1.12-2.29,2-2.39,3.18Zm-.37,1.77h8v8h-8Z"/></g></svg>