<svg id="Layer_1" data-name="Layer 1" xmlns="http://www.w3.org/2000/svg" xmlns:xlink="http://www.w3.org/1999/xlink" viewBox="0 0 300 600"><defs><style>.cls-1{fill:none;}.cls-2{clip-path:url(#clip-path);}.cls-3{clip-path:url(#clip-path-3);}.cls-4{clip-path:url(#clip-path-4);}.cls-5{clip-path:url(#clip-path-5);}.cls-6{clip-path:url(#clip-path-7);}.cls-7{clip-path:url(#clip-path-8);}.cls-8{clip-path:url(#clip-path-9);}.cls-9{clip-path:url(#clip-path-11);}.cls-10{clip-path:url(#clip-path-12);}.cls-11{clip-path:url(#clip-path-13);}.cls-12{fill:#221e1f;}</style><clipPath id="clip-path"><rect class="cls-1" x="-1280" width="300" height="600"/></clipPath><clipPath id="clip-path-3"><rect class="cls-1" x="-1199.15" y="364.8" width="138.3" height="137.47"/></clipPath><clipPath id="clip-path-4"><rect class="cls-1" x="-34048" y="-32167" width="65535" height="65535"/></clipPath><clipPath id="clip-path-5"><rect class="cls-1" x="-960" width="300" height="600"/></clipPath><clipPath id="clip-path-7"><rect class="cls-1" x="-879.15" y="364.8" width="138.3" height="137.47"/></clipPath><clipPath id="clip-path-8"><rect class="cls-1" x="-33728" y="-32167" width="65535" height="65535"/></clipPath><clipPath id="clip-path-9"><rect class="cls-1" x="-320" width="300" height="600"/></clipPath><clipPath id="clip-path-11"><rect class="cls-1" x="-239.15" y="364.8" width="138.3" height="137.47"/></clipPath><clipPath id="clip-path-12"><rect class="cls-1" x="-33088" y="-32167" width="65535" height="65535"/></clipPath><clipPath id="clip-path-13"><rect class="cls-1" width="300" height="600"/></clipPath></defs><g class="cls-11"><path class="cls-12" d="M69.44,109.5H46.54v-44H68c11.31,0,16.41,4.75,16.41,12.15,0,4.89-3.14,8.25-7.82,9,5.16,1,9.14,4.47,9.14,10.76C85.71,105,79.71,109.5,69.44,109.5ZM58.06,83h8.38c4,0,5.66-1.81,5.66-3.91,0-2.3-1.61-4.12-5.66-4.12H58.06Zm0,8.87V100h9.5c4.12,0,5.93-1.67,5.93-4s-1.81-4.12-6-4.12Z"/><path class="cls-12" d="M89.48,92V65.5h11.81V90.09c0,6.7,2.09,10.26,8.17,10.26s8.17-3.56,8.17-10.26V65.5H129.5V92c0,12.85-8.73,18.3-20,18.3S89.48,104.89,89.48,92Z"/><path class="cls-12" d="M155.48,64.66c13.48,0,20.67,8.59,21.51,19.56l-11.39.42c-.69-4.89-3.35-9.43-10.19-9.43-6.5,0-10.27,4.82-10.27,12.29s3.77,12.29,10.27,12.29c6.84,0,9.5-4.54,10.19-9.42l11.39.48c-.84,11-8,19.49-21.51,19.49-12.85,0-22.56-9.29-22.56-22.84S142.63,64.66,155.48,64.66Z"/><path class="cls-12" d="M208.55,109.5,196.33,92l-3.84,4.19V109.5H180.62v-44h11.87V83.31L208.27,65.5h13.62l-17,18.72,17.81,25.28Z"/><path class="cls-12" d="M47.37,159.36H43.18v-7l2.31-.35c3.14-.49,4.12-2.17,4.89-5l1-4.05h7.13v8.59h8.1v7.82h-8.1v11.39c0,2.65,1.25,3.7,3.56,3.7a12.52,12.52,0,0,0,4.82-1v7.33a14.64,14.64,0,0,1-9.36,2.8c-5.24,0-10.2-2.17-10.2-9.5Z"/><path class="cls-12" d="M82.57,182.69H71.26v-44H82.57v17.53c1.68-3.42,5.38-5.52,10.06-5.52,8.52,0,11.24,5.94,11.24,12.43v19.56H92.56V166.14c0-4.26-1.19-6.5-4.61-6.5-3.84,0-5.38,3.07-5.38,7.75Z"/><path class="cls-12" d="M140.67,172.42c-1.6,7.13-7.33,11.11-15.57,11.11-10,0-17.11-6-17.11-15.93s7.26-16.9,17-16.9c10.4,0,15.92,7.13,15.92,15.58v3.14H119c.28,3.84,3.07,5.66,6.5,5.66,3.07,0,5-1.05,6.07-3.5ZM130.13,164a5.11,5.11,0,0,0-5.31-5.17c-3.63,0-5.24,2.24-5.66,5.17Z"/><path class="cls-12" d="M186.83,150.7c8.59,0,11.11,5.94,11.11,12.43v19.56H186.62V166.14c0-4.26-.76-6.5-4.19-6.5-3.77,0-5,3.07-5,7.75v15.3H166.09V166.14c0-4.26-.84-6.5-4.26-6.5-3.7,0-5,3.07-5,7.75v15.3H145.49V151.54H156.8v4.68c1.68-3.42,5-5.52,9.71-5.52,5.52,0,8.38,2.52,9.71,6.15C177.89,153.36,181.59,150.7,186.83,150.7Z"/><path class="cls-12" d="M202.75,170.68h12v12h-12Z"/></g></svg>