<svg xmlns="http://www.w3.org/2000/svg" viewBox="0 0 192.75 50.12"><defs><style>.cls-1{fill:#fff;}</style></defs><title>copy2</title><g id="Layer_2" data-name="Layer 2"><g id="Spiekel"><path class="cls-1" d="M1.63,49.86H0L4.54,39.39H5.87l4.5,10.47H8.71L7.65,47.28h-5ZM3.19,46H7.11L5.16,41.09Z"/><path class="cls-1" d="M17,50.12a4.19,4.19,0,0,1-1.8-.35,3.53,3.53,0,0,1-1.27-.92,3.68,3.68,0,0,1-.75-1.32A5.07,5.07,0,0,1,12.93,46V39.39h1.46v6.5A4.22,4.22,0,0,0,14.52,47a2.8,2.8,0,0,0,.44.94,2.19,2.19,0,0,0,.8.67,2.8,2.8,0,0,0,1.23.25,2.84,2.84,0,0,0,1.23-.25,2.31,2.31,0,0,0,.81-.67,2.78,2.78,0,0,0,.43-.94,4.23,4.23,0,0,0,.14-1.06v-6.5h1.46V46a5.07,5.07,0,0,1-.24,1.55,4,4,0,0,1-.75,1.32,3.62,3.62,0,0,1-1.27.92A4.27,4.27,0,0,1,17,50.12Z"/><path class="cls-1" d="M26.47,49.86H25V39.39h6.53v1.28H26.47v3.26h4.75v1.25H26.47Z"/><path class="cls-1" d="M40.06,39.39h3.6a7,7,0,0,1,2,.29,5.51,5.51,0,0,1,1.82.93,4.79,4.79,0,0,1,1.31,1.63,5.13,5.13,0,0,1,.51,2.38A5,5,0,0,1,48.8,47a4.79,4.79,0,0,1-1.31,1.63,5.58,5.58,0,0,1-1.82,1,6.7,6.7,0,0,1-2,.32h-3.6Zm1.47,9.18h1.83a5.44,5.44,0,0,0,1.75-.27,3.76,3.76,0,0,0,1.39-.77,3.25,3.25,0,0,0,.91-1.24,4,4,0,0,0,.33-1.67,4.14,4.14,0,0,0-.33-1.71,3.25,3.25,0,0,0-.91-1.24,3.87,3.87,0,0,0-1.39-.75,5.44,5.44,0,0,0-1.75-.26H41.53Z"/><path class="cls-1" d="M54.26,48.56h5.47v1.3H52.8V39.39h6.71v1.28H54.26v3.14H59.2v1.25H54.26Z"/><path class="cls-1" d="M70.54,47.76h0V39.39H72V49.86H70.19l-5.53-8.55h0v8.55H63.16V39.39h1.91Z"/><path class="cls-1" d="M81.24,39.39h3.19a6.16,6.16,0,0,1,1.54.17,3.19,3.19,0,0,1,1.18.52,2.44,2.44,0,0,1,.76.9,3.14,3.14,0,0,1,.26,1.32,2.86,2.86,0,0,1-.29,1.35,2.4,2.4,0,0,1-.79.91,3.67,3.67,0,0,1-1.22.53,6.59,6.59,0,0,1-1.51.17H82.7v4.6H81.24ZM82.7,44h1.55a5,5,0,0,0,1-.1,2.34,2.34,0,0,0,.77-.3,1.41,1.41,0,0,0,.51-.52,1.78,1.78,0,0,0,.17-.8,1.57,1.57,0,0,0-.18-.79A1.46,1.46,0,0,0,86,41a2.22,2.22,0,0,0-.76-.28,5.86,5.86,0,0,0-1-.08H82.7Z"/><path class="cls-1" d="M93,48.56h5.47v1.3H91.51V39.39h6.72v1.28H93v3.14h4.94v1.25H93Z"/><path class="cls-1" d="M105.88,50.12a4.24,4.24,0,0,1-1.81-.35,3.53,3.53,0,0,1-1.27-.92,3.68,3.68,0,0,1-.75-1.32,5.07,5.07,0,0,1-.24-1.55V39.39h1.46v6.5a4.23,4.23,0,0,0,.14,1.06,2.6,2.6,0,0,0,.43.94,2.19,2.19,0,0,0,.8.67,2.82,2.82,0,0,0,1.24.25,2.79,2.79,0,0,0,1.22-.25,2.15,2.15,0,0,0,.81-.67,2.6,2.6,0,0,0,.43-.94,4.23,4.23,0,0,0,.14-1.06v-6.5h1.46V46a5.07,5.07,0,0,1-.24,1.55,3.68,3.68,0,0,1-.75,1.32,3.53,3.53,0,0,1-1.27.92A4.19,4.19,0,0,1,105.88,50.12Z"/><path class="cls-1" d="M121.79,41.55a3.3,3.3,0,0,0-1.21-.83,4.39,4.39,0,0,0-3.29,0,3.57,3.57,0,0,0-1.25.91,3.86,3.86,0,0,0-.8,1.34,4.52,4.52,0,0,0-.28,1.62,4.67,4.67,0,0,0,.28,1.64,3.86,3.86,0,0,0,.8,1.34,3.55,3.55,0,0,0,1.27.89,4.13,4.13,0,0,0,1.68.33,6.32,6.32,0,0,0,1.36-.14,3.8,3.8,0,0,0,1.08-.38V45.38h-2.32V44.13h3.77v5.08a7.89,7.89,0,0,1-1.8.68,9.46,9.46,0,0,1-2.13.23,6.14,6.14,0,0,1-2.26-.4,5.29,5.29,0,0,1-1.76-1.14,5.15,5.15,0,0,1-1.16-1.75,5.93,5.93,0,0,1-.41-2.22,5.77,5.77,0,0,1,.42-2.24A4.9,4.9,0,0,1,115,40.64a5.39,5.39,0,0,1,1.77-1.12,6,6,0,0,1,2.21-.4,6.23,6.23,0,0,1,2.24.37,4.82,4.82,0,0,1,1.64,1Z"/><path class="cls-1" d="M128.34,48.56h5.47v1.3h-6.93V39.39h6.71v1.28h-5.25v3.14h4.94v1.25h-4.94Z"/><path class="cls-1" d="M147.8,44.61a5.74,5.74,0,0,1-.42,2.22,5.15,5.15,0,0,1-2.92,2.89,6.33,6.33,0,0,1-4.43,0,5.35,5.35,0,0,1-1.75-1.14,5.12,5.12,0,0,1-1.15-1.75,6.13,6.13,0,0,1,0-4.46,4.86,4.86,0,0,1,1.15-1.73A5.3,5.3,0,0,1,140,39.52a6.33,6.33,0,0,1,4.43,0,5.25,5.25,0,0,1,1.76,1.12,5,5,0,0,1,1.16,1.73A5.77,5.77,0,0,1,147.8,44.61Zm-1.58,0a4.52,4.52,0,0,0-.28-1.62,4,4,0,0,0-.8-1.34,3.57,3.57,0,0,0-1.25-.91,4,4,0,0,0-1.65-.33,3.92,3.92,0,0,0-1.63.33,3.53,3.53,0,0,0-1.24.91,4.19,4.19,0,0,0-.8,1.34,4.75,4.75,0,0,0-.28,1.62,4.91,4.91,0,0,0,.28,1.64,4.19,4.19,0,0,0,.8,1.34,3.75,3.75,0,0,0,1.25.89,3.84,3.84,0,0,0,1.62.33,4,4,0,0,0,1.64-.33,3.6,3.6,0,0,0,1.26-.89,4,4,0,0,0,.8-1.34A4.67,4.67,0,0,0,146.22,44.61Z"/><path class="cls-1" d="M154.5,49.86H153V40.67h-3.36V39.39h8.18v1.28H154.5Z"/><path class="cls-1" d="M172,49.86h-6.83V48.48l4.17-4.14a7,7,0,0,0,.81-1,2.13,2.13,0,0,0,.34-1.2,1.78,1.78,0,0,0-.15-.74,1.58,1.58,0,0,0-.4-.57,1.79,1.79,0,0,0-.59-.37,2.18,2.18,0,0,0-.72-.12,1.8,1.8,0,0,0-1.32.51,2.27,2.27,0,0,0-.65,1.31l-1.41-.24a3.27,3.27,0,0,1,.38-1.1,3.31,3.31,0,0,1,.73-.89,3.35,3.35,0,0,1,1-.58,3.69,3.69,0,0,1,1.25-.21,4,4,0,0,1,1.25.19,3.46,3.46,0,0,1,1.06.56,2.74,2.74,0,0,1,.73.94,2.9,2.9,0,0,1,.27,1.28,3,3,0,0,1-.13.93,4,4,0,0,1-.36.82,4.58,4.58,0,0,1-.54.73c-.21.23-.42.46-.65.69l-3.4,3.31H172Z"/><path class="cls-1" d="M179,39.12a2.91,2.91,0,0,1,1.61.43,3.37,3.37,0,0,1,1.11,1.17,5.9,5.9,0,0,1,.64,1.76,11.06,11.06,0,0,1,0,4.29,5.83,5.83,0,0,1-.64,1.75,3.29,3.29,0,0,1-1.11,1.17,3.23,3.23,0,0,1-3.22,0,3.29,3.29,0,0,1-1.11-1.17,5.58,5.58,0,0,1-.65-1.75,11.06,11.06,0,0,1,0-4.29,5.64,5.64,0,0,1,.65-1.76,3.37,3.37,0,0,1,1.11-1.17A2.94,2.94,0,0,1,179,39.12Zm0,1.2a1.42,1.42,0,0,0-1.06.42,2.81,2.81,0,0,0-.64,1.06,6.1,6.1,0,0,0-.32,1.4,11.25,11.25,0,0,0,0,2.84,5.89,5.89,0,0,0,.32,1.39,2.81,2.81,0,0,0,.64,1.06,1.42,1.42,0,0,0,1.06.42,1.39,1.39,0,0,0,1-.42,3.1,3.1,0,0,0,.64-1.06A5.89,5.89,0,0,0,181,46c.05-.5.08-1,.08-1.42s0-.92-.08-1.42a6.1,6.1,0,0,0-.33-1.4,3.1,3.1,0,0,0-.64-1.06A1.39,1.39,0,0,0,179,40.32Z"/><path class="cls-1" d="M190.77,44.34a2.32,2.32,0,0,1,.77.35,2.9,2.9,0,0,1,.63.58,2.6,2.6,0,0,1,.42.79,2.65,2.65,0,0,1,.16.94,3.08,3.08,0,0,1-.28,1.32,3,3,0,0,1-.76,1,3.5,3.5,0,0,1-1.12.62,4.29,4.29,0,0,1-1.35.21,4.33,4.33,0,0,1-1.35-.21,3.35,3.35,0,0,1-1.13-.62,2.9,2.9,0,0,1-.76-1,3.08,3.08,0,0,1-.28-1.32,2.76,2.76,0,0,1,.16-1,2.37,2.37,0,0,1,.43-.78,2.43,2.43,0,0,1,.63-.57,2.89,2.89,0,0,1,.76-.35v0a2.42,2.42,0,0,1-1.16-.86,2.39,2.39,0,0,1-.45-1.48,2.79,2.79,0,0,1,.25-1.17,2.89,2.89,0,0,1,.68-.9,3,3,0,0,1,1-.58,3.76,3.76,0,0,1,1.22-.2,3.81,3.81,0,0,1,1.22.2,3,3,0,0,1,1,.56,2.74,2.74,0,0,1,.68.89,2.79,2.79,0,0,1,.25,1.17,2.53,2.53,0,0,1-.45,1.5,2.32,2.32,0,0,1-1.16.87Zm-3.58,2.59a2.33,2.33,0,0,0,.14.81,1.65,1.65,0,0,0,.43.63,2.06,2.06,0,0,0,.65.41,2.23,2.23,0,0,0,.83.15,2.18,2.18,0,0,0,.82-.15,1.83,1.83,0,0,0,1.07-1,2.12,2.12,0,0,0,.15-.81,2,2,0,0,0-.15-.79,2.31,2.31,0,0,0-.42-.63,1.92,1.92,0,0,0-.65-.42,2.39,2.39,0,0,0-.82-.14,2.43,2.43,0,0,0-.82.14,1.92,1.92,0,0,0-.65.42,2.13,2.13,0,0,0-.43.63A2,2,0,0,0,187.19,46.93Zm.32-4.92a1.67,1.67,0,0,0,.13.67,1.53,1.53,0,0,0,.35.54,1.72,1.72,0,0,0,.55.37,2,2,0,0,0,.69.13,1.82,1.82,0,0,0,.67-.13,1.72,1.72,0,0,0,.55-.37,1.58,1.58,0,0,0,.37-.54A1.67,1.67,0,0,0,191,42a1.74,1.74,0,0,0-.14-.69,2,2,0,0,0-.37-.55,1.87,1.87,0,0,0-.55-.36,1.81,1.81,0,0,0-.67-.12,2,2,0,0,0-.69.12,1.87,1.87,0,0,0-.55.36,1.57,1.57,0,0,0-.35.55A1.73,1.73,0,0,0,187.51,42Z"/><path class="cls-1" d="M.86,32.58,6.91,21.12H.08V16.67H12.76v3.8L7.07,32.58Z"/><path class="cls-1" d="M20.74,16.67,18.51,23H14.83l1.66-6.34Z"/><path class="cls-1" d="M29.55,33A7.66,7.66,0,0,1,27,32.65a6,6,0,0,1-1.89-1,6.28,6.28,0,0,1-1.31-1.51,8.18,8.18,0,0,1-.84-1.8,10.52,10.52,0,0,1-.42-1.91,13.3,13.3,0,0,1,0-3.71A10.31,10.31,0,0,1,23,20.8a7.82,7.82,0,0,1,.84-1.75,5.87,5.87,0,0,1,1.31-1.46,6,6,0,0,1,1.89-1,7.94,7.94,0,0,1,2.56-.37,7.22,7.22,0,0,1,3.6.79,6.28,6.28,0,0,1,2.18,2,7.81,7.81,0,0,1,1.08,2.7,14.72,14.72,0,0,1,.29,2.8,15.21,15.21,0,0,1-.12,1.85,10.65,10.65,0,0,1-.43,1.92,8.59,8.59,0,0,1-.82,1.8A5.72,5.72,0,0,1,34,31.62a6.13,6.13,0,0,1-1.89,1A7.73,7.73,0,0,1,29.55,33Zm0-12.2a1.07,1.07,0,0,0-.81.33,2.4,2.4,0,0,0-.49.88,5.3,5.3,0,0,0-.25,1.2c0,.45-.07.88-.07,1.3s0,.88.07,1.33a5.64,5.64,0,0,0,.25,1.25,2.39,2.39,0,0,0,.49.91,1.05,1.05,0,0,0,.81.35,1.07,1.07,0,0,0,.82-.35,2.27,2.27,0,0,0,.5-.91,6.33,6.33,0,0,0,.23-1.25,12.1,12.1,0,0,0,.07-1.33,11.7,11.7,0,0,0-.07-1.3,5.94,5.94,0,0,0-.23-1.2,2.28,2.28,0,0,0-.5-.88A1.09,1.09,0,0,0,29.55,20.83Z"/><path class="cls-1" d="M45.29,33a7.66,7.66,0,0,1-2.56-.38,5.91,5.91,0,0,1-1.89-1,6.32,6.32,0,0,1-1.32-1.51,8.15,8.15,0,0,1-.83-1.8,11.46,11.46,0,0,1-.43-1.91,14.4,14.4,0,0,1,0-3.71,11.23,11.23,0,0,1,.43-1.89,7.79,7.79,0,0,1,.83-1.75,5.91,5.91,0,0,1,3.21-2.46,7.94,7.94,0,0,1,2.56-.37,7.22,7.22,0,0,1,3.6.79,6.28,6.28,0,0,1,2.18,2,7.81,7.81,0,0,1,1.08,2.7,14.72,14.72,0,0,1,.29,2.8,15.21,15.21,0,0,1-.12,1.85,11.57,11.57,0,0,1-.43,1.92,8.59,8.59,0,0,1-.82,1.8,5.91,5.91,0,0,1-1.32,1.51,6.07,6.07,0,0,1-1.9,1A7.66,7.66,0,0,1,45.29,33Zm0-12.2a1.07,1.07,0,0,0-.81.33A2.4,2.4,0,0,0,44,22a5.3,5.3,0,0,0-.25,1.2,11.7,11.7,0,0,0-.07,1.3,12.1,12.1,0,0,0,.07,1.33A5.64,5.64,0,0,0,44,27.12a2.39,2.39,0,0,0,.49.91,1.05,1.05,0,0,0,.81.35,1.09,1.09,0,0,0,.82-.35,2.27,2.27,0,0,0,.5-.91,6.33,6.33,0,0,0,.23-1.25,12.1,12.1,0,0,0,.07-1.33,11.7,11.7,0,0,0-.07-1.3,5.94,5.94,0,0,0-.23-1.2,2.28,2.28,0,0,0-.5-.88A1.11,1.11,0,0,0,45.29,20.83Z"/><path class="cls-1" d="M61,33a7.73,7.73,0,0,1-2.57-.38,6,6,0,0,1-1.88-1,6.11,6.11,0,0,1-1.32-1.51,8.15,8.15,0,0,1-.83-1.8A10.54,10.54,0,0,1,54,26.4a14.4,14.4,0,0,1,0-3.71,10.33,10.33,0,0,1,.43-1.89,7.79,7.79,0,0,1,.83-1.75,5.72,5.72,0,0,1,1.32-1.46,5.91,5.91,0,0,1,1.88-1A8,8,0,0,1,61,16.22a7.22,7.22,0,0,1,3.6.79,6.37,6.37,0,0,1,2.18,2,7.81,7.81,0,0,1,1.08,2.7,14.72,14.72,0,0,1,.29,2.8,13.51,13.51,0,0,1-.13,1.85,10.62,10.62,0,0,1-.42,1.92,9.14,9.14,0,0,1-.82,1.8,5.89,5.89,0,0,1-3.22,2.54A7.66,7.66,0,0,1,61,33Zm0-12.2a1.07,1.07,0,0,0-.81.33,2.42,2.42,0,0,0-.5.88,5.31,5.31,0,0,0-.24,1.2,11.7,11.7,0,0,0-.07,1.3,12.1,12.1,0,0,0,.07,1.33,5.66,5.66,0,0,0,.24,1.25,2.4,2.4,0,0,0,.5.91,1.05,1.05,0,0,0,.81.35,1.09,1.09,0,0,0,.82-.35,2.14,2.14,0,0,0,.49-.91,6.3,6.3,0,0,0,.24-1.25,12.1,12.1,0,0,0,.07-1.33,11.7,11.7,0,0,0-.07-1.3,5.93,5.93,0,0,0-.24-1.2,2.15,2.15,0,0,0-.49-.88A1.11,1.11,0,0,0,61,20.83Z"/><path class="cls-1" d="M70,30a2.85,2.85,0,0,1,.23-1.13,3,3,0,0,1,1.62-1.55A2.87,2.87,0,0,1,73,27.12a2.64,2.64,0,0,1,1.11.24A3,3,0,0,1,75,28a3.16,3.16,0,0,1,.64.92A2.85,2.85,0,0,1,75.91,30a3,3,0,0,1-.23,1.15,2.91,2.91,0,0,1-.64.92,3.11,3.11,0,0,1-.94.61,2.78,2.78,0,0,1-1.11.22,3,3,0,0,1-1.16-.22,3.13,3.13,0,0,1-1-.61,2.79,2.79,0,0,1-.65-.92A3,3,0,0,1,70,30Z"/><path class="cls-1" d="M77.67,24.83H89.81v2.7H77.67Z"/><path class="cls-1" d="M77.82,20.34a2.19,2.19,0,0,1,.18-.9,2.13,2.13,0,0,1,.48-.7,2,2,0,0,1,.72-.44,2.55,2.55,0,0,1,.88-.16,2.72,2.72,0,0,1,.91.16,2,2,0,0,1,.72.42l-.86,1a.73.73,0,0,0-.29-.23,1,1,0,0,0-.4-.08.87.87,0,0,0-.32.06.75.75,0,0,0-.27.18.79.79,0,0,0-.18.29,1,1,0,0,0,0,.74,1.12,1.12,0,0,0,.18.28,1.27,1.27,0,0,0,.27.18.87.87,0,0,0,.32.06.9.9,0,0,0,.42-.1.91.91,0,0,0,.27-.24l.86,1a2.06,2.06,0,0,1-.69.45,2.59,2.59,0,0,1-1.82,0,2.2,2.2,0,0,1-.72-.45,2.09,2.09,0,0,1-.48-.69A2.19,2.19,0,0,1,77.82,20.34Z"/><path class="cls-1" d="M84.63,20.84H83.49v1.58H82.1V18.26h1.39v1.41h1.14V18.26H86v4.16h-1.4Z"/><path class="cls-1" d="M88.18,19.86h1.27V21H88.18v1.41H86.81V18.26h2.81v1.17H88.18Z"/><path class="cls-1" d="M3.79,10a3.22,3.22,0,0,1-1.33-.25,2.8,2.8,0,0,1-.93-.68,2.91,2.91,0,0,1-.55-1A3.67,3.67,0,0,1,.8,7V2.15H1.88V6.92a2.86,2.86,0,0,0,.1.77,2,2,0,0,0,.31.69,1.67,1.67,0,0,0,.59.49,2,2,0,0,0,.91.18,2.06,2.06,0,0,0,.9-.18,1.67,1.67,0,0,0,.59-.49,2,2,0,0,0,.32-.69,3.31,3.31,0,0,0,.09-.77V2.15H6.77V7a3.67,3.67,0,0,1-.18,1.14,2.75,2.75,0,0,1-.55,1,2.61,2.61,0,0,1-.93.68A3.21,3.21,0,0,1,3.79,10ZM2.06.66A.68.68,0,0,1,2.25.2.66.66,0,0,1,2.73,0a.65.65,0,0,1,.48.19.63.63,0,0,1,.2.47.61.61,0,0,1-.2.46.65.65,0,0,1-.48.19.62.62,0,0,1-.48-.2A.65.65,0,0,1,2.06.66Zm2.11,0A.63.63,0,0,1,4.36.2.63.63,0,0,1,4.84,0a.65.65,0,0,1,.48.19.63.63,0,0,1,.19.47.6.6,0,0,1-.19.46.65.65,0,0,1-.48.19.59.59,0,0,1-.48-.2A.61.61,0,0,1,4.17.66Z"/><path class="cls-1" d="M9.66,2.15h2.65a4.28,4.28,0,0,1,.87.09,2.33,2.33,0,0,1,.77.33,1.7,1.7,0,0,1,.56.6,1.82,1.82,0,0,1,.21.92,1.64,1.64,0,0,1-.37,1.07,1.9,1.9,0,0,1-1,.6v0a2.2,2.2,0,0,1,.69.19,1.94,1.94,0,0,1,.54.38,1.65,1.65,0,0,1,.35.57,2.11,2.11,0,0,1,.13.73,2,2,0,0,1-.23,1,2,2,0,0,1-.62.68,2.85,2.85,0,0,1-.92.4,4.47,4.47,0,0,1-1.12.13H9.66Zm1.08,3.24h1.4a2.25,2.25,0,0,0,.58-.07,1.51,1.51,0,0,0,.48-.22,1,1,0,0,0,.32-.37,1.07,1.07,0,0,0,.12-.53,1,1,0,0,0-.45-.89A2.53,2.53,0,0,0,12,3.05H10.74Zm0,3.52h1.34a3.91,3.91,0,0,0,.68-.06,2.06,2.06,0,0,0,.62-.21,1.21,1.21,0,0,0,.44-.4A1.18,1.18,0,0,0,14,7.59a1.11,1.11,0,0,0-.47-1,2.46,2.46,0,0,0-1.34-.3H10.74Z"/><path class="cls-1" d="M18.78,8.87h4v1H17.71V2.15h4.92v.94H18.78v2.3h3.63v.92H18.78Z"/><path class="cls-1" d="M26.38,9.82H25.31V2.15h2.46a5.22,5.22,0,0,1,1.06.11,2.84,2.84,0,0,1,.87.36,1.88,1.88,0,0,1,.59.66,2.13,2.13,0,0,1,.22,1A1.88,1.88,0,0,1,30,5.64a2.4,2.4,0,0,1-1.35.66l2.15,3.52h-1.3l-2-3.41H26.38Zm0-4.31h1.24a3.23,3.23,0,0,0,.71-.07,1.77,1.77,0,0,0,.57-.21,1.06,1.06,0,0,0,.38-.38,1.13,1.13,0,0,0,.14-.58,1.16,1.16,0,0,0-.14-.58,1.09,1.09,0,0,0-.37-.37,1.57,1.57,0,0,0-.55-.2,3.52,3.52,0,0,0-.66-.06H26.38Z"/><path class="cls-1" d="M106.09,27.46v5.12h-5.32V16.67h6.83a11.12,11.12,0,0,1,2.38.25,6.22,6.22,0,0,1,2.09.88,4.62,4.62,0,0,1,1.49,1.64,5.38,5.38,0,0,1,.56,2.58,5.27,5.27,0,0,1-.55,2.52,4.86,4.86,0,0,1-1.46,1.68,6.13,6.13,0,0,1-2.09,1,10.34,10.34,0,0,1-2.42.29Zm0-6.63v2.56h1.13a2.15,2.15,0,0,0,1.11-.3,1.11,1.11,0,0,0,.51-1,1.26,1.26,0,0,0-.14-.62,1,1,0,0,0-.37-.37,1.75,1.75,0,0,0-.53-.19,2.84,2.84,0,0,0-.58-.05Z"/><path class="cls-1" d="M116.14,16.67H123a11.44,11.44,0,0,1,2.33.23,6.12,6.12,0,0,1,2.07.83,4.63,4.63,0,0,1,1.47,1.6,5.12,5.12,0,0,1,.56,2.51,4.51,4.51,0,0,1-2.78,4.29l4,6.45h-6.15l-3.05-5.68h-.15v5.68h-5.2Zm5.15,6.72h1a4.27,4.27,0,0,0,.59-.05,1.69,1.69,0,0,0,.6-.19,1.21,1.21,0,0,0,.47-.4,1.11,1.11,0,0,0,.19-.69,1.28,1.28,0,0,0-.15-.67,1,1,0,0,0-.41-.37,1.36,1.36,0,0,0-.53-.16l-.54,0h-1.27Z"/><path class="cls-1" d="M136.63,16.67h5.68l6.21,15.91H142.7l-.84-2.33H136.8L136,32.58h-5.67Zm-2.19-3.38a2.06,2.06,0,0,1,.18-.85,2.23,2.23,0,0,1,.5-.71,2.52,2.52,0,0,1,.72-.48,2.17,2.17,0,0,1,1.73,0,2.26,2.26,0,0,1,1.19,1.19,2.14,2.14,0,0,1,0,1.72,2.57,2.57,0,0,1-.48.7,2.15,2.15,0,0,1-.71.47,2.27,2.27,0,0,1-.86.17,2.23,2.23,0,0,1-1.6-.63A2.11,2.11,0,0,1,134.44,13.29Zm4.95,8.93-1.3,3.93h2.58Zm.65-8.93a2.06,2.06,0,0,1,.18-.85,2.23,2.23,0,0,1,.5-.71,2.52,2.52,0,0,1,.72-.48,2.17,2.17,0,0,1,1.73,0,2.47,2.47,0,0,1,.71.48,2.34,2.34,0,0,1,.48.71,2.14,2.14,0,0,1,0,1.72,2.57,2.57,0,0,1-.48.7,2.23,2.23,0,0,1-1.57.64,2.23,2.23,0,0,1-1.6-.63A2.07,2.07,0,0,1,140,13.29Z"/><path class="cls-1" d="M154.39,23.59l.24,9h-5V16.67h7l2.88,8.56h.12l2.5-8.56h7.22V32.58h-5.22l.16-8.94-.13,0-3,9h-3.78l-2.92-9Z"/><path class="cls-1" d="M172.31,16.67h5.39V32.58h-5.39Z"/><path class="cls-1" d="M180.67,16.67h11v4.45h-5.91v1.37h5.55v4.16h-5.55v1.48H192v4.45H180.67Z"/></g></g></svg>