<svg xmlns="http://www.w3.org/2000/svg" xmlns:xlink="http://www.w3.org/1999/xlink" viewBox="0 0 356.66 392.55"><defs><style>.cls-1{fill:url(#linear-gradient);}.cls-2{fill:url(#linear-gradient-2);}.cls-3{fill:url(#linear-gradient-3);}.cls-4{fill:url(#linear-gradient-4);}.cls-5{fill:url(#linear-gradient-5);}.cls-6{fill:url(#linear-gradient-6);}.cls-7{fill:url(#linear-gradient-7);}.cls-8{fill:url(#linear-gradient-8);}.cls-9{fill:url(#linear-gradient-9);}.cls-10{fill:url(#linear-gradient-10);}.cls-11{fill:url(#linear-gradient-11);}.cls-12{fill:url(#linear-gradient-12);}.cls-13{fill:url(#linear-gradient-13);}.cls-14{fill:url(#linear-gradient-14);}.cls-15{fill:url(#linear-gradient-15);}.cls-16{fill:url(#linear-gradient-16);}.cls-17{fill:url(#linear-gradient-17);}.cls-18{fill:url(#linear-gradient-18);}.cls-19{fill:url(#linear-gradient-19);}.cls-20{fill:url(#linear-gradient-20);}.cls-21{fill:url(#linear-gradient-21);}.cls-22{fill:url(#linear-gradient-22);}.cls-23{fill:url(#linear-gradient-23);}.cls-24{fill:url(#linear-gradient-24);}.cls-25{fill:url(#linear-gradient-25);}.cls-26{fill:url(#linear-gradient-26);}.cls-27{fill:url(#linear-gradient-27);}.cls-28{fill:url(#linear-gradient-28);}.cls-29{fill:url(#linear-gradient-29);}.cls-30{fill:url(#linear-gradient-30);}.cls-31{fill:url(#linear-gradient-31);}.cls-32{fill:url(#linear-gradient-32);}.cls-33{fill:url(#linear-gradient-33);}.cls-34{fill:url(#linear-gradient-34);}.cls-35{fill:url(#linear-gradient-35);}.cls-36{fill:url(#linear-gradient-36);}.cls-37{fill:url(#linear-gradient-37);}.cls-38{fill:url(#linear-gradient-38);}.cls-39{fill:url(#linear-gradient-39);}.cls-40{fill:url(#linear-gradient-40);}.cls-41{fill:url(#linear-gradient-41);}.cls-42{fill:url(#linear-gradient-42);}</style><linearGradient id="linear-gradient" x1="139.94" y1="0.64" x2="183.48" y2="132.13" gradientTransform="matrix(0.94, -0.34, 0.34, 0.94, -42.03, 132.15)" gradientUnits="userSpaceOnUse"><stop offset="0" stop-color="#0d3970"/><stop offset="0.18" stop-color="#0b305f"/><stop offset="0.46" stop-color="#082649"/><stop offset="0.74" stop-color="#071f3c"/><stop offset="1" stop-color="#061d38"/></linearGradient><linearGradient id="linear-gradient-2" x1="173.08" y1="-12.2" x2="168.73" y2="174.44" gradientTransform="matrix(0.94, -0.34, 0.34, 0.94, -42.03, 132.15)" gradientUnits="userSpaceOnUse"><stop offset="0" stop-color="#0a2e5c"/><stop offset="1" stop-color="#061d38"/></linearGradient><linearGradient id="linear-gradient-3" x1="347.19" y1="788.44" x2="391.88" y2="923.39" gradientTransform="matrix(0.71, 0.43, -0.43, 0.72, 369.02, -622.36)" xlink:href="#linear-gradient-2"/><linearGradient id="linear-gradient-4" x1="294.76" y1="-84.79" x2="142.6" y2="52.06" gradientTransform="matrix(0.83, -0.45, 0.27, 0.85, 91.43, 272.54)" xlink:href="#linear-gradient"/><linearGradient id="linear-gradient-5" x1="1920.52" y1="319.22" x2="1964.06" y2="450.72" gradientTransform="matrix(-0.66, -0.01, -0.01, 0.86, 1502.75, -171.11)" xlink:href="#linear-gradient-2"/><linearGradient id="linear-gradient-6" x1="1953.66" y1="306.38" x2="1949.31" y2="493.03" gradientTransform="matrix(-0.66, -0.01, -0.01, 0.86, 1502.75, -171.11)" xlink:href="#linear-gradient"/><linearGradient id="linear-gradient-7" x1="172.16" y1="2.09" x2="188.41" y2="163.19" xlink:href="#linear-gradient"/><linearGradient id="linear-gradient-8" x1="204.81" y1="-56.63" x2="169.98" y2="171.52" xlink:href="#linear-gradient-2"/><linearGradient id="linear-gradient-9" x1="398.06" y1="-685.69" x2="412.98" y2="-537.84" gradientTransform="matrix(0.44, -0.9, 0.74, 0.36, 387.37, 819.86)" xlink:href="#linear-gradient-2"/><linearGradient id="linear-gradient-10" x1="426.26" y1="-745.6" x2="393.55" y2="-531.31" gradientTransform="matrix(0.44, -0.9, 0.74, 0.36, 387.37, 819.86)" xlink:href="#linear-gradient"/><linearGradient id="linear-gradient-11" x1="1340.38" y1="488.71" x2="1356.49" y2="648.36" gradientTransform="matrix(-1.22, -0.24, -0.15, 0.78, 1962.64, 42.08)" xlink:href="#linear-gradient-2"/><linearGradient id="linear-gradient-12" x1="1371.14" y1="428.2" x2="1336.31" y2="656.35" gradientTransform="matrix(-1.22, -0.24, -0.15, 0.78, 1962.64, 42.08)" xlink:href="#linear-gradient"/><linearGradient id="linear-gradient-13" x1="80.72" y1="6.56" x2="177.09" y2="136.02" xlink:href="#linear-gradient-2"/><linearGradient id="linear-gradient-14" x1="102.41" y1="-4.97" x2="165.54" y2="141.33" xlink:href="#linear-gradient"/><linearGradient id="linear-gradient-15" x1="95.63" y1="3.32" x2="185.9" y2="133.65" xlink:href="#linear-gradient"/><linearGradient id="linear-gradient-16" x1="121.75" y1="1.95" x2="174.58" y2="140.41" xlink:href="#linear-gradient-2"/><linearGradient id="linear-gradient-17" x1="54.61" y1="-341.7" x2="144.89" y2="-211.36" gradientTransform="matrix(0.67, -0.69, 0.63, 0.62, 188.84, 453.68)" xlink:href="#linear-gradient-2"/><linearGradient id="linear-gradient-18" x1="80.73" y1="-343.07" x2="133.56" y2="-204.6" gradientTransform="matrix(0.67, -0.69, 0.63, 0.62, 188.84, 453.68)" xlink:href="#linear-gradient"/><linearGradient id="linear-gradient-19" x1="226.24" y1="407.35" x2="316.51" y2="537.69" gradientTransform="matrix(0.89, 0.14, -0.14, 0.88, 15.04, -319.16)" xlink:href="#linear-gradient"/><linearGradient id="linear-gradient-20" x1="252.35" y1="405.98" x2="305.19" y2="544.45" gradientTransform="matrix(0.89, 0.14, -0.14, 0.88, 15.04, -319.16)" xlink:href="#linear-gradient-2"/><linearGradient id="linear-gradient-21" x1="743.12" y1="1076.95" x2="833.39" y2="1207.27" gradientTransform="matrix(0.52, 0.67, -0.58, 0.45, 521.16, -861.92)" xlink:href="#linear-gradient"/><linearGradient id="linear-gradient-22" x1="769.24" y1="1075.58" x2="822.07" y2="1214.03" gradientTransform="matrix(0.52, 0.67, -0.58, 0.45, 521.16, -861.92)" xlink:href="#linear-gradient-2"/><linearGradient id="linear-gradient-23" x1="1307.78" y1="-1100.26" x2="1398.05" y2="-969.93" gradientTransform="matrix(0.07, 0.85, 0.73, -0.06, 755.14, -955.97)" xlink:href="#linear-gradient"/><linearGradient id="linear-gradient-24" x1="1333.9" y1="-1101.63" x2="1386.72" y2="-963.17" gradientTransform="matrix(0.07, 0.85, 0.73, -0.06, 755.14, -955.97)" xlink:href="#linear-gradient-2"/><linearGradient id="linear-gradient-25" x1="346.12" y1="748.76" x2="436.39" y2="879.09" gradientTransform="matrix(0.68, 0.39, -0.41, 0.7, 305.4, -573.31)" xlink:href="#linear-gradient"/><linearGradient id="linear-gradient-26" x1="372.23" y1="747.39" x2="425.06" y2="885.85" gradientTransform="matrix(0.68, 0.39, -0.41, 0.7, 305.4, -573.31)" xlink:href="#linear-gradient-2"/><linearGradient id="linear-gradient-27" x1="214.92" y1="3.6" x2="181.54" y2="169.64" xlink:href="#linear-gradient-2"/><linearGradient id="linear-gradient-28" x1="198.68" y1="-38.52" x2="196.07" y2="187.89" xlink:href="#linear-gradient"/><linearGradient id="linear-gradient-29" x1="415.7" y1="-1019.91" x2="380.88" y2="-846.69" gradientTransform="matrix(0.16, -0.68, 0.7, 0.16, 701.41, 669.27)" xlink:href="#linear-gradient"/><linearGradient id="linear-gradient-30" x1="397.11" y1="-1065.59" x2="394.36" y2="-827.27" gradientTransform="matrix(0.16, -0.68, 0.7, 0.16, 701.41, 669.27)" xlink:href="#linear-gradient-2"/><linearGradient id="linear-gradient-31" x1="377.48" y1="157.46" x2="200.8" y2="211.62" gradientTransform="translate(-41.67 137.16) rotate(-19.99)" xlink:href="#linear-gradient-2"/><linearGradient id="linear-gradient-32" x1="288.49" y1="150.29" x2="255.57" y2="218.77" gradientTransform="translate(-41.67 137.16) rotate(-19.99)" xlink:href="#linear-gradient"/><linearGradient id="linear-gradient-33" x1="1816.83" y1="-248.2" x2="1783.45" y2="-82.17" gradientTransform="matrix(-0.8, 0.6, 0.58, 0.78, 1656.49, -765.95)" xlink:href="#linear-gradient-2"/><linearGradient id="linear-gradient-34" x1="1800.59" y1="-290.33" x2="1797.98" y2="-63.92" gradientTransform="matrix(-0.8, 0.6, 0.58, 0.78, 1656.49, -765.95)" xlink:href="#linear-gradient"/><linearGradient id="linear-gradient-35" x1="1598.66" y1="-311.27" x2="1565.5" y2="-146.33" gradientTransform="matrix(-0.75, 0.72, 0.63, 0.66, 1451.94, -790.09)" xlink:href="#linear-gradient-2"/><linearGradient id="linear-gradient-36" x1="57.59" y1="23.1" x2="176.6" y2="180.42" xlink:href="#linear-gradient"/><linearGradient id="linear-gradient-37" x1="1313.78" y1="-1082.28" x2="1279.63" y2="-912.45" gradientTransform="matrix(-0.09, 0.82, 0.66, 0.07, 886.54, -716.6)" xlink:href="#linear-gradient-2"/><linearGradient id="linear-gradient-38" x1="47.65" y1="-734.37" x2="163.37" y2="-581.39" gradientTransform="matrix(0.37, -0.69, 0.62, 0.39, 480.4, 607.28)" xlink:href="#linear-gradient"/><linearGradient id="linear-gradient-39" x1="246.56" y1="-25.19" x2="186.04" y2="218.63" xlink:href="#linear-gradient-2"/><linearGradient id="linear-gradient-40" x1="236.75" y1="-56" x2="196.69" y2="191.31" xlink:href="#linear-gradient"/><linearGradient id="linear-gradient-41" x1="184.26" y1="215.76" x2="177.29" y2="338.98" gradientTransform="matrix(1, -0.05, 0.05, 1, 27.27, 64.56)" gradientUnits="userSpaceOnUse"><stop offset="0" stop-color="#061d38"/><stop offset="1" stop-color="#0a2e5c"/></linearGradient><linearGradient id="linear-gradient-42" x1="180.18" y1="225.79" x2="198.7" y2="225.79" gradientTransform="translate(-43.3 111.87) rotate(-16.99)" gradientUnits="userSpaceOnUse"><stop offset="0.05" stop-color="#061d38"/><stop offset="1" stop-color="#061d38"/></linearGradient></defs><title>l3</title><g id="Layer_2" data-name="Layer 2"><g id="leaves_state_1-3" data-name="leaves state 1-3"><path class="cls-1" d="M206.13,278.27s-52.34-103-59.75-117.66C139.16,146.36,88.22,41.18,85.65,35.85c1.52,2.47,16.57,27.43,23.61,40.86a1.17,1.17,0,0,0,.12.25c1.19,2.43,2,4.05,2.19,4.44a.41.41,0,0,1,.05.09s65.92,129.73,94.12,195.84l.26.62C206,278.06,206.09,278.15,206.13,278.27Z"/><path class="cls-2" d="M205.74,277.33c-28.2-66.11-94.12-195.84-94.12-195.84a.41.41,0,0,0-.05-.09c-.2-.39-1-2-2.19-4.44a1.17,1.17,0,0,1-.12-.25C103.72,65.5,90.35,37.94,89.55,32.36c0,0,60.12,110.74,66.18,123.36C161.46,167.68,201.45,266.7,205.74,277.33Z"/><path class="cls-3" d="M206.09,276.5c19.18-33.84,37.07-68.54,53.77-103.42,17-35.59,33.6-71.64,48.37-108.24-.68,2.33-7.9,25.73-12.65,37.7,0,.08-.06.15-.09.22-.91,2.11-1.51,3.52-1.65,3.87,0,0,0,.05,0,.08-24.2,58.2-52.65,115.88-87.21,169-.14.21-.25.39-.33.5S206.16,276.41,206.09,276.5Z"/><path class="cls-4" d="M206.6,275.74s63-110.83,87.21-169c0,0,0,0,0-.08.14-.35.74-1.76,1.65-3.87,0-.07.05-.14.09-.22,4.15-9.79,9.57-24.07,12.63-27.76-11.82,34.16-24.16,69.84-39.92,101.49C251.48,210,206.6,275.74,206.6,275.74Z"/><path class="cls-5" d="M206.18,276.74s10.62-98,12.11-111.93C219.74,151.26,229,51.9,229.49,46.86c-.41,2.43-4.46,26.85-6,39.68a1.66,1.66,0,0,1,0,.24c-.22,2.3-.38,3.83-.41,4.2a.15.15,0,0,0,0,.09S209.68,214.5,206.22,275.88q0,.36,0,.57C206.19,276.55,206.18,276.64,206.18,276.74Z"/><path class="cls-6" d="M206.22,275.88c3.46-61.38,16.84-184.81,16.84-184.81a.15.15,0,0,1,0-.09c0-.37.19-1.9.41-4.2a1.66,1.66,0,0,0,0-.24c1.06-10.61,3.51-36.66,2.82-41.39,0,0-13.81,106.44-14.9,118.35C210.42,174.78,206.63,266.07,206.22,275.88Z"/><path class="cls-7" d="M206.16,277.48a3.7,3.7,0,0,1,.21.7s-53.39-136.59-67.06-173C126.49,71.05,102.91,24.07,100,18.34L138,89.71s22.27,61.16,29.67,81.17C174.71,190,203.41,269.07,206.16,277.48Z"/><path class="cls-8" d="M206.16,277.48c-2.75-8.41-31.45-87.49-38.52-106.6-7.4-20-29.67-81.17-29.67-81.17C112.63,27.48,109.54,10.4,109.54,10.4c2.52,6.71,52.29,126.63,56.92,138.24C170.87,159.71,203.23,267.71,206.16,277.48Z"/><path class="cls-9" d="M205.52,277.74a3.37,3.37,0,0,1,.53.3S95.38,228.92,66.25,215.41A525.86,525.86,0,0,0,10.77,193.3l35.37,8.29s59.94,26,75.87,33.55C137.23,242.3,199.06,274.33,205.52,277.74Z"/><path class="cls-10" d="M205.52,277.74c-6.46-3.41-69.07-33.45-84.29-40.62-15.93-7.5-64.4-30.68-64.4-30.68C5.73,184.79,6.18,183.65,6.18,183.65c5.37,2.5,92.54,35.92,102,40C117.21,227.6,198.19,273.58,205.52,277.74Z"/><path class="cls-11" d="M206.87,276.67a2.69,2.69,0,0,0-.07.58s27.37-114.09,34-144.48c6.22-28.48,12.86-68.2,14.79-73l-17.33,60.3s-10.3,51-13.79,67.71C221.1,203.71,207.92,269.66,206.87,276.67Z"/><path class="cls-12" d="M206.87,276.67c1-7,14.23-73,17.58-88.91,3.49-16.69,13.79-67.71,13.79-67.71C251.92,68,251,53.91,251,53.91c-1.22,5.61-28.72,105.9-31.15,115.6C217.57,178.76,207.76,268.54,206.87,276.67Z"/><path class="cls-13" d="M205.08,278.44c-9.26-10.5-95.89-119.85-114.26-143.39C72.3,111.33,42,60.85,41,59.26c.23.27,1.93,2.38,4.51,5.56l0,0a.31.31,0,0,1,.08.11c2.2,3,38,52.58,60.51,80.8,20.57,25.82,79.49,104.61,95.56,127a.86.86,0,0,0,.07.1C203,274.82,204.05,276.66,205.08,278.44Z"/><path class="cls-14" d="M201.73,272.8c-16.07-22.42-75-101.21-95.56-127C83.65,117.55,47.86,68,45.66,65c9.7,11.93,31.45,38.7,34.39,41.91,3.82,4.19,52.36,63.68,65.34,81.23C157.47,204.46,185.2,245.23,201.73,272.8Z"/><path class="cls-15" d="M205.51,278.23s0,0-.06-.05l-.22-.37c0-.09-.12-.17-.17-.27C199.1,268,147.45,185,134.89,164,121.52,141.73,63.05,54.59,62.21,49l0,.06L74.77,67.72s58.38,82,67.36,98.89C150.88,183,202.67,273.31,205.51,278.23Z"/><path class="cls-16" d="M205.51,278.23c-2.84-4.92-54.63-95.2-63.38-111.62-9-16.89-67.36-98.89-67.36-98.89L62.25,49.05c1.82,2.29,60.37,76.14,79.61,108.41C160.86,189.3,203.08,273.38,205.51,278.23Z"/><path class="cls-17" d="M206.27,278.66a.06.06,0,0,1-.07,0,3,3,0,0,0-.32-.2c-.08-.06-.17-.1-.25-.15-8.59-5.21-83-50.15-101.39-61.73C84.68,204.29,3,158.93.17,154.74l0,0,17.51,9.72s79.76,41.2,93.61,51C124.82,225.05,202.05,275.9,206.27,278.66Z"/><path class="cls-18" d="M206.27,278.66c-4.22-2.76-81.45-53.61-94.93-63.15-13.85-9.82-93.61-51-93.61-51L.22,154.77c2.39,1.07,79.28,35.55,107.51,53.4C135.59,225.78,202.43,275.78,206.27,278.66Z"/><path class="cls-19" d="M207.82,276.14s0,0,0-.07,0-.23,0-.38,0-.19,0-.28c-.56-10.06-5.53-97.13-6.4-118.93-.94-23.16-9.52-116.43-7.75-121.16v.06l1.83,20S206.18,144.58,206,161.64C205.79,178.24,207.7,271.07,207.82,276.14Z"/><path class="cls-20" d="M207.82,276.14c-.12-5.07-2-97.9-1.85-114.5.21-17.06-10.53-106.27-10.53-106.27l-1.83-20c.45,2.57,14.86,85.5,16.12,119C211,187.44,208,271.31,207.82,276.14Z"/><path class="cls-21" d="M205.56,277.85a.07.07,0,0,1,0-.06c.06-.06.12-.15.2-.24l.14-.19C211.07,270.8,255.58,214,267,200c12.09-14.87,57.6-77.86,61.38-79.62l0,0-9.75,13.49s-41.82,61.91-51.34,72.27C258,216.27,208.26,274.65,205.56,277.85Z"/><path class="cls-22" d="M205.56,277.85c2.7-3.2,52.44-61.58,61.68-71.68,9.52-10.36,51.34-72.27,51.34-72.27l9.75-13.49c-1.11,1.88-37,62.3-54.57,83.74C256.44,225.32,208.33,275,205.56,277.85Z"/><path class="cls-23" d="M205.19,276.83a.05.05,0,0,0-.05,0l-.31-.05a2,2,0,0,1-.24,0c-8.23-1.35-79.43-13.18-97.28-15.8-19-2.79-95.07-18.5-99-17.24h.05L24.62,247s72.65,17.39,86.67,18.61C124.93,266.85,201,276.3,205.19,276.83Z"/><path class="cls-24" d="M205.19,276.83c-4.15-.53-80.26-10-93.9-11.18C97.27,264.43,24.62,247,24.62,247L8.31,243.68c2.09.63,69.38,20.93,96.81,24.88C132.19,272.47,201.21,276.6,205.19,276.83Z"/><path class="cls-25" d="M206.8,277.25s0,0,0-.06l.11-.33c0-.08.05-.17.08-.25,2.88-8.7,27.74-84.05,34.26-102.8,6.93-19.92,30.92-101.62,33.92-105.1v.05L270,86.26s-20.89,78.92-26.72,93.32C237.65,193.61,208.39,272.92,206.8,277.25Z"/><path class="cls-26" d="M206.8,277.25c1.59-4.33,30.85-83.64,36.5-97.67C249.13,165.18,270,86.26,270,86.26l5.15-17.5c-.49,2.32-16.31,77-26.4,105.8C238.81,203,208.55,273.21,206.8,277.25Z"/><path class="cls-27" d="M184.11,156.19c4.21,15.51,21.39,114.29,22.47,120.45L157.28,74.58,138.54,0C145.77,15.69,179.76,140.17,184.11,156.19Z"/><path class="cls-28" d="M157.28,74.58l49.3,202.06,0,.11a.87.87,0,0,1,0,.19c-2.13-5.95-28.71-101.88-31.35-112.5S137.1,12,137.1,12,147.21,38.74,157.28,74.58Z"/><path class="cls-29" d="M114.77,249.42c29.61,8.62,59.77,19.71,90.17,28.45A1432.41,1432.41,0,0,1,52.2,233.8C34.59,227.44,17.32,220.89,0,214,38.6,224.72,77.15,238.45,114.77,249.42Z"/><path class="cls-30" d="M52.2,233.8a1432.41,1432.41,0,0,0,152.74,44.07l.08,0,.15,0a862.46,862.46,0,0,1-88.75-20.21,1142.28,1142.28,0,0,1-110.29-38C21.6,224.16,36.89,229,52.2,233.8Z"/><path class="cls-31" d="M278.28,230.41c-21.64,17.38-47.24,32-71.78,46.23q58-40.69,112.13-86.12,19.35-16.76,38-34.35C335.18,184.41,305.22,208.78,278.28,230.41Z"/><path class="cls-32" d="M318.63,190.52q-54.27,45.57-112.13,86.12l-.06,0-.12.07c20.56-16.69,41.37-33.67,61.76-50,26.48-21.16,53.76-42.92,79.46-65.8C347.54,161,336.69,173.45,318.63,190.52Z"/><path class="cls-33" d="M118.5,193.37c10.26,11.68,81,78.09,85.42,82.24L67.13,128.1,17,73.22C25.66,87.47,107.91,181.32,118.5,193.37Z"/><path class="cls-34" d="M67.13,128.1,203.92,275.61l.08.07.14.13c-3.65-4.91-66.81-77.55-74-85.34L27.5,78.36S43.62,100.85,67.13,128.1Z"/><path class="cls-35" d="M115,211.72c11.12,9.72,86.75,62.9,91.46,66.23L58.8,156.37,5.28,113C15.05,125.5,103.53,201.68,115,211.72Z"/><path class="cls-36" d="M58.8,156.37,206.47,278l.08.05.15.1c-4-4.19-72.54-64.77-80.28-71.21S3.91,102.37,3.91,102.37,33.27,133.61,58.8,156.37Z"/><path class="cls-37" d="M116.81,288.13c29.85-.86,60.62-5.85,90-11A1385.73,1385.73,0,0,1,64,284.72c-16.82.07-33.77-.26-50.61-1C46.71,290.21,83.82,289.08,116.81,288.13Z"/><path class="cls-38" d="M64,284.72a1385.73,1385.73,0,0,0,142.77-7.63h.07l.14,0c-34.12,1.95-68.47,2.91-102.44,3.69-28.24.64-57.23-.39-85.75-2.49A245.61,245.61,0,0,0,64,284.72Z"/><path class="cls-39" d="M176.32,20.46c6.37,34.69,22,120.32,23.06,133.64,1.4,16.71,9.6,90,7.86,122-.38-10-21.62-178-21.62-178s0,0,0-.07a.34.34,0,0,0,0-.14c-.06-1.2-.23-2.79-.48-4.68,0-.12,0-.24,0-.37s0-.22,0-.32C183.61,78.74,179.78,42.79,176.32,20.46Z"/><path class="cls-40" d="M169.14,9.6c.84,3.94,13,61.35,15.9,82.87,0,.1,0,.21,0,.32s0,.25,0,.37c.25,1.89.42,3.48.48,4.68a.34.34,0,0,1,0,.14c0,.06,0,.07,0,.07s21.24,168.06,21.62,178.05a1.41,1.41,0,0,0,0,.2.73.73,0,0,1,0,.23c-.18,2.89-16.58-105.79-18.33-121.59C187.21,139.5,170,15.42,169.14,9.6Z"/><rect class="cls-41" x="219.99" y="272.89" width="4.35" height="121.6" transform="translate(-86.75 78.19) rotate(-16.75)"/><polygon class="cls-42" points="203.14 278.14 196.64 278.19 197.92 276.91 195.14 275.58 198.13 274.27 196.06 273.06 198.23 272.82 197.36 270.51 199.38 270.71 198.71 268.61 200.76 270.63 199.74 268.19 201.99 269.63 201.65 267.89 203.31 268.58 204.22 267.27 206.03 269.47 206.37 267.31 207.46 269.09 208.43 268.08 209.29 270.48 211.35 270.61 210.78 272.44 213.35 271.81 207.24 276.72 203.14 278.14"/></g></g></svg>