<svg id="Layer_1" data-name="Layer 1" xmlns="http://www.w3.org/2000/svg" xmlns:xlink="http://www.w3.org/1999/xlink" viewBox="0 0 970 250"><defs><style>.cls-1{fill:none;}.cls-2{clip-path:url(#clip-path);}.cls-3{clip-path:url(#clip-path-3);}.cls-4{clip-path:url(#clip-path-4);}.cls-5{clip-path:url(#clip-path-5);}.cls-6{clip-path:url(#clip-path-7);}.cls-7{clip-path:url(#clip-path-8);}.cls-8{clip-path:url(#clip-path-9);}.cls-9{fill:#221e1f;}.cls-10{fill:#fff;}.cls-11{clip-path:url(#clip-path-10);}.cls-12{clip-path:url(#clip-path-12);}.cls-13{clip-path:url(#clip-path-13);}</style><clipPath id="clip-path"><rect class="cls-1" x="-2970" width="970" height="250"/></clipPath><clipPath id="clip-path-3"><rect class="cls-1" x="-2408.06" y="129.11" width="121.62" height="120.89"/></clipPath><clipPath id="clip-path-4"><rect class="cls-1" x="-35738" y="-32517" width="65535" height="65535"/></clipPath><clipPath id="clip-path-5"><rect class="cls-1" x="-1980" width="970" height="250"/></clipPath><clipPath id="clip-path-7"><rect class="cls-1" x="-1418.06" y="129.11" width="121.62" height="120.89"/></clipPath><clipPath id="clip-path-8"><rect class="cls-1" x="-34748" y="-32517" width="65535" height="65535"/></clipPath><clipPath id="clip-path-9"><rect class="cls-1" width="970" height="250"/></clipPath><clipPath id="clip-path-10"><rect class="cls-1" x="990" width="970" height="250"/></clipPath><clipPath id="clip-path-12"><rect class="cls-1" x="1551.94" y="129.11" width="121.62" height="120.89"/></clipPath><clipPath id="clip-path-13"><rect class="cls-1" x="-31778" y="-32517" width="65535" height="65535"/></clipPath></defs><g class="cls-8"><path class="cls-9" d="M595.52,113.84v-1.26a4,4,0,0,1-2.33-1,2.8,2.8,0,0,1-.91-2.21l1.86-.07a1.71,1.71,0,0,0,1.38,1.64v-2l-.69-.12a2.42,2.42,0,0,1-2.33-2.46c0-1.59,1.18-2.61,3-2.72v-1.08h1v1.09a3,3,0,0,1,3,3.05l-1.82,0a1.5,1.5,0,0,0-1.16-1.47v1.94l.6.11c1.75.31,2.56,1.13,2.56,2.54a2.26,2.26,0,0,1-.91,1.93,4,4,0,0,1-2.25.75v1.23Zm0-6.74v-1.85c-.69.07-1.08.4-1.08,1S594.91,107,595.52,107.1Zm1,2.08V111c.72-.07,1.2-.41,1.2-1S597.27,109.29,596.55,109.18Z"/><path class="cls-9" d="M613.23,113.33h2.35v3.48h-2.35v3.85h-4.07v-3.85h-8.55V113l7.62-9.57h5Zm-9.1,0h5v-6.25Z"/><path class="cls-9" d="M616.78,116.4h4.27v4.26h-4.27Z"/><path class="cls-9" d="M634.52,107.08H627c0,.38-.08.87-.16,1.5s-.17,1.09-.25,1.45a4.7,4.7,0,0,1,3.25-1,5.61,5.61,0,0,1,4.48,1.72,6.08,6.08,0,0,1,1.51,4.21,5.65,5.65,0,0,1-1.86,4.43,6.79,6.79,0,0,1-4.67,1.64c-4.46,0-6.89-2.49-6.75-6.4l4,.3a2.72,2.72,0,1,0,2.78-2.78,2.73,2.73,0,0,0-2.51,1.33l-4-.3c.19-1.17.44-2.7.68-4.64a49.11,49.11,0,0,0,.44-5.06h10.63Z"/><path class="cls-9" d="M650.1,118.66a7.83,7.83,0,0,1-11.15,0c-1.4-1.55-2.08-3.77-2.08-6.61a9.51,9.51,0,0,1,2.08-6.59,7.79,7.79,0,0,1,11.15,0,9.56,9.56,0,0,1,2.07,6.59C652.17,114.89,651.49,117.11,650.1,118.66Zm-5.58-12.21c-2.29,0-3.28,1.8-3.28,5.6s1,5.6,3.28,5.6,3.28-1.8,3.28-5.6S646.82,106.45,644.52,106.45Z"/><rect class="cls-10" x="581.87" y="70.02" width="81.75" height="23.07"/><path class="cls-9" d="M595.3,86.58a4.49,4.49,0,0,1-.42-2c-.08-1.14-.59-1.51-1.61-1.51h-2v3.52h-2.4V76.45h4.89c2.62,0,3.91,1.24,3.91,3.17a2.47,2.47,0,0,1-2.19,2.59,2,2,0,0,1,1.8,2c.08.74.15,1.27.2,1.6a1.28,1.28,0,0,0,.34.75Zm-2-5.4c1.27,0,1.89-.39,1.89-1.37s-.62-1.4-1.89-1.4h-2.11v2.77Z"/><path class="cls-9" d="M606.76,86.58H599V76.45h7.67v2h-5.28v2h4.1v2h-4.1v2.14h5.42Z"/><path class="cls-9" d="M615.07,86.15a5.4,5.4,0,0,1-2.54.63,5.34,5.34,0,1,1,5.21-5.26,5.26,5.26,0,0,1-1.33,3.58l.86,1-1.33,1.06Zm-1.43-1.66-1-1.2,1.3-1.08,1,1.14a4,4,0,0,0,.37-1.83c0-1.87-1.07-3.12-2.73-3.12s-2.69,1.25-2.69,3.12,1.07,3.15,2.69,3.15A3.49,3.49,0,0,0,613.64,84.49Z"/><path class="cls-9" d="M620.15,85.79a3.76,3.76,0,0,1-1.3-3.2V76.45h2.42v5.79c0,1.61.58,2.48,2.06,2.48s2.08-.86,2.08-2.46V76.45h2.43v6.14a3.77,3.77,0,0,1-1.31,3.2,5.63,5.63,0,0,1-6.38,0Z"/><path class="cls-9" d="M637.19,86.58h-7.81V76.45h7.67v2h-5.28v2h4.1v2h-4.1v2.14h5.42Z"/><path class="cls-9" d="M640.08,82.9c.08,1.4,1.16,2,2.4,2,1.08,0,1.75-.43,1.75-1.09s-.59-.84-1.48-1l-1.89-.33c-1.61-.31-2.75-1.21-2.75-2.93,0-2,1.57-3.23,4-3.23,2.75,0,4.24,1.38,4.29,3.62l-2.25.06a1.84,1.84,0,0,0-2.06-1.77c-1,0-1.61.42-1.61,1.11s.47.79,1.19.93l1.9.34c2.06.37,3,1.4,3,3.06a2.65,2.65,0,0,1-1.2,2.36,5.25,5.25,0,0,1-2.93.81,5.42,5.42,0,0,1-3.33-1,3.31,3.31,0,0,1-1.3-2.81Z"/><path class="cls-9" d="M650.53,86.58V78.46H647v-2h9.52v2H653v8.12Z"/></g></svg>