<svg id="Layer_1" data-name="Layer 1" xmlns="http://www.w3.org/2000/svg" xmlns:xlink="http://www.w3.org/1999/xlink" viewBox="0 0 970 250"><defs><style>.cls-1{fill:none;}.cls-2{clip-path:url(#clip-path);}.cls-3{clip-path:url(#clip-path-3);}.cls-4{clip-path:url(#clip-path-4);}.cls-5{clip-path:url(#clip-path-5);}.cls-6{clip-path:url(#clip-path-7);}.cls-7{clip-path:url(#clip-path-8);}.cls-8{clip-path:url(#clip-path-9);}.cls-9{fill:#221e1f;}.cls-10{clip-path:url(#clip-path-10);}.cls-11{clip-path:url(#clip-path-12);}.cls-12{clip-path:url(#clip-path-13);}.cls-13{clip-path:url(#clip-path-14);}.cls-14{clip-path:url(#clip-path-16);}.cls-15{clip-path:url(#clip-path-17);}</style><clipPath id="clip-path"><rect class="cls-1" x="-1980" width="970" height="250"/></clipPath><clipPath id="clip-path-3"><rect class="cls-1" x="-1418.06" y="129.11" width="121.62" height="120.89"/></clipPath><clipPath id="clip-path-4"><rect class="cls-1" x="-34748" y="-32517" width="65535" height="65535"/></clipPath><clipPath id="clip-path-5"><rect class="cls-1" x="-990" width="970" height="250"/></clipPath><clipPath id="clip-path-7"><rect class="cls-1" x="-428.06" y="129.11" width="121.62" height="120.89"/></clipPath><clipPath id="clip-path-8"><rect class="cls-1" x="-33758" y="-32517" width="65535" height="65535"/></clipPath><clipPath id="clip-path-9"><rect class="cls-1" width="970" height="250"/></clipPath><clipPath id="clip-path-10"><rect class="cls-1" x="990" width="970" height="250"/></clipPath><clipPath id="clip-path-12"><rect class="cls-1" x="1551.94" y="129.11" width="121.62" height="120.89"/></clipPath><clipPath id="clip-path-13"><rect class="cls-1" x="-31778" y="-32517" width="65535" height="65535"/></clipPath><clipPath id="clip-path-14"><rect class="cls-1" x="1980" width="970" height="250"/></clipPath><clipPath id="clip-path-16"><rect class="cls-1" x="2541.94" y="129.11" width="121.62" height="120.89"/></clipPath><clipPath id="clip-path-17"><rect class="cls-1" x="-30788" y="-32517" width="65535" height="65535"/></clipPath></defs><g class="cls-8"><path class="cls-9" d="M88.54,58.47l19.16,48.11H93.88l-3.59-9.31H71.5l-3.58,9.31H54.86L74,58.47ZM75.25,87.57h11.3l-5.5-14.21h-.3Z"/><path class="cls-9" d="M119.39,95.36c.45,2.82,2.75,4.43,6.49,4.43,2.75,0,4.2-1,4.2-2.37s-.77-2.21-3.13-2.6l-5-.76c-8.25-1.3-12.6-4-12.6-10.92,0-6.72,5.88-11.53,15.42-11.53,9.85,0,15.66,4.35,16.35,11.45l-10.16.31c-.46-2.45-2.6-4-6.42-4-2.36,0-3.74.91-3.74,2.44,0,1.15.92,1.76,2.06,1.91l6.65,1.14c7.63,1.23,12.06,4.66,12.06,11.31,0,7.18-6.11,11.3-15.8,11.3-9.4,0-16.42-3.74-17.11-12Z"/><path class="cls-9" d="M158.64,106.58H146.27V58.47h12.37V84.28l11.69-11.76h14.51L170.78,85.89l14.51,20.69h-13.9l-9.77-13.82-3,3.06Z"/><path class="cls-9" d="M188,58.47h12.52V69.32H188Zm12.45,14v34.06H188V72.52Z"/><path class="cls-9" d="M219.51,106.58H207.13V72.52h12.38v5.12c1.83-3.74,5.88-6,11-6,9.32,0,12.3,6.49,12.3,13.59v21.38H230.43V88.48c0-4.65-1.3-7.1-5-7.1-4.2,0-5.88,3.36-5.88,8.48Z"/><path class="cls-9" d="M264.72,94.9a25.08,25.08,0,0,1-7.41-1,2,2,0,0,0-.69,1.6c0,1.15.84,2.06,2.9,2.06h14.13c7.72,0,11.61,4.05,11.61,9.78,0,8.48-10.31,12.37-21.38,12.37-9.7,0-18.1-1.91-18.1-8.32,0-3,2.67-5.35,6.49-5.66a7,7,0,0,1-4.89-6.64c0-3.28,2.14-5.8,5.81-7.18a10,10,0,0,1-4.89-8.63c0-7.25,6.87-11.68,16.42-11.68a21.41,21.41,0,0,1,10.92,2.75c2.06-2.83,5.8-5.27,9.54-5.27V78.4a23.54,23.54,0,0,0-5,.54,9.15,9.15,0,0,1,1.07,4.35C281.29,90.47,274.34,94.9,264.72,94.9ZM264,113.3c5.73,0,9.93-1.14,9.93-3.2,0-1.45-1.07-2-3.13-2H258.23a2,2,0,0,0-2.3,2.06C255.93,112.62,259.37,113.3,264,113.3Zm.92-34.9c-2.06,0-3.59,1.91-3.59,4.89s1.53,5,3.59,5,3.59-1.9,3.59-5S266.93,78.4,264.87,78.4Z"/><path class="cls-9" d="M347.58,71.61c9.39,0,12.14,6.49,12.14,13.59v21.38H347.35V88.48c0-4.65-.84-7.1-4.58-7.1-4.13,0-5.5,3.36-5.5,8.48v16.72H324.9V88.48c0-4.65-.92-7.1-4.66-7.1-4.05,0-5.5,3.36-5.5,8.48v16.72H302.37V72.52h12.37v5.12c1.83-3.74,5.5-6,10.61-6,6,0,9.17,2.75,10.62,6.72C337.8,74.51,341.85,71.61,347.58,71.61Z"/><path class="cls-9" d="M397.91,96.58c0,1.76.76,2.52,2.06,2.52a7.11,7.11,0,0,0,2.75-.53v6.56a13.08,13.08,0,0,1-7.72,2.22c-4.2,0-7.48-2.14-8.63-6-2,4-5.88,6-11.3,6-6.64,0-11-3.44-11-9.24,0-6.57,4.74-9.4,12.15-10.69l9.54-1.61v-.53c0-2.83-1.3-4.51-4.27-4.51-2.75,0-4.13,1.76-4.66,4.28l-11.46-.77c1.07-7.48,6.65-12.67,16.88-12.67,9,0,15.66,3.89,15.66,13.36Zm-12.15-4.74-5,.92c-3,.61-4.73,1.53-4.73,3.74,0,1.76,1.37,2.91,3.43,2.91,3.52,0,6.34-2.6,6.34-7Z"/><path class="cls-9" d="M407.14,81.08h-4.58V73.44l2.52-.38c3.44-.54,4.51-2.37,5.35-5.5l1.14-4.43h7.79v9.39h8.86v8.56h-8.86V93.52c0,2.91,1.38,4,3.9,4a13.68,13.68,0,0,0,5.27-1.14v8c-2.6,1.9-5.58,3-10.24,3-5.72,0-11.15-2.37-11.15-10.39Z"/><path class="cls-9" d="M467.17,95.36c-1.76,7.79-8,12.14-17,12.14-10.92,0-18.71-6.57-18.71-17.41S439.37,71.61,450,71.61c11.38,0,17.41,7.79,17.41,17v3.43H443.5c.3,4.2,3.36,6.19,7.1,6.19,3.36,0,5.5-1.15,6.64-3.82Zm-11.53-9.24a5.58,5.58,0,0,0-5.81-5.65c-4,0-5.72,2.44-6.18,5.65Z"/><path class="cls-9" d="M480.76,95.36c.46,2.82,2.75,4.43,6.49,4.43,2.75,0,4.21-1,4.21-2.37s-.77-2.21-3.14-2.6l-5-.76c-8.24-1.3-12.6-4-12.6-10.92,0-6.72,5.88-11.53,15.43-11.53,9.85,0,15.65,4.35,16.34,11.45l-10.16.31c-.45-2.45-2.59-4-6.41-4-2.37,0-3.74.91-3.74,2.44,0,1.15.91,1.76,2.06,1.91l6.64,1.14c7.64,1.23,12.07,4.66,12.07,11.31,0,7.18-6.11,11.3-15.81,11.3-9.39,0-16.42-3.74-17.11-12Z"/></g></svg>