<svg id="Layer_1" data-name="Layer 1" xmlns="http://www.w3.org/2000/svg" xmlns:xlink="http://www.w3.org/1999/xlink" viewBox="0 0 970 250"><defs><style>.cls-1{fill:none;}.cls-2{clip-path:url(#clip-path);}.cls-3{clip-path:url(#clip-path-3);}.cls-4{clip-path:url(#clip-path-4);}.cls-5{clip-path:url(#clip-path-5);}.cls-6{clip-path:url(#clip-path-7);}.cls-7{clip-path:url(#clip-path-8);}.cls-8{clip-path:url(#clip-path-9);}.cls-9{fill:#221e1f;}.cls-10{clip-path:url(#clip-path-10);}.cls-11{clip-path:url(#clip-path-12);}.cls-12{clip-path:url(#clip-path-13);}</style><clipPath id="clip-path"><rect class="cls-1" x="-2970" width="970" height="250"/></clipPath><clipPath id="clip-path-3"><rect class="cls-1" x="-2408.06" y="129.11" width="121.62" height="120.89"/></clipPath><clipPath id="clip-path-4"><rect class="cls-1" x="-35738" y="-32517" width="65535" height="65535"/></clipPath><clipPath id="clip-path-5"><rect class="cls-1" x="-1980" width="970" height="250"/></clipPath><clipPath id="clip-path-7"><rect class="cls-1" x="-1418.06" y="129.11" width="121.62" height="120.89"/></clipPath><clipPath id="clip-path-8"><rect class="cls-1" x="-34748" y="-32517" width="65535" height="65535"/></clipPath><clipPath id="clip-path-9"><rect class="cls-1" width="970" height="250"/></clipPath><clipPath id="clip-path-10"><rect class="cls-1" x="990" width="970" height="250"/></clipPath><clipPath id="clip-path-12"><rect class="cls-1" x="1551.94" y="129.11" width="121.62" height="120.89"/></clipPath><clipPath id="clip-path-13"><rect class="cls-1" x="-31778" y="-32517" width="65535" height="65535"/></clipPath></defs><g class="cls-8"><path class="cls-9" d="M48.65,122.81V97.1H37.31V89.75H69V97.1H57.51v25.71Z"/><path class="cls-9" d="M79,123.44c-7.66,0-12.81-5-12.81-12.33S71.32,98.78,79,98.78s12.8,5.09,12.8,12.33S86.59,123.44,79,123.44Zm0-6.4c2.94,0,4.25-2.42,4.25-5.93s-1.31-5.93-4.25-5.93-4.25,2.41-4.25,5.93S76,117,79,117Z"/><path class="cls-9" d="M96,105.28H92.83V100l1.74-.27c2.36-.36,3.09-1.62,3.67-3.77L99,93h5.35v6.46h6.09v5.87h-6.09v8.56c0,2,.94,2.78,2.67,2.78a9.43,9.43,0,0,0,3.63-.79v5.51a11.06,11.06,0,0,1-7,2.1c-3.93,0-7.66-1.63-7.66-7.14Z"/><path class="cls-9" d="M135.81,115.94c0,1.2.53,1.73,1.42,1.73a4.93,4.93,0,0,0,1.89-.37v4.51a9,9,0,0,1-5.3,1.52,5.76,5.76,0,0,1-5.93-4.14c-1.37,2.73-4,4.14-7.77,4.14-4.56,0-7.56-2.36-7.56-6.35,0-4.51,3.26-6.45,8.35-7.34l6.56-1.1v-.37c0-1.94-.89-3.1-2.94-3.1-1.89,0-2.83,1.21-3.2,2.94l-7.87-.52c.73-5.15,4.56-8.71,11.59-8.71,6.2,0,10.76,2.67,10.76,9.18Zm-8.34-3.26-3.47.63c-2,.42-3.25,1-3.25,2.57,0,1.21,1,2,2.36,2,2.42,0,4.36-1.79,4.36-4.83Z"/><path class="cls-9" d="M150.09,89.75v33.06h-8.51V89.75Z"/><path class="cls-9" d="M163.21,89.75v33.06H154.7V89.75Z"/><path class="cls-9" d="M171.6,131.21l3.36-8.09-9.55-23.71h8.92l5.2,13.69h.21L185,99.41h8.34L180,131.21Z"/><path class="cls-9" d="M213.53,122.81H205V99.41h8.5v3.51c1.26-2.57,4-4.14,7.56-4.14,6.4,0,8.45,4.46,8.45,9.34v14.69H221V110.37c0-3.2-.9-4.88-3.47-4.88-2.88,0-4,2.31-4,5.83Z"/><path class="cls-9" d="M245.44,123.44c-7.66,0-12.81-5-12.81-12.33s5.15-12.33,12.81-12.33,12.8,5.09,12.8,12.33S253.05,123.44,245.44,123.44Zm0-6.4c2.94,0,4.25-2.42,4.25-5.93s-1.31-5.93-4.25-5.93-4.25,2.41-4.25,5.93S242.45,117,245.44,117Z"/><path class="cls-9" d="M262.44,105.28h-3.15V100l1.73-.27c2.37-.36,3.1-1.62,3.68-3.77l.79-3h5.35v6.46h6.08v5.87h-6.08v8.56c0,2,.94,2.78,2.67,2.78a9.35,9.35,0,0,0,3.62-.79v5.51a11,11,0,0,1-7,2.1c-3.93,0-7.66-1.63-7.66-7.14Z"/><path class="cls-9" d="M311.72,115.94c0,1.2.52,1.73,1.41,1.73a4.89,4.89,0,0,0,1.89-.37v4.51a9,9,0,0,1-5.3,1.52,5.76,5.76,0,0,1-5.93-4.14c-1.36,2.73-4,4.14-7.76,4.14-4.57,0-7.56-2.36-7.56-6.35,0-4.51,3.25-6.45,8.34-7.34l6.56-1.1v-.37c0-1.94-.89-3.1-2.94-3.1-1.89,0-2.83,1.21-3.2,2.94l-7.87-.52c.74-5.15,4.57-8.71,11.6-8.71,6.19,0,10.76,2.67,10.76,9.18Zm-8.35-3.26-3.46.63c-2.05.42-3.25,1-3.25,2.57,0,1.21.94,2,2.36,2,2.41,0,4.35-1.79,4.35-4.83Z"/><path class="cls-9" d="M340.74,112.68H341l4.19-13.27h7.67l-7.4,23.4h-8.35l-3.41-13.22h-.21L330,122.81h-8.34l-7.4-23.4h8.45l4.2,13.27h.2l3.42-13.27h6.77Z"/><path class="cls-9" d="M363.51,122.81H355V89.75h8.5v17.74l8-8.08h10l-9.65,9.18,10,14.22h-9.55l-6.72-9.5-2.05,2.1Z"/><path class="cls-9" d="M407.75,112.68H408l4.2-13.27h7.66l-7.4,23.4h-8.34l-3.41-13.22h-.21l-3.41,13.22H388.7l-7.4-23.4h8.45l4.2,13.27h.21l3.41-13.27h6.77Z"/><path class="cls-9" d="M443.38,115.94c0,1.2.53,1.73,1.42,1.73a4.89,4.89,0,0,0,1.89-.37v4.51a9,9,0,0,1-5.3,1.52,5.76,5.76,0,0,1-5.93-4.14c-1.36,2.73-4,4.14-7.77,4.14-4.56,0-7.55-2.36-7.55-6.35,0-4.51,3.25-6.45,8.34-7.34l6.56-1.1v-.37c0-1.94-.89-3.1-2.94-3.1-1.89,0-2.83,1.21-3.2,2.94l-7.87-.52c.73-5.15,4.56-8.71,11.6-8.71,6.19,0,10.75,2.67,10.75,9.18ZM435,112.68l-3.46.63c-2.05.42-3.26,1-3.26,2.57,0,1.21.95,2,2.36,2,2.42,0,4.36-1.79,4.36-4.83Z"/><path class="cls-9" d="M466.79,107.7a7.53,7.53,0,0,0-4-1c-3.15,0-5.09,1.47-5.09,5.4v10.71h-8.5V99.41h8.5v4.14a6.8,6.8,0,0,1,6.4-4.77,5.58,5.58,0,0,1,3.25.89Z"/><path class="cls-9" d="M486.31,118.82c-1.1,2.73-3.78,4.62-7.66,4.62-6.93,0-10.39-5.41-10.39-12.33s3.46-12.33,10.39-12.33c3.88,0,6.56,1.89,7.66,4.67V89.75h8.5v33.06h-8.5Zm0-7.87c0-3.36-1.84-5.56-4.67-5.56-3.36,0-4.83,2.36-4.83,5.72s1.47,5.77,4.83,5.77c2.83,0,4.67-2.2,4.67-5.62Z"/><path class="cls-9" d="M62.34,160.13h.21l4.2-13.27h7.66L67,170.26H58.67L55.26,157h-.21l-3.41,13.22H43.29l-7.39-23.4h8.44l4.2,13.27h.21l3.41-13.27h6.77Z"/><path class="cls-9" d="M76.57,137.2h8.6v7.45h-8.6Zm8.55,9.66v23.4h-8.5v-23.4Z"/><path class="cls-9" d="M90.58,152.74H87.43v-5.25l1.73-.26c2.36-.37,3.1-1.63,3.67-3.78l.79-3H99v6.46h6.09v5.88H99v8.55c0,2,1,2.78,2.68,2.78a9.38,9.38,0,0,0,3.62-.79v5.51a11,11,0,0,1-7,2.1c-3.94,0-7.66-1.63-7.66-7.14Z"/><path class="cls-9" d="M117,170.26h-8.5V137.2H117v13.17c1.26-2.57,4-4.14,7.56-4.14,6.4,0,8.45,4.46,8.45,9.34v14.69h-8.5V157.83c0-3.21-.89-4.88-3.46-4.88-2.89,0-4,2.3-4,5.82Z"/><path class="cls-9" d="M164.26,170.26H147V137.2h16.11c8.51,0,12.34,3.57,12.34,9.13a6.59,6.59,0,0,1-5.88,6.77c3.88.79,6.87,3.36,6.87,8.08C176.48,166.9,172,170.26,164.26,170.26Zm-8.56-19.94H162c3,0,4.25-1.36,4.25-2.94s-1.21-3.09-4.25-3.09h-6.3Zm0,6.67v6.13h7.14c3.1,0,4.46-1.25,4.46-3s-1.36-3.09-4.51-3.09Z"/><path class="cls-9" d="M179.84,157.14V137.2h8.87v18.47c0,5,1.58,7.72,6.14,7.72s6.14-2.68,6.14-7.72V137.2h8.92v19.94c0,9.66-6.56,13.75-15.06,13.75S179.84,166.8,179.84,157.14Z"/><path class="cls-9" d="M230.17,136.57c10.13,0,15.53,6.46,16.16,14.7l-8.55.31c-.53-3.67-2.52-7.08-7.66-7.08-4.88,0-7.72,3.62-7.72,9.23s2.84,9.24,7.72,9.24c5.14,0,7.13-3.41,7.66-7.09l8.55.37c-.63,8.24-6,14.64-16.16,14.64-9.66,0-16.95-7-16.95-17.16S220.51,136.57,230.17,136.57Z"/><path class="cls-9" d="M270.79,170.26l-9.19-13.17-2.88,3.15v10h-8.93V137.2h8.93v13.38l11.86-13.38h10.23l-12.75,14.07,13.38,19Z"/><path class="cls-9" d="M283.22,161.24h9v9h-9Z"/></g></svg>