<?xml version="1.0" encoding="utf-8"?>
<!-- Generator: Adobe Illustrator 24.2.1, SVG Export Plug-In . SVG Version: 6.00 Build 0)  -->
<svg version="1.1" id="Layer_1" xmlns="http://www.w3.org/2000/svg" xmlns:xlink="http://www.w3.org/1999/xlink" x="0px" y="0px"
	 viewBox="0 0 728 90" style="enable-background:new 0 0 728 90;" xml:space="preserve">
<style type="text/css">
	.st0{fill:#FFFFFF;}
</style>
<g>
	<path class="st0" d="M114,52.8l-4-6.6h3.3l2.1,3.8l2.2-3.8h3.3l-4,6.5v4H114V52.8z"/>
	<path class="st0" d="M119.2,52.7L119.2,52.7c0-2.5,2-4.5,4.5-4.5c2.5,0,4.5,2,4.5,4.5l0,0c0,2.4-2,4.3-4.4,4.3c0,0-0.1,0-0.1,0
		c-2.4,0.1-4.4-1.7-4.5-4.1C119.2,52.8,119.2,52.7,119.2,52.7z M125.4,52.7L125.4,52.7c0-1-0.7-1.8-1.7-1.8c0,0,0,0,0,0
		c-0.9,0-1.7,0.8-1.7,1.7c0,0,0,0,0,0.1l0,0c0,1,0.7,1.8,1.7,1.8c0,0,0,0,0,0C124.7,54.4,125.4,53.7,125.4,52.7
		C125.4,52.7,125.4,52.7,125.4,52.7z"/>
	<path class="st0" d="M128.9,53.9v-5.3h2.9V53c0,0.9,0.5,1.4,1.1,1.4c0.7,0,1.2-0.5,1.2-1.2c0-0.1,0-0.1,0-0.2v-4.4h2.9v8.1h-2.8
		v-1.2c-0.6,0.8-1.5,1.3-2.4,1.3c-1.5,0.1-2.7-1-2.8-2.5C128.9,54.2,128.9,54,128.9,53.9z"/>
	<path class="st0" d="M138.1,48.6h2.9v1.6c0.3-1.1,1.4-1.9,2.6-1.8v3h-0.2c-1.5,0-2.3,0.9-2.3,2.7v2.5h-2.9V48.6z"/>
	<path class="st0" d="M147.8,48.6h2.9v1.1c0.6-0.8,1.5-1.3,2.5-1.3c1.9,0,3.6,1.6,3.6,4.2l0,0c0,2.6-1.7,4.2-3.6,4.2
		c-1,0-1.9-0.4-2.5-1.2v3.4h-2.9L147.8,48.6z M153.9,52.6L153.9,52.6c0.1-0.9-0.6-1.8-1.5-1.9c-0.9-0.1-1.8,0.6-1.9,1.5
		c0,0.1,0,0.2,0,0.4l0,0c-0.1,0.9,0.6,1.8,1.5,1.9c0.9,0.1,1.8-0.6,1.9-1.5C153.9,52.9,153.9,52.8,153.9,52.6z"/>
	<path class="st0" d="M157.6,45.7h2.8v11h-2.8V45.7z"/>
	<path class="st0" d="M161.2,54.4L161.2,54.4c0-1.7,1.3-2.5,3.2-2.5c0.7,0,1.3,0.1,1.9,0.3V52c0-0.9-0.5-1.3-1.6-1.3
		c-0.8,0-1.5,0.2-2.3,0.5l-0.6-2c1-0.4,2.2-0.7,3.3-0.6c1.1-0.1,2.2,0.3,3.1,1c0.6,0.7,0.9,1.6,0.9,2.5v4.7h-2.8v-0.9
		c-0.6,0.7-1.5,1-2.4,1c-1.4,0.1-2.6-0.8-2.7-2.2C161.2,54.5,161.2,54.4,161.2,54.4z M166.3,53.7v-0.4c-0.4-0.1-0.7-0.2-1.1-0.2
		c-0.8,0-1.3,0.4-1.3,1l0,0c0,0.5,0.4,0.9,0.9,0.9c0,0,0.1,0,0.1,0c0.7,0.1,1.4-0.5,1.4-1.2C166.3,53.8,166.3,53.8,166.3,53.7z"/>
	<path class="st0" d="M169.8,52.7L169.8,52.7c0-2.3,1.9-4.2,4.2-4.2c0.1,0,0.1,0,0.2,0c1.4-0.1,2.7,0.6,3.5,1.8l-1.9,1.4
		c-0.3-0.5-0.9-0.8-1.5-0.9c-0.9,0-1.7,0.8-1.6,1.8c0,0,0,0,0,0l0,0c-0.1,0.9,0.6,1.8,1.5,1.8c0,0,0.1,0,0.1,0
		c0.6,0,1.2-0.3,1.6-0.8l1.9,1.4c-0.8,1.2-2.1,1.9-3.6,1.9C171.8,56.9,169.8,55.1,169.8,52.7C169.8,52.7,169.8,52.7,169.8,52.7z"/>
	<path class="st0" d="M177.7,52.7L177.7,52.7c-0.1-2.3,1.7-4.2,3.9-4.2c0.1,0,0.1,0,0.2,0c2.8,0,4.1,2.1,4.1,4.5c0,0.2,0,0.4,0,0.6
		h-5.4c0.2,0.8,0.9,1.4,1.8,1.3c0.7,0,1.4-0.3,1.8-0.8l1.6,1.3c-0.8,1.1-2.1,1.7-3.5,1.7c-2.3,0.2-4.2-1.6-4.4-3.8
		C177.7,53,177.7,52.8,177.7,52.7z M183.2,52c0-0.8-0.6-1.5-1.4-1.5c-0.8,0-1.3,0.6-1.4,1.5H183.2z"/>
	<path class="st0" d="M190.9,54.2v-3.3h-1v-2.3h1v-2.1h2.8v2.1h1.9v2.3h-1.9v2.8c0,0.6,0.3,0.8,0.8,0.8c0.4,0,0.8-0.1,1.1-0.3v2.2
		c-0.6,0.3-1.3,0.5-2,0.5C191.9,56.9,190.9,56.1,190.9,54.2z"/>
	<path class="st0" d="M195.9,52.7L195.9,52.7c0-2.5,2-4.5,4.5-4.5s4.5,2,4.5,4.5l0,0c0,2.4-2,4.3-4.4,4.3c0,0-0.1,0-0.1,0
		c-2.4,0.1-4.4-1.7-4.5-4.1C195.9,52.8,195.9,52.7,195.9,52.7z M202.1,52.7L202.1,52.7c0-1-0.7-1.8-1.7-1.8c0,0,0,0,0,0
		c-0.9,0-1.7,0.8-1.7,1.7c0,0,0,0.1,0,0.1l0,0c0,1,0.7,1.8,1.7,1.8c0,0,0,0,0,0C201.3,54.5,202.1,53.7,202.1,52.7
		C202.1,52.7,202.1,52.7,202.1,52.7L202.1,52.7z"/>
	<path class="st0" d="M209.3,58.2l0.9-1.9c0.9,0.5,1.8,0.8,2.8,0.8c1.4,0,2.1-0.7,2.1-2v-0.3c-0.6,0.8-1.5,1.2-2.5,1.2
		c-2,0.1-3.6-1.5-3.7-3.4c0-0.1,0-0.2,0-0.3l0,0c-0.1-2,1.3-3.6,3.3-3.8c0.1,0,0.1,0,0.2,0c1,0,1.9,0.4,2.6,1.1v-1h2.9v6.2
		c0.1,1.2-0.3,2.4-1.1,3.3c-1,0.9-2.3,1.3-3.6,1.1C211.9,59.2,210.5,58.8,209.3,58.2z M215.2,52.2L215.2,52.2
		c-0.1-0.9-0.9-1.6-1.8-1.5c-0.8,0.1-1.5,0.7-1.5,1.5l0,0c0.1,0.9,0.9,1.6,1.8,1.5C214.4,53.7,215.1,53,215.2,52.2z"/>
	<path class="st0" d="M219,48.6h2.9v1.6c0.3-1.1,1.4-1.9,2.6-1.8v3h-0.2c-1.5,0-2.3,0.9-2.3,2.7v2.5H219V48.6z"/>
	<path class="st0" d="M224.6,52.7L224.6,52.7c0-2.5,2-4.5,4.5-4.5s4.5,2,4.5,4.5l0,0c-0.1,2.4-2,4.3-4.4,4.2c0,0-0.1,0-0.1,0
		C226.6,57,224.6,55.1,224.6,52.7C224.6,52.7,224.6,52.7,224.6,52.7z M230.8,52.7L230.8,52.7c0.1-1-0.7-1.8-1.7-1.9c0,0-0.1,0-0.1,0
		c-0.9,0-1.7,0.8-1.7,1.7c0,0,0,0.1,0,0.1l0,0c0,1,0.7,1.8,1.7,1.8c0,0,0,0,0,0C230,54.5,230.8,53.7,230.8,52.7
		C230.8,52.7,230.8,52.7,230.8,52.7L230.8,52.7z"/>
	<path class="st0" d="M233.4,48.6h2.8l1.1,4.1l1.3-4.1h2.3l1.3,4.2l1.1-4.1h2.8l-2.5,8.2H241l-1.3-4.2l-1.4,4.2h-2.4L233.4,48.6z"/>
	<path class="st0" d="M255.7,48.6h2.9l-3,7.9c-0.7,1.9-1.5,2.6-3.1,2.6c-0.9,0-1.8-0.2-2.6-0.7l0.9-2c0.4,0.2,0.8,0.4,1.2,0.4
		c0.3,0,0.5-0.1,0.7-0.3l-3.2-8h3l1.6,4.9L255.7,48.6z"/>
	<path class="st0" d="M258.4,52.7L258.4,52.7c0-2.4,2-4.3,4.4-4.3c0,0,0.1,0,0.1,0c2.4-0.1,4.4,1.7,4.5,4.1c0,0,0,0.1,0,0.1l0,0
		c0,2.5-2,4.5-4.5,4.5S258.4,55.1,258.4,52.7L258.4,52.7L258.4,52.7z M264.6,52.7L264.6,52.7c0-1-0.7-1.8-1.7-1.8c0,0,0,0,0,0
		c-0.9,0-1.7,0.8-1.7,1.7c0,0,0,0.1,0,0.1l0,0c0,1,0.7,1.8,1.7,1.8c0,0,0,0,0,0C263.8,54.5,264.6,53.7,264.6,52.7
		C264.6,52.7,264.6,52.7,264.6,52.7z"/>
	<path class="st0" d="M268.1,53.9v-5.3h2.9V53c0,0.9,0.5,1.4,1.2,1.4c0.7,0,1.2-0.5,1.2-1.2c0-0.1,0-0.1,0-0.2v-4.4h2.8v8.1h-2.8
		v-1.2c-0.6,0.8-1.5,1.3-2.4,1.3c-1.5,0.1-2.7-1.1-2.8-2.6C268,54.2,268,54,268.1,53.9z"/>
	<path class="st0" d="M277.2,48.6h2.9v1.6c0.3-1.1,1.4-1.9,2.6-1.8v3h-0.2c-1.5,0-2.3,0.9-2.3,2.7v2.5h-2.9L277.2,48.6z"/>
	<path class="st0" d="M286.6,52.7L286.6,52.7c-0.1-2.3,1.7-4.2,3.9-4.2c0.1,0,0.1,0,0.2,0c2.8,0,4.1,2.1,4.1,4.5c0,0.2,0,0.4,0,0.6
		h-5.4c0.2,0.8,0.9,1.4,1.8,1.3c0.7,0,1.3-0.3,1.8-0.8l1.6,1.3c-0.8,1.1-2.1,1.7-3.5,1.6c-2.3,0.2-4.2-1.6-4.4-3.8
		C286.6,52.9,286.6,52.8,286.6,52.7z M292.1,52c0-0.8-0.6-1.5-1.4-1.5c-0.8,0-1.3,0.6-1.4,1.5H292.1z"/>
	<path class="st0" d="M298.8,50.6l1.2-2h3l-2.7,4l2.7,4.1H300l-1.3-2.1l-1.3,2.1h-3l2.7-4.1l-2.7-4h3.1L298.8,50.6z"/>
	<path class="st0" d="M303.6,48.6h2.9v1.1c0.6-0.8,1.5-1.3,2.5-1.3c1.9,0,3.6,1.6,3.6,4.2l0,0c0,2.6-1.7,4.2-3.6,4.2
		c-1,0-1.9-0.4-2.5-1.2v3.4h-2.9L303.6,48.6z M309.7,52.6L309.7,52.6c0.1-0.9-0.6-1.8-1.5-1.9c-0.9-0.1-1.8,0.6-1.9,1.5
		c0,0.1,0,0.2,0,0.4l0,0c-0.1,0.9,0.6,1.8,1.5,1.9c0.9,0.1,1.8-0.6,1.9-1.5C309.7,52.9,309.7,52.8,309.7,52.6z"/>
	<path class="st0" d="M313,52.7L313,52.7c0-2.5,2-4.5,4.5-4.5s4.5,2,4.5,4.5l0,0c0,2.4-2,4.3-4.4,4.3c0,0-0.1,0-0.1,0
		c-2.4,0.1-4.4-1.7-4.5-4.1C313,52.8,313,52.7,313,52.7z M319.2,52.7L319.2,52.7c0-1-0.7-1.8-1.7-1.8c0,0,0,0-0.1,0
		c-0.9,0-1.7,0.8-1.7,1.7c0,0,0,0.1,0,0.1l0,0c0,1,0.7,1.8,1.7,1.8c0,0,0,0,0,0C318.4,54.5,319.2,53.7,319.2,52.7
		C319.2,52.7,319.2,52.7,319.2,52.7L319.2,52.7z"/>
	<path class="st0" d="M322.7,48.6h2.9v1.6c0.3-1.1,1.4-1.9,2.6-1.8v3h-0.2c-1.5,0-2.3,0.9-2.3,2.7v2.5h-2.9L322.7,48.6z"/>
	<path class="st0" d="M329.8,54.2v-3.3h-1v-2.3h1v-2.1h2.8v2.1h1.9v2.3h-1.9v2.8c0,0.6,0.2,0.8,0.8,0.8c0.4,0,0.7-0.1,1.1-0.3v2.2
		c-0.6,0.3-1.3,0.5-2,0.5C330.8,56.9,329.8,56.1,329.8,54.2z"/>
	<path class="st0" d="M339,45.7h2.9v5.6l2.2-2.7h3.2l-2.8,3.2l2.9,4.9h-3.1l-1.6-2.8l-0.7,0.9v1.9H339V45.7z"/>
	<path class="st0" d="M347.7,48.6h2.9v1.1c0.6-0.8,1.5-1.3,2.5-1.3c1.5-0.1,2.7,1.1,2.8,2.5c0,0.2,0,0.3,0,0.5v5.3h-2.8v-4.4
		c0-0.9-0.5-1.4-1.2-1.4s-1.2,0.5-1.2,1.4v4.4h-2.9L347.7,48.6z"/>
	<path class="st0" d="M356.5,52.7L356.5,52.7c0-2.5,2-4.5,4.5-4.5s4.5,2,4.5,4.5l0,0c0,2.5-2,4.5-4.5,4.5S356.5,55.1,356.5,52.7
		L356.5,52.7z M362.7,52.7L362.7,52.7c0-1-0.7-1.8-1.7-1.8c0,0,0,0,0,0c-0.9,0-1.7,0.8-1.7,1.7c0,0,0,0.1,0,0.1l0,0
		c0,1,0.7,1.8,1.7,1.8c0,0,0.1,0,0.1,0C361.9,54.4,362.7,53.6,362.7,52.7C362.7,52.7,362.7,52.7,362.7,52.7z"/>
	<path class="st0" d="M365.2,48.6h2.8l1.1,4.1l1.3-4.1h2.4l1.3,4.1l1.1-4.1h2.8l-2.5,8.2h-2.5l-1.3-4.2l-1.4,4.2h-2.4L365.2,48.6z"
		/>
	<path class="st0" d="M378.4,45.7h2.8v11h-2.8V45.7z"/>
	<path class="st0" d="M382.1,52.7L382.1,52.7c-0.1-2.3,1.7-4.2,3.9-4.2c0.1,0,0.1,0,0.2,0c2.8,0,4.1,2.1,4.1,4.5c0,0.2,0,0.4,0,0.6
		h-5.4c0.2,0.8,0.9,1.4,1.8,1.3c0.7,0,1.4-0.3,1.8-0.8l1.6,1.3c-0.8,1.1-2.1,1.7-3.5,1.7c-2.3,0.2-4.2-1.5-4.4-3.8
		C382.1,53,382.1,52.8,382.1,52.7z M387.6,52c0-0.8-0.6-1.5-1.4-1.5c-0.8,0-1.3,0.6-1.4,1.5H387.6z"/>
	<path class="st0" d="M390.8,52.7L390.8,52.7c0-2.6,1.7-4.2,3.6-4.2c1,0,1.9,0.4,2.5,1.2v-3.9h2.9v11h-2.9v-1.1
		c-0.6,0.8-1.5,1.3-2.5,1.3C392.4,56.9,390.8,55.3,390.8,52.7z M396.9,52.7L396.9,52.7c0.1-0.9-0.6-1.8-1.5-1.9
		c-0.9-0.1-1.8,0.6-1.9,1.5c0,0.1,0,0.2,0,0.4l0,0c-0.1,0.9,0.6,1.8,1.5,1.9c0.9,0.1,1.8-0.6,1.9-1.5
		C396.9,52.9,396.9,52.8,396.9,52.7z"/>
	<path class="st0" d="M400.7,58.2l0.9-1.9c0.9,0.5,1.8,0.8,2.8,0.8c1.4,0,2.1-0.7,2.1-2v-0.3c-0.6,0.8-1.5,1.2-2.5,1.2
		c-2,0-3.6-1.5-3.6-3.5c0-0.1,0-0.2,0-0.3l0,0c-0.2-2,1.3-3.7,3.2-3.8c0.1,0,0.2,0,0.3,0c1,0,1.9,0.4,2.5,1.1v-1h2.9v6.2
		c0.1,1.2-0.3,2.4-1,3.3c-1,0.9-2.3,1.3-3.6,1.1C403.4,59.2,402,58.8,400.7,58.2z M406.6,52.2L406.6,52.2c-0.1-0.9-0.9-1.6-1.8-1.5
		c-0.8,0.1-1.5,0.7-1.5,1.5l0,0c0.1,0.9,0.9,1.6,1.8,1.5C405.9,53.7,406.5,53,406.6,52.2z"/>
	<path class="st0" d="M410.2,52.7L410.2,52.7c-0.1-2.2,1.6-4.1,3.9-4.2c0.1,0,0.1,0,0.2,0c2.8,0,4.1,2.1,4.1,4.5c0,0.2,0,0.4,0,0.6
		h-5.4c0.2,0.8,0.9,1.4,1.8,1.3c0.7,0,1.3-0.3,1.8-0.8l1.6,1.3c-0.8,1.1-2.1,1.7-3.5,1.7c-2.3,0.2-4.2-1.6-4.4-3.8
		C410.2,53,410.2,52.8,410.2,52.7z M415.7,52c0-0.8-0.6-1.5-1.4-1.5c-0.8,0-1.3,0.6-1.4,1.5H415.7z"/>
	<path class="st0" d="M419.5,55.3c0-0.4,0.2-0.9,0.5-1.2c0.6-0.7,1.7-0.7,2.4,0c0,0,0,0,0,0c0.7,0.7,0.7,1.7,0,2.4
		c-0.3,0.3-0.7,0.5-1.2,0.5C420.3,57,419.5,56.3,419.5,55.3z"/>
	<path class="st0" d="M110.9,62.4h5c1.2-0.1,2.5,0.3,3.4,1.1c0.6,0.7,1,1.5,0.9,2.4l0,0c0.1,1.4-0.8,2.7-2.2,3.2l2.5,3.7h-3.3
		l-2.1-3.2h-1.3v3.2h-2.9L110.9,62.4z M115.8,67.4c1,0,1.6-0.5,1.6-1.2l0,0c0-0.8-0.6-1.3-1.6-1.3h-1.9v2.5L115.8,67.4z"/>
	<path class="st0" d="M120.8,70.6L120.8,70.6c0-1.7,1.3-2.6,3.2-2.6c0.7,0,1.4,0.1,2,0.3v-0.1c0-0.9-0.5-1.3-1.6-1.3
		c-0.8,0-1.5,0.2-2.2,0.4l-0.6-2c1-0.4,2.2-0.6,3.3-0.6c1.1-0.1,2.2,0.3,3.1,1c0.6,0.7,1,1.6,0.9,2.6v4.7h-2.8V72
		c-0.6,0.7-1.5,1-2.4,1c-1.4,0.2-2.6-0.8-2.7-2.2C120.8,70.7,120.8,70.7,120.8,70.6z M125.9,69.9v-0.4c-0.4-0.1-0.7-0.2-1.1-0.2
		c-0.8,0-1.3,0.4-1.3,1l0,0c0,0.5,0.4,0.9,0.9,0.9c0,0,0.1,0,0.1,0c0.7,0.1,1.4-0.5,1.4-1.2C125.9,70,125.9,70,125.9,69.9
		L125.9,69.9z"/>
	<path class="st0" d="M129.7,64.8h2.9v1.1c0.6-0.8,1.5-1.3,2.4-1.3c1.9,0,3.6,1.6,3.6,4.2l0,0c0,2.7-1.7,4.3-3.6,4.3
		c-1,0-1.9-0.4-2.5-1.2v3.4h-2.9L129.7,64.8z M135.8,68.8L135.8,68.8c0.1-0.9-0.6-1.8-1.5-1.9c-0.9-0.1-1.8,0.6-1.9,1.5
		c0,0.1,0,0.2,0,0.4l0,0c-0.1,0.9,0.6,1.8,1.5,1.9c0.9,0.1,1.8-0.6,1.9-1.5C135.9,69.1,135.9,69,135.8,68.8z"/>
	<path class="st0" d="M139.4,70.1v-5.3h2.9v4.4c0,0.9,0.5,1.4,1.2,1.4c0.7,0,1.2-0.5,1.2-1.2c0-0.1,0-0.1,0-0.2v-4.4h2.8v8.1h-2.8
		v-1.1c-0.5,0.8-1.5,1.3-2.4,1.3c-1.5,0.1-2.7-1.1-2.8-2.6C139.3,70.4,139.3,70.2,139.4,70.1z"/>
	<path class="st0" d="M148,74.3c1-0.1,1.6-0.6,1.5-1.4h-1.1v-2.9h3v2.4c0,2.2-1.2,3-3.1,3.1L148,74.3z"/>
	<path class="st0" d="M159.9,62.3h2.8l4.5,10.6H164l-0.7-1.9h-4.1l-0.8,1.9h-3.1L159.9,62.3z M162.4,68.7l-1.2-3l-1.2,3H162.4z"/>
	<path class="st0" d="M167.6,61.9h2.9v5.6l2.2-2.7h3.2L173,68l2.9,4.9h-3.1l-1.6-2.8l-0.7,0.9v1.9h-2.9L167.6,61.9z"/>
	<path class="st0" d="M175.4,68.9L175.4,68.9c0-2.5,2-4.5,4.5-4.5s4.5,2,4.5,4.5l0,0c0,2.4-2,4.3-4.4,4.3c0,0-0.1,0-0.1,0
		c-2.4,0.1-4.4-1.7-4.5-4.1C175.4,69,175.4,68.9,175.4,68.9z M181.6,68.9L181.6,68.9c0-1-0.7-1.8-1.7-1.9c0,0,0,0-0.1,0
		c-0.9,0-1.7,0.8-1.7,1.7c0,0,0,0.1,0,0.1l0,0c0,1,0.7,1.8,1.7,1.8c0,0,0,0,0,0C180.9,70.6,181.6,69.9,181.6,68.9
		C181.6,68.9,181.6,68.9,181.6,68.9z"/>
	<path class="st0" d="M184.5,74.3c1-0.1,1.6-0.6,1.5-1.4h-1.1v-2.9h3v2.4c0,2.2-1.2,3-3.1,3.1L184.5,74.3z"/>
	<path class="st0" d="M195.2,64.9h-3.1v-2.6h9.2v2.6h-3.1v8h-2.9L195.2,64.9z"/>
	<path class="st0" d="M201.5,70.1v-5.3h2.9v4.4c0,0.9,0.5,1.4,1.2,1.4c0.7,0,1.2-0.5,1.2-1.2c0-0.1,0-0.1,0-0.2v-4.4h2.8v8.1h-2.8
		v-1.1c-0.5,0.8-1.5,1.3-2.4,1.3c-1.5,0.1-2.7-1.1-2.8-2.6C201.5,70.4,201.5,70.2,201.5,70.1z M202.7,62.2h5.6V64h-5.6V62.2z"/>
	<path class="st0" d="M210.6,61.9h2.9v4c0.6-0.8,1.5-1.3,2.4-1.3c1.5-0.1,2.7,1.1,2.8,2.5c0,0.2,0,0.3,0,0.5v5.3h-2.8v-4.4
		c0-0.9-0.5-1.4-1.2-1.4s-1.2,0.5-1.2,1.4v4.4h-2.9V61.9z"/>
	<path class="st0" d="M219.4,68.9L219.4,68.9c0-2.5,2-4.5,4.5-4.5s4.5,2,4.5,4.5l0,0c0,2.4-2,4.3-4.4,4.3c0,0-0.1,0-0.1,0
		c-2.4,0.1-4.4-1.7-4.5-4.1C219.4,69,219.4,68.9,219.4,68.9z M225.6,68.9L225.6,68.9c0-1-0.7-1.8-1.7-1.9c0,0,0,0-0.1,0
		c-0.9,0-1.7,0.8-1.7,1.7c0,0,0,0.1,0,0.1l0,0c0,1,0.7,1.8,1.7,1.8c0,0,0,0,0,0C224.9,70.6,225.6,69.9,225.6,68.9
		C225.6,68.9,225.6,68.9,225.6,68.9z"/>
	<path class="st0" d="M229.2,64.8h2.8v1.2c0.5-0.8,1.5-1.3,2.4-1.3c1.5-0.1,2.7,1.1,2.8,2.5c0,0.2,0,0.3,0,0.5v5.3h-2.8v-4.4
		c0-0.9-0.5-1.4-1.2-1.4s-1.2,0.5-1.2,1.4v4.4h-2.9L229.2,64.8z"/>
	<path class="st0" d="M238,68.9L238,68.9c0-2.4,2-4.3,4.4-4.3c0,0,0.1,0,0.1,0c2.4-0.1,4.4,1.7,4.5,4.1c0,0,0,0.1,0,0.1l0,0
		c0,2.5-2,4.5-4.5,4.5S238,71.3,238,68.9L238,68.9z M244.2,68.9L244.2,68.9c0-1-0.7-1.8-1.7-1.9c0,0-0.1,0-0.1,0
		c-0.9,0-1.7,0.8-1.7,1.7c0,0,0,0.1,0,0.1l0,0c0,1,0.7,1.8,1.7,1.8c0,0,0,0,0,0C243.4,70.6,244.2,69.9,244.2,68.9
		C244.2,68.9,244.2,68.9,244.2,68.9L244.2,68.9z"/>
	<path class="st0" d="M248.2,71.5c0-0.9,0.8-1.7,1.7-1.7c0.9,0,1.7,0.8,1.7,1.7c0,0.9-0.8,1.7-1.7,1.7
		C248.9,73.2,248.2,72.5,248.2,71.5z"/>
</g>
</svg>
