<?xml version="1.0" encoding="utf-8"?>
<!-- Generator: Adobe Illustrator 24.2.1, SVG Export Plug-In . SVG Version: 6.00 Build 0)  -->
<svg version="1.1" id="Layer_1" xmlns="http://www.w3.org/2000/svg" xmlns:xlink="http://www.w3.org/1999/xlink" x="0px" y="0px"
	 viewBox="0 0 728 90" style="enable-background:new 0 0 728 90;" xml:space="preserve">
<style type="text/css">
	.st0{fill:#FFFFFF;}
</style>
<g>
	<path class="st0" d="M116.9,33.4L110,22h5.7l3.8,6.6l3.7-6.6h5.6l-6.9,11.3v6.9h-5L116.9,33.4z"/>
	<path class="st0" d="M126.2,33.2L126.2,33.2c0.3-4.3,3.9-7.6,8.2-7.3c3.9,0.2,7.1,3.3,7.3,7.3v0c-0.1,4.1-3.5,7.4-7.6,7.4
		c-0.1,0-0.1,0-0.2,0c-4.1,0.2-7.5-3-7.7-7.1C126.2,33.4,126.2,33.3,126.2,33.2z M137,33.2L137,33.2c0.1-1.7-1.3-3.1-3-3.2
		c0,0,0,0,0,0c-1.7,0-3,1.4-3,3c0,0,0,0,0,0.1v0c-0.1,1.7,1.2,3.1,2.8,3.2c0.1,0,0.1,0,0.2,0c1.7,0,3-1.3,3-3
		C137,33.3,137,33.3,137,33.2L137,33.2z"/>
	<path class="st0" d="M143.2,35.3v-9.2h4.9v7.6c0,1.5,0.8,2.4,2,2.4c1.1,0,2.1-0.9,2.1-2.1c0-0.1,0-0.2,0-0.3v-7.6h4.9v14.1h-4.9
		v-1.9c-1,1.4-2.5,2.2-4.2,2.3C145.1,40.5,143.2,38.5,143.2,35.3z"/>
	<path class="st0" d="M158.6,29.5c1.7-0.2,2.6-1,2.6-2.5h-2V22h5.1v4.1c0,3.8-2.1,5.2-5.3,5.3L158.6,29.5z"/>
	<path class="st0" d="M165.1,26.1h5.2l2.7,8.2l2.7-8.2h5.1l-5.6,14.2h-4.5L165.1,26.1z"/>
	<path class="st0" d="M180.5,33.2L180.5,33.2c-0.2-3.9,2.9-7.2,6.8-7.4c0.1,0,0.2,0,0.3,0c4.8,0,7.1,3.6,7.1,7.7c0,0.3,0,0.7,0,1
		h-9.4c0.3,1.4,1.6,2.4,3,2.3c1.2,0,2.3-0.5,3.1-1.4l2.7,2.3c-1.4,1.9-3.7,2.9-6.1,2.9C183.7,40.5,180.5,37.6,180.5,33.2z M190.1,32
		c0-1.4-1.1-2.5-2.5-2.5c-1.3,0-2.2,1-2.4,2.5H190.1z"/>
	<path class="st0" d="M202.9,42.8l1.6-3.3c1.5,0.9,3.2,1.3,4.9,1.3c2.4,0,3.7-1.2,3.7-3.5v-0.5c-1,1.3-2.6,2.1-4.3,2.1
		c-3.4,0.1-6.2-2.6-6.3-6c0-0.2,0-0.3,0-0.5v0c0-4.1,2.9-6.6,6.1-6.6c1.7,0,3.3,0.7,4.4,2v-1.7h5v10.7c0,2.6-0.6,4.4-1.8,5.6
		s-3.2,2-6.2,2C207.5,44.5,205.1,43.9,202.9,42.8z M213.1,32.4L213.1,32.4c0-1.6-1.3-2.9-2.9-2.9c-1.6,0-2.9,1.3-2.9,2.9l0,0
		c0.1,1.6,1.5,2.8,3.1,2.6C211.9,34.9,213,33.8,213.1,32.4L213.1,32.4z"/>
	<path class="st0" d="M220.1,26.1h4.9V29c0.8-1.9,2.1-3.2,4.4-3.1v5.2h-0.4c-2.6,0-4,1.5-4,4.7v4.4h-4.9L220.1,26.1z"/>
	<path class="st0" d="M229.9,33.2L229.9,33.2c0.2-4.3,3.8-7.6,8.1-7.4c4,0.2,7.2,3.4,7.4,7.3v0c-0.2,4.3-3.9,7.6-8.2,7.4
		C233.3,40.4,230.1,37.2,229.9,33.2z M240.7,33.2L240.7,33.2c0.1-1.7-1.3-3.1-3-3.2c0,0,0,0,0,0c-1.7,0-3,1.4-2.9,3.1
		c0,0,0,0.1,0,0.1v0c-0.1,1.7,1.2,3.1,2.8,3.2c0.1,0,0.1,0,0.2,0c1.7,0,3-1.4,2.9-3.1C240.7,33.3,240.7,33.3,240.7,33.2L240.7,33.2z
		"/>
	<path class="st0" d="M245.4,26.1h4.8l1.8,7.1l2.2-7.1h4.1l2.2,7.2l1.9-7.1h4.8l-4.3,14.2h-4.3l-2.3-7.3l-2.3,7.3h-4.2L245.4,26.1z"
		/>
	<path class="st0" d="M268.2,26.1h4.9v2c1-1.4,2.5-2.3,4.2-2.3c3,0,4.8,2,4.8,5.2v9.2h-4.9v-7.7c0-1.6-0.8-2.4-2-2.4
		s-2.1,0.8-2.1,2.4v7.6h-4.9L268.2,26.1z"/>
	<path class="st0" d="M289.9,38.4l1.9-3c1.4,1,3.1,1.6,4.8,1.6c0.9,0,1.3-0.3,1.3-0.8l0,0c0-0.6-0.8-0.8-2.3-1.2
		c-2.8-0.7-5-1.7-5-4.5v-0.1c0-3,2.4-4.6,5.6-4.6c2,0,4.1,0.6,5.8,1.6l-1.7,3.1c-1.3-0.8-2.7-1.2-4.2-1.3c-0.8,0-1.1,0.3-1.1,0.7v0
		c0,0.5,0.8,0.8,2.3,1.2c2.8,0.8,5,1.7,5,4.5l0,0c0,3.1-2.3,4.7-5.8,4.7C294.2,40.5,291.8,39.8,289.9,38.4z"/>
	<path class="st0" d="M303.2,33.2L303.2,33.2c0.3-4.3,3.9-7.6,8.2-7.3c3.9,0.2,7.1,3.3,7.3,7.3v0c-0.3,4.3-4,7.5-8.2,7.3
		C306.6,40.3,303.5,37.1,303.2,33.2z M314,33.2L314,33.2c0.1-1.7-1.3-3.1-3-3.2c0,0,0,0,0,0c-1.7,0-3,1.4-3,3c0,0,0,0.1,0,0.1v0
		c-0.1,1.7,1.2,3.1,2.8,3.2c0.1,0,0.1,0,0.2,0c1.7,0,3-1.3,3-3C314,33.3,314,33.3,314,33.2L314,33.2z"/>
	<path class="st0" d="M320.4,26.1h4.9V28c1-1.4,2.5-2.2,4.2-2.2c1.7-0.1,3.3,0.8,4.1,2.3c1.1-1.5,2.9-2.3,4.7-2.3
		c3,0,4.8,1.9,4.8,5.1v9.2h-4.9v-7.6c0-1.5-0.8-2.4-1.9-2.4s-2,0.8-2,2.4v7.6h-4.9v-7.6c0-1.5-0.8-2.4-2-2.4s-2,0.8-2,2.4v7.6h-4.9
		L320.4,26.1z"/>
	<path class="st0" d="M344.5,33.2L344.5,33.2c-0.2-3.9,2.9-7.2,6.8-7.4c0.1,0,0.2,0,0.3,0c4.8,0,7.1,3.6,7.1,7.7c0,0.3,0,0.7,0,1
		h-9.4c0.3,1.4,1.6,2.4,3,2.3c1.2,0,2.3-0.5,3.1-1.4l2.7,2.3c-1.4,1.9-3.7,2.9-6.1,2.9C347.7,40.5,344.5,37.6,344.5,33.2z M354.1,32
		c0-1.4-1.1-2.5-2.5-2.5c-1.3,0-2.2,1-2.4,2.5H354.1z"/>
	<path class="st0" d="M361.2,35.8v-5.7h-1.7v-4h1.7v-3.6h4.9v3.6h3.3v4h-3.3v4.8c0,1,0.4,1.4,1.4,1.4c0.7,0,1.3-0.2,1.9-0.5v3.8
		c-1.1,0.6-2.2,0.8-3.4,0.8C363,40.5,361.2,39.2,361.2,35.8z"/>
	<path class="st0" d="M371,21.2h5V28c1-1.4,2.5-2.2,4.2-2.2c3,0,4.8,2,4.8,5.2v9.2h-4.9v-7.6c0-1.6-0.8-2.4-2-2.4S376,31,376,32.6
		v7.6h-5V21.2z"/>
	<path class="st0" d="M387,21.2h5.1v3.6H387V21.2z M387.2,26.1h4.9v14.1h-4.9V26.1z"/>
	<path class="st0" d="M394.3,26.1h4.9v2c0.9-1.4,2.5-2.3,4.2-2.3c3,0,4.8,2,4.8,5.2v9.2h-4.9v-7.7c0-1.6-0.8-2.4-2-2.4
		s-2.1,0.8-2.1,2.4v7.6h-4.9V26.1z"/>
	<path class="st0" d="M410.2,42.8l1.6-3.3c1.5,0.9,3.2,1.3,4.9,1.3c2.4,0,3.7-1.2,3.7-3.5v-0.5c-1,1.3-2.6,2.1-4.3,2.1
		c-3.4,0.1-6.2-2.6-6.3-6c0-0.2,0-0.3,0-0.5v0c0-4.1,2.9-6.6,6.1-6.6c1.7,0,3.3,0.7,4.4,2v-1.7h4.9v10.7c0,2.6-0.6,4.4-1.8,5.6
		s-3.2,2-6.2,2C414.8,44.5,412.4,43.9,410.2,42.8z M420.4,32.4L420.4,32.4c-0.1-1.6-1.5-2.9-3.1-2.8c-1.5,0.1-2.6,1.3-2.7,2.7l0,0
		c0.1,1.6,1.5,2.8,3.1,2.7C419.2,35,420.3,33.8,420.4,32.4L420.4,32.4z"/>
	<path class="st0" d="M433,38.4l1.8-3c1.4,1,3.1,1.5,4.8,1.6c0.9,0,1.3-0.3,1.3-0.8l0,0c0-0.6-0.8-0.8-2.3-1.2c-2.8-0.7-5-1.7-5-4.5
		v-0.1c0-3,2.4-4.6,5.6-4.6c2,0,4.1,0.6,5.8,1.6l-1.7,3.1c-1.3-0.8-2.7-1.2-4.2-1.3c-0.8,0-1.1,0.3-1.1,0.7v0c0,0.5,0.8,0.8,2.3,1.2
		c2.8,0.8,5,1.7,5,4.5l0,0c0,3.1-2.3,4.7-5.7,4.7C437.3,40.5,435,39.8,433,38.4z"/>
	<path class="st0" d="M447,26.1h4.9V28c1-1.4,2.6-2.2,4.3-2.2c3.4,0,6.2,2.8,6.2,7.3v0.1c0,4.6-2.9,7.3-6.2,7.3
		c-1.7,0-3.3-0.7-4.3-2v5.9H447V26.1z M457.6,33.1L457.6,33.1c0.2-1.6-1-3.1-2.6-3.2c-1.6-0.2-3,1-3.2,2.6c0,0.2,0,0.4,0,0.6v0
		c-0.2,1.6,1,3,2.6,3.2c1.6,0.2,3-1,3.2-2.6C457.6,33.5,457.6,33.3,457.6,33.1z"/>
	<path class="st0" d="M463.5,33.2L463.5,33.2c-0.2-3.9,2.9-7.2,6.8-7.4c0.1,0,0.2,0,0.3,0c4.8,0,7.1,3.6,7.1,7.7c0,0.3,0,0.7,0,1
		h-9.4c0.3,1.4,1.6,2.4,3,2.3c1.2,0,2.3-0.5,3.1-1.4l2.7,2.3c-1.4,1.9-3.7,2.9-6.1,2.8C466.6,40.5,463.5,37.6,463.5,33.2z M473,32
		c0-1.4-1.1-2.5-2.5-2.5c-1.3,0-2.2,1-2.4,2.5H473z"/>
	<path class="st0" d="M478.7,33.2L478.7,33.2c0-4,3.2-7.3,7.2-7.3c0.1,0,0.2,0,0.3,0c2.4-0.1,4.7,1.1,6,3.1l-3.3,2.5
		c-0.6-0.9-1.5-1.5-2.6-1.5c-1.6,0.1-2.9,1.5-2.8,3.2v0c-0.2,1.6,1,3,2.6,3.2c0.1,0,0.1,0,0.2,0c1.1,0,2.1-0.6,2.7-1.5l3.3,2.4
		c-1.4,2.1-3.7,3.3-6.2,3.2c-4,0.1-7.3-3.1-7.3-7.1C478.7,33.4,478.7,33.3,478.7,33.2z"/>
	<path class="st0" d="M493.6,21.2h5.1v3.6h-5.1V21.2z M493.7,26.1h4.9v14.1h-4.9V26.1z"/>
	<path class="st0" d="M500.2,36.2L500.2,36.2c0-2.9,2.2-4.4,5.5-4.4c1.2,0,2.3,0.2,3.4,0.6V32c0-1.5-0.9-2.3-2.8-2.3
		c-1.3,0-2.7,0.3-3.9,0.8l-1-3.5c1.8-0.8,3.7-1.1,5.7-1.1c2.5,0,4.2,0.6,5.4,1.7c1.1,1.2,1.7,2.8,1.5,4.5v8.1h-4.9v-1.5
		c-1.1,1.2-2.6,1.8-4.2,1.8C502.2,40.5,500.2,38.9,500.2,36.2z M509.2,35.1v-0.7c-0.6-0.2-1.3-0.4-2-0.4c-1.4,0-2.3,0.7-2.3,1.7v0.1
		c0,0.9,0.7,1.5,1.6,1.5c0.1,0,0.1,0,0.2,0c1.2,0.1,2.4-0.8,2.5-2.1C509.1,35.3,509.2,35.2,509.2,35.1L509.2,35.1z"/>
	<path class="st0" d="M516.1,21.2h4.9v19h-4.9L516.1,21.2z"/>
	<path class="st0" d="M523.5,38.3c0-1.3,1-2.3,2.3-2.3c0.6,0,1.2,0.2,1.6,0.7c0.4,0.4,0.7,1,0.7,1.6c0,0.6-0.2,1.2-0.7,1.6
		c-0.9,0.9-2.3,0.9-3.2,0c0,0,0,0,0,0C523.7,39.6,523.5,39,523.5,38.3z"/>
</g>
</svg>
