<?xml version="1.0" encoding="utf-8"?>
<!-- Generator: Adobe Illustrator 24.2.1, SVG Export Plug-In . SVG Version: 6.00 Build 0)  -->
<svg version="1.1" id="Layer_1" xmlns="http://www.w3.org/2000/svg" xmlns:xlink="http://www.w3.org/1999/xlink" x="0px" y="0px"
	 viewBox="0 0 728 90" style="enable-background:new 0 0 728 90;" xml:space="preserve">
<style type="text/css">
	.st0{fill:#FFEA8F;}
</style>
<g>
	<path class="st0" d="M111.6,50h4.7l7.5,9.6V50h5v18.2h-4.4l-7.8-10v10h-5L111.6,50z"/>
	<path class="st0" d="M130.7,61.2L130.7,61.2c0.2-4.3,3.8-7.7,8.1-7.5c4,0.2,7.2,3.4,7.4,7.3v0c-0.1,4.1-3.5,7.4-7.6,7.4
		c-0.1,0-0.1,0-0.2,0c-4.1,0.2-7.5-3-7.7-7.1C130.7,61.4,130.7,61.3,130.7,61.2z M141.4,61.2L141.4,61.2c0.1-1.8-1.3-3.2-2.9-3.2
		c0,0,0,0-0.1,0c-1.7,0-3,1.4-2.9,3.1c0,0,0,0.1,0,0.1v0c-0.1,1.7,1.2,3.1,2.9,3.2c0,0,0.1,0,0.1,0
		C140.1,64.3,141.5,62.9,141.4,61.2C141.4,61.3,141.4,61.3,141.4,61.2z"/>
	<path class="st0" d="M146.2,54.1h4.8l1.8,7.1l2.2-7.1h4.1l2.2,7.2l1.9-7.1h4.8l-4.3,14.2h-4.3L157,61l-2.3,7.3h-4.2L146.2,54.1z"/>
	<path class="st0" d="M176.6,63.8v-5.8H175v-4h1.7v-3.6h4.9v3.6h3.3v4h-3.3v4.8c0,1,0.4,1.4,1.4,1.4c0.7,0,1.3-0.2,1.9-0.5v3.8
		c-1.1,0.6-2.2,0.8-3.4,0.8C178.4,68.5,176.6,67.2,176.6,63.8z"/>
	<path class="st0" d="M185.8,64.2L185.8,64.2c0-2.9,2.2-4.4,5.5-4.4c1.1,0,2.3,0.2,3.4,0.5V60c0-1.5-0.9-2.3-2.8-2.3
		c-1.3,0-2.7,0.3-3.9,0.8l-1-3.5c1.8-0.8,3.7-1.1,5.7-1.1c2.5,0,4.2,0.6,5.4,1.7c1.1,1.2,1.7,2.8,1.5,4.5v8.1h-4.9v-1.5
		c-1.1,1.2-2.6,1.8-4.2,1.8C187.8,68.5,185.8,67,185.8,64.2z M194.8,63.1v-0.7c-0.6-0.2-1.3-0.4-2-0.4c-1.4,0-2.3,0.7-2.3,1.8v0
		c0,0.9,0.7,1.5,1.5,1.5c0.1,0,0.1,0,0.2,0c1.2,0.1,2.4-0.8,2.5-2.1C194.7,63.3,194.7,63.2,194.8,63.1L194.8,63.1z"/>
	<path class="st0" d="M201.5,49.2h4.9v9.6l3.8-4.7h5.6l-4.9,5.6l5,8.5h-5.5l-2.8-4.8l-1.3,1.5v3.3h-4.9L201.5,49.2z"/>
	<path class="st0" d="M215.4,61.2L215.4,61.2c-0.2-4,2.9-7.2,6.8-7.4c0.1,0,0.2,0,0.3,0c4.8,0,7.1,3.6,7.1,7.7c0,0.3,0,0.7,0,1h-9.4
		c0.3,1.4,1.6,2.4,3,2.3c1.2,0,2.3-0.5,3.1-1.4l2.8,2.3c-1.5,1.9-3.7,2.9-6.1,2.9C218.5,68.5,215.4,65.6,215.4,61.2z M224.9,60
		c0-1.4-1.1-2.5-2.5-2.5c-1.3,0-2.2,1-2.4,2.5H224.9z"/>
	<path class="st0" d="M237.9,49.2h5.1v3.6h-5.1L237.9,49.2z M238,54.1h4.9v14.1H238V54.1z"/>
	<path class="st0" d="M246.1,63.8v-5.8h-1.7v-4h1.7v-3.6h4.9v3.6h3.3v4H251v4.8c0,1,0.4,1.4,1.4,1.4c0.7,0,1.3-0.2,1.9-0.5v3.8
		c-1.1,0.6-2.2,0.8-3.4,0.8C247.8,68.5,246.1,67.2,246.1,63.8z"/>
	<path class="st0" d="M263.5,63.8v-5.8h-1.7v-4h1.7v-3.6h4.9v3.6h3.3v4h-3.3v4.8c0,1,0.5,1.4,1.4,1.4c0.7,0,1.3-0.2,1.9-0.5v3.8
		c-1.1,0.6-2.2,0.8-3.4,0.8C265.2,68.5,263.5,67.2,263.5,63.8z"/>
	<path class="st0" d="M272.3,61.2L272.3,61.2c0.2-4.3,3.8-7.7,8.1-7.5c4,0.2,7.2,3.4,7.4,7.3v0c-0.1,4.1-3.5,7.4-7.6,7.4
		c-0.1,0-0.1,0-0.2,0c-4.1,0.2-7.5-3-7.7-7.1C272.3,61.4,272.3,61.3,272.3,61.2z M283.1,61.2L283.1,61.2c0.1-1.8-1.3-3.2-3-3.2
		c0,0-0.1,0-0.1,0c-1.7,0-3,1.4-2.9,3.1c0,0,0,0.1,0,0.1v0c-0.1,1.7,1.2,3.1,2.9,3.2c0,0,0.1,0,0.1,0c1.7,0,3-1.3,3-3
		C283.1,61.3,283.1,61.3,283.1,61.2L283.1,61.2z"/>
	<path class="st0" d="M297,63.8v-5.8h-1.7v-4h1.7v-3.6h4.9v3.6h3.3v4h-3.3v4.8c0,1,0.4,1.4,1.4,1.4c0.7,0,1.3-0.2,1.9-0.5v3.8
		c-1.1,0.6-2.2,0.8-3.4,0.8C298.8,68.5,297,67.2,297,63.8z"/>
	<path class="st0" d="M306.8,49.2h4.9V56c1-1.4,2.5-2.2,4.2-2.2c3,0,4.8,2,4.8,5.2v9.2h-4.9v-7.6c0-1.6-0.8-2.4-2-2.4
		s-2.1,0.8-2.1,2.4v7.6h-4.9L306.8,49.2z"/>
	<path class="st0" d="M322.3,61.2L322.3,61.2c-0.2-4,2.9-7.2,6.8-7.4c0.1,0,0.2,0,0.3,0c4.8,0,7.1,3.6,7.1,7.7c0,0.3,0,0.7,0,1H327
		c0.3,1.4,1.6,2.4,3,2.3c1.2,0,2.3-0.5,3.1-1.4l2.7,2.3c-1.5,1.9-3.7,2.9-6.1,2.9C325.4,68.5,322.3,65.6,322.3,61.2z M331.8,60
		c0-1.4-1.1-2.5-2.5-2.5c-1.3,0-2.2,1-2.4,2.5H331.8z"/>
	<path class="st0" d="M343.8,54.1h4.8l1.9,7.1l2.2-7.1h4.1l2.2,7.2l1.9-7.1h4.8l-4.3,14.2h-4.3l-2.3-7.3l-2.3,7.3H348L343.8,54.1z"
		/>
	<path class="st0" d="M365.4,61.2L365.4,61.2c0.2-4.3,3.8-7.7,8.1-7.5c4,0.2,7.2,3.4,7.4,7.3v0c-0.1,4.1-3.5,7.4-7.6,7.4
		c-0.1,0-0.1,0-0.2,0c-4.1,0.2-7.5-3-7.7-7.1C365.4,61.4,365.4,61.3,365.4,61.2z M376.2,61.2L376.2,61.2c0.1-1.8-1.3-3.2-3-3.2
		c0,0,0,0,0,0c-1.7,0-3,1.4-2.9,3.1c0,0,0,0,0,0.1v0c-0.1,1.7,1.2,3.1,2.8,3.2c0.1,0,0.1,0,0.2,0C374.9,64.3,376.2,62.9,376.2,61.2
		C376.2,61.3,376.2,61.2,376.2,61.2z"/>
	<path class="st0" d="M382.5,54.1h4.9V57c0.8-1.9,2.1-3.2,4.4-3.1v5.2h-0.4c-2.6,0-4,1.5-4,4.7v4.4h-4.9L382.5,54.1z"/>
	<path class="st0" d="M393.3,49.2h4.9v19h-4.9V49.2z"/>
	<path class="st0" d="M400,61.2L400,61.2c0-4.6,2.9-7.4,6.2-7.4c1.7,0,3.3,0.7,4.3,2v-6.6h4.9v19h-4.9v-1.9c-1,1.4-2.6,2.2-4.3,2.2
		C402.8,68.5,400,65.7,400,61.2z M410.6,61.2L410.6,61.2c0.2-1.6-1-3.1-2.5-3.3c-1.6-0.2-3,1-3.2,2.5c0,0.2,0,0.5,0,0.7v0
		c-0.2,1.6,1,3,2.5,3.2c1.6,0.2,3-1,3.2-2.5C410.6,61.6,410.6,61.4,410.6,61.2z"/>
	<path class="st0" d="M417.9,66.3c0-0.6,0.2-1.2,0.7-1.6c0.9-0.9,2.3-0.9,3.2,0c0,0,0,0,0,0c0.9,0.9,0.9,2.4,0,3.3
		c-0.4,0.4-1,0.7-1.6,0.7c-0.6,0-1.2-0.2-1.6-0.7C418.1,67.6,417.8,67,417.9,66.3z"/>
</g>
</svg>
