<svg id="Layer_1" data-name="Layer 1" xmlns="http://www.w3.org/2000/svg" xmlns:xlink="http://www.w3.org/1999/xlink" viewBox="0 0 728 90"><defs><style>.cls-1{fill:none;}.cls-2{clip-path:url(#clip-path);}</style><clipPath id="clip-path"><rect class="cls-1" width="728" height="90"/></clipPath></defs><g class="cls-2"><path d="M486.93,22.86c-.46,0-.82-.2-.82-.69V15.08c0-.48.38-.7.83-.7s.82.22.82.7v6.25h3.6c.46,0,.64.34.64.76s-.18.77-.64.77Z"/><path d="M498.5,22.08a.63.63,0,0,1-.55.71,9.16,9.16,0,0,1-2.11.2c-2.32,0-3.07-.57-3.07-2.45V18.85c0-2,.84-2.47,3-2.47s2.81.54,2.81,2.43v.74c0,.56-.21.75-.69.75h-3.53v.33c0,.67.46.93,1.4.93.7,0,1.56-.12,2-.12S498.5,21.59,498.5,22.08ZM494.38,19H497v-.28c0-.77-.28-1-1.32-1s-1.32.17-1.32,1Z"/><path d="M500.2,17.27c0-.58.49-.89,2.43-.89,2.4,0,3,.37,3,2.14V21c0,1.71-.77,2-3,2s-2.8-.32-2.8-2.06c0-1.44.35-2,2.73-2H504v-.26c0-.64-.24-.79-1.22-.79s-1.55.15-1.93.15S500.2,17.73,500.2,17.27ZM504,20.21h-1.57c-.89,0-1.06.16-1.06.66s.2.7,1.29.7,1.34-.13,1.34-.49Z"/><path d="M507,18.41c0-1.2.83-2,2.89-2,1.89,0,2.25.35,2.25.92,0,.41-.17.63-.7.63s-.77-.14-1.71-.14c-.77,0-1.12.16-1.12.47,0,1,3.79.2,3.79,2.68,0,1.44-1,2-2.85,2-2.23,0-2.51-.34-2.51-.87s.18-.7.71-.7.83.15,1.75.15,1.3-.16,1.3-.55C510.75,20.06,507,20.81,507,18.41Z"/><path d="M514.32,14.05a.92.92,0,0,1,.92.92.91.91,0,0,1-.92.9.89.89,0,0,1-.89-.9A.9.9,0,0,1,514.32,14.05Zm.81,8.24c0,.48-.37.67-.81.67s-.8-.19-.8-.67v-5.2c0-.48.36-.68.8-.68s.81.2.81.68Z"/><path d="M518.55,19.19v3.1c0,.48-.36.67-.8.67s-.81-.19-.81-.67V19.11c0-2.41.59-2.73,2.93-2.73s3,.32,3,2.73v3.18c0,.48-.37.67-.81.67s-.79-.19-.79-.67v-3.1c0-1.18-.18-1.37-1.37-1.37S518.55,18,518.55,19.19Z"/><path d="M529.29,15.94c0-.45.36-.64.79-.64s.78.19.78.64v2.69c0,1.74-.88,2.1-3,2.1a6.75,6.75,0,0,1-1.63-.15h0v.8h2.58c1.75,0,2.29.48,2.29,1.8,0,1.65-.83,2.2-3.35,2.2-2.28,0-3.09-.49-3.09-2.16V18.43c0-1.82.79-2.05,3-2.05a7.36,7.36,0,0,1,1.63.14h0Zm0,2.58v-.64a11.17,11.17,0,0,0-1.62-.1c-1.33,0-1.45.17-1.45.68v.28c0,.5.18.61,1.53.61S529.29,19.23,529.29,18.52Zm-3.07,4.57c0,.75.29.89,1.54.89,1.41,0,1.76-.15,1.76-.68s-.19-.52-1-.52h-2.29Z"/><path d="M534.39,19.68v2.59c0,.5-.39.69-.85.69s-.84-.19-.84-.69V15.14c0-.47.31-.7.78-.7h3.38c2,0,2.77.57,2.77,2.57,0,1.6-.48,2.67-2.77,2.67Zm0-1.47h2.47c.8,0,1.09-.34,1.09-1.18s-.29-1.08-1.1-1.08h-2.46Z"/><path d="M541.84,22.86c-.46,0-.82-.2-.82-.69V15.08c0-.48.38-.7.83-.7s.82.22.82.7v6.25h3.6c.46,0,.65.34.65.76s-.19.77-.65.77Z"/><path d="M553,19.92V15c0-.49.39-.69.84-.69s.83.2.83.69v5.05c0,2.7-1.31,2.92-3.57,2.92s-3.52-.22-3.52-2.92V15c0-.49.39-.69.85-.69s.84.2.84.69v4.9c0,1.33.49,1.55,1.83,1.55S553,21.25,553,19.92Z"/><path d="M559.44,23c-1.52,0-3.06-.19-3.06-1a.69.69,0,0,1,.66-.78c.65,0,1.7.26,2.4.26,1.27,0,1.93-.29,1.93-1.08,0-1.89-4.93.31-4.93-3.53,0-1.71,1.08-2.5,3.57-2.5,1.5,0,2.72.19,2.72.94A.7.7,0,0,1,562,16c-.62,0-1.46-.18-2.12-.18-1.22,0-1.77.36-1.77,1,0,1.95,4.91-.22,4.91,3.44C563,22,562,23,559.44,23Z"/><path d="M487.71,49.87c-.67,0-1.16-.28-1.16-1v-10c0-.68.49-1,1.16-1h4c3.82,0,5.5.86,5.5,6.05s-2.07,5.95-5.5,5.95ZM489,47.69h2.65c2.09,0,3.2-.48,3.2-3.79S493.75,40,491.6,40H489Z"/><path d="M499.69,41.91c0-.83.7-1.27,3.47-1.27,3.42,0,4.26.53,4.26,3v3.49c0,2.44-1.09,2.88-4.26,2.88s-4-.44-4-2.93c0-2,.5-2.88,3.88-2.88h2.1v-.37c0-.91-.35-1.13-1.73-1.13s-2.22.22-2.75.22C500,43,499.69,42.56,499.69,41.91Zm5.46,4.19h-2.23c-1.27,0-1.51.22-1.51.94s.27,1,1.82,1,1.92-.19,1.92-.7Z"/><path d="M509.31,43.53c0-1.71,1.18-2.89,4.11-2.89,2.7,0,3.22.49,3.22,1.31,0,.59-.24.9-1,.9-.56,0-1.11-.2-2.44-.2-1.11,0-1.6.22-1.6.66,0,1.44,5.41.3,5.41,3.82,0,2-1.44,2.92-4.07,2.92-3.17,0-3.58-.48-3.58-1.24s.26-1,1-1c.57,0,1.18.22,2.49.22s1.85-.24,1.85-.79C514.72,45.88,509.31,47,509.31,43.53Z"/><path d="M530.91,46.75h-5.27l-1,2.4c-.61,1.46-3.12,1-2.37-.72l4.29-9.55a1.79,1.79,0,0,1,1.71-1.2,1.81,1.81,0,0,1,1.72,1.2l4.3,9.55c.74,1.66-1.75,2.18-2.36.74Zm-2.77-6-1.63,3.88H530l-1.63-3.88Z"/><path d="M538.33,49.05c0,.69-.52,1-1.17,1s-1.16-.27-1.16-1V38.48c0-.69.53-1,1.16-1s1.17.29,1.17,1Z"/><path d="M543.24,49.05c0,.69-.52,1-1.17,1s-1.16-.27-1.16-1V38.48c0-.69.53-1,1.16-1s1.17.29,1.17,1Z"/><path d="M545.78,45.93c-.63,0-.88-.48-.88-1s.25-1,.88-1h3.9c.63,0,.9.46.9,1s-.27,1-.9,1Z"/><path d="M552,49.87c-.68,0-.92-.43-.92-1.06s.24-1.05.92-1.05h1.11V40H552c-.68,0-.92-.43-.92-1.05s.24-1.07.92-1.07h4.62c.68,0,.92.44.92,1.07s-.24,1.05-.92,1.05h-1.11v7.77h1.11c.68,0,.92.43.92,1.05s-.24,1.06-.92,1.06Z"/><path d="M561.68,44.64v4.41c0,.69-.52,1-1.15,1s-1.14-.27-1.14-1V44.53c0-3.43.83-3.89,4.17-3.89s4.23.46,4.23,3.89v4.52c0,.69-.52,1-1.15,1s-1.12-.27-1.12-1V44.64c0-1.68-.26-2-2-2S561.68,43,561.68,44.64Z"/><path d="M572.55,44.14v2.44c0,.81.35,1.37,1.83,1.37.92,0,1.44-.19,2.18-.19s.9.41.9,1a1,1,0,0,1-.79,1,9.06,9.06,0,0,1-2.38.24c-3.14,0-4-1.11-4-3.38V44.09c0-2.64,1-3.45,4.17-3.45,2.83,0,3,.46,3,1.29,0,.59-.2,1-.87,1s-1.2-.17-2.21-.17C573,42.72,572.55,43.17,572.55,44.14Z"/><path d="M581.46,49.05c0,.69-.51,1-1.16,1s-1.16-.27-1.16-1V38.48c0-.69.53-1,1.16-1s1.16.29,1.16,1Z"/><path d="M590.09,46V41.63c0-.68.49-1,1.12-1s1.15.28,1.15,1v4.53c0,3.43-.85,3.89-4.18,3.89S584,49.59,584,46.16V41.63c0-.68.5-1,1.14-1s1.15.28,1.15,1V46c0,1.69.17,2,1.86,2S590.09,47.73,590.09,46Z"/><path d="M594.09,43.53c0-1.71,1.18-2.89,4.12-2.89,2.69,0,3.21.49,3.21,1.31,0,.59-.24.9-1,.9-.55,0-1.1-.2-2.43-.2-1.11,0-1.61.22-1.61.66,0,1.44,5.41.3,5.41,3.82,0,2-1.44,2.92-4.06,2.92-3.18,0-3.58-.48-3.58-1.24s.25-1,1-1c.57,0,1.18.22,2.49.22s1.85-.24,1.85-.79C599.5,45.88,594.09,47,594.09,43.53Z"/><path d="M604.61,37.31a1.31,1.31,0,1,1,0,2.61,1.31,1.31,0,0,1,0-2.61Zm1.15,11.74c0,.69-.52,1-1.15,1s-1.14-.27-1.14-1v-7.4c0-.68.52-1,1.14-1s1.15.3,1.15,1Z"/><path d="M612.11,47.08l2.25-5.54c.59-1.46,2.95-1,2.2.72l-3,6.59a1.63,1.63,0,0,1-1.58,1.2,1.76,1.76,0,0,1-1.69-1.2l-2.84-6.59c-.7-1.64,1.63-2.22,2.2-.74l2.16,5.56Z"/><path d="M626.14,48.76a.89.89,0,0,1-.78,1,12.88,12.88,0,0,1-3,.28c-3.3,0-4.37-.81-4.37-3.49v-2.4c0-2.82,1.2-3.52,4.3-3.52s4,.77,4,3.47v1c0,.79-.3,1.07-1,1.07h-5v.46c0,1,.66,1.33,2,1.33,1,0,2.24-.17,2.92-.17S626.14,48.06,626.14,48.76Zm-5.87-4.36H624V44c0-1.09-.4-1.37-1.88-1.37s-1.88.24-1.88,1.37Z"/><path d="M629,45.93c-.63,0-.89-.48-.89-1s.26-1,.89-1h3.9c.62,0,.9.46.9,1s-.28,1-.9,1Z"/><path d="M636.77,49.87c-.65,0-1.16-.28-1.16-1V38.79c0-.68.53-1,1.18-1s1.16.32,1.16,1v8.9h5.13c.67,0,.93.48.93,1.09s-.26,1.09-.93,1.09Z"/><path d="M653.25,48.76a.88.88,0,0,1-.77,1,12.88,12.88,0,0,1-3,.28c-3.3,0-4.38-.81-4.38-3.49v-2.4c0-2.82,1.2-3.52,4.31-3.52s4,.77,4,3.47v1c0,.79-.29,1.07-1,1.07h-5v.46c0,1,.67,1.33,2,1.33,1,0,2.23-.17,2.91-.17S653.25,48.06,653.25,48.76Zm-5.87-4.36h3.77V44c0-1.09-.41-1.37-1.88-1.37s-1.89.24-1.89,1.37Z"/><path d="M655.67,41.91c0-.83.7-1.27,3.47-1.27,3.42,0,4.27.53,4.27,3v3.49c0,2.44-1.09,2.88-4.27,2.88s-4-.44-4-2.93c0-2,.49-2.88,3.87-2.88h2.11v-.37c0-.91-.35-1.13-1.74-1.13s-2.21.22-2.75.22C655.93,43,655.67,42.56,655.67,41.91Zm5.47,4.19H658.9c-1.27,0-1.51.22-1.51.94s.28,1,1.83,1,1.92-.19,1.92-.7Z"/><path d="M665.29,43.53c0-1.71,1.18-2.89,4.12-2.89,2.69,0,3.21.49,3.21,1.31,0,.59-.24.9-1,.9-.55,0-1.11-.2-2.44-.2-1.1,0-1.6.22-1.6.66,0,1.44,5.41.3,5.41,3.82,0,2-1.44,2.92-4.06,2.92-3.18,0-3.59-.48-3.59-1.24s.26-1,1-1c.57,0,1.18.22,2.49.22s1.85-.24,1.85-.79C670.7,45.88,665.29,47,665.29,43.53Z"/><path d="M675.79,37.31a1.31,1.31,0,1,1,0,2.61,1.31,1.31,0,0,1,0-2.61Zm1.15,11.74c0,.69-.52,1-1.15,1s-1.14-.27-1.14-1v-7.4c0-.68.52-1,1.14-1s1.15.3,1.15,1Z"/><path d="M681.81,44.64v4.41c0,.69-.52,1-1.14,1s-1.15-.27-1.15-1V44.53c0-3.43.83-3.89,4.17-3.89s4.23.46,4.23,3.89v4.52c0,.69-.52,1-1.14,1s-1.13-.27-1.13-1V44.64c0-1.68-.26-2-2-2S681.81,43,681.81,44.64Z"/><path d="M697.11,40c0-.65.52-.91,1.13-.91s1.11.26,1.11.91v3.84c0,2.47-1.26,3-4.23,3a9.52,9.52,0,0,1-2.33-.22h0v1.14h3.67c2.5,0,3.27.69,3.27,2.57,0,2.34-1.18,3.14-4.78,3.14-3.25,0-4.4-.7-4.4-3.09V43.55c0-2.58,1.13-2.91,4.23-2.91a10.19,10.19,0,0,1,2.33.2h.05Zm0,3.67v-.9a14.46,14.46,0,0,0-2.3-.15c-1.91,0-2.07.24-2.07,1V44c0,.72.26.86,2.18.86S697.11,44.7,697.11,43.68Zm-4.37,6.52c0,1.07.4,1.27,2.2,1.27,2,0,2.51-.22,2.51-1,0-.58-.28-.74-1.44-.74h-3.27Z"/><path d="M701.53,48.3c.22-.94.73-1.22,1.32-1.22a1,1,0,0,1,1.08,1,2.16,2.16,0,0,1-.21.85L702.36,52a1,1,0,0,1-.85.59.83.83,0,0,1-.8-.81,1.28,1.28,0,0,1,0-.3Z"/><path d="M494.87,67.68c0,3.91-1.14,4.69-4.45,4.69S486,71.59,486,67.68,487.1,63,490.42,63a9.48,9.48,0,0,1,2.13.24V60.57c0-.68.53-1,1.16-1s1.16.3,1.16,1Zm-4.45,2.64c1.68,0,2.16-.28,2.16-2.68S492.1,65,490.42,65s-2.12.17-2.12,2.64S488.72,70.32,490.42,70.32Z"/><path d="M497.51,64.23c0-.83.7-1.28,3.47-1.28,3.42,0,4.27.54,4.27,3v3.49c0,2.44-1.09,2.88-4.27,2.88s-4-.44-4-2.94c0-2.05.5-2.88,3.88-2.88H503v-.37c0-.9-.36-1.12-1.74-1.12s-2.22.22-2.75.22C497.77,65.28,497.51,64.87,497.51,64.23ZM503,68.42h-2.24c-1.27,0-1.51.22-1.51.94s.27,1,1.83,1,1.92-.19,1.92-.7Z"/><path d="M507.13,65.85c0-1.71,1.18-2.9,4.12-2.9,2.69,0,3.21.5,3.21,1.31,0,.6-.24.91-1,.91-.55,0-1.11-.2-2.44-.2-1.1,0-1.6.22-1.6.66,0,1.44,5.41.3,5.41,3.82,0,2-1.44,2.92-4.07,2.92-3.17,0-3.58-.48-3.58-1.24s.26-1,1-1c.57,0,1.18.22,2.49.22s1.85-.24,1.85-.8C512.54,68.2,507.13,69.27,507.13,65.85Z"/><path d="M529.1,71.08a.89.89,0,0,1-.78,1,13.49,13.49,0,0,1-3,.28c-3.3,0-4.37-.81-4.37-3.49v-2.4c0-2.82,1.2-3.53,4.3-3.53s4,.78,4,3.47v1.06c0,.79-.29,1.07-1,1.07h-5V69c0,1,.67,1.33,2,1.33,1,0,2.23-.17,2.92-.17S529.1,70.38,529.1,71.08Zm-5.88-4.36H527v-.41c0-1.09-.41-1.36-1.88-1.36s-1.89.24-1.89,1.36Z"/><path d="M535.37,65.08c-1.23,0-1.47.16-1.47,1.4v4.89c0,.69-.5,1-1.13,1s-1.16-.27-1.16-1V66.3c0-2.83.9-3.35,3.8-3.35,1.88,0,2.36.45,2.36,1.15a.94.94,0,0,1-1,1.05C536.41,65.15,536.07,65.08,535.37,65.08Z"/><path d="M538.4,65.85c0-1.71,1.18-2.9,4.12-2.9,2.69,0,3.21.5,3.21,1.31,0,.6-.24.91-1,.91-.55,0-1.11-.2-2.44-.2-1.1,0-1.6.22-1.6.66,0,1.44,5.41.3,5.41,3.82,0,2-1.44,2.92-4.06,2.92-3.18,0-3.59-.48-3.59-1.24s.26-1,1-1c.57,0,1.18.22,2.49.22s1.85-.24,1.85-.8C543.81,68.2,538.4,69.27,538.4,65.85Z"/><path d="M550.92,70.32c.55,0,.86,0,1.25,0,.61,0,.87.31.87.9,0,.85-.41,1.2-2.48,1.2-1.75,0-2.62-.48-2.62-2.55V65.24H547c-.65,0-.89-.44-.89-1s.24-1,.89-1h.9V61.68c0-.66.52-.94,1.13-.94s1.16.28,1.16.94v1.46h1.9c.65,0,.83.46.83,1s-.18,1-.83,1h-1.9v4.4A.62.62,0,0,0,550.92,70.32Z"/><path d="M561.25,67v4.41c0,.69-.52,1-1.14,1s-1.15-.27-1.15-1V66.85c0-3.43.83-3.9,4.17-3.9s4.23.47,4.23,3.9v4.52c0,.69-.51,1-1.14,1s-1.13-.27-1.13-1V67c0-1.68-.26-2-2-2S561.25,65.28,561.25,67Z"/><path d="M574,63c3.3,0,4.45.91,4.45,4.8s-1.15,4.62-4.45,4.62-4.43-.7-4.43-4.62S570.67,63,574,63Zm0,7.37c1.66,0,2.16-.2,2.16-2.6S575.67,65,574,65s-2.14.24-2.14,2.72S572.31,70.32,574,70.32Z"/><path d="M582.85,66.46V68.9c0,.81.35,1.37,1.83,1.37.92,0,1.44-.19,2.18-.19s.9.41.9,1a1,1,0,0,1-.79,1,9.56,9.56,0,0,1-2.38.24c-3.14,0-4-1.11-4-3.38V66.41c0-2.64,1-3.46,4.17-3.46,2.83,0,3,.47,3,1.3,0,.59-.2,1-.87,1s-1.2-.17-2.21-.17C583.26,65,582.85,65.48,582.85,66.46Z"/><path d="M591.77,63.18a10.51,10.51,0,0,1,2-.23c3.14,0,4,.47,4,3.9v4.52c0,.69-.52,1-1.14,1s-1.13-.27-1.13-1V67c0-1.68-.24-2-1.94-2a10.46,10.46,0,0,0-1.86.19v6.18c0,.69-.52,1-1.17,1s-1.16-.27-1.16-1V60.79c0-.68.53-1,1.16-1s1.17.29,1.17,1Z"/><path d="M610.76,67.59c-.68,0-.94-.46-.94-1s.26-1.11.94-1.11h3.34a1,1,0,0,1,1.15,1c0,4.56-1.11,5.91-5.15,5.91-3.71,0-5.47-.81-5.47-6.07,0-5.1,1.55-6.3,5.73-6.3a22.68,22.68,0,0,1,3.5.26,1,1,0,0,1,.82,1.14c0,.61-.24,1-.91,1-.89,0-2.09-.24-3.34-.24-2.53,0-3.4.33-3.4,4.06,0,3.53,1.05,3.93,3.14,3.93s2.75-.74,2.7-2.6Z"/><path d="M625.77,71.08a.89.89,0,0,1-.78,1,13.49,13.49,0,0,1-3,.28c-3.3,0-4.37-.81-4.37-3.49v-2.4c0-2.82,1.2-3.53,4.3-3.53s4,.78,4,3.47v1.06c0,.79-.3,1.07-1,1.07h-5V69c0,1,.66,1.33,2,1.33,1,0,2.24-.17,2.92-.17S625.77,70.38,625.77,71.08Zm-5.87-4.36h3.76v-.41c0-1.09-.4-1.36-1.88-1.36s-1.88.24-1.88,1.36Z"/><path d="M630.6,71.37c0,.69-.51,1-1.16,1s-1.16-.27-1.16-1V60.79c0-.68.53-1,1.16-1s1.16.29,1.16,1Z"/><path d="M641.68,67.68c0,3.91-1.14,4.69-4.45,4.69s-4.41-.78-4.41-4.69S633.91,63,637.23,63a9.3,9.3,0,0,1,2.12.24V60.57c0-.68.54-1,1.17-1s1.16.3,1.16,1Zm-4.45,2.64c1.68,0,2.16-.28,2.16-2.68S638.91,65,637.23,65s-2.12.17-2.12,2.64S635.53,70.32,637.23,70.32Z"/><path d="M647.9,65.85c0-1.71,1.18-2.9,4.12-2.9,2.69,0,3.21.5,3.21,1.31,0,.6-.24.91-1,.91-.55,0-1.11-.2-2.43-.2-1.11,0-1.61.22-1.61.66,0,1.44,5.41.3,5.41,3.82,0,2-1.44,2.92-4.06,2.92-3.18,0-3.58-.48-3.58-1.24s.25-1,1-1c.57,0,1.18.22,2.49.22s1.85-.24,1.85-.8C653.31,68.2,647.9,69.27,647.9,65.85Z"/><path d="M657.3,67.55c0-3.93,1.14-4.6,4.43-4.6s4.41.67,4.41,4.6-1,4.82-4.41,4.82a11.2,11.2,0,0,1-2.05-.24h-.06v2.36c0,.71-.55,1-1.18,1s-1.14-.25-1.14-1ZM661.73,65c-1.53,0-2.14.19-2.14,2.59s.48,2.73,2.14,2.73,2.14-.26,2.14-2.73S663.43,65,661.73,65Z"/><path d="M668.43,64.23c0-.83.7-1.28,3.47-1.28,3.41,0,4.26.54,4.26,3v3.49c0,2.44-1.09,2.88-4.26,2.88s-4-.44-4-2.94c0-2.05.5-2.88,3.88-2.88h2.1v-.37c0-.9-.35-1.12-1.73-1.12s-2.22.22-2.75.22C668.69,65.28,668.43,64.87,668.43,64.23Zm5.46,4.19h-2.23c-1.28,0-1.52.22-1.52.94s.28,1,1.83,1,1.92-.19,1.92-.7Z"/><path d="M682.48,65.08c-1.24,0-1.48.16-1.48,1.4v4.89c0,.69-.5,1-1.13,1s-1.16-.27-1.16-1V66.3c0-2.83.9-3.35,3.8-3.35,1.89,0,2.37.45,2.37,1.15a.94.94,0,0,1-1,1.05C683.51,65.15,683.18,65.08,682.48,65.08Z"/><path d="M690,70.32c.56,0,.87,0,1.26,0,.61,0,.87.31.87.9,0,.85-.41,1.2-2.48,1.2-1.75,0-2.62-.48-2.62-2.55V65.24h-.9c-.65,0-.89-.44-.89-1s.24-1,.89-1h.9V61.68c0-.66.52-.94,1.13-.94s1.16.28,1.16.94v1.46h1.9c.65,0,.83.46.83,1s-.18,1-.83,1h-1.9v4.4A.61.61,0,0,0,690,70.32Z"/></g></svg>