<svg id="Layer_1" data-name="Layer 1" xmlns="http://www.w3.org/2000/svg" xmlns:xlink="http://www.w3.org/1999/xlink" viewBox="0 0 728 90"><defs><style>.cls-1{fill:none;}.cls-2{clip-path:url(#clip-path);}.cls-3{fill:#fff;}</style><clipPath id="clip-path"><rect class="cls-1" width="728" height="90"/></clipPath></defs><g class="cls-2"><path class="cls-3" d="M188.24,53.68c1.44,0,2,1,2,2.32s-.56,2.4-2,2.4h-15.4c-1.4,0-2.48-.68-2.48-2.16V34.56c0-1.48,1.08-2.16,2.48-2.16h15c1.48,0,2,1,2,2.36s-.56,2.32-2,2.32H175.56v5.76H185c1.48,0,2,1,2,2.32s-.56,2.32-2,2.32h-9.4v6.2Z"/><path class="cls-3" d="M201.68,43c-2.68,0-3.2.36-3.2,3v10.6c0,1.48-1.08,2.08-2.44,2.08s-2.52-.6-2.52-2.08v-11c0-6.12,2-7.24,8.24-7.24,4.08,0,5.12,1,5.12,2.48a2.05,2.05,0,0,1-2.16,2.28C203.92,43.16,203.2,43,201.68,43Z"/><path class="cls-3" d="M208.2,44.68c0-3.72,2.56-6.28,8.92-6.28,5.84,0,7,1.08,7,2.84,0,1.28-.52,2-2.16,2-1.2,0-2.4-.44-5.28-.44-2.4,0-3.48.48-3.48,1.44,0,3.12,11.72.64,11.72,8.28,0,4.44-3.12,6.32-8.8,6.32-6.88,0-7.76-1-7.76-2.68,0-1.4.56-2.16,2.2-2.16,1.24,0,2.56.48,5.4.48,2.56,0,4-.52,4-1.72C219.92,49.76,208.2,52.08,208.2,44.68Z"/><path class="cls-3" d="M229.16,41.16c0-1.8,1.52-2.76,7.52-2.76,7.4,0,9.24,1.16,9.24,6.6v7.56c0,5.28-2.36,6.24-9.24,6.24s-8.64-1-8.64-6.36c0-4.44,1.08-6.24,8.4-6.24H241v-.8c0-2-.76-2.44-3.76-2.44s-4.8.48-6,.48C229.72,43.44,229.16,42.56,229.16,41.16ZM241,50.24h-4.84c-2.76,0-3.28.48-3.28,2s.6,2.16,4,2.16S241,54,241,52.92Z"/><path class="cls-3" d="M259.28,54.36c1.2,0,1.88-.12,2.72-.12,1.32,0,1.88.68,1.88,2,0,1.84-.88,2.6-5.36,2.6-3.8,0-5.68-1-5.68-5.52V43.36h-2c-1.4,0-1.92-1-1.92-2.28s.52-2.28,1.92-2.28h2V35.64c0-1.44,1.12-2,2.44-2s2.52.6,2.52,2V38.8h4.12c1.4,0,1.8,1,1.8,2.28s-.4,2.28-1.8,2.28H257.8v9.52A1.33,1.33,0,0,0,259.28,54.36Z"/><path class="cls-3" d="M275.08,43.24h-7.56c-1.44,0-2-.92-2-2.2s.52-2.24,2-2.24h11.64c1.84,0,2.84,1.08,2.84,2.44A4.22,4.22,0,0,1,280.8,44l-9,10h8.28c1.44,0,2,.92,2,2.2s-.52,2.24-2,2.24H267.84c-1.88,0-2.92-1.08-2.92-2.48a4.06,4.06,0,0,1,1.16-2.68Z"/><path class="cls-3" d="M297.28,41.08a3.36,3.36,0,0,1,3.52-2.6,3.27,3.27,0,0,1,3.4,2.6l3.44,11h.56l3.6-11.72c1-3.08,6.16-2.36,4.75,1.56L311.44,56.2A3.41,3.41,0,0,1,308,58.8a3.54,3.54,0,0,1-3.64-2.6l-3.4-11h-.56l-3.56,11a3.32,3.32,0,0,1-3.4,2.6,3.63,3.63,0,0,1-3.68-2.6l-4.88-14.28c-1.32-3.84,4-4.6,4.76-1.6l3.56,11.76h.56Z"/><path class="cls-3" d="M320.52,41.16c0-1.8,1.52-2.76,7.52-2.76,7.4,0,9.24,1.16,9.24,6.6v7.56c0,5.28-2.36,6.24-9.24,6.24s-8.64-1-8.64-6.36c0-4.44,1.08-6.24,8.4-6.24h4.56v-.8c0-2-.76-2.44-3.76-2.44s-4.8.48-6,.48C321.08,43.44,320.52,42.56,320.52,41.16Zm11.84,9.08h-4.84c-2.76,0-3.28.48-3.28,2s.6,2.16,4,2.16,4.16-.4,4.16-1.52Z"/><path class="cls-3" d="M357.12,37c0-1.4,1.12-2,2.44-2s2.4.56,2.4,2v8.32c0,5.36-2.72,6.48-9.16,6.48a20.47,20.47,0,0,1-5-.48h-.12v2.48h8c5.4,0,7.08,1.48,7.08,5.56,0,5.08-2.56,6.8-10.36,6.8-7,0-9.52-1.52-9.52-6.68V44.72c0-5.6,2.44-6.32,9.16-6.32a22.21,22.21,0,0,1,5,.44h.12Zm0,8V43a33.46,33.46,0,0,0-5-.32c-4.12,0-4.48.52-4.48,2.12v.84c0,1.56.56,1.88,4.72,1.88C356.76,47.56,357.12,47.2,357.12,45Zm-9.48,14.12c0,2.32.88,2.76,4.76,2.76,4.36,0,5.44-.48,5.44-2.12,0-1.24-.6-1.6-3.12-1.6h-7.08Z"/><path class="cls-3" d="M383.92,56a1.93,1.93,0,0,1-1.68,2.2,29.26,29.26,0,0,1-6.52.6c-7.16,0-9.48-1.76-9.48-7.56V46c0-6.12,2.6-7.64,9.32-7.64,6.56,0,8.68,1.68,8.68,7.52V48.2c0,1.72-.64,2.32-2.12,2.32H371.2v1c0,2.08,1.44,2.88,4.32,2.88,2.16,0,4.84-.36,6.32-.36S383.92,54.48,383.92,56ZM371.2,46.56h8.16v-.88c0-2.36-.88-3-4.08-3-3,0-4.08.52-4.08,3Z"/><path class="cls-3" d="M394.32,47.08v9.56c0,1.48-1.12,2.08-2.48,2.08s-2.48-.6-2.48-2.08v-9.8c0-7.44,1.8-8.44,9-8.44s9.16,1,9.16,8.44v9.8c0,1.48-1.12,2.08-2.48,2.08s-2.44-.6-2.44-2.08V47.08c0-3.64-.56-4.24-4.24-4.24S394.32,43.44,394.32,47.08Z"/><path class="cls-3" d="M439.48,47.2v9.44c0,1.48-1.12,2.08-2.48,2.08s-2.48-.6-2.48-2.08v-9.8c0-3.36-.72-3.88-3.56-3.88-3.08,0-3.48.6-3.48,4.24v9.44c0,1.48-1.12,2.08-2.48,2.08s-2.48-.6-2.48-2.08v-9.8c0-7.44,2.08-8.44,8.44-8.44,2.76,0,4.72.32,6,1.08,1.24-.76,3.16-1.08,6-1.08,6.31,0,8.51,1,8.51,8.44v9.8c0,1.48-1.16,2.08-2.52,2.08s-2.44-.6-2.44-2.08V47.2c0-3.64-.48-4.24-3.55-4.24S439.48,43.56,439.48,47.2Z"/><path class="cls-3" d="M459.52,31.21a2.82,2.82,0,1,1,0,5.63,2.82,2.82,0,0,1,0-5.63ZM462,56.64c0,1.48-1.12,2.08-2.48,2.08s-2.48-.6-2.48-2.08v-16c0-1.48,1.12-2.12,2.48-2.12s2.48.64,2.48,2.12Z"/><path class="cls-3" d="M485,56a1.93,1.93,0,0,1-1.68,2.2,29.14,29.14,0,0,1-6.51.6c-7.16,0-9.48-1.76-9.48-7.56V46c0-6.12,2.6-7.64,9.32-7.64,6.55,0,8.67,1.68,8.67,7.52V48.2c0,1.72-.64,2.32-2.12,2.32H472.32v1c0,2.08,1.44,2.88,4.32,2.88,2.16,0,4.83-.36,6.32-.36S485,54.48,485,56Zm-12.71-9.44h8.16v-.88c0-2.36-.88-3-4.08-3-3,0-4.08.52-4.08,3Z"/><path class="cls-3" d="M498.32,54.36c1.2,0,1.88-.12,2.72-.12,1.32,0,1.88.68,1.88,2,0,1.84-.88,2.6-5.36,2.6-3.8,0-5.68-1-5.68-5.52V43.36h-2c-1.4,0-1.92-1-1.92-2.28s.52-2.28,1.92-2.28h2V35.64c0-1.44,1.12-2,2.44-2s2.52.6,2.52,2V38.8H501c1.4,0,1.79,1,1.79,2.28s-.39,2.28-1.79,2.28h-4.12v9.52A1.33,1.33,0,0,0,498.32,54.36Z"/><path class="cls-3" d="M523.11,56a1.93,1.93,0,0,1-1.68,2.2,29.22,29.22,0,0,1-6.51.6c-7.16,0-9.48-1.76-9.48-7.56V46c0-6.12,2.6-7.64,9.31-7.64,6.56,0,8.68,1.68,8.68,7.52V48.2c0,1.72-.64,2.32-2.12,2.32H510.4v1c0,2.08,1.44,2.88,4.31,2.88,2.17,0,4.84-.36,6.32-.36S523.11,54.48,523.11,56ZM510.4,46.56h8.15v-.88c0-2.36-.88-3-4.08-3-3,0-4.07.52-4.07,3Z"/><path class="cls-3" d="M533.52,47.08v9.56c0,1.48-1.12,2.08-2.48,2.08s-2.48-.6-2.48-2.08v-9.8c0-7.44,1.8-8.44,9-8.44s9.16,1,9.16,8.44v9.8c0,1.48-1.12,2.08-2.48,2.08s-2.44-.6-2.44-2.08V47.08c0-3.64-.56-4.24-4.24-4.24S533.52,43.44,533.52,47.08Z"/><path class="cls-3" d="M555.2,52.52a3.09,3.09,0,0,1,3.08,3.12,3,3,0,0,1-3.08,3.08,3,3,0,0,1-3-3.08A3,3,0,0,1,555.2,52.52Zm2-3.48a1.9,1.9,0,0,1-2,1.68,1.8,1.8,0,0,1-2-1.68l-1-14.52c-.12-1.68,1.48-2.52,3.08-2.52s3,.8,2.92,2.52Z"/></g></svg>