<svg xmlns="http://www.w3.org/2000/svg" viewBox="0 0 266.11 17.64"><defs><style>.cls-1{fill:#fff;}</style></defs><title>t1-728</title><g id="Layer_2" data-name="Layer 2"><g id="Layer_1-2" data-name="Layer 1"><path class="cls-1" d="M4.39,10.44H3.31a.65.65,0,0,0-.67.72v5.55a.71.71,0,0,1-.72.67H.65A.68.68,0,0,1,0,16.73V.94A.71.71,0,0,1,.67.24H4.39A4.79,4.79,0,0,1,8,1.34,5.24,5.24,0,0,1,9.36,5.26C9.36,8.86,7.82,10.44,4.39,10.44Zm-.6-7.75H3.31a.66.66,0,0,0-.67.69V7.32A.61.61,0,0,0,3.31,8h.48C5.9,8,6.6,7.34,6.6,5.42,6.6,3.31,6,2.69,3.79,2.69Z"/><path class="cls-1" d="M22,17.38H20.74a.78.78,0,0,1-.82-.7l-.48-2.33a.86.86,0,0,0-.84-.72H16.32a.93.93,0,0,0-.79.72l-.46,2.36a.82.82,0,0,1-.81.67H13a.54.54,0,0,1-.53-.7l3-15.79a.71.71,0,0,1,.79-.65H18.6a.78.78,0,0,1,.84.7l3.17,15.74A.56.56,0,0,1,22,17.38ZM17.59,4.27c-.05-.17-.24-.21-.26,0L16.2,10.58c-.1.41.22.63.6.63h1.37c.43,0,.65-.22.57-.67Z"/><path class="cls-1" d="M35.42,17.38H34a.86.86,0,0,1-.91-.7L31.27,11c-.17-.48-.36-.67-.89-.67h-.24a.6.6,0,0,0-.69.67v5.67a.66.66,0,0,1-.67.67H27.46a.62.62,0,0,1-.65-.67V.94a.71.71,0,0,1,.67-.7H31c3.2,0,4.9,1.7,4.9,4.9a4.76,4.76,0,0,1-1.75,4.15c-.41.29-.51.45-.39.86l2.14,6.53A.5.5,0,0,1,35.42,17.38Zm-5-14.69h-.29a.69.69,0,0,0-.69.69V7.22a.69.69,0,0,0,.69.7h.29c2,0,2.71-.7,2.71-2.64S32.45,2.69,30.43,2.69Z"/><path class="cls-1" d="M49.78,17.38H48.24a.88.88,0,0,1-.94-.7L44.9,10c0-.16-.31-.24-.5-.24-.41,0-1.18,1-1.18,2.69v4.28a.67.67,0,0,1-.69.67H41.26a.69.69,0,0,1-.68-.67V.91a.69.69,0,0,1,.68-.67h1.27a.66.66,0,0,1,.69.7V6.67c0,.27.24.24.36,0L46.68.94a1.15,1.15,0,0,1,1.08-.7h1.46c.41,0,.46.41.29.7L46.7,5.78a1.38,1.38,0,0,0-.16,1.35l3.64,9.55C50.33,17,50.16,17.38,49.78,17.38Z"/><path class="cls-1" d="M66.86,10a3.83,3.83,0,0,0-.24,1.37v5.28a.73.73,0,0,1-.69.7H64.66a.68.68,0,0,1-.7-.67V11.4A3.33,3.33,0,0,0,63.72,10L60.36,1c-.15-.38,0-.72.43-.72h1.59a.89.89,0,0,1,.86.67l1.87,5.91c.15.43.31.43.46,0L67.49.91a.87.87,0,0,1,.89-.67h1.51c.45,0,.6.26.43.7Z"/><path class="cls-1" d="M82.75,16A4.43,4.43,0,0,1,79,17.64,4.37,4.37,0,0,1,75.33,16a6.4,6.4,0,0,1-1-4.06V5.71a6.53,6.53,0,0,1,1-4.08A4.33,4.33,0,0,1,79,0a4.42,4.42,0,0,1,3.72,1.63,6.59,6.59,0,0,1,1,4.08v6.22A6.39,6.39,0,0,1,82.75,16ZM81.05,5.76c0-2.45-.53-3.29-2-3.29s-2,.84-2,3.29V11.9c0,2.43.49,3.27,2,3.27s2-.84,2-3.27Z"/><path class="cls-1" d="M96.72,16.13a4.15,4.15,0,0,1-3.53,1.51,4.34,4.34,0,0,1-3.55-1.51c-.74-1-1-2.09-1-4.25V.94a.69.69,0,0,1,.67-.7H90.6a.64.64,0,0,1,.69.7V12.29c0,2,.56,2.88,1.9,2.88s1.87-.82,1.87-2.88V.94a.67.67,0,0,1,.7-.7H97A.7.7,0,0,1,97.7,1v10.9C97.7,14.06,97.46,15.19,96.72,16.13Z"/><path class="cls-1" d="M111.48,17.38h-1.42a.87.87,0,0,1-.91-.7L107.33,11c-.17-.48-.36-.67-.89-.67h-.24c-.46,0-.7.21-.7.67v5.67a.66.66,0,0,1-.67.67h-1.32a.62.62,0,0,1-.65-.67V.94a.71.71,0,0,1,.68-.7H107c3.19,0,4.9,1.7,4.9,4.9a4.74,4.74,0,0,1-1.76,4.15c-.4.29-.5.45-.38.86l2.14,6.53A.5.5,0,0,1,111.48,17.38Zm-5-14.69h-.29a.7.7,0,0,0-.7.69V7.22a.7.7,0,0,0,.7.7h.29c2,0,2.71-.7,2.71-2.64S108.5,2.69,106.49,2.69Z"/><path class="cls-1" d="M132.33,17.38h-1.41a.86.86,0,0,1-.91-.7L128.18,11c-.17-.48-.36-.67-.89-.67h-.24a.6.6,0,0,0-.69.67v5.67a.66.66,0,0,1-.67.67h-1.32a.62.62,0,0,1-.65-.67V.94a.71.71,0,0,1,.67-.7h3.5c3.2,0,4.9,1.7,4.9,4.9A4.76,4.76,0,0,1,131,9.29c-.41.29-.5.45-.38.86l2.13,6.53A.5.5,0,0,1,132.33,17.38Zm-5-14.69h-.29a.69.69,0,0,0-.69.69V7.22a.69.69,0,0,0,.69.7h.29c2,0,2.71-.7,2.71-2.64S129.36,2.69,127.34,2.69Z"/><path class="cls-1" d="M143.35,16.71a.77.77,0,0,1-.81.67h-1.9a.79.79,0,0,1-.84-.7L136.42.94c-.08-.39.09-.7.5-.7h1.37a.86.86,0,0,1,.86.7l2.31,11.69c0,.21.19.19.24,0l2-11.66a.83.83,0,0,1,.79-.7h1.32a.54.54,0,0,1,.57.7Z"/><path class="cls-1" d="M159.93,17.38h-1.29a.68.68,0,0,1-.67-.65V.91a.65.65,0,0,1,.67-.67H160a.7.7,0,0,1,.67.65V16.73A.72.72,0,0,1,159.93,17.38Z"/><path class="cls-1" d="M175.08,17.38h-1.3a1,1,0,0,1-1-.7L169.1,7.75c-.14-.33-.29-.31-.29,0v8.93a.66.66,0,0,1-.69.7h-1.3a.65.65,0,0,1-.67-.67V.94a.64.64,0,0,1,.67-.7h1.3a1.08,1.08,0,0,1,1,.67l3.74,9c.15.34.29.32.29,0V.94a.68.68,0,0,1,.67-.7h1.3a.64.64,0,0,1,.7.67v15.8A.73.73,0,0,1,175.08,17.38Z"/><path class="cls-1" d="M192.43,17.38h-3.6a.77.77,0,0,1-.7-.7V.94a.72.72,0,0,1,.7-.7h3.29c3.19,0,5,1.56,5,4.32A3.48,3.48,0,0,1,195,8.14c-.22.09-.24.16-.24.26s.05.14.24.22a3.79,3.79,0,0,1,2.54,3.91C197.54,15.55,195.62,17.38,192.43,17.38Zm-.6-14.69h-.36a.7.7,0,0,0-.67.74V6.55a.71.71,0,0,0,.67.67h.31a2.37,2.37,0,0,0,2.64-2.4C194.42,3.38,193.58,2.69,191.83,2.69Zm-.05,7h-.31a.62.62,0,0,0-.67.69v3.89c0,.46.21.7.67.7h.67c1.71,0,2.64-.87,2.64-2.4A2.75,2.75,0,0,0,191.78,9.65Z"/><path class="cls-1" d="M210.81,17.38h-1.27a.77.77,0,0,1-.81-.7l-.48-2.33a.86.86,0,0,0-.84-.72h-2.28a.93.93,0,0,0-.8.72l-.45,2.36a.83.83,0,0,1-.82.67h-1.25a.53.53,0,0,1-.52-.7l3-15.79a.73.73,0,0,1,.8-.65h2.28a.78.78,0,0,1,.84.7l3.16,15.74A.56.56,0,0,1,210.81,17.38ZM206.4,4.27c-.05-.17-.24-.21-.27,0L205,10.58c-.1.41.21.63.6.63H207c.44,0,.65-.22.58-.67Z"/><path class="cls-1" d="M224.54,17.38h-1.29a1,1,0,0,1-1-.7l-3.72-8.93c-.15-.33-.29-.31-.29,0v8.93a.67.67,0,0,1-.7.7h-1.29a.65.65,0,0,1-.68-.67V.94a.64.64,0,0,1,.68-.7h1.29a1.08,1.08,0,0,1,1,.67l3.75,9c.14.34.28.32.28,0V.94a.68.68,0,0,1,.68-.7h1.29a.64.64,0,0,1,.7.67v15.8A.73.73,0,0,1,224.54,17.38Z"/><path class="cls-1" d="M237.65,2.69h-3.82a.73.73,0,0,0-.65.72V6.5a.7.7,0,0,0,.65.68h3.26a.79.79,0,0,1,.7.74V9a.83.83,0,0,1-.7.68h-3.26a.73.73,0,0,0-.67.69v6.36a.83.83,0,0,1-.7.7h-1.27a.84.84,0,0,1-.67-.7V.94a.68.68,0,0,1,.67-.7h6.46a.67.67,0,0,1,.69.7V2A.72.72,0,0,1,237.65,2.69Z"/><path class="cls-1" d="M249.55,2.69h-3.82a.72.72,0,0,0-.64.72V6.5a.7.7,0,0,0,.64.68H249a.78.78,0,0,1,.69.74V9a.82.82,0,0,1-.69.68h-3.27a.74.74,0,0,0-.67.69v6.36a.82.82,0,0,1-.69.7h-1.28a.85.85,0,0,1-.67-.7V.94a.68.68,0,0,1,.67-.7h6.46a.67.67,0,0,1,.7.7V2A.72.72,0,0,1,249.55,2.69Z"/><path class="cls-1" d="M256.29,17.16a.86.86,0,0,1-.48.22h-1.1a.78.78,0,0,1-.46-.22.88.88,0,0,1-.21-.48V15.34a.88.88,0,0,1,.21-.48.78.78,0,0,1,.46-.22h1.1a.86.86,0,0,1,.48.22.73.73,0,0,1,.22.45v1.37A.75.75,0,0,1,256.29,17.16Zm4.8,0a.86.86,0,0,1-.48.22h-1.1a.78.78,0,0,1-.46-.22.88.88,0,0,1-.21-.48V15.34a.88.88,0,0,1,.21-.48.78.78,0,0,1,.46-.22h1.1a.86.86,0,0,1,.48.22.73.73,0,0,1,.22.45v1.37A.75.75,0,0,1,261.09,17.16Zm4.8,0a.86.86,0,0,1-.48.22h-1.1a.78.78,0,0,1-.46-.22.88.88,0,0,1-.21-.48V15.34a.88.88,0,0,1,.21-.48.78.78,0,0,1,.46-.22h1.1a.86.86,0,0,1,.48.22.73.73,0,0,1,.22.45v1.37A.75.75,0,0,1,265.89,17.16Z"/></g></g></svg>