<?xml version="1.0" encoding="UTF-8"?>
<svg id="Layer_2" data-name="Layer 2" xmlns="http://www.w3.org/2000/svg" xmlns:xlink="http://www.w3.org/1999/xlink" viewBox="0 0 600 500">
  <defs>
    <style>
      .cls-1 {
        fill: none;
      }

      .cls-2 {
        clip-path: url(#clippath-1);
      }

      .cls-3 {
        fill: #fff;
      }

      .cls-4 {
        clip-path: url(#clippath);
      }
    </style>
    <clipPath id="clippath">
      <rect class="cls-1" width="600" height="500"/>
    </clipPath>
    <clipPath id="clippath-1">
      <rect class="cls-1" width="600" height="500"/>
    </clipPath>
  </defs>
  <g id="Layer_1-2" data-name="Layer 1">
    <g class="cls-4">
      <g class="cls-2">
        <g>
          <g>
            <path class="cls-3" d="M138.11,325.68h3.46v13.8h-1.72v-13.72l-3.54,13.72h-3.56l-3.54-13.72v13.72h-1.72v-13.8h3.46l3.58,13.72,3.58-13.72Z"/>
            <path class="cls-3" d="M148.59,330.6c-1.52,0-2.28.86-2.34,2.04h-1.66c.12-1.84,1.46-3.36,4-3.36,2.22,0,4.04,1.1,4.04,4.12v6.08h-1.6v-1.96h-.04c-.52,1.38-1.7,2.16-3.26,2.16-1.92,0-3.48-1.16-3.48-3.1,0-2.06,1.8-2.72,3.92-2.94l2.8-.3v-.32c0-1.5-.82-2.42-2.38-2.42ZM150.97,335.15v-.54l-2.66.3c-1.5.16-2.26.7-2.26,1.76,0,1,.9,1.7,2.08,1.7,1.76,0,2.84-1.06,2.84-3.22Z"/>
            <path class="cls-3" d="M159.55,335.31l-1.34-.3c-1.92-.42-3.08-1.28-3.08-2.86,0-1.66,1.58-2.86,3.72-2.86,2.28,0,3.88,1.32,4.02,3.16h-1.66c-.14-1.16-.96-1.84-2.36-1.84-1.16,0-2.1.46-2.1,1.38,0,.82.6,1.1,2.1,1.44l1.34.3c1.92.44,2.88,1.42,2.88,3.04,0,1.72-1.4,2.92-4,2.92s-4.12-1.82-4.24-3.7h1.66c.1,1.38,1.14,2.38,2.64,2.38,1.28,0,2.34-.56,2.34-1.5,0-.66-.4-1.22-1.92-1.56Z"/>
            <path class="cls-3" d="M169.49,339.69c-2.98,0-4.64-2.42-4.64-5.2s1.58-5.2,4.56-5.2,4.78,2.34,4.5,5.7h-7.38c.08,2.08,1.28,3.38,3.12,3.38,1.74,0,2.26-1.22,2.48-2.04h1.66c-.36,1.78-1.56,3.36-4.3,3.36ZM166.53,333.67h5.74c-.14-1.8-1.1-3.06-2.86-3.06s-2.72,1.26-2.88,3.06Z"/>
            <path class="cls-3" d="M178.01,339.49h-1.66v-10h1.6v1.96h.04c.52-1.38,1.54-2.16,3.02-2.16v1.8h-.36c-1.62,0-2.64.6-2.64,2.4v6Z"/>
            <path class="cls-3" d="M186.39,330.6c-1.52,0-2.28.86-2.34,2.04h-1.66c.12-1.84,1.46-3.36,4-3.36,2.22,0,4.04,1.1,4.04,4.12v6.08h-1.6v-1.96h-.04c-.52,1.38-1.7,2.16-3.26,2.16-1.92,0-3.48-1.16-3.48-3.1,0-2.06,1.8-2.72,3.92-2.94l2.8-.3v-.32c0-1.5-.82-2.42-2.38-2.42ZM188.77,335.15v-.54l-2.66.3c-1.5.16-2.26.7-2.26,1.76,0,1,.9,1.7,2.08,1.7,1.76,0,2.84-1.06,2.84-3.22Z"/>
            <path class="cls-3" d="M192.13,330.8v-1.32h1.82v-2.28h1.66v2.28h2.54v1.32h-2.54v6.26c0,.78.28,1.1,1.12,1.1h1.34v1.32h-1.8c-1.68,0-2.32-.8-2.32-2.24v-6.44h-1.82Z"/>
            <path class="cls-3" d="M200.01,325.68h1.94v1.94h-1.94v-1.94ZM201.81,339.49h-1.66v-10h1.66v10Z"/>
            <path class="cls-3" d="M219.83,333.83h-4.68v-1.44h6.44v7.1h-1.64v-2.94h-.04c-.56,1.56-1.96,3.14-4.36,3.14-3.82,0-6.28-3.16-6.28-7.1s2.36-7.1,6.36-7.1c3.46,0,5.46,2.26,5.82,4.64h-1.78c-.28-1.64-1.48-3.2-3.92-3.2-3,0-4.62,2.36-4.62,5.66s1.68,5.66,4.68,5.66c2.64,0,4.02-1.74,4.02-3.84v-.58Z"/>
            <path class="cls-3" d="M226.01,339.49h-1.66v-10h1.6v1.96h.04c.52-1.38,1.54-2.16,3.02-2.16v1.8h-.36c-1.62,0-2.64.6-2.64,2.4v6Z"/>
            <path class="cls-3" d="M234.67,339.69c-2.98,0-4.64-2.42-4.64-5.2s1.58-5.2,4.56-5.2,4.78,2.34,4.5,5.7h-7.38c.08,2.08,1.28,3.38,3.12,3.38,1.74,0,2.26-1.22,2.48-2.04h1.66c-.36,1.78-1.56,3.36-4.3,3.36ZM231.71,333.67h5.74c-.14-1.8-1.1-3.06-2.86-3.06s-2.72,1.26-2.88,3.06Z"/>
            <path class="cls-3" d="M245.55,329.28c2.42,0,3.94,1.24,4.38,3.54h-1.66c-.3-1.62-1.3-2.22-2.62-2.22-1.9,0-2.92,1.76-2.92,3.88s1.08,3.88,3.04,3.88c1.28,0,2.3-.64,2.6-2.26h1.66c-.44,2.3-1.98,3.58-4.4,3.58-2.88,0-4.7-2.42-4.7-5.2s1.8-5.2,4.62-5.2Z"/>
            <path class="cls-3" d="M255.91,330.6c-1.52,0-2.28.86-2.34,2.04h-1.66c.12-1.84,1.46-3.36,4-3.36,2.22,0,4.04,1.1,4.04,4.12v6.08h-1.6v-1.96h-.04c-.52,1.38-1.7,2.16-3.26,2.16-1.92,0-3.48-1.16-3.48-3.1,0-2.06,1.8-2.72,3.92-2.94l2.8-.3v-.32c0-1.5-.82-2.42-2.38-2.42ZM258.29,335.15v-.54l-2.66.3c-1.5.16-2.26.7-2.26,1.76,0,1,.9,1.7,2.08,1.7,1.76,0,2.84-1.06,2.84-3.22Z"/>
            <path class="cls-3" d="M262.89,325.68h1.66v13.8h-1.66v-13.8Z"/>
            <path class="cls-3" d="M271.63,339.69c-2.98,0-4.64-2.42-4.64-5.2s1.58-5.2,4.56-5.2,4.78,2.34,4.5,5.7h-7.38c.08,2.08,1.28,3.38,3.12,3.38,1.74,0,2.26-1.22,2.48-2.04h1.66c-.36,1.78-1.56,3.36-4.3,3.36ZM268.67,333.67h5.74c-.14-1.8-1.1-3.06-2.86-3.06s-2.72,1.26-2.88,3.06Z"/>
            <path class="cls-3" d="M287.05,330.6c-1.52,0-2.28.86-2.34,2.04h-1.66c.12-1.84,1.46-3.36,4-3.36,2.22,0,4.04,1.1,4.04,4.12v6.08h-1.6v-1.96h-.04c-.52,1.38-1.7,2.16-3.26,2.16-1.92,0-3.48-1.16-3.48-3.1,0-2.06,1.8-2.72,3.92-2.94l2.8-.3v-.32c0-1.5-.82-2.42-2.38-2.42ZM289.43,335.15v-.54l-2.66.3c-1.5.16-2.26.7-2.26,1.76,0,1,.9,1.7,2.08,1.7,1.76,0,2.84-1.06,2.84-3.22Z"/>
            <path class="cls-3" d="M299.07,339.69c-1.58,0-2.78-.88-3.34-2.32h-.04v2.12h-1.66v-13.8h1.66v5.92h.04c.56-1.44,1.76-2.32,3.34-2.32,2.84,0,4.3,2.44,4.3,5.2s-1.46,5.2-4.3,5.2ZM298.57,330.6c-1.92,0-2.96,1.66-2.96,3.88s1.04,3.88,2.96,3.88,3-1.66,3-3.88-1.08-3.88-3-3.88Z"/>
            <path class="cls-3" d="M316.53,325.48c3.16,0,5.44,2.04,6,5.12h-1.78c-.46-2.32-1.98-3.68-4.14-3.68-2.7,0-4.5,2.36-4.5,5.66s1.88,5.66,4.66,5.66c2.08,0,3.64-1.32,4.1-3.64h1.78c-.56,3.08-2.88,5.08-6.04,5.08-3.72,0-6.36-2.92-6.36-7.1,0-3.94,2.56-7.1,6.28-7.1Z"/>
            <path class="cls-3" d="M335.31,325.68v13.8h-1.72v-6.32h-6.56v6.32h-1.72v-13.8h1.72v6.04h6.56v-6.04h1.72Z"/>
            <path class="cls-3" d="M339.03,325.68h8.68v1.44h-6.96v4.68h6.84v1.44h-6.84v6.24h-1.72v-13.8Z"/>
            <path class="cls-3" d="M354.13,335.69c0-2.1,1.84-3.24,3.1-3.54v-.04c-1.14-.4-2.58-1.24-2.58-3.06,0-2.04,1.96-3.56,4.6-3.56s4.6,1.52,4.6,3.56c0,1.82-1.44,2.66-2.58,3.06v.04c1.26.3,3.1,1.44,3.1,3.54,0,2.56-2.48,4-5.12,4s-5.12-1.44-5.12-4ZM362.57,335.55c0-1.6-1.42-2.72-3.32-2.72s-3.32,1.12-3.32,2.72,1.42,2.82,3.32,2.82,3.32-1.22,3.32-2.82ZM362.05,329.08c0-1.24-1.02-2.28-2.8-2.28s-2.8,1.04-2.8,2.28,1.16,2.34,2.8,2.34,2.8-1.1,2.8-2.34Z"/>
            <path class="cls-3" d="M366.41,335.69c0-2.1,1.84-3.24,3.1-3.54v-.04c-1.14-.4-2.58-1.24-2.58-3.06,0-2.04,1.96-3.56,4.6-3.56s4.6,1.52,4.6,3.56c0,1.82-1.44,2.66-2.58,3.06v.04c1.26.3,3.1,1.44,3.1,3.54,0,2.56-2.48,4-5.12,4s-5.12-1.44-5.12-4ZM374.85,335.55c0-1.6-1.42-2.72-3.32-2.72s-3.32,1.12-3.32,2.72,1.42,2.82,3.32,2.82,3.32-1.22,3.32-2.82ZM374.33,329.08c0-1.24-1.02-2.28-2.8-2.28s-2.8,1.04-2.8,2.28,1.16,2.34,2.8,2.34,2.8-1.1,2.8-2.34Z"/>
            <path class="cls-3" d="M378.63,335.33h1.66c.2,1.62.9,3.04,3.16,3.04,1.52,0,2.58-.96,2.58-2.46,0-2.16-1.4-2.82-4.24-2.9v-1.32c2.74-.08,3.98-.66,3.98-2.64,0-1.28-.86-2.24-2.52-2.24-1.78,0-2.64,1.02-2.8,2.68h-1.66c.28-2.68,2.18-4,4.34-4,2.62,0,4.44,1.34,4.44,3.7,0,1.74-1.46,2.84-3.22,3.14v.04c1.88.32,3.48,1.26,3.48,3.38,0,2.5-2,3.94-4.54,3.94s-4.36-1.52-4.66-4.36Z"/>
            <path class="cls-3" d="M390.29,337.55h1.94v1.94h-1.94v-1.94Z"/>
            <path class="cls-3" d="M394.77,334.95v-1.32h7.24v1.32h-7.24Z"/>
          </g>
          <path class="cls-3" d="M406.35,339.49l5.9-13.8h1.74l-5.9,13.8h-1.74Z"/>
          <g>
            <path class="cls-3" d="M429.5,325.68h3.46v13.8h-1.72v-13.72l-3.54,13.72h-3.56l-3.54-13.72v13.72h-1.72v-13.8h3.46l3.58,13.72,3.58-13.72Z"/>
            <path class="cls-3" d="M435.61,334.49c0-2.66,1.8-5.2,4.8-5.2s4.8,2.54,4.8,5.2-1.8,5.2-4.8,5.2-4.8-2.54-4.8-5.2ZM443.42,334.49c0-2.22-1.08-3.88-3-3.88s-3,1.66-3,3.88,1.08,3.88,3,3.88,3-1.66,3-3.88Z"/>
            <path class="cls-3" d="M451.61,330.66c-1.64,0-2.32,1.04-2.32,2.46v6.36h-1.66v-10h1.6v1.96h.04c.52-1.38,1.54-2.16,3.02-2.16,2.14,0,3.28,1.54,3.28,3.42v6.78h-1.66v-6.2c0-1.66-.68-2.62-2.3-2.62Z"/>
            <path class="cls-3" d="M462.15,330.6c-1.52,0-2.28.86-2.34,2.04h-1.66c.12-1.84,1.46-3.36,4-3.36,2.22,0,4.04,1.1,4.04,4.12v6.08h-1.6v-1.96h-.04c-.52,1.38-1.7,2.16-3.26,2.16-1.92,0-3.48-1.16-3.48-3.1,0-2.06,1.8-2.72,3.92-2.94l2.8-.3v-.32c0-1.5-.82-2.42-2.38-2.42ZM464.53,335.15v-.54l-2.66.3c-1.5.16-2.26.7-2.26,1.76,0,1,.9,1.7,2.08,1.7,1.76,0,2.84-1.06,2.84-3.22Z"/>
            <path class="cls-3" d="M467.89,330.8v-1.32h1.82v-2.28h1.66v2.28h2.54v1.32h-2.54v6.26c0,.78.28,1.1,1.12,1.1h1.34v1.32h-1.8c-1.68,0-2.32-.8-2.32-2.24v-6.44h-1.82Z"/>
          </g>
        </g>
      </g>
    </g>
  </g>
</svg>