<?xml version="1.0" encoding="UTF-8"?>
<svg id="Layer_2" data-name="Layer 2" xmlns="http://www.w3.org/2000/svg" xmlns:xlink="http://www.w3.org/1999/xlink" viewBox="0 0 600 500">
  <defs>
    <style>
      .cls-1 {
        fill: none;
      }

      .cls-2 {
        fill: #fff;
      }

      .cls-3 {
        clip-path: url(#clippath);
      }
    </style>
    <clipPath id="clippath">
      <rect class="cls-1" width="600" height="500"/>
    </clipPath>
  </defs>
  <g id="Layer_1-2" data-name="Layer 1">
    <g class="cls-3">
      <g>
        <g>
          <path class="cls-2" d="M117.48,375.49v-20.7h6.27c6.63,0,10.74,3.93,10.74,10.35s-4.17,10.35-10.8,10.35h-6.21ZM120.87,357.58v15.12h2.82c4.65,0,7.26-2.85,7.26-7.56s-2.61-7.56-7.26-7.56h-2.82Z"/>
          <path class="cls-2" d="M144.33,375.79c-4.56,0-7.35-3.75-7.35-7.8s2.79-7.8,7.35-7.8,7.35,3.75,7.35,7.8-2.79,7.8-7.35,7.8ZM144.33,373.36c2.52,0,3.93-2.19,3.93-5.37s-1.41-5.37-3.93-5.37-3.9,2.16-3.9,5.37,1.41,5.37,3.9,5.37Z"/>
          <path class="cls-2" d="M154.86,354.79h3.27v20.7h-3.27v-20.7Z"/>
          <path class="cls-2" d="M168.54,375.79c-4.41,0-7.23-3.66-7.23-7.8s2.73-7.8,7.11-7.8c3.51,0,6.15,1.92,6.72,5.46h-3.3c-.36-1.92-1.59-3.03-3.36-3.03-2.43,0-3.72,2.25-3.72,5.37s1.38,5.37,3.87,5.37c1.74,0,3-1.17,3.33-3.09h3.33c-.57,3.54-3.24,5.52-6.75,5.52Z"/>
          <path class="cls-2" d="M184.47,375.79c-4.47,0-7.08-3.66-7.08-7.8s2.55-7.8,7.02-7.8,7.41,3.63,6.96,8.85h-10.71c.15,2.73,1.74,4.32,4.02,4.32,1.95,0,2.79-1.32,3.15-2.52h3.27c-.63,2.97-2.97,4.95-6.63,4.95ZM180.69,366.61h7.41c-.21-2.43-1.5-3.99-3.69-3.99s-3.51,1.56-3.72,3.99Z"/>
          <path class="cls-2" d="M204.36,375.49l-4.11-15h3.3l3.81,14.04,3.84-14.04h3.27l-4.08,15h-6.03Z"/>
          <path class="cls-2" d="M217.14,358.12v-3.33h3.48v3.33h-3.48ZM217.23,375.49v-15h3.27v15h-3.27Z"/>
          <path class="cls-2" d="M229.11,375.49c-2.34,0-3.54-1.11-3.54-3.3v-9.27h-2.49v-2.43h2.49v-3.42h3.27v3.42h3.57v2.43h-3.57v8.52c0,1.26.45,1.62,1.59,1.62h1.86v2.43h-3.18Z"/>
          <path class="cls-2" d="M239.46,375.79c-3.12,0-5.31-1.95-5.31-4.68,0-3.09,2.7-4.23,6.03-4.59l3.81-.39v-.45c0-2.01-1.14-3.06-3.03-3.06s-2.91.93-3,2.61h-3.27c.12-2.91,2.46-5.04,6.33-5.04s6.24,2.04,6.24,6.09v9.21h-3.15v-2.94h-.09c-.63,2.07-2.31,3.24-4.56,3.24ZM240.3,373.36c2.34,0,3.69-1.59,3.69-4.44v-.51l-3.27.36c-1.98.21-3.12.93-3.12,2.37s1.26,2.22,2.7,2.22Z"/>
          <path class="cls-2" d="M257.97,368.89v-2.43h11.16v2.43h-11.16Z"/>
          <path class="cls-2" d="M280.5,375.49v-20.7h3.39v20.7h-3.39Z"/>
          <path class="cls-2" d="M288.42,375.49v-20.7h3.18v8.64h.06c.63-2.1,2.19-3.24,4.38-3.24,3.3,0,4.92,2.25,4.92,5.55v9.75h-3.27v-8.79c0-2.79-.99-4.05-3-4.05s-3,1.38-3,3.84v9h-3.27Z"/>
          <path class="cls-2" d="M304.86,375.49v-15h3.18v2.94h.06c.63-2.1,2.19-3.24,4.5-3.24v3.27h-.51c-2.79,0-3.96.81-3.96,3.54v8.49h-3.27Z"/>
          <path class="cls-2" d="M323.43,375.49l-3.18-15h3.3l2.97,14.04,2.7-14.04h5.76l2.7,14.04,3-14.04h3.27l-3.18,15h-5.97l-2.7-14.04-2.7,14.04h-5.97Z"/>
          <path class="cls-2" d="M352.86,375.79c-4.47,0-7.08-3.66-7.08-7.8s2.55-7.8,7.02-7.8,7.41,3.63,6.96,8.85h-10.71c.15,2.73,1.74,4.32,4.02,4.32,1.95,0,2.79-1.32,3.15-2.52h3.27c-.63,2.97-2.97,4.95-6.63,4.95ZM349.08,366.61h7.41c-.21-2.43-1.5-3.99-3.69-3.99s-3.51,1.56-3.72,3.99Z"/>
          <path class="cls-2" d="M362.94,375.49v-15h3.18v2.94h.06c.63-2.1,2.19-3.24,4.5-3.24v3.27h-.51c-2.79,0-3.96.81-3.96,3.54v8.49h-3.27Z"/>
          <path class="cls-2" d="M377.79,375.49c-2.34,0-3.54-1.11-3.54-3.3v-9.27h-2.49v-2.43h2.49v-3.42h3.27v3.42h3.57v2.43h-3.57v8.52c0,1.26.45,1.62,1.59,1.62h1.86v2.43h-3.18Z"/>
          <path class="cls-2" d="M386.61,375.49l-4.11-15h3.3l3.81,14.04,3.84-14.04h3.27l-4.08,15h-6.03Z"/>
          <path class="cls-2" d="M405.69,375.79c-4.56,0-7.35-3.75-7.35-7.8s2.79-7.8,7.35-7.8,7.35,3.75,7.35,7.8-2.79,7.8-7.35,7.8ZM405.69,373.36c2.52,0,3.93-2.19,3.93-5.37s-1.41-5.37-3.93-5.37-3.9,2.16-3.9,5.37,1.41,5.37,3.9,5.37Z"/>
          <path class="cls-2" d="M416.22,354.79h3.27v20.7h-3.27v-20.7Z"/>
          <path class="cls-2" d="M423.51,354.79h3.27v20.7h-3.27v-20.7Z"/>
          <path class="cls-2" d="M436.41,375.79c-4.11,0-6.33-2.67-6.54-5.43h3.24c.18,1.92,1.71,3,3.33,3,1.47,0,2.85-.66,2.85-1.95,0-.84-.69-1.53-2.43-1.92l-2.04-.45c-2.94-.63-4.68-2.04-4.68-4.41,0-2.73,2.64-4.44,5.85-4.44,3.54,0,6.06,2.01,6.27,4.74h-3.24c-.21-1.74-1.56-2.31-3.03-2.31s-2.55.63-2.55,1.74c0,.99.84,1.32,2.76,1.77l2.04.45c3.24.72,4.32,2.34,4.32,4.59,0,2.91-2.7,4.62-6.15,4.62Z"/>
          <path class="cls-2" d="M450.09,375.49c-2.34,0-3.54-1.11-3.54-3.3v-9.27h-2.49v-2.43h2.49v-3.42h3.27v3.42h3.57v2.43h-3.57v8.52c0,1.26.45,1.62,1.59,1.62h1.86v2.43h-3.18Z"/>
          <path class="cls-2" d="M462.15,375.79c-4.47,0-7.08-3.66-7.08-7.8s2.55-7.8,7.02-7.8,7.41,3.63,6.96,8.85h-10.71c.15,2.73,1.74,4.32,4.02,4.32,1.95,0,2.79-1.32,3.15-2.52h3.27c-.63,2.97-2.97,4.95-6.63,4.95ZM458.37,366.61h7.41c-.21-2.43-1.5-3.99-3.69-3.99s-3.51,1.56-3.72,3.99Z"/>
          <path class="cls-2" d="M477.84,375.79c-4.11,0-6.33-2.67-6.54-5.43h3.24c.18,1.92,1.71,3,3.33,3,1.47,0,2.85-.66,2.85-1.95,0-.84-.69-1.53-2.43-1.92l-2.04-.45c-2.94-.63-4.68-2.04-4.68-4.41,0-2.73,2.64-4.44,5.85-4.44,3.54,0,6.06,2.01,6.27,4.74h-3.24c-.21-1.74-1.56-2.31-3.03-2.31s-2.55.63-2.55,1.74c0,.99.84,1.32,2.76,1.77l2.04.45c3.24.72,4.32,2.34,4.32,4.59,0,2.91-2.7,4.62-6.15,4.62Z"/>
        </g>
        <g>
          <path class="cls-2" d="M227.43,411.49v-20.7h3.39v20.7h-3.39Z"/>
          <path class="cls-2" d="M235.35,411.49v-15h3.18v2.94h.06c.63-2.1,2.19-3.24,4.38-3.24,3.3,0,4.92,2.25,4.92,5.55v9.75h-3.27v-8.79c0-2.79-.99-4.05-3-4.05s-3,1.38-3,3.84v9h-3.27Z"/>
          <path class="cls-2" d="M254.37,411.49l-4.11-15h3.3l3.81,14.04,3.84-14.04h3.27l-4.08,15h-6.03Z"/>
          <path class="cls-2" d="M273.15,411.79c-4.47,0-7.08-3.66-7.08-7.8s2.55-7.8,7.02-7.8,7.41,3.63,6.96,8.85h-10.71c.15,2.73,1.74,4.32,4.02,4.32,1.95,0,2.79-1.32,3.15-2.52h3.27c-.63,2.97-2.97,4.95-6.63,4.95ZM269.37,402.61h7.41c-.21-2.43-1.5-3.99-3.69-3.99s-3.51,1.56-3.72,3.99Z"/>
          <path class="cls-2" d="M288.84,411.79c-4.11,0-6.33-2.67-6.54-5.43h3.24c.18,1.92,1.71,3,3.33,3,1.47,0,2.85-.66,2.85-1.95,0-.84-.69-1.53-2.43-1.92l-2.04-.45c-2.94-.63-4.68-2.04-4.68-4.41,0-2.73,2.64-4.44,5.85-4.44,3.54,0,6.06,2.01,6.27,4.74h-3.24c-.21-1.74-1.56-2.31-3.03-2.31s-2.55.63-2.55,1.74c0,.99.84,1.32,2.76,1.77l2.04.45c3.24.72,4.32,2.34,4.32,4.59,0,2.91-2.7,4.62-6.15,4.62Z"/>
          <path class="cls-2" d="M302.55,411.49c-2.34,0-3.54-1.11-3.54-3.3v-9.27h-2.49v-2.43h2.49v-3.42h3.27v3.42h3.57v2.43h-3.57v8.52c0,1.26.45,1.62,1.59,1.62h1.86v2.43h-3.18Z"/>
          <path class="cls-2" d="M311.82,411.49h-3.27v-15h3.18v2.94h.06c.63-2.1,2.04-3.24,4.2-3.24,2.46,0,4.02,1.26,4.62,3.24h.06c.66-2.1,2.19-3.24,4.41-3.24,3.33,0,4.95,2.25,4.95,5.55v9.75h-3.27v-8.79c0-2.79-.93-4.05-2.91-4.05s-2.91,1.38-2.91,3.84v9h-3.27v-8.79c0-2.79-.96-4.05-2.91-4.05s-2.94,1.38-2.94,3.84v9Z"/>
          <path class="cls-2" d="M340.17,411.79c-4.47,0-7.08-3.66-7.08-7.8s2.55-7.8,7.02-7.8,7.41,3.63,6.96,8.85h-10.71c.15,2.73,1.74,4.32,4.02,4.32,1.95,0,2.79-1.32,3.15-2.52h3.27c-.63,2.97-2.97,4.95-6.63,4.95ZM336.39,402.61h7.41c-.21-2.43-1.5-3.99-3.69-3.99s-3.51,1.56-3.72,3.99Z"/>
          <path class="cls-2" d="M350.25,411.49v-15h3.18v2.94h.06c.63-2.1,2.19-3.24,4.38-3.24,3.3,0,4.92,2.25,4.92,5.55v9.75h-3.27v-8.79c0-2.79-.99-4.05-3-4.05s-3,1.38-3,3.84v9h-3.27Z"/>
          <path class="cls-2" d="M371.19,411.49c-2.34,0-3.54-1.11-3.54-3.3v-9.27h-2.49v-2.43h2.49v-3.42h3.27v3.42h3.57v2.43h-3.57v8.52c0,1.26.45,1.62,1.59,1.62h1.86v2.43h-3.18Z"/>
        </g>
      </g>
    </g>
  </g>
</svg>