<?xml version="1.0" encoding="UTF-8"?>
<svg id="Layer_2" data-name="Layer 2" xmlns="http://www.w3.org/2000/svg" xmlns:xlink="http://www.w3.org/1999/xlink" viewBox="0 0 600 500">
  <defs>
    <style>
      .cls-1 {
        fill: none;
      }

      .cls-2 {
        fill: #fff;
      }

      .cls-3 {
        clip-path: url(#clippath);
      }
    </style>
    <clipPath id="clippath">
      <rect class="cls-1" width="600" height="500"/>
    </clipPath>
  </defs>
  <g id="Layer_1-2" data-name="Layer 1">
    <g class="cls-3">
      <g>
        <g>
          <path class="cls-2" d="M133.43,375.49v-20.7h3.39v9.48l8.52-9.48h4.35l-8.91,9.9,9.81,10.8h-4.35l-9.42-10.38v10.38h-3.39Z"/>
          <path class="cls-2" d="M152.33,354.79h3.27v20.7h-3.27v-20.7Z"/>
          <path class="cls-2" d="M163.97,375.79c-3.12,0-5.31-1.95-5.31-4.68,0-3.09,2.7-4.23,6.03-4.59l3.81-.39v-.45c0-2.01-1.14-3.06-3.03-3.06s-2.91.93-3,2.61h-3.27c.12-2.91,2.46-5.04,6.33-5.04s6.24,2.04,6.24,6.09v9.21h-3.15v-2.94h-.09c-.63,2.07-2.31,3.24-4.56,3.24ZM164.81,373.36c2.34,0,3.69-1.59,3.69-4.44v-.51l-3.27.36c-1.98.21-3.12.93-3.12,2.37s1.26,2.22,2.7,2.22Z"/>
          <path class="cls-2" d="M181.25,375.79c-4.11,0-6.33-2.67-6.54-5.43h3.24c.18,1.92,1.71,3,3.33,3,1.47,0,2.85-.66,2.85-1.95,0-.84-.69-1.53-2.43-1.92l-2.04-.45c-2.94-.63-4.68-2.04-4.68-4.41,0-2.73,2.64-4.44,5.85-4.44,3.54,0,6.06,2.01,6.27,4.74h-3.24c-.21-1.74-1.56-2.31-3.03-2.31s-2.55.63-2.55,1.74c0,.99.84,1.32,2.76,1.77l2.04.45c3.24.72,4.32,2.34,4.32,4.59,0,2.91-2.7,4.62-6.15,4.62Z"/>
          <path class="cls-2" d="M196.16,375.79c-4.11,0-6.33-2.67-6.54-5.43h3.24c.18,1.92,1.71,3,3.33,3,1.47,0,2.85-.66,2.85-1.95,0-.84-.69-1.53-2.43-1.92l-2.04-.45c-2.94-.63-4.68-2.04-4.68-4.41,0-2.73,2.64-4.44,5.85-4.44,3.54,0,6.06,2.01,6.27,4.74h-3.24c-.21-1.74-1.56-2.31-3.03-2.31s-2.55.63-2.55,1.74c0,.99.84,1.32,2.76,1.77l2.04.45c3.24.72,4.32,2.34,4.32,4.59,0,2.91-2.7,4.62-6.15,4.62Z"/>
          <path class="cls-2" d="M211.7,375.79c-4.47,0-7.08-3.66-7.08-7.8s2.55-7.8,7.02-7.8,7.41,3.63,6.96,8.85h-10.71c.15,2.73,1.74,4.32,4.02,4.32,1.95,0,2.79-1.32,3.15-2.52h3.27c-.63,2.97-2.97,4.95-6.63,4.95ZM207.92,366.61h7.41c-.21-2.43-1.5-3.99-3.69-3.99s-3.51,1.56-3.72,3.99Z"/>
          <path class="cls-2" d="M221.78,375.49v-15h3.18v2.94h.06c.63-2.1,2.19-3.24,4.38-3.24,3.3,0,4.92,2.25,4.92,5.55v9.75h-3.27v-8.79c0-2.79-.99-4.05-3-4.05s-3,1.38-3,3.84v9h-3.27Z"/>
          <path class="cls-2" d="M246.26,375.79c-2.28,0-4.02-1.38-4.74-3.45h-.09v3.15h-3.21v-20.7h3.21v8.82h.09c.72-2.07,2.46-3.42,4.74-3.42,3.99,0,6.3,3.6,6.3,7.8s-2.22,7.8-6.3,7.8ZM245.21,373.36c2.49,0,3.9-2.19,3.9-5.37s-1.41-5.37-3.9-5.37-3.9,2.16-3.9,5.37,1.38,5.37,3.9,5.37Z"/>
          <path class="cls-2" d="M262.04,375.79c-4.47,0-7.08-3.66-7.08-7.8s2.55-7.8,7.02-7.8,7.41,3.63,6.96,8.85h-10.71c.15,2.73,1.74,4.32,4.02,4.32,1.95,0,2.79-1.32,3.15-2.52h3.27c-.63,2.97-2.97,4.95-6.63,4.95ZM258.25,366.61h7.41c-.21-2.43-1.5-3.99-3.69-3.99s-3.51,1.56-3.72,3.99Z"/>
          <path class="cls-2" d="M277.73,375.79c-4.11,0-6.33-2.67-6.54-5.43h3.24c.18,1.92,1.71,3,3.33,3,1.47,0,2.85-.66,2.85-1.95,0-.84-.69-1.53-2.43-1.92l-2.04-.45c-2.94-.63-4.68-2.04-4.68-4.41,0-2.73,2.64-4.44,5.85-4.44,3.54,0,6.06,2.01,6.27,4.74h-3.24c-.21-1.74-1.56-2.31-3.03-2.31s-2.55.63-2.55,1.74c0,.99.84,1.32,2.76,1.77l2.04.45c3.24.72,4.32,2.34,4.32,4.59,0,2.91-2.7,4.62-6.15,4.62Z"/>
          <path class="cls-2" d="M291.41,375.49c-2.34,0-3.54-1.11-3.54-3.3v-9.27h-2.49v-2.43h2.49v-3.42h3.27v3.42h3.57v2.43h-3.57v8.52c0,1.26.45,1.62,1.59,1.62h1.86v2.43h-3.18Z"/>
          <path class="cls-2" d="M303.46,375.79c-4.47,0-7.08-3.66-7.08-7.8s2.55-7.8,7.02-7.8,7.41,3.63,6.96,8.85h-10.71c.15,2.73,1.74,4.32,4.02,4.32,1.95,0,2.79-1.32,3.15-2.52h3.27c-.63,2.97-2.97,4.95-6.63,4.95ZM299.68,366.61h7.41c-.21-2.43-1.5-3.99-3.69-3.99s-3.51,1.56-3.72,3.99Z"/>
          <path class="cls-2" d="M313.54,375.49v-15h3.18v2.94h.06c.63-2.1,2.19-3.24,4.5-3.24v3.27h-.51c-2.79,0-3.96.81-3.96,3.54v8.49h-3.27Z"/>
          <path class="cls-2" d="M329.98,358.12v-3.33h3.48v3.33h-3.48ZM330.07,375.49v-15h3.27v15h-3.27Z"/>
          <path class="cls-2" d="M340.63,375.49h-3.27v-15h3.18v2.94h.06c.63-2.1,2.04-3.24,4.2-3.24,2.46,0,4.02,1.26,4.62,3.24h.06c.66-2.1,2.19-3.24,4.41-3.24,3.33,0,4.95,2.25,4.95,5.55v9.75h-3.27v-8.79c0-2.79-.93-4.05-2.91-4.05s-2.91,1.38-2.91,3.84v9h-3.27v-8.79c0-2.79-.96-4.05-2.91-4.05s-2.94,1.38-2.94,3.84v9Z"/>
          <path class="cls-2" d="M370.24,375.49v-20.7h6.69c5.19,0,7.62,1.86,7.62,5.58,0,2.46-1.89,3.9-4.02,4.32v.09c3.36.27,5.01,2.04,5.01,4.77,0,3.75-2.61,5.94-7.71,5.94h-7.59ZM373.63,357.58v5.79h3.36c2.79,0,4.02-1.05,4.02-2.91s-1.02-2.88-3.81-2.88h-3.57ZM373.63,366.16v6.54h4.26c3,0,4.11-1.23,4.11-3.27s-1.38-3.27-4.38-3.27h-3.99Z"/>
          <path class="cls-2" d="M395.05,375.79c-4.47,0-7.08-3.66-7.08-7.8s2.55-7.8,7.02-7.8,7.41,3.63,6.96,8.85h-10.71c.15,2.73,1.74,4.32,4.02,4.32,1.95,0,2.79-1.32,3.15-2.52h3.27c-.63,2.97-2.97,4.95-6.63,4.95ZM391.27,366.61h7.41c-.21-2.43-1.5-3.99-3.69-3.99s-3.51,1.56-3.72,3.99Z"/>
          <path class="cls-2" d="M405.13,375.49v-15h3.18v2.94h.06c.63-2.1,2.19-3.24,4.5-3.24v3.27h-.51c-2.79,0-3.96.81-3.96,3.54v8.49h-3.27Z"/>
          <path class="cls-2" d="M421.24,375.79c-4.47,0-7.08-3.66-7.08-7.8s2.55-7.8,7.02-7.8,7.41,3.63,6.96,8.85h-10.71c.15,2.73,1.74,4.32,4.02,4.32,1.95,0,2.79-1.32,3.15-2.52h3.27c-.63,2.97-2.97,4.95-6.63,4.95ZM417.46,366.61h7.41c-.21-2.43-1.5-3.99-3.69-3.99s-3.51,1.56-3.72,3.99Z"/>
          <path class="cls-2" d="M431.23,358.12v-3.33h3.48v3.33h-3.48ZM431.32,375.49v-15h3.27v15h-3.27Z"/>
          <path class="cls-2" d="M445,375.79c-4.41,0-7.23-3.66-7.23-7.8s2.73-7.8,7.11-7.8c3.51,0,6.15,1.92,6.72,5.46h-3.3c-.36-1.92-1.59-3.03-3.36-3.03-2.43,0-3.72,2.25-3.72,5.37s1.38,5.37,3.87,5.37c1.74,0,3-1.17,3.33-3.09h3.33c-.57,3.54-3.24,5.52-6.75,5.52Z"/>
          <path class="cls-2" d="M454.69,375.49v-20.7h3.18v8.64h.06c.63-2.1,2.19-3.24,4.38-3.24,3.3,0,4.92,2.25,4.92,5.55v9.75h-3.27v-8.79c0-2.79-.99-4.05-3-4.05s-3,1.38-3,3.84v9h-3.27Z"/>
        </g>
        <g>
          <path class="cls-2" d="M213.65,411.49v-20.7h7.08c5.19,0,8.43,2.34,8.43,6.33s-3.24,6.36-8.43,6.36h-3.69v8.01h-3.39ZM217.04,393.58v7.11h4.02c2.91,0,4.56-1.29,4.56-3.57s-1.65-3.54-4.56-3.54h-4.02Z"/>
          <path class="cls-2" d="M231.89,390.79h3.27v20.7h-3.27v-20.7Z"/>
          <path class="cls-2" d="M243.53,411.79c-3.12,0-5.31-1.95-5.31-4.68,0-3.09,2.7-4.23,6.03-4.59l3.81-.39v-.45c0-2.01-1.14-3.06-3.03-3.06s-2.91.93-3,2.61h-3.27c.12-2.91,2.46-5.04,6.33-5.04s6.24,2.04,6.24,6.09v9.21h-3.15v-2.94h-.09c-.63,2.07-2.31,3.24-4.56,3.24ZM244.37,409.36c2.34,0,3.69-1.59,3.69-4.44v-.51l-3.27.36c-1.98.21-3.12.93-3.12,2.37s1.26,2.22,2.7,2.22Z"/>
          <path class="cls-2" d="M259.61,411.49c-2.34,0-3.54-1.11-3.54-3.3v-9.27h-2.49v-2.43h2.49v-3.42h3.27v3.42h3.57v2.43h-3.57v8.52c0,1.26.45,1.62,1.59,1.62h1.86v2.43h-3.18Z"/>
          <path class="cls-2" d="M264.71,411.49v-2.34l7.5-10.23h-7.32v-2.43h11.31v2.34l-7.5,10.23h7.8v2.43h-11.79Z"/>
          <path class="cls-2" d="M283.94,411.79c-3.12,0-5.31-1.95-5.31-4.68,0-3.09,2.7-4.23,6.03-4.59l3.81-.39v-.45c0-2.01-1.14-3.06-3.03-3.06s-2.91.93-3,2.61h-3.27c.12-2.91,2.46-5.04,6.33-5.04s6.24,2.04,6.24,6.09v9.21h-3.15v-2.94h-.09c-.63,2.07-2.31,3.24-4.56,3.24ZM284.78,409.36c2.34,0,3.69-1.59,3.69-4.44v-.51l-3.27.36c-1.98.21-3.12.93-3.12,2.37s1.26,2.22,2.7,2.22Z"/>
          <path class="cls-2" d="M295.61,411.49v-15h3.18v2.94h.06c.63-2.1,2.19-3.24,4.38-3.24,3.3,0,4.92,2.25,4.92,5.55v9.75h-3.27v-8.79c0-2.79-.99-4.05-3-4.05s-3,1.38-3,3.84v9h-3.27Z"/>
          <path class="cls-2" d="M318.89,416.89c-3.66,0-6.36-1.62-6.69-4.89h3.24c.3,1.86,1.86,2.46,3.45,2.46,2.01,0,3.51-1.08,3.51-3.6v-3.12h-.09c-.72,2.07-2.46,3.45-4.74,3.45-3.99,0-6.3-3.3-6.3-7.5s2.31-7.5,6.3-7.5c2.28,0,4.02,1.35,4.74,3.42h.09v-3.12h3.21v14.28c0,3.99-2.79,6.12-6.72,6.12ZM318.62,408.76c2.46,0,3.9-1.89,3.9-5.07s-1.44-5.07-3.9-5.07-3.9,1.86-3.9,5.07,1.44,5.07,3.9,5.07Z"/>
          <path class="cls-2" d="M335.87,411.79c-4.47,0-7.08-3.66-7.08-7.8s2.55-7.8,7.02-7.8,7.41,3.63,6.96,8.85h-10.71c.15,2.73,1.74,4.32,4.02,4.32,1.95,0,2.79-1.32,3.15-2.52h3.27c-.63,2.97-2.97,4.95-6.63,4.95ZM332.09,402.61h7.41c-.21-2.43-1.5-3.99-3.69-3.99s-3.51,1.56-3.72,3.99Z"/>
          <path class="cls-2" d="M353.99,411.79c-2.28,0-4.02-1.38-4.74-3.45h-.09v3.15h-3.21v-20.7h3.21v8.82h.09c.72-2.07,2.46-3.42,4.74-3.42,3.99,0,6.3,3.6,6.3,7.8s-2.22,7.8-6.3,7.8ZM352.94,409.36c2.49,0,3.9-2.19,3.9-5.37s-1.41-5.37-3.9-5.37-3.9,2.16-3.9,5.37,1.38,5.37,3.9,5.37Z"/>
          <path class="cls-2" d="M370.04,411.79c-4.56,0-7.35-3.75-7.35-7.8s2.79-7.8,7.35-7.8,7.35,3.75,7.35,7.8-2.79,7.8-7.35,7.8ZM370.04,409.36c2.52,0,3.93-2.19,3.93-5.37s-1.41-5.37-3.93-5.37-3.9,2.16-3.9,5.37,1.41,5.37,3.9,5.37Z"/>
          <path class="cls-2" d="M384.85,411.49c-2.34,0-3.54-1.11-3.54-3.3v-9.27h-2.49v-2.43h2.49v-3.42h3.27v3.42h3.57v2.43h-3.57v8.52c0,1.26.45,1.62,1.59,1.62h1.86v2.43h-3.18Z"/>
        </g>
      </g>
    </g>
  </g>
</svg>