<?xml version="1.0" encoding="UTF-8"?>
<svg id="Layer_2" data-name="Layer 2" xmlns="http://www.w3.org/2000/svg" xmlns:xlink="http://www.w3.org/1999/xlink" viewBox="0 0 600 500">
  <defs>
    <style>
      .cls-1 {
        fill: none;
      }

      .cls-2 {
        fill: #fff;
      }

      .cls-3 {
        clip-path: url(#clippath);
      }
    </style>
    <clipPath id="clippath">
      <rect class="cls-1" width="600" height="500"/>
    </clipPath>
  </defs>
  <g id="Layer_1-2" data-name="Layer 1">
    <g class="cls-3">
      <g>
        <path class="cls-2" d="M70.56,184.4l-6.84-20.7h3.48l6.57,20.04,6.6-20.04h3.45l-6.81,20.7h-6.45Z"/>
        <path class="cls-2" d="M91.14,184.7c-4.56,0-7.35-3.75-7.35-7.8s2.79-7.8,7.35-7.8,7.35,3.75,7.35,7.8-2.79,7.8-7.35,7.8ZM91.14,182.27c2.52,0,3.93-2.19,3.93-5.37s-1.41-5.37-3.93-5.37-3.9,2.16-3.9,5.37,1.41,5.37,3.9,5.37Z"/>
        <path class="cls-2" d="M101.67,184.4v-15h3.18v2.94h.06c.63-2.1,2.19-3.24,4.38-3.24,3.3,0,4.92,2.25,4.92,5.55v9.75h-3.27v-8.79c0-2.79-.99-4.05-3-4.05s-3,1.38-3,3.84v9h-3.27Z"/>
        <path class="cls-2" d="M132.6,184.7c-4.83,0-8.1-4.23-8.1-10.65s3.27-10.65,8.1-10.65,8.13,4.2,8.13,10.65-3.27,10.65-8.13,10.65ZM132.6,182.27c3.12,0,4.71-3.24,4.71-8.22s-1.59-8.22-4.71-8.22-4.65,3.21-4.65,8.22,1.53,8.22,4.65,8.22Z"/>
        <path class="cls-2" d="M155.52,184.7c-3.12,0-5.31-1.95-5.31-4.68,0-3.09,2.7-4.23,6.03-4.59l3.81-.39v-.45c0-2.01-1.14-3.06-3.03-3.06s-2.91.93-3,2.61h-3.27c.12-2.91,2.46-5.04,6.33-5.04s6.24,2.04,6.24,6.09v9.21h-3.15v-2.94h-.09c-.63,2.07-2.31,3.24-4.56,3.24ZM156.36,182.27c2.34,0,3.69-1.59,3.69-4.44v-.51l-3.27.36c-1.98.21-3.12.93-3.12,2.37s1.26,2.22,2.7,2.22Z"/>
        <path class="cls-2" d="M172.02,184.7c-3.33,0-4.95-2.25-4.95-5.55v-9.75h3.27v8.76c0,2.79.96,4.05,2.91,4.05s2.94-1.38,2.94-3.84v-8.97h3.27v15h-3.18v-2.94h-.06c-.63,2.07-2.04,3.24-4.2,3.24Z"/>
        <path class="cls-2" d="M184.68,184.4v-12.57h-2.49v-2.43h2.49v-2.43c0-2.19,1.2-3.27,3.54-3.27h3.18v2.43h-1.86c-1.14,0-1.59.36-1.59,1.62v1.65h3.57v2.43h-3.57v12.57h-3.27Z"/>
        <path class="cls-2" d="M200.82,184.4v-20.7h3.39v20.7h-3.39Z"/>
        <path class="cls-2" d="M213.33,184.4c-2.34,0-3.54-1.11-3.54-3.3v-9.27h-2.49v-2.43h2.49v-3.42h3.27v3.42h3.57v2.43h-3.57v8.52c0,1.26.45,1.62,1.59,1.62h1.86v2.43h-3.18Z"/>
        <path class="cls-2" d="M223.68,184.7c-3.12,0-5.31-1.95-5.31-4.68,0-3.09,2.7-4.23,6.03-4.59l3.81-.39v-.45c0-2.01-1.14-3.06-3.03-3.06s-2.91.93-3,2.61h-3.27c.12-2.91,2.46-5.04,6.33-5.04s6.24,2.04,6.24,6.09v9.21h-3.15v-2.94h-.09c-.63,2.07-2.31,3.24-4.56,3.24ZM224.52,182.27c2.34,0,3.69-1.59,3.69-4.44v-.51l-3.27.36c-1.98.21-3.12.93-3.12,2.37s1.26,2.22,2.7,2.22Z"/>
        <path class="cls-2" d="M235.35,163.7h3.27v20.7h-3.27v-20.7Z"/>
        <path class="cls-2" d="M242.55,167.03v-3.33h3.48v3.33h-3.48ZM242.64,184.4v-15h3.27v15h-3.27Z"/>
        <path class="cls-2" d="M254.28,184.7c-3.12,0-5.31-1.95-5.31-4.68,0-3.09,2.7-4.23,6.03-4.59l3.81-.39v-.45c0-2.01-1.14-3.06-3.03-3.06s-2.91.93-3,2.61h-3.27c.12-2.91,2.46-5.04,6.33-5.04s6.24,2.04,6.24,6.09v9.21h-3.15v-2.94h-.09c-.63,2.07-2.31,3.24-4.56,3.24ZM255.12,182.27c2.34,0,3.69-1.59,3.69-4.44v-.51l-3.27.36c-1.98.21-3.12.93-3.12,2.37s1.26,2.22,2.7,2.22Z"/>
        <path class="cls-2" d="M265.95,184.4v-15h3.18v2.94h.06c.63-2.1,2.19-3.24,4.38-3.24,3.3,0,4.92,2.25,4.92,5.55v9.75h-3.27v-8.79c0-2.79-.99-4.05-3-4.05s-3,1.38-3,3.84v9h-3.27Z"/>
        <path class="cls-2" d="M282.3,167.03v-3.33h3.48v3.33h-3.48ZM282.39,184.4v-15h3.27v15h-3.27Z"/>
        <path class="cls-2" d="M294.27,184.4c-2.34,0-3.54-1.11-3.54-3.3v-9.27h-2.49v-2.43h2.49v-3.42h3.27v3.42h3.57v2.43h-3.57v8.52c0,1.26.45,1.62,1.59,1.62h1.86v2.43h-3.18Z"/>
        <path class="cls-2" d="M304.62,184.7c-3.12,0-5.31-1.95-5.31-4.68,0-3.09,2.7-4.23,6.03-4.59l3.81-.39v-.45c0-2.01-1.14-3.06-3.03-3.06s-2.91.93-3,2.61h-3.27c.12-2.91,2.46-5.04,6.33-5.04s6.24,2.04,6.24,6.09v9.21h-3.15v-2.94h-.09c-.63,2.07-2.31,3.24-4.56,3.24ZM305.34,167.75l-4.56-4.05h4.41l3.12,4.05h-2.97ZM305.46,182.27c2.34,0,3.69-1.59,3.69-4.44v-.51l-3.27.36c-1.98.21-3.12.93-3.12,2.37s1.26,2.22,2.7,2.22Z"/>
        <path class="cls-2" d="M323.19,167.03v-3.33h3.48v3.33h-3.48ZM323.28,184.4v-15h3.27v15h-3.27Z"/>
        <path class="cls-2" d="M330.57,184.4v-15h3.18v2.94h.06c.63-2.1,2.19-3.24,4.38-3.24,3.3,0,4.92,2.25,4.92,5.55v9.75h-3.27v-8.79c0-2.79-.99-4.05-3-4.05s-3,1.38-3,3.84v9h-3.27Z"/>
        <path class="cls-2" d="M360.84,172.46c-1.74,0-3.03.9-3.69,2.49h-3.27v-11.25h13.47v2.43h-10.2v6.6h.09c.78-1.68,2.34-2.73,4.56-2.73,3.54,0,6.75,2.64,6.75,7.32s-3.24,7.38-7.59,7.38c-4.02,0-7.05-2.49-7.38-6.72h3.27c.21,2.22,1.5,4.29,4.23,4.29,2.4,0,4.05-1.98,4.05-4.95,0-3.12-1.89-4.86-4.29-4.86Z"/>
        <path class="cls-2" d="M370.68,187.85l2.19-3.45h-1.29v-3.36h3.48v3.36l-2.19,3.45h-2.19Z"/>
        <path class="cls-2" d="M385.8,184.7c-5.49,0-8.07-4.5-8.07-10.35,0-6.6,3-10.95,8.13-10.95,3.87,0,6.66,2.22,7.11,6h-3.27c-.27-2.25-1.77-3.57-3.9-3.57-2.85,0-4.71,2.28-4.71,7.74h.06c.84-1.8,2.67-3.06,5.07-3.06,3.93,0,7.29,2.46,7.29,7.05s-3.81,7.14-7.71,7.14ZM385.65,182.27c2.55,0,4.41-1.95,4.41-4.71s-1.74-4.59-4.38-4.59-4.5,1.83-4.5,4.53,2.01,4.77,4.47,4.77Z"/>
        <path class="cls-2" d="M411.81,184.7c-5.49,0-8.46-3.84-8.79-7.59h3.51c.21,2.7,2.4,4.8,5.31,4.8,2.64,0,4.59-1.14,4.59-3.06,0-1.68-1.26-2.58-3.93-3.21l-3-.69c-4.05-.96-6.06-2.85-6.06-5.73,0-3.48,3.42-5.82,7.59-5.82,5.28,0,7.98,2.88,8.34,6.45h-3.51c-.27-2.46-2.34-3.66-4.77-3.66s-4.08,1.02-4.08,2.79c0,1.41,1.05,2.07,4.11,2.79l3,.72c3.9.9,5.85,2.94,5.85,6.21,0,3.45-3.36,6-8.16,6Z"/>
        <path class="cls-2" d="M429.36,184.7c-4.47,0-7.08-3.66-7.08-7.8s2.55-7.8,7.02-7.8,7.41,3.63,6.96,8.85h-10.71c.15,2.73,1.74,4.32,4.02,4.32,1.95,0,2.79-1.32,3.15-2.52h3.27c-.63,2.97-2.97,4.95-6.63,4.95ZM425.58,175.52h7.41c-.21-2.43-1.5-3.99-3.69-3.99s-3.51,1.56-3.72,3.99Z"/>
        <path class="cls-2" d="M442.71,176.57v7.83h-3.27v-20.7h3.27v11.88l6.18-6.18h4.05l-6.57,6.6,6.87,8.4h-4.11l-6.42-7.83Z"/>
        <path class="cls-2" d="M460.23,184.7c-3.33,0-4.95-2.25-4.95-5.55v-9.75h3.27v8.76c0,2.79.96,4.05,2.91,4.05s2.94-1.38,2.94-3.84v-8.97h3.27v15h-3.18v-2.94h-.06c-.63,2.07-2.04,3.24-4.2,3.24Z"/>
        <path class="cls-2" d="M471.69,184.4v-15h3.18v2.94h.06c.63-2.1,2.19-3.24,4.38-3.24,3.3,0,4.92,2.25,4.92,5.55v9.75h-3.27v-8.79c0-2.79-.99-4.05-3-4.05s-3,1.38-3,3.84v9h-3.27Z"/>
        <path class="cls-2" d="M493.62,184.7c-4.08,0-6.3-3.6-6.3-7.8s2.31-7.8,6.3-7.8c2.28,0,4.02,1.35,4.74,3.42h.09v-8.82h3.21v20.7h-3.21v-3.15h-.09c-.72,2.07-2.46,3.45-4.74,3.45ZM494.67,182.27c2.52,0,3.9-2.19,3.9-5.37s-1.38-5.37-3.9-5.37-3.9,2.16-3.9,5.37,1.41,5.37,3.9,5.37Z"/>
        <path class="cls-2" d="M511.92,184.7c-4.47,0-7.08-3.66-7.08-7.8s2.55-7.8,7.02-7.8,7.41,3.63,6.96,8.85h-10.71c.15,2.73,1.74,4.32,4.02,4.32,1.95,0,2.79-1.32,3.15-2.52h3.27c-.63,2.97-2.97,4.95-6.63,4.95ZM508.14,175.52h7.41c-.21-2.43-1.5-3.99-3.69-3.99s-3.51,1.56-3.72,3.99Z"/>
        <path class="cls-2" d="M522,184.4v-15h3.18v2.94h.06c.63-2.1,2.19-3.24,4.38-3.24,3.3,0,4.92,2.25,4.92,5.55v9.75h-3.27v-8.79c0-2.79-.99-4.05-3-4.05s-3,1.38-3,3.84v9h-3.27Z"/>
      </g>
    </g>
  </g>
</svg>