<?xml version="1.0" encoding="UTF-8"?>
<svg id="Layer_2" data-name="Layer 2" xmlns="http://www.w3.org/2000/svg" xmlns:xlink="http://www.w3.org/1999/xlink" viewBox="0 0 600 500">
  <defs>
    <style>
      .cls-1 {
        fill: none;
      }

      .cls-2 {
        fill: #fff;
      }

      .cls-3 {
        clip-path: url(#clippath);
      }
    </style>
    <clipPath id="clippath">
      <rect class="cls-1" width="600" height="500"/>
    </clipPath>
  </defs>
  <g id="Layer_1-2" data-name="Layer 1">
    <g class="cls-3">
      <g>
        <g>
          <path class="cls-2" d="M84.3,375.49l-6.84-20.7h3.48l6.57,20.04,6.6-20.04h3.45l-6.81,20.7h-6.45Z"/>
          <path class="cls-2" d="M104.64,375.79c-4.47,0-7.08-3.66-7.08-7.8s2.55-7.8,7.02-7.8,7.41,3.63,6.96,8.85h-10.71c.15,2.73,1.74,4.32,4.02,4.32,1.95,0,2.79-1.32,3.15-2.52h3.27c-.63,2.97-2.97,4.95-6.63,4.95ZM100.86,366.61h7.41c-.21-2.43-1.5-3.99-3.69-3.99s-3.51,1.56-3.72,3.99Z"/>
          <path class="cls-2" d="M114.72,375.49v-15h3.18v2.94h.06c.63-2.1,2.19-3.24,4.5-3.24v3.27h-.51c-2.79,0-3.96.81-3.96,3.54v8.49h-3.27Z"/>
          <path class="cls-2" d="M127.02,375.49l-3.18-15h3.3l2.97,14.04,2.7-14.04h5.76l2.7,14.04,3-14.04h3.27l-3.18,15h-5.97l-2.7-14.04-2.7,14.04h-5.97Z"/>
          <path class="cls-2" d="M156.45,375.79c-4.47,0-7.08-3.66-7.08-7.8s2.55-7.8,7.02-7.8,7.41,3.63,6.96,8.85h-10.71c.15,2.73,1.74,4.32,4.02,4.32,1.95,0,2.79-1.32,3.15-2.52h3.27c-.63,2.97-2.97,4.95-6.63,4.95ZM152.67,366.61h7.41c-.21-2.43-1.5-3.99-3.69-3.99s-3.51,1.56-3.72,3.99Z"/>
          <path class="cls-2" d="M166.53,375.49v-15h3.18v2.94h.06c.63-2.1,2.19-3.24,4.38-3.24,3.3,0,4.92,2.25,4.92,5.55v9.75h-3.27v-8.79c0-2.79-.99-4.05-3-4.05s-3,1.38-3,3.84v9h-3.27Z"/>
          <path class="cls-2" d="M188.46,375.79c-4.08,0-6.3-3.6-6.3-7.8s2.31-7.8,6.3-7.8c2.28,0,4.02,1.35,4.74,3.42h.09v-8.82h3.21v20.7h-3.21v-3.15h-.09c-.72,2.07-2.46,3.45-4.74,3.45ZM189.51,373.36c2.52,0,3.9-2.19,3.9-5.37s-1.38-5.37-3.9-5.37-3.9,2.16-3.9,5.37,1.41,5.37,3.9,5.37Z"/>
          <path class="cls-2" d="M205.35,375.79c-3.33,0-4.95-2.25-4.95-5.55v-9.75h3.27v8.76c0,2.79.96,4.05,2.91,4.05s2.94-1.38,2.94-3.84v-8.97h3.27v15h-3.18v-2.94h-.06c-.63,2.07-2.04,3.24-4.2,3.24Z"/>
          <path class="cls-2" d="M216.81,375.49v-15h3.18v2.94h.06c.63-2.1,2.19-3.24,4.38-3.24,3.3,0,4.92,2.25,4.92,5.55v9.75h-3.27v-8.79c0-2.79-.99-4.05-3-4.05s-3,1.38-3,3.84v9h-3.27Z"/>
          <path class="cls-2" d="M240.09,380.89c-3.66,0-6.36-1.62-6.69-4.89h3.24c.3,1.86,1.86,2.46,3.45,2.46,2.01,0,3.51-1.08,3.51-3.6v-3.12h-.09c-.72,2.07-2.46,3.45-4.74,3.45-3.99,0-6.3-3.3-6.3-7.5s2.31-7.5,6.3-7.5c2.28,0,4.02,1.35,4.74,3.42h.09v-3.12h3.21v14.28c0,3.99-2.79,6.12-6.72,6.12ZM239.82,372.76c2.46,0,3.9-1.89,3.9-5.07s-1.44-5.07-3.9-5.07-3.9,1.86-3.9,5.07,1.44,5.07,3.9,5.07Z"/>
          <path class="cls-2" d="M264.06,375.79c-4.47,0-7.08-3.66-7.08-7.8s2.55-7.8,7.02-7.8,7.41,3.63,6.96,8.85h-10.71c.15,2.73,1.74,4.32,4.02,4.32,1.95,0,2.79-1.32,3.15-2.52h3.27c-.63,2.97-2.97,4.95-6.63,4.95ZM260.28,366.61h7.41c-.21-2.43-1.5-3.99-3.69-3.99s-3.51,1.56-3.72,3.99Z"/>
          <path class="cls-2" d="M279.63,375.79c-4.08,0-6.3-3.6-6.3-7.8s2.31-7.8,6.3-7.8c2.28,0,4.02,1.35,4.74,3.42h.09v-8.82h3.21v20.7h-3.21v-3.15h-.09c-.72,2.07-2.46,3.45-4.74,3.45ZM280.68,373.36c2.52,0,3.9-2.19,3.9-5.37s-1.38-5.37-3.9-5.37-3.9,2.16-3.9,5.37,1.41,5.37,3.9,5.37Z"/>
          <path class="cls-2" d="M297.93,375.79c-4.47,0-7.08-3.66-7.08-7.8s2.55-7.8,7.02-7.8,7.41,3.63,6.96,8.85h-10.71c.15,2.73,1.74,4.32,4.02,4.32,1.95,0,2.79-1.32,3.15-2.52h3.27c-.63,2.97-2.97,4.95-6.63,4.95ZM294.15,366.61h7.41c-.21-2.43-1.5-3.99-3.69-3.99s-3.51,1.56-3.72,3.99Z"/>
          <path class="cls-2" d="M308.01,354.79h3.27v20.7h-3.27v-20.7Z"/>
          <path class="cls-2" d="M320.91,375.79c-4.11,0-6.33-2.67-6.54-5.43h3.24c.18,1.92,1.71,3,3.33,3,1.47,0,2.85-.66,2.85-1.95,0-.84-.69-1.53-2.43-1.92l-2.04-.45c-2.94-.63-4.68-2.04-4.68-4.41,0-2.73,2.64-4.44,5.85-4.44,3.54,0,6.06,2.01,6.27,4.74h-3.24c-.21-1.74-1.56-2.31-3.03-2.31s-2.55.63-2.55,1.74c0,.99.84,1.32,2.76,1.77l2.04.45c3.24.72,4.32,2.34,4.32,4.59,0,2.91-2.7,4.62-6.15,4.62Z"/>
          <path class="cls-2" d="M334.59,375.49c-2.34,0-3.54-1.11-3.54-3.3v-9.27h-2.49v-2.43h2.49v-3.42h3.27v3.42h3.57v2.43h-3.57v8.52c0,1.26.45,1.62,1.59,1.62h1.86v2.43h-3.18Z"/>
          <path class="cls-2" d="M346.65,375.79c-4.47,0-7.08-3.66-7.08-7.8s2.55-7.8,7.02-7.8,7.41,3.63,6.96,8.85h-10.71c.15,2.73,1.74,4.32,4.02,4.32,1.95,0,2.79-1.32,3.15-2.52h3.27c-.63,2.97-2.97,4.95-6.63,4.95ZM342.87,366.61h7.41c-.21-2.43-1.5-3.99-3.69-3.99s-3.51,1.56-3.72,3.99Z"/>
          <path class="cls-2" d="M356.73,375.49v-15h3.18v2.94h.06c.63-2.1,2.19-3.24,4.5-3.24v3.27h-.51c-2.79,0-3.96.81-3.96,3.54v8.49h-3.27Z"/>
          <path class="cls-2" d="M373.77,375.49v-20.7h6.63l4.89,20.04,4.89-20.04h6.63v20.7h-3.39v-20.04l-4.86,20.04h-6.54l-4.86-20.04v20.04h-3.39Z"/>
          <path class="cls-2" d="M405.69,375.79c-3.12,0-5.31-1.95-5.31-4.68,0-3.09,2.7-4.23,6.03-4.59l3.81-.39v-.45c0-2.01-1.14-3.06-3.03-3.06s-2.91.93-3,2.61h-3.27c.12-2.91,2.46-5.04,6.33-5.04s6.24,2.04,6.24,6.09v9.21h-3.15v-2.94h-.09c-.63,2.07-2.31,3.24-4.56,3.24ZM406.53,373.36c2.34,0,3.69-1.59,3.69-4.44v-.51l-3.27.36c-1.98.21-3.12.93-3.12,2.37s1.26,2.22,2.7,2.22Z"/>
          <path class="cls-2" d="M421.8,375.49c-2.34,0-3.54-1.11-3.54-3.3v-9.27h-2.49v-2.43h2.49v-3.42h3.27v3.42h3.57v2.43h-3.57v8.52c0,1.26.45,1.62,1.59,1.62h1.86v2.43h-3.18Z"/>
          <path class="cls-2" d="M433.86,375.79c-4.47,0-7.08-3.66-7.08-7.8s2.55-7.8,7.02-7.8,7.41,3.63,6.96,8.85h-10.71c.15,2.73,1.74,4.32,4.02,4.32,1.95,0,2.79-1.32,3.15-2.52h3.27c-.63,2.97-2.97,4.95-6.63,4.95ZM430.08,366.61h7.41c-.21-2.43-1.5-3.99-3.69-3.99s-3.51,1.56-3.72,3.99Z"/>
          <path class="cls-2" d="M443.94,375.49v-15h3.18v2.94h.06c.63-2.1,2.19-3.24,4.5-3.24v3.27h-.51c-2.79,0-3.96.81-3.96,3.54v8.49h-3.27Z"/>
          <path class="cls-2" d="M454.11,358.12v-3.33h3.48v3.33h-3.48ZM454.2,375.49v-15h3.27v15h-3.27Z"/>
          <path class="cls-2" d="M465.84,375.79c-3.12,0-5.31-1.95-5.31-4.68,0-3.09,2.7-4.23,6.03-4.59l3.81-.39v-.45c0-2.01-1.14-3.06-3.03-3.06s-2.91.93-3,2.61h-3.27c.12-2.91,2.46-5.04,6.33-5.04s6.24,2.04,6.24,6.09v9.21h-3.15v-2.94h-.09c-.63,2.07-2.31,3.24-4.56,3.24ZM466.68,373.36c2.34,0,3.69-1.59,3.69-4.44v-.51l-3.27.36c-1.98.21-3.12.93-3.12,2.37s1.26,2.22,2.7,2.22Z"/>
          <path class="cls-2" d="M477.51,354.79h3.27v20.7h-3.27v-20.7Z"/>
          <path class="cls-2" d="M484.71,358.12v-3.33h3.48v3.33h-3.48ZM484.8,375.49v-15h3.27v15h-3.27Z"/>
          <path class="cls-2" d="M498.33,375.79c-4.47,0-7.08-3.66-7.08-7.8s2.55-7.8,7.02-7.8,7.41,3.63,6.96,8.85h-10.71c.15,2.73,1.74,4.32,4.02,4.32,1.95,0,2.79-1.32,3.15-2.52h3.27c-.63,2.97-2.97,4.95-6.63,4.95ZM494.55,366.61h7.41c-.21-2.43-1.5-3.99-3.69-3.99s-3.51,1.56-3.72,3.99Z"/>
          <path class="cls-2" d="M508.41,375.49v-15h3.18v2.94h.06c.63-2.1,2.19-3.24,4.38-3.24,3.3,0,4.92,2.25,4.92,5.55v9.75h-3.27v-8.79c0-2.79-.99-4.05-3-4.05s-3,1.38-3,3.84v9h-3.27Z"/>
        </g>
        <g>
          <path class="cls-2" d="M150.27,411.79c-3.33,0-4.95-2.25-4.95-5.55v-9.75h3.27v8.76c0,2.79.96,4.05,2.91,4.05s2.94-1.38,2.94-3.84v-8.97h3.27v15h-3.18v-2.94h-.06c-.63,2.07-2.04,3.24-4.2,3.24Z"/>
          <path class="cls-2" d="M161.73,411.49v-15h3.18v2.94h.06c.63-2.1,2.19-3.24,4.38-3.24,3.3,0,4.92,2.25,4.92,5.55v9.75h-3.27v-8.79c0-2.79-.99-4.05-3-4.05s-3,1.38-3,3.84v9h-3.27Z"/>
          <path class="cls-2" d="M183.66,411.79c-4.08,0-6.3-3.6-6.3-7.8s2.31-7.8,6.3-7.8c2.28,0,4.02,1.35,4.74,3.42h.09v-8.82h3.21v20.7h-3.21v-3.15h-.09c-.72,2.07-2.46,3.45-4.74,3.45ZM184.71,409.36c2.52,0,3.9-2.19,3.9-5.37s-1.38-5.37-3.9-5.37-3.9,2.16-3.9,5.37,1.41,5.37,3.9,5.37Z"/>
          <path class="cls-2" d="M202.62,394.12v-3.33h3.48v3.33h-3.48ZM202.71,411.49v-15h3.27v15h-3.27Z"/>
          <path class="cls-2" d="M210,411.49v-15h3.18v2.94h.06c.63-2.1,2.19-3.24,4.38-3.24,3.3,0,4.92,2.25,4.92,5.55v9.75h-3.27v-8.79c0-2.79-.99-4.05-3-4.05s-3,1.38-3,3.84v9h-3.27Z"/>
          <path class="cls-2" d="M226.44,411.49v-15h3.18v2.94h.06c.63-2.1,2.19-3.24,4.38-3.24,3.3,0,4.92,2.25,4.92,5.55v9.75h-3.27v-8.79c0-2.79-.99-4.05-3-4.05s-3,1.38-3,3.84v9h-3.27Z"/>
          <path class="cls-2" d="M249.39,411.79c-4.56,0-7.35-3.75-7.35-7.8s2.79-7.8,7.35-7.8,7.35,3.75,7.35,7.8-2.79,7.8-7.35,7.8ZM249.39,409.36c2.52,0,3.93-2.19,3.93-5.37s-1.41-5.37-3.93-5.37-3.9,2.16-3.9,5.37,1.41,5.37,3.9,5.37Z"/>
          <path class="cls-2" d="M262.41,411.49l-4.11-15h3.3l3.81,14.04,3.84-14.04h3.27l-4.08,15h-6.03Z"/>
          <path class="cls-2" d="M279.36,411.79c-3.12,0-5.31-1.95-5.31-4.68,0-3.09,2.7-4.23,6.03-4.59l3.81-.39v-.45c0-2.01-1.14-3.06-3.03-3.06s-2.91.93-3,2.61h-3.27c.12-2.91,2.46-5.04,6.33-5.04s6.24,2.04,6.24,6.09v9.21h-3.15v-2.94h-.09c-.63,2.07-2.31,3.24-4.56,3.24ZM280.2,409.36c2.34,0,3.69-1.59,3.69-4.44v-.51l-3.27.36c-1.98.21-3.12.93-3.12,2.37s1.26,2.22,2.7,2.22Z"/>
          <path class="cls-2" d="M295.44,411.49c-2.34,0-3.54-1.11-3.54-3.3v-9.27h-2.49v-2.43h2.49v-3.42h3.27v3.42h3.57v2.43h-3.57v8.52c0,1.26.45,1.62,1.59,1.62h1.86v2.43h-3.18Z"/>
          <path class="cls-2" d="M301.35,394.12v-3.33h3.48v3.33h-3.48ZM301.44,411.49v-15h3.27v15h-3.27Z"/>
          <path class="cls-2" d="M311.55,411.49l-4.11-15h3.3l3.81,14.04,3.84-14.04h3.27l-4.08,15h-6.03Z"/>
          <path class="cls-2" d="M330.36,411.79c-4.47,0-7.08-3.66-7.08-7.8s2.55-7.8,7.02-7.8,7.41,3.63,6.96,8.85h-10.71c.15,2.73,1.74,4.32,4.02,4.32,1.95,0,2.79-1.32,3.15-2.52h3.27c-.63,2.97-2.97,4.95-6.63,4.95ZM326.58,402.61h7.41c-.21-2.43-1.5-3.99-3.69-3.99s-3.51,1.56-3.72,3.99Z"/>
          <path class="cls-2" d="M340.44,411.49v-15h3.18v2.94h.06c.63-2.1,2.19-3.24,4.5-3.24v3.27h-.51c-2.79,0-3.96.81-3.96,3.54v8.49h-3.27Z"/>
          <path class="cls-2" d="M361.08,411.49v-17.91h-6.72v-2.79h16.8v2.79h-6.69v17.91h-3.39Z"/>
          <path class="cls-2" d="M376.86,411.79c-4.47,0-7.08-3.66-7.08-7.8s2.55-7.8,7.02-7.8,7.41,3.63,6.96,8.85h-10.71c.15,2.73,1.74,4.32,4.02,4.32,1.95,0,2.79-1.32,3.15-2.52h3.27c-.63,2.97-2.97,4.95-6.63,4.95ZM373.08,402.61h7.41c-.21-2.43-1.5-3.99-3.69-3.99s-3.51,1.56-3.72,3.99Z"/>
          <path class="cls-2" d="M393.33,411.79c-4.41,0-7.23-3.66-7.23-7.8s2.73-7.8,7.11-7.8c3.51,0,6.15,1.92,6.72,5.46h-3.3c-.36-1.92-1.59-3.03-3.36-3.03-2.43,0-3.72,2.25-3.72,5.37s1.38,5.37,3.87,5.37c1.74,0,3-1.17,3.33-3.09h3.33c-.57,3.54-3.24,5.52-6.75,5.52Z"/>
          <path class="cls-2" d="M403.02,411.49v-20.7h3.18v8.64h.06c.63-2.1,2.19-3.24,4.38-3.24,3.3,0,4.92,2.25,4.92,5.55v9.75h-3.27v-8.79c0-2.79-.99-4.05-3-4.05s-3,1.38-3,3.84v9h-3.27Z"/>
          <path class="cls-2" d="M419.46,411.49v-15h3.18v2.94h.06c.63-2.1,2.19-3.24,4.38-3.24,3.3,0,4.92,2.25,4.92,5.55v9.75h-3.27v-8.79c0-2.79-.99-4.05-3-4.05s-3,1.38-3,3.84v9h-3.27Z"/>
          <path class="cls-2" d="M435.81,394.12v-3.33h3.48v3.33h-3.48ZM435.9,411.49v-15h3.27v15h-3.27Z"/>
          <path class="cls-2" d="M446.46,403.66v7.83h-3.27v-20.7h3.27v11.88l6.18-6.18h4.05l-6.57,6.6,6.87,8.4h-4.11l-6.42-7.83Z"/>
        </g>
      </g>
    </g>
  </g>
</svg>