<?xml version="1.0" encoding="UTF-8"?>
<svg id="Layer_2" data-name="Layer 2" xmlns="http://www.w3.org/2000/svg" xmlns:xlink="http://www.w3.org/1999/xlink" viewBox="0 0 600 500">
  <defs>
    <style>
      .cls-1 {
        fill: none;
      }

      .cls-2 {
        clip-path: url(#clippath-1);
      }

      .cls-3 {
        clip-path: url(#clippath-3);
      }

      .cls-4 {
        clip-path: url(#clippath-4);
      }

      .cls-5 {
        clip-path: url(#clippath-2);
      }

      .cls-6 {
        fill: #fff;
      }

      .cls-7 {
        clip-path: url(#clippath);
      }
    </style>
    <clipPath id="clippath">
      <rect class="cls-1" width="600" height="500"/>
    </clipPath>
    <clipPath id="clippath-1">
      <rect class="cls-1" width="600" height="500"/>
    </clipPath>
    <clipPath id="clippath-2">
      <rect class="cls-1" width="600" height="500"/>
    </clipPath>
    <clipPath id="clippath-3">
      <rect class="cls-1" width="600" height="500"/>
    </clipPath>
    <clipPath id="clippath-4">
      <rect class="cls-1" width="600" height="500"/>
    </clipPath>
  </defs>
  <g id="Layer_1-2" data-name="Layer 1">
    <g class="cls-7">
      <g class="cls-2">
        <g>
          <g>
            <path class="cls-6" d="M376.17,88.73c-1.21,0-2.43,0-3.64,0,.09-.17.17-.34.26-.52.59-1.19,1.22-1.58,2.57-1.58.62,0,1.24,0,1.86,0-.35.7-.69,1.4-1.04,2.1"/>
            <path class="cls-6" d="M342.99,95.4c-.57,1.05-1.25,1.44-2.49,1.44-.68,0-1.37,0-2.06,0,.74-1.35,1.48-2.71,2.22-4.06.56-1.03,1.26-1.43,2.49-1.43h2.06c-.74,1.35-1.48,2.7-2.22,4.06M260.51,95.4c-.57,1.05-1.25,1.44-2.49,1.44-.69,0-1.37,0-2.06,0,.74-1.35,1.48-2.71,2.22-4.06.56-1.03,1.26-1.43,2.49-1.43h2.05c-.74,1.35-1.48,2.7-2.22,4.06M298.32,92.31c.37-1.05,1.22-1.14,1.99-1.14h4.16c-.1.28-.19.56-.29.85-.34.99-1.1,1.07-1.79,1.07h-4.34c.09-.26.18-.52.27-.78M372.24,96.83c1.11-2.24,2.23-4.49,3.35-6.73-1.21,0-2.43,0-3.64,0-.96,1.94-1.93,3.87-2.89,5.81-.32.65-.77.92-1.53.92-2.95,0-5.9,0-8.85,0,1.19-2.4,2.39-4.8,3.58-7.2.51-1.01.7-1.09,1.87-1.09h1.06c1.03,0,1.52-.28,1.93-1.1l.49-1c-1.26,0-2.51,0-3.77,0l1.62-3.27c-.79,0-1.59,0-2.38,0-1.04,0-1.52.28-1.93,1.09-.36.73-.72,1.45-1.08,2.18-.66,0-1.32,0-1.98,0-.35.7-.7,1.4-1.04,2.1.66,0,1.32,0,1.98,0-.41.82-3.25,6.55-3.66,7.36-.33.65-.77.92-1.53.92-2.62,0-5.24,0-7.86,0,1.39-2.55,2.79-5.09,4.18-7.64-.96,0-1.92,0-2.89,0-.67,0-.96.22-1.38.72,0-.55-.2-.72-.73-.72-.67,0-1.33,0-2,0-3.28,0-5.12,1.02-6.55,3.62-.57,1.04-1.13,2.07-1.7,3.11-.35.65-.8.91-1.53.91-1.69,0-3.38,0-5.07,0-1.83,0-2.55-.26-2.76-1.23-.22-1.04.25-1.88,2.7-3.51.46-.31.93-.62,1.39-.92.65-.43.91-.65.82-1.12-.08-.42-.33-.87-2.34-.87-3.17,0-6.35,0-9.53,0-1.01,0-1.48.27-1.93,1.1-1.03,1.88-2.06,3.76-3.08,5.64-.36.65-.8.91-1.53.91h-15.29c.22-.64.44-1.28.65-1.92,2.55,0,5.09,0,7.63,0,1.51,0,2.13-.39,2.67-1.67.24-.57.49-1.14.73-1.72.18-.43.34-1.04.03-1.51-.36-.54-1.28-.83-2.67-.83h-7.33c-2.34,0-3.41.65-4.24,2.59-.51,1.2-1.02,2.39-1.52,3.59-.52,1.22-1.34,1.47-2.51,1.47-1.75,0-3.5,0-5.24,0,.11-.17.22-.33.33-.5,1.04-1.56.84-3.29-.55-4.76-1.36-1.44-3.17-1.95-4.76-2.39h-4.08c-.94,1.71-1.87,3.42-2.81,5.13-1.17,2.14-2.44,2.52-4.68,2.52-1.64,0-3.29,0-4.93,0,1.39-2.55,2.79-5.1,4.18-7.64-.97,0-1.93,0-2.9,0-.67,0-.96.22-1.39.72,0-.55-.2-.72-.73-.72-.66,0-1.33,0-1.99,0-3.28,0-5.12,1.02-6.55,3.62-.57,1.04-1.13,2.07-1.7,3.11-.36.65-.79.91-1.53.91-2.51,0-5.01,0-7.52,0,2.13-3.89,4.25-7.77,6.38-11.66.37-.68-.12-1.52-.9-1.52h-29.87c-2.03,0-3.03.51-3.99,2.15,4.3,0,8.61,0,12.91,0-2.4,4.39-4.8,8.77-7.2,13.16h3.72c2.4-4.38,4.8-8.77,7.2-13.15,1.72,0,3.45,0,5.17,0-2.4,4.38-4.8,8.77-7.2,13.15h3.72c2.4-4.38,4.8-8.77,7.2-13.15,1.72,0,3.45,0,5.17,0-1.98,3.62-3.96,7.24-5.94,10.86-.27.5-.54,1.19-.25,1.67.24.41.85.62,1.75.62h9.79c.48,0,.69-.16.99-.51,0,.39.33.51.71.51h16.85c3.34,0,5.12-.98,6.55-3.6.74-1.35,1.48-2.7,2.22-4.06.03,0,.2.04.23.04,2.65.51,4,1.49,4.11,3.01.05.62-.15,1.19-.56,1.64-.5.54-1.26.85-2.09.85-1.7,0-2.38.66-3.04,2.12h14.26c.48,0,.69-.16.99-.51,0,.39.33.51.71.51h21.09c1.42,0,2.04-.38,2.75-1.67.82-1.51,1.65-3.01,2.47-4.52.56-1.03,1.26-1.43,2.49-1.43,1.24,0,2.48,0,3.72,0-.63.44-1.33.99-1.86,1.54-.7.72-1.39,1.72-1.51,3.02-.09.9.14,1.68.64,2.23.49.55,1.22.83,2.1.83h8.67c.48,0,.69-.16.99-.51,0,.39.33.51.71.51h18.25c.48,0,.69-.16.99-.51,0,.39.33.51.71.51h26.98c1.62,0,2.45-.53,2.76-1.77.03-.13.06-.25.09-.38-4.25,0-8.5,0-12.76,0"/>
          </g>
          <polygon class="cls-6" points="296.65 75.5 296.65 73.64 301.43 73.64 306.22 73.64 306.22 75.5 301.43 75.5 296.65 75.5"/>
          <polygon class="cls-6" points="301.43 79.37 304.45 79.37 304.45 76.47 301.43 76.47 298.42 76.47 298.42 79.37 301.43 79.37"/>
          <g class="cls-5">
            <path class="cls-6" d="M298.42,72.67c0-1.6-.43-3.17-1.71-4.23h9.45c-1.28,1.07-1.7,2.63-1.71,4.23h-6.03Z"/>
          </g>
          <polygon class="cls-6" points="290.43 65.36 290.43 63.98 301.43 63.98 312.44 63.98 312.44 65.36 301.43 65.36 290.43 65.36"/>
          <g class="cls-3">
            <path class="cls-6" d="M291.41,70.33c1.29-.27,2.67-1,3.59-1.89h-3.83c.08.63.16,1.26.24,1.89"/>
            <path class="cls-6" d="M311.46,70.33c-1.29-.27-2.67-1-3.59-1.89h3.83c-.08.63-.16,1.26-.24,1.89"/>
            <path class="cls-6" d="M290.06,60.95c-1.21-7.14-3.54-14.58-6.1-19.48,2.75,1.49,5.71,3.86,8.87,7.11-1.31-.35-2.62-.63-3.94-.83,1.83,4.33,3.34,8.74,4.72,13.2h-3.55Z"/>
            <path class="cls-6" d="M312.81,60.95c1.21-7.14,3.54-14.58,6.1-19.48-2.75,1.49-5.71,3.86-8.87,7.11,1.31-.35,2.63-.63,3.94-.83-1.83,4.33-3.34,8.74-4.72,13.2h3.55Z"/>
          </g>
          <polygon class="cls-6" points="289.26 63.26 289.26 61.86 301.43 61.86 313.61 61.86 313.61 63.26 301.43 63.26 289.26 63.26"/>
          <g class="cls-4">
            <path class="cls-6" d="M297.33,40.72c1.88-3.23,3.49-6.91,4.1-10.72.61,3.81,2.22,7.48,4.1,10.72-.67-.3-1.38-.62-2.16-.97-.68-.3-.97-.12-.95.58.23,6.87,1.24,14.68,4.82,20.63h-4.22c-.66-1.58-1.19-3.15-1.59-4.68-.4,1.54-.93,3.1-1.59,4.68h-4.22c3.58-5.95,4.6-13.76,4.82-20.63.02-.7-.26-.88-.95-.58-.79.35-1.49.67-2.16.97"/>
          </g>
          <polygon class="cls-6" points="289.26 67.47 289.26 66.07 301.43 66.07 313.61 66.07 313.61 67.47 301.43 67.47 289.26 67.47"/>
        </g>
      </g>
    </g>
  </g>
</svg>