<svg height="60" viewBox="0 0 468 60" width="468" xmlns="http://www.w3.org/2000/svg" xmlns:xlink="http://www.w3.org/1999/xlink"><mask id="a" fill="#fff"><path d="m.56404687.41424324h33.85441403v20.19451626h-33.85441403z" fill="#fff" fill-rule="evenodd"/></mask><g fill="none" fill-rule="evenodd" transform="translate(145 10)"><g fill="#fefefe" transform="translate(1.054688 .640127)"><path d="m37.7263828 37.9459459-14.5409766-20.4507567c-.7129687.1022432-1.4923828.1538919-2.3392968.1538919h-4.5762891l14.5241016 20.2968648z"/><path d="m28.8971719 11.4985703c0 2.2187838-.7878516 3.8367567-2.3603907 4.8549729l2.9805469 4.2552163c.9903516-.6081892 1.8615235-1.383973 2.6145703-2.3284054 1.5240235-1.9120541 2.2865625-4.1961892 2.2865625-6.8545136 0-3.4035405-1.2160546-6.14197293-3.648164-8.21635131-2.2053516-1.86356757-5.7891797-2.79535135-10.7504297-2.79535135h-19.45582033l3.80953126 5.32297297h16.69148437c5.2207031 0 7.8321094 1.92048649 7.8321094 5.76145949" mask="url(#a)"/></g><path d="m14.5249453 29.632727h6.9324609l-14.43023432-20.29475673-7.02738282-.00210811z" fill="#00a547"/><g fill="#fefefe"><g transform="translate(44.296875 5.910397)"><path d="m.55877344.9222973h4.26621094c2.57765625.00737838 3.86753906 1.25959459 3.86753906 3.7577027v2.89548649c0 1.55789189-.85851563 2.61721621-2.57554688 3.17691891l3.5015625 8.8392973h-2.74640625l-2.85503906-8.4946216-.9703125.118054v8.3765676h-2.48800781zm2.48800781 2.15343243v6.10508108h1.05574219c.48199219 0 .826875-.03267567 1.03464844-.09697297.71085937-.2592973 1.06628906-.76102703 1.06628906-1.50835135v-2.89548649c0-1.06986486-.56742188-1.60427027-1.70121094-1.60427027z"/><path d="m19.2447773 16.1895324c0 2.4981081-1.400625 3.7503244-4.201875 3.7577027-2.8001953 0-4.2008203-1.2522162-4.2008203-3.7577027v-11.77905402c0-2.49810811 1.400625-3.74610811 4.2008203-3.74610811 2.80125 0 4.201875 1.248 4.201875 3.74610811zm-2.4880078-11.77905402c0-1.06248649-.5674218-1.59372973-1.7022656-1.59372973h-.0221484c-1.1348438 0-1.7022657.53124324-1.7022657 1.59372973v11.77905402c0 1.0698649.5716407 1.6042703 1.7128125 1.6042703 1.1422266 0 1.7138672-.5344054 1.7138672-1.6042703z"/><path d="m30.2383125 16.1895324c0 2.4981081-1.400625 3.7503244-4.201875 3.7577027-2.8001953 0-4.2008203-1.2522162-4.2008203-3.7577027v-11.77905402c0-2.49810811 1.400625-3.74610811 4.2008203-3.74610811 2.80125 0 4.201875 1.248 4.201875 3.74610811v2.30416216h-2.4880078v-2.30416216c0-1.06248649-.5674219-1.59372973-1.7022656-1.59372973h-.0221485c-1.1348437 0-1.7022656.53124324-1.7022656 1.59372973v11.77905402c0 1.0698649.5716406 1.6042703 1.7128125 1.6042703 1.1422266 0 1.7138672-.5344054 1.7138672-1.6042703v-2.2936216h2.4880078z"/></g><path d="m82.1142773 16.1673973 4.1902735 9.3347027h-2.649375l-3.9329297-8.7423243v8.7423243h-2.4880078v-18.66940541h2.4880078v8.78554051l3.9329297-8.78554051h2.649375z"/><g transform="translate(87.539062 5.910397)"><path d="m.60264844 4.41068919c0-2.49810811 1.400625-3.74716216 4.201875-3.74716216s4.20082031 1.24905405 4.20082031 3.74716216v2.30416216h-2.48800781v-2.30416216c0-1.06248649-.56742188-1.59372973-1.70226563-1.59372973h-.02109375c-1.13484375 0-1.70226562.53124324-1.70226562 1.59372973v1.74445946c0 .9612973 1.03464843 2.0922973 3.10183593 3.39089189 1.87523438 1.17737836 2.81179688 2.58032436 2.81179688 4.20989186v2.4338108c0 2.5044325-1.39640625 3.7566487-4.19027344 3.7566487-2.80863281-.0063243-4.21242187-1.2595946-4.21242187-3.7566487v-2.2936216h2.4890625v2.2936216c0 1.0688109.57480468 1.6042703 1.72335937 1.6042703 1.13484375 0 1.70226563-.5354594 1.70226563-1.6042703v-2.1966486c0-1.0266487-1.03464844-2.1924324-3.10289063-3.4994595-1.87417969-1.17737834-2.81179687-2.60140537-2.81179687-4.27418915z"/><path d="m19.9993008 16.1895324c0 2.4981081-1.400625 3.7503244-4.201875 3.7577027-2.8001953 0-4.2008203-1.2522162-4.2008203-3.7577027v-11.77905402c0-2.49810811 1.400625-3.74610811 4.2008203-3.74610811 2.80125 0 4.201875 1.248 4.201875 3.74610811zm-2.4880078-11.77905402c0-1.06248649-.5674219-1.59372973-1.7022657-1.59372973h-.0221484c-1.1348437 0-1.7022656.53124324-1.7022656 1.59372973v11.77905402c0 1.0698649.5716406 1.6042703 1.7128125 1.6042703 1.1422265 0 1.7138672-.5344054 1.7138672-1.6042703z"/></g><path d="m110.345203 25.5022054v-18.6694054h2.488008v16.5265135h5.031914v2.1428919z"/><path d="m119.970703 25.5021h2.489063v-18.66940541h-2.489063z"/><g transform="translate(44.296875 5.910397)"><path d="m81.2381484.9222973h4.5351563c2.5787109.00737838 3.8675391 1.25959459 3.8675391 3.7577027v11.1645405c0 2.4907298-1.3605469 3.7397838-4.0826954 3.7471622h-4.32zm2.4880079 2.15343243v14.37308107h1.724414c1.1348438 0 1.7022656-.5344054 1.7022656-1.6042703v-11.1645405c0-1.06986486-.5674218-1.60427027-1.7022656-1.60427027z"/><path d="m4.46575781 26.4350432c0 .7483784-.20777344 1.3207298-.624375 1.7170541-.41554687.3963243-1.01460937.5944865-1.7971875.5944865h-1.26878906v-4.5355946h1.40273438c.72246093 0 1.28355468.1939459 1.68539062.5828919.40078125.3889459.60222656.936.60222656 1.6411621m-.78257812.0252973c0-1.0856756-.50730469-1.6295675-1.52402344-1.6295675h-.64230469v3.2918108h.52734375c1.09265625 0 1.63898438-.5544324 1.63898438-1.6622433"/></g><path d="m52.8001875 34.6566649h-2.5671094v-4.5355946h2.5671094v.6271621h-1.8246094v1.2342973h1.7096485v.6208379h-1.7096485v1.424027h1.8246094z"/><path d="m56.8934297 33.4251081c0 .4037027-.1455469.7199189-.4376953.9486487-.2921485.2297837-.6950391.3446756-1.2076172.3446756-.5136328 0-.9333984-.079054-1.2603516-.2382162v-.7009459c.2067188.0969729.4271485.1728648.6591797.2287297.233086.0558649.4503516.0843243.6507422.0843243.2942578 0 .5104687-.0558648.6507422-.1675946.1392187-.1117297.2088281-.2614054.2088281-.4500811 0-.1697027-.0632812-.313054-.1919531-.4311081-.1286719-.118054-.3933984-.2571891-.7941797-.4184594-.4144922-.1675946-.7066406-.3594325-.8753906-.5744595-.1708594-.215027-.2552344-.4732702-.2552344-.7747297 0-.3784054.135-.6767027.4039453-.8938378.2689453-.2171352.6296485-.3257027 1.0831641-.3257027.4345312 0 .8669531.0948648 1.2972656.2856486l-.23625.605027c-.4028906-.1697027-.7635937-.2550811-1.08-.2550811-.2394141 0-.421875.0527027-.5463281.1570541s-.185625.2424324-.185625.4142432c0 .1180541.0242578.2181892.0738281.3025136.050625.0832702.1318359.1623243.2457422.2371621.1139062.0748379.3185156.1728649.6148828.2940811.3322266.1391351.5769141.2687838.7319531.3878919.1550391.1201622.2689453.2561351.3417188.4068649.0717187.1507297.1086328.3288648.1086328.5333513"/><path d="m58.2683203 34.6565595h.7425v-4.5355946h-.7425z"/><g transform="translate(60.117188 29.099586)"><path d="m2.44223438 3.09723243h1.66957031v2.27675676c-.27210938.08959459-.53472656.15178378-.78679688.18972973-.25101562.03689189-.52207031.05586486-.81421875.05586486-.68765625 0-1.21710937-.20343243-1.58941406-.61029729-.37230469-.40581081-.55898437-.97921622-.55898437-1.72021622 0-.72940541.20988281-1.3007027.63070312-1.71389189.41976563-.41213514.99773438-.61872973 1.73496094-.61872973.47355469 0 .92285156.0917027 1.34683594.273l-.26050782.61767567c-.36808593-.1697027-.73722656-.25402702-1.1053125-.25402702-.48410156 0-.86695312.15178378-1.14855468.45535135-.28160157.30462162-.421875.71991892-.421875 1.24694594 0 .55443244.1265625.97605406.3796875 1.26486487.25417968.28775676.61910156.43216216 1.09476562.43216216.24046875 0 .49675781-.02951351.76992188-.08959459v-1.17h-.94078125z"/><path d="m9.47826563 5.55707838h-.90914063l-2.23171875-3.61435135h-.0253125l.01582031.20237838c.02847657.38472973.04324219.73572973.04324219 1.05405405v2.35791892h-.67394531v-4.5355946h.90070312l2.22539063 3.59537838h.01898437c-.00421875-.04743243-.01265625-.2202973-.0253125-.51964865-.01265625-.29829729-.01792969-.53124324-.01792969-.69883783v-2.3768919h.67921876z"/></g></g><path d="m72.1585547 36.1491h.5589844v-6.3064054h-.5589844z" fill="#00a547"/><g fill="#fefefe" transform="translate(74.882812 29.099586)"><path d="m2.25987891 3.09723243h1.66957031v2.27675676c-.27210938.08959459-.53472656.15178378-.78679688.18972973-.25101562.03689189-.52207031.05586486-.81421875.05586486-.68765625 0-1.21710937-.20343243-1.58941406-.61029729-.37230469-.40581081-.55898437-.97921622-.55898437-1.72021622 0-.72940541.20988281-1.3007027.63070312-1.71389189.41976563-.41213514.99773438-.61872973 1.73496094-.61872973.47355469 0 .92285156.0917027 1.34683594.273l-.26050782.61767567c-.36808593-.1697027-.73722656-.25402702-1.1053125-.25402702-.48410156 0-.86695312.15178378-1.14855468.45535135-.28160157.30462162-.421875.71991892-.421875 1.24694594 0 .55443244.1265625.97605406.3796875 1.26486487.25417968.28775676.61804687.43216216 1.09476562.43216216.24046875 0 .49675781-.02951351.76992188-.08959459v-1.17h-.94078125z"/><path d="m6.25725 3.74558108v1.81191892h-.7425v-4.53559459h1.2825c.58535156 0 1.01882812.10962162 1.30042969.32886486.28160156.21924324.421875.55021622.421875.99291892 0 .56391892-.29320313.96656757-.88066406 1.20689189l1.28144531 2.00691892h-.84375l-1.08738281-1.81191892zm0-.61451351h.5146875c.3459375 0 .59589844-.0642973.75199219-.19183784.15503906-.12859459.23203125-.31832432.23203125-.5712973 0-.25613513-.08332031-.44059459-.25101563-.55232432-.16769531-.11172973-.41976562-.1675946-.75726562-.1675946h-.49042969z"/><path d="m12.8898633 5.55707838-.4535156-1.2595946h-1.734961l-.4440234 1.2595946h-.78152346l1.69804686-4.55351352h.806836l1.6980468 4.55351352zm-.6486328-1.89835135-.4250391-1.2342973c-.0316406-.08327027-.0748828-.21397297-.1297266-.39105405-.053789-.17813514-.0917578-.30883784-.1128515-.39105406-.0558985.25402703-.1381641.5322973-.2446875.83481081l-.4102735 1.1815946z"/><path d="m17.7778125 2.39291351c0 .47327027-.1550391.83691892-.4661719 1.08883784-.3100781.25191892-.7519922.37840541-1.3246875.37840541h-.4714453v1.69702702h-.7425v-4.53559459h1.3067578c.5674219 0 .9914063.11594595 1.2740625.34783784.2826563.23189189.4239844.5734054.4239844 1.02348648zm-2.2623047.8442973h.3933985c.3807421 0 .6602343-.0664054.8384765-.19921622.1771875-.13175675.266836-.3394054.266836-.61978378 0-.2614054-.0801563-.45535135-.2394141-.58394595-.1592578-.12754054-.4071094-.19183783-.7446094-.19183783h-.5146875z"/></g><path d="m97.6415977 34.6566649h-.7446094v-2.0438108h-2.0925v2.0438108h-.7414453v-4.5355946h.7414453v1.8551351h2.0925v-1.8551351h.7446094z" fill="#fefefe"/><path d="m99.3315234 34.6565595h.7424996v-4.5355946h-.7424996z" fill="#fefefe"/><g fill="#fefefe" transform="translate(101.25 29.099586)"><path d="m2.44930078 1.59278108c-.42609375 0-.76148437.15072973-1.00617187.45324324-.24363282.30145946-.36597657.71781082-.36597657 1.25010811 0 .55548649.11707032.97710811.35226563 1.26170271.23519531.28564864.57480469.429 1.01988281.429.19195313 0 .37863281-.02002703.55898438-.05797298.17929687-.03794594.36703125-.08748648.56109375-.14756757v.63664865c-.35542969.13386487-.759375.20132433-1.21078125.20132433-.66339844 0-1.17386719-.20132433-1.52929688-.60397298-.35648437-.40159459-.53472656-.9771081-.53472656-1.72548648 0-.47221622.08648437-.88435135.25945312-1.23745946.17296875-.35416216.42292969-.62505406.74988282-.81372973.32695312-.18762162.71085937-.28248649 1.15171875-.28248649.46300781 0 .89121093.09802703 1.28460937.29197298l-.26683594.61767567c-.15292968-.07272973-.31535156-.13597297-.48621093-.19078378-.17085938-.05481081-.35015625-.08221622-.53789063-.08221622"/><path d="m7.66019531 4.32552162c0 .4037027-.14554687.71991892-.43769531.94864865-.29214844.22978378-.69503906.34467568-1.20761719.34467568-.51363281 0-.93339843-.07905406-1.26035156-.23821622v-.70094595c.20671875.09697298.42714844.17286487.65917969.22872973.23308593.05586487.45035156.08432433.65074218.08432433.29425782 0 .51046875-.05586487.65074219-.1675946.13921875-.11172973.20882813-.2614054.20882813-.45008108 0-.1697027-.06328125-.31305405-.19195313-.43110811-.12867187-.11805405-.39339844-.25718919-.79417969-.41845946-.41449218-.16759459-.70664062-.35943243-.87539062-.57445945-.16980469-.21502703-.25523438-.47327028-.25523438-.77472973 0-.37840541.135-.67670271.40394532-.89383784.26894531-.21713514.62964843-.3257027 1.08316406-.3257027.43453125 0 .86695312.09486486 1.29726562.28564864l-.23625.60502703c-.40289062-.1697027-.76359375-.25508108-1.08-.25508108-.23941406 0-.421875.0527027-.54632812.15705405-.12445313.10435135-.185625.24243244-.185625.41424325 0 .11805405.02425781.21818919.07382812.30251351.050625.08327027.13183594.16232432.24574219.23716216s.31851563.17286487.61488281.29408108c.33222657.13913514.57691407.26878379.73195313.3878919.15503906.12016216.26894531.25613513.34171875.40686486.07171875.15072973.10863281.32886487.10863281.53335135"/></g><path d="m111.153516 36.1491h.557929v-6.3064054h-.557929z" fill="#00a547"/><g fill="#fefefe" transform="translate(113.90625 29.099586)"><path d="m3.37995703 2.39291351c0 .47327027-.15503906.83691892-.46511719 1.08883784-.31113281.25191892-.75304687.37840541-1.32574218.37840541h-.47144532v1.69702702h-.7425v-4.53559459h1.30675782c.56742187 0 .99140625.11594595 1.2740625.34783784s.42398437.5734054.42398437 1.02348648zm-2.26230469.8442973h.39339844c.38074219 0 .66023438-.0664054.83847656-.19921622.17824219-.13175675.26683594-.3394054.26683594-.61978378 0-.2614054-.08015625-.45535135-.23941406-.58394595-.15925781-.12754054-.40710938-.19183783-.74460938-.19183783h-.5146875z"/><path d="m5.52424219 3.74558108v1.81191892h-.74144531v-4.53559459h1.28144531c.58535156 0 1.01882812.10962162 1.30042969.32886486.28160156.21924324.421875.55021622.421875.99291892 0 .56391892-.29320313.96656757-.88066407 1.20689189l1.28144532 2.00691892h-.84375l-1.08632813-1.81191892zm0-.61451351h.5146875c.3459375 0 .59695312-.0642973.75199218-.19183784.15503907-.12859459.23203126-.31832432.23203126-.5712973 0-.25613513-.08332032-.44059459-.25101563-.55232432s-.41976562-.1675946-.75726562-.1675946h-.49042969z"/></g><path d="m123.247617 34.6565595h.7425v-4.5355946h-.7425z" fill="#fefefe"/><path d="m129.464156 34.6566649h-.90914l-2.231719-3.6143514h-.025313l.015821.2023784c.028476.3847297.043242.7357297.043242 1.054054v2.357919h-.673945v-4.5355946h.900703l2.22539 3.5953783h.018985c-.004219-.0474324-.012657-.2202972-.025313-.5196486-.012656-.2982973-.01793-.5312432-.01793-.6988378v-2.3768919h.679219z" fill="#fefefe"/><path d="m130.64857 30.1212811v.6366486h1.33418v3.898946h.7425v-3.898946h1.335234v-.6366486z" fill="#fefefe"/></g></svg>