<?xml version="1.0" encoding="utf-8"?>
<!-- Generator: Adobe Illustrator 24.0.2, SVG Export Plug-In . SVG Version: 6.00 Build 0)  -->
<svg version="1.1" id="Layer_1" xmlns="http://www.w3.org/2000/svg" xmlns:xlink="http://www.w3.org/1999/xlink" x="0px" y="0px"
	 viewBox="0 0 160 600" style="enable-background:new 0 0 160 600;" xml:space="preserve">
<style type="text/css">
	.st0{fill:#323E60;}
</style>
<title>160 x 600 2</title>
<g>
	<g>
		<path class="st0" d="M46.5,88.3l3.5-1c0.2,1.1,1.2,1.8,2.3,1.8c1.3,0,2-0.5,2-1.5s-0.7-1.4-2-1.7l-1.5-0.3
			c-2.6-0.6-4.1-2.2-4.1-4.4c0-2.8,2.2-4.5,5.6-4.5c4.6,0,5.5,3.2,5.5,3.2L54.5,81c-0.3-0.9-1.2-1.4-2.1-1.3c-1.2,0-1.8,0.5-1.8,1.3
			c0,1,0.7,1.3,2.1,1.7l1.6,0.4c2.5,0.6,4,2.2,4,4.4c0,2.9-2.3,4.7-5.9,4.7C47.2,92.1,46.5,88.3,46.5,88.3z"/>
		<path class="st0" d="M61.1,77h3.1l0.5,2.1c1.2-1.6,3.1-2.5,5.1-2.4c3.5,0,5.7,2.3,5.7,6.1v9h-3.9v-8.2c0-2.1-1.1-3.2-3-3.2
			c-1.9-0.1-3.5,1.3-3.6,3.2c0,0.1,0,0.3,0,0.4v7.8h-3.9V77z"/>
		<path class="st0" d="M78.4,84.4c0-4.4,3.4-7.7,8.1-7.7s8,3.1,8,7.7s-3.4,7.7-8,7.7S78.4,88.9,78.4,84.4z M90.5,84.4
			c0.1-2.1-1.5-3.9-3.6-4.1c-0.1,0-0.3,0-0.4,0c-2.2,0-4.1,1.8-4.1,4c0,2.2,1.8,4.1,4,4.1C88.7,88.5,90.5,86.7,90.5,84.4
			C90.5,84.4,90.5,84.4,90.5,84.4z"/>
		<path class="st0" d="M118.5,77l-5.1,14.8h-3.5l-2.8-9l-0.2-1.3l-0.2,1.3l-2.7,9h-3.6L95,77h4.2l2.8,9l0.3,1.7l0.3-1.7l2.7-9h3.3
			l2.7,9l0.2,1.7l0.3-1.7l2.7-9H118.5z"/>
		<path class="st0" d="M57.3,112.2h3l0.6,2.7c0.7-1.9,2.5-2.9,5.1-2.9c0.3,0,0.6,0,0.9,0.1l-0.2,4H66c-3.4,0-4.8,1.5-4.8,5.3v5.6
			h-3.9V112.2z"/>
		<path class="st0" d="M81.3,117.9v9.1h-2.8l-0.6-1.9c-0.9,1.5-2.7,2.3-5.1,2.3c-3.4,0-5.4-1.7-5.4-4.7s2.1-4.6,5.7-4.6
			c1.5,0,2.9,0.2,4.3,0.7v-0.6c0-1.9-1.1-2.9-3.1-2.9c-1.4,0-2.8,0.4-4,1.2l-2.1-2.7c1.9-1.3,4.1-1.9,6.3-1.8
			C78.7,111.9,81.3,114.2,81.3,117.9z M77.4,121.6v-0.3c-1-0.4-2.1-0.5-3.1-0.6c-1.9,0-2.9,0.6-2.9,1.9s0.9,1.9,2.7,1.9
			C76,124.4,77.4,123.2,77.4,121.6z"/>
		<path class="st0" d="M84.7,107.6c0.1-1.3,1.2-2.3,2.5-2.2c1.2,0.1,2.2,1,2.2,2.2c0,1.3-1,2.4-2.2,2.4c-0.1,0-0.1,0-0.2,0
			c-1.3,0.1-2.3-0.9-2.4-2.2C84.7,107.8,84.7,107.7,84.7,107.6z M85.1,112.2h3.9V127h-3.9L85.1,112.2z"/>
		<path class="st0" d="M93.1,112.2h3.1l0.5,2.1c1.2-1.6,3.1-2.5,5.1-2.4c3.5,0,5.7,2.3,5.7,6.1v9h-3.9v-8.2c0-2.1-1.1-3.2-3-3.2
			c-1.9-0.1-3.5,1.3-3.6,3.2c0,0.1,0,0.2,0,0.4v7.8h-3.9V112.2z"/>
		<path class="st0" d="M44.3,142.9c0.1-1.3,1.2-2.3,2.5-2.2c1.2,0.1,2.2,1,2.2,2.2c0,1.3-1,2.3-2.3,2.4c0,0-0.1,0-0.1,0
			c-1.3,0.1-2.3-0.9-2.4-2.2C44.3,143,44.3,142.9,44.3,142.9z M44.7,147.5h3.9v14.8h-3.9V147.5z"/>
		<path class="st0" d="M52.6,147.5h3.1l0.5,2.1c1.2-1.6,3.1-2.5,5.1-2.4c3.5,0,5.7,2.4,5.7,6.1v9h-3.9v-8.2c0-2.1-1.1-3.2-3-3.2
			c-1.9-0.1-3.5,1.3-3.6,3.2c0,0.1,0,0.3,0,0.4v7.8h-3.9V147.5z"/>
		<path class="st0" d="M86.5,154.8c0,4.5-3,7.8-7.1,7.8c-1.9,0.1-3.8-0.8-5-2.4l-0.6,2h-3v-21.8h4v8.7c1.2-1.3,2.9-2,4.7-1.9
			C83.7,147.2,86.5,150.3,86.5,154.8z M82.5,154.8c0-2.4-1.5-4-3.8-4c-2.3,0.1-4,2-3.9,4.2c0.1,2.1,1.7,3.8,3.8,3.9
			c2.1,0,3.9-1.8,3.8-3.9C82.5,155,82.5,154.9,82.5,154.8L82.5,154.8z"/>
		<path class="st0" d="M88.8,154.9c0-4.4,3.4-7.7,8.1-7.7s8,3.1,8,7.7c0,4.4-3.4,7.7-8,7.7S88.8,159.4,88.8,154.9z M101,154.9
			c0.1-2.1-1.4-3.9-3.6-4.1c-0.1,0-0.3,0-0.4,0c-2.2,0-4.1,1.8-4.1,4c0,2.2,1.8,4.1,4,4.1C99.1,159,100.9,157.2,101,154.9
			C101,154.9,101,154.9,101,154.9z"/>
		<path class="st0" d="M116.6,162.3l-3.3-4.6l-3.3,4.6h-4.7l5.6-7.5l-5.3-7.3h4.7l3,4.4l3.1-4.4h4.7l-5.3,7.3l5.6,7.5H116.6z"/>
	</g>
</g>
</svg>
