<svg id="Layer_1" data-name="Layer 1" xmlns="http://www.w3.org/2000/svg" xmlns:xlink="http://www.w3.org/1999/xlink" viewBox="0 0 300 600"><defs><style>.cls-1{fill:none;}.cls-2{clip-path:url(#clip-path);}.cls-3{fill:#221e1f;}.cls-4{clip-path:url(#clip-path-2);}.cls-5{clip-path:url(#clip-path-3);}.cls-6{clip-path:url(#clip-path-4);}</style><clipPath id="clip-path"><rect class="cls-1" width="300" height="600"/></clipPath><clipPath id="clip-path-2"><rect class="cls-1" x="320" width="300" height="600"/></clipPath><clipPath id="clip-path-3"><rect class="cls-1" x="398.2" y="364.8" width="138.3" height="137.47"/></clipPath><clipPath id="clip-path-4"><rect class="cls-1" x="-32448" y="-32167" width="65535" height="65535"/></clipPath></defs><g class="cls-2"><path class="cls-3" d="M39.22,564a2.5,2.5,0,0,1-.18-.94.74.74,0,0,0-.83-.79H37V564h-.57V559.7h1.74c1.09,0,1.61.5,1.61,1.26a1,1,0,0,1-1,1.07.93.93,0,0,1,.81.93c.06.62.08.87.22,1Zm-1.1-2.2c.73,0,1.06-.27,1.06-.8s-.33-.81-1.06-.81H37v1.61Z"/><path class="cls-3" d="M43.19,563a1.33,1.33,0,0,1-1.39,1.08,1.46,1.46,0,0,1-1.53-1.53,1.52,1.52,0,0,1,1.51-1.61,1.37,1.37,0,0,1,1.43,1.48v.23H40.84a1,1,0,0,0,1,1,.85.85,0,0,0,.91-.7Zm-.56-.72a.85.85,0,0,0-.85-.91,1,1,0,0,0-.93.91Z"/><path class="cls-3" d="M46,563.37a1.11,1.11,0,0,1-1.07.7,1.59,1.59,0,0,1,0-3.14,1.1,1.1,0,0,1,1.07.71V559.7h.57V564H46Zm0-1a.93.93,0,0,0-.95-1c-.58,0-.91.43-.91,1.11s.33,1.12.91,1.12a.94.94,0,0,0,.95-1Z"/><path class="cls-3" d="M50.45,564H48.63V559.7h1.75c1.06,0,1.49.46,1.49,1.14a.92.92,0,0,1-.81.92,1,1,0,0,1,.93,1C52,563.55,51.45,564,50.45,564Zm-1.25-2.44h1.2c.61,0,.88-.27.88-.68s-.27-.69-.88-.69H49.2Zm0,.46v1.49h1.24c.64,0,1-.28,1-.74s-.33-.75-1-.75Z"/><path class="cls-3" d="M52.61,559.7h.58v.64h-.58Zm.57,1.31v3h-.56v-3Z"/><path class="cls-3" d="M55.73,561.58a.83.83,0,0,0-.46-.12c-.43,0-.75.38-.75.95V564H54v-3h.57v.61a.93.93,0,0,1,.84-.69.61.61,0,0,1,.42.14Z"/><path class="cls-3" d="M58.36,563.37a1.11,1.11,0,0,1-1.07.7,1.59,1.59,0,0,1,0-3.14,1.1,1.1,0,0,1,1.07.71V559.7h.57V564h-.57Zm0-1a.93.93,0,0,0-.95-1c-.58,0-.91.43-.91,1.11s.33,1.12.91,1.12a.94.94,0,0,0,.95-1Z"/><path class="cls-3" d="M62.33,564l-1.72-4.29h.61l1.45,3.61h0l1.41-3.61h.6L63,564Z"/><path class="cls-3" d="M67.55,563a1.32,1.32,0,0,1-1.39,1.08,1.46,1.46,0,0,1-1.53-1.53,1.52,1.52,0,0,1,1.51-1.61,1.37,1.37,0,0,1,1.43,1.48v.23H65.2a1,1,0,0,0,1,1,.85.85,0,0,0,.91-.7Zm-.56-.72a.85.85,0,0,0-.85-.91,1,1,0,0,0-.93.91Z"/><path class="cls-3" d="M68.71,564h-.56v-3h.56v.53a1.07,1.07,0,0,1,1-.61c.78,0,1.09.52,1.09,1.21V564h-.57v-1.8c0-.5-.23-.81-.7-.81a.83.83,0,0,0-.81.9Z"/><path class="cls-3" d="M71.62,561.42h-.44v-.31l.19,0c.28-.05.34-.19.4-.48l.09-.41h.32V561H73v.41h-.84v1.8c0,.27.11.39.37.39a1.26,1.26,0,0,0,.56-.17v.38a1.2,1.2,0,0,1-.76.25c-.43,0-.73-.2-.73-.78Z"/><path class="cls-3" d="M75.61,561h.56v3h-.56v-.53a1,1,0,0,1-1,.61c-.77,0-1.06-.51-1.06-1.21V561h.57v1.8c0,.5.21.82.68.82a.82.82,0,0,0,.79-.91Z"/><path class="cls-3" d="M78.72,561.58a.83.83,0,0,0-.46-.12c-.43,0-.75.38-.75.95V564h-.57v-3h.57v.61a.93.93,0,0,1,.84-.69.63.63,0,0,1,.43.14Z"/><path class="cls-3" d="M81.84,563a1.33,1.33,0,0,1-1.39,1.08,1.45,1.45,0,0,1-1.53-1.53,1.51,1.51,0,0,1,1.5-1.61,1.37,1.37,0,0,1,1.43,1.48v.23H79.48a1,1,0,0,0,1,1,.86.86,0,0,0,.91-.7Zm-.57-.72a.85.85,0,0,0-.85-.91.94.94,0,0,0-.92.91Z"/><path class="cls-3" d="M82.72,563a.79.79,0,0,0,.89.7c.39,0,.68-.14.68-.44s-.19-.37-.56-.44l-.51-.09c-.55-.09-.89-.33-.89-.84s.46-.91,1.15-.91,1.25.37,1.3,1.06l-.45,0a.74.74,0,0,0-.85-.66c-.38,0-.62.17-.62.44s.15.36.45.41l.56.09c.6.1.95.33.95.87s-.52.91-1.21.91-1.31-.35-1.37-1.08Z"/><path class="cls-3" d="M87.25,559.7v3.8h2.39V564h-3V559.7Z"/><path class="cls-3" d="M90.18,559.7h.59v.64h-.59Zm.58,1.31v3H90.2v-3Z"/><path class="cls-3" d="M95,560.93c.78,0,1,.54,1,1.21V564H95.5v-1.8c0-.5-.21-.81-.66-.81a.81.81,0,0,0-.76.9V564h-.57v-1.8c0-.5-.2-.81-.66-.81a.81.81,0,0,0-.76.9V564h-.56v-3h.56v.53a1,1,0,0,1,1-.61.93.93,0,0,1,1,.65A1.08,1.08,0,0,1,95,560.93Z"/><path class="cls-3" d="M96.79,559.7h.58v.64h-.58Zm.58,1.31v3H96.8v-3Z"/><path class="cls-3" d="M98.24,561.42h-.45v-.31l.19,0c.28-.05.34-.19.41-.48l.09-.41h.31V561h.84v.41h-.84v1.8c0,.27.11.39.37.39a1.26,1.26,0,0,0,.56-.17v.38a1.18,1.18,0,0,1-.76.25c-.42,0-.72-.2-.72-.78Z"/><path class="cls-3" d="M102.93,563a1.33,1.33,0,0,1-1.39,1.08,1.45,1.45,0,0,1-1.53-1.53,1.51,1.51,0,0,1,1.5-1.61,1.37,1.37,0,0,1,1.43,1.48v.23h-2.37a1,1,0,0,0,1,1,.87.87,0,0,0,.92-.7Zm-.57-.72a.85.85,0,0,0-.85-.91,1,1,0,0,0-.93.91Z"/><path class="cls-3" d="M105.78,563.37a1.11,1.11,0,0,1-1.07.7,1.59,1.59,0,0,1,0-3.14,1.1,1.1,0,0,1,1.07.71V559.7h.57V564h-.57Zm0-1a.93.93,0,0,0-1-1c-.58,0-.91.43-.91,1.11s.33,1.12.91,1.12a.94.94,0,0,0,1-1Z"/><path class="cls-3" d="M107,563.31h.68V564H107Z"/></g></svg>