<svg width="160" height="600" viewBox="0 0 160 600" fill="none" xmlns="http://www.w3.org/2000/svg">
<rect width="160" height="600" fill="#171D21"/>
<g clip-path="url(#clip0_1_244)">
<path d="M69.4554 230.471V209H61.9995V213.273H64.1355V231.151C64.3792 233.325 65.8514 234.573 68.1733 234.573H71.6106V230.475H69.4526L69.4568 230.471H69.4554Z" fill="white"/>
<path d="M82.0743 216.245C76.3233 216.245 72.751 219.721 72.751 225.615C72.751 231.509 76.3247 234.95 82.0743 234.95C87.8238 234.95 91.3975 231.513 91.3975 225.615C91.3975 219.717 87.8238 216.245 82.0743 216.245ZM85.6204 226.813C85.6204 229.316 84.33 230.75 82.0784 230.75C79.8268 230.75 78.5364 229.316 78.5364 226.813V224.383C78.5364 221.88 79.8268 220.446 82.0784 220.446C84.33 220.446 85.6204 221.88 85.6204 224.383V226.813Z" fill="white"/>
<path d="M135.772 228.462C133.99 228.462 132.544 229.885 132.544 231.64C132.544 233.395 133.994 234.818 135.772 234.818C137.55 234.818 139 233.395 139 231.64C139 229.885 137.55 228.462 135.772 228.462Z" fill="white"/>
<path d="M109.59 230.475V223.204C109.59 218.717 106.703 216.245 101.463 216.245C97.7008 216.245 94.7619 217.557 93.3986 219.842L93.3173 219.976L96.4489 222.714L96.5729 222.546C97.7008 221.039 99.0214 220.368 100.859 220.368C103.044 220.368 103.978 221.276 103.978 223.404V223.736H101.246C95.6915 223.736 92.8752 225.655 92.8752 229.444C92.8752 232.714 95.0732 234.732 98.9085 234.98C99.0669 234.991 99.2845 234.999 99.5406 234.999C100.432 234.999 103 234.844 104.519 232.992C104.547 232.992 104.793 232.992 104.793 232.992C105.446 234.443 107.199 234.563 108.43 234.563H111.318V230.47H109.581L109.59 230.474V230.475ZM103.986 226.901V228.862C103.986 230.308 102.777 231.238 100.901 231.238C99.301 231.238 98.3825 230.613 98.3825 229.521V228.827C98.3825 227.236 100.021 226.901 101.397 226.901H103.989H103.985H103.986Z" fill="white"/>
<path d="M35.4909 216.665V228.203C35.4909 229.858 33.9292 230.614 32.4763 230.614C30.569 230.614 29.605 229.512 29.605 227.333V218.323C29.5237 217.626 28.9068 216.738 27.7885 216.663H24V228.028C24 232.296 26.2888 234.951 30.2908 234.951C32.895 234.951 34.5641 234.286 35.4868 233.012H35.765V234.536H41.0945V216.665H35.4909Z" fill="white"/>
<path d="M49.7181 234.54V223.003C49.7181 221.348 51.2798 220.592 52.7327 220.592C54.6401 220.592 55.6041 221.694 55.6041 223.872V232.883C55.6853 233.579 56.3023 234.468 57.4205 234.543H61.2077V223.178C61.2077 218.909 58.9189 216.254 54.9169 216.254C52.3127 216.254 50.6436 216.92 49.7209 218.194H49.4427V216.669H44.1132V234.539H49.7168L49.7181 234.54Z" fill="white"/>
<path d="M119.168 234.54V223.003C119.168 221.348 120.729 220.592 122.182 220.592C124.09 220.592 125.054 221.694 125.054 223.872V232.883C125.135 233.579 125.752 234.468 126.87 234.543H130.657V223.178C130.657 218.909 128.368 216.254 124.366 216.254C121.762 216.254 120.093 216.92 119.17 218.194H118.892V216.669H113.563V234.539H119.166L119.168 234.54Z" fill="white"/>
</g>
<defs>
<clipPath id="clip0_1_244">
<rect width="115" height="26" fill="white" transform="translate(24 209)"/>
</clipPath>
</defs>
</svg>
