<?xml version="1.0" encoding="UTF-8"?>
<svg id="Layer_1" data-name="Layer 1" xmlns="http://www.w3.org/2000/svg" viewBox="0 0 25 345">
  <defs>
    <style>
      .cls-1 {
        fill: #171d21;
      }
    </style>
  </defs>
  <path class="cls-1" d="M21.81,2.15v5.52h-13.55l-.66,9.28h.37c.29-.66.66-1.33,1.03-1.84.37-.59.88-1.03,1.4-1.47s1.18-.74,1.84-.96c.74-.22,1.47-.37,2.36-.37s2.36.22,3.39.66c1.1.44,2.06,1.03,2.87,1.84s1.47,1.77,1.99,2.94c.44,1.18.74,2.5.74,3.9s-.22,2.87-.74,4.12c-.52,1.25-1.25,2.36-2.21,3.24-.96.96-2.13,1.62-3.61,2.13-1.4.52-3.02.81-4.86.81s-2.72-.15-3.83-.44c-1.1-.29-2.13-.74-2.94-1.25-.88-.52-1.62-1.1-2.21-1.84-.66-.66-1.18-1.4-1.62-2.13l4.56-3.61c.37.59.66,1.1,1.1,1.62s.81.96,1.33,1.33,1.03.66,1.62.88,1.33.29,2.06.29c1.55,0,2.72-.44,3.53-1.25.81-.88,1.18-1.99,1.18-3.39v-.37c0-1.4-.44-2.43-1.25-3.24-.81-.81-1.91-1.18-3.39-1.18s-2.13.22-2.94.66c-.74.44-1.33.88-1.77,1.4l-5.15-.74L3.56,2.15h18.26Z"/>
  <path class="cls-1" d="M12.54,66.56c-1.77,0-3.31-.29-4.71-.81-1.4-.52-2.58-1.33-3.53-2.36s-1.69-2.21-2.21-3.68c-.52-1.4-.74-3.02-.74-4.79s.29-3.98.96-5.82,1.47-3.53,2.5-5.08c1.03-1.55,2.13-2.94,3.46-4.2,1.25-1.25,2.5-2.28,3.83-3.09h8.69c-1.84,1.25-3.46,2.5-4.86,3.61-1.47,1.18-2.72,2.36-3.75,3.46-1.1,1.18-1.99,2.36-2.65,3.61-.66,1.25-1.18,2.58-1.47,3.98l.37.15c.22-.59.59-1.1.96-1.62s.81-1.03,1.33-1.4c.52-.44,1.18-.74,1.84-.96.74-.22,1.55-.37,2.5-.37s2.36.22,3.46.66c1.03.44,1.99,1.03,2.72,1.84s1.4,1.77,1.84,2.87.66,2.36.66,3.75-.29,2.87-.81,4.12c-.52,1.25-1.25,2.36-2.21,3.24s-2.13,1.62-3.53,2.13c-1.4.52-2.87.74-4.56.74h-.07ZM12.54,61.63c1.55,0,2.65-.37,3.46-1.18.81-.81,1.18-1.91,1.18-3.39v-.59c0-1.47-.37-2.58-1.18-3.31s-1.91-1.18-3.39-1.18-2.58.37-3.39,1.18c-.81.74-1.25,1.91-1.25,3.31v.59c0,1.47.37,2.58,1.18,3.39.74.81,1.91,1.18,3.39,1.18Z"/>
  <path class="cls-1" d="M22.99,76.8l-9.72,23.85h-6.63l10.09-24.15H7.24v5.3H1.94v-10.45h21.05v5.45h0Z"/>
  <path class="cls-1" d="M12.39,135.77c-1.77,0-3.31-.22-4.71-.66-1.4-.44-2.5-1.03-3.46-1.77-.96-.74-1.69-1.69-2.13-2.72-.52-1.03-.74-2.21-.74-3.39,0-1.91.52-3.46,1.62-4.56,1.1-1.18,2.5-1.99,4.2-2.43v-.37c-1.47-.52-2.65-1.33-3.53-2.43-.96-1.1-1.4-2.5-1.4-4.2s.22-2.13.66-3.09,1.1-1.77,1.99-2.43c.88-.66,1.91-1.25,3.17-1.62s2.72-.59,4.34-.59,3.09.22,4.34.59,2.36.88,3.24,1.62c.88.66,1.55,1.47,1.99,2.43.44.96.66,1.99.66,3.09,0,1.69-.44,3.09-1.4,4.2-.96,1.1-2.13,1.91-3.53,2.43v.37c1.69.44,3.09,1.33,4.2,2.43,1.1,1.18,1.62,2.72,1.62,4.56s-.22,2.36-.74,3.39-1.18,1.99-2.13,2.72-2.13,1.33-3.46,1.77c-1.4.44-2.94.66-4.71.66h-.07ZM12.39,130.91c1.47,0,2.58-.37,3.31-1.03s1.18-1.55,1.18-2.72v-.81c0-1.18-.37-2.06-1.1-2.72-.74-.66-1.84-.96-3.39-.96s-2.58.29-3.39.96c-.74.66-1.1,1.55-1.1,2.72v.81c0,1.18.37,2.06,1.18,2.72s1.91,1.03,3.31,1.03ZM12.39,118.02c1.4,0,2.43-.29,3.17-.96.74-.66,1.1-1.55,1.1-2.58v-.66c0-1.1-.37-1.99-1.1-2.58-.74-.66-1.77-.96-3.17-.96s-2.43.29-3.17.96c-.74.66-1.1,1.47-1.1,2.58v.66c0,1.1.37,1.99,1.1,2.58.74.66,1.77.96,3.17.96Z"/>
  <path class="cls-1" d="M23.36,151.67c0,2.06-.29,4.05-.96,5.82-.66,1.84-1.47,3.53-2.5,5.08s-2.13,2.94-3.46,4.2c-1.25,1.25-2.5,2.28-3.83,3.09H3.92c1.84-1.25,3.46-2.5,4.86-3.61,1.47-1.18,2.72-2.36,3.75-3.46,1.1-1.18,1.99-2.36,2.65-3.61.66-1.25,1.18-2.58,1.47-3.98l-.37-.15c-.22.59-.59,1.1-.96,1.62s-.81,1.03-1.33,1.4c-.52.44-1.1.74-1.84.96s-1.55.37-2.5.37-2.36-.22-3.46-.66c-1.03-.44-1.99-1.03-2.72-1.84s-1.4-1.77-1.84-2.87-.66-2.36-.66-3.75.29-2.87.81-4.12,1.25-2.36,2.21-3.24c.96-.88,2.13-1.62,3.53-2.13,1.4-.52,2.87-.74,4.56-.74s3.31.29,4.71.81,2.58,1.33,3.53,2.36,1.69,2.21,2.21,3.68c.52,1.4.74,3.02.74,4.79h.07ZM12.24,154.61c1.4,0,2.58-.37,3.39-1.18.81-.74,1.25-1.91,1.25-3.31v-.59c0-1.47-.37-2.58-1.18-3.39s-1.91-1.18-3.39-1.18-2.65.37-3.46,1.18c-.81.81-1.18,1.91-1.18,3.39v.59c0,1.47.37,2.58,1.18,3.31s1.91,1.18,3.39,1.18Z"/>
  <path class="cls-1" d="M12.39,204.97c-3.9,0-6.77-1.33-8.69-3.98-1.84-2.65-2.8-6.4-2.8-11.19s.96-8.54,2.8-11.19,4.71-3.98,8.69-3.98,6.77,1.33,8.69,3.98c1.84,2.65,2.8,6.4,2.8,11.19s-.96,8.54-2.8,11.19-4.79,3.98-8.69,3.98ZM12.39,200.03c1.84,0,3.17-.66,3.9-1.99.74-1.33,1.1-3.17,1.1-5.52v-5.45c0-2.36-.37-4.2-1.1-5.52s-2.06-1.99-3.9-1.99-3.17.66-3.9,1.99c-.74,1.33-1.1,3.17-1.1,5.52v5.45c0,2.36.37,4.2,1.1,5.52s2.06,1.99,3.9,1.99Z"/>
  <path class="cls-1" d="M24.17,233.97v5.08H3.78v-5.08h7.88v-19.66h-.37l-5.96,7.8-4.05-3.17,6.99-9.2h9.64v24.22h6.26Z"/>
  <path class="cls-1" d="M23.06,268.35v5.3H2.01v-5.74l9.2-7.66c1.62-1.4,2.72-2.58,3.46-3.53.66-1.03,1.03-2.06,1.03-3.17v-.44c0-1.25-.37-2.13-1.1-2.8s-1.69-.96-2.94-.96-2.5.44-3.24,1.25c-.74.81-1.25,1.77-1.62,2.87l-5.52-2.13c.37-1.03.81-1.99,1.4-2.87.59-.88,1.33-1.69,2.21-2.36.88-.66,1.99-1.18,3.17-1.62,1.18-.44,2.58-.59,4.12-.59s3.02.22,4.27.66,2.36,1.03,3.17,1.84c.88.81,1.55,1.69,1.99,2.8.44,1.1.66,2.21.66,3.53s-.22,2.36-.59,3.39c-.44,1.03-.96,1.99-1.69,2.87-.74.88-1.55,1.77-2.5,2.58-.96.81-1.99,1.69-3.09,2.5l-5.59,4.34h14.13l.15-.07Z"/>
  <path class="cls-1" d="M8.49,290.58h2.8c1.62,0,2.8-.29,3.53-.96.74-.59,1.1-1.4,1.1-2.28v-.29c0-1.03-.37-1.91-1.1-2.5-.74-.66-1.69-.96-3.02-.96s-2.36.29-3.39.88-1.91,1.47-2.65,2.58l-3.98-3.68c.59-.74,1.18-1.4,1.84-1.99.66-.59,1.4-1.1,2.21-1.55.81-.44,1.69-.74,2.72-1.03,1.03-.22,2.21-.37,3.46-.37s3.02.15,4.34.52c1.25.37,2.36.88,3.31,1.55.88.66,1.62,1.47,2.13,2.43s.74,1.99.74,3.17-.15,1.77-.44,2.5c-.29.74-.74,1.4-1.25,1.99-.52.59-1.1,1.03-1.84,1.4-.66.37-1.4.59-2.21.74v.22c1.77.29,3.31,1.03,4.49,2.21s1.77,2.8,1.77,4.79-.29,2.5-.81,3.53c-.52,1.03-1.33,1.99-2.28,2.72s-2.21,1.33-3.61,1.77c-1.4.44-3.02.59-4.71.59s-2.8-.15-3.9-.44c-1.1-.29-2.13-.74-3.02-1.25s-1.62-1.1-2.21-1.84c-.66-.66-1.18-1.4-1.69-2.13l4.64-3.61c.66,1.18,1.47,2.21,2.43,2.94s2.28,1.18,3.9,1.18,2.65-.37,3.46-1.03c.81-.66,1.25-1.69,1.25-2.87v-.29c0-1.18-.44-2.13-1.4-2.72s-2.21-.88-3.83-.88h-2.72v-5.23l-.07.22Z"/>
  <path class="cls-1" d="M20.05,337.26v5.59h-6.04v-5.59H.83v-5.37l11.63-18.33h7.58v18.77h3.75v4.86h-3.75v.07ZM14.01,320.1h-.37l-7.73,12.29h8.1v-12.29Z"/>
</svg>