<?xml version="1.0" encoding="UTF-8"?>
<svg id="Layer_1" data-name="Layer 1" xmlns="http://www.w3.org/2000/svg" viewBox="0 0 5 70">
  <defs>
    <style>
      .cls-1 {
        fill: #171d21;
      }
    </style>
  </defs>
  <path class="cls-1" d="M2.46.67c.22,0,.45.04.68.13.22.08.43.22.62.42.19.19.33.46.45.79.11.33.17.76.17,1.26s-.05.92-.14,1.3-.22.7-.4.96c-.17.26-.38.46-.63.59-.25.13-.52.2-.83.2s-.58-.06-.82-.18c-.24-.12-.44-.29-.59-.51-.15-.22-.25-.47-.29-.76h.65c.06.25.18.46.35.62.18.16.41.25.7.25.42,0,.76-.19,1-.55.25-.37.37-.89.37-1.57h-.04c-.1.15-.22.28-.36.39-.14.11-.29.19-.46.25-.17.06-.35.09-.54.09-.31,0-.6-.08-.86-.23-.26-.16-.47-.37-.63-.65s-.23-.59-.23-.94.08-.65.23-.93c.15-.28.36-.5.64-.67.27-.17.6-.25.97-.24ZM2.46,1.26c-.23,0-.43.06-.61.17-.18.11-.32.26-.43.45-.1.19-.16.4-.16.63s.05.44.15.62c.1.19.24.33.42.44.18.11.38.17.6.17.17,0,.33-.03.47-.1.15-.07.27-.16.38-.28.11-.12.2-.25.26-.4.06-.15.09-.3.09-.47,0-.22-.05-.42-.15-.61s-.24-.34-.42-.46-.38-.17-.61-.17Z"/>
  <path class="cls-1" d="M2.5,13.33c-.37,0-.69-.07-.97-.2-.28-.13-.5-.31-.66-.54s-.23-.5-.23-.79c0-.23.04-.45.14-.64.09-.2.22-.36.38-.5.16-.13.34-.22.54-.25v-.03c-.26-.07-.47-.22-.63-.44-.16-.23-.23-.49-.23-.78,0-.28.07-.53.21-.75s.34-.39.59-.52c.25-.13.54-.19.86-.19s.6.06.85.19c.25.13.45.3.59.52.14.22.22.47.22.75,0,.29-.08.55-.24.78-.16.23-.36.38-.62.44v.03c.2.04.38.12.54.25.16.13.29.3.38.5s.14.41.14.64c0,.3-.08.56-.24.79s-.38.41-.66.54c-.28.13-.6.2-.97.2ZM2.5,12.74c.25,0,.46-.04.64-.12.18-.08.32-.19.42-.34.1-.15.15-.32.15-.51,0-.21-.06-.39-.16-.55-.11-.16-.25-.28-.43-.38-.18-.09-.39-.14-.62-.14s-.44.05-.63.14c-.18.09-.33.22-.43.38s-.16.34-.15.55c0,.2.05.37.14.51s.24.26.42.34c.18.08.4.12.65.12ZM2.5,10.13c.2,0,.37-.04.52-.12.15-.08.27-.19.36-.33.09-.14.13-.31.13-.5,0-.19-.05-.35-.13-.49-.09-.14-.21-.25-.36-.32-.15-.08-.33-.11-.53-.11s-.38.04-.54.11c-.15.08-.27.18-.36.32-.08.14-.12.3-.12.49,0,.19.04.35.13.5.09.14.21.25.36.33.15.08.33.12.53.12Z"/>
  <path class="cls-1" d="M1.08,20.25l2.46-4.86v-.04H.71v-.59h3.52v.62l-2.45,4.87h-.7Z"/>
  <path class="cls-1" d="M2.54,27.33c-.23,0-.45-.05-.68-.13-.23-.08-.43-.22-.62-.42-.19-.2-.33-.46-.45-.8s-.17-.76-.17-1.26.05-.92.14-1.3.22-.7.4-.96c.17-.26.38-.46.63-.59.25-.13.52-.2.83-.2s.58.06.82.19.44.29.59.51c.15.22.25.47.29.76h-.65c-.06-.25-.18-.46-.35-.62-.17-.16-.41-.25-.7-.25-.43,0-.76.19-1,.56-.24.37-.37.89-.37,1.57h.04c.1-.15.22-.28.36-.39.14-.11.29-.19.46-.25.17-.06.35-.09.53-.09.31,0,.6.08.86.23.26.16.47.37.63.65s.24.59.24.94-.08.65-.23.93c-.15.28-.37.5-.64.67-.27.17-.6.25-.97.24ZM2.54,26.74c.22,0,.43-.06.61-.17.18-.11.32-.26.43-.45s.16-.4.16-.63-.05-.43-.15-.62c-.1-.19-.24-.33-.42-.45-.18-.11-.38-.17-.6-.17-.17,0-.33.03-.47.1s-.28.16-.38.27c-.11.12-.2.25-.26.4s-.09.31-.09.47c0,.22.05.42.15.61.1.19.24.34.42.46s.38.17.61.17Z"/>
  <path class="cls-1" d="M2.49,34.33c-.31,0-.6-.06-.85-.19s-.45-.3-.61-.51c-.15-.22-.24-.47-.25-.75h.64c.03.25.14.45.34.62.2.16.44.24.72.24.23,0,.43-.05.6-.16.18-.11.31-.25.42-.44.1-.19.15-.39.15-.63s-.05-.45-.16-.64c-.1-.19-.25-.34-.43-.45-.18-.11-.39-.16-.62-.17-.17,0-.34.02-.52.08-.18.05-.32.12-.44.2l-.62-.08.33-2.7h2.85v.59H1.76l-.19,1.62h.03c.11-.09.25-.16.42-.22.17-.06.35-.09.53-.09.34,0,.64.08.9.24s.47.38.62.66c.15.28.23.59.23.95s-.08.66-.23.94c-.16.27-.37.49-.64.65s-.58.24-.93.24Z"/>
  <path class="cls-1" d="M.52,40.13v-.55l2.41-3.82h.4v.85h-.27l-1.82,2.88v.04h3.25v.59H.52ZM3.1,41.25v-5.49h.63v5.49h-.63Z"/>
  <path class="cls-1" d="M2.52,48.33c-.35,0-.67-.06-.95-.18-.28-.12-.5-.29-.66-.51-.16-.22-.25-.47-.26-.76h.68c.01.18.08.33.18.46.11.13.25.23.42.3.17.07.37.1.58.1.24,0,.45-.04.63-.12.18-.08.33-.2.43-.34s.16-.32.16-.51c0-.2-.05-.38-.15-.54-.1-.15-.25-.28-.44-.36-.19-.09-.43-.13-.71-.13h-.44v-.59h.44c.22,0,.41-.04.58-.12.17-.08.29-.19.39-.33s.14-.31.14-.5-.04-.35-.12-.49-.2-.25-.35-.32c-.15-.08-.33-.12-.53-.12-.19,0-.37.04-.54.1-.17.07-.3.17-.41.3s-.16.29-.17.47h-.64c.01-.29.1-.54.26-.76.16-.22.38-.39.64-.51.26-.12.55-.18.87-.18.34,0,.63.07.87.21s.43.32.56.54c.13.22.2.46.2.72,0,.31-.08.57-.24.79s-.38.37-.66.45v.04c.35.06.62.2.81.44.19.24.29.53.29.88,0,.3-.08.57-.24.8-.16.24-.38.42-.66.56-.28.14-.6.2-.95.2Z"/>
  <path class="cls-1" d="M.78,55.25v-.48l1.81-1.98c.21-.23.39-.43.53-.61.14-.17.24-.33.31-.49.07-.15.1-.31.1-.48,0-.19-.05-.36-.14-.5-.09-.14-.22-.25-.38-.33-.16-.08-.34-.12-.54-.12-.21,0-.39.04-.55.13-.16.09-.28.21-.36.36-.08.16-.13.34-.13.55h-.63c0-.32.07-.6.22-.85s.35-.43.61-.57.54-.2.86-.2.61.07.86.2c.25.14.44.32.58.55.14.23.21.49.21.77,0,.2-.04.4-.11.59-.07.19-.2.41-.38.64-.18.24-.42.52-.74.86l-1.23,1.32v.04h2.55v.59H.78Z"/>
  <path class="cls-1" d="M3.25,56.76v5.49h-.67v-4.79h-.03l-1.34.89v-.68l1.37-.91h.67Z"/>
  <path class="cls-1" d="M2.5,69.33c-.4,0-.75-.11-1.03-.33s-.5-.54-.65-.96-.23-.93-.23-1.53.08-1.1.23-1.52c.15-.42.37-.74.65-.97s.63-.33,1.03-.33.74.11,1.03.33.5.54.65.97.23.93.23,1.52-.08,1.11-.23,1.53c-.15.42-.37.74-.65.96s-.63.33-1.03.33ZM2.5,68.74c.4,0,.71-.19.93-.58s.33-.94.33-1.65c0-.48-.05-.88-.15-1.21s-.25-.59-.43-.76c-.19-.18-.42-.26-.68-.26-.4,0-.71.2-.93.59-.22.39-.34.94-.34,1.66,0,.48.05.88.15,1.21.1.33.24.58.43.76.19.17.42.26.68.26Z"/>
</svg>