<svg xmlns="http://www.w3.org/2000/svg" viewBox="0 0 200.71 115.27"><defs><style>.cls-1{fill:#fff;}</style></defs><title>Asset 1</title><g id="Layer_2" data-name="Layer 2"><g id="Layer_3" data-name="Layer 3"><path class="cls-1" d="M48.59.41H59V2.9H51.44V7.3h7.08V9.71H51.44v6.75H48.59Z"/><path class="cls-1" d="M72.62.41h2.47L82,16.46H78.75l-1.5-3.67h-7l-1.45,3.67h-3.2Zm3.63,9.93L73.78,3.81l-2.52,6.53Z"/><path class="cls-1" d="M90.83.41h2.86V13.92h6.83v2.54H90.83Z"/><path class="cls-1" d="M109.68.41h2.85V13.92h6.83v2.54h-9.68Z"/><path class="cls-1" d="M129.29.41h2.63L130,6.4h-2.29Z"/><path class="cls-1" d="M150.09,3.76a3.43,3.43,0,0,0-1.28-1,3.77,3.77,0,0,0-2.67-.27,3,3,0,0,0-.9.38,2.07,2.07,0,0,0-.67.68,1.84,1.84,0,0,0-.27,1,1.83,1.83,0,0,0,.23.93,2,2,0,0,0,.63.66,3.9,3.9,0,0,0,1,.47c.38.14.79.28,1.25.41s1,.36,1.59.57a5.91,5.91,0,0,1,1.52.84,4.24,4.24,0,0,1,1.14,1.31,4.08,4.08,0,0,1,.44,2,5,5,0,0,1-.48,2.25,4.47,4.47,0,0,1-1.27,1.6,5.15,5.15,0,0,1-1.85,1,7.6,7.6,0,0,1-2.25.32,8.35,8.35,0,0,1-3.06-.58,5.78,5.78,0,0,1-2.45-1.71l2-1.9A4.13,4.13,0,0,0,144.32,14a4.37,4.37,0,0,0,1.94.48,4.6,4.6,0,0,0,1-.13,2.66,2.66,0,0,0,.94-.42,2.3,2.3,0,0,0,.68-.74,2.16,2.16,0,0,0,.26-1.1,1.76,1.76,0,0,0-.3-1.05,2.66,2.66,0,0,0-.79-.73,5.89,5.89,0,0,0-1.18-.53l-1.43-.47c-.48-.16-1-.34-1.45-.55a4.68,4.68,0,0,1-1.3-.84,3.94,3.94,0,0,1-.94-1.28,4.27,4.27,0,0,1-.37-1.89,4.15,4.15,0,0,1,.51-2.11,4.47,4.47,0,0,1,1.34-1.46,5.89,5.89,0,0,1,1.88-.87A8.24,8.24,0,0,1,147.28,0a7.57,7.57,0,0,1,2.48.43A6.17,6.17,0,0,1,152,1.72Z"/><path class="cls-1" d="M58.05,33.21h4.47l4.17,11.41h.07l4.13-11.41h4.49v16H72.54V36.36h0l-4.88,12.9h-2l-4.81-12.9h0v12.9H58.05Z"/><path class="cls-1" d="M85.38,41.19A9,9,0,0,1,86,37.71a7.6,7.6,0,0,1,1.8-2.64,7.79,7.79,0,0,1,2.72-1.68A9.76,9.76,0,0,1,94,32.8a10,10,0,0,1,3.47.59,7.92,7.92,0,0,1,2.75,1.68,7.46,7.46,0,0,1,1.8,2.64,9,9,0,0,1,.65,3.48,8.9,8.9,0,0,1-.65,3.44,8,8,0,0,1-1.8,2.67,8.24,8.24,0,0,1-2.75,1.75,9.51,9.51,0,0,1-3.47.62,9.34,9.34,0,0,1-3.43-.62A8,8,0,0,1,86,44.63,8.89,8.89,0,0,1,85.38,41.19Zm3.11,0a6.93,6.93,0,0,0,.39,2.37A5.47,5.47,0,0,0,90,45.43a5.27,5.27,0,0,0,1.74,1.24,5.6,5.6,0,0,0,2.24.44,5.67,5.67,0,0,0,2.24-.44A5.25,5.25,0,0,0,98,45.43a5.45,5.45,0,0,0,1.13-1.87,6.7,6.7,0,0,0,.4-2.37,6.44,6.44,0,0,0-.4-2.31A5.64,5.64,0,0,0,98,37a5.14,5.14,0,0,0-1.75-1.25A5.53,5.53,0,0,0,94,35.32a5.46,5.46,0,0,0-2.26.45A5.3,5.3,0,0,0,90,37a5.81,5.81,0,0,0-1.12,1.86A6.67,6.67,0,0,0,88.49,41.19Z"/><path class="cls-1" d="M120.85,36.57a3.39,3.39,0,0,0-1.29-1,3.72,3.72,0,0,0-1.66-.4,3.76,3.76,0,0,0-1,.13,3.07,3.07,0,0,0-.91.38,2.29,2.29,0,0,0-.67.68,1.92,1.92,0,0,0-.26,1,1.81,1.81,0,0,0,.23.93,2.05,2.05,0,0,0,.62.66,4.61,4.61,0,0,0,1,.48c.37.13.79.27,1.24.4s1,.36,1.6.57a6.08,6.08,0,0,1,1.52.84,4.29,4.29,0,0,1,1.14,1.32,4,4,0,0,1,.44,2,5,5,0,0,1-.48,2.25,4.58,4.58,0,0,1-1.27,1.6,5.47,5.47,0,0,1-1.86,1,7.87,7.87,0,0,1-2.24.31,8.27,8.27,0,0,1-3.06-.58,5.78,5.78,0,0,1-2.45-1.71l2-1.9a4.17,4.17,0,0,0,1.57,1.29,4.44,4.44,0,0,0,1.94.48,4,4,0,0,0,1-.13,2.51,2.51,0,0,0,.94-.42,2.33,2.33,0,0,0,.69-.74,2.14,2.14,0,0,0,.26-1.09,1.77,1.77,0,0,0-.3-1.06,2.79,2.79,0,0,0-.79-.73,5.89,5.89,0,0,0-1.18-.53l-1.43-.47c-.48-.16-1-.34-1.45-.55a4.73,4.73,0,0,1-1.31-.84,4.09,4.09,0,0,1-.94-1.28,4.39,4.39,0,0,1-.36-1.89,4.15,4.15,0,0,1,.51-2.11A4.47,4.47,0,0,1,114,34a5.89,5.89,0,0,1,1.88-.87A8.61,8.61,0,0,1,118,32.8a7.86,7.86,0,0,1,2.49.43,6.26,6.26,0,0,1,2.19,1.29Z"/><path class="cls-1" d="M135.81,35.7h-4.92V33.21h12.7V35.7h-4.92V49.26h-2.86Z"/><path class="cls-1" d="M2.85,66H8.42a10,10,0,0,1,2.2.24,5.76,5.76,0,0,1,1.9.78,4,4,0,0,1,1.32,1.43,4.25,4.25,0,0,1,.5,2.15,4.13,4.13,0,0,1-1,2.85,5,5,0,0,1-2.69,1.48L15,82.06H11.51l-3.72-6.8H5.7v6.8H2.85ZM8,72.93a7.09,7.09,0,0,0,1.22-.1,3.63,3.63,0,0,0,1.1-.33,2.16,2.16,0,0,0,.81-.72,2.09,2.09,0,0,0,.32-1.19,1.81,1.81,0,0,0-.3-1.08,2.2,2.2,0,0,0-.75-.67,3.2,3.2,0,0,0-1-.34,7.24,7.24,0,0,0-1.12-.09H5.7v4.52Z"/><path class="cls-1" d="M24.34,66H35V68.5H27.2v4.08h7.37V75H27.2v4.53h8.19v2.54h-11Z"/><path class="cls-1" d="M43.8,66h3.13L50,77.8h0L53.62,66h3L60,77.8h0L63.26,66h3l-4.7,16H58.83L55.07,70h0l-3.77,12H48.49Z"/><path class="cls-1" d="M80.22,66h2.47l6.92,16H86.34l-1.49-3.67h-7l-1.45,3.67h-3.2Zm3.63,9.93-2.47-6.53-2.52,6.53Z"/><path class="cls-1" d="M98.43,66H104a10,10,0,0,1,2.2.24,5.71,5.71,0,0,1,1.89.78,4.15,4.15,0,0,1,1.33,1.43,4.35,4.35,0,0,1,.5,2.15,4.09,4.09,0,0,1-1,2.85,4.93,4.93,0,0,1-2.69,1.48l4.29,7.12h-3.45l-3.72-6.8h-2.08v6.8H98.43Zm5.19,6.92a7.29,7.29,0,0,0,1.23-.1,3.81,3.81,0,0,0,1.1-.33,2.21,2.21,0,0,0,.8-.72,2.09,2.09,0,0,0,.32-1.19,1.81,1.81,0,0,0-.3-1.08,2.17,2.17,0,0,0-.74-.67,3.35,3.35,0,0,0-1-.34,7.24,7.24,0,0,0-1.12-.09h-2.58v4.52Z"/><path class="cls-1" d="M120,66h5.69a12.67,12.67,0,0,1,3.15.41,8.11,8.11,0,0,1,2.86,1.35,7,7,0,0,1,2.06,2.47,8.19,8.19,0,0,1,.8,3.8,7.78,7.78,0,0,1-.8,3.63,7.4,7.4,0,0,1-2.06,2.49,8.66,8.66,0,0,1-2.86,1.44,11.12,11.12,0,0,1-3.15.46H120Zm5.24,13.56a9.89,9.89,0,0,0,2.22-.26,5.7,5.7,0,0,0,2-.89,4.71,4.71,0,0,0,1.46-1.68,5.71,5.71,0,0,0,.57-2.7,6.1,6.1,0,0,0-.57-2.82,4.7,4.7,0,0,0-1.46-1.7,5.79,5.79,0,0,0-2-.84,11.14,11.14,0,0,0-2.22-.22h-2.38V79.57Z"/><path class="cls-1" d="M144.53,66h2.86v16h-2.86Z"/><path class="cls-1" d="M158.18,66H162l7.46,12h0V66h2.85v16h-3.62l-7.62-12.4H161v12.4h-2.86Z"/><path class="cls-1" d="M197.19,81.23a12.69,12.69,0,0,1-2.69.91,15.39,15.39,0,0,1-3.37.33,9.93,9.93,0,0,1-3.56-.62,8.18,8.18,0,0,1-2.76-1.75A7.85,7.85,0,0,1,183,77.43a8.89,8.89,0,0,1-.64-3.44,8.67,8.67,0,0,1,.67-3.48,7.53,7.53,0,0,1,1.83-2.64,8.06,8.06,0,0,1,2.76-1.68,9.86,9.86,0,0,1,3.44-.59,10.67,10.67,0,0,1,3.53.56,7.18,7.18,0,0,1,2.58,1.46l-2,2.13a5,5,0,0,0-1.71-1.16,6.07,6.07,0,0,0-2.39-.47,5.65,5.65,0,0,0-2.3.45A5.08,5.08,0,0,0,187,69.82a5.47,5.47,0,0,0-1.12,1.86,6.44,6.44,0,0,0-.4,2.31,6.7,6.7,0,0,0,.4,2.37A5.45,5.45,0,0,0,187,78.23a5.18,5.18,0,0,0,1.79,1.24,6.21,6.21,0,0,0,2.39.44,8.24,8.24,0,0,0,3.2-.57V75.26H191V72.9h6.15Z"/><path class="cls-1" d="M0,98.81H10.64v2.49H2.86v4.08h7.37v2.41H2.86v4.53H11v2.54H0Z"/><path class="cls-1" d="M25,106.29l-5-7.48h3.44l3.32,5.49L30,98.81h3.29l-4.9,7.55,5.76,8.5h-3.6l-3.93-6.3-3.76,6.3H19.41Z"/><path class="cls-1" d="M43.27,98.81h5.24a11.16,11.16,0,0,1,2.49.25,5.1,5.1,0,0,1,1.91.82,3.83,3.83,0,0,1,1.22,1.45,4.79,4.79,0,0,1,.43,2.13,4.61,4.61,0,0,1-.5,2.24,4.06,4.06,0,0,1-1.35,1.47,6,6,0,0,1-2,.8,11,11,0,0,1-2.41.25h-2.2v6.64H43.27Zm4.85,7a8.26,8.26,0,0,0,1.34-.11,3.33,3.33,0,0,0,1.13-.36,2.11,2.11,0,0,0,.8-.71,2.22,2.22,0,0,0,.29-1.18,1.87,1.87,0,0,0-1.08-1.84,3.36,3.36,0,0,0-1.11-.33,10.6,10.6,0,0,0-1.28-.08H46.12v4.61Z"/><path class="cls-1" d="M64.36,98.81H75v2.49H67.21v4.08h7.37v2.41H67.21v4.53H75.4v2.54h-11Z"/><path class="cls-1" d="M85.45,98.81H91a10,10,0,0,1,2.2.24,5.76,5.76,0,0,1,1.9.78,4,4,0,0,1,1.32,1.43,4.25,4.25,0,0,1,.5,2.15,4.13,4.13,0,0,1-1,2.85,5,5,0,0,1-2.69,1.48l4.29,7.12H94.11l-3.72-6.8H88.3v6.8H85.45Zm5.19,6.92a7.09,7.09,0,0,0,1.22-.1,3.38,3.38,0,0,0,1.1-.34,2.05,2.05,0,0,0,.81-.71,2.09,2.09,0,0,0,.32-1.19,1.81,1.81,0,0,0-.3-1.08,2.3,2.3,0,0,0-.75-.67,3.2,3.2,0,0,0-1-.34,7.24,7.24,0,0,0-1.12-.09H88.3v4.52Z"/><path class="cls-1" d="M107,98.81h2.85v16H107Z"/><path class="cls-1" d="M120.62,98.81h10.63v2.49h-7.78v4.08h7.37v2.41h-7.37v4.53h8.19v2.54h-11Z"/><path class="cls-1" d="M141.71,98.81h3.78l7.47,12h0v-12h2.86v16h-3.63l-7.62-12.4h-.05v12.4h-2.85Z"/><path class="cls-1" d="M178.24,102.57a3.73,3.73,0,0,0-1.66-1.26,5.61,5.61,0,0,0-4.26.06,5.28,5.28,0,0,0-1.76,1.25,5.5,5.5,0,0,0-1.13,1.86,6.67,6.67,0,0,0-.4,2.31,7.12,7.12,0,0,0,.39,2.41,5.54,5.54,0,0,0,1.1,1.87,5,5,0,0,0,1.71,1.21,5.57,5.57,0,0,0,2.25.43,5,5,0,0,0,2.29-.51,4.53,4.53,0,0,0,1.61-1.35l2.29,1.61a7.46,7.46,0,0,1-2.61,2.08,8.31,8.31,0,0,1-3.61.73,9.46,9.46,0,0,1-3.46-.62,7.8,7.8,0,0,1-4.47-4.42,8.89,8.89,0,0,1-.64-3.44,8.67,8.67,0,0,1,.67-3.48,7.69,7.69,0,0,1,1.84-2.64A8,8,0,0,1,171.14,99a9.92,9.92,0,0,1,3.45-.59,9.19,9.19,0,0,1,1.61.15,8.72,8.72,0,0,1,1.61.45,8.33,8.33,0,0,1,1.45.76,4.82,4.82,0,0,1,1.16,1.09Z"/><path class="cls-1" d="M189.67,98.81H200.3v2.49h-7.77v4.08h7.37v2.41h-7.37v4.53h8.18v2.54h-11Z"/></g></g></svg>