<svg xmlns="http://www.w3.org/2000/svg" viewBox="0 0 210 40"><defs><style>.cls-1{fill:#fff;}.cls-2{fill:#76aba8;}</style></defs><title>cta-hover</title><g id="Layer_2" data-name="Layer 2"><g id="Layer_3" data-name="Layer 3"><rect class="cls-1" width="210" height="40"/><path class="cls-2" d="M25,17.37a2.58,2.58,0,0,0-2-.94,3.22,3.22,0,0,0-3.25,3.39A3.26,3.26,0,0,0,23,23.35a2.65,2.65,0,0,0,2.13-1.16l1.4,1A4.21,4.21,0,0,1,23,24.87a4.75,4.75,0,0,1-5-4.94,4.78,4.78,0,0,1,5-5,4.1,4.1,0,0,1,3.32,1.51Z"/><path class="cls-2" d="M27.55,14.5h1.6V24.63h-1.6Z"/><path class="cls-2" d="M31.82,15.05a1,1,0,1,1-1,1A1,1,0,0,1,31.82,15.05ZM31,18.2h1.61v6.43H31Z"/><path class="cls-2" d="M38.88,20.13a1.78,1.78,0,0,0-1.22-.64,1.93,1.93,0,0,0,0,3.86,1.53,1.53,0,0,0,1.24-.61L40,23.89a3.64,3.64,0,0,1-2.32.9,3.38,3.38,0,1,1,0-6.75A3.12,3.12,0,0,1,40,19Z"/><path class="cls-2" d="M40.94,14.5h1.61v6.37L45,18.2h2.06l-2.76,2.92,2.93,3.51H45.14l-2.56-3.28h0v3.28H40.94Z"/><path class="cls-2" d="M51.35,19.57V18.2h1.33V16.34h1.6V18.2h1.77v1.37H54.28v2.81c0,.64.19,1.05.9,1.05a1.75,1.75,0,0,0,.87-.2v1.35a3.39,3.39,0,0,1-1.27.21c-1.7,0-2.1-.76-2.1-2.28V19.57Z"/><path class="cls-2" d="M60.49,18A3.38,3.38,0,1,1,57,21.42,3.33,3.33,0,0,1,60.49,18Zm0,5.31a1.93,1.93,0,1,0-1.89-1.93A1.86,1.86,0,0,0,60.49,23.35Z"/><path class="cls-2" d="M72.88,20a1.45,1.45,0,0,0-1.26-.65c-.43,0-.94.2-.94.68,0,1.15,3.47.21,3.47,2.72,0,1.53-1.46,2.06-2.77,2.06a3.15,3.15,0,0,1-2.51-1l1.07-1a2,2,0,0,0,1.53.79c.47,0,1.07-.23,1.07-.74,0-1.33-3.47-.28-3.47-2.73,0-1.44,1.29-2.08,2.59-2.08A2.78,2.78,0,0,1,74,19Z"/><path class="cls-2" d="M74.65,19.57V18.2H76V16.34h1.61V18.2h1.77v1.37H77.58v2.81c0,.64.19,1.05.9,1.05a1.75,1.75,0,0,0,.87-.2v1.35a3.42,3.42,0,0,1-1.27.21c-1.7,0-2.11-.76-2.11-2.28V19.57Z"/><path class="cls-2" d="M84.63,23.75h0a2.33,2.33,0,0,1-2.07,1,2.08,2.08,0,0,1-2.34-1.93c0-2.09,2.44-2.23,4-2.23h.4v-.18c0-.79-.62-1.2-1.48-1.2a2.48,2.48,0,0,0-1.71.67l-.85-.85a3.79,3.79,0,0,1,2.74-1c2.74,0,2.74,2,2.74,2.89v3.7H84.63Zm-.1-2H84.2c-.89,0-2.41.07-2.41,1,0,.59.6.85,1.12.85,1.1,0,1.62-.58,1.62-1.48Z"/><path class="cls-2" d="M87.8,18.2h1.61v1h0A2,2,0,0,1,91.34,18a2.12,2.12,0,0,1,.57.09v1.56a3,3,0,0,0-.77-.12,1.61,1.61,0,0,0-1.73,1.62v3.44H87.8Z"/><path class="cls-2" d="M92.26,19.57V18.2h1.33V16.34H95.2V18.2H97v1.37H95.2v2.81c0,.64.18,1.05.89,1.05a1.79,1.79,0,0,0,.88-.2v1.35a3.44,3.44,0,0,1-1.28.21c-1.7,0-2.1-.76-2.1-2.28V19.57Z"/><path class="cls-2" d="M101.32,18.2h1.77l1.79,4.46h0l1.61-4.46h1.67l-3,7.81a2.32,2.32,0,0,1-2.45,1.84,5.06,5.06,0,0,1-1.23-.16l.2-1.45a2.43,2.43,0,0,0,.81.16c.79,0,1-.28,1.28-.95l.31-.76Z"/><path class="cls-2" d="M112.32,18a3.38,3.38,0,1,1-3.5,3.38A3.33,3.33,0,0,1,112.32,18Zm0,5.31a1.93,1.93,0,1,0-1.89-1.93A1.86,1.86,0,0,0,112.32,23.35Z"/><path class="cls-2" d="M123.18,24.63h-1.53v-1h0a2,2,0,0,1-2,1.19,2.24,2.24,0,0,1-2.35-2.53V18.2h1.61v3.26c0,.71.06,1.89,1.18,1.89a1.44,1.44,0,0,0,1.47-1.64V18.2h1.61Z"/><path class="cls-2" d="M125,18.2h1.61v1h0a2,2,0,0,1,1.9-1.18,2.26,2.26,0,0,1,.58.09v1.56a3.15,3.15,0,0,0-.78-.12,1.62,1.62,0,0,0-1.73,1.62v3.44H125Z"/><path class="cls-2" d="M138.57,20.13a1.76,1.76,0,0,0-1.22-.64,1.93,1.93,0,0,0,0,3.86,1.54,1.54,0,0,0,1.25-.61l1.07,1.15a3.6,3.6,0,0,1-2.32.9,3.38,3.38,0,1,1,0-6.75,3.14,3.14,0,0,1,2.34,1Z"/><path class="cls-2" d="M143.81,18a3.38,3.38,0,1,1-3.49,3.38A3.34,3.34,0,0,1,143.81,18Zm0,5.31a1.93,1.93,0,1,0-1.89-1.93A1.86,1.86,0,0,0,143.81,23.35Z"/><path class="cls-2" d="M148.83,14.5h1.61V24.63h-1.61Z"/><path class="cls-2" d="M152.32,14.5h1.61V24.63h-1.61Z"/><path class="cls-2" d="M157.06,22a1.67,1.67,0,0,0,1.73,1.53,2.13,2.13,0,0,0,1.73-.87l1.15.87A3.44,3.44,0,1,1,159,18c1.8,0,3,1.26,3,3.5V22Zm3.3-1.21a1.48,1.48,0,0,0-1.64-1.52,1.6,1.6,0,0,0-1.66,1.52Z"/><path class="cls-2" d="M167.86,20.13a1.78,1.78,0,0,0-1.22-.64,1.93,1.93,0,0,0,0,3.86,1.55,1.55,0,0,0,1.25-.61L169,23.89a3.64,3.64,0,0,1-2.32.9,3.38,3.38,0,1,1,0-6.75A3.12,3.12,0,0,1,169,19Z"/><path class="cls-2" d="M169.17,19.57V18.2h1.33V16.34h1.61V18.2h1.76v1.37h-1.76v2.81c0,.64.18,1.05.89,1.05a1.75,1.75,0,0,0,.87-.2v1.35a3.36,3.36,0,0,1-1.27.21c-1.7,0-2.1-.76-2.1-2.28V19.57Z"/><path class="cls-2" d="M176,15.05a1,1,0,1,1-1,1A1,1,0,0,1,176,15.05Zm-.79,3.15h1.61v6.43h-1.61Z"/><path class="cls-2" d="M181.79,18a3.38,3.38,0,1,1-3.5,3.38A3.34,3.34,0,0,1,181.79,18Zm0,5.31a1.93,1.93,0,1,0-1.89-1.93A1.86,1.86,0,0,0,181.79,23.35Z"/><path class="cls-2" d="M186.79,18.2h1.53v1h0a2,2,0,0,1,2-1.19,2.24,2.24,0,0,1,2.35,2.53v4.06h-1.61V21.38c0-.71-.06-1.89-1.18-1.89a1.43,1.43,0,0,0-1.47,1.63v3.51h-1.61Z"/></g></g></svg>