<svg xmlns="http://www.w3.org/2000/svg" viewBox="0 0 174.68 13.34"><defs><style>.cls-1{fill:#fff;}</style></defs><title>cta</title><g id="Layer_2" data-name="Layer 2"><g id="Layer_3" data-name="Layer 3"><path class="cls-1" d="M7,2.87a2.58,2.58,0,0,0-2-.94A3.22,3.22,0,0,0,1.77,5.32,3.25,3.25,0,0,0,5,8.84,2.67,2.67,0,0,0,7.15,7.69l1.4,1A4.21,4.21,0,0,1,5,10.37,4.75,4.75,0,0,1,0,5.43a4.78,4.78,0,0,1,5-5A4.12,4.12,0,0,1,8.33,1.9Z"/><path class="cls-1" d="M9.57,0h1.6V10.13H9.57Z"/><path class="cls-1" d="M13.84.55a1,1,0,0,1,1,1,1,1,0,0,1-2.06,0A1,1,0,0,1,13.84.55ZM13.05,3.7h1.61v6.43H13.05Z"/><path class="cls-1" d="M20.9,5.63A1.79,1.79,0,0,0,19.68,5a1.86,1.86,0,0,0-1.89,1.93,1.86,1.86,0,0,0,1.89,1.93,1.53,1.53,0,0,0,1.24-.6L22,9.39a3.64,3.64,0,0,1-2.32.9,3.34,3.34,0,0,1-3.5-3.38,3.33,3.33,0,0,1,3.5-3.37,3.12,3.12,0,0,1,2.33,1Z"/><path class="cls-1" d="M23,0h1.61V6.36L27.05,3.7h2.06L26.35,6.62l2.93,3.51H27.16L24.6,6.85h0v3.28H23Z"/><path class="cls-1" d="M33.37,5.06V3.7H34.7V1.84h1.6V3.7h1.77V5.06H36.3V7.88c0,.64.19,1,.9,1a1.65,1.65,0,0,0,.87-.2v1.36a3.39,3.39,0,0,1-1.27.21c-1.7,0-2.1-.76-2.1-2.28V5.06Z"/><path class="cls-1" d="M42.51,3.54A3.33,3.33,0,0,1,46,6.91a3.5,3.5,0,0,1-7,0A3.33,3.33,0,0,1,42.51,3.54Zm0,5.3A1.86,1.86,0,0,0,44.4,6.91a1.89,1.89,0,1,0-3.78,0A1.86,1.86,0,0,0,42.51,8.84Z"/><path class="cls-1" d="M54.9,5.48a1.46,1.46,0,0,0-1.26-.66c-.43,0-.94.2-.94.69,0,1.15,3.47.21,3.47,2.72,0,1.52-1.46,2.06-2.77,2.06a3.15,3.15,0,0,1-2.51-1l1.07-1a2,2,0,0,0,1.53.79c.47,0,1.07-.22,1.07-.73,0-1.33-3.47-.28-3.47-2.74,0-1.43,1.29-2.07,2.59-2.07a2.78,2.78,0,0,1,2.29,1Z"/><path class="cls-1" d="M56.67,5.06V3.7H58V1.84H59.6V3.7h1.77V5.06H59.6V7.88c0,.64.19,1,.9,1a1.65,1.65,0,0,0,.87-.2v1.36a3.42,3.42,0,0,1-1.27.21C58.4,10.29,58,9.53,58,8V5.06Z"/><path class="cls-1" d="M66.65,9.25h0a2.33,2.33,0,0,1-2.07,1A2.09,2.09,0,0,1,62.2,8.36c0-2.09,2.44-2.24,4-2.24h.4V6c0-.79-.62-1.21-1.48-1.21a2.53,2.53,0,0,0-1.71.67l-.85-.84a3.79,3.79,0,0,1,2.74-1c2.74,0,2.74,2,2.74,2.89v3.7H66.65Zm-.1-2h-.33c-.89,0-2.41.07-2.41,1,0,.59.6.84,1.12.84,1.1,0,1.62-.57,1.62-1.47Z"/><path class="cls-1" d="M69.82,3.7h1.61v1h0a2,2,0,0,1,1.9-1.18,2.12,2.12,0,0,1,.57.09V5.19a3,3,0,0,0-.77-.13,1.62,1.62,0,0,0-1.73,1.63v3.44H69.82Z"/><path class="cls-1" d="M74.28,5.06V3.7h1.33V1.84h1.61V3.7H79V5.06H77.22V7.88c0,.64.18,1,.89,1a1.68,1.68,0,0,0,.88-.2v1.36a3.44,3.44,0,0,1-1.28.21c-1.7,0-2.1-.76-2.1-2.28V5.06Z"/><path class="cls-1" d="M83.34,3.7h1.77L86.9,8.16h0L88.54,3.7h1.67l-3,7.81a2.32,2.32,0,0,1-2.45,1.83,4.61,4.61,0,0,1-1.23-.16l.2-1.44a2.43,2.43,0,0,0,.81.16c.79,0,1-.28,1.28-1l.3-.77Z"/><path class="cls-1" d="M94.34,3.54a3.33,3.33,0,0,1,3.49,3.37,3.5,3.5,0,0,1-7,0A3.33,3.33,0,0,1,94.34,3.54Zm0,5.3a1.86,1.86,0,0,0,1.89-1.93,1.89,1.89,0,1,0-3.78,0A1.86,1.86,0,0,0,94.34,8.84Z"/><path class="cls-1" d="M105.2,10.13h-1.53v-1h0a2,2,0,0,1-2,1.19,2.24,2.24,0,0,1-2.35-2.53V3.7h1.61V7c0,.71.06,1.89,1.18,1.89a1.43,1.43,0,0,0,1.47-1.63V3.7h1.61Z"/><path class="cls-1" d="M107,3.7h1.61v1h0a2,2,0,0,1,1.9-1.18,2.26,2.26,0,0,1,.58.09V5.19a3.18,3.18,0,0,0-.78-.13,1.63,1.63,0,0,0-1.73,1.63v3.44H107Z"/><path class="cls-1" d="M120.59,5.63A1.77,1.77,0,0,0,119.37,5a1.86,1.86,0,0,0-1.88,1.93,1.86,1.86,0,0,0,1.88,1.93,1.53,1.53,0,0,0,1.25-.6l1.07,1.15a3.6,3.6,0,0,1-2.32.9,3.33,3.33,0,0,1-3.49-3.38,3.33,3.33,0,0,1,3.49-3.37,3.14,3.14,0,0,1,2.34,1Z"/><path class="cls-1" d="M125.83,3.54a3.33,3.33,0,0,1,3.5,3.37,3.5,3.5,0,0,1-7,0A3.33,3.33,0,0,1,125.83,3.54Zm0,5.3a1.86,1.86,0,0,0,1.89-1.93,1.89,1.89,0,1,0-3.78,0A1.86,1.86,0,0,0,125.83,8.84Z"/><path class="cls-1" d="M130.85,0h1.61V10.13h-1.61Z"/><path class="cls-1" d="M134.34,0H136V10.13h-1.61Z"/><path class="cls-1" d="M139.08,7.48A1.66,1.66,0,0,0,140.81,9a2.11,2.11,0,0,0,1.73-.87l1.15.87a3.51,3.51,0,0,1-6.22-2.09A3.33,3.33,0,0,1,141,3.54c1.8,0,3,1.26,3,3.49v.45Zm3.3-1.21a1.49,1.49,0,0,0-1.64-1.53,1.6,1.6,0,0,0-1.66,1.53Z"/><path class="cls-1" d="M149.88,5.63A1.79,1.79,0,0,0,148.66,5a1.86,1.86,0,0,0-1.89,1.93,1.86,1.86,0,0,0,1.89,1.93,1.54,1.54,0,0,0,1.25-.6L151,9.39a3.64,3.64,0,0,1-2.32.9,3.34,3.34,0,0,1-3.5-3.38,3.33,3.33,0,0,1,3.5-3.37,3.12,3.12,0,0,1,2.33,1Z"/><path class="cls-1" d="M151.19,5.06V3.7h1.33V1.84h1.61V3.7h1.76V5.06h-1.76V7.88c0,.64.18,1,.89,1a1.65,1.65,0,0,0,.87-.2v1.36a3.36,3.36,0,0,1-1.27.21c-1.7,0-2.1-.76-2.1-2.28V5.06Z"/><path class="cls-1" d="M158,.55a1,1,0,0,1,1,1,1,1,0,0,1-2.06,0A1,1,0,0,1,158,.55Zm-.79,3.15h1.61v6.43h-1.61Z"/><path class="cls-1" d="M163.81,3.54a3.33,3.33,0,0,1,3.5,3.37,3.5,3.5,0,0,1-7,0A3.33,3.33,0,0,1,163.81,3.54Zm0,5.3a1.86,1.86,0,0,0,1.89-1.93,1.89,1.89,0,1,0-3.78,0A1.86,1.86,0,0,0,163.81,8.84Z"/><path class="cls-1" d="M168.81,3.7h1.52v1h0a2,2,0,0,1,2-1.19,2.24,2.24,0,0,1,2.35,2.53v4.06h-1.61V6.87c0-.71-.06-1.89-1.18-1.89a1.44,1.44,0,0,0-1.47,1.64v3.51h-1.61Z"/></g></g></svg>