<?xml version="1.0" encoding="utf-8"?>
<!-- Generator: Adobe Illustrator 26.0.3, SVG Export Plug-In . SVG Version: 6.00 Build 0)  -->
<svg version="1.1" id="Layer_1" xmlns="http://www.w3.org/2000/svg" xmlns:xlink="http://www.w3.org/1999/xlink" x="0px" y="0px"
	 viewBox="0 0 300 600" style="enable-background:new 0 0 300 600;" xml:space="preserve">
<style type="text/css">
	.st0{fill:#FFFFFF;}
</style>
<g>
	<g>
		<path class="st0" d="M43.1,82.3h-4v9.1h-5.4V66h11.9c5.3,0,8.5,3.5,8.5,8.2c0,4.5-2.8,6.9-5.6,7.6l5.7,9.7h-6.2L43.1,82.3z
			 M44.8,70.7h-5.7v7h5.7c1.9,0.3,3.7-1.1,4-3c0.3-1.9-1.1-3.7-3-4C45.5,70.6,45.2,70.6,44.8,70.7z"/>
		<path class="st0" d="M65.4,72.6c5.5,0,9.2,4.1,9.2,10.2v1.1H61c0.4,2.6,2.7,4.5,5.3,4.3c1.8,0,3.6-0.7,4.9-1.8l2.1,3.1
			c-2.1,1.7-4.8,2.6-7.6,2.6c-5.6,0-9.8-3.8-9.8-9.7c-0.1-5.2,3.9-9.5,9.1-9.7C65.2,72.6,65.3,72.6,65.4,72.6z M60.9,80.5H70
			c-0.1-2.4-2.1-4.2-4.4-4.1c0,0-0.1,0-0.1,0C63.1,76.3,61.1,78.1,60.9,80.5z"/>
		<path class="st0" d="M89.2,89.5c-1.5,1.6-3.6,2.5-5.8,2.4c-2.9,0-6.4-2-6.4-6.1c0-4.3,3.5-5.9,6.4-5.9c2.2-0.1,4.3,0.7,5.8,2.2
			v-2.6c0-1.9-1.6-3.1-4-3.1c-2,0-3.9,0.8-5.4,2.2L78,75.5c2.2-1.9,5.1-2.9,8-2.9c4.2,0,8,1.7,8,7v11.9h-4.8V89.5z M89.2,84.7
			c-1-1.1-2.4-1.7-3.9-1.6c-1.9,0-3.5,1-3.5,2.8s1.6,2.7,3.5,2.7c1.5,0.1,2.9-0.5,3.9-1.6V84.7z"/>
		<path class="st0" d="M107.5,72.6c2.8-0.2,5.6,1.1,7.3,3.3l-3.2,3c-0.9-1.3-2.3-2.1-3.9-2c-2.9,0-5,2.1-5,5.3s2.1,5.4,5,5.4
			c1.6,0,3-0.7,3.9-2l3.2,2.9c-1.2,1.7-3.5,3.4-7.3,3.4c-5.3,0.2-9.8-4-10-9.4s4-9.8,9.4-10C107.1,72.5,107.3,72.5,107.5,72.6
			L107.5,72.6z"/>
		<path class="st0" d="M130.4,80.2c0-2.6-1.3-3.3-3.4-3.3c-1.7,0-3.2,0.8-4.2,2.2v12.4h-4.8V66h4.8v9.4c1.6-1.8,4-2.9,6.5-2.9
			c4.1,0,6,2.2,6,5.8v13.1h-4.8L130.4,80.2z"/>
		<path class="st0" d="M150.8,86.9v-9.6h-3.1V73h3.1v-5h4.9v5h3.7v4.2h-3.7v8.3c0,1.1,0.6,2,1.7,2c0.6,0,1.2-0.2,1.7-0.5l1,3.7
			c-1.2,0.9-2.6,1.3-4,1.2C152.6,91.9,150.8,90.2,150.8,86.9z"/>
		<path class="st0" d="M175.2,80.2c0-2.6-1.3-3.3-3.4-3.3c-1.7,0-3.2,0.8-4.2,2.2v12.4h-4.8V66h4.8v9.4c1.6-1.8,4-2.9,6.5-2.9
			c4.1,0,6,2.2,6,5.8v13.1h-4.8L175.2,80.2z"/>
		<path class="st0" d="M193.2,72.6c5.5,0,9.2,4.1,9.2,10.2v1.1h-13.7c0.4,2.6,2.7,4.5,5.3,4.3c1.8,0,3.6-0.7,4.9-1.8l2.1,3.1
			c-2.1,1.7-4.8,2.6-7.6,2.6c-5.6,0-9.8-3.8-9.8-9.7c-0.1-5.2,3.9-9.5,9.1-9.7C193,72.6,193.1,72.6,193.2,72.6z M188.7,80.5h9.1
			c-0.1-2.4-2.1-4.2-4.5-4.1c0,0,0,0-0.1,0C190.9,76.3,188.9,78.1,188.7,80.5L188.7,80.5z"/>
	</g>
</g>
</svg>
