<?xml version="1.0" encoding="utf-8"?>
<!-- Generator: Adobe Illustrator 26.0.3, SVG Export Plug-In . SVG Version: 6.00 Build 0)  -->
<svg version="1.1" id="Layer_1" xmlns="http://www.w3.org/2000/svg" xmlns:xlink="http://www.w3.org/1999/xlink" x="0px" y="0px"
	 viewBox="0 0 300 600" style="enable-background:new 0 0 300 600;" xml:space="preserve">
<style type="text/css">
	.st0{fill:#CDBBFF;}
</style>
<g>
	<g>
		<path class="st0" d="M56,159.3h-6.2c-0.5-0.5-1.2-1.2-1.9-1.9c-2,1.5-4.4,2.4-6.9,2.4c-4.7,0-8.4-2.4-8.4-7.4
			c0-3.9,2.6-5.9,5.5-7.4c-1-1.7-1.6-3.5-1.7-5.5c0-3.4,3-6.1,7.2-6.1c3.6,0,6.7,2,6.7,5.4c0,3.9-3.1,5.5-6.3,7c0.8,1,1.5,2,2.2,2.8
			c0.7,0.9,1.5,1.8,2.2,2.6c1-1.5,1.8-3.2,2.3-4.9l3.9,1.8c-1,2.2-2.2,4.2-3.5,6.1C52.6,155.8,54.2,157.5,56,159.3z M45.3,154.6
			c-1.2-1.3-2.2-2.4-2.8-3.2c-0.8-1-1.7-2.2-2.5-3.4c-1.4,0.8-2.2,2.3-2.2,3.9c-0.1,2.1,1.6,3.9,3.7,4c0.1,0,0.2,0,0.2,0
			C42.9,155.9,44.2,155.4,45.3,154.6z M42.3,143.1c2.1-1,3.8-2.1,3.8-4c0-1.1-0.9-2.1-2-2.1c0,0-0.1,0-0.1,0c-1.4,0-2.6,1.1-2.7,2.5
			c0,0.1,0,0.1,0,0.2C41.3,140.9,41.7,142.1,42.3,143.1L42.3,143.1z"/>
		<path class="st0" d="M68.6,133.8h10c8,0,13.5,5.1,13.5,12.7s-5.5,12.7-13.5,12.7h-10V133.8z M78.6,154.5c4.2,0.2,7.8-3,8-7.2
			c0-0.2,0-0.5,0-0.7c0-4.5-2.8-8-8-8H74v15.9L78.6,154.5z"/>
		<path class="st0" d="M94.7,150.1c0-5.4,4.3-9.8,9.7-9.8s9.8,4.3,9.8,9.7c0,5.4-4.3,9.8-9.7,9.8c0,0-0.1,0-0.1,0
			c-5.2,0.2-9.5-3.8-9.7-8.9C94.7,150.6,94.7,150.3,94.7,150.1z M109.2,150.1c0-2.9-1.7-5.4-4.7-5.4s-4.7,2.5-4.7,5.4
			s1.7,5.4,4.7,5.4S109.2,153,109.2,150.1z"/>
		<path class="st0" d="M130.2,157c-1.7,1.8-4,2.8-6.5,2.8c-4,0-6-2.2-6-5.8v-13.1h4.8V152c0,2.6,1.3,3.4,3.4,3.4
			c1.6,0,3.2-0.8,4.2-2.1v-12.4h4.9v18.4h-4.9L130.2,157z"/>
		<path class="st0" d="M139.9,133.8h4.8v9.4c1.3-1.8,3.5-2.8,5.7-2.8c4.7,0,8.2,3.7,8.2,9.7s-3.5,9.6-8.2,9.6c-2.2,0-4.3-1-5.7-2.8
			v2.4h-4.8V133.8z M148.9,155.4c2.8,0,4.7-2.1,4.7-5.3s-1.9-5.4-4.7-5.4c-1.6,0-3.2,0.8-4.2,2.1v6.5
			C145.7,154.7,147.2,155.4,148.9,155.4z"/>
		<path class="st0" d="M163.2,154.7v-9.6h-3.1v-4.2h3.1v-5h4.9v5h3.7v4.2h-3.7v8.3c0,1.1,0.6,2,1.7,2c0.6,0,1.2-0.2,1.7-0.5l1,3.7
			c-1.1,0.9-2.6,1.3-4,1.2C165,159.8,163.2,158,163.2,154.7z"/>
		<path class="st0" d="M176.2,145.1h-3.1v-4.2h3.1v-1c0-4,2.6-6.4,6.2-6.4c1.2,0,2.4,0.2,3.5,0.8l-1,3.4c-0.5-0.3-1-0.4-1.6-0.4
			c-1.4,0-2.3,0.9-2.3,2.7v0.9h3.7v4.2h-3.7v14.2h-4.9L176.2,145.1z"/>
		<path class="st0" d="M200,157c-1.7,1.8-4,2.8-6.5,2.8c-4.1,0-6-2.2-6-5.8v-13.1h4.9V152c0,2.6,1.3,3.4,3.4,3.4
			c1.6,0,3.2-0.8,4.2-2.1v-12.4h4.9v18.4H200V157z"/>
		<path class="st0" d="M209.7,133.8h4.8v25.4h-4.8V133.8z"/>
	</g>
</g>
</svg>
