<?xml version="1.0" encoding="utf-8"?>
<!-- Generator: Adobe Illustrator 26.0.3, SVG Export Plug-In . SVG Version: 6.00 Build 0)  -->
<svg version="1.1" id="Layer_1" xmlns="http://www.w3.org/2000/svg" xmlns:xlink="http://www.w3.org/1999/xlink" x="0px" y="0px"
	 viewBox="0 0 300 600" style="enable-background:new 0 0 300 600;" xml:space="preserve">
<style type="text/css">
	.st0{fill:#C1E8A0;}
</style>
<g>
	<g>
		<path class="st0" d="M34.7,145.1h-3.1v-4.2h3.1v-1c0-4,2.6-6.4,6.2-6.4c1.2,0,2.4,0.2,3.5,0.8l-1,3.4c-0.5-0.3-1-0.4-1.6-0.4
			c-1.4,0-2.3,0.9-2.3,2.7v0.9h3.7v4.2h-3.7v14.2h-4.9V145.1z"/>
		<path class="st0" d="M46.1,140.9H51v2.5c1.4-1.8,3.6-2.9,5.9-2.9v4.7c-0.4-0.1-0.9-0.2-1.4-0.2c-1.7,0-3.4,0.8-4.5,2.1v12.2h-4.8
			V140.9z"/>
		<path class="st0" d="M58.7,150.1c-0.2-5.2,3.9-9.5,9-9.7c0.2,0,0.5,0,0.7,0c5.3-0.2,9.8,4,10,9.4s-4,9.8-9.4,10
			c-0.2,0-0.4,0-0.6,0c-5.2,0.2-9.5-3.8-9.7-8.9C58.7,150.6,58.7,150.3,58.7,150.1z M73.1,150.1c0-2.9-1.7-5.4-4.7-5.4
			s-4.7,2.5-4.7,5.4s1.7,5.4,4.7,5.4S73.1,153,73.1,150.1z"/>
		<path class="st0" d="M104.6,147.6c0-1.7-0.8-2.9-2.8-2.9c-1.5,0.1-2.9,0.9-3.8,2.1v12.4h-4.9v-11.6c0-1.7-0.8-2.9-2.8-2.9
			c-1.5,0.1-2.9,0.9-3.8,2.2v12.4h-4.9v-18.4h4.8v2.4c1.5-1.8,3.7-2.8,6-2.9c2.7,0,4.4,1.3,5.1,3.4c1.4-2.1,3.8-3.3,6.3-3.4
			c3.4,0,5.4,1.8,5.4,5.6v13.3h-4.9L104.6,147.6z"/>
		<path class="st0" d="M129.6,138.6h-7.4v-4.8h20.3v4.8h-7.4v20.7h-5.5V138.6z"/>
		<path class="st0" d="M150.5,140.4c5.5,0,9.2,4.1,9.2,10.1v1.1h-13.7c0.4,2.6,2.7,4.5,5.3,4.3c1.8,0,3.6-0.7,4.9-1.8l2.1,3.1
			c-2.1,1.7-4.8,2.6-7.6,2.6c-5.6,0-9.8-3.8-9.8-9.7c-0.2-5.2,3.9-9.5,9.1-9.7C150.2,140.4,150.4,140.4,150.5,140.4z M146,148.3h9.1
			c-0.1-2.4-2.1-4.2-4.4-4.1c0,0-0.1,0-0.1,0C148.2,144.2,146.2,146,146,148.3z"/>
		<path class="st0" d="M189,154.9h-11.4l-1.6,4.4h-6l9.9-25.4h6.8l9.8,25.4h-5.9L189,154.9z M179.1,150.2h8.4l-4.2-11.7L179.1,150.2
			z"/>
		<path class="st0" d="M211.2,148.1c0-2.6-1.3-3.4-3.4-3.4c-1.7,0-3.2,0.8-4.2,2.2v12.4h-4.9v-18.4h4.9v2.4c1.6-1.8,4-2.9,6.4-2.9
			c4.1,0,6,2.3,6,5.9v13h-4.9L211.2,148.1z"/>
		<path class="st0" d="M231.9,157.4c-1.5,1.6-3.6,2.5-5.8,2.4c-2.9,0-6.4-2-6.4-6.1c0-4.3,3.5-5.9,6.4-5.9c2.2-0.1,4.3,0.7,5.8,2.2
			v-2.6c0-1.9-1.6-3.1-4-3.1c-2,0-3.9,0.8-5.4,2.2l-1.8-3.2c2.2-1.9,5.1-2.9,8-2.9c4.2,0,8.1,1.7,8.1,7v11.9h-4.9L231.9,157.4z
			 M231.9,152.6c-1-1.1-2.4-1.7-3.9-1.6c-1.9,0-3.5,1-3.5,2.8s1.6,2.7,3.5,2.7c1.5,0.1,2.9-0.5,3.9-1.6L231.9,152.6z"/>
		<path class="st0" d="M254,157c-1.7,1.8-4,2.8-6.5,2.8c-4.1,0-6-2.2-6-5.8v-13.1h4.9V152c0,2.6,1.3,3.4,3.4,3.4
			c1.6,0,3.2-0.8,4.2-2.1v-12.4h4.8v18.4H254V157z"/>
		<path class="st0" d="M266.1,153.5c1.7,0,3.1,1.4,3.1,3.1s-1.4,3.1-3.1,3.1c-1.7,0-3.1-1.4-3.1-3.1l0,0
			C263.1,154.9,264.4,153.5,266.1,153.5z"/>
	</g>
</g>
</svg>
