<?xml version="1.0" encoding="utf-8"?>
<!-- Generator: Adobe Illustrator 26.0.3, SVG Export Plug-In . SVG Version: 6.00 Build 0)  -->
<svg version="1.1" id="Layer_1" xmlns="http://www.w3.org/2000/svg" xmlns:xlink="http://www.w3.org/1999/xlink" x="0px" y="0px"
	 viewBox="0 0 300 600" style="enable-background:new 0 0 300 600;" xml:space="preserve">
<style type="text/css">
	.st0{fill:#CDBBFF;}
</style>
<g>
	<g>
		<path class="st0" d="M35.4,185.5c2.1,2.2,5,3.4,8.1,3.4c3,0,4.4-1.4,4.4-2.9c0-1.9-2.2-2.6-5.2-3.2c-4.2-1-9.5-2.1-9.5-7.8
			c0-4.2,3.7-7.7,9.7-7.7c3.6-0.1,7.2,1.1,9.9,3.6l-3,4c-2-1.8-4.6-2.8-7.3-2.8c-2.4,0-3.7,1.1-3.7,2.6c0,1.7,2.1,2.3,5.1,2.9
			c4.2,1,9.5,2.2,9.5,7.9c0,4.7-3.3,8.2-10.2,8.2c-4.9,0-8.4-1.6-10.8-4L35.4,185.5z"/>
		<path class="st0" d="M55.8,184c-0.2-5.2,3.9-9.5,9-9.7c0.2,0,0.5,0,0.7,0c5.3-0.2,9.8,4,10,9.4s-4,9.8-9.4,10c-0.2,0-0.4,0-0.6,0
			c-5.2,0.2-9.5-3.8-9.7-8.9C55.8,184.5,55.8,184.3,55.8,184z M70.2,184c0-2.9-1.7-5.4-4.7-5.4s-4.7,2.5-4.7,5.4s1.7,5.4,4.7,5.4
			C68.5,189.4,70.2,186.9,70.2,184z"/>
		<path class="st0" d="M91.3,190.9c-1.7,1.8-4,2.8-6.5,2.8c-4,0-6-2.2-6-5.8v-13.1h4.8V186c0,2.6,1.3,3.4,3.4,3.4
			c1.6,0,3.2-0.8,4.2-2.1v-12.5h4.8v18.4h-4.8V190.9z"/>
		<path class="st0" d="M113.4,182.1c0-2.6-1.3-3.4-3.4-3.4c-1.7,0-3.2,0.8-4.2,2.2v12.4h-4.8v-18.4h4.8v2.4c1.6-1.9,4-2.9,6.4-2.9
			c4,0,6,2.3,6,5.9v13h-4.8L113.4,182.1z"/>
		<path class="st0" d="M135.7,190.9c-1.4,1.8-3.5,2.8-5.7,2.8c-4.7,0-8.2-3.5-8.2-9.6s3.5-9.7,8.2-9.7c2.2,0,4.3,1,5.7,2.8v-9.4h4.9
			v25.4h-4.9V190.9z M135.7,180.7c-1-1.3-2.5-2.1-4.2-2.1c-2.8,0-4.7,2.2-4.7,5.4s1.9,5.3,4.7,5.3c1.7,0,3.2-0.8,4.2-2.1V180.7z"/>
		<path class="st0" d="M147.9,187.4c1.7,0,3.1,1.4,3.1,3.1c0,1.7-1.4,3.1-3.1,3.1c-1.7,0-3.1-1.4-3.1-3.1l0,0
			C144.8,188.8,146.2,187.5,147.9,187.4z"/>
	</g>
</g>
</svg>
