<?xml version="1.0" encoding="utf-8"?>
<!-- Generator: Adobe Illustrator 26.0.3, SVG Export Plug-In . SVG Version: 6.00 Build 0)  -->
<svg version="1.1" id="Layer_1" xmlns="http://www.w3.org/2000/svg" xmlns:xlink="http://www.w3.org/1999/xlink" x="0px" y="0px"
	 viewBox="0 0 300 600" style="enable-background:new 0 0 300 600;" xml:space="preserve">
<style type="text/css">
	.st0{fill:#FFFFFF;}
	.st1{clip-path:url(#SVGID_00000045594323336240049970000015897388447909494161_);}
</style>
<g>
	<g>
		<path class="st0" d="M68.9,550.6v-11.9h8v1.6h-6.2v3.5h6.1v1.6h-6.1v5.3H68.9z"/>
		<path class="st0" d="M78.8,550.6v-11.9h1.6v11.9H78.8z"/>
		<path class="st0" d="M82.8,552.5c0.2,0.1,0.5,0.1,0.7,0.2c0.6,0,1.1-0.3,1.2-0.8l0.5-1.2l-3.6-8.7h1.7l2.7,6.8l2.7-6.8h1.7
			l-4.2,10.3c-0.4,1.2-1.5,1.9-2.8,1.8c-0.3,0-0.7,0-1-0.1L82.8,552.5z"/>
		<path class="st0" d="M68.9,566.8v-11.9h8v1.6h-6.2v3.5h6.1v1.6h-6.1v5.3H68.9z"/>
		<path class="st0" d="M78.5,555.7c0-0.6,0.5-1,1-1c0.6,0,1,0.5,1,1l0,0c0,0.6-0.5,1-1,1C79,556.7,78.5,556.3,78.5,555.7z
			 M78.8,566.8v-8.6h1.6v8.6H78.8z"/>
		<path class="st0" d="M82.4,562.5c0.1-2.4,2.1-4.3,4.5-4.2c2.4,0.1,4.3,2.1,4.2,4.5c-0.1,2.3-2,4.2-4.4,4.2c-2.4,0-4.3-1.8-4.4-4.2
			C82.4,562.7,82.4,562.6,82.4,562.5z M89.4,562.5c0.2-1.5-0.8-2.9-2.3-3.1c-1.5-0.2-2.9,0.8-3.1,2.3c0,0.3,0,0.5,0,0.8
			c0,1.7,1,3.1,2.7,3.1S89.4,564.1,89.4,562.5L89.4,562.5z"/>
		<path class="st0" d="M93.2,566.8v-8.6h1.6v1.3c0.7-0.9,1.7-1.4,2.8-1.5v1.6c-0.2,0-0.4-0.1-0.6,0c-0.9,0.1-1.7,0.5-2.3,1.2v6
			L93.2,566.8z"/>
		<path class="st0" d="M105.3,566.8v-1.2c-0.7,0.9-1.7,1.4-2.8,1.4c-2.2,0-3.8-1.7-3.8-4.5s1.6-4.5,3.8-4.5c1.1,0,2.2,0.5,2.8,1.5
			v-4.5h1.6v11.9L105.3,566.8z M105.3,560.6c-0.6-0.8-1.4-1.2-2.4-1.3c-1.6,0-2.6,1.3-2.6,3.1s1,3.1,2.6,3.1c1,0,1.8-0.5,2.4-1.2
			V560.6z"/>
		<path class="st0" d="M109.5,566.8v-11.9h1.6v11.9H109.5z"/>
		<path class="st0" d="M119,566.8v-0.9c-0.7,0.8-1.8,1.2-2.8,1.2c-1.6,0.1-2.9-1.2-3-2.7c0,0,0-0.1,0-0.1c0-1.5,1.2-2.8,2.7-2.8
			c0.1,0,0.2,0,0.3,0c1.1-0.1,2.1,0.4,2.8,1.1V561c0-1.1-0.9-1.7-2.1-1.7c-1,0-1.9,0.4-2.6,1.1l-0.7-1.1c0.9-0.9,2.2-1.4,3.5-1.4
			c1.9,0,3.5,0.8,3.5,3v5.8L119,566.8z M119,563.4c-0.5-0.7-1.4-1-2.2-1c-0.9-0.1-1.8,0.5-2,1.4c-0.1,0.9,0.5,1.8,1.4,2
			c0.2,0,0.4,0,0.5,0c0.9,0,1.7-0.3,2.2-1V563.4z"/>
		<path class="st0" d="M129,566.8v-5.5c0-1.4-0.7-1.9-1.8-1.9c-0.9,0-1.8,0.5-2.4,1.2v6.2h-1.6v-8.6h1.6v1.2c0.8-0.9,1.8-1.4,3-1.4
			c1.4-0.2,2.6,0.8,2.8,2.1c0,0.2,0,0.4,0,0.6v6L129,566.8z"/>
		<path class="st0" d="M139.3,566.8v-1.2c-0.7,0.9-1.7,1.4-2.8,1.5c-2.2,0-3.9-1.7-3.9-4.5s1.6-4.5,3.9-4.5c1.1,0,2.2,0.6,2.8,1.5
			v-4.5h1.6v11.9H139.3z M139.3,560.6c-0.6-0.8-1.4-1.2-2.4-1.3c-1.6,0-2.6,1.3-2.6,3.1s1,3.1,2.6,3.1c0.9,0,1.8-0.5,2.4-1.2V560.6z
			"/>
		<g>
			<defs>
				<rect id="SVGID_1_" width="300" height="600"/>
			</defs>
			<clipPath id="SVGID_00000083054564573419496700000002166166865037609649_">
				<use xlink:href="#SVGID_1_"  style="overflow:visible;"/>
			</clipPath>
			<g style="clip-path:url(#SVGID_00000083054564573419496700000002166166865037609649_);">
				<path class="st0" d="M52.8,555c-3.2,4.4-6.4,8.9-9.6,13.3l-0.1,0.2c-0.2,0.3-0.4,0.3-0.6,0c-0.7-1-1.4-1.9-2.1-2.8
					c-2.4-3.4-4.8-6.8-7.3-10.1c-1.1-1.5-1.9-3.1-2.4-4.9c-0.2-0.9-0.4-1.9-0.4-2.8c-0.1-6.2,4.5-11.5,10.6-12.5
					c6.7-1,13,3.5,14.1,10.2C55.7,548.8,54.9,552.3,52.8,555 M56,545c-1.2-6.1-6.4-10.5-12.6-10.7c-7.4-0.2-13.6,5.6-13.8,13.1
					c0,0.6,0,1.1,0.1,1.7c0.3,2.4,1.2,4.7,2.6,6.6l10.1,14c0.3,0.5,0.7,0.5,1,0c1-1.4,2-2.7,2.9-4.1c2.5-3.5,5.1-7,7.6-10.5
					c1.5-2.2,2.4-4.9,2.4-7.6C56.1,546.7,56.1,545.8,56,545"/>
				<path class="st0" d="M42.8,555.8c-4.6,0-8.2-3.7-8.2-8.3c0-4.6,3.7-8.2,8.3-8.2c4.6,0,8.2,3.7,8.2,8.3c0,0,0,0,0,0
					C51.1,552.1,47.4,555.8,42.8,555.8 M55.1,545.5c-1.2-6.8-7.6-11.3-14.4-10.2c-6,1-10.4,6.3-10.3,12.4c0,1,0.1,1.9,0.4,2.8
					c0.5,1.8,1.3,3.4,2.4,4.9c2.5,3.3,4.9,6.7,7.3,10.1c0.7,1,1.4,1.9,2.1,2.8c0.2,0.3,0.4,0.3,0.6,0l0.1-0.2
					c3.2-4.4,6.4-8.9,9.6-13.3C54.9,552.2,55.7,548.8,55.1,545.5"/>
				<path class="st0" d="M42.8,554.9c-4.1,0-7.3-3.3-7.3-7.3s3.3-7.3,7.3-7.3s7.3,3.3,7.3,7.3c0,0,0,0,0,0
					C50.2,551.6,46.9,554.9,42.8,554.9 M42.8,539.3c-4.6,0-8.2,3.7-8.2,8.2c0,4.6,3.7,8.2,8.2,8.2c4.5,0,8.2-3.7,8.2-8.2
					C51.1,543,47.4,539.3,42.8,539.3C42.9,539.3,42.9,539.3,42.8,539.3"/>
			</g>
		</g>
	</g>
</g>
</svg>
