<?xml version="1.0" encoding="utf-8"?>
<!-- Generator: Adobe Illustrator 25.2.3, SVG Export Plug-In . SVG Version: 6.00 Build 0)  -->
<svg version="1.1" id="Layer_1" xmlns="http://www.w3.org/2000/svg" xmlns:xlink="http://www.w3.org/1999/xlink" x="0px" y="0px"
	 viewBox="0 0 300 250" style="enable-background:new 0 0 300 250;" xml:space="preserve">
<style type="text/css">
	.st0{fill:#074854;}
	.st1{fill:#FFFFFF;}
	.st2{fill:#76A8A5;}
</style>
<g id="Button_1">
	<rect x="20" y="20" class="st0" width="260" height="210"/>
	<path class="st1" d="M49,144c-0.2,0-0.4,0-0.6,0c-0.2,0-0.4,0-0.7,0c0-0.1,0-0.2,0-0.4s0-0.3,0-0.4c0-0.1,0-0.2,0-0.2
		c0.1,0,0.2,0,0.2,0h1.4c0.5,0,0.9,0,1.3,0.1c0,0.1,0,0.2,0,0.3s0,0.2,0,0.3c0,0.5-0.1,0.9-0.2,1.4c-0.1,0.4-0.3,0.8-0.5,1.2
		c-0.3,0.3-0.6,0.6-1,0.8c-0.4,0.2-0.9,0.3-1.4,0.3c-0.5,0-0.9-0.1-1.4-0.3c-0.4-0.2-0.7-0.4-1-0.8c-0.3-0.3-0.5-0.7-0.6-1.1
		c-0.1-0.4-0.2-0.9-0.2-1.4c0-0.5,0.1-1,0.2-1.5c0.1-0.5,0.3-0.9,0.6-1.3c0.3-0.4,0.6-0.7,1-0.9c0.5-0.2,1-0.4,1.5-0.3
		c0.3,0,0.5,0,0.8,0.1c0.2,0,0.5,0.1,0.7,0.2c0.2,0.1,0.4,0.3,0.6,0.4c0.2,0.2,0.3,0.4,0.3,0.7c-0.2,0.1-0.4,0.3-0.6,0.4
		c-0.2,0.1-0.5,0.2-0.7,0.2c-0.1-0.2-0.3-0.4-0.5-0.5c-0.2-0.1-0.4-0.1-0.7-0.1c-0.3,0-0.5,0.1-0.8,0.2c-0.2,0.1-0.4,0.3-0.5,0.6
		c-0.1,0.2-0.2,0.5-0.3,0.7c0,0.3-0.1,0.5-0.1,0.8c0,0.3,0,0.5,0.1,0.8c0,0.3,0.1,0.5,0.2,0.8c0.1,0.2,0.3,0.4,0.5,0.6
		c0.2,0.2,0.5,0.2,0.8,0.2c0.4,0,0.8-0.1,1.1-0.4c0.2-0.3,0.4-0.7,0.3-1.1c0,0,0,0,0-0.1L49,144z"/>
	<path class="st1" d="M55.6,147c-0.5,0-1,0-1.5,0c-0.5,0-1,0-1.5-0.1c-0.1-0.5-0.1-1-0.1-1.5c0-0.5,0-1.1,0-1.7s0-1.1,0-1.7
		s0-1.1,0-1.6v-0.9c0.1,0,0.3,0,0.4,0h3.8h0.5c0,0.2,0,0.4,0,0.7v0.3c0,0.1,0,0.2,0,0.3h-0.3c-0.1,0-0.2,0-0.3,0h-1.3
		c-0.4,0-0.9,0-1.3,0.1c0,0.1,0,0.1,0,0.2v1.3c0.4,0,0.8,0,1.1,0c0.4,0,0.8,0,1.3,0c0,0,0,0,0,0.1c0,0.1,0,0.1,0,0.2l-0.1,0.9
		c0,0,0,0.1-0.1,0.1l-0.2,0.1h-0.2H55c-0.3,0-0.6,0-0.9,0v0.6v1c0.2,0.1,0.4,0.1,0.6,0.1c0.3,0,0.6,0,0.9,0h0.9c0.3,0,0.5,0,0.8,0
		c0,0.1,0,0.2,0,0.4s0,0.2,0,0.4s0,0.2,0,0.4s0,0.2,0,0.3L55.6,147z"/>
	<path class="st1" d="M60.3,147c0-0.2,0-0.4,0-0.6c0-0.9,0-1.8,0-2.6s0-1.8-0.1-2.7h-0.9h-0.9c0-0.2,0-0.3,0-0.5s0-0.3,0-0.5
		c0-0.1,0-0.2,0-0.2c0-0.1,0-0.1,0-0.2c0.6,0,1.2-0.1,1.9-0.1h1.8h0.8c0.3,0,0.5,0,0.8,0.1c0,0.2,0.1,0.3,0.1,0.5c0,0.2,0,0.4,0,0.5
		v0.3h-0.5h-0.8c-0.2,0-0.5,0-0.7,0c0,0.5,0,1,0,1.5s0,1,0,1.5s0,1,0,1.5c0,0.5,0,1-0.1,1.5c-0.2,0-0.3,0-0.5,0h-0.5L60.3,147z"/>
	<path class="st1" d="M69.4,147c0-0.2,0-0.4,0-0.6c0-0.9,0-1.8,0-2.6s0-1.8-0.1-2.7h-0.9h-0.9c0-0.2,0-0.3,0-0.5s0-0.3,0-0.5v-0.2
		v-0.2c0.6,0,1.2-0.1,1.9-0.1h1.9H72c0.3,0,0.5,0,0.8,0.1c0,0.2,0.1,0.3,0.1,0.5v0.5v0.3h-0.5h-0.8c-0.2,0-0.5,0-0.8,0
		c0,0.5,0,1,0,1.5s0,1,0,1.5s0,1,0,1.5c0,0.5,0,1-0.1,1.5c-0.2,0-0.3,0-0.5,0h-0.5L69.4,147z"/>
	<path class="st1" d="M75.9,146.4c0,0.1,0,0.3,0,0.4c0,0.1-0.1,0.1-0.1,0.2c-0.1,0-0.2,0-0.3,0h-0.8h-0.3c0-0.1,0-0.3,0-0.4
		c0-0.1,0-0.3,0-0.4v-1.3c0-0.4,0-0.9,0-1.3s0-0.9,0-1.3s0-0.9,0-1.3s0-0.9,0.1-1.3c0.1,0,0.2,0,0.4,0h1c0.1,0,0.2,0,0.2,0.1
		c0,0.5,0,1,0,1.5s0,1,0,1.5h0.3h1.2h0.7c0-0.3,0.1-0.6,0.1-0.9v-0.9c0-0.2,0-0.4,0-0.6c0-0.2,0-0.4,0-0.6c0.1,0,0.1-0.1,0.2-0.1
		h0.2h0.5c0.2,0,0.4,0,0.5,0v6.6c0,0.1,0,0.2,0,0.4s0,0.2,0,0.4h-0.4h-0.7h-0.3c-0.1-0.5-0.1-1-0.1-1.5c0-0.5,0-1,0-1.5
		c-0.2,0-0.4,0-0.6,0h-1.2h-0.5c0,0.2,0,0.5,0,0.7L75.9,146.4L75.9,146.4z"/>
	<path class="st1" d="M84.8,147c-0.5,0-1,0-1.5,0c-0.5,0-1,0-1.5-0.1c-0.1-0.5-0.1-1-0.1-1.5c0-0.5,0-1.1,0-1.7s0-1.1,0-1.7
		s0-1.1,0-1.6v-0.9c0.1,0,0.3,0,0.4,0H86h0.5c0,0.2,0,0.4,0,0.7v0.3c0,0.1,0,0.2,0,0.3h-0.3c-0.1,0-0.2,0-0.3,0h-1.3
		c-0.4,0-0.9,0-1.3,0.1c0,0.1,0,0.1,0,0.2v1.3c0.4,0,0.8,0,1.1,0c0.4,0,0.8,0,1.3,0c0,0,0,0,0,0.1c0,0.1,0,0.1,0,0.2l-0.1,0.9
		c0,0,0,0.1-0.1,0.1l-0.2,0.1h-0.2h-1.1c-0.3,0-0.6,0-0.9,0v0.6v1c0.2,0.1,0.4,0.1,0.6,0.1c0.3,0,0.6,0,0.9,0h0.9c0.3,0,0.5,0,0.8,0
		c0,0.1,0,0.2,0,0.4s0,0.2,0,0.4s0,0.2,0,0.4s0,0.2,0,0.3L84.8,147z"/>
	<path class="st1" d="M95.3,147h-0.4c-0.1-0.3-0.2-0.6-0.2-0.9s-0.1-0.6-0.2-0.9h-0.8c-0.4,0-0.8,0-1.2,0c-0.1,0.6-0.3,1.2-0.4,1.8
		h-0.4h-1h-0.2c0.1-0.6,0.2-1.2,0.4-1.8c0.2-0.6,0.3-1.2,0.5-1.9s0.3-1.2,0.5-1.9s0.3-1.2,0.5-1.8h0.4H94h0.9
		c0.1,0.2,0.1,0.5,0.2,0.9s0.2,0.8,0.3,1.3s0.2,1,0.3,1.5s0.2,1,0.3,1.5s0.2,0.9,0.2,1.2c0,0.2,0.1,0.5,0.1,0.7v0.3L95.3,147z
		 M93.3,143.7h0.5c0.2,0,0.3,0,0.5-0.1c0-0.2-0.1-0.5-0.1-0.7l-0.2-0.7c0-0.1,0-0.2,0-0.3c0-0.1,0-0.2-0.1-0.4
		c0-0.1-0.1-0.2-0.1-0.3c0-0.1-0.1-0.1-0.2-0.1h-0.2c0,0.2-0.1,0.4-0.1,0.6l-0.2,0.6c-0.1,0.2-0.1,0.4-0.2,0.6s-0.1,0.4-0.1,0.6H93
		L93.3,143.7L93.3,143.7z"/>
	<path class="st1" d="M98,147c0-0.3-0.1-0.6-0.1-1s0-0.7,0-1s0-0.7,0-1s0-0.7,0-1s0-0.5,0-0.8s0-0.6,0-0.9s0-0.6,0-0.9
		c0-0.3,0-0.5,0.1-0.8c0.1,0,0.2,0,0.3-0.1h0.3h1c0.4,0,0.7,0,1.1,0c0.3,0,0.7,0.1,1,0.1c0.3,0.1,0.6,0.2,0.9,0.4
		c0.3,0.2,0.5,0.4,0.6,0.7c0.2,0.3,0.2,0.7,0.2,1.1c0,0.4-0.1,0.8-0.2,1.1c-0.2,0.3-0.4,0.6-0.7,0.8c-0.3,0.2-0.6,0.4-0.9,0.5
		c-0.4,0.1-0.7,0.2-1.1,0.2H100c-0.2,0-0.3,0-0.5,0c0,0.2,0,0.5,0,0.7v0.7c0,0.2,0,0.4,0,0.6c0,0.2,0,0.4,0,0.6
		c-0.1,0-0.3,0-0.4,0.1h-0.8C98.2,147,98.1,147,98,147z M99.6,143c0,0,0.1,0,0.2,0h0.7c0.2,0,0.5,0,0.7-0.1c0.2-0.1,0.4-0.2,0.5-0.3
		c0.2-0.2,0.2-0.4,0.2-0.6c0-0.2,0-0.4-0.2-0.6c-0.1-0.1-0.2-0.3-0.4-0.3c-0.2-0.1-0.3-0.1-0.5-0.2c-0.2,0-0.4,0-0.6,0h-0.4
		c-0.1,0-0.1,0-0.2,0.1c0,0-0.1,0.1-0.1,0.1c0,0.2,0,0.4,0,0.6s0,0.4,0,0.6s0,0.2,0,0.4C99.6,142.8,99.6,142.9,99.6,143L99.6,143z"
		/>
	<path class="st1" d="M105.1,147c-0.1-0.3-0.1-0.7-0.1-1c0-0.3,0-0.7,0-1s0-0.7,0-1s0-0.7,0-1s0-0.5,0-0.8s0-0.6,0-0.9s0-0.6,0-0.9
		c0-0.3,0-0.5,0.1-0.8c0.1,0,0.2,0,0.3-0.1h0.3h1c0.4,0,0.7,0,1.1,0c0.3,0,0.7,0.1,1,0.1c0.3,0.1,0.6,0.2,0.9,0.4
		c0.3,0.2,0.5,0.4,0.6,0.7c0.2,0.3,0.2,0.7,0.2,1.1c0,0.4-0.1,0.8-0.2,1.1c-0.2,0.3-0.4,0.6-0.7,0.8c-0.3,0.2-0.6,0.4-0.9,0.5
		c-0.4,0.1-0.7,0.2-1.1,0.2h-0.5c-0.2,0-0.3,0-0.5,0c0,0.2,0,0.5,0,0.7s0,0.5,0,0.7s0,0.4,0,0.6c0,0.2,0,0.4,0,0.6
		c-0.1,0-0.3,0-0.4,0.1h-0.8C105.3,147,105.2,147,105.1,147z M106.7,143c0,0,0.1,0,0.2,0h0.7c0.2,0,0.5,0,0.7-0.1
		c0.2-0.1,0.4-0.2,0.5-0.3c0.2-0.2,0.2-0.4,0.2-0.6c0-0.4-0.2-0.8-0.5-0.9c-0.2-0.1-0.3-0.1-0.5-0.2c-0.2,0-0.4,0-0.6,0h-0.4
		l-0.2,0.1c0,0-0.1,0.1-0.1,0.1c0,0.2,0,0.4,0,0.6s0,0.4,0,0.6v0.4C106.6,142.8,106.6,142.9,106.7,143z"/>
	<path class="st1" d="M113.2,147c-0.2,0-0.3,0.1-0.5,0.1h-0.4c-0.1,0-0.2,0-0.3-0.1c-0.1-0.1-0.1-0.3-0.1-0.4c0-0.1,0-0.3,0-0.4
		c0-0.2,0-0.4,0.2-0.5c0.2-0.1,0.3-0.1,0.5-0.1c0.1,0,0.2,0,0.4,0l0.3,0.1c0.1,0.2,0.2,0.5,0.2,0.7c0,0.1,0,0.2,0,0.3
		C113.4,146.8,113.3,146.9,113.2,147z"/>
	<path class="st1" d="M117.6,145.5c0-0.1,0.1-0.1,0.1-0.2c0.1-0.1,0.1-0.2,0.2-0.4c0.1-0.1,0.2-0.2,0.3-0.3c0.1-0.1,0.3-0.1,0.4,0
		c0.1,0.2,0.2,0.3,0.3,0.5c0.1,0.1,0.3,0.3,0.4,0.4c0.2,0.1,0.3,0.2,0.5,0.2c0.2,0.1,0.3,0.1,0.5,0.1c0.3,0,0.5-0.1,0.7-0.2
		c0.2-0.2,0.2-0.4,0.2-0.6c0-0.2-0.1-0.4-0.3-0.6c-0.2-0.2-0.4-0.3-0.6-0.4c-0.3-0.1-0.5-0.2-0.8-0.4c-0.3-0.1-0.6-0.3-0.8-0.4
		c-0.3-0.2-0.5-0.4-0.7-0.6c-0.2-0.3-0.3-0.6-0.3-1c0-0.3,0.1-0.6,0.2-0.9c0.1-0.2,0.3-0.5,0.6-0.6c0.2-0.2,0.5-0.3,0.8-0.4
		c0.3-0.1,0.6-0.1,0.9-0.1c0.3,0,0.6,0,0.8,0.1c0.3,0.1,0.5,0.2,0.8,0.3c0.2,0.1,0.4,0.3,0.6,0.6c0.1,0.2,0.2,0.5,0.2,0.8l-0.2,0.1
		l-0.3,0.2l-0.3,0.1c-0.1,0-0.1,0-0.2,0.1c-0.1-0.2-0.3-0.4-0.5-0.6c-0.2-0.2-0.5-0.2-0.7-0.2c-0.2,0-0.4,0.1-0.6,0.2
		c-0.1,0.1-0.2,0.3-0.2,0.4c0,0.2,0.1,0.4,0.2,0.5c0.2,0.2,0.4,0.3,0.6,0.4l0.8,0.4c0.3,0.1,0.6,0.3,0.8,0.5
		c0.3,0.2,0.5,0.4,0.6,0.7c0.2,0.3,0.3,0.7,0.2,1c0,0.3-0.1,0.6-0.2,0.9c-0.1,0.3-0.3,0.5-0.5,0.7c-0.2,0.2-0.5,0.4-0.8,0.5
		c-0.3,0.1-0.7,0.2-1,0.2c-0.4,0-0.9-0.1-1.3-0.3c-0.3-0.1-0.6-0.3-0.8-0.6c-0.2-0.2-0.4-0.4-0.5-0.6
		C117.8,145.7,117.7,145.6,117.6,145.5z"/>
	<path class="st1" d="M126,147c0-0.2,0-0.4,0-0.6c0-0.9,0-1.8,0-2.6s0-1.8-0.1-2.7H125h-0.9c0-0.2,0-0.3,0-0.5s0-0.3,0-0.5v-0.2
		v-0.2c0.6,0,1.2-0.1,1.9-0.1h1.9h0.8c0.3,0,0.5,0,0.8,0.1c0,0.2,0.1,0.3,0.1,0.5v0.5v0.3H129h-0.8c-0.2,0-0.5,0-0.8,0
		c0,0.5,0,1,0,1.5s0,1,0,1.5s0,1,0,1.5c0,0.5,0,1-0.1,1.5c-0.2,0-0.3,0-0.5,0h-0.5L126,147z"/>
	<path class="st1" d="M134.7,147h-0.4c-0.1-0.3-0.1-0.6-0.2-0.9s-0.1-0.6-0.2-0.9h-0.8c-0.4,0-0.8,0-1.2,0c-0.1,0.6-0.3,1.2-0.4,1.8
		h-0.4h-1h-0.2c0.1-0.6,0.2-1.2,0.4-1.8c0.1-0.6,0.3-1.2,0.5-1.9s0.4-1.2,0.5-1.9s0.3-1.2,0.5-1.8h0.4h1.3h0.9
		c0.1,0.2,0.1,0.5,0.2,0.9s0.2,0.8,0.3,1.3s0.2,1,0.3,1.5s0.2,1,0.3,1.5s0.2,0.9,0.2,1.2c0,0.2,0.1,0.5,0.1,0.7v0.3L134.7,147z
		 M132.7,143.7h0.5c0.2,0,0.3,0,0.5-0.1c0-0.2-0.1-0.5-0.1-0.7l-0.1-0.7c0-0.1,0-0.2,0-0.3c0-0.1,0-0.2-0.1-0.4
		c0-0.1-0.1-0.2-0.1-0.3c0-0.1-0.1-0.1-0.2-0.1h-0.2c0,0.2-0.1,0.4-0.1,0.6l-0.2,0.6c-0.1,0.2-0.1,0.4-0.2,0.6s-0.1,0.4-0.1,0.6h0.2
		L132.7,143.7L132.7,143.7z"/>
	<path class="st1" d="M138.2,144.4c0-0.2-0.1-0.4-0.1-0.6c-0.1-0.2-0.2-0.5-0.4-0.8s-0.3-0.6-0.5-0.9s-0.4-0.6-0.5-0.9
		s-0.3-0.6-0.4-0.9c-0.1-0.2-0.2-0.5-0.3-0.7c0.1,0,0.1,0,0.2,0h0.2h0.6c0.2,0,0.4,0,0.6,0c0.3,0.4,0.5,0.9,0.8,1.4
		c0.2,0.5,0.5,0.9,0.6,1.4h0.1c0.3-0.4,0.5-0.9,0.8-1.4s0.5-0.9,0.8-1.4h0.2h0.9h0.2h0.2c-0.1,0.1-0.1,0.3-0.3,0.6l-0.5,0.8
		l-0.6,0.9l-0.5,0.9c-0.1,0.3-0.3,0.5-0.4,0.7c-0.1,0.1-0.1,0.3-0.2,0.4v1.5c0,0.2,0,0.5,0,0.7c0,0.2,0,0.5,0,0.7
		c-0.2,0-0.3,0-0.5,0.1h-0.5c-0.1,0-0.3,0-0.4,0c0-0.2,0-0.4,0-0.6L138.2,144.4L138.2,144.4z"/>
	<path class="st1" d="M145.6,145.5c0-0.1,0.1-0.1,0.1-0.2c0.1-0.1,0.1-0.2,0.2-0.4c0.1-0.1,0.2-0.2,0.3-0.3c0.1-0.1,0.3-0.1,0.4,0
		c0.1,0.2,0.2,0.3,0.3,0.5c0.1,0.1,0.3,0.3,0.4,0.4c0.2,0.1,0.3,0.2,0.5,0.2c0.2,0.1,0.3,0.1,0.5,0.1c0.3,0,0.5-0.1,0.7-0.2
		c0.2-0.2,0.2-0.4,0.2-0.6c0-0.2-0.1-0.4-0.3-0.6c-0.2-0.2-0.4-0.3-0.6-0.4c-0.3-0.1-0.5-0.2-0.8-0.4c-0.3-0.1-0.6-0.3-0.8-0.4
		c-0.3-0.2-0.5-0.4-0.6-0.6c-0.2-0.3-0.3-0.6-0.3-1c0-0.3,0.1-0.6,0.2-0.9c0.1-0.2,0.3-0.5,0.6-0.6c0.2-0.2,0.5-0.3,0.8-0.4
		c0.3-0.1,0.6-0.1,0.9-0.1c0.3,0,0.6,0,0.8,0.1c0.3,0.1,0.5,0.2,0.8,0.3c0.2,0.1,0.4,0.3,0.6,0.6c0.1,0.2,0.2,0.5,0.2,0.8l-0.2,0.1
		l-0.3,0.2l-0.3,0.1c-0.1,0-0.1,0.1-0.2,0.1c-0.1-0.2-0.3-0.5-0.6-0.6c-0.2-0.2-0.5-0.2-0.8-0.2c-0.2,0-0.4,0.1-0.6,0.2
		c-0.1,0.1-0.2,0.3-0.2,0.4c0,0.2,0.1,0.4,0.2,0.5c0.2,0.2,0.4,0.3,0.6,0.4l0.8,0.4c0.3,0.1,0.6,0.3,0.8,0.5
		c0.3,0.2,0.5,0.4,0.6,0.7c0.2,0.3,0.3,0.7,0.2,1c0,0.3-0.1,0.6-0.2,0.9c-0.1,0.3-0.3,0.5-0.5,0.7c-0.2,0.2-0.5,0.4-0.8,0.5
		c-0.3,0.1-0.7,0.2-1,0.2c-0.4,0-0.9-0.1-1.3-0.3c-0.3-0.1-0.6-0.3-0.8-0.6c-0.2-0.2-0.4-0.4-0.5-0.6
		C145.7,145.7,145.7,145.6,145.6,145.5z"/>
	<path class="st1" d="M156.7,147c-0.1,0-0.3,0-0.4,0c-0.1-0.3-0.1-0.6-0.2-0.9s-0.1-0.6-0.2-0.9h-0.8c-0.4,0-0.8,0-1.2,0
		c-0.1,0.6-0.3,1.2-0.4,1.8h-0.4h-1h-0.2c0.1-0.6,0.2-1.2,0.4-1.8s0.3-1.2,0.5-1.9s0.4-1.2,0.5-1.9s0.3-1.2,0.5-1.8h0.4h1.3h0.9
		l0.2,0.9c0.1,0.4,0.2,0.8,0.3,1.3s0.2,1,0.4,1.5s0.2,1,0.3,1.5s0.2,0.9,0.2,1.2c0,0.2,0.1,0.5,0.1,0.7v0.3L156.7,147z M154.8,143.7
		h0.5c0.2,0,0.3,0,0.5-0.1c0-0.2-0.1-0.5-0.1-0.7l-0.1-0.7c0-0.1,0-0.1,0-0.3s0-0.2-0.1-0.4c0-0.1-0.1-0.2-0.1-0.3
		c0-0.1-0.1-0.1-0.2-0.1h-0.2c0,0.2-0.1,0.4-0.1,0.6l-0.2,0.6c-0.1,0.2-0.1,0.4-0.2,0.6s-0.1,0.4-0.1,0.6h0.2L154.8,143.7
		L154.8,143.7z"/>
	<path class="st1" d="M163.4,144.2h-1.6h-0.9c0,0.4,0,0.9,0,1.4c0,0.5,0,0.9-0.1,1.4c-0.2,0-0.4,0-0.5,0h-0.5h-0.5
		c0-0.3,0-0.5-0.1-0.8v-2.6c0-0.6,0-1.3,0-1.9s0-1.3,0.1-2c0.6,0,1.2,0,1.8,0h2.5h0.7c0,0.2,0,0.3,0,0.5c0,0.2,0,0.3,0,0.5v0.4
		c-0.2,0-0.4,0-0.5,0h-1.5c-0.5,0-1,0-1.5,0v0.6c0,0.2,0,0.4,0,0.6v0.5l0.4,0.1h1.2h0.9c0,0.2,0,0.5,0,0.7L163.4,144.2z"/>
	<path class="st1" d="M169.1,147c-0.5,0-1,0-1.5,0c-0.5,0-1,0-1.5-0.1c-0.1-0.5-0.1-1-0.1-1.5c0-0.5,0-1.1,0-1.7s0-1.1,0-1.7
		s0-1.1,0-1.6v-0.9h0.4h3.8h0.5c0,0.2,0,0.4,0,0.7v0.3c0,0.1,0,0.2,0,0.3h-0.3c-0.1,0-0.2,0-0.3,0h-1.3c-0.4,0-0.9,0-1.3,0.1
		c0,0.1,0,0.1,0,0.2v1.3c0.4,0,0.8,0,1.1,0c0.4,0,0.8,0,1.3,0c0.7,0,0,0,0,0.1s0,0.1,0,0.2l-0.1,0.9c0,0,0,0.1-0.1,0.1l-0.1,0.1
		h-0.2h-1.1c-0.3,0-0.6,0-0.9,0v0.6v1c0.2,0.1,0.4,0.1,0.6,0.1c0.3,0,0.6,0,0.9,0h0.9c0.3,0,0.5,0,0.8,0c0,0.1,0,0.2,0.1,0.4
		c0,0.1,0,0.2,0,0.4s0,0.2,0,0.4s0,0.2-0.1,0.3L169.1,147z"/>
	<path class="st1" d="M173.7,147c-0.2,0.1-0.3,0.1-0.5,0.1h-0.4c-0.1,0-0.2,0-0.4-0.1c-0.1-0.1-0.1-0.3-0.1-0.4c0-0.1,0-0.3,0-0.4
		c0-0.2,0-0.4,0.1-0.5c0.2-0.1,0.3-0.1,0.5-0.1c0.1,0,0.2,0,0.4,0l0.4,0.1c0.1,0.2,0.2,0.5,0.2,0.7c0,0.1,0,0.2,0,0.3
		C173.8,146.8,173.8,146.9,173.7,147z"/>
	<path class="st1" d="M182.8,143c0.3,0.2,0.6,0.4,0.8,0.7c0.2,0.3,0.3,0.6,0.3,1c0,0.4-0.1,0.8-0.2,1.1c-0.1,0.3-0.3,0.5-0.6,0.7
		c-0.3,0.2-0.5,0.3-0.9,0.4c-0.3,0.1-0.7,0.1-1,0.2c-0.4,0-0.7,0-1.1,0h-1h-0.3c-0.1,0-0.1,0-0.2,0c0,0-0.1-0.1-0.1-0.1
		c0-0.1,0-0.2,0-0.3V140c0-0.2,0.1-0.3,0.2-0.3c0.2-0.1,0.4-0.1,0.6-0.1c0.2,0,0.4,0,0.7,0h0.5c0.3,0,0.7,0,1,0.1
		c0.3,0,0.6,0.1,0.9,0.2c0.3,0.1,0.5,0.3,0.7,0.6c0.2,0.3,0.3,0.6,0.3,1c0,0.3-0.1,0.5-0.2,0.8c-0.1,0.2-0.3,0.5-0.5,0.6L182.8,143z
		 M180,145.7C180,145.7,180.1,145.8,180,145.7l0.2,0.1h0.7c0.2,0,0.4,0,0.6-0.1c0.2-0.1,0.4-0.2,0.5-0.3c0.1-0.2,0.2-0.4,0.2-0.6
		c0-0.2-0.1-0.4-0.2-0.5c-0.2-0.1-0.3-0.2-0.5-0.3c-0.2-0.1-0.4-0.1-0.6-0.1h-0.6c-0.1,0-0.1,0-0.2,0.1c0,0.1-0.1,0.1-0.1,0.2
		c0,0.3,0,0.6,0,0.8S180,145.4,180,145.7z M180.8,142.5c0.1,0,0.3,0,0.4,0c0.1,0,0.2-0.1,0.4-0.1c0.1-0.1,0.2-0.1,0.2-0.2
		c0.1-0.1,0.1-0.3,0.1-0.4c0-0.2,0-0.3-0.1-0.5c-0.1-0.1-0.2-0.2-0.4-0.3c-0.2-0.1-0.3-0.1-0.5-0.1h-0.5h-0.3
		c-0.1,0-0.1,0.1-0.1,0.3v0.5c0,0.2,0,0.3,0,0.5v0.4c0,0,0,0.1,0.1,0.1h0.1L180.8,142.5z"/>
	<path class="st1" d="M188.6,147c-0.5,0-1,0-1.5,0c-0.5,0-1,0-1.5-0.1c-0.1-0.5-0.1-1-0.1-1.5v-1.7c0-0.6,0-1.1,0-1.7s0-1.1,0-1.6
		v-0.9h0.4h3.8h0.5c0,0.2,0,0.4,0,0.7v0.3c0,0.1,0,0.2,0,0.3H190c-0.1,0-0.2,0-0.3,0h-1.3c-0.4,0-0.9,0-1.3,0.1c0,0.1,0,0.1,0,0.2
		v1.3c0.4,0,0.8,0,1.1,0c0.4,0,0.8,0,1.3,0c0,0,0,0,0,0.1s0,0.1,0,0.2l-0.1,0.9c0,0,0,0.1-0.1,0.1l-0.1,0.1H189h-1.1
		c-0.3,0-0.6,0-0.9,0v0.6v1c0.2,0.1,0.4,0.1,0.6,0.1c0.3,0,0.6,0,0.9,0h0.9c0.3,0,0.5,0,0.8,0c0,0.1,0,0.2,0,0.4c0,0.1,0,0.2,0,0.4
		c0,0.1,0,0.2,0,0.4c0,0.1,0,0.2,0,0.3L188.6,147z"/>
	<path class="st1" d="M199.1,147.1c-0.1-0.2-0.2-0.3-0.3-0.5c-0.1-0.2-0.2-0.5-0.4-0.8s-0.2-0.6-0.3-0.8s-0.2-0.5-0.2-0.6
		c-0.1-0.1-0.3-0.1-0.4-0.1h-0.7c-0.1,0-0.2,0-0.3,0c0,0.1,0,0.2,0,0.3v0.3c0,0.3,0,0.7,0,1c0,0.3,0,0.7,0,1L196,147h-1
		c-0.1-0.2-0.1-0.4-0.1-0.6c0-0.3,0-0.7-0.1-1.1s0-0.9,0-1.4s0-1,0-1.5s0-0.9,0-1.3v-0.8c0-0.1,0-0.2,0-0.4c0-0.1,0-0.2,0-0.4
		c0.2,0,0.5-0.1,0.7-0.1h0.7h0.9c0.3,0,0.6,0,0.9,0.1c0.3,0,0.6,0.1,0.9,0.2c0.3,0.1,0.5,0.2,0.7,0.4c0.2,0.2,0.4,0.4,0.5,0.7
		c0.1,0.3,0.2,0.7,0.2,1c0,0.2,0,0.4-0.1,0.6c0,0.2-0.1,0.4-0.2,0.5c-0.1,0.2-0.2,0.3-0.4,0.4c-0.2,0.1-0.3,0.3-0.5,0.4
		c0.1,0.3,0.2,0.5,0.3,0.8c0.1,0.2,0.2,0.5,0.4,0.8s0.2,0.5,0.3,0.8c0.1,0.2,0.2,0.5,0.2,0.7h-0.1L199.1,147.1L199.1,147.1z
		 M196.5,142.9c0,0,0.1,0.1,0.1,0.1c0,0,0.1,0,0.1,0h0.6c0.2,0,0.5,0,0.7-0.1c0.2,0,0.4-0.1,0.5-0.3c0.2-0.2,0.2-0.4,0.2-0.6
		c0-0.2-0.1-0.4-0.2-0.6c-0.1-0.1-0.3-0.2-0.5-0.3c-0.2-0.1-0.4-0.1-0.6-0.1h-0.6c-0.1,0-0.1,0-0.2,0c0,0-0.1,0-0.1,0.1
		c0,0,0,0.1,0,0.1v0.6c0,0.1,0,0.3,0,0.4L196.5,142.9z"/>
	<path class="st1" d="M205.3,147c-0.5,0-1,0-1.5,0c-0.5,0-1,0-1.5-0.1c-0.1-0.5-0.1-1-0.1-1.5c0-0.5,0-1.1,0-1.7s0-1.1,0-1.7
		s0-1.1,0-1.6v-0.9c0.1,0,0.3,0,0.4,0h3.8h0.5c0,0.2,0,0.4,0,0.7v0.3c0,0.1,0,0.2,0,0.3h-0.3c-0.1,0-0.2,0-0.3,0H205
		c-0.4,0-0.9,0-1.3,0.1c0,0.1,0,0.1,0,0.2v0.2v1.1c0.4,0,0.8,0,1.1,0c0.4,0,0.8,0,1.3,0c0.7,0,0,0,0,0.1s0,0.1,0,0.2l-0.1,0.9
		c0,0,0,0.1-0.1,0.1l-0.1,0.1h-0.2h-1.1c-0.3,0-0.6,0-0.9,0v0.6v1c0.2,0.1,0.4,0.1,0.6,0.1c0.3,0,0.6,0,0.9,0h0.9c0.3,0,0.5,0,0.8,0
		c0,0.1,0,0.2,0,0.4s0,0.2,0,0.4s0,0.2,0,0.4s0,0.2,0,0.3L205.3,147z"/>
	<path class="st1" d="M214.4,147h-0.5c-0.2,0-0.3,0-0.5,0c-0.2-0.6-0.4-1.1-0.6-1.7c-0.2-0.6-0.3-1.2-0.4-1.7h-0.1
		c-0.2,0.6-0.4,1.1-0.6,1.7s-0.4,1.1-0.6,1.7h-0.5c-0.1,0-0.3,0-0.4,0h-0.5c-0.2,0-0.3,0-0.5-0.1l-0.2-1c-0.1-0.4-0.1-0.8-0.2-1.2
		s-0.1-0.9-0.2-1.4s-0.1-0.9-0.2-1.4s-0.1-0.8-0.1-1.2s-0.1-0.7-0.1-0.9v-0.2c0.1,0,0.2,0,0.3,0h0.8c0.2,0,0.3,0,0.5,0
		c0.1,0.8,0.2,1.6,0.4,2.4s0.2,1.6,0.3,2.4h0.1c0.1-0.5,0.2-0.9,0.4-1.4c0.2-0.4,0.3-0.9,0.5-1.3c0.1-0.1,0.3-0.1,0.4-0.1h0.9
		l0.4,0.1c0.1,0.5,0.3,1,0.5,1.5c0.2,0.5,0.3,1,0.4,1.5h0.1c0.1-0.8,0.2-1.6,0.3-2.5s0.2-1.7,0.2-2.5c0.1,0,0.2,0,0.3-0.1h0.8
		c0.2,0,0.3,0,0.5,0c0,0.6-0.1,1.2-0.1,1.8s-0.1,1.2-0.2,1.8s-0.2,1.2-0.3,1.9s-0.2,1.2-0.2,1.8L214.4,147z"/>
	<path class="st1" d="M222.2,147h-0.4c-0.1-0.3-0.1-0.6-0.2-0.9s-0.1-0.6-0.2-0.9h-0.8c-0.4,0-0.8,0-1.2,0c-0.1,0.6-0.3,1.2-0.4,1.8
		h-0.4h-1h-0.2c0.1-0.6,0.2-1.2,0.4-1.8c0.1-0.6,0.3-1.2,0.5-1.9s0.4-1.2,0.5-1.9s0.3-1.2,0.5-1.8h0.4h1.4h0.9
		c0.1,0.2,0.1,0.5,0.2,0.9s0.2,0.8,0.3,1.3s0.2,1,0.3,1.5s0.2,1,0.3,1.5s0.2,0.9,0.2,1.2c0,0.2,0.1,0.5,0.1,0.7v0.3L222.2,147z
		 M220.3,143.7h0.5c0.2,0,0.3,0,0.5-0.1c0-0.2-0.1-0.5-0.1-0.7l-0.1-0.7c0-0.1,0-0.2-0.1-0.3c0-0.1,0-0.2-0.1-0.4
		c0-0.1-0.1-0.2-0.1-0.3c0-0.1-0.1-0.1-0.2-0.1h-0.2c0,0.2-0.1,0.4-0.1,0.6l-0.2,0.6c-0.1,0.2-0.1,0.4-0.2,0.6s-0.1,0.4-0.1,0.6h0.2
		L220.3,143.7L220.3,143.7z"/>
	<path class="st1" d="M229,147.1c-0.1-0.2-0.2-0.3-0.3-0.5c-0.1-0.2-0.2-0.5-0.4-0.8s-0.2-0.6-0.3-0.8s-0.2-0.5-0.2-0.6
		c-0.1-0.1-0.3-0.1-0.4-0.1h-0.7c-0.1,0-0.2,0-0.3,0c0,0.1,0,0.2,0,0.3v0.3c0,0.3,0,0.7,0,1c0,0.3,0,0.7,0,1l-0.5,0.1h-1
		c-0.1-0.2-0.1-0.4-0.1-0.6c0-0.3,0-0.7-0.1-1.1s0-0.9,0-1.4s0-1,0-1.5s0-0.9,0-1.3v-0.8c0-0.1,0-0.2,0-0.4c0-0.1,0-0.2,0-0.4
		c0.2,0,0.5-0.1,0.7-0.1h0.7h0.9c0.3,0,0.6,0,0.9,0.1c0.3,0,0.6,0.1,0.9,0.2c0.3,0.1,0.5,0.2,0.7,0.4c0.2,0.2,0.4,0.4,0.5,0.7
		c0.1,0.3,0.2,0.7,0.2,1c0,0.2,0,0.4-0.1,0.6c0,0.2-0.1,0.4-0.2,0.5c-0.1,0.2-0.2,0.3-0.4,0.4c-0.2,0.1-0.3,0.3-0.5,0.4
		c0.1,0.3,0.2,0.5,0.3,0.8c0.1,0.2,0.2,0.5,0.4,0.8s0.2,0.5,0.3,0.8c0.1,0.2,0.2,0.5,0.2,0.7h-0.1H229V147.1z M226.5,142.9
		c0,0,0.1,0.1,0.1,0.1c0,0,0.1,0,0.1,0h0.6c0.2,0,0.5,0,0.7-0.1c0.2,0,0.4-0.1,0.5-0.3c0.2-0.2,0.2-0.4,0.2-0.6
		c0-0.2-0.1-0.4-0.2-0.6c-0.1-0.1-0.3-0.2-0.5-0.3c-0.2-0.1-0.4-0.1-0.6-0.1h-0.6c-0.1,0-0.1,0-0.2,0c0,0-0.1,0.1-0.1,0.1
		c0,0,0,0.1,0,0.1v0.6c0,0.1,0,0.3,0,0.4L226.5,142.9z"/>
	<path class="st1" d="M232.2,146.5v-3.4c0-0.3,0-0.6,0-0.9v-0.9c0-0.3,0-0.6,0-0.9c0-0.3,0.1-0.6,0.2-0.8h1.5c0.6,0,1.3,0.1,1.9,0.2
		c0.5,0.1,0.9,0.3,1.3,0.6c0.4,0.3,0.6,0.8,0.8,1.2c0.2,0.6,0.3,1.3,0.3,2c0,0.5-0.1,0.9-0.2,1.3c-0.1,0.3-0.3,0.7-0.5,0.9
		c-0.2,0.3-0.5,0.5-0.8,0.6c-0.3,0.2-0.7,0.3-1,0.4c-0.4,0.1-0.8,0.1-1.1,0.1c-0.4,0-0.8,0-1.2,0h-0.5c-0.2,0-0.3,0-0.5,0
		L232.2,146.5z M233.9,145.5c0.1,0,0.2,0,0.2,0h0.2c0.6,0.1,1.2-0.1,1.6-0.5c0.4-0.4,0.5-1,0.5-1.6c0-0.4,0-0.7-0.1-1.1
		c-0.1-0.3-0.2-0.5-0.4-0.7c-0.2-0.2-0.4-0.3-0.7-0.4c-0.3-0.1-0.7-0.1-1.1-0.1H234h-0.1c-0.1,0.7-0.1,1.3-0.1,2c0,0.7,0,1.4,0,2.1
		C233.8,145.3,233.8,145.4,233.9,145.5L233.9,145.5z"/>
	<path class="st1" d="M242.9,147c-0.5,0-1,0-1.5,0c-0.5,0-1,0-1.5-0.1c-0.1-0.5-0.1-1-0.1-1.5v-1.7c0-0.6,0-1.1,0-1.7s0-1.1,0-1.6
		v-0.9h0.4h3.8h0.5c0,0.2,0,0.4,0,0.7v0.3c0,0.1,0,0.2,0,0.3h-0.3c-0.1,0-0.2,0-0.3,0h-1.3c-0.4,0-0.9,0-1.3,0.1c0,0.1,0,0.1,0,0.2
		v1.3c0.4,0,0.8,0,1.1,0c0.4,0,0.8,0,1.3,0c0,0,0,0,0,0.1s0,0.1,0,0.2l-0.1,0.9c0,0,0,0.1-0.1,0.1l-0.1,0.1h-0.2h-1.1
		c-0.3,0-0.6,0-0.9,0v0.6v1c0.2,0.1,0.4,0.1,0.6,0.1c0.3,0,0.6,0,0.9,0h0.9c0.3,0,0.5,0,0.8,0c0,0.1,0,0.2,0,0.4c0,0.1,0,0.2,0,0.4
		c0,0.1,0,0.2,0,0.4c0,0.1,0,0.2,0,0.3L242.9,147z"/>
	<path class="st1" d="M246.3,146.5v-3.4c0-0.3,0-0.6,0-0.9s0-0.6,0-0.9s0-0.6,0-0.9c0-0.3,0.1-0.6,0.2-0.8h1.5
		c0.6,0,1.3,0.1,1.9,0.2c0.5,0.1,0.9,0.3,1.3,0.6c0.4,0.3,0.6,0.8,0.8,1.2c0.2,0.6,0.3,1.3,0.3,2c0,0.4-0.1,0.9-0.3,1.3
		c-0.1,0.3-0.3,0.7-0.5,0.9c-0.2,0.3-0.5,0.5-0.8,0.6c-0.3,0.2-0.7,0.3-1,0.4c-0.4,0.1-0.8,0.1-1.1,0.1c-0.4,0-0.8,0-1.2,0h-0.5
		c-0.2,0-0.3,0-0.5,0L246.3,146.5z M248,145.5c0.1,0,0.2,0,0.3,0h0.2c0.6,0,1.2-0.2,1.6-0.6c0.4-0.4,0.5-1,0.5-1.6
		c0-0.4,0-0.7-0.1-1.1c-0.1-0.6-0.5-1-1.1-1.1c-0.3-0.1-0.7-0.1-1.1-0.1h-0.1H248c-0.1,0.7-0.1,1.3-0.1,2c0,0.7,0,1.4,0,2.1
		C248,145.2,248,145.4,248,145.5L248,145.5z"/>
	<path class="st1" d="M255.1,147c-0.2,0.1-0.3,0.1-0.5,0.1h-0.4c-0.1,0-0.2,0-0.4-0.1c-0.1-0.1-0.1-0.3-0.1-0.4c0-0.1,0-0.3,0-0.4
		c0-0.2,0-0.4,0.1-0.5c0.2-0.1,0.3-0.1,0.5-0.1c0.1,0,0.2,0,0.4,0l0.4,0.1c0.1,0.2,0.2,0.5,0.2,0.7c0,0.1,0,0.2,0,0.3
		C255.2,146.8,255.2,146.9,255.1,147z"/>
	<path class="st1" d="M99.5,56h0.6c0.2,0,0.4,0,0.6-0.1c0-0.4-0.1-0.7-0.2-1.1c-0.1-0.3-0.1-0.7-0.2-1.1s-0.1-0.6-0.1-0.8
		s-0.1-0.4-0.1-0.5c0-0.1-0.1-0.2-0.1-0.3c-0.1-0.1-0.2-0.1-0.2-0.1h-0.1h-0.1c0,0.3-0.1,0.6-0.2,1l-0.2,0.9
		C99.1,54.4,99,54.7,99,55s-0.1,0.6-0.1,1L99.5,56L99.5,56z M102.2,60.9c-0.2,0-0.4,0-0.5,0c-0.1-0.5-0.2-0.9-0.3-1.4
		s-0.2-0.9-0.3-1.4h-1c-0.6,0-1.1,0-1.7,0C98.2,59,98,60,97.8,60.8h-0.5h-1h-0.3c-0.1,0-0.2,0-0.3,0c0.1-0.9,0.3-1.8,0.5-2.7
		s0.4-1.9,0.7-2.8s0.5-1.9,0.7-2.8s0.5-1.8,0.6-2.7h0.5h0.5h1.2h1.2c0.1,0.3,0.2,0.7,0.3,1.3s0.3,1.2,0.4,2s0.3,1.5,0.5,2.3
		s0.3,1.5,0.4,2.2s0.2,1.3,0.3,1.8c0.1,0.3,0.1,0.7,0.1,1.1V61L102.2,60.9z"/>
	<path class="st1" d="M116.9,60.9c-0.2,0-0.4,0-0.6,0h-1.1h-0.5c-0.1-0.6-0.1-1.2-0.1-1.9s0-1.3,0-1.9s0-1.3,0-1.9s0-1.3,0-1.9h-0.1
		c-0.1,0.5-0.2,0.9-0.4,1.4c-0.2,0.4-0.3,0.8-0.5,1.2s-0.4,0.8-0.6,1.2s-0.4,0.8-0.6,1.3l-0.5,0.1c-0.1,0-0.3,0.1-0.5,0.1h-0.5
		c-0.1,0-0.2,0-0.4,0l-0.4-0.1l-0.5-0.2c-0.3-0.9-0.7-1.7-1-2.5c-0.3-0.8-0.6-1.7-0.8-2.5h-0.1v2.6c0,0.8,0,1.6,0.1,2.4
		c0.1,0.8,0.1,1.6,0,2.4h-0.4H107h-0.8c-0.2,0-0.5,0-0.8,0c-0.1-0.8-0.1-1.7-0.1-2.5s0-1.7,0-2.6l0.1-2.6c0-0.8,0-1.7,0-2.5v-0.5
		c0-0.2,0-0.3,0-0.5h1h1.2c0.2,0,0.4,0,0.6,0.1l0.6,0.1c0.3,1.1,0.7,2.1,1.1,3.1c0.4,1,0.8,2,1.2,3.1c0.3-0.8,0.6-1.4,0.8-2
		s0.5-1.1,0.7-1.6l0.5-1.4c0.2-0.4,0.3-0.9,0.5-1.4c0.3,0,0.5,0,0.8,0h1.3h0.6h0.6c0.1,0.8,0.2,1.7,0.2,2.5c0,0.8,0,1.7,0,2.6
		s0,1.7-0.1,2.6s0,1.7,0,2.5L116.9,60.9z"/>
	<path class="st1" d="M120.9,54.7c0.1,0,0.2,0,0.2,0h1c0.4,0,0.7-0.1,1.1-0.2c0.3-0.1,0.6-0.2,0.8-0.5c0.2-0.3,0.4-0.6,0.3-1
		c0-0.3-0.1-0.6-0.2-0.9c-0.2-0.2-0.4-0.4-0.6-0.5c-0.3-0.1-0.5-0.2-0.8-0.2c-0.3,0-0.6-0.1-0.9-0.1h-0.3c-0.1,0-0.2,0-0.3,0
		c-0.1,0-0.2,0-0.3,0.1c-0.1,0-0.1,0.1-0.1,0.2c0,0.3,0,0.6,0,1s0,0.6,0,0.9s0,0.4,0,0.6C120.8,54.4,120.8,54.6,120.9,54.7
		 M118.4,60.7c-0.1-0.5-0.1-1-0.1-1.4c0-0.5,0-1,0-1.5s0-1,0-1.5s0-1,0-1.5s0-0.8,0-1.2s0-0.9,0-1.3s0-0.9,0-1.3
		c0-0.4,0.1-0.8,0.2-1.2c0.2,0,0.3-0.1,0.5-0.1h0.5h1.6c0.6,0,1.1,0,1.7,0c0.5,0,1.1,0.1,1.6,0.2c0.5,0.1,1,0.3,1.4,0.6
		c0.4,0.2,0.8,0.6,1,1c0.5,1,0.5,2.3,0,3.3c-0.2,0.5-0.6,0.9-1,1.2c-0.4,0.3-0.9,0.6-1.5,0.7c-0.6,0.2-1.1,0.2-1.7,0.2h-0.7H121
		c0,0.3,0,0.7,0,1.1s0,0.7,0,1.1s0,0.6,0,0.8c0,0.3,0,0.6,0,0.8c-0.2,0-0.4,0.1-0.6,0.1H119C118.8,60.7,118.6,60.7,118.4,60.7"/>
	<path class="st1" d="M133.9,54.1c0.2,0,0.4,0,0.6-0.1c0.2,0,0.4-0.1,0.6-0.2c0.2-0.1,0.3-0.2,0.4-0.4c0.1-0.2,0.2-0.4,0.1-0.6
		c0-0.3-0.1-0.5-0.2-0.7c-0.2-0.2-0.4-0.3-0.6-0.4c-0.2-0.1-0.5-0.2-0.8-0.2c-0.3,0-3.2,0-3.4,0c-0.2,0-0.3,0-0.5,0
		c-0.1,0-0.2,0.2-0.2,0.4v0.7c0,0.2,0,0.5,0,0.7V54c0,0,0,0.1,0.1,0.1h0.2L133.9,54.1z M130,59c0,0,0.1,0.1,0.1,0.1
		c0.1,0,0.1,0,0.2,0c0.3,0,3.3,0,3.7,0c0.3,0,0.7-0.1,1-0.2c0.3-0.1,0.6-0.3,0.8-0.5c0.2-0.3,0.3-0.6,0.3-1c0-0.3-0.1-0.6-0.3-0.8
		c-0.2-0.2-0.5-0.3-0.8-0.4c-0.3-0.1-0.7-0.1-1-0.1h-3.6c-0.1,0-0.2,0-0.3,0.1c-0.1,0.1-0.1,0.2-0.1,0.3c0,0.4,0,0.8,0,1.2
		S129.9,58.5,130,59 M136.9,55c0.5,0.2,0.9,0.6,1.3,1c0.3,0.4,0.5,0.9,0.5,1.5c0,0.6-0.1,1.2-0.3,1.7c-0.2,0.4-0.5,0.8-0.9,1.1
		c-0.4,0.3-0.9,0.5-1.3,0.6c-0.5,0.1-1,0.2-1.6,0.2c-0.6,0-3.7,0-4.3,0h-1.6h-0.5c-0.1,0-0.2,0-0.3-0.1c-0.1,0-0.1-0.1-0.2-0.2
		c0-0.1-0.1-0.3-0.1-0.4v-9.9c0-0.2,0.2-0.4,0.4-0.5c0.3-0.1,0.6-0.2,0.9-0.2c0.3,0,0.7,0,1.1,0c0.4,0,3.3,0,3.5,0
		c0.5,0,1.1,0,1.6,0.1c0.5,0,1,0.2,1.5,0.4c0.4,0.2,0.8,0.5,1.1,0.9c0.8,1.2,0.5,2.8-0.7,3.6L136.9,55z"/>
	<path class="st1" d="M144.6,60.9c-0.8,0-1.6,0-2.4,0.1c-0.8,0-1.6,0-2.3-0.1c-0.1-0.8-0.1-1.5-0.1-2.3c0-0.8,0-1.7,0-2.5
		s0-1.7,0.1-2.5s0-1.6,0-2.4v-1.3c0.2,0,0.5,0,0.7,0h6.5h0.8c0,0.3,0,0.7,0,1v0.5c0,0.2,0,0.3,0,0.5h-0.5h-0.5c-0.7,0-2,0-2.6,0
		c-0.7,0-1.4,0-2.1,0.1c0,0.1,0,0.2,0,0.3v0.3v1.6c0.6,0,1.2,0,1.8,0c0.6,0,1.8,0,2.6,0c0,0,0,0,0.1,0.1l0.1,0.2l-0.1,1.4
		c0,0.1,0,0.1-0.1,0.1c-0.1,0-0.2,0-0.2,0.1c-0.1,0-0.2,0-0.3,0c-0.1,0-1.8,0-2.3,0s-1,0-1.4,0V57v1.5c0.3,0.1,0.7,0.2,1,0.2
		c0.4,0,0.9,0,1.4,0l2-0.1c0.4,0,0.8,0,1.2,0c0,0.2,0.1,0.4,0.1,0.6s0,0.4,0,0.5c0,0.2,0,0.4,0,0.5c0,0.2,0,0.3-0.1,0.5L144.6,60.9z
		"/>
	<path class="st1" d="M149,49.8c0.2,0,0.5,0,0.8,0h0.8c0.2,0,0.5,0,0.7,0c0.1,1,0.1,2,0.1,3v4.4c0,0.5,0,1,0,1.4c0.8,0,1.6,0,2.4,0
		c0.7,0,1.3,0,2,0.1c0.1,0.3,0.1,0.5,0.1,0.8c0,0.3,0,0.6,0,0.8c0,0.2,0,0.4,0,0.5c-0.2,0-0.4,0-0.6,0h-3.1c-1,0-2,0-3.1-0.1
		c-0.1-0.8-0.1-1.6-0.1-2.4s0-1.7,0-2.5s0-1.7,0.1-2.5s0-1.7,0-2.5L149,49.8z"/>
	<path class="st1" d="M156.5,49.8c0.2,0,0.5,0,0.8,0h0.8c0.2,0,0.5,0,0.7,0c0.1,1,0.1,2,0.1,3v4.4c0,0.5,0,1,0,1.4
		c0.8,0,1.6,0,2.4,0c0.7,0,1.3,0,2,0.1c0,0.3,0.1,0.5,0.1,0.8c0,0.3,0,0.6,0,0.8c0,0.2,0,0.4,0,0.5c-0.2,0-0.4,0-0.7,0h-3.1
		c-1,0-2,0-3.1-0.1c-0.1-0.8-0.1-1.6-0.1-2.4s0-1.7,0-2.5s0-1.7,0.1-2.5s0-1.7,0-2.5L156.5,49.8z"/>
	<path class="st1" d="M89.7,60.9c-0.8,0-1.6,0-2.4,0.1c-0.8,0-1.6,0-2.3-0.1c-0.1-0.8-0.1-1.5-0.2-2.3c0-0.8,0-1.7,0-2.5
		s0-1.7,0.1-2.5s0-1.6,0-2.4v-1.3c0.2,0,0.5,0,0.7,0H93h0.8c0,0.3,0,0.7,0,1v0.5c0,0.2,0,0.3,0,0.5h-0.5h-0.5c-0.7,0-2.9,0-3.6,0
		c-0.7,0-1.4,0-2.1,0.1c0,0.1,0,0.2,0,0.3v6.3c0.3,0.1,0.7,0.2,1,0.2c0.4,0,0.9,0,1.4,0s2.5,0,2.9-0.1c0.4,0,0.8,0,1.2,0
		c0,0.2,0.1,0.4,0.1,0.6s0,0.4,0,0.5c0,0.2,0,0.4,0,0.5c0,0.2,0,0.3-0.1,0.5L89.7,60.9z"/>
	<path class="st1" d="M170.8,54.8c0,0,0.1,0.1,0.2,0.1c0.1,0,0.1,0,0.2,0h1c0.8,0,1.5-0.1,2.3-0.2c0.3-0.1,0.6-0.2,0.8-0.5
		c0.3-0.3,0.4-0.6,0.3-1c0-0.3-0.1-0.7-0.3-0.9c-0.2-0.2-0.5-0.4-0.8-0.5c-0.8-0.1-1.5-0.1-2.3-0.2h-1c-0.1,0-0.2,0-0.3,0
		c-0.1,0-0.1,0.1-0.1,0.1c0,0.1,0,0.1,0,0.2c0,0.1,0,0.2,0,0.3c0,0.2,0,0.4,0,0.6s0,0.4,0,0.6L170.8,54.8z M176,61
		c-0.2-0.2-0.3-0.5-0.4-0.8c-0.2-0.4-0.4-0.8-0.6-1.2s-0.4-0.9-0.5-1.3s-0.3-0.7-0.3-0.9c-0.6-0.1-1.3-0.1-1.9-0.1h-1.1
		c-0.1,0-0.3,0-0.4,0c0,0.2,0,0.3,0,0.5v0.5c0,0.5,0,1,0.1,1.6c0,0.5,0,1-0.1,1.5c-0.3,0.1-0.6,0.1-0.8,0.1h-0.8h-0.7
		c-0.1-0.3-0.1-0.5-0.1-0.8c0-0.5-0.1-1-0.1-1.7s0-1.4,0-2.2v-2.2c0-0.7,0-1.3,0-1.9s0-0.9,0-1.2s0-0.4,0-0.6c0-0.2,0-0.4,0.1-0.6
		c0.4-0.1,0.8-0.1,1.1-0.1h1.1h1.4c0.5,0,2.2,0,2.7,0.1c0.5,0.1,0.9,0.2,1.4,0.3c0.4,0.1,0.8,0.3,1.1,0.6c0.3,0.3,0.6,0.6,0.8,1
		c0.2,0.5,0.3,1,0.3,1.5c0,0.3,0,0.6-0.1,1c-0.1,0.3-0.2,0.5-0.3,0.8c-0.1,0.3-0.3,0.5-0.5,0.7c-0.2,0.2-0.5,0.4-0.8,0.6
		c0.1,0.4,0.3,0.8,0.4,1.1c0.2,0.4,0.4,0.8,0.6,1.2s0.4,0.8,0.5,1.1c0.1,0.4,0.2,0.7,0.3,1.1l-0.2,0.1c-0.1,0-0.1,0-0.2,0L176,61z"
		/>
	<path class="st1" d="M181.6,61.1h-2h-0.2c0-0.2,0-4,0-4.2s0-1.4,0-1.7v-3.7c0-0.2,0-0.5,0-0.8s0-0.5,0-0.8h0.6h0.6h1.1h0.1h0.1
		c0,1.8,0.1,8.9,0,11.1L181.6,61.1z"/>
	<path class="st1" d="M188.5,61.1h-2.4c-0.2-0.4-0.3-0.9-0.4-1.3c-0.2-0.6-0.4-1.2-0.6-2s-0.4-1.5-0.6-2.3s-0.4-1.6-0.6-2.3
		s-0.3-1.4-0.4-1.9c-0.1-0.4-0.1-0.9-0.2-1.3c0.1,0,0.2,0,0.3,0h1.9c0.4,0.6,0.6,1.3,0.9,2c0.2,0.7,0.4,1.4,0.6,2.1
		c0.2,0.7,0.3,1.5,0.5,2.2s0.3,1.4,0.4,2.1h0.2c0-0.2,0.1-0.6,0.2-1.1s0.2-1,0.4-1.6s0.3-1.2,0.5-1.8s0.4-1.2,0.5-1.7s0.4-1,0.5-1.4
		c0.1-0.3,0.2-0.6,0.4-0.8h2.2c0,0.4-0.1,0.8-0.2,1.3c-0.1,0.5-0.3,1.2-0.5,1.9s-0.4,1.5-0.7,2.2s-0.5,1.5-0.8,2.3s-0.5,1.4-0.7,2
		s-0.4,1.1-0.5,1.5L188.5,61.1z"/>
	<path class="st1" d="M198.6,61c-0.8,0-1.6,0-2.4,0.1c-0.8,0-1.6,0-2.3-0.1c-0.1-0.8-0.1-1.5-0.1-2.3c0-0.8,0-1.7,0-2.5
		s0-1.7,0.1-2.5s0-1.6,0-2.3v-1.3h0.7h6.8h2.1c0,0.3,0,0.7,0,1v0.5c0,0.2,0,0.3,0,0.5h-0.5c-0.2,0-1.6,0-1.7,0c-0.7,0-2.2,0-2.9,0
		c-0.7,0-1.4,0-2.1,0.1c0,0.1,0,0.2,0,0.3v0.3v1.7c0.6,0,1.2,0,1.8,0c0.6,0,2.1,0,2.8,0c0,0,0,0,0.1,0.1l0.1,0.2l-0.1,1.4
		c0,0.1,0,0.1-0.1,0.1c-0.1,0-0.2,0.1-0.2,0.1c-0.1,0-1,0-1.1,0h-1.7c-0.5,0-1,0-1.4,0v0.9v1.5c0.3,0.1,0.7,0.2,1,0.2
		c0.5,0,0.9,0,1.4,0l2.3-0.1c0.5,0,2.2,0,2.5,0c0,0.2,0.1,0.4,0.1,0.5c0,0.2,0,0.4,0,0.5c0,0.2,0,0.4,0,0.5c0,0.2-0.1,0.3-0.1,0.5
		L198.6,61z"/>
	<path class="st1" d="M206.4,54.7c0,0.1,0.1,0.1,0.2,0.1c0.1,0,0.1,0,0.2,0h2.4c0.4,0,0.7-0.1,1.1-0.2c0.3-0.1,0.6-0.2,0.8-0.5
		c0.2-0.3,0.4-0.6,0.3-1c0-0.3-0.1-0.7-0.3-0.9c-0.2-0.2-0.5-0.4-0.8-0.4c-0.3-0.1-0.7-0.1-1-0.2H207c-0.1,0-0.2,0-0.3,0
		c-0.1,0-0.1,0.1-0.1,0.1c0,0.1,0,0.1,0,0.2c0,0.1,0,0.2,0,0.3s0,0.4,0,0.6s0,0.4,0,0.6L206.4,54.7z M214.9,58.9
		c0,0.3,0.1,0.6,0.1,0.9c0.1,0.3,0.1,0.6,0.1,0.9c0,0.1-0.1,0.2-0.2,0.3c-0.1,0.1-0.3,0.1-0.4,0.1c-0.2,0-0.3,0-0.5,0h-0.4
		c-0.4,0-0.9-0.1-1.3-0.3c-0.4-0.2-0.7-0.4-1-0.7c-0.3-0.3-0.6-0.6-0.8-1c-0.2-0.4-0.4-0.8-0.6-1.2l-0.4-1.1
		c-0.1-0.1-0.3-0.1-0.4-0.1h-2.3c-0.1,0-0.3,0-0.4,0c0,0.2,0,0.3,0,0.5v0.5c0,0.5,0,1,0.1,1.5c0,0.5,0,1-0.1,1.6
		c-0.3,0.1-0.6,0.1-0.8,0.1h-1.5c-0.1-0.3-0.1-0.5-0.1-0.8c0-0.5-0.1-1-0.1-1.7s0-1.4,0-2.2V54c0-0.7,0-1.3,0-1.9s0-0.9,0-1.2
		s0-0.4,0-0.6c0-0.2,0-0.4,0.1-0.5c0.4-0.1,0.8-0.1,1.1-0.1h1.1h2.8c0.5,0,1,0,1.4,0.1c0.5,0.1,0.9,0.2,1.4,0.3
		c0.4,0.1,0.8,0.3,1.1,0.6c0.3,0.3,0.6,0.6,0.8,1c0.2,0.5,0.3,1,0.3,1.5c0,0.3,0,0.7-0.1,1c-0.1,0.3-0.2,0.5-0.4,0.8
		c-0.2,0.3-0.4,0.5-0.7,0.7c-0.3,0.2-0.6,0.4-0.9,0.6c0.1,0.3,0.2,0.6,0.4,0.9c0.2,0.3,0.3,0.6,0.5,0.8c0.2,0.2,0.4,0.4,0.6,0.6
		c0.2,0.1,0.4,0.2,0.6,0.2c0.1,0,0.2,0,0.4,0C214.5,58.9,214.7,58.8,214.9,58.9L214.9,58.9z"/>
	<path class="st1" d="M163.6,103.5h-0.1h-0.3h-0.4c-0.2,0-0.4,0-0.6,0.1c-0.2,0.1-0.4,0.2-0.6,0.3c-0.1,0.1-0.1,0.1-0.2,0.1
		l-0.4,0.2c-0.2,0.1-0.3,0.2-0.5,0.2l-0.3,0.2c-0.1,0.1-0.3,0.2-0.4,0.3h-0.1c-0.2,0.1-0.5,0.2-0.7,0.3c-0.3,0.1-0.6,0.1-0.9,0.1
		c-0.3,0-0.6,0-0.9-0.1l-0.2-0.1H157h-0.2c0,0-0.1-0.1-0.1-0.1c-0.1-0.1-0.3-0.2-0.4-0.3c-0.2-0.1-0.3-0.2-0.5-0.3l-0.2-0.1
		c-0.2-0.2-0.4-0.3-0.6-0.4l-0.3-0.2c-0.1,0-0.1-0.1-0.2-0.1c-0.1-0.1-0.2-0.1-0.4-0.1l-0.1-0.1c-0.1,0-0.2-0.1-0.3-0.1
		c-0.2-0.1-0.5-0.2-0.8-0.3c-0.3,0-0.6,0-0.9,0h-0.4c-0.3,0-0.6,0-0.9,0c-0.3,0.1-0.7,0.1-1,0.2c-0.2,0.1-0.4,0.2-0.5,0.3l-0.2,0.2
		l-0.2,0.1c-0.2,0.1-0.4,0.2-0.6,0.3c-0.1,0.1-0.3,0.2-0.5,0.2c-0.1,0-0.2,0.1-0.3,0.2c-0.1,0-0.1,0.1-0.2,0.1
		c-0.2,0.1-0.3,0.2-0.5,0.2h-0.1c-0.2,0.1-0.5,0.1-0.7,0.1c-0.3,0-0.6,0-0.9-0.1c-0.2,0-0.4-0.1-0.5-0.2l-0.2-0.2
		c-0.1-0.1-0.2-0.2-0.3-0.3l-0.3-0.2c-0.1-0.1-0.3-0.2-0.5-0.2l-0.4-0.2c-0.3-0.2-0.5-0.3-0.8-0.4c-0.3-0.1-0.7-0.2-1-0.2h-0.2
		c-0.2-0.1-0.5-0.1-0.7-0.1h-0.2c-0.3,0-0.5,0-0.8,0c-0.3,0.1-0.5,0.1-0.8,0.2l-0.2,0.1l-0.2,0.1c-0.2,0.1-0.5,0.2-0.7,0.3
		c-0.2,0.1-0.4,0.3-0.6,0.4l-0.1,0.1h-0.1l0,0c0,0.3,0.1,0.5,0.2,0.7l0.1,0.1c0.1,0.1,0.2,0.2,0.3,0.2c0.1,0,0.2,0,0.3-0.1l0.1-0.1
		l0.1-0.1c0.2-0.2,0.5-0.3,0.7-0.4c0.2-0.2,0.5-0.3,0.8-0.3c0.2,0,0.3,0,0.5,0c0.1,0,0.3,0,0.4,0c0.3,0,0.6,0,0.9,0.1
		c0.3,0.1,0.5,0.2,0.8,0.3c0.1,0.1,0.2,0.2,0.3,0.3c0.1,0.1,0.2,0.2,0.3,0.2c0.2,0.2,0.5,0.3,0.7,0.5l0,0c0.2,0.1,0.4,0.2,0.6,0.2
		c0.1,0,0.3,0.1,0.4,0.1l0.2,0.1c0.2,0.1,0.5,0.2,0.7,0.2c0.3,0.1,0.7,0.1,1,0.1c0.2,0,0.5,0,0.7-0.1h0.3h0.4c0.2,0,0.4,0,0.6-0.1
		c0.2-0.1,0.4-0.2,0.6-0.3l0.2-0.1l0.4-0.2c0.2-0.1,0.3-0.2,0.5-0.2l0.3-0.2c0.1-0.1,0.3-0.2,0.4-0.3h0.1c0.2-0.1,0.5-0.2,0.7-0.3
		c0.3-0.1,0.6-0.1,0.9-0.1c0.3,0,0.6,0,0.9,0.1h0.2h0.1h0.2c0,0,0.1,0.1,0.1,0.1c0.1,0.1,0.3,0.2,0.4,0.3c0.2,0.1,0.3,0.2,0.5,0.3
		l0.2,0.1c0.2,0.2,0.4,0.3,0.6,0.4l0.3,0.2l0.2,0.1c0.1,0.1,0.2,0.1,0.4,0.1l0.1,0.1c0.1,0,0.2,0.1,0.3,0.1c0.2,0.1,0.5,0.2,0.8,0.3
		c0.3,0,0.6,0,0.9,0h0.4c0.3,0,0.6,0,0.9,0c0.3-0.1,0.7-0.1,1-0.2c0.2-0.1,0.4-0.2,0.5-0.3l0.3,0l0.2-0.1c0.2-0.1,0.4-0.2,0.6-0.3
		c0.1-0.1,0.3-0.2,0.5-0.2c0.1,0,0.2-0.1,0.3-0.2c0.1,0,0.1-0.1,0.2-0.1c0.2-0.1,0.3-0.2,0.5-0.2h0.1l0.3-0.1c0.1,0,0.1-0.2,0.1-0.2
		c0,0,0-0.1,0-0.1c0-0.2,0.1-0.4,0-0.5S163.6,103.6,163.6,103.5"/>
	<path class="st1" d="M163.4,106.6c-0.1,0-0.2,0-0.2,0c-0.3,0-0.6,0.1-0.9,0.2c-0.2,0.1-0.4,0.2-0.5,0.3l-0.2,0.1l-0.2,0.1
		c-0.2,0.1-0.4,0.2-0.5,0.3c-0.2,0.1-0.4,0.3-0.7,0.4c-0.2,0.1-0.5,0.2-0.7,0.2l-0.2,0.1c-0.2,0.1-0.4,0.1-0.6,0.1
		c-0.2,0-0.4,0-0.6,0h-0.3h-0.1c-0.2,0-0.5-0.1-0.7-0.1c-0.2-0.1-0.4-0.1-0.6-0.2L156,108l-0.2-0.1l-0.4-0.3
		c-0.1-0.1-0.3-0.1-0.4-0.2l-0.4-0.3c0,0,0,0-0.1,0l0,0c-0.1-0.1-0.3-0.1-0.4-0.1c-0.1-0.1-0.3-0.1-0.4-0.2
		c-0.3-0.1-0.7-0.2-1.1-0.2c-0.2,0-0.4,0-0.6,0c-0.2,0-0.3,0-0.5,0c-0.1,0-0.3,0-0.4,0c-0.2,0-0.4,0-0.6,0c-0.2,0-0.4,0.1-0.6,0.2
		l-0.3,0.1l-0.3,0.1c-0.2,0-0.4,0.1-0.6,0.2c-0.2,0.1-0.3,0.2-0.4,0.3c-0.1,0.1-0.1,0.1-0.2,0.2c-0.1,0.1-0.3,0.2-0.5,0.3
		c-0.1,0-0.2,0.1-0.2,0.1c-0.2,0.1-0.5,0.2-0.8,0.2h-0.1c-0.2,0.1-0.5,0.1-0.7,0.1c-0.3,0-0.6,0-0.9-0.1c-0.3-0.1-0.5-0.2-0.8-0.3
		l-0.4-0.2c-0.2-0.1-0.3-0.1-0.4-0.2c-0.1-0.1-0.2-0.1-0.2-0.2c-0.1-0.1-0.3-0.2-0.4-0.3c-0.3-0.1-0.5-0.3-0.8-0.3h-0.1l-0.2-0.1
		c-0.2-0.1-0.4-0.2-0.7-0.2c-0.3,0-0.7,0-1,0c-0.3,0-0.6,0-0.9,0.1H139h-0.3c-0.2,0-0.5,0.1-0.7,0.1c-0.2,0.1-0.4,0.2-0.5,0.3
		c-0.1,0.1-0.2,0.1-0.2,0.2c-0.2,0.1-0.5,0.3-0.7,0.5c-0.1,0.3-0.1,0.6,0.1,0.9c0.2,0.3,0.6,0.3,0.9,0.1h0.1h0.1
		c0.1-0.1,0.2-0.2,0.3-0.3c0.1-0.1,0.2-0.2,0.3-0.3c0.3-0.1,0.5-0.3,0.8-0.3c0.3-0.1,0.6-0.1,0.9-0.1c0.3,0,0.6,0.1,0.9,0.1l0,0
		c0.3,0.1,0.6,0.2,0.8,0.3c0.2,0.1,0.5,0.3,0.7,0.5l0.3,0.2c0.1,0.1,0.3,0.2,0.4,0.3l0.2,0.1c0.2,0.1,0.4,0.3,0.6,0.3
		c0.2,0.1,0.4,0.1,0.6,0.1h0.4c0.1,0,0.2,0,0.3,0.1c0.2,0.1,0.4,0.1,0.7,0.1c0.3,0,0.7,0,1-0.1c0.2,0,0.4-0.1,0.6-0.2l0.2-0.1
		l0.3-0.1c0.2,0,0.4-0.1,0.6-0.2c0.1-0.1,0.3-0.2,0.4-0.3c0.1-0.1,0.1-0.1,0.2-0.2c0.1-0.1,0.3-0.2,0.4-0.2l0.2-0.1l0.2-0.1
		c0.2-0.1,0.3-0.2,0.5-0.2c0.1,0,0.3,0,0.4,0c0.2,0,0.3,0,0.5,0h0.4c0.2,0,0.4,0,0.6,0h0.2c0.2,0,0.5,0.1,0.7,0.2
		c0.2,0.1,0.4,0.2,0.5,0.3c0.1,0,0.1,0.1,0.2,0.2c0.1,0.1,0.2,0.1,0.4,0.2l0.2,0.1c0.1,0,0.1,0.1,0.2,0.1h0.1l0.4,0.2l0.2,0.1
		l0.6,0.2h0.1c0.2,0,0.4,0.1,0.7,0.1h0.5h0.4c0.3,0,0.5,0.1,0.8,0.1c0.3,0,0.6,0,0.9-0.1h0.1c0.3,0,0.6-0.1,0.9-0.2
		c0.2-0.1,0.4-0.2,0.6-0.3l0.2-0.1c0.1-0.1,0.2-0.1,0.4-0.2c0.2,0,0.3-0.1,0.4-0.2l0.1-0.1c0.2-0.1,0.4-0.2,0.6-0.3l0.1-0.1
		c0.2-0.1,0.4-0.2,0.6-0.2c0.1-0.2,0.4-0.4,0.4-0.5C163.7,107.2,163.6,106.9,163.4,106.6"/>
	<path class="st1" d="M163.9,101.1c0-0.1-0.1-0.2-0.1-0.3c-0.1-0.2-0.1-0.3-0.2-0.5c-0.1,0-0.2-0.1-0.3-0.1h-0.2
		c-0.2,0-0.4,0.1-0.6,0.2l-0.2,0.1l-0.3,0.1c-0.2,0-0.4,0.1-0.6,0.2c-0.1,0.1-0.3,0.2-0.4,0.3c-0.1,0.1-0.1,0.1-0.2,0.2
		c-0.1,0.1-0.3,0.2-0.4,0.2l-0.3,0.1l-0.2,0.1c-0.2,0.1-0.3,0.2-0.5,0.2c-0.1,0-0.3,0-0.4,0c-0.2,0-0.3,0-0.5,0h-0.4
		c-0.2,0-0.4,0-0.6,0h-0.2c-0.2,0-0.5-0.1-0.7-0.2c-0.2-0.1-0.4-0.2-0.5-0.3l-0.2-0.2c-0.1-0.1-0.2-0.1-0.4-0.2l-0.2-0.1
		c-0.1,0-0.1-0.1-0.2-0.1H155l-0.4-0.2l-0.3-0.2c-0.2-0.1-0.4-0.2-0.6-0.1c-0.2,0-0.4,0-0.7,0h-0.5h-0.4c-0.3,0-0.5-0.1-0.8-0.1
		c-0.3,0-0.6,0-0.9,0.1h-0.1c-0.3,0-0.6,0.1-0.9,0.2c-0.2,0.1-0.4,0.2-0.6,0.3l-0.2,0.1c-0.1,0.1-0.2,0.1-0.4,0.2
		c-0.2,0-0.3,0.1-0.4,0.2l-0.1,0.1c-0.2,0.1-0.4,0.2-0.6,0.3l-0.1,0.1c-0.2,0.1-0.4,0.2-0.6,0.2c-0.3,0-0.5,0.1-0.8,0.1
		c-0.3,0-0.6,0-0.8-0.1c-0.2-0.1-0.5-0.1-0.7-0.3c-0.1-0.1-0.2-0.1-0.4-0.2c-0.1,0-0.3-0.1-0.4-0.2l-0.2-0.2
		c-0.1-0.1-0.3-0.2-0.4-0.3l-0.2-0.1c-0.2-0.1-0.3-0.2-0.5-0.3c-0.2-0.1-0.4-0.1-0.6-0.1h-0.3c-0.3,0-0.6-0.1-0.9-0.1h-0.4
		c-0.2,0-0.5,0-0.7,0c-0.3,0-0.6,0.1-0.8,0.2l-0.2,0.1c-0.2,0.1-0.5,0.2-0.7,0.3l-0.2,0.1l0,0c-0.3,0.1-0.6,0.3-0.8,0.4
		c0,0,0,0.1,0,0.1c0,0.2,0.1,0.3,0.2,0.5l0,0l0,0c0,0.1,0.1,0.1,0.1,0.2c0.1,0,0.1,0.1,0.2,0.1c0.2,0.1,0.4,0,0.6-0.1
		c0.2-0.1,0.4-0.2,0.7-0.3l0.2-0.1c0.3-0.1,0.7-0.2,1-0.2c0.1,0,0.3,0,0.4-0.1c0.2-0.1,0.4-0.1,0.7-0.1c0.2,0,0.5,0,0.7,0.1h0.1
		c0.3,0,0.5,0.1,0.8,0.3c0.1,0.1,0.3,0.2,0.4,0.3l0.2,0.2c0.1,0.1,0.3,0.2,0.4,0.2l0.3,0.2c0.1,0,0.2,0.1,0.2,0.2
		c0.1,0.1,0.3,0.2,0.5,0.3c0.2,0.1,0.4,0.1,0.6,0.1c0.1,0,0.3,0,0.4,0c0.3,0,0.6,0.1,0.9,0.1h0.4c0.2,0,0.4,0,0.6,0
		c0.3,0,0.6-0.1,0.9-0.2c0.2-0.1,0.4-0.2,0.5-0.3l0.2-0.1l0.2-0.1c0.2-0.1,0.4-0.2,0.5-0.3c0.2-0.1,0.4-0.3,0.7-0.4
		c0.2-0.1,0.5-0.2,0.7-0.2l0.2-0.1c0.2-0.1,0.4-0.1,0.6-0.1c0.2,0,0.4,0,0.6,0h0.3h0.1c0.2,0,0.5,0.1,0.7,0.1
		c0.2,0.1,0.4,0.1,0.6,0.2l0.2,0.1l0.2,0.1l0.4,0.3c0.1,0.1,0.3,0.1,0.4,0.2l0.4,0.3h0.1l0,0c0.1,0.1,0.3,0.1,0.4,0.1
		c0.1,0.1,0.3,0.1,0.4,0.2c0.3,0.1,0.7,0.2,1.1,0.2c0.2,0,0.4,0,0.6,0c0.2,0,0.3,0,0.5,0c0.1,0,0.3,0,0.4,0h0.1
		c0.5-0.1,1-0.2,1.5-0.4c0.3-0.1,0.6-0.2,0.9-0.3l0.2-0.2c0.1-0.1,0.1-0.1,0.2-0.2c0.1-0.1,0.3-0.2,0.5-0.3l0.2-0.1
		c0.2-0.1,0.5-0.2,0.8-0.2h0.1h0.1c0.1-0.1,0.3-0.3,0.4-0.4l0,0"/>
	<rect x="171.4" y="103.9" class="st2" width="70.1" height="1"/>
	<rect x="58.6" y="103.9" class="st2" width="69.4" height="1"/>
	<path class="st1" d="M53,81.7c0-1.1,0.1-2.3,0.4-3.4c0.3-1,0.7-2,1.3-2.9c0.6-0.8,1.3-1.5,2.2-2c1-0.5,2-0.8,3.1-0.8
		c0.6,0,1.2,0.1,1.8,0.2c0.6,0.1,1.2,0.3,1.8,0.6c0.6,0.3,1.1,0.6,1.5,1c0.4,0.4,0.8,1,1.1,1.5c-0.2,0.3-0.5,0.5-0.7,0.8
		c-0.3,0.2-0.5,0.4-0.8,0.6c-0.3,0.2-0.5,0.3-0.7,0.4c-0.2,0.1-0.4,0.2-0.6,0.4c-0.2-0.6-0.7-1.1-1.3-1.4c-0.5-0.2-1.1-0.4-1.7-0.4
		c-0.6,0-1.2,0.1-1.8,0.4c-0.5,0.3-0.9,0.6-1.1,1.1c-0.3,0.5-0.5,1.1-0.6,1.6c-0.1,0.7-0.2,1.4-0.2,2.1c0,0.6,0.1,1.1,0.2,1.7
		c0.1,0.6,0.2,1.1,0.5,1.6c0.2,0.5,0.6,0.9,1.1,1.2c0.9,0.5,2,0.6,3,0.3c0.3-0.1,0.6-0.3,0.8-0.5c0.2-0.2,0.5-0.5,0.6-0.8l0.8-1.1
		c0.5,0,1,0.2,1.5,0.4c0.5,0.3,1,0.5,1.4,0.8c-0.2,0.7-0.5,1.3-0.8,1.9c-0.4,0.6-0.8,1.1-1.4,1.5c-0.6,0.4-1.2,0.8-1.9,1
		c-0.8,0.3-1.6,0.4-2.5,0.4c-1,0-2.1-0.2-3-0.6c-0.9-0.4-1.6-1-2.2-1.8c-0.6-0.8-1.1-1.7-1.4-2.7C53.1,84,53,82.8,53,81.7z"/>
	<path class="st1" d="M82,90.2c-1.2,0-2.3-0.2-3.4-0.7c-0.9-0.5-1.7-1.2-2.3-2c-0.6-0.9-1-1.8-1.3-2.9c-0.3-1.1-0.4-2.3-0.4-3.4
		c0-1,0.2-2,0.4-3c0.3-1,0.7-1.9,1.3-2.7c0.6-0.8,1.3-1.5,2.2-2c0.9-0.5,1.9-0.8,2.9-0.8c1.1,0,2.3,0.2,3.3,0.7
		c0.9,0.5,1.7,1.1,2.3,1.9c0.7,0.8,1.2,1.7,1.5,2.7c0.3,1.1,0.5,2.2,0.5,3.3c0,1.1-0.1,2.1-0.4,3.2c-0.3,1-0.7,2-1.3,2.9
		c-0.6,0.8-1.3,1.6-2.2,2.1C84.1,89.9,83.1,90.2,82,90.2z M81.8,86.6c0.6,0,1.3-0.1,1.8-0.5c0.5-0.3,0.9-0.8,1.2-1.3
		c0.3-0.5,0.5-1.1,0.6-1.7c0.1-0.6,0.2-1.2,0.2-1.8c0-0.6-0.1-1.2-0.2-1.8c-0.1-0.6-0.3-1.1-0.6-1.7c-0.3-0.5-0.6-0.9-1.1-1.2
		c-0.5-0.3-1.1-0.5-1.8-0.5c-0.7,0-1.4,0.2-2,0.6c-0.5,0.4-0.9,0.9-1.2,1.5c-0.3,0.6-0.5,1.3-0.6,2c-0.1,0.7-0.1,1.3-0.1,2
		c0,0.5,0.1,1.1,0.2,1.6c0.1,0.5,0.4,1,0.7,1.4c0.3,0.4,0.7,0.8,1.2,1C80.7,86.5,81.2,86.6,81.8,86.6L81.8,86.6z"/>
	<path class="st1" d="M98.2,73.1l1.1-0.1h1.1c0.3,0,0.7,0,1,0.1c0.1,1.5,0.2,3,0.2,4.6v6.7c0,0.7,0,1.4,0,2.2c1.1,0,2.3,0.1,3.4,0
		c1.1,0,2.3,0,3.4,0.1c0.1,0.4,0.1,0.8,0.1,1.2c0,0.4,0,0.8,0,1.2c0,0.3,0,0.6-0.1,0.8c-0.5,0-1,0.1-1.5,0.1h-4.4
		c-1.5,0-3-0.1-4.4-0.2c0-1.2-0.1-2.5-0.1-3.7c0-1.3,0-2.5,0-3.8s0-2.5,0.1-3.8s0-2.5,0-3.7L98.2,73.1z"/>
	<path class="st1" d="M117,73.1l1.1-0.1h1.1c0.3,0,0.7,0,1,0.1c0.1,1.5,0.2,3,0.2,4.6v6.7c0,0.7,0,1.4,0,2.2c1.1,0,2.3,0.1,3.4,0
		c1.1,0,2.3,0,3.4,0.1c0.1,0.4,0.1,0.8,0.1,1.2c0,0.4,0,0.8,0,1.2c0,0.3,0,0.6-0.1,0.8c-0.5,0-1,0.1-1.5,0.1h-4.4
		c-1.5,0-3-0.1-4.4-0.2c-0.1-1.2-0.2-2.5-0.2-3.7c0-1.3,0-2.5,0-3.8s0-2.5,0.1-3.8s0-2.5,0-3.7L117,73.1z"/>
	<path class="st1" d="M142.8,89.9c-1.1,0-2.3,0-3.5,0.1c-1.1,0.1-2.3,0-3.4-0.2c-0.1-1.2-0.2-2.3-0.2-3.5c0-1.2,0-2.5,0-3.8
		s0-2.6,0.1-3.8s0.1-2.5,0.1-3.6v-2c0.3,0,0.7,0,1-0.1h1h7.6l1.2,0.1c0.1,0.5,0.1,1,0.1,1.5v0.7c0,0.2,0,0.5-0.1,0.7l-0.7,0.1
		c-0.2,0-0.4,0-0.7,0c-1,0-2,0-3,0c-1,0-2,0-3,0.2c0,0.2,0,0.3,0,0.5v0.5v2.5c0.9,0.1,1.7,0.1,2.6,0.1c0.8,0,1.8-0.1,2.9-0.1
		c1.6,0,0.1,0.1,0.1,0.2s0,0.2,0.1,0.4l-0.1,2.1c0,0.1-0.1,0.2-0.1,0.2c-0.1,0-0.2,0.1-0.3,0.1h-0.4h-2.5c-0.7,0-1.4,0-2.1,0v1.4
		v2.2c0.4,0.2,0.9,0.3,1.4,0.3c0.6,0,1.3,0,2,0l2.1-0.1c0.6,0,1.2,0,1.8,0c0,0.3,0.1,0.6,0.1,0.8s0,0.6,0,0.8c0,0.3,0,0.5-0.1,0.8
		c0,0.3-0.1,0.5-0.1,0.8L142.8,89.9z"/>
	<path class="st1" d="M154.9,81.7c0-1.1,0.1-2.3,0.4-3.4c0.3-1,0.7-2,1.3-2.9c0.6-0.8,1.3-1.5,2.2-2c1-0.5,2-0.8,3.1-0.8
		c0.6,0,1.2,0.1,1.8,0.2c0.6,0.1,1.2,0.3,1.8,0.6c0.6,0.3,1.1,0.6,1.5,1c0.5,0.4,0.8,0.9,1.1,1.5c-0.2,0.3-0.5,0.5-0.7,0.8
		c-0.2,0.2-0.5,0.4-0.8,0.6c-0.3,0.2-0.5,0.3-0.7,0.4c-0.2,0.1-0.4,0.2-0.6,0.4c-0.2-0.6-0.7-1.1-1.3-1.4c-0.5-0.2-1.1-0.4-1.7-0.4
		c-0.6,0-1.2,0.1-1.8,0.4c-0.5,0.3-0.9,0.6-1.1,1.1c-0.3,0.5-0.5,1.1-0.6,1.7c-0.1,0.7-0.2,1.4-0.2,2.1c0,0.6,0,1.1,0.1,1.7
		c0.1,0.6,0.2,1.1,0.5,1.6c0.2,0.5,0.6,0.9,1.1,1.2c0.9,0.5,2,0.6,3,0.3c0.3-0.1,0.6-0.3,0.8-0.5c0.3-0.2,0.5-0.5,0.7-0.8l0.8-1.1
		c0.5,0,1,0.2,1.5,0.4c0.5,0.3,1,0.5,1.4,0.8c-0.2,0.7-0.5,1.3-0.8,1.9c-0.4,0.6-0.8,1.1-1.4,1.5c-0.6,0.4-1.2,0.8-1.9,1
		c-0.8,0.3-1.6,0.4-2.5,0.4c-1.1,0-2.1-0.2-3.1-0.6c-0.9-0.4-1.6-1-2.2-1.8c-0.6-0.8-1.1-1.7-1.4-2.7
		C155.1,84,154.9,82.8,154.9,81.7z"/>
	<path class="st1" d="M180.4,89.9c0-0.4-0.1-0.9-0.1-1.3c0-2,0-4,0-6s-0.1-4-0.2-6c-0.7,0-1.4-0.1-2.1-0.1s-1.4,0-2.1-0.1
		c0-0.4-0.1-0.8-0.1-1.1c0-0.4,0-0.7,0-1.1c0-0.2,0-0.4,0-0.5c0-0.2,0-0.3,0.1-0.5c1.4-0.1,2.8-0.1,4.2-0.1h4.3c0.6,0,1.2,0,1.8,0
		s1.2,0.1,1.8,0.2c0.1,0.4,0.2,0.8,0.2,1.2c0,0.4,0,0.8,0,1.2l-0.1,0.8h-1.1c-0.6,0-1.1,0-1.7,0c-0.6,0-1.1,0-1.7,0.1
		c-0.1,1.1-0.1,2.2-0.1,3.4l0.1,3.4c0,1.1,0.1,2.2,0.1,3.4c0,1.1-0.1,2.2-0.2,3.3c-0.4,0.1-0.8,0.1-1.1,0.1h-1.1L180.4,89.9z"/>
	<path class="st1" d="M200,89.9h-2.6c-0.1,0-0.2,0-0.3,0h-0.3c0-0.4-0.1-0.7-0.1-1.1s0-0.7,0-1.1V75.4c0-0.4,0-0.8,0-1.2
		s0-0.8,0.1-1.2l0.9-0.1h0.9h1.6c0.1,0,0.1,0,0.2,0l0.1,0.1c0,2.8,0,5.6,0,8.4s0,5.6-0.1,8.4L200,89.9z"/>
	<path class="st1" d="M217.1,90.2c-1.2,0-2.4-0.2-3.4-0.7c-0.9-0.5-1.7-1.2-2.3-2c-0.6-0.9-1.1-1.8-1.3-2.8
		c-0.3-1.1-0.4-2.3-0.4-3.4c0-1,0.2-2,0.4-3c0.3-1,0.7-1.9,1.3-2.7c0.6-0.8,1.3-1.5,2.1-2c0.9-0.5,1.9-0.8,2.9-0.8
		c1.1,0,2.2,0.2,3.3,0.7c0.9,0.4,1.7,1.1,2.4,1.8c0.7,0.8,1.2,1.7,1.5,2.8c0.3,1.1,0.5,2.2,0.5,3.3c0,1.1-0.1,2.1-0.4,3.2
		c-0.3,1-0.7,2-1.3,2.9c-0.6,0.8-1.3,1.5-2.2,2.1C219.2,89.9,218.1,90.2,217.1,90.2z M216.9,86.6c0.6,0,1.3-0.1,1.8-0.5
		c0.5-0.3,0.9-0.8,1.1-1.3c0.3-0.5,0.5-1.1,0.6-1.7c0.1-0.6,0.2-1.2,0.2-1.8c0-0.6-0.1-1.2-0.2-1.8c-0.1-0.6-0.3-1.1-0.6-1.7
		c-0.3-0.5-0.6-0.9-1.1-1.2c-0.5-0.3-1.1-0.5-1.8-0.5c-0.7,0-1.4,0.2-2,0.6c-0.5,0.4-0.9,0.9-1.2,1.5c-0.3,0.6-0.5,1.3-0.6,2
		c-0.1,0.7-0.1,1.3-0.1,2c0,0.5,0.1,1.1,0.2,1.6c0.2,0.5,0.4,1,0.7,1.4c0.3,0.4,0.7,0.8,1.1,1C215.7,86.5,216.3,86.6,216.9,86.6z"/>
	<path class="st1" d="M245.4,89.9h-1.9c-0.6,0-1.2-0.1-1.9-0.2l-1.4-2.8c-0.5-0.9-0.9-1.8-1.3-2.8c-0.4-0.9-0.8-1.9-1.1-2.9
		c-0.4-1-0.6-2-0.9-3h-0.1v3.1c0,1.4,0,2.8,0.1,4.2c0.1,1.4,0,2.8-0.1,4.2c-0.3,0-0.5,0.1-0.8,0.1h-2.4h-0.4c0-0.7-0.1-1.4-0.1-2.1
		s0-1.4,0-2.1v-7.7c0-0.8,0-1.7,0-2.5s0-1.7,0.1-2.6h1.5h1.8c0.3,0,0.6,0,0.9,0.1c0.3,0,0.6,0.1,0.9,0.1c0.4,1,0.9,2,1.3,3
		s0.9,2,1.4,3s0.9,2,1.3,3s0.8,2,1.1,3h0.2c0-0.6,0-1.2,0.1-1.8s0-1.2,0-1.8c0-1.4,0-2.9-0.1-4.3s-0.1-2.9,0-4.3
		c0.3-0.1,0.6-0.1,0.8-0.1h0.8h0.9c0.3,0,0.6,0,0.9,0.1c0.1,1.1,0.2,2.2,0.2,3.3s0,2.3,0,3.4s0,2.3,0,3.4s0,2.2,0,3.3v1.6
		c0,0.6,0,1.1,0,1.6L245.4,89.9z"/>
</g>
</svg>
