<?xml version="1.0" encoding="utf-8"?>
<!-- Generator: Adobe Illustrator 24.2.3, SVG Export Plug-In . SVG Version: 6.00 Build 0)  -->
<svg version="1.1" id="Layer_1" xmlns="http://www.w3.org/2000/svg" xmlns:xlink="http://www.w3.org/1999/xlink" x="0px" y="0px"
	 viewBox="0 0 300 250" style="enable-background:new 0 0 300 250;" xml:space="preserve">
<style type="text/css">
	.st0{enable-background:new    ;}
	.st1{fill:#FFFFFF;}
</style>
<g id="Overlays">
	<g class="st0">
		<path class="st1" d="M231.9,203.1l-2.7,2.4l-1.6-1.9l4.5-3.8h2.7v13.7h-2.8V203.1z"/>
		<path class="st1" d="M239,206.7c0-0.8,0.1-1.6,0.2-2.5s0.4-1.6,0.8-2.3s0.9-1.2,1.6-1.7c0.7-0.4,1.5-0.6,2.5-0.6s1.9,0.2,2.5,0.6
			c0.7,0.4,1.2,1,1.6,1.7c0.4,0.7,0.6,1.4,0.8,2.3c0.1,0.8,0.2,1.7,0.2,2.5c0,0.8-0.1,1.6-0.2,2.5c-0.1,0.8-0.4,1.6-0.8,2.3
			c-0.4,0.7-0.9,1.2-1.6,1.7c-0.7,0.4-1.5,0.6-2.5,0.6s-1.9-0.2-2.5-0.6c-0.7-0.4-1.2-1-1.6-1.7c-0.4-0.7-0.6-1.4-0.8-2.3
			S239,207.5,239,206.7z M241.9,206.7c0,0.4,0,0.8,0,1.3s0.1,1,0.3,1.4s0.4,0.9,0.6,1.2c0.3,0.3,0.7,0.5,1.2,0.5
			c0.5,0,0.9-0.2,1.2-0.5c0.3-0.3,0.5-0.7,0.7-1.2s0.2-0.9,0.3-1.4s0-0.9,0-1.3s0-0.8,0-1.3s-0.1-1-0.3-1.4
			c-0.1-0.5-0.4-0.9-0.7-1.2c-0.3-0.3-0.7-0.5-1.2-0.5c-0.5,0-0.9,0.2-1.2,0.5c-0.3,0.3-0.5,0.7-0.6,1.2c-0.1,0.5-0.2,0.9-0.3,1.4
			S241.9,206.3,241.9,206.7z"/>
		<path class="st1" d="M251,206.7c0-0.8,0.1-1.6,0.2-2.5s0.4-1.6,0.8-2.3s0.9-1.2,1.6-1.7c0.7-0.4,1.5-0.6,2.5-0.6s1.9,0.2,2.5,0.6
			c0.7,0.4,1.2,1,1.6,1.7c0.4,0.7,0.6,1.4,0.8,2.3c0.1,0.8,0.2,1.7,0.2,2.5c0,0.8-0.1,1.6-0.2,2.5c-0.1,0.8-0.4,1.6-0.8,2.3
			c-0.4,0.7-0.9,1.2-1.6,1.7c-0.7,0.4-1.5,0.6-2.5,0.6s-1.9-0.2-2.5-0.6c-0.7-0.4-1.2-1-1.6-1.7c-0.4-0.7-0.6-1.4-0.8-2.3
			S251,207.5,251,206.7z M253.9,206.7c0,0.4,0,0.8,0,1.3s0.1,1,0.3,1.4s0.4,0.9,0.6,1.2c0.3,0.3,0.7,0.5,1.2,0.5
			c0.5,0,0.9-0.2,1.2-0.5c0.3-0.3,0.5-0.7,0.7-1.2s0.2-0.9,0.3-1.4s0-0.9,0-1.3s0-0.8,0-1.3s-0.1-1-0.3-1.4
			c-0.1-0.5-0.4-0.9-0.7-1.2c-0.3-0.3-0.7-0.5-1.2-0.5c-0.5,0-0.9,0.2-1.2,0.5c-0.3,0.3-0.5,0.7-0.6,1.2c-0.1,0.5-0.2,0.9-0.3,1.4
			S253.9,206.3,253.9,206.7z"/>
	</g>
</g>
</svg>
