<?xml version="1.0" encoding="utf-8"?>
<!-- Generator: Adobe Illustrator 16.0.0, SVG Export Plug-In . SVG Version: 6.00 Build 0)  -->
<!DOCTYPE svg PUBLIC "-//W3C//DTD SVG 1.1//EN" "http://www.w3.org/Graphics/SVG/1.1/DTD/svg11.dtd">
<svg version="1.1" id="Layer_1" xmlns="http://www.w3.org/2000/svg" xmlns:xlink="http://www.w3.org/1999/xlink" x="0px" y="0px"
	 width="89.81px" height="20.08px" viewBox="0 0 89.81 20.08" enable-background="new 0 0 89.81 20.08" xml:space="preserve">
<g>
	<path fill="#FFFFFF" d="M1.025,12.625l1.111,0.213c0.191,0.043,0.299,0.15,0.299,0.278c0,0.278-0.235,0.278-0.278,0.278
		c-0.149,0-0.234,0.064-0.234,0.149c-0.3,2.243-1.453,5.063-1.773,5.063C0.043,18.606,0,18.542,0,18.457
		c0-0.043,0-0.064,0.021-0.107c0.513-1.581,0.897-3.354,1.004-5.042V12.625z M6.708,8.887c-0.149-0.449-0.491-1.09-0.833-1.41
		C5.832,7.434,5.811,7.413,5.811,7.37c0-0.042,0.043-0.171,0.149-0.171c0.406,0,2.094,2.307,2.094,3.269
		c0,0.577-0.32,0.662-0.428,0.662c-0.342,0-0.47-0.256-0.47-0.384L6.9,9.442c-0.705,0.256-1.518,0.47-2.308,0.62v9.634
		c0,0.256-0.513,0.384-0.812,0.384c-0.171,0-0.235-0.128-0.235-0.384v-9.442l-2.114,0.427c-0.129,0-0.129,0.086-0.129,0.363
		c0,0.171-0.106,0.278-0.32,0.278c-0.213,0-0.385-0.171-0.47-0.491L0.128,9.613l2.179-0.107c1.881-2.691,2.948-5.511,3.076-6.109
		l0.129-0.641l1.218,0.449c0.213,0.064,0.342,0.192,0.342,0.32c0,0.235-0.192,0.278-0.642,0.363C5.533,5.746,4.016,8.16,2.97,9.442
		l0.448-0.042L6.708,8.887z M1.581,3.931c0.662-1.068,1.26-2.372,1.367-3.098l0.106-0.641l1.261,0.385
		c0.214,0.085,0.32,0.213,0.32,0.342c0,0.107-0.106,0.256-0.299,0.256L4.016,1.281L3.033,2.905L1.944,4.293l0.299,0.299
		c0.939,0.982,0.939,1.175,0.939,1.944C3.119,6.814,2.841,6.878,2.734,6.878c-0.277,0-0.448-0.213-0.513-0.384
		C1.603,4.571,0.79,3.909,0.47,3.717C0.406,3.674,0.363,3.61,0.363,3.567c0-0.085,0.064-0.214,0.192-0.214
		c0.042,0,0.106,0,0.171,0.043L1.581,3.931z M5.597,12.454c0-0.064,0.086-0.171,0.192-0.171c0.428,0,1.88,2.499,1.88,3.802
		c0,0.513-0.32,0.812-0.577,0.812c-0.256,0-0.512-0.278-0.512-0.577c0-1.688-0.406-3.119-0.919-3.717
		C5.618,12.561,5.597,12.518,5.597,12.454z M7.242,19.055l-0.15-0.641h5.79v-4.849H8.844l-0.171-0.663H16.3l1.26-0.961l1.111,0.854
		c0.085,0.064,0.149,0.192,0.149,0.32c0,0.235-0.128,0.449-0.47,0.449h-4.401v4.849h3.184l1.26-0.961l1.111,0.854
		c0.106,0.064,0.149,0.171,0.149,0.299c0,0.299-0.149,0.448-0.47,0.448H7.242z M11.044,3.418c-0.684,1.495-1.26,2.584-2.285,3.973
		c0.726,0.641,2.35,2.734,2.35,3.845c0,0.47-0.149,0.684-0.513,0.684c-0.277,0-0.47-0.149-0.513-0.406
		C9.57,9.399,8.716,7.84,7.712,7.028C7.647,6.985,7.626,6.942,7.626,6.878c0-0.042,0.043-0.192,0.192-0.192
		c0.107,0,0.149,0.043,0.577,0.363c0.747-1.282,1.452-3.226,1.538-4.016l0.064-0.641l1.281,0.32
		c0.235,0.064,0.342,0.171,0.342,0.299c0,0.278-0.192,0.278-0.256,0.278L11.044,3.418z M16.813,1.153l1.238-0.961l1.111,0.854
		c0.106,0.064,0.171,0.171,0.171,0.321c0,0.256-0.192,0.427-0.491,0.427H8.16L8.011,1.153H16.813z M11.984,7.22
		c0.363-0.662,0.684-1.431,0.939-2.264l0.471-1.816V2.499l1.281,0.235c0.257,0.064,0.385,0.192,0.385,0.32
		c0,0.149-0.107,0.256-0.277,0.277l-0.321,0.15c-0.448,1.26-1.751,3.696-2.157,4.016c0.748,0.748,2.222,2.585,2.222,3.653
		c0,0.256-0.128,0.705-0.385,0.705c-0.214,0-0.576,0-0.641-0.427c-0.491-2.2-1.474-3.76-2.371-4.401
		c-0.064-0.042-0.086-0.085-0.086-0.149c0-0.042,0.043-0.192,0.192-0.192c0.043,0,0.129,0.021,0.192,0.064L11.984,7.22z
		 M15.487,7.049c0.791-1.389,1.41-3.418,1.475-3.931l0.042-0.641l1.282,0.299c0.235,0.064,0.363,0.149,0.363,0.299
		c0,0.256-0.214,0.299-0.278,0.299l-0.32,0.128c-0.256,0.663-0.619,1.346-1.025,2.051l-1.153,1.795l1.196,1.281
		c1.196,1.453,1.282,2.222,1.282,2.414c0,0.299-0.149,0.662-0.491,0.662c-0.385,0-0.514-0.342-0.534-0.406
		c-0.62-2.2-1.773-3.738-2.671-4.358c-0.063-0.042-0.106-0.106-0.106-0.149c0-0.064,0.063-0.192,0.214-0.192
		c0.042,0,0.106,0,0.171,0.043L15.487,7.049z"/>
	<path fill="#FFFFFF" d="M23.336,14.313l-0.15-0.662h2.351V2.884l1.067,0.854h3.461V0.256l1.111,0.192
		c0.32,0.043,0.47,0.171,0.47,0.342s-0.106,0.299-0.277,0.342c-0.149,0.043-0.235,0.171-0.235,0.32v2.286h3.354V0.256l1.111,0.192
		c0.32,0.043,0.47,0.171,0.47,0.342s-0.106,0.299-0.277,0.342c-0.149,0.043-0.235,0.171-0.235,0.32v2.286h3.589l0.513-0.577
		l0.961,0.663c0.086,0.042,0.129,0.128,0.129,0.235c0,0.192-0.149,0.342-0.299,0.406c-0.15,0.085-0.214,0.214-0.214,0.321v8.865
		h0.342l1.196-1.132l1.11,1.025c0.086,0.064,0.128,0.192,0.128,0.299c0,0.192-0.149,0.47-0.427,0.47H23.336z M30.257,15.829
		c0.192,0.107,0.278,0.235,0.278,0.342c0,0.278-0.235,0.278-0.492,0.278c-0.128,0-0.234,0.021-0.299,0.064
		c-1.688,1.965-5.533,3.269-6.045,3.269c-0.15,0-0.192-0.107-0.192-0.214c0-0.085,0.042-0.149,0.149-0.192
		c3.076-1.047,4.956-2.863,5.575-4.038L30.257,15.829z M26.625,8.651h3.439V4.379h-3.439V8.651z M26.625,13.65h3.439V9.292h-3.439
		V13.65z M31.133,8.651h3.354V4.379h-3.354V8.651z M31.133,13.65h3.354V9.292h-3.354V13.65z M34.786,15.466
		c0-0.042,0.021-0.256,0.171-0.256c0.277,0,6.365,2.2,6.365,3.952c0,0.321-0.171,0.598-0.47,0.598c-0.085,0-0.106-0.021-0.427-0.213
		c-1.646-1.837-3.418-3.034-5.512-3.91C34.828,15.616,34.786,15.53,34.786,15.466z M35.555,8.651h3.61V4.379h-3.61V8.651z
		 M35.555,13.65h3.61V9.292h-3.61V13.65z"/>
	<path fill="#FFFFFF" d="M51.563,0.598c0.256,0.086,0.362,0.214,0.362,0.363c0,0.043,0,0.064-0.128,0.192
		c0.94,0.577,2.436,2.115,2.671,3.076c0,0.641,0,0.897-0.492,0.897c-0.213,0-0.405-0.15-0.47-0.363
		c-0.491-1.325-1.175-2.585-2.243-3.503c-1.837,4.038-4.614,6.067-4.827,6.067c-0.107,0-0.171-0.085-0.171-0.171
		c0-0.064,0.042-0.149,0.106-0.214c1.88-1.837,3.546-4.486,4.017-6.75L51.563,0.598z M50.153,10.296h-3.546l-0.15-0.641h3.696V6.878
		h-1.944l-0.171-0.641h3.888l1.176-1.153l1.11,1.025c0.106,0.085,0.149,0.214,0.149,0.32c0,0.171-0.149,0.449-0.448,0.449h-2.691
		v2.777h1.709l1.175-1.153l1.11,1.025c0.107,0.085,0.149,0.214,0.149,0.342c0,0.235-0.213,0.427-0.448,0.427h-3.695v7.028
		c1.153-0.363,2.307-0.876,3.418-1.41c0.063-0.021,0.106-0.042,0.149-0.042c0.149,0,0.213,0.171,0.213,0.256
		s-0.042,0.149-0.128,0.171c-0.769,0.513-3.076,2.029-7.028,2.948c-0.085,0.043-0.149,0.171-0.171,0.385
		c0,0.299-0.256,0.363-0.342,0.363c-0.149,0-0.299-0.15-0.384-0.449l-0.406-1.41h1.068c0.598-0.042,1.452-0.235,2.542-0.513V10.296z
		 M48.273,16.149l-0.107-0.32c0-0.619-0.063-2.328-0.939-3.61c-0.043-0.042-0.064-0.085-0.064-0.128
		c0-0.085,0.086-0.149,0.171-0.149c0.3,0,1.73,2.264,1.73,3.589c0,0.106-0.042,0.769-0.491,0.769L48.273,16.149z M53.123,11.877
		l1.11,0.321c0.171,0.064,0.257,0.149,0.257,0.256c0,0.085-0.064,0.256-0.235,0.256l-0.214,0.085l-0.576,1.56
		c-0.15,0.32-0.791,1.623-1.005,1.623c-0.128,0-0.234-0.128-0.171-0.277l0.577-1.624l0.257-1.453V11.877z M56.412,2.2h-1.794
		l-0.149-0.641h8.608l1.346-1.132l1.367,1.025c0.107,0.064,0.171,0.192,0.171,0.342c0,0.299-0.256,0.406-0.491,0.406H57.48v4.358
		h5.938l0.556-0.577l0.982,0.641c0.086,0.043,0.129,0.128,0.129,0.214c0,0.106-0.086,0.299-0.342,0.363
		c-0.172,0.043-0.278,0.15-0.278,0.235v6.623c0.021,0.128-0.063,0.256-0.192,0.32c-0.705,0.171-0.833,0.192-0.833-0.32v-1.004h-5.96
		v5.042h5.768l1.346-1.132l1.367,1.025c0.107,0.064,0.171,0.171,0.171,0.32c0,0.256-0.192,0.427-0.491,0.427H54.212l-0.171-0.641
		h2.371V2.2z M57.48,7.22v5.191h5.96V7.22H57.48z"/>
	<path fill="#FFFFFF" d="M79.833,7.989l0.77-0.556l1.047,0.492c0.128,0.085,0.171,0.192,0.171,0.299
		c0,0.128-0.086,0.406-0.385,0.406h-9.143c-0.064,2.5-0.3,6.003-1.197,8.438c-0.299,0.812-1.089,2.585-1.431,2.585
		c-0.086,0-0.171-0.128-0.171-0.192c0-0.043,0.021-0.085,0.064-0.128c0.769-1.837,1.709-4.08,1.709-12.732V2.499l1.067,0.812h2.692
		V0l1.089,0.213c0.342,0.042,0.491,0.149,0.491,0.32s-0.106,0.299-0.277,0.342c-0.257,0.085-0.257,0.192-0.257,0.598h2.436
		l1.047-0.982l0.94,0.854c0.085,0.085,0.128,0.213,0.128,0.32c0,0.085,0,0.449-0.428,0.449h-4.123v1.196h4.465l0.62-0.556
		l0.576,0.897c0.107,0.107,0.171,0.213,0.171,0.32s-0.063,0.342-0.32,0.342l-0.342-0.042c-0.128,0-0.235,0.021-0.299,0.085
		l-0.962,0.77c-0.021,0.021-0.063,0.021-0.085,0.021c-0.128,0-0.128-0.064-0.128-0.256l0.598-0.94h-4.443v1.132l1.133-0.128
		l0.79-1.004L79,4.699c0.129,0.064,0.214,0.171,0.214,0.299c0,0.192-0.128,0.384-0.427,0.406l-2.863,0.342v0.641
		c0.064,0.128,0.064,0.149,0.192,0.235h2.606c0.192,0,0.363-0.214,0.427-0.641l0.171-0.983c0-0.085,0.064-0.128,0.15-0.128
		c0.085,0,0.149,0.064,0.149,0.15l-0.129,0.875c-0.042,0.321,0,0.62,0.171,0.791c0.086,0.043,0.129,0.192,0.129,0.385
		c0,0.128-0.107,0.598-0.77,0.598h-3.546c-0.214,0-0.62-0.32-0.62-0.897V5.875l-2.093,0.299l-0.363-0.598l2.456-0.342V3.952h-2.542
		v4.038H79.833z M72.101,12.518l0.812,0.555h6.771l0.491-0.619l0.919,0.726c0.128,0.085,0.192,0.235,0.192,0.406
		c-0.021,0.15-0.128,0.299-0.299,0.363c-0.171,0.064-0.235,0.171-0.235,0.278v4.507c0,0.854-0.961,1.132-1.56,1.218
		c0-0.192-0.106-0.406-0.235-0.598c-0.128-0.192-0.405-0.363-0.875-0.534c-0.15-0.042-0.235-0.128-0.235-0.235
		c0-0.256,0.149-0.256,0.214-0.256c0.085,0,1.068,0.192,1.281,0.192c0.214,0,0.342,0,0.342-0.449v-4.358h-6.516v5.917
		c0,0.106-0.085,0.213-0.256,0.277c-0.684,0.171-0.812,0.192-0.812-0.32V12.518z M76.501,16.577
		c0.385-0.791,0.684-1.624,0.854-2.479l0.961,0.257c0.214,0.064,0.32,0.149,0.32,0.235c0,0.107-0.063,0.32-0.256,0.32
		c-0.149,0-0.277,0.042-0.32,0.128l-1.09,1.538h0.556l0.961-0.556l0.854,0.513c0.214,0.107,0.299,0.235,0.299,0.406
		s-0.106,0.278-0.277,0.278h-2.691v2.478c0,0.085-0.086,0.171-0.214,0.213c-0.534,0.15-0.684,0.214-0.684-0.213v-2.478H73.66
		l-0.172-0.641H76.501z M78.359,9.484l0.47-0.726l0.854,0.598c0.129,0.085,0.171,0.235,0.171,0.363
		c-0.021,0.128-0.106,0.256-0.214,0.299c-0.128,0.043-0.213,0.128-0.213,0.214v2.136c0,0.278-0.107,0.299-0.791,0.47
		c-0.277,0-0.277-0.299-0.277-0.705h-3.695c0,0.235,0,0.32-0.257,0.448c-0.684,0.171-0.812,0.192-0.812-0.342V8.929l0.812,0.555
		H78.359z M74.877,16.085c-0.021-0.342-0.106-1.175-0.598-1.837c-0.043-0.043-0.064-0.085-0.064-0.128
		c0-0.042,0.043-0.171,0.129-0.171c0.342,0,1.431,1.389,1.431,1.858c0,0-0.043,0.684-0.427,0.684
		C75.134,16.491,75.091,16.427,74.877,16.085z M74.664,10.125v1.367h3.695v-1.367H74.664z M85.431,8.48
		c-0.385,3.824-0.94,6.217-2.115,8.353c-0.812,1.538-2.094,3.119-2.328,3.119c-0.086,0-0.214-0.085-0.214-0.192
		c0-0.064,0.021-0.106,0.064-0.149c2.478-3.076,3.438-8.417,3.588-10.852l0.107-1.794h-3.375l-0.171-0.641h3.589l0.106-4.978
		L84.576,0.32l1.217,0.192c0.235,0.021,0.406,0.128,0.406,0.277c0,0.192-0.043,0.214-0.448,0.556l-0.192,4.978h1.239l1.175-1.154
		l1.11,1.025c0.107,0.085,0.149,0.192,0.149,0.32c0,0.192-0.171,0.449-0.448,0.449h-3.012c0.213,2.67,1.025,9.976,3.888,12.091
		c0.106,0.064,0.149,0.128,0.149,0.192c0,0.128-0.235,0.128-0.641,0.128c-0.257,0-0.491,0.085-0.599,0.278
		c-0.063,0.128-0.171,0.192-0.234,0.192c-0.043,0-0.086-0.021-0.107-0.042l-0.812-1.645c-0.299-0.641-1.239-2.905-1.666-6.814
		L85.431,8.48z M86.285,1.709c0-0.064,0.063-0.192,0.213-0.192c0.342,0,2.158,1.581,2.158,2.521c0,0.214-0.086,0.662-0.471,0.662
		c-0.299,0-0.491-0.235-0.533-0.427c-0.235-0.983-0.77-2.051-1.261-2.414C86.327,1.815,86.285,1.751,86.285,1.709z"/>
</g>
</svg>
