<svg id="Layer_1" data-name="Layer 1" xmlns="http://www.w3.org/2000/svg" xmlns:xlink="http://www.w3.org/1999/xlink" viewBox="0 0 300 250"><defs><style>.cls-1{fill:none;}.cls-2{clip-path:url(#clip-path);}.cls-3{fill:#221e1f;}.cls-4{fill:#fff;}.cls-5{clip-path:url(#clip-path-2);}.cls-6{clip-path:url(#clip-path-4);}.cls-7{clip-path:url(#clip-path-5);}</style><clipPath id="clip-path"><rect class="cls-1" width="300" height="250"/></clipPath><clipPath id="clip-path-2"><rect class="cls-1" x="320" width="300" height="250"/></clipPath><clipPath id="clip-path-4"><rect class="cls-1" x="498.32" y="90.72" width="87.28" height="86.76"/></clipPath><clipPath id="clip-path-5"><rect class="cls-1" x="-32448" y="-32517" width="65535" height="65535"/></clipPath></defs><g class="cls-2"><path class="cls-3" d="M206,79.29v-.91a2.87,2.87,0,0,1-1.68-.69,2.05,2.05,0,0,1-.64-1.59l1.33,0a1.23,1.23,0,0,0,1,1.18V75.81l-.5-.08A1.75,1.75,0,0,1,203.79,74c0-1.14.85-1.88,2.17-1.95v-.78h.74V72a2.13,2.13,0,0,1,2.14,2.18l-1.31,0a1.09,1.09,0,0,0-.83-1.06v1.4l.43.08c1.25.22,1.83.81,1.83,1.82a1.61,1.61,0,0,1-.64,1.38,2.85,2.85,0,0,1-1.62.54v.89Zm0-4.84V73.12c-.5,0-.77.29-.77.71S205.52,74.36,206,74.45Zm.74,1.49v1.34c.52,0,.86-.3.86-.7S207.22,76,206.7,75.94Z"/><path class="cls-3" d="M219.2,81.71v2.47h-9.45V82.1l3.41-2.76a19.13,19.13,0,0,0,2.06-1.91,2.57,2.57,0,0,0,.64-1.72,1.44,1.44,0,0,0-1.57-1.61c-1.17,0-1.68.84-1.68,2a3.42,3.42,0,0,0,.14,1l-2.91-.08a5.86,5.86,0,0,1-.15-1.16A4,4,0,0,1,211,72.79a4.83,4.83,0,0,1,3.41-1.2,4.64,4.64,0,0,1,3.39,1.14,3.64,3.64,0,0,1,1.2,2.8,4,4,0,0,1-.88,2.67,15.77,15.77,0,0,1-2.34,2.16l-1.7,1.35Z"/><path class="cls-3" d="M229.34,81.71v2.47h-9.46V82.1l3.42-2.76a19.13,19.13,0,0,0,2.06-1.91,2.57,2.57,0,0,0,.64-1.72,1.44,1.44,0,0,0-1.57-1.61c-1.17,0-1.68.84-1.68,2a3.83,3.83,0,0,0,.13,1l-2.9-.08a5.86,5.86,0,0,1-.15-1.16,4,4,0,0,1,1.29-3.13,4.83,4.83,0,0,1,3.41-1.2,4.64,4.64,0,0,1,3.39,1.14,3.64,3.64,0,0,1,1.2,2.8,4,4,0,0,1-.88,2.67,15.77,15.77,0,0,1-2.34,2.16l-1.7,1.35Z"/><path class="cls-3" d="M237.26,78.47a3.4,3.4,0,0,1-3,1.44,4.31,4.31,0,0,1-3.16-1.14,4,4,0,0,1-1.15-2.9,3.91,3.91,0,0,1,1.33-3.12,5.05,5.05,0,0,1,3.43-1.16,4.66,4.66,0,0,1,3.9,1.71A7.19,7.19,0,0,1,240,77.91a7.68,7.68,0,0,1-1.36,4.66,4.55,4.55,0,0,1-4,1.85c-2.61,0-4.33-1.4-4.57-3.83l2.79-.06a1.63,1.63,0,0,0,1.82,1.53C236.32,82.06,237.18,80.59,237.26,78.47Zm-2.49-4.55a1.89,1.89,0,1,0,2,1.89A1.81,1.81,0,0,0,234.77,73.92Z"/><rect class="cls-4" x="200.89" y="47.84" width="42.63" height="16.55"/><path class="cls-3" d="M208.68,57.08c.06,1,.83,1.41,1.72,1.41s1.26-.31,1.26-.78-.43-.6-1.06-.73l-1.37-.24a2.09,2.09,0,0,1-2-2.1c0-1.43,1.13-2.32,2.89-2.32,2,0,3,1,3.08,2.59l-1.62.05a1.32,1.32,0,0,0-1.48-1.27c-.73,0-1.15.3-1.15.8s.33.56.85.67l1.37.24c1.47.26,2.16,1,2.16,2.19a1.89,1.89,0,0,1-.86,1.7,3.75,3.75,0,0,1-2.1.57,3.91,3.91,0,0,1-2.39-.7,2.38,2.38,0,0,1-.93-2Z"/><path class="cls-3" d="M216.05,59.72h-1.74V52.46h3.07c1.88,0,3,.89,3,2.44s-1.09,2.46-3,2.46h-1.33ZM217.31,56c1,0,1.35-.36,1.35-1s-.39-1-1.35-1h-1.26V56Z"/><path class="cls-3" d="M222.81,52.46v5.82h3.69v1.44h-5.44V52.46Z"/><path class="cls-3" d="M229.13,52.46v7.26h-1.75V52.46Z"/><path class="cls-3" d="M232.53,59.72V53.9H230V52.46h6.83V53.9h-2.56v5.82Z"/></g></svg>