<svg height="90" viewBox="0 0 728 90" width="728" xmlns="http://www.w3.org/2000/svg" xmlns:xlink="http://www.w3.org/1999/xlink"><mask id="a" fill="#fff"><path d="m.5348.393h32.099v19.1589h-32.099z" fill="#fff" fill-rule="evenodd"/></mask><g fill="none" fill-rule="evenodd" transform="translate(571 26)"><g fill="#fefefe" transform="translate(1 .6073)"><path d="m35.7702 36-13.787-19.402c-.676.097-1.415.146-2.218.146h-4.339l13.771 19.256z"/><path d="m27.3988 10.9089c0 2.105-.747 3.64-2.238 4.606l2.826 4.037c.939-.577 1.765-1.313 2.479-2.209 1.445-1.814 2.168-3.981 2.168-6.503 0-3.229-1.153-5.827-3.459-7.795-2.091-1.768-5.489-2.652-10.193-2.652h-18.447l3.612 5.05h15.826c4.95 0 7.426 1.822 7.426 5.466" mask="url(#a)"/></g><path d="m13.7718 28.1131h6.573l-13.682-19.254-6.663-.002z" fill="#00a547"/><g fill="#fefefe"><g transform="translate(42 5.6073)"><path d="m.5298.875h4.045c2.444.007 3.667 1.195 3.667 3.565v2.747c0 1.478-.814 2.483-2.442 3.014l3.32 8.386h-2.604l-2.707-8.059-.92.112v7.947h-2.359zm2.359 2.043v5.792h1.001c.457 0 .784-.031.981-.092.674-.246 1.011-.722 1.011-1.431v-2.747c0-1.015-.538-1.522-1.613-1.522z"/><path d="m18.2469 15.3593c0 2.37-1.328 3.558-3.984 3.565-2.655 0-3.983-1.188-3.983-3.565v-11.175c0-2.37 1.328-3.554 3.983-3.554 2.656 0 3.984 1.184 3.984 3.554zm-2.359-11.175c0-1.008-.538-1.512-1.614-1.512h-.021c-1.076 0-1.614.504-1.614 1.512v11.175c0 1.015.542 1.522 1.624 1.522 1.083 0 1.625-.507 1.625-1.522z"/><path d="m28.6704 15.3593c0 2.37-1.328 3.558-3.984 3.565-2.655 0-3.983-1.188-3.983-3.565v-11.175c0-2.37 1.328-3.554 3.983-3.554 2.656 0 3.984 1.184 3.984 3.554v2.186h-2.359v-2.186c0-1.008-.538-1.512-1.614-1.512h-.021c-1.076 0-1.614.504-1.614 1.512v11.175c0 1.015.542 1.522 1.624 1.522 1.083 0 1.625-.507 1.625-1.522v-2.176h2.359z"/></g><path d="m77.8565 15.3383 3.973 8.856h-2.512l-3.729-8.294v8.294h-2.359v-17.712h2.359v8.335l3.729-8.335h2.512z"/><g transform="translate(83 5.6073)"><path d="m.5714 4.1845c0-2.37 1.328-3.555 3.984-3.555s3.983 1.185 3.983 3.555v2.186h-2.359v-2.186c0-1.008-.538-1.512-1.614-1.512h-.02c-1.076 0-1.614.504-1.614 1.512v1.655c0 .912.981 1.985 2.941 3.217 1.778 1.117 2.666 2.448 2.666 3.994v2.309c0 2.376-1.324 3.564-3.973 3.564-2.663-.006-3.994-1.195-3.994-3.564v-2.176h2.36v2.176c0 1.014.545 1.522 1.634 1.522 1.076 0 1.614-.508 1.614-1.522v-2.084c0-.974-.981-2.08-2.942-3.32-1.777-1.117-2.666-2.468-2.666-4.055z"/><path d="m18.9623 15.3593c0 2.37-1.328 3.558-3.984 3.565-2.655 0-3.983-1.188-3.983-3.565v-11.175c0-2.37 1.328-3.554 3.983-3.554 2.656 0 3.984 1.184 3.984 3.554zm-2.359-11.175c0-1.008-.538-1.512-1.614-1.512h-.021c-1.076 0-1.614.504-1.614 1.512v11.175c0 1.015.542 1.522 1.624 1.522 1.083 0 1.625-.507 1.625-1.522z"/></g><path d="m104.6236 24.1944v-17.712h2.359v15.679h4.771v2.033z"/><path d="m113.75 24.1943h2.36v-17.712h-2.36z"/><g transform="translate(42 5.6073)"><path d="m77.0258.875h4.3c2.445.007 3.667 1.195 3.667 3.565v10.592c0 2.363-1.29 3.548-3.871 3.555h-4.096zm2.359 2.043v13.636h1.635c1.076 0 1.614-.507 1.614-1.522v-10.592c0-1.015-.538-1.522-1.614-1.522z"/><path d="m4.2342 25.0794c0 .71-.197 1.253-.592 1.629-.394.376-.962.564-1.704.564h-1.203v-4.303h1.33c.685 0 1.217.184 1.598.553.38.369.571.888.571 1.557m-.742.024c0-1.03-.481-1.546-1.445-1.546h-.609v3.123h.5c1.036 0 1.554-.526 1.554-1.577"/></g><path d="m50.0624 32.8794h-2.434v-4.303h2.434v.595h-1.73v1.171h1.621v.589h-1.621v1.351h1.73z"/><path d="m53.9434 31.711c0 .383-.138.683-.415.9-.277.218-.659.327-1.145.327-.487 0-.885-.075-1.195-.226v-.665c.196.092.405.164.625.217.221.053.427.08.617.08.279 0 .484-.053.617-.159.132-.106.198-.248.198-.427 0-.161-.06-.297-.182-.409s-.373-.244-.753-.397c-.393-.159-.67-.341-.83-.545-.162-.204-.242-.449-.242-.735 0-.359.128-.642.383-.848s.597-.309 1.027-.309c.412 0 .822.09 1.23.271l-.224.574c-.382-.161-.724-.242-1.024-.242-.227 0-.4.05-.518.149s-.176.23-.176.393c0 .112.023.207.07.287.048.079.125.154.233.225s.302.164.583.279c.315.132.547.255.694.368.147.114.255.243.324.386.068.143.103.312.103.506"/><path d="m55.247 32.8793h.704v-4.303h-.704z"/><g transform="translate(57 27.6073)"><path d="m2.3156 2.9384h1.583v2.16c-.258.085-.507.144-.746.18-.238.035-.495.053-.772.053-.652 0-1.154-.193-1.507-.579-.353-.385-.53-.929-.53-1.632 0-.692.199-1.234.598-1.626.398-.391.946-.587 1.645-.587.449 0 .875.087 1.277.259l-.247.586c-.349-.161-.699-.241-1.048-.241-.459 0-.822.144-1.089.432-.267.289-.4.683-.4 1.183 0 .526.12.926.36 1.2.241.273.587.41 1.038.41.228 0 .471-.028.73-.085v-1.11h-.892z"/><path d="m8.9868 5.2721h-.862l-2.116-3.429h-.024l.015.192c.027.365.041.698.041 1v2.237h-.639v-4.303h.854l2.11 3.411h.018c-.004-.045-.012-.209-.024-.493-.012-.283-.017-.504-.017-.663v-2.255h.644z"/></g></g><path d="m68.417 34.2953h.53v-5.983h-.53z" fill="#00a547"/><g fill="#fefefe" transform="translate(71 27.6073)"><path d="m2.1427 2.9384h1.583v2.16c-.258.085-.507.144-.746.18-.238.035-.495.053-.772.053-.652 0-1.154-.193-1.507-.579-.353-.385-.53-.929-.53-1.632 0-.692.199-1.234.598-1.626.398-.391.946-.587 1.645-.587.449 0 .875.087 1.277.259l-.247.586c-.349-.161-.699-.241-1.048-.241-.459 0-.822.144-1.089.432-.267.289-.4.683-.4 1.183 0 .526.12.926.36 1.2.241.273.586.41 1.038.41.228 0 .471-.028.73-.085v-1.11h-.892z"/><path d="m5.9328 3.5535v1.719h-.704v-4.303h1.216c.555 0 .966.104 1.233.312s.4.522.4.942c0 .535-.278.917-.835 1.145l1.215 1.904h-.8l-1.031-1.719zm0-.583h.488c.328 0 .565-.061.713-.182.147-.122.22-.302.22-.542 0-.243-.079-.418-.238-.524s-.398-.159-.718-.159h-.465z"/><path d="m12.2215 5.2721-.43-1.195h-1.645l-.421 1.195h-.741l1.61-4.32h.765l1.61 4.32zm-.615-1.801-.403-1.171c-.03-.079-.071-.203-.123-.371-.051-.169-.087-.293-.107-.371-.053.241-.131.505-.232.792l-.389 1.121z"/><path d="m16.856 2.2702c0 .449-.147.794-.442 1.033-.294.239-.713.359-1.256.359h-.447v1.61h-.704v-4.303h1.239c.538 0 .94.11 1.208.33s.402.544.402.971zm-2.145.801h.373c.361 0 .626-.063.795-.189.168-.125.253-.322.253-.588 0-.248-.076-.432-.227-.554-.151-.121-.386-.182-.706-.182h-.488z"/></g><path d="m92.5787 32.8794h-.706v-1.939h-1.984v1.939h-.703v-4.303h.703v1.76h1.984v-1.76h.706z" fill="#fefefe"/><path d="m94.181 32.8793h.704v-4.303h-.704z" fill="#fefefe"/><g fill="#fefefe" transform="translate(96 27.6073)"><path d="m2.3223 1.5111c-.404 0-.722.143-.954.43-.231.286-.347.681-.347 1.186 0 .527.111.927.334 1.197.223.271.545.407.967.407.182 0 .359-.019.53-.055.17-.036.348-.083.532-.14v.604c-.337.127-.72.191-1.148.191-.629 0-1.113-.191-1.45-.573-.338-.381-.507-.927-.507-1.637 0-.448.082-.839.246-1.174.164-.336.401-.593.711-.772.31-.178.674-.268 1.092-.268.439 0 .845.093 1.218.277l-.253.586c-.145-.069-.299-.129-.461-.181s-.332-.078-.51-.078"/><path d="m7.263 4.1037c0 .383-.138.683-.415.9-.277.218-.659.327-1.145.327-.487 0-.885-.075-1.195-.226v-.665c.196.092.405.164.625.217.221.053.427.08.617.08.279 0 .484-.053.617-.159.132-.106.198-.248.198-.427 0-.161-.06-.297-.182-.409s-.373-.244-.753-.397c-.393-.159-.67-.341-.83-.545-.161-.204-.242-.449-.242-.735 0-.359.128-.642.383-.848s.597-.309 1.027-.309c.412 0 .822.09 1.23.271l-.224.574c-.382-.161-.724-.242-1.024-.242-.227 0-.4.05-.518.149s-.176.23-.176.393c0 .112.023.207.07.287.048.079.125.154.233.225s.302.164.583.279c.315.132.547.255.694.368.147.114.255.243.324.386.068.143.103.312.103.506"/></g><path d="m105.39 34.2953h.529v-5.983h-.529z" fill="#00a547"/><g fill="#fefefe" transform="translate(108 27.6073)"><path d="m3.2047 2.2702c0 .449-.147.794-.441 1.033-.295.239-.714.359-1.257.359h-.447v1.61h-.704v-4.303h1.239c.538 0 .94.11 1.208.33s.402.544.402.971zm-2.145.801h.373c.361 0 .626-.063.795-.189.169-.125.253-.322.253-.588 0-.248-.076-.432-.227-.554-.151-.121-.386-.182-.706-.182h-.488z"/><path d="m5.2378 3.5535v1.719h-.703v-4.303h1.215c.555 0 .966.104 1.233.312s.4.522.4.942c0 .535-.278.917-.835 1.145l1.215 1.904h-.8l-1.03-1.719zm0-.583h.488c.328 0 .566-.061.713-.182.147-.122.22-.302.22-.542 0-.243-.079-.418-.238-.524s-.398-.159-.718-.159h-.465z"/></g><path d="m116.857 32.8793h.704v-4.303h-.704z" fill="#fefefe"/><path d="m122.7512 32.8794h-.862l-2.116-3.429h-.024l.015.192c.027.365.041.698.041 1v2.237h-.639v-4.303h.854l2.11 3.411h.018c-.004-.045-.012-.209-.024-.493-.012-.283-.017-.504-.017-.663v-2.255h.644z" fill="#fefefe"/><path d="m123.8742 28.5766v.604h1.265v3.699h.704v-3.699h1.266v-.604z" fill="#fefefe"/></g></svg>