<?xml version="1.0" encoding="utf-8"?>
<!-- Generator: Adobe Illustrator 26.0.3, SVG Export Plug-In . SVG Version: 6.00 Build 0)  -->
<svg version="1.1" id="Layer_1" xmlns="http://www.w3.org/2000/svg" xmlns:xlink="http://www.w3.org/1999/xlink" x="0px" y="0px"
	 viewBox="0 0 300 600" style="enable-background:new 0 0 300 600;" xml:space="preserve">
<style type="text/css">
	.st0{fill:#FFFFFF;}
</style>
<g>
	<g>
		<path class="st0" d="M44.4,231.9c-1.8,1.8-4.2,2.8-6.8,2.7c-3.4,0-7.4-2.3-7.4-7.1c0-5,4-6.8,7.4-6.8c2.8,0,5.3,0.9,6.8,2.6v-3
			c0-2.2-1.9-3.6-4.7-3.6c-2.3,0-4.5,0.9-6.2,2.5l-2.1-3.8c2.6-2.2,5.9-3.4,9.3-3.4c4.8,0,9.3,1.9,9.3,8.1V234h-5.6V231.9z
			 M44.4,226.3c-1.1-1.3-2.8-1.9-4.5-1.9c-2.2,0-4,1.1-4,3.2s1.8,3.1,4,3.1c1.7,0.1,3.4-0.6,4.5-1.9V226.3z"/>
		<path class="st0" d="M70.2,231.3c-1.6,2-4,3.3-6.6,3.3c-5.4,0-9.4-4.1-9.4-11.2s4-11.2,9.4-11.2c2.6,0,5,1.2,6.6,3.3v-10.9h5.6
			v29.4h-5.6V231.3z M70.2,219.6c-1.2-1.5-2.9-2.4-4.8-2.4c-3.2,0-5.4,2.5-5.4,6.2s2.2,6.2,5.4,6.2c1.9,0,3.7-0.9,4.8-2.4V219.6z"/>
		<path class="st0" d="M78.4,212.8h6l5.6,14.8l5.6-14.8h6L93,234.1h-6L78.4,212.8z"/>
		<path class="st0" d="M113.7,212.2c6.3,0,10.7,4.8,10.7,11.7v1.2h-15.8c0.4,2.7,2.5,4.9,6.1,4.9c2.1,0,4.1-0.8,5.7-2.1l2.5,3.6
			c-2.5,2-5.6,3.1-8.8,3c-6.5,0-11.4-4.4-11.4-11.2c-0.2-6,4.5-11,10.5-11.2C113.3,212.2,113.5,212.2,113.7,212.2z M108.5,221.4H119
			c-0.1-2.7-2.4-4.8-5.1-4.7c0,0-0.1,0-0.1,0C111,216.6,108.7,218.7,108.5,221.4z"/>
		<path class="st0" d="M142.8,221.2c0-3-1.5-4-3.9-4c-1.9,0-3.7,1-4.9,2.5V234h-5.6v-21.3h5.6v2.8c1.9-2.1,4.6-3.3,7.5-3.3
			c4.7,0,6.9,2.6,6.9,6.8v15h-5.6V221.2z"/>
		<path class="st0" d="M155.1,228.8v-11.1h-3.5v-4.9h3.5v-5.8h5.6v5.8h4.3v4.9h-4.3v9.6c0,1.3,0.7,2.3,1.9,2.3
			c0.7,0,1.4-0.2,1.9-0.6l1.2,4.2c-1.3,1-3,1.5-4.7,1.4C157.2,234.6,155.1,232.6,155.1,228.8z"/>
		<path class="st0" d="M183.3,231.4c-1.9,2.1-4.7,3.3-7.5,3.2c-4.7,0-6.9-2.6-6.9-6.7v-15.1h5.6v12.9c0,3,1.5,3.9,3.9,3.9
			c1.9,0,3.7-0.9,4.9-2.4v-14.4h5.6v21.3h-5.6L183.3,231.4z"/>
		<path class="st0" d="M194.4,212.8h5.6v2.9c1.7-2.1,4.1-3.3,6.8-3.4v5.5c-0.5-0.1-1-0.2-1.5-0.2c-2,0-3.9,0.9-5.2,2.4v14.1h-5.6
			L194.4,212.8z"/>
		<path class="st0" d="M220,212.2c6.4,0,10.7,4.8,10.7,11.7v1.2h-15.9c0.4,2.7,2.5,4.9,6.1,4.9c2.1,0,4.1-0.8,5.7-2.1l2.5,3.6
			c-2.5,2-5.6,3.1-8.8,3c-6.5,0-11.4-4.4-11.4-11.2c-0.2-6,4.5-11,10.5-11.2C219.6,212.2,219.8,212.2,220,212.2z M214.8,221.4h10.5
			c-0.1-2.7-2.4-4.8-5.1-4.7c0,0-0.1,0-0.1,0C217.3,216.6,214.9,218.7,214.8,221.4L214.8,221.4z"/>
		<path class="st0" d="M237.4,227.4c2,0,3.6,1.6,3.6,3.6c0,2-1.6,3.6-3.6,3.6c-2,0-3.6-1.6-3.6-3.6c0,0,0,0,0,0
			C233.8,229,235.4,227.4,237.4,227.4z"/>
	</g>
</g>
</svg>
