<?xml version="1.0" encoding="utf-8"?>
<!-- Generator: Adobe Illustrator 26.0.3, SVG Export Plug-In . SVG Version: 6.00 Build 0)  -->
<svg version="1.1" id="Layer_1" xmlns="http://www.w3.org/2000/svg" xmlns:xlink="http://www.w3.org/1999/xlink" x="0px" y="0px"
	 viewBox="0 0 300 600" style="enable-background:new 0 0 300 600;" xml:space="preserve">
<style type="text/css">
	.st0{fill:#FFFFFF;}
</style>
<g>
	<g>
		<path class="st0" d="M39.7,56.5h-8.6V51h23.5v5.5H46v23.9h-6.3V56.5z"/>
		<path class="st0" d="M57.9,52.6c0-1.9,1.5-3.4,3.4-3.4c1.9,0,3.4,1.5,3.4,3.4c0,1.9-1.5,3.4-3.4,3.4c0,0,0,0,0,0
			C59.4,56,57.9,54.5,57.9,52.6z M58.5,59.1h5.6v21.3h-5.6L58.5,59.1z"/>
		<path class="st0" d="M96,67c0-2-0.9-3.4-3.2-3.4c-1.8,0.1-3.4,1-4.4,2.4v14.4h-5.6V67c0-2-0.9-3.4-3.2-3.4c-1.8,0.1-3.4,1-4.4,2.5
			v14.3h-5.6V59.1h5.6v2.8c1.7-2.1,4.3-3.3,7-3.3c3.1,0,5.1,1.5,5.9,3.9c1.7-2.4,4.4-3.8,7.3-3.9c3.9,0,6.3,2.1,6.3,6.4v15.4H96V67z
			"/>
		<path class="st0" d="M116.8,58.6c6.3,0,10.7,4.8,10.7,11.7v1.2h-15.8c0.3,2.7,2.5,4.9,6.1,4.9c2.1,0,4.1-0.7,5.7-2.1L126,78
			c-2.5,2-5.6,3.1-8.8,3c-6.5,0-11.4-4.4-11.4-11.2c-0.2-6,4.5-11,10.5-11.2C116.5,58.6,116.7,58.6,116.8,58.6z M111.6,67.8h10.5
			c-0.1-2.7-2.4-4.9-5.1-4.8c-0.1,0-0.1,0-0.2,0C114.1,62.9,111.8,65,111.6,67.8z"/>
		<path class="st0" d="M144,75.1V64h-3.5v-4.9h3.5v-5.8h5.6v5.8h4.3V64h-4.4v9.6c0,1.3,0.7,2.3,1.9,2.3c0.7,0,1.4-0.2,1.9-0.6
			l1.2,4.2c-1.3,1-3,1.5-4.7,1.4C146.1,81,144,78.9,144,75.1z"/>
		<path class="st0" d="M156.4,69.8c-0.2-5.9,4.4-10.9,10.4-11.2c0.3,0,0.6,0,0.9,0c7.1,0,11.3,5.1,11.3,11.2c0.2,6-4.4,11-10.3,11.3
			c-0.3,0-0.6,0-0.9,0C160.6,81,156.4,75.8,156.4,69.8z M173.1,69.8c0-3.3-2-6.2-5.5-6.2s-5.4,2.9-5.4,6.2s1.9,6.2,5.4,6.2
			S173.1,73.1,173.1,69.8L173.1,69.8z"/>
	</g>
</g>
</svg>
