<?xml version="1.0" encoding="utf-8"?>
<!-- Generator: Adobe Illustrator 26.0.3, SVG Export Plug-In . SVG Version: 6.00 Build 0)  -->
<svg version="1.1" id="Layer_1" xmlns="http://www.w3.org/2000/svg" xmlns:xlink="http://www.w3.org/1999/xlink" x="0px" y="0px"
	 viewBox="0 0 300 600" style="enable-background:new 0 0 300 600;" xml:space="preserve">
<style type="text/css">
	.st0{fill:#FFFFFF;}
	.st1{clip-path:url(#SVGID_00000093856339574309916290000007564670402156556959_);}
</style>
<g>
	<g>
		<path class="st0" d="M69.4,552v-11.9h1.8v10.3h5.4v1.5H69.4z"/>
		<path class="st0" d="M83.7,552v-1c-0.7,0.8-1.8,1.2-2.8,1.2c-1.6,0.1-2.9-1.2-3-2.7c0,0,0-0.1,0-0.1c0-1.5,1.2-2.8,2.7-2.8
			c0.1,0,0.2,0,0.3,0c1.1-0.1,2.1,0.4,2.8,1.1v-1.4c0-1.1-0.9-1.7-2.1-1.7c-1,0-1.9,0.4-2.6,1.2l-0.7-1.1c0.9-0.9,2.2-1.4,3.5-1.4
			c1.9,0,3.5,0.8,3.5,3v5.8H83.7z M83.7,548.6c-0.5-0.7-1.4-1-2.2-1c-0.9-0.1-1.8,0.5-1.9,1.5c-0.1,0.9,0.5,1.8,1.5,1.9
			c0.2,0,0.3,0,0.5,0c0.9,0,1.7-0.3,2.2-1V548.6z"/>
		<path class="st0" d="M93.6,552l-2.9-3.7l-1.3,1.3v2.4h-1.6v-11.9h1.6v7.7l4.2-4.4h2l-3.7,3.9l3.8,4.7H93.6z"/>
		<path class="st0" d="M100.5,543.2c2.6,0,4.2,2,4.2,4.7v0.4h-6.8c0.1,1.5,1.4,2.7,2.9,2.7c0.9,0,1.9-0.3,2.6-1l0.8,1
			c-0.9,0.9-2.2,1.3-3.5,1.3c-2.5,0-4.6-2-4.6-4.5C96,545.3,98,543.2,100.5,543.2L100.5,543.2z M97.8,547.1h5.3
			c0-1.4-1.1-2.6-2.5-2.6c0,0-0.1,0-0.1,0C99.1,544.5,97.9,545.7,97.8,547.1z"/>
		<path class="st0" d="M72.3,568.2v-10.3h-3.7v-1.6h9.2v1.6h-3.7v10.3L72.3,568.2z"/>
		<path class="st0" d="M81.4,559.4c2.6,0,4.2,2,4.2,4.7v0.4h-6.8c0.1,1.5,1.4,2.7,2.9,2.7c0.9,0,1.9-0.3,2.6-1l0.8,1
			c-0.9,0.9-2.2,1.3-3.5,1.3c-2.5,0-4.6-2-4.6-4.5C76.9,561.4,78.9,559.4,81.4,559.4L81.4,559.4L81.4,559.4z M78.8,563.3H84
			c0-1.4-1.1-2.6-2.5-2.6c0,0-0.1,0-0.1,0C80,560.7,78.8,561.9,78.8,563.3L78.8,563.3z"/>
		<path class="st0" d="M100.8,568.2l-1-2.5H94l-1,2.5h-2l4.7-11.9H98l4.7,11.9H100.8z M96.9,557.9l-2.4,6.3h4.8L96.9,557.9z"/>
		<path class="st0" d="M110,568.2v-5.5c0-1.4-0.7-1.9-1.8-1.9c-0.9,0-1.8,0.5-2.4,1.2v6.2h-1.6v-8.6h1.6v1.2
			c0.8-0.9,1.9-1.4,3.1-1.4c1.4-0.2,2.6,0.8,2.8,2.1c0,0.2,0,0.4,0,0.6v6L110,568.2z"/>
		<path class="st0" d="M119.4,568.2v-0.9c-0.7,0.8-1.8,1.2-2.8,1.2c-1.6,0.1-2.9-1.2-3-2.7c0,0,0-0.1,0-0.1c0-1.5,1.2-2.8,2.7-2.8
			c0.1,0,0.2,0,0.3,0c1.1-0.1,2.1,0.4,2.8,1.1v-1.4c0-1.1-0.9-1.7-2.1-1.7c-1,0-1.9,0.4-2.6,1.1l-0.7-1.1c0.9-0.9,2.2-1.4,3.5-1.4
			c1.9,0,3.5,0.8,3.5,3v5.8L119.4,568.2z M119.4,564.9c-0.5-0.7-1.4-1-2.2-1c-0.9-0.1-1.8,0.5-1.9,1.5c-0.1,0.9,0.5,1.8,1.5,1.9
			c0.2,0,0.3,0,0.5,0c0.9,0,1.7-0.3,2.2-1V564.9z"/>
		<path class="st0" d="M129.4,568.2V567c-0.8,0.9-1.9,1.4-3.1,1.4c-1.3,0.2-2.6-0.7-2.8-2.1c0-0.2,0-0.5,0-0.7v-6.1h1.6v5.5
			c0,1.4,0.7,1.9,1.8,1.9c0.9,0,1.8-0.5,2.4-1.2v-6.2h1.6v8.6H129.4z"/>
		<g>
			<defs>
				<rect id="SVGID_1_" width="300" height="600"/>
			</defs>
			<clipPath id="SVGID_00000065767345355117023250000000067453345226506407_">
				<use xlink:href="#SVGID_1_"  style="overflow:visible;"/>
			</clipPath>
			<g style="clip-path:url(#SVGID_00000065767345355117023250000000067453345226506407_);">
				<path class="st0" d="M53.4,555c-3.2,4.4-6.4,8.9-9.6,13.3l-0.1,0.2c-0.2,0.3-0.4,0.3-0.6,0c-0.7-1-1.4-1.9-2.1-2.9
					c-2.4-3.4-4.8-6.8-7.3-10.1c-1.1-1.5-1.9-3.1-2.4-4.9c-0.2-0.9-0.4-1.9-0.4-2.8c0-6.2,4.5-11.5,10.6-12.5
					c6.7-1,13,3.5,14.1,10.2C56.2,548.8,55.4,552.3,53.4,555 M56.5,545c-1.2-6.1-6.4-10.5-12.6-10.7c-7.4-0.2-13.6,5.6-13.8,13.1
					c0,0.6,0,1.1,0.1,1.7c0.3,2.4,1.2,4.7,2.6,6.6l10.1,14c0.3,0.5,0.7,0.5,1,0c1-1.4,2-2.7,2.9-4.1c2.5-3.5,5.1-7,7.6-10.5
					c1.5-2.2,2.4-4.9,2.4-7.6C56.7,546.7,56.6,545.8,56.5,545"/>
				<path class="st0" d="M43.3,555.8c-4.6,0-8.2-3.7-8.2-8.3c0-4.6,3.7-8.2,8.3-8.2c4.6,0,8.2,3.7,8.2,8.3c0,0,0,0,0,0
					C51.6,552.1,47.9,555.8,43.3,555.8 M55.6,545.5c-1.2-6.8-7.6-11.3-14.4-10.2c-6,1-10.4,6.3-10.3,12.4c0,1,0.1,1.9,0.4,2.8
					c0.5,1.8,1.3,3.4,2.4,4.9c2.5,3.3,4.9,6.7,7.3,10.1c0.7,1,1.4,1.9,2.1,2.9c0.2,0.3,0.4,0.3,0.6,0l0.1-0.2
					c3.2-4.4,6.4-8.9,9.6-13.3C55.4,552.2,56.2,548.8,55.6,545.5"/>
				<path class="st0" d="M43.4,554.9c-4.1,0-7.3-3.3-7.3-7.3s3.3-7.3,7.3-7.3s7.3,3.3,7.3,7.3c0,0,0,0,0,0
					C50.7,551.6,47.4,554.9,43.4,554.9 M43.4,539.3c-4.6,0-8.2,3.7-8.2,8.2c0,4.6,3.7,8.2,8.2,8.2c4.5,0,8.2-3.7,8.2-8.2
					C51.6,543,48,539.3,43.4,539.3C43.4,539.3,43.4,539.3,43.4,539.3"/>
			</g>
		</g>
	</g>
</g>
</svg>
