<?xml version="1.0" encoding="utf-8"?>
<!-- Generator: Adobe Illustrator 26.0.3, SVG Export Plug-In . SVG Version: 6.00 Build 0)  -->
<svg version="1.1" id="Layer_1" xmlns="http://www.w3.org/2000/svg" xmlns:xlink="http://www.w3.org/1999/xlink" x="0px" y="0px"
	 viewBox="0 0 300 600" style="enable-background:new 0 0 300 600;" xml:space="preserve">
<style type="text/css">
	.st0{fill:#FFFFFF;}
	.st1{clip-path:url(#SVGID_00000156548942993372579470000006053478973351669931_);}
</style>
<g>
	<g>
		<path class="st0" d="M69.4,552v-11.9h8v1.6h-6.2v3.5h6.1v1.6h-6.1v5.2H69.4z"/>
		<path class="st0" d="M79.1,540.9c0-0.6,0.5-1,1-1c0.6,0,1,0.5,1,1s-0.5,1-1,1C79.5,542,79.1,541.5,79.1,540.9z M79.3,552v-8.6h1.6
			v8.6H79.3z"/>
		<path class="st0" d="M82.9,547.7c0.1-2.4,2.1-4.3,4.5-4.2c2.4,0.1,4.3,2.1,4.2,4.5c-0.1,2.3-2,4.2-4.4,4.2c-2.4,0-4.3-1.8-4.4-4.2
			C82.9,547.9,82.9,547.8,82.9,547.7z M89.9,547.7c0-1.6-0.9-3.1-2.7-3.1c-1.5,0.1-2.8,1.4-2.7,2.9c0,0.1,0,0.1,0,0.2
			c0,1.6,1,3.1,2.7,3.1S90,549.3,89.9,547.7L89.9,547.7z"/>
		<path class="st0" d="M93.7,552v-8.6h1.6v1.3c0.7-0.9,1.7-1.5,2.8-1.5v1.6c-0.2,0-0.4-0.1-0.6-0.1c-0.9,0.1-1.7,0.5-2.3,1.2v6H93.7
			z"/>
		<path class="st0" d="M105.8,552v-1.2c-0.7,0.9-1.7,1.4-2.8,1.5c-2.2,0-3.8-1.7-3.8-4.5s1.6-4.5,3.8-4.5c1.1,0,2.2,0.6,2.8,1.5
			v-4.5h1.6V552H105.8z M105.8,545.9c-0.5-0.8-1.4-1.3-2.4-1.3c-1.6,0-2.6,1.3-2.6,3.1s1,3.1,2.6,3.1c0.9,0,1.8-0.5,2.4-1.2V545.9z"
			/>
		<path class="st0" d="M110,552v-11.9h1.6V552H110z"/>
		<path class="st0" d="M119.5,552v-1c-0.7,0.8-1.8,1.2-2.8,1.2c-1.6,0.1-2.9-1.2-3-2.7c0,0,0-0.1,0-0.1c0-1.5,1.2-2.8,2.7-2.8
			c0.1,0,0.2,0,0.3,0c1.1-0.1,2.1,0.4,2.8,1.1v-1.4c0-1.1-0.9-1.7-2.1-1.7c-1,0-1.9,0.4-2.6,1.1l-0.7-1.1c0.9-0.9,2.2-1.4,3.5-1.4
			c1.9,0,3.5,0.8,3.5,3v5.8H119.5z M119.5,548.6c-0.5-0.7-1.4-1-2.2-1c-0.9-0.1-1.8,0.5-1.9,1.5c-0.1,0.9,0.5,1.8,1.5,1.9
			c0.2,0,0.3,0,0.5,0c0.9,0,1.7-0.3,2.2-1V548.6z"/>
		<path class="st0" d="M129.5,552v-5.5c0-1.4-0.7-1.9-1.8-1.9c-0.9,0-1.8,0.5-2.4,1.2v6.2h-1.6v-8.6h1.6v1.2c0.8-0.9,1.8-1.4,3-1.4
			c1.4-0.2,2.6,0.8,2.8,2.1c0,0.2,0,0.4,0,0.6v6L129.5,552z"/>
		<path class="st0" d="M139.8,552v-1.2c-0.7,0.9-1.7,1.4-2.8,1.5c-2.2,0-3.9-1.7-3.9-4.5s1.6-4.5,3.9-4.5c1.1,0,2.2,0.6,2.8,1.5
			v-4.5h1.6V552H139.8z M139.8,545.9c-0.5-0.8-1.4-1.3-2.4-1.3c-1.6,0-2.6,1.3-2.6,3.1s1,3.1,2.6,3.1c0.9,0,1.8-0.5,2.4-1.2V545.9z"
			/>
		<path class="st0" d="M77.8,568.2v-5.3h-6.6v5.3h-1.8v-11.9h1.8v5h6.6v-5h1.8v11.9H77.8z"/>
		<path class="st0" d="M81.9,557.1c0-0.6,0.4-1,1-1s1,0.4,1,1s-0.4,1-1,1S81.9,557.7,81.9,557.1z M82.2,568.2v-8.6h1.6v8.6H82.2z"/>
		<path class="st0" d="M86.3,565.9c0.8,0.8,1.8,1.2,2.9,1.2c1.2,0,1.9-0.5,1.9-1.2s-1-1.1-2.1-1.4c-1.5-0.3-3.2-0.7-3.2-2.6
			c0-1.4,1.2-2.6,3.3-2.6c1.2,0,2.4,0.4,3.3,1.2l-0.7,1.1c-0.7-0.7-1.6-1-2.6-1c-1.1,0-1.8,0.4-1.8,1.1s0.9,1,2,1.2
			c1.5,0.3,3.3,0.8,3.3,2.7c0,1.5-1.2,2.7-3.5,2.7c-1.3,0.1-2.6-0.4-3.6-1.3L86.3,565.9z"/>
		<path class="st0" d="M95,566.3V561h-1.4v-1.4H95v-2.4h1.6v2.4h1.8v1.4h-1.7v5c0,0.6,0.3,1.1,0.8,1.1c0.3,0,0.6-0.1,0.9-0.3
			l0.4,1.2c-0.5,0.4-1.1,0.6-1.7,0.6c-1,0.1-2-0.6-2.1-1.7C95,566.7,95,566.5,95,566.3z"/>
		<path class="st0" d="M99.6,563.9c0.1-2.4,2.1-4.3,4.5-4.2c2.4,0.1,4.3,2.1,4.2,4.5c-0.1,2.3-2,4.2-4.4,4.2c-2.4,0-4.3-1.8-4.4-4.2
			C99.6,564.1,99.6,564,99.6,563.9z M106.6,563.9c0-1.6-1-3.1-2.7-3.1c-1.6,0.1-2.8,1.4-2.7,2.9c0,0.1,0,0.1,0,0.2
			c0,1.6,1,3.1,2.7,3.1S106.7,565.5,106.6,563.9L106.6,563.9z"/>
		<path class="st0" d="M110.4,568.2v-8.6h1.6v1.3c0.7-0.9,1.7-1.5,2.8-1.5v1.6c-0.2,0-0.4-0.1-0.6-0.1c-0.9,0.1-1.7,0.5-2.3,1.2v6
			L110.4,568.2z"/>
		<path class="st0" d="M116.2,557.1c0-0.6,0.5-1,1-1c0.6,0,1,0.5,1,1s-0.5,1-1,1C116.6,558.2,116.2,557.7,116.2,557.1z M116.4,568.2
			v-8.6h1.6v8.6H116.4z"/>
		<path class="st0" d="M124.4,559.4c1.3-0.1,2.5,0.5,3.2,1.5l-1.1,1c-0.5-0.7-1.3-1.1-2.1-1.1c-1.7,0.2-2.9,1.7-2.7,3.5
			c0.2,1.4,1.3,2.6,2.7,2.7c0.8,0,1.6-0.4,2.1-1.1l1.1,1c-0.8,1-2,1.6-3.2,1.5c-2.5,0-4.5-2-4.5-4.5
			C119.9,561.5,121.9,559.4,124.4,559.4L124.4,559.4z"/>
		<path class="st0" d="M133.6,562.3c-0.1-3.3,2.5-6.1,5.8-6.2c0.1,0,0.2,0,0.3,0c1.9-0.1,3.7,0.9,4.7,2.5l-1.5,0.8
			c-0.7-1.1-1.9-1.7-3.2-1.7c-2.5,0.2-4.4,2.3-4.3,4.9c0.2,2.3,2,4.1,4.3,4.3c1.3,0,2.5-0.6,3.2-1.7l1.5,0.8c-1,1.6-2.8,2.6-4.7,2.5
			c-3.3,0.1-6-2.6-6.1-5.9C133.5,562.5,133.5,562.4,133.6,562.3z"/>
		<path class="st0" d="M146.1,568.2v-8.6h1.6v1.3c0.7-0.9,1.7-1.5,2.8-1.5v1.6c-0.2,0-0.4,0-0.6,0c-0.9,0.1-1.7,0.5-2.3,1.2v6
			L146.1,568.2z"/>
		<path class="st0" d="M158,568.2V567c-0.8,0.9-1.9,1.4-3.1,1.4c-1.3,0.2-2.6-0.7-2.8-2.1c0-0.2,0-0.5,0-0.7v-6.1h1.6v5.5
			c0,1.4,0.7,1.9,1.8,1.9c0.9,0,1.8-0.5,2.4-1.2v-6.2h1.6v8.6H158z"/>
		<path class="st0" d="M161.9,557.1c0-0.6,0.4-1,1-1s1,0.4,1,1s-0.4,1-1,1S161.9,557.7,161.9,557.1z M162.1,568.2v-8.6h1.6v8.6
			H162.1z"/>
		<path class="st0" d="M166.3,565.9c0.8,0.8,1.8,1.2,2.9,1.2c1.2,0,1.9-0.5,1.9-1.2s-1-1.1-2.1-1.4c-1.5-0.3-3.2-0.7-3.2-2.6
			c0-1.4,1.2-2.6,3.3-2.6c1.2,0,2.4,0.4,3.3,1.2l-0.7,1.1c-0.7-0.7-1.6-1-2.6-1c-1.1,0-1.8,0.4-1.8,1.1s0.9,1,2,1.2
			c1.5,0.3,3.3,0.8,3.3,2.7c0,1.5-1.2,2.7-3.5,2.7c-1.3,0.1-2.6-0.4-3.6-1.3L166.3,565.9z"/>
		<path class="st0" d="M178.4,559.4c2.6,0,4.2,2,4.2,4.7v0.4h-6.8c0.1,1.5,1.4,2.7,2.9,2.7c1,0,1.9-0.3,2.6-1l0.8,1
			c-0.9,0.9-2.2,1.3-3.5,1.3c-2.5,0-4.6-2-4.6-4.5C174,561.4,175.9,559.4,178.4,559.4L178.4,559.4L178.4,559.4z M175.8,563.3h5.3
			c0-1.4-1.1-2.6-2.5-2.6c0,0-0.1,0-0.1,0C177,560.7,175.8,561.9,175.8,563.3L175.8,563.3z"/>
		<path class="st0" d="M184.7,565.9c0.8,0.8,1.8,1.2,2.9,1.2c1.2,0,1.9-0.5,1.9-1.2s-1-1.1-2.1-1.4c-1.5-0.3-3.2-0.7-3.2-2.6
			c0-1.4,1.2-2.6,3.3-2.6c1.2,0,2.4,0.4,3.3,1.2l-0.7,1.1c-0.7-0.7-1.6-1-2.6-1c-1.1,0-1.8,0.4-1.8,1.1s0.9,1,2,1.2
			c1.5,0.3,3.3,0.8,3.3,2.7c0,1.5-1.2,2.7-3.5,2.7c-1.3,0.1-2.6-0.4-3.6-1.3L184.7,565.9z"/>
		<g>
			<defs>
				<rect id="SVGID_1_" width="300" height="600"/>
			</defs>
			<clipPath id="SVGID_00000017502344498116397400000014316314007314497433_">
				<use xlink:href="#SVGID_1_"  style="overflow:visible;"/>
			</clipPath>
			<g style="clip-path:url(#SVGID_00000017502344498116397400000014316314007314497433_);">
				<path class="st0" d="M53.4,555c-3.2,4.4-6.4,8.9-9.6,13.3l-0.1,0.2c-0.2,0.3-0.4,0.3-0.6,0c-0.7-1-1.4-1.9-2.1-2.9
					c-2.4-3.4-4.8-6.8-7.3-10.1c-1.1-1.5-1.9-3.1-2.4-4.9c-0.2-0.9-0.4-1.9-0.4-2.8c0-6.2,4.5-11.5,10.6-12.5
					c6.7-1,13,3.5,14.1,10.2C56.2,548.8,55.4,552.3,53.4,555 M56.5,545c-1.2-6.1-6.4-10.5-12.6-10.7c-7.4-0.2-13.6,5.6-13.8,13.1
					c0,0.6,0,1.1,0.1,1.7c0.3,2.4,1.2,4.7,2.6,6.6l10.1,14c0.3,0.5,0.7,0.5,1,0c1-1.4,2-2.7,2.9-4.1c2.5-3.5,5.1-7,7.6-10.5
					c1.5-2.2,2.4-4.9,2.4-7.6C56.7,546.7,56.6,545.8,56.5,545"/>
				<path class="st0" d="M43.3,555.8c-4.6,0-8.2-3.7-8.2-8.3c0-4.6,3.7-8.2,8.3-8.2c4.6,0,8.2,3.7,8.2,8.3c0,0,0,0,0,0
					C51.6,552.1,47.9,555.8,43.3,555.8 M55.6,545.5c-1.2-6.8-7.6-11.3-14.4-10.2c-6,1-10.4,6.3-10.3,12.4c0,1,0.1,1.9,0.4,2.8
					c0.5,1.8,1.3,3.4,2.4,4.9c2.5,3.3,4.9,6.7,7.3,10.1c0.7,1,1.4,1.9,2.1,2.9c0.2,0.3,0.4,0.3,0.6,0l0.1-0.2
					c3.2-4.4,6.4-8.9,9.6-13.3C55.4,552.2,56.2,548.8,55.6,545.5"/>
				<path class="st0" d="M43.4,554.9c-4.1,0-7.3-3.3-7.3-7.3s3.3-7.3,7.3-7.3s7.3,3.3,7.3,7.3c0,0,0,0,0,0
					C50.7,551.6,47.4,554.9,43.4,554.9 M43.4,539.3c-4.6,0-8.2,3.7-8.2,8.2c0,4.6,3.7,8.2,8.2,8.2c4.5,0,8.2-3.7,8.2-8.2
					C51.6,543,48,539.3,43.4,539.3C43.4,539.3,43.4,539.3,43.4,539.3"/>
			</g>
		</g>
	</g>
</g>
</svg>
