<?xml version="1.0" encoding="utf-8"?>
<!-- Generator: Adobe Illustrator 26.0.3, SVG Export Plug-In . SVG Version: 6.00 Build 0)  -->
<svg version="1.1" id="Layer_1" xmlns="http://www.w3.org/2000/svg" xmlns:xlink="http://www.w3.org/1999/xlink" x="0px" y="0px"
	 viewBox="0 0 300 600" style="enable-background:new 0 0 300 600;" xml:space="preserve">
<style type="text/css">
	.st0{fill:#FFFFFF;}
	.st1{clip-path:url(#SVGID_00000062185217802725227240000014148714638462624393_);}
	.st2{opacity:0.12;}
	.st3{clip-path:url(#SVGID_00000142872481735808759170000004920089238079044528_);}
	.st4{clip-path:url(#SVGID_00000049916035618447534580000010946259337710467507_);}
</style>
<g>
	<g>
		<path class="st0" d="M72.3,477.9v-10.3h-3.7v-1.6h9.2v1.6h-3.7v10.3H72.3z"/>
		<path class="st0" d="M81.4,469c2.6,0,4.2,2,4.2,4.7v0.4h-6.8c0.1,1.5,1.4,2.7,2.9,2.7c0.9,0,1.9-0.3,2.6-1l0.8,1
			c-0.9,0.9-2.2,1.3-3.5,1.3c-2.5-0.1-4.5-2.2-4.4-4.7C77.2,471,79.1,469.1,81.4,469L81.4,469z M78.8,472.9H84
			c0-1.4-1.1-2.6-2.5-2.6c0,0-0.1,0-0.1,0C80,470.3,78.8,471.5,78.8,472.9L78.8,472.9z"/>
		<path class="st0" d="M100.8,477.9l-1-2.5H94l-1,2.5h-2l4.7-11.9H98l4.7,11.9H100.8z M96.9,467.5l-2.4,6.3h4.8L96.9,467.5z"/>
		<path class="st0" d="M110,477.9v-5.5c0-1.4-0.7-1.9-1.8-1.9c-0.9,0-1.8,0.5-2.4,1.2v6.2h-1.6v-8.6h1.6v1.2
			c0.8-0.9,1.9-1.4,3.1-1.4c1.4-0.2,2.6,0.8,2.8,2.1c0,0.2,0,0.4,0,0.6v6H110z"/>
		<path class="st0" d="M119.4,477.9v-1c-0.7,0.8-1.8,1.2-2.8,1.2c-1.6,0.1-2.9-1.1-3-2.7c0,0,0-0.1,0-0.1c0-1.5,1.2-2.8,2.7-2.8
			c0.1,0,0.2,0,0.3,0c1.1-0.1,2.1,0.4,2.8,1.1v-1.4c0-1.1-0.9-1.7-2.1-1.7c-1,0-1.9,0.4-2.6,1.1l-0.7-1.1c0.9-0.9,2.2-1.4,3.5-1.4
			c1.9,0,3.5,0.8,3.5,3v5.8L119.4,477.9z M119.4,474.5c-0.5-0.7-1.4-1-2.2-1c-0.9-0.1-1.8,0.5-1.9,1.5c-0.1,0.9,0.5,1.8,1.5,1.9
			c0.2,0,0.3,0,0.5,0c0.9,0,1.7-0.3,2.2-1V474.5z"/>
		<path class="st0" d="M129.4,477.9v-1.2c-0.8,0.9-1.9,1.4-3.1,1.4c-1.3,0.2-2.6-0.7-2.8-2.1c0-0.2,0-0.5,0-0.7v-6.1h1.6v5.5
			c0,1.4,0.7,1.9,1.8,1.9c0.9,0,1.8-0.5,2.4-1.2v-6.2h1.6v8.6H129.4z"/>
		<path class="st0" d="M75.1,482c1.9-0.1,3.6,0.8,4.7,2.4l-1.4,0.8c-0.8-1-2-1.6-3.3-1.6c-2.5,0.2-4.4,2.4-4.3,4.9
			c0.2,2.3,2,4.1,4.3,4.3c1.1,0,2.2-0.4,3-1.2v-2.1h-3.8v-1.6h5.6v4.4c-1.2,1.4-3,2.1-4.8,2.1c-3.4,0.1-6.3-2.5-6.4-5.9
			c-0.1-3.4,2.5-6.3,5.9-6.4C74.7,481.9,74.9,481.9,75.1,482L75.1,482z"/>
		<path class="st0" d="M81.6,489.7c0.1-2.4,2.1-4.3,4.5-4.2c2.4,0.1,4.3,2.1,4.2,4.5c-0.1,2.3-2,4.2-4.3,4.2
			c-2.4,0.1-4.3-1.8-4.4-4.2C81.6,490,81.6,489.8,81.6,489.7z M88.6,489.7c0-1.6-0.9-3.1-2.7-3.1c-1.5,0.1-2.8,1.4-2.7,2.9
			c0,0.1,0,0.1,0,0.2c0,1.6,1,3.1,2.7,3.1S88.6,491.4,88.6,489.7L88.6,489.7z"/>
		<path class="st0" d="M92.3,494v-11.9H94v11.9L92.3,494z"/>
		<path class="st0" d="M98.5,486.8v7.2h-1.6v-7.2h-1.4v-1.4h1.4v-0.6c-0.2-1.4,0.8-2.7,2.2-2.9c0.1,0,0.3,0,0.4,0
			c0.5,0,1,0.1,1.4,0.3l-0.4,1.2c-0.2-0.1-0.5-0.2-0.8-0.2c-0.8,0-1.3,0.5-1.3,1.6v0.6h1.8v1.4L98.5,486.8z"/>
		<path class="st0" d="M105.9,488.1c-0.1-3.3,2.6-6,5.9-6.1c0.1,0,0.1,0,0.2,0c1.9-0.1,3.7,0.9,4.7,2.5l-1.5,0.8
			c-0.7-1.1-1.9-1.8-3.2-1.7c-2.5,0.2-4.4,2.3-4.3,4.9c0.2,2.3,2,4.1,4.3,4.3c1.3,0,2.5-0.6,3.2-1.7l1.5,0.8c-1,1.6-2.8,2.6-4.7,2.5
			c-3.3,0-6-2.6-6.1-5.9C105.9,488.3,105.9,488.2,105.9,488.1z"/>
		<path class="st0" d="M118.5,494v-11.9h1.6v11.9L118.5,494z"/>
		<path class="st0" d="M128.5,494v-1.2c-0.8,0.9-1.9,1.4-3.1,1.4c-1.3,0.2-2.6-0.7-2.8-2.1c0-0.2,0-0.5,0-0.7v-6.1h1.6v5.6
			c0,1.4,0.7,1.9,1.8,1.9c0.9,0,1.8-0.5,2.4-1.2v-6.2h1.6v8.6L128.5,494z"/>
		<path class="st0" d="M132.7,494v-11.9h1.6v4.5c0.6-0.9,1.7-1.5,2.8-1.5c2.2,0,3.8,1.8,3.8,4.5s-1.6,4.5-3.8,4.5
			c-1.1,0-2.2-0.5-2.8-1.4v1.2L132.7,494z M134.3,491.6c0.5,0.8,1.4,1.2,2.4,1.2c1.6,0,2.6-1.3,2.6-3.1s-1-3.1-2.6-3.1
			c-1,0-1.8,0.5-2.4,1.3V491.6z"/>
		<g>
			<defs>
				<rect id="SVGID_1_" width="300" height="600"/>
			</defs>
			<clipPath id="SVGID_00000170976518323603657030000018405122572011468710_">
				<use xlink:href="#SVGID_1_"  style="overflow:visible;"/>
			</clipPath>
			<g style="clip-path:url(#SVGID_00000170976518323603657030000018405122572011468710_);">
				<path class="st0" d="M53.4,481.8c-3.2,4.4-6.4,8.9-9.6,13.3l-0.1,0.1c-0.2,0.3-0.4,0.3-0.6,0c-0.7-1-1.4-1.9-2.1-2.9
					c-2.4-3.4-4.8-6.8-7.3-10.1c-1.1-1.5-1.9-3.1-2.4-4.9c-0.2-0.9-0.4-1.9-0.4-2.9c0-6.2,4.5-11.5,10.6-12.5
					c6.7-1,13,3.5,14.1,10.2C56.2,475.6,55.4,479.1,53.4,481.8 M56.5,471.8c-1.2-6.1-6.4-10.5-12.6-10.8
					c-7.4-0.2-13.6,5.6-13.8,13.1c0,0.6,0,1.2,0.1,1.8c0.3,2.4,1.2,4.7,2.6,6.6l10.1,14c0.3,0.5,0.7,0.5,1,0c1-1.4,2-2.7,2.9-4.1
					c2.5-3.5,5.1-7,7.6-10.5c1.6-2.2,2.4-4.9,2.4-7.6C56.7,473.5,56.6,472.6,56.5,471.8"/>
				<path class="st0" d="M43.3,482.6c-4.6,0-8.2-3.7-8.2-8.3c0-4.6,3.7-8.2,8.3-8.2c4.6,0,8.2,3.7,8.2,8.3
					C51.6,479,47.9,482.6,43.3,482.6 M55.6,472.3c-1.1-6.7-7.4-11.2-14.1-10.2c-6.1,1-10.6,6.3-10.6,12.5c0,1,0.1,1.9,0.4,2.9
					c0.5,1.8,1.3,3.4,2.4,4.9c2.5,3.3,4.9,6.7,7.3,10.1c0.7,0.9,1.4,1.9,2.1,2.9c0.2,0.3,0.4,0.3,0.6,0l0.1-0.2
					c3.2-4.4,6.4-8.9,9.6-13.3C55.4,479,56.2,475.6,55.6,472.3"/>
				<path class="st0" d="M43.4,481.7c-4.1,0-7.3-3.3-7.3-7.3s3.3-7.3,7.3-7.3s7.3,3.3,7.3,7.3c0,0,0,0,0,0
					C50.7,478.4,47.4,481.7,43.4,481.7 M43.4,466.1c-4.6,0-8.2,3.7-8.2,8.2c0,4.6,3.7,8.2,8.2,8.2c4.5,0,8.2-3.7,8.2-8.2
					C51.6,469.9,47.9,466.2,43.4,466.1C43.4,466.1,43.4,466.1,43.4,466.1"/>
				<g class="st2">
					<g>
						<defs>
							<rect id="SVGID_00000045619795208531911820000016963303752941912968_" x="-1" y="-1" width="302" height="602"/>
						</defs>
						<clipPath id="SVGID_00000071531417083577323140000002666135388655625629_">
							<use xlink:href="#SVGID_00000045619795208531911820000016963303752941912968_"  style="overflow:visible;"/>
						</clipPath>
						<g style="clip-path:url(#SVGID_00000071531417083577323140000002666135388655625629_);">
							<g>
								<g>
									<defs>
										<rect id="SVGID_00000143607640582012786090000015370322628754180502_" x="-1" y="-1" width="302" height="602"/>
									</defs>
									<clipPath id="SVGID_00000076580091309023052590000012432686681500235187_">
										<use xlink:href="#SVGID_00000143607640582012786090000015370322628754180502_"  style="overflow:visible;"/>
									</clipPath>
									<g style="clip-path:url(#SVGID_00000076580091309023052590000012432686681500235187_);">
										<rect width="300" height="600"/>
									</g>
								</g>
							</g>
						</g>
					</g>
				</g>
			</g>
		</g>
	</g>
</g>
</svg>
