<?xml version="1.0" encoding="utf-8"?>
<!-- Generator: Adobe Illustrator 26.0.3, SVG Export Plug-In . SVG Version: 6.00 Build 0)  -->
<svg version="1.1" id="Layer_1" xmlns="http://www.w3.org/2000/svg" xmlns:xlink="http://www.w3.org/1999/xlink" x="0px" y="0px"
	 viewBox="0 0 300 250" style="enable-background:new 0 0 300 250;" xml:space="preserve">
<style type="text/css">
	.st0{fill:#CDFFFF;}
</style>
<g>
	<g>
		<path class="st0" d="M41.2,75.4h4.5v23.7h-4.5V75.4z"/>
		<path class="st0" d="M60.5,97.3c-1.4,1.5-3.4,2.3-5.4,2.2c-3.1,0.2-5.8-2.3-6-5.4c0-0.1,0-0.2,0-0.3c0-4,3.2-5.5,6-5.5
			c2-0.1,4,0.6,5.4,2.1v-2.4c0-1.7-1.5-2.9-3.8-2.9c-1.9,0-3.7,0.7-5,2l-1.7-3c2.1-1.8,4.8-2.7,7.5-2.7c3.9,0,7.5,1.5,7.5,6.5v11.1
			h-4.5V97.3z M60.5,92.8c-0.9-1-2.2-1.6-3.6-1.5c-1.8,0-3.2,0.9-3.2,2.6s1.5,2.5,3.2,2.5c1.4,0.1,2.7-0.5,3.6-1.5V92.8z"/>
		<path class="st0" d="M76.1,92.4L74,94.7v4.4h-4.5V75.4H74v14.2l6.5-7.6H86l-6.8,7.8l7,9.4h-5.6L76.1,92.4z"/>
		<path class="st0" d="M96,81.5c5.1,0,8.6,3.8,8.6,9.4v1H91.9c0.3,2.4,2.5,4.2,4.9,4c1.7,0,3.3-0.6,4.6-1.7l2,2.9
			c-2,1.6-4.5,2.5-7.1,2.4c-5.2,0-9.2-3.5-9.2-9c-0.2-4.8,3.6-8.8,8.4-9C95.7,81.5,95.9,81.5,96,81.5z M91.8,88.9h8.4
			c-0.1-2.2-2-3.9-4.2-3.8c0,0,0,0,0,0C93.8,85,92,86.7,91.8,88.9L91.8,88.9z"/>
		<path class="st0" d="M108.4,93.7c1.7,1.4,3.7,2.2,5.9,2.3c1.9,0,2.9-0.7,2.9-1.7s-1.5-1.6-3.4-2c-3-0.6-6.8-1.3-6.8-5.4
			c0-2.9,2.5-5.4,7-5.4c2.5,0,5,0.8,6.9,2.3l-1.8,3.1c-1.4-1.3-3.2-2-5.1-2c-1.6,0-2.7,0.6-2.7,1.6s1.3,1.5,3.3,1.8
			c2.9,0.6,6.9,1.3,6.9,5.6c0,3.1-2.7,5.5-7.4,5.5c-2.8,0.1-5.5-0.9-7.7-2.7L108.4,93.7z"/>
		<path class="st0" d="M124.4,76.7c0-1.5,1.2-2.7,2.7-2.7c1.5,0,2.7,1.2,2.7,2.7s-1.2,2.7-2.7,2.7C125.6,79.4,124.4,78.2,124.4,76.7
			z M124.8,81.9h4.5v17.1h-4.5L124.8,81.9z"/>
		<path class="st0" d="M145.6,96.8c-1.3,1.7-3.2,2.6-5.3,2.6c-4.3,0-7.6-3.3-7.6-9s3.2-9,7.6-9c2.1,0,4,1,5.3,2.6v-8.7h4.5v23.7
			h-4.5V96.8z M145.6,87.4c-0.9-1.2-2.4-2-3.9-2c-2.6,0-4.3,2-4.3,5s1.8,5,4.3,5c1.5,0,3-0.8,3.9-2V87.4z"/>
		<path class="st0" d="M162.4,81.5c5.1,0,8.6,3.8,8.6,9.4v1h-12.8c0.3,2.4,2.5,4.2,4.9,4c1.7,0,3.3-0.6,4.6-1.7l2,2.9
			c-2,1.6-4.5,2.5-7.1,2.4c-5.2,0-9.2-3.5-9.2-9c-0.2-4.8,3.6-8.9,8.4-9C162.1,81.5,162.3,81.5,162.4,81.5z M158.2,88.9h8.4
			c-0.1-2.2-2-3.9-4.2-3.8c0,0,0,0,0,0C160.2,85,158.3,86.7,158.2,88.9L158.2,88.9z"/>
		<path class="st0" d="M176.5,93.7c1.6,0,2.9,1.3,2.9,2.9c0,1.6-1.3,2.9-2.9,2.9c-1.6,0-2.9-1.3-2.9-2.9
			C173.6,95,174.9,93.7,176.5,93.7z"/>
	</g>
</g>
</svg>
