<?xml version="1.0" encoding="utf-8"?>
<!-- Generator: Adobe Illustrator 26.0.3, SVG Export Plug-In . SVG Version: 6.00 Build 0)  -->
<svg version="1.1" id="Layer_1" xmlns="http://www.w3.org/2000/svg" xmlns:xlink="http://www.w3.org/1999/xlink" x="0px" y="0px"
	 viewBox="0 0 300 250" style="enable-background:new 0 0 300 250;" xml:space="preserve">
<style type="text/css">
	.st0{fill:#CDFFFF;}
</style>
<g>
	<g>
		<path class="st0" d="M171.5,43.4h4.5v8.7c1.3-1.7,3.2-2.6,5.3-2.6c4.4,0,7.6,3.4,7.6,9s-3.3,9-7.6,9c-2.1,0-4-1-5.3-2.6v2.2h-4.5
			V43.4z M179.9,63.5c2.6,0,4.4-2,4.4-5s-1.7-5-4.4-5c-1.5,0-3,0.8-3.9,2v6.1C176.9,62.7,178.4,63.4,179.9,63.5z"/>
		<path class="st0" d="M191.9,44.7c0-1.5,1.2-2.7,2.7-2.7c1.5,0,2.7,1.2,2.7,2.7c0,0,0,0,0,0c0,1.5-1.2,2.7-2.7,2.7
			C193.1,47.4,191.9,46.2,191.9,44.7z M192.3,49.9h4.5v17.1h-4.5V49.9z"/>
		<path class="st0" d="M207.9,60.5l-2.1,2.2v4.4h-4.5V43.4h4.5v14.2l6.5-7.6h5.5l-6.8,7.8l7,9.4h-5.6L207.9,60.5z"/>
		<path class="st0" d="M227.8,49.5c5.1,0,8.6,3.8,8.6,9.4v1h-12.7c0.3,2.4,2.5,4.2,4.9,4c1.7,0,3.3-0.6,4.6-1.7l2,2.9
			c-2,1.6-4.5,2.5-7.1,2.4c-5.2,0-9.2-3.5-9.2-9c-0.2-4.8,3.6-8.9,8.4-9C227.5,49.5,227.7,49.5,227.8,49.5z M223.6,56.9h8.4
			c-0.1-2.2-2-3.9-4.2-3.8c0,0,0,0,0,0C225.6,53,223.8,54.7,223.6,56.9z"/>
	</g>
</g>
</svg>
