<?xml version="1.0" encoding="utf-8"?>
<!-- Generator: Adobe Illustrator 26.0.3, SVG Export Plug-In . SVG Version: 6.00 Build 0)  -->
<svg version="1.1" id="Layer_1" xmlns="http://www.w3.org/2000/svg" xmlns:xlink="http://www.w3.org/1999/xlink" x="0px" y="0px"
	 viewBox="0 0 300 250" style="enable-background:new 0 0 300 250;" xml:space="preserve">
<style type="text/css">
	.st0{clip-path:url(#SVGID_00000095324053461430143700000001200800567406750360_);}
	.st1{fill:#FFFFFF;}
	.st2{fill:#80919E;}
</style>
<g>
	<g>
		<g>
			<defs>
				<rect id="SVGID_1_" width="300" height="250"/>
			</defs>
			<clipPath id="SVGID_00000107553893402888432400000002024738690364723600_">
				<use xlink:href="#SVGID_1_"  style="overflow:visible;"/>
			</clipPath>
			<g style="clip-path:url(#SVGID_00000107553893402888432400000002024738690364723600_);">
				<path class="st1" d="M54,140.9c-8.3,0-15,6.7-15,15s6.7,15,15,15h70c8.3,0,15-6.7,15-15s-6.7-15-15-15H54z"/>
			</g>
		</g>
		<path class="st2" d="M53,150h5.1c1.9,0,3.5,1.6,3.5,3.5S60,157,58.1,157h-2.8v3.9H53V150z M57.8,152h-2.5v3h2.5
			c0.8,0,1.5-0.7,1.5-1.5S58.6,152,57.8,152z"/>
		<path class="st2" d="M63.1,150h2.1v10.9h-2.1V150z"/>
		<path class="st2" d="M72,160.1c-0.7,0.7-1.6,1-2.5,1c-1.4,0.1-2.7-1.1-2.7-2.5c0,0,0-0.1,0-0.1c0-1.4,1.1-2.5,2.5-2.5
			c0.1,0,0.1,0,0.2,0c0.9-0.1,1.9,0.3,2.5,1v-1.1c0-0.8-0.7-1.3-1.7-1.3c-0.9,0-1.7,0.3-2.3,0.9l-0.8-1.4c1-0.8,2.2-1.3,3.4-1.2
			c1.8,0,3.4,0.7,3.4,3v5.1h-2V160.1z M72,158c-0.4-0.5-1-0.7-1.7-0.7c-0.8,0-1.5,0.4-1.5,1.2s0.7,1.2,1.5,1.2
			c0.6,0,1.2-0.2,1.7-0.7V158z"/>
		<path class="st2" d="M81.4,156.1c0.1-0.7-0.4-1.3-1.1-1.5c-0.1,0-0.2,0-0.3,0c-0.7,0-1.4,0.4-1.8,0.9v5.3h-2.1V153h2.1v1
			c0.7-0.8,1.7-1.2,2.8-1.2c1.3-0.2,2.4,0.7,2.6,2c0,0.2,0,0.3,0,0.5v5.6h-2.1V156.1z"/>
		<path class="st2" d="M92.1,153.6v7.3h-2.3V150h2.4l5,7v-7h2.3v10.9h-2.2L92.1,153.6z"/>
		<path class="st2" d="M101.1,156.9c0-2.3,1.8-4.2,4.1-4.2c2.3,0,4.2,1.8,4.2,4.1c0,2.3-1.8,4.2-4.1,4.2c0,0,0,0,0,0
			c-2.2,0.1-4.1-1.6-4.1-3.8C101.1,157.1,101.1,157,101.1,156.9z M107.2,156.9c-0.2-1.1-1.2-1.8-2.3-1.7c-1.1,0.2-1.8,1.2-1.7,2.3
			c0.1,1,1,1.7,2,1.7c1.1,0,2-1,2-2.1C107.2,157,107.2,157,107.2,156.9z"/>
		<path class="st2" d="M116.2,155.5l-1.7,5.4h-2.2l-2.4-7.9h2.2l1.5,5.3l1.7-5.3h1.8l1.7,5.3l1.5-5.3h2.2l-2.4,7.9h-2.2L116.2,155.5
			z"/>
		<path class="st2" d="M123.9,158.4c0.7,0,1.3,0.6,1.3,1.3c0,0.7-0.6,1.3-1.3,1.3c-0.7,0-1.3-0.6-1.3-1.3
			C122.6,159,123.2,158.4,123.9,158.4z"/>
	</g>
</g>
</svg>
