<?xml version="1.0" encoding="utf-8"?>
<!-- Generator: Adobe Illustrator 26.0.3, SVG Export Plug-In . SVG Version: 6.00 Build 0)  -->
<svg version="1.1" id="Layer_1" xmlns="http://www.w3.org/2000/svg" xmlns:xlink="http://www.w3.org/1999/xlink" x="0px" y="0px"
	 viewBox="0 0 300 250" style="enable-background:new 0 0 300 250;" xml:space="preserve">
<style type="text/css">
	.st0{fill:#FFFFFF;}
	.st1{clip-path:url(#SVGID_00000183216697036281190020000002961941708123240382_);}
</style>
<g>
	<g>
		<path class="st0" d="M73.3,212.6v-8.4h-3v-1.3h7.4v1.3h-3v8.4H73.3z"/>
		<path class="st0" d="M78,212.6v-7h1.3v1.1c0.5-0.7,1.4-1.2,2.3-1.2v1.3c-0.1,0-0.3,0-0.4,0c-0.7,0-1.4,0.4-1.8,1v4.9L78,212.6z"/>
		<path class="st0" d="M82.7,203.6c0-0.5,0.4-0.8,0.8-0.8c0.5,0,0.8,0.4,0.8,0.8s-0.4,0.8-0.8,0.8C83.1,204.4,82.7,204.1,82.7,203.6
			z M82.9,212.6v-7h1.3v7H82.9z"/>
		<path class="st0" d="M87.6,215.2h-1.3v-9.6h1.3v1c0.5-0.7,1.4-1.2,2.3-1.2c1.8,0,3.1,1.4,3.1,3.7s-1.3,3.7-3.1,3.7
			c-0.9,0-1.8-0.4-2.3-1.2V215.2z M89.5,206.6c-0.8,0-1.5,0.4-1.9,1v3c0.5,0.6,1.2,1,1.9,1c1.3,0,2.1-1.1,2.1-2.5
			S90.8,206.6,89.5,206.6z"/>
		<path class="st0" d="M94.6,210.7c0.6,0.6,1.5,1,2.3,1c1,0,1.5-0.4,1.5-1s-0.8-0.9-1.7-1.1c-1.2-0.3-2.6-0.6-2.6-2.1
			c0-1.1,1-2.1,2.7-2.1c1,0,1.9,0.3,2.7,1l-0.6,0.9c-0.5-0.6-1.3-0.9-2.1-0.9c-0.9,0-1.4,0.4-1.4,0.9s0.8,0.8,1.6,1
			c1.2,0.3,2.7,0.6,2.7,2.2c0,1.2-1,2.1-2.8,2.1c-1.1,0-2.1-0.3-2.9-1.1L94.6,210.7z"/>
		<path class="st0" d="M113,212.6h-1.7c-0.3-0.2-0.6-0.6-1-0.9c-0.7,0.7-1.7,1.1-2.7,1.1c-1.7,0-3-0.9-3-2.7
			c0.1-1.3,0.9-2.4,2.1-2.9c-0.4-0.6-0.7-1.4-0.7-2.1c0-1.3,1.1-2.3,2.4-2.3c0,0,0.1,0,0.1,0c1.1-0.2,2.1,0.6,2.3,1.7
			c0,0.1,0,0.2,0,0.2c0,1.5-1.2,2.1-2.4,2.7c0.4,0.5,0.7,0.9,1,1.3s0.7,0.8,1.1,1.2c0.4-0.7,0.8-1.4,1-2.1l1.1,0.5
			c-0.3,0.9-0.8,1.7-1.3,2.4C111.7,211.3,112.3,211.9,113,212.6z M109.6,210.9c-0.5-0.5-1-1.1-1.3-1.4s-0.8-0.9-1.1-1.5
			c-0.7,0.4-1.2,1.1-1.3,1.9c0,1,0.7,1.7,1.7,1.8c0,0,0.1,0,0.1,0C108.4,211.7,109.1,211.4,109.6,210.9L109.6,210.9z M107.8,206.6
			c1-0.5,1.8-1,1.8-1.8c0-0.6-0.4-1-1-1c-0.7,0-1.2,0.6-1.2,1.2c0,0,0,0,0,0.1C107.3,205.6,107.5,206.1,107.8,206.6L107.8,206.6z"/>
		<path class="st0" d="M73.3,225.7v-8.4h-3V216h7.4v1.3h-3v8.4L73.3,225.7z"/>
		<path class="st0" d="M78,225.7v-7h1.3v1.1c0.5-0.7,1.4-1.2,2.3-1.2v1.3c-0.1,0-0.3-0.1-0.4-0.1c-0.7,0-1.4,0.4-1.8,1v4.9L78,225.7
			z"/>
		<path class="st0" d="M87.2,225.7v-0.8c-0.6,0.6-1.4,1-2.3,0.9c-1.3,0.1-2.4-0.9-2.4-2.2c0,0,0-0.1,0-0.1c0-1.2,1-2.3,2.2-2.3
			c0.1,0,0.1,0,0.2,0c0.9,0,1.7,0.3,2.3,0.9V221c0-0.9-0.7-1.4-1.7-1.4c-0.8,0-1.6,0.3-2.1,0.9l-0.6-0.9c0.8-0.8,1.8-1.2,2.9-1.1
			c1.5,0,2.8,0.7,2.8,2.4v4.7L87.2,225.7z M87.2,223c-0.4-0.5-1.1-0.8-1.8-0.8c-0.8-0.1-1.5,0.4-1.6,1.2c-0.1,0.8,0.4,1.5,1.2,1.6
			c0.1,0,0.3,0,0.4,0c0.7,0,1.3-0.3,1.8-0.8V223z"/>
		<path class="st0" d="M99.1,225.7V221c0-0.8-0.4-1.4-1.2-1.4c-0.7,0-1.3,0.4-1.7,1v5h-1.3V221c0-0.8-0.3-1.4-1.2-1.4
			c-0.7,0.1-1.3,0.4-1.7,1v5h-1.3v-7h1.3v1c0.5-0.7,1.4-1.1,2.3-1.1c0.9-0.1,1.7,0.5,1.9,1.3c0.5-0.8,1.4-1.3,2.4-1.3
			c1.3,0,2,0.7,2,2.1v5L99.1,225.7z"/>
		<path class="st0" d="M103.8,228.3h-1.3v-9.6h1.3v1c0.5-0.7,1.4-1.2,2.3-1.2c1.8,0,3.1,1.4,3.1,3.6s-1.3,3.7-3.1,3.7
			c-0.9,0-1.8-0.4-2.3-1.2V228.3z M105.7,219.7c-0.8,0-1.5,0.4-1.9,1v3c0.4,0.6,1.2,1,1.9,1c1.3,0,2.1-1.1,2.1-2.5
			S107,219.7,105.7,219.7z"/>
		<path class="st0" d="M110.8,223.8c0.6,0.6,1.5,1,2.3,1c1,0,1.5-0.4,1.5-1s-0.8-0.9-1.7-1.1c-1.2-0.3-2.6-0.6-2.6-2.1
			c0-1.1,1-2.1,2.7-2.1c1,0,1.9,0.3,2.7,1l-0.6,0.9c-0.5-0.6-1.3-0.9-2.1-0.9c-0.9,0-1.4,0.4-1.4,0.9s0.8,0.8,1.6,1
			c1.2,0.3,2.7,0.6,2.7,2.2c0,1.2-1,2.1-2.8,2.1c-1.1,0-2.1-0.3-2.9-1.1L110.8,223.8z"/>
		<g>
			<defs>
				<rect id="SVGID_1_" width="300" height="250"/>
			</defs>
			<clipPath id="SVGID_00000072273706594076239950000001338867756795557260_">
				<use xlink:href="#SVGID_1_"  style="overflow:visible;"/>
			</clipPath>
			<g style="clip-path:url(#SVGID_00000072273706594076239950000001338867756795557260_);">
				<path class="st0" d="M57.9,214.8c-2.6,3.6-5.2,7.2-7.8,10.8l-0.1,0.1c-0.2,0.2-0.3,0.2-0.5,0c-0.6-0.8-1.1-1.5-1.7-2.3
					c-2-2.7-3.9-5.5-5.9-8.2c-0.9-1.2-1.6-2.5-2-3.9c-0.2-0.8-0.3-1.5-0.3-2.3c-0.1-5.6,4.4-10.1,9.9-10.2c5-0.1,9.2,3.5,10.1,8.4
					C60.2,209.9,59.5,212.6,57.9,214.8 M60.4,206.7c-1-4.9-5.2-8.5-10.2-8.7c-6-0.2-11,4.6-11.2,10.6c0,0.5,0,0.9,0.1,1.4
					c0.2,1.9,0.9,3.8,2.1,5.4c2.7,3.8,5.5,7.5,8.2,11.4c0.3,0.4,0.5,0.4,0.8,0l2.4-3.3c2.1-2.8,4.1-5.6,6.1-8.5c1.3-1.8,2-3.9,2-6.1
					C60.7,208.1,60.6,207.4,60.4,206.7"/>
				<path class="st0" d="M49.8,215.5c-3.7,0-6.7-3-6.6-6.7c0-3.7,3-6.7,6.7-6.6c3.7,0,6.7,3,6.6,6.7c0,0,0,0,0,0
					C56.5,212.5,53.5,215.5,49.8,215.5 M59.8,207.2c-1-5.5-6.2-9.1-11.7-8.1c-4.8,0.9-8.3,5-8.3,9.9c0,0.8,0.1,1.6,0.3,2.3
					c0.4,1.4,1.1,2.8,2,3.9c2,2.7,3.9,5.4,5.9,8.2c0.6,0.8,1.1,1.5,1.7,2.3c0.2,0.2,0.3,0.2,0.5,0l0.1-0.1l7.8-10.8
					C59.7,212.6,60.3,209.8,59.8,207.2"/>
				<path class="st0" d="M49.8,214.8c-3.3,0-5.9-2.7-5.9-6c0-3.3,2.7-5.9,6-5.9c3.3,0,5.9,2.7,5.9,5.9
					C55.8,212.1,53.1,214.8,49.8,214.8 M49.8,202.2c-3.7,0-6.7,3-6.7,6.7c0,3.7,3,6.7,6.7,6.7c3.7,0,6.7-3,6.7-6.6
					C56.5,205.2,53.5,202.2,49.8,202.2C49.8,202.2,49.8,202.2,49.8,202.2"/>
			</g>
		</g>
	</g>
</g>
</svg>
