<?xml version="1.0" encoding="utf-8"?>
<!-- Generator: Adobe Illustrator 26.0.3, SVG Export Plug-In . SVG Version: 6.00 Build 0)  -->
<svg version="1.1" id="Layer_1" xmlns="http://www.w3.org/2000/svg" xmlns:xlink="http://www.w3.org/1999/xlink" x="0px" y="0px"
	 viewBox="0 0 300 250" style="enable-background:new 0 0 300 250;" xml:space="preserve">
<style type="text/css">
	.st0{clip-path:url(#SVGID_00000176764410669185746410000005590951079991322037_);}
	.st1{fill:#FFFFFF;}
</style>
<g>
	<g>
		<g>
			<defs>
				<rect id="SVGID_1_" x="193.1" y="188.8" width="85.9" height="38.2"/>
			</defs>
			<clipPath id="SVGID_00000015313894700552680360000003847183332788381577_">
				<use xlink:href="#SVGID_1_"  style="overflow:visible;"/>
			</clipPath>
			<g style="clip-path:url(#SVGID_00000015313894700552680360000003847183332788381577_);">
				<path class="st1" d="M201.8,189.2h4.1v37.6h-4.1V189.2z M274.6,189.2h-4.8v37.6h5c2.8,0,4.2-1.4,4.2-4.1v-29.5
					C279.1,190.4,277.7,189.1,274.6,189.2 M275.2,221.5c0,0.9-0.2,1.3-1,1.3h-0.4V193h0.4c0.8,0,1,0.2,1,1.4V221.5z M193.1,226.8
					h4.1V210l3.2-2.6v-5l-3.2,2.6v-12h3.2v-3.8H193L193.1,226.8z M233.3,189.1h-4.8v37.6h5c2.8,0,4.2-1.4,4.2-4.1v-29.4
					C237.8,190.4,236.4,189.1,233.3,189.1 M233.9,221.5c0,0.9-0.2,1.3-1,1.3h-0.4V193h0.4c0.8,0,1,0.2,1,1.4V221.5z M212.1,188.8
					c-3.2,0-4.8,1.9-4.8,6.2v26.6c0,3.8,1.4,5.4,4.6,5.4c1.5,0.1,3-0.6,4-1.8c0.6-0.6,0.8-1.6,0.8-3.2v-27.9
					C216.6,190.6,215.1,188.8,212.1,188.8 M212.8,222c0,1-0.2,1.3-0.8,1.3s-0.8-0.4-0.8-1.2v-27.9c0-1,0.2-1.4,0.8-1.4
					s0.8,0.2,0.8,1.4V222z M264.8,211l-2.6-21.7h-4.3V223l-5.8-33.8h-1.2l-5.1,33.7h-2.5v-33.8h-4.2v37.6h10l2.4-20.4l3.2,20.4h6.8
					V208l2.4,18.8h4.5v-37.6h-3.7V211z M225.5,209.3c1.1-0.8,1.7-2.1,1.6-3.4v-12.6c0-2.6-1.6-4.1-4.5-4.1H218v37.6h4v-15.6h0.4
					c0.4,0,0.8,0.1,0.8,0.4v15.2h4.1v-14c0-2-0.5-3-1.7-3.6 M223.2,206.4c0,0.9-0.1,1-0.6,1c-0.1,0-0.3,0-0.4,0v-14.3h0.4
					c0.6,0,0.8,0.2,0.8,1.2L223.2,206.4z"/>
			</g>
		</g>
	</g>
</g>
</svg>
