<svg xmlns="http://www.w3.org/2000/svg" xmlns:xlink="http://www.w3.org/1999/xlink" viewBox="0 0 98.99 135.02"><defs><style>.cls-1{fill:none;}.cls-2{fill:#fff;}.cls-3{clip-path:url(#clip-path);}</style><clipPath id="clip-path" transform="translate(-0.16 -2.55)"><rect class="cls-1" width="111" height="20"/></clipPath></defs><title>text5</title><g id="Layer_2" data-name="Layer 2"><g id="Layer_1-2" data-name="Layer 1"><path class="cls-2" d="M2.21,132l-.76.5-.2-.35.81-.41-.81-.42.2-.35.76.49,0-.9h.41l-.05.9.76-.49.2.35-.8.42.8.41-.2.35-.76-.5.05.91H2.17Z" transform="translate(-0.16 -2.55)"/><path class="cls-2" d="M4.46,135.14v-2.37H3.82v-.63h.64v-1.06h.72v1.06H6v.63H5.18V135c0,.28.13.48.38.48A.54.54,0,0,0,6,135.3l.18.55a1,1,0,0,1-.75.25A.85.85,0,0,1,4.46,135.14Z" transform="translate(-0.16 -2.55)"/><path class="cls-2" d="M8.46,132a1.9,1.9,0,0,1,1.88,2.09v.17h-3a1.26,1.26,0,0,0,1.31,1.2,1.65,1.65,0,0,0,1.14-.45l.34.47a2.17,2.17,0,0,1-1.55.58A2,2,0,0,1,8.46,132Zm-1.18,1.75H9.64a1.15,1.15,0,0,0-1.18-1.16A1.19,1.19,0,0,0,7.28,133.79Z" transform="translate(-0.16 -2.55)"/><path class="cls-2" d="M11.25,132.14H12v.59a1.64,1.64,0,0,1,1.26-.68v.73a.9.9,0,0,0-.25,0,1.38,1.38,0,0,0-1,.56V136h-.72Z" transform="translate(-0.16 -2.55)"/><path class="cls-2" d="M18.65,133.43c0-.45-.2-.75-.68-.75a1.26,1.26,0,0,0-1,.55V136h-.72v-2.57c0-.45-.19-.75-.67-.75a1.26,1.26,0,0,0-.95.56V136H14v-3.86h.72v.54a1.67,1.67,0,0,1,1.25-.64,1,1,0,0,1,1,.72,1.6,1.6,0,0,1,1.3-.72c.71,0,1.1.39,1.1,1.17V136h-.72Z" transform="translate(-0.16 -2.55)"/><path class="cls-2" d="M20.52,135a1.86,1.86,0,0,0,1.3.55c.54,0,.83-.22.83-.55s-.44-.51-.94-.63c-.65-.15-1.42-.32-1.42-1.15,0-.62.53-1.15,1.47-1.15a2.08,2.08,0,0,1,1.47.55l-.32.51a1.49,1.49,0,0,0-1.14-.47c-.49,0-.79.19-.79.5s.41.45.89.56c.67.15,1.47.34,1.47,1.22,0,.67-.54,1.19-1.56,1.19a2.19,2.19,0,0,1-1.6-.6Z" transform="translate(-0.16 -2.55)"/><path class="cls-2" d="M28.7,135.58a1.66,1.66,0,0,1-1.26.52,1.29,1.29,0,0,1-1.34-1.28,1.25,1.25,0,0,1,1.34-1.27,1.58,1.58,0,0,1,1.26.52v-.64c0-.48-.39-.77-.94-.77a1.59,1.59,0,0,0-1.16.51l-.31-.5a2.18,2.18,0,0,1,1.58-.63c.84,0,1.55.37,1.55,1.35V136H28.7Zm0-1.08a1.21,1.21,0,0,0-1-.44.77.77,0,1,0,0,1.53,1.21,1.21,0,0,0,1-.44Z" transform="translate(-0.16 -2.55)"/><path class="cls-2" d="M33.18,133.53c0-.64-.33-.85-.82-.85a1.35,1.35,0,0,0-1.06.56V136h-.72v-3.86h.72v.54a1.82,1.82,0,0,1,1.36-.64,1.11,1.11,0,0,1,1.24,1.25V136h-.72Z" transform="translate(-0.16 -2.55)"/><path class="cls-2" d="M37.8,135.45a1.61,1.61,0,0,1-1.26.65c-1,0-1.73-.76-1.73-2a1.8,1.8,0,0,1,1.73-2,1.57,1.57,0,0,1,1.26.66v-2h.72V136H37.8Zm0-2.2a1.34,1.34,0,0,0-1.07-.57,1.41,1.41,0,0,0,0,2.78,1.33,1.33,0,0,0,1.07-.56Z" transform="translate(-0.16 -2.55)"/><path class="cls-2" d="M43.46,132a1.7,1.7,0,0,1,1.45.68l-.48.44a1.06,1.06,0,0,0-.93-.48,1.4,1.4,0,0,0,0,2.78,1.09,1.09,0,0,0,.93-.48l.48.44a1.7,1.7,0,0,1-1.45.68,2,2,0,0,1,0-4.06Z" transform="translate(-0.16 -2.55)"/><path class="cls-2" d="M45.46,134.07a2,2,0,1,1,2,2A1.92,1.92,0,0,1,45.46,134.07Zm3.15,0a1.21,1.21,0,1,0-1.19,1.39A1.25,1.25,0,0,0,48.61,134.07Z" transform="translate(-0.16 -2.55)"/><path class="cls-2" d="M52.89,133.53c0-.64-.33-.85-.83-.85a1.38,1.38,0,0,0-1.06.56V136h-.72v-3.86H51v.54a1.86,1.86,0,0,1,1.37-.64,1.11,1.11,0,0,1,1.24,1.25V136h-.72Z" transform="translate(-0.16 -2.55)"/><path class="cls-2" d="M57.5,135.45a1.61,1.61,0,0,1-1.26.65c-1,0-1.73-.76-1.73-2a1.8,1.8,0,0,1,1.73-2,1.57,1.57,0,0,1,1.26.66v-2h.72V136H57.5Zm0-2.2a1.34,1.34,0,0,0-1.07-.57,1.41,1.41,0,0,0,0,2.78,1.33,1.33,0,0,0,1.07-.56Z" transform="translate(-0.16 -2.55)"/><path class="cls-2" d="M59.26,131a.48.48,0,0,1,.47-.47.47.47,0,0,1,.46.47.46.46,0,0,1-.46.45A.47.47,0,0,1,59.26,131Zm.12,1.1h.72V136h-.72Z" transform="translate(-0.16 -2.55)"/><path class="cls-2" d="M61.38,135.14v-2.37h-.64v-.63h.64v-1.06h.72v1.06h.79v.63H62.1V135c0,.28.13.48.38.48a.54.54,0,0,0,.39-.16l.18.55a1,1,0,0,1-.75.25A.84.84,0,0,1,61.38,135.14Z" transform="translate(-0.16 -2.55)"/><path class="cls-2" d="M63.58,131a.46.46,0,1,1,.92,0,.46.46,0,0,1-.92,0Zm.11,1.1h.72V136h-.72Z" transform="translate(-0.16 -2.55)"/><path class="cls-2" d="M65.31,134.07a2,2,0,1,1,2,2A1.92,1.92,0,0,1,65.31,134.07Zm3.15,0a1.21,1.21,0,1,0-1.2,1.39A1.25,1.25,0,0,0,68.46,134.07Z" transform="translate(-0.16 -2.55)"/><path class="cls-2" d="M72.73,133.53c0-.64-.32-.85-.82-.85a1.35,1.35,0,0,0-1.06.56V136h-.72v-3.86h.72v.54a1.82,1.82,0,0,1,1.36-.64,1.11,1.11,0,0,1,1.24,1.25V136h-.72Z" transform="translate(-0.16 -2.55)"/><path class="cls-2" d="M74.61,135a1.84,1.84,0,0,0,1.29.55c.55,0,.83-.22.83-.55s-.44-.51-.93-.63c-.66-.15-1.43-.32-1.43-1.15,0-.62.53-1.15,1.48-1.15a2.08,2.08,0,0,1,1.47.55l-.32.51a1.53,1.53,0,0,0-1.15-.47c-.48,0-.79.19-.79.5s.42.45.9.56c.67.15,1.47.34,1.47,1.22,0,.67-.55,1.19-1.56,1.19a2.2,2.2,0,0,1-1.61-.6Z" transform="translate(-0.16 -2.55)"/><path class="cls-2" d="M82.79,135.58a1.66,1.66,0,0,1-1.26.52,1.29,1.29,0,0,1-1.35-1.28,1.26,1.26,0,0,1,1.35-1.27,1.59,1.59,0,0,1,1.26.52v-.64c0-.48-.39-.77-.94-.77a1.59,1.59,0,0,0-1.16.51l-.32-.5A2.2,2.2,0,0,1,82,132c.84,0,1.55.37,1.55,1.35V136h-.72Zm0-1.08a1.22,1.22,0,0,0-1-.44.77.77,0,1,0,0,1.53,1.22,1.22,0,0,0,1-.44Z" transform="translate(-0.16 -2.55)"/><path class="cls-2" d="M84.66,137.47v-5.33h.72v.55a1.6,1.6,0,0,1,1.27-.65c1,0,1.71.76,1.71,2s-.71,2-1.71,2a1.56,1.56,0,0,1-1.27-.66v2Zm1.79-4.79a1.32,1.32,0,0,0-1.07.57v1.64a1.35,1.35,0,0,0,1.07.57c.72,0,1.16-.59,1.16-1.39S87.17,132.68,86.45,132.68Z" transform="translate(-0.16 -2.55)"/><path class="cls-2" d="M89.28,137.47v-5.33H90v.55a1.58,1.58,0,0,1,1.26-.65c1,0,1.72.76,1.72,2s-.71,2-1.72,2a1.55,1.55,0,0,1-1.26-.66v2Zm1.79-4.79a1.32,1.32,0,0,0-1.07.57v1.64a1.35,1.35,0,0,0,1.07.57c.72,0,1.16-.59,1.16-1.39S91.79,132.68,91.07,132.68Z" transform="translate(-0.16 -2.55)"/><path class="cls-2" d="M93.89,130.67h.72V136h-.72Z" transform="translate(-0.16 -2.55)"/><path class="cls-2" d="M96,136.93a.54.54,0,0,0,.56-.38l.22-.51-1.59-3.9H96l1.21,3,1.2-3h.78l-1.9,4.6a1.24,1.24,0,0,1-1.24.83,2.12,2.12,0,0,1-.44-.06l.11-.65A.88.88,0,0,0,96,136.93Z" transform="translate(-0.16 -2.55)"/><g class="cls-3"><path class="cls-2" d="M.73,2.66H4.16A2.29,2.29,0,0,1,6.62,5,2.28,2.28,0,0,1,4.16,7.37H2.29V10H.73ZM4,4H2.29V6H4A1,1,0,1,0,4,4Z" transform="translate(-0.16 -2.55)"/><path class="cls-2" d="M7.59,2.66H9.15v6h3.1V10H7.59Z" transform="translate(-0.16 -2.55)"/><path class="cls-2" d="M13.09,2.66h1.58V7a1.58,1.58,0,0,0,1.71,1.73A1.56,1.56,0,0,0,18.06,7V2.66h1.59v4.4c0,1.83-1,3.07-3.27,3.07s-3.29-1.25-3.29-3.06Z" transform="translate(-0.16 -2.55)"/><path class="cls-2" d="M21.45,7.78a3.22,3.22,0,0,0,2.33,1c.86,0,1.28-.41,1.28-.83s-.64-.73-1.49-.93c-1.2-.28-2.74-.61-2.74-2.25,0-1.22,1.06-2.21,2.79-2.21a4.06,4.06,0,0,1,2.86,1l-.87,1.14a3.14,3.14,0,0,0-2.1-.8c-.71,0-1.08.3-1.08.74s.61.65,1.46.85c1.21.28,2.75.64,2.75,2.27,0,1.34-.95,2.35-2.93,2.35A4.25,4.25,0,0,1,20.59,9Z" transform="translate(-0.16 -2.55)"/><path class="cls-2" d="M35.19,8.73H31.91L31.45,10H29.73l2.84-7.34h2L37.36,10H35.65ZM32.33,7.38h2.43L33.55,4Z" transform="translate(-0.16 -2.55)"/><path class="cls-2" d="M40.85,2.66h5.2V4H42.42V5.6H46V6.94H42.42V10H40.85Z" transform="translate(-0.16 -2.55)"/><path class="cls-2" d="M49.84,7.37H48.7V10H47.13V2.66h3.44A2.28,2.28,0,0,1,53,5a2.1,2.1,0,0,1-1.61,2.18L53.08,10h-1.8ZM50.34,4H48.7V6h1.64a1,1,0,1,0,0-2Z" transform="translate(-0.16 -2.55)"/><path class="cls-2" d="M54.21,2.66H59.4V4H55.77V5.6h3.55V6.94H55.77V8.65H59.4V10H54.21Z" transform="translate(-0.16 -2.55)"/><path class="cls-2" d="M60.62,2.66h5.19V4H62.18V5.6h3.56V6.94H62.18V8.65h3.63V10H60.62Z" transform="translate(-0.16 -2.55)"/></g><path class="cls-2" d="M4.2,87.54a3.8,3.8,0,0,1,0,7.59,3.8,3.8,0,0,1,0-7.59Zm0,1a2.83,2.83,0,1,0,2.57,2.82A2.57,2.57,0,0,0,4.2,88.52Z" transform="translate(-0.16 -2.55)"/><path class="cls-2" d="M10.33,89.37V95H9.23V87.66h1.13l4,5.5v-5.5h1.1V95H14.39Z" transform="translate(-0.16 -2.55)"/><path class="cls-2" d="M20.1,93.12a3.07,3.07,0,0,0,2.31,1c1.19,0,1.6-.6,1.6-1.13,0-.77-.83-1-1.77-1.23-1.17-.31-2.54-.65-2.54-2.15,0-1.21,1.07-2.09,2.6-2.09a3.6,3.6,0,0,1,2.67,1l-.64.81a2.84,2.84,0,0,0-2.12-.86c-.81,0-1.38.42-1.38,1s.8.86,1.71,1.1c1.2.31,2.6.69,2.6,2.25,0,1.14-.8,2.21-2.78,2.21A3.76,3.76,0,0,1,19.47,94Z" transform="translate(-0.16 -2.55)"/><path class="cls-2" d="M26.41,87.66h4.93v1H27.51v2.15h3.75v1H27.51V94h3.83v1H26.41Z" transform="translate(-0.16 -2.55)"/><path class="cls-2" d="M32.71,87.66h1.1V94h3.34v1H32.71Z" transform="translate(-0.16 -2.55)"/><path class="cls-2" d="M38.36,87.66h4.93v1H39.46v2.15h3.75v1H39.46V94h3.83v1H38.36Z" transform="translate(-0.16 -2.55)"/><path class="cls-2" d="M44.35,91.34a3.67,3.67,0,0,1,3.76-3.8A3.31,3.31,0,0,1,51,89.09l-.94.5a2.31,2.31,0,0,0-2-1.07,2.82,2.82,0,0,0,0,5.63,2.33,2.33,0,0,0,2-1.06l.94.49a3.32,3.32,0,0,1-2.92,1.55A3.67,3.67,0,0,1,44.35,91.34Z" transform="translate(-0.16 -2.55)"/><path class="cls-2" d="M53.92,88.63H51.64v-1h5.65v1H55V95h-1.1Z" transform="translate(-0.16 -2.55)"/><path class="cls-2" d="M58.43,87.66h4.93v1H59.53v2.15h3.75v1H59.53V94h3.83v1H58.43Z" transform="translate(-0.16 -2.55)"/><path class="cls-2" d="M64.73,87.66h2.62a3.67,3.67,0,1,1,0,7.34H64.73ZM67.35,94a2.7,2.7,0,0,0,0-5.4H65.83V94Z" transform="translate(-0.16 -2.55)"/><path class="cls-2" d="M7.13,102.17,4.75,108H4.29l-2.38-5.83V108H.81v-7.34H2.39l2.13,5.27,2.14-5.27H8.23V108H7.13Z" transform="translate(-0.16 -2.55)"/><path class="cls-2" d="M13.24,100.54a3.8,3.8,0,0,1,0,7.59,3.8,3.8,0,0,1,0-7.59Zm0,1a2.83,2.83,0,1,0,2.57,2.82A2.57,2.57,0,0,0,13.24,101.52Z" transform="translate(-0.16 -2.55)"/><path class="cls-2" d="M18.27,100.66h2.62a3.67,3.67,0,1,1,0,7.34H18.27ZM20.89,107a2.7,2.7,0,0,0,0-5.4H19.37V107Z" transform="translate(-0.16 -2.55)"/><path class="cls-2" d="M26,100.66H31v1H27.13v2.15h3.75v1H27.13V107H31v1H26Z" transform="translate(-0.16 -2.55)"/><path class="cls-2" d="M32.33,100.66h1.1V107h3.33v1H32.33Z" transform="translate(-0.16 -2.55)"/><path class="cls-2" d="M38.15,106.12a3.09,3.09,0,0,0,2.31,1c1.19,0,1.6-.6,1.6-1.13,0-.77-.83-1-1.77-1.23-1.17-.31-2.54-.65-2.54-2.15,0-1.21,1.07-2.09,2.6-2.09a3.6,3.6,0,0,1,2.67,1l-.64.81a2.84,2.84,0,0,0-2.12-.86c-.81,0-1.38.42-1.38,1s.8.86,1.71,1.1c1.2.31,2.6.69,2.6,2.25,0,1.14-.8,2.21-2.78,2.21A3.76,3.76,0,0,1,37.52,107Z" transform="translate(-0.16 -2.55)"/><path class="cls-2" d="M45.31,102.54l-1.05.69-.27-.49,1.11-.56L44,101.61l.27-.49,1.05.67-.06-1.24h.56l-.06,1.24,1-.67.28.49-1.1.57,1.1.56-.28.49-1-.69.06,1.25h-.56Z" transform="translate(-0.16 -2.55)"/><path class="cls-2" d="M16.84,33.76H5.4V43H2.29V22.32H5.4V31H16.84V22.32h3.1V43h-3.1Z" transform="translate(-0.16 -2.55)"/><path class="cls-2" d="M25.39,46.6a2.07,2.07,0,0,0,2.17-1.46l.87-2L22.26,28h3l4.69,11.76L34.6,28h3L30.23,45.85a4.74,4.74,0,0,1-4.78,3.23,8.28,8.28,0,0,1-1.73-.22l.43-2.51A3.52,3.52,0,0,0,25.39,46.6Z" transform="translate(-0.16 -2.55)"/><path class="cls-2" d="M39.93,22.32h8.71c4.25,0,6.61,2.91,6.61,6.36A6.19,6.19,0,0,1,48.64,35H43v8h-3.1Zm8.31,2.73H43V32.3h5.21a3.63,3.63,0,1,0,0-7.25Z" transform="translate(-0.16 -2.55)"/><path class="cls-2" d="M69.19,38.72H59.05L57.38,43H54l8.22-20.68h3.87L74.28,43H70.87ZM60,36h8.34L64.11,25Z" transform="translate(-0.16 -2.55)"/><path class="cls-2" d="M76.91,37.7a8.73,8.73,0,0,0,6.51,2.91c3.35,0,4.53-1.7,4.53-3.19,0-2.17-2.36-2.79-5-3.47-3.32-.87-7.17-1.83-7.17-6.05,0-3.41,3-5.89,7.32-5.89a10.16,10.16,0,0,1,7.54,2.88l-1.8,2.3a8,8,0,0,0-6-2.42C80.57,24.77,79,26,79,27.68s2.23,2.45,4.8,3.1c3.38.9,7.32,2,7.32,6.36,0,3.22-2.23,6.23-7.81,6.23a10.61,10.61,0,0,1-8.16-3.28Z" transform="translate(-0.16 -2.55)"/><path class="cls-2" d="M15.38,69.72H5.24L3.57,74H.16L8.37,53.32h3.88L20.46,74H17.05ZM6.14,67h8.34L10.29,56Z" transform="translate(-0.16 -2.55)"/><path class="cls-2" d="M22.94,53.32h8.71c4.25,0,6.61,2.91,6.61,6.36A6.19,6.19,0,0,1,31.65,66H26v8h-3.1Zm8.31,2.73H26V63.3h5.21a3.63,3.63,0,1,0,0-7.25Z" transform="translate(-0.16 -2.55)"/><path class="cls-2" d="M41.45,53.32h8.71c4.25,0,6.6,2.91,6.6,6.36A6.18,6.18,0,0,1,50.16,66H44.55v8h-3.1Zm8.31,2.73H44.55V63.3h5.21a3.63,3.63,0,1,0,0-7.25Z" transform="translate(-0.16 -2.55)"/></g></g></svg>