<svg id="Layer_1" data-name="Layer 1" xmlns="http://www.w3.org/2000/svg" viewBox="0 0 970 250"><defs><style>.cls-1{fill:#fff;}</style></defs><path class="cls-1" d="M65.91,133.35l-4.22-4.62a11.48,11.48,0,0,1-11-.61,11,11,0,0,1-3.94-4.85A17.93,17.93,0,0,1,45.41,116a17.32,17.32,0,0,1,1.45-7.4,10.45,10.45,0,0,1,9.91-6.37,10.58,10.58,0,0,1,6,1.72,11.12,11.12,0,0,1,3.93,4.83A17.82,17.82,0,0,1,68.09,116a18.77,18.77,0,0,1-1,6.4A11.66,11.66,0,0,1,64.17,127l4,4.29Zm-15-9.23a7.12,7.12,0,0,0,5.84,2.76,6.85,6.85,0,0,0,5.94-2.94A13.44,13.44,0,0,0,64.8,116a15.27,15.27,0,0,0-1-6,8.15,8.15,0,0,0-2.85-3.63,7.35,7.35,0,0,0-4.15-1.2,6.9,6.9,0,0,0-6,2.91c-1.4,1.93-2.09,4.57-2.09,7.9Q48.71,121.37,50.93,124.12Z"/><path class="cls-1" d="M73.87,102.64h3.07v17A8,8,0,0,0,78.58,125q1.65,1.9,5.46,1.9,3.63,0,5.37-1.83a7.58,7.58,0,0,0,1.74-5.42v-17h3.07v17.24A11,11,0,0,1,93,125.12a8.34,8.34,0,0,1-3.48,3.48,12.86,12.86,0,0,1-11,0,8.34,8.34,0,0,1-3.48-3.48,11,11,0,0,1-1.18-5.24Z"/><path class="cls-1" d="M114,122H103.47l-2.56,7.51H97.62l9.47-26.83h3.26l9.58,26.83h-3.4Zm-.92-2.74-4.33-13-4.37,13Z"/><path class="cls-1" d="M124.3,102.64h3.07v23.9h11.54v2.93H124.3Z"/><path class="cls-1" d="M143.72,129.47V102.64h3.11v26.83Z"/><path class="cls-1" d="M170.58,105.38h-8v24.09h-3V105.38h-8v-2.74h19.05Z"/><path class="cls-1" d="M175.06,102.64l6.88,13.43,6.81-13.43h3.51l-8.8,16.43v10.4h-3.15v-10.4l-8.76-16.43Z"/><path class="cls-1" d="M228,102.64v26.83h-3v-9.29q0-8,.33-11.28l-7.62,20.38h-2.89l-7.62-20.38q.33,3.33.33,11.28v9.29h-3V102.64h3l8.73,23.09,8.74-23.09Z"/><path class="cls-1" d="M248.8,122H238.25l-2.55,7.51h-3.29l9.47-26.83h3.26l9.58,26.83h-3.4Zm-.92-2.74-4.33-13-4.37,13Z"/><path class="cls-1" d="M272.33,105.38h-8v24.09h-3V105.38h-8v-2.74h19Z"/><path class="cls-1" d="M293.72,105.38h-8v24.09h-3V105.38h-8v-2.74h19.06Z"/><path class="cls-1" d="M298.42,102.64h17.35v2.89H301.49v9.14h10.58v2.74H301.49v9.13h14.28v2.93H298.42Z"/><path class="cls-1" d="M341.45,129.47H338l-5.18-10.62H325v10.62h-3.07V102.64H332a10.65,10.65,0,0,1,5.29,1.17,7.41,7.41,0,0,1,3,3,8.66,8.66,0,0,1,1,4,8.55,8.55,0,0,1-1.31,4.68,6.89,6.89,0,0,1-4,2.86Zm-4.76-14.78a5.18,5.18,0,0,0,1.46-3.91,4.93,4.93,0,0,0-1.55-3.94,6.46,6.46,0,0,0-4.37-1.35H325v10.62h7.28A6.16,6.16,0,0,0,336.69,114.69Z"/><path class="cls-1" d="M348.4,121.33a5.22,5.22,0,0,0,1.78,4.27,7.61,7.61,0,0,0,5,1.46,7.13,7.13,0,0,0,4.43-1.26,4,4,0,0,0,1.64-3.33,4,4,0,0,0-1.09-3.07,7.56,7.56,0,0,0-3.24-1.62l-3.81-1q-7-1.92-7-7.14a6.78,6.78,0,0,1,4.11-6.4,11.13,11.13,0,0,1,4.74-.93,10.1,10.1,0,0,1,6.56,2.06,7,7,0,0,1,2.57,5.71H361a4.75,4.75,0,0,0-1.7-3.64,6.52,6.52,0,0,0-4.4-1.39,6.22,6.22,0,0,0-4,1.18,3.94,3.94,0,0,0-1.45,3.22,3.38,3.38,0,0,0,1.19,2.76,10,10,0,0,0,3.7,1.65l3.73,1a9.49,9.49,0,0,1,5,2.81,7.13,7.13,0,0,1,1.5,4.63,6.74,6.74,0,0,1-1.17,3.9,7.74,7.74,0,0,1-3.31,2.69,12.06,12.06,0,0,1-5,1,11.85,11.85,0,0,1-5.27-1.08,7.65,7.65,0,0,1-3.35-3,8.44,8.44,0,0,1-1.15-4.44Z"/></svg>