<svg id="Layer_1" data-name="Layer 1" xmlns="http://www.w3.org/2000/svg" viewBox="0 0 970 250"><defs><style>.cls-1{fill:#fff;}</style></defs><path class="cls-1" d="M64,72.73H56.85V94.34H50.7V72.73H43.6V67.51H64Z"/><path class="cls-1" d="M67.48,73.5a11,11,0,0,1,4.31-4.73,13.32,13.32,0,0,1,12.77,0,10.9,10.9,0,0,1,4.31,4.73,16.62,16.62,0,0,1,1.54,7.4,16.68,16.68,0,0,1-1.54,7.44,11,11,0,0,1-4.31,4.74,12.46,12.46,0,0,1-6.4,1.63,12.33,12.33,0,0,1-6.38-1.63,11,11,0,0,1-4.3-4.76A16.68,16.68,0,0,1,66,80.9,16.62,16.62,0,0,1,67.48,73.5Zm6.46,13.66a5.15,5.15,0,0,0,8.47,0A10.78,10.78,0,0,0,84,80.9a10.68,10.68,0,0,0-1.56-6.21,5.17,5.17,0,0,0-8.49,0,10.84,10.84,0,0,0-1.53,6.21A10.79,10.79,0,0,0,73.94,87.16Z"/><path class="cls-1" d="M107.5,85.86a3.46,3.46,0,0,0,1.17,2.87,5,5,0,0,0,3.27.94,4.43,4.43,0,0,0,2.72-.77,2.45,2.45,0,0,0,1-2,2.28,2.28,0,0,0-.69-1.77,4.78,4.78,0,0,0-2-1L108.87,83a9.59,9.59,0,0,1-5.24-3,7.39,7.39,0,0,1-1.57-4.66A7.62,7.62,0,0,1,103.28,71a7.9,7.9,0,0,1,3.46-2.85,12.69,12.69,0,0,1,5.24-1,12.17,12.17,0,0,1,5.07,1A8,8,0,0,1,120.49,71a7.42,7.42,0,0,1,1.22,4.22h-6a2.65,2.65,0,0,0-1-2.2,4.26,4.26,0,0,0-2.69-.8,4,4,0,0,0-2.46.71,2.35,2.35,0,0,0-.94,2,1.9,1.9,0,0,0,.61,1.44,4.94,4.94,0,0,0,2.16,1l4,1.15q6.81,1.89,6.81,8a7.32,7.32,0,0,1-1.35,4.4,8.58,8.58,0,0,1-3.71,2.83,13.6,13.6,0,0,1-5.27,1,13.26,13.26,0,0,1-5.64-1.11,8.19,8.19,0,0,1-3.63-3.11,8.7,8.7,0,0,1-1.24-4.66Z"/><path class="cls-1" d="M126.44,67.51H144.5v5.22h-12V78.5H141v4.92h-8.44v5.66h12v5.26H126.44Z"/><path class="cls-1" d="M148.86,73.49a11,11,0,0,1,4.39-4.72,12.89,12.89,0,0,1,6.57-1.63,13.1,13.1,0,0,1,5.68,1.17,9.76,9.76,0,0,1,3.94,3.29,10.81,10.81,0,0,1,1.81,5h-6.59a4.41,4.41,0,0,0-1.61-3.06,5.27,5.27,0,0,0-3.34-1,5,5,0,0,0-4.5,2.24,11.27,11.27,0,0,0-1.46,6.19,11.4,11.4,0,0,0,1.46,6.22,5,5,0,0,0,4.5,2.26,5.22,5.22,0,0,0,3.36-1.06,4.41,4.41,0,0,0,1.59-3h6.59a10.21,10.21,0,0,1-5.88,8.25,12.75,12.75,0,0,1-5.55,1.19,13,13,0,0,1-6.57-1.63,11,11,0,0,1-4.39-4.74,16.54,16.54,0,0,1-1.55-7.44A16.41,16.41,0,0,1,148.86,73.49Z"/><path class="cls-1" d="M174.62,67.51h6.1V84.05a5.41,5.41,0,0,0,1.33,3.87,5,5,0,0,0,3.74,1.38,4.82,4.82,0,0,0,3.7-1.37,5.43,5.43,0,0,0,1.3-3.88V67.51h6.06V84.12a11.32,11.32,0,0,1-1.38,5.76,8.91,8.91,0,0,1-3.91,3.6,14.34,14.34,0,0,1-11.62,0,9,9,0,0,1-3.92-3.6,11.12,11.12,0,0,1-1.4-5.76Z"/><path class="cls-1" d="M222.16,81.33a7.92,7.92,0,0,1-3.55,3l4.62,10h-6.47l-3.92-9h-4.7v9h-6.07V67.51H213.5a10.44,10.44,0,0,1,7.33,2.42,8.42,8.42,0,0,1,2.63,6.5A8.9,8.9,0,0,1,222.16,81.33Zm-6.36-1.87A3.3,3.3,0,0,0,217,76.69a3.37,3.37,0,0,0-1.18-2.85,5.22,5.22,0,0,0-3.3-.93h-4.36v7.48h4.36A5.22,5.22,0,0,0,215.8,79.46Z"/><path class="cls-1" d="M227.64,94.34V67.51h6.1V94.34Z"/><path class="cls-1" d="M257.46,72.73h-7.14V94.34h-6.14V72.73h-7.11V67.51h20.39Z"/><path class="cls-1" d="M265.27,67.51l5.25,10.25,5.07-10.25H283l-9.32,16.91v9.92h-6.14V84.42l-9.4-16.91Z"/></svg>