<svg xmlns="http://www.w3.org/2000/svg" viewBox="0 0 173.11 37.22"><defs><style>.cls-1{fill:#f6931d;}.cls-2{fill:#fff;}</style></defs><g id="Layer_2" data-name="Layer 2"><g id="Layer_1-2" data-name="Layer 1"><rect class="cls-1" width="173.11" height="37.22" rx="18.61"/><path class="cls-2" d="M43.41,22.16V24a3.08,3.08,0,0,1-.55.11,5.89,5.89,0,0,1-.68.05,2.08,2.08,0,0,1-1.25-.37,1.57,1.57,0,0,1-.59-1,2.48,2.48,0,0,1-1.11,1,3.9,3.9,0,0,1-1.74.38,3.06,3.06,0,0,1-2.17-.77,2.69,2.69,0,0,1-.82-2.08,2.73,2.73,0,0,1,.81-2.08,3.49,3.49,0,0,1,2.23-.85l1.7-.13a1.16,1.16,0,0,0,.62-.18.71.71,0,0,0,.25-.65,1,1,0,0,0-.35-.83,1.5,1.5,0,0,0-1-.28,1.83,1.83,0,0,0-1.13.33,1.32,1.32,0,0,0-.53.91h-2.5A3.29,3.29,0,0,1,36,15.24a4.77,4.77,0,0,1,2.92-.85,3.83,3.83,0,0,1,2.82.94,3.48,3.48,0,0,1,.95,2.6v3.64a.9.9,0,0,0,.1.46.43.43,0,0,0,.4.17Zm-3.24-2.27-2,.17a1.3,1.3,0,0,0-.86.32,1,1,0,0,0-.29.77,1,1,0,0,0,.34.81,1.38,1.38,0,0,0,.9.28,1.82,1.82,0,0,0,1.36-.55,1.9,1.9,0,0,0,.54-1.38Z"/><path class="cls-2" d="M47.3,22a1.55,1.55,0,0,0,1,.31,1.5,1.5,0,0,0,.92-.26.84.84,0,0,0,.34-.68.62.62,0,0,0-.24-.57,2.1,2.1,0,0,0-.6-.29l-1.63-.45a4.07,4.07,0,0,1-1.86-1,2.36,2.36,0,0,1-.63-1.67,2.7,2.7,0,0,1,.45-1.54,2.88,2.88,0,0,1,1.26-1,4.47,4.47,0,0,1,1.88-.37,4.17,4.17,0,0,1,2.66.8,2.59,2.59,0,0,1,1,2.15H49.43a1,1,0,0,0-.33-.78,1.28,1.28,0,0,0-.84-.27,1.33,1.33,0,0,0-.84.25.77.77,0,0,0-.3.64.61.61,0,0,0,.27.56,3.26,3.26,0,0,0,.78.34l1.77.46a3,3,0,0,1,1.63,1,2.66,2.66,0,0,1,.56,1.7,2.56,2.56,0,0,1-1,2.16,4.42,4.42,0,0,1-2.78.81,4.5,4.5,0,0,1-2.8-.82,2.78,2.78,0,0,1-1.1-2.23h2.5A1,1,0,0,0,47.3,22Z"/><path class="cls-2" d="M53.91,10.62h3V13h-3Zm.23,4h2.53V24H54.14Z"/><path class="cls-2" d="M67.49,22.16V24a2.89,2.89,0,0,1-.55.11,5.74,5.74,0,0,1-.68.05A2,2,0,0,1,65,23.83a1.54,1.54,0,0,1-.6-1,2.43,2.43,0,0,1-1.11,1,3.9,3.9,0,0,1-1.74.38,3.08,3.08,0,0,1-2.17-.77,2.69,2.69,0,0,1-.82-2.08,2.73,2.73,0,0,1,.81-2.08,3.49,3.49,0,0,1,2.24-.85l1.7-.13a1.22,1.22,0,0,0,.62-.18.73.73,0,0,0,.24-.65,1,1,0,0,0-.35-.83,1.5,1.5,0,0,0-1-.28,1.85,1.85,0,0,0-1.13.33,1.32,1.32,0,0,0-.53.91h-2.5a3.29,3.29,0,0,1,1.33-2.37A4.77,4.77,0,0,1,63,14.39a3.87,3.87,0,0,1,2.83.94,3.52,3.52,0,0,1,.94,2.6v3.64a1,1,0,0,0,.1.46.44.44,0,0,0,.4.17Zm-3.24-2.27-2,.17a1.3,1.3,0,0,0-.86.32,1,1,0,0,0-.29.77,1,1,0,0,0,.34.81,1.38,1.38,0,0,0,.9.28,1.82,1.82,0,0,0,1.36-.55,1.9,1.9,0,0,0,.54-1.38Z"/><path class="cls-2" d="M69.15,10.53H71.7V24H69.15Z"/><path class="cls-2" d="M74.39,21.48h2.78V24H74.39Z"/><path class="cls-2" d="M79.3,16.69A4.07,4.07,0,0,1,80.87,15a4.52,4.52,0,0,1,2.34-.59,4.36,4.36,0,0,1,2,.45,3.81,3.81,0,0,1,1.44,1.26A3.89,3.89,0,0,1,87.28,18H84.72a1.61,1.61,0,0,0-1.63-1.48,1.49,1.49,0,0,0-1.3.7,3.63,3.63,0,0,0-.49,2.11,3.68,3.68,0,0,0,.49,2.13,1.51,1.51,0,0,0,1.3.68,1.55,1.55,0,0,0,1.09-.41,1.67,1.67,0,0,0,.54-1.05h2.56A3.64,3.64,0,0,1,86,23.24a4.78,4.78,0,0,1-5.2.39A3.94,3.94,0,0,1,79.27,22a5.9,5.9,0,0,1-.54-2.63A5.7,5.7,0,0,1,79.3,16.69Z"/><path class="cls-2" d="M89,16.74A4.2,4.2,0,0,1,90.51,15a4.63,4.63,0,0,1,4.63,0,4.2,4.2,0,0,1,1.55,1.73,5.89,5.89,0,0,1,.54,2.58,5.63,5.63,0,0,1-.55,2.57,4.08,4.08,0,0,1-1.56,1.7,4.62,4.62,0,0,1-4.59,0A4.15,4.15,0,0,1,89,21.89a5.63,5.63,0,0,1-.55-2.57A5.89,5.89,0,0,1,89,16.74Zm2.51,4.66a1.58,1.58,0,0,0,1.36.69,1.54,1.54,0,0,0,1.37-.74,3.82,3.82,0,0,0,.47-2.05,3.67,3.67,0,0,0-.5-2.11,1.58,1.58,0,0,0-1.34-.7,1.54,1.54,0,0,0-1.38.74A3.87,3.87,0,0,0,91,19.3,3.7,3.7,0,0,0,91.47,21.4Z"/><path class="cls-2" d="M111.57,15.32a3.71,3.71,0,0,1,.82,2.54V24h-2.53V18.31c0-1.21-.45-1.82-1.35-1.82a1.36,1.36,0,0,0-1.15.54,2.34,2.34,0,0,0-.4,1.44V24h-2.52V18.35c0-1.24-.45-1.86-1.36-1.86a1.35,1.35,0,0,0-1.14.54,2.34,2.34,0,0,0-.4,1.44V24H99V14.57h2.22l.18,1.08a2.49,2.49,0,0,1,1-.94,3.13,3.13,0,0,1,1.43-.32,2.78,2.78,0,0,1,1.57.45,2.43,2.43,0,0,1,1,1.2,3,3,0,0,1,1.17-1.21,3.35,3.35,0,0,1,1.71-.44A2.89,2.89,0,0,1,111.57,15.32Z"/><path class="cls-2" d="M114.55,21.48h2.78V24h-2.78Z"/><path class="cls-2" d="M128.06,22.16V24a2.89,2.89,0,0,1-.55.11,5.73,5.73,0,0,1-.67.05,2.06,2.06,0,0,1-1.25-.37,1.57,1.57,0,0,1-.59-1,2.5,2.5,0,0,1-1.12,1,3.83,3.83,0,0,1-1.73.38,3.06,3.06,0,0,1-2.17-.77,2.69,2.69,0,0,1-.82-2.08,2.73,2.73,0,0,1,.81-2.08,3.46,3.46,0,0,1,2.23-.85l1.7-.13a1.16,1.16,0,0,0,.62-.18.71.71,0,0,0,.25-.65,1,1,0,0,0-.36-.83,1.45,1.45,0,0,0-1-.28,1.83,1.83,0,0,0-1.13.33,1.33,1.33,0,0,0-.54.91H119.3a3.29,3.29,0,0,1,1.33-2.37,4.75,4.75,0,0,1,2.92-.85,3.83,3.83,0,0,1,2.82.94,3.52,3.52,0,0,1,.95,2.6v3.64a.9.9,0,0,0,.1.46.41.41,0,0,0,.39.17Zm-3.24-2.27-2,.17a1.28,1.28,0,0,0-.86.32,1,1,0,0,0-.29.77A1,1,0,0,0,122,22a1.43,1.43,0,0,0,.91.28,1.83,1.83,0,0,0,1.36-.55,1.93,1.93,0,0,0,.53-1.38Z"/><path class="cls-2" d="M138,14.57V24h-2.23l-.2-1.36a2.51,2.51,0,0,1-1.1,1.11,3.49,3.49,0,0,1-1.73.43,3,3,0,0,1-2.34-1,3.66,3.66,0,0,1-.87-2.56V14.57h2.54v5.65a2.24,2.24,0,0,0,.39,1.38,1.43,1.43,0,0,0,1.22.51,1.57,1.57,0,0,0,1.33-.59,2.42,2.42,0,0,0,.46-1.55v-5.4Z"/></g></g></svg>