<svg id="Layer_1" data-name="Layer 1" xmlns="http://www.w3.org/2000/svg" viewBox="0 0 300 1000"><defs><style>.cls-1{fill:#fff;}</style></defs><path class="cls-1" d="M50.86,616.69c-.55,0-1-.1-1.65-.1-1.75,0-2.49.46-2.49,2.08v.46h4.1v7.07h-4.1v17.21H38V626.2H35.05v-7.07H38v-.91c0-5.29,2.72-8.22,9.84-8.22a20.4,20.4,0,0,1,3,.23Z"/><path class="cls-1" d="M64.21,644c-7.42,0-12.49-5.14-12.49-12.69s5.07-12.69,12.49-12.69,12.46,5.15,12.46,12.69S71.61,644,64.21,644Zm0-7c2.34,0,3.85-1.89,3.85-5.66s-1.51-5.65-3.85-5.65-3.92,1.93-3.92,5.65S61.8,636.92,64.21,636.92Z"/><path class="cls-1" d="M95.64,627.31a12.38,12.38,0,0,0-2.19-.19c-3,0-5.39,1.7-5.39,5v11.32H79.32V619.13h8.74V622a7.09,7.09,0,0,1,6-3,14.5,14.5,0,0,1,1.61.1Z"/><path class="cls-1" d="M130.83,643.41h-8.74v-2.25a8.69,8.69,0,0,1-6.49,2.8c-4.83,0-8.27-3.44-8.27-8.77V619.13h8.73v13.93c0,2,.88,3.36,2.85,3.36a3.15,3.15,0,0,0,3.2-3.08c0-.14,0-.29,0-.42V619.13h8.74Z"/><path class="cls-1" d="M136.07,634.67a15.26,15.26,0,0,0,8.45,3c1.65,0,2.85-.41,2.85-1.38,0-1.21-1.21-1.28-5.19-2s-8.32-1.83-8.32-7.17,4.83-8.55,11-8.55A16.84,16.84,0,0,1,155.55,622l-3.62,5.33a11.28,11.28,0,0,0-6.86-2.53c-1.42,0-2.41.41-2.41,1.29s1.21,1.21,4.09,1.7c4.6.82,9.25,2,9.25,7.49,0,5.66-5.25,8.64-11.92,8.64-4,0-8.92-1.21-11.31-3.31Z"/><path class="cls-1" d="M38,672.08H35V665h3v-6.45h8.59V665h4.51v7.07H46.54v7.78c0,1.93.92,2.34,2.67,2.34a16.46,16.46,0,0,0,2-.13v7.07a29,29,0,0,1-4.83.38c-5.7,0-8.45-2-8.45-7Z"/><path class="cls-1" d="M65.07,689.83c-7.4,0-12.5-5.14-12.5-12.69s5.1-12.69,12.5-12.69,12.46,5.14,12.46,12.69S72.48,689.83,65.07,689.83Zm0-7c2.35,0,3.87-1.89,3.87-5.66s-1.52-5.65-3.87-5.65-3.91,1.93-3.91,5.65S62.68,682.8,65.07,682.8Z"/><path class="cls-1" d="M91.47,689.83c-7.4,0-12.51-5.14-12.51-12.69s5.11-12.69,12.51-12.69,12.46,5.14,12.46,12.69S98.87,689.83,91.47,689.83Zm0-7c2.34,0,3.86-1.89,3.86-5.66s-1.52-5.65-3.86-5.65-3.91,1.93-3.91,5.65S89.08,682.8,91.47,682.8Z"/></svg>