<svg xmlns="http://www.w3.org/2000/svg" viewBox="0 0 86 23"><defs><style>.cls-1{fill:#fff;}</style></defs><title>ctaA</title><g id="Layer_2" data-name="Layer 2"><g id="Lines_3" data-name="Lines 3"><polygon class="cls-1" points="86 23 83.5 23 83.5 22 85 22 85 20.5 86 20.5 86 23"/><path class="cls-1" d="M79.64,23H75.79V22h3.85Zm-7.71,0H68.07V22h3.86Zm-7.72,0H60.36V22h3.85ZM56.5,23H52.64V22H56.5Zm-7.71,0H44.93V22h3.86Zm-7.72,0H37.21V22h3.86Zm-7.71,0H29.5V22h3.86Zm-7.72,0H21.79V22h3.85Zm-7.71,0H14.07V22h3.86Zm-7.72,0H6.36V22h3.85Z"/><polygon class="cls-1" points="2.5 23 0 23 0 20.5 1 20.5 1 22 2.5 22 2.5 23"/><path class="cls-1" d="M1,16.9H0V13.3H1ZM1,9.7H0V6.1H1Z"/><polygon class="cls-1" points="1 2.5 0 2.5 0 0 2.5 0 2.5 1 1 1 1 2.5"/><path class="cls-1" d="M79.64,1H75.79V0h3.85ZM71.93,1H68.07V0h3.86ZM64.21,1H60.36V0h3.85ZM56.5,1H52.64V0H56.5ZM48.79,1H44.93V0h3.86ZM41.07,1H37.21V0h3.86ZM33.36,1H29.5V0h3.86ZM25.64,1H21.79V0h3.85ZM17.93,1H14.07V0h3.86ZM10.21,1H6.36V0h3.85Z"/><polygon class="cls-1" points="86 2.5 85 2.5 85 1 83.5 1 83.5 0 86 0 86 2.5"/><path class="cls-1" d="M86,16.9H85V13.3h1Zm0-7.2H85V6.1h1Z"/></g></g></svg>