<svg xmlns="http://www.w3.org/2000/svg" viewBox="0 0 397.34 215.47"><defs><style>.cls-1{fill:#75b759;}</style></defs><title>green-leaves</title><g id="Layer_2" data-name="Layer 2"><g id="Green_Leaves_1" data-name="Green Leaves 1"><path class="cls-1" d="M145.18,141.16C125.36,123.4,106.58,104.74,88,85.87c-5.28-5.36-10.09-11.1-13.34-18-4.91-10.38-1.43-18.4,9.81-20.79,16.75-3.55,32.8-.19,48.14,6.81,23.61,10.78,41.08,28.62,55.91,49.36,4,5.53,7.47,11.38,11.47,17.51,1.11-2.05.63-3.88.65-5.58.26-19.31-1.06-38.66,1.06-57.93,1.47-13.41,2.83-26.87,8.24-39.46a71,71,0,0,1,3.46-7.2C220.66-2,228.79-3.23,240.32,6.2c9.34,7.65,13.17,18.72,15.36,30.14,4.69,24.42,4.11,49,1.41,73.58-.76,6.92-1.38,13.86-2.87,22.13,8-7.26,14.83-13.66,21.84-19.9C292.74,97.3,309.86,83,328.76,71c7.75-4.92,15.68-9.54,24.84-11.39,10-2,16,4.22,13.48,14.06-2.65,10.19-9.48,17.9-16.1,25.56-13.11,15.17-28.2,28.29-43.67,41-1.12.92-2.15,1.94-4.19,3.81,11.69-3.77,22.06-7.23,32.5-10.45,15.14-4.67,30.39-8.81,46.26-10.27,7.44-.68,14,1,15.1,5.08,1.69,5.91-3,9.17-6.58,12.43-10.55,9.63-23,16.47-35.57,23-37.28,19.49-75.81,36.07-116.23,48-19.57,5.78-39.31,3.74-58.95.67-33.66-5.26-64.72-18-94.58-34C63.9,167.23,42.7,156,23.1,142c-6.12-4.35-12.3-8.65-17.22-14.39C2.8,124-1.55,120.31.56,115c2.23-5.61,7.92-5.87,13.19-6.13,26.74-1.32,52.29,4.85,77.55,12.54C109.6,127,127.47,133.84,145.18,141.16Z"/></g></g></svg>