<svg xmlns="http://www.w3.org/2000/svg" viewBox="0 0 376.8 711.61"><defs><style>.cls-1{fill:#f5a12d;}.cls-2{fill:#91c36a;}.cls-3{fill:#71b954;}.cls-4{fill:#fff;}.cls-5{fill:#ffeb19;}.cls-6{fill:red;}.cls-7{fill:none;stroke:#000;stroke-linecap:round;stroke-miterlimit:10;stroke-width:4.23px;}</style></defs><title>parrot</title><g id="Layer_2" data-name="Layer 2"><g id="parrot_eyes_closed" data-name="parrot eyes closed"><path class="cls-1" d="M309.1,92.06c-7.18,12.39-17.57,21.27-30.5,27.09-7.7,3.46-15.59,2.14-22.91-1.34a288.55,288.55,0,0,1-33.17-18.42c-12.58-8.17-14.57-16.8-12.63-31.32,2.65-19.9,14.81-32.47,33.16-39.5,11.13-4.27,22.43-8.12,34.26-9.87,6.13-.91,12.28-1.67,18.62-1.11,8.61.76,12.93,6.19,14.84,13.32a151.89,151.89,0,0,1,3.55,15.49c.12,1.45.24,2.91.36,4.35-.05.11-.17.25-.14.34a3.87,3.87,0,0,0,.33.64l.57,3.67c0,3.81,0,7.63,0,11.45q-.27,2.75-.55,5.48c-.71.52-.58,1.16-.26,1.83-.12,1.84-.07,3.71-1,5.41a.65.65,0,0,0-.06.73C312.71,84.45,312.18,88.74,309.1,92.06Z"/><path class="cls-2" d="M226.15,368.75c8.2-6.4,16.29-13,23.4-20.69,7.51-8.07,14.65-16.48,22.25-24.46,9.47-10,18.57-20.23,26.27-31.57,18.73-27.57,30.9-58.16,40.82-89.82,2.4-7.68,3.43-7.47,8.15-22.9s-4.62-42.84-4.62-42.84a3.54,3.54,0,0,0-.16-.34c-2.48-5.42-4.67-11-8.34-15.8-6.44-8.48-14.59-15.32-21.87-23-1.48-1.54-2.81-3-2.95-5.29-7.18,12.39-17.57,21.27-30.5,27.09-7.7,3.46-15.59,2.14-22.91-1.34a288.55,288.55,0,0,1-33.17-18.42c-12.58-8.17-14.57-16.8-12.63-31.32,2.65-19.9,14.81-32.47,33.16-39.5,11.13-4.27,22.43-8.12,34.26-9.87,6.13-.91,12.28-1.67,18.62-1.11,8.61.76,12.93,6.19,14.84,13.32a151.89,151.89,0,0,1,3.55,15.49c2.75-4.13,2.95-8.91,3.2-13.58.57-10.57-3.63-16.72-13.44-20.6a218.37,218.37,0,0,0-34-10.68c-1.2-.26-5-.85-10.27-1.35a88.47,88.47,0,0,0-14.53.35c-2.4.22-7.92,1.37-9.64,1.76a78.82,78.82,0,0,0-37.86,19.89c-10.73,10.22-17.49,23-20.84,37.25a212.41,212.41,0,0,0-5.71,53.09c.12,5.62-1.91,10.58-4.72,15.48-6,10.41-12,20.77-17,31.78-5.27,11.65-10.35,23.33-14.65,35.36-5.19,14.54-9.28,29.43-13.29,44.31-3.84,14.31-6.94,28.82-10.38,43.24-2,8.26-2.69,16.65-3.26,25.11-1,15.46.18,31-1.78,46.41C102,387.13,88.43,415.92,67,441.11Q56,454,44.8,466.74a45.6,45.6,0,0,1-4.12,4.07c-3.61,3.22-1.38,4.22.59,5.42s6.29.56,9.9-.75C65,470.44,79,465.55,91.75,458c8.74-5.13,17.76-9.77,26.37-15.11C144,426.87,204.48,385.66,226.15,368.75Z"/><path class="cls-3" d="M122,440.46c-.31.91-.74,2-1.41,3.91s-1.65,4.24-2.46,6c-7.67,16.6-15.07,33.33-23,49.8C87.4,516.22,79.85,532.36,73.43,549c-1,2.7-.15,4,2.33,4.58a8.68,8.68,0,0,0,9-2.6q8.76-9.57,17.53-19.11c.77-.84,1.37-2.37,2.75-1.7s.71,2.15.46,3.23c-1,4.19-2,8.38-3.15,12.51-4.45,15.72-8.88,31.44-12.5,47.38-2.34,10.3-4.42,20.69-7,30.9-3.15,12.69-5.15,25.63-8.66,38.22-3.31,11.87-3.09,24.17-4.55,36.27-.43,3.58-.76,6.9,1.24,10.33s4.79,3.05,6.59,1.35c3.07-2.91,6.15-5.88,8.25-9.86,9.3-17.65,17.48-35.83,26.23-53.74,7.32-15,15-29.77,21.83-45,9-20.08,18.45-39.95,26.59-60.43,5.76-14.5,11.15-29.13,16.92-43.62,5.45-13.67,11.11-27.28,16.17-41.1s10.12-27.59,14.2-41.73C211,403.23,215,391.72,218.43,380c.85-2.9,1.42-5,1.88-6.85C196.43,391,147.36,424.44,122,440.46Z"/><path class="cls-4" d="M301.52,23.29c21.79,0,42.51,15,42.51,26.08S317.6,114,288.3,114s-48.94-27.51-48.94-44.3S262.94,23.29,301.52,23.29Z"/><path d="M316.56,99.26V25.49c3,.25,3.11.4,8,2.09,5.18,1.78,5.14,1.74,6.26,2.32C353,41.3,365,57.25,371.65,81.46c2,7.11,6.79,13.75,4.58,21.66-1.13,4.06-3,7.94-4.47,11.89l-1.53.06C365,106.23,358.87,98.28,348.56,95a17.83,17.83,0,0,0,4.2,6.42c2,2,2.08,3.35-.44,4.85-8.69,5.15-17.79,5.92-26.95,1.83C322.1,106.59,318.53,102.82,316.56,99.26Z"/><circle class="cls-5" cx="282.59" cy="56.51" r="17.62"/><path class="cls-6" d="M299.29,138.12c12,2.53,23.95-2,34.58-11.28,3-2.62,6.61-4.59,10-6.77,4.24-2.72,5.47-2.25,5.61,2.89.23,8.32,0,16.66-.18,25-.07,3.18-1.89,4.6-5.09,3.78-4.33-1.11-8.68-2.18-13-3.45-9.46-2.81-15.19-.78-21,7-3.73,5-7.82,9.79-11.92,14.52-2.9,3.35-4.51,3.32-6.27-.59-4.08-9.09-7.74-18.37-11.53-27.6-1.06-2.61.2-3.57,2.74-3.54C287.86,138.15,292.49,138.12,299.29,138.12Z"/><path class="cls-7" d="M272.82,48.89s-.95,17.86,10.72,17.86c8.57,0,6.19-9,13.57-9"/><path class="cls-3" d="M126.15,353.74c12-15.65,25.27-30.14,38.51-44.69,18.78-20.65,38.89-40,58.9-59.44,16-15.56,32.95-30.2,49.43-45.29,1-.9,3-1.56,2.15-3.42-.66-1.39-2.39-1-3.68-1-9,.16-17.46,2.12-25,7.21-6.66,4.51-13.22,9.18-19.85,13.74-22.76,15.68-44,33.14-63,53.3-16.83,17.86-32.08,36.87-44.82,57.85-3,5-8.44,12.34-12.43,19.64-.09.84-.1,1.69-.21,2.53A159.86,159.86,0,0,1,94.53,397c2.81-3.59,5.82-7.45,7-9.15C110.92,374.83,116.43,366.43,126.15,353.74Z"/></g><g id="parrot_eyes_open" data-name="parrot eyes open"><path class="cls-3" d="M131.51,377.88c-.58.77-1.33,1.68-2.55,3.29s-2.87,3.53-4.18,4.95c-12.41,13.43-24.59,27.08-37.21,40.3-12.32,12.91-24.46,25.94-35.69,39.82-1.83,2.25-1.38,3.76.8,5.08a8.71,8.71,0,0,0,9.34.28l22.55-12.8c1-.56,2-1.83,3.15-.77s0,2.27-.56,3.22c-2.22,3.68-4.47,7.36-6.85,10.94-9.06,13.59-18.11,27.18-26.46,41.23-5.39,9.08-10.56,18.33-16.12,27.27-6.9,11.1-12.78,22.8-20,33.7-6.8,10.29-10.37,22.06-15.48,33.12-1.51,3.28-2.84,6.33-2,10.21S3.88,622.1,6.12,621c3.81-1.82,7.66-3.71,10.88-6.85,14.28-13.93,27.65-28.72,41.49-43.07,11.56-12,23.43-23.71,34.59-36.08,14.74-16.34,29.84-32.34,43.88-49.33,9.94-12,19.56-24.29,29.51-36.3,9.39-11.34,19-22.55,28-34.14s18.11-23.14,26.33-35.35c6.81-10.09,14.15-19.82,21-29.88,1.69-2.51,2.89-4.36,3.89-5.95C217.48,353.73,160.53,370.42,131.51,377.88Z"/><path class="cls-1" d="M309.1,92.06c-7.18,12.39-17.57,21.27-30.5,27.09-7.7,3.46-15.59,2.14-22.91-1.34a288.55,288.55,0,0,1-33.17-18.42c-12.58-8.17-14.57-16.8-12.63-31.32,2.65-19.9,14.81-32.47,33.16-39.5,11.13-4.27,22.43-8.12,34.26-9.87,6.13-.91,12.28-1.67,18.62-1.11,8.61.76,12.93,6.19,14.84,13.32a151.89,151.89,0,0,1,3.55,15.49c.12,1.45.24,2.91.36,4.35-.05.11-.17.25-.14.34a3.87,3.87,0,0,0,.33.64l.57,3.67c0,3.81,0,7.63,0,11.45q-.27,2.75-.55,5.48c-.71.52-.58,1.16-.26,1.83-.12,1.84-.07,3.71-1,5.41a.65.65,0,0,0-.06.73C312.71,84.45,312.18,88.74,309.1,92.06Z"/><path class="cls-2" d="M226.15,368.75c8.2-6.4,16.29-13,23.4-20.69,7.51-8.07,14.65-16.48,22.25-24.46,9.47-10,18.57-20.23,26.27-31.57,18.73-27.57,30.9-58.16,40.82-89.82,2.4-7.68,3.43-7.47,8.15-22.9s-4.62-42.84-4.62-42.84a3.54,3.54,0,0,0-.16-.34c-2.48-5.42-4.67-11-8.34-15.8-6.44-8.48-14.59-15.32-21.87-23-1.48-1.54-2.81-3-2.95-5.29-7.18,12.39-17.57,21.27-30.5,27.09-7.7,3.46-15.59,2.14-22.91-1.34a288.55,288.55,0,0,1-33.17-18.42c-12.58-8.17-14.57-16.8-12.63-31.32,2.65-19.9,14.81-32.47,33.16-39.5,11.13-4.27,22.43-8.12,34.26-9.87,6.13-.91,12.28-1.67,18.62-1.11,8.61.76,12.93,6.19,14.84,13.32a151.89,151.89,0,0,1,3.55,15.49c2.75-4.13,2.95-8.91,3.2-13.58.57-10.57-3.63-16.72-13.44-20.6a218.37,218.37,0,0,0-34-10.68c-1.2-.26-5-.85-10.27-1.35a88.47,88.47,0,0,0-14.53.35c-2.4.22-7.92,1.37-9.64,1.76a78.82,78.82,0,0,0-37.86,19.89c-10.73,10.22-17.49,23-20.84,37.25a212.41,212.41,0,0,0-5.71,53.09c.12,5.62-1.91,10.58-4.72,15.48-6,10.41-12,20.77-17,31.78-5.27,11.65-10.35,23.33-14.65,35.36-5.19,14.54-9.28,29.43-13.29,44.31-3.84,14.31-6.94,28.82-10.38,43.24-2,8.26-2.69,16.65-3.26,25.11-1,15.46.18,31-1.78,46.41C102,387.13,88.43,415.92,67,441.11Q56,454,44.8,466.74a45.6,45.6,0,0,1-4.12,4.07c-3.61,3.22-1.38,4.22.59,5.42s6.29.56,9.9-.75C65,470.44,79,465.55,91.75,458c8.74-5.13,17.76-9.77,26.37-15.11C144,426.87,204.48,385.66,226.15,368.75Z"/><path class="cls-4" d="M301.52,23.29c21.79,0,42.51,15,42.51,26.08S317.6,114,288.3,114s-48.94-27.51-48.94-44.3S262.94,23.29,301.52,23.29Z"/><path d="M316.56,99.26V25.49c3,.25,3.11.4,8,2.09,5.18,1.78,5.14,1.74,6.26,2.32C353,41.3,365,57.25,371.65,81.46c2,7.11,6.79,13.75,4.58,21.66-1.13,4.06-3,7.94-4.47,11.89l-1.53.06C365,106.23,358.87,98.28,348.56,95a17.83,17.83,0,0,0,4.2,6.42c2,2,2.08,3.35-.44,4.85-8.69,5.15-17.79,5.92-26.95,1.83C322.1,106.59,318.53,102.82,316.56,99.26Z"/><circle class="cls-5" cx="282.59" cy="56.51" r="17.62"/><path class="cls-6" d="M303.6,132.4c9.92,7.21,22.69,7.91,36.16,3.81,3.83-1.17,7.91-1.5,11.89-2.11,5-.76,5.91.17,3.94,4.93-3.19,7.69-6.79,15.21-10.35,22.74-1.36,2.88-3.61,3.43-6.19,1.38-3.51-2.78-7-5.54-10.44-8.45-7.5-6.42-13.55-6.9-22.06-2.13-5.45,3.06-11.12,5.75-16.79,8.39-4,1.88-5.48,1.2-5.49-3.09,0-10,.42-19.94.73-29.9.09-2.82,1.63-3.18,3.94-2.12C293.15,127.77,297.38,129.63,303.6,132.4Z"/><path class="cls-3" d="M126.15,353.74c12-15.65,25.27-30.14,38.51-44.69,18.78-20.65,38.89-40,58.9-59.44,16-15.56,32.95-30.2,49.43-45.29,1-.9,3-1.56,2.15-3.42-.66-1.39-2.39-1-3.68-1-9,.16-17.46,2.12-25,7.21-6.66,4.51-13.22,9.18-19.85,13.74-22.76,15.68-44,33.14-63,53.3-16.83,17.86-32.08,36.87-44.82,57.85-3,5-8.44,12.34-12.43,19.64-.09.84-.1,1.69-.21,2.53A159.86,159.86,0,0,1,94.53,397c2.81-3.59,5.82-7.45,7-9.15C110.92,374.83,116.43,366.43,126.15,353.74Z"/><circle cx="282.84" cy="56.45" r="8.37"/><circle class="cls-4" cx="286.2" cy="53.09" r="2.96"/></g></g></svg>